<?xml version="1.0"?>
<svg xmlns="http://www.w3.org/2000/svg" width="202" height="155"><g><title>Layer 1</title><g clip-id="907" display="null" id="svg_4"><path id="svg_5" d="m83.27515,89.37055c-0.46004,-1.21599 -0.89432,-2.20373 -1.20842,-3.22884c-0.61052,-1.99316 -0.5272,-4.05045 -0.45044,-6.10369c0.0919,-2.44613 0.87614,-4.72157 1.79672,-6.93843c0.66152,-1.5927 1.69875,-2.95969 2.95262,-4.18679c1.98558,-1.94366 4.35191,-3.10815 7.04195,-3.54344c1.71088,-0.27673 3.48235,-0.45752 5.2028,-0.33682c2.52137,0.17725 4.93266,1.03117 7.05659,2.38552c1.60079,1.02057 2.85516,2.4845 3.90804,4.12115c1.45838,2.26736 2.51531,4.69228 3.32782,7.24798c0.24542,0.77262 0.64133,1.49777 1.0751,2.49006c0.17271,-0.45853 0.29188,-0.69637 0.35248,-0.94835c0.42065,-1.75734 0.76707,-3.53537 1.25791,-5.27251c0.53679,-1.89872 1.81691,-3.2152 3.56061,-4.11912c0.25653,-0.13281 0.52972,-0.48175 0.56204,-0.75797c0.18735,-1.61745 0.32319,-3.24197 0.43933,-4.8665c0.05707,-0.80241 0.08282,-1.61341 0.03131,-2.41481c-0.0303,-0.46912 -0.28228,-0.92007 -0.35753,-1.39172c-0.05353,-0.33632 -0.101,-0.89432 0.06615,-0.99633c0.29542,-0.17977 0.80695,-0.20048 1.12762,-0.06009c0.15655,0.06868 0.14443,0.65849 0.10454,1.00037c-0.04948,0.42721 -0.30046,0.8418 -0.30096,1.26245c-0.00153,2.44613 0.0313,4.89275 0.09544,7.33786c0.00707,0.26663 0.24188,0.70041 0.44893,0.75293c0.42468,0.10857 0.96906,0.1929 1.1256,-0.49943c0.12321,-0.54386 0.3353,-1.06702 0.457,-1.61139c0.48225,-2.15475 0.9534,-4.31203 1.39981,-6.47385c0.04544,-0.21967 -0.13231,-0.4767 -0.15503,-0.72112c-0.02828,-0.30198 -0.0914,-0.83018 0.01515,-0.87311c0.36257,-0.14493 0.8418,-0.24997 1.18518,-0.12271c0.37772,0.13988 0.48933,0.59587 0.13029,0.94785c-1.16701,1.14227 -0.85544,2.69508 -1.1357,4.0767c-0.27016,1.32861 -0.3651,2.69357 -0.65446,4.01712c-0.27016,1.23518 0.36409,1.94619 1.2165,2.60873c1.42354,1.10641 1.75228,3.61212 0.61304,5.00739c-0.76757,0.93977 -1.67906,1.76743 -2.39411,2.74154c-0.34086,0.46407 -0.53931,1.16045 -0.51559,1.73965c0.06666,1.63614 -0.2121,3.21167 -0.76303,4.71298c-0.63324,1.72602 -1.43868,3.38741 -2.91071,4.61147c-0.60445,0.50297 -1.14226,1.08773 -1.75783,1.57604c-1.37759,1.09177 -3.0415,1.36244 -4.72359,1.52554c-1.42455,0.13786 -2.85263,0.28229 -4.28172,0.32825c-3.50608,0.11311 -7.01872,0.32268 -10.52026,0.21865c-5.86231,-0.17422 -11.71958,-0.54336 -17.57634,-0.87715c-1.05541,-0.06009 -2.12041,-0.26562 -3.13644,-0.558c-0.47923,-0.13786 -1.065,-0.57063 -1.20841,-1.00087c-0.11868,-0.355 0.24996,-0.98472 0.56658,-1.35032c0.87514,-1.00895 2.07951,-1.39728 3.37933,-1.44727c1.12611,-0.04394 2.25625,-0.0096 3.55405,-0.0096z" fill-rule="evenodd"></path></g></g></svg>
