<?xml version="1.0"?>
<svg xmlns="http://www.w3.org/2000/svg" width="400" height="218"><g><title>Layer 1</title><g clip-id="908" display="null" id="svg_4"><path id="svg_5" d="m233.17393,104.41179c0,-2.51038 -0.27431,-5.06646 0.10625,-7.519c0.21918,-1.41049 1.34995,-2.80752 2.42026,-3.85226c0.22321,-0.21783 1.97386,1.16442 3.0482,1.76142c0.28908,0.16135 0.67633,0.14522 1.44411,0.29177c-0.20033,-1.74664 -0.38054,-3.28619 -0.54994,-4.8271c-0.0632,-0.57819 -0.26221,-1.19939 -0.12642,-1.72916c1.18999,-4.63213 1.20746,-4.62809 6.20938,-2.85995c-0.36171,-1.27065 -0.89281,-2.33556 -0.91837,-3.41394c-0.04303,-1.80848 0.02019,-3.68017 0.47731,-5.40797c0.2084,-0.78658 1.55705,-1.88914 2.22263,-1.78696c0.92644,0.14252 1.80313,1.19803 2.50095,2.03033c0.46794,0.55801 0.58896,1.40645 1.25316,2.07607c0,-1.50999 -0.21913,-3.06165 0.0538,-4.52188c0.36304,-1.93758 0.93448,-3.88589 1.77219,-5.66211c0.34152,-0.72474 1.75873,-1.53687 2.43372,-1.3567c0.82825,0.21918 1.59872,1.34057 2.01556,2.24683c0.48135,1.0461 0.5513,2.28313 0.90759,3.9464c1.27335,-3.96656 2.12985,-7.35629 3.5148,-10.51475c0.43295,-0.98693 2.29388,-1.34998 3.50131,-1.99807c0.39395,0.95601 1.07974,1.89857 1.13083,2.87341c0.17075,3.23778 0.05914,6.48902 0.18283,9.72951c0.02829,0.74355 0.56207,1.46696 0.86459,2.19976c0.22321,-0.03496 0.44641,-0.07126 0.66962,-0.10622c0.34418,-1.62025 0.5459,-3.28888 1.06894,-4.84862c0.65884,-1.96715 1.42529,-3.93833 2.47003,-5.71724c0.3819,-0.64809 1.69284,-0.99902 2.58163,-1.00038c0.4733,0 1.34457,1.02459 1.36075,1.60546c0.19632,6.9314 0.75565,13.90582 0.203,20.78748c-0.40469,5.03283 -3.0159,9.58294 -6.53745,13.41908c-7.00128,7.62252 -14.09676,15.16438 -20.88426,22.97513c-2.36917,2.72685 -5.72667,4.94545 -6.19592,9.03705c-0.0605,0.52844 -0.11967,1.05685 -0.21646,1.90933c3.47308,0.12773 6.77271,0.19228 9.62997,-1.84747c3.91818,-2.79675 8.1967,-2.52921 12.06242,-0.66692c1.83673,0.88474 3.49191,3.58603 3.88184,5.71184c0.63733,3.4758 0.17212,7.15326 0.17212,10.82805c-0.1842,-0.06589 -0.78528,-0.09279 -1.08105,-0.40741c-3.43945,-3.67345 -6.80365,-3.61966 -10.84149,-0.53516c-3.18269,2.43103 -6.86687,4.20323 -10.30902,6.30214c-1.25723,0.7664 -2.48888,1.5826 -3.67482,2.45253c-5.48326,4.02036 -11.66167,6.50653 -18.01895,8.82191c-7.90758,2.88013 -16.02893,1.43201 -24.03064,2.15675c-6.61409,0.59831 -13.27791,1.32709 -19.73599,2.79942c-7.50691,1.70898 -14.83897,4.23816 -22.60539,4.56491c-3.32384,0.13986 -6.70552,0.10892 -9.98094,-0.37784c-1.46829,-0.21913 -2.92046,-1.57317 -4.04588,-2.73625c-0.87265,-0.90222 -1.2263,-2.30867 -1.81119,-3.49055c2.01018,-3.33998 5.52226,-3.18536 8.72241,-3.73396c4.31885,-0.74088 8.82326,-0.91969 12.9135,-2.31808c3.88725,-1.32848 7.39128,-3.83614 10.97194,-5.97673c2.3342,-1.39571 4.52188,-3.04149 6.73911,-4.62408c0.81482,-0.5822 1.52884,-1.30559 2.5144,-2.16077c-3.75546,-2.61523 -7.28636,-4.7908 -10.4919,-7.36839c-5.16727,-4.15479 -9.48882,-8.86494 -12.14842,-15.28941c-1.80177,-4.34842 -1.66595,-8.50996 -1.60411,-13.06008c-4.30945,-0.51902 -8.49382,-1.19804 -10.92354,-5.52227c1.5665,-0.82691 2.70265,-1.42796 3.26067,-1.72241c-1.02055,-1.90126 -1.97386,-3.67883 -2.92719,-5.45639c1.57721,-0.52842 3.15442,-1.0555 4.74643,-1.58932c-1.99672,-1.84075 -4.1817,-3.85361 -6.92332,-6.37877c2.03841,-0.84978 3.19611,-1.3325 4.45195,-1.85554c-1.84747,-1.98195 -5.13904,-3.47444 -4.47346,-7.46924c0.757,-0.16943 1.50998,-0.33885 2.40953,-0.54189c-0.95468,-2.3154 -5.03149,-4.75986 0.08469,-7.23124c-0.26624,-0.72071 -0.41144,-1.89587 -1.04878,-2.66232c-1.22223,-1.46829 -1.52208,-3.08315 -0.29044,-4.3027c0.49077,-0.48674 2.2522,0.30927 3.63847,0.55801c-0.80673,-2.2616 -1.68208,-4.71549 -2.55875,-7.17208c0.34419,-0.22051 0.68976,-0.44102 1.03265,-0.66288c1.41182,1.48846 2.82365,2.97694 4.62137,4.87282c-0.10892,-2.01958 -0.18823,-3.51881 -0.26758,-5.01669c0.24876,-0.10758 0.49617,-0.2138 0.74492,-0.32002c3.45561,2.61524 4.78809,6.81442 7.21106,10.53627c1.20477,-2.6623 -1.73856,-6.05608 1.79774,-8.42929c0.59431,1.58125 1.39432,2.86131 1.52879,4.20859c0.61987,6.24702 3.31847,11.75718 6.68401,16.75504c2.23471,3.31713 5.67017,5.91757 8.8582,8.47768c5.16327,4.14539 10.68686,7.84439 15.83264,12.0113c4.40758,3.56856 8.67267,7.35226 12.67418,11.36723c3.10471,3.11544 5.70377,6.73376 8.83267,10.49593c1.27467,-2.45792 2.46062,-4.67249 3.582,-6.91931c1.9537,-3.91277 3.78233,-7.89143 5.8275,-11.75581c1.51534,-2.85593 2.45253,-3.25931 5.38106,-3.08584z" fill-rule="evenodd"></path></g></g></svg>
