<svg xmlns="http://www.w3.org/2000/svg" width="187" height="243" x="0" y="0" id="svgcontent" overflow="hidden" viewBox="0 0 187 243"><defs/><g style="pointer-events:all" mask=""><title style="pointer-events:inherit">Layer 1</title><g id="svg_1" type="text" text="Harish" font-size="16.387972841901068" font-family="Lobster Two" font-id="1" fill="000000" text-anchor="start" font-weight="bold" font-style="normal" lineHeight="1" shapeId="0" shapeVal="0" fill-opacity="1" display="null" elemBBoxWidth="169.34375" elemBBoxHeight="49.1796875" xscale="3.978018387891662" yscale="3.978234915924189" stroke-width="0" stroke="null" stroke-dasharray="none"><path id="svg_6" fill="#000000" stroke-width="0" d="M13.799427032470703,27.307090759277344 C7.4613494873046875,29.118064880371094 5.107206344604492,40.5272216796875 9.453315734863281,45.77906799316406 C3.839590072631836,45.77906799316406 1.1232719421386719,43.24369812011719 1.1232719421386719,37.991851806640625 C1.1232719421386719,27.850379943847656 11.80746078491211,21.87415313720703 23.034912109375,22.779640197753906 C23.034912109375,22.779640197753906 23.034912109375,42.1571044921875 23.034912109375,42.1571044921875 C23.034912109375,42.1571044921875 32.632572174072266,42.1571044921875 32.632572174072266,42.1571044921875 C32.632572174072266,42.1571044921875 32.632572174072266,22.779640197753906 32.632572174072266,22.779640197753906 C32.632572174072266,22.779640197753906 42.04914093017578,22.779640197753906 42.04914093017578,22.779640197753906 C42.04914093017578,22.779640197753906 42.04914093017578,71.49494934082031 42.04914093017578,71.49494934082031 C42.04914093017578,71.49494934082031 32.632572174072266,71.49494934082031 32.632572174072266,71.49494934082031 C32.632572174072266,71.49494934082031 32.632572174072266,47.0467529296875 32.632572174072266,47.0467529296875 C32.632572174072266,47.0467529296875 23.034912109375,47.0467529296875 23.034912109375,47.0467529296875 C23.034912109375,47.0467529296875 23.034912109375,71.49494934082031 23.034912109375,71.49494934082031 C23.034912109375,71.49494934082031 13.799427032470703,71.49494934082031 13.799427032470703,71.49494934082031 C13.799427032470703,71.49494934082031 13.799427032470703,27.307090759277344 13.799427032470703,27.307090759277344 C13.799427032470703,27.307090759277344 13.799427032470703,27.307090759277344 13.799427032470703,27.307090759277344 M66.85819244384766,65.88092041015625 C60.882286071777344,77.65226745605469 45.67090606689453,70.22726440429688 46.938514709472656,56.82603454589844 C47.843955993652344,47.408935546875 50.01701354980469,38.53515625 59.43358612060547,38.53515625 C62.69316864013672,38.53515625 64.50404357910156,39.621734619140625 65.40948486328125,41.97601318359375 C65.40948486328125,41.97601318359375 65.40948486328125,38.8973388671875 65.40948486328125,38.8973388671875 C65.40948486328125,38.8973388671875 74.82605743408203,38.8973388671875 74.82605743408203,38.8973388671875 C74.82605743408203,38.8973388671875 74.82605743408203,60.99127197265625 74.82605743408203,60.99127197265625 C74.82605743408203,64.43212890625 75.36932373046875,65.51872253417969 78.26673126220703,65.51872253417969 C80.9830551147461,65.51872253417969 82.79393005371094,62.4400634765625 82.97501373291016,59.72358703613281 C82.97501373291016,59.72358703613281 85.69133758544922,59.72358703613281 85.69133758544922,59.72358703613281 C84.42372131347656,66.42420959472656 81.88848876953125,71.67604064941406 74.46388244628906,71.85714721679688 C70.29885864257812,71.85714721679688 67.94471740722656,69.86506652832031 66.85819244384766,65.88092041015625 C66.85819244384766,65.88092041015625 66.85819244384766,65.88092041015625 66.85819244384766,65.88092041015625 M62.33099365234375,42.70039367675781 C57.079444885253906,43.42478942871094 56.35508728027344,50.48760986328125 56.35508728027344,56.10163879394531 C56.35508728027344,60.8101806640625 56.53617858886719,65.51872253417969 61.244468688964844,65.51872253417969 C68.12580871582031,65.51872253417969 64.68513488769531,52.47967529296875 65.40948486328125,45.23576354980469 C65.22840118408203,43.7869873046875 64.1418685913086,42.51930236816406 62.33099365234375,42.70039367675781 C62.33099365234375,42.70039367675781 62.33099365234375,42.70039367675781 62.33099365234375,42.70039367675781 M100.5405502319336,48.31443786621094 C97.28096771240234,48.49552917480469 98.00531768798828,44.511383056640625 95.47008514404297,44.14918518066406 C94.38355255126953,44.14918518066406 93.29702758789062,44.87358093261719 91.667236328125,46.68455505371094 C91.667236328125,46.68455505371094 91.667236328125,71.49494934082031 91.667236328125,71.49494934082031 C91.667236328125,71.49494934082031 82.25067138671875,71.49494934082031 82.25067138671875,71.49494934082031 C82.25067138671875,71.49494934082031 82.25067138671875,38.8973388671875 82.25067138671875,38.8973388671875 C82.25067138671875,38.8973388671875 91.667236328125,38.8973388671875 91.667236328125,38.8973388671875 C91.667236328125,38.8973388671875 91.667236328125,42.881500244140625 91.667236328125,42.881500244140625 C95.47008514404297,36.72416687011719 103.43795013427734,37.62965393066406 104.34339904785156,44.33027648925781 C104.16230773925781,46.503448486328125 102.89469146728516,48.31443786621094 100.5405502319336,48.31443786621094 C100.5405502319336,48.31443786621094 100.5405502319336,48.31443786621094 100.5405502319336,48.31443786621094 M111.04364013671875,35.275390625 C108.32733154296875,35.275390625 105.97319030761719,32.921119689941406 105.97319030761719,30.20465087890625 C105.97319030761719,27.488182067871094 108.50840759277344,24.95281982421875 111.04364013671875,24.95281982421875 C113.75996398925781,24.95281982421875 116.29519653320312,27.307090759277344 116.29519653320312,30.20465087890625 C116.29519653320312,32.921119689941406 113.75996398925781,35.275390625 111.04364013671875,35.275390625 C111.04364013671875,35.275390625 111.04364013671875,35.275390625 111.04364013671875,35.275390625 M126.79829406738281,59.72358703613281 C125.71176147460938,66.42420959472656 123.17654418945312,71.67604064941406 115.75193786621094,71.85714721679688 C101.98924255371094,72.21934509277344 107.96514892578125,51.393096923828125 106.69754028320312,38.8973388671875 C106.69754028320312,38.8973388671875 116.11410522460938,38.8973388671875 116.11410522460938,38.8973388671875 C116.11410522460938,38.8973388671875 116.11410522460938,60.99127197265625 116.11410522460938,60.99127197265625 C116.11410522460938,64.43212890625 116.65736389160156,65.33763122558594 119.55477905273438,65.51872253417969 C122.27108764648438,65.51872253417969 123.90089416503906,62.62115478515625 124.08198547363281,59.72358703613281 C124.08198547363281,59.72358703613281 126.79829406738281,59.72358703613281 126.79829406738281,59.72358703613281 C126.79829406738281,59.72358703613281 126.79829406738281,59.72358703613281 126.79829406738281,59.72358703613281 M142.9151153564453,68.23518371582031 C136.57705688476562,75.66020202636719 119.01152038574219,70.95166015625 122.99545288085938,59.36140441894531 C123.35762023925781,58.455902099609375 124.08198547363281,57.91261291503906 124.80632019042969,57.5504150390625 C127.341552734375,50.668701171875 128.9713592529297,44.33027648925781 129.69570922851562,38.17295837402344 C129.69570922851562,38.17295837402344 139.11228942871094,36.9052734375 139.11228942871094,36.9052734375 C140.92315673828125,45.77906799316406 144.36383056640625,53.022979736328125 144.90708923339844,63.16444396972656 C147.44232177734375,61.896759033203125 147.62339782714844,59.1802978515625 151.6073455810547,59.72358703613281 C149.61537170410156,62.80226135253906 146.7179718017578,65.69981384277344 142.9151153564453,68.23518371582031 C142.9151153564453,68.23518371582031 142.9151153564453,68.23518371582031 142.9151153564453,68.23518371582031 M128.06591796875,57.73152160644531 C130.6011505126953,58.455902099609375 130.4200439453125,62.98335266113281 127.7037353515625,62.98335266113281 C126.79829406738281,62.98335266113281 126.07394409179688,62.62115478515625 125.71176147460938,62.07786560058594 C125.71176147460938,67.87300109863281 135.30943298339844,68.59738159179688 135.30943298339844,62.07786560058594 C135.30943298339844,56.10163879394531 132.77420043945312,50.48760986328125 131.6876678466797,45.59796142578125 C131.1444091796875,47.952239990234375 130.05789184570312,51.93638610839844 128.06591796875,57.73152160644531 C128.06591796875,57.73152160644531 128.06591796875,57.73152160644531 128.06591796875,57.73152160644531 M161.9293670654297,44.511383056640625 C158.85086059570312,44.692474365234375 158.1265106201172,47.77113342285156 158.1265106201172,50.668701171875 C158.1265106201172,50.668701171875 158.1265106201172,71.49494934082031 158.1265106201172,71.49494934082031 C158.1265106201172,71.49494934082031 148.70994567871094,71.49494934082031 148.70994567871094,71.49494934082031 C148.70994567871094,71.49494934082031 148.70994567871094,27.125991821289062 148.70994567871094,27.125991821289062 C148.70994567871094,27.125991821289062 158.1265106201172,25.858306884765625 158.1265106201172,25.858306884765625 C158.1265106201172,25.858306884765625 158.1265106201172,42.33821105957031 158.1265106201172,42.33821105957031 C163.3780517578125,34.732093811035156 176.2353057861328,39.98393249511719 174.2433319091797,50.668701171875 C174.6055145263672,55.73944091796875 171.5270233154297,65.51872253417969 177.3218231201172,65.51872253417969 C180.7624969482422,65.51872253417969 180.7624969482422,62.4400634765625 181.66795349121094,59.72358703613281 C181.66795349121094,59.72358703613281 184.38426208496094,59.72358703613281 184.38426208496094,59.72358703613281 C183.2977294921875,66.06201171875 181.66795349121094,71.85714721679688 174.6055145263672,71.85714721679688 C165.0078582763672,72.03823852539062 164.6456756591797,62.07786560058594 165.18893432617188,51.75529479980469 C165.18893432617188,47.59004211425781 164.82675170898438,45.05467224121094 161.9293670654297,44.511383056640625 C161.9293670654297,44.511383056640625 161.9293670654297,44.511383056640625 161.9293670654297,44.511383056640625 " style="pointer-events:inherit"/><rect id="svg_7" x="1.125" y="22.69140625" width="183.2578125" height="49.16796875" fill="#000000" opacity="0" style="pointer-events:inherit"/></g><image x="23.750000149011612" y="92.4374992325902" width="143.5000041127205" height="107.62500308454037" preserveAspectRatio="none" id="svg_8" image_id="495" isAdminUploaded="false" display="null" xlink:href="http://192.168.0.222/work/jan_langius/print_commerce/source/designnbuy/assets/images/uploadedImage/o_1b22rkopg8asuk1dkh12s12e8a.jpg" xmlns:xlink="http://www.w3.org/1999/xlink" origWidth="1000" origHeight="750"/></g></svg>