<svg xmlns="http://www.w3.org/2000/svg" width="238" height="199" x="0" y="0" id="svgcontent" viewBox="0 0 238 199" overflow="hidden"><defs/><g mask="" style="pointer-events:all"><title style="pointer-events:inherit">Layer 1</title><g type="text" text="Star Performer Of The Year" font-size="36.16138429424803" font-family="Kroftsmann" font-id="1" fill="a7c2fb" text-anchor="start" font-weight="normal" font-style="normal" lineHeight="1" shapeId="9" shapeVal="225" fill-opacity="1" display="null" elemBBoxWidth="235.203125" id="svg_4" stroke-width="0" stroke="null" stroke-dasharray="none" style="pointer-events:inherit"><path id="svg_15" fill="#a7c2fb" stroke-width="0" d="M26.23022,158.56439C26.23022,158.56439 32.70894,158.70651 32.70894,158.70651C32.70894,158.70651 28.48526,145.5038 28.48526,145.5038C28.48526,145.5038 21.08043,145.7634 21.08043,145.7634C21.08043,145.7634 12.11723,156.64603 12.11723,156.64603C12.11723,156.64603 10.25024,150.81003 10.25024,150.81003C10.25024,150.81003 4.91188,150.93588 4.91188,150.93588C4.91188,150.93588 8.95192,163.56458 8.95192,163.56458C8.95192,163.56458 14.79925,163.38136 14.79925,163.38136C14.79925,163.38136 23.90414,151.29333 23.90414,151.29333C23.90414,151.29333 26.23022,158.56439 26.23022,158.56439C26.23022,158.56439 26.23022,158.56439 26.23022,158.56439M4.17997,148.25482C4.17997,148.25482 1.91721,133.96834 1.91721,133.96834C1.91721,133.96834 6.97701,133.16695 6.97701,133.16695C6.97701,133.16695 7.62126,137.23463 7.62126,137.23463C7.62126,137.23463 26.37226,134.26477 26.37226,134.26477C26.37226,134.26477 27.26793,139.91983 27.26793,139.91983C27.26793,139.91983 8.51694,142.88969 8.51694,142.88969C8.51694,142.88969 9.23976,147.45343 9.23976,147.45343C9.23976,147.45343 4.17997,148.25482 4.17997,148.25482C4.17997,148.25482 4.17997,148.25482 4.17997,148.25482M1.43363,118.43234C1.43363,118.43234 1.49679,128.07518 1.49679,128.07518C1.49679,128.07518 5.63547,131.16202 5.63547,131.16202C5.63547,131.16202 25.62425,131.03113 25.62425,131.03113C25.62425,131.03113 25.58742,125.40614 25.58742,125.40614C25.58742,125.40614 18.45574,125.45284 18.45574,125.45284C18.45574,125.45284 18.42877,121.33456 18.42877,121.33456C18.42877,121.33456 25.56044,121.28784 25.56044,121.28784C25.56044,121.28784 25.5236,115.66286 25.5236,115.66286C25.5236,115.66286 5.53483,115.79378 5.53483,115.79378C5.53483,115.79378 1.43363,118.43234 1.43363,118.43234M13.30602,121.3681C13.30602,121.3681 13.33298,125.48639 13.33298,125.48639C13.33298,125.48639 6.6031,125.53046 6.6031,125.53046C6.6031,125.53046 6.57612,121.41218 6.57612,121.41218C6.57612,121.41218 13.30602,121.3681 13.30602,121.3681C13.30602,121.3681 13.30602,121.3681 13.30602,121.3681M18.00276,103.11005C18.00276,103.11005 15.51504,99.56201 15.51504,99.56201C15.51504,99.56201 7.87626,98.34882 7.87626,98.34882C7.87626,98.34882 3.32043,100.77819 3.32043,100.77819C3.32043,100.77819 1.39822,112.88119 1.39822,112.88119C1.39822,112.88119 25.2074,116.66257 25.2074,116.66257C25.2074,116.66257 26.08973,111.1071 26.08973,111.1071C26.08973,111.1071 18.45095,109.89391 18.45095,109.89391C18.45095,109.89391 18.60851,108.90186 18.60851,108.90186C18.60851,108.90186 26.89327,106.04765 26.89327,106.04765C26.89327,106.04765 27.93316,99.50013 27.93316,99.50013C27.93316,99.50013 18.00276,103.11005 18.00276,103.11005M13.54613,105.55517C13.54613,105.55517 12.99468,109.02734 12.99468,109.02734C12.99468,109.02734 7.34,108.12926 7.34,108.12926C7.34,108.12926 7.89145,104.65709 7.89145,104.65709C7.89145,104.65709 13.54613,105.55517 13.54613,105.55517C13.54613,105.55517 13.54613,105.55517 13.54613,105.55517M26.22393,70.73532C26.22393,70.73532 19.22491,67.44344 19.22491,67.44344C19.22491,67.44344 14.17286,68.50839 14.17286,68.50839C14.17286,68.50839 8.95714,79.59775 8.95714,79.59775C8.95714,79.59775 30.77226,89.85818 30.77226,89.85818C30.77226,89.85818 33.16636,84.76798 33.16636,84.76798C33.16636,84.76798 26.16734,81.4761 26.16734,81.4761C26.16734,81.4761 28.98896,75.47694 28.98896,75.47694C28.98896,75.47694 26.22393,70.73532 26.22393,70.73532M22.66436,75.94337C22.66436,75.94337 21.16804,79.12475 21.16804,79.12475C21.16804,79.12475 15.98695,76.6879 15.98695,76.6879C15.98695,76.6879 17.48326,73.50653 17.48326,73.50653C17.48326,73.50653 22.66436,75.94337 22.66436,75.94337C22.66436,75.94337 22.66436,75.94337 22.66436,75.94337M16.78432,63.31282C16.78432,63.31282 23.79804,52.65697 23.79804,52.65697C23.79804,52.65697 27.71926,56.19997 27.71926,56.19997C27.71926,56.19997 24.24001,61.48594 24.24001,61.48594C24.24001,61.48594 27.17665,63.41885 27.17665,63.41885C27.17665,63.41885 31.09772,57.46165 31.09772,57.46165C31.09772,57.46165 34.93503,60.94942 34.93503,60.94942C34.93503,60.94942 31.45578,66.23539 31.45578,66.23539C31.45578,66.23539 35.73489,69.05193 35.73489,69.05193C35.73489,69.05193 39.65596,63.09472 39.65596,63.09472C39.65596,63.09472 43.49326,66.58249 43.49326,66.58249C43.49326,66.58249 36.92135,76.5671 36.92135,76.5671C36.92135,76.5671 16.78432,63.31282 16.78432,63.31282C16.78432,63.31282 16.78432,63.31282 16.78432,63.31282M44.50965,51.09632C44.50965,51.09632 44.35868,46.76569 44.35868,46.76569C44.35868,46.76569 38.61662,41.58385 38.61662,41.58385C38.61662,41.58385 33.47296,41.13643 33.47296,41.13643C33.47296,41.13643 25.26277,50.23426 25.26277,50.23426C25.26277,50.23426 43.16012,66.38543 43.16012,66.38543C43.16012,66.38543 46.92873,62.20938 46.92873,62.20938C46.92873,62.20938 41.18667,57.02755 41.18667,57.02755C41.18667,57.02755 41.85963,56.28183 41.85963,56.28183C41.85963,56.28183 50.36086,58.4062 50.36086,58.4062C50.36086,58.4062 54.80243,53.48442 54.80243,53.48442C54.80243,53.48442 44.50965,51.09632 44.50965,51.09632M39.44057,50.7162C39.44057,50.7162 37.08519,53.32624 37.08519,53.32624C37.08519,53.32624 32.83456,49.49033 32.83456,49.49033C32.83456,49.49033 35.18995,46.8803 35.18995,46.8803C35.18995,46.8803 39.44057,50.7162 39.44057,50.7162C39.44057,50.7162 39.44057,50.7162 39.44057,50.7162M53.01351,43.78872C53.01351,43.78872 58.53495,39.27467 58.53495,39.27467C58.53495,39.27467 55.29247,35.30856 55.29247,35.30856C55.29247,35.30856 49.77101,39.82261 49.77101,39.82261C49.77101,39.82261 46.52853,35.8565 46.52853,35.8565C46.52853,35.8565 52.04997,31.34245 52.04997,31.34245C52.04997,31.34245 48.80749,27.37634 48.80749,27.37634C48.80749,27.37634 38.93111,35.45077 38.93111,35.45077C38.93111,35.45077 54.18985,54.11481 54.18985,54.11481C54.18985,54.11481 58.5448,50.55443 58.5448,50.55443C58.5448,50.55443 53.01351,43.78872 53.01351,43.78872C53.01351,43.78872 53.01351,43.78872 53.01351,43.78872M53.29934,29.57101C53.29934,29.57101 53.57984,24.00613 53.57984,24.00613C53.57984,24.00613 61.40753,19.28583 61.40753,19.28583C61.40753,19.28583 66.20084,21.20459 66.20084,21.20459C66.20084,21.20459 74.13717,34.36544 74.13717,34.36544C74.13717,34.36544 73.85667,39.93032 73.85667,39.93032C73.85667,39.93032 66.02898,44.65062 66.02898,44.65062C66.02898,44.65062 61.23566,42.73186 61.23566,42.73186C61.23566,42.73186 53.29934,29.57101 53.29934,29.57101C53.29934,29.57101 53.29934,29.57101 53.29934,29.57101M68.28529,36.72129C68.28529,36.72129 61.64575,25.71089 61.64575,25.71089C61.64575,25.71089 58.63509,27.52639 58.63509,27.52639C58.63509,27.52639 65.27464,38.53679 65.27464,38.53679C65.27464,38.53679 68.28529,36.72129 68.28529,36.72129C68.28529,36.72129 68.28529,36.72129 68.28529,36.72129M83.46322,25.4575C83.46322,25.4575 85.2429,21.50655 85.2429,21.50655C85.2429,21.50655 82.38429,14.31968 82.38429,14.31968C82.38429,14.31968 77.96876,11.64377 77.96876,11.64377C77.96876,11.64377 66.58176,16.17298 66.58176,16.17298C66.58176,16.17298 75.49169,38.57363 75.49169,38.57363C75.49169,38.57363 80.71851,36.49464 80.71851,36.49464C80.71851,36.49464 77.8599,29.30777 77.8599,29.30777C77.8599,29.30777 78.79327,28.93652 78.79327,28.93652C78.79327,28.93652 85.47865,34.60128 85.47865,34.60128C85.47865,34.60128 91.63883,32.15106 91.63883,32.15106C91.63883,32.15106 83.46322,25.4575 83.46322,25.4575M79.08481,22.87493C79.08481,22.87493 75.81805,24.17429 75.81805,24.17429C75.81805,24.17429 73.70194,18.85414 73.70194,18.85414C73.70194,18.85414 76.9687,17.55477 76.9687,17.55477C76.9687,17.55477 79.08481,22.87493 79.08481,22.87493C79.08481,22.87493 79.08481,22.87493 79.08481,22.87493M101.30886,27.52552C101.30886,27.52552 103.13068,17.77063 103.13068,17.77063C103.13068,17.77063 105.33125,29.31522 105.33125,29.31522C105.33125,29.31522 110.85686,28.26196 110.85686,28.26196C110.85686,28.26196 106.34288,4.58074 106.34288,4.58074C106.34288,4.58074 99.83055,5.82209 99.83055,5.82209C99.83055,5.82209 97.91469,15.08363 97.91469,15.08363C97.91469,15.08363 92.23283,7.27032 92.23283,7.27032C92.23283,7.27032 85.72049,8.51167 85.72049,8.51167C85.72049,8.51167 90.23447,32.19288 90.23447,32.19288C90.23447,32.19288 95.76009,31.13962 95.76009,31.13962C95.76009,31.13962 93.55952,19.59503 93.55952,19.59503C93.55952,19.59503 99.33543,27.90169 99.33543,27.90169C99.33543,27.90169 101.30886,27.52552 101.30886,27.52552C101.30886,27.52552 101.30886,27.52552 101.30886,27.52552M109.33324,4.45754C109.33324,4.45754 122.08766,4.20445 122.08766,4.20445C122.08766,4.20445 121.38787,9.44268 121.38787,9.44268C121.38787,9.44268 115.06087,9.56823 115.06087,9.56823C115.06087,9.56823 115.13062,13.08323 115.13062,13.08323C115.13062,13.08323 122.26104,12.94173 122.26104,12.94173C122.26104,12.94173 121.55926,18.07953 121.55926,18.07953C121.55926,18.07953 115.23226,18.20508 115.23226,18.20508C115.23226,18.20508 115.33389,23.32693 115.33389,23.32693C115.33389,23.32693 122.46432,23.18544 122.46432,23.18544C122.46432,23.18544 121.76252,28.32324 121.76252,28.32324C121.76252,28.32324 109.81153,28.56039 109.81153,28.56039C109.81153,28.56039 109.33324,4.45754 109.33324,4.45754C109.33324,4.45754 109.33324,4.45754 109.33324,4.45754M135.10999,20.40151C135.10999,20.40151 138.59416,17.82513 138.59416,17.82513C138.59416,17.82513 139.6144,10.1582 139.6144,10.1582C139.6144,10.1582 137.07097,5.66506 137.07097,5.66506C137.07097,5.66506 124.92336,4.04857 124.92336,4.04857C124.92336,4.04857 121.74339,27.94551 121.74339,27.94551C121.74339,27.94551 127.31934,28.6875 127.31934,28.6875C127.31934,28.6875 128.33957,21.02057 128.33957,21.02057C128.33957,21.02057 129.33528,21.15307 129.33528,21.15307C129.33528,21.15307 132.39743,29.36325 132.39743,29.36325C132.39743,29.36325 138.96909,30.23774 138.96909,30.23774C138.96909,30.23774 135.10999,20.40151 135.10999,20.40151M132.55328,16.00794C132.55328,16.00794 129.06831,15.54419 129.06831,15.54419C129.06831,15.54419 129.82356,9.86867 129.82356,9.86867C129.82356,9.86867 133.30853,10.33241 133.30853,10.33241C133.30853,10.33241 132.55328,16.00794 132.55328,16.00794C132.55328,16.00794 132.55328,16.00794 132.55328,16.00794M156.51305,14.99059C156.51305,14.99059 161.22327,12.01394 161.22327,12.01394C161.22327,12.01394 169.59108,15.69279 169.59108,15.69279C169.59108,15.69279 170.78413,20.71613 170.78413,20.71613C170.78413,20.71613 164.59883,34.78508 164.59883,34.78508C164.59883,34.78508 159.88861,37.76173 159.88861,37.76173C159.88861,37.76173 151.52081,34.08289 151.52081,34.08289C151.52081,34.08289 150.32774,29.05954 150.32774,29.05954C150.32774,29.05954 156.51305,14.99059 156.51305,14.99059C156.51305,14.99059 156.51305,14.99059 156.51305,14.99059M159.30196,31.35908C159.30196,31.35908 164.47661,19.58898 164.47661,19.58898C164.47661,19.58898 161.25821,18.17403 161.25821,18.17403C161.25821,18.17403 156.08357,29.94414 156.08357,29.94414C156.08357,29.94414 159.30196,31.35908 159.30196,31.35908C159.30196,31.35908 159.30196,31.35908 159.30196,31.35908M171.50993,34.19305C171.50993,34.19305 177.56502,37.9612 177.56502,37.9612C177.56502,37.9612 180.27171,33.61178 180.27171,33.61178C180.27171,33.61178 174.21663,29.84362 174.21663,29.84362C174.21663,29.84362 176.92332,25.4942 176.92332,25.4942C176.92332,25.4942 182.97841,29.26236 182.97841,29.26236C182.97841,29.26236 185.68513,24.91293 185.68513,24.91293C185.68513,24.91293 174.85419,18.17271 174.85419,18.17271C174.85419,18.17271 162.11678,38.64059 162.11678,38.64059C162.11678,38.64059 166.89261,41.61265 166.89261,41.61265C166.89261,41.61265 171.50993,34.19305 171.50993,34.19305C171.50993,34.19305 171.50993,34.19305 171.50993,34.19305M199.9008,36.29504C199.9008,36.29504 209.63629,46.71965 209.63629,46.71965C209.63629,46.71965 204.86385,49.11501 204.86385,49.11501C204.86385,49.11501 202.12146,46.1785 202.12146,46.1785C202.12146,46.1785 188.24644,59.13627 188.24644,59.13627C188.24644,59.13627 184.33855,54.95174 184.33855,54.95174C184.33855,54.95174 198.21355,41.99397 198.21355,41.99397C198.21355,41.99397 195.05981,38.61698 195.05981,38.61698C195.05981,38.61698 199.9008,36.29504 199.9008,36.29504M220.11301,61.6011C220.11301,61.6011 216.62573,56.4412 216.62573,56.4412C216.62573,56.4412 209.38525,61.33459 209.38525,61.33459C209.38525,61.33459 207.41664,58.42174 207.41664,58.42174C207.41664,58.42174 214.65712,53.52835 214.65712,53.52835C214.65712,53.52835 211.50735,48.8678 211.50735,48.8678C211.50735,48.8678 191.53357,62.36681 191.53357,62.36681C191.53357,62.36681 194.68333,67.02737 194.68333,67.02737C194.68333,67.02737 203.1722,61.29028 203.1722,61.29028C203.1722,61.29028 205.14081,64.20313 205.14081,64.20313C205.14081,64.20313 196.65195,69.9402 196.65195,69.9402C196.65195,69.9402 200.13918,75.10011 200.13918,75.10011C200.13918,75.10011 220.11301,61.6011 220.11301,61.6011C220.11301,61.6011 220.11301,61.6011 220.11301,61.6011M221.4949,63.91948C221.4949,63.91948 227.06299,75.39709 227.06299,75.39709C227.06299,75.39709 222.01276,76.95394 222.01276,76.95394C222.01276,76.95394 219.25063,71.26032 219.25063,71.26032C219.25063,71.26032 216.08752,72.79484 216.08752,72.79484C216.08752,72.79484 219.20038,79.21146 219.20038,79.21146C219.20038,79.21146 214.24051,80.72446 214.24051,80.72446C214.24051,80.72446 211.47838,75.03085 211.47838,75.03085C211.47838,75.03085 206.86926,77.26685 206.86926,77.26685C206.86926,77.26685 209.98213,83.68348 209.98213,83.68348C209.98213,83.68348 205.02228,85.19648 205.02228,85.19648C205.02228,85.19648 199.80492,74.44187 199.80492,74.44187C199.80492,74.44187 221.4949,63.91948 221.4949,63.91948C221.4949,63.91948 221.4949,63.91948 221.4949,63.91948M211.03416,105.94875C211.03416,105.94875 209.94797,100.32718 209.94797,100.32718C209.94797,100.32718 220.99387,98.1929 220.99387,98.1929C220.99387,98.1929 232.70306,91.01978 232.70306,91.01978C232.70306,91.01978 233.88454,97.13447 233.88454,97.13447C233.88454,97.13447 229.04192,99.60474 229.04192,99.60474C229.04192,99.60474 234.43716,99.99458 234.43716,99.99458C234.43716,99.99458 235.61865,106.10927 235.61865,106.10927C235.61865,106.10927 222.08006,103.81448 222.08006,103.81448C222.08006,103.81448 211.03416,105.94875 211.03416,105.94875C211.03416,105.94875 211.03416,105.94875 211.03416,105.94875M235.9787,108.75742C235.9787,108.75742 236.6001,121.49922 236.6001,121.49922C236.6001,121.49922 231.34384,120.951 231.34384,120.951C231.34384,120.951 231.03558,114.63028 231.03558,114.63028C231.03558,114.63028 227.52406,114.80152 227.52406,114.80152C227.52406,114.80152 227.87146,121.92489 227.87146,121.92489C227.87146,121.92489 222.71553,121.37179 222.71553,121.37179C222.71553,121.37179 222.4073,115.05106 222.4073,115.05106C222.4073,115.05106 217.2905,115.30058 217.2905,115.30058C217.2905,115.30058 217.63788,122.42395 217.63788,122.42395C217.63788,122.42395 212.48199,121.87085 212.48199,121.87085C212.48199,121.87085 211.89972,109.93169 211.89972,109.93169C211.89972,109.93169 235.9787,108.75742 235.9787,108.75742C235.9787,108.75742 235.9787,108.75742 235.9787,108.75742M235.57063,136.9153C235.57063,136.9153 236.47397,127.31465 236.47397,127.31465C236.47397,127.31465 232.66541,123.82866 232.66541,123.82866C232.66541,123.82866 212.76408,121.95611 212.76408,121.95611C212.76408,121.95611 212.23714,127.55647 212.23714,127.55647C212.23714,127.55647 219.33762,128.22458 219.33762,128.22458C219.33762,128.22458 218.9518,132.32484 218.9518,132.32484C218.9518,132.32484 211.85133,131.65675 211.85133,131.65675C211.85133,131.65675 211.32439,137.25711 211.32439,137.25711C211.32439,137.25711 231.22569,139.12965 231.22569,139.12965C231.22569,139.12965 235.57063,136.9153 235.57063,136.9153M224.05214,132.80475C224.05214,132.80475 224.43794,128.70447 224.43794,128.70447C224.43794,128.70447 231.13838,129.33492 231.13838,129.33492C231.13838,129.33492 230.75258,133.4352 230.75258,133.4352C230.75258,133.4352 224.05214,132.80475 224.05214,132.80475C224.05214,132.80475 224.05214,132.80475 224.05214,132.80475M217.54329,150.52159C217.54329,150.52159 219.66313,154.30093 219.66313,154.30093C219.66313,154.30093 227.142,156.2731 227.142,156.2731C227.142,156.2731 231.91823,154.31226 231.91823,154.31226C231.91823,154.31226 235.04297,142.46263 235.04297,142.46263C235.04297,142.46263 211.73224,136.31561 211.73224,136.31561C211.73224,136.31561 210.29794,141.75478 210.29794,141.75478C210.29794,141.75478 217.77679,143.72696 217.77679,143.72696C217.77679,143.72696 217.52068,144.69823 217.52068,144.69823C217.52068,144.69823 208.99168,146.70831 208.99168,146.70831C208.99168,146.70831 207.30127,153.11876 207.30127,153.11876C207.30127,153.11876 217.54329,150.52159 217.54329,150.52159M222.22238,148.53514C222.22238,148.53514 223.11884,145.13565 223.11884,145.13565C223.11884,145.13565 228.65512,146.59557 228.65512,146.59557C228.65512,146.59557 227.75868,149.99504 227.75868,149.99504C227.75868,149.99504 222.22238,148.53514 222.22238,148.53514C222.22238,148.53514 222.22238,148.53514 222.22238,148.53514" style="pointer-events:inherit"/><rect id="svg_19" x="1.3984374492429197" y="4.046875322237611" width="235.20312810502946" height="159.51720949541777" fill="#a7c2fb" opacity="0" style="pointer-events:inherit"/></g><g stroke="null" transform="matrix(0.709041, 0, 0, 0.709041, -4.83247, -0.949222)" stroke-opacity="1" clip-id="598" display="null" fill-opacity="1" id="svg_16" style="pointer-events:inherit"><path stroke="null" stroke-width="0" id="svg_17" d="M144.27283,83.60306L167.47751,83.60306L174.64783,60.39838L181.81876,83.60306L205.02283,83.60306L186.24985,97.94431L193.42078,121.14838L174.64783,106.80713L155.87485,121.14838L163.04578,97.94431L144.27283,83.60306z" fill="#f7f1e9" style="pointer-events:inherit"/></g><g id="svg_1" type="text" text="Company Name" font-size="29.436400907774917" font-family="Brush-Script" font-id="1" fill="a7c2fb" text-anchor="start" font-weight="normal" font-style="normal" lineHeight="1" shapeId="0" shapeVal="0" fill-opacity="1" display="null" elemBBoxWidth="187.82421875" stroke-width="0" stroke="null" stroke-dasharray="none" style="pointer-events:inherit"><path id="svg_7" fill="#a7c2fb" stroke-width="0" d="M38.61858,175.29318C39.00125,174.91051 39.82547,175.20488 39.44279,175.76416C41.29729,174.14517 43.6522,172.11406 44.18206,169.72971C44.18206,169.34703 43.91713,169.02322 43.53445,169.08211C40.0904,169.75914 37.05845,172.82053 34.76241,175.23431C32.34862,177.76584 29.64047,180.474 29.31667,184.94832C29.11062,187.77422 31.93651,188.62787 34.55635,187.71535C38.85407,186.24353 42.09207,183.4765 45.33008,180.94498C45.41838,183.09383 44.21149,183.56482 42.65136,184.94832C40.20815,187.12662 37.9121,188.53957 35.9693,189.54041C34.0265,190.54124 32.23088,191.04166 30.61187,191.04166C27.37387,191.07109 24.87178,188.92224 25.10727,185.68423C25.54881,179.44371 29.9054,175.44037 33.79101,172.17293C35.93987,170.34787 38.61858,168.69943 41.44447,167.55141C43.82882,166.60945 46.91964,167.10986 46.74302,169.78857C46.56641,172.82053 44.53529,174.96939 42.85742,176.85332C41.44447,178.44289 39.61942,180.00301 37.82379,181.00385C36.9407,181.50427 36.20479,181.73976 35.61607,181.73976C33.96762,181.73976 33.7027,179.88527 34.6741,178.91386C35.93987,177.6481 37.35281,176.55894 38.61858,175.29318C38.61858,175.29318 38.61858,175.29318 38.61858,175.29318M57.78168,182.65228C57.78168,182.65228 57.7228,183.91805 57.7228,183.91805C56.4276,184.80115 55.4562,185.50761 53.45452,185.27213C52.18876,186.42015 51.21735,187.42097 49.12737,187.42097C45.24177,187.42097 45.38895,181.09215 47.7733,179.14935C49.48061,177.76584 51.24679,176.44121 54.10212,176.29402C54.86747,176.26459 55.66225,176.64726 55.69169,177.3243C55.69169,177.76584 55.33846,177.94246 55.01465,178.11908C55.80944,178.41344 56.04492,178.70781 56.04492,179.76752C56.04492,181.29822 55.36789,182.35793 54.63198,183.65312C56.13324,183.77087 56.7514,183.27045 57.78168,182.65228C57.78168,182.65228 57.78168,182.65228 57.78168,182.65228M51.62946,184.15355C50.80524,182.29904 51.80608,181.03328 52.6303,179.41428C50.83468,180.59174 48.18541,181.44539 48.18541,184.27129C48.18541,185.97859 51.07018,184.88945 51.62946,184.15355C51.62946,184.15355 51.62946,184.15355 51.62946,184.15355M74.7076,184.50677C76.29717,184.3596 77.15083,183.59425 78.68152,182.65228C78.62265,183.03496 78.62265,183.44707 78.62265,183.88861C76.65041,185.21326 74.56042,187.09718 71.7934,187.5976C70.20383,187.50929 69.90947,185.44875 70.822,184.06523C71.17524,183.53537 71.70509,182.53455 72.55875,181.18047C70.14496,182.88777 68.40822,185.33099 65.93556,186.97943C64.61092,187.86253 63.40402,186.47902 64.05163,185.0072C64.72867,183.50594 65.70007,182.1813 66.58316,180.88609C66.7009,180.70949 66.67146,180.44455 66.46541,180.41512C64.22824,181.65144 62.256,184.80115 60.60757,186.47902C60.16602,186.92056 59.9894,187.12662 59.43011,187.12662C57.51675,187.12662 57.48731,183.24101 58.25266,181.50427C59.01801,179.76752 60.51926,177.38316 62.75642,177.3243C64.08107,177.29486 64.19881,178.14851 63.40402,179.00217C62.28545,180.17963 60.78419,181.18047 60.37208,183.00552C60.37208,183.12326 60.46039,183.35876 60.54869,183.35876C62.78586,181.68088 65.31739,178.47232 67.81949,176.88275C69.02638,176.1174 70.79256,175.85248 70.79256,177.58922C70.79256,179.62033 68.93806,180.94498 68.05498,182.41679C68.05498,182.41679 74.88422,177.11824 74.88422,177.11824C75.41408,176.73557 75.76732,176.55894 75.9145,176.55894C76.62097,177.08881 77.59238,178.47232 76.5621,179.5909C76.5621,179.5909 75.38464,180.88609 75.38464,180.88609C74.7076,181.65144 73.70677,182.53455 73.67733,183.74142C73.67733,184.24185 74.14832,184.56564 74.7076,184.50677C74.7076,184.50677 74.7076,184.50677 74.7076,184.50677M92.81099,182.65228C92.81099,182.65228 92.75212,183.88861 92.75212,183.88861C90.69157,185.30156 88.54272,187.24437 85.3047,187.33267C84.39218,187.33267 83.86233,187.09718 83.21472,186.77338C82.36107,186.97943 81.53685,187.00887 80.6832,186.77338C80.6832,186.77338 77.76899,192.3663 77.76899,192.3663C77.32745,192.95503 77.26857,193.27882 76.65041,193.27882C76.09112,193.27882 75.70844,192.71953 75.79675,192.07193C76.38548,187.42097 80.24165,184.88945 82.00784,181.26877C80.94812,182.21074 79.74123,183.03496 78.62265,183.91805C78.56377,183.4765 78.59321,183.09383 78.65208,182.65228C82.47881,180.23849 83.53853,176.44121 86.62935,173.43869C87.18864,172.87939 89.04314,172.90883 89.01369,173.90967C88.33665,175.41093 86.04062,176.85332 85.18697,178.64894C85.18697,178.64894 84.53936,179.76752 84.53936,179.76752C86.30554,178.79611 87.80681,176.97105 90.19115,176.97105C91.95734,176.97105 91.6041,179.32597 90.83875,180.41512C89.69073,182.06355 88.1306,183.56482 86.68822,184.88945C89.48468,185.0955 90.6327,183.94748 92.81099,182.65228C92.81099,182.65228 92.81099,182.65228 92.81099,182.65228M82.7143,183.97693C83.5974,183.94748 84.48048,184.1241 85.1281,184.24185C86.27611,183.03496 87.54187,181.73976 87.95399,180.474C87.80681,179.47316 86.74709,180.41512 86.33498,180.62117C84.74541,181.41595 83.74458,182.62285 82.7143,183.97693C82.7143,183.97693 82.7143,183.97693 82.7143,183.97693M107.58807,182.65228C107.58807,183.06439 107.49976,183.50594 107.55863,183.88861C105.93963,185.12494 104.40894,186.56732 102.58388,187.5976C101.37698,188.27464 100.02291,187.89197 100.02291,186.56732C100.02291,185.18382 100.55276,184.50677 101.14149,183.15271C99.64024,184.3596 98.13898,185.7431 96.51998,186.77338C94.16507,188.27464 92.5755,185.30156 92.84043,182.65228C94.28281,179.53203 98.10954,177.97189 101.52416,176.79443C103.31979,176.17627 105.08597,176.17627 105.55695,177.76584C105.52752,178.2957 104.90936,178.35457 104.52668,178.53119C105.43921,178.82555 105.55695,179.82639 104.93879,180.62117C104.144,181.68088 102.73106,182.47566 102.73106,184.06523C102.73106,184.62453 103.20204,185.03664 103.82021,184.91888C105.43921,184.59509 105.76301,183.85918 107.58807,182.65228C107.58807,182.65228 107.58807,182.65228 107.58807,182.65228M95.16591,183.29988C95.04816,183.74142 94.72436,185.0955 95.48971,185.03664C98.43334,184.06523 100.81769,181.2099 102.7605,179.20822C100.14066,180.00301 97.63856,180.88609 95.7252,182.47566C95.46027,182.7406 95.25421,183.00552 95.16591,183.29988C95.16591,183.29988 95.16591,183.29988 95.16591,183.29988M113.6814,178.08965C113.18098,180.00301 110.53171,180.97441 110.00185,182.85834C110.23734,183.62369 110.88494,182.8289 111.17931,182.5051C112.85718,180.62117 115.59477,178.50175 117.77306,177.05937C118.53841,176.55894 119.06827,176.32346 119.39206,176.32346C120.12798,176.58838 120.06909,177.85416 120.36346,178.59006C119.53924,180.41512 116.80166,181.32765 116.80166,183.74142C116.80166,184.27129 117.09602,184.56564 117.65532,184.50677C119.15658,184.3596 119.92191,183.59425 121.33487,182.65228C121.33487,183.06439 121.24655,183.50594 121.30542,183.91805C119.36263,185.24269 117.86137,187.53873 114.9766,187.53873C113.0338,187.53873 113.29873,184.6834 114.15238,183.35876C114.15238,183.35876 115.94801,180.62117 115.94801,180.62117C113.74027,182.21074 111.94466,184.83058 110.00185,186.56732C108.35342,188.03915 107.26426,185.89029 107.52919,183.50594C107.82356,180.79779 109.41312,178.70781 111.41479,177.61867C112.23902,177.41261 113.62253,177.35373 113.6814,178.08965C113.6814,178.08965 113.6814,178.08965 113.6814,178.08965M132.46182,176.82388C133.25661,176.32346 133.52155,177.53035 133.58041,178.20738C132.78561,180.79779 131.04889,182.62285 129.66537,184.71283C129.66537,184.71283 127.45764,188.03915 127.45764,188.03915C129.63593,186.09634 131.9614,184.41847 134.28688,182.65228C134.25745,183.06439 134.22801,183.4765 134.25745,183.88861C131.10776,186.33183 128.3996,189.03998 125.95639,192.18968C125.54428,192.71953 124.98499,193.36714 124.39626,193.51431C123.21881,193.07277 123.39542,191.04166 124.16077,190.188C124.16077,190.188 128.28186,183.27045 128.28186,183.27045C128.28186,183.27045 125.8092,185.24269 125.8092,185.24269C125.07329,185.77254 124.10188,186.59676 123.33655,186.80281C121.24655,186.36127 120.86389,183.06439 121.89417,181.06271C122.92444,179.06105 124.69061,177.11824 126.78059,176.20572C127.78143,176.44121 128.42905,177.47148 127.60483,178.50175C126.48624,179.94414 124.98499,181.23933 123.5426,182.38736C123.24823,182.85834 123.04218,183.3882 122.98331,184.09467C125.30878,183.74142 126.48624,182.47566 127.89919,181.1216C127.89919,181.1216 132.46182,176.82388 132.46182,176.82388M159.13121,188.4807C157.24727,189.65814 155.06898,188.80449 155.33391,186.62621C155.98151,181.23933 159.86711,176.85332 162.01598,172.58504C157.30615,176.58838 153.03787,181.65144 149.44662,186.80281C149.1817,187.21492 148.97565,187.50929 148.5341,187.56816C147.26834,187.24437 145.73764,186.50845 146.73848,184.83058C146.73848,184.83058 149.32889,180.474 149.32889,180.474C149.32889,180.474 151.41887,176.61783 151.41887,176.61783C152.36084,174.91051 153.44998,173.64474 153.44998,172.02574C153.44998,171.64307 153.36168,171.40758 153.00844,171.40758C149.12283,172.14349 146.29694,175.05769 143.05893,176.55894C142.17584,176.50008 142.47021,174.88107 142.61739,174.20404C143.1178,171.79025 145.56104,170.02406 147.15059,168.7583C147.88651,168.16957 148.32803,167.75746 148.76959,168.25789C148.62241,168.93492 147.68045,169.52365 147.20947,170.20068C147.20947,170.20068 149.00508,169.22928 149.00508,169.22928C150.83014,168.28732 152.80238,167.05099 155.36334,167.05099C157.57108,167.05099 157.51221,169.28816 156.57024,171.17209C156.57024,171.17209 154.45082,175.3815 154.45082,175.3815C154.45082,175.3815 152.03703,179.53203 152.03703,179.53203C152.03703,179.53203 155.92264,175.11656 155.92264,175.11656C157.98318,172.99715 160.22035,170.52449 162.5164,168.78773C163.45836,168.05183 164.16483,167.69859 164.66525,167.69859C165.98988,168.1107 166.87299,169.14098 167.02016,170.73055C166.6375,172.05518 165.51891,173.02658 164.81242,174.11572C163.22287,176.50008 161.3978,178.97273 160.16148,181.59258C159.66106,182.65228 159.39613,183.4765 159.39613,184.09467C159.39613,185.30156 160.51472,185.33099 161.45668,184.59509C163.07568,183.29988 164.66525,181.68088 166.0782,180.15019C166.4903,182.29904 164.90074,183.4765 163.75272,184.77171C162.5164,186.18465 160.72076,187.47986 159.13121,188.4807C159.13121,188.4807 159.13121,188.4807 159.13121,188.4807M181.444,182.65228C181.444,183.06439 181.35568,183.50594 181.41457,183.88861C179.79556,185.12494 178.26486,186.56732 176.43982,187.5976C175.23291,188.27464 173.87885,187.89197 173.87885,186.56732C173.87885,185.18382 174.40871,184.50677 174.99742,183.15271C173.49617,184.3596 171.99492,185.7431 170.37592,186.77338C168.021,188.27464 166.43143,185.30156 166.69637,182.65228C168.13873,179.53203 171.96548,177.97189 175.38011,176.79443C177.17572,176.17627 178.94189,176.17627 179.41289,177.76584C179.38345,178.2957 178.76529,178.35457 178.38261,178.53119C179.29514,178.82555 179.41289,179.82639 178.79472,180.62117C177.99994,181.68088 176.58699,182.47566 176.58699,184.06523C176.58699,184.62453 177.05798,185.03664 177.67613,184.91888C179.29514,184.59509 179.61894,183.85918 181.444,182.65228C181.444,182.65228 181.444,182.65228 181.444,182.65228M169.02184,183.29988C168.9041,183.74142 168.58029,185.0955 169.34564,185.03664C172.28928,184.06523 174.67363,181.2099 176.61642,179.20822C173.9966,180.00301 171.49449,180.88609 169.58113,182.47566C169.31621,182.7406 169.11014,183.00552 169.02184,183.29988C169.02184,183.29988 169.02184,183.29988 169.02184,183.29988M198.36993,184.50677C199.95949,184.3596 200.81316,183.59425 202.34384,182.65228C202.28497,183.03496 202.28497,183.44707 202.28497,183.88861C200.31273,185.21326 198.22275,187.09718 195.45572,187.5976C193.86615,187.50929 193.57179,185.44875 194.48431,184.06523C194.83755,183.53537 195.36742,182.53455 196.22107,181.18047C193.80728,182.88777 192.07054,185.33099 189.59789,186.97943C188.27324,187.86253 187.06635,186.47902 187.71394,185.0072C188.39099,183.50594 189.3624,182.1813 190.24548,180.88609C190.36322,180.70949 190.33379,180.44455 190.12773,180.41512C187.89058,181.65144 185.91833,184.80115 184.2699,186.47902C183.82835,186.92056 183.65173,187.12662 183.09244,187.12662C181.17908,187.12662 181.14964,183.24101 181.91498,181.50427C182.68033,179.76752 184.18159,177.38316 186.41875,177.3243C187.74338,177.29486 187.86115,178.14851 187.06635,179.00217C185.94777,180.17963 184.44652,181.18047 184.03439,183.00552C184.03439,183.12326 184.12271,183.35876 184.21103,183.35876C186.44818,181.68088 188.97972,178.47232 191.48181,176.88275C192.68871,176.1174 194.45488,175.85248 194.45488,177.58922C194.45488,179.62033 192.6004,180.94498 191.7173,182.41679C191.7173,182.41679 198.54654,177.11824 198.54654,177.11824C199.0764,176.73557 199.42964,176.55894 199.57681,176.55894C200.28329,177.08881 201.2547,178.47232 200.22443,179.5909C200.22443,179.5909 199.04697,180.88609 199.04697,180.88609C198.36993,181.65144 197.36909,182.53455 197.33966,183.74142C197.33966,184.24185 197.81064,184.56564 198.36993,184.50677C198.36993,184.50677 198.36993,184.50677 198.36993,184.50677M212.91151,182.65228C212.91151,182.65228 212.85265,183.88861 212.85265,183.88861C210.76265,185.38988 208.93759,187.5976 205.64072,187.5976C203.34468,187.5976 202.40273,186.24353 202.28497,183.91805C202.07892,179.82639 206.40607,176.14684 210.35054,176.14684C211.38081,176.14684 212.1756,176.55894 212.1756,177.50092C212.1756,180.91554 207.9662,181.8575 205.16974,182.94666C204.87538,184.30072 205.64072,185.15437 206.96536,185.12494C209.46745,185.0955 211.26308,183.68256 212.91151,182.65228C212.91151,182.65228 212.91151,182.65228 212.91151,182.65228M209.73238,178.20738C209.70294,177.6481 209.02591,177.88359 208.6138,178.06021C207.23029,178.70781 206.11171,180.06187 205.46411,181.50427C206.93593,180.94498 208.3783,180.03244 209.32027,179.0316C209.58521,178.70781 209.73238,178.44289 209.73238,178.20738C209.73238,178.20738 209.73238,178.20738 209.73238,178.20738" style="pointer-events:inherit"/><rect id="svg_8" x="25.086914053186774" y="167.05078109400347" width="187.82422503037378" height="26.46252955775708" fill="#a7c2fb" opacity="0" style="pointer-events:inherit"/></g><g type="text" text="Receipient Name" font-size="29.436400907774917" font-family="Bebas Neue" font-id="1" fill="a7c2fb" text-anchor="start" font-weight="normal" font-style="normal" lineHeight="1" shapeId="0" shapeVal="0" fill-opacity="1" display="null" elemBBoxWidth="154.216796875" stroke-width="0" stroke="null" stroke-dasharray="none" id="svg_20" style="pointer-events:inherit"><path id="svg_37" fill="#a7c2fb" stroke-width="0" d="M52.03312110900879,117.11988067626953 C52.03312110900879,117.11988067626953 48.680641174316406,117.11988067626953 48.680641174316406,117.11988067626953 C47.617661476135254,114.83039093017578 50.39776134490967,107.3895206451416 45.164621353149414,108.69780158996582 C45.164621353149414,108.69780158996582 45.164621353149414,117.11988067626953 45.164621353149414,117.11988067626953 C45.164621353149414,117.11988067626953 41.89391088485718,117.11988067626953 41.89391088485718,117.11988067626953 C41.89391088485718,117.11988067626953 41.89391088485718,96.51440048217773 41.89391088485718,96.51440048217773 C47.617661476135254,96.2691011428833 51.62428092956543,96.187331199646 51.62428092956543,102.89229011535645 C51.62428092956543,105.01825141906738 50.970130920410156,106.40830993652344 49.498311042785645,107.06245040893555 C52.850791931152344,108.12543106079102 50.88837146759033,113.76741027832031 52.03312110900879,117.11988067626953 C52.03312110900879,117.11988067626953 52.03312110900879,117.11988067626953 52.03312110900879,117.11988067626953 M48.35357093811035,103.62820053100586 C48.35357093811035,100.68456077575684 48.10826110839844,98.80390071868896 45.164621353149414,99.45804119110107 C45.164621353149414,99.45804119110107 45.164621353149414,105.75415992736816 45.164621353149414,105.75415992736816 C47.045281410217285,105.83592987060547 48.35357093811035,105.83592987060547 48.35357093811035,103.62820053100586 C48.35357093811035,103.62820053100586 48.35357093811035,103.62820053100586 48.35357093811035,103.62820053100586 M56.93918037414551,99.45804119110107 C56.93918037414551,99.45804119110107 56.93918037414551,105.18179130554199 56.93918037414551,105.18179130554199 C56.93918037414551,105.18179130554199 61.35464096069336,105.18179130554199 61.35464096069336,105.18179130554199 C61.35464096069336,105.18179130554199 61.35464096069336,108.12543106079102 61.35464096069336,108.12543106079102 C61.35464096069336,108.12543106079102 56.93918037414551,108.12543106079102 56.93918037414551,108.12543106079102 C56.93918037414551,108.12543106079102 56.93918037414551,114.17624092102051 56.93918037414551,114.17624092102051 C56.93918037414551,114.17624092102051 62.49939155578613,114.17624092102051 62.49939155578613,114.17624092102051 C62.49939155578613,114.17624092102051 62.49939155578613,117.11988067626953 62.49939155578613,117.11988067626953 C62.49939155578613,117.11988067626953 53.66847038269043,117.11988067626953 53.66847038269043,117.11988067626953 C53.66847038269043,117.11988067626953 53.66847038269043,96.51440048217773 53.66847038269043,96.51440048217773 C53.66847038269043,96.51440048217773 62.49939155578613,96.51440048217773 62.49939155578613,96.51440048217773 C62.49939155578613,96.51440048217773 62.49939155578613,99.45804119110107 62.49939155578613,99.45804119110107 C62.49939155578613,99.45804119110107 56.93918037414551,99.45804119110107 56.93918037414551,99.45804119110107 C56.93918037414551,99.45804119110107 56.93918037414551,99.45804119110107 56.93918037414551,99.45804119110107 M70.8397102355957,109.4337100982666 C70.8397102355957,109.4337100982666 73.86511993408203,109.4337100982666 73.86511993408203,109.4337100982666 C74.19218063354492,113.93094062805176 73.29273986816406,117.36519050598145 69.04082107543945,117.36519050598145 C62.00879096984863,117.36519050598145 64.21652030944824,107.79836082458496 64.21652030944824,101.42047119140625 C64.21652030944824,98.14976119995117 65.85187149047852,96.2691011428833 69.04082107543945,96.2691011428833 C72.96567153930664,96.187331199646 74.19218063354492,99.13097095489502 73.86511993408203,103.46466064453125 C73.86511993408203,103.46466064453125 70.8397102355957,103.46466064453125 70.8397102355957,103.46466064453125 C70.92147064208984,101.50224113464355 71.00324249267578,99.21274089813232 69.1225814819336,99.21274089813232 C68.05960083007812,99.21274089813232 67.48723030090332,99.78511047363281 67.48723030090332,101.25693035125732 C67.48723030090332,101.25693035125732 67.48723030090332,112.37734985351562 67.48723030090332,112.37734985351562 C67.48723030090332,113.84917068481445 68.05960083007812,114.42155075073242 69.1225814819336,114.42155075073242 C71.24855041503906,114.42155075073242 70.8397102355957,111.4779109954834 70.8397102355957,109.4337100982666 C70.8397102355957,109.4337100982666 70.8397102355957,109.4337100982666 70.8397102355957,109.4337100982666 M79.0164794921875,99.45804119110107 C79.0164794921875,99.45804119110107 79.0164794921875,105.18179130554199 79.0164794921875,105.18179130554199 C79.0164794921875,105.18179130554199 83.43194198608398,105.18179130554199 83.43194198608398,105.18179130554199 C83.43194198608398,105.18179130554199 83.43194198608398,108.12543106079102 83.43194198608398,108.12543106079102 C83.43194198608398,108.12543106079102 79.0164794921875,108.12543106079102 79.0164794921875,108.12543106079102 C79.0164794921875,108.12543106079102 79.0164794921875,114.17624092102051 79.0164794921875,114.17624092102051 C79.0164794921875,114.17624092102051 84.57669067382812,114.17624092102051 84.57669067382812,114.17624092102051 C84.57669067382812,114.17624092102051 84.57669067382812,117.11988067626953 84.57669067382812,117.11988067626953 C84.57669067382812,117.11988067626953 75.74576950073242,117.11988067626953 75.74576950073242,117.11988067626953 C75.74576950073242,117.11988067626953 75.74576950073242,96.51440048217773 75.74576950073242,96.51440048217773 C75.74576950073242,96.51440048217773 84.57669067382812,96.51440048217773 84.57669067382812,96.51440048217773 C84.57669067382812,96.51440048217773 84.57669067382812,99.45804119110107 84.57669067382812,99.45804119110107 C84.57669067382812,99.45804119110107 79.0164794921875,99.45804119110107 79.0164794921875,99.45804119110107 C79.0164794921875,99.45804119110107 79.0164794921875,99.45804119110107 79.0164794921875,99.45804119110107 M86.53911972045898,117.11988067626953 C86.53911972045898,117.11988067626953 86.53911972045898,96.51440048217773 86.53911972045898,96.51440048217773 C86.53911972045898,96.51440048217773 89.80982971191406,96.51440048217773 89.80982971191406,96.51440048217773 C89.80982971191406,96.51440048217773 89.80982971191406,117.11988067626953 89.80982971191406,117.11988067626953 C89.80982971191406,117.11988067626953 86.53911972045898,117.11988067626953 86.53911972045898,117.11988067626953 C86.53911972045898,117.11988067626953 86.53911972045898,117.11988067626953 86.53911972045898,117.11988067626953 M92.09933090209961,96.51440048217773 C97.25070190429688,96.2691011428833 101.74792861938477,96.2691011428833 101.74792861938477,101.58400058746338 C101.74792861938477,106.73538017272949 100.84848403930664,110.00609016418457 95.37004089355469,109.3519401550293 C95.37004089355469,109.3519401550293 95.37004089355469,117.11988067626953 95.37004089355469,117.11988067626953 C95.37004089355469,117.11988067626953 92.09933090209961,117.11988067626953 92.09933090209961,117.11988067626953 C92.09933090209961,117.11988067626953 92.09933090209961,96.51440048217773 92.09933090209961,96.51440048217773 C92.09933090209961,96.51440048217773 92.09933090209961,96.51440048217773 92.09933090209961,96.51440048217773 M98.47721099853516,101.42047119140625 C98.5589828491211,99.21274089813232 97.25070190429688,99.45804119110107 95.37004089355469,99.45804119110107 C95.37004089355469,99.45804119110107 95.37004089355469,106.40830993652344 95.37004089355469,106.40830993652344 C97.16893005371094,106.40830993652344 98.47721099853516,106.73538017272949 98.47721099853516,104.52764129638672 C98.47721099853516,104.52764129638672 98.47721099853516,101.42047119140625 98.47721099853516,101.42047119140625 C98.47721099853516,101.42047119140625 98.47721099853516,101.42047119140625 98.47721099853516,101.42047119140625 M103.13798141479492,117.11988067626953 C103.13798141479492,117.11988067626953 103.13798141479492,96.51440048217773 103.13798141479492,96.51440048217773 C103.13798141479492,96.51440048217773 106.40868759155273,96.51440048217773 106.40868759155273,96.51440048217773 C106.40868759155273,96.51440048217773 106.40868759155273,117.11988067626953 106.40868759155273,117.11988067626953 C106.40868759155273,117.11988067626953 103.13798141479492,117.11988067626953 103.13798141479492,117.11988067626953 C103.13798141479492,117.11988067626953 103.13798141479492,117.11988067626953 103.13798141479492,117.11988067626953 M111.96889877319336,99.45804119110107 C111.96889877319336,99.45804119110107 111.96889877319336,105.18179130554199 111.96889877319336,105.18179130554199 C111.96889877319336,105.18179130554199 116.38435745239258,105.18179130554199 116.38435745239258,105.18179130554199 C116.38435745239258,105.18179130554199 116.38435745239258,108.12543106079102 116.38435745239258,108.12543106079102 C116.38435745239258,108.12543106079102 111.96889877319336,108.12543106079102 111.96889877319336,108.12543106079102 C111.96889877319336,108.12543106079102 111.96889877319336,114.17624092102051 111.96889877319336,114.17624092102051 C111.96889877319336,114.17624092102051 117.52910995483398,114.17624092102051 117.52910995483398,114.17624092102051 C117.52910995483398,114.17624092102051 117.52910995483398,117.11988067626953 117.52910995483398,117.11988067626953 C117.52910995483398,117.11988067626953 108.69819259643555,117.11988067626953 108.69819259643555,117.11988067626953 C108.69819259643555,117.11988067626953 108.69819259643555,96.51440048217773 108.69819259643555,96.51440048217773 C108.69819259643555,96.51440048217773 117.52910995483398,96.51440048217773 117.52910995483398,96.51440048217773 C117.52910995483398,96.51440048217773 117.52910995483398,99.45804119110107 117.52910995483398,99.45804119110107 C117.52910995483398,99.45804119110107 111.96889877319336,99.45804119110107 111.96889877319336,99.45804119110107 C111.96889877319336,99.45804119110107 111.96889877319336,99.45804119110107 111.96889877319336,99.45804119110107 M126.44179916381836,117.11988067626953 C126.44179916381836,117.11988067626953 122.43518447875977,102.15638065338135 122.43518447875977,102.15638065338135 C122.43518447875977,102.15638065338135 122.43518447875977,117.11988067626953 122.43518447875977,117.11988067626953 C122.43518447875977,117.11988067626953 119.49152755737305,117.11988067626953 119.49152755737305,117.11988067626953 C119.49152755737305,117.11988067626953 119.49152755737305,96.51440048217773 119.49152755737305,96.51440048217773 C119.49152755737305,96.51440048217773 123.57992172241211,96.51440048217773 123.57992172241211,96.51440048217773 C123.57992172241211,96.51440048217773 126.85062789916992,108.86134147644043 126.85062789916992,108.86134147644043 C126.85062789916992,108.86134147644043 126.85062789916992,96.51440048217773 126.85062789916992,96.51440048217773 C126.85062789916992,96.51440048217773 129.79428482055664,96.51440048217773 129.79428482055664,96.51440048217773 C129.79428482055664,96.51440048217773 129.79428482055664,117.11988067626953 129.79428482055664,117.11988067626953 C129.79428482055664,117.11988067626953 126.44179916381836,117.11988067626953 126.44179916381836,117.11988067626953 C126.44179916381836,117.11988067626953 126.44179916381836,117.11988067626953 126.44179916381836,117.11988067626953 M131.10255813598633,99.45804119110107 C131.10255813598633,99.45804119110107 131.10255813598633,96.51440048217773 131.10255813598633,96.51440048217773 C131.10255813598633,96.51440048217773 141.07822799682617,96.51440048217773 141.07822799682617,96.51440048217773 C141.07822799682617,96.51440048217773 141.07822799682617,99.45804119110107 141.07822799682617,99.45804119110107 C141.07822799682617,99.45804119110107 137.72574996948242,99.45804119110107 137.72574996948242,99.45804119110107 C137.72574996948242,99.45804119110107 137.72574996948242,117.11988067626953 137.72574996948242,117.11988067626953 C137.72574996948242,117.11988067626953 134.4550437927246,117.11988067626953 134.4550437927246,117.11988067626953 C134.4550437927246,117.11988067626953 134.4550437927246,99.45804119110107 134.4550437927246,99.45804119110107 C134.4550437927246,99.45804119110107 131.10255813598633,99.45804119110107 131.10255813598633,99.45804119110107 C131.10255813598633,99.45804119110107 131.10255813598633,99.45804119110107 131.10255813598633,99.45804119110107 M153.91576766967773,117.11988067626953 C153.91576766967773,117.11988067626953 149.90915298461914,102.15638065338135 149.90915298461914,102.15638065338135 C149.90915298461914,102.15638065338135 149.90915298461914,117.11988067626953 149.90915298461914,117.11988067626953 C149.90915298461914,117.11988067626953 146.96551132202148,117.11988067626953 146.96551132202148,117.11988067626953 C146.96551132202148,117.11988067626953 146.96551132202148,96.51440048217773 146.96551132202148,96.51440048217773 C146.96551132202148,96.51440048217773 151.05389785766602,96.51440048217773 151.05389785766602,96.51440048217773 C151.05389785766602,96.51440048217773 154.32461166381836,108.86134147644043 154.32461166381836,108.86134147644043 C154.32461166381836,108.86134147644043 154.32461166381836,96.51440048217773 154.32461166381836,96.51440048217773 C154.32461166381836,96.51440048217773 157.26825332641602,96.51440048217773 157.26825332641602,96.51440048217773 C157.26825332641602,96.51440048217773 157.26825332641602,117.11988067626953 157.26825332641602,117.11988067626953 C157.26825332641602,117.11988067626953 153.91576766967773,117.11988067626953 153.91576766967773,117.11988067626953 C153.91576766967773,117.11988067626953 153.91576766967773,117.11988067626953 153.91576766967773,117.11988067626953 M166.6715431213379,96.51440048217773 C166.6715431213379,96.51440048217773 170.02402114868164,117.11988067626953 170.02402114868164,117.11988067626953 C170.02402114868164,117.11988067626953 166.75331497192383,117.11988067626953 166.75331497192383,117.11988067626953 C166.75331497192383,117.11988067626953 166.1809425354004,113.35857009887695 166.1809425354004,113.35857009887695 C166.1809425354004,113.35857009887695 162.17432022094727,113.35857009887695 162.17432022094727,113.35857009887695 C162.17432022094727,113.35857009887695 161.6019401550293,117.11988067626953 161.6019401550293,117.11988067626953 C161.6019401550293,117.11988067626953 158.6583137512207,117.11988067626953 158.6583137512207,117.11988067626953 C158.6583137512207,117.11988067626953 161.92901229858398,96.51440048217773 161.92901229858398,96.51440048217773 C161.92901229858398,96.51440048217773 166.6715431213379,96.51440048217773 166.6715431213379,96.51440048217773 C166.6715431213379,96.51440048217773 166.6715431213379,96.51440048217773 166.6715431213379,96.51440048217773 M164.13673782348633,100.19395065307617 C164.13673782348633,100.19395065307617 162.5831642150879,110.57846069335938 162.5831642150879,110.57846069335938 C162.5831642150879,110.57846069335938 165.69032669067383,110.57846069335938 165.69032669067383,110.57846069335938 C165.69032669067383,110.57846069335938 164.13673782348633,100.19395065307617 164.13673782348633,100.19395065307617 M175.91130447387695,96.51440048217773 C175.91130447387695,96.51440048217773 178.28256607055664,111.15084075927734 178.28256607055664,111.15084075927734 C178.28256607055664,111.15084075927734 180.49029922485352,96.51440048217773 180.49029922485352,96.51440048217773 C180.49029922485352,96.51440048217773 184.98752212524414,96.51440048217773 184.98752212524414,96.51440048217773 C184.98752212524414,96.51440048217773 184.98752212524414,117.11988067626953 184.98752212524414,117.11988067626953 C184.98752212524414,117.11988067626953 181.96211624145508,117.11988067626953 181.96211624145508,117.11988067626953 C181.96211624145508,117.11988067626953 181.96211624145508,102.31992149353027 181.96211624145508,102.31992149353027 C181.96211624145508,102.31992149353027 179.7543830871582,117.11988067626953 179.7543830871582,117.11988067626953 C179.7543830871582,117.11988067626953 176.64722061157227,117.11988067626953 176.64722061157227,117.11988067626953 C176.64722061157227,117.11988067626953 174.27594375610352,102.56521987915039 174.27594375610352,102.56521987915039 C174.27594375610352,102.56521987915039 174.27594375610352,117.11988067626953 174.27594375610352,117.11988067626953 C174.27594375610352,117.11988067626953 171.41408157348633,117.11988067626953 171.41408157348633,117.11988067626953 C171.41408157348633,117.11988067626953 171.41408157348633,96.51440048217773 171.41408157348633,96.51440048217773 C171.41408157348633,96.51440048217773 175.91130447387695,96.51440048217773 175.91130447387695,96.51440048217773 C175.91130447387695,96.51440048217773 175.91130447387695,96.51440048217773 175.91130447387695,96.51440048217773 M190.54773330688477,99.45804119110107 C190.54773330688477,99.45804119110107 190.54773330688477,105.18179130554199 190.54773330688477,105.18179130554199 C190.54773330688477,105.18179130554199 194.96319961547852,105.18179130554199 194.96319961547852,105.18179130554199 C194.96319961547852,105.18179130554199 194.96319961547852,108.12543106079102 194.96319961547852,108.12543106079102 C194.96319961547852,108.12543106079102 190.54773330688477,108.12543106079102 190.54773330688477,108.12543106079102 C190.54773330688477,108.12543106079102 190.54773330688477,114.17624092102051 190.54773330688477,114.17624092102051 C190.54773330688477,114.17624092102051 196.1079444885254,114.17624092102051 196.1079444885254,114.17624092102051 C196.1079444885254,114.17624092102051 196.1079444885254,117.11988067626953 196.1079444885254,117.11988067626953 C196.1079444885254,117.11988067626953 187.27702713012695,117.11988067626953 187.27702713012695,117.11988067626953 C187.27702713012695,117.11988067626953 187.27702713012695,96.51440048217773 187.27702713012695,96.51440048217773 C187.27702713012695,96.51440048217773 196.1079444885254,96.51440048217773 196.1079444885254,96.51440048217773 C196.1079444885254,96.51440048217773 196.1079444885254,99.45804119110107 196.1079444885254,99.45804119110107 C196.1079444885254,99.45804119110107 190.54773330688477,99.45804119110107 190.54773330688477,99.45804119110107 C190.54773330688477,99.45804119110107 190.54773330688477,99.45804119110107 190.54773330688477,99.45804119110107 " style="pointer-events:inherit"/><rect id="svg_38" x="41.892578125" y="96.26953125" width="154.21484375" height="21.09375" fill="#a7c2fb" opacity="0" style="pointer-events:inherit"/></g><g type="text" text="2016" font-size="42.62660891258057" font-family="Bebas Neue" font-id="1" fill="a7c2fb" text-anchor="start" font-weight="normal" font-style="normal" lineHeight="1" shapeId="0" shapeVal="0" fill-opacity="1" display="null" elemBBoxWidth="64.62109375" stroke-width="0" stroke="null" stroke-dasharray="none" id="svg_39" style="pointer-events:inherit"><path id="svg_42" fill="#a7c2fb" stroke-width="0" d="M96.24716,136.64946C96.48399,131.91289 91.15533,132.1497 91.39217,136.1758C91.39217,136.1758 91.39217,139.37299 91.39217,139.37299C91.39217,139.37299 86.89243,139.37299 86.89243,139.37299C86.41876,133.21544 88.07657,128.83411 93.87888,128.95251C98.49704,128.95251 100.86533,131.67606 100.86533,136.41263C100.86533,146.24103 90.68169,149.67505 91.629,154.88527C91.629,154.88527 100.51009,154.88527 100.51009,154.88527C100.51009,154.88527 100.51009,159.14819 100.51009,159.14819C100.51009,159.14819 86.89243,159.14819 86.89243,159.14819C85.11621,147.18834 95.65509,146.24103 96.24716,136.64946C96.24716,136.64946 96.24716,136.64946 96.24716,136.64946M108.08861,136.1758C108.08861,136.1758 108.08861,152.28017 108.08861,152.28017C108.08861,154.41162 108.9175,155.24052 110.45689,155.24052C111.99628,155.24052 112.94359,154.41162 112.94359,152.28017C112.94359,152.28017 112.94359,136.1758 112.94359,136.1758C112.94359,134.04434 111.99628,133.21544 110.45689,133.21544C108.9175,133.21544 108.08861,134.04434 108.08861,136.1758C108.08861,136.1758 108.08861,136.1758 108.08861,136.1758M110.45689,159.50343C100.15485,159.50343 103.35202,145.64896 103.35202,136.41263C103.35202,131.67606 105.83873,128.95251 110.45689,128.95251C120.75894,128.95251 117.56175,142.80701 117.56175,152.04333C117.56175,156.77991 115.07506,159.50343 110.45689,159.50343C110.45689,159.50343 110.45689,159.50343 110.45689,159.50343M123.48248,136.41263C123.48248,136.41263 123.48248,133.09703 123.48248,133.09703C127.15332,133.09703 127.8638,131.32082 128.57428,129.30777C128.57428,129.30777 131.77148,129.30777 131.77148,129.30777C131.77148,129.30777 131.77148,159.14819 131.77148,159.14819C131.77148,159.14819 127.03491,159.14819 127.03491,159.14819C127.03491,159.14819 127.03491,136.41263 127.03491,136.41263C127.03491,136.41263 123.48248,136.41263 123.48248,136.41263C123.48248,136.41263 123.48248,136.41263 123.48248,136.41263M144.20499,159.50343C134.02135,159.50343 137.10013,146.0042 137.10013,136.76787C137.10013,131.79446 139.35001,128.95251 144.20499,128.95251C149.05998,128.95251 151.42827,132.0313 151.19144,137.24153C151.19144,137.24153 146.8101,137.24153 146.8101,137.24153C147.04695,134.87325 146.21803,132.97861 144.32341,133.21544C140.88939,132.74178 141.8367,138.89934 141.71829,142.33334C144.20499,137.59677 151.30986,139.49141 151.30986,146.47786C151.30986,153.46429 151.07303,159.50343 144.20499,159.50343C144.20499,159.50343 144.20499,159.50343 144.20499,159.50343M144.20499,143.99115C140.77098,143.99115 141.8367,149.08296 141.71829,152.28017C141.71829,154.41162 142.6656,155.24052 144.20499,155.24052C147.63901,155.24052 146.57329,150.1487 146.6917,146.95151C146.6917,144.82005 145.74437,143.99115 144.20499,143.99115C144.20499,143.99115 144.20499,143.99115 144.20499,143.99115" style="pointer-events:inherit"/><rect id="svg_43" x="86.68891191110015" y="128.95312604308128" width="64.61934185773134" height="30.547530949115753" fill="#000000" opacity="0" style="pointer-events:inherit"/></g></g></svg>