<svg xmlns="http://www.w3.org/2000/svg" width="401" height="220" x="0" y="0" id="svgcontent" overflow="hidden" viewBox="0 0 401 220"><defs><mask id="canvasMaskImageDef" maskUnits="objectBoundingBox" x="0" y="0"><image id="canvasMaskImage" preserveAspectRatio="none" style="pointer-events:none" x="0" y="-1" width="400" height="222.22222222222223" xlink:href="http://192.168.0.46/dnb_products/magento2/designnbuy/uploads/productimage/56eb110bc986f.png" xmlns:xlink="http://www.w3.org/1999/xlink"/></mask></defs><g style="pointer-events:all" mask="url(#canvasMaskImageDef)"><title style="pointer-events:inherit">Layer 1</title><g id="svg_1" type="text" text="Add Text" font-size="26.36373753370714" font-family="Brush-Script" font-id="1" fill="000000" text-anchor="start" font-weight="normal" font-style="normal" lineHeight="1" shapeId="0" shapeVal="0" fill-opacity="1" display="null" elemBBoxWidth="100.25"><path id="svg_2" fill="#000000" d="M228.91165161132812,137.10597229003906 C229.01710510253906,135.07595825195312 230.17710876464844,133.94232177734375 230.88893127441406,132.5186767578125 C230.88893127441406,132.5186767578125 225.19436645507812,132.67686462402344 225.19436645507812,132.67686462402344 C225.19436645507812,132.67686462402344 219.57888793945312,138.21324157714844 219.57888793945312,138.21324157714844 C218.73524475097656,138.977783203125 218.44525146484375,139.6105194091797 217.17979431152344,139.68960571289062 C216.20433044433594,139.74234008789062 216.20433044433594,138.95143127441406 216.7052459716797,138.26597595214844 C217.73342895507812,136.89505004882812 219.05162048339844,135.6032257080078 220.84434509277344,134.9441375732422 C220.84434509277344,134.9441375732422 222.87435913085938,132.67686462402344 222.87435913085938,132.67686462402344 C221.76707458496094,132.8086700439453 219.55252075195312,132.8614044189453 220.60707092285156,131.569580078125 C221.63526916503906,130.3041229248047 223.2170867919922,128.64320373535156 225.66891479492188,128.69593811035156 C225.90618896484375,128.69593811035156 226.0643768310547,128.69593811035156 226.09072875976562,128.88047790527344 C225.90618896484375,129.46047973632812 224.40345764160156,129.01229858398438 224.1925506591797,129.56593322753906 C224.42982482910156,130.0932159423828 225.484375,129.69775390625 226.22254943847656,129.75048828125 C226.22254943847656,129.75048828125 231.62710571289062,125.1895523071289 231.62710571289062,125.1895523071289 C231.62710571289062,125.1895523071289 233.97348022460938,123.3440933227539 233.97348022460938,123.3440933227539 C235.5816650390625,122.26318359375 237.00531005859375,120.97135925292969 238.85076904296875,120.47044372558594 C240.16897583007812,120.62863159179688 239.64169311523438,122.28954315185547 239.11441040039062,123.21227264404297 C239.11441040039062,123.21227264404297 235.7662353515625,129.0913848876953 235.7662353515625,129.0913848876953 C236.55712890625,129.0913848876953 237.4798583984375,128.93321228027344 238.05987548828125,129.19683837890625 C237.24258422851562,130.11956787109375 236.71533203125,131.0159454345703 236.08258056640625,132.1759490966797 C236.08258056640625,132.1759490966797 233.97348022460938,132.25503540039062 233.97348022460938,132.25503540039062 C233.44622802734375,133.28321838378906 232.62893676757812,134.23231506347656 232.31256103515625,135.41868591308594 C232.33892822265625,135.6559600830078 232.54983520507812,135.8404998779297 232.8134765625,135.8668670654297 C233.7889404296875,135.6559600830078 233.97348022460938,135.23414611816406 235.08078002929688,134.44322204589844 C235.08078002929688,134.44322204589844 235.55532836914062,135.10232543945312 235.55532836914062,135.10232543945312 C234.05258178710938,136.42050170898438 232.8134765625,138.26597595214844 230.25621032714844,138.4505157470703 C229.5443878173828,138.5032501220703 228.88528442382812,137.81777954101562 228.91165161132812,137.10597229003906 C228.91165161132812,137.10597229003906 228.91165161132812,137.10597229003906 228.91165161132812,137.10597229003906 M236.42532348632812,123.21227264404297 C236.42532348632812,123.21227264404297 232.60256958007812,126.1386489868164 232.60256958007812,126.1386489868164 C232.60256958007812,126.1386489868164 228.7798309326172,129.48684692382812 228.7798309326172,129.48684692382812 C228.7798309326172,129.48684692382812 232.83984375,129.19683837890625 232.83984375,129.19683837890625 C232.83984375,129.19683837890625 236.42532348632812,123.21227264404297 236.42532348632812,123.21227264404297 M247.28717041015625,136.2886962890625 C248.7371826171875,135.94595336914062 249.52810668945312,135.15504455566406 251.21536254882812,134.10049438476562 C251.16265869140625,134.44322204589844 251.16265869140625,134.81231689453125 251.16265869140625,135.20777893066406 C249.39627075195312,136.39414978027344 248.23626708984375,138.26597595214844 245.54718017578125,138.4505157470703 C243.91262817382812,138.55596923828125 243.99169921875,136.05142211914062 244.38717651367188,134.65414428710938 C242.96353149414062,135.76141357421875 241.90896606445312,137.4750518798828 239.87896728515625,137.94960021972656 C238.77169799804688,137.81777954101562 238.00714111328125,136.39414978027344 238.00714111328125,135.23414611816406 C238.00714111328125,131.33230590820312 241.51351928710938,129.98776245117188 244.51898193359375,128.93321228027344 C245.54718017578125,128.56411743164062 246.021728515625,128.88047790527344 246.52264404296875,129.48684692382812 C247.814453125,127.29865264892578 248.86898803710938,124.71501159667969 250.6353759765625,123.0277328491211 C251.37356567382812,122.34226989746094 252.5863037109375,122.63227081298828 252.4544677734375,123.63409423828125 C252.16445922851562,125.76956176757812 249.81808471679688,128.08956909179688 248.7371826171875,129.85594177246094 C247.8408203125,131.30593872070312 246.41717529296875,132.96685791015625 246.41717529296875,134.83868408203125 C246.41717529296875,135.6559600830078 246.60171508789062,136.2359619140625 247.28717041015625,136.2886962890625 C247.28717041015625,136.2886962890625 247.28717041015625,136.2886962890625 247.28717041015625,136.2886962890625 M240.56442260742188,135.57687377929688 C242.56808471679688,134.57504272460938 244.57171630859375,132.99322509765625 245.59991455078125,130.9632110595703 C243.99169921875,131.543212890625 242.38351440429688,132.07049560546875 241.14443969726562,133.0459442138672 C240.458984375,133.54685974121094 240.14260864257812,134.20594787597656 240.14260864257812,135.02322387695312 C240.14260864257812,135.313232421875 240.30078125,135.57687377929688 240.56442260742188,135.57687377929688 C240.56442260742188,135.57687377929688 240.56442260742188,135.57687377929688 240.56442260742188,135.57687377929688 M260.44268798828125,136.2886962890625 C261.8927001953125,135.94595336914062 262.68359375,135.15504455566406 264.3708801269531,134.10049438476562 C264.3181457519531,134.44322204589844 264.3181457519531,134.81231689453125 264.3181457519531,135.20777893066406 C262.5517883300781,136.39414978027344 261.39178466796875,138.26597595214844 258.7026672363281,138.4505157470703 C257.068115234375,138.55596923828125 257.147216796875,136.05142211914062 257.54266357421875,134.65414428710938 C256.1190185546875,135.76141357421875 255.06448364257812,137.4750518798828 253.03448486328125,137.94960021972656 C251.92718505859375,137.81777954101562 251.16265869140625,136.39414978027344 251.16265869140625,135.23414611816406 C251.16265869140625,131.33230590820312 254.66903686523438,129.98776245117188 257.67449951171875,128.93321228027344 C258.7026672363281,128.56411743164062 259.1772155761719,128.88047790527344 259.6781311035156,129.48684692382812 C260.969970703125,127.29865264892578 262.0245056152344,124.71501159667969 263.7908630371094,123.0277328491211 C264.529052734375,122.34226989746094 265.7417907714844,122.63227081298828 265.6099853515625,123.63409423828125 C265.3199768066406,125.76956176757812 262.9736022949219,128.08956909179688 261.8927001953125,129.85594177246094 C260.996337890625,131.30593872070312 259.57269287109375,132.96685791015625 259.57269287109375,134.83868408203125 C259.57269287109375,135.6559600830078 259.7572326660156,136.2359619140625 260.44268798828125,136.2886962890625 C260.44268798828125,136.2886962890625 260.44268798828125,136.2886962890625 260.44268798828125,136.2886962890625 M253.71994018554688,135.57687377929688 C255.72357177734375,134.57504272460938 257.7272033691406,132.99322509765625 258.7554016113281,130.9632110595703 C257.147216796875,131.543212890625 255.53903198242188,132.07049560546875 254.2999267578125,133.0459442138672 C253.61447143554688,133.54685974121094 253.298095703125,134.20594787597656 253.298095703125,135.02322387695312 C253.298095703125,135.313232421875 253.456298828125,135.57687377929688 253.71994018554688,135.57687377929688 C253.71994018554688,135.57687377929688 253.71994018554688,135.57687377929688 253.71994018554688,135.57687377929688 M280.6372985839844,138.87232971191406 C279.95184326171875,139.6368865966797 278.10638427734375,139.26779174804688 278.3172912597656,138.16050720214844 C279.13458251953125,133.91595458984375 282.3245849609375,130.72593688964844 284.69732666015625,127.72047424316406 C284.69732666015625,127.72047424316406 287.51824951171875,124.135009765625 287.51824951171875,124.135009765625 C286.2264099121094,124.21409606933594 284.9609680175781,124.2931900024414 283.80096435546875,124.39864349365234 C280.3472900390625,124.68864440917969 277.3418273925781,125.34774017333984 274.36273193359375,126.19137573242188 C275.1009216308594,126.34956359863281 276.18182373046875,126.40229034423828 276.4454650878906,127.00865173339844 C275.865478515625,127.66775512695312 274.38909912109375,126.9295654296875 273.0709228515625,127.14047241210938 C270.9354553222656,127.45684051513672 271.9109191894531,125.55864715576172 272.121826171875,124.18773651123047 C272.3063659667969,123.0277328491211 272.51727294921875,122.63227081298828 273.6245422363281,122.10499572753906 C276.9727478027344,120.49681091308594 282.2982177734375,119.99590301513672 286.938232421875,120.44408416748047 C289.1264343261719,120.65499114990234 289.1528015136719,122.02590942382812 289.7064208984375,123.63409423828125 C289.44281005859375,125.26864624023438 288.1509704589844,126.42864990234375 287.3073425292969,127.66775512695312 C287.3073425292969,127.66775512695312 284.59185791015625,131.622314453125 284.59185791015625,131.622314453125 C284.59185791015625,131.622314453125 282.5091247558594,135.02322387695312 282.5091247558594,135.02322387695312 C282.82550048828125,134.89141845703125 283.220947265625,135.04959106445312 283.1418762207031,135.39231872558594 C282.90460205078125,136.5786895751953 281.5336608886719,137.84414672851562 280.6372985839844,138.87232971191406 C280.6372985839844,138.87232971191406 280.6372985839844,138.87232971191406 280.6372985839844,138.87232971191406 M297.0355529785156,134.10049438476562 C297.0355529785156,134.10049438476562 296.9828186035156,135.20777893066406 296.9828186035156,135.20777893066406 C295.1109924316406,136.5523223876953 293.4764404296875,138.52960205078125 290.5237121582031,138.52960205078125 C288.46734619140625,138.52960205078125 287.6236877441406,137.31687927246094 287.51824951171875,135.23414611816406 C287.3337097167969,131.569580078125 291.20916748046875,128.27410888671875 294.7419128417969,128.27410888671875 C295.6646423339844,128.27410888671875 296.37646484375,128.64320373535156 296.37646484375,129.48684692382812 C296.37646484375,132.5450439453125 292.6064453125,133.388671875 290.1018981933594,134.3641357421875 C289.8382568359375,135.57687377929688 290.5237121582031,136.34141540527344 291.7100830078125,136.31504821777344 C293.95098876953125,136.2886962890625 295.5591735839844,135.02322387695312 297.0355529785156,134.10049438476562 C297.0355529785156,134.10049438476562 297.0355529785156,134.10049438476562 297.0355529785156,134.10049438476562 M294.1882629394531,130.11956787109375 C294.1618957519531,129.61866760253906 293.5555419921875,129.82957458496094 293.1864318847656,129.98776245117188 C291.9473571777344,130.56776428222656 290.9455261230469,131.78048706054688 290.3655090332031,133.0723114013672 C291.6837158203125,132.57139587402344 292.97552490234375,131.75411987304688 293.8191833496094,130.85775756835938 C294.05645751953125,130.56776428222656 294.1882629394531,130.3304901123047 294.1882629394531,130.11956787109375 C294.1882629394531,130.11956787109375 294.1882629394531,130.11956787109375 294.1882629394531,130.11956787109375 M298.9337463378906,136.7632293701172 C298.3273620605469,137.23777770996094 297.1673583984375,138.76687622070312 296.5082702636719,137.65960693359375 C296.9828186035156,136.8159637451172 297.6155700683594,135.55050659179688 298.8019104003906,135.313232421875 C298.8019104003906,135.313232421875 300.1464538574219,134.0741424560547 300.1464538574219,134.0741424560547 C300.1464538574219,134.0741424560547 300.1464538574219,130.9632110595703 300.1464538574219,130.9632110595703 C299.48736572265625,131.38504028320312 298.56463623046875,132.01776123046875 297.72100830078125,132.22866821289062 C297.1937255859375,131.9650421142578 297.4573669433594,131.622314453125 297.9319152832031,131.14776611328125 C299.0128173828125,130.11956787109375 300.59466552734375,128.66957092285156 302.018310546875,128.06320190429688 C302.5455627441406,128.06320190429688 302.6510314941406,128.59048461914062 302.6246643066406,129.0913848876953 C302.6246643066406,129.0913848876953 302.5191955566406,131.75411987304688 302.5191955566406,131.75411987304688 C302.5191955566406,131.75411987304688 305.4455871582031,129.0913848876953 305.4455871582031,129.0913848876953 C305.7619323730469,128.85411071777344 306.5792236328125,128.51138305664062 306.6055908203125,129.19683837890625 C306.3155822753906,130.43594360351562 305.709228515625,131.516845703125 304.25921630859375,131.622314453125 C304.25921630859375,131.622314453125 302.44012451171875,133.388671875 302.44012451171875,133.388671875 C302.36102294921875,134.44322204589844 302.2292175292969,135.8668670654297 303.28375244140625,135.8668670654297 C304.7073974609375,135.8668670654297 305.551025390625,134.7595977783203 306.4737548828125,134.10049438476562 C306.4737548828125,134.46958923339844 306.3946838378906,134.86505126953125 306.4473876953125,135.20777893066406 C306.4473876953125,135.20777893066406 302.8092041015625,138.1341552734375 302.8092041015625,138.1341552734375 C302.41375732421875,138.37142944335938 301.939208984375,138.60870361328125 301.35919189453125,138.6350555419922 C299.9355773925781,138.6614227294922 300.1201171875,137.02687072753906 300.1464538574219,135.55050659179688 C300.1464538574219,135.55050659179688 298.9337463378906,136.7632293701172 298.9337463378906,136.7632293701172 M315.3056335449219,134.10049438476562 C315.2528991699219,134.44322204589844 315.2528991699219,134.81231689453125 315.2528991699219,135.20777893066406 C313.2228698730469,136.6050567626953 311.72015380859375,138.977783203125 308.6883239746094,138.977783203125 C306.07830810546875,138.977783203125 307.2910461425781,135.313232421875 308.1874084472656,133.88958740234375 C308.1874084472656,133.88958740234375 306.4473876953125,135.23414611816406 306.4473876953125,135.23414611816406 C306.4737548828125,134.86505126953125 306.4210510253906,134.4168701171875 306.5001220703125,134.10049438476562 C306.5001220703125,134.10049438476562 307.7919616699219,133.0986785888672 307.7919616699219,133.0986785888672 C308.76739501953125,132.30776977539062 309.452880859375,131.516845703125 310.1383361816406,130.46231079101562 C309.1628723144531,130.40957641601562 308.5301513671875,130.43594360351562 307.6337585449219,130.6468505859375 C308.7410583496094,128.98593139648438 309.373779296875,127.27229309082031 312.3528747558594,127.40411376953125 C313.2756042480469,126.27046966552734 313.46014404296875,125.08409881591797 315.2001647949219,125.08409881591797 C316.940185546875,125.08409881591797 315.41107177734375,126.69229125976562 315.0419921875,127.27229309082031 C315.6219787597656,127.29865264892578 316.0965270996094,127.35137939453125 316.6238098144531,127.43047332763672 C315.9647216796875,128.4059295654297 315.5956115722656,129.88230895996094 314.48834228515625,130.35684204101562 C314.0928955078125,130.51502990722656 313.3810729980469,130.56776428222656 312.3528747558594,130.56776428222656 C311.24560546875,132.07049560546875 309.90106201171875,133.59959411621094 309.90106201171875,135.41868591308594 C309.90106201171875,137.81777954101562 312.8274230957031,135.81414794921875 313.67108154296875,135.23414611816406 C313.67108154296875,135.23414611816406 315.3056335449219,134.10049438476562 315.3056335449219,134.10049438476562 "/><rect id="svg_3" x="216.375" y="120.30859375" width="100.25" height="19.38671875" fill="#000000" opacity="0"/></g></g></svg>