<svg xmlns="http://www.w3.org/2000/svg" width="187" height="240" x="0" y="0" id="svgcontent" overflow="hidden" viewBox="0 0 187 240"><g style="pointer-events:all" mask="url(#canvasMaskImageDef)"><title style="pointer-events:inherit">Layer 1</title><g id="svg_4" display="null" clip-id="915" stroke="null" stroke-opacity="1" transform=""><path fill-rule="evenodd" d="M 90.395 166.759 C 86.3748 167.164 82.8045 165.798 80.1792 163.01 C 77.5241 160.188 75.401 156.798 75.9404 152.526 C 76.1563 150.814 77.0073 149.696 78.5223 148.641 C 81.3898 146.644 83.6149 143.968 83.7531 140.19 C 83.8055 138.762 83.5887 137.326 83.5372 135.893 C 83.3809 131.523 85.2754 128.399 88.9685 126.013 C 93.2787 123.23 98.1563 122.481 102.982 121.764 C 107.125 121.148 112.248 124.693 113.822 128.843 C 115.487 133.238 118.826 134.997 123.167 135.315 C 127.148 135.607 129.741 137.793 130.116 141.788 C 130.347 144.256 130.577 146.87 130.016 149.231 C 129.209 152.629 127.092 155.295 123.87 157.096 C 118.499 160.097 112.894 162.384 106.875 163.685 C 101.408 164.869 95.9583 166.13 90.4998 167.357 C 90.4655 167.158 90.4303 166.958 90.395 166.759 Z M 90.9976 69.5485 C 91.6047 70.8043 92.0663 72.1612 92.8478 73.2968 C 94.5607 75.7866 94.1117 77.3712 91.3129 78.084 C 88.2097 78.8745 86.6052 83.1756 88.7436 85.9862 C 90.4899 88.2799 90.6191 90.6568 90.4962 93.2379 C 90.4357 94.5244 90.0599 95.865 90.3065 97.0846 C 90.8241 99.6431 91.331 102.375 93.9491 103.771 C 99.9839 106.987 109.016 101.945 109.559 95.136 C 110.064 88.8012 106.966 84.22 102.463 80.2811 C 101.046 79.0416 99.599 77.8066 98.374 76.3892 C 97.3775 75.2382 96.8319 73.697 95.8345 72.5479 C 94.6745 71.2117 93.239 70.1141 91.9227 68.9125 C 91.6146 69.1248 91.3057 69.3362 90.9976 69.5485 Z M 68.0545 76.2374 C 67.9253 76.718 67.8855 77.2212 67.7726 77.7073 C 66.6813 82.4303 67.9984 87.3585 65.7977 92.133 C 64.5564 94.8261 64.9449 98.5111 65.3632 101.647 C 65.6631 103.894 66.6921 106.617 68.3417 107.993 C 72.0024 111.043 76.1951 112.974 81.247 110.324 C 86.4787 107.581 87.8176 102.74 84.2184 97.6005 C 82.8181 95.6012 81.7602 93.3201 80.8215 91.0534 C 80.2126 89.5827 80.209 87.8743 79.7437 86.3295 C 78.956 83.7123 76.5926 82.5839 74.0007 83.4223 C 73.2012 83.6806 72.3809 83.8776 71.6997 84.0664 C 69.611 81.5486 71.4495 77.7696 68.5893 75.6077 C 68.3101 75.9266 68.1023 76.0603 68.0545 76.2374 Z M 122.558 98.8436 C 120.584 103.451 118.44 108.013 116.921 112.772 C 116.263 114.834 116.25 117.72 117.222 119.555 C 119.138 123.172 125.105 124.411 129.265 123.232 C 135.959 121.334 137.01 116.884 137.474 112.08 C 137.875 107.926 136.894 103.737 134.349 100.146 C 134.026 99.6919 133.821 99.1426 133.62 98.6159 C 132.392 95.4079 131.201 92.1854 129.938 88.9909 C 129.784 88.5988 129.275 88.3468 128.93 88.0306 C 128.693 88.0884 128.455 88.1471 128.217 88.2059 C 128.453 90.7083 128.69 93.2117 128.943 95.8885 C 125.067 96.0304 123.464 96.726 122.558 98.8436 Z M 47.3066 116.567 C 48.4395 121.508 49.5272 126.463 50.866 131.349 C 52.082 135.786 54.6152 139.125 58.9064 141.37 C 63.5428 143.796 72.0656 141.293 73.6692 135.281 C 74.0098 134.004 74.7343 132.607 74.4795 131.44 C 74.0161 129.325 73.0232 127.328 70.9418 126.119 C 69.1223 125.062 67.3462 123.914 65.6351 122.688 C 64.0939 121.583 62.7369 120.218 61.174 119.15 C 59.2687 117.848 57.3923 116.02 54.8104 116.899 C 53.4823 117.352 52.3576 118.401 51.1461 119.176 C 49.557 117.673 50.5517 114.537 47.2804 113.817 C 47.2813 114.908 47.125 115.776 47.3066 116.567 Z" id="svg_5" stroke="null" transform=""/></g></g><defs><mask id="canvasMaskImageDef" maskUnits="objectBoundingBox" x="0" y="0"><image xmlns:xlink="http://www.w3.org/1999/xlink" id="canvasMaskImage" preserveAspectRatio="none" style="pointer-events:none" x="-106" y="-81" width="400" height="344.82758620689657" xlink:href="http://192.168.0.222/work/jan_langius/print_commerce/source/designnbuy/uploads/productimage/5826bc835e1ff.png"/></mask></defs></svg>