<?xml version="1.0"?>
<svg xmlns="http://www.w3.org/2000/svg" width="400" height="218"><g><title>Layer 1</title><g clip-id="1" display="null" id="svg_4"><path stroke-width="0" id="svg_5" d="m225.67026,96.73301l6.71376,-4.58136l-9.57538,-2.80287c-7.99525,-14.05098 -24.31342,-6.72343 -29.76709,6.6398c-6.58035,16.10734 -25.42628,21.98265 -25.42628,21.98265c13.41299,15.95319 25.5106,18.83418 33.57915,18.19827c8.07268,-0.64076 29.8611,-6.9861 25.32535,-35.30994c-0.23708,-1.4716 -0.52324,-2.84296 -0.8495,-4.12655z" fill="#2BA9E1"/><path stroke-width="0" id="svg_6" d="m222.80864,89.34878c1.14258,2.00798 2.11511,4.45763 2.86162,7.38423l6.71376,-4.58136l-9.57538,-2.80287zm-10.67094,17.78561c0,0 -22.39531,-4.618 -24.96385,7.84389c-2.56786,12.45912 18.10979,19.6906 24.96385,-7.84389zm4.30902,-18.1319c0.14999,1.33611 -0.53845,2.51324 -1.54071,2.63007c-1.00572,0.11266 -1.94438,-0.8813 -2.093,-2.21534c-0.15344,-1.33611 0.535,-2.51325 1.54073,-2.63007c1.00778,-0.10852 1.94023,0.87922 2.09299,2.21534z" fill="#2B3277"/></g></g></svg>
