<?xml version="1.0" encoding="UTF-8"?><svg xmlns="http://www.w3.org/2000/svg" width="189" height="95" viewBox="0 0 189 95"><g><title>Layer 1</title><g id="svg_8" stroke="ull" stroke-width="0" elemBBoxHeight="99.43888" yscale="NaN" xscale="29.02487" elemBBoxWidth="133.38962" display="null" shapeVal="5" shapeId="8" lineHeight="1" font-style="normal" font-weight="normal" text-anchor="start" fill="0" font-id="1" font-family="Kroftsmann" font-size="10.27698" text="Embroidery" type="text"><path id="svg_2" stroke="#ull" d="m0,39.879c0,0 10.42573,-7.29008 10.42573,-7.29008c0,0 0,12.90478 0,12.90478c0,0 -5.82779,3.75685 -5.82779,3.75685c0,0 0,8.68557 0,8.68557c0,0 5.82779,-3.75685 5.82779,-3.75685c0,0 0,12.65642 0,12.65642c0,0 -5.82779,3.75686 -5.82779,3.75686c0,0 0,12.65639 0,12.65639c0,0 5.82779,-3.75684 5.82779,-3.75684c0,0 0,12.65641 0,12.65641c0,0 -10.42573,7.29008 -10.42573,7.29008c0,0 0,-59.55959 0,-59.55959c0,0 0,0 0,0m21.01421,41.0595c0,0 2.95591,-23.86196 2.95591,-23.86196c0,0 0,29.0353 0,29.0353c0,0 4.5966,-1.32607 4.5966,-1.32607c0,0 0,-59.5596 0,-59.5596c0,0 -5.41828,1.59791 -5.41828,1.59791c0,0 -2.95458,22.66125 -2.95458,22.66125c0,0 -3.36542,-20.18224 -3.36542,-20.18224c0,0 -5.4183,2.72574 -5.4183,2.72574c0,0 0,59.55959 0,59.55959c0,0 4.59662,-2.34983 4.59662,-2.34983c0,0 0,-29.0353 0,-29.0353c0,0 3.36542,21.37232 3.36542,21.37232c0,0 1.64203,-0.63711 1.64203,-0.63711c0,0 0,0 0,0m21.0969,-46.59567c-0.08271,6.9569 0.49221,16.08357 -0.90306,19.20023c1.31255,3.0954 0.82035,11.82827 0.90306,18.76899c0,0 -2.54509,10.45258 -2.54509,10.45258c0,0 -10.01489,1.77772 -10.01489,1.77772c0,0 0,-59.55959 0,-59.55959c0,0 10.01489,-1.77773 10.01489,-1.77773c0,0 2.54509,11.1378 2.54509,11.1378m-5.09015,26.42891c0,0 -2.87322,0.47117 -2.87322,0.47117c0,0 0,9.67844 0,9.67844c0,0 2.87322,-0.47118 2.87322,-0.47118c0,0 0,-9.67843 0,-9.67843c0,0 0,0 0,0m0,-23.32711c0,0 -2.87322,0.47117 -2.87322,0.47117c0,0 0,9.43007 0,9.43007c0,0 2.87322,-0.47118 2.87322,-0.47118c0,0 0,-9.43006 0,-9.43006c0,0 0,0 0,0m16.08944,21.58448c0,0 2.54376,-7.49398 2.54376,-7.49398c0,0 0,-19.1085 0,-19.1085c0,0 -2.54376,-10.12612 -2.54376,-10.12612c0,0 -10.01488,0.53473 -10.01488,0.53473c0,0 0,59.55959 0,59.55959c0,0 4.59661,-0.32636 4.59661,-0.32636c0,0 0,-19.10852 0,-19.10852c0,0 0.82168,-0.04251 0.82168,-0.04251c0,0 3.36542,18.97629 3.36542,18.97629c0,0 5.41695,-0.10219 5.41695,-0.10219c0,0 -4.18578,-22.76243 -4.18578,-22.76243m-2.54507,-9.84902c0,0 -2.8732,0.1306 -2.8732,0.1306c0,0 0,-14.1454 0,-14.1454c0,0 2.8732,-0.13061 2.8732,-0.13061c0,0 0,14.14541 0,14.14541c0,0 0,0 0,0m7.7166,-15.54037c0,0 2.54374,-11.42687 2.54374,-11.42687c0,0 7.46982,-0.00721 7.46982,-0.00721c0,0 2.54507,10.1599 2.54507,10.1599c0,0 0,37.96925 0,37.96925c0,0 -2.54507,11.43043 -2.54507,11.43043c0,0 -7.46982,0.00723 -7.46982,0.00723c0,0 -2.54374,-10.16349 -2.54374,-10.16349c0,0 0,-37.96924 0,-37.96924c0,0 0,0 0,0m7.46982,34.23294c0,0 0,-31.7649 0,-31.7649c0,0 -2.87323,0.00041 -2.87323,0.00041c0,0 0,31.76492 0,31.76492c0,0 2.87323,-0.00043 2.87323,-0.00043c0,0 0,0 0,0m6.07454,-45.69251c0,0 0,13.89764 0,13.89764c0,0 1.64072,-0.02383 1.64072,-0.02383c0,0 0,31.76491 0,31.76491c0,0 -1.64072,0.02383 -1.64072,0.02383c0,0 0,13.89706 0,13.89706c0,0 7.87936,-0.22151 7.87936,-0.22151c0,0 0,-13.89705 0,-13.89705c0,0 -1.64204,0.07162 -1.64204,0.07162c0,0 0,-31.76493 0,-31.76493c0,0 1.64204,-0.0716 1.64204,-0.0716c0,0 0,-13.89764 0,-13.89764c0,0 -7.87936,0.2215 -7.87936,0.2215c0,0 0,0 0,0m21.42372,8.55689c0,0 -2.54506,-9.77932 -2.54506,-9.77932c0,0 -10.01356,0.94997 -10.01356,0.94997c0,0 0,59.55959 0,59.55959c0,0 10.01356,-0.94997 10.01356,-0.94997c0,0 2.54506,-11.81103 2.54506,-11.81103c0,0 0,-37.96924 0,-37.96924c0,0 0,0 0,0m-5.08882,3.20374c0,0 0,33.00613 0,33.00613c0,0 -2.8732,0.29428 -2.8732,0.29428c0,0 0,-33.00614 0,-33.00614c0,0 2.8732,-0.29427 2.8732,-0.29427c0,0 0,0 0,0m6.07458,-13.55218c0,0 10.42439,-2.62598 10.42439,-2.62598c0,0 -0.65627,13.11747 -0.65627,13.11747c0,0 -5.17152,1.44407 -5.17152,1.44407c0,0 0,8.68558 0,8.68558c0,0 5.82779,-1.65678 5.82779,-1.65678c0,0 -0.65627,12.86912 -0.65627,12.86912c0,0 -5.17152,1.44407 -5.17152,1.44407c0,0 0,12.65641 0,12.65641c0,0 5.82779,-1.65678 5.82779,-1.65678c0,0 -0.65627,12.86912 -0.65627,12.86912c0,0 -9.76812,2.41329 -9.76812,2.41329c0,0 0,-59.55959 0,-59.55959c0,0 0,0 0,0m21.42371,29.40647c0,0 2.54506,-8.86853 2.54506,-8.86853c0,0 0,-19.10849 0,-19.10849c0,0 -2.54506,-8.75161 -2.54506,-8.75161c0,0 -10.0149,4.36395 -10.0149,4.36395c0,0 0,59.55959 0,59.55959c0,0 4.59795,-1.77171 4.59795,-1.77171c0,0 0,-19.1085 0,-19.1085c0,0 0.82034,-0.35611 0.82034,-0.35611c0,0 3.36543,17.51254 3.36543,17.51254c0,0 5.41829,-3.05637 5.41829,-3.05637c0,0 -4.1871,-20.41476 -4.1871,-20.41476m-2.54507,-8.63719c0,0 -2.87188,1.30261 -2.87188,1.30261c0,0 0,-14.14539 0,-14.14539c0,0 2.87188,-1.30264 2.87188,-1.30264c0,0 0,14.14542 0,14.14542c0,0 0,0 0,0m16.3362,21.98091c0,0 -4.67929,3.72523 -4.67929,3.72523c0,0 0,-27.79408 0,-27.79408c0,0 -3.94032,-29.0436 -3.94032,-29.0436c0,0 5.08881,-3.5853 5.08881,-3.5853c0,0 1.23119,11.94287 1.23119,11.94287c0,0 1.1498,-13.83772 1.1498,-13.83772c0,0 5.08882,-4.54619 5.08882,-4.54619c0,0 -3.93901,35.3447 -3.93901,35.3447c0,0 0,27.79409 0,27.79409c0,0 0,0 0,0" stroke-width="0" fill="#000000"/><rect id="svg_3" stroke="null" opacity="0" fill="#000000" height="99.43887" width="133.38957" y="0.00002" x="0"/></g></g></svg>