<svg xmlns="http://www.w3.org/2000/svg" width="187" height="239" id="svgcontent" x="0" y="0" viewBox="0 0 187 239" overflow="hidden"><g mask="" style="pointer-events:all"><title style="pointer-events:inherit">Layer 1</title><g stroke="ull" elemBBoxHeight="99.43888" yscale="NaN" xscale="29.02487" elemBBoxWidth="133.38961791992188" display="null" shapeVal="5" shapeId="8" lineHeight="1" font-style="normal" font-weight="normal" text-anchor="start" fill="a3d07c" font-family="Kroftsmann" font-size="10.27698" text="Embroidery" type="text" id="svg_1" fill-opacity="1" style="pointer-events:inherit"><path stroke="#ull" d="M8.12499,110.0592C8.12499,110.0592 18.55072,102.76912 18.55072,102.76912C18.55072,102.76912 18.55072,115.6739 18.55072,115.6739C18.55072,115.6739 12.72293,119.43075 12.72293,119.43075C12.72293,119.43075 12.72293,128.11632 12.72293,128.11632C12.72293,128.11632 18.55072,124.35948 18.55072,124.35948C18.55072,124.35948 18.55072,137.01588 18.55072,137.01588C18.55072,137.01588 12.72293,140.77277 12.72293,140.77277C12.72293,140.77277 12.72293,153.42915 12.72293,153.42915C12.72293,153.42915 18.55072,149.67232 18.55072,149.67232C18.55072,149.67232 18.55072,162.3287 18.55072,162.3287C18.55072,162.3287 8.12499,169.61879 8.12499,169.61879C8.12499,169.61879 8.12499,110.0592 8.12499,110.0592C8.12499,110.0592 8.12499,110.0592 8.12499,110.0592M29.13919,151.11868C29.13919,151.11868 32.0951,127.25673 32.0951,127.25673C32.0951,127.25673 32.0951,156.29202 32.0951,156.29202C32.0951,156.29202 36.6917,154.96596 36.6917,154.96596C36.6917,154.96596 36.6917,95.40636 36.6917,95.40636C36.6917,95.40636 31.27341,97.00427 31.27341,97.00427C31.27341,97.00427 28.31883,119.66552 28.31883,119.66552C28.31883,119.66552 24.95341,99.48328 24.95341,99.48328C24.95341,99.48328 19.53512,102.20902 19.53512,102.20902C19.53512,102.20902 19.53512,161.76862 19.53512,161.76862C19.53512,161.76862 24.13173,159.41878 24.13173,159.41878C24.13173,159.41878 24.13173,130.38347 24.13173,130.38347C24.13173,130.38347 27.49715,151.7558 27.49715,151.7558C27.49715,151.7558 29.13918,151.11868 29.13918,151.11868C29.13918,151.11868 29.13918,151.11868 29.13918,151.11868M50.23608,104.52302C50.15338,111.47993 50.72829,120.60659 49.33304,123.72324C50.64559,126.81864 50.15338,135.55151 50.23608,142.49223C50.23608,142.49223 47.69101,152.94481 47.69101,152.94481C47.69101,152.94481 37.67612,154.72253 37.67612,154.72253C37.67612,154.72253 37.67612,95.16296 37.67612,95.16296C37.67612,95.16296 47.69101,93.38523 47.69101,93.38523C47.69101,93.38523 50.23608,104.52302 50.23608,104.52302M45.14594,130.95192C45.14594,130.95192 42.27273,131.4231 42.27273,131.4231C42.27273,131.4231 42.27273,141.10155 42.27273,141.10155C42.27273,141.10155 45.14594,140.63036 45.14594,140.63036C45.14594,140.63036 45.14594,130.95192 45.14594,130.95192C45.14594,130.95192 45.14594,130.95192 45.14594,130.95192M45.14594,107.62482C45.14594,107.62482 42.27273,108.09599 42.27273,108.09599C42.27273,108.09599 42.27273,117.52606 42.27273,117.52606C42.27273,117.52606 45.14594,117.05488 45.14594,117.05488C45.14594,117.05488 45.14594,107.62482 45.14594,107.62482C45.14594,107.62482 45.14594,107.62482 45.14594,107.62482M61.23539,129.20929C61.23539,129.20929 63.77913,121.71532 63.77913,121.71532C63.77913,121.71532 63.77913,102.60682 63.77913,102.60682C63.77913,102.60682 61.23539,92.48069 61.23539,92.48069C61.23539,92.48069 51.2205,93.01543 51.2205,93.01543C51.2205,93.01543 51.2205,152.57503 51.2205,152.57503C51.2205,152.57503 55.81711,152.24867 55.81711,152.24867C55.81711,152.24867 55.81711,133.14015 55.81711,133.14015C55.81711,133.14015 56.63879,133.09764 56.63879,133.09764C56.63879,133.09764 60.00421,152.07393 60.00421,152.07393C60.00421,152.07393 65.42116,151.97174 65.42116,151.97174C65.42116,151.97174 61.23539,129.2093 61.23539,129.2093M58.69032,119.36029C58.69032,119.36029 55.81711,119.49089 55.81711,119.49089C55.81711,119.49089 55.81711,105.34549 55.81711,105.34549C55.81711,105.34549 58.69032,105.21488 58.69032,105.21488C58.69032,105.21488 58.69032,119.36029 58.69032,119.36029C58.69032,119.36029 58.69032,119.36029 58.69032,119.36029M66.40691,103.81992C66.40691,103.81992 68.95065,92.39305 68.95065,92.39305C68.95065,92.39305 76.42048,92.38582 76.42048,92.38582C76.42048,92.38582 78.96555,102.54573 78.96555,102.54573C78.96555,102.54573 78.96555,140.51498 78.96555,140.51498C78.96555,140.51498 76.42048,151.94542 76.42048,151.94542C76.42048,151.94542 68.95065,151.95265 68.95065,151.95265C68.95065,151.95265 66.40691,141.78915 66.40691,141.78915C66.40691,141.78915 66.40691,103.81992 66.40691,103.81992C66.40691,103.81992 66.40691,103.81992 66.40691,103.81992M73.87673,138.05286C73.87673,138.05286 73.87673,106.28795 73.87673,106.28795C73.87673,106.28795 71.00352,106.28836 71.00352,106.28836C71.00352,106.28836 71.00352,138.05328 71.00352,138.05328C71.00352,138.05328 73.87673,138.05286 73.87673,138.05286C73.87673,138.05286 73.87673,138.05286 73.87673,138.05286M79.95128,92.36035C79.95128,92.36035 79.95128,106.25799 79.95128,106.25799C79.95128,106.25799 81.59197,106.23416 81.59197,106.23416C81.59197,106.23416 81.59197,137.99907 81.59197,137.99907C81.59197,137.99907 79.95128,138.0229 79.95128,138.0229C79.95128,138.0229 79.95128,151.91995 79.95128,151.91995C79.95128,151.91995 87.83061,151.69844 87.83061,151.69844C87.83061,151.69844 87.83061,137.80139 87.83061,137.80139C87.83061,137.80139 86.18859,137.87302 86.18859,137.87302C86.18859,137.87302 86.18859,106.10809 86.18859,106.10809C86.18859,106.10809 87.83061,106.03649 87.83061,106.03649C87.83061,106.03649 87.83061,92.13885 87.83061,92.13885C87.83061,92.13885 79.95128,92.36035 79.95128,92.36035C79.95128,92.36035 79.95128,92.36035 79.95128,92.36035M101.37499,100.91724C101.37499,100.91724 98.82993,91.13792 98.82993,91.13792C98.82993,91.13792 88.81636,92.08789 88.81636,92.08789C88.81636,92.08789 88.81636,151.64748 88.81636,151.64748C88.81636,151.64748 98.82993,150.69751 98.82993,150.69751C98.82993,150.69751 101.37499,138.88647 101.37499,138.88647C101.37499,138.88647 101.37499,100.91724 101.37499,100.91724C101.37499,100.91724 101.37499,100.91724 101.37499,100.91724M96.28618,104.12098C96.28618,104.12098 96.28618,137.12711 96.28618,137.12711C96.28618,137.12711 93.41297,137.42139 93.41297,137.42139C93.41297,137.42139 93.41297,104.41525 93.41297,104.41525C93.41297,104.41525 96.28618,104.12098 96.28618,104.12098C96.28618,104.12098 96.28618,104.12098 96.28618,104.12098M102.36076,90.5688C102.36076,90.5688 112.78515,87.94282 112.78515,87.94282C112.78515,87.94282 112.12888,101.06029 112.12888,101.06029C112.12888,101.06029 106.95736,102.50436 106.95736,102.50436C106.95736,102.50436 106.95736,111.18994 106.95736,111.18994C106.95736,111.18994 112.78515,109.53317 112.78515,109.53317C112.78515,109.53317 112.12888,122.40228 112.12888,122.40228C112.12888,122.40228 106.95736,123.84636 106.95736,123.84636C106.95736,123.84636 106.95736,136.50278 106.95736,136.50278C106.95736,136.50278 112.78515,134.84599 112.78515,134.84599C112.78515,134.84599 112.12888,147.71512 112.12888,147.71512C112.12888,147.71512 102.36076,150.1284 102.36076,150.1284C102.36076,150.1284 102.36076,90.56881 102.36076,90.56881C102.36076,90.56881 102.36076,90.56881 102.36076,90.56881M123.78447,119.97527C123.78447,119.97527 126.32954,111.10675 126.32954,111.10675C126.32954,111.10675 126.32954,91.99825 126.32954,91.99825C126.32954,91.99825 123.78447,83.24664 123.78447,83.24664C123.78447,83.24664 113.76958,87.61059 113.76958,87.61059C113.76958,87.61059 113.76958,147.17018 113.76958,147.17018C113.76958,147.17018 118.36751,145.39847 118.36751,145.39847C118.36751,145.39847 118.36751,126.28997 118.36751,126.28997C118.36751,126.28997 119.18785,125.93386 119.18785,125.93386C119.18785,125.93386 122.55328,143.4464 122.55328,143.4464C122.55328,143.4464 127.97156,140.39003 127.97156,140.39003C127.97156,140.39003 123.78446,119.97527 123.78446,119.97527M121.23938,111.33807C121.23938,111.33807 118.3675,112.6407 118.3675,112.6407C118.3675,112.6407 118.3675,98.49531 118.3675,98.49531C118.3675,98.49531 121.23938,97.19267 121.23938,97.19267C121.23938,97.19267 121.23938,111.33808 121.23938,111.33808C121.23938,111.33808 121.23938,111.33808 121.23938,111.33808M137.57561,133.319C137.57561,133.319 132.89632,137.04424 132.89632,137.04424C132.89632,137.04424 132.89632,109.25015 132.89632,109.25015C132.89632,109.25015 128.95596,80.20655 128.95596,80.20655C128.95596,80.20655 134.04478,76.62125 134.04478,76.62125C134.04478,76.62125 135.27599,88.56412 135.27599,88.56412C135.27599,88.56412 136.4258,74.7264 136.4258,74.7264C136.4258,74.7264 141.5146,70.1802 141.5146,70.1802C141.5146,70.1802 137.57561,105.5249 137.57561,105.5249C137.57561,105.5249 137.57561,133.31898 137.57561,133.31898C137.57561,133.31898 137.57561,133.31898 137.57561,133.31898" stroke-width="0" fill="#a3d07c" id="svg_6" style="pointer-events:inherit"/><rect stroke="null" opacity="0" fill="#a3d07c" height="99.43887" width="133.38957" y="70.18022" x="8.12499" id="svg_7" style="pointer-events:inherit"/></g></g></svg>