<svg xmlns="http://www.w3.org/2000/svg" width="137" height="252" x="0" y="0" id="svgcontent" overflow="hidden" viewBox="0 0 137 252"><defs><mask id="canvasMaskImageDef" maskUnits="objectBoundingBox" x="0" y="0"><image id="canvasMaskImage" preserveAspectRatio="none" style="pointer-events:none" x="-124" y="-62" width="400" height="344.82758620689657" xlink:href="http://192.168.0.46/dnb_products/pc-magento-qa/designnbuy/uploads/productimage/56fe8a1b54c5b.png" xmlns:xlink="http://www.w3.org/1999/xlink"/></mask><clipPath class="clippath" id="svg_3"><path d="M55.42276573181152,106.32121562957764 C54.79431343078613,107.04646015167236 53.82752799987793,107.38480234146118 52.908687591552734,107.23975419998169 C47.92935562133789,106.46626377105713 43.09508419036865,109.51199436187744 41.548078536987305,114.34627151489258 C41.06468343734741,115.8450117111206 40.96788787841797,117.44025230407715 41.209444522857666,118.98725318908691 C41.35448980331421,119.9543399810791 41.01613807678223,120.87287330627441 40.29090404510498,121.50132369995117 C33.57127487659454,127.20589828491211 32.26613521575928,137.11599349975586 37.341963052749634,144.36729431152344 L37.29399609565735,144.36729431152344 C38.11575508117676,145.57566452026367 39.13109064102173,146.68778228759766 40.242937088012695,147.6066017150879 L40.291186809539795,147.6066017150879 C41.01643514633179,148.2347640991211 41.35478687286377,149.20187377929688 41.20974254608154,150.12067794799805 C40.43623065948486,155.14800643920898 43.43343639373779,159.98256301879883 48.26770782470703,161.4810028076172 C49.76645278930664,161.96440505981445 51.36197090148926,162.06090927124023 52.90898513793945,161.81966018676758 L52.90898513793945,161.86846160888672 C53.87577247619629,161.72311782836914 54.79461097717285,162.06177520751953 55.423030853271484,162.78730010986328 C61.12763786315918,169.5066146850586 71.03804397583008,170.8117904663086 78.28931045532227,165.73593139648438 C79.49735260009766,164.9141845703125 80.60982131958008,163.89857482910156 81.52835083007812,162.78730010986328 L81.52835083007812,162.7387466430664 C82.15681076049805,162.01382064819336 83.1239013671875,161.67457580566406 84.04243087768555,161.81966018676758 C89.07002639770508,162.59341430664062 93.90462112426758,159.59621810913086 95.40336608886719,154.76168060302734 C95.88644409179688,153.26261520385742 95.98321533203125,151.6676902770996 95.74225997924805,150.12066268920898 L95.79020309448242,150.12066268920898 C95.64518356323242,149.15362548828125 95.98411178588867,148.23504638671875 96.70905685424805,147.6066017150879 C103.42866516113281,141.9020233154297 104.73407745361328,131.99163055419922 99.65769958496094,124.7403507232666 C98.83625030517578,123.53200721740723 97.82062911987305,122.41986083984375 96.70905685424805,121.50132369995117 C95.98411178588867,120.87287330627441 95.64518356323242,119.90578842163086 95.79020309448242,118.98725318908691 C96.56370544433594,113.9599494934082 93.56681060791016,109.12510299682617 88.7322769165039,107.62636423110962 L88.6837158203125,107.62636423110962 C87.18526458740234,107.14325189590454 85.58972930908203,107.04646015167236 84.04243087768555,107.28801345825195 L84.04243087768555,107.23975419998169 C83.0753402709961,107.38480234146118 82.15681076049805,107.04646015167236 81.52835083007812,106.32121562957764 C75.823486328125,99.60158967971802 65.91337966918945,98.29615330696106 58.66179084777832,103.37227725982666 C57.453155517578125,104.19402599334717 56.34130668640137,105.20907783508301 55.42276573181152,106.32121562957764 z" id="" opacity="1" stroke="#000000" shapeType="cloudMirror" fill="#000" fill-opacity="0" stroke-width="0" stroke-dasharray="none" cursor="move"/></clipPath><filter color-interpolation-filters="sRGB" id="ie_css_sepia"><feColorMatrix values=".343 .669 .119 0 0             .249 .626 .130 0 0            .172 .334 .111 0 0            .000 .000 .000 1 0 " type="matrix"/></filter><clipPath class="clippath" id="svg_6"><path d="M55.42276573181152,106.32121562957764 C54.79431343078613,107.04646015167236 53.82752799987793,107.38480234146118 52.908687591552734,107.23975419998169 C47.92935562133789,106.46626377105713 43.09508419036865,109.51199436187744 41.548078536987305,114.34627151489258 C41.06468343734741,115.8450117111206 40.96788787841797,117.44025230407715 41.209444522857666,118.98725318908691 C41.35448980331421,119.9543399810791 41.01613807678223,120.87287330627441 40.29090404510498,121.50132369995117 C33.57127487659454,127.20589828491211 32.26613521575928,137.11599349975586 37.341963052749634,144.36729431152344 L37.29399609565735,144.36729431152344 C38.11575508117676,145.57566452026367 39.13109064102173,146.68778228759766 40.242937088012695,147.6066017150879 L40.291186809539795,147.6066017150879 C41.01643514633179,148.2347640991211 41.35478687286377,149.20187377929688 41.20974254608154,150.12067794799805 C40.43623065948486,155.14800643920898 43.43343639373779,159.98256301879883 48.26770782470703,161.4810028076172 C49.76645278930664,161.96440505981445 51.36197090148926,162.06090927124023 52.90898513793945,161.81966018676758 L52.90898513793945,161.86846160888672 C53.87577247619629,161.72311782836914 54.79461097717285,162.06177520751953 55.423030853271484,162.78730010986328 C61.12763786315918,169.5066146850586 71.03804397583008,170.8117904663086 78.28931045532227,165.73593139648438 C79.49735260009766,164.9141845703125 80.60982131958008,163.89857482910156 81.52835083007812,162.78730010986328 L81.52835083007812,162.7387466430664 C82.15681076049805,162.01382064819336 83.1239013671875,161.67457580566406 84.04243087768555,161.81966018676758 C89.07002639770508,162.59341430664062 93.90462112426758,159.59621810913086 95.40336608886719,154.76168060302734 C95.88644409179688,153.26261520385742 95.98321533203125,151.6676902770996 95.74225997924805,150.12066268920898 L95.79020309448242,150.12066268920898 C95.64518356323242,149.15362548828125 95.98411178588867,148.23504638671875 96.70905685424805,147.6066017150879 C103.42866516113281,141.9020233154297 104.73407745361328,131.99163055419922 99.65769958496094,124.7403507232666 C98.83625030517578,123.53200721740723 97.82062911987305,122.41986083984375 96.70905685424805,121.50132369995117 C95.98411178588867,120.87287330627441 95.64518356323242,119.90578842163086 95.79020309448242,118.98725318908691 C96.56370544433594,113.9599494934082 93.56681060791016,109.12510299682617 88.7322769165039,107.62636423110962 L88.6837158203125,107.62636423110962 C87.18526458740234,107.14325189590454 85.58972930908203,107.04646015167236 84.04243087768555,107.28801345825195 L84.04243087768555,107.23975419998169 C83.0753402709961,107.38480234146118 82.15681076049805,107.04646015167236 81.52835083007812,106.32121562957764 C75.823486328125,99.60158967971802 65.91337966918945,98.29615330696106 58.66179084777832,103.37227725982666 C57.453155517578125,104.19402599334717 56.34130668640137,105.20907783508301 55.42276573181152,106.32121562957764 z" id="" opacity="1" stroke="#a3db39" shapeType="cloudMirror" fill="#000" fill-opacity="0" stroke-width="5" stroke-dasharray="5,2,2,2" cursor="move"/></clipPath></defs><g style="pointer-events:all" mask="url(#canvasMaskImageDef)"><title style="pointer-events:inherit">Layer 1</title><g style="pointer-events:inherit" type="photobox" pathStr="M102.1749936197564,29.152631663940763 C99.14222931025213,32.65250023105516 94.47673939470113,34.28526386902347 90.04262808363708,33.58529395879275 C66.01348955279607,29.852601574171484 42.684381783260314,44.55060814622418 35.218882918253065,67.8797463412972 C32.88612655090109,75.1123301121858 32.41901468690666,82.81059955000971 33.584712099186426,90.27607559586401 C34.284666796648516,94.94302593720356 32.651857520374314,99.37565400332612 29.15204219795013,102.40841831283039 C-3.2753734751675783,129.9374140012093 -9.57368336347073,177.7612927238312 14.921118015152649,212.75443334080924 L14.689639576871548,212.75443334080924 C18.65526416997617,218.58576138674985 23.55504403361082,223.95259796809265 28.92056471046707,228.3866180025449 L29.153407543934726,228.3866180025449 C32.653295127009905,231.41797513095085 34.28610060009195,236.0850243552865 33.58614970582202,240.5189683258956 C29.8533546350125,264.7797288655217 44.31719486272667,288.1102133906185 67.64629882907028,295.34132912933427 C74.87890541911182,297.67414634776077 82.57852118695953,298.1398396210804 90.04405808388836,296.9756064377813 L90.04405808388836,297.2111305217201 C94.70955560582368,296.5097306112381 99.14365931050341,298.1440079196852 102.17627909870569,301.64522662001553 C129.70543452115524,334.0711212539697 177.53080409510292,340.36963342455573 212.52379258439467,315.87467231186173 C218.3535385023977,311.9091294873885 223.7220637010585,307.00800139213396 228.1546689480281,301.64522662001553 L228.1546689480281,301.4109195575672 C231.18748650222258,297.91259128327664 235.85444444994644,296.2754843998643 240.28704969691606,296.9756064377813 C264.54910332187575,300.7095804981597 287.87977040019615,286.2457973183279 295.1123769902377,262.91540406984285 C297.4436120807266,255.68124577740096 297.9105832266112,247.9844976164401 296.74781046910067,240.51890747482108 L296.9791662544347,240.51890747482108 C296.279318046353,235.8521929313953 297.9149036529023,231.4193442801276 301.4133232038046,228.3866180025449 C333.84064783801006,200.85759188862872 340.14028575347476,153.03226795298693 315.64282974672534,118.0392338253893 C311.6786864969661,112.20803508798205 306.7775279761743,106.84106159172158 301.4133232038046,102.40841831283039 C297.9149036529023,99.37565400332612 296.279318046353,94.7087188747552 296.9791662544347,90.27607559586401 C300.7119232933226,66.01544436477131 286.2495701137421,42.68356026496046 262.91917686525704,35.45098410045618 L262.68483937727143,35.45098410045618 C255.45366278748114,33.1195930790888 247.75396334940595,32.65250023105516 240.28704969691606,33.81817862737414 L240.28704969691606,33.58529395879275 C235.62010696196083,34.28526386902347 231.18748650222258,32.65250023105516 228.1546689480281,29.152631663940763 C200.6242888977038,-3.2747685587088027 152.80033411123875,-9.574510586558818 117.805801525931,14.921719841517797 C111.97319560742542,18.887294993124367 106.60766732418486,23.785705707582263 102.1749936197564,29.152631663940763 z" lockTransform="null" lockEdit="null" id="svg_1" display="null"><image style="pointer-events:inherit" xlink:href="http://192.168.0.46/dnb_products/pc-magento-qa/designnbuy/assets/images/uploadedImage/admin_o_1af89ckp4vpa1tom17co1buq1goka.jpeg" id="svg_5" preserveAspectRatio="none" height="72.527214884758" width="96.58146705759232" y="100.28018925552703" x="34.24999979183758" xmlns:xlink="http://www.w3.org/1999/xlink" origWidth="530" origHeight="398" image_id="null" templateSrc="http://192.168.0.46/dnb_products/pc-magento-qa/designnbuy/assets/images/uploadedImage/admin_o_1af89ckp4vpa1tom17co1buq1goka.jpeg#**#null" isAdminUploaded="true" filter="url(#ie_css_sepia)" colors="" clip-path="url(#svg_6)"/><path d="M55.42276573181152,106.32121562957764 C54.79431343078613,107.04646015167236 53.82752799987793,107.38480234146118 52.908687591552734,107.23975419998169 C47.92935562133789,106.46626377105713 43.09508419036865,109.51199436187744 41.548078536987305,114.34627151489258 C41.06468343734741,115.8450117111206 40.96788787841797,117.44025230407715 41.209444522857666,118.98725318908691 C41.35448980331421,119.9543399810791 41.01613807678223,120.87287330627441 40.29090404510498,121.50132369995117 C33.57127487659454,127.20589828491211 32.26613521575928,137.11599349975586 37.341963052749634,144.36729431152344 L37.29399609565735,144.36729431152344 C38.11575508117676,145.57566452026367 39.13109064102173,146.68778228759766 40.242937088012695,147.6066017150879 L40.291186809539795,147.6066017150879 C41.01643514633179,148.2347640991211 41.35478687286377,149.20187377929688 41.20974254608154,150.12067794799805 C40.43623065948486,155.14800643920898 43.43343639373779,159.98256301879883 48.26770782470703,161.4810028076172 C49.76645278930664,161.96440505981445 51.36197090148926,162.06090927124023 52.90898513793945,161.81966018676758 L52.90898513793945,161.86846160888672 C53.87577247619629,161.72311782836914 54.79461097717285,162.06177520751953 55.423030853271484,162.78730010986328 C61.12763786315918,169.5066146850586 71.03804397583008,170.8117904663086 78.28931045532227,165.73593139648438 C79.49735260009766,164.9141845703125 80.60982131958008,163.89857482910156 81.52835083007812,162.78730010986328 L81.52835083007812,162.7387466430664 C82.15681076049805,162.01382064819336 83.1239013671875,161.67457580566406 84.04243087768555,161.81966018676758 C89.07002639770508,162.59341430664062 93.90462112426758,159.59621810913086 95.40336608886719,154.76168060302734 C95.88644409179688,153.26261520385742 95.98321533203125,151.6676902770996 95.74225997924805,150.12066268920898 L95.79020309448242,150.12066268920898 C95.64518356323242,149.15362548828125 95.98411178588867,148.23504638671875 96.70905685424805,147.6066017150879 C103.42866516113281,141.9020233154297 104.73407745361328,131.99163055419922 99.65769958496094,124.7403507232666 C98.83625030517578,123.53200721740723 97.82062911987305,122.41986083984375 96.70905685424805,121.50132369995117 C95.98411178588867,120.87287330627441 95.64518356323242,119.90578842163086 95.79020309448242,118.98725318908691 C96.56370544433594,113.9599494934082 93.56681060791016,109.12510299682617 88.7322769165039,107.62636423110962 L88.6837158203125,107.62636423110962 C87.18526458740234,107.14325189590454 85.58972930908203,107.04646015167236 84.04243087768555,107.28801345825195 L84.04243087768555,107.23975419998169 C83.0753402709961,107.38480234146118 82.15681076049805,107.04646015167236 81.52835083007812,106.32121562957764 C75.823486328125,99.60158967971802 65.91337966918945,98.29615330696106 58.66179084777832,103.37227725982666 C57.453155517578125,104.19402599334717 56.34130668640137,105.20907783508301 55.42276573181152,106.32121562957764 z" id="svg_7" opacity="1" stroke="#a3db39" shapeType="cloudMirror" fill="#000" fill-opacity="0" stroke-width="5" stroke-dasharray="5,2,2,2" cursor="move"/></g><g id="svg_8" type="text" text="Hello" font-size="83.80811371039384" font-family="Brush-Script" font-id="1" fill="a0f024" text-anchor="start" font-weight="normal" font-style="normal" lineHeight="1" shapeId="0" shapeVal="0" fill-opacity="1" display="null" elemBBoxWidth="146.08367919921875" transform="rotate(-58.8636, 46.5039, 59.1665)"><path id="svg_9" fill="#a0f024" d="M14.935714721679688,72.82321166992188 C12.002571105957031,72.06892395019531 9.572219848632812,72.23654174804688 6.5552520751953125,72.15281677246094 C3.8735122680664062,75.33732604980469 0.6889419555664062,80.03041076660156 3.03546142578125,85.64530944824219 C3.03546142578125,85.64530944824219 -5.7639923095703125,88.32704162597656 -5.7639923095703125,88.32704162597656 C-11.211296081542969,84.63967895507812 -4.087928771972656,76.25923156738281 -2.5794448852539062,72.23654174804688 C-7.9429168701171875,72.73939514160156 -12.887382507324219,72.99082946777344 -17.748062133789062,74.24787902832031 C-21.603065490722656,78.10287475585938 -25.877098083496094,82.96357727050781 -28.810264587402344,87.48902893066406 C-30.570159912109375,90.25457763671875 -35.17940902709961,88.41085815429688 -35.26321792602539,85.39387512207031 C-34.08995056152344,81.53889465332031 -30.318748474121094,78.10287475585938 -28.22364044189453,75.16970825195312 C-32.07862854003906,75.50494384765625 -36.771705627441406,75.58876037597656 -36.52027893066406,71.64996337890625 C-36.352657318115234,68.63298034667969 -34.257545471191406,66.78926086425781 -32.246246337890625,65.61601257324219 C-27.217971801757812,66.95687866210938 -21.519256591796875,63.604705810546875 -16.40717315673828,63.101898193359375 C-16.40717315673828,63.101898193359375 -8.278152465820312,54.80525207519531 -8.278152465820312,54.80525207519531 C-8.278152465820312,54.80525207519531 0.10231781005859375,45.419097900390625 0.10231781005859375,45.419097900390625 C1.9460220336914062,43.24021911621094 3.370697021484375,42.150726318359375 3.789703369140625,39.72038269042969 C3.7058944702148438,38.3795166015625 2.616455078125,38.21189880371094 0.9403457641601562,38.21189880371094 C-10.540863037109375,38.21189880371094 -19.17273712158203,42.98878479003906 -27.636993408203125,46.59239196777344 C-26.044715881347656,47.011383056640625 -26.128524780273438,48.6875 -27.804595947265625,49.35792541503906 C-32.581459045410156,51.1177978515625 -37.023094177246094,53.46434020996094 -41.38093566894531,55.64326477050781 C-45.403560638427734,57.65460205078125 -46.325401306152344,52.45867919921875 -45.15215301513672,48.6875 C-43.224639892578125,42.485931396484375 -40.04006576538086,40.72605895996094 -34.425167083740234,38.54713439941406 C-23.2791748046875,34.189292907714844 -11.46270751953125,29.999069213867188 2.616455078125,29.496253967285156 C8.734169006347656,29.244827270507812 13.343437194824219,32.93223571777344 11.751144409179688,39.468994140625 C9.572219848632812,48.436065673828125 -0.23290252685546875,54.302398681640625 -5.847801208496094,61.17436218261719 C-5.847801208496094,61.17436218261719 6.8904876708984375,59.74967956542969 6.8904876708984375,59.74967956542969 C6.8904876708984375,59.74967956542969 22.645751953125,40.139434814453125 22.645751953125,40.139434814453125 C25.07605743408203,37.45768737792969 25.66272735595703,35.94920349121094 28.093032836914062,35.02734375 C29.685333251953125,35.11115264892578 30.02056884765625,37.79289245605469 29.35009002685547,39.38519287109375 C26.249351501464844,46.6761474609375 18.45550537109375,53.04533386230469 13.678657531738281,59.66587829589844 C19.042152404785156,59.74967956542969 21.807701110839844,59.91729736328125 24.99224853515625,61.761016845703125 C24.99224853515625,61.761016845703125 19.293556213378906,66.87306213378906 19.293556213378906,66.87306213378906 C17.617477416992188,68.63298034667969 16.360397338867188,70.81185913085938 14.935714721679688,72.82321166992188 C14.935714721679688,72.82321166992188 14.935714721679688,72.82321166992188 14.935714721679688,72.82321166992188 M54.32389831542969,73.40986633300781 C54.32389831542969,73.40986633300781 54.156280517578125,76.92962646484375 54.156280517578125,76.92962646484375 C48.206146240234375,81.20365905761719 43.01023864746094,87.48902893066406 33.62413024902344,87.48902893066406 C27.08740234375,87.48902893066406 24.405662536621094,83.63395690917969 24.07042694091797,77.013427734375 C23.4837646484375,65.36457824707031 35.80308532714844,54.88902282714844 47.03288269042969,54.88902282714844 C49.96604919433594,54.88902282714844 52.22874450683594,56.06231689453125 52.22874450683594,58.744049072265625 C52.22874450683594,68.46536254882812 40.24470520019531,71.1470947265625 32.28326416015625,74.24787902832031 C31.44525146484375,78.10287475585938 33.62413024902344,80.53326416015625 37.39533996582031,80.44937133789062 C44.51873779296875,80.36564636230469 49.63081359863281,76.34295654296875 54.32389831542969,73.40986633300781 C54.32389831542969,73.40986633300781 54.32389831542969,73.40986633300781 54.32389831542969,73.40986633300781 M45.272979736328125,60.75535583496094 C45.18916320800781,59.163055419921875 43.26167297363281,59.83349609375 42.08837890625,60.33634948730469 C38.14958190917969,62.180023193359375 34.964996337890625,66.03504943847656 33.121307373046875,70.14146423339844 C37.31153869628906,68.54917907714844 41.41798400878906,65.95124816894531 44.0997314453125,63.101898193359375 C44.85392761230469,62.180023193359375 45.272979736328125,61.42578125 45.272979736328125,60.75535583496094 C45.272979736328125,60.75535583496094 45.272979736328125,60.75535583496094 45.272979736328125,60.75535583496094 M79.80047607421875,73.40986633300781 C79.80047607421875,74.5831298828125 79.54904174804688,75.84017944335938 79.71665954589844,77.013427734375 C79.71665954589844,77.013427734375 74.18557739257812,81.28746032714844 74.18557739257812,81.28746032714844 C70.58193969726562,83.55023193359375 66.97837829589844,87.06999206542969 61.69866943359375,87.06999206542969 C51.30693054199219,87.06999206542969 53.73722839355469,70.89567565917969 57.00563049316406,63.35331726074219 C61.6148681640625,52.62629699707031 69.24107360839844,43.910614013671875 77.78913879394531,36.954833984375 C79.38142395019531,35.697776794433594 80.63848876953125,35.02734375 81.47654724121094,35.02734375 C84.91252136230469,35.94920349121094 82.64982604980469,41.983154296875 81.89555358886719,44.74870300292969 C78.71099853515625,56.1461181640625 69.57630920410156,62.8504638671875 62.28529357910156,70.47671508789062 C61.53105163574219,74.83454895019531 61.53105163574219,80.36564636230469 66.559326171875,79.94659423828125 C72.25804138183594,79.44374084472656 74.77215576171875,76.84580993652344 79.80047607421875,73.40986633300781 C79.80047607421875,73.40986633300781 79.80047607421875,73.40986633300781 79.80047607421875,73.40986633300781 M77.03489685058594,44.83250427246094 C71.336181640625,49.441741943359375 67.31356811523438,55.810882568359375 64.04521179199219,62.8504638671875 C69.24107360839844,57.57080078125 73.93414306640625,52.20729064941406 77.03489685058594,44.83250427246094 C77.03489685058594,44.83250427246094 77.03489685058594,44.83250427246094 77.03489685058594,44.83250427246094 M105.27705383300781,73.40986633300781 C105.27705383300781,74.5831298828125 105.025634765625,75.84017944335938 105.19325256347656,77.013427734375 C105.19325256347656,77.013427734375 99.66215515136719,81.28746032714844 99.66215515136719,81.28746032714844 C96.05851745605469,83.55023193359375 92.4549560546875,87.06999206542969 87.17524719238281,87.06999206542969 C76.78350830078125,87.06999206542969 79.21380615234375,70.89567565917969 82.48220825195312,63.35331726074219 C87.09144592285156,52.62629699707031 94.7176513671875,43.910614013671875 103.26571655273438,36.954833984375 C104.85800170898438,35.697776794433594 106.11506652832031,35.02734375 106.953125,35.02734375 C110.38909912109375,35.94920349121094 108.12640380859375,41.983154296875 107.37213134765625,44.74870300292969 C104.18757629394531,56.1461181640625 95.05288696289062,62.8504638671875 87.76187133789062,70.47671508789062 C87.00762939453125,74.83454895019531 87.00762939453125,80.36564636230469 92.03590393066406,79.94659423828125 C97.734619140625,79.44374084472656 100.24873352050781,76.84580993652344 105.27705383300781,73.40986633300781 C105.27705383300781,73.40986633300781 105.27705383300781,73.40986633300781 105.27705383300781,73.40986633300781 M102.51150512695312,44.83250427246094 C96.81280517578125,49.441741943359375 92.79014587402344,55.810882568359375 89.52178955078125,62.8504638671875 C94.7176513671875,57.57080078125 99.41072082519531,52.20729064941406 102.51150512695312,44.83250427246094 C102.51150512695312,44.83250427246094 102.51150512695312,44.83250427246094 102.51150512695312,44.83250427246094 M138.6312255859375,73.40986633300781 C138.6312255859375,73.40986633300781 138.46360778808594,77.013427734375 138.46360778808594,77.013427734375 C134.7762451171875,79.52754211425781 132.0106964111328,81.53889465332031 126.31198120117188,80.86842346191406 C122.70838928222656,84.13682556152344 119.94284057617188,86.98617553710938 113.99270629882812,86.98617553710938 C102.93051147460938,86.98617553710938 103.34951782226562,68.96821594238281 110.13768005371094,63.43708801269531 C114.99836730957031,59.49824523925781 120.02664184570312,55.727081298828125 128.15570068359375,55.30802917480469 C130.3345947265625,55.224212646484375 132.59732055664062,56.31370544433594 132.68112182617188,58.24119567871094 C132.68112182617188,59.49824523925781 131.6754608154297,60.00111389160156 130.75363159179688,60.50396728515625 C133.01632690429688,61.34197998046875 133.68679809570312,62.180023193359375 133.68679809570312,65.19696044921875 C133.68679809570312,69.5548095703125 131.75926208496094,72.57177734375 129.66415405273438,76.25923156738281 C133.938232421875,76.59439086914062 135.69805908203125,75.16970825195312 138.6312255859375,73.40986633300781 C138.6312255859375,73.40986633300781 138.6312255859375,73.40986633300781 138.6312255859375,73.40986633300781 M121.11613464355469,77.68389892578125 C118.76954650878906,72.40415954589844 121.618896484375,68.80059814453125 123.96543884277344,64.19132995605469 C118.85336303710938,67.54354858398438 111.31095886230469,69.97384643554688 111.31095886230469,78.01905822753906 C111.31095886230469,82.8797607421875 119.52383422851562,79.77897644042969 121.11613464355469,77.68389892578125 C121.11613464355469,77.68389892578125 121.11613464355469,77.68389892578125 121.11613464355469,77.68389892578125 "/><rect id="svg_10" x="-45.62500733137131" y="29.48439121991396" width="184.24999511241913" height="59.36430613510311" fill="#a0f024" opacity="0"/></g><g id="svg_14" display="null" clip-id="1"><path fill="#2BA9E1" d="M79.49908447265625,212.11788940429688 L93.62174987792969,202.48081970214844 L73.47952270507812,196.58486938476562 C56.66111755371094,167.02799224853516 22.335174560546875,182.44180297851562 10.863105773925781,210.5519561767578 C-2.97894287109375,244.4344482421875 -42.6221923828125,256.7934265136719 -42.6221923828125,256.7934265136719 C-14.407371520996094,290.35174560546875 11.040504455566406,296.41200256347656 28.013023376464844,295.07427978515625 C44.9942626953125,293.7264709472656 90.82716369628906,280.3787384033203 81.28602600097656,220.7982635498047 C80.78730773925781,217.70272827148438 80.18536376953125,214.8179931640625 79.49908447265625,212.11788940429688 z" id="svg_15" stroke-width="0"/><path fill="#2B3277" d="M73.47952270507812,196.58486938476562 C75.88299560546875,200.8087158203125 77.92874145507812,205.96168518066406 79.49908447265625,212.11788940429688 L93.62174987792969,202.48081970214844 L73.47952270507812,196.58486938476562 zM51.03269958496094,233.99766540527344 C51.03269958496094,233.99766540527344 3.923187255859375,224.28350830078125 -1.4798736572265625,250.4976348876953 C-6.881477355957031,276.7059631347656 36.6148681640625,291.91770935058594 51.03269958496094,233.99766540527344 zM60.09690856933594,195.85639190673828 C60.41242980957031,198.66697692871094 58.964263916015625,201.14315795898438 56.85595703125,201.3888702392578 C54.74041748046875,201.62586975097656 52.765869140625,199.5350341796875 52.45326232910156,196.72879028320312 C52.13047790527344,193.918212890625 53.57865905761719,191.4420623779297 55.6942138671875,191.19635009765625 C57.81413269042969,190.96804809570312 59.77558898925781,193.04581451416016 60.09690856933594,195.85639190673828 z" id="svg_16" stroke-width="0"/></g></g></svg>