<svg xmlns="http://www.w3.org/2000/svg" width="187" height="240" x="0" y="0" id="svgcontent" viewBox="0 0 187 240" overflow="hidden"><defs><mask id="canvasMaskImageDef" maskUnits="objectBoundingBox" x="0" y="0"><image id="canvasMaskImage" preserveAspectRatio="none" style="pointer-events:none" x="-106" y="-81" width="400" height="344.82758620689657" xlink:href="http://192.168.0.222/work/jan_langius/print_commerce/source/designnbuy/uploads/productimage/5826bc835e1ff.png" xmlns:xlink="http://www.w3.org/1999/xlink"/></mask></defs><g mask="url(#canvasMaskImageDef)" style="pointer-events:all"><title style="pointer-events:inherit">Layer 1</title><g id="svg_4" display="null"><path fill-rule="evenodd" d="M86.99662017822266,172.4110870361328 C80.94461059570312,173.0203399658203 75.56986999511719,170.96539306640625 71.6176986694336,166.76708984375 C67.62064743041992,162.51979064941406 64.42465209960938,157.41567993164062 65.23657989501953,150.985595703125 C65.56161499023438,148.4084014892578 66.84273147583008,146.7247314453125 69.12347030639648,145.13621520996094 C73.44012451171875,142.130615234375 76.789794921875,138.102294921875 76.99785995483398,132.41478729248047 C77.07675552368164,130.26458740234375 76.75035095214844,128.1035385131836 76.67283630371094,125.94523620605469 C76.43754577636719,119.36691284179688 79.28948593139648,114.66403198242188 84.84916687011719,111.0722427368164 C91.33773803710938,106.88346862792969 98.6803970336914,105.75602722167969 105.94552612304688,104.67616271972656 C112.18248748779297,103.74864959716797 119.8936996459961,109.08528137207031 122.2628173828125,115.33314514160156 C124.77069091796875,121.94955444335938 129.79722595214844,124.59750366210938 136.3320541381836,125.0761947631836 C142.32421875,125.5154800415039 146.22745513916016,128.80665588378906 146.79185485839844,134.82061767578125 C147.13999938964844,138.5347900390625 147.48678588867188,142.47064208984375 146.6422119140625,146.0242919921875 C145.42640686035156,151.14065551757812 142.23992919921875,155.1540069580078 137.39015197753906,157.864501953125 C129.30491638183594,162.38238525390625 120.86612701416016,165.82460021972656 111.8057861328125,167.78433227539062 C103.57503509521484,169.56594848632812 95.37152099609375,171.46450805664062 87.15436553955078,173.3114013671875 C87.10269927978516,173.01217651367188 87.04965209960938,172.71163940429688 86.99662017822266,172.4110870361328 zM87.90374755859375,26.07073402404785 C88.81764221191406,27.961164474487305 89.51260375976562,30.003862380981445 90.68901824951172,31.713411331176758 C93.267578125,35.4615592956543 92.5916748046875,37.84701919555664 88.37837219238281,38.920061111450195 C83.70677947998047,40.11004638671875 81.29141616821289,46.58502960205078 84.5105209350586,50.81598663330078 C87.139404296875,54.26904296875 87.33389282226562,57.84718704223633 87.14894104003906,61.73273468017578 C87.05781555175781,63.669368743896484 86.49205780029297,65.68761825561523 86.86332702636719,67.52362060546875 C87.64263153076172,71.37513732910156 88.40559387207031,75.48778533935547 92.34686279296875,77.58901977539062 C101.43165588378906,82.43059539794922 115.02899169921875,74.84044647216797 115.8463134765625,64.59009552001953 C116.6065673828125,55.05375671386719 111.9431381225586,48.157188415527344 105.16354370117188,42.22756576538086 C103.0310287475586,40.36166763305664 100.8523178100586,38.50253105163574 99.00817108154297,36.36868095397949 C97.5080795288086,34.63603591918945 96.68659973144531,32.31588172912598 95.18519592285156,30.585960388183594 C93.4389419555664,28.574504852294922 91.27790069580078,26.922096252441406 89.29640197753906,25.113300323486328 C88.83261108398438,25.43290901184082 88.36749267578125,25.75115394592285 87.90374755859375,26.07073402404785 zM53.365102767944336,36.14019775390625 C53.17063903808594,36.863731384277344 53.110795974731445,37.62125015258789 52.940792083740234,38.3529167175293 C51.29789733886719,45.463035583496094 53.28079032897949,52.88184356689453 49.96782112121582,60.0694465637207 C48.09919357299805,64.12360763549805 48.68399620056152,69.67105484008789 49.31365776062012,74.39163970947266 C49.76517868041992,77.77396392822266 51.314231872558594,81.87435913085938 53.79758071899414,83.9456558227539 C59.308326721191406,88.53702545166016 65.62010192871094,91.44332885742188 73.22522735595703,87.45446014404297 C81.10101318359375,83.32413482666016 83.11652755737305,76.03722381591797 77.69828796386719,68.30018997192383 C75.59027099609375,65.2905044555664 73.99771499633789,61.856483459472656 72.58467864990234,58.44424819946289 C71.66801452636719,56.23017120361328 71.66257858276367,53.65839767456055 70.9621810913086,51.33279800415039 C69.77625274658203,47.392860412597656 66.21847915649414,45.69422912597656 62.316646575927734,46.956298828125 C61.113037109375,47.34526443481445 59.87815856933594,47.64174270629883 58.852718353271484,47.92598342895508 C55.708404541015625,44.13565444946289 58.476009368896484,38.446760177612305 54.17023468017578,35.192277908325195 C53.75,35.6723575592041 53.437191009521484,35.8736572265625 53.365102767944336,36.14019775390625 zM135.41407775878906,70.17155075073242 C132.44245147705078,77.10755920410156 129.21515655517578,83.97557830810547 126.92900085449219,91.1386947631836 C125.93756866455078,94.24359130859375 125.91852569580078,98.58880615234375 127.38188171386719,101.35096740722656 C130.26646423339844,106.79505920410156 139.24925994873047,108.66096496582031 145.51072692871094,106.88617706298828 C155.5883331298828,104.02880859375 157.17001342773438,97.3294448852539 157.86904907226562,90.09831237792969 C158.47286987304688,83.84364318847656 156.99594116210938,77.53731536865234 153.16481018066406,72.1326675415039 C152.67929077148438,71.44857025146484 152.3705596923828,70.6217155456543 152.0673065185547,69.82881546020508 C150.21900939941406,64.99945068359375 148.4265594482422,60.14833450317383 146.52528381347656,55.33936309814453 C146.29271697998047,54.74911117553711 145.52703857421875,54.369667053222656 145.0074920654297,53.893672943115234 C144.64984893798828,53.9807243347168 144.2921371459961,54.06912612915039 143.93310546875,54.15752029418945 C144.28941345214844,57.92471694946289 144.645751953125,61.693294525146484 145.02655029296875,65.72296905517578 C139.192138671875,65.93650817871094 136.77813720703125,66.98369216918945 135.41407775878906,70.17155075073242 zM22.131301879882812,96.8520736694336 C23.836737990379333,104.2899398803711 25.474196195602417,111.7495346069336 27.489701747894287,119.10580444335938 C29.320268154144287,125.78475189208984 33.1337251663208,130.81134033203125 39.59372329711914,134.19093322753906 C46.573259353637695,137.84254455566406 59.403526306152344,134.0753402709961 61.81753921508789,125.02452850341797 C62.33024978637695,123.10148620605469 63.42096710205078,120.9989013671875 63.037445068359375,119.24179077148438 C62.339778900146484,116.05804443359375 60.845130920410156,113.05242919921875 57.711692810058594,111.23138427734375 C54.97262954711914,109.6401596069336 52.29887390136719,107.9129638671875 49.723039627075195,106.06745147705078 C47.40285682678223,104.40416717529297 45.36014175415039,102.34919738769531 43.00732421875,100.74031066894531 C40.13909339904785,98.78056335449219 37.31437301635742,96.02928924560547 33.42746543884277,97.3525619506836 C31.428264617919922,98.0339126586914 29.735071659088135,99.61285400390625 27.91130781173706,100.77977752685547 C25.51906108856201,98.51671600341797 27.016432285308838,93.79615783691406 22.091860689222813,92.71223449707031 C22.09321455657482,94.3551025390625 21.857930958271027,95.66205596923828 22.131301879882812,96.8520736694336 z" id="svg_5"/></g></g></svg>