<svg width="189" height="237" xmlns="http://www.w3.org/2000/svg" xmlns:xlink="http://www.w3.org/1999/xlink" viewBox="0 0 189 237"><defs><mask y="0" x="0" maskUnits="objectBoundingBox" id="canvasMaskImageDef"><image xlink:href="http://192.168.0.222/work/jan_langius/print_commerce/source/designnbuy/uploads/productimage/5826b9c0eeec0.png" height="344.82759" width="400" y="-85" x="-105" preserveAspectRatio="none" id="canvasMaskImage"/></mask></defs><g mask="url(#canvasMaskImageDef)"><title>Layer 1</title><g clip-id="1" display="null" id="svg_4"><path stroke-width="0" id="svg_5" d="m158.83046,76.99733l16.30055,-11.12327l-23.24838,-6.80518c-19.41199,-34.11487 -59.03146,-16.32404 -72.27261,16.12099c-15.97667,39.1076 -61.73336,53.37249 -61.73336,53.37249c32.5659,38.73335 61.93809,45.72815 81.528,44.18417c19.59993,-1.55569 72.50082,-16.96176 61.48831,-85.73024c-0.57561,-3.57291 -1.27039,-6.9025 -2.0625,-10.01897z" fill="#2BA9E1"/><path stroke-width="0" id="svg_6" d="m151.88263,59.06888c2.77409,4.87524 5.13533,10.82286 6.94783,17.92845l16.30055,-11.12327l-23.24838,-6.80518zm-25.90841,43.18231c0,0 -54.37436,-11.21218 -60.61063,19.04446c-6.23459,30.24996 43.96941,47.8075 60.61063,-19.04446zm10.46203,-44.0231c0.36418,3.24402 -1.30733,6.10203 -3.74074,6.38564c-2.4418,0.27356 -4.72084,-2.13972 -5.08165,-5.37869c-0.37256,-3.244 1.29895,-6.10203 3.74075,-6.38565c2.44682,-0.26348 4.71078,2.13469 5.08163,5.37869z" fill="#2B3277"/></g></g></svg>