<svg xmlns="http://www.w3.org/2000/svg" width="67" height="85" x="0" y="0" id="svgcontent" overflow="hidden" viewBox="0 0 67 85"><defs><mask id="canvasMaskImageDef" maskUnits="objectBoundingBox" x="0" y="0"><image id="canvasMaskImage" preserveAspectRatio="none" style="pointer-events:none" x="-197" y="-45" width="400" height="344.82758620689657" xlink:href="http://192.168.0.222/work/jan_langius/print_commerce/source/designnbuy/uploads/productimage/5826b9c56c14d.png" xmlns:xlink="http://www.w3.org/1999/xlink"/></mask></defs><g style="pointer-events:all" mask="url(#canvasMaskImageDef)"><title style="pointer-events:inherit">Layer 1</title><g id="svg_1" type="text" text="Yahoo" font-size="6.8171701112877585" font-family="Kroftsmann" font-id="1" fill="000000" text-anchor="start" font-weight="normal" font-style="normal" lineHeight="1" shapeId="0" shapeVal="0" fill-opacity="1" display="null" elemBBoxWidth="52.3984375" xscale="11.329542065427745" yscale="NaN" elemBBoxHeight="55.125" stroke-width="0" stroke="null" stroke-dasharray="none"><path id="svg_4" fill="#000000" stroke-width="0" d="M12.891664768074406,80.50278824302495 C12.891664768074406,80.50278824302495 9.2179899517796,80.50278824302495 9.2179899517796,80.50278824302495 C9.2179899517796,80.50278824302495 9.2179899517796,54.77790895030557 9.2179899517796,54.77790895030557 C9.2179899517796,54.77790895030557 6.124368775414041,25.378039443092803 6.124368775414041,25.378039443092803 C6.124368775414041,25.378039443092803 10.120295433029241,25.378039443092803 10.120295433029241,25.378039443092803 C10.120295433029241,25.378039443092803 11.087052177812438,37.321732986071765 11.087052177812438,37.321732986071765 C11.087052177812438,37.321732986071765 11.989358472943422,25.378039443092803 11.989358472943422,25.378039443092803 C11.989358472943422,25.378039443092803 15.985284723617951,25.378039443092803 15.985284723617951,25.378039443092803 C15.985284723617951,25.378039443092803 12.891664768074406,54.77790895030557 12.891664768074406,54.77790895030557 C12.891664768074406,54.77790895030557 12.891664768074406,80.50278824302495 12.891664768074406,80.50278824302495 C12.891664768074406,80.50278824302495 12.891664768074406,80.50278824302495 12.891664768074406,80.50278824302495 M24.94389478363155,25.378039443092803 C24.94389478363155,25.378039443092803 18.756653244781774,25.378039443092803 18.756653244781774,25.378039443092803 C18.756653244781774,25.378039443092803 16.758691747207195,34.79518410226001 16.758691747207195,34.79518410226001 C16.758691747207195,34.79518410226001 16.758691747207195,80.50278824302495 16.758691747207195,80.50278824302495 C16.758691747207195,80.50278824302495 20.367915299968445,80.50278824302495 20.367915299968445,80.50278824302495 C20.367915299968445,80.50278824302495 20.367915299968445,64.19505360947278 20.367915299968445,64.19505360947278 C20.367915299968445,64.19505360947278 23.010381294065155,64.19505360947278 23.010381294065155,64.19505360947278 C23.010381294065155,64.19505360947278 23.010381294065155,80.50278824302495 23.010381294065155,80.50278824302495 C23.010381294065155,80.50278824302495 26.61960647458909,80.50278824302495 26.61960647458909,80.50278824302495 C26.61960647458909,80.50278824302495 26.61960647458909,34.79518410226001 26.61960647458909,34.79518410226001 C26.61960647458909,34.79518410226001 24.94389478363155,25.378039443092803 24.94389478363155,25.378039443092803 M23.010381294065155,52.48103789088327 C23.010381294065155,52.48103789088327 20.367915299968445,52.48103789088327 20.367915299968445,52.48103789088327 C20.367915299968445,52.48103789088327 20.367915299968445,37.092049360711826 20.367915299968445,37.092049360711826 C20.367915299968445,37.092049360711826 23.010381294065155,37.092049360711826 23.010381294065155,37.092049360711826 C23.010381294065155,37.092049360711826 23.010381294065155,52.48103789088327 23.010381294065155,52.48103789088327 C23.010381294065155,52.48103789088327 23.010381294065155,52.48103789088327 23.010381294065155,52.48103789088327 M37.253926597797545,25.378039443092803 C37.253926597797545,25.378039443092803 33.25800360264839,25.378039443092803 33.25800360264839,25.378039443092803 C33.25800360264839,25.378039443092803 33.25800360264839,45.36075849016788 33.25800360264839,45.36075849016788 C33.25800360264839,45.36075849016788 31.002237050939584,45.36075849016788 31.002237050939584,45.36075849016788 C31.002237050939584,45.36075849016788 31.002237050939584,25.378039443092803 31.002237050939584,25.378039443092803 C31.002237050939584,25.378039443092803 27.39301187041565,25.378039443092803 27.39301187041565,25.378039443092803 C27.39301187041565,25.378039443092803 27.39301187041565,80.50278824302495 27.39301187041565,80.50278824302495 C27.39301187041565,80.50278824302495 31.002237050939584,80.50278824302495 31.002237050939584,80.50278824302495 C31.002237050939584,80.50278824302495 31.002237050939584,57.074768407786905 31.002237050939584,57.074768407786905 C31.002237050939584,57.074768407786905 33.25800360264839,57.074768407786905 33.25800360264839,57.074768407786905 C33.25800360264839,57.074768407786905 33.25800360264839,80.50278824302495 33.25800360264839,80.50278824302495 C33.25800360264839,80.50278824302495 37.253926597797545,80.50278824302495 37.253926597797545,80.50278824302495 C37.253926597797545,80.50278824302495 37.253926597797545,25.378039443092803 37.253926597797545,25.378039443092803 C37.253926597797545,25.378039443092803 37.253926597797545,25.378039443092803 37.253926597797545,25.378039443092803 M38.02733524914947,35.943613831000675 C38.02733524914947,35.943613831000675 40.02529674672405,25.378039443092803 40.02529674672405,25.378039443092803 C40.02529674672405,25.378039443092803 45.89028522343142,25.378039443092803 45.89028522343142,25.378039443092803 C45.89028522343142,25.378039443092803 47.88824997653137,34.79518410226001 47.88824997653137,34.79518410226001 C47.88824997653137,34.79518410226001 47.88824997653137,69.93721385511708 47.88824997653137,69.93721385511708 C47.88824997653137,69.93721385511708 45.89028522343142,80.50278824302495 45.89028522343142,80.50278824302495 C45.89028522343142,80.50278824302495 40.02529674672405,80.50278824302495 40.02529674672405,80.50278824302495 C40.02529674672405,80.50278824302495 38.02733524914947,71.08564358385775 38.02733524914947,71.08564358385775 C38.02733524914947,71.08564358385775 38.02733524914947,35.943613831000675 38.02733524914947,35.943613831000675 C38.02733524914947,35.943613831000675 38.02733524914947,35.943613831000675 38.02733524914947,35.943613831000675 M43.89232372585684,67.64035439763575 C43.89232372585684,67.64035439763575 43.89232372585684,38.24047908945249 43.89232372585684,38.24047908945249 C43.89232372585684,38.24047908945249 41.63655717414804,38.24047908945249 41.63655717414804,38.24047908945249 C41.63655717414804,38.24047908945249 41.63655717414804,67.64035439763575 41.63655717414804,67.64035439763575 C41.63655717414804,67.64035439763575 43.89232372585684,67.64035439763575 43.89232372585684,67.64035439763575 C43.89232372585684,67.64035439763575 43.89232372585684,67.64035439763575 43.89232372585684,67.64035439763575 M48.66165537235793,35.943613831000675 C48.66165537235793,35.943613831000675 50.659616869932506,25.378039443092803 50.659616869932506,25.378039443092803 C50.659616869932506,25.378039443092803 56.524608602165245,25.378039443092803 56.524608602165245,25.378039443092803 C56.524608602165245,25.378039443092803 58.522576610790566,34.79518410226001 58.522576610790566,34.79518410226001 C58.522576610790566,34.79518410226001 58.522576610790566,69.93721385511708 58.522576610790566,69.93721385511708 C58.522576610790566,69.93721385511708 56.524608602165245,80.50278824302495 56.524608602165245,80.50278824302495 C56.524608602165245,80.50278824302495 50.659616869932506,80.50278824302495 50.659616869932506,80.50278824302495 C50.659616869932506,80.50278824302495 48.66165537235793,71.08564358385775 48.66165537235793,71.08564358385775 C48.66165537235793,71.08564358385775 48.66165537235793,35.943613831000675 48.66165537235793,35.943613831000675 C48.66165537235793,35.943613831000675 48.66165537235793,35.943613831000675 48.66165537235793,35.943613831000675 M54.526643849065294,67.64035439763575 C54.526643849065294,67.64035439763575 54.526643849065294,38.24047908945249 54.526643849065294,38.24047908945249 C54.526643849065294,38.24047908945249 52.27088055288186,38.24047908945249 52.27088055288186,38.24047908945249 C52.27088055288186,38.24047908945249 52.27088055288186,67.64035439763575 52.27088055288186,67.64035439763575 C52.27088055288186,67.64035439763575 54.526643849065294,67.64035439763575 54.526643849065294,67.64035439763575 C54.526643849065294,67.64035439763575 54.526643849065294,67.64035439763575 54.526643849065294,67.64035439763575 "/><rect id="svg_5" x="6.124999406285724" y="25.39468456028895" width="52.39510209516997" height="55.10278354132562" fill="#000000" opacity="0"/></g></g></svg>