<?xml version="1.0" encoding="utf-8"?>
<!DOCTYPE svg PUBLIC "-//W3C//DTD SVG 20010904//EN" "http://www.w3.org/TR/2001/REC-SVG-20010904/DTD/svg10.dtd">
<svg xmlns="http://www.w3.org/2000/svg" xml:space="preserve" xmlns:xlink="http://www.w3.org/1999/xlink" width="116" height="116" viewBox="0 0 116 116">
<desc></desc>
<defs>
<rect id="p" width="4" height="4" />
</defs>
<g fill="#d52020">
<use x="0" y="0" xlink:href="#p" />
<use x="4" y="0" xlink:href="#p" />
<use x="8" y="0" xlink:href="#p" />
<use x="12" y="0" xlink:href="#p" />
<use x="16" y="0" xlink:href="#p" />
<use x="20" y="0" xlink:href="#p" />
<use x="24" y="0" xlink:href="#p" />
<use x="36" y="0" xlink:href="#p" />
<use x="52" y="0" xlink:href="#p" />
<use x="68" y="0" xlink:href="#p" />
<use x="72" y="0" xlink:href="#p" />
<use x="76" y="0" xlink:href="#p" />
<use x="80" y="0" xlink:href="#p" />
<use x="88" y="0" xlink:href="#p" />
<use x="92" y="0" xlink:href="#p" />
<use x="96" y="0" xlink:href="#p" />
<use x="100" y="0" xlink:href="#p" />
<use x="104" y="0" xlink:href="#p" />
<use x="108" y="0" xlink:href="#p" />
<use x="112" y="0" xlink:href="#p" />
<use x="0" y="4" xlink:href="#p" />
<use x="24" y="4" xlink:href="#p" />
<use x="32" y="4" xlink:href="#p" />
<use x="36" y="4" xlink:href="#p" />
<use x="44" y="4" xlink:href="#p" />
<use x="48" y="4" xlink:href="#p" />
<use x="60" y="4" xlink:href="#p" />
<use x="68" y="4" xlink:href="#p" />
<use x="80" y="4" xlink:href="#p" />
<use x="88" y="4" xlink:href="#p" />
<use x="112" y="4" xlink:href="#p" />
<use x="0" y="8" xlink:href="#p" />
<use x="8" y="8" xlink:href="#p" />
<use x="12" y="8" xlink:href="#p" />
<use x="16" y="8" xlink:href="#p" />
<use x="24" y="8" xlink:href="#p" />
<use x="36" y="8" xlink:href="#p" />
<use x="40" y="8" xlink:href="#p" />
<use x="44" y="8" xlink:href="#p" />
<use x="60" y="8" xlink:href="#p" />
<use x="76" y="8" xlink:href="#p" />
<use x="88" y="8" xlink:href="#p" />
<use x="96" y="8" xlink:href="#p" />
<use x="100" y="8" xlink:href="#p" />
<use x="104" y="8" xlink:href="#p" />
<use x="112" y="8" xlink:href="#p" />
<use x="0" y="12" xlink:href="#p" />
<use x="8" y="12" xlink:href="#p" />
<use x="12" y="12" xlink:href="#p" />
<use x="16" y="12" xlink:href="#p" />
<use x="24" y="12" xlink:href="#p" />
<use x="32" y="12" xlink:href="#p" />
<use x="36" y="12" xlink:href="#p" />
<use x="44" y="12" xlink:href="#p" />
<use x="68" y="12" xlink:href="#p" />
<use x="88" y="12" xlink:href="#p" />
<use x="96" y="12" xlink:href="#p" />
<use x="100" y="12" xlink:href="#p" />
<use x="104" y="12" xlink:href="#p" />
<use x="112" y="12" xlink:href="#p" />
<use x="0" y="16" xlink:href="#p" />
<use x="8" y="16" xlink:href="#p" />
<use x="12" y="16" xlink:href="#p" />
<use x="16" y="16" xlink:href="#p" />
<use x="24" y="16" xlink:href="#p" />
<use x="40" y="16" xlink:href="#p" />
<use x="48" y="16" xlink:href="#p" />
<use x="52" y="16" xlink:href="#p" />
<use x="60" y="16" xlink:href="#p" />
<use x="68" y="16" xlink:href="#p" />
<use x="72" y="16" xlink:href="#p" />
<use x="76" y="16" xlink:href="#p" />
<use x="80" y="16" xlink:href="#p" />
<use x="88" y="16" xlink:href="#p" />
<use x="96" y="16" xlink:href="#p" />
<use x="100" y="16" xlink:href="#p" />
<use x="104" y="16" xlink:href="#p" />
<use x="112" y="16" xlink:href="#p" />
<use x="0" y="20" xlink:href="#p" />
<use x="24" y="20" xlink:href="#p" />
<use x="32" y="20" xlink:href="#p" />
<use x="40" y="20" xlink:href="#p" />
<use x="52" y="20" xlink:href="#p" />
<use x="56" y="20" xlink:href="#p" />
<use x="60" y="20" xlink:href="#p" />
<use x="88" y="20" xlink:href="#p" />
<use x="112" y="20" xlink:href="#p" />
<use x="0" y="24" xlink:href="#p" />
<use x="4" y="24" xlink:href="#p" />
<use x="8" y="24" xlink:href="#p" />
<use x="12" y="24" xlink:href="#p" />
<use x="16" y="24" xlink:href="#p" />
<use x="20" y="24" xlink:href="#p" />
<use x="24" y="24" xlink:href="#p" />
<use x="32" y="24" xlink:href="#p" />
<use x="40" y="24" xlink:href="#p" />
<use x="48" y="24" xlink:href="#p" />
<use x="56" y="24" xlink:href="#p" />
<use x="64" y="24" xlink:href="#p" />
<use x="72" y="24" xlink:href="#p" />
<use x="80" y="24" xlink:href="#p" />
<use x="88" y="24" xlink:href="#p" />
<use x="92" y="24" xlink:href="#p" />
<use x="96" y="24" xlink:href="#p" />
<use x="100" y="24" xlink:href="#p" />
<use x="104" y="24" xlink:href="#p" />
<use x="108" y="24" xlink:href="#p" />
<use x="112" y="24" xlink:href="#p" />
<use x="48" y="28" xlink:href="#p" />
<use x="52" y="28" xlink:href="#p" />
<use x="64" y="28" xlink:href="#p" />
<use x="72" y="28" xlink:href="#p" />
<use x="76" y="28" xlink:href="#p" />
<use x="0" y="32" xlink:href="#p" />
<use x="4" y="32" xlink:href="#p" />
<use x="8" y="32" xlink:href="#p" />
<use x="12" y="32" xlink:href="#p" />
<use x="16" y="32" xlink:href="#p" />
<use x="24" y="32" xlink:href="#p" />
<use x="28" y="32" xlink:href="#p" />
<use x="32" y="32" xlink:href="#p" />
<use x="36" y="32" xlink:href="#p" />
<use x="40" y="32" xlink:href="#p" />
<use x="48" y="32" xlink:href="#p" />
<use x="56" y="32" xlink:href="#p" />
<use x="60" y="32" xlink:href="#p" />
<use x="64" y="32" xlink:href="#p" />
<use x="68" y="32" xlink:href="#p" />
<use x="80" y="32" xlink:href="#p" />
<use x="84" y="32" xlink:href="#p" />
<use x="92" y="32" xlink:href="#p" />
<use x="100" y="32" xlink:href="#p" />
<use x="108" y="32" xlink:href="#p" />
<use x="0" y="36" xlink:href="#p" />
<use x="4" y="36" xlink:href="#p" />
<use x="28" y="36" xlink:href="#p" />
<use x="36" y="36" xlink:href="#p" />
<use x="60" y="36" xlink:href="#p" />
<use x="68" y="36" xlink:href="#p" />
<use x="72" y="36" xlink:href="#p" />
<use x="76" y="36" xlink:href="#p" />
<use x="80" y="36" xlink:href="#p" />
<use x="84" y="36" xlink:href="#p" />
<use x="88" y="36" xlink:href="#p" />
<use x="92" y="36" xlink:href="#p" />
<use x="96" y="36" xlink:href="#p" />
<use x="104" y="36" xlink:href="#p" />
<use x="108" y="36" xlink:href="#p" />
<use x="112" y="36" xlink:href="#p" />
<use x="4" y="40" xlink:href="#p" />
<use x="16" y="40" xlink:href="#p" />
<use x="20" y="40" xlink:href="#p" />
<use x="24" y="40" xlink:href="#p" />
<use x="36" y="40" xlink:href="#p" />
<use x="44" y="40" xlink:href="#p" />
<use x="48" y="40" xlink:href="#p" />
<use x="60" y="40" xlink:href="#p" />
<use x="68" y="40" xlink:href="#p" />
<use x="80" y="40" xlink:href="#p" />
<use x="84" y="40" xlink:href="#p" />
<use x="96" y="40" xlink:href="#p" />
<use x="100" y="40" xlink:href="#p" />
<use x="8" y="44" xlink:href="#p" />
<use x="20" y="44" xlink:href="#p" />
<use x="36" y="44" xlink:href="#p" />
<use x="40" y="44" xlink:href="#p" />
<use x="44" y="44" xlink:href="#p" />
<use x="56" y="44" xlink:href="#p" />
<use x="60" y="44" xlink:href="#p" />
<use x="92" y="44" xlink:href="#p" />
<use x="96" y="44" xlink:href="#p" />
<use x="100" y="44" xlink:href="#p" />
<use x="8" y="48" xlink:href="#p" />
<use x="20" y="48" xlink:href="#p" />
<use x="24" y="48" xlink:href="#p" />
<use x="28" y="48" xlink:href="#p" />
<use x="32" y="48" xlink:href="#p" />
<use x="36" y="48" xlink:href="#p" />
<use x="44" y="48" xlink:href="#p" />
<use x="60" y="48" xlink:href="#p" />
<use x="64" y="48" xlink:href="#p" />
<use x="68" y="48" xlink:href="#p" />
<use x="80" y="48" xlink:href="#p" />
<use x="84" y="48" xlink:href="#p" />
<use x="92" y="48" xlink:href="#p" />
<use x="104" y="48" xlink:href="#p" />
<use x="108" y="48" xlink:href="#p" />
<use x="4" y="52" xlink:href="#p" />
<use x="8" y="52" xlink:href="#p" />
<use x="12" y="52" xlink:href="#p" />
<use x="32" y="52" xlink:href="#p" />
<use x="40" y="52" xlink:href="#p" />
<use x="48" y="52" xlink:href="#p" />
<use x="52" y="52" xlink:href="#p" />
<use x="56" y="52" xlink:href="#p" />
<use x="60" y="52" xlink:href="#p" />
<use x="76" y="52" xlink:href="#p" />
<use x="80" y="52" xlink:href="#p" />
<use x="88" y="52" xlink:href="#p" />
<use x="92" y="52" xlink:href="#p" />
<use x="96" y="52" xlink:href="#p" />
<use x="100" y="52" xlink:href="#p" />
<use x="104" y="52" xlink:href="#p" />
<use x="108" y="52" xlink:href="#p" />
<use x="112" y="52" xlink:href="#p" />
<use x="0" y="56" xlink:href="#p" />
<use x="4" y="56" xlink:href="#p" />
<use x="8" y="56" xlink:href="#p" />
<use x="12" y="56" xlink:href="#p" />
<use x="16" y="56" xlink:href="#p" />
<use x="20" y="56" xlink:href="#p" />
<use x="24" y="56" xlink:href="#p" />
<use x="28" y="56" xlink:href="#p" />
<use x="32" y="56" xlink:href="#p" />
<use x="52" y="56" xlink:href="#p" />
<use x="56" y="56" xlink:href="#p" />
<use x="60" y="56" xlink:href="#p" />
<use x="68" y="56" xlink:href="#p" />
<use x="72" y="56" xlink:href="#p" />
<use x="84" y="56" xlink:href="#p" />
<use x="88" y="56" xlink:href="#p" />
<use x="92" y="56" xlink:href="#p" />
<use x="96" y="56" xlink:href="#p" />
<use x="104" y="56" xlink:href="#p" />
<use x="0" y="60" xlink:href="#p" />
<use x="8" y="60" xlink:href="#p" />
<use x="16" y="60" xlink:href="#p" />
<use x="32" y="60" xlink:href="#p" />
<use x="36" y="60" xlink:href="#p" />
<use x="40" y="60" xlink:href="#p" />
<use x="48" y="60" xlink:href="#p" />
<use x="52" y="60" xlink:href="#p" />
<use x="60" y="60" xlink:href="#p" />
<use x="64" y="60" xlink:href="#p" />
<use x="72" y="60" xlink:href="#p" />
<use x="80" y="60" xlink:href="#p" />
<use x="84" y="60" xlink:href="#p" />
<use x="88" y="60" xlink:href="#p" />
<use x="96" y="60" xlink:href="#p" />
<use x="100" y="60" xlink:href="#p" />
<use x="108" y="60" xlink:href="#p" />
<use x="8" y="64" xlink:href="#p" />
<use x="20" y="64" xlink:href="#p" />
<use x="24" y="64" xlink:href="#p" />
<use x="32" y="64" xlink:href="#p" />
<use x="36" y="64" xlink:href="#p" />
<use x="40" y="64" xlink:href="#p" />
<use x="48" y="64" xlink:href="#p" />
<use x="56" y="64" xlink:href="#p" />
<use x="60" y="64" xlink:href="#p" />
<use x="68" y="64" xlink:href="#p" />
<use x="100" y="64" xlink:href="#p" />
<use x="104" y="64" xlink:href="#p" />
<use x="112" y="64" xlink:href="#p" />
<use x="0" y="68" xlink:href="#p" />
<use x="4" y="68" xlink:href="#p" />
<use x="20" y="68" xlink:href="#p" />
<use x="64" y="68" xlink:href="#p" />
<use x="72" y="68" xlink:href="#p" />
<use x="76" y="68" xlink:href="#p" />
<use x="80" y="68" xlink:href="#p" />
<use x="84" y="68" xlink:href="#p" />
<use x="88" y="68" xlink:href="#p" />
<use x="92" y="68" xlink:href="#p" />
<use x="96" y="68" xlink:href="#p" />
<use x="100" y="68" xlink:href="#p" />
<use x="108" y="68" xlink:href="#p" />
<use x="112" y="68" xlink:href="#p" />
<use x="0" y="72" xlink:href="#p" />
<use x="8" y="72" xlink:href="#p" />
<use x="12" y="72" xlink:href="#p" />
<use x="24" y="72" xlink:href="#p" />
<use x="28" y="72" xlink:href="#p" />
<use x="40" y="72" xlink:href="#p" />
<use x="44" y="72" xlink:href="#p" />
<use x="48" y="72" xlink:href="#p" />
<use x="60" y="72" xlink:href="#p" />
<use x="64" y="72" xlink:href="#p" />
<use x="68" y="72" xlink:href="#p" />
<use x="72" y="72" xlink:href="#p" />
<use x="96" y="72" xlink:href="#p" />
<use x="0" y="76" xlink:href="#p" />
<use x="12" y="76" xlink:href="#p" />
<use x="20" y="76" xlink:href="#p" />
<use x="28" y="76" xlink:href="#p" />
<use x="32" y="76" xlink:href="#p" />
<use x="36" y="76" xlink:href="#p" />
<use x="44" y="76" xlink:href="#p" />
<use x="56" y="76" xlink:href="#p" />
<use x="76" y="76" xlink:href="#p" />
<use x="80" y="76" xlink:href="#p" />
<use x="84" y="76" xlink:href="#p" />
<use x="92" y="76" xlink:href="#p" />
<use x="96" y="76" xlink:href="#p" />
<use x="100" y="76" xlink:href="#p" />
<use x="108" y="76" xlink:href="#p" />
<use x="0" y="80" xlink:href="#p" />
<use x="8" y="80" xlink:href="#p" />
<use x="20" y="80" xlink:href="#p" />
<use x="24" y="80" xlink:href="#p" />
<use x="28" y="80" xlink:href="#p" />
<use x="32" y="80" xlink:href="#p" />
<use x="36" y="80" xlink:href="#p" />
<use x="40" y="80" xlink:href="#p" />
<use x="44" y="80" xlink:href="#p" />
<use x="60" y="80" xlink:href="#p" />
<use x="68" y="80" xlink:href="#p" />
<use x="80" y="80" xlink:href="#p" />
<use x="84" y="80" xlink:href="#p" />
<use x="88" y="80" xlink:href="#p" />
<use x="92" y="80" xlink:href="#p" />
<use x="96" y="80" xlink:href="#p" />
<use x="104" y="80" xlink:href="#p" />
<use x="108" y="80" xlink:href="#p" />
<use x="32" y="84" xlink:href="#p" />
<use x="48" y="84" xlink:href="#p" />
<use x="52" y="84" xlink:href="#p" />
<use x="56" y="84" xlink:href="#p" />
<use x="68" y="84" xlink:href="#p" />
<use x="72" y="84" xlink:href="#p" />
<use x="80" y="84" xlink:href="#p" />
<use x="96" y="84" xlink:href="#p" />
<use x="100" y="84" xlink:href="#p" />
<use x="112" y="84" xlink:href="#p" />
<use x="0" y="88" xlink:href="#p" />
<use x="4" y="88" xlink:href="#p" />
<use x="8" y="88" xlink:href="#p" />
<use x="12" y="88" xlink:href="#p" />
<use x="16" y="88" xlink:href="#p" />
<use x="20" y="88" xlink:href="#p" />
<use x="24" y="88" xlink:href="#p" />
<use x="32" y="88" xlink:href="#p" />
<use x="40" y="88" xlink:href="#p" />
<use x="52" y="88" xlink:href="#p" />
<use x="56" y="88" xlink:href="#p" />
<use x="60" y="88" xlink:href="#p" />
<use x="68" y="88" xlink:href="#p" />
<use x="76" y="88" xlink:href="#p" />
<use x="80" y="88" xlink:href="#p" />
<use x="88" y="88" xlink:href="#p" />
<use x="96" y="88" xlink:href="#p" />
<use x="100" y="88" xlink:href="#p" />
<use x="0" y="92" xlink:href="#p" />
<use x="24" y="92" xlink:href="#p" />
<use x="40" y="92" xlink:href="#p" />
<use x="48" y="92" xlink:href="#p" />
<use x="52" y="92" xlink:href="#p" />
<use x="76" y="92" xlink:href="#p" />
<use x="80" y="92" xlink:href="#p" />
<use x="96" y="92" xlink:href="#p" />
<use x="100" y="92" xlink:href="#p" />
<use x="0" y="96" xlink:href="#p" />
<use x="8" y="96" xlink:href="#p" />
<use x="12" y="96" xlink:href="#p" />
<use x="16" y="96" xlink:href="#p" />
<use x="24" y="96" xlink:href="#p" />
<use x="32" y="96" xlink:href="#p" />
<use x="36" y="96" xlink:href="#p" />
<use x="48" y="96" xlink:href="#p" />
<use x="56" y="96" xlink:href="#p" />
<use x="64" y="96" xlink:href="#p" />
<use x="68" y="96" xlink:href="#p" />
<use x="80" y="96" xlink:href="#p" />
<use x="84" y="96" xlink:href="#p" />
<use x="88" y="96" xlink:href="#p" />
<use x="92" y="96" xlink:href="#p" />
<use x="96" y="96" xlink:href="#p" />
<use x="100" y="96" xlink:href="#p" />
<use x="104" y="96" xlink:href="#p" />
<use x="108" y="96" xlink:href="#p" />
<use x="0" y="100" xlink:href="#p" />
<use x="8" y="100" xlink:href="#p" />
<use x="12" y="100" xlink:href="#p" />
<use x="16" y="100" xlink:href="#p" />
<use x="24" y="100" xlink:href="#p" />
<use x="32" y="100" xlink:href="#p" />
<use x="36" y="100" xlink:href="#p" />
<use x="72" y="100" xlink:href="#p" />
<use x="104" y="100" xlink:href="#p" />
<use x="108" y="100" xlink:href="#p" />
<use x="112" y="100" xlink:href="#p" />
<use x="0" y="104" xlink:href="#p" />
<use x="8" y="104" xlink:href="#p" />
<use x="12" y="104" xlink:href="#p" />
<use x="16" y="104" xlink:href="#p" />
<use x="24" y="104" xlink:href="#p" />
<use x="32" y="104" xlink:href="#p" />
<use x="44" y="104" xlink:href="#p" />
<use x="48" y="104" xlink:href="#p" />
<use x="60" y="104" xlink:href="#p" />
<use x="64" y="104" xlink:href="#p" />
<use x="80" y="104" xlink:href="#p" />
<use x="84" y="104" xlink:href="#p" />
<use x="88" y="104" xlink:href="#p" />
<use x="92" y="104" xlink:href="#p" />
<use x="96" y="104" xlink:href="#p" />
<use x="108" y="104" xlink:href="#p" />
<use x="0" y="108" xlink:href="#p" />
<use x="24" y="108" xlink:href="#p" />
<use x="32" y="108" xlink:href="#p" />
<use x="40" y="108" xlink:href="#p" />
<use x="44" y="108" xlink:href="#p" />
<use x="56" y="108" xlink:href="#p" />
<use x="60" y="108" xlink:href="#p" />
<use x="64" y="108" xlink:href="#p" />
<use x="72" y="108" xlink:href="#p" />
<use x="80" y="108" xlink:href="#p" />
<use x="96" y="108" xlink:href="#p" />
<use x="100" y="108" xlink:href="#p" />
<use x="108" y="108" xlink:href="#p" />
<use x="0" y="112" xlink:href="#p" />
<use x="4" y="112" xlink:href="#p" />
<use x="8" y="112" xlink:href="#p" />
<use x="12" y="112" xlink:href="#p" />
<use x="16" y="112" xlink:href="#p" />
<use x="20" y="112" xlink:href="#p" />
<use x="24" y="112" xlink:href="#p" />
<use x="32" y="112" xlink:href="#p" />
<use x="44" y="112" xlink:href="#p" />
<use x="60" y="112" xlink:href="#p" />
<use x="68" y="112" xlink:href="#p" />
<use x="76" y="112" xlink:href="#p" />
<use x="88" y="112" xlink:href="#p" />
<use x="92" y="112" xlink:href="#p" />
<use x="96" y="112" xlink:href="#p" />
<use x="100" y="112" xlink:href="#p" />
<use x="104" y="112" xlink:href="#p" />
</g>
</svg>