<svg xmlns="http://www.w3.org/2000/svg" width="187" height="240" x="0" y="0" id="svgcontent" overflow="hidden" viewBox="0 0 187 240"><defs><clipPath class="clippath" id="svg_3"><path d="M104.18109321594238,22.944369316101074 C103.86154365539551,22.95438051223755 103.55337715148926,22.980620861053467 103.23237800598145,23.011627197265625 C98.10358619689941,23.505353450775146 93.57644844055176,26.654699325561523 91.27707862854004,31.34676170349121 L90.0571460723877,34.89824676513672 C90.31997871398926,33.66751194000244 90.72482490539551,32.4739875793457 91.27707862854004,31.34676170349121 C87.17547798156738,27.236202239990234 81.4189624786377,25.33905029296875 75.73103523254395,26.228716373443604 C70.04308891296387,27.119324684143066 65.10319328308105,30.68989849090576 62.4034481048584,35.86423301696777 C54.78253746032715,31.32386016845703 45.282419204711914,31.599108695983887 37.9332332611084,36.581687927246094 S26.666824340820312,50.38546943664551 27.85717010498047,59.28684425354004 L28.636280059814453,62.90367317199707 C28.284202575683594,61.71874809265137 28.021373748779297,60.51280403137207 27.85717010498047,59.28684425354004 L27.73883056640625,59.62028694152832 C21.35018825531006,60.294328689575195 16.110475063323975,65.08847236633301 14.750003814697266,71.50594902038574 S16.21895980834961,84.50834083557129 21.76094627380371,87.8270435333252 L30.414409637451172,89.86059761047363 C27.39266872406006,90.10151100158691 24.375868797302246,89.39312934875488 21.76094627380371,87.8270435333252 C17.486233234405518,92.4594669342041 16.50248622894287,99.31723213195801 19.3225417137146,104.98099708557129 C22.142600059509277,110.64477729797363 28.164371490478516,113.90574073791504 34.37747001647949,113.16633796691895 L38.15413475036621,112.19941139221191 C36.93914604187012,112.69123268127441 35.677284240722656,113.01178169250488 34.37747001647949,113.16633796691895 C37.90413856506348,119.4474048614502 43.752824783325195,124.02879524230957 50.61779594421387,125.85249519348145 C57.48278999328613,127.67617988586426 64.77478981018066,126.59855079650879 70.85424613952637,122.86867713928223 C75.81437873840332,130.4353427886963 84.61725044250488,134.40993690490723 93.44526863098145,133.07090950012207 C102.27279090881348,131.73235511779785 109.5549259185791,125.3120059967041 112.14081764221191,116.60047340393066 L113.03826332092285,111.73287391662598 C112.90463447570801,113.3867130279541 112.61224555969238,115.01292610168457 112.14081764221191,116.60047340393066 C118.21238136291504,120.45250129699707 125.85054969787598,120.6695499420166 132.12333869934082,117.16718482971191 C138.39705085754395,113.66482734680176 142.31134223937988,106.98690223693848 142.3690357208252,99.71315956115723 L140.11949348449707,88.84548377990723 L131.25938606262207,81.49206733703613 C138.11009407043457,85.6436710357666 142.4291706085205,91.96906471252441 142.36851692199707,99.71315956115723 C150.51455879211426,99.79567909240723 157.4342975616455,93.04285621643066 160.53886604309082,85.29304695129395 C163.64343452453613,77.54273796081543 162.46936225891113,68.70722007751465 157.45697212219238,62.07079887390137 C159.53589057922363,57.12924385070801 159.41264533996582,51.5079288482666 157.11819648742676,46.667036056518555 C154.82332038879395,41.82519340515137 150.59149360656738,38.226959228515625 145.5007038116455,36.81447982788086 C144.36163520812988,30.397953987121582 139.66581916809082,25.23649501800537 133.46011543273926,23.54542875289917 C127.25444221496582,21.853407621383667 120.6468448638916,23.93945074081421 116.49198341369629,28.91296100616455 L113.96873664855957,33.03115653991699 C114.61322975158691,31.541399002075195 115.45597267150879,30.154190063476562 116.49198341369629,28.91296100616455 C113.56340217590332,25.004182815551758 108.96962928771973,22.797916412353516 104.18109321594238,22.944369316101074 L104.18109321594238,22.944369316101074 z" id="" opacity="1" stroke="#cc2fe4" shapeType="cloud" fill="#000" fill-opacity="0" stroke-width="4" stroke-dasharray="2,2" cursor="move"/></clipPath></defs><g style="pointer-events:all" mask=""><title style="pointer-events:inherit">Layer 1</title><g type="photobox" style="pointer-events:inherit" pathStr="M260.8091527986726,4.619752056518337 C259.88910920495255,4.648575519123142 259.0018270797591,4.724126312461522 258.077592709953,4.813400741927353 C243.31081196828927,6.23493505708052 230.276290051268,15.302518380097808 223.65596506116708,28.81188688399925 L220.14352879335092,39.03730741311119 C220.90028506774797,35.493783246838575 222.0659020221883,32.05739241399897 223.65596506116708,28.81188688399925 C211.84663335718142,16.97678189727685 195.27251160180094,11.514507803634388 178.89584575616755,14.07603094444221 C162.51913402612445,16.64026819857827 148.29620589784463,26.920650240100258 140.52309629321644,41.81857232497168 C118.58101097871531,28.7459502894244 91.22830489887474,29.538444594109933 70.06855641717902,43.88426800246634 S37.63035502803859,83.62806747031573 41.05759541814223,109.25686657498227 L43.30080391071215,119.6704286363929 C42.28710641309135,116.2587929662186 41.530369257198345,112.78664892812594 41.05759541814223,109.25686657498227 L40.716873086505075,110.21691839280174 C22.322715630723906,112.1576098743426 7.236553587560024,125.96088805549516 3.3194904324207073,144.4380588113636 S7.548903581236061,181.8745079770233 23.505369084116182,191.42970228033664 L48.420391336419925,197.28470197145361 C39.720202528584196,197.9783516553871 31.03424362330702,195.93876197877398 23.505369084116182,191.42970228033664 C11.197631362705124,204.7673660447108 8.365231680340571,224.51221236493438 16.484723649727584,240.81928640020487 C24.604224222441417,257.12642166326987 41.94209006544634,266.51536719755677 59.83081927726744,264.38650739655714 L70.70457551484924,261.60254080826417 C67.20638635624528,263.01858662565064 63.573239677607944,263.94150378610357 59.83081927726744,264.38650739655714 C69.98478677986805,282.47090185068373 86.8243039609597,295.66166482909466 106.58990818569873,300.91243803015095 C126.35556594224909,306.16318061731 147.350665867134,303.0604927447275 164.8546198903041,292.32144372773473 C179.13580592410108,314.10736449858814 204.48100790030549,325.55099236083333 229.898600180215,321.69569243821024 C255.31477004342378,317.841708913169 276.2814675187037,299.35627240504255 283.72673301601753,274.2740614753857 L286.3106676639254,260.25926422464545 C285.9259421833849,265.02101103099994 285.08408562379554,269.70319231839676 283.72673301601753,274.2740614753857 C301.2079895511888,285.36480294400826 323.19977532879784,285.9897244286112 341.26033783124876,275.90572097111726 C359.3236228086753,265.82174812752055 370.5936291610342,246.59468995846692 370.7597001345457,225.65216674995463 L364.2828403987769,194.36199320081505 L338.7728522125326,173.19006475324568 C358.49739753799076,185.14333746999182 370.93286789675767,203.35539187565882 370.7582012438288,225.65216674995463 C394.2122925690055,225.8897612065266 414.1355785676824,206.4470587452306 423.07422865273475,184.1338289011619 C432.0129093273936,161.819175510871 428.63251309589396,136.37997592535976 414.20082619827735,117.27241145075459 C420.18644744378616,103.04470985157604 419.8316080087643,86.85983884066081 413.2254460064578,72.92196666024029 C406.6180298302861,58.9813468825414 394.43382249904244,48.62132470068718 379.7764148953029,44.55452484216221 C376.4967808275069,26.080084463254934 362.97666420261885,11.2192319812184 345.10918329619017,6.350319792507207 C327.2418553377938,1.478659049833368 308.2172919771292,7.484785679760762 296.25461457592246,21.804495912103448 L288.989674808734,33.6615912438956 C290.8453015162595,29.372285753406686 293.2717302804667,25.378239821700845 296.25461457592246,21.804495912103448 C287.82265073239614,10.550358507004603 274.59628609841457,4.198084367587171 260.8091527986726,4.619752056518337 L260.8091527986726,4.619752056518337 z" lockTransform="null" lockEdit="null" id="svg_1" display="null"><g clip-path="url(#svg_3)"><image xmlns:xlink="http://www.w3.org/1999/xlink" x="13.597081184387207" y="21.33984112739563" width="162.08227276802063" height="121.56170457601547" preserveAspectRatio="none" id="svg_5" xlink:href="http://192.168.0.222/work/jan_langius/print_commerce/source/designnbuy/assets/images/uploadedImage/o_1b1c1noj4bpf11fiku020q3top.jpg" style="pointer-events:inherit" origWidth="1024" origHeight="768" image_id="422" colors=""/></g><path d="M104.18109321594238,22.944369316101074 C103.86154365539551,22.95438051223755 103.55337715148926,22.980620861053467 103.23237800598145,23.011627197265625 C98.10358619689941,23.505353450775146 93.57644844055176,26.654699325561523 91.27707862854004,31.34676170349121 L90.0571460723877,34.89824676513672 C90.31997871398926,33.66751194000244 90.72482490539551,32.4739875793457 91.27707862854004,31.34676170349121 C87.17547798156738,27.236202239990234 81.4189624786377,25.33905029296875 75.73103523254395,26.228716373443604 C70.04308891296387,27.119324684143066 65.10319328308105,30.68989849090576 62.4034481048584,35.86423301696777 C54.78253746032715,31.32386016845703 45.282419204711914,31.599108695983887 37.9332332611084,36.581687927246094 S26.666824340820312,50.38546943664551 27.85717010498047,59.28684425354004 L28.636280059814453,62.90367317199707 C28.284202575683594,61.71874809265137 28.021373748779297,60.51280403137207 27.85717010498047,59.28684425354004 L27.73883056640625,59.62028694152832 C21.35018825531006,60.294328689575195 16.110475063323975,65.08847236633301 14.750003814697266,71.50594902038574 S16.21895980834961,84.50834083557129 21.76094627380371,87.8270435333252 L30.414409637451172,89.86059761047363 C27.39266872406006,90.10151100158691 24.375868797302246,89.39312934875488 21.76094627380371,87.8270435333252 C17.486233234405518,92.4594669342041 16.50248622894287,99.31723213195801 19.3225417137146,104.98099708557129 C22.142600059509277,110.64477729797363 28.164371490478516,113.90574073791504 34.37747001647949,113.16633796691895 L38.15413475036621,112.19941139221191 C36.93914604187012,112.69123268127441 35.677284240722656,113.01178169250488 34.37747001647949,113.16633796691895 C37.90413856506348,119.4474048614502 43.752824783325195,124.02879524230957 50.61779594421387,125.85249519348145 C57.48278999328613,127.67617988586426 64.77478981018066,126.59855079650879 70.85424613952637,122.86867713928223 C75.81437873840332,130.4353427886963 84.61725044250488,134.40993690490723 93.44526863098145,133.07090950012207 C102.27279090881348,131.73235511779785 109.5549259185791,125.3120059967041 112.14081764221191,116.60047340393066 L113.03826332092285,111.73287391662598 C112.90463447570801,113.3867130279541 112.61224555969238,115.01292610168457 112.14081764221191,116.60047340393066 C118.21238136291504,120.45250129699707 125.85054969787598,120.6695499420166 132.12333869934082,117.16718482971191 C138.39705085754395,113.66482734680176 142.31134223937988,106.98690223693848 142.3690357208252,99.71315956115723 L140.11949348449707,88.84548377990723 L131.25938606262207,81.49206733703613 C138.11009407043457,85.6436710357666 142.4291706085205,91.96906471252441 142.36851692199707,99.71315956115723 C150.51455879211426,99.79567909240723 157.4342975616455,93.04285621643066 160.53886604309082,85.29304695129395 C163.64343452453613,77.54273796081543 162.46936225891113,68.70722007751465 157.45697212219238,62.07079887390137 C159.53589057922363,57.12924385070801 159.41264533996582,51.5079288482666 157.11819648742676,46.667036056518555 C154.82332038879395,41.82519340515137 150.59149360656738,38.226959228515625 145.5007038116455,36.81447982788086 C144.36163520812988,30.397953987121582 139.66581916809082,25.23649501800537 133.46011543273926,23.54542875289917 C127.25444221496582,21.853407621383667 120.6468448638916,23.93945074081421 116.49198341369629,28.91296100616455 L113.96873664855957,33.03115653991699 C114.61322975158691,31.541399002075195 115.45597267150879,30.154190063476562 116.49198341369629,28.91296100616455 C113.56340217590332,25.004182815551758 108.96962928771973,22.797916412353516 104.18109321594238,22.944369316101074 L104.18109321594238,22.944369316101074 z" id="svg_4" opacity="1" stroke="#cc2fe4" shapeType="cloud" fill="#000" fill-opacity="0" stroke-width="4" stroke-dasharray="2,2" cursor="move"/></g></g></svg>