<svg xmlns="http://www.w3.org/2000/svg" width="190" height="247" x="0" y="0" id="svgcontent" overflow="hidden" viewBox="0 0 190 247"><g style="pointer-events:all" mask="url(#canvasMaskImageDef)"><title style="pointer-events:inherit">Layer 1</title><g id="svg_4" display="null" clip-id="918" stroke="null" stroke-opacity="1" transform=""><path fill-rule="evenodd" d="M102.01464665461481,63.888944806029215 C104.36484479346731,66.3505267429316 106.09230624322274,68.15798201128652 107.81875511299592,69.96746243960595 C108.06177430874112,69.92088376042145 108.3047935044863,69.8732925012547 108.5478127002315,69.82671382207019 C108.28757964478771,68.66224684245779 107.8876105517904,67.50689308268585 107.80255383327957,66.33027514328617 C107.70028325507013,64.90354994826541 107.2912009422324,62.88041514368666 108.0344346492198,62.143256916592904 C109.47432338401009,60.715519141589866 110.96889143784304,62.09465307744385 111.85287376236619,63.46669895342194 C114.69214803265592,67.87445961625045 118.13795771232634,72.07565396269555 119.97984070007848,76.8813585585568 C121.4440313544433,80.70081025168548 123.71119793474952,82.15386252624529 127.11042893523549,82.66015251738114 C130.86507550949875,83.22010924757734 134.5387156851803,84.11522995190549 137.1937003986966,86.83704494425169 C140.87847895418312,90.61295569814268 143.82812444254046,95.05919440029751 145.21333385828805,100.19601265036161 C146.34134795853868,104.37898055712583 144.38099311286078,108.53055848443958 141.21668066826186,110.48585043020614 C136.72183812695798,113.26234474159503 136.20238459605264,117.481765527721 135.08348371564244,121.59182767576164 C134.39189158775093,124.12834053135214 134.61870950377977,126.89977194282966 134.23291653053425,129.53653021666506 C133.21021074843992,136.54662143393168 132.16421562675328,143.55671265119832 130.93899384820457,150.5344013090323 C130.53902475520727,152.80764336923215 129.64694179082596,155.01304257061983 128.82168910527454,157.1890769525216 C126.9949948172565,162.00895766813468 127.9265684009464,166.78225970456324 129.19229337878596,171.4563289027292 C129.6459292108437,173.13113619340652 131.0554405461658,174.5953268477713 132.18750496634553,176.02914010266798 C134.0212873142395,178.35301116198144 133.85319903718238,180.29615214796073 131.13543436476527,180.96546751624228 C128.1199711775603,181.709713803212 124.51012354076187,182.66356414651185 121.89260428658963,181.64288352438203 C119.35102853108779,180.65258030172038 117.65191932083593,177.34448149963887 115.73611799437799,174.93352856185007 C112.20525159619675,170.48728985969524 111.71820062472406,164.8583577382471 110.0565568738163,159.6911620887149 C109.31433574681117,157.38045456917095 107.97570501024802,157.21135371213157 106.29077191974801,158.4821415898825 C103.37454157080566,160.68146531137654 100.62842465888494,163.109632108864 97.66966595068715,165.2451632914749 C95.58780150713662,166.74783198516602 93.27000592771682,167.92444992456566 91.32078946184387,169.08790432419582 C92.88117521452449,171.78642997694973 94.60154860440403,174.01613109791194 95.5098328485017,176.53846783375064 C96.42925547240438,179.09016938907521 95.3032665321183,180.35690694689703 92.52474706076487,180.58878776283726 C88.58479834974585,180.91787625707553 84.85040337512802,180.5249952239541 80.96715914311623,179.11345872866747 C77.2854183275765,177.7748279921043 73.05688432161007,177.91051370972872 69.0622562915484,177.47004141744054 C66.13083724287196,177.1470284030959 63.15992757488695,177.10956294375183 60.25686076571411,176.64175099194233 C56.315899474712836,176.00686334305803 52.992611972897265,174.31484219268208 50.67279123351291,170.7637241948554 C49.84652596797925,169.49799921701583 48.01780651999664,168.9299418469614 46.795622481394744,167.87179576548755 C44.08494586885354,165.52463536658183 43.65864969631717,162.42816578079515 45.05601007185204,159.1534821181286 C46.000747195311504,156.93795711691826 46.81081118112883,154.577633178243 47.14901289520756,152.20718343974505 C48.57776325019286,142.1907422551139 51.426150740323024,132.57224500351546 57.35885685645263,124.40680002647684 C60.36925714374625,120.26433531900352 64.93194254386233,117.07977127475917 69.22021876878279,114.07139614743008 C76.51281980110323,108.95685465697596 85.08532193101505,106.6876629167052 93.5596038026465,104.364804437374 C95.5452731478812,103.82003640691187 97.6433388711481,103.62663363029799 99.7039391350709,103.41500441400319 C103.96487570047,102.98060760160865 105.55260111267197,101.68146748435413 106.51455209583003,97.49343667767857 C107.54333335781803,93.01783315603788 107.85520799235769,88.87334328859998 105.05744950134113,84.52329968476096 C102.27184197011181,80.19148252060285 100.23756878572806,75.20452610791494 100.68917945782121,69.74874516343527 C100.82790291539243,68.06988755282887 101.42329994496814,66.43052056153107 102.01464665461481,63.888944806029215 z" id="svg_5" stroke="null" transform=""/></g></g><defs><mask id="canvasMaskImageDef" maskUnits="objectBoundingBox" x="0" y="0"><image id="canvasMaskImage" preserveAspectRatio="none" style="pointer-events:none" x="-105" y="-78" width="400" height="344.82758620689657" xmlns:xlink="http://www.w3.org/1999/xlink" xlink:href="http://192.168.0.222/work/jan_langius/print_commerce/source/designnbuy/uploads/productimage/582ee43d3d161.png"/></mask></defs></svg>