<svg xmlns="http://www.w3.org/2000/svg" width="187" height="239" x="0" y="0" id="svgcontent" overflow="hidden" viewBox="0 0 187 239"><defs/><g style="pointer-events:all" mask=""><title style="pointer-events:inherit">Layer 1</title><g id="svg_1" type="text" text="Embroidery @##@#@Printing@##@#@Method" font-size="10.27700454399084" font-family="Brush-Script" font-id="1" fill="000000" text-anchor="start" font-weight="normal" font-style="normal" lineHeight="1" shapeId="0" shapeVal="0" fill-opacity="1" display="null" elemBBoxWidth="170.75389099121094" xscale="3.6524896468708214" yscale="NaN" elemBBoxHeight="179.4765625"><path id="svg_2" fill="#FC0F5C" d="M18.71203234629911,50.11445518948949 C14.7708372427021,50.11445518948949 11.129909967896879,49.17668147596123 11.129909967896879,42.43658823968735 C12.59378095087743,32.17990174370175 19.425177140038613,30.30439133138475 25.393259819628383,26.846453214260464 C22.352919105999717,26.43619506098412 19.31257839237105,26.143152012123892 17.022924391727656,24.502074452549095 C14.282861895379142,22.567953844114072 15.521523955687371,16.706985788555926 16.947853019422155,14.303998152681515 C20.889048123019165,7.622512468615696 28.621295585602184,4.750614841764957 36.5412256343443,6.098651335412001 C38.793312783369856,6.508909488688346 37.930012778833316,8.794680037214164 38.230294112659976,11.49075236353076 C38.08015552344432,14.362607026844557 36.05325340356785,14.128172852147372 34.73952100980296,15.24173220756029 C33.463318069097795,16.296726313324598 32.44989194153163,17.703371020157192 30.873395200813775,18.17223804759658 C29.935027979367078,16.4139427396957 32.44989194153163,15.007299354818088 33.125509359909074,13.542089398336884 C27.75798519257728,13.600698272499926 23.7792481697345,15.24173220756029 20.438640666162883,18.523888648664865 C19.38764768697888,19.52023157770668 19.012299136242063,21.219916689489537 20.100819490788126,22.274910795253845 C23.141160204416792,23.68151319952699 27.908111315606902,23.271255046250644 31.88684833844968,23.271255046250644 C32.78770065072035,23.271255046250644 33.613483668383196,23.447080346784787 33.688552962991025,24.560682004757155 C33.388246696792294,28.604748522161344 31.699178218476618,28.721963626577462 28.771436252515514,29.718305233664296 C23.141160204416792,31.65242584209932 18.148986665519487,33.58654645053434 15.521523955687371,39.50612338025553 C14.357918723800935,42.0849349947091 17.43582940559395,42.96405885346985 19.500246434646442,42.96405885346985 C25.693566085827115,42.96405885346985 30.347905983163628,38.09947867342294 34.589378265191954,34.46567295320506 C35.26502477133681,44.31209865200435 29.70981801784592,46.71508496592378 25.130522482745164,48.88363578319104 C23.10363282905473,49.880024980657254 20.926575498381226,50.11445518948949 18.71203234629911,50.11445518948949 C18.71203234629911,50.11445518948949 18.71203234629911,50.11445518948949 18.71203234629911,50.11445518948949 M58.199004889830576,39.916381533531876 C60.22589454352101,39.623341128581615 61.31441697576474,38.09947867342294 63.266235257149674,36.22396826110594 C63.19116388484417,36.98591931801002 63.19116388484417,37.80643562456271 63.19116388484417,38.685562127233425 C60.67630200037729,41.32302624036447 58.01130983748544,45.07400476243902 54.48301767005705,46.07039395990523 C52.45610308399455,45.89456865937109 52.08076699944377,41.79189458975884 53.24435664859766,39.03725503086116 C53.69476410545394,37.98226092509685 54.370423077784835,35.98953276445377 55.458941354633225,33.293503401674116 C52.38103171168905,36.69283396659034 50.1664760934209,41.55745909310667 47.01350754435725,44.83957455360678 C45.32442659985554,46.59786986150766 43.78550086615087,43.84323294651995 44.61125687374397,40.912725784528675 C45.474569344466545,37.92365337288879 46.71323036592594,35.286234206227164 47.83929263971777,32.70741994786363 C47.98943122893343,32.35572704423589 47.95189138738533,31.828251142633462 47.68915405050211,31.769643590425403 C44.8364917676372,34.23123745655289 42.32162988317032,40.502464987342364 40.21964392480231,43.84323294651995 C39.65662525409243,44.72235416137073 39.43142775875731,45.13261495855704 38.718241411064355,45.13261495855704 C36.27844674350763,45.13261495855704 36.24091936814557,37.396177471286364 37.21684305272174,33.93819705160263 C38.192766737297916,30.480258934478343 40.10704517713475,25.73284891237813 42.95971577079035,25.615633807962013 C44.648813336873445,25.557023611843988 44.7989519260891,27.25671136753681 43.78550086615087,28.956396479319665 C42.35915725853238,31.300775241031033 40.44485388632347,33.293503401674116 39.91937505716169,36.92731176580196 C39.91937505716169,37.16174461854416 40.03197380482925,37.63061296793853 40.14457255249681,37.63061296793853 C42.99724730154776,34.289847652670915 46.22528306752156,27.901402373555356 49.41576237036588,24.736507305291298 C50.954704725651936,23.21264485013262 53.20681680704956,22.685171592440156 53.20681680704956,26.143152012123892 C53.20681680704956,30.187173583058666 50.842105977984374,32.82463769618971 49.71604370419254,35.75509991171157 C49.71604370419254,35.75509991171157 58.424214851351735,25.205373010775702 58.424214851351735,25.205373010775702 C59.09983226972918,24.44346425643107 59.550277125143566,24.09181629927275 59.73794724511663,24.09181629927275 C60.638770469619885,25.146765458567643 61.87743149107928,27.901402373555356 60.56370325270973,30.128566030850607 C60.56370325270973,30.128566030850607 59.06230073897177,32.70741994786363 59.06230073897177,32.70741994786363 C58.199004889830576,34.23123745655289 56.92281233761378,35.98953276445377 56.88527249606568,38.39252172228316 C56.88527249606568,39.38890563192945 57.48583100832366,40.03359928185796 58.199004889830576,39.916381533531876 C58.199004889830576,39.916381533531876 58.199004889830576,39.916381533531876 58.199004889830576,39.916381533531876 M78.0175479900181,36.22396826110594 C78.0175479900181,36.22396826110594 77.9800164592607,38.685562127233425 77.9800164592607,38.685562127233425 C76.29093967015433,40.67829028787651 74.37663214255008,42.0849349947091 71.56150139044257,41.20581113594835 C69.87241629054552,43.60879744986778 68.33349055684084,45.95317356766918 65.96876726158962,45.95317356766918 C63.75421164332147,45.95317356766918 63.19116388484417,42.78823355293571 63.19116388484417,38.744169679441484 C63.19116388484417,24.795114857499357 68.97156813367019,16.765593340763985 74.22648939793908,10.025500104490106 C75.50269441634191,8.384421222960327 77.15423136390018,6.098651335412001 78.84334139616931,6.098651335412001 C80.49488665451827,6.098651335412001 79.81922768218737,9.908282356164023 79.29375300842094,11.49075236353076 C76.14081354712471,20.86826608842125 70.77327275821153,27.49114422027901 66.19396475692474,34.75871335815532 C65.5934187108528,37.51339521961245 66.38167227545591,41.8505021419669 68.48361667987047,40.385249882926246 C69.19680718295876,39.85777398132382 69.7973532290307,38.80282217811896 70.24777315207302,37.68922052014659 C68.93403660291278,34.70014810850671 70.69820138590603,31.183560136614915 71.78674043973115,29.425264828714035 C72.72509519499181,27.901402373555356 73.47580891804682,26.67062791372632 75.01475127333288,26.67062791372632 C75.72790853325841,26.67062791372632 76.10326539478592,27.608361968605095 76.0657421748192,28.78057117878552 C75.9155994302082,32.472944792561975 74.6393694794333,35.286234206227164 73.28813464267841,38.33391152616514 C73.55087197956163,38.744169679441484 73.85115746878364,38.97860517609365 74.45170351485558,38.92003992644504 C75.95310602859354,38.568347022817306 76.59121684858565,37.63061296793853 78.0175479900181,36.22396826110594 C78.0175479900181,36.22396826110594 78.0175479900181,36.22396826110594 78.0175479900181,36.22396826110594 M67.39509840302208,28.78057117878552 C70.99848687512804,23.74012075173505 74.6393694794333,17.820587446528293 76.89149402701696,10.846016411042797 C73.02537237342312,16.179509886953497 69.94748766285102,21.39574199002368 67.39509840302208,28.78057117878552 C67.39509840302208,28.78057117878552 67.39509840302208,28.78057117878552 67.39509840302208,28.78057117878552 M92.656274441405,36.22396826110594 C92.656274441405,36.22396826110594 92.61873459985691,38.744169679441484 92.61873459985691,38.744169679441484 C92.61873459985691,38.744169679441484 89.2405560892721,43.022711352147326 89.2405560892721,43.022711352147326 C88.15203365702837,44.1948782597683 86.91337679096432,45.77734826713504 85.26183153261536,45.77734826713504 C82.59682690353748,45.77734826713504 82.22149497438204,40.15081438627408 83.61029458505709,37.04452687021808 C84.47360290038432,35.11040890569302 85.29936306337277,33.176288297258 86.312814123311,31.476600541565176 C86.312814123311,31.476600541565176 82.10888376052844,32.82463769618971 82.10888376052844,32.82463769618971 C82.10888376052844,32.82463769618971 80.23213269605367,35.81370746391963 80.23213269605367,35.81370746391963 C79.59403018685225,36.868701569683935 78.73073018231571,37.865045820680734 77.9800164592607,38.80282217811896 C78.0175479900181,37.92365337288879 77.94249323929398,36.98591931801002 78.0550878315662,36.22396826110594 C78.80580155462121,35.22762401010914 79.51895881454675,34.348455204878974 80.15707794532955,33.176288297258 C78.73073018231571,33.11768074504994 79.25622147766353,30.128566030850607 79.70662477912447,28.956396479319665 C80.64501277754789,26.43619506098412 81.88368626519332,23.91594605226919 83.87303192194031,23.0954297457165 C84.66127717575273,23.15403729792456 84.77388838960633,24.67789975308324 84.3610083081121,25.674241360170072 C84.3610083081121,25.674241360170072 89.5033183585274,24.619289556965214 89.5033183585274,24.619289556965214 C90.59183247998044,24.619289556965214 91.53021216761317,27.49114422027901 90.92964118916916,29.24943952817989 C89.84112706771612,32.531594647329484 86.95092494330311,33.87958949939457 86.72569420480522,38.39252172228316 C87.10106768791411,41.96771989029298 90.29154699075843,38.744169679441484 91.15486361687636,37.80643562456271 C91.15486361687636,37.80643562456271 92.656274441405,36.22396826110594 92.656274441405,36.22396826110594 M107.63279298039924,36.22396826110594 C107.63279298039924,36.22396826110594 107.55772991888443,38.744169679441484 107.55772991888443,38.744169679441484 C105.9061597281634,40.502464987342364 104.66752779447143,41.90910969417496 102.11513437924714,41.440243988690554 C100.50112065165558,43.7260125542839 99.26245547480084,45.718743358836946 96.59746746730434,45.718743358836946 C91.64280675988539,45.718743358836946 91.83048934604449,33.11768074504994 94.8708342150685,29.24943952817989 C97.04787907955597,26.494802613192178 99.30000362713963,23.857338500061132 102.94088623144489,23.564295451200906 C103.91681407141641,23.505687898992846 104.93026513135464,24.267638955896928 104.96780497290274,25.615633807962013 C104.96780497290274,26.494802613192178 104.51736011748835,26.846453214260464 104.10448003599413,27.19810381532875 C105.11793109593236,27.784187269139238 105.41820827436368,28.370270722949726 105.41820827436368,30.480258934478343 C105.41820827436368,33.52793889832628 104.55492489140852,35.637882163385484 103.6165285821944,38.21669642174902 C105.53081117742659,38.45112927449122 106.3190647420297,37.45478766740439 107.63279298039924,36.22396826110594 C107.63279298039924,36.22396826110594 107.63279298039924,36.22396826110594 107.63279298039924,36.22396826110594 M99.78793845935797,39.213080331395304 C98.73695586866233,35.520667058969366 100.01314426548379,33.000462996723854 101.06413516697012,29.77691542978232 C98.77448739941974,32.12129419149369 95.39633382120701,33.820979303276545 95.39633382120701,39.44751582804747 C95.39633382120701,42.84684374905373 99.07478951022313,40.67829028787651 99.78793845935797,39.213080331395304 C99.78793845935797,39.213080331395304 99.78793845935797,39.213080331395304 99.78793845935797,39.213080331395304 M118.48046915049781,36.22396826110594 C118.48046915049781,36.22396826110594 118.44291268736833,38.744169679441484 118.44291268736833,38.744169679441484 C118.44291268736833,38.744169679441484 115.02719433523544,42.90545394517176 115.02719433523544,42.90545394517176 C113.86360884147689,44.13627335147021 112.5874536878182,45.66013316271892 110.89834365554907,45.77734826713504 C107.85800709731575,45.95317356766918 107.06975353271264,39.56473093246359 107.97060168958797,35.11040890569302 C108.83392662649658,30.83190953554663 111.46139141402637,25.088157906359584 114.80199683990031,25.088157906359584 C116.26586782288086,25.088157906359584 116.56615331210287,27.080886067002666 115.66531346601823,28.839181374903546 C114.31405369689128,31.417992989357117 112.43731925399788,34.11402235213677 110.93587518630648,36.39979356164008 C110.18518639562353,38.50973682669928 111.19863745556177,40.85411558841065 112.85018271391073,40.61968273566845 C115.25241676294263,40.2094245823921 116.26586782288086,38.568347022817306 118.48046915049781,36.22396826110594 C118.48046915049781,36.22396826110594 118.48046915049781,36.22396826110594 118.48046915049781,36.22396826110594 M118.36785793664421,16.882809767135086 C119.04347535502166,16.882809767135086 119.60650649191757,17.7619362698058 119.60650649191757,18.81693037557011 C119.49392021043604,21.454352186141705 118.33032640588681,23.798730947853073 116.71632098908594,23.974598550946666 C115.77792467987183,24.09181629927275 115.06475079836491,22.8609968929743 115.13980554908903,21.33713443781562 C115.25241676294263,18.93414680194121 116.71632098908594,17.05863506766923 118.36785793664421,16.882809767135086 C118.36785793664421,16.882809767135086 118.36785793664421,16.882809767135086 118.36785793664421,16.882809767135086 M131.6552830649507,41.08859338762227 C133.71971671558458,40.32663968680822 134.8457789893764,38.568347022817306 137.248021349199,36.22396826110594 C137.1729582876842,36.98591931801002 137.1729582876842,37.80643562456271 137.1729582876842,38.685562127233425 C134.6581130247987,41.32302624036447 133.00654283407766,45.48430786218478 129.177985954404,45.89456865937109 C126.85078172372414,46.128998868203325 126.96339293757774,40.56107518346039 127.52642407447365,37.45478766740439 C125.49952195459718,39.916381533531876 123.99811944085923,43.7260125542839 121.1079339380276,44.780964357488756 C119.53141849803069,44.487923952538495 118.44291268736833,41.32302624036447 118.44291268736833,38.744169679441484 C118.44291268736833,30.069955834732582 123.43508830396331,27.080886067002666 127.71411497142344,24.736507305291298 C129.177985954404,23.91594605226919 129.85360337278144,24.619289556965214 130.56677725428835,25.9672844090303 C132.40598847721503,21.10270158507342 133.9073826801623,15.35894863393139 136.42226118621056,11.60796878990186 C137.47321884453413,10.084107656698166 139.19986871835135,10.728799984671696 139.01217782140156,12.955962320011963 C138.59929773990734,17.703371020157192 135.25866738166133,22.8609968929743 133.71971671558458,26.78784301814244 C132.44353662955382,30.011348282524523 130.41660957730528,33.703764198860426 130.41660957730528,37.865045820680734 C130.41660957730528,39.681948680789674 130.67938846814195,40.971375639296184 131.6552830649507,41.08859338762227 C131.6552830649507,41.08859338762227 131.6552830649507,41.08859338762227 131.6552830649507,41.08859338762227 M122.08382853483636,39.50612338025553 C124.93651575007334,37.278962366870246 127.78917803293825,33.762371751068486 129.2530490159188,29.24943952817989 C126.96339293757774,30.538866486686402 124.67373685923667,31.711036038217344 122.9095886978248,33.87958949939457 C121.93368579022535,34.99319115736694 121.48326586718304,36.45840111384814 121.48326586718304,38.27530397395708 C121.48326586718304,38.92003992644504 121.70846336251816,39.50612338025553 122.08382853483636,39.50612338025553 C122.08382853483636,39.50612338025553 122.08382853483636,39.50612338025553 122.08382853483636,39.50612338025553 M150.72314568524598,36.22396826110594 C150.72314568524598,36.22396826110594 150.64808262373117,38.685562127233425 150.64808262373117,38.685562127233425 C147.9830613730719,41.674676841432756 145.6559070071362,46.07039395990523 141.45196002277225,46.07039395990523 C138.5242512999739,46.07039395990523 137.32307609992313,43.37436195321561 137.1729582876842,38.744169679441484 C136.9102126400103,30.597476682804427 142.4278629303717,23.271255046250644 147.45758669930547,23.271255046250644 C148.7713232484657,23.271255046250644 149.78477430840394,24.09181629927275 149.78477430840394,25.9672844090303 C149.78477430840394,32.76603014398165 144.41723351949076,34.6414982537392 140.85140566590962,36.810051714916426 C140.47604049359143,39.50612338025553 141.45196002277225,41.20581113594835 143.1410617442507,41.14720093983033 C146.33152442551363,41.08859338762227 148.6211805038547,38.27530397395708 150.72314568524598,36.22396826110594 C150.72314568524598,36.22396826110594 150.72314568524598,36.22396826110594 150.72314568524598,36.22396826110594 M146.66934144549305,27.373929115862893 C146.63182653631702,26.260369760449976 145.7685182209898,26.72923546593438 145.24302692564197,27.080886067002666 C143.47886214264872,28.370270722949726 142.05253100121627,31.06634238828883 141.22677083822782,33.93819705160263 C143.10349697033053,32.82463769618971 144.94274143641996,31.007734836080772 146.1438667717266,29.01500667543769 C146.48166717012464,28.370270722949726 146.66934144549305,27.842794821347297 146.66934144549305,27.373929115862893 C146.66934144549305,27.373929115862893 146.66934144549305,27.373929115862893 146.66934144549305,27.373929115862893 M165.32435722745686,36.22396826110594 C165.32435722745686,36.22396826110594 165.2867758319553,38.744169679441484 165.2867758319553,38.744169679441484 C165.2867758319553,38.744169679441484 161.90863887532396,43.022711352147326 161.90863887532396,43.022711352147326 C160.82010813228953,44.1948782597683 159.58145126622549,45.77734826713504 157.92991431866722,45.77734826713504 C155.26489306800795,45.77734826713504 154.8895611388525,40.15081438627408 156.27837737110895,37.04452687021808 C157.14165244327341,35.11040890569302 157.96744584942462,33.176288297258 158.9808636662001,31.476600541565176 C158.9808636662001,31.476600541565176 154.77691668183616,32.82463769618971 154.77691668183616,32.82463769618971 C154.77691668183616,32.82463769618971 152.90019054973345,35.81370746391963 152.90019054973345,35.81370746391963 C152.26208804053203,36.868701569683935 151.3987797252048,37.865045820680734 150.64808262373117,38.80282217811896 C150.68561415448858,37.92365337288879 150.61053447139238,36.98591931801002 150.72314568524598,36.22396826110594 C151.47384278671962,35.22762401010914 152.1870416005986,34.348455204878974 152.82512748821864,33.176288297258 C151.3987797252048,33.11768074504994 151.92425439897124,30.128566030850607 152.37468263280425,28.956396479319665 C153.31307063122767,26.43619506098412 154.55172749729172,23.91594605226919 156.54109808641078,23.0954297457165 C157.32932671864182,23.15403729792456 157.44197117565818,24.67789975308324 157.02904122941982,25.674241360170072 C157.02904122941982,25.674241360170072 162.1713595906258,24.619289556965214 162.1713595906258,24.619289556965214 C163.25987371207884,24.619289556965214 164.19826171050227,27.49114422027901 163.59770735363963,29.24943952817989 C162.5091932321866,32.531594647329484 159.6189827969829,33.87958949939457 159.3937603692757,38.39252172228316 C159.7691255415939,41.96771989029298 162.95958822285684,38.744169679441484 163.82292978134683,37.80643562456271 C163.82292978134683,37.80643562456271 165.32435722745686,36.22396826110594 165.32435722745686,36.22396826110594 M179.55012048944263,24.619289556965214 C180.56357154938087,23.62290564731893 180.90140519094166,26.025934263797808 180.97648487403785,27.373929115862893 C179.96303381409962,32.531594647329484 177.74844079727336,36.16535806498791 175.98432587902425,40.32663968680822 C175.98432587902425,40.32663968680822 173.169161883754,46.94952046257595 173.169161883754,46.94952046257595 C175.9467611051041,43.0812792457059 178.9120346018226,39.74055623299773 181.8773080985411,36.22396826110594 C181.83980981094646,37.04452687021808 181.8022450370263,37.865045820680734 181.83980981094646,38.685562127233425 C177.8235537235323,43.550187253749755 174.370303840642,48.942245979309064 171.2548875993125,55.21347351009854 C170.72939630396468,56.268467615862846 170.01621411166707,57.55784962789994 169.26551701019343,57.85089532067013 C167.7640895640834,56.97176881799942 167.9893119917906,52.92770230059523 168.9652481425528,51.22801718881237 C168.9652481425528,51.22801718881237 174.220161096031,37.45478766740439 174.220161096031,37.45478766740439 C174.220161096031,37.45478766740439 171.0671967023627,41.38163379257253 171.0671967023627,41.38163379257253 C170.12882532552067,42.43658823968735 168.89015183787524,44.077663155352184 167.9142323086944,44.487923952538495 C165.2492443011979,43.60879744986778 164.76130115818887,37.04452687021808 166.07502108576773,33.05907054893191 C167.38875763492797,29.07361422764575 169.64086556093025,25.205373010775702 172.30585356842676,23.388470150666762 C173.58207520841097,23.857338500061132 174.40783537139941,25.908674212912274 173.35685278070378,27.96001256967338 C171.93050501768994,30.83190953554663 170.01621411166707,33.4107211500002 168.176986267159,35.69649235950351 C167.80165433800357,36.63426871694173 167.53890037953897,37.68922052014659 167.46383731802416,39.095865226979186 C170.42911081474267,38.39252172228316 171.93050501768994,35.87231766003765 173.73221795302197,33.176288297258 C173.73221795302197,33.176288297258 179.55012048944263,24.619289556965214 179.55012048944263,24.619289556965214 "/><path id="svg_3" fill="#E0B0FF" d="M15.596594289144036,103.59471510376716 C14.4329890572576,102.71558331327651 13.306966259721548,100.13673468408342 14.395460643046704,98.02678877511426 C15.483982036441603,95.91684286614509 17.811177956330766,95.21354166400852 19.913124438442992,94.21720005692168 C19.913124438442992,94.21720005692168 25.84369428655441,82.02639559641102 25.84369428655441,82.02639559641102 C21.71483114068201,82.61247640631154 17.62349744786934,83.84329581261 14.24532101498221,85.6602013166289 C13.719844263518098,85.95324172157916 12.743920578941925,86.24628212652942 12.556252536666534,85.36716091167864 C13.044187368884877,82.49526130189543 14.583128685322094,79.7992292952058 15.559052369898268,77.74789358235466 C17.96130407936039,75.110477059603 23.81679008898027,73.82104745718652 28.283488954111135,73.82104745718652 C34.138958342149635,73.82104745718652 39.99444642946719,75.75516806562155 39.73169247100259,85.48437601609476 C39.31881654490371,100.60563740430734 28.771436252515514,106.23213162651882 18.224055960127316,104.53248881729542 C18.224055960127316,104.53248881729542 16.647573763293167,108.40068773160601 16.647573763293167,108.40068773160601 C18.48679537470821,110.10037284338887 15.671650078716993,113.26531285812234 14.996033699188388,115.08221836214125 C14.508059390714266,115.78551956427782 13.945040720004386,116.72325097524663 13.269397330406036,116.84047136748268 C10.416724659052761,115.66829917204177 13.15679962158731,109.69011204620256 13.945040720004386,107.69738652946944 C13.945040720004386,107.69738652946944 15.596594289144036,103.59471510376716 15.596594289144036,103.59471510376716 M35.49023473285797,83.37443010712559 C33.35071932143023,82.26082580524326 30.68571469235235,81.967785400293 27.98318061021473,81.79196009975885 C27.94565323485267,83.08134211179595 27.83305448718511,83.72608070819388 27.45770385875062,84.48798681862854 C27.45770385875062,84.48798681862854 23.25377141827039,93.39663615998961 23.25377141827039,93.39663615998961 C23.25377141827039,93.39663615998961 25.543400486541714,93.16220595115738 25.543400486541714,93.16220595115738 C26.294114209596728,93.10359575503935 26.25657229035096,94.27581025303971 25.618496791219286,94.51024046187194 C25.618496791219286,94.51024046187194 22.39044855905945,95.79962247390904 22.39044855905945,95.79962247390904 C22.39044855905945,95.79962247390904 21.564690473768678,97.67513817404597 21.564690473768678,97.67513817404597 C28.733908877153453,98.84734209640646 34.96471850513808,95.50658206895878 36.87903434353302,87.18401882531816 C37.329441800389304,85.13268311246702 36.841494501984926,84.13633621756026 35.49023473285797,83.37443010712559 C35.49023473285797,83.37443010712559 35.49023473285797,83.37443010712559 35.49023473285797,83.37443010712559 M52.71884042087777,104.94274961448173 C52.71884042087777,104.94274961448173 52.68131304551571,107.4629563206372 52.68131304551571,107.4629563206372 C52.68131304551571,107.4629563206372 49.30316362269832,111.7414477590537 49.30316362269832,111.7414477590537 C48.214641190454586,112.91366225705406 46.97598016899519,114.49608467404141 45.32442659985554,114.49608467404141 C42.65943859235904,114.49608467404141 42.284085886226876,108.8696010274698 43.67288965229727,105.76326063321449 C44.53618550143847,103.8291453125994 45.36197059679898,101.8950299919843 46.37542165673722,100.1953871827609 C46.37542165673722,100.1953871827609 42.171487138559314,101.54337939091602 42.171487138559314,101.54337939091602 C42.171487138559314,101.54337939091602 40.29471114171247,104.53248881729542 40.29471114171247,104.53248881729542 C39.65662525409243,105.58744062050027 38.793312783369856,106.58382453014656 38.04262814808226,107.52155594111537 C38.08015552344432,106.64243472626458 38.00508415113882,105.70466101273632 38.117695364992414,104.94274961448173 C38.86838415567536,103.94636570483544 39.58156634797297,103.0672339143448 40.21964392480231,101.8950299919843 C38.793312783369856,101.83641979586628 39.31881654490371,98.84734209640646 39.76923646794603,97.67513817404597 C40.70761615557876,95.15493146789049 41.946277177038155,92.63472476173501 43.93563945536653,91.81421374300226 C44.7238805537836,91.87282393912028 44.8364917676372,93.39663615998961 44.42357428758487,94.3930200696359 C44.42357428758487,94.3930200696359 49.56590095958154,93.33802596387159 49.56590095958154,93.33802596387159 C50.654423391825276,93.33802596387159 51.59281970103939,96.2099255736548 50.992232101014,97.96817857899623 C49.90370966877026,101.25032841032589 47.01350754435725,102.59837349668032 46.788297582836094,107.11130571956892 C47.163650288968256,110.68645365328939 50.354158679579996,107.4629563206372 51.217442062535156,106.52517203146908 C51.217442062535156,106.52517203146908 52.71884042087777,104.94274961448173 52.71884042087777,104.94274961448173 M63.604043966338395,104.94274961448173 C63.604043966338395,104.94274961448173 63.566499969394954,107.4629563206372 63.566499969394954,107.4629563206372 C63.566499969394954,107.4629563206372 60.15082317121551,111.62423794245751 60.15082317121551,111.62423794245751 C58.987233522061615,112.85500975837658 57.71102850365878,114.37887485744523 56.021960025343105,114.49608467404141 C52.98161931171444,114.67191526239549 52.19336574711133,108.28346733936996 53.094218059382,103.8291453125994 C53.95751806391854,99.55064329854304 56.584978696052985,93.80693925973537 59.92561320969435,93.80693925973537 C61.3894841926749,93.80693925973537 61.68976552650156,95.79962247390904 60.78891321423089,97.55791778180992 C59.43763682352255,100.13673468408342 57.56088991444312,102.83280370551256 56.059487400705166,105.11856962719594 C55.3087778330455,107.2285155361651 56.32222889298373,109.57290222960637 57.973765840542,109.33846144513427 C60.376033132736666,108.92820064794796 61.3894841926749,107.28712573228313 63.604043966338395,104.94274961448173 C63.604043966338395,104.94274961448173 63.604043966338395,104.94274961448173 63.604043966338395,104.94274961448173 M63.49144521867083,85.60159112051088 C64.16708756942035,85.60159112051088 64.73010624013023,86.48071762318159 64.73010624013023,87.5357117289459 C64.61749502627663,90.17312825169756 63.45390122172739,92.51751494513883 61.83989164953118,92.69333495785304 C60.90151196189845,92.81055535008909 60.18835054657757,91.5797306559707 60.26342191888307,90.05591843510138 C60.376033132736666,87.65293212118195 61.83989164953118,85.77741642104502 63.49144521867083,85.60159112051088 C63.49144521867083,85.60159112051088 63.49144521867083,85.60159112051088 63.49144521867083,85.60159112051088 M71.41135864583157,95.85823267002706 C70.77327275821153,99.66786369077909 67.39509840302208,101.60197901139418 66.71948098464463,105.35301041166804 C67.0197623184713,106.87686493509682 67.84554325843646,105.29440021555001 68.22087934298725,104.64970920953147 C70.36036774434524,100.89868838489747 73.85115746878364,96.67879656695914 76.62875669013374,93.80693925973537 C77.60466790852388,92.81055535008909 78.2803019484827,92.34168435678475 78.693206962349,92.34168435678475 C79.63156171760966,92.86916554620711 79.55649034530416,95.38936167672273 79.93186382841304,96.85461657967335 C78.88087292692671,100.48842758771116 75.39008320248831,102.30533309173006 75.39008320248831,107.11130571956892 C75.39008320248831,108.16625752277378 75.76543175322513,108.75238063523375 76.47862225631343,108.63511794043825 C78.39289654075492,108.34207753548799 79.36881606993575,106.81826531461866 81.17049576210502,104.94274961448173 C81.17049576210502,105.76326063321449 81.05788454825142,106.64243472626458 81.13295592055692,107.4629563206372 C78.65563387763814,110.10037284338887 76.74135959319665,114.67191526239549 73.06290390418053,114.67191526239549 C70.58560679363381,114.67191526239549 70.92341550282254,108.98681084406599 72.01193793506627,106.34935201875487 C72.01193793506627,106.34935201875487 74.30156077024458,100.89868838489747 74.30156077024458,100.89868838489747 C71.48643001813707,104.06357552143163 69.19680718295876,109.27985124901625 66.71948098464463,112.73778936614053 C64.61749502627663,115.66829917204177 63.22869126020623,111.38979715798541 63.566499969394954,106.64243472626458 C63.94187760789919,101.25032841032589 65.96876726158962,97.08904678850558 68.5211606768139,94.92050125905826 C69.57215573369558,94.51024046187194 71.33629558431676,94.3930200696359 71.41135864583157,95.85823267002706 C71.41135864583157,95.85823267002706 71.41135864583157,95.85823267002706 71.41135864583157,95.85823267002706 M93.70725703210064,104.94274961448173 C93.63216072742307,105.70466101273632 93.63216072742307,106.52517203146908 93.63216072742307,107.40434612451918 C90.74195860301006,110.51063364057518 88.60247020165207,115.78551956427782 84.2859369358066,115.78551956427782 C80.56994971603308,115.78551956427782 82.29656634668754,107.63877633335142 83.572754743509,104.47387862117739 C83.572754743509,104.47387862117739 81.09543270059021,107.4629563206372 81.09543270059021,107.4629563206372 C81.13295592055692,106.64243472626458 81.05788454825142,105.6460508166183 81.17049576210502,104.94274961448173 C81.17049576210502,104.94274961448173 83.00973191740377,102.71558331327651 83.00973191740377,102.71558331327651 C84.39853152807882,100.95728800537563 85.37443443567827,99.19899269747475 86.3503539648591,96.85461657967335 C84.96155435418405,96.7373961874373 84.06073112968079,96.79600638355532 82.78453442206865,97.26487737685966 C84.3610083081121,93.57246674834369 85.26183153261536,89.76287803015111 89.5033183585274,90.05591843510138 C90.81705490768763,87.5357117289459 91.07979224457085,84.89824761581485 93.55709766590826,84.89824761581485 C96.03441970882704,84.89824761581485 93.85739146592095,88.4734431399147 93.33189185978244,89.76287803015111 C94.15767695514296,89.82147765062928 94.83331930589247,89.93869804286533 95.58399978578473,90.1145286312194 C94.645620098152,92.28307416066673 94.12012880280417,95.5651922650768 92.5436632275514,96.62018637084111 C91.98061546907411,96.9718369719094 90.96718934150795,97.08904678850558 89.5033183585274,97.08904678850558 C87.92682785090255,100.42981739159313 86.01254525567037,103.8291453125994 86.01254525567037,107.87320654218365 C86.01254525567037,113.20670266200432 90.17895239848622,108.75238063523375 91.38006942300217,107.4629563206372 C91.38006942300217,107.4629563206372 93.70725703210064,104.94274961448173 93.70725703210064,104.94274961448173 M104.55492489140852,104.94274961448173 C104.55492489140852,104.94274961448173 104.51736011748835,107.4629563206372 104.51736011748835,107.4629563206372 C104.51736011748835,107.4629563206372 101.10166669772752,111.62423794245751 101.10166669772752,111.62423794245751 C99.93807289317829,112.85500975837658 98.66188449635683,114.37887485744523 96.97280770725047,114.49608467404141 C93.93246283822646,114.67191526239549 93.14422589520473,108.28346733936996 94.04507405208005,103.8291453125994 C94.90839067819797,99.55064329854304 97.535822222565,93.80693925973537 100.8764692023924,93.80693925973537 C102.34034018537295,93.80693925973537 102.64060905301358,95.79962247390904 101.73978582851032,97.55791778180992 C100.38852605938337,100.13673468408342 98.51175006253652,102.83280370551256 97.01034754879856,105.11856962719594 C96.25961720416217,107.2285155361651 97.27308488568178,109.57290222960637 98.92462183324005,109.33846144513427 C101.32688081464403,108.92820064794796 102.34034018537295,107.28712573228313 104.55492489140852,104.94274961448173 C104.55492489140852,104.94274961448173 104.55492489140852,104.94274961448173 104.55492489140852,104.94274961448173 M104.44228874518285,85.60159112051088 C105.11793109593236,85.60159112051088 105.68095392203759,86.48071762318159 105.68095392203759,87.5357117289459 C105.56835101897468,90.17312825169756 104.4047904575882,92.51751494513883 102.79075179762458,92.69333495785304 C101.85239704236392,92.81055535008909 101.13920653927562,91.5797306559707 101.21427791158112,90.05591843510138 C101.32688081464403,87.65293212118195 102.79075179762458,85.77741642104502 104.44228874518285,85.60159112051088 C104.44228874518285,85.60159112051088 104.44228874518285,85.60159112051088 104.44228874518285,85.60159112051088 M112.36220632773893,95.85823267002706 C111.72412875090959,99.66786369077909 108.34595855111547,101.60197901139418 107.67032451115665,105.35301041166804 C107.97060168958797,106.87686493509682 108.79638678494848,105.29440021555001 109.1717353356853,104.64970920953147 C111.31122373704329,100.89868838489747 114.80199683990031,96.67879656695914 117.5796043720411,93.80693925973537 C118.55552390122193,92.81055535008909 119.23116625197144,92.34168435678475 119.64406295504705,92.34168435678475 C120.58240108872633,92.86916554620711 120.50734633800221,95.38936167672273 120.8827115103204,96.85461657967335 C119.83172891962477,100.48842758771116 116.34093088439568,102.30533309173006 116.34093088439568,107.11130571956892 C116.34093088439568,108.16625752277378 116.71632098908594,108.75238063523375 117.4294616274301,108.63511794043825 C119.34375253345297,108.34207753548799 120.31968037342449,106.81826531461866 122.12138499796583,104.94274961448173 C122.12138499796583,105.76326063321449 122.00874885174017,106.64243472626458 122.08382853483636,107.4629563206372 C119.60650649191757,110.10037284338887 117.6922155858947,114.67191526239549 114.0137432752972,114.67191526239549 C111.53642123237842,114.67191526239549 111.87427149552059,108.98681084406599 112.96279392776432,106.34935201875487 C112.96279392776432,106.34935201875487 115.25241676294263,100.89868838489747 115.25241676294263,100.89868838489747 C112.43731925399788,104.06357552143163 110.14763824328475,109.27985124901625 107.67032451115665,112.73778936614053 C105.56835101897468,115.66829917204177 104.17955140829963,111.38979715798541 104.51736011748835,106.64243472626458 C104.89273360059724,101.25032841032589 106.91961078810164,97.08904678850558 109.47200420332592,94.92050125905826 C110.52299510481225,94.51024046187194 112.28715157701481,94.3930200696359 112.36220632773893,95.85823267002706 C112.36220632773893,95.85823267002706 112.36220632773893,95.85823267002706 112.36220632773893,95.85823267002706 M138.89958322912935,104.94274961448173 C138.89958322912935,105.76326063321449 138.78697201527575,106.64243472626458 138.86205169837194,107.40434612451918 C138.86205169837194,107.40434612451918 131.2423946726658,115.25803837485546 131.2423946726658,115.25803837485546 C128.99027012508213,120.06401100269431 127.18861536528493,125.86637811581932 123.54769951781691,128.32797462585677 C122.79700241634328,128.85544523963927 121.67094014255144,128.97266563187532 121.78355135640504,127.21437032397444 C122.12138499796583,122.93586830991808 124.33592815004795,120.47427179988063 125.98746509760622,117.95406509372515 C127.03847262067393,116.37160037417834 128.4272639205583,114.73052545851351 129.47823820046324,113.5583532630726 C129.47823820046324,113.5583532630726 132.10570298799303,105.47022022826422 132.10570298799303,105.47022022826422 C130.00374611739244,108.40068773160601 128.12697843133628,112.97223015061263 124.63620532847926,112.97223015061263 C123.0221999116784,112.97223015061263 122.04627207170688,110.1589830395069 122.04627207170688,107.4629563206372 C122.04627207170688,98.61291188757423 127.41381286062006,95.38936167672273 131.467617100373,92.69333495785304 C132.74382211877582,91.87282393912028 135.44634165702973,91.93142355959844 134.808247458619,94.3930200696359 C132.55612291103535,98.49569149533818 127.86425771603444,99.90229389961132 125.5370451745639,103.59471510376716 C124.82387960384767,104.70831940564949 124.63620532847926,106.05631161380461 124.74881654233286,108.10764732665575 C127.97684399751597,108.75238063523375 129.66593740820372,104.82552922224568 131.467617100373,102.24668059305259 C132.74382211877582,100.42981739159313 133.49451922024946,98.02678877511426 134.7707242386523,96.38575616200887 C135.89678651244412,94.92050125905826 137.28557781232848,97.96817857899623 136.6474586815457,99.90229389961132 C136.6474586815457,99.90229389961132 133.19424204181814,110.10037284338887 133.19424204181814,110.10037284338887 C133.19424204181814,110.10037284338887 138.89958322912935,104.94274961448173 138.89958322912935,104.94274961448173 "/><path id="svg_4" fill="#7FFF00" d="M43.93563945536653,184.26960896173478 C40.06950118019131,187.55167418794554 37.21684305272174,181.98383246441153 38.53057544648664,175.53673204270854 C39.99444642946719,168.21056328435407 43.18491326612548,163.05294005544692 45.812378053655266,157.42636122811655 C45.812378053655266,157.42636122811655 41.345706198594144,163.2287177656017 41.345706198594144,163.2287177656017 C40.14457255249681,164.8111824851485 39.056050120253076,166.45222567389374 38.04262814808226,167.9174700012045 C34.73952100980296,172.8406630212794 31.88684833844968,179.2877634429824 28.583768210240123,183.9765156785852 C27.04482585495407,185.14867729838625 26.369183504204557,180.9874379791254 26.406710879566617,178.52580974216835 C26.444252798812386,176.8847665534231 27.04482585495407,175.595384541386 27.645373978723683,174.42313831646607 C30.94845202923557,167.62447189881368 34.476767051338356,161.11881415919197 36.91656171889508,152.9134713077874 C36.61628454046377,151.44821640483678 35.82804344204669,152.62037802463783 35.30255214669887,153.38233172545188 C35.30255214669887,153.38233172545188 32.03698692766534,158.2469568519682 32.03698692766534,158.2469568519682 C28.320989319403452,164.4595318840802 24.117083888992966,172.02015200254664 21.076716165294556,179.46363633389592 C20.213430704641723,181.57353994030564 17.96130407936039,185.61755886733044 16.572504468685338,181.98383246441153 C16.047000707151483,180.69436584725554 15.709191997962762,179.0533226585103 15.333842408377109,177.17777523145378 C15.333842408377109,177.17777523145378 16.872783724814326,174.42313831646607 16.872783724814326,174.42313831646607 C20.438640666162883,167.2728212977454 24.642573106643113,160.88438395035973 26.33164158495879,150.97934541153245 C26.25657229035096,149.10378740883607 24.905312521224005,150.51048499386798 24.304766475152064,150.92069291285497 C24.304766475152064,150.92069291285497 15.146174366101718,158.30552474552678 15.146174366101718,158.30552474552678 C14.320390309590039,158.8916055554273 13.68230234427233,159.1260463398994 13.194328035798208,159.1260463398994 C11.430189224025867,159.1260463398994 12.59378095087743,154.61315641957026 12.81899091239859,152.6790305233153 C13.306966259721548,148.2832763901033 15.559052369898268,147.16967208822098 17.62349744786934,145.1769888740473 C18.336654707794878,145.29420926628336 17.88623478475256,146.34915049384836 17.54842607556384,146.87667398583017 C17.54842607556384,146.87667398583017 16.08456859761816,149.10378740883607 16.08456859761816,149.10378740883607 C16.08456859761816,149.10378740883607 26.406710879566617,142.30513156682355 26.406710879566617,142.30513156682355 C28.621295585602184,141.07431744834503 28.921576919428844,144.3564672796747 29.747359937091687,146.40780299252583 C31.36137158698557,150.39326460163193 28.396085624081024,154.8475866284025 27.72044327333151,158.77439573883112 C31.3238296677398,153.49955211768793 34.476767051338356,147.16967208822098 39.09361904956859,143.77034416721472 C41.5709161601153,141.9534386631958 43.22245726306892,146.93524187938874 41.946277177038155,150.97934541153245 C40.48241866024364,155.60945572409764 38.5681028218487,159.82934754203598 36.841494501984926,163.99067146641573 C36.841494501984926,163.99067146641573 44.08576557839615,153.9098552174337 44.08576557839615,153.9098552174337 C44.08576557839615,153.9098552174337 51.02977194256209,145.05976848181126 51.02977194256209,145.05976848181126 C51.55527570409595,144.47368767191074 52.08076699944377,143.88756455945077 52.68131304551571,143.77034416721472 C53.88244669161304,144.29781478099721 54.74575916233562,146.8180214871527 55.08356787152434,148.81078930644526 C54.107669119320235,152.9134713077874 51.55527570409595,155.90253843160735 49.8661822934082,159.18469883857688 C49.8661822934082,159.18469883857688 47.20117766433032,164.40087938540273 47.20117766433032,164.40087938540273 C45.28689922449348,168.38634099450883 43.52276352926765,171.08241001593797 43.52276352926765,176.94333444698168 C43.52276352926765,179.63940346841082 45.06168926297232,179.75662386064687 46.488032870590814,178.4085893499323 C49.07795366117716,175.94704571809416 51.442676956428386,172.60623281244716 53.58216535778638,169.4413774028326 C53.88244669161304,171.72715390015583 53.80737531930754,172.31323471005635 52.68131304551571,174.24735003067144 C50.46675742724756,177.9983814309453 47.05103907511466,181.6321924389831 43.93563945536653,184.26960896173478 C43.93563945536653,184.26960896173478 43.93563945536653,184.26960896173478 43.93563945536653,184.26960896173478 M67.92061463074197,173.66126922077092 C67.92061463074197,173.66126922077092 67.84554325843646,176.12281285260906 67.84554325843646,176.12281285260906 C65.18053862935858,179.11189055206887 62.85335517565545,183.50765526092073 58.649424812872894,183.50765526092073 C55.72168284691179,183.50765526092073 54.52054920081446,180.8115862394916 54.370423077784835,176.18146535128653 C54.107669119320235,168.03469039344054 59.62534849744907,160.7085110594462 64.65503486782472,160.7085110594462 C65.96876726158962,160.7085110594462 66.98221832152785,161.52903265381883 66.98221832152785,163.40458008087535 C66.98221832152785,170.20324649852773 61.61469415419606,172.0788045012241 58.0488372128475,174.24735003067144 C57.67350112829672,176.94333444698168 58.649424812872894,178.6430301344044 60.33849329118857,178.58446224084582 C63.52897259403289,178.52580974216835 65.81862867237396,175.71260493362206 67.92061463074197,173.66126922077092 C67.92061463074197,173.66126922077092 67.92061463074197,173.66126922077092 67.92061463074197,173.66126922077092 M63.866806235593685,164.8111824851485 C63.829278860231625,163.69757818326616 62.96595392332301,164.1664491765705 62.440479249556574,164.51818438275768 C60.67630200037729,165.80757697043464 59.249970858944835,168.50356138674488 58.424214851351735,171.37550329908754 C60.300961760431164,170.2618989972052 62.14017298335784,168.4449934931863 63.341306629455175,166.45222567389374 C63.67911118324855,165.80757697043464 63.866806235593685,165.28005347845283 63.866806235593685,164.8111824851485 C63.866806235593685,164.8111824851485 63.866806235593685,164.8111824851485 63.866806235593685,164.8111824851485 M80.45733850217948,173.66126922077092 C80.38227544066467,174.42313831646607 80.38227544066467,175.2436599108387 80.38227544066467,176.12281285260906 C77.49207331625166,179.22911094430492 75.35255167173091,184.50402859492715 71.03601009509475,184.50402859492715 C67.32002703071657,184.50402859492715 69.04663950597569,176.35725363708116 70.32283621358783,173.19239822746658 C70.32283621358783,173.19239822746658 67.84554325843646,176.18146535128653 67.84554325843646,176.18146535128653 C67.88307063379852,175.36096490819364 67.80800341688837,174.3645704229075 67.92061463074197,173.66126922077092 C67.92061463074197,173.66126922077092 69.7598216982733,171.43406061700625 69.7598216982733,171.43406061700625 C71.14862130894835,169.67580761166482 72.12454914891987,167.9174700012045 73.1004686781007,165.57313618596254 C71.71164413505358,165.45592636936635 70.81081259975963,165.51448368728506 69.53461589214749,165.9833546805894 C71.11108146740025,162.29098635463288 72.01193793506627,158.4813976364403 76.25340813939692,158.77439573883112 C77.56713637776647,156.25418903267564 77.82988202544038,153.61677250992398 80.30720406835917,153.61677250992398 C82.78453442206865,153.61677250992398 80.60748124679048,157.19192044364445 80.08200657302405,158.4813976364403 C80.9077584252218,158.53995495435902 81.58340077597131,158.65717534659507 82.33408956665426,158.8330482375086 C81.39570987902152,161.00159376695592 80.8702185836737,164.28366956880654 79.29375300842094,165.3387059771303 C78.73073018231571,165.6903565781986 77.71727912237748,165.80757697043464 76.25340813939692,165.80757697043464 C74.67694256414416,169.14829469532287 72.76261841495852,172.5476649188886 72.76261841495852,176.59169442155326 C72.76261841495852,181.92517996573406 76.92902555777437,177.47084736332363 78.1301592038717,176.18146535128653 C78.1301592038717,176.18146535128653 80.45733850217948,173.66126922077092 80.45733850217948,173.66126922077092 M91.30499805069667,165.45592636936635 C93.10667774286594,163.58036836666997 95.02098527047019,163.75623068194363 95.39633382120701,166.80387627496202 C94.94588896579262,170.6721069161922 91.71787813219089,172.37180260361492 91.22993498918186,176.18146535128653 C91.22993498918186,177.1192073378952 91.49267232606508,177.5294998620011 92.0932266829277,177.5294998620011 C94.19520017510968,177.5294998620011 94.98342880734072,175.65395243494459 97.01034754879856,173.66126922077092 C97.01034754879856,173.66126922077092 96.97280770725047,176.12281285260906 96.97280770725047,176.12281285260906 C93.74479687364874,179.81527635932434 92.13078314605718,182.33549364111968 88.90274738008338,183.39043486868468 C86.2002112202481,182.86292195234273 87.73915357553415,176.76754616118706 88.67754157395757,174.83344141621183 C88.67754157395757,174.83344141621183 91.22993498918186,169.49994529639116 91.22993498918186,169.49994529639116 C87.88929632014515,173.07509323011163 85.03662572648955,177.64672025423715 82.22149497438204,182.10105285664758 C82.03381238822294,182.39404038339853 81.84614642364522,182.39404038339853 81.69600367903422,182.39404038339853 C80.30720406835917,181.86661207217549 80.38227544066467,179.58075096973334 80.38227544066467,176.18146535128653 C80.38227544066467,167.39004168998144 84.4360796804176,162.40819617122906 87.10106768791411,157.0161427334897 C88.79015278781117,153.61677250992398 91.15486361687636,150.10018189412222 93.03161468135113,147.75584807888026 C94.38288276126877,145.99749989278007 95.3588106012403,145.11833637536984 95.92180849497345,145.11833637536984 C96.59746746730434,145.11833637536984 97.31061641643919,145.70450179038926 97.31061641643919,146.75945359359412 C97.31061641643919,147.75584807888026 96.67253883960984,149.5726584021404 95.43386535196441,152.09294971341478 C91.83048934604449,159.30190865517307 87.1386075294622,166.68674048784487 82.93466054509827,173.30961861970263 C82.93466054509827,173.30961861970263 82.89713732513155,175.53673204270854 82.89713732513155,175.53673204270854 C85.59964024180408,172.1960143178203 88.41479592628366,168.4449934931863 91.30499805069667,165.45592636936635 C91.30499805069667,165.45592636936635 91.30499805069667,165.45592636936635 91.30499805069667,165.45592636936635 M111.9868660877928,173.66126922077092 C111.9868660877928,173.66126922077092 111.9117947154873,176.18146535128653 111.9117947154873,176.18146535128653 C110.26025776792903,177.93972893226783 109.02160090186499,179.34633133654097 106.4692074866407,178.87744976759677 C104.85519375904914,181.16322626492 103.6165285821944,183.15599408421258 100.9515405746979,183.15599408421258 C95.99687986727895,183.15599408421258 96.18456245343805,170.55489709959602 99.22493225483413,166.68674048784487 C101.40194387615884,163.93201896773826 103.65407673453319,161.29459186934673 107.29495933883845,161.00159376695592 C108.27088717880997,160.94294126827845 109.2843382387482,161.7048949690925 109.3218780802963,163.05294005544692 C109.3218780802963,163.93201896773826 108.87145815725398,164.28366956880654 108.45857807575976,164.63532016987483 C109.47200420332592,165.22148558489425 109.77228138175724,165.80757697043464 109.77228138175724,167.9174700012045 C109.77228138175724,170.96520019934178 108.90899799880208,173.07509323011163 107.97060168958797,175.65395243494459 C109.88488428482015,175.88839321941668 110.67313784942326,174.89199873413054 111.9868660877928,173.66126922077092 C111.9868660877928,173.66126922077092 111.9868660877928,173.66126922077092 111.9868660877928,173.66126922077092 M104.14201156675153,176.65034692023073 C103.09105390842797,172.95788341351545 104.36721737287735,170.43767670735997 105.41820827436368,167.21416879906792 C103.1285605068133,169.55859779506864 99.75040692860057,171.2582829068515 99.75040692860057,176.8847665534231 C99.75040692860057,180.28413677698882 103.42886261761669,178.11560182318135 104.14201156675153,176.65034692023073 C104.14201156675153,176.65034692023073 104.14201156675153,176.65034692023073 104.14201156675153,176.65034692023073 M125.12418171465106,178.52580974216835 C127.18861536528493,177.7639406464732 128.3146527067047,176.00561361165273 130.71691999889936,173.66126922077092 C130.64185693738455,174.42313831646607 130.64185693738455,175.2436599108387 130.64185693738455,176.12281285260906 C128.12697843133628,178.76025052664045 126.47544148377801,182.9215744510202 122.64685967173227,183.3317823700072 C120.31968037342449,183.5662231544793 120.43225834411533,177.9983814309453 120.995322724174,174.89199873413054 C118.96838736113477,177.3536481223673 117.4669931581875,181.16322626492 114.57679934456519,182.21827324888363 C113.00031714773104,181.92517996573406 111.9117947154873,178.76025052664045 111.9117947154873,176.18146535128653 C111.9117947154873,167.5072620822175 116.90398695366366,164.51818438275768 121.18296375637965,162.17376596239683 C122.64685967173227,161.3532443680242 123.32250202248179,162.05654557016078 124.03565097161663,163.40458008087535 C125.87487881612469,158.53995495435902 127.37628132986265,152.79625091555135 129.89113490353884,149.04523009091736 C130.94211749423448,147.52132268928926 132.66873412488894,148.16605599786726 132.48106816031122,150.39326460163193 C132.0681797680263,155.1405847307933 128.72756603136168,160.29820795970045 127.18861536528493,164.22510167524797 C125.9124103468821,167.44860958354002 123.88550822700563,171.14106251461544 123.88550822700563,175.30231240951616 C123.88550822700563,177.1192073378952 124.14826218547023,178.4085893499323 125.12418171465106,178.52580974216835 C125.12418171465106,178.52580974216835 125.12418171465106,178.52580974216835 125.12418171465106,178.52580974216835 M115.55270225216464,176.94333444698168 C118.40538946740162,174.71622102397578 121.25804343947584,171.19963040817402 122.7219144224564,166.68674048784487 C120.43225834411533,167.97612249988197 118.14261057656495,169.14829469532287 116.37847903673446,171.31685080041007 C115.40255950755363,172.43044452665254 114.95213958451131,173.89569942960316 114.95213958451131,175.71260493362206 C114.95213958451131,176.35725363708116 115.17733707984644,176.94333444698168 115.55270225216464,176.94333444698168 C115.55270225216464,176.94333444698168 115.55270225216464,176.94333444698168 115.55270225216464,176.94333444698168 "/><rect id="svg_5" x="11.125008107231261" y="5.7656231968087965" width="170.74706881284686" height="52.08427020591765" fill="#000000" opacity="0"/><rect id="svg_6" x="11.995293133767326" y="73.82269996288169" width="126.90467723013644" height="54.84665237252747" fill="#000000" opacity="0"/><rect id="svg_7" x="12.237831583785576" y="142.0357176577148" width="120.2562703061068" height="43.19563726658439" fill="#000000" opacity="0"/></g></g></svg>