<svg xmlns="http://www.w3.org/2000/svg" width="296" height="306" x="0" y="0" id="svgcontent" viewBox="0 0 296 306" overflow="hidden"><defs><clipPath class="clippath" id="svg_3"><path d="M12,44.23821C19.09786,116.55621 19.09786,189.44637 12,261.7619C12,276.72485 24.08508,289.00128 39.23823,289.00128C111.55492,281.90466 184.44505,281.90466 256.76309,289.00128C271.72339,289.00128 284.00003,276.91751 284.00003,261.7619C276.90106,189.44637 276.90106,116.55618 284.00003,44.23821C284.00003,29.27543 271.91635,17 256.76309,17L256.76309,17.19147C184.44505,24.28821 111.55492,24.28821 39.23823,17.19147C24.27656,17.19147 12,29.27656 12,44.42966" id="svg_2" opacity="1" stroke="#000000" shapeType="roundedSquare" fill="#000" fill-opacity="0" stroke-width="0" stroke-dasharray="none"/></clipPath></defs><g mask="" style="pointer-events:all"><title style="pointer-events:inherit">Layer 1</title><g type="photobox" pathStr="M0.0010499999625385864,34.616637035549495 C9.021616212698405,126.52448639185194 9.021616212698405,219.15949168488396 0.0010499999625385864,311.0642182086226 C0.0010499999625385864,330.08037428270427 15.35979573047075,345.68227399309353 34.617697462297656,345.68227399309353 C126.52388840812773,336.66329011242806 219.15884044944733,336.66329011242806 311.06674686115593,345.68227399309353 C330.0795556847429,345.68227399309353 345.6817292610817,330.3252104416165 345.6817292610817,311.0642182086226 C336.659763284521,219.15949168488396 336.659763284521,126.5244483549145 345.6817292610817,34.616637035549495 C345.6817292610817,15.600665440614412 330.32475699825454,0.000009999999746647132 311.06674686115593,0.000009999999746647132 L311.06674686115593,0.24334563012955002 C219.15884044944733,9.262490677459246 126.52388840812773,9.262490677459246 34.617697462297656,0.24334563012955002 C15.603143694205642,0.24334563012955002 0.0010499999625385864,15.602105138696507 0.0010499999625385864,34.85994410957664 " lockTransform="true" lockEdit="null" id="svg_1" display="null"><image xmlns:xlink="http://www.w3.org/1999/xlink" xlink:href="http://192.168.0.139/work/print_commerce/pc-newtool-magento-21/designnbuy/assets/images/uploadedImage/admin_drag-image.jpg" id="svg_5" preserveAspectRatio="none" height="275.3986805677414" width="275.3986805677414" y="16.999992594723153" x="11.999173808522755" origWidth="500" origHeight="500" image_id="9" templateSrc="http://192.168.0.139/work/print_commerce/pc-newtool-magento-21/designnbuy/assets/images/uploadedImage/admin_drag-image.jpg#**#9" isAdminUploaded="true" filter="" colors="" clip-path="url(#svg_3)"/><path d="M12,44.23821C19.09786,116.55621 19.09786,189.44637 12,261.7619C12,276.72485 24.08508,289.00128 39.23823,289.00128C111.55492,281.90466 184.44505,281.90466 256.76309,289.00128C271.72339,289.00128 284.00003,276.91751 284.00003,261.7619C276.90106,189.44637 276.90106,116.55618 284.00003,44.23821C284.00003,29.27543 271.91635,17 256.76309,17L256.76309,17.19147C184.44505,24.28821 111.55492,24.28821 39.23823,17.19147C24.27656,17.19147 12,29.27656 12,44.42966" id="svg_4" opacity="1" stroke="#000000" shapeType="roundedSquare" fill="#000" fill-opacity="0" stroke-width="0" stroke-dasharray="none"/></g></g></svg>