<svg width="65" height="86" xmlns="http://www.w3.org/2000/svg"><g><title>Layer 1</title><g stroke="null" stroke-width="0" elemBBoxHeight="15.95362" yscale="NaN" xscale="4.14388" elemBBoxWidth="32.625" display="null" shapeVal="0" shapeId="0" lineHeight="1" font-style="normal" font-weight="normal" text-anchor="start" fill="0" font-id="1" font-family="Alex Brush" font-size="9.37553" text="Test" type="text" id="svg_1"><path d="m17.32395,47.57c-2.14114,0.00956 -2.76245,-1.17571 -2.76245,-3.28817c0,-1.40512 0.42058,-2.80068 1.25218,-4.18668c-0.96542,-0.61176 -1.44335,-1.51983 -1.44335,-2.72421c0,-1.44336 0.64999,-2.72422 1.92129,-3.86169c2.13158,-1.92129 5.49622,-2.33231 8.91821,-1.44336c0.2772,0.06691 1.44336,0.57352 3.50802,1.51982c2.06467,0.9463 3.54626,1.41468 4.44477,1.41468c0.81248,0.00956 1.48159,-0.35367 1.58674,-1.05145c0.03823,-0.26764 -0.35367,-0.58308 -0.39191,-0.78381c0,-0.03823 0.03823,-0.06691 0.10514,-0.06691c0.21985,0.06691 0.68822,0.7169 0.64043,1.14704c-0.08603,0.75513 -1.18527,1.29998 -2.17937,1.29998c-0.98454,0 -2.50437,-0.47793 -4.55947,-1.42424c-2.05511,-0.9463 -3.34553,-1.48159 -3.88081,-1.56762c-3.41243,-0.54484 -6.37561,0.36323 -8.19176,2.46613c-0.37279,0.43014 -1.02278,1.97864 -1.02278,2.89627c0,0.75513 0.26764,1.34777 0.80293,1.76835c1.1088,-1.64409 2.87715,-3.24994 5.22858,-3.24994c1.17571,0 1.75879,0.45882 1.75879,1.36689c0,1.09924 -0.64999,2.28452 -1.93085,3.56537c-1.28086,1.28086 -2.46613,1.93085 -3.56537,1.93085c-0.95586,0 -1.29997,-0.78381 -0.88895,-1.45292c0.10514,-0.16249 0.23897,-0.21029 0.3919,-0.17205c0,0 -0.03823,0.45882 -0.03823,0.45882c-0.02868,0.20073 0.36323,0.28676 0.90807,0.28676c1.77791,0 4.29183,-2.55216 4.59771,-4.05287c0.17206,-0.85072 -0.05735,-1.40512 -1.04189,-1.40512c-0.74557,0 -1.52938,0.28676 -2.33231,0.86028c-0.80293,0.57352 -1.55806,1.32865 -2.2654,2.27496c0.04779,0.02868 0.24853,0.10514 0.61175,0.15294c0.53528,0.06691 1.92129,-0.00956 2.03599,0.2294c0.03823,0.21029 -0.4397,0.2772 -0.94631,0.2772c-0.79337,0 -1.45291,-0.09558 -1.95952,-0.29632c-1.00366,1.53894 -1.50071,2.96318 -1.50071,4.2536c0,1.67276 0.64043,2.50436 1.93085,2.50436c1.46247,0 3.12568,-0.90807 4.56903,-3.05877c0,0 3.83302,-5.71607 3.83302,-5.71607c1.4338,-2.09335 2.67642,-3.15435 3.73743,-3.20215c0,0 0.74558,0.17205 0.74558,0.17205c0.23896,0.12426 0.35367,0.325 0.35367,0.58308c0,0.62131 -0.45881,0.29631 -0.82204,0.29631c-0.89851,0 -2.07423,0.95587 -3.46979,2.91539c0,0 -3.89037,5.44843 -3.89037,5.44843c-1.67276,1.94041 -3.26906,2.91539 -4.79844,2.91539c0,0 0,0 0,0m10.61965,-1.72055c-0.98454,0 -1.64409,-0.67866 -1.64409,-1.47203c0,-0.90807 0.57352,-1.95952 1.72056,-3.16391c1.14704,-1.20439 2.18893,-1.80658 3.097,-1.80658c0.54484,0 1.02277,0.34411 1.02277,0.84116c0,0.73601 -0.53528,1.45291 -1.65364,2.09334c-1.25218,0.7169 -1.99776,1.09924 -2.97274,0.95586c-0.46838,0.75513 -0.45881,2.14114 0.68822,2.14114c0.64043,0 1.46247,-0.45881 2.50437,-1.31909c0.78381,-0.64999 1.48159,-1.30954 2.03599,-2.03599c0.12426,-0.15294 0.21985,-0.23897 0.30587,-0.23897c0.24853,0.05735 0.1147,0.26764 -0.02868,0.45882c-0.69778,0.93675 -1.55806,1.74923 -2.55216,2.46613c-0.9941,0.7169 -1.8257,1.08012 -2.52348,1.08012c0,0 0,0 0,0m-0.13382,-2.9823c0.77425,0.14338 1.28086,-0.1625 2.24628,-0.75513c0.91763,-0.56396 1.39556,-1.1088 1.59629,-1.90217c0,-0.16249 -0.1625,-0.23896 -0.49705,-0.23896c-0.33455,0 -0.81248,0.25808 -1.42424,0.76469c-0.82204,0.67867 -1.46247,1.38601 -1.92129,2.13158c0,0 0,0 0,0m6.36606,2.76245c-1.39556,-0.06691 -1.62497,-0.98454 -2.02643,-2.29408c-0.23897,0.23897 -0.40147,0.35367 -0.48749,0.35367c-0.1625,0 -0.07647,-0.2772 0,-0.37278c0.97498,-1.17572 3.29773,-3.33597 4.66462,-4.61683c0.70734,-0.65955 1.12792,-0.99409 1.25219,-0.99409c0.67867,-0.0478 0.77425,0.5544 0.4397,0.92719c-0.73602,0.82204 -0.80293,1.28086 -1.17571,3.097c-0.25808,1.26174 -0.43014,2.15069 -0.5544,2.64774c1.08013,-0.00956 2.18893,-0.72646 3.34552,-2.11246c0.1147,-0.13382 0.22941,-0.19117 0.29632,-0.19117c0.06691,0 0.09558,0.02868 0.09558,0.1147c0,0.08603 -0.05735,0.21029 -0.18161,0.35367c-1.26174,1.37644 -1.75879,1.95952 -3.64185,2.34187c-0.53528,0.37279 -1.1088,0.78381 -2.02643,0.74557c0,0 0,0 0,0m-1.22351,-2.72421c-0.21985,1.28086 1.20439,2.16981 2.25584,1.51027c0.62131,-0.39191 1.19483,-3.48891 1.23307,-4.59771c0,0 0.07647,-0.66911 0.07647,-0.66911c-0.7169,0.53529 -1.49115,1.22351 -2.30363,2.07423c-0.81248,0.85072 -1.21395,1.41468 -1.26174,1.68232c0,0 0,0 0,0m7.28369,2.80068c-0.88895,0 -1.36689,-0.32499 -1.36689,-1.32865c0,-1.06101 1.4338,-3.58449 1.77791,-4.28227c-0.47794,0.12426 -1.04189,0.07647 -1.04189,-0.39191c0,-0.25808 0.26764,-0.49705 0.64999,-0.49705c0,0 1.13748,0 1.13748,0c0.38234,-0.44926 1.14704,-1.61541 1.5485,-1.73967c0.23896,-0.00956 0.78381,0.25808 0.78381,0.53529c0,0.14338 -0.31544,0.56396 -0.94631,1.26174c1.23307,0.06691 2.84848,-0.00956 4.14845,-0.01912c0.03823,0.02868 0.05735,0.04779 0.06691,0.06691c0,0.1147 -0.81249,0.2772 -2.43745,0.48749c-1.62497,0.21029 -2.50436,0.33455 -2.63819,0.37279c-0.37278,0.26764 -2.52348,3.61317 -2.37054,4.40654c-0.00956,0.48749 0.3441,0.7169 1.00366,0.7169c0.65954,0 1.9882,-0.57352 2.40878,-0.84116c0.72645,-0.46837 1.51026,-1.13748 2.34187,-2.01688c0.18161,-0.19117 0.30587,-0.2772 0.37278,-0.26764c0.03824,0 0.05735,0.03823 0.05735,0.1147c0,0.07647 -0.09558,0.22941 -0.28676,0.46838c-1.14704,1.44336 -3.097,2.95362 -5.20946,2.95362c0,0 0,0 0,0" stroke-width="0" fill="#000000" id="svg_4"/><rect opacity="0" fill="#000000" height="15.95363" width="32.625" y="31.61719" x="14.37109" id="svg_5"/></g></g></svg>