<?xml version="1.0"?>
<svg xmlns="http://www.w3.org/2000/svg" width="400" height="218"><g><title>Layer 1</title><g clip-id="916" display="null" id="svg_4"><path id="svg_5" d="m218.41743,61.46177c-0.34561,-1.3231 -0.60635,-2.32104 -0.88857,-3.40592c-2.40799,-0.16872 -4.70551,-0.32924 -7.52248,-0.52658c-0.99895,9.75251 1.27301,20.03163 -4.42635,28.76576c-5.35071,8.19833 -11.65846,15.63083 -20.7464,22.29032c2.79144,1.05316 4.7955,1.65134 6.6503,2.55724c1.67587,0.81903 4.02454,1.65442 4.56543,3.06342c0.74336,1.93251 0.06035,4.41306 -0.64211,6.72694c-1.6861,-2.96418 -2.74541,-6.35784 -6.50206,-6.23106c-5.06438,0.17075 -5.95702,4.48261 -6.85785,8.68097c-4.79959,-3.11657 -1.39569,-6.0276 -0.34357,-8.81899c-4.07664,-3.05726 -5.19525,-2.81188 -8.61551,0.75765c-7.03476,7.34354 -11.43042,16.33737 -16.26172,25.09607c-3.85374,6.98769 -8.07152,13.77397 -12.11446,20.65636c-2.56134,4.35991 -4.92232,8.84966 -7.69019,13.07254c-4.08484,6.23413 -8.43147,12.29752 -12.73616,18.38338c-0.36197,0.51233 -1.27603,0.90492 -1.89773,0.86096c-0.36197,-0.02554 -0.91614,-1.02762 -0.92843,-1.59917c-0.0358,-1.75052 -0.28323,-3.67177 0.31903,-5.23006c3.60223,-9.32304 7.35683,-18.59096 11.18707,-27.82405c2.70448,-6.5163 5.29036,-13.11241 8.50612,-19.37825c4.16664,-8.11655 5.88855,-16.74638 7.29753,-25.63389c1.30878,-8.25969 3.42836,-16.40385 5.4734,-24.52856c1.5061,-5.9826 4.66969,-11.23717 8.26273,-16.2116c4.89569,-6.77709 9.38342,-13.91204 14.84453,-20.20037c5.32518,-6.12983 8.82925,-13.50507 14.01431,-19.52653c8.53372,-9.91203 20.83838,-10.46315 29.06126,1.40185c1.56239,2.25459 1.84763,5.49895 2.35788,8.35069c0.53065,2.96419 0.86092,6.00918 0.84555,9.01736c-0.02965,5.02248 -0.79141,5.71368 -5.21159,9.4335z" fill-rule="evenodd"></path></g></g></svg>
