<svg xmlns="http://www.w3.org/2000/svg" width="187" height="240" x="0" y="0" id="svgcontent" overflow="hidden" viewBox="0 0 187 240"><defs><mask id="canvasMaskImageDef" maskUnits="objectBoundingBox" x="0" y="0"><image id="canvasMaskImage" preserveAspectRatio="none" style="pointer-events:none" x="-106" y="-81" width="400" height="344.82758620689657" xlink:href="http://192.168.0.222/work/jan_langius/print_commerce/source/designnbuy/uploads/productimage/5826bc835e1ff.png" xmlns:xlink="http://www.w3.org/1999/xlink"/></mask></defs><g style="pointer-events:all" mask="url(#canvasMaskImageDef)"><title style="pointer-events:inherit">Layer 1</title><g id="svg_4" display="null" clip-id="916"><path fill-rule="evenodd" d="M119.336669921875,55.563514709472656 C119.04054260253906,54.42987060546875 118.817138671875,53.5748291015625 118.57534790039062,52.64531707763672 C116.51219177246094,52.500770568847656 114.54365539550781,52.36321258544922 112.13006591796875,52.194129943847656 C111.274169921875,60.55011749267578 113.22079467773438,69.35725402832031 108.33757019042969,76.84065246582031 C103.75308227539062,83.86500549316406 98.34860229492188,90.23316955566406 90.56208801269531,95.93901062011719 C92.95375061035156,96.84136962890625 94.67085266113281,97.3538818359375 96.26005554199219,98.13005065917969 C97.69593811035156,98.83180236816406 99.70826721191406,99.54754638671875 100.17170715332031,100.75479125976562 C100.80860900878906,102.41056823730469 100.22337341308594,104.53590393066406 99.62152099609375,106.51847839355469 C98.17689514160156,103.97871398925781 97.269287109375,101.071044921875 94.05059814453125,101.17967224121094 C89.71142578125,101.32598876953125 88.94660186767578,105.0203857421875 88.17478942871094,108.61752319335938 C84.06249237060547,105.947265625 86.97895050048828,103.45307922363281 87.88041687011719,101.0614013671875 C84.38751983642578,98.44195556640625 83.42910766601562,98.6522216796875 80.49864196777344,101.71058654785156 C74.47128295898438,108.00251770019531 70.70503997802734,115.70845031738281 66.56561279296875,123.21287536621094 C63.263694763183594,129.199951171875 59.64988708496094,135.01443481445312 56.1859130859375,140.91127014160156 C53.99134826660156,144.64688110351562 51.96849822998047,148.49368286132812 49.59696960449219,152.11187744140625 C46.09706115722656,157.4532470703125 42.372886657714844,162.64837646484375 38.68463134765625,167.86276245117188 C38.37449645996094,168.30165100097656 37.591285705566406,168.63807678222656 37.05863952636719,168.6003875732422 C36.748512268066406,168.57850646972656 36.273681640625,167.7199249267578 36.263160705566406,167.230224609375 C36.232505798339844,165.73037719726562 36.020484924316406,164.08424377441406 36.5364990234375,162.7490997314453 C39.622901916503906,154.76109313964844 42.83983612060547,146.82037353515625 46.121604919433594,138.90945434570312 C48.438804626464844,133.3262481689453 50.654396057128906,127.67472839355469 53.409637451171875,122.30612182617188 C56.97962188720703,115.35188293457031 58.454925537109375,107.95783996582031 59.66215515136719,100.34303283691406 C60.783538818359375,93.26612854003906 62.599632263183594,86.28822326660156 64.35177612304688,79.32693481445312 C65.64221954345703,74.2010498046875 68.35279083251953,69.69891357421875 71.43131256103516,65.43684387207031 C75.62593841552734,59.630226135253906 79.47101593017578,53.516998291015625 84.15010833740234,48.12916564941406 C88.71269226074219,42.877113342285156 91.71499633789062,36.558013916015625 96.15753173828125,31.398818969726562 C103.46925354003906,22.90618896484375 114.01188659667969,22.433982849121094 121.0572509765625,32.59992980957031 C122.3958740234375,34.53166198730469 122.64030456542969,37.311424255371094 123.07746887207031,39.754791259765625 C123.53216552734375,42.294525146484375 123.81512451171875,44.903465270996094 123.80197143554688,47.48088073730469 C123.77658081054688,51.78413391113281 123.12391662597656,52.376365661621094 119.336669921875,55.563514709472656 z" id="svg_5"/></g><line x1="77.74999974668026" y1="103.99999952316284" x2="154.24999924004078" y2="103.99999952316284" stroke="#000000" stroke-width="4" id="svg_6" fill="none" display="null" fill-opacity="1" stroke-opacity="1"/></g></svg>