<?xml version="1.0"?>
<svg xmlns="http://www.w3.org/2000/svg" xmlns:xlink="http://www.w3.org/1999/xlink" width="315" height="116"><g><title>Layer 1</title><g elemBBoxHeight="31.80877" yscale="NaN" xscale="1.3683" elemBBoxWidth="107.75391" display="null" shapeVal="0" shapeId="0" lineHeight="1" font-style="normal" font-weight="normal" text-anchor="start" fill="0" font-id="1" font-family="Brush-Script" font-size="20.09302" text="Transcent" type="text" id="svg_1"><path d="m19.42755,41.89624c-0.71482,1.2807 -2.63931,0.66241 -2.41937,-1.19236c0.85228,-7.11001 4.1789,-12.45355 6.65323,-17.48796c0,0 2.94174,-6.00597 2.94174,-6.00597c-1.34715,0.13249 -2.66679,0.26497 -3.87648,0.44162c-3.60155,0.48578 -6.73572,1.58981 -9.84241,3.00298c0.7698,0.26496 1.897,0.35329 2.17193,1.36901c-0.60484,1.10404 -2.14443,-0.13248 -3.51907,0.22081c-2.22691,0.52994 -1.20968,-2.64969 -0.98974,-4.94608c0.19246,-1.94311 0.4124,-2.60553 1.5671,-3.48876c3.49158,-2.69386 9.04511,-3.53293 13.88383,-2.78218c2.28191,0.35329 2.30938,2.64969 2.88675,5.34354c-0.27492,2.73801 -1.62207,4.68112 -2.50183,6.75672c0,0 -2.83176,6.62422 -2.83176,6.62422c0,0 -2.17193,5.69684 -2.17193,5.69684c0.32991,-0.22082 0.7423,0.04416 0.65983,0.61825c-0.24744,1.98727 -1.67706,4.10702 -2.61181,5.82932c0,0 0,0 0,0m17.92526,-7.99323c0,0 -0.0275,1.89895 -0.0275,1.89895c0,0 -2.47434,3.22379 -2.47434,3.22379c-0.79729,0.88322 -1.70456,2.07559 -2.91424,2.07559c-1.95198,0 -2.22691,-4.23951 -1.20968,-6.58007c0.63233,-1.45733 1.23717,-2.91466 1.97948,-4.19534c0,0 -3.07918,1.01571 -3.07918,1.01571c0,0 -1.37464,2.25223 -1.37464,2.25223c-0.46738,0.79491 -1.09972,1.54566 -1.64956,2.25224c0.0275,-0.66242 -0.02749,-1.369 0.05499,-1.94311c0.54986,-0.75074 1.07223,-1.41317 1.53961,-2.2964c-1.04475,-0.04416 -0.65984,-2.29639 -0.32992,-3.17963c0.68731,-1.89894 1.59457,-3.79788 3.05168,-4.41615c0.57737,0.04416 0.65983,1.19236 0.35739,1.94311c0,0 3.76651,-0.79491 3.76651,-0.79491c0.79729,0 1.48463,2.16391 1.04475,3.48876c-0.7973,2.47305 -2.91424,3.48876 -3.0792,6.88919c0.27492,2.69385 2.61182,0.26497 3.24414,-0.44162c0,0 1.09972,-1.19236 1.09972,-1.19236m13.80136,0c0,0.61826 -0.08247,1.28069 -0.0275,1.85478c-1.5121,1.85479 -2.94171,4.0187 -4.64627,5.56436c-1.1272,1.01571 -2.39187,0.44162 -2.39187,-1.54565c0,-2.07559 0.49488,-3.09131 1.04472,-5.12274c-1.40211,1.81062 -2.80425,3.88621 -4.31636,5.43187c-2.19941,2.25223 -3.68402,-2.20808 -3.43659,-6.18261c1.34715,-4.68112 4.9212,-7.02168 8.11036,-8.78814c1.67706,-0.92739 3.32663,-0.92739 3.76651,1.45733c-0.0275,0.79491 -0.60485,0.88324 -0.96226,1.1482c0.85227,0.44162 0.96226,1.94311 0.38489,3.13547c-0.7423,1.58982 -2.06195,2.78218 -2.06195,5.16689c0,0.83907 0.43988,1.45733 1.01723,1.28069c1.5121,-0.48578 1.81453,-1.58982 3.51908,-3.40044c0,0 0,0 0,0m-11.60195,0.97156c-0.10996,0.66242 -0.41238,2.69385 0.30242,2.60553c2.74928,-1.45733 4.97619,-5.741 6.79071,-8.74398c-2.44687,1.19236 -4.78373,2.51721 -6.57076,4.90193c-0.24743,0.39745 -0.43988,0.7949 -0.52237,1.23652c0,0 0,0 0,0m17.29295,-7.81659c-0.46737,2.8705 -2.94172,4.32783 -3.4366,7.15416c0.21994,1.1482 0.82478,-0.04416 1.09972,-0.52994c1.56707,-2.82633 4.12391,-6.00596 6.15836,-8.16988c0.71482,-0.75075 1.20968,-1.10404 1.5121,-1.10404c0.68733,0.39746 0.63234,2.2964 0.90726,3.40044c-0.7698,2.73801 -3.32663,4.10702 -3.32663,7.72826c0,0.79491 0.27495,1.23653 0.79731,1.1482c1.40213,-0.22081 2.11694,-1.36901 3.43658,-2.78218c0,0.61826 -0.08246,1.28069 -0.02749,1.89895c-1.81451,1.98727 -3.21664,5.43187 -5.91093,5.43187c-1.81452,0 -1.5671,-4.28367 -0.7698,-6.27094c0,0 1.67707,-4.10702 1.67707,-4.10702c-2.06195,2.38472 -3.73901,6.3151 -5.55354,8.92063c-1.5396,2.20808 -2.55682,-1.01571 -2.3094,-4.5928c0.27494,-4.06285 1.75955,-7.19832 3.62905,-8.8323c0.7698,-0.30913 2.06195,-0.39745 2.11694,0.70658c0,0 0,0 0,0m17.84279,6.84503c-0.08249,1.01572 0.10997,2.16391 -0.46738,2.47305c0,0 -1.07222,1.28069 -1.07222,1.28069c-1.42961,1.58981 -2.91422,3.70956 -5.16866,3.75373c-1.62204,0.04417 -3.71151,-1.63397 -3.71151,-3.97454c-0.0275,-1.23652 0.68733,-2.20807 1.45713,-2.16391c0.82478,0.04416 1.5121,0.92739 2.00696,1.54565c1.81453,-1.32484 2.25441,-4.41616 1.75954,-8.39069c0,0 -3.3816,4.76945 -3.3816,4.76945c0,0 -2.17194,2.64969 -2.17194,2.64969c0.0275,-0.66242 -0.02747,-1.369 0.05499,-1.94311c1.89702,-2.2964 3.71152,-4.63696 5.3611,-7.37497c0.3849,-2.11976 0.46737,-3.31211 1.78702,-3.31211c0.7423,0 0.85229,0.44162 0.90726,1.58982c0.08249,1.85478 0.60484,3.0913 0.60484,4.99025c0,4.15118 -2.11692,6.09428 -3.65652,7.99323c2.61179,0.52994 4.04143,-2.20808 5.69099,-3.88622c0,0 0,0 0,0m9.89737,0c0,0 -0.02748,1.89895 -0.02748,1.89895c-1.92448,2.25223 -3.93145,5.38771 -6.98314,5.56434c-3.24417,0.22081 -3.71153,-8.479 -1.78705,-11.43782c1.70456,-2.64969 3.87647,-5.87348 6.84571,-5.87348c2.03445,0 0.71481,4.5928 0,5.741c-0.49488,0.7949 -0.93476,1.81061 -1.70455,2.03143c-0.68733,-0.04416 -0.87978,-0.79491 -0.98975,-1.89895c-0.96224,1.05988 -1.95197,2.16391 -2.80427,3.40044c-1.29215,1.85478 -0.16494,4.37199 1.42963,4.37199c2.52934,0 4.37136,-2.07559 6.0209,-3.79789c0,0 0,0 0,0m9.89742,0c0,0 -0.05499,1.85478 -0.05499,1.85478c-1.952,2.25224 -3.65656,5.56436 -6.73573,5.56436c-2.14443,0 -3.0242,-2.03143 -3.13418,-5.52019c-0.19244,-6.13845 3.84899,-11.65864 7.533,-11.65864c0.96225,0 1.70456,0.61826 1.70456,2.03143c0,5.12274 -3.93147,6.5359 -6.54327,8.16988c-0.27493,2.03143 0.43988,3.31211 1.67704,3.26795c2.33691,-0.04417 4.01395,-2.16391 5.55356,-3.70957c0,0 0,0 0,0m-2.96923,-6.66839c-0.0275,-0.83907 -0.65982,-0.48578 -1.04472,-0.2208c-1.29215,0.97156 -2.33688,3.00298 -2.94171,5.16689c1.37463,-0.83907 2.72178,-2.20807 3.60154,-3.70956c0.24742,-0.48577 0.3849,-0.88324 0.3849,-1.23653c0,0 0,0 0,0m8.6602,-0.17664c-0.46735,2.8705 -2.94171,4.32783 -3.43658,7.15416c0.21995,1.1482 0.82478,-0.04416 1.09971,-0.52994c1.56711,-2.82633 4.12392,-6.00596 6.15837,-8.16988c0.71481,-0.75075 1.20969,-1.10404 1.51211,-1.10404c0.68731,0.39746 0.63234,2.2964 0.90726,3.40044c-0.7698,2.73801 -3.32662,4.10702 -3.32662,7.72826c0,0.79491 0.27492,1.23653 0.79728,1.1482c1.40215,-0.22081 2.11696,-1.36901 3.43659,-2.78218c0,0.61826 -0.08247,1.28069 -0.02748,1.89895c-1.81452,1.98727 -3.21664,5.43187 -5.91096,5.43187c-1.81452,0 -1.56707,-4.28367 -0.76978,-6.27094c0,0 1.67705,-4.10702 1.67705,-4.10702c-2.06196,2.38472 -3.73903,6.3151 -5.55354,8.92063c-1.53958,2.20808 -2.55683,-1.01571 -2.30938,-4.5928c0.27493,-4.06285 1.75953,-7.19832 3.62904,-8.8323c0.76979,-0.30913 2.06194,-0.39745 2.11691,0.70658c0,0 0,0 0,0m16.33071,6.84503c-0.05499,0.5741 -0.05499,1.19236 -0.05499,1.85478c-2.11693,2.34056 -3.68402,6.31509 -6.84569,6.31509c-2.72178,0 -1.45712,-6.13844 -0.52238,-8.52316c0,0 -1.81451,2.25224 -1.81451,2.25224c0.0275,-0.61826 -0.0275,-1.36901 0.05498,-1.89895c0,0 1.34715,-1.67814 1.34715,-1.67814c1.01723,-1.32484 1.73204,-2.64969 2.44685,-4.41615c-1.01723,-0.08833 -1.67706,-0.04417 -2.6118,0.30913c1.15469,-2.78218 1.81451,-5.65267 4.9212,-5.43187c0.96225,-1.89895 1.15469,-3.88621 2.96921,-3.88621c1.81452,0 0.21995,2.69385 -0.16496,3.66541c0.60484,0.04416 1.09972,0.13248 1.64957,0.26497c-0.68731,1.63398 -1.0722,4.10702 -2.22691,4.90193c-0.41239,0.26496 -1.15469,0.35329 -2.22691,0.35329c-1.15469,2.5172 -2.55683,5.07857 -2.55683,8.12572c0,4.0187 3.0517,0.66242 3.93147,-0.30914c0,0 1.70455,-1.89895 1.70455,-1.89895" fill="#000000" id="svg_2"></path><rect opacity="0" fill="#000000" height="31.80877" width="107.75152" y="10.76172" x="10.12499" id="svg_3"></rect></g><g display="null" id="svg_4" lockEdit="null" lockTransform="null" pathStr="M17.801048278808594,41.40539093315601 C27.6044864654541,112.04318542778492 27.6044864654541,183.23974914848804 17.801048278808594,253.87539978325367 C17.801048278808594,268.49055786430836 34.492733001708984,280.48186035454273 55.42194366455078,280.48186035454273 C155.3044891357422,273.55000610649586 255.9788818359375,273.55000610649586 355.8631591796875,280.48186035454273 C376.5263366699219,280.48186035454273 393.4825134277344,268.678698733449 393.4825134277344,253.87539978325367 C383.6772766113281,183.23974914848804 383.6772766113281,112.04317779839039 393.4825134277344,41.40539093315601 C393.4825134277344,26.790244296193123 376.7923889160156,14.800007060170174 355.8631591796875,14.800007060170174 L355.8631591796875,14.987028315663338 C255.9788818359375,21.918889239430428 155.3044891357422,21.918889239430428 55.42194366455078,14.987028315663338 C34.7572135925293,14.987028315663338 17.801048278808594,26.791352465748787 17.801048278808594,41.59242172539234 " type="photobox"><g clip-path="url(#svg_6)"><image xmlns:xlink="http://www.w3.org/1999/xlink" filter="url(#svg_8)" image_id="347" origHeight="768" origWidth="1024" x="117.16901" y="47.95345" width="96.06246" height="72.04684" preserveAspectRatio="none" id="svg_5" xlink:href="o_1ausa07cp11581md817k21ds7sgpa.jpg"></image></g><path cursor="move" stroke-width="4" fill-opacity="0" fill="#000" shapeType="roundedSquare" stroke="#000000" id="svg_7" d="m120.83331,56.47667c2.01802,14.54066 2.01802,29.19633 0,43.73656c0,3.0085 3.43596,5.47688 7.7442,5.47688c20.56064,-1.42691 41.28427,-1.42691 61.84528,0c4.25345,0 7.74387,-2.42966 7.74387,-5.47688c-2.0184,-14.54022 -2.0184,-29.19591 0,-43.73656c0,-3.0085 -3.43564,-5.47667 -7.74387,-5.47667l0,0.0385c-20.561,1.42691 -41.28464,1.42691 -61.84528,0c-4.2538,0 -7.7442,2.4299 -7.7442,5.47667"></path></g></g><defs><clipPath id="svg_6" class="clippath"><path cursor="move" stroke-width="4" fill-opacity="0" fill="#000" shapeType="roundedSquare" stroke="#000000" d="m120.83331,56.47667c2.01802,14.54066 2.01802,29.19633 0,43.73656c0,3.0085 3.43596,5.47688 7.7442,5.47688c20.56064,-1.42691 41.28427,-1.42691 61.84528,0c4.25345,0 7.74387,-2.42966 7.74387,-5.47688c-2.0184,-14.54022 -2.0184,-29.19591 0,-43.73656c0,-3.0085 -3.43564,-5.47667 -7.74387,-5.47667l0,0.0385c-20.561,1.42691 -41.28464,1.42691 -61.84528,0c-4.2538,0 -7.7442,2.4299 -7.7442,5.47667"></path></clipPath><filter id="svg_8" type="gamma_correct" color-interpolation-filters="sRGB"><feComponentTransfer><feFuncG type="gamma" amplitude="1" exponent="0.5"></feFuncG></feComponentTransfer></filter></defs></svg>
