<svg xmlns="http://www.w3.org/2000/svg" width="198" height="272" x="0" y="0" id="svgcontent" overflow="hidden" viewBox="0 0 198 272"><defs/><g style="pointer-events:all" mask=""><title style="pointer-events:inherit">Layer 1</title><g id="svg_4" fill-opacity="1" display="null" clip-id="606"><path fill="#B00B00" d="M86.18801879882812,121.11563110351562 C87.33207702636719,120.32391357421875 87.96940612792969,119.46620178222656 88.10136413574219,118.54251098632812 C87.04573059082031,119.50975036621094 86.18801879882812,120.67623901367188 85.52824401855469,122.03933715820312 L85.72616577148438,122.03933715820312 L86.18801879882812,121.11563110351562 M116.73545837402344,94.32888793945312 L114.162353515625,97.36383056640625 C115.65739440917969,96.61566162109375 116.51509094238281,95.60487365722656 116.73545837402344,94.32888793945312 M111.58924865722656,99.47509765625 L109.74189758300781,101.58636474609375 C110.79750061035156,101.23406982421875 111.50082397460938,100.53073120117188 111.8531494140625,99.47509765625 L111.58924865722656,99.47509765625 M104.85957336425781,106.20480346679688 L104.925537109375,106.0068359375 L105.25543212890625,105.74293518066406 L105.51933288574219,105.74293518066406 L104.85957336425781,106.20480346679688 M65.47117614746094,116.89308166503906 L64.54750061035156,116.43124389648438 C67.45048522949219,120.38986206054688 71.34312438964844,123.11604309082031 76.2254638671875,124.6124267578125 L75.30178833007812,123.42485046386719 L76.2254638671875,123.88668823242188 L74.11418151855469,121.84136962890625 L73.19050598144531,122.03933715820312 L74.11418151855469,122.96298217773438 L72.72865295410156,122.30319213867188 C72.99256896972656,121.46664428710938 72.68511962890625,120.7633056640625 71.80499267578125,120.19194030761719 L71.54107666015625,120.19194030761719 L71.54107666015625,121.11563110351562 L65.47117614746094,115.96942138671875 L65.47117614746094,116.89308166503906 M64.54750061035156,115.96942138671875 C63.535400390625,114.38597106933594 62.21586608886719,113.55070495605469 60.5888671875,113.4622802734375 C61.3370361328125,115.44160461425781 62.590606689453125,116.43124389648438 64.34956359863281,116.43124389648438 L63.887733459472656,115.77149963378906 L64.54750061035156,115.96942138671875 M37.56280517578125,92.0196533203125 C36.022911071777344,89.46768188476562 34.06602478027344,87.29176330566406 31.690834045410156,85.4879150390625 C33.01039123535156,88.25900268554688 34.967262268066406,90.43621826171875 37.56280517578125,92.0196533203125 M32.68049621582031,85.68588256835938 C32.06427764892578,84.32147216796875 31.053497314453125,83.331787109375 29.645538330078125,82.71690368652344 C30.348861694335938,83.99288940429688 31.3609619140625,84.9825439453125 32.68049621582031,85.68588256835938 M53.85918426513672,112.93446350097656 L52.473663330078125,112.47264099121094 C52.649169921875,112.25227355957031 52.56206512451172,111.87882995605469 52.209754943847656,111.35101318359375 C52.91307830810547,111.70330810546875 53.46332550048828,112.22984313964844 53.85918426513672,112.93446350097656 M48.97687530517578,103.43374633789062 L46.86559295654297,101.58636474609375 L46.86559295654297,102.24613952636719 C46.11742401123047,101.62991333007812 45.19373321533203,101.16940307617188 44.09455108642578,100.86062622070312 C45.19373321533203,102.22370910644531 46.822044372558594,103.0814208984375 48.97687530517578,103.43374633789062 M27.270370483398438,80.2757568359375 L26.80852508544922,80.14378356933594 L28.72186279296875,84.76217651367188 L28.45795440673828,84.76217651367188 L28.45795440673828,84.30035400390625 L23.773590087890625,77.57064819335938 L26.80852508544922,79.68194580078125 L26.80852508544922,79.48399353027344 L27.270370483398438,80.2757568359375 L27.732200622558594,80.34170532226562 L27.072433471679688,79.22012329101562 C26.852073669433594,79.04460144042969 26.764991760253906,79.13302612304688 26.80852508544922,79.48399353027344 L19.81493377685547,66.88236999511719 L20.804595947265625,67.54212951660156 C20.276779174804688,65.07853698730469 20.122390747070312,62.746917724609375 20.34276580810547,60.548553466796875 C19.330673217773438,60.152679443359375 18.9136962890625,59.62486267089844 19.089195251464844,58.965118408203125 C19.309555053710938,58.26045227050781 19.330673217773438,57.24969482421875 19.155166625976562,55.93016052246094 C17.924026489257812,51.97149658203125 18.143089294433594,48.078857421875 19.81493377685547,44.25218200683594 L21.92621612548828,41.94297790527344 L20.540687561035156,42.40483093261719 C20.84815216064453,41.74505615234375 21.575225830078125,40.800262451171875 22.717933654785156,39.56781005859375 L21.92621612548828,41.87701416015625 C22.497581481933594,41.34916687011719 22.87232208251953,40.470367431640625 23.047828674316406,39.2379150390625 C25.686904907226562,36.68592834472656 28.765419006347656,34.18009948730469 32.284637451171875,31.716506958007812 C35.84740447998047,29.254241943359375 38.22259521484375,28.15373992919922 39.410179138183594,28.417648315429688 L39.146270751953125,28.879493713378906 C41.828895568847656,27.296051025390625 44.863853454589844,26.21796417236328 48.251121520996094,25.64661407470703 L48.053199768066406,26.108444213867188 C47.26145935058594,26.196868896484375 46.711204528808594,26.504302978515625 46.403770446777344,27.032142639160156 L48.71295166015625,26.570289611816406 L48.053199768066406,27.296051025390625 L57.092063903808594,26.768211364746094 C56.3438720703125,26.41590118408203 56.03643035888672,26.196868896484375 56.16838836669922,26.108444213867188 C58.236114501953125,25.888084411621094 61.60094451904297,26.945037841796875 66.26289367675781,29.275360107421875 C70.92485046386719,31.650543212890625 74.00468444824219,33.454345703125 75.49971008300781,34.68548583984375 L77.14913940429688,37.0606689453125 C77.45658874511719,37.89593505859375 78.22589111328125,38.51216125488281 79.45835876464844,38.90802001953125 C81.17373657226562,35.3887939453125 83.70199584960938,31.34307861328125 87.04573059082031,26.768211364746094 C90.34458923339844,22.194679260253906 93.79782104492188,19.18083953857422 97.40414428710938,17.729347229003906 L96.67839050292969,18.85094451904297 L102.28645324707031,16.343826293945312 C102.50682067871094,16.783241271972656 103.21012878417969,16.960044860839844 104.39772033691406,16.87164306640625 L107.43267822265625,16.079917907714844 L112.51292419433594,16.343826293945312 L112.51292419433594,16.541748046875 L107.43267822265625,17.00359344482422 L107.89451599121094,17.267501831054688 C112.42449951171875,18.45508575439453 116.69190979003906,19.774642944335938 120.694091796875,21.22613525390625 C126.14778137207031,24.525001525878906 130.12884521484375,28.945457458496094 132.635986328125,34.48756408691406 C135.1431121826172,40.029632568359375 137.0564422607422,46.5389404296875 138.3759765625,54.016815185546875 L138.63990783691406,54.016815185546875 C138.4195556640625,52.3013916015625 138.02499389648438,50.47515869140625 137.45230102539062,48.54071044921875 C136.92449951171875,46.60624694824219 136.83607482910156,44.956817626953125 137.1884002685547,43.5924072265625 L137.45230102539062,44.977935791015625 C137.49586486816406,42.470794677734375 137.078857421875,40.44660949707031 136.19873046875,38.90802001953125 C135.3634796142578,37.32456970214844 134.7036895751953,35.60917663574219 134.2194366455078,33.76179504394531 L134.41734313964844,33.76179504394531 L135.34104919433594,35.873077392578125 C134.9887237548828,34.28961181640625 134.28541564941406,33.057159423828125 133.22976684570312,32.17835998535156 C133.75758361816406,31.563430786132812 133.84466552734375,31.079177856445312 133.4936981201172,30.726852416992188 L132.76791381835938,29.341339111328125 C135.6273956298828,31.9368896484375 137.49586486816406,35.27928161621094 138.3759765625,39.369873046875 C138.5963592529297,39.01756286621094 138.83782958984375,38.951568603515625 139.10174560546875,39.17192077636719 C139.67442321777344,40.491485595703125 139.67442321777344,42.1844482421875 139.10174560546875,44.25218200683594 C140.02542114257812,44.384124755859375 140.6416473388672,45.48463439941406 140.94911193847656,47.55104064941406 L140.4872589111328,47.55104064941406 L140.22335815429688,46.36344909667969 C140.44371032714844,48.695098876953125 140.83956909179688,50.89476013183594 141.4109344482422,52.961181640625 C141.98362731933594,55.07244873046875 141.82923889160156,57.381622314453125 140.94911193847656,59.888763427734375 L140.94911193847656,59.42694091796875 L140.22335815429688,56.85380554199219 L139.76150512695312,57.05177307128906 C140.15736389160156,60.218658447265625 140.31175231933594,63.099212646484375 140.22335815429688,65.69477844238281 C139.783935546875,67.85090637207031 138.90379333496094,70.18124389648438 137.58425903320312,72.68833923339844 L134.6812744140625,78.49435424804688 L134.41734313964844,78.49435424804688 L135.34104919433594,75.9212646484375 C132.34963989257812,78.25286865234375 129.84249877929688,81.61772155761719 127.81962585449219,86.01577758789062 C125.75190734863281,90.45733642578125 123.37673950195312,94.15339660644531 120.694091796875,97.09992980957031 C120.73765563964844,96.44013977050781 120.49615478515625,96.06541442871094 119.96833801269531,95.97831726074219 C120.84848022460938,94.39486694335938 122.01364135742188,93.14131164550781 123.46514892578125,92.21762084960938 L123.2672119140625,92.0196533203125 L122.07960510253906,92.21762084960938 L123.2672119140625,90.83209228515625 L125.11457824707031,87.33531188964844 L124.38882446289062,87.79713439941406 L126.30216979980469,84.56425476074219 L124.19088745117188,85.4879150390625 L120.23225402832031,91.75579833984375 L123.2672119140625,89.71047973632812 C121.24435424804688,93.31680297851562 118.97869873046875,96.88088989257812 116.4715576171875,100.39878845214844 C116.95582580566406,100.26686096191406 117.10888671875,100.48585510253906 116.93338012695312,101.05854797363281 L111.39132690429688,106.6666259765625 L108.55429077148438,107.12846374511719 L104.85957336425781,111.81285095214844 L101.56069946289062,113.4622802734375 L99.71334838867188,116.69515991210938 L98.06391906738281,116.89308166503906 C97.62451171875,116.84820556640625 97.00828552246094,117.26652526855469 96.216552734375,118.14666748046875 C95.46836853027344,119.02680969238281 94.69908142089844,119.40022277832031 93.9073486328125,119.26828002929688 L96.01863098144531,117.15702819824219 L93.44549560546875,119.26828002929688 L93.9073486328125,118.54251098632812 L91.334228515625,119.92802429199219 L91.334228515625,119.73011779785156 L93.84138488769531,117.42088317871094 L96.01863098144531,115.30963134765625 L96.01863098144531,113.92410278320312 C97.16265869140625,112.91203308105469 98.45977783203125,112.12030029296875 99.91127014160156,111.54893493652344 C101.31791687011719,110.93402099609375 102.65988159179688,109.85595703125 103.93589782714844,108.31605529785156 L102.484375,109.23971557617188 C102.83671569824219,108.27250671386719 103.54000854492188,107.65626525878906 104.59565734863281,107.39236450195312 C105.34385681152344,107.56788635253906 106.28861999511719,107.17201232910156 107.43267822265625,106.20480346679688 L107.89451599121094,104.35740661621094 L107.630615234375,104.093505859375 L105.25543212890625,105.74293518066406 L105.05751037597656,105.74293518066406 L104.925537109375,106.0068359375 C102.68232727050781,108.29362487792969 100.72544860839844,109.98788452148438 99.05357360839844,111.08711242675781 L99.97726440429688,109.96548461914062 L96.48045349121094,112.47264099121094 L97.60206604003906,112.27467346191406 C96.28253173828125,113.68132019042969 94.85345458984375,114.67100524902344 93.31356811523438,115.24368286132812 C91.77365112304688,115.77149963378906 90.41055297851562,116.65028381347656 89.22297668457031,117.88275146484375 L90.87240600585938,116.89308166503906 L89.48687744140625,119.46620178222656 L92.2579345703125,117.61885070800781 C90.85128784179688,119.51107788085938 89.13455200195312,121.13807678222656 87.1116943359375,122.50115966796875 L90.41055297851562,120.38986206054688 L90.41055297851562,121.11563110351562 C87.7279052734375,124.06216430664062 84.84605407714844,126.85565185546875 81.76753234863281,129.49473571777344 C79.65628051757812,128.87985229492188 78.11636352539062,127.86773681640625 77.14913940429688,126.45977783203125 C76.79681396484375,126.89920043945312 76.40097045898438,127.05357360839844 75.9615478515625,126.92164611816406 C74.94944763183594,125.82241821289062 71.739013671875,123.86424255371094 66.32888793945312,121.04965209960938 C60.875213623046875,118.27859497070312 57.026100158691406,115.90342712402344 54.782859802246094,113.92410278320312 L57.355987548828125,115.04571533203125 C55.77252960205078,113.24192810058594 53.99114227294922,111.83396911621094 52.011810302734375,110.82316589355469 C50.032508850097656,109.85595703125 48.317108154296875,108.55752563476562 46.86559295654297,106.9305419921875 L48.71295166015625,108.05215454101562 C46.99755096435547,105.58856201171875 45.28215026855469,103.7412109375 43.566734313964844,102.51005554199219 L43.368812561035156,102.51005554199219 L43.10490417480469,102.97187805175781 L45.01824188232422,104.81927490234375 L45.216163635253906,105.54501342773438 L44.556396484375,105.74293518066406 L41.719383239746094,102.24613952636719 L41.719383239746094,103.89558410644531 L41.059608459472656,103.63166809082031 C40.047515869140625,102.00466918945312 38.7939453125,100.68513488769531 37.29889678955078,99.67301940917969 C39.32177734375,99.84986877441406 40.79570007324219,100.48721313476562 41.719383239746094,101.58636474609375 L41.257530212402344,100.59671020507812 L42.64305877685547,101.05854797363281 L41.521461486816406,99.47509765625 L38.684425354003906,98.08956909179688 L39.146270751953125,98.74935913085938 C37.51927185058594,97.73728942871094 36.04534912109375,96.57211303710938 34.725791931152344,95.25257873535156 L33.60419464111328,95.97831726074219 C30.305328369140625,94.04254150390625 27.31390380859375,91.11712646484375 24.63127899169922,87.20333862304688 C21.948646545410156,83.24472045898438 19.969322204589844,79.32962036132812 18.693336486816406,75.45939636230469 C19.39665985107422,75.15193176269531 20.01287841796875,75.23904418945312 20.540687561035156,75.72329711914062 C20.84815216064453,76.47151184082031 20.936553955078125,77.32917785644531 20.804595947265625,78.29643249511719 C22.080604553222656,82.21017456054688 24.5653076171875,84.76217651367188 28.260032653808594,85.94978332519531 C28.83270263671875,87.04896545410156 29.293228149414062,88.45692443847656 29.645538330078125,90.17230224609375 L26.61060333251953,87.13734436035156 C28.10564422607422,89.68936157226562 29.88703155517578,92.08564758300781 31.954757690429688,94.32888793945312 L37.56280517578125,94.13096618652344 L37.56280517578125,93.86705017089844 L36.837066650390625,93.40518188476562 L29.381629943847656,83.64056396484375 L27.270370483398438,80.2757568359375 M14.272857666015625,57.05177307128906 L14.272857666015625,56.39198303222656 L14.470794677734375,57.05177307128906 L14.272857666015625,57.05177307128906 M17.5057373046875,41.94297790527344 C18.78173828125,41.547119140625 19.639450073242188,40.470367431640625 20.07886505126953,38.71009826660156 C20.254348754882812,39.897674560546875 19.83605194091797,41.52467346191406 18.825294494628906,43.5924072265625 C17.813194274902344,45.6165771484375 17.06633758544922,47.39796447753906 16.582054138183594,48.93656921386719 L16.845962524414062,57.05177307128906 L16.384140014648438,56.39198303222656 C17.043907165527344,58.54679870605469 17.264259338378906,60.482574462890625 17.043907165527344,62.19798278808594 L16.582054138183594,61.47221374511719 C15.307388305664062,58.48085021972656 14.977493286132812,55.27037048339844 15.592391967773438,51.839569091796875 L17.5057373046875,41.94297790527344 M14.272857666015625,47.287139892578125 C14.404808044433594,46.36344909667969 14.62518310546875,45.85807800292969 14.932624816894531,45.7696533203125 L15.8563232421875,44.977935791015625 L16.12023162841797,44.25218200683594 L15.8563232421875,47.74897766113281 L15.39447021484375,47.74897766113281 C15.482872009277344,49.3759765625 15.328483581542969,51.09138488769531 14.932624816894531,52.89520263671875 C15.108131408691406,51.48724365234375 14.955062866210938,50.3880615234375 14.470794677734375,49.59632873535156 C13.98651123046875,52.80677795410156 13.920547485351562,55.68867492675781 14.272857666015625,58.23933410644531 C15.240081787109375,60.791351318359375 16.516090393066406,63.23249816894531 18.099533081054688,65.56280517578125 C19.6829833984375,67.84957885742188 20.431167602539062,70.22474670410156 20.34276580810547,72.68833923339844 C21.35485076904297,73.084228515625 21.507919311523438,73.78752136230469 20.804595947265625,74.79963684082031 L18.429428100585938,72.68833923339844 L14.008949279785156,67.34420776367188 C12.996849060058594,65.32131958007812 12.425506591796875,61.97895812988281 12.293548583984375,57.315673828125 C12.1180419921875,52.608856201171875 12.469032287597656,48.95899963378906 13.34918212890625,46.36344909667969 L13.547103881835938,47.287139892578125 L14.008949279785156,44.977935791015625 L14.272857666015625,47.287139892578125 M22.849891662597656,38.90802001953125 L23.113800048828125,38.90802001953125 L23.047828674316406,39.2379150390625 L22.717933654785156,39.56781005859375 L22.849891662597656,39.369873046875 L22.849891662597656,38.90802001953125 M21.92621612548828,31.254653930664062 L22.65196990966797,31.254653930664062 C21.375961303710938,33.54144287109375 20.01287841796875,35.60917663574219 18.561386108398438,37.45652770996094 C17.154739379882812,39.30389404296875 16.186195373535156,41.722625732421875 15.658378601074219,44.714019775390625 L15.39447021484375,44.714019775390625 L15.658378601074219,41.94297790527344 L15.196533203125,42.14091491699219 L14.272857666015625,44.977935791015625 L14.008949279785156,44.977935791015625 L14.008949279785156,44.05426025390625 C15.812767028808594,38.90802001953125 18.451866149902344,34.64195251464844 21.92621612548828,31.254653930664062 M25.884849548339844,27.75787353515625 L27.270370483398438,26.768211364746094 L29.18370819091797,27.95581817626953 L29.18370819091797,28.879493713378906 L22.19012451171875,35.41123962402344 C22.45403289794922,33.695831298828125 23.070266723632812,32.31031799316406 24.037498474121094,31.254653930664062 L23.773590087890625,32.17835998535156 L25.686904907226562,29.80316162109375 L24.30139923095703,30.5289306640625 C24.476890563964844,29.825607299804688 25.00470733642578,28.90192413330078 25.884849548339844,27.75787353515625 M42.64305877685547,26.768211364746094 C42.203643798828125,27.38445281982422 41.67582702636719,27.62592315673828 41.059608459472656,27.49396514892578 L41.059608459472656,27.296051025390625 L41.98328399658203,26.768211364746094 L42.64305877685547,26.768211364746094 M105.05751037597656,15.420150756835938 L106.24508666992188,15.156242370605469 C107.12521362304688,15.112686157226562 107.74012756347656,15.265762329101562 108.09246826171875,15.618072509765625 L105.05751037597656,15.420150756835938 M119.30857849121094,97.36383056640625 L119.30857849121094,98.28749084472656 L118.58282470703125,98.55143737792969 L119.30857849121094,97.36383056640625 M133.4936981201172,74.53573608398438 L133.9555206298828,74.3377685546875 C134.30783081054688,73.1053466796875 134.1534423828125,72.1605224609375 133.4936981201172,71.50077819824219 L133.03184509277344,74.3377685546875 L133.4936981201172,74.53573608398438 M129.27113342285156,79.68194580078125 L129.7329864501953,77.76861572265625 C130.08529663085938,78.16445922851562 130.5682373046875,78.49435424804688 131.18447875976562,78.75825500488281 L133.03184509277344,74.53573608398438 L132.5699920654297,75.261474609375 C132.8339080810547,73.50250244140625 132.7454833984375,72.24894714355469 132.30609130859375,71.50077819824219 C131.1184844970703,75.02000427246094 129.49148559570312,78.2080078125 127.42378234863281,81.06747436523438 L129.27113342285156,79.68194580078125 M131.84426879882812,73.61204528808594 C132.01974487304688,74.27178955078125 131.80068969726562,74.82208251953125 131.18447875976562,75.261474609375 L131.84426879882812,73.61204528808594 M129.5350341796875,27.296051025390625 C131.1620330810547,28.308128356933594 132.32852172851562,29.780731201171875 133.03184509277344,31.716506958007812 C131.75584411621094,30.660873413085938 130.59066772460938,29.18695068359375 129.5350341796875,27.296051025390625 M127.42378234863281,23.799240112304688 C129.13917541503906,24.67938995361328 130.6131134033203,25.84453582763672 131.84426879882812,27.296051025390625 C129.82138061523438,26.6798095703125 128.3474578857422,25.514663696289062 127.42378234863281,23.799240112304688 " id="svg_5" stroke-width="0"/></g><g id="svg_6" type="text" text="Ajay" font-size="67.06016828067948" font-family="Brush-Script" font-id="1" fill="c7bf60" text-anchor="start" font-weight="normal" font-style="normal" lineHeight="1" shapeId="0" shapeVal="0" fill-opacity="1" display="null" elemBBoxWidth="137.50390625"><path id="svg_7" fill="#c7bf60" d="M74.13813781738281,195.5674591064453 C74.40637969970703,190.4039764404297 77.35694122314453,187.52044677734375 79.1675033569336,183.89932250976562 C79.1675033569336,183.89932250976562 64.68292999267578,184.30165100097656 64.68292999267578,184.30165100097656 C64.68292999267578,184.30165100097656 50.399513244628906,198.38389587402344 50.399513244628906,198.38389587402344 C48.253662109375,200.32858276367188 47.51600646972656,201.93797302246094 44.297210693359375,202.13917541503906 C41.816062927246094,202.27328491210938 41.816062927246094,200.26153564453125 43.090171813964844,198.51800537109375 C45.7054443359375,195.03099060058594 49.058349609375,191.74513244628906 53.618316650390625,190.06866455078125 C53.618316650390625,190.06866455078125 58.78179931640625,184.30165100097656 58.78179931640625,184.30165100097656 C55.96534729003906,184.636962890625 50.33245849609375,184.7710723876953 53.01478576660156,181.48521423339844 C55.63005828857422,178.26641845703125 59.653564453125,174.04176330566406 65.88998413085938,174.17587280273438 C66.4935073852539,174.17587280273438 66.8958511352539,174.17587280273438 66.96290588378906,174.64529418945312 C66.4935073852539,176.1205596923828 62.671180725097656,174.98056030273438 62.13471221923828,176.38877868652344 C62.73823547363281,177.72994995117188 65.42056274414062,176.72409057617188 67.29820251464844,176.8582000732422 C67.29820251464844,176.8582000732422 81.04513549804688,165.25711059570312 81.04513549804688,165.25711059570312 C81.04513549804688,165.25711059570312 87.01331329345703,160.56304931640625 87.01331329345703,160.56304931640625 C91.1038818359375,157.81365966796875 94.72502136230469,154.52780151367188 99.41911315917969,153.25369262695312 C102.77201843261719,153.65602111816406 101.43086242675781,157.88072204589844 100.08969116210938,160.22776794433594 C100.08969116210938,160.22776794433594 91.57329559326172,175.18173217773438 91.57329559326172,175.18173217773438 C93.58504486083984,175.18173217773438 95.93207550048828,174.77940368652344 97.4073486328125,175.44998168945312 C95.32855224609375,177.7969970703125 93.98738861083984,180.07699584960938 92.37799072265625,183.027587890625 C92.37799072265625,183.027587890625 87.01331329345703,183.22874450683594 87.01331329345703,183.22874450683594 C85.67215728759766,185.84400939941406 83.59335327148438,188.25811767578125 82.78866577148438,191.27572631835938 C82.85572052001953,191.87924194335938 83.39217376708984,192.34866333007812 84.06275177001953,192.4157257080078 C86.54391479492188,191.87924194335938 87.01331329345703,190.80630493164062 89.82977294921875,188.7945556640625 C89.82977294921875,188.7945556640625 91.03682708740234,190.4710235595703 91.03682708740234,190.4710235595703 C87.2145004272461,193.82394409179688 84.06275177001953,198.51800537109375 77.55812072753906,198.9874267578125 C75.74754333496094,199.1215362548828 74.07109069824219,197.3780517578125 74.13813781738281,195.5674591064453 C74.13813781738281,195.5674591064453 74.13813781738281,195.5674591064453 74.13813781738281,195.5674591064453 M93.249755859375,160.22776794433594 C93.249755859375,160.22776794433594 83.52629852294922,167.6712188720703 83.52629852294922,167.6712188720703 C83.52629852294922,167.6712188720703 73.80284881591797,176.1876220703125 73.80284881591797,176.1876220703125 C73.80284881591797,176.1876220703125 84.12982940673828,175.44998168945312 84.12982940673828,175.44998168945312 C84.12982940673828,175.44998168945312 93.249755859375,160.22776794433594 93.249755859375,160.22776794433594 M116.65309143066406,187.9228057861328 C116.65309143066406,187.9228057861328 116.51898193359375,190.73924255371094 116.51898193359375,190.73924255371094 C116.51898193359375,190.73924255371094 108.47196960449219,195.634521484375 108.47196960449219,195.634521484375 C108.47196960449219,195.634521484375 102.57083129882812,198.51800537109375 102.57083129882812,198.51800537109375 C102.57083129882812,198.51800537109375 96.80384826660156,207.436767578125 96.80384826660156,207.436767578125 C95.12736511230469,209.58262634277344 93.45091247558594,212.6002655029297 90.50035095214844,212.93553161621094 C89.22624206542969,213.06967163085938 88.5556640625,212.06378173828125 88.62271881103516,210.7896728515625 C89.02508544921875,204.01681518554688 95.06031036376953,200.5968017578125 98.94969177246094,196.97567749023438 C98.94969177246094,196.97567749023438 107.6002197265625,180.6134796142578 107.6002197265625,180.6134796142578 C104.31436157226562,182.2228546142578 101.36380004882812,184.30165100097656 97.67558288574219,185.50869750976562 C98.54734802246094,181.9546356201172 99.01675415039062,178.19935607910156 102.30259704589844,176.9252471923828 C105.11904907226562,175.78524780273438 107.66726684570312,173.16998291015625 111.28842163085938,173.16998291015625 C115.11074829101562,173.16998291015625 114.50721740722656,176.38877868652344 112.89781188964844,179.4734649658203 C112.89781188964844,179.4734649658203 106.86256408691406,190.5380859375 106.86256408691406,190.5380859375 C106.05787658691406,191.94630432128906 105.52139282226562,193.15335083007812 105.11904907226562,194.1592559814453 C105.11904907226562,194.1592559814453 113.43429565429688,189.80044555664062 113.43429565429688,189.80044555664062 C113.43429565429688,189.80044555664062 116.65309143066406,187.9228057861328 116.65309143066406,187.9228057861328 M115.31190490722656,163.3124237060547 C116.51898193359375,163.3124237060547 117.52482604980469,164.3183135986328 117.52482604980469,165.52537536621094 C117.39073181152344,168.61001586914062 115.24485778808594,171.15823364257812 112.42839050292969,171.35943603515625 C110.75193786621094,171.49354553222656 109.41078186035156,170.1523895263672 109.54490661621094,168.4088592529297 C109.74607849121094,165.65948486328125 112.36134338378906,163.5136260986328 115.31190490722656,163.3124237060547 C115.31190490722656,163.3124237060547 115.31190490722656,163.3124237060547 115.31190490722656,163.3124237060547 M150.24925231933594,187.9228057861328 C150.24925231933594,188.86160278320312 150.048095703125,189.8675079345703 150.1822052001953,190.73924255371094 C146.4940185546875,193.55572509765625 143.00697326660156,196.84156799316406 138.849365234375,199.18858337402344 C136.09999084472656,200.73095703125 133.0153045654297,199.8591766357422 133.0153045654297,196.84156799316406 C133.0153045654297,193.68983459472656 134.22235107421875,192.1474609375 135.5635223388672,189.0628204345703 C132.1435089111328,191.81219482421875 128.7235565185547,194.9639434814453 125.03536987304688,197.3109588623047 C119.67068481445312,200.73095703125 116.04954528808594,193.95803833007812 116.65309143066406,187.9228057861328 C119.93894958496094,180.81463623046875 128.656494140625,177.26055908203125 136.4352569580078,174.5782470703125 C140.5258026123047,173.16998291015625 144.54928588867188,173.16998291015625 145.6222381591797,176.79115295410156 C145.55519104003906,177.99819946289062 144.14697265625,178.13230895996094 143.2752227783203,178.53466796875 C145.35401916503906,179.20526123046875 145.6222381591797,181.48521423339844 144.21401977539062,183.29579162597656 C142.4034423828125,185.70989990234375 139.1846466064453,187.52044677734375 139.1846466064453,191.14161682128906 C139.1846466064453,192.4157257080078 140.25758361816406,193.35452270507812 141.66580200195312,193.0863037109375 C145.35401916503906,192.34866333007812 146.09165954589844,190.6721954345703 150.24925231933594,187.9228057861328 C150.24925231933594,187.9228057861328 150.24925231933594,187.9228057861328 150.24925231933594,187.9228057861328 M121.95068359375,189.39808654785156 C121.68243408203125,190.4039764404297 120.94479370117188,193.48866271972656 122.68832397460938,193.35452270507812 C129.39413452148438,191.14161682128906 134.8258819580078,184.636962890625 139.25169372558594,180.07699584960938 C133.28350830078125,181.88758850097656 127.58355712890625,183.89932250976562 123.22479248046875,187.52044677734375 C122.62126159667969,188.1239776611328 122.15185546875,188.72750854492188 121.95068359375,189.39808654785156 C121.95068359375,189.39808654785156 121.95068359375,189.39808654785156 121.95068359375,189.39808654785156 M175.59727478027344,174.64529418945312 C177.40786743164062,173.5052947998047 178.01138305664062,176.25466918945312 178.14549255371094,177.7969970703125 C176.3349151611328,183.6981658935547 172.37847900390625,187.8557586669922 169.2267303466797,192.61688232421875 C169.2267303466797,192.61688232421875 164.19740295410156,200.19448852539062 164.19740295410156,200.19448852539062 C169.15968322753906,195.7686309814453 174.457275390625,191.94630432128906 179.75491333007812,187.9228057861328 C179.6878204345703,188.86160278320312 179.6207733154297,189.80044555664062 179.6878204345703,190.73924255371094 C172.51263427734375,196.3050994873047 166.34324645996094,202.4744415283203 160.7773895263672,209.64967346191406 C159.83859252929688,210.8567352294922 158.56448364257812,212.33200073242188 157.22332763671875,212.6673126220703 C154.54100036621094,211.6614227294922 154.94332885742188,207.03440856933594 156.68685913085938,205.08970642089844 C156.68685913085938,205.08970642089844 166.0750274658203,189.33102416992188 166.0750274658203,189.33102416992188 C166.0750274658203,189.33102416992188 160.44212341308594,193.82394409179688 160.44212341308594,193.82394409179688 C158.76565551757812,195.03099060058594 156.55274963378906,196.90863037109375 154.80921936035156,197.3780517578125 C150.048095703125,196.37216186523438 149.1763458251953,188.86160278320312 151.5233612060547,184.30165100097656 C153.87042236328125,179.74168395996094 157.89390563964844,175.3158721923828 162.655029296875,173.23703002929688 C164.93502807617188,173.7735137939453 166.41030883789062,176.1205596923828 164.5326690673828,178.46762084960938 C161.9844512939453,181.75347900390625 158.56448364257812,184.70401000976562 155.2786407470703,187.3192901611328 C154.60804748535156,188.39222717285156 154.13864135742188,189.5992889404297 154.00453186035156,191.2086639404297 C159.3021240234375,190.4039764404297 161.9844512939453,187.52044677734375 165.2032470703125,184.435791015625 C165.2032470703125,184.435791015625 175.59727478027344,174.64529418945312 175.59727478027344,174.64529418945312 "/></g></g></svg>