<svg xmlns="http://www.w3.org/2000/svg" width="188" height="251" x="0" y="0" id="svgcontent" overflow="hidden" viewBox="0 0 188 251"><g style="pointer-events:all" mask=""><title style="pointer-events:inherit">Layer 1</title><g type="photobox" style="pointer-events:inherit" pathStr="M14.601049994547482,42.51000738664577 C25.161238912979186,121.9216838081613 25.161238912979186,201.96160715256562 14.601049994547482,281.3707783144785 C14.601049994547482,297.8012474150218 32.581207833316064,311.28202810565455 55.126011208270086,311.28202810565455 C162.71875355841996,303.489163339572 271.16448856742136,303.489163339572 378.7590719296162,311.28202810565455 C401.01722397602146,311.28202810565455 419.2822784287334,298.0127720033338 419.2822784287334,281.3707783144785 C408.7203923273227,201.96160715256562 408.7203923273227,121.92166257714774 419.2822784287334,42.51000738664577 C419.2822784287334,26.079538286102395 401.3038177729439,12.600010225271014 378.7590719296162,12.600010225271014 L378.7590719296162,12.81026095276805 C271.16448856742136,20.60312571885051 162.71875355841996,20.60312571885051 55.126011208270086,12.81026095276805 C32.86610444725946,12.81026095276805 14.601049994547482,26.080790915903705 14.601049994547482,42.72025811414282 " lockTransform="true" lockEdit="null" id="svg_1" display="null" transform=""><image xmlns:xlink="http://www.w3.org/1999/xlink" x="31.634275650312503" y="28.482587334291452" width="139.5336925983429" height="104.65026944875717" preserveAspectRatio="none" id="svg_5" xlink:href="http://192.168.0.139/work/print_commerce/pc-newtool-magento-21/designnbuy/assets/images/uploadedImage/admin_o_1aftj74n614d41qdaimogdk53pa.jpg" style="pointer-events:inherit" origWidth="1024" origHeight="768" image_id="15" templateSrc="http://192.168.0.139/work/print_commerce/pc-newtool-magento-21/designnbuy/assets/images/uploadedImage/admin_o_1aftj74n614d41qdaimogdk53pa.jpg#**#15" isAdminUploaded="true" filter="" colors="" clip-path="url(#svg_3)" transform=""/><path d="M36.000000839352985,41.193112269380414 C39.157505455763435,64.93726465477789 39.157505455763435,88.86926335377727 36.000000839352985,112.61266666462487 C36.000000839352985,117.52538957474297 41.376081875233886,121.55615337946959 48.11699544054299,121.55615337946959 C80.28730823389697,119.22608081504598 112.71266648892701,119.22608081504598 144.88352974629976,121.55615337946959 C151.53873434369322,121.55615337946959 156.99999968647185,117.58863558949122 156.99999968647185,112.61266666462487 C153.84198761104412,88.86926335377727 153.84198761104412,64.93725830668849 156.99999968647185,41.193112269380414 C156.99999968647185,36.280389359262294 151.6244261096083,32.25000009181062 144.88352974629976,32.25000009181062 L144.88352974629976,32.31286522119451 C112.71266648892701,34.642937785618095 80.28730823389697,34.642937785618095 48.11699544054299,32.31286522119451 C41.461266182131645,32.31286522119451 36.000000839352985,36.28076389653722 36.000000839352985,41.255977398764315 " id="svg_4" opacity="1" stroke="#f43434" shapeType="roundedSquare" fill="#000" fill-opacity="0" stroke-width="3" stroke-dasharray="none" cursor="move" transform=""/></g><g id="svg_9" display="null" clip-id="908" stroke="null" stroke-opacity="1" transform=""><path fill-rule="evenodd" d="M118.10158174083446,179.30175745700382 C118.10158174083446,177.25287246148844 117.87770785808934,175.16667515218222 118.18827799934849,173.1649792594024 C118.36715762134583,172.01378463685518 119.29008867717252,170.87356422424648 120.163635788276,170.0208681120261 C120.34580767325485,169.84308591102263 121.77464980724577,170.971234692699 122.65148918133079,171.45848961396774 C122.88743469500824,171.59018013322964 123.20349194123662,171.5770110813034 123.83011932872418,171.6966299696329 C123.66660360064077,170.2710800986236 123.51954918746503,169.0145330606669 123.3812741422401,167.75688860171647 C123.3296953555292,167.28499757436157 123.16727704843962,166.77798907520344 123.27811656881835,166.3456052036271 C124.24933414837434,162.5649898798187 124.26360062129436,162.56828214280017 128.34600671841116,164.01139074971115 C128.0508004710659,162.9743279105242 127.61731917849573,162.10517048339608 127.5964681796126,161.22503884632954 C127.56135070780945,159.7490076096031 127.61292949452033,158.2213975861659 127.98605263242888,156.81121160907043 C128.1561528864754,156.169220327669 129.25686614330553,155.26933511271312 129.8000895352606,155.35273910824566 C130.5562126000223,155.4690657335936 131.2717310880116,156.33054121376472 131.841292583819,157.00984480895704 C132.22319508967834,157.46527452140418 132.3219629791247,158.1577471685227 132.86408895008591,158.70426282345926 C132.86408895008591,157.47185904736727 132.6852093280886,156.20543522046603 132.90798578983987,155.0136360211464 C133.20428945817898,153.43225236901054 133.67069338056461,151.84208934892393 134.35438665973234,150.39239621604997 C134.63313159216986,149.80088630036556 135.7898133196863,149.138044020081 136.34071865859832,149.28509843325662 C137.01672999080907,149.46397805525402 137.6455522202843,150.37922716412373 137.98575272837735,151.11888891397768 C138.37862944417517,151.97268244719191 138.4356953358553,152.98230976153263 138.7265118992252,154.3398195309233 C139.76576958039982,151.10242759906993 140.4648267534814,148.33582927357764 141.59517037714542,145.75798735902725 C141.94853993716467,144.95248034954233 143.46737059265115,144.6561766812032 144.45285464512722,144.12721976216824 C144.77439899632486,144.90748608879454 145.33408370318762,145.6767782054825 145.3757857009539,146.4724084260227 C145.51515816717267,149.11499817921015 145.42407222468321,151.76856214233607 145.52503495611728,154.41334673751118 C145.5480807969881,155.0202205471095 145.983756931546,155.61063304180004 146.23067665516197,156.2087274834475 C146.41284854014083,156.18019453760746 146.59502042511969,156.15056417077352 146.77719231009854,156.12203122493344 C147.05813208452378,154.79963892734594 147.2227452336011,153.43773947397978 147.64964200020816,152.16473112111544 C148.18737828719404,150.55920420711493 148.8129082536877,148.95038503013285 149.66560436590808,147.49849705527117 C149.9772719281611,146.9695401362361 151.0472573971635,146.68311325684158 151.77265267409743,146.68201583584772 C152.1589448639321,146.68201583584772 152.87007366794603,147.5182506331604 152.88324271987221,147.992336502503 C153.0434661849741,153.64954172579257 153.4999933184151,159.34186442088532 153.04895328994334,164.95846506740253 C152.7186295707949,169.06611184737784 150.58743800074092,172.7797844905615 147.71329241785142,175.91072658601155 C141.99902130288172,182.1320062001393 136.20793071834262,188.2874405546362 130.66814954139485,194.66235910790272 C128.73449375023358,196.88792888342766 125.99423352859364,198.69867352327788 125.61123360174048,202.0381256075592 C125.56184965701726,202.4694120581417 125.51356313328796,202.90069850872425 125.43454882173086,203.59646341882421 C128.2691872488418,203.70071841323988 130.96225836774627,203.75339462094456 133.29427797967458,202.08860697327628 C136.49216275574943,199.80597130607111 139.98415635817565,200.024358083847 143.13924171549039,201.54428616032737 C144.63831879308762,202.2663891742797 145.98924403651526,204.47110795092152 146.30749612473133,206.20613054219626 C146.8276736758156,209.04296381129484 146.44796601194398,212.04441022947083 146.44796601194398,215.04366180565904 C146.2976193357867,214.98988817696045 145.80707215153637,214.9679397570835 145.5656395328897,214.71114324452293 C142.75843663062497,211.71298908932852 140.01268930401574,211.75688592908244 136.71713405948836,214.2743696889712 C134.11953856704875,216.25850684584947 131.11260504390356,217.7049077157419 128.30320729965112,219.4179818871396 C127.27711867040267,220.04351185363333 126.27188104003733,220.70964639689942 125.30395572346288,221.41967777991943 C120.82867291054825,224.7009665515268 115.78602344381389,226.73009796915284 110.5974169848977,228.61985692056015 C104.14348412007405,230.97053268938384 97.51506131722846,229.78861027900894 90.98430898283539,230.38012019469335 C85.58609511409409,230.86847253695595 80.14727666858036,231.46327471562194 74.87636363512553,232.66495070388612 C68.74946222646875,234.0597727870677 62.76522554701228,236.12402167649697 56.42652188654273,236.39069497800216 C53.713697189749,236.50482676136238 50.95368339021975,236.47958607850387 48.28036584920454,236.0823196787307 C47.08198212392186,235.90344005673336 45.89676745056538,234.79833711592784 44.97822607871407,233.8490679562488 C44.26599985370633,233.11269846937637 43.97737813232415,231.96479610981072 43.5,231.0001630562178 C45.14064438580367,228.27416930749786 48.00710802173623,228.40037272179046 50.61896998709591,227.9526249563002 C54.14388621933763,227.34794598868967 57.82024654873048,227.2019889965078 61.15860121201793,226.06067116290518 C64.33124530523425,224.9764192209828 67.19112441520373,222.92972906745513 70.11355652182257,221.18263484524817 C72.01867936714376,220.04351185363333 73.80418332413544,218.7002685571626 75.61383054299179,217.40860404740283 C76.27886766526404,216.93342075706636 76.86159821299765,216.3430082623758 77.66600780148867,215.64504851028812 C74.60091096566953,213.51056467725255 71.71908343582307,211.7349375092055 69.102831786488,209.63118146399773 C64.88544290712781,206.24015059300552 61.35833183289837,202.3958848515539 59.187633107065835,197.15240734294525 C57.7170889753087,193.60334784883878 57.827928495687416,190.20682987287734 57.87840986140445,186.49315722969368 C54.36117557611966,186.06955272606814 50.94600144326279,185.51535512417456 48.962961707378355,181.98604920795748 C50.24145716521201,181.3111352967406 51.16877790501407,180.82058811249027 51.62420761746125,180.5802529148374 C50.791265083130156,179.02849962953547 50.01319359849148,177.57770907566766 49.23512211385281,176.12691852179972 C50.52239693963722,175.6956320712173 51.80967176542164,175.2654430416286 53.1090182221384,174.82976690707068 C51.479348046273216,173.32739756649192 49.69603893126923,171.68455833870058 47.45839752481193,169.62360171225293 C49.12208775148643,168.93003164414057 50.06696722719008,168.53605750734897 51.09195843544465,168.10916074074186 C49.58410198989668,166.4915621958089 46.8976153969553,165.27342489263702 47.44083878891034,162.0129871199128 C48.05868680844712,161.87471207468786 48.67324256500234,161.736437029463 49.40741720988706,161.57072645939184 C48.628248304254555,159.68096750798452 45.30086785090556,157.68585614116773 49.47655473249951,155.668796354474 C49.259265375717504,155.08057870177117 49.140743908381836,154.12143275314747 48.62056635729759,153.49590278665374 C47.62301067388921,152.29751906137113 47.37828579226097,150.9795164477589 48.3835234226263,149.98415560633822 C48.784082085381044,149.58688920656505 50.221703587322736,150.23656243492337 51.353144631980626,150.43958531878536 C50.694692035671466,148.59372320713203 49.98027096867604,146.59092989335835 49.26475248068674,144.58594173759695 C49.54569225511199,144.40596469460576 49.827729450531066,144.22598765161456 50.10757180396246,144.04491318762956 C51.25986384750348,145.25975822782 52.41215589104455,146.4746032680104 53.87940775982014,148.02196686933695 C53.790516659318385,146.37364053657632 53.72576882068131,145.15001612843514 53.661020982044235,143.92748914128777 C53.86404386590624,143.83969546177985 54.065969328774386,143.75299920326586 54.26899221263639,143.6663029447518 C57.089364166827295,145.80078677778732 58.17690837173126,149.2280325415765 60.15446100264644,152.26569385254948 C61.13775021313482,150.0928002847292 58.7354956576002,147.32290969625535 61.621712871422034,145.3859616421126 C62.10677295070312,146.67652873087854 62.75973844204307,147.72127351702238 62.869480541427905,148.82088935285873 C63.37539161959212,153.91950729027934 65.57791555424627,158.41673852307093 68.32476030184932,162.49585235720616 C70.14867399362572,165.2031899490308 72.95258463290892,167.32560215113392 75.55456980932397,169.4150917234217 C79.7686664257026,172.7984406474569 84.27687186843269,175.81744580153452 88.47670201189132,179.21835346147122 C92.07404802972704,182.13090877914544 95.55506742221482,185.21905145583548 98.82099229990828,188.49595054346742 C101.35493737470472,191.03867498621463 103.47625215581408,193.9918348806612 106.02995080849979,197.06241882144963 C107.07030591066825,195.05633324469443 108.03823122724273,193.24888086782573 108.95348033611248,191.41509038710473 C110.54803304017449,188.22159529500527 112.0405255918086,184.97432657420723 113.70970292345234,181.82033863788632 C114.9464963835197,179.4894164469519 115.71139881623219,179.16019014879726 118.10158174083446,179.30175745700382 z" id="svg_10" stroke="null" transform=""/></g></g><defs><clipPath class="clippath" id="svg_3"><path d="M36.000000839352985,41.193112269380414 C39.157505455763435,64.93726465477789 39.157505455763435,88.86926335377727 36.000000839352985,112.61266666462487 C36.000000839352985,117.52538957474297 41.376081875233886,121.55615337946959 48.11699544054299,121.55615337946959 C80.28730823389697,119.22608081504598 112.71266648892701,119.22608081504598 144.88352974629976,121.55615337946959 C151.53873434369322,121.55615337946959 156.99999968647185,117.58863558949122 156.99999968647185,112.61266666462487 C153.84198761104412,88.86926335377727 153.84198761104412,64.93725830668849 156.99999968647185,41.193112269380414 C156.99999968647185,36.280389359262294 151.6244261096083,32.25000009181062 144.88352974629976,32.25000009181062 L144.88352974629976,32.31286522119451 C112.71266648892701,34.642937785618095 80.28730823389697,34.642937785618095 48.11699544054299,32.31286522119451 C41.461266182131645,32.31286522119451 36.000000839352985,36.28076389653722 36.000000839352985,41.255977398764315 " id="" opacity="1" stroke="#f43434" shapeType="roundedSquare" fill="#000" fill-opacity="0" stroke-width="3" stroke-dasharray="none" cursor="move" transform=""/></clipPath></defs></svg>