<svg xmlns="http://www.w3.org/2000/svg" width="187" height="239" id="svgcontent" overflow="hidden" x="0" y="0" viewBox="0 0 187 239"><g style="pointer-events:all" mask=""><title style="pointer-events:inherit">Layer 1</title><g stroke="null" display="null" id="svg_4" style="pointer-events:inherit"><path fill="#60cd42" stroke="#000000" id="svg_5" d="M87.73,96.0682 C87.0623,97.652 86.2779,99.1994 85.7514,100.83 C84.7476,103.94 83.9354,107.111 82.9637,110.231 C80.754,117.332 78.0787,124.254 73.7351,130.345 C71.5232,133.448 68.4948,135.744 64.6841,136.728 C62.3309,137.336 60.3801,136.044 59.0992,134.535 C57.3453,132.468 55.9402,129.986 54.8755,127.476 C51.7903,120.198 50.1359,112.547 49.3591,104.675 C48.7887,98.9051 50.1905,95.9569 55.2136,92.9927 C57.7776,91.4796 60.2389,89.7909 62.7097,88.1269 C63.1228,87.8487 63.3475,87.2912 63.8441,86.6106 C60.4625,86.3174 57.2747,86.1997 54.1435,85.7138 C51.938,85.3725 49.4521,85.0225 47.7475,83.7769 C46.0342,82.526 44.6548,80.3173 43.9828,78.2519 C42.8078,74.6403 41.9346,70.85 41.5943,67.0746 C41.2637,63.4063 39.6029,60.3715 38.1058,57.2446 C36.125,53.1108 37.6584,45.5943 41.6585,43.6467 C43.4595,42.7692 46.2108,42.8773 48.1969,43.5397 C52.9514,45.1245 57.6973,46.9523 62.1019,49.3236 C68.7462,52.9031 75.1616,56.899 79.167,63.753 C82.0927,68.76 85.3073,73.5991 88.3121,78.3846 C88.8429,77.5243 88.8429,77.5243 87.867,70.9517 C88.5732,72.1962 89.012,73.0694 89.5471,73.8773 C89.9312,74.4584 90.4449,74.9538 90.9007,75.4878 C91.3908,74.9977 91.8991,74.5237 92.3646,74.01 C92.5904,73.7618 92.7371,73.4407 92.8676,73.2331 C92.8676,75.3616 92.8676,77.4772 92.8676,79.5928 C93.0292,79.6078 93.1897,79.6227 93.3502,79.6377 C94.2716,77.9106 95.2325,76.2027 96.1079,74.453 C99.3675,67.9371 103.22,61.8001 108.573,56.8166 C110.91,54.641 113.637,52.7159 116.498,51.3044 C122.368,48.4076 128.369,45.7313 134.471,43.3674 C137.973,42.0105 142.409,43.0988 143.687,48.3049 C144.875,53.1471 144.178,57.1493 141.709,61.4191 C140.379,63.7156 140.691,66.912 139.981,69.629 C138.912,73.7211 137.873,77.8603 136.302,81.7715 C135.003,85.0086 131.395,85.0461 128.563,85.6271 C125.221,86.3131 121.736,86.2992 117.774,87.1585 C118.372,87.5694 118.973,87.9728 119.563,88.3912 C123.062,90.8728 126.691,93.1961 130.011,95.897 C132.508,97.927 133.85,100.557 132.639,104.088 C131.993,105.972 132.324,108.171 131.829,110.131 C130.287,116.239 128.842,122.397 126.787,128.338 C125.803,131.181 124.37,134.177 121.309,135.784 C119.156,136.917 114.248,136.348 112.23,134.563 C108.004,130.825 105.302,126.084 102.964,121.021 C99.8875,114.362 97.9881,107.345 96.0523,100.319 C95.6499,98.8569 94.8013,97.5193 93.6306,96.0607 C93.5536,98.3796 93.5803,100.707 93.3631,103.013 C93.2143,104.579 92.9639,106.224 92.3208,107.632 C91.5963,109.215 90.0265,109.134 89.4936,107.451 C88.8558,105.432 88.6503,103.254 88.4449,101.127 C88.2854,99.4765 88.4128,97.7996 88.4128,96.1335 C88.1848,96.1121 87.958,96.0896 87.73,96.0682 L87.73,96.0682 z" fill-rule="evenodd" style="pointer-events:inherit"/></g></g><defs/></svg>