<svg xmlns="http://www.w3.org/2000/svg" width="187" height="239" x="0" y="0" id="svgcontent" overflow="hidden" viewBox="0 0 187 239"><defs><clipPath class="clippath" id="svg_14"><path d="M30.74999237060547,31.607574462890625 C34.02491760253906,53.29926300048828 34.02491760253906,75.16256713867188 30.74999237060547,96.85359191894531 C30.74999237060547,101.34162902832031 36.32603073120117,105.02397918701172 43.3176155090332,105.02397918701172 C76.68437194824219,102.89534759521484 110.31565856933594,102.89534759521484 143.68295288085938,105.02397918701172 C150.5856475830078,105.02397918701172 156.24998474121094,101.3994140625 156.24998474121094,96.85359191894531 C152.97454833984375,75.16256713867188 152.97454833984375,53.29926300048828 156.24998474121094,31.607574462890625 C156.24998474121094,27.119487762451172 150.6745147705078,23.437496185302734 143.68295288085938,23.437496185302734 L143.68295288085938,23.49492645263672 C110.31565856933594,25.623577117919922 76.68437194824219,25.623577117919922 43.3176155090332,23.49492645263672 C36.414363861083984,23.49492645263672 30.74999237060547,27.119842529296875 30.74999237060547,31.665000915527344 " id="" opacity="1" stroke="#7ed78e" shapeType="roundedSquare" fill="#000" fill-opacity="0" stroke-width="3" stroke-dasharray="none" cursor="move"/></clipPath><filter id="svg_17" type="css_hue_rotate" color-interpolation-filters="sRGB"><feColorMatrix type="hueRotate" values="180"/></filter></defs><g style="pointer-events:all" mask=""><title style="pointer-events:inherit">Layer 1</title><g type="photobox" pathStr="M12.201049806011724,39.70721444783794 C23.38752054919746,113.80139903859617 23.38752054919746,188.48181440402914 12.201049806011724,262.5736628935447 C12.201049806011724,277.90389696426064 31.247545979374536,290.48198860386765 55.1293893591469,290.48198860386765 C169.10304723287663,283.2110579150394 283.9803451944499,283.2110579150394 397.95582941680186,290.48198860386765 C421.53399772358534,290.48198860386765 440.88226668166317,278.1012667810937 440.88226668166317,262.5736628935447 C429.6940170521375,188.48181440402914 429.6940170521375,113.80139135405261 440.88226668166317,39.70721444783794 C440.88226668166317,24.376940033268284 421.8375740750271,11.800010680874948 397.95582941680186,11.800010680874948 L397.95582941680186,11.996181708912445 C283.9803451944499,19.267225744758207 169.10304723287663,19.267225744758207 55.1293893591469,11.996181708912445 C31.549341545985044,11.996181708912445 12.201049806011724,24.37811000502552 12.201049806011724,39.903370106788316 " lockTransform="null" lockEdit="null" id="svg_2" display="null"><g clip-path="url(#svg_14)"><image xmlns:xlink="http://www.w3.org/1999/xlink" x="27.178036701307633" y="19.982945836952183" width="148.75139396677304" height="111.56354547507978" preserveAspectRatio="none" id="svg_16" xlink:href="http://192.168.0.222/work/jan_langius/print_commerce/source/designnbuy/assets/images/uploadedImage/o_1b1c0fo1rlm41n3q10qj1ocq1nhqk.jpg" origWidth="1024" origHeight="768" image_id="421" colors="" filter="url(#svg_17)" isAdminUploaded="false"/></g><path d="M30.74999237060547,31.607574462890625 C34.02491760253906,53.29926300048828 34.02491760253906,75.16256713867188 30.74999237060547,96.85359191894531 C30.74999237060547,101.34162902832031 36.32603073120117,105.02397918701172 43.3176155090332,105.02397918701172 C76.68437194824219,102.89534759521484 110.31565856933594,102.89534759521484 143.68295288085938,105.02397918701172 C150.5856475830078,105.02397918701172 156.24998474121094,101.3994140625 156.24998474121094,96.85359191894531 C152.97454833984375,75.16256713867188 152.97454833984375,53.29926300048828 156.24998474121094,31.607574462890625 C156.24998474121094,27.119487762451172 150.6745147705078,23.437496185302734 143.68295288085938,23.437496185302734 L143.68295288085938,23.49492645263672 C110.31565856933594,25.623577117919922 76.68437194824219,25.623577117919922 43.3176155090332,23.49492645263672 C36.414363861083984,23.49492645263672 30.74999237060547,27.119842529296875 30.74999237060547,31.665000915527344 " id="svg_15" opacity="1" stroke="#7ed78e" shapeType="roundedSquare" fill="#000" fill-opacity="0" stroke-width="3" stroke-dasharray="none" cursor="move"/></g></g></svg>