<svg xmlns="http://www.w3.org/2000/svg" width="187" height="240" x="0" y="0" id="svgcontent" overflow="hidden" viewBox="0 0 187 240"><defs><mask id="canvasMaskImageDef" maskUnits="objectBoundingBox" x="0" y="0"><image id="canvasMaskImage" preserveAspectRatio="none" style="pointer-events:none" x="-106" y="-81" width="400" height="344.82758620689657" xlink:href="http://192.168.0.222/work/jan_langius/print_commerce/source/designnbuy/uploads/productimage/5826bc835e1ff.png" xmlns:xlink="http://www.w3.org/1999/xlink"/></mask><clipPath class="clippath" id="svg_4"><path d="M57.6500883102417,37.125823974609375 C56.28766918182373,38.431495666503906 54.19177532196045,39.040632247924805 52.19985485076904,38.779497146606445 C41.40524196624756,37.3869571685791 30.9251127243042,42.87026405334473 27.57137966156006,51.57355499267578 C26.523432731628418,54.27176475524902 26.313594818115234,57.14372444152832 26.837260246276855,59.92883491516113 C27.15169906616211,61.669904708862305 26.41819190979004,63.323556900024414 24.845975875854492,64.45497703552246 C10.278600215911865,74.72506141662598 7.4492082595825195,92.56648445129395 18.453011512756348,105.62119483947754 L18.349024295806885,105.62119483947754 C20.130505561828613,107.79665565490723 22.33163547515869,109.79886054992676 24.741990089416504,111.45302772521973 L24.84658432006836,111.45302772521973 C26.418835639953613,112.58393287658691 27.15234375,114.32502174377441 26.837909698486328,115.97918128967285 C25.16102409362793,125.03003120422363 31.65861415863037,133.73379707336426 42.13875102996826,136.43148231506348 C45.38785457611084,137.30179023742676 48.846774101257324,137.47549629211426 52.200507164001465,137.0412082672119 L52.200507164001465,137.12905311584473 C54.296385765075684,136.86737251281738 56.28831768035889,137.4770679473877 57.65066432952881,138.7832736968994 C70.01756191253662,150.88022804260254 91.50218105316162,153.2299747467041 107.22209072113037,144.09175300598145 C109.84096431732178,142.61230659484863 112.25268459320068,140.78389930725098 114.24394130706787,138.7832736968994 L114.24394130706787,138.6958713531494 C115.60640621185303,137.3907413482666 117.70292568206787,136.77999305725098 119.694167137146,137.0412082672119 C130.59344387054443,138.43418312072754 141.07424068450928,133.03825569152832 144.32337093353271,124.3344898223877 C145.37062740325928,121.63574409484863 145.58045101165771,118.76432228088379 145.05802059173584,115.97917366027832 L145.16194820404053,115.97917366027832 C144.84757137298584,114.23816108703613 145.5823736190796,112.58442115783691 147.15392208099365,111.45302772521973 C161.72125911712646,101.18290138244629 164.55126094818115,83.34094429016113 153.54625606536865,70.28628730773926 C151.7654333114624,68.11088371276855 149.56372737884521,66.10863304138184 147.15392208099365,64.45497703552246 C145.5823736190796,63.323556900024414 144.84757137298584,61.58249092102051 145.16194820404053,59.92883491516113 C146.83882808685303,50.87803649902344 140.34194087982178,42.17373847961426 129.8612356185913,39.47551345825195 L129.75589656829834,39.47551345825195 C126.50748348236084,38.60575485229492 123.0485372543335,38.431495666503906 119.694167137146,38.866371154785156 L119.694167137146,38.779497146606445 C117.59764766693115,39.040632247924805 115.60640621185303,38.431495666503906 114.24394130706787,37.125823974609375 C101.87645626068115,25.02829933166504 80.39249324798584,22.67808508872986 64.67193126678467,31.816770553588867 C62.05172252655029,33.29618835449219 59.641364097595215,35.12361526489258 57.6500883102417,37.125823974609375 z" id="" opacity="1" stroke="#000000" shapeType="cloudMirror" fill="#000" fill-opacity="0" stroke-width="3" stroke-dasharray="none" cursor="move"/></clipPath><filter id="svg_7" type="css_hue_rotate" color-interpolation-filters="sRGB"><feColorMatrix type="hueRotate" values="180"/></filter></defs><g style="pointer-events:all" mask="url(#canvasMaskImageDef)"><title style="pointer-events:inherit">Layer 1</title><g type="photobox" style="pointer-events:inherit" pathStr="M105.91988372802734,31.49724693596363 C102.77593994140625,34.51024170219898 97.93942260742188,35.91589279472828 93.34282684326172,35.31329269707203 C68.4329833984375,32.09984512627125 44.24884796142578,44.75322265923023 36.50971221923828,64.8371002227068 C34.09144973754883,71.06353302299976 33.60722351074219,77.69092102348804 34.815643310546875,84.11789245903492 C35.5412483215332,88.13561554253101 33.848594665527344,91.95161743462086 30.22052001953125,94.56250305473804 C-3.395420789718628,118.26193542778492 -9.924576759338379,159.4331237822771 15.467999458312988,189.5584136992693 L15.228036880493164,189.5584136992693 C19.339014053344727,194.5785553008318 24.41838264465332,199.1988708525896 29.980560302734375,203.0160553008318 L30.221923828125,203.0160553008318 C33.85007858276367,205.6257507354021 35.5427360534668,209.64352722465992 34.817142486572266,213.46069641411304 C30.94753074645996,234.34659118950367 45.94148635864258,254.43156738579273 70.12564086914062,260.65678711235523 C77.62333679199219,262.66511841118336 85.6052017211914,263.06596679985523 93.3443374633789,262.06380005180836 L93.3443374633789,262.2664978057146 C98.18081665039062,261.66264648735523 102.77743530273438,263.0695983916521 105.92121887207031,266.08381958305836 C134.45928955078125,293.99895019829273 184.03758239746094,299.4212829619646 220.31314086914062,278.3337585479021 C226.35650634765625,274.91975708305836 231.9218292236328,270.70048828423023 236.5168914794922,266.08381958305836 L236.5168914794922,265.88212890923023 C239.6609344482422,262.8703796416521 244.4989013671875,261.46101684868336 249.09393310546875,262.06380005180836 C274.24530029296875,265.27824707329273 298.43096923828125,252.82652588188648 305.9287414550781,232.74154968559742 C308.34539794921875,226.51387329399586 308.82958984375,219.88772888481617 307.6240234375,213.46068115532398 L307.8638610839844,213.46068115532398 C307.13836669921875,209.44308777153492 308.8340148925781,205.62687988579273 312.4605712890625,203.0160553008318 C346.076416015625,179.31653137505054 352.6069641113281,138.1441070586443 327.21160888671875,108.01893921196461 C323.1021728515625,102.99893493950367 318.0214538574219,98.37850494682789 312.4605712890625,94.56250305473804 C308.8340148925781,91.95161743462086 307.13836669921875,87.9339019805193 307.8638610839844,84.11789245903492 C311.73345947265625,63.23210449516773 296.7411193847656,43.14590759575367 272.5556335449219,36.91943283379078 L272.31256103515625,36.91943283379078 C264.81646728515625,34.912364199757576 256.83453369140625,34.51024170219898 249.09393310546875,35.51376648247242 L249.09393310546875,35.31329269707203 C244.25596618652344,35.91589279472828 239.6609344482422,34.51024170219898 236.5168914794922,31.49724693596363 C207.9774627685547,3.580780938267708 158.4006805419922,-1.8426158875226974 122.12361907958984,19.245980456471443 C116.07717895507812,22.65991134941578 110.5149917602539,26.876914218068123 105.91988372802734,31.49724693596363 z" lockTransform="null" lockEdit="null" id="svg_1" display="null"><g clip-path="url(#svg_4)"><image xmlns:xlink="http://www.w3.org/1999/xlink" x="11.749996533891135" y="23.476577520370483" width="151.67153924703598" height="151.67153924703598" preserveAspectRatio="none" id="svg_6" xlink:href="http://192.168.0.222/work/jan_langius/print_commerce/source/designnbuy/assets/images/uploadedImage/582be5d4430f6.JPG" style="pointer-events:inherit" origWidth="144" origHeight="144" image_id="443" colors="" filter="url(#svg_7)"/></g><path d="M57.6500883102417,37.125823974609375 C56.28766918182373,38.431495666503906 54.19177532196045,39.040632247924805 52.19985485076904,38.779497146606445 C41.40524196624756,37.3869571685791 30.9251127243042,42.87026405334473 27.57137966156006,51.57355499267578 C26.523432731628418,54.27176475524902 26.313594818115234,57.14372444152832 26.837260246276855,59.92883491516113 C27.15169906616211,61.669904708862305 26.41819190979004,63.323556900024414 24.845975875854492,64.45497703552246 C10.278600215911865,74.72506141662598 7.4492082595825195,92.56648445129395 18.453011512756348,105.62119483947754 L18.349024295806885,105.62119483947754 C20.130505561828613,107.79665565490723 22.33163547515869,109.79886054992676 24.741990089416504,111.45302772521973 L24.84658432006836,111.45302772521973 C26.418835639953613,112.58393287658691 27.15234375,114.32502174377441 26.837909698486328,115.97918128967285 C25.16102409362793,125.03003120422363 31.65861415863037,133.73379707336426 42.13875102996826,136.43148231506348 C45.38785457611084,137.30179023742676 48.846774101257324,137.47549629211426 52.200507164001465,137.0412082672119 L52.200507164001465,137.12905311584473 C54.296385765075684,136.86737251281738 56.28831768035889,137.4770679473877 57.65066432952881,138.7832736968994 C70.01756191253662,150.88022804260254 91.50218105316162,153.2299747467041 107.22209072113037,144.09175300598145 C109.84096431732178,142.61230659484863 112.25268459320068,140.78389930725098 114.24394130706787,138.7832736968994 L114.24394130706787,138.6958713531494 C115.60640621185303,137.3907413482666 117.70292568206787,136.77999305725098 119.694167137146,137.0412082672119 C130.59344387054443,138.43418312072754 141.07424068450928,133.03825569152832 144.32337093353271,124.3344898223877 C145.37062740325928,121.63574409484863 145.58045101165771,118.76432228088379 145.05802059173584,115.97917366027832 L145.16194820404053,115.97917366027832 C144.84757137298584,114.23816108703613 145.5823736190796,112.58442115783691 147.15392208099365,111.45302772521973 C161.72125911712646,101.18290138244629 164.55126094818115,83.34094429016113 153.54625606536865,70.28628730773926 C151.7654333114624,68.11088371276855 149.56372737884521,66.10863304138184 147.15392208099365,64.45497703552246 C145.5823736190796,63.323556900024414 144.84757137298584,61.58249092102051 145.16194820404053,59.92883491516113 C146.83882808685303,50.87803649902344 140.34194087982178,42.17373847961426 129.8612356185913,39.47551345825195 L129.75589656829834,39.47551345825195 C126.50748348236084,38.60575485229492 123.0485372543335,38.431495666503906 119.694167137146,38.866371154785156 L119.694167137146,38.779497146606445 C117.59764766693115,39.040632247924805 115.60640621185303,38.431495666503906 114.24394130706787,37.125823974609375 C101.87645626068115,25.02829933166504 80.39249324798584,22.67808508872986 64.67193126678467,31.816770553588867 C62.05172252655029,33.29618835449219 59.641364097595215,35.12361526489258 57.6500883102417,37.125823974609375 z" id="svg_5" opacity="1" stroke="#000000" shapeType="cloudMirror" fill="#000" fill-opacity="0" stroke-width="3" stroke-dasharray="none" cursor="move"/></g></g></svg>