<svg xmlns="http://www.w3.org/2000/svg" width="242" height="137" viewBox="0 0 242 137"><g><title>Layer 1</title><g stroke="null" shapeVal="0" shapeId="0" lineHeight="1" font-style="normal" font-weight="normal" text-anchor="middle" fill="#0000FF" font-family="Brush-Script" font-size="120" text="5" type="numberText" id="numberText"><path d="m150.71999,3.92c-4.08,6.96 -5.16,11.16 -10.2,14.52c-7.2,2.28 -19.2,0.36 -28.56,0.6c-4.08,3.84 -7.2,7.44 -9.96,12.48c6.36,-1.56 9.48,-2.64 16.2,-2.64c11.16,-0.12 19.2,5.88 19.2,16.56c-0.24,22.2 -26.52,36.84 -51.48,36c-9.12,-0.24 -11.64,-0.96 -11.64,-9.72c0,-8.64 9.24,-9.96 15.36,-12.84c3,-1.44 6.72,-0.24 3.6,2.16c0,0 -8.28,6.36 -8.28,6.36c17.76,-2.76 35.28,-6.6 43.68,-19.32c3,-4.8 -3,-7.08 -8.04,-6.96c-8.64,0.12 -15.36,3.12 -23.4,3.6c-7.08,-1.32 -9.36,-12.72 -4.8,-18.96c3.96,-5.52 12.48,-16.2 19.68,-20.16c5.28,-2.88 15.24,-1.56 22.92,-1.56c0,0 15.72,-0.12 15.72,-0.12" stroke-width="4" fill="#0000FF" id="svg_7"/></g><g id="svg_4" display="null" stroke="null"><path fill="#2BA9E1" d="m63.82211,47.74408l-14.95399,-10.20437l21.32787,-6.24302c17.80838,-31.29669 54.15492,-14.97555 66.30226,14.78926c14.65686,35.87696 56.63365,48.96344 56.63365,48.96344c-29.87565,35.53363 -56.82148,41.95063 -74.79307,40.53421c-17.98082,-1.42719 -66.51163,-15.56059 -56.40887,-78.64818c0.52808,-3.27777 1.16547,-6.33232 1.89215,-9.19132l0,-0.00001l0,-0.00001z" id="svg_5" stroke-width="4" stroke="#e5c82a"/><path fill="#2B3277" d="m70.19599,31.29669c-2.54493,4.47249 -4.71113,9.92879 -6.37388,16.44739l-14.95399,-10.20437l21.32787,-6.24302zm23.76811,39.61508c0,0 49.88257,-10.28597 55.60367,17.47122c5.71957,27.75103 -40.33714,43.85817 -55.60367,-17.47122zm-9.59778,-40.3864c-0.3341,2.97602 1.19934,5.59794 3.43173,5.85812c2.2401,0.25095 4.33086,-1.96297 4.66186,-4.93437c0.34179,-2.97602 -1.19164,-5.59794 -3.43173,-5.85812c-2.24472,-0.24172 -4.32161,1.95835 -4.66186,4.93437z" id="svg_6" stroke-width="4" stroke="#e5c82a"/></g></g></svg>