<svg xmlns="http://www.w3.org/2000/svg" width="225" height="405" id="svgcontent" overflow="hidden" x="0" y="0" viewBox="0 0 225 405"><g style="pointer-events:all" mask=""><title style="pointer-events:inherit">Layer 1</title><g stroke="null" shapeVal="0" shapeId="0" lineHeight="1" font-style="normal" font-weight="normal" text-anchor="middle" fill="#7fff00" font-family="Brush-Script" font-size="30" text="Sac" type="nameText" id="nameText" fill-opacity="1" transform=""><path d="M98.20499,239.40502C97.60499,239.40502 97.63499,238.62502 98.08499,238.41502C98.08499,238.41502 99.88499,236.82502 99.88499,236.82502C99.88499,236.82502 98.41499,236.97502 98.41499,236.97502C94.69499,237.39502 91.06499,238.05502 89.02499,240.24502C88.66499,241.44502 90.52499,241.59502 91.57499,241.83502C91.57499,241.83502 95.92499,242.82502 95.92499,242.82502C98.11499,243.48502 101.11499,244.23502 101.11499,246.81502C101.11499,248.94502 99.76499,250.56502 97.06499,251.76502C94.36499,252.96502 90.61499,253.56502 85.78499,253.56502C83.26499,253.56502 80.86499,252.96502 82.09499,250.74502C82.81499,249.45502 84.07499,248.40502 85.72499,248.40502C85.93499,248.40502 85.96499,248.43502 85.96499,248.64502C85.87499,249.12502 85.27499,249.30502 84.94499,249.57502C90.22499,249.72502 94.66499,249.27502 97.90499,247.17502C98.95499,246.03502 96.88499,245.37502 95.86499,245.04502C93.70499,244.35502 91.18499,244.08502 88.84499,243.60502C85.12499,243.69502 85.24499,239.40502 86.77499,237.21502C88.93499,234.12502 94.60499,232.80502 99.64499,232.80502C101.32499,232.80502 102.46499,232.95502 103.12499,233.10502C104.56499,233.40502 104.20499,235.62502 103.66499,236.34502C102.76499,237.54502 100.18499,238.14502 98.83499,239.10502C98.50499,239.34502 98.29499,239.40502 98.20499,239.40502C98.20499,239.40502 98.20499,239.40502 98.20499,239.40502M118.24499,248.46502C118.24499,248.88502 118.15499,249.33502 118.21499,249.72502C116.56499,250.98502 115.00499,252.45502 113.14499,253.50502C111.91499,254.19502 110.53499,253.80502 110.53499,252.45502C110.53499,251.04502 111.07499,250.35502 111.67499,248.97502C110.14499,250.20502 108.61499,251.61502 106.96499,252.66502C104.56499,254.19502 102.94499,251.16502 103.21499,248.46502C104.68499,245.28502 108.58499,243.69502 112.06499,242.49502C113.89499,241.86502 115.69499,241.86502 116.17499,243.48502C116.14499,244.02502 115.51499,244.08502 115.12499,244.26502C116.05499,244.56502 116.17499,245.58502 115.54499,246.39502C114.73499,247.47502 113.29499,248.28502 113.29499,249.90502C113.29499,250.47502 113.77499,250.89502 114.40499,250.77502C116.05499,250.44502 116.38499,249.69502 118.24499,248.46502C118.24499,248.46502 118.24499,248.46502 118.24499,248.46502M105.58499,249.12502C105.46499,249.57502 105.13499,250.95502 105.91499,250.89502C108.91499,249.90502 111.34499,246.99502 113.32499,244.95502C110.65499,245.76502 108.10499,246.66502 106.15499,248.28502C105.88499,248.55502 105.67499,248.82502 105.58499,249.12502C105.58499,249.12502 105.58499,249.12502 105.58499,249.12502M129.04499,248.46502C129.04499,248.46502 129.01499,249.75502 129.01499,249.75502C126.91499,251.28502 124.72499,253.41502 121.39499,253.53502C117.85499,253.68502 117.34499,247.77502 119.44499,245.76502C121.30499,243.96502 123.67499,241.77502 126.91499,241.77502C129.13499,241.77502 127.69499,244.89502 126.91499,245.67502C126.37499,246.21502 125.89499,246.90502 125.05499,247.05502C124.30499,247.02502 124.09499,246.51502 123.97499,245.76502C122.92499,246.48502 121.84499,247.23502 120.91499,248.07502C119.50499,249.33502 120.73499,251.04502 122.47499,251.04502C125.23499,251.04502 127.24499,249.63502 129.04499,248.46502C129.04499,248.46502 129.04499,248.46502 129.04499,248.46502" stroke-width="4" fill="#7fff00" id="svg_3"/></g><g stroke="ull" yscale="4.02558" xscale="4.02558" elemBBoxHeight="151.58879" elemBBoxWidth="225" display="null" shapeVal="0" shapeId="0" lineHeight="1" font-style="normal" font-weight="normal" text-anchor="start" fill="2f3cb1" font-family="Brush-Script" font-size="18.70991" text="Hello @##@#@Sachin" type="text" id="svg_1" style="pointer-events:inherit"><path stroke="#ull" d="M63.18602,92.90057C60.37953,92.17891 58.05416,92.33927 55.16748,92.25908C52.60155,95.30612 49.55451,99.7965 51.7997,105.16892C51.7997,105.16892 43.38024,107.73485 43.38024,107.73485C38.1682,104.2067 44.98394,96.18816 46.42728,92.33927C41.29542,92.82038 36.56449,93.06093 31.91374,94.26372C28.22521,97.95225 24.13577,102.60299 21.32928,106.933C19.64539,109.57912 15.2352,107.81504 15.15501,104.92837C16.2776,101.23984 19.88594,97.95225 21.89058,95.14576C18.20205,95.4665 13.71168,95.54669 13.95223,91.77798C14.1126,88.89131 16.11723,87.12722 18.04168,86.00463C22.8528,87.28759 28.30539,84.08018 33.1967,83.59907C33.1967,83.59907 40.97467,75.66072 40.97467,75.66072C40.97467,75.66072 48.99321,66.67996 48.99321,66.67996C50.75729,64.59514 52.12044,63.55273 52.52136,61.22735C52.44117,59.94439 51.39877,59.78401 49.79506,59.78401C38.80967,59.78401 30.55058,64.35458 22.45187,67.80255C23.9754,68.20348 23.89521,69.80718 22.2915,70.44867C17.72093,72.13256 13.47111,74.37775 9.30148,76.46257C5.45259,78.38702 4.57055,73.41553 5.69314,69.80719C7.5374,63.87347 10.58445,62.18958 15.95685,60.10476C26.6215,55.93512 37.92763,51.92585 51.39876,51.44475C57.25229,51.2042 61.66247,54.73235 60.13896,60.9868C58.05414,69.56664 48.67246,75.17961 43.30005,81.7548C43.30005,81.7548 55.48822,80.39165 55.48822,80.39165C55.48822,80.39165 70.56305,61.62828 70.56305,61.62828C72.88843,59.06235 73.44972,57.61901 75.77509,56.73697C77.29862,56.81716 77.61935,59.38309 76.97787,60.90661C74.01102,67.88273 66.55378,73.97683 61.98321,80.31146C67.11507,80.39165 69.76118,80.55201 72.80823,82.31609C72.80823,82.31609 67.35562,87.2074 67.35562,87.2074C65.75192,88.89129 64.54913,90.97612 63.18599,92.90056C63.18599,92.90056 63.18599,92.90056 63.18599,92.90056M100.87309,93.46186C100.87309,93.46186 100.71272,96.82964 100.71272,96.82964C95.01956,100.91909 90.04807,106.93299 81.06732,106.93299C74.81286,106.93299 72.24693,103.24446 71.92619,96.90983C71.36489,85.76407 83.15213,75.7409 93.89697,75.7409C96.70346,75.7409 98.86846,76.86349 98.86846,79.42943C98.86846,88.73093 87.40196,91.29686 79.78436,94.26372C78.98251,97.95225 81.06732,100.27762 84.67567,100.19744C91.49142,100.11725 96.38272,96.26836 100.8731,93.46187C100.8731,93.46187 100.8731,93.46187 100.8731,93.46187M92.21309,81.35388C92.1329,79.83035 90.28864,80.47184 89.16605,80.95295C85.39734,82.71703 82.3503,86.40556 80.58623,90.33464C84.5955,88.81111 88.52458,86.32537 91.09051,83.59907C91.81217,82.71703 92.2131,81.99537 92.2131,81.35388C92.2131,81.35388 92.2131,81.35388 92.2131,81.35388M125.24945,93.46187C125.24945,94.58446 125.0089,95.78725 125.16926,96.90984C125.16926,96.90984 119.87703,100.99929 119.87703,100.99929C116.42906,103.16429 112.9811,106.53208 107.92941,106.53208C97.98643,106.53208 100.3118,91.05631 103.43903,83.83963C107.84922,73.5759 115.14608,65.23663 123.32498,58.58125C124.84851,57.37847 126.05128,56.73699 126.85313,56.73699C130.14072,57.61903 127.97572,63.39237 127.25406,66.03849C124.20702,76.94369 115.46682,83.35853 108.4907,90.65539C107.76904,94.82503 107.76904,100.11726 112.58015,99.71634C118.03276,99.23523 120.43831,96.74949 125.24943,93.46188C125.24943,93.46188 125.24943,93.46188 125.24943,93.46188M122.60331,66.11868C117.1507,70.52887 113.30181,76.62296 110.17458,83.35853C115.14607,78.30685 119.63644,73.17499 122.60331,66.11868C122.60331,66.11868 122.60331,66.11868 122.60331,66.11868M149.62576,93.46188C149.62576,94.58447 149.38521,95.78726 149.54557,96.90985C149.54557,96.90985 144.25334,100.9993 144.25334,100.9993C140.80537,103.1643 137.35741,106.53209 132.30572,106.53209C122.36274,106.53209 124.68811,91.05632 127.81534,83.83964C132.22553,73.57591 139.52239,65.23664 147.70129,58.58126C149.22482,57.37848 150.42759,56.737 151.22944,56.737C154.51703,57.61904 152.35203,63.39238 151.63037,66.0385C148.58333,76.9437 139.84313,83.35854 132.86701,90.6554C132.14535,94.82504 132.14535,100.11727 136.95646,99.71635C142.40907,99.23524 144.81462,96.7495 149.62574,93.46189C149.62574,93.46189 149.62574,93.46189 149.62574,93.46189M146.97962,66.11869C141.52701,70.52888 137.67812,76.62297 134.55089,83.35854C139.52238,78.30686 144.01275,73.175 146.97962,66.11869C146.97962,66.11869 146.97962,66.11869 146.97962,66.11869M181.53949,93.46189C181.53949,93.46189 181.37912,96.90986 181.37912,96.90986C177.85097,99.31542 175.20485,101.23987 169.75225,100.59839C166.30428,103.72562 163.65817,106.45192 157.96501,106.45192C147.38055,106.45192 147.78147,89.21207 154.27648,83.91984C158.92722,80.15112 163.73834,76.54279 171.51633,76.14187C173.60115,76.06168 175.76615,77.1041 175.84634,78.94836C175.84634,80.15114 174.88411,80.63225 174.00208,81.11336C176.16708,81.91521 176.80857,82.71706 176.80857,85.60374C176.80857,89.77338 174.96431,92.66005 172.95968,96.1882C177.04913,96.50894 178.73303,95.14579 181.5395,93.4619C181.5395,93.4619 181.5395,93.4619 181.5395,93.4619M164.78077,97.55135C162.53558,92.49967 165.26188,89.0517 167.50707,84.64151C162.61576,87.84893 155.39909,90.1743 155.39909,97.87209C155.39909,102.52285 163.25725,99.55598 164.78078,97.55135C164.78078,97.55135 164.78078,97.55135 164.78078,97.55135" stroke-width="0" fill="#2f3cb1" id="svg_8" style="pointer-events:inherit"/><path stroke="#ull" d="M46.34711,163.26163C44.74341,163.26163 44.82358,161.17681 46.02637,160.61551C46.02637,160.61551 50.83749,156.36569 50.83749,156.36569C50.83749,156.36569 46.90841,156.76662 46.90841,156.76662C36.96543,157.88921 27.26301,159.65329 21.81041,165.50682C20.84818,168.71424 25.81968,169.11516 28.62616,169.75664C28.62616,169.75664 40.25303,172.40276 40.25303,172.40276C46.10656,174.16684 54.12509,176.17148 54.12509,183.06741C54.12509,188.76057 50.51675,193.09057 43.30007,196.29799C36.0834,199.50541 26.06022,201.10911 13.15039,201.10911C6.41482,201.10911 0,199.50541 3.2876,193.57169C5.21205,190.12372 8.57983,187.31723 12.99003,187.31723C13.55133,187.31723 13.63152,187.39742 13.63152,187.95872C13.39097,189.24168 11.78726,189.7228 10.90522,190.44446C25.01784,190.84539 36.88526,189.64261 45.54528,184.02963C48.35177,180.98259 42.81898,179.21851 40.09267,178.33647C34.31932,176.49221 27.58376,175.77054 21.32931,174.48758C11.38633,174.72813 11.70707,163.26163 15.79653,157.40811C21.56988,149.14902 36.7249,145.62087 50.19603,145.62087C54.68641,145.62087 57.73345,146.0218 59.49753,146.42272C63.34642,147.22457 62.3842,153.15829 60.94087,155.08273C58.53532,158.29015 51.63937,159.89385 48.03104,162.45978C47.149,163.10127 46.5877,163.26163 46.34715,163.26163C46.34715,163.26163 46.34715,163.26163 46.34715,163.26163M99.91094,187.4776C99.91094,188.60019 99.67039,189.80298 99.83075,190.84538C95.42056,194.21316 91.25093,198.14225 86.27943,200.94873C82.99184,202.79299 79.30331,201.75058 79.30331,198.14224C79.30331,194.37352 80.74665,192.52927 82.35035,188.84074C78.2609,192.12834 74.17145,195.89705 69.76126,198.70354C63.34644,202.79299 59.01643,194.69427 59.7381,187.47759C63.66718,178.97794 74.09127,174.72812 83.39277,171.52071C88.28408,169.83682 93.0952,169.83682 94.37816,174.16683C94.29797,175.61017 92.61408,175.77053 91.57167,176.25165C94.05741,177.0535 94.37816,179.7798 92.69426,181.94481C90.52926,184.83148 86.68036,186.99649 86.68036,191.3265C86.68036,192.85003 87.96332,193.97262 89.64721,193.65188C94.0574,192.76984 94.93944,190.76521 99.91092,187.47761C99.91092,187.47761 99.91092,187.47761 99.91092,187.47761M66.07272,189.24169C65.75198,190.44447 64.86994,194.133 66.95476,193.97262C74.9733,191.3265 81.4683,183.54853 86.76054,178.09592C79.62404,180.26092 72.8083,182.66649 67.59625,186.99649C66.87459,187.71815 66.31329,188.43983 66.07272,189.24168C66.07272,189.24168 66.07272,189.24168 66.07272,189.24168M128.77763,187.4776C128.77763,187.4776 128.69744,190.92557 128.69744,190.92557C123.08447,195.01502 117.23094,200.70818 108.33037,201.02892C98.86851,201.42985 97.50535,185.63334 103.11833,180.26092C108.08982,175.4498 114.42446,169.59627 123.08447,169.59627C129.01818,169.59627 125.16929,177.93554 123.08447,180.02036C121.64113,181.4637 120.35817,183.30796 118.11298,183.70889C116.10835,183.6287 115.54705,182.26555 115.22631,180.26092C112.41982,182.18537 109.53315,184.19 107.04741,186.43519C103.2787,189.80297 106.5663,194.37354 111.21704,194.37354C118.59409,194.37354 123.96651,190.60482 128.77763,187.47761C128.77763,187.47761 128.77763,187.47761 128.77763,187.47761M152.03137,176.25166C155.88026,173.68573 159.96972,173.92628 160.77157,178.09592C159.80934,183.38815 152.91341,185.71353 151.871,190.92557C151.871,192.20853 152.4323,192.76983 153.71526,192.76983C158.20564,192.76983 159.88953,190.2039 164.21954,187.4776C164.21954,187.4776 164.13935,190.84538 164.13935,190.84538C157.24342,195.89706 153.79545,199.34503 146.8995,200.78837C141.12615,200.06671 144.41376,191.72742 146.41839,189.08131C146.41839,189.08131 151.871,181.78444 151.871,181.78444C144.7345,186.67575 138.64042,192.9302 132.62652,199.02429C132.22559,199.42522 131.82467,199.42522 131.50393,199.42522C128.53708,198.70356 128.69744,195.57633 128.69744,190.92557C128.69744,178.89777 137.35745,172.08201 143.05061,164.70496C146.65895,160.0542 151.71062,155.24309 155.71989,152.03568C158.60656,149.63012 160.69138,148.42734 161.89416,148.42734C163.3375,148.42734 164.86101,149.22919 164.86101,150.67253C164.86101,152.03568 163.49786,154.52142 160.85174,157.9694C153.15395,167.8322 143.13079,177.93555 134.15003,186.9965C134.15003,186.9965 134.06984,190.04354 134.06984,190.04354C139.84319,185.47297 145.85708,180.34111 152.03135,176.25166C152.03135,176.25166 152.03135,176.25166 152.03135,176.25166M187.47326,187.47761C187.47326,187.47761 187.39307,190.92558 187.39307,190.92558C187.39307,190.92558 180.09621,196.61874 180.09621,196.61874C177.61047,198.30263 174.88417,200.38746 171.27582,200.54782C164.78081,200.78837 163.09692,192.04817 165.02136,185.95409C166.86562,180.10056 172.4786,172.2424 179.61509,172.2424C182.74232,172.2424 183.3838,174.9687 181.45935,177.37426C178.57268,180.90241 174.56342,184.59094 171.356,187.71817C169.7523,190.60484 171.9173,193.81225 175.44545,193.49152C180.57731,192.93022 182.74231,190.68503 187.47324,187.47762C187.47324,187.47762 187.47324,187.47762 187.47324,187.47762M187.23269,161.01646C188.67603,161.01646 189.87881,162.21924 189.87881,163.66258C189.63826,167.27092 187.15251,170.47834 183.70454,170.71889C181.69991,170.87926 180.17639,169.19536 180.33676,167.11055C180.57731,163.82295 183.70454,161.25702 187.23269,161.01647C187.23269,161.01647 187.23269,161.01647 187.23269,161.01647M204.15179,175.0489C202.78864,180.26094 195.57197,182.90706 194.12863,188.03893C194.77012,190.12375 196.53418,187.95874 197.33605,187.0767C201.90662,181.94484 209.36384,176.1715 215.29756,172.24241C217.38238,170.87926 218.82571,170.23778 219.70775,170.23778C221.71238,170.95944 221.55201,174.40742 222.35387,176.41205C220.10868,181.38354 212.65144,183.86929 212.65144,190.44448C212.65144,191.88782 213.45329,192.68967 214.97682,192.5293C219.06627,192.12837 221.15109,190.04356 224.99998,187.47762C224.99998,188.60021 224.75943,189.803 224.91979,190.92559C219.62756,194.53393 215.5381,200.78839 207.67994,200.78839C202.38771,200.78839 203.10937,193.01042 205.43475,189.40207C205.43475,189.40207 210.32606,181.94483 210.32606,181.94483C204.31216,186.27484 199.42086,193.41133 194.12863,198.14226C189.63825,202.15153 186.67139,196.298 187.39306,189.80299C188.19491,182.42594 192.52492,176.73277 197.97752,173.76592C200.22271,173.20462 203.99142,173.04426 204.15179,175.04888C204.15179,175.04888 204.15179,175.04888 204.15179,175.04888" stroke-width="0" fill="#2f3cb1" id="svg_9" style="pointer-events:inherit"/><rect stroke="null" opacity="0" fill="#2f3cb1" height="56.79878" width="176.29865" y="51.43319" x="5.24091" id="svg_10" style="pointer-events:inherit"/><rect stroke="null" opacity="0" fill="#2f3cb1" height="56.22234" width="222.60024" y="145.62086" x="2.39974" id="svg_11" style="pointer-events:inherit"/></g><g stroke="null" yscale="3.8" xscale="3.8" elemBBoxHeight="38.68362" elemBBoxWidth="212.39198" display="null" shapeVal="0" shapeId="0" lineHeight="1" font-style="normal" font-weight="normal" text-anchor="start" fill="0" font-family="Brush-Script" font-size="12.99183" text="How R U" type="text" id="svg_12" style="pointer-events:inherit"><path stroke="#25a280" d="M40.55002,342.70578C38.71045,342.23275 37.18623,342.33787 35.29409,342.28531C33.61219,344.28256 31.61494,347.22588 33.0866,350.74735C33.0866,350.74735 27.56788,352.42925 27.56788,352.42925C24.15153,350.11665 28.61907,344.86072 29.56513,342.33788C26.20134,342.65323 23.10035,342.81091 20.05191,343.59931C17.63419,346.01703 14.95366,349.06547 13.11409,351.90367C12.01034,353.63813 9.11959,352.48182 9.06703,350.58969C9.80286,348.17197 12.16803,346.01704 13.482,344.17747C11.06428,344.38771 8.12095,344.44026 8.27863,341.96998C8.38375,340.07785 9.69773,338.92154 10.95915,338.18571C14.11271,339.02665 17.68674,336.92428 20.89285,336.60893C20.89285,336.60893 25.9911,331.40556 25.9911,331.40556C25.9911,331.40556 31.24703,325.51893 31.24703,325.51893C32.40334,324.15239 33.29684,323.46912 33.55963,321.9449C33.50707,321.10396 32.8238,320.99884 31.77261,320.99884C24.57199,320.99884 19.15839,323.99472 13.8499,326.25477C14.84853,326.51756 14.79596,327.56875 13.74478,327.98923C10.7489,329.09298 7.96326,330.56463 5.23018,331.93117C2.70734,333.1926 2.12918,329.93392 2.86502,327.56876C4.07389,323.67938 6.07114,322.57563 9.59261,321.20909C16.58299,318.47601 23.99385,315.84804 32.82381,315.53269C36.66064,315.37501 39.5514,317.68762 38.55277,321.78724C37.18623,327.41108 31.0368,331.09023 27.51533,335.40008C27.51533,335.40008 35.50433,334.50658 35.50433,334.50658C35.50433,334.50658 45.38547,322.20771 45.38547,322.20771C46.90969,320.52581 47.2776,319.57975 48.80182,319.00159C49.80045,319.05415 50.01069,320.73605 49.5902,321.73467C47.64551,326.30732 42.75749,330.30183 39.76162,334.45401C43.12541,334.50657 44.85987,334.61169 46.85712,335.76799C46.85712,335.76799 43.28309,338.97411 43.28309,338.97411C42.2319,340.07786 41.44352,341.44439 40.55001,342.70582C40.55001,342.70582 40.55001,342.70582 40.55001,342.70582M67.30267,343.07373C67.30267,343.07373 67.19755,345.33378 67.19755,345.33378C64.88495,346.91056 63.15049,348.17197 59.57646,347.7515C57.31641,349.80131 55.58196,351.58833 51.85025,351.58833C44.91243,351.58833 45.17522,340.28809 49.43253,336.81918C52.48097,334.3489 55.63452,331.98372 60.73277,331.72093C62.09931,331.66837 63.51842,332.35164 63.57096,333.5605C63.57096,334.34888 62.94025,334.66425 62.36209,334.9796C63.78119,335.50519 64.20166,336.03079 64.20166,337.92292C64.20166,340.656 62.99279,342.54813 61.67882,344.86074C64.35934,345.07098 65.46309,344.17747 67.30266,343.07372C67.30266,343.07372 67.30266,343.07372 67.30266,343.07372M56.31777,345.75424C54.84611,342.443 56.63312,340.18296 58.10479,337.2922C54.89867,339.39457 50.16835,340.91879 50.16835,345.96448C50.16835,349.01292 55.31916,347.06823 56.31778,345.75424C56.31778,345.75424 56.31778,345.75424 56.31778,345.75424M100.46756,345.33377C98.41775,346.85799 94.47581,347.75149 92.37344,345.8068C92.37344,345.8068 88.06358,349.64363 88.06358,349.64363C86.69704,350.69482 85.27793,352.06135 83.17557,352.06135C80.28481,352.06135 79.96945,348.3822 80.49505,345.17608C78.07733,347.27845 76.29031,351.37807 72.40093,351.37807C68.09107,351.37807 66.19894,345.70167 67.77572,341.2867C69.0897,337.71267 71.9279,335.08471 74.55587,332.7721C75.44937,331.98372 76.55312,331.24788 77.81455,331.19532C79.23365,331.14276 80.91555,331.66835 81.02067,332.7721C79.8118,337.44988 75.08148,339.81504 72.08559,342.75835C71.8228,343.8621 70.77161,346.12214 72.19071,346.64773C78.1299,343.33649 82.49233,338.13313 86.74963,333.19256C87.74826,331.98369 89.69295,332.77209 90.21854,333.87583C88.74688,337.76521 84.96261,341.12901 84.33191,345.91189C84.91006,348.38217 87.38035,345.91189 88.27385,345.07095C88.27385,345.07095 90.2711,343.12626 90.2711,343.12626C89.69295,338.60617 93.21442,336.13588 95.6847,333.82327C97.31404,332.24649 98.7857,333.66559 98.73314,335.7154C98.62802,338.86896 96.57821,340.97133 95.21167,343.02114C96.31542,344.59792 99.0485,344.28257 100.52016,343.0737C100.4676,343.86208 100.41504,344.54536 100.4676,345.33375C100.4676,345.33375 100.4676,345.33375 100.4676,345.33375M120.38756,342.28531C117.07632,341.70716 117.54937,338.39593 120.12477,336.81915C121.59643,335.92565 123.48856,335.29493 125.95885,335.03213C125.95885,335.03213 133.73762,323.88957 133.73762,323.88957C133.73762,323.88957 126.85235,325.30867 126.85235,325.30867C126.85235,325.30867 122.59505,326.72777 122.59505,326.72777C124.06671,326.83289 126.32676,326.67521 126.85235,327.62127C126.22164,328.67246 123.85647,328.30454 122.2797,328.6199C120.65036,328.93525 118.96846,329.09293 117.12889,329.09293C113.34462,328.98781 116.02514,324.15236 117.12889,322.68071C121.64898,316.58384 132.58131,316.00568 142.67269,316.00568C147.19278,316.00568 150.71425,316.53127 153.2371,317.7927C156.44322,319.36948 157.38928,321.31417 156.60089,324.94076C154.07805,336.13588 139.36146,335.55773 127.4305,338.18569C127.4305,338.18569 147.24534,344.91328 147.24534,344.91328C149.97842,346.12215 150.81937,347.01565 150.92449,350.6948C150.97705,353.05996 149.55795,353.21764 147.5607,352.42926C147.5607,352.42926 133.3697,346.85798 133.3697,346.85798C133.3697,346.85798 124.17183,343.65186 124.17183,343.65186C124.17183,343.65186 119.7043,350.01153 119.7043,350.01153C119.91454,352.27158 117.75961,353.533 115.7098,353.7958C114.23814,353.42789 114.55349,351.85111 115.34189,350.37945C115.34189,350.37945 117.65449,346.38495 117.65449,346.38495C117.65449,346.38495 120.38757,342.28533 120.38757,342.28533M151.23986,323.20632C147.08768,322.31282 142.04199,322.94353 136.7335,323.52167C136.57582,325.20357 135.99767,326.41243 135.20928,327.46361C135.20928,327.46361 130.95198,333.77072 130.95198,333.77072C130.95198,333.77072 135.36695,332.87722 135.36695,332.87722C141.77917,331.30044 149.19003,329.77622 152.60638,325.30869C153.39476,324.2575 152.7115,323.52167 151.23984,323.20632C151.23984,323.20632 151.23984,323.20632 151.23984,323.20632M199.75203,345.49144C200.4353,349.69618 205.79634,346.12215 207.42568,344.86073C207.42568,344.86073 212.15602,341.07646 212.15602,341.07646C212.47137,342.86348 212.62905,343.28395 211.10483,344.65049C207.63592,347.75149 203.22094,352.32414 197.49199,352.32414C194.70634,352.32414 192.91934,349.59106 193.76028,346.38495C195.12682,341.2867 198.38549,337.39732 200.6981,333.2977C200.6981,333.2977 189.39786,343.86211 189.39786,343.86211C186.13918,346.59519 182.03956,350.5897 178.30786,351.4832C174.99662,351.37808 172.47378,347.2259 174.31336,343.70443C178.20274,336.1359 184.7201,331.03765 189.76578,324.67798C190.18625,324.20495 190.02857,323.67935 189.50299,323.57423C183.24844,325.36125 177.04644,330.72229 170.00351,331.72091C168.05882,331.56323 168.68953,329.51342 169.47792,328.09432C171.10726,325.151 173.99801,320.78858 177.72972,319.36948C182.4075,317.58246 188.39925,315.53265 194.44356,315.26986C198.28039,315.11218 198.49062,320.63091 196.49337,323.31142C192.60399,328.67247 186.55967,334.5591 182.72285,340.13038C181.6191,341.60204 181.09351,342.65322 181.09351,343.12626C181.09351,343.54673 181.72422,343.9672 182.1447,343.9672C183.0382,343.9672 184.82522,342.91601 187.45319,340.81364C190.08115,338.71127 192.86679,336.34611 195.75755,333.61302C195.75755,333.61302 205.1131,324.67794 205.1131,324.67794C207.37315,322.41789 208.84481,320.94623 209.52807,320.15785C210.5267,319.10666 210.99973,318.26572 212.36626,318.26572C213.7328,318.26572 214.52119,320.05274 214.46863,321.62951C213.41744,325.57145 208.52944,330.6697 206.16427,334.13862C203.95678,337.44986 200.27764,341.54948 199.75205,345.49142C199.75205,345.49142 199.75205,345.49142 199.75205,345.49142" fill="#000000" id="svg_13" stroke-width="3" style="pointer-events:inherit"/><rect stroke="#25a280" opacity="0" fill="#000000" height="38.52925" width="211.90247" y="315.26651" x="2.56861" id="svg_14" stroke-width="3" style="pointer-events:inherit"/></g></g></svg>