<svg xmlns="http://www.w3.org/2000/svg" width="187" height="239" x="0" y="0" id="svgcontent" overflow="hidden" viewBox="0 0 187 239"><defs/><g style="pointer-events:all" mask=""><title style="pointer-events:inherit">Layer 1</title><g id="svg_4" display="null" clip-id="1"><path fill="#2BA9E1" d="M142.1171729146954,78.83056907100763 L152.87124337270143,71.49214986972038 L137.53343133785165,67.00253074847933 C124.72661429370419,44.49568268302937 98.58822084824169,56.232950995756255 89.85252594114172,77.63813118996222 C79.31214850565084,103.43884191289544 49.124762451738206,112.84991919659842 49.124762451738206,112.84991919659842 C70.60967328876359,138.40370027525933 89.98760580277121,143.01846044153717 102.91177538150805,141.99985872736943 C115.84258212566965,140.97350236584316 150.74323607147562,130.80953009504083 143.47789341603857,85.44045777766041 C143.09811887400429,83.08326509074686 142.6397481026288,80.886617308317 142.1171729146954,78.83056907100763 z" id="svg_5" stroke-width="0"/><path fill="#2B3277" d="M137.53343133785165,67.00253074847933 C139.3635958406412,70.2188977270107 140.92139951939316,74.14274929042404 142.1171729146954,78.83056907100763 L152.87124337270143,71.49214986972038 L137.53343133785165,67.00253074847933 zM120.44069858375224,95.49147971543061 C120.44069858375224,95.49147971543061 84.56793694484077,88.09437578107645 80.45365630098786,108.05580317995191 C76.34045927597981,128.01281144572567 109.46187880470461,139.59615508784918 120.44069858375224,95.49147971543061 zM127.34289347380582,66.44781948917807 C127.58316902110892,68.58801750240855 126.48040059947562,70.47354815555263 124.87498541772766,70.66065865327982 C123.26403362094425,70.84113198558225 121.76047861061306,69.24900806622827 121.52242109563304,67.11212863571018 C121.27664279638338,64.97194755402415 122.37939428647223,63.08641690088007 123.99034608325564,62.89930640315288 C125.60461646275144,62.725470236275214 127.09821572494548,64.30763840749205 127.34289347380582,66.44781948917807 z" id="svg_6" stroke-width="0"/></g></g></svg>