<?xml version="1.0"?>
<svg xmlns="http://www.w3.org/2000/svg" width="202" height="155"><g><title>Layer 1</title><g clip-id="913" display="null" id="svg_4"><path id="svg_5" d="m53.79567,96.39614c-2.80595,0.10004 -4.39719,2.85598 -7.48723,2.37557c0.7843,-1.04478 1.25621,-2.14151 2.08865,-2.69741c2.80406,-1.8744 3.05794,-4.76152 3.28918,-7.64863c0.16894,-2.11602 -0.04436,-4.2679 0.1982,-6.37072c0.36525,-3.15797 0.43415,-6.51322 1.61862,-9.37579c1.72151,-4.1622 4.43307,-7.68544 9.32956,-8.98601c6.74163,-1.79041 13.55121,-1.01364 20.3457,-1.11086c3.73937,-0.05379 7.48157,-0.05663 11.21623,-0.22557c3.86301,-0.17461 7.52404,-1.23544 10.38,-3.92625c1.79042,-1.68658 3.51003,-3.63649 4.64354,-5.7931c2.27647,-4.32736 4.10274,-8.88974 6.16873,-13.33036c1.1524,-2.47655 3.45435,-3.41375 5.8988,-3.95362c4.12634,-0.91078 7.22959,1.01743 9.60799,4.0867c1.0278,1.32605 2.1198,1.73566 3.59308,1.69508c1.15996,-0.03115 2.31895,-0.15856 3.47792,-0.1595c2.07545,-0.00189 2.59737,0.57383 2.5181,2.61813c-0.03964,1.02781 -0.10571,2.05656 -0.08118,3.08437c0.10005,4.19145 -0.65781,4.80776 -5.45331,5.68173c-0.62859,0.1142 -1.29207,0.12835 -1.9301,0.07456c-2.32365,-0.19349 -3.44962,0.75976 -4.19429,3.09098c-1.20996,3.7875 -3.31844,7.29847 -4.41891,11.10863c-1.18542,4.10181 -1.55446,8.43199 -2.46993,12.62251c-0.38508,1.76492 -1.01556,3.5742 -1.97164,5.08807c-0.89754,1.42044 -1.35341,2.82672 -1.35152,4.42363c0.00755,4.89931 0.04153,9.79958 0.09818,14.69888c0.02735,2.40294 0.3322,4.6426 3.03339,5.71194c0.63612,0.25199 1.56199,1.46008 1.44872,1.63184c-0.55682,0.84566 -1.31281,1.90933 -2.19056,2.13113c-3.72334,0.9372 -4.9399,1.56296 -5.67229,-3.42602c-0.70031,-4.77189 -2.71439,-9.04548 -4.35852,-13.46156c-0.68993,-1.85458 -1.79606,-3.59685 -2.96074,-5.21171c-0.50021,-0.6937 -1.61767,-1.29208 -2.47559,-1.32228c-6.89453,-0.24162 -13.79754,-0.24917 -20.69019,-0.51531c-3.31937,-0.12837 -6.63024,-0.59554 -9.92982,-1.03442c-1.70262,-0.22651 -2.8484,0.42473 -3.76768,1.73094c-2.89088,4.10748 -6.51323,7.45138 -10.43664,10.5735c-2.5464,2.02635 -5.08902,4.22071 -5.88277,7.75056c-0.47001,2.0896 -0.51343,3.76487 1.62053,4.94558c0.51532,0.28596 0.78335,1.01835 1.16467,1.54499c-0.58516,0.35582 -1.13258,0.90134 -1.76305,1.02687c-0.99666,0.1982 -2.05466,0.1982 -3.07776,0.13873c-2.86258,-0.1661 -3.51002,-0.77393 -3.56572,-3.59307c-0.0689,-3.41471 -0.22745,-6.85679 0.13214,-10.23561c0.13306,-1.25809 1.59031,-2.3935 2.49637,-3.54401c0.53231,-0.68237 1.17033,-1.2798 1.76114,-1.91309z" fill-rule="evenodd"></path></g></g></svg>
