<svg xmlns="http://www.w3.org/2000/svg" width="225" height="175" id="svgcontent" overflow="hidden" x="0" y="0" viewBox="0 0 225 175"><g style="pointer-events:all"><title style="pointer-events:inherit">Layer 1</title><g id="svg_4" display="null" stroke="null" style="pointer-events:inherit"><path fill="#2BA9E1" d="M46.54436,116.87172L34.78691,108.84862L51.55577,103.9401C65.55746,79.33334 94.13462,92.1657 103.68536,115.56803C115.20919,143.77599 148.21309,154.06512 148.21309,154.06512C124.72361,182.00314 103.53768,187.04845 89.40767,185.9348C75.2704,184.81268 37.11346,173.70042 45.05667,124.09833C45.47187,121.52121 45.97301,119.1196 46.54436,116.87173L46.54436,116.87172z" id="svg_5" stroke-width="4" stroke="#e5c82a" style="pointer-events:inherit"/><path fill="#2B3277" d="M51.55577,103.9401C49.55484,107.45656 47.85168,111.74653 46.54436,116.87172L34.78691,108.84862L51.55577,103.9401zM70.24325,135.08712C70.24325,135.08712 109.463,126.99986 113.96117,148.82372C118.45813,170.64273 82.24643,183.30684 70.24325,135.08712zM62.69708,103.33365C62.4344,105.67352 63.64005,107.73498 65.39525,107.93955C67.15651,108.13686 68.80035,106.39618 69.0606,104.05994C69.32933,101.72007 68.12368,99.65861 66.36243,99.45404C64.59754,99.26399 62.9646,100.99378 62.69708,103.33365z" id="svg_6" stroke-width="4" stroke="#e5c82a" style="pointer-events:inherit"/></g><g stroke="null" shapeVal="0" shapeId="0" lineHeight="1" font-style="normal" font-weight="normal" text-anchor="middle" fill="#0000FF" font-family="Brush-Script" font-size="120" text="5" type="numberText" id="numberText" style="pointer-events:inherit"><path d="M150.71999,3.92C146.63999,10.88 145.55999,15.08 140.51999,18.44C133.31999,20.72 121.31999,18.8 111.95999,19.04C107.87999,22.88 104.75999,26.48 101.99999,31.52C108.35999,29.96 111.47999,28.88 118.19999,28.88C129.35999,28.76 137.39999,34.76 137.39999,45.44C137.15999,67.64 110.87999,82.28 85.91999,81.44C76.79999,81.2 74.27999,80.48 74.27999,71.72C74.27999,63.08 83.51999,61.76 89.63999,58.88C92.63999,57.44 96.35999,58.64 93.23999,61.04C93.23999,61.04 84.95999,67.4 84.95999,67.4C102.71999,64.64 120.23999,60.8 128.63999,48.08C131.63999,43.28 125.63999,41 120.59999,41.12C111.95999,41.24 105.23999,44.24 97.19999,44.72C90.11999,43.4 87.83999,32 92.39999,25.76C96.35999,20.24 104.87999,9.56 112.07999,5.6C117.35999,2.72 127.31999,4.04 134.99999,4.04C134.99999,4.04 150.71999,3.92 150.71999,3.92" stroke-width="4" fill="#0000FF" id="svg_7" style="pointer-events:inherit"/></g></g></svg>