<svg xmlns="http://www.w3.org/2000/svg" width="401" height="220" x="0" y="0" id="svgcontent" overflow="hidden" viewBox="0 0 401 220"><g style="pointer-events:all" mask="url(#canvasMaskImageDef)"><title style="pointer-events:inherit">Layer 1</title><g id="svg_1" type="text" text="Your Text Here" font-size="32.548239418629066" font-family="Aldo" font-id="1" fill="fbeeee" text-anchor="start" font-weight="normal" font-style="normal" lineHeight="1" shapeId="8" shapeVal="-10" fill-opacity="1" display="null" elemBBoxWidth="241.29745483398438" stroke-width="0" stroke-dasharray="none" stroke="ull" stroke-opacity="1" transform="rotate(-17.3816 194.706 104.175)"><path id="svg_8" fill="#fbeeee" stroke="#ull" stroke-width="0" d="M-0.21375181488138928,-5.180867686010547 C-2.7534758333627165,-7.1620089208391455 -4.999972870194431,-10.960592702562824 -4.999972870194431,-14.378282828008107 C-4.999972870194431,-14.378282828008107 -4.999972870194431,-19.000001980222518 -4.999972870194431,-19.000001980222518 C-4.999972870194431,-19.000001980222518 2.453667824640899,-16.3466295129046 2.453667824640899,-16.3466295129046 C2.453667824640899,-16.3466295129046 2.453667824640899,6.404659169160357 2.453667824640899,6.404659169160357 C2.453667824640899,6.404659169160357 -0.21375181488138928,5.49499325060637 -0.21375181488138928,5.49499325060637 C-0.21375181488138928,5.49499325060637 -0.21375181488138928,-5.180867686010547 -0.21375181488138928,-5.180867686010547 C-0.21375181488138928,-5.180867686010547 -0.21375181488138928,-5.180867686010547 -0.21375181488138928,-5.180867686010547 M11.536610054609966,-8.944608617218142 C11.536610054609966,-5.526918491772857 9.323219289899981,-3.1335085258924256 6.719647460898175,-2.9056099394793407 C6.719647460898175,-2.9056099394793407 6.719647460898175,7.77025099713758 6.719647460898175,7.77025099713758 C6.719647460898175,7.77025099713758 4.243771252937327,6.990881625647944 4.243771252937327,6.990881625647944 C4.243771252937327,6.990881625647944 4.243771252937327,-15.760407056417012 4.243771252937327,-15.760407056417012 C4.243771252937327,-15.760407056417012 11.536610054609966,-13.566327769432553 11.536610054609966,-13.566327769432553 C11.536610054609966,-13.566327769432553 11.536610054609966,-8.944608617218142 11.536610054609966,-8.944608617218142 C11.536610054609966,-8.944608617218142 11.536610054609966,-8.944608617218142 11.536610054609966,-8.944608617218142 M20.941156070904416,11.580749759093472 C16.743753712613582,10.113661223957504 13.487515376069087,5.6198200728101675 13.487515376069087,0.7049083302227572 C13.487515376069087,-3.6240745624986115 16.970768150019733,-6.363988452550849 20.941156070904416,-5.734953646352018 C20.941156070904416,-5.734953646352018 20.941156070904416,11.580749759093472 20.941156070904416,11.580749759093472 C20.941156070904416,11.580749759093472 20.941156070904416,11.580749759093472 20.941156070904416,11.580749759093472 M22.731259499200842,-5.330853862611093 C26.80096623645072,-4.014950679689349 30.024098300873483,0.28874329067963345 30.024098300873483,5.138399717433053 C30.024098300873483,9.402355459760408 26.637799609565043,12.454153204080171 22.731259499200842,11.984849542834397 C22.731259499200842,11.984849542834397 22.731259499200842,-5.330853862611093 22.731259499200842,-5.330853862611093 C22.731259499200842,-5.330853862611093 22.731259499200842,-5.330853862611093 22.731259499200842,-5.330853862611093 M39.26784242400524,15.009899833058661 C35.29508976939758,14.035170729955432 31.977368356055585,9.823473811331183 31.977368356055585,5.494490918609813 C31.977368356055585,5.494490918609813 31.977368356055585,-3.554094100076952 31.977368356055585,-3.554094100076952 C31.977368356055585,-3.554094100076952 39.26784242400524,-2.371058888220823 39.26784242400524,-2.371058888220823 C39.26784242400524,-2.371058888220823 39.26784242400524,15.009899833058661 39.26784242400524,15.009899833058661 C39.26784242400524,15.009899833058661 39.26784242400524,15.009899833058661 39.26784242400524,15.009899833058661 M41.05794585230167,15.266803351681062 C41.05794585230167,15.266803351681062 41.05794585230167,-2.1141553695984214 41.05794585230167,-2.1141553695984214 C41.05794585230167,-2.1141553695984214 48.511586547137,-1.1763048423528488 48.511586547137,-1.1763048423528488 C48.25146583760912,4.457914140884171 49.518963113126794,10.424668557193272 46.362043592947494,13.221155531070252 C44.83206087417895,14.53088563204993 43.17201780064646,15.326291757035044 41.05794585230167,15.266803351681062 C41.05794585230167,15.266803351681062 41.05794585230167,15.266803351681062 41.05794585230167,15.266803351681062 M50.464856602319095,16.4497832373348 C50.72497731184698,10.846196397265707 49.42200903048459,4.8808754552934985 52.54582227854216,2.047640421667243 C54.01195718679023,0.6912372400442379 55.705106532444454,-0.1639066278100998 57.755330670268755,-0.21705720285757835 C57.755330670268755,-0.21705720285757835 57.755330670268755,17.131273860504905 57.755330670268755,17.131273860504905 C57.755330670268755,17.131273860504905 50.464856602319095,16.4497832373348 50.464856602319095,16.4497832373348 C50.464856602319095,16.4497832373348 50.464856602319095,16.4497832373348 50.464856602319095,16.4497832373348 M59.51232782644345,6.790231681532944 C59.51232782644345,6.790231681532944 59.51232782644345,-0.07754806183464069 59.51232782644345,-0.07754806183464069 C63.158747227279775,0.5089990961020732 66.41262083010129,3.705991242679609 66.80280189439311,7.276414886261676 C66.80280189439311,7.276414886261676 59.51232782644345,6.790231681532944 59.51232782644345,6.790231681532944 C59.51232782644345,6.790231681532944 59.51232782644345,6.790231681532944 59.51232782644345,6.790231681532944 M78.52005749176274,2.4168185655432666 C78.52005749176274,2.4168185655432666 78.52005749176274,-4.515988328218327 78.52005749176274,-4.515988328218327 C78.52005749176274,-4.515988328218327 93.46044515355513,-4.223651020821899 93.46044515355513,-4.223651020821899 C93.46044515355513,-4.223651020821899 93.46044515355513,2.7091558729396965 93.46044515355513,2.7091558729396965 C93.46044515355513,2.7091558729396965 78.52005749176274,2.4168185655432666 78.52005749176274,2.4168185655432666 C78.52005749176274,2.4168185655432666 78.52005749176274,2.4168185655432666 78.52005749176274,2.4168185655432666 M82.42659760212693,18.3444147073633 C82.42659760212693,18.3444147073633 82.42659760212693,4.316118961135093 82.42659760212693,4.316118961135093 C82.42659760212693,4.316118961135093 89.3599968779065,4.4499673932139885 89.3599968779065,4.4499673932139885 C89.3599968779065,4.4499673932139885 89.3599968779065,18.4782631394422 89.3599968779065,18.4782631394422 C89.3599968779065,18.4782631394422 82.42659760212693,18.3444147073633 82.42659760212693,18.3444147073633 C82.42659760212693,18.3444147073633 82.42659760212693,18.3444147073633 82.42659760212693,18.3444147073633 M111.94793339981864,11.688612523180325 C111.36147943651942,15.366632995108212 107.94443920681223,18.620679430675324 103.77777838692015,18.61580120529088 C103.77777838692015,18.61580120529088 95.41371520873723,18.577414153366234 95.41371520873723,18.577414153366234 C95.67383591826511,12.948526246145015 94.40397390902444,7.046891621279606 97.56089342920374,3.9453338620524434 C99.0908761479723,2.456322916843824 100.75091922150479,1.4867643708178022 102.86735590357256,1.2654601925951567 C102.86735590357256,1.2654601925951567 102.86735590357256,11.68098436219605 102.86735590357256,11.68098436219605 C102.86735590357256,11.68098436219605 111.94793339981864,11.688612523180325 111.94793339981864,11.688612523180325 C111.94793339981864,11.688612523180325 111.94793339981864,11.688612523180325 111.94793339981864,11.688612523180325 M104.65745933186898,1.269042972847295 C108.75790760751761,1.6633121852308008 112.14420629882605,5.276479431760407 111.94793339981864,9.898426481105172 C111.94793339981864,9.898426481105172 104.65745933186898,9.894381100373035 104.65745933186898,9.894381100373035 C104.65745933186898,9.894381100373035 104.65745933186898,1.269042972847295 104.65745933186898,1.269042972847295 C104.65745933186898,1.269042972847295 104.65745933186898,1.269042972847295 104.65745933186898,1.269042972847295 M113.90120345500074,18.62146028670155 C113.93430972712247,14.552816668977385 113.51102239070892,12.046622344590673 115.49503398428976,9.215154296441263 C113.7711431002368,6.546023630315954 113.83499091075728,4.788241271417288 113.90120345500074,1.2078739075050677 C113.90120345500074,1.2078739075050677 121.35484414983607,1.2147532666461913 121.35484414983607,1.2147532666461913 C121.35484414983607,1.2147532666461913 121.35484414983607,18.628339645842672 121.35484414983607,18.628339645842672 C121.35484414983607,18.628339645842672 113.90120345500074,18.62146028670155 113.90120345500074,18.62146028670155 C113.90120345500074,18.62146028670155 113.90120345500074,18.62146028670155 113.90120345500074,18.62146028670155 M123.1449475781325,18.633283549799728 C123.1449475781325,18.633283549799728 123.1449475781325,1.2196971706032542 123.1449475781325,1.2196971706032542 C123.1449475781325,1.2196971706032542 130.43542164608215,1.2630742059218214 130.43542164608215,1.2630742059218214 C130.46852791820388,4.6484391060952674 130.5654820008461,6.895391738587023 129.00239300995582,9.258020060508922 C130.79249643825224,11.812201250247465 130.40231537396042,14.803022743215088 130.43542164608215,18.6766605851183 C130.43542164608215,18.6766605851183 123.1449475781325,18.633283549799728 123.1449475781325,18.633283549799728 C123.1449475781325,18.633283549799728 123.1449475781325,18.633283549799728 123.1449475781325,18.633283549799728 M140.55884671416274,18.82993872390371 C136.19591299526326,18.74759631906639 132.38869170126426,14.758090810985223 132.38869170126426,10.331453109952847 C132.38869170126426,10.331453109952847 132.38869170126426,-4.055062377042377 132.38869170126426,-4.055062377042377 C132.38869170126426,-4.055062377042377 139.64605949709218,-3.9411126498538316 139.64605949709218,-3.9411126498538316 C139.64605949709218,-3.9411126498538316 139.6791657692139,11.878283539238367 139.6791657692139,11.878283539238367 C139.6791657692139,11.878283539238367 148.72900172706125,12.134909944887603 148.72900172706125,12.134909944887603 C148.33645592904645,15.831078822257126 144.62618871768964,18.933395892243944 140.55884671416274,18.82993872390371 C140.55884671416274,18.82993872390371 140.55884671416274,18.82993872390371 140.55884671416274,18.82993872390371 M141.4361629253886,8.36938918480401 C141.4361629253886,8.36938918480401 141.4361629253886,1.4363541256024348 141.4361629253886,1.4363541256024348 C141.4361629253886,1.4363541256024348 148.72900172706125,1.6541304594527197 148.72900172706125,1.6541304594527197 C148.72900172706125,1.6541304594527197 148.72900172706125,8.587165518654295 148.72900172706125,8.587165518654295 C148.72900172706125,8.587165518654295 141.4361629253886,8.36938918480401 141.4361629253886,8.36938918480401 C141.4361629253886,8.36938918480401 141.4361629253886,8.36938918480401 141.4361629253886,8.36938918480401 M160.44625732443086,19.58590834534767 C160.44625732443086,19.58590834534767 160.44625732443086,-3.1656085021572657 160.44625732443086,-3.1656085021572657 C160.44625732443086,-3.1656085021572657 167.44350441073092,-2.6488178026872724 167.44350441073092,-2.6488178026872724 C167.44350441073092,-2.6488178026872724 167.44350441073092,20.10269904481767 167.44350441073092,20.10269904481767 C167.44350441073092,20.10269904481767 160.44625732443086,19.58590834534767 160.44625732443086,19.58590834534767 C160.44625732443086,19.58590834534767 160.44625732443086,19.58590834534767 160.44625732443086,19.58590834534767 M169.23360783902734,20.258119397829887 C169.23360783902734,20.258119397829887 169.23360783902734,-2.4933974496750473 169.23360783902734,-2.4933974496750473 C169.23360783902734,-2.4933974496750473 176.19774865320565,-1.789965003186019 176.19774865320565,-1.789965003186019 C176.19774865320565,-1.789965003186019 176.19774865320565,20.96155184431892 176.19774865320565,20.96155184431892 C176.19774865320565,20.96155184431892 169.23360783902734,20.258119397829887 169.23360783902734,20.258119397829887 C169.23360783902734,20.258119397829887 169.23360783902734,20.258119397829887 169.23360783902734,20.258119397829887 M194.68760163319214,16.84203327377392 C194.10114766989292,20.410842946378246 190.68410744018576,23.059808301528683 186.51744662029367,22.389285535365218 C186.51744662029367,22.389285535365218 178.15101870838777,21.25381588444388 178.15101870838777,21.25381588444388 C178.41113941791565,15.654220888411743 177.14364214239797,9.612787191247683 180.30056166257725,6.873092402522509 C181.83054438134582,5.575835908321416 183.4905874548783,4.82642854373724 185.60465940322308,4.903707069383334 C185.60465940322308,4.903707069383334 185.60465940322308,15.31923123898423 185.60465940322308,15.31923123898423 C185.60465940322308,15.31923123898423 194.68760163319214,16.84203327377392 194.68760163319214,16.84203327377392 C194.68760163319214,16.84203327377392 194.68760163319214,16.84203327377392 194.68760163319214,16.84203327377392 M187.39476283151953,5.176087393363307 C191.49757584089113,6.241650296920504 194.88150979847657,10.466355844457837 194.68760163319214,15.051847231698773 C194.68760163319214,15.051847231698773 187.39476283151953,13.801425520889048 187.39476283151953,13.801425520889048 C187.39476283151953,13.801425520889048 187.39476283151953,5.176087393363307 187.39476283151953,5.176087393363307 C187.39476283151953,5.176087393363307 187.39476283151953,5.176087393363307 187.39476283151953,5.176087393363307 M196.6385069546513,24.149490002385775 C196.89862766417917,18.56987918835459 195.59802411653973,12.490396838600052 198.72183736459732,9.954934044243874 C200.18797227284537,8.765444380055154 201.87875688477664,8.124120713510393 203.9313457563239,8.362014223234198 C203.9313457563239,8.362014223234198 203.9313457563239,25.710345286596684 203.9313457563239,25.710345286596684 C203.9313457563239,25.710345286596684 196.6385069546513,24.149490002385775 196.6385069546513,24.149490002385775 C196.6385069546513,24.149490002385775 196.6385069546513,24.149490002385775 196.6385069546513,24.149490002385775 M205.68834291249863,15.645266601730661 C205.68834291249863,15.645266601730661 205.68834291249863,8.777486858363076 205.68834291249863,8.777486858363076 C209.33239757961195,10.015656742598974 212.58863591615645,13.885894252909175 212.97881698044827,17.54271266799836 C212.97881698044827,17.54271266799836 205.68834291249863,15.645266601730661 205.68834291249863,15.645266601730661 C205.68834291249863,15.645266601730661 205.68834291249863,15.645266601730661 205.68834291249863,15.645266601730661 M231.4663052267118,27.27629049633382 C230.87985126341255,30.725386913890446 227.46281103370538,32.69071954394304 223.2961502138133,31.218674351946973 C223.2961502138133,31.218674351946973 214.93208703563036,28.580946089876335 214.93208703563036,28.580946089876335 C215.19220774515824,23.025941738147807 213.9223457359176,16.767851805272933 217.0792652560969,14.57211020406318 C218.60924797486544,13.545758406978862 220.26929104839792,13.095661592406081 222.3857277304657,13.563006293742525 C222.3857277304657,13.563006293742525 222.3857277304657,23.978530463343418 222.3857277304657,23.978530463343418 C222.3857277304657,23.978530463343418 231.4663052267118,27.27629049633382 231.4663052267118,27.27629049633382 C231.4663052267118,27.27629049633382 231.4663052267118,27.27629049633382 231.4663052267118,27.27629049633382 M224.17583115876212,14.17212927229911 C228.27627943441075,16.033158276485324 231.6625781257192,20.94128001866772 231.4663052267118,25.486104454258665 C231.4663052267118,25.486104454258665 224.17583115876212,22.797467399824846 224.17583115876212,22.797467399824846 C224.17583115876212,22.797467399824846 224.17583115876212,14.17212927229911 224.17583115876212,14.17212927229911 C224.17583115876212,14.17212927229911 224.17583115876212,14.17212927229911 224.17583115876212,14.17212927229911 " transform="matrix(1 0 0 1 81.375 97.3299)"/><rect id="svg_9" x="76.37503051757812" y="78.32990264892578" width="236.66253662109375" height="51.690711975097656" fill="#000000" opacity="0" transform=""/></g></g><defs><mask id="canvasMaskImageDef" maskUnits="objectBoundingBox" x="0" y="0"><image id="canvasMaskImage" preserveAspectRatio="none" style="pointer-events:none" x="0" y="-1" width="400" height="222.22222222222223" xmlns:xlink="http://www.w3.org/1999/xlink" xlink:href="http://192.168.0.46/dnb_products/magento2/designnbuy/uploads/productimage/56eb110bc986f.png"/></mask></defs></svg>