<?xml version="1.0" encoding="utf-8"?>
<!-- Generator: Adobe Illustrator 16.0.0, SVG Export Plug-In . SVG Version: 6.00 Build 0)  -->
<!DOCTYPE svg PUBLIC "-//W3C//DTD SVG 1.1//EN" "http://www.w3.org/Graphics/SVG/1.1/DTD/svg11.dtd">
<svg version="1.1" id="Capa_1" xmlns="http://www.w3.org/2000/svg" xmlns:xlink="http://www.w3.org/1999/xlink" x="0px" y="0px"
	 width="30px" height="30px" viewBox="0 0 30 30" enable-background="new 0 0 30 30" xml:space="preserve">
<g>
	<path fill="#454545" d="M29.333,26.07l-6.184-6.184c1.49-2.152,2.235-4.55,2.235-7.194c0-1.719-0.334-3.363-1-4.931
		c-0.668-1.568-1.569-2.921-2.705-4.057s-2.488-2.037-4.057-2.704S14.411,0,12.692,0S9.33,0.334,7.762,1.001
		C6.193,1.668,4.841,2.569,3.705,3.705C2.569,4.841,1.667,6.193,1,7.762c-0.667,1.569-1,3.212-1,4.931c0,1.718,0.333,3.362,1,4.93
		s1.568,2.921,2.705,4.057c1.136,1.137,2.488,2.037,4.057,2.705c1.568,0.666,3.212,1,4.931,1c2.645,0,5.042-0.746,7.194-2.236
		l6.184,6.166C26.503,29.771,27.043,30,27.692,30c0.625,0,1.167-0.229,1.622-0.686C29.771,28.858,30,28.317,30,27.692
		C30,27.056,29.777,26.515,29.333,26.07z M18.398,18.398c-1.58,1.58-3.482,2.371-5.706,2.371c-2.223,0-4.125-0.791-5.706-2.371
		s-2.371-3.482-2.371-5.706s0.791-4.125,2.371-5.706c1.581-1.581,3.483-2.371,5.706-2.371c2.224,0,4.126,0.791,5.706,2.371
		c1.581,1.581,2.371,3.482,2.371,5.706S19.979,16.818,18.398,18.398z"/>
</g>
</svg>
