<svg xmlns="http://www.w3.org/2000/svg" width="187" height="240" x="0" y="0" id="svgcontent" viewBox="0 0 187 240" overflow="hidden"><defs><mask id="canvasMaskImageDef" maskUnits="objectBoundingBox" x="0" y="0"><image id="canvasMaskImage" preserveAspectRatio="none" style="pointer-events:none" x="-106" y="-81" width="400" height="344.82758620689657" xlink:href="http://192.168.0.222/work/jan_langius/print_commerce/source/designnbuy/uploads/productimage/5826bc835e1ff.png" xmlns:xlink="http://www.w3.org/1999/xlink"/></mask></defs><g mask="url(#canvasMaskImageDef)" style="pointer-events:all"><title style="pointer-events:inherit">Layer 1</title><g id="svg_1" type="text" text="Harish" font-size="98" font-family="Sail" fill="e23c3c" text-anchor="start" font-weight="normal" font-style="normal" lineHeight="1" shapeId="2" shapeVal="5" display="null" elemBBoxWidth="170.32920837402344" xscale="1.08080175220814" yscale="NaN" elemBBoxHeight="86.98046875" stroke="141b33" style="pointer-events:inherit"><path id="svg_20" fill="#e23c3c" stroke="#141b33" d="M22.53688621520996,44.97842788696289 C33.41405487060547,44.4518928527832 33.57416534423828,49.555477142333984 45.88890075683594,48.071075439453125 C45.88890075683594,48.071075439453125 45.88890075683594,49.507225036621094 45.88890075683594,49.507225036621094 C43.010353088378906,49.816261291503906 40.770530700683594,49.882965087890625 38.85093688964844,49.72348403930664 C38.53242492675781,51.30977249145508 37.891990661621094,55.491119384765625 35.01344299316406,71.5240249633789 C35.01344299316406,71.5240249633789 50.526939392089844,66.76233673095703 50.526939392089844,66.76233673095703 C50.526939392089844,66.76233673095703 56.44586181640625,39.8951301574707 56.44586181640625,39.8951301574707 C56.44586181640625,39.8951301574707 57.564910888671875,39.88665771484375 57.564910888671875,39.88665771484375 C57.564910888671875,39.88665771484375 48.92755889892578,80.77448272705078 48.92755889892578,80.77448272705078 C48.92755889892578,81.99566650390625 49.5679931640625,83.13044738769531 51.327476501464844,82.43952941894531 C54.045928955078125,81.27660369873047 53.72740936279297,78.88027954101562 54.846473693847656,80.17276763916016 C54.846473693847656,80.17276763916016 53.88581848144531,82.66864776611328 51.327476501464844,83.63406372070312 C46.84955596923828,85.69242858886719 47.808502197265625,79.80387878417969 48.448944091796875,76.93157958984375 C48.448944091796875,76.93157958984375 50.20843505859375,67.87635040283203 50.20843505859375,67.87635040283203 C50.20843505859375,67.87635040283203 34.85332489013672,72.79235076904297 34.85332489013672,72.79235076904297 C31.97478675842285,89.54206848144531 28.77430534362793,109.4054183959961 14.7000732421875,122.54741668701172 C6.222838401794434,131.90076446533203 -1.1353464126586914,126.82132720947266 0.14382076263427734,107.8779296875 C0.14382076263427734,107.8779296875 1.4246816635131836,107.38438415527344 1.4246816635131836,107.38438415527344 C0.14382076263427734,123.5761947631836 6.861565589904785,127.76338958740234 13.73942756652832,120.43790435791016 C21.257719039916992,113.21428680419922 23.177316665649414,105.02908325195312 25.25703239440918,90.99518585205078 C29.574857711791992,65.05146789550781 31.814668655395508,51.650421142578125 32.453399658203125,48.449241638183594 C29.734960556030273,47.257896423339844 27.01481819152832,46.42591857910156 22.53688621520996,46.841983795166016 C15.498916625976562,47.55970001220703 10.70077133178711,56.45262145996094 10.70077133178711,68.58549499511719 C10.70077133178711,68.58549499511719 9.421602249145508,69.0646743774414 9.421602249145508,69.0646743774414 C9.421602249145508,55.36565399169922 14.860189437866211,45.58068084716797 22.53688621520996,44.97842788696289 C22.53688621520996,44.97842788696289 22.53688621520996,44.97842788696289 22.53688621520996,44.97842788696289 M84.4359130859375,54.27778625488281 C84.4359130859375,54.27778625488281 80.43830108642578,74.24237823486328 80.43830108642578,74.24237823486328 C81.8775863647461,74.34589385986328 82.99663543701172,71.98694610595703 84.11570739746094,73.30110168457031 C81.71748352050781,76.399658203125 74.35929107666016,76.16069030761719 74.35929107666016,71.70863342285156 C71.48075103759766,78.3223648071289 59.48450469970703,79.552001953125 59.48450469970703,69.79248809814453 C59.48450469970703,60.83270263671875 64.4427719116211,55.18737030029297 71.1605224609375,54.66558074951172 C74.19918823242188,54.50141143798828 75.95867919921875,56.051979064941406 76.75921630859375,58.08479309082031 C76.91931915283203,57.04627227783203 76.91931915283203,56.161651611328125 77.23954772949219,54.82373046875 C81.71748352050781,54.726715087890625 84.4359130859375,54.27778625488281 84.4359130859375,54.27778625488281 C84.4359130859375,54.27778625488281 84.4359130859375,54.27778625488281 84.4359130859375,54.27778625488281 M68.6021957397461,75.3149185180664 C71.96106719970703,74.81122589111328 74.19918823242188,69.79383850097656 74.67950439453125,68.56444549560547 C74.83961486816406,67.51392364501953 75.3199462890625,65.25621032714844 76.11878967285156,60.771873474121094 C75.95867919921875,58.26866149902344 74.51940155029297,55.82147216796875 72.28128051757812,55.944244384765625 C68.12186431884766,56.242454528808594 66.04215240478516,65.18267822265625 66.04215240478516,71.32777404785156 C66.04215240478516,74.86095428466797 67.00279998779297,75.59867095947266 68.6021957397461,75.3149185180664 C68.6021957397461,75.3149185180664 68.6021957397461,75.3149185180664 68.6021957397461,75.3149185180664 M91.473876953125,55.45232391357422 C89.87450408935547,55.24871063232422 88.91555786132812,57.572288513183594 87.63468170166016,56.21858215332031 C90.3548355102539,52.907073974609375 98.35173797607422,54.637054443359375 97.55120849609375,59.85685729980469 C99.3106918334961,56.52857208251953 101.3904037475586,55.02490997314453 104.26895141601562,55.290138244628906 C107.30931854248047,55.61389923095703 108.74858093261719,57.228492736816406 108.74858093261719,60.44172668457031 C108.74858093261719,64.94025421142578 103.63021087646484,67.34764862060547 103.63021087646484,70.92120361328125 C103.63021087646484,70.92120361328125 102.19093322753906,70.66006469726562 102.19093322753906,70.66006469726562 C102.19093322753906,66.6530532836914 107.14920043945312,64.17537689208984 107.14920043945312,60.36219024658203 C107.14920043945312,57.34318542480469 105.87003326416016,56.71539306640625 104.26895141601562,56.537940979003906 C99.4708023071289,56.086219787597656 96.75236511230469,64.29427337646484 96.59223937988281,64.87861633300781 C96.59223937988281,64.87861633300781 94.51254272460938,75.4097900390625 94.51254272460938,75.4097900390625 C94.51254272460938,75.4097900390625 87.63468170166016,74.8460922241211 87.63468170166016,74.8460922241211 C87.63468170166016,74.8460922241211 91.473876953125,55.45232391357422 91.473876953125,55.45232391357422 M120.74481964111328,57.581199645996094 C120.74481964111328,57.581199645996094 116.74549865722656,80.20479583740234 116.74549865722656,80.20479583740234 C118.34487915039062,80.97807312011719 119.30553436279297,78.54766082763672 120.5846939086914,80.62725067138672 C118.024658203125,83.6281509399414 110.18785095214844,79.01741027832031 110.66818237304688,74.43714904785156 C111.14680480957031,69.33390045166016 112.7461929321289,63.26085662841797 113.5467300415039,58.08546447753906 C113.5467300415039,58.08546447753906 111.14680480957031,57.72203063964844 111.14680480957031,57.72203063964844 C110.82830047607422,56.20746612548828 112.42767333984375,56.755516052246094 113.70684814453125,56.942039489746094 C118.18477630615234,57.659263610839844 120.74481964111328,57.581199645996094 120.74481964111328,57.581199645996094 C120.74481964111328,57.581199645996094 120.74481964111328,57.581199645996094 120.74481964111328,57.581199645996094 M114.3455810546875,47.64044189453125 C114.3455810546875,45.290992736816406 116.26517486572266,43.349979400634766 118.50498962402344,43.44053268432617 C120.74481964111328,43.53713607788086 122.66442108154297,45.79820251464844 122.66442108154297,48.33392333984375 C122.66442108154297,50.8696403503418 120.74481964111328,52.78113555908203 118.50498962402344,52.49224853515625 C116.26517486572266,52.22141647338867 114.3455810546875,49.98988342285156 114.3455810546875,47.64044189453125 C114.3455810546875,47.64044189453125 114.3455810546875,47.64044189453125 114.3455810546875,47.64044189453125 M125.2227554321289,81.10578918457031 C129.22206115722656,88.15768432617188 134.9791259765625,87.48833465576172 134.9791259765625,77.36078643798828 C134.9791259765625,72.8138656616211 133.86009216308594,69.73277282714844 133.5398712158203,66.16452026367188 C132.10060119628906,67.72911834716797 129.3821563720703,69.4062728881836 125.70307159423828,68.9878921508789 C125.70307159423828,68.9878921508789 125.70307159423828,67.30658721923828 125.70307159423828,67.30658721923828 C129.3821563720703,67.2697982788086 132.42080688476562,65.42268371582031 133.5398712158203,63.72455596923828 C134.1802978515625,58.98963928222656 134.02020263671875,56.29585266113281 136.4184112548828,57.40973663330078 C136.4184112548828,67.49556732177734 141.6968994140625,70.44398498535156 141.6968994140625,81.17517852783203 C141.6968994140625,88.7764663696289 137.21896362304688,91.51461791992188 130.82142639160156,87.8399887084961 C125.2227554321289,85.00847625732422 122.5042953491211,79.9656982421875 122.5042953491211,76.16785430908203 C122.5042953491211,68.75383758544922 130.66131591796875,72.7879867553711 130.66131591796875,78.89287567138672 C130.82142639160156,82.51406860351562 127.9411849975586,83.66148376464844 125.2227554321289,81.10578918457031 C125.2227554321289,81.10578918457031 125.2227554321289,81.10578918457031 125.2227554321289,81.10578918457031 M161.69004821777344,68.97393798828125 C172.88742065429688,73.50479888916016 167.44883728027344,96.14244079589844 166.48818969726562,112.17213439941406 C168.8881072998047,114.09652709960938 169.0482177734375,109.54076385498047 170.327392578125,113.869873046875 C169.36843872070312,118.33118438720703 158.9716033935547,109.17161560058594 160.25076293945312,100.47235107421875 C160.25076293945312,93.727783203125 162.33047485351562,82.77354431152344 162.33047485351562,76.71648406982422 C162.33047485351562,73.25503540039062 161.52992248535156,72.05437469482422 159.9305419921875,71.39566802978516 C154.65206909179688,69.0573501586914 152.25384521484375,90.29558563232422 151.29319763183594,100.49352264404297 C151.29319763183594,100.49352264404297 144.4170379638672,95.51631927490234 144.4170379638672,95.51631927490234 C144.4170379638672,95.51631927490234 150.8145751953125,43.67083740234375 150.8145751953125,43.67083740234375 C149.21519470214844,43.33214569091797 148.25453186035156,47.15299606323242 146.97537231445312,44.880306243896484 C150.01402282714844,38.67662811279297 157.8525390625,42.472259521484375 156.73178100585938,53.17868423461914 C156.73178100585938,53.17868423461914 154.33355712890625,74.93986511230469 154.33355712890625,74.93986511230469 C155.6127166748047,70.48173522949219 157.8525390625,67.56100463867188 161.69004821777344,68.97393798828125 C161.69004821777344,68.97393798828125 161.69004821777344,68.97393798828125 161.69004821777344,68.97393798828125 " style="pointer-events:inherit"/><rect id="svg_21" x="-0.0010834454248218606" y="39.886726756673546" width="170.32820574083684" height="87.22677779014212" fill="#000000" opacity="0" style="pointer-events:inherit"/></g><g type="text" text="Harish" font-size="98" font-family="Sail" fill="e23c3c" text-anchor="start" font-weight="normal" font-style="normal" lineHeight="1" shapeId="2" shapeVal="5" display="null" elemBBoxWidth="170.32928466796875" xscale="1.08080175220814" yscale="NaN" elemBBoxHeight="86.98046875" stroke="141b33" id="svg_22" style="pointer-events:inherit"><path fill="#e23c3c" stroke="#141b33" d="M39.20868682861328,152.83196258544922 C50.085853576660156,152.30542755126953 50.24596405029297,157.40898895263672 62.560699462890625,155.92461395263672 C62.560699462890625,155.92461395263672 62.560699462890625,157.36075592041016 62.560699462890625,157.36075592041016 C59.682159423828125,157.66979217529297 57.442344665527344,157.73648834228516 55.522735595703125,157.5770034790039 C55.2042236328125,159.16329193115234 54.56378936767578,163.34465789794922 51.68524169921875,179.37755584716797 C51.68524169921875,179.37755584716797 67.1987533569336,174.6158676147461 67.1987533569336,174.6158676147461 C67.1987533569336,174.6158676147461 73.11766052246094,147.74866485595703 73.11766052246094,147.74866485595703 C73.11766052246094,147.74866485595703 74.23670959472656,147.74018096923828 74.23670959472656,147.74018096923828 C74.23670959472656,147.74018096923828 65.59937286376953,188.62799835205078 65.59937286376953,188.62799835205078 C65.59937286376953,189.84918975830078 66.23979187011719,190.9839859008789 67.9992904663086,190.29305267333984 C70.71773529052734,189.13013458251953 70.39922332763672,186.73380279541016 71.51828002929688,188.02628326416016 C71.51828002929688,188.02628326416016 70.55762481689453,190.52217864990234 67.9992904663086,191.48758697509766 C63.5213623046875,193.54595184326172 64.48030853271484,187.65740203857422 65.12074279785156,184.78510284423828 C65.12074279785156,184.78510284423828 66.88023376464844,175.72989654541016 66.88023376464844,175.72989654541016 C66.88023376464844,175.72989654541016 51.52513885498047,180.64586639404297 51.52513885498047,180.64586639404297 C48.646583557128906,197.39559173583984 45.44611358642578,217.2589340209961 31.371885299682617,230.40093231201172 C22.894638061523438,239.7542953491211 15.536453247070312,234.67484283447266 16.81562042236328,215.7314682006836 C16.81562042236328,215.7314682006836 18.09649085998535,215.23790740966797 18.09649085998535,215.23790740966797 C16.81562042236328,231.42972564697266 23.533374786376953,235.61690521240234 30.411226272583008,228.29143524169922 C37.929527282714844,221.06781768798828 39.84912109375,212.88260650634766 41.9288330078125,198.84870147705078 C46.24665832519531,172.90499114990234 48.48646545410156,159.50394439697266 49.12519836425781,156.30277252197266 C46.406761169433594,155.1114273071289 43.686614990234375,154.2794418334961 39.20868682861328,154.69551849365234 C32.17071533203125,155.4132308959961 27.372568130493164,164.30614471435547 27.372568130493164,176.43903350830078 C27.372568130493164,176.43903350830078 26.09340476989746,176.91820526123047 26.09340476989746,176.91820526123047 C26.09340476989746,163.21916961669922 31.5319881439209,153.4342269897461 39.20868682861328,152.83196258544922 C39.20868682861328,152.83196258544922 39.20868682861328,152.83196258544922 39.20868682861328,152.83196258544922 M101.10771942138672,162.13130950927734 C101.10771942138672,162.13130950927734 97.11009979248047,182.09590911865234 97.11009979248047,182.09590911865234 C98.54938507080078,182.19942474365234 99.66844177246094,179.84046173095703 100.78750610351562,181.1546401977539 C98.38927459716797,184.2531967163086 91.03108978271484,184.01421356201172 91.03108978271484,179.5621566772461 C88.15254211425781,186.17589569091797 76.15631866455078,187.4055404663086 76.15631866455078,177.64600372314453 C76.15631866455078,168.68622589111328 81.11457824707031,163.04090118408203 87.83232116699219,162.51911163330078 C90.87098693847656,162.35494232177734 92.63048553466797,163.90550994873047 93.4310302734375,165.93831634521484 C93.59111785888672,164.8998031616211 93.59111785888672,164.01517486572266 93.91134643554688,162.67725372314453 C98.38927459716797,162.58025360107422 101.10771942138672,162.13130950927734 101.10771942138672,162.13130950927734 C101.10771942138672,162.13130950927734 101.10771942138672,162.13130950927734 101.10771942138672,162.13130950927734 M85.27399444580078,183.16844940185547 C88.63286590576172,182.66475677490234 90.87098693847656,177.6473617553711 91.351318359375,176.41797637939453 C91.51142120361328,175.3674545288086 91.99174499511719,173.10973358154297 92.79058074951172,168.6253890991211 C92.63048553466797,166.12218475341797 91.19120025634766,163.67499542236328 88.95307922363281,163.79778289794922 C84.79367065429688,164.09598541259766 82.71395874023438,173.03621673583984 82.71395874023438,179.18131256103516 C82.71395874023438,182.71448516845703 83.67459869384766,183.45220184326172 85.27399444580078,183.16844940185547 C85.27399444580078,183.16844940185547 85.27399444580078,183.16844940185547 85.27399444580078,183.16844940185547 M108.14568328857422,163.30583953857422 C106.54631042480469,163.10224151611328 105.58735656738281,165.4258041381836 104.30648803710938,164.0721206665039 C107.02664184570312,160.76061248779297 115.02354431152344,162.49059295654297 114.2229995727539,167.71038055419922 C115.98249053955078,164.38208770751953 118.06219482421875,162.87842559814453 120.94074249267578,163.1436538696289 C123.98111724853516,163.4674301147461 125.4203872680664,165.08202362060547 125.4203872680664,168.29524993896484 C125.4203872680664,172.79378509521484 120.30201721191406,175.20117950439453 120.30201721191406,178.77472686767578 C120.30201721191406,178.77472686767578 118.86274719238281,178.51360321044922 118.86274719238281,178.51360321044922 C118.86274719238281,174.5065689086914 123.82099151611328,172.0289077758789 123.82099151611328,168.21573638916016 C123.82099151611328,165.19670867919922 122.54183197021484,164.56893157958984 120.94074249267578,164.39147186279297 C116.1426010131836,163.93973541259766 113.42415618896484,172.1478042602539 113.26404571533203,172.73213958740234 C113.26404571533203,172.73213958740234 111.1843490600586,183.26331329345703 111.1843490600586,183.26331329345703 C111.1843490600586,183.26331329345703 104.30648803710938,182.69962310791016 104.30648803710938,182.69962310791016 C104.30648803710938,182.69962310791016 108.14568328857422,163.30583953857422 108.14568328857422,163.30583953857422 M137.41661071777344,165.43473052978516 C137.41661071777344,165.43473052978516 133.41729736328125,188.0583267211914 133.41729736328125,188.0583267211914 C135.0166778564453,188.83161163330078 135.97732543945312,186.40119171142578 137.25650024414062,188.48078155517578 C134.6964569091797,191.48168182373047 126.8596420288086,186.87093353271484 127.3399887084961,182.2906723022461 C127.81859588623047,177.18743133544922 129.41798400878906,171.11437225341797 130.21852111816406,165.93900299072266 C130.21852111816406,165.93900299072266 127.81859588623047,165.57556915283203 127.81859588623047,165.57556915283203 C127.5000991821289,164.06099700927734 129.09947204589844,164.60904693603516 130.37864685058594,164.7955551147461 C134.85658264160156,165.5127944946289 137.41661071777344,165.43473052978516 137.41661071777344,165.43473052978516 C137.41661071777344,165.43473052978516 137.41661071777344,165.43473052978516 137.41661071777344,165.43473052978516 M131.0173797607422,155.49396514892578 C131.0173797607422,153.1445083618164 132.9369659423828,151.2035140991211 135.17678833007812,151.29405975341797 C137.41661071777344,151.39066314697266 139.33621215820312,153.65172576904297 139.33621215820312,156.18746185302734 C139.33621215820312,158.7231674194336 137.41661071777344,160.6346664428711 135.17678833007812,160.34577178955078 C132.9369659423828,160.07494354248047 131.0173797607422,157.8434066772461 131.0173797607422,155.49396514892578 C131.0173797607422,155.49396514892578 131.0173797607422,155.49396514892578 131.0173797607422,155.49396514892578 M141.89454650878906,188.9593276977539 C145.89385986328125,196.01119232177734 151.65093994140625,195.34186553955078 151.65093994140625,185.21431732177734 C151.65093994140625,180.6673812866211 150.53189086914062,177.58629608154297 150.211669921875,174.0180435180664 C148.77239990234375,175.58264923095703 146.053955078125,177.25980377197266 142.3748779296875,176.84142303466797 C142.3748779296875,176.84142303466797 142.3748779296875,175.16010284423828 142.3748779296875,175.16010284423828 C146.053955078125,175.12332916259766 149.0926055908203,173.27620697021484 150.211669921875,171.57807159423828 C150.85211181640625,166.84314727783203 150.69200134277344,164.14937591552734 153.0902099609375,165.26326751708984 C153.0902099609375,175.34908294677734 158.3686981201172,178.2975082397461 158.3686981201172,189.0287094116211 C158.3686981201172,196.62999725341797 153.89076232910156,199.36815643310547 147.49322509765625,195.69351959228516 C141.89454650878906,192.86199188232422 139.17608642578125,187.81922149658203 139.17608642578125,184.02136993408203 C139.17608642578125,176.60736846923828 147.3331298828125,180.6415023803711 147.3331298828125,186.74640655517578 C147.49322509765625,190.36760711669922 144.61297607421875,191.51500701904297 141.89454650878906,188.9593276977539 C141.89454650878906,188.9593276977539 141.89454650878906,188.9593276977539 141.89454650878906,188.9593276977539 M178.36184692382812,176.82746124267578 C189.55923461914062,181.35831451416016 184.12063598632812,203.99597930908203 183.1599884033203,220.02567291259766 C185.55992126464844,221.9500503540039 185.72003173828125,217.39429473876953 186.9991912841797,221.72339630126953 C186.0402374267578,226.1847152709961 175.64340209960938,217.02513885498047 176.92257690429688,208.32587432861328 C176.92257690429688,201.5813217163086 179.0022735595703,190.62706756591797 179.0022735595703,184.57001495361328 C179.0022735595703,181.10855865478516 178.2017364501953,179.90790557861328 176.6023406982422,179.24919891357422 C171.32386779785156,176.91088104248047 168.9256591796875,198.14910125732422 167.96499633789062,208.34705352783203 C167.96499633789062,208.34705352783203 161.08883666992188,203.3698501586914 161.08883666992188,203.3698501586914 C161.08883666992188,203.3698501586914 167.4863739013672,151.52436065673828 167.4863739013672,151.52436065673828 C165.88699340820312,151.18567657470703 164.9263458251953,155.00652313232422 163.6471710205078,152.73383331298828 C166.68582153320312,146.53015899658203 174.5243377685547,150.3257827758789 173.40359497070312,161.0322036743164 C173.40359497070312,161.0322036743164 171.00535583496094,182.79338836669922 171.00535583496094,182.79338836669922 C172.28453063964844,178.33527374267578 174.5243377685547,175.41454315185547 178.36184692382812,176.82746124267578 C178.36184692382812,176.82746124267578 178.36184692382812,176.82746124267578 178.36184692382812,176.82746124267578 " id="svg_23" style="pointer-events:inherit"/><rect x="16.670719412931565" y="147.74025340108224" width="170.32820574083684" height="87.22677779014212" fill="#000000" opacity="0" id="svg_24" style="pointer-events:inherit"/></g><g id="svg_28" display="null" style="pointer-events:inherit"><path fill="#2BA9E1" d="M144.01776123046875,16.003814697265625 L148.93380737304688,12.649173736572266 L141.92237854003906,10.596818923950195 C136.0679473876953,0.30817317962646484 124.11919403076172,5.673676490783691 120.12582397460938,15.45870590209961 C115.30745697021484,27.253093719482422 101.50778198242188,31.555213928222656 101.50778198242188,31.555213928222656 C111.32926940917969,43.23671340942383 120.18757629394531,45.346282958984375 126.09564971923828,44.88064193725586 C132.0067596435547,44.41145706176758 147.96104431152344,39.765159606933594 144.63980102539062,19.02541732788086 C144.4661865234375,17.947860717773438 144.25665283203125,16.94370460510254 144.01776123046875,16.003814697265625 z" id="svg_29" stroke-width="0" style="pointer-events:inherit"/><path fill="#2B3277" d="M141.92237854003906,10.596818923950195 C142.75900268554688,12.067127227783203 143.47113037109375,13.860855102539062 144.01776123046875,16.003814697265625 L148.93380737304688,12.649173736572266 L141.92237854003906,10.596818923950195 zM134.10870361328125,23.620079040527344 C134.10870361328125,23.620079040527344 117.7100601196289,20.238611221313477 115.82928466796875,29.363662719726562 C113.9489974975586,38.4866828918457 129.0899200439453,43.78183364868164 134.10870361328125,23.620079040527344 zM137.26394653320312,10.34323501586914 C137.373779296875,11.32159423828125 136.8696746826172,12.183530807495117 136.13577270507812,12.269073486328125 C135.39935302734375,12.351572036743164 134.71202087402344,11.62375259399414 134.6031951904297,10.646915435791016 C134.4908447265625,9.66856575012207 134.9949493408203,8.806629180908203 135.7313690185547,8.721086502075195 C136.4693145751953,8.641622543334961 137.15208435058594,9.364887237548828 137.26394653320312,10.34323501586914 z" id="svg_30" stroke-width="0" style="pointer-events:inherit"/></g></g></svg>