<svg xmlns="http://www.w3.org/2000/svg" width="210" height="395" x="0" y="0" id="svgcontent" overflow="hidden" viewBox="0 0 210 395"><g style="pointer-events:all" mask=""><title style="pointer-events:inherit">Layer 1</title><g id="svg_1" type="text" text="PNG" font-size="23.14814848557946" font-family="Brush-Script" font-id="1" fill="000000" text-anchor="start" font-weight="normal" font-style="normal" lineHeight="1" shapeId="0" shapeVal="0" fill-opacity="1" display="null" elemBBoxWidth="118.50000762939453" elemBBoxHeight="49.949737548828125" xscale="2.257143002464658" yscale="2.257142029720993" stroke="null" stroke-opacity="1" transform=""><path id="svg_2" fill="#000000" d="M55.960313508508705,71.97751521145835 C54.34060440692389,71.19378500101413 52.77314398603531,68.89484305037757 54.28835572622759,67.01389054531126 C55.80356746641988,65.132938040245 59.04298566958957,64.50595387188952 61.96891178858155,63.61772630005271 C61.96891178858155,63.61772630005271 70.22420333859463,52.750000715225326 70.22420333859463,52.750000715225326 C64.47684846200323,53.272487522188214 58.781742266108154,54.3697098168102 54.07936100344247,55.98941891839502 C53.347879473694434,56.25066232187646 51.98941377559103,56.51190572535785 51.728170372109616,55.72817551491363 C52.40740322116133,53.167990160795625 54.54959912970901,50.764550848766476 55.90806482781244,48.93584702439648 C59.25198039237469,46.58465639306371 67.40277458099524,45.4351854177454 73.62036758385318,45.4351854177454 C81.77116177247373,45.4351854177454 89.92195596109426,47.15939188072281 89.55621519622025,55.83267287630622 C88.98147970856112,69.31283249594782 74.29960043290492,74.32870584279124 59.617721157248695,72.81349410259895 C59.617721157248695,72.81349410259895 57.423276568004724,76.26190702855376 57.423276568004724,76.26190702855376 C59.98346192212273,77.7771187687461 56.06481086990132,80.5985475263455 55.12433461736816,82.21825662793032 C54.44510176831645,82.84524079628574 53.66137155787217,83.68121968742628 52.72089530533901,83.78571704881887 C48.74999557242131,82.74074343489315 52.56414926325016,77.41137800387202 53.66137155787217,75.63492286019834 C53.66137155787217,75.63492286019834 55.960313508508705,71.97751521145835 55.960313508508705,71.97751521145835 M83.65211427754,53.9517203712399 C80.67393947785172,52.958995438010504 76.96428314841549,52.69775203452906 73.20237813828291,52.541005992440205 C73.15012945758664,53.69047696775846 72.99338341549779,54.265212455417554 72.47089660853493,54.9444453044693 C72.47089660853493,54.9444453044693 66.61904437055097,62.8862447703047 66.61904437055097,62.8862447703047 C66.61904437055097,62.8862447703047 69.80621389302436,62.67725004751958 69.80621389302436,62.67725004751958 C70.85118750695005,62.62500136682331 70.79893882625379,63.66997498074903 69.91071125441695,63.87896970353415 C69.91071125441695,63.87896970353415 65.41732471453639,65.0284406788524 65.41732471453639,65.0284406788524 C65.41732471453639,65.0284406788524 64.26785373921811,66.70039846113355 64.26785373921811,66.70039846113355 C74.2473517522086,67.74537207505927 82.92063274779201,64.76719727537102 85.58531546330258,57.34788461649845 C86.212299631658,55.51918079212851 85.53306678260628,54.630953220291644 83.65211427754,53.9517203712399 C83.65211427754,53.9517203712399 83.65211427754,53.9517203712399 83.65211427754,53.9517203712399 M116.8822752003775,83.52447364533748 C113.53835963581528,85.6144208731888 109.67195726429014,84.09920913299658 110.14219539055674,80.23280676147147 C111.29166636587499,70.67129819405125 118.18849221778464,62.8862447703047 122.00264590861349,55.31018606934333 C113.64285699720784,62.416006644038134 106.06679829624645,71.40277972379926 99.6924592512996,80.54629884564923 C99.22222112503306,81.27778037539719 98.85648036015905,81.80026718236007 98.07275014971478,81.9047645437526 C95.82605687977451,81.33002905609345 93.10912548356765,80.02381203868629 94.88558062724135,77.04563723899804 C94.88558062724135,77.04563723899804 99.48346452851447,69.31283249594782 99.48346452851447,69.31283249594782 C99.48346452851447,69.31283249594782 103.19312085795076,62.46825532473446 103.19312085795076,62.46825532473446 C104.8650786402319,59.43783184434983 106.79827982599446,57.19113857440959 106.79827982599446,54.317461136113934 C106.79827982599446,53.63822828706219 106.64153378390557,53.22023884149195 106.01454961555015,53.22023884149195 C99.1177237636405,54.526455858899055 94.10185041679708,59.69907524783133 88.35449554020568,62.36375796334187 C86.78703511931712,62.259260601949336 87.30952192627998,59.385583163653564 87.5707653297614,58.183863507639046 C88.4589929015983,53.89947169054358 92.79563339938994,50.764550848766476 95.61706215698936,48.51785757882624 C96.9232791743965,47.47288396490052 97.7070093848408,46.74140243515251 98.49073959528505,47.629630006989316 C98.22949619180363,48.83134966300389 96.55753840952252,49.87632327692961 95.72155951838192,51.078042932944186 C95.72155951838192,51.078042932944186 98.90872904085535,49.35383646996678 98.90872904085535,49.35383646996678 C102.14814724402504,47.681878687685696 105.64880885067618,45.48743409844167 110.19444407125297,45.48743409844167 C114.11309512347438,45.48743409844167 114.00859776208182,49.45833383135937 112.33663997980071,52.80224939592159 C112.33663997980071,52.80224939592159 108.57473496966816,60.27381073549043 108.57473496966816,60.27381073549043 C108.57473496966816,60.27381073549043 104.29034315257275,67.64087471366668 104.29034315257275,67.64087471366668 C104.29034315257275,67.64087471366668 111.18716900448243,59.80357260922386 111.18716900448243,59.80357260922386 C114.84457665322242,56.04166759909134 118.81547638614009,51.6527784206034 122.89087348045035,48.570106259522504 C124.56283126273146,47.26388924211534 125.8167995994423,46.636905073759976 126.7050271712792,46.636905073759976 C129.05621780261203,47.36838660350793 130.62367822350058,49.19709042787798 130.88492162698202,52.01851918547737 C130.20568877793033,54.3697098168102 128.22023891147148,56.09391627978761 126.96627057476061,58.027117465550134 C124.1448418171612,62.259260601949336 120.90542361399147,66.64814978043728 118.71097902474753,71.29828236240667 C117.82275145291067,73.17923486747293 117.3525133266441,74.64219792696895 117.3525133266441,75.73942022159093 C117.3525133266441,77.88161613013864 119.33796319310292,77.93386481083496 121.00992097538403,76.6276477934278 C123.88359841367978,74.32870584279124 126.7050271712792,71.45502840449552 129.21296384470088,68.73809700828872 C129.94444537444883,72.55225069911756 127.12301661684944,74.64219792696895 125.08531806969435,76.94113987760551 C122.89087348045035,79.44907655102719 119.7037039579769,81.74801850166375 116.8822752003775,83.52447364533748 C116.8822752003775,83.52447364533748 116.8822752003775,83.52447364533748 116.8822752003775,83.52447364533748 M138.199736924462,93.97420978459456 C136.10978969661062,95.38492416339426 133.54960434249256,95.33267548269794 133.44510698110003,92.61574408649113 C134.64682663711454,87.44312469755886 138.7222237314249,84.46494989787061 143.0066155485203,82.3227539893229 C143.0066155485203,82.3227539893229 146.2982824323862,78.09061085292376 146.2982824323862,78.09061085292376 C148.33598097954138,75.26918209532437 149.90344140042993,72.6567480605101 151.4186531406222,69.46957853803667 C147.34325604631192,72.29100729563606 143.37235631339428,75.63492286019834 138.82672109281748,77.98611349153123 C132.97486885483346,81.01653697191574 128.1157415500789,75.63492286019834 130.04894273584148,69.05158909246637 C132.87037149344087,59.542329205742476 140.65542491718742,53.585979606365925 149.11971118998565,49.87632327692961 C153.09061092290335,48.09986813325594 157.8974895469616,46.48015903167112 163.4880983814641,46.0099209054045 C166.36177581975988,45.74867750192311 167.2500033915967,50.973545571551654 164.8465640795676,52.48875731174388 C164.8465640795676,52.48875731174388 159.56944732924273,55.884921557002485 159.56944732924273,55.884921557002485 C158.41997635392448,56.40740836396532 156.80026725233967,57.55687933928357 155.5462989156287,57.66137670067616 C154.7625687051845,57.713625381372424 154.6580713437919,56.45965704466158 155.3373041928436,56.198413641180196 C155.3373041928436,56.198413641180196 158.47222503462075,53.585979606365925 158.47222503462075,53.585979606365925 C149.43320327416336,56.56415440605417 142.01389061529085,61.26653566871988 136.52777914218086,67.90211811714812 C135.3260594861663,69.31283249594782 134.17658851084803,70.93254159753263 134.17658851084803,73.0747375060804 C134.17658851084803,76.26190702855376 137.72949879819544,74.85119264975407 139.45370526117284,73.59722431304323 C139.45370526117284,73.59722431304323 154.39682794031052,62.78174740891211 154.39682794031052,62.78174740891211 C156.1732830839842,61.42328171080874 157.47950010139135,59.542329205742476 159.67394469063527,58.60185295320929 C161.65939455709417,58.915345037387 163.7493417849456,60.74404886175705 162.07738400266442,62.67725004751958 C159.2037065643687,68.05886415923698 155.6507962770213,72.86574278329522 152.5158754352442,77.98611349153123 C152.5158754352442,77.98611349153123 158.89021448019105,74.17195980070238 158.89021448019105,74.17195980070238 C160.6144209431685,73.0747375060804 162.33862740614592,71.92526653076209 163.95833650773073,70.67129819405125 C163.90608782703447,73.02248882538407 163.22685497798273,73.6494729937395 161.71164323779044,74.85119264975407 C158.2109816311393,77.56812404596087 152.8293675194219,81.01653697191574 148.8584677865042,83.62897100673001 C145.8280443061197,87.12963261338115 142.11838797668338,91.30952706908397 138.199736924462,93.97420978459456 C138.199736924462,93.97420978459456 138.199736924462,93.97420978459456 138.199736924462,93.97420978459456 " stroke="null" transform=""/><rect id="svg_3" x="50.95556698697874" y="45.4351806640625" width="115.27885948043513" height="49.45366221149743" fill="#000000" opacity="0" stroke="null" transform=""/></g></g></svg>