<?xml version="1.0"?>
<svg xmlns="http://www.w3.org/2000/svg" width="400" height="218"><g><title>Layer 1</title><g clip-id="915" display="null" id="svg_4"><path id="svg_5" d="m176.83002,166.8123c-5.38492,0.54213 -10.16725,-1.28635 -13.68379,-5.0219c-3.5565,-3.77916 -6.40022,-8.32066 -5.67783,-14.04201c0.28923,-2.29314 1.42915,-3.79126 3.45848,-5.20465c3.84088,-2.67432 6.82135,-6.25862 7.00647,-11.31926c0.07022,-1.91316 -0.22023,-3.83604 -0.2892,-5.75645c-0.20937,-5.85326 2.32823,-10.03778 7.27515,-13.23364c5.77336,-3.72713 12.3067,-4.73029 18.77106,-5.69112c5.54951,-0.82529 12.41078,3.92314 14.51878,9.48235c2.23141,5.88715 6.70395,8.24319 12.51846,8.66914c5.33173,0.39087 8.80472,3.31932 9.30688,8.67039c0.30981,3.30478 0.61838,6.80681 -0.13309,9.96878c-1.08185,4.5524 -3.91711,8.1234 -8.2323,10.53513c-7.19406,4.01997 -14.70276,7.08272 -22.76442,8.82649c-7.32355,1.58522 -14.62286,3.27454 -21.93428,4.91783c-0.04597,-0.26619 -0.09319,-0.53365 -0.14038,-0.80109zm0.80714,-130.21039c0.81319,1.68204 1.43155,3.4996 2.47829,5.02071c2.29433,3.33503 1.69292,5.45755 -2.05597,6.41232c-4.15669,1.05883 -6.30582,6.82012 -3.44153,10.58473c2.33911,3.07246 2.51219,6.25623 2.34761,9.71348c-0.08109,1.72318 -0.58447,3.51897 -0.25412,5.1526c0.69339,3.42702 1.37225,7.08637 4.87914,8.95598c8.08345,4.30795 20.18204,-2.44563 20.90933,-11.56615c0.67642,-8.48523 -3.47304,-14.62164 -9.50539,-19.89769c-1.89743,-1.66026 -3.836,-3.31445 -5.4769,-5.21311c-1.33475,-1.54166 -2.06564,-3.60609 -3.40157,-5.14534c-1.5538,-1.78973 -3.47664,-3.26001 -5.23978,-4.86944c-0.41261,0.28437 -0.82648,0.56754 -1.23912,0.85191zm-30.73169,8.95957c-0.17308,0.64378 -0.22632,1.3178 -0.37756,1.96884c-1.46179,6.32639 0.30251,12.92749 -2.64529,19.32288c-1.66266,3.60731 -1.14232,8.54332 -0.58203,12.74358c0.40176,3.00951 1.78004,6.65795 3.98967,8.50094c4.90335,4.08528 10.51944,6.67128 17.2863,3.12206c7.00769,-3.67508 8.80106,-10.15878 3.98003,-17.04304c-1.87566,-2.67796 -3.29269,-5.73347 -4.54999,-8.7696c-0.8156,-1.97004 -0.82043,-4.25835 -1.44366,-6.32761c-1.05519,-3.50567 -4.22083,-5.01708 -7.69258,-3.8941c-1.07097,0.34608 -2.16972,0.60989 -3.08212,0.86279c-2.79776,-3.37254 -0.33522,-8.43439 -4.1664,-11.33015c-0.37392,0.42716 -0.65222,0.60625 -0.71635,0.84343zm73.00533,30.28034c-2.64407,6.17149 -5.51566,12.2825 -7.5498,18.6561c-0.88217,2.76268 -0.89911,6.62894 0.40295,9.08665c2.56662,4.84404 10.55933,6.50429 16.13065,4.92511c8.96683,-2.54242 10.37418,-8.50337 10.99619,-14.93748c0.53726,-5.56523 -0.77689,-11.17648 -4.18573,-15.98542c-0.43201,-0.60867 -0.70673,-1.34442 -0.97656,-2.0499c-1.64456,-4.29708 -3.23944,-8.6135 -4.93115,-12.89242c-0.20694,-0.52518 -0.88821,-0.86279 -1.35049,-1.28633c-0.31824,0.07744 -0.63654,0.1561 -0.95599,0.23475c0.31708,3.35198 0.63412,6.70518 0.97296,10.2907c-5.19138,0.18999 -7.33926,1.12177 -8.55301,3.95824zm-100.79651,23.73973c1.51746,6.61804 2.97446,13.25545 4.76782,19.80087c1.62877,5.94281 5.0219,10.41534 10.76985,13.42244c6.21027,3.24911 17.62634,-0.10286 19.77428,-8.15608c0.45621,-1.71106 1.42671,-3.58189 1.08546,-5.14536c-0.6208,-2.83282 -1.95071,-5.50716 -4.73875,-7.12747c-2.43713,-1.41582 -4.81622,-2.95265 -7.10815,-4.59476c-2.06442,-1.47997 -3.88197,-3.30841 -5.97546,-4.73996c-2.55209,-1.74376 -5.06546,-4.19177 -8.52393,-3.01436c-1.77885,0.60625 -3.28543,2.01118 -4.9082,3.04945c-2.12856,-2.01361 -0.79623,-6.21387 -5.17799,-7.17831c0.00122,1.46179 -0.20815,2.62471 0.03508,3.68353z" fill-rule="evenodd"/></g></g></svg>
