<svg xmlns="http://www.w3.org/2000/svg" width="187" height="231" x="0" y="0" id="svgcontent" overflow="hidden" viewBox="0 0 187 231"><g style="pointer-events:all" mask="url(#canvasMaskImageDef)"><title style="pointer-events:inherit">Layer 1</title><g type="photobox" pathStr="M106.00105255757995,86.29964166946499 C112.30774501733435,146.0366402179888 112.30774501733435,206.2462340725416 106.00105255757995,265.98134805325384 C106.00105255757995,278.3410784233938 116.73905419209954,288.48192184640334 130.2031259572648,288.48192184640334 C194.4590158987449,282.6197820176289 259.2243249814311,282.6197820176289 323.4813144010426,288.48192184640334 C336.7741939852441,288.48192184640334 347.68233986063336,278.50019663616 347.68233986063336,265.98134805325384 C341.3746338194764,206.2462340725416 341.3746338194764,146.03662424707508 347.68233986063336,86.29964166946499 C347.68233986063336,73.93991129932515 336.94535180751643,63.80001016022135 323.4813144010426,63.80001016022135 L323.4813144010426,63.9581701181682 C259.2243249814311,69.82030994694257 194.4590158987449,69.82030994694257 130.2031259572648,63.9581701181682 C116.90919843296913,63.9581701181682 106.00105255757995,73.94085358323096 106.00105255757995,86.45780162741188 " lockTransform="true" lockEdit="null" id="svg_1" display="null" stroke="null" transform=""><g clip-path="url(#svg_3)" stroke="null" transform=""><image xmlns:xlink="http://www.w3.org/1999/xlink" x="-25.20635028201646" y="-9.730099283011649" width="197.304417618268" height="148.43930484365018" preserveAspectRatio="none" id="svg_5" xlink:href="http://192.168.0.139/work/print_commerce/pc-newtool-magento-21/designnbuy/assets/images/uploadedImage/admin_o_1atsnvbat4bc14nl140015narksa.png" origWidth="214" origHeight="161" image_id="20" templateSrc="http://192.168.0.139/work/print_commerce/pc-newtool-magento-21/designnbuy/assets/images/uploadedImage/admin_o_1atsnvbat4bc14nl140015narksa.png#**#20" isAdminUploaded="true" colors="" stroke="null" transform=""/></g><path d="M19.749999873247518,26.870640196049752 C22.424745714929337,52.2058360188755 22.424745714929337,77.74146532369929 19.749999873247518,103.07586187813682 C19.749999873247518,108.31777554727547 24.304118439070574,112.61863197081787 30.014396876745288,112.61863197081787 C57.26611011966928,110.13242636773343 84.73387428600665,110.13242636773343 111.98605383112927,112.61863197081787 C117.62372755926991,112.61863197081787 122.25000639034394,108.38525953839256 122.25000639034394,103.07586187813682 C119.57483067632272,77.74146532369929 119.57483067632272,52.20582924541456 122.25000639034394,26.870640196049752 C122.25000639034394,21.628726526911148 117.69631769686036,17.32826973756285 111.98605383112927,17.32826973756285 L111.98605383112927,17.395347321024943 C84.73387428600665,19.88155292410935 57.26611011966928,19.88155292410935 30.014396876745288,17.395347321024943 C24.37627870432153,17.395347321024943 19.749999873247518,21.629126161105273 19.749999873247518,26.937717779511853 " id="svg_4" opacity="1" shapeType="roundedSquare" fill="#000" fill-opacity="0" stroke-width="3" stroke-dasharray="none" cursor="move" stroke="#000000" transform=""/></g></g><defs><mask id="canvasMaskImageDef" maskUnits="objectBoundingBox" x="0" y="0"><image id="canvasMaskImage" preserveAspectRatio="none" style="pointer-events:none" x="-106" y="-90" width="400" height="344.82758620689657" xmlns:xlink="http://www.w3.org/1999/xlink" xlink:href="http://192.168.0.139/work/print_commerce/pc-newtool-magento-21/designnbuy/uploads/productimage/5812e9ce2f192.png"/></mask><clipPath class="clippath" id="svg_3"><path d="M19.749999873247518,26.870640196049752 C22.424745714929337,52.2058360188755 22.424745714929337,77.74146532369929 19.749999873247518,103.07586187813682 C19.749999873247518,108.31777554727547 24.304118439070574,112.61863197081787 30.014396876745288,112.61863197081787 C57.26611011966928,110.13242636773343 84.73387428600665,110.13242636773343 111.98605383112927,112.61863197081787 C117.62372755926991,112.61863197081787 122.25000639034394,108.38525953839256 122.25000639034394,103.07586187813682 C119.57483067632272,77.74146532369929 119.57483067632272,52.20582924541456 122.25000639034394,26.870640196049752 C122.25000639034394,21.628726526911148 117.69631769686036,17.32826973756285 111.98605383112927,17.32826973756285 L111.98605383112927,17.395347321024943 C84.73387428600665,19.88155292410935 57.26611011966928,19.88155292410935 30.014396876745288,17.395347321024943 C24.37627870432153,17.395347321024943 19.749999873247518,21.629126161105273 19.749999873247518,26.937717779511853 " id="" opacity="1" shapeType="roundedSquare" fill="#000" fill-opacity="0" stroke-width="3" stroke-dasharray="none" cursor="move" style="vector-effect: non-scaling-stroke;" stroke="#000000" transform=""/></clipPath></defs></svg>