<svg width="188" height="256" xmlns="http://www.w3.org/2000/svg"><g><title>Layer 1</title><g clip-id="882" display="null" id="svg_12"><path stroke-width="0" d="m95.94832,56.7374c-0.60983,0.00336 -1.21127,0.07896 -1.7581,0.23729c-1.47293,0.42672 -2.53342,1.50486 -3.55149,3.61029c-1.2541,2.59306 -1.03445,4.04836 0.91897,6.09668c1.18311,1.24065 1.54726,1.49434 2.45108,1.71272c0.82654,0.19951 0.87569,0.19908 2.51454,-0.02898c0.81854,-0.11382 1.79463,-0.36496 2.16884,-0.55859c0.97984,-0.5065 2.19701,-1.87317 2.56575,-2.88033c0.64386,-1.75896 0.21169,-5.04289 -0.8631,-6.55152c-0.71608,-1.00758 -2.61826,-1.64765 -4.44649,-1.63757zm6.52925,23.72389c-1.00378,-0.01343 -1.98866,0.11467 -2.73921,0.39522c-1.72743,0.64638 -2.41621,1.39943 -2.84167,3.10629c-0.54852,2.20245 -0.17598,4.05548 1.092,5.43095c0.82991,0.90007 1.57581,1.37297 2.53426,1.60609c0.80217,0.1953 0.78874,0.19612 2.44142,-0.09871c1.73752,-0.30997 2.49226,-0.73036 3.6779,-2.04959c1.06133,-1.18019 1.3398,-2.09998 1.18146,-3.89882c-0.15457,-1.75305 -0.90132,-3.27469 -1.84714,-3.76358c-0.88957,-0.46031 -2.20918,-0.71063 -3.49901,-0.72786zm-15.22315,21.73691c-0.84378,-0.01262 -3.38982,0.28391 -4.06978,0.49895c-1.80598,0.57077 -3.62079,2.31459 -4.04372,3.88411c-0.35153,1.30536 -0.14069,4.26718 0.3801,5.33986c0.51491,1.05963 0.7938,1.24147 2.60985,1.69887c1.76063,0.4435 3.17686,0.36624 4.51077,-0.24655c1.49561,-0.6871 2.34064,-1.50063 3.0584,-2.94376c0.58212,-1.17093 0.6153,-1.34566 0.53467,-2.82571c-0.0546,-0.99791 -0.21337,-1.82321 -0.43217,-2.24783c-0.46619,-0.90257 -2.02692,-3.02733 -2.30116,-3.13232c-0.04073,-0.01552 -0.12643,-0.02351 -0.24695,-0.0256zm27.35139,3.65901l-1.77321,0.24611c-3.08951,0.42882 -4.43181,1.25452 -5.43224,3.34274c-0.78203,1.6321 -0.8568,2.83748 -0.252,4.08614c0.69005,1.42548 2.13654,2.13484 4.38979,2.15375c1.01976,0.00839 1.45361,-0.09492 2.39484,-0.5712c2.59639,-1.31375 3.06511,-1.98573 3.06511,-4.38853c0,-1.21002 -0.08902,-1.61867 -0.55103,-2.53004c-0.30324,-0.59808 -0.84123,-1.3692 -1.19656,-1.71359l-0.6447,-0.62537zm-15.54111,24.42697c-0.32634,0 -0.70433,0.01555 -1.14911,0.04115c-1.12433,0.06381 -2.27135,0.22047 -2.55023,0.34776c-0.58882,0.26836 -1.819,1.99709 -2.53592,3.56366c-0.44437,0.97142 -0.48679,1.24989 -0.38766,2.53761c0.17389,2.25162 0.45107,2.89249 1.47166,3.39778c1.72491,0.85425 4.43431,0.97606 6.0047,0.27127c1.03485,-0.46451 2.45151,-1.73244 2.84589,-2.54639c1.12685,-2.32387 0.85176,-4.19452 -0.92023,-6.26509c-0.90005,-1.0517 -1.36331,-1.34695 -2.7791,-1.34776zm-29.88441,9.58852c-0.16211,-0.00128 -0.32843,0.005 -0.49938,0.01889c-2.82699,0.22678 -4.46328,2.53299 -4.46328,6.28941c0,1.61993 0.01762,1.68756 0.5695,2.15207c1.26125,1.06091 3.36669,1.33852 5.39697,0.71062c1.53297,-0.47372 2.98952,-1.38763 3.23354,-2.02895c0.10289,-0.27136 0.18733,-1.26717 0.18733,-2.21298c0,-1.96056 -0.32173,-2.82658 -1.38096,-3.7216c-0.97734,-0.82654 -1.90762,-1.20078 -3.04372,-1.20746zm56.387,1.55017c-1.07605,-0.00296 -2.24278,0.55399 -3.65524,1.67116c-1.47755,1.16719 -1.94374,2.33727 -1.94374,4.8745l0,1.94963l0.97566,1.09491c0.53633,0.60228 1.16171,1.19905 1.38893,1.32677c0.93617,0.52542 4.87532,0.5527 5.87321,0.04073c1.4679,-0.75304 2.61407,-3.14745 2.43765,-5.09244c-0.13145,-1.44859 -0.85803,-2.99417 -1.96388,-4.17603c-1.05084,-1.12308 -2.03615,-1.68628 -3.11259,-1.68922zm-32.79836,32.81094c-0.33934,-0.21002 -1.17471,0.52165 -3.59348,3.14659c-1.31669,1.42841 -2.65267,2.7632 -2.96937,2.96561c-0.39479,0.25281 -1.03948,0.39522 -2.04957,0.4536c-1.77953,0.1033 -2.56828,-0.22388 -3.82366,-1.58594c-0.9118,-0.98946 -1.39395,-1.95001 -1.83537,-3.65393c-0.29149,-1.12729 -0.76397,-2.65018 -1.08234,-3.48807c-0.23519,-0.62033 -1.03278,-0.86522 -2.41288,-0.7417c-1.30031,0.11632 -1.79799,0.33304 -4.95259,2.15289c-2.59431,1.49641 -6.16175,2.73372 -8.34699,2.89459c-1.86185,0.13734 -3.64809,-0.37004 -5.37093,-1.52499c-1.79127,-1.19995 -1.94877,-1.9202 -0.97439,-4.45366c0.5208,-1.3553 1.51073,-2.82362 3.09873,-4.59813c1.42001,-1.58627 1.74382,-2.21379 1.3738,-2.66023c-0.51575,-0.62119 -4.56493,-1.26755 -7.94085,-1.26712c-1.53004,0 -6.98664,0.68332 -9.96357,1.24698c-3.98534,0.75558 -5.4864,0.08438 -5.4864,-2.45277c0,-3.04247 2.21169,-5.94798 7.66324,-10.06691c3.51537,-2.65604 4.94377,-3.75266 5.80771,-4.45825c0.81144,-0.66191 1.78793,-2.44476 1.60313,-2.92654c-0.15288,-0.39856 -1.61026,-0.40738 -4.24994,-0.02475c-3.84548,0.55733 -5.61451,0.30742 -6.8052,-0.9597c-0.97522,-1.03824 -0.58672,-4.20877 0.76524,-6.2504c1.19489,-1.80345 3.43138,-3.6443 8.73425,-7.18777c2.83832,-1.89713 5.67792,-3.68384 6.31002,-3.97028c1.9807,-0.89917 3.83959,-2.17764 5.05466,-3.4767c0.64426,-0.68877 1.17178,-1.4183 1.17178,-1.62161c0,-0.75177 -0.62495,-0.81143 -2.82448,-0.27003c-2.93198,0.72281 -4.76064,0.72658 -6.30499,0.01302c-0.64846,-0.29945 -1.41537,-0.79172 -1.70516,-1.09366c-0.49981,-0.52208 -0.52039,-0.61656 -0.4137,-1.89211c0.17598,-2.09955 0.61992,-2.85387 3.15585,-5.36754c3.12561,-3.0979 6.10883,-5.60402 9.85857,-8.28107c3.54939,-2.53468 6.4612,-5.09834 7.85349,-6.91565c1.743,-2.27512 3.05674,-4.33394 2.98577,-4.68001c-0.0882,-0.43135 -0.52458,-0.39818 -3.14831,0.23729c-3.32133,0.80472 -5.76485,0.56697 -7.01476,-0.6825c-0.68082,-0.68039 -0.71821,-0.78204 -0.71821,-1.94794c0,-2.09663 0.81395,-3.32469 5.7821,-8.7166c3.20079,-3.4738 7.90475,-8.86739 8.58388,-9.84135c0.25327,-0.3633 0.82067,-1.09157 1.26125,-1.61865c2.64555,-3.16383 2.00295,-5.57881 -1.07015,-4.0219c-1.9093,0.96725 -3.86353,1.26208 -5.20123,0.78455c-1.32339,-0.47247 -2.65101,-1.88747 -2.65101,-2.82532c0,-1.10078 3.19197,-5.22894 7.14875,-9.24535c3.37005,-3.4213 6.71785,-7.58009 7.8804,-9.78969c0.49895,-0.94835 1.01847,-1.85387 1.15497,-2.0118c0.70266,-0.8131 3.27219,-5.2029 4.38728,-7.49565c1.54056,-3.16763 2.57417,-4.62122 3.65942,-5.14622c0.85973,-0.41621 1.89586,-0.49475 2.6653,-0.20242c1.02605,0.39016 2.7661,3.18651 4.77325,7.67163c0.96054,2.14576 3.48221,5.8392 5.11388,7.48938c0.79128,0.80009 2.47292,2.21716 3.73669,3.14998c2.68167,1.97733 6.04962,5.24826 7.09627,6.89085c0.40277,0.6321 1.01637,1.58044 1.36287,2.10755c0.78246,1.18859 1.15836,2.24319 1.32552,3.72073l0.12936,1.14323l-0.93073,0.5901c-1.40111,0.88872 -2.15332,1.02521 -4.8165,0.87486c-2.0815,-0.1172 -2.36081,-0.09619 -2.46875,0.18437c-0.2058,0.53674 0.25452,1.64975 1.4263,3.44858c1.51831,2.33057 2.98869,3.86229 8.22899,8.57422c2.45067,2.20372 4.69722,4.36586 4.99208,4.80475c0.7337,1.09242 1.56784,3.03659 1.56784,3.65398c0,0.78119 -0.48677,1.77153 -1.05377,2.14281c-0.49182,0.32213 -0.61403,0.31543 -3.22514,-0.17848c-3.4444,-0.65143 -4.26465,-0.66571 -4.40157,-0.07855c-0.20329,0.87065 0.18228,2.24405 0.93912,3.34485c2.07813,3.02271 8.72961,9.5717 13.48859,13.28111c1.31709,1.02646 2.61743,2.11342 2.88956,2.41498c1.66739,1.84673 2.56619,5.10925 1.81146,6.56956c-0.61446,1.18819 -4.04834,2.88748 -5.83458,2.88748c-0.51324,0 -1.59894,-0.13776 -2.41248,-0.30617c-1.8862,-0.39017 -2.06258,-0.25957 -2.16257,1.59976c-0.0634,1.18565 -0.02013,1.36624 0.52711,2.18442c0.75098,1.12431 1.89925,2.06847 3.79297,3.11888c3.28523,1.82234 10.94006,7.32092 12.31429,8.84511c0.3717,0.412 0.99666,1.323 1.38893,2.0244c0.59891,1.07054 0.71231,1.45445 0.70897,2.39354c-0.00505,1.39861 -0.46074,2.43303 -1.47333,3.34608c-1.07607,0.9702 -1.79382,1.15668 -4.18486,1.0878c-2.41583,-0.06929 -2.65649,0.07559 -2.09494,1.2583c0.62958,1.32721 2.33728,2.81108 5.07649,4.41165c1.42212,0.83116 3.05588,1.85973 3.63171,2.28604c2.9324,2.17474 6.90303,6.26971 7.95891,8.21048c0.504,0.92612 0.54053,1.14197 0.54179,3.20839c0.0025,3.78833 -0.11423,4.49731 -0.93491,5.68884c-0.39647,0.57578 -0.89459,1.13988 -1.10626,1.25281c-0.54893,0.29359 -2.70184,0.08908 -4.02399,-0.38177c-0.61362,-0.21877 -1.77492,-0.79001 -2.58046,-1.26964c-1.71022,-1.01721 -2.92235,-1.18857 -3.30829,-0.46704c-0.17978,0.33517 -0.11131,0.61154 0.40149,1.62122c1.08569,2.13945 0.98195,5.12016 -0.25955,7.45915c-0.67953,1.28014 -1.66611,1.95544 -2.53636,1.73749c-0.26208,-0.06552 -1.17557,-0.74255 -2.03026,-1.50357c-3.25203,-2.89716 -3.88914,-3.26801 -6.05298,-3.52254c-0.81815,-0.09619 -1.08527,-0.05289 -1.39229,0.22473c-0.44014,0.39856 -0.48129,0.81056 -0.13315,1.34355c0.35869,0.54979 1.08403,2.41077 1.39523,3.58044c0.4389,1.64975 0.35114,2.39192 -0.46158,3.88582c-0.88281,1.62328 -1.86183,2.4263 -3.61993,2.96936c-1.12349,0.34691 -1.44521,0.37004 -2.72198,0.19363c-1.72495,-0.23813 -3.73042,-1.13272 -5.55196,-2.47714c-1.86729,-1.37801 -5.13779,-3.46327 -6.09874,-3.88829c-1.26378,-0.55861 -1.38852,-0.43008 -1.38852,1.43469c0,1.99919 -0.4137,2.911 -2.21759,4.88748c-1.55984,1.70854 -2.01512,1.95721 -3.58632,1.95721c-9.26511,-2.32849 -6.27309,-12.41216 -16.60541,-7.56331l0,0z" fill="#228B22" id="svg_11"/><path stroke-width="0" d="m106.6351,202.32651c0.12601,-0.20413 -0.19234,-4.20966 -0.56615,-7.1181c-0.15538,-1.2117 -0.28267,-3.15121 -0.2818,-4.31042c0.00043,-1.15918 -0.08485,-2.84039 -0.18944,-3.7363c-0.105,-0.8954 -0.27216,-2.75432 -0.37251,-4.12984c-0.09996,-1.37503 -0.27681,-2.75471 -0.39355,-3.06512s-0.66737,-1.03821 -1.22429,-1.61823c-0.55649,-0.57916 -1.51115,-1.65686 -2.12099,-2.39439c-1.86688,-2.25916 -4.41876,-4.08783 -5.37048,-3.84886c-0.77448,0.19449 -0.85889,1.02856 -0.8782,8.63808c-0.00967,3.89841 -0.08904,7.82117 -0.17598,8.71701c-0.72366,7.43896 -1.00294,12.08832 -0.74171,12.35712c0.10921,0.11298 2.31207,0.2373 5.34781,0.3024c2.83917,0.06091 5.22012,0.1684 5.29111,0.23941c0.1869,0.18692 1.55734,0.15921 1.67619,-0.03275l0,0z" fill="#228B22" id="svg_10"/><path stroke-width="0" d="m95.94832,56.7374c-0.60983,0.00336 -1.21127,0.07896 -1.7581,0.23729c-1.47293,0.42672 -2.53342,1.50486 -3.55149,3.61029c-1.2541,2.59306 -1.03445,4.04836 0.91897,6.09668c1.18311,1.24065 1.54726,1.49434 2.45108,1.71272c0.82654,0.19951 0.87569,0.19908 2.51454,-0.02898c0.81854,-0.11382 1.79463,-0.36496 2.16884,-0.55859c0.97984,-0.5065 2.19701,-1.87317 2.56575,-2.88033c0.64386,-1.75896 0.21169,-5.04289 -0.8631,-6.55152c-0.71608,-1.00758 -2.61826,-1.64765 -4.44649,-1.63757zm6.52925,23.72389c-1.00378,-0.01343 -1.98866,0.11467 -2.73921,0.39522c-1.72743,0.64638 -2.41621,1.39943 -2.84167,3.10629c-0.54852,2.20245 -0.17598,4.05548 1.092,5.43095c0.82991,0.90007 1.57581,1.37297 2.53426,1.60609c0.80217,0.1953 0.78874,0.19612 2.44142,-0.09871c1.73752,-0.30997 2.49226,-0.73036 3.6779,-2.04959c1.06133,-1.18019 1.3398,-2.09998 1.18146,-3.89882c-0.15457,-1.75305 -0.90132,-3.27469 -1.84714,-3.76358c-0.88957,-0.46031 -2.20918,-0.71063 -3.49901,-0.72786zm-15.22315,21.73691c-0.84378,-0.01262 -3.38982,0.28391 -4.06978,0.49895c-1.80598,0.57077 -3.62079,2.31459 -4.04372,3.88411c-0.35153,1.30536 -0.14069,4.26718 0.3801,5.33986c0.51491,1.05963 0.7938,1.24147 2.60985,1.69887c1.76063,0.4435 3.17686,0.36624 4.51077,-0.24655c1.49561,-0.6871 2.34064,-1.50063 3.0584,-2.94376c0.58212,-1.17093 0.6153,-1.34566 0.53467,-2.82571c-0.0546,-0.99791 -0.21337,-1.82321 -0.43217,-2.24783c-0.46619,-0.90257 -2.02692,-3.02733 -2.30116,-3.13232c-0.04073,-0.01552 -0.12643,-0.02351 -0.24695,-0.0256zm27.35139,3.65901l-1.77321,0.24611c-3.08951,0.42882 -4.43181,1.25452 -5.43224,3.34274c-0.78203,1.6321 -0.8568,2.83748 -0.252,4.08614c0.69005,1.42548 2.13654,2.13484 4.38979,2.15375c1.01976,0.00839 1.45361,-0.09492 2.39484,-0.5712c2.59639,-1.31375 3.06511,-1.98573 3.06511,-4.38853c0,-1.21002 -0.08902,-1.61867 -0.55103,-2.53004c-0.30324,-0.59808 -0.84123,-1.3692 -1.19656,-1.71359l-0.6447,-0.62537zm-15.54111,24.42697c-0.32634,0 -0.70433,0.01555 -1.14911,0.04115c-1.12433,0.06381 -2.27135,0.22047 -2.55023,0.34776c-0.58882,0.26836 -1.819,1.99709 -2.53592,3.56366c-0.44437,0.97142 -0.48679,1.24989 -0.38766,2.53761c0.17389,2.25162 0.45107,2.89249 1.47166,3.39778c1.72491,0.85425 4.43431,0.97606 6.0047,0.27127c1.03485,-0.46451 2.45151,-1.73244 2.84589,-2.54639c1.12685,-2.32387 0.85176,-4.19452 -0.92023,-6.26509c-0.90005,-1.0517 -1.36331,-1.34695 -2.7791,-1.34776zm-29.88441,9.58852c-0.16211,-0.00128 -0.32843,0.005 -0.49938,0.01889c-2.82699,0.22678 -4.46328,2.53299 -4.46328,6.28941c0,1.61993 0.01762,1.68756 0.5695,2.15207c1.26125,1.06091 3.36669,1.33852 5.39697,0.71062c1.53297,-0.47372 2.98952,-1.38763 3.23354,-2.02895c0.10289,-0.27136 0.18733,-1.26717 0.18733,-2.21298c0,-1.96056 -0.32173,-2.82658 -1.38096,-3.7216c-0.97734,-0.82654 -1.90762,-1.20078 -3.04372,-1.20746zm56.387,1.55017c-1.07605,-0.00296 -2.24278,0.55399 -3.65524,1.67116c-1.47755,1.16719 -1.94374,2.33727 -1.94374,4.8745l0,1.94963l0.97566,1.09491c0.53633,0.60228 1.16171,1.19905 1.38893,1.32677c0.93617,0.52542 4.87532,0.5527 5.87321,0.04073c1.4679,-0.75304 2.61407,-3.14745 2.43765,-5.09244c-0.13145,-1.44859 -0.85803,-2.99417 -1.96388,-4.17603c-1.05084,-1.12308 -2.03615,-1.68628 -3.11259,-1.68922z" fill="#F5DEB3" id="svg_9"/><path stroke-width="0" d="m92.76894,174.23381c-0.33934,-0.21002 -1.17471,0.52165 -3.59348,3.14659c-1.31669,1.42841 -2.65267,2.76273 -2.96937,2.96561c-0.39479,0.25281 -1.03948,0.39522 -2.04957,0.4536c-1.77953,0.1033 -2.56828,-0.22388 -3.82366,-1.58594c-0.9118,-0.98946 -1.39395,-1.95001 -1.83537,-3.65393c-0.29149,-1.12729 -0.76397,-2.65018 -1.08234,-3.48807c-0.23519,-0.62033 -1.03278,-0.86522 -2.41288,-0.7417c-1.30031,0.11632 -1.79799,0.33304 -4.95259,2.15289c-2.59431,1.49641 -6.16175,2.73372 -8.34699,2.89459c-1.86185,0.13734 -3.64809,-0.37004 -5.37093,-1.52499c-1.79127,-1.19995 -1.94877,-1.9202 -0.97439,-4.45366c0.5208,-1.3553 1.51073,-2.82362 3.09873,-4.59813c1.42001,-1.58627 1.74382,-2.21379 1.3738,-2.66023c-0.51575,-0.62119 -4.56493,-1.26755 -7.94085,-1.26712c-1.53004,0 -6.98664,0.68332 -9.96357,1.24698c-3.98534,0.75558 -5.4864,0.08438 -5.4864,-2.45277c0,-3.04247 2.21169,-5.94798 7.66324,-10.06691c3.51537,-2.65604 4.94377,-3.75266 5.80771,-4.45825c0.81144,-0.66191 1.78793,-2.44476 1.60313,-2.92654c-0.15288,-0.39856 -1.61026,-0.40738 -4.24994,-0.02475c-3.84548,0.55733 -5.61451,0.30742 -6.8052,-0.9597c-0.97522,-1.03824 -0.58672,-4.20877 0.76524,-6.2504c1.19489,-1.80345 3.43138,-3.6443 8.73425,-7.18777c2.83832,-1.89713 5.67792,-3.68384 6.31002,-3.97028c1.9807,-0.89917 3.83959,-2.17764 5.05466,-3.4767c0.64426,-0.68877 1.17178,-1.4183 1.17178,-1.62161c0,-0.75177 -0.62495,-0.81143 -2.82448,-0.27003c-2.93198,0.72281 -4.76064,0.72658 -6.30499,0.01302c-0.64846,-0.29945 -1.41537,-0.79172 -1.70516,-1.09366c-0.49981,-0.52208 -0.52039,-0.61656 -0.4137,-1.89211c0.17598,-2.09955 0.61992,-2.85387 3.15585,-5.36754c3.12561,-3.0979 6.10883,-5.60402 9.85857,-8.28107c3.54939,-2.53468 6.4612,-5.09834 7.85349,-6.91565c1.743,-2.27512 3.05674,-4.33394 2.98577,-4.68001c-0.0882,-0.43135 -0.52458,-0.39818 -3.14831,0.23729c-3.32133,0.80472 -5.76485,0.56697 -7.01476,-0.6825c-0.68082,-0.68039 -0.71821,-0.78204 -0.71821,-1.94794c0,-2.09663 0.81395,-3.32469 5.7821,-8.7166c3.20079,-3.4738 7.90475,-8.86739 8.58388,-9.84135c0.25327,-0.3633 0.82067,-1.09157 1.26125,-1.61865c2.64555,-3.16383 2.00295,-5.57881 -1.07015,-4.0219c-1.9093,0.96725 -3.86353,1.26208 -5.20123,0.78455c-1.32339,-0.47247 -2.65101,-1.88747 -2.65101,-2.82532c0,-1.10078 3.19197,-5.22894 7.14875,-9.24535c3.37005,-3.4213 6.71785,-7.58009 7.8804,-9.78969c0.49895,-0.94835 1.01847,-1.85387 1.15497,-2.0118c0.70266,-0.8131 3.27219,-5.2029 4.38728,-7.49565c1.54056,-3.16763 2.57417,-4.62122 3.65942,-5.14622c0.85973,-0.41621 1.89586,-0.49475 2.6653,-0.20242c1.02605,0.39016 2.7661,3.18651 4.77325,7.67163c0.96054,2.14576 3.48221,5.8392 5.11388,7.48938c0.79128,0.80009 2.47292,2.21716 3.73669,3.14998c2.68167,1.97733 6.04962,5.24826 7.09627,6.89085c0.40277,0.6321 1.01637,1.58044 1.36287,2.10755c0.78246,1.18859 1.15836,2.24319 1.32552,3.72073l0.12936,1.14323l-0.93073,0.5901c-1.40111,0.88872 -2.15332,1.02521 -4.8165,0.87486c-2.0815,-0.1172 -2.36081,-0.09619 -2.46875,0.18437c-0.2058,0.53674 0.25452,1.64975 1.4263,3.44858c1.51831,2.33057 2.98869,3.86229 8.22899,8.57422c2.45067,2.20372 4.69722,4.36586 4.99208,4.80475c0.7337,1.09242 1.56784,3.03659 1.56784,3.65398c0,0.78119 -0.48677,1.77153 -1.05377,2.14281c-0.49182,0.32213 -0.61403,0.31543 -3.22514,-0.17848c-3.4444,-0.65143 -4.26465,-0.66571 -4.40157,-0.07855c-0.20329,0.87065 0.18228,2.24405 0.93912,3.34485c2.07813,3.02271 8.72961,9.5717 13.48859,13.28111c1.31709,1.02646 2.61743,2.11342 2.88956,2.41498c1.66739,1.84673 2.56619,5.10925 1.81146,6.56956c-0.61446,1.18819 -4.04834,2.88748 -5.83458,2.88748c-0.51324,0 -1.59894,-0.13776 -2.41248,-0.30617c-1.8862,-0.39017 -2.06258,-0.25957 -2.16257,1.59976c-0.0634,1.18565 -0.02013,1.36624 0.52711,2.18442c0.75098,1.12431 1.89925,2.06847 3.79297,3.11888c3.28523,1.82234 10.94006,7.32092 12.31429,8.84511c0.3717,0.412 0.99666,1.323 1.38893,2.0244c0.59891,1.07054 0.71231,1.45445 0.70897,2.39354c-0.00505,1.39861 -0.46074,2.43303 -1.47333,3.34608c-1.07607,0.9702 -1.79382,1.15668 -4.18486,1.0878c-2.41583,-0.06929 -2.65649,0.07559 -2.09494,1.2583c0.62958,1.32721 2.33728,2.81108 5.07649,4.41165c1.42212,0.83116 3.05588,1.85973 3.63171,2.28604c2.9324,2.17474 6.90303,6.26971 7.95891,8.21048c0.504,0.92612 0.54053,1.14197 0.54179,3.20839c0.0025,3.78833 -0.11423,4.49731 -0.93491,5.68884c-0.39647,0.57578 -0.89459,1.13988 -1.10626,1.25281c-0.54893,0.29359 -2.70184,0.08908 -4.02399,-0.38177c-0.61362,-0.21877 -1.77492,-0.79001 -2.58046,-1.26964c-1.71022,-1.01721 -2.92235,-1.18857 -3.30829,-0.46704c-0.17978,0.33517 -0.11131,0.61154 0.40149,1.62122c1.08569,2.13945 0.98195,5.12016 -0.25955,7.45915c-0.67953,1.28014 -1.66611,1.95544 -2.53636,1.73749c-0.26208,-0.06552 -1.17557,-0.74255 -2.03026,-1.50357c-3.25203,-2.89716 -3.88914,-3.26801 -6.05298,-3.52254c-0.81815,-0.09619 -1.08527,-0.05289 -1.39229,0.22473c-0.44014,0.39856 -0.48129,0.81056 -0.13315,1.34355c0.35869,0.54979 1.08403,2.41077 1.39523,3.58044c0.4389,1.64975 0.35114,2.39192 -0.46158,3.88582c-0.88281,1.62328 -1.86183,2.4263 -3.61993,2.96936c-1.12349,0.34691 -1.44521,0.37004 -2.72198,0.19363c-1.72495,-0.23813 -3.73042,-1.13272 -5.55196,-2.47714c-1.86729,-1.37801 -5.13779,-3.46327 -6.09874,-3.88829c-1.26378,-0.55861 -1.38852,-0.43008 -1.38852,1.43469c0,1.99919 -0.4137,2.911 -2.21759,4.88748c-1.55984,1.70854 -2.01512,1.95721 -3.58632,1.95721c-9.26511,-2.32849 -6.27309,-12.41216 -16.60541,-7.56331zm3.96939,-147.23298c-2.84756,-0.04619 -4.76274,2.54771 -5.8518,4.8812c-2.50864,5.05423 -5.51202,9.89091 -8.7145,14.54067c-3.9908,5.19704 -9.42387,9.29745 -12.55746,15.13583c-0.78831,2.49773 1.51702,4.81778 3.79047,5.4024c2.16088,0.60353 4.42675,-0.09827 6.35328,-1.0563c-1.27973,2.54141 -3.41373,4.51791 -5.12856,6.75648c-3.61954,4.24071 -7.6809,8.12485 -10.95393,12.65112c-1.22386,2.0164 -1.62664,5.11639 0.4053,6.76195c2.33474,1.90384 5.62247,1.54726 8.3512,0.8656c-3.87405,5.86441 -10.36676,9.09671 -15.48022,13.70236c-2.33097,2.05086 -4.75477,4.13446 -6.43139,6.7733c-1.0248,1.94121 -1.48175,4.83287 0.4456,6.3793c2.27932,1.98993 5.58048,2.00467 8.3718,1.31586c-2.70521,2.17389 -6.0635,3.35115 -8.8132,5.49312c-3.77829,2.5162 -7.86736,4.90768 -10.61372,8.61456c-1.47882,2.31166 -2.27176,5.62708 -0.5712,8.02486c1.96307,2.189 5.24575,1.8967 7.87787,1.50105c0.70055,-0.10417 1.3801,-0.22469 2.08234,-0.26669c-1.66193,1.95592 -4.07229,3.04919 -5.94,4.7825c-3.53468,2.65646 -7.44694,5.73337 -8.40034,10.30418c-0.43681,2.08821 0.53717,4.78207 2.85303,5.17896c2.995,0.68376 5.93539,-0.67746 8.89804,-0.8324c3.64389,-0.50529 7.6666,-0.82617 11.17484,0.16377c-2.20203,2.57542 -4.75773,5.5242 -4.59057,9.13197c0.4763,2.478 3.10839,3.61072 5.23357,4.36249c4.32512,1.13739 8.67377,-0.87444 12.43442,-2.83412c1.54893,-0.89165 3.19407,-2.14369 5.09455,-1.81857c0.93363,2.57457 1.25578,5.55611 3.32343,7.56325c2.26504,2.54268 6.59016,2.52547 8.92786,0.09872c1.52921,-1.4935 2.819,-3.44566 4.58971,-4.66533c0.09492,3.1609 0.05168,9.91402 -0.12894,12.39871c-0.09619,1.31714 -0.27132,3.8602 -0.39018,5.65149c-0.20285,3.06512 -0.58798,5.31711 -1.26964,7.42804c-0.36919,1.14279 -0.60943,1.2713 -4.02567,2.16129c-1.46032,0.3801 -2.80557,0.82739 -2.98952,0.99332c-0.48719,0.43848 -0.41959,1.13605 0.14658,1.50696c0.59764,0.39185 1.25326,0.30109 4.36205,-0.60229c6.28527,-1.82697 11.30001,-2.13739 18.14384,-1.12433c3.21341,0.47586 8.80859,1.58292 10.06017,1.99078c1.35869,0.44312 2.36752,0.4267 2.66235,-0.04413c0.31374,-0.50104 -0.03317,-0.92773 -1.23521,-1.52039c-1.54431,-0.76144 -2.73878,-1.08484 -4.87529,-1.32007c-1.05379,-0.11545 -2.22264,-0.28809 -2.59769,-0.383c-1.76442,-0.4465 -2.40868,-3.75351 -2.94754,-15.12073c-0.12601,-2.65897 -0.21042,-4.15623 -0.13144,-5.01135c1.74129,0.5817 3.71149,0.55185 5.11429,-0.75391c1.48383,-1.32385 2.91939,-2.89716 3.58926,-4.79552c0.18944,-0.66864 0.2789,-1.36078 0.33348,-2.05251c3.9299,2.22305 7.41293,5.89507 12.16647,6.19914c4.44017,0.3087 8.76907,-4.08617 7.75185,-8.5713c-0.22763,-1.28058 -0.91518,-2.5817 -1.26251,-3.71442c3.14745,0.53844 4.63509,3.93913 7.56204,4.92191c2.10626,0.56534 3.79593,-1.41663 4.5498,-3.14745c1.02016,-2.36794 1.06804,-5.11472 0.21211,-7.54018c2.41539,1.33098 5.23776,2.77913 8.07104,2.03276c2.30115,-0.84247 3.17853,-3.54643 3.32764,-5.78546c0.03822,-1.79295 0.11758,-3.63715 -0.2394,-5.38264c-1.05545,-3.11131 -3.80348,-5.17181 -5.95052,-7.50574c-3.00633,-2.85391 -6.8123,-4.65231 -10.06436,-7.15254c-0.7123,-0.49265 -0.07895,-0.43513 0.44856,-0.41454c2.06175,0.04617 4.22389,-0.73708 5.34865,-2.55608c1.70055,-2.47423 1.13399,-5.99081 -0.89124,-8.10593c-2.56955,-3.16595 -6.26215,-5.0916 -9.43774,-7.54233c-2.36664,-1.62833 -5.15416,-2.77112 -7.07103,-4.93997c-0.25034,-0.46284 -0.46074,-1.00966 -0.34357,-1.54224c2.57082,0.63295 5.38141,0.37088 7.65611,-1.03905c1.88997,-0.88408 3.44354,-2.9005 3.00591,-5.06894c-0.23227,-3.50571 -2.77701,-6.31631 -5.57292,-8.17943c-4.81105,-4.03993 -9.67082,-8.19159 -13.33739,-13.33696c-0.29233,-0.44646 -0.60397,-1.12056 0.1869,-0.82866c2.05922,0.26459 4.36374,1.36583 6.35117,0.2793c1.99289,-1.36583 2.09494,-4.35158 0.81271,-6.24158c-1.88748,-3.65605 -5.54144,-5.85263 -8.3613,-8.70566c-2.47125,-2.22557 -4.94672,-4.57965 -6.51497,-7.55614c2.30913,0.20032 4.77199,-0.00421 6.71867,-1.37634c1.60606,-1.10544 0.98363,-3.35115 0.48465,-4.88329c-1.31584,-3.67496 -4.02188,-6.6834 -6.87027,-9.26469c-3.72537,-3.17642 -8.0253,-6.01434 -10.31511,-10.49821c-2.03151,-3.36752 -3.10924,-7.44276 -6.07861,-10.16685c-0.672,-0.47964 -1.50191,-0.71986 -2.32468,-0.70097zm0.31879,147.48203c1.08022,-0.03612 2.13525,0.30746 2.76903,1.29443c1.66571,2.00548 3.06177,4.3839 5.26675,5.83711c0.04913,0.44601 0.09659,0.92316 0.13231,1.41786c0.09996,1.37547 0.26752,3.23401 0.3721,4.12984c0.105,0.89548 0.19028,2.57669 0.18985,3.73587c-0.00084,1.15921 0.12642,3.09875 0.28223,4.31085c0.37338,2.90802 0.69131,6.91354 0.56572,7.11768c-0.11885,0.19196 -1.48929,0.21924 -1.67535,0.03314c-0.07097,-0.07092 -2.45192,-0.17889 -5.29111,-0.23938c-3.03615,-0.06509 -5.2386,-0.18942 -5.34779,-0.30197c-0.26083,-0.26923 0.01805,-4.91815 0.7417,-12.35748c0.08737,-0.89548 0.16632,-4.81824 0.17598,-8.71663c0.00713,-2.76445 0.02353,-4.62671 0.07771,-5.8972c0.54387,-0.20665 1.14531,-0.34352 1.74088,-0.36412z" fill="#D2B48C" id="svg_8"/></g></g></svg>