<svg xmlns="http://www.w3.org/2000/svg" width="187" height="240" xmlns:xlink="http://www.w3.org/1999/xlink" id="svgcontent" overflow="hidden" x="0" y="0" viewBox="0 0 187 240"><defs><mask id="canvasMaskImageDef" maskUnits="objectBoundingBox" x="0" y="0"><image id="canvasMaskImage" preserveAspectRatio="none" x="-106" y="-81" width="400" height="344.82758620689657" xlink:href="http://192.168.0.222/work/jan_langius/print_commerce/source/designnbuy/uploads/productimage/5826bc835e1ff.png"/></mask></defs><g mask="url(#canvasMaskImageDef)" style="pointer-events:all"><title style="pointer-events:inherit">Layer 1</title><g stroke="null" shapeVal="5" shapeId="2" lineHeight="1" font-style="normal" font-weight="normal" text-anchor="middle" fill="#843179" font-family="SF Collegiate" font-size="60" text="Virat" type="nameText" id="nameText" style="pointer-events:inherit"><path d="M53.08356857299805,34.97370147705078 C53.08356857299805,34.97370147705078 44.24913024902344,97.52323150634766 44.24913024902344,97.52323150634766 C44.24913024902344,97.52323150634766 27.249990463256836,114.137451171875 27.249990463256836,114.137451171875 C27.249990463256836,114.137451171875 18.25,34.914621353149414 18.25,34.914621353149414 C18.25,34.914621353149414 33.41604042053223,34.94472122192383 33.41604042053223,34.94472122192383 C33.41604042053223,34.94472122192383 35.58325958251953,54.51344156265259 35.58325958251953,54.51344156265259 C35.58325958251953,54.51344156265259 37.91603088378906,34.952351570129395 37.91603088378906,34.952351570129395 C37.91603088378906,34.952351570129395 53.08356857299805,34.97370147705078 53.08356857299805,34.97370147705078 C53.08356857299805,34.97370147705078 53.08356857299805,34.97370147705078 53.08356857299805,34.97370147705078 M51.58306884765625,36.35440158843994 C51.58306884765625,36.35440158843994 38.916860580444336,36.58824157714844 38.916860580444336,36.58824157714844 C38.916860580444336,36.58824157714844 35.58325004577637,64.78472137451172 35.58325004577637,64.78472137451172 C35.58325004577637,64.78472137451172 32.41670036315918,36.73208141326904 32.41670036315918,36.73208141326904 C32.41670036315918,36.73208141326904 19.748990058898926,37.05886173248291 19.748990058898926,37.05886173248291 C19.748990058898926,37.05886173248291 28.082260131835938,111.30728149414062 28.082260131835938,111.30728149414062 C28.082260131835938,111.30728149414062 43.08275032043457,96.96211242675781 43.08275032043457,96.96211242675781 C43.08275032043457,96.96211242675781 51.58306884765625,36.35440158843994 51.58306884765625,36.35440158843994 M49.415849685668945,38.623741149902344 C49.415849685668945,38.623741149902344 41.58225059509277,95.7532730102539 41.58225059509277,95.7532730102539 C41.58225059509277,95.7532730102539 29.582759857177734,106.77859115600586 29.582759857177734,106.77859115600586 C29.582759857177734,106.77859115600586 21.916210174560547,40.26225185394287 21.916210174560547,40.26225185394287 C21.916210174560547,40.26225185394287 30.916199684143066,39.640241622924805 30.916199684143066,39.640241622924805 C30.916199684143066,39.640241622924805 35.58325004577637,80.43642044067383 35.58325004577637,80.43642044067383 C35.58325004577637,80.43642044067383 40.415849685668945,39.07421112060547 40.415849685668945,39.07421112060547 C40.415849685668945,39.07421112060547 49.41584014892578,38.62373161315918 49.41584014892578,38.62373161315918 C49.41584014892578,38.62373161315918 49.41584014892578,38.62373161315918 49.41584014892578,38.62373161315918 M70.08271026611328,81.63788223266602 C70.08271026611328,81.63788223266602 55.91600036621094,88.95054244995117 55.91600036621094,88.95054244995117 C55.91600036621094,88.95054244995117 55.91600036621094,39.661831855773926 55.91600036621094,39.661831855773926 C55.91600036621094,39.661831855773926 70.08271026611328,39.03866100311279 70.08271026611328,39.03866100311279 C70.08271026611328,39.03866100311279 70.08271026611328,81.63787078857422 70.08271026611328,81.63787078857422 C70.08271026611328,81.63787078857422 70.08271026611328,81.63787078857422 70.08271026611328,81.63787078857422 M68.74927139282227,81.03412055969238 C68.74927139282227,81.03412055969238 68.74927139282227,40.23223114013672 68.74927139282227,40.23223114013672 C68.74927139282227,40.23223114013672 57.08238983154297,40.89390182495117 57.08238983154297,40.89390182495117 C57.08238983154297,40.89390182495117 57.08238983154297,86.92584228515625 57.08238983154297,86.92584228515625 C57.08238983154297,86.92584228515625 68.74927139282227,81.03412055969238 68.74927139282227,81.03412055969238 C68.74927139282227,81.03412055969238 68.74927139282227,81.03412055969238 68.74927139282227,81.03412055969238 M67.08322143554688,79.90802192687988 C67.08322143554688,79.90802192687988 58.91701126098633,83.85930252075195 58.91701126098633,83.85930252075195 C58.91701126098633,83.85930252075195 58.91701126098633,42.76427125930786 58.91701126098633,42.76427125930786 C58.91701126098633,42.76427125930786 67.08322143554688,42.14116096496582 67.08322143554688,42.14116096496582 C67.08322143554688,42.14116096496582 67.08322143554688,79.90802192687988 67.08322143554688,79.90802192687988 C67.08322143554688,79.90802192687988 67.08322143554688,79.90802192687988 67.08322143554688,79.90802192687988 M103.58284759521484,77.85790061950684 C103.58284759521484,77.85790061950684 75.9161605834961,79.61398124694824 75.9161605834961,79.61398124694824 C75.9161605834961,79.61398124694824 75.9161605834961,38.866190910339355 75.9161605834961,38.866190910339355 C75.9161605834961,38.866190910339355 96.41596984863281,38.6493616104126 96.41596984863281,38.6493616104126 C96.41596984863281,38.6493616104126 103.58284759521484,45.1162314414978 103.58284759521484,45.1162314414978 C103.58284759521484,45.1162314414978 103.58284759521484,55.98040151596069 103.58284759521484,55.98040151596069 C103.58284759521484,55.98040151596069 100.91747283935547,58.14694118499756 100.91747283935547,58.14694118499756 C100.91747283935547,58.14694118499756 103.58284759521484,60.59404182434082 103.58284759521484,60.59404182434082 C103.58284759521484,60.59404182434082 103.58284759521484,77.85790061950684 103.58284759521484,77.85790061950684 C103.58284759521484,77.85790061950684 103.58284759521484,77.85790061950684 103.58284759521484,77.85790061950684 M102.2494125366211,76.60861206054688 C102.2494125366211,76.60861206054688 102.2494125366211,60.911681175231934 102.2494125366211,60.911681175231934 C102.2494125366211,60.911681175231934 99.24990844726562,58.04580116271973 99.24990844726562,58.04580116271973 C99.24990844726562,58.04580116271973 102.2494125366211,55.432581424713135 102.2494125366211,55.432581424713135 C102.2494125366211,55.432581424713135 102.2494125366211,45.510741233825684 102.2494125366211,45.510741233825684 C102.2494125366211,45.510741233825684 95.75074768066406,39.6689510345459 95.75074768066406,39.6689510345459 C95.75074768066406,39.6689510345459 77.08253860473633,39.914151191711426 77.08253860473633,39.914151191711426 C77.08253860473633,39.914151191711426 77.08253860473633,78.20183181762695 77.08253860473633,78.20183181762695 C77.08253860473633,78.20183181762695 102.24939727783203,76.60861206054688 102.24939727783203,76.60861206054688 C102.24939727783203,76.60861206054688 102.24939727783203,76.60861206054688 102.24939727783203,76.60861206054688 M100.5833511352539,74.77061080932617 C100.5833511352539,74.77061080932617 92.4171371459961,74.38193130493164 92.4171371459961,74.38193130493164 C92.4171371459961,74.38193130493164 92.4171371459961,61.399600982666016 92.4171371459961,61.399600982666016 C92.4171371459961,61.399600982666016 87.08335876464844,61.61211109161377 87.08335876464844,61.61211109161377 C87.08335876464844,61.61211109161377 87.08335876464844,74.69922065734863 87.08335876464844,74.69922065734863 C87.08335876464844,74.69922065734863 78.91714859008789,76.0594711303711 78.91714859008789,76.0594711303711 C78.91714859008789,76.0594711303711 78.91714859008789,41.53425121307373 78.91714859008789,41.53425121307373 C78.91714859008789,41.53425121307373 95.08402252197266,41.27138137817383 95.08402252197266,41.27138137817383 C95.08402252197266,41.27138137817383 100.58334350585938,46.19252157211304 100.58334350585938,46.19252157211304 C100.58334350585938,46.19252157211304 100.58334350585938,54.73655128479004 100.58334350585938,54.73655128479004 C100.58334350585938,54.73655128479004 96.75006866455078,57.94218158721924 96.75006866455078,57.94218158721924 C96.75006866455078,57.94218158721924 100.58334350585938,61.36551094055176 100.58334350585938,61.36551094055176 C100.58334350585938,61.36551094055176 100.58334350585938,74.77063179016113 100.58334350585938,74.77063179016113 C100.58334350585938,74.77063179016113 100.58334350585938,74.77063179016113 100.58334350585938,74.77063179016113 M92.41712951660156,54.25204133987427 C92.41712951660156,54.25204133987427 92.41712951660156,48.41728138923645 92.41712951660156,48.41728138923645 C92.41712951660156,48.41728138923645 87.0833511352539,48.52501142024994 87.0833511352539,48.52501142024994 C87.0833511352539,48.52501142024994 87.0833511352539,54.406861305236816 87.0833511352539,54.406861305236816 C87.0833511352539,54.406861305236816 92.41712951660156,54.25204133987427 92.41712951660156,54.25204133987427 C92.41712951660156,54.25204133987427 92.41712951660156,54.25204133987427 92.41712951660156,54.25204133987427 M138.41641235351562,94.06939315795898 C138.41641235351562,94.06939315795898 124.24971008300781,84.99875259399414 124.24971008300781,84.99875259399414 C124.24971008300781,84.99875259399414 123.41742706298828,79.06189155578613 123.41742706298828,79.06189155578613 C123.41742706298828,79.06189155578613 121.58432006835938,78.26233100891113 121.58432006835938,78.26233100891113 C121.58432006835938,78.26233100891113 120.58348083496094,83.20458984375 120.58348083496094,83.20458984375 C120.58348083496094,83.20458984375 106.41677856445312,78.40947151184082 106.41677856445312,78.40947151184082 C106.41677856445312,78.40947151184082 114.58299255371094,38.96378135681152 114.58299255371094,38.96378135681152 C114.58299255371094,38.96378135681152 130.4172592163086,39.626030921936035 130.4172592163086,39.626030921936035 C130.4172592163086,39.626030921936035 138.41641235351562,94.06940078735352 138.41641235351562,94.06940078735352 M137.08447265625,91.65946960449219 C137.08447265625,91.65946960449219 129.25086975097656,40.849321365356445 129.25086975097656,40.849321365356445 C129.25086975097656,40.849321365356445 115.58383178710938,40.116461753845215 115.58383178710938,40.116461753845215 C115.58383178710938,40.116461753845215 107.91728210449219,77.69269180297852 107.91728210449219,77.69269180297852 C107.91728210449219,77.69269180297852 119.58415985107422,81.59378051757812 119.58415985107422,81.59378051757812 C119.58415985107422,81.59378051757812 120.58348846435547,76.50764083862305 120.58348846435547,76.50764083862305 C120.58348846435547,76.50764083862305 124.41676330566406,78.12723159790039 124.41676330566406,78.12723159790039 C124.41676330566406,78.12723159790039 125.25054168701172,84.29932022094727 125.25054168701172,84.29932022094727 C125.25054168701172,84.29932022094727 137.08447265625,91.65946960449219 137.08447265625,91.65946960449219 C137.08447265625,91.65946960449219 137.08447265625,91.65946960449219 137.08447265625,91.65946960449219 M134.91725158691406,87.97932052612305 C134.91725158691406,87.97932052612305 126.75103759765625,83.14266204833984 126.75103759765625,83.14266204833984 C126.75103759765625,83.14266204833984 125.9172592163086,77.05198097229004 125.9172592163086,77.05198097229004 C125.9172592163086,77.05198097229004 119.08299255371094,74.2811107635498 119.08299255371094,74.2811107635498 C119.08299255371094,74.2811107635498 118.08365631103516,79.16649055480957 118.08365631103516,79.16649055480957 C118.08365631103516,79.16649055480957 110.08300018310547,76.5539608001709 110.08300018310547,76.5539608001709 C110.08300018310547,76.5539608001709 117.08281707763672,41.96394157409668 117.08281707763672,41.96394157409668 C117.08281707763672,41.96394157409668 127.7503662109375,42.73566150665283 127.7503662109375,42.73566150665283 C127.7503662109375,42.73566150665283 134.91725158691406,87.97932052612305 134.91725158691406,87.97932052612305 M124.41676330566406,67.86327171325684 C124.41676330566406,67.86327171325684 122.41658782958984,55.26801156997681 122.41658782958984,55.26801156997681 C122.41658782958984,55.26801156997681 120.41642761230469,66.57972145080566 120.41642761230469,66.57972145080566 C120.41642761230469,66.57972145080566 124.41676330566406,67.86328125 124.41676330566406,67.86328125 C124.41676330566406,67.86328125 124.41676330566406,67.86328125 124.41676330566406,67.86328125 M168.75149536132812,69.28960227966309 C168.75149536132812,69.28960227966309 160.5837860107422,65.5428409576416 160.5837860107422,65.5428409576416 C160.5837860107422,65.5428409576416 160.5837860107422,115.07819366455078 160.5837860107422,115.07819366455078 C160.5837860107422,115.07819366455078 146.58413696289062,100.84267044067383 146.58413696289062,100.84267044067383 C146.58413696289062,100.84267044067383 146.58413696289062,60.1209716796875 146.58413696289062,60.1209716796875 C146.58413696289062,60.1209716796875 138.41641235351562,57.54125118255615 138.41641235351562,57.54125118255615 C138.41641235351562,57.54125118255615 138.41641235351562,40.09808158874512 138.41641235351562,40.09808158874512 C138.41641235351562,40.09808158874512 168.75149536132812,42.72671127319336 168.75149536132812,42.72671127319336 C168.75149536132812,42.72671127319336 168.75149536132812,69.28959083557129 168.75149536132812,69.28959083557129 C168.75149536132812,69.28959083557129 168.75149536132812,69.28959083557129 168.75149536132812,69.28959083557129 M167.58360290527344,66.57640075683594 C167.58360290527344,66.57640075683594 167.58360290527344,44.75293159484863 167.58360290527344,44.75293159484863 C167.58360290527344,44.75293159484863 139.58429718017578,41.633371353149414 139.58429718017578,41.633371353149414 C139.58429718017578,41.633371353149414 139.58429718017578,56.425721168518066 139.58429718017578,56.425721168518066 C139.58429718017578,56.425721168518066 147.75050354003906,58.89763164520264 147.75050354003906,58.89763164520264 C147.75050354003906,58.89763164520264 147.75050354003906,100.27453994750977 147.75050354003906,100.27453994750977 C147.75050354003906,100.27453994750977 159.4174041748047,111.84909057617188 159.4174041748047,111.84909057617188 C159.4174041748047,111.84909057617188 159.4174041748047,63.1272611618042 159.4174041748047,63.1272611618042 C159.4174041748047,63.1272611618042 167.58360290527344,66.57640075683594 167.58360290527344,66.57640075683594 C167.58360290527344,66.57640075683594 167.58360290527344,66.57640075683594 167.58360290527344,66.57640075683594 M165.75050354003906,62.47243118286133 C165.75050354003906,62.47243118286133 157.58428955078125,59.474111557006836 157.58428955078125,59.474111557006836 C157.58428955078125,59.474111557006836 157.58428955078125,106.9482307434082 157.58428955078125,106.9482307434082 C157.58428955078125,106.9482307434082 149.58363342285156,99.3221206665039 149.58363342285156,99.3221206665039 C149.58363342285156,99.3221206665039 149.58363342285156,56.88492155075073 149.58363342285156,56.88492155075073 C149.58363342285156,56.88492155075073 141.41741943359375,54.59770154953003 141.41741943359375,54.59770154953003 C141.41741943359375,54.59770154953003 141.41741943359375,44.140411376953125 141.41741943359375,44.140411376953125 C141.41741943359375,44.140411376953125 165.75050354003906,47.79807138442993 165.75050354003906,47.79807138442993 C165.75050354003906,47.79807138442993 165.75050354003906,62.47244167327881 165.75050354003906,62.47244167327881 C165.75050354003906,62.47244167327881 165.75050354003906,62.47244167327881 165.75050354003906,62.47244167327881 " fill="#843179" id="svg_26" style="pointer-events:inherit"/></g><g stroke="null" shapeVal="0" shapeId="0" lineHeight="1" font-style="normal" font-weight="normal" text-anchor="middle" fill="#800000" font-family="Interceptor" font-size="120" text="54" type="numberText" id="numberText" display=" inline" style="pointer-events:inherit"><path d="M30.013819694519043,169.5578155517578 C47.34716033935547,171.2244873046875 74.01382064819336,163.55781745910645 77.34716033935547,179.2244873046875 C77.01382064819336,193.8911476135254 80.68048858642578,211.89114379882812 65.68048858642578,214.2244873046875 C42.34716033935547,211.2244873046875 4.680490493774414,225.89114379882812 11.013819694519043,190.5578155517578 C11.013819694519043,190.5578155517578 29.34714984893799,190.5578155517578 29.34714984893799,190.5578155517578 C29.34714984893799,190.5578155517578 29.34714984893799,202.2244873046875 29.34714984893799,202.2244873046875 C29.34714984893799,202.2244873046875 57.34714889526367,202.2244873046875 57.34714889526367,202.2244873046875 C57.34714889526367,202.2244873046875 57.34714889526367,183.5578155517578 57.34714889526367,183.5578155517578 C40.68047904968262,181.8911476135254 14.347149848937988,189.5578155517578 11.013819694519043,174.2244873046875 C11.013819694519043,174.2244873046875 11.013819694519043,139.2244873046875 11.013819694519043,139.2244873046875 C11.013819694519043,139.2244873046875 77.34714889526367,139.2244873046875 77.34714889526367,139.2244873046875 C77.34714889526367,139.2244873046875 77.34714889526367,161.89115715026855 77.34714889526367,161.89115715026855 C77.34714889526367,161.89115715026855 58.01380920410156,161.89115715026855 58.01380920410156,161.89115715026855 C58.01380920410156,161.89115715026855 58.01380920410156,151.2244873046875 58.01380920410156,151.2244873046875 C58.01380920410156,151.2244873046875 30.01380968093872,151.2244873046875 30.01380968093872,151.2244873046875 C30.01380968093872,151.2244873046875 30.01380968093872,169.5578155517578 30.01380968093872,169.5578155517578 C30.01380968093872,169.5578155517578 30.01380968093872,169.5578155517578 30.01380968093872,169.5578155517578 M102.01381301879883,183.2244873046875 C102.01381301879883,183.2244873046875 102.01381301879883,149.55781745910645 102.01381301879883,149.55781745910645 C102.01381301879883,149.55781745910645 96.01381301879883,149.55781745910645 96.01381301879883,149.55781745910645 C96.01381301879883,149.55781745910645 96.01381301879883,139.2244873046875 96.01381301879883,139.2244873046875 C96.01381301879883,139.2244873046875 130.34714889526367,139.2244873046875 130.34714889526367,139.2244873046875 C130.34714889526367,139.2244873046875 130.34714889526367,149.55781745910645 130.34714889526367,149.55781745910645 C130.34714889526367,149.55781745910645 123.34714889526367,149.55781745910645 123.34714889526367,149.55781745910645 C123.34714889526367,149.55781745910645 123.34714889526367,169.2244873046875 123.34714889526367,169.2244873046875 C123.34714889526367,169.2244873046875 148.34714126586914,169.2244873046875 148.34714126586914,169.2244873046875 C148.34714126586914,169.2244873046875 148.34714126586914,149.55781745910645 148.34714126586914,149.55781745910645 C148.34714126586914,149.55781745910645 141.01381301879883,149.55781745910645 141.01381301879883,149.55781745910645 C141.01381301879883,149.55781745910645 141.01381301879883,139.2244873046875 141.01381301879883,139.2244873046875 C141.01381301879883,139.2244873046875 176.68047714233398,139.2244873046875 176.68047714233398,139.2244873046875 C176.68047714233398,139.2244873046875 176.68047714233398,149.55781745910645 176.68047714233398,149.55781745910645 C176.68047714233398,149.55781745910645 169.68047714233398,149.55781745910645 169.68047714233398,149.55781745910645 C169.68047714233398,149.55781745910645 169.68047714233398,204.2244873046875 169.68047714233398,204.2244873046875 C169.68047714233398,204.2244873046875 176.68047714233398,204.2244873046875 176.68047714233398,204.2244873046875 C176.68047714233398,204.2244873046875 176.68047714233398,214.2244873046875 176.68047714233398,214.2244873046875 C176.68047714233398,214.2244873046875 141.01381301879883,214.2244873046875 141.01381301879883,214.2244873046875 C141.01381301879883,214.2244873046875 141.01381301879883,204.2244873046875 141.01381301879883,204.2244873046875 C141.01381301879883,204.2244873046875 148.34714126586914,204.2244873046875 148.34714126586914,204.2244873046875 C148.34714126586914,204.2244873046875 148.34714126586914,183.2244873046875 148.34714126586914,183.2244873046875 C148.34714126586914,183.2244873046875 102.01381301879883,183.2244873046875 102.01381301879883,183.2244873046875 C102.01381301879883,183.2244873046875 102.01381301879883,183.2244873046875 102.01381301879883,183.2244873046875 " fill="#800000" id="svg_27" style="pointer-events:inherit"/></g></g></svg>