<?xml version="1.0" encoding="UTF-8"?>
<svg xmlns="http://www.w3.org/2000/svg" width="187" height="252" viewBox="0 0 187 252"><g><title>Layer 1</title><g clip-id="884" display="null" id="svg_4"><path fill="#228B22" id="svg_5" d="m28.79317,15.00097c8.23114,0.50544 25.57226,-0.14249 28.03266,1.26317c-3.34106,-0.01036 -19.41794,0.71553 -8.48094,2.49847c4.16467,0.23478 8.19555,1.29658 1.46185,1.22572c-10.14222,0.69645 6.83436,1.97473 9.87408,1.75746c3.78417,-0.48153 8.36065,2.01054 1.78837,1.69297c-4.14381,0.28573 -13.58336,-0.08597 -14.33699,0.80311c10.60561,0.87156 21.23697,0.72828 31.85794,0.73307c-6.07456,3.16705 -22.28339,0.71314 -22.37852,4.37209c7.3026,1.39848 22.2355,0.80471 24.81988,1.69615c-19.05216,1.1215 -38.17491,0.16318 -57.25531,0.89465c-4.23646,-0.37885 -14.26272,2.74918 -7.22895,-4.84173c3.3558,-4.89582 7.38423,-9.01962 11.84593,-12.09513l0,0zm-15.92037,19.0867c24.07357,0.39478 48.1496,0.63836 72.22317,1.02596c4.72808,5.59945 7.32224,17.20668 -3.42575,16.92731c-21.24373,1.54494 -42.48195,3.42417 -63.63853,6.38823c24.36141,0.19184 48.71973,0.71318 73.07809,1.23133c1.67421,8.81982 0.30379,17.86731 -9.88818,16.68535c-8.46374,0.23082 -23.26101,-0.05891 -27.74972,1.87601c12.03556,0.48476 24.07847,0.45846 36.11894,0.69009c-5.81984,29.77464 -33.31428,47.92532 -55.34971,36.69614c-21.81018,-9.60863 -34.22381,-44.48524 -25.07944,-72.08294c0.99852,-3.29121 2.24251,-6.45669 3.71114,-9.43748l0,0z"/><path fill="#007FFF" id="svg_6" d="m131.1209,126.30716c22.51476,0 40.7648,20.12857 40.7648,44.98749l0,0.49187c-1.5601,-2.4165 -3.46387,-4.28459 -5.69652,-5.45781c-5.9408,-3.12483 -12.87819,-0.61681 -18.92577,5.82794c-2.89487,-11.30635 -7.65852,-18.71739 -13.04021,-18.71739c-6.11934,0 -11.43227,9.55609 -14.11543,23.56148c-2.76172,-5.82152 -6.18867,-9.27591 -9.90659,-9.27591c-4.67036,0 -8.88718,5.47211 -11.90054,14.24336c-0.24487,9.62936 -4.37762,18.22148 -11.10947,21.38544c-6.38017,2.99986 -13.36793,0.29449 -18.293,-6.11682c-3.19744,0.57625 -6.45871,2.63535 -9.46286,5.91144c-2.40574,-9.61415 -6.38323,-15.92604 -10.85598,-15.92604c-5.08464,0 -9.47945,8.121 -11.7097,20.0307c-2.29466,-4.95152 -5.13924,-7.88144 -8.22866,-7.88144c-5.33994,0 -10.00111,8.83179 -12.27985,21.63211c-2.70278,-5.49597 -4.24076,-11.85866 -4.24076,-18.5932c0,-21.1386 15.18575,-38.25533 33.89668,-38.25533c6.36362,0 12.31971,1.97314 17.4068,5.41878c0.65238,-2.79457 1.65151,-5.35593 2.97531,-7.59331c-0.55974,-0.78008 -1.23849,-1.8434 -1.45638,-2.79218c-0.43942,-1.9135 -0.72294,-4.25908 0.19026,-5.33519c1.24707,-1.47169 2.86728,-1.47169 4.11436,0c0.08529,0.10027 0.14912,0.2475 0.22153,0.36931c1.08324,0.71159 2.09338,1.17242 3.0066,1.39529c0.39584,-0.2356 0.78677,-0.41951 1.20226,-0.6153c1.41953,-0.66696 2.88383,-1.02115 4.33591,-1.14856c1.01324,-1.09677 1.70796,-2.43874 2.12038,-3.65334c0.04969,-1.16522 0.26511,-2.19205 0.79106,-2.87335c1.67116,-2.16653 3.83635,-2.16653 5.50751,0c1.45141,1.88162 1.47535,6.41214 1.29738,9.48204c1.36614,1.00764 2.64818,2.24457 3.82957,3.69397c4.38131,-19.6367 20.41951,-34.19129 39.56066,-34.19129l0,-0.00477l0.00063,0zm31.34854,-73.23547c-9.58315,0 -17.61301,7.28684 -19.80643,17.11915c-0.59224,-0.72594 -1.23357,-1.34518 -1.91783,-1.84979c0.08958,-1.53775 0.07671,-3.80459 -0.64992,-4.74701c-0.8365,-1.08488 -1.92032,-1.08488 -2.75682,0c-0.26389,0.34148 -0.37129,0.85563 -0.39647,1.43907c-0.2068,0.6081 -0.5542,1.27989 -1.06111,1.82828c-0.72722,0.06445 -1.46004,0.24118 -2.1707,0.57547c-0.20868,0.09791 -0.40381,0.19023 -0.60205,0.30804c-0.45723,-0.11144 -0.96294,-0.34226 -1.50485,-0.69884l-0.11169,-0.18466c-0.62474,-0.73625 -1.43486,-0.73625 -2.05899,0c-0.45723,0.53967 -0.31546,1.71366 -0.09514,2.67119c0.10863,0.4744 0.44862,1.00687 0.72906,1.3977c-0.66217,1.11989 -1.16357,2.40292 -1.48947,3.80141c-2.54691,-1.72481 -5.52893,-2.71256 -8.71532,-2.71256c-9.36777,0 -16.96922,8.57069 -16.96922,19.15276c0,3.37161 0.76961,6.55695 2.12283,9.30932c1.14089,-6.40892 3.47487,-10.82957 6.14819,-10.82957c1.54718,0 2.97159,1.4669 4.11987,3.94547c1.11695,-5.9624 3.31711,-10.02886 5.86281,-10.02886c2.23885,0 4.23156,3.15987 5.43507,7.97372c1.50357,-1.64044 3.13606,-2.67036 4.73787,-2.95927c2.46591,3.21 5.96347,4.56393 9.15848,3.06197c3.36989,-1.58392 5.43872,-5.88602 5.5621,-10.70623c1.50848,-4.39203 3.61905,-7.13085 5.95793,-7.13085c1.86139,0 3.57672,1.72881 4.95943,4.64353c1.34282,-7.01226 4.00328,-11.79585 7.06693,-11.79585c2.69479,0 5.0791,3.71065 6.52869,9.37063c3.02744,-3.22675 6.50107,-4.48196 9.47514,-2.91794c1.11757,0.58823 2.07129,1.52342 2.85194,2.73325l0,-0.24672c-0.00186,-12.44536 -9.13948,-22.5228 -20.41032,-22.5228l0,0zm-30.91219,-9.64522c-2.41435,0 -4.43718,1.83624 -4.99014,4.31242c-0.14912,-0.1823 -0.31054,-0.33908 -0.48297,-0.46563c0.02206,-0.38682 0.019,-0.95832 -0.16451,-1.1955c-0.21048,-0.27301 -0.48298,-0.27301 -0.69408,0c-0.06629,0.08597 -0.09328,0.21571 -0.10003,0.36216c-0.05219,0.1536 -0.13994,0.32232 -0.26759,0.46085c-0.18349,0.01672 -0.36822,0.06127 -0.54742,0.14485l-0.1516,0.078c-0.11536,-0.02787 -0.24303,-0.08597 -0.3793,-0.1759l-0.02759,-0.04695c-0.15714,-0.18547 -0.36211,-0.18547 -0.51922,0c-0.11537,0.13609 -0.07978,0.4314 -0.0239,0.67333c0.02759,0.11941 0.11289,0.25393 0.18348,0.35183c-0.16632,0.28173 -0.29275,0.6057 -0.37499,0.95832c-0.64133,-0.43459 -1.3931,-0.68374 -2.19585,-0.68374c-2.36037,0 -4.27574,2.15939 -4.27574,4.82579c0,0.84927 0.19392,1.65238 0.53516,2.34564c0.2872,-1.61496 0.87575,-2.72846 1.54902,-2.72846c0.38969,0 0.74812,0.36931 1.03777,0.99412c0.28109,-1.50195 0.83526,-2.52634 1.47659,-2.52634c0.56464,0 1.06542,0.79596 1.3692,2.00897c0.37865,-0.4139 0.79046,-0.67337 1.19308,-0.7458c0.62169,0.80868 1.50295,1.15015 2.30755,0.77127c0.85,-0.39878 1.37042,-1.48284 1.4011,-2.69745c0.37989,-1.10635 0.912,-1.79644 1.50114,-1.79644c0.4695,0 0.90158,0.43537 1.24956,1.17002c0.33875,-1.76701 1.00893,-2.97204 1.78035,-2.97204c0.67877,0 1.27962,0.93445 1.6454,2.36076c0.76222,-0.81265 1.63736,-1.12943 2.38672,-0.73547c0.28169,0.14806 0.52287,0.38367 0.71928,0.68852l0,-0.0621c0.00182,-3.136 -2.30081,-5.67506 -5.14047,-5.67506zm-17.16867,-4.22327c-1.20103,0 -2.20694,0.91294 -2.48249,2.14506c-0.07365,-0.09075 -0.15404,-0.16793 -0.23997,-0.23164c0.01105,-0.19258 0.00983,-0.47675 -0.0816,-0.59533c-0.10497,-0.13614 -0.2412,-0.13614 -0.34553,0c-0.03378,0.04298 -0.04665,0.10744 -0.05034,0.18068c-0.02515,0.07639 -0.06934,0.16075 -0.13318,0.22921c-0.09083,0.00797 -0.18288,0.03027 -0.27187,0.07164l-0.07548,0.03902c-0.05708,-0.01433 -0.11968,-0.04299 -0.18842,-0.08758l-0.01411,-0.02308c-0.07794,-0.09233 -0.17985,-0.09233 -0.25778,0c-0.05766,0.06767 -0.03926,0.21492 -0.01226,0.33429l0.09084,0.17511c-0.08288,0.1401 -0.14487,0.30088 -0.18658,0.47679c-0.31974,-0.21571 -0.69287,-0.33987 -1.09243,-0.33987c-1.17341,0 -2.12653,1.07451 -2.12653,2.40053c0,0.42265 0.09637,0.82222 0.26639,1.16687c0.14235,-0.8031 0.43509,-1.35711 0.77078,-1.35711c0.19335,0 0.37193,0.18387 0.51614,0.49429c0.13993,-0.74741 0.41548,-1.25677 0.73463,-1.25677c0.28109,0 0.53025,0.39635 0.68122,0.99969c0.18842,-0.20538 0.39339,-0.33512 0.59348,-0.37091c0.3093,0.40192 0.74812,0.57229 1.14825,0.38363c0.42223,-0.19898 0.68123,-0.73783 0.69654,-1.34196c0.18965,-0.54999 0.45416,-0.89382 0.74691,-0.89382c0.23382,0 0.44801,0.21649 0.62229,0.58183c0.16756,-0.87875 0.50081,-1.47809 0.8856,-1.47809c0.33693,0 0.63643,0.46485 0.81745,1.17481c0.37991,-0.40432 0.81504,-0.56193 1.18818,-0.36534c0.14053,0.07404 0.2596,0.19105 0.35718,0.34304l0,-0.03101c0.00062,-1.56084 -1.14395,-2.82401 -2.55734,-2.82401zm-12.22521,-1.96995c-0.67017,0 -1.23234,0.5094 -1.38515,1.19706l-0.13439,-0.12973c0.00675,-0.10744 0.00552,-0.26583 -0.04482,-0.3319c-0.0589,-0.0756 -0.13438,-0.0756 -0.19268,0l-0.02763,0.1003l-0.07425,0.12813l-0.15221,0.04063l-0.04171,0.02147l-0.10558,-0.04934l-0.00735,-0.01276l-0.14363,0l-0.00735,0.18705l0.05094,0.0979c-0.04603,0.07882 -0.08102,0.16797 -0.10372,0.26587c-0.1786,-0.1202 -0.38728,-0.18945 -0.60944,-0.18945c-0.65483,0 -1.1869,0.59934 -1.1869,1.33956c0,0.2356 0.054,0.45849 0.14789,0.65029c0.08039,-0.44813 0.24302,-0.75695 0.43022,-0.75695c0.10802,0 0.20745,0.10269 0.28782,0.2762c0.07857,-0.41708 0.2326,-0.70121 0.40997,-0.70121c0.15712,0 0.2958,0.22046 0.37991,0.55714c0.10555,-0.11462 0.21908,-0.18626 0.332,-0.20695c0.17186,0.22446 0.41673,0.31918 0.64013,0.21414c0.23566,-0.11066 0.37988,-0.41151 0.38845,-0.74819c0.10557,-0.30725 0.25349,-0.49826 0.41732,-0.49826c0.13012,0 0.24979,0.12098 0.34614,0.32471c0.09392,-0.49029 0.28049,-0.82458 0.49406,-0.82458c0.18902,0 0.35534,0.25948 0.45661,0.65504c0.21233,-0.22603 0.45412,-0.31356 0.6628,-0.20374c0.07793,0.04137 0.14483,0.10666 0.19885,0.19101l0,-0.01751c0.0006,-0.87157 -0.63824,-1.57595 -1.42628,-1.57595z"/></g></g></svg>