<svg xmlns="http://www.w3.org/2000/svg" width="188" height="238" x="0" y="0" id="svgcontent" overflow="visible" viewBox="0 0 188 238"><defs><mask id="canvasMaskImageDef" maskUnits="objectBoundingBox" x="0" y="0"><image id="canvasMaskImage" preserveAspectRatio="none" style="pointer-events:none" x="-106" y="-84" width="400" height="344.82758620689657" xlink:href="http://37.97.236.145/~shirtwere/designnbuy/uploads/productimage/582ee44596613.png" xmlns:xlink="http://www.w3.org/1999/xlink"/></mask></defs><g style="pointer-events:all" mask="url(#canvasMaskImageDef)"><title style="pointer-events:inherit">Layer 1</title><g id="svg_1" type="text" text="Harish@##@#@   Kinkar" font-size="12.564963884779392" font-family="Brush-Script" font-id="1" fill="000000" text-anchor="start" font-weight="normal" font-style="normal" lineHeight="1" shapeId="0" shapeVal="0" fill-opacity="1" display="null" elemBBoxWidth="115" elemBBoxHeight="58.10546875" xscale="2.4468085106382977" yscale="2.4469485112683005"><path id="svg_2" fill="#000000" d="M63.71422576904297,94.02201843261719 C62.63818359375,93.74532318115234 61.746612548828125,93.80681610107422 60.63982391357422,93.77606964111328 C59.65602111816406,94.94435119628906 58.48773956298828,96.666015625 59.34856414794922,98.72586059570312 C59.34856414794922,98.72586059570312 56.12043762207031,99.70968627929688 56.12043762207031,99.70968627929688 C54.12208557128906,98.35694885253906 56.73533630371094,95.28253173828125 57.288719177246094,93.80681610107422 C55.32109069824219,93.99128723144531 53.50718688964844,94.08351135253906 51.72405242919922,94.544677734375 C50.309814453125,95.95890045166016 48.74187469482422,97.74205017089844 47.66583251953125,99.40223693847656 C47.02019500732422,100.41679382324219 45.32927703857422,99.74043273925781 45.29853057861328,98.63363647460938 C45.72895050048828,97.21941375732422 47.11243438720703,95.95890045166016 47.88103485107422,94.88285827636719 C46.46681213378906,95.0058364868164 44.745147705078125,95.03658294677734 44.837364196777344,93.59161376953125 C44.89885711669922,92.48482513427734 45.667457580566406,91.80846405029297 46.40531921386719,91.37804412841797 C48.249961853027344,91.86993408203125 50.340553283691406,90.64018249511719 52.21595001220703,90.4557113647461 C52.21595001220703,90.4557113647461 55.19812774658203,87.41205596923828 55.19812774658203,87.41205596923828 C55.19812774658203,87.41205596923828 58.27252197265625,83.96871185302734 58.27252197265625,83.96871185302734 C58.948890686035156,83.16938018798828 59.47154998779297,82.76970672607422 59.62525939941406,81.87812042236328 C59.59452819824219,81.3862075805664 59.194854736328125,81.32473754882812 58.579978942871094,81.32473754882812 C54.36803436279297,81.32473754882812 51.20140075683594,83.07714080810547 48.09623718261719,84.39913177490234 C48.680381774902344,84.55286407470703 48.64964294433594,85.16773986816406 48.034767150878906,85.41368103027344 C46.28235626220703,86.059326171875 44.65290832519531,86.9201431274414 43.05421447753906,87.71949768066406 C41.578514099121094,88.45735168457031 41.24031066894531,86.55121612548828 41.67073059082031,85.16773986816406 C42.377845764160156,82.89266967773438 43.546119689941406,82.2470474243164 45.60597229003906,81.44770050048828 C49.69493865966797,79.8490219116211 54.02984619140625,78.31181335449219 59.194854736328125,78.12735748291016 C61.43915557861328,78.03511810302734 63.130096435546875,79.38785552978516 62.54595947265625,81.78588104248047 C61.746612548828125,85.07550048828125 58.149559020996094,87.22758483886719 56.089691162109375,89.74859619140625 C56.089691162109375,89.74859619140625 60.762786865234375,89.22595977783203 60.762786865234375,89.22595977783203 C60.762786865234375,89.22595977783203 66.54267120361328,82.03184509277344 66.54267120361328,82.03184509277344 C67.43425750732422,81.04802703857422 67.64945983886719,80.49464416503906 68.54104614257812,80.15645599365234 C69.12517547607422,80.18720245361328 69.24816131591797,81.17100524902344 69.00221252441406,81.75515747070312 C67.86467742919922,84.42987823486328 65.00548553466797,86.76643371582031 63.25305938720703,89.1952133178711 C65.22068786621094,89.22595977783203 66.23523712158203,89.28744506835938 67.40351104736328,89.96381378173828 C67.40351104736328,89.96381378173828 65.31291961669922,91.83920288085938 65.31291961669922,91.83920288085938 C64.69804382324219,92.48482513427734 64.23687744140625,93.2841796875 63.71422576904297,94.02201843261719 C63.71422576904297,94.02201843261719 63.71422576904297,94.02201843261719 63.71422576904297,94.02201843261719 M82.52958679199219,94.23723602294922 C82.52958679199219,94.66765594482422 82.43737030029297,95.12882232666016 82.49884033203125,95.52848052978516 C80.80792999267578,96.81974029541016 79.209228515625,98.32620239257812 77.30310821533203,99.40223693847656 C76.04259490966797,100.10935974121094 74.62837219238281,99.70968627929688 74.62837219238281,98.32620239257812 C74.62837219238281,96.88123321533203 75.18177032470703,96.17410278320312 75.79664611816406,94.75987243652344 C74.22869110107422,96.02039337158203 72.6607437133789,97.46536254882812 70.9698257446289,98.5414047241211 C68.51029968261719,100.10935974121094 66.85012817382812,97.00419616699219 67.12682342529297,94.23723602294922 C68.63328552246094,90.97836303710938 72.63001251220703,89.34893798828125 76.19631958007812,88.11917114257812 C78.07171630859375,87.47354888916016 79.91634368896484,87.47354888916016 80.40824890136719,89.13372039794922 C80.37751007080078,89.68712615966797 79.73188781738281,89.74859619140625 79.33220672607422,89.93306732177734 C80.28527069091797,90.24050903320312 80.40824890136719,91.28580474853516 79.76263427734375,92.11589813232422 C78.93253326416016,93.22268676757812 77.45681762695312,94.05276489257812 77.45681762695312,95.71295166015625 C77.45681762695312,96.29708099365234 77.94873046875,96.72750091552734 78.59435272216797,96.60452270507812 C80.28527069091797,96.2663345336914 80.62347412109375,95.49773406982422 82.52958679199219,94.23723602294922 C82.52958679199219,94.23723602294922 82.52958679199219,94.23723602294922 82.52958679199219,94.23723602294922 M69.55559539794922,94.91360473632812 C69.4326171875,95.37477111816406 69.09442901611328,96.78899383544922 69.89378356933594,96.72750091552734 C72.96820068359375,95.71295166015625 75.45846557617188,92.73077392578125 77.48756408691406,90.64018249511719 C74.75135040283203,91.47027587890625 72.13809967041016,92.39259338378906 70.1397476196289,94.05276489257812 C69.863037109375,94.32947540283203 69.64783477783203,94.60616302490234 69.55559539794922,94.91360473632812 C69.55559539794922,94.91360473632812 69.55559539794922,94.91360473632812 69.55559539794922,94.91360473632812 M94.48902893066406,94.23723602294922 C94.48902893066406,94.23723602294922 94.45828247070312,95.5592269897461 94.45828247070312,95.5592269897461 C94.45828247070312,95.5592269897461 91.69132995605469,97.80354309082031 91.69132995605469,97.80354309082031 C90.79974365234375,98.41841888427734 89.78518676757812,99.24851989746094 88.43245697021484,99.24851989746094 C86.24962615966797,99.24851989746094 85.94219207763672,96.29708099365234 87.07971954345703,94.66765594482422 C87.78681945800781,93.65310668945312 88.46320343017578,92.63853454589844 89.29329681396484,91.7469711303711 C89.29329681396484,91.7469711303711 85.8499526977539,92.4540786743164 85.8499526977539,92.4540786743164 C85.8499526977539,92.4540786743164 84.312744140625,94.02201843261719 84.312744140625,94.02201843261719 C83.79010772705078,94.5754165649414 83.08299255371094,95.09806060791016 82.46810150146484,95.58997344970703 C82.49884033203125,95.12882232666016 82.43737030029297,94.63690948486328 82.52958679199219,94.23723602294922 C83.14446258544922,93.7145767211914 83.7286148071289,93.25343322753906 84.25127410888672,92.63853454589844 C83.08299255371094,92.6077880859375 83.51341247558594,91.03985595703125 83.88232421875,90.42498016357422 C84.65092468261719,89.10297393798828 85.66549682617188,87.7809829711914 87.294921875,87.3505630493164 C87.94054412841797,87.38130950927734 88.03278350830078,88.1806640625 87.69459533691406,88.70330047607422 C87.69459533691406,88.70330047607422 91.90652465820312,88.14991760253906 91.90652465820312,88.14991760253906 C92.79811096191406,88.14991760253906 93.56669616699219,89.65637969970703 93.0748062133789,90.57868957519531 C92.18321990966797,92.30035400390625 89.81593322753906,93.0074691772461 89.63147735595703,95.37477111816406 C89.93889617919922,97.25016021728516 92.5521469116211,95.5592269897461 93.25926208496094,95.06732940673828 C93.25926208496094,95.06732940673828 94.48902893066406,94.23723602294922 94.48902893066406,94.23723602294922 M103.40480041503906,94.23723602294922 C103.40480041503906,94.23723602294922 103.37405395507812,95.5592269897461 103.37405395507812,95.5592269897461 C103.37405395507812,95.5592269897461 100.57635498046875,97.74205017089844 100.57635498046875,97.74205017089844 C99.623291015625,98.3876724243164 98.57799530029297,99.18702697753906 97.19449615478516,99.24851989746094 C94.70423126220703,99.34075927734375 94.05860900878906,95.9896469116211 94.79647064208984,93.65310668945312 C95.50357818603516,91.40878295898438 97.6556625366211,88.39585876464844 100.39189147949219,88.39585876464844 C101.59089660644531,88.39585876464844 101.83686828613281,89.44115447998047 101.09901428222656,90.36348724365234 C99.99221801757812,91.71622467041016 98.45501708984375,93.13044738769531 97.22526550292969,94.32947540283203 C96.61036682128906,95.43626403808594 97.44046783447266,96.666015625 98.79319763183594,96.54304504394531 C100.76083374023438,96.32782745361328 101.59089660644531,95.46700286865234 103.40480041503906,94.23723602294922 C103.40480041503906,94.23723602294922 103.40480041503906,94.23723602294922 103.40480041503906,94.23723602294922 M103.31259155273438,84.0916976928711 C103.865966796875,84.0916976928711 104.32713317871094,84.55286407470703 104.32713317871094,85.10624694824219 C104.23489379882812,86.4897232055664 103.28184509277344,87.71949768066406 101.9598388671875,87.81172943115234 C101.19125366210938,87.87322235107422 100.60710144042969,87.22758483886719 100.66859436035156,86.42823028564453 C100.76083374023438,85.16773986816406 101.9598388671875,84.18392944335938 103.31259155273438,84.0916976928711 C103.31259155273438,84.0916976928711 103.31259155273438,84.0916976928711 103.31259155273438,84.0916976928711 M115.39498901367188,94.23723602294922 C115.30276489257812,94.94435119628906 115.51797485351562,95.74369812011719 114.87232971191406,95.95890045166016 C114.87232971191406,95.95890045166016 113.67332458496094,96.8504867553711 113.67332458496094,96.8504867553711 C112.07464599609375,97.957275390625 110.41445922851562,99.4329833984375 107.89344787597656,99.46371459960938 C106.07954406738281,99.49446105957031 103.74301147460938,98.32620239257812 103.74301147460938,96.6967544555664 C103.71223449707031,95.8359146118164 104.5115966796875,95.15955352783203 105.3724365234375,95.19029235839844 C106.29476928710938,95.22103881835938 107.0633544921875,95.8359146118164 107.61672973632812,96.2663345336914 C109.64585876464844,95.34402465820312 110.13777160644531,93.19194030761719 109.58438110351562,90.42498016357422 C109.58438110351562,90.42498016357422 105.80282592773438,93.74532318115234 105.80282592773438,93.74532318115234 C105.80282592773438,93.74532318115234 103.37405395507812,95.58997344970703 103.37405395507812,95.58997344970703 C103.40480041503906,95.12882232666016 103.34332275390625,94.63690948486328 103.435546875,94.23723602294922 C105.55690002441406,92.63853454589844 107.58599853515625,91.00910949707031 109.43063354492188,89.10297393798828 C109.86106872558594,87.62725830078125 109.95329284667969,86.79718017578125 111.42900085449219,86.79718017578125 C112.25909423828125,86.79718017578125 112.38206481933594,87.10462188720703 112.44355773925781,87.9039535522461 C112.53579711914062,89.1952133178711 113.11991882324219,90.0560302734375 113.11991882324219,91.37804412841797 C113.11991882324219,94.26798248291016 110.75263977050781,95.62071228027344 109.03096008300781,96.94270324707031 C111.95166015625,97.31163024902344 113.55033874511719,95.405517578125 115.39498901367188,94.23723602294922 C115.39498901367188,94.23723602294922 115.39498901367188,94.23723602294922 115.39498901367188,94.23723602294922 M124.28001403808594,89.93306732177734 C125.7557373046875,88.94926452636719 127.32368469238281,89.0414810180664 127.63111877441406,90.64018249511719 C127.26219177246094,92.66928100585938 124.61819458007812,93.56086730957031 124.21852111816406,95.5592269897461 C124.21852111816406,96.05113983154297 124.43374633789062,96.2663345336914 124.9256591796875,96.2663345336914 C126.64732360839844,96.2663345336914 127.29293823242188,95.28253173828125 128.953125,94.23723602294922 C128.953125,94.23723602294922 128.92237854003906,95.52848052978516 128.92237854003906,95.52848052978516 C126.27839660644531,97.46536254882812 124.95640563964844,98.787353515625 122.31240844726562,99.34075927734375 C120.09883117675781,99.06404113769531 121.35934448242188,95.86666107177734 122.1279296875,94.85211181640625 C122.1279296875,94.85211181640625 124.21852111816406,92.05440521240234 124.21852111816406,92.05440521240234 C121.48233032226562,93.92980194091797 119.14576721191406,96.32782745361328 116.8399658203125,98.66438293457031 C116.68623352050781,98.8180923461914 116.53251647949219,98.8180923461914 116.4095458984375,98.8180923461914 C115.27200317382812,98.5414047241211 115.33349609375,97.34237670898438 115.33349609375,95.5592269897461 C115.33349609375,90.94761657714844 118.65388488769531,88.3343734741211 120.83668518066406,85.50592041015625 C122.22018432617188,83.72276306152344 124.15705871582031,81.87812042236328 125.69424438476562,80.64836883544922 C126.80104064941406,79.72603607177734 127.60037231445312,79.2648696899414 128.06153869628906,79.2648696899414 C128.6149444580078,79.2648696899414 129.19908142089844,79.57231140136719 129.19908142089844,80.1257095336914 C129.19908142089844,80.64836883544922 128.6764373779297,81.60142517089844 127.66188049316406,82.92341613769531 C124.71044921875,86.70494079589844 120.867431640625,90.57868957519531 117.42408752441406,94.05276489257812 C117.42408752441406,94.05276489257812 117.39335632324219,95.22103881835938 117.39335632324219,95.22103881835938 C119.60693359375,93.46863555908203 121.91273498535156,91.50102233886719 124.28001403808594,89.93306732177734 C124.28001403808594,89.93306732177734 124.28001403808594,89.93306732177734 124.28001403808594,89.93306732177734 "/><path id="svg_3" fill="#000000" d="M89.50849914550781,134.8035125732422 C89.53924560546875,135.6028594970703 89.10882568359375,136.55592346191406 88.3094711303711,136.12551879882812 C88.3094711303711,136.12551879882812 75.36622619628906,128.96214294433594 75.36622619628906,128.96214294433594 C75.36622619628906,128.96214294433594 72.90670776367188,131.8828125 72.90670776367188,131.8828125 C72.6607437133789,133.66598510742188 71.24651336669922,134.43460083007812 69.95526885986328,135.20318603515625 C68.7562484741211,135.9102783203125 67.95690155029297,134.77279663085938 68.78699493408203,133.69671630859375 C68.78699493408203,133.69671630859375 73.58306884765625,127.51716613769531 73.58306884765625,127.51716613769531 C72.414794921875,126.34889221191406 73.64456176757812,124.71946716308594 74.68985748291016,124.13531494140625 C74.68985748291016,124.13531494140625 78.22542572021484,122.22920227050781 78.22542572021484,122.22920227050781 C78.22542572021484,122.22920227050781 81.20760345458984,117.64834594726562 81.20760345458984,117.64834594726562 C81.20760345458984,117.64834594726562 76.74971008300781,118.9395751953125 76.74971008300781,118.9395751953125 C73.64456176757812,119.83114624023438 71.12355041503906,121.49134826660156 68.44880676269531,122.72108459472656 C67.68020629882812,123.09002685546875 66.7271499633789,122.81332397460938 66.7271499633789,121.89102172851562 C66.78863525390625,118.23246765136719 69.37112426757812,117.12568664550781 71.43099212646484,115.46549987792969 C71.76917266845703,115.18879699707031 72.26106262207031,115.5269775390625 72.07660675048828,115.92665100097656 C71.64618682861328,116.3878173828125 71.154296875,116.78750610351562 70.69313049316406,117.2178955078125 C70.69313049316406,117.2178955078125 74.90505981445312,115.61921691894531 74.90505981445312,115.61921691894531 C76.96490478515625,114.912109375 79.14775848388672,114.17425537109375 81.79173278808594,114.17425537109375 C83.14446258544922,114.54318237304688 84.28199768066406,116.3878173828125 83.23670196533203,117.92503356933594 C83.23670196533203,117.92503356933594 81.45354461669922,120.50752258300781 81.45354461669922,120.50752258300781 C81.45354461669922,120.50752258300781 92.49065399169922,115.40400695800781 92.49065399169922,115.40400695800781 C93.38224029541016,114.97360229492188 93.99711608886719,115.89591979980469 93.29000854492188,116.63377380371094 C92.3984375,117.58685302734375 91.69132995605469,119.15478515625 89.6622085571289,118.87809753417969 C89.6622085571289,118.87809753417969 79.94708251953125,123.64341735839844 79.94708251953125,123.64341735839844 C79.11701202392578,124.22755432128906 77.42607116699219,124.5042724609375 77.85649108886719,125.97996520996094 C80.71569061279297,127.97833251953125 84.09754180908203,129.6077880859375 87.1104507446289,131.45240783691406 C88.46320343017578,132.2825164794922 89.416259765625,133.0511016845703 89.50849914550781,134.8035125732422 C89.50849914550781,134.8035125732422 89.50849914550781,134.8035125732422 89.50849914550781,134.8035125732422 M99.80775451660156,130.28414916992188 C99.80775451660156,130.28414916992188 99.77700805664062,131.6061248779297 99.77700805664062,131.6061248779297 C99.77700805664062,131.6061248779297 96.97930145263672,133.78897094726562 96.97930145263672,133.78897094726562 C96.02623748779297,134.43460083007812 94.98094177246094,135.23391723632812 93.59746551513672,135.29541015625 C91.10719299316406,135.38766479492188 90.46155548095703,132.03656005859375 91.19941711425781,129.6999969482422 C91.90652465820312,127.45567321777344 94.05860900878906,124.44277954101562 96.79484558105469,124.44277954101562 C97.99385070800781,124.44277954101562 98.23981475830078,125.48806762695312 97.501953125,126.41038513183594 C96.3951644897461,127.76312255859375 94.85796356201172,129.17733764648438 93.62818908691406,130.37637329101562 C93.01331329345703,131.48316955566406 93.8434066772461,132.71292114257812 95.1961441040039,132.58993530273438 C97.16377258300781,132.37474060058594 97.99385070800781,131.51390075683594 99.80775451660156,130.28414916992188 C99.80775451660156,130.28414916992188 99.80775451660156,130.28414916992188 99.80775451660156,130.28414916992188 M99.71553039550781,120.13861083984375 C100.2689208984375,120.13861083984375 100.73008728027344,120.59976196289062 100.73008728027344,121.15315246582031 C100.63784790039062,122.53663635253906 99.68478393554688,123.76640319824219 98.36277770996094,123.85862731933594 C97.59417724609375,123.92012023925781 97.01004028320312,123.27449035644531 97.071533203125,122.47514343261719 C97.16377258300781,121.21464538574219 98.36277770996094,120.23081970214844 99.71553039550781,120.13861083984375 C99.71553039550781,120.13861083984375 99.71553039550781,120.13861083984375 99.71553039550781,120.13861083984375 M106.2025146484375,125.51881408691406 C105.67987060546875,127.51716613769531 102.91290283203125,128.53172302246094 102.35951232910156,130.4993438720703 C102.60546875,131.2987060546875 103.28184509277344,130.4686279296875 103.58927917480469,130.13040161132812 C105.34169006347656,128.1627960205078 108.20088195800781,125.94921875 110.4759521484375,124.44277954101562 C111.27529907226562,123.92012023925781 111.82867431640625,123.67416381835938 112.1668701171875,123.67416381835938 C112.93547058105469,123.95086669921875 112.87397766113281,125.27285766601562 113.18141174316406,126.04145812988281 C112.32057189941406,127.94758605957031 109.46139526367188,128.90065002441406 109.46139526367188,131.4216766357422 C109.46139526367188,131.97506713867188 109.76881408691406,132.2825164794922 110.35296630859375,132.2209930419922 C111.9208984375,132.06729125976562 112.72024536132812,131.26792907714844 114.19596862792969,130.28414916992188 C114.19596862792969,130.7145538330078 114.10374450683594,131.17572021484375 114.16523742675781,131.6061248779297 C112.13612365722656,132.98960876464844 110.56816101074219,135.38766479492188 107.55526733398438,135.38766479492188 C105.52613830566406,135.38766479492188 105.80282592773438,132.4054718017578 106.69441223144531,131.02200317382812 C106.69441223144531,131.02200317382812 108.56980895996094,128.1627960205078 108.56980895996094,128.1627960205078 C106.26399230957031,129.82298278808594 104.38862609863281,132.55917358398438 102.35951232910156,134.37307739257812 C100.63784790039062,135.9102783203125 99.50030517578125,133.66598510742188 99.77700805664062,131.17572021484375 C100.08445739746094,128.34725952148438 101.74462890625,126.16444396972656 103.83522033691406,125.02690124511719 C104.69606018066406,124.81169128417969 106.14103698730469,124.75021362304688 106.2025146484375,125.51881408691406 C106.2025146484375,125.51881408691406 106.2025146484375,125.51881408691406 106.2025146484375,125.51881408691406 M129.13758850097656,130.31488037109375 C129.0760955810547,130.7145538330078 129.0760955810547,131.14498901367188 129.0760955810547,131.6061248779297 C127.04698181152344,133.14332580566406 125.41754150390625,135.8180694580078 122.25091552734375,135.8180694580078 C119.94512939453125,135.8180694580078 119.05354309082031,133.51226806640625 117.97749328613281,132.03656005859375 C117.11666870117188,132.80514526367188 116.59400939941406,133.9119415283203 115.85615539550781,134.8035125732422 C114.41117858886719,135.5720977783203 114.13447570800781,133.38929748535156 114.13447570800781,131.6368865966797 C114.13447570800781,130.13040161132812 114.53414916992188,128.96214294433594 115.1490478515625,127.94758605957031 C118.1004638671875,123.02854919433594 122.31240844726562,119.12403869628906 126.95475769042969,115.89591979980469 C127.60037231445312,115.43476867675781 129.01461791992188,115.00434875488281 129.01461791992188,116.11112976074219 C129.01461791992188,116.66452026367188 128.4304656982422,117.61756896972656 127.29293823242188,118.97032165527344 C124.00332641601562,122.78257751464844 119.7913818359375,126.68707275390625 116.07135009765625,130.25338745117188 C116.07135009765625,130.25338745117188 116.00987243652344,131.052734375 116.00987243652344,131.052734375 C116.00987243652344,131.052734375 121.14414978027344,126.93304443359375 121.14414978027344,126.93304443359375 C122.61984252929688,125.85699462890625 124.46449279785156,124.16606140136719 126.18617248535156,124.01235961914062 C127.75410461425781,123.85862731933594 128.46121215820312,126.28739929199219 127.60037231445312,127.64015197753906 C126.4013671875,129.6077880859375 123.75736999511719,130.5608367919922 121.72825622558594,131.79058837890625 C122.22018432617188,133.0203399658203 123.849609375,133.54299926757812 125.35606384277344,132.74365234375 C126.70878601074219,132.03656005859375 127.93856811523438,131.14498901367188 129.13758850097656,130.31488037109375 C129.13758850097656,130.31488037109375 129.13758850097656,130.31488037109375 129.13758850097656,130.31488037109375 M124.71044921875,127.05599975585938 C122.68133544921875,127.4249267578125 121.05189514160156,129.17733764648438 119.72990417480469,130.22265625 C120.16032409667969,130.4686279296875 120.55999755859375,130.62232971191406 120.89817810058594,130.92974853515625 C122.40461730957031,129.9766845703125 124.4952392578125,128.7776641845703 125.01786804199219,127.39421081542969 C125.01786804199219,127.14823913574219 124.9256591796875,127.05599975585938 124.71044921875,127.05599975585938 C124.71044921875,127.05599975585938 124.71044921875,127.05599975585938 124.71044921875,127.05599975585938 M144.54037475585938,130.28414916992188 C144.54037475585938,130.7145538330078 144.4481201171875,131.17572021484375 144.50961303710938,131.5753936767578 C142.81869506835938,132.86663818359375 141.21998596191406,134.37307739257812 139.31387329101562,135.44915771484375 C138.05335998535156,136.15625 136.63912963867188,135.75657653808594 136.63912963867188,134.37307739257812 C136.63912963867188,132.92813110351562 137.19253540039062,132.2209930419922 137.80740356445312,130.8068084716797 C136.2394561767578,132.06729125976562 134.67152404785156,133.51226806640625 132.98060607910156,134.58831787109375 C130.5210723876953,136.15625 128.86087036132812,133.0511016845703 129.13758850097656,130.28414916992188 C130.64404296875,127.02525329589844 134.64077758789062,125.39582824707031 138.20709228515625,124.16606140136719 C140.0824737548828,123.52044677734375 141.9271240234375,123.52044677734375 142.4190216064453,125.18063354492188 C142.38829040527344,125.73402404785156 141.74264526367188,125.79550170898438 141.3429718017578,125.97996520996094 C142.29603576660156,126.28739929199219 142.4190216064453,127.33271789550781 141.7733917236328,128.1627960205078 C140.94329833984375,129.26959228515625 139.4675750732422,130.09967041015625 139.4675750732422,131.75987243652344 C139.4675750732422,132.34397888183594 139.95948791503906,132.7744140625 140.60511779785156,132.65142822265625 C142.29603576660156,132.31324768066406 142.63421630859375,131.5446319580078 144.54037475585938,130.28414916992188 C144.54037475585938,130.28414916992188 144.54037475585938,130.28414916992188 144.54037475585938,130.28414916992188 M131.5663604736328,130.96051025390625 C131.44338989257812,131.4216766357422 131.10520935058594,132.83590698242188 131.90455627441406,132.7744140625 C134.9789581298828,131.75987243652344 137.46922302246094,128.7776641845703 139.49835205078125,126.68707275390625 C136.76211547851562,127.51716613769531 134.14886474609375,128.43948364257812 132.15049743652344,130.09967041015625 C131.87379455566406,130.37637329101562 131.65859985351562,130.65306091308594 131.5663604736328,130.96051025390625 C131.5663604736328,130.96051025390625 131.5663604736328,130.96051025390625 131.5663604736328,130.96051025390625 M156.49981689453125,130.28414916992188 C156.49981689453125,130.28414916992188 156.46905517578125,131.6061248779297 156.46905517578125,131.6061248779297 C156.46905517578125,131.6061248779297 153.70208740234375,133.8504638671875 153.70208740234375,133.8504638671875 C152.81051635742188,134.46533203125 151.79595947265625,135.29541015625 150.44322204589844,135.29541015625 C148.26039123535156,135.29541015625 147.9529571533203,132.34397888183594 149.09046936035156,130.7145538330078 C149.79759216308594,129.6999969482422 150.47396850585938,128.68545532226562 151.30406188964844,127.79386901855469 C151.30406188964844,127.79386901855469 147.8607177734375,128.5009765625 147.8607177734375,128.5009765625 C147.8607177734375,128.5009765625 146.32350158691406,130.06890869140625 146.32350158691406,130.06890869140625 C145.80087280273438,130.62232971191406 145.09375,131.14498901367188 144.4788818359375,131.6368865966797 C144.50961303710938,131.17572021484375 144.4481201171875,130.68382263183594 144.54037475585938,130.28414916992188 C145.15524291992188,129.76148986816406 145.7393798828125,129.30032348632812 146.26202392578125,128.68545532226562 C145.09375,128.6547088623047 145.524169921875,127.08674621582031 145.8931121826172,126.47187805175781 C146.6616973876953,125.14988708496094 147.67625427246094,123.827880859375 149.30567932128906,123.3974609375 C149.95130920410156,123.42822265625 150.04356384277344,124.22755432128906 149.7053680419922,124.75021362304688 C149.7053680419922,124.75021362304688 153.91729736328125,124.19680786132812 153.91729736328125,124.19680786132812 C154.8088836669922,124.19680786132812 155.57748413085938,125.70327758789062 155.0855712890625,126.62557983398438 C154.19398498535156,128.34725952148438 151.8267059326172,129.05438232421875 151.64224243164062,131.4216766357422 C151.94967651367188,133.2970733642578 154.56292724609375,131.6061248779297 155.27005004882812,131.11422729492188 C155.27005004882812,131.11422729492188 156.49981689453125,130.28414916992188 156.49981689453125,130.28414916992188 "/><rect id="svg_4" x="41.49999701976776" y="78.12500414252281" width="87.70279491692781" height="21.772773193195462" fill="#000000" opacity="0"/><rect id="svg_5" x="66.72315261978656" y="114.17719926312566" width="89.77684749942273" height="22.049950727261603" fill="#000000" opacity="0"/></g></g></svg>