<svg width="190" height="247" xmlns="http://www.w3.org/2000/svg" xmlns:xlink="http://www.w3.org/1999/xlink" viewBox="0 0 190 247"><defs><mask y="0" x="0" maskUnits="objectBoundingBox" id="canvasMaskImageDef"><image xlink:href="http://37.97.236.145/~shirtwere/designnbuy/uploads/productimage/582ee43d3d161.png" height="344.82759" width="400" y="-78" x="-105" preserveAspectRatio="none" id="canvasMaskImage"/></mask></defs><g mask="url(#canvasMaskImageDef)"><title>Layer 1</title><g clip-id="1" display="null" id="svg_4"><path stroke-width="0" id="svg_5" d="m151.56349,83.41394l15.1862,-10.36282l-21.65909,-6.33999c-18.08492,-31.78271 -54.99592,-15.2081 -67.33192,15.01896c-14.88446,36.43411 -57.51314,49.7238 -57.51314,49.7238c30.33963,36.08549 57.70391,42.60208 75.95456,41.16371c18.26008,-1.4494 67.54455,-15.80226 57.2849,-79.86958c-0.53627,-3.32868 -1.18356,-6.43067 -1.92152,-9.33408z" fill="#2BA9E1"/><path stroke-width="0" id="svg_6" d="m145.09061,66.71113c2.58446,4.54195 4.7843,10.083 6.47289,16.70281l15.1862,-10.36282l-21.65909,-6.33999zm-24.13722,40.23029c0,0 -50.65724,-10.44569 -56.46719,17.74254c-5.80837,28.18203 40.96358,44.53928 56.46719,-17.74254zm9.74681,-41.0136c0.33929,3.02224 -1.21796,5.68488 -3.48502,5.9491c-2.27489,0.25484 -4.3981,-1.99345 -4.73427,-5.011c-0.34708,-3.02222 1.21014,-5.68487 3.48504,-5.94909c2.27957,-0.24548 4.38873,1.98877 4.73425,5.01099z" fill="#2B3277"/></g></g></svg>