<svg xmlns="http://www.w3.org/2000/svg" width="197" height="323" x="0" y="0" id="svgcontent" overflow="visible" viewBox="0 0 197 323"><g style="pointer-events:all" mask=""><title style="pointer-events:inherit">Layer 1</title><g id="svg_1" type="text" text="asd" font-size="33.96551426280105" font-family="Brush-Script" font-id="1" fill="000000" text-anchor="start" font-weight="normal" font-style="normal" lineHeight="1" shapeId="0" shapeVal="0" fill-opacity="1" display="null" elemBBoxWidth="143.25" elemBBoxHeight="62.93119812011719" xscale="2.9086294416243654" yscale="2.908629355705711" stroke="null" stroke-opacity="1" transform=""><path id="svg_2" fill="#000000" d="M75.25948431110623,113.74370744290343 C75.25948431110623,115.12681079396606 74.96310502159292,116.6087072415329 75.1606912146018,117.89301749609103 C69.72707090685623,122.04232754927864 64.58982988862402,126.88318927799736 58.46465790534714,130.34094765565374 C54.414140948664055,132.61318887525636 49.86965850945873,131.32887862069822 49.86965850945873,126.88318927799736 C49.86965850945873,122.23991374228757 51.64793424653908,119.96767252268478 53.62379617662836,115.42319008347931 C48.58534825490068,119.47370704016242 43.546900333172914,124.11698257587238 38.11328002542734,127.57474095352859 C30.20983230507008,132.61318887525636 24.875005093828975,122.63508612830537 25.764142962369192,113.74370744290343 C30.60500469108797,103.27163921343026 43.44810723666848,98.03560509869357 54.90810643118638,94.08388123851489 C60.93448531795883,92.00922621192115 66.86207110822676,92.00922621192115 68.44276065229815,97.34405342316234 C68.34396755579365,99.12232916024266 66.26931252919996,99.31991535325153 64.98500227464191,99.91267393227844 C68.04758826628034,100.90060489732309 68.44276065229815,104.25957017847475 66.3681056257044,106.92698378409534 C63.70069202008381,110.4835352582561 58.958623387869466,113.15094886387669 58.958623387869466,118.48577607511777 C58.958623387869466,120.36284490870275 60.53931293194094,121.74594825976521 62.613967958534744,121.35077587374724 C68.04758826628034,120.2640518121982 69.13431232782943,117.79422439958648 75.25948431110623,113.74370744290343 C75.25948431110623,113.74370744290343 75.25948431110623,113.74370744290343 75.25948431110623,113.74370744290343 M33.56879758622193,115.91715556600167 C33.17362520020404,117.39905201356868 32.08690113865501,121.94353445277414 34.65552164777105,121.74594825976521 C44.5348312982176,118.48577607511777 52.53707211507924,108.9028457141847 59.05741648437393,102.18491515188106 C50.26483089547659,104.85232875750165 41.867417692597,107.8161216526355 35.44586641980675,113.15094886387669 C34.556728551266616,114.04008673241685 33.86517687573536,114.92922460095701 33.56879758622193,115.91715556600167 C33.56879758622193,115.91715556600167 33.56879758622193,115.91715556600167 33.56879758622193,115.91715556600167 M113.68999885134326,113.74370744290343 C113.39361956182984,116.01594866250622 114.08517123736107,118.58456917162226 112.01051621076738,119.27612084715349 C112.01051621076738,119.27612084715349 108.1575854470932,122.14112064578302 108.1575854470932,122.14112064578302 C103.020344428861,125.69767211994377 97.68551721761986,130.43974075215812 89.5844833042537,130.5385338486626 C83.7556906104902,130.637326945167 76.24741527615095,126.88318927799736 76.24741527615095,121.64715516326066 C76.14862217964651,118.88094846113569 78.71724268876255,116.70750033803745 81.48344939088759,116.806293434542 C84.44724228602155,116.90508653104638 86.91706969863316,118.88094846113569 88.69534543571353,120.2640518121982 C95.21568980500825,117.30025891706418 96.7963793490797,110.38474216175172 95.01810361199932,101.49336347634983 C95.01810361199932,101.49336347634983 82.8665527419501,112.16301789883204 82.8665527419501,112.16301789883204 C82.8665527419501,112.16301789883204 75.06189811809736,118.09060368909996 75.06189811809736,118.09060368909996 C75.1606912146018,116.6087072415329 74.96310502159292,115.02801769746151 75.25948431110623,113.74370744290343 C82.07620796991438,108.60646642467128 88.5965523392091,103.37043230993464 94.52413812947702,97.24526032665784 C95.90724148053948,92.5031916944435 96.20362077005291,89.8357780888229 100.94568940226725,89.8357780888229 C103.61310300788779,89.8357780888229 104.00827539390565,90.82370905386756 104.20586158691452,93.39232956298366 C104.502240876428,97.54163961617127 106.37930971001282,100.30784631829624 106.37930971001282,104.55594946798823 C106.37930971001282,113.84250053940798 98.77224127916901,118.18939678560446 93.23982787491894,122.43749993529644 C102.62517204284308,123.62301709335003 107.76241306107528,117.49784511007323 113.68999885134326,113.74370744290343 C113.68999885134326,113.74370744290343 113.68999885134326,113.74370744290343 113.68999885134326,113.74370744290343 M148.26758262790605,121.94353445277414 C153.70120293565162,120.65922419821601 156.66499583078559,117.69543130308216 162.98775400707137,113.74370744290343 C162.79016781406239,115.02801769746151 162.79016781406239,116.41112104852402 162.79016781406239,117.89301749609103 C156.17103034826312,122.33870683879195 151.8241341020667,129.35301669060902 141.74723825861128,130.0445683661403 C135.62206627533448,130.43974075215812 135.9184455648479,121.05439658423398 137.4003420124148,115.81836246949729 C132.06551480117372,119.96767252268478 128.1137909409951,126.389223795475 120.50672251015123,128.16749953255544 C116.35741245696374,127.67353405003314 113.49241265833422,122.33870683879195 113.49241265833422,117.99181059259558 C113.49241265833422,103.37043230993464 126.63189449342815,98.33198438820688 137.89430749493715,94.38026052802832 C141.74723825861128,92.99715717696586 143.52551399569165,94.18267433501939 145.40258282927647,96.45491555462206 C150.2434445579953,88.25508854475152 154.19516841817392,78.57336508731396 160.81430588397308,72.25060691102806 C163.58051258609805,69.68198640191201 168.12499502530346,70.76871046346105 167.63102954278116,74.52284813063085 C166.54430548123207,82.52508894749252 157.75171989233462,91.21888143988537 153.70120293565162,97.83801890568452 C150.34223765449974,103.27163921343026 145.00741044325866,109.49560429321144 145.00741044325866,116.50991414502857 C145.00741044325866,119.57250013666697 145.6989621187899,121.74594825976521 148.26758262790605,121.94353445277414 C148.26758262790605,121.94353445277414 148.26758262790605,121.94353445277414 148.26758262790605,121.94353445277414 M123.0753430192674,119.27612084715349 C130.5836183536067,115.52198317998386 138.09189368794608,109.594397389716 141.94482445162026,101.98732895887213 C135.9184455648479,104.16077708197042 129.89206667807542,106.13663901205962 125.24879114236558,109.79198358272487 C122.68017063324953,111.66905241630968 121.49465347519595,114.1388798289214 121.49465347519595,117.2014658205598 C121.49465347519595,118.28818988210884 122.08741205422274,119.27612084715349 123.0753430192674,119.27612084715349 C123.0753430192674,119.27612084715349 123.0753430192674,119.27612084715349 123.0753430192674,119.27612084715349 " stroke="null" transform=""/><rect id="svg_3" x="25.66751008899155" y="70.8506626864546" width="142.00068530889985" height="60.592303861049004" fill="#000000" opacity="0" stroke="null" transform=""/></g></g></svg>