<?xml version="1.0"?>
<svg xmlns="http://www.w3.org/2000/svg" width="313" height="119"><g><title>Layer 1</title><g elemBBoxHeight="46.43359" yscale="NaN" xscale="2.64856" elemBBoxWidth="207.25" display="null" shapeVal="0" shapeId="0" lineHeight="1" font-style="normal" font-weight="normal" text-anchor="start" fill="0" font-id="1" font-family="Brush-Script" font-size="27.43014" text="Harish" type="text" id="svg_6"><path d="m132.877,64.68588c-2.54276,-0.58994 -4.64961,-0.45885 -7.26503,-0.52439c-2.32481,2.49081 -5.08556,6.16148 -3.05133,10.55319c0,0 -7.62827,2.09752 -7.62827,2.09752c-4.72228,-2.88409 1.453,-9.43887 2.76071,-12.58517c-4.64966,0.39329 -8.93604,0.58994 -13.14974,1.57315c-3.3419,3.01521 -7.04708,6.81698 -9.58984,10.35655c-1.52567,2.16308 -5.52146,0.72103 -5.59409,-1.63869c1.0171,-3.0152 4.28638,-5.70265 6.10262,-7.99682c-3.3419,0.26218 -7.41032,0.32773 -7.19238,-2.75301c0.14529,-2.35973 1.96157,-3.80178 3.70518,-4.71944c4.35899,1.04876 9.29922,-1.57315 13.73093,-1.96644c0,0 7.04709,-6.48923 7.04709,-6.48923c0,0 7.26504,-7.34135 7.26504,-7.34135c1.59828,-1.70424 2.83337,-2.55637 3.19661,-4.45725c-0.07266,-1.04876 -1.01709,-1.17986 -2.47013,-1.17986c-9.95309,0 -17.43607,3.73623 -24.77377,6.55479c1.38037,0.32772 1.30771,1.63869 -0.14529,2.16306c-4.14109,1.37651 -7.99156,3.21185 -11.7694,4.91608c-3.48719,1.57315 -4.28638,-2.49081 -3.26924,-5.44045c1.67095,-4.85054 4.43166,-6.22704 9.29922,-7.93128c9.66251,-3.40849 19.90625,-6.68589 32.11152,-7.07916c5.30347,-0.19664 9.29922,2.68745 7.9189,7.80018c-1.88892,7.01362 -10.38904,11.60195 -15.25661,16.97688c0,0 11.04285,-1.11432 11.04285,-1.11432c0,0 13.65831,-15.33817 13.65831,-15.33817c2.10684,-2.09754 2.61542,-3.27739 4.72227,-3.99842c1.38033,0.06554 1.67094,2.16308 1.08977,3.40849c-2.6881,5.70266 -9.44456,10.68428 -13.58566,15.86256c4.64963,0.06554 7.04709,0.19664 9.8078,1.63869c0,0 -4.94022,3.99842 -4.94022,3.99842c-1.453,1.3765 -2.54276,3.08074 -3.77782,4.6539c0,0 0,0 0,0m44.46207,0.45882c0,0.91766 -0.21794,1.90088 -0.07266,2.753c-3.99576,2.75301 -7.77361,5.96486 -12.27792,8.25903c-2.97867,1.50761 -6.32057,0.65547 -6.32057,-2.29417c0,-3.08074 1.30771,-4.58836 2.76071,-7.60355c-3.70518,2.68748 -7.41032,5.76822 -11.40613,8.06239c-5.81204,3.34294 -9.73517,-3.27739 -9.0813,-9.17669c3.55988,-6.94806 13.00444,-10.42209 21.4319,-13.044c4.43166,-1.37651 8.7907,-1.37651 9.95308,2.16306c-0.07266,1.17986 -1.59828,1.31097 -2.54276,1.70425c2.25218,0.65547 2.54276,2.88409 1.01709,4.65389c-1.96156,2.35971 -5.44875,4.1295 -5.44875,7.66908c0,1.24542 1.16238,2.16309 2.68803,1.90089c3.9958,-0.72103 4.79495,-2.35973 9.29927,-5.04718c0,0 0,0 0,0m-30.65846,1.44205c-0.29062,0.98322 -1.08977,3.99842 0.79913,3.86732c7.26505,-2.16309 13.14973,-8.52122 17.94464,-12.97846c-6.4659,1.76979 -12.64117,3.73621 -17.36345,7.2758c-0.65385,0.58994 -1.16238,1.17986 -1.38033,1.83533c0,0 0,0 0,0m58.91946,-1.44205c0,0 -0.07266,2.81856 -0.07266,2.81856c0,0 -6.53851,4.78498 -6.53851,4.78498c-2.10686,1.31096 -4.50433,3.08076 -7.70094,3.08076c-5.15817,0 -5.8847,-6.29259 -3.19661,-9.76663c1.67094,-2.16307 3.26924,-4.32615 5.2308,-6.22703c0,0 -8.13684,1.50759 -8.13684,1.50759c0,0 -3.63252,3.34295 -3.63252,3.34295c-1.23505,1.17984 -2.90601,2.29417 -4.35904,3.34293c0.07266,-0.98322 -0.07262,-2.03198 0.14532,-2.8841c1.453,-1.11432 2.83337,-2.09752 4.06842,-3.40849c-2.76071,-0.06554 -1.74361,-3.40849 -0.8718,-4.71944c1.81627,-2.81855 4.2137,-5.63711 8.06418,-6.55477c1.52567,0.06554 1.74361,1.76978 0.94447,2.8841c0,0 9.95308,-1.17986 9.95308,-1.17986c2.10689,0 3.92313,3.21185 2.76074,5.17826c-2.10689,3.67069 -7.70097,5.17828 -8.13684,10.22546c0.72649,3.99842 6.90176,0.39329 8.57275,-0.65547c0,0 2.90599,-1.7698 2.90599,-1.7698m21.06863,0c0,0 -0.07266,2.81856 -0.07266,2.81856c0,0 -6.61115,4.65389 -6.61115,4.65389c-2.25218,1.37649 -4.72227,3.08074 -7.99159,3.21185c-5.88466,0.19662 -7.41032,-6.94808 -5.66672,-11.9297c1.67096,-4.78499 6.75652,-11.20868 13.22241,-11.20868c2.83333,0 3.41457,2.22863 1.67094,4.19506c-2.61542,2.8841 -6.24797,5.8993 -9.15398,8.45567c-1.453,2.3597 0.50858,4.98162 3.70514,4.71944c4.6497,-0.45883 6.61122,-2.29417 10.8976,-4.91608c0,0 0,0 0,0m-0.21791,-21.63077c1.30763,0 2.39743,0.98322 2.39743,2.16309c-0.21799,2.94964 -2.47009,5.57155 -5.59409,5.7682c-1.81628,0.1311 -3.19666,-1.24541 -3.05133,-2.94964c0.218,-2.68745 3.05133,-4.785 6.24799,-4.98164c0,0 0,0 0,0m28.55157,21.63077c-0.21799,1.50759 0.29057,3.21185 -1.23505,3.67068c0,0 -2.83342,1.90088 -2.83342,1.90088c-3.7778,2.35973 -7.70093,5.50601 -13.65826,5.57157c-4.28636,0.06554 -9.80779,-2.42527 -9.80779,-5.8993c-0.07266,-1.83533 1.81627,-3.27739 3.85046,-3.21185c2.17952,0.06554 3.9958,1.37651 5.30351,2.29417c4.79494,-1.96642 5.95732,-6.55477 4.64961,-12.45407c0,0 -8.93599,7.07916 -8.93599,7.07916c0,0 -5.73941,3.93286 -5.73941,3.93286c0.07266,-0.98322 -0.07266,-2.03198 0.14532,-2.8841c5.01285,-3.40849 9.8078,-6.88251 14.16684,-10.94648c1.01704,-3.1463 1.23505,-4.91608 4.72227,-4.91608c1.96153,0 2.25218,0.65548 2.39743,2.35971c0.21799,2.75301 1.59837,4.58835 1.59837,7.40691c0,6.16148 -5.59409,9.04558 -9.66255,11.86414c6.90179,0.78658 10.6796,-3.27738 15.03864,-5.7682c0,0 0,0 0,0m20.99596,-9.17668c3.48724,-2.09754 7.19238,-1.9009 7.91895,1.50759c-0.8718,4.32615 -7.11978,6.22704 -8.06427,10.48765c0,1.04876 0.50858,1.50759 1.67096,1.50759c4.06845,0 5.59409,-2.09752 9.51721,-4.32615c0,0 -0.07257,2.753 -0.07257,2.753c-6.24799,4.12952 -9.37198,6.94807 -15.61987,8.12792c-5.23087,-0.58991 -2.25217,-7.40689 -0.43591,-9.56997c0,0 4.94019,-5.96484 4.94019,-5.96484c-6.46579,3.99842 -11.9873,9.11115 -17.43607,14.09277c-0.36322,0.32774 -0.72647,0.32774 -1.01715,0.32774c-2.68799,-0.58993 -2.54274,-3.1463 -2.54274,-6.94806c0,-9.83218 7.84627,-15.40373 13.00447,-21.43413c3.26923,-3.80178 7.84625,-7.73463 11.47873,-10.35655c2.61542,-1.96644 4.50436,-2.94964 5.59409,-2.94964c1.30771,0 2.68808,0.65547 2.68808,1.83533c0,1.1143 -1.23505,3.14629 -3.63257,5.96484c-6.97437,8.06238 -16.05569,16.32139 -24.19254,23.72829c0,0 -0.07266,2.49081 -0.07266,2.49081c5.23087,-3.73622 10.6796,-7.93128 16.27368,-11.27421c0,0 0,0 0,0" fill="#000000" id="svg_7"></path><rect opacity="0" fill="#000000" height="46.42969" width="207.24999" y="30.78516" x="80.375" id="svg_8"></rect></g></g></svg>
