<?xml version="1.0"?>
<svg xmlns="http://www.w3.org/2000/svg" xmlns:xlink="http://www.w3.org/1999/xlink" width="313" height="119"><g><title>Layer 1</title><g display="null" id="svg_1" lockEdit="null" lockTransform="null" pathStr="M334.00007934868336,165.199951171875 c0,58.540775299072266 -50.815574645996094,105.99996948242188 -113.50001525878906,105.99996948242188 C157.81552429497242,271.20001220703125 107.00001068413258,223.74229431152344 107.00001068413258,165.199951171875 C107.00001068413258,106.65769958496094 157.81552429497242,59.19999694824219 220.49997253715992,59.19999694824219 C283.18440552055836,59.19999694824219 334.00007934868336,106.65769958496094 334.00007934868336,165.199951171875 z" type="photobox"><g clip-path="url(#svg_25)"><image xmlns:xlink="http://www.w3.org/1999/xlink" filter="url(#svg_28)" image_id="392" origHeight="768" origWidth="1024" xlink:href="o_1b04lo1it1efq7gn1l85aj71nkpi.jpg" id="svg_27" preserveAspectRatio="none" height="74.52273" width="99.36364" y="-11.85499" x="120.05066"></image></g><path cursor="move" stroke-width="0" fill-opacity="0" fill="#000" shapeType="circle" stroke="#000000" id="svg_26" d="m191.16666,23.31973c0,12.46462 -10.81976,22.56973 -24.16666,22.56973c-13.34692,0.00001 -24.16667,-10.10478 -24.16667,-22.56973c0,-12.46494 10.81975,-22.56973 24.16664,-22.56973c13.34691,0 24.16669,10.10479 24.16669,22.56973z"></path></g><g display="null" id="svg_2" lockEdit="null" lockTransform="null" pathStr="M216.73998108506203,82.39060516655445 C282.02570191025734,-69.30670623481274 537.8009399473667,82.39060516655445 216.73998108506203,277.4373657256365 C-104.32428130507469,82.39060516655445 151.4531311094761,-69.30583648383617 216.73998108506203,82.39060516655445 z" type="photobox"><g clip-path="url(#svg_15)"><image xmlns:xlink="http://www.w3.org/1999/xlink" filter="url(#svg_18)" image_id="392" origHeight="768" origWidth="1024" xlink:href="o_1b04lo1it1efq7gn1l85aj71nkpi.jpg" id="svg_17" preserveAspectRatio="none" height="53.41857" width="71.22475" y="2.85605" x="-5.91302"></image></g><path cursor="move" stroke-width="0" fill-opacity="0" fill="#000" shapeType="heart" stroke="#000000" id="svg_16" d="m27.1668,15.43088c9.9642,-23.15272 49.00177,0 0,29.76892c-49.00226,-29.76892 -9.96437,-52.9215 0,-29.76892z"></path></g><g display="null" id="svg_3" lockEdit="null" lockTransform="null" pathStr="M162.97444458305836,78.86703491210938 C160.48190613090992,81.37220001220703 156.6474792510271,82.5409164428711 153.00322265923023,82.03987884521484 C133.25439758598804,79.36805725097656 114.08094330132008,89.8886947631836 107.94527740776539,106.58741760253906 C106.02805633842945,111.7643814086914 105.64416046440601,117.27471160888672 106.60220642387867,122.618408203125 C107.17747803032398,125.95893859863281 105.83553619682789,129.13174438476562 102.95914001762867,131.3025665283203 C76.30806274712086,151.0074005126953 71.13168640434742,185.23912048339844 91.26318664848804,210.28668212890625 L91.07294769585133,210.28668212890625 C94.33217163383961,214.460693359375 98.35913391411304,218.30218505859375 102.76890869438648,221.47601318359375 L102.9602691680193,221.47601318359375 C105.83669586479664,223.6457977294922 107.1786529570818,226.98641967773438 106.60338135063648,230.16021728515625 C103.53553314507008,247.5257110595703 115.42288513481617,264.2254943847656 134.59636230766773,269.4014892578125 C140.54063721001148,271.0712585449219 146.8687164336443,271.4045715332031 153.00439758598804,270.5712890625 L153.00439758598804,270.73980712890625 C156.83883972465992,270.2378234863281 160.48308105766773,271.4075927734375 162.97549743950367,273.91375732421875 C185.60075683891773,297.1237487792969 224.90690918266773,301.6321105957031 253.6665222197771,284.0989990234375 C258.45784302055836,281.260498046875 262.87004394829273,277.7523193359375 266.51311035454273,273.91375732421875 L266.51311035454273,273.7460632324219 C269.00569458305836,271.2419128417969 272.841296389699,270.0701904296875 276.4842712432146,270.5712890625 C296.424548342824,273.2439880371094 315.5992309600115,262.8909606933594 321.5434753447771,246.1912384033203 C323.459460452199,241.01318359375 323.843249514699,235.50392150878906 322.8875915557146,230.1602020263672 L323.07771606743336,230.1602020263672 C322.50249023735523,226.8197479248047 323.8468200713396,223.6468048095703 326.72200317680836,221.47601318359375 C353.373034670949,201.77108764648438 358.550524905324,167.53839111328125 338.41679687798023,142.49087524414062 C335.1588012725115,138.3169708251953 331.1307556182146,134.47537231445312 326.72200317680836,131.3025665283203 C323.8468200713396,129.13174438476562 322.50249023735523,125.79121398925781 323.07771606743336,122.618408203125 C326.14555664360523,105.25296783447266 314.25947876274586,88.55229949951172 295.084948733449,83.37531280517578 L294.8921997100115,83.37531280517578 C288.9492370635271,81.70652770996094 282.621081545949,81.37220001220703 276.4842712432146,82.20657348632812 L276.4842712432146,82.03987884521484 C272.6486999541521,82.5409164428711 269.00569458305836,81.37220001220703 266.51311035454273,78.86703491210938 C243.88672180473804,55.655982971191406 204.58171387016773,51.146705627441406 175.82089538872242,68.6807632446289 C171.02725525200367,71.51924896240234 166.6174957305193,75.02546691894531 162.97444458305836,78.86703491210938 z" type="photobox"><g clip-path="url(#svg_35)"><image xmlns:xlink="http://www.w3.org/1999/xlink" filter="url(#svg_38)" image_id="392" origHeight="768" origWidth="1024" xlink:href="o_1b04lo1it1efq7gn1l85aj71nkpi.jpg" id="svg_37" preserveAspectRatio="none" height="62.26657" width="83.02209" y="30.68154" x="-12.05445"></image></g><path cursor="move" stroke-width="0" fill-opacity="0" fill="#000" shapeType="cloudMirror" stroke="#000000" id="svg_36" d="m16.93943,44.71234c-0.44343,0.44568 -1.1256,0.6536 -1.77393,0.56446c-3.5134,-0.47533 -6.92445,1.39634 -8.01601,4.36712c-0.34108,0.92101 -0.40938,1.90131 -0.23894,2.85198c0.10234,0.59429 -0.1364,1.15875 -0.64812,1.54495c-4.74135,3.50558 -5.66225,9.59555 -2.08076,14.05163l-0.03384,0c0.57983,0.74258 1.29624,1.42599 2.08076,1.99063l0.03404,0c0.51173,0.38602 0.75047,0.98032 0.64812,1.54496c-0.54578,3.0894 1.56903,6.06036 4.98008,6.98119c1.05751,0.29707 2.1833,0.35636 3.27487,0.20811l0,0.02998c0.68217,-0.08931 1.33049,0.1188 1.7739,0.56466c4.02513,4.12916 11.01788,4.93122 16.13434,1.812c0.8524,-0.50498 1.63735,-1.1291 2.28547,-1.812l0,-0.02984c0.44344,-0.4455 1.12582,-0.65395 1.77392,-0.5648c3.54746,0.47549 6.95872,-1.36636 8.01624,-4.33732c0.34086,-0.9212 0.40913,-1.90132 0.23912,-2.852l0.03382,0c-0.10233,-0.59428 0.13683,-1.15876 0.64834,-1.54495c4.74134,-3.50559 5.66243,-9.59575 2.08056,-14.05181c-0.57961,-0.74255 -1.29622,-1.42599 -2.08056,-1.99045c-0.51151,-0.3862 -0.75067,-0.9805 -0.64834,-1.54495c0.54578,-3.08939 -1.5688,-6.06051 -4.98003,-6.98152l-0.03429,0c-1.05728,-0.29689 -2.18308,-0.35637 -3.27485,-0.20792l0,-0.02966c-0.68237,0.08913 -1.33047,-0.11879 -1.77392,-0.56446c-4.02534,-4.12935 -11.01788,-4.93157 -16.13455,-1.81218c-0.85281,0.50498 -1.63733,1.12875 -2.28545,1.81218z"></path></g><g display="null" id="svg_4" lockEdit="null" lockTransform="null" pathStr="M81.00000305473804,76 L342.0000183135271,76 L342.0000183135271,288.0001525878906 L81.00000305473804,288.0001525878906 z" type="photobox"><g clip-path="url(#svg_20)"><image xmlns:xlink="http://www.w3.org/1999/xlink" filter="url(#svg_23)" image_id="392" origHeight="768" origWidth="1024" xlink:href="o_1b04lo1it1efq7gn1l85aj71nkpi.jpg" id="svg_22" preserveAspectRatio="none" height="64.8148" width="86.41974" y="-10.07407" x="60"></image></g><path cursor="move" stroke-width="0" fill-opacity="0" fill="#000" shapeType="rect" stroke="#000000" id="svg_21" d="m75,4l48.33333,0l0,39.25928l-48.33333,0z"></path></g><g display="null" id="svg_5" lockEdit="null" lockTransform="null" pathStr="M60.40104980766773,82.80117797851562 C67.25573273003101,145.4627685546875 67.25573273003101,208.62010192871094 60.40104980766773,271.27978515625 C60.40104980766773,284.2447814941406 72.07209320366383,294.8820495605469 86.70606537163258,294.8820495605469 C156.54524536430836,288.73297119140625 226.9381286650896,288.73297119140625 296.77849121391773,294.8820495605469 C311.22639770805836,294.8820495605469 323.0823852568865,284.41168212890625 323.0823852568865,271.27978515625 C316.22661133110523,208.62010192871094 316.22661133110523,145.46275329589844 323.0823852568865,82.80117797851562 C323.0823852568865,69.83634185791016 311.41243286430836,59.20002365112305 296.77849121391773,59.20002365112305 L296.77849121391773,59.36592483520508 C226.9381286650896,65.51505279541016 156.54524536430836,65.51505279541016 86.70606537163258,59.36592483520508 C72.2570220977068,59.36592483520508 60.40104980766773,69.83732604980469 60.40104980766773,82.96707916259766 " type="photobox"><g clip-path="url(#svg_30)"><image xmlns:xlink="http://www.w3.org/1999/xlink" filter="url(#svg_33)" image_id="392" origHeight="768" origWidth="1024" xlink:href="o_1b04lo1it1efq7gn1l85aj71nkpi.jpg" id="svg_32" preserveAspectRatio="none" height="64.39995" width="85.8666" y="-8.8928" x="193.88622"></image></g><path cursor="move" stroke-width="0" fill-opacity="0" fill="#000" shapeType="roundedSquare" stroke="#000000" id="svg_31" d="m205,6.34261c1.26126,11.52972 1.26126,23.15067 0,34.68004c0,2.38555 2.14748,4.34281 4.84012,4.34281c12.8504,-1.13143 25.80267,-1.13143 38.65329,0c2.65842,0 4.83994,-1.92654 4.83994,-4.34281c-1.26147,-11.52937 -1.26147,-23.15032 0,-34.68004c0,-2.38553 -2.14728,-4.34261 -4.83994,-4.34261l0,0.03053c-12.85062,1.13144 -25.80289,1.13144 -38.65329,0c-2.65862,0 -4.84012,1.92674 -4.84012,4.34261"></path></g><g display="null" id="svg_6" lockEdit="null" lockTransform="null" pathStr="M97.54810638725758,97.21334075927734 C89.17898865044117,107.95481872558594 84.34294433891773,120.74249267578125 83.59920044243336,133.86949157714844 L83.78484649956226,133.86949157714844 C83.04110260307789,148.1918182373047 86.38962097465992,162.51312255859375 93.27125854790211,175.30078125 L93.27125854790211,175.47195434570312 C98.66538543999195,185.53170776367188 105.54700775444508,194.90972900390625 113.36024017632008,203.43385314941406 C120.42862243950367,211.2772216796875 128.24075622856617,218.6070556640625 136.4253112822771,225.2571563720703 C142.7499420195818,230.5417938232422 149.44589538872242,235.31690979003906 156.3275329619646,240.0900115966797 C159.86172790825367,242.3053741455078 163.21023865044117,244.69090270996094 166.7422515898943,246.9082794189453 L166.55661316215992,246.9082794189453 C173.06688232719898,251.68238830566406 178.83232422173023,257.4786376953125 183.6694519072771,263.78741455078125 C192.41209717094898,274.8713073730469 197.99185486137867,287.8271789550781 199.66609497368336,301.46673583984375 C217.15141601860523,296.01092529296875 233.8918640166521,288.3397521972656 249.1437408477068,278.7904968261719 C284.6723815947771,257.4786376953125 312.94377441704273,227.6427001953125 330.80049438774586,192.52017211914062 L330.98726196587086,192.52017211914062 C340.4736511260271,174.96043395996094 345.86772461235523,155.86402893066406 347.1684753447771,136.25706481933594 L347.1684753447771,136.42623901367188 C347.9133483916521,122.27513885498047 344.93718262016773,108.12501525878906 338.42692871391773,95.16717529296875 C333.21736450493336,84.93622589111328 325.22066040337086,76.24297332763672 315.1761352568865,69.42167663574219 C307.3651306182146,63.96585464477539 298.0621521025896,60.72639846801758 288.2043640166521,59.87448501586914 C269.60185547173023,59.02157974243164 251.37608642876148,65.50048828125 238.3555328398943,78.11697387695312 C230.91577453911304,85.27759552001953 224.59114380180836,93.63052368164062 219.56614990532398,102.49698638916016 L219.75180359184742,102.49698638916016 C217.5194732695818,106.58836364746094 215.47276611626148,110.68074035644531 213.79960937798023,114.9422836303711 L213.6139556914568,114.9422836303711 C210.26538391411304,110.169189453125 206.54553528130054,105.56526184082031 202.63891907036304,101.133544921875 C194.45549316704273,91.92568969726562 184.78232116997242,84.25349426269531 173.62169189751148,78.28714752197266 C161.34595032036304,71.46786499023438 146.46541137993336,69.76203918457031 132.69995422661304,73.85440826416016 L132.8856384307146,73.85440826416016 C118.74995727837086,78.11697387695312 106.47312469780445,86.30068969726562 97.73047943413258,97.38253021240234 " type="photobox"><g clip-path="url(#svg_40)"><image xmlns:xlink="http://www.w3.org/1999/xlink" filter="url(#svg_43)" image_id="392" origHeight="768" origWidth="1024" xlink:href="o_1b04lo1it1efq7gn1l85aj71nkpi.jpg" id="svg_42" preserveAspectRatio="none" height="64.15573" width="85.54097" y="32.03857" x="50.67609"></image></g><path cursor="move" stroke-width="0" fill-opacity="0" fill="#000" shapeType="heartCurve" stroke="#000000" id="svg_41" d="m68.55686,49.85797c-1.53407,1.96894 -2.42053,4.31294 -2.55686,6.71915l0.03403,0c-0.13633,2.62531 0.47746,5.25043 1.73888,7.59444l0,0.03138c0.98875,1.84397 2.25017,3.56298 3.68235,5.12547c1.29565,1.43771 2.72763,2.78128 4.22787,4.00026c1.15932,0.96868 2.3867,1.84397 3.64812,2.71889c0.64783,0.40608 1.26162,0.84335 1.90904,1.2498l-0.03403,0c1.19334,0.87511 2.25016,1.93757 3.13682,3.09399c1.60255,2.0317 2.62533,4.40653 2.93222,6.90669c3.20509,-1.00006 6.27365,-2.4062 9.06935,-4.1566c6.51247,-3.90651 11.69468,-9.3755 14.96786,-15.81353l0.03423,0c1.73888,-3.21873 2.72763,-6.71915 2.96606,-10.31314l0,0.03101c0.13654,-2.59393 -0.40901,-5.18767 -1.60236,-7.56287c-0.95493,-1.87536 -2.42073,-3.46885 -4.26192,-4.71921c-1.43177,-1.00006 -3.13702,-1.59386 -4.94398,-1.75002c-3.40988,-0.15634 -6.7507,1.03126 -9.1374,3.34389c-1.36372,1.31256 -2.52304,2.84366 -3.44413,4.46891l0.03403,0c-0.40919,0.74995 -0.78436,1.5001 -1.09105,2.28125l-0.03403,0c-0.6138,-0.87492 -1.29566,-1.71883 -2.01175,-2.53117c-1.50004,-1.68782 -3.27316,-3.09415 -5.31892,-4.18779c-2.25017,-1.24999 -4.97781,-1.56267 -7.50105,-0.81253l0.03404,0c-2.5911,0.78134 -4.84147,2.28143 -6.44402,4.31275"></path></g><g display="null" id="svg_7" lockEdit="null" lockTransform="null" pathStr="M40.99918442964554,130.52094727754593 L165.39924317598343,130.52094727754593 L203.839810192585,34.400013744831085 L242.28042298555374,130.52094727754593 L366.6805542111397,130.52094727754593 L266.03892213106155,189.92632752656937 L304.48154908418655,286.0473755002022 L203.839810192585,226.64034730196 L103.19822388887405,286.0473755002022 L141.64077454805374,189.92632752656937 L40.99918442964554,130.52094727754593 z" type="photobox"><g clip-path="url(#svg_45)"><image xmlns:xlink="http://www.w3.org/1999/xlink" filter="url(#svg_48)" image_id="392" origHeight="768" origWidth="1024" xlink:href="o_1b04lo1it1efq7gn1l85aj71nkpi.jpg" id="svg_47" preserveAspectRatio="none" height="51.94238" width="69.2565" y="37.8948" x="126.91544"></image></g><path cursor="move" stroke-width="0" fill-opacity="0" fill="#000" shapeType="star_points_5" stroke="#000000" id="svg_46" d="m133,57.265l18.46182,0l5.70483,-14.265l5.70485,14.265l18.46182,0l-14.9359,8.81616l5.70514,14.26501l-14.93591,-8.81641l-14.9359,8.81641l5.70514,-14.26501l-14.9359,-8.81616z"></path></g><g display="null" id="svg_8" lockEdit="null" lockTransform="null" pathStr="M250.85788269340992,52.01461410522461 C250.19571228325367,52.03590774536133 249.55700989067554,52.09172821044922 248.89177246391773,52.15768814086914 C238.2627594023943,53.208003997802734 228.8806335479021,59.90765380859375 224.1154205352068,69.88915252685547 L221.5872222930193,77.44426727294922 C222.1318542510271,74.82611083984375 222.9708892852068,72.287109375 224.1154205352068,69.88915252685547 C215.61514587700367,61.14469909667969 203.68529053032398,57.108856201171875 191.8974792510271,59.0014533996582 C180.10972900688648,60.89606857299805 169.87222595512867,68.49180603027344 164.27722473442554,79.49920654296875 C148.48355408012867,69.8404312133789 128.79538269340992,70.42597198486328 113.56477661430836,81.02546691894531 S90.21612091362476,110.39051055908203 92.68299408257008,129.3265380859375 L94.29762573540211,137.02069091796875 C93.56798858940601,134.49996948242188 93.02328033745289,131.9345703125 92.68299408257008,129.3265380859375 L92.43776245415211,130.03587341308594 C79.19783325493336,131.4698028564453 68.33895416557789,141.66845703125 65.51949615776539,155.3204345703125 S68.56377716362476,182.98065185546875 80.04909057915211,190.0405731201172 L97.98264618217945,194.36663818359375 C91.72036285698414,194.87911987304688 85.46831054985523,193.37213134765625 80.04909057915211,190.0405731201172 C71.19011230766773,199.89523315429688 69.15137024223804,214.48388671875 74.99571533501148,226.5325164794922 C80.84003753960133,238.5811767578125 93.3196441680193,245.51829528808594 106.19575805962086,243.9453582763672 L114.02258606255054,241.88839721679688 C111.50460357964039,242.9346160888672 108.88950653374195,243.61654663085938 106.19575805962086,243.9453582763672 C113.50448913872242,257.30712890625 125.62542267143726,267.05316162109375 139.85251159965992,270.9327087402344 C154.07962341606617,274.8123474121094 169.19163818657398,272.5198974609375 181.79077453911304,264.5852355957031 C192.07022400200367,280.68194580078125 210.31344909965992,289.1372985839844 228.6088287383318,286.28875732421875 C246.90310974419117,283.441162109375 261.99470825493336,269.78302001953125 267.3536560088396,251.25082397460938 L269.21354980766773,240.89593505859375 C268.93660278618336,244.41419982910156 268.33061523735523,247.87359619140625 267.3536560088396,251.25082397460938 C279.93648071587086,259.4453125 295.7659790068865,259.9070739746094 308.7657348662615,252.45635986328125 C321.7675964385271,245.0057830810547 329.87956543266773,230.79971313476562 329.9991333037615,215.32611083984375 L325.3371765166521,192.20716857910156 L306.97529907524586,176.56410217285156 C321.1728698760271,185.39584350585938 330.12382812798023,198.85198974609375 329.9981567412615,215.32611083984375 C346.88017578423023,215.50167846679688 361.22066040337086,201.13626098632812 367.6546508818865,184.6499786376953 C374.08858032524586,168.16265869140625 371.6553833037615,149.3666229248047 361.2676879912615,135.24888610839844 C365.57600708305836,124.73665618896484 365.32060547173023,112.77832794189453 360.56560058891773,102.48020935058594 C355.8095886260271,92.1800537109375 347.03950805962086,84.52547454833984 336.48933716118336,81.52067565917969 C334.128649905324,67.87073516845703 324.396960452199,56.890689849853516 311.53621216118336,53.29325485229492 C298.67537231743336,49.69378662109375 284.98173828423023,54.131465911865234 276.37105102837086,64.7116928100586 L271.14189453423023,73.47238159179688 C272.477526858449,70.3031997680664 274.2240173369646,67.35218048095703 276.37105102837086,64.7116928100586 C270.30180664360523,56.396488189697266 260.781726077199,51.70305252075195 250.85788269340992,52.01461410522461 L250.85788269340992,52.01461410522461 z" type="photobox"><g clip-path="url(#svg_50)"><image xmlns:xlink="http://www.w3.org/1999/xlink" filter="url(#svg_53)" image_id="392" origHeight="768" origWidth="1024" xlink:href="o_1b04lo1it1efq7gn1l85aj71nkpi.jpg" id="svg_52" preserveAspectRatio="none" height="55.34085" width="73.78781" y="35.77793" x="178.64027"></image></g><path cursor="move" stroke-width="0" fill-opacity="0" fill="#000" shapeType="cloud" stroke="#000000" id="svg_51" d="m218.3051,44.00231c-0.10471,0.00337 -0.20569,0.01219 -0.31087,0.02262c-1.68063,0.16607 -3.16411,1.2254 -3.91757,2.80364l-0.39975,1.19459c0.08612,-0.41397 0.21878,-0.81543 0.39975,-1.19459c-1.34402,-1.38264 -3.23035,-2.02078 -5.09419,-1.72153c-1.86385,0.29957 -3.48256,1.50058 -4.36722,3.24104c-2.49724,-1.52721 -5.61028,-1.43463 -8.01848,0.24133s-3.69183,4.6431 -3.30177,7.63721l0.25529,1.21657c-0.11536,-0.39857 -0.20148,-0.8042 -0.25529,-1.21657l-0.03877,0.11215c-2.09344,0.22673 -3.81042,1.83931 -4.25623,3.99792s0.48135,4.37355 2.29736,5.48983l2.8356,0.68403c-0.99017,0.08103 -1.97873,-0.15725 -2.8356,-0.68403c-1.40076,1.55819 -1.72311,3.8649 -0.79901,5.76999c0.92407,1.9051 2.89731,3.00197 4.93324,2.75326l1.23756,-0.32523c-0.39815,0.16542 -0.81165,0.27325 -1.23756,0.32523c1.15562,2.11272 3.07216,3.65373 5.3217,4.26716c2.24954,0.61343 4.63901,0.25096 6.63113,-1.00365c1.62537,2.54516 4.50992,3.8821 7.40271,3.43169c2.89264,-0.45026 5.27887,-2.60983 6.12622,-5.54008l0.29407,-1.63728c-0.04378,0.5563 -0.13959,1.10329 -0.29407,1.63728c1.98956,1.29568 4.49246,1.3687 6.54794,0.19061c2.05582,-1.17806 3.33844,-3.42428 3.35736,-5.87091l-0.73715,-3.65549l-2.90332,-2.47342c2.24487,1.39644 3.66019,3.52408 3.64032,6.12892c2.66931,0.02776 4.9368,-2.24365 5.9541,-4.8504c1.01732,-2.60692 0.6326,-5.57889 -1.00989,-7.81115c0.68123,-1.66216 0.64084,-3.55297 -0.11099,-5.18127c-0.75201,-1.62863 -2.1387,-2.83894 -3.80687,-3.31405c-0.37326,-2.15828 -1.912,-3.89441 -3.94551,-4.46323c-2.03351,-0.56914 -4.1987,0.13253 -5.5602,1.80545l-0.82681,1.38521c0.21118,-0.5011 0.48734,-0.96771 0.82681,-1.38521c-0.95964,-1.31477 -2.46494,-2.05688 -4.03406,-2.00762l0,0z"></path></g><g display="null" id="svg_9" lockEdit="null" lockTransform="null" pathStr="M243.35894471406937,41.414730072021484 C242.66209107637405,41.43620681762695 241.98997193574905,41.49250411987305 241.28986817598343,41.55902862548828 C230.1045807003975,42.618282318115234 220.23133546113968,49.375003814697266 215.21673280000687,59.44151306152344 L212.55616456270218,67.06098175048828 C213.129360973835,64.4205322265625 214.01223450899124,61.859901428222656 215.21673280000687,59.44151306152344 C206.2715271115303,50.62257766723633 193.71722108125687,46.552364349365234 181.312466442585,48.461082458496094 C168.907681286335,50.371829986572266 158.13430482149124,58.03225326538086 152.2464264035225,69.13343048095703 C135.62609559297562,59.39237594604492 114.90736848115921,59.982906341552734 98.87955170869827,70.67269134521484 S74.30876618623734,100.287841796875 76.90476685762405,119.38514709472656 L78.60391694307327,127.14482116699219 C77.83607941865921,124.60262298583984 77.2628830075264,122.01536560058594 76.90476685762405,119.38514709472656 L76.64667969942093,120.10050964355469 C62.71378022432327,121.54663848876953 51.28653794527054,131.8321533203125 48.31949692964554,145.60043334960938 S51.52312928438187,173.4962158203125 63.60959702730179,180.61624145507812 L82.48181611299515,184.97915649414062 C75.89173585176468,185.4960174560547 69.31243592500687,183.97618103027344 63.60959702730179,180.61624145507812 C54.2869194149971,190.5548095703125 52.14147645235062,205.2677459716797 58.291710674762726,217.4189910888672 C64.44194108247757,229.5702667236328 77.57474213838577,236.56640625 91.1248214840889,234.98013305664062 L99.36134034395218,232.9055938720703 C96.71155244112015,233.96078491210938 93.95957642793655,234.64852905273438 91.1248214840889,234.98013305664062 C98.8161056637764,248.45570373535156 111.5714767575264,258.2847595214844 126.54324799776077,262.1973876953125 C141.51504212617874,266.11004638671875 157.41810303926468,263.798095703125 170.67670899629593,255.79576110839844 C181.4942291378975,272.02960205078125 200.69233399629593,280.5568542480469 219.945278942585,277.68408203125 C239.19717103242874,274.8122863769531 255.07868653535843,261.037841796875 260.7181823849678,242.34783935546875 L262.67548829317093,231.90472412109375 C262.3840454220772,235.4529266357422 261.74631959199905,238.9418487548828 260.7181823849678,242.34783935546875 C273.9597595334053,250.612060546875 290.61774903535843,251.07774353027344 304.2979858517647,243.56362915039062 C317.9803588986397,236.04959106445312 326.5168884396553,221.72250366210938 326.6427124142647,206.11720275878906 L321.7367065548897,182.8013153076172 L302.41389161348343,167.02500915527344 C317.35444337129593,175.93197631835938 326.7739380002022,189.50274658203125 326.64170533418655,206.11720275878906 C344.40729981660843,206.29425048828125 359.4984558224678,191.8065185546875 366.2691772580147,175.17974853515625 C373.0399597287178,158.552001953125 370.4794128537178,139.59593200683594 359.5479858517647,125.35792541503906 C364.0818298459053,114.75614929199219 363.8130005002022,102.69597625732422 358.8090942502022,92.31016540527344 C353.8042114377022,81.92227172851562 344.5750854611397,74.20250701904297 333.47260743379593,71.172119140625 C330.9884155392647,57.40591049194336 320.7473571896553,46.332340240478516 307.2133911252022,42.704261779785156 C293.6794555783272,39.07413864135742 279.2690551877022,43.54961013793945 270.20762330293655,54.219947814941406 L264.7047546505928,63.05527114868164 C266.1102722287178,59.85908508300781 267.94822388887405,56.88292694091797 270.20762330293655,54.219947814941406 C263.8207214474678,45.833927154541016 253.80222779512405,41.10052490234375 243.35894471406937,41.414730072021484 L243.35894471406937,41.414730072021484 z" type="photobox"><g clip-path="url(#svg_65)"><image xmlns:xlink="http://www.w3.org/1999/xlink" filter="url(#svg_68)" image_id="392" origHeight="768" origWidth="1024" xlink:href="o_1b04lo1it1efq7gn1l85aj71nkpi.jpg" id="svg_67" preserveAspectRatio="none" height="52.58824" width="70.11766" y="73.77956" x="107.73989"></image></g><path cursor="move" stroke-width="0" fill-opacity="0" fill="#000" shapeType="cloud" stroke="#000000" id="svg_66" d="m144.30508,80.00221c-0.10471,0.00323 -0.20569,0.01169 -0.31088,0.02168c-1.6806,0.15915 -3.16409,1.17436 -3.91754,2.68687l-0.39975,1.14484c0.08612,-0.39674 0.21878,-0.78147 0.39975,-1.14484c-1.34402,-1.32506 -3.23035,-1.93661 -5.09418,-1.64983c-1.86386,0.28709 -3.48257,1.43808 -4.36725,3.10606c-2.49722,-1.46362 -5.61026,-1.37489 -8.01848,0.23128s-3.69181,4.44974 -3.30176,7.31915l0.2553,1.16591c-0.11536,-0.38197 -0.20149,-0.77071 -0.2553,-1.16591l-0.03877,0.10749c-2.09345,0.21728 -3.81042,1.7627 -4.25623,3.83141s0.48135,4.1914 2.29737,5.2612l2.83559,0.65554c-0.99017,0.07765 -1.97873,-0.1507 -2.83559,-0.65554c-1.40075,1.49329 -1.72311,3.70394 -0.79902,5.52969c0.92408,1.82575 2.89731,2.87694 4.93324,2.6386l1.23755,-0.31171c-0.39813,0.15855 -0.81162,0.26188 -1.23755,0.31171c1.15562,2.02473 3.07215,3.50157 5.32169,4.08945c2.24955,0.58789 4.63902,0.24051 6.63114,-0.96185c1.62537,2.43917 4.50992,3.72041 7.40271,3.28876c2.89264,-0.4315 5.27887,-2.50114 6.12622,-5.30935l0.29408,-1.5691c-0.04379,0.53313 -0.1396,1.05734 -0.29408,1.5691c1.98956,1.24172 4.49246,1.31169 6.54794,0.18268c2.05582,-1.129 3.33844,-3.28168 3.35735,-5.6264l-0.73714,-3.50326l-2.90329,-2.37042c2.24484,1.33829 3.66016,3.37732 3.64029,5.87368c2.66931,0.0266 4.93678,-2.15022 5.9541,-4.64841c1.01733,-2.49836 0.6326,-5.34655 -1.00987,-7.48584c0.68123,-1.59294 0.64082,-3.40501 -0.11102,-4.9655c-0.752,-1.5608 -2.13869,-2.72071 -3.80687,-3.17603c-0.37325,-2.0684 -1.91199,-3.73223 -3.9455,-4.27735c-2.03351,-0.54544 -4.1987,0.12701 -5.56018,1.73026l-0.82683,1.32753c0.21118,-0.48024 0.48734,-0.92741 0.82683,-1.32753c-0.95966,-1.26002 -2.46497,-1.97122 -4.03409,-1.92401l0,0z"></path></g><g display="null" id="svg_10" lockEdit="null" lockTransform="null" pathStr="M145.4288787841797,64.22966766357422 C142.8813018798828,66.94640350341797 138.96218872070312,68.21382904052734 135.2374725341797,67.67049407958984 C115.05257415771484,64.77300643920898 95.4556884765625,76.18226623535156 89.18451690673828,94.29145050048828 C87.2249755859375,99.90571594238281 86.83259582519531,105.8814697265625 87.8117904663086,111.67652130126953 C88.39974975585938,115.2992172241211 87.0281753540039,118.74003601074219 84.0882797241211,121.09420776367188 C56.848628997802734,142.4634246826172 51.55793380737305,179.58657836914062 72.134033203125,206.7499237060547 L71.93959045410156,206.7499237060547 C75.27079772949219,211.27645874023438 79.3866958618164,215.44244384765625 83.89383697509766,218.88433837890625 L84.08942413330078,218.88433837890625 C87.02938842773438,221.2374267578125 88.40096282958984,224.8601837158203 87.81299591064453,228.3020477294922 C84.67739868164062,247.13438415527344 96.82727813720703,265.24468994140625 116.42416381835938,270.85784912109375 C122.49969482421875,272.6686706542969 128.96752166748047,273.0301513671875 135.23867797851562,272.1264343261719 L135.23867797851562,272.3092346191406 C139.15777587890625,271.76483154296875 142.88250732421875,273.03338623046875 145.42996215820312,275.7512512207031 C168.55494689941406,300.9217529296875 208.72915649414062,305.8109436035156 238.12393188476562,286.79681396484375 C243.02105712890625,283.71856689453125 247.5307159423828,279.9140625 251.2542266845703,275.7512512207031 L251.2542266845703,275.56939697265625 C253.8018798828125,272.853759765625 257.72215270996094,271.5830078125 261.44561767578125,272.1264343261719 C281.82623291015625,275.02490234375 301.4244079589844,263.7974853515625 307.4999694824219,245.68716430664062 C309.4582214355469,240.07176208496094 309.8504943847656,234.09716796875 308.8737487792969,228.302001953125 L309.0680847167969,228.302001953125 C308.4801330566406,224.679443359375 309.85418701171875,221.2384796142578 312.7928161621094,218.88433837890625 C340.0323791503906,197.5150146484375 345.32421875,160.39071655273438 324.7459411621094,133.2275848388672 C321.41595458984375,128.7011489868164 317.29888916015625,124.5350341796875 312.7928161621094,121.09420776367188 C309.85418701171875,118.74003601074219 308.4801330566406,115.11734008789062 309.0680847167969,111.67652130126953 C312.2037353515625,92.84427642822266 300.0550842285156,74.73298645019531 280.45709228515625,69.11871337890625 L280.2601318359375,69.11871337890625 C274.18585205078125,67.3089828491211 267.7178955078125,66.94640350341797 261.44561767578125,67.85125732421875 L261.44561767578125,67.67049407958984 C257.5252990722656,68.21382904052734 253.8018798828125,66.94640350341797 251.2542266845703,64.22966766357422 C228.12815856933594,39.057979583740234 187.955078125,34.167816162109375 158.55906677246094,53.18295669555664 C153.65951538085938,56.26122283935547 149.1523895263672,60.06360626220703 145.4288787841797,64.22966766357422 z" type="photobox"><g clip-path="url(#svg_60)"><image xmlns:xlink="http://www.w3.org/1999/xlink" filter="url(#svg_63)" image_id="392" origHeight="768" origWidth="1024" xlink:href="o_1b04lo1it1efq7gn1l85aj71nkpi.jpg" id="svg_62" preserveAspectRatio="none" height="60.92116" width="81.22822" y="73.75908" x="46.62599"></image></g><path cursor="move" stroke-width="0" fill-opacity="0" fill="#000" shapeType="cloudMirror" stroke="#000000" id="svg_61" d="m71.93941,84.93893c-0.44344,0.47288 -1.1256,0.69349 -1.77393,0.59892c-3.51339,-0.50433 -6.92443,1.48156 -8.016,4.63365c-0.34107,0.97723 -0.40937,2.01736 -0.23894,3.02606c0.10234,0.63056 -0.13639,1.22948 -0.64811,1.63924c-4.74134,3.71954 -5.66225,10.18121 -2.08076,14.90927l-0.03384,0c0.57983,0.7879 1.29625,1.51303 2.08076,2.11212l0.03404,0c0.51173,0.40959 0.75047,1.04016 0.64813,1.63925c-0.54578,3.27797 1.56903,6.43027 4.98008,7.40729c1.05751,0.3152 2.1833,0.37811 3.27486,0.22081l0,0.03181c0.68216,-0.09476 1.33049,0.12605 1.7739,0.59912c4.02514,4.3812 11.01788,5.23221 16.13435,1.92259c0.85239,-0.5358 1.63734,-1.19801 2.28546,-1.92259l0,-0.03165c0.44345,-0.47269 1.12582,-0.69388 1.77392,-0.59929c3.54746,0.50452 6.95873,-1.44974 8.01624,-4.60204c0.34086,-0.97742 0.40913,-2.01735 0.23912,-3.02606l0.03383,0c-0.10234,-0.63054 0.13683,-1.22948 0.64833,-1.63925c4.74133,-3.71954 5.66243,-10.18142 2.08057,-14.90945c-0.57962,-0.78788 -1.29624,-1.51303 -2.08057,-2.11195c-0.51151,-0.40976 -0.75067,-1.04033 -0.64833,-1.63924c0.54579,-3.27795 -1.56881,-6.43042 -4.98004,-7.40764l-0.03429,0c-1.05729,-0.315 -2.18311,-0.37811 -3.27486,-0.22061l0,-0.03146c-0.68237,0.09457 -1.33047,-0.12604 -1.77392,-0.59892c-4.02533,-4.38139 -11.01788,-5.23258 -16.13456,-1.9228c-0.85282,0.53581 -1.63733,1.19765 -2.28545,1.9228z"></path></g><g display="null" id="svg_11" lockEdit="null" lockTransform="null" pathStr="M212.83983154594898,114.61660766601562 C265.550036624074,-22.905513763427734 472.057116702199,114.61660766601562 212.83983154594898,291.437255859375 C-46.38017348945141,114.61660766601562 160.1286804229021,-22.904720306396484 212.83983154594898,114.61660766601562 z" type="photobox"><g clip-path="url(#svg_55)"><image xmlns:xlink="http://www.w3.org/1999/xlink" filter="url(#svg_58)" image_id="392" origHeight="768" origWidth="1024" xlink:href="o_1b04lo1it1efq7gn1l85aj71nkpi.jpg" id="svg_57" preserveAspectRatio="none" height="66.16308" width="88.21744" y="68.92255" x="-13.06788"></image></g><path cursor="move" stroke-width="0" fill-opacity="0" fill="#000" shapeType="heart" stroke="#000000" id="svg_56" d="m27.1668,90.58938c9.9642,-25.99683 49.00176,0 0,33.4257c-49.00227,-33.4257 -9.96438,-59.42238 0,-33.4257z"></path></g><image id="svg_12" origHeight="768" origWidth="1024" xlink:href="o_1b04lo1it1efq7gn1l85aj71nkpi.jpg" display="null" isAdminUploaded="false" image_id="392" preserveAspectRatio="none" height="36.25" width="48.33333" y="81" x="171"></image></g><defs><clipPath id="svg_15" class="clippath"><path cursor="move" stroke-width="0" fill-opacity="0" fill="#000" shapeType="heart" stroke="#000000" d="m27.1668,15.43088c9.9642,-23.15272 49.00177,0 0,29.76892c-49.00226,-29.76892 -9.96437,-52.9215 0,-29.76892z"></path></clipPath><filter color-interpolation-filters="sRGB" type="css_brightness" id="svg_18"><feComponentTransfer><feFuncR slope="0.5" type="linear"></feFuncR><feFuncG slope="0.5" type="linear"></feFuncG><feFuncB slope="0.5" type="linear"></feFuncB></feComponentTransfer></filter><clipPath id="svg_20" class="clippath"><path cursor="move" stroke-width="0" fill-opacity="0" fill="#000" shapeType="rect" stroke="#000000" d="m75,4l48.33333,0l0,39.25928l-48.33333,0z"></path></clipPath><filter color-interpolation-filters="sRGB" type="brightness_threshold" id="svg_23"><feComponentTransfer><feFuncR intercept="-0.3" slope="1.5" type="linear"></feFuncR><feFuncG intercept="-0.3" slope="1.5" type="linear"></feFuncG><feFuncB intercept="-0.3" slope="1.5" type="linear"></feFuncB></feComponentTransfer></filter><clipPath id="svg_25" class="clippath"><path cursor="move" stroke-width="0" fill-opacity="0" fill="#000" shapeType="circle" stroke="#000000" d="m191.16666,23.31973c0,12.46462 -10.81976,22.56973 -24.16666,22.56973c-13.34692,0.00001 -24.16667,-10.10478 -24.16667,-22.56973c0,-12.46494 10.81975,-22.56973 24.16664,-22.56973c13.34691,0 24.16669,10.10479 24.16669,22.56973z"></path></clipPath><filter color-interpolation-filters="sRGB" type="css_invert" id="svg_28"><feComponentTransfer><feFuncR tableValues="1 0" type="table"></feFuncR><feFuncG tableValues="1 0" type="table"></feFuncG><feFuncB tableValues="1 0" type="table"></feFuncB></feComponentTransfer></filter><clipPath id="svg_30" class="clippath"><path cursor="move" stroke-width="0" fill-opacity="0" fill="#000" shapeType="roundedSquare" stroke="#000000" d="m205,6.34261c1.26126,11.52972 1.26126,23.15067 0,34.68004c0,2.38555 2.14748,4.34281 4.84012,4.34281c12.8504,-1.13143 25.80267,-1.13143 38.65329,0c2.65842,0 4.83994,-1.92654 4.83994,-4.34281c-1.26147,-11.52937 -1.26147,-23.15032 0,-34.68004c0,-2.38553 -2.14728,-4.34261 -4.83994,-4.34261l0,0.03053c-12.85062,1.13144 -25.80289,1.13144 -38.65329,0c-2.65862,0 -4.84012,1.92674 -4.84012,4.34261"></path></clipPath><filter color-interpolation-filters="sRGB" type="gamma_correct" id="svg_33"><feComponentTransfer><feFuncG exponent="0.5" amplitude="1" type="gamma"></feFuncG></feComponentTransfer></filter><clipPath id="svg_35" class="clippath"><path cursor="move" stroke-width="0" fill-opacity="0" fill="#000" shapeType="cloudMirror" stroke="#000000" d="m16.93943,44.71234c-0.44343,0.44568 -1.1256,0.6536 -1.77393,0.56446c-3.5134,-0.47533 -6.92445,1.39634 -8.01601,4.36712c-0.34108,0.92101 -0.40938,1.90131 -0.23894,2.85198c0.10234,0.59429 -0.1364,1.15875 -0.64812,1.54495c-4.74135,3.50558 -5.66225,9.59555 -2.08076,14.05163l-0.03384,0c0.57983,0.74258 1.29624,1.42599 2.08076,1.99063l0.03404,0c0.51173,0.38602 0.75047,0.98032 0.64812,1.54496c-0.54578,3.0894 1.56903,6.06036 4.98008,6.98119c1.05751,0.29707 2.1833,0.35636 3.27487,0.20811l0,0.02998c0.68217,-0.08931 1.33049,0.1188 1.7739,0.56466c4.02513,4.12916 11.01788,4.93122 16.13434,1.812c0.8524,-0.50498 1.63735,-1.1291 2.28547,-1.812l0,-0.02984c0.44344,-0.4455 1.12582,-0.65395 1.77392,-0.5648c3.54746,0.47549 6.95872,-1.36636 8.01624,-4.33732c0.34086,-0.9212 0.40913,-1.90132 0.23912,-2.852l0.03382,0c-0.10233,-0.59428 0.13683,-1.15876 0.64834,-1.54495c4.74134,-3.50559 5.66243,-9.59575 2.08056,-14.05181c-0.57961,-0.74255 -1.29622,-1.42599 -2.08056,-1.99045c-0.51151,-0.3862 -0.75067,-0.9805 -0.64834,-1.54495c0.54578,-3.08939 -1.5688,-6.06051 -4.98003,-6.98152l-0.03429,0c-1.05728,-0.29689 -2.18308,-0.35637 -3.27485,-0.20792l0,-0.02966c-0.68237,0.08913 -1.33047,-0.11879 -1.77392,-0.56446c-4.02534,-4.12935 -11.01788,-4.93157 -16.13455,-1.81218c-0.85281,0.50498 -1.63733,1.12875 -2.28545,1.81218z"></path></clipPath><filter color-interpolation-filters="sRGB" type="gamma_correct2" id="svg_38"><feComponentTransfer><feFuncG offset="-0.1" exponent="0.5" amplitude="1" type="gamma"></feFuncG></feComponentTransfer></filter><clipPath id="svg_40" class="clippath"><path cursor="move" stroke-width="0" fill-opacity="0" fill="#000" shapeType="heartCurve" stroke="#000000" d="m68.55686,49.85797c-1.53407,1.96894 -2.42053,4.31294 -2.55686,6.71915l0.03403,0c-0.13633,2.62531 0.47746,5.25043 1.73888,7.59444l0,0.03138c0.98875,1.84397 2.25017,3.56298 3.68235,5.12547c1.29565,1.43771 2.72763,2.78128 4.22787,4.00026c1.15932,0.96868 2.3867,1.84397 3.64812,2.71889c0.64783,0.40608 1.26162,0.84335 1.90904,1.2498l-0.03403,0c1.19334,0.87511 2.25016,1.93757 3.13682,3.09399c1.60255,2.0317 2.62533,4.40653 2.93222,6.90669c3.20509,-1.00006 6.27365,-2.4062 9.06935,-4.1566c6.51247,-3.90651 11.69468,-9.3755 14.96786,-15.81353l0.03423,0c1.73888,-3.21873 2.72763,-6.71915 2.96606,-10.31314l0,0.03101c0.13654,-2.59393 -0.40901,-5.18767 -1.60236,-7.56287c-0.95493,-1.87536 -2.42073,-3.46885 -4.26192,-4.71921c-1.43177,-1.00006 -3.13702,-1.59386 -4.94398,-1.75002c-3.40988,-0.15634 -6.7507,1.03126 -9.1374,3.34389c-1.36372,1.31256 -2.52304,2.84366 -3.44413,4.46891l0.03403,0c-0.40919,0.74995 -0.78436,1.5001 -1.09105,2.28125l-0.03403,0c-0.6138,-0.87492 -1.29566,-1.71883 -2.01175,-2.53117c-1.50004,-1.68782 -3.27316,-3.09415 -5.31892,-4.18779c-2.25017,-1.24999 -4.97781,-1.56267 -7.50105,-0.81253l0.03404,0c-2.5911,0.78134 -4.84147,2.28143 -6.44402,4.31275"></path></clipPath><filter color-interpolation-filters="sRGB" type="css_grayscale" id="svg_43"><feColorMatrix values="0" type="saturate"></feColorMatrix></filter><clipPath id="svg_45" class="clippath"><path cursor="move" stroke-width="0" fill-opacity="0" fill="#000" shapeType="star_points_5" stroke="#000000" d="m133,57.265l18.46182,0l5.70483,-14.265l5.70485,14.265l18.46182,0l-14.9359,8.81616l5.70514,14.26501l-14.93591,-8.81641l-14.9359,8.81641l5.70514,-14.26501l-14.9359,-8.81616z"></path></clipPath><filter color-interpolation-filters="sRGB" type="css_sharpen" id="svg_48"><feConvolveMatrix kernelMatrix="1 0 0 0 1 0 0 0 -1" order="3"></feConvolveMatrix></filter><clipPath id="svg_50" class="clippath"><path cursor="move" stroke-width="0" fill-opacity="0" fill="#000" shapeType="cloud" stroke="#000000" d="m218.3051,44.00231c-0.10471,0.00337 -0.20569,0.01219 -0.31087,0.02262c-1.68063,0.16607 -3.16411,1.2254 -3.91757,2.80364l-0.39975,1.19459c0.08612,-0.41397 0.21878,-0.81543 0.39975,-1.19459c-1.34402,-1.38264 -3.23035,-2.02078 -5.09419,-1.72153c-1.86385,0.29957 -3.48256,1.50058 -4.36722,3.24104c-2.49724,-1.52721 -5.61028,-1.43463 -8.01848,0.24133s-3.69183,4.6431 -3.30177,7.63721l0.25529,1.21657c-0.11536,-0.39857 -0.20148,-0.8042 -0.25529,-1.21657l-0.03877,0.11215c-2.09344,0.22673 -3.81042,1.83931 -4.25623,3.99792s0.48135,4.37355 2.29736,5.48983l2.8356,0.68403c-0.99017,0.08103 -1.97873,-0.15725 -2.8356,-0.68403c-1.40076,1.55819 -1.72311,3.8649 -0.79901,5.76999c0.92407,1.9051 2.89731,3.00197 4.93324,2.75326l1.23756,-0.32523c-0.39815,0.16542 -0.81165,0.27325 -1.23756,0.32523c1.15562,2.11272 3.07216,3.65373 5.3217,4.26716c2.24954,0.61343 4.63901,0.25096 6.63113,-1.00365c1.62537,2.54516 4.50992,3.8821 7.40271,3.43169c2.89264,-0.45026 5.27887,-2.60983 6.12622,-5.54008l0.29407,-1.63728c-0.04378,0.5563 -0.13959,1.10329 -0.29407,1.63728c1.98956,1.29568 4.49246,1.3687 6.54794,0.19061c2.05582,-1.17806 3.33844,-3.42428 3.35736,-5.87091l-0.73715,-3.65549l-2.90332,-2.47342c2.24487,1.39644 3.66019,3.52408 3.64032,6.12892c2.66931,0.02776 4.9368,-2.24365 5.9541,-4.8504c1.01732,-2.60692 0.6326,-5.57889 -1.00989,-7.81115c0.68123,-1.66216 0.64084,-3.55297 -0.11099,-5.18127c-0.75201,-1.62863 -2.1387,-2.83894 -3.80687,-3.31405c-0.37326,-2.15828 -1.912,-3.89441 -3.94551,-4.46323c-2.03351,-0.56914 -4.1987,0.13253 -5.5602,1.80545l-0.82681,1.38521c0.21118,-0.5011 0.48734,-0.96771 0.82681,-1.38521c-0.95964,-1.31477 -2.46494,-2.05688 -4.03406,-2.00762l0,0z"></path></clipPath><filter color-interpolation-filters="sRGB" type="css_hue_rotate" id="svg_53"><feColorMatrix values="180" type="hueRotate"></feColorMatrix></filter><clipPath id="svg_55" class="clippath"><path cursor="move" stroke-width="0" fill-opacity="0" fill="#000" shapeType="heart" stroke="#000000" d="m27.1668,90.58938c9.9642,-25.99683 49.00176,0 0,33.4257c-49.00227,-33.4257 -9.96438,-59.42238 0,-33.4257z"></path></clipPath><filter color-interpolation-filters="sRGB" type="luminance_mask" id="svg_58"><feColorMatrix type="luminanceToAlpha"></feColorMatrix></filter><clipPath id="svg_60" class="clippath"><path cursor="move" stroke-width="0" fill-opacity="0" fill="#000" shapeType="cloudMirror" stroke="#000000" d="m71.93941,84.93893c-0.44344,0.47288 -1.1256,0.69349 -1.77393,0.59892c-3.51339,-0.50433 -6.92443,1.48156 -8.016,4.63365c-0.34107,0.97723 -0.40937,2.01736 -0.23894,3.02606c0.10234,0.63056 -0.13639,1.22948 -0.64811,1.63924c-4.74134,3.71954 -5.66225,10.18121 -2.08076,14.90927l-0.03384,0c0.57983,0.7879 1.29625,1.51303 2.08076,2.11212l0.03404,0c0.51173,0.40959 0.75047,1.04016 0.64813,1.63925c-0.54578,3.27797 1.56903,6.43027 4.98008,7.40729c1.05751,0.3152 2.1833,0.37811 3.27486,0.22081l0,0.03181c0.68216,-0.09476 1.33049,0.12605 1.7739,0.59912c4.02514,4.3812 11.01788,5.23221 16.13435,1.92259c0.85239,-0.5358 1.63734,-1.19801 2.28546,-1.92259l0,-0.03165c0.44345,-0.47269 1.12582,-0.69388 1.77392,-0.59929c3.54746,0.50452 6.95873,-1.44974 8.01624,-4.60204c0.34086,-0.97742 0.40913,-2.01735 0.23912,-3.02606l0.03383,0c-0.10234,-0.63054 0.13683,-1.22948 0.64833,-1.63925c4.74133,-3.71954 5.66243,-10.18142 2.08057,-14.90945c-0.57962,-0.78788 -1.29624,-1.51303 -2.08057,-2.11195c-0.51151,-0.40976 -0.75067,-1.04033 -0.64833,-1.63924c0.54579,-3.27795 -1.56881,-6.43042 -4.98004,-7.40764l-0.03429,0c-1.05729,-0.315 -2.18311,-0.37811 -3.27486,-0.22061l0,-0.03146c-0.68237,0.09457 -1.33047,-0.12604 -1.77392,-0.59892c-4.02533,-4.38139 -11.01788,-5.23258 -16.13456,-1.9228c-0.85282,0.53581 -1.63733,1.19765 -2.28545,1.9228z"></path></clipPath><filter color-interpolation-filters="sRGB" type="css_sepia" id="svg_63"><feColorMatrix values=".343 .669 .119 0 0             .249 .626 .130 0 0            .172 .334 .111 0 0            .000 .000 .000 1 0 " type="matrix"></feColorMatrix></filter><clipPath id="svg_65" class="clippath"><path cursor="move" stroke-width="0" fill-opacity="0" fill="#000" shapeType="cloud" stroke="#000000" d="m144.30508,80.00221c-0.10471,0.00323 -0.20569,0.01169 -0.31088,0.02168c-1.6806,0.15915 -3.16409,1.17436 -3.91754,2.68687l-0.39975,1.14484c0.08612,-0.39674 0.21878,-0.78147 0.39975,-1.14484c-1.34402,-1.32506 -3.23035,-1.93661 -5.09418,-1.64983c-1.86386,0.28709 -3.48257,1.43808 -4.36725,3.10606c-2.49722,-1.46362 -5.61026,-1.37489 -8.01848,0.23128s-3.69181,4.44974 -3.30176,7.31915l0.2553,1.16591c-0.11536,-0.38197 -0.20149,-0.77071 -0.2553,-1.16591l-0.03877,0.10749c-2.09345,0.21728 -3.81042,1.7627 -4.25623,3.83141s0.48135,4.1914 2.29737,5.2612l2.83559,0.65554c-0.99017,0.07765 -1.97873,-0.1507 -2.83559,-0.65554c-1.40075,1.49329 -1.72311,3.70394 -0.79902,5.52969c0.92408,1.82575 2.89731,2.87694 4.93324,2.6386l1.23755,-0.31171c-0.39813,0.15855 -0.81162,0.26188 -1.23755,0.31171c1.15562,2.02473 3.07215,3.50157 5.32169,4.08945c2.24955,0.58789 4.63902,0.24051 6.63114,-0.96185c1.62537,2.43917 4.50992,3.72041 7.40271,3.28876c2.89264,-0.4315 5.27887,-2.50114 6.12622,-5.30935l0.29408,-1.5691c-0.04379,0.53313 -0.1396,1.05734 -0.29408,1.5691c1.98956,1.24172 4.49246,1.31169 6.54794,0.18268c2.05582,-1.129 3.33844,-3.28168 3.35735,-5.6264l-0.73714,-3.50326l-2.90329,-2.37042c2.24484,1.33829 3.66016,3.37732 3.64029,5.87368c2.66931,0.0266 4.93678,-2.15022 5.9541,-4.64841c1.01733,-2.49836 0.6326,-5.34655 -1.00987,-7.48584c0.68123,-1.59294 0.64082,-3.40501 -0.11102,-4.9655c-0.752,-1.5608 -2.13869,-2.72071 -3.80687,-3.17603c-0.37325,-2.0684 -1.91199,-3.73223 -3.9455,-4.27735c-2.03351,-0.54544 -4.1987,0.12701 -5.56018,1.73026l-0.82683,1.32753c0.21118,-0.48024 0.48734,-0.92741 0.82683,-1.32753c-0.95966,-1.26002 -2.46497,-1.97122 -4.03409,-1.92401l0,0z"></path></clipPath><filter color-interpolation-filters="sRGB" type="dusk" id="svg_68"><feColorMatrix values="1.0 0   0   0   0            0   0.2 0   0   0             0   0   0.2 0   0             0   0   0   1.0 0 " type="matrix"></feColorMatrix></filter></defs></svg>
