<svg xmlns="http://www.w3.org/2000/svg" width="189" height="237" x="0" y="0" id="svgcontent" viewBox="0 0 189 237" overflow="hidden"><g mask="url(#canvasMaskImageDef)" style="pointer-events:all"><title style="pointer-events:inherit">Layer 1</title><g id="svg_58" type="text" text="sac" font-size="54.33917015910643" font-family="Brush-Script" fill="9e5554" text-anchor="start" font-weight="normal" font-style="normal" lineHeight="1" shapeId="0" shapeVal="0" display="null" elemBBoxWidth="47.09498596191406" elemBBoxHeight="16.23577117919922" xscale="1" yscale="1" style="pointer-events:inherit"><path id="svg_59" fill="#9e5554" d="M141.5789,80.47014C141.46641,81.33254 141.72888,82.30743 140.94147,82.56991C140.94147,82.56991 139.47912,83.6573 139.47912,83.6573C137.52933,85.00715 135.50455,86.80696 132.42987,86.84445C130.21761,86.88195 127.36791,85.4571 127.36791,83.46981C127.33041,82.41992 128.30531,81.59501 129.3552,81.6325C130.48008,81.67 131.41748,82.41992 132.09241,82.94487C134.56714,81.81999 135.16709,79.19527 134.49215,75.82063C134.49215,75.82063 129.88015,79.87019 129.88015,79.87019C129.88015,79.87019 126.91796,82.11995 126.91796,82.11995C126.95546,81.55752 126.88046,80.95758 126.99295,80.47014C129.58017,78.52034 132.05491,76.53306 134.30467,74.2083C134.82962,72.40849 134.9421,71.39609 136.74191,71.39609C137.7543,71.39609 137.90429,71.77105 137.97929,72.74595C138.09176,74.32078 138.80419,75.37067 138.80419,76.983C138.80419,80.50762 135.917,82.15745 133.81722,83.76977C137.37934,84.21973 139.32914,81.89498 141.5789,80.47014C141.5789,80.47014 141.5789,80.47014 141.5789,80.47014M160.3644,80.47014C160.3644,80.99508 160.25191,81.55752 160.3269,82.04496C158.26463,83.6198 156.31484,85.4571 153.99008,86.76946C152.45274,87.63187 150.72793,87.14442 150.72793,85.4571C150.72793,83.69479 151.40286,82.83238 152.15277,81.10756C150.24048,82.6449 148.32818,84.40721 146.2659,85.71957C143.26622,87.63187 141.24144,83.84477 141.5789,80.47014C143.41621,76.49556 148.29068,74.50827 152.64022,73.00842C154.92748,72.22101 157.17724,72.22101 157.77718,74.24579C157.73969,74.92072 156.95227,74.99571 156.46482,75.22069C157.62719,75.59565 157.77718,76.87052 156.98977,77.88291C155.97737,79.23277 154.17757,80.24515 154.17757,82.26994C154.17757,82.98237 154.77749,83.50731 155.56492,83.35732C157.62719,82.94487 158.03965,82.00746 160.3644,80.47014C160.3644,80.47014 160.3644,80.47014 160.3644,80.47014M144.54108,81.29504C144.3911,81.85749 143.97865,83.5823 144.95354,83.50731C148.70314,82.26994 151.74032,78.63283 154.21505,76.0831C150.87791,77.09549 147.69075,78.22037 145.25351,80.24515C144.91604,80.58262 144.65358,80.92008 144.54108,81.29504C144.54108,81.29504 144.54108,81.29504 144.54108,81.29504M173.86297,80.47014C173.86297,80.47014 173.82547,82.08246 173.82547,82.08246C171.20075,83.99476 168.46354,86.65697 164.30148,86.80696C159.87696,86.99443 159.23952,79.60772 161.86425,77.09549C164.189,74.84573 167.15118,72.10851 171.20075,72.10851C173.97545,72.10851 172.17565,76.00811 171.20075,76.983C170.52582,77.65793 169.92589,78.52034 168.876,78.70782C167.9386,78.67033 167.67612,78.03289 167.52614,77.09549C166.21378,77.99539 164.86392,78.93279 163.70155,79.98268C161.93924,81.55752 163.47657,83.69479 165.65134,83.69479C169.10097,83.69479 171.6132,81.93248 173.86297,80.47014C173.86297,80.47014 173.86297,80.47014 173.86297,80.47014" style="pointer-events:inherit"/><rect id="svg_60" x="126.91796064790343" y="71.39609446660629" width="46.94500174223021" height="15.791624737011318" fill="#9e5554" opacity="0" style="pointer-events:inherit"/></g><image xmlns:xlink="http://www.w3.org/1999/xlink" x="90.73980228060054" y="168.78536108135995" width="39.677113497351336" height="29.75783512301351" preserveAspectRatio="none" id="svg_61" xlink:href="http://192.168.0.222/work/jan_langius/print_commerce/source/designnbuy/assets/images/uploadedImage/o_1b1p3f2n31pvk1cnc18tm1tfalh9a.jpg" origWidth="1024" origHeight="768" colors="" filter="url(#svg_64)" lockTransform="null" lockEdit="null" display="null" style="pointer-events:inherit"/><g id="svg_56" display="null" clip-id="340" stroke="null" style="pointer-events:inherit"><path fill="#9e5554" d="M48.42742,118.56638C49.13739,120.94609 51.39744,122.57968 55.33685,123.56192C55.83639,123.68239 56.35522,123.80206 56.90297,123.90245C59.49711,124.38595 62.33059,124.61163 65.81863,124.61163C66.00335,124.61163 66.19209,124.59957 66.37761,124.59877C65.59375,129.76297 65.87886,135.02755 66.16318,140.12509C66.20012,140.78286 66.23546,141.42939 66.26999,142.07511C64.66853,143.8613 62.65586,145.39289 60.43357,146.50443C59.99666,146.72288 59.81917,147.25457 60.03762,147.69148C60.19343,148.00229 60.50506,148.17898 60.82952,148.17898C60.96285,148.17898 61.09777,148.15007 61.22386,148.08742C63.11686,147.14051 64.86771,145.91011 66.38002,144.49015C66.44187,146.13258 66.47158,147.74288 66.4258,149.32988C66.41215,149.819 66.79605,150.22538 67.28436,150.24064C67.294,150.24064 67.30203,150.24064 67.31086,150.24064C67.78633,150.24064 68.18067,149.86076 68.19432,149.38289C68.28106,146.33979 68.10276,143.13124 67.92928,140.02951C67.64336,134.92395 67.35182,129.6425 68.16782,124.56504C70.02869,124.51766 71.90402,124.44216 73.82033,124.34337L74.52226,124.30724C77.24893,124.16588 80.06715,124.02292 82.75205,124.02292C84.09811,124.02292 85.31085,124.05745 86.46015,124.13135L86.49308,124.13215C86.62319,126.36247 86.68262,128.25627 86.73803,129.92841C86.88581,134.60189 86.98941,137.48195 88.49209,140.40378C88.17806,142.62366 87.15728,145.03148 85.7831,146.74618C85.4771,147.12686 85.53975,147.68345 85.92124,147.98864C86.08267,148.12035 86.27864,148.1822 86.47219,148.1822C86.73241,148.1822 86.98941,148.06895 87.1629,147.85131C88.33628,146.38557 89.2864,144.47731 89.83815,142.55058C91.10391,144.25243 92.9704,146.18157 95.89705,148.83595C96.06651,148.98935 96.27934,149.06645 96.49057,149.06645C96.73151,149.06645 96.97165,148.96767 97.14432,148.77491C97.47201,148.4159 97.44711,147.85531 97.08489,147.52764C93.27962,144.07012 91.34725,141.93055 90.24375,139.94759C90.21724,139.86407 90.17387,139.79339 90.12648,139.72352C88.73946,137.1117 88.65192,134.51997 88.50494,129.8714C88.45434,128.24985 88.39411,126.41548 88.27122,124.2727C89.83815,124.40923 91.41151,124.5787 92.9431,124.75137C94.29077,124.90236 95.63362,125.05496 96.97326,125.18105C99.3104,125.40352 101.22026,125.50873 102.98557,125.50873C106.0616,125.50873 108.81155,125.18105 111.39043,124.50963L112.13093,124.31526L112.0474,123.55629C111.61611,119.69721 109.82913,116.82839 107.76185,113.50419C106.73061,111.84169 105.60542,110.12457 104.17422,108.01633C105.45121,100.03231 102.42256,89.25738 97.07124,82.84188C93.52377,78.58685 89.14987,76.31155 84.42017,76.25934C84.41696,76.25934 84.41374,76.25934 84.40973,76.25934C84.38323,76.25934 84.35913,76.2722 84.33343,76.2746C82.94319,74.53821 81.47023,73.65075 79.94426,73.65075C77.99424,73.65075 76.10525,75.04741 74.17049,77.92265C74.13193,77.97967 74.0958,78.04071 74.05805,78.09854C73.9697,77.77166 73.69905,77.51064 73.34325,77.45442C69.72992,76.89302 66.56475,77.63995 63.92322,79.68153C58.44741,83.91247 57.07403,92.16635 56.73751,95.51786C56.57689,97.12655 56.62347,98.76094 56.66845,100.34232C56.69576,101.2836 56.71583,102.17589 56.69977,103.06095C51.60706,108.58013 47.1448,114.25834 48.42742,118.56638zM68.04574,90.0565C67.99594,90.14564 67.94534,90.2364 67.89796,90.31671C67.2177,91.45557 66.18084,92.80645 64.67014,94.52759C63.76179,93.90515 63.28151,93.00965 63.37226,92.03865C63.49594,90.73354 64.59465,89.68143 66.30935,89.21481C66.69245,89.17223 67.47391,89.56498 68.04574,90.0565zM96.0143,96.38043C94.6851,94.46413 93.24749,92.32938 91.81227,90.06052C93.13425,90.14324 94.17591,90.6701 94.92123,91.6427C95.96451,93.00483 96.19983,94.92193 96.0143,96.38043zM74.85075,122.51623C75.56795,120.04336 76.81844,117.41307 78.91866,117.15768C81.19396,116.8822 83.99289,119.4402 85.84092,122.32749C84.86833,122.2793 83.85957,122.25039 82.75205,122.25039C80.15951,122.25039 77.46738,122.3813 74.85075,122.51623zM58.24983,103.98456C59.30837,102.83928 60.39261,101.69963 61.45918,100.58165C62.83898,99.13198 64.13926,97.76103 65.33835,96.43263C65.49015,96.35312 65.61945,96.23426 65.69815,96.07443C65.7078,96.05436 65.7078,96.03427 65.71583,96.01419C67.45463,94.05614 68.63685,92.52856 69.41348,91.22908C69.57091,90.97047 69.74117,90.65082 69.91947,90.30306C70.35718,89.44049 70.85513,88.33456 71.38198,87.16279C72.55376,84.56141 74.01066,81.32476 75.63863,78.9073C77.19753,76.59104 78.64719,75.41685 79.94507,75.41685C81.02288,75.41685 82.15532,76.23365 83.31585,77.84555L83.33914,77.88089C84.93659,81.67894 86.9597,85.56533 89.49843,89.70873C89.50004,89.71115 89.50083,89.71356 89.50245,89.71597C91.55848,93.05382 93.69162,96.15715 95.50913,98.7537C96.22875,99.77691 96.95399,100.7961 97.68163,101.81769C99.25337,104.03034 100.87893,106.31848 102.46112,108.63877C104.00796,110.90442 105.17814,112.69141 106.25998,114.43583C108.06704,117.33998 109.64682,119.87952 110.1793,122.98286C107.96665,123.49044 105.60542,123.73621 102.98477,123.73621C101.44112,123.73621 99.75775,123.64946 97.76837,123.47116C97.75472,123.45591 97.7531,123.43823 97.74106,123.42378C96.18457,121.67775 94.2715,118.0861 92.24516,114.28323C88.51136,107.26861 84.64746,100.01544 80.52092,98.66135C74.24839,96.59727 70.25277,102.84892 67.04503,107.87096C66.15033,109.27164 65.30462,110.59522 64.48461,111.63287L63.94812,112.31393C61.47525,115.4486 58.4201,119.31009 55.34729,121.72996C52.37647,120.92199 50.60795,119.69078 50.12124,118.06201C49.06833,114.52337 53.6398,108.96002 58.24983,103.98456z" id="svg_57" stroke-width="4" stroke="#1b1c79" style="pointer-events:inherit"/></g><path fill="#122987" stroke="#000000" id="svg_65" d="M101.43535,171.16939C102.81543,169.09928 104.34157,167.91647 106.26561,166.33914C107.02029,165.72045 107.58105,164.88771 108.33572,164.26902C110.25976,162.69169 111.16342,161.63003 112.47595,160.81884C114.23689,159.73053 115.23608,159.43877 119.37631,159.43877C121.44642,159.43877 122.82649,159.43877 124.8966,159.43877C126.27668,159.43877 126.96671,159.43877 127.65675,160.12881C128.34678,160.81884 127.87116,161.56427 128.34678,163.57899C128.70128,165.08068 129.37733,168.32544 129.72686,170.47935C130.27951,173.88499 130.41689,175.30961 130.41689,177.37972C130.41689,178.06975 131.10693,180.13987 131.79696,180.8299C132.487,181.51994 133.17704,182.90002 133.86708,183.59005C134.55711,184.28009 135.03561,184.59667 135.93718,184.97012C136.57469,185.23419 137.31726,184.97012 138.69733,184.97012C139.38736,184.97012 139.79725,183.9261 141.45748,182.90002C143.31368,181.75283 145.83658,179.65307 146.97776,178.06975C147.87996,176.81804 148.35784,174.61957 148.35784,173.92954L148.35784,172.54947" display="null" stroke-width="5" style="pointer-events:inherit"/><g type="text" text="Sachin" font-size="68" font-family="Brush-Script" fill="9e5554" text-anchor="start" font-weight="normal" font-style="normal" lineHeight="1" shapeId="3" shapeVal="6.5" display="null" elemBBoxWidth="152.77308654785156" elemBBoxHeight="45.66407775878906" xscale="1.1584846331349432" yscale="0.7120333405525545" stroke-dasharray="2,2" stroke="000000" id="svg_47" style="pointer-events:inherit"><path fill="#b57d7d" stroke-width="2" stroke-dasharray="2,2" d="M67.5855,49.62745C66.50111,50.13252 66.55532,49.25174 67.36863,48.64206C67.36863,48.64206 70.62332,45.44993 70.62332,45.44993C70.62332,45.44993 67.96505,46.78922 67.96505,46.78922C61.23728,50.55706 54.67367,54.9684 50.98372,59.64313C50.33308,61.37472 53.69622,59.4383 55.59541,58.56791C55.59541,58.56791 63.46179,55.3644 63.46179,55.3644C67.42285,54.17622 72.84783,52.64911 72.84783,55.47818C72.84783,57.81369 70.40644,60.60886 65.52364,64.15129C60.64086,67.9456 53.85887,72.46473 45.12497,78.1536C40.5675,81.44241 36.22691,84.12089 38.45143,79.95186C39.75421,77.54586 42.03294,74.70303 45.01654,72.57139C45.39607,72.30697 45.45029,72.30208 45.45029,72.53249C45.28763,73.17185 44.20323,74.13004 43.60531,74.85075C53.15401,68.6833 61.18305,63.61196 67.04331,58.39818C68.94251,56.28283 65.19833,57.30187 63.35335,57.85329C59.44802,59.14874 54.89055,61.45113 50.65841,63.53453C43.93064,68.17174 44.14902,63.31292 46.91574,58.99374C50.82106,53.03608 61.07462,45.61007 70.18956,41.2287C73.22737,39.96368 75.28923,39.32511 76.48356,39.04497C79.08763,38.45682 78.43548,41.11396 77.45952,42.24548C75.83143,44.15428 71.16702,46.66613 68.72563,48.78094C68.1277,49.31385 67.74817,49.55276 67.5855,49.62745C67.5855,49.62745 67.5855,49.62745 67.5855,49.62745M103.82689,49.83432C103.82689,50.29491 103.66423,50.8009 103.77267,51.22006C100.78908,52.87949 97.96664,54.84098 94.60352,56.51882C92.37899,57.68927 89.88338,57.78834 89.88338,56.30806C89.88338,54.76205 90.86084,53.79119 91.94523,52.05243C89.17852,54.00155 86.41181,56.22904 83.42822,58.20603C79.08763,61.25295 76.15825,58.96718 76.64623,55.82766C79.3045,51.40997 86.35759,47.55901 92.6501,44.80692C95.96051,43.52863 99.2152,43.06398 100.08272,44.73546C100.0285,45.33385 98.88988,45.5396 98.18502,45.83058C99.86583,45.94507 100.08272,47.03797 98.94411,48.06555C97.47866,49.44945 94.87461,50.74806 94.87461,52.52448C94.87461,53.14952 95.74363,53.46488 96.88225,53.15551C99.86583,52.39249 100.46226,51.50134 103.82689,49.83432C103.82689,49.83432 103.82689,49.83432 103.82689,49.83432M80.93261,55.08742C80.71421,55.65065 80.11781,57.35735 81.52901,56.83974C86.954,54.21421 91.34882,50.004 94.92883,47.08747C90.10026,48.92406 85.48857,51.04696 81.96277,53.84333C81.4748,54.29102 81.09526,54.70678 80.93261,55.08742C80.93261,55.08742 80.93261,55.08742 80.93261,55.08742M123.35805,50.35145C123.35805,50.35145 123.30383,51.75897 123.30383,51.75897C119.50544,53.02232 115.54589,55.0883 109.52298,55.12768C103.12203,55.61473 102.1988,49.21684 105.99718,46.73202C109.36032,44.63714 113.6467,42.25448 119.50544,42.59446C123.52071,43.03707 120.91665,46.15172 119.50544,46.87082C118.52948,47.38105 117.66045,48.07342 116.1423,48.14454C114.78531,48.04878 114.40577,47.47562 114.18889,46.64579C112.28969,47.39208 110.33778,48.20992 108.65547,49.1592C106.10563,50.64073 108.33014,52.42482 111.4764,52.38538C116.46763,52.53757 120.10185,51.26789 123.35805,50.35145C123.35805,50.35145 123.35805,50.35145 123.35805,50.35145M139.09082,49.09612C141.69487,48.8504 144.46159,49.88503 145.00528,51.78892C144.35314,53.72832 139.68723,53.15611 138.98237,55.08387C138.98237,55.61021 139.36191,55.95309 140.23093,56.21691C143.26874,57.20185 144.40736,56.54351 147.33824,56.50318C147.33824,56.50318 147.28402,57.86396 147.28402,57.86396C142.61811,58.26553 140.28516,58.93101 135.61924,58.19763C131.71241,56.96898 133.93692,54.05915 135.29393,53.31134C135.29393,53.31134 138.98237,51.33383 138.98237,51.33383C134.1538,52.03946 130.03159,53.68956 125.9621,55.46213C125.691,55.58433 125.41991,55.54286 125.20303,55.51023C123.19539,54.93575 123.30383,53.66686 123.30383,51.75897C123.30383,46.82481 129.16258,44.96698 133.01519,42.75551C135.45658,41.44497 138.87394,40.41368 141.58643,39.93374C143.53985,39.5972 144.95107,39.59842 145.76436,39.89314C146.74032,40.25605 147.772,40.97951 147.772,41.57181C147.772,42.13089 146.84876,42.79716 145.05951,43.5518C139.8514,45.87051 133.06941,48.1956 126.99228,50.69537C126.99228,50.69537 126.93806,51.93637 126.93806,51.93637C130.84489,50.79695 134.91439,49.62936 139.09082,49.09612C139.09082,49.09612 139.09082,49.09612 139.09082,49.09612M163.07101,63.8426C163.07101,63.8426 163.01679,65.22736 163.01679,65.22736C163.01679,65.22736 158.07978,64.98073 158.07978,64.98073C156.39746,64.85051 154.55399,64.84046 152.11259,63.81559C147.71778,62.10991 146.57766,58.08982 147.88044,56.08752C149.12749,54.17969 152.92589,52.56014 157.75445,54.81962C159.87054,55.88751 160.30429,57.23064 159.00151,57.54854C157.0496,58.02702 154.3356,58.26017 152.16681,58.57606C151.08091,59.29472 152.54635,61.24163 154.93352,62.18683C158.4051,63.6297 159.87054,63.45332 163.07101,63.8426C163.07101,63.8426 163.07101,63.8426 163.07101,63.8426M162.90835,52.89808C163.8843,53.43791 164.6991,54.38966 164.6991,54.98173C164.53645,56.36993 162.85413,56.74989 160.52117,55.60033C159.16418,54.96646 158.134,53.75758 158.24243,52.95636C158.4051,51.68903 160.52117,51.71883 162.90835,52.89808C162.90835,52.89808 162.90835,52.89808 162.90835,52.89808M174.35625,65.62073C173.433,67.14563 168.55022,65.13829 167.57426,66.65539C168.00802,67.77093 169.20085,67.60821 169.74455,67.58201C172.83659,67.4451 177.88203,68.50567 181.89731,69.8152C183.30702,70.32194 184.28449,70.81029 184.8809,71.27381C186.2364,72.63738 186.12796,73.96581 186.67166,75.22105C185.152,76.05825 180.10655,73.261 180.10655,75.95839C180.10655,76.55044 180.64875,77.27684 181.68043,77.97538C184.44714,79.91668 185.85686,80.16552 188.46091,81.20758C188.46091,81.66818 188.29825,82.02858 188.4067,82.57777C184.82668,81.19879 182.05997,81.64761 176.74342,77.80705C173.1619,75.38834 173.64988,72.51917 175.22376,72.09321C175.22376,72.09321 178.53267,71.33594 178.53267,71.33594C174.46468,70.29861 171.15427,71.06556 167.57426,70.8003C164.53645,70.6793 162.52881,67.16469 163.01679,64.76675C163.55898,62.03977 166.48836,61.375 170.17831,62.39155C171.69797,63.1229 174.2478,64.72578 174.35625,65.62073C174.35625,65.62073 174.35625,65.62073 174.35625,65.62073" stroke="#000000" id="svg_2" style="pointer-events:inherit"/><rect x="37.31160132217897" y="38.63421143934417" width="151.68839587489708" height="44.27041669019659" fill="#000000" opacity="0" stroke="null" id="svg_3" style="pointer-events:inherit"/></g><path fill="#122987" stroke="#000000" d="M0,71.9236C1.38007,69.85348 2.90621,68.67068 4.83025,67.09334C5.58493,66.47466 6.14569,65.64192 6.90037,65.02323C8.8244,63.44589 9.72806,62.38424 11.04058,61.57305C12.80153,60.48473 13.80073,60.19297 17.94095,60.19297C20.01106,60.19297 21.39113,60.19297 23.46124,60.19297C24.84131,60.19297 25.53135,60.19297 26.22138,60.88301C26.91143,61.57305 26.43581,62.31846 26.91143,64.3332C27.26592,65.83488 27.94196,69.07965 28.2915,71.23356C28.84415,74.63919 28.98153,76.06381 28.98153,78.13393C28.98153,78.82396 29.67157,80.89407 30.36161,81.58411C31.05165,82.27415 31.74168,83.65421 32.43171,84.34425C33.12175,85.03429 33.60025,85.35088 34.50183,85.72433C35.13934,85.9884 35.8819,85.72433 37.26197,85.72433C37.95201,85.72433 38.36189,84.6803 40.02212,83.65421C41.87831,82.50703 44.40122,80.40728 45.54241,78.82396C46.4446,77.57224 46.92248,75.37378 46.92248,74.68374L46.92248,73.30367" display="null" stroke-width="5" id="svg_4" style="pointer-events:inherit"/></g><defs><filter id="svg_64" type="gamma_correct" color-interpolation-filters="sRGB"><feComponentTransfer><feFuncG type="gamma" amplitude="1" exponent="0.5"/></feComponentTransfer></filter><mask id="canvasMaskImageDef" maskUnits="objectBoundingBox" x="0" y="0"><image xmlns:xlink="http://www.w3.org/1999/xlink" id="canvasMaskImage" preserveAspectRatio="none" x="-105" y="-85" width="400" height="344.82758620689657" xlink:href="http://192.168.0.222/work/jan_langius/print_commerce/source/designnbuy/uploads/productimage/5826b9c0eeec0.png"/></mask></defs></svg>