<?xml version="1.0" encoding="utf-8"?>
<!-- Generator: Adobe Illustrator 16.0.0, SVG Export Plug-In . SVG Version: 6.00 Build 0)  -->
<!DOCTYPE svg PUBLIC "-//W3C//DTD SVG 1.1//EN" "http://www.w3.org/Graphics/SVG/1.1/DTD/svg11.dtd">
<svg version="1.1" id="Layer_1" xmlns="http://www.w3.org/2000/svg" xmlns:xlink="http://www.w3.org/1999/xlink" x="0px" y="0px"
	 width="100px" height="100px" viewBox="0 0 100 100" enable-background="new 0 0 100 100" xml:space="preserve">
<path fill="#04924C" d="M91.107,54.085c0,0-7.412,14.112-21.877,14.466c-14.467,0.352-24.693-10.584-39.518-9.881
	c-14.818,0.707-28.93,15.527-28.93,15.527S-0.276,37.853,23.012,37.5C46.298,37.147,54.061,66.787,91.107,54.085z"/>
<path fill="#FFCB0A" d="M99.225,44.911c0,0-8.047,14.116-23.757,14.466c-15.709,0.352-26.82-10.585-42.911-9.881
	C16.461,50.206,1.133,65.023,1.133,65.023s-1.146-36.341,24.141-36.698C50.563,27.977,58.992,57.616,99.225,44.911z"/>
<path fill="#CC198A" d="M99.146,44.815c0,0-8.181,8.281-22.711,7.94c-26.895-0.632-58.027-23.547-58.027-23.547
	s5.986-8.276,31.182,0.979C62.896,35.072,76.596,50.41,99.146,44.815z"/>
</svg>
