<?xml version="1.0" encoding="utf-8"?>
<!-- Generator: Adobe Illustrator 16.0.0, SVG Export Plug-In . SVG Version: 6.00 Build 0)  -->
<!DOCTYPE svg PUBLIC "-//W3C//DTD SVG 1.1//EN" "http://www.w3.org/Graphics/SVG/1.1/DTD/svg11.dtd">
<svg version="1.1" id="Layer_1" xmlns="http://www.w3.org/2000/svg" xmlns:xlink="http://www.w3.org/1999/xlink" x="0px" y="0px"
	 width="100px" height="100px" viewBox="0 0 100 100" enable-background="new 0 0 100 100" xml:space="preserve">
<path fill="#010101" d="M50.403,76.412v-0.028c-0.063-0.011-0.127-0.022-0.19-0.032L50.403,76.412z M50.969,75.814
	c0.059-0.043,0.021-0.037,0.033-0.063C50.992,75.771,50.98,75.792,50.969,75.814z M88.993,3.349
	c-0.058-0.078-0.12-0.113-0.235-0.093c-0.117,0.024-0.279,0.072-0.349,0.089c-0.071,0.021-0.087,0.031-0.142,0.042
	c-0.05,0.012-0.248,0.046-0.399,0.074C87.717,3.489,87.66,3.503,87.57,3.51C87.482,3.515,87.3,3.538,87.227,3.53
	c-0.07-0.006-0.125-0.021-0.134-0.044c-0.01-0.025-0.017-0.044,0.019-0.067c0.031-0.025,0.185-0.1,0.256-0.138
	c0.068-0.035,0.185-0.101,0.263-0.143c0.077-0.038,0.187-0.103,0.296-0.19c0.111-0.085,0.211-0.151,0.307-0.206
	c0.096-0.053,0.277-0.132,0.324-0.193c0.047-0.058,0.061-0.126,0.024-0.192c-0.039-0.063-0.11-0.152-0.209-0.133
	c-0.101,0.016-0.252,0.098-0.361,0.15c-0.11,0.053-0.147,0.08-0.241,0.123c-0.095,0.045-0.334,0.152-0.439,0.205
	c-0.104,0.053-0.173,0.095-0.284,0.125c-0.11,0.031-0.293,0.107-0.341,0.113c-0.045,0.007-0.066,0.004-0.085-0.021
	s-0.104-0.095-0.099-0.137c0.006-0.045,0.019-0.053,0.088-0.12c0.065-0.071,0.152-0.171,0.222-0.242
	c0.067-0.073,0.235-0.216,0.306-0.279c0.068-0.06,0.252-0.182,0.314-0.258c0.063-0.078,0.093-0.16,0.049-0.235
	c-0.042-0.073-0.152-0.153-0.255-0.114c-0.104,0.045-0.28,0.169-0.368,0.224c-0.085,0.055-0.281,0.173-0.344,0.21
	c-0.063,0.038-0.125,0.105-0.18,0.145c-0.053,0.041-0.201,0.126-0.303,0.213c-0.102,0.088-0.24,0.188-0.347,0.233
	c-0.104,0.045-0.151,0.083-0.283,0.086c-0.096,0.001-0.216,0.009-0.334-0.003c-0.116-0.013-0.212-0.028-0.267-0.065
	c-0.051-0.035-0.137-0.09-0.168-0.186c-0.026-0.093-0.092-0.318-0.127-0.365c-0.039-0.05-0.061-0.054-0.068-0.083
	c-0.012-0.028-0.047-0.099-0.087-0.146C84.328,1.753,84.266,1.7,84.2,1.652c-0.063-0.045-0.207-0.143-0.361-0.129
	c-0.153,0.017-0.253,0.1-0.253,0.135c0,0.048,0.03,0.083,0.096,0.151c0.063,0.067,0.105,0.071,0.127,0.1
	c0.045,0.054,0.024,0.031,0.037,0.074c0.006,0.02,0.012,0.005,0.03,0.046c0.019,0.034,0.043,0.074,0.054,0.105
	c0.008,0.024,0.033,0.06,0.035,0.089c0.004,0.026,0.004,0.051,0.01,0.063c0.006,0.013,0.02,0.018,0.02,0.018s0.014,0.036,0.02,0.053
	c0.006,0.018,0.006,0.017,0.021,0.04c0.016,0.02,0.005,0.058,0.022,0.101c0.016,0.045,0.063,0.122,0.068,0.175
	c0.001,0.025,0.016,0.115,0.018,0.22c0,0.115-0.016,0.253-0.018,0.351c-0.007,0.109-0.014,0.233-0.016,0.335
	c-0.004,0.069-0.004,0.127-0.006,0.176c-0.008,0.117-0.019,0.192-0.043,0.25c-0.023,0.058-0.023,0.078-0.064,0.108
	c-0.039,0.03-0.077,0.043-0.077,0.043s0.009-0.063-0.037-0.08c-0.043-0.019-0.063-0.029-0.11,0.002
	c-0.022,0.016-0.057,0.052-0.088,0.077c-0.037,0.026-0.07,0.04-0.096,0.05c-0.043,0.016-0.138,0.067-0.171,0.08
	c-0.035,0.011-0.062,0.039-0.071,0.045c-0.012,0.008-0.051,0-0.096,0.011c-0.048,0.008-0.091,0.009-0.116,0.036
	c-0.024,0.024-0.03,0.049-0.055,0.056c-0.022,0.01-0.054,0.037-0.085,0.067c-0.029,0.03-0.059,0.071-0.09,0.081
	c-0.026,0.01-0.112,0.027-0.166,0.042c-0.055,0.018-0.145,0.052-0.191,0.078C82.5,4.726,82.384,4.778,82.328,4.8
	c-0.057,0.02-0.107,0.045-0.16,0.059c-0.052,0.011-0.09,0.037-0.136,0.061c-0.04,0.025-0.089,0.075-0.125,0.096
	c-0.038,0.023-0.046,0.039-0.097,0.049c-0.055,0.015-0.131,0.032-0.182,0.048c-0.049,0.014-0.217,0.055-0.288,0.089
	c-0.069,0.033-0.25,0.104-0.323,0.145c-0.074,0.041-0.15,0.102-0.223,0.139c-0.07,0.038-0.242,0.092-0.311,0.127
	c-0.067,0.033-0.17,0.083-0.246,0.11c-0.077,0.029-0.276,0.111-0.361,0.153c-0.083,0.042-0.279,0.13-0.396,0.203
	c-0.115,0.069-0.381,0.228-0.472,0.292c-0.094,0.062-0.29,0.202-0.379,0.272c-0.089,0.069-0.226,0.174-0.312,0.25
	c-0.088,0.072-0.207,0.161-0.293,0.226c-0.086,0.063-0.127,0.086-0.192,0.11c-0.063,0.025-0.114,0.022-0.176,0.025
	c-0.063,0.003-0.119,0.028-0.177,0.05c-0.055,0.021-0.166,0.062-0.189,0.097c-0.025,0.035-0.088,0.116-0.143,0.14
	C77.1,7.566,76.98,7.578,76.916,7.594c-0.064,0.015-0.143,0.075-0.204,0.11c-0.062,0.037-0.114,0.068-0.16,0.112
	c-0.049,0.043-0.11,0.117-0.155,0.132c-0.041,0.014-0.11,0.016-0.162,0.034C76.184,8,76.089,8.088,76.021,8.146
	c-0.068,0.056-0.125,0.075-0.166,0.075c-0.045,0-0.129,0-0.162,0.051c-0.032,0.051-0.092,0.125-0.141,0.143
	c-0.051,0.016-0.119,0.029-0.205,0.039c-0.084,0.014-0.229,0.032-0.306,0.094c-0.077,0.065-0.175,0.176-0.217,0.254
	c-0.04,0.08-0.119,0.139-0.153,0.183c-0.033,0.043-0.033,0.059-0.076,0.059c-0.045,0-0.096-0.011-0.145,0.003
	c-0.047,0.016-0.115,0.06-0.176,0.083c-0.059,0.022-0.105,0.05-0.148,0.05c-0.042,0-0.057-0.016-0.104-0.045
	c-0.045-0.032-0.148-0.027-0.221-0.007c-0.07,0.023-0.15,0.075-0.18,0.116c-0.027,0.037-0.027,0.045-0.1,0.063
	c-0.068,0.02-0.244,0.072-0.312,0.09c-0.067,0.021-0.101,0.025-0.174,0.054c-0.074,0.035-0.175,0.072-0.222,0.092
	c-0.047,0.022-0.082,0.034-0.082,0.034l-0.053,0.009c0,0-0.021-0.165-0.059-0.313c-0.036-0.146-0.047-0.213-0.104-0.362
	c-0.059-0.148-0.1-0.256-0.117-0.346c-0.02-0.09-0.057-0.166-0.11-0.368c-0.058-0.206-0.054-0.235-0.11-0.381
	c-0.055-0.15-0.082-0.298-0.123-0.369c-0.035-0.068-0.039-0.082-0.056-0.169c-0.013-0.089-0.032-0.149-0.063-0.211
	c-0.026-0.063-0.08-0.183-0.133-0.314c-0.053-0.134-0.078-0.217-0.099-0.257c-0.019-0.041-0.019-0.053-0.019-0.053
	s0.064-0.11,0.066-0.224c0.006-0.112,0.006-0.275-0.033-0.367c-0.039-0.093-0.088-0.172-0.164-0.226
	c-0.078-0.055-0.162-0.085-0.162-0.085s-0.016-0.108-0.008-0.163c0.008-0.053,0.026-0.13,0.041-0.226
	c0.016-0.092,0.026-0.053,0.012-0.127c-0.012-0.072-0.021-0.107-0.029-0.182c-0.01-0.075-0.004-0.169-0.028-0.308
	c-0.024-0.139-0.06-0.285-0.073-0.366c-0.009-0.086-0.002-0.116-0.039-0.195c-0.037-0.081-0.067-0.184-0.08-0.263
	c-0.015-0.082-0.032-0.165-0.078-0.26c-0.047-0.091-0.105-0.187-0.154-0.276c-0.051-0.09-0.061-0.138-0.105-0.195
	c-0.045-0.053-0.076-0.046-0.09-0.071c-0.012-0.026-0.017-0.054-0.017-0.103c0-0.05,0.017-0.074,0.017-0.116s0-0.097-0.021-0.136
	c-0.021-0.041-0.035-0.078-0.066-0.098c-0.031-0.022-0.063-0.018-0.076-0.041c-0.012-0.02-0.016-0.087-0.033-0.107
	c-0.016-0.023-0.057-0.06-0.125-0.101c-0.066-0.042-0.104-0.113-0.139-0.155c-0.037-0.04-0.109-0.085-0.201-0.11
	c-0.093-0.028-0.135-0.034-0.222-0.079c-0.087-0.049-0.205-0.087-0.319-0.109c-0.113-0.021-0.305-0.031-0.365-0.072
	c-0.063-0.041-0.108-0.063-0.108-0.123c0-0.063,0.006-0.16-0.063-0.18c-0.043-0.014-0.078-0.042-0.131-0.032
	c-0.039,0.006-0.134,0.054-0.166,0.072c-0.069,0.042-0.139,0.068-0.186,0.056c-0.046-0.012-0.077-0.023-0.087-0.049
	c-0.011-0.026-0.083-0.053-0.14-0.057c-0.058-0.008-0.065-0.008-0.131,0.004c-0.059,0.01-0.074,0.036-0.121,0.042
	c-0.049,0.004-0.112,0.014-0.176,0.014c-0.062,0-0.098,0.025-0.119-0.025c-0.021-0.05-0.024-0.166-0.074-0.18
	c-0.053-0.015-0.084-0.035-0.131-0.026c-0.047,0.011-0.1,0.05-0.113,0.082c-0.014,0.032,0.007,0.061-0.02,0.14
	C67.4,1.498,67.4,1.53,67.375,1.55c-0.023,0.02-0.047,0.098-0.087,0.126c-0.042,0.034-0.058,0.053-0.124,0.019
	c-0.066-0.038-0.145-0.085-0.248-0.106C66.813,1.57,66.693,1.56,66.634,1.6c-0.063,0.042-0.065,0.05-0.088,0.067
	c-0.021,0.016-0.065,0.028-0.106,0.004c-0.043-0.022-0.102-0.04-0.164-0.03c-0.058,0.008-0.137,0.034-0.172,0.113
	s-0.029,0.127-0.051,0.148s-0.113,0.039-0.162,0.084c-0.045,0.045-0.076,0.102-0.139,0.174c-0.061,0.071-0.118,0.188-0.12,0.208
	c-0.004,0.019-0.006,0.028-0.006,0.028l-0.008,0.015c0,0-0.033,0.027-0.04,0.038c-0.006,0.015-0.006,0.008-0.01,0.02
	c-0.002,0.014,0.004,0.004-0.004,0.021c-0.014,0.016-0.023,0.02-0.023,0.02l-0.01,0.013l-0.016,0.022L65.51,2.567
	c0,0-0.001,0-0.005,0.01c-0.004,0.013-0.06,0.081-0.06,0.081s-0.018,0.012-0.034,0.037c-0.009,0.018-0.075,0.13-0.075,0.13
	s0,0-0.007,0.013c-0.009,0.012-0.011,0.018-0.011,0.018l-0.008,0.015l-0.006,0.014l-0.014,0.014L65.253,2.94
	c0,0-0.006-0.006-0.008,0.015c-0.004,0.02,0,0.004-0.007,0.021c-0.006,0.014-0.01,0.026-0.01,0.026l-0.012,0.01l-0.029,0.046
	l-0.002,0.017l-0.026,0.086c0,0-0.007,0.02-0.009,0.034c-0.004,0.016-0.008,0.026-0.008,0.026l-0.006,0.014
	c0,0-0.003,0.011-0.003,0.021c0,0.015-0.008,0.054-0.008,0.07c0,0.015,0,0.005,0,0.023c0,0.013-0.001,0.002,0,0.025
	C65.13,3.4,65.13,3.394,65.13,3.406c0,0.013,0.005,0.014,0.005,0.014l-0.009,0.022l-0.065,0.115c0,0,0,0-0.01,0.011
	c-0.011,0.013-0.023,0.03-0.023,0.03s-0.012-0.004-0.014,0.015c0,0.008-0.025,0.022-0.035,0.042
	c-0.013,0.024-0.01,0.057-0.015,0.066c-0.011,0.014-0.021,0.03-0.021,0.03s0,0.04-0.002,0.052c-0.004,0.014-0.004,0.015-0.004,0.015
	c0,0.015-0.014,0.072-0.014,0.072v0.025l0.003,0.022c0,0-0.022,0.058-0.022,0.072c0,0.019-0.002,0.008-0.002,0.024
	c0,0.015,0.002,0.009,0.002,0.021c0,0.012,0,0.022,0,0.022s0.004,0.096,0.009,0.11c0.008,0.016,0.012,0.014,0.015,0.025
	c0.002,0.012,0.006,0.02,0.006,0.02l0.012,0.026c0,0,0.009,0.114,0.009,0.127c0,0.012,0,0,0,0.017c0,0.021,0,0.141-0.009,0.215
	c-0.01,0.078-0.01,0.257-0.004,0.359c0.004,0.103-0.004,0.329,0,0.364c0.004,0.037,0.004,0.028,0.004,0.028l0.02,0.011l0.016,0.007
	c0,0,0.004,0.008,0.012,0.021C65,5.419,64.997,5.41,65,5.423c0.004,0.012,0.008,0.022,0.008,0.022l0.002,0.016v0.013
	c0,0,0.004,0.005,0,0.017c-0.002,0.012-0.002,0.015-0.002,0.015l0.002,0.021v0.019l0.006,0.024l0.012,0.006l0.01,0.023
	c0,0,0,0,0.004,0.015c0.003,0.017,0.003,0.023,0.003,0.023s0,0.002,0,0.014c0,0.012,0,0.021,0,0.021s-0.021,0.043-0.021,0.053
	c0,0.013-0.004,0-0.006,0.017c-0.002,0.022-0.004,0.025-0.004,0.025s-0.004,0.002-0.004,0.02c0,0.02-0.002,0.025-0.002,0.025
	L65,5.837c0,0-0.016,0.065-0.016,0.078c0,0.012-0.002,0.012-0.002,0.022c0,0.015-0.006,0.022-0.006,0.022l-0.014,0.013L64.95,5.995
	c0,0-0.028,0.061-0.028,0.083c0,0.016,0.004-0.004,0,0.016C64.92,6.11,64.91,6.126,64.91,6.126l-0.008,0.009
	c0,0-0.01,0.007-0.01,0.021c0,0.012-0.006,0.022-0.006,0.022l-0.013,0.008l-0.017,0.067c0,0.017-0.004,0.045-0.004,0.045
	s0-0.003-0.006,0.015c-0.002,0.018-0.007,0.007-0.007,0.021c0,0.013,0,0.004,0,0.019c0,0.017,0,0.006-0.001,0.021
	c-0.004,0.01-0.035,0.098-0.035,0.098s0.004-0.022-0.005,0.02C64.795,6.53,64.795,6.54,64.795,6.54s-0.004,0.002-0.004,0.02
	c-0.005,0.013-0.005,0.005-0.005,0.018c0,0.014-0.003,0.005-0.003,0.017c0,0.013,0.003-0.002,0,0.02
	c-0.006,0.021-0.02,0.175-0.02,0.175l0.004,0.015c0,0.012-0.004,0.024-0.004,0.024s0.002-0.008-0.002,0.015
	c-0.005,0.022-0.009,0.018-0.009,0.028c0,0.012-0.008,0.042-0.008,0.064c0,0.027,0.004,0.016,0,0.04
	C64.742,7,64.742,6.989,64.74,7.015c-0.006,0.026-0.014,0.182-0.014,0.193c0,0.013,0-0.007,0,0.016c0,0.021-0.004,0.022-0.004,0.022
	s-0.005-0.005-0.007,0.018c-0.002,0.02-0.002,0-0.006,0.024c0,0.022,0,0.03,0,0.03s-0.009,0.046-0.005,0.06
	c0.002,0.013,0.002,0.013,0.002,0.022c0,0.014-0.002,0.026-0.002,0.026l-0.004,0.018V7.46c0,0-0.008,0.045-0.012,0.057
	c0,0.013,0,0.004,0,0.02c0,0.015,0,0.01-0.004,0.024c-0.004,0.01-0.004,0.019-0.004,0.019S64.68,7.727,64.68,7.74
	c0,0.013,0,0,0,0.021c0,0.023,0,0.021,0,0.035c0,0.017-0.004,0.019-0.004,0.019l-0.003,0.023L64.67,7.853
	c-0.003,0.013-0.021,0.094-0.021,0.114c0,0.02-0.002,0.011-0.002,0.026c0,0.016,0,0.026,0,0.026
	c-0.004,0.013-0.006,0.035-0.006,0.035s-0.029,0.11-0.029,0.125c0,0.018-0.004-0.001,0,0.033c0.002,0.034,0.002,0.026,0.002,0.041
	c0,0.012,0,0.004,0,0.019c0,0.01-0.002,0.013-0.002,0.013s-0.016,0.063-0.016,0.081c0,0.018,0,0.008-0.003,0.029
	c-0.005,0.026-0.007,0.026-0.007,0.038c0,0.017,0.002-0.004,0,0.026c-0.004,0.031-0.004,0.039-0.004,0.039s-0.002,0-0.002,0.018
	v0.03c0,0.012-0.003,0.098-0.003,0.098s0,0.008-0.004,0.02C64.57,8.675,64.58,8.656,64.57,8.685
	c-0.01,0.026-0.008,0.015-0.014,0.036c-0.006,0.022-0.006,0.018-0.006,0.034c0,0.016,0.004-0.007,0,0.019
	c-0.003,0.025-0.014,0.082-0.014,0.097c0,0.013,0-0.009,0,0.023c0,0.036,0,0.036,0,0.045c-0.005,0.015-0.005,0.004-0.008,0.02
	c-0.004,0.018,0.003,0.026,0.003,0.026c0,0.016,0,0.083-0.003,0.111c-0.004,0.029-0.016,0.046-0.016,0.046s0-0.004-0.006,0.018
	s-0.006,0.017-0.006,0.027c0,0.016,0,0.018,0,0.018l-0.006,0.016l-0.005,0.055v0.016l-0.007,0.021c0,0-0.076,0.007-0.129-0.011
	C64.307,9.28,64.133,9.229,64.08,9.22c-0.053-0.01-0.225-0.04-0.303-0.049c-0.076-0.011-0.131-0.007-0.168-0.014
	c-0.035-0.005-0.027,0.01-0.043-0.01c-0.015-0.02-0.015-0.07-0.037-0.094c-0.021-0.03-0.071-0.048-0.094-0.048
	c-0.021,0-0.076,0.019-0.084,0.004c-0.006-0.01-0.055-0.1-0.088-0.107c-0.035-0.006-0.117-0.022-0.168-0.004
	c-0.048,0.022-0.078,0.039-0.095,0.046c-0.019,0.007-0.019,0.023-0.041,0.007c-0.022-0.017-0.091-0.054-0.126-0.077
	c-0.033-0.026-0.122-0.067-0.184-0.092c-0.061-0.024-0.107-0.041-0.152-0.051c-0.045-0.01-0.091-0.002-0.104-0.01
	c-0.012-0.007-0.035-0.078-0.058-0.096c-0.017-0.018-0.034-0.042-0.071-0.048c-0.037-0.006-0.07,0.004-0.101-0.005
	c-0.026-0.004-0.035-0.009-0.05-0.026C62.1,8.53,62.01,8.448,61.979,8.415c-0.033-0.037-0.119-0.097-0.178-0.127
	c-0.06-0.032-0.087-0.036-0.14-0.042C61.609,8.244,61.52,8.27,61.479,8.27c-0.039,0-0.112-0.026-0.14-0.042
	c-0.024-0.016-0.053-0.027-0.103-0.044c-0.047-0.013-0.123-0.021-0.178-0.033c-0.058-0.014-0.119-0.038-0.137-0.058
	c-0.016-0.023-0.047-0.062-0.083-0.106c-0.036-0.046-0.073-0.102-0.103-0.11c-0.028-0.012-0.053-0.012-0.104-0.012
	c-0.049,0.004-0.129,0.02-0.173,0.004c-0.043-0.015-0.067-0.028-0.09-0.067c-0.021-0.042-0.068-0.133-0.103-0.167
	C60.234,7.6,60.191,7.58,60.152,7.582c-0.036,0.006-0.096,0.011-0.127,0.029c-0.029,0.02-0.063,0.055-0.103,0.047
	C59.882,7.65,59.868,7.64,59.82,7.611c-0.045-0.029-0.107-0.053-0.131-0.075c-0.019-0.026-0.073-0.146-0.129-0.203
	c-0.057-0.056-0.156-0.16-0.269-0.226c-0.11-0.074-0.317-0.189-0.489-0.29c-0.168-0.103-0.392-0.25-0.572-0.337
	c-0.185-0.089-0.355-0.177-0.52-0.234c-0.165-0.057-0.254-0.107-0.355-0.135c-0.104-0.026-0.143-0.046-0.228-0.088
	c-0.083-0.046-0.131-0.047-0.216-0.091c-0.087-0.047-0.161-0.113-0.23-0.157c-0.072-0.042-0.14-0.063-0.205-0.086
	c-0.064-0.025-0.109-0.037-0.188-0.045c-0.078-0.01-0.12-0.016-0.179-0.044c-0.06-0.027-0.102-0.085-0.145-0.11
	c-0.038-0.025-0.098-0.075-0.154-0.098c-0.054-0.021-0.063-0.032-0.142-0.056c-0.078-0.025-0.11-0.042-0.144-0.067
	c-0.027-0.023-0.055-0.043-0.084-0.056C55.41,5.2,55.357,5.194,55.289,5.194c-0.064,0-0.158-0.033-0.186-0.049
	c-0.026-0.014-0.039-0.032-0.103-0.11c-0.062-0.076-0.118-0.147-0.158-0.161c-0.036-0.016-0.083-0.023-0.128-0.023
	c-0.044,0-0.111-0.034-0.152-0.061c-0.039-0.024-0.149-0.11-0.188-0.144c-0.043-0.031-0.074-0.043-0.106-0.039
	c-0.029,0.004-0.059,0.009-0.086,0.02c-0.027,0.016-0.063,0.008-0.063,0.008s-0.071-0.09-0.148-0.361
	c-0.076-0.269-0.104-0.436-0.16-0.605c-0.057-0.16-0.101-0.354-0.106-0.534c-0.011-0.178-0.015-0.339-0.007-0.484
	c0.005-0.14,0.003-0.215,0.031-0.268c0.025-0.052,0.117-0.219,0.084-0.268c-0.041-0.063-0.188-0.076-0.328,0
	c-0.145,0.077-0.215,0.158-0.276,0.301c-0.063,0.141-0.056,0.215-0.063,0.255c-0.011,0.043-0.031,0.121-0.031,0.188
	c0,0.07,0.011,0.213-0.004,0.294c-0.012,0.079-0.039,0.187-0.147,0.285c-0.108,0.1-0.259,0.177-0.437,0.228
	c-0.176,0.045-0.446,0.046-0.563,0.013c-0.113-0.033-0.354-0.141-0.505-0.205c-0.155-0.061-0.364-0.147-0.481-0.184
	c-0.119-0.038-0.269-0.093-0.386-0.137c-0.116-0.042-0.349-0.163-0.437-0.122c-0.086,0.045-0.144,0.104-0.146,0.194
	c-0.003,0.089,0.033,0.138,0.178,0.212c0.144,0.074,0.412,0.188,0.501,0.237c0.092,0.049,0.25,0.128,0.354,0.188
	c0.104,0.063,0.273,0.16,0.305,0.186c0.034,0.027,0.041,0.033,0.041,0.062c0,0.026-0.033,0.114-0.072,0.151
	c-0.041,0.037-0.17,0.047-0.291,0.049c-0.123,0.004-0.383-0.021-0.544-0.032c-0.16-0.014-0.352-0.02-0.487-0.042
	c-0.137-0.021-0.325-0.051-0.473-0.07c-0.15-0.018-0.253-0.015-0.298,0.088c-0.042,0.106-0.047,0.202,0.03,0.26
	c0.047,0.033,0.096,0.035,0.178,0.048c0.043,0.004,0.093,0.016,0.153,0.03c0.18,0.032,0.365,0.084,0.477,0.12
	c0.112,0.033,0.262,0.065,0.39,0.08c0.125,0.016,0.199,0.038,0.287,0.047c0.089,0.007,0.147,0.021,0.214,0.023
	c0.063,0.004,0.077-0.004,0.089,0.019c0.013,0.026,0.027,0.04-0.038,0.075c-0.069,0.032-0.226,0.064-0.308,0.081
	c-0.084,0.016-0.149,0.037-0.218,0.049c-0.07,0.013-0.255,0.019-0.407,0.035c-0.038,0.003-0.057,0.005-0.065,0.005
	c-0.075,0.01-0.221,0.028-0.329,0.03c-0.152,0.005-0.353,0.005-0.417,0.042c-0.065,0.032-0.142,0.117-0.118,0.22
	c0.025,0.102,0.057,0.16,0.18,0.16c0.119,0,0.299-0.015,0.489-0.013c0.194,0.004,0.423,0.028,0.61,0.01
	c0.191-0.02,0.355-0.01,0.499-0.022c0.142-0.014,0.185-0.028,0.202-0.022c0.02,0.007,0.027,0.007,0.021,0.035
	c-0.004,0.028-0.017,0.041-0.074,0.105c-0.057,0.065-0.146,0.146-0.224,0.218c-0.083,0.07-0.209,0.146-0.28,0.208
	c-0.07,0.062-0.159,0.102-0.234,0.156c-0.076,0.053-0.234,0.124-0.269,0.202c-0.034,0.082-0.029,0.201,0.047,0.245
	c0.075,0.043,0.118,0.034,0.198-0.02c0.08-0.053,0.17-0.095,0.24-0.129c0.072-0.033,0.108-0.076,0.187-0.101
	c0.076-0.025,0.188-0.081,0.246-0.117c0.062-0.035,0.17-0.119,0.213-0.128c0.045-0.008,0.188-0.062,0.289-0.116
	c0.103-0.055,0.19-0.091,0.229-0.102c0.037-0.016,0.063-0.035,0.094-0.02c0.098,0.042,0.042,0.02,0.295,0.04
	c0.141,0.012,0.434,0.091,0.557,0.108c0.125,0.021,0.248,0.037,0.316,0.053c0.065,0.016,0.114,0.035,0.154,0.055
	c0.042,0.018,0.061,0.036,0.061,0.036S53.089,6.5,53.082,6.619c-0.012,0.12-0.003,0.265,0.007,0.41
	c0.015,0.146,0.056,0.261,0.104,0.304c0.045,0.045,0.061,0.045,0.156,0.052c0.096,0.008,0.17,0.038,0.229,0.05
	s0.061,0.009,0.111,0.038c0.049,0.033,0.117,0.063,0.164,0.065s0.086-0.009,0.119,0c0.035,0.01,0.096,0.058,0.174,0.096
	c0.076,0.037,0.188,0.094,0.237,0.099c0.05,0.004,0.099,0.033,0.136,0.05c0.041,0.015,0.229,0.125,0.342,0.166
	c0.109,0.04,0.296,0.104,0.434,0.146c0.141,0.042,0.217,0.07,0.297,0.08c0.082,0.013,0.124,0.053,0.182,0.083
	c0.06,0.032,0.154,0.075,0.264,0.137c0.113,0.068,0.264,0.175,0.367,0.23c0.104,0.053,0.264,0.138,0.412,0.195
	C56.968,8.881,57.127,8.938,57.24,9c0.111,0.056,0.195,0.1,0.238,0.106c0.041,0.009,0.061,0.035,0.11,0.063
	c0.05,0.028,0.181,0.097,0.245,0.158c0.064,0.063,0.23,0.239,0.32,0.301c0.089,0.062,0.347,0.232,0.498,0.301
	c0.149,0.069,0.382,0.202,0.494,0.24c0.11,0.04,0.17,0.052,0.211,0.042c0.041-0.009,0.058,0.01,0.09,0.029
	c0.031,0.026,0.092,0.06,0.109,0.098c0.014,0.04,0.078,0.17,0.151,0.236c0.074,0.069,0.369,0.311,0.469,0.385
	c0.103,0.08,0.402,0.236,0.453,0.26c0.058,0.027,0.11,0.085,0.179,0.104c0.063,0.021,0.159,0.067,0.252,0.113
	c0.094,0.046,0.268,0.132,0.366,0.171c0.101,0.04,0.249,0.125,0.364,0.161c0.116,0.04,0.174,0.059,0.225,0.069
	c0.051,0.011,0.047,0.004,0.07,0.043c0.021,0.038,0.088,0.222,0.307,0.394c0.221,0.168,0.342,0.235,0.48,0.278
	c0.141,0.042,0.268,0.096,0.309,0.108c0.043,0.013,0.045,0.017,0.045,0.017s0.029,0.022,0.039,0.045
	c0.012,0.022,0.017,0.045,0.012,0.062c-0.002,0.016-0.004,0.019-0.004,0.036c0,0.016-0.078,0.1-0.117,0.27
	c-0.043,0.168-0.088,0.259-0.154,0.548c-0.07,0.289-0.16,0.683-0.18,0.884s-0.064,0.375-0.057,0.553
	c0.006,0.174,0.063,0.536,0.075,0.592c0.013,0.05,0.013,0.069,0.013,0.069l-0.062,0.055l0.063-0.012v0.027l-0.082,0.07l0.006,0.033
	l0.084-0.049l0.01,0.017l-0.053,0.043l0.09,0.017c0,0,0.127,0.281,0.205,0.401c0.076,0.12,0.16,0.206,0.248,0.289
	c0.082,0.084,0.119,0.114,0.119,0.114l-0.047-0.09c0,0,0.099,0.053,0.157,0.103c0.063,0.052,0.132,0.102,0.132,0.102l-0.059-0.08
	l0.136,0.052c0,0-0.219-0.145-0.331-0.26c-0.113-0.116-0.209-0.23-0.275-0.351c-0.063-0.12-0.088-0.191-0.104-0.241
	c-0.015-0.05-0.019-0.094-0.019-0.094l0.06-0.006l0.019-0.01l0.02-0.027l0.02-0.02l0.021-0.004l0.053-0.023l0.026-0.025l0.022-0.018
	l0.016-0.025l0.011-0.025l0.015-0.021l0.024-0.035l0.022-0.01l0.026,0.01l0.017,0.035l0.014,0.032c0,0,0.045,0.148,0.077,0.205
	c0.028,0.056,0.112,0.184,0.18,0.273c0.065,0.09,0.151,0.186,0.196,0.233c0.047,0.045,0.107,0.12,0.107,0.12l0.012-0.035
	c0,0,0.043,0.018,0.037,0.01c0.033,0.03,0.033,0.068,0.033,0.068s0.022,0.295,0.018,0.422c-0.008,0.128-0.018,0.24-0.024,0.351
	c-0.009,0.113-0.021,0.23-0.021,0.411c0,0.18,0.021,0.522,0.031,0.704c0.014,0.178,0.018,0.573,0.006,0.83
	c-0.014,0.26-0.037,0.606-0.08,0.845c-0.041,0.24-0.19,0.855-0.258,1.131c-0.064,0.273-0.125,0.545-0.188,0.819
	c-0.057,0.271-0.105,0.574-0.148,0.847c-0.043,0.271-0.111,0.65-0.162,1.018c-0.051,0.371-0.133,0.812-0.158,1.047
	c-0.027,0.236-0.061,0.456-0.07,0.629c-0.008,0.178-0.092,0.706-0.115,0.867c-0.021,0.162-0.051,0.384-0.089,0.558
	c-0.015,0.072-0.034,0.157-0.053,0.247c-0.499,0.208-1.034,0.351-1.582,0.421c0.038,0.185,0.11,0.368,0.142,0.553
	c-0.14,0.128-0.273,0.273-0.408,0.424c-0.064,0.138-0.127,0.288-0.225,0.381c-0.052,0.048-0.107,0.079-0.165,0.1
	c-0.319,0.425-0.606,0.892-0.812,1.367c-0.032,0.23-0.063,0.461-0.098,0.695c-0.104,0.208-0.205,0.418-0.315,0.628
	c-0.009,0.326-0.019,0.652-0.029,0.978c-0.051,0.238-0.22,0.323-0.285,0.506c-0.02,0.295-0.04,0.589-0.062,0.881
	c-0.055,0.238-0.215,0.348-0.315,0.539c-0.026-0.008-0.046-0.016-0.062-0.022c-0.008,0.055-0.016,0.11-0.024,0.165
	c-0.009,0.05-0.03,0.093-0.062,0.13c-0.166,0.397-0.662,1.207-0.801,1.367c-0.266,0.313-0.342,0.758-0.504,1.164
	c-0.051,0.131-0.188,0.158-0.25,0.256c-0.043,0.179-0.086,0.357-0.127,0.536c-0.119,0.213-0.332,0.517-0.486,0.783
	c-0.148,0.384-0.293,0.774-0.471,1.147c-0.02,0.176-0.035,0.354-0.055,0.532c-0.208,0.219-0.42,0.441-0.629,0.661
	c-0.012,0.063-0.021,0.127-0.033,0.188c0.105,0.075,0.212,0.149,0.314,0.223v0.03h-0.174c0.051,0.06,0.088,0.138,0.084,0.249
	c0.012-0.008,0.028-0.017,0.06-0.028c-0.021,0.102-0.072,0.197-0.132,0.291c-0.147,0.382-0.448,0.706-0.76,1.023
	c-0.365,0.539-0.738,1.064-1.08,1.597l-0.017,0.034c-0.032,0.165-0.063,0.331-0.094,0.492c-0.56,1.477-1.009,3.576-0.916,5.456
	c-0.08,0.043-0.106,0.059-0.25,0.065c-0.333-0.351-0.709-0.315-1.326-0.41v-0.283c-0.741-0.195-1.752-0.583-2.247-1.235
	c-0.092-0.063-0.144-0.152-0.158-0.252c-0.19-0.391-0.202-0.857,0.103-1.416c0.3-0.55,1.186-0.987,1.325-1.294
	c0.055-0.124,0.112-0.511,0.158-1.006c0.057,0.019,0.138,0.062,0.185,0.088c0.054,0.011,0.108,0.023,0.163,0.038
	c0.031,0.02,0.061,0.042,0.093,0.064c0.049,0.034,0.164,0.07,0.193,0.053c-0.031-0.015-0.143-0.057-0.161-0.078
	c0.002-0.003,0.004-0.005,0.006-0.01c0.011,0.003,0.022,0.004,0.034,0.006c0-0.002,0-0.002,0-0.003
	c-0.001-0.006-0.004-0.01-0.004-0.016c-0.006-0.011-0.008-0.007-0.021-0.014c0-0.002,0.001-0.01,0.002-0.013
	c0.022-0.005,0.03-0.007,0.043-0.027c0.016,0.004,0.032,0.007,0.049,0.01c0.002-0.012,0.006-0.022,0.01-0.036
	c0.02,0,0.008,0.005,0.019-0.004c0.009,0.004,0.019,0.009,0.028,0.018c0-0.023-0.006-0.028,0.002-0.046
	c0.025,0.009,0.059,0.018,0.074,0.013c0.002,0,0.002-0.002,0.002-0.004c-0.021-0.011-0.029-0.021-0.029-0.046
	c0.006-0.002,0.012-0.004,0.018-0.008c-0.021-0.015-0.025-0.022-0.054-0.032c0-0.002-0.001-0.006-0.002-0.008
	c0.005-0.022,0.007-0.022,0.019-0.03c-0.002-0.002-0.002-0.004-0.002-0.01c-0.021,0-0.053-0.004-0.065-0.024
	c-0.011-0.016-0.12-0.251-0.12-0.258c0.002-0.013,0.005-0.02,0.006-0.033c0.1,0.035,0.146,0.125,0.193,0.195
	c0.097,0.149,0.279,0.364,0.514,0.383c0.001-0.002,0.001-0.002,0.001-0.006l-0.167-0.069c-0.068-0.05-0.296-0.285-0.306-0.357
	c0.019,0.002,0.038,0.004,0.059,0.01c0.05,0.069,0.148,0.163,0.242,0.202c0.001,0.016-0.005,0.038,0.021,0.038
	c0.029,0.02,0.061,0.043,0.09,0.065c0.009,0.008,0.041-0.002,0.064,0.009c0.032,0.023,0.063,0.043,0.098,0.066
	c0.002-0.003,0.004-0.006,0.004-0.006c0.002-0.004,0.002-0.009,0.004-0.011c-0.037-0.058-0.131-0.089-0.19-0.128
	c-0.083-0.061-0.137-0.151-0.25-0.193c0.001-0.05-0.071-0.099-0.097-0.138c0.006-0.016,0.008-0.016,0.01-0.028
	c-0.009-0.008-0.005,0-0.009-0.013c-0.013,0-0.027,0-0.041,0.005c-0.011-0.025-0.021-0.047,0.014-0.05
	c0.015,0.038,0.081,0.056,0.11,0.076c0.003-0.006,0.005-0.008,0.007-0.01c-0.002-0.011-0.005-0.022-0.008-0.031
	c-0.028-0.021-0.037-0.045-0.068-0.056c-0.021-0.009-0.034-0.004-0.059-0.004c0.001-0.005,0.002-0.007,0.004-0.015
	c-0.022,0-0.039,0.002-0.054,0.01c-0.043-0.074-0.105-0.161-0.145-0.222c0.006-0.01,0.012-0.025,0.018-0.038
	c0.013,0.002,0.024,0.004,0.039,0.007c-0.004,0.01-0.006,0.023-0.008,0.036c0.012-0.002,0.023-0.005,0.036-0.005
	c-0.012-0.028,0.027-0.061,0.022-0.075c-0.014-0.056-0.021-0.094-0.021-0.145c0.015,0.001,0.029,0.007,0.044,0.011
	c0,0.006,0,0.014,0,0.021c0.006,0,0.01,0,0.016,0c0.022-0.076,0.02-0.071,0.012-0.132c0.033-0.114,0.066-0.226,0.1-0.341
	c0.004,0,0.006,0,0.008-0.002c-0.002,0.078-0.014,0.188-0.054,0.278c-0.01,0.029-0.021,0.057-0.03,0.089
	c0.002-0.002,0.006-0.002,0.008-0.002c0.027-0.082,0.068-0.178,0.101-0.256c0.004-0.042,0.007-0.087,0.011-0.129
	c0.002-0.036,0.026-0.076,0.03-0.102c0-0.029,0-0.059,0-0.088c0.007-0.011,0.015-0.021,0.022-0.032c0-0.033-0.02-0.108-0.026-0.148
	c-0.009-0.065,0.009-0.124-0.009-0.181c-0.012-0.045-0.021-0.097-0.033-0.142c-0.012-0.025-0.023-0.049-0.037-0.074
	c-0.002-0.022-0.006-0.047-0.008-0.071c-0.018-0.037-0.064-0.091-0.066-0.136c0-0.04,0.037-0.024,0.061-0.019
	c0.005-0.024,0.014-0.028,0.005-0.044c-0.022-0.02-0.046-0.042-0.07-0.063c-0.013,0.023-0.041,0.005-0.071,0
	c-0.008-0.035-0.031-0.03-0.043-0.06c0.002-0.005,0.004-0.008,0.006-0.01c0.002,0,0.002,0,0.004,0
	c0.007,0.005,0.015,0.01,0.021,0.018c0.007-0.012,0.007-0.007,0.011-0.025c-0.024-0.017-0.004-0.026-0.016-0.042
	c-0.039-0.06-0.12-0.127-0.167-0.167c0.003-0.012,0.007-0.022,0.011-0.036c-0.049-0.012-0.071-0.051-0.103-0.073
	c-0.021-0.01-0.042-0.018-0.063-0.021c-0.021-0.016-0.043-0.046-0.059-0.058c-0.052-0.036-0.073-0.015-0.109-0.064
	c0,0,0.044-0.073,0.044-0.119c-0.001-0.071-0.062-0.126-0.105-0.174C50.061,41.9,50,41.88,49.939,41.859
	c-0.037-0.088-0.077-0.179-0.123-0.274c-0.001-0.002-0.002-0.013-0.004-0.017c-0.001-0.002-0.006-0.006-0.009-0.01
	c-0.149-0.307-0.326-0.623-0.473-0.881c-0.19-0.331-0.785-0.609-1.493-0.781c-0.024-0.016-0.048-0.027-0.066-0.038
	c-0.016-0.018-0.033-0.034-0.05-0.05c-0.067-0.034-0.104,0.006-0.159-0.075c-0.009,0.001-0.019,0.004-0.029,0.007
	c-0.014-0.015-0.015-0.01-0.02-0.035c-0.008,0.008-0.018,0.009-0.028,0.015c-0.175-0.127-0.423-0.137-0.646-0.137
	c0.004-0.016-0.003-0.006,0.008-0.016c-0.004,0-0.008-0.005-0.013-0.008c0,0.008,0,0.012,0,0.018
	c-0.079-0.003-0.239-0.036-0.305-0.012c-0.002,0-0.004-0.003-0.008-0.005c0.003-0.01,0.003-0.007,0.008-0.016
	c-0.044-0.012-0.076,0.014-0.115,0.016c-0.042,0.005-0.09-0.002-0.135,0c0.002,0.005,0.004,0.008,0.007,0.012
	c-0.059,0.058-0.382-0.028-0.489,0.016c0,0,0,0.002,0.001,0.002c0.026,0.009,0.072,0.008,0.107-0.002c0,0.002,0,0.002,0,0.005
	c-0.031,0.046-0.148,0.017-0.2,0.044c-0.015-0.003-0.011-0.003-0.02-0.014c-0.036,0.011-0.072,0.019-0.099,0.011
	c-0.005,0.021-0.01,0.023-0.021,0.035c-0.08,0-0.227,0.034-0.292,0.076c-0.021,0.012-0.033,0.054-0.05,0.06
	c-0.013,0.01-0.039-0.006-0.058,0.01c-0.011,0.01-0.019,0.026-0.028,0.04c-0.105,0.036-0.204,0.077-0.286,0.128
	c-0.34,0.213-1.156,1.318-1.418,1.168l-0.063,0.031c0.008,0.18,0.017,0.359,0.024,0.536c-0.068-0.007-0.146,0.033-0.167,0.083
	c-0.015,0.039-0.04,0.106-0.015,0.158c0.008,0.016,0.023,0.054,0.023,0.071c-0.017,0.043-0.237,0.083-0.275,0.122
	c-0.044,0.042-0.105,0.098-0.106,0.174c-0.001,0.044,0.044,0.115,0.044,0.115c-0.037,0.052-0.057,0.032-0.108,0.067
	c-0.016,0.009-0.039,0.043-0.06,0.058c-0.021,0.005-0.041,0.013-0.063,0.019c-0.032,0.028-0.054,0.063-0.103,0.078
	c0.004,0.01,0.007,0.02,0.01,0.034c-0.047,0.04-0.127,0.107-0.166,0.165c-0.011,0.017,0.009,0.027-0.015,0.046
	c0.004,0.018,0.001,0.01,0.01,0.02c0.005-0.002,0.013-0.01,0.021-0.014c0,0,0.001,0,0.004,0c0,0.003,0.003,0.004,0.005,0.008
	c-0.011,0.032-0.034,0.027-0.042,0.063c-0.03,0.008-0.057,0.024-0.072,0c-0.023,0.019-0.046,0.042-0.07,0.059
	c-0.008,0.02,0,0.023,0.005,0.048c0.021-0.008,0.06-0.023,0.059,0.015c0,0.05-0.047,0.1-0.065,0.14
	c-0.004,0.025-0.006,0.047-0.009,0.071c-0.013,0.021-0.025,0.047-0.037,0.069c-0.012,0.051-0.021,0.098-0.033,0.147
	c-0.018,0.056,0.001,0.116-0.008,0.179c-0.007,0.036-0.027,0.115-0.025,0.148c0.008,0.012,0.015,0.021,0.023,0.03
	c0,0.032,0,0.063,0,0.092c0.003,0.026,0.027,0.066,0.028,0.1c0.004,0.045,0.008,0.087,0.012,0.131
	c0.033,0.08,0.074,0.172,0.101,0.255c0.003,0,0.006,0,0.008,0c-0.01-0.028-0.019-0.058-0.031-0.087
	c-0.039-0.093-0.052-0.202-0.054-0.278c0.003,0.002,0.005,0.002,0.008,0.002c0.033,0.112,0.066,0.228,0.099,0.34
	c-0.007,0.063-0.011,0.06,0.012,0.133c0.005,0,0.011,0,0.016,0c0-0.004,0-0.015,0-0.02c0.015-0.002,0.031-0.01,0.044-0.013
	c0.002,0.053-0.006,0.093-0.02,0.146c-0.002,0.015,0.035,0.048,0.023,0.076c0.012,0,0.024,0.003,0.037,0.005
	c-0.002-0.013-0.005-0.026-0.008-0.036c0.013-0.002,0.025-0.004,0.038-0.008c0.006,0.013,0.011,0.027,0.016,0.038
	c-0.039,0.059-0.099,0.148-0.143,0.223c-0.016-0.008-0.031-0.012-0.053-0.01c0.001,0.007,0.001,0.01,0.002,0.015
	c-0.025,0-0.038-0.008-0.058,0c-0.032,0.012-0.041,0.035-0.068,0.055c-0.003,0.01-0.006,0.021-0.009,0.036
	c0.002,0.001,0.004,0.004,0.007,0.007c0.031-0.018,0.098-0.035,0.11-0.072c0.037,0.002,0.025,0.024,0.013,0.047
	c-0.013,0-0.026,0-0.04-0.005c-0.003,0.013,0,0.008-0.008,0.015c0.001,0.013,0.002,0.01,0.008,0.029
	c-0.024,0.037-0.098,0.085-0.096,0.136c-0.112,0.043-0.167,0.132-0.25,0.19c-0.058,0.045-0.153,0.072-0.19,0.131
	c0,0.002,0.001,0.006,0.002,0.015c0.002,0,0.002,0,0.005,0.001c0.032-0.021,0.064-0.042,0.097-0.063
	c0.023-0.012,0.055-0.002,0.065-0.009c0.03-0.024,0.06-0.044,0.089-0.069c0.025,0,0.019-0.02,0.021-0.035
	c0.094-0.04,0.192-0.132,0.241-0.206c0.02-0.002,0.039-0.004,0.059-0.006c-0.01,0.075-0.239,0.307-0.305,0.357l-0.168,0.07
	c0.001,0,0.001,0.003,0.001,0.003c0.235-0.018,0.417-0.234,0.514-0.381c0.046-0.071,0.094-0.158,0.193-0.196
	c0.002,0.011,0.004,0.022,0.005,0.03c0.001,0.011-0.108,0.246-0.119,0.259c-0.014,0.02-0.047,0.029-0.066,0.026
	c0,0.002-0.001,0.004-0.001,0.008c0.011,0.009,0.014,0.012,0.019,0.033c0,0.002-0.002,0.005-0.002,0.007
	c-0.027,0.009-0.03,0.017-0.052,0.033c0.005,0.002,0.012,0.005,0.017,0.007c0,0.024-0.008,0.034-0.03,0.047c0,0,0,0.002,0.001,0.002
	c0.016,0.006,0.05-0.002,0.077-0.012c0.007,0.019,0.002,0.025,0.002,0.042c0.009-0.004,0.018-0.01,0.028-0.014
	c0.009,0.01,0,0.004,0.016,0.006c0.005,0.009,0.009,0.021,0.012,0.034c0.017-0.005,0.032-0.007,0.049-0.013
	c0.012,0.023,0.02,0.025,0.041,0.029c0.001,0.004,0.002,0.01,0.002,0.018c-0.012,0.007-0.014,0.001-0.021,0.011
	c-0.001,0.005-0.002,0.01-0.004,0.016c0,0.002,0,0.002,0,0.004c0.011-0.002,0.022-0.004,0.034-0.006
	c0.001,0.002,0.003,0.006,0.006,0.01c-0.018,0.022-0.129,0.063-0.162,0.077c0.03,0.016,0.146-0.02,0.195-0.051
	c0.031-0.023,0.061-0.047,0.093-0.069c0.019-0.004,0.038-0.009,0.057-0.012c0.058,0.463,0.115,0.927,0.172,1.39
	c0.211,0.189,0.422,0.378,0.632,0.568c0.017-0.007,0.032-0.017,0.049-0.025c0.009-0.087,0.049-0.152,0.1-0.202
	c0.099-0.134,0.266-0.201,0.441-0.078c0.016,0.013,0.028,0.024,0.043,0.038c0.018,0.012,0.034,0.024,0.048,0.042
	c0.298,0.263,0.389,0.625,0.337,0.991c0.097,0.271-0.033,0.604-0.21,0.885c-0.021,0.071-0.06,0.128-0.113,0.167
	c-0.117,0.159-0.237,0.287-0.316,0.357c-0.171,0.149-0.564,0.102-0.757,0.221c-0.223,0.14-0.546,0.521-0.757,0.601
	c-0.244,0.092-0.42,0.006-0.6,0.123c-0.137,0.162-0.273,0.315-0.41,0.477c-0.251,0.042-0.505,0.082-0.757,0.125
	c-0.419,0.107-0.939,0.543-1.135,0.887c-0.286,0.495,0.028,1.407-0.095,2.047c-0.114,0.59,0.017,1.219,0.126,1.768
	c0.145,0.727-0.248,1.457-0.378,1.986c-0.21,0.854-0.02,1.975-0.694,2.334c-0.199,0.041-0.399,0.084-0.599,0.125
	c-0.44,0.182-0.383,0.26-1.008,0.316c-0.369,0.033-0.801,0.428-1.265,0.325c-0.044,0.048-0.096,0.088-0.156,0.12
	c-0.181,0.229-0.371,0.318-0.757,0.185c-0.258-0.371-0.635-1.321-0.536-1.86c0.067-0.362,0.336-1.051,0.221-1.516
	c-0.28-1.109,0.022-2.477,0.188-3.563c0.012-0.76,0.021-1.516,0.032-2.269c0.098-1.626-0.04-3.687-0.315-4.986
	c-0.167-0.791-0.162-3.56,0.095-4.067c0.312-0.426,1.035-0.555,1.294-1.042c0.145-0.393-0.822-2.213-1.011-2.586
	c-0.344-0.675-1.275-2.967-1.866-3.566c-0.085-0.041-0.157-0.095-0.224-0.158c-1.614-0.789-4.034-0.881-5.101-2.205
	c0.082-0.458,0.072-1.16,0.22-1.702c0.1-0.364,0.323-0.416,0.316-1.011c0.33-0.181,0.754,0.005,1.009-0.377
	c0.19-0.289,0.381-0.827,0.417-1.374c0.004-0.068,0.006-0.138,0.006-0.205c-0.002-0.15-0.012-0.298-0.044-0.441
	c-0.096-0.169-0.189-0.335-0.283-0.505c-0.033-0.651-0.063-1.302-0.096-1.954c-0.421-1.312-1.88-2.718-3.753-2.494h-1.04
	c-0.138,0.108-0.274,0.211-0.411,0.319c-0.543,0.245-1.12,0.583-1.595,1.025c-0.059,0.076-0.126,0.148-0.208,0.208
	c-0.607,0.651-0.98,1.5-0.752,2.58c0.063,0.302-0.055,0.593-0.096,0.791c-0.223,1.097,0.478,2.201,1.23,2.364
	c0.325,0.576,0.093,1.252,0.221,1.987c0.052,0.254,0.105,0.508,0.159,0.761c-0.254,0.247-0.524,0.628-0.979,0.66
	c-0.109,0.008-0.175-0.078-0.281-0.116c-0.006,0-0.01,0-0.016,0c-0.044,0-0.083-0.006-0.125-0.011
	c-0.017,0.001-0.029-0.002-0.049,0.001c-0.379,0.211-0.758,0.421-1.136,0.63c-0.59,0.011-1.179,0.021-1.767,0.032
	c-0.521,0.105-1.116,0.552-1.577,0.693l-0.441,0.062c-0.714,0.475-0.276,1.143-0.535,1.989c-0.095,0.169-0.19,0.337-0.284,0.505
	c-0.222,0.784-0.169,1.367-0.443,2.081c-0.105,0.148-0.21,0.293-0.315,0.44c-0.01,0.181-0.02,0.356-0.032,0.537
	c-0.124,0.288-0.464,0.686-0.567,1.011c0.116,0.206,0.244,0.554,0.506,0.628c0.213,0.369-0.395,3.874-0.631,4.448
	c-0.076,0.063-0.148,0.126-0.222,0.189c-0.358,0.632-0.313,1.659-0.504,2.459c-0.177,0.745-0.493,1.833-0.631,2.586
	c-0.006,0.212-0.013,0.425-0.021,0.637c-0.072,0.42-1.066,6.253-1.217,8.123c-0.152,0.268-0.358,0.568-0.464,0.797
	c-0.125,0.346,0.184,0.596,0.252,0.854c0.022,0.408,0.042,0.819,0.064,1.23c0.143,0.563,0.935,1.127,1.355,1.448
	c-0.071,0.062-0.06,0.028-0.159,0.065c0.281,0.338,1.012,0.405,1.528,0.215c0.032-0.015,0.066-0.03,0.103-0.043
	c0.154-0.096,0.222-0.293,0.293-0.457c-0.027-0.377-0.229-0.565-0.377-0.818c0.305-0.479,0.268-1.275,0.251-2.083
	c0.021-0.015,0.042-0.021,0.063-0.03c0.073,0.535,0.147,1.071,0.221,1.607c0.078,0.336,0.116,0.908,0.251,1.324
	c0.07,0.215,0.229,0.351,0.285,0.631c0.02,0.638,0.041,1.279,0.062,1.924c0.176,1.059,0.114,2.234,0.348,3.374
	c0.19,0.946,0.485,2.087,0.66,3.061c0.105,0.979,0.212,1.955,0.315,2.933c0.335,2.07-1.631,5.431,1.357,5.396
	c0.313,0.443,0.661,1.779,0.788,2.396c0.021,0.283,0.042,0.565,0.064,0.853c0.034,0.035,0.069,0.065,0.104,0.103
	c0.114,0.713,0.25,1.682,0.277,2.451c0,0-0.002,0-0.003,0c0.003,0.029,0.004,0.062,0.006,0.088c0.005,0.179,0.002,0.338-0.008,0.483
	c-0.069,0.177-0.155,0.351-0.278,0.495c0.075,0.367-0.047,1.221-0.125,1.602c-0.092,0.444-0.215,0.875-0.363,1.278
	c-0.082,0.17-0.162,0.345-0.243,0.513c-0.148,0.635,0.27,1.812,0.524,2.1c0.231,0.26,1.043,0.005,1.333,0.179
	c0.014,0.008,0.027,0.015,0.041,0.022c-0.022,0.209-0.145,0.271-0.188,0.42v0.416c-0.058,0.358-0.098,0.633,0.228,0.769
	c0.01,0.017,0.019,0.035,0.028,0.054c-0.076,0.082-0.131,0.082-0.108,0.198c0.744,0.274,2.036,0.179,2.801-0.036
	c0.197-0.022,0.395-0.045,0.592-0.068c0.053-0.049,0.106-0.101,0.161-0.146c0.108-0.014,0.216-0.027,0.323-0.043
	c0.032-0.012,0.304-0.17,0.35-0.201c0.094-0.063,0.118-0.187,0.229-0.24c0.063-0.025,0.103,0.002,0.147,0.025
	c0.011-0.04,0.019-0.079,0.027-0.12c0.197-0.327,0.571-0.079,0.808-0.458c0.128-0.185-0.157-0.896-0.108-1.172
	c0.02-0.109-0.002-0.304,0.055-0.39c0.048-0.073,0.173-0.107,0.202-0.201l0.013-0.257c0.053-0.104,0.108-0.205,0.161-0.311
	c0.05-0.207,0.007-0.354,0.067-0.537c0.081-0.24,0.277-0.541,0.35-0.793c0.018-0.177,0.036-0.352,0.053-0.526
	c0.035-0.114,0.059-0.24,0.085-0.361c-0.051-0.644-0.209-1.264-0.622-1.664c-0.283-0.276-0.437-0.578-0.506-0.883
	c-0.028,0-0.054,0-0.082,0c0.091-0.321,0.199-0.626,0.308-0.931c0.687-0.559,1.414-3.654,1.741-5.207
	c0.003,0.006,0.005,0.007,0.009,0.011c0.063-0.082,0.069-0.187,0.063-0.351c0.051-0.021,0.105-0.041,0.158-0.062
	c0.221-0.086,0.446,0.06,0.662,0.095c0.164-0.117,0.359-0.283,0.41-0.506c0.117-0.496-0.153-1.168-0.063-1.734
	c0.064-0.396,0.3-0.75,0.221-1.197l-0.012-0.057c0.265-1.285,0.93-4.346,1.458-6.764c0.013-0.021,0.024-0.038,0.036-0.056
	c0.002-0.048,0.003-0.095,0.006-0.144c0.082-0.373,0.16-0.729,0.232-1.057c0.036-0.086,0.072-0.168,0.108-0.253
	c0.156-0.646,0.24-1.283,0.348-1.829c0.021-0.411,0.042-0.82,0.064-1.229c0.171-0.891,0.45-2.056,0.441-3.157
	c0.167-0.101,0.174,0.036,0.219-0.122c0.225,0.074,0.188,0.257,0.349,0.378c0.102,0.075,0.214,0.127,0.331,0.167
	c0.034-0.002,0.067-0.01,0.106-0.01c0.148,0,0.27,0.039,0.371,0.101c0.333,0.019,0.673-0.04,0.958-0.101
	c-0.031-0.114,0.002-0.066-0.063-0.129c0.125-0.053,0.253-0.104,0.378-0.156c0.176-0.143,0.319-0.487,0.503-0.602
	c0.327-0.197,0.883,0.037,1.105-0.062c0.381-0.169,0.639-0.101,0.997-0.106c0.13-0.021,0.259-0.039,0.391-0.051
	c0.17-0.045,0.394-0.129,0.567-0.158c0.272-0.01,0.547-0.021,0.821-0.031c0.168-0.072,0.336-0.147,0.504-0.219
	c0.137-0.021,0.231,0.059,0.408,0.098c0.063-0.014,0.125-0.023,0.188-0.032c0.014-0.034,0.007-0.041-0.012-0.063
	c0.622,0.032,1.541,0.178,1.704,0.74c0.013,0.148,0.008,0.281-0.009,0.403c-0.092,0.321-0.114,0.407-0.006,0.05
	c0,0.143-0.036,0.285-0.109,0.406c-0.065,0.187-0.143,0.376-0.208,0.603c-0.056,0.021-0.071,0.028-0.087,0.028
	c-0.021,0.098-0.046,0.191-0.075,0.281c0.02,0.014,0.038,0.029,0.068,0.039c-0.038,0.276-0.195,0.271-0.253,0.47
	c-0.02,0.36-0.042,0.716-0.062,1.075c-0.095,0.103-0.19,0.211-0.284,0.314c-0.021,0.286-0.042,0.568-0.063,0.852
	c-0.084,0.168-0.168,0.34-0.251,0.507c-0.022,0.266-0.043,0.526-0.064,0.786c-0.104,0.191-0.209,0.383-0.315,0.57
	c-0.265,0.887-0.492,1.611-0.726,2.521c-0.099,0.388-1.064,1.818-0.725,2.365c0.125,0.201,0.41,0.105,0.663,0.188
	c0.115,0.096,0.231,0.19,0.348,0.285c0.209,0.023,0.42,0.04,0.63,0.063c0.196,0.054,0.323,0.229,0.473,0.283
	c0.57,0.211,1.473-0.045,1.957,0.158c0.283,1.27,0.667,3.837,0.466,5.684c-0.015,0.071-0.069,0.342-0.127,0.756
	c-0.05,0.207-0.107,0.396-0.182,0.563v0.688c-0.021,0.457-0.042,0.908-0.063,1.359c0.029,0.139,0.059,0.273,0.088,0.411
	c0.014,0.415,0.044,0.849,0.093,1.293c-0.006,0.023-0.012,0.046-0.019,0.07c0.012,0.009,0.02,0.021,0.03,0.03
	c0.174,1.457,0.573,3.049,1.382,4.531c0.036,0.101,0.083,0.192,0.165,0.297c0.124,0.213,0.235,0.381,0.331,0.513
	c-0.107,0.06-0.228,0.104-0.296,0.209c-0.148,0.229-0.001,0.448-0.085,0.723c-0.043,0.147-0.116,0.438-0.2,0.604
	c-0.089,0.178-0.245,0.248-0.318,0.472c0.049,0.125,0.166,0.207,0.2,0.317v0.387c0.048,0.119,0.194,0.15,0.252,0.253
	c0.081,0.146,0.149,0.337,0.201,0.471c0.059,0.144-0.006,0.327,0.05,0.472c0.052,0.05,0.102,0.101,0.151,0.148
	c0.034,0.105,0.067,0.213,0.101,0.317c0.05,0.038,0.1,0.071,0.152,0.101c0.056,0.113,0.016,0.648,0.1,0.842
	c0.054,0.125,0.206,0.131,0.269,0.254l0.016,0.051c-0.001,0-0.002,0.002-0.005,0.003c0.045,0.048,0.067,0.11,0.073,0.176
	c0.021,0,0.041-0.002,0.067,0.006c0.052,0.294,0.113,0.506,0.318,0.636c0.41,0.26,1.74,0.152,2.317,0.067
	c0.113,0.013,0.225,0.022,0.337,0.035c0.372-0.095,0.712-0.293,1.191-0.371c0.385-0.612-0.141-1.504-0.353-1.997
	c-0.111-0.261-0.146-0.573-0.133-0.924c0.006-0.128,0.011-0.26,0.016-0.387c-0.028-0.104-0.054-0.203-0.083-0.303
	c0.024-0.093,0.146-0.171,0.101-0.35c-0.046-0.184-0.048-0.426-0.101-0.676c-0.05-0.242-0.27-0.508-0.212-0.864
	c0.053-0.065,0.105-0.133,0.156-0.204c0.039,0.01,0.077,0.018,0.111,0.027c0.292-0.744,0.687-1.449,1.184-2.078
	c-0.024-0.172-0.032-0.352-0.015-0.549c0.053-0.174,0.105-0.355,0.158-0.536c-0.039-0.063-0.076-0.124-0.115-0.189
	c0.484-2.254,0.484-4.677,0.451-5.789c0.037-0.796-0.009-1.632-0.146-2.313c-0.117-0.338-0.232-0.676-0.347-1.008v-1.549
	c-0.125-0.75-0.119-1.789,0.062-2.459c0.637-0.119,0.869,0.315,1.01-0.662c0.356-0.205,1.211,0.008,1.606-0.095
	c0.411-0.748-0.061-3.872-0.186-4.7c-0.014-0.957-0.021-1.912-0.032-2.867c-0.05-0.301-0.213-0.517-0.253-0.76
	c-0.063-0.375,0.344-0.406,0.221-0.884c-0.105-0.187-0.211-0.38-0.313-0.567c-0.161-0.602-0.174-0.955-0.383-1.449
	c-0.086-0.211-0.285-0.288-0.346-0.567c-0.27-1.293,0.008-1.862-0.188-2.87c0.042-0.021,0.085-0.041,0.128-0.063
	c-0.016,0.771,0.732,1.657,1.543,1.389c0.72-0.237,1.275-1.065,1.607-1.705c0.692-1.321,0.926-2.784,1.42-4.319
	c0.127-0.393,0.537-0.634,0.441-1.291c-0.102-0.713-0.529-0.91-0.66-1.484c-0.076-0.327,0.111-0.498,0.156-0.693
	c0.143-0.592,0.039-1.146,0.031-1.765c0.012,0.003,0.021,0.004,0.031,0.007c-0.021-0.141,0.031-0.288,0.156-0.363
	c0.094-0.158,0.18-0.306,0.284-0.496c0.207-0.264,1.347-0.039,1.8-0.127c0.74-0.141,1.43-0.478,1.893-0.914h0.029
	c0.056,0.082-0.092,1.669-0.127,1.925c0.033-0.032,0.064-0.063,0.098-0.096c-0.043,0.807-0.086,1.617-0.127,2.426
	c0.012,1.396-0.227,2.951-0.475,4.291c-0.043,0.715-0.082,1.432-0.127,2.146c-0.016,0.066-0.039,0.131-0.068,0.191
	c0.113,0.695,0.209,1.391,0.279,2.09c0.133,0.122,0.286,0.238,0.484,0.336c0.105,0.538,0.064,1.02-0.064,1.515
	c-0.072-0.055-0.055-0.032-0.092-0.127h-0.033c-0.172,0.729-0.104,1.629-0.283,2.46c-0.229,1.077-0.411,2.777-0.6,3.846
	c-0.011,0.35-0.021,0.696-0.029,1.043c-0.145,0.828-0.561,1.787-0.348,2.619c0.404,0.237,1.566,0.662,1.67,1.104
	c-0.115,0.063-0.068,0.003-0.095,0.156c0.119,0.132,0.224,0.281,0.283,0.475c0.099,0.053,0.204,0.08,0.313,0.1
	c0.059-0.017,0.119-0.029,0.188-0.029c0.16,0,0.285,0.05,0.381,0.131c0.063,0.015,0.127,0.027,0.191,0.05
	c0.031,0.013,0.063,0.019,0.095,0.033c0.099,0.508-0.083,0.641-0.19,0.977c-0.216,0.688-0.314,1.995-0.314,2.81v0.757
	c0.459,1.146,0.334,2.937,0.662,4.226c0.074,0.137,0.149,0.273,0.223,0.409l0.127,1.202c0.092,0.279,0.189,0.564,0.283,0.848
	c0.023,0.264,0.047,0.526,0.068,0.791c0.401,0.704,0.648,1.532,0.67,2.471l-0.276,1.041c-0.149-0.019-0.298-0.032-0.446-0.043
	c0.066,0.129,0.003,0.107-0.084,0.238c-0.357,0.537-1.042,0.82-0.943,1.057c0.101,0.242,0.195,0.082,0.041,0.276
	c-0.154,0.195-0.235,0.331-0.217,1.007c0.008,0.205,0,0.104-0.133,0.276c-0.135,0.179-0.135,0.124-0.143,0.442
	c-0.012,0.318-0.029,0.397,0.09,0.449c0.209,0.094,0.23,0.025,0.285,0.03c0.055,0.009-0.022,0.054,0.137,0.054
	c0.309-0.002,0.205-0.037,0.287-0.051c0.063-0.008-0.049,0.032,0.341,0.061c0.44,0.031,0.33-0.033,0.412-0.033
	c0.097,0-0.118,0.045,0.435,0.066c0.424,0.017,0.17-0.035,0.416-0.017c0.075,0.006-0.117,0.039,0.342,0.068
	c0.313,0.02,0.367-0.011,0.424-0.003c0.103,0.015,0.086,0.055,0.318,0.055c0.186,0,0.381-0.016,0.566-0.128
	c0.441-0.267,0.4-0.282,0.391-0.617c-0.015-0.567-0.279-0.651,0.041-0.624c0.391,0.035,0.318,0.055,0.598-0.175
	c0.275-0.224,0.246-0.07,0.234-0.862c-0.005-0.326,0.035-0.482-0.072-0.605c0.1-0.141,0.078-0.577,0.025-1.006l0.028,0.002
	c-0.185-1.151-0.272-2.812-0.05-3.967c0.094-0.308,0.188-0.611,0.285-0.914c0.028-0.475,0.06-0.946,0.09-1.42
	c0.244-1.078,0.438-2.349,0.634-3.535c0.33-2.013-0.456-3.773-0.19-5.518c0.021-0.014,0.043-0.023,0.063-0.031
	c0.065,0.049,0.134,0.099,0.2,0.151c0.041-0.024,0.086-0.043,0.132-0.06c0.14-0.283,0.358-0.801,0.598-1.024
	c0.056-0.272,0.103-0.526,0.14-0.774c0.022-0.225,0.043-0.445,0.065-0.668c0.004-0.162,0.002-0.33-0.015-0.511
	c-0.01-0.114,0.027-0.206,0.09-0.263c0.007-0.065,0.014-0.131,0.021-0.196c0.035,0.035,0.057,0.086,0.071,0.142
	c0.207-0.086,0.521,0.016,0.547,0.317c0.001,0.015,0.002,0.025,0.003,0.037c0.026-0.007,0.039-0.021,0.104-0.056
	c0.516,0.563,0.222,1.529,0.408,2.306c0.104,0.039,0.207,0.076,0.313,0.119c0.32-0.03,0.657-0.063,0.963,0.005h0.209
	c-0.015,0.018-0.027,0.035-0.04,0.055c0.095,0.036,0.183,0.078,0.267,0.144c0.127,0.099,0.203,0.226,0.254,0.368
	c0.025,0,0.051,0.002,0.088,0.002c0.23,0.344,0.345,0.816,0.392,1.344c0.183,0.158,0.152,0.406,0.025,0.554
	c0.006,0.827-0.112,1.72-0.229,2.427c-0.018,0.25-0.041,0.502-0.061,0.756c0.094,0.463,0.188,0.922,0.281,1.388
	c0.086,0.497-0.024,0.938,0.096,1.354c0.378,1.327,1.018,4.184,0.602,5.963c-0.101,0.412-0.443,1.028-0.632,1.388
	c-0.032,0.057-0.052,0.132-0.067,0.211h-0.092c0,0-0.134,0.641-0.186,1.204c-0.049,0.113-0.028,0.268-0.031,0.541
	c-0.012,0.801-0.043,0.645,0.238,0.873c0.281,0.229,0.208,0.213,0.604,0.179c0.324-0.03,0.059,0.054,0.043,0.631
	c-0.011,0.34-0.055,0.356,0.396,0.626c0.188,0.115,0.387,0.13,0.575,0.13c0.236,0,0.219-0.043,0.322-0.058
	c0.057-0.006,0.11,0.023,0.43,0.004c0.465-0.029,0.27-0.063,0.348-0.068c0.249-0.021-0.009,0.035,0.419,0.014
	c0.562-0.019,0.345-0.069,0.44-0.069c0.084,0-0.028,0.067,0.421,0.038c0.394-0.023,0.28-0.07,0.343-0.061
	c0.084,0.013-0.02,0.051,0.292,0.051c0.161,0.002,0.083-0.045,0.14-0.055c0.055-0.007,0.077,0.063,0.286-0.027
	c0.124-0.057,0.104-0.137,0.095-0.459c-0.01-0.324-0.01-0.269-0.146-0.445c-0.135-0.18-0.142-0.075-0.135-0.282
	c0.02-0.688-0.063-0.821-0.22-1.02c-0.155-0.198-0.062-0.035,0.041-0.28c0.101-0.241-0.594-0.529-0.957-1.072
	c-0.088-0.133-0.15-0.111-0.084-0.242c-0.203,0.015-0.404,0.037-0.604,0.064c0.2-0.923,0.473-1.839,0.786-2.752
	c0.038-0.818,0.419-1.729,0.624-2.248c0.031-0.419,0.063-0.842,0.093-1.263c0.083-0.136,0.169-0.272,0.254-0.408
	c0.03-0.294,0.062-0.588,0.095-0.883c0.187-0.587,0.521-1.489,0.631-2.113c0.24-1.337,0.309-2.995,0.1-4.38
	c-0.002,0-0.003-0.002-0.005-0.002c0.001-0.006,0.002-0.012,0.002-0.014c-0.028-0.181-0.06-0.357-0.097-0.524
	c-0.117-0.529-0.502-1.263-0.409-1.957c0.212-0.037,0.731,0.062,0.946-0.031c0.246-0.104,0.172-0.309,0.631-0.315
	c-0.004,0.018-0.006,0.035-0.01,0.053c0.051-0.031,0.109-0.059,0.187-0.059c0.022,0,0.038,0.008,0.058,0.014
	c0.148-0.237,1.992-0.355,2.225-0.795c0.108-0.274-0.055-0.555-0.063-0.881c0.014,0.009,0.023,0.021,0.039,0.033v-0.061
	c-0.039-0.064-0.057-0.143-0.045-0.234c-0.07-0.14-0.009-0.279-0.09-0.496c-0.094-0.119-0.188-0.233-0.283-0.349
	c-0.011-0.431-0.021-0.86-0.031-1.293c-0.084-0.229-0.17-0.463-0.252-0.692c-0.064-0.61-0.125-1.223-0.191-1.83V67.17
	c-0.096-0.156-0.127-0.357-0.043-0.596c0.018-0.047,0.027-0.098,0.043-0.145v-0.613c-0.144-0.741-0.362-1.438-0.346-2.271
	c0.084,0.031,0.17,0.062,0.254,0.093c0.014,0.063,0.027,0.122,0.041,0.184c0.1-0.146,0.274-0.225,0.488-0.248
	c-0.563-1.747-0.445-3.846-0.455-5.818c-0.144-1.091-0.267-2.161-0.283-3.189c-0.004-0.176,0.051-0.326,0.139-0.444
	c-0.051-0.177-0.104-0.356-0.151-0.54c-0.06-0.221,0.044-0.311,0.121-0.423c-0.094-0.28-0.116-0.604-0.129-0.894
	c-0.009-0.242-0.036-0.478-0.074-0.703c-0.198-0.603-0.493-1.336-0.538-1.975c-0.07-0.207-0.129-0.425-0.178-0.643
	c-0.204-0.184-0.104-0.529-0.212-0.884c-0.089-0.157-0.179-0.319-0.269-0.478c0.123-0.016,0.227-0.026,0.238-0.019
	c0.016,0.011,0.02,0.049,0.02,0.049s-0.041,0.305,0.065,0.422c0.101,0.114,0.47,0.263,0.722,0.261
	c0.252-0.005,0.584-0.055,0.932-0.097c0.348-0.043,1.098-0.116,1.256-0.156c0.157-0.039,0.146-0.048,0.268-0.065
	c0.127-0.019,0.449-0.049,0.498-0.092c0.041-0.036,0.015-0.087-0.021-0.146c-0.034-0.061-0.101-0.109-0.116-0.14
	c-0.015-0.032,0-0.096-0.015-0.131c-0.017-0.035-0.019-0.031-0.036-0.041c-0.016-0.015-0.018-0.004-0.021-0.024
	c-0.004-0.021-0.031-0.296-0.074-0.389c-0.043-0.093-0.059-0.172-0.149-0.226c-0.094-0.055-0.217-0.077-0.306-0.155
	c-0.09-0.075-0.176-0.146-0.277-0.252c-0.102-0.102-0.156-0.128-0.266-0.266c-0.109-0.135-0.187-0.215-0.236-0.322
	c-0.051-0.108-0.133-0.259-0.225-0.414c-0.059-0.096-0.139-0.217-0.217-0.341c0.508,0.269,1.026,0.454,1.543,0.341
	c0.135-0.085,0.274-0.167,0.407-0.252c0.464-0.14,0.632,0.3,1.202-0.126c0.717-0.54,1.68-2.65,1.417-4.071
	c-0.104-0.237-0.208-0.481-0.313-0.724c-0.018-0.233-0.032-0.466-0.049-0.696c-0.147-0.43-0.341-0.824-0.679-1.102
	c-0.08-0.069-0.162-0.126-0.241-0.191c-0.46-0.274-1.05-0.428-1.744-0.44c-0.146-0.158-0.295-0.313-0.441-0.474
	c-0.146-0.375-0.174-0.755-0.278-1.104c-0.438-0.542-0.887-1.403-1.165-1.89c-0.074-0.129-0.134-0.258-0.191-0.385
	c-0.043-0.084-0.092-0.165-0.131-0.245v-0.081c-0.018-0.047-0.033-0.097-0.049-0.145c-0.007,0-0.009,0.002-0.015,0.004
	c-0.097-0.305-0.188-0.61-0.282-0.914c-0.249-1.281-0.117-2.674-0.729-3.565c-0.121-0.178-0.309-0.202-0.504-0.316
	c-0.258-0.149-0.537-0.458-0.789-0.598c-0.662-0.374-1.319-0.483-2.049-0.789c-0.107-0.095-0.211-0.19-0.315-0.285L74.24,26.82
	c-0.055-0.278-0.105-0.549-0.129-0.659c-0.043-0.206-0.143-0.668-0.209-1.004c-0.065-0.338-0.178-0.854-0.229-1.202
	c-0.05-0.349-0.114-0.636-0.164-0.921c-0.049-0.289-0.093-0.486-0.124-0.794c-0.031-0.308-0.056-0.513-0.097-0.751
	c-0.043-0.24-0.08-0.465-0.136-0.731c-0.023-0.12-0.104-0.43-0.144-0.791c-0.05-0.441-0.059-0.936-0.058-1.085
	c0.005-0.26,0.018-0.706,0.027-0.863c0.013-0.157,0.086-0.788,0.135-1.156c0.052-0.363,0.117-0.816,0.128-0.934
	c0.012-0.115,0.046-0.206,0.108-0.313c0.061-0.114,0.071-0.212,0.184-0.377c0.113-0.165,0.289-0.333,0.387-0.482
	c0.102-0.151,0.236-0.36,0.291-0.613c0.055-0.256,0.063-0.566,0.051-0.714c-0.014-0.153-0.048-0.297-0.048-0.311
	c0-0.062,0.022-0.084,0.103-0.127c0.076-0.044,0.301-0.147,0.432-0.236s0.273-0.215,0.382-0.314
	c0.109-0.096,0.188-0.204,0.235-0.262c0.047-0.058,0.061-0.06,0.117-0.088c0.058-0.025,0.34-0.152,0.511-0.234
	c0.173-0.084,0.269-0.147,0.338-0.206c0.073-0.055,0.194-0.173,0.233-0.257c0.039-0.085,0.08-0.168,0.086-0.213
	c0.007-0.041,0-0.052,0.048-0.087c0.046-0.035,0.116-0.092,0.182-0.158c0.063-0.063,0.099-0.082,0.188-0.107
	c0.091-0.024,0.132-0.046,0.184-0.046c0.07,0,0.126-0.044,0.188-0.083c0.063-0.038,0.197-0.108,0.289-0.161
	c0.088-0.054,0.146-0.086,0.268-0.188c0.126-0.102,0.225-0.192,0.332-0.273c0.105-0.08,0.277-0.19,0.357-0.257
	c0.08-0.064,0.334-0.25,0.414-0.308c0.078-0.062,0.229-0.177,0.291-0.28c0.063-0.101,0.189-0.311,0.262-0.414
	s0.109-0.175,0.16-0.196c0.054-0.019,0.181-0.065,0.283-0.103c0.1-0.038,0.176-0.064,0.219-0.095c0.045-0.03,0.086-0.067,0.146-0.1
	c0.057-0.036,0.12-0.06,0.18-0.09c0.058-0.025,0.252-0.087,0.351-0.1c0.102-0.012,0.255-0.073,0.334-0.131
	c0.075-0.056,0.181-0.111,0.278-0.16c0.101-0.046,0.205-0.098,0.31-0.139c0.104-0.038,0.173-0.073,0.276-0.134
	c0.099-0.06,0.211-0.134,0.261-0.182c0.043-0.05,0.083-0.083,0.151-0.108c0.069-0.026,0.125-0.045,0.193-0.03
	c0.094,0.02,0.266,0.004,0.348-0.003c0.082-0.01,0.231-0.049,0.336-0.08c0.106-0.033,0.277-0.085,0.396-0.117
	c0.112-0.036,0.207-0.064,0.274-0.079c0.064-0.015,0.099-0.024,0.131-0.022c0.035,0.004,0.098,0.007,0.136-0.018
	c0.037-0.024,0.063-0.064,0.082-0.075c0.021-0.015,0.08-0.023,0.129-0.03c0.051-0.007,0.147-0.035,0.194-0.065
	c0.047-0.03,0.183-0.122,0.175-0.172c-0.009-0.051-0.047-0.15-0.072-0.206c-0.024-0.052-0.048-0.137-0.073-0.204
	c-0.022-0.064-0.047-0.131-0.068-0.18c-0.021-0.05-0.036-0.071-0.036-0.087s0-0.03,0.022-0.048c0.021-0.018,0.15-0.102,0.235-0.155
	c0.087-0.051,0.271-0.169,0.322-0.213c0.053-0.044,0.181-0.104,0.337-0.168c0.15-0.065,0.371-0.182,0.482-0.247
	c0.108-0.059,0.287-0.123,0.363-0.15c0.075-0.027,0.184-0.084,0.271-0.112c0.088-0.027,0.146-0.035,0.203-0.027
	c0.06,0.007,0.268,0.037,0.346,0.035c0.082-0.003,0.138-0.011,0.163-0.008c0.047,0.008,0.075,0.021,0.128,0.028
	c0.053,0.007,0.152,0.033,0.229,0.028c0.077-0.003,0.168-0.005,0.204,0.005c0.038,0.006,0.104,0.021,0.142,0.024
	c0.035,0.002,0.119-0.002,0.175,0.007c0.057,0.011,0.147,0.039,0.219,0.023c0.067-0.015,0.128-0.08,0.118-0.148
	c-0.01-0.063-0.033-0.155-0.113-0.193c-0.082-0.036-0.261-0.072-0.35-0.077c-0.092-0.004-0.094,0-0.141-0.013
	c-0.045-0.012-0.104-0.042-0.183-0.06c-0.076-0.02-0.198-0.03-0.256-0.046c-0.058-0.019-0.185-0.059-0.267-0.093
	c-0.08-0.034-0.145-0.068-0.17-0.111c-0.023-0.042-0.035-0.083,0.017-0.09c0.049-0.004,0.167-0.025,0.269-0.052
	c0.102-0.027,0.187-0.056,0.26-0.066c0.074-0.008,0.215-0.032,0.266-0.052c0.054-0.02,0.288-0.108,0.338-0.129
	s0.143-0.036,0.204-0.062c0.062-0.021,0.146-0.066,0.226-0.078c0.096-0.01,0.193-0.042,0.209-0.097
	C89.023,3.516,89.025,3.394,88.993,3.349z M63.291,14.698c-0.004,0.119-0.018,0.269-0.016,0.348
	c0.007,0.075-0.018,0.132-0.018,0.132s-0.015-0.021-0.023-0.046c-0.006-0.019-0.008-0.064-0.01-0.169
	c-0.004-0.103,0.027-0.222,0.039-0.351c0.014-0.129,0.114-0.521,0.114-0.521l0.035-0.026c0,0,0,0.01-0.015,0.067
	c-0.012,0.06-0.043,0.17-0.053,0.229C63.34,14.419,63.298,14.576,63.291,14.698z M63.379,14.503
	c-0.008,0.089-0.021,0.204-0.021,0.273c0,0.066-0.021,0.187-0.021,0.187l-0.014-0.04c0,0-0.01-0.074-0.01-0.146
	c0-0.071,0.022-0.219,0.033-0.313c0.014-0.09,0.069-0.22,0.069-0.22S63.389,14.416,63.379,14.503z M63.568,13.204
	c-0.004,0.048-0.039,0.104-0.039,0.104s-0.016,0.031-0.026,0.054s-0.015,0.023-0.015,0.023l-0.014,0.014c0,0-0.009,0.02-0.009,0.035
	c0,0.016-0.009,0.071-0.009,0.071s-0.006,0.019-0.014,0.035c-0.008,0.018-0.017,0.029-0.043,0.104
	c-0.025,0.075-0.037,0.117-0.069,0.216c-0.03,0.101-0.114,0.48-0.149,0.708s-0.039,0.346-0.031,0.536
	c0.008,0.193,0.006,0.384,0.006,0.384s-0.021,0.01-0.04,0.02c-0.021,0.013-0.031,0.067-0.031,0.067s-0.007,0.005-0.034,0.044
	c-0.025,0.04-0.072,0.04-0.072,0.04s0-0.016-0.008-0.058c-0.01-0.042-0.027-0.162-0.037-0.293c-0.008-0.13-0.014-0.354,0-0.522
	c0.017-0.172,0.063-0.585,0.096-0.724c0.029-0.139,0.101-0.415,0.162-0.563c0.063-0.15,0.233-0.524,0.233-0.524l0.019-0.026
	c0,0,0.021,0.025,0.041,0.044c0.02,0.02,0.037,0.046,0.045,0.065c0.01,0.02,0.044,0.02,0.052,0.04
	C63.586,13.113,63.572,13.157,63.568,13.204z M46.533,90.575l-0.543-2.601c0,0,0.091-5.151,0.467-4.281
	C46.835,84.566,46.533,90.575,46.533,90.575z M61.499,92.354c-0.069,0.116-0.131,0.125-0.212,0.098
	c-0.084-0.027,0.102-0.152,0.206-0.221C61.596,92.16,61.566,92.236,61.499,92.354z M62.094,91.887
	c-0.303,0.23-0.266,0.165-0.219,0.092c0.049-0.076,0.575-0.617,0.63-0.681c0,0,0.013,0.007,0.022,0.011
	C62.539,91.363,62.466,91.605,62.094,91.887z M66.206,9.349c0,0,0.005,0.01,0,0.032c-0.006,0.027-0.038,0.107-0.038,0.107
	l-0.014,0.018c0,0-0.006,0.015-0.018,0.035c-0.012,0.019-0.023,0.016-0.023,0.016s-0.01,0-0.01-0.016V9.465
	c0-0.017,0.01-0.017,0.015-0.031c0.004-0.015,0-0.008,0.008-0.025c0.009-0.02,0.009-0.027,0.009-0.027s0.002-0.012,0.006-0.026
	c0.004-0.013,0.004-0.017,0.004-0.017l0.008-0.082l0.029,0.008c0,0,0.01,0.016,0.018,0.032c0.008,0.014,0.002,0.005,0.008,0.027
	C66.211,9.342,66.206,9.349,66.206,9.349z M66.448,9.711l-0.013,0.012l-0.021,0.026c0,0-0.021,0.006-0.039,0.001
	c0,0-0.04,0-0.07-0.001c0,0-0.007,0-0.025,0c-0.02,0-0.016,0.006-0.016,0.006l-0.041-0.032l-0.005-0.035
	c0,0-0.004-0.014-0.007-0.035c-0.005-0.018,0-0.022,0-0.022s0.003-0.018,0.003-0.03c0-0.016,0.004-0.027,0.011-0.067
	c0.01-0.039,0.028-0.125,0.028-0.125l0.019-0.029l0.026,0.044l0.007,0.015c0,0,0.012,0.01,0.02,0.027
	c0.006,0.013,0.006,0.013,0.021,0.041c0.016,0.02,0.012,0.025,0.016,0.04l0.031,0.042l0.006,0.022l0.021,0.031
	c0,0,0.021,0.034,0.03,0.048C66.462,9.704,66.448,9.711,66.448,9.711z M71.371,9.576c-0.01,0.018-0.018,0.02-0.018,0.02
	l-0.035,0.016l-0.049,0.02h-0.023L71.223,9.65l-0.031,0.02l-0.022-0.02l-0.022-0.011L71.13,9.623c0,0-0.003-0.01-0.007-0.03
	c-0.005-0.026,0-0.018,0-0.033c0-0.016,0-0.023,0.007-0.05c0.009-0.026,0.022-0.042,0.031-0.087c0.008-0.046,0-0.014-0.009-0.028
	c-0.006-0.016-0.02-0.016-0.02-0.016l-0.016-0.014c0,0-0.004-0.013-0.004-0.038c0-0.022,0-0.028-0.004-0.125
	c-0.004-0.098,0.041-0.217,0.041-0.217l0.01-0.017l0.016,0.034l-0.004,0.026l0.004,0.029c0,0,0,0.015,0,0.032
	c0,0.017,0,0.027,0,0.027s0.038,0.093,0.043,0.112c0.004,0.021,0.004,0.016,0.008,0.031c0.004,0.013,0.015,0.04,0.015,0.04
	l0.011,0.028l0.002,0.027l0.008,0.033l0.01,0.031l0.008,0.029l0.011,0.025l0.024,0.032c0,0,0.013,0.016,0.033,0.028
	c0.02,0.012,0.02,0.021,0.02,0.021S71.379,9.561,71.371,9.576z M71.281,9.377l0.004-0.05c0,0,0.025,0.042,0.041,0.082
	c0.016,0.043,0.04,0.112,0.04,0.112s-0.031-0.033-0.06-0.068C71.281,9.419,71.281,9.377,71.281,9.377z M71.479,9.448l-0.01,0.028
	L71.45,9.484c0,0-0.009,0-0.027-0.006c-0.019-0.002-0.003-0.002-0.024-0.021c-0.018-0.019-0.006-0.012-0.021-0.027
	c-0.017-0.014-0.026-0.064-0.026-0.064s-0.011-0.013-0.014-0.032c-0.004-0.021,0-0.028-0.009-0.045c-0.007-0.02,0-0.006-0.007-0.024
	c-0.01-0.019-0.006-0.014-0.01-0.039C71.309,9.204,71.302,9.2,71.302,9.2s-0.001-0.02-0.005-0.04c-0.003-0.02,0-0.027-0.008-0.073
	C71.281,9.039,71.262,8.9,71.262,8.9l0.027-0.016c0,0,0.012,0.04,0.021,0.075c0.013,0.033,0.016,0.104,0.016,0.104v0.024
	c0,0,0.004,0.003,0.016,0.02c0.014,0.023,0.014,0.02,0.014,0.02l0.023,0.027c0,0,0,0.01,0.012,0.036
	c0.01,0.028,0.002,0.028,0.002,0.028l0.006,0.027l-0.008,0.056l0.01,0.027l0.013,0.027l0.009,0.024l0.018,0.009l0.018,0.009
	c0,0,0.011,0.011,0.023,0.026C71.49,9.438,71.479,9.448,71.479,9.448z M75.748,92.448c0.105,0.069,0.293,0.194,0.209,0.223
	s-0.145,0.021-0.216-0.098C75.673,92.456,75.645,92.38,75.748,92.448z M74.723,91.507c0.055,0.06,0.59,0.61,0.639,0.687
	c0.048,0.076,0.084,0.142-0.221-0.09C74.664,91.742,74.668,91.443,74.723,91.507z M73.591,14.873c0,0,0.009-0.097,0.021-0.143
	c0.013-0.048,0.037-0.196,0.057-0.303c0.02-0.108,0.023-0.253,0.027-0.353c0.005-0.097,0.031-0.285,0.031-0.285l0.037-0.068
	c0,0,0.018,0,0.02,0.083c0.005,0.085-0.008,0.158-0.016,0.298c-0.008,0.137-0.041,0.287-0.065,0.414
	c-0.022,0.127-0.077,0.344-0.077,0.344L73.591,14.873z M73.701,14.748c0.005-0.038,0.056-0.172,0.078-0.305
	c0.023-0.134,0.047-0.298,0.058-0.411c0.013-0.111,0.009-0.412,0.009-0.412l0.018-0.03l0.013-0.033c0,0,0.005-0.015,0.017-0.04
	c0.012-0.029,0.049-0.093,0.082-0.128c0.034-0.037,0.045-0.032,0.045-0.032s0.008,0.042,0.008,0.167
	c0,0.122-0.008,0.206-0.008,0.206s0,0.009-0.002,0.098c-0.004,0.09-0.026,0.225-0.026,0.322c0,0.095-0.054,0.25-0.077,0.28
	c-0.025,0.033-0.037,0.006-0.063,0.095c-0.025,0.087-0.148,0.291-0.148,0.291S73.699,14.784,73.701,14.748z M74.189,13.989
	c-0.004,0.132-0.092,0.372-0.15,0.5c-0.059,0.126-0.234,0.337-0.234,0.337l-0.031,0.03l0.021-0.057c0,0,0.048-0.094,0.092-0.179
	c0.049-0.086,0.117-0.271,0.148-0.369c0.031-0.094,0.054-0.241,0.072-0.391c0.02-0.143,0.055-0.376,0.055-0.376
	s0.008,0.034,0.02,0.1c0.012,0.065-0.002,0.098,0.008,0.167C74.201,13.82,74.193,13.859,74.189,13.989z M50.002,5.123
	c0.03-0.003,0.052-0.005,0.052-0.005S49.976,5.125,50.002,5.123z"/>
</svg>
