<?xml version="1.0" encoding="utf-8"?>
<!-- Generator: Adobe Illustrator 16.0.0, SVG Export Plug-In . SVG Version: 6.00 Build 0)  -->
<!DOCTYPE svg PUBLIC "-//W3C//DTD SVG 1.1//EN" "http://www.w3.org/Graphics/SVG/1.1/DTD/svg11.dtd">
<svg version="1.1" id="Layer_1" xmlns="http://www.w3.org/2000/svg" xmlns:xlink="http://www.w3.org/1999/xlink" x="0px" y="0px"
	 width="99.438px" height="78.869px" viewBox="0 0 99.438 78.869" enable-background="new 0 0 99.438 78.869" xml:space="preserve">
<path d="M0,52.601c0-0.043,0-0.086,0-0.129c0.297,0.039,0.58,0.092,0.879,0.129C0.632,52.685,0.317,52.556,0,52.601z M0.13,31.119
	c0.01,0.084-0.012,0.14-0.098,0.13C-0.026,31.193,0.042,31.122,0.13,31.119z M0.521,20.963c0.064-0.119,0.46-0.092,0.456,0.065
	C0.836,21.111,0.628,21.019,0.521,20.963z M1.627,51.917c-0.186,0.055-0.567,0.025-0.684-0.098
	C1.062,51.544,1.43,51.872,1.627,51.917z M0.944,15.69c-0.023-0.124,0.21-0.07,0.162,0.033C1.031,15.733,0.981,15.718,0.944,15.69z
	 M1.92,20.475c0.174-0.01,0.308,0.018,0.326,0.163C2.117,20.692,1.916,20.649,1.92,20.475z M2.147,12.176
	c0.076-0.15,0.337,0.043,0.424,0.097C2.449,12.449,2.277,12.2,2.147,12.176z M2.669,7.781C2.708,7.635,2.971,7.714,3.092,7.65
	C3.013,7.758,2.813,7.836,2.669,7.781z M2.832,48.728c0-0.033,0-0.063,0-0.097c0.224-0.019,0.322,0.089,0.486,0.13
	C3.212,48.824,2.98,48.731,2.832,48.728z M2.864,14.779c-0.075-0.068,0.069-0.189,0.099-0.261
	C3.037,14.586,2.893,14.708,2.864,14.779z M4.654,11.98c0.032-0.274,0.068-0.403,0.163-0.651C4.915,11.568,4.778,11.854,4.654,11.98
	z M4.817,57.419c-0.017-0.255,0.412-0.177,0.424,0C5.113,57.446,4.937,57.478,4.817,57.419z M4.85,11.133
	c0.011-0.075,0.039-0.134,0.065-0.194C4.984,10.968,4.959,11.175,4.85,11.133z M4.979,33.756c0.312-0.111,0.604,0.066,0.586,0.39
	C5.263,34.263,4.896,34.028,4.979,33.756z M5.045,12.305c0.08,0.062,0.022,0.26-0.032,0.293C4.849,12.526,5.053,12.42,5.045,12.305z
	 M5.077,11.231c0.106,0.099-0.021,0.412-0.099,0.325C4.91,11.456,5.058,11.345,5.077,11.231z M5.11,16.048
	c-0.034-0.122,0.08-0.092,0.065-0.194C5.244,15.883,5.22,16.09,5.11,16.048z M5.143,11.198c-0.026-0.063-0.035-0.381,0.099-0.39
	C5.228,10.958,5.162,11.056,5.143,11.198z M5.761,13.998c0.051,0.084,0.08,0.426-0.064,0.423
	C5.624,14.274,5.771,14.178,5.761,13.998z M5.729,11.557c0.016-0.159,0.07-0.276,0.099-0.424c0.056,0.076,0.021,0.239,0.098,0.293
	C5.913,11.526,5.785,11.604,5.729,11.557z M5.826,13.868c0.027-0.266,0.066-0.714,0.13-1.042c0.017-0.087,0.004-0.22,0.13-0.228
	C5.949,12.988,6.069,13.551,5.826,13.868z M6.379,11.784c0.115,0.18,0.077,0.654-0.032,0.813
	C6.298,12.358,6.331,12.071,6.379,11.784z M6.933,12.24c0.04,0.029,0.138,0.262,0,0.261C6.861,12.429,6.965,12.368,6.933,12.24z
	 M7.453,13.51c-0.055-0.025-0.055-0.269,0-0.293C7.425,13.346,7.502,13.458,7.453,13.51z M7.486,14.193
	c0.049,0.006,0.131,0.212,0,0.195C7.423,14.328,7.477,14.269,7.486,14.193z M7.649,12.696c0.085,0.13,0.103,0.332,0.098,0.553
	C7.641,13.138,7.64,12.921,7.649,12.696z M7.779,11.719c0.094,0.3,0.2,0.581,0.261,0.912C7.775,12.504,7.861,12.027,7.779,11.719z
	 M7.844,13.086c0.06-0.078,0.244-0.007,0.229,0.097C7.951,13.197,7.986,13.052,7.844,13.086z M8.039,11.655
	c0.118,0.132,0.178,0.321,0.228,0.521C8.093,12.099,8.126,11.817,8.039,11.655z M8.267,32.551c0.12-0.288,0.454-0.022,0.651,0
	c0.333,0.037,1.396-0.069,1.303,0.423c-0.018,0.088-0.166,0.171-0.293,0.196c-0.392,0.07-0.729-0.157-1.14-0.293
	C8.556,32.799,8.226,32.842,8.267,32.551z M8.365,12.762c0.104,0.036,0.056,0.227,0.098,0.325
	C8.391,13.016,8.359,12.907,8.365,12.762z M8.495,13.379c0.072,0.111,0.104,0.265,0.098,0.456
	C8.529,13.715,8.505,13.555,8.495,13.379z M8.593,13.9c0.054,0.077,0.212,0.261,0.032,0.293C8.57,14.14,8.6,14.002,8.593,13.9z
	 M9.342,70.927c0.384-0.078,1.037-0.434,1.367-0.066c-0.11,0.424-1.007,0.367-1.4,0.293C9.29,71.05,9.331,71.003,9.342,70.927z
	 M9.407,12.663c0.122,0.082,0.182,0.229,0.193,0.423C9.468,13.014,9.442,12.834,9.407,12.663z M9.765,1.173
	c0.109-0.012,0.319,0.159,0.358,0.326C9.926,1.588,9.915,1.236,9.765,1.173z M10.383,1.141c0.118,0.088,0.265,0.148,0.293,0.325
	C10.476,1.461,10.469,1.262,10.383,1.141z M10.903,10.84c0.154,0.042,0.175,0.218,0.293,0.293
	C11.081,11.183,10.951,10.968,10.903,10.84z M11.002,5.014c0-0.032,0-0.065,0-0.097c0.172-0.01,0.375-0.017,0.618-0.032
	C11.433,4.946,11.217,4.979,11.002,5.014z M11.327,10.548c-0.021,0.066-0.068,0.105-0.099,0.163
	C11.089,10.666,11.223,10.54,11.327,10.548z M11.229,11.231c0.235,0.22,0.458,0.453,0.618,0.749c-0.26-0.175-0.389-0.48-0.651-0.651
	C11.188,11.276,11.228,11.272,11.229,11.231z M11.425,5.047c0.057-0.051,0.173-0.043,0.26-0.065
	C11.678,5.083,11.522,5.037,11.425,5.047z M11.718,3.94c0.173,0.141,0.416,0.212,0.423,0.521C11.93,4.493,11.734,4.099,11.718,3.94z
	 M11.913,74.345c0.35-0.119,0.936-0.465,1.302-0.164c-0.106,0.448-0.728,0.381-1.237,0.424C11.91,74.51,11.873,74.481,11.913,74.345
	z M11.913,7.553c0.175-0.013,0.599-0.135,0.649,0.032C12.348,7.574,12.079,7.615,11.913,7.553z M12.011,8.139
	c0.079-0.088,0.223,0.036,0.325,0.032C12.269,8.248,12.094,8.155,12.011,8.139z M12.466,8.269c0.143-0.065,0.396,0.037,0.554,0.065
	C12.836,8.441,12.657,8.263,12.466,8.269z M12.694,5.405c0.061-0.049,0.154-0.063,0.261-0.065c0.022-0.082-0.144-0.134-0.032-0.195
	c0.102-0.016,0.104,0.07,0.098,0.162c0.608,0.009,1.243-0.293,1.692-0.228c-0.063,0.187-0.229,0.079-0.357,0.099
	C13.822,5.253,13.246,5.399,12.694,5.405z M13.508,78.413c0.025,0.395-0.274,0.463-0.651,0.455
	C12.585,78.585,13.171,78.187,13.508,78.413z M12.922,15.268c0.329-0.058,0.485,0.19,0.391,0.455c-0.119,0.103-0.259-0.069-0.325,0
	C12.878,15.638,12.808,15.391,12.922,15.268z M13.638,59.957c0.081,0.45-0.769,0.337-0.586-0.032
	C13.171,59.813,13.571,59.761,13.638,59.957z M13.41,42.544c-0.015-0.068,0.021-0.086,0.031-0.131
	c0.059,0.008,0.074,0.057,0.065,0.131C13.476,42.544,13.442,42.544,13.41,42.544z M13.963,29.035c0-0.032,0-0.064,0-0.097
	c0.067-0.014,0.087,0.023,0.131,0.033C14.086,29.027,14.037,29.045,13.963,29.035z M15.07,8.985c0.042-0.137,0.206-0.013,0.163,0.13
	C15.119,9.131,15.119,9.034,15.07,8.985z M16.274,0.88c0.075-0.021,0.175,0.17,0.032,0.162C16.279,1.005,16.265,0.956,16.274,0.88z
	 M16.665,8.985c0.048,0.115-0.04,0.371-0.099,0.489c-0.038,0.005-0.059-0.008-0.064-0.033C16.458,9.31,16.653,9.167,16.665,8.985z
	 M16.697,8.205c0.026,0.017,0.054,0.033,0.099,0.032c0.009,0.086-0.012,0.141-0.099,0.131C16.637,8.304,16.694,8.285,16.697,8.205z
	 M16.763,8.171c-0.1-0.06,0.037-0.155,0-0.26C16.904,7.956,16.766,8.079,16.763,8.171z M17.219,17.871
	c0.003-0.083,0.121-0.077,0.162-0.033C17.399,17.971,17.24,17.948,17.219,17.871z M17.576,75.517
	c0.009-0.058,0.057-0.074,0.131-0.064c0,0.031,0,0.064,0,0.098C17.639,75.563,17.62,75.526,17.576,75.517z M18.293,9.343
	c0.082,0.004,0.076,0.122,0.032,0.163C18.242,9.503,18.248,9.385,18.293,9.343z M18.325,20.768c0.101-0.005,0.146,0.115,0.098,0.163
	C18.325,20.933,18.258,20.835,18.325,20.768z M18.586,45.278c-0.122-0.506,0.654-0.746,0.78-0.262
	C19.518,45.599,18.714,45.81,18.586,45.278z M18.683,61.911c0.429-0.094,1.217-0.039,1.367,0.357
	c-0.372,0.34-0.998-0.047-1.367-0.131C18.676,62.021,18.639,62.013,18.683,61.911z M19.009,0.621
	c-0.101-0.093,0.021-0.235,0.032-0.326C19.143,0.388,19.018,0.53,19.009,0.621z M19.854,48.108c0.008-0.057,0.058-0.074,0.131-0.063
	c0,0.032,0,0.063,0,0.097C19.917,48.156,19.898,48.119,19.854,48.108z M20.375,45.668c-0.005-0.037,0.008-0.058,0.033-0.065
	c0.465,0.154,0.853,0.385,1.302,0.556C21.274,46.114,20.813,45.815,20.375,45.668z M20.538,60.478
	c0.104-0.026,0.101,0.051,0.163,0.065c-0.007,0.093-0.058,0.14-0.163,0.13C20.494,60.633,20.494,60.521,20.538,60.478z
	 M20.929,0.262c-0.088-0.048,0.052-0.141,0.065-0.196C21.101,0.134,20.939,0.204,20.929,0.262z M21.026,63.538
	c0.026,0.018,0.055,0.033,0.099,0.031C21.146,63.78,20.9,63.666,21.026,63.538z M21.254,6.219c0.209-0.067,0.441,0.175,0.65,0.26
	c0.136,0.055,0.396-0.004,0.358,0.228C21.924,6.674,21.594,6.358,21.254,6.219z M21.385,5.502c0.083-0.081,0.228,0.054,0.228,0.163
	C21.508,5.64,21.434,5.583,21.385,5.502z M21.417,7.846c0.095-0.178,0.23-0.311,0.423-0.391C21.677,7.563,21.654,7.813,21.417,7.846
	z M21.547,28.385c0.229,0.025,0.345,0.345,0.456,0.521c0.124,0.194,0.292,0.413,0.163,0.651c-0.372-0.023-0.576-0.557-0.651-0.879
	C21.488,28.562,21.368,28.446,21.547,28.385z M22.426,54.847c-0.005,0.444-0.623,0.571-0.943,0.489
	C21.522,54.921,22.048,54.716,22.426,54.847z M21.547,0.587c0.015-0.04,0.042-0.067,0.099-0.065
	c0.073,0.208,0.226,0.339,0.229,0.619C21.603,1.046,21.678,0.788,21.547,0.587z M21.71,5.958c0.054-0.092,0.177,0.015,0.229,0.033
	C21.884,6.142,21.793,5.971,21.71,5.958z M21.938,58.817c0.561,0.135,1.276,0.111,1.399,0.684c-0.583,0.18-1.062-0.245-1.498-0.423
	c0-0.054,0-0.106,0-0.163C21.887,58.897,21.92,58.864,21.938,58.817z M21.84,51.169c0.133-0.156,0.416,0.077,0.586,0.098
	C22.239,51.3,22,51.21,21.84,51.169z M22.264,35.546c0.034-0.074,0.099-0.119,0.195-0.131C22.424,35.489,22.36,35.534,22.264,35.546
	z M22.296,5.958c0.031-0.132,0.15-0.174,0.26-0.228C22.461,5.798,22.461,5.96,22.296,5.958z M22.328,46.481
	c0.087-0.063,0.267,0.058,0.357,0.099C22.583,46.659,22.43,46.513,22.328,46.481z M22.328,1.207
	c0.046-0.062,0.227,0.141,0.163,0.194C22.353,1.42,22.39,1.264,22.328,1.207z M22.459,38.897c-0.009-0.203,0.212-0.178,0.26-0.325
	C22.753,38.672,22.604,38.87,22.459,38.897z M22.491,6.707c0.004-0.051,0.193-0.148,0.032-0.163
	c0.007-0.111,0.098-0.142,0.194-0.163C22.737,6.585,22.621,6.651,22.491,6.707z M22.556,26.236c0.034-0.151,0.238,0.028,0.326,0.033
	C22.792,26.366,22.656,26.236,22.556,26.236z M23.11,48.923c-0.087,0.271-0.228,0.771-0.488,0.977
	C22.646,49.565,22.958,49.239,23.11,48.923z M22.979,38.345c0.042-0.068,0.052-0.165,0.162-0.162
	C23.128,38.276,23.073,38.331,22.979,38.345z M23.207,55.985c-0.005-0.037,0.007-0.058,0.033-0.064
	c0.159-0.053,0.398,0.071,0.586,0.098C23.696,56.062,23.37,56.019,23.207,55.985z M23.435,7.227c0.099-0.161,0.083-0.134,0-0.293
	c0.119,0.001,0.156,0.084,0.229,0.13C23.564,7.097,23.589,7.25,23.435,7.227z M23.533,35.285c0.023-0.028,0.034-0.073,0.031-0.129
	c0.099,0.046,0.11-0.027,0.195,0.032C23.731,35.267,23.63,35.273,23.533,35.285z M23.631,31.086c0-0.032,0-0.065,0-0.097
	c0.085-0.009,0.14,0.011,0.13,0.097C23.717,31.086,23.674,31.086,23.631,31.086z M23.695,7.13c0.089-0.106,0.147,0.089,0.262,0.065
	C23.883,7.287,23.772,7.142,23.695,7.13z M24.379,73.692c0.004,0.365-0.391,0.633-0.651,0.521
	C23.783,73.901,24.071,73.545,24.379,73.692z M24.119,1.042c0.02-0.066,0.05-0.123,0.161-0.097c0.017,0.103-0.1,0.074-0.063,0.196
	C24.155,1.137,24.193,1.034,24.119,1.042z M24.347,0.066c0.006-0.025,0.032-0.032,0.032-0.065c0.021,0,0.044,0,0.064,0
	c0,0.055,0,0.108,0,0.164C24.369,0.174,24.408,0.07,24.347,0.066z M24.899,64.741c0.001-0.26,0.229-0.293,0.456-0.324
	C25.407,64.597,25.122,64.834,24.899,64.741z M25.095,7.813c0.033-0.076,0.113-0.105,0.229-0.097
	C25.252,7.753,25.189,7.899,25.095,7.813z M25.844,48.142c-0.165-0.951,0.471-1.145,1.204-1.269c0.607-0.104,1.23-0.081,1.14,0.683
	c-0.027,0.232-0.64,1.131-0.879,1.271C26.734,49.158,25.968,48.856,25.844,48.142z M25.909,1.466
	c-0.104-0.083,0.031-0.204,0.031-0.293C26.089,1.229,25.917,1.368,25.909,1.466z M25.909,0.132c0.059-0.07,0.117-0.142,0.261-0.13
	C26.131,0.093,26.008,0.101,25.909,0.132z M25.941,16.667c0.202,0.014,0.241,0.192,0.262,0.39
	C26.1,16.942,25.919,16.907,25.941,16.667z M26.039,1.434c-0.042-0.119,0.074-0.358,0.131-0.489
	C26.329,1.076,26.043,1.256,26.039,1.434z M26.202,0.621c-0.008-0.093-0.004-0.178,0.098-0.164
	C26.348,0.505,26.303,0.625,26.202,0.621z M26.43,40.981c0.313-0.01,0.257,0.351,0.586,0.324c0.027,0.2,0.229,0.229,0.325,0.358
	c-0.316-0.031-0.593-0.384-0.911-0.521C26.43,41.089,26.43,41.035,26.43,40.981z M26.56,35.676c0.073-0.297,0.334-0.404,0.456-0.651
	C26.976,35.223,26.791,35.56,26.56,35.676z M27.341,2.02c-0.081-0.042,0.034-0.159,0.131-0.13
	C27.505,2.011,27.361,1.954,27.341,2.02z M27.731,51.624c0.263-0.037,0.495,0.258,0.686,0.424c0.201,0.178,0.446,0.414,0.39,0.717
	c-0.228,0.096-0.522-0.129-0.716-0.357C27.92,52.203,27.591,51.843,27.731,51.624z M27.765,49.249c0-0.033,0-0.064,0-0.098
	c0.143,0.041,0.279,0.09,0.357,0.195C28.008,49.31,27.919,49.245,27.765,49.249z M27.765,39.093c0.008-0.058,0.056-0.074,0.13-0.065
	c0,0.034,0,0.065,0,0.098C27.826,39.139,27.809,39.104,27.765,39.093z M27.895,3.549c-0.009-0.133,0.252-0.114,0.325-0.064
	C28.203,3.598,28.008,3.532,27.895,3.549z M27.927,34.406c-0.047-0.188,0.137-0.146,0.163-0.26
	C28.13,34.2,28.046,34.404,27.927,34.406z M28.285,3.387c0.027-0.013,0.382-0.127,0.455-0.098
	C28.691,3.439,28.505,3.358,28.285,3.387z M28.416,34.374c0-0.065,0-0.13,0-0.195c0.285-0.224,0.426-0.593,0.683-0.846
	C28.86,33.669,28.792,34.175,28.416,34.374z M28.838,3.094c0.07-0.071,0.18-0.103,0.326-0.098
	C29.128,3.101,28.937,3.051,28.838,3.094z M32.126,14.193c0.115,0.231,0.307,0.388,0.553,0.488c-0.004,0.351,0.235,0.459,0.392,0.65
	c-0.035,0.351-0.063,0.716,0.099,0.944c-0.203,0.416-0.36,0.878-0.619,1.237c-0.087,0-0.174,0-0.26,0
	c-0.089,0.324-0.534,0.291-0.749,0.489c-0.21-0.041-0.354-0.157-0.521,0c-0.468-0.053-0.656-0.385-1.105-0.456
	c-0.063-0.22-0.207-0.358-0.391-0.457c0.07-0.32-0.172-0.328-0.261-0.488c0.001-0.129,0.071-0.189,0.098-0.293
	c-0.016-0.166-0.174-0.167-0.194-0.293c-0.029-0.174,0.096-0.219,0.13-0.391c0.02-0.096-0.028-0.229,0-0.325
	c0.035-0.116,0.286-0.582,0.423-0.716c0.046-0.043,0.193-0.08,0.261-0.129c0.383-0.285,0.285-0.34,0.781-0.358
	c0.153-0.006,0.311-0.126,0.424-0.13C31.489,13.957,31.753,14.275,32.126,14.193z M30.01,60.608
	c-0.027-0.123,0.146-0.115,0.195-0.065C30.201,60.626,30.097,60.608,30.01,60.608z M30.108,66.142
	c0.018-0.024,0.033-0.053,0.031-0.098c0.082-0.005,0.158-0.006,0.163,0.064C30.327,66.247,30.125,66.224,30.108,66.142z
	 M31.345,65.134c0.007,0.412-0.467,0.786-0.879,0.779c-0.072,0.02-0.046-0.061-0.098-0.064
	C30.531,65.466,30.86,65.087,31.345,65.134z M30.791,43.716c0-0.033,0-0.064,0-0.099c0.369,0.004,1.04-0.022,1.236,0.261
	C31.561,43.935,31.215,43.787,30.791,43.716z M30.986,57.288c0.341-0.107,0.888-0.174,1.304-0.098
	c-0.228,0.244-0.951,0.289-1.304,0.194C30.986,57.354,30.986,57.321,30.986,57.288z M31.41,61.521
	c-0.026-0.127,0.197-0.188,0.228-0.064C31.668,61.587,31.462,61.567,31.41,61.521z M31.67,58.136c0-0.033,0-0.066,0-0.1
	c0.221-0.17,0.563-0.219,0.943-0.227C32.457,58.056,32.043,58.212,31.67,58.136z M32.321,50.876
	c0.499-0.152,0.774-0.029,1.204,0.131c0.186,0.262,0.396,0.494,0.456,0.879c-0.031,0.211-0.121,0.289-0.064,0.521
	c-0.242,0.343-0.521,0.648-1.009,0.749c-0.874,0.047-1.634-1.044-1.042-1.89C31.987,51.093,32.211,51.045,32.321,50.876z
	 M31.8,50.94c0.081-0.004,0.102,0.053,0.163,0.065C31.938,51.081,31.762,51.038,31.8,50.94z M32.256,58.948
	c-0.063-0.278,0.109-0.572,0.488-0.456C33.443,58.708,32.446,59.778,32.256,58.948z M32.451,43.878
	c0.118-0.131,0.313-0.188,0.521-0.229C32.832,43.759,32.643,43.819,32.451,43.878z M32.679,35.09c0.02-0.2,0.077-0.358,0.099-0.554
	C32.853,34.593,32.882,35.102,32.679,35.09z M32.972,33.495c0.115,0.511,0.592,0.985,0.392,1.596
	c-0.383-0.041-0.262-0.586-0.554-0.717C32.865,33.973,32.599,33.604,32.972,33.495z M34.111,59.534
	c-0.155,0.484-0.687,0.594-1.172,0.749c-0.062-0.06-0.145-0.095-0.13-0.228C33.169,59.827,33.509,59.411,34.111,59.534z
	 M33.428,40.655c-0.025-0.125,0.155-0.125,0.13,0C33.515,40.655,33.472,40.655,33.428,40.655z M33.623,73.271
	c0-0.021,0-0.043,0-0.065c0.026,0.008,0.03-0.013,0.032-0.031c0.021,0,0.044,0,0.064,0c-0.006,0.027,0.013,0.031,0.032,0.031
	c0,0.022,0,0.045,0,0.065c-0.027-0.006-0.03,0.013-0.032,0.031c-0.021,0-0.043,0-0.064,0C33.661,73.274,33.643,73.271,33.623,73.271
	z M33.623,72.132c0-0.033,0-0.064,0-0.1c0.067-0.014,0.087,0.023,0.13,0.033C33.745,72.122,33.697,72.142,33.623,72.132z
	 M33.818,22.818c-0.001-0.098-0.019-0.213,0.099-0.195C33.915,22.72,33.919,22.821,33.818,22.818z M34.437,77.696
	c0.083,0.367-0.178,0.807-0.521,0.748C33.785,78.034,34.143,77.685,34.437,77.696z M33.884,62.724
	c0.319-0.016,0.741-0.244,1.041-0.063C34.879,62.927,33.979,63.026,33.884,62.724z M33.949,47.036
	c-0.02-0.246,0.271-0.469,0.422-0.652C34.233,46.604,34.112,46.841,33.949,47.036z M34.014,63.831
	c-0.021-0.109,0.055-0.119,0.13-0.131C34.245,63.79,34.104,63.933,34.014,63.831z M34.111,22.525
	c0.026-0.104,0.027-0.232,0.195-0.195C34.296,22.45,34.216,22.5,34.111,22.525z M34.242,53.968c0.273-0.029,0.38,0.248,0.26,0.424
	C34.253,54.428,34.14,54.177,34.242,53.968z M34.339,21.029c0.343,0.113,0.535,0.993,0.325,1.432
	c-0.225-0.058-0.214-0.349-0.357-0.487C34.354,21.582,34.065,21.266,34.339,21.029z M34.274,66.076
	c-0.031-0.12,0.004-0.257,0.195-0.228C34.899,65.913,34.392,66.519,34.274,66.076z M34.339,57.55
	c0.009-0.059,0.057-0.074,0.131-0.066c0,0.033,0,0.066,0,0.099C34.401,57.595,34.383,57.56,34.339,57.55z M34.567,22.591
	c0.255,0.174,0.046,0.514,0.032,0.782C34.333,23.206,34.581,22.772,34.567,22.591z M34.828,53.708
	c0.114,0.052,0.115,0.236,0.031,0.326C34.534,54.12,34.523,53.655,34.828,53.708z M34.6,33.56c-0.01-0.085,0.068-0.084,0.13-0.097
	C34.763,33.572,34.685,33.569,34.6,33.56z M34.729,68.192c-0.189-0.438,0.623-0.463,0.586-0.065
	C35.292,68.388,34.835,68.433,34.729,68.192z M35.186,67.347c-0.349-0.281-0.422-0.947,0.099-0.943
	C35.902,66.405,35.61,67.207,35.186,67.347z M35.153,69.625c-0.104-0.315,0.036-0.476,0.195-0.522
	c0.602-0.17,0.607,0.823,0.032,0.75C35.242,69.835,35.205,69.784,35.153,69.625z M35.121,10.743
	c0.132-0.366-0.128-1.125,0.162-1.334C35.284,9.781,35.294,10.438,35.121,10.743z M35.153,46.287
	c0.217-0.392,0.453-0.763,0.717-1.106c-0.173,0.394-0.444,0.685-0.586,1.106C35.194,46.283,35.218,46.341,35.153,46.287z
	 M35.414,68.616c0.151,0.072,0.093,0.301-0.131,0.26C35.18,68.771,35.235,68.608,35.414,68.616z M37.399,52.406
	c-0.149,0.534-0.48,0.829-0.943,0.976c-0.333-0.035-0.632-0.105-0.848-0.26c-0.052-0.225-0.229-0.271-0.293-0.423
	c-0.248-0.604,0.224-1.347,0.814-1.433c0.543-0.078,0.949,0.227,1.204,0.684c-0.023,0.074-0.029,0.167-0.065,0.229
	C37.299,52.267,37.368,52.317,37.399,52.406z M35.381,17.317c-0.066-0.1-0.047-0.393,0.13-0.357
	C35.538,17.15,35.414,17.188,35.381,17.317z M35.414,55.106c-0.011-0.053,0.029-0.056,0.031-0.098
	c0.306,0.053,0.685,0.032,0.879,0.196C36.012,55.183,35.584,55.272,35.414,55.106z M35.576,33.788
	c0.19,0.069,0.357,0.444,0.454,0.717c-0.137-0.035-0.138-0.155-0.26-0.131C35.972,34.216,35.572,34.049,35.576,33.788z
	 M35.642,47.198c0.093-0.199,0.19-0.396,0.293-0.586c0.059,0.188-0.146,0.395-0.163,0.617
	C35.703,47.244,35.686,47.208,35.642,47.198z M35.837,64.124c0.396-0.15,0.452,0.391,0.162,0.424
	C35.788,64.569,35.66,64.312,35.837,64.124z M36.194,74.735c0.228,0.107-0.004,0.426-0.163,0.455
	C35.725,75.118,36.029,74.629,36.194,74.735z M35.999,9.343c0.168,0.123-0.038,0.352-0.032,0.521
	C35.879,9.799,35.929,9.451,35.999,9.343z M36.031,5.958c-0.01-0.086,0.047-0.106,0.132-0.097c0.009,0.084-0.014,0.139-0.099,0.13
	C36.07,5.963,36.052,5.96,36.031,5.958z M36.228,67.606c0.207-0.035,0.294,0.053,0.26,0.261
	C36.33,68.112,36.019,67.802,36.228,67.606z M36.423,71.675c0.072-0.297,0.256-0.48,0.586-0.521c0,0.033,0.039,0.027,0.064,0.035
	C37.314,71.558,36.809,71.832,36.423,71.675z M36.521,76.231c0.078,0.014,0.07-0.06,0.162-0.031
	c0.016,0.027,0.029,0.057,0.065,0.064c0.002,0.121-0.054,0.186-0.131,0.229C36.471,76.497,36.471,76.335,36.521,76.231z
	 M36.813,10.58c0.107-0.141-0.028-0.527,0.195-0.554C36.993,10.26,36.976,10.493,36.813,10.58z M37.854,72.618
	c0.036,0.383-0.188,0.586-0.455,0.555C36.814,73.104,37.385,72.194,37.854,72.618z M37.269,66.955
	c-0.16-0.228,0.3-0.382,0.293-0.097C37.558,67.001,37.36,67.085,37.269,66.955z M38.147,70.96c0.151,1.313-1.41-0.201-0.618-0.359
	C37.795,70.549,37.939,70.797,38.147,70.96z M38.343,67.867c-0.034,0.323-0.438,0.549-0.781,0.358
	C37.232,67.683,38.142,67.452,38.343,67.867z M37.595,67.151c-0.15-0.447,0.54-0.414,0.586-0.131
	C38.228,67.317,37.714,67.507,37.595,67.151z M37.691,25.163c0.151-0.168,0.398-0.401,0.651-0.358
	C38.268,25.065,37.939,25.073,37.691,25.163z M37.888,25.715c-0.011-0.075,0.005-0.124,0.032-0.162
	c0.102-0.036,0.086-0.016,0.162,0.033C38.051,25.663,38.025,25.746,37.888,25.715z M37.92,72.521c0.043,0,0.086,0,0.13,0
	C38.075,72.647,37.895,72.647,37.92,72.521z M38.082,68.42c0.203-0.044,0.197,0.256,0.099,0.326
	C37.945,68.819,37.926,68.453,38.082,68.42z M38.147,28.221c0.003-0.149,0.331-0.107,0.423-0.064
	C38.532,28.281,38.286,28.197,38.147,28.221z M38.245,24.577c0.262-0.096,0.397-0.317,0.716-0.358
	C38.882,24.497,38.504,24.478,38.245,24.577z M38.375,74.539c0.055,0,0.108,0,0.163,0c0.045,0.042,0.031,0.142,0.031,0.228
	C38.414,74.881,38.269,74.681,38.375,74.539z M38.44,69.332c0.388-0.108,0.388,0.499,0,0.39
	C38.323,69.629,38.323,69.425,38.44,69.332z M38.44,56.54c0.122-0.014,0.168,0.148,0.099,0.229
	C38.342,56.815,38.289,56.571,38.44,56.54z M38.44,64.677c0.009-0.057,0.057-0.074,0.13-0.064c0,0.033,0,0.064,0,0.099
	C38.503,64.724,38.484,64.687,38.44,64.677z M38.474,58.558c0.105-0.018,0.15,0.023,0.229,0.033
	c0.021,0.119-0.022,0.174-0.065,0.229C38.452,58.867,38.394,58.67,38.474,58.558z M38.474,15.169
	c-0.07-0.03-0.045-0.237,0.064-0.195C38.554,15.077,38.492,15.102,38.474,15.169z M38.57,26.562c0.006-0.105,0.074-0.143,0.196-0.13
	C38.787,26.562,38.68,26.562,38.57,26.562z M38.799,64.646c0.118-0.021,0.173,0.021,0.228,0.064c0.021,0.143-0.059,0.18-0.13,0.229
	C38.733,64.913,38.719,64.759,38.799,64.646z M38.896,11.166c0.174-0.023,0.207,0.096,0.325,0.131
	c0.138-0.047,0.069-0.301,0.229-0.326c0.08,0.121-0.075,0.236-0.098,0.358c0.075,0.333,0.5,0.467,0.391,0.879
	c-0.56-0.015-0.599-0.553-0.911-0.813C38.81,11.275,38.854,11.22,38.896,11.166z M39.06,72.032c-0.045-0.172,0.207-0.578,0.521-0.52
	C40.281,71.64,39.243,72.743,39.06,72.032z M39.515,74.865c-0.01-0.085,0.045-0.107,0.131-0.099c0,0.032,0,0.064,0,0.099
	C39.602,74.865,39.558,74.865,39.515,74.865z M39.97,77.827c-0.006-0.242-0.045-1.201,0.424-1.105
	c0.438,0.088,0.082,1.072,0.032,1.365c-0.051,0.298,0.011,0.621-0.195,0.65C39.894,78.789,39.979,78.157,39.97,77.827z
	 M40.719,77.958c0.191,0.016,0.134,0.291,0,0.324C40.539,78.306,40.539,77.935,40.719,77.958z M41.24,73.921
	c0.515-0.082,0.476,0.635,0.13,0.586C41.184,74.481,41.1,74.128,41.24,73.921z M41.207,76.037c-0.016-0.103,0.069-0.104,0.163-0.099
	C41.406,76.071,41.27,76.101,41.207,76.037z M41.207,74.897c-0.012-0.119,0.036-0.182,0.064-0.26
	c0.095,0.004,0.213-0.019,0.262,0.03c0.063,0.067,0.023,0.217,0,0.293C41.406,75.032,41.284,74.968,41.207,74.897z M41.5,73.204
	c0.324-0.031,0.475,0.111,0.456,0.424C41.576,73.921,41.123,73.553,41.5,73.204z M41.337,22.591c0.059-0.089,0.143-0.19,0.261-0.13
	C41.581,22.574,41.45,22.573,41.337,22.591z M42.574,76.753c-0.011-0.086,0.045-0.105,0.131-0.098
	c0.013,0.068-0.022,0.086-0.033,0.131C42.646,76.769,42.619,76.751,42.574,76.753z M42.867,61.032
	c-0.193-0.385,0.392-0.44,0.454-0.196C43.382,61.065,43.017,61.329,42.867,61.032z M42.965,73.399
	c0.155,0.018,0.193,0.194,0.098,0.293C42.838,73.761,42.807,73.435,42.965,73.399z M43.291,74.052
	C42.775,74.224,43.266,73.493,43.291,74.052L43.291,74.052z M43.192,76.623c0.038,0.005,0.059-0.007,0.065-0.033
	c0.419,0.004,0.53,0.626,0.391,0.976C43.271,77.506,43.039,77.005,43.192,76.623z M43.226,51.593
	c-0.01-0.053,0.03-0.057,0.032-0.099c0.086-0.009,0.107,0.046,0.098,0.13C43.287,51.64,43.269,51.603,43.226,51.593z M43.258,39.549
	c0.434,0.045,0.756,0.479,1.009,0.813C43.913,40.108,43.46,39.954,43.258,39.549z M43.421,44.009c0-0.033,0-0.064,0-0.099
	c0.355,0.015,0.979,0.04,1.139,0.358C44.185,44.306,43.747,44.129,43.421,44.009z M43.941,43.031
	c0.016,0.188-0.079,0.269-0.163,0.293C43.28,43.474,43.49,42.714,43.941,43.031z M43.485,22.201c-0.05-0.092,0.189-0.32,0.293-0.261
	C43.788,22.133,43.573,22.104,43.485,22.201z M43.583,23.242c0.098-0.117,0.263-0.313,0.456-0.228
	C44.006,23.209,43.738,23.169,43.583,23.242z M43.714,61.097c-0.01-0.086,0.044-0.106,0.13-0.098c0,0.043,0,0.086,0,0.13
	C43.775,61.144,43.758,61.106,43.714,61.097z M44.104,52.276c0.105-0.021,0.15,0.021,0.229,0.031c0.018,0.131,0.018,0.099,0,0.229
	C44.127,52.679,43.927,52.417,44.104,52.276z M44.169,45.603c0.018-0.047,0.049-0.082,0.064-0.129
	c0.133-0.014,0.188,0.051,0.163,0.194C44.278,45.735,44.251,45.653,44.169,45.603z M44.364,76.524
	c-0.023-0.123,0.04-0.154,0.033-0.26c0.063-0.017,0.141,0.1,0.13-0.033C44.628,76.356,44.488,76.519,44.364,76.524z M44.364,74.052
	c-0.009-0.086,0.013-0.141,0.099-0.131c0.024,0.028,0.035,0.073,0.032,0.131C44.451,74.052,44.407,74.052,44.364,74.052z
	 M44.527,60.315C45.152,60.511,44.069,60.856,44.527,60.315L44.527,60.315z M44.397,48.501c0.13-0.168,0.438-0.088,0.521,0.064
	C44.993,49.04,44.275,48.956,44.397,48.501z M44.56,74.702c-0.043-0.193,0.233-0.156,0.163,0.033
	C44.646,74.745,44.598,74.729,44.56,74.702z M44.755,75.451c-0.008-0.107,0.18-0.147,0.163,0
	C44.875,75.492,44.798,75.492,44.755,75.451z M45.113,23.242c0.078-0.134,0.296-0.282,0.488-0.196
	C45.54,23.214,45.28,23.182,45.113,23.242z M45.179,61.455c-0.028-0.104,0.051-0.101,0.064-0.163
	c0.171-0.004,0.123,0.139,0.293,0.064c0.042,0.043,0.042,0.121,0,0.164c0.064,0,0.13,0,0.194,0
	c-0.096-0.142-0.066-0.482,0.163-0.521c0.446-0.077,0.439,0.734-0.064,0.586c0.373,0.654-0.875,0.389-0.325-0.033
	C45.472,61.377,45.29,61.552,45.179,61.455z M45.602,77.665c-0.354,0.156-0.509-0.422-0.194-0.457
	C45.588,77.188,45.688,77.435,45.602,77.665z M45.438,76.655c0.05,0.05,0.059,0.223-0.064,0.195
	C45.323,76.802,45.315,76.627,45.438,76.655z M45.536,45.636c-0.01-0.053,0.029-0.057,0.031-0.098
	c0.146-0.004,0.244,0.039,0.262,0.163C45.699,45.776,45.636,45.679,45.536,45.636z M45.602,52.406
	c-0.01-0.052,0.03-0.056,0.032-0.099c0.312,0.135,0.399,0.588,0.879,0.457c0.232,0.223,0.01,0.627-0.358,0.553
	C46.153,52.831,45.95,52.546,45.602,52.406z M45.699,24.674c0.314-0.205,0.722-0.319,1.172-0.39
	C46.665,24.598,46.068,24.522,45.699,24.674z M45.765,74.962c-0.077-0.232-0.015-0.496,0.194-0.52
	c0.371-0.043,0.511,0.73,0.131,0.781C45.969,75.239,45.834,75.175,45.765,74.962z M46.382,60.999
	c0.105-0.02,0.152,0.021,0.229,0.033c0.017,0.123-0.01,0.207-0.064,0.26C46.311,61.362,46.259,61.097,46.382,60.999z M46.351,51.526
	c0-0.043,0-0.086,0-0.129c0.042,0,0.086,0,0.13,0C46.495,51.499,46.452,51.543,46.351,51.526z M46.545,51.526
	c0.137,0.156,0.262,0.326,0.326,0.554c-0.116-0.14-0.22,0.101-0.456,0.032C46.295,51.831,46.647,51.718,46.545,51.526z
	 M46.415,62.138c-0.03-0.215,0.073-0.293,0.228-0.326c0.17,0.037,0.179,0.39,0,0.424C46.52,62.249,46.49,62.172,46.415,62.138z
	 M46.545,34.992c0.243,0.023,0.48,0.207,0.488,0.358C46.829,35.273,46.619,35.2,46.545,34.992z M46.838,26.366
	c0.016,0.124-0.009,0.208-0.064,0.261C46.362,26.686,46.607,26.127,46.838,26.366z M46.675,31.282
	c0.563-0.122,1.038,0.279,0.912,0.847C47.052,32.356,46.409,31.751,46.675,31.282z M46.675,74.669
	c0.054,0.01,0.057-0.029,0.099-0.031c0.17,0.006,0.199,0.221,0.099,0.324C46.653,75.026,46.59,74.804,46.675,74.669z M47.164,73.466
	c-0.001,0.119-0.094,0.146-0.131,0.229c0.03,0.175,0.145,0.269,0.162,0.455c-0.043,0.045-0.185,0.045-0.229,0
	c0.054-0.246-0.019-0.51-0.162-0.651C46.837,73.315,47.108,73.296,47.164,73.466z M46.806,55.792
	c0.154-0.148,0.62-0.063,0.618,0.162C47.207,56.022,46.973,55.878,46.806,55.792z M46.871,62.431
	c-0.003-0.133-0.008-0.267,0.031-0.356c0.137-0.099,0.417-0.206,0.555-0.032C47.544,62.403,47.15,62.653,46.871,62.431z
	 M47.424,51.722c0.014,0.23-0.07,0.369-0.195,0.393C46.777,52.194,46.933,51.392,47.424,51.722z M47.164,75.418
	c0.438-0.003,0.675,0.363,0.586,0.782C47.269,76.505,46.85,75.808,47.164,75.418z M47.131,74.767
	c0.042-0.045,0.142-0.031,0.229-0.031c0.069,0.087,0.069,0.173,0,0.261C47.176,75.026,47.121,74.929,47.131,74.767z M47.196,58.753
	c0.103-0.016,0.146,0.028,0.131,0.131C47.236,58.985,47.095,58.843,47.196,58.753z M47.261,60.739
	c0.523-0.437,0.872,0.451,0.358,0.553C47.346,61.347,47.131,61.104,47.261,60.739z M47.587,60.218
	C47.487,60.952,46.909,59.882,47.587,60.218L47.587,60.218z M47.261,57.646c0.115-0.148,0.362-0.095,0.424,0.065
	C47.702,58.032,47.162,58.065,47.261,57.646z M47.619,59.534c0.031,0.045,0.087,0.064,0.131,0.098
	C47.771,60.306,46.979,59.583,47.619,59.534z M49.734,27.766c0.27,0.956-0.264,1.832-1.203,1.792
	c-0.461-0.022-0.957-0.451-1.073-0.814C47.009,27.346,48.967,26.43,49.734,27.766z M47.521,74.052
	c0.318,0.176,0.459,0.686,0.392,1.139C47.443,75.188,47.321,74.406,47.521,74.052z M47.652,62.235
	c0.057,0.053,0.08,0.137,0.064,0.262C47.506,62.647,47.312,62.188,47.652,62.235z M47.489,61.683
	c0.101-0.045,0.146-0.016,0.229,0.032C47.776,62.045,47.316,61.94,47.489,61.683z M47.945,56.769
	c0.027,0.223-0.079,0.312-0.261,0.324C47.39,56.94,47.724,56.485,47.945,56.769z M47.847,72.718c0.055,0,0.109,0,0.163,0
	c-0.013,0.078,0.06,0.07,0.033,0.162C47.917,72.981,47.766,72.833,47.847,72.718z M48.043,57.938
	c-0.018,0.104,0.1,0.074,0.063,0.196c-0.029,0.022-0.049,0.06-0.063,0.097C47.781,58.306,47.781,57.866,48.043,57.938z
	 M48.205,14.193c0.205,0.344,0.115,1.156-0.229,1.269C47.771,15.11,47.813,14.322,48.205,14.193z M47.978,72.194
	C48.66,72.294,47.689,72.78,47.978,72.194L47.978,72.194z M47.978,73.628c0.078-0.201,0.476-0.158,0.392,0.162
	C48.235,73.961,47.973,73.862,47.978,73.628z M48.628,71.968c0.105,0.088,0.12,0.271,0.033,0.393
	C48.211,72.595,48.124,71.856,48.628,71.968z M48.368,74.539c-0.047-0.771,1.117,0.206,0.391,0.358
	C48.496,74.952,48.38,74.747,48.368,74.539z M49.084,71.317c0.002,0.1-0.029,0.166-0.099,0.195
	C48.719,71.498,48.87,71.163,49.084,71.317z M48.889,22.33c0.159-0.105,0.412-0.275,0.618-0.228
	C49.47,22.347,49.07,22.23,48.889,22.33z M49.052,23.502c0.064-0.065,0.148-0.111,0.293-0.098
	C49.365,23.556,49.167,23.486,49.052,23.502z M49.638,70.765c0.119-0.021,0.173,0.021,0.229,0.064
	c0.016,0.102-0.048,0.127-0.065,0.195C49.573,71.073,49.535,70.868,49.638,70.765z M49.604,68.127
	c0.266-0.114,0.599-0.161,0.781-0.358c0.697,0.227-0.029,0.736-0.098,1.142c-0.08-0.029,0.01-0.228-0.064-0.263
	c-0.234-0.006-0.389,0.068-0.554,0.131C49.627,68.576,49.514,68.368,49.604,68.127z M49.572,66.761
	c0.013-0.188,0.186-0.111,0.262-0.033C49.811,66.849,49.631,66.847,49.572,66.761z M49.703,73.335
	c0.601-0.277,0.737,0.662,0.323,0.717C49.725,74.091,49.537,73.64,49.703,73.335z M49.638,71.644
	c-0.015-0.067,0.022-0.086,0.032-0.131c0.067-0.015,0.087,0.022,0.13,0.033C49.814,71.646,49.73,71.649,49.638,71.644z
	 M49.734,69.526c0.11-0.008,0.169,0.121,0.1,0.195c0.286-0.039,0.209-0.44,0.391-0.587c0.053,0.078,0.063,0.197,0.097,0.293
	c-0.009,0.134-0.141,0.142-0.193,0.229c0.191,0.223,0.179,0.689-0.131,0.717c-0.271,0.021-0.422-0.355-0.162-0.586
	C49.691,69.776,49.542,69.597,49.734,69.526z M49.897,32.747c0.009-0.127,0.328-0.063,0.392-0.033
	C50.21,32.844,50.069,32.709,49.897,32.747z M50.224,71.284c-0.016-0.102,0.028-0.145,0.13-0.131
	c0.01,0.076-0.005,0.125-0.033,0.164C50.295,71.3,50.269,71.283,50.224,71.284z M50.288,72.554c0.055,0,0.107,0,0.163,0
	c0.053,0.107-0.009,0.125,0,0.262C50.26,72.851,50.231,72.673,50.288,72.554z M50.419,30.858c0.189-0.371,0.936-0.166,1.041,0.261
	c0.079,0.318-0.11,1.013-0.293,1.073C50.699,32.349,50.251,31.377,50.419,30.858z M50.646,69.267
	c-0.421-0.152-0.195-0.91,0.163-0.717C51.045,68.679,50.912,69.2,50.646,69.267z M50.517,19.043c0.47-0.289,0.98-0.538,1.464-0.813
	c0.119-0.054,0.232-0.253,0.424-0.13c-0.041,0.133-0.146,0.201-0.325,0.196C51.541,18.528,51.076,18.832,50.517,19.043z
	 M51.037,77.894c0.097,0.01,0.165,0.051,0.229,0.097c-0.004,0.094,0.019,0.214-0.033,0.262
	C50.988,78.294,50.919,78.022,51.037,77.894z M51.037,67.606c0.178-0.025,0.254,0.05,0.229,0.228
	C51.078,67.966,50.876,67.742,51.037,67.606z M51.363,26.301c0.233-0.005,0.312,0.145,0.325,0.358
	C51.443,26.803,51.195,26.478,51.363,26.301z M51.363,74.767c0.281-0.326,0.898-0.002,0.88,0.393c-0.032,0-0.025,0.04-0.033,0.064
	C51.844,75.421,51.314,75.088,51.363,74.767z M51.525,68.192c0.578-0.1,0.484,0.535,0.131,0.521
	C51.426,68.702,51.287,68.374,51.525,68.192z M51.428,76.753c-0.01-0.076,0.005-0.125,0.032-0.163
	c0.116-0.007,0.171,0.048,0.163,0.163C51.563,76.815,51.504,76.763,51.428,76.753z M51.46,19.401c0.044,0,0.087,0,0.131,0
	C51.616,19.527,51.435,19.527,51.46,19.401z M51.818,67.183c0.132,0.023,0.187-0.029,0.293-0.031
	c-0.03,0.119-0.125,0.179-0.161,0.293C51.787,67.433,51.715,67.29,51.818,67.183z M52.111,72.099
	c0.189-0.117,0.452-0.002,0.424,0.195C52.492,72.579,51.932,72.499,52.111,72.099z M52.73,31.412
	c-0.67,0.133-0.762-1.147-0.326-1.205C52.844,30.149,53.037,31.084,52.73,31.412z M52.307,27.18c0.18-0.017,0.271,0.054,0.26,0.228
	C52.47,27.528,52.245,27.413,52.307,27.18z M52.664,72.749c-0.002,0.102,0.104,0.094,0.065,0.229
	C52.494,73.228,52.216,72.666,52.664,72.749z M52.534,73.302c0.335-0.145,0.854,0.158,0.716,0.586
	C52.848,74.12,52.312,73.705,52.534,73.302z M52.664,19.174c0.039,0.005,0.059-0.008,0.065-0.033
	c0.388,0.104,0.703,0.716,0.488,1.106C52.855,20.216,52.625,19.606,52.664,19.174z M53.152,69.364
	c0.093,0.201,0.095,0.629,0.066,0.846C52.986,70.062,53.185,69.67,53.152,69.364z M53.088,42.642
	c0.104-0.059,0.042-0.283,0.229-0.26C53.298,42.526,53.189,42.579,53.088,42.642z M53.869,74.442
	c0.341,0.02,0.323,0.674,0.098,0.813C53.563,75.239,53.641,74.588,53.869,74.442z M53.902,68.974c0.31-0.16,0.687,0.008,0.684,0.358
	c-0.038,0.005-0.027,0.06-0.032,0.097C54.244,69.649,53.762,69.381,53.902,68.974z M53.934,70.274
	c-0.147-0.412,0.428-0.482,0.521-0.193C54.554,70.386,54.066,70.646,53.934,70.274z M54.098,72.944
	c0.075-0.012,0.121-0.053,0.228-0.033c0.057,0.053,0.08,0.138,0.065,0.262C54.246,73.347,53.941,73.167,54.098,72.944z
	 M54.357,52.569c-0.001-0.066-0.089-0.041-0.064-0.131c0.191,0,0.027-0.162,0.194-0.162c0.068,0.227,0.019,0.424-0.194,0.455
	C54.196,52.683,54.24,52.569,54.357,52.569z M54.26,54.164c0.035-0.179,0.154-0.019,0.26,0C54.476,54.247,54.32,54.171,54.26,54.164
	z M54.292,50.615c0.042-0.106,0.048-0.067,0.064-0.163c0.025,0.02,0.054,0.035,0.099,0.033c0,0.055,0,0.106,0,0.162
	C54.38,50.659,54.33,50.644,54.292,50.615z M54.357,52.112c0.027-0.115,0.08-0.004,0.195-0.032
	C54.561,52.235,54.432,52.138,54.357,52.112z M54.422,50.974c0.002-0.106,0.056-0.162,0.033-0.293
	c0.191,0.01,0.008,0.193,0.098,0.293C54.509,50.974,54.466,50.974,54.422,50.974z M54.487,71.772
	c0.038,0.006,0.059-0.008,0.065-0.033C55.184,71.866,54.279,72.442,54.487,71.772z M54.52,70.048c0.044,0,0.088,0,0.131,0
	c0.01,0.086-0.012,0.141-0.098,0.13C54.527,70.147,54.518,70.104,54.52,70.048z M54.553,51.331c0.014-0.139,0.06-0.094,0.064-0.193
	c0.026,0.016,0.054,0.033,0.098,0.031c-0.022,0.1-0.022,0.063,0,0.162C54.661,51.331,54.607,51.331,54.553,51.331z M54.91,25.944
	c0.415,0.168,0.214,1.023-0.131,1.106C54.496,26.8,54.625,26.091,54.91,25.944z M54.684,73.726c0.01-0.121,0.107-0.132,0.194-0.098
	c0.011,0.076-0.005,0.125-0.032,0.162C54.742,73.819,54.745,73.739,54.684,73.726z M55.529,51.331
	c-0.056,0.014-0.062-0.025-0.064-0.064c-0.591,0.527-0.978-0.594-0.358-0.617c0.204-0.008,0.444,0.179,0.358,0.521
	C55.426,51.265,55.62,51.29,55.529,51.331z M55.073,72.194c0.136-0.017,0.221,0.02,0.293,0.065c0,0.064,0,0.132,0,0.195
	C55.221,72.688,54.848,72.411,55.073,72.194z M55.139,68.876c0.075,0.033,0.066,0.148,0.064,0.26
	C55.147,69.084,55.133,68.989,55.139,68.876z M55.203,69.299c0.122,0.03,0.073,0.229,0.131,0.326
	c0.103,0.017,0.074-0.101,0.194-0.065c-0.065,0.201,0.037,0.416-0.131,0.618C55.092,70.004,55.33,69.628,55.203,69.299z
	 M55.27,67.313c0.275-0.107,0.545,0.057,0.684,0.194c-0.051,0.267-0.278,0.353-0.325,0.618C55.26,68.086,55.114,67.692,55.27,67.313
	z M55.464,76.59c0.331-0.028,0.563,0.321,0.423,0.554C55.603,77.121,55.375,76.879,55.464,76.59z M55.984,66.955
	c0.027,0.069,0.084,0.11,0.065,0.228c-0.028,0.017-0.058,0.029-0.065,0.065C55.713,67.308,55.668,66.877,55.984,66.955z
	 M55.855,51.624c0.065-0.15,0.394-0.275,0.554-0.13C56.369,51.731,56.049,51.698,55.855,51.624z M55.984,70.112
	c-0.015-0.102,0.07-0.104,0.164-0.098C56.184,70.147,56.047,70.177,55.984,70.112z M56.408,70.796
	c0.381,0.016,0.962,0.098,1.302,0.262C57.746,71.804,55.937,71.356,56.408,70.796z M56.473,24.022
	c0.215-0.017,0.313,0.178,0.229,0.358C56.436,24.556,56.251,24.146,56.473,24.022z M57.417,51.722
	C56.837,51.614,57.684,51.218,57.417,51.722L57.417,51.722z M57.808,71.675c-0.094,0.707-0.685-0.195-0.163-0.129
	C57.699,71.552,57.752,71.603,57.808,71.675z M57.417,65.979c0.185,0.237,0.386,0.459,0.486,0.78
	C57.676,66.565,57.537,66.282,57.417,65.979z M57.482,70.178c0.082,0.104,0.135,0.234,0.162,0.39
	C57.563,70.466,57.51,70.334,57.482,70.178z M57.645,70.601c0.187,0.394,0.456,0.867,0.521,1.271
	C57.893,71.548,57.803,71.04,57.645,70.601z M58.035,69.56c0.198-0.094,0.373,0.041,0.325,0.293
	c-0.044,0.032-0.099,0.056-0.131,0.099C57.996,69.978,57.897,69.715,58.035,69.56z M58.752,25.586
	c0.174,0.092,0.067,0.392-0.033,0.487c-0.058,0.431-0.187,0.963-0.521,1.009c-0.037,0.005-0.058-0.007-0.064-0.032
	c-0.146-0.433,0.186-0.782,0.326-1.075C58.531,25.825,58.486,25.541,58.752,25.586z M58.23,65.783
	c-0.244-0.569,0.764,0.004,0.229,0.13C58.275,65.957,58.3,65.944,58.23,65.783z M58.459,53.122
	c-0.299-0.031-0.231-0.406-0.033-0.423C58.646,52.681,58.711,53.034,58.459,53.122z M58.621,66.24
	c0.229-0.111,0.504,0.229,0.324,0.422C58.722,66.638,58.592,66.519,58.621,66.24z M58.686,64.515
	c0.285,0.034,0.436,0.735,0.196,0.879C58.693,65.229,58.621,64.829,58.686,64.515z M58.882,72.781c0-0.044,0-0.085,0-0.13
	c0.075-0.01,0.124,0.006,0.163,0.033C59.059,72.786,58.975,72.788,58.882,72.781z M58.882,63.669
	c0.243,0.006,0.591,0.189,0.716,0.422C59.321,63.987,59.083,63.847,58.882,63.669z M59.012,50.159
	c-0.032-0.197-0.006-0.506,0.229-0.52c0.386-0.025,0.425,0.887,0.031,0.879C59.144,50.517,59.055,50.423,59.012,50.159z
	 M59.143,72.132c-0.01-0.086,0.045-0.107,0.129-0.1c0,0.045,0,0.088,0,0.131C59.204,72.177,59.186,72.142,59.143,72.132z
	 M59.271,49.478c0.009-0.059,0.058-0.074,0.131-0.065c0,0.032,0,0.065,0,0.098C59.334,49.522,59.316,49.487,59.271,49.478z
	 M59.662,69.364c0.373,0.072,0.657,0.23,0.651,0.684C59.949,70.228,59.52,69.796,59.662,69.364z M59.631,58.622
	c0.07-0.048,0.184-0.055,0.293-0.064C59.887,58.642,59.748,58.622,59.631,58.622z M60.021,58.524
	c0.103-0.092,0.301-0.088,0.488-0.099C60.393,58.507,60.225,58.534,60.021,58.524z M60.184,65.427
	c0.282,0.098,0.623,0.135,0.619,0.521C60.471,66.158,60.158,65.675,60.184,65.427z M60.314,69.429
	c0.131-0.021,0.187,0.031,0.162,0.163C60.345,69.614,60.291,69.562,60.314,69.429z M60.443,71.839
	c0.216-0.043,0.355,0.13,0.262,0.293C60.502,72.161,60.375,71.974,60.443,71.839z M60.51,49.997c0.217,0.036,0.355,0.41,0.194,0.618
	C60.445,50.62,60.368,50.187,60.51,49.997z M60.607,58.427c0.579-0.125,1.259-0.324,1.789-0.391
	c-0.199,0.219-0.585,0.166-0.91,0.229C61.18,58.325,60.867,58.478,60.607,58.427z M60.834,25.976
	c0.375,0.076,0.555,0.874,0.194,1.106C60.729,26.979,60.5,26.208,60.834,25.976z M60.704,60.056c0-0.033,0-0.064,0-0.099
	c0.171-0.007,0.324,0.001,0.456,0.033C61.135,60.226,60.866,60.056,60.704,60.056z M60.77,59.339
	c0.354-0.08,0.991-0.158,1.529-0.162C61.83,59.271,61.323,59.329,60.77,59.339z M60.803,58.136c0.436-0.227,1.166-0.328,1.627-0.424
	C62.012,57.978,61.319,57.969,60.803,58.136z M61.29,74.019c0.075-0.01,0.126,0.006,0.163,0.033
	c-0.013,0.076-0.021,0.152-0.132,0.129C61.295,74.144,61.279,74.094,61.29,74.019z M61.355,60.478
	c0.48-0.057,1.406,0.004,2.019,0.033c-0.231,0.192-0.617,0.024-0.943,0C62.061,60.483,61.682,60.54,61.355,60.478z M61.389,60.642
	c0.021-0.103,0.086-0.043,0.162-0.033c0.01,0.086-0.045,0.107-0.131,0.099C61.426,60.669,61.413,60.647,61.389,60.642z
	 M61.42,51.494c-0.013-0.111,0.01-0.187,0.131-0.163C61.628,51.412,61.564,51.536,61.42,51.494z M62.885,67.509
	c-0.025,0.028-0.035,0.073-0.031,0.131c-0.305,0.162-1.234,0.211-1.205-0.195C61.682,66.989,62.793,67.194,62.885,67.509z
	 M62.104,10.646c-0.318-0.012-0.246-1.185,0.033-1.205C62.476,9.417,62.47,10.577,62.104,10.646z M62.332,47.979
	c0.13-0.131,0.297-0.226,0.293-0.488c0.201-0.04,0.268,0.058,0.356,0.131c-0.073,0.385,0.24,0.668,0.033,0.977
	C62.635,48.544,62.486,48.259,62.332,47.979z M62.396,28.027c0.088-0.119,0.231-0.182,0.424-0.196
	c0.014,0.078-0.06,0.07-0.032,0.163C62.647,27.886,62.547,28.042,62.396,28.027z M62.592,64.841
	c0.182-0.029,0.274,0.029,0.326,0.129C62.859,65.149,62.533,65.063,62.592,64.841z M62.657,59.144
	c0.347-0.035,0.976-0.328,1.172-0.098C63.48,59.12,63.029,59.093,62.657,59.144z M63.341,27.571c0.006,0.255-0.354,0.145-0.487,0.26
	C63,27.729,63.109,27.589,63.341,27.571z M62.918,50.714c0.289,0.154,0.487,0.711,0.455,0.977
	C63.158,51.448,62.879,51.103,62.918,50.714z M62.982,48.761c0.146-0.175,0.287,0.15,0.392,0.227
	c-0.082-0.454,0.045-0.94-0.064-1.334c0.599-0.078,0.463,0.834,0.586,1.334c0.172,0.166,0.351,0.324,0.422,0.587
	c-0.269-0.022-0.32-0.265-0.486-0.39c-0.167,0.019-0.337,0.031-0.456,0.097C63.234,49.117,63.057,48.99,62.982,48.761z
	 M63.341,66.792c0.269-0.037,0.243,0.441,0.064,0.489C63.191,67.237,63.169,66.894,63.341,66.792z M63.373,56.214
	c0.343-0.006,0.203,0.471,0.487,0.521c-0.124,0.136-0.135,0.385-0.26,0.521C63.199,57.241,63.146,56.46,63.373,56.214z
	 M63.373,59.697c0.168-0.261,0.865-0.194,0.977,0.065C64.216,60.14,63.51,59.905,63.373,59.697z M63.438,33.43
	c0.082-0.136,0.402-0.033,0.586-0.065c0.248-0.486,0.951-0.454,1.172,0.033c-0.356,0.03-0.469,0.333-0.779,0.293
	c-0.15-0.021-0.198-0.212-0.358-0.261C63.807,33.354,63.695,33.502,63.438,33.43z M63.829,1.5c0.069,0.074,0.013,0.202-0.1,0.194
	C63.671,1.63,63.684,1.455,63.829,1.5z M63.73,71.415c0.155-0.096,0.362-0.002,0.293,0.229
	C63.879,71.706,63.701,71.624,63.73,71.415z M63.764,58.103c-0.156-0.338,0.479-0.367,0.424-0.033
	C64.153,58.272,63.856,58.302,63.764,58.103z M63.992,69.071c0.313-0.01,0.494,0.111,0.487,0.424
	C64.22,69.565,63.969,69.388,63.992,69.071z M64.057,67.964c0.021-0.135,0.202-0.015,0.098,0.066
	C64.111,68.019,64.104,67.972,64.057,67.964z M64.154,48.599c0.322,0.014,0.431,0.242,0.521,0.488
	C64.438,49.104,64.209,48.868,64.154,48.599z M64.383,67.216c0.197-0.109,0.373,0.053,0.391,0.229
	C64.593,67.537,64.354,67.438,64.383,67.216z M64.48,56.604c0.06-0.07,0.118-0.142,0.261-0.131
	C64.78,56.646,64.606,56.601,64.48,56.604z M64.513,47.815c0.429-0.045,0.716,0.326,0.847,0.686
	C65.051,48.423,64.599,48.224,64.513,47.815z M64.676,46.481c0.443-0.094,0.859,0.115,0.977,0.457c-0.031,0-0.024,0.039-0.032,0.063
	C65.184,47.097,64.645,46.856,64.676,46.481z M65.326,24.121c0.001,0.032,0.04,0.024,0.064,0.032
	c-0.001,0.087,0.013,0.187-0.032,0.228C65.12,24.451,65.097,24.082,65.326,24.121z M65.294,35.025
	c0.024-0.035,0.198-0.035,0.163-0.196c0.102-0.015,0.104,0.07,0.098,0.163c0.154-0.013,0.266,0.017,0.357,0.065
	C66.233,35.127,65.368,35.057,65.294,35.025z M65.262,34.536c0.264-0.055,1.033-0.06,1.301,0.097
	C66.154,34.705,65.768,34.478,65.262,34.536z M65.326,60.576c-0.025-0.126,0.155-0.126,0.131,0
	C65.414,60.576,65.37,60.576,65.326,60.576z M65.717,32.812c-0.004,0.092-0.136,0.059-0.229,0.065
	C65.536,32.826,65.616,32.808,65.717,32.812z M65.587,25.944c0.104-0.29,0.407-0.684,0.716-0.554
	C66.164,25.674,65.981,25.915,65.587,25.944z M65.717,63.862c0.208-0.033,0.295,0.053,0.261,0.262
	c-0.025,0.027-0.089,0.02-0.098,0.064C65.65,64.247,65.592,63.967,65.717,63.862z M65.717,61.845
	c0.271,0.178,0.483,0.578,0.488,0.912C65.898,62.616,65.685,62.216,65.717,61.845z M65.814,48.013
	c0.336,0.008,0.474,0.387,0.358,0.65C65.787,48.728,65.672,48.269,65.814,48.013z M66.141,75.093
	c0.014,0.102-0.029,0.145-0.131,0.131C65.922,75.118,66.043,75.026,66.141,75.093z M66.303,44.073
	c0.109,0.045,0.121,0.24,0.064,0.357c-0.064,0-0.13,0-0.194,0C66.078,44.302,66.13,44.104,66.303,44.073z M66.141,33.983
	c0.269,0.018,1.144-0.224,1.398,0C67.168,34.012,66.609,33.964,66.141,33.983z M66.205,44.854c0.252-0.047,0.348,0.166,0.261,0.356
	C66.22,45.358,66.037,45.028,66.205,44.854z M66.889,33.625c0.521,0.175,1.354,0.108,1.985,0.162
	c0.113,0.01,0.311-0.014,0.357,0.131c-0.655,0.006-1.582-0.177-2.474-0.131c-0.206,0.01-0.419,0.14-0.618,0
	c-0.022-0.408,0.045-0.949,0.455-0.911C66.854,32.9,66.98,33.246,66.889,33.625z M67.345,33.756c-0.109-0.012-0.47-0.079-0.456,0
	C67.066,33.71,67.227,33.851,67.345,33.756z M67.148,57.224c0.103,0.385-0.644,0.465-0.846,0.195
	C66.35,57.099,66.924,56.987,67.148,57.224z M66.596,60.022c0.228-0.043,0.316,0.135,0.195,0.261
	C66.551,60.339,66.48,60.142,66.596,60.022z M66.629,35.708c0-0.032,0-0.065,0-0.097c0.084-0.009,0.14,0.012,0.13,0.097
	C66.715,35.708,66.672,35.708,66.629,35.708z M66.66,45.115c-0.011-0.075,0.006-0.126,0.032-0.163c0.033,0,0.065,0,0.099,0
	C66.872,45.052,66.77,45.192,66.66,45.115z M66.693,36.718c0.043-0.087,0.07-0.191,0.229-0.163c0.037,0.038,0.037,0.115,0.031,0.194
	C66.857,36.794,66.752,36.791,66.693,36.718z M66.727,56.183c-0.005-0.082-0.006-0.158,0.032-0.197
	c0.198-0.028,0.216,0.14,0.13,0.229C66.797,56.241,66.805,56.169,66.727,56.183z M66.727,44.822c0-0.044,0-0.087,0-0.13
	c0.103-0.017,0.146,0.026,0.129,0.13C66.813,44.822,66.77,44.822,66.727,44.822z M66.922,48.794
	c0.438-0.143,0.733,0.675,0.423,0.977C66.986,49.694,66.749,49.185,66.922,48.794z M67.345,65.882c-0.12,0.09-0.312,0.08-0.392,0
	C66.688,65.612,67.355,65.409,67.345,65.882z M67.052,62.888c0.001,0.031,0.04,0.025,0.064,0.032c0.014,0.12-0.025,0.19-0.131,0.194
	C66.896,63.054,66.904,62.883,67.052,62.888z M67.084,35.253c-0.207-0.327,0.174-0.732,0.455-0.684
	C68.039,34.654,67.648,35.631,67.084,35.253z M67.409,60.836c-0.167,0.134-0.349,0.042-0.357-0.097
	C67.031,60.465,67.551,60.478,67.409,60.836z M67.052,20.182c0.029-0.056,0.072-0.125,0.13-0.065
	C67.197,20.219,67.1,20.233,67.052,20.182z M67.148,45.312c0.082-0.006,0.103,0.049,0.164,0.063
	c0.025,0.112-0.037,0.138-0.065,0.196C67.09,45.579,67.039,45.388,67.148,45.312z M67.084,17.838
	c0.015-0.04,0.042-0.066,0.098-0.064c0.129,0.219,0.293,0.401,0.488,0.553C67.458,18.31,67.289,17.97,67.084,17.838z M67.215,72.651
	c0-0.043,0-0.086,0-0.131c0.095-0.028,0.1-0.028,0.194,0c0,0.045,0,0.088,0,0.131C67.367,72.696,67.256,72.696,67.215,72.651z
	 M67.475,43.39c0.271-0.031,0.365,0.113,0.392,0.326C67.656,43.933,67.242,43.616,67.475,43.39z M67.409,24.284
	c-0.01-0.053,0.029-0.057,0.031-0.097c0.296,0.023,0.506-0.039,0.781-0.034C68.094,24.209,67.66,24.24,67.409,24.284z
	 M67.963,36.945c0.315,0.188,0.108,0.708-0.195,0.749C67.355,37.571,67.322,36.838,67.963,36.945z M67.702,42.901
	c0.256-0.021,0.433,0.188,0.324,0.423C67.758,43.36,67.619,43.112,67.702,42.901z M67.734,73.074
	c0.226-0.104,0.489,0.175,0.425,0.358C67.939,73.515,67.731,73.323,67.734,73.074z M67.898,18.62
	c0.064,0.054,0.15,0.087,0.162,0.196C67.995,18.761,67.91,18.727,67.898,18.62z M67.963,20.93c-0.01-0.052,0.03-0.055,0.032-0.097
	c0.271,0.184,0.669,0.243,0.813,0.554C68.66,21.198,68.269,21.062,67.963,20.93z M68.354,45.571
	c0.264-0.025,0.321,0.221,0.423,0.423c0.087,0.173,0.281,0.423,0.262,0.586c-0.071,0.554-1.104,0.078-1.011-0.489
	C68.166,45.946,68.203,45.704,68.354,45.571z M68.223,65.427c0.359,0.07,0.524,0.797,0.293,1.139
	C68.146,66.47,67.994,65.722,68.223,65.427z M68.223,43.292c0.103-0.016,0.104,0.068,0.098,0.162
	c-0.058-0.004-0.067,0.04-0.129,0.033C68.146,43.446,68.135,43.294,68.223,43.292z M68.158,22.005
	c-0.011-0.052,0.03-0.056,0.032-0.097c0.254,0.104,0.532,0.183,0.781,0.293C68.719,22.247,68.45,22.028,68.158,22.005z
	 M69.102,39.483c-0.463,0.449-1.069-0.37-0.455-0.456C68.896,38.994,69.107,39.165,69.102,39.483z M68.387,42.675
	c-0.029-0.113,0.211-0.02,0.194,0.064C68.486,42.747,68.481,42.665,68.387,42.675z M68.939,31.737
	c0.017,0.567-0.648,0.488-0.553,0.097C68.419,31.701,68.752,31.531,68.939,31.737z M68.549,43.617
	c0.379-0.185,0.684,0.335,0.424,0.586C68.633,44.218,68.445,43.94,68.549,43.617z M68.68,67.183
	c-0.028-0.176,0.216-0.148,0.162,0.033C68.766,67.228,68.717,67.211,68.68,67.183z M68.973,60.12
	c-0.015-0.068,0.021-0.086,0.032-0.13c0.025,0.017,0.052,0.032,0.097,0.032C69.112,60.108,69.057,60.13,68.973,60.12z M69.46,27.441
	c-0.105,0.187-0.271,0.316-0.392,0.489C68.934,27.746,69.312,27.552,69.46,27.441z M69.232,59.763c0.205,0,0.396,0.299,0.455,0.553
	C69.4,60.267,69.385,59.946,69.232,59.763z M69.852,19.108c0.272-0.024,0.377,0.12,0.422,0.325c-0.07-0.026-0.081-0.114-0.129-0.163
	c-0.277,0.395-0.356,0.989-0.879,1.139C69.212,19.857,69.551,19.417,69.852,19.108z M69.395,45.798
	c0.29-0.142,0.537,0.16,0.457,0.391C69.568,46.313,69.371,46.087,69.395,45.798z M69.428,17.937c0.21,0.072,0.185,0.379,0.325,0.521
	C69.639,18.419,69.447,18.177,69.428,17.937z M69.525,20.377c0.212,0.092,0.358,0.25,0.554,0.358
	c-0.031,0.124-0.162-0.156-0.162,0.032C69.74,20.684,69.598,20.565,69.525,20.377z M69.818,30.696
	c-0.217-0.532,0.543-0.66,0.651-0.293C70.582,30.789,70.008,31.165,69.818,30.696z M70.111,27.571
	c0.168-0.136,0.23-0.377,0.488-0.423C70.534,27.386,70.316,27.473,70.111,27.571z M70.209,49.087
	c0.296-0.016,0.487,0.264,0.649,0.455c0.138,0.161,0.453,0.398,0.326,0.617c-0.453-0.188-0.714-0.564-0.977-0.943
	C70.209,49.173,70.209,49.13,70.209,49.087z M70.339,58.362c0.324-0.35,0.928-0.022,1.398,0.033c0.275,0.03,0.594-0.093,0.718,0.162
	c-0.063,0.286-0.351,0.094-0.586,0.063c-0.506-0.06-1.229,0.069-1.53-0.195C70.339,58.406,70.339,58.385,70.339,58.362z
	 M70.502,45.115c0.438,0.093,0.728,0.335,1.009,0.586c0.159,0.036,0.327,0.063,0.325,0.26c-0.184,0.108-0.469-0.11-0.685-0.228
	c-0.268-0.146-0.524-0.33-0.683-0.521C70.46,45.16,70.5,45.156,70.502,45.115z M70.566,43.78c0.282-0.035,0.486,0.129,0.685,0.229
	c0.182,0.09,0.462,0.111,0.554,0.324c-0.372,0.059-0.905-0.258-1.237-0.455C70.566,43.847,70.566,43.813,70.566,43.78z
	 M70.762,77.665c0.191-0.08,0.467,0.141,0.391,0.324C70.957,78.067,70.747,77.903,70.762,77.665z M70.762,59.632
	c0.137-0.109,0.506-0.16,0.553,0.065C71.256,59.928,70.762,59.901,70.762,59.632z M70.99,76.59c0.271,0.044,0.45,0.179,0.521,0.425
	C71.304,77.031,71.004,76.872,70.99,76.59z M71.381,66.044c0.229,0,0.334,0.314,0.195,0.489
	C71.266,66.579,71.218,66.196,71.381,66.044z M71.771,15.854c0.136,0.198,0.011,0.615-0.293,0.584
	C71.369,16.161,71.539,15.896,71.771,15.854z M71.607,18.002c0.15,0.093,0.047,0.271,0.1,0.487
	C71.671,18.342,71.519,18.169,71.607,18.002z M71.706,54.424c0.08-0.062,0.159-0.122,0.293-0.13
	C72.004,54.44,71.805,54.382,71.706,54.424z M71.706,18.522c0.052,0.068,0.066,0.171,0.064,0.293
	C71.688,18.78,71.707,18.64,71.706,18.522z M72.553,28.58c0.056,0.295-0.123,0.355-0.098,0.619c-0.078-0.188-0.48-0.262-0.392-0.554
	C72.107,28.501,72.369,28.433,72.553,28.58z M72.324,48.045c0.141,0.001,0.34,0.224,0.424,0.39
	C72.52,48.392,72.525,48.115,72.324,48.045z M72.422,30.207c-0.229-0.177,0.039-0.752,0.033-0.911
	c0.035,0.235,0.037,0.505,0.031,0.782C72.398,30.053,72.511,30.231,72.422,30.207z M72.748,18.002
	c0.182,0.22,0.014,0.675,0.031,1.041C72.711,18.739,72.729,18.319,72.748,18.002z M74.343,73.66
	c-0.278,0.14-1.331-0.005-1.335-0.358c-0.002-0.23,0.313-0.249,0.521-0.228C73.848,73.108,74.357,73.327,74.343,73.66z
	 M73.432,74.832c0.077-0.054,0.357-0.033,0.357,0.099C73.618,74.95,73.551,74.864,73.432,74.832z M73.464,47.426
	c0.398-0.093,0.677,0.212,0.716,0.587C73.811,48.188,73.494,47.798,73.464,47.426z M73.725,53.871
	c0.062-0.06,0.131-0.106,0.26-0.099C73.986,53.894,73.84,53.867,73.725,53.871z M73.757,30.272c0.114,0.152,0.189,0.498,0.163,0.685
	C73.734,30.859,73.855,30.455,73.757,30.272z M73.92,19.141c-0.021-0.129-0.062-0.558,0.13-0.586
	C74.059,18.801,73.944,18.927,73.92,19.141z M74.146,61.422c0.033-0.128,0.238-0.045,0.293,0
	C74.429,61.528,74.162,61.508,74.146,61.422z M74.18,47.229c0.184-0.162,0.648,0.104,0.619,0.262
	C74.506,47.489,74.388,47.315,74.18,47.229z M75.025,65.589c0.248,0.083,0.523,0.43,0.425,0.651
	C75.27,66.08,74.973,65.874,75.025,65.589z M75.449,2.541c0.104,0.22-0.004,0.488-0.195,0.521
	C75.034,2.938,75.193,2.497,75.449,2.541z M75.318,73.074c0.031-0.077,0.059-0.159,0.195-0.13c0.038,0.039,0.037,0.115,0.033,0.195
	C75.428,73.161,75.373,73.118,75.318,73.074z M76.23,39.94c-0.138,0.307-0.838,0.209-0.879-0.131
	C75.549,39.607,76.18,39.622,76.23,39.94z M75.71,20.963c-0.05-0.052,0.022-0.257,0.162-0.228
	C75.924,20.917,75.732,20.856,75.71,20.963z M75.872,51.624c0.053-0.09,0.122,0.07,0.194,0.066
	C76,51.798,75.931,51.635,75.872,51.624z M76.264,27.051c0-0.033,0-0.065,0-0.099c0.067-0.014,0.086,0.023,0.129,0.033
	C76.385,27.042,76.338,27.06,76.264,27.051z M77.271,37.205c0.03,0.444-0.739,0.431-0.879,0.164
	C76.492,37.091,77.013,37.046,77.271,37.205z M78.184,30.923c-0.107,0.221-0.359,0.673-0.586,0.879
	c-0.128,0.117-0.379,0.261-0.554,0.163c-0.007-0.026-0.032-0.032-0.032-0.065c0.012-0.289,0.181-0.514,0.391-0.683
	C77.669,31.001,78.047,30.687,78.184,30.923z M77.239,24.349c0.081-0.1,0.198,0.039,0.325,0
	C77.506,24.427,77.311,24.367,77.239,24.349z M77.825,22.428c0.104-0.146,0.345-0.155,0.554-0.196
	C78.316,22.45,78.019,22.302,77.825,22.428z M77.891,53.937c0.067,0.019,0.104,0.068,0.162,0.099
	C78.006,54.12,77.875,54.021,77.891,53.937z M78.965,31.575c-0.01,0.386-0.507,0.541-0.814,0.423
	C78.139,31.603,78.629,31.408,78.965,31.575z M78.606,23.86c-0.008-0.153,0.151-0.581,0.392-0.487
	C78.936,23.603,78.723,23.684,78.606,23.86z M78.932,57.712c0.187-0.072,0.57,0.207,0.651,0.455
	C79.293,58.214,79.144,57.851,78.932,57.712z M80.266,53.772c0.176-0.043,0.473,0.069,0.521,0.262
	C80.549,54.135,80.426,53.858,80.266,53.772z M81.829,44.302c-0.077,0.195-0.379,0.119-0.488,0
	c-0.432-0.035-0.735-0.197-1.009-0.392c0.002-0.046,0.006-0.093-0.033-0.097c0.012-0.043,0.058-0.053,0.064-0.099
	C80.946,43.597,81.648,43.944,81.829,44.302z M80.526,54.782c0.192,0.09,0.427,0.139,0.586,0.261
	c-0.059,0.126-0.101,0.269-0.261,0.293C80.723,55.171,80.309,54.998,80.526,54.782z M81.145,13.314
	c0.086-0.009,0.142,0.011,0.131,0.097c-0.024,0.018-0.053,0.035-0.098,0.033C81.152,13.416,81.143,13.371,81.145,13.314z
	 M81.504,77.272c0.317-0.012,0.67,0.219,0.813,0.488C82.011,77.784,81.518,77.544,81.504,77.272z M81.927,58.591
	c0.281-0.063,0.647,0.209,0.521,0.553C82.098,59.136,81.963,58.911,81.927,58.591z M83.033,78.413c0-0.033,0-0.064,0-0.098
	c0.093-0.008,0.178-0.006,0.161,0.098C83.134,78.476,83.114,78.417,83.033,78.413z M84.205,74.604
	c0.348-0.084,0.811,0.129,0.748,0.455C84.668,75.065,84.209,74.987,84.205,74.604z M84.628,60.349
	c0.418-0.02,0.796,0.433,0.781,0.846C84.973,61.088,84.662,60.858,84.628,60.349z M87.037,34.342
	c0.043,0.237-0.107,0.283-0.262,0.325c-0.225,0.261-0.594,0.66-1.009,0.521c0.002-0.396,0.416-0.53,0.748-0.716
	C86.693,34.373,86.873,34.156,87.037,34.342z M86.613,9.604c0.212,0.321-0.348,0.944-0.747,1.042
	C85.598,10.176,86.287,9.691,86.613,9.604z M86.061,42.153c0.232-0.021,0.737-0.203,0.716,0.162
	C86.513,42.411,86.27,42.22,86.061,42.153z M87.883,75.19c0.215-0.039,0.17,0.176,0.228,0.293
	C87.957,75.464,87.895,75.353,87.883,75.19z M88.534,49.802c0.105-0.15,0.48-0.033,0.486,0.131
	C88.82,50.048,88.68,49.851,88.534,49.802z M89.186,76.687c0.035,0.104,0.015,0.088-0.033,0.164
	C88.994,76.858,88.99,76.646,89.186,76.687z M89.674,18.522c0.08,0.239-0.128,0.453-0.392,0.456
	C89.184,18.72,89.418,18.533,89.674,18.522z M89.413,45.636c-0.48-0.421,1.08-0.959,1.172-0.619
	C90.648,45.256,89.813,45.72,89.413,45.636z M89.445,63.407c0-0.043,0-0.088,0-0.131c0.076-0.01,0.125,0.006,0.162,0.033
	C89.623,63.411,89.538,63.414,89.445,63.407z M90.129,66.662c0.092-0.037,0.139-0.007,0.228,0.032c0,0.065,0,0.131,0,0.195
	C90.221,67.052,89.997,66.849,90.129,66.662z M91.139,74.376c0.212,0.186,0.012,0.561-0.196,0.521
	C90.678,74.849,90.705,74.299,91.139,74.376z M90.813,63.147c-0.022-0.158,0.049-0.357,0.261-0.392c0.562-0.089,0.479,0.738,0,0.685
	C90.982,63.431,90.849,63.399,90.813,63.147z M91.139,41.274c-0.029-0.125,0.146-0.115,0.195-0.064
	C91.361,41.332,91.188,41.325,91.139,41.274z M91.496,69.006c-0.012-0.075,0.006-0.126,0.031-0.163
	c0.083,0.004,0.126,0.049,0.131,0.131C91.621,69.001,91.571,69.017,91.496,69.006z M92.277,69.981
	c0.15,0.203,0.031,0.467-0.131,0.488C91.768,70.522,91.75,69.774,92.277,69.981z M92.506,49.054
	c-0.058,0.166-0.285,0.338-0.457,0.195C92.037,49.034,92.331,48.978,92.506,49.054z M92.277,73.888
	c-0.182-0.156-0.067-0.408,0.099-0.422C92.664,73.44,92.725,73.952,92.277,73.888z M92.863,12.696
	c-0.016-0.103,0.028-0.146,0.131-0.13c0,0.043,0,0.087,0,0.13C92.949,12.696,92.906,12.696,92.863,12.696z M92.928,29.199
	c0.071-0.113,0.365-0.302,0.457-0.099C93.434,29.335,93.008,29.291,92.928,29.199z M93.156,49.509
	c-0.11-0.214,0.354-0.178,0.195,0.064C93.229,49.591,93.203,49.614,93.156,49.509z M93.385,45.278
	c0.172-0.098,0.371,0.072,0.26,0.26C93.455,45.664,93.254,45.464,93.385,45.278z M93.611,68.453c0.044,0,0.088,0,0.132,0
	C93.768,68.579,93.586,68.579,93.611,68.453z M93.709,53.545c0.035-0.063,0.271-0.056,0.229,0.065
	C93.818,53.632,93.813,53.54,93.709,53.545z M93.938,67.183c0.011,0.076-0.006,0.125-0.033,0.164
	C93.746,67.354,93.73,67.13,93.938,67.183z M93.84,71.253c-0.014-0.068,0.021-0.088,0.032-0.131c0.102-0.016,0.146,0.027,0.13,0.131
	C93.902,71.274,93.939,71.274,93.84,71.253z M94.555,43.39c0.328-0.086,0.356,0.299,0.196,0.424
	C94.424,43.899,94.396,43.515,94.555,43.39z M94.881,74.832C94.913,75.161,94.58,74.828,94.881,74.832L94.881,74.832z
	 M94.914,61.325c0.35-0.237,0.887,0.27,0.52,0.553C95.051,61.923,94.805,61.665,94.914,61.325z M95.532,50.519
	c-0.117,0.034-0.051,0.254-0.195,0.26C94.646,50.731,95.311,49.926,95.532,50.519z M95.793,27.148
	c0.246,0.142,0.092,0.557-0.099,0.586C95.283,27.796,95.39,27.146,95.793,27.148z M95.891,61.39
	c-0.011-0.281,0.541-0.193,0.521,0.065C96.393,61.685,95.902,61.731,95.891,61.39z M96.997,61.552c0-0.043,0-0.086,0-0.13
	c0.044,0,0.087,0,0.13,0C97.143,61.524,97.099,61.567,96.997,61.552z M98.07,59.274c0.012,0.156-0.097,0.252-0.161,0.26
	C97.554,59.581,97.771,59.022,98.07,59.274z M98.266,41.21c-0.021-0.113,0.115-0.118,0.164-0.066
	C98.451,41.257,98.314,41.261,98.266,41.21z M98.332,78.12c0.209-0.133,1.024-0.289,1.008,0.229
	C99.117,78.614,98.365,78.521,98.332,78.12z M98.396,53.285c-0.016-0.103,0.07-0.104,0.162-0.099c0,0.043,0,0.088,0,0.131
	C98.483,53.327,98.435,53.312,98.396,53.285z M99.275,58.103c-0.022-0.112,0.113-0.117,0.162-0.065
	C99.414,58.104,99.34,58.17,99.275,58.103z M2.344,15.789c-0.051-0.138,0.167-0.26,0.195-0.423
	C2.542,15.446,2.479,15.737,2.344,15.789z M3.418,13.738c-0.121-0.191,0.262-0.629,0.193-0.554
	C3.563,13.383,3.539,13.61,3.418,13.738z M3.711,13.021c-0.088-0.164,0.136-0.297,0.13-0.489
	C3.906,12.676,3.749,12.874,3.711,13.021z M5.338,4.461c-0.154-0.12,0.08,0.014,0.098,0.098C5.792,4.547,6.09,4.474,6.185,4.2
	c0.479,0.17,0.769-0.255,1.106-0.293C7.716,3.86,8.137,4.105,8.658,3.94c0.09,0.062,0.173,0.13,0.228,0.228
	c0.486-0.067,0.881,0.191,1.042,0.553c0.58,0.109,0.922,0.774,1.171,1.336c0.163,0.366,0.471,0.674,1.01,0.487
	c0.3,0.118,0.882,0.036,1.172,0.065c-0.379,0.1-1.17,0.161-1.596,0.032c-0.091,0.157-0.282,0.338-0.293,0.554
	c-0.01,0.199,0.182,0.389,0.196,0.618c0.025,0.411-0.139,0.703-0.393,0.978c0.159,0.487-0.108,0.821-0.423,0.943
	c-0.097,0.272-0.208,0.53-0.356,0.75c0.019,0.37,0.083,0.499,0.097,0.879c-0.282-0.194-0.383-0.572-0.65-0.782
	c-0.285,0.17-0.592,0.32-0.847,0.521c-0.023,0.524,0.252,0.747,0.293,1.204c-0.146-0.209-0.218-0.498-0.325-0.748
	c-0.22,0.115-0.322-0.03-0.521-0.098c0.004,0.325,0.261,0.56,0.162,0.879c-0.123-0.267-0.241-0.54-0.423-0.748
	c-0.039-0.137,0.137-0.059,0.163-0.131c-0.074-0.325-0.425-0.079-0.619-0.065c-0.77,0.054-1.207-0.414-1.854-0.456
	c-0.518-0.701-1.224-1.17-1.465-2.148C4.364,8.54,4.471,8.226,4.394,7.943C4.347,7.773,4.145,7.725,4.101,7.52
	c-0.086,0-0.173,0-0.26,0C3.967,7.409,4.23,7.432,4.362,7.326c0.029-0.132-0.109-0.245-0.098-0.392
	C4.278,6.771,4.565,6.525,4.59,6.219c0.009-0.124-0.063-0.232-0.033-0.326C4.609,5.721,4.819,5.68,4.85,5.568
	C4.848,5.063,5.621,5.034,5.338,4.461z M9.211,8.692C9.222,8.59,8.896,8.531,8.886,8.66C9.034,8.647,9.113,8.606,9.211,8.692z
	 M10.123,8.302c0.319,0.008,0.021-0.064-0.1-0.033C9.785,8.333,9.416,8.727,9.407,8.854C9.669,8.693,9.797,8.399,10.123,8.302z
	 M9.602,9.376c0.109-0.107-0.089-0.389-0.193-0.489C9.457,9.064,9.501,9.249,9.602,9.376z M5.143,4.168
	c0.088,0.009,0.06,0.137,0.13,0.163C5.252,4.384,5.063,4.222,5.143,4.168z M7.03,3.321C7.175,3.309,7.412,3.482,7.453,3.68
	C7.219,3.654,7.221,3.392,7.03,3.321z M9.049,12.338c0.041,0.057,0.109,0.084,0.097,0.195C9.006,12.503,9.097,12.43,9.049,12.338z
	 M9.635,13.217C9.69,13.42,9.882,13.49,9.862,13.77C9.669,13.703,9.694,13.417,9.635,13.217z M10.578,11.524
	c0.016-0.055,0.17,0.022,0.131,0.13C10.598,11.678,10.655,11.535,10.578,11.524z M11.327,11.101
	c-0.063-0.031,0.227,0.109,0.228,0.228C11.382,11.349,11.427,11.152,11.327,11.101z M12.531,2.866
	c0.059-0.104,0.353-0.294,0.587-0.456c0.103-0.07,0.199-0.203,0.324-0.162C13.221,2.536,12.823,2.648,12.531,2.866z M13.052,2.15
	c0.134-0.16,0.298-0.289,0.488-0.391C13.444,1.956,13.228,2.033,13.052,2.15z M13.345,2.085c0.168-0.202,0.458-0.28,0.651-0.457
	C13.921,1.796,13.596,1.985,13.345,2.085z M14.289,8.627c-0.23,0.16-0.647-0.268-0.912,0c0.01-0.039,0.132-0.123,0.033-0.163
	C13.596,8.496,14.049,8.541,14.289,8.627z M16.437,1.173c0.161,0.079,0.182,0.298,0.293,0.423c0.152-0.227,0.367-0.036,0.619-0.065
	c0.234-0.027,0.407-0.25,0.651-0.293c0.508-0.087,1.052-0.112,1.269,0.163c0.925,0.118,1.253,0.831,1.758,1.368
	C21.301,2.7,21.38,2.93,21.581,2.834c-0.022-0.103-0.087-0.042-0.163-0.033c0.13-0.155,0.192-0.106,0.325,0
	c-0.239,0.162-0.622,0.18-0.554,0.651c0.107,0.132,0.303,0.175,0.325,0.39c-0.052,0.08-0.152,0.109-0.195,0.196
	c0.102,0.177,0.231,0.365,0.131,0.651c0.332,0.189,1.142,0.405,1.204-0.065c0.025-0.197-0.18-0.33-0.162-0.554
	c0.012-0.152,0.132-0.163,0.162-0.357c0.005-0.146-0.079-0.202-0.099-0.326c0.2-0.179,0.368-0.392,0.393-0.749
	c0.277-0.09,0.427-0.311,0.521-0.586c0.192,0.019,0.348,0,0.293-0.228c0.299,0.028,0.479-0.063,0.586-0.228
	c-0.036-0.178-0.103-0.297,0-0.456c-0.055,0.417,0.381,0.646,0.651,0.358c0.03-0.353-0.154-0.751,0.031-0.944
	C24.97,0.81,25.172,1.13,25.063,1.433c0.46,0.105,0.879,0.309,1.367,0.293c0.079,0.319,0.382,0.55,0.684,0.293
	c-0.223,0.302,0.078,0.798,0.392,0.879c-0.128,0.38,0.023,0.495,0.261,0.65c0.009,0.173-0.145,0.182-0.163,0.326
	c-0.004,0.265,0.229,0.293,0.357,0.424c-0.027,0.33-0.387,0.329-0.455,0.618c0.146,0.118,0.365,0.021,0.488-0.065
	c-0.023-0.031-0.06-0.049-0.099-0.065c0.063-0.036,0.114-0.081,0.195-0.097c-0.104,0.161-0.102,0.314,0,0.489
	c0.135,0.028,0.267,0.058,0.391,0.097c-0.004,0.231,0.204,0.252,0.325,0.358c-0.067,0.338,0.154,0.388,0.261,0.553
	c-0.008,0.289-0.067,0.498,0.099,0.651c-0.153,0.44-0.271,1.081-0.651,1.334C28.44,8.195,28.348,8.2,28.286,8.236
	c-0.056,0.238-0.382,0.379-0.685,0.261c-0.141,0.01-0.113,0.189-0.261,0.194c-0.199-0.148-0.38-0.189-0.684-0.097
	c-0.095-0.047-0.112-0.169-0.194-0.228c-0.1,0-0.196,0-0.293,0c-0.074-0.155-0.175-0.282-0.358-0.326c0-0.076,0-0.151,0-0.228
	c-0.036-0.137-0.269-0.078-0.357-0.163c0.09-0.357-0.162-0.586,0.064-0.879c-0.272-0.192-0.647-0.07-0.977-0.162
	c-0.249-0.069-0.448-0.247-0.814-0.131c0.015-0.347-0.247-0.627-0.553-0.455c-0.052,0.084,0.063,0.236-0.098,0.261
	c0.185-0.541-0.246-0.638-0.293-1.14c-0.074-0.1-0.205-0.142-0.293-0.228c-0.352,0.229-0.894-0.238-1.14,0
	c0.148,0.231,0.354,0.407,0.684,0.456c-0.271-0.014-0.598-0.079-0.813,0.163c-0.017,0.18,0.288,0.038,0.325,0.164
	c-0.085,0.104-0.141-0.096-0.293-0.033c-0.087,0.187-0.084,0.307-0.064,0.554c-0.211,0.125-0.414,0.259-0.456,0.553
	c-0.212,0.136-0.419,0.275-0.553,0.489c0.021,0.25,0.176,0.366,0.229,0.586c-0.114,0.019-0.107-0.153-0.195-0.065
	c-0.136,0.007,0.037,0.121-0.065,0.162c-0.126-0.079-0.098-0.314-0.26-0.358c-0.279,0.176-0.805,0.107-0.813,0.554
	c-0.656,0.078-1.132-0.186-1.692-0.163c-0.07,0.092-0.042,0.283-0.13,0.357c-0.292,0.006-0.299-0.201-0.261-0.456
	C16.598,7.73,16.137,7.452,15.949,7c-0.269-0.039-0.382,0.075-0.521,0.164c0.037-0.143,0.032-0.335,0.033-0.586
	c-0.054-0.143-0.289-0.103-0.358-0.228c-0.019-0.186,0.138-0.391,0.065-0.717c-0.036-0.164-0.207-0.234-0.229-0.391
	c-0.019-0.137,0.138-0.332,0.13-0.521c-0.008-0.193-0.146-0.32-0.13-0.455c0.021-0.176,0.277-0.311,0.293-0.521
	c0.021-0.298-0.146-0.558,0.261-0.651c0.201-0.307,0.314-0.704,0.554-0.977c-0.127-0.156-0.356-0.208-0.424-0.423
	c0.327,0.065,0.307,0.477,0.619,0.489c0.203,0.006,0.464-0.285,0.454-0.521C16.689,1.446,16.452,1.378,16.437,1.173z M26.723,4.135
	c0.099-0.021,0.089-0.148,0.163-0.194c-0.083,0.035-0.156-0.099-0.195,0C26.779,3.94,26.768,4.094,26.723,4.135z M15.2,1.466
	c0.207,0.141,0.463,0.404,0.554,0.554C15.576,1.828,15.326,1.709,15.2,1.466z M20.245,0.815c-0.037-0.008,0.004-0.211,0.098-0.194
	C20.371,0.746,20.264,0.736,20.245,0.815z M20.538,7.619c0.121,0,0.268,0.252,0.325,0.422C20.69,7.965,20.725,7.681,20.538,7.619z
	 M20.733,36.619c0.264-0.291,0.639-0.468,0.978-0.683C21.374,36.133,21.082,36.542,20.733,36.619z M21.353,37.108
	c0.207-0.292,0.569-0.429,0.847-0.651C21.931,36.688,21.706,36.963,21.353,37.108z M21.515,9.897
	c0.035-0.051,0.237,0.13,0.131,0.228C21.561,10.09,21.599,9.932,21.515,9.897z M22.328,0.914c0.128,0.078,0.186,0.228,0.293,0.325
	C22.558,1.226,22.335,1.093,22.328,0.914z M22.654,36.164c-0.021-0.097,0.214-0.22,0.325-0.293
	C22.9,35.999,22.752,36.055,22.654,36.164z M22.687,39.647c0.286-0.594,0.909-0.85,1.204-1.433c0.185-0.077,0.256-0.265,0.392-0.39
	c-0.154,0.382-0.542,0.663-0.848,1.008C23.193,39.109,23.004,39.467,22.687,39.647z M22.882,1.5c-0.098,0.021,0.031,0.069,0,0.129
	c-0.065-0.054-0.151-0.087-0.163-0.194c0.125,0.005,0.012-0.027,0.033-0.099c0.097,0.012,0.118,0.099,0.162,0.164
	C22.908,1.535,22.882,1.518,22.882,1.5z M22.752,6.088c-0.033-0.184,0.134-0.169,0.162-0.293
	C22.928,5.833,22.882,6.087,22.752,6.088z M23.11,1.531c0.137-0.038,0.059,0.137,0.131,0.163C23.203,1.76,23.083,1.636,23.11,1.531z
	 M23.175,21.387c0.188,0.019,0.227,0.185,0.391,0.228C23.494,21.608,23.204,21.542,23.175,21.387z M23.305,7.684
	c-0.027-0.126,0.08-0.116,0.098-0.195C23.433,7.489,23.419,7.72,23.305,7.684z M23.793,6.609c-0.041,0.078-0.119,0.12-0.099,0.261
	c-0.1,0.022-0.063,0.022-0.161,0C23.585,6.749,23.692,6.682,23.793,6.609z M23.793,46.646c-0.156-0.254,0.248-0.481,0.293-0.75
	c0.029-0.063,0.108-0.063,0.033,0C24.03,46.165,23.915,46.409,23.793,46.646z M23.761,39.418c0.199-0.407,0.582-0.632,0.813-1.008
	c-0.016,0.192-0.218,0.34-0.357,0.521C24.088,39.095,24.003,39.394,23.761,39.418z M24.64,44.919c-0.084,0,0.095-0.262,0.13-0.357
	C24.833,44.659,24.692,44.83,24.64,44.919z M24.899,9.05c0.018-0.024,0.241,0.018,0.229,0.13C24.978,9.211,25.015,9.055,24.899,9.05
	z M24.998,45.278c0.319,0.048,0.482,0.254,0.748,0.356C25.561,45.582,25.15,45.472,24.998,45.278z M25.128,39.289
	c-0.032-0.184,0.123-0.18,0.163-0.293C25.304,39.032,25.258,39.288,25.128,39.289z M25.844,45.733
	c0.067-0.065,0.211,0.069,0.293,0.098C26.19,45.888,25.92,45.759,25.844,45.733z M26.69,46.157
	c-0.048-0.063,0.245,0.043,0.293,0.097C26.884,46.353,26.787,46.169,26.69,46.157z M29.75,34.113
	c0.061-0.275,0.286-0.386,0.39-0.618C30.075,33.637,29.965,34.014,29.75,34.113z M31.312,44.333
	c0.271-0.236,0.743-0.277,1.074-0.455C32.168,44.021,31.641,44.302,31.312,44.333z M33.103,43.617
	c0.061-0.103,0.212-0.112,0.325-0.163C33.345,43.534,33.236,43.589,33.103,43.617z M36.683,45.538
	c-0.158-0.085,0.009-0.371,0.098-0.423c-0.104-0.155-0.227-0.296-0.423-0.358c-0.004-0.246-0.175-0.324-0.325-0.424
	c-0.146,0.011-0.294,0.066-0.424,0c-0.091-0.093-0.108-0.258-0.098-0.455c-0.195-0.229-0.352-0.494-0.488-0.781
	c-0.171-0.065-0.38-0.096-0.423-0.293c0.029-0.188,0.202-0.231,0.229-0.422c-0.041-0.167-0.247-0.167-0.326-0.293
	c-0.051-0.289,0.134-0.345,0.228-0.488c-0.334-0.248-0.437-0.498,0.033-0.717c-0.146-0.318-0.639-0.295-0.813-0.586
	c-0.037-0.212-0.146-0.354-0.229-0.521c-0.119-0.954,0.495-1.174,0.847-1.659c0.46,0.201,1.172,0.152,1.367,0.618
	c0.396-0.18,1.053-0.682,1.627-0.716c0.223-0.013,0.436,0.1,0.651,0.065c0.104-0.017,0.19-0.095,0.293-0.097
	c0.271-0.008,0.558,0.145,0.813,0.196c0.102,0.318,0.14,0.468,0.424,0.487c0.291,0.021,0.632-0.262,0.618,0.293
	c0.136,0.202,0.393,0.28,0.618,0.392c0.005,0.06,0.021,0.108,0.064,0.129c-0.182,0.511,0.201,0.808,0.489,1.042
	c0.069,0.228-0.109,0.285-0.132,0.457c-0.038,0.316,0.207,0.572,0.195,0.813c-0.01,0.213-0.297,0.371-0.293,0.617
	c0.003,0.185,0.165,0.206,0.163,0.424c-0.051,0.25-0.408,0.12-0.488,0.324c-0.055,0.141,0.115,0.241,0.064,0.424
	c-0.084,0.31-0.907,0.202-0.488,0.781c-0.124,0.243-0.402,0.039-0.586,0.098c-0.217,0.069-0.126,0.279-0.293,0.392
	c-0.22,0.147-0.869-0.168-0.943,0.326c-0.109,0.008-0.264-0.025-0.324,0.03c-0.084,0.06-0.068,0.215-0.099,0.326
	c-0.097,0-0.042-0.154-0.098-0.195c-0.447,0.015-0.733-0.135-0.978-0.325C36.748,44.888,36.784,45.282,36.683,45.538z M35.251,33.04
	c0.147,0.089,0.143,0.334,0.26,0.455C35.418,33.478,35.253,33.254,35.251,33.04z M48.563,56.769c0.333-0.037,0.593-0.146,0.618-0.49
	c-0.229-0.073-0.547-0.196-0.391-0.553c-0.139-0.229-0.392-0.346-0.554-0.553c-0.01-0.188,0.004-0.259-0.099-0.391
	c-0.005-0.168,0.087-0.239,0.229-0.26c0.095,0.094-0.111,0.155,0.031,0.228c0.162-0.034,0.07-0.219,0.229-0.196
	c-0.177-0.242-0.548-0.638-0.26-1.041c0.135-0.005,0.271-0.012,0.324,0.065c-0.014,0.204-0.109,0.323-0.228,0.423
	c-0.003,0.102,0.039,0.155,0.064,0.227c0.139-0.078,0.342-0.092,0.391-0.26c-0.124-0.111-0.031-0.631,0.163-0.65
	c-0.157-0.364-0.013-0.748-0.065-1.106c-0.052-0.345-0.46-0.584-0.716-0.846c-0.444-0.453-0.619-1.037-1.042-1.529
	c0.014-0.078-0.06-0.069-0.032-0.162c-0.231-0.278-0.344-0.676-0.618-0.911c-0.012-0.361-0.038-0.617-0.194-0.781
	c-0.198-0.209-0.328-0.084-0.357-0.293c-0.033-0.229,0.357-0.408,0.324-0.619c-0.031-0.199-0.495-0.24-0.324-0.553
	c0.114-0.113,0.34-0.115,0.455-0.229c-0.038-0.173,0.067-0.323,0-0.423c-0.268-0.097-0.687-0.38-0.358-0.685
	c-0.061-0.255-0.695-0.365-0.293-0.685c0.332-0.045,0.463,0.271,0.781,0.13c0.24-0.245,0.116-0.496,0.261-0.684
	c0.118-0.152,0.287-0.099,0.488-0.195c0.283-0.135,0.477-0.441,0.521-0.813c0.345-0.285,0.712-0.547,1.335-0.554
	c0.234-0.237,0.541-0.321,0.977-0.293c0.03-0.131-0.129-0.151-0.131-0.325c-0.004-0.41,0.619-0.628,0.131-1.043
	c-0.058-0.049-0.179-0.046-0.261-0.097c-0.108-0.067-0.181-0.22-0.293-0.293c-0.229-0.152-0.503-0.14-0.651-0.358
	c0.022-0.606-0.676-0.496-0.976-0.782c-0.248,0.014-0.591,0.022-0.651-0.194c-0.112-0.403,0.409-0.343,0.554-0.685
	c0.064-0.153,0.107-0.551,0.099-0.65c-0.024-0.238-0.357-0.466-0.358-0.685c-0.001-0.172,0.212-0.348,0.195-0.552
	c-0.015-0.179-0.124-0.2-0.229-0.392c-0.023-0.369,0.242-0.736,0.357-1.042c0.092-0.244,0.041-0.477,0.163-0.618
	c0.063-0.075,0.17-0.087,0.26-0.162c0.196-0.164,0.315-0.468,0.488-0.619c0.202-0.174,0.49-0.17,0.684-0.293
	c0.156-0.099,0.256-0.379,0.423-0.422c0.161-0.042,0.368,0.065,0.521,0.032c0.278-0.061,0.395-0.566,0.717-0.552
	c0.236,0.009,0.387,0.407,0.748,0.259c-0.022-0.22-0.172-0.202-0.162-0.39c0.019-0.389,0.658-0.426,0.879-0.13
	c0.433,0.004,1.037-0.14,1.27,0.13c0.122-0.073,0.192-0.198,0.261-0.326c-0.112-0.592-1.152-0.257-1.14-0.976
	c0.048-0.018,0.079-0.051,0.099-0.097c0.59-0.047,1.326,1.045,1.758,0.097c0.133-0.029,0.226-0.1,0.324-0.163
	c0.016-0.146,0.059-0.267,0.065-0.423c0.521-0.25,0.435-1.106,0.977-1.334c0.001,0.032,0.04,0.026,0.065,0.032
	c0.106,0.099,0.025,0.386,0.194,0.423c0.268-0.054,0.205-0.412,0.488-0.456c0.172-0.025,0.297,0.15,0.488,0.131
	c0.155-0.017,0.248-0.276,0.455-0.327c0.19-0.044,0.429,0.123,0.618,0.099c0.248-0.033,0.507-0.417,0.847-0.033
	c0.487-0.063,1.166,0.175,1.528,0.456c0.171,0.132,0.218,0.349,0.392,0.358c0.147,0.008,0.699-0.615,0.749-0.129
	c0.032,0.314-0.329,0.237-0.358,0.456c0.226,0.502,0.963,0.491,1.172,1.008c0.121,0.023,0.141-0.055,0.262-0.032
	c-0.167,0.159-0.329,0.199-0.325,0.423c0.004,0.276,0.401,0.439,0.455,0.683c0.3-0.059,0.571-0.145,0.847-0.228
	c0.093-0.283-0.023-0.33-0.163-0.521c-0.061-0.084-0.072-0.258-0.195-0.228c0.175-0.271,0.041-0.603,0.099-0.879
	c0.022-0.109,0.166-0.202,0.194-0.326c0.024-0.1-0.026-0.219,0-0.293c0.106-0.282,0.438-0.424,0.587-0.65
	c-0.017-0.137,0.018-0.222,0.064-0.293c0.414,0.078,0.846-0.225,1.302-0.164c0.234,0.032,0.396,0.292,0.651,0.196
	c0.06,0.059,0.074,0.165,0.097,0.261c0.121,0.065,0.205-0.033,0.326,0.032c0.037,0.072,0.084,0.133,0.064,0.261
	c0.072,0.079,0.232,0.07,0.325,0.129c-0.085,0.351,0.023,0.52,0.229,0.651c-0.061,0.252-0.081,0.413,0.098,0.554
	c-0.271,0.256,0.024,0.694-0.325,0.879c0.049,0.156,0.074,0.253,0,0.39c-0.098,0.033-0.236,0.024-0.294,0.097
	c-0.047,0.12,0.044,0.208-0.032,0.326c-0.068,0.06-0.238,0.021-0.357,0.032c-0.1,0.064-0.076,0.249-0.162,0.327
	c-0.156,0.024-0.211-0.051-0.358-0.034c-0.105,0.046-0.066,0.237-0.194,0.261c-0.19,0.017-0.164-0.184-0.293-0.228
	c-0.487,0.422-0.63-0.274-1.204-0.229c-0.039-0.103-0.11-0.172-0.131-0.292c-0.354-0.2-0.662,0.026-1.107,0
	c-0.295,0.262,0.131,0.55,0.1,0.846c-0.024,0.221-0.204,0.214-0.262,0.456c0.048,0.106,0.23,0.073,0.293,0.163
	c0.042,0.202-0.015,0.536-0.098,0.716c0.193,0.101,0.462-0.124,0.651-0.032c0.017,0.115-0.028,0.168-0.1,0.195
	c0.202,0.352,0.271,0.836,0.75,0.912c0.182-0.026,0.14-0.274,0.325-0.293c0.284,0.183,0.415,0.517,0.749,0.651
	c0.203-0.028,0.402-0.036,0.553-0.033c-0.274,0.214-0.647-0.069-0.748,0.293c0.081,0.246,0.351,0.205,0.521,0.326
	c0.374,0.266,0.577,0.745,1.042,0.911c-0.05,0.081-0.203,0.058-0.195,0.194c0.109,0.466,0.412,0.965,0.586,1.433
	c0.043,0.116,0.001,0.327,0.031,0.521c0.029,0.181,0.189,0.385,0.195,0.587c0.01,0.307-0.341,0.606-0.162,0.879
	c0.055,0,0.107,0,0.162,0c0.117-0.024,0.025-0.258,0.131-0.293c0.242,0.047,0.33,0.118,0.553,0.129
	c0.085-0.047,0.05-0.211,0.164-0.228c0.293-0.078,0.359,0.235,0.228,0.392c-0.145,0.045-0.252,0.006-0.325-0.099
	c-0.065,0.097-0.165,0.16-0.229,0.261c0.078,0.389,0.709,0.223,0.978,0.422c0.037,0.2-0.209,0.117-0.229,0.26
	c-0.112,0.029-0.055-0.104-0.032-0.129c-0.337-0.053-0.771-0.012-1.042-0.131c-0.271,0.242-0.852,0.607-0.617,1.043
	c0.204-0.156,0.583-0.086,0.586,0.228c-0.229,0.166-0.407-0.058-0.555-0.162c-0.104,0.165-0.204,0.336-0.293,0.521
	c0.029,0.272,0.207,0.211,0.196,0.391c-0.014,0.232-0.548,0.408-0.064,0.652c0.526-0.008,0.778,0.262,0.911,0.649
	c-0.031,0.002-0.024,0.04-0.032,0.065c-0.417,0.085-0.755-0.174-0.943-0.424c0.008-0.508-0.593-0.405-0.848-0.651
	c-0.156,0.019-0.151,0.194-0.228,0.293c-0.258,0.11-0.629,0.151-0.684,0.424c-0.069,0.336,0.262,0.606,0.553,0.554
	c0.027,0.137-0.076,0.239-0.162,0.164c-0.01,0.098,0.104,0.127,0.032,0.193c-0.169-0.064-0.206-0.225-0.358-0.063
	c0.066-0.123,0.055-0.293,0-0.457c-0.444,0.054-0.111,0.729,0.195,0.487c0.027,0.093-0.045,0.084-0.032,0.162
	c0.3-0.008,0.501,0.085,0.684,0.196c0.026,0.326,0.059,0.986-0.261,1.009c-0.557,0.041-1.317-0.53-1.27-1.172
	c-0.141-0.188-0.72-0.199-0.943-0.099c0.086,0.293,0.528,0.092,0.586,0.357c0.038,0.18-0.086,0.279-0.194,0.293
	c-0.313,0.041-0.304-0.514-0.521-0.553c-0.43,0.081-0.803,0.313-0.781,0.684c0.023,0.389,0.611,0.689,0.586,1.107
	c0.061-0.039,0.025-0.171,0.065-0.229c0.24,0.068,0.335,0.041,0.554-0.033c0.219,0.082,0.336,0.574,0.064,0.685
	c-0.279-0.142-0.664,0.146-0.65-0.326c-0.107,0.044-0.147,0.156-0.293,0.163c-0.449-0.08-0.113-0.909-0.554-0.879
	c-0.097,0.107,0.166,0.199,0.032,0.357c-0.229,0.057-0.216-0.131-0.261-0.26c-0.289,0.051-0.393,0.242-0.357,0.487
	c0.028,0.204,0.313,0.278,0.261,0.488c-0.301,0.026-0.188-0.354-0.326-0.488c-0.231,0.026-0.51,0.216-0.455,0.488
	c0.031,0.161,0.359,0.257,0.488,0.454c0.068,0.106,0.057,0.226,0.098,0.326c0.166,0.407,0.437,0.781,0.65,1.107
	c0.103,0.152,0.356,0.328,0.163,0.52c-0.433-0.195-0.71-0.549-0.911-0.977c-0.021-0.118,0.021-0.173,0.064-0.229
	c-0.043-0.086-0.087-0.172-0.13-0.26c-0.017-0.103,0.041-0.134,0.098-0.162c-0.042-0.111-0.116-0.189-0.163-0.293
	c-0.169,0.004-0.083,0.263-0.293,0.229c-0.162-0.057-0.17-0.266-0.162-0.489c-0.416-0.216-0.58,0.114-0.911,0.163
	c-0.063,0.461,0.35,0.596,0.229,1.01c-0.248-0.05-0.291,0.223-0.521,0.195c-0.388-0.051-0.585-1.232-0.229-1.498
	c0.222-0.025,0.258,0.133,0.423,0.163c-0.185-0.337-0.877-0.233-1.203-0.099c-0.033,0.238-0.199,0.344-0.326,0.488
	c0.014,0.258,0.322,0.219,0.488,0.325c-0.021,0.323-0.49,0.563-0.717,0.293c0-0.098,0-0.194,0-0.293
	c-0.203-0.048-0.252,0.177-0.357,0.261c-0.092,0.073-0.271,0.146-0.423,0.26c-0.345,0.26-0.679,0.492-1.433,0.393
	c-0.138-0.02-0.246-0.1-0.392-0.1c-0.156,0.002-0.324,0.135-0.488,0.131c-0.108-0.002-0.291-0.125-0.487-0.162
	c-0.394-0.074-0.656-0.025-0.781-0.326c-0.123,0.316-0.055,0.926-0.162,1.074c-0.248-0.107,0.135-0.717-0.063-1.074
	c-0.56,0.221-0.45,1.248,0.063,1.434c-0.119,0.545,0.063,1.015-0.033,1.465c-0.124,0.584-0.688,0.849-0.91,1.236
	c-0.077,0.135-0.058,0.43,0.098,0.65c0.152,0.098,0.099-0.117,0.261-0.098c0.082,0.082-0.063,0.104-0.098,0.162
	c0.44,0.213,1.03,0.539,1.563,0.457c0.029-0.043-0.129-0.175-0.131-0.295c0.162,0.019,0.304,0.217,0.326,0.424
	c0.244,0.207,0.579,0.36,1.009,0.293c0.147,0.396,0.401,0.684,0.977,0.65c0.104,0.157,0.146,0.375,0.358,0.424
	c0.117,0.01,0.156-0.061,0.26-0.064c0.279,0.133,0.146,0.453,0.033,0.684c0.063,0.452,0.521,0.313,0.781,0.553
	c0.059,0.193-0.054,0.369-0.098,0.554c0.059,0.215,0.274,0.198,0.391,0.393c0.186,0.31,0.125,0.813,0.553,0.91
	c0.176-0.006,0.404-0.104,0.554-0.033c-0.205,0.279-0.998,0.011-0.943,0.425c0.023,0.186,0.34,0.162,0.488,0.293
	c-0.009,0.338-0.431,0.265-0.488,0.554c-0.019,0.071,0.063,0.046,0.063,0.097c0.454,0.061,1.001-0.039,1.498,0.033
	c-0.288,0.301-0.896,0.021-1.334,0.064c0.013,0.141,0.066,0.235,0.162,0.293c0.373-0.06,1.546-0.525,1.433,0.194
	c-0.478,0.337-1.021,0.576-1.726,0.293c-0.065,0.011-0.063,0.089-0.13,0.099c0.028,0.387,0.07,0.756-0.13,0.978
	c0.178,0.427,0.79,0.425,1.009,0.813c-0.263-0.054-0.366-0.265-0.618-0.326c-0.044,0.164,0.188,0.051,0.129,0.229
	c-0.358-0.117-0.973-0.139-0.909,0.357c-0.007,0.113,0.113,0.103,0.161,0.162c-0.024,0.076-0.112-0.056-0.161-0.064
	c-0.151,0.307-0.498,0.414-0.718,0.65c-0.002,0.209,0.193,0.219,0.261,0.358c-0.191,0.472-0.943,0.38-1.203,0.781
	c-0.076,0-0.152,0-0.229,0c-0.18,0.091-0.295,0.247-0.423,0.392c0.104,0.248-0.066,0.475-0.032,0.683
	c0.031,0.196,0.279,0.267,0.195,0.456c-0.331-0.125-0.256-0.656-0.717-0.65c0.006-0.039,0.061-0.027,0.098-0.033
	c-0.035-0.074-0.204-0.012-0.293-0.031c-0.01,0.086,0.185-0.03,0.131,0.097c-0.445,0.011-0.871,0.041-1.073,0.293
	c-0.117,0.271,0.026,0.498-0.033,0.749c-0.175-0.411-0.311-0.86-0.781-0.977c0.011-0.043,0.082-0.026,0.131-0.031
	c-0.042-0.067-0.183-0.034-0.195-0.131c0.06,0.138-0.275,0.119-0.391,0.064c-0.09,0.088-0.193,0.402-0.325,0.553
	c-0.087,0-0.175,0-0.261,0c-0.158-0.096-0.148-0.518-0.163-0.65c-0.421-0.152-0.638,0.549-0.976,0.099
	c0.121-0.687-0.572-0.558-0.848-0.848c-0.258,0.036-0.25,0.337-0.456,0.424c-0.229-0.05-0.287,0.041-0.456,0
	c-0.019-0.183-0.01-0.31-0.031-0.424c-0.199-0.004-0.172,0.219-0.229,0.358c-0.191,0.176-0.5,0.461-0.456,0.748
	c0.032,0.207,0.312,0.236,0.26,0.488c0.095,0.125,0.369,0.064,0.358,0.293c-0.071,0.135-0.256,0.156-0.423,0.195
	c0.027,0.826,0.228,1.833-0.195,2.441c-0.047,0.123,0.089,0.062,0.065,0.162c-0.049,0.036-0.082,0.036-0.13,0
	c-0.219,0.315-0.54,0.719-0.456,1.139c-0.142,0.002-0.184-0.06-0.262,0.033c-0.288,0.307-0.274,0.696-0.617,0.944
	c-0.393,0.279-1.059,0.283-1.237,0.813c0.096,0.142,0.269,0.207,0.326,0.39c-0.132-0.117-0.348-0.153-0.489-0.261
	c-0.467-0.081-0.881,0.191-1.269,0.261c-0.19,0.033-0.381-0.03-0.555,0.065c-0.284,0.155-0.301,0.761-0.78,0.617
	c-0.148-0.105-0.088-0.244-0.131-0.424c-0.506-0.523-1.545-0.516-2.051-1.041c-0.616,0.139-1.048-0.184-1.009-0.684
	c-0.274-0.289-0.456-0.672-0.781-0.91c-0.104,0.047-0.057,0.246-0.261,0.193c-0.139-0.105-0.011-0.248,0.065-0.324
	c-0.055-0.133-0.224-0.146-0.261-0.293c-0.002-0.133,0.031-0.229,0.162-0.229c-0.165-0.286-0.435-0.643-0.554-1.073
	c-0.338-0.068-0.503-0.625-0.13-0.78c-0.189-0.38-0.113-0.941,0-1.237c-0.354-0.102-0.587-0.673,0.098-0.684
	c0.087-0.551,0.297-1.064,0.065-1.529c0.229-0.096,0.467-0.184,0.521-0.455c-0.271-0.177-0.655-0.115-0.911,0
	c-0.085-0.059-0.065-0.217-0.064-0.359c-0.165-0.08-0.332,0.03-0.488-0.033c-0.059-0.438-0.603-0.51-0.879-0.227
	c-0.201-0.016-0.259-0.176-0.488-0.162c-0.078,0.063,0.048,0.17-0.032,0.26c-0.234,0.248-0.74,0.179-0.65-0.325
	c0.098-0.064,0.156-0.171,0.325-0.162c-0.133-0.41-0.246-0.838-0.748-0.879c-0.084-0.296-0.274-0.574-0.293-0.88
	c-0.053-0.84,0.643-1.43,1.497-1.366c0.218,0.256,0.564,0.162,0.554-0.229c0.099-0.063,0.234-0.09,0.325-0.162
	c0.004-0.137-0.061-0.182,0-0.293c0.078-0.069,0.198-0.133,0.324-0.064c0.288-0.167,0.524-0.387,0.782-0.586
	c0.128,0.174,0.356,0.063,0.487-0.032c0.347,0.304,0.809,0.063,1.107-0.131c0.395,0.332,0.458,0.997,1.139,1.042
	c0.039,0.093,0.036,0.227,0.033,0.357c0.087,0.199,0.319,0.181,0.26,0.455c0.296,0.195,0.604,0.486,0.456,0.944
	c0.1-0.011,0.087-0.301,0.228-0.163c0.151,0.008,0.014,0.18,0.032,0.26c0.217,0.078,0.502,0.086,0.586,0.293
	c0.317-0.049,0.726-0.041,0.847,0.196c0.332-0.093,0.625,0.116,0.944,0.097c0.222-0.012,0.354-0.162,0.553-0.129
	c0.251,0.043,0.269,0.317,0.456,0.455c0.18,0.131,0.355,0.035,0.456,0.229c0.672-0.177,0.637,0.614,1.303,0.553
	c0.113,0.119,0.172,0.354,0.063,0.521c0.214,0.353,0.606,0.521,0.716,0.978c0.063,0.004,0.109,0.021,0.131,0.063
	c0.135,0.004,0.131-0.129,0.293-0.098c0.083,0.331,0.667,0.176,0.717,0.457c0.107-0.012,0.051-0.188,0.064-0.293
	c-0.063-0.104-0.214,0-0.261-0.164c0.026-0.121,0.134-0.027,0.195,0c0.042-0.154,0.226-0.165,0.391-0.195
	c-0.109-0.227-0.275-0.396-0.358-0.649c-0.277-0.002-0.515,0.086-0.649-0.099c-0.058-0.315,0.15-0.369,0.228-0.554
	c-0.175-0.306-0.188-0.534-0.423-0.618c-0.249-0.09-1.127,0.416-1.009-0.229c0.062-0.344,0.709-0.553,0.748-0.911
	c0.034-0.308-0.383-0.546-0.229-1.009c-0.073-0.164-0.329-0.146-0.324-0.391c0.02-0.088,0.17-0.047,0.228-0.099
	c0-0.055,0-0.108,0-0.162c0.028-0.137-0.146-0.071-0.195-0.131c-0.033-0.121,0.109-0.063,0.13-0.131
	c-0.246-0.196-0.452-0.437-0.554-0.781c0.198,0.181,0.268-0.047,0.521-0.063c0.151-0.346-0.113-0.551,0.098-0.846
	C47.849,57.728,48.311,57.069,48.563,56.769z M54.91,66.24c-0.193,0.085-0.425-0.132-0.618-0.034
	C54.529,66.161,54.737,66.433,54.91,66.24z M41.077,66.761c0.1,0.012-0.086,0.165,0.031,0.194
	C41.119,66.845,41.221,66.679,41.077,66.761z M44.007,72.358c-0.129,0.066-0.271,0.293-0.229,0.423
	C43.83,72.616,43.959,72.528,44.007,72.358z M46.838,64.841c0.268,0.002,0.566,0.168,0.781,0.324
	c0.426-0.071,0.682,0.352,1.009,0.162c-0.686-0.15-1.247-0.424-1.854-0.65c0.019,0.184-0.189,0.309-0.131,0.424
	C46.699,65.005,46.739,64.894,46.838,64.841z M46.968,45.181c-0.048-0.053-0.186-0.049-0.162,0.064
	C46.87,45.313,46.944,45.245,46.968,45.181z M47.001,69.819c-0.04,0.092-0.159,0.272-0.065,0.391
	C46.917,70.06,47.087,69.929,47.001,69.819z M48.791,66.597c-0.104-0.005-0.196,0-0.229,0.065
	C48.635,66.729,48.738,66.647,48.791,66.597z M49.117,66.401c-0.088-0.055,0.063-0.187-0.065-0.228
	c0.043,0.144-0.062,0.306-0.033,0.324C49.022,66.438,49.126,66.478,49.117,66.401z M49.638,54.424
	c0.01-0.086-0.068-0.083-0.131-0.097c0,0.031,0,0.064,0,0.097C49.596,54.421,49.573,54.479,49.638,54.424z M49.67,54.294
	c0.333-0.143,0.087-0.505,0.13-0.814C49.598,53.675,49.683,53.935,49.67,54.294z M50.027,53.903c0.018-0.104-0.04-0.133-0.097-0.162
	c0,0.043,0,0.086,0,0.13C49.976,53.87,50.002,53.888,50.027,53.903z M50.613,42.413c0.091-0.217,0.354-0.211,0.521-0.195
	c-0.061-0.004-0.109-0.021-0.13-0.064c0.257,0.035,0.296-0.002,0.455-0.098c0.083,0.037,0.082,0.156,0.229,0.131
	c0.091-0.049,0.113-0.17,0.13-0.293c-0.145-0.164-0.522-0.189-0.487-0.457c0.057-0.418,0.804-0.076,1.14-0.033
	c0.066-0.225-0.052-0.528-0.228-0.616c-0.205-0.021-0.146,0.226-0.326,0.228c-0.166-0.06-0.258-0.197-0.325-0.357
	c-0.294-0.107-0.599-0.204-0.979-0.229c-0.006,0.037-0.034,0.053-0.063,0.065c0.09,0.498,0.534,0.946,0.195,1.496
	c0.006,0.104,0.176,0.043,0.161,0.163C50.785,42.194,50.561,42.306,50.613,42.413z M54.162,41.958
	c0.154-0.018,0.239-0.107,0.356-0.162c0.01-0.064-0.043-0.066-0.063-0.1c0.069-0.07,0.17-0.111,0.26-0.162
	c-0.136-0.027-0.153,0.064-0.26,0.064c-0.103-0.193-0.27-0.486-0.521-0.423c-0.011,0.187,0.092,0.257,0.099,0.423
	c-0.139,0.135-0.255,0.131-0.423,0.262c-0.146-0.049-0.265-0.127-0.293-0.293c0.203-0.369-0.207-0.616-0.554-0.521
	c-0.117,0.284,0.181,0.798-0.064,1.01c-0.271-0.022-0.347-0.24-0.718-0.164c-0.063,0.101-0.133,0.192-0.162,0.325
	c0.35,0.179,1.187-0.143,0.88,0.554c0.207,0.457,0.938,0.018,1.04-0.326c-0.229-0.295,0.146-0.481,0.359-0.355
	C54.078,41.922,54.25,42.081,54.162,41.958z M53.381,32.778c-0.113-0.104-0.367-0.066-0.554-0.097
	C52.65,32.92,53.374,33.036,53.381,32.778z M54.684,41.47c0.178-0.027,0.276-0.135,0.455-0.162c0.023-0.101-0.09-0.063-0.064-0.164
	c-0.312,0.103-0.492-0.082-0.684-0.194C54.354,41.132,54.598,41.3,54.684,41.47z M55.952,40.981
	c0.027-0.151-0.085,0.045-0.098-0.064c0.051-0.059,0.174-0.044,0.228-0.1c-0.34-0.036-0.232-0.447-0.554-0.455
	c-0.198-0.004-0.404,0.229-0.553,0.392C55.26,40.884,55.582,41.129,55.952,40.981z M58.003,63.083
	c0.024,0.188-0.048,0.277-0.032,0.455c0.113,0.016,0.211,0.049,0.357,0.031c0.073-0.121,0.139-0.25,0.229-0.357
	c-0.521-0.439-1.453-0.26-2.182-0.229c0.006,0.039-0.006,0.094,0.033,0.1C56.938,63.103,57.53,62.917,58.003,63.083z M58.197,41.665
	c-0.004,0.038-0.051,0.035-0.097,0.031c0.001-0.51,0.111-0.996-0.456-0.977c0.109,0.131,0.126,0.353,0.131,0.586
	c0.207,0.086,0.306,0.68,0.064,0.813c-0.396-0.142-0.586,0.19-0.716,0.424c-0.202,0.067-0.365,0.179-0.521,0.293
	c0.191,0.006,0.24-0.129,0.392-0.162c0.133,0.052,0.111,0.257,0.26,0.293c-0.111,0.163,0.117,0.556-0.032,0.813
	c0.388,0.088,0.419-0.443,0.813-0.456c-0.021-0.271,0.082-0.417,0.064-0.683c0.074-0.045,0.122,0.084,0.13,0
	C58.125,42.442,58.309,41.874,58.197,41.665z M57.092,40.786c-0.088,0.012-0.396-0.029-0.326,0.031
	C56.854,40.808,57.162,40.849,57.092,40.786z M58.816,42.999c-0.155-0.018-0.252-0.268-0.391-0.195
	C58.539,42.864,58.697,43.052,58.816,42.999z M58.882,41.567c-0.142-0.014-0.202,0.059-0.261,0.129
	C58.742,41.688,58.845,41.661,58.882,41.567z M63.73,34.732c0.051-0.069,0.096-0.146,0.131-0.228
	c-0.118,0.021-0.289-0.008-0.293,0.129C63.627,34.663,63.664,34.713,63.73,34.732z M66.596,42.968
	c-0.125,0.217-0.514,0.387-0.229,0.617c0.236-0.057,0.532-0.053,0.685-0.195c0.013-0.274-0.095-0.688-0.032-0.943
	C66.732,42.343,66.732,42.728,66.596,42.968z M36.162,46.026c0.082,0.139-0.108,0.281-0.132,0.424
	C35.978,46.458,36.111,46.126,36.162,46.026z M36.423,35.904c0.175,0.28,0.341,0.571,0.422,0.944
	C36.582,36.655,36.588,36.194,36.423,35.904z M46.285,53.838c0.142,0.022,0.155,0.171,0.293,0.196
	C46.501,54.077,46.336,53.931,46.285,53.838z M46.74,49.835C47.013,49.938,46.901,50.216,46.74,49.835L46.74,49.835z M46.968,49.735
	c0.031-0.078,0.041,0.131,0.131,0.1c-0.007,0.025-0.032,0.031-0.032,0.064c-0.021,0-0.044,0-0.064,0
	C47.027,49.808,46.955,49.815,46.968,49.735z M47.326,50.745c0.122-0.051,0.202,0.184,0.194,0.293
	c-0.018,0.096-0.051-0.049-0.098-0.031c-0.002-0.057,0.023-0.084,0.064-0.099C47.448,50.841,47.395,50.786,47.326,50.745z
	 M50.32,10.157c0.053-0.227,0.363-0.43,0.555-0.651c0.113-0.132,0.184-0.393,0.392-0.325C51.026,9.583,50.589,9.786,50.32,10.157z
	 M53.479,42.153c-0.108-0.092,0.084-0.152,0.099-0.229C53.636,41.966,53.506,42.091,53.479,42.153z M53.771,54.034
	c-0.006-0.104,0.183-0.016,0.131-0.163c0.133-0.015,0.205,0.032,0.195,0.163c-0.068,0.014-0.087-0.023-0.131-0.033
	c-0.016,0.105,0.162,0.068,0.063,0.163C53.928,54.14,53.963,53.972,53.771,54.034z M54.617,53.382
	c-0.025-0.018,0.219,0.23,0.194,0.424C54.695,53.718,54.661,53.545,54.617,53.382z M56.961,68.876
	c0.128-0.029,0.022,0.172,0.098,0.195C57.031,69.128,56.953,68.962,56.961,68.876z M57.156,65.62
	c0.063-0.08,0.104,0.135,0.162,0.163C57.265,65.856,57.196,65.671,57.156,65.62z M57.318,69.853c0.105-0.092,0.105,0.197,0.164,0.26
	C57.414,70.167,57.408,69.884,57.318,69.853z M58.783,63.212c0.144-0.087,0.256,0.135,0.392,0.164
	C59.099,63.396,58.883,63.278,58.783,63.212z M59.207,63.44c0.233,0.136,0.895,0.295,1.01,0.553
	C59.818,63.87,59.565,63.603,59.207,63.44z M62.006,12.273c0.045-0.107,0.184-0.12,0.293-0.163
	C62.354,12.072,62.117,12.264,62.006,12.273z M62.43,12.045c0.203-0.146,0.445-0.294,0.684-0.423
	c0.229-0.124,0.448-0.312,0.685-0.325C63.439,11.644,62.866,11.776,62.43,12.045z M62.527,27.538
	c0.093-0.211,0.268-0.623,0.554-0.749C62.945,27.089,62.666,27.244,62.527,27.538z M62.787,2.28
	c0.332,0.091,0.237,0.609,0.456,0.813C63.095,2.949,62.898,2.571,62.787,2.28z M63.634,27.018c-0.048-0.014,0.013-0.041,0-0.097
	c0.257-0.173,0.39-0.451,0.586-0.685c0.185-0.217,0.38-0.494,0.651-0.618C64.535,26.139,64.032,26.525,63.634,27.018z
	 M65.814,35.155c0.097-0.104,0.326,0.076,0.293-0.065c0.71,0.266,1.597,0.357,2.377,0.553c-0.116,0.207-0.024,0.51-0.229,0.684
	c-0.208,0.177-0.598,0.114-0.619-0.164c-0.018-0.25,0.255-0.261,0.293-0.521C67.304,35.384,66.459,35.305,65.814,35.155z
	 M68.32,72.554c0.119,0.047,0.312,0.299,0.393,0.488C68.467,72.993,68.486,72.683,68.32,72.554z M69.135,26.334
	c0.092-0.223,0.477-0.154,0.488-0.456c0.032-0.099-0.072-0.058-0.131-0.065c-0.007-0.115,0.109-0.107,0.131-0.196
	c-0.279-0.217-0.698,0.082-0.879,0.065c0.264-0.124,0.563-0.456,0.521-0.879c-0.016-0.145-0.174-0.229-0.196-0.39
	c-0.03-0.23,0.159-0.441,0.099-0.685c-0.07-0.124-0.209-0.182-0.358-0.228c-0.021-0.131,0.031-0.186,0.033-0.293
	c-0.01-0.152-0.36,0.034-0.326-0.163c0.415,0.077,0.828,0.07,0.814-0.293c-0.009-0.204-0.224-0.171-0.229-0.423
	c0.056-0.161,0.34-0.095,0.457-0.195c0.144-0.463-0.348-0.531-0.554-0.748c0.203,0.044,0.388,0.111,0.521,0.228
	c0.444-0.055,0.591-0.408,0.717-0.782c0.197-0.063,0.453-0.066,0.586-0.196c0.099-0.547-0.323-0.815-0.424-1.269
	c0.318,0.192,0.421,0.542,0.455,0.944c0.433-0.165,1.226,0.031,1.334-0.456c0.248-0.15,0.58-0.024,0.686,0.163
	c0.417,0.004,0.548-0.276,0.716-0.521c0.021,0.15-0.072,0.187-0.064,0.325c0.023,0.151,0.132,0.216,0.229,0.293
	c0.613-0.07,0.661,0.425,1.106,0.521c0.151-0.06,0.381-0.156,0.586-0.064c0.021,0.163-0.029,0.251-0.032,0.39
	c0.253,0.388,0.593,0.687,0.716,1.204c0.396,0.238,0.775-0.223,1.236-0.228c-0.164,0.27-0.678,0.191-0.943,0.358
	c0.068,0.548-0.148,1.514,0.391,1.823c-0.069,0.179-0.266,0.233-0.391,0.358c0.127,0.479-0.311,0.743-0.326,1.041
	c-0.021,0.422,0.527,0.42,0.782,0.715c-0.228,0.13-0.433-0.268-0.651-0.357c-0.436,0.227-0.848,0.475-1.041,0.943
	c-0.2,0.07-0.444,0.099-0.554,0.261c-0.091,0.902,0.456,1.281,0.683,1.953c-0.107,0.023-0.118-0.054-0.129-0.129
	c-0.227,0.088-0.401,0.366-0.717,0.26c-0.02-0.399,0.201-0.558,0.521-0.618c-0.283-0.433-0.432-1.001-0.879-1.27
	c-0.524-0.079-0.382,0.508-0.848,0.487c-0.131-0.003-0.141-0.131-0.162-0.162c-0.331-0.027-0.547,0.06-0.716,0.196
	c-0.103,0.159-0.035,0.486-0.196,0.586c0.284-0.749-0.266-0.95-0.909-0.879c-0.211,0.201-0.113,0.711-0.392,0.845
	c-0.031-0.41,0.375-0.566,0.325-0.944c-0.025-0.196-0.161-0.15-0.358-0.293c-0.147-0.107-0.231-0.326-0.39-0.357
	c-0.236-0.046-0.45,0.105-0.586,0.228c0.123-0.023,0.142-0.377,0.162-0.651c-0.075-0.152-0.315-0.141-0.423-0.261
	C69.407,26.108,69.383,26.333,69.135,26.334z M74.213,27.018c0-0.107,0.055-0.163,0.032-0.293c-0.061-0.009-0.184-0.117-0.229-0.032
	C74.228,26.722,74.173,26.86,74.213,27.018z M69.655,37.433c-0.15,0.042-0.504-0.091-0.749-0.194
	c-0.085-0.037-0.32-0.159-0.063-0.097C68.996,37.177,69.283,37.319,69.655,37.433z M71.934,47.556
	c0.124,0.088,0.156,0.142,0.229,0.229C72.342,48.008,72.049,47.778,71.934,47.556z M72.91,46.319
	c0.115-0.019,0.315,0.16,0.456,0.228C73.214,46.601,73.06,46.376,72.91,46.319z M75.417,27.245c0.092,0.028,0.109,0.128,0.162,0.196
	C75.531,27.499,75.436,27.326,75.417,27.245z M76.1,28.254c-0.221-0.138-0.278-0.438-0.422-0.651
	C75.808,27.812,76.098,28.024,76.1,28.254z M76.197,19.694c0.124-0.175,0.259-0.348,0.393-0.521
	c0.122-0.161,0.228-0.408,0.455-0.457C76.82,19.102,76.494,19.382,76.197,19.694z M76.914,24.187
	c0.548-0.007,1.179,0.188,1.691,0.325c-0.253,0.136-0.654-0.119-1.009-0.097c-0.006-0.072,0.115-0.016,0.162-0.033
	C77.549,24.245,77.15,24.296,76.914,24.187z M77.109,22.591c0.095-0.081,0.252-0.096,0.392-0.13
	C77.422,22.556,77.256,22.564,77.109,22.591z M77.207,16.504c0.03-0.132,0.141-0.466,0.325-0.553
	C77.501,16.212,77.274,16.278,77.207,16.504z M77.271,21.582c0.041-0.08,0.273-0.247,0.488-0.26
	C77.707,21.519,77.388,21.448,77.271,21.582z M44.397,38.345c-0.039,0.127,0.215,0.129,0.13,0.196
	c-0.583-0.176-0.671-0.705-0.684-1.399c-0.305,0.019-0.501,0.174-0.749,0c-0.154,0.024-0.236,0.262-0.423,0.26
	c-0.319-0.004-0.392-0.505-0.781-0.456c-0.128,0.017-0.221,0.257-0.423,0.293c-0.183,0.032-0.277-0.116-0.488-0.196
	c-0.219-0.082-0.438-0.056-0.554-0.228c-0.25,0.011-0.491,0.014-0.586-0.131c-0.011-0.119,0.028-0.288-0.032-0.357
	c-0.498-0.203-1.082-0.024-1.204-0.586c-0.032-0.146,0.036-0.294,0-0.457c-0.038-0.167-0.202-0.406-0.357-0.521
	c-0.202-0.147-0.374-0.122-0.456-0.26c-0.075-0.129,0-0.245-0.064-0.457c-0.048-0.156-0.217-0.253-0.261-0.422
	c-0.098-0.374,0.048-0.788-0.064-1.042c-0.125-0.279-0.321-0.531-0.488-0.813c-0.115,0.524-0.894,0.386-1.14,0.78
	c0.018,0.234-0.11,0.324-0.098,0.554c-0.299-0.064-0.443-0.226-0.716-0.196c-0.229,0.027-0.313,0.284-0.555,0.358
	c-0.273,0.083-0.402-0.068-0.748-0.097c-0.201,0.103-0.143,0.466-0.261,0.65c-0.193-0.186-0.367-0.392-0.554-0.586
	c-0.556,0.308-0.833-0.284-1.172-0.292c-0.134-0.004-0.288,0.151-0.455,0.129c-0.374-0.047-0.194-0.565-0.554-0.651
	c-0.228,0.107-0.521,0.193-0.717,0c0.037-0.098,0.026-0.2,0.032-0.391c-0.146-0.281-0.437-0.254-0.618-0.455
	c-0.104-0.114-0.085-0.268-0.163-0.424c-0.104-0.208-0.305-0.285-0.423-0.455c-0.272-0.394-0.161-0.936-0.293-1.432
	c-0.177-0.043-0.138-0.518-0.194-0.782c-0.313,0.153-0.629,0.087-0.813-0.131c-0.313,0.012-0.514,0.151-0.813,0.065
	c-0.303-0.087-0.396-0.526-0.618-0.586c-0.105-0.028-0.253,0.046-0.358,0.033c-0.501-0.065-1.165-0.972-1.302-1.498
	c-0.217-0.033-0.454-0.045-0.521-0.228c0.275-0.416,0.069-0.676-0.261-0.879c0.19-0.527-0.354-0.841,0.098-1.204
	c-0.28-0.353-0.46-0.61,0.032-0.879c-0.033-0.536,0.01-0.927,0.229-1.302c0.064-0.113,0.169-0.114,0.194-0.228
	c0.019-0.078-0.024-0.185,0-0.259c0.116-0.344,0.475-0.366,0.748-0.554c-0.015-0.243-0.004-0.46,0.131-0.553
	c0.422,0.062,0.66-0.024,0.911-0.196c-0.106-0.586,0.402-0.473,0.586-0.228c0.145-0.014,0.21-0.333,0.392-0.358
	c0.146-0.021,0.385,0.189,0.554,0.163c0.223-0.035,0.319-0.361,0.487-0.358c0.195,0.004,0.307,0.443,0.554,0.457
	c0.175,0.009,0.345-0.196,0.489-0.164c0.194,0.044,0.207,0.393,0.356,0.424c0.194-0.03,0.229-0.194,0.392-0.163
	c0.251,0.048,0.123,0.335,0.293,0.521c0.173,0.018,0.284-0.075,0.423,0c0.208,0.156-0.042,0.568,0.195,0.683
	c0.178,0.016,0.31-0.078,0.456,0c0.151,0.111,0.027,0.3,0.098,0.489c0.07,0.193,0.433,0.302,0.521,0.521
	c0.181,0.45-0.125,0.984,0.325,1.237c0.117,0.005,0.217-0.147,0.358-0.162c0.184-0.022,0.3,0.107,0.488,0.129
	c0.254,0.031,0.52-0.114,0.78-0.065c0.284,0.055,0.379,0.29,0.586,0.358c0.151,0,0.305,0,0.455,0c0.258,0.44,0.885,0.811,1.563,0.62
	c0.003,0.131-0.106,0.153-0.064,0.325c0.038,0.225,0.325,0.335,0.521,0.586c0.269,0.347,0.492,1.357,1.14,0.976
	c-0.063,0.371-0.173,0.696-0.229,1.075c0.343-0.073,0.561-0.435,0.91-0.39c-0.168,0.287-0.633,0.277-0.91,0.456
	c-0.019,0.33,0.46,0.407,0.487,0.716c0.016,0.164-0.251,0.305-0.26,0.521c-0.009,0.188,0.27,0.415,0.26,0.585
	c-0.009,0.165-0.178,0.294-0.26,0.392c0.605,0.143,0.259-0.666,0.487-0.913c0.523,0.118,0.479-0.573,0.813-0.618
	c0.16-0.022,0.23,0.139,0.392,0.162c0.231,0.035,0.311-0.063,0.553-0.129c0.046-0.148,0.097-0.413,0.261-0.457
	c0.211-0.055,0.339,0.214,0.555,0.228c0.168,0.011,0.313-0.198,0.553-0.194c0.154,0.001,0.317,0.187,0.487,0.194
	c0.172,0.009,0.344-0.138,0.455-0.129c0.277,0.022,0.311,0.426,0.586,0.487c0.222,0.05,0.322-0.13,0.555-0.065
	c0.17,0.091,0.231,0.289,0.325,0.457c0.284,0.289,0.809,0.342,1.303,0.422c0.093,0.146,0.133,0.345,0.13,0.586
	c0.253,0.416,0.682,0.844,0.781,1.399c0.023,0.133-0.025,0.388,0.031,0.554c0.093,0.258,0.385,0.39,0.392,0.618
	c0.006,0.167-0.14,0.33-0.13,0.489c0.013,0.215,0.208,0.335,0.194,0.521c-0.015,0.213-0.307,0.281-0.324,0.521
	c-0.015,0.167,0.196,0.326,0.194,0.487c-0.003,0.204-0.196,0.283-0.261,0.424c-0.027,0.283,0.266,0.325,0.131,0.619
	c-0.107,0.164-0.46,0.083-0.586,0.228c0.126,0.406-0.08,0.679-0.554,0.586c-0.128,0.278,0.125,0.403,0.13,0.651
	c0.968,0.417,0.626,2.346-0.651,2.049c0.005-0.072,0.14-0.013,0.196-0.032C44.684,38.536,44.505,38.476,44.397,38.345z
	 M31.54,30.793c-0.354,0.01-0.834-0.177-1.074-0.065C30.886,30.698,31.224,30.911,31.54,30.793z M34.47,32.485
	c-0.249-0.037-0.489-0.417-0.619-0.357C34.036,32.248,34.191,32.567,34.47,32.485z M37.106,31.802
	c0.091-0.099,0.34-0.33,0.195-0.456C37.114,31.403,36.688,31.714,37.106,31.802z M39.97,52.666c0.396-0.218,0.939-0.212,1.53-0.163
	c-0.201-0.123-0.385-0.266-0.685-0.293c-0.235-0.213-0.251-1.038,0.262-0.846c0.096,0.267,0.115,0.479,0.031,0.748
	c0.229,0.238,0.612,0.225,0.718-0.098c0.399-0.054,0.433,0.262,0.616,0.424c0.161,0.009,0.214-0.092,0.326-0.131
	c0.315,0.141,0.513,0.399,0.813,0.555c0.137-0.004,0.155-0.127,0.293-0.131c0.272,0.104,0.371,0.389,0.684,0.455
	c0.202-0.076,0.433-0.193,0.619-0.031c0.035,0.176-0.066,0.216-0.065,0.357c0.035,0.104,0.228,0.055,0.325,0.098
	c0.09,0.234,0.265,0.388,0.488,0.488c0.029,0.185-0.064,0.295,0,0.424c0.398,0.074,0.593-0.455,0.977-0.393
	c0.031,0.313-0.34,0.225-0.487,0.358c0,0.118,0,0.239,0,0.356c0.652-0.281,0.807,0.766,0.13,0.684
	c-0.028,0.363,0.087,0.843,0.064,1.304c0.101,0.041,0.227,0.058,0.262,0.162c0.007,0.139-0.053,0.21-0.099,0.293
	c0.017,0.092,0.17,0.047,0.13,0.194c-0.078,0.236-0.329,0.3-0.357,0.586c-0.115,0.049-0.241,0.086-0.423,0.066
	c-0.557,0.646-1.535,0.873-2.345,1.27c0.394,0.481,1.225,0.041,1.823,0.228c0.292-1.041,1.059,0.078,1.433,0.325
	c-0.069,0.169-0.221,0.259-0.325,0.393c-0.664,0.002-0.668-0.656-1.335-0.651c-0.1,0.009-0.094,0.124-0.162,0.163
	c-0.396-0.066-0.866-0.023-1.271,0c-0.032,0.033,0.171,0.108,0.099,0.293c-0.106,0.104-0.271,0.052-0.325-0.066
	c-0.015-0.133,0.068-0.17,0.13-0.227c-0.193-0.11-0.693,0.084-0.749-0.163c-0.326,0.13-0.649,0.261-1.041,0.325
	c-0.057,0.172-0.068,0.388-0.261,0.424c-0.073-0.08-0.071-0.233-0.065-0.391c-0.076-0.088-0.203-0.123-0.293-0.195
	c-0.048-0.473-0.508-0.534-0.649-0.912c-0.137,0.018-0.222-0.02-0.293-0.064c0.014-0.105,0.174-0.064,0.228-0.131
	c-0.139-0.564-0.595-0.816-0.684-1.432c-0.766-0.213-1.176-1.393-0.618-2.084c-0.052-0.469-0.558-0.484-0.978-0.586
	c-0.054-0.111-0.038-0.279,0.033-0.357c0.17-0.102,0.417,0.071,0.586-0.033c-0.17-0.242-0.063-0.486,0.098-0.65
	c-0.026-0.254-0.514-0.324-0.261-0.65c0.046,0.003,0.092,0.005,0.099-0.032c0.195,0.044,0.214,0.263,0.293,0.425
	c0.197-0.14,0.306-0.367,0.487-0.521c-0.023-0.148-0.21-0.139-0.293-0.229c-0.733,0.42-1.515-0.16-1.366-0.943
	c0.208-1.111,2.161-0.753,1.659,0.553C39.817,52.386,39.906,52.513,39.97,52.666z M53.543,53.644
	c-0.01-0.194,0.166-0.205,0.131-0.424c0.097-0.039,0.11-0.009,0.195,0.032c0.144-0.063,0.097-0.315,0.26-0.358
	c-0.099,0.123,0.095,0.172,0.098,0.293c-0.19-0.008-0.088,0.281-0.324,0.229c-0.024-0.063-0.098-0.022-0.032-0.099
	c-0.134,0.018-0.187,0.146-0.132,0.262C53.678,53.604,53.619,53.632,53.543,53.644z"/>
</svg>
