<?xml version="1.0" encoding="utf-8"?>
<!-- Generator: Adobe Illustrator 16.0.0, SVG Export Plug-In . SVG Version: 6.00 Build 0)  -->
<!DOCTYPE svg PUBLIC "-//W3C//DTD SVG 1.1//EN" "http://www.w3.org/Graphics/SVG/1.1/DTD/svg11.dtd">
<svg version="1.1" id="Layer_1" xmlns="http://www.w3.org/2000/svg" xmlns:xlink="http://www.w3.org/1999/xlink" x="0px" y="0px"
	 width="100px" height="100px" viewBox="0 0 100 100" enable-background="new 0 0 100 100" xml:space="preserve">
<path fill="#2BA9E1" d="M87.139,32.253l9.713-6.628L82.999,21.57c-11.567-20.328-35.175-9.727-43.065,9.606
	C30.414,54.479,3.149,62.979,3.149,62.979c19.405,23.08,36.907,27.248,48.58,26.328C63.408,88.38,94.93,79.2,88.368,38.223
	C88.025,36.094,87.611,34.11,87.139,32.253z"/>
<path fill="#2B3277" d="M82.999,21.57c1.653,2.905,3.06,6.449,4.14,10.683l9.713-6.628L82.999,21.57z M67.561,47.301
	c0,0-32.4-6.681-36.116,11.348C27.73,76.674,57.645,87.136,67.561,47.301z M73.795,21.069c0.217,1.933-0.779,3.636-2.229,3.805
	c-1.455,0.163-2.813-1.275-3.028-3.205c-0.222-1.933,0.774-3.636,2.229-3.805C72.225,17.707,73.574,19.136,73.795,21.069z"/>
</svg>
