<?xml version="1.0" encoding="utf-8"?>
<!-- Generator: Adobe Illustrator 16.0.3, SVG Export Plug-In . SVG Version: 6.00 Build 0)  -->
<!DOCTYPE svg PUBLIC "-//W3C//DTD SVG 1.1//EN" "http://www.w3.org/Graphics/SVG/1.1/DTD/svg11.dtd">
<svg version="1.1" id="Layer_1" xmlns="http://www.w3.org/2000/svg" xmlns:xlink="http://www.w3.org/1999/xlink" x="0px" y="0px"
	 width="100px" height="100px" viewBox="0 0 100 100" enable-background="new 0 0 100 100" xml:space="preserve">
<path d="M36.509,56.759c-3.863,0.267-7.366,1.864-9.091,3.909c-0.784,0.93-1.682,2.664-1.729,4.271
	c-0.037,1.266,0.353,2.451,0.818,3.273c1.523,2.688,4.965,4.385,8.729,4.639c4.96,0.332,10.423-1.979,12.092-5.912
	c0.617-1.449,0.652-3.52,0-5C45.842,58.564,41.331,56.425,36.509,56.759z M39.964,28.483c-1.344-1.343-3.079-2.485-5.455-2.182
	c-3.93,0.502-5.848,4.948-5.092,9.728c0.522,3.297,2.915,7.216,5.729,8.456c1.019,0.448,2.357,0.674,3.637,0.364
	c3.207-0.778,4.859-4.653,4.546-8.729C43.117,33.39,41.697,30.216,39.964,28.483z M50,0C22.386,0,0,22.386,0,50s22.386,50,50,50
	c27.613,0,50-22.386,50-50S77.613,0,50,0z M47.056,26.938c0.934,0.639,1.915,1.67,2.364,2.818c0.699,1.786,0.728,3.786,0.728,5.819
	c0,5.105-2.753,7.315-5.546,9.728c-1.102,0.952-2.11,1.835-2.092,3.001c0.02,1.272,1.27,2.299,2.183,3.09
	c2.797,2.429,6.025,4.529,7.364,8.274c0.33,0.921,0.537,2.106,0.545,3.272c0.055,8.203-5.644,11.877-12.365,13.093
	c-7.969,1.44-16.247-0.235-19.274-5.273c-0.785-1.306-1.154-2.547-1.273-4.182c-0.699-9.626,9.157-11.836,18.185-12.093
	c-0.151-0.795-0.24-1.245-0.728-1.818c-0.422-0.496-1.118-0.747-1.272-1.273c-0.292-0.99,0.21-2.086,0-3.455
	c-8.709,0.376-13.651-4.429-13.002-12.456c0.617-7.63,6.512-10.953,14.093-11.819c4.532-0.519,10.349,0.197,15.638-0.091
	c-0.631,2.459-4.919,1.263-6.729,2.546C46.254,26.56,46.714,26.703,47.056,26.938z M80.332,36.938c-3.425,0-6.85,0-10.273,0
	c0.002,3.335-0.002,7.151,0,10.183c-0.85,0.211-2.092,0.03-3.092,0.091c0-3.425,0-6.849,0-10.274c-3.424,0-6.85,0-10.273,0
	c0.057-1.004-0.114-2.237,0.092-3.091c3.395,0,6.787,0,10.183,0c0.062-3.395-0.12-7.031,0.091-10.274c0.971,0,1.94,0,2.909,0
	c0.212,3.244,0.031,6.879,0.091,10.274c3.396,0,6.789,0,10.185,0C80.447,34.702,80.275,35.934,80.332,36.938z"/>
</svg>
