<?xml version="1.0" encoding="utf-8"?>
<!-- Generator: Adobe Illustrator 16.0.0, SVG Export Plug-In . SVG Version: 6.00 Build 0)  -->
<!DOCTYPE svg PUBLIC "-//W3C//DTD SVG 1.1//EN" "http://www.w3.org/Graphics/SVG/1.1/DTD/svg11.dtd">
<svg version="1.1" id="Layer_1" xmlns="http://www.w3.org/2000/svg" xmlns:xlink="http://www.w3.org/1999/xlink" x="0px" y="0px"
	 width="100px" height="100px" viewBox="0 0 100 100" enable-background="new 0 0 100 100" xml:space="preserve">
<path fill="#FDEB03" d="M10.711,75.628c0,0,28.221-1.126,41.205-18.623c12.979-17.496,12.979-39.507,12.979-39.507
	S16.355,38.944,10.711,75.628z"/>
<path fill="#0865B0" d="M9.745,75.488c0,0,18.545,8.025,32.345,0.771c13.795-7.251,20.626-21.442,20.626-21.442
	S24.766,53.585,9.745,75.488z"/>
<path fill="#D81F26" d="M9.857,75.544c0,0,29.024-8.646,37.876-30.264c8.855-21.614,3.024-44.485,3.024-44.485
	S6.009,35.935,9.857,75.544z"/>
<path fill="#7BB742" d="M9.695,74.656c0,0,20.751,19.152,42.304,15.963c21.548-3.193,37.112-18.756,37.112-18.756
	S39.624,52.706,9.695,74.656z"/>
<path fill="#D3AF00" d="M9.112,73.87c0,0,7.436,18.791,22.318,23.418c14.886,4.628,29.75-0.578,29.75-0.578
	S35.216,69.005,9.112,73.87z"/>
</svg>
