<?xml version="1.0" encoding="utf-8"?>
<!-- Generator: Adobe Illustrator 16.0.0, SVG Export Plug-In . SVG Version: 6.00 Build 0)  -->
<!DOCTYPE svg PUBLIC "-//W3C//DTD SVG 1.1//EN" "http://www.w3.org/Graphics/SVG/1.1/DTD/svg11.dtd">
<svg version="1.1" id="Layer_1" xmlns="http://www.w3.org/2000/svg" xmlns:xlink="http://www.w3.org/1999/xlink" x="0px" y="0px"
	 width="100px" height="100px" viewBox="0 0 100 100" enable-background="new 0 0 100 100" xml:space="preserve">
<g>
	<path fill="#010101" d="M64.293,17.176c1.096-0.012,2.184,0.06,3.023,0.268c0.164,0.027,0.33,0.056,0.496,0.083
		c0.655,0.326,2.594,2.287,2.793,3.021c-0.013,1.16-0.027,2.32-0.041,3.478c-0.211,0.918-1.002,2.383-0.394,3.54
		c0.534,1.017,2.341,1.772,3.581,2.11c0.462,0.126,0.98-0.003,1.348,0.167c0.273,0.127,0.504,0.644,0.682,0.89
		c0.457,0.624,0.877,1.266,1.304,1.947c0.159,0.24,0.317,0.481,0.476,0.723c0.181,0.675,0.359,1.353,0.539,2.028
		c-0.012,0.842-0.026,1.684-0.041,2.525c0.041,1.03,0.084,2.057,0.125,3.085c0,0.386,0,0.775,0,1.16
		c0.104,0.667,0.101,1.594,0,2.235c-0.006,0.36-0.015,0.718-0.02,1.076c-0.157,1.008-0.064,2.197-0.064,3.292
		c0,0.537,0,1.074,0,1.613c0.275,0.765,0.553,1.532,0.828,2.298c0.146,0.58,0.291,1.16,0.436,1.74
		c0.082,0.281,0.166,0.566,0.25,0.848c-0.043,0.786-0.084,1.573-0.127,2.359c-0.032,1.124-0.066,2.249-0.104,3.374
		c-0.144,0.911-0.289,1.823-0.434,2.731c-0.035,0.951-0.069,1.904-0.104,2.856c-0.109,0.711-0.156,1.644-0.043,2.36
		c0.209,1.297-0.188,2.67,0.043,3.826c0.033,0.27,0.067,0.541,0.104,0.811c0.066,0.088,0.769-0.292,0.828-0.332
		c0.813-0.538,1.582-1.012,2.505-1.469c0.366-0.18,0.729-0.36,1.098-0.538c0.772-0.132,1.546-0.263,2.318-0.394
		c0.717-0.07,1.436-0.139,2.153-0.207c1.65-0.379,3.265-0.92,4.82-1.408c0.596-0.188,2.729-1.119,3.417-0.933
		c1.753,0.478,1.226,1.308,1.513,3.104c0.006,0.357,0.013,0.719,0.019,1.078c0.215,0.779,0.428,1.558,0.642,2.338
		c-0.056,0.423-0.109,0.841-0.162,1.264c-0.109,0.598-0.043,1.225-0.313,1.656c-0.203,0.324-1.295,0.802-1.738,0.91
		c-0.235-0.016-0.47-0.028-0.705-0.043c-0.131-0.156-0.26-0.316-0.393-0.476c0.097-0.312,0.192-0.622,0.291-0.934
		c-0.007-0.878-1.257-2.476-1.802-2.896c-0.229-0.186-0.457-0.37-0.684-0.56c-0.482-0.034-0.967-0.068-1.449-0.102
		c-1.953,0.521-3.338,1.518-4.845,2.461c-2.082,1.308-4.104,2.426-6.956,2.98c-1.525,0.299-4.309,0.548-5.711-0.063
		c-0.221-0.269-0.439-0.537-0.664-0.807c-0.273-0.109-0.553-0.22-0.826-0.331c-1.138-0.485-2.099-0.737-2.775-1.696
		c-0.336-1.078-0.676-2.152-1.012-3.23c-0.927-2.932-1.682-6.047-2.425-9.168c-1.735-0.008-3.382-0.161-5.028,0.102
		c-0.553,0.035-1.104,0.067-1.655,0.105c-0.624,0.101-2.237,0.51-2.94,0.163c-0.22-0.37-0.439-0.743-0.66-1.117
		c-0.512-0.851-0.793-2.187-1.906-2.423c-0.086,1.43,0.537,3.003,0.271,4.64c-0.014,0.254-0.026,0.511-0.041,0.765
		c-0.379,0.778-0.759,1.559-1.14,2.34c-0.524,1.267-0.732,2.582-0.994,4.139c-0.205,1.236-0.037,2.871,0.146,3.955
		c0.006,0.256,0.013,0.511,0.021,0.768c0.118,0.729-0.097,1.549-0.498,1.779c-0.626,0.355-1.854,0.155-2.607,0.02
		c-0.193-0.02-0.386-0.041-0.58-0.063c-0.332-0.168-0.614-0.613-1.242-0.494c-1.112,0.206-1.917,0.643-2.981,0.887
		c-0.352,0.021-0.703,0.043-1.056,0.063c-0.475,0.104-0.941,0.313-1.509,0.354c-0.216-0.172-0.429-0.346-0.645-0.52
		c0.109-0.232,0.462-1.072,0.645-1.18c0.669-0.172,1.338-0.344,2.008-0.519c0.557-0.405,1.116-0.813,1.674-1.222
		c1.231-0.878,2.591-1.754,2.921-3.52c0.021-0.449,0.04-0.896,0.062-1.347c0.092-0.579,0.118-1.499,0.021-2.11
		c0-0.302,0-0.606,0-0.91c-0.193-1.385-0.388-2.773-0.581-4.16c0.083-1.525,0.166-3.051,0.251-4.574
		c0.125-0.791,0.035-1.617-0.085-2.318c-0.034-0.255-0.069-0.51-0.103-0.766c0.145-0.314,0.29-0.637,0.435-0.953
		c0.102-0.236,0.18-0.678,0.372-0.828c0.82-0.297,1.643-0.592,2.463-0.889c2.567-1.003,5.397-1.688,8.386-2.277
		c1.463-0.291,2.957-0.41,4.305-0.744c0.379-0.08,0.759-0.15,1.138-0.229c0.729-0.286,1.241-0.924,1.699-1.489
		c0.239-0.245,0.481-0.485,0.723-0.724c0.229-0.485-0.803-1.943-0.973-2.361c-0.572,0.103-1.146,0.207-1.718,0.311
		c-0.862,0.193-1.727,0.386-2.588,0.579c-0.539,0.049-1.076,0.096-1.613,0.145c-1.092,0.022-2.182,0.041-3.272,0.062
		C55.75,47.512,54.6,46.748,53.2,46.98c-0.146,0-0.289,0-0.435,0c-0.436,0.151-0.867,0.302-1.305,0.455
		c-0.386,0.048-0.771,0.096-1.159,0.146c-0.547,0.14-1.104,0.388-1.697,0.578c-0.748,0.242-1.355,0.659-2.359,0.498
		c0.035-0.118,0.069-0.233,0.104-0.354c0.869-0.266,1.65-0.869,2.546-1.16c0-0.005,0-0.012,0-0.018
		c-1.396,0.121-2.453,0.61-3.954,0.621c-0.14-0.172-0.189-0.235-0.269-0.498c0.993-0.35,2.609-0.454,3.228-1.2
		c-0.413,0.048-0.826,0.097-1.241,0.146c-0.727,0.155-1.402,0.327-2.256,0.332c-0.07-0.063-0.139-0.125-0.208-0.186
		c0.042-0.139,0.084-0.277,0.124-0.415c1.115-0.415,2.426-0.562,3.478-0.993c0.201-0.083,0.401-0.166,0.602-0.248
		c-0.49-0.524-1.617-0.596-2.444-0.767c-0.36-0.073-0.956,0.023-1.121-0.247c-0.04-0.125-0.082-0.25-0.124-0.374
		c0.042-0.046,0.084-0.095,0.124-0.143c0.34,0.006,1.005,0.059,1.264-0.084c-0.595-0.185-1.186-0.372-1.781-0.56
		c-0.48,0.976-1.509,2.378-2.483,2.837c-0.24,0.043-0.481,0.084-0.726,0.125c-1.205,0.261-2.848,0.127-3.744-0.311
		c-0.312-0.193-0.622-0.387-0.934-0.58c-0.669-0.279-1.421-0.285-2.215-0.474c-0.406-0.149-0.814-0.292-1.221-0.437
		c-0.678-0.163-1.94-0.137-2.63-0.021c-0.399,0.014-0.8,0.025-1.198,0.042c-0.97,0.156-2.075,0.146-3.209,0.146
		c-0.519,0-1.036,0-1.553,0c-1.556-0.322-3.076-0.764-4.574-1.14c-0.684-0.11-1.366-0.222-2.051-0.333
		c-0.897-0.289-1.119-0.786-2.38-0.784c-0.093,0.984-0.598,1.752-0.785,2.71c0.026,0.251,0.053,0.497,0.081,0.746
		c-0.132,0.826-0.154,1.739-0.498,2.359c-0.662,1.211-2.7,2.773-2.626,4.411c0.081,1.836,1.629,3.559,2.504,4.719
		c0.262,0.334,0.525,0.662,0.786,0.994c0.035,0.199,0.069,0.4,0.104,0.601c0.076,0.352,0.152,0.705,0.227,1.056
		c0.029,0.621,0.057,1.242,0.084,1.863c0.214,1.008,0.428,2.016,0.644,3.021c0.234,0.754,0.467,1.504,0.701,2.258
		c0.021,1.205,0.043,2.414,0.063,3.619c-0.235,0.279-0.47,0.555-0.705,0.83c-0.059,0.504-0.122,1.008-0.185,1.512
		c-0.16,0.24-0.318,0.482-0.477,0.724c0,0.45,0,0.896,0,1.347c-0.171,1.096-0.102,2.299,0.083,3.313
		c0.021,0.229,0.04,0.456,0.063,0.684c0.362,0.939,1.92,1.516,3.002,1.739c0.385,0.079,0.833-0.002,1.158,0.062
		c0.068,0.105,0.188,0.195,0.146,0.291c-0.134,0.282-0.409,0.492-0.664,0.659c-0.284,0.189-0.632,0.413-0.992,0.52
		c-0.898,0.084-1.796,0.168-2.69,0.249c-0.795,0.166-1.368,0.49-2.215,0.621c-0.256-0.041-0.512-0.084-0.769-0.123
		c-0.086-0.491-0.271-0.955-0.164-1.617c0.069-0.489,0.137-0.979,0.207-1.469c-0.145-1.039-0.105-2.221-0.311-3.291
		c-0.153-0.642-0.303-1.284-0.455-1.926c-0.104-0.199-0.207-0.399-0.312-0.6c-1.123,0.096-2.248,0.191-3.374,0.289
		c-0.295,0.047-1.007-0.053-1.157,0.146c-0.295,0.498-0.317,1.09-0.498,1.717c-0.2,0.699-0.788,1.957-0.642,2.898
		c0.091,0.581,0.271,0.975,0.414,1.447c0.117,0.041,0.235,0.083,0.352,0.125c0.622,0.086,1.57-0.329,1.924,0.164
		c0.404,0.578-0.26,1.152-0.6,1.346c-0.465,0.27-1.234,0.27-1.821,0.415c-1.236,0.308-3.146,1.589-4.038,0.146
		c0.325-0.774,0.651-1.547,0.976-2.318c0.27-1.042,0.053-2.242,0.227-3.415c0-0.259,0-0.512,0-0.767
		c0.021-0.891,0.043-1.782,0.063-2.67c-0.481-0.11-0.967-0.222-1.448-0.332c0.074-0.553,0.149-1.103,0.227-1.656
		c0.049-0.496,0.096-0.993,0.145-1.489c0.185-1.057,0.25-2.269,0.249-3.415c-0.007-0.525-0.015-1.049-0.02-1.574
		c-0.133-0.717-0.264-1.434-0.394-2.15C1.93,60.83,1.877,59.3,1.821,57.768c-0.026-1-0.055-2.002-0.082-3.002
		c0.225-0.621,0.454-1.24,0.681-1.863c0.546-0.67,1.092-1.338,1.638-2.006c0.317-0.513,0.633-1.021,0.951-1.53
		c0.138-0.436,0.276-0.873,0.413-1.304c0.308-0.972,0.583-2.079,0.851-3.126c0.116-0.526,0.235-1.049,0.351-1.574
		c0.365-0.973,0.73-1.945,1.1-2.918c0.177-0.368,0.357-0.733,0.535-1.099c0.026-0.107-0.301-1.492-0.351-1.78
		c-0.027-0.365-0.056-0.73-0.084-1.096c-0.227-0.747-0.454-1.491-0.683-2.236c-0.063-0.938-0.124-1.876-0.186-2.814
		c-0.126-0.798-0.104-2.548,0.186-3.106c0.384-0.741,1.167-1.295,1.823-1.779c0.221-0.24,0.44-0.483,0.661-0.724
		c0.779-0.62,2.485-1.02,3.83-0.704c0.72,0.169,1.46,0.59,2.111,0.87c0.777,0.334,1.535,0.493,2.007,1.117
		c0.31,0.406,0.445,1.295,0.29,2.028c-0.073,0.35-0.313,0.83-0.229,1.285c0.112,0.42,0.223,0.841,0.333,1.262
		c0.057,0.136,0.255,0.28,0.229,0.474c-0.066,0.447-0.618,0.981-0.768,1.534c-0.079,0.295,0.098,0.537,0.103,0.744
		c-0.054,0.111-0.11,0.219-0.164,0.331c0.04,0.117,0.081,0.235,0.125,0.353c-0.037,0.193-0.071,0.386-0.105,0.58
		c-0.676,0.111-1.246,0.271-1.864,0.476c-0.101,0.379-0.205,0.758-0.309,1.137c0.015,0,0.026,0,0.041,0
		c0.876,0.332,1.754,0.663,2.63,0.996c0.835,0.38,1.669,0.759,2.504,1.138c0.255,0.129,0.512,0.263,0.767,0.393
		c0.619,0.008,1.241,0.016,1.86,0.02c0.934,0.133,1.865,0.263,2.797,0.396c0.933,0.082,1.863,0.166,2.794,0.249
		c0.497,0.013,0.995,0.027,1.491,0.041c0.29-0.087,1.716-0.814,1.883-0.993c0.189-0.205,0.172-0.425,0.456-0.642
		c0.104,0.101,0.205,0.205,0.31,0.31c0.035,0.019,0.07,0.04,0.104,0.061c0.371-0.098,0.786-0.182,1.303-0.185
		c0.162-0.334,0.669-2.267,0.81-2.381c0.385-0.215,0.771-0.429,1.159-0.642c0.544-0.324,1.089-0.648,1.635-0.974
		c0.385-0.068,0.772-0.135,1.158-0.207c0.221-0.047,0.44-0.097,0.664-0.143c0.495,0.143,0.992,0.289,1.489,0.435
		c0.317,0.082,0.636,0.164,0.952,0.246c0.173,0.172,0.344,0.346,0.518,0.518c0.529,0.429,1.042,0.92,1.468,1.45
		c0.18,0.185,0.359,0.373,0.541,0.558c0.088,0.395,0.178,0.787,0.268,1.179c0.774,0.127,1.629,0.347,2.442,0.499
		c0.248-0.019,0.496-0.042,0.746-0.062c0.932-0.158,1.74-0.256,2.587-0.414c0.726-0.062,1.45-0.125,2.173-0.187
		c0.711-0.218,1.582-0.803,2.195-1.18c0.703-0.415,1.408-0.829,2.109-1.241c0.326-0.325,0.648-0.65,0.976-0.974
		c0.185-0.173,0.372-0.345,0.56-0.517c0.239-0.462,0.479-0.924,0.724-1.388c0.42-0.476,0.842-0.952,1.264-1.43
		c0.269-0.143,0.537-0.287,0.806-0.433c0.826-0.48,1.602-0.8,2.153-1.552c-0.666-0.074-1.321-0.194-1.78-0.475
		c-0.09-0.386,0.041-0.904-0.062-1.306c-0.048-0.077-0.099-0.152-0.146-0.229c-0.146-0.413,0.237-0.715,0.103-1.075
		c-0.147-0.346-0.524-0.389-0.578-0.85c-0.388-0.056-0.665-0.209-0.81-0.517c0.15-0.625,0.49-1.036,0.769-1.534
		c-0.124-0.233-0.25-0.469-0.374-0.704c0.057-0.44,0.111-0.883,0.167-1.325c0.285-1.838,0.079-3.568,1.345-4.43
		c0.436-0.177,0.871-0.358,1.305-0.535C63.756,17.23,64.025,17.201,64.293,17.176z M15.027,37.211
		c0.041,0.022,0.083,0.043,0.125,0.063C15.113,37.23,15.092,37.23,15.027,37.211z M63.466,38.144
		c-1.196,1.274-2.562,2.356-4.12,3.271c-1.002,0.586-2.146,0.908-3.27,1.345c-0.574,0.208-1.146,0.413-1.721,0.622
		c0.021,0.026,0.043,0.054,0.063,0.082c2.397,0.564,5.545-0.546,7.411-1.117c0.786-0.166,1.572-0.331,2.359-0.499
		c0.275-0.924-0.164-1.972-0.455-2.896C63.66,38.719,63.633,38.29,63.466,38.144z M54.254,43.36c0,0.021,0,0.042,0,0.061
		c0.025-0.004,0.055-0.013,0.082-0.019C54.309,43.389,54.279,43.374,54.254,43.36z"/>
</g>
</svg>
