<?xml version="1.0" encoding="utf-8"?>
<!-- Generator: Adobe Illustrator 16.0.0, SVG Export Plug-In . SVG Version: 6.00 Build 0)  -->
<!DOCTYPE svg PUBLIC "-//W3C//DTD SVG 1.1//EN" "http://www.w3.org/Graphics/SVG/1.1/DTD/svg11.dtd">
<svg version="1.1" id="Layer_1" xmlns="http://www.w3.org/2000/svg" xmlns:xlink="http://www.w3.org/1999/xlink" x="0px" y="0px"
	 width="100px" height="100px" viewBox="0 0 100 100" enable-background="new 0 0 100 100" xml:space="preserve">
<path fill="#B8D54C" d="M40.532,60.75l-0.052-0.314c-0.028-0.352-0.034-0.686-0.052-1.021L15.908,69.2
	c3.194-1.897,7.35-4.515,11.291-7.443c8.001-5.931,9.764-8.097,8.455-8.174c-1.302-0.077-5.203,1.959-13.204,7.899
	c-5.373,3.982-8.986,7.517-10.782,9.408l-9.529,3.813l0.704,1.769l15.747-6.285c2.709-0.017,8.334-0.158,13.923-0.963
	c7.727-1.117,9.751-1.99,8.878-2.576c-0.876-0.58-4.311-0.668-12.047,0.449c-2.145,0.307-4.042,0.686-5.69,1.063l17.299-6.9
	c-0.086-0.113-0.179-0.206-0.266-0.32L40.532,60.75z"/>
<path fill="#584536" d="M27.445,62.089c9.532-7.071,9.162-7.981,8.964-8.474c-0.062-0.154-0.241-0.416-0.728-0.444
	c-1.679-0.103-6.206,2.583-13.482,7.976c-5.385,3.992-9.035,7.58-10.773,9.401L1.984,74.32L1.607,74.47l0.142,0.386l0.704,1.763
	l0.157,0.386l0.386-0.154l15.667-6.25c2.857-0.015,8.409-0.173,13.899-0.969c8.692-1.259,9.137-2.049,9.344-2.392
	c0.102-0.179,0.12-0.376,0.052-0.556c-0.071-0.147-0.176-0.266-0.327-0.377c-1.142-0.766-5.301-0.639-12.346,0.377
	c-0.447,0.067-0.901,0.14-1.349,0.213l13.3-5.313c-0.096-0.103-0.191-0.216-0.284-0.324l-17.299,6.9
	c1.648-0.377,3.546-0.757,5.69-1.062c7.736-1.117,11.171-1.031,12.047-0.451c0.874,0.586-1.151,1.459-8.878,2.576
	c-5.588,0.807-11.214,0.947-13.923,0.963L2.842,76.473l-0.704-1.769l9.529-3.813c1.796-1.893,5.41-5.426,10.782-9.408
	c8.001-5.94,11.902-7.978,13.204-7.899c1.309,0.077-0.454,2.243-8.455,8.174c-3.941,2.929-8.097,5.546-11.291,7.443l24.52-9.785
	c0-0.147,0-0.304,0-0.447L20.19,67.052C22.449,65.609,24.992,63.91,27.445,62.089z M40.479,60.436l0.052,0.314l0.154,0.188
	c0.086,0.114,0.179,0.207,0.266,0.32c0.093,0.108,0.188,0.223,0.284,0.324c5.588,6.273,12.608,3.357,20.031,0.27l0.188-0.078
	c9.914-4.129,24.611,6.222,24.768,6.332l1.012,0.727l0.25-1.227c0.42-2.088,0.283-4.039-0.4-5.772
	c-0.5-1.263-1.223-2.222-1.926-2.935c5.326-0.447,9.6-4.013,9.807-4.182l0.53-0.447l-0.36-0.586
	c-2.173-3.673-4.895-5.354-7.178-6.104c6.921-2.172,11.064-5.863,11.334-10.257l0.02-0.368l-0.287-0.259
	c-3.186-2.981-8.715-2.774-15.237,0.429c1.142-2.111,1.959-5.212,1.006-9.356l-0.147-0.679l-0.688,0.043
	c-0.271,0.019-5.835,0.379-9.991,3.715c0.02-0.988-0.121-2.188-0.627-3.45c-0.697-1.734-1.929-3.24-3.682-4.465l-1.03-0.712
	l-0.24,1.228c-0.028,0.182-3.559,17.808-13.59,21.641c-6.712,2.577-14.278,5.476-14.365,13.877c0,0.146,0,0.3,0,0.447
	C40.446,59.75,40.452,60.084,40.479,60.436z M54.835,45.802c10.757-4.11,14.337-22.613,14.337-22.613
	c5.732,4.002,3.682,9.668,3.682,9.668c3.989-4.823,11.377-5.252,11.377-5.252c1.916,8.396-3.728,12.266-3.728,12.266
	c8.261-5.262,15.04-5.94,18.435-2.78h0.006c-0.273,4.625-5.646,8.887-15.256,10.763c0,0,6.758-1.08,11.151,6.33
	c0,0-5.646,4.765-11.86,4.018c0,0,5.385,2.706,3.979,9.545c0,0-15.33-10.941-25.961-6.523c-7.952,3.305-14.716,6.199-20.141-0.593
	l-0.034-0.073C40.075,51.895,46.796,48.879,54.835,45.802z"/>
<path fill="#978EC2" d="M40.822,60.557l0.034,0.073c5.425,6.792,12.189,3.897,20.141,0.593c10.631-4.418,25.961,6.523,25.961,6.523
	c1.403-6.839-3.979-9.545-3.979-9.545c6.215,0.747,11.86-4.018,11.86-4.018c-4.394-7.41-11.151-6.33-11.151-6.33
	c9.609-1.876,14.981-6.138,15.256-10.763h-0.006c-3.395-3.16-10.174-2.481-18.435,2.78c0,0,5.644-3.87,3.728-12.266
	c0,0-7.388,0.429-11.377,5.252c0,0,2.053-5.666-3.682-9.668c0,0-3.58,18.502-14.337,22.613
	C46.796,48.879,40.075,51.895,40.822,60.557z M57.768,46.259c7.85-3.642,10.006-15.433,10.006-15.433
	c0.06,0.041,0.108,0.083,0.16,0.127c0.045-0.173,0.061-0.275,0.061-0.275c4.338,3.018,2.432,7.751,2.432,7.751
	c3.055-3.4,7.555-3.493,7.555-3.493c0.986,6.258-1.148,7.53-1.148,7.53c4.822-2.49,7.725-2.947,10.458-0.704v-0.009
	c-0.39,3.382-2.175,5.203-8.038,6.746c0,0,3.946,0.037,6.055,4.481c0,0-3.979,3.399-7.789,3.109c0,0,4.25,2.223,3.213,6.855
	c0,0-0.07-0.059-0.207-0.146c0,0.019,0,0.028,0,0.044c0,0-9.695-6.582-17.959-4.019c-6.026,1.874-16.176,6.995-21.287,1.521
	l0.009-0.019C40.908,53.316,52.342,48.777,57.768,46.259z"/>
<path fill="#F9F39F" d="M41.285,60.33l-0.009,0.02c5.11,5.475,15.259,0.353,21.287-1.521c8.264-2.563,17.959,4.02,17.959,4.02
	c0-0.017,0-0.025,0-0.045c0.927-4.721-3.906-7.029-3.906-7.029c4.326,0.521,8.371-2.885,8.371-2.885
	c-2.725-5.251-7.85-4.233-7.85-4.233c6.672-1.302,9.658-3.502,9.855-6.712c-2.352-2.197-5.956-1.873-11.684,1.777
	c0,0,3.613-2.62,2.283-8.458c0,0-4.832,0.534-7.615,3.891c0,0,1.719-5.385-2.043-8.199c-0.053-0.043-0.103-0.086-0.16-0.127
	c0,0-2.157,11.791-10.008,15.433C52.342,48.777,40.908,53.316,41.285,60.33z M67.496,42.544c1.65-2.364,4.678-2.438,4.678-2.438
	c0.697,4.308-0.736,5.709-0.736,5.709c2.558-1.83,5.356-2.123,6.974-0.398c0.016,2.225-1.427,3.617-5.159,4.33
	c-0.182,0.034-0.354,0.068-0.543,0.102c0.65-0.052,3.15,0.019,4.859,3.469c0,0-2.133,2.104-4.807,1.846c0,0,5.525,2.009,4.979,6.061
	c0,0-6.252-6.438-14.115-4.246c-3.582,1.004-18.03,7.356-21.582,3.09v-0.02c-0.552-5.193,14.267-11.066,17.629-12.748
	c6.323-3.15,8.021-13.179,8.021-13.179C70.391,36.354,67.496,42.544,67.496,42.544z"/>
<path fill="#F9F39F" d="M86.992,41.933c0,0,0,0,0,0.009h0.009L86.992,41.933z"/>
<path fill="#D32C5E" d="M78.167,45.503c-1.577-1.672-3.836-1.589-7.295,0.799c0,0,2.172-1.74,1.08-5.993c0,0-3.03,0.182-4.636,2.481
	c0,0,2.404-5.116,0.516-7.906c0,0-1.716,9.582-7.872,12.664c-3.289,1.636-17.996,7.246-17.462,12.304l0.006,0.024
	c3.453,4.156,17.463-2.259,20.946-3.231c7.678-2.135,13.893,3.879,13.893,3.879c0.413-3.379-5.132-5.479-5.132-5.479
	c2.746,0.556,5.15-1.728,5.15-1.728c-1.932-3.907-5.127-3.393-5.127-3.393c0.164-0.021,0.318-0.049,0.474-0.077
	c0.188-0.034,0.36-0.068,0.543-0.102C76.684,49.015,78.186,47.617,78.167,45.503z M70.045,55.625
	c-0.357-0.093-0.753-0.188-1.167-0.275c-0.376-0.066-0.756-0.136-1.166-0.176c-0.009,0-0.019,0-0.037,0
	c-0.323-0.037-0.666-0.043-1.026-0.027c-0.164,0-0.347,0.017-0.517,0.035c-0.38,0.023-0.78,0.066-1.202,0.145
	c-0.267,0.043-0.541,0.086-0.824,0.154c-0.188,0.033-0.396,0.08-0.6,0.127c-1.646,0.396-3.453,1.023-5.283,1.805
	c-0.777,0.337-2.342,0.9-4.178,1.46c-0.191,0.049-0.38,0.114-0.564,0.173c-0.297,0.083-0.604,0.169-0.91,0.256
	c-0.33,0.096-0.653,0.182-0.99,0.266c-0.197,0.053-0.395,0.104-0.592,0.147c-0.396,0.093-0.806,0.188-1.219,0.275
	c-0.154,0.032-0.309,0.067-0.463,0.096c-0.414,0.083-0.815,0.16-1.219,0.222c-0.237,0.043-0.481,0.077-0.722,0.103
	c-0.207,0.028-0.429,0.063-0.626,0.077c-0.506,0.053-0.991,0.076-1.435,0.076c-0.324,0-0.624-0.019-0.917-0.043
	c-0.266-0.023-0.491-0.063-0.731-0.117c-0.25-0.062-0.481-0.142-0.679-0.233c-0.17-0.083-0.333-0.17-0.454-0.29l0,0
	c0.019-0.02,0.019-0.023,0.019-0.056c0.102-0.333,0.274-0.687,0.54-1.056c0.419-0.617,1.055-1.26,1.792-1.914
	c0.309-0.256,0.621-0.516,0.963-0.779c0.13-0.105,0.256-0.207,0.395-0.309c0.29-0.214,0.602-0.438,0.91-0.651
	c1.201-0.843,2.478-1.634,3.709-2.327c0.293-0.173,0.58-0.346,0.875-0.499c0.188-0.103,0.357-0.198,0.53-0.29
	c0.38-0.198,0.75-0.387,1.083-0.559c0.17-0.078,0.309-0.146,0.444-0.227c0.438-0.207,0.843-0.383,1.161-0.531
	c0.162-0.062,0.299-0.117,0.429-0.173c0.024-0.006,0.06-0.025,0.086-0.031c0.38-0.139,0.747-0.284,1.104-0.441
	c0.158-0.049,0.293-0.111,0.433-0.17c0.396-0.173,0.796-0.345,1.176-0.515c0.146-0.068,0.283-0.136,0.42-0.197
	c0.396-0.182,0.757-0.376,1.132-0.556c0.148-0.086,0.313-0.173,0.463-0.259c0.338-0.191,0.654-0.379,0.967-0.568
	c0.289-0.182,0.556-0.361,0.82-0.54c0.06-0.071,0.139-0.129,0.226-0.173h0.016c0.429-0.321,0.81-0.645,1.154-0.969
	c0.17-0.173,0.358-0.346,0.513-0.524c0.067-0.077,0.12-0.158,0.189-0.235c0.119-0.151,0.238-0.305,0.359-0.463
	c0.172-0.222,0.323-0.444,0.463-0.667c0.273-0.414,0.496-0.808,0.688-1.16c0.24-0.438,0.416-0.814,0.533-1.064
	c0.103-0.231,0.15-0.361,0.15-0.361c0.034,0.148,0.063,0.284,0.088,0.432c0.086,0.349,0.129,0.701,0.139,1.034
	c0.009,0.167,0,0.318-0.02,0.475c-0.019,0.395-0.074,0.766-0.173,1.117c-0.116,0.383-0.256,0.753-0.429,1.086
	c-0.194,0.389-0.426,0.731-0.667,1.034c-0.62,0.787-1.271,1.312-1.589,1.527c1.416-1.046,2.632-1.256,3.685-0.944
	c0.333,0.102,0.647,0.241,0.959,0.438c0.183,0.126,0.353,0.265,0.517,0.419c0.172,0.059,0.3,0.191,0.369,0.364l0.008,0.006
	c0.086,0.096,0.173,0.179,0.259,0.281c0,0,0.04,0.052,0.05,0.071l-0.016,0.009c0.016,0.29,0.016,0.577,0.006,0.849
	c-0.016,0.438-0.086,0.838-0.223,1.209c-0.14,0.396-0.371,0.736-0.676,1.056c-0.277,0.25-0.587,0.489-0.996,0.679
	c-0.14,0.063-0.304,0.111-0.447,0.174c0.009,0.023,0.033,0.043,0.043,0.066c0.033,0.087,0.043,0.184,0.043,0.277
	c0.447,0.031,0.943,0.103,1.476,0.248c0.197,0.059,0.396,0.136,0.614,0.216c0.469,0.188,0.936,0.452,1.379,0.806
	c0.309,0.25,0.602,0.549,0.876,0.893c0.224,0.282,0.444,0.592,0.627,0.959C72.168,56.396,71.301,55.984,70.045,55.625z"/>
<path fill="#574331" d="M69.977,39.152c2.785-3.357,7.616-3.891,7.616-3.891c1.33,5.838-2.282,8.458-2.282,8.458
	c5.727-3.65,9.33-3.974,11.683-1.777c0-0.009,0-0.009,0-0.009l0.009,0.009h-0.009c-0.197,3.209-3.185,5.41-9.856,6.712
	c0,0,5.127-1.019,7.852,4.235c0,0-4.047,3.405-8.372,2.885c0,0,4.833,2.309,3.907,7.028c0.136,0.087,0.205,0.146,0.205,0.146
	c1.037-4.636-3.211-6.856-3.211-6.856c3.811,0.29,7.787-3.109,7.787-3.109C83.195,48.537,79.25,48.5,79.25,48.5
	c5.863-1.543,7.648-3.364,8.038-6.746v0.009c-2.733-2.244-5.636-1.787-10.458,0.704c0,0,2.136-1.271,1.148-7.53
	c0,0-4.5,0.093-7.555,3.493c0,0,1.906-4.733-2.432-7.751c0,0-0.016,0.102-0.061,0.275C71.695,33.768,69.977,39.152,69.977,39.152z
	 M67.693,34.12c0,0-1.697,10.029-8.021,13.179c-3.363,1.682-18.181,7.555-17.629,12.748v0.02c3.552,4.268,18-2.086,21.582-3.09
	c7.863-2.19,14.115,4.246,14.115,4.246c0.546-4.052-4.98-6.061-4.98-6.061c2.676,0.259,4.809-1.846,4.809-1.846
	c-1.711-3.45-4.209-3.521-4.86-3.469c-0.153,0.028-0.31,0.056-0.474,0.077c0,0,3.195-0.515,5.127,3.393c0,0-2.404,2.283-5.15,1.728
	c0,0,5.545,2.103,5.132,5.479c0,0-6.215-6.014-13.893-3.879c-3.483,0.974-17.493,7.389-20.946,3.231l-0.006-0.024
	c-0.534-5.058,14.173-10.667,17.462-12.304c6.156-3.083,7.872-12.664,7.872-12.664c1.889,2.79-0.516,7.906-0.516,7.906
	c1.604-2.299,4.636-2.481,4.636-2.481c1.092,4.252-1.08,5.993-1.08,5.993c3.459-2.388,5.718-2.472,7.295-0.799l0,0l0.009,0.009
	c0,0-0.009,0-0.009-0.009c0.019,2.114-1.483,3.512-4.916,4.243c3.733-0.713,5.175-2.104,5.159-4.33
	c-1.616-1.725-4.416-1.432-6.975,0.398c0,0,1.436-1.401,0.737-5.709c0,0-3.026,0.074-4.678,2.438
	C67.496,42.544,70.391,36.354,67.693,34.12z M78.167,45.503L78.167,45.503c0,0.009,0.009,0.009,0.009,0.009L78.167,45.503z
	 M65.49,53.352c0,0,0.16-0.035,0.42-0.06c0-0.01,0-0.028,0-0.037C65.762,53.282,65.65,53.325,65.49,53.352z M63.497,48.413
	c-0.019,0.012-0.034,0.028-0.063,0.037C63.436,48.45,63.463,48.441,63.497,48.413z M66.268,41.615c0,0-0.049,0.13-0.15,0.361
	c0.084,0,0.17,0.028,0.238,0.071C66.329,41.899,66.302,41.763,66.268,41.615z M66.302,43.204c0.067-0.025,0.14-0.071,0.191-0.124
	c-0.011-0.333-0.054-0.685-0.14-1.034c-0.067-0.043-0.153-0.071-0.237-0.071c-0.117,0.25-0.293,0.626-0.533,1.064
	C65.771,43.229,66.046,43.315,66.302,43.204z M66.079,44.404c0.053,0.114,0.121,0.198,0.223,0.269
	c0.099-0.352,0.154-0.722,0.173-1.117c0,0.006-0.019,0.006-0.023,0.006C66.116,43.701,65.953,44.071,66.079,44.404z M68.175,47.873
	c0.024-0.009,0.054-0.034,0.087-0.059c-0.313-0.198-0.627-0.336-0.96-0.438c0.007,0.049,0.007,0.096,0.021,0.136
	C67.453,47.848,67.832,48.012,68.175,47.873z M69.146,48.598c-0.07-0.173-0.197-0.306-0.371-0.364
	c0.14,0.111,0.257,0.241,0.377,0.371L69.146,48.598z M68.313,48.234c-0.346,0.13-0.496,0.506-0.363,0.833
	c0.133,0.336,0.5,0.5,0.843,0.361c0.327-0.126,0.481-0.491,0.36-0.824c-0.12-0.13-0.237-0.259-0.377-0.371
	C68.639,48.175,68.465,48.166,68.313,48.234z M68.932,49.786c-0.336,0.139-0.5,0.509-0.361,0.842c0.103,0.269,0.38,0.419,0.66,0.396
	c0.137-0.371,0.207-0.771,0.223-1.209C69.298,49.728,69.102,49.718,68.932,49.786z M70.434,55.301
	c0.127,0.324,0.51,0.487,0.844,0.352c0.106-0.045,0.193-0.119,0.265-0.215c-0.274-0.344-0.567-0.643-0.876-0.893
	C70.425,54.708,70.322,55.018,70.434,55.301z M65.309,45.407c0.323-0.132,0.48-0.503,0.357-0.83c-0.12-0.312-0.46-0.463-0.771-0.376
	c-0.139,0.222-0.289,0.444-0.463,0.667c0,0.071,0,0.126,0.034,0.182C64.592,45.386,64.975,45.546,65.309,45.407z M65.447,45.759
	c-0.327,0.142-0.5,0.515-0.361,0.845c0.023,0.077,0.066,0.133,0.12,0.188c0.241-0.302,0.474-0.645,0.667-1.034
	C65.736,45.71,65.583,45.71,65.447,45.759z M66.542,48.527c0.337-0.139,0.497-0.509,0.364-0.843c-0.139-0.333-0.506-0.5-0.842-0.361
	c-0.328,0.129-0.5,0.509-0.361,0.842C65.839,48.493,66.219,48.654,66.542,48.527z M66.689,48.879
	c-0.336,0.136-0.496,0.506-0.369,0.839c0.136,0.333,0.519,0.491,0.843,0.361c0.333-0.136,0.493-0.506,0.36-0.839
	C67.395,48.904,67.023,48.746,66.689,48.879z M67.316,50.431c-0.346,0.139-0.496,0.514-0.371,0.842
	c0.131,0.336,0.508,0.486,0.844,0.36c0.333-0.139,0.486-0.506,0.361-0.843C68.021,50.465,67.645,50.301,67.316,50.431z
	 M67.934,51.996c-0.309,0.117-0.461,0.443-0.375,0.762c0.409-0.188,0.719-0.429,0.996-0.679
	C68.372,51.952,68.15,51.909,67.934,51.996z M68.189,54.387c0.134,0.338,0.506,0.491,0.843,0.364
	c0.327-0.129,0.487-0.506,0.36-0.842c-0.033-0.068-0.066-0.117-0.106-0.17c-0.22-0.08-0.417-0.157-0.614-0.216
	c-0.044,0.019-0.084,0.009-0.117,0.026C68.218,53.678,68.055,54.055,68.189,54.387z M69.172,55.104
	c-0.121,0.049-0.223,0.146-0.294,0.246c0.414,0.088,0.81,0.184,1.167,0.275c-0.016-0.05-0.016-0.104-0.033-0.161
	C69.875,55.131,69.505,54.975,69.172,55.104z M63.676,46.052c0.303-0.12,0.444-0.419,0.397-0.722
	c-0.07,0.077-0.123,0.158-0.19,0.235c-0.154,0.179-0.343,0.352-0.513,0.524C63.469,46.105,63.574,46.096,63.676,46.052z
	 M64.293,47.617c0.346-0.139,0.509-0.515,0.379-0.842c-0.136-0.336-0.518-0.5-0.852-0.361c-0.323,0.129-0.484,0.506-0.357,0.842
	C63.589,47.58,63.979,47.747,64.293,47.617z M64.93,49.172c0.329-0.129,0.5-0.509,0.359-0.842c-0.137-0.336-0.512-0.491-0.848-0.361
	c-0.321,0.129-0.491,0.512-0.355,0.839C64.216,49.145,64.604,49.302,64.93,49.172z M65.91,49.885
	c-0.131-0.336-0.52-0.491-0.844-0.354c-0.323,0.129-0.496,0.497-0.36,0.83c0.13,0.336,0.519,0.5,0.84,0.362
	C65.873,50.595,66.046,50.218,65.91,49.885z M65.686,51.085c-0.324,0.127-0.49,0.503-0.361,0.84c0.139,0.327,0.516,0.49,0.843,0.361
	c0.336-0.14,0.5-0.513,0.36-0.849C66.4,51.109,66.021,50.945,65.686,51.085z M65.91,53.292c0.309-0.037,0.756-0.053,1.285-0.017
	c0-0.096-0.008-0.19-0.043-0.277c-0.008-0.023-0.033-0.043-0.043-0.066c-0.36,0.129-0.756,0.239-1.199,0.323
	C65.91,53.264,65.91,53.282,65.91,53.292z M65.91,53.292c0.006,0.06,0.02,0.129,0.033,0.188c0.136,0.326,0.513,0.49,0.84,0.36
	c0.24-0.096,0.395-0.317,0.412-0.563C66.666,53.239,66.219,53.255,65.91,53.292z M66.302,52.639
	c-0.256,0.102-0.403,0.352-0.392,0.616c0.443-0.084,0.839-0.194,1.199-0.323C66.939,52.646,66.613,52.518,66.302,52.639z
	 M67.779,54.555c-0.137-0.337-0.516-0.488-0.857-0.361c-0.316,0.13-0.48,0.507-0.352,0.843c0.016,0.04,0.043,0.077,0.076,0.11
	c0.361-0.016,0.703-0.01,1.027,0.027C67.816,54.998,67.866,54.77,67.779,54.555z M62.2,47.058c-0.087,0.043-0.166,0.102-0.226,0.173
	c0.077-0.062,0.157-0.111,0.24-0.173H62.2z M61.84,47.901c0.137,0.333,0.516,0.497,0.84,0.361c0.336-0.139,0.5-0.509,0.36-0.842
	c-0.127-0.327-0.497-0.488-0.824-0.361c-0.083,0.062-0.163,0.111-0.239,0.173C61.807,47.401,61.744,47.66,61.84,47.901z
	 M63.309,49.823c0.334-0.139,0.487-0.516,0.35-0.852c-0.117-0.327-0.494-0.491-0.83-0.358c-0.337,0.132-0.491,0.515-0.364,0.839
	C62.596,49.786,62.969,49.95,63.309,49.823z M63.926,51.369c0.333-0.13,0.49-0.51,0.361-0.836c-0.133-0.333-0.508-0.487-0.837-0.358
	c-0.339,0.126-0.497,0.507-0.367,0.83C63.213,51.342,63.589,51.505,63.926,51.369z M64.555,52.932
	c0.321-0.14,0.485-0.507,0.358-0.844c-0.136-0.333-0.517-0.486-0.84-0.357c-0.339,0.137-0.499,0.506-0.363,0.84
	C63.839,52.906,64.21,53.061,64.555,52.932z M64.689,53.282c-0.336,0.139-0.498,0.513-0.359,0.843
	c0.126,0.333,0.506,0.497,0.839,0.361c0.327-0.131,0.491-0.508,0.358-0.844C65.393,53.316,65.016,53.152,64.689,53.282z
	 M65.309,54.848c-0.207,0.084-0.346,0.266-0.379,0.479c0.422-0.077,0.822-0.12,1.202-0.145
	C65.996,54.861,65.632,54.718,65.309,54.848z M61.064,48.904c0.328-0.126,0.496-0.506,0.36-0.83
	c-0.052-0.139-0.153-0.235-0.271-0.303c-0.313,0.188-0.629,0.376-0.967,0.568c0,0.068,0,0.142,0.037,0.213
	C60.354,48.879,60.73,49.033,61.064,48.904z M61.686,50.465c0.324-0.126,0.496-0.506,0.357-0.839
	c-0.126-0.336-0.516-0.497-0.836-0.361c-0.33,0.129-0.5,0.506-0.364,0.83C60.98,50.431,61.355,50.595,61.686,50.465z M62.303,52.021
	c0.336-0.137,0.5-0.517,0.364-0.84c-0.124-0.337-0.51-0.49-0.843-0.365c-0.327,0.129-0.494,0.507-0.364,0.843
	C61.6,51.986,61.977,52.146,62.303,52.021z M62.93,53.575c0.336-0.134,0.486-0.507,0.36-0.843c-0.127-0.326-0.506-0.487-0.843-0.36
	c-0.334,0.139-0.497,0.517-0.37,0.843C62.216,53.551,62.596,53.702,62.93,53.575z M63.074,53.934
	c-0.334,0.133-0.497,0.51-0.371,0.844c0.133,0.326,0.51,0.486,0.846,0.359c0.334-0.139,0.491-0.515,0.367-0.842
	C63.779,53.961,63.4,53.795,63.074,53.934z M63.691,55.488c-0.065,0.025-0.127,0.07-0.187,0.117c0.204-0.047,0.41-0.092,0.599-0.127
	C63.969,55.438,63.833,55.427,63.691,55.488z M59.445,49.555c0.332-0.136,0.486-0.503,0.359-0.839
	c-0.019-0.052-0.062-0.086-0.08-0.117c-0.375,0.179-0.736,0.374-1.132,0.556c0.009,0.018,0,0.024,0.009,0.043
	C58.732,49.521,59.107,49.685,59.445,49.555z M60.063,51.109c0.334-0.129,0.5-0.506,0.371-0.842c-0.14-0.324-0.52-0.488-0.844-0.361
	c-0.346,0.139-0.497,0.518-0.369,0.845C59.35,51.085,59.727,51.249,60.063,51.109z M60.688,52.665
	c0.328-0.13,0.498-0.506,0.361-0.842c-0.139-0.337-0.516-0.491-0.843-0.354c-0.333,0.13-0.497,0.5-0.36,0.833
	C59.979,52.639,60.354,52.801,60.688,52.665z M61.307,54.218c0.326-0.13,0.5-0.503,0.36-0.84c-0.13-0.327-0.506-0.483-0.843-0.353
	c-0.324,0.127-0.493,0.507-0.357,0.83C60.604,54.191,60.973,54.355,61.307,54.218z M61.443,54.578
	c-0.323,0.13-0.489,0.507-0.359,0.843c0.139,0.327,0.516,0.49,0.842,0.358c0.324-0.127,0.5-0.516,0.367-0.84
	C62.157,54.605,61.777,54.441,61.443,54.578z M57.822,50.2c0.326-0.139,0.496-0.506,0.359-0.842l-0.009-0.006
	c-0.38,0.17-0.78,0.342-1.176,0.515C57.143,50.175,57.504,50.329,57.822,50.2z M58.448,51.755c0.333-0.13,0.487-0.506,0.352-0.833
	c-0.126-0.333-0.506-0.497-0.829-0.371c-0.337,0.139-0.5,0.52-0.373,0.842C57.734,51.73,58.111,51.895,58.448,51.755z
	 M59.064,53.307c0.336-0.125,0.49-0.498,0.353-0.83c-0.126-0.336-0.497-0.498-0.823-0.362c-0.343,0.132-0.507,0.509-0.377,0.842
	C58.355,53.282,58.732,53.441,59.064,53.307z M59.691,54.872c0.326-0.14,0.48-0.511,0.353-0.843
	c-0.13-0.338-0.503-0.487-0.833-0.361c-0.343,0.139-0.497,0.506-0.371,0.843C58.971,54.848,59.35,54.998,59.691,54.872z
	 M59.831,55.225c-0.327,0.125-0.497,0.515-0.36,0.838c0.129,0.334,0.508,0.5,0.842,0.361c0.324-0.13,0.49-0.506,0.357-0.833
	C60.534,55.258,60.154,55.094,59.831,55.225z M56.208,50.854c0.31-0.133,0.481-0.494,0.356-0.817
	c-0.356,0.157-0.725,0.302-1.104,0.441c-0.027,0.006-0.063,0.024-0.086,0.031C55.521,50.829,55.881,50.971,56.208,50.854z
	 M56.825,52.406c0.336-0.137,0.497-0.514,0.36-0.844c-0.129-0.332-0.516-0.492-0.846-0.356c-0.32,0.126-0.494,0.506-0.357,0.842
	C56.111,52.381,56.498,52.535,56.825,52.406z M57.445,53.961c0.332-0.136,0.496-0.506,0.357-0.842
	c-0.13-0.334-0.507-0.491-0.84-0.361c-0.326,0.137-0.5,0.506-0.361,0.84C56.742,53.934,57.118,54.088,57.445,53.961z M58.061,55.514
	c0.346-0.127,0.5-0.506,0.369-0.84c-0.127-0.326-0.503-0.49-0.849-0.352c-0.327,0.127-0.49,0.506-0.36,0.83
	C57.355,55.488,57.734,55.652,58.061,55.514z M58.208,55.878c-0.337,0.126-0.491,0.503-0.358,0.839
	c0.127,0.327,0.506,0.487,0.844,0.361c0.33-0.137,0.492-0.516,0.367-0.844C58.92,55.902,58.541,55.738,58.208,55.878z
	 M54.575,51.496c0.327-0.127,0.481-0.491,0.37-0.814c-0.317,0.147-0.723,0.323-1.16,0.53C53.958,51.486,54.282,51.619,54.575,51.496
	z M55.202,53.051c0.336-0.13,0.487-0.509,0.36-0.842c-0.129-0.324-0.506-0.488-0.842-0.361c-0.334,0.131-0.492,0.517-0.361,0.842
	C54.488,53.025,54.878,53.189,55.202,53.051z M56.18,53.764c-0.125-0.324-0.506-0.486-0.839-0.352
	c-0.327,0.13-0.487,0.506-0.354,0.833c0.134,0.333,0.51,0.487,0.837,0.36C56.154,54.477,56.318,54.098,56.18,53.764z M56.445,56.165
	c0.33-0.138,0.5-0.513,0.361-0.849c-0.137-0.327-0.514-0.479-0.841-0.354c-0.329,0.13-0.499,0.51-0.36,0.844
	C55.734,56.131,56.111,56.294,56.445,56.165z M56.584,56.52c-0.322,0.127-0.486,0.506-0.357,0.84c0.133,0.326,0.517,0.49,0.836,0.36
	c0.338-0.126,0.5-0.506,0.364-0.839C57.288,56.544,56.918,56.381,56.584,56.52z M52.962,52.141c0.293-0.113,0.429-0.41,0.379-0.703
	c-0.333,0.174-0.702,0.36-1.083,0.56C52.438,52.175,52.712,52.245,52.962,52.141z M53.579,53.702c0.327-0.136,0.5-0.513,0.364-0.841
	c-0.133-0.336-0.51-0.498-0.846-0.359c-0.322,0.126-0.492,0.506-0.355,0.83C52.875,53.668,53.255,53.832,53.579,53.702z
	 M53.718,54.055c-0.327,0.129-0.479,0.506-0.352,0.832c0.126,0.338,0.506,0.5,0.833,0.371c0.333-0.137,0.496-0.507,0.357-0.853
	C54.432,54.082,54.051,53.928,53.718,54.055z M54.825,56.811c0.334-0.137,0.491-0.506,0.36-0.844
	c-0.129-0.333-0.506-0.486-0.843-0.359c-0.333,0.132-0.489,0.509-0.352,0.845C54.111,56.785,54.488,56.941,54.825,56.811z
	 M54.971,57.164c-0.337,0.139-0.5,0.516-0.357,0.843c0.127,0.324,0.507,0.494,0.83,0.367c0.334-0.14,0.49-0.517,0.369-0.843
	C55.674,57.195,55.298,57.035,54.971,57.164z M51.348,52.785c0.207-0.086,0.344-0.283,0.381-0.499
	c-0.297,0.153-0.584,0.325-0.877,0.499C50.993,52.844,51.166,52.852,51.348,52.785z M51.968,54.348
	c0.324-0.14,0.488-0.507,0.358-0.843c-0.137-0.334-0.516-0.487-0.844-0.36c-0.319,0.133-0.496,0.508-0.356,0.846
	C51.266,54.313,51.632,54.477,51.968,54.348z M52.104,54.699c-0.326,0.139-0.5,0.506-0.359,0.842
	c0.136,0.337,0.515,0.486,0.842,0.361c0.324-0.131,0.494-0.506,0.357-0.844C52.809,54.725,52.432,54.568,52.104,54.699z
	 M52.73,56.254c-0.338,0.137-0.498,0.503-0.371,0.84c0.14,0.336,0.516,0.49,0.853,0.36c0.313-0.129,0.487-0.506,0.349-0.839
	C53.434,56.288,53.059,56.124,52.73,56.254z M54.189,58.177c-0.129-0.334-0.506-0.497-0.834-0.37
	c-0.342,0.139-0.506,0.516-0.367,0.85c0.088,0.216,0.285,0.345,0.492,0.389c0.185-0.059,0.373-0.124,0.563-0.173
	C54.215,58.701,54.282,58.414,54.189,58.177z M50.342,54.989c0.336-0.128,0.491-0.503,0.352-0.843
	c-0.125-0.321-0.497-0.487-0.82-0.354c-0.345,0.126-0.5,0.503-0.367,0.839C49.632,54.964,50.008,55.131,50.342,54.989z
	 M50.487,55.35c-0.33,0.131-0.497,0.51-0.358,0.834c0.12,0.336,0.5,0.5,0.839,0.36c0.331-0.13,0.481-0.506,0.355-0.833
	C51.193,55.378,50.816,55.214,50.487,55.35z M51.107,56.905c-0.328,0.13-0.498,0.506-0.361,0.833
	c0.139,0.332,0.509,0.496,0.843,0.361c0.327-0.131,0.49-0.5,0.36-0.834C51.811,56.93,51.439,56.77,51.107,56.905z M52.568,58.82
	c-0.139-0.329-0.508-0.489-0.842-0.36c-0.33,0.136-0.5,0.507-0.36,0.84c0.05,0.114,0.116,0.188,0.213,0.267
	c0.337-0.084,0.659-0.17,0.989-0.267C52.619,59.154,52.625,58.984,52.568,58.82z M48.722,55.634c0.324-0.13,0.497-0.503,0.358-0.839
	c-0.126-0.327-0.506-0.49-0.839-0.354c-0.327,0.127-0.497,0.508-0.364,0.83C48.009,55.605,48.395,55.771,48.722,55.634z
	 M48.867,55.998c-0.333,0.126-0.5,0.503-0.367,0.839c0.136,0.334,0.512,0.488,0.849,0.353c0.327-0.121,0.491-0.5,0.352-0.834
	C49.57,56.02,49.194,55.865,48.867,55.998z M49.493,57.547c-0.342,0.139-0.506,0.506-0.379,0.844
	c0.139,0.336,0.518,0.489,0.852,0.359c0.333-0.136,0.491-0.506,0.358-0.839C50.197,57.575,49.82,57.421,49.493,57.547z
	 M50.113,59.104c-0.336,0.139-0.5,0.515-0.37,0.852c0.006,0.009,0.025,0.016,0.025,0.034c0.413-0.087,0.824-0.183,1.218-0.275
	c0-0.086-0.006-0.173-0.033-0.25C50.816,59.136,50.438,58.977,50.113,59.104z M47.108,56.288c0.324-0.14,0.491-0.509,0.358-0.843
	c-0.068-0.154-0.188-0.271-0.324-0.334c-0.309,0.214-0.62,0.438-0.91,0.652c0.006,0.051,0.019,0.113,0.034,0.162
	C46.404,56.254,46.771,56.424,47.108,56.288z M47.725,57.843c0.327-0.139,0.5-0.509,0.361-0.842
	c-0.139-0.337-0.506-0.491-0.842-0.36c-0.324,0.135-0.497,0.506-0.358,0.842C47.021,57.814,47.392,57.97,47.725,57.843z
	 M47.864,58.191c-0.327,0.14-0.487,0.519-0.364,0.843c0.139,0.333,0.518,0.491,0.842,0.36c0.336-0.129,0.5-0.506,0.361-0.843
	C48.574,58.227,48.2,58.063,47.864,58.191z M48.49,59.757c-0.231,0.097-0.389,0.31-0.404,0.55c0.404-0.063,0.806-0.14,1.219-0.223
	C49.169,59.771,48.805,59.627,48.49,59.757z M45.476,56.93c0.342-0.125,0.497-0.506,0.361-0.839c0-0.01,0-0.01,0-0.019
	c-0.342,0.265-0.654,0.523-0.963,0.779C45.043,56.977,45.269,57.018,45.476,56.93z M46.102,58.484
	c0.336-0.127,0.487-0.506,0.361-0.84c-0.129-0.326-0.506-0.489-0.833-0.352c-0.333,0.127-0.497,0.494-0.371,0.83
	C45.398,58.46,45.766,58.614,46.102,58.484z M46.25,58.843c-0.336,0.134-0.503,0.511-0.364,0.847
	c0.13,0.326,0.509,0.483,0.843,0.357c0.33-0.14,0.49-0.507,0.361-0.849C46.954,58.871,46.574,58.71,46.25,58.843z M46.867,60.4
	c-0.052,0.017-0.086,0.054-0.129,0.084c0.197-0.016,0.419-0.049,0.626-0.077C47.209,60.34,47.04,60.33,46.867,60.4z M44,57.936
	c-0.33,0.127-0.491,0.506-0.364,0.84c0.139,0.328,0.519,0.49,0.842,0.36c0.333-0.136,0.5-0.512,0.361-0.839
	C44.71,57.961,44.34,57.807,44,57.936z M45.46,59.854c-0.129-0.328-0.497-0.494-0.833-0.355c-0.333,0.13-0.5,0.5-0.367,0.833
	c0.034,0.077,0.08,0.14,0.126,0.188c0.293,0.023,0.592,0.043,0.917,0.043C45.494,60.383,45.562,60.107,45.46,59.854z M43.201,58.948
	c-0.028-0.068-0.077-0.128-0.12-0.183c-0.266,0.369-0.438,0.723-0.54,1.055c0.102,0.014,0.207,0.014,0.293-0.03
	C43.173,59.664,43.337,59.281,43.201,58.948z M42.976,60.167c0.197,0.093,0.429,0.173,0.679,0.233
	C43.5,60.186,43.235,60.09,42.976,60.167z"/>
</svg>
