<svg xmlns="http://www.w3.org/2000/svg" width="211" height="291" id="svgcontent" overflow="hidden" x="0" y="0" viewBox="0 0 211 291"><g style="pointer-events:all" mask=""><title style="pointer-events:inherit">Layer 1</title><g id="svg_2" type="text" text="Kids" font-size="76.12754" font-family="Alex Brush" fill="3f007f" stroke="0" stroke-width="0" text-anchor="start" font-weight="normal" font-style="normal" lineHeight="1" shapeId="0" shapeVal="0" display="null" style="pointer-events:inherit"><path d="M51.8628,203.26297C43.61052,203.26297 38.96397,199.13684 39.00114,190.77304C39.00114,188.69137 39.41004,186.75842 40.22783,184.97415C42.79273,179.2496 46.733,175.34649 51.93715,173.11615C54.87377,171.85226 57.8104,171.22034 60.6355,171.18317C64.2784,171.10883 66.62026,172.81876 66.84329,176.12711C66.91764,177.46531 66.47156,178.20878 65.72812,176.98209C64.05536,174.08261 62.97736,173.11615 59.85487,173.11615C50.97066,173.11615 42.04928,183.82181 42.04928,192.07407C42.04928,197.68711 45.35763,201.33002 51.93715,201.33002C54.1675,201.33002 57.06694,200.36353 60.56115,198.39341C66.24853,195.1594 72.30764,189.54636 78.73846,181.62864C74.31494,176.83338 78.9615,168.24656 85.65254,168.24656C86.43316,168.24656 87.13943,168.3209 87.80854,168.46958C90.33627,164.19477 92.78966,159.58539 95.16869,154.64145C97.54773,149.69751 98.77442,146.83524 98.77442,146.09177C98.77442,145.98026 98.58855,145.94309 98.29117,145.94309C96.99014,146.20331 87.21379,151.3331 86.09861,152.11371C84.27716,153.45194 78.18089,158.35867 78.14371,161.14661C78.55262,163.00525 80.52275,163.74869 83.60807,163.63718C83.86827,163.74869 83.97979,163.89737 83.97979,164.08326C83.83111,164.56648 79.44476,165.04972 78.58979,165.04972C76.76834,165.04972 75.83903,164.26911 75.83903,162.74503C75.83903,158.13565 82.4929,152.48545 86.28448,150.47812C93.86766,146.50067 98.62574,144.41904 100.67022,144.41904C101.74821,144.41904 102.26862,144.79074 102.26862,145.53421C102.26862,148.61951 97.99379,157.50372 89.48131,172.11249C89.81586,173.48786 90.37345,175.08628 91.15407,176.90772C91.15407,176.90772 113.82925,159.62256 113.82925,159.62256C122.49042,153.04303 128.36368,148.76819 131.41181,146.90958C138.17719,142.82062 144.86823,140.8133 151.44776,140.8133C153.34354,140.8133 155.05347,141.14786 156.61472,141.74262C157.5812,142.11432 158.06446,142.74628 158.06446,143.71274C158.10163,145.3855 157.09797,145.49701 156.35453,144.53055C156.01997,144.12164 155.05347,143.93579 153.45505,143.93579C143.23264,143.93579 135.8725,147.98758 126.31919,153.67496C119.1449,157.91263 98.47704,174.38001 91.82317,178.50614C94.38807,183.93333 97.73359,188.98878 101.82256,193.67249C108.1047,200.92112 113.60622,204.52686 118.62449,204.52686C121.0407,204.52686 122.2674,203.59754 122.30457,201.73893C122.00719,200.58659 122.23023,198.80228 123.3454,198.61643C124.16318,198.46775 124.72077,200.28919 124.72077,201.73893C124.72077,207.20325 115.42766,208.50431 110.70676,206.23679C102.15711,202.11063 92.864,189.84375 89.18393,180.10456C86.396,181.74015 84.05413,182.6323 82.23268,182.78098C78.85,187.2045 74.64951,191.47931 69.6684,195.64264C65.17054,199.39703 58.99991,203.26297 51.8628,203.26297C51.8628,203.26297 51.8628,203.26297 51.8628,203.26297M85.65254,171.96381C81.9353,170.10517 78.77564,175.38367 81.19185,178.50614C83.6824,174.97477 85.16929,172.78159 85.65254,171.96381C85.65254,171.96381 85.65254,171.96381 85.65254,171.96381M84.53737,179.80719C86.50751,179.77002 86.396,179.54697 88.55199,178.50613C88.1431,177.5025 87.84572,176.46167 87.58551,175.458C87.58551,175.458 84.53737,179.80718 84.53737,179.80718M107.39842,193.2636C106.98952,189.21178 115.57636,174.56585 119.1449,174.56585C119.99987,174.56585 121.85849,175.56951 121.78415,176.38729C118.66165,180.55062 110.26069,190.4013 110.29787,194.00704C110.29787,195.86565 110.9298,196.79497 112.19366,196.79497C113.27166,196.79497 114.68421,196.16304 116.54283,195.0107C120.78049,192.37145 124.16318,189.50917 126.65375,186.34951C127.58306,185.19717 128.21497,184.60241 128.54953,184.60241C128.88408,184.60241 129.03278,184.78829 129.03278,185.19717C126.72809,188.91442 122.19306,193.04055 118.58731,195.67981C116.54283,197.20389 114.60986,198.31906 111.30151,198.31906C108.73662,198.31906 107.73297,196.60913 107.39841,193.26361C107.39841,193.26361 107.39841,193.26361 107.39841,193.26361M125.20401,171.25751C123.79147,171.25751 122.19305,169.91931 122.19305,168.54395C122.19305,167.13138 123.15953,166.42511 125.05531,166.38794C126.43071,166.35077 128.25213,167.46594 128.25213,168.84131C128.25213,170.17951 126.57939,171.25751 125.204,171.25751C125.204,171.25751 125.204,171.25751 125.204,171.25751M130.92855,197.83582C127.65737,198.02167 125.0553,195.71698 125.0553,192.52015C125.0553,188.80293 127.62021,184.3794 132.78717,179.24961C137.95413,174.11979 142.7122,171.51774 147.02422,171.51774C149.40325,171.51774 150.18389,172.14967 150.70429,174.38001C156.35451,165.16123 160.29477,160.55185 162.56229,160.55185C163.67748,160.55185 165.90781,161.36966 164.64394,162.89371C159.06807,169.62192 146.72683,184.41657 145.68601,190.40131C145.23993,193.00339 145.53731,195.94001 148.25091,195.94001C152.00532,195.94001 156.87492,192.40864 162.93402,185.49458C163.3801,184.97416 163.86334,184.67677 164.23508,184.6396C165.16439,184.56526 164.75548,185.27153 164.30941,185.82911C158.39899,192.89188 153.15768,196.75782 148.62266,197.61277C145.05409,198.2819 142.86094,195.49397 142.86094,192.52015C142.86094,191.10761 143.12113,189.54636 143.67872,187.79926C140.51907,190.77305 135.05471,197.61277 130.92857,197.83582C130.92857,197.83582 130.92857,197.83582 130.92857,197.83582M128.25215,193.4123C128.25215,195.23374 128.88409,196.16306 130.14796,196.16306C132.34112,196.16306 135.94685,193.18924 141.03947,187.2045C141.96879,186.1265 144.97975,182.14905 150.14672,175.23496C149.81217,174.60303 149.18024,174.30567 148.32526,174.30567C145.16562,174.30567 141.03946,176.6847 135.90967,181.47996C130.77988,186.27519 128.25214,190.25263 128.25214,193.4123C128.25214,193.4123 128.25214,193.4123 128.25214,193.4123M169.81095,197.61277C164.38376,197.35258 163.49161,193.78403 161.9304,188.69138C161.00108,189.6207 160.36915,190.06678 160.03459,190.06678C159.40266,190.06678 159.73721,188.98878 160.03459,188.61704C163.82619,184.04484 172.85908,175.64386 178.17473,170.66276C180.92551,168.09788 182.56108,166.79682 183.04434,166.79682C185.68358,166.61097 186.0553,168.95283 184.75426,170.40256C181.89199,173.5994 181.63178,175.38367 180.18206,182.44641C179.17841,187.35318 178.5093,190.81021 178.02605,192.74319C182.22654,192.70602 186.53855,189.91809 191.0364,184.52807C191.48248,184.00765 191.92855,183.78463 192.18874,183.78463C192.44896,183.78463 192.56047,183.89614 192.56047,184.23067C192.56047,184.56523 192.33743,185.04848 191.8542,185.60607C186.94743,190.95891 185.01446,193.2264 177.6915,194.71331C175.60985,196.16305 173.3795,197.76147 169.81096,197.61275C169.81096,197.61275 169.81096,197.61275 169.81096,197.61275M165.05287,187.0186C164.1979,191.99971 169.7366,195.45674 173.82558,192.89186C176.24178,191.36778 178.47213,179.32393 178.62081,175.01192C178.62081,175.01192 178.9182,172.40984 178.9182,172.40984C176.13027,174.49151 173.11928,177.16793 169.95964,180.47628C166.79997,183.78463 165.23872,185.97781 165.05287,187.01861C165.05287,187.01861 165.05287,187.01861 165.05287,187.01861" stroke-width="0" stroke="#000000" fill="#3f007f" id="svg_28" style="pointer-events:inherit"/></g><g transform="rotate(-42.3263, -8.80664, 181.459)" stroke-width="2" id="svg_1" type="text" text="for" font-size="48.55122" font-family="Aleo" fill="ffffff" stroke="3f007f" text-anchor="start" font-weight="normal" font-style="normal" lineHeight="1" shapeId="0" shapeVal="0" display="null" style="pointer-events:inherit"><path stroke-width="2" d="M-14.11633,207.62244C-14.40762,201.14109 -8.99436,197.42704 -2.6101,199.29621C-2.6101,199.29621 -2.7072,201.45667 -2.7072,201.45667C-2.75575,202.40339 -3.96949,202.13636 -4.96475,202.13636C-8.26611,202.13636 -9.9168,204.0055 -9.9168,207.74381C-9.9168,207.74381 -9.9168,210.00138 -9.9168,210.00138C-9.9168,210.00138 -2.8043,210.00138 -2.8043,210.00138C-2.8043,210.00138 -2.8043,213.13282 -2.8043,213.13282C-2.8043,213.13282 -9.77115,213.13282 -9.77115,213.13282C-9.77115,213.13282 -9.77115,230.56208 -9.77115,230.56208C-7.85344,230.87766 -6.78536,231.07185 -6.54261,231.1204C-5.4017,231.29032 -5.93574,232.94102 -5.81437,234.10618C-5.81437,234.10618 -17.87892,234.10618 -17.87892,234.10618C-17.75755,232.94102 -18.29159,231.33888 -17.1264,231.1204C-17.1264,231.1204 -14.11633,230.56208 -14.11633,230.56208C-14.11633,230.56208 -14.11633,213.20563 -14.11633,213.20563C-15.47572,212.96289 -18.00029,213.20563 -18.00029,211.77344C-18.00029,211.77344 -18.00029,210.00138 -18.00029,210.00138C-18.00029,210.00138 -14.11633,210.00138 -14.11633,210.00138C-14.11633,210.00138 -14.11633,207.62244 -14.11633,207.62244C-14.11633,207.62244 -14.11633,207.62244 -14.11633,207.62244M6.63858,210.02564C9.45445,208.83619 13.58116,208.83619 16.37276,210.02564C20.66939,211.82197 23.19397,215.80304 23.19397,221.79889C23.19397,227.81903 20.64512,231.75153 16.34849,233.54785C13.53262,234.73733 9.43019,234.73733 6.63859,233.54785C2.34197,231.75152 -0.25543,227.81903 -0.25543,221.79889C-0.25543,215.80304 2.34197,211.82196 6.63859,210.02564C6.63859,210.02564 6.63859,210.02564 6.63859,210.02564M4.21112,221.82319C4.21112,227.28498 6.1531,231.07185 11.49354,231.07185C16.66406,231.07185 18.75169,227.23646 18.72742,221.82319C18.72742,216.38563 16.66407,212.52595 11.49354,212.52595C6.12882,212.52595 4.21112,216.36137 4.21112,221.82319C4.21112,221.82319 4.21112,221.82319 4.21112,221.82319M43.19636,213.78825C42.24964,213.7397 41.40003,213.32701 40.06492,213.32701C37.24905,213.32701 35.13714,215.02626 33.75348,218.44899C33.75348,218.44899 33.75348,230.56209 33.75348,230.56209C33.75348,230.56209 36.5208,231.12041 36.5208,231.12041C37.66171,231.29033 37.12767,232.94103 37.24905,234.10619C37.24905,234.10619 25.93702,234.10619 25.93702,234.10619C26.0584,232.94103 25.52435,231.33889 26.66526,231.12041C26.66526,231.12041 29.43259,230.56209 29.43259,230.56209C29.43259,230.56209 29.43259,213.06001 29.43259,213.06001C27.879,212.74443 26.95656,212.57451 26.66526,212.50169C25.52435,212.33174 26.0584,210.68107 25.93702,209.51588C25.93702,209.51588 31.90861,209.51588 31.90861,209.51588C32.90387,209.51588 33.1709,209.83146 33.24372,210.70533C33.24372,210.70533 33.53502,214.54075 33.53502,214.54075C35.33135,210.89955 37.83164,209.07893 41.01164,209.07893C42.27393,209.07893 43.39057,209.37022 44.38583,209.95283C44.38583,209.95283 43.82751,213.18138 43.82751,213.18138C43.70613,213.59404 43.51194,213.78825 43.19637,213.78825C43.19637,213.78825 43.19637,213.78825 43.19637,213.78825" stroke="#3f007f" fill="#ffffff" id="svg_16" style="pointer-events:inherit"/></g><g id="svg_7" type="text" text="Walk" font-size="47.1954" font-family="SF Collegiate" fill="3f007f" stroke="0" stroke-width="0" text-anchor="start" font-weight="normal" font-style="normal" lineHeight="1" shapeId="0" shapeVal="0" display="null" style="pointer-events:inherit"><path id="svg_12" d="M107.83879,105.81328C107.83879,105.81328 100.75944,143.56976 100.75944,143.56976C100.75944,143.56976 77.94824,143.56976 77.94824,143.56976C77.94824,143.56976 71,105.81328 71,105.81328C71,105.81328 82.7989,105.81328 82.7989,105.81328C82.7989,105.81328 84.37208,113.15482 84.37208,113.15482C84.37208,113.15482 85.55197,105.81328 85.55197,105.81328C85.55197,105.81328 93.28681,105.81328 93.28681,105.81328C93.28681,105.81328 94.4667,113.15482 94.4667,113.15482C94.4667,113.15482 95.90879,105.81328 95.90879,105.81328C95.90879,105.81328 107.83878,105.81328 107.83878,105.81328C107.83878,105.81328 107.83878,105.81328 107.83878,105.81328M106.65889,106.73097C106.65889,106.73097 96.82646,106.73097 96.82646,106.73097C96.82646,106.73097 94.33558,118.39877 94.33558,118.39877C94.33558,118.39877 92.50019,106.73097 92.50019,106.73097C92.50019,106.73097 86.33855,106.73097 86.33855,106.73097C86.33855,106.73097 84.50317,118.39877 84.50317,118.39877C84.50317,118.39877 82.01229,106.73097 82.01229,106.73097C82.01229,106.73097 72.17988,106.73097 72.17988,106.73097C72.17988,106.73097 78.73482,142.65207 78.73482,142.65207C78.73482,142.65207 88.69834,142.65207 88.69834,142.65207C88.69834,142.65207 89.35383,138.1947 89.35383,138.1947C89.35383,138.1947 90.14042,142.65207 90.14042,142.65207C90.14042,142.65207 99.97283,142.65207 99.97283,142.65207C99.97283,142.65207 106.65888,106.73097 106.65888,106.73097M104.9546,108.17306C104.9546,108.17306 98.79295,141.20999 98.79295,141.20999C98.79295,141.20999 91.32031,141.20999 91.32031,141.20999C91.32031,141.20999 89.35383,130.19768 89.35383,130.19768C89.35383,130.19768 87.51844,141.20999 87.51844,141.20999C87.51844,141.20999 79.9147,141.20999 79.9147,141.20999C79.9147,141.20999 73.88415,108.17306 73.88415,108.17306C73.88415,108.17306 80.96349,108.17306 80.96349,108.17306C80.96349,108.17306 84.63426,126.39581 84.63426,126.39581C84.63426,126.39581 87.51844,108.17306 87.51844,108.17306C87.51844,108.17306 91.3203,108.17306 91.3203,108.17306C91.3203,108.17306 94.07338,126.39581 94.07338,126.39581C94.07338,126.39581 97.87524,108.17306 97.87524,108.17306C97.87524,108.17306 104.95459,108.17306 104.95459,108.17306C104.95459,108.17306 104.95459,108.17306 104.95459,108.17306M132.87865,143.56976C132.87865,143.56976 121.73525,143.56976 121.73525,143.56976C121.73525,143.56976 121.07976,139.3746 121.07976,139.3746C121.07976,139.3746 119.63767,139.3746 119.63767,139.3746C119.63767,139.3746 118.85108,143.56976 118.85108,143.56976C118.85108,143.56976 107.70768,143.56976 107.70768,143.56976C107.70768,143.56976 114.13152,109.09075 114.13152,109.09075C114.13152,109.09075 126.58591,109.09075 126.58591,109.09075C126.58591,109.09075 132.87865,143.56976 132.87865,143.56976M131.82987,142.65207C131.82987,142.65207 125.66822,110.00845 125.66822,110.00845C125.66822,110.00845 114.91811,110.00845 114.91811,110.00845C114.91811,110.00845 108.88756,142.65207 108.88756,142.65207C108.88756,142.65207 118.06449,142.65207 118.06449,142.65207C118.06449,142.65207 118.85108,138.32581 118.85108,138.32581C118.85108,138.32581 121.86635,138.32581 121.86635,138.32581C121.86635,138.32581 122.52184,142.65207 122.52184,142.65207C122.52184,142.65207 131.82987,142.65207 131.82987,142.65207C131.82987,142.65207 131.82987,142.65207 131.82987,142.65207M130.12559,141.20999C130.12559,141.20999 123.70175,141.20999 123.70175,141.20999C123.70175,141.20999 123.04625,137.01481 123.04625,137.01481C123.04625,137.01481 117.67119,137.01481 117.67119,137.01481C117.67119,137.01481 116.8846,141.20999 116.8846,141.20999C116.8846,141.20999 110.59186,141.20999 110.59186,141.20999C110.59186,141.20999 116.09801,111.45053 116.09801,111.45053C116.09801,111.45053 124.48835,111.45053 124.48835,111.45053C124.48835,111.45053 130.1256,141.20999 130.1256,141.20999M121.86637,130.59097C121.86637,130.59097 120.29317,121.41404 120.29317,121.41404C120.29317,121.41404 118.71999,130.59097 118.71999,130.59097C118.71999,130.59097 121.86637,130.59097 121.86637,130.59097C121.86637,130.59097 121.86637,130.59097 121.86637,130.59097M154.77219,143.56976C154.77219,143.56976 135.23845,143.56976 135.23845,143.56976C135.23845,143.56976 135.23845,109.09075 135.23845,109.09075C135.23845,109.09075 146.38185,109.09075 146.38185,109.09075C146.38185,109.09075 146.38185,132.42636 146.38185,132.42636C146.38185,132.42636 154.77219,132.42636 154.77219,132.42636C154.77219,132.42636 154.77219,143.56976 154.77219,143.56976C154.77219,143.56976 154.77219,143.56976 154.77219,143.56976M153.8545,142.65207C153.8545,142.65207 153.8545,133.47516 153.8545,133.47516C153.8545,133.47516 145.33308,133.47516 145.33308,133.47516C145.33308,133.47516 145.33308,110.00845 145.33308,110.00845C145.33308,110.00845 136.15615,110.00845 136.15615,110.00845C136.15615,110.00845 136.15615,142.65207 136.15615,142.65207C136.15615,142.65207 153.8545,142.65207 153.8545,142.65207C153.8545,142.65207 153.8545,142.65207 153.8545,142.65207M152.41242,141.20999C152.41242,141.20999 137.59824,141.20999 137.59824,141.20999C137.59824,141.20999 137.59824,111.45053 137.59824,111.45053C137.59824,111.45053 144.02208,111.45053 144.02208,111.45053C144.02208,111.45053 144.02208,134.78613 144.02208,134.78613C144.02208,134.78613 152.41242,134.78613 152.41242,134.78613C152.41242,134.78613 152.41242,141.20999 152.41242,141.20999C152.41242,141.20999 152.41242,141.20999 152.41242,141.20999M182.17187,143.56976C182.17187,143.56976 159.49176,143.56976 159.49176,143.56976C159.49176,143.56976 159.49176,109.09075 159.49176,109.09075C159.49176,109.09075 182.17187,109.09075 182.17187,109.09075C182.17187,109.09075 176.01022,126.39581 176.01022,126.39581C176.01022,126.39581 182.17187,143.56976 182.17187,143.56976M180.86088,142.65207C180.86088,142.65207 174.96142,126.39581 174.96142,126.39581C174.96142,126.39581 180.86088,110.00844 180.86088,110.00844C180.86088,110.00844 171.55287,110.00844 171.55287,110.00844C171.55287,110.00844 169.58638,115.2524 169.58638,115.2524C169.58638,115.2524 169.58638,110.00844 169.58638,110.00844C169.58638,110.00844 160.40945,110.00844 160.40945,110.00844C160.40945,110.00844 160.40945,142.65206 160.40945,142.65206C160.40945,142.65206 169.58638,142.65206 169.58638,142.65206C169.58638,142.65206 169.58638,137.53921 169.58638,137.53921C169.58638,137.53921 171.55287,142.65206 171.55287,142.65206C171.55287,142.65206 180.86088,142.65206 180.86088,142.65206C180.86088,142.65206 180.86088,142.65206 180.86088,142.65206M178.8944,141.20998C178.8944,141.20998 172.47054,141.20998 172.47054,141.20998C172.47054,141.20998 168.27538,129.27997 168.27538,129.27997C168.27538,129.27997 168.27538,141.20998 168.27538,141.20998C168.27538,141.20998 161.85154,141.20998 161.85154,141.20998C161.85154,141.20998 161.85154,111.45052 161.85154,111.45052C161.85154,111.45052 168.27538,111.45052 168.27538,111.45052C168.27538,111.45052 168.27538,123.38053 168.27538,123.38053C168.27538,123.38053 172.47054,111.45052 172.47054,111.45052C172.47054,111.45052 178.8944,111.45052 178.8944,111.45052C178.8944,111.45052 173.51934,126.3958 173.51934,126.3958C173.51934,126.3958 178.8944,141.20998 178.8944,141.20998" stroke-width="0" stroke="#000000" fill="#3f007f" style="pointer-events:inherit"/></g><g id="svg_17" type="text" text="I" font-size="87.15229" font-family="Interceptor" fill="3f007f" stroke="0" stroke-width="0" text-anchor="start" font-weight="normal" font-style="normal" lineHeight="1" shapeId="0" shapeVal="0" display="null" style="pointer-events:inherit"><path id="svg_19" fill="#3f007f" stroke="#000000" stroke-width="0" d="M18.00043,149.21855C18.00043,149.21855 18.00043,157.93373 18.00043,157.93373C18.00043,157.93373 48.98778,157.93373 48.98778,157.93373C48.98778,157.93373 48.98778,149.21855 48.98778,149.21855C48.98778,149.21855 41.96721,149.21855 41.96721,149.21855C41.96721,149.21855 41.96721,101.52708 41.96721,101.52708C41.96721,101.52708 48.98778,101.52708 48.98778,101.52708C48.98778,101.52708 48.98778,92.81189 48.98778,92.81189C48.98778,92.81189 18.00043,92.81189 18.00043,92.81189C18.00043,92.81189 18.00043,101.52708 18.00043,101.52708C18.00043,101.52708 24.29473,101.52708 24.29473,101.52708C24.29473,101.52708 24.29473,149.21855 24.29473,149.21855C24.29473,149.21855 18.00043,149.21855 18.00043,149.21855C18.00043,149.21855 18.00043,149.21855 18.00043,149.21855" style="pointer-events:inherit"/></g><g id="svg_14" fill-opacity="1" display="null" clip-id="342" stroke="null" stroke-opacity="1" transform=""><path fill="#ffffff" d="M115.0229384055452,194.2276957991275 C115.27138325712139,195.52968342336698 116.10636286138774,196.4312564930043 117.37419999056519,196.76593134461208 C117.64142761442548,196.83679362186575 117.89926385214372,196.8717978793043 118.14685494134335,196.8717978793043 C119.36175880317467,196.8717978793043 120.33419415006566,196.03169570077864 120.93353533840408,194.43772134375894 C123.64508464632837,196.5345617405669 126.02110534026832,198.85679540478418 127.75851177654854,201.0953603560995 C127.40846920216285,201.28745689082334 127.06354920203646,201.48638352455959 126.72204425141626,201.69470154443792 C125.41834910242369,202.4895543170064 124.18124741880206,203.40393382229192 123.04147464610719,204.43698629791803 C122.75631801233934,204.69482253563623 122.47799147758388,204.96119639712 122.20649504184084,205.23440035761615 C122.0707468239693,205.3710023378642 121.93670613085087,205.50845808048885 121.80437296248556,205.64847511024314 L121.60715385350241,205.86020817962765 L121.40993474451926,206.0796251104011 C120.89084721957656,206.66445233833818 120.40676395207245,207.28599134846692 119.9679300905255,207.94253461603424 C119.09026236743162,209.2530598640392 118.39444603054298,210.70616342892808 117.96073474325536,212.24293570671895 C117.52360840646153,213.77714669738012 117.33834197075007,215.38563501480124 117.41603434701616,216.97619432231477 C117.45701494109059,217.77104709488322 117.56117395102973,218.56077729319242 117.72509632732744,219.33599353110023 L117.78912850556873,219.62712650150394 L117.85742949569274,219.91142937289524 C117.90609395115612,220.10608719474877 117.95731969374916,220.29562244234293 118.01196048584839,220.48601145231373 C118.12209583242341,220.86593570987867 118.24674513939976,221.2407373931843 118.38420088202437,221.6104165022307 C118.453355634525,221.79568293794213 118.52592543653176,221.97838808652392 118.60020276329166,222.16109323510574 L118.71631444650251,222.43258967084878 L118.83157236733683,222.69213343332012 L118.95878296144284,222.96533739381627 C119.00232484264694,223.05412868097753 119.04415919909789,223.1420662057622 119.08855484267852,223.2291499681704 C119.17649236746323,223.40502501773977 119.26699117937758,223.5783387801795 119.36090504079812,223.74994501786617 C119.73485296172723,224.43807749336582 120.15490405099007,225.0971820480628 120.6125206848211,225.72555115720394 C121.07184484340527,226.35392026634509 121.56531949705143,226.9532614546835 122.09635969526582,227.51589086083027 C122.6256923687271,228.07766650460047 123.19173682438009,228.61041422756796 123.7740027651875,229.10218135646102 C124.35456118124182,229.59309472297753 124.9564636567099,230.05839521819757 125.57714890446206,230.4955215549914 C126.19954167696739,230.93008660465557 126.84071722175679,231.33476997114047 127.49640672694753,231.71213294157582 C128.1520962321383,232.0886421496346 128.82315346010697,232.43697719926712 129.50445583659425,232.75713809047357 C130.18661197545805,233.07473769455032 130.88157454997014,233.36245561544786 131.58422098587118,233.62541442742543 C132.2868674217722,233.8892270017795 132.99634395668562,234.1240116553309 133.71179682823495,234.33403719996227 C134.42895722453733,234.5406476950875 135.15038643272248,234.72249908129277 135.87523069041384,234.8830064080842 C137.32577296817306,235.20231353691412 138.78741415682748,235.43368314095932 140.25076287023498,235.59248294299772 C140.4334680188168,235.61126571528177 140.61702692977514,235.6326097746956 140.79973207835695,235.64797749747345 L140.87998574175268,235.65480759648585 C140.84754277144376,236.1252306659652 140.80826970212243,236.62809670575342 140.7553364347763,237.13267027029474 C140.7092332664426,237.59540947838508 140.6537387119668,238.04790353795687 140.58885277134897,238.47905353811484 C140.44627445446505,239.43355987509824 140.25844673162393,240.28305343976598 140.01341692955396,241.07449116282828 C139.87852247405897,241.51247126199866 139.72399148390332,241.93764492552077 139.55153148384014,242.34062076725263 C139.5182347511547,242.41831314351867 139.48408425609267,242.49600551978477 139.4490799986541,242.57199037129777 L139.43627356300584,242.60016452972394 C138.86766782022323,243.85092641137038 138.05232475061752,244.9847228474294 137.26430207706142,246.08180750129674 L137.19173227505465,246.18169769935315 C136.81778435412554,246.70505403617858 136.43273752230127,247.24207057102882 136.08098742316253,247.79103977915076 L136.25515494797878,247.9028826504789 L136.25515494797878,247.90373641285544 L136.0792798984094,247.79018601677421 C135.84108019535182,248.1598651258206 135.63361593785004,248.50649265070007 135.44578821500895,248.8497051260734 C135.1913670267969,249.31756690842298 134.96511999701104,249.78457492839613 134.77473098704027,250.23706898796786 C134.47164534336486,250.96447453278887 134.24625207595554,251.68419621622093 134.10452752144818,252.38257384023922 C133.85266762036576,253.613699187225 133.85096009561266,254.81323532627835 134.0985511848123,255.94447047520777 C134.3794390066974,257.2319441390459 134.98390276929516,258.43745661473514 135.8948672250745,259.5277111695901 C136.25430118560226,259.9597149321246 136.66837593822922,260.3772047342578 137.12684633443683,260.77335047697716 C137.03634752252245,260.89885354633014 136.94414118585505,261.0260641404361 136.8493735620579,261.1490059226594 C136.53945781937009,261.54771295250845 136.22015069054024,261.94300493285135 135.88376831417932,262.3314668141818 L135.3757797001318,262.9145865173658 L135.24856910602577,263.06228740850906 L135.11879722479011,263.2159646362881 C135.02829841287576,263.32439245811 134.9412146504676,263.43623532943815 134.85754593756567,263.552347012649 C134.52372484833444,264.0116711712331 134.24881336308516,264.5230748347869 134.05671682836135,265.07204404290883 C133.86888910552022,265.6235745381604 133.7715601945935,266.21267057798025 133.78180534311207,266.809450479189 C133.79461177876036,267.40366909326815 133.9158460362305,268.0115479053721 134.17368227394874,268.5699084996361 C134.43066474929043,269.12570780677044 134.8174191058678,269.6294276089352 135.29040346247675,270.023012064525 C135.7633878190857,270.4174502824913 136.31491831433732,270.7034606786357 136.88523158187306,270.8759206786989 C137.4563986117853,271.04496562925584 138.04207960209894,271.1132666193799 138.61324663201117,271.11155909462684 L138.72508950333932,271.10985156987374 L138.82412593901913,271.1072902827441 C138.9026720776618,271.10472899561444 138.9701193054093,271.1013139461082 139.04354286979262,271.09619137184893 C139.1869749490531,271.0859462233303 139.33211455306667,271.07313978768207 139.47725415708027,271.05264949064485 C139.76667960273087,271.0108151341939 140.05610504838145,270.9425141440699 140.3404079197728,270.8511615697789 C140.90815990017882,270.66589513406745 141.45456782117114,270.361101965639 141.90108554410702,269.95300354964786 C142.34589574228983,269.5423438465271 142.68569316815694,269.0454541433746 142.93499178210965,268.53234295506786 C143.1859979208155,268.0166704796314 143.3405289109711,267.47623889527495 143.45066425754612,266.94178364755436 C143.64105326751687,265.96081067689784 143.67093495069616,264.982398993371 143.6103178219611,264.02277008212826 C145.42114782262462,264.5059995872558 147.32674544708524,264.752736914079 149.16489584379843,264.752736914079 C150.53006188390262,264.752736914079 151.85680861706203,264.61784245858394 153.08537267691815,264.34378473571127 C153.31161970670405,264.2942665178714 153.53530544936027,264.23791820101906 153.75642990488686,264.1755935475308 C153.77009010291167,264.40781691395256 153.77350515241784,264.6426015675039 153.7743589147944,264.87482493392565 C153.77948148905372,265.1881557261197 153.77606643954752,265.5031940430668 153.77265139004132,265.8207936471436 C153.77265139004132,266.1375394888438 153.77265139004132,266.4577003800502 153.7777739643006,266.77956879600976 C153.7811890138068,266.9400761228012 153.78545782568955,267.1039984990989 153.79058039994888,267.26450582589047 L153.79228792470195,267.32341542987245 L153.79399544945505,267.35671216255787 L153.79655673658468,267.38915513286685 C153.7999717860909,267.4335507764474 153.8033868355971,267.477946420028 153.8085094098564,267.5206345388556 C153.81533950886882,267.60942582601683 153.82643841976397,267.69736335080154 153.84009861778878,267.7870084003393 C153.9502339643638,268.4896548362404 154.21490030109445,269.16668840084486 154.59909337054216,269.75749196541784 C154.98072515286017,270.3482955299907 155.45883208372848,270.86823681730993 155.99243356907252,271.31048572836306 C156.5320113910524,271.7484658275335 157.12623000513153,272.11046107519087 157.75716040140233,272.3964714713353 C158.07390624310256,272.53648850108954 158.3991897085683,272.6645528575722 158.73471832255265,272.7618817684989 S159.41345941191022,272.9351955309386 159.76264822391937,272.9855675111551 C160.458464560808,273.0863114715881 161.18587010562902,273.08972652109424 161.9064455514376,272.94544067945725 C162.62360594773997,272.79517850118435 163.33137495790035,272.48782404562616 163.92473980960293,272.0165472137703 C164.51895842368205,271.55210048092687 164.98425891890207,270.9297077084216 165.2933208992133,270.27828701511356 L165.3505229784422,270.1536377081372 C165.36845198834976,270.11351087643936 165.38552723588077,270.07167651998833 165.40345624578833,270.0306959259139 C165.4367529784738,269.9495885001416 165.47004971115925,269.86848107436936 165.50078515671507,269.78481236146746 C165.5622560478267,269.61832869804005 165.61860436467902,269.44757622272994 165.66641505776585,269.2751162226667 C165.76289020631606,268.93019622254036 165.82948367168703,268.57076226201264 165.85851159248972,268.20364444009596 C165.91571367171858,267.47197008339214 165.8021632756374,266.71297533063887 165.52212921612886,266.04021057791704 C165.2438026813734,265.36403077568906 164.8280204039933,264.77749602299895 164.3610123840202,264.272068696081 C164.12622773046883,264.0193550326221 163.87949040364578,263.78542414144727 163.61909287879783,263.5702760225566 C163.3578415915734,263.35512790366585 163.0906139677131,263.1553475075531 162.81570248246385,262.96837354708845 C162.26417198721225,262.59527938853586 161.6947124820531,262.2691421606936 161.1081777293629,261.98654681405543 C160.52164297667272,261.7022439426641 159.92742436259363,261.4444077049459 159.32210683761934,261.2241370117959 C159.2572208970015,261.201085427629 159.1906274316306,261.17547255633247 159.1248877286362,261.1524209721656 C159.70373861993738,260.61711196206846 160.23051000626904,260.03313849650795 160.6932492143594,259.4150145358854 C161.79033386822675,257.9508120601013 162.52713079918982,256.29963562385274 162.826801393359,254.6356527519559 C162.96852594786637,253.83994621701083 163.01036030431737,253.0468009691955 162.95145070033536,252.27499978079385 C162.87119703693963,251.18986780019821 162.59628555169039,250.1414476017942 162.12927753171726,249.15535205687843 C161.8389983236901,248.54320443289174 161.47529555127963,247.95410839307192 161.04841436300438,247.40343166019687 C160.43712050139425,246.61370146188767 159.68239456052365,245.88202710518397 158.80814188693597,245.2271913623697 C158.69629901560785,245.1418151247147 158.57421099576112,245.0590001741893 158.43419396600683,244.97191641178114 L158.43419396600683,244.97191641178114 C158.00048267871924,244.6995662136615 157.53262089636956,244.47758799575843 157.0801268367978,244.26158611449114 C156.39455564842777,243.93630264902544 155.74740376700254,243.6298019558438 155.20099584601022,243.1576713616114 C155.0413422815953,243.02192314373985 154.88851881619277,242.863977104078 154.74081792504953,242.69237086639134 C154.12013267729733,241.9632577968173 153.67361495436145,240.9797235390311 153.41150990476046,239.7690884890826 C153.30991218195098,239.30549551861566 153.2381961423207,238.8120208649695 153.19806931062283,238.29976343903922 C153.1212306967333,237.31964423075925 153.16306505318425,236.31561967593592 153.31503475621025,235.38416492311939 C153.3329637661178,235.38245739836628 153.35003901364882,235.38074987361318 153.3688217859329,235.37904234886008 L153.3654067364267,235.30391125972363 C154.62812129134485,235.12462116064802 155.88571327200373,234.91032680413383 157.1390364407798,234.64480670502667 C158.56567337199564,234.34342858610438 159.9812113923163,233.9635043285394 161.3685752542108,233.46405333825737 C162.75337782897566,232.9620410608457 164.11342129482057,232.34050205071696 165.3710132754794,231.50210739694444 C165.9951135727378,231.08205630768157 166.5944547610762,230.60736442631952 167.14171644444508,230.07120165384583 C167.68897812781393,229.5358926437487 168.1858678309663,228.93740521778682 168.60591892022913,228.28342323734915 C169.02767753424504,227.6311487816646 169.37089000961836,226.92167224675114 169.62445743545382,226.18829036529428 C169.88143991079554,225.45063967195466 170.04877733659941,224.68652234494198 170.14012991089032,223.9181362060466 C170.32368882184866,222.37965640350268 170.19391694061298,220.83690778907595 169.91046783159825,219.3590451152671 C169.3495459502046,216.39905095576663 168.16879258343528,213.57309748938457 166.56628060265004,211.03486194390004 C165.76545149344574,209.76275600283984 164.8485107010305,208.56834243804573 163.85302376997268,207.44649867525843 C162.85582931416172,206.32550867484764 161.77325862069574,205.28135728832646 160.62067941235262,204.32172837708367 C159.51676465947284,203.40222629753885 158.34796396597525,202.5604165942601 157.12452248037843,201.80227560388326 C157.41736297553524,201.36344174233633 157.73240129248236,200.94936698970935 158.07646753023224,200.55492877174305 C158.86534396616483,199.64823312784642 159.84631693682132,198.5212667907998 160.95279297683072,197.6803108498976 C161.4530977294893,197.2995328299561 162.07463673961803,197.01010738430548 162.6782467398392,196.73007332479693 C162.72605743292604,196.70787550300662 162.7721606012598,196.68653144359288 162.82082505672315,196.66347985942602 C163.50725000746974,197.50699708745785 164.42931337414424,198.5648086720039 165.7620364439395,198.6373784740107 C165.81155466177944,198.63993976114034 165.85851159248972,198.6416472858934 165.9054685232,198.6416472858934 C167.35601080095924,198.6416472858934 168.4855384251355,197.4310122359449 168.86887773220664,196.19391055232325 C169.35893733634663,194.60420500718627 168.78350149455164,192.8932652045791 167.46785367228736,192.03267272901624 C166.21538426588782,191.21049956039815 164.526642285071,191.326611243609 163.45090169061737,192.30843797664207 C162.32991169020661,193.32953777899644 162.37686862091692,194.8603337201514 162.50920178928223,195.92241411658017 C162.5254232744367,196.04450213642693 162.5424985219677,196.17598154241568 162.564696343758,196.32368243355893 C162.54335228434425,196.33307381970096 162.52115446255394,196.34246520584304 162.50151792789327,196.35271035436162 C161.87912515538798,196.64213580001223 161.23624208584548,196.9409526318049 160.7000793133718,197.34905104779605 C159.56030654067692,198.21561985999475 158.56311208486596,199.36136896932547 157.76313673803818,200.2817248112469 C157.4028490151339,200.6949458014973 157.07415050016195,201.1278033264084 156.76764980698033,201.586273722616 C156.18879891567914,201.2379386729834 155.59543406397654,200.90667887088185 154.99353158850846,200.59761689057055 C154.65800297452412,200.42601065288392 154.31991307341013,200.2603807518331 153.9792618851665,200.1015809497947 C153.63604940979323,199.94363491013291 153.2894218849137,199.79251896948347 152.94108683528117,199.64823312784642 C151.54603911199766,199.07108976129834 150.10403445800392,198.600666691819 148.6236104970654,198.25830797882227 C147.1466015856331,197.91594926582553 145.64568732765738,197.69909362218172 144.13879673304584,197.59493461224258 C141.12501554382266,197.38917787949387 138.0873290080561,197.62567005779837 135.13843375945078,198.29672728576705 C132.71630989717707,198.8593566919138 130.3496805893792,199.71568035559395 128.13416722223076,200.8878960985977 C126.36944038990092,198.6015204541956 123.94646276525069,196.22976857213834 121.18198018998027,194.09280134363254 C121.72924187334911,192.9129017392398 122.24576811116216,191.24038124357742 121.06672226914597,189.75227342124995 C120.01403325885923,188.42467292571396 118.26808919881353,188.12500233154478 117.00622840627193,189.05560332198476 C115.54544097999408,190.13475896594457 114.67631088066571,192.40405936281573 115.0229384055452,194.2276957991275 zM158.4179724808524,244.99923680783075 L158.3214973323022,245.15889037224565 L158.3214973323022,245.1537677979864 L158.4179724808524,244.99923680783075 zM160.40809258059153,259.09741493180866 C157.60348317362326,259.40562314974335 154.61446109332005,259.2493846348346 151.97377406264945,259.1085138427038 L151.7697248546539,259.09741493180866 C147.13721019949108,258.8532388921152 143.33882138621803,258.3170761196415 140.157702771191,257.4564836440786 C138.4424941567011,256.9945981983648 136.6359329679203,256.44819027737253 134.48274425426,255.74212879196529 C134.28637890765341,254.76798592032122 134.2812563333941,253.74347106846062 134.47164534336486,252.6890745334208 C136.6641071263465,253.32256621682126 138.71569811719723,253.75456997935578 140.73399237536256,254.0064298804382 C141.19843910820597,254.06448572204363 141.66117831629637,254.12510285077872 142.1222099996336,254.18315869238415 C145.79851079305993,254.65358176186345 149.27076237849067,255.09583067291658 152.97011475608386,255.0386285936877 C153.9758468356603,255.02326087090978 154.97987139048365,255.0317984946753 155.95230673737464,255.0403361184408 C156.53969525244136,255.04545869270015 157.11683861898948,255.0505812669594 157.6905669360314,255.0505812669594 C159.2606359465077,255.0505812669594 160.79228565003925,255.01472324714433 162.35893961100936,254.84397077183422 C162.0473163435684,256.3209796832665 161.37796664035284,257.7851821590505 160.40809258059153,259.09741493180866 zM154.3515022813425,265.78578938970503 C154.3122292120212,265.21206107266306 154.2721023803233,264.6306488942322 154.17818851890277,264.05179800293104 C155.26417426187496,263.70687800280473 156.3066181236431,263.21511087391156 157.27905347053408,262.58759552714696 C157.76057545090853,262.27853354683566 158.23099852038786,261.92934473482654 158.6783700057003,261.5502742396381 C159.3989454515089,261.8533598833135 160.10756822404576,262.18718097254475 160.79143188766272,262.562836418227 C161.34210862053774,262.8650682995259 161.8757101058818,263.1963281016275 162.3751610961638,263.5668609730503 C162.8771733735755,263.93739384447326 163.34759644305478,264.3463460228409 163.75398733429282,264.80908523093126 C164.1612319879074,265.27011691426856 164.5010294137745,265.7883506768347 164.7178850574183,266.35524889486413 C164.93644822581524,266.9187320633875 165.02097070109372,267.5291721626211 164.96462238424138,268.13107463808916 C164.9108353545187,268.7329771135572 164.7230076316776,269.3263419652598 164.4574875325704,269.8787262228879 C164.1936749582163,270.42854919338646 163.82058079966376,270.9169012727733 163.34332763117203,271.2848728570666 C162.87119703693963,271.65625949086603 162.30429881891013,271.90128929293604 161.71093396720755,272.0233773127827 C161.11586159075185,272.146319095006 160.49346881824658,272.15058790688875 159.88644376851917,272.0677729563634 C158.66727109480513,271.8961667186767 157.49249406467166,271.3864705798761 156.5183511930276,270.6334521637586 C156.03341416314694,270.25694295569986 155.59799535110622,269.812132757517 155.24966030147363,269.31012048010535 C154.9030327765941,268.80896196507024 154.64519653887587,268.2463325589235 154.52566980615882,267.654675231974 C154.49578812297955,267.5052668160776 154.47615158831888,267.36012721206407 154.4616376279175,267.2030349347788 L154.41894950909,266.7326118652995 C154.39504416254658,266.4184273107289 154.37455386550937,266.1025352314053 154.3515022813425,265.78578938970503 zM143.43785782189786,263.5463706760131 C141.2530799003052,262.9291004777671 139.31418554315914,261.9814242397961 137.8149788099365,260.8015246354033 C137.9216991070053,260.617965724445 138.0250043545679,260.4326992887335 138.12233326549466,260.2465790906456 C138.813027028124,260.4480670115115 139.44481118677132,260.6265033482105 140.04927494936905,260.7912794868848 C143.2483225743037,261.65614077433037 147.0748855460029,262.1965723586868 151.74752703286362,262.44587097263957 C152.29308119147933,262.47404513106574 152.85314931049643,262.503926814245 153.429438914668,262.5321009726712 C154.59226327152976,262.5867417647704 155.5459158461366,262.6166234479497 156.41931475734776,262.621746022209 C155.6133630738841,263.0776551312869 154.76301574683987,263.44306542845055 153.88364049899286,263.70687800280473 C153.59336129096567,263.7965230523424 153.29454445917304,263.875069190985 152.99487386500383,263.9408088939794 C150.0869592104729,264.5871070130282 146.60446247652357,264.4428211713911 143.43785782189786,263.5463706760131 zM137.36760732462403,261.50417107130437 C137.44529970089016,261.39062067522326 137.52128455240313,261.2753627543889 137.59556187916303,261.15925107117795 C139.0956223747622,262.32975928942875 141.01317267249456,263.2757280026467 143.16806891090792,263.90238958703463 C143.13477217822248,264.87653245867875 143.04341960393157,265.8464065184401 142.80436613849744,266.7787150336332 C142.67800930676796,267.26706711302006 142.50811059383443,267.74602780626486 142.27503346503616,268.1840079054353 C142.04195633623786,268.6245492917353 141.74228574206865,269.0241100839609 141.3708991082692,269.3442709751674 C141.00121999922283,269.6652856287503 140.5623861376759,269.9009240446783 140.09110930582005,270.0426485991856 C139.61983247396418,270.1877882031992 139.11952772130562,270.24413652005154 138.61666168151737,270.24072147054534 C138.11550316648226,270.2390139457923 137.6151984138237,270.1758355299275 137.14136029483817,270.0306959259139 C136.66837593822922,269.88726384665347 136.2227119776699,269.6584555297379 135.84620276961115,269.3476860246735 C135.4688397991758,269.03777028198573 135.16319286837071,268.64333206401943 134.95572861086902,268.19937562821315 C134.74741059099065,267.75712671716 134.63556771966256,267.27048216252626 134.61849247213155,266.7770075088801 C134.58178068993988,265.7900582015877 134.91816306630074,264.8014013695423 135.48249999720062,263.9783744385477 C135.55336227445432,263.8759229533616 135.62678583883763,263.7743252305521 135.7044782151037,263.6761425572488 L135.9460929676675,263.37391067594996 L136.43273752230127,262.7634705767163 C136.75545970063737,262.3570796854783 137.07135177996102,261.9387361209686 137.36760732462403,261.50417107130437 zM136.7187479184457,259.8222591895 C137.02183356212112,259.9161730509205 137.3095514830186,260.0041105757052 137.58702425539752,260.08863305098373 C137.51445445339073,260.2047447341946 137.44017712663083,260.3191488926524 137.3650460374944,260.43099176398044 C137.137945245332,260.2329188926208 136.9219433640647,260.0305772093783 136.7187479184457,259.8222591895 zM136.35589890841175,248.1359597792772 C137.82010138419582,248.3989185912547 139.53957881056843,248.68492898739913 141.30942821715757,248.85909651221544 L141.63983425688258,248.8915394825243 C144.6561767332354,249.19121007669355 147.5060355461609,249.47209789857862 150.5496984185633,249.46014522530697 C151.86363871607443,249.45331512629457 153.20831445914143,249.49514948274555 154.51286337051056,249.53527631444342 C155.738866143237,249.5736956213882 156.98535921300072,249.61211492833297 158.23441356989406,249.61211492833297 C159.42797337231158,249.61211492833297 160.62494822423537,249.57625690851785 161.8082628781343,249.47209789857862 C162.18818713569925,250.3122000771043 162.4272406011334,251.19925918634027 162.51517812591808,252.1153462163789 C160.33466901620818,252.3689136422144 158.2147770352334,252.3518383946834 155.9719432720353,252.33390938477584 C154.99353158850846,252.32451799863378 153.9792618851665,252.31598037486827 152.964138419448,252.33220186002274 C149.2997902992934,252.38940393925162 145.84973653565294,251.9505700777047 142.1964873263935,251.48356205773155 C141.72862554404384,251.423798691373 141.25905623694106,251.36232780026137 140.78692564270867,251.30341819627938 C138.9974397014589,251.0780249288701 137.18575593841882,250.71261463170651 135.25539920503817,250.18498948299828 C135.41932158133588,249.81360284919884 135.6054417794239,249.4345323540104 135.81290603692565,249.0537543340689 C135.97512088847023,248.75408373989973 136.15441098754584,248.45270562097738 136.35589890841175,248.1359597792772 zM139.81705158294733,242.7734782921637 L139.82985801859562,242.74530413373753 C139.84095692949074,242.72310631194722 139.85034831563283,242.6974934406507 139.86144722652796,242.6752956188604 C142.5115256433406,243.45819571815713 144.79021742635382,243.9525241341799 147.01682970439745,244.22658185705257 C147.6708116848351,244.30683552044832 148.3358925761679,244.39648056998612 148.979629408087,244.48612561952393 C150.0118281213365,244.62699641165477 151.07903109202456,244.77298977804492 152.13086633993476,244.87800255036058 C153.25100257796896,244.9898454216887 154.55213643983186,245.11193344153543 155.83961010367,245.17084304551742 C156.11281406416612,245.18450324354222 156.41163089595878,245.22463007524004 156.728376737659,245.26475690693798 C157.14672030216875,245.3202514614137 157.57701653995016,245.37830730301914 157.99109129257715,245.37830730301914 C158.0832976292446,245.37830730301914 158.17550396591204,245.37403849113645 158.26514901544985,245.36720839212398 C158.37016178776557,245.43380185749493 158.46492941156265,245.49868779811277 158.55201317397078,245.56442750110716 C159.28112624354495,246.11083542209946 159.9214480259578,246.70932284806133 160.45931832318456,247.3496446304742 C158.48798099572954,247.44526601664785 156.4756630742001,247.38294136315966 154.52310851902917,247.32317799680112 C153.21855960766004,247.28305116510325 151.86790752795721,247.24121680865227 150.54628336905705,247.24804690766467 C147.53506346696358,247.26256086806603 144.7116712877112,246.98167304618096 141.72179544503143,246.68627126389447 L141.34955504885542,246.6495594817028 C140.24905534548188,246.54113165988088 139.08964603812635,246.38233185784253 137.72447999802213,246.15693859043319 C138.48688980028172,245.09656571875752 139.26125227581298,243.99691977776052 139.81705158294733,242.7734782921637 zM140.9670695041608,238.76164888475307 C143.41053742584828,239.30464175623916 145.82412366435645,239.56418551871047 148.37345812073613,239.83824324158314 C149.48932554688759,239.95691621192367 150.74691752754643,240.0696128456284 151.99084931018047,240.0696128456284 C152.34259940931926,240.0696128456284 152.69264198370493,240.05936769710974 153.04012327096098,240.03973116244907 C153.28003049877168,241.06851482619237 153.65739346920697,241.94105997502697 154.15940574661866,242.63773007429216 C152.9240115877501,242.65309779707007 151.64849059718372,242.5267409653406 150.40882762643247,242.40465294549386 C149.36809128941744,242.30134769793125 148.29235069496383,242.1963349256156 147.26015198171433,242.17584462857837 C145.2025846542277,242.13827908401015 143.09976792078388,241.77372254922307 140.47017980100844,240.99765254893867 C140.6759365337571,240.3069587863094 140.8381513853017,239.56930809296978 140.9670695041608,238.76164888475307 zM141.2949142567562,235.68725056679483 L141.34784752410232,235.69322690343063 C141.71838039552523,235.7222548242334 142.08208316793574,235.74616017077676 142.44920098985244,235.76579670543742 C143.18172910893273,235.8076310618884 143.914257228013,235.83239017080837 144.64678534709336,235.84434284408007 C146.1092802981243,235.8733707648828 147.5692139620256,235.8264138341725 149.0223175269145,235.7470139331533 C149.386020299325,235.7265236361161 149.74886930935892,235.70347205194923 150.11001079463978,235.67956670540582 L151.19514277523547,235.59077541824462 C151.75862594375874,235.54125720040463 152.31869406277585,235.49173898256475 152.8830309936757,235.43624442808897 C152.75069782531037,236.30195947791117 152.70971723123594,237.22743789409185 152.7660655480883,238.13925611224772 C151.6075100031093,238.24939145882274 150.26368802241888,238.12303462709326 149.07098198237787,238.01289928051824 C148.50749881385457,237.9591122507956 147.97560485326363,237.91044779533223 147.48725277387675,237.88654244878882 C145.39980376321085,237.77982215172 143.33711386146493,237.48698165656316 141.18904772206395,236.993507002917 C141.23173584089147,236.54442799285147 141.26674009833002,236.10474036892793 141.2949142567562,235.68725056679483 zM120.23174266487959,222.03644392812936 C123.24979266598552,219.52809006582407 125.75302395403148,217.93582323355747 128.33224009359046,216.88228046089418 C135.72838356164715,213.8642304597883 141.9395048510518,214.0255915489563 149.56701792315368,215.26440075733103 C156.58494465839857,216.40758857953213 162.8182637695935,219.9968056105503 168.61957911825394,226.234393533628 C168.41552991025839,226.7893390783858 168.15940119729325,227.3237943261064 167.8477779298523,227.82751412827122 C167.1092734741362,229.03473412871358 166.07536723613356,230.04729630730242 164.91168911689527,230.86349313928469 C163.74630347290386,231.6831050207731 162.45199971005337,232.32001175367975 161.11927664025805,232.84080680337553 C159.78313852095658,233.3616018530713 158.40004347094487,233.76970026906247 157.00328822290828,234.11291274443573 C155.60567921249515,234.4535639326794 154.18928742979793,234.73018294268172 152.76777307284138,234.97350521999863 L152.77118812234758,234.9914342299062 C151.52042624070117,235.03668363586337 150.2662493095485,235.08022551706745 149.01804871503174,235.09047066558605 C147.57689782341455,235.1024233388577 146.13403940704427,235.07339541805504 144.6954498025567,234.9948492794124 C141.81827059358164,234.83519571499744 138.9504827707486,234.46637036832766 136.16038732418167,233.76372393242661 C133.37370692712096,233.06363878365522 130.66557266870288,232.01777987238086 128.20588326186098,230.53735591144238 C126.9764654396283,229.79970521810276 125.81022603326036,228.95533422769438 124.73107038930056,228.01192680160608 C123.65106098296422,227.07193442502404 122.67521058656706,226.01497660285452 121.84620731893654,224.85129848361623 C121.21271563553609,223.96680066150995 120.6714302888031,223.02595452255136 120.23174266487959,222.03644392812936 zM127.5433636576578,203.03169342611596 C127.91816534096347,202.80203134682387 128.3006508856581,202.58346817842695 128.68740524223543,202.37344263379555 C129.66923197526847,203.8282537234375 130.3616332626509,205.23269283286302 130.7492413816048,206.5526094670101 C130.73643494595657,206.55858580364594 130.72448227268487,206.56541590265834 130.71252959941316,206.57053847691765 C130.59044157956643,206.62774055614653 130.46408474783698,206.67384372448024 130.3343128666013,206.712263031425 C130.0722078170003,206.7865403581849 129.79388128224485,206.81642204136418 129.48738058906324,206.79849303145662 C129.73667920301597,206.9811981800384 130.06623148036445,207.0571830315514 130.38724613394743,207.03498520976112 C130.5477534607389,207.02474006124248 130.70740702515386,206.99058956618046 130.86023049055638,206.93680253645778 C130.89864979750115,206.92399610080952 130.93621534206935,206.9086283780316 130.97292712426105,206.89240689287715 C131.00878514407617,206.87703917009924 131.05061950052715,206.8574026354386 131.08135494608297,206.84288867503722 C131.15563227284284,206.80532313046902 131.22393326296688,206.76519629877112 131.29223425309092,206.72080065519054 C131.56116940170432,206.54321808086803 131.78656266911364,206.29989580355115 131.93938613451618,206.01986174404257 C132.0905020751656,205.73982768453402 132.1699019761848,205.41795926857452 132.12721385735728,205.11145857539287 C131.99744197612162,205.38978511014832 131.84803356022528,205.62798481320593 131.6687434611497,205.83801035783733 C131.50652860960508,206.02925313018463 131.32126217389364,206.19402926885888 131.1197742530277,206.33404629861317 C130.71935969842556,205.0166909515958 130.02610464866657,203.6182281788061 129.0570843512818,202.17622352481234 C131.08647752034227,201.11926570264288 133.25930276866322,200.33380431621646 135.48933009621302,199.81044797939103 C138.2854018794158,199.15646599895334 141.17794881116882,198.90802114737716 144.0440291092487,199.08474995932315 C145.4783499018535,199.17354124648438 146.90413307069278,199.36990659309097 148.30259584348244,199.683237385285 C149.70276614102522,199.99742193985557 151.07390851776526,200.43284075189632 152.40492406280742,200.97241857387624 C153.6659310929725,201.48382223742993 154.88681129143964,202.0882860000277 156.06073455919656,202.77471095077425 C155.2411226777081,204.309775703812 154.72630396464817,205.93704679351717 154.3344270338115,207.36368372473302 C154.26612604368745,207.32782570491787 154.1995325783165,207.29111392272623 154.1363541624518,207.25098709102835 C153.94084257822175,207.1280453088051 153.76069871676958,206.98205194241496 153.58567742957675,206.8206908532469 C153.23563485519105,206.4971149125343 152.92571911250323,206.10950679358035 152.57055396385823,205.7577566944416 C152.7848483203724,206.20854322926024 153.01877921154724,206.64823085318375 153.34747772651914,207.0452303582797 C153.50969257806375,207.24159570488632 153.70093535041107,207.42515461584466 153.91437594454868,207.57883184362373 C154.0228037663706,207.65567045751325 154.13806168720487,207.72226392288422 154.25246584566267,207.7845885763724 L154.3412571328239,207.82813045757646 L154.42492584572582,207.86825728927434 C154.4812741625782,207.89557768532396 154.54018376656018,207.92204431899702 154.59653208341248,207.9485109526701 C154.7134975289999,207.99802917051002 154.82790168745765,208.04583986359685 154.94145208353888,208.09108926955403 C155.0515874301139,208.13548491313466 155.1770904994668,208.18756441810424 155.30344733119628,208.2242762002959 C155.5535997075256,208.30026105180886 155.81058218286725,208.34465669538952 156.06841842058552,208.35831689341433 C156.32625465830372,208.37112332906256 156.584090896022,208.35575560628465 156.83595079710437,208.3036761013151 C157.08439564868056,208.2498890715924 157.32942545075053,208.16451283393738 157.54115852013507,208.02791085368926 C157.05280644074818,208.13377738838153 156.56957693562063,208.11670214085052 156.10427644040064,208.03388719032512 C155.87290683635544,207.99119907149762 155.64495228181647,207.93143570513905 155.42724287579608,207.85032827936678 C155.31796129159764,207.8102014476689 155.21636356878815,207.76495204171172 155.10025188557728,207.71287253674214 L154.76216198446326,207.56687917035202 C154.7459404993088,207.56004907133962 154.73057277653092,207.5523652099507 154.71435129137646,207.5455351109383 C155.1011056479538,206.1317046153707 155.60824049962483,204.50955609992482 156.41846099497118,202.98729778253534 C157.59323802510465,203.69677431744876 158.71849683739816,204.48735827813448 159.78399228333316,205.35307332795665 C162.00975079900024,207.16475709099677 163.97938060170213,209.3017243195026 165.550303374555,211.70335788473906 C167.12122614740787,214.10243016284588 168.28661179139928,216.7747064014488 168.86887773220664,219.5818770955468 C169.03536139563403,220.38014491762146 169.15147307884487,221.1895116505913 169.1941611976724,222.00058590831426 C164.26368347309347,216.60224640138563 158.6886151542189,213.4860137269764 151.7005701021533,212.21220026116313 C146.55323673393053,211.27306164695761 136.58726851245692,210.21268877528195 127.67569682602314,213.65761996466307 C124.91889811214168,214.7239691729746 122.30467771514415,216.34441016366742 119.23710949619831,218.89374462004707 C119.10989890209228,218.2372013524798 119.02879147631998,217.57212046114697 118.99805603076416,216.90362452030797 C118.93317009014635,215.48125640097484 119.09965375357368,214.0486431331232 119.49323820916345,212.68091580588936 C119.88426137762357,211.3114809539024 120.50153157586956,210.00863956728637 121.29211553655529,208.8227636262578 C121.68740751689813,208.22854501217867 122.12538761606854,207.66335431890224 122.59837197267751,207.12889907118165 C123.07221009166301,206.59529758583759 123.57849118095743,206.085601447037 124.10782385441874,205.60322570428596 C125.16563543896476,204.63932798116048 126.32077593443756,203.78044303035074 127.5433636576578,203.03169342611596 z" id="svg_20" stroke-width="0" stroke="null" transform=""/><path fill="#ffffff" d="M146.10842653574772,230.77897066400612 C146.16648237735316,231.12901323839185 146.19807158528553,231.48759343654302 146.18697267439038,231.8470273970708 C146.1716049516125,232.20560759522203 146.11867168426633,232.5735791795152 145.9624331693576,232.89971640735752 C145.94450415945005,232.54028244682974 145.90864613963495,232.20390007046888 145.859127921795,231.8623951198487 C145.81131722870816,231.52345145635815 145.7541151494793,231.18621531762074 145.69862059500355,230.84556412937707 C145.64312604052776,230.50662046588656 145.58507019892232,230.1651155152664 145.53811326821202,229.81934175276342 C145.4920100998783,229.4735679902605 145.44932198105076,229.1243791782514 145.44761445629769,228.7632376929705 C145.61751316923122,229.0816910594238 145.7472850504669,229.40953581201921 145.85656663466534,229.74591818838013 C145.96328693173416,230.0840080894941 146.05037069414232,230.4280743272439 146.10842653574772,230.77897066400612 zM151.94816119135297,227.3980716528663 C151.94816119135297,228.1895093759286 152.5936055480251,228.83324620784765 153.38418950871082,228.83324620784765 C154.17648099414964,228.83324620784765 154.82021782606873,228.1895093759286 154.82021782606873,227.3980716528663 C154.82021782606873,226.606633929804 154.17648099414964,225.96289709788493 153.38418950871082,225.96289709788493 C152.5936055480251,225.96289709788493 151.94816119135297,226.606633929804 151.94816119135297,227.3980716528663 zM152.3647972311096,227.3980716528663 C152.3647972311096,226.8362960090961 152.82156010256406,226.3795331376416 153.38162822158117,226.3795331376416 C153.9434038653514,226.3795331376416 154.40102049918247,226.8362960090961 154.40102049918247,227.3980716528663 C154.40102049918247,227.9598472966365 153.9434038653514,228.41661016809098 153.38162822158117,228.41661016809098 C152.82156010256406,228.41661016809098 152.3647972311096,227.9598472966365 152.3647972311096,227.3980716528663 zM135.12648108617907,226.75348105857074 C135.12648108617907,227.62858749453494 135.83766514584562,228.34062531657804 136.71277158180985,228.34062531657804 S138.29991583981717,227.62858749453494 138.29991583981717,226.75348105857074 C138.29991583981717,225.87922838498304 137.58787801777407,225.16719056293994 136.71277158180985,225.16719056293994 S135.12648108617907,225.87922838498304 135.12648108617907,226.75348105857074 zM135.54226336355913,226.75348105857074 C135.54226336355913,226.10803670189858 136.06732722513772,225.58297284032 136.71277158180985,225.58297284032 S137.88327980006054,226.10803670189858 137.88327980006054,226.75348105857074 S137.358215938482,227.92484303919792 136.71277158180985,227.92484303919792 C136.06818098751424,227.92484303919792 135.54226336355913,227.39892541524284 135.54226336355913,226.75348105857074 z" id="svg_22" stroke-width="0" stroke="null" transform=""/></g></g><defs><path fill="#000000" stroke="#000000" d="M59.71782,121.27554Q95.96782,123.27554 132.2182,121.02554" id="svg_6"/><path fill="#000000" stroke="#000000" d="M22.51298,97.29355Q34.51298,99.29355 46.53028,97.04355" id="svg_11"/><path fill="#000000" stroke="#000000" d="M37.56956,204.98703Q68.11956,206.98703 98.66834,204.73703" id="svg_13"/><path fill="#000000" stroke="#000000" d="M39.78447,187.64236Q60.43447,189.64236 81.12547,187.39236" id="svg_15"/><path id="svg_18" d="M-648.92218,917.05298A741.92706,741.92706 0 0 1 834.93195,917.05298A741.92706,741.92706 0 0 1 -648.92218,917.05298A741.92706,741.92706 0 0 1 834.93195,917.05298A741.92706,741.92706 0 0 1 -648.92218,917.05298" stroke="#000000" fill="#000000"/><path id="svg_21" d="M-4617.89307,5004.97559A4791.6123,4791.6123 0 0 1 4965.33154,5004.97559A4791.6123,4791.6123 0 0 1 -4617.89307,5004.97559A4791.6123,4791.6123 0 0 1 4965.33154,5004.97559A4791.6123,4791.6123 0 0 1 -4617.89307,5004.97559" stroke="#000000" fill="#000000"/><path id="svg_24" d="M-4663.14355,5041.52539A4791.6123,4791.6123 0 0 1 4920.08106,5041.52539A4791.6123,4791.6123 0 0 1 -4663.14355,5041.52539A4791.6123,4791.6123 0 0 1 4920.08106,5041.52539A4791.6123,4791.6123 0 0 1 -4663.14355,5041.52539" stroke="#000000" fill="#000000"/><path id="svg_27" d="M-2839.43726,3167.98535A2922.08472,2922.08472 0 0 1 3004.73217,3167.98535A2922.08472,2922.08472 0 0 1 -2839.43726,3167.98535A2922.08472,2922.08472 0 0 1 3004.73217,3167.98535A2922.08472,2922.08472 0 0 1 -2839.43726,3167.98535" stroke="#000000" fill="#000000"/></defs></svg>