<?xml version="1.0" encoding="utf-8"?>
<!-- Generator: Adobe Illustrator 16.0.0, SVG Export Plug-In . SVG Version: 6.00 Build 0)  -->
<!DOCTYPE svg PUBLIC "-//W3C//DTD SVG 1.1//EN" "http://www.w3.org/Graphics/SVG/1.1/DTD/svg11.dtd">
<svg version="1.1" id="Layer_1" xmlns="http://www.w3.org/2000/svg" xmlns:xlink="http://www.w3.org/1999/xlink" x="0px" y="0px"
	 width="28.312px" height="22.189px" viewBox="1.438 4.625 28.312 22.189" enable-background="new 1.438 4.625 28.312 22.189"
	 xml:space="preserve">
<path d="M25.06,13.719c-0.944-5.172-5.461-9.094-10.903-9.094v4c3.917,0.006,7.085,3.176,7.094,7.094
	c-0.009,3.917-3.177,7.086-7.094,7.094v4.002c5.442-0.004,9.959-3.926,10.903-9.097h4.689v-3.999H25.06z M20.375,15.719
	c0-3.435-2.784-6.219-6.219-6.219c-2.733,0-5.05,1.767-5.884,4.218H1.438v4.001h6.834c0.833,2.452,3.149,4.22,5.884,4.22
	C17.591,21.938,20.375,19.153,20.375,15.719z"/>
</svg>
