<?xml version="1.0" encoding="utf-8"?>
<!-- Generator: Adobe Illustrator 16.0.0, SVG Export Plug-In . SVG Version: 6.00 Build 0)  -->
<!DOCTYPE svg PUBLIC "-//W3C//DTD SVG 1.1//EN" "http://www.w3.org/Graphics/SVG/1.1/DTD/svg11.dtd">
<svg version="1.1"
	 id="svg548" xmlns:cc="http://creativecommons.org/ns#" xmlns:dc="http://purl.org/dc/elements/1.1/" xmlns:rdf="http://www.w3.org/1999/02/22-rdf-syntax-ns#"
	 xmlns="http://www.w3.org/2000/svg" xmlns:xlink="http://www.w3.org/1999/xlink" x="0px" y="0px" width="143.447px"
	 height="71.281px" viewBox="0 0 143.447 71.281" enable-background="new 0 0 143.447 71.281" xml:space="preserve">
<rect id="rect568" x="0" y="0.433" fill="#FFFFFF" width="143.694" height="70.185"/>
<rect id="rect558" x="0" y="0.433" fill="#94ACD4" width="143.694" height="24.292"/>
<rect id="rect557" x="0" y="47.933" fill="#00A900" width="143.694" height="22.686"/>
<path fill="#B73000" d="M0,23.118h143.694v1.608H0V23.118z M0,47.933h143.694v1.608H0V47.933z"/>
<path fill="#FEFFFF" d="M37.817,7.656l-1.337-0.9l-1.325,0.92l0.458-1.527l-1.301-0.953l1.621-0.046l0.52-1.508l0.546,1.5
	l1.622,0.021l-1.283,0.972L37.817,7.656z M31.508,19.782l-1.338-0.899l-1.323,0.92l0.457-1.526l-1.3-0.953l1.62-0.046l0.521-1.509
	l0.546,1.5l1.62,0.021l-1.282,0.972L31.508,19.782z M37.879,19.782l-1.338-0.899l-1.324,0.92l0.457-1.526l-1.299-0.953l1.619-0.046
	l0.521-1.509l0.545,1.5l1.621,0.021l-1.283,0.972L37.879,19.782z M43.763,19.782l-1.338-0.899l-1.324,0.92l0.457-1.526l-1.3-0.953
	l1.62-0.046l0.521-1.509l0.546,1.5l1.62,0.021l-1.282,0.972L43.763,19.782z M49.225,19.782l-1.338-0.899l-1.324,0.92l0.457-1.526
	l-1.3-0.953l1.62-0.046l0.521-1.509l0.545,1.5l1.622,0.021l-1.284,0.972L49.225,19.782z M24.833,19.782l-1.338-0.899l-1.325,0.92
	l0.457-1.526l-1.299-0.953l1.62-0.046l0.521-1.509l0.545,1.5l1.62,0.021l-1.282,0.972L24.833,19.782z M31.386,13.763l-1.339-0.899
	l-1.324,0.92l0.457-1.527l-1.3-0.953l1.62-0.047l0.521-1.509l0.545,1.5l1.622,0.02l-1.282,0.973L31.386,13.763z M37.817,13.763
	l-1.337-0.899l-1.325,0.92l0.458-1.527l-1.301-0.953l1.621-0.047l0.52-1.509l0.546,1.5l1.622,0.02l-1.283,0.973L37.817,13.763z
	 M43.885,13.763l-1.339-0.899l-1.323,0.92l0.457-1.527l-1.3-0.953L42,11.258l0.521-1.509l0.545,1.5l1.621,0.02l-1.282,0.973
	L43.885,13.763z M49.164,13.763l-1.338-0.899l-1.324,0.92l0.457-1.527l-1.3-0.953l1.621-0.047l0.519-1.509l0.547,1.5l1.621,0.02
	l-1.283,0.973L49.164,13.763z M49.103,7.656l-1.337-0.9l-1.326,0.92l0.457-1.527l-1.299-0.953l1.621-0.046l0.52-1.508l0.546,1.5
	l1.621,0.021l-1.282,0.972L49.103,7.656z M43.825,7.656l-1.338-0.9l-1.324,0.92l0.457-1.527l-1.299-0.953l1.619-0.046l0.521-1.508
	l0.544,1.5l1.622,0.021l-1.282,0.972L43.825,7.656z M20.631,4.105C13.469,2.189,8.934,7.139,9.003,11.577
	c0.068,4.437,4.255,9.136,10.719,7.962c-10.155,4.648-15.348-2.672-15.14-8.484C4.937,4.185,12.844-1.418,20.631,4.105z"/>
</svg>
