<?xml version="1.0" encoding="utf-8"?>
<!-- Generator: Adobe Illustrator 16.0.0, SVG Export Plug-In . SVG Version: 6.00 Build 0)  -->
<!DOCTYPE svg PUBLIC "-//W3C//DTD SVG 1.1//EN" "http://www.w3.org/Graphics/SVG/1.1/DTD/svg11.dtd">
<svg version="1.1" id="Layer_1" xmlns="http://www.w3.org/2000/svg" xmlns:xlink="http://www.w3.org/1999/xlink" x="0px" y="0px"
	 width="100px" height="100px" viewBox="0 0 100 100" enable-background="new 0 0 100 100" xml:space="preserve">
<path d="M4.477,93.949c0-4.856-7.087-13.268,0-14.573c4.683-0.86,8.438-1.74,11.494-2.62l-0.996,0.001
	c-0.001-3.737-5.452-10.209,0-11.212c3.949-0.727,7.04-1.47,9.506-2.212c-0.542-2.753-3.541-6.738,0.08-7.403l0.191-0.037
	c0.001,0.431,0.005,0.865,0.01,1.307c-0.107,0.053-0.204,0.119-0.285,0.203c-0.378,0.396-0.34,1.089-0.273,1.55
	c0.11,0.786,0.378,1.597,0.63,2.364c0.044,1.818,0.105,3.687,0.177,5.563c-0.154-0.036-0.309-0.073-0.463-0.11
	c-0.493,0.117-0.981,0.229-1.462,0.334c-0.375,0.084-0.713,0.223-0.953,0.473c-0.522,0.542-0.467,1.496-0.379,2.133
	c0.162,1.141,0.565,2.318,0.929,3.43c0.146,0.446,0.303,0.918,0.45,1.4c0.734-0.137,1.467-0.27,2.2-0.396
	c0.12,2.428,0.248,4.787,0.372,6.982c-0.416,0.096-0.828,0.188-1.236,0.277c-0.485,0.107-0.924,0.289-1.237,0.613
	c-0.677,0.705-0.609,1.943-0.492,2.771c0.208,1.482,0.735,3.014,1.206,4.456c0.479,1.466,1.056,3.132,1.269,4.706h-7.14
	c0.211-1.574,0.792-3.24,1.271-4.705c0.468-1.443,0.994-2.975,1.204-4.456c0.116-0.828,0.187-2.067-0.492-2.772
	c-0.312-0.322-0.752-0.506-1.239-0.613c-0.625-0.139-1.259-0.28-1.901-0.434c-0.64,0.152-1.276,0.295-1.9,0.434
	c-0.488,0.107-0.928,0.291-1.24,0.613c-0.676,0.705-0.607,1.943-0.493,2.772c0.212,1.481,0.737,3.013,1.21,4.456
	c0.476,1.465,1.053,3.131,1.266,4.705H8.62c0.213-1.574,0.793-3.24,1.272-4.705c0.469-1.443,0.998-2.975,1.203-4.456
	c0.117-0.828,0.188-2.067-0.491-2.772c-0.31-0.324-0.75-0.506-1.239-0.613c-0.624-0.139-1.258-0.282-1.899-0.434
	c-0.641,0.152-1.276,0.295-1.903,0.434c-0.485,0.107-0.925,0.289-1.236,0.613c-0.678,0.705-0.608,1.944-0.493,2.772
	c0.209,1.481,0.735,3.013,1.207,4.456c0.479,1.465,1.056,3.13,1.271,4.704L4.477,93.949L4.477,93.949z M75.247,55.893l0.19,0.037
	c3.621,0.666,0.623,4.651,0.08,7.403c2.465,0.742,5.558,1.485,9.506,2.212c5.451,1.003,0,7.475,0,11.211l-0.994,0.001
	c3.055,0.879,6.812,1.759,11.492,2.619c7.088,1.308,0.002,9.717,0.002,14.573h-1.834c0.215-1.574,0.791-3.24,1.271-4.705
	c0.472-1.443,0.997-2.975,1.207-4.457c0.114-0.827,0.185-2.067-0.494-2.771c-0.31-0.324-0.751-0.506-1.235-0.613
	c-0.627-0.139-1.263-0.282-1.903-0.434c-0.64,0.15-1.274,0.295-1.897,0.434c-0.488,0.107-0.929,0.289-1.24,0.613
	c-0.68,0.704-0.605,1.944-0.489,2.771c0.206,1.482,0.733,3.014,1.202,4.457c0.479,1.465,1.062,3.131,1.271,4.705h-7.143
	c0.212-1.574,0.791-3.24,1.27-4.706c0.471-1.442,0.998-2.974,1.208-4.456c0.114-0.827,0.185-2.067-0.493-2.771
	c-0.312-0.324-0.75-0.506-1.238-0.613c-0.623-0.137-1.26-0.28-1.899-0.434c-0.642,0.15-1.276,0.295-1.901,0.434
	c-0.488,0.107-0.927,0.289-1.236,0.613c-0.68,0.704-0.608,1.943-0.494,2.771c0.211,1.482,0.734,3.014,1.206,4.457
	c0.479,1.465,1.058,3.131,1.271,4.704h-7.142c0.213-1.573,0.792-3.239,1.271-4.705c0.471-1.442,0.998-2.974,1.205-4.455
	c0.117-0.828,0.186-2.068-0.492-2.772c-0.313-0.324-0.752-0.505-1.236-0.613c-0.407-0.09-0.82-0.183-1.235-0.277
	c0.126-2.252,0.259-4.674,0.382-7.169c0.746,0.132,1.493,0.271,2.238,0.413c0.137-0.424,0.273-0.84,0.4-1.232
	c0.365-1.111,0.768-2.287,0.929-3.428c0.089-0.639,0.146-1.592-0.378-2.134c-0.239-0.25-0.578-0.39-0.954-0.472
	c-0.479-0.106-0.968-0.218-1.462-0.334c-0.155,0.037-0.309,0.073-0.463,0.109c0.072-1.878,0.131-3.745,0.177-5.563
	c0.251-0.77,0.521-1.578,0.63-2.364c0.066-0.463,0.104-1.154-0.271-1.55c-0.082-0.084-0.178-0.15-0.285-0.203
	C75.242,56.759,75.246,56.322,75.247,55.893L75.247,55.893z M16.369,76.641c0.673-0.197,1.313-0.396,1.918-0.593
	c0.21-0.991,0.555-2.002,0.854-2.912c0.364-1.11,0.767-2.288,0.927-3.429c0.09-0.637,0.145-1.591-0.378-2.133
	c-0.238-0.25-0.577-0.391-0.951-0.473c-0.48-0.105-0.97-0.217-1.463-0.332c-0.494,0.116-0.981,0.227-1.463,0.332
	c-0.375,0.084-0.712,0.223-0.951,0.473c-0.523,0.542-0.468,1.496-0.38,2.133c0.162,1.143,0.566,2.318,0.929,3.429
	C15.765,74.227,16.193,75.463,16.369,76.641L16.369,76.641z M81.713,76.049c0.605,0.196,1.243,0.395,1.916,0.592
	c0.176-1.178,0.605-2.414,0.961-3.505c0.363-1.11,0.768-2.286,0.93-3.428c0.088-0.638,0.143-1.592-0.379-2.134
	c-0.24-0.25-0.578-0.391-0.951-0.473c-0.483-0.105-0.972-0.216-1.467-0.332c-0.49,0.116-0.98,0.227-1.461,0.332
	c-0.375,0.084-0.713,0.223-0.951,0.473c-0.522,0.542-0.468,1.496-0.379,2.133c0.16,1.141,0.563,2.316,0.928,3.429
	C81.156,74.046,81.502,75.057,81.713,76.049L81.713,76.049z M66.45,38.929c0.313,0.197,0.646,0.395,0.995,0.592
	c0.091-1.178,0.313-2.414,0.498-3.505c0.188-1.11,0.397-2.287,0.48-3.428c0.047-0.637,0.074-1.592-0.195-2.134
	c-0.125-0.249-0.301-0.388-0.494-0.471c-0.25-0.106-0.504-0.217-0.76-0.333c-0.257,0.116-0.509,0.227-0.759,0.333
	c-0.194,0.083-0.37,0.223-0.493,0.471c-0.271,0.542-0.244,1.498-0.197,2.134c0.084,1.141,0.295,2.317,0.48,3.428
	C66.161,36.926,66.342,37.936,66.45,38.929L66.45,38.929z M62.35,36.684c0.537,0.177,1.076,0.364,1.613,0.565
	c0.07-0.423,0.143-0.836,0.208-1.232c0.188-1.11,0.397-2.287,0.481-3.428c0.046-0.637,0.074-1.592-0.196-2.134
	c-0.124-0.249-0.3-0.388-0.494-0.471c-0.249-0.106-0.503-0.217-0.759-0.333c-0.256,0.116-0.51,0.227-0.76,0.333
	c-0.193,0.083-0.369,0.223-0.492,0.471c-0.271,0.542-0.243,1.498-0.197,2.134c0.083,1.141,0.293,2.317,0.48,3.428L62.35,36.684
	L62.35,36.684z M58.395,35.615c0.664,0.143,1.328,0.305,1.99,0.484l0.016-0.083c0.188-1.11,0.396-2.287,0.479-3.428
	c0.046-0.637,0.074-1.592-0.196-2.134c-0.123-0.249-0.3-0.388-0.492-0.471c-0.252-0.106-0.504-0.217-0.76-0.333
	c-0.257,0.116-0.51,0.227-0.76,0.333c-0.193,0.083-0.369,0.223-0.492,0.471c-0.271,0.542-0.244,1.498-0.197,2.134
	C58.057,33.592,58.227,34.625,58.395,35.615L58.395,35.615z M54.518,34.99c0.744,0.08,1.487,0.184,2.231,0.309
	c0.149-0.892,0.293-1.812,0.358-2.71c0.047-0.637,0.074-1.592-0.195-2.134c-0.126-0.249-0.301-0.388-0.494-0.471
	c-0.25-0.106-0.503-0.217-0.759-0.333c-0.257,0.116-0.509,0.227-0.759,0.333c-0.194,0.083-0.371,0.223-0.494,0.471
	c-0.271,0.542-0.243,1.498-0.196,2.134C54.268,33.383,54.387,34.194,54.518,34.99L54.518,34.99z M50.708,34.772
	c0.78,0.004,1.56,0.034,2.339,0.087c0.122-0.753,0.232-1.52,0.288-2.271c0.045-0.637,0.074-1.592-0.196-2.134
	c-0.125-0.249-0.301-0.388-0.494-0.471c-0.25-0.106-0.504-0.217-0.758-0.333c-0.257,0.116-0.511,0.227-0.76,0.333
	c-0.193,0.083-0.37,0.223-0.495,0.471c-0.271,0.542-0.242,1.498-0.196,2.134C50.49,33.31,50.593,34.047,50.708,34.772L50.708,34.772
	z M46.963,34.932c0.775-0.071,1.55-0.119,2.324-0.143c0.118-0.73,0.223-1.474,0.276-2.2c0.046-0.637,0.074-1.592-0.197-2.134
	c-0.124-0.249-0.3-0.388-0.494-0.471c-0.25-0.106-0.503-0.217-0.758-0.333c-0.256,0.116-0.51,0.227-0.759,0.333
	c-0.194,0.083-0.37,0.223-0.494,0.471c-0.271,0.542-0.243,1.498-0.196,2.134C46.721,33.364,46.836,34.155,46.963,34.932
	L46.963,34.932z M43.276,35.443c0.729-0.135,1.459-0.25,2.189-0.345c0.137-0.83,0.265-1.679,0.326-2.509
	c0.045-0.637,0.073-1.592-0.197-2.134c-0.124-0.249-0.299-0.388-0.493-0.471c-0.25-0.106-0.503-0.217-0.759-0.333
	c-0.256,0.116-0.509,0.227-0.759,0.333c-0.194,0.083-0.37,0.223-0.494,0.471c-0.271,0.542-0.242,1.498-0.196,2.134
	C42.961,33.535,43.117,34.505,43.276,35.443L43.276,35.443z M39.645,36.278c0.644-0.175,1.287-0.339,1.93-0.485
	c0.178-1.044,0.365-2.14,0.443-3.204c0.046-0.637,0.075-1.592-0.196-2.134c-0.125-0.249-0.3-0.388-0.494-0.471
	c-0.25-0.106-0.503-0.217-0.759-0.333c-0.257,0.116-0.509,0.227-0.759,0.333c-0.193,0.083-0.369,0.223-0.494,0.471
	c-0.271,0.542-0.242,1.498-0.196,2.134c0.083,1.141,0.293,2.317,0.48,3.428L39.645,36.278L39.645,36.278z M36.063,37.418
	c0.518-0.187,1.036-0.365,1.554-0.533c0.05-0.297,0.1-0.586,0.148-0.869c0.188-1.11,0.397-2.287,0.481-3.428
	c0.045-0.637,0.074-1.592-0.197-2.134c-0.124-0.249-0.299-0.388-0.494-0.471c-0.25-0.106-0.503-0.217-0.759-0.333
	c-0.256,0.116-0.509,0.227-0.759,0.333c-0.194,0.083-0.37,0.223-0.494,0.471c-0.271,0.542-0.243,1.498-0.197,2.134
	c0.083,1.141,0.293,2.317,0.481,3.428C35.904,36.464,35.986,36.937,36.063,37.418L36.063,37.418z M32.555,39.521
	c0.349-0.198,0.681-0.396,0.995-0.592c0.109-0.993,0.29-2.003,0.443-2.913c0.188-1.11,0.398-2.287,0.481-3.428
	c0.046-0.637,0.074-1.592-0.196-2.134c-0.124-0.249-0.299-0.388-0.493-0.471c-0.25-0.106-0.503-0.217-0.759-0.333
	c-0.256,0.116-0.509,0.227-0.759,0.333c-0.194,0.083-0.37,0.223-0.494,0.471c-0.271,0.542-0.242,1.498-0.197,2.134
	c0.084,1.141,0.293,2.317,0.481,3.428C32.241,37.108,32.464,38.344,32.555,39.521L32.555,39.521z M61.787,25.283
	c0.304,0.217,0.631,0.435,0.986,0.654c0.076-0.555,0.174-1.106,0.26-1.614c0.136-0.807,0.289-1.662,0.35-2.491
	c0.032-0.462,0.053-1.156-0.143-1.549c-0.092-0.181-0.219-0.282-0.36-0.343c-0.181-0.076-0.362-0.157-0.551-0.241
	c-0.185,0.084-0.37,0.165-0.55,0.241c-0.143,0.061-0.271,0.162-0.359,0.343c-0.195,0.394-0.176,1.087-0.143,1.549
	c0.061,0.829,0.211,1.684,0.349,2.491C61.68,24.63,61.734,24.953,61.787,25.283L61.787,25.283z M58.818,23.923
	c0.488,0.147,0.974,0.306,1.461,0.479l0.014-0.079c0.137-0.807,0.289-1.662,0.35-2.491c0.033-0.462,0.055-1.156-0.143-1.549
	c-0.09-0.181-0.218-0.282-0.357-0.343c-0.184-0.076-0.365-0.157-0.554-0.241c-0.185,0.084-0.368,0.165-0.551,0.241
	c-0.142,0.061-0.269,0.162-0.358,0.343c-0.195,0.394-0.176,1.087-0.143,1.549C58.587,22.526,58.702,23.237,58.818,23.923
	L58.818,23.923z M55.963,23.212c0.57,0.112,1.141,0.242,1.711,0.391c0.098-0.586,0.186-1.185,0.229-1.77
	c0.033-0.462,0.055-1.156-0.143-1.549c-0.09-0.181-0.218-0.282-0.359-0.343c-0.18-0.076-0.364-0.157-0.551-0.241
	c-0.186,0.084-0.369,0.165-0.552,0.241c-0.141,0.061-0.269,0.162-0.358,0.343c-0.195,0.394-0.176,1.087-0.143,1.549
	C55.83,22.289,55.893,22.753,55.963,23.212L55.963,23.212z M53.162,22.801c0.62,0.061,1.24,0.141,1.859,0.242
	c0.062-0.403,0.11-0.81,0.142-1.21c0.032-0.462,0.053-1.156-0.144-1.549c-0.09-0.181-0.219-0.282-0.359-0.343
	c-0.18-0.076-0.365-0.157-0.551-0.241c-0.188,0.084-0.371,0.165-0.551,0.241c-0.142,0.061-0.27,0.162-0.358,0.343
	c-0.196,0.394-0.177,1.087-0.144,1.549C53.081,22.153,53.117,22.478,53.162,22.801L53.162,22.801z M50.404,22.665
	c0.641,0.001,1.282,0.023,1.923,0.067c0.04-0.301,0.073-0.602,0.096-0.899c0.033-0.462,0.054-1.156-0.144-1.549
	c-0.09-0.181-0.217-0.282-0.358-0.343c-0.181-0.076-0.364-0.157-0.552-0.241c-0.186,0.084-0.37,0.165-0.551,0.241
	c-0.142,0.061-0.27,0.162-0.358,0.343c-0.196,0.394-0.176,1.087-0.143,1.549C50.338,22.108,50.368,22.387,50.404,22.665
	L50.404,22.665z M47.68,22.788c0.638-0.058,1.276-0.096,1.914-0.112c0.037-0.282,0.068-0.563,0.088-0.842
	c0.033-0.462,0.054-1.156-0.143-1.549c-0.09-0.181-0.217-0.282-0.359-0.343c-0.181-0.076-0.365-0.157-0.551-0.241
	c-0.186,0.084-0.37,0.165-0.551,0.241c-0.141,0.061-0.269,0.162-0.359,0.343c-0.195,0.394-0.175,1.087-0.142,1.549
	C47.601,22.149,47.637,22.468,47.68,22.788L47.68,22.788z M44.994,23.151c0.611-0.11,1.222-0.201,1.833-0.274
	c0.049-0.349,0.09-0.699,0.116-1.044c0.033-0.462,0.054-1.156-0.143-1.549c-0.091-0.181-0.217-0.282-0.359-0.343
	c-0.181-0.076-0.365-0.157-0.551-0.241c-0.186,0.084-0.37,0.165-0.551,0.241c-0.141,0.061-0.269,0.162-0.358,0.343
	c-0.197,0.394-0.176,1.087-0.143,1.549C44.869,22.269,44.927,22.712,44.994,23.151L44.994,23.151z M42.349,23.74
	c0.556-0.147,1.112-0.28,1.668-0.398c0.079-0.502,0.149-1.01,0.186-1.509c0.033-0.462,0.054-1.156-0.143-1.549
	c-0.09-0.181-0.218-0.282-0.358-0.343c-0.182-0.076-0.367-0.157-0.551-0.241c-0.186,0.084-0.371,0.165-0.551,0.241
	c-0.142,0.061-0.269,0.162-0.359,0.343c-0.197,0.394-0.176,1.087-0.143,1.549C42.144,22.464,42.243,23.111,42.349,23.74
	L42.349,23.74z M39.743,24.537c0.471-0.163,0.941-0.316,1.412-0.458c0.125-0.734,0.254-1.5,0.308-2.246
	c0.033-0.462,0.054-1.156-0.143-1.549c-0.09-0.181-0.218-0.282-0.358-0.343c-0.182-0.076-0.366-0.157-0.551-0.241
	c-0.186,0.084-0.37,0.165-0.552,0.241c-0.141,0.061-0.268,0.162-0.359,0.343c-0.196,0.394-0.176,1.087-0.143,1.549
	c0.061,0.829,0.213,1.684,0.349,2.491L39.743,24.537L39.743,24.537z M37.227,25.938c0.354-0.219,0.682-0.438,0.986-0.655
	c0.053-0.33,0.109-0.652,0.161-0.958c0.137-0.807,0.29-1.662,0.35-2.491c0.034-0.462,0.054-1.156-0.142-1.549
	c-0.091-0.181-0.219-0.282-0.359-0.343c-0.182-0.076-0.365-0.157-0.551-0.241c-0.187,0.084-0.37,0.165-0.551,0.241
	c-0.142,0.061-0.269,0.162-0.359,0.343c-0.196,0.394-0.176,1.087-0.142,1.549c0.061,0.829,0.212,1.684,0.349,2.491
	C37.054,24.831,37.15,25.382,37.227,25.938L37.227,25.938z M57.732,15.985c0.08,0.03,0.16,0.059,0.24,0.089
	c0.104,0.087,0.213,0.174,0.327,0.26c0.054-0.438,0.132-0.879,0.198-1.28c0.089-0.527,0.188-1.083,0.229-1.624
	c0.021-0.302,0.035-0.754-0.094-1.011c-0.058-0.118-0.142-0.184-0.232-0.223c-0.118-0.05-0.237-0.103-0.359-0.158
	c-0.121,0.055-0.241,0.107-0.359,0.158c-0.092,0.039-0.175,0.105-0.233,0.223c-0.128,0.257-0.114,0.709-0.093,1.011
	c0.039,0.541,0.139,1.097,0.229,1.624C57.632,15.349,57.688,15.665,57.732,15.985L57.732,15.985z M55.852,15.38
	c0.256,0.07,0.512,0.145,0.77,0.226c0.029-0.189,0.063-0.375,0.092-0.551c0.09-0.527,0.188-1.083,0.229-1.624
	c0.021-0.302,0.035-0.754-0.092-1.011c-0.06-0.118-0.144-0.184-0.233-0.223c-0.119-0.05-0.238-0.104-0.36-0.158
	c-0.121,0.055-0.24,0.107-0.359,0.158c-0.092,0.039-0.174,0.104-0.233,0.223c-0.128,0.257-0.114,0.709-0.093,1.011
	c0.039,0.541,0.14,1.097,0.229,1.624L55.852,15.38L55.852,15.38z M53.993,14.959c0.305,0.055,0.61,0.117,0.917,0.187l0.015-0.091
	c0.091-0.527,0.188-1.083,0.229-1.624c0.021-0.302,0.035-0.754-0.092-1.011c-0.061-0.118-0.145-0.184-0.234-0.223
	c-0.119-0.05-0.238-0.104-0.359-0.158c-0.121,0.055-0.24,0.107-0.359,0.158c-0.092,0.039-0.176,0.104-0.233,0.223
	c-0.129,0.257-0.114,0.709-0.094,1.011C53.818,13.938,53.907,14.461,53.993,14.959L53.993,14.959z M52.164,14.711
	c0.337,0.031,0.675,0.07,1.013,0.117c0.078-0.458,0.155-0.935,0.189-1.398c0.022-0.302,0.034-0.754-0.093-1.011
	c-0.06-0.118-0.142-0.184-0.233-0.223c-0.119-0.05-0.238-0.103-0.358-0.158c-0.121,0.055-0.242,0.107-0.359,0.158
	c-0.094,0.039-0.176,0.105-0.234,0.223c-0.129,0.257-0.115,0.709-0.094,1.011C52.023,13.855,52.093,14.29,52.164,14.711
	L52.164,14.711z M50.363,14.626c0.353,0.001,0.706,0.012,1.057,0.032c0.066-0.405,0.131-0.821,0.159-1.227
	c0.022-0.302,0.034-0.754-0.093-1.011c-0.059-0.118-0.141-0.184-0.233-0.223c-0.118-0.05-0.237-0.104-0.358-0.158
	c-0.121,0.055-0.242,0.107-0.359,0.158c-0.093,0.039-0.176,0.104-0.234,0.223c-0.129,0.257-0.115,0.709-0.094,1.011
	C50.236,13.826,50.297,14.231,50.363,14.626L50.363,14.626z M48.586,14.692c0.35-0.027,0.7-0.047,1.049-0.057
	c0.066-0.397,0.128-0.806,0.158-1.204c0.021-0.302,0.035-0.754-0.093-1.011c-0.059-0.118-0.143-0.184-0.234-0.223
	c-0.118-0.05-0.238-0.104-0.359-0.158c-0.121,0.055-0.241,0.107-0.359,0.158c-0.092,0.039-0.175,0.104-0.234,0.223
	c-0.127,0.257-0.114,0.709-0.092,1.011C48.451,13.848,48.517,14.276,48.586,14.692L48.586,14.692z M46.835,14.899
	c0.331-0.052,0.661-0.097,0.992-0.135c0.074-0.438,0.146-0.892,0.179-1.333c0.021-0.302,0.035-0.754-0.093-1.011
	c-0.06-0.118-0.143-0.184-0.235-0.223c-0.117-0.05-0.238-0.104-0.359-0.158c-0.122,0.055-0.241,0.107-0.36,0.158
	c-0.092,0.039-0.175,0.104-0.233,0.223c-0.128,0.257-0.115,0.709-0.093,1.011C46.669,13.917,46.753,14.419,46.835,14.899
	L46.835,14.899z M45.105,15.24c0.295-0.07,0.591-0.134,0.887-0.191c0.088-0.525,0.188-1.08,0.227-1.618
	c0.021-0.302,0.035-0.754-0.093-1.011c-0.059-0.118-0.142-0.184-0.233-0.223c-0.119-0.05-0.239-0.104-0.36-0.158
	c-0.121,0.055-0.241,0.107-0.359,0.158c-0.092,0.039-0.175,0.104-0.234,0.223c-0.128,0.257-0.115,0.709-0.093,1.011
	c0.04,0.541,0.139,1.097,0.228,1.624L45.105,15.24L45.105,15.24z M43.396,15.708c0.244-0.076,0.489-0.148,0.734-0.216
	c0.024-0.149,0.05-0.295,0.074-0.437c0.089-0.527,0.188-1.083,0.228-1.624c0.022-0.302,0.035-0.754-0.092-1.011
	c-0.059-0.118-0.143-0.184-0.234-0.223c-0.119-0.05-0.239-0.104-0.359-0.158c-0.122,0.055-0.242,0.107-0.36,0.158
	c-0.092,0.039-0.175,0.104-0.234,0.223c-0.128,0.257-0.115,0.709-0.093,1.011c0.04,0.541,0.139,1.097,0.228,1.624
	C43.322,15.263,43.361,15.483,43.396,15.708L43.396,15.708z M41.699,16.334c0.033-0.025,0.067-0.051,0.099-0.077
	c0.151-0.057,0.301-0.112,0.452-0.166c0.049-0.356,0.112-0.71,0.167-1.037c0.09-0.527,0.188-1.083,0.229-1.624
	c0.021-0.302,0.035-0.754-0.094-1.011c-0.058-0.118-0.141-0.184-0.233-0.223c-0.119-0.05-0.239-0.103-0.359-0.158
	c-0.122,0.055-0.242,0.107-0.36,0.158c-0.092,0.039-0.175,0.105-0.233,0.223c-0.128,0.257-0.115,0.709-0.093,1.011
	c0.04,0.541,0.139,1.097,0.228,1.624C41.568,15.455,41.647,15.897,41.699,16.334L41.699,16.334z M53.262,9.083
	c0.086,0.02,0.172,0.041,0.258,0.062c0.021-0.146,0.047-0.291,0.069-0.424c0.036-0.223,0.079-0.458,0.097-0.686
	c0.01-0.127,0.015-0.318-0.041-0.427c-0.022-0.049-0.059-0.078-0.098-0.094c-0.051-0.021-0.102-0.043-0.152-0.066
	c-0.051,0.023-0.102,0.045-0.15,0.066c-0.039,0.017-0.074,0.045-0.1,0.094c-0.056,0.108-0.049,0.3-0.039,0.427
	c0.017,0.229,0.059,0.463,0.097,0.686C53.221,8.835,53.242,8.958,53.262,9.083L53.262,9.083z M52.48,8.927
	c0.104,0.017,0.205,0.036,0.31,0.056c0.015-0.089,0.028-0.178,0.043-0.262c0.038-0.223,0.08-0.458,0.099-0.686
	c0.008-0.127,0.014-0.318-0.039-0.427c-0.025-0.049-0.062-0.078-0.101-0.094c-0.05-0.021-0.101-0.043-0.151-0.066
	c-0.052,0.023-0.103,0.045-0.15,0.066c-0.039,0.017-0.074,0.045-0.1,0.094c-0.055,0.108-0.049,0.3-0.039,0.427
	c0.018,0.229,0.059,0.463,0.096,0.686L52.48,8.927L52.48,8.927z M51.708,8.816c0.115,0.013,0.231,0.027,0.349,0.044l0.022-0.14
	c0.038-0.223,0.08-0.458,0.097-0.686c0.01-0.127,0.016-0.318-0.037-0.427c-0.025-0.049-0.062-0.078-0.101-0.094
	c-0.05-0.021-0.101-0.043-0.151-0.066c-0.052,0.022-0.104,0.045-0.152,0.066c-0.039,0.017-0.073,0.045-0.098,0.094
	c-0.055,0.108-0.05,0.3-0.039,0.427c0.016,0.229,0.057,0.463,0.096,0.686L51.708,8.816L51.708,8.816z M50.943,8.752
	c0.125,0.007,0.248,0.016,0.371,0.026l0.012-0.058c0.037-0.223,0.078-0.458,0.097-0.686c0.009-0.127,0.015-0.318-0.04-0.427
	c-0.023-0.049-0.06-0.078-0.098-0.094c-0.051-0.021-0.102-0.043-0.152-0.066c-0.051,0.022-0.104,0.045-0.152,0.066
	c-0.039,0.017-0.073,0.045-0.099,0.094c-0.054,0.108-0.049,0.3-0.039,0.427c0.017,0.229,0.058,0.463,0.097,0.686L50.943,8.752
	L50.943,8.752z M50.185,8.73c0.127,0,0.255,0.001,0.383,0.006L50.57,8.72c0.037-0.223,0.08-0.458,0.096-0.686
	c0.01-0.127,0.016-0.318-0.039-0.427c-0.025-0.049-0.059-0.078-0.098-0.094c-0.05-0.021-0.103-0.043-0.151-0.066
	c-0.052,0.022-0.103,0.045-0.153,0.066c-0.039,0.017-0.073,0.045-0.098,0.094c-0.055,0.108-0.049,0.3-0.039,0.427
	c0.016,0.229,0.058,0.463,0.096,0.686L50.185,8.73L50.185,8.73z M49.434,8.75c0.126-0.007,0.253-0.012,0.38-0.015l0.002-0.014
	c0.038-0.223,0.08-0.458,0.096-0.686c0.01-0.127,0.016-0.318-0.039-0.427c-0.025-0.049-0.06-0.078-0.099-0.094
	c-0.049-0.021-0.1-0.043-0.151-0.066c-0.052,0.023-0.103,0.045-0.151,0.066c-0.04,0.017-0.074,0.045-0.1,0.094
	c-0.053,0.108-0.047,0.3-0.039,0.427c0.017,0.229,0.059,0.463,0.096,0.686L49.434,8.75L49.434,8.75z M48.69,8.809
	c0.121-0.013,0.242-0.024,0.363-0.034l0.009-0.055c0.038-0.223,0.079-0.458,0.096-0.686c0.01-0.127,0.016-0.318-0.038-0.427
	c-0.025-0.049-0.061-0.078-0.099-0.094c-0.05-0.021-0.101-0.043-0.152-0.066c-0.051,0.022-0.102,0.045-0.152,0.066
	c-0.039,0.017-0.074,0.045-0.099,0.094c-0.054,0.108-0.048,0.3-0.039,0.427c0.017,0.229,0.059,0.463,0.096,0.686L48.69,8.809
	L48.69,8.809z M47.952,8.906c0.111-0.017,0.221-0.033,0.333-0.049l0.023-0.137c0.038-0.223,0.079-0.458,0.096-0.686
	c0.01-0.127,0.015-0.318-0.039-0.427c-0.024-0.049-0.06-0.078-0.098-0.094c-0.05-0.021-0.101-0.043-0.152-0.066
	c-0.051,0.022-0.102,0.045-0.152,0.066c-0.038,0.017-0.074,0.045-0.098,0.094c-0.054,0.108-0.048,0.3-0.04,0.427
	c0.016,0.229,0.059,0.463,0.096,0.686L47.952,8.906L47.952,8.906z M47.219,9.04c0.097-0.02,0.194-0.039,0.291-0.058
	c0.014-0.089,0.03-0.178,0.044-0.262c0.038-0.223,0.08-0.458,0.096-0.686c0.009-0.127,0.015-0.318-0.039-0.427
	c-0.025-0.049-0.06-0.078-0.099-0.094c-0.05-0.021-0.101-0.043-0.152-0.066c-0.051,0.022-0.102,0.045-0.152,0.066
	c-0.039,0.017-0.074,0.045-0.099,0.094c-0.054,0.108-0.048,0.3-0.039,0.427c0.017,0.229,0.059,0.463,0.096,0.686
	C47.184,8.822,47.202,8.93,47.219,9.04L47.219,9.04z M46.489,9.209c0.08-0.021,0.16-0.041,0.24-0.06
	c0.021-0.148,0.047-0.294,0.069-0.429c0.038-0.223,0.08-0.458,0.096-0.686c0.009-0.127,0.015-0.318-0.039-0.427
	c-0.025-0.049-0.06-0.078-0.099-0.094c-0.05-0.021-0.101-0.043-0.152-0.066c-0.051,0.022-0.102,0.045-0.152,0.066
	c-0.039,0.017-0.073,0.045-0.098,0.094c-0.054,0.108-0.049,0.3-0.039,0.427c0.017,0.229,0.058,0.463,0.096,0.686
	C46.438,8.874,46.467,9.042,46.489,9.209L46.489,9.209z M26.385,93.949h0.951c-0.11-1.575-0.41-40.359-0.659-41.823
	c-0.244-1.444-0.517-2.975-0.625-4.457c-0.06-0.828-0.097-2.069,0.255-2.773c0.162-0.324,0.39-0.505,0.642-0.613
	c0.325-0.138,0.654-0.282,0.986-0.434c0.332,0.152,0.662,0.295,0.986,0.434c0.253,0.107,0.481,0.289,0.643,0.613
	c0.352,0.704,0.315,1.945,0.255,2.773c-0.107,1.482-0.381,3.013-0.625,4.457c-0.248,1.464-0.549,40.248-0.659,41.823h3.705
	c-0.11-1.575-0.411-40.359-0.659-41.823c-0.244-1.444-0.517-2.975-0.625-4.457c-0.06-0.828-0.096-2.069,0.255-2.773
	c0.162-0.324,0.39-0.505,0.642-0.613c0.325-0.138,0.654-0.282,0.986-0.434c0.333,0.152,0.663,0.295,0.987,0.434
	c0.253,0.107,0.481,0.289,0.643,0.613c0.352,0.704,0.314,1.945,0.255,2.773c-0.109,1.482-0.382,3.013-0.625,4.457
	c-0.248,1.464-0.549,40.248-0.659,41.823h3.704c-0.111-1.575-0.411-40.359-0.659-41.823c-0.245-1.444-0.518-2.975-0.625-4.457
	c-0.06-0.828-0.097-2.069,0.255-2.773c0.162-0.324,0.39-0.505,0.642-0.613c0.324-0.138,0.653-0.282,0.986-0.434
	c0.333,0.152,0.662,0.295,0.987,0.434c0.252,0.107,0.48,0.289,0.642,0.613c0.352,0.704,0.315,1.945,0.255,2.773
	c-0.108,1.482-0.381,3.013-0.625,4.457c-0.249,1.464-0.549,40.248-0.659,41.823h3.704c-0.11-1.575-0.41-40.359-0.659-41.823
	c-0.244-1.444-0.517-2.975-0.625-4.457c-0.06-0.828-0.097-2.069,0.255-2.773c0.162-0.324,0.391-0.505,0.643-0.613
	c0.325-0.138,0.653-0.282,0.986-0.434c0.333,0.152,0.662,0.295,0.987,0.434c0.252,0.107,0.48,0.289,0.642,0.613
	c0.352,0.704,0.316,1.945,0.255,2.773c-0.108,1.482-0.381,3.013-0.625,4.457c-0.248,1.464-0.549,40.248-0.659,41.823h3.705
	c-0.111-1.575-0.411-40.359-0.659-41.823c-0.244-1.444-0.516-2.975-0.625-4.457c-0.06-0.828-0.097-2.069,0.255-2.773
	c0.162-0.324,0.39-0.505,0.641-0.613c0.325-0.138,0.655-0.282,0.987-0.434c0.332,0.152,0.661,0.295,0.986,0.434
	c0.253,0.107,0.48,0.289,0.642,0.613c0.352,0.704,0.315,1.945,0.255,2.773c-0.108,1.482-0.381,3.013-0.626,4.457
	c-0.248,1.464-0.547,40.248-0.659,41.823h3.705c-0.11-1.575-0.41-40.359-0.658-41.823c-0.244-1.444-0.518-2.975-0.625-4.457
	c-0.062-0.828-0.096-2.069,0.255-2.773c0.161-0.324,0.389-0.505,0.641-0.613c0.325-0.138,0.654-0.282,0.986-0.434
	c0.333,0.152,0.661,0.295,0.987,0.434c0.252,0.107,0.479,0.289,0.642,0.613c0.351,0.704,0.315,1.945,0.255,2.773
	c-0.107,1.482-0.381,3.013-0.625,4.457c-0.248,1.464-0.549,40.248-0.658,41.823h3.704c-0.11-1.575-0.411-40.359-0.657-41.823
	c-0.246-1.444-0.519-2.975-0.627-4.457c-0.061-0.828-0.097-2.069,0.256-2.773c0.162-0.324,0.39-0.505,0.643-0.613
	c0.324-0.138,0.652-0.282,0.984-0.434c0.332,0.152,0.662,0.295,0.986,0.434c0.254,0.107,0.48,0.289,0.643,0.613
	c0.353,0.704,0.314,1.945,0.257,2.773c-0.108,1.482-0.382,3.013-0.626,4.457c-0.247,1.464-0.549,40.248-0.659,41.823h3.705
	C61.549,92.374,61.247,53.59,61,52.126c-0.244-1.444-0.518-2.975-0.626-4.457c-0.06-0.828-0.097-2.069,0.256-2.773
	c0.161-0.324,0.39-0.505,0.642-0.613c0.326-0.138,0.653-0.282,0.987-0.434c0.332,0.152,0.661,0.295,0.985,0.434
	c0.252,0.107,0.48,0.289,0.643,0.613c0.352,0.704,0.315,1.945,0.256,2.773c-0.107,1.482-0.383,3.013-0.627,4.457
	c-0.246,1.464-0.549,40.248-0.658,41.823h3.705c-0.11-1.575-0.412-40.359-0.658-41.823c-0.244-1.444-0.518-2.975-0.625-4.457
	c-0.061-0.828-0.098-2.069,0.254-2.773c0.162-0.324,0.391-0.505,0.643-0.613c0.324-0.138,0.654-0.282,0.986-0.434
	c0.333,0.152,0.661,0.295,0.986,0.434c0.252,0.107,0.479,0.289,0.642,0.613c0.353,0.704,0.315,1.945,0.256,2.773
	c-0.108,1.482-0.381,3.013-0.625,4.457c-0.248,1.464-0.55,40.248-0.659,41.823h3.704c-0.11-1.575-0.409-40.359-0.659-41.823
	c-0.244-1.444-0.517-2.975-0.623-4.457c-0.062-0.828-0.099-2.069,0.254-2.773c0.162-0.324,0.391-0.505,0.643-0.613
	c0.324-0.138,0.654-0.282,0.986-0.434c0.332,0.152,0.662,0.295,0.985,0.434c0.253,0.107,0.481,0.289,0.642,0.613
	c0.353,0.704,0.315,1.945,0.257,2.773c-0.108,1.482-0.382,3.013-0.625,4.457c-0.249,1.464-0.55,40.248-0.66,41.823h0.952
	c0-4.857,3.676-50.387,0-51.691c-2.43-0.862-4.379-1.742-5.963-2.62h0.516c0-3.737,2.829-10.209,0-11.212
	c-2.048-0.727-3.652-1.47-4.932-2.211c0.281-2.752,1.839-6.739-0.041-7.405c-2.079-0.738-3.528-1.5-4.584-2.247
	c0.093-1.792,1.283-4.647-0.006-5.104c-1.653-0.587-2.695-1.196-3.406-1.784c-0.516-0.196-1.031-0.362-1.549-0.496
	c0.094-0.754,0.486-1.798-0.018-1.977c-0.699-0.248-1.138-0.505-1.438-0.753c-1.484-0.566-2.97-0.511-4.454,0.051
	c-0.298,0.231-0.724,0.471-1.375,0.702c-0.518,0.184-0.088,1.285-0.012,2.042c-0.568,0.152-1.136,0.335-1.704,0.55
	c-0.705,0.551-1.716,1.117-3.257,1.664c-1.29,0.458-0.098,3.312-0.006,5.104c-1.055,0.747-2.504,1.508-4.584,2.247
	c-1.878,0.667-0.323,4.652-0.042,7.405c-1.278,0.742-2.882,1.484-4.931,2.211c-2.828,1.003,0,7.475,0,11.212h0.516
	c-1.585,0.878-3.533,1.758-5.962,2.62C22.709,43.562,26.385,89.092,26.385,93.949z"/>
</svg>
