<?xml version="1.0" encoding="utf-8"?>
<!-- Generator: Adobe Illustrator 16.0.0, SVG Export Plug-In . SVG Version: 6.00 Build 0)  -->
<!DOCTYPE svg PUBLIC "-//W3C//DTD SVG 1.1//EN" "http://www.w3.org/Graphics/SVG/1.1/DTD/svg11.dtd">
<svg version="1.1" id="Layer_1" xmlns="http://www.w3.org/2000/svg" xmlns:xlink="http://www.w3.org/1999/xlink" x="0px" y="0px"
	 width="100px" height="100px" viewBox="0 0 100 100" enable-background="new 0 0 100 100" xml:space="preserve">
<g>
	<path fill="#010101" d="M82.889,50c-3.051,1.611-4.806,3.122-5.266,4.532c-0.461,1.409,0.936,5.323,4.186,11.739
		c2.477,6.043,2.461,10.604-0.043,13.682c-2.502,3.05-4.56,4.849-6.17,5.396c1.84,1.467,2.789,3.451,2.848,5.955
		c-0.432,4.604-2.963,7.137-7.596,7.596c-1.756-0.027-3.295-0.561-4.619-1.596c-2.187-1.41-4.992-2.445-8.416-3.107
		c-3.424-0.661-6.027,0.531-7.813,3.582c-1.784-3.051-4.388-4.243-7.812-3.582c-3.424,0.662-6.229,1.697-8.417,3.107
		c-1.324,1.008-2.863,1.539-4.618,1.596c-4.632-0.459-7.165-2.99-7.596-7.596c0.086-2.504,1.036-4.488,2.849-5.955
		c-1.611-0.548-3.668-2.347-6.172-5.396c-2.503-3.078-2.518-7.639-0.043-13.682c3.251-6.416,4.647-10.33,4.187-11.739
		c-0.46-1.41-2.215-2.921-5.266-4.532c3.05-1.612,4.806-3.122,5.266-4.532c0.46-1.41-0.935-5.338-4.187-11.783
		c-2.475-6.042-2.46-10.588,0.043-13.638c2.503-3.079,4.561-4.877,6.172-5.395c-1.841-1.468-2.791-3.453-2.849-5.957
		c0.432-4.633,2.964-7.165,7.596-7.596c1.755,0.029,3.294,0.561,4.618,1.597c2.187,1.41,4.992,2.445,8.417,3.107
		C45.612,6.466,48.216,5.272,50,2.222c1.784,3.05,4.389,4.244,7.813,3.583c3.424-0.662,6.229-1.698,8.416-3.107
		c1.324-1.036,2.863-1.568,4.619-1.597c4.633,0.432,7.164,2.963,7.596,7.596c-0.086,2.503-1.035,4.489-2.848,5.957
		c1.61,0.518,3.668,2.316,6.17,5.395c2.504,3.05,2.52,7.596,0.043,13.638c-3.25,6.445-4.646,10.373-4.186,11.783
		C78.083,46.878,79.838,48.389,82.889,50"/>
</g>
</svg>
