<?xml version="1.0" encoding="utf-8"?>
<!-- Generator: Adobe Illustrator 16.0.0, SVG Export Plug-In . SVG Version: 6.00 Build 0)  -->
<!DOCTYPE svg PUBLIC "-//W3C//DTD SVG 1.1//EN" "http://www.w3.org/Graphics/SVG/1.1/DTD/svg11.dtd">
<svg version="1.1" id="Layer_1" xmlns="http://www.w3.org/2000/svg" xmlns:xlink="http://www.w3.org/1999/xlink" x="0px" y="0px"
	 width="100px" height="100px" viewBox="0 0 100 100" enable-background="new 0 0 100 100" xml:space="preserve">
<path d="M63.372,16.48c0.873,0.812-0.192,1.975-0.697,3.624c-0.472,1.532-0.821,4.335-0.813,5.586
	c0.002,0.402-0.086,1.591,0.466,1.812c-0.507,3.254,2.489,3.509,4.53,3.171c-0.103,1.433-1.039,1.174-1.74,1.962
	c-2.352,2.635-4.381,9.323-1.862,11.777c0.933,0.908,3.211,0.988,4.651-0.151c0.83-0.732,1.474-2.51,2.558-2.416
	c0.511,3.204,1.128,5.865,3.37,6.342c1.535,0.325,2.628-1.378,4.301-1.661c0.555,1.039,0.211,3.249,0.58,4.529
	c2.949,1.644,6.49,1.746,9.998,1.814c0.762,0.012,2.068-0.301,1.859,1.205c-3.647,0.672-6.922,3.072-10.577,4.227
	c0.153,1.492,1.354,3.131,1.046,4.229c-1.87,0.936-3.004,0.116-5.35,0.452c-0.268,0.052-0.543,0.099-0.463,0.605
	c-0.437-1.049-1.797-0.336-2.558-0.455c0.356,1.553,0.058,3.182,0.58,4.684c-0.053,0.386-0.815-0.153-0.58,0.603
	c-0.854-1.074-2.052-1.586-3.139-2.414c-1.369-1.043-2.548-2.428-4.416-2.565c-0.806-0.062-2.667,1.067-3.722,0
	c-0.525-0.537-0.793-1.191-1.396-1.662c-0.551-0.435-1.233-0.453-1.976-0.906c-0.961-0.588-2.205-1.697-3.951-1.357
	c0.521,1.182,1.174,3.057,1.859,4.076c0.114,0.172,0.711,0.928,0.813,0.605c0.07,1.516,1.703,3.889,2.559,5.734
	c1.407,3.038,2.68,6.239,3.719,8.758c0.34,0.819,0.951,1.711,0.813,2.567c-0.16,1-1.229,1.541-2.207,1.207
	c-2.739-7.519-5.846-14.553-9.649-20.687c-2.521,2.687-2.492,10.05-2.904,14.494c-1.912,0.359-3.056-0.735-4.302-0.303
	c-1.834,0.643-1.831,3.961-3.022,5.891c0.031,1.806-0.475,4.07-1.278,5.283c-0.746-0.233-1.034-1.07-1.509-1.66
	c-1.432,1.515-2.298,3.763-2.906,6.343c-1.607,0.981-1.619,4.147-2.673,5.436c-0.586-0.438-0.472-1.727-0.466-2.565
	c0.023-3.354,0.103-7.365,0.234-10.721c-0.394,0.043-0.668,0.237-1.164,0.149c-0.116-0.299-0.2-0.646-0.465-0.754
	c1.328-3.988,2.215-10.187-0.93-12.382c-0.313-0.104-0.224,0.313-0.349,0.453c-0.116-0.401-0.335-0.672-0.697-0.756
	c-4.673,0.371-6.681,4.205-8.95,7.701c-0.932-0.703-0.962-2.576-1.395-3.926c-2.087-0.053-4.607,0.609-6.509,1.811
	c-1.167,0.738-2.013,2.072-3.137,2.115c-0.504-0.652,0.45-1.352,0.347-2.418c1.843-3.24,3.324-6.955,5.695-9.512
	c-0.43-0.65-0.941-1.191-1.395-1.811c0.208-1.392,1.529-1.336,1.859-2.568c2.472-1.08,4.649-2.939,7.207-3.775
	c0.56-0.182,1.196-0.029,1.744-0.148c1.13-0.25,2.662-1.219,3.836-0.905c-0.285-0.742-1.075-1.414-1.744-1.813
	c-1.821-1.086-4.54-2.324-6.856-2.563c-1.043-0.113-1.976,0.146-2.675-0.606c0.644-1.58,1.595-2.759,2.441-4.076
	c-1.24-2.818-4.735-2.708-6.742-4.53c0.266-1.165,1.331-1.291,1.627-2.417c-1.337-3.496-3.597-5.792-5.463-8.606
	c3.103,0.452,6.011,1.151,8.485,2.417c0.514-0.638,1.194-1.993,1.976-1.963c0.362,0.012,2.114,1.924,2.441,2.414
	c0.849,1.273,1.285,3.414,2.325,3.625c1.105,0.225,2.385-2.347,3.254-2.113c0.437,0.118,0.337,0.516,0.698,1.057
	c1.247,1.873,4.095,4.221,6.393,3.323c-0.539-3.87-2.561-6.335-4.766-8.759c-2.291-2.516-4.478-4.188-7.553-5.284
	c-0.443-0.067-0.829,0.393-1.164,0c-0.11-1.101,0.401-1.392,0.465-2.264c0.64-0.38,1.551-0.405,1.976-1.057
	c0.125-1.501-1.189-0.805-1.744-1.21c-0.438-0.317-0.505-1.253-0.93-1.659c-0.986-0.946-2.433-0.534-3.255-1.812
	c0.265-3.03,0.829-6.375-1.627-7.096c-0.12-0.601-0.118-0.746,0.232-1.208c-0.27-0.958-1.238-1.008-1.627-1.812
	c0.158-0.046,0.096-0.377,0.116-0.604c2.391,0.87,5.199,1.199,7.557,2.113c1.004-0.347,0.874-2.237,1.858-2.264
	c0.753-0.021,2.342,2.902,2.906,3.624c1.665,2.131,3.233,2.619,4.766,4.229c0.891-0.302,0.976-1.653,1.627-2.265
	c1.159-0.04,2.706,1.52,3.371,2.717c0.098,0.174,0.074,0.752,0.232,1.056c2.099,3.987,3.728,11.396,6.393,14.496
	c0.564,0.654,1.422,1.417,2.441,1.207c2.177-0.448,1.828-4.821,0.815-6.795c1.097-0.757,2.62,0.872,3.602,1.662
	c0.599-1.306,0.694-3.589,0.815-5.738c0.141-2.493-0.06-4.776-0.117-6.795c0.932-0.846,2.299,0.292,3.256,0.755
	c1.068-1.147,1.252-3.233,1.744-4.831c0.896-2.92,1.853-5.913,2.207-9.06c1.42,0.672,1.315,4.383,1.627,6.493
	c0.384,2.591,0.904,5.055,1.047,7.55C61.873,16.93,62.801,16.802,63.372,16.48z"/>
</svg>
