<?xml version="1.0" encoding="utf-8"?>
<!-- Generator: Adobe Illustrator 16.0.0, SVG Export Plug-In . SVG Version: 6.00 Build 0)  -->
<!DOCTYPE svg PUBLIC "-//W3C//DTD SVG 1.1//EN" "http://www.w3.org/Graphics/SVG/1.1/DTD/svg11.dtd">
<svg version="1.1" id="Layer_1" xmlns="http://www.w3.org/2000/svg" xmlns:xlink="http://www.w3.org/1999/xlink" x="0px" y="0px"
	 width="100px" height="100px" viewBox="0 0 100 100" enable-background="new 0 0 100 100" xml:space="preserve">
<path fill="#010101" d="M75.008,44.821L61.152,32.098l-8.696,2.464L66.51,47.234L75.008,44.821z M87.766,41.701l-9.295-8.008
	l-8.395,2.339l9.189,7.824L87.766,41.701z M88.673,45.052l9.692-2.736l-29.235-21.7L8.661,34.993l7.073,5.513l-9.298,2.213
	l5.787,4.472l-9.31,2.163l5.828,4.496L1.635,55.5l30.967,23.885l58.621-16.257l-5.729-4.202l7.009-1.943l-6.122-4.491l8.966-2.53
	L88.673,45.052z M11.972,35.47L68.54,22.021L95.409,41.84L40.256,57.414L11.972,35.47z M89.598,56.443L34.444,72.018L6.161,50.072
	l7.487-1.779L37.081,66.41l47.75-13.482L89.598,56.443z M37.515,64.848L9.231,42.902l7.338-1.745l22.839,17.805l48.015-13.558
	l5.245,3.87L37.515,64.848z M50.602,52.261L33.854,37.76l-9.207,2.208l17.456,14.705L50.602,52.261z M62.824,48.595L41.806,29.67
	l-8.783,2.194l20.881,19.13L62.824,48.595z"/>
</svg>
