<?xml version="1.0" encoding="utf-8"?>
<!-- Generator: Adobe Illustrator 16.0.3, SVG Export Plug-In . SVG Version: 6.00 Build 0)  -->
<!DOCTYPE svg PUBLIC "-//W3C//DTD SVG 1.1//EN" "http://www.w3.org/Graphics/SVG/1.1/DTD/svg11.dtd">
<svg version="1.1" id="Layer_1" xmlns="http://www.w3.org/2000/svg" xmlns:xlink="http://www.w3.org/1999/xlink" x="0px" y="0px"
	 width="15px" height="15px" viewBox="0 0 15 15" enable-background="new 0 0 15 15" xml:space="preserve">
<path d="M11.5,7.5V7h-8C3.368,7,3.24,7.053,3.146,7.146S3,7.368,3,7.5c-0.006,1.607,0.555,2.786,1.43,3.509
	C5.302,11.732,6.42,11.999,7.5,12c1.08-0.001,2.198-0.268,3.07-0.991C11.445,10.286,12.006,9.107,12,7.5
	c0-0.132-0.055-0.26-0.146-0.354S11.632,7,11.5,7V7.5H11c-0.006,1.393-0.445,2.214-1.07,2.741C9.302,10.768,8.42,11.001,7.5,11
	c-0.92,0.001-1.802-0.232-2.43-0.759C4.445,9.714,4.006,8.893,4,7.5H3.5V8h8V7.5H11H11.5z M5.5,3.05c0.801,0,1.45,0.649,1.45,1.45
	S6.301,5.95,5.5,5.95S4.05,5.301,4.05,4.5S4.699,3.05,5.5,3.05z M9.5,3.049c0.802,0,1.451,0.649,1.451,1.451S10.302,5.951,9.5,5.951
	S8.049,5.301,8.049,4.5S8.698,3.049,9.5,3.049z M14.5,7.5H14c0,1.797-0.727,3.418-1.902,4.598C10.918,13.273,9.297,14,7.5,14
	s-3.418-0.727-4.596-1.902C1.727,10.918,1,9.297,1,7.5s0.727-3.418,1.904-4.596C4.082,1.727,5.703,1,7.5,1s3.418,0.727,4.598,1.904
	C13.273,4.082,14,5.703,14,7.5H14.5H15C15,3.357,11.643,0,7.5,0C3.357,0,0,3.357,0,7.5C0,11.643,3.357,15,7.5,15
	c4.143,0,7.5-3.357,7.5-7.5H14.5z"/>
</svg>
