<?xml version="1.0" encoding="utf-8"?>
<!-- Generator: Adobe Illustrator 16.0.0, SVG Export Plug-In . SVG Version: 6.00 Build 0)  -->
<!DOCTYPE svg PUBLIC "-//W3C//DTD SVG 1.1//EN" "http://www.w3.org/Graphics/SVG/1.1/DTD/svg11.dtd">
<svg version="1.1" id="Layer_1" xmlns="http://www.w3.org/2000/svg" xmlns:xlink="http://www.w3.org/1999/xlink" x="0px" y="0px"
	 width="100px" height="100px" viewBox="0 0 100 100" enable-background="new 0 0 100 100" xml:space="preserve">
<path fill="#FFCB09" d="M72.999,67.124c0,0-1.271-1.854-2.919-1.823c-0.77-0.635-1.585-1.168-2.448-1.585
	c-1.378-0.666-2.59-1.64-3.649-2.786c-1.35-7.634-3.689-12.711-5.813-15.963l2.174-1.779l-1.615-2.425l2.424,1.617l2.588-3.557
	l-0.973-4.203l2.266,1.939l1.939-5.497l-1.455-5.173l2.748,1.293V20.07l-2.813-3.253h2.588l-2.588-8.731l-6.144-0.323l2.381-3.047
	l-7.557-3.744l-4.527,3.233l1.845-4.02l-9.377,0.646l-0.552,6.607l-3.297-6.813l-6.251,0.144l0.719,2.372l-3.952-1.94l-4.023,1.725
	l1.005,2.012l-3.665-0.432l-4.023,4.886l2.299,0.647l-3.808,2.514l-1.222,5.821l2.658,0.646l-2.802,1.438l0.575,7.904l2.371-1.221
	l-1.437,3.305l1.437,4.455l2.587-0.791l-1.438,2.659l3.234,5.46l1.508-1.581l-0.431,2.515l2.629,2.524
	c-2.787,4.151-4.732,11.083-3.551,22.658c1.297,12.732,2.551,19.898,3.212,23.408c-1.164,1.188-1.859,2.677-1.859,4.297
	c0,3.868,3.958,3.772,8.839,3.772s8.838,0.096,8.838-3.772c0-0.851-0.192-1.666-0.542-2.42c2.396,0.313,5.555,0.449,8.769-0.214
	c-0.197,0.583-0.305,1.193-0.305,1.825c0,3.868,3.958,3.772,8.839,3.772c2.604,0,4.941,0.026,6.56-0.535
	c0.132,0.018,0.204,0.021,0.204,0.021C104.218,103.246,72.999,67.124,72.999,67.124z M67.254,95.674
	c0.012-0.139,0.02-0.279,0.02-0.431c0-0.241-0.016-0.479-0.045-0.713c1.285,0.737,3.289,0.854,5.617,0.872
	C71.053,95.659,69.124,95.762,67.254,95.674z M78.021,85.188c-0.08-1.414-0.226-2.799-0.432-4.144
	c0.877,1.702,1.65,3.392,2.215,4.955C79.256,85.677,78.657,85.404,78.021,85.188z"/>
<path fill="#A26327" d="M37.069,93.523c1.77,2.992,1.005,5.483,1.385,4.994C39.215,95.895,37.647,93.563,37.069,93.523z
	 M27.34,98.395c0.371,0.496-0.975-2.949,1.468-4.971C28.23,93.452,25.903,95.605,27.34,98.395z M32.616,93.598
	c0,0,0.863,2.438-0.081,5.207c0,0,0.63,0.582,0.812-2.27C33.536,93.574,32.401,92.671,32.616,93.598z M40.206,20.143
	c0.728-0.22,1.062-1.247,0.746-2.296c-0.315-1.051-1.161-1.724-1.888-1.506c-0.728,0.219-1.064,1.246-0.748,2.297
	C38.631,19.686,39.479,20.36,40.206,20.143z M45.604,20.387c0.722-0.032,1.272-0.921,1.229-1.989
	c-0.045-1.069-0.667-1.91-1.392-1.88c-0.723,0.03-1.273,0.922-1.229,1.99C44.257,19.575,44.881,20.418,45.604,20.387z
	 M73.018,67.119c0,0-1.271-1.854-2.92-1.823c3.838,3.175,6.467,8.929,7.512,15.744c2.545,4.937,4.226,9.776,2.396,11.724
	c-0.001-0.226-0.006-0.473-0.02-0.762c-0.148-2.972-1.543-3.675-1.082-2.807c0,0,0.779,1.824,0.766,3.873
	c-0.807,0.646-2.04,1.201-3.521,1.633c-0.019-0.313-1.639-2.424-0.584-5.712c-0.691,0.325-1.439,3.227,0.463,5.727
	c0.012,0.005,0.021,0.009,0.031,0.013c-3.099,0.886-7.252,1.232-10.869,0.754c-0.076-1.961-1.174-3.34-1.635-3.363
	c0.811,1.209,1.123,2.395,1.25,3.311c-2.004-0.303-3.816-0.867-5.164-1.748c0.053-0.515,0.106-0.839,0.106-0.839
	c0.14-0.6-0.239-0.419-0.472,0.585c-2.117-1.578-2.834-4.063-0.801-7.693l6.037-3.812l-1.02-1.231l-2.418,1.506l1.758-3.375
	l-0.842-0.65l-1.406-0.586l-1.83,3.153l1.537-3.584l-3.422-0.146l0.1,4.195l-0.506-1.988l-1.345,0.206l0.473,5.314
	c-2.052,3.73-1.966,6.464-0.854,8.464c-0.602,0.772-1.256,2.512-0.827,4.563c0.344,0.443-0.022-1.83,1.021-4.244
	c0.994,1.565,2.633,2.652,4.314,3.4c0.224,1.541,0.583,1.13,0.583,1.13c-0.073-0.313-0.13-0.633-0.17-0.952
	c2.79,1.149,5.559,1.402,5.559,1.402C104.236,103.241,73.018,67.119,73.018,67.119z M55.508,43.341l1.294,2.749l3.558-2.91
	l-1.617-2.425l2.425,1.616l2.587-3.557l-0.97-4.203l2.263,1.939l1.939-5.497l-1.454-5.173l2.747,1.293V20.06l-2.812-3.253h2.587
	l-2.587-8.732l-6.145-0.323l2.382-3.047L54.148,0.96l-4.527,3.234l1.844-4.021l-9.377,0.646L41.536,7.43L38.24,0.617l-6.251,0.144
	l0.718,2.372l-3.951-1.94l-4.024,1.725l1.006,2.012l-3.665-0.432l-4.024,4.886l2.3,0.647l-3.809,2.515l-1.221,5.821l2.659,0.646
	l-2.802,1.437l0.574,7.904l2.372-1.221l-1.438,3.305l1.438,4.455l2.586-0.791l-1.437,2.659l3.233,5.461l1.509-1.581l-0.431,2.515
	l3.592,3.449l0.791-2.013l1.581,3.593l3.377,1.581l1.222-1.437l-0.647,1.939l3.233,1.653l1.294-2.658l-0.288,3.377l1.581,0.717
	l0.934-4.022l0.575,4.022l2.731,0.36v-5.102l1.221,4.096l2.947-0.935l0.503-3.952l0.574,3.018l1.693-1.359l0.305-2.911l0.971,2.587
	l3.897-2.263L55.508,43.341z M56.141,11.069c3.227,3,0.289,5.948-2.414,5.682c0,0-0.162-0.271-0.453-0.681
	c1.59-0.155,3.013-1.897,1.106-3.667c-1.899-1.768-3.379,0.025-3.881,0.789c-0.213-0.152-0.432-0.296-0.659-0.422
	C49.84,12.769,52.486,7.672,56.141,11.069z M33.412,7.902c4.455-2.246,5.578,3.387,5.578,3.387c-0.35,0.08-0.693,0.192-1.028,0.323
	c-0.236-0.811-1.139-3.126-3.533-1.92c-2.422,1.222-1.361,3.418,0.237,3.899c-0.325,0.263-0.518,0.44-0.518,0.44
	C31.479,13.535,29.477,9.886,33.412,7.902z M54.303,33.317c-0.781,5.067-7.29,8.267-14.536,7.148
	c-7.246-1.119-12.485-6.134-11.702-11.201c0.238-1.542,1.008-2.912,2.166-4.039c0.034-0.387,0.081-0.776,0.141-1.168
	c1.231-7.97,7.568-13.606,14.156-12.588c6.585,1.017,10.928,8.303,9.699,16.272c-0.1,0.638-0.23,1.261-0.394,1.868
	C54.32,30.803,54.498,32.059,54.303,33.317z M47.176,34.693c-0.054,0.503-0.513,1.143-1.509,1.383
	c-1.042,0.251-2.479,0.306-3.342-1.653c0,0-0.432-2.799-0.251-4.078c0.545-0.158,2.484-1.005,3.135-2.438
	c0.725-1.595,0.145-1.667-3.553-2.104c-3.699-0.436-0.653,3.843-0.653,3.843s0.529,0.528,0.819,0.683
	c-0.038,0.457-0.093,1.792,0.233,4.093c0,0-0.161,1.958-2.029,2.084c-2.226,0.149-2.821-1.258-2.875-1.581
	c-0.053-0.324-0.175-0.041-0.175-0.041s-0.048,2.05,3.014,1.963c1.681-0.049,2.228-1.779,2.228-1.779s0.885,1.572,2.65,1.465
	c2.71-0.164,2.551-2.106,2.551-2.106S47.229,34.19,47.176,34.693z"/>
</svg>
