<?xml version="1.0" encoding="utf-8"?>
<!-- Generator: Adobe Illustrator 16.0.0, SVG Export Plug-In . SVG Version: 6.00 Build 0)  -->
<!DOCTYPE svg PUBLIC "-//W3C//DTD SVG 1.1//EN" "http://www.w3.org/Graphics/SVG/1.1/DTD/svg11.dtd">
<svg version="1.1" id="Layer_1" xmlns="http://www.w3.org/2000/svg" xmlns:xlink="http://www.w3.org/1999/xlink" x="0px" y="0px"
	 width="100px" height="100px" viewBox="0 0 100 100" enable-background="new 0 0 100 100" xml:space="preserve">
<g>
	<g>
		<path fill="#010101" d="M90.607,45.881v0.03h0.008C90.613,45.876,90.625,45.898,90.607,45.881z M70.563,52.111
			c-0.011,0.004-0.021,0.009-0.03,0.015v0.075C70.592,52.208,70.596,52.168,70.563,52.111z M70.473,52.708
			c-0.019,0.04-0.035,0.048-0.046,0.09c0.007,0.002,0.015,0.004,0.023,0.007c0.012-0.01,0.024-0.019,0.036-0.029
			C70.48,52.754,70.479,52.729,70.473,52.708z M71.777,85.02h-0.021c0.008,0.008,0.016,0.015,0.021,0.023V85.02z M74.188,77.852
			h0.008V77.82C74.193,77.831,74.191,77.842,74.188,77.852z M93.493,96.387v-0.318c-0.005-0.328-0.011-0.659-0.015-0.989
			c-0.006-0.198-0.011-0.396-0.015-0.597c-0.026-0.388-0.053-0.773-0.077-1.162c-0.033-0.151-0.07-0.307-0.104-0.461
			c-0.022-0.115-0.046-0.235-0.068-0.354c-0.073-0.063-0.146-0.126-0.219-0.188c-0.121-0.108-0.241-0.219-0.363-0.332
			c-0.289-0.113-0.577-0.228-0.866-0.34c-0.14-0.209-0.277-0.414-0.416-0.617c-0.156-0.254-0.313-0.51-0.469-0.764
			c-0.063-0.269-0.121-0.535-0.182-0.805c-0.174-0.682-0.309-1.414-0.516-2.072c-0.06-0.217-0.119-0.43-0.18-0.646
			c-0.846-0.808-1.693-1.614-2.539-2.423c-0.266-0.52-0.533-1.036-0.8-1.558c-0.461-0.922-0.922-1.849-1.382-2.77
			c-0.137-0.49-0.272-0.978-0.409-1.468c-0.378-1.258-0.638-2.567-0.929-3.904c-0.07-0.494-0.143-0.986-0.211-1.479
			c-0.053-0.171-0.105-0.34-0.158-0.508c-0.116-0.392-0.23-0.779-0.348-1.171c-0.041-0.13-0.049-0.342-0.168-0.396
			c-0.147-0.618-0.297-1.237-0.444-1.858c-0.243-0.952-0.435-1.922-0.718-2.822c-0.14-0.442-0.277-0.882-0.416-1.321
			c-0.06-0.172-0.121-0.344-0.181-0.513c0.132-0.294,0.263-0.585,0.394-0.878c0.095-0.363,0.189-0.73,0.287-1.096
			c0.041-0.305,0.086-0.605,0.127-0.915c0.295-0.442,0.59-0.883,0.885-1.328c0.083-0.295,0.166-0.589,0.249-0.883v-0.606
			c-0.13-0.186-0.263-0.371-0.394-0.558c-0.015-0.084-0.029-0.17-0.045-0.256c-0.031-0.14-0.062-0.277-0.091-0.415
			c0.048-0.262,0.097-0.524,0.144-0.785c0.031-0.188,0.064-0.374,0.099-0.561c0.142-0.35,0.282-0.701,0.423-1.049
			c0.508-0.505,1.014-1.008,1.52-1.513c0.201-0.249,0.401-0.498,0.604-0.747c0.225-0.34,0.447-0.681,0.672-1.021
			c0.221-0.301,0.438-0.604,0.657-0.905c0.118-0.422,0.235-0.84,0.354-1.262c-0.022-0.119-0.045-0.241-0.068-0.361
			c0.564-0.401,1.129-0.803,1.693-1.201c0.096-0.099,0.189-0.197,0.285-0.298c0.238-0.236,0.479-0.477,0.747-0.685
			c0.091-0.069,0.177-0.142,0.267-0.211c-0.061-0.076-0.121-0.151-0.184-0.226c-0.01-0.011-0.019-0.021-0.027-0.032
			c0.233-0.136,0.672-0.532,0.709-0.852c-0.016-0.003-0.03-0.008-0.047-0.009c-0.039,0.03-0.063,0.067-0.098,0.099
			c-0.006-0.021-0.009-0.042-0.016-0.061c-0.088,0-0.258-0.078-0.407-0.038c-0.261,0.067-0.427,0.291-0.672,0.355h-0.007
			c-0.004-0.004-0.008-0.009-0.01-0.017c0.076-0.052,0.114-0.133,0.182-0.194c0.051-0.024,0.101-0.05,0.15-0.076
			c0.17-0.113,0.273-0.286,0.469-0.385c0.06-0.211-0.075-0.434-0.369-0.355c-0.239,0.064-0.422,0.255-0.612,0.368
			c-0.06,0.021-0.116,0.042-0.173,0.063c-0.076,0.042-0.141,0.104-0.243,0.12c-0.053-0.224-0.282-0.214-0.431-0.285
			c-0.02,0.092-0.124,0.067-0.188,0.102c-0.039,0.025-0.02,0.069-0.045,0.107c-0.031,0.047-0.111,0.074-0.15,0.115
			c-0.002,0.002-0.006,0.002-0.008,0.006c-0.091,0.121-0.16,0.394-0.229,0.475c-0.038,0.047-0.477,0.233-0.573,0.264h-0.007
			c-0.029-0.081,0.07-0.184,0.104-0.255c0.057-0.119,0.332-0.659,0.304-0.793c-0.021-0.103-0.087-0.139-0.151-0.196
			c-0.02-0.031-0.04-0.06-0.061-0.09c-0.021,0.01-0.045,0.021-0.067,0.031c-0.303,0.042-0.303,0.053-0.469,0.218
			c-0.187,0.186-0.263,0.417-0.371,0.688c-0.132,0.334-0.304,0.681-0.505,0.95c-0.084,0.112-0.129,0.244-0.188,0.38
			c-0.16,0.354-0.335,0.688-0.416,1.125c-0.035,0.187-0.045,0.465-0.008,0.665c0.012,0.061,0.049,0.192,0.016,0.264
			c-0.055,0.112-0.188,0.202-0.279,0.278c-0.193,0.165-0.365,0.367-0.559,0.537c-0.269,0.235-0.52,0.524-0.748,0.8
			c-0.276,0.333-0.652,0.638-0.996,0.9c-0.146,0.139-0.293,0.275-0.439,0.414c-0.043,0.047-0.085,0.097-0.128,0.145
			c-0.063,0.035-0.2,0.021-0.265,0.038c-0.116-0.154-0.26-0.318-0.363-0.484c-0.035-0.06-0.035-0.118-0.066-0.188
			c-0.078-0.167-0.189-0.322-0.295-0.476c-0.025-0.066-0.05-0.133-0.076-0.197c-0.092-0.151-0.231-0.336-0.195-0.572
			c-0.043-0.078-0.342-0.497-0.34-0.516c-0.043-0.033-0.112-0.059-0.158-0.111c-0.047-0.056-0.082-0.167-0.146-0.205
			c-0.026-0.017-0.048,0.021-0.073-0.007c-0.076-0.083-0.127-0.203-0.221-0.264c-0.105-0.074-0.345-0.17-0.385-0.26
			c-0.037-0.011-0.057-0.011-0.105-0.006c-0.009-0.021-0.016-0.041-0.021-0.061c-0.023,0.011-0.02,0.015-0.053,0.022
			c-0.082-0.054-0.403-0.231-0.432-0.324c-0.039,0-0.039,0.032-0.076,0.024c-0.063-0.02-0.119-0.081-0.195-0.108
			c-0.068-0.023-0.172-0.004-0.258-0.043c-0.049-0.024-0.125-0.071-0.166-0.092c-0.074-0.035-0.147,0.014-0.188-0.039h-0.007
			c-0.01,0.02-0.003,0.026-0.03,0.023c-0.069-0.003-0.183-0.041-0.228-0.053c-0.086-0.006-0.172-0.007-0.256-0.014
			c-0.185-0.061-0.459-0.025-0.681,0.03c-0.097,0.024-0.229-0.032-0.333-0.053c0.018,0.031,0.112,0.077,0.151,0.084v0.052
			c-0.081,0.08-0.304-0.043-0.446,0c-0.084,0.023-0.242,0.04-0.331,0.075c-0.137,0.053-0.293,0.124-0.424,0.166
			c-0.144-0.046-0.413,0.037-0.521,0.099c-0.086,0.051-0.113,0.165-0.182,0.232c-0.156,0.162-0.414,0.203-0.589,0.341
			c-0.085,0.065-0.167,0.172-0.272,0.214c-0.098,0.037-0.196,0.008-0.303,0c-0.004,0.008-0.005,0.017-0.008,0.031
			c0.012,0.001,0.021,0.004,0.031,0.006c-0.014,0.035-0.041,0.054-0.083,0.061c0.012,0.016,0.024,0.035,0.036,0.053
			c0.047-0.016,0.092-0.029,0.137-0.045c0.006,0.008,0.01,0.02,0.016,0.029c-0.012,0.059-0.027,0.076-0.029,0.143
			c-0.121,0.077-0.143-0.008-0.25-0.021c-0.279-0.029-0.502,0.126-0.566,0.35c-0.113,0.025-0.255-0.016-0.393,0.014
			c-0.094,0.031-0.188,0.064-0.278,0.099c-0.024,0.082-0.071,0.205-0.121,0.271c-0.05,0.062-0.492,0.131-0.619,0.152
			c-0.099,0.018-0.206-0.029-0.266-0.029c-0.007,0.025-0.017,0.049-0.022,0.073c-0.042,0.003-0.039,0.003-0.066-0.006
			c0.004,0.036,0.009,0.071,0.015,0.104c-0.024,0.021-0.052,0.045-0.075,0.068c0.01,0.008,0.02,0.016,0.029,0.023
			c-0.014,0.04-0.064,0.072-0.112,0.081c-0.017-0.015-0.015-0.011-0.022-0.038h-0.016c-0.003,0.009-0.004,0.015-0.008,0.023
			c0.01,0.035-0.129,0.082-0.188,0.112c0.015,0.032,0.029,0.06,0.045,0.093c-0.004,0.092-0.051,0.092-0.09,0.144
			c-0.066,0.083-0.104,0.208-0.113,0.307c-0.008,0.005-0.016,0.006-0.023,0.009c0.006,0.014,0.01,0.021,0.016,0.03
			c0.021-0.033,0.041-0.063,0.062-0.098c0.009,0.006,0.021,0.012,0.03,0.016c0.047,0.063-0.055,0.364-0.047,0.429
			c-0.002,0.01-0.004,0.017-0.006,0.023h-0.03c-0.021-0.043-0.003-0.008-0.048-0.016c-0.002,0.041,0.007,0.031-0.021,0.047
			c0.003,0.013,0.005,0.023,0.007,0.037c0.016,0.016,0.01,0.012,0.038,0.016c-0.003,0.021-0.006,0.046-0.008,0.068
			c-0.041-0.002-0.053-0.002-0.067-0.031h-0.021c0.01,0.015,0,0.005,0.016,0.015c-0.013,0.033-0.011,0.029-0.053,0.031
			c0.039,0.033,0.064,0.082,0.127,0.091c0.021,0.083-0.025,0.2-0.061,0.266c-0.016,0.022-0.008,0.018-0.045,0.021
			c0.01,0.065-0.061,0.211-0.1,0.228c0,0.131,0.057,0.15,0.061,0.205c0.026,0,0.018-0.009,0.055-0.015
			c-0.01,0.086-0.049,0.063-0.055,0.149c0.014,0.008,0.026,0.017,0.039,0.021c-0.016,0.029,0,0.018-0.039,0.023
			c0.041,0.087,0.022,0.136,0.01,0.242c-0.032,0.004-0.063,0.009-0.092,0.015c0.008,0.021-0.006,0.067-0.008,0.135h-0.039
			c-0.027,0.063,0.004,0.132,0.017,0.185c0.017,0.062-0.027,0.156-0.046,0.209c-0.024-0.002-0.049-0.004-0.075-0.008
			c-0.103-0.076-0.147-0.215-0.228-0.316c-0.058-0.075-0.151-0.131-0.209-0.203c-0.066-0.085-0.143-0.186-0.221-0.257
			c-0.025-0.023-0.072-0.02-0.098-0.046c-0.159-0.147-0.355-0.262-0.521-0.398c-0.066-0.057-0.152-0.076-0.228-0.122
			c-0.231-0.147-0.472-0.303-0.709-0.454c-0.038-0.035-0.076-0.068-0.114-0.104c-0.059-0.036-0.115-0.049-0.165-0.09
			c-0.401-0.342-0.868-0.614-1.255-0.969c-0.068-0.063-0.134-0.135-0.199-0.203c0,0,0,0,0.002-0.002
			c0.082-0.088,0.193-0.216,0.193-0.216s0.07-0.17,0.129-0.231c0.023-0.066,0.1-0.166,0.1-0.166s0.32-0.406,0.404-0.588
			c0.016-0.053,0.008-0.201,0.008-0.201l-0.011-0.18l-0.032-0.119c0,0-0.096-0.277-0.184-0.43c-0.028-0.08-0.033-0.268-0.104-0.448
			c-0.092-0.167-0.131-0.214-0.131-0.214S66.52,48.31,66.4,48.31c-0.075-0.05-0.182-0.106-0.182-0.106l-0.152-0.114l-0.049-0.065
			l-0.156-0.095c0,0-0.435-0.193-0.508-0.34c-0.082-0.052-0.166-0.109-0.166-0.109l-0.113-0.115c-0.081-0.21-0.192-0.375-0.35-0.542
			c-0.123-0.131-0.283-0.307-0.459-0.407c-0.272-0.428-0.744-1.157-1.011-1.478c-0.041-0.077-1.06-1.56-1.114-1.758
			c-0.063-0.133-0.631-1.25-0.877-1.631c-0.053-0.088-0.841-1.487-0.873-1.604c-0.051-0.089-0.688-1.255-0.822-1.43
			c-0.047-0.083-0.606-1.069-0.918-1.355c-0.068-0.092-0.502-0.664-1.028-0.995c-0.049-0.046-0.819-0.704-0.853-0.78
			c-0.076-0.094-0.725-0.928-0.82-1.13c-0.098-0.136-0.905-1.468-0.958-1.729c-0.056-0.107-0.677-1.546-0.663-1.732
			c-0.025-0.081-0.372-1.436-0.543-2.013c-0.036-0.174-0.322-1.179-0.848-1.963c-0.058-0.099-0.324-0.434-0.524-0.642
			c-0.011,0.055-0.026,0.108-0.038,0.163c-0.008-0.013-0.014-0.024-0.021-0.037c-0.088-0.079-0.109-0.099-0.32-0.133
			c-0.102-0.125-0.713-0.792-1.538-1.092c-0.167-0.055,0.267,0.024-0.135-0.2c-0.067-0.052,0.369-0.067,0.546-0.289
			c0.48-0.423-0.1-0.124,0.224-0.435c0.515-0.267-0.327,0.188-0.869-0.467c-0.089-0.133-0.112-0.446-0.112-0.592
			c0-0.144,0.112,0.068,0.223,0.135c0.144,0.39-0.012-0.255,0-0.469c0.012-0.21,0.202,0.012,0.278,0.19
			c0.201,0.377-0.021-0.246-0.111-0.591c-0.01-0.132,0.202,0.034,0.302,0.134c0.101,0.101-0.056-0.111-0.067-0.177
			c-0.012-0.068,0.234,0.122,0.322,0.166c0.09,0.044-0.244-0.322-0.299-0.422c-0.057-0.101,0.232,0.11,0.366,0.144
			c0.135,0.033-0.412-0.413-0.558-0.655c-0.144-0.248,0.269,0.01,0.348,0.054c-0.357-0.435-0.513-0.456-0.536-0.712
			c-0.057-0.2-0.011-0.246,0.245-0.067c-0.176-0.345-0.267-0.29-0.344-0.434c-0.079-0.144-0.77-1.38-0.826-1.693
			c-0.055-0.313,0.356,0.067,0.191-0.557c0.011-0.188-0.112-1.212-0.235-1.323c-0.122-0.11-0.144-0.312,0.012-0.402
			c0.156-0.087,0.245-0.812,0.078-1.023c-0.166-0.212-0.023-0.591-0.166-1.034c-0.665-0.925-0.266-0.922-1.283-1.85
			c-0.178-0.134-1.504-1.659-4.343-2.071c-0.134-0.022-1.092-0.088-1.661,0.345c-0.155,0.078-0.367,0.146-0.444,0.134
			c-0.011-0.045-0.156,0.044-0.1,0.079c0.056,0.032-0.167,0-0.18,0.088c-0.066,0.066-0.323,0.012-0.29,0.134
			c-0.022,0.078-0.176,0.156-0.244,0.179c-0.068,0.021-0.211-0.057-0.234,0.188c-0.011,0.087-0.39,0.133-0.145,0.346
			c0.021,0.076-0.535,0.366-0.702,1.179c-0.011,0.088-0.312,0.792-0.39,0.868c-0.078,0.078-0.167,0.212-0.099,0.323
			c0.01,0.067,0.01,0.219,0.018,0.261c0.008,0.046-0.038,0.041-0.067,0.018c-0.03-0.022,0,0.062,0.029,0.081
			c0.031,0.023-0.088,0.015-0.11-0.007s0.059,0.053,0.09,0.074c0.028,0.022-0.09,0.007-0.12,0c-0.029-0.008,0.053,0.06,0.082,0.097
			c0.03,0.035-0.038,0.104-0.111,0.035c-0.015-0.012-0.023-0.023-0.025-0.02c-0.023,0.066,0.037,0.078,0.084,0.097
			c0.162,0.103-0.038,0.06-0.112,0.051c-0.073-0.006,0.046,0.022,0.082,0.052c0.036,0.029-0.044,0.051-0.088,0.083
			c-0.045,0.029,0.17-0.019,0.162,0.066c0.059,0.006-0.274,0.376-0.349,0.421c-0.097,0.127-0.401,0.417-0.475,0.446
			c-0.095,0.106-0.337,0.282,0.097,0.716c0.089,0.157-0.089,0.368,0.055,0.781c0,0.087-0.133,0.288,0.067,0.411
			c0.034,0.077-0.055,0.322,0.044,0.435c-0.055,0.033-0.423,0.165-0.311,0.567c0,0.188,0.157,0.544,0.044,0.768
			c-0.067,0.111-0.457,0.891,0.277,1.124c0.458,0.234,1.171,0.379,1.283,0.501c0.11,0.124-1.303,0.813-1.382,0.87
			c-0.077,0.055-0.634,0.355-0.646,0.7c-0.067,0.268-0.034,0.701,0,0.768c0.035,0.067-0.277,0.201-0.334,0.492
			c-0.044,0.086-0.825,0.2-1.203,0.423c-0.234,0.11,0.111-0.469-0.245-0.825c-0.045-0.09-1.003-1.446-1.404-2.206
			c-0.145-0.188-0.29-0.813-0.567-1.001c-0.067-0.112-0.123-0.369-0.178-0.402c-0.056-0.033-0.078-0.188-0.19-0.322
			c0-0.044-0.289-0.535-0.489-0.69c-0.078-0.044-2.362-1.324-2.786-1.403c-0.089,0-0.211-0.945-0.657-1.067
			c-0.09-0.057-0.122-0.145-0.311-0.213c0.1-0.155,0.689-0.301,0.634-0.869c-0.034-0.201-0.057-0.367-0.257-0.678
			c0.056-0.333,0.224-0.357,0.245-0.436c0.022-0.078,0.123-0.177,0.057-0.356c0.008-0.093,0.029-0.21,0.099-0.344
			c0.021-0.042,0.072-0.075,0.145-0.111c0.19-0.08,0.278-0.067,0.58-0.212c0.133-0.056,0.156-0.111,0.223-0.089
			c0.156-0.129,0.137-0.252,0.044-0.443c0.246-0.068,0.614,0.1,0.824-0.236c0.201-0.155-0.534-1.669-0.591-1.959
			c-0.01-0.054,0.09-0.211,0.125-0.255c0.032-0.044,0.344-0.234,0.032-0.245c-0.044-0.067,0.369-0.769,0.179-0.769
			c-0.011-0.089,0.01,0-0.078-0.155c-0.088-0.157-0.011-0.59-0.234-1.058c-0.033-0.101,0.056-1.271-0.278-1.85
			c-0.033-0.089,0.368,0.067,0.168-0.201c0.033-0.1,0.177-0.044,0.311-0.056c0.122-0.032,0.167-0.022,0.066-0.277
			c-0.078-0.203-0.021-0.568-0.356-0.869c-0.208-0.131-0.104-0.547-0.667-0.734c-0.601-0.034-0.558-0.49-0.869-0.456
			c-0.278-0.112-0.324-0.112-0.39-0.268c-0.067-0.157-0.177-0.279-0.556-0.29c-0.256-0.011-0.268-0.201-0.401-0.345
			c-0.177-0.178-0.167-0.368-0.491-0.379c-0.401-0.013-0.166-0.191-0.69-0.322C26.94,2.2,26.762,1.898,26.572,1.876
			c-0.189-0.022-0.389-0.402-1.404-0.234c-0.156,0.022-0.456-0.144-0.957,0.212c-0.179,0.144-0.368,0.244-0.68,0.311
			s-0.801,0.278-0.914,0.447c-0.111,0.167-0.601,0.077-1.09,0.968c-0.088,0.188-0.614,0.812-0.836,1.347
			c-0.067,0.133-0.268,0.313-0.49,1.104c-0.011,0.266-0.524,1.003-0.456,1.336c0.076,0.333-0.09,0.657-0.135,0.846
			c-0.044,0.188-0.111,1.292,0.113,1.404c0.122,0.234,0.01,0.401,0.066,0.544c0.056,0.147,0.123,0.893,0.545,0.97
			c0.167,0.124,0.457,0.757,0.479,0.913c0.099,0.199,0.268,0.413,0.523,0.5c-0.011,0.043-0.146,1.18-0.379,1.581
			c-0.067,0.123-0.913-0.077-1.381,0.178c-0.078,0.033-0.334,0.167-0.579,0.924c-0.045,0.144-0.457,0.714-0.635,0.969
			c-0.022,0.212-0.223,0.335-0.301,0.367c-0.078,0.036-0.59,0.291-0.745,0.346c-0.157,0.056-0.871,0.244-1.216,0.49
			c-0.344,0.244-1.058,0.545-1.203,0.601s-1.347,0.634-1.526,0.734c-0.177,0.102-1.091,0.557-1.558,0.724
			c-0.479,0.29-0.502,0.189-0.735,0.734c-0.023,0.068-0.392,1.191-0.591,2.137c-0.022,0.113-0.88,2.307-1.013,3.063
			c-0.034,0.156-1.137,3.419-1.18,3.542c-0.046,0.121-1.114,2.906-1.315,4.152c-0.022,0.166-0.545,0.991-0.591,1.069
			c-0.067,0.155,0.146,0.19,0.234,0.224c0.089,0.034,0.68,0.245,0.792,0.289c0.112,0.046,0.112,0.124,0.088,0.214
			c-0.022,0.085,0.046,1.313,0.056,1.412c0.011,0.1-0.134,0.623,0.39,1.748c0.346,0.58,0.858,2.529,2.005,4.165
			c0.077,0.132,2.316,3.006,2.394,3.129c0.424,0.456,1.059,1.626,1.348,1.915c0.023,0.067,0.536,0.958,0.658,1.226
			c0.045,0.101,0.078,0.668,0.234,0.847c0.045,0,0.056,1.237,0.189,1.957c0.013,0.099-0.044,0.303-0.066,0.603
			c0.045,0.381-0.646,3.497-0.691,3.695c-0.065,0.158-0.478,3.107-0.478,3.354c0,0.244-0.68,4.629-0.702,4.729
			c-0.022,0.103-0.256,1.304-0.145,2.217c0.022,0.524,0.457,1.759,0.768,2.006c0.146,0.154-0.779,2.447-0.802,2.638
			c-0.022,0.19-0.445,1.582-0.611,3.309c-0.134,0.611-0.57,3.238-0.591,3.341c-0.022,0.099-1.181,6.033-1.216,6.134
			c0,0.325-0.835,4.24-0.902,4.32c-0.1,0.289-0.4,0.77-0.188,1.27c0,0.088,0.401,1.313,0.411,1.472
			c0.011,0.153,0.135,1.577,0.458,1.591c0.066,0.033-0.513,0.945-0.603,1.001c-0.089,0.058-0.301,0.11-0.155,0.235
			c0.021,0.057-0.735,0.623-0.58,1.459c-0.044,0.087-0.112,0.179-0.123,0.222c-0.014,0.056-0.173,0.005-0.266,0.278
			c0.032,0.047-0.069,0.5-0.046,0.565c0.023,0.069-0.066,0.479,0.291,0.458c0.088,0.057,0.279,0.065,0.367,0.065
			c0.089,0,0.28-0.099,0.291,0.022c0.111,0.066,0.279,0.045,0.424,0.022c0.088-0.046,0.109-0.121,0.266,0.021
			c0.089,0,0.412,0.049,0.468,0.049s0.134-0.215,0.323,0.009c0.078,0.047,0.501,0.032,0.568,0.047
			c0.044-0.034,0.189-0.104,0.167,0.043c0.123-0.022,0.322-0.011,0.412,0c0.134,0.021,0.223-0.099,0.3,0.021
			c0.089,0.012,0.568-0.029,0.634-0.021c0.135,0.021,0.157-0.124,0.268-0.034c0.068,0.023,0.178-0.043,0.233-0.056
			c0.022-0.065,0.057-0.009,0.111-0.021c0.056-0.013,0.301-0.157,0.346-0.2c0.045-0.045,0.1-0.278,0.066-0.336
			c-0.032-0.055-0.022-0.478,0.013-0.588c0.032-0.111-0.044-0.248-0.113-0.313c0.023-0.119,0.29-0.298,0.424-0.364
			c0.156,0.02,0.378,0.088,0.501,0.178c0.09,0.03,0.312-0.066,0.379-0.111c0.066-0.047,0.234-0.19,0.344-0.19
			c0.09-0.056,0.235-0.146,0.312-0.199c0.08-0.058-0.065-0.856-0.055-0.913c0.022-0.189,0.067-0.523-0.066-0.769
			c0.111-0.246,0.712-0.822,0.802-0.945c0.089-0.123,0.49-0.411,0.59-0.981c0.067-0.133,0.402-2.069,0.389-2.316
			c-0.01-0.245,0-1.078-0.245-1.632c-0.033-0.136,0.937-2.808,0.937-2.919c0-0.11,1.414-4.311,1.46-4.521
			c0.043-0.212,1.569-4.344,1.691-4.486c0.122-0.146,0.824-1.895,0.857-2.26c0.034-0.369,0.892-4.153,0.904-4.389
			c0.011-0.234,0.802-3.406,0.835-3.529c0.032-0.123,0.234-0.623,0.289-0.689c0.055-0.067,0.1,0.646,0.079,0.802
			c-0.023,0.155,0.078,2.069,0.445,2.972c0.034,0.414-0.279,0.957,0.479,2.75c0.034,0.08-0.379,0.637-0.69,2.006
			c-0.034,0.188-0.201,0.425-0.068,1.391c0.011,0.111-0.145,1.261-0.055,1.539c0.012,0.109-0.09,1.245-0.046,1.48
			c-0.01,0.088-0.734,0.901-0.89,1.517c-0.022,0.12-0.457,1.032-0.469,1.11c-0.01,0.078-0.099,0.443-0.065,0.611
			c-0.112,0.602-0.225,2.939-0.212,3.107c0.012,0.166-0.143,3.219-0.246,3.773c0.023,0.135,0,1.581,0.413,2.316
			c0.023,0.099-0.11,0.32-0.078,0.609c-0.022,0.103,0.033,0.838-0.012,0.928c-0.044,0.088,0.034,0.132,0.112,0.166
			c0.078,0.033-0.011,0.188-0.079,0.234c-0.067,0.043-0.244,0.063-0.234,0.411c0.023,0.077-0.056,1.122-0.056,1.189
			s0,0.102,0.066,0.157c0.067,0.054,0.213-0.069,0.213,0.1c0.055,0.055,0.079,0.045,0.156,0.064c0.078,0.024,0.178-0.064,0.245,0.08
			c0.078,0.034,0.112,0.012,0.201,0.022c0.089,0.011,0.267-0.078,0.378,0.099c0.067,0.035,0.312,0.035,0.379,0.057
			c0.068,0.021,0.657-0.198,0.713-0.269c0.212,0.035,0.924,0.226,1.27,0.681c0.044,0.068,0.134,0.389,0.157,0.445
			c0.021,0.055,0.155-0.045,0.166,0.146c0.068,0.043,0.145-0.056,0.223,0.112c0.011,0.142,0.112,0.099,0.177,0.066
			c0.068,0.043,0.068,0.208,0.235,0.178c0.066,0.021,0.044-0.111,0.177,0.021c0.067,0.048,0.09,0.048,0.178,0.059
			c0.089,0.011,0.146-0.091,0.301,0.076c0.056,0.045,0.144,0.067,0.234,0.022c0.089,0,0.134-0.135,0.279,0.021
			c0.066,0.034,0.145,0.077,0.223,0.055c0.076,0.022,0.122-0.108,0.255-0.021c0.079,0.021,0.179,0.021,0.245,0.021
			c0.067,0,0.234-0.009,0.324-0.041c0.267,0.053,0.412,0.088,0.557,0.032c0.077,0,0.212-0.202,0.289,0.009
			c0.123,0.022,0.401-0.031,0.469-0.021c0.067,0.012,0.212-0.214,0.378-0.013c0.045,0.031,0.334-0.021,0.412-0.043
			c0.078-0.023,0.123-0.123,0.289-0.033c0.091-0.014,0.291-0.047,0.347-0.09c0.055-0.043,0.278-0.035,0.268-0.166
			c0.021-0.092-0.078-0.701-0.046-0.813c0.036-0.112-0.145-0.244-0.189-0.271c-0.045-0.021-0.067-0.153-0.132-0.187
			c-0.067-0.034,0.065-0.391-0.125-0.536c0.021,0.061-0.196-0.688-1.347-1.201c-0.044,0,0.156-0.068-0.133-0.269
			c-0.021-0.065-1.092-0.99-1.159-1.091c0-0.165,0.2-0.313,0.157-1.313c-0.033-0.18,0.313-0.947-0.368-1.947
			c-0.1-0.146-0.179-0.691-0.189-0.771c-0.011-0.077,0.335-1.734,0.368-1.924c0.033-0.188,0.534-0.602,0.98-1.694
			c0.078-0.223,1.136-2.268,1.215-2.87c0.033-0.146,0.155-2.539,0.1-2.697c-0.056-0.153,0.602-2.127,0.635-2.394
			c0.033-0.266,0.768-3.095,0.78-3.917c-0.045-0.27,0.558-3.888,0.511-4.054c-0.044-0.167,0.368-3.263,0.425-3.463
			c0.056-0.199,0.088,0.62,0.1,0.723c0.011,0.101,0.066,1.681,0.201,2.194c0.032,0.134,0.189,1.113,0.178,1.225
			c-0.011,0.111,0.166,1.28,0.277,1.426c0.111,0.145-0.067,1.18,0.415,3.428c0.066,0.226-0.336,3.029-0.336,3.151
			c0,0.123-0.11,0.222,0.011,1.058c0.057,0.156,0.212,2.998,0.246,3.119c0.033,0.123,0.212,3.231,0.167,3.539
			c0.022,0.234,0.056,3.266,0.068,3.385c0.01,0.125-0.124,0.357,0.166,1.314c0.012,0.133,0.356,1.102,0.367,1.416
			c0.245,0.268,0.725,0.268,0.87,0.256c0.111,0.053-0.224,0.489-0.38,0.721c-0.088,0.146-0.656,0.803-1.023,1.06
			c-0.269,0.233-0.714,0.211-0.858,0.614c-0.022,0.119-0.156,0.345-0.156,0.41s-0.123,0.146-0.033,0.479
			c0.043,0.09-0.156-0.134-0.146,0.537c0.023,0.178-0.11,0.635,0.592,0.744c0.155,0.023,1.781,0.344,2.694,0.136
			c0.135-0.013,1.114-0.302,1.559-0.791c0.079-0.065,0.169-0.589,0.146-0.646c0.045-0.102,0.312-0.201,0.468-0.227
			c0.09-0.02,0.256,0.147,0.679-0.096c0.09-0.047,0.779-0.303,0.846-0.391c0.089-0.067-0.1-1.551-0.121-1.614
			c-0.022-0.068-0.012-0.146-0.212-0.259c-0.078-0.01-0.055-0.154,0.101-0.232c0.189-0.189,0.211-0.491,0.089-0.646
			c-0.057-0.209,0.489-0.179,0.601-0.558c0.055-0.1,0.089-1.635,0.078-1.679c-0.01-0.047-0.133-0.479,0.079-0.85
			c0.055-0.144,0.3-1.679,0.1-3.439c0-0.098-0.118-1.002-0.156-1.277c-0.022-0.08,0.279-2.607,0.256-2.728
			c-0.021-0.126,0.078-0.804-0.056-1.237c0.011-0.222,0-0.879,0-0.97s0.1-0.624,0.112-1.001c-0.045-0.124,0.155-0.893,0-1.438
			c-0.034-0.109-0.101-0.869-0.101-0.97s0.245-1.79,0.312-1.903c0.066-0.111,0.402-2.683,0.323-3.205
			c0-0.514,0.246-1.017,0.167-1.648c0-0.188-0.034-3.018-0.012-3.206c0.023-0.19,0.313-2.394,0.323-2.506
			c0.012-0.109,0.112-0.868,0.268-1.048c0.111,0.156,0.177,0.97,0.21,1.048c0.035,0.079,0.269,2.106,0.29,2.237
			c0.023,0.135,0.01,0.836,0.136,1.181c0.021,0.11,0.188,1.659,0.188,1.87c0.034,0.123,0.334,1.814,0.312,2.172
			c0.023,0.146,0.033,0.813,0.19,1.371c0.034,0.088,0.123,1.121,0.156,1.258c0.034,0.132,0.023,0.633,0.144,1.213
			c0.035,0.109,0.291,2.016,0.28,2.193c-0.01,0.178,0.233,2.605,0.223,2.748c-0.01,0.147,0.078,1.494,0.078,1.639
			s0.056,1.27,0.144,1.902c-0.01,0.166,0.079,0.813,0.079,0.938c0,0.511,0.123,1.212,0.178,2.237c0.066,0.724,0.2,1.958,0.423,3.05
			c0.021,0.11,0.278,1.606,0.268,1.759c-0.023,0.235-0.089,1.695-0.011,2.174c-0.035,0.231-0.079,0.545,0.722,0.912
			c0.157,0.033,1.215,0,1.394-0.047c0.177-0.044,0.444-0.054,0.534-0.054s0.055,0.244,0.245,0.412
			c-0.008,0.038,0.032,0.157-0.065,0.153c-0.065,0.051-0.142,0.107-0.135,0.348c-0.022,0.246-0.179,0.912-0.123,1.4
			c0.056,0.17,0.535,0.582,0.59,0.64c0.056,0.054-0.11,0.276-0.044,0.71c0.01,0.109-0.167,0.57,0.412,0.923
			c0.167,0.101,0.524,0.392,1.158,0.392c0.133,0.021,1.717,0.043,2.317-0.111c0.278-0.045,0.623-0.155,0.856-0.623
			c0.033-0.088,0.068-0.646,0.058-0.69c-0.013-0.045,0.012-0.187-0.123-0.39c-0.078-0.112,0.155-0.324-0.033-0.667
			c0-0.091-0.245-0.312-0.313-0.367c-0.064-0.058-0.178-0.302-0.188-0.347c-0.012-0.047,0-0.146-0.135-0.301
			c-0.032-0.092-0.032-0.27-0.245-0.455c-0.032-0.078-0.679-1.539-0.679-1.539s-0.111-0.021-0.034-0.198
			c0.034-0.048-0.101-1.138-0.122-1.271s0-1.135,0.021-1.269c0.022-0.134-0.033-0.767,0.022-0.902
			c0.056-0.134,0.188-0.968,0.188-2.614c-0.045-0.168,0.045-1.306-0.256-3.242c-0.012-0.121-0.09-0.367-0.066-0.444
			c0.021-0.077,0.178-1.058,0.134-1.524c0.056-0.146,0.088-2.295,0.077-2.474c-0.012-0.178-0.033-1.047,0.011-1.146
			c0.044-0.101,0.302-1.873,0.291-2.051c-0.012-0.179,0.255-0.589-0.188-1.892c-0.09-0.269,0.065-1.647,0.133-1.853
			c0.066-0.197,0.336-3.004,0.322-3.213c-0.012-0.213,0.313-2.406,0.19-3.375c0.009-0.168-0.155-2.396-0.178-2.496
			c-0.024-0.099-0.091-2.09-0.091-2.184c0-0.087,0.012-1.534-0.034-1.602c-0.032-0.313,0.246-0.479,0.157-1.491
			c-0.012-0.091,0.121-0.804,0.134-0.968c0.012-0.17,0.222-1.827,0.211-1.905c0.056-0.078,0.29-0.021,0.224-0.224
			c0.034-0.112,0.034-0.479-0.109-0.726c-0.014-0.088-0.047-0.153-0.104-0.177c-0.056-0.023-0.064-0.355-0.043-0.445
			c-0.013-0.355,0.167-1.447,0.223-1.703c0.056-0.259,0.613-2.684,0.613-2.684c0.031-0.234,0.065-0.59,0.188-0.7
			c0.134,0,0.244,0.088,0.59-0.313c0.102-0.123,0.412-1.104,0.412-1.227c0-0.121,0.38-0.256,0.156-0.699
			c-0.013-0.125-0.479-0.903-0.59-0.957c-0.111-0.057,0.2-0.202,0.101-0.813c0.032-0.134-0.19-1.47-0.19-1.581
			c0-0.058-0.006-0.859-0.044-1.768c0.104,0.164,0.254,0.369,0.47,0.577c0.073,0.075,0.461,0.446,0.84,0.8
			c0.063,0.039,0.643,0.553,0.643,0.553l0.107,0.101l0.119,0.126c0,0,0.359,0.317,0.605,0.592c0.225,0.235,0.785,0.855,0.785,0.855
			l0.59,0.662l0.061,0.077c0,0,0.813,0.892,1,1.145c0.096,0.116,1.129,1.407,1.274,1.652c0.106,0.12,0.399,0.541,0.49,0.657
			c0.054,0.083,0.144,0.22,0.144,0.22l0.098,0.13l0.049,0.09l0.097,0.145l0.062,0.096l0.052,0.138l0.055,0.104v0.149
			c0,0,0.001,0.046,0.005,0.096c-0.025-0.002-0.054,0.003-0.09,0.022c-0.256,0.173,0.227,0.603,0.295,0.702
			c0.02,0.048,0.041,0.092,0.061,0.136c0.141,0.202,0.275,0.434,0.332,0.723c-0.028,0.123-0.088,0.486-0.088,0.535
			c0,0.057-0.061,0.217-0.061,0.217l-0.027,0.203c0,0-0.05,0.25-0.05,0.292c0,0.043-0.019,0.172-0.008,0.231
			c0.015,0.052,0.03,0.129,0.03,0.129l0.055,0.136c0,0,0.199,0.319,0.412,0.016c0.038,0.033,0.08,0.064,0.105,0.104
			c0.049,0.069,0.078,0.145,0.129,0.211c0.244,0.327,0.449,0.683,0.709,0.988c0.244,0.289,0.521,0.555,0.765,0.841
			c0.247,0.289,0.487,0.606,0.771,0.861c1.346,1.21,2.789,2.354,3.92,3.774c0.105,0.097,0.211,0.196,0.318,0.295
			c0.219,0.228,0.438,0.475,0.7,0.656c0.202,0.139,0.36,0.361,0.562,0.508c0.139,0.103,0.512,0.312,0.543,0.49
			c-0.181,0.01-0.138,0.226-0.184,0.387c-0.066,0.246-0.161,0.563-0.225,0.791v0.137c-0.012,0.021-0.03,0.038-0.039,0.074
			c0.002,0.054,0.006,0.105,0.009,0.16c-0.054,0.063-0.201,0.397-0.196,0.496c0.014,0.057,0.023,0.11,0.037,0.168
			c-0.023,0.103-0.113,0.202-0.167,0.279c-0.009,0.014-0.054,0.197-0.067,0.227c0.017,0.016,0.029,0.029,0.047,0.047
			c-0.047,0.092-0.018,0.635-0.018,0.814c0.02,0.002,0.037,0.004,0.055,0.008v0.066c0.063-0.004,0.027,0.118,0.053,0.188
			c-0.012,0.028-0.024,0.029-0.045,0.047c0.015,0.201,0.105,0.384,0.15,0.56c0.042,0.165,0.035,0.356,0.121,0.483
			c0.014,0.019,0.064,0.031,0.083,0.052c-0.008,0.032-0.012,0.028-0.022,0.052c-0.016,0-0.029-0.002-0.045-0.006
			c0.004,0.107,0.03,0.215,0.061,0.294c0.021,0.151,0.04,0.302,0.061,0.453c0.067,0.245,0.156,0.498,0.228,0.71
			c-0.003,0.044-0.005,0.086-0.009,0.13c0.022,0.13,0.046,0.263,0.068,0.396c0.109,0.356,0.172,0.799,0.312,1.136
			c0.001,0.075,0.003,0.149,0.007,0.221c0.055,0.193,0.124,0.337,0.182,0.507c0.002,0.069,0.004,0.137,0.008,0.202
			c0.064,0.204,0.215,0.497,0.256,0.728c0.02,0.105,0.014,0.276,0.068,0.361c-0.011,0.012-0.021,0.021-0.029,0.032
			c0.082,0.199,0.166,0.399,0.248,0.604c0.022,0.066,0.062,0.162,0.068,0.211c0.004,0.035-0.025,0.047-0.008,0.09
			c0.031,0.087,0.119,0.126,0.15,0.221c0.199,0.576,0.442,1.217,0.627,1.844c0.041,0.31,0.08,0.623,0.121,0.937
			c-0.008,0.053-0.016,0.104-0.022,0.159c0.067,0.216,0.071,0.492,0.121,0.709c0.019,0.058,0.035,0.115,0.053,0.172
			c-0.021,0.007-0.041,0.012-0.062,0.018c0.07,0.369,0.142,0.739,0.213,1.109c0.014,0.064-0.023,0.13-0.008,0.174
			c0.063,0.172,0.211,0.284,0.338,0.378c0.07,0.052,0.113,0.129,0.229,0.136c0.047,0.07,0.09,0.221,0.037,0.279h0.023
			c-0.021,0.139-0.133,0.325-0.196,0.438c-0.009,0.056-0.017,0.11-0.022,0.168c-0.043,0.1-0.091,0.273-0.166,0.332
			c0.004,0.028,0.01,0.062,0.015,0.09c-0.017,0.033-0.069,0.066-0.083,0.113c0.006,0.019,0.011,0.039,0.016,0.062
			c-0.023,0.065-0.1,0.271-0.15,0.346c-0.031,0.048-0.078,0.085-0.099,0.129c-0.028,0.074,0.025,0.165,0.009,0.228
			c-0.031,0.099-0.113,0.503-0.168,0.529c-0.02,0.162-0.092,0.414-0.156,0.635c-0.043,0.139-0.039,0.281-0.1,0.399
			c-0.023,0.046,0.014,0.089,0.008,0.121c-0.017,0.083-0.057,0.201-0.092,0.3c-0.025,0.079,0.002,0.201-0.008,0.239
			c-0.07,0.24-0.143,0.494-0.136,0.752c-0.022-0.003-0.046-0.005-0.067-0.008c0.01,0.026,0.012,0.021,0.021,0.039
			c-0.026,0.049-0.215,0.368-0.082,0.399c-0.006,0.021-0.012,0.041-0.016,0.062c-0.021,0.008-0.041,0.015-0.061,0.022
			c0.016,0.092-0.084,0.35-0.121,0.506c-0.122,0.502-0.311,1.18-0.212,1.606h-0.038c0.066,0.274,0.109,0.587,0.22,0.812
			c-0.056,0.101-0.051,0.168-0.091,0.246c-0.018,0.02-0.08,0.037-0.105,0.047c-0.013,0.021-0.023,0.047-0.037,0.066
			c0.027,0.063,0.106,0.141,0.045,0.215c0.197,0.157,0.061,0.44,0.084,0.697v0.244c-0.021,0.059-0.076,0.166-0.063,0.249
			c0.04,0.214-0.006,0.519-0.044,0.757c-0.017,0.1,0.028,0.149,0.037,0.229c0.019,0.129-0.043,0.322-0.067,0.421
			c-0.011,0.276-0.021,0.559-0.031,0.838c-0.006,0.174-0.014,0.343-0.021,0.513c-0.118,0.74,0.021,1.689-0.13,2.371
			c-0.033,0.161-0.095,0.613-0.165,0.712c-0.112,0.162-0.472,0.259-0.672,0.341c-0.208,0.086-0.413,0.17-0.621,0.254
			c-0.261,0.051-0.522,0.097-0.785,0.146c-0.495,0.095-1.011,0.063-1.411,0.241c-0.459,0.202-0.736,0.631-1.027,1.006
			c-0.078,0.094-0.155,0.19-0.233,0.287c0.067,0.146,0.136,0.29,0.203,0.438c0.474,0.086,1.071,0.141,1.571,0.059
			c0.132-0.008,0.263-0.016,0.394-0.02c0.573-0.113,1.091-0.349,1.69-0.469c0.221-0.047,0.425-0.038,0.664-0.078
			c0.164-0.002,0.328-0.005,0.492-0.006c0.15-0.007,0.303-0.012,0.453-0.016c0.207,0.021,0.411,0.043,0.619,0.064
			c0.354-0.057,0.705-0.115,1.057-0.172c0.063-0.098,0.123-0.189,0.184-0.288v-0.285c-0.001-0.43-0.045-0.769-0.105-1.134V92.92
			c0-0.313-0.006-0.615,0.037-0.891c0.01-0.17,0.021-0.338,0.029-0.508c0.104-0.453,0.289-0.885,0.423-1.313
			c0.158-0.506,0.226-1.049,0.386-1.571c0.049-0.136,0.097-0.271,0.145-0.408c0.15-0.787,0.302-1.574,0.452-2.364
			c0.124-0.28,0.247-0.565,0.37-0.847c0.185-0.66,0.367-1.322,0.552-1.984c0.079-0.152,0.157-0.307,0.233-0.465
			c0.22-0.494,0.469-0.978,0.733-1.433c0.163-0.278,0.333-0.625,0.642-0.758c0.051-0.008,0.106,0.049,0.166,0.063
			c0.008-0.027,0.006-0.022,0.022-0.039c0.286,0.023,0.709,0.356,0.876,0.506c0.075,0.068,0.188,0.089,0.266,0.152
			c0.096,0.078,0.172,0.209,0.279,0.271c0.339,0.203,0.734,0.685,0.965,1.006c0.008-0.003,0.012-0.005,0.018-0.007
			c0.064,0.031,0.104,0.135,0.158,0.195c0.152,0.216,0.309,0.427,0.459,0.643c0.279,0.373,0.602,0.771,0.824,1.17
			c0.047,0.053,0.096,0.105,0.143,0.158c0.107,0.154,0.234,0.306,0.334,0.463c0.146,0.225,0.271,0.477,0.438,0.708
			c0.068,0.097,0.184,0.158,0.25,0.233c0.206,0.242,0.383,0.496,0.604,0.717c0.021-0.041,0.132,0.107,0.145,0.113
			c0.143,0.119,0.299,0.164,0.332,0.395h0.008c0.008-0.018,0.016-0.036,0.022-0.053c0.005-0.004,0.01-0.004,0.015-0.008
			c0.368,0.34,0.735,0.68,1.104,1.021c0.041,0.015,0.08,0.022,0.119,0.037c0.043,0.032,0.138,0.083,0.168,0.129
			c0.026,0.058,0.055,0.11,0.084,0.167c0.154,0.083,0.295,0.223,0.429,0.354c0.043,0.022,0.086,0.047,0.129,0.069
			c0.024,0.042,0.051,0.085,0.075,0.126c0.121,0.114,0.227,0.238,0.287,0.395c0.19,0.24,0.382,0.479,0.574,0.716
			c0.508,0.632,1.018,1.265,1.525,1.897c0.064,0.252,0.129,0.504,0.195,0.756c0.102,0.299,0.201,0.597,0.303,0.896v0.689
			c0.072,0.209,0.146,0.422,0.221,0.635c0.137,0.393,0.242,0.773,0.367,1.185c0.064,0.218,0.127,0.438,0.189,0.657
			c-0.024,0.047-0.051,0.096-0.075,0.143c-0.177,0.405-0.429,0.67-0.664,1.006c-0.11,0.158-0.283,0.274-0.28,0.535
			c0.155,0.053,0.401,0.262,0.62,0.205c0.088-0.033,0.177-0.065,0.265-0.097c0.047,0.101,0.096,0.199,0.145,0.301
			C91.059,98.967,91.232,99,91.521,99h0.694c0.142-0.037,0.282-0.077,0.425-0.113c0.084-0.021,0.17-0.045,0.254-0.066
			c0.099-0.148,0.192-0.299,0.289-0.448c0.082-0.116,0.162-0.236,0.241-0.351c0.042-0.1,0.22-0.785,0.204-0.879
			C93.585,96.891,93.539,96.641,93.493,96.387z M14.939,39.917c-0.078,0.09-0.445,0.758-0.524,0.836
			c-0.389,0.846-0.233,1.427-0.378,1.359c-0.145-0.09-0.557-0.88-0.59-1.014c-0.412-0.544-0.501-1.659-0.747-2.349
			c-0.066-0.734-0.679-1.747-0.745-2.062c-0.023-0.199-0.122-0.377-0.068-0.497c0.068-0.035,0.123-0.057,0.167-0.125
			c0.045-0.066,0.556-1.258,0.658-1.348c0.68-0.702,0.924-1.556,0.945-1.636c0.057-0.123,0.108,0.067,0.189,0.491
			c-0.043,0.456,0.046,1.181,0.023,1.38c-0.056,0.502,0.144,0.711,0.157,0.891c0.011,0.177,0.5,1.079,0.512,1.303
			c0.012,0.223,0.233,0.411,0.156,0.501c-0.402,0.635,0.1,0.781,0.188,1.058c0.011,0.366,0.201,0.5,0.212,0.557
			c0.01,0.055,0.01,0.077,0.032,0.145C14.55,39.707,15.017,39.83,14.939,39.917z M65.213,50.262c-0.064-0.049-0.125-0.1-0.156-0.16
			c-0.006-0.01-0.004-0.034-0.008-0.047h0.044l0.113,0.079l0.042,0.048l0.009,0.045L65.213,50.262z M72.837,56.521
			c-0.078,0.086-0.112,0.24-0.228,0.287c-0.313-0.259-0.723-0.56-0.969-0.879c-0.08-0.104-0.24-0.152-0.31-0.279
			c0.009-0.146,0.085-0.094,0.176-0.164c0.021-0.03,0.039-0.062,0.06-0.092c0.08-0.062,0.185-0.113,0.242-0.193
			c0.047-0.087,0.096-0.172,0.144-0.26c0.036-0.047,0.095-0.084,0.112-0.15c0.115-0.008,0.148-0.012,0.233-0.021
			c0.007,0.017,0.031-0.029,0.039-0.037c0.08-0.092,0.075-0.281,0.128-0.4h0.016c0.016,0.012,0.031,0.025,0.047,0.037
			c-0.008,0.025-0.016,0.05-0.024,0.076c0.017,0.009,0.031,0.016,0.046,0.022c0.006-0.018,0.012-0.036,0.016-0.054
			c-0.01-0.02-0.021-0.041-0.029-0.059c0.021-0.017,0.023-0.011,0.037-0.033h0.023c0.084,0.186-0.132,0.333-0.1,0.529
			c0.052,0.304,0.128,0.633,0.204,0.914c0.013,0.047-0.013,0.084,0.016,0.129c0.037,0.064,0.13,0.125,0.165,0.194h0.031
			c0.001-0.014,0.005-0.028,0.007-0.043c0.083,0.022,0.151,0.06,0.25,0.063c0.007,0.037,0.015,0.067,0.021,0.103
			C73.084,56.326,72.939,56.405,72.837,56.521z M71.741,85.01c0.022-0.01,0.015-0.017,0.053-0.021
			c-0.019-0.003-0.036-0.007-0.053-0.009V85.01z M71.748,84.938h0.008c-0.002-0.006-0.005-0.016-0.008-0.022V84.938z"/>
	</g>
</g>
</svg>
