<?xml version="1.0" encoding="utf-8"?>
<!-- Generator: Adobe Illustrator 16.0.0, SVG Export Plug-In . SVG Version: 6.00 Build 0)  -->
<!DOCTYPE svg PUBLIC "-//W3C//DTD SVG 1.1//EN" "http://www.w3.org/Graphics/SVG/1.1/DTD/svg11.dtd">
<svg version="1.1" id="Layer_1" xmlns="http://www.w3.org/2000/svg" xmlns:xlink="http://www.w3.org/1999/xlink" x="0px" y="0px"
	 width="100px" height="100px" viewBox="0 0 100 100" enable-background="new 0 0 100 100" xml:space="preserve">
<path fill="#70CDE3" stroke="#676767" d="M50,50c0,0-9.614-35.301-6.32-44.645c1.843-5.228,10.781-5.622,12.343,0
	C58.807,15.364,50,50,50,50z M50,50c0,0-25.977-25.765-27.796-35.503c-1.018-5.45,6.527-10.26,10.691-6.172
	C40.308,15.603,50,50,50,50z M50,50c0,0-35.378-9.324-41.824-16.848C4.57,28.94,8.699,21.002,14.348,22.46
	C24.407,25.056,50,50,50,50z M50,50c0,0-35.301,9.614-44.645,6.32c-5.229-1.842-5.622-10.78,0-12.343C15.363,41.194,50,50,50,50z
	 M50,50c0,0-25.765,25.977-35.503,27.797c-5.45,1.018-10.261-6.527-6.172-10.689C15.603,59.691,50,50,50,50z M50,50
	c0,0-9.324,35.378-16.848,41.824c-4.211,3.607-12.149-0.521-10.691-6.172C25.056,75.593,50,50,50,50z M50,50
	c0,0,9.613,35.302,6.318,44.646c-1.842,5.228-10.78,5.621-12.342,0C41.195,84.639,50,50,50,50z M50,50
	c0,0,25.977,25.766,27.796,35.503c1.019,5.45-6.526,10.263-10.69,6.173C59.691,84.398,50,50,50,50z M50,50
	c0,0,35.378,9.326,41.823,16.85c3.606,4.209-0.521,12.148-6.173,10.689C75.593,74.943,50,50,50,50z M50,50
	c0,0,35.301-9.613,44.645-6.319c5.229,1.842,5.623,10.781,0,12.344C84.637,58.807,50,50,50,50z M50,50
	c0,0,25.766-25.977,35.503-27.795c5.45-1.018,10.261,6.526,6.173,10.69C84.396,40.307,50,50,50,50z M50,50
	c0,0,9.324-35.378,16.85-41.824c4.209-3.606,12.147,0.523,10.689,6.173C74.943,24.407,50,50,50,50z"/>
<circle fill="#CBDB2A" stroke="#676767" cx="50" cy="50" r="16.732"/>
</svg>
