<?xml version="1.0" encoding="utf-8"?>
<!-- Generator: Adobe Illustrator 16.0.0, SVG Export Plug-In . SVG Version: 6.00 Build 0)  -->
<!DOCTYPE svg PUBLIC "-//W3C//DTD SVG 1.1//EN" "http://www.w3.org/Graphics/SVG/1.1/DTD/svg11.dtd">
<svg version="1.1" id="Layer_1" xmlns="http://www.w3.org/2000/svg" xmlns:xlink="http://www.w3.org/1999/xlink" x="0px" y="0px"
	 width="100px" height="100px" viewBox="0 0 100 100" enable-background="new 0 0 100 100" xml:space="preserve">
<path fill="#C4A132" d="M48.908,18.632c0.786-1.597,2.072-1.597,2.863,0l8.127,16.474c0.789,1.595,2.877,3.111,4.636,3.365
	l18.176,2.642c1.767,0.258,2.164,1.483,0.888,2.726L70.441,56.66c-1.271,1.242-2.066,3.693-1.771,5.447l3.105,18.104
	c0.3,1.754-0.741,2.518-2.315,1.688L53.2,73.35c-1.577-0.828-4.156-0.828-5.731,0l-16.254,8.549
	c-1.579,0.832-2.62,0.067-2.319-1.687L32,62.107c0.302-1.754-0.493-4.205-1.771-5.447L17.077,43.839
	c-1.273-1.242-0.875-2.468,0.886-2.726l18.177-2.642c1.764-0.254,3.848-1.771,4.634-3.365L48.908,18.632z"/>
<path fill="#FAEE98" d="M64.839,39.874c0-0.462-0.047-0.912-0.067-1.367l-0.235-0.035c-1.761-0.254-3.849-1.771-4.638-3.365
	l-8.127-16.474c-0.791-1.597-2.078-1.597-2.861,0l-8.135,16.474c-0.786,1.595-2.87,3.111-4.634,3.365l-18.177,2.642
	c-1.761,0.258-2.159,1.483-0.886,2.726L30.23,56.66c1.278,1.242,2.073,3.693,1.771,5.447L31.1,67.359
	c1.834,0.377,3.733,0.576,5.677,0.576C52.273,67.936,64.839,55.372,64.839,39.874z"/>
<path fill="none" stroke="#AD8514" d="M48.908,18.632c0.786-1.597,2.072-1.597,2.863,0l8.127,16.474
	c0.789,1.595,2.877,3.111,4.636,3.365l18.176,2.642c1.767,0.258,2.164,1.483,0.888,2.726L70.441,56.66
	c-1.271,1.242-2.066,3.693-1.771,5.447l3.105,18.104c0.3,1.754-0.741,2.518-2.315,1.688L53.2,73.35
	c-1.577-0.828-4.156-0.828-5.731,0l-16.254,8.549c-1.579,0.832-2.62,0.067-2.319-1.687L32,62.107
	c0.302-1.754-0.493-4.205-1.771-5.447L17.077,43.839c-1.273-1.242-0.875-2.468,0.886-2.726l18.177-2.642
	c1.764-0.254,3.848-1.771,4.634-3.365L48.908,18.632z"/>
</svg>
