<?xml version="1.0" encoding="utf-8"?>
<!-- Generator: Adobe Illustrator 16.0.0, SVG Export Plug-In . SVG Version: 6.00 Build 0)  -->
<!DOCTYPE svg PUBLIC "-//W3C//DTD SVG 1.1//EN" "http://www.w3.org/Graphics/SVG/1.1/DTD/svg11.dtd">
<svg version="1.1" id="Layer_1" xmlns="http://www.w3.org/2000/svg" xmlns:xlink="http://www.w3.org/1999/xlink" x="0px" y="0px"
	 width="69.941px" height="95.968px" viewBox="0 0 69.941 95.968" enable-background="new 0 0 69.941 95.968" xml:space="preserve">
<path d="M52.252,0c0.028,0,0.057,0,0.088,0c0,0.039,0,0.077,0,0.115C52.262,0.124,52.244,0.075,52.252,0z M12.743,0.717
	c0,0.077,0,0.153,0,0.229C12.36,1.312,12.292,0.415,12.743,0.717z M60.08,0.747c0.082-0.005,0.083,0.07,0.086,0.143
	C60.05,0.922,60.026,0.801,60.08,0.747z M66.273,0.918c0.11,0,0.105,0.149-0.028,0.114C66.233,0.973,66.263,0.957,66.273,0.918z
	 M33.101,1.606c0.096-0.029,0.044,0.089,0.059,0.143C33.058,1.77,33.055,1.648,33.101,1.606z M10.736,1.835
	c0.101-0.021,0.104,0.1,0.058,0.143C10.72,1.942,10.704,1.919,10.736,1.835z M34.792,2.294c-0.043,0.043-0.126,0.047-0.2,0.057
	C34.577,2.212,34.752,2.228,34.792,2.294z M9.647,2.466C9.738,2.442,9.735,2.511,9.79,2.524c0.009,0.162-0.052,0.255-0.029,0.43
	C9.729,2.783,9.516,2.627,9.647,2.466z M68.307,2.982c0.028,0.283-0.211,0.526-0.541,0.545C67.821,3.218,67.981,3.017,68.307,2.982z
	 M7.611,3.298c0.071-0.005,0.14-0.005,0.173,0.028c0.012,0.107-0.022,0.169-0.114,0.171c-0.001-0.026-0.036-0.02-0.059-0.028
	C7.611,3.412,7.611,3.355,7.611,3.298z M26.822,3.527c0.051,0.006,0.065,0.049,0.059,0.114c-0.03,0-0.059,0-0.087,0
	C26.78,3.582,26.812,3.566,26.822,3.527z M66.932,4.215c0.091-0.013,0.091,0.061,0.085,0.143c-0.036,0-0.075,0-0.113,0
	C66.894,4.292,66.908,4.248,66.932,4.215z M16.672,6.537c0.293,0.364,0.267,1.362,0.085,1.835c-0.283-0.381-0.281-1.186-0.258-1.778
	C16.56,6.578,16.582,6.524,16.672,6.537z M6.809,6.682C6.92,6.693,6.897,6.84,6.923,6.938C6.872,6.866,6.781,6.832,6.809,6.682z
	 M50.073,8.458c0.076-0.009,0.095,0.039,0.087,0.115c-0.038,0-0.076,0-0.114,0C50.034,8.513,50.064,8.498,50.073,8.458z
	 M15.64,9.003c0.134-0.026,0.147,0.152,0,0.115C15.64,9.08,15.64,9.041,15.64,9.003z M17.273,9.29c0.029,0,0.058,0,0.086,0
	c0.013,0.06-0.02,0.076-0.028,0.115C17.281,9.397,17.266,9.355,17.273,9.29z M51.936,10.523c0.108-0.02,0.129,0.045,0.114,0.143
	c-0.047,0-0.094,0-0.143,0C51.899,10.6,51.914,10.556,51.936,10.523z M21.432,10.724c-0.03,0.038-0.028,0.106-0.059,0.144
	c-0.09,0.013-0.112-0.042-0.172-0.059c0-0.038,0-0.076,0-0.114C21.266,10.635,21.393,10.673,21.432,10.724z M36.455,11.469
	c0.192,0.102-0.025,0.299-0.059,0.431c-0.057,0-0.113,0-0.173,0C36.242,11.696,36.461,11.697,36.455,11.469z M65.47,11.612
	c0,0.039,0,0.077,0,0.115c-0.035,0.024-0.076,0.038-0.145,0.028C65.32,11.654,65.368,11.606,65.47,11.612z M56.267,13.162
	c0.034,0.274-0.102,0.375-0.373,0.343c-0.044-0.104,0.026-0.233,0.061-0.343C56.072,13.135,56.179,13.074,56.267,13.162z
	 M9.504,13.333c0.059-0.013,0.075,0.019,0.113,0.028c-0.015,0.023-0.029,0.046-0.028,0.086C9.515,13.456,9.496,13.407,9.504,13.333z
	 M15.524,13.418c0.054,0.233-0.114,0.337-0.286,0.259C15.113,13.452,15.349,13.267,15.524,13.418z M18.765,13.418
	c0.11-0.021,0.11,0.138,0,0.115C18.765,13.496,18.765,13.457,18.765,13.418z M24.155,13.706c0.028,0,0.058,0,0.087,0
	c0,0.036,0,0.076,0,0.114C24.145,13.849,24.147,13.78,24.155,13.706z M61.083,14.509c0.065-0.01,0.107,0.003,0.143,0.027
	c0,0.049,0,0.096,0,0.144c-0.083,0.025-0.087,0.025-0.171,0C61.051,14.61,61.049,14.542,61.083,14.509z M32.212,16.832
	c-0.096,0.56-0.084,1.116-0.487,1.404c-0.134-0.507,0.095-1.121,0.315-1.463C32.13,16.759,32.153,16.814,32.212,16.832z
	 M54.375,17.691c0.025,0.141-0.032,0.199-0.173,0.171C54.092,17.744,54.255,17.58,54.375,17.691z M36.712,17.892
	c0.078-0.008,0.094,0.04,0.087,0.114c-0.039,0-0.077,0-0.115,0C36.672,17.946,36.705,17.93,36.712,17.892z M23.525,18.407
	c0.133,0.003,0.005,0.13,0.028,0.201C23.509,18.569,23.471,18.46,23.525,18.407z M27.394,18.494c0.03,0,0.06,0,0.087,0
	c0.008,0.075-0.01,0.123-0.087,0.114C27.394,18.57,27.394,18.532,27.394,18.494z M27.109,18.551c0.047,0.057-0.004,0.037,0,0.114
	C26.999,18.688,26.999,18.529,27.109,18.551z M49.558,19.239c0.08,0.306-0.19,0.616-0.487,0.545
	C49.019,19.405,49.253,19.167,49.558,19.239z M19.482,20.07c0.294-0.077,0.626,0.208,0.689,0.487
	c0.187,0.844-0.97,1.466-1.176,0.631C18.867,20.678,19.141,20.159,19.482,20.07z M51.879,20.472
	c-0.028,0.324-0.294,0.413-0.545,0.517C51.358,20.785,51.553,20.37,51.879,20.472z M45.199,20.529c0.021,0,0.039,0,0.059,0
	c-0.003,0.079,0.047,0.059,0,0.115c-0.02,0-0.038,0-0.059,0C45.152,20.587,45.201,20.608,45.199,20.529z M51.135,20.586
	c0.012,0.289-0.236,0.441-0.518,0.344C50.548,20.597,50.898,20.432,51.135,20.586z M48.294,21.561
	c-0.034,0.334-0.418,0.408-0.657,0.574c-0.411,0.283-0.717,0.693-1.377,0.746c0.036-0.473,0.76-0.735,1.204-1.004
	C47.731,21.717,48.01,21.27,48.294,21.561z M58.215,21.534c0,0.047,0,0.095,0,0.143c-0.135,0.055-0.253,0.127-0.373,0.201
	C57.985,21.781,57.949,21.503,58.215,21.534z M10.164,21.906c0.069,0.024,0.124,0.067,0.113,0.172
	C10.209,22.05,10.138,22.027,10.164,21.906z M5.948,23.253c-0.525,0.172-1.189-0.441-1.233-0.975
	c-0.041-0.503,0.769-0.098,0.946,0.115C5.868,22.64,5.973,23.006,5.948,23.253z M58.388,22.737c0.036-0.134,0.09-0.281,0.174-0.373
	c0.18-0.199,1.058-0.442,1.059-0.085C59.624,22.707,58.756,23.099,58.388,22.737z M39.923,23.167
	c0.101-0.021,0.103,0.101,0.059,0.142C39.883,23.331,39.878,23.21,39.923,23.167z M40.555,23.282
	c0.007,0.076-0.011,0.124-0.087,0.115c-0.016-0.023-0.029-0.047-0.028-0.087C40.466,23.288,40.506,23.28,40.555,23.282z
	 M26.88,25.116c-0.171,0.298-0.18,0.758-0.374,1.033c-0.24-0.327,0.114-0.737,0.144-1.119c0.006-0.097-0.041-0.22-0.028-0.316
	c0.048-0.401,0.653-1.15,1.089-1.003C28.195,24.306,27.796,25.62,26.88,25.116z M21.202,24.171c0.92-0.249,1.097,0.934,0.632,1.376
	c-0.473,0.445-1.184,0.077-1.205-0.631C20.62,24.652,20.845,24.267,21.202,24.171z M34.734,24.171
	c0.063,0.436-0.317,0.896-0.629,1.147C34.191,24.925,34.32,24.33,34.734,24.171z M14.349,26.12
	c-0.537-0.011-1.074-0.281-1.118-0.773c-0.082-0.908,1.053-1.579,1.578-0.746c0.152,0.241,0.137,0.714,0,0.975
	C14.693,25.795,14.419,25.878,14.349,26.12z M24.298,27.468c-0.256-0.055-0.174-0.242-0.287-0.43
	c-0.148-0.251-0.471-0.368-0.602-0.631c-0.385-0.78,0.328-1.966,1.062-1.635c0.128,0.059,0.324,0.293,0.372,0.402
	C25.164,25.908,24.605,26.953,24.298,27.468z M17.101,24.83c0.03,0,0.06,0,0.086,0C17.336,25.038,16.954,25.038,17.101,24.83z
	 M22.436,25.976c-0.101,0.022-0.122-0.032-0.173-0.057C22.219,25.628,22.588,25.783,22.436,25.976z M18.106,26.12
	c0.556-0.53,1.489-0.258,1.461,0.488c-0.011,0.334-0.187,0.757-0.571,0.832C18.27,27.578,17.766,26.774,18.106,26.12z
	 M51.966,26.465c0.104,0.606-0.7,0.644-0.688,0.2C51.284,26.374,51.757,26.2,51.966,26.465z M14.148,26.751
	c0.375-0.735,1.399-0.358,1.375,0.372c-0.003,0.166-0.119,0.537-0.286,0.659C14.691,28.183,13.938,27.507,14.148,26.751z
	 M5.834,28.472c-0.265-0.066-0.742-0.446-0.89-0.773c-0.063-0.139-0.06-0.302-0.113-0.431c-0.114-0.269-0.41-0.423-0.287-0.802
	c0.37-0.214,0.448,0.235,0.602,0.486C5.393,27.357,6.07,27.922,5.834,28.472z M11.54,26.837c-0.112,0.061-0.225,0.012-0.26-0.085
	C11.28,26.537,11.621,26.582,11.54,26.837z M45.859,27.181c0.017,0.233-0.223,0.314-0.373,0.459
	c-0.346,0.335-0.599,0.822-1.146,0.889c0.001-0.359,0.4-0.599,0.66-0.803C45.287,27.501,45.538,26.936,45.859,27.181z
	 M32.126,27.209c0.226,0.428-0.059,0.81-0.201,1.09c-0.093,0.183-0.086,0.485-0.314,0.487c-0.153-0.582,0.012-1.27,0.343-1.605
	C32.042,27.16,32.059,27.21,32.126,27.209z M12.171,27.582c0.186,0.47,0.582,1.016,0.458,1.606c-0.5-0.267-0.743-0.964-0.631-1.606
	C12.055,27.582,12.114,27.582,12.171,27.582z M22.952,27.64c0.81-0.237,0.857,1.379,0.144,1.375
	C22.522,29.014,22.292,27.832,22.952,27.64z M17.273,29.045c-0.452-0.075-0.729-0.698-0.458-1.147
	C17.391,27.802,17.614,28.608,17.273,29.045z M37.63,28.041c-0.045,0.501-0.51,0.827-0.888,1.09
	c0.143-0.486,0.449-0.811,0.772-1.118C37.566,28.009,37.576,28.048,37.63,28.041z M4.659,28.155c0.084,0.003,0.16,0.011,0.144,0.114
	c-0.048,0-0.097,0-0.144,0C4.659,28.232,4.659,28.193,4.659,28.155z M7.21,28.414c0.327-0.049,0.842,0.28,0.803,0.717
	c-0.067,0.737-1.506,0.607-1.406-0.23C6.632,28.696,6.862,28.465,7.21,28.414z M11.139,28.673c1.208-0.142,1.073,1.912-0.116,1.663
	C10.309,30.185,10.313,28.74,11.139,28.673z M32.441,28.815c0.023,0.099-0.031,0.121-0.058,0.172c-0.183-0.069-0.236-0.029-0.431,0
	c-0.023-0.062-0.074-0.098-0.057-0.201C32.126,28.716,32.202,28.897,32.441,28.815z M1.562,29.246
	c0.222-0.026,0.426-0.015,0.604,0.086c0.146,0.083,0.619,0.551,0.602,0.746c-0.021,0.23-0.505,0.349-0.832,0.342
	C1.207,30.407,0.366,29.386,1.562,29.246z M24.242,29.417c0.433,0.083,0.855-0.192,1.29-0.144c0.382,0.043,0.608,0.291,0.887,0.458
	c0.103,0.292,0.291,0.435,0.345,0.718c0.212,1.087-0.937,2.018-1.892,1.548C24.16,31.647,23.925,30.351,24.242,29.417z
	 M36.167,29.877c0.028,0.295-0.362,0.844-0.57,1.088c-0.128,0.149-0.338,0.34-0.518,0.346c0.082-0.599,0.482-1.123,0.889-1.492
	C36.07,29.802,36.106,29.853,36.167,29.877z M66.387,30.105c0.053,0.281-0.24,0.218-0.43,0.259
	C66.141,30.333,66.158,29.996,66.387,30.105z M65.958,30.393c-0.229,0.102-0.366,0.301-0.632,0.373
	C65.491,30.594,65.688,30.46,65.958,30.393z M36.885,30.879c0.168-0.019,0.176,0.201,0,0.173
	C36.845,31.015,36.845,30.917,36.885,30.879z M36.397,33.231c0.156-0.747,1.367-1.129,2.15-1.204
	c0.319-0.032,0.556,0.038,0.603,0.258c0.092,0.432-0.692,0.824-0.975,0.917c-0.279,0.092-0.65,0.099-0.946,0.144
	C36.912,33.393,36.563,33.475,36.397,33.231z M26.19,32.715c-0.422-0.139,0.065-0.616,0.172-0.286
	C26.412,32.58,26.307,32.664,26.19,32.715z M34.276,32.429c0.528-0.107,0.39,0.767,0.058,0.802
	C33.921,33.273,33.866,32.51,34.276,32.429z M63.147,32.943c-0.101,0.016-0.124-0.046-0.173-0.085
	C62.976,32.533,63.388,32.8,63.147,32.943z M40.096,34.005c-0.392-0.935,1.286-1.386,1.091-0.287
	C41.112,34.132,40.414,34.327,40.096,34.005z M35.796,33.69c0.084,0.314-0.299,0.534-0.545,0.515
	C35.282,33.899,35.469,33.605,35.796,33.69z M55.58,33.862c0.056,0.228-0.113,0.404-0.26,0.517c-0.162,0.009-0.298-0.007-0.4-0.057
	c0-0.132-0.015-0.281,0.028-0.372C55.074,33.822,55.379,33.75,55.58,33.862z M47.952,34.005c0.048,0.383-0.291,0.378-0.372,0.632
	c-0.289,0.134-0.753,0.444-1.089,0.256c0.147-0.359,0.772-0.774,1.175-0.943C47.763,33.905,47.864,33.939,47.952,34.005z
	 M32.499,34.952c-0.346-0.481,0.483-1.079,0.716-0.688C33.413,34.594,32.991,35.161,32.499,34.952z M36.283,34.235
	c0.932-0.154,0.754,1.11,0.113,1.317c-0.442,0.146-0.963-0.126-0.831-0.716C35.642,34.501,35.996,34.282,36.283,34.235z
	 M53.885,34.893c0.007,0.072-0.045,0.091-0.057,0.144c-0.05,0-0.097,0-0.143,0C53.503,34.869,53.812,34.654,53.885,34.893z
	 M28.944,35.182c0.066,0.027,0.094,0.098,0.084,0.2C28.946,35.367,28.875,35.257,28.944,35.182z M29.917,35.869
	c-0.04-0.384,0.126-0.563,0.373-0.66C30.445,35.514,30.206,35.825,29.917,35.869z M39.379,35.382
	c0.184,0.296,0.007,0.518,0.058,0.802c0.07,0.397,0.441,0.606,0.431,1.004c-0.013,0.4-0.659,1.024-1.177,0.918
	c-0.452-0.095-0.281-0.934-0.2-1.377c0.059-0.316,0.302-1.338,0.604-1.405C39.214,35.297,39.311,35.344,39.379,35.382z
	 M47.435,35.525c0.077,0.079,0.063,0.226-0.114,0.2C47.246,35.647,47.261,35.499,47.435,35.525z M63.291,36.214
	c-0.016,0.155-0.206,0.137-0.342,0.171C63,36.27,63.165,36.079,63.291,36.214z M45.917,36.214c0.006-0.069,0.125-0.017,0.144,0
	C46.136,36.444,45.768,36.352,45.917,36.214z M32.642,36.3c0.09,0.219-0.087,0.404-0.287,0.429
	C32.279,36.523,32.412,36.293,32.642,36.3z M29.028,36.471c0.146,0.1,0.384-0.214,0.718-0.086c0.104,0.039,0.118,0.123,0.229,0.23
	c0.16,0.699-0.781,0.756-0.888,0.259C29.154,36.709,29.091,36.583,29.028,36.471z M30.577,36.701
	c-0.015-0.042-0.045-0.07-0.084-0.086C30.479,36.107,31.013,36.64,30.577,36.701z M55.549,37.331
	c0.335-0.077,0.616,0.027,0.661,0.172c0.14,0.494-1.019,0.865-1.147,0.402C54.99,37.641,55.37,37.373,55.549,37.331z M59.448,38.22
	c0.396-0.067,0.672,0.33,0.346,0.631c-0.154,0.145-0.666,0.189-0.745-0.087C58.964,38.473,59.159,38.27,59.448,38.22z
	 M38.835,39.109c0.418-0.125,0.783-0.583,1.261-0.46c0.064,0.448-0.582,0.43-0.774,0.718c-0.644-0.23-0.633,0.342-0.888,0.688
	c-0.118,0.161-0.446,0.312-0.459,0.487c-0.014,0.153,0.217,0.287,0.257,0.458c0.019,0.077-0.04,0.179-0.028,0.287
	c0.017,0.151,0.14,0.295,0.145,0.373c0.006,0.107-0.094,0.518-0.145,0.66c-0.161,0.464-0.675,0.774-1.117,1.003
	c0.068,0.276-0.062,0.641-0.028,0.975c0.013,0.138,0.136,0.265,0.114,0.373c-0.067,0.338-1.102,0.32-1.346,0.144
	c-0.201-0.144-0.305-0.625-0.26-0.86c0.059-0.297,0.367-0.32,0.43-0.603c-0.313-0.329-0.848-0.54-1.031-1.032
	c-0.233-0.626-0.067-1.432,0.344-1.834c0.35-0.345,0.821-0.411,1.375-0.576c0.07-0.084,0.032-0.287,0.086-0.429
	C37.002,38.873,38.803,37.65,38.835,39.109z M0.127,38.478c0.035,0.085,0.008,0.099-0.028,0.172
	C-0.03,38.628-0.046,38.46,0.127,38.478z M50.302,38.851c0.391-0.073,0.816-0.084,0.889,0.171c0.112,0.393-0.51,0.918-0.832,1.004
	c-0.318,0.086-0.941,0.076-1.002-0.2c-0.048-0.226,0.309-0.637,0.431-0.747C49.919,38.964,50.09,38.891,50.302,38.851z
	 M67.622,39.022c0.027,0.115,0.022,0.218-0.146,0.201c0.001-0.067-0.05-0.083-0.026-0.171
	C67.485,39.018,67.548,39.018,67.622,39.022z M45.687,39.223c0.298,0.27-0.192,0.641-0.43,0.373
	C45.245,39.317,45.382,39.187,45.687,39.223z M34.937,39.739c0.086,0.273-0.244,0.345-0.402,0.489
	c-0.254,0.226-0.51,0.642-1.004,0.573c0.043-0.196,0.18-0.444,0.344-0.573c0.132-0.103,0.361-0.125,0.516-0.23
	C34.574,39.873,34.725,39.531,34.937,39.739z M41.617,40.486c0.042,0.396-0.381,0.504-0.576,0.716
	c-0.27,0.292-0.463,0.76-0.973,0.803c0.063-0.25,0.219-0.604,0.458-0.831c0.11-0.107,0.287-0.152,0.401-0.259
	C41.112,40.742,41.278,40.286,41.617,40.486z M49.212,41.661c0.009,0.355-0.449,0.488-0.802,0.545
	c-0.27,0.043-0.626,0.064-0.86-0.028C47.837,41.77,48.619,41.57,49.212,41.661z M7.64,41.746c0.109,0.001,0.105,0.15-0.029,0.114
	C7.599,41.802,7.631,41.786,7.64,41.746z M50.417,42.75c-0.028-0.333,0.45-0.404,0.519-0.173
	C51.008,42.846,50.597,43.022,50.417,42.75z M45.715,42.607c-0.066,0.226-0.296,0.126-0.486,0.201
	C45.35,42.714,45.514,42.439,45.715,42.607z M49.758,42.778c0.014,0.479-0.42,0.36-0.803,0.402
	c-0.191,0.021-0.313,0.189-0.486,0.144c-0.052-0.168,0.471-0.643,0.687-0.688C49.399,42.584,49.643,42.648,49.758,42.778z
	 M41.988,42.95c-0.025,0.069-0.051,0.142-0.171,0.116C41.794,42.947,41.914,42.886,41.988,42.95z M0.1,43.037
	c0.039,0,0.075,0,0.115,0c0.03,0.026,0.008,0.105,0.085,0.085c-0.077,0.046-0.11-0.002-0.2,0.058
	C0.045,43.125,0.117,43.128,0.1,43.037z M31.439,43.324c0,0.048,0,0.095,0,0.143c-0.08,0.057-0.123,0.057-0.202,0
	C31.2,43.319,31.344,43.251,31.439,43.324z M11.884,43.667c0.396,0.801-0.147,1.632-0.918,1.606c-0.78-0.023-1.19-0.853-0.717-1.576
	C10.616,43.286,11.524,43.206,11.884,43.667z M7.067,43.352c0.016,0.123-0.236,0.221-0.43,0.229
	C6.614,43.34,6.941,43.445,7.067,43.352z M37.516,43.639c0.11-0.023,0.11,0.136,0,0.114C37.468,43.697,37.518,43.717,37.516,43.639z
	 M63.063,44.068c0.06-0.012,0.075,0.021,0.111,0.03c0.015,0.089-0.022,0.126-0.111,0.114C63.063,44.165,63.063,44.117,63.063,44.068
	z M48.179,44.155c0.029,0.166-0.091,0.392-0.37,0.344C47.639,44.279,47.941,44.044,48.179,44.155z M8.271,44.271
	c-0.002,0.078,0.048,0.056,0,0.114C8.161,44.408,8.161,44.248,8.271,44.271z M30.779,44.557c0.131-0.026,0.115,0.227-0.027,0.171
	C30.688,44.667,30.744,44.601,30.779,44.557z M3.454,44.613c-0.024,0.063-0.07,0.102-0.171,0.085
	C3.289,44.589,3.368,44.574,3.454,44.613z M38.605,46.478c-0.55-0.718-0.046-1.828,0.803-1.865c0.391-0.016,0.976,0.246,1.006,0.689
	C40.456,46.016,39.484,46.656,38.605,46.478z M59.592,45.044c0.027-0.272,1.092-0.676,1.204-0.287
	C60.917,45.173,59.856,45.295,59.592,45.044z M37.544,44.786c0.021,0.25-0.076,0.383-0.315,0.373
	C37.068,44.964,37.239,44.695,37.544,44.786z M45.573,44.786c0.108,0.029,0.053,0.117,0.086,0.172
	c0.401-0.144,1.186,0.07,1.202,0.487c0.021,0.412-0.845,0.645-1.262,0.286c-0.195-0.167-0.424-0.589-0.056-0.744
	c-0.007-0.041-0.087-0.01-0.087-0.057C45.445,44.83,45.529,44.829,45.573,44.786z M1.189,44.899c0.048,0,0.096,0,0.145,0
	c-0.05,0.038-0.075,0.098-0.172,0.087C1.175,44.964,1.19,44.939,1.189,44.899z M14.607,45.014c0.022,0.138-0.041,0.189-0.113,0.23
	C14.204,45.214,14.379,44.796,14.607,45.014z M0.587,45.13c-0.035-0.017-0.282,0.246-0.373,0.085
	C0.225,45.074,0.453,45.148,0.587,45.13z M54,45.387c0.076,0.036,0.079,0.177-0.058,0.145C53.92,45.439,53.969,45.422,54,45.387z
	 M36.656,45.502c0.094-0.008,0.138,0.035,0.145,0.116c-0.056,0.011-0.054,0.082-0.145,0.057
	C36.617,45.637,36.617,45.539,36.656,45.502z M6.035,45.818c0.188-0.03,0.39,0.029,0.43,0.229c0.104,0.534-0.735,0.557-0.774,0.145
	C5.673,46.011,5.764,45.861,6.035,45.818z M56.038,45.933c0.074-0.009,0.094,0.04,0.085,0.114c-0.036,0-0.075,0-0.115,0
	C55.997,45.988,56.029,45.971,56.038,45.933z M50.216,45.962c0.048,0,0.097,0,0.143,0c0.027,0.083,0.027,0.088,0,0.171
	c-0.046,0-0.095,0-0.143,0C50.191,46.05,50.191,46.045,50.216,45.962z M35.796,46.506c-0.004-0.071-0.005-0.138,0.029-0.171
	c0.064-0.01,0.107,0.003,0.143,0.027c0,0.038,0,0.076,0,0.115C35.934,46.511,35.866,46.511,35.796,46.506z M7.812,46.563
	c0.564-0.124,0.519,0.744,0.029,0.688C7.515,47.214,7.418,46.65,7.812,46.563z M67.991,46.85c0.041,0.126-0.065,0.104-0.083,0.173
	c-0.102-0.015-0.153-0.076-0.26-0.086C67.736,46.888,67.856,46.757,67.991,46.85z M4.256,47.022
	c0.653-0.142,0.194,0.938-0.172,0.487C3.97,47.369,3.996,47.079,4.256,47.022z M44.196,47.251c0.023,0.099-0.031,0.121-0.057,0.172
	C44.031,47.383,44.04,47.232,44.196,47.251z M5.804,47.939c0.313-0.301,0.464,0.334,0.145,0.287
	C5.828,48.208,5.8,48.133,5.804,47.939z M42.046,48.226c0.071,0.829-1.352,0.918-1.778,0.402
	C40.365,47.862,41.46,47.991,42.046,48.226z M38.691,48.512c0.197-0.397,0.81-0.478,0.946-0.028
	C39.871,49.242,38.551,49.535,38.691,48.512z M65.415,49.117c0.023,0.12-0.069,0.121-0.173,0.113c0-0.029,0-0.059,0-0.086
	C65.275,49.111,65.342,49.112,65.415,49.117z M56.84,49.662c0.085,0.002,0.076,0.17-0.03,0.143
	C56.779,49.712,56.797,49.728,56.84,49.662z M6.809,52.269c-0.089-0.447,0.349-0.604,0.603-0.803
	c0.028-0.272,0.046-0.534,0.086-0.775c0.052-0.318,0.076-0.891,0.43-0.889c0.424,0.005,1.029,0.234,1.319,0.574
	c0.282,0.33,0.486,1.006,0.027,1.347c-0.259,0.194-0.691,0.202-1.089,0.173c-0.104-0.007-0.245-0.074-0.373-0.059
	C7.431,51.894,7.324,52.481,6.809,52.269z M41.845,50.376c-0.021,0.438-1.043,0.574-1.091,0.201
	C40.71,50.203,41.622,50.042,41.845,50.376z M42.189,50.175c0.498,0.048,1.01,0.08,1.177,0.459c-0.42,0.234-0.93-0.125-1.177-0.344
	C42.189,50.251,42.189,50.214,42.189,50.175z M47.321,50.808c-0.006-0.285,0.41-0.346,0.689-0.402
	c0.293-0.063,0.632-0.174,0.889-0.201c0.454-0.049,1.293,0.024,1.262,0.459c-0.034,0.471-1.083,0.349-1.462,0.287
	C48.234,50.875,47.601,51.027,47.321,50.808z M42.161,50.462c0.027,0.113,0.01,0.201-0.059,0.287
	c-0.17,0.016-0.246-0.061-0.229-0.231C41.966,50.445,42.02,50.441,42.161,50.462z M56.295,50.979
	c0.044,0.14-0.144,0.136-0.199,0.085C56.115,50.992,56.186,50.966,56.295,50.979z M42.046,51.552
	c-0.168,0.723-1.126,0.369-1.464,0.027C40.748,51.046,41.755,51.3,42.046,51.552z M3.339,51.582c-0.13,0.359-0.626,0.5-0.976,0.545
	c-0.03-0.213,0.188-0.178,0.287-0.258C2.827,51.718,3.004,51.572,3.339,51.582z M49.902,51.723c-0.055,0.146-0.142,0.09-0.314,0.087
	C49.613,51.814,49.805,51.576,49.902,51.723z M39.551,52.727c0.004-0.379,0.938-0.358,0.976-0.028
	C40.572,53.087,39.646,53.121,39.551,52.727z M54.517,52.5c0.464,0.021,0.905,0.068,0.974,0.486
	C55.09,53.119,54.723,52.75,54.517,52.5z M39.407,52.727c0.076-0.009,0.095,0.04,0.087,0.114c-0.038,0-0.075,0-0.114,0
	C39.367,52.783,39.399,52.766,39.407,52.727z M51.679,53.187c0,0.037,0,0.076,0,0.113C51.546,53.328,51.533,53.149,51.679,53.187z
	 M7.125,53.96c-0.137,0.345-0.294,0.811-0.689,0.803C6.391,54.333,6.825,54.141,7.125,53.96z M41.673,54.19
	c-0.06,0.171-0.354,0.104-0.545,0.146C41.271,54.259,41.521,54.072,41.673,54.19z M67.449,54.735
	c0.154-0.048,0.322,0.12,0.485,0.142c0.348,0.047,0.852-0.164,1.232-0.142c0.144,0.009,0.769,0.071,0.773,0.259
	c0.016,0.357-1.143,0.084-1.432,0.086c-0.09,0-0.252,0.063-0.287,0.058c-0.106-0.015-0.165-0.12-0.345-0.199
	C67.671,54.841,67.385,54.886,67.449,54.735z M42.448,55.08c-0.159,0.293-0.92-0.025-1.063-0.203
	c-0.008-0.045,0.027-0.047,0.028-0.084C41.854,54.679,42.195,54.91,42.448,55.08z M58.903,54.876
	c0.023,0.231-0.303,0.188-0.43,0.117C58.57,54.895,58.728,54.815,58.903,54.876z M2.593,57.058
	c-0.095,0.113-0.141,0.279-0.286,0.343C1.751,57.546,1.58,56.99,1.82,56.685c0.116-0.066,0.301-0.064,0.487-0.059
	c0.113,0.076,0.188,0.194,0.259,0.316c0.144-0.191,0.127-0.378,0.259-0.547c0.159-0.207,0.898-0.682,1.231-0.4
	C4.274,56.179,4.24,56.75,4.142,57C3.924,57.56,2.546,58.205,2.593,57.058z M6.923,56.944c0.378,0.603-0.636,0.802-0.603,0.229
	C6.336,56.916,6.639,56.798,6.923,56.944z M42.504,56.884c0.036,0.014,0.059,0.037,0.057,0.087c-0.053,0.054-0.07,0.004-0.142,0
	C42.41,56.906,42.501,56.94,42.504,56.884z M47.092,57.343c0.016,0.164,0.142,0.223,0.115,0.431
	c-0.409,0.249-0.938-0.21-0.977-0.517C46.451,57.039,46.848,57.311,47.092,57.343z M30.664,57.63
	c-0.045,0.291-0.606,0.22-0.804,0.115c0.018-0.143-0.151-0.248-0.085-0.346C30.032,57.35,30.42,57.5,30.664,57.63z M42.132,57.574
	c0.476,0.014,1.183,0.387,1.118,0.86C42.75,58.496,42.167,58.167,42.132,57.574z M68.852,57.604c0.005,0.067,0.005,0.136-0.025,0.17
	c-0.05,0-0.1,0-0.146,0C68.591,57.65,68.735,57.507,68.852,57.604z M65.415,57.947c0.313-0.427,1.078-0.076,1.518-0.027
	c0.281,0.029,0.749-0.062,0.747,0.199c-0.006,0.353-0.583,0.092-0.804,0.086C66.365,58.193,65.731,58.302,65.415,57.947z
	 M68.54,58.376c-0.035-0.09-0.106-0.144-0.086-0.287C68.812,57.578,69.315,58.561,68.54,58.376z M31.008,58.205
	c-0.168,0.058-0.462,0.143-0.631,0.028C30.417,58.076,30.96,58,31.008,58.205z M30.233,58.346c0.075-0.009,0.124,0.012,0.116,0.088
	c-0.025,0.021-0.064,0.03-0.116,0.026C30.233,58.423,30.233,58.384,30.233,58.346z M43.881,58.376
	c0.243,0.08,0.489,0.158,0.486,0.486C44.066,58.945,43.893,58.675,43.881,58.376z M9.533,58.978c0.162-0.04,0.183,0.066,0.286,0.086
	C9.777,59.173,9.48,59.144,9.533,58.978z M33.301,59.896c0.296,0.072,0.507,0.436,0.517,0.773c0.009,0.262-0.011,0.933-0.258,0.945
	c-0.21,0.014-0.205-0.195-0.287-0.431C33.15,60.839,32.919,60.212,33.301,59.896z M33.015,60.326
	c-0.017,0.297-0.343,0.115-0.573,0.088c-0.458-0.06-1.107,0.104-1.261-0.287c0.302-0.426,0.849-0.006,1.261,0.058
	C32.673,60.216,32.915,60.096,33.015,60.326z M34.448,60.039c0.095,0.031,0.219,0.031,0.285,0.088c0.041,0.086,0.041,0.229,0,0.314
	C34.461,60.492,34.372,60.248,34.448,60.039z M66.33,60.669c-0.004,0.033,0.007,0.049,0.03,0.058
	c-0.017,0.095-0.109,0.041-0.174,0.028C66.208,60.701,66.263,60.677,66.33,60.669z M9.819,61.417
	c0.083,0.028,0.15,0.076,0.145,0.199c-0.053,0.071-0.178,0.071-0.229,0C9.715,61.501,9.769,61.46,9.819,61.417z M3.597,61.587
	c-0.014-0.137,0.162-0.078,0.23-0.057c0.132-0.119,0.32,0.01,0.458,0.057c0.098-0.022,0.164,0.041,0.027,0.027
	C4.038,61.605,3.759,61.697,3.597,61.587z M4.945,61.587c-0.067,0.065-0.257,0.01-0.373,0.027
	C4.629,61.544,4.857,61.535,4.945,61.587z M8.816,62.017c0.086-0.064,0.295-0.01,0.431-0.027
	C9.123,62.023,8.914,62.132,8.816,62.017z M7.038,62.046c-0.029,0.191-0.302,0.086-0.458,0.086C6.72,62.089,6.87,61.97,7.038,62.046
	z M7.554,62.046c-0.036,0.121-0.155,0.009-0.258,0.027C7.322,62.003,7.497,61.998,7.554,62.046z M8.816,62.046
	c-0.328,0.024-0.542,0.164-0.918,0.144C7.952,61.871,8.583,62.121,8.816,62.046z M6.292,62.16c-0.028,0.068-0.1,0.094-0.2,0.088
	c0-0.029,0-0.058,0-0.088C6.146,62.103,6.228,62.147,6.292,62.16z M56.954,63.394c-0.133,0.286-0.531,0.025-0.718-0.059
	C56.469,63.3,56.828,63.218,56.954,63.394z M29.688,64.283c-0.649,0.092-0.973-0.369-0.832-0.889
	C29.465,63.026,30.09,63.818,29.688,64.283z M3.339,63.365c-0.035,0.206-0.079,0.398-0.316,0.402
	C2.905,63.533,3.184,63.324,3.339,63.365z M28.57,64.337c0.229,0.732-0.716,0.826-0.688,0.231
	C27.897,64.255,28.303,64.052,28.57,64.337z M2.02,64.77c-0.051,0.004-0.06-0.035-0.114-0.028C1.729,64.324,2.336,64.554,2.02,64.77
	z M8.185,64.856c0.122,0.543-0.109,0.978-0.602,1.003c0-0.027-0.035-0.021-0.058-0.027C7.313,65.294,7.742,64.925,8.185,64.856z
	 M24.958,64.884c0.933-0.063,0.757,1.543-0.172,1.349c-0.158-0.034-0.436-0.271-0.488-0.401
	C24.101,65.341,24.449,64.919,24.958,64.884z M50.131,65.229c0.056-0.017,0.092,0.132,0.028,0.144
	C50.056,65.399,50.109,65.25,50.131,65.229z M26.334,65.542c0.144,0.226-0.008,0.482-0.2,0.459
	C25.833,65.964,25.875,65.339,26.334,65.542z M68.997,65.974c0.064-0.01,0.108,0.005,0.145,0.027
	c0.007,0.094-0.035,0.14-0.116,0.146C68.992,66.113,68.994,66.044,68.997,65.974z M22.491,66.117
	c0.486-0.119,0.501,0.606,0.114,0.633C22.271,66.769,22.082,66.218,22.491,66.117z M27.567,66.261
	c0.64-0.338,1.115,0.919,0.487,0.976C27.632,67.274,27.494,66.699,27.567,66.261z M20.743,66.949
	c-0.073,0.088,0.146,0.066,0.086,0.229c-0.101-0.164-0.368-0.299-0.372-0.485c-0.006-0.185,0.188-0.315,0.286-0.315
	C21.03,66.378,21.077,66.852,20.743,66.949z M13.231,66.518c0.058,0.001,0.036,0.079,0.115,0.06
	c-0.214,0.264-0.248,0.707-0.545,0.887C12.827,67.033,13.156,66.901,13.231,66.518z M30.406,66.578
	c0.248,0.073,0.582,0.309,0.631,0.629c0.04,0.262-0.066,0.625-0.258,0.66C30.33,67.951,29.944,66.908,30.406,66.578z M10.307,66.75
	c-0.075,0.078-0.079,0.228-0.229,0.229C10.019,66.867,10.193,66.779,10.307,66.75z M19.682,66.75
	c0.051,0.084,0.168,0.149,0.115,0.258C19.668,67.009,19.677,66.876,19.682,66.75z M11.453,67.15
	c-0.053,0.071-0.053,0.195-0.173,0.199C11.258,67.203,11.365,67.184,11.453,67.15z M1.906,67.436C2,67.429,2.043,67.471,2.049,67.55
	c-0.028,0.002-0.023,0.035-0.029,0.058c-0.047,0-0.096,0-0.143,0C1.874,67.539,1.873,67.471,1.906,67.436z M11.396,67.436
	c0.092,0.003-0.048,0.228-0.144,0.229C11.226,67.515,11.341,67.505,11.396,67.436z M27.653,67.608
	c0.271-0.151,0.662,0.038,0.717,0.229C28.585,68.601,27.357,68.319,27.653,67.608z M0.587,67.724
	c0.127,0.097,0.006,0.419-0.201,0.371C0.354,67.875,0.486,67.814,0.587,67.724z M15.697,67.837c0.374-0.088,0.76,0.066,0.804,0.345
	c0.077,0.479-0.524,0.889-0.946,0.632C15.209,68.602,15.339,68,15.697,67.837z M9.676,68.5c-0.341-0.562,0.577-0.883,0.659-0.373
	C10.389,68.455,10.013,68.728,9.676,68.5z M32.785,68.785c0.143-0.02,0.18,0.068,0.199,0.172
	C32.887,69.105,32.662,68.934,32.785,68.785z M7.955,68.869c0.118,0.264-0.238,0.452-0.43,0.316
	c0.004-0.032-0.006-0.051-0.028-0.059C7.49,68.878,7.754,68.74,7.955,68.869z M20.37,68.814c0.064,0.04,0.135,0.075,0.115,0.199
	C20.384,69.009,20.37,68.917,20.37,68.814z M33.501,70.476c-0.264,0.146-0.332-0.158-0.458-0.316
	c-0.264-0.322-0.707-0.609-0.775-1.146c0.027-0.021,0.045-0.054,0.059-0.085c0.504,0.061,0.805,0.654,1.06,1.09
	C33.479,70.171,33.66,70.326,33.501,70.476z M28.483,69.33C27.857,69.138,28.914,68.765,28.483,69.33L28.483,69.33z M24.413,69.071
	c0.27-0.062,0.706,0.253,0.774,0.546c0.101,0.428-0.155,0.887-0.43,0.916C24.063,70.611,23.705,69.236,24.413,69.071z
	 M18.794,69.298c0.073,0.299,0.375,0.645,0.258,0.947C18.889,70.005,18.875,69.621,18.794,69.298z M17.732,69.472
	c0.643-0.148,0.569,0.807,0.059,0.802C17.347,70.273,17.272,69.58,17.732,69.472z M30.176,69.5c0.047,0.092,0.104,0.213,0.057,0.315
	C29.872,70.189,29.624,69.289,30.176,69.5z M13.461,69.759c0.275,0.434-0.408,0.582-0.401,0.199
	C13.062,69.804,13.24,69.667,13.461,69.759z M12.944,69.789c0.166,0.293,0.087,0.924-0.314,0.916
	C12.345,70.417,12.573,69.843,12.944,69.789z M36.224,69.988c0.018,0.12-0.015,0.194-0.058,0.26
	C35.737,70.328,35.96,69.728,36.224,69.988z M1.906,70.274c0.088-0.026,0.051,0.063,0.058,0.117c-0.028,0-0.058,0-0.086,0
	C1.865,70.33,1.897,70.313,1.906,70.274z M7.182,70.333c0.057,0.115,0.031,0.287-0.057,0.342
	C6.643,70.755,6.823,70.061,7.182,70.333z M31.295,72.225c-0.393-0.138-0.655-0.546-0.575-1.062c0.021,0,0.039,0,0.059,0
	c0.227,0.041,0.29,0.244,0.458,0.344C31.24,71.762,31.546,72.062,31.295,72.225z M38.835,71.279c0.089-0.037,0.089,0.237,0,0.2
	C38.835,71.414,38.835,71.345,38.835,71.279z M38.835,71.566c0.062,0.077,0.092,0.305,0,0.372
	C38.689,71.86,38.86,71.703,38.835,71.566z M62.546,71.679c0.037,0,0.075,0,0.112,0c0.033,0.082,0.021,0.186-0.112,0.173
	C62.488,71.798,62.537,71.748,62.546,71.679z M59.476,71.738c0,0.049,0,0.096,0,0.143c-0.077,0.059-0.12,0.059-0.199,0
	C59.241,71.733,59.386,71.666,59.476,71.738z M35.566,72.082c0.063,0.207-0.173,0.252-0.257,0.145
	C35.247,72.018,35.48,71.973,35.566,72.082z M13.06,73.287c-0.232-0.431,0.039-0.979,0.372-1.119
	C13.612,72.541,13.55,73.255,13.06,73.287z M30.521,73.832c-0.375,0.258-1.124-0.828-0.917-1.35
	C30.275,72.35,30.764,73.111,30.521,73.832z M32.098,72.425c0.271,0.008,0.639,1.087,0.171,1.175
	C31.803,73.687,31.535,72.505,32.098,72.425z M8.185,73.171c-0.193-0.055-0.025-0.453,0.115-0.346
	C8.347,72.946,8.355,73.183,8.185,73.171z M10.479,72.94c0.102-0.013,0.147,0.026,0.172,0.087c-0.003,0.094-0.064,0.125-0.172,0.115
	C10.438,73.103,10.438,72.98,10.479,72.94z M14.407,73.113c0.269-0.021,0.559,0.184,0.544,0.574
	c-0.019,0.451-0.927,0.844-1.119,0.314C13.7,73.634,13.956,73.151,14.407,73.113z M17.417,73.859
	C17.369,74.442,16.935,73.617,17.417,73.859L17.417,73.859z M21.289,75.694c-0.211-0.403-0.211-1.315,0.172-1.521
	c0.139-0.072,0.433,0.488,0.458,0.688C21.97,75.287,21.628,76.005,21.289,75.694z M30.233,75.175
	c-0.376-0.02-0.546-0.586-0.344-0.916C30.29,74.324,30.569,74.869,30.233,75.175z M67.076,74.259c0.028,0,0.059,0,0.085,0
	c0.015,0.061-0.02,0.076-0.026,0.115C67.083,74.369,67.068,74.326,67.076,74.259z M59.851,75.781
	c0.086-0.101,0.277,0.047,0.173,0.143C59.909,75.935,59.911,75.826,59.851,75.781z M48.497,75.953
	c0.559-0.168,0.816,0.647,0.401,0.773C48.505,76.843,48.198,76.269,48.497,75.953z M68.882,76.152
	c0.086-0.027,0.05,0.064,0.054,0.114c-0.025,0-0.054,0-0.084,0C68.842,76.208,68.875,76.191,68.882,76.152z M5.834,76.525
	c0.066,0.061-0.063,0.167-0.086,0.23C5.661,76.675,5.809,76.587,5.834,76.525z M0.874,76.583c0.093-0.006,0.138,0.033,0.143,0.113
	c-0.055,0.014-0.052,0.084-0.143,0.059C0.834,76.718,0.834,76.621,0.874,76.583z M3.654,76.639c0.091-0.013,0.093,0.062,0.088,0.146
	c-0.062,0.012-0.077-0.021-0.116-0.029C3.623,76.705,3.662,76.695,3.654,76.639z M5.576,76.957C5.54,77.016,5.53,77.1,5.433,77.099
	C5.469,77.041,5.478,76.953,5.576,76.957z M2.135,77.244c-0.068,0.094-0.178,0.219-0.287,0.115
	C1.827,77.173,2.016,77.21,2.135,77.244z M16.958,77.33c0.043,0.039,0.043,0.188,0,0.229c-0.099,0.021-0.12-0.032-0.171-0.059
	C16.789,77.389,16.822,77.306,16.958,77.33z M20.055,77.416c-0.009,0.211,0.229,0.529,0.028,0.66
	C19.985,77.931,20.07,77.597,20.055,77.416z M63.977,77.558c0.214-0.088,0.38,0.117,0.575,0.143
	C64.358,77.77,64.096,77.662,63.977,77.558z M28.742,78.302c0.03,0,0.058,0,0.086,0c0,0.039,0,0.076,0,0.115
	C28.733,78.446,28.735,78.378,28.742,78.302z M24.27,78.533c0,0.038,0,0.075,0,0.113c-0.075,0.01-0.123-0.01-0.115-0.086
	C24.18,78.541,24.219,78.531,24.27,78.533z M32.355,80.109c-0.377-0.02-0.73-0.936-0.458-1.261
	C32.304,78.966,32.609,79.701,32.355,80.109z M40.9,79.25c0.328,0.07,0.604,0.266,0.773,0.574c0.122,0.221,0.308,0.967,0.028,1.061
	c-0.4,0.135-0.854-0.827-0.89-1.176C40.794,79.521,40.804,79.335,40.9,79.25z M48.179,80.941c-0.274,0.055-0.593-0.16-0.8-0.344
	c-0.243-0.217-0.459-0.541-0.604-0.803c-0.005-0.033,0.007-0.051,0.028-0.059c0.268-0.059,0.624,0.303,0.86,0.518
	C47.902,80.464,48.243,80.656,48.179,80.941z M12.83,81.255c-0.377-0.428-0.149-1.299,0.572-1.203
	C13.986,80.406,13.608,81.514,12.83,81.255z M64.037,80.197c0.05,0.006,0.065,0.049,0.059,0.113c-0.029,0-0.059,0-0.085,0
	C63.995,80.25,64.026,80.234,64.037,80.197z M9.905,80.509c-0.119,0.033-0.105,0.201-0.287,0.175
	C9.551,80.563,9.73,80.478,9.905,80.509z M2.593,80.656c0.029,0,0.058,0,0.087,0C2.828,80.861,2.446,80.861,2.593,80.656z
	 M10.909,81.142c0.133-0.025,0.134,0.141,0.057,0.171C10.857,81.337,10.864,81.186,10.909,81.142z M16.356,81.341
	c0.24,0.416,0.004,0.982-0.4,1.091C15.605,82.095,15.84,81.326,16.356,81.341z M22.405,82.776c0,0.146-0.145,0.167-0.229,0.086
	C22.114,82.634,22.38,82.609,22.405,82.776z M43.279,83.062c0.053,0.053,0.116,0.186,0.059,0.259
	C43.22,83.266,43.286,83.203,43.279,83.062z M64.957,83.921c0.124,0.047,0.51,0.084,0.514,0.346c-0.066,0-0.133,0-0.199,0
	C65.209,84.109,65.093,84.003,64.957,83.921z M20.399,84.324c0.446,0.27,0.409,1.088,0.344,1.723
	c-0.034,0.332,0.024,0.693-0.286,0.688c-0.358-0.008-0.218-0.549-0.258-0.832c-0.018-0.107-0.094-0.188-0.115-0.314
	C20.004,85.126,20.16,84.416,20.399,84.324z M14.607,84.955c0.006,0.103-0.041,0.149-0.143,0.146
	C14.44,84.98,14.508,84.953,14.607,84.955z M68.651,85.843c-0.38,0.029-0.585-0.346-0.742-0.631c0.043-0.032,0.072-0.032,0.113,0
	C68.208,85.447,68.645,85.433,68.651,85.843z M48.294,85.298c0.076-0.01,0.096,0.039,0.088,0.113c-0.038,0-0.077,0-0.115,0
	C48.255,85.353,48.287,85.337,48.294,85.298z M54.633,85.585c0.021-0.064,0.162-0.015,0.143,0.059
	C54.684,85.667,54.688,85.597,54.633,85.585z M55.176,85.93c0.046-0.08,0.129,0.04,0.229,0c0.537-0.892,1.354,0.269,1.663,0.86
	c0.126,0.238,0.318,0.508,0.314,0.658c-0.003,0.334-0.327,0.477-0.603,0.287c-0.074-0.053-0.137-0.222-0.229-0.316
	c-0.428-0.438-0.865-0.594-1.063-1.203C55.369,86.141,55.291,86.017,55.176,85.93z M25.475,85.729
	c0.1-0.021,0.104,0.101,0.058,0.144C25.432,85.893,25.429,85.771,25.475,85.729z M21.03,85.93c-0.071,0.004-0.14,0.006-0.143-0.058
	C20.891,85.748,21.074,85.781,21.03,85.93z M10.937,87.477c-0.09,0.015-0.127-0.024-0.113-0.112
	C10.915,87.287,10.995,87.393,10.937,87.477z M38.003,87.335c0.101,0.031,0.199,0.064,0.172,0.229
	c-0.069-0.012-0.063,0.053-0.145,0.029C37.986,87.544,38.008,87.423,38.003,87.335z M0.386,88.71
	c-0.36-0.237-0.083-0.914,0.316-0.832C1.068,87.957,0.899,88.826,0.386,88.71z M32.184,88.194c0.091,0.265,0.443,0.415,0.399,0.718
	C32.332,88.791,32.34,88.41,32.184,88.194z M54.861,88.596c0.062,0.019,0.109,0.044,0.088,0.144c-0.038,0-0.075,0-0.114,0
	C54.825,88.673,54.838,88.63,54.861,88.596z M62.117,89.112c0.027,0,0.057,0,0.084,0c0.625,0.255,0.905,1.015,1.351,1.464
	c0.214,0.219,0.63,0.402,0.426,0.803c-0.319-0.088-0.418-0.332-0.543-0.631C63.147,90.059,62.361,89.83,62.117,89.112z
	 M61.285,89.599c0.025,0,0.057,0,0.086,0c0,0.038,0,0.076,0,0.115C61.274,89.744,61.275,89.673,61.285,89.599z M47.178,90.001
	c0.378,0.086,0.785,0.43,0.631,0.86C47.4,90.792,47.125,90.44,47.178,90.001z M23.553,90.231c-0.051-0.004-0.06,0.034-0.115,0.028
	C23.306,90.121,23.609,89.99,23.553,90.231z M5.804,90.63c0.031,0.082,0.031,0.119,0,0.201c-0.129,0.016-0.186-0.041-0.171-0.172
	C5.667,90.626,5.735,90.626,5.804,90.63z M17.676,91.148c0.068,0.018,0.119,0.111,0.057,0.172
	C17.589,91.36,17.592,91.171,17.676,91.148z M23.611,91.692c0.072,0.101,0.119,0.226,0.114,0.401
	C23.644,92.001,23.598,91.876,23.611,91.692z M23.725,92.123c0.045,0.196,0.242,0.385,0.172,0.604
	C23.663,92.701,23.773,92.332,23.725,92.123z M39.264,92.554c0.006,0.102-0.04,0.148-0.143,0.142
	c-0.033-0.032-0.033-0.103-0.028-0.172C39.178,92.49,39.19,92.516,39.264,92.554z M3.512,93.615c0.028,0,0.057,0,0.085,0
	c0.281,0.318-0.097,0.791-0.229,1.118c-0.039,0.093-0.025,0.425-0.229,0.399c-0.228-0.024-0.038-0.627,0-0.975
	C3.16,93.957,3.417,93.773,3.512,93.615z M52.34,94.246c0.099-0.021,0.101,0.102,0.056,0.143
	C52.296,94.408,52.292,94.287,52.34,94.246z M9.16,95.507c0.039,0,0.076,0,0.113,0c0.015,0.088-0.023,0.127-0.113,0.113
	C9.16,95.583,9.16,95.544,9.16,95.507z M27.28,95.822c0.115-0.027,0.115,0.172,0,0.145C27.227,95.912,27.277,95.893,27.28,95.822z
	 M36.971,13.218c0.053,0.258-0.289,0.358-0.344,0.602C36.688,13.68,36.778,13.321,36.971,13.218z M54.488,40.857
	c0.026,0.312-0.404,0.166-0.515,0.345C54.034,41.088,54.25,40.888,54.488,40.857z M11.339,68.412c0.006,0.047-0.06,0.264-0.2,0.258
	C11.124,68.501,11.308,68.535,11.339,68.412z M66.187,73.373c0.029,0.027,0.387-0.022,0.315,0.199
	C66.342,73.647,66.286,73.446,66.187,73.373z M5.318,77.244c0.044,0.094-0.167,0.178-0.143,0.344
	c-0.293,0.224-0.451,0.582-0.688,0.858c-0.032,0.179-0.07,0.351-0.286,0.345c0.146-0.569,0.686-0.748,0.859-1.291
	C5.196,77.464,5.244,77.339,5.318,77.244z M65.47,78.076c-0.175,0.088-0.303-0.043-0.373-0.146
	c-0.122-0.049-0.281-0.063-0.371-0.145c-0.063,0.021-0.183-0.027-0.061-0.027c0.096-0.023,0.091,0.045,0.145,0.059
	C65.07,77.923,65.466,77.716,65.47,78.076z M18.765,90.889c0.012,0.053-0.094,0.229-0.145,0.315c-0.04-0.017-0.07-0.043-0.085-0.086
	C18.552,90.983,18.737,91.015,18.765,90.889z M35.853,46.563c0.046,0.475-0.546,0.313-0.602,0.688
	c0.456,0.174,0.898-0.005,1.317,0.087c0.042-0.102,0.03-0.259,0.115-0.315c0.155-0.021,0.236,0.03,0.287,0.114
	c-0.008,0.174-0.152,0.299-0.315,0.23c-0.031,0.415-0.67,0.341-0.631,0.746c0.018,0.178,0.39,0.387,0.659,0.545
	c0.277,0.163,0.614,0.289,0.86,0.344c0.102,0.021,0.275,0.041,0.345,0.027c0.201-0.037,0.246-0.281,0.429-0.201
	c0.099,0.191-0.06,0.354-0.285,0.316c0.242,0.175,0.751,0.021,0.744,0.372c-0.006,0.331-0.649,0.313-1.09,0.346
	c0.049,0.353,0.316,0.486,0.401,0.802c0.121,0.053,0.249,0.098,0.4,0.114c0.071,0.083,0.109,0.197,0.23,0.229
	c0.25-0.026,0.509-0.168,0.773-0.086c0.358,0.399-0.208,1.146-0.546,1.117c-0.33-0.026-0.182-0.488-0.344-0.744
	c-0.157,0.015-0.375-0.031-0.486,0.026c0.021,0.541,0.275,0.974,0.772,1.007c0.244,0.014,0.52-0.056,0.516,0.285
	c-0.025,0-0.021,0.034-0.026,0.057c-0.499,0.177-0.684-0.438-1.291-0.342c-0.106,0.229,0.04,0.627,0.174,0.801
	c0.178,0.011,0.367-0.021,0.515,0.029c0.201,0.067,0.709,0.422,0.718,0.545c0.015,0.225-0.322,0.35-0.604,0.285
	c-0.286-0.064-0.449-0.492-0.716-0.545c-0.183,0.133-0.206,0.426-0.488,0.459c-0.18,0.893,1.104,0.557,1.176,1.29
	c-0.23,0.246-0.59,0.122-0.715-0.144c-0.058-0.115-0.022-0.244-0.087-0.344c-0.146-0.226-0.391-0.217-0.574-0.371
	c-0.626,0.393,0.071,1.119,0.488,1.26c0.473-0.049,0.908,0.179,0.974,0.631c-0.185,0.094-0.512,0.045-0.687-0.059
	c-0.144-0.08-0.174-0.299-0.316-0.43c-0.251-0.229-0.616-0.3-0.773-0.518c-0.168,0.064-0.211,0.611-0.2,0.805
	c0.031,0.605,0.795,0.814,0.831,1.404c-0.166,0.328-0.671-0.024-0.859-0.344c-0.151-0.258-0.313-0.674-0.688-0.66
	c-0.278,0.012-0.451,0.334-0.745,0.431c-0.178,0.06-0.328-0.037-0.517,0.114c0.155,0.199,0.646,0.217,0.573,0.547
	c-0.271,0.246-0.466-0.237-0.688-0.316c-0.061,0.328-0.018,0.928,0.059,1.348c0.073,0.213,0.359,0.213,0.399,0.459
	c-0.072,0.033-0.14,0.07-0.2,0.113c-0.155-0.045-0.193-0.207-0.344-0.257c-0.586,0.197-1.151,0.415-1.492,0.86
	c-0.07-0.064-0.116-0.151-0.142-0.258c-0.945-0.041-1.404-0.566-1.721-1.233c-0.063-0.073-0.161,0.024-0.202-0.028
	c-0.066-0.082,0.019-0.152-0.028-0.229c-0.079-0.082-0.293-0.032-0.373-0.115c0.045-0.231,0.332-0.224,0.516-0.313
	c0.022-0.242,0.199-0.426,0.115-0.688c-0.45-0.036-0.705,0.365-1.262,0.315c-0.088,0.027-0.083,0.146-0.173,0.172
	c-0.156-0.014-0.377,0.031-0.486-0.028c0.16-0.138,0.497-0.095,0.573-0.315c0.406-0.09,0.76-0.232,1.146-0.342
	c-0.132-0.311-0.657-0.473-0.917-0.748c-0.137,0.047-0.185,0.18-0.258,0.289c-0.002,0.115,0.115,0.112,0.085,0.256
	c-0.307,0.012-0.458,0.276-0.688,0.203c-0.491,0.194-0.109,0.813-0.146,1.434c-0.021,0.402-0.305,0.671-0.229,1.089
	c0.026,0.142,0.193,0.251,0.287,0.431c0.149,0.282,0.097,0.607,0.431,0.657c0.212-0.288-0.105-0.519-0.286-0.603
	c-0.007-0.109,0.062-0.146,0.086-0.228c0.349,0.056,0.63,0.087,0.773-0.259c-0.311-0.1-0.814-0.008-0.976-0.26
	c-0.016-0.205,0.019-0.362,0.144-0.43c0.135-0.01,0.17,0.079,0.229,0.145c0.013,0.127-0.13,0.099-0.2,0.144
	c0.49,0.199,1.116-0.147,1.521-0.315c0.144,0.133,0.02,0.322,0,0.517c-0.149,0.101-0.299,0.199-0.546,0.201
	c0.089,0.2-0.014,0.416,0.087,0.603c-0.177,0.139-0.219,0.411-0.345,0.602c0.083,0.145,0.215,0.111,0.316,0.201
	c0.257,0.228,0.168,0.609,0.313,0.947c0.086,0.033,0.26-0.037,0.373,0.027c-0.147,0.223,0.074,0.271,0.087,0.486
	c-0.041,0.024-0.092,0.043-0.087,0.113c-0.444-0.057-0.8-0.375-1.375-0.229c-0.057,0.305,0.158,0.811-0.201,0.918
	c-0.33-0.191-0.656-0.521-0.603-1.003c0.13-0.109,0.396-0.083,0.518-0.201c-0.048-0.261-0.391-0.224-0.688-0.229
	c-0.3,0.127-0.43,0.463-0.718,0.602c-0.116,0.055-0.247,0.02-0.373,0.059c-0.256,0.08-0.498,0.321-0.746,0.487
	c-0.249,0.164-0.506,0.339-0.659,0.545c-0.479,0.113-0.831,0.354-1.29,0.488c0.211,0.092,0.446,0.163,0.573,0.342
	c0.785-0.075,1.179-0.541,2.093-0.485c0.161,0.795-0.734,0.84-1.436,0.715c-0.226-0.158-0.382-0.256-0.657-0.199
	c-0.264,0.052-0.437,0.43-0.833,0.199c-0.054-0.08-0.08-0.187-0.114-0.285c-0.325-0.116-0.846,0.143-1.29,0.17
	c-0.011,0.156,0.148,0.141,0.145,0.287c-0.047,0.338-0.564,0.332-0.805,0.173c-0.242,0.196-0.79,0.09-1.03,0.286
	c0.084,0.156,0.063,0.258,0.171,0.432c0.161,0.258,0.546,0.264,0.544,0.545c-0.001,0.391-0.707,0.41-0.976,0.143
	c-0.061-0.168-0.013-0.444-0.143-0.545c-0.557-0.011-0.645,0.447-1.09,0.545c-0.058,0.056-0.015,0.137,0,0.201
	c-0.302-0.324-0.728-0.009-0.775,0.344c-0.104-0.103-0.229,0.014-0.371,0.029c-0.161,0.018-0.338-0.039-0.488,0
	c-0.267,0.067-0.317,0.336-0.516,0.4c-0.273,0.093-0.409-0.102-0.746-0.114c-0.271-0.01-0.484,0.241-0.773,0.259
	c-0.183,0.075-0.138,0.379-0.432,0.344c-0.084-0.119,0.021-0.256,0.029-0.373c-0.167-0.154-0.569-0.291-0.833-0.172
	c-0.041,0.052-0.021,0.217-0.057,0.315c-0.099,0.28-0.779,1.063-1.061,1.118c-0.235,0.045-0.387-0.089-0.401-0.26
	c-0.039-0.445,0.699-0.803,0.803-1.174c-0.139-0.426-0.778-0.594-1.319-0.433c-0.408-0.254-0.483-0.765-0.917-0.973
	c-0.141-0.069-0.319-0.052-0.459-0.144c-0.188-0.127-0.251-0.404-0.4-0.631c-0.16-0.242-0.463-0.324-0.604-0.488
	c-0.149-0.178-0.262-0.725-0.372-1.061c-0.032-0.1,0.015-0.251-0.029-0.402c-0.063-0.227-0.441-0.408-0.4-0.744
	c0.027-0.224,0.321-0.32,0.314-0.574c-0.006-0.254-0.31-0.344-0.229-0.688c0.054-0.232,0.347-0.252,0.486-0.488
	c-0.034-0.375-0.162-0.658-0.486-0.744c0.026-0.137,0.206,0.007,0.257,0.027c0.142-0.105,0.334-0.162,0.402-0.343
	c-0.57-0.655-1.043-1.298-0.89-2.581c0.052-0.416,0.295-0.863,0.518-1.146c0.34-0.436,0.852-0.549,1.262-0.832
	c-0.094-0.273-0.048-0.535-0.086-0.83c-0.035-0.27-0.208-0.502-0.201-0.774c0.009-0.299,0.209-0.519,0.172-0.803
	c-0.031-0.253-0.22-0.478-0.372-0.659c-0.228,0.072-0.314,0.335-0.401,0.545c-0.098,0.236-0.216,0.391-0.345,0.602
	c-0.086,0.144-0.108,0.48-0.4,0.431c-0.163-0.636,0.813-1.104,0.545-1.922c-0.202-0.101-0.383-0.063-0.661-0.056
	c-0.278-0.107-0.291-0.697-0.142-0.918c0.157-0.023,0.201,0.076,0.314,0.086c0.448,0.039,0.827-0.465,1.232-0.43
	c0.173,0.014,0.376,0.262,0.545,0.227c0.358-0.067,0.27-1.109,0.517-1.317c-0.03-0.16-0.171-0.211-0.229-0.343
	c-0.002-0.26-0.029-0.545,0.115-0.66c0.11-0.339-0.201-0.614-0.115-0.861c0.071-0.206,0.446-0.238,0.717-0.229
	c0.271-0.175,0.542-0.862,0.946-0.46c0.346-0.155,0.129-0.713,0.373-0.945c0.098-0.013,0.16,0.012,0.229,0.03
	c0.274-0.434,0.71-0.707,0.861-1.263c-0.337,0.083-0.36,0.482-0.861,0.402c-0.561-0.224,0-0.863,0-1.404
	c0.001-0.562-0.332-0.885-0.659-1.233c-0.169,0.137-0.336,0.277-0.486,0.429c0.152,0.929-0.557,0.228-1.062,0.287
	c-0.179,0.021-0.185,0.122-0.373,0.23c-0.334-0.031-0.626,0.052-0.918-0.029c-0.132-0.037-0.216-0.15-0.343-0.173
	c-0.121-0.019-0.259,0.035-0.373,0c-0.145-0.041-0.249-0.263-0.373-0.343c-0.271-0.175-0.596-0.155-0.746-0.373
	c-0.08-0.118-0.073-0.267-0.143-0.373c-0.181-0.275-0.608-0.498-0.688-0.918c-0.298-0.051-0.406-0.426-0.717-0.373
	c-0.218-0.353-0.624-0.397-0.946-0.43c-0.025-0.053,0.052-0.204,0.116-0.257c-0.05-0.09-0.201,0.032-0.229-0.028
	c-0.081,0.024-0.033,0.175-0.085,0.229c-0.159-0.174-0.228,0.098-0.374-0.028c-0.035-0.231,0.13-0.084,0.172-0.229
	c-0.051-0.073-0.157-0.111-0.258-0.057c-0.08,0.083,0.079,0.089,0.028,0.229C5.81,39.296,5.392,39.661,5,39.542
	c-0.058-0.102,0.037-0.104,0.027-0.23c-0.098-0.024-0.324-0.121-0.544-0.115c-0.005-0.177-0.059-0.117-0.257-0.172
	c0.026-0.15-0.098-0.15-0.116-0.258c-0.313-0.003-0.625-0.252-0.859-0.428c0.014-0.092-0.052-0.102-0.029-0.201
	c-0.217-0.298-0.759-0.572-0.917-0.947c-0.048-0.113-0.018-0.254-0.057-0.373c-0.028-0.086-0.104-0.145-0.145-0.23
	C2.061,36.486,2.063,36.376,2.02,36.3c-0.047-0.09-0.203-0.186-0.229-0.288c-0.028-0.117,0.042-0.277,0.028-0.402
	c-0.04-0.383-0.37-0.853-0.086-1.232c-0.252-0.277,0.004-0.613,0.058-0.917c0.021-0.124-0.03-0.254,0-0.375
	c0.027-0.105,0.126-0.148,0.172-0.256c0.152-0.352,0.176-0.826,0.344-1.119c0.25-0.162,0.526-0.296,0.574-0.66
	c0.318-0.169,0.762-0.331,1.003-0.602c0.563-0.031,0.821-0.378,1.375-0.23c0.094-0.06,0.151-0.153,0.288-0.17
	c0.271,0.208,0.644,0.161,0.86,0.401c0.309-0.167,0.529,0.141,0.773,0c0.073,0.098,0.17,0.174,0.201,0.315
	c0.245-0.016,0.351,0.278,0.573,0.373c0,0.127,0.066,0.226,0.114,0.373c0.197,0.154,0.425,0.373,0.688,0.373
	c0.119,0.275,0.173,0.696,0.488,0.688c-0.063,0.344,0.142,0.453,0.258,0.687c0.155-0.017,0.207-0.137,0.343-0.173
	c0.05,0.103,0.126,0.017,0.202,0.059c0.285,0.155,0.042,0.492,0.085,0.688c0.007,0.03,0.262,0.439,0.315,0.488
	c0.138,0.126,0.422,0.171,0.602,0.256c0.166,0.206,0.308,0.728,0.574,0.747c0.142,0.01,0.292-0.118,0.458-0.143
	c0.109-0.019,0.208,0.017,0.287,0c0.731-0.162,0.972-0.998,0.889-1.75c-0.218-0.051-0.429,0.161-0.573,0
	c-0.036-0.227,0.294-0.088,0.374-0.201c0.058-0.114,0-0.345,0.058-0.459c0.764-0.142-0.163-0.496-0.202-0.745
	c-0.034-0.225,0.101-0.424,0.373-0.401c0.351,0.028,0.296,0.404,0.573,0.517c0.534-0.213,0.888-0.668,1.348-1.004
	c0.36-0.264,0.721-0.51,1.061-0.802c-0.043-0.32-0.178-0.549-0.401-0.689c-0.055-0.28,0.135-0.385,0.345-0.315
	c0.065,0.078,0.104,0.184,0.115,0.315c0.24,0.065,0.377,0.233,0.545,0.373c0.388,0.117,1.07-0.129,1.548-0.115
	c0.173,0.006,0.347,0.13,0.488,0.086c0.41-0.124-0.079-0.765,0.287-0.946c0.402,0.064-0.015,0.806,0.344,0.802
	c0.186-0.001,0.107-0.227,0.287-0.287c0.154-0.021,0.244,0.024,0.346,0.057c0.245-0.11,0.042-0.37,0.084-0.63
	c0.032-0.193,0.215-0.254,0.229-0.43c0.021-0.243-0.228-0.368-0.229-0.688c0-0.307,0.247-0.674,0.487-0.688
	c0.368-0.021,0.668,0.473,0.573,0.974c-0.043,0.229-0.282,0.365-0.314,0.545c-0.034,0.188,0.065,0.311,0.057,0.401
	c-0.03,0.312-0.436,0.429-0.459,0.659c-0.021,0.219,0.245,0.542,0.345,0.631c0.16,0.142,0.423,0.241,0.659,0.2
	c0.761-0.127,0.186-1.158,0.803-1.462c0.335-0.066,0.592,0.149,0.631,0.345c0.11,0.526-0.543,0.796-0.718,1.032
	c0.38,0.538,0.828,1.007,1.378,1.376c0.139,0.028,0.271-0.049,0.344,0c0.163,0.25,0.38,0.351,0.63,0.601
	c0.511,0.512,0.556,1.392,1.463,1.262c0.534-0.077,0.778-0.711,1.232-0.86c0.276-0.09,0.476,0.008,0.631,0.173
	c0.253,0.866-0.917,0.946-0.946,1.606c-0.015,0.339,0.221,0.668,0.343,0.975c0.027,0.058,0.087,0.087,0.173,0.084
	c0.021,0.254,0.445,0.713,0.718,0.775c0.145,0.031,0.322-0.025,0.516,0c0.277,0.312,0.354,0.638,0.401,1.204
	c0.056,0.658,0.417,1.283,0.487,1.919c0.025,0.22-0.048,0.515,0.058,0.66c0.426,0.119,0.384-0.449,0.717-0.515
	c0.144,0,0.288,0,0.43,0c0.498,0.439,1.121,0.769,1.722,1.177c0.645,0.438,1.107,0.807,1.464,1.575
	c0.152,0.337,0.473,0.992,0.17,1.263c-0.225,0.198-0.667,0.242-1.003,0.142c-0.571-0.168-1.215-1.205-2.15-0.975
	c-0.237,0.06-0.345,0.231-0.517,0.402c-0.337,0.103-0.842,0.128-0.773,0.603c0.038,0.269,0.418,0.287,0.604,0.458
	c0.216,0.2,0.216,0.614,0.4,0.917c0.177,0.29,0.435,0.382,0.716,0.432c0.06-0.009,0.058-0.078,0.116-0.087
	c0.046-0.364-0.208-0.494-0.258-0.832c-0.097-0.633,0.171-1.3,0.66-1.319c0.649-0.026,0.828,0.693,1.09,1.146
	c-0.127,0.216-0.122,0.413-0.258,0.659c-0.214,0.386-0.6,0.576-0.173,1.062c0.246,0.032,0.397,0.159,0.631,0.144
	c0.125-0.01,0.217-0.102,0.344-0.116c0.138-0.013,0.285,0.07,0.43,0.059c0.351-0.031,0.593-0.539,0.86-0.26
	c-0.08,0.222-0.404,0.342-0.315,0.631c0.033,0.108,0.209,0.293,0.372,0.287C35.419,47.123,35.356,46.323,35.853,46.563z
	 M9.361,33.632c0.057-0.008,0.057,0.039,0.085,0.058c0.005-0.097,0.06-0.152-0.027-0.202C9.406,33.544,9.335,33.541,9.361,33.632z
	 M9.848,34.148c-0.063-0.079-0.092-0.194-0.086-0.344c0.039-0.029,0.107-0.027,0.115-0.086c-0.082-0.241-0.458-0.188-0.401,0.086
	C9.645,33.855,9.717,34.156,9.848,34.148z M10.192,34.435c-0.041-0.149-0.182-0.2-0.287-0.287
	C9.858,34.281,10.01,34.438,10.192,34.435z M5.088,39.395c0.095,0.099,0.168-0.021,0.258,0.114c0.018-0.125,0.156-0.131,0.145-0.286
	C5.284,39.13,5.156,39.211,5.088,39.395z M7.754,39.91c0.106,0.004,0.093,0.043,0.144-0.028c0.011,0.069,0.03,0.125,0.087,0.144
	c0.007-0.022,0.023-0.033,0.058-0.029c-0.003-0.158-0.116-0.208-0.287-0.201C7.754,39.834,7.754,39.873,7.754,39.91z M19.196,43.409
	c-0.043,0.452,0.137-0.168,0.028-0.17C19.244,43.325,19.194,43.343,19.196,43.409z M29.316,55.623
	c-0.161,0.043-0.366-0.039-0.43,0.115c0.071,0.369,0.209,0.67,0.688,0.631c0.056-0.072,0.112-0.18,0.058-0.285
	c-0.167-0.092-0.334,0.09-0.488,0c0.152-0.23,0.522-0.244,0.66-0.487C29.715,55.36,29.495,55.578,29.316,55.623z M24.758,63.824
	c0.143-0.01,0.22-0.084,0.257-0.201C24.887,63.649,24.766,63.68,24.758,63.824z M41.902,58.919c0.188-0.051,0.324-0.127,0.487-0.113
	c0.334,0.027,0.399,0.398,0.632,0.518c0.167,0.082,0.488,0.029,0.658,0.143c0.349,0.228,0.016,0.763,0.346,0.976
	c0.159,0.104,0.327,0.043,0.487,0.114c0.191,0.087,0.315,0.216,0.342,0.458c0.026,0.224-0.074,0.392-0.025,0.519
	c0.09,0.25,0.447,0.194,0.572,0.457c0.103,0.215-0.05,0.36,0,0.66c0.046,0.279,0.389,0.373,0.401,0.658
	c0.016,0.354-0.359,0.513-0.316,0.917c0.036,0.323,0.368,0.458,0.316,0.918c-0.031,0.271-0.29,0.433-0.373,0.659
	c-0.084,0.232-0.047,0.559-0.144,0.832c-0.105,0.3-0.521,0.582-0.572,0.83c-0.069,0.318,0.091,0.543-0.115,0.746
	c-0.133,0.131-0.384,0.117-0.604,0.201c-0.186,0.262-0.092,0.805-0.457,0.889c0.039,0.152,0.108,0.416,0,0.545
	c-0.255,0.201-0.472-0.146-0.689-0.143c-0.194,0-0.286,0.187-0.486,0.258c0.095,0.297,0.339,0.396,0.547,0.66
	c0.198,0.25,0.495,0.98-0.175,0.945c-0.595-0.031-0.783-0.861-1.09-1.205c-0.244,0.293-0.508,0.032-0.83,0.059
	c-0.234,0.018-0.409,0.303-0.631,0.314c-0.226,0.014-0.415-0.23-0.66-0.229c-0.263,0.002-0.372,0.223-0.631,0.258
	c-0.274-0.307-0.573-0.071-0.916-0.172c-0.205-0.061-0.24-0.362-0.401-0.432c-0.265-0.109-0.558,0.026-0.773-0.058
	c-0.157-0.058-0.301-0.276-0.487-0.373c-0.146-0.071-0.321-0.065-0.429-0.144c-0.184-0.125-0.247-0.478-0.459-0.657
	c-0.117-0.101-0.345-0.123-0.458-0.229c-0.082-0.076-0.138-0.275-0.231-0.402c-0.157-0.217-0.435-0.359-0.485-0.514
	c-0.047-0.148,0.051-0.373,0-0.519c-0.1-0.276-0.478-0.192-0.546-0.487c-0.054-0.238,0.137-0.404,0.115-0.688
	c-0.02-0.27-0.354-0.455-0.399-0.773c-0.037-0.238,0.104-0.324,0.056-0.604c0.514-0.18-0.066-0.547,0-0.916
	c0.037-0.195,0.387-0.375,0.433-0.604c0.051-0.271-0.155-0.486-0.06-0.746c0.082-0.217,0.32-0.199,0.459-0.43
	c-0.146-0.729,0.396-0.77,0.802-0.945c0.074-0.472,0.117-0.974,0.316-1.318c0.235-0.035,0.208,0.193,0.373,0.229
	c0.206-0.089,0.415-0.216,0.428-0.4c0.028-0.33-0.6-0.746-0.285-1.119c0.424,0.023,0.452,0.445,0.516,0.832
	c0.343-0.086,0.605-0.02,0.917-0.144c0.342-0.138,0.569-0.522,0.919-0.632c0.263-0.081,0.765,0.086,1.203,0.027
	c0.202-0.023,0.4-0.135,0.544-0.143c0.113-0.005,0.277,0.061,0.431,0.057c0.377-0.004,0.609-0.17,0.89-0.026
	C41.581,58.546,41.635,58.832,41.902,58.919z"/>
</svg>
