<?xml version="1.0" encoding="utf-8"?>
<!-- Generator: Adobe Illustrator 16.0.0, SVG Export Plug-In . SVG Version: 6.00 Build 0)  -->
<!DOCTYPE svg PUBLIC "-//W3C//DTD SVG 1.1//EN" "http://www.w3.org/Graphics/SVG/1.1/DTD/svg11.dtd">
<svg version="1.1" id="Layer_1" xmlns="http://www.w3.org/2000/svg" xmlns:xlink="http://www.w3.org/1999/xlink" x="0px" y="0px"
	 width="15.789px" height="18.947px" viewBox="4.998 6.601 15.789 18.947" enable-background="new 4.998 6.601 15.789 18.947"
	 xml:space="preserve">
<path d="M4.998,12.126v7.896h4.495l6.729,5.525l0.004-18.947l-6.73,5.525H4.998z M18.807,11.218
	c-0.394-0.389-1.024-0.389-1.416,0.003c-0.39,0.391-0.39,1.024,0.002,1.416v-0.003c0.863,0.865,1.396,2.05,1.396,3.367
	c0,1.315-0.531,2.496-1.394,3.36c-0.394,0.39-0.394,1.022-0.002,1.415c0.195,0.195,0.451,0.293,0.707,0.293
	c0.258,0,0.514-0.098,0.709-0.293c1.221-1.22,1.979-2.915,1.979-4.775C20.788,14.136,20.027,12.439,18.807,11.218z"/>
</svg>
