<svg xmlns="http://www.w3.org/2000/svg" xmlns:se="http://svg-edit.googlecode.com" xmlns:xlink="http://www.w3.org/1999/xlink" id="svgcontent" width="337.8" height="325.35" x="0" y="0" viewBox="0 0 337.8 325.35" overflow="hidden"><g mask="" style="pointer-events:all"><title style="pointer-events:inherit">Layer 1</title><g id="svg_1" type="text" text="Star Performer of The Year" font-size="26.645375000538113" font-family="Boston Traffic" fill="5ebf09" text-anchor="start" font-weight="normal" font-style="normal" lineHeight="1" shapeId="9" shapeVal="140" fill-opacity="1" display="null" stroke-opacity="1" stroke-width="1" stroke-dasharray="none" stroke="ull" style="pointer-events:inherit"><path id="svg_10" fill="#5ebf09" stroke="#ull" d="M30.4406,107.896C28.4282,106.571 27.2877,104.889 24.5618,104.307C22.9875,105.573 24.2139,107.051 24.4384,108.429C25.1144,109.114 25.5965,109.878 26.0105,110.613C29.8261,112.615 33.021,112.269 35.7315,109.634C36.7289,109.169 37.8233,108.665 38.5543,107.687C39.4548,107.262 40.3091,107.139 41.0379,107.124C42.2379,107.707 42.828,108.597 42.905,109.753C44.3274,110.189 46.0161,111.138 47.1545,111.294C48.4624,107.027 44.7085,102.965 40.6659,103.035C38.1493,103.103 36.1368,104.266 34.2212,105.389C33.074,106.593 31.8365,107.438 30.4406,107.896C30.4406,107.896 30.4406,107.896 30.4406,107.896M24.9296,102.856C25.8852,103.257 28.2278,104.561 29.2649,104.193C30.3152,103.028 32.2858,105.219 32.5325,101.951C32.5743,101.086 32.8716,100.569 33.072,100.091C29.5579,98.1357 26.2794,100.212 24.9296,102.856C24.9296,102.856 24.9296,102.856 24.9296,102.856M38.6025,116.376C41.9492,116.816 44.7235,116.134 46.615,113.155C45.1992,112.32 43.9024,111.776 42.8609,111.58C41.6917,112.454 40.2738,112.582 38.5498,112.1C37.68,113.982 37.0943,116.144 38.6025,116.376C38.6025,116.376 38.6025,116.376 38.6025,116.376M35.07,82.9342C35.07,82.9342 29.3854,93.5777 29.3854,93.5777C30.2542,94.1472 31.87,95.0489 32.9192,95.2952C33.8269,94.2761 34.2686,92.5731 34.9884,92.0425C34.9884,92.0425 50.7666,100.677 50.7666,100.677C50.7666,100.677 52.1464,100.938 52.1464,100.938C52.537,99.6306 53.7183,98.425 53.7061,97.2316C53.7061,97.2316 36.7931,88.0487 36.7931,88.0487C37.4198,87.3813 38.1486,85.9233 38.7977,84.7599C37.6493,83.7801 36.3852,83.1595 35.07,82.9342C35.07,82.9342 35.07,82.9342 35.07,82.9342M40.0707,75.2459C44.7274,78.0219 49.9166,79.5414 54.7709,81.913C54.7709,81.913 54.5564,82.851 54.5564,82.851C55.9162,83.3663 56.1066,85.1386 57.38,85.1378C57.7066,84.5525 58.1537,84.0532 58.5751,83.7173C59.8662,84.4564 60.9592,84.9633 61.8972,85.1778C61.8972,85.1778 64.3644,81.8464 64.3644,81.8464C62.9612,80.7546 61.7223,80.9619 60.3019,79.7669C57.7117,79.1922 54.5872,77.3271 52.0138,76.2189C50.3532,76.1253 49.1906,74.5688 47.8742,74.6299C47.8742,74.6299 42.9252,72.0089 42.9252,72.0089C42.6757,72.1037 42.366,72.1555 42.0993,72.1471C41.6956,73.2229 41.0766,73.9632 40.182,74.3252C40.2941,74.6779 40.2427,75.0049 40.0707,75.2459C40.0707,75.2459 40.0707,75.2459 40.0707,75.2459M46.0796,80.0774C44.4113,81.524 49.1278,83.7063 49.8863,85.702C52.3656,87.8341 54.2344,90.44 56.3868,92.5207C57.5224,92.3307 58.2868,90.2394 58.854,89.1893C56.1159,86.1453 52.9046,83.1274 48.9887,81.607C47.9732,81.2463 47.0091,80.5586 46.0796,80.0774C46.0796,80.0774 46.0796,80.0774 46.0796,80.0774M50.1422,62.384C48.8095,62.8849 48.3212,64.3305 47.4511,65.5373C47.4511,65.5373 57.1201,73.5976 57.1201,73.5976C59.6893,76.167 62.38,78.1523 65.2135,80.758C65.2135,80.758 67.6657,77.9863 67.6657,77.9863C63.2715,73.0116 55.9392,68.0069 51.5707,63.4502C50.9737,63.1196 50.4812,62.7827 50.1422,62.384C50.1422,62.384 50.1422,62.384 50.1422,62.384M52.2979,61.6229C53.0974,61.8362 53.6454,62.2221 54.0526,62.8789C56.0974,62.0197 57.9374,62.9559 59.6345,65.8408C58.4766,67.4847 60.8155,68.8622 62.1694,69.5659C64.451,67.4339 67.5316,73.223 70.5593,74.7157C71.2821,73.6752 72.2694,72.671 73.0477,71.6796C69.7046,69.3148 66.4277,63.7474 63.0758,65.5255C63.0758,65.5255 62.7432,65.2312 62.7432,65.2312C62.9523,62.6491 61.7861,60.728 59.3001,59.5167C56.8674,57.4633 54.3408,57.3032 52.2319,59.6869C51.6433,60.3521 51.6881,61.0834 52.2979,61.6229C52.2979,61.6229 52.2979,61.6229 52.2979,61.6229M67.2363,44.7524C66.9538,45.6751 68.7501,46.8662 69.3986,47.9671C70.5569,46.5882 72.1986,49.0796 73.2726,50.109C73.737,50.8804 73.7277,51.6671 73.2447,52.4692C73.2447,52.4692 75.6086,55.1223 75.6086,55.1223C78.4868,52.5661 78.3706,50.037 75.8225,47.0545C73.0341,43.7905 70.3784,42.8468 67.2363,44.7524C67.2363,44.7524 67.2363,44.7524 67.2363,44.7524M62.3802,49.0956C66.5934,54.9389 72.7083,61.2991 77.7164,67.0474C78.9463,66.0941 79.9112,65.1725 80.5548,64.3306C78.1346,61.7255 75.6675,58.3818 73.327,56.098C71.2832,54.0475 69.3613,51.1141 67.3891,49.4892C66.5002,48.1069 65.5164,45.9297 63.8997,47.7975C63.8997,47.7975 62.3802,49.0956 62.3802,49.0956C62.3802,49.0956 62.3802,49.0956 62.3802,49.0956M75.7479,37.7117C72.1877,39.6007 75.7245,41.9019 77.6508,44.619C77.6508,44.619 87.5569,58.4635 87.5569,58.4635C87.5569,58.4635 96.8883,52.3015 96.8883,52.3015C97.1848,51.184 95.1508,49.7228 94.8457,48.3966C92.9433,48.6567 90.5511,51.1692 88.1106,52.7179C87.7375,51.1679 86.0834,49.3466 84.9451,47.6131C85.9693,47.5221 87.3428,46.004 88.4548,45.3971C88.8797,44.4607 87.5077,43.1652 86.7119,41.9148C85.2925,41.8324 83.6402,44.3648 82.3744,44.627C82.0694,43.3009 80.2868,41.2985 79.5865,39.7989C81.4484,38.8418 83.9844,37.0439 85.6498,35.6817C85.8255,34.6498 84.3908,34.0339 84.0682,32.811C83.8618,32.7758 83.673,32.6375 83.5445,32.4563C83.5445,32.4563 75.7479,37.7117 75.7479,37.7117M90.4055,28.6741C88.9823,28.7139 88.0499,29.9217 86.8344,30.7795C86.8344,30.7795 93.3525,41.5485 93.3525,41.5485C94.9451,44.8144 96.8429,47.5675 98.6737,50.9538C98.6737,50.9538 101.895,49.1314 101.895,49.1314C99.3595,42.9972 94.0561,35.878 91.409,30.1472C90.9522,29.6403 90.5962,29.1614 90.4055,28.6741C90.4055,28.6741 90.4055,28.6741 90.4055,28.6741M92.6915,28.6563C93.378,29.1182 93.7705,29.6616 93.9417,30.4151C96.1548,30.2685 97.5898,31.7527 98.2552,35.033C96.6252,36.2103 98.3882,38.2743 99.4392,39.3804C102.291,38.1073 103.319,44.584 105.695,46.9811C106.718,46.2326 107.978,45.6046 109.037,44.9206C106.646,41.5962 105.36,35.2653 101.612,35.8552C101.612,35.8552 101.393,35.4687 101.393,35.4687C102.431,33.0954 101.954,30.8992 99.9979,28.9446C98.3663,26.211 96.0294,25.237 93.2594,26.8042C92.4864,27.2416 92.2906,27.9477 92.6915,28.6563C92.6915,28.6563 92.6915,28.6563 92.6915,28.6563M101.746,22.6662C101.746,22.6662 109.637,41.1876 109.637,41.1876C110.428,41.8929 110.337,44.8382 111.624,43.7137C112.698,42.8431 113.943,43.1087 114.513,42.3768C114.513,42.3768 110.322,32.7384 110.322,32.7384C111.352,32.6941 112.795,31.7438 114.046,31.2804C114.392,30.4039 113.412,28.8929 112.88,27.6711C111.617,27.7361 109.923,29.0376 108.834,28.9462C108.834,28.9462 107.043,24.6404 107.043,24.6404C108.085,23.1383 111.328,22.6158 113.344,21.4973C113.317,20.1368 112.951,18.9239 112.246,17.8585C109.15,18.7203 105.564,20.683 101.917,21.9462C101.917,21.9462 101.746,22.6662 101.746,22.6662M120.158,15.1774C114.03,19.1271 120.184,30.768 123.528,36.6982C123.528,36.6982 123.788,36.5386 123.788,36.5386C125.151,37.661 126.599,37.8251 128.108,37.1943C128.008,36.1393 127.544,34.4229 126.858,33.4753C124.15,33.0098 124.416,28.1919 122.642,25.0262C122.301,22.9607 121.017,21.3479 121.303,19.5501C122.674,18.7298 120.938,14.6986 120.158,15.1774C120.158,15.1774 120.158,15.1774 120.158,15.1774M128.507,32.8C128.94901,34.4458 129.30099,35.8092 130.29201,36.7384C136.226,33.16 130.737,22.3961 127.816,16.3324C126.409,15.0688 124.478,14.3584 122.765,14.5879C122.468,15.6131 123.239,17.077 123.688,18.2548C126.348,18.8132 126.409,23.6832 127.741,26.6778C127.918,28.7173 130.213,31.5637 128.507,32.8C128.507,32.8 128.507,32.8 128.507,32.8M135.198,11.1087C133.832,10.7068 132.57201,11.5674 131.151,12.0076C131.151,12.0076 134.022,24.2637 134.022,24.2637C134.528,27.8619 135.48199,31.0667 136.17599,34.853C136.17599,34.853 139.80299,34.1152 139.80299,34.1152C139.287,27.4978 136.444,19.0881 135.69701,12.8199C135.41901,12.1966 135.229,11.6312 135.198,11.1087C135.198,11.1087 135.198,11.1087 135.198,11.1087M137.377,11.7982C137.888,12.4497 138.093,13.0877 138.02299,13.8573C140.173,14.4017 141.07899,16.2567 140.698,19.5821C138.784,20.1981 139.823,22.7058 140.481,24.0826C143.586,23.753 142.563,30.2303 144.082,33.2446C145.286,32.8486 146.67799,32.6408 147.897,32.3174C146.64999,28.4169 147.383,21.9985 143.636,21.4013C143.636,21.4013 143.548,20.9661 143.548,20.9661C145.269,19.0298 145.494,16.7937 144.237,14.3302C143.53,11.2262 141.60899,9.57781 138.49001,10.2123C137.619,10.3894 137.215,11.0004 137.377,11.7982C137.377,11.7982 137.377,11.7982 137.377,11.7982M161.98599,7.34364C160.733,7.45697 158.375,6.85278 158.48801,8.10592C158.48801,8.10592 160.08701,27.4323 160.08701,27.4323C160.214,28.8329 160.461,29.9253 160.756,30.7161C162.09599,30.7436 163.27499,30.6369 164.207,30.2554C164.181,28.3255 163.7,26.2882 163.854,24.7135C163.854,24.7135 161.98599,7.34364 161.98599,7.34364M147.785,11.3777C149.907,15.1246 151.23199,19.9097 153.267,23.5158C154.11,26.2636 155.349,28.4554 156.125,31.2836C158.10899,31.0299 157.239,28.8047 157.735,26.9019C158.741,25.6962 157.69701,23.1895 158.06599,21.5211C157.625,19.1086 157.633,16.7297 157.446,14.6657C155.68401,14.0819 156.339,17.2183 155.63499,18.471C154.81799,18.4707 154.69099,17.0701 154.48399,16.42C153.22501,14.0071 152.26801,10.8236 151.291,8.23659C150.045,8.42364 148.229,8.06764 147.632,8.86478C147.632,8.86478 147.785,11.3777 147.785,11.3777M148.632,19.1044C147.95399,22.287 149.265,27.7422 149.323,31.6758C149.886,32.9626 151.649,31.9114 153.129,31.8518C153.46001,27.2885 150.855,23.1394 149.416,19.5537C149.255,19.4196 148.485,19.1177 148.632,19.1044C148.632,19.1044 148.632,19.1044 148.632,19.1044M168.819,6.83955C164.83701,6.217 166.28799,10.1791 166.201,13.5087C166.201,13.5087 165.82899,30.5282 165.82899,30.5282C165.82899,30.5282 176.992,31.1907 176.992,31.1907C177.899,30.4741 177.14799,28.0851 177.698,26.8408C176.02,25.9084 172.599,26.4852 169.717,26.2616C170.34801,24.7973 170.116,22.3479 170.244,20.2782C171.118,20.8193 173.12801,20.4277 174.382,20.6086C175.283,20.1139 174.96201,18.2545 175.07401,16.7767C173.98801,15.8597 171.147,16.896 169.97701,16.347C170.528,15.1028 170.302,12.4314 170.64,10.8114C172.70399,11.1616 175.812,11.243 177.961,11.1512C178.72099,10.4306 177.94099,9.07751 178.416,7.9053C178.272,7.75345 178.20399,7.52954 178.21001,7.30758C178.21001,7.30758 168.819,6.83955 168.819,6.83955M186.16701,8.32445C185.006,7.49978 183.535,7.90328 182.048,7.85682C182.048,7.85682 180.772,20.38 180.772,20.38C180.07899,23.9467 179.937,27.2876 179.362,31.0938C179.362,31.0938 183.03101,31.5768 183.03101,31.5768C184.698,25.1521 184.74699,16.2748 186.082,10.1049C186.022,9.42517 186.026,8.82846 186.16701,8.32445C186.16701,8.32445 186.16701,8.32445 186.16701,8.32445M188.00301,9.68602C188.27299,10.4681 188.25999,11.1382 187.94299,11.8431C189.799,13.0579 190.052,15.1068 188.60899,18.127C186.59801,18.0863 186.76401,20.7956 186.938,22.3116C189.981,23.0109 186.905,28.8021 187.36,32.1468C188.627,32.1643 190.01199,32.4212 191.269,32.5121C191.36,28.4181 194.14301,22.5883 190.795,20.8037C190.795,20.8037 190.853,20.3634 190.853,20.3634C193.11,19.0929 194.05099,17.0517 193.66499,14.3134C194.007,11.1483 192.72701,8.96412 189.571,8.5487C188.69099,8.43277 188.10899,8.87882 188.00301,9.68602C188.00301,9.68602 188.00301,9.68602 188.00301,9.68602M208.142,12.2874C200.85201,12.2627 199.673,25.3772 199.248,32.1721C199.248,32.1721 199.55299,32.1799 199.55299,32.1799C200.084,33.8635 201.21001,34.7901 202.819,35.0826C203.30901,34.1434 203.855,32.4515 203.79601,31.2827C201.778,29.4175 204.625,25.5217 204.86099,21.9004C205.7,19.9825 205.502,17.9303 206.72099,16.5788C208.31799,16.6375 209.05701,12.3108 208.142,12.2874C208.142,12.2874 208.142,12.2874 208.142,12.2874M205.547,31.6148C205.021,33.2354 204.57401,34.5708 204.899,35.89C211.82401,36.1208 213.08299,24.1038 213.936,17.4275C213.444,15.6013 212.211,13.9537 210.64999,13.2134C209.842,13.9111 209.692,15.5593 209.427,16.7916C211.354,18.7083 208.752,22.8259 208.239,26.063C207.27699,27.87 207.651,31.5069 205.547,31.6148C205.547,31.6148 205.547,31.6148 205.547,31.6148M219.423,15.7072C219.423,15.7072 211.972,34.4101 211.972,34.4101C212.036,35.4679 209.896,37.4933 211.601,37.6021C212.97701,37.7413 213.674,38.8073 214.593,38.6893C214.593,38.6893 218.411,28.8972 218.411,28.8972C219.173,29.5916 220.867,29.9341 222.08099,30.4871C222.944,30.1084 223.314,28.3459 223.798,27.1046C222.855,26.2607 220.73599,25.9905 220.028,25.1583C220.028,25.1583 221.791,20.8408 221.791,20.8408C223.589,20.509 226.258,22.4237 228.47701,23.0503C229.416,22.0662 230.011,20.9477 230.26199,19.6948C227.45799,18.1249 223.53101,16.9908 220.052,15.3168C220.052,15.3168 219.423,15.7072 219.423,15.7072M249.634,29.5465C249.634,29.5465 238.987,23.8674 238.987,23.8674C238.418,24.7365 237.517,26.3528 237.272,27.4021C238.291,28.3093 239.994,28.7501 240.52499,29.4697C240.52499,29.4697 231.899,45.2523 231.899,45.2523C231.899,45.2523 231.638,46.6323 231.638,46.6323C232.946,47.0222 234.15199,48.2028 235.34599,48.19C235.34599,48.19 244.52,31.2722 244.52,31.2722C245.188,31.8986 246.646,32.6266 247.81,33.2752C248.789,32.1262 249.409,30.8618 249.634,29.5465C249.634,29.5465 249.634,29.5465 249.634,29.5465M253.411,32.0836C253.411,32.0836 246.14799,42.267 246.14799,42.267C244.412,45.2107 241.49699,48.4047 240.13901,51.0729C240.888,52.0618 242.437,52.4394 243.20399,53.5316C245.25101,52.4462 246.685,48.6508 249.007,46.0337C250.229,46.9965 251.48399,44.3456 251.87,43.1666C251.40401,41.0159 255.80701,37.5198 257.181,34.3182C255.95,32.9853 254.823,32.2719 253.411,32.0836C253.411,32.0836 253.411,32.0836 253.411,32.0836M260.616,36.7681C258.30301,38.4818 256.43799,42.243 254.547,44.8943C253.22099,43.9487 252.672,46.3754 251.658,47.2881C251.77,47.6408 251.907,47.83 252.209,48.0449C252.209,48.0449 246.888,55.8867 246.888,55.8867C246.888,55.8867 250.44299,58.4226 250.44299,58.4226C250.44299,58.4226 256.254,50.0212 256.254,50.0212C256.254,50.0212 264.11099,39.2609 264.11099,39.2609C264.11099,39.2609 260.616,36.7681 260.616,36.7681C260.616,36.7681 260.616,36.7681 260.616,36.7681M269.07199,42.9554C266.414,39.9259 264.98901,43.8976 262.78799,46.3979C262.78799,46.3979 251.597,59.226 251.597,59.226C251.597,59.226 259.74301,66.8875 259.74301,66.8875C260.89801,66.9187 261.85199,64.6028 263.07199,64.0006C262.38101,62.2091 259.38501,60.4599 257.31601,58.4417C258.73801,57.7216 260.13,55.6925 261.55499,54.1857C261.879,55.1614 263.673,56.1483 264.51901,57.0907C265.52802,57.2885 266.47299,55.655 267.50699,54.5927C267.26001,53.1924 264.41501,52.1677 263.86801,50.9964C265.08899,50.3941 266.62701,48.1983 267.92499,47.1716C269.285,48.763 271.61899,50.8167 273.328,52.1237C274.37201,52.057 274.64099,50.519 275.75699,49.9234C275.74399,49.7145 275.83499,49.4989 275.98099,49.3322C275.98099,49.3322 269.07199,42.9554 269.07199,42.9554M285.44101,59.3388C284.51199,58.4782 283.233,55.3851 282.16199,56.9808C282.16199,56.9808 275.72198,66.7637 275.72198,66.7637C274.914,69.6925 270.51001,72.2858 267.978,74.4489C267.896,75.4924 269.427,76.7154 270.284,77.8328C272.35699,76.841 274.634,73.9228 276.828,72.7305C279.38901,68.2072 282.51999,63.7812 285.44101,59.3388C285.44101,59.3388 285.44101,59.3388 285.44101,59.3388M288.90201,63.3911C287.104,63.5645 284.89301,64.9655 283.13501,65.2996C281.74301,66.975 281.186,68.7161 279.69,70.3833C280.73199,71.1478 281.96399,69.5123 283.095,69.8113C285.54599,68.0093 288.685,68.1514 291.15302,66.1407C290.54599,65.2003 289.254,64.2587 288.90201,63.3911C288.90201,63.3911 288.90201,63.3911 288.90201,63.3911M295.29901,70.8133C293.45901,67.228 291.10999,70.7334 288.367,72.6229C288.367,72.6229 274.39001,82.3413 274.39001,82.3413C274.39001,82.3413 280.42599,91.755 280.42599,91.755C281.539,92.0665 283.02802,90.0524 284.358,89.7652C284.12299,87.8595 281.64301,85.4336 280.12799,82.9725C281.68399,82.6203 283.526,80.9909 285.27499,79.8761C285.35199,80.9015 286.85199,82.2953 287.44299,83.4154C288.37399,83.8529 289.68799,82.4984 290.94901,81.7196C291.04999,80.3015 288.54001,78.6151 288.29599,77.346C289.625,77.0588 291.65201,75.3034 293.16101,74.6235C294.09201,76.4981 295.85599,79.0581 297.19699,80.7417C298.22501,80.9314 298.85999,79.5051 300.08701,79.199C300.125,78.9931 300.26599,78.8062 300.44901,78.6802C300.44901,78.6802 295.29901,70.8133 295.29901,70.8133M304.76599,86.051C300.229,89.0194 296.58899,93.0174 292.32901,96.3407C292.32901,96.3407 291.57999,95.7368 291.57999,95.7368C290.521,96.733 288.845,96.1273 288.28699,97.2722C288.67099,97.8223 288.923,98.443 289.04001,98.9689C287.81,99.8054 286.875,100.566 286.271,101.315C286.271,101.315 288.18399,104.992 288.18399,104.992C289.78,104.21 290.13699,103.006 291.83401,102.253C293.48599,100.177 296.53299,98.1859 298.65601,96.3589C299.46799,94.9073 301.37799,94.5447 301.89899,93.3348C301.89899,93.3348 306.42401,90.0356 306.42401,90.0356C306.448,89.7698 306.53699,89.4687 306.66199,89.2327C305.87201,88.3983 305.478,87.5173 305.54599,86.5546C305.17801,86.5008 304.90799,86.3112 304.76599,86.051C304.76599,86.051 304.76599,86.051 304.76599,86.051M297.789,89.3337C297.22,87.2002 293.19101,90.4826 291.065,90.2895C288.06299,91.5833 284.901,92.1206 282.08701,93.143C281.76001,94.247 283.30399,95.8508 284,96.8209C287.936,95.6943 292.056,94.131 295.13901,91.2779C295.90799,90.5233 296.94901,89.9582 297.789,89.3337C297.789,89.3337 297.789,89.3337 297.789,89.3337M312.086,101.064C312.22,99.6469 311.134,98.5743 310.431,97.2633C310.431,97.2633 298.948,102.42 298.948,102.42C295.51199,103.603 292.54901,105.151 288.96399,106.556C288.96399,106.556 290.38199,109.975 290.38199,109.975C296.77802,108.206 304.491,103.81 310.50101,101.881C311.06,101.489 311.57901,101.194 312.086,101.064C312.086,101.064 312.086,101.064 312.086,101.064M311.82599,103.336C311.28299,103.961 310.69501,104.284 309.927,104.362C309.802,106.577 308.15399,107.82 304.81799,108.081C303.84799,106.319 301.58401,107.818 300.358,108.726C301.27399,111.711 294.72101,111.942 292.052,114.009C292.67099,115.115 293.14099,116.443 293.69,117.577C297.28101,115.609 303.72101,115.104 303.59201,111.312C303.59201,111.312 304.00299,111.142 304.00299,111.142C306.23199,112.462 308.47,112.256 310.64801,110.552C313.56,109.266 314.81299,107.065 313.59399,104.125C313.254,103.304 312.577,103.024 311.82599,103.336C311.82599,103.336 311.82599,103.336 311.82599,103.336" style="pointer-events:inherit"/></g><g id="svg_2" type="text" text="Company Name" font-size="39.47798327483796" font-family="Alex Brush" fill="5ebf09" text-anchor="start" font-weight="normal" font-style="normal" lineHeight="1" shapeId="0" shapeVal="0" fill-opacity="1" display="null" stroke-opacity="1" stroke-width="1" stroke-dasharray="none" stroke="ull" style="pointer-events:inherit"><path id="svg_5" fill="#5ebf09" stroke="#ull" d="M66.78350013427735,259.3729997558594 C60.61510013427734,259.3729997558594 56.644100134277345,254.72739975585938 58.167000134277345,248.25049975585938 C60.248800134277346,239.51831975585938 69.17380013427734,231.40296975585937 80.08420013427735,231.15237975585939 C84.63340013427734,231.05599975585938 88.08390013427734,233.19566975585937 88.08390013427734,237.07021975585937 C88.08390013427734,238.72798975585937 87.60200013427735,240.15439975585937 86.61890013427734,241.36879975585938 C84.20930013427734,244.35669975585938 81.31790013427735,245.84099975585937 77.98310013427735,245.84099975585937 C75.22650013427734,245.84099975585937 72.37360013427735,244.45309975585937 72.37360013427735,242.0049997558594 C72.37360013427735,240.59779975585937 73.27960013427735,239.20989975585937 75.09160013427734,237.82199975585937 C75.41930013427734,237.59067975585938 75.66990013427734,237.4557497558594 75.82410013427734,237.4557497558594 C75.97830013427733,237.4557497558594 76.05540013427733,237.51357975585938 76.05540013427733,237.62923975585937 C76.05540013427733,237.87982975585936 75.84340013427735,238.09186975585936 75.41930013427734,238.24607975585937 C73.93500013427735,239.42193975585937 73.20250013427734,240.63629975585937 73.20250013427734,241.85079975585938 C73.20250013427734,243.73979975585937 75.26510013427735,244.93499975585937 77.34690013427735,244.93499975585937 C79.93000013427735,244.93499975585937 82.35880013427735,243.70129975585937 84.65270013427735,241.21459975585938 C85.82850013427733,239.92309975585937 86.42610013427733,238.43883975585936 86.42610013427733,236.76179975585939 C86.42610013427733,233.44626975585936 83.80450013427733,231.88487975585937 80.27690013427734,231.90415975585938 C77.69390013427734,231.90415975585938 75.11090013427734,232.55954975585936 72.48930013427734,233.83178975585938 C69.28940013427734,235.39317975585936 66.37870013427735,237.80271975585939 63.79570013427734,241.07969975585937 C61.212600134277345,244.35669975585938 59.901800134277345,247.49869975585938 59.901800134277345,250.52509975585937 C59.901800134277345,255.28639975585938 63.71850013427735,258.0235997558594 68.42200013427734,258.0235997558594 C73.81940013427734,258.0235997558594 79.04330013427735,255.22859975585936 81.81900013427735,251.99009975585938 C82.24310013427734,251.50819975585938 82.57080013427733,251.27689975585938 82.80210013427734,251.27689975585938 C82.95640013427735,251.27689975585938 83.03350013427735,251.41179975585936 83.03350013427735,251.68169975585937 C83.03350013427735,251.95159975585938 82.89850013427734,252.25999975585938 82.60940013427734,252.54909975585937 C79.69870013427735,255.6333997558594 72.58570013427735,259.3729997558594 66.78350013427735,259.3729997558594 C66.78350013427735,259.3729997558594 66.78350013427735,259.3729997558594 66.78350013427735,259.3729997558594 M87.60200013427735,256.8862997558594 C85.79000013427734,256.8862997558594 84.88400013427734,255.69119975585937 84.88400013427734,254.16839975585938 C84.88400013427734,252.58769975585938 86.04060013427734,250.37089975585937 88.33450013427733,247.51799975585936 C90.62830013427734,244.6650997558594 92.49820013427734,243.21939975585937 93.92460013427734,243.21939975585937 C95.83300013427734,243.21939975585937 96.23780013427734,244.95429975585938 95.73660013427735,246.78549975585938 C96.64260013427734,247.09389975585938 97.41360013427735,246.76619975585936 98.64730013427734,246.14939975585938 C98.62800013427734,246.59269975585937 97.58710013427734,247.24809975585939 95.52450013427735,248.0769997558594 C95.56310013427733,248.19269975585937 95.58240013427735,248.30829975585937 95.58240013427735,248.44329975585939 C95.58240013427735,249.36849975585938 94.69570013427735,250.89139975585937 92.92220013427735,253.05029975585938 C90.84040013427735,255.59479975585938 89.06700013427735,256.8862997558594 87.60200013427735,256.8862997558594 C87.60200013427735,256.8862997558594 87.60200013427735,256.8862997558594 87.60200013427735,256.8862997558594 M92.99930013427735,246.38069975585938 C91.45720013427734,245.99519975585937 86.38750013427735,252.70329975585938 86.73450013427734,254.20689975585938 C86.73450013427734,255.20929975585938 87.04290013427735,255.71049975585936 87.67910013427735,255.71049975585936 C88.81640013427734,255.71049975585936 90.24280013427735,254.68879975585938 91.97770013427734,252.62619975585937 C93.71260013427735,250.56369975585937 94.58000013427734,249.09869975585937 94.58000013427734,248.21199975585938 C94.15590013427735,247.96139975585936 93.63550013427735,247.36379975585936 92.99930013427735,246.38069975585938 C92.99930013427735,246.38069975585938 92.99930013427735,246.38069975585938 92.99930013427735,246.38069975585938 M97.77990013427734,256.8477997558594 C97.12450013427734,256.8862997558594 96.48840013427734,256.03819975585935 96.50760013427734,255.42129975585937 C96.50760013427734,254.93939975585937 97.20160013427734,253.2044997558594 98.57020013427734,250.21669975585937 C98.57020013427734,250.21669975585937 96.19920013427733,252.70329975585938 96.19920013427733,252.70329975585938 C95.62090013427735,253.28159975585936 95.27390013427734,253.57079975585938 95.11970013427734,253.57079975585938 C94.71490013427734,253.45509975585938 94.94630013427735,253.01179975585939 95.21610013427734,252.74189975585938 C98.06900013427735,249.85039975585937 98.64730013427734,248.86739975585937 101.59660013427734,244.60729975585937 C102.04000013427734,243.9518997558594 103.62060013427734,243.64349975585938 103.62060013427734,244.76149975585938 C103.75560013427734,244.95429975585938 98.97500013427734,252.78049975585938 99.18700013427734,253.0888997558594 C100.74840013427735,251.31549975585938 108.72880013427735,243.54709975585936 110.44450013427735,243.81689975585937 C111.00350013427735,243.79769975585938 111.71670013427735,244.22179975585937 111.71670013427735,244.70369975585936 C111.87090013427735,244.87709975585938 108.36260013427734,250.77569975585936 108.51680013427735,250.92989975585937 C111.42750013427734,248.48179975585938 112.89250013427734,247.24809975585939 112.89250013427734,247.2095997558594 C115.37920013427734,245.28199975585937 117.11410013427735,244.33739975585937 118.23210013427735,244.33739975585937 C118.81040013427734,244.33739975585937 119.54290013427735,244.78079975585936 119.52360013427734,245.32049975585937 C119.52360013427734,245.3782997558594 118.67550013427734,246.47709975585937 116.95980013427734,248.65529975585937 C115.24430013427734,250.83349975585938 114.26120013427735,252.60699975585936 114.08770013427734,254.01409975585938 C113.95270013427735,255.07429975585939 114.49250013427735,255.42129975585937 115.62980013427735,255.42129975585937 C116.24660013427734,255.42129975585937 117.17190013427734,254.99719975585938 118.36700013427735,254.14909975585937 C119.56220013427735,253.30089975585938 120.75730013427734,252.12509975585937 122.01030013427734,250.6985997558594 C122.47290013427734,250.15889975585938 122.81990013427735,249.9082997558594 122.99340013427734,249.9082997558594 C123.51380013427735,249.9082997558594 123.14760013427734,250.40949975585937 122.87770013427735,250.73719975585936 C121.56690013427735,252.27929975585937 120.19830013427735,253.60929975585938 118.71400013427734,254.68879975585938 C117.22970013427734,255.76829975585937 116.07310013427734,256.32729975585937 115.22500013427734,256.32729975585937 C113.43230013427734,256.32729975585937 112.54560013427735,255.49839975585937 112.54560013427735,253.84069975585936 C112.54560013427735,251.41179975585936 115.10930013427735,247.40229975585936 116.43940013427735,245.80239975585937 C113.06600013427735,247.42159975585938 107.57230013427734,252.5683997558594 106.33860013427734,256.5778997558594 C105.85670013427735,257.19469975585935 104.52660013427734,256.86699975585935 104.71940013427735,255.8260997558594 C105.31690013427735,252.4912997558594 107.68790013427734,248.59749975585936 109.05650013427734,245.55179975585938 C105.14340013427734,248.01919975585938 102.52190013427735,251.1419997558594 99.84240013427734,254.51529975585936 C98.60880013427735,256.05739975585936 97.93410013427734,256.8477997558594 97.77990013427734,256.8477997558594 C97.77990013427734,256.8477997558594 97.77990013427734,256.8477997558594 97.77990013427734,256.8477997558594 M119.13810013427734,264.3076997558594 C117.80800013427735,263.8450997558594 117.30680013427734,262.5149997558594 117.30680013427734,260.7415997558594 C117.30680013427734,258.98739975585937 118.77180013427734,255.96109975585938 121.68260013427735,251.66239975585938 C124.59330013427734,247.36379975585936 126.57880013427734,244.99279975585938 127.69680013427734,244.64579975585937 C128.66060013427733,244.35669975585938 128.79550013427735,244.78079975585936 128.87270013427735,246.03369975585937 C129.20030013427734,245.53249975585936 131.91830013427733,244.89639975585936 132.63150013427736,244.89639975585936 C134.46280013427736,244.89639975585936 136.13980013427732,246.03369975585937 136.13980013427732,247.8842997558594 C136.13980013427732,250.02389975585936 134.90620013427736,252.04799975585937 132.47730013427736,253.9562997558594 C130.04850013427733,255.86469975585936 127.94740013427734,256.80919975585937 126.15470013427735,256.80919975585937 C123.51380013427735,256.80919975585937 123.12830013427734,256.67429975585935 121.77890013427735,255.1513997558594 C120.93080013427735,255.80679975585937 118.81040013427734,260.08619975585935 118.81040013427734,261.8595997558594 C118.81040013427734,262.3607997558594 119.06100013427735,263.01619975585936 119.56220013427735,263.8450997558594 C119.69710013427735,264.07639975585937 119.27300013427734,264.3076997558594 119.13810013427734,264.3076997558594 C119.13810013427734,264.3076997558594 119.13810013427734,264.3076997558594 119.13810013427734,264.3076997558594 M122.35720013427735,254.28399975585938 C122.35720013427735,255.34419975585936 124.47760013427734,255.71049975585936 125.63420013427735,255.71049975585936 C127.07990013427734,255.71049975585936 128.87270013427735,254.88159975585938 130.97380013427733,253.24309975585936 C133.07490013427736,251.60459975585937 134.13510013427734,249.67699975585938 134.13510013427734,247.49869975585938 C134.13510013427734,246.4963997558594 133.55680013427735,245.99519975585937 132.36170013427733,245.99519975585937 C131.16650013427733,245.99519975585937 130.08710013427736,246.24579975585937 129.12320013427734,246.74699975585938 C128.71840013427735,246.6890997558594 121.89460013427734,253.51299975585937 122.35720013427735,254.28399975585938 C122.35720013427735,254.28399975585938 122.35720013427735,254.28399975585938 122.35720013427735,254.28399975585938 M138.83820013427734,257.0019997558594 C137.35420013427733,257.0019997558594 135.79290013427735,255.7875997558594 135.79290013427735,254.24549975585938 C135.79290013427735,252.31779975585937 137.12290013427736,250.02389975585936 139.80220013427734,247.36379975585936 C142.48220013427735,244.70369975585936 144.94920013427736,243.3542997558594 147.18520013427735,243.3542997558594 C148.45720013427734,243.3542997558594 148.93920013427734,244.08679975585937 149.24820013427734,245.01209975585937 C149.98020013427734,244.64579975585937 150.90520013427735,245.24339975585937 151.02120013427736,245.78309975585938 C151.02120013427736,245.91809975585937 150.21120013427736,247.19029975585937 148.57320013427733,249.59989975585938 C146.93420013427735,252.00939975585936 146.12520013427735,253.68639975585938 146.12520013427735,254.63099975585936 C146.12520013427735,255.28639975585938 146.51020013427734,255.7875997558594 147.03120013427736,255.7875997558594 C148.39920013427735,255.7875997558594 150.88620013427735,253.51299975585937 154.52920013427735,248.98299975585937 C154.68320013427734,248.77099975585938 154.99220013427734,248.73239975585938 154.97320013427736,249.13719975585937 C154.97320013427736,249.32999975585938 154.85720013427735,249.58059975585937 154.60620013427734,249.9082997558594 C151.23320013427735,254.3996997558594 148.66920013427733,256.65499975585936 146.91520013427734,256.65499975585936 C144.85320013427736,256.65499975585936 144.13920013427736,254.63099975585936 144.66020013427735,252.58769975585938 C143.34920013427734,253.87919975585936 140.28420013427734,257.0019997558594 138.83820013427734,257.0019997558594 C138.83820013427734,257.0019997558594 138.83820013427734,257.0019997558594 138.83820013427734,257.0019997558594 M137.45060013427735,254.70809975585937 C137.45060013427735,255.65259975585937 137.77830013427734,256.1344997558594 138.43370013427733,256.1344997558594 C139.95620013427734,256.1344997558594 142.17320013427735,254.5538997558594 144.66020013427735,251.12269975585937 C144.66020013427735,251.12269975585937 148.84320013427734,245.35909975585938 148.84320013427734,245.35909975585938 C148.63120013427735,244.99279975585938 148.30320013427735,244.79999975585937 147.82120013427735,244.79999975585937 C146.22120013427735,244.79999975585937 144.08120013427734,246.03369975585937 141.42120013427734,248.5203997558594 C138.76120013427735,251.00699975585937 137.45060013427735,253.06959975585937 137.45060013427735,254.70809975585937 C137.45060013427735,254.70809975585937 137.45060013427735,254.70809975585937 137.45060013427735,254.70809975585937 M154.04720013427735,256.8477997558594 C153.19920013427736,256.8477997558594 152.71720013427733,256.01889975585937 152.77520013427733,255.13219975585938 C152.87220013427736,253.51299975585937 154.04720013427735,251.64309975585937 154.60620013427734,250.21669975585937 C154.60620013427734,250.21669975585937 152.23520013427736,252.70329975585938 152.23520013427736,252.70329975585938 C151.65720013427733,253.28159975585936 151.31020013427735,253.57079975585938 151.15620013427736,253.57079975585938 C150.75120013427733,253.45509975585938 150.98220013427735,253.01179975585939 151.25220013427736,252.74189975585938 C154.24020013427736,249.73479975585937 154.51020013427734,249.11789975585938 157.99920013427734,244.79999975585937 C158.71220013427734,243.91329975585938 160.40920013427734,244.58799975585939 159.69520013427734,245.62889975585938 C157.40120013427736,248.96369975585938 155.91720013427732,251.41179975585936 155.43520013427735,253.0888997558594 C161.56520013427735,246.95899975585937 165.28520013427735,243.89409975585937 166.59620013427735,243.89409975585937 C167.57920013427736,243.68199975585938 168.44720013427735,244.33739975585937 167.98420013427733,245.24339975585937 C166.82820013427735,247.47949975585936 162.25920013427736,251.27689975585938 162.25920013427736,254.49609975585938 C162.25920013427736,255.34419975585936 162.45220013427735,255.7489997558594 162.81820013427733,255.7489997558594 C163.85920013427733,255.7489997558594 166.63520013427734,253.60929975585938 169.12120013427733,250.60219975585937 C169.52620013427733,250.12029975585938 169.75820013427733,249.9082997558594 169.83520013427736,249.9082997558594 C170.10520013427734,250.33239975585937 169.87320013427734,250.81429975585937 169.41120013427735,251.31549975585938 C166.15320013427734,255.0357997558594 163.82020013427734,256.8862997558594 162.45220013427735,256.8862997558594 C161.16020013427735,256.8862997558594 160.52420013427735,256.19239975585936 160.52420013427735,254.76589975585938 C160.50520013427735,251.70099975585939 163.24220013427734,248.13489975585938 164.63020013427735,245.76389975585937 C161.23720013427734,248.17339975585938 158.51920013427736,251.54679975585938 156.05220013427734,254.65029975585938 C154.89620013427736,256.1152997558594 154.22120013427735,256.8477997558594 154.04720013427735,256.8477997558594 C154.04720013427735,256.8477997558594 154.04720013427735,256.8477997558594 154.04720013427735,256.8477997558594 M169.19920013427733,264.90529975585935 C167.54120013427735,264.9245997558594 165.97920013427733,263.1510997558594 166.07620013427734,261.3969997558594 C167.32920013427736,262.9775997558594 168.38920013427733,263.7486997558594 169.35320013427733,263.7486997558594 C170.85620013427734,263.7486997558594 172.45620013427734,262.53429975585937 174.21020013427736,260.1632997558594 C176.06120013427736,257.6380997558594 178.04620013427734,253.43589975585937 179.43420013427735,249.8696997558594 C179.43420013427735,249.8696997558594 173.61320013427735,254.3996997558594 173.61320013427735,254.3996997558594 C171.82020013427734,255.80679975585937 170.39420013427736,256.50079975585936 169.31420013427734,256.50079975585936 C168.21620013427736,256.50079975585936 167.42520013427733,255.57549975585937 167.42520013427733,254.5538997558594 C167.42520013427733,253.41659975585938 168.38920013427733,251.56599975585937 170.33620013427733,248.98299975585937 C172.28320013427734,246.39999975585937 173.72920013427733,245.08919975585937 174.61520013427733,245.08919975585937 C175.50220013427733,245.08919975585937 175.94520013427734,245.39759975585937 175.94520013427734,245.99519975585937 C175.94520013427734,246.22649975585938 174.78920013427734,247.57579975585938 172.45620013427734,250.06249975585936 C170.12420013427734,252.54909975585937 168.96720013427733,254.24549975585938 168.96720013427733,255.11289975585936 C168.96720013427733,255.45989975585937 169.19920013427733,255.6333997558594 169.64220013427735,255.6333997558594 C171.91720013427735,255.6333997558594 179.03020013427735,249.2335997558594 180.45620013427734,247.76859975585938 C180.99620013427733,247.22889975585937 182.05620013427733,245.35909975585938 183.32820013427735,245.35909975585938 C183.92620013427734,245.35909975585938 184.23420013427733,245.64819975585937 184.23420013427733,246.22649975585938 C184.23420013427733,246.32289975585937 183.63720013427735,247.24809975585939 182.46120013427733,249.02159975585937 C181.28520013427735,250.79499975585938 180.66820013427736,251.73949975585938 180.61020013427733,251.83589975585937 C179.80120013427734,253.41659975585938 178.62520013427735,255.76829975585937 176.85120013427735,258.73679975585935 C174.36520013427733,262.88129975585935 171.74320013427734,264.8666997558594 169.19920013427733,264.90529975585935 C169.19920013427733,264.90529975585935 169.19920013427733,264.90529975585935 169.19920013427733,264.90529975585935 M196.49420013427735,254.95869975585939 C193.02420013427735,254.95869975585939 190.76920013427736,252.72259975585936 190.76920013427736,249.2721997558594 C190.76920013427736,245.16629975585937 193.62220013427734,240.88689975585936 199.21220013427734,236.31843975585937 C201.62120013427733,234.35224975585936 206.90320013427734,232.34750975585936 210.97020013427735,232.32823975585939 C214.28620013427735,232.28967975585937 216.04020013427734,233.42698975585938 216.04020013427734,236.2798897558594 C216.04020013427734,239.26772975585936 214.22820013427733,243.52779975585938 210.58520013427736,249.04079975585938 C211.39520013427733,248.01919975585938 212.70520013427733,246.6890997558594 214.57520013427734,245.12769975585937 C221.11020013427733,239.61469975585936 226.77720013427734,236.02929975585937 231.48120013427734,234.2751497558594 C232.81120013427736,233.77395975585938 234.17920013427735,234.42935975585937 234.17920013427735,235.91363975585938 C234.17920013427735,236.39554975585938 233.54320013427736,237.30153975585938 232.27120013427734,238.61232975585938 C228.97520013427734,241.98569975585937 226.17920013427735,245.66749975585938 223.88620013427735,249.67699975585938 C221.59220013427733,253.68639975585938 220.45420013427736,256.53929975585936 220.45420013427736,258.2741997558594 C220.45420013427736,259.0452997558594 220.68620013427736,259.4114997558594 221.45720013427734,259.31509975585936 C221.93920013427734,259.2572997558594 225.27420013427735,257.7151997558594 225.75520013427735,257.6958997558594 C225.89020013427734,257.7537997558594 225.94820013427736,257.8115997558594 225.94820013427736,257.8693997558594 C226.08320013427735,258.6596997558594 221.65020013427736,260.7993997558594 220.76320013427735,260.6066997558594 C220.06920013427734,260.6066997558594 219.64520013427733,260.4909997558594 219.47120013427735,260.24039975585936 C218.98920013427735,259.58499975585937 218.75820013427733,258.7560997558594 218.75820013427733,257.7537997558594 C218.75820013427733,255.49839975585937 219.95320013427735,252.24069975585937 222.40120013427733,247.99989975585936 C223.94320013427733,245.33979975585936 226.35320013427733,241.75439975585937 229.57220013427735,237.26297975585936 C226.08320013427735,237.59067975585938 221.55320013427735,240.32789975585936 216.00220013427733,245.55179975585938 C211.56820013427733,249.73479975585937 208.42620013427734,253.33949975585938 206.55620013427733,256.32729975585937 C205.93920013427734,257.31039975585935 205.61220013427734,257.92719975585936 205.61220013427734,258.2356997558594 C205.61220013427734,258.54409975585935 205.72720013427735,258.7560997558594 205.97820013427733,258.85249975585936 C205.68920013427734,259.1994997558594 204.55120013427734,259.7777997558594 203.53020013427735,259.7777997558594 C202.75920013427734,259.7777997558594 202.37320013427734,259.58499975585937 202.37320013427734,259.18019975585935 C202.35420013427733,257.61879975585936 210.75820013427733,245.62889975585938 211.37520013427735,244.37599975585937 C212.97520013427734,241.07969975585937 214.05520013427736,238.6316097558594 214.05520013427736,236.76179975585939 C214.05520013427736,234.48718975585936 213.05220013427734,233.27277975585937 210.39220013427735,233.27277975585937 C207.25020013427735,233.27277975585937 203.93520013427735,234.71850975585937 200.40720013427733,237.59067975585938 C197.72820013427733,239.80749975585937 195.62620013427735,242.08209975585936 194.20020013427734,244.45309975585937 C192.87020013427735,246.66979975585937 192.23420013427733,248.69389975585938 192.23420013427733,250.44799975585937 C192.23420013427733,253.0888997558594 193.48720013427734,254.3225997558594 196.07020013427734,254.3225997558594 C199.17320013427735,254.3225997558594 201.52520013427736,253.22379975585937 203.12520013427735,251.04559975585937 C203.76120013427735,250.17809975585936 204.07020013427734,249.42639975585936 204.07020013427734,248.82879975585936 C204.07020013427734,248.23119975585936 203.93520013427735,247.84569975585939 203.64520013427733,247.69149975585938 C203.56820013427733,247.57579975585938 203.58820013427734,247.42159975585938 203.83820013427734,247.42159975585938 C204.51320013427735,247.42159975585938 204.86020013427733,247.86499975585937 204.86020013427733,248.75169975585936 C204.86020013427733,252.24069975585937 200.69620013427735,254.95869975585939 196.49420013427735,254.95869975585939 C196.49420013427735,254.95869975585939 196.49420013427735,254.95869975585939 196.49420013427735,254.95869975585939 M229.90020013427736,257.0019997558594 C228.41620013427735,257.0019997558594 226.85420013427733,255.7875997558594 226.85420013427733,254.24549975585938 C226.85420013427733,252.31779975585937 228.18420013427735,250.02389975585936 230.86420013427735,247.36379975585936 C233.54320013427736,244.70369975585936 236.01020013427734,243.3542997558594 238.24620013427733,243.3542997558594 C239.51920013427736,243.3542997558594 240.00120013427735,244.08679975585937 240.30920013427735,245.01209975585937 C241.04220013427735,244.64579975585937 241.96720013427733,245.24339975585937 242.08220013427734,245.78309975585938 C242.08220013427734,245.91809975585937 241.27320013427735,247.19029975585937 239.63420013427734,249.59989975585938 C237.99620013427733,252.00939975585936 237.18620013427736,253.68639975585938 237.18620013427736,254.63099975585936 C237.18620013427736,255.28639975585938 237.57220013427735,255.7875997558594 238.09220013427733,255.7875997558594 C239.46120013427733,255.7875997558594 241.94820013427736,253.51299975585937 245.59120013427736,248.98299975585937 C245.74520013427735,248.77099975585938 246.05320013427735,248.73239975585938 246.03420013427734,249.13719975585937 C246.03420013427734,249.32999975585938 245.91820013427736,249.58059975585937 245.66820013427736,249.9082997558594 C242.29520013427734,254.3996997558594 239.73120013427734,256.65499975585936 237.97720013427735,256.65499975585936 C235.91420013427734,256.65499975585936 235.20120013427734,254.63099975585936 235.72120013427735,252.58769975585938 C234.41020013427735,253.87919975585936 231.34620013427735,257.0019997558594 229.90020013427736,257.0019997558594 C229.90020013427736,257.0019997558594 229.90020013427736,257.0019997558594 229.90020013427736,257.0019997558594 M228.51220013427735,254.70809975585937 C228.51220013427735,255.65259975585937 228.84020013427735,256.1344997558594 229.49520013427735,256.1344997558594 C231.01820013427735,256.1344997558594 233.23520013427733,254.5538997558594 235.72120013427735,251.12269975585937 C235.72120013427735,251.12269975585937 239.90420013427735,245.35909975585938 239.90420013427735,245.35909975585938 C239.69220013427736,244.99279975585938 239.36520013427733,244.79999975585937 238.88320013427733,244.79999975585937 C237.28320013427734,244.79999975585937 235.14320013427735,246.03369975585937 232.48320013427735,248.5203997558594 C229.82320013427736,251.00699975585937 228.51220013427735,253.06959975585937 228.51220013427735,254.70809975585937 C228.51220013427735,254.70809975585937 228.51220013427735,254.70809975585937 228.51220013427735,254.70809975585937 M244.87820013427734,256.8477997558594 C244.22220013427733,256.8862997558594 243.58620013427733,256.03819975585935 243.60520013427734,255.42129975585937 C243.60520013427734,254.93939975585937 244.29920013427736,253.2044997558594 245.66820013427736,250.21669975585937 C245.66820013427736,250.21669975585937 243.29720013427735,252.70329975585938 243.29720013427735,252.70329975585938 C242.71920013427734,253.28159975585936 242.37220013427734,253.57079975585938 242.21720013427733,253.57079975585938 C241.81320013427734,253.45509975585938 242.04420013427733,253.01179975585939 242.31420013427734,252.74189975585938 C245.16720013427735,249.85039975585937 245.74520013427735,248.86739975585937 248.69420013427734,244.60729975585937 C249.13820013427735,243.9518997558594 250.71820013427734,243.64349975585938 250.71820013427734,244.76149975585938 C250.85320013427733,244.95429975585938 246.07320013427736,252.78049975585938 246.28520013427735,253.0888997558594 C247.84620013427735,251.31549975585938 255.82720013427735,243.54709975585936 257.5422001342773,243.81689975585937 C258.10120013427735,243.79769975585938 258.81420013427737,244.22179975585937 258.81420013427737,244.70369975585936 C258.96920013427734,244.87709975585938 255.46020013427736,250.77569975585936 255.61420013427735,250.92989975585937 C258.5252001342774,248.48179975585938 259.9902001342773,247.24809975585939 259.9902001342773,247.2095997558594 C262.4772001342774,245.28199975585937 264.21220013427734,244.33739975585937 265.33020013427733,244.33739975585937 C265.9082001342773,244.33739975585937 266.64120013427737,244.78079975585936 266.62120013427733,245.32049975585937 C266.62120013427733,245.3782997558594 265.7732001342773,246.47709975585937 264.05820013427734,248.65529975585937 C262.34220013427733,250.83349975585938 261.35920013427733,252.60699975585936 261.18520013427735,254.01409975585938 C261.05020013427736,255.07429975585939 261.5902001342773,255.42129975585937 262.7272001342774,255.42129975585937 C263.34420013427734,255.42129975585937 264.27020013427733,254.99719975585938 265.4652001342773,254.14909975585937 C266.6602001342774,253.30089975585938 267.8552001342773,252.12509975585937 269.10820013427735,250.6985997558594 C269.5712001342773,250.15889975585938 269.91820013427736,249.9082997558594 270.09120013427736,249.9082997558594 C270.6122001342774,249.9082997558594 270.24520013427735,250.40949975585937 269.9752001342773,250.73719975585936 C268.66520013427737,252.27929975585937 267.29620013427734,253.60929975585938 265.8122001342773,254.68879975585938 C264.32720013427735,255.76829975585937 263.17120013427734,256.32729975585937 262.3232001342774,256.32729975585937 C260.5302001342774,256.32729975585937 259.6432001342773,255.49839975585937 259.6432001342773,253.84069975585936 C259.6432001342773,251.41179975585936 262.20720013427734,247.40229975585936 263.5372001342773,245.80239975585937 C260.16420013427734,247.42159975585938 254.67020013427734,252.5683997558594 253.43620013427736,256.5778997558594 C252.95420013427736,257.19469975585935 251.62420013427734,256.86699975585935 251.81720013427736,255.8260997558594 C252.41520013427734,252.4912997558594 254.78620013427735,248.59749975585936 256.15420013427735,245.55179975585938 C252.24120013427734,248.01919975585938 249.62020013427735,251.1419997558594 246.94020013427735,254.51529975585936 C245.70620013427734,256.05739975585936 245.03220013427733,256.8477997558594 244.87820013427734,256.8477997558594 C244.87820013427734,256.8477997558594 244.87820013427734,256.8477997558594 244.87820013427734,256.8477997558594 M270.36120013427734,257.3296997558594 C268.37520013427735,257.3296997558594 267.04520013427737,255.96109975585938 267.04520013427737,254.36109975585939 C267.04520013427737,252.5298997558594 268.20220013427735,250.40949975585937 270.51520013427734,247.98059975585937 C272.8282001342774,245.55179975585938 274.9292001342774,244.33739975585937 276.7612001342774,244.33739975585937 C277.85920013427733,244.33739975585937 278.8232001342774,245.03139975585938 278.8232001342774,246.03369975585937 C278.8232001342774,247.51799975585936 277.7442001342773,248.96369975585938 275.48820013427735,250.25529975585937 C272.9632001342774,251.70099975585939 271.46020013427733,252.47199975585937 269.49320013427734,252.18289975585938 C268.5492001342774,253.70569975585937 268.56820013427733,256.50079975585936 270.8812001342774,256.50079975585936 C272.17320013427735,256.50079975585936 273.8312001342773,255.57549975585937 275.9322001342773,253.84069975585936 C277.51220013427735,252.5298997558594 278.92020013427737,251.19979975585937 280.0382001342773,249.73479975585937 C280.2882001342773,249.42639975585936 280.48120013427734,249.25289975585937 280.65420013427735,249.25289975585937 C281.15620013427736,249.36849975585938 280.8862001342774,249.79259975585938 280.59720013427733,250.17809975585936 C279.18920013427737,252.06719975585938 277.45520013427733,253.70569975585937 275.45020013427734,255.1513997558594 C273.44520013427734,256.5971997558594 271.7682001342773,257.3296997558594 270.36120013427734,257.3296997558594 C270.36120013427734,257.3296997558594 270.36120013427734,257.3296997558594 270.36120013427734,257.3296997558594 M270.09120013427736,251.31549975585938 C271.65220013427734,251.60459975585937 272.6742001342774,250.98779975585938 274.62120013427733,249.79259975585938 C276.47220013427733,248.65529975585937 277.43520013427735,247.55659975585937 277.8402001342773,245.95659975585937 C277.8402001342773,245.62889975585938 277.51220013427735,245.47469975585938 276.8382001342774,245.47469975585938 C276.1632001342773,245.47469975585938 275.19920013427736,245.99519975585937 273.96620013427736,247.01679975585938 C272.30820013427734,248.38539975585937 271.01620013427737,249.81189975585937 270.09120013427736,251.31549975585938 C270.09120013427736,251.31549975585938 270.09120013427736,251.31549975585938 270.09120013427736,251.31549975585938 " style="pointer-events:inherit"/></g><g type="text" text="Receipient's Name" font-size="26.04718277247449" font-family="Afta sans" fill="5ebf09" text-anchor="middle" font-weight="normal" font-style="normal" lineHeight="1" shapeId="0" shapeVal="0" fill-opacity="1" display="null" stroke-opacity="1" id="svg_4" stroke-width="1" stroke-dasharray="none" stroke="ull" style="pointer-events:inherit"><path id="svg_8" fill="#5ebf09" stroke="#ull" d="M70.74009926757813,138.92700067138674 C70.74009926757813,138.92700067138674 75.35049926757813,138.92700067138674 75.35049926757813,138.92700067138674 C78.81479926757812,138.92700067138674 79.75249926757812,136.86930067138672 79.75249926757812,135.33250067138673 C79.75249926757812,133.69150067138673 78.63239926757812,131.7901006713867 75.35049926757813,131.7901006713867 C75.35049926757813,131.7901006713867 70.74009926757813,131.7901006713867 70.74009926757813,131.7901006713867 C70.74009926757813,131.7901006713867 70.74009926757813,138.92700067138674 70.74009926757813,138.92700067138674 C70.74009926757813,138.92700067138674 70.74009926757813,138.92700067138674 70.74009926757813,138.92700067138674 M69.09919926757813,130.64400067138672 C69.09919926757813,130.64400067138672 75.35049926757813,130.64400067138672 75.35049926757813,130.64400067138672 C79.57009926757813,130.64400067138672 81.52369926757812,132.54550067138672 81.52369926757812,135.0981006713867 C81.52369926757812,138.01540067138671 79.28359926757813,139.3698006713867 77.48639926757812,139.57820067138672 C79.28359926757813,139.99500067138672 79.80459926757813,141.21920067138672 80.35149926757812,142.5736006713867 C80.35149926757812,142.5736006713867 83.03439926757812,149.26780067138674 83.03439926757812,149.26780067138674 C83.03439926757812,149.26780067138674 81.31529926757813,149.26780067138674 81.31529926757813,149.26780067138674 C79.23149926757813,144.00620067138672 78.47609926757812,142.10480067138673 78.34589926757812,141.8183006713867 C77.82499926757812,140.69820067138673 77.14769926757813,140.20330067138673 75.97559926757813,140.20330067138673 C75.97559926757813,140.20330067138673 70.74009926757813,140.20330067138673 70.74009926757813,140.20330067138673 C70.74009926757813,140.20330067138673 70.74009926757813,149.26780067138674 70.74009926757813,149.26780067138674 C70.74009926757813,149.26780067138674 69.09919926757813,149.26780067138674 69.09919926757813,149.26780067138674 C69.09919926757813,149.26780067138674 69.09919926757813,130.64400067138672 69.09919926757813,130.64400067138672 C69.09919926757813,130.64400067138672 69.09919926757813,130.64400067138672 69.09919926757813,130.64400067138672 M95.25052926757813,141.29730067138672 C95.12029926757812,138.7447006713867 94.23468926757812,136.60880067138672 91.44763926757813,136.60880067138672 C88.42619926757813,136.60880067138672 87.25399926757812,138.90100067138673 87.25399926757812,141.3234006713867 C87.25399926757812,141.3234006713867 95.25052926757813,141.29730067138672 95.25052926757813,141.29730067138672 M91.44763926757813,148.61660067138672 C93.55746926757813,148.61660067138672 94.88586926757813,147.31420067138671 95.43285926757812,146.5068006713867 C96.24032926757812,147.13190067138672 96.39660926757813,147.28820067138673 96.57893926757812,147.41840067138673 C94.99005926757812,149.29380067138672 93.11465926757812,149.68450067138673 91.44763926757813,149.68450067138673 C86.81119926757813,149.68450067138673 85.32659926757813,147.02770067138673 85.32659926757813,142.83410067138672 C85.32659926757813,138.1717006713867 87.20199926757813,135.41070067138673 91.44763926757813,135.41070067138673 C94.99005926757812,135.41070067138673 96.81336926757812,137.65070067138672 96.78731926757813,142.41730067138673 C96.78731926757813,142.41730067138673 87.04569926757813,142.39130067138672 87.04569926757813,142.39130067138672 C87.04569926757813,146.03790067138672 87.30609926757812,148.61660067138672 91.44763926757813,148.61660067138672 C91.44763926757813,148.61660067138672 91.44763926757813,148.61660067138672 91.44763926757813,148.61660067138672 M105.92987926757813,148.48630067138672 C107.72713926757812,148.48630067138672 109.44624926757812,147.8612006713867 110.46209926757813,147.36630067138674 C110.46209926757813,148.27800067138674 110.48809926757812,148.56450067138672 110.48809926757812,148.87700067138672 C108.89925926757813,149.37190067138673 107.67503926757813,149.68450067138673 105.92987926757813,149.68450067138673 C101.24137926757813,149.68450067138673 98.89713926757813,147.41840067138673 98.89713926757813,142.41730067138673 C98.89713926757813,137.1298006713867 101.55394926757812,135.41070067138673 105.92987926757813,135.41070067138673 C107.67503926757813,135.41070067138673 109.15972926757813,135.95760067138673 110.22769926757812,136.55670067138672 C110.22769926757812,136.55670067138672 110.22769926757812,137.93720067138673 110.22769926757812,137.93720067138673 C108.76901926757813,137.28600067138672 107.38851926757812,136.60880067138672 105.92987926757813,136.60880067138672 C103.19491926757813,136.60880067138672 100.64229926757812,137.5205006713867 100.64229926757812,142.36520067138673 C100.64229926757812,147.41840067138673 103.09072926757813,148.48630067138672 105.92987926757813,148.48630067138672 C105.92987926757813,148.48630067138672 105.92987926757813,148.48630067138672 105.92987926757813,148.48630067138672 M122.07909926757813,141.29730067138672 C121.94889926757813,138.7447006713867 121.06329926757812,136.60880067138672 118.27619926757812,136.60880067138672 C115.25479926757812,136.60880067138672 114.08259926757813,138.90100067138673 114.08259926757813,141.3234006713867 C114.08259926757813,141.3234006713867 122.07909926757813,141.29730067138672 122.07909926757813,141.29730067138672 M118.27619926757812,148.61660067138672 C120.38609926757812,148.61660067138672 121.71449926757813,147.31420067138671 122.26149926757813,146.5068006713867 C123.06889926757813,147.13190067138672 123.22519926757812,147.28820067138673 123.40749926757812,147.41840067138673 C121.81869926757813,149.29380067138672 119.94329926757813,149.68450067138673 118.27619926757812,149.68450067138673 C113.63979926757813,149.68450067138673 112.15519926757813,147.02770067138673 112.15519926757813,142.83410067138672 C112.15519926757813,138.1717006713867 114.03059926757813,135.41070067138673 118.27619926757812,135.41070067138673 C121.81869926757813,135.41070067138673 123.64199926757813,137.65070067138672 123.61589926757813,142.41730067138673 C123.61589926757813,142.41730067138673 113.87429926757812,142.39130067138672 113.87429926757812,142.39130067138672 C113.87429926757812,146.03790067138672 114.13469926757813,148.61660067138672 118.27619926757812,148.61660067138672 C118.27619926757812,148.61660067138672 118.27619926757812,148.61660067138672 118.27619926757812,148.61660067138672 M128.51279926757812,130.7482006713867 C128.51279926757812,130.7482006713867 126.29879926757812,130.7482006713867 126.29879926757812,130.7482006713867 C126.29879926757812,130.7482006713867 126.29879926757812,128.5342006713867 126.29879926757812,128.5342006713867 C126.29879926757812,128.5342006713867 128.51279926757812,128.5342006713867 128.51279926757812,128.5342006713867 C128.51279926757812,128.5342006713867 128.51279926757812,130.7482006713867 128.51279926757812,130.7482006713867 C128.51279926757812,130.7482006713867 128.51279926757812,130.7482006713867 128.51279926757812,130.7482006713867 M126.74159926757812,149.26780067138674 C126.74159926757812,149.26780067138674 126.74159926757812,135.77530067138673 126.74159926757812,135.77530067138673 C126.74159926757812,135.77530067138673 128.51279926757812,135.77530067138673 128.51279926757812,135.77530067138673 C128.51279926757812,135.77530067138673 128.51279926757812,149.26780067138674 128.51279926757812,149.26780067138674 C128.51279926757812,149.26780067138674 126.74159926757812,149.26780067138674 126.74159926757812,149.26780067138674 C126.74159926757812,149.26780067138674 126.74159926757812,149.26780067138674 126.74159926757812,149.26780067138674 M138.85349926757812,136.50460067138673 C135.62369926757813,136.50460067138673 134.03479926757814,139.6563006713867 134.03479926757814,141.60990067138673 C134.03479926757814,141.60990067138673 134.03479926757814,147.41840067138673 134.03479926757814,147.41840067138673 C135.18089926757813,148.0175006713867 135.91019926757812,148.19980067138673 137.18649926757814,148.19980067138673 C141.1195992675781,148.19980067138673 141.71869926757813,145.23040067138672 141.71869926757813,142.4955006713867 C141.71869926757813,139.76050067138672 141.45819926757812,136.50460067138673 138.85349926757812,136.50460067138673 C138.85349926757812,136.50460067138673 138.85349926757812,136.50460067138673 138.85349926757812,136.50460067138673 M134.00869926757812,148.98120067138672 C134.00869926757812,148.98120067138672 134.00869926757812,154.81580067138674 134.00869926757812,154.81580067138674 C134.00869926757812,154.81580067138674 132.34169926757812,154.81580067138674 132.34169926757812,154.81580067138674 C132.34169926757812,154.81580067138674 132.34169926757812,135.80140067138672 132.34169926757812,135.80140067138672 C132.34169926757812,135.80140067138672 133.69619926757812,135.80140067138672 133.69619926757812,135.80140067138672 C133.69619926757812,135.80140067138672 134.00869926757812,138.92700067138674 134.00869926757812,138.92700067138674 C134.21709926757813,137.96330067138672 136.14459926757812,135.3586006713867 138.85349926757812,135.3586006713867 C142.18759926757812,135.3586006713867 143.38569926757813,138.09350067138672 143.38569926757813,142.4955006713867 C143.38569926757813,147.39240067138672 141.51029926757812,149.47610067138672 137.03019926757813,149.47610067138672 C136.09249926757812,149.47610067138672 135.07669926757814,149.26780067138674 134.00869926757812,148.98120067138672 C134.00869926757812,148.98120067138672 134.00869926757812,148.98120067138672 134.00869926757812,148.98120067138672 M148.64729926757812,130.7482006713867 C148.64729926757812,130.7482006713867 146.43329926757812,130.7482006713867 146.43329926757812,130.7482006713867 C146.43329926757812,130.7482006713867 146.43329926757812,128.5342006713867 146.43329926757812,128.5342006713867 C146.43329926757812,128.5342006713867 148.64729926757812,128.5342006713867 148.64729926757812,128.5342006713867 C148.64729926757812,128.5342006713867 148.64729926757812,130.7482006713867 148.64729926757812,130.7482006713867 C148.64729926757812,130.7482006713867 148.64729926757812,130.7482006713867 148.64729926757812,130.7482006713867 M146.87609926757813,149.26780067138674 C146.87609926757813,149.26780067138674 146.87609926757813,135.77530067138673 146.87609926757813,135.77530067138673 C146.87609926757813,135.77530067138673 148.64729926757812,135.77530067138673 148.64729926757812,135.77530067138673 C148.64729926757812,135.77530067138673 148.64729926757812,149.26780067138674 148.64729926757812,149.26780067138674 C148.64729926757812,149.26780067138674 146.87609926757813,149.26780067138674 146.87609926757813,149.26780067138674 C146.87609926757813,149.26780067138674 146.87609926757813,149.26780067138674 146.87609926757813,149.26780067138674 M161.74899926757814,141.29730067138672 C161.61879926757814,138.7447006713867 160.73319926757813,136.60880067138672 157.94609926757812,136.60880067138672 C154.92459926757812,136.60880067138672 153.75249926757812,138.90100067138673 153.75249926757812,141.3234006713867 C153.75249926757812,141.3234006713867 161.74899926757814,141.29730067138672 161.74899926757814,141.29730067138672 M157.94609926757812,148.61660067138672 C160.05589926757813,148.61660067138672 161.38429926757811,147.31420067138671 161.93129926757814,146.5068006713867 C162.73879926757812,147.13190067138672 162.89509926757813,147.28820067138673 163.07739926757813,147.41840067138673 C161.48849926757813,149.29380067138672 159.61309926757812,149.68450067138673 157.94609926757812,149.68450067138673 C153.30969926757814,149.68450067138673 151.8249992675781,147.02770067138673 151.8249992675781,142.83410067138672 C151.8249992675781,138.1717006713867 153.70039926757812,135.41070067138673 157.94609926757812,135.41070067138673 C161.48849926757813,135.41070067138673 163.31179926757812,137.65070067138672 163.2857992675781,142.41730067138673 C163.2857992675781,142.41730067138673 153.54409926757813,142.39130067138672 153.54409926757813,142.39130067138672 C153.54409926757813,146.03790067138672 153.8045992675781,148.61660067138672 157.94609926757812,148.61660067138672 C157.94609926757812,148.61660067138672 157.94609926757812,148.61660067138672 157.94609926757812,148.61660067138672 M175.60609926757814,149.26780067138674 C175.60609926757814,149.26780067138674 175.60609926757814,140.93270067138673 175.60609926757814,140.93270067138673 C175.60609926757814,138.22370067138672 174.51209926757812,136.68700067138673 172.32419926757814,136.68700067138673 C169.95389926757812,136.68700067138673 167.87009926757813,138.5624006713867 167.87009926757813,140.6461006713867 C167.87009926757813,140.6461006713867 167.87009926757813,149.26780067138674 167.87009926757813,149.26780067138674 C167.87009926757813,149.26780067138674 166.15099926757813,149.26780067138674 166.15099926757813,149.26780067138674 C166.15099926757813,149.26780067138674 166.15099926757813,135.77530067138673 166.15099926757813,135.77530067138673 C166.15099926757813,135.77530067138673 167.68779926757813,135.77530067138673 167.68779926757813,135.77530067138673 C167.68779926757813,135.77530067138673 167.8439992675781,138.45820067138672 167.8439992675781,138.45820067138672 C168.52129926757812,136.81720067138673 170.99569926757812,135.38460067138672 173.10559926757813,135.38460067138672 C175.57999926757813,135.38460067138672 177.27309926757812,137.23400067138672 177.27309926757812,141.11500067138672 C177.27309926757812,141.11500067138672 177.27309926757812,149.26780067138674 177.27309926757812,149.26780067138674 C177.27309926757812,149.26780067138674 175.60609926757814,149.26780067138674 175.60609926757814,149.26780067138674 C175.60609926757814,149.26780067138674 175.60609926757814,149.26780067138674 175.60609926757814,149.26780067138674 M179.30479926757812,135.77530067138673 C179.30479926757812,135.77530067138673 181.93559926757814,135.77530067138673 181.93559926757814,135.77530067138673 C182.11789926757814,134.52500067138672 182.27419926757813,133.0664006713867 182.45649926757812,131.7901006713867 C182.45649926757812,131.7901006713867 183.62859926757812,131.7901006713867 183.62859926757812,131.7901006713867 C183.62859926757812,131.7901006713867 183.62859926757812,135.77530067138673 183.62859926757812,135.77530067138673 C183.62859926757812,135.77530067138673 187.11899926757812,135.77530067138673 187.11899926757812,135.77530067138673 C187.11899926757812,135.77530067138673 187.11899926757812,136.89530067138674 187.11899926757812,136.89530067138674 C187.11899926757812,136.89530067138674 183.62859926757812,136.89530067138674 183.62859926757812,136.89530067138674 C183.62859926757812,136.89530067138674 183.62859926757812,145.6472006713867 183.62859926757812,145.6472006713867 C183.62859926757812,147.9654006713867 183.8369992675781,148.30400067138672 185.16539926757812,148.30400067138672 C185.89469926757812,148.30400067138672 186.57199926757812,148.12170067138672 187.06689926757812,147.88730067138673 C187.06689926757812,147.88730067138673 187.06689926757812,149.1896006713867 187.06689926757812,149.1896006713867 C184.09749926757814,149.78870067138672 181.96159926757812,150.28360067138672 181.96159926757812,146.55880067138673 C181.96159926757812,146.55880067138673 181.96159926757812,136.89530067138674 181.96159926757812,136.89530067138674 C181.96159926757812,136.89530067138674 179.30479926757812,136.89530067138674 179.30479926757812,136.89530067138674 C179.30479926757812,136.89530067138674 179.30479926757812,135.77530067138673 179.30479926757812,135.77530067138673 C179.30479926757812,135.77530067138673 179.30479926757812,135.77530067138673 179.30479926757812,135.77530067138673 M192.17209926757812,136.42650067138672 C192.17209926757812,136.42650067138672 190.99999926757812,136.42650067138672 190.99999926757812,136.42650067138672 C190.99999926757812,136.42650067138672 190.99999926757812,130.2533006713867 190.99999926757812,130.2533006713867 C190.99999926757812,130.2533006713867 192.17209926757812,130.2533006713867 192.17209926757812,130.2533006713867 C192.17209926757812,130.2533006713867 192.17209926757812,136.42650067138672 192.17209926757812,136.42650067138672 C192.17209926757812,136.42650067138672 192.17209926757812,136.42650067138672 192.17209926757812,136.42650067138672 M201.18399926757814,135.51480067138672 C203.55499926757813,135.51480067138672 205.22199926757813,136.32230067138673 206.18599926757813,136.73910067138672 C206.18599926757813,137.1298006713867 206.2119992675781,137.65070067138672 206.2119992675781,137.98930067138673 C204.51799926757812,137.2600006713867 202.95599926757814,136.60880067138672 201.18399926757814,136.60880067138672 C199.80399926757812,136.60880067138672 198.37129926757814,136.92140067138672 198.37129926757814,138.92700067138674 C198.37129926757814,140.5940006713867 199.33509926757813,140.9587006713867 201.41899926757813,141.47960067138672 C205.09199926757813,142.41730067138673 206.88899926757813,143.56340067138672 206.88899926757813,145.67320067138672 C206.88899926757813,148.17380067138672 204.72699926757812,149.65850067138672 201.54899926757813,149.65850067138672 C198.84019926757813,149.65850067138672 196.86059926757812,148.59050067138674 196.20939926757814,148.1477006713867 C196.20939926757814,147.54860067138674 196.23549926757812,147.0537006713867 196.23549926757812,146.45470067138672 C197.82439926757814,147.39240067138672 199.59549926757813,148.3561006713867 201.54899926757813,148.3561006713867 C203.39799926757814,148.3561006713867 205.06499926757812,147.8352006713867 205.06499926757812,145.67320067138672 C205.06499926757812,143.9020006713867 202.8249992675781,143.32900067138672 200.22099926757812,142.59970067138673 C197.35549926757812,141.79220067138672 196.5219992675781,140.67220067138672 196.5219992675781,138.8749006713867 C196.5219992675781,137.62470067138673 197.30339926757813,135.51480067138672 201.18399926757814,135.51480067138672 C201.18399926757814,135.51480067138672 201.18399926757814,135.51480067138672 201.18399926757814,135.51480067138672 M217.07299926757813,149.26780067138674 C217.07299926757813,149.26780067138674 217.07299926757813,130.6701006713867 217.07299926757813,130.6701006713867 C217.07299926757813,130.6701006713867 219.54799926757812,130.6701006713867 219.54799926757812,130.6701006713867 C219.54799926757812,130.6701006713867 229.88799926757812,147.28820067138673 229.88799926757812,147.28820067138673 C229.88799926757812,147.28820067138673 229.88799926757812,130.6701006713867 229.88799926757812,130.6701006713867 C229.88799926757812,130.6701006713867 231.60799926757812,130.6701006713867 231.60799926757812,130.6701006713867 C231.60799926757812,130.6701006713867 231.60799926757812,149.26780067138674 231.60799926757812,149.26780067138674 C231.60799926757812,149.26780067138674 229.65399926757811,149.26780067138674 229.65399926757811,149.26780067138674 C229.65399926757811,149.26780067138674 218.73999926757813,131.73800067138671 218.73999926757813,131.73800067138671 C218.73999926757813,131.73800067138671 218.73999926757813,149.26780067138674 218.73999926757813,149.26780067138674 C218.73999926757813,149.26780067138674 217.07299926757813,149.26780067138674 217.07299926757813,149.26780067138674 C217.07299926757813,149.26780067138674 217.07299926757813,149.26780067138674 217.07299926757813,149.26780067138674 M242.41699926757812,146.71510067138672 C242.41699926757812,146.71510067138672 242.4689992675781,142.15690067138672 242.4689992675781,142.15690067138672 C240.90599926757812,142.5476006713867 239.94299926757813,142.5476006713867 238.77099926757813,142.5476006713867 C237.51999926757813,142.5476006713867 235.93099926757813,142.52150067138672 235.93099926757813,145.43880067138673 C235.93099926757813,149.24170067138672 240.41099926757812,148.9031006713867 242.41699926757812,146.71510067138672 C242.41699926757812,146.71510067138672 242.41699926757812,146.71510067138672 242.41699926757812,146.71510067138672 M244.16199926757812,140.6461006713867 C244.16199926757812,140.6461006713867 244.16199926757812,149.26780067138674 244.16199926757812,149.26780067138674 C244.16199926757812,149.26780067138674 242.93799926757814,149.26780067138674 242.93799926757814,149.26780067138674 C242.93799926757814,149.26780067138674 242.07799926757812,148.30400067138672 242.07799926757812,148.30400067138672 C240.8799992675781,148.92910067138672 239.75999926757814,149.45010067138674 237.6239992675781,149.45010067138674 C235.61899926757812,149.45010067138674 234.21199926757814,148.0435006713867 234.21199926757814,145.41280067138672 C234.21199926757814,143.32900067138672 235.17599926757813,141.42760067138673 238.40599926757812,141.42760067138673 C241.06299926757814,141.42760067138673 241.66199926757812,141.42760067138673 242.41699926757812,140.72430067138671 C242.41699926757812,137.0256006713867 241.66199926757812,136.63490067138673 239.39599926757813,136.63490067138673 C237.59799926757813,136.63490067138673 236.34799926757813,137.10370067138672 235.54099926757812,137.41630067138672 C235.35799926757812,136.92140067138672 235.30599926757813,136.7130006713867 235.09799926757813,136.2702006713867 C238.95299926757812,134.9158006713867 244.16199926757812,134.1864006713867 244.16199926757812,140.6461006713867 C244.16199926757812,140.6461006713867 244.16199926757812,140.6461006713867 244.16199926757812,140.6461006713867 M263.09899926757817,149.26780067138674 C263.09899926757817,149.26780067138674 263.09899926757817,140.67220067138672 263.09899926757817,140.67220067138672 C263.09899926757817,138.2498006713867 262.7859992675781,136.6609006713867 260.67599926757816,136.6609006713867 C258.04499926757813,136.6609006713867 256.87299926757817,138.84890067138673 256.87299926757817,140.93270067138673 C256.87299926757817,140.93270067138673 256.87299926757817,149.26780067138674 256.87299926757817,149.26780067138674 C256.87299926757817,149.26780067138674 255.10199926757812,149.26780067138674 255.10199926757812,149.26780067138674 C255.10199926757812,149.26780067138674 255.10199926757812,140.93270067138673 255.10199926757812,140.93270067138673 C255.10199926757812,138.1977006713867 254.60699926757812,136.6609006713867 252.73199926757812,136.6609006713867 C250.10099926757812,136.6609006713867 248.92899926757812,139.39590067138673 248.92899926757812,141.3755006713867 C248.92899926757812,141.3755006713867 248.92899926757812,149.26780067138674 248.92899926757812,149.26780067138674 C248.92899926757812,149.26780067138674 247.20999926757813,149.26780067138674 247.20999926757813,149.26780067138674 C247.20999926757813,149.26780067138674 247.20999926757813,135.80140067138672 247.20999926757813,135.80140067138672 C247.20999926757813,135.80140067138672 248.74699926757813,135.80140067138672 248.74699926757813,135.80140067138672 C248.74699926757813,135.80140067138672 248.90299926757814,138.66650067138673 248.90299926757814,138.66650067138673 C249.6059992675781,136.55670067138672 251.22099926757812,135.38460067138672 253.51299926757812,135.38460067138672 C254.99799926757814,135.38460067138672 256.01399926757813,136.3483006713867 256.63899926757813,138.66650067138673 C257.3939992675781,136.94740067138673 258.93099926757816,135.38460067138672 261.48399926757816,135.38460067138672 C263.67199926757814,135.38460067138672 264.6609992675781,136.99950067138673 264.68699926757813,140.85450067138672 C264.68699926757813,140.85450067138672 264.76599926757814,149.26780067138674 264.76599926757814,149.26780067138674 C264.76599926757814,149.26780067138674 263.09899926757817,149.26780067138674 263.09899926757817,149.26780067138674 C263.09899926757817,149.26780067138674 263.09899926757817,149.26780067138674 263.09899926757817,149.26780067138674 M277.13799926757815,141.29730067138672 C277.00799926757816,138.7447006713867 276.12199926757813,136.60880067138672 273.33499926757816,136.60880067138672 C270.3139992675781,136.60880067138672 269.1419992675781,138.90100067138673 269.1419992675781,141.3234006713867 C269.1419992675781,141.3234006713867 277.13799926757815,141.29730067138672 277.13799926757815,141.29730067138672 M273.33499926757816,148.61660067138672 C275.4449992675781,148.61660067138672 276.77299926757814,147.31420067138671 277.3199992675781,146.5068006713867 C278.12799926757816,147.13190067138672 278.2839992675781,147.28820067138673 278.4659992675781,147.41840067138673 C276.87799926757816,149.29380067138672 275.0019992675781,149.68450067138673 273.33499926757816,149.68450067138673 C268.69899926757813,149.68450067138673 267.2139992675781,147.02770067138673 267.2139992675781,142.83410067138672 C267.2139992675781,138.1717006713867 269.0889992675781,135.41070067138673 273.33499926757816,135.41070067138673 C276.87799926757816,135.41070067138673 278.70099926757814,137.65070067138672 278.67499926757813,142.41730067138673 C278.67499926757813,142.41730067138673 268.9329992675781,142.39130067138672 268.9329992675781,142.39130067138672 C268.9329992675781,146.03790067138672 269.19399926757814,148.61660067138672 273.33499926757816,148.61660067138672 C273.33499926757816,148.61660067138672 273.33499926757816,148.61660067138672 273.33499926757816,148.61660067138672 " style="pointer-events:inherit"/></g><g type="text" text="2015" font-size="54.731856396301275" font-family="Afta sans" fill="5ebf09" text-anchor="start" font-weight="normal" font-style="normal" lineHeight="1" shapeId="0" shapeVal="0" fill-opacity="1" display="null" stroke-opacity="1" id="svg_3" stroke="null" style="pointer-events:inherit"><path fill="#5ebf09" d="M117.218,204.95399C117.218,204.95399 139.494,204.95399 139.494,204.95399C139.494,204.95399 139.494,207.58099 139.494,207.58099C139.494,207.58099 112.675,207.58099 112.675,207.58099C112.839,196.30701 118.86,192.256 127.398,187.87801C132.597,185.196 134.73199,181.912 134.73199,178.19C134.73199,174.304 132.105,170.418 125.811,170.418C120.721,170.418 118.148,173.21001 116.944,174.687C115.904,173.866 115.247,173.26401 114.208,172.55299C116.123,170.09 120.502,167.84599 125.756,167.84599C134.349,167.84599 138.235,172.608 138.235,178.19C138.235,183.444 135.22501,187.76801 128.438,191.10699C122.582,193.953 117.491,198.16701 117.218,204.95399C117.218,204.95399 117.218,204.95399 117.218,204.95399M161.386,170.47301C154.217,170.47301 149.39999,174.90601 149.39999,188.918C149.39999,202.491 154.873,206.213 161.386,206.213C167.899,206.213 172.989,201.451 172.989,188.534C172.989,175.125 167.899,170.47301 161.386,170.47301C161.386,170.47301 161.386,170.47301 161.386,170.47301M161.386,168.00999C167.571,168.00999 176.60201,170.582 176.60201,188.534C176.60201,206.049 166.85899,208.457 161.386,208.457C155.85899,208.457 145.67799,206.049 145.67799,188.534C145.67799,171.239 153.888,168.00999 161.386,168.00999C161.386,168.00999 161.386,168.00999 161.386,168.00999M187.657,167.84599C187.657,167.84599 192.145,167.84599 192.145,167.84599C192.145,167.84599 192.145,207.58099 192.145,207.58099C192.145,207.58099 188.534,207.58099 188.534,207.58099C188.534,207.58099 188.534,170.692 188.534,170.692C188.534,170.692 183.881,171.951 183.881,171.951C183.881,171.951 183.881,170.36301 183.881,170.36301C183.936,170.36301 186.453,168.722 187.657,167.84599C187.657,167.84599 187.657,167.84599 187.657,167.84599M205.28101,183.937C205.28101,183.937 207.854,168.448 207.854,168.448C207.854,168.448 233.687,168.448 233.687,168.448C233.52299,169.32401 233.468,169.871 233.304,170.582C233.304,170.582 211.08299,170.582 211.08299,170.582C211.08299,170.582 209.496,183.17101 209.496,183.17101C211.411,182.35001 214.69501,181.146 218.472,181.146C227.66701,181.146 234.125,184.867 234.125,193.89799C234.125,202.765 227.448,207.58099 218.472,207.58099C210.371,207.58099 205.883,205.556 204.40601,204.67999C204.40601,204.67999 204.40601,201.506 204.40601,201.506C208.784,203.64 213.655,205.338 218.472,205.338C227.00999,205.338 230.18401,198.769 230.18401,193.89799C230.18401,188.644 227.00999,183.39 218.472,183.39C214.586,183.39 209.98801,185.086 208.237,185.688C208.237,185.688 205.28101,183.937 205.28101,183.937" id="svg_6" stroke="null" style="pointer-events:inherit"/></g><g id="svg_12" fill-opacity="1" display="null" clip-id="598" stroke="null" stroke-opacity="1" transform=""><path fill="#FC9000" d="M138.52500041456787,77.50467926356255 L161.72967662637262,77.50467926356255 L168.899998728316,54.30000305175781 L176.07092833022566,77.50467926356255 L199.27499704206411,77.50467926356255 L180.50203308423525,91.84593096741561 L187.6729626861449,115.04999967925406 L168.899998728316,100.708747975401 L150.1270347704871,115.04999967925406 L157.29796437239676,91.84593096741561 L138.52500041456787,77.50467926356255 z" id="svg_15" stroke-width="0" stroke="null" transform=""/></g></g><defs><mask id="canvasMaskImageDef" maskUnits="objectBoundingBox" x="0" y="0"><image xmlns:xlink="http://www.w3.org/1999/xlink" id="canvasMaskImage" preserveAspectRatio="none" x="-31.5" y="-10.5" width="400" height="404.04040404040404" xlink:href="http://html5designer.designnbuy.in/media/catalog/product/1/1/11_mask.png"/></mask></defs></svg>