<svg xmlns="http://www.w3.org/2000/svg" width="113" height="356" x="0" y="0" id="svgcontent" viewBox="0 0 113 356" overflow="hidden"><defs/><g mask="" style="pointer-events:all"><title style="pointer-events:inherit">Layer 1</title><ellipse cx="56.73958128985706" cy="164.74656053655798" rx="79.16875685687172" ry="39.58437842843586" id="svg_13" fill="#000000" display="null" fill-opacity="1" stroke-opacity="1" transform="rotate(-89.7049, 56.7396, 164.747)" stroke="#000000"/><ellipse cx="56.73894631830802" cy="164.74712946949694" rx="72.56558736196604" ry="36.28279368098302" id="svg_12" fill="#ffffff" display="null" fill-opacity="1" stroke-opacity="1" transform="rotate(-89.7085, 56.739, 164.747)" stroke="#000000"/><g id="svg_10" type="text" text="COMPANY" font-size="10.104734397219431" font-family="Afta sans" fill="000000" text-anchor="start" font-weight="normal" font-style="normal" lineHeight="1" shapeId="0" shapeVal="0" fill-opacity="1" display="null" stroke-opacity="1" transform="rotate(-90, 57.8964, 165.078)" stroke="null"><path id="svg_11" fill="#000000" d="M7.445469856262207,165.7310028076172 C7.385159969329834,159.2570037841797 13.175100326538086,156.88499450683594 18.6835994720459,158.81500244140625 C18.6835994720459,158.81500244140625 18.6835994720459,160.04200744628906 18.6835994720459,160.04200744628906 C17.457300186157227,159.45899963378906 16.210800170898438,158.99600219726562 14.823599815368652,158.99600219726562 C14.501999855041504,158.99600219726562 9.09400987625122,159.11700439453125 9.09400987625122,165.71099853515625 C9.09400987625122,172.36500549316406 14.280799865722656,172.2449951171875 14.823599815368652,172.2449951171875 C16.452099800109863,172.2449951171875 17.75879955291748,171.54100036621094 18.82430076599121,170.677001953125 C18.82430076599121,170.677001953125 18.82430076599121,172.06399536132812 18.82430076599121,172.06399536132812 C18.201099395751953,172.48599243164062 16.77369976043701,173.27000427246094 14.823599815368652,173.27000427246094 C10.058989524841309,173.27000427246094 7.5057902336120605,169.8719940185547 7.445469856262207,165.7310028076172 C7.445469856262207,165.7310028076172 7.445469856262207,165.7310028076172 7.445469856262207,165.7310028076172 M22.443099975585938,165.67100524902344 C22.443099975585938,172.5659942626953 27.489200592041016,172.34500122070312 28.454099655151367,172.34500122070312 C29.278400421142578,172.34500122070312 34.64619827270508,172.3249969482422 34.64619827270508,165.67100524902344 C34.64619827270508,158.91600036621094 29.25830078125,159.03599548339844 28.434099197387695,159.03599548339844 C27.4689998626709,159.03599548339844 22.443099975585938,159.07699584960938 22.443099975585938,165.67100524902344 C22.443099975585938,165.67100524902344 22.443099975585938,165.67100524902344 22.443099975585938,165.67100524902344 M28.454099655151367,158.15199279785156 C33.7012996673584,158.15199279785156 35.993099212646484,160.76499938964844 35.993099212646484,165.6909942626953 C35.993099212646484,169.9530029296875 33.88220024108887,173.25 28.454099655151367,173.25 C22.925600051879883,173.25 20.874900817871094,170.21400451660156 20.874900817871094,165.6909942626953 C20.874900817871094,160.76499938964844 23.64929962158203,158.15199279785156 28.454099655151367,158.15199279785156 C28.454099655151367,158.15199279785156 28.454099655151367,158.15199279785156 28.454099655151367,158.15199279785156 M46.90959930419922,171.15899658203125 C46.90959930419922,171.15899658203125 45.42190170288086,171.15899658203125 45.42190170288086,171.15899658203125 C45.42190170288086,171.15899658203125 39.67219924926758,159.29800415039062 39.67219924926758,159.29800415039062 C39.67219924926758,163.55999755859375 39.611900329589844,168.20399475097656 39.611900329589844,172.84800720214844 C39.611900329589844,172.84800720214844 38.345298767089844,172.84800720214844 38.345298767089844,172.84800720214844 C38.345298767089844,172.84800720214844 38.345298767089844,158.47300720214844 38.345298767089844,158.47300720214844 C38.345298767089844,158.47300720214844 40.79800033569336,158.47300720214844 40.79800033569336,158.47300720214844 C40.79800033569336,158.47300720214844 45.66320037841797,169.24899291992188 45.66320037841797,169.24899291992188 C46.025001525878906,170.0330047607422 46.447200775146484,169.71200561523438 46.64830017089844,169.24899291992188 C50.829898834228516,159.86099243164062 51.19169998168945,159.0970001220703 51.43299865722656,158.47300720214844 C51.43299865722656,158.47300720214844 53.70479965209961,158.47300720214844 53.70479965209961,158.47300720214844 C53.70479965209961,158.47300720214844 53.70479965209961,172.84800720214844 53.70479965209961,172.84800720214844 C53.70479965209961,172.84800720214844 52.41809844970703,172.84800720214844 52.41809844970703,172.84800720214844 C52.41809844970703,172.84800720214844 52.39799880981445,159.2779998779297 52.39799880981445,159.2779998779297 C52.39799880981445,159.2779998779297 46.90959930419922,171.15899658203125 46.90959930419922,171.15899658203125 M58.1879997253418,159.35800170898438 C58.1879997253418,159.35800170898438 58.1879997253418,165.8719940185547 58.1879997253418,165.8719940185547 C58.1879997253418,165.8719940185547 61.846900939941406,165.8719940185547 61.846900939941406,165.8719940185547 C64.6613998413086,165.8719940185547 65.40530014038086,163.5800018310547 65.40530014038086,162.69500732421875 C65.40530014038086,161.28799438476562 64.6613998413086,159.35800170898438 61.846900939941406,159.35800170898438 C61.846900939941406,159.35800170898438 58.1879997253418,159.35800170898438 58.1879997253418,159.35800170898438 C58.1879997253418,159.35800170898438 58.1879997253418,159.35800170898438 58.1879997253418,159.35800170898438 M56.90129852294922,158.49400329589844 C56.90129852294922,158.49400329589844 61.846900939941406,158.47300720214844 61.846900939941406,158.47300720214844 C65.64649963378906,158.47300720214844 66.93319702148438,160.7449951171875 66.93319702148438,162.69500732421875 C66.93319702148438,164.52499389648438 65.72700119018555,166.7969970703125 61.846900939941406,166.7969970703125 C61.846900939941406,166.7969970703125 58.1879997253418,166.7969970703125 58.1879997253418,166.7969970703125 C58.1879997253418,166.7969970703125 58.1879997253418,172.8679962158203 58.1879997253418,172.8679962158203 C58.1879997253418,172.8679962158203 56.90129852294922,172.8679962158203 56.90129852294922,172.8679962158203 C56.90129852294922,172.8679962158203 56.90129852294922,158.49400329589844 56.90129852294922,158.49400329589844 C56.90129852294922,158.49400329589844 56.90129852294922,158.49400329589844 56.90129852294922,158.49400329589844 M76.82440185546875,166.53500366210938 C76.82440185546875,166.53500366210938 74.27110290527344,159.13699340820312 74.27110290527344,159.13699340820312 C74.27110290527344,159.13699340820312 71.41639709472656,166.53500366210938 71.41639709472656,166.53500366210938 C71.41639709472656,166.53500366210938 76.82440185546875,166.53500366210938 76.82440185546875,166.53500366210938 C76.82440185546875,166.53500366210938 76.82440185546875,166.53500366210938 76.82440185546875,166.53500366210938 M67.59660339355469,172.84800720214844 C67.59660339355469,172.84800720214844 73.26589965820312,158.47300720214844 73.26589965820312,158.47300720214844 C73.26589965820312,158.47300720214844 75.33670043945312,158.47300720214844 75.33670043945312,158.47300720214844 C75.33670043945312,158.47300720214844 80.38279724121094,172.84800720214844 80.38279724121094,172.84800720214844 C80.38279724121094,172.84800720214844 78.89510345458984,172.84800720214844 78.89510345458984,172.84800720214844 C78.89510345458984,172.84800720214844 77.08570098876953,167.37899780273438 77.08570098876953,167.37899780273438 C77.08570098876953,167.37899780273438 71.21530151367188,167.37899780273438 71.21530151367188,167.37899780273438 C71.21530151367188,167.37899780273438 68.98380279541016,172.84800720214844 68.98380279541016,172.84800720214844 C68.98380279541016,172.84800720214844 67.59660339355469,172.84800720214844 67.59660339355469,172.84800720214844 C67.59660339355469,172.84800720214844 67.59660339355469,172.84800720214844 67.59660339355469,172.84800720214844 M82.2926025390625,172.84800720214844 C82.2926025390625,172.84800720214844 82.2926025390625,158.49400329589844 82.2926025390625,158.49400329589844 C82.2926025390625,158.49400329589844 84.20249938964844,158.49400329589844 84.20249938964844,158.49400329589844 C84.20249938964844,158.49400329589844 92.18379974365234,171.32000732421875 92.18379974365234,171.32000732421875 C92.18379974365234,171.32000732421875 92.18379974365234,158.49400329589844 92.18379974365234,158.49400329589844 C92.18379974365234,158.49400329589844 93.51069641113281,158.49400329589844 93.51069641113281,158.49400329589844 C93.51069641113281,158.49400329589844 93.51069641113281,172.84800720214844 93.51069641113281,172.84800720214844 C93.51069641113281,172.84800720214844 92.00289916992188,172.84800720214844 92.00289916992188,172.84800720214844 C92.00289916992188,172.84800720214844 83.57929992675781,159.3179931640625 83.57929992675781,159.3179931640625 C83.57929992675781,159.3179931640625 83.57929992675781,172.84800720214844 83.57929992675781,172.84800720214844 C83.57929992675781,172.84800720214844 82.2926025390625,172.84800720214844 82.2926025390625,172.84800720214844 C82.2926025390625,172.84800720214844 82.2926025390625,172.84800720214844 82.2926025390625,172.84800720214844 M101.15019989013672,167.4600067138672 C101.15019989013672,167.4600067138672 95.34010314941406,158.47300720214844 95.34010314941406,158.47300720214844 C95.34010314941406,158.47300720214844 96.80770111083984,158.47300720214844 96.80770111083984,158.47300720214844 C96.80770111083984,158.47300720214844 101.83370208740234,166.43499755859375 101.83370208740234,166.43499755859375 C101.83370208740234,166.43499755859375 106.91999816894531,158.47300720214844 106.91999816894531,158.47300720214844 C106.91999816894531,158.47300720214844 108.40799713134766,158.47300720214844 108.40799713134766,158.47300720214844 C108.40799713134766,158.47300720214844 102.5979995727539,167.4600067138672 102.5979995727539,167.4600067138672 C102.5979995727539,167.4600067138672 102.5979995727539,172.8679962158203 102.5979995727539,172.8679962158203 C102.5979995727539,172.8679962158203 101.15019989013672,172.8679962158203 101.15019989013672,172.8679962158203 C101.15019989013672,172.8679962158203 101.15019989013672,167.4600067138672 101.15019989013672,167.4600067138672 C101.15019989013672,167.4600067138672 101.15019989013672,167.4600067138672 101.15019989013672,167.4600067138672 " stroke="null"/></g></g></svg>