<?xml version="1.0" encoding="utf-8"?>
<!-- Generator: Adobe Illustrator 16.0.0, SVG Export Plug-In . SVG Version: 6.00 Build 0)  -->
<!DOCTYPE svg PUBLIC "-//W3C//DTD SVG 1.1//EN" "http://www.w3.org/Graphics/SVG/1.1/DTD/svg11.dtd">
<svg version="1.1" id="Layer_1" xmlns="http://www.w3.org/2000/svg" xmlns:xlink="http://www.w3.org/1999/xlink" x="0px" y="0px"
	 width="100px" height="100px" viewBox="0 0 100 100" enable-background="new 0 0 100 100" xml:space="preserve">
<g>
	<path fill="#010101" d="M29.84,1.46c0.532,0.019,1.064,0.038,1.596,0.06c0.29,0.016,0.596-0.057,0.859,0.039
		c0.063,0.052,0.13,0.103,0.193,0.155c0.143,0.052,0.286,0.104,0.428,0.156c0.309,0.198,0.542,0.532,0.819,0.759
		c0.209,0.173,0.516,0.294,0.68,0.506c0.599,0.771,1.519,2.23,1.289,3.701c0,0.317,0,0.636,0,0.954
		c-0.085,0.156-0.171,0.312-0.255,0.468c-0.019,0.181-0.038,0.364-0.057,0.545c-0.066,0.083-0.132,0.167-0.195,0.252
		c-0.063,0.208,0.168,0.288,0.117,0.545c-0.057,0.287-0.173,0.619-0.293,0.917c-0.214,0.529-0.623,1.091-0.954,1.537
		c-0.177,0.145-0.35,0.287-0.526,0.429c-0.147,0.261-0.194,0.56-0.35,0.819c-0.143,0.236-0.394,0.552-0.465,0.856
		c0.248,0.179,0.628,0.533,0.777,0.801c0.044,0.147,0.091,0.299,0.135,0.446c0.066,0.063,0.131,0.129,0.195,0.195
		c0.091,0.258,0.182,0.52,0.271,0.778c0.167,0.306,0.44,0.563,0.644,0.856c0.26,0.378,0.646,0.5,1.031,0.761
		c0.151,0.168,0.299,0.338,0.45,0.505c0.408,0.328,0.785,0.651,1.207,0.975c0.098,0.131,0.195,0.26,0.292,0.389
		c0.633,0.479,1.298,1.118,1.792,1.734c0.123,0.174,0.246,0.351,0.369,0.526c0.151,0.112,0.299,0.221,0.447,0.332
		c0.144,0.205,0.11,0.533,0.196,0.796c0.078,0.17,0.157,0.339,0.234,0.507c0.014,0.24,0.027,0.482,0.039,0.721
		c0.085,0.259,0.169,0.521,0.252,0.779c0.026,0.261,0.054,0.519,0.079,0.779c0.085,0.144,0.17,0.285,0.252,0.429
		c0.027,0.24,0.053,0.48,0.079,0.721c0.079,0.175,0.158,0.352,0.232,0.526c0.183,0.676,0.18,1.28,0.372,1.967
		c0.138,0.488,0.409,1.146,0.526,1.635c0.019,0.189,0.038,0.377,0.058,0.565c0.083,0.195,0.168,0.39,0.253,0.583
		c0.044,0.299,0.09,0.598,0.135,0.897c0.061,0.11,0.117,0.22,0.175,0.331c0.014,0.201,0.026,0.403,0.04,0.604
		c0.145,0.331,0.629,0.526,0.739,1.052c0.284,1.338-0.347,1.895-0.661,2.726c-0.032,0.279-0.066,0.559-0.099,0.837
		c-0.198,0.436-0.569,0.846-0.837,1.227c-0.258,0.367-0.447,0.826-0.8,1.092c-0.102,0.045-0.206,0.089-0.31,0.137
		c-0.239,0.162-0.329,0.441-0.623,0.564c-0.541-0.073-0.607-0.744-1.13-0.799c-0.012,0.019-0.026,0.04-0.041,0.059
		c-0.127,0.286,0.154,1.132,0.215,1.443c0.24,1.212-0.177,2.597,0.021,3.835c0.115,0.138,0.312,0.131,0.466,0.232
		c0.091,0.104,0.183,0.208,0.274,0.312c0.169,0.117,0.432,0.038,0.624,0.117c0.277,0.116,0.58,0.346,0.856,0.428
		c0.595,0.176,0.979,0.004,1.479-0.098c0.185,0,0.364,0,0.545,0c0.269-0.483,0.443-0.349,0.799-0.642
		c0.163-0.134,0.225-0.322,0.426-0.429c0.271,0.061,0.46,0.095,0.762,0.019c0.118-0.444,0.376-0.514,0.563-0.835
		c0.014-0.084,0.026-0.168,0.038-0.253c0.189-0.306,0.454-0.136,0.567-0.643c0.211-0.063,0.652-0.22,0.759-0.389
		c0.033-0.099,0.065-0.195,0.098-0.292c0.115-0.09,0.234-0.182,0.349-0.272c0.102-0.147,0.073-0.285,0.235-0.371
		c0.234-0.124,0.836-0.055,0.974-0.272c0.183-0.469,0.352-0.831,0.622-1.188c-0.005-0.083-0.012-0.168-0.019-0.253
		c0.301-0.046,0.822-0.117,1.053-0.271c0.096-0.066,0.087-0.161,0.153-0.255c0.168-0.071,0.338-0.142,0.506-0.214
		c0.563-0.159,1.193,0.172,1.793-0.037c0.271-0.097,0.199-0.439,0.406-0.565c0.19-0.115,0.397-0.087,0.527-0.254
		c-0.025-0.189,0.025-0.353-0.021-0.563c-0.086-0.407-0.289-0.736-0.428-1.052c-0.25-0.576-0.332-1.054-0.799-1.402
		c-0.287-0.216-0.447-0.031-0.777-0.136c-0.299-0.096-0.973-0.747-1.17-0.993c-0.146-0.185-0.675-1.181-0.369-1.579
		c0.086-0.059,0.168-0.115,0.254-0.176c-0.016-0.304-0.371-0.793-0.484-1.071c-0.152-0.36-0.004-0.756-0.102-1.168
		c-0.034-0.148-0.168-0.233-0.213-0.349c-0.193-0.485-0.228-1.007-0.057-1.521c0.085-0.258,0.381-0.328,0.509-0.545
		c0.088-0.158-0.033-0.343,0.075-0.505c0.38-0.566,0.903-0.942,1.479-1.324c0.072-0.085,0.145-0.17,0.216-0.253
		c0.188-0.071,0.376-0.145,0.565-0.215c0.075-0.064,0.153-0.13,0.232-0.195c0.135-0.058,0.367-0.005,0.486-0.058
		c0.054-0.058,0.104-0.117,0.154-0.174c0.123-0.033,0.248-0.064,0.371-0.098c0.141-0.058,0.196-0.193,0.389-0.234
		c0.83-0.177,1.774,0.023,2.379,0.274c0.089,0.084,0.181,0.168,0.27,0.251c0.208,0.027,0.418,0.054,0.627,0.079
		c0.051,0.064,0.104,0.129,0.154,0.195c0.109,0.044,0.221,0.09,0.33,0.135c0.092,0.104,0.185,0.208,0.271,0.312
		c0.352,0.263,0.814,0.507,1.073,0.857c0.044,0.182,0.09,0.365,0.136,0.546c0.153,0.452,0.379,1.124,0.486,1.617
		c0.111,0.502-0.042,1.074,0.021,1.537c0.054,0.42,0.336,0.261,0.524,0.507c0.103,0.234,0.208,0.468,0.312,0.703
		c0.069,0.256-0.106,0.481-0.156,0.642c-0.139,0.435-0.206,0.776-0.426,1.128c-0.224,0.349-0.584,0.544-0.78,0.935
		c-0.026,0.104-0.054,0.208-0.078,0.311c-0.06,0.133-0.188,0.204-0.253,0.313c-0.169,0.28-0.112,0.797-0.061,1.13
		c-0.013,0.156-0.023,0.312-0.037,0.467c0.037,0.361-0.062,0.893,0.174,1.051c0.16,0.055,0.732,0.186,0.896,0.156
		c0.16-0.029,0.34-0.141,0.563-0.097c0.663,0.126,1.808,0.164,2.397,0.369c-0.041,0.047-0.08,0.091-0.117,0.136
		c0.082,0.22,0.205,0.153,0.408,0.253c0.055,0.027,1.202,0.791,1.207,0.799c0.172,0.269,0.232,0.533,0.391,0.797
		c0.156,0.136,0.313,0.274,0.466,0.41c0.013,0.091,0.026,0.182,0.04,0.272c0.063,0.143,0.209,0.201,0.291,0.312
		c0.041,0.137,0.078,0.272,0.117,0.409c0.176,0.271,0.522,0.595,0.644,0.896c0.259,0.653,0.599,1.65,1.208,1.928
		c0.271,0.125,0.503-0.23,0.624-0.35c0.274-0.283,0.237-0.507,0.349-0.994c0.086-0.208,0.172-0.417,0.254-0.623
		c-0.031-0.181-0.064-0.364-0.1-0.546c-0.045-0.265,0.078-0.394-0.038-0.583c-0.461-0.053-0.293-0.474-0.487-0.779
		c-0.637-0.208-1.39,0.14-2.063-0.04c-0.164-0.044-0.338-0.189-0.467-0.273c-0.186-0.115-0.387-0.157-0.508-0.332
		c-0.131-0.186-0.479-0.604-0.526-0.797c-0.011-0.202-0.024-0.404-0.038-0.605c-0.083-0.213-0.169-0.428-0.254-0.643
		c0.061-0.149,0.118-0.299,0.177-0.447c-0.021-0.176-0.041-0.353-0.059-0.525c0.079-0.369,0.136-0.92,0.038-1.364
		c-0.059-0.233-0.119-0.468-0.176-0.703c-0.037-0.234,0.047-0.425,0.08-0.582c0.059-0.305-0.058-0.611-0.1-0.857
		c0-0.209,0-0.418,0-0.623c-0.084-0.189-0.17-0.378-0.255-0.567c0.009-0.167,0.013-0.337,0.021-0.505
		c-0.558-1.793-1.137-5.837-0.33-7.751c0.336-0.8,0.949-1.311,1.635-1.772c0.191-0.131,0.285-0.386,0.43-0.565
		c0.104-0.064,0.207-0.129,0.313-0.195c0.193-0.257,0.398-0.507,0.623-0.741c0.09-0.05,0.183-0.104,0.272-0.154
		c0.229-0.332,0.763-0.953,0.856-1.344c0.226-0.938-0.096-1.78-0.235-2.513c-0.079-0.421,0.095-0.993,0-1.344
		c-0.129-0.2-0.259-0.401-0.39-0.604c-0.069-0.26-0.144-0.52-0.211-0.779c-0.094-0.156-0.184-0.312-0.275-0.468
		c-0.122-0.425,0.253-0.584,0.176-0.954c-0.061-0.111-0.113-0.221-0.176-0.331c-0.005-0.157-0.014-0.311-0.018-0.467
		c-0.144-0.921,0.03-1.8,0.271-2.455c0.363-0.987,1.343-2.011,2.355-2.337c0.188-0.031,0.377-0.064,0.563-0.097
		c0.099-0.071,0.194-0.142,0.293-0.214c0.494-0.199,1.06-0.115,1.521-0.039c0.219,0,0.438,0,0.66,0
		c0.189,0.05,0.229,0.24,0.391,0.292c0.104,0.015,0.21,0.027,0.313,0.04c0.077,0.077,0.157,0.156,0.231,0.234
		c0.265,0.175,0.562,0.232,0.819,0.39c0.527,0.322,1.207,1.896,1.479,2.551c0.032,0.336,0.063,0.673,0.099,1.012
		c0.059,0.162,0.209,0.125,0.311,0.235c0.244,0.265,0.369,1.121,0.271,1.675c-0.025,0.221-0.053,0.441-0.076,0.661
		c-0.279,0.649-1.035,1.142-0.778,2.298c0.063,0.123,0.13,0.246,0.192,0.369c0.031,0.177,0.065,0.351,0.099,0.526
		c0.403,0.759,1.222,1.124,2.184,1.326c0.194,0.013,0.388,0.025,0.582,0.039c0.253,0.062,0.419,0.236,0.644,0.292
		c0.277,0.069,0.418-0.124,0.683-0.078c0.571,0.143,1.142,0.287,1.713,0.428c1.038,0.39,1.53,1.617,1.909,2.649
		c0.182,0.492,0.218,0.906,0.372,1.421c0.081,0.202,0.166,0.403,0.251,0.604c0.007,0.189,0.013,0.377,0.02,0.566
		c0.092,0.292,0.184,0.583,0.271,0.876c0.072,0.409,0.145,0.818,0.215,1.227c0.247,0.835,0.448,1.844,0.682,2.688
		c0.203,0.73,0.172,1.44,0.409,2.123c0.087,0.163,0.169,0.324,0.255,0.488c0.125,0.365,0.178,0.752,0.271,1.089
		c0.041,0.331,0.079,0.662,0.115,0.993c0.093,0.182,0.184,0.364,0.273,0.545c0.014,0.195,0.025,0.39,0.039,0.584
		c0.061,0.23,0.286,0.408,0.215,0.78c-0.045,0.131-0.093,0.26-0.138,0.389c0.015,0.247,0.026,0.494,0.038,0.74
		c-0.12,0.833-0.314,1.795-0.465,2.552c-0.033,0.26-0.066,0.518-0.098,0.778c-0.476,1.859-1.043,3.541-1.404,5.591
		c-0.063,0.373,0.146,0.583,0.195,0.857c-0.007,0.07-0.014,0.142-0.021,0.214c0.072,0.104,0.145,0.208,0.214,0.313
		c0.026,0.408,0.054,0.816,0.079,1.225c0.184,0.896,0.574,2.142,0.39,3.215c-0.14,0.813-0.091,1.77-0.253,2.667
		c-0.076,0.201-0.154,0.401-0.234,0.604c-0.019,0.332-0.037,0.662-0.057,0.991c-0.191,0.979-0.4,2.287-0.585,3.292
		c-0.013,0.352-0.026,0.702-0.038,1.051c-0.216,1.189-0.355,2.638-0.566,3.858c0,0.351,0,0.699,0,1.05
		c-0.037,0.241-0.133,0.461-0.153,0.663c0.019,0.122,0.038,0.245,0.058,0.371c-0.041,0.187-0.156,0.351-0.193,0.583
		c-0.062,0.34,0.037,0.598,0.078,0.837c-0.033,0.13-0.066,0.259-0.101,0.39c-0.123,0.6,0.136,1.162,0,1.793
		c-0.058,0.27-0.252,0.342-0.312,0.603c-0.012,0.269-0.024,0.533-0.037,0.8c-0.067,0.193-0.131,0.391-0.194,0.583
		c-0.032,0.263-0.067,0.521-0.099,0.781c-0.057,0.123-0.117,0.245-0.174,0.368c-0.053,0.24-0.104,0.482-0.157,0.722
		c-0.075,0.146-0.209,0.229-0.253,0.447c0,0.305,0,0.61,0,0.917c-0.063,0.398-0.191,0.633-0.273,0.953
		c-0.02,0.181-0.037,0.361-0.058,0.545c-0.058,0.066-0.117,0.129-0.177,0.195c-0.053,0.142-0.103,0.287-0.155,0.429
		c-0.162,0.168-0.322,0.337-0.486,0.507c-0.04,0.175-0.077,0.35-0.116,0.525c-0.072,0.069-0.142,0.143-0.213,0.215
		c-0.025,0.181-0.053,0.361-0.078,0.544c-0.098,0.315-0.295,0.643-0.371,1.032c-0.096,0.485,0.252,1.345,0.352,1.733
		c0.02,0.272,0.039,0.543,0.061,0.817c0.109,0.344,0.219,0.688,0.327,1.031c0.083,0.48-0.294,0.821-0.368,1.148
		c0.026,0.11,0.055,0.221,0.08,0.331c-0.068,0.319-0.354,0.66-0.451,0.956c-0.063,0.212-0.129,0.428-0.194,0.643
		c-0.005,0.2-0.013,0.401-0.019,0.604c-0.104,0.104-0.209,0.207-0.313,0.313c0.033,0.545,0.313,0.664,0.389,1.09
		c0.116,0.637-0.455,0.703-0.289,1.438c0.069,0.111,0.143,0.224,0.213,0.334c0.014,0.22,0.025,0.44,0.039,0.663
		c-0.387,0.15-0.516,0.532-0.818,0.758c-0.162,0.051-0.324,0.104-0.485,0.156c-0.062,0.064-0.117,0.131-0.177,0.193
		c-0.342,0.183-1.032,0.078-1.481,0.156c-0.325,0.055-0.505,0.018-0.854-0.039c-0.222-0.021-0.441-0.039-0.665-0.059
		c-0.645-0.324-0.879-0.971-0.661-1.732c0.056-0.188,0.008-0.305,0.079-0.432c0.436-0.164,0.992-0.697,1.148-1.129
		c0.072-0.199,0.018-0.377,0.078-0.544c0.041-0.112,0.164-0.179,0.117-0.331c-0.132-0.111-0.262-0.223-0.391-0.332
		c-0.039-0.129-0.077-0.258-0.117-0.389c-0.063-0.078-0.128-0.156-0.194-0.234c-0.14-0.259,0.013-0.941-0.077-1.188
		c-0.086-0.104-0.168-0.207-0.254-0.313c-0.186-0.477-0.146-1.008-0.33-1.479c-0.078-0.104-0.156-0.209-0.236-0.313
		c-0.031-0.175-0.063-0.35-0.096-0.525c-0.041-0.096-0.144-0.119-0.192-0.194c-0.048-0.07-0.335-0.786-0.354-0.858
		c-0.15-0.656,0.108-1.382-0.058-1.984c-0.077-0.144-0.153-0.285-0.231-0.43c-0.172-0.477-0.177-0.923-0.371-1.384
		c-0.063-0.088-0.129-0.181-0.197-0.271c-0.036-0.222-0.074-0.442-0.115-0.662c-0.068-0.131-0.141-0.26-0.214-0.39
		c-0.025-0.194-0.054-0.391-0.075-0.586c-0.081-0.153-0.157-0.313-0.236-0.467c-0.019-0.254-0.037-0.507-0.059-0.758
		c-0.07-0.229-0.143-0.458-0.212-0.685c-0.027-0.363-0.056-0.729-0.079-1.091c-0.023-0.538-0.053-1.077-0.077-1.616
		c-0.078-0.201-0.155-0.4-0.233-0.604c-0.008-0.095-0.014-0.194-0.021-0.292c-0.059-0.096-0.214-0.109-0.252-0.232
		c-0.113-0.371,0.326-0.385,0.252-0.798c-0.09-0.428-0.182-0.858-0.271-1.288c-0.08-0.423,0.074-0.813-0.021-1.264
		c-0.041-0.188-0.19-0.299-0.231-0.447c-0.02-0.408-0.039-0.818-0.061-1.229c-0.075-0.187-0.154-0.374-0.232-0.563
		c-0.039-0.28-0.08-0.558-0.117-0.839c-0.141-0.45-0.381-1.086-0.506-1.537c-0.021-0.201-0.039-0.402-0.059-0.604
		c-0.091-0.226-0.182-0.453-0.273-0.684c-0.012-0.173-0.024-0.35-0.037-0.525c-0.049-0.215-0.178-0.356-0.235-0.545
		c-0.032-0.215-0.063-0.428-0.097-0.643c-0.071-0.123-0.145-0.244-0.215-0.369c-0.031-0.188-0.063-0.377-0.098-0.565
		c-0.07-0.122-0.143-0.246-0.215-0.368c-0.033-0.195-0.064-0.391-0.096-0.587c-0.071-0.07-0.145-0.142-0.217-0.214
		c-0.013-0.153-0.026-0.313-0.037-0.467c-0.053-0.229-0.217-0.359-0.272-0.545c-0.026-0.176-0.052-0.351-0.078-0.526
		c-0.157-0.351-0.407-0.888-0.507-1.285c-0.014-0.2-0.025-0.401-0.037-0.604c-0.086-0.322-0.171-0.648-0.255-0.974
		c-0.021-0.297-0.039-0.597-0.058-0.896c-0.008-0.361-0.016-0.728-0.021-1.09c-0.093-0.604,0.131-1.326-0.039-1.813
		c-0.533-0.129-0.967-0.117-1.42-0.31c-0.953-0.409-1.707-1.043-2.475-1.638c-0.033,0.013-0.064,0.026-0.1,0.04
		c0.006,0.322,0.172,0.346,0.256,0.545c0.006,0.155,0.012,0.311,0.019,0.466c0.092,0.268,0.183,0.533,0.274,0.799
		c0.076,0.346,0.09,0.931,0,1.287c-0.057,0.205-0.307,0.303-0.235,0.621c0.085,0.155,0.169,0.313,0.254,0.467
		c0.11,0.477-0.004,1.137,0.136,1.639c0.137,0.49,0.488,0.664,0.604,1.168c0.147,0.646-0.209,1.132-0.019,1.753
		c0.087,0.293,0.402,0.644,0.484,0.952c0,0.379,0,0.754,0,1.131c0.067,0.288,0.307,0.494,0.37,0.721
		c0.072,0.249-0.137,0.743-0.077,1.071c0.056,0.304,0.218,0.539,0.272,0.799c0,0.233,0,0.468,0,0.701
		c0.039,0.408,0.076,0.817,0.116,1.228c0.099,0.451,0.416,0.985,0.509,1.44c0.086,0.442-0.107,0.883-0.021,1.306
		c0.135,0.662,0.271,1.493,0.39,2.199c0.007,0.292,0.013,0.586,0.021,0.877c0.078,0.279,0.154,0.559,0.234,0.838
		c0.012,0.559,0.022,1.115,0.037,1.674c0.078,0.637,0.155,1.272,0.234,1.91c-0.02,0.276-0.041,0.557-0.059,0.838
		c0.059,0.305,0.115,0.608,0.176,0.914c0.063,0.125,0.129,0.248,0.193,0.371c0.021,0.368,0.038,0.739,0.059,1.108
		c0.084,0.286,0.168,0.573,0.254,0.854c0.14,0.7-0.4,0.862-0.254,1.56c0.062,0.3,0.234,0.483,0.291,0.819
		c-0.006,0.563-0.012,1.129-0.019,1.694c0.013,1.228,0.026,2.453,0.041,3.681c0.111,0.733-0.052,1.603,0.075,2.416
		c0.188,1.229,0.107,2.683-0.075,3.814c-0.015,0.357-0.028,0.715-0.041,1.072c-0.032,0.131-0.146,0.229-0.175,0.33
		c-0.127,0.433,0.322,0.707,0.467,0.896c0.172,0.227,0.396,0.407,0.564,0.623c0.129,0.166,0.436,1.338,0.371,1.598
		c-0.125,0.261-0.445,0.537-0.721,0.643c-0.273,0.015-0.548,0.027-0.818,0.04c-0.655,0.103-2.123,0.188-2.57-0.136
		c-0.271-0.194-0.164-0.504-0.293-0.855c-0.044-0.061-0.091-0.118-0.135-0.177c-0.086-0.275-0.172-0.546-0.256-0.818
		c-0.069-0.11-0.195-0.18-0.232-0.331c-0.08-0.334,0.085-0.63-0.059-0.896c-0.213-0.39-0.575-0.296-0.739-0.507
		c-0.377-0.481-0.146-1.375-0.274-2.123c-0.045-0.371-0.09-0.739-0.134-1.11c0-0.285,0-0.57,0-0.856
		c-0.098-0.429-0.194-0.855-0.293-1.285c-0.019-0.447-0.041-0.896-0.062-1.345c-0.067-0.354-0.143-0.714-0.213-1.069
		c-0.065-0.375-0.013-0.733-0.117-1.055c-0.059-0.115-0.115-0.23-0.176-0.348c-0.039-0.208-0.076-0.417-0.115-0.624
		c-0.07-0.117-0.145-0.233-0.213-0.351c-0.033-0.273-0.065-0.549-0.099-0.816c-0.106-0.3-0.353-0.758-0.485-1.034
		c-0.041-0.2-0.08-0.401-0.117-0.604c-0.073-0.103-0.143-0.205-0.215-0.312c-0.021-0.423-0.039-0.843-0.061-1.268
		c-0.076-0.226-0.154-0.453-0.232-0.679c-0.026-0.358-0.051-0.715-0.078-1.071c-0.084-0.208-0.168-0.416-0.252-0.623
		c-0.014-0.216-0.025-0.431-0.039-0.644c-0.086-0.156-0.17-0.312-0.254-0.469c-0.031-0.406-0.063-0.816-0.098-1.225
		c-0.113-0.598-0.289-1.399-0.41-2.026c0-0.233,0-0.469,0-0.703c-0.08-0.333-0.367-0.499-0.447-0.721
		c-0.157-0.443,0.014-0.79-0.408-0.991c-0.107-0.057-0.212-0.035-0.293,0.02c-0.031,0.207-0.063,0.416-0.096,0.623
		c-0.068,0.123-0.17,0.234-0.215,0.408c-0.02,0.184-0.041,0.362-0.059,0.547c-0.063,0.119-0.215,0.186-0.255,0.35
		c-0.019,0.183-0.038,0.363-0.058,0.545c-0.273,0.538-0.51,1.078-0.623,1.791c-0.008,0.386-0.015,0.768-0.021,1.15
		c-0.088,0.52-0.239,1.668-0.136,2.22c0.061,0.329,0.354,0.833,0.177,1.325c-0.065,0.078-0.131,0.153-0.196,0.233
		c-0.046,0.183-0.092,0.363-0.138,0.544c-0.293,0.469-0.722,0.848-1.089,1.247c-0.046,0.104-0.092,0.209-0.139,0.312
		c-0.151,0.174-0.342,0.373-0.467,0.565c-0.031,0.116-0.063,0.231-0.099,0.351c-0.063,0.125-0.224,0.195-0.292,0.353
		c-0.127,0.294-0.182,0.524-0.35,0.777c-0.23,0.343-0.702,0.649-0.84,1.052c0,0.22,0,0.439,0,0.662
		c-0.019,0.994-0.037,1.986-0.057,2.98c0.066,0.428,0.158,1.029,0.057,1.498c-0.043,0.205-0.201,0.27-0.27,0.43
		c-0.154,0.354-0.184,0.636-0.391,0.916c-0.117,0.158-0.352,0.267-0.409,0.484c-0.076,0.29,0.374,0.609,0.29,1.053
		c-0.07,0.194-0.141,0.391-0.213,0.586c0.051,0.406,0.104,0.816,0.154,1.227c-0.259,0.518-0.519,1.037-0.777,1.559
		c-1.322,0.31-2.764,0.225-3.33-0.703c-0.159-0.258-0.167-0.537-0.272-0.854c-0.094-0.278-0.4-0.771-0.312-1.17
		c0.078-0.147,0.154-0.298,0.234-0.447c0.051-0.204-0.055-0.383,0.019-0.563c0.091-0.139,0.182-0.273,0.274-0.407
		c0.137-0.503,0.227-0.952,0.312-1.442c0.012-0.203,0.025-0.404,0.038-0.604c0.16-0.481,0.375-1.185,0.449-1.733
		c0.05-0.385-0.308-0.727-0.215-1.324c0-0.797,0-1.598,0-2.394c0.005-1.417,0.068-2.713,0.273-4.013
		c0.007-0.663,0.012-1.325,0.018-1.987c0.044-0.22,0.224-0.276,0.293-0.468c0.014-0.11,0.024-0.221,0.037-0.33
		c0.086-0.118,0.17-0.234,0.254-0.352c0.033-0.215,0.064-0.429,0.099-0.645c0.167-0.374,0.489-0.764,0.604-1.146
		c-0.033-1.054-0.066-2.104-0.099-3.155c0.013-0.325,0.024-0.65,0.038-0.976c0.07-0.154,0.143-0.311,0.215-0.466
		c0.025-0.247,0.052-0.494,0.074-0.739c0.088-0.358,0.172-0.716,0.257-1.072c0.069-0.397-0.063-0.826,0.019-1.227
		c0.092-0.201,0.183-0.404,0.274-0.604c0.082-0.234,0.037-0.485,0-0.721c0.037-0.475,0.076-0.947,0.116-1.422
		c-0.006-0.216-0.014-0.429-0.021-0.643c0.055-0.253,0.26-0.398,0.313-0.682c0.078-0.432-0.254-1.127-0.193-1.364
		c0.098-0.399,0.453-0.545,0.545-0.935c0.133-0.586-0.154-0.982-0.447-1.229c0.01-0.264-0.123-0.573-0.08-0.799
		c0.086-0.239,0.168-0.479,0.254-0.721c0.092-0.097,0.183-0.193,0.273-0.291c0.069-0.201,0.02-0.332,0.098-0.488
		c0.051-0.083,0.104-0.17,0.154-0.252c0.065-0.272-0.25-0.783-0.291-1.07c-0.039-0.259,0.111-0.473,0.155-0.664
		c0.041-0.188-0.06-0.615-0.099-0.76c-0.071-0.275-0.461-0.246-0.584-0.467c-0.233-0.418-0.373-0.91-0.545-1.364
		c-0.098-0.129-0.197-0.261-0.293-0.39c-0.014-0.084-0.023-0.168-0.039-0.252c-0.096-0.138-0.192-0.271-0.291-0.41
		c0-0.069,0-0.141,0-0.213c-0.084-0.109-0.168-0.221-0.254-0.332c0-0.098,0-0.194,0-0.293c-0.065-0.104-0.129-0.207-0.193-0.311
		c0.006-0.13,0.013-0.26,0.02-0.391c-0.029-0.621,0.108-0.875,0.215-1.381c-0.013-0.118-0.027-0.235-0.039-0.351
		c0.072-0.595,0.221-1.241,0.138-1.773c-0.041-0.038-0.079-0.078-0.118-0.117c-0.086,0.013-0.17,0.025-0.253,0.04
		c-0.111,0.148-0.192,0.388-0.353,0.486c-0.123,0.079-0.397,0.032-0.448,0.177c0.027,0.091,0.053,0.181,0.079,0.271
		c-0.979,0.134-1.064,0.981-1.752,1.383c-0.177,0.059-0.35,0.117-0.526,0.175c-0.773,0.461-1.693,0.942-2.59,1.267
		c-0.32,0.116-0.545-0.181-0.837-0.079c-0.35,0.122-0.476,0.473-0.856,0.545c-0.17-0.02-0.338-0.039-0.507-0.057
		c-0.248-0.026-0.493-0.053-0.739-0.079c-0.785-0.238-1.527-0.656-2.26-0.955c-0.285-0.113-0.961-0.594-1.15-0.097
		c-0.094,0.244,0.196,1.007,0.098,1.5c-0.181,0.884,0.066,2.031-0.098,3.037c-0.121,0.744-0.065,1.599-0.057,2.377
		c-0.015,0.272-0.027,0.545-0.04,0.817c0.013,0.89,0.025,1.778,0.04,2.668c-0.223,1.365,0.045,2.86-0.196,4.207
		c0,0.337,0,0.675,0,1.015c-0.103,0.623-0.005,1.317-0.116,2.004c-0.084,0.507-0.087,1.149-0.04,1.656
		c-0.007,0.447-0.013,0.896-0.019,1.344c0.031,0.59,0.066,1.182,0.097,1.771c0.059,0.177,0.117,0.353,0.175,0.526
		c0.077,0.312,0.142,1.617,0.058,1.986c-0.045,0.201-0.208,0.334-0.252,0.564c-0.107,0.521,0.021,0.936-0.078,1.441
		c-0.081,0.41-0.15,0.888-0.235,1.383c-0.014,0.585-0.025,1.167-0.04,1.754c-0.066,0.297-0.129,0.597-0.194,0.894
		c-0.033,0.534-0.064,1.065-0.096,1.597c0,0.386,0,0.768,0,1.15c-0.099,0.577-0.194,1.156-0.294,1.732c0,0.273,0,0.548,0,0.818
		c-0.065,0.398-0.083,1.049,0.021,1.424c0.084,0.188,0.17,0.373,0.252,0.563c0.039,0.409,0.079,0.818,0.118,1.229
		c0.071,0.312,0.334,0.771,0.194,1.285c-0.082,0.162-0.169,0.323-0.251,0.485c-0.188,0.647-0.387,1.263-0.469,1.888
		c-0.079,0.274-0.155,0.547-0.234,0.82c0.066,0.169,0.13,0.337,0.195,0.506c0.229,0.553,0.479,1.085,0.682,1.615
		c0.027,0.195,0.053,0.391,0.077,0.584c-0.077,0.125-0.155,0.248-0.233,0.372c-0.079,0.13-0.156,0.26-0.232,0.389
		c-0.684,0.4-3.663,0.495-4.636,0.313c-0.174,0-0.352,0-0.525,0c-0.139-0.037-0.529-0.373-0.583-0.507
		c-0.136-0.317,0.019-0.702-0.081-1.013c-0.103-0.327-0.44-0.448-0.526-0.856c-0.169-0.805,0.326-0.999-0.292-1.559
		c-0.058-0.084-0.116-0.169-0.176-0.253c-0.351-0.206-0.943,0.122-1.226,0.195c-0.453,0.116-2.908,0.16-3.31,0
		c-0.301-0.12-0.619-0.388-0.701-0.741c-0.117-0.504,0.258-0.766,0.447-1.033c0.066-0.121,0.129-0.244,0.196-0.369
		c0.261-0.336,0.664-0.502,1.011-0.761c0.182-0.133,0.346-0.347,0.525-0.485c0.317-0.238,0.855-0.453,1.033-0.816
		c0.047-0.234-0.159-0.411-0.214-0.604c-0.037-0.242-0.076-0.48-0.116-0.721c-0.064-0.085-0.129-0.17-0.195-0.253
		c-0.038-0.196-0.08-0.391-0.117-0.585c-0.066-0.156-0.129-0.311-0.195-0.469c-0.049-0.247-0.047-0.653,0.06-0.816
		c0.077-0.123,0.444-0.275,0.409-0.467c-0.053-0.064-0.104-0.131-0.157-0.195c-0.038-0.125-0.08-0.248-0.117-0.369
		c-0.149-0.23-0.403-0.56-0.505-0.82c-0.109-0.273-0.231-0.496-0.312-0.738c-0.034-0.175-0.065-0.352-0.099-0.525
		c-0.048-0.115-0.177-0.187-0.213-0.332c-0.033-0.271-0.064-0.545-0.098-0.817c-0.071-0.123-0.143-0.246-0.212-0.37
		c-0.008-0.199-0.014-0.4-0.022-0.604c-0.077-0.182-0.154-0.361-0.233-0.545c-0.052-0.332-0.104-0.66-0.154-0.994
		c-0.044-0.109-0.165-0.189-0.197-0.33c-0.011-0.293-0.023-0.584-0.038-0.877c-0.055-0.258-0.214-0.387-0.273-0.625
		c-0.015-0.207-0.026-0.414-0.039-0.623c-0.078-0.142-0.156-0.281-0.234-0.428c-0.026-0.271-0.052-0.545-0.076-0.816
		c-0.081-0.145-0.157-0.284-0.236-0.428c-0.031-0.269-0.063-0.535-0.098-0.799c-0.082-0.123-0.168-0.246-0.252-0.373
		c-0.02-0.258-0.037-0.52-0.059-0.776c-0.065-0.116-0.13-0.233-0.192-0.351c-0.089-0.268-0.04-0.55-0.139-0.779
		c-0.051-0.084-0.104-0.168-0.155-0.252c-0.04-0.353-0.077-0.702-0.115-1.053c-0.066-0.129-0.132-0.261-0.197-0.392
		c-0.018-0.285-0.039-0.57-0.058-0.856c-0.042-0.17-0.155-0.268-0.215-0.39c-0.046-0.26-0.092-0.521-0.136-0.778
		c-0.072-0.148-0.141-0.301-0.214-0.447c-0.013-0.254-0.025-0.506-0.04-0.762c-0.046-0.259-0.159-0.468-0.214-0.681
		c-0.031-0.39-0.064-0.776-0.096-1.169c-0.078-0.227-0.157-0.453-0.236-0.68c-0.017-0.28-0.038-0.56-0.057-0.838
		c-0.079-0.233-0.156-0.469-0.233-0.703c-0.035-0.381-0.066-0.766-0.098-1.146c-0.142-0.702-0.35-1.639-0.526-2.341
		c-0.014-0.214-0.028-0.427-0.041-0.641c-0.084-0.363-0.166-0.729-0.252-1.092c-0.04-0.377-0.079-0.754-0.117-1.129
		c-0.073-0.24-0.145-0.48-0.214-0.724c-0.076-0.396-0.025-0.74-0.156-1.07c-0.272-0.675-0.47-1.448-0.644-2.257
		c-0.069-0.329-0.133-2.136-0.252-2.221c-0.393-0.188-0.737-0.375-1.149-0.526c-0.313-0.114-0.602-0.03-0.875-0.157
		c-0.145-0.104-0.286-0.208-0.428-0.311c-0.174-0.075-0.34,0.015-0.526-0.039c-0.224-0.063-0.627-0.28-0.838-0.41
		c-0.016-0.112-0.016-0.201-0.098-0.252c-0.117-0.062-0.356-0.021-0.47,0.039c-0.154,0.813-0.375,1.659-0.232,2.531
		c0.014,0.254,0.027,0.507,0.04,0.76c0.078,0.139,0.272,0.104,0.37,0.214c0.141,0.165,0.163,0.455,0.311,0.624
		c0.149,0.122,0.299,0.246,0.448,0.37c-0.003,0.274-0.145,0.249-0.232,0.409c-0.026,0.097-0.052,0.193-0.079,0.291
		c-0.142,0.214-0.485,0.115-0.759,0.156c-0.069,0.11-0.107,0.283-0.175,0.41c-0.487,0.135-1.082-0.188-1.383-0.392
		c-0.334-0.228-0.84-0.415-1.072-0.739c-0.324-0.461-0.361-1.063-0.623-1.598c-0.139-0.285-0.325-0.555-0.389-0.934
		c-0.076-0.455,0.276-0.928,0.37-1.229c0.019-0.185,0.04-0.375,0.059-0.563c0.07-0.246,0.142-0.494,0.213-0.74
		c0.027-0.258,0.052-0.521,0.081-0.779c0.085-0.373,0.216-0.807,0.29-1.264c0.021-0.592,0.039-1.183,0.06-1.773
		c0.161-1.008,0.255-1.955,0.233-3.039c-0.016-0.762,0.212-2.762-0.058-3.251c-0.127-0.037-0.254-0.078-0.351-0.137
		c0.015-0.642-0.345-0.993-0.154-1.713c0.117-0.451,0.378-0.976,0.526-1.382c0.05-0.215,0.104-0.428,0.154-0.642
		c0.129-0.252,0.432-0.275,0.508-0.605c0.025-0.337,0.051-0.676,0.077-1.013c0.15-0.669,0.2-1.454,0.389-2.162
		c0.066-0.123,0.133-0.247,0.195-0.372c0.025-0.393,0.053-0.79,0.08-1.187c0.085-0.233,0.168-0.465,0.253-0.7
		c0-0.188,0-0.376,0-0.565c0.09-0.215,0.181-0.429,0.272-0.643c0.02-0.285,0.039-0.572,0.059-0.857
		c0.084-0.195,0.168-0.391,0.253-0.584c0-0.143,0-0.285,0-0.428c0.078-0.215,0.156-0.43,0.232-0.642
		c0.032-0.254,0.065-0.507,0.098-0.761c0.072-0.136,0.143-0.272,0.214-0.409c0.05-0.258,0.104-0.519,0.154-0.777
		c0.073-0.136,0.145-0.274,0.216-0.41c0.014-0.272,0.027-0.545,0.039-0.819c0.072-0.194,0.142-0.389,0.212-0.583
		c0.015-0.201,0.027-0.403,0.04-0.605c0.066-0.262,0.199-0.565,0.313-0.837c0.11-0.19,0.22-0.375,0.33-0.564
		c0.047-0.164,0.091-0.324,0.139-0.489c0.179-0.213,0.362-0.427,0.543-0.642c0.033-0.079,0.064-0.156,0.099-0.233
		c0.359-0.403,0.97-0.539,1.439-0.838c0.111-0.104,0.222-0.208,0.333-0.312c0.105-0.013,0.209-0.025,0.313-0.037
		c0.19-0.092,0.417-0.296,0.622-0.391c0.156-0.073,0.304-0.03,0.427-0.117c0.084-0.143,0.169-0.287,0.254-0.427
		c0.611-0.501,1.385-0.914,2.044-1.346c0.374-0.243,1.861-0.929,1.987-1.247c-0.067-0.235,0.043-0.489,0-0.759
		c-0.039-0.305-0.078-0.611-0.116-0.915c0-0.216,0-0.428,0-0.644c-0.086-0.312-0.341-0.457-0.467-0.72
		c-0.078-0.158-0.024-0.302-0.078-0.508c-0.079-0.167-0.157-0.337-0.235-0.505c-0.09-0.381,0.09-0.684,0.02-1.071
		c-0.02-0.104-0.04-0.208-0.059-0.312c0.021-0.138,0.098-0.324,0.059-0.526c-0.04-0.104-0.077-0.208-0.115-0.313
		c-0.073-0.352,0.216-0.597,0.271-0.915c-0.006-0.207-0.013-0.417-0.02-0.625c0.066-0.499,0.148-0.943,0.332-1.341
		c0.085-0.186,0.362-0.321,0.469-0.507c0.091-0.164,0.038-0.354,0.134-0.488c0.159-0.214,0.348-0.23,0.564-0.39
		c0.163-0.18,0.325-0.363,0.488-0.544c0.175-0.039,0.35-0.078,0.526-0.118c0.413-0.241,0.791-0.559,1.284-0.759
		C29.257,1.538,29.547,1.498,29.84,1.46z M82.775,34.083c-0.066,0.83-0.131,1.662-0.192,2.492c0.354,1.136,0.712,2.273,1.065,3.408
		c0.009,0,0.016,0,0.022,0c0.063-0.798,0.131-1.597,0.192-2.395c-0.211-0.591-0.428-1.182-0.643-1.772
		C83.075,35.239,82.924,34.66,82.775,34.083z M69.084,34.218c0.02,0.019,0.039,0.039,0.059,0.058
		C69.123,34.257,69.104,34.237,69.084,34.218z M69.143,34.335c-0.011,1.181-0.139,2.751,0.254,3.546
		c0.146-0.088,0.42-0.204,0.506-0.351C70.343,36.514,69.668,34.823,69.143,34.335z M77.79,54.357
		c-0.274,0.024-0.545,0.051-0.817,0.076c0.06,0.014,0.116,0.027,0.176,0.041c0.063,0.435,0.131,0.867,0.194,1.303
		c0.044,0.648,0.089,1.299,0.136,1.947c0.024,0.48,0.051,0.961,0.078,1.44c0.197,1.267,0.158,2.626,0.373,3.798
		c0.125,0.995,0.258,1.988,0.387,2.98c0.082-1.086,0.168-2.168,0.252-3.252C78.188,60.018,77.9,57.296,77.79,54.357z"/>
</g>
</svg>
