<?xml version="1.0" encoding="utf-8"?>
<!-- Generator: Adobe Illustrator 16.0.0, SVG Export Plug-In . SVG Version: 6.00 Build 0)  -->
<!DOCTYPE svg PUBLIC "-//W3C//DTD SVG 1.1//EN" "http://www.w3.org/Graphics/SVG/1.1/DTD/svg11.dtd">
<svg version="1.1" id="Layer_1" xmlns="http://www.w3.org/2000/svg" xmlns:xlink="http://www.w3.org/1999/xlink" x="0px" y="0px"
	 width="100px" height="100px" viewBox="0 0 100 100" enable-background="new 0 0 100 100" xml:space="preserve">
<path d="M65.898,9.408c0,0-0.732-0.349-0.698-1.186c0.036-0.836,0.838-1.776,2.336-1.568c1.5,0.208,2.44,1.43,2.058,3.171
	c-0.384,1.744-3.313,2.894-6.311,1.395c-2.996-1.499-3.797-1.986-6.655-1.986c0,0,2.963-0.279,5.854,0.94
	c2.895,1.219,4.74,0.313,5.158-0.627c0.418-0.941-0.104-1.568-0.627-1.568C66.492,7.979,65.585,8.188,65.898,9.408z M59.033,10.906
	c0,0,4.076,1.22,3.415,5.263c0,0,0.87-2.231-0.21-3.416S59.033,10.906,59.033,10.906z M62.973,13.067c0,0,1.741,2.229,0.207,4.426
	c0,0-0.313,0.349-0.035,0.488c0.279,0.14,2.405-1.394,2.196-3.137C65.341,14.844,63.912,13.659,62.973,13.067z M67.219,16.329
	c0,0,5.502,3.528,12.02,1.256c6.521-2.273,9.57-6.698,9.57-6.698s2.034-2.991,4.965-3.11c2.931-0.121,4.844,1.674,5.084,3.587
	c0.238,1.914-0.779,5.203-4.545,5.682c0,0-2.633,0.419-4.308-2.273c0,0-0.237-0.478,0-0.538c0.239-0.06,0.597,0.298,0.897,0.598
	c0.298,0.299,1.854,1.794,3.589,1.256c1.733-0.538,2.212-2.213,2.151-2.99c-0.061-0.778-0.539-2.572-2.631-2.631
	c-2.094-0.06-3.527,1.256-4.128,1.793c-0.597,0.539-5.144,4.427-10.586,5.921c-5.44,1.496-9.987-0.06-12.2-1.555
	C67.1,16.627,66.563,16.089,67.219,16.329z M81.393,16.329c0,0,6.521-3.111,6.043-6.16c-0.479-3.051-4.31-1.196-4.965-0.061
	c0,0-0.24,0.18-0.121,0.419c0.121,0.239,0.719-0.12,0.719-0.12S85.52,9.51,86,10.945C86.477,12.381,83.904,14.833,81.393,16.329z
	 M88.148,10.408c0,0-0.955-2.871,1.379-4.127C89.527,6.281,90.422,8.912,88.148,10.408z M96.193,16.657c0,0-1.195,0.688-2.69,0.659
	c-1.494-0.031-3.229,1.195-3.498,2.482c0,0-0.147,0.449,0.271,0.538c0,0,0.269,0,0.509-0.299c0.239-0.3,0.836-0.568,1.046-0.12
	s0.449,0.478,0.568-0.15c0.119-0.627,0-1.645,1.703-2.123C95.807,17.166,96.193,16.657,96.193,16.657z M94.012,17.823
	c0,0-1.226,0.479-1.285,1.975c0,0,0.029,0.358,0.479-0.031c0.447-0.388,0.447-0.479,0.837-0.299c0.39,0.18,0.299-0.239-0.03-0.718
	C93.684,18.272,93.771,18.123,94.012,17.823z M52.24,1.718c-0.567,0.841-1.037,0.149-1.037,0.149S50.846,1.136,50,1.149
	c-0.847-0.013-1.203,0.718-1.203,0.718s-0.47,0.692-1.039-0.149c-0.603-0.892-1.977-1.136-1.581,0.346
	c0.395,1.484-0.37,3.042,0.742,4.451c0.957,1.211,1.811,1.53,2.748,1.608l0.003,0.022c0.112,0,0.22-0.001,0.33-0.004
	c0.109,0.002,0.218,0.004,0.33,0.004l0.003-0.022c0.937-0.078,1.792-0.397,2.75-1.608c1.11-1.409,0.347-2.967,0.74-4.451
	C54.218,0.582,52.846,0.826,52.24,1.718z M57.625,3.479c-0.982-1.878-2.318-1.096-2.318-1.096s1.096,1.432-0.338,3.875
	C53.762,8.32,50.874,8.852,50,8.969c-0.873-0.117-3.762-0.649-4.968-2.71c-1.434-2.443-0.338-3.875-0.338-3.875
	S43.359,1.6,42.376,3.479c-0.969,1.854-3.623-3.244-5.35,2.022c0,0,3.076-1.432,4.887,1.138c0,0,1.011,1.811,2.78,2.147
	c1.488,0.284,3.484,1.372,4.305,3.266c0.155,0.357,0.269,0.743,0.33,1.158c0,0,0.186,0.535,0.672,0.886
	c0.487-0.351,0.673-0.886,0.673-0.886c0.062-0.415,0.173-0.801,0.329-1.158c0.821-1.894,2.816-2.982,4.305-3.266
	c1.77-0.336,2.78-2.147,2.78-2.147c1.813-2.57,4.888-1.138,4.888-1.138C61.246,0.235,58.593,5.332,57.625,3.479z M34.101,9.408
	c0,0,0.732-0.349,0.698-1.186c-0.036-0.836-0.837-1.776-2.335-1.568c-1.499,0.208-2.44,1.43-2.057,3.171
	c0.382,1.744,3.311,2.894,6.308,1.395c2.997-1.499,3.799-1.986,6.656-1.986c0,0-2.961-0.279-5.854,0.94
	c-2.893,1.219-4.74,0.313-5.158-0.627c-0.418-0.941,0.104-1.568,0.627-1.568C33.51,7.979,34.415,8.188,34.101,9.408z M40.967,10.906
	c0,0-4.078,1.22-3.416,5.263c0,0-0.871-2.231,0.21-3.416C38.841,11.568,40.967,10.906,40.967,10.906z M37.03,13.067
	c0,0-1.742,2.229-0.209,4.426c0,0,0.313,0.349,0.035,0.488c-0.28,0.14-2.406-1.394-2.195-3.137
	C34.66,14.844,36.088,13.659,37.03,13.067z M32.782,16.329c0,0-5.501,3.528-12.021,1.256c-6.52-2.273-9.57-6.698-9.57-6.698
	s-2.034-2.991-4.963-3.11c-2.93-0.121-4.844,1.674-5.084,3.587c-0.239,1.914,0.777,5.203,4.546,5.682c0,0,2.631,0.419,4.306-2.273
	c0,0,0.239-0.478,0-0.538c-0.239-0.06-0.597,0.298-0.896,0.598c-0.299,0.299-1.854,1.794-3.589,1.256
	c-1.734-0.538-2.212-2.213-2.153-2.99c0.059-0.778,0.537-2.572,2.631-2.631c2.094-0.06,3.529,1.256,4.126,1.793
	c0.599,0.539,5.146,4.427,10.587,5.921c5.442,1.496,9.987-0.06,12.2-1.555C32.901,16.627,33.44,16.089,32.782,16.329z
	 M18.607,16.329c0,0-6.519-3.111-6.041-6.16c0.479-3.051,4.306-1.196,4.964-0.061c0,0,0.239,0.18,0.119,0.419
	c-0.119,0.239-0.718-0.12-0.718-0.12s-2.452-0.897-2.93,0.538S16.097,14.833,18.607,16.329z M11.85,10.408
	c0,0,0.956-2.871-1.376-4.127C10.474,6.281,9.577,8.912,11.85,10.408z M3.806,16.657c0,0,1.196,0.688,2.69,0.659
	c1.495-0.031,3.229,1.195,3.499,2.482c0,0,0.149,0.449-0.27,0.538c0,0-0.269,0-0.507-0.299c-0.24-0.3-0.837-0.568-1.047-0.12
	c-0.21,0.449-0.448,0.478-0.568-0.15c-0.12-0.627,0-1.645-1.705-2.123S3.806,16.657,3.806,16.657z M5.988,17.823
	c0,0,1.226,0.479,1.287,1.975c0,0-0.03,0.358-0.479-0.031c-0.448-0.388-0.448-0.479-0.837-0.299c-0.388,0.18-0.299-0.239,0.03-0.718
	C6.317,18.272,6.228,18.123,5.988,17.823z M54.991,20.909c4.774,1.812,7.106-2.788,7.106-2.788s1.047-2.615-0.558-0.349
	c-1.603,2.266-4.286,0.453-4.845-0.313c-0.557-0.766-1.357-0.035-1.357-0.035c-1.301,0.96-2.275,0.41-2.77-0.963h-1.422
	C51.359,17.899,52.199,19.85,54.991,20.909z M79.563,14.705c-0.174-0.592-1.221-0.384-1.221-0.384
	c0.732-1.533-1.15-1.358-0.871-1.742c0.278-0.384,1.079-1.813,0.592-2.195c-0.485-0.382-1.396,0.383-1.396,0.383
	c-2.229,1.708-4.392,2.301-4.392,2.301c-4.146,1.15-8.188-0.94-10.666-2.335c-2.473-1.394-4.947-1.219-4.947-1.219
	c-4.016,0.537-5.141,3.6-5.422,4.734h1.109c0.389-1.83,2.229-3.649,4.452-3.794c2.685-0.174,5.192,1.429,7.667,3.172
	s4.53,2.962,8.715,3.381C77.363,17.423,79.734,15.296,79.563,14.705z M43.337,9.512c0,0-2.474-0.175-4.949,1.219
	c-2.474,1.395-6.518,3.485-10.665,2.335c0,0-2.161-0.593-4.392-2.301c0,0-0.906-0.765-1.394-0.383
	c-0.488,0.383,0.313,1.812,0.593,2.195c0.279,0.384-1.604,0.209-0.872,1.742c0,0-1.045-0.208-1.22,0.384
	c-0.174,0.591,2.196,2.718,6.378,2.3s6.238-1.638,8.714-3.381c2.474-1.743,4.983-3.346,7.668-3.172
	c2.224,0.145,4.063,1.964,4.45,3.794h1.11C48.478,13.112,47.354,10.049,43.337,9.512z M44.661,17.423c0,0-0.802-0.731-1.358,0.035
	c-0.558,0.766-3.241,2.58-4.845,0.313c-1.603-2.266-0.557,0.349-0.557,0.349s2.335,4.6,7.11,2.788
	c2.79-1.059,3.627-3.01,3.843-4.449h-1.423C46.939,17.833,45.96,18.383,44.661,17.423z M52.555,14.551h-5.319
	c-0.422,0-0.767,0.344-0.767,0.767v0.031c0,0.422,0.345,0.767,0.767,0.767h5.319c0.424,0,0.766-0.345,0.766-0.767v-0.031
	C53.32,14.895,52.979,14.551,52.555,14.551z M34.101,90.593c0,0,0.732,0.349,0.698,1.188c-0.036,0.835-0.837,1.774-2.335,1.567
	c-1.499-0.209-2.44-1.43-2.057-3.172c0.382-1.744,3.311-2.894,6.308-1.395c2.997,1.498,3.799,1.986,6.656,1.986
	c0,0-2.961,0.278-5.854-0.941c-2.893-1.221-4.74-0.313-5.158,0.628s0.104,1.567,0.627,1.567
	C33.51,92.021,34.415,91.813,34.101,90.593z M40.967,89.095c0,0-4.078-1.221-3.416-5.263c0,0-0.871,2.23,0.21,3.415
	C38.841,88.432,40.967,89.095,40.967,89.095z M37.03,86.934c0,0-1.742-2.229-0.209-4.427c0,0,0.313-0.348,0.035-0.487
	c-0.28-0.14-2.406,1.396-2.195,3.137C34.66,85.155,36.088,86.341,37.03,86.934z M32.782,83.671c0,0-5.501-3.528-12.021-1.254
	c-6.52,2.271-9.57,6.697-9.57,6.697s-2.034,2.989-4.963,3.11c-2.93,0.119-4.844-1.676-5.084-3.589
	c-0.239-1.915,0.777-5.204,4.546-5.683c0,0,2.631-0.419,4.306,2.271c0,0,0.239,0.479,0,0.539c-0.239,0.061-0.597-0.3-0.896-0.598
	c-0.299-0.301-1.854-1.795-3.589-1.256c-1.734,0.537-2.212,2.213-2.153,2.988c0.059,0.776,0.537,2.572,2.631,2.633
	c2.094,0.06,3.529-1.256,4.126-1.795c0.599-0.539,5.146-4.426,10.587-5.92c5.442-1.496,9.987,0.06,12.2,1.555
	C32.901,83.373,33.44,83.912,32.782,83.671z M18.607,83.671c0,0-6.519,3.111-6.041,6.161c0.479,3.05,4.306,1.195,4.964,0.061
	c0,0,0.239-0.18,0.119-0.42c-0.119-0.238-0.718,0.12-0.718,0.12s-2.452,0.896-2.93-0.536C13.524,87.62,16.097,85.168,18.607,83.671z
	 M11.85,89.593c0,0,0.956,2.871-1.376,4.127C10.474,93.72,9.577,91.089,11.85,89.593z M3.806,83.344c0,0,1.196-0.688,2.69-0.658
	c1.495,0.029,3.229-1.196,3.499-2.481c0,0,0.149-0.448-0.27-0.538c0,0-0.269,0-0.507,0.3c-0.24,0.298-0.837,0.567-1.047,0.118
	c-0.21-0.447-0.448-0.479-0.568,0.148c-0.12,0.629,0,1.646-1.705,2.123C4.193,82.836,3.806,83.344,3.806,83.344z M5.988,82.177
	c0,0,1.226-0.479,1.287-1.974c0,0-0.03-0.358-0.479,0.029c-0.448,0.39-0.448,0.479-0.837,0.3c-0.388-0.181-0.299,0.239,0.03,0.717
	C6.317,81.729,6.228,81.878,5.988,82.177z M47.758,98.282c0.569-0.839,1.039-0.147,1.039-0.147s0.356,0.73,1.203,0.717
	c0.846,0.015,1.203-0.717,1.203-0.717s0.47-0.691,1.037,0.147c0.605,0.893,1.978,1.137,1.583-0.347
	c-0.396-1.482,0.37-3.041-0.74-4.449c-0.958-1.211-1.813-1.531-2.75-1.609l-0.003-0.021c-0.112,0-0.221,0.002-0.33,0.006
	c-0.109-0.004-0.218-0.006-0.33-0.006l-0.003,0.021c-0.938,0.078-1.792,0.398-2.748,1.609c-1.112,1.408-0.347,2.967-0.742,4.449
	C45.782,99.419,47.156,99.175,47.758,98.282z M42.376,96.521c0.982,1.879,2.317,1.096,2.317,1.096s-1.096-1.432,0.338-3.876
	c1.207-2.062,4.095-2.593,4.968-2.71c0.874,0.117,3.761,0.648,4.969,2.71c1.435,2.444,0.339,3.876,0.339,3.876
	s1.334,0.783,2.317-1.096c0.968-1.854,3.621,3.244,5.349-2.022c0,0-3.074,1.435-4.887-1.138c0,0-1.012-1.811-2.779-2.146
	c-1.488-0.283-3.483-1.373-4.306-3.267c-0.155-0.355-0.269-0.743-0.329-1.157c0,0-0.186-0.535-0.673-0.886
	c-0.486,0.351-0.672,0.886-0.672,0.886c-0.061,0.414-0.174,0.802-0.33,1.157c-0.82,1.894-2.816,2.983-4.305,3.267
	c-1.769,0.337-2.78,2.146-2.78,2.146c-1.811,2.57-4.887,1.138-4.887,1.138C38.754,99.768,41.407,94.669,42.376,96.521z
	 M65.898,90.593c0,0-0.732,0.349-0.698,1.188c0.036,0.835,0.838,1.774,2.336,1.567c1.5-0.209,2.44-1.43,2.058-3.172
	c-0.384-1.744-3.313-2.894-6.311-1.395c-2.996,1.498-3.797,1.986-6.655,1.986c0,0,2.963,0.278,5.854-0.941
	c2.895-1.221,4.74-0.313,5.158,0.628s-0.104,1.567-0.627,1.567C66.492,92.021,65.585,91.813,65.898,90.593z M59.033,89.095
	c0,0,4.076-1.221,3.415-5.263c0,0,0.87,2.23-0.21,3.415S59.033,89.095,59.033,89.095z M62.973,86.934c0,0,1.741-2.229,0.207-4.427
	c0,0-0.313-0.348-0.035-0.487c0.279-0.14,2.405,1.396,2.196,3.137C65.341,85.155,63.912,86.341,62.973,86.934z M67.219,83.671
	c0,0,5.502-3.528,12.02-1.254c6.521,2.271,9.57,6.697,9.57,6.697s2.034,2.989,4.965,3.11c2.931,0.119,4.844-1.676,5.084-3.589
	c0.238-1.915-0.779-5.204-4.545-5.683c0,0-2.633-0.419-4.308,2.271c0,0-0.237,0.479,0,0.539c0.239,0.061,0.597-0.3,0.897-0.598
	c0.298-0.301,1.854-1.795,3.589-1.256c1.733,0.537,2.212,2.213,2.151,2.988c-0.061,0.776-0.539,2.572-2.631,2.633
	c-2.094,0.06-3.527-1.256-4.128-1.795c-0.597-0.539-5.144-4.426-10.586-5.92c-5.44-1.496-9.987,0.06-12.2,1.555
	C67.1,83.373,66.563,83.912,67.219,83.671z M81.393,83.671c0,0,6.521,3.111,6.043,6.161c-0.479,3.05-4.31,1.195-4.965,0.061
	c0,0-0.24-0.18-0.121-0.42c0.121-0.238,0.719,0.12,0.719,0.12S85.52,90.489,86,89.057C86.477,87.62,83.904,85.168,81.393,83.671z
	 M88.148,89.593c0,0-0.955,2.871,1.379,4.127C89.527,93.72,90.422,91.089,88.148,89.593z M96.193,83.344c0,0-1.195-0.688-2.69-0.658
	c-1.494,0.029-3.229-1.196-3.498-2.481c0,0-0.147-0.448,0.271-0.538c0,0,0.269,0,0.509,0.3c0.239,0.298,0.836,0.567,1.046,0.118
	c0.21-0.447,0.449-0.479,0.568,0.148c0.119,0.629,0,1.646,1.703,2.123C95.807,82.836,96.193,83.344,96.193,83.344z M94.012,82.177
	c0,0-1.226-0.479-1.285-1.974c0,0,0.029-0.358,0.479,0.029c0.447,0.39,0.447,0.479,0.837,0.3c0.39-0.181,0.299,0.239-0.03,0.717
	C93.684,81.729,93.771,81.878,94.012,82.177z M45.011,79.092c-4.775-1.812-7.11,2.788-7.11,2.788s-1.046,2.615,0.557,0.349
	c1.604-2.266,4.287-0.453,4.845,0.313c0.557,0.767,1.358,0.034,1.358,0.034c1.299-0.959,2.278-0.408,2.77,0.965h1.423
	C48.638,82.102,47.801,80.15,45.011,79.092z M20.438,85.295c0.175,0.594,1.22,0.385,1.22,0.385
	c-0.731,1.533,1.151,1.359,0.872,1.742c-0.28,0.383-1.082,1.813-0.593,2.196c0.488,0.383,1.394-0.386,1.394-0.386
	c2.231-1.707,4.392-2.299,4.392-2.299c4.147-1.149,8.191,0.939,10.665,2.334c2.475,1.395,4.949,1.219,4.949,1.219
	c4.016-0.534,5.141-3.598,5.422-4.732h-1.11c-0.387,1.829-2.227,3.648-4.45,3.795c-2.685,0.174-5.194-1.431-7.668-3.173
	c-2.476-1.742-4.532-2.961-8.714-3.381C22.634,82.576,20.265,84.703,20.438,85.295z M56.662,90.486c0,0,2.477,0.176,4.947-1.219
	c2.478-1.395,6.52-3.483,10.666-2.334c0,0,2.162,0.592,4.392,2.299c0,0,0.909,0.769,1.396,0.386
	c0.487-0.386-0.313-1.813-0.592-2.196s1.604-0.209,0.871-1.742c0,0,1.047,0.209,1.221-0.385c0.174-0.592-2.197-2.719-6.377-2.3
	c-4.186,0.42-6.24,1.639-8.715,3.381c-2.476,1.742-4.982,3.347-7.668,3.173c-2.224-0.146-4.064-1.966-4.451-3.795h-1.11
	C51.521,86.891,52.646,89.952,56.662,90.486z M55.339,82.576c0,0,0.802,0.732,1.358-0.034c0.558-0.769,3.242-2.579,4.844-0.313
	c1.604,2.268,0.559-0.349,0.559-0.349s-2.334-4.6-7.107-2.788c-2.792,1.061-3.631,3.01-3.844,4.449h1.422
	C53.063,82.168,54.038,81.617,55.339,82.576z M47.447,85.449h5.317c0.422,0,0.769-0.344,0.769-0.768v-0.029
	c0-0.424-0.347-0.767-0.769-0.767h-5.317c-0.424,0-0.768,0.343-0.768,0.767v0.029C46.68,85.105,47.023,85.449,47.447,85.449z"/>
</svg>
