<?xml version="1.0" encoding="utf-8"?>
<!-- Generator: Adobe Illustrator 15.1.0, SVG Export Plug-In . SVG Version: 6.00 Build 0)  -->
<!DOCTYPE svg PUBLIC "-//W3C//DTD SVG 1.1//EN" "http://www.w3.org/Graphics/SVG/1.1/DTD/svg11.dtd">
<svg version="1.1" id="Layer_1" xmlns="http://www.w3.org/2000/svg" xmlns:xlink="http://www.w3.org/1999/xlink" x="0px" y="0px"
	 width="100px" height="100px" viewBox="0 0 100 100" enable-background="new 0 0 100 100" xml:space="preserve">
<g>
	<path d="M38.927,10.115c-0.016,0.028-0.03,0.06-0.044,0.09c0.028,0,0.06,0,0.088,0C38.955,10.175,38.943,10.143,38.927,10.115z"/>
	<path d="M56.224,17.605c0.06,0,0.116,0,0.176,0c-0.132-0.12-0.265-0.239-0.396-0.361c0.013,0.074,0.028,0.151,0.044,0.226
		C56.106,17.516,56.164,17.562,56.224,17.605z"/>
	<path d="M89.49,95.956c-0.088-0.119-0.177-0.239-0.265-0.358c-0.119-0.358-0.072-1.05-0.136-1.354
		c-0.265-1.362-0.057-2.673-0.661-4.019c-0.334-0.749-0.709-1.83-1.149-2.573c-0.41-0.688-1.005-1.326-1.374-2.074
		c-1.304-2.67-2.198-5.47-3.36-8.259c-0.778-1.873-2.038-3.68-2.564-5.823c-0.013-0.677-0.028-1.354-0.044-2.031
		c-0.12-0.346-0.236-0.691-0.356-1.04c-0.211-1.129,0.025-2.087-0.217-3.113c-0.151-0.614-0.3-1.235-0.444-1.85
		c-0.233-1.506,0.344-3.028,0.085-4.558c-0.412-2.459-1.071-4.513-1.326-6.592c-0.186-1.526,0.435-2.357,0.268-4.016
		c-0.119-1.174,0.025-2.512,0.221-3.747c0.06-1.037,0.12-2.076,0.177-3.112c0.34-2.192-0.296-5.153-0.577-6.906
		c0.032-1.036,0.063-2.076,0.092-3.114c-0.016-1.339-0.028-2.677-0.044-4.016c-0.048-1.393,0.164-3.126-0.268-4.919
		c-0.728-3.049-5.438-0.936-6.104-3.701c0.255-0.559,0.525-1.072,0.399-1.987c-0.044-0.194-0.091-0.389-0.136-0.586
		c0.11-0.599,0.842-0.761,0.93-1.309c-0.072-0.195-0.145-0.391-0.221-0.587c0.117-0.512,0.236-1.022,0.354-1.534
		c0.019-0.03,0.034-0.06,0.044-0.089c-0.01,0.316-0.025,0.63-0.044,0.948c0.019,0,0.034,0,0.044,0
		c0.176-1.168,0.047-2.083,0.135-3.25c0.045,0,0.089,0,0.13,0c0.63-0.794-0.13-2.4-0.441-2.887
		c-0.998-1.564-2.555-5.138-5.305-4.558c-0.689,0.143-0.844,0.471-1.285,0.765c-0.658,0.439-1.229,0.51-1.726,1.083
		c-2.328,2.693-2.461,7.338-2.212,11.013c-0.072,0.031-0.147,0.06-0.221,0.091c0.413,0.329,0.58,1.156,0.838,1.624
		c-0.072,0.06-0.145,0.122-0.22,0.181c-0.028,0-0.057,0-0.089,0c0.233,0.109,0.567,0.014,0.577,0c0.016,0,0.028,0,0.04,0
		c0.017,0,0.035,0,0.048,0c0.098,0.06,0.312,1.112,0.309,1.128c0.148,0.104,0.296,0.211,0.444,0.316
		c-0.637,0.48-1.27,0.962-1.902,1.443c-2.164-0.506-4.389,1.316-4.515,3.205c-0.025,0.014-0.057,0.03-0.088,0.045
		c-0.299-1.142-1.354-1.42-2.12-2.077c0.198-0.333,0.136-0.855-0.047-1.262c0.164,0,0.324,0,0.485,0
		c0.016-0.077,0.031-0.151,0.044-0.227c-0.161-0.03-0.321-0.061-0.482-0.089c0.057-0.4,0.215-0.34,0.353-0.588
		c0.388-0.708-0.466-1.028-0.708-1.398c0.438-0.444,0.135-1.144,0.044-1.536c0.145-0.209,0.293-0.419,0.44-0.63
		c0.032-0.016,0.061-0.031,0.089-0.046c0.147,0.285,0.296,0.572,0.444,0.858c0.028,0.014,0.057,0.03,0.088,0.046
		c-0.013-0.062-0.031-0.123-0.044-0.181c0.16-0.016,0.324-0.031,0.484-0.047c0-0.014,0-0.03,0-0.044
		c-0.16-0.076-0.324-0.151-0.484-0.227c-0.016-0.03-0.032-0.06-0.044-0.088c0.214-1.088,0.73-1.249-0.577-1.896
		c0.022-1.227,0.775-1.898-0.797-2.348c0.016-0.255,0.031-0.51,0.044-0.766c-0.163-0.485-0.651-0.435-0.926-0.769
		c-0.195-0.438-0.384-0.873-0.576-1.309c-0.3-0.48-0.873-0.805-1.15-1.263c-0.362-0.597-0.463-0.945-0.973-1.444
		c-0.422-0.411-0.545-1.132-1.194-1.309c-0.075-0.207-0.075-0.063,0.041-0.226c-0.765-0.291-1.953-1.131-2.696-1.129
		c0.028-0.046,0.06-0.088,0.088-0.136c-0.132,0.06-0.05-0.001-0.132,0.09c-0.611,0.064-0.633-0.573-1.415-0.405
		c-0.416,0.088-0.486,0.329-0.797,0.451c-0.387,0.154-0.795-0.137-1.282,0.047c-0.712,0.265-2.437,1.262-1.859,2.21
		c-0.521,0.383-2.069,2.076-1.682,2.708c-0.34,0.234-0.353,0.728-0.752,0.948c-0.155,0.241-0.158,0.173,0.044,0.407
		c-0.103,0.696-0.542,0.847-0.707,1.444c-0.024,0.014-0.397,1.21-0.443,1.58c0.088,0.074,0.06,0.061,0.224,0.089
		c-0.266,0.336-0.532,0.674-0.356,1.174c-0.224,0.287-0.442,0.571-0.665,0.858c0.016,0.255,0.032,0.512,0.044,0.769
		c0.114,0.275,0.214,0.408,0.621,0.406c-0.337,0.581-0.684,1.088-0.575,1.895c-0.703,0.117-1.236-0.561-1.728-0.858
		c-1.422-0.873-3.497-1.468-3.494-3.792c0.028-0.044,0.06-0.088,0.088-0.135c0.045,0,0.091,0,0.135,0
		c0.104,0.387,0.117,0.863,0.175,1.31c0.014,0,0.03,0,0.044,0c0.138-0.332,0.278-0.493,0.264-1.038c0.032,0,0.062,0,0.09,0
		c0.082,0.362,0.353,0.565,0.398,0.856c0.159,0.013,0.051,0.051,0.131-0.09c0.104,0.076,0.208,0.151,0.312,0.227
		c-0.016-0.151-0.028-0.302-0.044-0.452c0.362-0.621-0.045-1.023-0.134-1.715c0.074-0.393,0.15-0.783,0.222-1.173
		c0.145-0.101,0.164-0.148,0.398-0.18c0.014-0.197,0.028-0.394,0.042-0.587c0.158,0.066,0.123,0.077,0.222,0.181
		c0,0.03,0,0.058,0,0.089c0.014,0,0.03,0,0.044,0c-0.064-0.633-0.277-1.211-0.222-1.671c0.098-0.808,0.58-1.877,0.356-2.708
		c-0.773-2.866-4.662-6.766-7.831-3.836c-0.52,0.482-1.266,1.055-1.638,1.669c-0.75,1.249-1.487,5.24-0.926,7.176
		c0.142,0.5,0.468,0.439,0.706,0.77c0.561,0.775,0.397,1.392,0.353,2.391c0.172-0.173,0.394-0.379,0.441-0.585
		c0.211,0.049,0.146,0.006,0.224,0.179c0.255-0.161,0.409-0.275,0.444-0.679c0.044,0,0.085,0,0.132,0c0,0.543,0.04,1.036-0.176,1.4
		c-0.564,0.937-3.421,2.791-4.601,3.069c-0.49,0.115-1.098-0.351-1.596-0.181c-0.746,0.257-1.679,1.1-1.943,1.851
		c-0.65,1.83-0.45,3.908-0.135,5.821c-0.073,1.01-0.148,2.019-0.221,3.025c0,0.753,0,1.504,0,2.257
		c-0.132,0.887-0.265,1.775-0.398,2.663c-0.351,1.142-0.707,2.285-1.063,3.429c-0.669,2.885-0.419,6.064-1.059,8.891
		c-0.446,1.964-1.496,3.463-2.301,5.054c0.026,0.439,0.211,0.63,0.31,0.948c0.517,1.666,0.586,2.671,2.078,3.339
		c0.028,0.031,0.061,0.062,0.089,0.093c0.088-0.135,0.175-0.271,0.265-0.407c0.268,0.006,0.334,0.044,0.488,0.137
		c0.028-0.016,0.057-0.031,0.088-0.047c0.145-0.271,0.157-0.577,0.22-0.901c-0.151-0.307-0.287-0.376-0.619-0.496
		c0.017-0.55-0.046-1.523,0.219-2.123c0.176-0.394,0.457-0.74,0.577-1.217c0.205-0.832-0.24-1.495-0.088-2.122
		c0.616-2.577,2.041-4.689,2.654-7.266c0.014,0,0.03,0,0.046,0c0.523,0.672-0.649,2.957-0.841,3.519
		c-0.428,2.197-0.854,4.394-1.285,6.592c-0.192,0.772-0.765,2.921-0.617,3.791c0.227,1.332,0.384,3.021,0.663,4.375
		c0.159,0.786-0.386,3.324-0.531,4.109c-0.161,0.875-0.066,1.412-0.268,1.984c0.151,0.348,0.104,2.699-0.088,3.113
		c-0.893,1.942-1.959,3.777-2.652,6.048c-0.825,2.706-1.112,5.495-2.214,7.988c-0.781,1.777-2.016,3.815-2.52,6.004
		c-0.18,0.778,0.129,1.663,0,2.305c-0.391,1.89,0.099,3.91,0.312,5.729c0.589,0.311,1.002,0.476,2.035,0.452
		c0.901-0.879,0.343-4.818,1.105-5.912c0.773-1.114,3.046-1.254,3.76-2.709c-0.028-0.423-0.265-0.432-0.311-0.678
		c-0.041-0.237,0.202-0.425,0.222-0.767c-0.103-0.089-0.209-0.182-0.31-0.271c-0.134-0.014-0.265-0.029-0.398-0.046
		c-0.014-0.089-0.03-0.181-0.046-0.269c-0.107-0.248-0.299-0.375-0.617-0.406c-0.47-1.379,0.305-2.298,0.927-3.384
		c0.786-1.375,1.397-2.802,2.301-4.063c0.564-0.785,1.455-1.132,1.903-2.075c0.791-1.68,1.036-3.513,1.414-5.688
		c0.062-0.887,0.118-1.775,0.18-2.663c0.208-0.812,0.739-1.493,0.973-2.349c0.791-2.894,1.137-5.873,2.079-8.574
		c0.873-2.511,2.205-4.969,1.991-8.258c0.318-0.096,0.473-0.075,0.573-0.408c0.254,0.045,0.271,0.057,0.577,0.045
		c0.132,0.188,0.353,0.586,0.573,0.677c-0.572,2.08,0.463,5.093,0.975,6.635c0.964,2.904,1.175,6.191,1.813,9.478
		c0.118,0.573,0.236,1.142,0.353,1.715c0.208,0.437,0.416,0.874,0.622,1.307c0.039,0.224-0.262,1.886-0.357,2.305
		c-0.17,0.764-0.7,1.403-1.06,1.984c-0.717,1.161-1.195,2.467-1.857,3.611c-0.384,0.858-0.766,1.714-1.15,2.572
		c-0.901,1.804-1.707,3.296-2.479,5.326c-0.287,0.755-0.961,1.31-1.414,1.896c-0.267,0.568-0.533,1.142-0.797,1.714
		c-0.472,0.828-0.945,1.655-1.414,2.483c-0.091,0.901-0.18,1.805-0.265,2.708c-0.347,1.078-0.672,3.063-0.621,4.512
		c0.25,0.271,0.498,0.542,0.75,0.813c2.602,0.013,2.353-3.889,3.585-5.37c0.77-0.923,1.49-0.396,2.478-0.768
		c0.457-0.242,0.915-0.481,1.37-0.723c0.086-0.36-0.127-0.509-0.087-0.766c0.087-0.154,0.177-0.302,0.265-0.452
		c0.098-0.505-0.299-1.306-0.663-1.399c-0.474-1.473,0.498-2.599,1.192-3.61c1.139-1.563,2.274-3.129,3.408-4.693
		c0.555-0.581,1.262-0.945,1.681-1.671c0.03,0,0.058,0,0.086,0c0.671,0.512,0.852,1.411,1.285,2.167
		c0.844,1.475,2.508,4.054,2.256,5.775c-0.542-0.018-0.833,0.202-0.884,0.681c-0.257-0.021-0.307-0.015-0.531,0.042
		c-0.365,0.655,0.003,1.685-0.044,2.168c0.54,0.313,2.892,1.833,3.185,2.257c0.517,0.735,0.299,2.507,0.619,3.563
		c0.252,0.724,0.502,1.446,0.751,2.168c0.917,0.362,0.92,0.029,1.904,0c0.401-0.935,0.545-2.788,0.354-3.927
		c0.328-0.588-0.22-1.668,0.085-2.755c0.343-1.205-0.282-2.854-0.662-3.926c-0.832-2.338-1.789-4.371-2.521-6.905
		c-1.052-3.63-1.249-6.705-2.92-9.657c0.474-1.114,0.945-2.228,1.416-3.34c1.027-2.532,2.07-4.663,3.144-7.131
		c0.767-1.773,1.887-3.777,2.12-5.87c0.132-0.013,0.266-0.027,0.4-0.043c0-0.121,0-0.24,0-0.36c0.337-0.067,0.577-0.112,0.838-0.316
		c0.249,0.146,0.684,0.26,0.841,0.497c0.491,0.731,0.479,1.629,0.753,2.616c0.633,1.729,1.27,3.461,1.902,5.189
		c0.696,1.58,1.386,3.16,2.08,4.741c0.384,1.219,0.769,2.437,1.149,3.654c0.381,0.973,1.175,1.535,1.282,2.753
		c0.06,0.663-1.796,3.901-2.123,4.694c-0.996,2.434-1.724,4.792-2.829,7.176c-0.334,0.72-0.977,1.311-1.417,1.94
		c-0.343,0.49-0.762,1.853-1.014,2.484c-0.802,1.954-0.583,4.887-0.933,7.04c-0.115,0.71-0.186,2.466,0.266,2.751
		c0.635,0.018,1.268,0.032,1.901,0.048c0.236-0.528,0.469-1.054,0.706-1.582c0.331-1.181,0.624-3.73,1.373-4.422
		c1.04-0.953,2.514-1.15,3.408-2.257c-0.069-0.581,0.004-0.69,0-1.218c-0.718-0.311-0.777-0.997-1.329-1.129
		c-0.013-0.272-0.173-0.749-0.132-1.038c0.101-0.683,0.661-1.374,0.973-1.895c0.876-1.46,2.266-4.467,3.762-5.146
		c0.46-0.223,1.754,2.375,2.079,2.888c0.487,0.771,3.09,4.042,2.92,4.967c-0.133,0.728-0.64,1.023-0.886,1.712
		c-0.211,0.594,0.061,0.913-0.176,1.355c0.06,1.191,2.561,1.47,3.316,2.03c1.012,0.751,1.141,2.171,1.683,3.566
		c0.265,0.571,0.532,1.143,0.793,1.713c0.362,0.271,1.245,0.336,1.818,0.271c0.236-0.297,0.412-0.444,0.481-0.855
		c0.151-0.841-0.265-1.799-0.394-2.484c-0.142-0.746,0.013-1.278-0.136-1.939c-0.211-0.964-0.066-1.835-0.35-2.574
		c-0.327-0.6-0.652-1.203-0.974-1.803c-0.224-0.679-0.447-1.356-0.664-2.032c-0.34-0.526-0.804-1.006-1.062-1.625
		c-1.182-2.796-2.164-5.407-3.364-8.214c-0.63-1.476-1.683-2.816-2.035-4.377c-0.204-0.91,1.346-4.015,1.635-5.1
		c1.018-3.768,2.457-6.801,4.073-9.887c0.674-1.285,0.668-2.789,1.238-4.242c0.208-0.118,0.412-0.24,0.62-0.361
		c-0.016-0.119-0.031-0.239-0.047-0.36c0.163-0.213,0.324-0.422,0.488-0.632c0.044,0,0.091,0,0.132,0
		c0.287,0.233,0.385,0.572,0.621,0.858c0.309,0.255,0.617,0.512,0.929,0.768c0.18,0.811,0.353,1.625,0.529,2.437
		c0.592,1.566,1.178,3.129,1.771,4.693c0.16,0.541,0.327,1.083,0.484,1.627c1.396,2.738,2.287,6.271,3.141,9.477
		c0.545,2.035,0.729,4.396,1.598,6.228c0.337,0.602,0.677,1.203,1.014,1.807c0.562,0.738,1.393,1.052,1.906,1.896
		c0.945,1.555,3.987,5.618,3.446,7.354c-0.249,0.31-0.63,0.442-0.618,1.219c-0.387,0.072-0.497,0.134-0.708,0.362
		c0.075,0.42,0.296,0.565,0.132,1.039c0.86,0.89,2.731,0.93,3.452,1.939c0.911,1.275,1.48,4.393,2.035,6.093
		c0.763,0.164,1.313-0.124,2.123-0.134c0.06-0.392,0.116-0.782,0.177-1.176c-0.061-0.706-0.117-1.413-0.177-2.12
		C89.279,96.462,89.547,96.226,89.49,95.956z M21.098,33.765c-0.044,0-0.088,0-0.134,0c0.105-0.934,0.206-1.868,0.31-2.798
		c0.047,0,0.088,0,0.132,0c0.077,0.778,0.006,1.365,0.136,2.076C21.303,33.184,21.133,33.409,21.098,33.765z M55.691,52.312
		c-0.596-0.294-0.454-1.737-0.662-2.345c-0.063-0.188-0.355-0.315-0.443-0.542l-0.262-1.49c0.041-0.15,0.085-0.301,0.132-0.452
		c-0.34-1.306-1.03-2.57-0.888-4.016c-0.536-0.745-0.262-1.195-0.485-2.257c-0.236-0.887-0.473-1.773-0.706-2.664
		c-0.296-1.691,0.539-3.192,0.838-4.422c0.136-0.556,0.089-1,0.177-1.488c0.044,0,0.088,0,0.136,0
		c0.101,1.036,0.204,2.076,0.309,3.114c-0.016,1.173-0.031,2.347-0.044,3.52c0.306,1.687,0.573,3.604,0.885,5.417
		c0.34,2,0.491,3.943,0.838,5.775c0.06,0.557,0.12,1.115,0.177,1.671C55.691,52.192,55.691,52.254,55.691,52.312z M61.622,36.427
		c-0.224,0.595-0.019,0.792-0.135,1.219c-0.205,0.465-0.413,0.933-0.621,1.399c-0.013,0.36-0.025,0.723-0.044,1.083
		c-0.381,1.025-0.916,2.098-1.19,3.25c-0.198,0.822,0.208,2.511,0.088,3.021c-0.104,0.427-0.504,0.879-0.62,1.221
		c0.016,0.149,0.028,0.301,0.044,0.45c-0.18,0.542-0.353,1.083-0.529,1.624c-0.016,0-0.031,0-0.044,0
		c-0.511-0.665,0.142-4.215,0.309-4.919c0.368-1.558,0.535-3.175,0.841-5.054c0.013-1.144,0.031-2.287,0.041-3.432
		c0.347-1.838,1.008-3.835,0.974-5.73c0.514,0.318,0.132,0.915,0.268,1.578c0.082,0.416,0.041,1.054,0.129,1.534
		C61.226,34.152,61.922,35.626,61.622,36.427z M74.846,41.796c-0.232-1.344-1.257-3.755-1.058-5.19
		c0.072-0.57,0.147-1.143,0.22-1.713c0.133-0.195,0.265-0.392,0.4-0.586c0.06-0.491-0.136-1.011,0.044-1.581
		c0.187,0.261,0.11,0.742,0.174,1.127c0.145,0.841,0.374,1.92,0.22,2.889c-0.041,0.663-0.085,1.324-0.132,1.986
		c0.148,1.339,0.296,2.681,0.444,4.016c0.273,1.386,0.633,2.886,0.62,4.514C74.812,46.007,75.187,43.73,74.846,41.796z"/>
	<path d="M55.383,20.675c0.063-0.091,0.037-0.071,0.044-0.137C55.414,20.584,55.398,20.631,55.383,20.675z"/>
</g>
</svg>
