<?xml version="1.0" encoding="utf-8"?>
<!-- Generator: Adobe Illustrator 15.0.0, SVG Export Plug-In . SVG Version: 6.00 Build 0)  -->
<!DOCTYPE svg PUBLIC "-//W3C//DTD SVG 1.1//EN" "http://www.w3.org/Graphics/SVG/1.1/DTD/svg11.dtd">
<svg version="1.1" id="Picasa" xmlns="http://www.w3.org/2000/svg" xmlns:xlink="http://www.w3.org/1999/xlink" x="0px" y="0px"
	 width="100px" height="100px" viewBox="0 0 100 100" enable-background="new 0 0 100 100" xml:space="preserve">
<path fill-rule="evenodd" clip-rule="evenodd" d="M50,0C22.386,0,0,22.386,0,50s22.386,50,50,50c27.614,0,50-22.386,50-50
	S77.614,0,50,0z M48.57,17.19c6.841-0.331,12.971,1.537,17.177,3.96c0.269,6.56,0.362,13.281,0.603,19.867
	c0.001,0.195-0.644-0.331-0.829-0.486c-6.327-5.298-12.746-10.835-19.135-16.185c-2.24-1.876-4.586-3.62-6.629-5.626
	C42.494,17.875,45.202,17.354,48.57,17.19z M17.759,56.369c-2.355-12.694,2.481-22.938,8.889-29.523
	c2.272-2.335,5.242-4.493,7.985-5.835c4.217,3.568,8.381,7.184,12.582,10.768C37.821,39.8,28.122,47.694,18.662,55.744
	C18.396,55.971,18.149,56.313,17.759,56.369z M30.942,76.723c-2.504-1.608-4.86-3.971-6.705-6.321
	c-1.764-2.249-3.172-4.649-4.444-7.571c-0.186-0.427-0.543-0.916-0.527-1.111c0.028-0.356,0.895-0.98,1.355-1.39
	c1.464-1.3,2.983-2.72,4.37-3.891c2.243-1.893,4.149-3.553,6.027-5.279c0.278,8.428,0.212,17.171,0.377,25.702
	C31.261,77.14,30.998,76.759,30.942,76.723z M63.562,79.917c-3.472,1.61-8.202,2.773-13.108,2.918
	c-5.108,0.151-9.634-1.113-13.335-2.708c0.012-5.224,0.099-10.376,0.151-15.562c14.137,0.046,28.047-0.118,42.188-0.069
	C76.185,71.237,70.779,76.572,63.562,79.917z M81.19,60.468c-3.391,0-6.78,0-10.171,0c-0.144-11.908-0.249-23.852-0.301-35.844
	c-0.021-0.125,0.07-0.142,0.075-0.069c4.564,3.659,8.177,8.648,10.32,14.796c1.046,2.995,1.733,6.713,1.733,10.559
	C82.848,53.731,82.253,57.378,81.19,60.468z"/>
</svg>
