<?xml version="1.0" encoding="utf-8"?>
<!-- Generator: Adobe Illustrator 16.0.0, SVG Export Plug-In . SVG Version: 6.00 Build 0)  -->
<!DOCTYPE svg PUBLIC "-//W3C//DTD SVG 1.1//EN" "http://www.w3.org/Graphics/SVG/1.1/DTD/svg11.dtd">
<svg version="1.1" id="Layer_1" xmlns="http://www.w3.org/2000/svg" xmlns:xlink="http://www.w3.org/1999/xlink" x="0px" y="0px"
	 width="100px" height="100px" viewBox="0 0 100 100" enable-background="new 0 0 100 100" xml:space="preserve">
<path fill="#424497" d="M3.119,93.434c1.179,0,2.135,0.955,2.135,2.135c0,1.179-0.956,2.135-2.135,2.135s-2.135-0.956-2.135-2.135
	C0.984,94.389,1.94,93.434,3.119,93.434z M12.4,73.686c1.224,1.605,0.916,3.9-0.69,5.121c-1.604,1.227-3.897,0.918-5.123-0.687
	c-1.222-1.604-0.914-3.901,0.692-5.125C8.882,71.771,11.175,72.08,12.4,73.686z M23.215,58.453c2.836,0,5.135,2.299,5.135,5.135
	s-2.299,5.135-5.135,5.135s-5.135-2.299-5.135-5.135S20.379,58.453,23.215,58.453z M40.8,53.034c4.21,0,7.623,3.413,7.623,7.623
	S45.01,68.28,40.8,68.28c-4.21,0-7.623-3.413-7.623-7.623S36.59,53.034,40.8,53.034z"/>
<path fill="#089FC5" d="M68.245,40.627c4.558,4.098,4.932,11.113,0.834,15.669c-4.099,4.56-11.111,4.931-15.668,0.83
	c-4.558-4.095-4.929-11.108-0.832-15.666C56.674,36.904,63.689,36.533,68.245,40.627z"/>
<circle fill="#83B948" cx="74.202" cy="35.931" r="13.152"/>
<path fill="#EABD1E" d="M93.716,6.395c6.566,5.902,7.104,16.011,1.201,22.578c-5.901,6.563-16.01,7.104-22.576,1.198
	c-6.565-5.899-7.103-16.012-1.2-22.575C77.045,1.03,87.15,0.492,93.716,6.395z"/>
</svg>
