<svg xmlns="http://www.w3.org/2000/svg" width="205.65" height="395.85" viewBox="0 0 205.65 395.85" id="svgcontent" x="0" y="0" overflow="hidden"><g mask="" style="pointer-events:all"><title style="pointer-events:inherit">Layer 1</title><rect stroke-width="0" transform="rotate(90, 173.52, 102.898)" id="svg_24" height="56" width="179" y="74.89764" x="84.02029" stroke="#000000" fill="#003f7f" display="null" style="pointer-events:inherit"/><path fill-opacity="0" id="svg_56" d="M112.95097,160.45923C114.49749,158.46478 117.06661,155.95484 117.51452,153.44771C117.32296,153.38574 117.12859,153.32378 116.86941,153.32378C116.9342,152.87023 116.93138,152.42514 116.93138,152.03641C121.56535,145.86437 125.35984,137.5683 124.38797,129.65818C121.04984,128.24407 115.58205,131.13712 113.91157,133.96822C113.91157,138.14579 113.01013,142.97132 110.88893,146.63343C110.88893,147.98276 111.59319,149.07856 112.23827,150.23353C112.11432,150.42793 111.98474,150.62231 111.79318,150.87864C111.33684,150.74624 110.24666,149.3997 109.28323,148.88419C108.4466,148.8814 107.54515,148.88419 106.64372,148.94898C106.38736,152.09838 107.3536,154.67031 108.76775,157.50138C110.37906,158.27042 111.59599,159.23385 112.95097,160.45925L112.95097,160.45925L112.95097,160.45923z" fill="#000000" clip-rule="evenodd" fill-rule="evenodd" display="null" style="pointer-events:inherit"/><path id="svg_58" d="M129.86142,123.15936C129.67267,122.83822 129.41068,122.58188 129.15155,122.32552C129.41067,122.58188 129.66986,122.84104 129.86142,123.15936L129.86142,123.15936z" fill="#FFFFFF" clip-rule="evenodd" fill-rule="evenodd" display="null" style="pointer-events:inherit"/><g id="svg_13" display="null" style="pointer-events:inherit" clip-id="314"><path fill="#003f7f" d="M65.7414,333.909C67.7528,332.939 69.767,331.968 71.7812,330.998C76.1815,326.593 78.948,320.258 76.1815,313.69C76.2449,310.263 76.4957,307.499 75.5533,304.296C75.5533,300.941 75.8702,299.154 73.0983,297.428C73.0983,296.536 73.0983,295.719 73.0377,294.903C73.5391,294.448 74.0434,294.004 74.4842,293.556C75.7407,288.776 76.8098,284.378 76.8098,279.382C75.9887,275.354 75.49,273.57 76.3662,269.541C76.1788,264.983 76.1788,264.986 75.5506,258.87C78.193,250.662 76.8098,240.749 76.6224,232.1C76.1182,227.244 75.3605,222.399 75.7379,217.478C78.0056,213.299 80.896,209.649 83.161,205.546C85.864,198.756 89.2641,192.414 92.2785,185.778C92.7194,182.497 92.7194,182.497 92.9095,178.547C93.4771,176.907 93.5405,175.936 93.5405,174.146C92.9095,173.322 90.7686,169.82 89.5782,171.238C89.6389,171.532 89.6995,171.832 89.7656,172.133C91.4023,173.1 91.9672,173.992 92.1518,176.008C88.6331,175.41 87.6219,174.894 86.743,174.819C86.743,176.008 87.4979,176.531 88.1895,177.201C88.8205,178.393 89.446,179.583 90.0081,180.857C89.3192,182.278 88.7516,182.87 87.812,185.108C87.6247,185.108 87.3712,185.108 87.1177,185.108C83.1554,182.197 78.1186,183.242 77.179,188.986C77.4959,190.849 78.8212,192.342 80.1355,193.24C79.7553,201.448 76.3,208.385 72.2744,214.949C72.1504,214.943 72.0237,214.949 71.8336,214.949C69.9461,212.335 66.3008,208.46 63.4655,211.221C61.5174,211.662 60.8258,211.74 60.1342,213.9C59.0017,214.645 57.5551,215.691 57.8693,217.403C58.1228,217.403 58.3101,217.403 58.5003,217.403C58.751,217.099 59.0017,216.887 59.1891,216.655C63.7217,216.354 65.7331,213.521 69.0038,217.922C69.3179,217.998 69.632,218.079 69.8827,218.145C70.0729,218.596 70.2602,219.118 70.387,219.638C69.4446,219.638 68.8798,218.971 67.8079,218.971C67.8079,222.248 72.2111,223.441 72.6519,226.202C72.4012,226.424 72.0843,226.656 71.7729,226.872C71.9603,229.404 72.3351,229.711 73.8477,231.495C73.7844,233.586 73.721,235.753 73.6576,237.912C73.4069,237.762 73.1534,237.615 72.8393,237.465C70.511,234.26 66.3007,231.495 69.0038,227.172C69.0671,226.055 69.0671,226.055 68.8798,225.679C68.5657,225.676 68.2488,225.679 67.9347,225.679C66.8656,226.95 60.8258,225.754 59.5693,225.679C59.4426,225.901 59.3186,226.127 59.1285,226.428C59.6327,227.395 60.0736,228.368 60.5117,229.407C64.6007,231.351 65.8544,235.155 67.3643,239.549C67.9347,240.223 68.4334,240 69.001,239.549C69.0644,238.801 69.0644,238.128 69.0644,237.462C69.1911,237.383 69.2545,237.311 69.3151,237.311C72.8365,240.66 71.9548,245.957 71.9548,250.812C70.635,255.213 71.5139,256.703 73.0266,261.101C73.4041,263.565 73.4014,263.565 73.6549,270.126C72.6491,271.015 71.4533,270.348 70.3208,270.426C70.3208,270.874 70.3208,271.318 70.3208,271.845C73.4041,274.909 72.2717,278.634 72.5858,283.107C72.4618,283.555 72.2717,283.999 72.0815,284.525C70.1941,286.388 71.3266,289.521 71.1998,292.285C69.3124,292.727 69.3124,292.733 61.5146,293.553C61.1371,294.001 61.1371,294.001 60.5089,294.001C60.0074,293.106 60.0047,293.112 59.5666,291.093C58.6242,276.027 55.7917,261.552 55.1607,246.568C54.9761,235.152 55.1607,234.857 54.9734,231.12C54.5986,229.999 54.3451,228.885 53.0859,228.885C52.3337,229.773 52.3943,231.42 52.2676,232.685C52.083,232.685 51.8294,232.757 51.576,232.835C51.576,233.283 51.5153,233.809 51.4492,234.328C52.4577,235.299 53.6508,238.504 51.5126,238.504C51.0745,237.462 51.6366,236.71 50.9477,235.589C50.1294,235.589 49.3772,236.04 48.8096,235.893C48.2419,234.694 48.2419,233.802 48.2419,232.384C47.6771,232.09 47.5503,231.636 46.7954,231.868C46.7347,232.015 46.6714,232.165 46.6052,232.384C46.6107,232.162 46.5446,231.936 46.4812,231.714C46.2333,231.714 45.977,231.786 45.729,231.868C44.9768,233.501 46.1038,234.478 46.9855,235.749C47.4291,239.249 48.2447,240.373 50.3829,242.68C50.2589,243.428 50.1321,244.176 49.9448,244.921C48.1179,246.937 48.8757,249.178 48.6828,252.08C45.4149,257.455 44.9107,260.807 50.3223,262.67C50.8899,263.339 51.452,263.565 52.2097,263.64C53.3394,264.388 54.4719,265.205 55.6043,266.022C55.7917,270.276 56.6734,274.305 57.4918,278.481C58.1228,285.045 57.6819,290.711 60.1976,296.674C58.8171,299.206 60.0074,299.14 60.0074,301.823C59.5693,302.339 59.5693,302.339 59.1891,303.532C59.9468,308.678 59.8228,314.726 59.8228,319.938C58.5636,324.11 57.0537,327.397 59.3792,331.501C61.5918,333.082 63.1624,333.759 65.7414,333.909L65.7414,333.909L65.7414,333.909zM80.0171,313.321C81.0917,311.677 81.0889,311.681 82.8468,307.946C86.0596,304.888 87.3133,304.221 88.319,299.745C88.95,298.248 89.5149,296.759 90.0797,295.272C93.7279,293.328 92.9701,289.603 94.2348,285.649C96.5632,283.405 98.638,281.398 99.7677,278.118C102.223,277.889 102.721,277.742 104.229,275.35C104.422,275.347 104.546,275.422 104.675,275.504C104.926,275.948 105.11,276.396 105.306,276.844C108.45,278.337 112.409,278.86 115.867,279.088C117.187,279.536 118.51,280.059 119.83,280.575C126.31,281.47 135.555,284.078 140.087,277.144C140.839,274.308 142.418,270.58 142.033,267.525C138.387,265.731 137.886,268.649 134.99,271.629C130.146,273.194 124.043,268.424 119.513,267.156C117.752,267.224 115.994,267.306 114.231,267.371C112.914,266.849 111.594,266.408 110.208,265.957C110.208,265.656 110.208,265.359 110.15,265.068C112.536,262.529 115.429,259.765 117,256.416C119.331,255.896 122.668,255.524 124.99,255.896C125.933,259.327 136.497,258.432 139.327,258.432C142.283,259.471 142.283,259.471 142.788,259.399C144.3,255.743 144.923,249.035 144.923,244.774C140.961,243.356 137.059,244.104 132.912,244.258C130.964,243.212 129.705,242.242 125.555,240.301C121.593,239.03 117.063,238.592 112.977,237.919C113.162,234.488 114.17,231.953 116.181,229.414C116.181,224.64 115.55,224.271 111.649,223.154C109.577,223.663 109.577,223.67 108.13,223.598C105.62,222.108 101.528,219.867 100.266,224.493C97.6873,224.64 95.4224,225.679 93.0941,227.022C91.0854,229.113 88.8177,230.675 85.9218,229.93C84.1584,226.95 81.268,226.728 78.7495,224.862C78.4354,224.862 78.1186,224.862 77.8044,224.934C77.551,227.169 78.058,230.156 78.2453,232.469C78.3059,240.745 79.3805,251.041 77.1707,259.023C76.796,263.274 78.1158,267.299 76.9861,271.697C76.9861,272.593 76.9861,273.491 76.9861,274.387C78.9975,280.497 78.3059,288.257 75.6663,293.922C76.5452,296.83 78.182,299.438 78.4933,302.499C77.1735,303.169 77.9918,311.674 78.7468,313.171C79.1987,313.174 79.6395,313.252 80.017,313.321L80.017,313.321L80.0171,313.321L80.0171,313.321zM99.2827,126.108C100.035,128.314 102.603,127.487 104.86,128.206C105.615,128.729 106.747,130.297 107.943,131.415C110.519,135.737 106.808,144.393 105.361,148.866C103.972,149.016 103.03,148.568 101.771,148.568C99.6988,151.032 94.9761,147.823 92.8434,146.856C89.2586,146.856 88.8178,147.899 85.7979,145.216C84.7921,144.915 83.7175,144.618 82.6484,144.396C83.2794,141.04 83.2794,141.04 83.6542,136.94C84.4063,135.146 85.098,133.359 85.7923,131.568C85.9136,128.657 86.5418,126.049 87.3629,123.213C88.308,121.723 88.7433,122.096 90.2533,121.949C91.8266,122.913 94.571,124.393 96.3399,124.765C96.2545,125.795 98.6187,126.87 99.2827,126.108L99.2827,126.108L99.2827,126.108L99.2827,126.108zM107.543,106.187C108.042,105.569 109.389,107.249 108.833,108.151C107.554,114.097 103.25,120.524 99.3902,124.609C98.1199,125.687 97.522,124.765 96.8966,124.236C100.473,120.599 102.675,115.457 105.493,110.98C106.499,109.02 107.125,108.356 107.543,106.187L107.543,106.187L107.543,106.187zM107.882,104.71C105.989,100.609 102.41,97.7766 99.0788,95.3162C96.9985,94.3458 94.1053,93.3787 92.0912,92.2579C86.6272,86.8896 81.7832,85.3964 74.9857,82.9328C71.2136,78.6818 69.0754,76.5221 63.6666,75.6987C63.1623,74.725 63.1623,74.7283 62.3467,73.8363C62.3467,72.7907 62.3467,71.8203 62.3467,70.8499C63.0384,70.033 63.73,69.2096 64.4216,68.4679C65.1132,65.4031 70.6487,59.8093 66.433,58.1723C66.433,57.5744 66.3696,56.9765 66.309,56.457C67.6895,50.7161 67.9429,44.9687 65.6808,39.5285C65.4301,37.8098 65.1765,36.0977 64.8624,34.4575C66.4964,33.4871 67.5654,31.0267 68.1303,29.0859C70.3346,27.2202 69.6403,26.253 68.5712,23.4953C67.7556,23.3418 66.9372,23.1947 66.0555,23.1196C65.4879,20.4338 63.9779,19.7639 61.8425,19.1693C62.0933,18.7935 62.0933,18.7968 62.0933,17.4539C59.7677,16.111 57.1887,16.8592 54.7364,17.3036C52.4715,19.7607 49.5756,18.8687 47.757,21.7799C46.3132,21.5545 46.3104,21.5545 44.547,21.7799C44.1722,22.5184 43.792,23.2699 43.3566,24.0181C41.8467,24.5376 40.5847,26.0308 40.2706,27.8965C30.7122,34.232 21.9666,43.4853 14.4223,52.8791C12.2842,53.696 12.1546,56.4602 11.7799,58.6984C11.2784,59.2179 10.7742,59.744 10.2093,60.2635C9.07412,63.3218 7.88104,68.2458 8.00504,71.6765C11.0911,80.9985 17.817,87.6346 21.8426,96.2899C21.275,107.696 20.8341,118.44 21.8426,129.849C22.2201,132.46 22.5948,135.071 22.9117,137.757C22.9144,143.05 21.4017,165.206 27.6289,166.621C27.6289,164.977 26.2457,163.71 25.4246,162.592C25.0499,160.204 24.609,157.894 24.1681,155.58C23.9808,145.51 23.978,145.51 24.1681,138.204C23.2258,130.67 22.4047,123.213 22.0906,115.604C22.4708,109.634 22.7822,103.671 23.0963,97.7766C23.5371,96.5807 23.5371,96.5872 23.6005,95.7638C21.4017,92.3331 22.1567,87.6345 20.3932,84.4292C19.8284,84.573 19.2608,84.8017 18.6326,85.0239C18.3185,83.975 17.8776,78.5348 17.434,76.9697C17.1226,76.9697 16.8057,76.9697 16.431,76.9697C16.0535,77.5644 15.676,78.1623 15.2985,78.757C15.2985,76.5188 14.6676,72.7123 15.6127,70.8499C18.7565,67.6413 19.0734,66.9714 19.8256,66.5271C23.0357,66.0043 23.0357,66.0043 26.4303,65.7788C27.5655,66.5238 30.8362,69.9546 30.8362,71.3727C30.2686,72.0392 30.0178,72.3431 29.8938,73.3102C28.6952,73.98 26.4964,75.0223 26.4964,76.9665C26.8106,76.9665 27.0613,76.9665 27.3148,76.9665C29.7037,73.3854 35.2365,75.4014 38.5705,73.2351C38.8874,73.2351 39.2015,73.3102 39.4495,73.3854C40.2045,76.8162 42.5961,78.5315 44.4836,81.2174C44.547,81.812 44.5442,82.41 44.5442,83.0046C41.1496,83.6777 41.1496,83.6777 40.7721,83.5274C40.458,82.3348 40.0805,81.2174 39.7057,80.0999C39.7057,78.5315 39.7664,75.3262 39.0142,73.9833C38.824,73.98 38.6367,73.9833 38.4465,73.9833C38.1958,74.578 38.1931,74.578 38.0084,76.594C35.4267,78.9073 32.2194,82.6354 32.5996,86.8863C32.8531,86.8863 33.1039,86.8863 33.2912,86.9582C33.4813,84.6449 33.542,84.4259 35.4955,84.4259C36.3111,82.4851 36.3111,82.4851 37.1295,81.2173C39.5184,82.8543 39.6424,86.589 39.455,89.5721C40.21,91.9508 40.086,93.297 39.3283,95.5384C37.2562,95.6136 37.2562,95.6136 36.5619,95.9076C36.5619,96.1331 36.5619,96.3552 36.5619,96.584C37.2535,97.4008 38.7028,97.6982 39.6424,97.5511C41.2791,94.4896 42.6017,90.6896 45.3047,88.899C47.4429,85.5401 52.4742,85.3147 55.1166,82.1845C58.4506,80.9919 60.9002,79.9463 63.4792,77.1886C65.3722,77.5611 68.7641,77.7114 70.026,79.7241C71.9741,80.4691 73.1038,82.7105 74.6771,84.1253C76.6279,84.7984 78.576,85.465 80.4634,86.1381C84.8693,86.5857 88.7654,90.9869 92.2868,93.8949C94.6757,94.8653 97.004,95.8357 99.3323,96.878C102.162,98.9659 106.948,102.099 106.188,106.798C103.297,112.689 99.5252,117.838 95.4334,122.684C93.2319,122.684 90.6528,120.446 88.7654,119.103C89.3964,117.985 90.7162,117.463 91.7192,116.868C91.7853,116.417 91.8487,116.048 91.8487,115.672C91.3444,115.3 90.843,115.002 90.3332,114.708C90.3332,114.483 90.3332,114.257 90.3332,114.032C92.1022,113.362 93.8574,112.689 95.5574,112.019C95.6208,111.568 95.6153,111.124 95.6153,110.751C92.3474,108.138 86.8752,110.902 83.1665,111.274C76.052,113.287 71.2108,114.257 68.505,115.228C65.7386,117.015 56.8718,120.969 56.1168,124.622C56.8084,124.622 57.4366,124.622 58.0649,124.697C63.5371,123.279 69.136,121.714 74.7956,121.714C75.3026,122.903 75.1097,124.471 75.1097,125.814C73.7292,127.085 72.7814,127.157 71.5249,125.664C72.0926,124.991 72.0292,124.847 72.1559,123.952C69.767,123.204 66.309,123.805 64.4188,125.664C64.4216,125.961 64.4188,126.262 64.4188,126.634C66.3696,128.644 68.1276,129.84 69.5135,132.378C66.7471,132.003 58.379,124.396 58.379,131.111C59.5776,132.45 60.958,133.424 61.3383,134.166C59.4508,134.613 57.6268,135.512 59.1973,138.119C61.0269,138.792 62.8482,139.462 64.6089,140.135C66.1189,141.478 67.6261,142.893 69.0754,144.311C70.8388,145.131 71.2136,144.834 71.5911,146.624C69.767,148.408 68.5078,150.65 67.4415,153.185C65.6146,153.182 63.5371,151.173 62.0299,150.055C58.5112,146.621 54.9871,143.19 51.463,139.76C49.5783,137.074 47.6908,134.391 45.7428,131.705C45.4287,131.705 45.1118,131.705 44.7371,131.705C44.7371,131.924 44.7371,132.153 44.7371,132.378C46.0569,133.94 46.8725,136.031 47.9443,137.897C50.3994,140.279 52.4714,143.19 54.6124,146.02C56.1829,147.663 62.0932,152.587 62.0932,155.12C61.4044,155.94 59.0127,155.12 58.1971,154.897C58.3211,155.342 58.4479,155.793 58.5112,156.237C60.8395,156.91 63.1045,157.583 65.3666,158.253C67.4966,159.263 69.5714,160.488 71.8142,160.834C71.8859,160.841 75.2392,163.814 75.3136,163.827C75.2226,163.824 75.9391,166.98 75.8481,166.98C67.8961,166.948 60.2526,165.366 53.1658,160.939C49.0134,157.658 45.3653,154.6 41.9707,150.349C40.0198,148.931 39.3916,145.647 37.0027,145.128C37.0027,148.036 43.1031,154.077 44.8032,156.315C49.7711,161.465 50.2754,161.762 50.2754,162.063C45.0539,158.629 41.0283,153.11 35.997,149.232C35.0546,149.006 34.0462,148.856 33.0377,148.709C33.2912,150.496 34.4843,152.14 35.3688,153.555C35.5561,153.483 35.7435,153.483 35.8702,153.483C35.9336,152.359 35.9336,152.365 35.6195,151.022C36.3745,151.241 36.3717,151.248 39.3916,153.555C44.299,158.701 49.3303,164.968 56.0589,166.16C59.4536,167.578 62.7876,169.068 66.1189,170.558C63.3552,172.724 58.7014,172.499 55.304,173.692C51.4024,173.244 46.8752,169.516 43.3566,167.428C42.158,166.454 35.3688,160.344 34.2335,160.789C34.735,163.174 42.0974,167.8 44.0455,169.294C48.0711,171.604 52.2234,174.286 56.3731,176.155C60.1452,176.152 63.9201,173.319 67.5682,172.427C67.6949,172.502 67.7583,172.574 67.8217,172.649C63.6115,177.946 60.2113,178.766 54.5517,177.645C54.5517,178.014 54.5517,178.39 54.5517,178.838C55.3067,179.282 56.0589,179.733 56.7533,180.181C57.2548,181.971 52.2234,180.034 51.7192,179.883C48.6414,178.086 46.5611,176.975 43.0397,177.197C41.0283,178.91 39.2648,180.331 38.3886,176.603C38.576,176.528 38.7028,176.453 38.8268,176.377C38.8929,176.077 38.8901,175.783 38.8901,175.561C35.8096,168.843 32.7236,162.21 29.5824,155.57C29.4557,155.57 29.3289,155.57 29.2022,155.57C29.1416,155.943 29.0809,156.315 29.0148,156.763C31.7206,162.354 34.3603,168.029 36.6252,173.848C34.5531,173.845 31.2164,169.892 30.0205,167.729C29.6458,167.653 29.2656,167.582 28.8881,167.582C28.8908,170.712 34.487,175.338 36.3111,177.05C36.3111,177.276 36.3111,177.501 36.2449,177.724C34.2335,176.531 32.4095,175.263 30.7121,173.548C29.4529,171.904 28.6346,169.594 26.6893,171.012C26.5019,171.757 26.4991,171.761 27.064,182.429C27.9457,186.153 33.1038,190.182 36.1843,190.702C36.1843,190.329 36.1843,190.035 36.1843,189.731C34.9912,188.614 31.7206,186.448 30.5881,185.33C30.0205,184.285 29.3923,183.236 28.7613,182.197C28.8247,181.824 28.8853,181.448 28.9487,181.158C32.0926,181.527 31.4671,182.275 32.3461,185.856C32.6574,186.006 32.9743,186.153 33.2884,186.379C36.7464,186.68 41.0889,188.62 41.5932,193.169C35.9308,194.433 34.3603,192.865 29.8938,189.287C29.3895,189.215 28.8853,189.14 28.3811,189.14C28.3205,189.659 28.2598,190.182 28.1331,190.705C30.0205,197.57 29.8965,203.98 32.3461,210.773C34.3575,213.9 36.3689,217.106 38.3859,220.321C40.7114,225.686 42.0946,229.868 47.3161,230.76C49.4543,229.048 52.7249,227.176 54.3616,224.794C54.6785,217.857 53.1024,209.803 55.1772,203.317C56.4998,200.778 58.9521,199.138 58.9521,196.08C57.883,195.475 57.252,195.707 56.0617,195.776C56.0617,195.475 56.0617,195.181 56.0617,194.887C59.9606,186.758 64.6778,180.194 71.1557,174.9C73.3572,173.554 75.5588,172.211 77.7604,170.944C79.5872,170.274 83.6734,169.754 84.6791,167.738C89.705,166.918 92.419,166.471 95.4968,170.944C98.58,173.182 98.58,173.185 100.591,174.227C101.346,174.897 104.749,179.001 106.133,178.331C107.392,176.24 108.582,174.152 109.527,171.839C109.585,169.898 109.654,167.961 109.715,166.023C110.527,164.977 111.282,164.007 112.043,163.04C114.74,156.175 119.336,150.509 122.29,143.648C123.993,138.279 123.99,138.279 125.373,132.836C125.814,132.758 126.252,132.686 126.693,132.61C126.881,132.088 126.881,132.088 126.941,127.837C129.526,120.822 124.999,118.44 120.78,114.261C117.76,110.386 115.754,109.043 111.216,109.043C110.715,108.363 110.216,107.693 109.715,107.102C109.905,106.478 108.262,104.419 107.882,104.71L107.882,104.71L107.882,104.71L107.882,104.71L107.882,104.71L107.882,104.71zM78.3225,217.331C78.9535,216.962 83.6652,216.21 87.1921,215.171C93.4799,214.201 93.4799,214.201 102.096,213.462C103.92,215.024 104.738,215.697 106.943,215.697C107.125,215.397 107.315,215.178 107.508,214.949C109.268,214.943 110.899,215.55 112.66,215.697C113.735,215.024 116.812,213.757 116.812,211.969C115.118,210.842 114.17,210.476 112.283,209.953C110.395,207.271 103.479,209.734 100.768,209.953C94.166,211.139 86.8725,210.842 80.513,213.309C79.5762,214.279 78.6256,215.25 77.6226,216.289C77.6226,216.589 77.6226,216.89 77.6226,217.181C77.8816,217.181 78.1351,217.266 78.3225,217.331L78.3225,217.331zM58.0043,170.346C58.0043,169.973 58.0043,169.673 58.0043,169.379C52.094,167.663 47.6909,164.383 42.7201,160.276C41.5271,158.639 39.703,155.803 37.8156,155.803C37.8156,156.097 37.8156,156.397 37.8156,156.77C43.792,163.033 50.0164,168.705 58.0043,170.346L58.0043,170.346zM74.1729,164.902C74.1067,164.53 74.0461,164.157 73.98,163.785C73.5419,163.487 73.5419,163.487 66.1823,162.517C60.0185,159.982 54.9871,156.848 49.7657,152.15C47.8148,149.983 45.74,146.925 43.5357,145.063C42.8469,145.213 42.8441,145.213 42.4694,145.657C42.4694,149.166 55.8,163.412 59.134,162.442C59.2635,162.073 59.3847,161.772 59.5115,161.475C64.3609,163.259 69.0754,164.383 74.1729,164.902L74.1729,164.902zM44.6103,139.541C43.9187,134.473 39.1354,132.235 36.7465,128.428C33.3491,126.641 31.9659,126.566 31.2743,131.562C31.401,132.307 32.1532,137.231 33.3491,136.561C33.5392,133.947 32.1532,133.95 34.3576,132.682C38.3198,132.679 41.0862,137.753 44.6103,139.541L44.6103,139.541L44.6103,139.541zM125.305,120.893C125.123,120.521 124.864,120.224 124.61,119.926C124.864,120.224 125.114,120.524 125.305,120.893L125.305,120.893zM50.6474,72.6404C51.3996,71.9673 51.5897,71.523 50.9615,70.5525C49.7023,70.5493 48.3797,70.5525 47.0626,70.5525C46.9992,70.7029 46.9359,70.8466 46.8091,71.0721C47.7542,72.6404 48.9501,72.5653 50.6474,72.6404L50.6474,72.6404L50.6474,72.6404zM54.2321,69.4318C55.4913,67.9386 54.2928,66.8212 52.9095,66.3768C52.9095,65.1809 53.3504,64.0635 53.4772,61.3025C52.9095,60.8549 52.5321,60.8549 51.8405,60.8549C51.339,62.42 51.2122,62.6454 49.953,63.093C49.1374,62.2697 48.6911,61.822 47.6881,61.6031C47.6881,62.4919 47.8121,62.7206 48.253,63.3871C48.0656,63.9851 47.8121,64.583 47.5614,65.2528C46.5556,65.475 45.7373,65.4031 44.7316,65.3279C43.9766,66.2951 43.0315,67.1218 43.0315,68.4647C44.0372,68.5366 44.0372,68.5366 45.988,68.0138C49.0107,66.6023 51.463,67.7916 54.2322,69.4318L54.2322,69.4318L54.2321,69.4318L54.2321,69.4318zM62.8482,29.3799C62.9116,29.0074 62.9089,28.635 62.9089,28.2625C61.7764,27.7397 61.4016,27.2202 59.8945,26.6974C60.2086,26.3968 60.2058,26.3968 60.2058,25.5048C59.2662,25.2042 58.762,24.9101 58.3184,24.0148C58.131,24.0116 57.9409,24.0148 57.7508,24.0148C56.9379,28.5631 59.5142,28.3376 62.8482,29.3799L62.8482,29.3799zM53.4138,29.3799C53.9814,29.1577 54.4829,28.9356 54.9871,28.7068C55.1139,28.4846 55.1745,28.2625 55.2379,28.037C54.1743,26.0994 58.8226,19.5352 55.2379,19.5352C55.1772,20.205 55.1139,20.9533 54.9871,21.6982C53.9814,23.3417 51.6531,27.2953 53.4138,29.3799L53.4138,29.3799zM68.257,27.6645C68.3204,27.0666 68.3838,26.5471 68.3838,26.0276C68.1331,25.9491 67.8796,25.8773 67.6288,25.8773C67.7556,26.4719 67.819,27.0699 67.8796,27.6645C68.0063,27.6645 68.1303,27.6645 68.2571,27.6645L68.2571,27.6645L68.257,27.6645L68.257,27.6645zM18.6766,241.935L52.4687,241.935C53.6508,241.935 54.6124,243.082 54.6124,244.473L54.6124,244.47C54.6124,245.872 53.648,247.019 52.4687,247.015L15.5162,246.895L18.6766,241.935L18.6766,241.935L18.6766,241.935L18.6766,241.935zM18.4424,242.35L22.0658,236.563L18.3791,238.272L13.6315,246.094L17.7729,242.836L13.9071,246.852L18.1862,246.852L18.4424,242.35z" id="svg_14" style="pointer-events:inherit"/><path fill="#FFFFFF" d="M108.764,164.15727C110.27946,161.84393 112.79239,158.93266 113.22775,156.02467C113.04036,155.9528 112.85025,155.8809 112.59674,155.8809C112.65736,155.35487 112.65462,154.83859 112.65462,154.38769C117.18724,147.22882 120.89873,137.60629 119.94535,128.43139C116.68024,126.79118 111.33477,130.1468 109.69807,133.43057C109.69807,138.27612 108.81636,143.8732 106.74431,148.12082C106.74431,149.68591 107.43315,150.95694 108.06413,152.29657C107.94288,152.52202 107.81614,152.74748 107.62877,153.04482C107.18241,152.89124 106.11607,151.32941 105.17373,150.73148C104.35539,150.72821 103.47366,150.73148 102.58918,150.80664C102.34118,154.45959 103.28354,157.44273 104.66673,160.7265C106.24833,161.61848 107.43591,162.73595 108.764,164.15727L108.764,164.15727z" id="svg_15" style="pointer-events:inherit"/><path fill="#FFFFFF" d="M50.26991,79.57386C52.15735,78.45641 54.23215,77.33895 56.30696,77.03836C57.56617,76.29338 58.00428,75.47326 59.38748,75.47326C59.76773,74.72176 59.76773,74.72503 59.89447,73.60757C58.82539,73.60431 58.19716,73.75788 57.69291,72.79072C57.3788,72.78746 57.06193,72.79072 56.68445,72.79072C55.30401,74.57799 54.42227,75.99605 52.22072,76.07119C52.28134,75.69871 52.28134,75.40137 52.28134,75.10403C54.67577,73.08805 55.55474,70.77472 56.68445,67.64455C56.6872,66.3768 56.43371,65.33123 56.62107,63.0179C57.88028,63.09305 57.56343,63.38711 57.9409,64.51111C59.13951,64.50784 59.95233,63.54068 59.00999,62.41996C56.68445,61.45281 56.11684,61.00518 54.67026,60.55754C52.84619,58.24422 52.40533,56.53209 49.32757,56.82943C48.00773,59.21464 42.72291,58.99245 40.95946,57.42409C40.08049,55.33622 40.83271,51.60811 38.00568,51.60811C35.99425,54.81671 35.99425,54.81671 32.21662,62.05075C31.52502,67.34069 31.27428,68.09218 31.34041,68.75873C32.59687,69.80104 35.36327,71.07207 36.17886,72.26794C37.3747,71.96733 38.50716,71.67327 39.63688,71.44781C39.76637,71.22236 39.89037,71.00017 40.01436,70.77472C40.26511,70.77472 40.45521,70.77472 40.64534,70.77472C42.09192,73.60757 43.09765,75.84901 45.42318,77.7147C47.374,77.93689 48.00223,77.48925 48.69107,79.20463C49.26419,79.27978 49.76842,79.42682 50.26991,79.57386L50.26991,79.57386z" id="svg_16" style="pointer-events:inherit"/><path fill="#FFFFFF" d="M28.00364,58.99245C29.51359,57.20191 30.33193,54.89186 31.58563,52.87587C33.53645,50.71284 35.04915,48.10545 36.43236,45.41964C38.69729,43.7794 39.89037,40.87141 41.96517,39.0776C43.09765,36.09445 44.03998,34.01311 45.9908,31.69653C47.12601,31.17374 48.19235,30.65422 49.26144,30.20332C52.78557,30.94502 56.37033,31.09532 59.95509,31.24562C61.3383,31.69325 61.3383,31.69325 62.53689,31.69325C64.1047,30.5758 66.49637,32.21277 66.49637,29.53023C65.17654,29.5237 65.36667,30.42223 64.42157,30.72283C63.35524,30.12163 65.23718,25.80212 65.49066,24.90358C65.0498,23.93316 65.0498,23.93316 64.73568,22.06747C62.53689,20.50238 61.65516,21.3225 59.32687,21.61984C59.32687,19.68226 60.83406,19.30651 60.83406,18.03876C58.37901,17.73815 55.73934,17.74142 53.91528,19.90445C51.52637,20.27366 51.52637,20.27693 49.5728,21.0219C49.07132,21.54142 48.69383,22.66214 48.37971,22.96274C45.9908,23.25354 44.67096,21.84202 43.66249,24.90031C42.65678,25.86747 42.53278,26.53729 42.40603,28.03049C42.97089,28.70031 43.28501,28.92576 43.09765,29.97133C36.62248,29.07606 30.39256,37.35568 25.92883,41.45628C23.97801,43.99505 21.71584,46.08619 19.57491,48.39625C18.25508,50.1051 12.78288,54.9572 13.47173,58.3161C18.19446,58.6167 23.47653,57.20191 28.00364,58.99245L28.00364,58.99245z" id="svg_17" style="pointer-events:inherit"/></g><g transform="rotate(90, 172.467, 103.342)" display="null" shapeVal="0" shapeId="0" lineHeight="1" font-style="normal" font-weight="normal" text-anchor="start" stroke="0" fill="ffffff" font-family="SF Collegiate" font-size="46.59896" text="Thomas" type="text" id="svg_4" style="pointer-events:inherit"><path d="M119.91431,94.41141C119.91431,94.41141 112.92456,94.41141 112.92456,94.41141C112.92456,94.41141 112.92456,120.04047 112.92456,120.04047C112.92456,120.04047 101.27496,120.04047 101.27496,120.04047C101.27496,120.04047 101.27496,94.41141 101.27496,94.41141C101.27496,94.41141 94.28521,94.41141 94.28521,94.41141C94.28521,94.41141 94.28521,82.76181 94.28521,82.76181C94.28521,82.76181 119.9143,82.76181 119.9143,82.76181C119.9143,82.76181 119.9143,94.41141 119.9143,94.41141C119.9143,94.41141 119.9143,94.41141 119.9143,94.41141M119.0082,93.50534C119.0082,93.50534 119.0082,83.66791 119.0082,83.66791C119.0082,83.66791 95.19129,83.66791 95.19129,83.66791C95.19129,83.66791 95.19129,93.50534 95.19129,93.50534C95.19129,93.50534 102.18102,93.50534 102.18102,93.50534C102.18102,93.50534 102.18102,119.1344 102.18102,119.1344C102.18102,119.1344 112.01845,119.1344 112.01845,119.1344C112.01845,119.1344 112.01845,93.50534 112.01845,93.50534C112.01845,93.50534 119.0082,93.50534 119.0082,93.50534C119.0082,93.50534 119.0082,93.50534 119.0082,93.50534M117.58437,92.08148C117.58437,92.08148 110.59462,92.08148 110.59462,92.08148C110.59462,92.08148 110.59462,117.71057 110.59462,117.71057C110.59462,117.71057 103.60487,117.71057 103.60487,117.71057C103.60487,117.71057 103.60487,92.08148 103.60487,92.08148C103.60487,92.08148 96.61512,92.08148 96.61512,92.08148C96.61512,92.08148 96.61512,85.09173 96.61512,85.09173C96.61512,85.09173 117.58436,85.09173 117.58436,85.09173C117.58436,85.09173 117.58436,92.08148 117.58436,92.08148C117.58436,92.08148 117.58436,92.08148 117.58436,92.08148M143.60176,120.04046C143.60176,120.04046 122.11476,120.04046 122.11476,120.04046C122.11476,120.04046 122.11476,85.9978 122.11476,85.9978C122.11476,85.9978 143.60176,85.9978 143.60176,85.9978C143.60176,85.9978 143.60176,120.04046 143.60176,120.04046C143.60176,120.04046 143.60176,120.04046 143.60176,120.04046M142.56624,119.13439C142.56624,119.13439 142.56624,86.90389 142.56624,86.90389C142.56624,86.90389 123.02083,86.90389 123.02083,86.90389C123.02083,86.90389 123.02083,119.13439 123.02083,119.13439C123.02083,119.13439 142.56624,119.13439 142.56624,119.13439C142.56624,119.13439 142.56624,119.13439 142.56624,119.13439M141.27184,117.71056C141.27184,117.71056 134.92931,117.71056 134.92931,117.71056C134.92931,117.71056 134.92931,106.19042 134.92931,106.19042C134.92931,106.19042 130.78722,106.19042 130.78722,106.19042C130.78722,106.19042 130.78722,117.71056 130.78722,117.71056C130.78722,117.71056 124.44469,117.71056 124.44469,117.71056C124.44469,117.71056 124.44469,88.32772 124.44469,88.32772C124.44469,88.32772 130.78722,88.32772 130.78722,88.32772C130.78722,88.32772 130.78722,99.84786 130.78722,99.84786C130.78722,99.84786 134.92931,99.84786 134.92931,99.84786C134.92931,99.84786 134.92931,88.32772 134.92931,88.32772C134.92931,88.32772 141.27184,88.32772 141.27184,88.32772C141.27184,88.32772 141.27184,117.71056 141.27184,117.71056C141.27184,117.71056 141.27184,117.71056 141.27184,117.71056M169.61916,114.47457C169.61916,114.47457 164.05324,120.04046 164.05324,120.04046C164.05324,120.04046 153.69805,120.04046 153.69805,120.04046C153.69805,120.04046 148.13216,114.47457 148.13216,114.47457C148.13216,114.47457 148.13216,91.56371 148.13216,91.56371C148.13216,91.56371 153.69805,85.99779 153.69805,85.99779C153.69805,85.99779 164.05324,85.99779 164.05324,85.99779C164.05324,85.99779 169.61916,91.56371 169.61916,91.56371C169.61916,91.56371 169.61916,114.47457 169.61916,114.47457C169.61916,114.47457 169.61916,114.47457 169.61916,114.47457M168.58364,114.08626C168.58364,114.08626 168.58364,91.95204 168.58364,91.95204C168.58364,91.95204 163.53548,86.90388 163.53548,86.90388C163.53548,86.90388 154.08638,86.90388 154.08638,86.90388C154.08638,86.90388 149.03822,91.95204 149.03822,91.95204C149.03822,91.95204 149.03822,114.08626 149.03822,114.08626C149.03822,114.08626 154.08638,119.13439 154.08638,119.13439C154.08638,119.13439 163.53548,119.13439 163.53548,119.13439C163.53548,119.13439 168.58364,114.08626 168.58364,114.08626M167.28924,113.5685C167.28924,113.5685 163.01773,117.71056 163.01773,117.71056C163.01773,117.71056 154.60416,117.71056 154.60416,117.71056C154.60416,117.71056 150.4621,113.5685 150.4621,113.5685C150.4621,113.5685 150.4621,92.59923 150.4621,92.59923C150.4621,92.59923 154.60416,88.32772 154.60416,88.32772C154.60416,88.32772 163.01773,88.32772 163.01773,88.32772C163.01773,88.32772 167.28924,92.59923 167.28924,92.59923C167.28924,92.59923 167.28924,113.5685 167.28924,113.5685C167.28924,113.5685 167.28924,113.5685 167.28924,113.5685M160.94671,111.368C160.94671,111.368 160.94671,94.67028 160.94671,94.67028C160.94671,94.67028 156.80462,94.67028 156.80462,94.67028C156.80462,94.67028 156.80462,111.368 156.80462,111.368C156.80462,111.368 160.94671,111.368 160.94671,111.368C160.94671,111.368 160.94671,111.368 160.94671,111.368M199.77862,120.04045C199.77862,120.04045 188.77624,120.04045 188.77624,120.04045C188.77624,120.04045 188.77624,119.39323 188.77624,119.39323C188.77624,119.39323 186.96411,123.92366 186.96411,123.92366C186.96411,123.92366 185.15195,119.39323 185.15195,119.39323C185.15195,119.39323 185.15195,120.04045 185.15195,120.04045C185.15195,120.04045 174.14957,120.04045 174.14957,120.04045C174.14957,120.04045 174.14957,85.99779 174.14957,85.99779C174.14957,85.99779 184.37531,85.99779 184.37531,85.99779C184.37531,85.99779 186.96412,92.59923 186.96412,92.59923C186.96412,92.59923 189.5529,85.99779 189.5529,85.99779C189.5529,85.99779 199.77864,85.99779 199.77864,85.99779C199.77864,85.99779 199.77864,120.04045 199.77864,120.04045C199.77864,120.04045 199.77864,120.04045 199.77864,120.04045M198.87257,119.13438C198.87257,119.13438 198.87257,86.90388 198.87257,86.90388C198.87257,86.90388 190.20008,86.90388 190.20008,86.90388C190.20008,86.90388 186.96412,95.05857 186.96412,95.05857C186.96412,95.05857 183.7281,86.90388 183.7281,86.90388C183.7281,86.90388 175.05565,86.90388 175.05565,86.90388C175.05565,86.90388 175.05565,119.13438 175.05565,119.13438C175.05565,119.13438 184.11644,119.13438 184.11644,119.13438C184.11644,119.13438 184.11644,114.47456 184.11644,114.47456C184.11644,114.47456 186.96413,121.46428 186.96413,121.46428C186.96413,121.46428 189.81179,114.47456 189.81179,114.47456C189.81179,114.47456 189.81179,119.13438 189.81179,119.13438C189.81179,119.13438 198.87258,119.13438 198.87258,119.13438C198.87258,119.13438 198.87258,119.13438 198.87258,119.13438M197.44875,117.71055C197.44875,117.71055 191.10619,117.71055 191.10619,117.71055C191.10619,117.71055 191.10619,107.2259 191.10619,107.2259C191.10619,107.2259 186.96413,117.71055 186.96413,117.71055C186.96413,117.71055 182.82204,107.2259 182.82204,107.2259C182.82204,107.2259 182.82204,117.71055 182.82204,117.71055C182.82204,117.71055 176.47951,117.71055 176.47951,117.71055C176.47951,117.71055 176.47951,88.32771 176.47951,88.32771C176.47951,88.32771 182.82204,88.32771 182.82204,88.32771C182.82204,88.32771 186.96413,98.81233 186.96413,98.81233C186.96413,98.81233 191.10619,88.32771 191.10619,88.32771C191.10619,88.32771 197.44875,88.32771 197.44875,88.32771C197.44875,88.32771 197.44875,117.71055 197.44875,117.71055C197.44875,117.71055 197.44875,117.71055 197.44875,117.71055M226.83156,120.04045C226.83156,120.04045 215.82918,120.04045 215.82918,120.04045C215.82918,120.04045 215.18196,115.89839 215.18196,115.89839C215.18196,115.89839 213.75813,115.89839 213.75813,115.89839C213.75813,115.89839 212.98152,120.04045 212.98152,120.04045C212.98152,120.04045 201.97914,120.04045 201.97914,120.04045C201.97914,120.04045 208.32167,85.99779 208.32167,85.99779C208.32167,85.99779 220.61842,85.99779 220.61842,85.99779C220.61842,85.99779 226.83155,120.04045 226.83155,120.04045M225.79603,119.13438C225.79603,119.13438 219.71235,86.90388 219.71235,86.90388C219.71235,86.90388 209.09831,86.90388 209.09831,86.90388C209.09831,86.90388 203.14406,119.13438 203.14406,119.13438C203.14406,119.13438 212.20485,119.13438 212.20485,119.13438C212.20485,119.13438 212.98152,114.86287 212.98152,114.86287C212.98152,114.86287 215.95863,114.86287 215.95863,114.86287C215.95863,114.86287 216.60582,119.13438 216.60582,119.13438C216.60582,119.13438 225.79604,119.13438 225.79604,119.13438C225.79604,119.13438 225.79604,119.13438 225.79604,119.13438M224.11333,117.71055C224.11333,117.71055 217.77077,117.71055 217.77077,117.71055C217.77077,117.71055 217.12358,113.56849 217.12358,113.56849C217.12358,113.56849 211.81654,113.56849 211.81654,113.56849C211.81654,113.56849 211.0399,117.71055 211.0399,117.71055C211.0399,117.71055 204.8268,117.71055 204.8268,117.71055C204.8268,117.71055 210.26326,88.32771 210.26326,88.32771C210.26326,88.32771 218.54744,88.32771 218.54744,88.32771C218.54744,88.32771 224.11333,117.71055 224.11333,117.71055M215.95864,107.2259C215.95864,107.2259 214.40536,98.16514 214.40536,98.16514C214.40536,98.16514 212.85208,107.2259 212.85208,107.2259C212.85208,107.2259 215.95865,107.2259 215.95865,107.2259C215.95865,107.2259 215.95865,107.2259 215.95865,107.2259M250.64847,114.3451C250.64847,114.3451 245.08258,119.91099 245.08258,119.91099C245.08258,119.91099 234.72739,119.91099 234.72739,119.91099C234.72739,119.91099 229.1615,114.3451 229.1615,114.3451C229.1615,114.3451 229.1615,106.83759 229.1615,106.83759C229.1615,106.83759 233.1741,106.83759 233.1741,106.83759C233.1741,106.83759 229.1615,102.82496 229.1615,102.82496C229.1615,102.82496 229.1615,91.43427 229.1615,91.43427C229.1615,91.43427 234.72739,85.99778 234.72739,85.99778C234.72739,85.99778 245.08258,85.99778 245.08258,85.99778C245.08258,85.99778 250.64847,91.43427 250.64847,91.43427C250.64847,91.43427 250.64847,98.94175 250.64847,98.94175C250.64847,98.94175 246.50644,98.94175 246.50644,98.94175C246.50644,98.94175 250.64847,103.08384 250.64847,103.08384C250.64847,103.08384 250.64847,114.3451 250.64847,114.3451C250.64847,114.3451 250.64847,114.3451 250.64847,114.3451M249.61298,113.95679C249.61298,113.95679 249.61298,103.47217 249.61298,103.47217C249.61298,103.47217 244.30594,98.03568 244.30594,98.03568C244.30594,98.03568 249.61298,98.03568 249.61298,98.03568C249.61298,98.03568 249.61298,91.95203 249.61298,91.95203C249.61298,91.95203 244.56482,86.90387 244.56482,86.90387C244.56482,86.90387 235.11572,86.90387 235.11572,86.90387C235.11572,86.90387 230.06756,91.95203 230.06756,91.95203C230.06756,91.95203 230.06756,102.43665 230.06756,102.43665C230.06756,102.43665 235.50405,107.87311 235.50405,107.87311C235.50405,107.87311 230.06756,107.87311 230.06756,107.87311C230.06756,107.87311 230.06756,113.95679 230.06756,113.95679C230.06756,113.95679 235.11572,119.00492 235.11572,119.00492C235.11572,119.00492 244.56482,119.00492 244.56482,119.00492C244.56482,119.00492 249.61298,113.95679 249.61298,113.95679M247.93027,113.56848C247.93027,113.56848 243.78818,117.71054 243.78818,117.71054C243.78818,117.71054 235.37461,117.71054 235.37461,117.71054C235.37461,117.71054 231.23252,113.56848 231.23252,113.56848C231.23252,113.56848 231.23252,109.29693 231.23252,109.29693C231.23252,109.29693 237.44565,109.29693 237.44565,109.29693C237.44565,109.29693 237.44565,111.36797 237.44565,111.36797C237.44565,111.36797 241.71713,111.36797 241.71713,111.36797C241.71713,111.36797 241.71713,106.19039 241.71713,106.19039C241.71713,106.19039 235.3746,106.19039 235.3746,106.19039C235.3746,106.19039 231.23251,102.0483 231.23251,102.0483C231.23251,102.0483 231.23251,92.5992 231.23251,92.5992C231.23251,92.5992 235.3746,88.32769 235.3746,88.32769C235.3746,88.32769 243.78817,88.32769 243.78817,88.32769C243.78817,88.32769 247.93026,92.5992 247.93026,92.5992C247.93026,92.5992 247.93026,96.74129 247.93026,96.74129C247.93026,96.74129 241.71713,96.74129 241.71713,96.74129C241.71713,96.74129 241.71713,94.67025 241.71713,94.67025C241.71713,94.67025 237.44565,94.67025 237.44565,94.67025C237.44565,94.67025 237.44565,99.84783 237.44565,99.84783C237.44565,99.84783 243.78818,99.84783 243.78818,99.84783C243.78818,99.84783 247.93027,104.11934 247.93027,104.11934C247.93027,104.11934 247.93027,113.56847 247.93027,113.56847C247.93027,113.56847 247.93027,113.56847 247.93027,113.56847" stroke-width="0" stroke="#000000" fill="#ffffff" id="svg_12" style="pointer-events:inherit"/></g><g id="svg_18" transform="rotate(90, 176.176, 277.592)" display="null" shapeVal="0" shapeId="0" lineHeight="1" font-style="normal" font-weight="normal" text-anchor="start" stroke="0" fill="ffffff" font-family="Bebas Neue" font-size="38.59232" text="rugby club" type="text" style="pointer-events:inherit"><path d="M119.57691,291.10092C119.57691,291.10092 115.18167,291.10092 115.18167,291.10092C113.78806,288.0993 117.43289,278.34402 110.57204,280.05923C110.57204,280.05923 110.57204,291.10092 110.57204,291.10092C110.57204,291.10092 106.284,291.10092 106.284,291.10092C106.284,291.10092 106.284,264.0863 106.284,264.0863C113.78807,263.76471 119.0409,263.6575 119.0409,272.44796C119.0409,275.23519 118.1833,277.05761 116.25368,277.91521C120.64892,279.30883 118.0761,286.70568 119.57691,291.10091C119.57691,291.10091 119.57691,291.10091 119.57691,291.10091M114.75287,273.41277C114.75287,269.55355 114.43127,267.08791 110.57204,267.94552C110.57204,267.94552 110.57204,276.20001 110.57204,276.20001C113.03766,276.30719 114.75287,276.30719 114.75287,273.41278C114.75287,273.41278 114.75287,273.41278 114.75287,273.41278M121.61373,264.0863C121.61373,264.0863 125.79457,264.0863 125.79457,264.0863C125.79457,264.0863 125.79457,284.88327 125.79457,284.88327C125.79457,286.8129 126.65217,287.56329 128.04578,287.56329C129.4394,287.56329 130.18981,286.81289 130.18981,284.88327C130.18981,284.88327 130.18981,264.0863 130.18981,264.0863C130.18981,264.0863 134.26343,264.0863 134.26343,264.0863C134.26343,264.0863 134.26343,284.66888 134.26343,284.66888C134.26343,288.9569 132.11942,291.42251 127.93858,291.42251C123.75775,291.42251 121.61373,288.9569 121.61373,284.66888C121.61373,284.66888 121.61373,264.0863 121.61373,264.0863C121.61373,264.0863 121.61373,264.0863 121.61373,264.0863M143.48272,279.95202C143.48272,279.95202 143.48272,276.0928 143.48272,276.0928C143.48272,276.0928 149.37876,276.0928 149.37876,276.0928C149.37876,283.27526 150.66517,291.42251 143.05392,291.42251C133.83464,291.42251 136.72906,278.88003 136.72906,270.51834C136.72906,266.23032 138.87309,263.76471 143.05392,263.76471C148.19957,263.6575 149.80757,267.51672 149.37876,273.19836C149.37876,273.19836 145.41233,273.19836 145.41233,273.19836C145.51954,270.62555 145.62673,267.62393 143.16111,267.62393C141.76749,267.62393 141.0171,268.37433 141.0171,270.30395C141.0171,270.30395 141.0171,284.88327 141.0171,284.88327C141.0171,286.8129 141.7675,287.56329 143.16111,287.56329C146.26994,287.56329 145.30514,282.84646 145.41233,279.95202C145.41233,279.95202 143.48272,279.95202 143.48272,279.95202C143.48272,279.95202 143.48272,279.95202 143.48272,279.95202M152.05879,264.0863C159.02685,263.87188 164.8157,263.44308 164.8157,271.26876C164.8157,274.05596 163.9581,275.87838 162.02848,276.73598C167.28132,278.77281 166.63811,292.38732 158.81245,291.10091C158.81245,291.10091 152.05879,291.10091 152.05879,291.10091C152.05879,291.10091 152.05879,264.08629 152.05879,264.08629C152.05879,264.08629 152.05879,264.08629 152.05879,264.08629M160.95646,284.56166C160.95646,280.38081 160.42045,278.2368 156.34683,278.9872C156.34683,278.9872 156.34683,287.24169 156.34683,287.24169C158.91966,287.24169 160.95646,287.7777 160.95646,284.56167C160.95646,284.56167 160.95646,284.56167 160.95646,284.56167M160.52766,272.23358C160.52766,268.69592 159.67006,267.40951 156.34683,267.94552C156.34683,267.94552 156.34683,275.12798 156.34683,275.12798C158.91966,275.23519 160.52766,275.12798 160.52766,272.23357C160.52766,272.23357 160.52766,272.23357 160.52766,272.23357M171.67656,291.10091C171.67656,291.10091 171.67656,282.09603 171.67656,282.09603C171.67656,282.09603 166.31651,264.08629 166.31651,264.08629C166.31651,264.08629 170.81895,264.08629 170.81895,264.08629C170.81895,264.08629 174.03498,276.41438 174.03498,276.41438C174.03498,276.41438 177.251,264.08629 177.251,264.08629C177.251,264.08629 181.32462,264.08629 181.32462,264.08629C181.32462,264.08629 175.96459,282.09603 175.96459,282.09603C175.96459,282.09603 175.96459,291.10091 175.96459,291.10091C175.96459,291.10091 171.67655,291.10091 171.67655,291.10091C171.67655,291.10091 171.67655,291.10091 171.67655,291.10091M197.19036,281.02404C197.19036,281.02404 201.15681,281.02404 201.15681,281.02404C201.58561,286.92007 200.4064,291.42251 194.83195,291.42251C185.61268,291.42251 188.50709,278.88003 188.50709,270.51834C188.50709,266.23032 190.6511,263.76471 194.83195,263.76471C199.97758,263.6575 201.58561,267.51672 201.15681,273.19836C201.15681,273.19836 197.19036,273.19836 197.19036,273.19836C197.29755,270.62555 197.40476,267.62393 194.93915,267.62393C193.54553,267.62393 192.79512,268.37433 192.79512,270.30395C192.79512,270.30395 192.79512,284.88327 192.79512,284.88327C192.79512,286.8129 193.54553,287.56329 194.93915,287.56329C197.72637,287.56329 197.19036,283.70407 197.19036,281.02404C197.19036,281.02404 197.19036,281.02404 197.19036,281.02404M203.62241,291.10091C203.62241,291.10091 203.62241,264.08629 203.62241,264.08629C203.62241,264.08629 207.91045,264.08629 207.91045,264.08629C207.91045,264.08629 207.91045,287.24169 207.91045,287.24169C207.91045,287.24169 214.87851,287.24169 214.87851,287.24169C214.87851,287.24169 214.87851,291.10091 214.87851,291.10091C214.87851,291.10091 203.62241,291.10091 203.62241,291.10091C203.62241,291.10091 203.62241,291.10091 203.62241,291.10091M216.59372,264.08629C216.59372,264.08629 220.77457,264.08629 220.77457,264.08629C220.77457,264.08629 220.77457,284.88326 220.77457,284.88326C220.77457,286.81289 221.63217,287.56328 223.02579,287.56328C224.41939,287.56328 225.16979,286.81288 225.16979,284.88326C225.16979,284.88326 225.16979,264.08629 225.16979,264.08629C225.16979,264.08629 229.24343,264.08629 229.24343,264.08629C229.24343,264.08629 229.24343,284.66887 229.24343,284.66887C229.24343,288.95689 227.09942,291.4225 222.91859,291.4225C218.73774,291.4225 216.59373,288.95689 216.59373,284.66887C216.59373,284.66887 216.59373,264.08629 216.59373,264.08629C216.59373,264.08629 216.59373,264.08629 216.59373,264.08629M232.03067,264.08629C238.99873,263.87187 244.78757,263.44307 244.78757,271.26875C244.78757,274.05595 243.92998,275.87837 242.00035,276.73597C247.25319,278.7728 246.61,292.38731 238.78432,291.1009C238.78432,291.1009 232.03067,291.1009 232.03067,291.1009C232.03067,291.1009 232.03067,264.08628 232.03067,264.08628C232.03067,264.08628 232.03067,264.08628 232.03067,264.08628M240.92833,284.56165C240.92833,280.3808 240.39233,278.23679 236.31871,278.98719C236.31871,278.98719 236.31871,287.24168 236.31871,287.24168C238.89152,287.24168 240.92833,287.77769 240.92833,284.56166C240.92833,284.56166 240.92833,284.56166 240.92833,284.56166M240.49953,272.23357C240.49953,268.69591 239.64193,267.4095 236.31871,267.94551C236.31871,267.94551 236.31871,275.12797 236.31871,275.12797C238.89152,275.23518 240.49953,275.12797 240.49953,272.23356C240.49953,272.23356 240.49953,272.23356 240.49953,272.23356" stroke-width="0" stroke="#000000" fill="#ffffff" id="svg_21" style="pointer-events:inherit"/></g></g><defs><path id="svg_3" d="M102.86235,261.33591Q162.96234,263.33591 223.0947,261.08591" stroke="#000000" fill="#000000"/><path id="svg_6" d="M105.79813,262.52237Q154.09812,262.62238 202.38495,262.50778" stroke="#000000" fill="#000000"/><path id="svg_8" d="M-135.50449,-2157.93921A9281.91602,9281.91602 0 0 1 18428.32755,-2157.93921A9281.91602,9281.91602 0 0 1 -135.50449,-2157.93921A9281.91602,9281.91602 0 0 1 18428.32755,-2157.93921A9281.91602,9281.91602 0 0 1 -135.50449,-2157.93921" stroke="#000000" fill="#000000"/><path fill="#000000" stroke="#000000" d="M-5064.29883,5313.86133A5213.91602,5213.91602 0 0 1 5363.5332,5313.86133A5213.91602,5213.91602 0 0 1 -5064.29883,5313.86133A5213.91602,5213.91602 0 0 1 5363.5332,5313.86133A5213.91602,5213.91602 0 0 1 -5064.29883,5313.86133" id="svg_7"/><path fill="#000000" stroke="#000000" d="M-5173.02686,5606.89648A5328.50732,5328.50732 0 0 1 5483.98779,5606.89648A5328.50732,5328.50732 0 0 1 -5173.02686,5606.89648A5328.50732,5328.50732 0 0 1 5483.98779,5606.89648A5328.50732,5328.50732 0 0 1 -5173.02686,5606.89648" id="svg_11"/><mask id="canvasMaskImageDef" maskUnits="objectBoundingBox" x="0" y="0"><image xmlns:xlink="http://www.w3.org/1999/xlink" id="canvasMaskImage" preserveAspectRatio="none" x="-103.65" y="-36.45" width="400" height="440.0580551523948" xlink:href="http://allinonedesigner.designnbuy.in/media/catalog/product/w/h/white-tees-1_-front_1_3.png"/></mask></defs></svg>