<?xml version="1.0" encoding="utf-8"?>
<!-- Generator: Adobe Illustrator 16.0.3, SVG Export Plug-In . SVG Version: 6.00 Build 0)  -->
<!DOCTYPE svg PUBLIC "-//W3C//DTD SVG 1.1//EN" "http://www.w3.org/Graphics/SVG/1.1/DTD/svg11.dtd">
<svg version="1.1"
	 id="svg2" xmlns:inkscape="http://www.inkscape.org/namespaces/inkscape" xmlns:rdf="http://www.w3.org/1999/02/22-rdf-syntax-ns#" xmlns:cc="http://creativecommons.org/ns#" xmlns:dc="http://purl.org/dc/elements/1.1/" xmlns:sodipodi="http://sodipodi.sourceforge.net/DTD/sodipodi-0.dtd" xmlns:svg="http://www.w3.org/2000/svg" xmlns:ns1="http://sozi.baierouge.fr" inkscape:version="0.91 r13725"
	 xmlns="http://www.w3.org/2000/svg" xmlns:xlink="http://www.w3.org/1999/xlink" x="0px" y="0px" width="136.822px"
	 height="165.033px" viewBox="75.567 161.768 136.822 165.033" enable-background="new 75.567 161.768 136.822 165.033"
	 xml:space="preserve">
<path fill="#FF6600" d="M79.087,243.332c0,0.001,0,0.002,0,0.002S79.087,243.334,79.087,243.332L79.087,243.332z M210.305,253.451
	c-3.463,41.217-31.447,73.35-65.455,73.35c-36.349,0-65.813-36.701-65.813-81.977c0-0.501,0.044-0.99,0.051-1.49
	c0.016,0.06,0.035,0.117,0.051,0.176c0.686,2.567,1.465,5.075,2.356,7.527s1.886,4.849,2.971,7.172
	c1.084,2.322,2.268,4.6,3.534,6.781c1.266,2.18,2.611,4.26,4.046,6.283c1.436,2.025,2.965,3.969,4.558,5.822
	c1.594,1.855,3.254,3.62,4.994,5.291c1.74,1.67,3.556,3.248,5.429,4.722s3.817,2.856,5.813,4.118
	c1.997,1.262,4.039,2.406,6.146,3.443s4.273,1.971,6.479,2.77c2.206,0.799,4.442,1.479,6.735,2.023
	c2.292,0.547,4.623,0.963,6.991,1.243c2.368,0.28,4.79,0.427,7.222,0.427s4.828-0.146,7.195-0.427
	c2.369-0.28,4.699-0.696,6.992-1.243c2.292-0.545,4.555-1.225,6.76-2.023c2.206-0.798,4.347-1.732,6.453-2.77
	c2.107-1.037,4.176-2.182,6.172-3.443s3.939-2.645,5.813-4.118s3.663-3.052,5.403-4.722c1.739-1.671,3.426-3.436,5.02-5.291
	c1.594-1.854,3.097-3.797,4.533-5.822c1.436-2.023,2.805-4.104,4.07-6.283c1.267-2.182,2.425-4.459,3.51-6.781
	C209.053,256.668,209.67,255.051,210.305,253.451z M206.287,262.877c-0.601,1.327-1.184,2.668-1.864,3.947
	c-1.026,1.927-2.121,3.815-3.318,5.625c-1.197,1.809-2.493,3.533-3.851,5.212s-2.78,3.292-4.287,4.829
	c-1.507,1.539-3.102,3.002-4.747,4.389c-1.646,1.386-3.338,2.694-5.11,3.916c-1.771,1.223-3.609,2.369-5.498,3.416
	c-1.888,1.047-3.844,1.997-5.837,2.857c-1.993,0.859-0.458,8.742-2.544,9.404s-12.234,2.898-14.402,3.352
	c-2.169,0.453,0.076-7.982-2.163-7.75s-4.506,0.354-6.806,0.354s-4.59-0.121-6.83-0.354s-4.443-0.578-6.612-1.03
	c-2.168-0.453-4.284-1.017-6.37-1.679c-2.086-0.662,0.315,9.852-1.678,8.992c-1.993-0.861-11.489-5.991-13.377-7.038
	c-1.888-1.047-0.611-9.302-2.383-10.524c-1.772-1.222-3.489-2.53-5.134-3.916c-1.646-1.387-3.216-2.85-4.723-4.389
	c-1.507-1.537-2.953-3.15-4.311-4.829c-1.357-1.679-2.629-3.403-3.827-5.212c-1.197-1.81-2.317-3.698-3.342-5.625
	c-1.026-1.928-1.967-3.916-2.81-5.949s-1.579-4.113-2.228-6.243c-0.015-0.05-0.033-0.097-0.048-0.146v-0.001h0l0,0.001
	c-0.007,0.414-0.048,0.82-0.048,1.235c0,31.764,19.934,58.439,46.882,65.912c0.698,0.193,2.016-6.609,2.58-7.287
	c0.124-0.148,0.216-0.266,0.293-0.366l18.163,1.169c0,0,0.302,1.343,3.037,7.91c0.168,0.406,0.918-0.118,1.375-0.187
	C182.055,318.756,203.362,293.419,206.287,262.877z"/>
<path stroke="#000000" stroke-width="0.2752" d="M76.75,213.627c-5.709-4.253,13.364-49.967,22.97-51.688
	c6.803-1.313,35.49,36.148,31.64,42.434C128.761,212.702,82.064,219.527,76.75,213.627L76.75,213.627z M211.205,214.259
	c5.709-4.253-13.364-49.967-22.97-51.688c-6.804-1.313-35.491,36.148-31.64,42.434C159.193,213.334,205.892,220.159,211.205,214.259
	L211.205,214.259z"/>
</svg>
