<?xml version="1.0" encoding="utf-8"?>
<!-- Generator: Adobe Illustrator 16.0.0, SVG Export Plug-In . SVG Version: 6.00 Build 0)  -->
<!DOCTYPE svg PUBLIC "-//W3C//DTD SVG 1.1//EN" "http://www.w3.org/Graphics/SVG/1.1/DTD/svg11.dtd">
<svg version="1.1" id="Layer_1" xmlns="http://www.w3.org/2000/svg" xmlns:xlink="http://www.w3.org/1999/xlink" x="0px" y="0px"
	 width="100px" height="100px" viewBox="0 0 100 100" enable-background="new 0 0 100 100" xml:space="preserve">
<path d="M53.438,6.809c0.258,0.09,0.43,0.053,0.779,0.167C54.089,7.01,53.455,7.071,53.438,6.809z M56.336,7.199
	c-0.236,0-0.357,0.106-0.502-0.056C55.932,6.907,56.338,6.973,56.336,7.199z M52.712,12.161c0.912,0.307,0.408-1.246,1.06-1.505
	c0.478,0.315,0.162,1.041,0.168,1.505C53.555,12.347,52.838,12.536,52.712,12.161z M51.82,12.161c0.224-0.239,0.5,0.085,0.613-0.111
	c0.133-0.023,0.121,0.102,0.277,0.056C52.579,12.403,51.973,12.274,51.82,12.161z M51.318,17.067c0.08,0.088,0.123-0.006,0.334,0
	c-0.086,0.321,0.826,0.094,0.947,0.39c-0.25,0.154-1.188,0.72-1.562,0.725c-0.714,0.008-1.556-0.769-1.227-1.616
	c0.28-0.197,0.718-0.59,1.115-0.391C51.266,16.344,51.379,16.848,51.318,17.067z M47.972,17.569c0.254,0.008,0.219,0.046,0.447,0
	c0.261,0.667,0.805,1.053,1.226,1.561c-0.087,0.409-0.562,0.095-0.948,0.167c0-0.286-0.058-0.351-0.278-0.502
	c-0.481,0.215-0.763,0.705-1.395,0.614c0.41-0.502,0.613-1.21,1.06-1.673C48.048,17.68,47.957,17.679,47.972,17.569z M32.25,21.528
	c0.172-1.02,0.607-2.457,2.23-2.23c1.132,0.365,0.313,2.239-0.613,1.171c-0.474,0.187-0.816,0.519-0.836,1.003
	c-0.045,1.063,1.252,1.351,1.784,1.896c-0.303,0.254-0.583,0.532-1.004,0.669c0.209-0.554-0.39-0.653-0.668-0.892
	c-0.594,0.088-0.42,1.178,0,1.338c-0.291-0.02-0.596,0.25-0.836,0.446c-0.307-0.272-0.239-0.974,0-1.282
	c-0.371-0.305-0.174-1.357-0.112-2.007C32.201,21.57,31.948,21.524,32.25,21.528z M26.619,22.921
	c-0.019,0.583,0.155,1.765,0.056,2.341c-0.675-0.228-1.503-0.183-2.23-0.111C24.76,24.188,25.772,23.504,26.619,22.921z
	 M29.853,26.713c0.123,0.006,0.023,0.236,0.056,0.334c-0.475,0.123-1.761,0.262-0.892,0.781c-0.283,0.237-0.367,0.674-0.836,0.725
	c0.04-0.572-0.157-0.692,0-1.171c-0.206-0.146-0.307-0.398-0.446-0.613C28.071,25.856,29.135,26.793,29.853,26.713z M14.577,42.156
	c-0.043,0.05-0.06,0.125-0.056,0.223c-0.075,0-0.149,0-0.223,0C14.231,42.138,14.459,42.045,14.577,42.156z M19.929,45.055
	c0.215,0.235,0.03,0.622,0,0.892c-0.078,0.7-0.129,1.327-0.167,2.119c-0.306,0.065-0.436-0.582-0.613-0.279
	c-0.319-0.673-1.288-1.139-1.729-1.337c0.275-0.529,1.417-0.453,1.84-1.283C19.487,45.22,19.848,45.288,19.929,45.055z
	 M19.315,46.784c0.245,0.021,0.192-0.253,0.279-0.39C19.327,46.341,19.195,46.622,19.315,46.784z M81.369,53.586
	c0.013-0.263-0.352-0.979,0-1.061c0.156,0.457,0.381,0.847,0.779,1.061c-0.366-0.006-0.565,0.516-1.002,0.612
	c-0.039-0.224,0.053-0.318,0.055-0.501C81.441,53.863,81.107,53.559,81.369,53.586z M80.645,53.641c0.172-0.084,0.172,0.364,0,0.279
	C80.645,53.826,80.645,53.734,80.645,53.641z M82.874,54.311c0.078-0.127,0.388-0.021,0.558-0.057
	C83.354,54.382,83.043,54.275,82.874,54.311z M85.383,55.091c-0.023,0.068-0.07,0.114-0.167,0.111
	c0.302,0.978-0.043,1.86-0.223,2.788c0.056,0.076,0.092-0.024,0.167,0.111c0.013,0.217-0.12,0.289-0.167,0.445
	c-0.218-0.07,0.036-0.286-0.167-0.391c-0.58,0.255-0.99,0.056-1.506-0.112c-0.1-0.194-0.201-0.301-0.111-0.558
	c0.84-0.016,0.98-0.728,1.171-1.395c-0.146-1.189-2.002-1.583-2.731-0.779c-0.086-0.218,0.328-0.414,0.391-0.67
	c0.83-0.298,1.998-0.216,2.844,0.057c0.016,0.091-0.053,0.097-0.056,0.167C85.23,54.962,85.063,55.146,85.383,55.091z
	 M80.532,58.213c0.175-0.025,0.179,0.119,0.167,0.278C80.525,58.518,80.521,58.372,80.532,58.213z M81.48,59.216
	c0.148,0.13,0.193,0.364,0.391,0.447c-0.221,0.161-0.346-0.249-0.502-0.335C81.383,59.268,81.479,59.29,81.48,59.216z
	 M13.852,61.223c0.431,1.562,1.171,3.103,1.561,4.518c-1.011,0.755-2.353,1.179-3.457,1.841c0.205,1.317,0.943,2.485,1.672,3.455
	c0.546-0.302,1.583-0.535,1.45,0.28c-0.085,0.521-1.092,0.605-1.394,1.059c-0.224-0.02-0.253-0.23-0.502-0.223
	c-0.751-1.582-1.739-2.76-2.229-4.685c1.173-0.704,2.736-1.017,3.847-1.782c-0.153-1.103-0.955-2.309-1.115-3.402
	c-0.578-0.057-0.864,0.177-1.338,0.224c-0.197-0.155-0.392-0.313-0.334-0.725C12.541,61.51,13.077,61.247,13.852,61.223z
	 M23.999,68.081c-0.227,0.127-0.57,0.136-0.892,0.167c-0.182-0.176-0.026-0.154-0.167-0.223c0.459-0.776,0.652-1.515,0.781-2.342
	c0.382,0.125,0.358,0.373,0.558,0.725c0.35,0.591,0.959,1.275,1.226,1.896C24.975,68.082,24.474,68.508,23.999,68.081z M24.11,67.58
	c0.074,0,0.149,0,0.223,0c0.016-0.146-0.02-0.24-0.167-0.225C24.179,67.462,24.103,67.479,24.11,67.58z M19.148,68.525
	c0.001-0.053,0.068-0.041,0.111-0.056c0.787,0.396,1.611,0.511,2.565,0.503c-0.121,0.646-0.689,1.522-0.502,2.62
	c-0.977-0.454-1.149-1.713-2.007-2.286C19.461,69.046,19.212,68.759,19.148,68.525z M69.382,74.271
	c0.05,0.041,0.126,0.06,0.224,0.055c-0.002,0.055-0.067,0.043-0.111,0.056c0.093,0.109-0.041,0.329-0.223,0.334
	C69.367,74.504,69.331,74.505,69.382,74.271z M77.521,79.176c0.056,0,0.111,0,0.168,0c-0.002,0.055-0.068,0.043-0.112,0.057
	c0.044,0.05,0.062,0.125,0.057,0.223c-0.073,0-0.147,0-0.224,0c0.033-0.049,0.066-0.1,0-0.11
	C77.447,79.287,77.539,79.285,77.521,79.176z M84.102,14.112c0.635,1.133,1.693,1.893,2.51,2.844c2.365,2.761,4.707,5.9,6.635,9.311
	c0.646,1.144,1.341,2.269,1.839,3.512c0.503,1.255,1.104,2.467,1.562,3.792c0.901,2.606,1.679,5.337,2.174,8.251
	c1.06,6.22,0.869,12.55-0.391,18.398c-0.642,2.981-1.291,5.652-2.341,8.139c-2.051,4.858-4.683,9.615-7.973,13.382
	c-3.279,3.755-7.198,7.157-11.431,9.979c-2.158,1.44-4.474,2.442-7.024,3.624c-5.056,2.342-10.897,3.62-17.004,3.903
	c-5.833,0.269-11.879-0.33-17.005-1.951c-0.379-0.121-0.748-0.069-1.115-0.167c-0.294-0.079-0.565-0.368-0.892-0.503
	c-1.609-0.661-3.45-1.206-5.018-1.951c-8.115-3.852-14.662-9.559-19.513-16.614C6.061,73.622,3.607,68.65,2.2,62.784
	c-1.198-4.99-2.063-11.191-1.561-16.837c0.033-0.369,0.089-0.714,0.111-1.059c0.025-0.383-0.127-0.706-0.111-1.06
	c0.013-0.292,0.252-0.622,0.334-1.003c0.213-0.993,0.183-2.127,0.39-3.011c0.82-3.492,1.779-6.723,3.122-9.756
	c0.258-0.583,0.652-1.17,0.614-1.84c0.942-1.238,1.56-2.664,2.341-3.958c1.179-1.952,2.438-3.784,3.902-5.464
	c0.494-0.566,0.972-1.114,1.45-1.672c0.964-1.128,2.156-2.019,3.066-3.178c1.176-0.707,2.115-1.712,3.178-2.565
	c3.173-2.546,6.859-4.608,10.816-6.411c5.318-2.425,11.295-3.902,18.51-4.237c6.361-0.296,13.936,1.065,19.07,3.122
	c4.064,1.63,7.75,3.584,11.094,5.966c0.548,0.39,1.07,0.856,1.615,1.227c0.568,0.385,1.188,0.719,1.674,1.115
	C82.582,12.788,83.137,13.821,84.102,14.112z M23.665,14.782c-0.35,0.063-0.645,0.495-1.004,0.613
	c-0.07,0.414-0.495,0.334-0.669,0.446c-0.419,0.269-0.617,0.716-1.003,1.059c-0.282,0.251-0.692,0.559-1.003,0.781
	c-0.052,0.037-0.167,0.011-0.223,0.056c-0.415,0.334-0.72,0.771-1.115,1.171c-0.247,0.25-0.608,0.401-0.836,0.669
	c-0.506,0.591-0.808,1.348-1.506,1.672c-1.587,2.063-3.202,3.936-4.404,6.468c-0.496,0.403-0.59,1.082-1.003,1.45
	c-0.247,0.923-0.804,1.538-1.171,2.341c-0.271,1.15-1.117,2.098-1.171,3.123c-0.113,0.017-0.109,0.15-0.223,0.167
	c-0.223,1.099-0.913,2.063-0.892,3.067c-0.524,1.089-0.755,2.675-1.004,4.013c-0.054,0.293-0.288,0.636-0.111,0.893
	c-0.309,0.061-0.003,0.387-0.278,0.613c-0.113,1.874-0.493,3.633-0.391,5.408c0.013,0.215-0.104,0.516-0.111,0.78
	c-0.007,0.243-0.009,0.49,0,0.725c0.043,1.131-0.104,2.416,0.056,3.68c0.049,0.395,0.169,0.711,0.167,1.061
	c-0.006,0.914,0.305,1.882,0.39,2.676c0.125,1.155,0.283,2.252,0.614,3.122c-0.043,0.013-0.11,0.002-0.111,0.056
	c0.26,0.485,0.228,1.066,0.39,1.563c0.25,0.765,0.552,1.539,0.781,2.286c0.073,0.237,0.017,0.495,0.111,0.725
	c0.095,0.229,0.312,0.371,0.391,0.613c0.352,1.085,0.688,2.493,1.394,3.399c0.311,1.146,0.895,2.157,1.617,3.066
	c0.269-0.286-0.233-0.445,0.056-0.725c-0.475-0.729-0.503-1.291-1.004-1.783c-0.079-0.801-0.787-1.29-0.892-2.23
	c-0.066-0.082-0.21-0.087-0.279-0.168c0.152-0.476-0.526-1.299-0.614-1.84c0,0.073-0.154,0.071-0.167,0
	c0.057-0.054,0.113-0.109,0.167-0.167c-0.326-0.207-0.145-0.903-0.557-1.228c0.128,0.111,0.062-0.014,0.167-0.055
	c-0.215-0.33-0.321-0.635-0.223-0.947c-0.5-0.168-0.145-0.627-0.557-1.004c0.18-0.069,0.042,0.18,0.223,0.11
	c-0.266-0.883-0.507-1.696-0.673-2.677c-0.077-0.139-0.158-0.133-0.223-0.167c0.108-0.142,0.17-0.368-0.056-0.447
	c0.081-0.122,0.136,0.071,0.167-0.055c-0.245-0.321-0.222-0.603-0.279-1.06c-0.147,0.111-0.114-0.257-0.223-0.111
	c0.43-0.436-0.115-0.731-0.112-1.115c0.001-0.139,0.188-0.102,0.223-0.225c0.042-0.146,0.012-0.522,0-0.668
	c0.002,0.026-0.031-0.219-0.056-0.334c-0.037-0.17-0.153-0.23-0.167-0.392c-0.038-0.43-0.037-1.239,0-1.562
	c-0.145-0.319,0.031-1.104,0-1.784c-0.083-0.009-0.206,0.021-0.223-0.056c0.175,0.063,0.135-0.088,0.223-0.111
	C6.05,51.178,5.747,50.6,6.212,50.183c-0.175-1.136,0.354-1.794,0.056-2.621c0.277-0.227,0.03-0.388,0.056-0.78
	c0.095-0.035,0.092-0.168,0.167-0.223c-0.023-1.37,0.339-2.244,0.446-3.569c0.044-0.543,0.038-1.056,0.167-1.616
	c0.055,0,0.111,0,0.167,0c-0.13-0.359,0.069-0.709,0.112-0.892c0.05-0.216,0.087-1.373,0.279-1.394
	c-0.026,0.002,0.033,0.214,0.056,0.167c0.539-1.1,0.215-1.972,0.948-3.011c-0.271,0,0.153-0.1-0.056-0.223
	c0.449-0.201,0.195-1.105,0.669-1.282c0.182-1.036,0.443-1.237,0.669-2.286c0.105,0.012,0.123-0.063,0.223-0.056
	c-0.207-0.2,0.148-0.226,0.167-0.502c0.013,0.043,0.001,0.11,0.056,0.112c0.785-1.832,1.486-3.068,2.453-4.405
	c-0.043-0.013-0.11-0.001-0.111-0.056c0.263-0.034,0.212-0.383,0.446-0.446c0.183-1,0.878-1.426,1.283-2.397
	c0.441-0.172,0.574-0.598,0.892-1.004c0.106-0.023,0.101-0.159,0.278-0.111c0.37-1.043,1.402-1.423,1.729-2.509
	c0.179-0.007,0.249-0.123,0.39-0.167c-0.066-0.104,0.397-0.396,0.279-0.558c0.075,0,0.149,0,0.223,0
	c0.833-1.251,2.291-2.166,3.066-3.289c0.363-0.139,0.815-0.36,0.892-0.613c0.435-0.043,0.578-0.837,0.836-0.558
	c0.049-0.474,0.426-0.439,0.558-0.725c-0.097,0.114,0.042,0.11-0.056,0.224c0.197,0.047,0.221-0.279,0.279-0.335
	c-0.023,0.023,0.091,0.123,0.112,0.111c0.021-0.011-0.023-0.145,0-0.167c0.04-0.038,0.188-0.016,0.223-0.056
	c0.061-0.07-0.022-0.166,0.056-0.223c0.133-0.098,0.348-0.128,0.502-0.167c-0.057-0.001-0.07-0.098,0-0.112
	c1.072-0.538,1.624-1.263,2.676-1.784c0,0.056-0.045,0.066-0.056,0.111c0.726-0.44,1.62-0.834,2.174-1.283
	c0.074,0.001,0.051,0.098,0.112,0.112c0.637-0.408,1.925-0.772,2.509-1.338c0.787,0.059,1.363-0.567,1.951-0.892
	c0.153,0.084,0.396,0.055,0.892-0.111c0.241-0.082,1.306-0.361,1.06-0.446c0.713,0.017,1.389-0.679,2.397-0.669
	c0.237-0.154,0.589-0.191,0.836-0.335c0.083,0.029,0.141,0.083,0.223,0.112c0.438-0.393,1.129-0.359,1.505-0.446
	c0.336-0.077,0.646-0.287,1.003-0.39c0.448-0.129,0.955,0.05,1.449,0c1.341-0.136,2.05-0.576,3.011-0.334
	c1.324-0.42,3.111-0.039,4.349-0.39c0.983,0.325,1.549,0.467,2.51,0.446c-0.075,0.157,0.296,0.139,0.111,0.223
	c-0.477,0.025-1.375-0.223-2.23,0.167c-0.041,0.5,0.15,1.203-0.111,1.45c0.295,0.497,0.086,0.98,0.279,1.672
	c0.115-0.058,0.742,0.057,0.893,0.39c-0.361,0.415-0.781,0.193-1.506,0.223c-0.583-0.915-0.375-2.666-0.501-3.68
	c-0.351-0.235-1.044-0.284-1.45-0.056c-0.607-0.2-2.05-0.015-2.508,0.112c-1.286,0.007-2.049-0.027-3.122,0.39
	c0.11,1.242,0.088,2.446,0.724,3.29c0.503,0,0.875-0.08,1.116,0.112c-0.486,0.289-1.232,0.261-1.896,0.39
	c-0.7-0.146-0.592-1.639-1.003-1.561c0.107-0.114,0.038-0.366-0.056-0.446c-0.091,0.077-0.177,0.158-0.279,0.223
	c0.006,0.844,0.009,1.494,0.391,2.453c1.155,0.303,2.674-0.322,3.513-0.279c0.136-0.143,0.234-0.323,0.334-0.502
	c-0.264-0.154,0.024-0.574,0.39-0.446c0.061,0.49,0.086,0.798-0.055,1.282c-1.428,0.395-3.408,0.537-4.46,0.836
	c-0.655-0.775-0.846-2.016-1.17-3.122c-0.322-0.518-1.211-0.114-1.617,0c-0.272,0.076-0.612-0.013-0.892,0.056
	c-0.084,0.021-0.208,0.175-0.334,0.223c-0.551,0.209-1.045,0.235-1.227,0.613c0.039,0.464,0.116,0.917-0.279,1.059
	c-0.439-0.265-0.824-1.029-1.114-1.45c0.237-0.491,1.096-0.917,1.617-1.059c-0.319,0.088-0.279-0.109-0.669-0.056
	c-0.168,0.037-0.155,0.253-0.279,0.334c-0.045-0.322-1.079-0.009-1.003,0.502c0.356,0.176,0.25,0.57,0.446,0.669
	c-0.066,0.027-0.126,0.059-0.167,0.111c0.165,0.539,0.26,1.372,0.669,1.784c0.446,0.087,0.44-0.021,0.836-0.112
	c0.15,0.11,0.349,0.172,0.391,0.391c-0.375,0.331-0.94,0.472-1.505,0.613c-0.892-0.863-1.128-2.179-1.785-3.178
	c-1.73,0.277-2.876,1.138-4.237,1.784c-0.03,0.193-0.277,0.169-0.334,0.334c-0.106-0.034-0.211,0.036-0.335,0.056
	c-0.12,0.326-1.292,0.516-1.394,1.227c0.409,0.589,0.762,1.305,1.171,1.895c0.139,0.202,0.208,0.415,0.334,0.502
	c0.55,0.377,0.896-0.426,1.505-0.223c-0.206,0.33-0.829,0.804-1.282,1.06c-0.549,0.309-0.833,0.049-1.171-0.391
	c-0.623-0.81-1.132-1.715-1.84-2.23c-0.009,0.066,0.009,0.159-0.056,0.167c-0.119-0.227-0.713,0.066-0.725,0.446
	c0.383-0.235,0.461-0.028,0.948,0c0.029,0.512,0.555,1.138,0.836,1.506c0.392,0.511,0.776,1.255,1.227,1.394
	c0.376,0.116,0.628-0.24,1.115-0.502c0.124-0.066,0.452-0.105,0.558-0.167c0.47-0.277,0.951-0.89,1.282-0.948
	c0.173-0.334-0.059-0.648,0.056-0.892c0.139,0.009,0.173-0.087,0.279-0.111c0.365,0.587,0.664,1.095,0.056,1.561
	c-0.59,0.452-1.161,0.68-1.84,1.171c-0.128,0.093-0.325,0.222-0.446,0.278c-0.632,0.297-1.096,0.906-1.617,0.558
	c-0.479-0.321-1.008-1.414-1.449-1.896c-0.042-0.047-0.175-0.014-0.223-0.056c-0.208-0.182-0.226-0.407-0.39-0.446
	c-0.38-0.092-0.668,0.24-1.003,0.446c-0.921,0.565-1.295,1.154-2.119,1.617c-0.221,0.582,0.331,0.751,0.279,1.338
	c-0.811,0.062-1.203-0.74-1.673-1.059c0.12-0.635,0.583-1.151,1.06-1.338c-0.133-0.093,0.287-0.301-0.056-0.334
	c0.112,0.318-0.299,0.092-0.334,0.446c-0.083-0.089-0.248,0.137-0.279,0.224c-0.371,0.298-0.945,0.394-1.003,1.003
	c0.432,0.5,1.118,1.507,1.784,2.007c0.457,0.134,1.393-0.806,1.45,0c0.021,0.298-0.534,0.59-0.558,0.613
	c-0.247,0.229-0.426,0.497-0.668,0.502c-0.244,0.005-0.717-0.363-0.948-0.558c-0.942-0.793-1.755-2.086-2.62-1.338
	c-0.263,0.573-0.854,0.819-1.17,1.338c-0.583,0.508-1.137,1.28-1.617,1.84c-0.051,0.06-0.205,0.088-0.223,0.111
	c-0.037,0.045,0.035,0.177,0,0.223c-0.36,0.481-1.012,0.939-0.892,1.617c0.844,0.643,1.63,1.344,2.676,1.784
	c0.448-0.202,0.578-0.723,1.06-0.892c0.122,0.367-0.281,0.556-0.391,0.668c-0.411,0.424-0.483,1.113-0.892,1.06
	c-0.864-0.385-1.946-0.967-2.677-1.394c-0.158-0.093-0.221-0.266-0.39-0.279c-0.943-0.075-1.017,1.424-1.728,1.84
	c0.022,0.044-0.069,0.449-0.279,0.446c-0.474,1.583-1.504,2.271-1.729,4.07c1.047,0.343,1.992,1.242,3.01,1.115
	c0.125-0.34,0.255-0.674,0.725-0.669c0.001,0.074,0.098,0.051,0.111,0.112c0.015,0.458-0.268,1.147-0.613,1.561
	c-0.157,0.162-0.395-0.021-0.391,0.167c-0.986-0.376-2.257-0.831-3.29-1.115c-0.525,0.273-0.511,1.087-0.892,1.505
	c-0.361,1.779-1.298,3.504-1.338,5.24c0.975,0.383,2.091,0.623,3.29,0.781c0.317-0.417,0.073-1.556,0.948-1.562
	c0.005,1.009-0.695,1.312-0.669,2.342c-0.691,0.509-1.945-0.11-2.788,0.111c0.006,0.285,0.184,0.076,0.391,0.112
	c0.538,0.373,1.326,0.453,1.951,0.501c0.237,0.246,0.566,0.401,1.06,0.391c0.193-0.066,0.2-0.321,0.502-0.279
	c0.056,0.371,0.054,0.727-0.111,1.003c-1.326,0.13-2.419-0.092-3.625-0.223c-0.229,0.086-0.262,0.37-0.446,0.502
	c-0.021,1.171-0.343,2.204-0.334,3.4c0.22,0.412,1.195,0.068,1.171,0.725C8.978,48.471,8.34,48.307,7.775,48.4
	c-0.018-0.131-0.173-0.125-0.223-0.224c-0.271-1.16-0.081-3.357,0.167-3.846c-0.188-0.382,0.271-1.041,0-1.339
	c-0.014,0.099-0.096,0.128-0.223,0.112c-0.195,0.848-0.246,1.737-0.39,2.342c0.12,0.996-0.494,2.098-0.056,3.568
	c1.048,0.046,2.266,0.061,3.011,0c0.149-0.452,0.214-1.032,0.725-1.003c0.401,0.352,0.181,1.352,0.111,1.896
	c-1.206,0.322-2.405,0.168-3.847,0.334c-0.17,0.541-0.103,0.935,0.391,1.171c0.219-0.041,0.133-0.388,0.334-0.446
	c1.12-0.263,2.782,0.359,4.125-0.279c0.027-1.347,0.11-2.255,0.112-3.567c-0.378-0.068-0.75-0.142-1.227-0.111
	c-0.459-0.264-0.422-0.717-0.223-1.002c0.268-0.086,0.517,0.032,0.78,0.055c0.982,0.085,1.319,0.465,1.283,1.728
	c-0.009,0.313-0.211,0.672-0.223,1.059c-0.009,0.295,0.16,0.56,0.167,0.836c0.009,0.317-0.228,0.938-0.056,1.282
	c0.328-0.13,0.182-0.491,0.056-0.78c0.276,0.009,0.14-0.173,0-0.223c0.223-0.055,0.242-0.147,0.391-0.167
	c-0.08-0.101,0.048-0.232-0.167-0.278c0.395-0.638,0.299-1.314,0.278-2.174c0.273-0.231,0.37-0.736,0.279-1.17
	c0.039-0.166,0.166-0.244,0.111-0.502c-0.358-0.458-1.135-0.084-1.617-0.111c0.085,0.014,0.008,0.091-0.056,0.111
	c-0.491-0.271-0.911-0.09-1.561-0.334c-0.658,0.355,0.02,1.382-0.836,1.505c-0.194-0.728,0.078-1.318,0.111-2.063
	c0.177-0.146,0.391-0.244,0.557-0.224c1.036,0.126,2.429,0.552,3.568,0.447c0.401-0.547,0.088-1.807,0.836-2.008
	c0.096,0.611-0.243,1.492-0.223,2.119c0.004,0.151,0.069,0.517,0.223,0.503c0.01-0.326,0.059-0.964,0.557-1.228
	c0.12,0.996,1.024,1.207,1.505,1.84c-0.303,0.244-0.815,0.361-1.227,0.668c-0.429,0.321-0.67,0.996-0.892,0.836
	c-0.143-0.173-0.068-0.312-0.056-0.558c-0.299,0.091-0.302,0.481-0.334,0.726c-0.141,1.068-0.159,2.243,0.112,2.899
	c0.076-0.24,0.142-0.49,0.223-0.725c0.387,0.101,0.372,0.523,0.558,0.781c0.408,0.564,1.061,0.813,1.617,1.227
	c0.445,0.036,0.583,0.104,0.781,0.167c-0.025-0.336-0.232-0.188-0.334-0.224c-0.351-0.317-0.671-0.715-1.115-0.893
	c0.068-0.007,0.132-0.017,0.112-0.111c-0.466-0.42-0.257-0.86-0.725-1.337c0.107-0.219,0.023-0.597,0.112-0.948
	c0.519-0.21,0.816-0.794,1.449-0.725c0.658,0.273,0.749,1.404-0.223,1.395c-0.131,0.644,0.229,1.2,0.669,1.45
	c1.273,0.143,1.57-0.599,2.397-1.004c0.115,1.234-0.276,2.25,0.334,3.234c0.365-1.89-0.307-3.187,0.167-4.794
	c-0.37-0.64,0.314-1.139,0-1.785c0.332-1.739,0.817-3.332,1.003-4.962c0.529-0.814,0.581-1.826,0.948-2.731
	c0.115-0.284,0.376-0.498,0.501-0.78c0.657-1.482,1.072-3.173,2.174-4.238c0.178-0.528,0.461-0.951,0.892-1.227
	c0.094-0.334,0.309-0.546,0.39-0.892c0.153-0.089,0.275-0.208,0.446-0.279c0.161-0.439,0.427-0.925,0.781-1.003
	c0.615-0.946,1.363-1.758,2.286-2.397c0.12-0.14,0.209-0.311,0.334-0.446c0.391-0.184,0.594-0.559,0.892-0.836
	c0.614-0.573,1.337-0.917,2.063-1.394c0.618-0.407,1.125-0.941,1.729-1.338c1.638-1.079,3.783-1.994,5.687-2.676
	c0.632-0.227,1.21-0.217,1.84-0.446c0.771-0.282,1.696-0.659,2.62-0.558c0.284-0.395,0.66-0.3,1.115-0.334
	c1.574-0.119,3.334-0.354,4.906-0.39c0.659-0.015,1.458,0.521,2.063,0c-0.176-0.14-0.479-0.152-0.613-0.334
	c0.534-0.221,1.146-1.405,1.617-0.669c-0.068,0.21-0.197,0.36-0.223,0.613c0.178,0.277,0.621,0.394,0.946,0.224
	c-0.004-0.19-0.017-0.389,0.112-0.446c0.431-0.049,1.335,0.506,1.003,1.115c0.435,0.232,0.703,0.073,1.114,0.167
	c-0.022-0.005-0.139,0.042-0.111,0.056c0.292,0.142,0.688,0.293,1.172,0.279c-0.023-0.238-0.283-0.237-0.279-0.502
	c0.605-0.373,1.113-1.193,1.84-1.617c0.306,0.455,0.289,1.669,0.949,1.952c0.088,0.221,0.039,0.231,0.223,0.334
	c-0.063,0.175-0.026,0.147,0.056,0.279c-0.071-0.003-0.077-0.071-0.167-0.056c0.007,0.313,0.62,0.103,0.277,0.446
	c0.258-0.06,0.302-0.084,0.559-0.056c-0.047,0.258-0.287,0.033-0.334,0.223c0.532,0.111,0.452,0.024,0.893,0.334
	c0.49-0.088,1.016-0.517,1.729-0.557c0.045-0.196,0.167-0.315,0.223-0.501c-1.136-0.03-2.131-0.197-2.73-0.725
	c-0.027-0.362-0.292-0.535-0.279-0.892c0.049-1.357,2.232-1.216,1.729,0.167c0.199,0.096,0.229,0.312,0.502,0.446
	c0.74,0.074,1.244-0.478,1.338-1.227c0.078-0.624-0.405-1.027-0.502-1.561c0.109-0.134,0.16-0.051,0.279-0.223
	c-0.396-0.306-1.248-0.631-2.063-0.781c-0.012,0.043-0.046,0.065-0.111,0.056c-0.07,0.116-0.144,0.227-0.279,0.279
	c-0.979,0.135-1.504,1.022-2.174,1.282c-0.134-0.943-0.717-1.789-1.059-2.453c0.029-0.056,0.288-0.247,0.057-0.223
	c-0.146-0.027,0-0.204-0.392-0.112c0.171-0.169-0.206-0.076-0.224-0.223c-0.76,0.104-1.504-0.53-1.896-0.111
	c0.145,0.12,0.316-0.051,0.391,0.056c-0.136,0.519-1.111,0.48-1.06,1.003c-0.099-0.104-0.142,0.045-0.334,0
	c0.03,0.098-0.067,0.328,0.056,0.334c-0.016-0.127,0.014-0.209,0.111-0.223c-0.063,0.175-0.036,0.157,0.111,0.223
	c0.16-0.076,0.297-0.323,0.502-0.279c-0.057,0.075-0.151,0.11-0.168,0.223c0.584-0.486,2.107-0.17,2.285,0.78
	c0.239,1.269-1.442,1.317-1.561,0.335c-0.702-0.18-1.118,0.061-1.617,0.334c-0.345,0.487,0.008,0.777-0.445,1.115
	c-0.254-0.098-0.484-0.221-0.558-0.501c0.394-0.459,1.327-1.182,1.06-2.007c-0.789-0.008-0.949,0.611-1.562,0.781
	c-0.124-1.123-0.828-1.663-1.338-2.397c-0.032-0.181,0.017-0.281,0.11-0.334c-0.758-0.344-2.186-0.333-2.731-0.056
	c0.159,0.009,0.182,0.097,0.334,0.223c-0.659,0.476-1.107,1.161-1.617,1.784c-0.533-0.581-1.148-1.082-1.728-1.617
	c0.219-0.204,0.979-0.387,0.223-0.223c-0.06-0.052-0.018-0.206-0.167-0.167c-0.347,0.193-0.73-0.121-1.06,0
	c-0.514,0.188-1.231,0.267-1.617,0.558c0.17,0.071,0.404,0.079,0.558,0.167c-0.066,0.138-0.224,0.185-0.223,0.39
	c-0.125,0.008-0.405,0.098-0.558,0.223c-0.355,0.29-0.984,1.594-0.668,1.617c-0.263,0.441-0.579,0.533-0.614,1.115
	c0.111,0,0.223,0,0.334,0c0.044-0.384,0.151-0.369,0.167-0.78c0.114,0.031,0.11,0.167,0.223,0.056c-0.048-0.222-0.048-0.28,0-0.502
	c0.429,0.01,0.732-0.605,0.613-0.781c0.972-0.539,2.48-1.043,2.731,0.502c-0.112,0.184-0.279,0.315-0.445,0.446
	c-0.646-0.736-1.98-0.146-2.119,0.668c-0.137,0.804,0.833,1.418,0.892,2.063c-0.385,0.083-0.525,0.369-0.892,0.334
	c0.488-0.208-0.004-1.064-0.391-1.059c-0.442,0.005-0.521,0.626-0.391,1.171c-0.295,0.256-0.894,0.335-1.337,0.279
	c0.102-0.114,0.258-0.371,0.111-0.558c0.54-0.338,0.749-1.024,0.446-1.617c-0.5,0.419-1.076,1.356-1.952,1.505
	c-0.844,0.145-1.6-0.334-1.616-1.227c0.32-0.233,0.345-0.609,0.725-0.613c0.398-0.004,0.57,0.514,0.781,0.781
	c1.148,0.145,1.385-0.794,1.227-1.505c-0.065-0.009-0.158,0.01-0.167-0.056c0.085-0.458-0.482-0.743-0.725-1.06
	c-0.656-0.035-0.713-0.377-0.725-0.557c0.3,0.015,0.136-0.112,0.39-0.167c-0.925,0.231-2.553,0.445-3.568,1.282
	c0.303-0.121,0.78-0.162,0.947,0c-0.455,0.53-0.53,1.439-0.78,2.174c-0.737-0.253-1.386-0.874-2.174-0.892
	c0.021-0.222,0.5-0.617,0.223-0.613c-0.645,0.26-1.437,0.466-1.952,0.948c-0.456,0.059-0.91,0.462-1.115,0.836
	c0.219,0.079,0.457-0.291,0.725,0c-0.579,0.709-0.709,1.917-0.613,3.178c0.009,0.112,0.122,0.267,0.111,0.39
	c-0.056,0.625-0.759,1.841-1.227,2.174c-0.755,0.54-2.043,0.39-2.007-0.725c0.379-0.538,1.036-0.385,1.338,0.111
	c0.353,0.017,0.71-0.442,1.003-0.669c0.223-1.353-0.851-2.085-2.174-2.23c0.133-0.369,0.375-0.628,0.669-0.836
	c-0.198-0.165-0.208,0.057-0.224,0.112c-1.238,0.602-2.265,1.415-3.122,2.397c-0.131,0.016,0.064,0.149,0.056,0.223
	c-0.309-0.074-0.776,0.313-0.725,0.613c-0.392-0.021-0.328,0.416-0.725,0.39c-0.471,0.775-1.333,1.158-1.729,2.007
	c-0.383,0.179-0.836,0.759-1.003,1.338c0.378-0.086,0.496-0.433,0.892-0.502c-0.111,0.754-0.116,1.848,0.334,2.063
	c0.103-0.095,0.149-0.279,0-0.334c0.093,0,0.186,0,0.279,0c0.139-0.371,0.071-1.222,0.613-1.729c0.536-0.5,1.815-0.737,1.84,0.613
	c-0.14,0.177-0.331,0.302-0.613,0.334c-0.173,0.006-0.159-0.175-0.391-0.111c-0.428,0.188-0.572,0.755-0.446,1.338
	c0.545,0.791,1.483,0.76,2.453,0.948c-0.208,0.628-0.923,0.749-1.003,1.505c-0.744,0.149-0.668,1.116-1.227,1.45
	c-0.096-0.442-0.26-0.817-0.446-1.171c-0.188,0.28,0.069-0.176-0.223,0c0.043-0.119,0.135-0.312,0.056-0.39
	c-0.316-0.023,0.082-0.437-0.279-0.557c-0.022,0.757-0.133,1.814-0.78,2.676c-1.212,0.896-2.769-0.41-1.785-1.45
	c0.668-0.13,1.021,0.122,1.394,0.167c0.432-0.867-0.257-1.978-1.227-2.063c-0.469-0.041-0.783,0.244-1.282,0.279
	c-0.074-0.254-0.003-0.48,0-0.613c-0.058,0.297-0.311,0.324-0.502,0.558c-0.377,0.46-0.725,1.224-0.948,1.728
	c-0.146,0.331-0.074,0.105-0.223,0.223c-0.167,0.131-0.137,0.632-0.279,0.725c0.538-0.038,0.421-0.73,0.892-0.836
	c0.134,1.072,0.55,1.612,0.948,2.286c0.13,0,0.26,0,0.39,0c0.099,0.387,0.141,0.431,0.334,0.446c-0.026,0.418,0,0.13-0.334,0.223
	c-0.063-0.244-0.014-0.116-0.111-0.278c-0.62-0.202-1.942,0.012-2.732,0.501c-0.175-0.191-0.011-0.384-0.167-0.557
	c-0.439,0.177-0.585,0.807-0.669,1.171c-0.077-0.002-0.123,0.027-0.167,0.056c0.023,0.356-0.262,0.496-0.223,1.004
	c-0.721,1.149-0.617,3.346-1.728,4.349c-0.183-0.954,0.438-1.997,0.502-3.067c-1.023-0.51-1.971-0.792-3.234-1.003
	c-0.293,0.535-0.674,1.117-1.282,1.171c-0.155-0.083,0.097-0.228-0.056-0.278c-0.062,0.161-0.1,0.346-0.112,0.557
	c0.654,0.192,0.859,1.073,0.167,1.227c-0.113,0.025-0.116-0.093-0.223-0.111c-0.333-0.06-0.974,0.047-1.226-0.279
	c-0.27-1.055,0.476-1.71,0.501-2.731c0.256-0.588,0.409-0.817,0.725-1.506c0.214-0.466,0.154-0.873,0.502-0.947
	c0.321-0.068,0.718,0.288,0.948,0.39c0.272,0.122,0.587,0.153,0.725,0.223c0.122,0.062,0.17,0.233,0.279,0.279
	c0.712,0.296,1.276,0.398,2.007,0.557c0.391-1.077,0.772-2.164,1.394-3.01c-0.027-0.127-0.111-0.285,0-0.39
	c-0.363-0.251-0.731-0.496-1.171-0.669c-0.119-1.282,1.557-0.238,1.729,0.334c-0.905,1.543-1.258,2.657-1.896,4.07
	c-0.62,0.105-1.113-0.133-1.784-0.334c0.041,0.013,0.12-0.054,0.111-0.056c-0.705-0.165-1.389-0.351-2.007-0.557
	c-0.151,0.186-0.475,0.66-0.279,0.836c-0.173-0.045-0.227,0.343-0.056,0.167c-0.07,0.282,0.211-0.204,0.446,0
	c-0.026-0.174,0.14-0.157,0.223-0.223c1.151,0.105,2.401,1.055,3.791,1.171c0.339-0.696,0.589-1.626,0.948-2.454
	c0.295-0.681,0.749-1.364,1.003-1.895c0.08-0.167,0.167-0.626,0.279-0.836c0.109-0.207,0.168-0.049,0.167-0.223
	c-0.005-0.717-1.245-0.971-1.896-1.283c-0.326-0.156-0.534-0.431-0.836-0.446c-0.479,0.25-0.424,0.753-0.892,1.059
	c-0.012-0.043-0.046-0.064-0.111-0.056c0.247-0.72,0.477-1.456,1.115-1.784c1.177,0.533,2.039,1.381,3.4,1.729
	c0.767-1.11,1.568-2.186,2.23-3.401c0.483-0.209,0.497-0.692,0.948-1.171c0.171-0.182,0.375-0.214,0.446-0.334
	c0.348-0.589-0.162-0.798-0.502-1.115c-0.612-0.571-1.243-0.97-1.84-1.45c-0.496,0.043-0.683,0.396-1.003,0.613
	c-0.075,0-0.149,0-0.223,0c-0.261-0.809,0.579-1.408,1.171-1.728c1.12,0.711,1.836,1.691,2.955,2.286
	c0.48-0.198,0.885-1.079,1.115-1.003c1.037-1.134,2.287-2.106,3.289-3.122c-0.207-0.521-0.723-1.019-1.059-1.227
	c-0.094-0.475-0.494-0.767-0.836-1.171c-0.465,0.075-0.725,0.649-1.17,0.558c0.002-0.077-0.026-0.123-0.056-0.167
	c0.588-0.396,0.87-1.335,1.84-1.171c0.084,0.271,0.315,0.429,0.501,0.669c0.362,0.466,0.712,1.134,1.059,1.561
	c0.817,1.004,1.343,0.215,2.174-0.334c1.38-0.913,2.822-1.679,4.07-2.509c-0.247-0.675-0.938-2.508-1.394-2.899
	c-0.408-0.35-0.773,0.216-1.282,0.223c-0.198-0.128-0.197-0.241-0.223-0.446c0.489-0.384,0.926-0.821,1.784-0.836
	c0.724,1.053,1.21,2.276,1.896,3.123c1.41-0.189,2.372-1.122,3.68-1.227c0.021-0.096-0.083-0.143,0-0.167
	c0.727,0.11,1.165-0.492,1.895-0.558c-0.025-0.98-0.441-1.805-0.557-2.676c-0.436-0.402-0.653-0.25-1.282-0.112
	c0.087-0.198-0.189-0.033-0.167-0.167c0.416-0.409,1.567-0.93,2.063-0.558c0.313,1.032,0.48,2.674,1.115,3.568
	c1.405-0.207,2.791-0.584,4.126-0.836c0.772-0.146,1.6,0.023,2.23-0.334c0.214-0.935-0.037-2.28-0.223-3.178
	c-0.346-0.193-0.979-0.099-1.338-0.279c-0.055-0.223-0.055-0.334,0-0.557c0.467-0.168,1.248-0.418,2.063-0.111
	c0.46,1.178-0.134,2.443,0.391,3.791c0.28,0.186,0.497,0.035,0.836,0c0.105,0.013-0.032,0.092,0.056,0.111
	c1.604-0.087,2.88,0.007,4.905,0.112c-0.037-0.186,0.115-0.09,0.169-0.056c0.407-0.799,0.426-1.837,0.502-2.732
	c-0.127-0.041-0.167-0.168-0.224-0.279c-0.303-0.088-0.744-0.038-0.83-0.342c0.054-0.251,0.236-0.053,0.39-0.055
	c0.585-0.011,1.383-0.173,1.673,0.334c-0.292,1.226-0.466,2.152-0.445,3.624c0.271,0.335,0.905,0.243,1.395,0.335
	c1.658,0.311,3.375,0.804,4.851,1.226c0.808-0.735,0.921-1.823,1.171-3.122c-0.201-0.318-0.557-0.484-0.947-0.613
	c-0.09-0.177,0.019-0.393,0-0.558c0.244-0.002,0.533-0.051,0.558,0.167c0.726-0.185,1.26,0.231,1.338,0.669
	c0.065,0.368-0.336,0.758-0.446,1.282c-0.058,0.277-0.004,0.549-0.055,0.725c0.023-0.086-0.158,0.033-0.167,0.056
	c-0.188,0.46-0.071,0.821-0.28,1.115c0.447,0.514,1.274,1.007,1.952,0.947c0.099,0.239,0.563,0.573,0.78,0.334
	c0.695,0.657,1.773,0.749,2.342,1.45c0.155-0.062,0.236-0.216,0.557-0.223c0.105-0.66,0.438-0.517,0.392-1.227
	c0.104,0.013,0.124-0.063,0.224-0.056c-0.195-0.149,0.073-0.417-0.167-0.501c-0.188-0.017,0.003,0.225-0.057,0.334
	c-0.021,0.039-0.222-0.008-0.278,0.056c-0.046,0.052,0.033,0.216,0,0.279c-0.027,0.052-0.178,0.013-0.223,0.056
	c-0.1,0.092-0.145,0.31-0.225,0.39c-0.336,0.338-0.475,0.173-0.779,0.167c0.003-0.071,0.07-0.077,0.056-0.167
	c-0.288,0.162-0.647-0.38-1.06-0.446c-0.008,0.065,0.01,0.158-0.057,0.167c-0.406-0.549-1.099-0.889-1.505-0.78
	c0.019-0.075,0.079-0.106,0.056-0.223c-0.418,0.059-0.847-0.582-1.338-0.446c-0.18-0.368,0.151-0.724,0-1.226
	c0.573-0.518,0.936-1.925,1.004-2.509c-0.811-0.561-2.049-1.035-3.123-1.17c-0.418,0.177-0.342,0.847-0.892,0.892
	c-0.337-0.556-0.319-1.516,0.224-1.728c0.541-0.212,1.129,0.315,1.562,0.446c0.084,0.026,0.229-0.019,0.334,0
	c0.259,0.047,0.499,0.228,0.837,0.335c0.881,0.28,1.77,0.434,2.118,0.836c0.41,0.472-0.569,1.469-0.78,2.175
	c-0.174,0.58-0.475,1.246-0.445,1.784c0.168,0.205,0.359,0.183,0.612,0.279c0.853,0.322,1.708,0.918,2.677,1.115
	c0.508-0.245,0.459-1.313,1.282-1.06c0.034,0.215-0.012,0.576,0.334,0.446c-0.112-0.097,0.267-0.219,0.335-0.446
	c-0.115-0.491-0.732-0.423-0.613-1.003c0.732,0.172,1.781,0.386,1.783,1.06c0.002,0.824-1.893,2.185-1.672,3.4
	c1.699,1.219,3.495,2.341,5.073,3.68c0.429,0.037,0.999-0.263,1.171-0.446c0.042-0.044-0.064-0.153-0.057-0.167
	c0.098-0.149,0.396-0.296,0.502-0.502c0.273-0.534,0.752-0.986,0.726-1.394c-0.028-0.435-0.485-0.669-0.726-1.004
	c-0.131-0.468,0.466-0.373,0.447-0.557c0.063,0.019,0.158,0.274,0.223,0.111c-0.172-0.137,0.119,0.1,0.111-0.056
	c-0.289-0.333-0.434-0.679-1.004-0.613c-0.201,0.151-0.477,0.404-0.838,0.223c0.131-0.632,0.34-1.184,0.894-1.394
	c0.427,0.077,0.544,0.412,0.78,0.613c0.383,0.323,0.881,0.525,1.283,0.836c0.455,0.354,0.87,0.89,1.281,1.227
	c0.288,0.236,0.762,0.387,0.725,0.836c-0.051,0.646-2.125,1.857-2.453,2.286c-0.148,0.196-0.277,0.538-0.223,0.781
	c0.03,0.136,0.829,0.947,1.172,1.282c0.231,0.228,0.53,0.375,0.668,0.558c0.101,0.134,0.229,0.513,0.278,0.558
	c0.563,0.506,1.24-0.919,1.896-0.558c-0.094-0.32,0.268-0.852,0.445-0.892c0.03-0.007,0.368,0.017,0.447,0.056
	c0.199,0.1,0.876,0.943,0.947,1.394c0.109,0.689-0.821,0.801-1.282,1.115c-0.164,0.112-0.343,0.356-0.558,0.502
	c-0.51,0.344-1.09,0.646-1.114,1.059c-0.021,0.32,0.376,0.516,0.334,0.781c1.269,1.333,2.099,3.105,3.122,4.683
	c1.263,0.102,1.85-0.932,2.898-1.227c0.008-0.104,0.037-0.186,0.111-0.223c0.016-0.618-0.311-0.68-0.445-1.171
	c-0.068-0.246,0.012-0.561-0.111-0.781c-0.196-0.348-0.479-0.245-0.445-0.613c0.023-0.284,0.837-0.891,1.17-0.892
	c0.188,0,0.45,0.186,0.613,0.391c0.313,0.394,0.758,1.14,1.115,1.84c0.47,0.921,0.953,1.76,0.947,2.621
	c-0.404,0.635-3.375,0.919-3.513,1.672c-0.042,0.226,0.284,0.869,0.446,1.282c0.158,0.409,0.447,0.786,0.557,1.115
	c0.148,0.445,0.087,0.684,0.335,0.836c0.997-0.007,1.672-0.335,2.397-0.613c0.522,0.509,1.031,1.502,0.725,2.341
	c-0.537,0.134-1.2,0.182-1.84,0.334c-0.432,0.104-1.333,0.259-1.617,0.446c-0.542,0.36,0.193,1.583,0.279,2.454
	c0.152,1.572,0.587,2.717,0.668,4.07c0.877,0.303,2.25-0.053,3.289-0.112c0.222-0.865,0.229-1.887-0.055-2.676
	c0.666-0.498,1.805-0.696,1.951,0.223c0.221,1.402,0.516,3.678,0.223,4.739c-1.308,0.313-3.022-0.318-4.069,0.279
	c0.051,1.29-0.115,2.499,0,3.458c0.522,0.162,1.179,0.195,1.506,0.558c-0.065,0.009-0.158-0.011-0.167,0.056
	c0.298,0.063,0.501-0.419,1.059-0.279c0.492,0.467,0.195,1.932-0.223,2.344c-1.372-0.006-2.327-0.657-3.68-0.504
	c-0.561,0.817-0.438,1.852-0.614,2.732c-0.199,0.995-0.595,2.069-0.836,3.122c-0.174-0.009-0.076,0.251-0.11,0.502
	c0.404,0.511,1.596,0.567,2.342,0.836c0.363,0.132,0.607,0.423,0.947,0.167c0.18-0.341,0.188-0.853,0.445-1.115
	c0.191-0.117,0.342,0.07,0.445-0.11c0.121-0.294-0.215-0.737-0.166-1.171c0.566-0.144,1.467-0.037,1.783,0.391
	c0.231,0.313-0.072,0.91-0.168,1.282c-0.221,0.862-0.629,2.089-0.892,2.844c-0.158,0.454-0.159,0.955-0.669,1.003
	c-1.246-0.427-2.27-1.074-3.514-1.505c-0.608,0.952-1.014,2.106-1.504,3.179c0.123,0.563,0.977,0.397,0.78,1.281
	c-0.198-0.029-0.245,0.091-0.336,0.167c-0.45-0.458-1.067-0.752-1.282-1.448c0.576-1.377,1.402-2.5,1.896-3.959
	c0.549-0.386,1.227,0.545,1.673,0.057c-0.228-0.553-0.753-0.809-1.394-0.948c-0.014-1.011-1.506-0.621-1.282,0.335
	c-0.238,0.643-0.589,1.434-0.837,1.951c-0.102,0.211-0.064,0.486-0.167,0.781c-0.107,0.309-0.39,0.543-0.503,0.778
	c-0.104,0.22-0.104,0.595-0.277,0.894c-0.152,0.261-0.391,0.379-0.391,0.558c0,0.812,1.354,0.954,2.119,1.171
	c0.258,0.073,0.543,0.332,0.836,0.391c-0.063-0.176,0.088-0.137,0.111-0.224c-0.207,0.019-0.289-0.377-0.224-0.444
	c0.147,0.113-0.019,0.281,0.167,0.277c0.015-0.088,1.087-0.65,1.281-0.056c0.158,0.483-0.865,1.796-1.17,1.952
	c-0.563-0.506-1.441-0.812-2.119-1.283c-0.32-0.225-0.687-0.775-1.172-0.725c-0.477,0.049-0.477,0.526-0.668,0.893
	c-0.213,0.404-0.617,0.762-0.947,1.227c-0.729,1.025-1.544,2.215-2.285,3.121c0.124,0.756,0.953,1.077,1.449,1.506
	c0.753,0.651,1.171,1.354,1.896,0.558c-0.001,0.288-0.069,0.384-0.167,0.669c0.205,0.02,0.161,0.285,0.391,0.279
	c0.217-0.563,1.104-0.906,1.115-1.506c0.006-0.352-0.539-0.559-0.168-0.947c0.551,0.156,0.862,0.551,1.282,0.836
	c0.099,0.545-0.313,1.014-0.669,1.283c-0.32,0.769-0.814,1.047-1.395,1.672c-0.366,0.396-0.703,1.066-1.061,1.115
	c-0.59,0.078-0.803-0.673-1.059-0.947c-0.616-0.663-1.561-1.392-2.174-1.84c-0.506,0.342-1.283,1.1-1.785,1.616
	c-0.149,0.154-0.713,0.697-0.725,0.892c-0.019,0.281,0.387,0.544,0.502,0.837c0.137,0.343,0.004,0.618,0.278,0.837
	c0.386,0.041,0.591,0.264,0.724,0.558c-0.488,0.533-0.904,1.138-1.728,1.337c-0.906-1.008-1.498-2.33-2.509-3.231
	c-0.746,0.351-1.311,0.881-1.951,1.338c-1.258,0.69-2.439,1.462-3.734,2.118c0.362,1.197,1.045,2.076,1.561,3.121
	c0.971-0.058,1.908-0.563,2.621-1.06c0.443,0.354,0.707,0.892,1.002,1.396c-0.026,0.381-0.412,0.404-0.557,0.668
	c-1.396,0.703-2.664,1.537-4.293,2.008c-0.813-1.064-0.9-2.854-1.841-3.792c-1.216,0.271-2.089,0.886-3.289,1.172
	c0.257,0.629,0.089,1.344,0.334,1.896c0.149,0.332,0.457,0.442,0.392,0.726c-0.096,0.409-1.813,0.884-2.287,0.78
	c-0.48-1.152-0.563-2.707-1.059-3.848c-0.509-0.234-1.166,0.104-1.617,0.225c-1.627,0.428-3.142,0.546-4.793,0.725
	c-0.443,0.889,0.097,2.539,0.11,3.512c0.544-0.037,1.175,0.196,1.728,0.111c0.357-0.055,0.686-0.398,1.004-0.277
	c0.492,0.185,0.832,2.268,0,2.396c-1.129-0.139-2.371,0.07-3.399,0.39c-0.333-0.38-1.226,0.08-1.616-0.278
	c-0.441-1.35,0.075-2.942-0.225-4.236c-1.029-0.112-2.297,0.023-3.513-0.167c-0.142,0.467-0.306,1.298-0.334,1.84
	c-0.045,0.858,0.119,0.99-0.669,1.004c-0.708,0.011-1.472-0.053-1.784-0.446c0.027-1.338,0.352-2.395,0.446-3.957
	c-1.298-0.35-2.467-0.487-3.792-0.781c-0.958-0.213-1.646-0.604-2.564-0.67c-0.528,0.951-0.731,2.086-1.059,3.123
	c0.69,0.461,1.397,0.906,2.509,0.946c0.318,0.485-0.014,1.47-0.168,2.009c-1.027,0.227-1.874-0.463-2.843-0.445
	c-0.011-0.021,0.059-0.111,0.056-0.113c-0.879-0.268-2.105-0.359-2.621-1.17c0.354-1.211,1.139-2.313,1.394-3.791
	c-0.141-0.396-0.647-0.279-1.003-0.503c-0.591-0.367-1.464-0.771-2.175-1.003c-0.44,0.499-0.591,1.033-1.115,1.506
	c0.146,0.296-0.03,0.749-0.279,0.837c-0.816-0.188-1.391-0.616-2.007-1.004c-0.146-0.487,0.292-0.834,0.558-1.339
	c0.422-0.801,0.969-1.596,1.282-2.342c-0.197-0.473-0.811-0.527-1.059-0.947c-0.845-0.436-2.086-1.171-2.899-1.785
	c-0.478-0.359-1.003-1.072-1.394-1.059c-0.488,0.019-0.702,0.734-1.003,1.115c-0.444,0.41-0.839,0.871-1.171,1.395
	c0.14,0.471,1.073,0.87,0.39,1.337c-0.258-0.199-0.51-0.074-0.725-0.334c-0.162,0.343,0.148,0.283,0.39,0.501
	c-0.155,0.1,0.363,0.443,0.613,0.503c0.188-0.622,1.322-0.657,1.45,0.056c-0.458,0.424-0.528,1.627-1.338,1.506
	c-0.33-0.051-0.24-0.467-0.78-0.392c-1.008-1.121-2.425-1.848-3.345-3.01c0.768-1.351,2.16-2.078,2.955-3.401
	c-0.792-0.438-1.316-1.429-2.063-1.729c0.156-0.307-0.204-0.576-0.39-0.725c-0.317,0.174-1.558,1.231-1.617-0.057
	c0.464-0.391,0.797-0.911,1.449-1.115c0.574,0.529,1.058,0.988,1.505,1.729c0.453,0.229,0.728,0.522,1.171,0.948
	c0.501,0.48,0.945,0.783,0.558,1.394c-0.812,0.644-1.639,1.487-2.063,2.342c-0.041,0.312,0.562,0.646,0.558,0.392
	c0.339-1.121,1.795-2.211,2.23-3.291c-0.276-0.045-0.077-0.301-0.167-0.445c-0.088-0.143-0.414-0.186-0.613-0.391
	c-0.281-0.289-0.281-0.604-0.614-0.558c0.001-0.073,0.098-0.051,0.112-0.11c-0.324-0.233-0.612-0.504-0.725-0.948
	c-0.821-0.052-0.777-1.153-1.561-1.394c-0.147-0.303-0.095-0.488-0.446-0.613c-0.131,0.067-0.342,0.105-0.501,0.223
	c-0.319,0.232-1.939,1.475-1.952,1.896c-0.018,0.614,1.452,1.002,0.502,1.616c-0.669-0.446-1.226-1.005-1.394-1.952
	c0.946-0.818,2.017-1.514,2.955-2.342c0.075-0.563-0.45-0.896-0.725-1.281c-0.247-0.347-0.447-0.873-0.781-1.338
	c-0.119-0.164-0.304-0.256-0.446-0.503c-0.244-0.422-0.483-1.053-0.781-1.561c-0.35-0.595-0.597-1.011-1.115-0.836
	c-0.79,0.265-1.669,0.839-2.509,1.17c-0.296,0.448,0.212,0.887,0.112,1.282c-0.097-0.004-0.173,0.014-0.224,0.057
	c-0.484-0.428-0.814-1.008-1.003-1.729c0.98-0.896,2.681-1.073,3.512-2.119c-0.439-0.676-0.53-1.7-1.115-2.229
	c0.11-0.315-0.067-1.062-0.334-1.228c-0.284-0.848-0.445-1.435-0.613-2.174c-1.063,0.065-2.149,0.554-3.233,0.779
	c-0.052,0.701,0.2,1.145,0.279,1.563c-0.818,0.707-1.008-1.414-1.115-1.951c1.121-0.626,2.896-0.598,3.902-1.338
	c-0.207-1.16-0.371-2.521-0.78-3.68c0.207-0.711-0.174-1.595-0.112-2.51c-0.043-0.013-0.065-0.047-0.056-0.111
	c-1.064-0.369-2.379,0.002-3.401,0.168c-0.271,0.387,0.084,1.086-0.446,1.115c-0.601,0.031-0.684-1.658-0.279-2.176
	c0.553-0.066,1.788-0.204,2.229-0.223c0.113-0.463-0.465-0.287-0.167-0.559c-0.97-0.018-1.755-0.057-2.788,0.111
	c-0.231,1.072-0.195,2.795,0.279,3.791c0.3-0.118,0.582-0.12,0.947-0.057c0.804,0.962-0.583,1.121-1.449,1.283
	c-0.445-0.447-0.51-0.888-0.446-1.617c-0.065-0.01-0.159,0.011-0.167-0.055c0.056,0,0.112,0,0.167,0
	c-0.078-0.441-0.111-1.065-0.167-1.507c-0.09-0.702,0.171-1.683-0.558-1.84c-0.131,1.03-0.086,2.847,0.167,3.401
	c0.062,0.769-0.151,2.218,0.614,2.396c0.383,0.091,1.113-0.089,1.617-0.167c0.514-0.079,1.052-0.227,1.394-0.445
	c-0.052-0.59-0.145-1.304,0.111-1.672c0.169-0.08,0.219,0.055,0.39,0.11c0.18,1.017,0.115,1.567,0.502,2.119
	c-0.951,0.884-2.826,0.672-4.014,1.227c-0.111,2.3,0.928,4.769,1.672,7.023c0.46,0.34,1.228-0.117,1.896-0.334
	c0.562-0.183,1.072-0.458,1.45-0.612c0.029-0.554-0.462-0.788-0.056-1.227c0.074,0,0.148,0,0.223,0
	c0.378,0.438,0.487,1.147,0.725,1.728c-0.901,0.82-2.525,1.122-3.568,1.951c0.625,2.2,1.783,3.867,2.731,5.743
	c0.253,0.117,0.329,0.414,0.613,0.502c0.506-0.284,1.313-0.616,1.84-0.948c0.238-0.149,0.804-0.526,0.836-0.836
	c0.058-0.55-0.807-0.829-0.391-1.562c0.228-0.047,0.192-0.01,0.446,0c0.295,0.689,0.819,1.15,1.06,1.896
	c-0.993,0.884-2.179,1.576-3.178,2.453c0.533,1.274,1.38,2.38,2.175,3.345c0.181,0.223,0.444,0.52,0.669,0.727
	c0.23,0.212,0.575,0.447,0.836,0.502c-0.141-0.299-0.053-0.717-0.39-0.56c-0.138-0.754-0.949-1.23-1.394-1.896
	c-0.307-0.456-0.486-0.977-0.948-1.281c0.104-0.271-0.116-0.407,0-0.725c0.6-0.35,1.041-0.702,1.784-1.228
	c0.478-0.338,1.447-0.729,1.45-1.282c0-0.104-0.196-0.3-0.278-0.445c-0.458-0.82-1.028-1.789-1.617-2.732
	c-0.538-0.036-0.852,0.323-1.171,0.334c0.376-0.291,0.768-0.568,1.282-0.725c0.581,0.367,0.71,1.088,1.06,1.617
	c0.573,0.867,1.322,1.639,1.672,2.677c-0.364,0.508-1.007,0.756-1.561,1.227c-0.18,0.152-0.328,0.437-0.613,0.613
	c-0.458,0.284-0.826,0.562-0.613,1.06c0.312,0.729,1.127,1.063,1.283,1.783c0.407,0.243,0.593,0.708,1.059,0.893
	c0.405-0.189,0.679-0.51,1.227-0.559c0.057,0.074,0.054,0.206,0.111,0.279c-0.216,0.148-0.567,0.42-0.502,0.67
	c-0.297,0.084-0.614,0.379-0.446,0.611c0.351-0.02,0.83-0.383,0.892-0.668c1.436-0.213,0.809-0.857,0.558-1.729
	c0.09-0.096,0.234-0.138,0.446-0.11c0.23,0.461,0.972,0.883,1.282,1.448c-0.814,1.138-1.994,1.909-2.62,3.234
	c0.624,0.558,1.267,1.315,1.784,1.784c0.28,0.254,0.609,0.389,0.892,0.611c0.194,0.154,0.311,0.418,0.501,0.559
	c0.144,0.105,0.361,0.117,0.501,0.224c0.53,0.396,1.02,1.127,1.672,1.228c0.316-0.299,0.61-0.616,0.726-1.115
	c0.548-0.4,1.058-1.071,1.17-1.729c-0.541-0.356-1.553-1.068-0.948-1.729c0,0.171,0.124,0.04,0.279-0.057
	c0.248,0.174,0.517,0.453,0.78,0.445c0.007-0.347-0.625-0.31-0.725-0.502c0.097-0.213-0.016-0.229-0.111-0.111
	c-0.041-0.151,0.111-0.111,0.111-0.223c-0.267,0.063-0.235-0.174-0.501-0.111c0.002,0.299-0.396,0.342-0.558,0.726
	c-0.083-0.104-0.289-0.084-0.279-0.279c0.425-0.433,0.644-1.36,1.338-1.226c0.197,0.037,0.335,0.385,0.502,0.501
	c0.108,0.075,0.265,0.044,0.39,0.11c0.236,0.127,0.514,0.422,0.781,0.613c0.707,0.514,1.545,1.073,2.174,1.449
	c0.286,0.574-0.29,0.869-0.613,1.449c-0.319,0.572-0.331,1.068-0.725,1.228c0.114,0.579-0.43,0.499-0.334,1.06
	c1.041,0.742,2.053,1.516,3.457,1.896c0.342-0.438,0.446-1.114,1.003-1.337c0.033-0.376,0.153-0.665,0.279-0.948
	c0.747,0.153,1.09,0.421,1.784,0.669c0.058,1.59-1.15,2.67-1.171,4.182c0.912,0.312,1.873,0.863,2.788,0.947
	c-0.023,0.104-0.073,0.071,0.056,0.112c1.221,0.39,2.445,0.845,3.958,0.894c0.271-1.099,0.46-1.982,0.725-3.123
	c-0.075-0.056-0.111-0.149-0.167-0.224c-0.952-0.127-1.582-0.575-2.397-0.837c-0.014-0.594,0.223-1.408,0.613-1.784
	c0.613,0.167,1.371,0.376,1.896,0.503c0.999,0.24,2.124,0.293,2.955,0.779c-0.01,1.078-0.308,2.509-0.39,3.848
	c1.137,0.358,2.599,0.637,3.958,0.446c0.012-1.138,0.35-1.588,0.335-2.621c0.591-0.21,1.48,0.013,2.007,0
	c0.409,1.169,0.005,3.031,0.446,4.183c2.574,0.106,4.662-0.112,6.97-0.613c-0.14-1.125-0.158-2.362-0.56-3.346
	c-1.058,0.117-1.81,0.012-2.73,0.111c-0.194-0.455-0.163-1.138-0.168-1.783c1.474-0.343,3.26-0.572,4.906-0.893
	c0.684,1.008,0.799,2.584,1.283,3.79c1.434-0.201,2.74-0.529,3.791-1.114c-0.18-0.992-0.328-1.632-0.502-2.619
	c0.537-0.244,1.026-0.535,1.783-0.559c0.753,0.975,1.039,2.418,1.673,3.513c1.857-0.393,3.648-1.485,5.13-2.343
	c0.495-0.286,1.106-0.443,1.281-0.947c-0.203-0.484-0.518-0.871-0.725-1.228c-0.237-0.406-0.332-0.917-0.559-1.226
	c-0.379-0.519-0.654-0.231-1.06-0.057c-0.236,0.104-0.601,0.171-0.947,0.334c-0.306,0.145-0.685,0.443-0.894,0.391
	c-0.506-0.129-0.469-1.164-0.725-1.449c1.381-0.813,2.762-1.623,4.069-2.508c1.224,0.489,1.576,2.451,2.788,2.955
	c1.056-0.822,2.371-1.385,3.066-2.565c-0.274-0.543-0.9-0.735-0.836-1.616c0.244-0.072,0.322-0.056,0.445-0.168
	c0.279,0.198,0.633,0.443,0.893,0.559c-0.151-0.017-0.004-0.324-0.278-0.336c0.176-0.479-0.522-1.033-0.948-1.281
	c0.135-0.199,0.316-0.354,0.669-0.334c0.888,0.822,1.64,1.779,2.563,2.563c0.728-0.043,1.136-0.61,1.617-1.114
	c0.287-0.301,0.518-0.711,0.78-1.004c0.195-0.216,0.462-0.315,0.613-0.502c0.252-0.305,0.37-0.715,0.558-0.947
	c0.361-0.449,0.873-0.821,1.172-1.228c-0.037-0.334,0.183-0.412,0.111-0.78c-0.531-0.423-1.046-0.91-1.617-1.338
	c-0.3-0.224-0.801-0.662-1.004-0.669c-0.603-0.017-0.555,0.818-1.227,0.894c-0.549-0.896,0.723-1.619,1.171-2.23
	c0.647,0.446,1.344,0.753,1.896,1.171c0.01-0.065-0.01-0.157,0.057-0.167c0.023,0.105,0.021,0.239,0.168,0.223
	c0.085-0.166,0.008-0.228,0.167-0.391c-0.33,0.115-0.38-0.25-0.558-0.111c-0.562-0.906-1.563-1.373-2.23-2.174
	c0.166-0.219,0.498-0.219,0.836-0.057c0.279,0.133,0.711,0.555,1.171,0.837c0.452,0.274,1.013,0.724,1.228,0.78
	c0.672,0.183,0.939-0.557,1.17-0.948c0.512-0.868,0.896-1.56,1.115-2.563c-0.4-0.418-1.197-0.438-1.281-1.172
	c0.152-0.197,0.3-0.58,0.502-0.558c-0.043-0.229-0.236-0.461-0.502-0.613c-0.477,0.101-0.315,0.839-0.836,0.894
	c0.168-0.668,0.32-1.352,0.778-1.729c0.623,0.199,1.093,0.298,1.785,0.613c0.563,0.257,1.313,0.91,1.784,0.836
	c0.482-0.075,0.507-0.772,0.669-1.17c0.172-0.424,0.499-0.864,0.612-1.282c0.057-0.205-0.008-0.415,0.057-0.613
	c0.393-1.23,1.124-2.861,0.893-3.848c-0.994-0.273-2.127-0.693-3.233-0.669c-0.144,0.601-0.396,1.091-0.78,1.449
	c0.029,0.174,0.146,0.815-0.168,0.948c-0.669-0.056-1.091-0.358-1.505-0.67c0.063-0.19,0.011-0.349,0.168-0.612
	c0,0.11,0,0.223,0,0.334c0.319,0.266,1.136,0.222,1.337-0.111c-0.326-0.885,0.212-2.485,0.727-3.233
	c-0.213-0.422-0.797-0.735-1.283-0.558c0.021-0.096,0.056-0.446,0.279-0.502c1.23-0.024,2.457,0.353,3.623,0.392
	c0.334-0.902,0.653-2.537,0.613-3.568c-0.009-0.235-0.271-0.506-0.445-0.559c-0.576-0.17-1.164,0.008-1.506-0.558
	c0.243-0.112,0.114-0.509-0.056-0.669c-0.435-0.007-0.093,0.764-0.447,0.836c-0.364-0.367-0.088-1.079-0.167-1.672
	c0.891-0.713,3.001,0.025,3.959-0.223c0.275-0.354,0.309-1.116,0.167-1.673c0.015-1.705-0.108-3.862-0.724-5.575
	c-0.896-0.121-2.159,0.222-3.123,0.39c-0.364,0.847-0.027,1.875,0,2.732c-0.277,0.298-1.034,0.118-1.563,0.167
	c-0.303-0.356-0.41-1.004-0.277-1.394c0.035,0.398,0.231,0.416,0.166,0.669c1.644,0.586,0.752-0.838,0.56-1.784
	c-0.181-0.881-0.522-1.809-1.004-1.952c-0.11,1.015,0.151,1.643,0.278,2.731c-0.27-0.232-0.252-0.752-0.278-1.226
	c-0.211-0.407-0.331-1.045-0.446-1.896c0.69-0.258,1.811-0.748,2.619-0.892c0.837-0.147,0.734-0.239,0.67-0.836
	c-0.023-0.216,0.066-0.438,0.057-0.668c-0.037-0.797-0.512-1.502-0.67-2.286c-0.612-0.541-1.785,0.128-2.676,0.167
	c-0.361-0.438-0.717-1.053-0.67-1.729c0.897-0.684,2.215-0.946,3.234-1.506c0.013-0.042,0.001-0.11,0.055-0.11
	c0.128-0.57-0.224-0.801-0.39-1.171c-0.065-0.149-0.029-0.38-0.111-0.558c-0.252-0.552-0.706-1.245-0.948-1.672
	c-0.283-0.502-0.492-0.904-0.779-1.338c-0.262-0.398-0.389-0.84-0.612-1.171c-0.399-0.588-0.97-0.151-1.339,0.111
	c-0.536,0.381-1.436,0.643-1.84,1.116c0.051,1.092,0.918,1.635,0.947,2.564c-0.416,0.158-0.998,0.691-1.394,0.334
	c-0.649-0.587-1.047-1.938-1.617-2.732c-0.473-0.659-1.103-1.037-0.39-1.673c0.566-0.506,2.087-1.34,2.174-1.84
	c0.104-0.6-0.559-0.95-0.893-1.394c-0.461-0.611-0.604-0.885-1.114-1.45c-0.696-0.358-1.101,0.523-1.896,0.223
	c-0.287,0.282-0.188,0.635-0.613,0.725c-0.387-0.444-1.131-0.82-1.004-1.394c0.047-0.212,0.392-0.375,0.67-0.725
	c0.455-0.573,0.828-1.269,1.395-1.561c0.219-0.299-0.031-0.584,0-0.781c-0.314-0.146-0.459-0.388-0.67-0.613
	c-0.292-0.312-0.59-0.682-0.893-0.948c-0.153-0.136-0.438-0.193-0.558-0.334c-0.022-0.029,0.027-0.145,0-0.167
	c-0.063-0.054-0.219-0.015-0.278-0.056c-0.185-0.123-0.22-0.404-0.391-0.557c-0.17-0.151-0.462-0.183-0.669-0.334
	c-0.383-0.278-0.688-0.721-0.946-0.892c-0.104-0.066-0.566-0.225-0.615-0.223c-0.604,0.02-0.707,0.563-1.002,0.948
	c-0.313,0.405-1.121,1.019-1.115,1.562c0.006,0.623,0.722,0.549,0.836,1.17c-0.18,0.126-0.369-0.049-0.502,0.056
	c-0.529-0.555-1.398-0.645-1.561-1.45c0.203-0.275,0.021-0.539,0.055-0.725c0.066-0.009,0.158,0.01,0.168-0.056
	c-0.688-0.148-0.926,0.589-1.004,1.115c0.125,0.14,0.344,0.274,0.445,0.279c0.475,0.748,1.611,1.122,2.063,1.839
	c0.323-0.109,0.313-0.15,0.558-0.223c-0.015-0.189,0.152-0.332,0.334-0.446c0.162,0.062,0.344,0.104,0.393,0.279
	c-0.123,0.509-0.44,0.928-0.838,0.947c-0.625,0.031-1.021-0.916-1.616-0.947c-0.296-0.726-1.906-0.877-2.118-1.617
	c-0.223-0.775,1.449-2.558,1.395-3.178c-0.051-0.55-0.721-0.626-1.281-0.947c-0.59-0.336-1.047-0.791-1.618-1.003
	c-0.828-0.311-0.827,0.519-1.282,0.725c-0.136,0.061-0.289-0.095-0.445,0.056c0.063-0.175-0.088-0.135-0.111-0.223
	c0.199-0.491-0.119-0.621-0.168-0.78c-0.131,0.26-0.56,0.517-0.444,0.836c0.04-0.288,0.063,0.222,0.167,0.223
	c0.462-0.176,0.697,0.472,0.445,0.892c-0.518-0.015-1.438-0.222-1.562-0.669c-0.075-0.28,0.196-1.075,0.334-1.505
	c0.202-0.631,0.56-1.354,0.671-1.784c-0.1-0.464-0.498-0.437-0.838-0.669c-0.16-0.11-0.348-0.259-0.613-0.334
	c-0.965-0.274-1.918-0.671-2.73-0.725c-0.005-0.088,0.008-0.194-0.111-0.167c-0.492-0.046-0.798-0.28-1.338-0.279
	c-0.318-0.334-0.813-0.354-1.227-0.111c-0.039,1.166-0.699,1.769-0.559,3.122c0.385,0.276,0.812,0.198,1.004,0.613
	c-0.574,0.117-1.608-0.142-2.063-0.502c-0.024-0.267,0.003-1.046,0.11-1.282c-0.203-0.193-0.047-0.297-0.444-0.223
	c0.082-0.182-0.015-0.161-0.112-0.279c-0.156,0.38-0.369,0.909-0.391,1.561c-0.006,0.186,0.099,0.378,0,0.558
	c0.244,0.016,0.186,0.335,0.391,0.39c0.563-0.203,1.033,0.396,1.395,0.167c0.062,0.265,0.357,0.122,0.445,0.334
	c0.193-0.146,0.731-0.006,0.948,0.167c0.45-0.084,0.526-0.537,1.115-0.613c0.073,0.485-0.233,1.016-0.558,1.282
	c-0.569-0.119-1.26-0.227-2.174-0.446c-0.606-0.146-1.83-0.206-2.177-0.613c-0.358-0.427,0.033-1.252,0.058-2.007
	c0.016-0.526-0.004-1.047,0-1.505c-0.431-0.324-1.035-0.425-1.563-0.446c0.031,0,0.063,0.045,0,0.055
	c-0.688-0.222-1.921-0.444-2.51-0.111c-0.084,0.399-0.135,0.831-0.502,0.947c-0.369,0.02-0.272-0.606-0.444-0.613
	c0.294-0.278-0.03-0.732,0.11-1.004c0.342-0.654,1.871-0.281,2.287-0.279c0.789,0.005,1.369,0.143,1.949,0.279
	c0.653,0.153,1.523-0.012,1.729,0.502c0.057,0.339-0.081,0.655,0.167,0.948c-0.176-0.008-0.192,0.143-0.225,0.279
	c0.092,0.009,0.287,0.187,0.334,0.056c-0.053-0.16-0.185-0.036-0.222-0.112c0.293,0.07,0.245-0.322,0.39-0.223
	c0.064-0.175-0.088-0.136-0.11-0.223c0.356-0.257,0.271-0.808,0.444-1.227c-0.748-0.558-1.457-0.444-2.34-0.725
	c0.262-0.076,0.647,0.188,0.836-0.056c0.125-0.009,0.244,0.269,0.334,0.112c-0.031,0-0.063-0.045,0-0.056
	c0.146,0.022,0.168,0.166,0.334,0.167c1.963-0.355,3.31,0.818,5.24,1.004c0.66,0.468,1.795,0.614,2.51,0.948
	c0.076,0.035,0.143,0.198,0.224,0.223c-0.036-0.011,0.045-0.116,0.11-0.111c0.273,0.021,0.804,0.51,1.338,0.446
	c0.281,0.185,0.553,0.377,0.949,0.446c0.229,0.247,0.441,0.388,0.78,0.558c0.886,0.442,2.026,1.03,2.788,1.338
	c0.277,0.371,0.807,0.494,1.281,0.669c-0.002,0.071-0.071,0.077-0.057,0.167c1.252,0.748,2.566,1.125,3.291,2.341
	c0.103,0.054,0.187-0.167,0.223,0c-0.068,0.006-0.133,0.017-0.112,0.112c0.572,0.18,0.874,0.632,1.396,1.059
	c-0.097-0.003-0.145,0.043-0.168,0.112c0.519-0.124,0.807,0.354,1.004,0.725c0.541,0.128,0.77,0.569,1.281,0.725
	c0.454,0.829,1.459,1.105,1.896,1.952c0.64,0.401,0.988,1.091,1.615,1.505c0.432,0.646,1.104,1.053,1.395,1.84
	c0.167,0.001,0.189,0.145,0.335,0.167c0.69,1.291,2.065,2.511,2.509,4.07c0.401,0.192,0.387,0.803,0.725,1.059
	c0.014,0.429,0.305,0.578,0.392,0.725c0.646,1.098,1.399,2.592,1.896,3.847c0.563,0.66,0.863,1.567,1.172,2.397
	c0.363,0.983,0.601,2.017,1.003,2.955c0.28,0.908,0.356,1.833,0.612,2.731c0.123,0.429,0.346,0.896,0.392,1.282
	c0.073,0.627,0.028,1.236,0.11,1.84c0.16,1.174,0.397,2.325,0.334,3.569c0.002,0.073,0.1,0.052,0.113,0.111
	c-0.166,1.032,0.082,2.074,0.055,3.178c-0.022,0.973-0.032,1.941-0.168,2.955c-0.295,2.249-0.26,4.673-1.226,6.411
	c0.16,0.883-0.267,1.327-0.391,2.063c-0.136,0.81-0.696,1.729-0.726,2.454c-0.496,1.121-0.863,2.161-1.283,3.514
	c-1.569,2.516-2.637,5.537-4.682,7.582c0.047,0.231-0.109,0.263-0.111,0.444c-3.4,4.093-7.157,8.584-12.043,11.039
	c-0.172,0.388-0.494,0.621-1.061,0.614c-0.359,0.4-0.814,0.708-1.505,0.779c0.124,0.326-0.472,0.15-0.167,0.334
	c-0.754,0.194-1.368,0.527-1.896,0.948c-0.236-0.063-0.617,0.332-1.17,0.278c-0.82,0.656-1.639,1.021-2.789,1.282
	c-0.018,0.131-0.057,0.239-0.166,0.278c-0.302-0.004-0.295-0.024-0.502-0.056c-0.049,0.138-0.207,0.164-0.279,0.277
	c-0.758-0.111-1.432,0.585-2.229,0.503c-0.854,0.457-2.028,0.377-3.178,0.947c0.06-0.002,0.142,0.025,0.057,0.056
	c-0.977-0.226-1.659-0.001-2.51,0.278c0.077,0.006,0.058,0.144-0.056,0.111c-0.075,0.01-0.111-0.283-0.168-0.111
	c0.047,0.156-0.405-0.049-0.612,0c-0.823,0.256-1.302,0.246-2.229,0.111c-1.182,0.592-2.563,0.004-3.292,0.391
	c-0.756-0.299-2.164-0.074-3.177-0.334c-0.915,0.115-2.033-0.264-3.233-0.168c-0.116,0.017,0.083,0.151-0.112,0.168
	c-0.045-0.157,0.079-0.145,0.056-0.279c-0.599,0.088-1.547-0.493-2.453-0.391c-0.729-0.416-1.295-0.483-2.286-0.612
	c-0.529-0.163-1.052-0.615-1.672-0.502c-0.198-0.32-0.559-0.214-0.893-0.335c-0.777-0.28-1.728-0.83-2.341-0.836
	c-0.002-0.076,0.026-0.122,0.056-0.166c-0.453,0.023-0.726-0.131-1.004-0.28c-0.354,0.065-0.997-0.662-1.561-0.558
	c-0.25-0.53-1.091-0.471-1.449-0.893c-0.936-0.199-1.356-0.88-2.174-1.059c-0.496-0.521-0.965-0.733-1.729-0.948
	c-0.021-0.401-1.076-0.892-1.561-1.003c0.019-0.535-0.922-0.451-1.115-1.061c-0.357-0.088-0.558-0.273-0.558-0.391
	c-0.295,0.085-0.436,0.021-0.725,0c0.051,0.338,0.286,0.303,0.502,0.445c0.255,0.171,0.458,0.512,0.669,0.67
	c0.41,0.306,0.947,0.555,1.338,0.837c0.292,0.21,0.417,0.535,0.836,0.558c-0.026,0.174,0.15,0.146,0.167,0.277
	c1.159,0.477,1.89,1.381,3.178,1.729c-0.048,0.252,0.279,0.131,0.279,0.334c2.236,1.109,4.915,2.365,7.359,3.012
	c-0.016,0.109,0.076,0.109,0.112,0.167c1.103,0.265,2.446,0.651,3.457,0.948c0.436,0.127,0.894,0.068,1.339,0.166
	c0.22,0.049,0.374,0.231,0.613,0.278c0.504,0.101,1.07,0.081,1.617,0.168c1.036,0.164,2.195,0.341,3.457,0.446
	c1.927,0.16,3.839,0.031,5.743-0.057c3.987-0.187,7.459-0.924,10.762-1.84c0.785-0.311,1.534-0.658,2.451-0.836
	c-0.002-0.097,0.043-0.145,0.112-0.168c1.583-0.399,2.7-1.18,4.293-1.673c0.851-0.636,1.845-1.129,2.897-1.562
	c0.295-0.283,0.605-0.547,1.115-0.613c0.241-0.242,0.43-0.538,0.893-0.559c1.049-0.737,2.261-1.688,3.179-2.285
	c0.87-0.565,1.553-1.258,2.229-1.95c0.026-0.028,0.14,0.026,0.168,0c0.025-0.028-0.028-0.142,0-0.168
	c0.813-0.735,1.858-1.298,2.342-2.341c0.408-0.527,1.033-0.879,1.506-1.396c0.087-0.096,0.088-0.286,0.167-0.391
	c0.043-0.058,0.178-0.054,0.223-0.11c0.601-0.773,1.326-1.688,1.896-2.51c0.205-0.293,0.457-0.475,0.502-0.78
	c2.311-2.938,3.797-6.684,5.354-10.426c0.275-1.043,0.696-2.077,0.893-3.178c0.24-1.357,0.811-2.804,1.004-4.183
	c0.677-4.83,1.043-10.785-0.168-16.167c-1.521-6.723-4.379-12.627-7.973-17.506c-0.341-0.46-0.635-0.929-0.949-1.282
	c-0.424-0.48-0.762-1.137-1.226-1.561c-0.062-0.055-0.165-0.048-0.224-0.111c-0.338-0.371-0.594-0.772-0.836-1.115
	c-0.11-0.156-0.375-0.252-0.502-0.39c-0.774-0.835-1.649-1.855-2.396-2.453c-0.014-0.321-0.334-0.336-0.391-0.613
	c-1.461-0.863-2.44-2.107-4.07-2.899c-0.128-0.22-0.456-0.493-0.669-0.446c-0.554-0.649-1.444-1.05-2.286-1.45
	c-0.456-0.5-1.183-0.935-1.84-1.059c-1.303-0.926-3.055-1.407-4.404-2.286c-1.029-0.18-1.525-0.7-2.677-0.836
	c-0.394-0.323-0.842-0.25-1.226-0.558c-0.602,0.04-1.024-0.259-1.395-0.335c-0.102-0.021-0.128,0.078-0.224,0.056
	c-0.015-0.003,0.056-0.111,0.056-0.111c-0.107-0.034-0.595,0.009-0.669-0.167c-0.131-0.001-0.164,0.096-0.334,0.056
	C60.033,6.92,59.939,6.85,59.625,6.92c0.009-0.066,0.1-0.127,0-0.167c-0.066,0.102-0.29,0.044-0.391,0.111
	c-0.104-0.026-0.123-0.137-0.223-0.167c-0.113-0.034-0.699,0.007-0.726,0c-0.065-0.018-0.116-0.202-0.166-0.223
	c-0.091-0.037-0.134,0.069-0.224,0.056c-0.107-0.017-0.211-0.154-0.277-0.167c-0.611-0.12-1.314-0.079-1.952-0.167
	c-0.325-0.045-0.66-0.188-1.003-0.223c-0.193-0.02-0.6-0.07-0.67-0.056c-0.729,0.15-1.872-0.181-2.788-0.223
	c-0.104,0.176-0.144,0.01-0.167,0.167c-0.564-0.182-1.736,0.125-2.397-0.167c-0.373,0.358-1.154,0.034-1.618,0.279
	c0.013-0.078,0.087-0.105-0.055-0.112c-0.542-0.027-1.445,0.276-2.174,0.279c-0.508,0.002-1.304,0.076-1.672,0.167
	c-0.074,0.019-0.147,0.156-0.223,0.167c-0.384,0.062-0.783-0.039-1.171,0.056c-0.295,0.071-0.504,0.274-0.836,0.334
	c-0.062,0.011-0.159-0.118-0.224-0.111c-0.325,0.032-0.814,0.188-1.17,0.279c-0.964,0.245-1.981,0.695-3.011,0.948
	c-0.124,0.031-0.266-0.029-0.39,0c-1.378,0.329-2.371,0.96-3.457,1.394c-0.132,0.053-0.316,0.002-0.446,0.056
	c-0.432,0.177-0.661,0.436-1.003,0.613c-0.564,0.292-1.104,0.568-1.673,0.892c-0.083,0.047-0.234-0.002-0.334,0.056
	c-0.181,0.104-0.333,0.344-0.501,0.446c-0.148,0.089-0.425,0.259-0.613,0.334c-0.254,0.103-0.438,0.33-0.725,0.446
	c0.031,0,0.063-0.045,0-0.056C26.072,12.949,24.406,13.823,23.665,14.782z M42.063,9.206c-0.013-0.214-0.166-0.247-0.335-0.167
	c-0.006-0.068-0.016-0.132-0.111-0.111c0,0.074,0,0.148,0,0.223c0.146-0.016,0.239,0.021,0.223,0.167c-0.056,0-0.112,0-0.167,0
	c0.227,0.167-0.009,0.2,0.167,0.334c0.014-0.153,0.165-0.17,0.279-0.223C42.147,9.275,41.804,9.101,42.063,9.206z M11.789,51.912
	c0.43-0.116,0.5-0.076,0.892-0.11c0.016-0.349,0.061-0.458-0.056-0.725c0.063-0.007,0.086,0.08,0.111,0
	c-0.174,0.017,0.142-0.162-0.056-0.168c-0.313,0.101-0.266,0.29-0.391,0.502c0.127,0.075,0.209-0.146,0.223,0
	c0,0.037,0,0.073,0,0.11c-0.338-0.205-0.561,0.131-0.725,0.279c0-0.031-0.045-0.063-0.056,0
	C11.777,51.813,11.798,51.848,11.789,51.912z M67.486,11.38c0.031,0,0.063-0.045,0-0.056c-0.057,0.073-0.055,0.206-0.111,0.279
	c0.218-0.082,0.178,0.013,0.057,0.111c0.319-0.048,0.648-0.104,0.557-0.446c0.1,0.104,0.174-0.014,0.224-0.112
	c-0.179-0.025-0.422-0.066-0.612,0.056c0-0.031-0.045-0.063-0.057,0C67.771,11.213,67.521,11.517,67.486,11.38z M73.563,14.28
	c-0.168-0.073-0.362-0.121-0.334-0.391c-0.301-0.001-0.16,0.005-0.11-0.167c-0.263,0.194-0.457-0.498-0.726-0.112
	c0.135,0.272,0.301,0.352,0.612,0.335C73.029,14.079,73.48,14.462,73.563,14.28z M47.805,13.834
	c-0.017,0.109,0.076,0.11,0.112,0.167c-0.043,0.012-0.11,0.001-0.112,0.056c0.21-0.128,0.483,0.004,0.725-0.167
	C48.331,13.68,48.021,13.944,47.805,13.834z M42.063,15.729c-0.135-0.022-0.122,0.102-0.279,0.056
	c0.048,0.178-0.087,0.172-0.111,0.279c0.205-0.188,0.202,0.012,0.501,0c0-0.074,0-0.148,0-0.223
	c-0.081-0.124-0.136,0.07-0.167-0.056C42.041,15.782,42.073,15.776,42.063,15.729z M72.393,16.008
	c0.017,0.227-0.021,0.126-0.166,0.112c-0.074,0.245,0.02,0.313-0.168,0.446c0.272,0.019-0.105,0.036,0,0.223
	c0.527-0.112,0.834-0.86,0.558-0.948c0.063,0.012,0.087,0.062,0.112,0.111c-0.058,0-0.066,0.045-0.112,0.056
	c0.149-0.077-0.106-0.218-0.111-0.111C72.659,15.92,72.507,16.072,72.393,16.008z M22.494,17.179
	c0.121-0.144,0.117-0.01,0.278-0.056c-0.064-0.009-0.06-0.088-0.055-0.167c0.351-0.058,0.48-0.337,0.836-0.39
	c-0.056,0-0.111,0-0.167,0c-0.008-0.066,0.01-0.159-0.055-0.167C23.183,16.837,22.654,16.683,22.494,17.179z M67.318,18.405
	c-0.066-0.012-0.033-0.063,0-0.111c-0.074-0.018-0.105-0.08-0.223-0.056C67.025,18.407,67.281,18.527,67.318,18.405z M76.63,18.461
	c0.203-0.029,0.25,0.245,0.39,0.112c-0.041-0.147-0.299-0.365-0.39-0.279C76.717,18.308,76.668,18.416,76.63,18.461z M65.702,19.075
	c-0.026-0.23,0.141,0.043,0.223-0.112c0.048-0.158-0.077-0.145-0.055-0.279c-0.099,0.032-0.327-0.067-0.335,0.056
	C65.764,18.754,65.45,19.035,65.702,19.075z M68.379,18.963c0.081,0.002-0.181-0.247-0.502-0.167c0.053,0.155,0.201,0.332,0,0.446
	c-0.701-0.139-1.309,0.159-2.063,0.39c0.09,0.277-0.008,0.031-0.111,0.167c0.056,0.113-0.018,0.438,0.279,0.446
	c0.179,0.049,0.115-0.145,0.223-0.167c0.725-0.155,1.499-0.234,2.229,0.391c0.168,0.388,0.332,0.831,0.28,1.282
	c-0.271,0.376-1.131,0.781-1.45,0.167c0.041-0.317-0.271-0.695-0.111-0.78c-0.284-0.105-0.645-0.136-1.061-0.111
	c-0.74,0.521-0.508,1.747-0.334,2.453c-0.175,0.066-0.206,0.276-0.223,0.502c0.613,0.095,1.191,0.81,1.615,0.725
	c-0.096-0.461,1.617-0.54,2.287-0.725c0.17,0.607,0.094,1.835,0.223,2.119c-0.104,0.137-0.307,0.108-0.11,0.278
	c-0.163-0.033-0.239-0.26-0.335-0.056c-0.041-0.313-0.425-0.282-0.613-0.446c0.785,0.665,1.721,1.363,2.51,2.174
	c-0.063-0.175,0.017-0.147-0.057-0.278c0.646-0.492,1.902,0.323,2.286-0.334c0.155,0.17,0.33-0.112,0.39-0.224
	c-1.133-0.313-3.028-0.304-2.897-2.286c0.297-0.554,1.313-0.927,1.616-0.167c0.017,0.254-0.32,0.508-0.111,0.613
	c-0.074,0.056-0.207,0.053-0.225,0.167c0.078,0.002,0.123-0.026,0.169-0.056c0.053,0.546,0.53,0.868,0.892,0.892
	c0.838,0.057,1.549-1.461,1.338-2.453c0.092,0.115,0.28,0.129,0.504,0.111c-0.447-1.02-1.367-1.261-2.009-2.119
	c-0.081-0.03-0.288,0.065-0.278-0.055c0.174-0.151-0.51-0.184-0.334-0.334c-0.109-0.017-0.109,0.075-0.168,0.111
	c0.102-0.237-0.293-0.352-0.223-0.167c-0.023,0.065,0.436,0.518,0.501,0.781c-0.987-0.036-1.472,0.233-2.284,0.446
	c0.021-0.828-0.148-1.54-0.336-2.286c0.348-0.052,0.59,0.242,0.836,0.111C70.287,19.746,69.116,19.352,68.379,18.963z
	 M30.354,19.966c0.181-0.423,0.661-0.222,0.836-0.669c0.043-0.013,0.11-0.001,0.112-0.056c-0.11,0.017-0.111-0.076-0.167-0.112
	c-0.164,0.166-0.596,0.314-0.558,0.502c-0.071-0.003-0.077-0.071-0.167-0.056c-0.078,0.285-0.211,0.17-0.056,0.334
	C30.324,19.91,30.292,19.956,30.354,19.966z M53.438,19.799c0.373-0.168,1.123,0.529,1.449,0c-0.006-0.025-0.301,0.057-0.335-0.167
	c-0.36-0.045-0.556,0.077-0.78,0.167C53.689,19.659,53.143,19.536,53.438,19.799z M30.188,19.966
	c-0.105,0.013-0.124-0.063-0.223-0.056c0.046,0.158-0.079,0.144-0.056,0.278c0.219,0.09,0.02-0.24,0.167-0.223
	C30.077,20.022,30.174,20.037,30.188,19.966z M30.354,20.691c0,0.111,0,0.223,0,0.334c0.106,0.099,0.368,0.041,0.558,0.056
	c0.104-0.156,0.137-0.383,0.223-0.558C30.737,20.442,30.616,20.637,30.354,20.691z M59.625,21.082
	c-0.27-0.009-0.299-0.258-0.611-0.223C59.063,21.165,59.467,21.068,59.625,21.082z M75.292,22.029
	c0.003,0.42-0.269,0.221-0.224,0.669c0.423,0.349,0.615,0.548,1.005,0.948c0.382,0.394,0.647,0.818,1.003,1.171
	c0.113,0.114,0.32,0.165,0.445,0.279c0.48,0.438,0.785,1.059,1.17,1.45c0.086,0.086,0.426,0.326,0.447,0.334
	c0.531,0.207,1.325-0.623,1.561-1.282c-0.521-0.202-0.732,0.431-1.338,0.39c-0.646-0.347-1.079-1.232-1.729-1.896
	c-0.443-0.454-0.988-0.736-1.339-1.115c-0.626-0.679,0.752-1.095,0.614-1.951C76.132,20.737,75.936,21.83,75.292,22.029z
	 M63.918,22.252c0.074,0.334,0.33,0.488,0.725,0.501c0.088-0.314,0.28-0.623,0.112-0.892C64.313,21.676,64.128,22.041,63.918,22.252
	z M64.253,23.088c-0.005,0.299,0.511,0.558,0.669,0.334C64.771,23.262,64.439,23.035,64.253,23.088z M75.684,26.545
	c-0.139-0.053,0.176-0.114,0.223-0.167c-0.086-0.305-0.248-0.533-0.613-0.558c0.073,0.19-0.124,0.389,0,0.446
	C75.318,26.01,75.604,26.675,75.684,26.545z M79.529,29.11c-0.365-1.03-1.247-1.722-1.784-2.621
	c-0.343,0.015-0.476-0.575-0.726-0.167c0.289,0.062,0.265,0.486,0.334,0.613c-0.707-0.081-1.043-0.218-1.617-0.334
	c-0.498,0.092-0.984,0.444-1.336,0.501c0.3,0.203,0.373,0.289,0.5,0.335c0.275,0.098,1.533,0.101,2.119,0.557
	c0.573,0.447,0.729,1.665,0.057,1.952c-0.473,0.201-1.152-0.113-0.948-0.78c0.146,0.017,0.144-0.117,0.167-0.224
	c-0.597-1.397-2.541-0.545-2.285,0.892c-0.091,0.151-0.218,0.266-0.391,0.335c-0.756-0.539-1.333-1.408-2.008-1.729
	c-0.069-0.14,0.029-0.175-0.057-0.223c0.041,0.151-0.262-0.04-0.223,0.111c1.243,1.043,2.04,2.532,3.29,3.568
	c0.04-0.176,0.183-0.108,0.167-0.223c0.855,0.359,1.945,0.202,2.787,0.502c-0.41,0.553-0.846,1.405-0.501,2.119
	c-0.126,0.265-0.147-0.001-0.334,0.111c-0.009,0.138-0.013,0.271,0.11,0.279c0.01-0.118,0.305,0.399,0.334,0.613
	c-0.047,0.082-0.18,0.081-0.277,0.111c0.138,0.494,0.343,0.921,0.725,1.171c0.137-0.074-0.063-0.207,0.057-0.223
	c1.021-0.384,1.67,1.003,2.451,0.334c-0.279-0.025,0.116-0.078,0.113-0.167c-0.371-0.242-0.72-0.508-1.283-0.558
	c-0.871-0.466-1.464-2.76,0.168-2.843c0.151,0.267,0.521,0.08,0.668,0.279c0.381,0.511-0.299,0.821-0.334,1.227
	c-0.05,0.554,0.526,1.001,1.004,1.003c0.848,0.004,1.441-1.079,1.506-1.951c0.151-0.052,0.273-0.135,0.334-0.279
	c-0.127-0.783-0.836-1.026-1.004-1.896c-0.248-0.123-0.373-0.706-0.613-0.501c0.104,0.201,0.165,0.452,0.111,0.668
	c-0.775-0.479-1.696-0.393-2.285-0.39c0.041-0.852,0.578-1.391,0.391-2.342C79.273,28.804,79.377,29.125,79.529,29.11z
	 M20.932,28.887c0.288-0.065,0.333-0.374,0.446-0.614C21.127,28.375,21.015,28.616,20.932,28.887z M73.285,29.333
	c0.209-0.247,0.425-0.422,0.334-0.836C72.807,28.082,72.389,29.201,73.285,29.333z M21.713,29.5
	c0.233,0.048,0.303-0.068,0.391-0.167c-0.197-0.019-0.145-0.146-0.112-0.279C21.802,29.106,21.686,29.231,21.713,29.5z
	 M83.209,29.891c0.018-0.174-0.161,0.142-0.168-0.056c0.074-0.107-0.04-0.224,0.057-0.39c-0.248-0.012-0.195-0.325-0.391-0.391
	c0.021,0.096-0.083,0.143,0,0.167c0.055-0.072-0.021,0.44,0.057,0.446c-0.018-0.113,0.16,0.012,0.166,0.056
	c-0.104-0.044-0.002,0.455,0,0.39c0.012-0.083,0.137-0.051,0.225-0.056C83.061,29.793,83.359,29.996,83.209,29.891z M25.95,31.173
	c-0.083-0.01-0.051-0.135-0.056-0.223c-0.238-0.144-0.856-0.379-1.059-0.056c0.105,0.359,0.234,0.991,0.557,0.948
	C25.441,31.864,25.709,31.311,25.95,31.173z M74.79,32.232c0.073,0.243,0.222,0.411,0.446,0.502
	c0.175-0.282-0.161-0.299-0.168-0.558C74.939,32.159,74.854,32.185,74.79,32.232z M76.186,34.072
	c0.008-0.139-0.029-0.231-0.111-0.279C75.982,33.876,75.991,34.111,76.186,34.072z M82.65,36.469
	c0.056-0.255-0.037-0.31,0.057-0.502c-0.285,0.151-0.271-0.281-0.391-0.111C82.229,35.784,82.15,36.527,82.65,36.469z
	 M10.729,36.915c-0.012,0.07-0.086,0.114,0.056,0.112c0-0.148-0.021-0.318,0.056-0.391C10.606,36.648,10.581,36.962,10.729,36.915z
	 M81.646,37.194c0.244,0.01,0.104,0.097,0.111,0.278c0.783,0.266,1.809,0.623,1.842,1.505c0.014,0.401-0.22,0.554-0.392,0.893
	c-0.324,0.184-0.498,0.319-0.78,0.446c-0.847-0.038-0.939-1.038-0.335-1.394c-0.692-1.26-2.374-0.642-2.397,0.892
	c-0.225-0.057-0.246,0.087-0.334,0.167c-0.105-0.023-0.141-0.12-0.278-0.11c0.03,0.081-0.065,0.288,0.056,0.278
	c-0.049-0.196,0.185-0.097,0.168,0c-0.121-0.01-0.179,0.046-0.168,0.167c0.377,0.776,0.334,1.97,0.894,2.564
	c0.006-0.067,0.017-0.132,0.11-0.111c0.047-0.54-0.244-0.914-0.056-1.17c0.802,0.39,1.806,1.114,2.62,0.557
	c-0.134-0.089-0.37-0.076-0.445-0.223c0.188-0.115,0.038-0.115,0-0.279c0.276-0.001,0.611,0.055,0.668-0.167
	c0.17,0.203,0.305,0.02,0.446,0.279c0.633-0.512,1.022-0.958,1.338-1.729c0.068,0.079,0.213,0.126,0.279,0.056
	c0.028-0.3,0.092-0.726-0.056-1.003c-0.138-0.05-0.242-0.131-0.446-0.112c-0.247-0.83-0.7-1.116-1.45-1.45
	c-0.117-0.397-0.575-0.599-1.227-0.669C81.863,37.075,81.68,37.058,81.646,37.194z M79.752,37.695
	c-0.63-0.63-1.27,0.386-0.559,0.726c0.267-0.032,0.383-0.213,0.559-0.335C79.752,37.956,79.752,37.826,79.752,37.695z
	 M78.691,38.811c-0.16,0.161,0.109,0.174,0.058,0.39c0.112,0.064,0.267-0.087,0.11-0.111c-0.004,0.034-0.008,0.065-0.055,0.055
	C78.925,39.027,78.825,38.842,78.691,38.811z M85.438,41.375c0.027-0.099,0.061,0.024,0.112,0.055
	c-0.003-0.076,0.026-0.122,0.056-0.167c-0.189,0.042-0.092-0.206-0.224-0.224C85.288,41.131,85.332,41.328,85.438,41.375z
	 M85.551,43.549c-0.056,0-0.111,0-0.168,0c0.024,0.515,0.014,0.757,0.279,1.06c-0.063,0.531,0.473,0.919,0.559,1.505
	c0.155,1.074-0.08,2.676-0.111,3.568c0,0.073,0.097,0.051,0.111,0.111c-0.214-0.082-0.012,0.25-0.225,0.167
	c0.042-0.32-0.148-0.425-0.223-0.836c-0.121-0.105-0.348-0.066-0.392-0.112c-0.177-0.428-1.221-1.108-1.728-1.728
	c0.279,0.1,0.707,0.001,0.892-0.167c-0.088-0.831-0.969-1.128-1.506-1.672c0.007-0.197,0.185,0.118,0.168-0.056
	c-0.16-0.065-0.296-0.116-0.446-0.055c-0.148,0.167-0.058,0.573-0.334,0.613c0.122-0.259-0.107-0.065-0.168-0.111
	c-0.24-0.188-0.271-0.747-0.613-0.669c0.099,0.065,0,0.28,0.279,0.39c-0.344-0.174-0.32,0.193-0.445,0.279
	c-0.189-0.476-0.465-0.853-0.502-1.338c-0.17-0.074-0.467-0.055-0.502-0.112c0.043-0.197-0.06-0.329,0-0.668
	c-0.229-0.049-0.217-0.342-0.445-0.39c-0.025,0.347,0.056,0.987,0.277,1.059c-0.176,0.35,0.019,0.869-0.168,1.228
	c0.018-0.163-0.013-0.192-0.109-0.112c0.051,0.585,0.111,1.251,0.167,2.007c0.084,1.141,0.043,2.642,0.278,3.178
	c-0.302-0.002-0.072,0.523-0.223,0.668c0.11,0.105,0.237,0.054,0.277,0.112c-0.053,0.171-0.271,0.175-0.277,0.392
	c0.264,0.051-0.003,0.395,0.223,0.668c-0.064,0.047-0.149,0.074-0.278,0.056c-0.298,3.165-1.185,6.642-2.397,9.256
	c0.076,0.165-0.031,0.242,0,0.502c-0.273,0.65-0.592,1.379-0.558,1.95c0.112-0.242,0.465-0.068,0.224-0.391c0.074,0,0.147,0,0.223,0
	c-0.174-0.225,0.262-0.211,0.057-0.445c0.215-0.112,0.621-0.27,0.445-0.445c0.082,0.029,0.142,0.082,0.224,0.111
	c0.013-0.105-0.063-0.124-0.056-0.223c0.187,0,0.188-0.183,0.391-0.168c-0.063,0.267,0.173,0.234,0.111,0.502
	c0.175-0.074,0.115-0.25,0.334-0.334c-0.204-0.037,0.021-0.545-0.278-0.614c0.31-0.043,0.233-0.472,0.558-0.501
	c-0.045-0.903,1.34-1.022,2.008-0.838c-0.203,0.061,0.425,0.524,0.056,0.781c-0.72-0.182-1.129,0.648-0.726,1.282
	c0.203,0.05,0.297-0.099,0.391,0c-0.012-0.274-0.086-0.237-0.167-0.502c0.542,0.003,0.944-0.133,1.338-0.278
	c-0.017,0.228,0.117,0.029,0.224,0.056c0.077,0.071,0.034,0.264,0.111,0.335c-0.479,0.296-1.096,0.514-1.729,0.502
	c0.1,0.025-0.024,0.061-0.057,0.111c0.498,0.694,1.799,0.586,2.063-0.111c-0.127,0.016-0.209-0.014-0.223-0.111
	c0.082-0.011,0.051-0.135,0.055-0.224c0.218,0.002,0.445-0.185,0.559-0.111c0.063-0.21-0.053-0.254,0.111-0.334
	c0.24,0.698-0.23,1.095-0.278,1.616c0.104,0.054,0.187-0.167,0.224,0c-0.106,0.023-0.24,0.021-0.224,0.167
	c0.115,0.069,0.228,0.146,0.278,0.278c-0.307,0.195-0.584,0.723-0.278,1.061c-0.173-0.021-0.228,0.27-0.056,0.278
	c-0.153-0.333,0.337-0.371,0.502-0.558c-0.065-0.234,0.144-0.51,0-0.836c0.361-0.037,0.637-0.427,0.501-0.781
	c0.778-0.649,1.247-1.565,1.282-2.787c0.3-0.221,0.498-0.543,0.447-1.114c0.555-1.213,0.582-2.836,0.389-4.237
	c0.205,0.036,0.213-0.121,0.391-0.111c0.177-0.275-0.229-0.748,0.111-0.836c-0.217-0.424,0.074-0.916-0.391-1.061
	c0.193-0.089,0.1-0.121,0.225-0.279c-0.104-0.053-0.188,0.168-0.225,0c0.09-0.162,0.178-0.021,0.278-0.11
	c-0.188-0.402,0.248-0.972,0.278-1.562c0.027-0.515-0.197-1.091,0.225-1.394c0.182-1.327-0.086-2.607-0.391-3.623
	c0.066-0.007,0.132-0.018,0.109-0.112c-0.257-0.787-0.479-1.773-0.725-2.844c-0.034-0.078-0.214-0.008-0.223-0.112
	c0.067-0.607-0.021-0.904-0.336-1.393c0.058,0,0.113,0,0.168,0c-0.054-0.226-0.035-0.522-0.334-0.502
	C85.693,42.243,85.514,42.838,85.551,43.549z M88.171,53.641c0.361-1.256,0.104-3.155,0.278-4.516
	c-0.004,0.033,0.015,0.067,0.056,0.056c-0.069-0.293,0.134-0.403,0.112-0.669c-0.318-0.193-0.395-0.751-0.838-0.725
	c-0.18,0.011-0.252,0.17-0.444,0.279c-0.085,2.04,0.056,4.586-0.278,6.356c0.278,0.303,0.461,0.557,0.947,0.445
	c0.323-0.073,0.503-0.672,0.501-0.278c0.175-0.187,0.056-0.208,0.335-0.11C88.759,54.032,88.416,54.07,88.171,53.641z
	 M18.424,52.023c0.302,0.088,0.57,0.211,0.948,0.224c-0.055-0.423,0.062-0.687-0.112-1.003
	C18.769,51.285,18.162,51.572,18.424,52.023z M14.019,52.191c0.134-0.022,0.121,0.102,0.279,0.056
	c0.008-0.231-0.113-0.332-0.223-0.445C14.057,51.934,13.987,52.011,14.019,52.191z M14.911,52.859
	c0.276,0.018,0.248-0.271,0.39-0.391c-0.065-0.083-0.069-0.228-0.167-0.277c-0.039,0.14-0.148-0.104-0.279-0.057
	C14.782,52.409,14.914,52.595,14.911,52.859z M14.186,52.639c-0.047-0.179,0.049-0.213,0.112-0.279
	c-0.105,0.013-0.123-0.063-0.223-0.057C14.088,52.406,14.131,52.76,14.186,52.639z M17.978,52.805
	c-0.176-0.262-0.045-0.268-0.391-0.445C17.49,52.54,17.712,52.809,17.978,52.805z M25.449,72.986
	c0.048,0.18-0.086,0.176-0.167,0.225c-0.453-0.396-1.204,0.213-1.45-0.559c-0.263,0.229-0.593-0.146-0.669-0.445
	c0,0.057,0,0.111,0,0.167c-0.752-0.358-0.506-1.033-0.446-1.673c0.498-0.503,1.744-0.881,1.505,0.391
	c-0.116,0.032-0.159,0.139-0.334,0.111c0.347,1.417,2.652,0.843,2.397-0.559c0.203-0.225,0.144-0.711,0.334-0.946
	c0.135,0.108,0.423,0.354,0.558,0.278c0-0.14-0.12-0.369-0.279-0.613c-0.231-0.016-0.217,0.072-0.39,0
	c0.08-0.098,0.051-0.127-0.111-0.111c0.013-0.08,0.092-0.094,0.111-0.168c-0.226-0.387-0.656-0.57-0.725-1.113
	c-0.653-0.982-1.451-1.82-1.896-3.012c-0.034-0.077-0.214-0.009-0.223-0.111c-0.099-0.254-0.242-0.465-0.446-0.613
	c-0.984-2.821-2.658-6.088-2.788-9.422c-0.082-0.123-0.181-0.229-0.279-0.334c0.194-0.113,0.01-0.729-0.167-0.948
	c-0.078,0.09-0.047,0.288-0.167,0.335c-0.205-0.348-0.894-0.7-1.227-0.559c-0.078-0.086-0.318-0.496-0.446-0.279
	c-0.192,0.108,0.213,0.078,0.223,0.168c-0.017,0.109,0.075,0.111,0.111,0.168c-0.064,0.01-0.06,0.088-0.055,0.167
	c0.82,0.965,0.127,2.915-1.115,2.731c-0.535-0.08-0.711-0.47-0.836-1.06c0.158-0.085,0.443-0.593,1.003-0.445
	c-0.037-0.298,0.024-0.498,0.167-0.612c-0.231-0.049-0.166-0.394-0.279-0.559c-0.855-0.822-2.341-0.131-2.676,0.947
	c-0.074,0-0.148,0-0.223,0c0.027-0.215-0.077-0.295-0.223-0.335c-0.133,1.317,0.138,2.419,0.501,3.233
	c0.137-0.214-0.116-0.724,0.279-0.781c0.313,0.339,0.603,0.699,1.003,0.949c0.451,0,0.515,0.067,0.836,0.223
	c0.072-0.096,0.223-0.112,0.279-0.223c0.009,0.064-0.009,0.157,0.056,0.166c0.211-0.225,0.657-0.119,0.892-0.11
	c0.03-0.101,0.028-0.231,0.111-0.279c0.093,0,0.187,0,0.279,0c0.297-0.567,0.983-0.772,1.06-1.282
	c0.059,0.022,0.161-0.059,0.334-0.055c-0.019-0.205,0.086-0.287,0.223-0.336c0.084,0.133,0.167,0.124,0.223,0.168
	c-0.07,0.928,0.512,1.979,0.502,2.844c-0.176-0.109-0.381-0.066-0.502-0.111c0.068-0.006,0.132-0.017,0.112-0.111
	c-1.267-0.342-2.487-0.856-3.457-0.167c-0.432,0.608-1.053,1.028-1.115,2.007c-0.117,0.051-0.248,0.088-0.334,0.167
	c-0.153,0.882,0.547,2.194,0.78,2.677c-0.055,0.335,0.11,0.448,0.279,0.559c-0.031-0.582-0.543-1.258-0.167-1.729
	c0.203,0.354,0.422,0.772,0.781,1.004c0.705,0.454,1.951,0.289,2.788,0.558c1.18,0.379,3.023,1.701,2.119,3.065
	c-0.312,0.472-1.439,0.863-1.617,0.058c0.043-0.014,0.11-0.002,0.111-0.058c-0.104-0.052-0.186,0.167-0.223,0
	c0.103-0.163,0.18-0.094,0.056-0.39c0.152-0.275,0.493-0.362,0.836-0.446c0.004-0.374-0.328-0.354-0.223-0.612
	c0.01,0.213-0.045,0.021-0.167,0.056c0.06-0.154,0.024-0.13-0.056-0.224c-0.808-0.939-2.708,0.047-2.564,1.729
	c-0.012-0.067-0.062-0.034-0.111,0c-0.244-0.091-0.206-0.464-0.502-0.502c0.022,0.19,0.172,0.092,0,0.223
	c0.77,1.431,1.428,3.023,2.453,4.126c0.047,0.051,0.125,0.159,0.167,0.223c0.242,0.369,0.373,0.608,0.668,1.004
	c0.228,0.306,0.363,0.714,0.614,0.726c0.312,0.537,0.616,1.045,1.171,1.115c-0.123-0.109-0.126-0.218-0.223-0.445
	c0.411-0.12,0.787,0.253,1.227,0.334c0.465,0.085,0.876-0.022,1.282,0c0.146-0.171,0.468-0.163,0.613-0.334
	c0.193,0.171,0.461-0.056,0.558-0.168c0.198,0.015,0.246,0.009,0.502-0.056c0.874,0.365,2.749,0.406,2.843,1.728
	c0.057,0.796-0.525,1.618-1.449,1.339c-0.39-0.688,0.246-1.236,0.111-1.729c-0.455-0.546-0.914-0.348-1.561-0.335
	c-0.675,0.491-1.148,1.599-0.669,2.621c-0.341,0.122-0.446-0.236-0.781-0.279c0.337,0.669,1.131,1.358,1.952,1.729
	c-0.056,0-0.07,0.099,0,0.11c0.051-0.097,0.019-0.278,0.111-0.334c0.962,0.243,2.094-0.052,2.732-0.444
	c0.05,0.098,0.205,0.09,0.223,0.223c-0.229,0.988,0.03,1.877,0.502,2.453c0.421,0.006,0.627,0.227,0.725,0.558
	c0.912,0.484,2.433,0.562,3.066-0.168c-0.623-0.036-1.439,0.284-2.23,0.112c-0.355-0.594-0.862-0.938-0.78-1.842
	c0.256-0.241,0.357-0.717,0.78-0.779c0.604-0.089,1.094,0.564,0.948,1.171c0.044,0.013,0.065,0.047,0.056,0.11
	c1.186,0.459,1.858-0.81,1.449-1.951c0.236-0.045,0.165-0.381,0.056-0.501c-0.139-0.009-0.173,0.088-0.279,0.11
	c-0.179-0.084-0.438-0.547-0.167-0.725c-0.012,0.313,0.093,0.063,0.223,0.057c-0.14,0.276,0.582,0.207,0.613,0.334
	c0.252-0.05-0.174-0.281-0.167-0.445c-0.334,0.003-0.51,0.111-0.668-0.111c-0.049,0.081-0.044,0.216-0.224,0.167
	c0.058-0.262-0.128-0.28-0.223-0.392c-0.268-0.045-0.202,0.246-0.502,0.168c-0.017,0.109,0.075,0.111,0.111,0.168
	c-1.188-0.354-2.133,0.156-2.731,0.725c-0.012-0.044-0.047-0.064-0.112-0.056c0.238-1.194,0.303-1.929-0.223-2.788
	c0.088,0.023,0.048,0.176,0.223,0.111c-0.068-0.221-0.143-0.269,0-0.445c-0.501-0.29-0.557-0.497-0.948-0.836
	c-0.046-0.413-0.141-0.646-0.557-0.781c0.016,0.238,0.296,0.273,0.167,0.502c-0.511,0.08-0.755,0.084-1.394,0.167
	c0.072-0.073,0.074-0.207-0.056-0.223c-0.188,0.17-0.071,0.108-0.111,0.278c-0.386-0.129-1.1,0.028-1.561,0.057
	c-0.022,0.096,0.083,0.143,0,0.167C25.767,72.739,25.996,73.095,25.449,72.986z M15.301,59.885c0-0.029-0.045-0.063-0.056,0
	c0.041,0.141,0.055,0.457,0.279,0.559c-0.018-0.369-0.159-0.543-0.167-0.612C15.354,59.864,15.349,59.896,15.301,59.885z
	 M17.253,65.294c-0.145,0.112-0.024,0.429,0.167,0.392c-0.241-0.785-0.216-1.217-0.78-1.617
	C16.761,64.469,16.842,65.039,17.253,65.294z M79.361,64.122c0.186,0.688,0.922,1.124,1.617,1.114
	c-0.065-0.025-0.127-0.06-0.168-0.11c0.26-0.089,0.348-0.2,0.502-0.278c-0.562,0.037-1.049-0.625-1.395-0.277
	c0-0.131,0-0.262,0-0.391c-0.143,0.043-0.256-0.219-0.334-0.058C79.641,64.156,79.504,64.246,79.361,64.122z M17.811,64.848
	c0.056,0,0.111,0,0.167,0c-0.004-0.228,0.176-0.27,0.167-0.502c-0.143-0.117-0.321-0.199-0.558-0.224
	C17.537,64.583,17.744,64.475,17.811,64.848z M78.637,64.568c0.145,0.029,0.195,0.074,0.279-0.057
	c-0.104,0.01-0.393-0.195-0.279-0.056C78.704,64.469,78.672,64.52,78.637,64.568z M77.855,64.959c0.232,0.589,1.015-0.1,1.506-0.111
	c-0.202,0.055-0.047-0.25-0.223-0.223C78.775,65.029,78.282,64.691,77.855,64.959z M78.137,73.155
	c-0.271-0.525,0.068-0.873,0.055-1.396c-0.039-1.479-1.576-3.792-1.172-4.572c-0.17-0.039-0.162,0.098-0.334,0.057
	c-0.017,0.109,0.076,0.111,0.111,0.168c-0.179-0.049-0.115,0.145-0.223,0.168c-0.063-0.087-0.16-0.139-0.223-0.225
	c0.397-0.787-0.082-1.533,0.725-2.063c-0.084-0.121-0.205-0.204-0.334-0.279c-0.165,0.172-0.424,0.414-0.335,0.67
	c-0.218-0.084-0.291,0.399-0.558,0.444c-0.861,1.558-2.029,2.804-3.013,4.238c-0.022,0.135,0.103,0.12,0.058,0.278
	c0.1,0.066,0.323,0.01,0.391,0.111c-0.059,0.073-0.057,0.205-0.112,0.277c-0.063-0.047-0.147-0.073-0.278-0.055
	c-0.604,0.842,0.131,1.205,0,2.285c-0.078,0.014-0.094,0.092-0.166,0.111c-0.358,0.023-0.508-0.163-0.615-0.391
	c0.201,0.031,0.171-0.166,0.169-0.334c-0.065-0.064-0.196-0.063-0.335-0.057c-0.143,0.137-0.059,0.33-0.11,0.445
	c-0.565-0.188-1.127,0.648-1.563,0.223c0.289-0.287,0.646-0.506,0.781-0.947c-0.354,0.045-0.521,0.295-0.836,0.726
	c-0.5-0.05-0.718,0.638-0.613,0.837c-0.365-0.029-0.17,0.323-0.334,0.391c-0.109-0.574-1.056-0.271-0.78,0.277
	c0.163,0.079,0.274-0.063,0.391,0.112c0.337,0.897-0.603,1.563-0.057,2.397c0.72-0.229,0.409-1.384,1.339-1.953
	c0.911-0.559,2.305-0.024,1.729,1.228c-0.218-0.101-0.922-0.247-0.893-0.612c-0.454,0.126-0.893,0.74-1.171,1.227
	c0.306,0.921,0.81,1.88,2.063,1.674c0.209,0.109,0.241,0.051,0.391,0.223c-0.004-0.096,0.043-0.145,0.111-0.167
	c0.377,0.013,0.806-0.228,1.114-0.503c0.333-0.297,0.618-0.674,0.948-0.893c-0.042-0.182-0.275-0.17-0.391-0.277
	c0.285-0.671-0.063-1.768,0-2.175c0.824,0.296,1.996,0.161,2.898,0.11C77.139,74.127,78.007,74.01,78.137,73.155z M77.354,66.688
	c-0.033-0.004-0.065-0.008-0.055-0.057c0.042-0.012,0.109-0.001,0.11-0.055c-0.22-0.057-0.361,0.249-0.167,0.277
	C77.195,66.596,77.331,66.797,77.354,66.688z M78.357,68.137c0.125-0.128,0.088,0.418-0.056,0.111
	c0.144,0.307-0.022,0.429-0.278,0.669c0.16,0.06,0.185,0.169,0.111,0.335c0.477,0.514,1.191,0.775,2.119,0.557
	c-0.001,0.058,0.044,0.067,0.055,0.112c-0.437,1.013-1.166,1.731-1.672,2.677c0.03,0.079,0.086,0.137,0.168,0.168
	c0.186-0.189,0.127-0.344,0.334-0.559c0.256-0.218,0.854-0.551,1.17-0.948c0.137-0.172,0.14-0.452,0.279-0.612
	c0.146-0.17,0.475-0.524,0.501-0.612c0.122-0.396,0.403-1.025,0.669-1.507c0.33-0.594,0.613-0.58,0.391-1.17
	c-0.342-0.063-0.504,0.108-0.893,0.11c-0.057,0.736-0.686,1.365-1.281,1.394c0.381-0.101,0.291-0.674,0.558-0.891
	c-0.222-0.023-0.073-0.065-0.277-0.224C79.68,67.936,78.902,67.58,78.357,68.137z M89.063,68.807
	c-0.168,0.521-0.836,0.771-0.613,1.506c-0.229,0.147-0.868,0.793-0.67,0.946c-0.377,0.812-0.899,1.478-1.393,2.175
	c-0.136,0.106-0.447,0.035-0.669,0.057c0.113-0.11-0.038-0.149-0.168-0.167c0.005,0.515,0.5,0.665,0.837,1.003
	c-0.01-0.12,0.197-0.025,0.277-0.055c0.604-0.576,1.02-1.457,1.449-2.287c0.217-0.416,0.584-0.801,0.726-1.227
	c0.052-0.156-0.052-0.199,0.056-0.335c0.356-0.446,0.557-1.013,0.502-1.673C89.227,68.71,89.232,68.848,89.063,68.807z
	 M27.901,70.813c-0.098-0.33-0.427-0.724-0.725-0.668C27.477,70.309,27.547,70.703,27.901,70.813z M78.691,70.813
	c-0.039,0.127-0.049,0.285-0.109,0.392c0.325,0.327,0.541-0.174,0.611-0.445c-0.096,0.022-0.143-0.083-0.166,0
	C79.104,70.861,78.836,70.743,78.691,70.813z M28.961,71.816c-0.17-0.406-0.547-0.605-0.892-0.836
	C28.221,71.366,28.631,71.792,28.961,71.816z M70.999,72.264c0.702-0.125,1.329-0.594,1.338-1.229c0.043-0.012,0.11,0,0.111-0.055
	C71.689,71.134,71.313,71.664,70.999,72.264z M26.731,71.984c0.08,0.029,0.136,0.086,0.167,0.166
	c0.418,0.011,0.626-0.191,0.892-0.334C27.588,71.043,26.762,71.039,26.731,71.984z M19.818,82.688c-0.232-0.016-0.218,0.073-0.391,0
	c0.12-0.114,0.024-0.211-0.167-0.168c-0.02-0.766-0.775-0.453-0.892-1.113c-0.138-0.045-0.165-0.02-0.278-0.167
	c0.121-0.036,0.177,0.157,0.167-0.056c-0.573-0.395-1.052-0.882-1.394-1.507c-0.224,0.107-0.344-0.157-0.446-0.334
	c0.056-0.001,0.066,0.046,0.111,0.056c-0.39-0.691-1.204-0.926-1.282-1.783c-0.975-0.811-1.151-1.727-2.007-2.51
	c-0.284-0.795-0.828-1.328-1.171-2.063c-0.355,0.002-0.521-0.185-0.613-0.444c0,0.092-0.154,0.03-0.167,0.109
	c0.442,0.529,0.527,1.518,1.338,1.84c-0.066,0.01-0.158-0.009-0.167,0.057c0.221,0.188,0.182,0.637,0.502,0.726
	c0.047,0.12,0.145,0.188,0.111,0.391c0.446,0.638,1.07,1.188,1.505,1.841c0.116,0.172,0.12,0.4,0.223,0.557
	c0.273,0.415,0.736,0.67,1.059,1.06c0.271,0.326,0.412,0.776,0.836,0.948c-0.12,0.204,0.152,0.422,0.39,0.445
	c0.288,0.695,0.999,0.972,1.338,1.617c0.116,0.031,0.159,0.138,0.334,0.111c0.22,0.537,1.089,1.152,1.784,1.561
	C20.541,83.313,20.271,83.175,19.818,82.688z M31.024,73.823c0.065,0.009,0.158-0.009,0.167,0.057
	c-0.034,0.003-0.066,0.009-0.056,0.056c0.083-0.011,0.206,0.021,0.223-0.056c-0.143-0.006-0.089-0.209-0.167-0.278
	c-0.056,0-0.111,0-0.167,0C31.024,73.675,31.024,73.749,31.024,73.823z M31.637,74.493c0.255-0.028,0.316,0.097,0.502,0
	c-0.067-0.343-0.373-0.445-0.669-0.56C31.369,74.09,31.577,74.323,31.637,74.493z M24.278,74.493
	c0.13,0.185,0.118,0.554,0.558,0.557c0.204-0.14-0.028-0.37,0.167-0.502C24.742,74.632,24.578,74.109,24.278,74.493z M32.641,74.883
	c0-0.072,0.097-0.051,0.111-0.111c-0.043-0.013-0.065-0.047-0.056-0.11c-0.056,0-0.111,0-0.167,0
	C32.514,74.786,32.542,74.87,32.641,74.883z M24.166,75.329c-0.098,0.114,0.031,0.34,0.279,0.278
	c-0.266-0.433-0.567-0.692-0.836-0.836C23.618,74.925,23.884,75.457,24.166,75.329z M31.637,75.496
	c0.129,0.018,0.214-0.01,0.279-0.057c0.045-0.213-0.119-0.215-0.223-0.277C31.576,75.298,31.613,75.281,31.637,75.496z
	 M74.734,76.055c0.05-0.137,0.312-0.062,0.279-0.279c-0.117-0.032-0.16-0.139-0.337-0.111
	C74.604,75.738,74.572,76.053,74.734,76.055z M67.318,80.793c-0.479,0.146-1.1-0.048-1.562-0.335
	c-0.317-0.464-0.194-1.444,0.558-1.338c0.236,0.155,0.47,0.28,0.727,0.278c0.906-0.465,0.688-1.645,0.109-2.342
	c-0.871-0.185-1.555-0.019-2.396,0.111c-0.526,0.623-0.993,1.389-1.06,2.285c-0.021,0.288,0.227,0.637-0.057,0.837
	c0.283,0.11,0.481,0.729,0.278,0.836c-0.392-1.003-1.24-1.547-2.007-2.174c-0.09-0.122-0.153,0.252-0.334,0.223
	c-0.646,0.041-1.127,0.249-1.674,0.392c-0.404,0.545-1.271,0.918-1.226,1.728c0.659-0.21,1.189-1.125,2.062-1.17
	c1.324-0.069,2.107,1.933,0.781,2.063c-0.49,0.047-0.596-0.252-0.893-0.613c-0.132-0.129-0.501-0.02-0.725-0.057
	c-0.603,0.577-0.277,1.23-0.057,2.008c0.577,0.396,1.103,0.822,1.84,0.725c1.481-0.195,2.102-1.715,2.342-3.064
	c0.856,0.358,1.512,1.023,2.564,0.946c1.641-0.121,2.663-1.993,2.342-3.624C68.354,79.105,68.259,80.503,67.318,80.793z
	 M68.1,77.002c0.069-0.34-0.05-0.796-0.223-1.061c-0.35,0.078-0.609,0.244-0.836,0.447c-0.057,0.314,0.167,0.354,0.109,0.668
	C67.605,77.047,67.777,77.244,68.1,77.002z M75.125,76.165c0.016,0.099-0.157,0.278,0,0.335c0.009-0.064,0.088-0.061,0.167-0.057
	c0.015-0.227,0.038-0.172,0.167-0.334C75.288,76.068,75.295,76.206,75.125,76.165z M75.627,77.727
	c-0.003-0.076,0.025-0.123,0.057-0.166c-0.11,0.016-0.111-0.076-0.168-0.112C75.479,77.583,75.402,77.734,75.627,77.727z
	 M35.763,77.727c-0.74,0.998,0.596,1.453,0.78,0.391C36.33,77.965,36.055,77.617,35.763,77.727z M38.438,78.116
	c-0.214-0.027-0.07-0.412-0.334-0.39C37.909,77.936,38.329,78.223,38.438,78.116z M61.075,78.284
	c-0.009,0.138,0.088,0.173,0.11,0.278c0.319-0.017,0.627-0.338,0.613-0.502c-0.115,0.166-0.294-0.074-0.502,0
	C61.336,78.248,61.204,78.266,61.075,78.284z M62.691,78.842c0.043,0.143,0.179,0.193,0.392,0.167
	C63.377,78.566,62.684,78.311,62.691,78.842z M39.777,78.953c-0.245,0.074,0.138,0.158-0.111,0.277
	c-0.906-0.453-2.459-0.709-3.123,0.168c0.91-0.086,2.386-0.029,2.899,0.836c0.186,0.826-0.101,1.973-1.282,1.785
	c-0.375-0.248-0.568-0.658-0.279-1.061c-0.627-1.162-1.94-0.018-1.896,1.004c0.325,0.796,1.045,1.602,2.007,1.839
	c0.434,0.108,1.457-0.159,1.895-0.444c0.473-0.31,0.833-1.119,0.892-1.617c0.057-0.477-0.148-0.836,0.056-1.282
	C40.237,80.203,40.179,79.405,39.777,78.953z M39.944,78.953c0.098-0.073,0.204-0.354-0.056-0.334
	C39.829,78.803,39.723,78.859,39.944,78.953z M73.896,79.23c0.119-0.252,0.539-0.205,0.56-0.557
	c-0.249-0.109-0.405,0.18-0.614,0.278C73.88,79.128,73.836,79.182,73.896,79.23z M69.717,79.009
	c-0.089,0.246-0.162,0.507-0.167,0.836c0.412,0.277,0.923-0.1,1.003-0.501C70.309,79.199,70.146,78.968,69.717,79.009z
	 M18.591,79.566c-0.009-0.121,0.198-0.025,0.279-0.057c0.004-0.098-0.013-0.174-0.056-0.224c0.043-0.013,0.11-0.002,0.111-0.056
	C18.701,79.195,18.463,79.434,18.591,79.566z M43.233,79.734c-0.05,0.234,0.146,0.394,0,0.557c-0.26,0.201-0.41-0.162-0.558-0.057
	c-0.748,0.526-1.626,1.197-1.672,2.285c-0.04,0.95,0.527,1.604,0.948,2.342c0.994,0.289,1.724,0.635,2.788,0.225
	c0.359-0.479,1.293-0.38,1.282-1.229c-0.804,0.136-1.03,0.953-1.951,0.949c-0.685-0.004-1.533-0.672-1.617-1.339
	c-0.063-0.495,0.304-1.198,0.836-1.227c0.708-0.037,0.675,0.719,1.171,1.004c1.666-0.382,0.83-2.74-0.502-2.899
	C44.372,79.84,43.693,79.191,43.233,79.734z M45.631,80.18c0.133,0.053,0.357,0.185,0.501,0.057
	c-0.02-0.221-0.161-0.322-0.334-0.392C45.703,79.916,45.646,80.027,45.631,80.18z M41.283,80.068
	c0.085,0.195,0.396,0.312,0.501,0.056C41.706,80.02,41.371,79.822,41.283,80.068z M49.255,80.682
	c0.153,0.07,0.429-0.259,0.167-0.445c-0.133,0.035-0.259,0.074-0.28,0.223c0.006,0.089,0.143,0.043,0.113,0.168
	C49.224,80.625,49.192,80.671,49.255,80.682z M30.354,80.458c0.08,0.015,0.094,0.092,0.167,0.112
	c0.017-0.114,0.112-0.149,0.167-0.225c-0.076-0.018-0.106-0.08-0.223-0.056C30.483,80.4,30.391,80.4,30.354,80.458z M56.949,80.458
	c-0.006,0.545,0.215,0.862,0.67,0.948c0.246-0.219,0.301-0.629,0.334-1.061C57.6,80.188,57.285,80.427,56.949,80.458z
	 M54.887,82.688c0.59-0.144,0.704,0.51,1.114,0.559c0.72,0.084,1.063-1.001,0.669-1.729c-0.32-0.432-0.997-0.774-1.338-1.004
	c-1.396,0.028-2.255,0.942-2.73,2.063c0,1.292,0.563,2.185,1.394,2.732c0.491,0.323,1.078,0.403,1.784,0.278
	c0.863-0.153,1.863-1.171,1.951-2.008c-0.836,0.354-0.951,1.428-2.287,1.282c-0.28-0.274-0.75-0.364-1.002-0.67
	C54.12,83.5,54.395,82.809,54.887,82.688z M46.132,80.96c-0.108,0.424-0.114,1.08,0.391,1.06c0.256-0.172,0.401-0.453,0.391-0.893
	C46.693,80.997,46.407,80.884,46.132,80.96z M48.251,85.42c0.33,0.346,1.159,0.543,1.617,0.559c0.708,0.021,1.229-0.33,1.616-0.726
	c0.699-0.709,0.8-1.313,0.781-2.396c-0.312-0.284-0.48-0.709-0.67-1.116c-1.064-1.157-3.876-0.71-4.182,0.669
	c0.43,0.211,0.608-0.242,0.948-0.391c0.759-0.33,1.816-0.213,2.287,0.446c0.437,0.611,0.225,1.776-1.061,1.673
	c-0.319-0.164-0.348-0.619-0.39-1.06C47.501,82.563,47.536,84.671,48.251,85.42z M52.488,81.406c0-0.075,0-0.149,0-0.223
	c-0.092,0-0.187,0-0.278,0C52.218,81.343,52.279,81.447,52.488,81.406z M34.202,81.797c0.024,0.365,0.509,0.271,0.725,0.445
	c0.053-0.35-0.044-0.551-0.223-0.669C34.577,81.688,34.334,81.688,34.202,81.797z M22.884,82.075
	c0.032-0.136,0.361,0.026,0.334-0.168c-0.183-0.002-0.133-0.237-0.334-0.224C22.73,81.835,22.858,81.932,22.884,82.075z
	 M27.456,81.964c0.115-0.126,0.379,0.522,0.558,0.167c-0.296-0.027-0.263-0.115-0.502-0.334
	C27.541,81.877,27.294,81.934,27.456,81.964z M64.42,82.743c0.014-0.042,0.047-0.063,0.112-0.056
	c-0.009-0.104-0.037-0.187-0.112-0.223C64.389,82.499,64.289,82.729,64.42,82.743z M45.965,83.413
	c0.201-0.015,0.269,0.103,0.446,0.11c0.095-0.112,0.327-0.313,0.391-0.612C46.453,82.657,45.961,82.97,45.965,83.413z
	 M20.654,83.803c-0.096,0.149,0.039,0.213-0.111,0.336c0.083,0.01,0.206-0.021,0.223,0.055c0.209,0.517,0.799,0.65,1.171,1.005
	c0.216-0.386-0.345-0.845-0.501-0.726c0.038-0.099,0.061-0.173,0-0.224C21.293,84.203,20.907,83.923,20.654,83.803z M58.455,84.751
	c0.33,0.015,0.55-0.082,0.725-0.224C59.057,83.809,58.133,84.064,58.455,84.751z M27.4,84.975c0.033-0.115,0.117-0.181,0.167-0.279
	c-0.1,0.068-0.325,0.011-0.391,0.111C27.291,84.823,27.286,84.958,27.4,84.975z M46.077,85.42c0.195,0.049,0.563,0.214,0.78,0.057
	C46.789,84.961,46.182,84.818,46.077,85.42z M28.905,87.762c-0.178,0.195-0.27-0.218-0.501-0.334
	c-0.102-0.053-0.287,0.002-0.39-0.056c-0.114-0.065-0.186-0.29-0.335-0.335c-0.326-0.1-0.634-0.173-0.501-0.391
	c-0.309,0.191-0.278-0.063-0.39-0.392c0.29-0.044,0.188-0.479,0.39-0.612c-0.115-0.016-0.013-0.248-0.167-0.224
	c0.155,0.271-0.131,0.09-0.279,0.056c-0.035,0.448-0.392,0.549-0.334,0.948c0.139-0.039,0.229-0.055,0.334,0.056
	c-0.228-0.017,0.009,0.078-0.056,0.225c0.448,0.029,0.868,0.915,1.617,1.003c-0.013,0.104,0.063,0.123,0.056,0.224
	c0.443-0.063,0.423,0.362,0.725,0.168c0.207,0.338,1.449,1.144,1.84,0.892c-0.213-0.179-0.403-0.378-0.78-0.392
	c-0.245-0.309-0.625-0.561-1.003-0.558C29.276,87.861,28.821,87.896,28.905,87.762z M32.585,89.824
	c0.01-0.232-0.171-0.275-0.167-0.501c-0.66-0.079-1.153-0.24-1.505-0.279C31.284,89.456,31.933,89.878,32.585,89.824z
	 M45.408,85.979c0.106,0.023,0.101,0.158,0.279,0.11C45.751,85.868,45.428,85.793,45.408,85.979z M52.712,86.368
	c0.111,0,0.224,0,0.335,0c0.148-0.292-0.206-0.415-0.391-0.392C52.657,86.126,52.635,86.296,52.712,86.368z M49.645,12.272
	c-0.177-0.144-0.476-0.023-0.669-0.334c0.129-0.17-0.239-0.833-0.279-1.282c-0.056-0.648,0.157-1.362-0.055-2.007
	c-0.431-0.42-1.157-0.254-1.673-0.112c-0.475-0.093-1.458-0.063-1.951,0.334c0.018,0.382,0.03,0.43-0.057,0.725
	c-0.076,0.157-0.438,0.03-0.278,0.279c-0.339-0.13-0.59-0.664-0.668-1.115c0.007,0.047,0.011-0.313,0-0.278
	c0.168-0.484,0.746-0.372,1.449-0.446c0.741-0.078,1.986-0.097,2.62-0.167c0.439-0.048,1.114-0.261,1.338,0.056
	c0.236,0.965-0.239,3.838,0.334,4.07C49.885,12.038,49.661,12.188,49.645,12.272z M50.147,12.105
	c0.315-0.104,0.505-0.107,0.949-0.056c-0.063,0.182-0.188-0.014-0.224,0.223C50.611,12.21,50.351,12.267,50.147,12.105z
	 M24.947,19.13c0.426,0.336,0.72,0.804,1.115,1.171c-0.016,0.129-0.14,0.261,0.112,0.223c-0.008,0.43-0.306,0.507-0.558,0.725
	c-0.927,0.8-2.101,1.979-2.955,2.788c-0.996-0.508-1.862-1.664-2.955-2.397c-0.793,0.429-1.321,1.019-1.728,1.84
	c-0.446,0.137-0.637,0.675-0.669,1.059c0.382,0.195,0.93,0.902,0.279,1.171c-0.464-0.242-0.958-0.455-1.283-0.836
	c0.065-0.604,0.41-0.929,0.836-1.171c0.351-0.91,1.563-1.627,1.896-2.564c0.946-1.048,1.559,0.507,2.453,1.283
	c0.246,0.213,0.295,0.216,0.501,0.446c0.224,0.249,0.544,0.654,0.892,0.613c0.201-0.024,0.208-0.217,0.446-0.446
	c0.588-0.566,1.633-1.285,2.063-2.007C25.256,20.301,24.138,19.835,24.947,19.13z M38.216,21.75
	c-0.179,0.011-0.015-0.265-0.167-0.39c-0.176-0.027-0.218,0.079-0.334,0.111c0.044,0.16,0.112,0.296,0.167,0.446
	c-0.322,0.065-0.638,0.428-1.115,0.502c0.145-0.515,0.135-1.68,0.558-2.175c0.764,0.183,1.271,0.625,1.84,1.003
	C39.009,21.447,38.509,21.789,38.216,21.75z M18.2,29.891c-1.121,0.157-2.378-1.615-3.4-1.505c-0.787,0.084-0.748,1.261-1.394,1.617
	c0.09,0.62-0.872,1.141-0.669,1.84c0.11,0.382,0.689,0.156,0.613,0.78c-0.86-0.038-1.983-0.212-1.617-1.227
	c0.139-0.384,0.592-1.075,0.892-1.617c0.157-0.285,0.144-0.607,0.39-0.78c-0.045,0.029-0.09,0.058-0.167,0.056
	c0.733-0.567,0.763-1.839,1.84-2.063c0.618,0.46,1.423,1.031,2.063,1.282c0.33,0.34,0.727,0.611,1.338,0.669
	c0.271-0.406,0.989-1.122,1.115-1.672c0.345-0.362,0.839-0.871,0.836-1.394c0.018-0.076,0.14-0.047,0.224-0.056
	c-0.076-0.11-0.334-0.207-0.224-0.334c-0.087-0.081-0.3,0.021-0.334-0.223c0.054-0.001,0.043-0.068,0.056-0.111
	c0.325,0.275,0.81,0.364,0.948,1.059C19.857,27.422,18.925,28.552,18.2,29.891z M21.267,35.299c0.126-0.031-0.068-0.087,0.056-0.167
	c0.778,0.119,1.685-0.109,2.397-0.335c-0.129,0.098-0.204,0.208-0.112,0.391c-0.123,0.155-0.266,0.292-0.278,0.558
	c-0.668,0.369-0.521,1.317-1.171,1.617c-0.36-0.569-0.697-1.162-1.171-1.617c-0.003-0.166,0.164-0.283,0.056-0.391
	c-0.111,0.105-0.088,0.203-0.279,0.112c-0.112-0.178,0.221-0.174,0.056-0.223c0.031-0.133,0.167,0.062,0.056,0.111
	C21.075,35.386,21.121,35.202,21.267,35.299z M22.605,36.413c0.047-0.064,0.074-0.149,0.056-0.278
	c-0.065-0.064-0.197-0.063-0.334-0.057C22.314,36.296,22.349,36.465,22.605,36.413z M18.368,42.881
	c0.019-0.341-0.209-0.624-0.223-0.948c-0.515-0.854-2.062-0.759-2.732-0.112c0.016-1.354,0.536-2.949,1.115-3.958
	c0.32,1.426,1.196,2.297,2.119,3.122c-0.084,0.269,0.24,0.566,0.446,0.725c0.09,0.702,0.117,1.654-0.055,2.286
	c-0.442,0.723-2.031,0.97-2.119-0.11c0.191-0.2,0.325-0.456,0.501-0.669c0.18-0.013,0.236,0.099,0.446,0.056
	c-0.041-0.052-0.102-0.085-0.167-0.113C18.069,43.224,17.954,43.049,18.368,42.881z M16.138,40.65
	c0.268,0.008,0.467-0.053,0.613-0.167C16.897,39.542,15.942,39.897,16.138,40.65z M12.458,38.811c0.032-0.117,0.21,0.08,0.335,0.056
	c0.207,0.016-0.165,0.138-0.112,0c-0.057,0.035-0.058,0.127-0.167,0.111C12.519,38.899,12.523,38.82,12.458,38.811z M12.904,39.313
	c0.115,0.382,0.424-0.191,0.223-0.278c0.186-0.146,0.511,0.044,0.669,0.111c0.051,1.018-0.577,2.08-0.725,3.067
	c-0.472-0.513,0.559-2.303-0.558-2.341c0.016-0.245,0.337-0.184,0.446-0.335C12.843,39.467,12.88,39.577,12.904,39.313z
	 M82.482,48.066c0.012-0.063,0.058-0.031,0.058,0c0.037,0,0.073,0,0.11,0c-0.26,0.139,0.117,0.232,0.168,0.391
	c-0.297-0.146-0.92,0.327-1.229,0.334c0.102-0.192,0.079-0.447-0.167-0.446c0.013-0.063,0.058-0.031,0.058,0
	c0.129-0.058,0.115-0.256,0.109-0.446c-0.072,0.066-0.087,0.021-0.167,0c0.019-0.116,0.151,0.082,0.167-0.112
	c0.131,0.057,0.182,0.191,0.393,0.167C81.966,48.232,82.449,48.19,82.482,48.066z M85.551,50.407
	c-0.011-0.083-0.301-0.288-0.279-0.056c-0.125-0.097-0.146-0.298-0.334-0.334c0.058-0.093,0.236-0.061,0.334-0.112
	c0.063-0.235-0.131-0.726,0.111-0.781c-0.001,0.321,0.271,0.597,0.504,0.725c0.084,0.959-0.254,2.197,0.334,2.676
	c0.123,0.482,0.154,1.416-0.334,1.729c0.12,0.225,0.127,0.494,0,0.727c-0.224-0.096-0.211-0.424-0.447-0.502
	c0.041-0.105,0.166-0.039,0.057-0.168c-0.369-0.213-0.956-0.487-0.948-0.893c-1.716,0.077-2.854-1.257-2.62-2.564
	c0-0.002,0.075,0.065,0.057,0.111c0.111-0.255,0.102-0.643,0.334-0.892c0.209-0.222,1.027-0.553,1.506-0.167
	c0.045,0.193-0.082,0.214-0.057,0.39c-0.44,0.098-0.699,0.418-0.779,0.726c0.158-0.043,0.07,0.328-0.057,0.334
	c0.25,0.726,1.035,0.883,1.783,0.78c0.031-0.319-0.308-0.659-0.779-0.78c0.196-0.465,0.83-0.752,0.612-1.449
	c-0.139-0.01-0.175,0.085-0.224,0.167c-0.116-0.108-0.371-0.368-0.223-0.557c-0.063-0.152-0.414-0.215-0.278-0.391
	c0.295,0.155,0.536,0.583,0.837,0.558c0.209,0.431,0.393,0.434,0.445,0.725c0.067,0.379-0.33,0.564-0.336,0.892
	c-0.002,0.114,0.281,0.597,0.058,0.446c-0.108,0.059,0.146,0.221,0.223,0.279c-0.024-0.051-0.049-0.101-0.11-0.112
	c0.297,0.086,0.726-0.429,0.781-0.78C85.766,50.829,85.534,50.668,85.551,50.407z M81.982,52.859c0-0.055,0-0.11,0-0.166
	c0.145,0.021,0.16,0.173,0.223,0.277C82.023,53.041,82.162,52.792,81.982,52.859z M84.102,53.697
	c-0.162-0.031,0.086-0.088,0.056-0.168c0.054,0.051,0.319,0.318,0.057,0.335C84.303,53.741,84.206,53.559,84.102,53.697z
	 M12.012,56.596c0.044,0.03,0.09,0.06,0.167,0.057c-0.102-0.502-0.282-1.625-0.39-2.118c-0.014-0.116-0.245-0.017-0.279-0.111
	c0.022-0.126,0.327,0.029,0.223-0.224c-0.188,0.104-0.387,0.084-0.892,0.056c-0.042-0.31,0.225-0.078,0.39-0.11
	c0.495-0.1,0.878-0.396,1.227,0c-0.042,1.385,0.607,3.066,0.558,4.795c-0.588,0.205-1.332,0.513-2.007,0.726
	c-0.295,0.092-0.61,0.222-0.836,0.276c-0.32,0.08-0.706-0.014-0.78,0.447c-0.065,0.396,0.374,0.922,0.446,1.449
	c0.127,0.938,0.253,1.387,0.557,2.118c0.581,0.019,0.708-0.142,1.227-0.111c-0.007,0.101,0.068,0.118,0.056,0.224
	c-0.384,0.377-1.022,0.502-1.505,0.781c-0.46-0.022-0.402-0.564-0.669-0.781c-0.27-1.723-1.391-3.264-1.338-5.019
	c0.222-0.03,0.168-0.03,0.39,0c0.904-0.461,2.753-0.346,3.735-1.059c-0.161-0.218-0.154-0.353-0.223-0.558
	c-0.044,0.047-0.152,0.032-0.167,0.11C11.998,57.297,12.188,57.161,12.012,56.596z M80.087,58.882
	c0.162-0.091,0.162,0.156,0.445,0.167c-0.247,0.363,0.388,0.266,0.335,0.614c-0.524-0.106-0.754,0.349-1.115,0.222
	c0.012-0.063,0.057-0.029,0.057,0C80.07,59.631,80.253,58.956,80.087,58.882z M18.145,59.551c0.063,0.012,0.031,0.057,0,0.057
	c0.803-0.012,0.862,1.472,0.167,1.449c0.037,1.416,1.958,1.172,2.453,0.334c0.034-0.281,0.139-0.492,0.39-0.558
	c-0.044-0.192,0.063-0.235,0.112-0.335c0.686,0.676,0.767,1.699,1.115,2.454c0.153,0.331,0.523,0.618,0.501,1.06
	c-0.339-0.052-0.515-0.267-0.836-0.335c-0.136,0.132,0.083,0.104,0.056,0.278c-0.252-0.055-0.144-0.178-0.223-0.334
	c-0.166,0.072-0.283,0.057-0.39-0.057c0.111,0.328-0.276-0.082-0.558,0.057c0-0.074,0-0.148,0-0.223
	c-0.274,0.035-0.239,0.086-0.278-0.112c-0.511,0.219-0.777-0.25-1.227,0.112c-0.092-0.467-0.972-0.145-1.003-0.67
	c-0.149,0-0.297,0-0.446,0c-0.039-0.166-0.244-0.166-0.224-0.391c-0.17,0.04-0.203-0.057-0.334-0.057c0.041-0.1,0.102-0.008,0.167,0
	c-0.04-0.399-0.623-0.52-0.725-1.004c0.006,0.025,0.026-1.092,0.391-1.004c0-0.129,0-0.26,0-0.391
	c0.167-0.128,0.408-0.094,0.446-0.222c0.054,0.001,0.043,0.067,0.055,0.11C17.807,59.621,18.033,59.645,18.145,59.551z
	 M21.378,61.893c-0.215,0.23-0.586,0.308-0.613,0.726c0.192,0.312,0.653,0.214,1.003,0.167C21.71,62.415,21.668,62.03,21.378,61.893
	z M81.814,60.943c-0.137,0.008-0.012,0.186,0.057,0.168c-0.014,0.145-0.096-0.075-0.225,0c0-0.073,0-0.148,0-0.223
	c0.117-0.023,0.147,0.038,0.225,0.055C81.859,61.008,81.814,60.977,81.814,60.943z M16.361,61.279
	c0.156,0.23,0.049,0.246,0.167,0.445C16.361,61.688,16.341,61.503,16.361,61.279z M75.904,67.244
	c0.021-0.087,0.099,0.049,0.113-0.057c0.361,0.269,0.174,0.65,0.276,1.172c0.087,0.438,0.401,0.582,0.614,1.06
	c0.189,0.427,0.102,1.013,0.109,1.562c0.607,0.687,0.375,2.07-0.5,2.343c-0.621,0.19-1.677-0.119-1.617-0.948
	c0.063-0.141,0.232-0.176,0.334-0.279c0.252,0.008,0.404,0.118,0.613,0.168c1.101-0.449,0.633-2.39-0.334-2.621
	c0.186-0.111,0.478-0.117,0.559-0.334c-0.043-0.367-0.209-0.607-0.446-0.781c-0.271,0.104-0.354,0.392-0.502,0.615
	c-0.022,0.174,0.28,0.308,0.167,0.39c-0.307,0.123-0.831,0.024-1.227,0.056C74.714,68.878,75.277,67.788,75.904,67.244z
	 M70.387,73.602c-0.16-0.064,0.09-0.064,0.11,0c-0.22,0.281-0.451,0.551-0.892,0.612c0.037-0.26,0.424-0.17,0.391-0.502
	c0.206,0.04,0.238-0.096,0.445-0.056C70.452,73.607,70.42,73.604,70.387,73.602z M80.311,74.271
	c0.338-0.057,0.937,0.582,1.227,0.945c-0.051,0.1-0.124,0.174-0.223,0.225C80.807,75.258,80.171,74.74,80.311,74.271z
	 M30.522,76.834c0.056,0,0.111,0,0.167,0c-0.001,0.291-0.159,0.104-0.223,0.277C30.27,77.018,30.627,77.021,30.522,76.834z
	 M33.365,11.325c0.579,1.005,0.928,2.661,1.729,3.624c1.073-0.106,2.324-0.962,3.289-1.003c-0.062-0.069-0.048-0.115,0.056-0.111
	c0.046-0.641-0.224-0.966-0.278-1.506c0.069-0.024,0.115-0.071,0.111-0.167c0.164-0.071,0.352,0.018,0.558,0.056
	c0.187,0.703,0.646,1.169,0.111,1.729c-0.338-0.104-0.747,0.173-1.003,0.334c-0.082-0.129-0.178,0.109-0.167-0.112
	c-0.804,0.628-1.921,0.688-2.732,1.227c-0.384,0.04-0.306-0.123-0.558-0.056c-0.506-1.061-1-1.958-1.505-3.066
	c-0.242-0.14-0.514,0.098-0.725-0.056c-0.629,0.556-1.961,0.799-2.564,1.672c0.137,0.408,0.254,0.716,0.056,1.171
	c-0.701-0.061-0.811-0.713-1.227-1.059c-0.063-0.453,0.345-0.436,0.39-0.781c0.944-0.214,1.632-0.839,2.398-0.948
	c0.07-0.014,0.056-0.111,0-0.111C32.08,11.918,32.296,11.341,33.365,11.325z M18.703,36.525c0.681-0.143,1.46,0.838,0.78,1.394
	c-0.215,0.011-0.411,0.001-0.558-0.056c-0.045,0.011-0.056,0.056-0.111,0.056c-0.565,0.921,0.067,1.739,0.948,1.784
	c0.268,0.014,0.394-0.124,0.781-0.056c0.418-0.206,0.663-0.168,0.892-0.167c-0.367,1.134-0.5,2.285-1.06,3.066
	c-0.372-0.165-0.524-0.791-0.948-0.725c0.052-0.257-0.178-0.23-0.279-0.334c-0.094-0.101,0.046-0.281,0.056-0.447
	c-0.509-0.55-0.998-0.867-1.45-1.393c0.019-0.129,0.057-0.24,0.167-0.279c-0.059-0.182-0.167-0.495,0-0.557
	c-0.361-1.001-0.123-1.995,0.781-2.119C18.703,36.636,18.703,36.581,18.703,36.525z M19.706,40.707
	c0.122,0.399,0.42,0.621,0.892,0.669c0.129-0.281,0.32-0.499,0.334-0.892C20.513,40.458,19.928,40.345,19.706,40.707z
	 M84.547,59.939c-0.009-0.102-0.189-0.032-0.224-0.109c0.274-0.063,0.387-0.455,0.224-0.727c0.176,0.026,0.229-0.068,0.279-0.166
	c-0.112,0.53-0.088,1.877-0.559,2.229c0.012-0.405-0.067-0.374-0.056-0.779c-0.267-0.172-0.594-0.547-0.558-0.837
	C83.995,59.639,83.979,60.082,84.547,59.939z"/>
</svg>
