<?xml version="1.0" encoding="utf-8"?>
<!-- Generator: Adobe Illustrator 16.0.0, SVG Export Plug-In . SVG Version: 6.00 Build 0)  -->
<!DOCTYPE svg PUBLIC "-//W3C//DTD SVG 1.1//EN" "http://www.w3.org/Graphics/SVG/1.1/DTD/svg11.dtd">
<svg version="1.1" id="Layer_1" xmlns="http://www.w3.org/2000/svg" xmlns:xlink="http://www.w3.org/1999/xlink" x="0px" y="0px"
	 width="100px" height="100px" viewBox="0 0 100 100" enable-background="new 0 0 100 100" xml:space="preserve">
<path fill="#262424" stroke="#FFFFFF" stroke-miterlimit="10" d="M21.166,77.659c-0.784,1.6,0.653,3.166,0.359,4.831
	c-0.098,0.457-0.75,0.294-0.979,0.162c-2.057-1.338-3.134-3.361-4.179-5.482c-2.644-5.189-4.08-10.902-3.427-16.68
	c0.392-3.754,1.078-7.346,3.427-10.577c0.588-0.816,1.633-2.154,2.808-1.338c-1.338,9.856,5.451,18.313,13.612,23.403
	c0.261,0.164-0.13,0.687-0.228,0.72c-1.535,0.75-3.297,0.065-5.027-0.294c-0.131-0.033-0.326,0.229-0.196,0.391
	c5.81,5.189,12.73,8.813,17.823,8.813c0-9.922,0-60.812,0-60.812c-2.84-2.742-4.603-4.962-4.603-8.813
	c-0.13-5.06,4.831-10.119,10.119-10.119c5.06,0,10.349,4.733,10.349,10.674c0,4.864-3.623,6.823-4.963,7.834c0,0,0,41.979,0,61.368
	c6.691-0.621,13.123-4.57,17.986-8.945c-2.154-0.555-4.211,0.521-6.396-0.031c-0.327-0.064-0.295-0.457-0.197-0.588
	c3.035-2.841,6.563-4.701,9.4-7.77c4.244-4.604,6.039-10.479,6.203-16.517c1.894-0.164,2.317,1.795,2.971,2.938
	c2.383,4.31,2.74,9.205,2.252,14.036c-0.588,5.975-2.188,11.49-5.68,16.713c-0.457,0.652-1.795,1.73-1.927,0.882
	c-0.358-1.828,0.589-3.722,0.392-5.681c-0.032-0.163-0.26-0.358-0.392-0.195c-2.317,3.003-4.274,5.811-7.083,8.355
	c-5.354,4.832-11.816,6.758-18.02,10.218c-1.6,0.882-2.578,1.567-4.309,3.102c-1.11,0.979-2.22-1.926-3.656-2.774
	c-1.698-0.945-3.33-1.696-5.092-2.416c-3.721-0.881-17.627-8.91-21.479-15.733L21.166,77.659L21.166,77.659z M21.166,77.659
	c-0.784,1.6,0.653,3.166,0.359,4.831c-0.098,0.457-0.75,0.294-0.979,0.162c-2.057-1.338-3.134-3.361-4.179-5.482
	c-2.644-5.189-4.08-10.902-3.427-16.68c0.392-3.754,1.078-7.346,3.427-10.577c0.588-0.816,1.633-2.154,2.808-1.338
	c-1.338,9.856,5.451,18.313,13.612,23.403c0.261,0.164-0.13,0.687-0.228,0.72c-1.535,0.75-3.297,0.065-5.027-0.294
	c-0.131-0.033-0.326,0.229-0.196,0.391c5.81,5.189,12.73,8.813,17.823,8.813c0-9.922,0-60.812,0-60.812
	c-2.84-2.742-4.603-4.962-4.603-8.813c-0.13-5.06,4.831-10.119,10.119-10.119c5.06,0,10.349,4.733,10.349,10.674
	c0,4.864-3.623,6.823-4.963,7.834c0,0,0,41.979,0,61.368c6.691-0.621,13.123-4.57,17.986-8.945
	c-2.154-0.555-4.211,0.521-6.396-0.031c-0.327-0.064-0.295-0.457-0.197-0.588c3.035-2.841,6.563-4.701,9.4-7.77
	c4.244-4.604,6.039-10.479,6.203-16.517c1.894-0.164,2.317,1.795,2.971,2.938c2.383,4.31,2.74,9.205,2.252,14.036
	c-0.588,5.975-2.188,11.49-5.68,16.713c-0.457,0.652-1.795,1.73-1.927,0.882c-0.358-1.828,0.589-3.722,0.392-5.681
	c-0.032-0.163-0.26-0.358-0.392-0.195c-2.317,3.003-4.274,5.811-7.083,8.355c-5.354,4.832-11.816,6.758-18.02,10.218
	c-1.6,0.882-2.578,1.567-4.309,3.102c-1.11,0.979-2.22-1.926-3.656-2.774c-1.698-0.945-3.33-1.696-5.092-2.416
	c-3.721-0.881-17.627-8.91-21.479-15.733 M50.771,22.331c5.844,0,10.608-4.733,10.608-10.576c0-5.843-4.767-10.576-10.608-10.576
	c-5.841,0-10.576,4.733-10.576,10.575C40.196,17.598,44.93,22.331,50.771,22.331L50.771,22.331z M50.771,15.965
	c-2.317,0-4.177-1.861-4.177-4.211c0-2.318,1.86-4.178,4.177-4.178c2.352,0,4.211,1.86,4.211,4.178
	C54.982,14.104,53.123,15.965,50.771,15.965L50.771,15.965z M56.061,25.921c0-3.591,0-10.543,0-10.543
	c0-5.092-7.964-4.603-9.171-1.991c0.392,0.718,1.24,2.023,2.481,2.416c0.359,0.424,0.424,0.62,0.457,1.437c0,4.57,0,8.683,0,8.683
	L56.061,25.921L56.061,25.921z"/>
<path fill="#FFFFFF" stroke="#000000" stroke-width="0.5" stroke-linecap="round" stroke-linejoin="round" stroke-miterlimit="2.6131" d="
	M20.382,25.432c0,0,0,6.267,0,9.923c4.505,0.098,18.28,0.098,30.39,6.039c12.144-5.941,25.918-5.941,30.424-6.039
	c0-3.656,0-9.923,0-9.923H20.382L20.382,25.432z M22.929,27.292c0,0,0,2.873,0,5.419c6.169-0.783,20.467,1.861,27.973,6.039
	c7.476-4.178,21.807-6.822,27.976-6.039c0-2.546,0-5.419,0-5.419H22.929L22.929,27.292z M23.908,28.402c0,0,0,1.861,0,3.297
	c6.953-0.195,20.271,2.318,26.863,6.072c6.627-3.754,19.944-6.267,26.897-6.072c0-1.436,0-3.297,0-3.297H23.908L23.908,28.402z
	 M27.499,36.073c0,1.241,1.012,2.252,2.252,2.252c1.24,0,2.252-1.012,2.252-2.252V25.432c0-1.24-1.012-2.252-2.252-2.252
	c-1.24,0-2.252,1.012-2.252,2.252V36.073L27.499,36.073z M63.73,37.705c0,1.241-1.012,2.252-2.252,2.252s-2.252-1.012-2.252-2.252
	V25.432c0-1.24,1.012-2.252,2.252-2.252s2.252,1.012,2.252,2.252V37.705L63.73,37.705z M74.079,36.073
	c0,1.241-1.013,2.252-2.252,2.252c-1.24,0-2.253-1.012-2.253-2.252V25.432c0-1.24,1.013-2.252,2.253-2.252
	c1.239,0,2.252,1.012,2.252,2.252V36.073L74.079,36.073z M37.846,37.705c0,1.241,1.012,2.252,2.252,2.252
	c1.24,0,2.252-1.012,2.252-2.252V25.432c0-1.24-1.012-2.252-2.252-2.252c-1.241,0-2.252,1.012-2.252,2.252V37.705L37.846,37.705z"/>
<path fill="#FFFFFF" d="M30.501,26.215c0,1.534,0,9.14,0,9.14c-0.163,0.979-0.261,1.371-0.816,1.371L30.501,26.215L30.501,26.215z
	 M62.359,25.856c0,1.566,0,11.458,0,11.458c-0.162,1.012-0.293,1.404-0.814,1.404L62.359,25.856L62.359,25.856z M72.609,26.215
	c0,1.534,0,9.14,0,9.14c-0.162,0.979-0.293,1.371-0.848,1.371L72.609,26.215L72.609,26.215z M40.979,25.856
	c0,1.566,0,11.458,0,11.458c-0.163,1.012-0.261,1.404-0.815,1.404L40.979,25.856L40.979,25.856z M45.713,18.283
	c1.273,1.306,1.436,1.632,3.852,1.958 M58.771,13.027c-0.164,2.416-1.24,3.721-2.352,4.733 M52.764,85.036
	c8.487,0.327,16.746-5.288,21.055-9.367 M39.543,89.77c6.169,2.318,7.834,2.742,10.479,5.289 M46.921,21.678v63.783 M52.764,16.161
	v68.875 M50.771,86.896V51.773 M51.784,50.207v36.037 M54.102,47.008v8.715 M54.102,58.923v4.08 M54.102,68.161v3.198
	 M54.102,79.848v3.852 M54.102,72.927v3.166 M54.657,83.698c3.95-0.196,10.575-2.091,13.317-4.407 M51.784,86.244
	c10.087-0.653,17.432-4.732,22.426-9.76 M76.463,74.004c3.818-4.732,5.777-9.824,6.168-13.417 M51.001,87.452
	c26.114-1.991,33.394-21.479,33.622-34.274c2.839,3.754,1.307,19.193-1.764,23.471c-0.131-3.396-0.131-4.179-0.457-5.614
	 M80.412,64.309c-0.653,2.09-1.633,3.982-1.764,4.31 M78.094,67.279c-0.521,1.338-0.979,2.121-0.979,2.121 M75.811,68.52
	c0,0-0.557,0.881-0.883,1.209 M79.661,73.677c-1.437,5.614-8.813,11.229-19.618,16.745c-2.645,0.784-7.605,3.657-9.042,5.288
	 M20.48,73.023c1.894,2.971,5.843,9.924,17.954,16.19 M16.759,52.852c0.882,8.813,3.068,28.66,29.281,34.373 M18.946,62.121
	c0.653,2.188,1.11,3.298,1.11,3.298 M20.382,65.975c2.971,7.604,11.556,18.182,25.559,20.043 M29.424,77.332
	c2.644,2.09,9.564,7.052,16.289,7.477 M36.019,80.173c4.407,2.448,6.626,3.199,9.694,3.525 M21.362,66.3
	c0.555,1.437,1.991,3.623,1.991,3.623 M23.353,67.639c0.555,1.077,1.338,2.284,1.338,2.284 M25.344,69.042l0.979,1.338
	 M15.878,54.418c-2.22,9.695-1.241,17.17,2.742,22.785c0.098-2.416,0.229-5.615,1.306-6.27 M47.247,7.903
	c-2.089,0.686-2.84,6.169,0,7.932 M44.603,9.469c-1.077,2.416-0.75,4.407,1.012,5.941 M50.771,46.813V16.716 M51.784,16.39v30.292
	 M53.775,15.639c0.326,0.261,0.326,2.089,0.326,2.089c0,1.958,0,24.841,0,24.841 M53.873,3.822c2.547,1.338,6.072,3.754,5.941,8.161
	 M30.501,26.215c0,1.534,0,9.14,0,9.14c-0.163,0.979-0.261,1.371-0.816,1.371 M62.359,25.856c0,1.566,0,11.458,0,11.458
	c-0.162,1.012-0.293,1.404-0.814,1.404 M72.609,26.215c0,1.534,0,9.14,0,9.14c-0.162,0.979-0.293,1.371-0.848,1.371 M40.979,25.856
	c0,1.566,0,11.458,0,11.458c-0.163,1.012-0.261,1.404-0.815,1.404"/>
<path fill="#FFFFFF" stroke="#000000" stroke-width="0.5" stroke-linecap="round" stroke-linejoin="round" stroke-miterlimit="2.6131" d="
	M56.583,51.611c-0.687-2.874-1.403-2.84-2.153-2.646c-0.752,0.196-1.24,0.62-0.522,3.362c0.653,2.48,1.403,2.84,2.122,2.645
	C56.777,54.777,57.171,53.994,56.583,51.611L56.583,51.611z M35.235,37.934c2.317-1.828,1.991-2.481,1.501-3.068
	c-0.49-0.587-1.109-0.881-3.297,0.946c-1.958,1.632-1.958,2.481-1.469,3.068C32.46,39.468,33.309,39.468,35.235,37.934
	L35.235,37.934z M35.137,40.97c2.285-1.861,1.991-2.48,1.469-3.068c-0.49-0.588-1.078-0.882-3.264,0.946
	c-1.991,1.632-1.991,2.448-1.469,3.036C32.362,42.471,33.211,42.503,35.137,40.97L35.137,40.97z M35.072,44.267
	c1.958-2.22,1.534-2.775,0.947-3.265c-0.588-0.49-1.241-0.685-3.068,1.501c-1.665,1.958-1.535,2.774-0.947,3.265
	C32.59,46.257,33.439,46.127,35.072,44.267L35.072,44.267z M35.92,46.845c1.535-2.514,1.045-3.003,0.36-3.395
	c-0.653-0.359-1.306-0.457-2.743,1.991c-1.305,2.252-1.012,3.003-0.359,3.395C33.831,49.228,34.647,48.934,35.92,46.845
	L35.92,46.845z M37.585,48.575c1.077-2.742,0.49-3.134-0.261-3.395c-0.718-0.261-1.371-0.196-2.351,2.448
	c-0.914,2.416-0.49,3.133,0.229,3.396C35.92,51.284,36.671,50.893,37.585,48.575L37.585,48.575z M39.674,49.848
	c0.587-2.905-0.065-3.166-0.816-3.297c-0.75-0.163-1.403,0-1.925,2.808c-0.458,2.546,0.098,3.167,0.848,3.296
	C38.532,52.786,39.185,52.264,39.674,49.848L39.674,49.848z M41.926,50.534c0.065-2.938-0.62-3.102-1.403-3.102
	c-0.751,0-1.371,0.261-1.371,3.102c-0.033,2.577,0.62,3.101,1.371,3.101C41.306,53.635,41.861,52.982,41.926,50.534L41.926,50.534z
	 M44.277,50.729c-0.457-2.938-1.143-2.97-1.894-2.839c-0.783,0.13-1.338,0.49-0.849,3.296c0.424,2.547,1.143,2.971,1.926,2.84
	C44.211,53.896,44.636,53.145,44.277,50.729L44.277,50.729z M46.66,50.6c-0.686-2.841-1.404-2.841-2.154-2.646
	c-0.718,0.196-1.241,0.621-0.522,3.362c0.653,2.515,1.403,2.84,2.155,2.645C46.855,53.766,47.247,53.016,46.66,50.6L46.66,50.6z
	 M49.141,50.762c-0.686-2.839-1.404-2.839-2.155-2.644c-0.718,0.228-1.24,0.62-0.522,3.36c0.653,2.516,1.404,2.875,2.154,2.646
	C49.336,53.93,49.728,53.178,49.141,50.762L49.141,50.762z M51.557,50.925c-0.686-2.84-1.404-2.84-2.122-2.611
	c-0.751,0.196-1.273,0.587-0.555,3.363c0.653,2.479,1.404,2.839,2.155,2.61C51.784,54.092,52.145,53.341,51.557,50.925
	L51.557,50.925z M54.037,51.154c-0.686-2.873-1.403-2.84-2.122-2.646c-0.751,0.196-1.272,0.62-0.556,3.362
	c0.652,2.514,1.404,2.84,2.154,2.645C54.266,54.32,54.624,53.537,54.037,51.154L54.037,51.154z M58.998,52.133
	c-0.424-2.938-1.143-2.97-1.893-2.84c-0.752,0.131-1.307,0.522-0.816,3.297c0.425,2.547,1.143,2.971,1.895,2.842
	C58.934,55.3,59.391,54.549,58.998,52.133L58.998,52.133z M61.512,53.766c-0.195-2.938-0.914-3.035-1.664-2.971
	c-0.783,0.064-1.339,0.393-1.109,3.23c0.195,2.547,0.882,3.035,1.632,2.972C61.152,56.932,61.643,56.214,61.512,53.766
	L61.512,53.766z M63.73,55.854c0.556-2.904-0.098-3.198-0.849-3.33c-0.751-0.129-1.403,0.033-1.894,2.842
	c-0.457,2.545,0.064,3.166,0.816,3.296C62.557,58.792,63.242,58.27,63.73,55.854L63.73,55.854z M64.973,58.434
	c1.533-2.547,1.012-3.002,0.358-3.396c-0.651-0.392-1.339-0.456-2.774,1.991c-1.272,2.22-1.012,3.003-0.326,3.396
	C62.883,60.814,63.699,60.521,64.973,58.434L64.973,58.434z M65.298,61.664c2.286-1.827,1.959-2.448,1.47-3.035
	c-0.488-0.62-1.076-0.914-3.265,0.914c-1.991,1.665-1.991,2.48-1.501,3.068C62.491,63.198,63.373,63.23,65.298,61.664L65.298,61.664
	z M64.417,65.027c2.774-0.947,2.71-1.666,2.448-2.385c-0.262-0.718-0.719-1.207-3.395-0.229c-2.449,0.882-2.711,1.633-2.449,2.352
	C61.283,65.518,62.066,65.811,64.417,65.027L64.417,65.027z M62.359,67.934c2.906-0.426,2.938-1.144,2.809-1.895
	c-0.131-0.751-0.488-1.307-3.297-0.85c-2.546,0.457-2.971,1.176-2.84,1.927C59.193,67.867,59.913,68.323,62.359,67.934
	L62.359,67.934z M59.455,70.15c2.938-0.194,3.068-0.881,2.971-1.664c-0.064-0.752-0.357-1.338-3.199-1.109
	c-2.578,0.229-3.035,0.914-2.971,1.665S57.008,70.314,59.455,70.15L59.455,70.15z M56.061,72.143
	c2.154-0.064,2.285-0.686,2.285-1.371c0-0.685-0.195-1.271-2.285-1.371V72.143L56.061,72.143z M45.746,73.84
	c2.97,0.065,3.101-0.62,3.101-1.402c0-0.75-0.261-1.371-3.101-1.371c-2.579-0.032-3.102,0.621-3.102,1.371
	C42.645,73.22,43.297,73.775,45.746,73.84L45.746,73.84z M42.84,75.537c2.938,0.066,3.101-0.62,3.101-1.371
	c0-0.783-0.261-1.402-3.101-1.402c-2.579,0-3.101,0.619-3.101,1.402C39.74,74.917,40.359,75.473,42.84,75.537L42.84,75.537z
	 M39.054,77.529c2.938-0.197,3.036-0.915,2.97-1.665c-0.065-0.751-0.359-1.339-3.199-1.11c-2.579,0.196-3.068,0.882-2.971,1.665
	C35.92,77.17,36.606,77.691,39.054,77.529L39.054,77.529z M36.671,79.65c2.938-0.196,3.035-0.914,2.97-1.666
	c-0.065-0.781-0.392-1.338-3.199-1.108c-2.579,0.194-3.068,0.882-3.003,1.632C33.505,79.291,34.223,79.781,36.671,79.65
	L36.671,79.65z M34.909,82.359c2.872-0.719,2.84-1.403,2.644-2.153c-0.195-0.752-0.62-1.274-3.362-0.522
	c-2.513,0.652-2.839,1.403-2.644,2.123C31.742,82.557,32.525,82.947,34.909,82.359L34.909,82.359z M34.288,84.906
	c2.709-1.176,2.579-1.895,2.252-2.579c-0.327-0.687-0.816-1.144-3.428,0.065c-2.317,1.076-2.546,1.859-2.22,2.578
	C31.22,85.656,32.036,85.885,34.288,84.906L34.288,84.906z M34.517,87.518c2.448-1.633,2.187-2.285,1.73-2.904
	c-0.424-0.62-1.012-0.979-3.33,0.652c-2.122,1.469-2.187,2.284-1.763,2.905C31.612,88.79,32.46,88.889,34.517,87.518L34.517,87.518z
	 M35.137,90.193c2.154-2.057,1.763-2.645,1.241-3.198c-0.555-0.556-1.175-0.783-3.199,1.208c-1.828,1.828-1.763,2.645-1.208,3.199
	C32.525,91.925,33.374,91.893,35.137,90.193L35.137,90.193z M36.475,92.25c1.73-2.383,1.273-2.905,0.621-3.361
	c-0.621-0.424-1.273-0.556-2.906,1.762c-1.501,2.091-1.273,2.906-0.653,3.33C34.158,94.438,35.006,94.209,36.475,92.25L36.475,92.25
	z M38.205,93.752c1.306-2.645,0.751-3.068,0.033-3.395c-0.686-0.326-1.338-0.359-2.579,2.22c-1.077,2.35-0.75,3.101-0.032,3.427
	C36.312,96.298,37.096,95.973,38.205,93.752L38.205,93.752z M40.262,94.927c0.816-2.807,0.196-3.134-0.555-3.36
	c-0.75-0.196-1.403-0.1-2.154,2.644c-0.653,2.515-0.195,3.166,0.555,3.362C38.858,97.8,39.576,97.311,40.262,94.927L40.262,94.927z
	 M42.318,96.331c0.327-2.905-0.359-3.134-1.109-3.199c-0.783-0.065-1.404,0.132-1.665,2.972c-0.229,2.578,0.359,3.166,1.11,3.23
	C41.437,99.398,42.057,98.779,42.318,96.331L42.318,96.331z M55.701,13.648c0.49-0.033,0.686-0.327,0.882-0.653
	c0.392-0.653,0.457-1.338-1.991-2.775c-2.22-1.272-3.003-1.012-3.396-0.326c-0.26,0.424-0.228,0.914,0.426,1.566
	C53.938,11.624,55.212,12.604,55.701,13.648L55.701,13.648z M56.256,12.048c2.221,1.926,2.775,1.501,3.266,0.914
	c0.488-0.588,0.686-1.208-1.469-3.068c-1.992-1.665-2.809-1.502-3.298-0.914C54.266,9.567,54.396,10.416,56.256,12.048
	L56.256,12.048z M59.26,12.244c1.86,2.285,2.48,1.991,3.068,1.501c0.587-0.522,0.881-1.11-0.914-3.297
	c-1.665-1.991-2.48-1.958-3.068-1.469C57.759,9.469,57.727,10.318,59.26,12.244L59.26,12.244z M61.969,13.55
	c1.176,2.709,1.86,2.579,2.547,2.252c0.719-0.327,1.143-0.816-0.033-3.428c-1.076-2.317-1.893-2.546-2.578-2.219
	C61.219,10.481,60.957,11.297,61.969,13.55L61.969,13.55z M64.646,15.345c0.424,2.938,1.143,2.971,1.894,2.84
	c0.751-0.13,1.306-0.522,0.849-3.33c-0.457-2.513-1.175-2.938-1.926-2.807C64.711,12.179,64.254,12.93,64.646,15.345L64.646,15.345z
	 M66.343,18.185c-0.848,2.839-0.229,3.166,0.522,3.362c0.751,0.196,1.402,0.099,2.154-2.644c0.686-2.48,0.195-3.166-0.556-3.362
	C67.746,15.345,67.027,15.834,66.343,18.185L66.343,18.185z M66.896,21.58c-1.763,2.383-1.271,2.905-0.651,3.33
	c0.62,0.458,1.272,0.588,2.938-1.73c1.469-2.122,1.272-2.905,0.621-3.362C69.184,19.393,68.367,19.588,66.896,21.58L66.896,21.58z
	 M69.15,25.432c0.131-0.424,0-0.751-0.229-1.012c-0.489-0.587-1.338-0.587-3.265,0.947c-0.032,0-0.065,0.032-0.098,0.065H69.15
	L69.15,25.432z"/>
</svg>
