<?xml version="1.0" encoding="utf-8"?>
<!-- Generator: Adobe Illustrator 16.0.0, SVG Export Plug-In . SVG Version: 6.00 Build 0)  -->
<!DOCTYPE svg PUBLIC "-//W3C//DTD SVG 1.1//EN" "http://www.w3.org/Graphics/SVG/1.1/DTD/svg11.dtd">
<svg version="1.1" id="Layer_1" xmlns="http://www.w3.org/2000/svg" xmlns:xlink="http://www.w3.org/1999/xlink" x="0px" y="0px"
	 width="98.904px" height="74.385px" viewBox="0 0 98.904 74.385" enable-background="new 0 0 98.904 74.385" xml:space="preserve">
<path fill="#ED1C24" d="M59.28,0.01c-0.049-0.048-0.258,0.081-0.169,0.168C59.156,0.226,59.365,0.097,59.28,0.01z M63.642,3.031
	c0-0.091-0.169-0.189-0.169,0C63.473,3.124,63.642,3.223,63.642,3.031z M75.392,4.709c1.047,0.59,1.087-1.546,0.169-1.007
	C75.195,3.918,74.928,4.45,75.392,4.709z M57.431,4.709c0-0.092-0.169-0.189-0.169,0C57.262,4.802,57.431,4.901,57.431,4.709z
	 M61.292,5.213c0,0.083,0.271,0.403,0.337,0.335C61.712,5.465,61.292,4.534,61.292,5.213z M61.628,5.885
	c0.046,0.046,0.255-0.08,0.166-0.167C61.75,5.67,61.541,5.798,61.628,5.885z M62.467,6.053c0-0.092-0.169-0.188-0.169,0
	C62.298,6.147,62.467,6.245,62.467,6.053z M32.586,6.22c-0.045-0.045-0.254,0.083-0.167,0.167
	C32.466,6.436,32.674,6.307,32.586,6.22z M59.446,6.22C59.4,6.175,59.19,6.304,59.28,6.388C59.325,6.436,59.534,6.307,59.446,6.22z
	 M62.971,6.558c0-0.094-0.169-0.191-0.169,0C62.802,6.651,62.971,6.75,62.971,6.558z M77.742,7.228
	c-0.047-0.045-0.255,0.083-0.167,0.17C77.62,7.442,77.83,7.314,77.742,7.228z M67.839,7.565c-0.048-0.049-0.256,0.079-0.17,0.166
	C67.717,7.78,67.926,7.652,67.839,7.565z M27.552,9.745c-0.047-0.045-0.416,0.089-0.336,0.17C27.261,9.96,27.631,9.826,27.552,9.745
	z M62.802,10.25c0-0.094-0.168-0.19-0.168,0C62.634,10.343,62.802,10.442,62.802,10.25z M74.384,10.25
	c-0.045-0.046-0.255,0.08-0.166,0.167C74.264,10.466,74.472,10.337,74.384,10.25z M29.901,10.585
	c-0.045-0.046-0.254,0.083-0.167,0.17C29.78,10.8,29.988,10.671,29.901,10.585z M41.82,11.09c-0.046-0.046-0.254,0.08-0.167,0.167
	C41.699,11.305,41.907,11.177,41.82,11.09z M71.7,11.256c-0.188,0.018-0.263-0.243-0.337,0C71.367,11.426,71.658,11.468,71.7,11.256
	z M29.901,11.424c0.048,0.049,0.254-0.08,0.168-0.167C30.023,11.211,29.814,11.339,29.901,11.424z M64.985,11.594
	c-0.047-0.048-0.255,0.081-0.168,0.168C64.865,11.807,65.071,11.681,64.985,11.594z M27.383,11.762
	c-0.046-0.047-0.254,0.081-0.167,0.167C27.263,11.977,27.47,11.848,27.383,11.762z M82.947,11.762
	c-0.046-0.047-0.414,0.089-0.336,0.167C82.657,11.977,83.027,11.84,82.947,11.762z M63.642,12.097
	c0.047,0.047,0.255-0.081,0.169-0.167C63.764,11.883,63.557,12.009,63.642,12.097z M80.26,13.44c1.079-0.061-0.574-0.239-0.334,0
	C79.956,13.471,80.212,13.442,80.26,13.44z M85.297,13.942c-0.003-0.169-0.295-0.208-0.336,0
	C85.149,13.927,85.222,14.188,85.297,13.942z M27.216,13.942c-0.045-0.045-0.254,0.083-0.167,0.169
	C27.094,14.158,27.303,14.029,27.216,13.942z M72.706,14.28c0-0.094-0.166-0.192-0.166,0C72.54,14.373,72.706,14.468,72.706,14.28z
	 M55.753,14.615c0-0.094-0.169-0.189-0.169,0C55.584,14.707,55.753,14.806,55.753,14.615z M62.802,14.447
	c-0.047-0.047-0.254,0.081-0.168,0.167C62.681,14.662,62.891,14.534,62.802,14.447z M62.971,14.951c0-0.093-0.169-0.192-0.169,0
	C62.802,15.045,62.971,15.14,62.971,14.951z M37.959,15.286c-0.002-0.17-0.294-0.211-0.336,0
	C37.659,15.491,37.81,15.388,37.959,15.286z M45.177,17.804c1.397-0.086,1.103-2.753-0.503-2.014c-0.261,0.12-0.379,0.1-0.504,0.335
	c-0.095,0.181-0.175,0.798-0.168,0.839C44.051,17.228,44.711,17.833,45.177,17.804z M46.184,15.791c-0.015,0.015,0,0.144,0,0.167
	C46.184,16.821,46.789,15.186,46.184,15.791z M60.453,15.958c-0.188,0.257,0.024,0.75,0.168,0.671
	C60.825,16.514,60.833,15.436,60.453,15.958z M21.507,15.958c-0.045-0.047-0.254,0.081-0.167,0.167
	C21.387,16.173,21.595,16.045,21.507,15.958z M90.5,16.125c0-0.094-0.167-0.189-0.167,0C90.333,16.22,90.5,16.317,90.5,16.125z
	 M22.852,16.125c-0.047-0.045-0.254,0.081-0.168,0.167C22.73,16.34,22.938,16.212,22.852,16.125z M47.191,16.125
	c-0.046-0.045-0.254,0.081-0.168,0.167C47.07,16.34,47.279,16.212,47.191,16.125z M65.992,16.293c0-0.094-0.168-0.189-0.168,0
	C65.824,16.386,65.992,16.484,65.992,16.293z M50.548,16.965c0.027-0.118-0.06-0.976-0.168-0.504
	C50.232,17.1,50.47,17.302,50.548,16.965z M56.255,16.461c0-0.092-0.167-0.189-0.167,0C56.088,16.554,56.255,16.652,56.255,16.461z
	 M72.54,16.293c-0.047-0.046-0.255,0.082-0.168,0.168C72.418,16.508,72.625,16.38,72.54,16.293z M65.824,16.797
	c-0.048-0.047-0.256,0.081-0.167,0.168C65.704,17.013,65.911,16.884,65.824,16.797z M22.852,16.965
	c-0.047-0.045-0.254,0.081-0.168,0.167C22.73,17.18,22.938,17.051,22.852,16.965z M85.297,17.3c-0.023,0.024-0.28,0.03-0.169,0.169
	C85.369,17.768,85.977,16.621,85.297,17.3z M63.977,18.14C64.493,16.985,63.145,17.817,63.977,18.14L63.977,18.14z M20.5,17.972
	c0.047,0.047,0.255-0.082,0.168-0.168C20.623,17.759,20.414,17.885,20.5,17.972z M57.767,18.308
	c0.046-0.228-0.104-0.656-0.167-0.336C57.554,18.2,57.704,18.628,57.767,18.308z M34.77,18.308c-0.035,0.033-0.376,0.463-0.168,0.67
	C35.29,19.668,35.38,17.697,34.77,18.308z M67.839,18.308c-0.048-0.048-0.256,0.081-0.17,0.168
	C67.717,18.522,67.926,18.396,67.839,18.308z M46.353,18.476c-0.047-0.048-0.256,0.081-0.169,0.167
	C46.231,18.691,46.439,18.563,46.353,18.476z M31.077,18.811c0-0.094-0.168-0.191-0.168,0
	C30.908,18.905,31.077,19.002,31.077,18.811z M67.839,18.811c0,0.094,0.168,0.191,0.168,0C68.007,18.717,67.839,18.62,67.839,18.811
	z M60.117,18.979c-0.048-0.046-0.414,0.089-0.337,0.17C59.829,19.194,60.196,19.06,60.117,18.979z M69.348,19.818
	c0-0.092-0.166-0.189-0.166,0C69.182,19.912,69.348,20.009,69.348,19.818z M55.416,20.322c-0.045-0.045-0.254,0.081-0.166,0.167
	C55.294,20.536,55.504,20.409,55.416,20.322z M52.732,20.657c0-0.091-0.168-0.189-0.168,0
	C52.564,20.751,52.732,20.849,52.732,20.657z M61.794,20.657c-0.045-0.045-0.254,0.082-0.166,0.17
	C61.674,20.873,61.883,20.744,61.794,20.657z M22.18,20.827c-0.045-0.049-0.254,0.08-0.167,0.167
	C22.058,21.04,22.267,20.914,22.18,20.827z M72.205,21.329c-0.05-0.045-0.255,0.083-0.169,0.168
	C72.083,21.542,72.291,21.416,72.205,21.329z M80.932,22.168c-0.094,0.093-0.006,0.341,0.168,0.167
	C81.194,22.244,81.106,21.995,80.932,22.168z M63.305,22.503c0-0.092-0.167-0.189-0.167,0
	C63.138,22.598,63.305,22.695,63.305,22.503z M63.642,22.503c0.047,0.047,0.255-0.081,0.169-0.167
	C63.764,22.291,63.557,22.419,63.642,22.503z M55.92,22.84c0.023-0.176-0.129-0.434-0.167-0.167
	C55.727,22.847,55.881,23.106,55.92,22.84z M64.146,22.503c-0.048-0.045-0.255,0.082-0.169,0.17
	C64.025,22.718,64.232,22.593,64.146,22.503z M48.702,22.84c0.188-0.017,0.26,0.244,0.336,0
	C49.037,22.671,48.745,22.629,48.702,22.84z M79.926,23.007c0.045,0.049,0.254-0.08,0.167-0.167
	C80.047,22.795,79.838,22.921,79.926,23.007z M63.138,23.175c0-0.092-0.167-0.189-0.167,0
	C62.971,23.269,63.138,23.366,63.138,23.175z M33.594,23.513c-0.046-0.049-0.255,0.08-0.168,0.167
	C33.474,23.728,33.681,23.6,33.594,23.513z M59.614,23.68C59.103,24.245,60.234,24.189,59.614,23.68L59.614,23.68z M24.026,24.182
	c0-0.091-0.167-0.188-0.167,0C23.858,24.278,24.026,24.374,24.026,24.182z M31.245,24.014c-0.049-0.045-0.257,0.083-0.168,0.167
	C31.123,24.23,31.333,24.101,31.245,24.014z M79.086,24.182c0-0.091-0.169-0.188-0.169,0C78.917,24.278,79.086,24.374,79.086,24.182
	z M59.28,24.352c0,0.093,0.166,0.189,0.166,0C59.446,24.258,59.28,24.161,59.28,24.352z M62.971,24.52
	c0.094-0.094,0.005-0.342-0.169-0.167C62.71,24.443,62.796,24.693,62.971,24.52z M68.173,24.352c0.048,0.045,0.255-0.081,0.169-0.17
	C68.296,24.137,68.088,24.265,68.173,24.352z M88.821,25.189c0.571,0.32,0.896-1.101,0.17-0.669c-0.069,0.041-0.28-0.057-0.336,0
	C88.516,24.66,88.781,25.167,88.821,25.189z M24.026,24.686c0.049,0.046,0.255-0.08,0.168-0.167
	C24.147,24.473,23.94,24.599,24.026,24.686z M37.456,25.189c0.191-0.191-0.277-0.787-0.335-0.335
	C37.107,24.945,37.399,25.248,37.456,25.189z M72.54,24.854c0.046,0.046,0.254-0.08,0.166-0.167
	C72.66,24.641,72.451,24.769,72.54,24.854z M98.893,24.854c-0.045-0.045-0.414,0.089-0.334,0.17
	C98.604,25.069,98.974,24.932,98.893,24.854z M57.431,25.023c-0.047-0.047-0.256,0.081-0.169,0.166
	C57.31,25.236,57.517,25.11,57.431,25.023z M66.663,25.189c0-0.091-0.167-0.189-0.167,0C66.496,25.284,66.663,25.38,66.663,25.189z
	 M24.698,25.189c-0.046-0.045-0.255,0.082-0.168,0.17C24.576,25.404,24.785,25.278,24.698,25.189z M25.873,25.189
	c-0.046-0.045-0.415,0.089-0.335,0.17C25.583,25.404,25.953,25.27,25.873,25.189z M28.223,25.861
	c0.093-0.092,0.006-0.341-0.168-0.168C27.961,25.787,28.049,26.036,28.223,25.861z M77.742,25.693
	c-0.047-0.045-0.255,0.083-0.167,0.168C77.62,25.908,77.83,25.78,77.742,25.693z M98.054,25.693c-0.019,0.007,0.016,0.152,0,0.168
	c0,0-0.294,0.435,0,0.337C98.136,26.17,98.288,25.617,98.054,25.693z M62.131,26.028c0-0.092-0.168-0.189-0.168,0
	C61.963,26.125,62.131,26.22,62.131,26.028z M64.481,25.861c-0.014,0.018,0,0.146,0,0.167
	C64.481,26.894,65.084,25.259,64.481,25.861z M34.77,26.198c-0.047-0.046-0.254,0.08-0.168,0.167
	C34.648,26.411,34.857,26.285,34.77,26.198z M70.86,26.366c0-0.094-0.169-0.191-0.169,0C70.691,26.459,70.86,26.557,70.86,26.366z
	 M69.013,26.366c-0.046-0.046-0.254,0.082-0.167,0.167C68.891,26.579,69.101,26.453,69.013,26.366z M8.918,26.532
	c-0.047-0.045-0.256,0.083-0.168,0.17C8.797,26.747,9.006,26.62,8.918,26.532z M47.191,26.702c0.048,0.045,0.255-0.082,0.168-0.17
	C47.314,26.487,47.104,26.615,47.191,26.702z M94.195,26.532c-0.049-0.045-0.255,0.083-0.169,0.17
	C94.073,26.747,94.28,26.62,94.195,26.532z M69.852,27.539C70.825,26.652,69.249,26.737,69.852,27.539L69.852,27.539z
	 M25.201,27.038c-0.048-0.046-0.255,0.08-0.167,0.167C25.08,27.25,25.288,27.125,25.201,27.038z M72.706,27.205
	c-0.046-0.046-0.255,0.08-0.166,0.167C72.585,27.418,72.793,27.292,72.706,27.205z M58.438,27.539c0-0.092-0.166-0.189-0.166,0
	C58.272,27.636,58.438,27.73,58.438,27.539z M87.311,27.372c-0.014,0.016,0,0.146,0,0.167C87.311,28.402,87.915,26.77,87.311,27.372
	z M36.783,27.707c0.001,0.013,0.285-0.05,0.168-0.167c-0.095-0.092-0.324,0.118-0.335,0.167c-0.025,0.118-0.069,0.755,0,0.84
	C36.76,28.727,36.792,27.833,36.783,27.707z M55.25,27.707c-0.048-0.045-0.254,0.083-0.169,0.17
	C55.127,27.924,55.336,27.796,55.25,27.707z M8.248,28.044c-0.024,0.023-0.28,0.03-0.169,0.167
	C8.318,28.512,8.926,27.365,8.248,28.044z M46.856,28.044c0.045,0.045,0.255-0.081,0.167-0.168
	C46.978,27.831,46.769,27.958,46.856,28.044z M61.963,28.716c0.226,0.028,0.53-1.203,0-0.671
	C61.79,28.218,61.581,28.668,61.963,28.716z M73.545,27.876c-0.045-0.046-0.255,0.081-0.167,0.168
	C73.425,28.09,73.632,27.963,73.545,27.876z M50.214,28.378c0.091-0.09,0.005-0.341-0.169-0.167
	C49.952,28.305,50.04,28.553,50.214,28.378z M50.548,28.044c-0.045-0.046-0.254,0.08-0.168,0.167
	C50.428,28.257,50.634,28.131,50.548,28.044z M52.732,28.212c0-0.091-0.168-0.19-0.168,0C52.564,28.305,52.732,28.402,52.732,28.212
	z M63.305,28.212c-0.046-0.046-0.414,0.089-0.334,0.167C63.016,28.427,63.385,28.292,63.305,28.212z M69.686,28.212
	c-0.045-0.046-0.254,0.082-0.169,0.167C69.564,28.427,69.773,28.299,69.686,28.212z M5.897,28.884
	c-0.02,0.102,0.349,0.491,0.503,0.334C6.702,28.918,5.994,28.37,5.897,28.884z M28.727,28.884c-0.188,0.017-0.262-0.244-0.337,0
	C28.393,29.053,28.686,29.094,28.727,28.884z M29.566,28.884c0.046,0.045,0.254-0.081,0.167-0.168
	C29.687,28.669,29.479,28.797,29.566,28.884z M49.71,28.716c-0.047-0.046-0.255,0.081-0.168,0.168
	C49.588,28.929,49.796,28.803,49.71,28.716z M64.817,28.884c0.035,0.202,0.188,0.102,0.337,0
	C65.151,28.714,64.859,28.672,64.817,28.884z M26.209,29.051c-0.048-0.046-0.255,0.082-0.169,0.167
	C26.087,29.267,26.296,29.138,26.209,29.051z M54.914,29.051c-0.047-0.046-0.256,0.082-0.169,0.167
	C54.792,29.267,55,29.138,54.914,29.051z M29.566,29.218c-0.047-0.045-0.256,0.083-0.168,0.17
	C29.445,29.434,29.653,29.307,29.566,29.218z M38.967,29.388c-0.047-0.048-0.254,0.081-0.167,0.168
	C38.845,29.601,39.054,29.475,38.967,29.388z M36.616,29.556c-0.047-0.045-0.255,0.081-0.167,0.167
	C36.494,29.768,36.703,29.642,36.616,29.556z M82.778,29.556c-0.045-0.045-0.415,0.086-0.334,0.167
	C82.489,29.768,82.858,29.636,82.778,29.556z M45.514,29.723c-0.047-0.047-0.256,0.08-0.169,0.167
	C45.392,29.936,45.601,29.81,45.514,29.723z M67.669,29.891c0.048,0.045,0.257-0.081,0.17-0.167
	C67.792,29.676,67.583,29.803,67.669,29.891z M68.846,29.891c-0.047-0.046-0.254,0.082-0.167,0.167
	C68.724,30.105,68.934,29.978,68.846,29.891z M67.334,30.057c-0.045-0.045-0.255,0.083-0.166,0.167
	C67.213,30.273,67.422,30.145,67.334,30.057z M72.54,30.225c0.046,0.049,0.414-0.087,0.335-0.167
	C72.828,30.012,72.46,30.146,72.54,30.225z M4.385,30.395c0.047,0.045,0.254-0.081,0.168-0.17
	C4.507,30.18,4.299,30.308,4.385,30.395z M8.75,30.73c-0.057,0.108,0.076,0.171,0.168,0.167C9.437,30.873,9.041,30.188,8.75,30.73z
	 M30.908,30.73c0-0.092-0.167-0.189-0.167,0C30.741,30.823,30.908,30.921,30.908,30.73z M36.449,30.562
	c-0.048-0.046-0.255,0.082-0.17,0.168C36.327,30.775,36.536,30.649,36.449,30.562z M52.059,30.562
	c-0.045-0.046-0.255,0.082-0.167,0.168C51.937,30.775,52.146,30.649,52.059,30.562z M70.86,30.562
	c-0.046-0.046-0.254,0.082-0.169,0.168C70.739,30.775,70.946,30.649,70.86,30.562z M75.223,30.73
	c0.049,0.045,0.257-0.081,0.169-0.168C75.346,30.516,75.137,30.644,75.223,30.73z M60.956,31.064
	c0.047,0.048,0.256-0.077,0.169-0.167C61.077,30.851,60.871,30.979,60.956,31.064z M23.187,31.234c-0.007,0.04-0.024,0.309,0,0.335
	C23.773,32.156,23.362,30.355,23.187,31.234z M72.036,31.234c0,0.094,0.169,0.191,0.169,0C72.205,31.14,72.036,31.042,72.036,31.234
	z M76.063,31.234c-0.092,0.094-0.004,0.341,0.168,0.167C76.324,31.308,76.238,31.06,76.063,31.234z M21.34,31.234
	c-0.045-0.045-0.255,0.081-0.167,0.167C21.218,31.447,21.427,31.321,21.34,31.234z M30.908,31.401c0,0.094,0.168,0.191,0.168,0
	C31.077,31.308,30.908,31.21,30.908,31.401z M54.41,31.234c-0.048-0.045-0.255,0.081-0.167,0.167
	C54.289,31.447,54.498,31.321,54.41,31.234z M70.691,31.401c0,0.094,0.169,0.191,0.169,0C70.86,31.308,70.691,31.21,70.691,31.401z
	 M71.7,31.401c0.047,0.045,0.255-0.081,0.167-0.167C71.821,31.189,71.612,31.314,71.7,31.401z M85.967,32.241
	c0.175-0.173-0.154-1.584-0.335-0.839C85.614,31.48,85.879,32.328,85.967,32.241z M70.525,31.401
	c-0.047-0.046-0.254,0.081-0.168,0.167C70.404,31.614,70.612,31.488,70.525,31.401z M79.253,31.401
	c-0.046-0.046-0.416,0.089-0.336,0.167C78.965,31.614,79.333,31.48,79.253,31.401z M90.333,31.569
	c-0.411,0.413,0.02,0.73,0.336,0.672C91.312,32.121,91.002,30.898,90.333,31.569z M45.681,31.903
	c-0.046-0.045-0.254,0.083-0.167,0.17C45.56,32.12,45.768,31.992,45.681,31.903z M58.438,32.073
	c-0.079,0.081-0.192-0.032-0.166,0.167C58.365,33.001,59.232,31.279,58.438,32.073z M31.747,32.409
	c0.025-0.176-0.128-0.433-0.167-0.168C31.555,32.417,31.71,32.673,31.747,32.409z M38.462,32.073
	c-0.046-0.045-0.414,0.086-0.335,0.167C38.173,32.286,38.542,32.154,38.462,32.073z M41.652,32.073
	c-0.047-0.045-0.254,0.081-0.167,0.167C41.53,32.286,41.739,32.16,41.652,32.073z M38.967,32.241
	c-0.047-0.045-0.416,0.089-0.337,0.168C38.678,32.454,39.045,32.319,38.967,32.241z M44.674,32.409
	c0.047,0.045,0.254-0.081,0.167-0.168C44.795,32.196,44.587,32.323,44.674,32.409z M35.442,32.409
	c-0.048-0.047-0.255,0.081-0.168,0.167C35.32,32.624,35.528,32.495,35.442,32.409z M39.301,32.409
	c-0.045-0.047-0.254,0.081-0.167,0.167C39.181,32.624,39.389,32.495,39.301,32.409z M82.611,32.409
	c-0.045-0.047-0.255,0.081-0.167,0.167C82.489,32.624,82.698,32.495,82.611,32.409z M38.127,32.744c0.002,0.169,0.293,0.213,0.335,0
	C38.274,32.763,38.201,32.5,38.127,32.744z M69.348,32.576c-0.045-0.046-0.254,0.082-0.166,0.167
	C69.227,32.792,69.437,32.665,69.348,32.576z M31.245,32.744c-0.049-0.046-0.257,0.082-0.168,0.169
	C31.123,32.959,31.333,32.833,31.245,32.744z M46.688,33.248c0.181,0.032,0.562-0.242,0.334-0.504
	C46.9,32.6,45.98,33.124,46.688,33.248z M15.632,32.913c-0.045-0.048-0.254,0.081-0.167,0.167
	C15.513,33.125,15.719,33,15.632,32.913z M23.858,33.248c-0.046-0.047-0.254,0.081-0.167,0.167
	C23.736,33.463,23.945,33.334,23.858,33.248z M38.967,33.416c0.045,0.047,0.254-0.081,0.167-0.167
	C39.087,33.201,38.88,33.329,38.967,33.416z M59.95,33.416c0,0.093,0.167,0.191,0.167,0C60.117,33.324,59.95,33.227,59.95,33.416z
	 M24.865,33.416c-0.046-0.047-0.255,0.082-0.167,0.167C24.743,33.63,24.952,33.505,24.865,33.416z M48.535,33.583
	c0.045,0.047,0.254-0.078,0.167-0.167C48.657,33.369,48.448,33.498,48.535,33.583z M54.914,33.583
	c0.045,0.047,0.255-0.078,0.167-0.167C55.034,33.369,54.827,33.498,54.914,33.583z M5.393,33.583
	c-0.046-0.046-0.416,0.089-0.335,0.169C5.104,33.798,5.473,33.663,5.393,33.583z M12.612,33.583c-0.016,0.014,0,0.145,0,0.169
	C12.612,34.615,13.216,32.98,12.612,33.583z M33.931,33.919c0.722,0.542,0.628-0.965,0-0.336c-0.015,0.014,0,0.145,0,0.169
	C33.931,33.77,33.917,33.911,33.931,33.919z M54.745,33.583c-0.046-0.046-0.254,0.082-0.168,0.169
	C54.624,33.798,54.833,33.672,54.745,33.583z M16.976,33.752c-0.015,0.013,0,0.146,0,0.167
	C16.976,34.782,17.58,33.148,16.976,33.752z M55.416,33.919c0.047,0.046,0.255-0.081,0.169-0.167
	C55.538,33.707,55.331,33.833,55.416,33.919z M96.881,33.919c0.045,0.046,0.254-0.081,0.166-0.167
	C97.002,33.707,96.792,33.833,96.881,33.919z M60.285,34.087c0.045,0.045,0.417-0.089,0.336-0.167
	C60.576,33.875,60.204,34.009,60.285,34.087z M63.642,34.254c0.036,0.205,0.187,0.104,0.335,0
	C63.974,34.084,63.684,34.043,63.642,34.254z M48.535,34.422C47.637,34.079,47.998,35.013,48.535,34.422L48.535,34.422z
	 M53.403,34.254c-0.049-0.046-0.256,0.082-0.169,0.168C53.281,34.47,53.49,34.344,53.403,34.254z M66.161,34.422
	c0-0.092-0.169-0.19-0.169,0C65.992,34.515,66.161,34.613,66.161,34.422z M40.645,34.422c-0.046-0.046-0.415,0.089-0.337,0.168
	C40.357,34.637,40.724,34.502,40.645,34.422z M75.223,34.422c-0.045-0.046-0.255,0.082-0.166,0.168
	C75.103,34.637,75.311,34.509,75.223,34.422z M80.766,34.591c0.045,0.046,0.254-0.082,0.166-0.168
	C80.887,34.376,80.677,34.504,80.766,34.591z M51.725,34.591c-0.049-0.047-0.257,0.081-0.169,0.168
	C51.602,34.805,51.811,34.678,51.725,34.591z M55.753,35.094c0,0.863,0.603-0.77,0-0.167C55.74,34.942,55.753,35.07,55.753,35.094z
	 M58.272,35.598c0.284-0.284-0.341-1.052-0.505-0.504C57.699,35.32,58.035,35.833,58.272,35.598z M72.205,34.926
	c-0.05-0.045-0.255,0.081-0.169,0.167C72.083,35.142,72.291,35.013,72.205,34.926z M53.067,35.094
	c-0.046-0.046-0.255,0.082-0.169,0.167C52.945,35.309,53.152,35.183,53.067,35.094z M62.634,35.094
	c-0.046-0.046-0.413,0.089-0.336,0.167C62.346,35.309,62.715,35.175,62.634,35.094z M27.383,35.43
	c0.047,0.047,0.416-0.089,0.336-0.169C27.673,35.215,27.304,35.351,27.383,35.43z M53.403,35.43
	c-0.025,0.177,0.131,0.433,0.168,0.167C53.595,35.422,53.44,35.163,53.403,35.43z M23.187,35.598
	c-0.092,0.094-0.006,0.341,0.168,0.168C23.447,35.674,23.36,35.425,23.187,35.598z M40.141,35.598
	c-0.045-0.045-0.254,0.082-0.167,0.168C40.021,35.811,40.228,35.685,40.141,35.598z M71.196,36.101
	c0.131-0.129-0.292-0.813-0.336-0.335C70.851,35.866,70.993,36.305,71.196,36.101z M34.602,35.933
	c-0.047-0.046-0.415,0.089-0.335,0.168C34.312,36.148,34.681,36.014,34.602,35.933z M77.24,35.933
	c-0.048-0.046-0.255,0.083-0.17,0.168C77.118,36.148,77.326,36.022,77.24,35.933z M69.686,36.27
	c-0.045-0.048-0.254,0.081-0.169,0.167C69.564,36.484,69.773,36.355,69.686,36.27z M70.86,36.438
	C71.426,36.946,71.369,35.818,70.86,36.438L70.86,36.438z M41.485,36.438c-0.015,0.015,0,0.146,0,0.167
	C41.485,37.468,42.088,35.833,41.485,36.438z M70.189,36.605c0.046,0.046,0.255-0.081,0.168-0.167
	C70.309,36.39,70.101,36.518,70.189,36.605z M34.098,36.772c0.047,0.047,0.254-0.081,0.168-0.167
	C34.22,36.56,34.011,36.686,34.098,36.772z M95.705,36.605c-0.046-0.045-0.255,0.081-0.168,0.167
	C95.583,36.82,95.791,36.692,95.705,36.605z M36.616,36.94c0.188-0.016,0.261,0.246,0.335,0
	C36.95,36.772,36.658,36.729,36.616,36.94z M37.959,36.94c0.047,0.047,0.255-0.081,0.168-0.168
	C38.081,36.727,37.873,36.854,37.959,36.94z M52.732,36.94c0.045,0.047,0.254-0.081,0.166-0.168
	C52.853,36.727,52.643,36.854,52.732,36.94z M88.151,36.772c-0.086-0.084-0.588,0.082-0.504,0.168
	C87.732,37.027,88.236,36.857,88.151,36.772z M65.824,36.94c-0.048-0.047-0.256,0.082-0.167,0.168
	C65.704,37.155,65.911,37.029,65.824,36.94z M83.954,37.95C84.058,36.103,83.216,37.327,83.954,37.95L83.954,37.95z M31.413,37.95
	c0,0.09,0.167,0.191,0.167,0C31.58,37.854,31.413,37.758,31.413,37.95z M69.013,38.116c0.047,0.046,0.255-0.082,0.169-0.166
	C69.135,37.901,68.928,38.028,69.013,38.116z M27.552,38.284c-0.06-0.178-0.301-0.034-0.336,0
	C26.865,38.634,27.674,38.651,27.552,38.284z M55.081,38.284C54.517,37.772,54.573,38.903,55.081,38.284L55.081,38.284z
	 M83.954,38.116c-0.026,0.588,0.045,1.074,0.335,1.342C84.274,38.915,84.204,38.428,83.954,38.116z M39.134,38.451
	c0.046,0.049,0.254-0.08,0.167-0.167C39.256,38.239,39.047,38.365,39.134,38.451z M50.214,38.619
	c0.045,0.047,0.254-0.08,0.166-0.168C50.335,38.406,50.126,38.535,50.214,38.619z M7.071,38.789c0.049,0.045,0.256-0.08,0.17-0.17
	C7.193,38.574,6.984,38.701,7.071,38.789z M21.173,38.789C21.851,39.377,21.569,38.247,21.173,38.789L21.173,38.789z M22.852,38.619
	c-0.047-0.045-0.254,0.082-0.168,0.17C22.73,38.833,22.938,38.708,22.852,38.619z M43.666,38.619
	c-0.045-0.045-0.254,0.082-0.167,0.17C43.544,38.833,43.753,38.708,43.666,38.619z M50.884,38.789c0-0.095-0.168-0.19-0.168,0
	C50.716,38.879,50.884,38.979,50.884,38.789z M51.725,38.619c-0.049-0.045-0.257,0.082-0.169,0.17
	C51.602,38.833,51.811,38.708,51.725,38.619z M54.41,38.955c0.045,0.047,0.255-0.081,0.167-0.166
	C54.532,38.74,54.323,38.869,54.41,38.955z M78.414,38.789c-0.045-0.049-0.254,0.08-0.167,0.166
	C78.293,39.001,78.501,38.874,78.414,38.789z M54.745,39.123c0,0.095,0.169,0.19,0.169,0C54.914,39.03,54.745,38.935,54.745,39.123z
	 M22.684,39.291c-0.188,0.019-0.261-0.243-0.337,0C22.349,39.46,22.642,39.501,22.684,39.291z M23.187,39.123
	c-0.046-0.045-0.254,0.081-0.167,0.168C23.065,39.337,23.274,39.209,23.187,39.123z M28.727,39.291
	c0.045,0.047,0.254-0.081,0.167-0.168C28.849,39.078,28.64,39.204,28.727,39.291z M34.938,39.291
	c0.047,0.047,0.254-0.081,0.167-0.168C35.06,39.078,34.851,39.204,34.938,39.291z M51.725,39.291
	c-0.095,0.094-0.007,0.341,0.167,0.167C51.985,39.367,51.897,39.117,51.725,39.291z M77.24,39.291
	c-0.048-0.045-0.255,0.083-0.17,0.167C77.118,39.505,77.326,39.377,77.24,39.291z M16.473,39.627c0,0.093,0.167,0.188,0.167,0
	C16.64,39.535,16.473,39.437,16.473,39.627z M28.558,39.627c0,0.093,0.169,0.188,0.169,0C28.727,39.535,28.558,39.437,28.558,39.627
	z M53.403,39.458c-0.049-0.045-0.256,0.084-0.169,0.17C53.281,39.672,53.49,39.545,53.403,39.458z M80.597,39.458
	c-0.047-0.045-0.255,0.084-0.168,0.17C80.476,39.672,80.683,39.545,80.597,39.458z M8.415,40.129
	c-0.147,0.478,0.187,1.033,0.309,1.156c-0.386-0.336-0.383,0.764,0.026,0.354c0.013-0.012,0.013-0.32,0-0.334
	c0.87,0.445,1.329-0.379,1.344-0.506C10.244,39.558,8.614,39.485,8.415,40.129z M21.507,39.795c0.031,0.03,0.289,0.001,0.336,0
	C22.921,39.733,21.269,39.556,21.507,39.795z M12.947,39.795c-0.015,0.015,0,0.144,0,0.166
	C12.947,40.827,13.551,39.19,12.947,39.795z M47.695,39.795c-0.045-0.049-0.416,0.09-0.336,0.166
	C47.406,40.008,47.775,39.873,47.695,39.795z M83.284,39.961c0-0.092-0.169-0.188-0.169,0
	C83.115,40.056,83.284,40.151,83.284,39.961z M85.801,39.795c-0.048-0.049-0.256,0.08-0.169,0.166
	C85.68,40.008,85.887,39.882,85.801,39.795z M14.122,39.961c-0.047-0.045-0.254,0.082-0.169,0.168
	C14.001,40.176,14.209,40.05,14.122,39.961z M28.558,40.129c0-0.093-0.168-0.188-0.168,0C28.39,40.224,28.558,40.321,28.558,40.129z
	 M66.161,39.961c-0.045-0.045-0.414,0.09-0.337,0.168C65.87,40.176,66.238,40.041,66.161,39.961z M21.173,40.297
	c0.045,0.048,0.254-0.081,0.167-0.168C21.295,40.084,21.085,40.213,21.173,40.297z M32.755,40.467
	c0.047,0.046,0.255-0.083,0.168-0.17C32.876,40.252,32.668,40.38,32.755,40.467z M44.337,40.634
	c-0.045-0.048-0.254,0.08-0.167,0.167C44.216,40.849,44.424,40.722,44.337,40.634z M46.52,40.968
	c0.046,0.051,0.255-0.078,0.168-0.167C46.642,40.756,46.434,40.882,46.52,40.968z M49.71,40.968
	c0.047,0.051,0.255-0.078,0.167-0.167C49.831,40.756,49.623,40.882,49.71,40.968z M80.26,40.968
	c0.047,0.051,0.256-0.078,0.169-0.167C80.382,40.756,80.173,40.882,80.26,40.968z M82.611,41.136
	c0.047,0.049,0.255-0.08,0.167-0.168C82.733,40.923,82.524,41.052,82.611,41.136z M0.189,41.306
	C1.495,41.845,0.708,40.867,0.189,41.306L0.189,41.306z M82.275,41.306c-0.26-0.082-0.399,0.129-0.504,0.168
	c-0.215,0.08-0.58,0.129-0.671,0.336c-0.521,1.176,1.156,1.696,1.678,1.176C83.494,42.269,82.691,41.437,82.275,41.306z
	 M89.829,41.474c-0.028,0.027-0.304,0.168-0.169,0.336C89.982,42.203,90.394,40.909,89.829,41.474z M13.786,41.474
	c-0.045-0.047-0.254,0.08-0.167,0.168C13.665,41.687,13.873,41.562,13.786,41.474z M27.552,41.642
	c0.046,0.045,0.414-0.091,0.335-0.168C27.841,41.427,27.473,41.563,27.552,41.642z M44.337,41.642
	C44.162,42.615,45.065,41.71,44.337,41.642L44.337,41.642z M45.514,41.81c0.046,0.045,0.254-0.08,0.167-0.168
	C45.635,41.595,45.426,41.722,45.514,41.81z M79.589,42.146c0.084-0.084-0.336-1.018-0.336-0.336
	C79.253,41.892,79.525,42.208,79.589,42.146z M8.75,41.976c-0.292,0.014-0.522-0.037-0.671-0.166
	C7.81,42.278,8.804,42.274,8.75,41.976z M92.85,41.976C93.703,42.435,93.476,41.392,92.85,41.976L92.85,41.976z M0.021,42.146
	c0.047,0.045,0.254-0.082,0.168-0.17C0.143,41.931-0.065,42.06,0.021,42.146z M5.897,42.146c0.045,0.271-1.193-0.64-0.839,0
	C5.214,42.427,5.947,42.438,5.897,42.146z M3.713,42.313c0.048,0.045,0.256-0.084,0.169-0.168
	C3.835,42.099,3.627,42.224,3.713,42.313z M13.283,42.313c-0.046-0.049-0.414,0.09-0.337,0.168
	C12.993,42.526,13.362,42.392,13.283,42.313z M47.191,42.481c0,0.093,0.168,0.188,0.168,0
	C47.359,42.388,47.191,42.291,47.191,42.481z M63.473,42.481c0.048,0.045,0.257-0.082,0.169-0.168
	C63.595,42.265,63.388,42.394,63.473,42.481z M85.967,42.647c-0.188,0.018-0.26-0.242-0.335,0
	C85.634,42.817,85.927,42.858,85.967,42.647z M52.227,42.815c0.048,0.047,0.255-0.08,0.168-0.168
	C52.349,42.603,52.14,42.731,52.227,42.815z M94.53,42.815c-0.046-0.045-0.255,0.082-0.168,0.17
	C94.409,43.031,94.616,42.901,94.53,42.815z M43.331,42.985c-0.046-0.047-0.254,0.08-0.167,0.168
	C43.209,43.198,43.418,43.069,43.331,42.985z M29.566,43.487c0.003,0.018-1.001-0.649-0.839-0.166
	C28.831,43.635,29.635,43.806,29.566,43.487z M49.542,43.487c0,0.094,0.168,0.19,0.168,0C49.71,43.394,49.542,43.295,49.542,43.487z
	 M68.846,43.487c0.045,0.047,0.416-0.09,0.336-0.166C69.135,43.274,68.765,43.41,68.846,43.487z M69.852,43.321
	C68.99,43.728,70.431,43.753,69.852,43.321L69.852,43.321z M75.729,43.487c0.046,0.047,0.254-0.08,0.167-0.166
	C75.851,43.274,75.642,43.399,75.729,43.487z M57.262,43.487c-0.045-0.045-0.254,0.082-0.167,0.168
	C57.141,43.704,57.35,43.575,57.262,43.487z M62.467,43.487c-0.047-0.045-0.255,0.082-0.169,0.168
	C62.346,43.704,62.553,43.575,62.467,43.487z M67.168,43.655C67.733,44.166,67.677,43.036,67.168,43.655L67.168,43.655z
	 M74.05,43.655c0.046,0.049,0.254-0.08,0.168-0.168C74.173,43.442,73.963,43.569,74.05,43.655z M7.071,43.993
	c-0.045-0.049-0.254,0.08-0.167,0.167C6.95,44.205,7.158,44.079,7.071,43.993z M10.933,44.328c0.045,0.047,0.254-0.081,0.167-0.168
	C11.055,44.114,10.846,44.239,10.933,44.328z M12.443,44.328C11.577,43.974,11.405,44.944,12.443,44.328L12.443,44.328z
	 M56.927,44.328c0.046,0.047,0.255-0.081,0.168-0.168C57.048,44.114,56.841,44.239,56.927,44.328z M73.378,44.328
	c0.047,0.047,0.254-0.081,0.167-0.168C73.5,44.114,73.291,44.239,73.378,44.328z M48.702,44.494c0.048,0.049,0.255-0.08,0.167-0.166
	C48.824,44.281,48.615,44.409,48.702,44.494z M50.884,44.832C52.719,44.899,51.541,44.185,50.884,44.832L50.884,44.832z
	 M53.737,44.664c-0.023,0.174,0.132,0.433,0.169,0.168C53.932,44.656,53.775,44.397,53.737,44.664z M78.917,44.664
	C79.484,45.172,79.426,44.042,78.917,44.664L78.917,44.664z M89.66,44.664c-0.093-0.241-1.081-0.263-0.67,0.669
	c0.451,0.145,0.192-0.327,0.336-0.501C89.377,44.767,89.733,44.842,89.66,44.664z M22.516,44.664
	c-0.047-0.047-0.254,0.08-0.169,0.168C22.395,44.876,22.602,44.748,22.516,44.664z M41.652,44.832
	c0.047,0.045,0.416-0.089,0.335-0.168C41.941,44.617,41.572,44.75,41.652,44.832z M73.545,44.832
	c-0.028,0.028-0.303,0.167-0.167,0.335C73.7,45.56,74.111,44.265,73.545,44.832z M25.201,45.167c-0.002-0.05-0.571-0.27-0.503,0
	C24.743,45.347,25.213,45.406,25.201,45.167z M43.499,45.167c-0.055,0.068-0.145,0.867-0.168,0.839
	C43.592,46.333,44.036,44.478,43.499,45.167z M49.542,45.167c0,0.093,0.168,0.191,0.168,0C49.71,45.073,49.542,44.976,49.542,45.167
	z M61.963,45.167c0.046,0.045,0.255-0.081,0.168-0.168C62.086,44.953,61.877,45.079,61.963,45.167z M72.205,45.167
	c0,0.093,0.167,0.191,0.167,0C72.372,45.073,72.205,44.976,72.205,45.167z M47.862,45.167c-0.045-0.046-0.254,0.083-0.167,0.166
	C47.741,45.381,47.95,45.252,47.862,45.167z M77.742,45.167c-0.047-0.046-0.255,0.083-0.167,0.166
	C77.62,45.381,77.83,45.252,77.742,45.167z M80.26,45.333c0.047,0.049,0.256-0.08,0.169-0.166
	C80.382,45.121,80.173,45.25,80.26,45.333z M26.544,45.333c-0.046-0.045-0.254,0.082-0.168,0.171
	C26.422,45.549,26.63,45.42,26.544,45.333z M44.002,45.67c0.047,0.045,0.416-0.089,0.335-0.167
	C44.292,45.456,43.922,45.589,44.002,45.67z M16.304,45.838c0.047,0.045,0.254-0.08,0.168-0.168
	C16.426,45.624,16.217,45.751,16.304,45.838z M18.318,46.005c-0.092,0.094-0.005,0.342,0.169,0.167
	C18.578,46.083,18.493,45.831,18.318,46.005z M29.229,46.005c0,0.094,0.169,0.192,0.169,0
	C29.398,45.913,29.229,45.815,29.229,46.005z M48.702,46.005c-0.895,0.516,0.542,1.161,0.84,0.672
	C49.905,46.08,49.02,45.823,48.702,46.005z M15.465,46.172c-0.333-0.219-0.725-0.144-1.174,0c-0.289,0.095-0.713,0.287-0.839,0.505
	c-0.974,1.657,1.396,2.854,2.35,1.68C16.21,47.853,15.807,46.401,15.465,46.172z M75.896,46.172
	c-0.271,0.274,0.335,0.509,0.504,0.337C76.572,46.336,76.222,45.849,75.896,46.172z M64.817,46.342c-0.002-0.17-0.292-0.213-0.336,0
	C64.669,46.323,64.743,46.586,64.817,46.342z M7.911,46.342c-0.046-0.048-0.254,0.081-0.167,0.167
	C7.79,46.556,7.998,46.427,7.911,46.342z M2.875,46.677c0.047,0.045,0.255-0.08,0.168-0.168C2.997,46.462,2.788,46.591,2.875,46.677
	z M3.713,46.677c0,0.096,0.169,0.189,0.169,0C3.883,46.583,3.713,46.489,3.713,46.677z M23.858,46.845
	c0.047,0.045,0.254-0.08,0.167-0.168C23.98,46.631,23.771,46.758,23.858,46.845z M27.049,46.845c-0.194-0.338-0.788-0.029-0.84,0
	C24.887,47.632,27.833,48.219,27.049,46.845z M77.742,47.013c0.047,0.045,0.257-0.08,0.168-0.168
	C77.865,46.798,77.656,46.927,77.742,47.013z M81.771,47.013c0.045,0.045,0.254-0.08,0.168-0.168
	C81.893,46.798,81.684,46.927,81.771,47.013z M25.034,47.181c0.046,0.047,0.254-0.08,0.167-0.168
	C25.154,46.966,24.947,47.092,25.034,47.181z M41.988,47.349c0.048,0.045,0.256-0.082,0.168-0.168
	C42.108,47.134,41.9,47.26,41.988,47.349z M83.954,47.349c-0.011,0.071,0.125,0.315,0.169,0.336
	C85.26,48.224,84.084,46.437,83.954,47.349z M43.499,47.349c-0.046-0.048-0.254,0.082-0.168,0.168
	C43.377,47.562,43.585,47.437,43.499,47.349z M73.715,47.685c0.046,0.047,0.254-0.08,0.167-0.168
	C73.835,47.47,73.626,47.599,73.715,47.685z M46.184,47.853c0.047,0.045,0.255-0.082,0.169-0.168
	C46.306,47.638,46.097,47.767,46.184,47.853z M68.679,48.021c0-0.096-0.169-0.19-0.169,0C68.51,48.112,68.679,48.209,68.679,48.021z
	 M88.99,48.021c-0.305,0.308-0.285,0.691,0,0.84C90.008,49.381,89.792,47.21,88.99,48.021z M53.906,48.522
	c0.049,0.047,0.256-0.08,0.169-0.166C54.027,48.312,53.82,48.437,53.906,48.522z M69.517,48.522c-0.135,0.029-0.38-0.062-0.504,0
	c-0.152,0.078-0.567,0.855-0.334,1.178c0.518,0.718,1.682-0.221,1.678-0.504C70.346,48.742,69.94,48.435,69.517,48.522z
	 M52.059,48.86c0.035,0.201,0.188,0.103,0.336,0C52.394,48.69,52.1,48.647,52.059,48.86z M63.642,49.028
	c0,0.094,0.169,0.188,0.169,0C63.811,48.933,63.642,48.836,63.642,49.028z M87.48,48.86c-0.358,0.035,0.502,2.421,0.671,2.52
	C88.017,50.354,88.148,48.792,87.48,48.86z M22.18,49.028c-0.045-0.049-0.254,0.08-0.167,0.168
	C22.058,49.241,22.267,49.115,22.18,49.028z M23.02,49.196c0.045,0.045,0.415-0.09,0.335-0.168
	C23.308,48.979,22.939,49.117,23.02,49.196z M28.895,49.196c-0.184,0.019-0.474,0.164-0.504,0.168
	c-0.127,0.007-0.509-0.164-0.502-0.168c-0.167,0.119,0.122,0.453-0.168,0.504c-0.383,0.064-0.129,1.975,0,2.182
	c0.034,0.053,0.291-0.045,0.335,0c0.052,0.053-0.056,0.289,0,0.337c-0.028-0.024,0.608,0.317,0.672,0.334
	c1.728,0.429,2.913-1.407,2.015-2.853C30.512,49.332,29.741,49.101,28.895,49.196z M75.561,49.364c-0.015,0.015,0,0.145,0,0.167
	C75.561,50.396,76.165,48.757,75.561,49.364z M23.02,49.7c0.045,0.046,0.254-0.082,0.167-0.169
	C23.141,49.483,22.932,49.61,23.02,49.7z M83.619,50.035c-0.046-0.046-0.256,0.081-0.169,0.168
	C83.496,50.248,83.705,50.122,83.619,50.035z M21.507,50.539c-0.491,0.321,0.665-0.008,0.505-0.168
	C21.858,50.217,21.531,50.524,21.507,50.539z M36.616,50.539c-0.047-0.047-0.255,0.078-0.167,0.168
	C36.494,50.752,36.703,50.625,36.616,50.539z M61.459,50.539c-0.045-0.047-0.254,0.078-0.168,0.168
	C61.338,50.752,61.546,50.625,61.459,50.539z M71.867,50.707c0.048,0.046,0.256-0.082,0.169-0.168
	C71.989,50.492,71.78,50.617,71.867,50.707z M5.226,51.042c0.046,0.045,0.254-0.081,0.167-0.167
	C5.346,50.83,5.138,50.955,5.226,51.042z M36.783,50.875c-0.046-0.045-0.255,0.08-0.167,0.167
	C36.663,51.086,36.87,50.96,36.783,50.875z M34.434,51.209c-0.047-0.046-0.416,0.089-0.336,0.17
	C34.145,51.424,34.514,51.29,34.434,51.209z M36.783,51.379c-0.008,0.038-0.025,0.308,0,0.334
	C37.371,52.3,36.959,50.5,36.783,51.379z M40.308,51.379c0.049,0.045,0.416-0.09,0.337-0.17
	C40.599,51.164,40.23,51.298,40.308,51.379z M39.806,51.545c0.046,0.047,0.254-0.082,0.167-0.166
	C39.927,51.331,39.719,51.457,39.806,51.545z M55.92,54.735c0.005,0.094-0.342-0.178-0.336-0.17
	c-0.138-0.192-0.03-0.481-0.169-0.672c-0.313-0.435-1.105-0.636-1.173-0.838c0.047,0.145,0.487-0.58,0.502-0.671
	c0.174-1.188-0.936-1.057-1.343-0.84c-1.337,0.71,0.378,1.397,0.334,1.679c0.021-0.125-0.489,0.161-0.509,0.17
	c-0.138,0.076-0.423,0.207-0.496,0.334c-0.208,0.354,0.018,1.002,0,1.176c-0.01,0.097-0.19,0.281-0.168,0.334
	c0.086,0.213,0.627,0.47,0.67,0.506c-0.014-0.012,0.248,0.363,0.169,0.335c0.184,0.063,0.836,0.063,1.175,0
	c0.231-0.043,0.188-0.267,0.337-0.335c0.305-0.145,0.473,0.049,0.671-0.17c-0.093,0.101-0.229-0.35-0.169-0.504
	C55.466,54.947,55.931,54.92,55.92,54.735z M6.064,52.385c0.046,0.046,0.415-0.089,0.336-0.167
	C6.354,52.17,5.985,52.306,6.064,52.385z M7.24,52.552c0-0.092-0.17-0.191-0.17,0C7.071,52.646,7.24,52.742,7.24,52.552z
	 M42.325,52.552c0.045,0.047,0.254-0.08,0.167-0.167C42.445,52.337,42.237,52.466,42.325,52.552z M74.555,52.552
	c0,0.094,0.167,0.189,0.167,0C74.722,52.46,74.555,52.36,74.555,52.552z M7.407,52.72c0.046,0.047,0.255-0.08,0.168-0.168
	C7.529,52.507,7.321,52.634,7.407,52.72z M56.592,52.72c-0.214,0.122-0.613,0.731-0.337,1.008
	C57.013,54.485,57.554,52.175,56.592,52.72z M34.77,52.888c-0.145,0.176-0.05,0.603,0.335,0.504
	C35.797,53.213,35.28,52.269,34.77,52.888z M42.995,52.72c-0.047-0.045-0.254,0.081-0.168,0.168
	C42.874,52.933,43.082,52.808,42.995,52.72z M61.292,52.72c-0.084-0.084-0.589,0.084-0.502,0.168
	C60.875,52.972,61.376,52.806,61.292,52.72z M84.792,52.888c-0.047-0.046-0.255,0.081-0.167,0.168
	C84.671,53.103,84.88,52.976,84.792,52.888z M89.159,53.056c0.045,0.047,0.254-0.08,0.167-0.168
	C89.28,52.842,89.071,52.969,89.159,53.056z M44.17,53.224c0.046,0.047,0.254-0.08,0.167-0.168
	C44.292,53.009,44.083,53.135,44.17,53.224z M5.729,53.392c0.045,0.047,0.254-0.082,0.167-0.168
	C5.85,53.176,5.643,53.306,5.729,53.392z M46.017,53.392c0.046,0.047,0.254-0.082,0.167-0.168
	C46.138,53.176,45.93,53.306,46.017,53.392z M61.963,53.392c0.046,0.047,0.255-0.082,0.168-0.168
	C62.086,53.176,61.877,53.306,61.963,53.392z M83.619,53.392c0-0.093-0.169-0.19-0.169,0C83.45,53.483,83.619,53.582,83.619,53.392z
	 M5.058,53.56c0.046,0.047,0.416-0.09,0.335-0.168C5.346,53.347,4.977,53.479,5.058,53.56z M19.495,53.56
	c0.291-0.014,0.521,0.037,0.67,0.168C20.434,53.259,19.44,53.263,19.495,53.56z M44.17,53.728
	C43.764,54.291,44.733,53.319,44.17,53.728L44.17,53.728z M46.184,53.728c0.047,0.045,0.255-0.08,0.169-0.168
	C46.306,53.515,46.097,53.64,46.184,53.728z M55.584,53.56c-0.047-0.045-0.254,0.08-0.169,0.168
	C55.462,53.772,55.67,53.647,55.584,53.56z M13.953,53.728c-0.045-0.045-0.414,0.09-0.334,0.166
	C13.665,53.942,14.034,53.808,13.953,53.728z M57.095,54.065c-0.002-0.015,0.566,0.102,0.505,0.166
	C58.002,53.827,57.048,53.797,57.095,54.065z M65.992,54.231c0.047,0.045,0.415-0.09,0.337-0.166
	C66.283,54.017,65.913,54.153,65.992,54.231z M64.817,54.399c0.189-0.018,0.263,0.242,0.337,0
	C65.151,54.229,64.859,54.188,64.817,54.399z M36.28,54.903c0.131-0.127-0.292-0.813-0.335-0.338
	C35.935,54.667,36.077,55.106,36.28,54.903z M42.659,54.565c0.047,0.047,0.254-0.08,0.167-0.166
	C42.781,54.354,42.572,54.479,42.659,54.565z M71.531,54.735c0.049,0.046,0.256-0.082,0.17-0.17
	C71.653,54.521,71.446,54.647,71.531,54.735z M27.216,54.903c0.047,0.047,0.254-0.082,0.167-0.168
	C27.337,54.688,27.129,54.815,27.216,54.903z M78.749,54.735c0.223,0.617,0.56,1.121,1.01,1.511
	C79.53,55.615,79.26,54.892,78.749,54.735z M20.837,55.069C20.431,55.633,21.4,54.665,20.837,55.069L20.837,55.069z M10.933,55.069
	c-0.047-0.045-0.254,0.082-0.169,0.168C10.812,55.285,11.02,55.159,10.933,55.069z M27.719,55.237
	c0.047,0.048,0.415-0.088,0.335-0.168C28.01,55.024,27.64,55.159,27.719,55.237z M45.85,55.237c0-0.092-0.169-0.19-0.169,0
	C45.681,55.333,45.85,55.427,45.85,55.237z M56.255,55.405c0.048,0.048,0.255-0.08,0.168-0.168
	C56.377,55.192,56.169,55.319,56.255,55.405z M57.262,55.573c-0.092,0.095-0.005,0.342,0.169,0.17
	C57.524,55.649,57.436,55.399,57.262,55.573z M68.679,55.573c-0.049-0.045-0.255,0.08-0.169,0.17
	C68.556,55.789,68.765,55.661,68.679,55.573z M25.537,55.911c0.047,0.046,0.254-0.08,0.167-0.168
	C25.659,55.694,25.45,55.823,25.537,55.911z M82.107,55.911c0,0.091,0.168,0.189,0.168,0C82.275,55.817,82.107,55.719,82.107,55.911
	z M83.284,55.911c0.045,0.046,0.415-0.089,0.335-0.168C83.573,55.694,83.202,55.833,83.284,55.911z M26.04,56.078
	C26.931,56.26,26.239,55.569,26.04,56.078L26.04,56.078z M13.786,56.246c0.047,0.046,0.256-0.08,0.167-0.168
	C13.908,56.032,13.699,56.158,13.786,56.246z M50.045,56.246c0.046,0.046,0.254-0.08,0.169-0.168
	C50.167,56.032,49.96,56.158,50.045,56.246z M41.988,56.416c0-0.097-0.168-0.19-0.168,0C41.82,56.506,41.988,56.604,41.988,56.416z
	 M51.725,56.917c0.045,0.046,0.254-0.083,0.167-0.167C51.846,56.704,51.637,56.83,51.725,56.917z M83.284,56.75
	c-0.049-0.047-0.258,0.079-0.169,0.167C83.161,56.963,83.37,56.834,83.284,56.75z M86.303,56.917c0,0.093,0.168,0.189,0.168,0
	C86.471,56.824,86.303,56.726,86.303,56.917z M12.275,57.419c0.047,0.048,0.256-0.081,0.168-0.167
	C12.398,57.207,12.189,57.333,12.275,57.419z M24.865,57.419c-0.015,0.016,0,0.146,0,0.17C24.865,58.453,25.47,56.815,24.865,57.419
	z M78.414,57.419c-0.016,0.016,0,0.146,0,0.17C78.414,58.453,79.018,56.815,78.414,57.419z M36.28,57.756
	c0.048,0.046,0.257-0.083,0.17-0.167C36.402,57.543,36.194,57.668,36.28,57.756z M6.736,57.923c0.048,0.047,0.255-0.08,0.167-0.167
	C6.858,57.711,6.649,57.836,6.736,57.923z M36.951,57.756c-0.015,0.015,0,0.146,0,0.167C36.951,58.788,37.556,57.151,36.951,57.756z
	 M88.99,57.923c0.048,0.047,0.254-0.08,0.169-0.167C89.111,57.711,88.903,57.836,88.99,57.923z M10.429,57.923
	c-0.326-0.058-0.521,0.066-0.671,0.171c-0.975,0.665,0.415,1.749,1.007,1.175c0.104-0.103,0.539-0.658,0.169-1.175
	C10.933,58.094,10.405,57.92,10.429,57.923z M51.725,57.923c-0.049-0.045-0.257,0.081-0.169,0.171
	C51.602,58.14,51.811,58.01,51.725,57.923z M45.681,58.259c0.047,0.047,0.255-0.082,0.169-0.165
	C45.802,58.046,45.595,58.171,45.681,58.259z M61.292,58.259c0.047,0.047,0.416-0.088,0.337-0.165
	C61.581,58.046,61.211,58.181,61.292,58.259z M63.473,58.259c0.048,0.047,0.257-0.082,0.169-0.165
	C63.595,58.046,63.388,58.171,63.473,58.259z M87.982,58.094c-0.045-0.048-0.255,0.077-0.167,0.165
	C87.862,58.306,88.069,58.177,87.982,58.094z M12.612,58.429c0.047,0.045,0.415-0.09,0.335-0.17
	C12.9,58.214,12.532,58.349,12.612,58.429z M38.63,58.259c-0.046-0.045-0.254,0.082-0.167,0.17
	C38.509,58.474,38.717,58.345,38.63,58.259z M51.556,58.429c0.046,0.045,0.255-0.084,0.169-0.17
	C51.676,58.214,51.468,58.341,51.556,58.429z M54.577,58.429c-0.045-0.047-0.254,0.079-0.167,0.168
	C54.455,58.642,54.665,58.513,54.577,58.429z M26.544,58.931c0.047,0.047,0.416-0.088,0.336-0.168
	C26.833,58.715,26.464,58.853,26.544,58.931z M45.514,58.763c-0.047-0.048-0.256,0.08-0.169,0.168
	C45.392,58.978,45.601,58.851,45.514,58.763z M48.87,58.763c-0.046,0.383,0.042,0.631,0.337,0.674
	C49.518,59.14,49.163,58.915,48.87,58.763z M87.982,58.931c0.047,0.047,0.256-0.08,0.169-0.168
	C88.104,58.715,87.896,58.843,87.982,58.931z M25.369,59.603c0.046,0.045,0.254-0.08,0.168-0.166
	C25.491,59.39,25.282,59.517,25.369,59.603z M41.988,59.603c0.048,0.045,0.256-0.08,0.168-0.166
	C42.108,59.39,41.9,59.517,41.988,59.603z M75.392,59.603c-0.648,0.647,0.804,0.301,0.337-0.166
	C75.618,59.327,75.409,59.585,75.392,59.603z M8.583,59.771C9.514,60.296,9.128,59.252,8.583,59.771L8.583,59.771z M16.976,59.771
	c0.045,0.047,0.254-0.08,0.167-0.168C17.098,59.556,16.889,59.683,16.976,59.771z M87.48,59.771c0.045,0.047,0.254-0.08,0.167-0.168
	C87.601,59.556,87.392,59.683,87.48,59.771z M37.121,59.937c0.046,0.049,0.254-0.08,0.167-0.166
	C37.241,59.726,37.034,59.851,37.121,59.937z M23.691,60.106c0.045,0.045,0.254-0.082,0.167-0.17
	C23.813,59.892,23.604,60.021,23.691,60.106z M25.201,60.106c0.047,0.045,0.255-0.082,0.168-0.17
	C25.323,59.892,25.115,60.021,25.201,60.106z M44.674,60.274c0.024,0.216,0.306,0.508,0.336,0.168
	C45.007,60.476,44.637,59.94,44.674,60.274z M86.807,60.442c0.047,0.045,0.254-0.08,0.169-0.168
	C86.929,60.229,86.721,60.354,86.807,60.442z M31.747,60.608c0,0.095,0.169,0.191,0.169,0
	C31.916,60.517,31.747,60.419,31.747,60.608z M95.705,60.776c-0.09,0.033-0.634,0.207-0.336,0.506
	C95.851,61.767,96.375,60.54,95.705,60.776z M14.458,60.947c-0.033,0.09,0.279,0.444,0.336,0.501
	C16.096,62.798,14.865,59.842,14.458,60.947z M33.763,61.114c0.024-0.176-0.13-0.432-0.169-0.167
	C33.569,61.123,33.724,61.379,33.763,61.114z M85.801,60.947c0.046,0.045,0.255-0.083,0.166-0.171
	C85.922,60.731,85.713,60.86,85.801,60.947z M42.995,61.114c0.047,0.045,0.254-0.082,0.168-0.167
	C43.117,60.899,42.909,61.028,42.995,61.114z M7.911,61.282c0.048,0.045,0.255-0.08,0.168-0.168
	C8.032,61.067,7.824,61.194,7.911,61.282z M76.4,61.114c-0.015,0.016,0,0.144,0,0.168C76.4,62.146,77.003,60.509,76.4,61.114z
	 M27.216,61.616c0.047,0.049,0.254-0.079,0.167-0.168C27.337,61.403,27.129,61.53,27.216,61.616z M39.638,61.616
	c0.036,0.205,0.187,0.104,0.336,0C39.971,61.448,39.679,61.406,39.638,61.616z M50.884,61.616c0.046,0.049,0.254-0.079,0.169-0.168
	C51.004,61.403,50.798,61.53,50.884,61.616z M93.018,61.954c-0.272,0.361,0.199,1.24,0.336,1.174
	C93.478,63.069,93.761,60.966,93.018,61.954z M41.652,62.121c0.048,0.046,0.254-0.08,0.167-0.167
	C41.774,61.906,41.565,62.034,41.652,62.121z M45.01,61.954c0.425,0.859,0.872,1.699,1.51,2.352
	c-0.024-0.593-0.595-1.109-0.839-1.681C45.498,62.199,45.654,61.731,45.01,61.954z M51.725,62.121
	c0.045,0.046,0.254-0.08,0.167-0.167C51.846,61.906,51.637,62.034,51.725,62.121z M64.65,62.121c0.046,0.046,0.255-0.08,0.167-0.167
	C64.771,61.906,64.562,62.034,64.65,62.121z M27.049,62.288c0.045,0.049,0.254-0.079,0.167-0.167
	C27.17,62.072,26.961,62.201,27.049,62.288z M19.158,62.455c0.047,0.05,0.254-0.079,0.169-0.167
	C19.278,62.243,19.071,62.369,19.158,62.455z M52.732,62.455c0.045,0.05,0.254-0.079,0.166-0.167
	C52.853,62.243,52.643,62.369,52.732,62.455z M55.92,62.455c0.047,0.05,0.415-0.086,0.335-0.167
	C56.209,62.243,55.841,62.377,55.92,62.455z M33.594,62.625c0.028,0.082,0.581,0.231,0.504,0
	C34.071,62.542,33.517,62.394,33.594,62.625z M49.542,62.625c0.046,0.046,0.254-0.082,0.168-0.17
	C49.663,62.41,49.455,62.539,49.542,62.625z M60.956,62.625c-0.136,0.403,0.219,0.787,0.504,0.503
	C61.715,62.874,61.16,62.017,60.956,62.625z M60.285,62.792c0.045,0.046,0.254-0.083,0.168-0.168
	C60.407,62.58,60.198,62.707,60.285,62.792z M73.545,62.792c0.048,0.046,0.256-0.083,0.17-0.168
	C73.667,62.58,73.458,62.707,73.545,62.792z M51.556,62.96c-0.047-0.049-0.256,0.08-0.168,0.167
	C51.436,63.176,51.642,63.047,51.556,62.96z M51.725,63.127c0.045,0.049,0.254-0.08,0.167-0.167
	C51.846,62.912,51.637,63.041,51.725,63.127z M62.298,63.127c0.048,0.049,0.417-0.089,0.336-0.167
	C62.588,62.912,62.221,63.049,62.298,63.127z M19.829,63.295c0.047,0.048,0.256-0.08,0.168-0.168
	C19.951,63.082,19.743,63.208,19.829,63.295z M50.045,63.464c0.046,0.046,0.254-0.082,0.169-0.169
	C50.167,63.25,49.96,63.377,50.045,63.464z M54.41,63.464c0.045,0.046,0.415-0.089,0.335-0.169
	C54.699,63.25,54.33,63.383,54.41,63.464z M83.45,63.8c-0.002-0.17-0.293-0.213-0.335,0C83.302,63.782,83.375,64.043,83.45,63.8z
	 M22.18,63.968c-0.342,0.738,1.298,0.458,0.672-0.168C22.686,63.634,22.208,63.906,22.18,63.968z M94.026,63.968
	c-0.296,0.297-0.226,0.692,0,0.84C94.924,65.384,95.191,62.803,94.026,63.968z M26.209,64.134c0.188-0.015,0.261,0.245,0.335,0
	C26.542,63.965,26.25,63.923,26.209,64.134z M40.308,64.134c0.049,0.049,0.256-0.08,0.169-0.166
	C40.43,63.92,40.221,64.046,40.308,64.134z M49.542,64.134c0,0.094,0.168,0.19,0.168,0C49.71,64.041,49.542,63.944,49.542,64.134z
	 M97.383,64.134c-0.046-0.046-0.255,0.083-0.168,0.17C97.261,64.351,97.469,64.222,97.383,64.134z M76.903,64.472
	c-0.265,0.266-0.242,0.539,0,0.672C77.564,65.497,77.845,63.53,76.903,64.472z M95.203,64.304c-0.018,0.014,0,0.145,0,0.168
	C95.203,65.334,95.805,63.7,95.203,64.304z M81.1,64.64c0.046,0.045,0.255-0.082,0.169-0.168
	C81.222,64.426,81.012,64.552,81.1,64.64z M48.199,64.808c0.047,0.047,0.255-0.082,0.168-0.168
	C48.319,64.592,48.112,64.719,48.199,64.808z M70.357,64.808c0.047,0.047,0.255-0.082,0.168-0.168
	C70.478,64.592,70.271,64.719,70.357,64.808z M74.384,64.808c0.047,0.047,0.256-0.082,0.171-0.168
	C74.506,64.592,74.298,64.719,74.384,64.808z M39.469,64.974c0.048,0.049,0.255-0.08,0.168-0.166
	C39.591,64.761,39.383,64.886,39.469,64.974z M67,64.974c0.046,0.049,0.414-0.088,0.335-0.166C67.29,64.761,66.919,64.896,67,64.974
	z M34.434,65.312c0.036,0.2,0.187,0.102,0.336,0C34.768,65.142,34.477,65.101,34.434,65.312z M92.011,66.317
	C92.126,64.283,91.305,65.479,92.011,66.317L92.011,66.317z M8.918,65.479c0.036,0.201,0.186,0.104,0.336,0
	C9.252,65.308,8.96,65.267,8.918,65.479z M59.781,65.479c0.049,0.045,0.415-0.09,0.337-0.168
	C60.07,65.267,59.703,65.397,59.781,65.479z M89.66,65.479c0,0.093,0.169,0.188,0.169,0C89.829,65.384,89.66,65.287,89.66,65.479z
	 M15.129,65.646c-0.046-0.045-0.415,0.09-0.335,0.168C14.841,65.86,15.208,65.726,15.129,65.646z M30.741,65.813
	c0.046,0.047,0.254-0.08,0.167-0.168C30.862,65.601,30.654,65.726,30.741,65.813z M34.602,65.813
	c0.047,0.047,0.256-0.08,0.168-0.168C34.723,65.601,34.516,65.726,34.602,65.813z M45.345,65.813
	c0.047,0.047,0.256-0.08,0.169-0.168C45.466,65.601,45.258,65.726,45.345,65.813z M47.359,65.813
	c-0.288,0.289-0.046,0.576,0.169,0.504C47.737,66.248,47.763,65.411,47.359,65.813z M63.305,66.149
	c0.048,0.048,0.415-0.09,0.337-0.166C63.595,65.935,63.227,66.069,63.305,66.149z M7.071,66.317c0.049,0.045,0.256-0.08,0.17-0.168
	C7.193,66.104,6.984,66.229,7.071,66.317z M36.449,66.653c0.045,0.048,0.254-0.081,0.167-0.168
	C36.57,66.438,36.361,66.565,36.449,66.653z M93.522,66.653c0.047,0.048,0.255-0.081,0.168-0.168
	C93.645,66.438,93.436,66.565,93.522,66.653z M45.177,66.822c0.002,0.17,0.293,0.209,0.336,0
	C45.325,66.837,45.251,66.578,45.177,66.822z M36.112,66.822c-0.014,0.014,0,0.144,0,0.168
	C36.112,67.851,36.716,66.218,36.112,66.822z M76.568,66.99c0.046,0.046,0.256-0.083,0.168-0.168
	C76.69,66.776,76.481,66.903,76.568,66.99z M97.383,67.661C98.231,66.985,96.797,66.874,97.383,67.661L97.383,67.661z
	 M50.045,67.325c0.046,0.047,0.254-0.081,0.169-0.168C50.167,67.11,49.96,67.237,50.045,67.325z M96.543,67.661
	c-0.045-0.047-0.255,0.081-0.168,0.168C96.422,67.875,96.631,67.747,96.543,67.661z M96.881,67.829
	c0.045,0.046,0.254-0.082,0.166-0.168C97.002,67.614,96.792,67.742,96.881,67.829z M16.64,67.996
	c0.047,0.046,0.256-0.08,0.169-0.167C16.761,67.781,16.553,67.91,16.64,67.996z M44.002,67.996c0.047,0.046,0.255-0.08,0.168-0.167
	C44.124,67.781,43.916,67.91,44.002,67.996z M32.755,68.164c0.047,0.048,0.255-0.08,0.168-0.168
	C32.876,67.949,32.668,68.078,32.755,68.164z M48.87,68.164c0.048,0.048,0.255-0.08,0.169-0.168
	C48.991,67.949,48.784,68.078,48.87,68.164z M92.346,68.332c0.048,0.047,0.255-0.081,0.169-0.168
	C92.468,68.118,92.261,68.245,92.346,68.332z M38.63,68.5C38.456,69.66,39.317,68.798,38.63,68.5L38.63,68.5z M41.652,68.835
	c0,0.096,0.167,0.189,0.167,0C41.82,68.742,41.652,68.644,41.652,68.835z M68.679,68.835c0.045,0.046,0.255-0.08,0.167-0.168
	C68.799,68.621,68.592,68.749,68.679,68.835z M82.778,69.002c0,0.095,0.169,0.192,0.169,0C82.947,68.91,82.778,68.813,82.778,69.002
	z M95.369,69.002c-1.443,0.651-0.342,2.238,0.673,1.849C97.493,70.291,96.556,68.468,95.369,69.002z M80.597,69.002
	c-0.02,0.007,0.014,0.153,0,0.168c0,0-0.295,0.437,0,0.336C80.677,69.479,80.831,68.927,80.597,69.002z M41.82,69.339
	c-0.046-0.048-0.254,0.081-0.167,0.167C41.699,69.554,41.907,69.425,41.82,69.339z M49.374,69.506
	c0.046,0.048,0.254-0.081,0.168-0.167C49.496,69.292,49.288,69.42,49.374,69.506z M88.99,69.506
	c0.048,0.048,0.254-0.081,0.169-0.167C89.111,69.292,88.903,69.42,88.99,69.506z M97.383,69.506
	c0.047,0.048,0.254-0.081,0.168-0.167C97.503,69.292,97.297,69.42,97.383,69.506z M20.333,69.842
	c0.045,0.048,0.255-0.079,0.167-0.168C20.455,69.627,20.246,69.755,20.333,69.842z M47.862,69.842
	c0.048,0.048,0.257-0.079,0.169-0.168C47.984,69.627,47.775,69.755,47.862,69.842z M51.556,70.179
	c0.046,0.047,0.255-0.082,0.169-0.17C51.676,69.963,51.468,70.092,51.556,70.179z M41.82,70.347
	c-0.094,0.094-0.005,0.342,0.168,0.166C42.081,70.421,41.994,70.173,41.82,70.347z M86.136,71.021
	c0.047,0.045,0.255-0.084,0.167-0.17C86.257,70.804,86.048,70.931,86.136,71.021z M14.625,71.521c0.036,0.205,0.187,0.104,0.336,0
	C14.96,71.351,14.667,71.31,14.625,71.521z M87.311,71.521c-0.07,0.069-0.21-0.022-0.166,0.168
	C87.337,72.562,88.055,70.778,87.311,71.521z M75.223,72.026c0.049,0.046,0.257-0.084,0.169-0.168
	C75.346,71.81,75.137,71.938,75.223,72.026z M15.465,72.528c0.048,0.048,0.254-0.081,0.167-0.168
	C15.587,72.315,15.378,72.44,15.465,72.528z M84.792,73.2c0.047,0.049,0.257-0.08,0.169-0.168
	C84.915,72.985,84.707,73.112,84.792,73.2z M17.479,73.872c0.046,0.046,0.254-0.08,0.168-0.167
	C17.6,73.657,17.394,73.784,17.479,73.872z M43.331,74.376c0.047,0.045,0.255-0.084,0.168-0.17
	C43.453,74.162,43.244,74.291,43.331,74.376z M44.002,74.376c0.047,0.045,0.255-0.084,0.168-0.17
	C44.124,74.162,43.916,74.291,44.002,74.376z M89.494,74.376c0.046,0.045,0.254-0.084,0.166-0.17
	C89.615,74.162,89.405,74.291,89.494,74.376z M60.621,5.719c0.04,0.093,0.414,0.064,0.504,0.167
	c0.141,0.157,0.017,0.531,0.335,0.502c0.025-0.898-0.668-0.965-0.67-1.006c-0.003-0.029-0.002-0.055,0-0.082
	C60.739,5.407,60.555,5.57,60.621,5.719z M60.801,5.235c-0.006,0.021-0.01,0.042-0.012,0.064
	C60.801,5.274,60.806,5.253,60.801,5.235z M59.111,4.039c0.041,0.312,0.307,0.022,0.503,0.168c0.059,0.043,0.12,0.442,0.167,0.502
	c0.305,0.399,0.7,0.174,1.01,0.504c0.004,0.007,0.009,0.014,0.012,0.021c0.081-0.38,0.575-0.571,0.658-0.858
	c0.268-0.939-0.592-1.369-1.007-1.346c-0.639,0.037-0.877,0.728-1.008,0.84C59.333,3.97,59.037,3.507,59.111,4.039z M63.305,7.228
	c-0.063-0.021,0.088-0.335,0.168-0.335c-0.024,0,0.326,0.547,0.338,0.505c0.104-0.375-0.229-0.733-0.506-0.673
	c0.001,0-0.003,0.166,0,0.168C63.167,6.836,63.101,7.156,63.305,7.228z M62.374,9.394c-0.024-0.048-0.04-0.084-0.044-0.092
	C62.333,9.31,62.347,9.339,62.374,9.394z M62.467,9.578c0.298,0.594,0.023,0.046-0.094-0.184
	C62.393,9.436,62.425,9.496,62.467,9.578z M53.234,11.256c0.098,0.744,0.069,1.612,0.337,2.184
	C53.593,12.577,53.546,11.785,53.234,11.256z M35.105,11.929C34.624,12.89,35.572,10.996,35.105,11.929L35.105,11.929z
	 M30.908,15.286c0.419-0.084,0.689-0.317,1.008-0.504C31.6,14.488,31.139,14.993,30.908,15.286z M29.398,16.461
	c0.153-0.037,0.573-0.902,0-0.168C29.425,16.258,29.129,16.527,29.398,16.461z M46.688,17.132
	C47.443,16.188,46.118,16.435,46.688,17.132L46.688,17.132z M48.535,20.657c-0.063-0.346,0.919-0.85,0.167-0.839
	C48.728,20.127,48.112,20.999,48.535,20.657z M47.359,23.345C46.88,24.306,47.826,22.409,47.359,23.345L47.359,23.345z
	 M36.951,24.52c0.098-0.623,0.433-0.927,0-1.174C36.965,23.351,36.679,24.33,36.951,24.52z M82.778,24.014
	c0.184,0.424,0.413,0.659,0.169,0.167C82.815,23.919,82.63,23.667,82.778,24.014z M74.384,26.532
	C75.729,25.863,73.946,26.1,74.384,26.532L74.384,26.532z M84.289,28.884c0.057,0.206,0.28,0.056,0.169-0.168
	c-0.063-0.126-0.297-0.254-0.169,0C84.312,28.758,84.277,28.835,84.289,28.884z M64.146,29.556c0.099,0.295-0.203,0.985,0.167,1.006
	C64.745,30.386,63.868,29.023,64.146,29.556z M63.305,29.891c0.201-0.177,0.041-0.12-0.167,0
	C62.909,30.022,63.11,30.062,63.305,29.891z M33.091,31.234c0.037,0.013,0.278,0.349,0.503,0.167
	C33.688,31.328,32.006,30.846,33.091,31.234z M85.967,32.409c-0.056,0.056-0.009,0.58,0,0.671c0.015,0.128,0.165,0.149,0.169,0.168
	C86.511,35.081,86.136,32.241,85.967,32.409z M42.952,37.94c-0.343-0.043-0.416,0.832,0.043,0.679
	c0.123-0.039,0.251-0.22,0.245-0.39c0.091,0.088,0.18,0.164,0.259,0.222c0.107,0.084,0.389-0.072,0.503,0
	c0.138,0.09-0.051,0.276,0.168,0.338c-0.08-0.021,0.114-0.329,0.167-0.338c0.221-0.034,0.159,0.354,0.336,0.338
	c0.021-0.002-0.023-0.313,0-0.338c0.042-0.042,0.271,0.016,0.336,0c0.625-0.142,0.631,0.188,0.67,0.338
	c0.182,0.68,0.332-0.329,0.336-0.338c0.081-0.167,1.529-0.622,1.342-0.671c0.508,0.137,0.004,0.355,0.672,0.839
	c0.289-0.913-0.772-0.606-0.84-1.174c0.021,0.17,0.334-0.498,0.337-0.504c0.146-0.22,0.263-0.126,0.334-0.503
	c0.181-0.919-0.125-1.587-0.334-2.015c-0.685-1.39-2.076-1.984-3.357-1.679c-0.431,0.104-0.608,0.473-0.839,0.672
	c-0.5,0.43-0.446,0.173-0.671,0.671c-0.027,0.061-0.298,0.094-0.334,0.167c-0.09,0.174,0.057,0.483,0,0.672
	c-0.02,0.058-0.327,0.25-0.338,0.335c-0.025,0.226,0.102,1.094,0.168,1.511C42.198,37.033,42.57,37.531,42.952,37.94z
	 M85.297,38.451c-0.019-0.976-0.477-2.019-0.672-2.853c-0.088-0.375,0.145-0.989-0.337-1.007c-0.399,0.244,0.097,0.44,0.169,0.67
	C84.745,36.186,84.784,37.694,85.297,38.451z M63.473,41.642c0.264-0.162-0.315-0.466-0.335-0.841
	c-0.013-0.241,0.507-0.786,0.504-1.344c-0.004-0.55-0.734-1.631-0.671-1.846c0.018-0.061,0.604-0.107,0.671-0.167
	c0.155-0.142,0.133-0.356,0-0.504c-0.192-0.448-0.481,0.478-0.84,0.336c-0.32-0.129-0.171-1.052-0.671-1.344
	c-0.583-0.338-0.846,0.322-1.176-0.167c-0.116-0.176,0.62-0.755,0.336-0.839c-0.339-0.259-0.248,0.464-0.671,0.671
	c-0.432,0.213-1.653-0.065-2.687,0.168c-0.072,0.018-0.377,0.285-0.504,0.335c-1.055,0.415-0.439-0.501-1.008-0.503
	c-0.761,0.364,0.308,0.459,0.169,1.007c-0.008,0.033-0.309-0.028-0.337,0c-0.058,0.057,0.057,0.278,0,0.335
	c-0.124,0.13-0.406,0.186-0.502,0.336c-0.347,0.535-0.623,1.735-0.673,2.181c-0.053,0.482,0.271,0.734,0,1.01
	c0.091-0.092-0.841-0.17-0.838-0.17c-0.145-0.053-0.375-0.361-0.507-0.336c-0.38,0.073,0.019,0.362-0.503,0.673
	c-0.051,0.03-0.479,0.129-0.502,0.167c-0.145,0.251-0.319,1.329-0.168,1.848c0.06,0.203,0.558,0.789,0.67,0.838
	c0.327,0.148,0.578-0.084,0.84,0.168c-0.092-0.09-0.31,0.517,0,0.506c0.021,0-0.021-0.321,0-0.335
	c0.289-0.194,0.934-0.333,1.177-0.505c0.706-0.504,0.551-1.17,0.839-1.174c0.238-0.008,0.698,0.392,0.67,0.84
	c-0.009,0.164-0.705,0.49-0.838,1.007c0.614-0.183,0.571-0.864,1.175-1.007c0.4-0.1,1.149,0.49,1.847,0.5
	c0.487,0.011,0.606-0.233,0.839-0.166c0.729,0.209,0.61,0.809,1.176,0.673c0.099-0.024,0.411-0.095,0.504-0.168
	c0.429-0.341-0.041-0.753,0.335-1.343c0.053-0.082,0.438-0.096,0.673-0.336c0.079-0.086,0.114-0.42,0.167-0.506
	C63.041,40.992,62.76,41.769,63.473,41.642z M33.426,35.598C33.698,35.139,33.544,34.909,33.426,35.598L33.426,35.598z
	 M73.545,43.993c-0.145-0.656-0.377-0.902,0-1.008c0.225-0.063,0.5,0.337,0.505,0.336c0.071-0.061-0.041-0.418,0-0.506
	c0.11-0.23,1.031-0.373,1.173-0.502c0.151-0.139,0.173-0.373,0.338-0.504c0.058-0.045,0.293,0.057,0.335,0
	c0.09-0.119,0.008-0.813,0.167-1.176c0.025-0.05,0.297-0.113,0.337-0.167c0.407-0.545-0.085-0.684-0.169-1.513
	c-0.021-0.202,0.063-0.475,0-0.671c-0.035-0.115-0.443-0.945-0.502-1.007c-0.188-0.195-0.541-0.124-0.672-0.336
	c0.069,0.113,0.31-0.422,0.166-0.503c-0.287-0.166-0.362,0.337-0.501,0.335c-0.134-0.002-0.441-0.289-0.84-0.335
	c-0.378-0.043-0.775,0.167-1.177,0.167c-0.679,0.002,0.349-1.353-0.501-1.007c0.46,0.561-0.354,1.109-0.675,1.343
	c-0.535,0.391-0.902,0.576-1.342,0.504c-0.142-0.021,0.027-0.195-0.168,0c0.071-0.072,0.356,0.272,0.336,0.334
	c-0.012,0.033-0.286,0.261-0.336,0.337c-0.209,0.338-0.583,0.729-0.673,1.007c-0.139,0.439-0.154,1.223,0,1.679
	c-0.052-0.155,0.104-0.077,0.169,0c0.119,0.146,0.055,0.343,0.169,0.505c0.187,0.267,0.53,0.42,0.671,0.67
	c0.246,0.436,0.178,0.434,0.503,0.672c0.06,0.045,0.147,0.324,0.167,0.338c0.092,0.051,0.396-0.139,0.337-0.17
	c-0.432-0.217,0.15-0.071,0.337,0c0.048,0.021,0.526,0.088,0.672,0.17c0.116,0.065-0.016,0.263,0.168,0.336
	c-0.118-0.047,0.157-0.334,0.166-0.336c-0.057,0.022,0.623,0.127,0.506,0C73.53,43.334,72.739,44.069,73.545,43.993z M55.25,35.933
	c0.03,0.121,0.415,0.085,0.504,0.168c0.067,0.065,0.121,0.117,0.161,0.155c-0.038-0.08-0.119-0.467-0.161-0.491
	C55.623,35.692,55.218,35.816,55.25,35.933z M55.92,36.27c0.063,0.096,0.211,0.2-0.006-0.014
	C55.917,36.261,55.918,36.269,55.92,36.27z M39.806,37.109c0.077-0.536,0.639-0.593,0.671-1.176
	c-0.447-0.113-0.199,0.289-0.336,0.504C39.989,36.679,39.393,37.005,39.806,37.109z M81.269,37.109
	c0.397,0.81,0.45-0.444-0.169-0.839C81.234,36.526,81.167,36.901,81.269,37.109z M37.959,39.291c-0.009,0,0.01,0.161,0,0.167
	c-0.072,0.048-0.541,0.061-0.336,0.338C37.722,39.927,38.52,39.272,37.959,39.291z M66.496,39.961
	c0.633-0.19,0.765,0.162,1.008-0.334C67.192,39.667,66.127,39.796,66.496,39.961z M27.049,42.146
	c0.076,0.051,0.013,0.523,0.167,0.168c-0.146-0.246-0.251-0.532-0.672-0.504C26.426,42.256,26.839,42.009,27.049,42.146z
	 M40.645,44.832c-0.415-0.369-1.303,0.185-1.846-0.168c-0.239-0.156-0.215-0.448-0.337-0.671c-0.262-0.49-1.052-1.713-1.342-1.848
	c-0.779-0.364-3.577-0.24-4.197,0c0.002-0.002-0.264,0.332-0.504,0.502c-0.161,0.115-0.623,0.289-0.672,0.338
	c-0.14,0.137-0.028,0.529-0.167,0.67c-0.053,0.052-0.292-0.057-0.335,0c-0.06,0.074-0.133,0.279-0.168,0.338
	c-0.27,0.404-0.323,0.589-0.503,1.006c-0.173,0.396-0.31,0.482-0.337,0.672c-0.083,0.588,0.178,2.08,0.337,2.854
	c0.09,0.449,0.675,0.851,0.839,1.008c0.116,0.113,0.19,0.059,0.334,0.169c0.329,0.25,0.618,0.721,0.839,0.839
	c0.173,0.092,0.484-0.063,0.672,0c0.183,0.061,0.151,0.293,0.504,0.336c0.157,0.02,0.389-0.141,0.671-0.168
	c0.332-0.035,0.917,0.053,1.176,0c0.278-0.059,0.793-0.58,1.174-0.672c0.521-0.123,0.372,0.271,0.673,0
	c0.407-0.367-0.313-0.313,0-0.839c0.419-0.712,0.922-0.464,1.343,0c0.139-0.528-0.459-0.376-0.504-0.673
	c-0.024-0.154,0.265-0.381,0.334-0.502c0.172-0.301,0.068-0.317,0.337-0.506c0.511-0.359,1.035,0.203,1.51,0
	c0.042-0.017,0.301-0.451,0.336-0.504c0.385-0.557,0.487-0.771,0.167-1.509C40.935,45.396,40.659,44.842,40.645,44.832z
	 M84.289,44.328c0.031,0.056,0.026,0.416,0.169,0.336c-0.066,0.037-0.124-1.892-0.504-1.511
	C83.635,43.47,84.268,44.284,84.289,44.328z M85.297,43.153C84.955,44.149,86.101,44.147,85.297,43.153L85.297,43.153z
	 M29.901,43.993c0.049,0.016,0.118-0.01,0.168,0c0.063,0.008,0.117,0.285,0.337,0.167C30.923,43.875,29.173,43.749,29.901,43.993z
	 M62.969,44.325c-0.03-0.041-0.05-0.065-0.064-0.081C62.919,44.263,62.944,44.292,62.969,44.325z M62.971,44.328
	c0.016,0.021,0.03,0.037,0.043,0.056c-0.015-0.021-0.03-0.039-0.045-0.059C62.971,44.328,62.971,44.328,62.971,44.328z
	 M62.905,44.244C62.887,44.218,62.884,44.215,62.905,44.244L62.905,44.244z M63.014,44.383
	C63.169,44.583,63.369,44.84,63.014,44.383L63.014,44.383z M66.161,47.013c0.414-0.063,0.496,1.047,0.839,0.504
	C66.647,47.517,66.37,46.603,66.161,47.013z M51.219,50.371c-0.003-0.029-0.319-0.116-0.335-0.168
	c-0.026-0.095,0.2-0.304,0.169-0.335c-0.255-0.264-0.547,0.115-0.673-0.337c-0.039-0.14,0.547-0.31,0.336-0.503
	c-0.492-0.456-0.845,0.425-1.174,0.168c-0.171-0.135,0.168-0.674-0.168-0.674c-0.019,0,0.021,0.5,0,0.506
	c-0.549,0.152-1.007-0.182-1.175-0.168c-0.542,0.039-0.77,0.479-1.177,0.336c0.103,0.033-0.362-0.538-0.334-0.506
	c-0.311-0.373-0.313-0.342-0.672-0.502c-0.054-0.025-0.105-0.295-0.167-0.336c-0.077-0.051-0.25,0.039-0.336,0
	c-0.063-0.026-0.086-0.316-0.169-0.336c-0.742-0.177-1.429,0.271-2.014,0.168c-0.841-0.148-0.18-0.067-0.335,0.504
	c-0.047,0.168-1.092,0.705-1.176,0.84c0.028-0.043,0.333,0.162,0.337,0.168c0.348,0.734-0.433,0.513-0.504,0.504
	c-0.406-0.063,0.175,0.259,0.167,0.168c0.021,0.314-0.247,0.217,0,0.503c-0.08-0.095,0.153-0.379,0.168-0.336
	c0.146,0.437,0.073,1.2,0.338,1.679c0.021,0.044,0.45,0.115,0.502,0.168c0.027,0.027,0.156,0.319,0.168,0.337
	c0.251,0.388,1.438,0.677,2.015,0.671c0.583-0.006,1.184-0.549,2.013-0.337c0.417,0.107,0.544,0.933,0.672,1.007
	c0.18,0.109,0.395-0.156,0.495-0.164c-0.005,0.019,0.315,0.148,0.346,0.164c0.615,0.285,0.8-0.162,1.342-0.166
	c0.059,0-0.004,0.51,0.337,0.334c0.104-0.055-0.164-0.509-0.169-0.502c0.05-0.064,0.438-0.117,0.503-0.17
	C51.053,52.67,51.398,51.281,51.219,50.371z M5.729,48.356c-0.111-0.14-0.154,0.31-0.167,0.334
	C5.323,49.169,5.864,48.522,5.729,48.356z M51.073,53.758c0.075,0.07,0.074-0.396-0.021-0.03c-0.049,0.181-0.153,1.172,0.503,0.672
	C51.816,54.202,51.211,53.921,51.073,53.758z M83.785,54.399c0.033,0.021,0.164,0.307,0.338,0.166
	C84.237,54.472,83.14,54.026,83.785,54.399z M83.284,57.419c0.219,0.023,0.459,0.484,0.67,0.84c0.212,0.358,0.483,1.248,0.335,0.504
	C84.066,58.31,83.827,56.995,83.284,57.419z M29.229,58.094c-0.001,0.332-0.457,0.21-0.334,0.669
	C29.303,58.924,29.45,58.009,29.229,58.094z M73.715,61.282c0.312,0.439,0.5,0.568,0.335,0.334
	C74.013,61.565,73.437,60.894,73.715,61.282z M26.712,61.448c-0.175,0.338-0.899,0.781,0,0.84
	C26.573,61.89,27.091,61.054,26.712,61.448z M77.24,63.632c0.133,0.229,0.17,0.028,0-0.168C77.063,63.263,77.12,63.425,77.24,63.632
	z M83.115,67.157c0.013,0.433,1.146,1.605,0.839,1.175C83.705,67.91,83.536,67.407,83.115,67.157z M46.017,68.5
	C45.793,67.668,45.223,68.237,46.017,68.5L46.017,68.5z M13.619,70.683c-0.016,0.002,0.013,0.158,0,0.168
	c-0.069,0.051-0.274-0.059-0.336,0c-0.105,0.094,0.065,0.522,0.168,0.504C13.599,71.324,13.896,70.626,13.619,70.683z
	 M15.297,70.851C15.78,70.472,14.396,71.549,15.297,70.851L15.297,70.851z M75.561,72.528c0.134,0.23,0.17,0.027,0-0.168
	C75.385,72.161,75.442,72.321,75.561,72.528z M15.297,72.866c-0.015,0.016-0.671,0.729-0.167,0.502
	C15.06,73.397,15.671,72.42,15.297,72.866z"/>
</svg>
