<?xml version="1.0" encoding="utf-8"?>
<!-- Generator: Adobe Illustrator 16.0.3, SVG Export Plug-In . SVG Version: 6.00 Build 0)  -->
<!DOCTYPE svg PUBLIC "-//W3C//DTD SVG 1.1 Tiny//EN" "http://www.w3.org/Graphics/SVG/1.1/DTD/svg11-tiny.dtd">
<svg version="1.1" baseProfile="tiny" id="Layer_1" xmlns="http://www.w3.org/2000/svg" xmlns:xlink="http://www.w3.org/1999/xlink"
	 x="0px" y="0px" width="100px" height="108.699px" viewBox="0 0 100 108.699" xml:space="preserve">
<path fill-rule="evenodd" d="M27.945,79.938c0.187,5.964-2.801,10.037-7.749,12.854c-3.672,2.092-7.411,4.115-11.836,3.954
	c-2.906-0.106-5.109-1.433-6.445-4.066c-2.569-5.059-2.292-10.285-0.708-15.504c0.869-2.866,1.831-5.748,3.157-8.421
	c2.266-4.567,9.115-5.808,13.058-2.481c2.937,2.479,5.95,4.921,8.525,7.748c1.342,1.472,1.81,3.742,2.672,5.651
	C28.395,79.76,28.17,79.849,27.945,79.938z M50.675,20.295c-0.239,2.145-0.392,4.316-0.348,6.471c0.1,4.987,1.323,9.72,3.594,14.173
	c1.95,3.824,7.473,6.102,10.744,4.226c2.147-1.232,4.233-2.672,6.063-4.331c3.16-2.863,5.925-6.128,6.458-10.582
	c0.429-3.581,0.649-7.419-1.938-10.245c-4.242-4.632-10.278-5.379-16.022-6.594C54.599,13.01,51.189,15.682,50.675,20.295z
	 M43.368,76.616c-1.226-0.267-2.83,0.013-3.936,0.628c-2.174,1.208-4.065,2.913-6.177,4.249c-1.977,1.251-2.387,2.82-0.956,4.651
	c1.413,1.811,3.097,3.473,4.183,5.462c1.537,2.813,2.516,3.85,5.526,2.821c2.406-0.823,4.632-2.488,6.59-4.183
	c1.103-0.956,1.5-2.727,2.215-4.131C50.594,81.719,46.863,77.376,43.368,76.616z M86.322,16.607
	c-1.615,1.891-2.871,4.084-4.347,6.099c-1.186,1.618-0.623,3.649,1.126,4.679c2.05,1.206,3.88,2.791,5.955,3.945
	c1.14,0.635,2.663,1.18,3.876,0.972c3.577-0.615,5.652-3.241,6.633-6.495c2.011-6.67-3.251-10.839-9.957-11.737
	C88.837,14.647,87.337,15.42,86.322,16.607z M36.452,99.073c-0.523-0.979-1.345-1.793-1.915-2.751
	c-1.832-3.08-5.094-4.479-8.352-3.08c-2.018,0.867-3.786,2.341-5.605,3.629c-0.631,0.447-1.385,1.075-1.559,1.755
	c-0.792,3.083,1.286,8.942,5.667,9.396c1.634,0.169,3.262,0.407,4.893,0.614C34.281,109.395,38.622,103.133,36.452,99.073z
	 M71.481,2.246c-1.794,0.633-3.336,6.43-2.512,8.215c1.362,2.949,4.331,3.849,6.841,4.986c3.862,1.751,5.502,0.817,9.169-3.597
	c1.894-2.28,2.192-4.832,0.938-7.355C84.666,1.978,82.668,0.177,79.441,0C76.783,0.733,74.076,1.331,71.481,2.246z M38.157,60.141
	c-1.634-0.491-3.249-1.083-4.913-1.432c-3.563-0.748-5.619,1.554-7.359,4.063c-1.275,1.838-1.174,3.972,0.12,5.791
	c1.245,1.751,2.559,3.565,4.222,4.868c1.15,0.902,3.143,1.654,4.409,1.282c2.349-0.69,4.6-2.041,6.58-3.531
	c1.146-0.862,1.682-2.533,2.492-3.84C43.247,63.656,41.369,61.106,38.157,60.141z M87.869,48.933
	c2.757-0.544,4.177-2.316,4.79-4.856c0.689-2.852,0.08-5.293-2.537-6.99c-0.875-0.567-1.691-1.226-2.557-1.811
	c-2.384-1.613-6.171-1.252-8.171,0.886c-1.167,1.249-2.267,2.594-3.201,4.023c-2.119,3.242-1.86,5.513,1.05,8.15
	c1.115,1.01,2.599,1.614,3.82,2.345C83.639,50.01,85.73,49.355,87.869,48.933z"/>
</svg>
