<svg xmlns="http://www.w3.org/2000/svg" xmlns:se="http://svg-edit.googlecode.com" xmlns:xlink="http://www.w3.org/1999/xlink" id="svgcontent" width="205.65" height="395.85" x="0" y="0" viewBox="0 0 205.65 395.85" overflow="hidden"><g mask="" style="pointer-events:all"><title style="pointer-events:inherit">Layer 1</title><g id="svg_1" type="text" text="Chris" font-size="27.86370775230495" font-family="Afta sans" fill="000000" text-anchor="start" font-weight="normal" font-style="normal" lineHeight="1" shapeId="0" shapeVal="0" fill-opacity="1" display="null" elemBBoxWidth="62.4140625" style="pointer-events:inherit"><path id="svg_2" fill="#000000" stroke-width="0" d="M40.11641,105.86397C40.03283,96.89185 48.05758,93.60392 55.69223,96.27885C55.69223,96.27885 55.69223,97.97852 55.69223,97.97852C53.99254,97.17047 52.265,96.52962 50.3424,96.52962C49.89658,96.52962 42.40123,96.6968 42.40123,105.83609C42.40123,115.05898 49.59007,114.89181 50.3424,114.89181C52.59936,114.89181 54.41049,113.91657 55.88727,112.71844C55.88727,112.71844 55.88727,114.64102 55.88727,114.64102C55.0235,115.22617 53.04517,116.31285 50.3424,116.31285C43.7387,116.31285 40.20001,111.60389 40.11641,105.86397C40.11641,105.86397 40.11641,105.86397 40.11641,105.86397M69.73554,115.72771C69.73554,115.72771 69.73554,106.81133 69.73554,106.81133C69.73554,103.91349 68.56525,102.26954 66.22471,102.26954C63.68912,102.26954 61.46001,104.27573 61.46001,106.50482C61.46001,106.50482 61.46001,115.72771 61.46001,115.72771C61.46001,115.72771 59.62101,115.72771 59.62101,115.72771C59.62101,115.72771 59.62101,93.57607 59.62101,93.57607C59.62101,93.57607 61.46001,93.57607 61.46001,93.57607C61.46001,93.57607 61.46001,104.27573 61.46001,104.27573C62.21234,102.49245 64.80365,100.87636 67.06062,100.87636C69.65195,100.87636 71.51881,102.85468 71.51881,107.00638C71.51881,107.00638 71.51881,115.72771 71.51881,115.72771C71.51881,115.72771 69.73554,115.72771 69.73554,115.72771C69.73554,115.72771 69.73554,115.72771 69.73554,115.72771M77.3702,115.72771C77.3702,115.72771 75.4476,115.72771 75.4476,115.72771C75.4476,115.72771 75.4476,101.32218 75.4476,101.32218C75.4476,101.32218 76.9801,101.32218 76.9801,101.32218C76.9801,101.32218 77.3702,104.49865 77.3702,104.49865C78.12251,102.57605 79.04201,100.90422 81.41043,100.90422C82.60856,100.90422 83.27729,101.12713 83.63952,101.26644C83.63952,101.26644 83.52806,102.79896 83.52806,102.79896C82.44138,102.46459 82.05128,102.35313 81.41043,102.35313C79.51569,102.35313 77.3702,103.99709 77.3702,108.8175C77.3702,108.8175 77.3702,115.72771 77.3702,115.72771C77.3702,115.72771 77.3702,115.72771 77.3702,115.72771M87.95839,95.91661C87.95839,95.91661 85.58997,95.91661 85.58997,95.91661C85.58997,95.91661 85.58997,93.54821 85.58997,93.54821C85.58997,93.54821 87.95839,93.54821 87.95839,93.54821C87.95839,93.54821 87.95839,95.91661 87.95839,95.91661C87.95839,95.91661 87.95839,95.91661 87.95839,95.91661M86.06365,115.72771C86.06365,115.72771 86.06365,101.2943 86.06365,101.2943C86.06365,101.2943 87.95839,101.2943 87.95839,101.2943C87.95839,101.2943 87.95839,115.72771 87.95839,115.72771C87.95839,115.72771 86.06365,115.72771 86.06365,115.72771C86.06365,115.72771 86.06365,115.72771 86.06365,115.72771M96.42896,101.01567C98.96455,101.01567 100.74783,101.87946 101.77879,102.32528C101.77879,102.74322 101.80665,103.3005 101.80665,103.66272C99.99551,102.88254 98.32369,102.18594 96.42896,102.18594C94.95218,102.18594 93.41969,102.52031 93.41969,104.66582C93.41969,106.4491 94.45064,106.83919 96.67973,107.39647C100.60852,108.39956 102.53112,109.62555 102.53112,111.88252C102.53112,114.55744 100.21842,116.14568 96.81906,116.14568C93.92122,116.14568 91.80359,115.00326 91.107,114.52957C91.107,113.88871 91.13486,113.35929 91.13486,112.71844C92.83455,113.72152 94.72927,114.75247 96.81906,114.75247C98.79738,114.75247 100.58066,114.1952 100.58066,111.88252C100.58066,109.9878 98.18439,109.37478 95.398,108.59459C92.33299,107.73083 91.44137,106.53268 91.44137,104.6101C91.44137,103.27264 92.27727,101.01567 96.42896,101.01567C96.42896,101.01567 96.42896,101.01567 96.42896,101.01567" style="pointer-events:inherit"/><rect id="svg_3" x="40.11718776545116" y="93.55033754514068" width="62.41406176336119" height="22.76154812825815" fill="#000000" opacity="0" style="pointer-events:inherit"/></g><g id="svg_4" type="text" text="family" font-size="50.088385018230554" font-family="Afta sans" fill="000000" text-anchor="start" font-weight="normal" font-style="normal" lineHeight="1" shapeId="0" shapeVal="0" fill-opacity="1" display="null" elemBBoxWidth="126.83084106445312" style="pointer-events:inherit"><path id="svg_5" fill="#77a806" stroke-width="0" d="M59.90434,129.09412C59.90434,129.09412 59.95441,131.64864 59.95441,131.64864C58.15124,130.69695 56.5484,130.146 54.39461,130.146C46.43055,130.146 47.78294,134.65395 47.63268,140.61446C47.63268,140.61446 54.09408,140.61446 54.09408,140.61446C54.09408,140.61446 54.09408,142.76825 54.09408,142.76825C54.09408,142.76825 47.63268,142.76825 47.63268,142.76825C47.63268,142.76825 47.63268,166.56024 47.63268,166.56024C47.63268,166.56024 44.42702,166.56024 44.42702,166.56024C44.42702,166.56024 44.42702,142.76825 44.42702,142.76825C44.42702,142.76825 40.11943,142.76825 40.11943,142.76825C40.11943,142.76825 40.11943,140.61446 40.11943,140.61446C40.11943,140.61446 44.42702,140.61446 44.42702,140.61446C44.42702,140.61446 44.42702,138.36047 44.42702,138.36047C44.42702,129.89554 47.98328,127.54139 54.39461,127.54139C57.14947,127.54139 58.95265,128.49307 59.90434,129.09412C59.90434,129.09412 59.90434,129.09412 59.90434,129.09412M72.57668,161.65158C72.57668,161.65158 72.67686,152.88612 72.67686,152.88612C69.67155,153.63744 67.8183,153.63744 65.56432,153.63744C63.16007,153.63744 60.10468,153.58734 60.10468,159.19727C60.10468,166.51015 68.71988,165.85899 72.57668,161.65158C72.57668,161.65158 72.57668,161.65158 72.57668,161.65158M75.93262,149.98097C75.93262,149.98097 75.93262,166.56024 75.93262,166.56024C75.93262,166.56024 73.57845,166.56024 73.57845,166.56024C73.57845,166.56024 71.92554,164.70699 71.92554,164.70699C69.62148,165.9091 67.46767,166.91084 63.36043,166.91084C59.50363,166.91084 56.79885,164.2061 56.79885,159.14716C56.79885,155.14006 58.65213,151.48364 64.86309,151.48364C69.9721,151.48364 71.12413,151.48364 72.57668,150.13124C72.57668,143.01872 71.12413,142.26736 66.76643,142.26736C63.31033,142.26736 60.9061,143.16898 59.35336,143.77003C59.00274,142.81834 58.90255,142.41762 58.50186,141.56615C65.91493,138.96152 75.93262,137.55905 75.93262,149.98097C75.93262,149.98097 75.93262,149.98097 75.93262,149.98097M112.34686,166.56024C112.34686,166.56024 112.34686,150.03108 112.34686,150.03108C112.34686,145.37286 111.74581,142.31746 107.68864,142.31746C102.62972,142.31746 100.37573,146.52487 100.37573,150.53197C100.37573,150.53197 100.37573,166.56024 100.37573,166.56024C100.37573,166.56024 96.96973,166.56024 96.96973,166.56024C96.96973,166.56024 96.96973,150.53197 96.96973,150.53197C96.96973,145.27266 96.01805,142.31746 92.4117,142.31746C87.35276,142.31746 85.09879,147.57677 85.09879,151.38344C85.09879,151.38344 85.09879,166.56024 85.09879,166.56024C85.09879,166.56024 81.79295,166.56024 81.79295,166.56024C81.79295,166.56024 81.79295,140.66457 81.79295,140.66457C81.79295,140.66457 84.74816,140.66457 84.74816,140.66457C84.74816,140.66457 85.04868,146.17429 85.04868,146.17429C86.40108,142.1171 89.50657,139.86314 93.91434,139.86314C96.76937,139.86314 98.72282,141.7164 99.92494,146.17429C101.37752,142.86845 104.33272,139.86314 109.24139,139.86314C113.44881,139.86314 115.35217,142.96861 115.40225,150.3817C115.40225,150.3817 115.55251,166.56024 115.55251,166.56024C115.55251,166.56024 112.34686,166.56024 112.34686,166.56024C112.34686,166.56024 112.34686,166.56024 112.34686,166.56024M125.62028,130.94739C125.62028,130.94739 121.36277,130.94739 121.36277,130.94739C121.36277,130.94739 121.36277,126.6899 121.36277,126.6899C121.36277,126.6899 125.62028,126.6899 125.62028,126.6899C125.62028,126.6899 125.62028,130.94739 125.62028,130.94739C125.62028,130.94739 125.62028,130.94739 125.62028,130.94739M122.21426,166.56024C122.21426,166.56024 122.21426,140.61446 122.21426,140.61446C122.21426,140.61446 125.62028,140.61446 125.62028,140.61446C125.62028,140.61446 125.62028,166.56024 125.62028,166.56024C125.62028,166.56024 122.21426,166.56024 122.21426,166.56024C122.21426,166.56024 122.21426,166.56024 122.21426,166.56024M136.99034,166.56024C136.99034,166.56024 133.68451,166.56024 133.68451,166.56024C133.68451,166.56024 133.68451,126.79007 133.68451,126.79007C133.68451,126.79007 136.99034,126.79007 136.99034,126.79007C136.99034,126.79007 136.99034,166.56024 136.99034,166.56024C136.99034,166.56024 136.99034,166.56024 136.99034,166.56024M153.41933,169.16484C153.41933,169.16484 142.04927,140.61446 142.04927,140.61446C142.04927,140.61446 145.45531,140.61446 145.45531,140.61446C145.45531,140.61446 155.12234,166.56024 155.12234,166.56024C155.12234,166.56024 163.5372,140.61446 163.5372,140.61446C163.5372,140.61446 166.94321,140.61446 166.94321,140.61446C166.94321,140.61446 153.87013,177.17897 153.87013,177.17897C153.87013,177.17897 150.965,177.17897 150.965,177.17897C150.965,177.17897 153.41933,169.16484 153.41933,169.16484" style="pointer-events:inherit"/><rect id="svg_6" x="40.11718611156738" y="126.69141069288861" width="126.8308316782235" height="50.483720343580984" fill="#77a806" opacity="0" style="pointer-events:inherit"/></g><g id="svg_7" type="text" text="Reunion 2016" font-size="20.79378954049915" font-family="Afta sans" fill="000000" text-anchor="start" font-weight="normal" font-style="normal" lineHeight="1" shapeId="0" shapeVal="0" fill-opacity="1" display="null" elemBBoxWidth="127.02734375" stroke="null" stroke-dasharray="none" style="pointer-events:inherit"><path id="svg_12" fill="#000000" stroke-width="0" d="M41.42833,187.3029C41.42833,187.3029 45.10872,187.3029 45.10872,187.3029C47.87421,187.3029 48.62276,185.66023 48.62276,184.43344C48.62276,183.12347 47.72866,181.60558 45.10872,181.60558C45.10872,181.60558 41.42833,181.60558 41.42833,181.60558C41.42833,181.60558 41.42833,187.3029 41.42833,187.3029C41.42833,187.3029 41.42833,187.3029 41.42833,187.3029M40.11837,180.69067C40.11837,180.69067 45.10872,180.69067 45.10872,180.69067C48.47721,180.69067 50.0367,182.20857 50.0367,184.24631C50.0367,186.57513 48.24849,187.65637 46.81376,187.82272C48.24849,188.15541 48.66435,189.13269 49.10101,190.21394C49.10101,190.21394 51.2427,195.55779 51.2427,195.55779C51.2427,195.55779 49.87035,195.55779 49.87035,195.55779C48.2069,191.35756 47.6039,189.83966 47.49993,189.61093C47.08407,188.71683 46.54345,188.32176 45.60776,188.32176C45.60776,188.32176 41.42833,188.32176 41.42833,188.32176C41.42833,188.32176 41.42833,195.55779 41.42833,195.55779C41.42833,195.55779 40.11837,195.55779 40.11837,195.55779C40.11837,195.55779 40.11837,180.69067 40.11837,180.69067C40.11837,180.69067 40.11837,180.69067 40.11837,180.69067M60.99469,189.19507C60.89072,187.15735 60.18375,185.4523 57.95889,185.4523C55.54688,185.4523 54.61119,187.2821 54.61119,189.21587C54.61119,189.21587 60.99469,189.19507 60.99469,189.19507M57.95889,195.03795C59.64314,195.03795 60.70358,193.99829 61.14024,193.3537C61.78483,193.85274 61.90958,193.97749 62.05514,194.08147C60.78676,195.57857 59.28965,195.89047 57.95889,195.89047C54.25771,195.89047 53.07249,193.76956 53.07249,190.42188C53.07249,186.69989 54.5696,184.49582 57.95889,184.49582C60.78676,184.49582 62.24228,186.28403 62.22148,190.08917C62.22148,190.08917 54.44485,190.06839 54.44485,190.06839C54.44485,192.97943 54.65278,195.03795 57.95889,195.03795C57.95889,195.03795 57.95889,195.03795 57.95889,195.03795M65.83949,184.78693C65.83949,184.78693 65.83949,191.64867 65.83949,191.64867C65.83949,193.79036 66.33852,194.97557 68.16833,194.97557C70.01891,194.97557 72.05664,193.58243 72.05664,191.31598C72.05664,191.31598 72.05664,184.78693 72.05664,184.78693C72.05664,184.78693 73.4082,184.78693 73.4082,184.78693C73.4082,184.78693 73.4082,195.55779 73.4082,195.55779C73.4082,195.55779 72.16061,195.55779 72.16061,195.55779C72.16061,195.55779 72.05664,193.31212 72.05664,193.31212C71.41206,194.97557 69.89416,195.91125 67.83563,195.91125C65.98505,195.91125 64.42556,194.78844 64.42556,191.46153C64.42556,191.46153 64.42556,184.78693 64.42556,184.78693C64.42556,184.78693 65.83949,184.78693 65.83949,184.78693C65.83949,184.78693 65.83949,184.78693 65.83949,184.78693M83.99191,195.55779C83.99191,195.55779 83.99191,188.90396 83.99191,188.90396C83.99191,186.74149 83.1186,185.51468 81.37198,185.51468C79.4798,185.51468 77.81635,187.0118 77.81635,188.67525C77.81635,188.67525 77.81635,195.55779 77.81635,195.55779C77.81635,195.55779 76.444,195.55779 76.444,195.55779C76.444,195.55779 76.444,184.78693 76.444,184.78693C76.444,184.78693 77.67079,184.78693 77.67079,184.78693C77.67079,184.78693 77.79556,186.92862 77.79556,186.92862C78.33617,185.61865 80.31152,184.47502 81.99577,184.47502C83.97112,184.47502 85.32268,185.95134 85.32268,189.04951C85.32268,189.04951 85.32268,195.55779 85.32268,195.55779C85.32268,195.55779 83.99191,195.55779 83.99191,195.55779C83.99191,195.55779 83.99191,195.55779 83.99191,195.55779M89.75161,180.77385C89.75161,180.77385 87.98419,180.77385 87.98419,180.77385C87.98419,180.77385 87.98419,179.00642 87.98419,179.00642C87.98419,179.00642 89.75161,179.00642 89.75161,179.00642C89.75161,179.00642 89.75161,180.77385 89.75161,180.77385C89.75161,180.77385 89.75161,180.77385 89.75161,180.77385M88.33768,195.55779C88.33768,195.55779 88.33768,184.78693 88.33768,184.78693C88.33768,184.78693 89.75161,184.78693 89.75161,184.78693C89.75161,184.78693 89.75161,195.55779 89.75161,195.55779C89.75161,195.55779 88.33768,195.55779 88.33768,195.55779C88.33768,195.55779 88.33768,195.55779 88.33768,195.55779M93.63993,190.13077C93.63993,194.68446 95.74004,194.95477 97.29953,194.95477C98.50553,194.95477 100.62643,194.93398 100.62643,190.13077C100.62643,185.4731 98.48473,185.43152 97.0708,185.43152C95.63608,185.43152 93.63993,185.36913 93.63993,190.13077C93.63993,190.13077 93.63993,190.13077 93.63993,190.13077M97.0708,184.47502C101.06309,184.47502 102.18592,187.03258 102.18592,190.13077C102.18592,193.89432 101.10468,195.91125 97.29953,195.91125C93.49438,195.91125 92.20521,193.20815 92.20521,190.13077C92.20521,186.51276 93.4528,184.47502 97.0708,184.47502C97.0708,184.47502 97.0708,184.47502 97.0708,184.47502M112.14584,195.55779C112.14584,195.55779 112.14584,188.90396 112.14584,188.90396C112.14584,186.74149 111.27252,185.51468 109.52589,185.51468C107.63373,185.51468 105.97027,187.0118 105.97027,188.67525C105.97027,188.67525 105.97027,195.55779 105.97027,195.55779C105.97027,195.55779 104.59792,195.55779 104.59792,195.55779C104.59792,195.55779 104.59792,184.78693 104.59792,184.78693C104.59792,184.78693 105.82471,184.78693 105.82471,184.78693C105.82471,184.78693 105.94948,186.92862 105.94948,186.92862C106.4901,185.61865 108.46545,184.47502 110.1497,184.47502C112.12505,184.47502 113.47659,185.95134 113.47659,189.04951C113.47659,189.04951 113.47659,195.55779 113.47659,195.55779C113.47659,195.55779 112.14584,195.55779 112.14584,195.55779C112.14584,195.55779 112.14584,195.55779 112.14584,195.55779M122.87511,194.55971C122.87511,194.55971 131.33792,194.55971 131.33792,194.55971C131.33792,194.55971 131.33792,195.55779 131.33792,195.55779C131.33792,195.55779 121.14928,195.55779 121.14928,195.55779C121.21165,191.27438 123.4989,189.73569 126.74263,188.07224C128.71797,187.05338 129.52892,185.80579 129.52892,184.39186C129.52892,182.91554 128.53084,181.43922 126.13962,181.43922C124.20586,181.43922 123.22859,182.49968 122.77113,183.0611C122.37607,182.74919 122.12656,182.52048 121.73148,182.25017C122.45924,181.31447 124.1227,180.46194 126.11884,180.46194C129.38336,180.46194 130.85966,182.27095 130.85966,184.39186C130.85966,186.388 129.71605,188.03065 127.1377,189.29904C124.91283,190.38028 122.97906,191.98135 122.87511,194.55971C122.87511,194.55971 122.87511,194.55971 122.87511,194.55971M139.65517,181.46002C136.93127,181.46002 135.10149,183.14427 135.10149,188.46732C135.10149,193.62401 137.18079,195.03795 139.65517,195.03795C142.12956,195.03795 144.06332,193.22894 144.06332,188.32176C144.06332,183.22743 142.12956,181.46002 139.65517,181.46002C139.65517,181.46002 139.65517,181.46002 139.65517,181.46002M139.65517,180.52432C142.00481,180.52432 145.43567,181.5016 145.43567,188.32176C145.43567,194.97557 141.7345,195.89047 139.65517,195.89047C137.55507,195.89047 133.68753,194.97557 133.68753,188.32176C133.68753,181.75113 136.80652,180.52432 139.65517,180.52432C139.65517,180.52432 139.65517,180.52432 139.65517,180.52432M149.63589,180.46194C149.63589,180.46194 151.34093,180.46194 151.34093,180.46194C151.34093,180.46194 151.34093,195.55779 151.34093,195.55779C151.34093,195.55779 149.96858,195.55779 149.96858,195.55779C149.96858,195.55779 149.96858,181.5432 149.96858,181.5432C149.96858,181.5432 148.20116,182.02144 148.20116,182.02144C148.20116,182.02144 148.20116,181.41844 148.20116,181.41844C148.22195,181.41844 149.17844,180.79465 149.63589,180.46194C149.63589,180.46194 149.63589,180.46194 149.63589,180.46194M157.84918,191.00407C157.84918,192.7299 159.20073,194.93398 161.59195,194.93398C166.70706,194.93398 166.95657,187.3029 162.17416,187.3029C160.09483,187.3029 158.51456,189.11189 157.84918,191.00407C157.84918,191.00407 157.84918,191.00407 157.84918,191.00407M166.87341,181.85509C166.87341,181.85509 166.79024,183.0611 166.79024,183.0611C165.81296,182.4581 164.02475,181.48082 162.07019,181.48082C157.7868,181.48082 157.41252,186.72069 157.57887,189.63173C157.91156,188.61287 159.57501,186.30482 162.17416,186.30482C168.82796,186.30482 168.95273,195.7657 161.61275,195.7657C158.28584,195.7657 156.16493,194.03987 156.16493,188.15541C156.16493,179.87975 162.07019,179.19357 166.87341,181.85509C166.87341,181.85509 166.87341,181.85509 166.87341,181.85509" style="pointer-events:inherit"/><rect id="svg_13" x="40.11718792933971" y="179.0078153964132" width="127.02343855984509" height="16.904874469153583" fill="#000000" opacity="0" style="pointer-events:inherit"/></g><g id="svg_17" display="null" fill-opacity="1" transform="" clip-id="419"><path d="M138.23648,123.31488L138.23648,146.86115L135.41808,146.86115L135.41808,123.33328C135.3093,119.13846 135.26691,114.94406 135.24721,110.74966C135.27847,104.78954 135.34613,98.82983 135.59795,92.86972C135.83093,86.91002 136.17354,80.94989 136.82707,74.98978C137.48102,80.94946 137.8232,86.91002 138.05574,92.86972C138.30843,98.82983 138.37523,104.78954 138.40649,110.74966C138.38722,114.93764 138.34439,119.12732 138.23648,123.31488zM138.43477,101.46664L151.41496,101.46664C151.41496,101.46664 159.97206,102.25508 156.27103,92.11084C152.30916,81.25653 138.43477,101.46664 138.43477,101.46664zM138.43477,85.83038L147.42912,85.83038C147.42912,85.83038 153.35628,86.3764 150.79141,79.34863C148.04881,71.82834 138.43477,85.83038 138.43477,85.83038zM116.78654,92.11084C113.08379,102.25508 121.64175,101.46664 121.64175,101.46664L134.62238,101.46664C134.62238,101.46664 120.74797,81.25653 116.78654,92.11084zM139.19579,120.11703L155.33955,120.11703C155.33955,120.11703 165.98273,121.24936 161.37848,106.70172C156.45261,91.13782 139.19579,120.11703 139.19579,120.11703zM112.27223,106.70172C107.66585,121.24893 118.30858,120.11703 118.30858,120.11703L134.45491,120.11703C134.45491,120.11703 117.19725,91.13782 112.27223,106.70172zM122.26616,79.34863C119.70172,86.3764 125.62845,85.83038 125.62845,85.83038L134.62238,85.83038C134.62238,85.83038 125.0096,71.82834 122.26616,79.34863z" id="svg_18" fill="#77a806"/></g></g><defs><mask id="canvasMaskImageDef" maskUnits="objectBoundingBox" x="0" y="0"><image xmlns:xlink="http://www.w3.org/1999/xlink" id="canvasMaskImage" preserveAspectRatio="none" x="-103.65" y="-36.45" width="400" height="440.0580551523948" xlink:href="http://allinonedesigner.designnbuy.in/media/catalog/product/w/h/white-tees-1_-front_1_3.png"/></mask></defs></svg>