<?xml version="1.0" encoding="utf-8"?>
<!-- Generator: Adobe Illustrator 16.0.0, SVG Export Plug-In . SVG Version: 6.00 Build 0)  -->
<!DOCTYPE svg PUBLIC "-//W3C//DTD SVG 1.1//EN" "http://www.w3.org/Graphics/SVG/1.1/DTD/svg11.dtd">
<svg version="1.1"
	 id="svg1" xmlns:cc="http://web.resource.org/cc/" xmlns:dc="http://purl.org/dc/elements/1.1/" xmlns:rdf="http://www.w3.org/1999/02/22-rdf-syntax-ns#" xmlns:inkscape="http://www.inkscape.org/namespaces/inkscape" xmlns:sodipodi="http://sodipodi.sourceforge.net/DTD/sodipodi-0.dtd" inkscape:version="0.40" sodipodi:docname="Hochrad.svg" sodipodi:docbase="/home/tobias/Desktop/SVG" sodipodi:version="0.32"
	 xmlns="http://www.w3.org/2000/svg" xmlns:xlink="http://www.w3.org/1999/xlink" x="0px" y="0px" width="288.131px" height="288px"
	 viewBox="0 0 288.131 288" enable-background="new 0 0 288.131 288" xml:space="preserve">
<path fill="none" stroke="#7C7C7C" stroke-width="1.0538" d="M247.132,183.759l-2.2,33.972 M262.039,187.425l-14.907,34.457
	 M274.503,196.711l-29.571,20.528 M280.124,211.13l-31.281,8.798 M279.635,226.283l-33.969-8.555 M272.549,240.7l-26.639-21.749
	 M260.084,249.499c-0.488-0.979-14.418-30.548-14.418-30.548 M244.688,253.898l2.443-33.971 M230.025,250.721l15.396-33.236
	 M217.806,241.922l30.792-22.482 M210.719,213.329l37.879,7.577 M217.357,197.566l29.529,22.851 M248.164,220.661
	c0.001,0.811-0.654,1.468-1.465,1.468c-0.812,0.001-1.468-0.654-1.468-1.466c0,0,0-0.001,0-0.002
	c-0.001-0.81,0.654-1.467,1.466-1.468c0.809,0,1.466,0.654,1.467,1.466C248.164,220.66,248.164,220.661,248.164,220.661z
	 M245.72,217.484c0.001,0.811-0.653,1.468-1.465,1.469c-0.81,0.001-1.467-0.655-1.468-1.466c0-0.001,0-0.002,0-0.003
	c-0.001-0.811,0.655-1.468,1.466-1.468c0.812-0.001,1.467,0.655,1.467,1.466C245.72,217.483,245.72,217.484,245.72,217.484z
	 M281.148,218.951c0,19.431-15.752,35.184-35.185,35.184c-19.432,0-35.185-15.753-35.185-35.184
	c0-19.433,15.753-35.186,35.185-35.186C265.396,183.766,281.148,199.519,281.148,218.951z M94.147,75.742l19.551,95.31
	 M75.575,81.118l38.124,90.176 M57.979,89.427l57.674,82.357 M115.41,171.541l-72.827-70.627 M31.83,115.577l83.823,53.764
	 M114.676,172.274l-90.422-41.058 M18.39,148.813l96.287,18.572 M112.231,170.807l-94.086-4.645 M26.942,200.133l87-29.57
	 M114.673,167.142l-79.23,47.626 M47.821,228.339l67.099-59.225 M61.937,239.445l52.242-71.07 M77.781,247.094l36.147-78.72
	 M94.394,252.188l20.283-84.313 M130.228,251.115l-15.14-84.219 M146.569,246.581l-35.327-76.582 M162.19,239.902l-45.901-70.858
	 M176.129,229.881l-65.606-59.883 M112.966,165.674l74.04,51.663 M112.722,172.274l83.043,31.407 M113.698,165.43l88.892,22.522
	 M206.585,171.298l-94.107,0.727 M113.21,165.674l93.599-12.952 M112.966,172.274l88.955-37.392 M113.454,166.652l81.623-47.166
	 M182.859,104.823l-65.984,64.517 M169.174,92.115l-55.72,73.559 M153.289,82.339l-39.835,87.979 M113.698,169.83l20.771-93.6
	 M206.51,163.476c0,49.671-42.131,89.937-94.102,89.937c-51.972,0-94.103-40.266-94.103-89.937s42.131-89.937,94.103-89.937
	C164.379,73.54,206.51,113.805,206.51,163.476z"/>
<path stroke="#000000" stroke-width="2.5762" d="M114.69,50.773c0,0-2.467-0.805-3.004,0.322c-0.537,1.125-0.482,5.254-0.482,5.254
	s-0.055,2.573,0.375,3.002c0.429,0.43,6.059,1.021,6.059,1.021s3.271-0.322,4.021,0.215c0.751,0.536,4.074,4.075,5.684,5.093
	s23.004,8.793,23.647,9.33c0.644,0.536,0.375,1.608,1.071,2.038c0.697,0.431,2.252-0.644,3.379-0.269
	c1.125,0.375,22.091,12.064,28.739,19.731s16.782,19.571,20.27,28.85c3.484,9.274,7.936,21.231,8.473,23.537
	c0.534,2.307,8.149,29.115,8.149,29.115s0.376,0.591,0.214,0.966c-0.161,0.375-1.34,0.751-1.072,1.557
	c0.268,0.805,1.877,0.805,1.877,0.805s1.395,5.039,1.395,5.845s0.376,3.271,0.751,4.396s2.573,6.381,4.719,9.384
	s3.968,5.63,5.521,7.506c1.557,1.877,7.238,8.365,7.238,8.365l3.003-2.467c0,0-4.288-2.842-6.97-7.454
	c-2.682-4.61-7.829-15.71-8.204-17.104c-0.376-1.394-8.096-25.897-9.276-30.401c-1.18-4.504-7.506-27.293-11.688-35.335
	c-4.185-8.043-10.832-18.769-15.604-24.022c-4.771-5.255-19.518-19.84-26.81-22.95c-7.292-3.109-10.938-5.094-11.637-5.309
	c-0.696-0.214-1.18-4.826,0.377-5.094c1.556-0.269,11.1,5.361,14.638,5.309c3.539-0.053,4.451-4.826,4.451-4.826
	s0.481-1.019,0.75-1.501c0.269-0.483,7.668-3.968,7.399-6.595c-0.27-2.628-5.631-3.861-6.917-4.075
	c-1.286-0.215-23.325-0.698-24.235-0.805c-0.913-0.107-4.397,0.215-4.934-0.054c-0.537-0.27-1.287-1.557-2.574-1.502
	s-2.521,0.965-3.324,2.146c-0.805,1.181-1.233,2.358-0.805,2.949c0.43,0.59,7.024,1.286,8.15,1.555
	c1.125,0.269,5.469,1.608,6.059,2.252s3.646,1.608,4.236,1.931c0.59,0.321,3.271,3.271,5.201,3.752
	c1.93,0.483,7.291-0.269,7.827-0.75c0.536-0.482,1.287-0.645,1.287-0.645s1.18,5.041-2.145,4.396
	c-3.325-0.644-4.236-0.429-7.561-2.145c-3.325-1.716-4.987-3.593-6.864-3.217c-1.876,0.376-2.842,1.77-2.949,3.057
	c-0.105,1.287,0,3.271,0,3.271s-8.203-3.432-9.275-3.807s-8.471-2.574-8.471-2.574s-2.039-0.43-2.843-1.233
	c-0.804-0.806-4.396-6.597-6.381-7.507c-1.983-0.912-9.599-2.307-9.599-2.307L114.69,50.773z M114.731,35.907l-1.955,135.877
	 M119.374,39.573l-9.042-6.354 M112.287,33.463c0,0.811-0.655,1.467-1.466,1.469c-0.809,0-1.467-0.656-1.467-1.466
	c0-0.001,0-0.002,0-0.003c0-0.811,0.655-1.467,1.465-1.467s1.468,0.654,1.468,1.465C112.287,33.461,112.287,33.462,112.287,33.463z
	 M120.106,39.328c0,0.811-0.654,1.467-1.465,1.468c-0.81,0-1.467-0.655-1.468-1.465c0-0.001,0-0.001,0-0.002
	c0-0.81,0.655-1.468,1.466-1.468C119.449,37.861,120.106,38.518,120.106,39.328L120.106,39.328z M116.196,47.393
	c0,0.811-0.654,1.467-1.465,1.467c-0.81,0-1.467-0.654-1.467-1.465c0,0,0,0,0-0.002c0-0.81,0.655-1.467,1.465-1.467
	c0.812,0,1.467,0.655,1.469,1.465C116.196,47.393,116.196,47.393,116.196,47.393z M115.953,64.255c0,0.81-0.656,1.468-1.466,1.468
	c-0.809,0-1.467-0.654-1.467-1.465c0,0,0-0.001,0-0.002c0-0.811,0.654-1.467,1.465-1.468c0.81,0,1.467,0.655,1.468,1.465V64.255z
	 M118.151,171.784c0.002,3.509-2.84,6.355-6.35,6.357c-3.509,0.003-6.355-2.84-6.357-6.351c0-0.002,0-0.005,0-0.008
	c-0.002-3.509,2.84-6.355,6.35-6.357s6.355,2.841,6.357,6.351C118.151,171.779,118.151,171.782,118.151,171.784z M119.129,165.186
	c0.002,3.511-2.84,6.355-6.351,6.358c-3.508,0.002-6.354-2.841-6.357-6.35c0-0.003,0-0.007,0-0.01
	c-0.002-3.51,2.842-6.354,6.352-6.356c3.509-0.003,6.354,2.841,6.357,6.349C119.129,165.18,119.129,165.183,119.129,165.186z
	 M111.554,173.496l-1.466,33.479 M105.849,201.509c0,0.338-0.049,7.599-0.049,7.599l8.27-3.75l-0.288-7.404L105.849,201.509z
	 M106.089,204.828c0.289,0,7.887-3.077,7.887-3.077 M111.413,206.325c0,0.877-0.711,1.588-1.588,1.588s-1.588-0.711-1.588-1.588
	s0.711-1.589,1.588-1.589S111.413,205.448,111.413,206.325z M111.438,200.202c0,0.877-0.711,1.588-1.588,1.588
	s-1.588-0.711-1.588-1.588c0-0.878,0.711-1.589,1.588-1.589S111.438,199.324,111.438,200.202z"/>
</svg>
