<?xml version="1.0" encoding="utf-8"?>
<!-- Generator: Adobe Illustrator 16.0.0, SVG Export Plug-In . SVG Version: 6.00 Build 0)  -->
<!DOCTYPE svg PUBLIC "-//W3C//DTD SVG 1.1//EN" "http://www.w3.org/Graphics/SVG/1.1/DTD/svg11.dtd">
<svg version="1.1" id="Layer_1" xmlns="http://www.w3.org/2000/svg" xmlns:xlink="http://www.w3.org/1999/xlink" x="0px" y="0px"
	 width="25.743px" height="25.742px" viewBox="1.508 1.175 25.743 25.742" enable-background="new 1.508 1.175 25.743 25.742"
	 xml:space="preserve">
<path d="M6.63,21.796l-5.122,5.121H27.25V1.175L6.63,21.796z M18.702,10.48c0.187-0.183,0.48-0.183,0.664,0l1.16,1.159
	c0.184,0.183,0.186,0.48,0.002,0.663c-0.092,0.091-0.213,0.137-0.332,0.137c-0.121,0-0.24-0.046-0.33-0.137l-1.164-1.159
	C18.519,10.96,18.519,10.664,18.702,10.48z M17.101,12.084c0.185-0.183,0.479-0.183,0.662,0l2.155,2.154
	c0.185,0.183,0.185,0.479,0.002,0.66c-0.092,0.093-0.213,0.14-0.334,0.14s-0.239-0.046-0.33-0.138l-2.155-2.153
	C16.917,12.564,16.917,12.267,17.101,12.084z M15.497,13.686c0.185-0.184,0.48-0.184,0.664,0l1.16,1.16
	c0.184,0.184,0.182,0.48-0.002,0.663c-0.092,0.093-0.211,0.138-0.33,0.138c-0.121,0-0.24-0.045-0.332-0.138l-1.16-1.159
	C15.314,14.166,15.314,13.868,15.497,13.686z M13.896,15.288c0.185-0.183,0.479-0.181,0.664,0.002l1.157,1.159
	c0.184,0.184,0.184,0.48,0,0.662c-0.092,0.093-0.211,0.139-0.331,0.139c-0.119,0-0.24-0.046-0.332-0.139l-1.158-1.16
	C13.713,15.768,13.713,15.471,13.896,15.288z M12.293,16.893c0.183-0.185,0.479-0.185,0.663,0l2.154,2.152
	c0.184,0.184,0.184,0.48,0,0.665c-0.092,0.092-0.211,0.138-0.33,0.138c-0.121,0-0.242-0.046-0.334-0.138l-2.153-2.155
	C12.11,17.371,12.11,17.075,12.293,16.893z M10.302,24.516c-0.091,0.092-0.212,0.139-0.332,0.139c-0.119,0-0.238-0.045-0.33-0.137
	l-2.154-2.153c-0.184-0.183-0.184-0.479,0-0.663s0.479-0.184,0.662,0l2.154,2.152C10.485,24.036,10.485,24.332,10.302,24.516z
	 M10.912,21.918c-0.093,0.093-0.214,0.139-0.333,0.139c-0.12,0-0.24-0.045-0.33-0.137l-1.162-1.161
	c-0.184-0.183-0.184-0.479,0-0.659c0.184-0.186,0.48-0.188,0.664-0.004l1.161,1.162C11.095,21.438,11.095,21.734,10.912,21.918z
	 M12.513,20.316c-0.092,0.092-0.211,0.138-0.332,0.138c-0.119,0-0.239-0.046-0.331-0.138l-1.159-1.16
	c-0.184-0.184-0.184-0.48,0-0.664s0.48-0.182,0.663,0.002l1.159,1.161C12.696,19.838,12.696,20.135,12.513,20.316z M22.25,21.917
	h-8.67l8.67-8.67V21.917z M22.129,10.7c-0.09,0.092-0.211,0.138-0.33,0.138c-0.12,0-0.241-0.046-0.334-0.138l-1.159-1.159
	c-0.185-0.183-0.185-0.479,0-0.663c0.182-0.183,0.479-0.183,0.661,0l1.16,1.159C22.312,10.221,22.313,10.517,22.129,10.7z
	 M24.726,10.092c-0.093,0.092-0.213,0.137-0.332,0.137s-0.24-0.045-0.33-0.137l-2.153-2.154c-0.185-0.183-0.185-0.481,0-0.664
	c0.184-0.183,0.481-0.181,0.664,0.002l2.153,2.154C24.911,9.613,24.909,9.91,24.726,10.092z"/>
</svg>
