<?xml version="1.0" encoding="utf-8"?>
<!-- Generator: Adobe Illustrator 16.0.0, SVG Export Plug-In . SVG Version: 6.00 Build 0)  -->
<!DOCTYPE svg PUBLIC "-//W3C//DTD SVG 1.1//EN" "http://www.w3.org/Graphics/SVG/1.1/DTD/svg11.dtd">
<svg version="1.1" id="Layer_1" xmlns="http://www.w3.org/2000/svg" xmlns:xlink="http://www.w3.org/1999/xlink" x="0px" y="0px"
	 width="288.131px" height="288px" viewBox="0 0 288.131 288" enable-background="new 0 0 288.131 288" xml:space="preserve">
<path stroke="#000000" stroke-width="2.0341" stroke-linecap="round" stroke-linejoin="round" d="M41.841,135.404
	c10.164-11.829,119.405,0,119.405,0v47.426c-20.632-2.984-36.328,3.568-56.69-1.919c-6.644-2.81-10.69-14.021-23.375-14.062
	c-14.022-0.043-12.869,12.141-20.949,14.875c-3.865,1.308-12.213,0.405-12.213,0.405S31.677,147.234,41.841,135.404L41.841,135.404z
	 M97.66,189.005c0,8.321-6.628,15.067-14.806,15.067c-8.176,0-14.804-6.746-14.804-15.067s6.628-15.067,14.804-15.067
	C91.032,173.938,97.66,180.684,97.66,189.005z M167.07,135.898c31.181-1.832,62.577-4.33,91.253,1.482v45.448
	c0,0-5.118,1.317-7.099,0c-8.599-5.728-9.821-15.808-22.146-15.808c-11.752,0-18.712,13.266-24.088,15.808h-38.405L167.07,135.898z
	 M243.52,187.771c0,8.32-6.628,15.065-14.805,15.065c-8.176,0-14.805-6.745-14.805-15.065c0-8.321,6.629-15.067,14.805-15.067
	C236.892,172.703,243.52,179.449,243.52,187.771z M34.56,163.563l7.767,20.256c0,0-4.407,1.42-6.31,0.494
	c-2.834-1.381-5.324-4.65-5.824-7.904C29.504,171.932,34.56,163.563,34.56,163.563z M263.447,160.042l-0.107,21.741
	c0,0,4.614-0.284,6.063-1.844c2.159-2.322,3.331-6.285,2.649-9.506C271.117,166.005,263.447,160.042,263.447,160.042z
	 M108.33,72.163L74.842,121.57l86.408,7.91l0.488-52.367L108.33,72.163z M112.698,80.082l41.746,2.455l-0.972,39.033l-65.526-5.932
	L112.698,80.082z M168.526,67.727h9.223v60.763h-9.223V67.727z M243.283,71.688L182.124,120.1v8.883l12.126-0.993l49.86-46.015
	l-22.686,46.512l14.082,0.994l16.991-53.859l-1.295-0.194l0.317-0.28L243.283,71.688z M257.839,70.689c0,4.094-3.26,7.41-7.28,7.41
	s-7.28-3.317-7.28-7.41c0-4.092,3.26-7.41,7.279-7.41C254.579,63.279,257.839,66.598,257.839,70.689z M252.984,62.786
	c0,0,7.371,3.153,7.279,6.422c-0.703,25.615,1.457,53.847,1.457,53.847 M257.839,123.549l8.251-1.482l-2.427,2.965l5.34,5.928
	l-6.311-3.952c0,0,0.138,4.113,0.971,5.929c0.631,1.375,1.459,3.113,2.912,3.457c1.2,0.284,2.72-0.435,3.396-1.48
	c1.069-1.65,0-5.93,0-5.93s2.607,3.453,2.429,5.435c-0.183,2.002-1.571,4.176-3.397,4.94c-1.674,0.699-3.853,0.06-5.34-0.987
	c-1.552-1.095-2.289-3.128-2.912-4.94c-0.809-2.353-0.971-7.41-0.971-7.41h-2.913L257.839,123.549z"/>
</svg>
