<?xml version="1.0" encoding="utf-8"?>
<!-- Generator: Adobe Illustrator 16.0.0, SVG Export Plug-In . SVG Version: 6.00 Build 0)  -->
<!DOCTYPE svg PUBLIC "-//W3C//DTD SVG 1.1//EN" "http://www.w3.org/Graphics/SVG/1.1/DTD/svg11.dtd">
<svg version="1.1" id="Layer_1" xmlns="http://www.w3.org/2000/svg" xmlns:xlink="http://www.w3.org/1999/xlink" x="0px" y="0px"
	 width="26.568px" height="26.571px" viewBox="3.204 3.399 26.568 26.571" enable-background="new 3.204 3.399 26.568 26.571"
	 xml:space="preserve">
<path d="M29.772,26.433l-7.126-7.126c0.96-1.583,1.522-3.435,1.523-5.421C24.169,8.093,19.478,3.401,13.688,3.399
	C7.897,3.401,3.204,8.093,3.204,13.885c0,5.789,4.693,10.481,10.484,10.481c1.986,0,3.839-0.563,5.422-1.523l7.128,7.127
	L29.772,26.433z M7.203,13.885c0.006-3.582,2.903-6.478,6.484-6.486c3.579,0.009,6.478,2.904,6.483,6.486
	c-0.007,3.58-2.904,6.476-6.483,6.484C10.106,20.361,7.209,17.465,7.203,13.885z"/>
</svg>
