<?xml version="1.0" encoding="utf-8"?>
<!-- Generator: Adobe Illustrator 15.1.0, SVG Export Plug-In . SVG Version: 6.00 Build 0)  -->
<!DOCTYPE svg PUBLIC "-//W3C//DTD SVG 1.1//EN" "http://www.w3.org/Graphics/SVG/1.1/DTD/svg11.dtd">
<svg version="1.1" id="Layer_1" xmlns="http://www.w3.org/2000/svg" xmlns:xlink="http://www.w3.org/1999/xlink" x="0px" y="0px"
	 width="100px" height="100px" viewBox="0 0 100 100" enable-background="new 0 0 100 100" xml:space="preserve">
<path d="M67.547,11.498c-0.333,0.722-0.832,0.923-0.832,0.923s-0.02,1.217-0.184,1.847c-0.163,0.629-1.939,3.231-1.939,3.231
	s2.005,0.925,2.217,1.939c0.212,1.013,0.331,2.342,0.646,3.139c0.315,0.797,3.047,3.786,3.047,3.786s0.932,0.451,1.386,0.554
	c0.453,0.104,0.092,3.324,0.092,3.324s0.244,3.285,0,4.063c-0.242,0.778,0.194,2.825,0.277,3.417s-0.369,0.923-0.369,0.923
	s-0.159,6.084-0.37,7.664c-0.211,1.579-4.082,5.427-4.985,5.631c0.411,0.685-0.082,2.115-0.37,2.401
	c-0.286,0.284-0.799,1.194-1.2,1.292c-0.4,0.098-1.276,0.938-2.308,0.831c-1.032-0.108-1.847-2.216-1.847-2.216
	s0.016,0.794-0.277,1.199c-1.483,2.111-3.309,7.194-3.509,7.757c0.299,0.079,0.693,1.017,0.555,1.847
	c-0.139,0.829-0.306,1.588-0.646,1.846c-0.34,0.258,0.785,0.186,1.2,0.37c0.415,0.183,0.277,1.2,0.277,1.2s0.492,1.133,1.292,2.124
	c0.801,0.989,2.111,15.146,1.755,18.649c0.039,0.297,0.455,0.197,0.646,0.369c0.191,0.173,1.635,5.602,0.83,6.095
	c-0.803,0.492-1.219,0.741-1.569,1.107c-0.35,0.367-0.637,0.72-1.015,1.016c-0.379,0.297-7.813,2.369-8.956-0.277
	c-0.206-0.572,0.451-1.303,1.107-2.03c1.811-1.394,4.673-5.391,4.247-5.448c-0.427-0.057-0.511-0.535-0.738-0.462
	c-0.229,0.074-0.277-1.016-0.277-1.016l-1.016-0.092c0,0-2.773,1.873-3.508,2.4c-0.302,0.114-7.853,0.756-8.034-1.108
	c-0.016-0.801,0.577-1.442,1.2-1.477c3.226-0.113,4.312-0.558,4.524-1.292c0.214-0.735,1.293-2.401,1.293-2.401
	s-1.161,0.372-1.569,0.924c-0.409,0.551-18.739-9.237-20.683-13.296c-1.944-4.06,10.728-20.86,11.171-20.958
	c0.444-0.097,0.642-0.051,1.016-0.369c0.375-0.318,3.08-4.221,2.862-4.616c-0.218-0.396-1.262-1.431-0.646-1.662
	c0.616-0.231,0.831-0.37,0.831-0.37s1.662-3.249,1.477-3.97c-0.186-0.721-0.161-2.29-0.092-2.955
	c0.067-0.665,0.554-1.386,0.554-1.386s-0.671-0.564-0.37-1.015c0.303-0.451,0.29-2.659,0.278-3.047
	c-0.013-0.389-1.567,1.574-2.863,1.569c-3.984,0.053-3.231-5.724-3.231-5.724l0.092-1.847c0,0-0.006-0.42,0.369-0.831
	c0.03-0.412,0.415-1.07,0.462-1.478c0.046-0.409,0.841-0.48,0.831-0.832c-0.01-0.35,0.85-0.932,1.108-0.738
	c0.259,0.194,1.814,0.743,2.308,0.646c0.495-0.097,1.775-5.134,2.493-6.001c0.718-0.868,1.947-3.081,3.971-2.955
	c2.024,0.126,5.874,0.564,6.463,0.738c0.591,0.174,0.463-2.031,0.463-2.031s-0.609,0.18-1.108-0.185
	c-0.501-0.365-1.079-2.893-0.186-3.324c0.007-0.185-0.369-1.847-0.276-3.601c0.092-1.754,2.955-4.601,7.663-4.138
	c4.709,0.462,4.433,3.491,4.709,4.414c0.276,0.924-1.016,1.57-1.016,1.57s-0.278,0.902-0.092,0.831
	C67.979,8.504,67.879,10.775,67.547,11.498z M63.783,38.657c0,0-0.049,0.493-0.099,0.888c-0.049,0.395-1.283,0.938-1.332,1.283
	c-0.049,0.345,0.493,1.037,0.493,1.431c0,0.395-0.74,0.74-0.74,0.74s-0.395,1.432-0.345,1.875c0.05,0.444,0.345,2.171-0.494,2.665
	c0.197,0.296,0.543,2.813,0.543,2.813s4.936-3.307,4.737-7.008c-0.1-1.579-0.543-3.108-0.938-3.849
	c-0.395-0.74-0.346-1.728-0.642-2.072C64.672,37.078,63.783,38.657,63.783,38.657z M41.082,68.148
	c-0.979,0.979-1.055,1.883-0.905,2.108C42.964,71.16,52,76.883,52,76.883s-0.828-3.839-1.055-5.045
	c-0.226-1.204-3.916-4.141-4.141-5.271c-0.226-1.129,1.58-6.099,1.58-6.099S42.061,67.169,41.082,68.148z"/>
</svg>
