<?xml version="1.0" encoding="utf-8"?>
<!-- Generator: Adobe Illustrator 16.0.0, SVG Export Plug-In . SVG Version: 6.00 Build 0)  -->
<!DOCTYPE svg PUBLIC "-//W3C//DTD SVG 1.1//EN" "http://www.w3.org/Graphics/SVG/1.1/DTD/svg11.dtd">
<svg version="1.1" id="Layer_1" xmlns="http://www.w3.org/2000/svg" xmlns:xlink="http://www.w3.org/1999/xlink" x="0px" y="0px"
	 width="100px" height="100px" viewBox="0 0 100 100" enable-background="new 0 0 100 100" xml:space="preserve">
<path fill="#010101" d="M47.612,24.714C52.471,9.937,62.313,4.757,68.398,2.792c6.494-1.899,9.233-0.582,9.32-0.844
	c0.607,0.135,0.446,0.297-0.345,0.376c-2.692,0.281-5.261,0.816-7.688,1.569c-0.711,0.224-0.983,0.034-0.609-0.44
	c0.057-0.069,0.111-0.138,0.17-0.208c-1.417,0.325-5.127,1.102-8.95,4.064c-3.799,2.885-7.711,7.957-8.965,15.08
	c-1.624,9.963-2.909,13.76-3.106,13.833c-0.025,0.047-0.05,0.085-0.075,0.116C47.455,32.604,47.269,28.678,47.612,24.714z
	 M56.135,52.861c0.542-0.396,0.948-0.829,1.252-1.262c-0.158,0.564-0.429,1.129-0.902,1.664c-1.459,1.642-2.702,2.017-3.815,6.584
	l-0.176,0.065C52.523,58.986,52.727,55.357,56.135,52.861z M45.131,29.405c-0.434,4.727-0.692,10.189-0.667,16.471
	c2.545,1.69,4.745,3.847,6.683,6.153c0.271,0.33,0.494,0.685,0.688,1.057c-0.131-2.602-0.729-5.698-2.208-9.17
	c-2.047-4.803-2.963-9.432-3.223-13.618C45.988,29.979,45.563,29.682,45.131,29.405z M51.928,1.661c0,0-4.897,6.888-6.714,26.691
	c0.433,0.276,0.857,0.574,1.274,0.892c-0.554-8.926,1.882-15.842,2.732-18.139l0.188,0.246c0.421,0.556,0.917,0.312,1.102-0.543
	l1.887-8.725C52.581,1.229,52.371,1.038,51.928,1.661z M44.298,61.496c0.04-0.001,0.079-0.002,0.119-0.003
	c2.511-4.462-0.315-6.909-0.315-6.909c-0.166-2.527-0.28-4.936-0.35-7.233c0.02,0.011,0.039,0.022,0.058,0.033
	c-3.972-12.518-8.621-16.145-8.621-16.145c-0.389-0.303-0.51-0.161-0.27,0.316c0.819,1.625,1.638,3.249,2.457,4.874
	c0.241,0.478,0.617,0.55,0.837,0.163c0.032-0.058,0.064-0.115,0.097-0.172c1.312,1.811,6.312,9.007,3.834,18.793
	c-1.311,5.176,0.339,8.525,1.28,9.912c-0.022-1.294-0.033-2.126-0.033-2.126C43.318,62.188,43.726,61.509,44.298,61.496z
	 M70.938,64.085c-0.082-0.058-0.881-1.351-2.94-3.14c-2.007-1.678-5.274-3.851-9.033-3.146c-3.612,0.271-7.715,3.414-10.051,7.384
	c-2.238,3.58-3.064,7.609-3.665,11.51c0.335,0.347,0.608,0.764,0.792,1.242c0.723,1.888-0.221,4.006-2.109,4.729
	c-1.889,0.722-4.006-0.224-4.729-2.11c-0.654-1.707,0.054-3.601,1.591-4.482c-2.948-9.615-7.727-14.82-11.119-17.641
	c-3.788-3.033-5.974-3.313-6.005-3.373c-0.45-0.09-0.482,0.078-0.076,0.375c1.383,1.012,2.729,2.071,4.037,3.181
	c0.383,0.323,0.724,0.255,0.757-0.162c0.005-0.063,0.01-0.123,0.016-0.185c1.713,0.92,9.032,6.181,8.274,15.978
	c-0.628,6.696,2.347,9.653,2.402,9.722c0.318,0.315,0.564,0.182,0.543-0.303c-0.005-0.129-0.012-0.258-0.018-0.387
	c-0.024-0.484,0.26-0.883,0.64-0.883c-0.013,0.004,1.101-0.006,1.756,2.713c0.952,4.158-1.039,9.281-0.062,9.711
	c0.446,0.199,1.135,0.07,1.526-0.295c0.377-0.352,0.751-0.705,1.124-1.063c0.174-0.825-0.339-5.229-0.409-6.916
	c0.062-0.66,0.159-1.352,0.345-2.05c0.706-2.599,1.421-3.015,1.425-3.075c0.257-0.212,0.407-0.081,0.327,0.368
	c-0.02,0.119-0.042,0.239-0.063,0.358c-0.082,0.453,0.035,0.429,0.274-0.098c0.03,0.04,0.573-1.375,1.282-3.343
	c0.665-1.951,1.494-4.454,1.09-6.265c-0.742-2.551,0.216-7.332,3.338-10.506c1.484-1.569,3.365-2.666,5.141-3.063
	c1.771-0.438,3.436-0.178,4.342,0.014c0.021,0.086,0.038,0.167,0.059,0.252c0.137,0.559,0.916,1.049,1.718,1.246
	c2.717,0.631,5.521,2.258,7.744,4.467C71.832,65.506,71.715,65.161,70.938,64.085z M44.923,76.424
	c0.339-2.238,0.796-4.975,1.654-7.049c-0.303-1.086-0.389-1.971-0.341-3.232c0.18-4.867,1.801-5.44,1.801-5.44
	c0.575-0.203,1.152,0.317,1.282,1.157l0.104,0.673c0.129,0.84,0.548,0.948,0.929,0.239c0,0,1.761-3.268,1.488-8.699
	c-0.193-0.371-0.42-0.729-0.688-1.057c-1.939-2.308-4.139-4.461-6.683-6.154c0.01,2.444,0.063,5.01,0.166,7.707
	c0,0,2.795,2.811,0.14,7.358l-0.12-0.007c-0.579-0.025-1.01,0.66-0.956,1.528c0,0-0.064,5.331-0.045,10.198
	c-0.031-0.125-0.063-0.248-0.098-0.371c-0.797-2.971-2.526-5.045-2.462-5.045c-0.15-0.557-0.41-0.727-0.595-0.545
	c-0.013,0.014-0.025,0.025-0.038,0.037c-1.79-2.308-1.257-4.156-1.249-4.203c-1.354-4.902-2.893-10.389-5.705-15.027
	c-2.674-4.598-6.623-8.351-9.611-8.831c-3.192-0.98-5.425,1.314-6.729,3.111c-1.326,1.918-1.722,3.342-1.778,3.402
	c-0.423,1.177-0.451,1.56-0.061,0.854c1.375-2.388,3.337-4.088,5.423-4.668c0.612-0.185,1.151-0.7,1.153-1.324
	c0-0.093-0.001-0.186-0.002-0.281c0.699-0.172,2.002-0.384,3.526,0.197c1.521,0.536,3.263,1.865,4.776,3.711
	c3.158,3.738,4.87,9.187,4.764,12.028c0.025,2.025,1.188,4.896,2.109,7.134c0.96,2.256,1.677,3.881,1.694,3.836
	c0.298,0.604,0.396,0.641,0.242,0.125c-0.042-0.138-0.082-0.272-0.122-0.409c-0.152-0.511-0.057-0.65,0.195-0.396
	c0.014,0.066,0.677,0.572,1.758,3.541c0.223,0.617,0.832,2.592,0.983,5.147C42.914,75.428,44.079,75.77,44.923,76.424z
	 M42.669,78.813c-0.216-0.008-0.396,0.164-0.403,0.383c-0.007,0.219,0.161,0.402,0.377,0.408c0.216,0.008,0.396-0.164,0.404-0.384
	C43.053,79.002,42.885,78.818,42.669,78.813z M42.759,75.997c-1.75-0.058-3.21,1.335-3.271,3.108
	c-0.054,1.771,1.314,3.256,3.064,3.313s3.21-1.337,3.271-3.109C45.877,77.536,44.509,76.055,42.759,75.997z M42.553,82.382
	c-1.729-0.059-3.084-1.521-3.028-3.274c0.056-1.752,1.504-3.127,3.233-3.073c1.729,0.058,3.085,1.521,3.029,3.274
	C45.731,81.063,44.283,82.436,42.553,82.382z M42.751,76.251c-1.613-0.052-2.957,1.229-3.013,2.863
	c-0.049,1.631,1.21,2.997,2.823,3.051c1.612,0.052,2.958-1.231,3.013-2.863C45.624,77.67,44.364,76.305,42.751,76.251z
	 M42.586,81.359c-1.17-0.039-2.091-1.031-2.052-2.221c0.038-1.188,1.02-2.119,2.19-2.084c1.171,0.039,2.091,1.03,2.052,2.221
	C44.739,80.466,43.758,81.395,42.586,81.359z M42.708,77.605c-0.874-0.028-1.603,0.666-1.633,1.552
	c-0.027,0.885,0.656,1.624,1.53,1.651c0.873,0.029,1.602-0.666,1.631-1.551C44.264,78.374,43.581,77.634,42.708,77.605z
	 M42.605,80.773c-0.853-0.028-1.522-0.75-1.494-1.615c0.028-0.865,0.742-1.543,1.595-1.518c0.853,0.029,1.522,0.752,1.495,1.615
	C44.173,80.122,43.458,80.8,42.605,80.773z M37.387,17.848c-0.65-0.221-0.056,1.136,0.453,1.25
	C38.499,19.247,37.752,17.972,37.387,17.848 M35.744,17.839c-0.951-0.278-0.208,1.371,0.51,1.495
	C37.182,19.494,36.281,17.995,35.744,17.839 M34.545,19.309c-1.294-0.195-0.456,1.678,0.463,1.808
	C36.3,21.299,35.449,19.446,34.545,19.309 M34.694,22.29c-1.234,0.099-0.795,1.714,0.028,2.041
	C36.313,24.963,36.265,22.165,34.694,22.29 M36.478,25.375c-0.909,0.339-0.766,2.086,0.223,2.213
	C38.082,27.767,37.815,24.877,36.478,25.375 M38.812,26.846c-0.776,0.497-0.098,2.556,0.638,1.876
	C39.974,28.236,39.626,26.323,38.812,26.846 M40.532,26.533c-0.54,0.408,0.109,2.039,0.563,1.556
	C41.438,27.724,41.082,26.119,40.532,26.533 M41.352,25.215c-0.435,0.277,0.146,1.61,0.489,1.293
	C42.149,26.221,41.752,24.957,41.352,25.215 M41.441,23.526c-0.377,0.141,0.099,1.327,0.435,1.125
	C42.189,24.462,41.793,23.395,41.441,23.526 M40.998,21.788c-0.332,0.026,0.034,1.136,0.406,1.041
	C41.737,22.744,41.318,21.762,40.998,21.788 M40.138,20.156c-0.356-0.053,0.01,1.027,0.399,1.032
	C40.91,21.192,40.452,20.204,40.138,20.156 M38.916,18.765c-0.454-0.133-0.012,1.026,0.415,1.1
	C39.789,19.943,39.253,18.864,38.916,18.765 M38.39,19.895c-0.369-0.125-0.032,0.645,0.256,0.709
	C39.021,20.688,38.597,19.964,38.39,19.895 M37.458,19.889c-0.539-0.157-0.118,0.778,0.29,0.849
	C38.274,20.828,37.763,19.979,37.458,19.889 M36.778,20.723c-0.734-0.111-0.258,0.952,0.262,1.025
	C37.774,21.852,37.291,20.801,36.778,20.723 M36.863,22.414c-0.7,0.057-0.452,0.972,0.015,1.157
	C37.781,23.929,37.753,22.343,36.863,22.414 M37.874,24.163c-0.516,0.193-0.434,1.184,0.127,1.255
	C38.785,25.519,38.632,23.881,37.874,24.163 M39.198,24.997c-0.439,0.283-0.056,1.45,0.362,1.065
	C39.857,25.785,39.66,24.701,39.198,24.997 M40.173,24.82c-0.306,0.232,0.062,1.156,0.319,0.882
	C40.687,25.495,40.485,24.585,40.173,24.82 M40.638,24.073c-0.247,0.157,0.083,0.912,0.277,0.732
	C41.09,24.643,40.865,23.926,40.638,24.073 M40.688,23.114c-0.214,0.08,0.057,0.753,0.247,0.638
	C41.113,23.646,40.889,23.04,40.688,23.114 M40.437,22.129c-0.188,0.015,0.02,0.644,0.23,0.59
	C40.857,22.671,40.619,22.114,40.437,22.129 M39.95,21.203c-0.202-0.03,0.005,0.583,0.227,0.585
	C40.388,21.791,40.128,21.23,39.95,21.203 M39.257,20.415C39,20.34,39.25,20.997,39.492,21.038
	C39.752,21.083,39.448,20.47,39.257,20.415 M27.69,14.75c0.966-0.285,0.015,1.669-0.737,1.806
	C25.978,16.733,27.148,14.909,27.69,14.75 M30.1,14.833c1.41-0.35,0.224,2.023-0.836,2.163C27.894,17.175,29.303,15.031,30.1,14.833
	 M31.769,17.059c1.91-0.211,0.568,2.486-0.784,2.622C29.08,19.873,30.437,17.206,31.769,17.059 M31.375,21.42
	c1.803,0.218,1.064,2.558-0.163,2.989C28.845,25.243,29.08,21.145,31.375,21.42 M28.579,25.837c1.312,0.551,0.999,3.104-0.46,3.231
	C26.083,29.247,26.648,25.028,28.579,25.837 M25.069,27.853c1.106,0.775-0.007,3.753-1.045,2.713
	C23.283,29.823,23.906,27.04,25.069,27.853 M22.566,27.294c0.767,0.631-0.28,2.981-0.917,2.246
	C21.168,28.985,21.786,26.654,22.566,27.294 M21.443,25.313c0.621,0.432-0.31,2.351-0.793,1.866
	C20.215,26.739,20.872,24.911,21.443,25.313 M21.412,22.832c0.545,0.229-0.224,1.939-0.703,1.624
	C20.261,24.16,20.903,22.618,21.412,22.832 M22.166,20.31c0.484,0.059-0.117,1.663-0.656,1.502
	C21.024,21.667,21.696,20.254,22.166,20.31 M23.522,17.969c0.524-0.057-0.075,1.506-0.647,1.49
	C22.329,19.442,23.059,18.021,23.522,17.969 M25.395,16.003c0.673-0.168-0.043,1.504-0.673,1.587
	C24.045,17.679,24.896,16.127,25.395,16.003 M26.099,17.69c0.549-0.162,0.009,0.946-0.418,1.023
	C25.128,18.815,25.792,17.781,26.099,17.69 M27.466,17.738c0.799-0.199,0.127,1.147-0.475,1.226
	C26.215,19.065,27.013,17.85,27.466,17.738 M28.412,19c1.083-0.12,0.323,1.41-0.444,1.486C26.887,20.595,27.657,19.083,28.412,19
	 M28.188,21.473c1.022,0.123,0.604,1.451-0.092,1.695C26.753,23.641,26.888,21.316,28.188,21.473 M26.604,23.977
	c0.744,0.313,0.566,1.76-0.261,1.833C25.188,25.911,25.508,23.519,26.604,23.977 M24.613,25.121
	c0.628,0.439-0.004,2.128-0.593,1.538C23.6,26.238,23.954,24.66,24.613,25.121 M23.193,24.804c0.435,0.358-0.159,1.691-0.52,1.273
	C22.401,25.763,22.75,24.441,23.193,24.804 M22.557,23.68c0.352,0.245-0.175,1.333-0.45,1.058
	C21.86,24.49,22.233,23.452,22.557,23.68 M22.539,22.273c0.309,0.129-0.126,1.099-0.398,0.92
	C21.886,23.026,22.25,22.152,22.539,22.273 M22.966,20.844c0.275,0.033-0.066,0.943-0.372,0.851
	C22.319,21.613,22.701,20.811,22.966,20.844 M23.735,19.515c0.297-0.032-0.042,0.854-0.367,0.846
	C23.059,20.352,23.473,19.544,23.735,19.515 M24.797,18.4c0.382-0.094-0.024,0.854-0.381,0.9
	C24.032,19.351,24.515,18.471,24.797,18.4 M60.486,50.932c-0.465,0.094,0.3,0.674,0.646,0.567
	C61.581,51.361,60.748,50.879,60.486,50.932 M59.473,51.484c-0.666,0.164,0.274,0.863,0.752,0.688
	C60.843,51.951,59.85,51.393,59.473,51.484 M59.166,52.74c-0.854,0.326,0.212,1.121,0.814,0.886
	C60.831,53.293,59.764,52.512,59.166,52.74 M60.133,54.409c-0.73,0.477,0.014,1.259,0.615,1.168
	C61.912,55.4,61.063,53.805,60.133,54.409 M62.137,55.584c-0.461,0.504,0.139,1.464,0.786,1.2
	C63.826,56.418,62.813,54.842,62.137,55.584 M64.004,55.639c-0.331,0.551,0.689,1.508,0.943,0.866
	C65.128,56.047,64.354,55.061,64.004,55.639 M64.973,54.874c-0.214,0.42,0.666,1.14,0.803,0.706
	C65.878,55.253,65.188,54.449,64.973,54.874 M65.09,53.836c-0.188,0.307,0.563,0.879,0.68,0.579
	C65.875,54.145,65.26,53.55,65.09,53.836 M64.648,52.83c-0.191,0.21,0.449,0.732,0.599,0.502
	C65.384,53.116,64.827,52.635,64.648,52.83 M63.865,51.979c-0.196,0.129,0.355,0.645,0.555,0.463
	C64.602,52.277,64.057,51.854,63.865,51.979 M62.857,51.329c-0.234,0.09,0.308,0.59,0.549,0.46
	C63.639,51.665,63.064,51.249,62.857,51.329 M61.697,50.941c-0.318,0.076,0.294,0.597,0.578,0.494
	C62.581,51.325,61.934,50.884,61.697,50.941 M61.704,51.771c-0.265,0.054,0.17,0.383,0.366,0.321
	C62.326,52.016,61.854,51.742,61.704,51.771 M61.129,52.086c-0.378,0.094,0.156,0.488,0.428,0.391
	C61.907,52.352,61.344,52.034,61.129,52.086 M60.955,52.797c-0.482,0.186,0.121,0.637,0.463,0.503
	C61.898,53.111,61.294,52.668,60.955,52.797 M61.504,53.744c-0.415,0.271,0.008,0.714,0.352,0.662
	C62.514,54.309,62.031,53.4,61.504,53.744 M62.639,54.409c-0.26,0.286,0.082,0.831,0.448,0.682
	C63.598,54.884,63.023,53.99,62.639,54.409 M63.7,54.441c-0.188,0.312,0.391,0.854,0.534,0.49
	C64.337,54.672,63.896,54.113,63.7,54.441 M64.248,54.008c-0.12,0.238,0.377,0.646,0.456,0.4
	C64.762,54.223,64.371,53.768,64.248,54.008 M64.314,53.419c-0.105,0.174,0.318,0.498,0.386,0.329
	C64.762,53.594,64.411,53.258,64.314,53.419 M64.064,52.85c-0.108,0.117,0.256,0.414,0.338,0.284
	C64.48,53.011,64.166,52.738,64.064,52.85 M63.621,52.365c-0.112,0.072,0.199,0.365,0.314,0.263
	C64.038,52.536,63.729,52.296,63.621,52.365 M63.049,51.997c-0.133,0.051,0.176,0.334,0.313,0.261
	C63.491,52.188,63.166,51.952,63.049,51.997 M62.391,51.777c-0.18,0.043,0.168,0.338,0.328,0.279
	C62.893,51.995,62.525,51.745,62.391,51.777 M53.559,47.959c-0.268,0.392,0.686,0.274,0.858-0.045
	C54.643,47.502,53.71,47.739,53.559,47.959 M53.219,49.064c-0.363,0.583,0.799,0.426,1.021-0.032
	C54.525,48.44,53.424,48.734,53.219,49.064 M53.876,50.176c-0.385,0.83,0.937,0.655,1.201,0.065
	C55.453,49.409,54.145,49.597,53.876,50.176 M55.732,50.697c-0.19,0.851,0.889,0.892,1.256,0.406
	C57.701,50.164,55.977,49.614,55.732,50.697 M57.986,50.139c0.022,0.683,1.123,0.95,1.402,0.311
	C59.779,49.557,57.954,49.136,57.986,50.139 M59.363,48.874c0.146,0.625,1.546,0.598,1.279-0.039
	C60.452,48.382,59.208,48.217,59.363,48.874 M59.521,47.651c0.142,0.448,1.271,0.35,1.067-0.055
	C60.438,47.29,59.38,47.195,59.521,47.651 M58.882,46.826c0.081,0.349,1.017,0.236,0.892-0.06
	C59.66,46.498,58.805,46.502,58.882,46.826 M57.863,46.414c0.01,0.283,0.835,0.21,0.777-0.059
	C58.591,46.105,57.855,46.149,57.863,46.414 M56.709,46.35c-0.052,0.229,0.702,0.213,0.719-0.057
	C57.445,46.051,56.759,46.129,56.709,46.35 M55.533,46.588c-0.105,0.229,0.632,0.208,0.714-0.053
	C56.325,46.285,55.627,46.387,55.533,46.588 M54.432,47.122c-0.173,0.277,0.627,0.221,0.76-0.051
	C55.332,46.779,54.561,46.915,54.432,47.122 M55.018,47.711c-0.151,0.222,0.389,0.155,0.486-0.025
	C55.632,47.452,55.104,47.586,55.018,47.711 M54.825,48.337c-0.207,0.33,0.452,0.241,0.577-0.019
	C55.564,47.983,54.941,48.15,54.825,48.337 M55.195,48.967c-0.217,0.471,0.531,0.372,0.684,0.038
	C56.092,48.533,55.35,48.639,55.195,48.967 M56.25,49.263c-0.107,0.482,0.504,0.506,0.713,0.229
	C57.366,48.961,56.389,48.648,56.25,49.263 M57.527,48.947c0.014,0.388,0.638,0.539,0.796,0.176
	C58.545,48.616,57.51,48.377,57.527,48.947 M58.309,48.229c0.084,0.354,0.879,0.339,0.728-0.022
	C58.928,47.95,58.223,47.857,58.309,48.229 M58.4,47.536c0.078,0.254,0.72,0.199,0.604-0.032
	C58.917,47.331,58.318,47.277,58.4,47.536 M58.036,47.068c0.046,0.198,0.575,0.134,0.505-0.034
	C58.479,46.882,57.993,46.884,58.036,47.068 M57.459,46.834c0.006,0.161,0.473,0.118,0.441-0.033
	C57.871,46.659,57.454,46.684,57.459,46.834 M56.805,46.798c-0.029,0.13,0.397,0.121,0.407-0.031
	C57.223,46.628,56.832,46.672,56.805,46.798 M56.137,46.933c-0.059,0.129,0.358,0.118,0.405-0.03
	C56.586,46.761,56.189,46.819,56.137,46.933 M55.514,47.236c-0.1,0.157,0.354,0.125,0.43-0.029
	C56.021,47.042,55.585,47.119,55.514,47.236 M61.594,43.9c-0.5,0,0.528,0.909,0.891,0.863C62.954,44.705,61.875,43.9,61.594,43.9
	 M60.602,44.33c-0.709,0.035,0.556,1.135,1.047,1.042C62.285,45.25,61.002,44.311,60.602,44.33 M60.607,45.806
	c-0.875,0.19,0.557,1.441,1.172,1.299C62.646,46.906,61.221,45.673,60.607,45.806 M62.173,48.112
	c-0.694,0.406,0.369,1.56,1.025,1.599C64.466,49.786,63.055,47.596,62.173,48.112 M64.77,50.066
	c-0.379,0.508,0.571,1.846,1.229,1.682C66.916,51.521,65.326,49.318,64.77,50.066 M66.898,50.602
	c-0.221,0.6,1.205,2.037,1.313,1.308C68.284,51.386,67.131,49.973,66.898,50.602 M67.777,49.898
	c-0.121,0.465,1.074,1.577,1.107,1.073C68.911,50.594,67.902,49.425,67.777,49.898 M67.619,48.642
	c-0.124,0.334,0.884,1.229,0.933,0.887C68.596,49.221,67.732,48.333,67.619,48.642 M66.837,47.289
	c-0.157,0.211,0.715,1.018,0.817,0.77C67.75,47.828,66.982,47.092,66.837,47.289 M65.711,46.04c-0.186,0.109,0.583,0.885,0.76,0.711
	C66.628,46.595,65.891,45.934,65.711,46.04 M64.389,44.983c-0.24,0.053,0.514,0.807,0.75,0.707
	C65.363,45.594,64.602,44.938,64.389,44.983 M62.967,44.215c-0.338,0.016,0.499,0.811,0.791,0.754
	C64.073,44.909,63.218,44.203,62.967,44.215 M63.208,45.244c-0.283-0.001,0.3,0.515,0.506,0.489
	C63.979,45.7,63.367,45.244,63.208,45.244 M62.646,45.488c-0.401,0.019,0.313,0.644,0.594,0.59
	C63.602,46.009,62.872,45.476,62.646,45.488 M62.648,46.324c-0.496,0.108,0.315,0.818,0.664,0.737
	C63.807,46.948,62.996,46.249,62.648,46.324 M63.536,47.632c-0.394,0.23,0.21,0.885,0.581,0.907
	C64.837,48.581,64.036,47.339,63.536,47.632 M65.009,48.74c-0.214,0.289,0.324,1.047,0.698,0.954
	C66.229,49.565,65.325,48.316,65.009,48.74 M66.217,49.043c-0.124,0.339,0.684,1.156,0.743,0.742
	C67.004,49.489,66.348,48.688,66.217,49.043 M66.716,48.646c-0.069,0.263,0.608,0.892,0.628,0.608
	C67.357,49.04,66.787,48.377,66.716,48.646 M66.624,47.933c-0.069,0.189,0.503,0.696,0.53,0.503
	C67.18,48.261,66.688,47.757,66.624,47.933 M66.184,47.166c-0.09,0.119,0.403,0.576,0.463,0.437
	C66.699,47.471,66.266,47.054,66.184,47.166 M65.543,46.457c-0.105,0.062,0.331,0.501,0.432,0.403
	C66.063,46.771,65.646,46.397,65.543,46.457 M64.793,45.858c-0.136,0.03,0.291,0.457,0.426,0.4
	C65.348,46.204,64.913,45.832,64.793,45.858 M63.986,45.422c-0.191,0.009,0.283,0.46,0.449,0.428
	C64.613,45.816,64.129,45.415,63.986,45.422 M37.214,51.614c-2.152-3.286-4.052-6.8-5.045-10.621
	c-1.259-4.844-1.34-9.704,0.537-14.349c0.029-0.072,0.237-0.554,0.211-0.622c-0.023-0.061-0.196-0.371-0.171-0.434
	c-1.473,3.647-2.005,7.563-1.507,11.468c0.457,3.579,1.751,7.062,3.34,10.283c1.723,3.492,3.897,6.713,6.261,9.802
	c0.041-0.102,0.083-0.203,0.125-0.304C39.652,55.143,38.39,53.408,37.214,51.614z M55.697,76.605
	c-1.043-2.646-2.748-4.996-4.477-7.231c-0.388-0.502-0.782-0.998-1.18-1.493c-0.042,0.1-0.084,0.198-0.126,0.299
	c1.524,1.856,3,3.758,4.286,5.784c0.371,0.584,0.721,1.183,1.042,1.796c0.153,0.293,0.299,0.59,0.437,0.893
	c0.063,0.132,0.119,0.267,0.178,0.4c-0.014-0.035-0.023-0.072-0.037-0.107c0.022,0.063,0.041,0.115,0.058,0.156
	c0.048,0.121,0.106,0.293,0,0c-0.006-0.014-0.012-0.026-0.017-0.037c-0.002-0.004-0.004-0.008-0.004-0.012
	c0.021,0.063,0.043,0.121,0.063,0.182c0.516,1.561,0.705,3.262,0.643,4.897c-0.228,5.854-4.637,10.083-9.596,12.534
	c-1.509,0.746-3.118,1.413-4.759,1.813c0.031-0.006,0.289,0.883,0.333,0.871c1.052-0.258,2.083-0.645,3.083-1.056
	c2.215-0.912,4.333-2.106,6.181-3.64c2.186-1.813,3.914-4.168,4.674-6.928C57.318,82.67,56.842,79.509,55.697,76.605z
	 M55.877,77.102c-0.018-0.041-0.034-0.094-0.059-0.156c0.015,0.035,0.024,0.072,0.037,0.107c0.002,0.004,0.004,0.008,0.004,0.012
	C55.865,77.074,55.871,77.088,55.877,77.102z M37.192,89.771c-3.792-1.08-6.181-5.594-7.106-9.039
	c-1.378-5.135-1.046-10.73-0.192-15.918c0.72-4.371,2.304-8.633,5.147-12.069c4.498-5.44,11.382-7.378,17.833-9.438
	c2.769-0.884,5.601-1.843,7.987-3.546c2.33-1.662,3.757-4.078,4.24-6.884c0.416-2.411,0.151-4.912-0.283-7.299
	c-0.031-0.171-0.158-0.324-0.189-0.493c0.635,3.468,0.876,7.254-0.734,10.504c-1.226,2.469-3.513,4.097-5.941,5.252
	c-5.889,2.8-12.497,3.616-18.105,7.101c-3.174,1.973-5.724,4.728-7.467,8.031c-2.475,4.688-3.207,10.211-3.366,15.44
	c-0.181,5.951,0.915,13.317,5.818,17.374c0.733,0.605,1.62,1.214,2.549,1.479C37.283,90.238,37.296,89.802,37.192,89.771
	L37.192,89.771z"/>
<path fill="#352121" d="M71.887,44.634c0.172,0.043,0.369,0.047,0.536-0.02c0.132-0.052,0.231-0.151,0.291-0.279
	c0.132,0.005,0.082,0.106,0.021,0.191c-0.185,0.252-0.393,0.343-0.738,0.287c-0.032-0.006-0.321-0.1-0.292-0.165
	C71.725,44.604,71.852,44.621,71.887,44.634 M71.736,44.807c0.195,0.096,0.434,0.139,0.646,0.084
	c0.201-0.052,0.354-0.192,0.457-0.368c0.073-0.126,0.264-0.036,0.189,0.101c-0.133,0.24-0.373,0.437-0.646,0.51
	c-0.193,0.053-0.393,0.007-0.563-0.093C71.63,44.93,71.507,44.859,71.736,44.807 M75.344,46.778
	c-0.092-0.16-0.184-0.319-0.275-0.479c-0.065-0.112,0.052-0.119-0.053-0.25c-0.197-0.249-0.435-0.75-0.637-0.739
	c-0.21-0.054-0.564-0.467-0.764-0.685c0-0.117,1.096-0.355,1.185-0.429c0.187-0.154,0.332-0.28,0.433-0.437
	c0.014-0.023,0.229,0.021,0.256,0.024c0.826,0.09,2.103,0.089,2.93,0.18c0.158,0.017,0.396,0.237,0.529,0.317
	c0.436,0.262,0.867,0.524,1.302,0.786c0.662,0.4,1.315,0.83,1.998,1.197c0.028,0.089-0.085,0.195-0.166,0.176
	c-0.127-0.028-0.254-0.057-0.38-0.085c-0.452-0.102-0.903-0.204-1.354-0.305c-0.465-0.105-0.93-0.209-1.394-0.314
	c-0.142-0.032-0.423-0.158-0.567-0.109c-0.391,0.131-2.199,0.264-2.591,0.395C75.568,46.098,75.447,46.572,75.344,46.778
	 M75.805,46.169c0.193-0.062,0.387-0.124,0.58-0.187c0.172-0.055,1.819-0.179,2-0.187c0.288-0.012,0.653,0.136,0.932,0.194
	c0.886,0.185,1.772,0.369,2.66,0.553c-0.076,0.152-0.052,0.179-0.203,0.148c-0.2-0.04-0.4-0.081-0.603-0.122
	c-0.587-0.118-1.175-0.236-1.762-0.354c-0.3-0.06-0.688-0.216-0.997-0.202c-0.214,0.01-1.891,0.137-2.098,0.197
	C76.057,46.285,76.029,46.318,75.805,46.169 M74.76,46.499c-0.078-0.094-0.051-0.103,0.012-0.161
	c0.131-0.123,0.037-0.167-0.064-0.306c-0.043,0.04-0.361,0.352-0.354,0.091c0.002-0.072,0.104-0.122,0.148-0.163
	c0.131-0.123,0.027-0.162-0.08-0.293c-0.068,0.067-0.266,0.329-0.373,0.21c-0.074-0.079,0.032-0.154,0.082-0.2
	c0.118-0.111,0.207-0.115,0.09-0.251c-0.221-0.254-0.449-0.502-0.687-0.741c-0.068-0.069-0.244-0.155-0.341-0.11
	c-0.348,0.689-1.073,0.84-1.656,0.419c0.05,1.107,0.648,2.28,1.754,2.659c-0.158-0.317,0.254-0.634,0.458-0.812
	c0.153-0.133,0.501,0.262,0.646,0.376c0.197,0.156,0.391,0.095,0.569-0.072c0.078-0.073,0.149-0.159,0.209-0.248
	c0.06-0.084-0.161-0.401-0.208-0.479C74.91,46.471,74.85,46.594,74.76,46.499 M75.331,47.084c-0.579,0.618-1.062,0.388-1.472-0.087
	c-0.176,0.112-0.344,0.164-0.434,0.367c-0.003,0.01-0.07,0.468-0.264,0.568c2.492,0.498,1.809,2.776,0.961,4.3
	c-0.234,0.08-0.464,0.188-0.525,0.322c-0.104,0.229-0.234,0.448-0.381,0.657c-0.301,0.437-0.656,0.843-1.027,1.228
	c-0.473,0.49-0.976,0.957-1.5,1.387c1.134-0.801,2.975-2.059,3.719-3.362C76.055,50.319,76.242,48.385,75.331,47.084z M67.333,45.41
	c-0.007-0.042-0.028-0.069-0.063-0.082c-0.057,0.017,0,0.202,0.055,0.186C67.348,45.482,67.352,45.449,67.333,45.41 M72.807,43.636
	c-0.127-0.434-0.634-0.566-1.017-0.389c-0.329,0.152-0.306,0.423-0.46,0.689c-0.045,0.076-0.234,0.112-0.311,0.14
	c-0.254,0.094-0.511,0.181-0.765,0.269c-0.608,0.208-1.22,0.41-1.83,0.612c-0.233,0.077-0.466,0.154-0.696,0.231
	c-0.063,0.021-0.256,0.048-0.293,0.108c0.074-0.058,0.157,0.207,0.057,0.194c0.142,0.066,0.635-0.16,0.775-0.198
	c0.574-0.156,1.148-0.313,1.725-0.469c0.484-0.13,0.968-0.264,1.456-0.381c0.135-0.032,0.146,0.009,0.274,0.073
	c0.2,0.099,0.438,0.103,0.644,0.017C72.712,44.389,72.913,44,72.807,43.636 M71.615,44.006c0.011,0.004,0.046-0.03,0.025-0.047
	c0.149-0.141,0.178-0.174,0.444-0.166C71.941,43.999,71.668,43.989,71.615,44.006 M78.788,43.942c0.735,0.463,1.474,0.927,2.21,1.39
	c0.098,0.061,0.611,0.484,0.727,0.448c0.383-0.121,0.767-0.241,1.149-0.361c-0.207-0.167-0.351-0.3-0.597-0.378
	c-0.426-0.134-0.853-0.269-1.279-0.402C80.262,44.407,79.523,44.175,78.788,43.942"/>
</svg>
