<?xml version="1.0" encoding="utf-8"?>
<!-- Generator: Adobe Illustrator 16.0.0, SVG Export Plug-In . SVG Version: 6.00 Build 0)  -->
<!DOCTYPE svg PUBLIC "-//W3C//DTD SVG 1.1//EN" "http://www.w3.org/Graphics/SVG/1.1/DTD/svg11.dtd">
<svg version="1.1" id="Layer_1" xmlns="http://www.w3.org/2000/svg" xmlns:xlink="http://www.w3.org/1999/xlink" x="0px" y="0px"
	 width="29.068px" height="29.068px" viewBox="1.466 1.466 29.068 29.068" enable-background="new 1.466 1.466 29.068 29.068"
	 xml:space="preserve">
<path fill="#000000" d="M16,1.466C7.973,1.466,1.466,7.973,1.466,16c0,8.027,6.508,14.534,14.534,14.534
	c8.027,0,14.534-6.507,14.534-14.534C30.534,7.973,24.027,1.466,16,1.466z M20.729,7.375c0.934,0,1.688,1.483,1.688,3.313
	S21.661,14,20.729,14c-0.933,0-1.688-1.482-1.688-3.312S19.798,7.375,20.729,7.375z M11.104,7.375c0.932,0,1.688,1.483,1.688,3.313
	S12.037,14,11.104,14c-0.934,0-1.688-1.482-1.688-3.312S10.172,7.375,11.104,7.375z M16.021,26c-2.873,0-5.563-1.757-7.879-4.811
	c2.396,1.563,5.021,2.436,7.773,2.436c2.923,0,5.701-0.979,8.215-2.733C21.766,24.132,18.99,26,16.021,26z"/>
</svg>
