<?xml version="1.0" encoding="utf-8"?>
<!-- Generator: Adobe Illustrator 16.0.0, SVG Export Plug-In . SVG Version: 6.00 Build 0)  -->
<!DOCTYPE svg PUBLIC "-//W3C//DTD SVG 1.1//EN" "http://www.w3.org/Graphics/SVG/1.1/DTD/svg11.dtd">
<svg version="1.1" id="Layer_1" xmlns="http://www.w3.org/2000/svg" xmlns:xlink="http://www.w3.org/1999/xlink" x="0px" y="0px"
	 width="97.391px" height="50.303px" viewBox="0 0 97.391 50.303" enable-background="new 0 0 97.391 50.303" xml:space="preserve">
<path fill="#321651" d="M21.841,30.903c0.026-0.147,0.075-0.303-0.062-0.428C21.718,30.629,21.738,30.772,21.841,30.903
	L21.841,30.903z M24.441,31.972c0.021-0.147,0.012-0.291-0.083-0.426C24.274,31.653,24.356,31.845,24.441,31.972L24.441,31.972z
	 M23.806,30.427c0.179-0.297-0.069-0.453-0.268-0.631C23.437,29.969,23.512,30.392,23.806,30.427L23.806,30.427z M25.381,29.837
	c0.004-0.13,0.009-0.324-0.156-0.389C25.191,29.582,25.284,29.765,25.381,29.837L25.381,29.837z M25.762,29.244
	c0.065-0.142,0.004-0.265-0.09-0.386C25.619,28.998,25.633,29.131,25.762,29.244L25.762,29.244z M24.701,27.517
	c-0.055-0.304,0.057-0.692-0.28-0.914C24.397,26.924,24.406,27.239,24.701,27.517L24.701,27.517z M25.671,27.843
	c0.028-0.104-0.004-0.301-0.129-0.302C25.508,27.651,25.583,27.749,25.671,27.843L25.671,27.843z M25.139,26.582
	c0.032-0.121-0.035-0.228-0.136-0.329c-0.024,0.016-0.05,0.021-0.072,0.035C24.939,26.415,24.965,26.621,25.139,26.582
	L25.139,26.582z M51.086,46.087c0.027-0.009,0.056-0.025,0.087-0.023c0.095-0.116,0.03-0.211,0.084-0.32
	c-0.097-0.047-0.181-0.016-0.271-0.002C50.81,45.884,50.922,45.987,51.086,46.087L51.086,46.087z M20.726,20.48
	c-0.056,0.068,0.037,0.055,0.039,0.098c-0.044,0.047-0.104-0.021-0.143,0.071c0.02-0.002,0.042,0.009,0.065,0.029
	c0.028,0.055-0.062,0.173-0.129,0.082C20.546,21.228,21.317,20.69,20.726,20.48L20.726,20.48z M27.024,21.888
	c0.14-0.005,0.268-0.114,0.406-0.12c0.081-0.14-0.083-0.246-0.051-0.379c0.049-0.067,0.127-0.138,0.077-0.19
	c-0.136,0.053-0.234,0.184-0.405,0.325c-0.064,0.013-0.081-0.106-0.153-0.094C26.825,21.599,26.946,21.74,27.024,21.888
	L27.024,21.888z M48.943,38.453c0.068-0.277-0.124-0.791-0.481-0.704c-0.052,0.08-0.034,0.148-0.06,0.229
	C48.553,38.153,48.759,38.376,48.943,38.453L48.943,38.453z M56.545,43.741c-0.009-0.196-0.182-0.584-0.464-0.58
	C55.987,43.425,56.334,43.61,56.545,43.741L56.545,43.741z M66.279,50.303c0.064-0.127-0.174-0.325-0.303-0.343
	C65.94,50.103,66.138,50.259,66.279,50.303L66.279,50.303z M66.486,49.466c0.101-0.229-0.158-0.476-0.342-0.621
	C66.148,49.046,66.188,49.431,66.486,49.466L66.486,49.466z M53.697,39.66c0.176-0.226-0.185-1.015-0.477-0.741
	C52.992,39.133,53.335,39.666,53.697,39.66L53.697,39.66z M54.093,39.376c-0.137,0.076-0.298-0.078-0.236-0.225
	C53.985,39.067,54.124,39.259,54.093,39.376L54.093,39.376z M65.327,47.864c-0.145-0.098-0.276-0.336-0.438-0.286
	C65.023,47.653,65.175,47.892,65.327,47.864L65.327,47.864z M41.829,29.834c0.068-0.075,0.021-0.131,0.013-0.196
	c-0.046-0.025-0.088-0.027-0.129-0.008C41.687,29.703,41.747,29.817,41.829,29.834L41.829,29.834z M40.735,28.687
	c0.036-0.271-0.5-0.662-0.646-0.67C40.156,28.253,40.553,28.509,40.735,28.687L40.735,28.687z M55.33,38.64
	c0.133,0.787-0.617,0.194-0.615-0.264c-0.176-0.021-0.335-0.169-0.429-0.325c-0.143,0.046-0.291,0.007-0.444-0.042
	c-0.452-0.482,0.29-0.811,0.494-0.234c-0.026-0.239,0.15-0.519,0.413-0.455c-0.03-0.101-0.165-0.11-0.221-0.213
	c0.038-0.086,0.096-0.041,0.143-0.071c-0.126-0.734,0.984-0.132,0.534,0.337c-0.104,0.037-0.233-0.096-0.331,0.021
	c0.057,0.06,0.102,0.047,0.154,0.094c0.002,0.053-0.063,0.111-0.027,0.158c0.07,0.049,0.089,0.119,0.172,0.131
	c0.038,0.08-0.055,0.179,0.008,0.256c0.105,0.01,0.182-0.176,0.286-0.168c0.003-0.068-0.029-0.133-0.004-0.205
	c0.049,0.002,0.098,0.008,0.146,0.019c-0.048,0.114,0.062,0.206,0.007,0.321c0.253,0.204,0.218,0.45,0.146,0.698
	C55.625,38.737,55.46,38.563,55.33,38.64L55.33,38.64z M55.955,39.544c0.127-0.646,0.364-0.802,1.021-0.898
	c0.063,0.07,0.083,0.149,0.196,0.217c0.71-0.135,0.171,0.681,0.618,0.943c0.435-0.207,0.773,0.438,0.989,0.75
	c0.137-0.146,0.285-0.176,0.444-0.14c0.278,0.226,0.962,0.065,1.021,0.708c0.083,0.046,0.149-0.042,0.229-0.032
	c0.103,0.085,0.098,0.185,0.203,0.269c0.358-0.211,0.593,0.382,0.97,0.33c-0.019,0.125,0.091,0.234,0.141,0.354
	c0.196-0.627,0.766-0.054,1.11,0.053c0.059,0.444,0.449,1.021-0.129,1.393c-0.053-0.014-0.106-0.03-0.16-0.055
	c0.037-0.062,0.087-0.047,0.125-0.106c0.041-0.2-0.178-0.213-0.315-0.24c0.069-0.082,0.129-0.163,0.085-0.229
	c-0.208-0.034-0.345-0.303-0.589-0.355c-0.049-0.102-0.045-0.275-0.136-0.327c-0.188,0.244-0.427,0.138-0.615,0.392
	c-0.11-0.034-0.232-0.144-0.326-0.043c-0.004-0.184-0.149-0.276-0.167-0.467c-0.547,0.184-0.803-0.568-1.221-0.834
	c-0.09,0.039-0.191-0.025-0.274,0.064c-0.032,0.152,0.006,0.298-0.101,0.463c-0.642-0.02-0.477-0.723-0.854-1.054
	c-0.097-0.024-0.193-0.024-0.29-0.063c-0.093-0.221-0.438-0.318-0.615-0.261c-0.082-0.231-0.203-0.677-0.542-0.478
	C56.521,39.54,56.286,39.379,55.955,39.544L55.955,39.544z M64.782,45.778c0.127-0.252,0.021-0.471-0.233-0.674
	C64.111,45.228,64.397,45.847,64.782,45.778L64.782,45.778z M63.753,44.935C64.26,43.64,62.373,44.377,63.753,44.935L63.753,44.935z
	 M50.094,34.399c0.019-0.121-0.194-0.309-0.317-0.328c-0.014,0.019-0.028,0.037-0.042,0.058
	C49.826,34.241,49.994,34.332,50.094,34.399L50.094,34.399z M17.233,8.843c-0.054-0.086-0.239-0.064-0.273-0.207
	c-0.06,0.011-0.173-0.012-0.185,0.065C16.875,8.722,17.102,8.899,17.233,8.843L17.233,8.843z M63.862,43.299
	c-0.845-0.356-0.397,1.056,0.036,0.548C64.034,43.688,63.826,43.476,63.862,43.299L63.862,43.299z M64.748,44.692
	c-0.392,0.033-0.64-0.396-0.346-0.735C64.736,44.104,64.967,44.394,64.748,44.692L64.748,44.692z M29.585,17.91
	c-0.021-0.099,0.07-0.215,0.059-0.316c-0.072-0.06-0.121,0.047-0.175,0.114C29.515,17.774,29.532,17.846,29.585,17.91L29.585,17.91z
	 M47.416,31.197C47.085,30.468,46.613,31.175,47.416,31.197L47.416,31.197z M44.979,29.374c0.056-0.12-0.048-0.282-0.2-0.332
	C44.602,29.255,44.885,29.25,44.979,29.374L44.979,29.374z M58.724,39.765c0.112-0.19-0.279-0.379-0.441-0.488
	C58.276,39.452,58.562,39.653,58.724,39.765L58.724,39.765z M57.74,38.885c-0.229-0.344-0.467-0.946-1.018-0.95
	C56.612,38.42,57.415,38.646,57.74,38.885L57.74,38.885z M42.167,26.769c0.545-0.213,0.448-1.031-0.202-0.898
	c0.03,0.076-0.044,0.169-0.055,0.252c-0.09,0.031-0.191-0.023-0.284-0.014C41.295,26.509,41.842,26.837,42.167,26.769L42.167,26.769
	z M67.057,45.878c0.536,0.415,0.333-1.1-0.172-0.693C66.652,45.367,66.885,45.748,67.057,45.878L67.057,45.878z M63.903,43.216
	c0.044-0.061,0.062-0.119,0.089-0.18c0.457,0.111,0.734,0.286,1.145,0.55c0.03-0.065,0.083-0.179,0.155-0.177
	c0.143,0.145,0.25,0.292,0.343,0.441c0.055-0.074,0.125-0.039,0.182-0.09c0.146-0.267,0.004-0.539-0.303-0.703
	c-0.07-0.089,0.161-0.219,0.1-0.311c-0.166-0.051-0.427-0.452-0.693-0.277c-0.172-0.21-0.259-0.447-0.545-0.502
	c-0.004-0.09,0.087-0.191,0.103-0.283c-0.131-0.049-0.238,0.082-0.355,0.113c-0.246-0.381-0.98-1.229-1.346-0.611
	c0.044,0.231,0.368,0.373,0.439,0.582c0.174,0.074,0.313-0.095,0.489,0.01c-0.188,0.275-0.485,0.453-0.576,0.852
	C63.364,42.933,63.522,43.254,63.903,43.216L63.903,43.216z M35.636,21.909c-0.09-0.099-0.246-0.299-0.375-0.217
	C35.339,21.79,35.531,21.935,35.636,21.909L35.636,21.909z M51.158,33.625c-0.025-0.13-0.208-0.347-0.373-0.374
	C50.697,33.378,51,33.633,51.158,33.625L51.158,33.625z M52.541,34.72c0.047-0.15-0.175-0.248-0.276-0.32
	C52.202,34.521,52.414,34.661,52.541,34.72L52.541,34.72z M61.574,41.519c0.05-0.094-0.024-0.232-0.141-0.263
	C61.289,41.362,61.458,41.528,61.574,41.519L61.574,41.519z M66.591,45.3c-0.708-0.082-0.759-1.156-0.059-0.904
	c0.156,0.277,0.234,0.567,0.095,0.889C66.615,45.276,66.603,45.281,66.591,45.3L66.591,45.3z M18.421,8.501
	c-0.062-0.119-0.31-0.294-0.454-0.209C18.05,8.435,18.219,8.611,18.421,8.501L18.421,8.501z M36.961,22.755
	c0.052-0.055,0.065-0.104,0.069-0.151c-0.087-0.137-0.247-0.155-0.353-0.132C36.626,22.628,36.9,22.618,36.961,22.755L36.961,22.755
	z M48.721,31.621c0.694,0.356,1.464,0.866,2.207,1.174c-0.742-0.336-0.698-1.053-1.051-1.563c0-0.082,0.147-0.033,0.082-0.14
	c-0.055-0.051-0.098-0.009-0.133,0.056c-0.242-0.138-0.288-0.304-0.348-0.467c-0.057,0.053-0.034,0.092-0.084,0.143
	c-0.313-0.117-0.888-0.231-0.812,0.265c-0.221-0.104-0.323-0.53-0.609-0.507c-0.052,0.365,0.672,0.52,0.795,0.828
	C48.733,31.481,48.672,31.536,48.721,31.621L48.721,31.621z M68.194,46.017c-0.006-0.091-0.143-0.225-0.254-0.26
	C67.849,45.89,68.142,45.994,68.194,46.017L68.194,46.017z M18.114,7.976c0.039,0.015,0.071,0.006,0.105,0.013
	c0.101-0.086,0.008-0.197,0.139-0.213c0.009-0.053,0.028-0.106-0.021-0.15c-0.052,0.031-0.11,0.015-0.159,0.061
	C18.264,7.767,18.074,7.888,18.114,7.976L18.114,7.976z M61.167,40.147c0.169-0.197,0.121-0.366,0.067-0.535
	c-0.146-0.122-0.269-0.081-0.396-0.073C60.585,39.858,60.843,40.178,61.167,40.147L61.167,40.147z M51.187,32.451
	c-0.127-0.029-0.552-0.152-0.332-0.366C51.005,32.063,51.238,32.295,51.187,32.451L51.187,32.451z M59.42,38.668
	c0.031-0.138-0.13-0.248-0.143-0.379c-0.074-0.007-0.146-0.011-0.206,0.093C59.06,38.538,59.292,38.587,59.42,38.668L59.42,38.668z
	 M66.617,43.896c-0.347,0.178-0.25-0.096-0.203-0.356c-0.094-0.037-0.165,0.055-0.257,0.009c-0.279-0.421-0.593-1.156,0.24-0.971
	c0.171,0.111,0.276,0.302,0.443,0.337c0.038,0.103-0.016,0.217,0.105,0.308c-0.063,0.078-0.141,0.026-0.2,0.118
	c-0.021,0.07,0.084,0.125,0.103,0.19C66.652,43.528,66.705,43.763,66.617,43.896L66.617,43.896z M58.294,37.679
	c0.022-0.22-0.641-1.003-0.833-0.721C57.288,37.215,58.086,37.599,58.294,37.679L58.294,37.679z M70.038,44.567
	c-0.398-0.459-0.413-0.291-0.771-0.176c-0.438,0.142-0.221-0.045-0.484,0.311c-0.218,0.296-1.07-0.26-1.348-0.457
	c0.187-0.377-0.006-0.58-0.295-0.834c0.103-0.053,0.223,0.063,0.321-0.004c-0.064-0.112,0.059-0.244,0.166-0.281
	c-0.717-0.354-0.208-1.384,0.425-0.648c0.083,0.039,0.141-0.102,0.229-0.03c-0.065,0.079-0.206,0.173-0.156,0.266
	c0.198,0.185,0.233-0.233,0.411-0.187c0.157,0.101,0.331,0.298,0.479,0.318c0.045-0.119,0.128-0.17,0.23-0.097
	c-0.196,0.159-0.238,0.353-0.183,0.54c0.169,0.031,0.117,0.25,0.282,0.284c0.102-0.269,0.104-0.521,0.036-0.767
	c0.141-0.261,0.345-0.277,0.555-0.255c0.058,0.048,0.008,0.11,0.086,0.154c0.178-0.022,0.366,0.073,0.385,0.269
	c0.09-0.07,0.206,0.063,0.298,0.021c-0.596-0.197-0.89-1.607-0.112-0.831c0.123-0.026,0.084-0.257,0.25-0.33
	c-0.087-0.394-0.76-1.03-0.008-1.271c0.411-0.51,0.769,0.291,0.479,0.59c0.189,0.138,0.169,0.303,0.269,0.451
	c0.186-0.242,0.525-0.203,0.7,0.058c0.158-0.095,0.426,0.098,0.559,0.129c-0.524,0.699-1.102,1.503-1.636,2.127
	c-0.142-0.205-0.309-0.39-0.458-0.617c-0.041,0.021-0.084,0.009-0.119,0.066c0.043,0.159,0.048,0.319,0.017,0.487
	c-0.085,0.049-0.164,0.121-0.242,0.199C70.562,44.315,70.301,44.577,70.038,44.567L70.038,44.567z M71.204,42.019
	c-0.206,0.594-0.115,0.621,0.51,0.996c0-0.205,0.107-0.567,0.426-0.445c-0.03-0.225-0.517-0.299-0.557-0.604
	c-0.042,0.014-0.076,0.07-0.117,0.094C71.378,42.05,71.285,41.989,71.204,42.019L71.204,42.019L71.204,42.019z M47.539,28.919
	c-0.151-0.236-0.386-0.449-0.649-0.693c-0.071,0.107-0.201,0.137-0.24,0.199C46.922,28.783,47.291,28.675,47.539,28.919
	L47.539,28.919z M49.078,30.106c0.101-0.099-0.096-0.293-0.2-0.241C48.835,29.966,48.979,30.142,49.078,30.106L49.078,30.106z
	 M62.366,40.178c0.094,0.089,0.301,0.183,0.392,0.048C63.147,39.651,61.753,39.599,62.366,40.178L62.366,40.178z M61.928,39.438
	c-0.885-0.822-1.674-2.033-2.523-2.75c-0.058-0.008-0.01,0.088-0.054,0.074c-0.113,0-0.101-0.111-0.127-0.164
	c-0.159,0.168-0.396-0.021-0.553-0.104C58.367,38.11,61.061,38.133,61.928,39.438L61.928,39.438z M52.544,32.507
	c0.004-0.148-0.191-0.298-0.363-0.386C52.161,32.317,52.341,32.505,52.544,32.507L52.544,32.507z M51.306,31.547
	c0.067-0.052,0.004-0.087,0.06-0.137c0.065-0.009,0.139,0.024,0.215,0.073c-0.036-0.25-0.213-0.437-0.517-0.571
	c-0.123,0.163,0.125,0.274,0.159,0.415C51.036,31.371,51.161,31.575,51.306,31.547L51.306,31.547z M51.944,32.077
	c-0.12-0.201-0.487-0.25-0.517-0.482c0.214-0.049,0.304,0.389,0.494,0.305c-0.034-0.105-0.212-0.192-0.172-0.311
	c0.138,0.038,0.271,0.159,0.307,0.278C51.914,31.92,52.032,32.013,51.944,32.077L51.944,32.077z M55.818,34.717
	c-0.043-0.104-0.204-0.289-0.337-0.3C55.328,34.62,55.652,34.681,55.818,34.717L55.818,34.717z M48.947,29.06
	c-0.597-0.033-1.668-0.612-1.92-1.252c0.509-0.348,0.806,0.652,1.271,0.825C48.593,28.744,48.928,28.673,48.947,29.06L48.947,29.06z
	 M49.924,30.003c-0.11-0.221-0.47-0.463-0.691-0.547C49.237,29.765,49.645,29.854,49.924,30.003L49.924,30.003z M53.105,32.392
	c-0.182-0.131-0.61-0.183-0.512-0.455C52.845,31.867,53.031,32.213,53.105,32.392L53.105,32.392z M50.767,30.619
	c-0.109-0.022-0.324-0.164-0.284-0.282C50.613,30.345,50.774,30.515,50.767,30.619L50.767,30.619z M46.396,27.058
	c0.061-0.086-0.106-0.139-0.081-0.221c-0.316,0.068-0.549-0.773-0.924-0.449C45.494,26.729,46.111,26.961,46.396,27.058
	L46.396,27.058z M21.101,8.092c0.039,0.009,0.079,0.014,0.117,0.023c0.05-0.042,0.022-0.073,0.063-0.113
	c0.068-0.035,0.149,0.018,0.221,0.009c0.042-0.04-0.019-0.063,0.037-0.105c0.143-0.11,0.336,0.136,0.47-0.053
	c-0.265-0.045-0.646-0.136-0.92,0.05c0.017,0.064,0.117,0.049,0.106,0.126C21.169,8.092,21.127,8.042,21.101,8.092L21.101,8.092z
	 M58.803,36.233c-0.289-0.252-0.612-0.893-1.023-0.707C57.788,35.912,58.477,36.271,58.803,36.233L58.803,36.233z M33.625,17.199
	c0.062-0.086,0.004-0.154-0.081-0.219c-0.047,0.015-0.087,0.054-0.134,0.056C33.382,17.128,33.542,17.262,33.625,17.199
	L33.625,17.199z M66.088,41.644c-0.431,0.17-0.4-0.436-0.494-0.691c0.107-0.104,0.051-0.186,0.077-0.279
	c0.204,0.133,0.47,0.264,0.744,0.271c0.127,0.104,0.053,0.24,0.09,0.361c-0.162,0.09-0.184,0.278-0.264,0.434
	C66.167,41.742,66.162,41.694,66.088,41.644L66.088,41.644z M66.948,42.296c0.17-0.217-0.005-0.386-0.14-0.561
	c-0.106,0.065-0.218,0.108-0.311,0.263C66.591,42.156,66.781,42.294,66.948,42.296L66.948,42.296z M47.861,27.808
	c0.014-0.092-0.175-0.213-0.266-0.246C47.543,27.665,47.763,27.839,47.861,27.808L47.861,27.808z M50.947,30.146
	c-0.331-0.33-0.787-0.472-1.112-0.887c0.09-0.063,0.134-0.135,0.168-0.191C50.427,29.29,50.465,29.821,50.947,30.146L50.947,30.146z
	 M48.989,28.347c-0.058-0.266-0.393-0.229-0.557-0.398C48.464,28.101,48.829,28.327,48.989,28.347L48.989,28.347z M49.923,29.053
	c-0.039-0.146-0.287-0.384-0.47-0.424C49.373,28.847,49.761,28.978,49.923,29.053L49.923,29.053z M53.718,31.974
	c0.028-0.106-0.18-0.182-0.193-0.281c0.056-0.039,0.125,0.049,0.187,0.052c0.065-0.254-0.174-0.464-0.313-0.688
	c0.066-0.017,0.142,0.035,0.211,0.047c-0.035-0.127-0.163-0.16-0.268-0.271c-0.029,0.051-0.063,0.045-0.097,0.039
	c-0.042,0.049,0.012,0.085-0.01,0.128c-0.062,0.011-0.056-0.057-0.113-0.085c-0.012,0.019-0.022,0.024-0.037,0.019
	c-0.026,0.184,0.176,0.336,0.198,0.512c-0.026,0.053-0.066-0.002-0.094,0.063C53.294,31.692,53.552,31.847,53.718,31.974
	L53.718,31.974z M48.224,27.653c-0.365-0.233-0.373-0.701-0.639-0.823c0.012,0.127-0.135,0.119-0.153,0.201
	C47.563,27.331,47.993,27.438,48.224,27.653L48.224,27.653z M49.386,28.239c-0.079-0.321-0.399-0.321-0.651-0.424
	C48.781,28.054,49.183,28.229,49.386,28.239L49.386,28.239z M52.836,30.63c0.113,0.094,0.221,0.157,0.325,0.199
	c-0.021-0.137-0.183-0.313-0.313-0.395c-0.011,0.019-0.021,0.022-0.037,0.019c-0.011,0.099-0.054,0.149-0.104,0.169
	C52.722,30.692,52.798,30.664,52.836,30.63L52.836,30.63z M49.753,28.112c0.032-0.016,0.065-0.016,0.099-0.039
	c0.037-0.108-0.067-0.197-0.117-0.292c-0.044-0.005-0.083,0.034-0.125,0.042c-0.09-0.057-0.127-0.12-0.18-0.182
	c-0.01-0.065,0.051-0.031,0.081-0.076c-0.049-0.062-0.006-0.135-0.103-0.189c-0.062,0.018-0.071,0.038-0.104,0.104
	c-0.075,0.008-0.121-0.06-0.183-0.117c-0.082-0.006-0.157,0.045-0.237,0.047c-0.073-0.1-0.183-0.217-0.291-0.151
	C48.775,27.726,49.451,27.726,49.753,28.112L49.753,28.112z M57.144,33.622c-0.048-0.146-0.285-0.396-0.438-0.287
	C56.661,33.535,57.015,33.597,57.144,33.622L57.144,33.622z M45.539,24.849c0.027-0.098-0.156-0.166-0.14-0.263
	c-0.049-0.021-0.099-0.039-0.143-0.019C45.175,24.73,45.403,24.876,45.539,24.849L45.539,24.849z M50.6,28.753
	c0.016-0.188-0.253-0.466-0.472-0.538C49.99,28.403,50.53,28.519,50.6,28.753L50.6,28.753z M52.593,30.149
	c-0.138-0.254-0.403-0.325-0.611-0.508C52.067,29.858,52.383,30.021,52.593,30.149L52.593,30.149z M53.999,31.125
	c-0.266-0.219-0.778-0.469-0.958-0.794c0.104-0.014,0.229,0.12,0.325,0.021c0.103,0.066,0.169,0.14,0.247,0.209
	c0.017,0.086-0.104,0.02-0.091,0.09c0.055,0.131,0.184,0.135,0.294,0.179C53.857,30.931,53.902,31.031,53.999,31.125L53.999,31.125z
	 M59.925,35.526c-0.169-0.198-0.358-0.448-0.617-0.469C59.45,35.288,59.697,35.379,59.925,35.526L59.925,35.526z M55.808,32.226
	c-0.281-0.216-0.721-0.488-0.988-0.84c0.078-0.148-0.162-0.461-0.326-0.314c-0.032,0.06,0.069,0.102,0.035,0.162
	c-0.108,0.055-0.182-0.151-0.303-0.14C54.537,31.537,55.384,31.938,55.808,32.226L55.808,32.226z M52.462,29.756
	c-0.121-0.205-0.558-0.245-0.575-0.524c0.244-0.064,0.322,0.345,0.56,0.334C52.472,29.626,52.515,29.685,52.462,29.756
	L52.462,29.756z M48.505,26.511c0.04-0.119-0.185-0.223-0.276-0.232C48.211,26.382,48.418,26.491,48.505,26.511L48.505,26.511z
	 M51.484,28.633c-0.225-0.144-0.39-0.457-0.645-0.464C50.859,28.388,51.316,28.662,51.484,28.633L51.484,28.633z M50.939,27.949
	c-0.038-0.132-0.198-0.31-0.347-0.285C50.606,27.81,50.793,27.942,50.939,27.949L50.939,27.949z M56.273,31.879
	c-0.23-0.104-0.813-0.302-0.843-0.616C55.68,31.353,56.117,31.687,56.273,31.879L56.273,31.879z M52.734,29.217
	c0.03-0.165-0.287-0.153-0.419-0.34c-0.019,0.007-0.035,0.013-0.048,0.033C52.371,29.002,52.583,29.097,52.734,29.217L52.734,29.217
	z M53.853,29.976c-0.067-0.203-0.383-0.553-0.629-0.543C53.208,29.674,53.654,29.865,53.853,29.976L53.853,29.976z M54.914,30.781
	c-0.038-0.177-0.294-0.251-0.451-0.388C54.472,30.546,54.763,30.697,54.914,30.781L54.914,30.781z M50.881,27.521
	c-0.272-0.194-0.571-0.67-0.963-0.64C50.084,27.244,50.566,27.369,50.881,27.521L50.881,27.521z M53.262,29.323
	c-0.169-0.147-0.635-0.293-0.722-0.569C52.771,28.705,53.087,29.134,53.262,29.323L53.262,29.323z M69.667,41.688
	c-0.064-0.219,0.013-0.455,0.021-0.685c-0.175-0.146-0.224-0.212-0.416-0.313c-0.336,0.476-0.656-0.424-1.031-0.219
	C68.731,40.874,69.078,41.485,69.667,41.688L69.667,41.688z M43.893,22.043c-0.021-0.104-0.063-0.205-0.182-0.295
	c-0.032,0.018-0.064,0.034-0.095,0.063C43.628,21.944,43.77,21.998,43.893,22.043L43.893,22.043z M54.731,30.099
	c-0.191-0.09-0.323-0.436-0.529-0.313C54.291,29.937,54.572,30.13,54.731,30.099L54.731,30.099z M66.468,38.993
	c0.02-0.145-0.299-0.396-0.422-0.364C65.954,38.853,66.333,38.86,66.468,38.993L66.468,38.993z M53.422,28.994
	c-0.271-0.165-0.473-0.327-0.771-0.562C52.93,28.231,53.218,28.798,53.422,28.994L53.422,28.994z M51.929,27.772
	c-0.135-0.277-0.494-0.479-0.802-0.608C51.272,27.459,51.637,27.565,51.929,27.772L51.929,27.772z M43.364,21.281
	c-0.035-0.147-0.169-0.43-0.377-0.398C42.866,21.112,43.246,21.175,43.364,21.281L43.364,21.281z M66.175,38.458
	c0.017-0.109-0.173-0.182-0.273-0.234C65.817,38.358,66.085,38.427,66.175,38.458L66.175,38.458z M54.563,29.634
	c-0.224-0.171-0.646-0.332-0.803-0.607C54.107,29.094,54.349,29.336,54.563,29.634L54.563,29.634z M56.932,31.429
	c-0.256-0.203-0.516-0.746-0.883-0.715C56.34,30.918,56.584,31.254,56.932,31.429L56.932,31.429z M58.385,32.371
	c-0.071-0.201-0.28-0.37-0.488-0.368C57.909,32.188,58.234,32.303,58.385,32.371L58.385,32.371z M24.215,6.545
	c0.167,0,0.359,0.18,0.502-0.005C24.538,6.455,24.378,6.512,24.215,6.545L24.215,6.545z M53.646,28.758
	c0.443-0.366-0.309-0.751-0.64-0.915c-0.042,0.063,0.012,0.111-0.067,0.178C53.224,28.276,53.345,28.608,53.646,28.758
	L53.646,28.758z M47.692,24.244c0.228-0.178,0.01-0.39-0.196-0.486c-0.032,0.134,0.229,0.15,0.22,0.277
	c-0.059,0.102-0.163-0.122-0.227-0.058C47.468,24.078,47.6,24.159,47.692,24.244L47.692,24.244z M24.826,6.872
	c0.085,0.082,0.161,0.115,0.228,0.059c0.024-0.064-0.004-0.12-0.051-0.173c0.018-0.055,0.065-0.112,0.055-0.162
	c-0.071-0.025-0.142-0.034-0.202,0.027c0.024,0.018,0.046,0.037,0.073,0.056C24.869,6.745,24.842,6.81,24.826,6.872L24.826,6.872z
	 M46.323,23.07c-0.063-0.058-0.198-0.218-0.285-0.192C46.01,22.979,46.252,23.123,46.323,23.07L46.323,23.07z M49.455,25.467
	c0.051-0.006,0.036-0.059,0.051-0.097c0.142,0.023,0.297,0.171,0.438,0.196c0.022-0.071-0.103-0.123-0.129-0.188
	c0.075-0.104,0.2,0.13,0.274,0.026c-0.103-0.102-0.16-0.208-0.288-0.309c-0.011-0.039,0.07-0.095,0.058-0.137
	c-0.209-0.229-0.646-0.48-0.83-0.45c0.15,0.199,0.589,0.419,0.621,0.7c-0.197,0.017-0.447,0.026-0.604-0.188
	C48.926,25.243,49.306,25.354,49.455,25.467L49.455,25.467z M54.335,29.101c-0.002-0.091,0.061-0.054,0.073-0.127
	c-0.137-0.097-0.188-0.236-0.345-0.26c-0.031,0.063,0.014,0.117-0.027,0.184C54.116,28.978,54.237,29.097,54.335,29.101
	L54.335,29.101z M56.85,30.552c-0.042-0.101-0.123-0.051-0.182,0c-0.187-0.146-0.282-0.426-0.54-0.478
	c-0.04,0.052,0.024,0.131-0.044,0.147c-0.051,0.004-0.188-0.09-0.24-0.162c0.068-0.076,0.09,0.03,0.156,0.03
	c0.03-0.131-0.017-0.255-0.151-0.364c-0.163,0.063-0.383-0.11-0.524-0.172c-0.081,0.129,0.146,0.211,0.237,0.315
	C55.543,30.253,56.481,30.601,56.85,30.552L56.85,30.552z M43.906,21.129c0.014-0.156-0.187-0.362-0.355-0.362
	C43.522,20.914,43.743,21.123,43.906,21.129L43.906,21.129z M57.757,31.647c-0.03-0.09-0.195-0.252-0.305-0.254
	C57.429,31.509,57.675,31.621,57.757,31.647L57.757,31.647z M48.714,24.771c0.031-0.131-0.209-0.298-0.337-0.3
	C48.386,24.601,48.585,24.728,48.714,24.771L48.714,24.771z M25.934,7.258c0.123-0.031,0.254-0.024,0.367-0.127
	c-0.03-0.05-0.014-0.108-0.059-0.158c-0.096,0.189-0.238,0.013-0.333,0.2C25.917,7.202,25.934,7.229,25.934,7.258L25.934,7.258z
	 M46.265,22.643c0.005-0.099-0.145-0.256-0.254-0.26C45.958,22.516,46.167,22.539,46.265,22.643L46.265,22.643z M43.626,20.577
	c0.04-0.088-0.035-0.188-0.127-0.188C43.351,20.485,43.554,20.623,43.626,20.577L43.626,20.577z M53.176,27.771
	c-0.178-0.207-0.369-0.4-0.463-0.646c0.071-0.015,0.153,0.047,0.224,0.034c-0.054-0.313-0.49-0.338-0.634-0.233
	C52.446,27.249,52.752,27.62,53.176,27.771L53.176,27.771z M68.289,39.153c-0.007-0.127-0.233-0.316-0.397-0.368
	C67.782,39.033,68.216,39.062,68.289,39.153L68.289,39.153z M48.277,23.92c-0.103-0.078-0.375-0.18-0.326-0.314
	C48.085,23.644,48.245,23.794,48.277,23.92L48.277,23.92z M47.474,23.131c-0.001-0.094-0.219-0.319-0.334-0.275
	C47.23,22.943,47.354,23.089,47.474,23.131L47.474,23.131z M57.119,30.168c-0.27,0.108-0.673-0.257-0.874-0.457
	c0.117-0.114-0.104-0.185-0.078-0.285C56.511,29.532,56.732,29.911,57.119,30.168L57.119,30.168z M28.45,8.262
	C27.91,7.939,27.878,8.525,28.45,8.262L28.45,8.262z M27.403,7.763c0.158,0.09,0.304,0.078,0.437-0.008
	C27.686,7.696,27.541,7.699,27.403,7.763L27.403,7.763z M57.189,30.313c0.142,0.098,0.278,0.148,0.413,0.199
	C57.675,30.376,57.284,30.181,57.189,30.313L57.189,30.313z M52.863,26.897c-0.627-0.418-1.112-0.812-1.641-1.289
	c0.097-0.022,0.148-0.018,0.209-0.157c0.248,0.133,0.414,0.346,0.617,0.467c-0.045,0.055-0.111-0.063-0.151,0.021
	C52.006,26.44,52.937,26.342,52.863,26.897L52.863,26.897z M48.468,23.456c-0.076-0.125-0.236-0.223-0.359-0.182
	c-0.083-0.098-0.204-0.298-0.333-0.275C47.839,23.235,48.253,23.458,48.468,23.456L48.468,23.456z M56.115,29.317
	c-0.236-0.194-0.539-0.545-0.791-0.508C55.574,29.044,55.835,29.133,56.115,29.317L56.115,29.317z M46.917,22.167
	c-0.079-0.073-0.149-0.087-0.221-0.099C46.529,22.238,46.908,22.332,46.917,22.167L46.917,22.167z M50.626,25.022
	c-0.401-0.244-0.895-0.52-1.127-0.898c0.105,0.049,0.209,0.086,0.319,0.175c0.013-0.117-0.091-0.219-0.235-0.315
	c0.075-0.077,0.152-0.119,0.244-0.085c-0.125,0.183,0.189,0.226,0.208,0.383c-0.063,0.042-0.14-0.019-0.202,0.027
	C50.042,24.567,50.447,24.738,50.626,25.022L50.626,25.022z M55.355,28.472c-0.155-0.191-0.372-0.498-0.609-0.598
	C54.918,28.147,54.968,28.368,55.355,28.472L55.355,28.472z M57.125,29.834c-0.199-0.071-0.292-0.233-0.258-0.377
	c0.077-0.026,0.171,0.097,0.198,0.153c0.162-0.055,0.35,0.166,0.479,0.295c-0.104,0.063-0.236-0.096-0.353-0.133
	C57.175,29.83,57.171,29.815,57.125,29.834L57.125,29.834z M53.974,27.401c0.026-0.127-0.24-0.272-0.354-0.336
	c-0.016,0.019-0.028,0.037-0.044,0.057C53.692,27.247,53.831,27.317,53.974,27.401L53.974,27.401z M71.925,41.005
	c0.369-0.304,0.107-0.783-0.246-0.75C71.357,40.597,71.539,40.81,71.925,41.005L71.925,41.005z M70.165,39.063
	c-0.068,0.078-0.104,0.149-0.147,0.227C70.168,40.259,71.028,38.985,70.165,39.063L70.165,39.063z M58.566,30.701
	c-0.152-0.156-0.304-0.351-0.512-0.455C58.038,30.437,58.397,30.572,58.566,30.701L58.566,30.701z M54.678,27.664
	c0.072,0.002,0.144-0.019,0.216-0.017c-0.074-0.088-0.184-0.164-0.282-0.192C54.604,27.528,54.727,27.584,54.678,27.664
	L54.678,27.664z M48.144,22.576c-0.01-0.189-0.347-0.267-0.478-0.386C47.702,22.352,47.982,22.543,48.144,22.576L48.144,22.576z
	 M50.128,23.921c-0.032-0.205-0.369-0.29-0.53-0.312C49.705,23.78,49.943,23.9,50.128,23.921L50.128,23.921z M45.791,20.702
	c0.044-0.217-0.395-0.399-0.522-0.442C45.355,20.416,45.651,20.597,45.791,20.702L45.791,20.702z M73.075,41.425
	c0.47-0.576,1.193-1.305,1.399-1.967c0.056-0.023,0.031,0.102,0.102,0.077c0.111-0.179,0.329-0.371,0.361-0.539
	c-0.334,0.144-0.625,0.54-1.052,0.196c-0.198,0.027-0.263,0.233-0.255,0.396c-0.302-0.347-0.691-0.319-0.986,0.021
	c-0.084-0.23-0.252-0.493-0.548-0.528c-0.115,0.131-0.234,0.242-0.361,0.269c-0.029,0.146,0.002,0.282-0.057,0.433
	c-0.057,0.063-0.063-0.077-0.123-0.048c-0.023,0.188,0.317,0.179,0.284,0.371c0.212,0.053,0.42,0.071,0.606-0.058
	c0.072,0.172,0.009,0.397-0.152,0.562C72.52,40.839,73.131,41.114,73.075,41.425L73.075,41.425z M73.633,40.063L73.633,40.063
	c0.087-0.018,0.193,0.119,0.295,0.179c-0.017,0.062-0.042,0.126-0.103,0.194C73.601,40.456,73.537,40.228,73.633,40.063
	L73.633,40.063z M50.786,24.397c-0.141-0.192-0.203-0.529-0.46-0.618c0.078,0.064,0.12,0.059,0.146,0.134
	c-0.061,0.053-0.141-0.024-0.19,0.103C50.352,24.194,50.609,24.363,50.786,24.397L50.786,24.397z M55.233,27.769
	c-0.124-0.039-0.299-0.101-0.325-0.226c0.02-0.075,0.123-0.009,0.104-0.077c-0.266-0.232-0.643-0.15-0.775-0.498
	c0.052-0.025,0.108,0.039,0.165,0.079c0.057,0,0.107-0.034,0.163-0.034c0.202,0.133,0.371,0.272,0.531,0.401
	c-0.003,0.052-0.079,0.114-0.031,0.159C55.148,27.635,55.223,27.697,55.233,27.769L55.233,27.769z M51.383,24.828
	c0.018-0.122,0.133-0.081,0.211-0.042c-0.03-0.166-0.322-0.294-0.426-0.121C51.2,24.741,51.298,24.826,51.383,24.828L51.383,24.828z
	 M53.502,26.413c-0.066-0.128-0.268-0.355-0.435-0.354C53.08,26.208,53.381,26.353,53.502,26.413L53.502,26.413z M29.493,8.195
	c0.041,0.007,0.081,0.021,0.114-0.003c0.08,0.176,0.307,0.132,0.434,0.055c-0.115-0.078-0.337-0.151-0.482-0.139
	C29.537,8.138,29.515,8.165,29.493,8.195L29.493,8.195z M47.823,21.657c-0.104-0.257-0.369-0.746-0.734-0.762
	C47.021,21.206,47.521,21.431,47.823,21.657L47.823,21.657z M57.266,28.633c-0.106-0.065-0.227-0.214-0.323-0.2
	c-0.021,0.027-0.044,0.058-0.063,0.086C56.967,28.567,57.168,28.825,57.266,28.633L57.266,28.633z M30.344,8.207
	c-0.095,0.17-0.333-0.064-0.232-0.174C30.228,8.009,30.219,8.154,30.344,8.207L30.344,8.207z M61.41,31.75
	c-0.221-0.177-0.477-0.437-0.807-0.635C60.589,31.46,61.172,31.54,61.41,31.75L61.41,31.75z M55.583,27.334
	c-0.03-0.067-0.117-0.129-0.145-0.198c-0.054-0.029-0.169-0.002-0.171,0.051C55.333,27.308,55.489,27.313,55.583,27.334
	L55.583,27.334z M57.859,29.013c0.024-0.046,0.021-0.089-0.018-0.125c-0.103,0.081-0.242-0.143-0.338-0.031
	C57.581,28.964,57.746,28.958,57.859,29.013L57.859,29.013z M30.011,7.841c0.117,0.058,0.327,0.085,0.335-0.085
	c0.139,0.007,0.164-0.135,0.185-0.243c-0.056-0.035-0.105-0.025-0.16-0.055c-0.079,0.095-0.081,0.244-0.206,0.209
	c-0.054,0.044-0.002,0.075-0.021,0.117C30.101,7.81,30.052,7.798,30.011,7.841L30.011,7.841z M57.562,28.539
	c-0.218-0.16-0.553-0.254-0.775-0.497c0.012-0.02,0-0.046,0.037-0.018C57.055,28.13,57.386,28.354,57.562,28.539L57.562,28.539z
	 M54.449,26.09c0.012-0.048-0.058-0.087-0.107-0.127c0.04-0.071,0.104-0.003,0.151-0.021c-0.29-0.127-0.611-0.479-0.98-0.674
	C53.692,25.541,54.05,26.031,54.449,26.09L54.449,26.09z M56.99,27.835c-0.079-0.156-0.351-0.371-0.512-0.342
	C56.475,27.699,56.837,27.718,56.99,27.835L56.99,27.835z M48.003,21.092c-0.204-0.12-0.563-0.391-0.486-0.549
	c0.144,0.044,0.292,0.14,0.444,0.246c0.037-0.048,0.081-0.037,0.123-0.041c0.099,0.114,0.283,0.217,0.279,0.346
	c-0.069-0.059-0.135-0.098-0.198-0.127C48.096,20.984,48.037,21.056,48.003,21.092L48.003,21.092z M59.931,29.974
	c-0.074-0.151-0.353-0.3-0.506-0.406C59.516,29.753,59.739,29.888,59.931,29.974L59.931,29.974z M54.542,25.937
	c0.16,0.135,0.314,0.221,0.463,0.282C54.898,26.112,54.688,25.847,54.542,25.937L54.542,25.937z M61.12,30.763
	c0.017-0.166-0.197-0.211-0.304-0.32c-0.271,0.104-0.525-0.418-0.832-0.449C60.256,30.331,60.756,30.56,61.12,30.763L61.12,30.763z
	 M51.439,23.471c-0.067-0.094-0.206-0.163-0.286-0.217c-0.031,0.006-0.021,0.017-0.031,0.043
	C51.183,23.381,51.356,23.525,51.439,23.471L51.439,23.471z M51.645,23.647c0.182,0.173,0.333,0.106,0.51,0.253
	c-0.093-0.143-0.268-0.238-0.4-0.396C51.702,23.537,51.667,23.602,51.645,23.647L51.645,23.647z M57.009,27.42
	c-0.121,0.044-0.445-0.183-0.341-0.325c0.158,0.027,0.25,0.331,0.424,0.276c-0.012-0.024-0.004-0.052,0.017-0.081
	c0.087,0.05,0.163,0.009,0.25,0.057c-0.015,0.088,0.036,0.168,0.087,0.245c-0.087-0.032-0.021,0.076-0.08,0.074
	C57.234,27.589,57.077,27.558,57.009,27.42L57.009,27.42z M58.038,28.178c0.057-0.126-0.226-0.313-0.328-0.249
	C57.766,28.058,57.917,28.097,58.038,28.178L58.038,28.178z M30.872,7.568c0.063-0.068,0.03-0.125,0.025-0.184
	c0.079-0.037,0.185,0.178,0.294,0.178c0.121-0.257-0.205-0.254-0.347-0.376c-0.061,0.126-0.003,0.141-0.135,0.236
	C30.742,7.489,30.8,7.577,30.872,7.568L30.872,7.568z M48.283,20.513c-0.015-0.123-0.14-0.271-0.286-0.307
	C47.966,20.318,48.187,20.502,48.283,20.513L48.283,20.513z M54.737,25.292c-0.123,0.016-0.445-0.11-0.434-0.262
	C54.434,25.002,54.625,25.179,54.737,25.292L54.737,25.292z M51.959,23.231c0.161,0.044,0.263,0.223,0.418,0.227
	c-0.057-0.14-0.265-0.362-0.416-0.406C51.931,23.116,51.963,23.173,51.959,23.231L51.959,23.231z M28.009,4.314
	c-0.057-0.086-0.194-0.145-0.28-0.169c-0.033,0.093-0.112,0.177-0.186,0.243C27.632,4.679,27.971,4.574,28.009,4.314L28.009,4.314z
	 M57.992,27.375c-0.157-0.304-0.56-0.386-0.813-0.479C57.407,27.101,57.738,27.271,57.992,27.375L57.992,27.375z M50.689,21.93
	c0.034-0.139-0.239-0.3-0.373-0.373C50.28,21.698,50.556,21.853,50.689,21.93L50.689,21.93z M30.527,6.651
	c0.146-0.015,0.268,0.006,0.365-0.152c-0.021-0.031-0.146,0-0.209-0.022C30.635,6.594,30.563,6.604,30.527,6.651L30.527,6.651z
	 M28.63,5.102c0.133-0.079,0.143-0.229,0.186-0.335c-0.125-0.011-0.258-0.077-0.381-0.063C28.4,4.842,28.416,5.079,28.63,5.102
	L28.63,5.102z M32.046,7.689c0.054-0.063,0.119-0.059,0.177-0.114c-0.048-0.062-0.081-0.013-0.123-0.048
	c-0.054-0.061-0.044-0.157,0.036-0.198C31.897,7.174,31.756,7.621,32.046,7.689L32.046,7.689z M58.645,27.733
	c-0.095-0.133-0.264-0.248-0.411-0.289c-0.01,0.015-0.021,0.029-0.031,0.043C58.306,27.606,58.518,27.749,58.645,27.733
	L58.645,27.733z M64.282,31.981c0-0.16-0.269-0.264-0.401-0.303C63.937,31.825,64.135,31.925,64.282,31.981L64.282,31.981z
	 M53.345,23.671c-0.057-0.104-0.367-0.521-0.533-0.402C52.988,23.35,53.132,23.626,53.345,23.671L53.345,23.671z M51.244,21.853
	c-0.085-0.109-0.199-0.212-0.322-0.199C50.888,21.809,51.134,21.928,51.244,21.853L51.244,21.853z M49.562,20.556
	c0-0.072-0.035-0.134,0.025-0.183c-0.023-0.018-0.048-0.038-0.071-0.055c-0.035,0.003-0.06,0.061-0.096,0.064
	c-0.047-0.037-0.095-0.072-0.144-0.108C49.318,20.373,49.436,20.587,49.562,20.556L49.562,20.556z M53.75,23.165
	c-0.396-0.146-0.78-0.351-1.153-0.624c0.066-0.064,0.009-0.113,0.016-0.169c0.062,0.045,0.121,0.066,0.177,0.066
	c0.029-0.038,0.059-0.087,0.091-0.091c0.284,0.225,0.508,0.303,0.75,0.41c-0.036-0.013-0.068-0.009-0.103,0.015
	C53.541,22.912,53.9,23.004,53.75,23.165L53.75,23.165z M55.937,25.049c0.233,0.196,0.437,0.174,0.645,0.194
	c-0.097-0.087-0.325-0.313-0.485-0.345C56.072,25.024,55.958,24.983,55.937,25.049L55.937,25.049z M55.13,24.415
	c0.141,0.029,0.307,0.229,0.44,0.221c-0.059-0.135-0.217-0.181-0.338-0.3C55.201,24.367,55.125,24.363,55.13,24.415L55.13,24.415z
	 M57.471,25.918c-0.061-0.151-0.324-0.265-0.456-0.322C57.046,25.776,57.33,25.831,57.471,25.918L57.471,25.918z M59.582,27.337
	c-0.158-0.297-0.604-0.445-0.861-0.563C58.907,27.031,59.295,27.177,59.582,27.337L59.582,27.337z M74.68,38.801
	c0.062-0.056,0.13-0.054,0.188-0.128C75,37.715,73.708,38.496,74.68,38.801L74.68,38.801z M56.608,24.878
	c-0.229-0.152-0.954-0.373-0.851-0.573c-0.757-0.466-1.178-1.143-1.742-1.638c0.076-0.047,0.171,0.058,0.258,0.08
	c0.046-0.046,0.1-0.06,0.111-0.119c-0.051-0.048-0.107-0.097-0.138-0.147c0.214-0.094,0.442,0.3,0.674,0.216
	c0.72,0.459,1.76,1.241,2.404,1.98c0.41,0.104,0.591,0.44,1.002,0.646c-0.335-0.104-0.671-0.198-1.007-0.309
	c-0.036-0.154-0.183-0.286-0.31-0.369c-0.066,0.035-0.029,0.104-0.123,0.132c0.009,0.043,0.083,0.074,0.069,0.119
	c-0.12,0.022-0.189-0.153-0.304-0.139C56.583,24.798,56.691,24.921,56.608,24.878L56.608,24.878z M52.264,21.61
	c-0.063-0.156-0.327-0.254-0.496-0.331C51.811,21.433,52.107,21.669,52.264,21.61L52.264,21.61z M26.271,1.957
	c0.117-0.232,0.175-0.472,0.131-0.713c-0.075-0.065-0.15-0.109-0.22-0.124C26.002,1.448,26.048,1.71,26.271,1.957L26.271,1.957z
	 M31.708,6.078c0.088-0.063,0.19-0.025,0.264,0.039C32.101,5.84,31.388,5.759,31.708,6.078L31.708,6.078z M32.317,6.109
	C31.917,6.107,32.351,5.759,32.317,6.109L32.317,6.109z M33.446,6.853c0.058-0.191-0.089-0.355,0.04-0.558
	c-0.198-0.088-0.208-0.45-0.427-0.3c-0.006,0.096,0.074,0.177,0.064,0.272c0.097,0.119,0.165,0.032,0.259,0.106
	c-0.063,0.123-0.271-0.042-0.384,0.027c-0.03-0.073-0.078-0.199-0.195-0.216C32.696,6.512,33.151,6.741,33.446,6.853L33.446,6.853z
	 M25.539,0C24.896,0.958,26.325,0.351,25.539,0L25.539,0z M59.359,26.198c-0.105-0.137-0.354-0.307-0.553-0.465
	C58.766,25.967,59.188,26.008,59.359,26.198L59.359,26.198z M60.419,27.093c0.152,0.08,0.31,0.18,0.437,0.08
	c-0.053-0.088-0.204-0.141-0.297-0.203C60.51,26.994,60.462,27.022,60.419,27.093L60.419,27.093z M60.196,26.763
	c-0.12-0.16-0.461-0.311-0.62-0.402C59.684,26.522,60.016,26.704,60.196,26.763L60.196,26.763z M26.974,1.475
	c0.254-0.249,0.055-0.437,0.142-0.662c-0.09-0.08-0.17-0.097-0.246-0.095C26.722,0.979,26.539,1.459,26.974,1.475L26.974,1.475z
	 M32.128,5.313c0.074-0.072,0.118-0.245-0.044-0.327C32.052,5.101,32.056,5.211,32.128,5.313L32.128,5.313z M55.386,22.914
	c0.074,0.004,0.133-0.092,0.202-0.116c-0.166-0.201-0.384-0.305-0.592-0.382c-0.036,0.029-0.07,0.05-0.102,0.104
	C54.995,22.725,55.287,22.747,55.386,22.914L55.386,22.914z M28.533,2.428c0.188,0.169,0.36,0.203,0.506,0.047
	c-0.062-0.095-0.002-0.206-0.018-0.308C28.797,2.002,28.555,2.16,28.533,2.428L28.533,2.428z M61.715,27.53
	c0.12,0.064,0.368,0.257,0.518,0.211C62.146,27.625,61.868,27.524,61.715,27.53L61.715,27.53z M34.323,6.591
	c0.037-0.18-0.23-0.125-0.338-0.211c-0.01-0.012-0.004-0.024-0.018-0.036c0.038-0.067,0.09-0.021,0.129-0.081
	c-0.039-0.062-0.093-0.179-0.192-0.193c-0.062,0.065,0.003,0.112,0.009,0.167c-0.022,0.053-0.059-0.002-0.082,0.05
	C33.867,6.492,34.153,6.497,34.323,6.591L34.323,6.591z M68.756,32.665c-0.195-0.186-0.376-0.41-0.598-0.343
	C68.32,32.522,68.566,32.535,68.756,32.665L68.756,32.665z M54.674,21.945c-0.136-0.115-0.262-0.175-0.389-0.229
	C54.322,21.845,54.551,21.998,54.674,21.945L54.674,21.945z M34.572,6.802c0.101,0.048,0.197,0.069,0.295,0.088
	c-0.012-0.229-0.295-0.423-0.446-0.634c-0.045,0.187,0.232,0.251,0.238,0.431C34.627,6.725,34.599,6.765,34.572,6.802L34.572,6.802z
	 M62.076,27.532c-0.125-0.055-0.327-0.201-0.327-0.314c0.11,0.004,0.434,0.119,0.376,0.281
	C62.108,27.519,62.087,27.505,62.076,27.532L62.076,27.532z M62.451,27.365c-0.111-0.142-0.257-0.21-0.411-0.291
	C62.023,27.209,62.335,27.416,62.451,27.365L62.451,27.365z M66.351,29.103c-0.176-0.199-0.432-0.293-0.65-0.449
	C65.929,28.767,66.105,29.146,66.351,29.103L66.351,29.103z M76.307,36.533c0.028-0.07,0.077-0.15,0.146-0.16
	c0.052-0.099-0.018-0.179,0.026-0.272c-0.103-0.021-0.137-0.127-0.244-0.187C75.767,35.888,75.867,36.606,76.307,36.533
	L76.307,36.533z M60.735,24.233c-0.613-0.316-1.159-0.675-1.751-0.94C59.345,23.822,60.271,24.156,60.735,24.233L60.735,24.233z
	 M69.626,31.312c-0.076-0.11-0.355-0.326-0.464-0.283C69.279,31.16,69.477,31.246,69.626,31.312L69.626,31.312z M61.348,24.856
	c-0.091-0.177-0.356-0.126-0.41-0.354c-0.033,0.015-0.067,0.004-0.095,0.063C60.97,24.673,61.19,24.815,61.348,24.856L61.348,24.856
	z M60.099,23.255c-0.148,0.051-0.398-0.172-0.528-0.287c0.009-0.024,0.004-0.037,0.032-0.043
	C59.764,22.987,59.962,23.107,60.099,23.255L60.099,23.255z M64.99,26.013c-0.415-0.246-0.789-0.812-1.223-0.745
	C63.977,25.733,64.581,25.912,64.99,26.013L64.99,26.013z M71.119,30.771c-0.104-0.102-0.264-0.152-0.183-0.295
	c-0.067-0.048-0.127-0.05-0.188-0.053C70.742,30.576,70.935,30.776,71.119,30.771L71.119,30.771z M45.014,10.4
	c-0.014-0.196,0.185-0.038,0.265-0.14c-0.104-0.004-0.216-0.059-0.324-0.11C44.818,10.266,44.883,10.355,45.014,10.4L45.014,10.4z
	 M70.254,28.692c0.239,0.381,0.743,0.567,1.116,0.644c-0.636-0.308-1.354-0.938-2.021-1.237
	C69.268,28.476,69.998,28.726,70.254,28.692L70.254,28.692z M72.006,29.659c-0.097-0.198-0.382-0.248-0.545-0.323
	C71.506,29.506,71.842,29.704,72.006,29.659L72.006,29.659z M62.918,22.275c-0.172-0.122-0.456-0.269-0.657-0.295
	c-0.018,0.023-0.036,0.048-0.054,0.071C62.401,22.168,62.71,22.359,62.918,22.275L62.918,22.275z M66.458,24.731
	c-0.084-0.182-0.326-0.271-0.5-0.354c-0.01,0.014-0.021,0.028-0.03,0.041C66.061,24.584,66.291,24.648,66.458,24.731L66.458,24.731z
	 M44.22,7.811c0.258,0.106,0.492,0.029,0.738,0.039c-0.143-0.095-0.264-0.031-0.397-0.073c0.038-0.08,0.169-0.23-0.004-0.32
	c-0.044,0.013-0.083,0.088-0.127,0.108c-0.048,0.062,0.039,0.104,0.01,0.165C44.375,7.821,44.286,7.741,44.22,7.811L44.22,7.811z
	 M64.625,22.349c0.177,0.109,0.359,0.245,0.53,0.312C65.024,22.512,64.781,22.354,64.625,22.349L64.625,22.349z M51.819,10.542
	c-0.049-0.094-0.189-0.158-0.259-0.104C51.469,10.586,51.753,10.676,51.819,10.542L51.819,10.542z M72.158,25.526
	c0.254,0.198,0.488,0.263,0.728,0.35c-0.191-0.146-0.468-0.366-0.684-0.408C72.156,25.48,72.187,25.488,72.158,25.526L72.158,25.526
	z M77.708,29.44c-0.063-0.183-0.343-0.328-0.479-0.229C77.192,29.411,77.579,29.508,77.708,29.44L77.708,29.44z M77.95,28.675
	c0.106-0.211-0.367-0.482-0.513-0.367C77.592,28.458,77.758,28.563,77.95,28.675L77.95,28.675z M74.761,26.233
	c0.206,0.152,0.524,0.322,0.731,0.195C75.275,26.177,74.999,26.313,74.761,26.233L74.761,26.233z M79.296,29.222
	c0.066-0.158-0.184-0.22-0.264-0.336c-0.27,0.19-0.555-0.164-0.796-0.174C78.488,29.033,78.961,29.351,79.296,29.222L79.296,29.222z
	 M73.508,24.699c-0.125-0.09-0.322-0.22-0.381-0.155C73.212,24.644,73.397,24.729,73.508,24.699L73.508,24.699z M74.71,25.405
	c0.062-0.05-0.022-0.083,0.008-0.129c0.267,0.059,0.587,0.05,0.831,0.246c0.639-0.081,1.346,0.323,1.991,0.265
	c-0.658-0.221-1.285-0.24-1.938-0.428c-0.229-0.283-0.733-0.427-1.038-0.358c-0.053,0.057,0.038,0.09,0.057,0.134
	c-0.03,0.061-0.144,0.004-0.134,0.057c0.056,0.058,0.102,0.052,0.147,0.045C74.672,25.295,74.583,25.396,74.71,25.405L74.71,25.405z
	 M90.356,19.009c2.345-3.094,4.691-6.188,7.035-9.284c-1.187,0.861-2.027,2.896-3.166,3.881c-0.791,1.624-2.659,3.517-3.885,5.393
	C90.346,19.003,90.35,19.005,90.356,19.009L90.356,19.009z M22.943,37.974c0.392-0.592,0.581-1.291,0.546-1.822
	c-0.012,0.259-0.019,0.519,0.028,0.769c0.384-0.772,1.001-1.47,0.972-2.178c0.446-0.353,0.63-1.281,0.931-1.735
	c0.776-1.295,1.206-2.74,2.102-3.874c1.032-0.384,1.728-1.716,2.395-2.682c0.42-0.608,1.801-1.005,0.967-1.844
	c-0.097-0.022-0.182,0.055-0.284-0.01c-0.077-0.05-0.013-0.119-0.099-0.167c-0.238-0.134-0.452-0.109-0.67-0.101
	c-1.484-0.761-2.598,1.164-3.993,1.064c-0.206,0.143-0.421,0.229-0.627,0.381c-0.013,0.063,0.01,0.119,0,0.181
	c-0.048-0.043-0.098-0.069-0.143-0.084c-0.05,0.041-0.15,0.092-0.154,0.175c-0.056-0.049-0.102-0.053-0.142,0.01
	c-0.025,0.09,0.042,0.229-0.087,0.293c-0.093-0.061-0.04-0.141-0.117-0.203c-0.647,0.098-0.079,0.688-0.241,1.063
	c-0.109-0.131-0.136-0.273-0.234-0.404c-0.084,0.021-0.061,0.113-0.105,0.17c-0.306-0.062-0.527,0.316-0.396,0.58
	c0.049,0.053,0.115,0.004,0.127,0.072c-0.163,0.229,0.178,0.387,0.008,0.616c-0.044-0.021-0.059-0.11-0.115-0.089
	c-0.222,0.119,0.063,0.273,0.08,0.4c-0.307,0.067-0.149,0.424-0.093,0.631c-0.024-0.084-0.115-0.014-0.2-0.037
	c-0.427-0.557-1.246-0.078-1.695,0.451c-0.019,0.047,0.053,0.079,0.016,0.127c-0.771,0.325-1.69,0.604-2.285,1.318
	c-0.647,1.497-2.291,1.471-2.952,2.641c-0.309-0.023-0.732,0.377-0.872,0.674c-0.091-0.037-0.151-0.006-0.19,0.104
	c-0.468,0.092-1.414,0.446-1.425,1.135c-1.084,0.438-2.321,1.449-3.088,2.314c-0.104,0.095-0.225,0.099-0.328,0.227
	c-0.047,0.053,0.061,0.086,0.008,0.141c-0.407,0.107-0.76,0.722-0.939,1.117c0.036,0.043,0.063,0.008,0.1,0.053
	c-0.026,0.113-0.03,0.226-0.157,0.355c-0.027-0.046-0.062-0.13-0.129-0.099c-0.133,0.062-0.026,0.188-0.079,0.278
	c-0.274-0.172-0.518-0.09-0.756,0.016c-0.011-0.064,0.11-0.081,0.044-0.146c-0.108-0.084-0.214-0.127-0.314-0.149
	c-0.133-0.238-0.309-0.582-0.512-0.728c0.072-0.111,0.093-0.218,0.159-0.33c-0.036-0.024-0.068-0.051-0.074-0.078
	c0.261-0.271,0.632-0.321,0.76-0.734c0.058,0.011,0.058,0.055,0.129,0.098c0.348-0.298,0.962-0.445,1.085-0.896
	c0.338,0.151,0.736-0.134,0.929-0.45c0.452-0.141,1.131-0.492,1.364-0.997c0.948-0.966,1.822-1.573,2.843-2.139
	c0.865-1.015,2.324-1.72,2.219-3.107c0.335-0.202,0.93-0.504,1.023-0.963c0.342-0.319,0.384-1.223,0.488-1.866
	c0.074-0.455,0.284-1.27-0.375-1.234c-0.057,0.066-0.104,0.17-0.169,0.166c-0.313-0.215-0.738,0.064-0.867,0.427
	c-0.709-0.106-1.502,0.485-1.933,0.999c-0.051-0.064,0.053-0.152-0.017-0.215c-0.58,0.484-1.258,0.255-1.86,0.578
	c-0.014,0.045,0.029,0.08-0.033,0.131c-0.042,0.011-0.093-0.051-0.131-0.006c-0.774,0.703-1.938,0.604-2.416,1.76
	c-0.305-0.082-0.647,0.263-1.021-0.028c-0.014-0.108-0.046-0.216-0.169-0.312c-0.146-0.055-0.188,0.185-0.314,0.146
	c0.063-0.117,0.171-0.15,0.283-0.283c-0.016-0.063-0.107-0.088-0.157-0.119c0.104-0.153,0.181,0.035,0.29-0.026
	c0.313-0.587,0.881-0.777,1.311-1.132c2.466-0.742,4.83-2.242,7.208-3.641c0.05-0.004,0.109,0.046,0.157,0.029
	c0.326-0.365,0.702-0.369,1.04-0.657c0.037-0.085-0.024-0.159,0.031-0.248c0.266,0.288,0.529-0.012,0.782-0.108
	c0.015-0.112,0.03-0.226,0.055-0.342c0.071,0.042,0.069,0.094,0.148,0.135c0.208-0.111,0.374-0.458,0.458-0.577
	c-0.102-0.169-0.229-0.058-0.303-0.254c-0.093,0.018-0.167,0.119-0.216,0.222c-0.026-0.207,0.254-0.47,0.432-0.51
	c-0.061-0.136-0.137-0.352,0.041-0.441c0.026,0.014,0.052,0.045,0.07,0.028c0.08,0.053-0.022,0.132,0.088,0.181
	c0.079-0.097,0.072-0.182,0.117-0.272c0.041-0.022,0.089,0.028,0.129,0.007c0.008-0.057,0.026-0.114-0.01-0.165
	c-0.046-0.033-0.077,0.063-0.125,0.018c-0.048-0.036,0.034-0.09-0.02-0.127c-0.046-0.057-0.075,0.01-0.123-0.047
	c-0.061-0.186-0.038-0.379-0.038-0.573c-0.061-0.017-0.103,0.062-0.171-0.015c0.021-0.067,0.081-0.141,0.088-0.204
	c0.121-0.025,0.252,0.025,0.357-0.114c-0.006-0.042-0.077-0.075-0.119-0.111c0.01-0.059,0.019-0.166,0.104-0.195
	c0.101,0.034,0.09,0.15,0.16,0.145c0.019-0.079-0.029-0.149-0.059-0.224c-0.064-0.01-0.123,0.037-0.185,0.039
	c-0.054-0.281-0.442-0.217-0.605-0.097c-0.078-0.183-0.367,0.014-0.452-0.205c-0.135-0.025-0.16,0.191-0.283,0.191
	c-0.067-0.034-0.046-0.079-0.092-0.116c-0.233,0.114-0.488,0.066-0.704,0.302c-0.082,0-0.101-0.119-0.175-0.064
	c-0.115,0.177,0.127,0.412,0.329,0.43c-0.038,0.108-0.046,0.228-0.167,0.28c-0.193-0.06-0.201-0.243-0.345-0.352
	c-0.063-0.021-0.113,0.043-0.178,0.025c-0.012-0.059-0.014-0.118-0.099-0.166c-0.065,0-0.044,0.115-0.104,0.077
	c0.036-0.067-0.075-0.118-0.14-0.172c-0.286,0.132-0.625-0.128-0.912,0.008c0.002,0.066,0.025,0.127-0.063,0.202
	c-0.167-0.105-0.338-0.108-0.444-0.247c-0.196,0.018-0.203,0.307-0.383,0.298c-0.055-0.221,0.178-0.478-0.03-0.677
	c-0.702-0.035-1.403-0.058-2.024,0.497c0.004,0.113,0.035,0.192-0.088,0.294c-0.132-0.075-0.075-0.177-0.166-0.26
	c-0.963,0.316-1.931,0.598-2.879,1.027c-0.342-0.155-0.612,0.209-0.938,0.192c-0.057,0.076-0.055,0.146-0.097,0.221
	c-0.086,0.004,0.008-0.098-0.06-0.135c-0.2-0.037-0.292,0.122-0.379,0.322c-1.864,0.017-3.38,1.819-5.157,2.574
	c-0.693-0.366-0.754-1.393,0.138-1.703c0.22,0.102,0.41-0.142,0.512-0.379c0.065-0.003,0.146,0.127,0.202,0.063
	c0.402-0.735,1.238-0.293,1.724-0.729c0.285,0.169,0.544-0.029,0.74-0.229c1.611-0.474,3.298-0.852,4.806-1.78
	c0.169,0.017,0.417,0.122,0.508-0.134c0.212,0.041,0.465-0.086,0.594-0.363c-0.028-0.039-0.143-0.023-0.091-0.092
	c0.391-0.005,0.765-0.279,0.942-0.617c0.062-0.022,0.131,0.023,0.194,0.011c0.06-0.397,0.667-0.184,0.604-0.559
	c-0.048-0.058-0.077,0.011-0.123-0.047c-0.027-0.166-0.15-0.449,0.138-0.508c0.271,0.131,0.447,0.294,0.623,0.518
	c0.246-0.2,0.482-0.48,0.731-0.64c-0.046-0.036-0.095-0.072-0.142-0.109c-0.052,0.062-0.106,0.107-0.171,0.075
	c-0.202-0.198,0.108-0.506,0.35-0.549c-0.174-0.56-1.024,0.085-1.384,0.306c-0.061-0.053-0.106-0.126-0.188-0.141
	c-0.114,0.029-0.21,0.211-0.335,0.174c-0.095-0.089,0.041-0.209,0.009-0.31c-0.375-0.046-0.218,0.402-0.108,0.595
	c0.044,0.014,0.084,0.003,0.131,0.032c0.006,0.379-0.396,0.552-0.549,0.873c-0.08-0.105-0.002-0.23-0.135-0.328
	c-0.439,0.311-1.047-0.17-1.416,0.348c-0.111-0.018-0.136-0.083-0.216-0.162c-0.505,0.353-1.231,0.237-1.617,0.764
	c-0.055-0.082-0.144-0.128-0.226-0.149c-1.55,1.047-3.188,1.703-4.606,2.946c-0.61,0.021-1.43-0.047-1.838,0.521
	c-0.65,0.339-1.75,1.047-2.179,1.741c-0.068-0.033-0.072-0.116-0.141-0.11c-0.259,0.258-0.531,0.457-0.819,0.782
	c-0.029,0.021-0.079-0.064-0.106-0.037c-0.046,0.049-0.084,0.136-0.136,0.147c-0.093-0.04,0.015-0.105-0.047-0.147
	c-0.782-0.212-0.383-1.341,0.306-1.714c0.063,0.041,0.043,0.062,0.101,0.076c0.566-0.332,1.089-0.811,1.658-0.935
	c0.076-0.084,0.103-0.16,0.157-0.241c0.724-0.262,1.383-0.979,1.774-1.683c0.044-0.017,0.107,0.094,0.147,0.044
	c0.735-0.465,1.462-1.015,2.272-0.942c0.214-0.251,0.565-0.242,0.823-0.461c0.026-0.061-0.084-0.1-0.034-0.162
	c0.248-0.034,0.267-0.235,0.448-0.474c0.006-0.096-0.024-0.186-0.063-0.274c0.508-0.454,0.673-1.362,0.119-1.738
	c-0.597,0.069-1.385-0.329-1.86,0.013C6.883,16.33,6.9,16.286,6.83,16.253c-0.999,0.479-1.989,1.363-3.118,0.596
	c-0.079-1.37,1.854-1.553,2.632-2.458c0.892-0.081,1.767-0.283,2.71,0c-0.003-0.163,0.096-0.171,0.224-0.236
	c0.104,0.055,0.1,0.124,0.181,0.183c0.289-0.022,0.601,0.136,0.847-0.196c0.236,0.153,0.417-0.083,0.611-0.236
	c0.069,0.046,0.114,0.095,0.16,0.145c0.229-0.017,0.461-0.011,0.682-0.095c0.573,0.216,1.865-0.657,1.214-1.362
	c0.028-0.124,0.127-0.063,0.202-0.118c-0.011-0.122-0.013-0.246-0.116-0.356c-0.148-0.009-0.303-0.03-0.451-0.028
	c0.098-0.411-0.672-0.643-0.966-0.663c-0.057-0.052,0.005-0.121-0.101-0.167c-0.096-0.068-0.157,0.09-0.244,0.086
	c-0.117,0.004-0.042-0.132-0.089-0.181c-0.964-0.715-1.792-0.452-2.646-0.355c-0.627-0.46-1.164-0.237-1.712-0.123
	c-0.05-0.045-0.094-0.068-0.141-0.083c-0.997,0.726-2.273-0.577-3.277,0.092c-0.109-0.186-0.262-0.085-0.371,0.013
	c-0.966-0.229-1.878,0.416-2.83-0.023c-0.05-0.021-0.081,0.1-0.133,0.059c-0.345-0.466,0.339-0.905,0.713-0.974
	c1.315,0.34,2.572,0.259,3.78-0.186C4.645,9.622,4.539,9.68,4.631,9.71C4.913,9.723,5.19,9.717,5.446,9.559
	C5.532,9.57,5.635,9.693,5.714,9.646c0.012-0.077,0.103-0.248,0.195-0.257c0.057,0.442,0.539,0.228,0.826,0.399
	c0.121-0.045,0.248-0.06,0.357-0.203C7.531,9.763,8.09,9.466,8.317,9.043c0.435-0.12,0.904,0.037,1.317-0.22
	c0.044-0.005,0.095,0.061,0.135,0.032c0.129-0.139,0.268-0.237,0.412-0.273c0.296,0.133,0.553-0.027,0.823-0.077
	c0.313,0.398,1.045,0.448,1.368,0.019c0.108,0.013,0.073,0.104,0.148,0.158c0.133-0.001,0.259-0.054,0.392-0.04
	c0.063,0.15,0.239,0.23,0.371,0.347c0.091-0.022,0.173-0.106,0.271-0.087c0.083,0.073,0.018,0.167,0.111,0.241
	c-0.008,0.078-0.131,0.101-0.091,0.18c0.234,0.173,0.144-0.257,0.303-0.222c0.061,0.095,0.063,0.196,0.167,0.285
	c0.021,0.043-0.093,0.107-0.068,0.151c0.113,0.062,0.208,0.018,0.308-0.017c0.012-0.062-0.064-0.112-0.024-0.178
	c0.195-0.024,0.391-0.052,0.564-0.001c0.021-0.135-0.107-0.065-0.125-0.163c0.101-0.113,0.239,0.057,0.338-0.059
	c-0.085-0.079-0.147-0.016-0.234-0.108c-0.01-0.042,0.044-0.092-0.016-0.127c-0.066-0.071-0.263-0.031-0.217-0.163
	c0.038-0.068,0.098,0.013,0.147,0.044c-0.002-0.057,0.035-0.132,0.099-0.13c0.094,0.117,0.147,0.141,0.28,0.167
	c-0.054,0.137-0.206,0.071-0.224,0.147c0.072,0.074,0.161,0.069,0.199,0.153c0.134-0.066,0.267-0.123,0.416-0.072
	c-0.085,0.024-0.127,0.108-0.091,0.181C15.531,9.13,15.7,9.3,15.819,9.103c0.092,0.065,0.17,0.056,0.248,0.029
	c0.028,0.037-0.097,0.054-0.038,0.108c0.049,0.028,0.102,0.1,0.14,0.058c0.034-0.092,0.093-0.135,0.212-0.223
	c-0.024-0.017-0.046-0.035-0.071-0.054c0.05-0.023,0.097-0.095,0.153-0.086c-0.036,0.048-0.021,0.089,0.045,0.123
	c0.147-0.028,0.3-0.059,0.438-0.165c0.286,0.028,0.641,0.278,0.903-0.058c0.114,0.038,0.216,0.012,0.329,0.043
	c0.097-0.072,0.004-0.12,0.027-0.183c0.455,0.165,0.854-0.063,1.292-0.038c0.011-0.052-0.115-0.086-0.072-0.145
	c0.091-0.085,0.212,0.034,0.307-0.016c0.062-0.226,0.279-0.082,0.405-0.146c-0.063-0.188-0.317-0.031-0.416-0.198
	c0.26-0.115,0.557,0.044,0.813-0.087c0.041,0.063,0.164,0.114,0.152,0.184c-0.145,0.006-0.282,0.059-0.415,0.162
	c0.202,0.132,0.532,0.109,0.558-0.169c0.193-0.077,0.404-0.039,0.61-0.031c0.057-0.042-0.004-0.068,0.036-0.108
	c0.157-0.01,0.331,0.096,0.458-0.127c0.102,0.042,0.2,0.067,0.28-0.013c0.041-0.052-0.055-0.127,0.02-0.144
	c0.129-0.017,0.051,0.1,0.149,0.158c0.129-0.021,0.087-0.187,0.168-0.28c0.569,0.141,1.097-0.006,1.621-0.171
	c-0.008-0.062,0.016-0.146,0.093-0.181c0.287,0.198,0.521-0.008,0.784,0.006c0.032-0.033-0.09-0.045-0.026-0.085
	c0.31,0.009,0.369,0.431,0.712,0.313c0.021,0.044-0.089,0.105-0.018,0.143c0.141,0.017,0.219,0.17,0.349,0.107
	c0.094-0.06-0.04-0.088-0.008-0.141c0.115,0.165,0.385,0.368,0.589,0.268c-0.046-0.056-0.106-0.03-0.113-0.085
	c0.042-0.037,0.006-0.062,0.05-0.098c0.087,0.005,0.176,0.035,0.271,0.092c-0.023,0.063-0.123,0.036-0.104,0.104
	c0.305-0.043,0.582,0.121,0.897,0.069c0.236-0.315,0.609-0.119,0.852-0.077c-0.173,0.29-0.667-0.109-0.795,0.21
	c0.091,0.055,0.158,0.094,0.154,0.186c-0.071,0.011-0.227-0.085-0.239,0.047c0.222,0.01,0.466-0.107,0.731-0.014
	c-0.15,0.367,0.565,0.433,0.818,0.261c0.063,0.059,0.081,0.088,0.156,0.095c0.033-0.107,0.104-0.22,0.085-0.32
	c-0.079-0.01-0.156,0.003-0.239-0.045c-0.074,0.041-0.064,0.103-0.132,0.148c-0.138-0.056-0.261-0.018-0.384,0.026
	c-0.042-0.085-0.14-0.097-0.214-0.163c0.169-0.193,0.417,0.179,0.594,0.021c-0.044-0.119-0.196-0.029-0.238-0.136
	c0.074-0.11,0.188,0.042,0.26-0.072c0.022-0.038-0.06-0.062-0.014-0.103c0.093,0.018,0.186,0.03,0.278,0.052
	c-0.026,0.048-0.093,0.044-0.053,0.097c0.102,0.012,0.091,0.094,0.164,0.146c0.091,0.017,0.178-0.017,0.276,0.052
	c0.001,0.077-0.06,0.163-0.02,0.233c0.266-0.341,0.637,0.079,0.922-0.114c-0.044-0.029-0.146-0.005-0.15-0.068
	c0.083,0.016,0.155-0.057,0.248,0.029c0.027,0.084,0.02,0.125,0.139,0.175c-0.198,0.292-0.555-0.125-0.726,0.035
	c0.083,0.086,0.151,0.042,0.222,0.033c0.409,0.29,0.829-0.054,1.252,0.046c0.051-0.076-0.046-0.131,0.022-0.208
	c0.053-0.005,0.104,0.007,0.154,0.003c0.119,0.156,0.06,0.336,0.299,0.475c-0.113-0.007-0.229-0.021-0.333,0.02
	c-0.063-0.026-0.023-0.065-0.037-0.097c-0.054,0.059-0.115,0.038-0.166,0.099c0.189,0.137,0.349,0.058,0.542,0.207
	c0.002,0.053-0.185,0.027-0.175,0.142c0.226,0.051,0.443,0.049,0.664,0.05c-0.097-0.126-0.259-0.032-0.396-0.165
	c0.071-0.185,0.211-0.214,0.343-0.214c0.202,0.24,0.458,0.19,0.647,0.039c-0.104-0.012-0.169-0.049-0.202-0.151
	c0.044-0.081,0.103-0.044,0.111-0.119c-0.279-0.208-0.479-0.517-0.741-0.629c0.146,0.241,0.257,0.442,0.564,0.654
	c-0.038,0.07-0.012,0.129-0.06,0.2c-0.259-0.25-0.635-0.5-0.876-0.754c-0.05,0.08,0.055,0.139-0.034,0.225
	c-0.012-0.006-0.024,0-0.035,0.02c-0.125-0.066-0.292-0.119-0.375-0.194c-0.052,0.055-0.034,0.098-0.068,0.151
	c-0.169,0.044-0.353-0.014-0.531-0.041c0.08-0.123,0.202,0.036,0.284-0.079c0.006-0.048-0.111-0.08-0.083-0.13
	c0.184-0.008,0.455,0.126,0.571-0.041c-0.088,0.002-0.185-0.037-0.262,0.05c-0.206-0.11-0.236-0.22-0.208-0.383
	c0.16-0.087,0.354,0.079,0.505-0.069c0.296,0.096,0.577,0.075,0.867,0.137c0.063,0.048,0,0.111,0.061,0.159
	c0.334-0.002,0.678,0.073,1.002-0.008c-0.133-0.09-0.066-0.206-0.106-0.309C33.428,7.8,33.327,7.842,33.23,7.914
	c-0.029,0.077,0.138,0.127,0.042,0.212c-0.145-0.024-0.108-0.156-0.161-0.234c-0.052-0.009-0.089,0.082-0.142,0.097
	c-0.133-0.037-0.159-0.07-0.269-0.181c-0.144,0.087-0.318,0.011-0.369-0.169c0.041-0.043,0.089-0.032,0.125-0.106
	c-0.028-0.166-0.175-0.241-0.22-0.395c0.049-0.022,0.112,0.076,0.155,0.005c-0.024-0.152,0.091-0.309,0.195-0.438
	c0.323,0.251,0.574,0.795-0.011,0.671c0.153,0.204,0.547,0.641,0.797,0.378c-0.091-0.09-0.054-0.199-0.191-0.281
	c0.048-0.081,0.125,0.044,0.179,0c-0.01-0.059-0.062-0.111-0.076-0.17c0.036-0.058,0.089,0.007,0.121-0.067
	c-0.018-0.083-0.179-0.146-0.11-0.242c0.131,0.031,0.211,0.121,0.331,0.16c-0.1-0.144,0.065-0.247,0.098-0.398
	c-0.506-0.431,0.19-0.441,0.169,0.014c0.067,0.037,0.167-0.038,0.198,0.038c0.063,0.192,0.05,0.397,0.171,0.58
	c0.057,0.014,0.107-0.02,0.161-0.035c0.067,0.037-0.032,0.1,0.057,0.134c0.167,0.063,0.308-0.073,0.473-0.026
	c-0.114,0.043-0.034,0.121-0.051,0.187c-0.095,0-0.201-0.091-0.288-0.038c0.11,0.38,0.5,0.31,0.731,0.555
	c0.03-0.089,0.086-0.183,0.091-0.269c-0.171-0.16-0.264-0.331-0.264-0.515c0.333-0.009,0.421-0.244,0.226-0.509
	c0.04-0.079,0.104-0.008,0.146-0.07c0.012-0.076-0.056-0.139,0.032-0.224c0.082-0.019,0.193,0.151,0.267,0.066
	c-0.174-0.318-0.622-0.625-0.929-0.861c-0.021-0.083,0.037-0.177-0.01-0.256c-0.535-1.023-1.668-1.195-2.556-1.756
	c-0.04,0.071-0.032,0.133-0.11,0.207c-0.157,0.045-0.333-0.046-0.5-0.084c-0.01-0.442-0.519-0.621-0.779-0.162
	C30.669,3.505,30.382,3.4,30.185,3.14c-0.065,0.013-0.125,0.085-0.188,0.128c-0.185-0.005-0.388-0.192-0.384-0.358
	c0.176-0.284,0.409-0.13,0.623-0.137c0.383,0.602,1.329-0.397,1.543,0.468c0.113,0.021,0.231,0.072,0.352,0.132
	c0.127-0.238,0.3-0.121,0.46-0.127c0.026-0.61,0.558,0.081,0.793,0.263c0.507,0.391,1.74,0.333,1.964,1.104
	c0.149,0.028,0.298,0.044,0.452,0.093c0.688,0.708,1.391,1.394,2.258,1.102c0.847-0.283,1.9-0.733,2.353-1.583
	c0.145,0.051,0.336,0.879,0.125,1.088c-0.096,0.091-0.38,0.081-0.467,0.166c-0.188,0.186-0.262,0.601-0.479,0.902
	c-0.411,0.572-0.307,1.072-0.271,1.581c-0.137,0.787,1.667,0.682,2.143,0.808c-0.087,0.068-0.25,0.055-0.292,0.118
	c0.103,0.04,0.194-0.011,0.307,0.074c0.044,0.023-0.071,0.069-0.025,0.093c0.059,0.055,0.11,0.063,0.16,0.055
	c0.041-0.09-0.107-0.076-0.084-0.155c0.1,0.002,0.194-0.019,0.296,0.025c-0.056,0.048-0.129-0.023-0.186,0.037
	c1.017,1.018,2.64,0.924,3.808,1.711c2.894,0.747,5.611,0.238,8.435,0.495c1.494-0.036,3.011,0.094,4.491-0.053
	c-0.052-0.105,0.075-0.295,0.198-0.322c0.061,0.11-0.132,0.175-0.052,0.276c0.121-0.121,0.234-0.272,0.451-0.088
	c0.041,0.045-0.048,0.109,0.021,0.15c0.248-0.105,0.629,0.192,0.762-0.168c0.042-0.027,0.107,0.104,0.146,0.043
	c0.085-0.025,0.105-0.163,0.168-0.189c0.104,0.059-0.019,0.148,0.042,0.213c0.554,0.16,1.077-0.295,1.612,0.048
	c0.988-0.397,2.125,0.86,3.079,0.231c1.604,0.193,3.213,0.438,4.646-0.589c0.804-0.028,1.646-0.374,2.243-1.079
	c0.608,0,1.348-0.377,1.718-0.957c0.085,0.01,0.054,0.077,0.134,0.123c0.899-0.384,1.778-1.029,2.68-1.63
	c0.408-0.229,0.876-0.043,1.251-0.519c0.521,0.083,0.877-1.081,1.432-0.519c0.117,0.119,0.039,0.382-0.095,0.516
	c-0.47,0.467-1.526,0.273-1.89,1.122c-1.31,0.344-2.518,1.442-3.783,2.099c-0.03,0.07,0.026,0.126-0.036,0.2
	c-0.585,0.098-1.198,0.795-1.75,1.294c-0.596,0.16-1.169,1.021-1.862,0.938c-1.833,0.294-3.691,0.373-5.596,0.143
	c0.004,0.032-0.032,0.081-0.067,0.084c-0.571-0.114-1.199-0.135-1.656,0.282c-0.073,0.031-0.153,0.008-0.236-0.046
	c-0.198-0.571-1.272-0.233-1.831-0.417c-0.034,0.046,0.015,0.077-0.049,0.124c-0.04,0.003-0.063-0.068-0.129-0.1
	c-1.737-0.368-3.414-0.279-5.102-0.273c-0.667,0.02-1.468,0.062-2.254,0.145c-0.42,0.044-1.31-0.278-1.604,0.208
	c-0.514,0.843,1.089,0.975,1.398,1.104c0.306,0.128,0.703,0.46,0.96,0.614c0.737,0.447,1.385,0.494,2.083,0.202
	c0.229,0.061,0.433-0.035,0.649-0.052c0.031-0.044,0.064-0.086,0.097-0.13c0.069,0.038,0.022,0.092,0.083,0.13
	c0.167,0.01,0.341,0.054,0.5-0.005c0.043-0.131,0.159-0.376,0.286-0.438c0.138,0.3,0.049,0.803,0.521,0.507
	c0.07,0.083,0.021,0.229,0.188,0.257c0.039-0.067,0.083-0.088,0.126-0.133c0.09,0.055,0.054,0.128,0.126,0.188
	c0.906-0.035,1.987,0.242,2.699-0.553c0.097-0.048,0.155,0.095,0.209,0.112c0.229-0.019,0.607-0.206,0.727,0.145
	c0.475-0.011,0.994,0.015,1.376-0.382c0.501,0.374,0.568-0.436,0.924-0.475c0.061,0.12-0.144,0.276-0.049,0.394
	c0.049-0.025,0.096-0.055,0.138-0.123c0.073,0.048,0.142,0.031,0.212,0.048c0.038,0.05-0.016,0.114,0.061,0.159
	c0.203,0.074,0.429,0.443,0.727,0.323c1.289,0.375,2.571,0.271,3.877,0.341c0.451,0.152,1.004,0.271,1.462,0.159
	c0.498,0.054,1.102,0.104,1.595-0.17c0.182,0.24,0.501,0.163,0.698-0.056c1.597,0.017,3.023-1.181,4.575-1.506
	c0.525-0.122,1.096-0.441,1.548-0.79c1.383-0.289,2.749-0.7,4.177-0.654c0.566,0.192,1.078-0.007,1.572-0.344
	c0.152,0.099,0.269-0.092,0.398-0.171c0.19,0.06,0.448,0.143,0.554-0.103c0.446-0.092,1.223-0.138,1.416-0.53
	c-0.032,0-0.065,0.017-0.104-0.01c0.071-0.07,0.148-0.115,0.226-0.146c0.109,0.065,0.088,0.15,0.174,0.219
	c0.821-0.08,1.639-0.21,2.438-0.477c0.051-0.058-0.03-0.099,0.005-0.154c0.029,0.003,0.059-0.013,0.084-0.05
	c0.708,0.298,1.323-0.097,1.948-0.398c0.052,0.002,0.115,0.079,0.161,0.057c0.057-0.065,0.117-0.091,0.176-0.141
	c0.194,0.09,0.401-0.074,0.521-0.239c0.789,0.075,1.654-0.799,2.375,0.175c-0.104,0.05-0.076,0.219-0.07,0.33
	c0.046,0.037,0.095,0.072,0.143,0.109c-0.028,0.071-0.076,0.104-0.102,0.193c-0.376,0.214-0.823,0.351-1.158,0.546
	c0.047,0.055,0.071-0.045,0.117,0.022c0.014,0.189-0.222,0.246-0.361,0.178c0-0.051,0.1-0.115,0.058-0.162
	c-0.646-0.076-1.264,0.043-1.873,0.206c-0.059,0.01-0.054-0.047-0.102-0.076c-0.564,0.196-1.24,0.067-1.74,0.421
	c-2.559,0.692-5.155,1.09-7.594,2.628c-0.612,0.025-1.199,0.263-1.793,0.425c-0.059,0.061,0.008,0.103-0.055,0.163
	c-0.597-0.307-1.331-0.048-1.944,0.152c-0.012,0.072-0.01,0.202-0.121,0.248c-0.063-0.048-0.054-0.104-0.11-0.152
	c-0.725-0.035-1.256,0.592-1.939,0.833c-0.074-0.028-0.152-0.101-0.214-0.048c-0.049,0.057-0.023,0.069-0.076,0.1
	c-0.144,0.042-0.317-0.135-0.439,0.074c-0.27-0.154-0.497,0.179-0.679,0.389c-0.104-0.045,0.022-0.122-0.05-0.174
	c-0.337,0.104-0.667,0.26-1.017,0.269c0.004,0.052-0.012,0.106,0.071,0.146c-0.152,0.07-0.315,0.064-0.478,0.091
	c-0.063-0.06,0.013-0.139-0.103-0.191c-0.107,0.04-0.083,0.161-0.109,0.232c-0.121,0.022-0.271-0.04-0.345-0.17
	c-0.157,0.007-0.323-0.041-0.457,0.127c-0.049-0.032-0.021-0.074-0.079-0.105c-0.073,0.009-0.138,0.064-0.206,0.094
	c-0.327,0.102-1.615-0.007-1.854,0.356c-0.238,0.371-0.069,0.812,0.415,0.767c-0.026,0.213-0.145,0.507,0.024,0.651
	c0.055,0.017,0.104,0.018,0.146-0.046c0.021-0.059-0.087-0.099-0.01-0.165c0.034-0.045,0.074-0.033,0.108-0.055
	c0.078,0.086,0.18,0.138,0.233,0.2c-0.116,0.125-0.303,0.228-0.373,0.374c0.068,0.069,0.123,0.015,0.191,0.074
	c0.045,0.224-0.174,0.231-0.313,0.353c-0.191,0.349,0.294,0.938,0.591,0.47c0.087-0.027,0.188,0.05,0.277,0.053
	c0.021,0.058-0.039,0.124-0.025,0.183c0.047,0.085,0.095,0.103,0.189,0.167c-0.056,0.654,1.009,0.142,1.572,0.221
	c1.105,0.155,2.293,0.221,3.38,0.46c0.248-0.032,0.503-0.02,0.716-0.293c0.425,0.391,1.309,0.265,1.863,0.079
	c0.063,0.042-0.012,0.102,0.069,0.146c0.386,0.014,0.782,0.13,1.133-0.095c0.321,0.13,0.604-0.004,0.914,0.016
	c0.048,0.037,0.014,0.083,0.069,0.12c0.242,0.096,0.427-0.256,0.663-0.193c0.045,0.06-0.067,0.145,0.006,0.204
	c0.2,0.006,0.41,0.075,0.591-0.097c0.067,0.069,0.103,0.143,0.206,0.205c0.135,0.015,0.256-0.078,0.376-0.168
	c0.555,0.313,1.321-0.193,1.499,0.616c-0.188,0.555-0.636,0.289-0.946,0.502c-0.145-0.282-0.572,0.039-0.728-0.054
	c-0.07-0.042-0.075-0.214-0.14-0.263c-0.39-0.302-1.144,0.072-1.554,0.11c-0.078-0.044-0.021-0.108-0.108-0.152
	c-0.206,0.004-0.485-0.07-0.579,0.196c-0.091-0.053-0.047-0.123-0.139-0.173c-1.317,0.063-2.632-0.398-3.921-0.104
	c-1.2,0.154-2.621-0.49-3.779,0.277c-0.164-0.103-0.319-0.154-0.456-0.053c-0.123,0.223-0.111,0.427-0.17,0.641
	c-0.069,0.003-0.073-0.08-0.141-0.084c-0.01-0.094,0.087-0.2,0.013-0.284c-0.212-0.069-0.602-0.065-0.704-0.263
	c0.146,0.026,0.509,0.175,0.447-0.113c-0.483-0.192-1.068,0.191-1.44-0.096c-0.292-0.041-0.59-0.127-0.843,0.129
	c-0.298-0.074-0.578-0.028-0.86,0.002c-0.985-0.011-1.939-1.665-2.931-1.318c0,0.051,0.056,0.095,0.044,0.147
	c-0.069,0.07-0.15,0.076-0.224,0.146c-0.117-0.116-0.112-0.25-0.117-0.381c-0.107,0-0.23,0.013-0.292,0.117
	c-0.065-0.058-0.053-0.097-0.134-0.124c-0.046,0.028-0.092,0.063-0.144,0.071c-1.271-0.756-2.712-1.134-3.827-0.731
	c-0.663-0.319-1.519-0.639-2.197-0.47c-0.053-0.017-0.114-0.064-0.164-0.079c-0.057,0.007-0.104,0.061-0.157,0.086
	c-0.091-0.04-0.018-0.101-0.097-0.142c-0.325,0.031-0.59,0.121-0.903,0.331c-0.066-0.007-0.136-0.052-0.195-0.013
	c-0.159,0.146-0.062,0.258-0.013,0.375c-0.049,0.062-0.104,0.126-0.117,0.183c0.064,0.241,0.384,0.59,0.688,0.612
	c0.288-0.321,0.264,0.271,0.558,0.219c0.006,0.046-0.04,0.101,0.006,0.143c0.128-0.016,0.196,0.1,0.233,0.197
	c0.094-0.01,0.188,0.004,0.3,0.114c-0.032,0.326-0.547,0.647-0.561,1.064c0.19,0.17,0.498,0.296,0.663,0.526
	c-0.314,0.014-0.689-0.298-0.975-0.534c-0.14,0.041-0.285,0.05-0.418,0.135c0.021,0.195,0.075,0.375,0.188,0.527
	c-0.258-0.271-0.89-0.098-1.03-0.488c-0.095-0.008-0.184,0.039-0.266,0.113c-0.505-0.234-1.206-0.195-1.604-0.626
	c-0.579-0.069-1.146-0.609-1.673-0.298c-0.082,0.129-0.143,0.188-0.074,0.307c-0.161,0.287-0.315,0.088-0.498,0.118
	c-0.014-0.048,0.055-0.108,0.03-0.156c-0.095,0.013-0.271-0.114-0.337-0.213c0.085-0.138,0.242-0.208,0.303-0.221
	c-0.14-0.085-0.282-0.188-0.406-0.147c-0.032,0.05,0.083,0.081,0.031,0.136c-0.061-0.014-0.119-0.007-0.188-0.077
	c-0.043-0.036,0.04-0.09-0.02-0.126c-0.678-0.164-1.354-0.324-2.017-0.377c-0.047-0.046,0.029-0.106,0.029-0.158
	c-0.47-0.226-0.888-0.097-1.316-0.024c0.148,0.142,0.22,0.295,0.371,0.437c-0.365-0.01-0.488-0.367-0.859-0.537
	c-0.718,0.304-1.508,0.058-2.274-0.007c0.289,0.125,0.578,0.368,0.783,0.572c-0.764-0.49-1.635-1.02-2.373-0.624
	c0.098,0.159,0.175,0.318,0.172,0.489c-0.195-0.05-0.276-0.336-0.375-0.487c-0.48,0.052-1.181,0.129-1.056,0.737
	c-0.057,0-0.123-0.078-0.184-0.115c-0.325,0.043-0.355,0.487-0.265,0.703c-0.201,0.28-0.274,0.571-0.205,0.839
	c-0.161,0.18-0.161,0.438-0.042,0.622c-0.494,0.531-1.533,1.448-1.362,2.245c0.318,0.16,0.58,0.5,0.372,0.731
	c-0.166,0.012-0.359-0.177-0.522-0.146c-0.193,0.167-0.169,0.265-0.354,0.408c0.311,0.503-0.702,1.319,0.063,1.675
	c0.03-0.078-0.095-0.132-0.018-0.217c0.271-0.081,0.369,0.271,0.51,0.432c-0.063,0.037-0.127,0.072-0.188,0.129
	c-0.083-0.006-0.187-0.163-0.263-0.131c-0.01,0.069,0.097,0.179,0.017,0.217c-0.087-0.031-0.134-0.1-0.164-0.172
	c0.182-0.192-0.147-0.416-0.327-0.403c-0.144,0.44-0.878,1.036-0.389,1.377c0.063-0.062,0.048-0.108,0.104-0.169
	c0.104,0.1,0.074,0.213,0.046,0.328c0.508,0.406,0.938,1.027,1.194,1.583c0.077,0.022,0.143,0.026,0.192,0.102
	c0.015,0.106-0.099,0.138-0.161,0.218c0.029,0.461,0.374,1.032,0.987,1.108c0.033,0.044-0.029,0.149,0.044,0.147
	c0.077-0.631,0.268-1.279,0.192-1.891c-0.087,0.01-0.012,0.121-0.099,0.131c0.067-0.426-0.096-0.818,0.096-1.261
	c-0.149-0.174-0.456-0.532-0.673-0.78c-0.028-0.509-1.564-1.271-0.598-1.718c0.16,0.149,0.244,0.31,0.323,0.472
	c0.698-0.049,1.438,1.139,2.021,0.762c-0.566-0.047-0.674-0.743-0.845-1.092c0.104-0.016,0.211,0.137,0.272,0.205
	c0.148-0.008,0.305,0.037,0.454,0.028c-0.015-0.19-0.434-0.248-0.382-0.448c0.101-0.072,0.239,0.127,0.344,0.082
	c-0.341-0.453,0.313-0.873,0.733-0.462c0.038-0.002,0.067-0.079,0.105-0.079c0.092,0.071,0.098,0.17,0.03,0.229
	c0.254,0.326,0.042,0.722,0.162,1.068c0.556-0.512,1.47,0.008,1.706,0.642c0.05,0.054,0.078-0.05,0.129,0.006
	c-0.077,0.538,0.884,0.722,1.197,1.132c-0.021,0.04-0.018,0.071-0.061,0.113c-0.421-0.248-0.841-0.518-1.238-0.215
	c0.129,0.326-0.298,0.484-0.527,0.548c0.21,0.063,0.396,0.196,0.438,0.401c0.31-0.041,0.593,0.345,0.635,0.595
	c-0.25,0.047-0.5-0.107-0.712-0.226c-0.046-0.035,0.055-0.092-0.016-0.125c-0.1-0.019-0.191-0.006-0.278,0.039
	c0.095,0.146,0.184,0.358,0.361,0.387c-0.133,0.174-0.161,0.332-0.089,0.474c0.519-0.063,1,0.479,1.203,0.979
	c0.717-0.121,1.456,1.066,2.167,0.535c0.005,0.084-0.086,0.063-0.125,0.109c0.017,0.048,0.021,0.1,0.096,0.141
	c-0.119,0.065-0.242,0.106-0.367,0.127c-0.123,0.315,0.193,0.752-0.1,0.965c-0.053-0.112-0.146-0.22-0.3-0.317
	c-0.071,0.009-0.147,0-0.211,0.067c0,0.148-0.112,0.313-0.025,0.453c0.202-0.058,0.377,0.396,0.592,0.291
	c-0.007-0.11-0.024-0.22-0.096-0.322c0.487-0.616,0.799,0.472,1.251,0.406c-0.058-0.133,0.111-0.201,0.199-0.322
	c-0.007-0.068-0.049-0.131-0.028-0.201c0.061-0.066,0.14,0.006,0.2-0.055c0.044-0.082,0.036-0.198,0.121-0.248
	c0.062,0.069-0.065,0.164,0.055,0.226c0.095,0.004,0.088-0.146,0.181-0.181c0.096,0.006,0.07,0.121,0.155,0.095
	c0.028-0.06,0.057-0.118,0.115-0.181c0.046-0.041,0.11,0.045,0.154,0c0.024-0.049-0.033-0.088-0.031-0.135
	c0.744,0.541,0.164,1.102-0.365,0.422c-0.235,0.467,0.398,0.938,0.612,1.189c0.036-0.893,1.175-0.104,1.72,0.059
	c-0.208-0.119,0.042-0.195-0.005-0.295c-0.146,0.021-0.31-0.197-0.431-0.326c0.103-0.07,0.164-0.022,0.232-0.188
	c0.064-0.014,0.178,0.143,0.208,0.021c-0.017-0.105-0.14,0.006-0.151-0.067c0.033-0.054,0.017-0.097,0.07-0.152
	c0.292,0.105,0.619,0.494,0.771,0.742c-0.215-0.097-0.257-0.377-0.456-0.321c0.192,0.207,0.15,0.436-0.147,0.433
	c0.022,0.057-0.014,0.12-0.076,0.188c0.06,0.03,0.058,0.069,0.078,0.104c-0.066,0.509,0.484,1.216,0.923,1.377
	c-0.041,0.284-0.41,0.204-0.596,0.339c-0.179-0.186-0.403,0.027-0.625-0.157c-0.099,0.173,0.103,0.302,0,0.474
	c-0.334,0-0.788-0.401-0.575-0.729c-0.117-0.104-0.315-0.078-0.478-0.205c-0.867,0.242,0.023,0.893-0.598,1.445
	c-0.371-0.084-0.695,0.091-0.822,0.371c-0.026-0.045,0.029-0.1,0.067-0.152c-0.071-0.07-0.053-0.156-0.097-0.23
	c-0.131-0.08-0.246-0.057-0.383-0.179c0.049-0.1,0.163-0.104,0.141-0.187c-0.119-0.078-0.271-0.032-0.357-0.182
	c0.069-0.216-0.075-0.748-0.276-0.888c-0.197-0.136-0.507,0.071-0.689,0.044c-0.938-0.14-0.772-1.674-1.509-1.438
	c-0.266-0.228,0.095-0.5,0.252-0.512c-0.529-0.342-0.641-0.634-0.856-1.076c-0.257,1.621,0.69,3.521,1.182,5.209
	c-0.616,0.438-0.766-0.33-0.904-0.773c-0.47-1.518-0.764-3.204-1.006-4.693c-0.055-0.056-0.095,0.002-0.147-0.043
	c0.026-0.263-0.131-0.674-0.466-0.759c0.042-0.063,0.061-0.042,0.077-0.103c-0.712-0.668-0.354-1.479-1.214-2.096
	c-0.178,0.084-0.288-0.095-0.446-0.154c-0.133,0.4,0.5,0.725,0.585,1.076c-0.201,0.119-0.404,0.225-0.646,0.074
	c0.087-0.053,0.097-0.132,0.065-0.199c-0.753,0.217-0.944,1.205-1,1.885c0.137,0.179,0.313,0.199,0.411,0.379
	c-0.265,1.679-0.78,3.431-0.773,5.105c0.042,0.032,0.086,0.064,0.129,0.098c-0.127,0.119-0.127,0.277-0.062,0.408
	c-0.039,0.01-0.078,0.047-0.114,0.092c0.04,0.552,0.05,1.107-0.075,1.683c0.214,0.458,0.035,0.972,0.198,1.438
	c0.065,0.055,0.106-0.088,0.179,0c-0.212,0.424,0.244,0.804-0.325,1.201c-0.125-0.048-0.25-0.08-0.354,0.022
	c-0.079-0.04-0.157-0.079-0.233-0.108c-0.265-2.102,0.488-4.412-0.127-6.421c0.06-1.138,0.587-2.604-0.684-3.39
	c-0.083-1.046-1.051-1.176-1.755-0.605c-0.57,0.463-0.318,1.168-0.474,1.697c-0.417,0.507-0.27,1.323-0.909,1.885
	c-0.019,0.395-0.188,0.807-0.006,1.174c-0.138,0.201-0.337,0.365-0.384,0.564c0.174,0.613,0.004,1.275,0.271,1.878
	c-0.123,0.334-0.088,0.646,0.028,0.947c-0.038,0.092-0.097,0.046-0.141,0.096c0.004,0.034,0.061,0.062,0.063,0.095
	c-0.256,0.399,0.223,0.697-0.141,1.112c-1.214,0.019-0.484-1.728-0.984-2.461c0.313-0.259,0.206-0.603,0.038-0.854
	c0-0.564,0.5-1.198,0.352-1.744c0.42-0.903,0.564-2.098,0.641-3.082c0.037-0.055,0.089,0.021,0.123-0.045
	c0.174-0.441,0.138-0.855-0.095-1.243c0.285-0.896,0.337-2.048-0.609-2.563c-0.498-0.033-0.266,0.434-0.369,0.693
	c-0.3,0.773-1.057,1.893-0.595,2.574c-0.013,0.99-0.412,2.035,0.06,2.959c-0.188,0.371,0.092,0.738,0.22,1.023
	c-0.268,0.147-0.521,0.399-0.815,0.33c0.083-2.828-0.17-5.613-0.034-8.449c-0.042,0.061-0.085,0.123-0.138,0.121
	c-0.097-0.091-0.121-0.132-0.262-0.132c0.015-0.04,0.091-0.098,0.03-0.159c-1.697-0.277-2.534,1.678-3.389,3.219
	c0.147,0.048,0.105,0.166,0.065,0.273c-0.05,0.027-0.104-0.004-0.156-0.006c-0.714,1.447-2.565,2.273-2.77,3.596
	c-0.273,0.23-0.508,0.687-0.506,0.993c0.058,0.066,0.087-0.067,0.143-0.005c-0.042,0.075,0.013,0.135-0.022,0.209
	c-0.095,0-0.18,0.059-0.273,0.063c-0.165,0.306-0.049,0.574-0.363,0.898c-0.002,0.041,0.02,0.083,0.042,0.123
	c-0.062,1.238-0.658,2.605-0.823,3.916c-0.181,0.734-0.456,1.678-0.865,2.213c-0.266,1.049-0.08,2.033-0.549,3.109
	c-0.266,0.15-0.542,0.229-0.809,0.382c-0.903-0.815-0.157-2.009-0.171-3.022c0.081-0.01,0.104,0.127,0.184,0.116
	c0.054-0.071,0.117-0.145,0.086-0.204c-0.01-0.06-0.077-0.008-0.127-0.072c0.246-0.442,0.341-0.938,0.756-1.324
	c-0.039-0.184-0.103-0.364-0.077-0.555c0.244,0.037,0.392-0.414,0.417-0.611c-0.065-0.073-0.114-0.025-0.18-0.092
	c0.233-0.178,0.325-0.407,0.23-0.66c0.021-0.053,0.062,0.021,0.083-0.051c0.021-0.059-0.042-0.104-0.034-0.162
	c0.402-0.26,0.317-0.756,0.354-1.153c0.119-1.327,1.385-2.765,1.117-4.01c0.062-0.103,0.142-0.032,0.208-0.095
	c0.063-0.148,0.066-0.291,0.03-0.427c0.393-0.395,0.724-0.765,0.744-1.222c0.152,0.054,0.303-0.055,0.289-0.23
	c0.058-0.041,0.12-0.063,0.177-0.115c0.038-0.092,0.018-0.174,0.04-0.262c0.564-0.285,1.229-1.104,1.259-1.689
	c0.298-0.03,0.494-0.624,0.292-0.863c0.204-1.122,1.299-1.824,2.067-2.816c0.031-0.291,0.07-0.584,0.224-0.893
	c-0.466-1.563-2.14-0.807-2.91,0.055c-0.574,0.235-0.837,1.18-1.424,1.135c-0.518,0.379-1.014,1.25-1.294,1.798
	c-0.307,0.925-1.19,2.051-1.42,2.944c-0.452,0.479-0.425,1.097-0.665,1.506c0.052,0.043,0.086-0.051,0.138-0.006
	c0.071,0.282-0.197,0.224-0.324,0.34c-0.341,0.32-0.249,0.826-0.404,1.162c-0.039,0.082-0.206,0.106-0.256,0.188
	c-0.382,0.628-0.611,1.604-0.439,2.131c-0.101,0.084-0.141,0.164-0.081,0.256c-0.391,0.326-0.139,0.967-0.671,1.364
	c-1.383-0.31-0.064-1.738-0.376-2.546c0.046-0.064,0.048-0.125,0.077-0.189C22.84,37.981,22.898,38.019,22.943,37.974L22.943,37.974
	z M24.064,26.421c-0.084,0.09-0.019,0.156-0.069,0.242c0.063,0.061,0.11-0.01,0.169,0.015C24.183,26.587,24.201,26.45,24.064,26.421
	L24.064,26.421L24.064,26.421z M21.019,22.51c0.066,0.084,0.012,0.188,0.088,0.269c0.144-0.138,0.102-0.353,0.07-0.51
	C21.099,22.368,21.125,22.438,21.019,22.51L21.019,22.51L21.019,22.51z M17.364,19.313c0.028,0.099,0.191,0.179,0.271,0.27
	c0.22-0.229,0.484-0.153,0.767,0.063c0.328-0.135,0.373-0.473,0.32-0.75c-0.422-0.069-0.787,0.267-1.203,0.241
	C17.469,19.23,17.383,19.236,17.364,19.313L17.364,19.313L17.364,19.313z M21.477,20.802c-0.035,0.08-0.121,0.092-0.119,0.156
	c0.052,0.035,0.1,0.026,0.138-0.031c0.023,0.08,0.104,0.182,0.193,0.104c-0.044-0.101-0.155-0.115-0.182-0.206
	c0.099-0.058,0.157-0.213,0.018-0.234C21.485,20.663,21.416,20.741,21.477,20.802L21.477,20.802L21.477,20.802z M14.119,14.979
	c-0.077,0.121-0.028,0.226-0.004,0.335c0.22-0.016,0.422-0.176,0.646-0.141c0.085-0.073,0.015-0.123,0.08-0.192
	c0.06-0.079,0.151,0.048,0.213-0.017c0.063-0.124-0.086-0.142-0.177-0.182C14.68,15.068,14.392,14.985,14.119,14.979L14.119,14.979
	L14.119,14.979z M24.958,22.558L24.958,22.558c-0.104-0.119-0.096-0.211-0.274-0.296c-0.006,0.038-0.002,0.102-0.061,0.11
	c-0.096-0.059-0.075-0.135-0.017-0.215c0.057,0.011,0.043,0.094,0.087,0.064c0.119-0.116-0.008-0.196-0.027-0.292
	c-0.316-0.007-0.339-0.456-0.267-0.632c0.044-0.013,0.106,0.086,0.144,0.021c-0.014-0.437,0.53-0.575,0.839-0.631
	c0.052,0.087-0.042,0.194,0.089,0.271c-0.029,0.049-0.093,0.044-0.051,0.097c0.041,0.017,0.066-0.067,0.115-0.003
	c0.15,0.309,0.354,0.804,0.597,0.972c0.049-0.054,0.079-0.105,0.042-0.147c-0.342-0.54-0.854-1.168-0.673-1.821
	c0.079-0.007,0.163,0.01,0.235-0.045c-0.004-0.079-0.035-0.084-0.12-0.139c0.089-0.098,0.208,0.005,0.313,0.034
	c-0.063-0.047-0.093-0.098-0.061-0.158c0.769,0.01,2.197,1.05,1.991,1.961c-0.625,0.449-1.345,0.655-2.038,0.307
	c0.028,0.071,0.074,0.145,0.132,0.213c-0.117,0.141-0.257,0.136-0.39,0.155c0.003-0.084-0.103-0.224-0.164-0.259
	c-0.021,0.089,0.073,0.161,0.136,0.239C25.353,22.512,25.145,22.464,24.958,22.558L24.958,22.558z M14.724,14.238
	c0.038,0.076,0.152,0.198,0.212,0.229c0.072-0.11,0.004-0.305-0.155-0.301C14.76,14.19,14.745,14.216,14.724,14.238L14.724,14.238
	L14.724,14.238z M16.981,15.585c0.037,0.063,0.085,0.105,0.146,0.134c0.063-0.034,0.103-0.128,0.103-0.191
	C17.137,15.469,17.052,15.489,16.981,15.585L16.981,15.585L16.981,15.585z M20.521,17.887c0.068,0.099-0.063,0.224,0.108,0.307
	c0.075-0.071,0.178,0.044,0.254-0.01c0.034-0.2,0.044-0.399-0.054-0.584C20.734,17.754,20.631,17.838,20.521,17.887L20.521,17.887
	L20.521,17.887z M20.974,16.693c0.087,0.1-0.058,0.231,0.147,0.313c0.061,0,0.162-0.081,0.17-0.164
	c-0.118-0.077-0.211-0.148-0.354-0.222c-0.018,0.049-0.046,0.021-0.067,0.062C20.91,16.724,20.938,16.672,20.974,16.693
	L20.974,16.693L20.974,16.693z M21.446,16.847c-0.116,0.164-0.086,0.406,0.146,0.314c-0.036-0.075,0.039-0.131,0.109-0.144
	c0.063,0.048,0,0.112,0.061,0.158c0.121-0.038,0.141,0.062,0.295,0.089c0.117-0.04,0.123-0.146,0.084-0.23
	c-0.146,0.04-0.254-0.215-0.387-0.114c0.014-0.18-0.38-0.459-0.444-0.132C21.36,16.844,21.394,16.78,21.446,16.847L21.446,16.847
	L21.446,16.847z M14.648,9.48c-0.039,0.064-0.091,0.023-0.127,0.111c0.062,0.054,0.109,0.034,0.163,0.053
	c0.037-0.047-0.004-0.086-0.018-0.126c0.029-0.046,0.099-0.026,0.091-0.09C14.7,9.391,14.654,9.42,14.599,9.399
	C14.593,9.429,14.611,9.457,14.648,9.48L14.648,9.48L14.648,9.48z M38.919,27.83c0.159,0.119,0.197,0.212,0.322,0.38
	c0.205-0.145-0.253-0.307-0.03-0.496c0.079-0.027,0.172,0.055,0.252,0.057c0.356-0.227,0.476-0.639,0.4-0.918
	c-0.12-0.125-0.239-0.25-0.349-0.377c-0.306,0.203-0.579,0.7-0.867,0.971c0.059,0.133,0.147,0.263,0.305,0.252
	C38.979,27.735,38.916,27.789,38.919,27.83L38.919,27.83L38.919,27.83z M37.867,25.316c-0.113,0.455,0.385,1.349,0.627,1.378
	c0.428-0.691,0.572-2.263-0.553-1.687c0.06,0.117,0.227,0.219,0.214,0.345C38.071,25.413,37.972,25.394,37.867,25.316L37.867,25.316
	L37.867,25.316z M43.212,28.756c0.024,0.4,0.039,0.868,0.392,1.181c0.046-0.227-0.064-0.539,0.03-0.814
	C43.447,29.004,43.358,28.892,43.212,28.756L43.212,28.756L43.212,28.756z M36.467,23.825L36.467,23.825
	c0.577-0.348,1.601-1.799,2.021-0.818c-0.042,0.034-0.101-0.041-0.141,0.006c0.044,0.058,0.103,0.115,0.115,0.178
	c-0.242,0.205-0.347,0.52-0.5,0.66c0.024,0.142-0.081,0.421-0.271,0.475c0.019,0.151-0.032,0.313-0.089,0.474
	C37.118,24.891,36.793,24.15,36.467,23.825L36.467,23.825z M29.743,18.775c-0.064,0.186,0.113,0.459,0.291,0.243
	c-0.024-0.041,0.006-0.087-0.066-0.119c-0.053-0.023-0.093,0.02-0.141,0.005C29.771,18.866,29.83,18.811,29.743,18.775
	L29.743,18.775L29.743,18.775z M29.433,18.381L29.433,18.381c-0.171-0.073-0.275-0.358-0.218-0.547
	c0.153,0.12,0.148,0.299,0.296,0.383c0.05-0.084,0.044-0.161,0.021-0.233c-0.071-0.023-0.137,0.008-0.213-0.049
	c-0.014-0.054,0.04-0.118,0.04-0.173c-0.042-0.015-0.121-0.046-0.131-0.098c0.135-0.35,0.602-0.56,0.863-0.094
	c0.048-0.046,0.018-0.115,0.072-0.125c0.093,0.021,0.137,0.116,0.103,0.191c-0.103-0.034-0.191,0.029-0.292,0.027
	c-0.052-0.069-0.028-0.149-0.104-0.217c-0.037,0.001-0.075-0.036-0.104,0.015c-0.006,0.146,0.026,0.262,0.206,0.356
	c0.042-0.017,0.086-0.042,0.125-0.107c0.195,0.13,0.272,0.302,0.438,0.469c-0.028,0.052-0.062,0.058-0.092,0.087
	c-0.089-0.152-0.177-0.399-0.377-0.398c-0.118,0.225-0.29,0.063-0.432,0.125c-0.003,0.155,0.31,0.266,0.339,0.416
	c0.081-0.113-0.004-0.204-0.066-0.299c0.229-0.182,0.476,0.261,0.551,0.438c-0.042,0.044-0.104-0.055-0.146-0.018
	c-0.066,0.046,0.032,0.071-0.021,0.118c-0.044-0.043-0.032-0.091-0.107-0.129c-0.042,0.038-0.088,0.053-0.13,0.084
	c0.003,0.085,0.173,0.147,0.137,0.237c-0.129,0.028-0.231-0.098-0.298-0.202c-0.021-0.047,0.066-0.061,0.04-0.083
	c-0.067-0.071-0.15-0.142-0.123-0.228c-0.107,0.046-0.139-0.108-0.222-0.123c-0.042,0.082-0.042,0.16-0.044,0.237
	c0.119,0.005,0.191,0.159,0.164,0.261C29.568,18.709,29.322,18.523,29.433,18.381L29.433,18.381z M34.394,21.103L34.394,21.103
	c-0.396-0.279-0.506-0.976,0.085-0.976c0.104,0.064,0.129,0.137,0.234,0.2c0.115-0.095,0.271-0.183,0.385-0.003
	c0.299-0.072,0.666-0.131,0.976,0.176c-0.033,0.043-0.065,0.085-0.098,0.129c0.13,0.144-0.031,0.223-0.059,0.316
	c0.067,0.002,0.123-0.098,0.202-0.027c0.071,0.044,0,0.11,0.107,0.151c0.075-0.077,0.1-0.15,0.125-0.224
	c0.075,0.011,0.143-0.027,0.206-0.092c0.158,0.121,0.337,0.125,0.462,0.284c0.146-0.133,0.291,0.033,0.445,0.156
	c-0.024,0.033-0.048,0.066-0.077,0.1c0.029,0.064,0.062,0.129,0.155,0.186c0.041-0.046,0.077-0.125,0.123-0.133
	c0.115,0.057,0.037,0.142,0.093,0.205c0.041,0.02,0.073-0.032,0.118,0.022c0.125,0.992-1.119,1.45-1.604,2.06
	C35.192,22.954,34.888,21.949,34.394,21.103L34.394,21.103z M42.856,28.419c0.034,0.086,0.149,0.16,0.202,0.243
	c0.019-0.089,0.106-0.187,0.09-0.271C43.038,28.292,42.89,28.269,42.856,28.419L42.856,28.419L42.856,28.419z M44.512,29.153
	L44.512,29.153c-0.101-0.061-0.271-0.094-0.186-0.229c0.542,0.028,1.013,0.136,1.297,0.734c-0.063,0.084-0.137,0.075-0.196,0.168
	c-0.098-0.015-0.202-0.036-0.308-0.099c-0.048-0.055,0.021-0.123-0.025-0.178c-0.104,0.018-0.115,0.145-0.2,0.233
	c-0.134-0.021-0.306-0.13-0.369-0.259C44.241,29.576,44.36,29.259,44.512,29.153L44.512,29.153z M30.699,18.617
	c-0.087,0.027,0.047,0.131,0.012,0.191c0.061,0.031,0.115,0.017,0.161-0.06c-0.007-0.038-0.034-0.073-0.055-0.109
	C30.78,18.599,30.697,18.697,30.699,18.617L30.699,18.617L30.699,18.617z M39.101,23.925c0.408,0.195,0.732,0.422,0.954,0.768
	c0.212-0.463-0.181-1.078-0.706-1.213c-0.072,0.079-0.101,0.151-0.048,0.212C39.202,23.707,39.151,23.819,39.101,23.925
	L39.101,23.925L39.101,23.925z M33.458,17.75L33.458,17.75c-0.045-0.042-0.071,0.046-0.119-0.021c0.004-0.015,0-0.026-0.019-0.037
	c0.065-0.098,0.09-0.281,0.162-0.329c-0.057-0.003-0.112-0.01-0.177-0.067c0.038-0.182,0.072-0.361,0.117-0.542
	c0.088-0.044,0.186,0,0.229-0.123c0.173,0.064,0.346,0.144,0.401,0.306c0.291-0.278,1.021,0.063,0.778,0.522
	c-0.048,0.021-0.111-0.048-0.155-0.005c0.267,0.388-0.157,0.938-0.064,1.306c-0.076-0.028-0.006-0.112-0.078-0.104
	c-0.065,0.021-0.132,0.046-0.213-0.048c0.013-0.105-0.045-0.39-0.218-0.277c-0.044,0.069,0.048,0.176-0.021,0.208
	C33.865,18.225,33.359,18.087,33.458,17.75L33.458,17.75z M28.533,8.777c-0.143,0.264,0.514,0.238,0.472,0.063
	C28.854,8.87,28.698,8.86,28.533,8.777L28.533,8.777L28.533,8.777z M33.619,11.186c0.204,0.336,0.72,0.078,1.087,0.416
	c0.025-0.022,0.058-0.012,0.083-0.05c0.069,0.043,0.069,0.098,0.143,0.109c-0.004-0.142-0.262-0.151-0.252-0.326
	c-0.066-0.056-0.117,0.018-0.179,0c-0.066-0.03-0.01-0.076-0.079-0.104C34.144,11.222,33.896,11.055,33.619,11.186L33.619,11.186
	L33.619,11.186z M33.581,10.253c-0.102-0.078-0.289-0.065-0.407,0.03C33.311,10.276,33.46,10.371,33.581,10.253L33.581,10.253
	L33.581,10.253z M32.756,9.763c0.161,0.152,0.577,0.189,0.744,0.089c-0.085-0.076-0.262-0.023-0.377-0.035
	c-0.038-0.021-0.013-0.051-0.063-0.071c0.046-0.07,0.108-0.026,0.157-0.084C33.042,9.541,32.928,9.854,32.756,9.763L32.756,9.763
	L32.756,9.763z M34.228,10.473c-0.048-0.203-0.323-0.188-0.458-0.143C33.95,10.375,34.067,10.4,34.228,10.473L34.228,10.473
	L34.228,10.473z M35.729,11.384c-0.006,0.069,0.063,0.106-0.03,0.159c0.078,0.058,0.146,0.052,0.218,0.072
	c0.046,0.053,0.02,0.117,0.099,0.165c0.133-0.031,0.113-0.158,0.256-0.188C36.11,11.474,35.895,11.391,35.729,11.384L35.729,11.384
	L35.729,11.384z M36.391,11.885c0.038,0.033-0.021,0.079-0.048,0.122c0.072-0.004,0.157,0.08,0.219,0.01
	c-0.125-0.139-0.268-0.349-0.425-0.188C36.225,11.884,36.308,11.891,36.391,11.885L36.391,11.885L36.391,11.885z M34.89,10.702
	c0.102,0.06,0.211,0.171,0.167,0.286c0.066,0.019,0.135,0.036,0.191-0.014C35.323,10.759,35.036,10.714,34.89,10.702L34.89,10.702
	L34.89,10.702z M35.563,10.828c0,0.118,0.144,0.357,0.292,0.269c-0.008-0.046-0.061-0.086-0.08-0.13
	c0.074-0.071,0.174,0.02,0.244-0.085c-0.104-0.084-0.208-0.137-0.285-0.013C35.681,10.867,35.612,10.784,35.563,10.828
	L35.563,10.828L35.563,10.828z M36.221,11.033c-0.154-0.046-0.354,0.008-0.333,0.201C36.021,11.292,36.315,11.232,36.221,11.033
	L36.221,11.033L36.221,11.033z M36.453,11.412c0.228,0.17,0.393,0.729,0.704,0.443c-0.123-0.085-0.227-0.015-0.35-0.106
	c0.058-0.073,0.144,0.053,0.198-0.054c-0.164-0.174-0.4-0.55-0.668-0.549c-0.014,0.098,0.141,0.102,0.202,0.151
	C36.566,11.369,36.431,11.33,36.453,11.412L36.453,11.412L36.453,11.412z M35.047,10.257c0.123,0.171,0.233,0.287,0.438,0.286
	c0.021-0.087-0.112-0.036-0.171-0.13c-0.01-0.057,0.047-0.053,0.074-0.101c-0.021-0.092-0.179-0.163-0.188-0.257
	c0.039-0.063,0.063-0.041,0.076-0.1c-0.051-0.055-0.093-0.048-0.139-0.084c-0.03,0.005-0.055,0.038-0.081,0.076
	c-0.162,0.017-0.218-0.19-0.322-0.2c-0.063,0.219,0.191,0.295,0.373,0.373C35.132,10.16,35.025,10.217,35.047,10.257L35.047,10.257
	L35.047,10.257z M34.243,8.338c-0.169,0.148-0.107,0.317,0.081,0.398c0.05-0.106-0.092-0.235,0.058-0.315
	C34.333,8.378,34.287,8.353,34.243,8.338L34.243,8.338L34.243,8.338z M33.603,7.809c0.182,0.108,0.39,0.297,0.529,0.377
	c0.048-0.063,0.014-0.112,0.041-0.173c0.04-0.056,0.094-0.002,0.141-0.006c0.032-0.064,0.048-0.127,0.026-0.184
	c-0.058-0.048-0.096,0.049-0.153,0.021c-0.065-0.114-0.15-0.031-0.223-0.146C33.846,7.763,33.718,7.729,33.603,7.809L33.603,7.809
	L33.603,7.809z M33.806,7.421c-0.054,0.139,0.138,0.317,0.257,0.171c-0.04-0.044-0.07-0.013-0.11-0.063
	c0.048-0.054,0.158-0.023,0.16-0.125C34.006,7.368,33.904,7.368,33.806,7.421L33.806,7.421L33.806,7.421z M71.192,19.735
	c0.009,0.045,0.086,0.083,0.134,0.123c0.044-0.012,0.125-0.07,0.121-0.133C71.359,19.703,71.266,19.649,71.192,19.735L71.192,19.735
	L71.192,19.735z M39.381,7.669c0.177,0.073,0.333-0.013,0.503,0.02C39.76,7.621,39.518,7.514,39.381,7.669L39.381,7.669z
	 M78.716,26.022c0.171,0.168,0.428,0.127,0.625,0.158C79.181,26.103,78.912,26.044,78.716,26.022L78.716,26.022z M14.087,9.328
	c0.068-0.007,0.141,0.021,0.196-0.079c-0.007-0.028-0.039-0.054-0.077-0.079c0.047-0.101,0.117-0.025,0.169-0.075
	c-0.146-0.167-0.244,0.013-0.367,0.039C14.024,9.198,14.095,9.235,14.087,9.328L14.087,9.328z M54.763,28.745
	c0.042-0.07-0.129-0.059-0.071-0.145c0.079,0.021,0.107,0.145,0.213,0.14c0.038-0.038,0.078-0.091,0.097-0.132
	c-0.112-0.131-0.185,0.035-0.294-0.088c0.027-0.076,0.079,0.013,0.107-0.054c-0.101-0.209-0.407-0.389-0.468-0.604
	c0.028-0.061,0.07-0.041,0.103-0.103c-0.097-0.036-0.188-0.052-0.282-0.077c-0.054,0.047-0.002,0.077-0.022,0.117
	c-0.152,0.094-0.301-0.16-0.45-0.182c0.018,0.23,0.552,0.314,0.438,0.557c-0.371-0.209-0.76-0.58-1.109-0.771
	C53.422,27.916,54.134,28.416,54.763,28.745L54.763,28.745z M52.363,25.413c0.029-0.076-0.059-0.137-0.016-0.216
	c0.112,0.002,0.201,0.162,0.331,0.159c-0.009-0.049-0.071-0.093-0.071-0.144c0.077-0.025,0.169,0.057,0.254,0.08
	c0.048,0.035-0.049,0.092-0.033,0.134c0.178,0.275,0.527,0.384,0.744,0.36c-0.06-0.227-0.479-0.265-0.427-0.481
	c-0.272-0.241-0.536-0.269-0.832-0.45c-0.164,0.248-0.494-0.459-0.744-0.361c-0.061,0.265,0.667,0.288,0.339,0.507
	C52.062,25.161,52.133,25.364,52.363,25.413L52.363,25.413z M60.924,26.638c-1.035-0.933-3.003-1.802-4.089-2.715
	c0.086-0.067,0.2,0.077,0.285,0.013c-0.162-0.448-1.121-0.546-1.375-1.02c0.401-0.142,0.817,0.641,1.167,0.636
	c-0.08-0.206-0.421-0.378-0.303-0.612c0.371,0.046,0.775,0.343,1.161,0.495c0.017-0.127-0.103-0.234-0.064-0.364
	c1.13,0.139,1.777,1.463,2.907,1.887c0.019,0.143,0.171,0.27,0.339,0.391c0.137-0.02,0.272-0.063,0.436,0.082
	c0.855,0.222,1.708,0.94,2.591,1.376c0.21,0.385,0.72,0.791,1.003,1.123c-0.104,0.254,0.348,0.482,0.55,0.617
	c-0.24,0.008-0.569-0.262-0.791-0.418c-0.068-0.031-0.121,0.044-0.19,0.016c-1.016-0.717-2.108-1.283-3.063-1.533
	c-0.021,0.15,0.38,0.218,0.397,0.369c-0.182,0.055-0.415-0.268-0.597-0.226c-0.041,0.063,0.105,0.104,0.073,0.169
	C61.21,26.793,61.074,26.763,60.924,26.638L60.924,26.638z M60.918,25.933c-0.104,0.144,0.151,0.23,0.254,0.26
	C61.239,26.087,60.995,25.976,60.918,25.933L60.918,25.933L60.918,25.933z M59.192,24.42L59.192,24.42
	c0.062-0.021,0.136,0.042,0.191-0.014c-0.021-0.048-0.108-0.087-0.123-0.137c0.274-0.104,0.462,0.303,0.704,0.442
	c-0.043,0.061-0.102,0.014-0.14,0.098c-0.028,0.081,0.063,0.145,0.055,0.223C59.66,24.878,59.155,24.673,59.192,24.42z"/>
</svg>
