<?xml version="1.0" encoding="utf-8"?>
<!-- Generator: Adobe Illustrator 16.0.0, SVG Export Plug-In . SVG Version: 6.00 Build 0)  -->
<!DOCTYPE svg PUBLIC "-//W3C//DTD SVG 1.1//EN" "http://www.w3.org/Graphics/SVG/1.1/DTD/svg11.dtd">
<svg version="1.1" id="Layer_1" xmlns="http://www.w3.org/2000/svg" xmlns:xlink="http://www.w3.org/1999/xlink" x="0px" y="0px"
	 width="100px" height="100px" viewBox="0 0 100 100" enable-background="new 0 0 100 100" xml:space="preserve">
<path d="M64.581,69.189l4.11-1.133l6.15,1.668L74.84,72.29l-1.475-0.397l-5.69,1.494v0.207l-3.101-0.841L64.581,69.189
	L64.581,69.189z M33.707,61.492l5.546-1.463l7.68,2.072v26.131l-12.779-1.09l-0.487,0.041L33.707,61.492L33.707,61.492z
	 M42.287,36.317l0.006,24.193l4.365,1.18l0.715,0.191V88.27l4.074,0.35l0.048-15.166l5.409-1.49l-1.465-0.395v-1.25l3.752,1.015
	l0.07-0.021l4.914,1.332l0.001-1.131l-8.737-2.361v-1.248l8.74,2.361l0.002-1.166l-8.742-2.363v-1.248l10.619,2.871l2.185-0.577
	L55.439,64.32v-1.248l17.976,4.859v-1.166l-17.976-4.861v-1.248l17.976,4.861V64.35L55.439,59.49v-1.25l17.976,4.861v-1.168
	l-17.976-4.859v-1.249l17.976,4.86v-1.168l-17.976-4.859v-1.249l17.976,4.86v-1.166l-17.976-4.861v-1.248l17.976,4.859v-1.166
	l-17.976-4.86v-1.25l17.976,4.86v-1.166l-17.976-4.86v-1.249l17.976,4.859v-1.166l-17.976-4.86v-1.249l17.976,4.861V47.44
	l-17.976-4.86v-1.249l17.976,4.86v-1.166l-17.976-4.861v-1.249l17.976,4.861v-1.167l-17.976-4.86V36.5l17.976,4.861v-1.285
	l-17.976-4.862v-1.249l17.976,4.86V37.76l-18.063-4.874L42.287,36.317L42.287,36.317z M60.25,3.019l-0.018,30.814l13.541,3.654
	v31.578l1.189,0.322l0.005-9.519l3.833-1.009l1.688,0.455V3.951L68.738,0.78L60.25,3.019L60.25,3.019z M51.854,73.727L51.805,88.65
	l7.021,0.599v2.09l0.159-0.042l1.177,0.316v2.857l4.017-0.336l0.018-10.529l2.638-0.693l0.847,0.229l-0.002-9.174l-8.412-2.281
	L51.854,73.727L51.854,73.727z M16.615,88.992L16.429,99.22h40.75l0.082-4.505l0.762-0.064l0.002-3.103l0.414-0.108v-1.838
	L34.154,87.53l-12.279,1.022v-7.345l-1.952-0.524l-1.409,0.371l-0.007,7.779L16.615,88.992L16.615,88.992z M77.111,87.029
	l1.668-0.461l2.498,0.677L81.271,99.22h-1.686L79.6,89.148l-2.488-0.674V87.029L77.111,87.029z M64.579,83.902l2.252-0.592
	l3.118,0.84V94.76l-5.19-0.441l-0.198,0.017L64.579,83.902L64.579,83.902z M68.063,73.686l0.002,9.82l1.771,0.479l0.29,0.078v10.713
	l1.653,0.14l0.021-6.153l2.196-0.605L73.4,87.995v-0.509l1.523,0.412l0.027-0.008l1.994,0.541v-0.459L73.4,87.016v-0.51l3.548,0.961
	l0.001-0.475l-3.549-0.96v-0.507l4.311,1.166l0.887-0.233L73.4,85.053v-0.507l7.297,1.974v-0.475L73.4,84.072v-0.508l7.297,1.974
	v-0.476L73.4,83.091v-0.508l7.297,1.974v-0.474L73.4,82.109v-0.508l7.297,1.973v-0.473L73.4,81.127V80.62l7.297,1.975v-0.474
	L73.4,80.146v-0.506l7.297,1.971v-0.473L73.4,79.166v-0.507l7.297,1.973v-0.474L73.4,78.184v-0.507l7.297,1.974V79.18L73.4,77.207
	V76.7l7.297,1.973V78.2L73.4,76.225v-0.507l7.297,1.974V77.22L73.4,75.245v-0.507l7.297,1.974v-0.474L73.4,74.266v-0.509
	l7.297,1.974V75.21L73.4,73.234v-0.506l7.297,1.974V74.27l-7.332-1.979L68.063,73.686L68.063,73.686z M75.354,60.166l3.447-0.909
	l4.771,1.287V99.22h-2.154l0.006-12.084l-0.58-0.159V74.159l-5.496-1.483L75.354,60.166L75.354,60.166z M71.945,88.872l3.007-0.831
	l4.501,1.22l-0.01,9.959h-4.67v-4.049l-2.851-0.241L71.945,88.872L71.945,88.872z M57.641,95.068l0.769-0.065l0.002-3.158
	l0.571-0.149l0.793,0.213v2.982l4.983-0.418l9.86,0.842v3.905H57.564L57.641,95.068z"/>
</svg>
