<?xml version="1.0" encoding="utf-8"?>
<!-- Generator: Adobe Illustrator 16.0.0, SVG Export Plug-In . SVG Version: 6.00 Build 0)  -->
<!DOCTYPE svg PUBLIC "-//W3C//DTD SVG 1.1//EN" "http://www.w3.org/Graphics/SVG/1.1/DTD/svg11.dtd">
<svg version="1.1" id="Layer_1" xmlns="http://www.w3.org/2000/svg" xmlns:xlink="http://www.w3.org/1999/xlink" x="0px" y="0px"
	 width="308.611px" height="227.209px" viewBox="-4.059 36.394 308.611 227.209"
	 enable-background="new -4.059 36.394 308.611 227.209" xml:space="preserve">
<path fill="none" stroke="#000000" stroke-width="10" d="M166.23,238.662c7.928-2.91,14.43-5.619,2.115-5.699
	c-10.876,1.462-39.011-9.282-16.462-14.563c14.106-5.508,46.211,7.214,46.383-14.548c-2.553-13.638-43.965-2.989-30.341-21.28
	c15.003-6.135,44.754,8.32,49.787-10.664c-4.614-18.407-33.472-6.66-47.977-11.747c-14.061,2.9-17.764-15.589-1.982-12.798
	c36.481-1.968,73.217,0.92,109.572-3.096c5.873-3.253,10.214-23.263,2.803-24.61c-52.959-1.098-106.011-0.089-158.886-3.362
	c-18.996-0.197-4.482-20.481,9.555-15.718c13.371-4.378,18.67-15.859,28.483-27.196c5.016-24.78-19.087-15.583-28.93-8.332
	c-10.992,7.206-29.897,22.163-39.926,30.015c-8.792,6.357-29.047,13.411-41.368,21.933c-10.532,3.743-22.057,1.879-32.401,2.551
	c0,33.573,0,67.146,0,100.72c29.265,12.743,60.061,23.937,92.505,22.656C128.168,242.847,147.72,243.558,166.23,238.662z
	 M45.655,249.431c-14.939-5.74-29.852-11.554-44.656-17.636c0.708-41.926,1.417-83.853,2.125-125.779
	c11.82-0.449,29.358,5.414,37.783-3.219c22.651-7.27,37.357-23.349,57.214-35.418c13.974-10.98,25.135-14.728,39.568-23.055
	c10.962-5.069,16.898-2.481,29.243-0.271c5.384,8.811,12.067,13.364,8.6,30.148c-7.237,3.64-16.629,28.108-2.407,28.302
	c39.595,3.794,79.826-1.539,119.108,5.092c9.782,13.243,11.647,42.994-6.255,51.392c-17.133,4.954-35.197,2.497-52.799,3.092
	c-0.001,12.528,2.069,28.516-11.836,34.809c-10.268,13.392-10.989,33.065-27.535,42.865c-13.915,14.258-33.723,18.663-53.044,18.192
	C109.082,258.378,75.733,261.415,45.655,249.431L45.655,249.431L45.655,249.431z"/>
</svg>
