<?xml version="1.0" encoding="utf-8"?>
<!-- Generator: Adobe Illustrator 16.0.0, SVG Export Plug-In . SVG Version: 6.00 Build 0)  -->
<!DOCTYPE svg PUBLIC "-//W3C//DTD SVG 1.1//EN" "http://www.w3.org/Graphics/SVG/1.1/DTD/svg11.dtd">
<svg version="1.1"
	 id="svg583" xmlns:cc="http://creativecommons.org/ns#" xmlns:dc="http://purl.org/dc/elements/1.1/" xmlns:rdf="http://www.w3.org/1999/02/22-rdf-syntax-ns#"
	 xmlns="http://www.w3.org/2000/svg" xmlns:xlink="http://www.w3.org/1999/xlink" x="0px" y="0px" width="143.447px"
	 height="71.281px" viewBox="0 0 143.447 71.281" enable-background="new 0 0 143.447 71.281" xml:space="preserve">
<path fill="#FF0000" d="M0,53.277h142.884v17.762H0V53.277z M0,0h142.884v17.759H0V0z"/>
<rect id="rect708" x="0" y="17.759" fill="#FFFFFF" width="142.884" height="35.519"/>
<path fill="#007900" d="M71.28,23.792c-0.729,1.458-1.217,1.458-2.434,2.43c-0.487,0.486-1.218,0.729-0.243,1.215
	c-0.975,0.486-1.461,0.729-1.947,1.701l0.243,0.243c0,0,0.925-0.452,0.974-0.243c0.162,0.194-1.218,0.94-1.396,1.053
	c-0.179,0.113-1.039,0.648-1.039,0.648c-1.217,0.973-1.947,0.729-2.677,2.188l2.434-0.244c0.487,1.702-1.217,1.946-2.434,2.674
	l-1.947,1.213c0.486,1.701,1.947,0.73,3.164,0.244l0.243,0.242v0.486l-2.436,1.215c0,0-2.874,1.645-2.92,1.701
	c-0.02,0.088,0,0.485,0,0.485c0.974,0.242,2.435,0.483,3.407,0c1.217-0.485,1.46-0.974,2.921-0.974
	c-1.704,1.216-2.921,1.701-4.868,1.943v0.973c1.46,0,2.436,0,3.651-0.243l3.164-0.972c0.729,0,1.461,0.729,1.217,1.457
	c-0.729,2.674-3.65,2.188-4.625,4.375l3.896-1.459c0.975-0.485,1.946-0.973,3.164-0.729c1.46,0.484,1.46,1.457,3.407,1.943
	l-0.485-1.215c0.485,0.241,0.975,0.241,1.461,0.483c1.218,0.486,1.461,0.974,2.921,0.729c-1.218-1.459-1.46-1.215-2.436-2.188
	c-0.974-1.459-1.461-3.646,0-3.889l1.703,0.486c1.705,0.241,1.705-0.244,4.14,0.729c1.46,0.486,1.946,1.215,3.65,0.729
	c-0.729-1.701-3.408-2.916-5.111-3.399c1.947-1.218,1.461,0.483,4.139-0.244v-0.485c-1.946-1.457-2.678-2.673-5.354-2.673
	l4.139-0.487v-0.485c0,0-4.081-1.071-4.177-1.108c0.028-0.125,0.13-0.314,0.399-0.421c0.774,0.501,3.119,0.443,3.252,0.435
	c-0.068-0.598-1.179-1.092-2.152-1.579c0,0-4.169-2.569-4.188-2.797c0.082-0.651,1.712,0.104,3.459,0.609
	c-0.486-0.972-1.461-1.457-2.435-1.701l1.46-0.242c-0.975-2.188-3.406-1.944-4.868-2.916C72.741,25.008,72.741,24.521,71.28,23.792
	L71.28,23.792z M68.649,39.979c0.181-0.578,0.418-1.092-0.666-1.584C66.899,37.9,68.525,40.37,68.649,39.979z M69.933,38.82
	c-0.22,0.029-0.333,0.826,0.104,1.046C70.522,39.941,70.123,38.831,69.933,38.82z M71.198,38.736
	c-0.228,0.066-0.236,1.187,0.562,0.986C72.557,39.523,71.749,38.641,71.198,38.736z M72.672,35.859
	c0.172-0.274-0.011-1.404-0.694-0.93C71.292,35.404,72.453,35.936,72.672,35.859z M71.179,34.92c0.209-0.076,0.228-0.77-0.371-0.589
	C70.208,34.512,71.017,35.063,71.179,34.92z M69.829,35.195c0,0-0.419-0.58-0.741-0.457C68.679,35.128,69.858,35.205,69.829,35.195z
	 M65.193,37.045c0.178,0.016,1.498-0.219,1.955-0.73c0.456-0.512-2.351,0.222-2.351,0.229
	C64.798,36.553,65.063,36.997,65.193,37.045L65.193,37.045z M78.385,33.777c0.068-0.121-0.701-0.672-1.159-0.455
	C77.107,33.729,78.383,33.859,78.385,33.777L78.385,33.777z M75.791,32.47c0.145-0.209-0.333-1.063-1.282-0.588
	C73.556,32.355,75.506,32.802,75.791,32.47z M72.786,31.967c0,0,0.237-0.769,0.81-0.616C74.241,31.845,72.814,31.996,72.786,31.967z
	 M72.225,31.388c-0.086-0.218-0.688-0.084-1.371,0.361C70.17,32.194,72.434,31.882,72.225,31.388z M73.974,29.32
	c0,0,0.608-0.273,0.789,0C75.02,29.728,73.965,29.33,73.974,29.32z M73.463,29.052c-0.123-0.246-0.8-0.271-0.78,0.086
	C72.568,29.417,73.558,29.365,73.463,29.052z M71.854,29.052c-0.066-0.142-1.026,0.004-1.313,0.579
	C70.999,29.855,72.064,29.415,71.854,29.052z M69.8,29.642c0,0-1.264,0.772-1.342,1.338c0.039,0.49,1.569-0.883,1.569-0.883
	S70.161,29.556,69.8,29.642L69.8,29.642z M68.402,28.939c0.036-0.156,0.625-0.521,0.675-0.494
	C69.126,28.605,68.597,29.033,68.402,28.939z M68.802,31.892c0.027-0.229-1.502-0.209-0.922,0.494
	C68.363,32.974,68.906,31.996,68.802,31.892z M67.408,32.9c-0.08-0.154-0.194-0.564-0.403-0.603
	c-0.172-0.01-1.092,0.181-1.162,0.336c-0.037,0.123,0.382,0.882,0.522,0.902C66.528,33.602,67.38,32.976,67.408,32.9L67.408,32.9z
	 M75.668,38.053c0.048-0.162,1.611-0.703,2.151-0.186C78.456,38.741,75.63,38.329,75.668,38.053L75.668,38.053z M79.966,39.075
	c0.345-0.58-1.053-1.269-1.646-0.604C78.524,39.266,79.689,39.553,79.966,39.075z"/>
</svg>
