<?xml version="1.0" encoding="utf-8"?>
<!-- Generator: Adobe Illustrator 16.0.0, SVG Export Plug-In . SVG Version: 6.00 Build 0)  -->
<!DOCTYPE svg PUBLIC "-//W3C//DTD SVG 1.1//EN" "http://www.w3.org/Graphics/SVG/1.1/DTD/svg11.dtd">
<svg version="1.1" id="svg2" xmlns:svg="http://www.w3.org/2000/svg"
	 xmlns="http://www.w3.org/2000/svg" xmlns:xlink="http://www.w3.org/1999/xlink" x="0px" y="0px" width="215.829px"
	 height="149.04px" viewBox="0 0 215.829 149.04" enable-background="new 0 0 215.829 149.04" xml:space="preserve">
<path id="path1882" fill="#CCCCCC" d="M32.915,115.389c4.832,17.889,3.398,23.357,24.718,21.252
	c20.155-2.002,28.857-12.016,18.603-17.674c-10.489-5.791-0.938-11.445,5.515-13.838c6.454-2.4,14.837-5.008,19.915-1.572
	c5.078,3.426-5.303,9.225,0.307,15.842c5.685,6.707,29.321-6.402,37.425-10.607c7.871-4.073,0.808-16.055-4.244-24.465
	c-5.195-8.623-11.796-9.262-16.838-2.242c-4.915,6.832-9.869,3.449-13.481-5.455c-3.507-8.65,1.389-11.416,7.706-7.851
	c6.311,3.564,17.815-0.624,6.078-18.243c-11.865-17.825-11.556-1.717-31.21,0.022c-19.93,1.765,0.477-17.87-29.254-12.202
	c-29.449,5.613,9.826,17.816-10.577,20.39c-20.694,2.609-34.248,1.751-27.203,9.144c6.907,7.245,10.305,17.46,3.535,20.909
	c-6.768,3.432-27.816-9.396-23.274,15.654C5.167,129.469,28.098,97.581,32.915,115.389z"/>
<path d="M95.949,16.584l-5.007,25.032l-5.006,25.032h6.01v10.045h8.012V66.648h6.004l-5.006-25.032L95.949,16.584z M115.434,0
	l-5.006,25.032l-5.008,25.032h6.012v10.042h8.008V50.064h6.008l-5.007-25.032L115.434,0z M76.719,2.497l-5.007,25.032l-5.006,25.032
	h6.007v10.042h8.009V52.561h6.01l-5.006-25.032L76.719,2.497z M42.951,79.346c-0.824-0.479-1.222,1.924-2.456,1.209
	c-1.235-0.709,0.474-3.131-0.926-3.934c-2.285,1.631-10.606,17.489-11.631,20.174c1.345,0.771,4.927-6.861,6.012-7.943
	c0.396-0.398,0.593,12.086,0.627,12.98c0.033,0.896-0.047,2.172,3.494,4.215c3.541,2.041,6.017,1.174,8.307,0.627
	c2.29-0.541,5.678-1.66,7.531-4.871c1.854-3.209-0.165-7.887,0.262-8.627c0.429-0.74,5.852,1.842,8.702-3.1
	c2.851-4.938,9.816-6.736,11.24-9.205c1.425-2.468-2.676-5.06-7.803-5.492c-5.127-0.437-8.936-0.109-16.542,1.752 M33.266,88.897
	c0.13,2.822,1.118,13.271,1.705,14.156c0.585,0.889,0.351-12.967-1.371-15.5 M39.805,77.528c1.892-1.662,5.959-1.439,6.991-2.66
	c0.984-1.16,1.286-0.717,0.572,0.516c-0.551,0.954-7.146,1.942-7.223,2.549 M35.731,75.174c0.825,0.477-1.058,2.025,0.178,2.734
	c1.235,0.715,2.472-1.976,3.871-1.166c-0.275,2.797-9.846,17.93-11.652,20.162c-1.35-0.781,3.475-7.701,3.872-9.178
	c0.144-0.541-10.764,5.525-11.556,5.941c-0.791,0.424-1.854,1.129-5.396-0.916c-3.538-2.039-4.022-4.631-4.697-6.888
	c-0.673-2.25-1.401-5.741,0.451-8.956c1.852-3.208,6.912-3.802,7.342-4.538c0.427-0.742-4.519-4.147-1.668-9.087
	c2.85-4.937,0.926-11.869,2.35-14.335c1.426-2.467,5.717-0.21,8.658,4.012c2.94,4.221,4.562,7.683,6.752,15.202 M32.301,88.342
	c-2.503,1.297-12.048,5.662-13.111,5.6c-1.058-0.064,11.054-6.785,14.108-6.564 M38.878,76.993c0.495-2.469-1.731-5.879-1.195-7.385
	c0.515-1.434-0.016-1.47-0.73-0.234c-0.551,0.952,1.892,7.16,1.405,7.526 M49.2,4.959l-1.551,2.593l-0.818-1.809l-1.746,0.802
	l1.379,3.01l-2.48,4.162l-0.911-2.21l1.041-1.118l-1.41-1.315l-0.45,0.481l-0.303-0.737l-1.776,0.72l0.24,0.592l-0.417-0.063
	l-0.321,1.905l1.615,0.258l1.455,3.554l-1.585,2.656l-0.22-0.561l-1.796,0.688l0.768,1.969l-1.695,2.834l-1.265-2.21l1.265-2.146
	l-1.649-0.978l-0.72,1.219l-1.489-2.593l2.497-4.113l2.016-0.112l-0.112-1.923l-0.704,0.034l0.704-1.152l-1.646-0.991L36.348,9.67
	l-0.35-0.611L34.33,10.02l0.864,1.535l-1.938,3.201l-2.847-4.959l1.345-3.088l-1.746-0.768l-0.784,1.806L27.86,5.395
	c-0.554,0.319-1.108,0.64-1.662,0.96l1.506,2.61L25.718,8.8l-0.143,1.907l3.298,0.274l2.415,4.191l-2.369-0.273l-0.481-1.468
	l-1.825,0.591l0.21,0.641l-0.8-0.098l-0.225,1.907l0.642,0.08l-0.274,0.334l1.488,1.201l1.025-1.281l3.812,0.446l1.535,2.673
	l-0.595-0.08l-0.254,1.907l2.066,0.287l1.745,3.041l-2.72-0.034l-1.217-2.176l-1.684,0.931l0.675,1.216l-2.981-0.013l-2.29-4.226
	l0.929-1.809l-1.713-0.882l-0.316,0.624l-0.642-1.185l-1.695,0.914l0.72,1.312h-0.72l-0.017,1.92l1.775,0.016l1.776,3.297
	l-5.731-0.05l-1.982-2.72l-1.551,1.123l1.15,1.584l-2.707-0.016l-0.013,1.919l3.023,0.017l-1.15,1.631l1.567,1.105l1.907-2.707
	l4.85,0.034l-1.442,1.902l-1.506-0.337l-0.417,1.873l0.641,0.144l-0.479,0.645l1.521,1.167l0.385-0.51l0.16,0.401l1.809-0.691
	l-0.59-1.522l2.319-3.057l3.088,0.034l-0.368,0.463l1.506,1.198l1.295-1.647l2.495,0.017l-1.472,2.624h-2.497v1.921h1.41
	l-1.473,2.611l-4.816-0.05l-1.118-1.679l-1.605,1.058l0.384,0.595l-1.346-0.016l-0.017,1.918l1.488,0.016l-0.35,0.624l1.666,0.945
	L27.784,36l3.761,0.049l-2.816,4.993l-3.362,0.401l0.241,1.902l1.952-0.239l-1.328,2.369l1.666,0.945l1.488-2.627l0.848,1.775
	l1.729-0.831l-1.442-2.978l2.367-4.208l0.975,2.176l-1.023,1.155l1.44,1.265l0.432-0.497l0.336,0.754l1.763-0.785l-0.257-0.593
	l0.417,0.063l0.274-1.903l-1.615-0.24l-1.553-3.487l1.522-2.707l0.241,0.561l1.778-0.738l-0.816-1.936l1.552-2.736l1.488,2.577
	l-1.121,1.969l1.666,0.945l0.574-0.991l1.506,2.609l-2.29,3.892l-2.016,0.144l0.127,1.907l0.72-0.047l-0.704,1.182l1.666,0.961
	l0.755-1.283l0.367,0.608l1.649-0.975l-0.901-1.54l1.729-2.927l2.914,5.044l-1.139,2.689l1.78,0.751l0.574-1.361l0.975,1.698
	l1.666-0.978l-1.408-2.446l2.42,0.176l0.144-1.921l-3.62-0.241c-0.031-0.003-0.064,0-0.098,0l-2.433-4.195l2.738,0.287l0.481,1.472
	l1.822-0.625l-0.207-0.624l0.8,0.08l0.207-1.905l-0.653-0.063l0.273-0.351l-1.522-1.185l-1.008,1.294l-4.113-0.43l-1.535-2.657
	l0.866,0.114l0.239-1.907l-2.319-0.303l-1.442-2.497l2.851-0.063l1.279,2.13l1.647-0.975l-0.724-1.229l2.994-0.066l2.417,4.162
	l-0.882,1.825l1.729,0.831l0.303-0.653l0.688,1.182l1.666-0.962l-0.755-1.295l0.704-0.016l-0.029-1.923l-1.779,0.034l-1.873-3.235
	l5.715-0.13l2.064,2.674l1.522-1.168l-1.201-1.568l2.707-0.063l-0.051-1.923l-2.994,0.07l1.089-1.631l-1.617-1.059l-1.809,2.757
	l-4.866,0.111l1.392-1.936l1.522,0.287l0.354-1.889l-0.657-0.13l0.48-0.655l-1.569-1.121l-0.383,0.528l-0.16-0.401l-1.776,0.738
	l0.64,1.504l-2.224,3.137l-3.108,0.08l0.369-0.497l-1.536-1.152l-1.267,1.695l-3.326,0.08l2.001-3.344l2.48,0.047l0.05-1.918
	l-1.392-0.034l1.535-2.563l4.803,0.178l1.071,1.698l1.633-1.025l-0.367-0.59l1.344,0.046l0.064-1.921l-1.509-0.047l0.367-0.606
	l-1.631-1.009l-0.911,1.535l-3.745-0.143l2.927-4.917l3.36-0.319L51.42,8.08l-1.969,0.194l1.392-2.319L49.2,4.959z"/>
</svg>
