<?xml version="1.0" encoding="utf-8"?>
<!-- Generator: Adobe Illustrator 16.0.0, SVG Export Plug-In . SVG Version: 6.00 Build 0)  -->
<!DOCTYPE svg PUBLIC "-//W3C//DTD SVG 1.1//EN" "http://www.w3.org/Graphics/SVG/1.1/DTD/svg11.dtd">
<svg version="1.1"
	 id="svg832" xmlns:cc="http://creativecommons.org/ns#" xmlns:dc="http://purl.org/dc/elements/1.1/" xmlns:rdf="http://www.w3.org/1999/02/22-rdf-syntax-ns#"
	 xmlns="http://www.w3.org/2000/svg" xmlns:xlink="http://www.w3.org/1999/xlink" x="0px" y="0px" width="143.447px"
	 height="71.281px" viewBox="0 0 143.447 71.281" enable-background="new 0 0 143.447 71.281" xml:space="preserve">
<rect id="rect741" x="0" y="0" fill="#FFFFFF" width="143.177" height="71.28"/>
<path fill="#002993" d="M52.847,8.146h90.326v8.113H52.847V8.146z M52.847,23.941h90.326v8.111H52.847V23.941z M0,39.55h143.177
	v8.112H0V39.55z M0,55.251h143.177v8.112H0V55.251z"/>
<linearGradient id="SVGID_1_" gradientUnits="userSpaceOnUse" x1="21.1292" y1="4.5762" x2="21.1291" y2="30.4675">
	<stop  offset="0" style="stop-color:#FAFF00"/>
	<stop  offset="1" style="stop-color:#F5C402"/>
</linearGradient>
<path fill="url(#SVGID_1_)" fill-opacity="0.5608" stroke="#CBAA19" stroke-width="0.4793" d="M15.443,19.296
	c-1.407-0.408-2.784-0.541-4.519-1.361c-1.83-1.551-1.961-2.049-3.123-2.506c-0.437-0.154-0.757-0.09-1.49-0.711
	c-0.937-0.994-0.564-1.455-0.111-1.826c0.382,0.219,0.503,0.476,1.571,0.469c0.605,0.021,1.471,0.183,2.319,0.639
	c0.667,0.523,1.494,1.243,2.465,1.584c1.158,0.266,1.573,0.533,2.369,0.498c0.932,0.068,1.082,0.258,1.863,0.551
	C17.14,18.052,16.685,18.655,15.443,19.296L15.443,19.296z M17.726,15.726c-0.675-1.229-1.539-2.242-2.13-3.977
	c-0.1-2.311,0.188-2.748-0.278-3.844c-0.188-0.4-0.463-0.57-0.503-1.495c0.102-1.323,0.712-1.397,1.312-1.354
	c0.102,0.408-0.009,0.668,0.745,1.379c0.409,0.418,0.891,1.111,1.138,1.998c0.069,0.814,0.102,1.871,0.521,2.76
	c0.608,0.961,0.695,1.427,1.279,1.934c0.602,0.672,0.563,0.905,0.888,1.633C19.863,15.991,19.086,16.109,17.726,15.726
	L17.726,15.726z M21.979,14.745c0.445-1.317,0.598-2.606,1.483-4.228c1.668-1.703,2.2-1.822,2.695-2.908
	c0.169-0.409,0.101-0.709,0.77-1.393c1.067-0.871,1.556-0.52,1.948-0.092c-0.234,0.357-0.51,0.469-0.509,1.471
	c-0.027,0.567-0.206,1.377-0.699,2.17c-0.563,0.621-1.336,1.392-1.707,2.299c-0.291,1.084-0.58,1.472-0.548,2.218
	c-0.08,0.873-0.282,1.013-0.601,1.741C23.294,16.345,22.656,15.914,21.979,14.745L21.979,14.745z M25.727,16.855
	c1.307-0.641,2.384-1.455,4.229-2.02c2.465-0.107,2.932,0.159,4.1-0.285c0.428-0.178,0.605-0.436,1.591-0.479
	c1.412,0.086,1.496,0.658,1.453,1.221c-0.435,0.098-0.714-0.004-1.468,0.707c-0.445,0.385-1.18,0.842-2.125,1.079
	c-0.867,0.069-1.994,0.104-2.938,0.504c-1.022,0.577-1.519,0.661-2.056,1.212c-0.713,0.566-0.961,0.532-1.735,0.84
	C25.458,18.859,25.328,18.132,25.727,16.855L25.727,16.855z M26.8,20.841c1.407,0.41,2.784,0.547,4.516,1.369
	c1.826,1.557,1.956,2.055,3.117,2.514c0.438,0.156,0.756,0.09,1.488,0.713c0.934,0.996,0.563,1.457,0.108,1.826
	c-0.383-0.217-0.502-0.476-1.571-0.471c-0.606-0.021-1.469-0.186-2.317-0.645c-0.667-0.523-1.491-1.245-2.462-1.588
	c-1.157-0.269-1.572-0.537-2.368-0.502c-0.932-0.071-1.082-0.26-1.861-0.556C25.098,22.081,25.555,21.48,26.8,20.841L26.8,20.841z
	 M20.297,25.386c-0.438,1.318-0.583,2.608-1.459,4.232c-1.658,1.713-2.188,1.835-2.678,2.924c-0.166,0.41-0.097,0.709-0.762,1.396
	c-1.062,0.877-1.553,0.529-1.946,0.103c0.231-0.358,0.507-0.471,0.5-1.474c0.022-0.567,0.196-1.377,0.686-2.174
	c0.56-0.625,1.328-1.397,1.693-2.309c0.285-1.085,0.572-1.475,0.534-2.22c0.075-0.874,0.275-1.015,0.591-1.746
	C18.971,23.792,19.613,24.22,20.297,25.386L20.297,25.386z M16.526,23.283c-1.305,0.645-2.379,1.461-4.224,2.031
	c-2.464,0.113-2.932-0.151-4.098,0.295c-0.427,0.18-0.604,0.438-1.59,0.484c-1.412-0.084-1.498-0.656-1.457-1.218
	c0.435-0.101,0.714,0.002,1.465-0.711c0.444-0.386,1.177-0.844,2.122-1.084c0.867-0.071,1.995-0.11,2.938-0.513
	c1.021-0.579,1.516-0.664,2.052-1.217c0.711-0.567,0.959-0.535,1.733-0.844C16.789,21.277,16.922,22.005,16.526,23.283
	L16.526,23.283z M24.577,24.357c0.691,1.22,1.568,2.224,2.184,3.951c0.132,2.309-0.148,2.748,0.333,3.84
	c0.194,0.398,0.47,0.563,0.523,1.49c-0.082,1.324-0.692,1.405-1.292,1.369c-0.108-0.406,0-0.67-0.765-1.369
	c-0.414-0.416-0.905-1.101-1.166-1.986c-0.081-0.813-0.126-1.868-0.559-2.752c-0.623-0.953-0.716-1.418-1.308-1.918
	c-0.609-0.664-0.575-0.896-0.909-1.621C22.437,24.119,23.213,23.993,24.577,24.357L24.577,24.357z"/>
<path fill="#F5C402" stroke="#CBAA19" stroke-width="0.4793" d="M19.031,24.9l2.091,10.726V24.9H19.031z M23.301,24.865l9.581,6.184
	l-8.104-7.572L23.301,24.865z M26.286,22.013l11.437-1.98l-11.44,0.021L26.286,22.013z M26.254,18.04l6.634-8.956l-8.108,7.566
	L26.254,18.04z M23.203,15.222L21.09,4.5l0.022,10.726L23.203,15.222z M18.941,15.261l-9.58-6.183l8.104,7.569L18.941,15.261z
	 M15.938,18.157L4.521,20.236l11.44-0.119L15.938,18.157z M16.011,22.132L9.47,31.15l8.029-7.643L16.011,22.132z"/>
<path fill="#FAFF00" d="M32.882,31.046l-6.413-8.667c0.353-0.702,0.556-1.481,0.556-2.306c0-0.007-0.001-0.013-0.001-0.02
	l10.699-0.02l-11.079-1.877c-0.302-0.746-0.769-1.417-1.368-1.967l7.612-7.104l-9.327,6.011c-0.744-0.313-1.567-0.493-2.438-0.493
	c-0.004,0-0.008,0-0.012,0L21.09,4.5l-2.015,10.449c-0.795,0.273-1.512,0.696-2.103,1.238l-7.61-7.108l6.421,8.676
	c-0.357,0.705-0.562,1.488-0.562,2.318c0,0.017,0.002,0.034,0.003,0.051l-10.701,0.11l11.088,1.781
	c0.308,0.749,0.783,1.418,1.389,1.968L9.47,31.15l9.246-6.086c0.735,0.305,1.548,0.479,2.406,0.479v10.083l2.031-10.422
	c0.807-0.274,1.533-0.702,2.131-1.253L32.882,31.046z"/>
</svg>
