<svg xmlns="http://www.w3.org/2000/svg" xmlns:se="http://svg-edit.googlecode.com" xmlns:xlink="http://www.w3.org/1999/xlink" id="svgcontent" width="205.65" height="395.85" x="0" y="0" viewBox="0 0 205.65 395.85" overflow="hidden"><g mask="" style="pointer-events:all"><title style="pointer-events:inherit">Layer 1</title><g id="svg_1" type="text" text=" WILD CATS SOCCER " font-size="36.63848057007006" font-family="Gputeks" fill="000000" text-anchor="start" font-weight="normal" font-style="normal" lineHeight="1" shapeId="9" shapeVal="360" fill-opacity="1" display="null" elemBBoxWidth="154.0843963623047" stroke-opacity="1" stroke-dasharray="none" stroke="ull" transform="rotate(60.8367 99.1608 106.812)" style="pointer-events:inherit"><path id="svg_22" fill="#000000" stroke-width="0" d="M68.23112,142.73324C64.80826,139.99881 62.0154,138.47578 59.32621,142.18293C59.32621,142.18293 45.99981,160.55391 45.99981,160.55391C45.99981,160.55391 42.29266,157.86471 42.29266,157.86471C42.29266,157.86471 56.09715,138.83469 56.09715,138.83469C62.02315,132.57204 70.91086,143.54555 79.09562,148.72844C82.428,150.89431 84.19852,154.69328 82.04717,157.659C82.04717,157.659 68.2427,176.68902 68.2427,176.68902C68.2427,176.68902 64.53554,173.99983 64.53554,173.99983C64.53554,173.99983 78.34003,154.96981 78.34003,154.96981C80.55114,151.92171 78.0716,149.62011 74.57446,147.33473C73.77328,146.87927 72.95756,146.79048 72.35997,147.6143C72.35997,147.6143 57.12125,168.62146 57.12125,168.62146C57.12125,168.62146 53.41411,165.93228 53.41411,165.93228C53.41411,165.93228 68.65282,144.9251 68.65282,144.9251C69.25042,144.1013 68.91279,143.35346 68.23112,142.73324C68.23112,142.73324 68.23112,142.73324 68.23112,142.73324M35.57899,146.19271C35.57899,146.19271 59.69533,130.07692 59.69533,130.07692C59.69533,130.07692 62.23993,133.88477 62.23993,133.88477C62.23993,133.88477 38.12359,150.00056 38.12359,150.00056C38.12359,150.00056 35.57899,146.19271 35.57899,146.19271C35.57899,146.19271 35.57899,146.19271 35.57899,146.19271M55.83521,126.9012C55.83521,126.9012 50.90229,112.45413 50.90229,112.45413C50.90229,112.45413 52.34699,111.96083 52.34699,111.96083C52.34699,111.96083 58.75979,130.74203 58.75979,130.74203C58.75979,130.74203 31.31034,140.11458 31.31034,140.11458C31.31034,140.11458 29.83047,135.78047 29.83047,135.78047C29.83047,135.78047 55.83521,126.9012 55.83521,126.9012C55.83521,126.9012 55.83521,126.9012 55.83521,126.9012M48.12753,92.74882C56.01621,93.82531 52.22604,106.24381 52.35674,114.40751C52.35674,114.40751 23.40149,112.70151 23.40149,112.70151C24.39434,104.50206 22.11861,91.21642 30.1448,91.68931C30.1448,91.68931 48.12753,92.74882 48.12753,92.74882C48.12753,92.74882 48.12753,92.74882 48.12753,92.74882M25.64376,100.59962C25.68534,103.35472 24.07725,108.15357 26.71878,108.3092C26.71878,108.3092 51.10215,109.74584 51.10215,109.74584C51.11461,104.34322 53.54762,97.65592 47.04539,97.27282C47.04539,97.27282 29.87544,96.26118 29.87544,96.26118C27.22791,96.20715 25.60817,97.74291 25.64376,100.59962C25.64376,100.59962 25.64376,100.59962 25.64376,100.59962M56.36085,74.91451C61.19613,80.18198 65.62891,70.98854 70.20815,66.90299C70.20815,66.90299 71.33278,67.93534 71.33278,67.93534C65.66466,73.50808 59.48669,84.00071 53.86359,78.83896C53.86359,78.83896 40.59307,66.65723 40.59307,66.65723C35.31408,61.1206 44.96549,54.36904 49.96499,48.3207C49.96499,48.3207 51.0896,49.35305 51.0896,49.35305C47.55385,54.25832 38.81676,58.80985 44.28992,63.83395C44.28992,63.83395 56.36085,74.91451 56.36085,74.91451C56.36085,74.91451 56.36085,74.91451 56.36085,74.91451M59.1168,47.8202C56.83023,42.48488 63.40595,39.72688 69.20707,36.99607C72.79823,35.30557 76.89339,35.40256 78.45386,38.71748C78.45386,38.71748 88.46686,59.98824 88.46686,59.98824C88.46686,59.98824 84.32321,61.93883 84.32321,61.93883C84.32321,61.93883 77.17106,46.74542 77.17106,46.74542C77.17106,46.74542 66.12132,51.94698 66.12132,51.94698C66.12132,51.94698 73.27346,67.14039 73.27346,67.14039C73.27346,67.14039 69.1298,69.09097 69.1298,69.09097C69.1298,69.09097 59.1168,47.8202 59.1168,47.8202C59.1168,47.8202 59.1168,47.8202 59.1168,47.8202M68.47605,39.02748C64.51655,40.89138 61.28832,42.63601 63.60723,46.60628C63.60723,46.60628 65.47113,50.56577 65.47113,50.56577C65.47113,50.56577 76.52087,45.36421 76.52087,45.36421C74.61902,41.08513 73.0801,36.86016 68.47605,39.02748C68.47605,39.02748 68.47605,39.02748 68.47605,39.02748M104.40455,30.51422C104.40455,30.51422 104.48357,32.03878 104.48357,32.03878C104.48357,32.03878 96.86078,32.4339 96.86078,32.4339C96.86078,32.4339 98.28322,59.87592 98.28322,59.87592C98.28322,59.87592 93.70956,60.113 93.70956,60.113C93.70956,60.113 92.28712,32.67098 92.28712,32.67098C92.28712,32.67098 84.66433,33.0661 84.66433,33.0661C84.66433,33.0661 84.58531,31.54155 84.58531,31.54155C84.58531,31.54155 104.40455,30.51422 104.40455,30.51422C104.40455,30.51422 104.40455,30.51422 104.40455,30.51422M121.18896,59.12128C123.02792,54.15778 125.54402,49.10711 120.35036,47.61902C113.90745,45.69521 108.17965,43.26631 111.26552,36.58199C114.51452,29.73901 124.28071,35.73215 131.81419,37.92854C131.81419,37.92854 131.31144,39.36999 131.31144,39.36999C124.92666,37.8976 117.13373,31.19147 114.91952,40.01217C113.89621,44.18227 117.99928,45.39779 122.26103,46.77642C126.1384,48.02099 128.86496,51.01989 127.65835,54.47937C127.65835,54.47937 125.51329,60.62953 125.51329,60.62953C122.51906,67.66916 112.4981,61.47937 104.96462,59.28298C104.96462,59.28298 105.46737,57.84153 105.46737,57.84153C111.14595,59.1754 119.04835,64.94964 121.18896,59.12128C121.18896,59.12128 121.18896,59.12128 121.18896,59.12128M146.01822,84.22855C150.60947,81.59446 155.77658,79.32709 152.74101,74.85789C149.02509,69.25397 146.18186,63.72013 152.83284,60.56307C159.71074,57.38864 163.37262,68.24622 167.7515,74.75796C167.7515,74.75796 166.4422,75.54297 166.4422,75.54297C162.4818,70.32296 160.792,60.18163 153.44215,65.53767C149.98543,68.08486 152.35805,71.64623 154.74803,75.43452C156.92869,78.87365 157.10194,82.92304 153.95961,84.80708C153.95961,84.80708 148.37326,88.15646 148.37326,88.15646C141.56508,91.6451 137.83348,80.47333 133.4546,73.96158C133.4546,73.96158 134.7639,73.17656 134.7639,73.17656C138.27068,77.83791 140.64139,87.33366 146.01822,84.22855C146.01822,84.22855 146.01822,84.22855 146.01822,84.22855M151.38376,108.80392C145.61068,109.40861 144.92288,102.31116 144.03176,95.96166C143.48011,92.03102 144.78504,88.14812 148.41333,87.6389C148.41333,87.6389 166.25241,85.13524 166.25241,85.13524C172.02549,84.53056 172.71328,91.628 173.6044,97.9775C174.15606,101.90814 172.85113,105.79105 169.22285,106.30026C169.22285,106.30026 151.38376,108.80392 151.38376,108.80392C151.38376,108.80392 151.38376,108.80392 151.38376,108.80392M149.85613,92.06109C145.36498,92.28033 145.35612,95.87856 146.18007,100.28485C146.71934,103.39507 148.32837,104.60804 151.55352,104.15539C151.55352,104.15539 168.58632,101.7649 168.58632,101.7649C172.41619,101.22739 172.12269,97.6716 171.4561,93.65431C170.91682,90.54411 169.30779,89.33112 166.08264,89.78377C166.08264,89.78377 149.85613,92.06109 149.85613,92.06109C149.85613,92.06109 149.85613,92.06109 149.85613,92.06109M151.13215,113.11506C144.3774,110.76991 144.83356,120.96603 142.73888,126.73435C142.73888,126.73435 141.25923,126.35865 141.25923,126.35865C143.60746,118.76465 144.07187,106.59721 151.47012,108.47573C151.47012,108.47573 168.92999,112.90903 168.92999,112.90903C176.20301,115.28076 170.90662,125.80128 169.37258,133.49702C169.37258,133.49702 167.89294,133.12131 167.89294,133.12131C168.6802,127.12603 174.2147,118.97603 167.01374,117.14761C167.01374,117.14761 151.13215,113.11506 151.13215,113.11506C151.13215,113.11506 151.13215,113.11506 151.13215,113.11506M144.84522,131.79673C139.42741,127.13049 136.09954,136.77902 132.02919,141.37178C132.02919,141.37178 130.79161,140.47794 130.79161,140.47794C135.76955,134.28092 140.67881,123.13815 146.86667,127.6073C146.86667,127.6073 161.47002,138.15451 161.47002,138.15451C167.35994,143.03618 158.56378,150.8695 154.30547,157.46073C154.30547,157.46073 153.0679,156.5669 153.0679,156.5669C156.00611,151.282 164.15134,145.74049 158.12848,141.39051C158.12848,141.39051 144.84522,131.79673 144.84522,131.79673C144.84522,131.79673 144.84522,131.79673 144.84522,131.79673M140.96605,166.33471C142.25172,165.51156 143.53738,164.68841 142.71423,163.40274C142.71423,163.40274 138.59847,156.9744 138.59847,156.9744C138.59847,156.9744 129.59881,162.73647 129.59881,162.73647C129.59881,162.73647 128.77566,161.4508 128.77566,161.4508C128.77566,161.4508 137.77531,155.68874 137.77531,155.68874C137.77531,155.68874 129.54379,142.83207 129.54379,142.83207C129.54379,142.83207 116.68713,151.0636 116.68713,151.0636C116.68713,151.0636 115.86398,149.77793 115.86398,149.77793C115.86398,149.77793 132.57765,139.07695 132.57765,139.07695C132.57765,139.07695 148.21753,163.50462 148.21753,163.50462C148.21753,163.50462 131.50387,174.20559 131.50387,174.20559C131.50387,174.20559 130.68072,172.91993 130.68072,172.91993C130.68072,172.91993 140.96605,166.33471 140.96605,166.33471C140.96605,166.33471 140.96605,166.33471 140.96605,166.33471M101.75089,152.1077C103.70053,158.26985 102.05574,169.12095 109.26489,167.80824C109.26489,167.80824 116.77444,166.44084 116.77444,166.44084C116.77444,166.44084 113.76615,149.91986 113.76615,149.91986C113.76615,149.91986 118.27187,149.09941 118.27187,149.09941C118.27187,149.09941 123.46799,177.63566 123.46799,177.63566C115.34843,178.49345 103.9166,183.88537 102.18485,175.51115C101.33721,171.42417 104.39542,170.03972 107.49011,168.85554C103.60338,169.66672 100.0529,168.34772 99.39655,164.74315C99.39655,164.74315 97.24517,152.92814 97.24517,152.92814C97.24517,152.92814 101.75089,152.1077 101.75089,152.1077C101.75089,152.1077 101.75089,152.1077 101.75089,152.1077M111.98027,178.17574C114.46522,177.61982 118.85288,177.85534 118.41531,175.45229C118.41531,175.45229 117.04791,167.94275 117.04791,167.94275C111.45902,169.06387 104.49525,168.88364 106.89113,175.79211C107.59262,177.94021 109.51355,178.83179 111.98027,178.17574C111.98027,178.17574 111.98027,178.17574 111.98027,178.17574" stroke="#ull" style="pointer-events:inherit"/><rect id="svg_23" x="22.118609294268822" y="29.739002227783203" width="154.08439167313009" height="154.14637080726243" fill="#000000" opacity="0" stroke="null" style="pointer-events:inherit"/></g><g id="svg_5" display="null" stroke-opacity="1" stroke="null" transform="" clip-id="311"><path fill="#D6DBDD" d="M99.6472,65.04521C120.37019,65.04521 137.17317,81.84819 137.17317,102.57366S120.37019,140.10293 99.6472,140.10293C78.91926,140.10293 62.11958,123.29995 62.11958,102.57531C62.11876,81.84819 78.91926,65.04521 99.6472,65.04521z" id="svg_6" stroke="null"/><path fill="#FFFFFF" d="M116.90646,74.08079C121.95024,75.1237 123.99069,75.528 126.28032,76.06513C122.16971,71.92482 117.04837,68.70037 111.1762,66.81421C112.24469,68.26554 113.49883,70.05517 115.97245,72.32087C116.30579,72.64678 115.42624,73.7227 115.21337,74.17732L111.18197,82.79622C110.87752,83.44475 110.3049,83.31026 109.96331,83.34078C104.68273,83.89772 104.68273,83.89772 99.18267,84.66176C93.63971,85.61804 93.63971,85.61804 88.20814,86.73768C87.81127,86.82184 87.34839,87.17003 86.82446,86.689L79.01415,79.55114C78.68906,79.25576 77.76826,78.33991 77.98196,77.95294C78.01249,77.89766 78.04301,77.83578 78.06777,77.77472C80.02158,74.01725 79.85574,72.14677 80.12884,70.46854C74.14198,74.10636 69.16091,79.4183 65.95048,85.94065C69.16586,83.75828 71.37628,82.7987 77.32188,79.75906C77.72948,79.56517 78.1181,79.49999 78.50259,79.85065L86.38386,87.04709C86.92264,87.5438 86.60251,88.06031 86.53155,88.40354C85.49606,93.76169 85.49606,93.76169 84.55711,99.36323C83.77905,105.03573 83.77905,105.03573 83.16848,110.60015C83.1528,110.76021 83.1528,110.90295 83.17343,111.0589C83.21964,111.45411 83.02574,111.82623 82.66765,112.00858L72.49923,117.27926C72.13784,117.46325 71.71869,117.41127 71.42083,117.13404C71.38288,117.09444 71.3441,117.06473 71.30862,117.03256C68.13367,114.04655 65.41912,112.60759 63.05111,111.10593C64.90756,119.03175 69.3086,126.18529 75.56692,131.4238C74.19314,126.97655 73.26244,123.08707 72.78883,119.04248C72.78636,118.99297 72.78141,118.95172 72.77316,118.89974C72.7121,118.49297 72.9159,118.11673 73.27151,117.9187L83.01914,112.45743C83.34505,112.28168 83.72624,112.32046 84.02657,112.54324C84.10826,112.60017 84.19489,112.6637 84.28565,112.70825C89.2263,115.33864 89.2263,115.33864 94.34021,117.88323C99.48878,120.26774 99.48878,120.26774 104.48718,122.41133C104.81805,122.54912 105.43934,122.57304 105.53835,123.30985C105.89974,126.0211 106.62912,131.4403 106.96906,133.91557C107.03177,134.3768 106.80487,134.68951 106.4278,134.91311C100.49622,138.11528 99.53004,138.64334 95.90459,139.95111C103.85929,140.75888 111.63577,138.97338 118.26291,135.19859C115.46832,135.2844 114.15643,135.13753 108.53013,134.48983C108.4765,134.47911 108.41132,134.47003 108.35191,134.46508C107.90884,134.41558 107.56808,134.08636 107.51032,133.64907C107.14893,131.08881 106.43935,125.72572 106.08786,123.11348C105.99628,122.42535 106.51278,122.24053 106.79579,121.9699C110.77933,118.13405 110.77933,118.13405 114.70181,114.10183C118.4469,110.0036 118.4469,110.0036 121.88093,105.95653C122.10041,105.69828 122.30833,105.20818 122.98655,105.32286L132.19457,106.81133C132.68302,106.89219 132.90662,107.23707 132.99903,107.69335C133.81257,113.34852 134.0073,114.94425 133.98007,117.8494C134.85549,115.8799 135.56754,113.8147 136.10633,111.66286C137.01723,108.02504 137.35469,104.37648 137.19462,100.81621C135.72018,102.05963 134.20862,103.57037 133.26141,105.65372C133.06257,106.077 132.69375,106.31627 132.23005,106.24036L123.06824,104.75768C122.34051,104.63969 122.33556,104.03572 122.17301,103.67433C119.93949,98.80959 119.93949,98.80959 117.44937,93.85905C114.78845,89.00504 114.84043,89.14778 112.07142,84.51736C111.87835,84.19723 111.41465,83.85069 111.71663,83.20464L115.78103,74.57584C115.96668,74.1897 116.37097,73.976 116.79754,74.04201C116.82972,74.07666 116.86768,74.08079 116.90646,74.08079z" id="svg_7" stroke="null"/><path fill="#CDCECF" d="M116.79837,72.69546C121.1136,73.58738 122.83309,73.94382 124.64829,74.52386L124.63426,74.51396C124.44201,74.33822 124.23987,74.16247 124.03607,73.99498L123.99151,73.95455C123.79432,73.7887 123.593,73.61874 123.3958,73.45537L123.30999,73.38689C123.09216,73.21032 122.86857,73.03375 122.64414,72.858L122.4816,72.73589C122.3075,72.5981 122.11526,72.46773 121.94281,72.33242L121.74397,72.18308C121.57647,72.06179 121.40403,71.94133 121.24149,71.82086C121.14,71.75073 121.03686,71.68142 120.94198,71.61294C120.80501,71.51723 120.66805,71.42069 120.52118,71.32911C120.40072,71.25155 120.29181,71.17234 120.17299,71.09726C120.04675,71.0131 119.91474,70.93636 119.79098,70.85551C119.65071,70.76145 119.50549,70.67481 119.3578,70.58323C119.24477,70.51062 119.12595,70.43801 119.00796,70.36705C118.85202,70.27464 118.6969,70.17976 118.53601,70.09065C118.4337,70.03124 118.33221,69.97101 118.23073,69.9116C118.06323,69.81507 117.88501,69.72266 117.7167,69.62282C117.62924,69.57579 117.54425,69.52546 117.44772,69.47925C117.24392,69.36952 117.0492,69.26555 116.84623,69.16159C116.78187,69.12859 116.71091,69.09394 116.65068,69.06176C116.44193,68.95532 116.22741,68.84806 116.01948,68.74822L115.84374,68.66406C115.60859,68.55433 115.38416,68.45036 115.15066,68.3431L114.98812,68.2705C114.73812,68.16158 114.49802,68.05432 114.25461,67.95283L114.13085,67.90085C113.87755,67.79689 113.62919,67.69458 113.37177,67.59557L113.27523,67.55762C113.00873,67.45613 112.748,67.35382 112.47407,67.25811L112.40311,67.23171C112.12258,67.12939 111.8338,67.02791 111.54584,66.93715L111.51036,66.919C111.21828,66.82494 110.92702,66.7317 110.64071,66.64589L110.58873,66.63269C110.2983,66.5444 110.00374,66.45694 109.71331,66.37691L109.65886,66.36123C109.35687,66.27707 109.05406,66.19704 108.73888,66.12113C108.43855,66.04605 108.14234,65.97344 107.83458,65.90496L107.74629,65.88681C107.48804,65.83235 107.23226,65.77459 106.97236,65.72261C106.8816,65.70446 106.79496,65.68796 106.70338,65.67063C106.50041,65.62855 106.29743,65.5939 106.09116,65.55842C108.44845,67.18715 110.3049,68.72099 114.45264,72.51889C114.78845,72.8448 114.94687,73.22517 114.73317,73.67897L111.1729,81.50413C110.87587,82.1576 110.29665,82.01816 109.95506,82.05117C104.67531,82.60893 104.67531,82.60893 99.16947,83.37461C93.62651,84.32842 93.62651,84.32842 88.19494,85.44807C87.79807,85.53718 87.33519,85.87794 86.80796,85.39691L79.45887,78.66004C79.13296,78.36218 79.05705,77.89188 79.26745,77.50822C79.29798,77.44963 79.49105,77.16663 79.51745,77.10887C82.27738,71.80106 82.99686,70.5428 84.82444,68.0469C84.47047,68.19706 84.11981,68.35383 83.7741,68.51802L83.75264,68.52875C83.53647,68.62941 83.3203,68.7309 83.1066,68.83816L83.00511,68.88766C82.79389,68.99493 82.58267,69.09889 82.37392,69.2111L82.30296,69.2507C81.99025,69.41242 81.67754,69.57826 81.36978,69.74823L81.32605,69.77464C81.13298,69.88437 80.94238,69.99164 80.75096,70.10302L80.58594,70.19543C80.40277,70.30434 80.22208,70.41161 80.03891,70.52299C79.97703,70.5626 79.91102,70.60138 79.84996,70.64181C79.67669,70.74824 79.50095,70.85798 79.32603,70.96937C79.20887,71.04445 79.0917,71.11953 78.97537,71.19874C78.81777,71.3027 78.66266,71.40667 78.51002,71.50898C78.42586,71.56261 78.345,71.62367 78.26331,71.67812C78.1082,71.78456 77.95308,71.89017 77.80539,72.00156C77.70885,72.06674 77.61727,72.1311 77.52568,72.20123C77.39367,72.29859 77.25588,72.3976 77.12386,72.49909C76.9968,72.59232 76.86973,72.68803 76.74267,72.78539C76.63623,72.8679 76.52402,72.95206 76.41758,73.04117C76.29547,73.13523 76.17748,73.22847 76.05867,73.32335C75.93656,73.42566 75.81444,73.51972 75.6948,73.61874C75.57764,73.71527 75.46048,73.81428 75.34414,73.90917C75.23688,73.99993 75.13539,74.08739 75.02813,74.17897C74.89612,74.29614 74.75833,74.4133 74.62631,74.53459C74.54463,74.60307 74.46872,74.67485 74.38951,74.74334C74.25007,74.87287 74.1098,75.00076 73.97036,75.1303C73.88125,75.21446 73.79709,75.29285 73.70056,75.37948C73.56607,75.51232 73.42828,75.64433 73.29379,75.77635C73.21458,75.85556 73.13372,75.93889 73.05946,76.0082C72.91755,76.15342 72.77728,76.29286 72.63702,76.4356C72.57348,76.49418 72.50995,76.56514 72.45137,76.62867C72.30616,76.77883 72.16341,76.92653 72.02397,77.08164C71.96539,77.1394 71.90681,77.20871 71.84823,77.26976C71.69311,77.43561 71.538,77.61135 71.38783,77.77637C71.3342,77.8432 71.27562,77.90343 71.22199,77.96697C71.08007,78.13528 70.93485,78.30525 70.78964,78.47357L70.64772,78.64602C70.50251,78.81186 70.36307,78.99668 70.22032,79.1749C70.1799,79.22358 70.14442,79.26401 70.10316,79.31764C69.94557,79.52144 69.78798,79.72524 69.63286,79.92821L69.53055,80.066C69.38038,80.26402 69.23847,80.45462 69.09573,80.66089L68.99671,80.80363C68.8548,80.9967 68.71453,81.19967 68.57427,81.40595L68.49011,81.52558C68.33747,81.75166 68.1906,81.97856 68.04291,82.20793L67.9901,82.29374C67.84489,82.51982 67.70215,82.75167 67.56271,82.98104L67.48845,83.09821C67.35891,83.32181 67.22689,83.54046 67.09653,83.75993L67.03135,83.87544C66.89356,84.12215 66.75907,84.36637 66.62128,84.60812L66.59817,84.65681C70.09409,82.16173 70.9332,81.73433 77.30621,78.4777C77.71875,78.27885 78.1049,78.21284 78.49186,78.56846L85.90696,85.56441C86.44079,86.07101 86.12643,86.58174 86.05712,86.92251C85.01916,92.27487 85.01916,92.53478 84.08268,98.14209C83.30132,103.82037 83.30132,103.94661 82.68828,109.50938C82.67838,109.66944 82.67838,109.81218 82.69405,109.96565C82.74191,110.36499 82.54884,110.73464 82.18992,110.91616L71.94312,116.83371C71.58915,117.03833 70.96126,116.7677 70.66092,116.49377C70.62792,116.45664 70.58667,116.42776 70.54871,116.39724C66.1221,112.233 64.63941,110.8914 62.49995,108.31464C63.57092,115.24211 66.5726,121.70835 71.06769,126.97655L71.1436,127.06154L71.1436,127.06649C71.91754,124.49386 72.9192,121.63821 72.28388,117.60847C72.27893,117.55731 72.27398,117.51771 72.26325,117.4583C72.20714,117.05318 72.59906,116.85929 72.9654,116.67777L83.20726,111.42771C83.53812,111.26187 83.91436,111.28415 84.2147,111.51352C84.29638,111.57375 84.38301,111.63481 84.47377,111.68184C89.41442,114.31223 89.2164,114.04078 94.33444,116.59526C99.48053,118.9806 99.48053,118.9806 104.47976,121.12336C104.8098,121.26362 105.43026,121.28508 105.52845,122.02106C105.89066,124.73643 106.62252,130.15151 106.96163,132.62678C107.02764,133.0913 106.79992,133.40071 106.4212,133.62431C100.02839,137.0798 98.5358,138.10868 94.10424,139.69203C94.37157,139.73576 94.54154,139.78527 94.80887,139.82075L94.9186,139.84055C101.9228,140.73165 109.06644,139.60457 115.43862,136.6458L115.4675,136.63425C115.71337,136.51873 115.9576,136.39414 116.1911,136.27698L116.24308,136.25718C116.48153,136.13754 116.71091,136.01955 116.94771,135.89579L117.00547,135.86031C117.23402,135.73985 117.47824,135.61031 117.7101,135.48159L117.7233,135.47087C118.58634,135.00139 119.41968,134.49313 120.25138,133.96013L120.25138,133.95353C117.18204,134.02943 114.46831,133.82564 108.85439,133.17711C108.79499,133.16886 108.72898,133.15979 108.67452,133.14824C108.2331,133.10203 107.89234,132.77199 107.8321,132.3347C107.47814,129.78516 106.691,124.35772 106.34364,121.74713C106.25288,121.059 106.76691,120.87171 107.05239,120.6019C111.04336,116.771 110.77438,116.83701 114.69769,112.80809C118.437,108.70161 118.437,109.10013 121.87103,105.05801C122.0905,104.79398 122.30008,104.31048 122.97418,104.41774L132.18384,105.91115C132.67725,105.98954 132.90167,106.33772 132.98913,106.79318C133.88106,112.97146 134.0271,113.61668 133.96109,117.10681C134.84311,115.13072 135.56012,113.06222 136.09808,110.8947C136.82911,107.9582 137.1971,105.02335 137.22268,102.12563C137.22268,101.90451 137.21773,101.68256 137.21112,101.46391C137.20535,101.3748 137.20535,101.28322 137.2004,101.19163C137.19462,100.97298 137.18472,100.74938 137.17482,100.52991C137.16739,100.4441 137.16244,100.36241 137.15749,100.27578C137.14429,100.05218 137.13109,99.82363 137.10799,99.59425L137.08489,99.38056C137.06756,99.14706 137.03951,98.91025 137.02383,98.67428L137.00733,98.48781C136.98257,98.23863 136.94875,97.99688 136.91822,97.75513L136.89759,97.58681C136.86706,97.34011 136.82911,97.0934 136.79115,96.8467L136.77053,96.68911C136.72185,96.43746 136.68472,96.1957 136.64511,95.94653C135.97431,98.36074 135.39427,100.01918 133.25729,104.7816C133.05927,105.19662 132.68963,105.43838 132.22427,105.36659L123.06329,103.8806C122.33638,103.76344 122.32978,102.756 122.16724,102.40534C119.93537,97.53565 119.93537,97.53565 117.44524,92.58758C114.78267,87.73357 114.78267,87.73357 112.01614,83.09656C111.82472,82.7756 111.36019,82.43483 111.65723,81.78879L115.67047,73.20949C115.85199,72.82087 116.25876,72.608 116.68121,72.67483C116.73071,72.68556 116.76619,72.69298 116.79837,72.69546zM116.79837,73.45537C122.09545,74.54696 123.48491,74.83905 125.92635,75.71447C120.79759,70.69049 114.23646,67.13517 106.78506,65.68383C109.47239,67.49243 110.41794,68.353 114.93119,72.48671C115.267,72.81262 115.41964,73.19134 115.20594,73.64431L111.17042,82.26569C110.86844,82.91751 110.29088,82.7822 109.95011,82.81355C104.67283,83.37049 104.67283,83.37049 99.16947,84.1337C93.62651,85.0908 93.62651,85.0908 88.19494,86.20963C87.79807,86.29379 87.33519,86.6395 86.80796,86.156L79.00094,79.02308C78.67503,78.72522 78.59417,78.2574 78.80787,77.87291C78.8384,77.8201 78.86645,77.75327 78.89451,77.70046C81.86566,71.97845 82.30791,71.13191 84.48368,68.19624C76.58178,71.6839 69.94392,77.85393 65.97606,85.86226C70.0157,82.96207 70.57016,82.66999 77.30621,79.23596C77.71298,79.04454 78.10242,78.97605 78.48691,79.33249L86.36488,86.52646C86.90697,87.01492 86.58683,87.5438 86.51505,87.88456C85.47956,93.23693 85.47956,93.23693 84.54061,98.83847C83.75925,104.51345 83.75925,104.51345 83.15115,110.07291C83.13548,110.22968 83.13548,110.38067 83.1561,110.52836C83.20148,110.92771 83.00594,111.29405 82.6495,111.48217L72.48107,116.74872C72.11968,116.93272 71.69971,116.88569 71.40186,116.60268C71.3639,116.56803 71.32595,116.53503 71.28799,116.50862C65.79784,111.3419 65.62457,111.17688 62.31183,106.95489C63.41085,116.3172 68.02063,124.9196 75.09331,131.02693C73.48026,125.99552 73.43983,125.73974 72.27975,118.37168C72.2748,118.3197 72.26655,118.27019 72.25995,118.21904C72.20384,117.81722 72.39692,117.42943 72.76326,117.23883L83.00264,111.92937C83.33597,111.76187 83.71222,111.7891 84.01255,112.01435C84.09423,112.07211 84.18087,112.13482 84.27163,112.17937C89.21227,114.81389 89.21227,114.81389 94.32536,117.35517C99.47476,119.73968 99.47476,119.73968 104.47316,121.88574C104.80319,122.01941 105.42201,122.04664 105.5235,122.78344C105.88489,125.49222 106.61014,130.91389 106.95421,133.38751C107.01691,133.84874 106.78836,134.16227 106.41212,134.38422C99.91701,137.89829 99.37327,138.18789 94.77586,139.8191C103.49625,140.9668 112.06647,138.98741 119.19773,134.6367C115.67955,134.78852 114.74142,134.68456 108.50538,133.95518C108.4534,133.94527 108.38657,133.93785 108.33046,133.93455C107.89399,133.88422 107.54662,133.55501 107.48887,133.11853C107.1316,130.56158 106.41707,125.20178 106.06311,122.5912C105.97565,121.89894 106.49133,121.71412 106.77269,121.45092C110.75788,117.61507 110.75788,117.61507 114.68201,113.58533C118.4205,109.47802 118.4205,109.47802 121.85618,105.43508C122.07235,105.17435 122.28358,104.68672 122.96015,104.79893L132.16652,106.294C132.66322,106.3699 132.88517,106.71644 132.97346,107.17437C133.86621,113.35595 134.00812,114.39391 133.94541,117.87827C134.82414,115.90878 135.54362,113.83698 136.08818,111.67111C137.36954,106.51429 137.52713,101.33767 136.70369,96.4127C135.99989,98.99689 135.46276,100.19822 133.24409,105.14299C133.04771,105.56544 132.67642,105.80389 132.21107,105.72963L123.04926,104.25107C122.33061,104.13143 122.31988,103.52334 122.15981,103.16772C119.92959,98.29886 119.92959,98.29886 117.43452,93.34584C114.77525,88.49183 114.77525,88.49183 112.01119,83.85399C111.81399,83.53386 111.34947,83.19227 111.6498,82.54705L115.66387,73.96857C115.84786,73.57913 116.24886,73.36626 116.67791,73.43474C116.73071,73.44464 116.76619,73.45042 116.79837,73.45537z" id="svg_8" stroke="null"/><path d="M111.76944,84.37875C114.46171,88.88375 114.46171,88.88375 117.0492,93.60327C119.46259,98.41107 119.46259,98.41107 121.63918,103.14545C121.95849,103.88803 121.84463,104.7552 121.3471,105.36577C118.00465,109.30228 118.00465,109.30228 114.3726,113.28747C110.55903,117.2083 110.55903,117.2083 106.67945,120.93771C106.05898,121.50868 105.19346,121.67369 104.44015,121.36759C99.57624,119.27598 99.57624,119.27598 94.57289,116.9715C89.59429,114.48798 89.59429,114.48798 84.79143,111.92607C84.05628,111.5292 83.62888,110.70906 83.70231,109.86251C84.2972,104.45487 84.2972,104.45487 85.05876,98.94656C85.97214,93.49023 85.97214,93.49023 86.97958,88.29793C87.1578,87.48357 87.78817,86.85567 88.61491,86.67498C93.89384,85.58586 93.89384,85.58586 99.28664,84.65763C104.6324,83.91257 104.6324,83.91257 109.77024,83.37296C110.55325,83.28798 111.34452,83.69227 111.76944,84.37875zM116.74969,73.09563C121.96757,74.1732 122.85206,74.35554 125.59632,75.39433C121.03191,71.0329 115.32063,67.75976 108.75538,66.11948C108.2364,65.98994 107.72237,65.87526 107.19513,65.76799C110.20259,67.74986 110.7521,68.25399 115.11766,72.24661C115.53598,72.69051 116.19853,73.03787 116.74969,73.09563zM78.42833,77.5965C81.29552,72.08407 81.46797,71.74578 83.94902,68.43964C76.44646,71.89677 70.12709,77.7904 66.22523,85.38124C70.62379,82.21619 70.67743,82.18071 77.03888,78.93232C77.64202,78.67819 78.18163,78.15591 78.42833,77.5965zM133.45613,107.16529C134.2342,112.93928 134.33898,113.72147 134.26967,117.1654C135.00813,115.4162 135.62777,113.58368 136.0956,111.68597C137.35056,106.66446 137.53126,101.62975 136.78373,96.81865C136.0956,99.64211 135.74411,100.48948 133.68964,105.34101C133.42066,105.86165 133.33567,106.56462 133.45613,107.16529zM71.08915,116.70747C65.86879,111.80065 65.86879,111.80065 62.51562,107.52833C62.46447,107.45242 62.41414,107.39137 62.37123,107.36331C63.53874,116.43271 68.00331,124.78181 74.80866,130.78187C74.80288,130.72577 74.78308,130.67461 74.75503,130.60531C73.10649,125.46581 73.10649,125.46581 71.99757,118.43026C71.94889,117.79577 71.5776,117.10021 71.08915,116.70747zM106.48638,134.70436C100.28335,138.0567 100.17773,138.11776 95.16778,139.8785C103.60351,140.90657 111.86845,139.00308 118.81324,134.88093C114.86601,135.06987 114.42293,135.01954 108.35769,134.32069C107.7496,134.21508 107.01444,134.36525 106.48638,134.70436z" id="svg_9" stroke="null"/><path fill="#D3D3D3" d="M120.87102,102.67267L121.07977,103.12565C121.39,103.84017 121.27779,104.68507 120.79759,105.27913C117.55498,109.09188 117.55498,109.09188 114.02771,112.96321C110.3247,116.7677 110.3247,116.7677 106.56146,120.38573C105.95997,120.93854 105.12085,121.09283 104.38735,120.80075C99.66535,118.7735 99.66535,118.7735 94.81299,116.5243C89.98456,114.11668 89.98456,114.11668 85.31867,111.63976C85.07444,111.49454 84.86569,111.31715 84.69985,111.1084C89.19495,113.49869 89.27911,113.54242 94.10011,115.93849C99.03086,118.21904 99.03086,118.21904 103.82051,120.27681C104.56309,120.57467 105.41706,120.41956 106.0268,119.85272C109.8478,116.18601 109.8478,116.18601 113.60609,112.32376C117.18369,108.38148 117.18369,108.38148 120.47745,104.52087C120.8933,104.01839 121.03191,103.31872 120.87102,102.67267z" id="svg_10" stroke="null"/></g><g id="svg_20" fill-opacity="1" display="null" style="pointer-events:inherit" clip-id="300"><path fill="#010101" d="M124.06056,106.57966C124.06056,106.57966 123.6175,106.1366 123.64109,105.50548C123.66467,104.87628 123.89736,102.75215 124.38823,101.93425C124.8791,101.11762 125.53125,97.85047 124.55142,95.53956C123.89863,93.36954 123.75838,93.34595 123.24393,92.59945C122.73075,91.85294 121.28428,89.98573 121.07454,89.56562S120.25791,86.6714 120.86481,85.03815C121.4717,83.40425 121.26133,83.45079 121.26133,83.45079S119.44192,85.01456 119.18374,86.71794C118.9281,88.42196 118.97336,90.68569 119.44128,92.59945C120.09344,94.55974 120.56072,95.39995 120.56072,95.39995S121.23838,97.54703 120.23369,97.52408C119.23091,97.50049 118.46018,96.75399 118.2275,95.377C117.99418,94.00002 118.34416,92.45984 118.34416,91.92307C118.34416,91.38566 118.83439,87.9789 118.55453,86.29847C118.27531,84.61868 117.71495,82.28482 116.70963,80.9072C115.70749,79.53021 113.81605,77.36019 113.81605,77.36019S114.72703,80.5808 114.81946,80.9072C114.91254,81.23423 115.21662,83.9882 115.02984,84.31459C114.84241,84.64099 113.58209,87.39496 113.62927,88.77258C113.67644,90.14956 113.98052,92.296 113.98052,92.296S114.09718,94.02297 113.11672,94.02297C112.1369,94.02297 111.71743,93.46261 111.71743,92.20293S112.81455,89.02885 112.72084,87.18522S111.78691,82.93825 110.45646,81.30435S108.00594,76.94008 107.95941,75.91308C107.91351,74.88608 108.35593,72.34248 108.35593,72.34248S106.27898,73.41602 106.30193,76.40331C106.32551,79.3906 106.90818,79.97391 107.32893,80.97732C107.74776,81.98137 108.54144,83.52155 108.47195,84.22152C108.40246,84.92149 108.28517,86.9519 106.86228,86.97485C105.43876,86.99844 105.34441,84.61804 105.08878,83.80141C104.83187,82.98415 104.62277,79.81071 105.01993,77.96708C105.41581,76.12345 104.62277,74.72352 104.62277,74.72352L102.56813,71.15292C102.56813,71.15292 102.87222,73.97702 102.61531,75.30746C102.3584,76.63727 101.7515,79.08779 101.21474,80.2085C100.67797,81.32858 100.35093,84.82969 100.81822,86.06579C101.28486,87.30252 101.49523,89.02949 101.23769,89.49613C100.98205,89.96278 100.04749,90.59326 99.46418,90.54608C98.88024,90.49955 97.92336,90.77941 98.41423,87.93236C98.90446,85.08532 99.72109,84.05832 99.09125,82.84454C98.46077,81.63139 96.22062,78.03721 95.91717,76.45049C95.61373,74.86377 95.87064,71.38625 95.87064,71.38625S93.7701,73.72011 93.69997,76.33383C93.63049,78.94754 94.12008,80.8613 94.3534,81.63139C94.58673,82.40148 94.86659,84.08191 94.32982,84.75893C93.79305,85.43594 93.04654,87.34906 91.83276,87.25598C90.61897,87.16291 90.61897,85.50607 91.03908,84.71239C91.45919,83.91935 92.53273,80.60503 92.4626,78.87806C92.39248,77.15109 92.50978,74.37417 90.87588,73.72074C90.99254,74.70057 91.41265,77.71145 90.57244,78.66832S86.79147,84.68944 86.76852,85.85669C86.74493,87.0233 86.88518,90.4307 87.51502,91.55077C88.14486,92.67085 87.93513,94.32769 87.63168,94.53806C87.32824,94.7478 85.46166,95.21572 85.78805,93.02083C86.11445,90.82722 86.23175,88.98359 85.62486,88.02671C85.01733,87.06984 83.54791,85.50607 83.59381,83.49924C83.64034,81.49241 84.97079,78.38846 85.53115,78.06143C84.01455,78.29475 80.60715,81.37575 80.60715,85.03942C80.60715,88.70309 80.95714,92.64726 81.0738,93.06737C81.19046,93.48747 81.35366,96.66155 81.14392,97.03512C80.93419,97.40805 79.41759,98.62184 78.85724,97.29139C78.90377,95.58801 80.00026,93.79092 80.07038,91.76051S80.5842,88.30657 79.46349,86.39346C78.34342,84.4797 77.61986,83.96589 77.61986,83.96589S78.62328,88.00313 78.27266,88.98359C77.92267,89.96405 74.91243,94.8651 74.77218,96.00876C74.63194,97.15178 74.11875,99.46205 74.98192,101.44657C75.84508,103.42981 76.70889,105.13382 76.61581,105.97404S76.28942,107.16424 76.28942,107.16424L75.35549,108.47174C75.35549,108.47174 75.16934,108.61198 75.35549,109.03145C75.54227,109.45156 78.52956,116.12611 85.13399,118.6697C87.3276,119.83695 88.86778,120.86268 88.86778,120.86268S89.63787,121.00356 89.05457,121.86609S87.56092,124.78326 87.4908,127.37466C87.42067,129.9648 87.4908,129.26483 88.05052,129.75442C88.61087,130.24465 90.01081,130.73425 90.01081,130.73425L90.54757,130.92103L91.50445,127.60735L92.62452,128.14412L91.94751,131.01538C91.94751,131.01538 91.78431,131.41127 91.94751,131.5292C92.11071,131.64586 93.72101,132.67223 95.98475,132.46249C96.125,132.06597 96.14795,130.08337 96.14795,130.08337S96.31114,129.07868 96.61459,129.10227C96.91867,129.12586 97.61864,129.21957 97.61864,129.21957L97.31519,132.41723C97.31519,132.41723 97.17495,132.5103 98.36514,132.60401C99.55534,132.69709 102.44956,132.51094 103.49951,132.27698C103.43002,129.82646 103.35926,129.21957 103.35926,129.21957L104.45639,128.72997L104.75983,131.64586C104.75983,131.64586 104.99379,132.06597 105.20289,132.06597C105.41326,132.06597 109.09988,130.64245 109.09988,130.64245L108.47131,127.74887L109.61434,127.04827L110.50109,130.17581C110.50109,130.17581 113.27864,129.17239 113.46543,127.74823C113.62863,125.6477 113.30159,122.73053 111.64539,120.39667C111.76205,119.85926 111.6677,119.85926 111.85449,119.76747C112.04127,119.67439 117.96995,116.7789 121.02737,113.81584C123.73416,110.82855 123.99043,108.93902 123.99043,108.93902S124.5731,108.63493 124.4099,108.35507C124.75988,108.02868 125.20358,107.84126 124.99384,107.63216C124.78411,107.42051 124.06056,106.57966 124.06056,106.57966zM86.84438,113.61949C83.66903,112.07676 81.08718,107.56586 81.08718,107.56586S87.52713,106.4375 91.85953,108.54441C96.19257,110.6526 98.52643,114.7861 98.52643,114.7861C94.0149,116.09232 90.01973,115.16349 86.84438,113.61949zM103.68247,123.99595C103.68247,123.99595 101.56089,122.02228 100.20304,122.00124C98.84518,121.98084 97.29543,124.2076 97.29543,124.2076C96.59547,121.25856 98.951,117.97037 98.951,117.97037S100.03282,116.14523 101.47547,117.46038C103.89475,120.51588 103.68247,123.99595 103.68247,123.99595zM112.57358,113.32497C108.30047,115.757 102.06834,114.62991 102.06834,114.62991S103.81889,110.86169 108.86401,107.62642C113.90912,104.39242 119.07281,106.76581 119.07281,106.76581S116.84733,110.88974 112.57358,113.32497z" id="svg_21" style="pointer-events:inherit"/></g></g><defs><mask id="canvasMaskImageDef" maskUnits="objectBoundingBox" x="0" y="0"><image xmlns:xlink="http://www.w3.org/1999/xlink" id="canvasMaskImage" preserveAspectRatio="none" x="-103.65" y="-36.45" width="400" height="440.0580551523948" xlink:href="http://allinonedesigner.designnbuy.in/media/catalog/product/w/h/white-tees-1_-front_1_3.png"/></mask></defs></svg>