<?xml version="1.0" encoding="utf-8"?>
<!-- Generator: Adobe Illustrator 16.0.3, SVG Export Plug-In . SVG Version: 6.00 Build 0)  -->
<!DOCTYPE svg PUBLIC "-//W3C//DTD SVG 1.1 Tiny//EN" "http://www.w3.org/Graphics/SVG/1.1/DTD/svg11-tiny.dtd">
<svg version="1.1" baseProfile="tiny" id="Layer_1" xmlns="http://www.w3.org/2000/svg" xmlns:xlink="http://www.w3.org/1999/xlink"
	 x="0px" y="0px" width="147.653px" height="72.336px" viewBox="0 0 147.653 72.336" xml:space="preserve">
<path fill="#32553F" d="M41.656,55.191l0.207,9.68c0,0,5.006-1.007,6.427-1.42c1.42-0.413,11.821-1.729,12.932-1.833
	c1.11-0.103,12.647-0.31,14.067-0.207c1.42,0.104,11.409,1.317,13.138,1.523c1.73,0.206,6.324,1.031,6.324,1.031l2.221,0.31
	l1.651-0.516l-0.207-8.569l-1.032-0.698c0,0-18.868-2.864-19.771-2.761c-0.904,0.103-17.138,0.024-23.231,1.032
	c-6.092,1.007-11.099,1.626-11.099,1.626L41.656,55.191z"/>
<path fill-rule="evenodd" fill="#32553F" d="M25.578,72.336c0-0.116,0-0.202,0-0.289c3.241-2.315,6.51-4.601,9.78-6.887
	c-2.633-1.881-5.266-3.762-7.899-5.613c0.868-0.087,1.765-0.145,2.662-0.203c-0.029-0.116-0.058-0.231-0.058-0.318
	c0.173-0.029,0.347-0.058,0.521-0.086c-3.588-1.158-3.588-1.158-5.353-1.91v-0.231c1.765-0.318,1.765-0.318,2.459-0.607
	c-2.575-0.319-4.832-1.65-7.321-2.229c0-0.116,0-0.202,0-0.289c0.087,0,0.203,0.029,0.319,0.058
	c0.202-0.435,1.302-0.492,1.765-0.608c-0.752-0.203-1.504-0.376-2.257-0.55c-1.417-0.724-2.807-1.621-4.456-1.794
	c0-0.116,0-0.203,0-0.29c1.129-0.231,1.129-0.231,2.546-0.81c-0.666-0.203-1.331-0.405-1.996-0.579
	c-1.273-0.752-3.067-2.083-4.601-2.373c0.029-0.116,0.058-0.231,0.087-0.347c0.724-0.29,1.447-0.579,2.17-0.868v-0.203
	c-1.447-0.723-4.861-2.199-5.44-3.646c1.591,0.029,3.154-0.116,4.716-0.231c-2.344-0.29-2.922-0.579-4.485-2.344
	c-0.723-1.245-1.823-2.604-2.257-3.936c0.868,0.116,1.736,0.232,2.633,0.348c-0.029-0.145-0.058-0.29-0.058-0.434
	C7.61,34.49,7.61,34.49,6.771,33.998c-0.115-0.318-0.115-0.318-1.389-2.025c-0.607-1.563-1.215-3.096-1.794-4.629
	c0.203,0.058,0.405,0.116,0.607,0.203c0.029-0.203,0.029-0.203-0.839-1.939c-0.347-1.417-0.897-2.72-1.563-4.022
	c0-0.202,0-0.405,0.029-0.579c0.926,0.752,1.708,1.302,2.807,1.765c0-0.347,0.029-0.694,0.058-1.042
	c-2.083-1.1-3.183-2.257-4.08-4.514c-0.29-2.17-0.29-2.17-0.608-3.617c1.187,0.463,2.459,1.534,3.472,2.373
	c0.174-0.811,0.174-0.811,0.145-1.389c-1.881-1.881-2.054-4.427-2.633-6.916C2.257,8.217,3.125,8.825,4.08,9.78
	C3.993,9.172,3.906,8.565,3.819,7.986c-2.373-1.88-2.488-3.848-2.488-6.684C1.215,0.868,1.1,0.434,0.984,0
	c1.852,0.347,3.067,2.98,3.993,4.398c1.187-0.579,1.187-0.579,3.096-1.794C7.986,4.051,7.32,5.382,6.973,6.8
	c-0.058,1.1-0.116,2.199-0.145,3.327c-0.29,1.736-0.434,2.026-0.434,2.865c0.492,1.881,0.29,3.472-0.289,5.266
	c0.781-0.203,1.302-1.013,1.389-1.765c0.087,0,0.173,0,0.289,0l0.029,0.231l0.26,0.058c0,2.257,1.389,3.935,0.637,6.221
	c-0.666,1.1-0.666,1.1-1.273,1.852c0.145,0.434,0.145,0.434,0.521,0.983H8.16C9.346,23.9,9.346,23.9,9.896,23.234
	c0.174,0,0.347,0,0.521,0c0.868,1.447,0.752,3.183,0.752,4.832c-0.434,1.881-0.434,1.881-0.405,2.228
	c0.694-0.694,0.984-1.128,1.071-2.083c0.086,0,0.173,0,0.289,0c-0.173,0.579,0.231,1.678,0.347,2.286
	c1.042,2.633,1.013,3.964-0.173,6.453c0.087,0.144,0.173,0.289,0.289,0.434c0.55-1.245,1.1-2.489,1.649-3.733
	c0.116-0.029,0.231-0.058,0.347-0.086c0,2.43,1.128,4.716,1.649,7.06c0,0.637-0.347,2.257,0.463,2.431
	c0.261-1.013,1.187-2.865,2.228-3.125c0.231,1.649,0.926,3.154,1.504,4.716c0.608-0.896,1.215-1.794,1.823-2.691
	c0.145,0,0.289,0,0.434,0c0.261,1.852,1.158,3.762,1.678,5.555c1.071-0.723,0.029-1.938,0.174-2.777
	c2.401,1.91,3.935,3.675,3.211,6.944c0.29,0.173,0.29,0.173,0.666,0.203c0-1.649,0.145-2.518,0.724-4.051
	c0.116-0.029,0.231-0.058,0.347-0.087c0.058,0.231,0.116,0.463,0.203,0.694c1.476,1.967,2.894,3.732,2.894,6.279
	c0.115,0.058,0.26,0.116,0.405,0.173c-0.116-0.636-0.116-0.636-0.145-3.559c-0.55-0.55-0.55-0.55-0.608-0.839
	c2.228,1.013,3.675,1.823,5.093,3.849c0.174,0.666,0.376,1.331,0.579,2.025c1.331,0,1.331,0,1.476-0.087
	c-0.29-0.752-1.215-2.778-0.955-3.559c1.331,0.144,1.331,0.144,2.199,0.434c1.042,0.608,1.042,0.608,1.563,0.723
	c10.127-1.736,20.081-3.038,30.381-3.038c9.086,0.492,17.766,1.678,26.678,3.356c-0.029,1.592-0.029,3.183-0.029,4.774
	c1.679-0.463,1.679-0.463,3.154-1.07c2.691-2.083,3.211-4.977,6.944-5.237c-0.521,2.314-0.955,3.53-0.897,3.674
	c0.463-0.087,0.926-0.173,1.389-0.231c0.955-3.183,2.633-4.456,5.73-5.614c-0.088,0.318-0.666,0.868-0.811,1.36
	c0.145,0.782,0.145,0.782,0.058,2.894c0.087-0.058,0.174-0.087,0.288-0.116c0.146-2.343,1.043-4.108,2.692-5.758
	c0.288-0.579,0.288-0.579,0.376-1.128c0.115,0.029,0.231,0.058,0.348,0.087c0.637,1.504,0.838,2.43,0.896,4.021
	c0.202-0.058,0.405-0.086,0.607-0.116c-0.607-3.443,0.521-4.6,2.922-7.002c0.145-0.058,0.29-0.116,0.436-0.174
	c-0.232,1.273-0.927,1.621-0.059,2.807c0.26-0.521,0.838-2.691,1.793-5.411c0.782,0.174,1.592,1.765,2.055,2.402h0.232
	c1.099-3.009,1.099-3.009,1.476-4.427c0.925,0.231,1.909,2.17,2.257,3.096c0.145-0.087,0.289-0.174,0.463-0.261
	c-0.029-0.868-0.059-1.735-0.059-2.575c1.158-3.762,1.158-3.762,1.794-6.597c0.231,0.202,1.101,2.401,1.853,3.646
	c0.086-0.145,0.173-0.261,0.26-0.376c-1.967-2.865-0.347-5.44,0.087-8.507c0.521,0.26,0.694,1.389,1.331,1.852
	c0.145-2.025-1.128-5.642,0.55-7.32c0.955,0.694,1.62,1.938,2.199,2.951h0.202c0.174-0.347,0.348-0.694,0.55-1.013
	c-1.534-2.083-2.315-3.587-1.013-6.192c0.174-0.868,0.348-1.736,0.521-2.575c0.086,0,0.174,0,0.289,0
	c0.058,0.637,0.55,2.055,1.359,2.055c-0.607-2.257-0.666-3.53-0.145-5.816c-0.781-2.865-0.463-5.729-1.592-8.536
	c0-0.376,0-0.723,0.029-1.07c0.232,0,1.041,0.666,2.98,1.621c1.041-1.649,1.968-3.617,3.877-4.312
	c-0.231,1.621-0.086,3.356-0.52,4.919c-0.377,0.666-2.952,3.906-2.402,4.659c0.926-0.724,1.881-1.736,3.066-1.91
	c-0.838,2.286-0.752,5.469-2.863,6.974c0.115,0.376,0.23,0.781,0.346,1.186c0.725-0.55,1.91-1.186,3.386-2.343
	c0,3.732-1.36,6.365-4.571,8.217c-0.029,0.318-0.029,0.636-0.029,0.955c1.215-0.26,1.881-1.273,3.01-1.678
	c-0.926,2.17-1.736,4.456-2.72,6.597c0.231-0.087,0.462-0.174,0.694-0.231c-1.1,2.546-1.707,5.179-3.82,7.06
	c-0.549,0.203-1.099,0.405-1.648,0.637c0,0.115,0,0.231,0,0.347c2.256-0.174,2.547-0.318,2.951-0.261
	c-1.36,1.679-2.229,3.82-3.703,5.295c-1.014,0.578-1.014,0.578-2.112,0.983c0.954,0.174,0.954,0.174,3.56,0.261
	c-0.319,0.955-3.907,2.807-4.631,3.241c-0.434,0.145-0.868,0.29-1.273,0.434c1.563,0.579,1.563,0.579,2.461,1.042
	c0.027,0.116,0.057,0.231,0.115,0.347c-2.286,0.434-4.168,2.314-6.481,2.951c0.81,0.26,1.62,0.521,2.431,0.81
	c0,0.087,0,0.174,0,0.29c-2.286,0.347-4.313,1.794-6.598,2.344c1.766,0.608,1.766,0.608,1.852,0.55
	c0.029,0.087,0.059,0.173,0.116,0.289c-2.373,0.868-4.716,1.708-7.205,2.229c0.897,0.405,1.563,0.492,2.575,0.521
	c0,0.087,0,0.174,0,0.289c-2.893,1.071-2.893,1.071-5.758,1.939c0.26,0.029,0.55,0.058,0.84,0.086c0,0.087,0,0.174,0,0.29
	c-2.229,0.637-4.341,1.36-6.714,1.36c-2.083,1.446-4.167,2.922-6.221,4.397c0.058,0.203,0.058,0.203,9.692,7.118
	c-3.616,0-7.175-0.666-10.792-0.666c-3.559,1.417-8.42,0.434-11.082-2.228c0-1.678,0.029-3.356,0.058-5.035
	c-6.076-1.042-12.24-1.707-18.374-2.141c-2.98,0-5.96,0-8.912,0c-6.105,0.492-12.182,1.1-18.2,2.141c0,1.128,0,2.257,0.029,3.414
	c0.666,2.373-0.724,2.633-2.662,3.704c-2.922,0.607-5.324,1.128-8.275,0.145C32.667,71.526,29.137,72.134,25.578,72.336z
	 M38.31,70.745c-0.695-0.231-1.36-0.463-2.025-0.666c-2.025,0-3.935,0.174-5.932,0.434c2.459-1.794,4.919-3.588,7.378-5.353
	c-1.939-1.389-3.877-2.777-5.787-4.167l0.26-0.174c2.807-0.029,5.613-0.058,8.42-0.058c0,1.244,0,2.517,0.029,3.791
	c-0.145,0.058-0.29,0.116-0.405,0.203c1.591,2.662,2.344,3.472,5.295,4.456C43.142,70.514,41,70.688,38.31,70.745z M98.464,70.745
	c-1.36-0.405-2.69-0.868-3.906-1.534c2.228-1.1,4.109-1.938,4.89-4.514l-0.261-0.029c0-1.302,0-2.604,0-3.906
	c2.894,0,5.787,0.029,8.681,0.058c0.087,0.029,0.174,0.087,0.289,0.145c-1.938,1.36-3.877,2.72-5.787,4.08v0.26
	c2.459,1.736,4.919,3.472,7.378,5.208c-2.894-0.376-5.15-0.666-7.957,0.145C100.663,70.688,99.564,70.716,98.464,70.745z
	 M45.254,67.852c-1.273-0.55-2.142-1.157-3.009-2.199c1.1-0.289,2.199-0.549,3.298-0.81c0.029,0.983,0.087,1.996,0.145,3.009
	C45.543,67.852,45.398,67.852,45.254,67.852z M94.125,67.852c0.029-1.013,0.058-2.025,0.087-3.009
	c1.099,0.26,2.198,0.521,3.327,0.781C96.642,66.81,95.571,67.476,94.125,67.852z M42.071,63.656c-0.086-0.579-0.086-7.234,0-8.247
	c3.27-0.579,6.54-1.128,9.838-1.678c4.774-0.579,4.774-0.579,13.599-1.303c3.154,0,6.337,0,9.52,0
	c7.639,0.608,15.219,1.476,22.742,3.067c0,2.633,0.029,5.266,0.058,7.899c-0.318,0-0.637,0-0.955,0.029
	c-7.292-1.245-14.612-2.228-21.991-2.749c-3.385,0-6.741,0-10.098,0C57.146,61.197,49.594,62.209,42.071,63.656z M114.234,60.184
	v-0.145h0.145v0.145H114.234z M30.931,59.46c-0.116-0.087-0.203-0.174-0.29-0.231c1.678-0.347,3.183-1.273,4.716-2.025
	c-0.579-0.173-0.579-0.173-0.955-0.434c-2.199,0.145-6.019,0.868-8.362,0.231c2.402-0.839,4.774-2.691,7.437-1.707
	c-0.174-0.549-0.318-1.1-0.463-1.62c0-0.839,0.231-1.678-0.029-2.488c1.736,0,3.415,2.083,4.225,3.472
	c0.174,0.607,0.347,1.215,0.55,1.852c0.955,0.116,1.91,0.231,2.864,0.347c-0.173,0.521-6.423,2.228-7.233,2.517
	C32.551,59.403,31.741,59.432,30.931,59.46z M99.188,59.46c0-0.116,0-0.202,0-0.289c0.666-0.174,1.332-0.347,2.025-0.521
	c3.299-1.302,3.907-5.179,7.667-5.787c-2.054,1.302-3.153,3.096-4.282,5.18c-0.926,0.781-0.926,0.781-1.939,1.331
	C101.502,59.403,100.345,59.432,99.188,59.46z M114.523,59.46c-2.518-0.868-5.382-2.257-8.102-2.257
	c1.36-0.492,2.141-0.579,3.617-0.637c0.26-2.112,1.1-3.211,2.748-4.571c1.736-0.868,1.736-0.868,1.968-0.839
	c-0.491,1.013-0.116,2.72-0.347,3.906c0.521-0.116,1.041-0.231,1.563-0.318c-0.231-0.058-0.434-0.116-0.637-0.174
	c0-2.836,1.649-3.964,3.01-6.25c-0.117,2.373-0.955,4.398-1.91,6.539c1.417,0.463,2.662,1.158,4.021,1.765
	c1.013,0.289,1.013,0.289,1.157,0.434c-2.69,0.376-5.7-0.26-8.448-0.318c-0.231,0.145-0.463,0.29-0.666,0.463
	c1.447,0.579,3.473,1.736,4.34,2.025C116.056,59.287,115.275,59.374,114.523,59.46z M30.266,59.316l0.231-0.145
	C30.497,59.316,30.497,59.316,30.266,59.316z M105.843,59.316c0.058-0.116,0.145-0.231,0.231-0.347
	c0.348-0.029,0.348-0.029,0.752,0.231C106.479,59.229,106.161,59.258,105.843,59.316z M105.698,58.303l-0.087-0.173l0.145-0.029
	L105.698,58.303z M35.561,57.146v-0.145c0.087,0,0.174,0,0.29,0v0.145C35.763,57.146,35.676,57.146,35.561,57.146z M112.064,57.146
	v-0.145c0.087,0,0.174,0,0.289,0v0.145C112.267,57.146,112.179,57.146,112.064,57.146z M35.995,57.001v-0.145
	c0.145,0,0.29,0,0.434,0v0.145C36.284,57.001,36.139,57.001,35.995,57.001z M111.486,57.001v-0.145c0.145,0,0.288,0,0.434,0v0.145
	C111.774,57.001,111.63,57.001,111.486,57.001z M36.573,56.856v-0.145c0.087,0,0.174,0,0.29,0v0.145
	C36.776,56.856,36.689,56.856,36.573,56.856z M110.906,56.856v-0.145c0.145,0,0.289,0,0.435,0v0.145
	C111.195,56.856,111.05,56.856,110.906,56.856z M34.259,56.712c-0.203-0.29-0.376-0.55-0.55-0.811
	c0.289,0.174,0.289,0.174,0.636,0.695L34.259,56.712z M37.152,56.712c0-0.087,0-0.087,0.55-0.087
	C37.5,56.654,37.326,56.683,37.152,56.712z M110.183,56.712v-0.145c0.174,0,0.376,0,0.578,0v0.145
	C110.587,56.712,110.385,56.712,110.183,56.712z M113.308,56.712c-0.029-0.174-0.029-0.174,0.348-0.55
	C113.713,56.307,113.713,56.307,113.308,56.712z M113.799,55.988c0.087-0.202,0.087-0.202,0.231-0.173L113.799,55.988z
	 M33.535,55.699v-0.145h0.145v0.145H33.535z M114.089,55.554c0.058-0.145,0.115-0.289,0.203-0.434c0,0.087,0,0.203,0,0.319
	L114.089,55.554z M24.131,55.265V55.12c0.087,0,0.174,0,0.29,0v0.145C24.334,55.265,24.247,55.265,24.131,55.265z M31.22,54.831
	c-0.868-2.055-1.823-4.051-1.823-6.366c1.678,2.055,2.865,3.704,2.98,6.366C31.973,54.831,31.597,54.831,31.22,54.831z
	 M23.408,54.252c-0.781-0.145-1.563-0.26-2.315-0.376c0.145-0.144,2.025-0.723,3.906-1.591c0.868-0.145,0.868-0.145,3.501-0.116
	c0.087,0.492,0.174,0.984,0.26,1.505C26.793,53.616,25.318,53.818,23.408,54.252z M40.479,54.252
	c-0.521-0.521-0.926-0.868-1.591-1.244c0.897,0.058,1.881,0.289,2.546,0.955l-0.087,0.203
	C41.058,54.194,40.769,54.223,40.479,54.252z M123.637,54.252c-0.839-0.231-1.648-0.463-2.459-0.666
	c-0.781,0.029-1.563,0.058-2.315,0.087c0.088-0.55,0.174-1.071,0.29-1.592c2.025,0,3.298,0.058,5.063,0.926
	c0.752,0.231,1.533,0.463,2.314,0.724C126.386,53.876,126.386,53.876,123.637,54.252z M26.157,51.938
	c-1.186-1.707-1.389-2.777-0.666-4.803c0-0.666-0.145-1.013-0.463-1.592c0.81-0.145,2.315,2.604,2.633,3.328
	c0,1.013,0.116,2.112-0.203,3.067C27.025,51.938,26.591,51.938,26.157,51.938z M120.31,51.938c-0.724-2.894-0.145-4.167,1.996-6.308
	l0.262,0.058c-0.117,0.203-0.232,0.405-0.319,0.607c0,2.025,0.927,3.848-0.781,5.555C121.062,51.88,120.686,51.909,120.31,51.938z
	 M20.226,50.925c-1.071-0.405-2.315-0.318-3.473-0.376c2.228-0.897,3.559-1.418,5.874-1.591c-1.215-0.724-1.331-2.778-1.331-3.993
	c1.042-2.373,1.042-2.373,0.955-2.488c0.086-0.029,0.173-0.058,0.289-0.087c0.231,2.459,1.794,4.485,1.504,7.118
	c0.145,0.376,0.29,0.752,0.463,1.128C23.061,50.722,21.643,50.809,20.226,50.925z M32.581,50.925
	c-0.087-0.116-0.145-0.203-0.203-0.289C32.609,50.838,32.609,50.838,32.581,50.925z M114.958,50.925l0.26-0.086L114.958,50.925z
	 M125.953,50.925c-0.926-0.058-1.853-0.116-2.749-0.145c0.491-1.736,0.463-3.559,0.925-5.353c0.869-2.17,0.869-2.17,1.101-3.038
	l0.231,0.087c-0.058,0.868,0.607,1.91,0.983,2.662c0,1.128-0.29,3.414-1.505,3.819c0.955,0.086,1.91,0.173,2.895,0.29
	c1.1,0.434,2.199,0.868,3.326,1.302C129.424,50.549,127.688,50.722,125.953,50.925z M23.697,49.478
	c-0.116-0.087-0.202-0.174-0.289-0.231c0.289,0,0.289,0,0.55,0.144L23.697,49.478z M123.783,49.478v-0.145h0.145v0.145H123.783z
	 M124.072,49.333c0.318-0.203,0.289-0.231,0.723-0.231C124.535,49.16,124.302,49.247,124.072,49.333z M22.829,49.189v-0.145
	c0.145,0,0.29,0,0.435,0v0.145C23.119,49.189,22.974,49.189,22.829,49.189z M18.489,48.465c-2.257-0.26-4.34-1.36-6.51-1.967
	c0.955-0.348,1.91-0.694,2.894-1.013c0.983,0,1.967,0,2.98,0.029c-0.492-1.91,0.087-2.98,0.984-4.571
	c0.666,1.938,1.678,3.877,1.563,5.96c0.203,0.463,0.405,0.955,0.637,1.447C20.167,48.378,19.329,48.408,18.489,48.465z
	 M126.675,48.465c0.348-1.186,0.551-2.257,0.637-3.501c0.521-1.389,1.041-2.778,1.592-4.167c0.665,1.938,1.533,2.604,0.867,4.658
	c2.142,0,3.762,0.058,5.729,1.042c-1.591,0.579-3.183,1.157-4.774,1.736C129.367,48.292,128.007,48.378,126.675,48.465z
	 M15.162,48.321v-0.145h0.145v0.145H15.162z M132.462,48.321c0.261-0.376,0.261-0.376,1.013-0.839l0.058,0.145
	C133.157,47.858,132.81,48.089,132.462,48.321z M14.873,48.176l-0.116-0.173l0.145-0.029L14.873,48.176z M14.438,47.887
	l-0.116-0.173l0.145-0.029L14.438,47.887z M14.004,47.597v-0.145h0.145v0.145H14.004z M20.226,46.874
	c-0.087-0.145-0.174-0.26-0.261-0.376c0.203,0.058,0.203,0.058,0.347,0.26L20.226,46.874z M127.4,46.729v-0.145h0.144v0.145H127.4z
	 M19.646,46.44v-0.145h0.145v0.145H19.646z M127.833,46.44c0.23-0.492,1.301-0.81,1.852-0.81
	C129.048,45.891,128.441,46.15,127.833,46.44z M18.779,46.006c-0.116-0.086-0.203-0.173-0.29-0.231
	c0.174,0.029,0.376,0.058,0.579,0.087C19.068,46.006,19.068,46.006,18.779,46.006z M17.911,45.717
	c0.145-0.058,0.289-0.116,0.434-0.145v0.145C18.2,45.717,18.055,45.717,17.911,45.717z M24.624,45.138L24.624,45.138z
	 M122.914,45.138l0.203-0.261L122.914,45.138z M16.464,44.125c-0.434-0.231-0.434-0.231-3.067-0.81
	c-1.389-0.579-2.546-1.128-4.022-1.302c1.823-0.202,3.356-0.462,5.122,0.029l0.115-0.116c-1.534-1.794-1.62-2.691-0.694-4.629
	c0.318-2.922,0.318-2.922,0.405-3.009c0.55,2.43,1.765,5.179,1.765,7.667c-0.116,0.261-0.231,0.521-0.318,0.781
	c0.636,0.492,0.81,0.666,0.983,1.389C16.637,44.125,16.551,44.125,16.464,44.125z M131.016,43.98
	c0.144-0.752,0.376-0.897,0.925-1.36c-1.243-0.521,1.216-7.349,1.447-8.333c0.29,1.273,0.29,1.273,0.434,3.154
	c0.897,1.938,0.521,2.373-0.578,4.283l0.145,0.173c1.505-0.405,3.356-0.144,4.861,0.116c-1.477,0.087-2.72,0.724-4.051,1.302
	C133.128,43.518,132.058,43.75,131.016,43.98z M11.4,43.836c-0.116-0.086-0.203-0.173-0.29-0.231c0.087,0,0.203,0,0.318,0.029
	L11.4,43.836z M15.596,42.678L15.596,42.678z M15.307,42.534v-0.145h0.145v0.145H15.307z M15.017,42.389
	c-0.116-0.086-0.203-0.173-0.29-0.231c0.087,0,0.203,0,0.318,0.029L15.017,42.389z M132.318,42.389v-0.145h0.145v0.145H132.318z
	 M22.396,42.245V42.1h0.145v0.145H22.396z M125.229,42.245l0.087-0.116L125.229,42.245z M132.607,42.245V42.1h0.145v0.145H132.607z
	 M132.896,42.1c0-0.087,0-0.087,0.261-0.087L132.896,42.1z M8.709,41.955L8.709,41.955z M138.828,41.955v-0.145h0.145v0.145H138.828
	z M134.488,41.521v-0.145c0.174,0,0.377,0,0.579,0v0.145C134.893,41.521,134.691,41.521,134.488,41.521z M12.558,39.785
	c-0.984-0.637-1.968-1.245-2.951-1.852c-1.476-1.331-2.141-2.112-2.546-2.401c1.186,0,2.431,0.607,3.53,0.521
	c0-2.402,0.926-4.427,1.447-6.684c0.289,1.417,0.289,1.417,1.012,3.443c0,1.273,0.029,3.588-1.331,4.138
	C12.818,37.875,12.616,38.338,12.558,39.785z M134.921,39.785c0.088-1.331,0-2.112,1.07-2.951c-1.734-0.347-1.417-3.791-1.156-5.035
	c0.578-1.447,0.578-1.447,0.723-2.141c0.781,2.286,1.447,4.021,1.447,6.395c0.926,0.116,2.344-0.579,3.501-0.492
	c-1.071,0.868-2.025,1.881-3.154,2.72C135.761,39.148,135.761,39.148,134.921,39.785z M11.545,36.892l-0.116-0.174l0.145-0.029
	L11.545,36.892z M136.137,36.747l-0.028-0.173c0.52-0.348,0.52-0.348,0.81-0.348C136.658,36.4,136.398,36.574,136.137,36.747z
	 M11.111,36.602l-0.116-0.173L11.14,36.4L11.111,36.602z M10.677,36.313l0.087-0.116L10.677,36.313z M140.998,35.445L140.998,35.445
	z M9.085,33.854c-0.868-2.025-3.067-4.051-4.427-5.758c1.447,0.868,2.807,1.273,4.022,2.488c1.476-6.597,1.476-6.597,1.447-6.944
	c-0.579,0.55-0.579,0.55-0.723,0.521c0.231-0.29,0.463-0.579,0.723-0.868c1.708,2.228,0.781,6.105-0.434,8.275l-0.231,0.029
	C9.317,32.349,9.201,33.101,9.085,33.854z M138.539,33.854c-0.115-0.723-0.231-1.447-0.348-2.141c-0.375,0-0.491-0.637-0.752-0.897
	c-0.781-2.518-1.215-5.208,0-7.667c0.232,0.289,0.463,0.607,0.724,0.926c-0.202-0.174-0.405-0.347-0.579-0.492
	c0.434,2.315,0.869,4.659,1.332,7.002c1.417-1.187,2.344-1.881,4.107-2.488C143.139,28.703,139.494,32.378,138.539,33.854z
	 M138.307,31.683c0-0.318,0-0.318,0.435-1.013C138.596,30.989,138.453,31.336,138.307,31.683z M9.23,31.539L9.23,31.539z
	 M9.085,31.25c-0.26-0.463-0.26-0.463-0.174-0.55C9.172,31.105,9.172,31.105,9.085,31.25z M136.947,30.381l0.088-0.116
	L136.947,30.381z M7.494,28.356c-1.128-1.591-2.141-3.501-3.733-4.658c-1.823-2.257-1.823-2.257-1.793-2.402
	c1.36,1.128,2.807,1.736,4.253,2.662c0-2.17,0.984-4.601,1.534-6.713c0.926,3.038,1.592,4.803-0.405,7.407
	c-0.347-0.029-0.347-0.029-0.637-0.29c0,0.203,0.723,1.071,1.128,1.794C7.841,26.909,7.841,26.909,7.494,28.356z M140.13,28.356
	c-0.318-1.707-0.434-2.025,0.492-3.53c-1.273-1.649-1.273-1.649-1.592-2.257c-0.406-2.025,0.404-3.443,0.868-5.353
	c0.376,1.331,0.753,2.662,1.157,4.022c0.434,2.314,0.434,2.314,0.607,2.546c1.331-0.636,2.488-1.331,3.675-2.199
	c0.116,0.637-2.142,2.749-2.923,3.386C141.23,26.88,141.23,26.88,140.13,28.356z M4.311,28.066v-0.145h0.145v0.145H4.311z
	 M143.313,28.066v-0.145h0.145v0.145H143.313z M143.168,27.777l0.087-0.116L143.168,27.777z M140.767,24.739l-0.029-0.174
	c0.26-0.231,0.521-0.463,0.781-0.666C141.259,24.161,140.998,24.45,140.767,24.739z M6.481,24.305
	c-0.116-0.174-0.116-0.174-0.029-0.26C6.568,24.247,6.568,24.247,6.481,24.305z M137.381,23.582l0.087-0.116L137.381,23.582z
	 M142.878,22.858l0.088-0.116L142.878,22.858z M4.745,20.833c-0.636-0.955-1.447-1.794-2.257-2.604
	c-0.607-1.245-1.013-2.546-1.823-3.675c0-0.116,0-0.231,0-0.347c1.1,0.897,2.402,1.534,3.27,2.662
	c0.029-0.579,0.087-1.158,0.145-1.708c0.26-0.492,1.417-1.938,1.273-2.517c-0.55,0.26-0.637,0.694-0.897,1.244
	c-1.591-0.376-3.154-5.816-3.038-5.874c1.649,0.955,2.633,2.083,3.704,3.646c0-1.765-0.058-3.443,0.26-5.179
	c0.637-1.215,1.678-2.17,2.257-3.443c0.087,0,0.174,0,0.29,0c-0.231,0.868-0.81,2.17-1.1,3.328c-0.116,1.476-0.231,2.98-0.347,4.485
	l-0.261,0.058l0.261,0.086c-0.087,0.579-0.087,0.579-0.29,0.811c-0.029,0,0.347,3.559,0.347,4.398
	c-0.579,1.736-0.579,1.736-1.215,3.183l-0.26,0.029C5.063,19.965,4.948,20.283,4.745,20.833z M142.878,20.688
	c-0.781-2.17-1.822-3.732-1.822-6.105c0.231-1.013,0.811-2.865,0.348-3.819l-0.261-0.058c-0.231-3.472-0.231-3.472-0.521-5.353
	c-0.29-0.752-0.781-1.447-0.666-2.286c1.215,1.794,1.968,2.69,2.257,3.27c0.261,1.823,0.29,3.617,0.261,5.469
	c0.983-1.765,2.083-2.836,3.877-3.704c-0.867,1.968-1.678,3.877-2.749,5.787c-0.116,0-0.202,0-0.289,0
	c-0.435-0.607-1.042-1.187-0.926-1.967c-0.146,0.029-0.29,0.086-0.435,0.145c-0.115,0.81,1.187,2.083,1.563,2.807
	c0.087,0.607,0.203,1.215,0.318,1.823c1.07-0.926,2.084-1.765,3.299-2.488c-0.578,0.984-0.578,0.984-1.707,3.559
	C144.789,18.692,144.789,18.692,142.878,20.688z M142.589,19.386c0-0.145,0-0.29,0-0.434h0.145c0,0.145,0,0.29,0,0.434H142.589z
	 M4.89,19.242c0-0.145,0-0.29,0-0.434h0.145c0,0.145,0,0.289,0,0.434H4.89z M142.734,18.808c0-0.087,0-0.174,0-0.29h0.145
	c0,0.087,0,0.174,0,0.29H142.734z M4.745,18.663c0-0.086,0-0.173,0-0.289H4.89c0,0.087,0,0.173,0,0.289H4.745z M142.878,18.374
	c0.029-0.116,0.059-0.231,0.088-0.347l0.145,0.029C143.023,18.142,142.937,18.258,142.878,18.374z M4.601,18.229
	c-0.058-0.116-0.087-0.232-0.116-0.318l0.145-0.029C4.601,17.997,4.601,18.113,4.601,18.229z M140.853,18.229v-0.145h0.145v0.145
	H140.853z M140.564,17.939l-0.115-0.173l0.145-0.029L140.564,17.939z M143.168,17.795V17.65h0.145v0.145H143.168z M4.311,17.65
	v-0.145h0.145v0.145H4.311z M143.313,17.505v-0.145h0.145v0.145H143.313z M4.167,17.361v-0.145h0.145v0.145H4.167z M143.458,17.216
	c0.058-0.145,0.116-0.29,0.202-0.434C143.63,17.101,143.63,17.101,143.458,17.216z M4.022,17.071l0.087-0.115L4.022,17.071z
	 M7.639,16.348c0-0.087,0-0.174,0-0.29c0.087,0,0.174,0,0.29,0c0,0.087,0,0.174,0,0.29C7.841,16.348,7.754,16.348,7.639,16.348z
	 M147.509,13.889v-0.145h0.144v0.145H147.509z M5.179,12.586c0-0.289,0.029-0.579,0.058-0.868c0.058,0.116,0.116,0.232,0.173,0.348
	l0.232,0.029c-0.029,0.145-0.058,0.318-0.087,0.492l-0.174-0.145L5.179,12.586z M5.469,12.297L5.469,12.297z M5.758,12.008
	l-0.115-0.173l0.145-0.029L5.758,12.008z M142.07,12.008L142.07,12.008z M141.722,11.863c0-0.145,0.028-0.29,0.057-0.405
	l0.174,0.174L141.722,11.863z M5.903,11.429v-0.145h0.145v0.145H5.903z M6.192,11.429c-0.058-0.145-0.116-0.29-0.145-0.405
	l0.231,0.115C6.25,11.227,6.221,11.313,6.192,11.429z M141.577,11.285V11.14h0.146v0.145H141.577z M3.732,6.076
	C2.951,4.225,2.402,2.228,1.447,0.492c1.678,1.158,2.459,2.344,3.328,4.225l0.26-0.058c0,0.086-0.955,1.042-1.013,1.417
	C3.906,6.076,3.819,6.076,3.732,6.076z M143.748,6.076c-0.059-0.145-0.088-0.289-0.117-0.405h-0.23
	c-0.781-0.926-0.781-0.926-1.244-1.273c0.231,0.087,0.492,0.174,0.752,0.29c0.84-1.534,1.592-3.241,3.154-4.225
	c0.029,0.145-0.232,0.405-0.811,1.852C144.933,3.791,144.557,4.832,143.748,6.076z M143.515,5.643
	c-0.145-0.405-0.145-0.405-0.029-0.348C143.486,5.411,143.486,5.526,143.515,5.643z M4.311,5.353L4.311,5.353z M4.456,5.063
	l0.173-0.26L4.456,5.063z M143.168,5.063c-0.116-0.173-0.116-0.173-0.029-0.26L143.168,5.063z M141.867,4.34V4.196h0.145V4.34
	H141.867z M141.577,4.196V4.051h0.146v0.145H141.577z M146.207,3.183c0-0.087,0-0.174,0-0.29h0.145c0,0.087,0,0.174,0,0.29H146.207z
	 M146.062,2.604c0-0.173,0-0.376,0-0.579h0.145c0,0.173,0,0.376,0,0.579H146.062z"/>
</svg>
