<?xml version="1.0" encoding="utf-8"?>
<!-- Generator: Adobe Illustrator 16.0.0, SVG Export Plug-In . SVG Version: 6.00 Build 0)  -->
<!DOCTYPE svg PUBLIC "-//W3C//DTD SVG 1.1//EN" "http://www.w3.org/Graphics/SVG/1.1/DTD/svg11.dtd">
<svg version="1.1" id="Layer_1" xmlns="http://www.w3.org/2000/svg" xmlns:xlink="http://www.w3.org/1999/xlink" x="0px" y="0px"
	 width="278.135px" height="306.252px" viewBox="10.933 -4.002 278.135 306.252"
	 enable-background="new 10.933 -4.002 278.135 306.252" xml:space="preserve">
<path fill="none" stroke="#000000" stroke-width="10" d="M150,0.998L150,0.998c25.178,0,45.589,20.411,45.589,45.589
	c0,25.178-20.411,45.589-45.589,45.589c-25.178,0-45.589-20.411-45.589-45.589C104.411,21.409,124.822,0.998,150,0.998z M150,297.25
	c-25.178,0-45.589-20.411-45.589-45.589c0-25.179,20.411-45.59,45.589-45.59c25.178,0,45.589,20.412,45.589,45.59
	S175.178,297.25,150,297.25z M15.933,103.535h268.135v91.178H15.933V103.535z"/>
</svg>
