<?xml version="1.0" encoding="utf-8"?>
<!-- Generator: Adobe Illustrator 16.0.0, SVG Export Plug-In . SVG Version: 6.00 Build 0)  -->
<!DOCTYPE svg PUBLIC "-//W3C//DTD SVG 1.1//EN" "http://www.w3.org/Graphics/SVG/1.1/DTD/svg11.dtd">
<svg version="1.1" id="Layer_1" xmlns="http://www.w3.org/2000/svg" xmlns:xlink="http://www.w3.org/1999/xlink" x="0px" y="0px"
	 width="100px" height="100px" viewBox="0 0 100 100" enable-background="new 0 0 100 100" xml:space="preserve">
<path d="M71.202,4.821c-0.065,2.438-1.435,4.836-2.365,7.063c-0.971,2.315-1.889,4.668-3.459,6.319
	c-0.157,1.016-0.599,1.743-1.091,2.417c1.959-0.061,3.074-0.927,4.73,0c-0.233,2.395-3.041,2.526-4.551,3.903
	c-1.298,1.185-1.563,2.713-2.729,4.275c0.316,0.791,0.341,1.881,1.091,2.231c5.237-1.955,10.071-4.781,16.741-4.276
	c0.066,1.242-0.316,2.029-0.543,2.973c8.018,0.387,15.551,2.81,19.654,7.807c-1.598,0.902-4.871,1.054-6.552,2.417
	c-2.614,0.203-5.687,1.486-8.372,2.229c-1.609-0.095-2.816,0.222-3.822,0.744c0.641,1.837,3.346,2.518,2.912,4.833
	c-3.974-1.229-8.701,0.153-11.83,1.486c-0.644,0.518-0.836,1.499-1.453,2.046c-0.502,8.639,8.295,12.073,13.283,16.913
	c-0.897,1.857-3.357,2.945-5.459,2.975c3.848,7.866,8.207,16.419,12.738,24.163c-1.609,0.423-3.586-0.432-5.096-1.301
	c-5.737-3.302-10.541-8.379-14.924-12.825c-0.852,0.926-1.176,2.393-2.186,3.16c-1.635-0.635-2.754-2.446-3.638-3.905
	c-2.746-4.521-5.595-9.305-8.554-13.755c0.237,5.536,0.487,10.493-0.912,14.128c-2.145,1.078-2.862-1.858-4.186-2.788
	c-1.818,6.754-3.102,14.057-8.189,17.473c-2.865-3.924-0.819-13.691-1.274-19.146c-1.676,0.394-3.385,1.535-4.732,0.373
	c0.295-1.5,0.563-3.642,1.274-5.021c0.201-0.389,0.735-0.487,0.91-0.931c0.788-1.983,1.223-5.116,1.638-7.806
	c0.48-3.104,1.009-6.62,0-9.85c-0.338-0.027-0.608-0.123-0.728-0.371c-4.45,1.102-9.004,3.551-13.285,5.389
	c-1.536,0.658-5.478,3.119-7.28,0.371c0.726-0.561,1.368-1.204,1.639-2.23c-1.958-1.283-4.282-0.535-6.553-0.744
	C9.752,55.17,5.75,54.296,1.314,54.26c0.405-1.671,2.456-2.285,3.822-2.972c4.39-2.208,9.903-3.698,14.377-5.949
	c-0.69-1.215-2.039-1.758-2.729-2.974c1.957-2.858,6.141-2.291,9.1-4.089c4.37-0.654,10.603-0.577,15.833,0.744
	c-3.49-9.199-9.839-15.478-16.38-21.561c-0.664-0.188-1.246-0.461-1.819-0.744c1.801-4.258,5.91,0.595,8.008,2.417
	c2.049,1.779,3.993,3.13,5.46,4.646c3.795,3.923,6.304,7.941,8.917,11.338c0.718-3.381,0.795-9.531,2.367-13.382
	c0.388-0.953,1.137-1.764,1.455-2.789c0.621-1.997,0.979-3.64,2.366-5.018c0.441-0.109,0.777-0.139,1.638-0.186
	c0.598,1.375,0.994,2.951,1.64,4.275c3.026-4.76,10.101-9.281,14.196-13.383C69.923,4.275,70.693,4.59,71.202,4.821z"/>
</svg>
