<?xml version="1.0" encoding="utf-8"?>
<!-- Generator: Adobe Illustrator 16.0.0, SVG Export Plug-In . SVG Version: 6.00 Build 0)  -->
<!DOCTYPE svg PUBLIC "-//W3C//DTD SVG 1.1//EN" "http://www.w3.org/Graphics/SVG/1.1/DTD/svg11.dtd">
<svg version="1.1" id="Layer_1" xmlns="http://www.w3.org/2000/svg" xmlns:xlink="http://www.w3.org/1999/xlink" x="0px" y="0px"
	 width="28.991px" height="21.264px" viewBox="1.505 2.716 28.991 21.264" enable-background="new 1.505 2.716 28.991 21.264"
	 xml:space="preserve">
<path fill="#000000" d="M23.346,23.979l3.575-2.063l3.574-2.062l-3.576-2.064l-3.573-2.062v2.293c-0.876,0-1.894,0-2.235,0
	c-1.626,0.046-3.633-1.233-5.768-2.883c-0.796-0.578-1.599-1.215-2.45-1.789c0.851-0.575,1.653-1.211,2.45-1.789
	c2.135-1.647,4.142-2.93,5.766-2.882l2.237-0.002v2.297l3.573-2.063l3.576-2.063L26.919,4.78l-3.573-2.064V5.01H21.11
	c-3.321,0.048-5.803,2.021-7.975,3.622c-2.156,1.691-4.094,2.966-5.218,2.883H1.505v3.664h6.414c1.123-0.083,3.062,1.19,5.218,2.882
	c2.171,1.604,4.651,3.574,7.974,3.622h2.235V23.979L23.346,23.979z"/>
</svg>
