<?xml version="1.0" encoding="utf-8"?>
<!-- Generator: Adobe Illustrator 16.0.3, SVG Export Plug-In . SVG Version: 6.00 Build 0)  -->
<!DOCTYPE svg PUBLIC "-//W3C//DTD SVG 1.1 Tiny//EN" "http://www.w3.org/Graphics/SVG/1.1/DTD/svg11-tiny.dtd">
<svg version="1.1" baseProfile="tiny" id="Layer_1" xmlns="http://www.w3.org/2000/svg" xmlns:xlink="http://www.w3.org/1999/xlink"
	 x="0px" y="0px" width="46.125px" height="28.241px" viewBox="0 0 46.125 28.241" xml:space="preserve">
<path fill-rule="evenodd" d="M23.545,0l0.218,0.004c0.187,0.393,0.422,0.772,0.609,1.083c0.158,0.061,0.215,0.25,0.447,0.342
	c0.029,0.125,0.15,0.197,0.146,0.354c-0.002,0.158-0.154,0.384-0.281,0.587c-0.188,0.296-0.478,0.586-0.705,0.827
	c-0.016,0.116-0.018,0.301-0.029,0.449c-0.082,0.008-0.178-0.012-0.257,0.128c-0.272-0.099-0.243-0.41-0.355-0.586L23.14,3.106
	c-0.124-0.181-0.02-0.529-0.373-0.487c-0.022-0.307-0.23-0.568-0.362-0.645l0.004-0.227c0.284-0.091,0.193-0.387,0.267-0.602
	c0.103-0.189,0.648-0.387,0.486-0.763C23.488,0.27,23.47,0.187,23.545,0z M31.699,27.741h-0.021l-0.854-0.015
	c-0.152-0.003,0.027,0.126-0.125,0.124l-1.342-0.025c-0.152-0.002,0.027,0.127-0.125,0.125L28.5,27.936
	c-0.152-0.003,0.029,0.127-0.123,0.123l-1.953-0.035c-0.152-0.003,0.027,0.127-0.125,0.124s0.033-0.126-0.119-0.128
	c-0.152-0.004,0.027,0.126-0.125,0.123l-1.464-0.026c-0.153-0.003,0.028,0.126-0.124,0.124l-5.981-0.108
	c-0.152-0.003,0.033-0.126-0.12-0.128l-1.343-0.025c-0.152-0.002,0.033-0.125-0.12-0.128l-1.488-0.026
	c-0.152-0.003-0.025-0.07-0.077-0.114c-0.175-0.017-0.419-0.021-0.659-0.053c0,0,0.085-0.097-0.068-0.1l-0.877-0.017
	c-0.152-0.002,0.033-0.125-0.12-0.128c-0.153-0.003,0.028,0.126-0.124,0.124c-0.153-0.003,0.032-0.125-0.12-0.129l-0.755-0.014
	l-0.036-0.002c-0.094-0.013,0.006-0.072-0.042-0.111c-0.175-0.018-0.419-0.021-0.659-0.053l-0.072-0.087
	c-0.174-0.017-0.359-0.021-0.542-0.054c-0.023-0.053,0.066-0.094-0.086-0.098c-0.153-0.002,0.028,0.127-0.125,0.125
	c-0.152-0.004-0.047-0.07-0.1-0.115c-0.357-0.02-0.674-0.09-1.016-0.183l-0.234-0.106H9.703c-0.117-0.064-0.237-0.129-0.326-0.131
	l-1.121-0.02c-0.153-0.004,0.032-0.126-0.12-0.129c-0.153-0.004-0.062,0.03-0.081,0.121c-0.25-0.205-0.464-0.398-0.462-0.572
	l0.014-0.063c0.068-0.19,0.364-0.549,0.364-0.539c-0.057-0.104-0.109-0.156-0.222-0.255l-0.002-0.214
	c0.004-0.145,0.01-0.309-0.027-0.463c-0.047-0.191-0.225-0.35-0.302-0.549l-0.017-0.047c-0.043-0.158,0.045-0.432-0.026-0.669
	c-0.028-0.098-0.088-0.193-0.137-0.296l0.638,0.012l-0.638-0.012l-0.062-0.176c-0.068-0.318-0.016-0.596-0.182-0.838l-0.165-0.168
	c-0.004-0.314-0.109-0.582-0.223-0.846l1.885,0.033l-1.885-0.034c-0.13-0.304-0.271-0.606-0.275-0.973l-0.029-0.041h0l-0.172-0.173
	c0.074-0.456-0.191-0.797-0.347-1.139c-0.066-0.15-0.012-0.363-0.03-0.547l-0.201-0.083c-0.017-0.244-0.064-0.505-0.15-0.807
	c-0.029-0.11-0.189-0.221-0.202-0.347c-0.042-0.307-0.152-0.633-0.257-0.963h0c-0.117-0.367-0.228-0.738-0.231-1.092
	c-0.224-0.158-0.218-0.371-0.236-0.639l-0.203-0.085l0.005-0.211v0c-0.015-0.3-0.116-0.656-0.369-0.777l0.119-0.146
	c-0.188-0.346-0.173-0.6-0.247-1.06l-0.03-0.043h0l-0.169-0.167c-0.072-0.267-0.138-0.557-0.206-0.847l1.063,0.019l-1.063-0.02
	c-0.056-0.243-0.113-0.485-0.174-0.715c-0.036-0.06-0.089-0.115-0.204-0.217l0.008-0.083C3.021,9.305,2.756,9.112,2.647,8.77
	C2.575,8.532,2.595,8.116,2.283,7.91l0.131-0.225l0.225,0.004c0.086,0.411,0.339,0.622,0.696,0.784
	c0.125,0.239,0.184,0.555,0.478,0.639c0.091,0.279,0.344,0.456,0.555,0.616L3.005,9.704l1.363,0.024
	c0.128,0.097,0.241,0.188,0.291,0.29c0.123,0.249,0.261,0.499,0.416,0.731h0c0.254,0.383,0.552,0.719,0.897,0.927l0.035,0.098
	l-1.29-0.023l1.29,0.024c0.045,0.096,0.114,0.203,0.122,0.337l0.195,0.068c0.087,0.118,0.112,0.203,0.164,0.314
	c0.067,0.151,0.346,0.191,0.444,0.336c0.023,0.05,0.023,0.187,0.035,0.305l0.194,0.068c0.15,0.176,0.285,0.394,0.412,0.616
	l-1.977-0.036l1.977,0.036l0.144,0.258l0.191-0.117c0.006,0.211,0.158,0.403,0.255,0.579c0.074,0.143,0.261,0.304,0.436,0.329
	c0.04,0.084,0.141,0.219,0.242,0.258c0.029,0.059,0.03,0.194,0.041,0.313l0.196,0.07c0.067,0.112,0.149,0.232,0.234,0.357
	l-2.67-0.047l2.67,0.049c0.099,0.146,0.202,0.303,0.286,0.461c0.074,0.145,0.372,0.182,0.445,0.342
	c0.044,0.095,0.144,0.25,0.15,0.422c0.471,0.172,0.763,0.768,1.033,1.079c0.043-0.229-0.019-0.51,0.068-0.72
	c0.048-0.118,0.23-0.189,0.233-0.348c0.002-0.157-0.123,0.029-0.121-0.127c0.003-0.158,0.121,0.096,0.124-0.062l0.017-1.008
	l0.001-0.11c0.002-0.157,0.07-0.006,0.125-0.057l0.026-1.579c0.001-0.158,0.069-0.005,0.123-0.057l0.003-0.208l0.011-0.614
	c0.001-0.158,0.119,0.081,0.122-0.077c0.003-0.157-0.123,0.029-0.12-0.128c0.002-0.158,0.123-0.029,0.125-0.187
	c0.003-0.157-0.029-0.126-0.111-0.137c-0.008-0.085,0.112,0.043,0.115-0.114l0.013-0.756l0.002-0.11
	c0.002-0.157,0.07-0.005,0.125-0.057l0.013-0.838l0.015-0.858c0.001-0.157,0.064-0.008,0.101-0.064l0.01-0.083v0h0
	c0.016-0.156,0.021-0.315,0.04-0.472c0,0,0.101,0.105,0.108-0.053l0.025-1.483l0.199,0.004c0.05-0.059,0.04,0.026,0.043-0.131
	c0.002-0.157-0.029-0.126-0.118-0.147c0.07-0.096,0.122-0.136,0.125-0.293c0.003-0.158-0.027-0.19-0.11-0.2
	c-0.007-0.085,0.115-0.083,0.117-0.241c0.003-0.157-0.028-0.126-0.115-0.143c0.125-0.28,0.251-0.729,0.259-0.886l0.022-1.358
	l0.209,0.004c0.152-0.002,0.138,0.193,0.243,0.284c0.022,0.249,0.142,0.441,0.148,0.68c0.233,0.175,0.363,0.455,0.356,0.768
	l0.222,0.056c-0.044,0.371,0.085,0.58,0.331,0.779c0.026,0.053,0.002,0.198,0.039,0.309c0.072,0.198,0.229,0.38,0.317,0.586
	c0.14,0.302,0.124,0.886,0.587,1.138c0.078,0.264,0.118,0.415,0.239,0.514c0.004,0.125,0.032,0.24,0.072,0.347l-0.56-0.01l0.56,0.01
	c0.13,0.345,0.392,0.624,0.427,1.016l0.005,0.083c0.218,0.246,0.336,0.564,0.557,0.843l0.022,0.092l-4.636-0.083l4.636,0.084
	c0.095,0.316,0.353,0.6,0.366,0.972c0.041,0.056,0.149,0.094,0.201,0.206c0.121,0.265,0.245,0.56,0.352,0.854l-5.709-0.103
	L17.535,14c0.057,0.155,0.108,0.31,0.153,0.461l0.222,0.059l-0.116,0.149c0.284,0.429,0.492,0.892,0.692,1.365
	c0.148,0.349,0.292,0.702,0.461,1.049c0.045,0.096-0.101,0.344,0.052,0.35l0.29,0.004c0.137-0.289,0.072-0.585,0.2-0.969
	c0.041-0.125,0.172-0.227,0.212-0.328l0.03-0.083h0c0.072-0.208,0.124-0.446,0.147-0.726l0.208-0.197
	c0.022-0.332,0.131-0.674,0.162-1.083l0.091,0.001L20.25,14.05l0.007-0.117l0.172,0.12h0.001l0.013,0.004l0.002-0.004l2.352,0.042
	l-2.352-0.042c0.049-0.111,0.009-0.255,0.071-0.347c0.071-0.109,0.162-0.222,0.209-0.323c0.079-0.164-0.01-0.391,0.046-0.547
	c0.094-0.279,0.225-0.523,0.33-0.788c0.102-0.256,0.18-0.53,0.179-0.871l0.186,0.004l0.023-0.133l2.254,0.041l-2.254-0.041
	c0.062-0.317,0.162-0.646,0.175-0.998l0.188,0.003l0.001-0.006l3.455,0.062l0.008,0.063c-0.002,0.158-0.07,0.053-0.123,0.097
	c0.057,0.108,0.107,0.161,0.213,0.25c0.039,0.216,0.086,0.412,0.142,0.602c0.028,0.098,0.058,0.194,0.091,0.29
	c0.064,0.202,0.125,0.449,0.143,0.722l-4.68-0.084l4.68,0.085l0.004,0.084c0.041,0.056,0.094,0.113,0.199,0.203
	c0.102,0.532,0.141,0.847,0.346,1.268c0.039,0.08-0.029,0.292-0.004,0.472v0c0.016,0.125,0.078,0.234,0.256,0.267
	c0.006,0.083-0.117,0.082-0.119,0.239c-0.002,0.157,0.17,0.254,0.213,0.42c0.092,0.353,0.154,0.743,0.207,1.1
	c0.018,0.117,0.033,0.229,0.051,0.335l0.221,0.058l-0.115,0.151c0.115,0.234,0.232,0.554,0.322,0.851
	c0.035-0.107,0.033-0.225,0.055-0.347c0.434-0.269,0.443-0.734,0.664-1.025l6.779,0.122l-6.779-0.123l0.195-0.17l-0.121-0.098
	l0.727-1.021c0.023-0.119,0.025-0.307,0.049-0.432l0.172-0.041l0.129-0.233c0.094-0.178,0.184-0.384,0.203-0.599
	c0.236-0.069,0.494-0.371,0.486-0.765c0.084-0.008,0.234,0.088,0.236-0.069c0.004-0.158-0.029-0.063-0.117-0.084
	c0.131-0.158,0.309-0.244,0.35-0.392l0.023-0.087c0.072-0.271,0.115-0.542,0.277-0.724c0.078-0.091,0.162-0.182,0.246-0.274
	c0.123-0.137,0.242-0.277,0.336-0.42c0.102-0.156,0.088-0.389,0.168-0.545l0.021-0.033l2.889,0.052L31.46,10.22
	c0.078-0.096,0.273-0.153,0.309-0.287c0.291-0.979,1.105-1.769,1.436-2.807l0.201-0.063c0.025-0.307,0.156-0.569,0.293-0.823
	l0.465,0.008c-0.188,0.204-0.207,0.411-0.004,0.505c0.002,0.08-0.119,0.078-0.121,0.235c-0.002,0.158,0.119,0.16,0.117,0.317
	c-0.004,0.157-0.125,0.092-0.127,0.25c-0.002,0.157,0.041,0.066,0.09,0.09c0.035,0.124-0.109,0.495,0.141,0.622l-0.025,1.45
	c0,0.158,0.125-0.044,0.121,0.113l-0.006,0.44l-0.008,0.461c0.053,0.053,0.123,0.014,0.121,0.171
	c-0.004,0.158-0.125,0.093-0.127,0.25l0.031,0.127l0.207,0.156c-0.07,0.089-0.125,0.192-0.127,0.349
	c-0.004,0.158-0.02,0.192,0.115,0.27l-0.004,0.237l-0.016,0.961c0,0.157,0.125-0.045,0.121,0.112l-0.014,0.945l-0.008,0.331
	c-0.002,0.158,0.123-0.045,0.121,0.113l-0.014,0.779c-0.002,0.157,0.121,0.072,0.119,0.23c-0.002,0.157-0.123,0.092-0.125,0.25
	c-0.004,0.157,0.121-0.029,0.119,0.128l-0.004,0.188l-0.012,0.709c-0.002,0.157,0.123-0.045,0.121,0.112l-0.016,0.897
	c-0.002,0.158,0.123-0.045,0.121,0.113c-0.004,0.157-0.123-0.034-0.125,0.123c-0.002,0.158,0.115,0.209,0.152,0.318
	c0.564-0.656,1.283-1.427,1.838-2.234l4.025,0.072c-0.014,0.158,0.012,0.334-0.035,0.459c-0.137,0.375-0.283,0.558-0.385,1.006
	c-0.17,0.154-0.348,0.443-0.35,0.601s0.029,0.063,0.119,0.085c-0.131,0.158-0.295,0.322-0.359,0.519
	c-0.057,0.181,0.008,0.396-0.049,0.544c-0.063,0.164-0.156,0.313-0.213,0.461c-0.039,0.104-0.029,0.223-0.027,0.335v0.001
	l-0.02,0.205c-0.072,0.212-0.281,0.38-0.338,0.584l-0.057,0.211c-0.047,0.18-0.092,0.38-0.102,0.619
	c-0.082,0.008-0.232-0.09-0.236,0.068c-0.002,0.157,0.029,0.063,0.117,0.082l-0.107,0.232l-1.18-0.021l1.18,0.021
	c-0.096,0.305-0.102,0.695-0.178,0.959l-0.016,0.045l-1.092-0.02c0.246-0.107,0.279-0.143,0.285-0.498
	c0.002-0.158,0.002-0.228-0.021-0.348l-0.158-0.16l-0.055-0.09c0.053-0.045,0.123-0.066,0.125-0.225
	c0.002-0.109-0.232-0.537-0.34-0.568l-0.063,0.249l-0.182-0.129c-0.182,0.202-0.391,0.534-0.607,0.511l-0.074,0.209l-0.094,0.02
	c-0.129,0.041-0.23,0.123-0.35,0.128l-0.01,0.476c0.119,0.145,0.09,0.283,0.105,0.4l-1.729-0.031l1.729,0.031l0.029,0.094
	c0.051,0.03,0.096,0.003,0.094,0.16c-0.002,0.158-0.125,0.156-0.117,0.241c0.143,0.012,0.234,0.045,0.236,0.096l-0.119,0.158
	l0.119,0.13l0.223,0.004c0.074-0.135,0.186-0.119,0.23-0.149c0.092-0.235,0.234-0.468,0.449-0.574c0.121-0.06,0.219-0.1,0.293-0.133
	l1.092,0.02c-0.063,0.149-0.209,0.271-0.211,0.414l-0.01,0.59l-0.004,0.213c-0.002,0.157-0.252,0.444-0.254,0.603l0.066,0.188
	c0.104,0.197,0.289,0.461,0.287,0.574c-0.004,0.158-0.137,0.303-0.271,0.436l-0.797-0.015l-0.027,0.001h-0.006
	c-0.129,0.021-0.191,0.162-0.291,0.219c-0.324,0.184-0.725,0.297-1.115,0.361c-0.188,0.033-0.447,0.082-0.717,0.136h-0.002
	c-0.363,0.072-0.744,0.151-0.994,0.211c-0.152,0.036-0.41,0.017-0.641,0.024l-0.057,0.109l-0.906-0.018
	c-0.152,0.002,0.027,0.131-0.125,0.129l-0.854-0.016c-0.143-0.002,0.006,0.111-0.1,0.123H31.699z M43.089,10.431
	c-0.064,0.102-0.152,0.194-0.188,0.291c-0.078,0.205-0.133,0.442-0.166,0.711l-0.01,0.087c-0.049,0.033-0.113,0.159-0.225,0.208
	l0.119,0.093c-0.063,0.216-0.123,0.414-0.186,0.614c-0.072,0.226-0.145,0.452-0.221,0.706c-0.033,0.125-0.146,0.243-0.217,0.344
	c-0.07,0.101-0.016,0.304-0.045,0.417c-0.047,0.031-0.111,0.156-0.209,0.206c-0.004,0.115-0.02,0.224-0.039,0.33l-3.066-0.055
	c0.307-0.386,0.617-0.79,0.941-1.222l0.164-0.033c0.057-0.153,0.186-0.346,0.309-0.5l-0.115-0.103l0.188,0.125l0.059-0.255
	l2.252,0.04l-2.252-0.041l0.014-0.096c0.172-0.117,0.271-0.066,0.377-0.377l0.17-0.038c0.109-0.171,0.223-0.329,0.34-0.481
	c0.268-0.346,0.551-0.657,0.813-0.993c0.201-0.259,0.391-0.533,0.549-0.849l0.172-0.038c0.305-0.405,0.676-0.774,0.938-1.221
	l0.219,0.134l-0.004,0.235c-0.084,0.006-0.133,0.128-0.242,0.178l0.119,0.095c-0.125,0.28-0.371,0.64-0.375,0.797
	C43.269,9.898,43.3,9.805,43.39,9.825c-0.17,0.212-0.16,0.339-0.277,0.565L43.089,10.431z M41.705,14.438
	c-0.059,0.286-0.166,0.546-0.26,0.833c-0.127,0.376-0.385,0.698-0.467,1.083l-0.014,0.087l-4.025-0.072l0.154-0.229
	c0.32,0.033,0.232-0.352,0.365-0.492c0.146-0.154,0.371-0.396,0.58-0.447c0.018-0.051,0.018-0.166,0.027-0.313l0.188-0.024
	c0.129-0.156,0.256-0.316,0.385-0.479L41.705,14.438z M21.853,10.045c0.055-0.231,0.217-0.472,0.281-0.666
	c0.057-0.18,0.006-0.384,0.047-0.548c0.114-0.439,0.247-0.61,0.385-1.127c0.033-0.126,0.11-0.263,0.134-0.389
	c0.06-0.023,0.117-0.146,0.208-0.196c0.023-0.301,0.15-0.611,0.165-0.95l0.188,0.003c0.052-0.173,0.174-0.287,0.176-0.445
	c0.002-0.157-0.029-0.063-0.117-0.082c0.127-0.219,0.323-0.302,0.26-0.725l0.227,0.004c0.123,0.521,0.281,1.079,0.448,1.547
	c0.059,0.159-0.028,0.378,0.029,0.553c0.108,0.333,0.331,0.683,0.435,0.968c0.182,0.531,0.193,1.138,0.375,1.693
	c0.045,0.131,0.182,0.283,0.215,0.424L21.853,10.045z M0.288,3.61c0.272,0.129,0.604,0.234,0.8,0.411
	c0.226,0.209,0.465,0.417,0.684,0.602c0.09,0.081,0.307,0.032,0.435,0.171L2.191,5.734C2.19,5.892,2.222,5.783,2.304,5.793
	c0.008,0.085-0.113,0.02-0.119,0.177L2.17,6.901C2.033,6.973,1.957,7.038,1.804,7.035c-0.152-0.003-0.165-0.006-0.22-0.038
	C1.476,6.743,1.041,6.592,0.859,6.479L0.824,6.313C0.733,6.255,0.69,6.132,0.538,6.13C0.384,6.127,0.444,6.254,0.365,6.247
	C0.26,5.922,0.161,5.901,0,5.856l0.023-1.366C0.106,4.484,0.136,4.516,0.14,4.358C0.142,4.201,0.111,4.231,0.022,4.21
	c0.069-0.096,0.141-0.227,0.251-0.275l-0.116-0.09L0.288,3.61z M45.335,4.177l0.34,0.006c0.004,0.214-0.014,0.406,0.012,0.587
	c0.076,0.505,0.213,1.009,0.338,1.523l0.1,0.15l-0.143-0.119c-0.475,0.363-1.143,0.867-1.596,1.352L44.048,7.67
	c-0.121-0.589-0.35-1.608-0.348-1.766c0.004-0.157,0.004-0.225,0.025-0.347C44.275,5.166,44.83,4.674,45.335,4.177z M34.994,1.968
	l0.195,0.003c0.152,0.001,0.027,0.215,0.039,0.334c0.041,0.057,0.096,0.114,0.201,0.205c0.021,0.249,0.162,0.424,0.234,0.638
	c0.08,0.214,0.051,0.452,0.252,0.616L35.91,4.117c-0.406-0.015-0.369,0.362-0.506,0.625c-0.078,0.003-0.195,0.001-0.305,0.01
	c-0.133,0.239-0.539,0.584-0.816,0.855c-0.426-0.118,0.074-0.683-0.441-0.642c-0.129-0.397-0.361-1.104-0.359-1.262
	C33.49,3.286,34.843,2.148,34.994,1.968z M11.812,0.293L12.156,0.3c0.218,0.283,0.559,0.721,0.949,0.919
	c0.025,0.188,0.195,0.361,0.36,0.513c0.024,0.121,0.023,0.19,0.021,0.348c-0.005,0.331-0.211,0.515-0.026,0.872l-0.313-0.005
	c-0.052,0.062-0.042-0.023-0.044,0.135C13.1,3.239,13.131,3.208,13.22,3.229c-0.131,0.158-0.187,0.331-0.263,0.603L12.51,3.823
	c-0.152,0-0.148-0.214-0.166-0.332c-0.13-0.136-0.517-0.32-0.481-0.514c-0.177-0.107-0.702-0.648-0.7-0.751
	c0.002-0.157,0.284-0.476,0.356-0.726c0.049-0.181,0.021-0.374,0.047-0.547C11.609,0.71,11.909,0.636,11.812,0.293z M15.289,20.008
	l7.49,0.137c-0.067,0.096-0.134,0.186-0.18,0.282c-0.086,0.179-0.068,0.517-0.381,0.471c-0.012,0.087,0.111,0.026,0.108,0.184
	l-0.01,0.062l-5.989-0.107l5.989,0.108c-0.03,0.079-0.114,0.056-0.116,0.187c-0.005,0.28,0.267,0.545,0.478,0.828l-5.09-0.092
	l5.09,0.092c0.145,0.195,0.261,0.399,0.239,0.624c0.145,0.013,0.244,0.068,0.334,0.142l0.202-0.636l0.193,0.003l-0.017-0.115
	c0.009-0.17,0.139-0.37,0.239-0.404l0.082-0.207l0.193-0.018l0.006-0.355l-0.025-0.016h-0.001c-0.11-0.068-0.153-0.118-0.206-0.219
	l0.115-0.151c-0.082-0.011-0.252-0.011-0.363-0.063l0.005-0.321c-0.208-0.005-0.269-0.127-0.292-0.268
	c-0.024-0.142-0.009-0.303-0.074-0.374l-0.337-0.007c-0.041,0.144-0.116,0.261-0.191,0.37L15.289,20.008z M8.194,22.904
	L8.194,22.904l0.06,0.091l-0.118,0.149c0.14,0.037,0.198,0.118,0.246,0.262l0.187-0.122c0.048,0.115,0.043,0.227,0.05,0.375
	c0.082,0.011,0.024-0.116,0.176-0.115l0.141,0.003l0.063,0.222c0.102,0.043,0.181,0.101,0.247,0.163l-1.826-0.032l1.826,0.033
	l0.229,0.25l0.586,0.012l0.003-0.186l-0.012-0.061l28.459,0.515L10.05,23.946h-0.046h-0.001l-0.038-0.001H9.964l-0.016-0.063
	c0.002-0.158,0.125-0.219,0.128-0.376s-0.118-0.223-0.116-0.38l0.064-0.188l6.02,0.109l0.13,0.122l-0.023-0.12v-0.001
	c-0.007-0.245,0.252-0.378,0.286-0.485c-0.086-0.016-0.117,0.016-0.115-0.142s0.114-0.194,0.22-0.284l0.027-0.09
	c0.036-0.17-0.002-0.357,0.135-0.599c-0.123-0.153-0.241-0.284-0.376-0.413c-0.128-0.123-0.271-0.244-0.447-0.383
	c-0.019,0.091-0.081,0.121-0.081,0.121c-0.065-0.115,0.063-0.156,0.063-0.231c-0.126-0.139-0.307-0.269-0.465-0.401
	c0.051,0.258-0.19,0.359-0.246,0.399c-0.021,0.122-0.009,0.314-0.049,0.431l-0.014,0.043c-0.083,0.237-0.222,0.48-0.343,0.854
	c0.086,0.06,0.207,0.104,0.32,0.152l-5.598-0.102c-0.368-0.258-0.783-0.392-1.177-0.647l-0.01,0.627l-0.009,0.479
	c-0.011,0.158-0.133,0.18-0.136,0.336C8.134,22.815,8.16,22.858,8.194,22.904z M30.355,23.307l0.004,0.121l0.223-0.118h0.002
	c0.164-0.103,0.305-0.212,0.467-0.274c0.137-0.258,0.34-0.475,0.508-0.715l0.076-0.115l0.189-0.016l0.01-0.608
	c-0.143-0.052-0.184-0.153-0.201-0.268l7.619,0.138l-7.619-0.139c-0.016-0.116-0.006-0.245-0.051-0.346
	c-0.066-0.15-0.213-0.32-0.217-0.531l-0.229-0.004l-0.125,0.23c0.082,0.011,0.113-0.021,0.109,0.137
	c-0.002,0.158,0.008,0.072-0.037,0.126c-0.102-0.062-0.115-0.128-0.268-0.132c-0.152-0.002-0.275,0.122-0.42,0.129l0.115,0.196
	c-0.09,0.04-0.182,0.126-0.279,0.17H30.23l-0.07,0.023c-0.027,0.191-0.143,0.359-0.266,0.491l-0.002,0.152l0.211,0.131l0.063,0.209
	C30.261,22.626,30.337,22.958,30.355,23.307z M15.065,22.02c0.212,0.092,0.4,0.201,0.296,0.466c0.254,0.146,0.459,0.346,0.684,0.561
	l-6.02-0.109l0.064-0.188c0.005-0.339-0.217-0.625-0.458-0.699c-0.079,0.14-0.127,0.188-0.227,0.247
	c-0.042-0.111,0.082-0.008,0.083-0.166l0.003-0.195l-0.023-0.017L15.065,22.02z M7.747,24.911l9.968,0.182l-0.035,0.002l-1.017-0.02
	c-0.195,0.16-0.601,0.063-0.733,0.14c-0.022,0.057,0.09,0.101-0.062,0.099l-1.041-0.02c-0.195,0.16-0.601,0.063-0.733,0.14
	c-0.021,0.057,0.067,0.1-0.085,0.097c-0.153-0.002,0.033-0.125-0.121-0.128c-0.152-0.003-0.093,0.124-0.154,0.123
	c-0.183-0.003-0.43-0.007-0.614,0.012l-0.072,0.081c-0.416,0.014-0.796,0.063-1.141,0.143c-0.161,0.037-0.328,0.089-0.489,0.117
	l-0.526,0.1l-0.126,0.025c0.372,0.221,0.695,0.189,1.174,0.26c0.054,0.045-0.052,0.111,0.102,0.114
	c0.152,0.003-0.029-0.126,0.124-0.124c0.152,0.004-0.033,0.126,0.12,0.129l0.756,0.014c0.152,0.002,0.067,0.1,0.067,0.1
	c0.178,0.03,0.362,0.034,0.537,0.051c0.053,0.044-0.075,0.111,0.078,0.113l0.755,0.014c0.142,0.004-0.008,0.109,0.093,0.127h0.002
	l0.025,0.002l0.755,0.014c0.152,0.002,0.068,0.1,0.068,0.1c0.178,0.03,0.362,0.033,0.537,0.051l0.152,0.105
	c0.011-0.084,0.042-0.115,0.194-0.113c0.152,0.004,0.066,0.128,0.219,0.131l1.243,0.022c0.153,0.003-0.033,0.125,0.121,0.128
	l1.708,0.031c0.153,0.002,0.09,0.127,0.173,0.12c0.01-0.085-0.082-0.118,0.072-0.116l0.874,0.015
	c0.049,0.057,0.009,0.128,0.162,0.131s0.215-0.122,0.369-0.12c0.152,0.003,0.251,0.059,0.345,0.131
	c0.02-0.092,0.051-0.123,0.204-0.12s0.15,0.128,0.303,0.131c0.152,0.003,0.033-0.125,0.185-0.122
	c0.153,0.002,0.151,0.129,0.304,0.131c0.152,0.004,0.132-0.123,0.284-0.12l2.342,0.042c0.152,0.003-0.029-0.127,0.124-0.123
	l1.831,0.033c0.152,0.002-0.029-0.127,0.123-0.125c0.154,0.004-0.031,0.127,0.121,0.129c0.152,0.003-0.029-0.127,0.125-0.123
	l0.977,0.018c0.15,0.002-0.029-0.127,0.123-0.124l0.732,0.013h0.025l0.111,0.001l-0.111-0.002c0.105-0.012-0.045-0.126,0.098-0.122
	c0.143,0.002-0.008,0.108,0.094,0.125h0.002l0.025,0.003l0.025-0.001l1.436,0.025l-1.436-0.025c0.105-0.012-0.045-0.125,0.098-0.123
	l0.855,0.016c0.152,0.003-0.029-0.127,0.125-0.125l1.139,0.021c0.182-0.162,0.604-0.064,0.725-0.146
	c0.027-0.044,0.002-0.092,0.154-0.09c0.152,0.004,0.15,0.129,0.223,0.129c0.18-0.16,0.596-0.092,0.713-0.137
	c0.193-0.078,0.393-0.202,0.541-0.217l1.238,0.023l-1.238-0.023h0.029l0.92,0.016c0.195-0.176,0.408-0.095,0.635-0.344
	c-0.816-0.162-1.605-0.302-2.393-0.464c-0.055-0.038,0.074-0.104-0.078-0.106l-0.754-0.014c-0.152-0.003,0.031-0.125-0.121-0.128
	s0.029,0.126-0.123,0.124c-0.152-0.003-0.063-0.047-0.096-0.107c-0.096-0.014-0.195-0.02-0.293-0.027h-0.006l-0.234-0.025
	c-0.055-0.037,0.076-0.102-0.076-0.105l-1.365-0.024c-0.154-0.003,0.031-0.126-0.121-0.128l-1.975-0.036
	c-0.154-0.003-0.045-0.126-0.197-0.13l-6.248-0.113c-0.153-0.002,0.028,0.127-0.124,0.124l-1.953-0.036
	c-0.152-0.002,0.028,0.127-0.125,0.125c-0.152-0.004,0.033-0.126-0.12-0.129c-0.152-0.002,0.029,0.127-0.124,0.124l-1.465-0.026
	c-0.138-0.003-0.003,0.104-0.089,0.121L7.747,24.911z"/>
</svg>
