<?xml version="1.0" encoding="utf-8"?>
<!-- Generator: Adobe Illustrator 16.0.0, SVG Export Plug-In . SVG Version: 6.00 Build 0)  -->
<!DOCTYPE svg PUBLIC "-//W3C//DTD SVG 1.1//EN" "http://www.w3.org/Graphics/SVG/1.1/DTD/svg11.dtd">
<svg version="1.1" id="Layer_1" xmlns="http://www.w3.org/2000/svg" xmlns:xlink="http://www.w3.org/1999/xlink" x="0px" y="0px"
	 width="100px" height="100px" viewBox="0 0 100 100" enable-background="new 0 0 100 100" xml:space="preserve">
<circle fill="#B0B5C6" cx="50" cy="48.023" r="44.302"/>
<path fill="#FFFFFF" d="M42.821,60.318l-0.746,1.106c0.185,0.013,0.549,0,0.797,0c1.485,0,4.163-0.227,8.978-1.085
	c1.455-0.259,33.367-6.06,42.233-16.726c-0.058-0.57-0.125-1.137-0.203-1.7c-5.81,8.697-29.813,15.045-42.235,17.259
	C46.712,60.053,44.12,60.28,42.821,60.318L42.821,60.318z"/>
<path fill="#8F93A4" d="M42.821,60.318c-0.655,0.02-1.157-0.569-1.117-1.226c0.463-7.6,1.383-14.08,1.82-16.873
	c0.101-0.646,0.669-1.399,1.264-1.676c6.69-3.109,29.743-13.294,42.915-13.173c0.218,0.002,0.488,0.157,0.598,0.347
	c0.549,0.959,2.221,4.128,5.17,11.73c-0.406-2.077-0.959-4.102-1.646-6.063c-1.431-3.302-2.757-6-3.56-6.764
	c-0.011-0.354-0.048-0.729-0.108-1.12c-0.427-0.724-0.873-1.435-1.341-2.131c0.271,0.852,0.506,1.833,0.619,2.634
	c0.027,0.217-0.134,0.395-0.353,0.391c-1.104-0.019-2.433-0.105-5.876,0.352c-0.648,0.086-1.307-0.35-1.486-0.979
	c-2.861-9.792-9.076-15.79-13.578-19.015c-1.574-0.616-3.19-1.144-4.85-1.579c2.957,1.477,13.311,7.49,17.25,20.814
	c0.188,0.629-0.204,1.245-0.845,1.383c-4.728,1.013-9.771,2.574-14.521,4.27c-0.616,0.22-1.44-0.018-1.85-0.531
	C46.364,12.232,35.139,8.867,30.061,8.454c-0.751,0.379-1.49,0.777-2.215,1.197c2.526-0.247,14.762-0.098,32.308,21.894
	c0.41,0.513,0.238,1.116-0.375,1.349c-6.774,2.568-12.59,5.206-15.479,6.563c-0.593,0.278-1.514,0.213-2.059-0.151L14.87,21.032
	c-0.241,0.314-0.479,0.632-0.711,0.952l0.811,0.541c0.364,0.243,0.418,0.701,0.138,1.036c-2.225,2.658-7.516,10.34-9.403,24.943
	c0.024,2.322,0.228,4.604,0.597,6.826c0.863-18.75,7.487-28.301,9.812-31.099c0.279-0.336,0.813-0.4,1.177-0.158l8.813,5.884
	c0.545,0.363,0.765,1.142,0.505,1.743c-1.915,4.428-7.14,17.845-6.965,32.02c0.11,8.884,3.111,16.241,6.03,21.329
	c0.721,0.475,1.455,0.93,2.204,1.362c-3.143-4.907-6.925-12.835-7.047-22.706c-0.17-13.759,4.841-26.81,6.782-31.336
	c0.259-0.603,0.921-0.791,1.465-0.427l12.467,8.323c0.545,0.364,0.897,1.183,0.794,1.829c-1.053,6.606-4.601,32.125,0.733,46.771
	c0.075,0.204-0.027,0.435-0.236,0.5c-0.795,0.247-2.453,0.642-5.76,1.043c0.638,0.192,1.281,0.376,1.931,0.542
	c2.418-0.354,3.695-0.692,4.366-0.939c0.205-0.074,0.496-0.029,0.664,0.108c1.103,0.912,2.505,1.616,4.011,2.162
	c0.648,0.026,1.299,0.045,1.954,0.045c0.323,0,0.645-0.007,0.964-0.015c-2.438-0.563-4.796-1.297-6.568-2.93
	c-0.856-1.329-1.255-3.732-1.647-6.02c-0.111-0.646,0.31-1.037,0.95-0.896c2.357,0.521,7.003,1.354,12.662,1.354
	c1.451,0,2.969-0.055,4.529-0.186c7.688-0.632,17.756-3.199,26.075-11.195c1.024-1.547,1.954-3.162,2.781-4.84
	C81.145,78.518,69.45,81.736,60.833,82.45c-7.925,0.657-14.724-0.604-17.346-1.195c-0.639-0.146-1.237-0.807-1.326-1.455
	c-0.76-5.497-0.851-11.577-0.629-17.274c0.019-0.489,0.309-1.474,1.759-1.653L42.821,60.318z"/>
<path fill="#FFFFFF" d="M60.154,31.545c0.115,0.129,0.494,0.255,0.494,0.255C46.44,13.017,33.488,9.044,28.875,9.076
	c-0.346,0.188-0.689,0.378-1.029,0.575C31.613,10.021,40.705,9.556,60.154,31.545z M15.519,24.232
	c-2.184,2.63-8.165,11.574-9.593,28.206c0.067,0.68,0.151,1.352,0.248,2.02l0.21-0.573c1.127-17.793,7.466-26.926,9.729-29.65
	c0.148-0.179,0.369-0.278,0.598-0.298C16.251,23.91,15.703,24.011,15.519,24.232z M20.136,63.721
	c-0.175-14.175,4.739-26.827,6.705-31.229c0.618-1.385-0.507-2.553-1.316-2.917c0,0,1.274,1.387,0.889,2.371
	c-1.759,4.491-7.045,17.603-6.87,31.778c0.109,8.885,3.209,16.24,6.129,21.328c0.165,0.108,0.333,0.213,0.5,0.318
	C23.415,80.033,20.233,71.637,20.136,63.721z M56.363,83.325c-5.66,0-12.663-0.857-12.663-0.857s7.003,1.55,12.663,1.55
	c1.449,0,2.968-0.056,4.529-0.184c7.687-0.632,18.181-3.079,26.074-11.395c0.19-0.289,0.374-0.58,0.561-0.873
	c-8.319,8.088-19.326,10.975-26.635,11.574C59.331,83.27,57.813,83.325,56.363,83.325z M93.928,42.309
	c-0.017-0.131-0.029-0.263-0.047-0.393C88.07,50.613,64.066,56.96,51.645,59.174c-4.932,0.879-7.522,1.106-8.823,1.145
	c-0.655,0.021-1.157-0.567-1.117-1.224c0.463-7.6,1.383-14.08,1.82-16.873c0.101-0.647,0.669-1.399,1.264-1.676
	c6.689-3.109,29.743-13.294,42.915-13.173c0.047,0,0.097,0.011,0.146,0.024l-0.146-0.321c-13.172-0.121-36.226,9.767-42.915,12.876
	c-0.594,0.276-1.459,1.227-1.561,1.874c-0.436,2.793-1.455,10.359-1.918,17.961c-0.04,0.654,0.462,1.145,1.117,1.124
	c1.299-0.038,4.287-0.267,9.218-1.144c12.424-2.217,36.429-8.66,42.237-17.357L93.928,42.309z M42.04,42.294
	c-1.053,6.605-4.664,30.254,1.03,46.57c-4.507-15.46-1.192-40.459-0.14-47.065c0.103-0.646-0.249-1.465-0.794-1.829l-13.061-8.026
	l12.171,8.521C41.791,40.828,42.143,41.646,42.04,42.294z"/>
</svg>
