<?xml version="1.0" encoding="utf-8"?>
<!-- Generator: Adobe Illustrator 16.0.0, SVG Export Plug-In . SVG Version: 6.00 Build 0)  -->
<!DOCTYPE svg PUBLIC "-//W3C//DTD SVG 1.1//EN" "http://www.w3.org/Graphics/SVG/1.1/DTD/svg11.dtd">
<svg version="1.1" id="Layer_1" xmlns="http://www.w3.org/2000/svg" xmlns:xlink="http://www.w3.org/1999/xlink" x="0px" y="0px"
	 width="96.5px" height="106.5px" viewBox="0 0 96.5 106.5" enable-background="new 0 0 96.5 106.5" xml:space="preserve">
<g>
	<path d="M93.242,26.049c-0.267,0.2-1.283,2.133-3.05,5.8s-2.783,7.784-3.05,12.35c0.233,3.9,1.15,7.9,2.75,12
		c1.6,4.133,2.65,8.65,3.15,13.55c0.533,4.9-0.717,10.517-3.75,16.85c-3,6.067-7.017,10.25-12.05,12.55
		c-5.033,2.3-12.083,3.383-21.15,3.25c-2.467,0.133-4.333,0.65-5.6,1.55c-1.267,0.9-1.9,1.417-1.9,1.55l-1.9-1.55
		c-1.267-0.9-3.133-1.417-5.6-1.55c-9.066,0.133-16.117-0.95-21.15-3.25c-5.033-2.3-9.05-6.483-12.05-12.55
		c-3.034-6.333-4.284-11.95-3.75-16.85c0.5-4.9,1.55-9.417,3.15-13.55c1.633-4.1,2.55-8.1,2.75-12
		c-0.267-4.566-1.283-8.684-3.05-12.35c-1.767-3.667-2.783-5.6-3.05-5.8l18.65-21.35c5.1,4.467,9.667,6.467,13.7,6
		c4-0.434,8.1-2.434,12.3-6c4.2,3.566,8.3,5.566,12.3,6c4.033,0.467,8.6-1.533,13.7-6L93.242,26.049"/>
</g>
</svg>
