<?xml version="1.0" encoding="utf-8"?>
<!-- Generator: Adobe Illustrator 16.0.0, SVG Export Plug-In . SVG Version: 6.00 Build 0)  -->
<!DOCTYPE svg PUBLIC "-//W3C//DTD SVG 1.1//EN" "http://www.w3.org/Graphics/SVG/1.1/DTD/svg11.dtd">
<svg version="1.1" id="Layer_1" xmlns="http://www.w3.org/2000/svg" xmlns:xlink="http://www.w3.org/1999/xlink" x="0px" y="0px"
	 width="100px" height="100px" viewBox="0 0 100 100" enable-background="new 0 0 100 100" xml:space="preserve">
<path fill="#FDB913" d="M50.932,5.474c0.012,0.51,0.01,1.021-0.031,1.201l-0.039,0.167c-0.043,0.188,0.098,0.332,0.287,0.293
	c0,0,1.063-0.215,2.465-0.204c1.414,0.012,3.343,0.218,5.406,0.994c2.084,0.784,3.431,1.588,4.25,2.188
	c0.41,0.3,0.689,0.549,0.863,0.72c0.083,0.082,0.167,0.178,0.23,0.254l0.107,0.135c0.111,0.145,0.301,0.135,0.398-0.02l0.092-0.145
	c0.066-0.107,2.342-3.54,4.395-3.143c2.1,0.405,2.802,2.201,2.902,4.294c0.064,1.316-1.25,3.428-5.238,3.598
	c0,0-0.359,0.021-0.367,0.138l-0.075,0.237c-0.001,0.019-0.136,1.144-0.442,1.979c-0.215,0.583-0.742,1.421-0.563,2.711
	c0.051,0.364,0.277,0.86,0.494,1.328c0.219,0.473,0.461,0.918,0.731,1.451c0.554,1.089,1.007,2.04,1.021,2.64
	c0.035,1.343,0.005,2.332-0.867,4.06l-0.188,0.409c-0.049,0.095,0.119,0.309,0.203,0.375c0.102,0.078,2.541,2.248,2.693,4.608
	l0.031,0.161c0.012,0.042,0.027,0.101,0.037,0.163c0.021,0.128-0.045,0.236-0.084,0.403c-0.069,0.286-0.17,0.629-1.135,0.906
	c-0.205-0.012-0.969-0.023-1.271-0.051h-0.323c-0.132-0.013-0.262-0.014-0.271,0.12l0.017,0.255c-0.009,0.097,0.12,0.937,1.28,1.701
	c0.757,0.093,2.535,0.756,2.535,0.756c0.01,0.003,0.354,0.241,0.777,0.396c0.45,0.165,0.867,0.226,0.982,0.334
	c0.029,0.028,0.84,0.025,0.881,0.026l1.326,0.04c0.015-0.001,0.535,0.149,0.69,0.212c0.294,0.119,0.522,0.383,0.57,0.982
	l-0.196,1.292c-0.005,0.067,0.082,0.407,0.137,0.446c0.098,0.069,3.748,2.527,3.78,5.302c0.017,1.403-1.187,3.189-3.014,5.148
	c-1.161,1.246-2.541,2.523-4.111,3.773l-0.163,0.119c-0.176,0.125-0.326,0.33-0.123,0.405c0,0,0.293,0.154,0.324,0.17
	c0.033,0.017,0.182,0.099,0.238,0.138c0.117,0.078,0.298,0.213,0.46,0.425c0.317,0.42,0.618,1.06,0.537,2.382
	c-0.157,2.531-3.529,3.889-3.584,3.91l-0.081,0.031c-0.094,0.035-0.165,0.157-0.153,0.256l0.011,0.082
	c0.002,0.019,0.094,1.73-0.326,3.619c-0.274,1.236-0.707,2.551-1.744,3.511l-0.252,0.427l0.205,0.768
	c0.088,0.375,0.303,0.987,0.426,1.553c0.242,1.125,0.496,2.074,0.547,2.947c0.104,1.789,0.417,4.516,1.494,6.564l0.052,0.1
	c0.058,0.108,0.203,0.159,0.315,0.107l0.105-0.048c0,0,1.018-0.538,2.381-0.519c1.051,0.014,2.396,0.313,3.414,1.424
	c1.682,1.832,0.403,4.492,0.317,4.799c0,0-0.363,0.914-0.668,1.39c-0.31,0.483-0.785,1.144-1.448,1.836
	c-0.404,0.422-0.886,0.799-1.429,1.224c-0.819,0.639-1.796,1.299-2.968,1.724c-0.602,0.218-1.264,0.341-1.963,0.463
	c-0.709,0.123-1.459-0.354-2.08-0.956c-0.604-0.584-1.013-1.391-1.019-1.4c-2.047-2.897-3.683-5.776-3.683-5.776
	s-0.783-1.333-1.604-3.034c-0.823-1.71-1.739-3.795-2.183-6.104l-0.053-0.308c-0.027-0.151-0.295-0.104-0.441-0.051
	c0,0-0.949,0.387-2.197,0.682c-1.256,0.296-2.755,0.47-4.332,0.374h-0.767c-0.166-0.01-0.03,0.365,0,0.528
	c0,0,1.604,7.718,1.468,10.62c-0.021,0.434,0.032,1.175-0.034,1.809c-0.063,0.623-0.176,1.146-0.442,1.755
	c-0.52,1.181-1.847,2.255-4.229,2.438c-1.272,0.099-3.139,0.093-4.857-0.238c-1.916-0.37-3.655-1.173-4.331-3.214
	c-0.537-1.622,0.384-4.251,4.897-3.529l0.274,0.034c0.243,0.03,0.504-0.061,0.222-0.393l-0.164-0.209c0,0-0.592-0.797-1.273-1.692
	c-0.676-0.89-1.434-2.043-1.74-2.556c-0.309-0.514-1.295-2.11-2.299-4.416c-1.005-2.309-1.979-5.088-2.149-8.08
	c0.068-0.188-0.171-0.443-0.171-0.443c-0.097-0.113-0.41-0.456-0.579-0.664c-0.336-0.414-0.77-0.979-1.263-1.672
	c-0.99-1.388-2.049-3.314-2.623-5.063c-0.136-0.414-0.82-2.477-0.991-4.039l-0.009-0.086c-0.011-0.099-0.132-0.342-0.23-0.356
	c0,0-0.665-0.071-1.209-0.256c-0.554-0.187-1.042-0.356-1.668-0.86c-1.218-0.979-2.303-3.232-1.058-5.941
	c0.051-0.111,0.128-0.254,0.049-0.326c0,0-0.274-0.41-0.46-0.647c-0.194-0.247-0.421-0.749-0.698-1.294
	c-0.552-1.089-0.92-2.234-1.295-4.971c-0.046-0.337-0.066-0.762-0.042-1.258c0.022-0.477,0.114-1.021,0.375-1.629
	c0.521-1.217,1.656-2.588,4.475-4.333l0.154-0.409c0.038-0.1,0.111-0.497,0.255-1.039c0.136-0.513,0.375-1.004,0.695-1.313
	c0.193-0.006,0.754,0.093,1.198,0.053c0.629-0.057,1.396-0.172,1.924-0.446c0.886-0.46,1.855-1.333,2.214-1.583
	c0.395-0.274,0.838-0.529,1.451-0.836l0.22-0.13c0.167-0.13,0.26-0.224,0.313-0.357c0.077-0.197-0.014-0.18-0.125-0.313
	c-0.095-0.115-0.491-0.412-0.63-0.497c-0.556-0.208-1.307-1.038-0.125-2.608c0.647-0.86,1.385-1.322,1.933-1.625
	c0.272-0.149,0.501-0.25,0.662-0.312c0.153-0.059,0.355-0.113,0.355-0.113c0.142-0.038,0.217-0.186,0.165-0.322l-0.04-0.252
	c-0.005-0.013-0.776-2.099-0.834-4.636c-0.025-1.107,0.048-2.453,0.443-3.494c0.603-1.592,1.459-2.455,2.507-3.172
	c0.663-0.453,1.443-0.821,2.282-1.178c0.229-0.052,0.835-0.401,1.213-1.431c0.19-0.52,0.496-1.55,0.817-2.456
	c0.324-0.913,0.57-1.392,0.92-1.806l0.255-0.357c0.091-0.108-0.109-0.214-0.222-0.298L45.719,9.36
	c-0.934-0.693-1.231-1.256-1.474-1.954c-0.121-0.348-0.257-0.753-0.29-0.971c-0.022-0.151,0.02-0.791,0.017-0.838
	c0.055-0.378,0.523-3.682,3.888-4.039c1.547-0.164,2.867,1.394,3.031,2.985C50.895,4.547,50.918,4.981,50.932,5.474z"/>
<path fill="#F7941E" d="M73.994,88.813c1.045,0.147,1.46,0.92,1.611,1.573c0.074,0.327,0.092,0.642,0.088,0.874
	c-0.002,0.238-0.024,0.396-0.024,0.396s-0.067,0.438-0.239,0.984c-0.168,0.532-0.445,1.213-0.888,1.682
	c-0.785,0.833-3.151,2.918-4.883,3.283c-0.423,0.092-0.851-0.002-1.153-0.101c-0.313-0.103-0.563-0.243-0.563-0.243
	c-0.096-0.111-1.008-1.662-0.035-3.43C68.76,92.283,71.23,88.42,73.994,88.813z"/>
<path fill="#ED174C" d="M68.223,39.452c0.435,0.071,1.039,0.27,1.5,0.451c0.473,0.186,0.889,0.345,0.889,0.345l0.744,0.372
	l0.717,0.199l0.318,0.08c0.17,0.016,0.605,0.01,1.021,0.027c0.248,0.01,0.592,0.009,0.836,0.027c0.26,0.018,0.535,0.043,0.811,0.169
	c0.633,0.291,0.672,0.821,0.607,1.251c-0.031,0.208-0.076,0.306-0.148,0.426c-0.037,0.062-0.093,0.138-0.139,0.197l-0.074,0.093
	c-0.078,0.091-0.225,0.114-0.324,0.045l-1.961-1.343c-0.058-0.039-0.248,0.158-0.263,0.102c-2.327,1.024-4.634,3.363-5.665,5.198
	c-0.628,1.114-0.961,1.87-1.047,2.373c-0.041,0.242,0.035,0.789,0.035,0.789l-0.936,1.138l-0.621,0.771
	c-0.698,0.761-1.332,1.705-1.795,2.63c-0.386,0.769-0.582,1.239-0.658,1.543c-0.059,0.157-0.088,0.329-0.312,0.3
	c-0.86-0.029-2.575-0.6-3.987-1.186c-1.446-0.6-2.783-1.213-2.783-1.213s-6.237-3.283-10.433-4.929
	c-4.163-1.632-7.461-2.137-9.759-2.391c-0.849-0.094-1.191-0.137-1.374-0.087c-0.046,0.11-0.233,0.444-0.286,0.552l-1.732,3.479
	c-0.057,0.117-0.088,0.304-0.367,0.125c-1.003-0.45-1.517-1.609-1.721-2.212c-0.146-0.435-0.1-0.694,0.026-1.075
	c0.046-0.139,0.103-0.385,0.164-0.455c0.051-0.058,0.326-0.34,0.341-0.354l0.721-0.847c-2.606-2.409-2.8-4.73-2.542-6.285
	c0.191-1.149,0.602-1.883,0.615-1.904c0.035-0.053,0.074-0.099,0.117-0.13c0.043-0.031,0.106-0.114,0.191-0.089l0.214,0.025
	c1.151,0,2.741-0.314,2.781-0.328l0.159-0.055c0.066-0.024,0.43-0.291,0.488-0.262c1.571-1.467,2.986-2.061,3.705-2.387
	c0,0,0.327-0.173-0.202-0.639c-0.341-0.376-0.715-0.564-0.885-0.68c-0.438-0.298-0.543-0.954-0.509-1.042
	c0.021-0.052,0.043-0.092,0.057-0.119c0.342-1.119,1.109-1.903,1.786-2.403c0.343-0.254,0.666-0.437,0.902-0.557
	c0.178-0.09,0.479-0.204,0.479-0.204c0.141-0.06,0.47-0.035,0.522,0.087l1.277,3.174c0.143,0.142,0.67,0.784,1.657,1.556
	c0.855,0.67,1.344,1.45,1.783,2.074c0.815,1.161,3.507,3.604,3.526,3.621l0.28,0.085l0.835,0.214
	c0.534-0.09,1.262-0.253,2.085-0.504c1.62-0.495,3.101-1.119,4.224-1.696c3.822-1.966,7.97-2.439,7.979-2.441l0.948-0.063
	l0.585-0.602c0.126-0.105,0.848-0.912,1.566-1.766c0.705-0.838,1.234-1.635,1.238-1.639l0.084-0.102
	c0.092-0.11,0.256-0.119,0.357-0.019l0.095,0.093c2.714,2.465,2.644,4.62,2.648,4.666c0.055,0.653,0.165,1.012-0.392,1.404
	c-0.154,0.11-0.281,0.146-0.404,0.178c-0.094,0.024-0.244-0.002-0.318,0.025c-0.245,0.091-1.014,0.028-1.83-0.012
	c-0.077,0.669,0.327,1.212,0.337,1.226l0.199,0.282c0.063,0.089,0.171,0.211,0.336,0.363C67.547,39.187,68.057,39.425,68.223,39.452
	z"/>
<path d="M46.667,11.545c0,0,1.05-1.721,3.78-1.623c0,0,0.367,0.147,0.21,0.393l0.053,0.639c0,0-2.887-0.049-3.778,1.033
	C46.354,12.135,46.667,11.545,46.667,11.545z M61.866,14.218h-0.584l0.028,0.522c0,0,1.662,0.222,2.336,2.874
	c0,0,0.467-0.55,0.203-1.616c-0.263-1.066-1.226-2.162-2.014-2.189L61.866,14.218z M47.875,18.428c0,0,0.785-1.548-0.473-1.672
	c-0.998-0.099-1.049,1.033-1.049,1.033l-0.315,0.098c0,0,0.104,0.344,0.368,0.442c0.262,0.099,1.186,0.583,1.433,0.925
	c0,0,0.365-0.111,0.287-0.259c-0.079-0.148-0.247-0.379-0.247-0.379L47.875,18.428z M59.057,21.378c0,0-0.054-1.671,0.996-1.598
	c1.051,0.073,0.682,1.524,0.682,1.524L60.5,21.722l0.604,0.442c0,0-0.053,0.147-0.395,0.049c-0.34-0.099-1.363-0.394-2.256-0.394
	v-0.196L59.057,21.378z M49.977,19.566c0,0,3.633-0.536,5.645,1.326c0,0,0.342,0.106,0.184-0.171
	c-0.16-0.277-2.172-2.44-5.828-1.412C49.839,19.417,49.977,19.566,49.977,19.566z M49.702,21.621c0,0.086,0.629,2.542,2.284,2.847
	c1.166,0.214,3.041-0.963,3.063-1.712c0.017-0.493-1.325-2.311-3.017-2.291C50.342,20.487,49.656,21,49.702,21.621z M44.357,22.656
	c0,0-0.262,3.982,1.627,5.949c0,0-0.047,4.11,3.464,4.916c2.782,0.64,4.882-2.802,4.882-2.802s3.044-0.934,4.462-3.146
	c0,0,0.595,0.237,0.918,0.679c0,0,0.207-0.276-0.147-0.664c-0.354-0.387-1.299-0.901-1.711-0.741l0.088,0.299l0.473,0.332
	c0,0-2.385,3.257-6.453,3.036c-1.628-0.089-4.452-0.879-6.1-3.479c-0.609-0.962-1.18-2.45-0.826-4.33c0,0,0.708-0.11,0.679-0.276
	c-0.03-0.166-0.06-0.276-0.06-0.276l-2.03-0.083c0,0-0.644,0.056-0.118,0.359L44.357,22.656z M46.133,32.323
	c0,0,0.016,2.112,1.782,2.319v-0.207c0,0-1.246-0.679-1.498-2.112C46.354,32.146,46.133,32.323,46.133,32.323z"/>
</svg>
