<?xml version="1.0" encoding="utf-8"?>
<!-- Generator: Adobe Illustrator 16.0.0, SVG Export Plug-In . SVG Version: 6.00 Build 0)  -->
<!DOCTYPE svg PUBLIC "-//W3C//DTD SVG 1.1//EN" "http://www.w3.org/Graphics/SVG/1.1/DTD/svg11.dtd">
<svg version="1.1" id="Layer_1" xmlns="http://www.w3.org/2000/svg" xmlns:xlink="http://www.w3.org/1999/xlink" x="0px" y="0px"
	 width="18.492px" height="20.933px" viewBox="6.868 5.48 18.492 20.933" enable-background="new 6.868 5.48 18.492 20.933"
	 xml:space="preserve">
<path fill="#000000" d="M23.898,6.135c-1.571-1.125-3.758-0.764-4.885,0.809l-8.832,12.331c-0.804,1.122-0.545,2.684,0.577,3.488
	c1.123,0.803,2.685,0.545,3.488-0.578l6.235-8.706l-0.813-0.583l-6.234,8.707l0,0c-0.483,0.672-1.42,0.828-2.093,0.347
	s-0.827-1.419-0.345-2.093l0,0l8.831-12.33l0.001-0.001l-0.002-0.001c0.803-1.119,2.369-1.378,3.488-0.576
	c1.121,0.803,1.379,2.369,0.578,3.489v-0.001l-9.681,13.516l0.001,0.001c-1.124,1.569-3.316,1.931-4.885,0.808
	c-1.569-1.125-1.93-3.314-0.807-4.885l7.036-9.821l-0.813-0.582L7.71,19.294c-1.447,2.021-0.982,4.83,1.039,6.277
	c2.021,1.448,4.831,0.981,6.278-1.037l9.68-13.516C25.83,9.447,25.471,7.26,23.898,6.135z"/>
</svg>
