<?xml version="1.0" encoding="utf-8"?>
<!-- Generator: Adobe Illustrator 16.0.0, SVG Export Plug-In . SVG Version: 6.00 Build 0)  -->
<!DOCTYPE svg PUBLIC "-//W3C//DTD SVG 1.1//EN" "http://www.w3.org/Graphics/SVG/1.1/DTD/svg11.dtd">
<svg version="1.1" id="Layer_1" xmlns="http://www.w3.org/2000/svg" xmlns:xlink="http://www.w3.org/1999/xlink" x="0px" y="0px"
	 width="288px" height="288px" viewBox="0 0 288 288" enable-background="new 0 0 288 288" xml:space="preserve">
<path fill="#010101" d="M130.127,126.034c0,0,9.615-9.073,11.783-10.427c2.167-1.354,5.688-2.844,8.26-2.844
	c2.574,0,3.658,1.083,4.875,1.083l0.271-2.843c0,0-0.813-1.219-1.084-1.761s-0.947-1.49-1.354-1.625
	c-0.406-0.135-1.626-0.542-0.271-2.573c1.354-2.031,0.677-2.98,0.406-3.928c-0.271-0.948-0.271-4.469,0.541-6.229
	c0,0-3.115-0.948-3.387-2.574c-0.271-1.625,1.49-2.302,1.49-2.302s-0.678,1.625-0.137,1.625c0.543,0,0.881-4.334,2.201-4.842
	c1.319-0.507,0.813,0.813,1.524,0.306c0.709-0.508,1.521-1.727,3.351-2.032c1.827-0.304,1.627-2.133,4.674-1.929
	c3.047,0.203,3.756,0.304,5.078,0.406c1.319,0.101,7.008,0.711,8.43,1.829c1.422,1.117,3.453,2.741,4.063,3.25
	c0.607,0.508,2.74,3.047,2.74,4.367c0,1.321,0.51,3.25-0.101,4.063s-0.61,3.25-0.61,3.25s-1.728,4.977-1.826,5.892
	c-0.104,0.914-1.221,1.929-1.019,2.945c0.203,1.016-0.1,2.234,1.931,3.047c2.031,0.812,9.446,6.907,14.424,11.68
	c4.978,4.773,15.845,16.252,16.658,18.689c0.812,2.438,1.117,3.149,1.522,4.063c0.404,0.913,1.623,1.219,2.232,1.625
	c0.609,0.405-0.508,1.015,0.609,1.728c1.117,0.711,5.08,3.352,9.955,9.549c4.873,6.193,11.885,13.405,12.797,13.405
	c0.914,0,2.133,0.609,3.557-0.509c1.42-1.117,4.365-1.625,6.906-1.523c2.539,0.104,4.469,1.729,5.484,1.729
	c1.015,0,1.727,0.404,3.453,1.727c1.727,1.32,2.438,5.484,1.93,6.399c-0.508,0.913-1.422,1.319-1.523,0.304
	c-0.102-1.015-1.523-1.422-2.031-1.219c-0.508,0.204-0.305,1.625-1.522,1.016c-1.218-0.608-0.914-1.422-2.033-1.623
	c-1.115-0.205-3.045,1.826-4.771,2.131c-1.727,0.306-8.433,0.813-11.375-1.318c-2.947-2.134-4.875-4.268-8.127-5.994
	s-14.728-8.837-19.703-14.626l-4.064-4.364c0,0-6.398-0.104-9.039-0.714c-2.641-0.608-4.266-1.727-7.719-2.336
	c-3.455-0.608-3.76-1.728-3.76-1.728s-4.367,3.658-6.195,4.367c-1.828,0.711-6.703,6.197-10.258,9.75
	c-3.555,3.558-5.08,5.282-6.299,7.11c-1.217,1.828-2.943,2.742-5.383,4.368c-2.437,1.625-2.844,0.813-4.57,1.625
	c-1.725,0.813-3.146,3.148-3.146,3.654c0,0.51-4.268,3.861-9.447,5.688c-5.181,1.829-15.336,3.759-17.877,2.438
	c-2.538-1.322-4.469-2.743-6.296-2.135c-1.829,0.609-3.759,1.524-6.705,1.83c-2.946,0.305-9.142-1.117-11.578-1.221
	c-2.438-0.102-2.946,1.32-3.962,0.406c-1.015-0.914-1.828-6.094-1.828-6.094l-10.057-1.219c0,0-1.827,0.102-2.641,0.813
	c-0.811,0.712-3.756,3.148-11.984,2.742c-8.227-0.406-12.29-2.234-16.961-2.538c-4.673-0.306-10.666,0.202-13.001,0.202
	c-2.336,0-3.049-0.305-5.384-2.642c-2.336-2.337-7.922-4.977-10.258-6.805c-2.337-1.829-3.149-8.024-0.304-9.853
	c2.844-1.828,4.874-1.22,6.398,0.203c1.524,1.42,6.197,6.094,7.416,7.008c1.218,0.914,4.671,2.031,4.671,3.147v0.712
	c0,0,13.408,0,19.197-0.813c5.79-0.813,12.695-2.539,15.135-2.641c2.437-0.103,2.233-2.133,4.773-2.337
	c2.538-0.202,6.092-0.202,6.398-0.202c0.306,0,0.407-0.712,0.407-0.712s-4.673-7.72-3.251-9.345
	c1.422-1.624,17.673-7.313,22.65-8.633s15.54-4.063,20.517-4.164c4.977-0.102,5.383,1.016,7.719,0.306c0,0,0.204-2.236,1.422-2.032
	c1.219,0.203,1.017,0.507,2.743,0.203c1.727-0.306,2.335-3.658,3.453-4.774c1.119-1.117,3.555-3.351,3.656-3.758
	c0.104-0.406-0.813-1.32-1.625-1.117c-0.812,0.202-4.671,4.671-5.992,4.976c-1.32,0.305-3.352,0.914-4.265-0.406
	c0,0-3.149,1.218-4.673,2.234c-1.522,1.015-2.03,1.015-3.96,1.727c-1.93,0.71-4.773,0.406-7.517-1.626
	c-2.743-2.031-6.398-5.789-7.109-6.093c-0.712-0.306-2.946-1.118-5.283-3.759c-2.336-2.641-2.64-5.281-2.234-6.094
	c0.406-0.813,1.625-0.609,1.83-1.016c0.202-0.406,0.609-1.422,1.218-1.422s1.422-0.914,1.422-1.218c0-0.304,1.625-0.508,2.436-0.508
	c0.814,0,0.308-1.016,1.119-1.016c0.813,0,2.032,0.203,3.353,1.727c1.32,1.523,2.641,2.539,3.046,4.469
	c0.406,1.93-0.608,1.828,0,3.555c0,0,0.406,1.523,3.962,1.625c3.554,0.102,3.047,0.202,4.976-0.914
	c1.929-1.118,3.758-2.438,3.758-2.744C129.45,127.016,129.078,126.271,130.127,126.034z M28.329,120.859
	c7.741,0,14.016,6.275,14.016,14.016s-6.275,14.016-14.016,14.016s-14.016-6.275-14.016-14.016S20.588,120.859,28.329,120.859z"/>
</svg>
