<?xml version="1.0" encoding="utf-8"?>
<!-- Generator: Adobe Illustrator 16.0.0, SVG Export Plug-In . SVG Version: 6.00 Build 0)  -->
<!DOCTYPE svg PUBLIC "-//W3C//DTD SVG 1.1//EN" "http://www.w3.org/Graphics/SVG/1.1/DTD/svg11.dtd">
<svg version="1.1"
	 id="svg3347" xmlns:cc="http://web.resource.org/cc/" xmlns:dc="http://purl.org/dc/elements/1.1/" xmlns:rdf="http://www.w3.org/1999/02/22-rdf-syntax-ns#" xmlns:inkscape="http://www.inkscape.org/namespaces/inkscape" xmlns:svg="http://www.w3.org/2000/svg" xmlns:sodipodi="http://sodipodi.sourceforge.net/DTD/sodipodi-0.dtd" inkscape:output_extension="org.inkscape.output.svg.inkscape" inkscape:version="0.45.1" sodipodi:docname="fleur.svg" sodipodi:docbase="/home/guillom/wikimedia" sodipodi:version="0.32"
	 xmlns="http://www.w3.org/2000/svg" xmlns:xlink="http://www.w3.org/1999/xlink" x="0px" y="0px" width="221.596px"
	 height="275.656px" viewBox="0 0 221.596 275.656" enable-background="new 0 0 221.596 275.656" xml:space="preserve">
<sodipodi:namedview  id="base" showguides="true" bordercolor="#666666" inkscape:cx="496.51438" pagecolor="#ffffff" inkscape:cy="500.96281" borderopacity="1.0" inkscape:zoom="0.31033958" inkscape:pageopacity="0.0" inkscape:pageshadow="2" inkscape:window-width="822" inkscape:window-height="592" inkscape:window-x="0" inkscape:window-y="23" inkscape:current-layer="layer1" inkscape:guide-bbox="true" inkscape:document-units="px">
	</sodipodi:namedview>
<path fill="#3F7D3A" d="M119.206,125.437c-1.195,33.079-4.034,46.875-7.104,114.881c-3.694-60.562-4.855-74.564-7.259-99.506
	c6.572-20.067,14.582-33.588,22.99-38.252c3.436-1.908,6.297-0.952,9.668,0.009l1.56-22.188c-5.514-5.275-16.052,4.445-18.49,7.575
	c-4.62,5.943-9.436,14.535-13.553,24.375c-3.932,9.395-7.97,22.611-11.313,35.854c-6.946-2.527-17.044-12.18-27.795-18.658
	c-1.438-13.355-2.604-24.797-3.354-39.771c-7.542,37.351-30.092-18.046-55.39-14.712c0.002-0.002,18.514,19.479,23.557,24.019
	c8.066,7.264,14.445,15.515,19.497,24.476c-1.381-0.133-2.754-0.14-4.112,0.015c0,0,3.452,3.148,7.733,6.999
	c17.774,37.641,15.319,85.786,16.267,126.372c4.589-5.168,0.792-3.103,5.253-7.011c-2.875-55.345-5.721-85.33-8.067-107.522
	c0.595,0.496,1.118,0.922,1.538,1.25c8.869,6.924,15.62,14.922,20.771,23.646c-1.753,10.29-3.117,21.445-4.744,31.955
	c-2.144,13.841-4.032,28.633-5.375,43.833c-1.199,13.622,1.121,24.397,3.896,9.396c1.938-10.472,3.125-22.303,4.458-33.824
	c1.742-15.065,3.803-29.422,6.296-42.642c13.854,30.479,11.829,67.839,12.685,99.646c3.803-3.711,1.649-2.969,3.688-4.754
	c0.233,0.707-0.007,1.088,1.829,3.949c0.801-47.541-2.174-106.688,25.426-141.097c3.256-4.058,15.208-21.47,15.209-21.469
	C138.634,109.308,124.075,158.82,119.206,125.437z M103.733,144.301c0.22-0.71,0.439-1.41,0.661-2.105
	c-0.26,1.294-0.597,2.365-1.001,3.25C103.507,145.066,103.617,144.676,103.733,144.301z"/>
<path fill="#B7F2FA" stroke="#000000" stroke-width="0.5267" d="M178.956,34.704c7.764-4.323,16.183-9.582,23.635-2.048
	c3.076,3.109,6.172,6.265,8.666,9.876c2.177,3.152,2.994,6.433,4.48,9.816c1.539,3.501,2.588,5.959,2.716,9.928
	c0.106,3.397-0.259,6.848,0.384,10.209c0.574,2.996,2.84,6.758,2.559,9.757c-3.319,0.979-4.32-2.298-5.086-4.69
	c-1.125-3.533-2.204-7.11-4.814-9.86c-2.912-3.063-6.682-3.645-10.967-3.286c-12.85,1.076-26.792,4.589-36.639,13.429
	c-6.063,5.444-10.475,12.5-17.012,17.455c-2.927,2.218-5.578,4.354-9.031,5.473c-6.493,2.103-15.533,2.099-20.209-3.424
	c-2.762-3.263-4.218-7.851-5.563-11.888c-2.823-8.477-3.162-17.51-7.382-25.538c-3.766-7.171-9.187-13.827-16.625-17.367
	c-7.609-3.619-13.837-6.146-20.809,0.115c-1.85,1.662-4.038,5.149-6.217,6.147c-3.368,1.54-2.981-1.946-2.866-5.018
	c0.474-12.724,13.306-14.647,19.974-23.598c1.486-1.996,1.865-4.463,2.931-6.5c3.099-5.937,11.211-8.443,17.366-9.301
	c7.484-1.041,14.495,4.767,18.849,10.396c4.876,6.305,6.635,14.719,8.084,22.352c1.113,5.873,1.475,11.761,2.617,17.516
	c0.924,4.655,1.732,10.742,1.388,15.474c-0.124-5.575-0.585-11.034-0.999-16.558c-0.553-7.395-0.168-15.146-1.824-22.394
	c-1.646-7.212-5.327-14.07-9.714-19.979c-2.069-2.786-7.472-7.257-11.054-7.212c1.082-4.755,10.312-4.059,13.619-3.164
	c13.689,3.701,23.693,14.2,38.491,14.776c7.331,0.285,16.259-3.208,22.961,0.527c2,1.113,3.626,2.891,5.53,4.149
	c1.578,1.039,5.221,2.834,4.939,5.193c-0.298,2.527-6.275,4.669-8.172,5.692c-3.813,2.052-7.131,4.774-10.637,7.289
	c-8.688,6.232-17.168,15.271-23.521,23.85c1.046-3.026,4.632-6.291,6.813-8.571c4.061-4.247,8.735-8.531,13.264-12.298
	C172.149,38.883,175.471,36.645,178.956,34.704z M189.161,83.146c5.415-2.239,11.331-5.041,15.644,0.447
	c1.78,2.266,3.571,4.563,4.932,7.112c1.188,2.226,1.478,4.432,2.193,6.756c0.743,2.405,1.244,4.092,1.026,6.695
	c-0.188,2.229-0.688,4.458-0.521,6.703c0.148,2.002,1.352,4.633,0.938,6.572c-2.25,0.389-2.658-1.829-2.979-3.45
	c-0.47-2.396-0.903-4.815-2.41-6.811c-1.676-2.224-4.101-2.888-6.937-2.978c-8.503-0.268-17.906,0.976-25.029,6.01
	c-4.387,3.101-7.813,7.381-12.473,10.126c-2.086,1.229-3.985,2.425-6.334,2.896c-4.414,0.884-10.338,0.198-12.984-3.766
	c-1.563-2.343-2.17-5.452-2.744-8.192c-1.209-5.755-0.746-11.686-2.9-17.253c-1.926-4.974-4.975-9.734-9.58-12.61
	c-4.714-2.941-8.604-5.063-13.646-1.497c-1.338,0.946-3.037,3.061-4.541,3.548c-2.322,0.753-1.807-1.497-1.498-3.496
	c1.275-8.282,9.83-8.57,14.878-13.918c1.125-1.192,1.563-2.776,2.412-4.027c2.48-3.646,7.987-4.673,12.086-4.768
	c4.984-0.115,9.142,4.211,11.566,8.22c2.717,4.49,3.232,10.124,3.604,15.224c0.284,3.924,0.075,7.8,0.39,11.648
	c0.253,3.113,0.323,7.154-0.263,10.221c0.341-3.654,0.45-7.258,0.6-10.9c0.198-4.875,1.037-9.914,0.501-14.777
	c-0.533-4.839-2.426-9.601-4.854-13.795c-1.146-1.978-4.349-5.309-6.697-5.55c1.067-3.027,7.064-1.874,9.166-1.04
	c8.69,3.455,14.453,11.075,24.105,12.569c4.783,0.741,10.897-0.868,15.008,2.08c1.228,0.879,2.156,2.164,3.313,3.131
	c0.956,0.799,3.205,2.247,2.844,3.769c-0.387,1.63-4.467,2.578-5.787,3.104c-2.652,1.054-5.032,2.583-7.521,3.962
	c-6.166,3.418-12.409,8.687-17.225,13.814c0.916-1.899,3.515-3.764,5.115-5.089c2.981-2.47,6.371-4.917,9.623-7.037
	C184.382,85.364,186.729,84.153,189.161,83.146z"/>
<path fill="#F2CA20" stroke="#000000" stroke-width="0.5267" d="M40.584,40.273c-5.008-4.657-10.333-10.134-17.286-5.872
	c-2.87,1.759-5.764,3.548-8.291,5.789c-2.206,1.956-3.419,4.257-5.153,6.512c-1.793,2.334-3.026,3.979-3.852,6.922
	c-0.706,2.519-1.067,5.164-2.163,7.558c-0.979,2.134-3.363,4.529-3.704,6.822c2.302,1.341,3.652-0.924,4.662-2.571
	c1.49-2.434,2.954-4.909,5.411-6.483c2.736-1.755,5.661-1.497,8.798-0.442c9.405,3.165,19.179,8.352,24.913,16.767
	c3.532,5.183,5.533,11.266,9.507,16.17c1.779,2.195,3.369,4.278,5.744,5.749c4.465,2.764,11.222,4.422,15.729,1.153
	c2.664-1.931,4.597-5.092,6.343-7.862c3.667-5.815,5.578-12.504,10.207-17.729c4.132-4.667,9.403-8.646,15.613-9.925
	c6.354-1.307,11.471-2.051,15.53,3.909c1.077,1.581,2.071,4.59,3.518,5.735c2.233,1.77,2.585-0.906,3.063-3.223
	c1.983-9.596-7.252-13.391-10.592-21.305c-0.744-1.765-0.573-3.678-0.994-5.396c-1.228-5.005-6.827-8.369-11.271-10.141
	c-5.4-2.153-11.708,0.899-15.996,4.306c-4.802,3.816-7.66,9.781-10.146,15.22C78.262,56.12,76.911,60.454,75,64.544
	c-1.545,3.31-3.271,7.709-3.879,11.309c1.115-4.144,2.464-8.139,3.788-12.19c1.771-5.424,2.906-11.288,5.477-16.4
	c2.556-5.086,6.566-9.535,10.93-13.146c2.06-1.702,6.917-4.05,9.585-3.358c0.065-3.753-6.96-4.928-9.596-4.867
	c-10.912,0.251-20.317,6.26-31.479,3.972c-5.532-1.134-11.562-5.384-17.258-3.824c-1.697,0.465-3.238,1.494-4.896,2.085
	c-1.37,0.487-4.42,1.159-4.646,2.974c-0.239,1.943,3.832,4.643,5.063,5.755c2.472,2.234,4.451,4.878,6.606,7.401
	c5.351,6.254,10.025,14.567,13.197,22.145c-0.227-2.454-2.306-5.553-3.517-7.657c-2.253-3.92-4.96-7.979-7.652-11.627
	C44.903,44.647,42.833,42.365,40.584,40.273z M81.836,101.063c-3.825-3.603-7.894-7.839-13.203-4.542
	c-2.192,1.36-4.402,2.744-6.333,4.478c-1.685,1.514-2.611,3.293-3.938,5.038c-1.368,1.806-2.313,3.078-2.94,5.354
	c-0.539,1.948-0.815,3.995-1.652,5.847c-0.748,1.65-2.567,3.504-2.829,5.277c1.76,1.038,2.79-0.715,3.563-1.988
	c1.139-1.884,2.256-3.798,4.133-5.017c2.092-1.357,4.324-1.158,6.719-0.342c7.186,2.448,14.649,6.461,19.028,12.971
	c2.698,4.009,4.226,8.715,7.261,12.509c1.359,1.697,2.573,3.31,4.387,4.447c3.411,2.139,8.572,3.42,12.017,0.893
	c2.034-1.494,3.51-3.939,4.844-6.082c2.801-4.499,4.262-9.673,7.795-13.715c3.156-3.61,7.186-6.688,11.926-7.678
	c4.854-1.011,8.763-1.587,11.861,3.024c0.823,1.223,1.582,3.551,2.688,4.437c1.705,1.369,1.976-0.701,2.341-2.493
	c1.514-7.424-5.54-10.359-8.09-16.481c-0.568-1.365-0.439-2.845-0.763-4.174c-0.936-3.872-5.214-6.475-8.605-7.845
	c-4.126-1.666-8.942,0.695-12.218,3.331c-3.667,2.952-5.854,7.566-7.75,11.773c-1.459,3.236-2.492,6.589-3.951,9.754
	c-1.183,2.561-2.498,5.964-2.963,8.748c0.853-3.205,1.881-6.296,2.893-9.431c1.354-4.195,2.222-8.731,4.183-12.688
	c1.953-3.935,5.018-7.377,8.35-10.169c1.571-1.317,5.283-3.134,7.321-2.599c0.05-2.903-5.315-3.812-7.329-3.765
	c-8.334,0.193-15.52,4.842-24.044,3.071c-4.227-0.876-8.83-4.165-13.182-2.958c-1.297,0.36-2.475,1.156-3.74,1.613
	c-1.046,0.376-3.376,0.896-3.548,2.3c-0.184,1.504,2.929,3.592,3.866,4.452c1.888,1.729,3.4,3.774,5.047,5.727
	c4.085,4.837,7.657,11.269,10.079,17.13c-0.173-1.898-1.761-4.295-2.686-5.923c-1.722-3.032-3.789-6.174-5.846-8.995
	C85.136,104.447,83.554,102.681,81.836,101.063z"/>
</svg>
