<?xml version="1.0" encoding="utf-8"?>
<!-- Generator: Adobe Illustrator 16.0.0, SVG Export Plug-In . SVG Version: 6.00 Build 0)  -->
<!DOCTYPE svg PUBLIC "-//W3C//DTD SVG 1.1//EN" "http://www.w3.org/Graphics/SVG/1.1/DTD/svg11.dtd">
<svg version="1.1" id="Layer_1" xmlns="http://www.w3.org/2000/svg" xmlns:xlink="http://www.w3.org/1999/xlink" x="0px" y="0px"
	 width="100px" height="100px" viewBox="0 0 100 100" enable-background="new 0 0 100 100" xml:space="preserve">
<path d="M56.012,7.861c0,0,1.271,0.895,1.271,2.656c0,3.118-4.619,4.58-5.831,6.178c0,0-0.225-0.372-0.549-0.693
	c-2.656-2.627-6.005-2.685-6.005-5.427c0-1.703,1.443-2.367,2.685-2.367c2.223,0,6.784,4.85,11.46,4.85
	c6.063,0,6.728-6.871,3.437-6.871c-3.58,0-1.646,8.343,5.57,8.343c3.176,0,3.003-3.031,0.896-3.031
	c-3.379,0-4.879,4.359-3.031,4.359c0.26,0,0.49-0.289,0.49-0.289s0.26,0.346,0.26,0.837c0,1.472-2.193,2.136-2.742,0.173
	c0,0-0.23,3.435,3.319,3.435c1.502,0,1.905-1.241,1.905-1.241s-0.26,0.173-0.605,0.173c-1.732,0-2.079-3.406,0.664-3.406
	c3.551,0,3.839,6.496-1.905,6.496c-7.622,0-6.381-12.414,2.714-12.414c8.545,0,8.371,8.199,7.909,9.267c0,0,1.79,0.086,1.56,2.107
	c0,0,0.146-0.231,0.809-0.231c1.271,0,1.415,2.165,0.23,2.165c-0.865,0-0.924-0.866-0.692-1.097c0,0-1.761,0.248-1.761,1.921v64.369
	c0,2.348-0.787,6.975-5.408,6.975c-0.661-0.003-1.131-0.078-1.344-0.171c0,0-0.086,1.79-2.106,1.56c0,0,0.229,0.145,0.229,0.809
	c0,1.271-2.164,1.415-2.164,0.23c0-0.865,0.865-0.924,1.098-0.692c0,0-0.23-1.761-1.906-1.761c-1.443,0-1.414,1.516-2.54,1.355
	c0,0,0.288,0.184,0.288,0.723c0,1.271-2.154,1.463-2.154,0.191c0-1.115,0.963-0.77,0.963-0.77s-0.108-1.609-1.727-1.609v-0.096
	c1.545,0,1.807,1.445,1.807,1.691c0,0.243-0.058,0.301-0.058,0.301s0.029-0.229-0.346-0.229c-0.376,0-0.521,0.261-0.521,0.693
	c0,1.241,1.963,0.995,1.963-0.218c0-0.418-0.273-0.692-0.273-0.692c-0.605-0.173-0.27-0.265-0.27-0.265
	c1.365,0.692,1.121-1.154,2.828-1.154c2.098,0,2.021,2.213,2.021,2.213c0-0.365-1.039-0.73-1.039,0.328
	c0,1.058,1.925,0.98,1.925-0.289c0-0.578-0.192-0.712-0.192-0.712s-0.5-0.271-0.328-0.366c0.174-0.096,0.396,0.23,0.396,0.23
	c1.991,0.261,2.049-1.674,2.049-1.674s0.879,0.213,1.484,0.213c4.404,0,5.163-4.898,5.163-6.814V23.755
	c0-2.097,2.299-1.999,2.299-1.999c-0.366,0-0.731,1.039,0.326,1.039c1.06,0,0.981-1.924-0.288-1.924
	c-0.577,0-0.712,0.192-0.712,0.192s-0.271,0.5-0.366,0.327c-0.096-0.173,0.23-0.395,0.23-0.395c0.261-1.992-1.674-2.05-1.674-2.05
	s0.211-0.837,0.211-1.443c0-10.71-15.531-9.844-15.531-0.577c0,6.505,9.104,6.428,9.104,1.29c0-3.464-4.215-3.156-4.215-0.905
	c0,0.943,0.731,1.424,1.271,1.424s0.75-0.443,0.75-0.443s-0.097,1.829-2.039,1.829c-3.541,0-3.504-3.349-3.504-3.657
	s0.098-0.943,0.271-0.943c0.174,0-0.097,0.673-0.097,0.673c0,2.156,2.502,1.829,2.502,0.327c0-0.577-0.153-0.693-0.153-0.693
	s-0.327,0.135-0.424,0.135c-2.078,0-0.538-4.561,3.118-4.561c2.617,0,2.443,3.214-0.924,3.214c-7.353,0-9.354-8.531-5.523-8.531
	c3.676,0,2.791,7.049-3.406,7.049c-3.189,0-5.484-2.185-9.05-4.162c-3.426-1.9-5.283-0.072-5.283,1.602
	c0,1.544,1.01,2.468,3.436,3.767c2.425,1.299,3.132,2.483,3.132,2.483l-0.087,0.188l0.029,0.043c0.836-1.66,6.147-3.291,6.147-6.625
	c0-1.443-0.707-2.122-0.707-2.122h13.774c0,0-1.348,1.285-1.348,3.344c0,2.06,1.443,3.83,3.329,4.484c0,0,0.751,0.558,0.905,0.404
	c0.152-0.154-0.887-0.481-0.887-0.481s-0.789-0.712-0.789-1.848c0-2.463,3.177-2.617,3.177-0.673c0,1.424-1.599,1.116-1.599,0.616
	c0-0.308,0.25-0.346,0.25-0.346s-0.5,0.038-0.5,0.827c0,0.79,0.867,2.04,4.08,2.04c1.404,0,2.367-0.289,2.367-0.289
	s-0.154,1.636-0.02,2.463c0,0-1.539,0.443-1.463,2.194c0,0-0.135-0.308-0.827-0.308c-1.289,0-1.578,2.04-0.097,2.04
	c0.867,0,0.692-0.885,0.692-0.885s1.438,0.536,1.438,1.864V86.18c-2.313,0-3.811,1.455-4.461,3.33c0,0-0.557,0.751-0.403,0.904
	c0.153,0.154,0.481-0.885,0.481-0.885s0.711-0.789,1.848-0.789c2.464,0,2.617,3.176,0.674,3.176c-1.424,0-1.116-1.598-0.616-1.598
	c0.31,0,0.347,0.25,0.347,0.25s-0.037-0.5-0.828-0.5c-0.787,0-2.039,0.865-2.039,4.08c0,1.404,0.289,2.367,0.289,2.367
	s-2.346-0.154-3.172-0.021c0,0-0.442-1.54-2.194-1.463c0,0,0.31-0.136,0.31-0.827c0-1.289-2.041-1.578-2.041-0.098
	c0,0.867,0.885,0.693,0.885,0.693s-0.52,1.438-1.848,1.438c-1.371,0-1.602-1.3-2.496-1.3c0,0,0.23-0.304,0.23-0.722
	c0-1.487-2.064-1.718-2.064-0.217c0,0.332,0.202,0.751,0.68,0.751c0.346,0,0.39-0.145,0.39-0.145s-0.205,1.47-1.908,1.47v0.087
	c1.599,0,1.994-1.27,1.994-1.645s-0.043-0.289-0.043-0.289c0,0.392-1.024,0.621-1.024-0.287c0-1.271,1.892-0.938,1.892,0.26
	c0,0.39-0.261,0.779-0.261,0.779s-0.504,0.086-0.36,0.229c0.146,0.146,0.462-0.157,0.462-0.157c1.012,0,1.04,1.256,2.525,1.256
	c1.805,0,2.008-1.896,2.008-1.896c0,0.423-0.963,0.48-0.963-0.309c0-1.252,1.848-0.963,1.848,0.211c0,0.541-0.327,0.693-0.327,0.693
	s-0.347,0.038-0.308,0.25c0.037,0.213,0.441-0.135,0.441-0.135c1.81-0.077,1.944,1.501,1.944,1.501
	c1.386-0.192,3.69,0.021,3.69,0.021v-0.115h-0.115c0,0-0.365-0.655-0.365-2.367c0-4.215,2.213-3.889,2.213-3.889
	c-0.52,0.23-0.654,1.752,0.789,1.81c2.077,0.083,1.982-3.521-0.654-3.521c-1.076,0-1.75,0.826-1.75,0.826
	c0-0.365,1.379-3.078,4.021-3.078c0.225,0,0.438,0.014,0.643,0.039l0.01-0.162l-0.164-0.012V23.755c0-1.804-2.027-2.037-2.027-2.037
	c0.424,0,0.48,0.962-0.309,0.962c-1.252,0-0.963-1.848,0.211-1.848c0.539,0,0.693,0.327,0.693,0.327s0.038,0.347,0.25,0.308
	c0.213-0.039-0.135-0.443-0.135-0.443c-0.077-1.809,1.502-1.944,1.502-1.944c-0.193-1.386,0.02-2.983,0.02-2.983h-0.115v0.116
	c0,0-0.654,0.366-2.367,0.366c-4.215,0-3.889-2.213-3.889-2.213c0.23,0.52,1.752,0.654,1.81-0.789
	c0.083-2.077-3.521-1.982-3.521,0.654c0,1.078,0.826,1.751,0.826,1.751c-0.365,0-3.078-1.501-3.078-4.022
	c0-2.733,2.06-4.003,2.06-4.003l-0.385-0.039l-0.212,0.115h-14.42L56.203,7.86h-0.135 M56.271,94.868
	c1.545,0,1.906,1.352,1.906,1.597c0,0.246-0.058,0.305-0.058,0.305s0.028-0.231-0.347-0.231s-0.521,0.26-0.521,0.692
	c0,1.242,1.964,0.996,1.964-0.217c0-0.419-0.273-0.691-0.273-0.691c-0.606-0.174-0.271-0.266-0.271-0.266
	c1.366,0.692,1.058-1.188,2.765-1.188v0.096c-1.442,0-1.312,1.53-2.438,1.371c0,0,0.288,0.184,0.288,0.723
	c0,1.271-2.155,1.463-2.155,0.191c0-1.115,0.963-0.77,0.963-0.77s-0.209-1.517-1.826-1.517v-0.096H56.271z M56.271,96.08
	c1.703,0,2.008-1.563,2.008-1.563s-0.043,0.144-0.389,0.144c-0.478,0-0.68-0.418-0.68-0.75c0-1.501,2.064-1.271,2.064,0.216
	c0,0.42-0.231,0.723-0.231,0.723c0.896,0,1.046,1.231,2.417,1.231v0.087c-1.486,0-1.421-1.203-2.432-1.203
	c0,0-0.317,0.303-0.463,0.159c-0.144-0.146,0.361-0.231,0.361-0.231s0.26-0.39,0.26-0.778c0-1.198-1.891-1.529-1.891-0.261
	c0,0.91,1.023,0.679,1.023,0.289c0,0,0.043-0.086,0.043,0.289s-0.275,1.736-2.094,1.736V96.08H56.271z M51.359,97.223h3.436
	c-0.549-1.256,0.533-2.354,1.477-2.354v0.096c0,0-1.49,0.243-1.49,1.532c0,0.905,0.385,1.133,0.385,1.133h-4.271 M43.989,7.861
	c0,0-1.271,0.895-1.271,2.656c0,3.118,4.619,4.58,5.832,6.178c0,0,0.224-0.372,0.548-0.693c2.655-2.627,6.005-2.685,6.005-5.427
	c0-1.703-1.443-2.367-2.687-2.367c-2.222,0-6.784,4.85-11.46,4.85c-6.062,0-6.726-6.871-3.435-6.871c3.58,0,1.646,8.343-5.572,8.343
	c-3.175,0-3.002-3.031-0.895-3.031c3.377,0,4.878,4.359,3.031,4.359c-0.26,0-0.491-0.289-0.491-0.289s-0.26,0.346-0.26,0.837
	c0,1.472,2.194,2.136,2.743,0.173c0,0,0.231,3.435-3.32,3.435c-1.501,0-1.905-1.241-1.905-1.241s0.26,0.173,0.606,0.173
	c1.732,0,2.079-3.406-0.664-3.406c-3.551,0-3.839,6.496,1.905,6.496c7.622,0,6.38-12.414-2.713-12.414
	c-8.545,0-8.372,8.199-7.91,9.267c0,0-1.79,0.086-1.559,2.107c0,0-0.145-0.231-0.809-0.231c-1.27,0-1.415,2.165-0.231,2.165
	c0.866,0,0.924-0.866,0.693-1.097c0,0,1.754,0.248,1.754,1.921v64.369c0,2.348,0.787,6.975,5.408,6.975
	c0.662-0.003,1.13-0.078,1.344-0.171c0,0,0.086,1.79,2.107,1.56c0,0-0.231,0.145-0.231,0.809c0,1.271,2.165,1.415,2.165,0.23
	c0-0.865-0.866-0.924-1.097-0.692c0,0,0.231-1.761,1.906-1.761c1.443,0,1.414,1.516,2.54,1.355c0,0-0.289,0.184-0.289,0.723
	c0,1.271,2.156,1.463,2.156,0.191c0-1.115-0.962-0.77-0.962-0.77s0.108-1.609,1.725-1.609v-0.096c-1.544,0-1.807,1.445-1.807,1.691
	c0,0.243,0.058,0.301,0.058,0.301s-0.029-0.229,0.346-0.229s0.52,0.261,0.52,0.693c0,1.241-1.963,0.995-1.963-0.218
	c0-0.418,0.274-0.692,0.274-0.692c0.606-0.173,0.27-0.265,0.27-0.265c-1.367,0.692-1.122-1.154-2.83-1.154
	c-2.098,0-2.021,2.213-2.021,2.213c0-0.365,1.039-0.73,1.039,0.328c0,1.058-1.924,0.98-1.924-0.289c0-0.578,0.192-0.712,0.192-0.712
	s0.5-0.271,0.327-0.366c-0.173-0.096-0.395,0.23-0.395,0.23c-1.992,0.261-2.05-1.674-2.05-1.674s-0.877,0.213-1.484,0.213
	c-4.405,0-5.163-4.898-5.163-6.814V23.754c0-2.097-2.291-1.999-2.291-1.999c0.365,0,0.731,1.039-0.327,1.039
	c-1.059,0-0.982-1.924,0.289-1.924c0.577,0,0.712,0.192,0.712,0.192s0.27,0.5,0.366,0.327c0.096-0.173-0.231-0.395-0.231-0.395
	c-0.26-1.992,1.674-2.05,1.674-2.05s-0.211-0.837-0.211-1.443c0-10.71,15.531-9.844,15.531-0.577c0,6.505-9.103,6.428-9.103,1.29
	c0-3.464,4.215-3.156,4.215-0.905c0,0.943-0.731,1.424-1.27,1.424s-0.75-0.443-0.75-0.443s0.096,1.829,2.04,1.829
	c3.541,0,3.502-3.349,3.502-3.657s-0.096-0.943-0.27-0.943s0.096,0.673,0.096,0.673c0,2.156-2.502,1.829-2.502,0.327
	c0-0.577,0.154-0.693,0.154-0.693s0.327,0.135,0.423,0.135c2.079,0,0.539-4.561-3.118-4.561c-2.618,0-2.444,3.214,0.924,3.214
	c7.352,0,9.353-8.531,5.523-8.531c-3.676,0-2.791,7.049,3.406,7.049c3.19,0,5.485-2.185,9.05-4.162
	c3.425-1.9,5.283-0.072,5.283,1.603c0,1.544-1.012,2.468-3.436,3.767c-2.425,1.299-3.133,2.483-3.133,2.483l0.086,0.188
	l-0.028,0.043c-0.837-1.66-6.149-3.291-6.149-6.625c0-1.443,0.708-2.122,0.708-2.122H29.478c0,0,1.347,1.285,1.347,3.344
	c0,2.06-1.443,3.83-3.33,4.484c0,0-0.75,0.558-0.904,0.404c-0.154-0.154,0.885-0.481,0.885-0.481s0.789-0.712,0.789-1.848
	c0-2.463-3.175-2.617-3.175-0.673c0,1.424,1.597,1.116,1.597,0.616c0-0.308-0.25-0.346-0.25-0.346s0.5,0.038,0.5,0.827
	c0,0.79-0.866,2.04-4.08,2.04c-1.405,0-2.368-0.289-2.368-0.289s0.154,1.636,0.02,2.463c0,0,1.54,0.443,1.462,2.194
	c0,0,0.135-0.308,0.828-0.308c1.29,0,1.578,2.04,0.096,2.04c-0.866,0-0.692-0.885-0.692-0.885s-1.446,0.536-1.446,1.864v62.425
	c2.313,0,3.81,1.455,4.46,3.33c0,0,0.559,0.751,0.404,0.904c-0.154,0.155-0.481-0.886-0.481-0.886s-0.712-0.789-1.848-0.789
	c-2.463,0-2.617,3.177-0.674,3.177c1.424,0,1.117-1.599,0.616-1.599c-0.308,0-0.347,0.252-0.347,0.252s0.039-0.502,0.828-0.502
	s2.04,0.867,2.04,4.08c0,1.405-0.289,2.367-0.289,2.367s2.344-0.154,3.172-0.02c0,0,0.443-1.54,2.194-1.463
	c0,0-0.308-0.135-0.308-0.827c0-1.289,2.04-1.578,2.04-0.097c0,0.865-0.885,0.692-0.885,0.692s0.52,1.438,1.848,1.438
	c1.371,0,1.602-1.299,2.497-1.299c0,0-0.231-0.305-0.231-0.723c0-1.486,2.064-1.718,2.064-0.217c0,0.332-0.202,0.751-0.678,0.751
	c-0.347,0-0.39-0.146-0.39-0.146s0.205,1.471,1.908,1.471v0.087c-1.598,0-1.994-1.269-1.994-1.644s0.043-0.289,0.043-0.289
	c0,0.391,1.025,0.621,1.025-0.289c0-1.271-1.891-0.938-1.891,0.261c0,0.39,0.26,0.778,0.26,0.778s0.505,0.088,0.361,0.23
	c-0.144,0.146-0.461-0.158-0.461-0.158c-1.011,0-1.04,1.256-2.526,1.256c-1.804,0-2.006-1.896-2.006-1.896
	c0,0.423,0.962,0.479,0.962-0.31c0-1.25-1.848-0.961-1.848,0.213c0,0.539,0.327,0.692,0.327,0.692s0.347,0.038,0.308,0.25
	s-0.443-0.135-0.443-0.135c-1.809-0.077-1.944,1.501-1.944,1.501c-1.385-0.191-3.691,0.02-3.691,0.02v-0.115h0.115
	c0,0,0.366-0.654,0.366-2.366c0-4.216-2.213-3.888-2.213-3.888c0.52,0.229,0.654,1.75-0.789,1.809
	c-2.077,0.083-1.982-3.521,0.655-3.521c1.078,0,1.751,0.828,1.751,0.828c0-0.365-1.378-3.08-4.022-3.08
	c-0.224,0-0.438,0.015-0.643,0.039l-0.009-0.162l0.163-0.011v-62.42c0-1.804,2.036-2.037,2.036-2.037
	c-0.423,0-0.481,0.962,0.308,0.962c1.251,0,0.962-1.848-0.211-1.848c-0.539,0-0.693,0.327-0.693,0.327s-0.039,0.347-0.25,0.308
	s0.135-0.443,0.135-0.443c0.077-1.809-1.501-1.944-1.501-1.944c0.192-1.386-0.019-2.983-0.019-2.983h0.115v0.116
	c0,0,0.654,0.366,2.367,0.366c4.215,0,3.888-2.213,3.888-2.213c-0.231,0.52-1.751,0.654-1.809-0.789
	c-0.083-2.077,3.522-1.982,3.522,0.654c0,1.078-0.828,1.751-0.828,1.751c0.366,0,3.08-1.501,3.08-4.022
	c0-2.733-2.06-4.003-2.06-4.003l0.385-0.039l0.212,0.115h14.415l0.154-0.173h0.135 M43.722,94.868c-1.544,0-1.908,1.352-1.908,1.597
	c0,0.246,0.058,0.305,0.058,0.305s-0.029-0.231,0.346-0.231s0.52,0.26,0.52,0.692c0,1.242-1.963,0.996-1.963-0.217
	c0-0.419,0.274-0.691,0.274-0.691c0.606-0.174,0.27-0.266,0.27-0.266c-1.367,0.692-1.057-1.188-2.765-1.188v0.096
	c1.443,0,1.312,1.53,2.438,1.371c0,0-0.289,0.184-0.289,0.723c0,1.271,2.156,1.463,2.156,0.191c0-1.115-0.962-0.77-0.962-0.77
	s0.209-1.517,1.826-1.517L43.722,94.868L43.722,94.868z M43.722,96.08c-1.703,0-2.009-1.563-2.009-1.563s0.043,0.144,0.39,0.144
	c0.476,0,0.678-0.418,0.678-0.75c0-1.501-2.064-1.271-2.064,0.216c0,0.42,0.231,0.723,0.231,0.723c-0.895,0-1.046,1.231-2.417,1.231
	v0.087c1.487,0,1.421-1.203,2.432-1.203c0,0,0.317,0.303,0.461,0.159c0.145-0.146-0.361-0.231-0.361-0.231s-0.26-0.39-0.26-0.778
	c0-1.198,1.891-1.529,1.891-0.261c0,0.91-1.025,0.679-1.025,0.289c0,0-0.043-0.086-0.043,0.289s0.277,1.736,2.095,1.736
	L43.722,96.08L43.722,96.08z M49.997,93.095c0,0,0,0.906-1.103,1.356c-0.707,0.289-0.967,0.707-0.967,0.707s-0.216,0.708-0.462,0.65
	c-0.245-0.06,0.347-0.766,0.347-0.766s0-0.723-0.635-0.723c-0.635,0-0.88,0.49-0.88,0.49s-0.231,0.707-0.39,0.649
	c-0.159-0.058,0.188-0.592,0.317-0.823c0.13-0.229,0.072-1.5-1.14-1.5s-1.227,1.545-0.303,1.545c0.693,0,0.39-0.664,0.39-0.664
	s0.303,0.071,0.303,0.735s-0.643,1.412-1.75,1.412V96.08c0.646,0,1.628-0.286,1.628-1.594c0,0-0.108,0.304-0.606,0.304
	c-0.989,0-1.046-1.797,0.469-1.797c1.075,0,1.378,1.147,1.111,1.646c0,0,0.317-0.49,0.844-0.49s0.794,0.49,0.736,0.815
	c0,0,0.202-0.304,1.018-0.643c0.816-0.339,1.088-1.154,1.074-1.603c-0.015,0.447,0.258,1.264,1.074,1.603s1.018,0.643,1.018,0.643
	c-0.058-0.325,0.209-0.815,0.736-0.815s0.845,0.49,0.845,0.49c-0.269-0.496,0.035-1.646,1.111-1.646
	c1.516,0,1.458,1.797,0.469,1.797c-0.498,0-0.606-0.304-0.606-0.304c0,1.308,0.981,1.594,1.629,1.594v0.087
	c-1.108,0-1.752-0.748-1.752-1.412s0.305-0.735,0.305-0.735s-0.305,0.664,0.39,0.664c0.925,0,0.909-1.545-0.303-1.545
	c-1.213,0-1.271,1.271-1.142,1.5c0.131,0.231,0.478,0.767,0.317,0.823c-0.157,0.058-0.39-0.649-0.39-0.649s-0.245-0.49-0.881-0.49
	c-0.635,0-0.635,0.723-0.635,0.723s0.592,0.706,0.346,0.766c-0.244,0.058-0.461-0.65-0.461-0.65s-0.26-0.418-0.967-0.707
	C49.996,94.001,49.997,93.095,49.997,93.095z M51.374,97.223c0-2.007-3.232-2.353-3.232-4.199c0-0.795,0.52-0.823,0.52-0.823H27.329
	c0,0,2.062-1.026,1.837-3.563c-0.326-3.695-3.642-1.71-3.642-5.404c0-1.963,1.603-2.453,1.603-1.342c0,0.967-2.339,1.15-2.339-0.985
	l0.014-61.626c0,0,0.911,1.516,3.524,1.516c3.709,0,6.079-3.32,9.773-3.32c1.963,0,2.454,1.603,1.343,1.603
	c-0.967,0-1.198-2.671,0.938-2.671c0.765,0,1.313,0.606,1.313,0.606c0.708,0.924,0.837,0.534,0.837,0.534
	c-1.155-0.534-1.357-2.829,0.462-2.829c1.847,0,1.616,1.934,0.592,1.934c-0.708,0-0.505-0.548-0.505-0.548l-0.216,0.26
	c0,1.256,1.594,1.205,2.2,1.205c1.231,0,2.114-0.2,2.114-0.2s-1.607-0.708-0.212-1.944c1.347-1.193,5.023-3.561,6.313-4.426
	c1.289-0.866,2.156-1.347,3.465-1.347c3.771,0,3.253,4.657-0.135,4.657c-2.194,0-7.411-3.406-8.854-5.042
	c-1.362-1.544-0.135-2.81,1.001-2.81c0.885,0,1.405,0.943,3.252,0.943c2.655,0,3.214-2.271,4.984-2.271
	c0.212,0,0.462,0.02,0.462,0.02c-0.827,0-1.137,1.828,0.576,1.828c2.156,0,2.195-3.368-0.653-3.368
	c-1.616,0-2.136,0.539-2.136,0.539c0.424-0.616,0.115-1.482-0.731-1.482c-0.846,0-0.827,0.808-0.847,0.981s-0.077,0.481-0.424,0.423
	c-0.348-0.058-0.365,0.077-0.365,0.077s0.615,0,0.615,0.75c0,1.02-1.387,1.29-1.481,0.635c-0.097-0.654,0.597-0.481,0.675-1.136
	c0.075-0.654-0.539-0.75-0.867-0.789c-0.326-0.038-0.635,0.27-0.635,0.27c0.365-0.789-0.309-1.174-0.867-1.521
	c-0.558-0.346-0.481-0.692-0.481-0.692l-0.145,0.23c0,0-0.115,0.385-0.596,0.578c-0.481,0.192-1.02,0.597-0.857,1.386
	c0,0-0.058-0.164-0.471-0.164c-0.413,0-0.75,0.221-0.75,0.577c0,0.578,0.606,0.645,0.606,1.174c0,0.625-1.241,0.385-1.241-0.587
	c0-0.645,0.577-0.818,0.577-0.818s-0.058-0.154-0.346,0.048c0,0-0.125,0.029-0.289,0.029s-0.347-0.067-0.347-0.366
	s-0.269-0.693-0.798-0.693c-0.529,0-0.924,0.385-0.751,0.991c0,0-0.645-0.433-1.684-0.433c-3.021,0-3.06,3.368-0.914,3.368
	c0.934,0,1.309-0.529,1.309-1.078c0-0.548-0.453-0.76-0.828-0.731c0,0,0.202-0.106,0.654-0.106c1.886,0,3.156,2.357,5.138,2.357
	c1.299,0,1.79-1.078,3.021-1.078c1.231,0,2.551,2.107,0.299,3.667c-2.252,1.559-5.759,4.21-7.91,4.21
	c-3.58,0-3.464-4.316,0.087-4.316c1.039,0,1.876,0.577,2.887,1.198c1.01,0.621,5.275,3.227,6.105,4.056
	c0.83,0.83,1.184,1.718,0.332,2.411c0,0,1.328,0.058,1.936,0.058c0.604,0,2.279-0.014,2.279-1.27l-0.217-0.26
	c0,0,0.202,0.548-0.505,0.548c-1.024,0-1.256-1.934,0.592-1.934c1.818,0,1.616,2.295,0.462,2.829c0,0,0.131,0.39,0.838-0.534
	c0,0,0.549-0.605,1.313-0.605c2.137,0,1.904,2.671,0.938,2.671c-1.111,0-0.621-1.603,1.342-1.603c3.695,0,6.092,3.219,9.803,3.219
	c2.611,0,3.492-1.415,3.492-1.415l0.011,61.625c0,2.138-2.339,1.953-2.339,0.986c0-1.111,1.603-0.621,1.603,1.342
	c0,3.694-3.315,1.709-3.642,5.404c-0.225,2.536,1.838,3.563,1.838,3.563H51.331c0,0,0.521,0.028,0.521,0.823
	c0,1.848-3.347,2.316-3.076,4.199h-3.577c0.549-1.256-0.534-2.354-1.476-2.354v0.096c0,0,1.491,0.243,1.491,1.532
	c0,0.905-0.385,1.133-0.385,1.133h4.226c0,0-0.191-0.219-0.191-0.608c0-1.543,3.076-2.266,3.076-3.955
	c0-0.508-0.135-0.635-0.135-0.635h21.539c-0.347-0.135-2.021-0.861-2.021-3.748c0-3.599,3.524-1.773,3.524-5.488
	c0-2.156-2.101-2.444-2.101-1.252c0,1.117,2.955,1.392,2.955-1.284L75.725,18.3c-0.135,0.346-1.16,2.32-4.048,2.32
	c-3.599,0-6.101-3.214-9.815-3.214c-2.154,0-2.443,1.79-1.25,1.79c1.115,0,1.598-2.868-1.077-2.868
	c-0.539,0-1.155,0.481-1.155,0.481c0.424-0.539,0.27-2.175-1.501-2.175c-1.616,0-1.771,2.079-0.442,2.079
	c0.289,0,0.539-0.211,0.539-0.211c-0.289,0.962-1.136,1-2.078,1.02c-0.943,0.019-1.56-0.039-1.56-0.039s-0.231,0.115-0.097,0.039
	c0.135-0.077,0.886-1.097-0.577-2.425c-1.463-1.328-4.33-3.175-5.908-4.099s-2.422-1.174-3.06-1.174
	c-3.946,0-3.811,4.484-0.135,4.484c2.598,0,6.755-3.426,7.967-4.272c1.213-0.847,1.25-1.501,1.25-1.963
	c0-0.462-0.096-1.79-1.654-1.79c-1.193,0-1.597,1.04-3.041,1.04c-2.021,0-2.656-2.329-5.081-2.329c-1.04,0-1.271,0.443-1.271,0.443
	S42,5.282,42.289,5.282c0.981,0,0.886,1.616-0.442,1.616c-2.117,0-1.944-3.194,0.885-3.194c0.597,0,1.29,0.173,1.636,0.423
	c0.347,0.25,0.578,0.77,0.674,0.52s-0.559-0.674-0.559-0.674c-0.25-0.962,1.271-1.097,1.271-0.289c0,0.714,0.77,0.481,0.77,0.481
	S46.311,4.357,46.311,4.8c0,1.271,1.54,1.386,1.54,0.558c0-0.442-0.75-0.462-0.75-1.059c0-0.327,0.173-0.52,0.674-0.52
	c0.5,0,0.481,0.231,0.481,0.231s0.27,0.654,0.327,0.539c0.146-0.293-0.231-0.712-0.231-0.712c-0.211-0.943,0.616-1.213,0.924-1.386
	c0.308-0.173,0.443-0.462,0.443-0.462s0.115,0.328,0.423,0.52c0.308,0.192,1.232,0.385,1.04,1.366c0,0-0.404,0.212-0.289,0.423
	c0.115,0.212,0.328-0.346,0.328-0.346s0.114-0.25,0.653-0.25s0.614,0.269,0.614,0.616c0,0.346-0.614,0.635-0.614,1.001
	c0,0.365,0.135,0.654,0.692,0.654c0.559,0,1.021-0.442,1.021-1.174c0-0.577-0.347-0.673-0.347-0.673s0.48,0.115,0.539-0.539
	c0.058-0.654,0.441-0.712,0.712-0.712s1.405,0.539,0.366,1.693c0,0,0.058,0.135,0.558-0.346c0.501-0.481,1.021-0.52,1.636-0.52
	c3.139,0,2.868,3.156,0.981,3.156c-1.616,0-1.116-1.771-0.25-1.54c0,0-0.173-0.308-0.654-0.308c-2.04,0-2.387,2.29-5.233,2.29
	c-1.271,0-1.694-0.981-3.003-0.981c-1.308,0-2.533,1.168-1.347,2.829c0.77,1.078,6.12,5.254,9.063,5.254
	c4.022,0,3.889-4.831,0.192-4.831c-1.675,0-2.481,0.75-3.562,1.347c-1.076,0.597-5.407,3.522-6.504,4.6
	c-1.097,1.078-0.058,1.828-0.058,1.828s-1.074,0.115-1.613,0.115c-0.943-0.019-1.748,0-2.037-0.962c0,0,0.25,0.211,0.539,0.211
	c1.328,0,1.174-2.079-0.442-2.079c-1.771,0-1.925,1.636-1.501,2.175c0,0-0.616-0.481-1.155-0.481c-2.675,0-2.194,2.868-1.078,2.868
	c1.193,0,0.859-1.905-1.296-1.905c-3.714,0-6.171,3.329-9.77,3.329c-2.887,0-3.908-2.051-4.042-2.398l0.011,62.436
	c0,2.676,2.955,2.4,2.955,1.285c0-1.193-2.1-0.905-2.1,1.25c0,3.716,3.523,1.892,3.523,5.49c0,2.887-1.674,3.612-2.021,3.747h21.452
	c0,0-0.128-0.043-0.128,0.636c0,1.688,3.156,2.41,3.156,3.955c0,0.39-0.221,0.597-0.221,0.597"/>
</svg>
