<?xml version="1.0" encoding="utf-8"?>
<!-- Generator: Adobe Illustrator 16.0.0, SVG Export Plug-In . SVG Version: 6.00 Build 0)  -->
<!DOCTYPE svg PUBLIC "-//W3C//DTD SVG 1.1//EN" "http://www.w3.org/Graphics/SVG/1.1/DTD/svg11.dtd">
<svg version="1.1" id="Layer_1" xmlns="http://www.w3.org/2000/svg" xmlns:xlink="http://www.w3.org/1999/xlink" x="0px" y="0px"
	 width="22.5px" height="19.755px" viewBox="4.069 5.773 22.5 19.755" enable-background="new 4.069 5.773 22.5 19.755"
	 xml:space="preserve">
<path d="M24.568,12.125h-2.119c-0.207-1.34-1.247-2.759-2.444-3.967c-1.276-1.24-2.653-2.234-3.784-2.37
	c-0.062-0.008-0.123-0.014-0.197-0.015h-7.43c-0.119,0-0.235,0.047-0.319,0.132c-0.083,0.083-0.132,0.2-0.132,0.32v5.9H6.069
	c-1.104,0-2,0.896-2,2V23h4.074v2.078c0,0.119,0.046,0.23,0.132,0.318c0.086,0.085,0.199,0.131,0.319,0.131h13.445
	c0.118,0,0.232-0.046,0.318-0.131s0.138-0.199,0.138-0.318V23h4.073v-8.875C26.568,13.021,25.674,12.125,24.568,12.125z
	 M21.589,24.625H9.043V21.5h12.546V24.625z M21.589,13.92c0-0.029,0-0.063-0.003-0.096c-0.016-0.068-0.063-0.135-0.124-0.199H9.043
	V6.675h6.986v0.001c0.306-0.019,0.568,0.282,0.77,0.971c0.184,0.655,0.229,1.509,0.229,2.102c0.002,0.433-0.019,0.725-0.019,0.725
	l-0.036,0.478l0.479,0.006c0.002,0,1.108,0.014,2.196,0.26c1.043,0.226,1.859,0.675,1.938,1.184
	c0.003,0.045,0.003,0.092,0.003,0.133V13.92z"/>
</svg>
