<?xml version="1.0" encoding="utf-8"?>
<!-- Generator: Adobe Illustrator 16.0.0, SVG Export Plug-In . SVG Version: 6.00 Build 0)  -->
<!DOCTYPE svg PUBLIC "-//W3C//DTD SVG 1.1//EN" "http://www.w3.org/Graphics/SVG/1.1/DTD/svg11.dtd">
<svg version="1.1" id="Layer_1" xmlns="http://www.w3.org/2000/svg" xmlns:xlink="http://www.w3.org/1999/xlink" x="0px" y="0px"
	 width="100px" height="100px" viewBox="0 0 100 100" enable-background="new 0 0 100 100" xml:space="preserve">
<path fill="#F9F39F" d="M57.757,25.676c-1.815,0.798-2.657,2.056-3.028,2.579c0.771,1.292,1.496,2.65,2.144,4.044
	c0.479-0.552,1.554-1.62,3.397-2.389c1.735-0.72,3.232-0.849,4.039-0.865c-0.764-1.358-1.621-2.708-2.543-4.016
	C60.988,24.957,59.499,24.957,57.757,25.676z M66.166,69.574c-0.021,0.058-0.021,0.094,0,0.094c0,0,0.501-1.634,0.377-1.031
	c0.064-0.203,0.27-0.74,0.531-1.568c-0.467,1.308-0.828,2.18-0.908,2.469C66.166,69.551,66.166,69.551,66.166,69.574z M39.74,5.438
	c0.567,0.334,1.134,0.639,1.7,0.958C40.874,6.077,40.307,5.771,39.74,5.438z M66.166,69.574c0-0.023,0-0.023,0-0.038
	c0.16-0.696,1.794-4.415,2.825-10.151c-0.204-0.225-0.765-0.791-1.78-1.234c-0.98-0.457-2.055-0.625-2.402-0.659
	c1.074,6.84,0.951,11.372,0.93,11.35c0.021,0.022-0.102-4.487-1.395-11.313c-0.604,0.24-2.884,1.25-5.011,3.015
	c-2.019,1.618-3.108,3.237-3.507,3.79c5.977,3.827,10.439,5.302,10.34,5.338C66.145,69.668,66.145,69.632,66.166,69.574z
	 M66.064,68.781c0,0.021,0.021,0.035,0.021,0.021C66.086,68.816,66.064,68.805,66.064,68.781z M47.278,10.571
	c-1.373-0.973-2.767-1.931-4.284-2.869c-0.465,0.146-1.359,0.436-2.005,1.119c-0.668,0.719-0.749,1.438-0.806,1.737
	c1.031,0.929,2.143,1.959,3.274,3.106c0.059-0.522,0.48-1.364,1.032-1.698C45.942,10.885,47.155,10.622,47.278,10.571z
	 M32.508,1.908c0,0.038,0,0.065,0,0.087c2.055,0.865,4.037,1.787,5.94,2.782C36.545,3.768,34.607,2.823,32.508,1.908z
	 M66.936,51.854c-1.356,0.116-2.549,0.479-3.035,0.646c0,0.036,0.022,0.095,0.037,0.159c0.449-0.146,1.742-0.544,3.194-0.449
	c1.38,0.063,2.244,0.493,2.593,0.711c0.043-0.349,0.051-0.683,0.072-1.045C69.311,51.796,68.243,51.688,66.936,51.854z
	 M69.768,47.534c-0.369-0.145-1.582-0.61-3.354-0.719c-1.786-0.13-3.441,0.204-3.85,0.248c0.537,1.902,0.98,3.703,1.336,5.394
	c0.486-0.217,1.643-0.747,3.078-0.893c1.389-0.139,2.377,0.108,2.797,0.27C69.84,50.439,69.84,49.022,69.768,47.534z M51.498,18.755
	c1.152-1.212,2.605-1.67,3.391-1.836c-2.259-2.222-4.808-4.343-7.61-6.347c-0.123,0.074-1.336,0.385-2.687,1.459
	c-0.69,0.487-0.625,1.168-0.952,1.794c2.135,2.17,4.43,4.734,6.63,7.676C50.306,20.963,50.465,19.91,51.498,18.755z M69.479,55.957
	c-0.319-0.166-1.133-0.566-2.268-0.77c-1.212-0.239-2.38-0.168-2.802-0.168c0.139,0.851,0.305,1.643,0.397,2.426
	c0.385,0,1.569-0.059,2.651,0.443c0.987,0.449,1.408,1.117,1.532,1.416C69.193,58.26,69.354,57.12,69.479,55.957z M67.379,54.927
	c1.176,0.203,1.814,0.704,2.12,0.958c0.103-0.922,0.181-1.896,0.239-2.904c-0.385-0.146-1.395-0.442-2.688-0.5
	c-1.394-0.088-2.621,0.115-3.113,0.201c0.166,0.809,0.326,1.549,0.449,2.303C64.831,54.927,66.064,54.688,67.379,54.927z
	 M57.352,57.389c-3.313,2.418-4.357,4.988-4.438,4.975c0.967,0.703,1.976,1.365,2.89,1.968c0.321-0.603,1.25-2.28,3.313-3.937
	c2.201-1.814,4.583-2.688,5.215-2.903c-0.247-1.177-0.51-2.412-0.784-3.697C62.645,54.193,59.979,55.427,57.352,57.389z
	 M41.693,27.187c5.2-1.917,9.239-1.381,10.69-1.068c-0.626-1.017-1.25-1.968-1.896-2.911c-1.416-0.553-4.728-1.524-9.455-0.975
	c-5.983,0.727-10.508,3.479-11.009,3.66c0.421,2.157,1.025,4.198,1.67,6.361C33.073,31.304,36.711,28.937,41.693,27.187z
	 M41.76,27.426c-4.888,1.722-8.62,3.958-10.043,4.873c0.144,0.363,0.225,0.741,0.349,1.104c0.159,0.567,0.32,1.111,0.479,1.656
	c1.184-1.104,4.496-4.044,9.783-6.158c5.597-2.143,9.818-1.256,11.197-0.886c-0.371-0.646-0.711-1.27-1.096-1.858
	C50.966,25.916,46.894,25.524,41.76,27.426z M56.29,23.889c1.634-0.884,3.063-1.008,3.958-0.972
	c-1.198-1.511-2.463-3.006-3.841-4.458c-0.749,0.173-2.237,0.726-3.371,1.938c-1.009,1.089-1.415,2.143-1.619,2.709
	c0.808,1.154,1.619,2.33,2.383,3.579C54.082,26.032,54.714,24.921,56.29,23.889z M52.746,20.273c1.234-1.293,2.84-1.714,3.602-1.86
	c-0.449-0.487-0.93-0.965-1.414-1.459c-0.705,0.247-2.107,0.791-3.108,1.91c-1.054,1.125-1.359,2.214-1.496,2.723
	c0.319,0.442,0.683,0.922,1.053,1.438C51.46,22.416,51.736,21.406,52.746,20.273z M45.281,55.957c0.08-0.53,0.298-4.328,4.887-8.184
	c4.154-3.479,8.678-5.243,9.898-5.664c-0.443-1.206-0.93-2.462-1.461-3.718c-1.611,0.473-6.303,1.968-10.704,5.221
	c-4.591,3.371-6,6.994-6.42,8.097c0.966,1.234,2.013,2.391,3.044,3.457C44.794,55.427,45.034,55.688,45.281,55.957z M62.993,35.247
	c1.873-0.522,3.42-0.463,4.103-0.407c-0.564-1.438-1.257-2.912-2.019-4.377c-0.813-0.023-2.31,0.015-4.089,0.492
	c-1.772,0.473-3.203,1.22-3.95,1.621c0.151,0.347,0.305,0.646,0.442,0.973c0.565,1.176,1.111,2.338,1.611,3.514
	C59.659,36.662,61.068,35.778,62.993,35.247z M68.831,40.52c-0.442-0.306-1.699-1.009-3.754-0.988
	c-2.187-0.021-4.146,0.624-4.714,0.783c0.748,1.997,1.402,3.979,1.962,5.897c0.587-0.276,2.062-0.885,3.862-1.053
	c1.611-0.173,2.804,0.088,3.414,0.262c-0.017-0.173-0.043-0.378-0.043-0.538C69.441,43.446,69.193,41.994,68.831,40.52z
	 M64.023,36.169c1.778,0,3.072,0.364,3.775,0.632c-0.225-0.632-0.421-1.248-0.703-1.923c-0.684,0.021-2.229,0.123-4.053,0.624
	c-1.852,0.515-3.305,1.235-3.966,1.599c0.095,0.166,0.138,0.311,0.219,0.448C59.82,37.288,61.643,36.256,64.023,36.169z
	 M66.122,45.421c-1.69,0.168-3.188,0.609-3.797,0.842c0.063,0.108,0.087,0.254,0.123,0.386c0.362-0.146,2.04-0.814,4.036-0.864
	c1.541-0.059,2.629,0.276,3.195,0.493c-0.043-0.268-0.043-0.529-0.078-0.79C68.991,45.384,67.698,45.248,66.122,45.421z
	 M65.191,39.248c2.063,0,3.197,0.785,3.64,1.171c-0.276-1.156-0.604-2.324-1.011-3.517c-0.688-0.188-2.098-0.463-3.883-0.443
	c-2.237,0.036-4.117,0.901-4.642,1.125C59.658,38.5,60.029,39.4,60.35,40.3C60.932,40.075,62.85,39.263,65.191,39.248z
	 M50.408,47.919c-4.48,3.754-5.018,7.529-5.09,8.017c0.885,0.887,1.779,1.715,2.621,2.506c0.21-0.369,1.053-3.739,4.831-7.334
	c3.354-3.093,7.377-4.35,8.771-4.676c-0.472-1.401-0.914-2.818-1.474-4.292C58.896,42.604,54.468,44.499,50.408,47.919z
	 M66.413,46.06c-1.903,0.036-3.603,0.502-3.965,0.603c0.036,0.136,0.079,0.261,0.116,0.399c0.406-0.103,2.063-0.646,3.979-0.5
	c1.803,0.101,2.898,0.725,3.225,0.928c-0.027-0.384-0.072-0.748-0.088-1.132C69.1,46.212,67.93,46.009,66.413,46.06z M57.109,57.229
	c2.711-2.004,5.498-3.108,6.436-3.455c-0.494-2.086-1.097-4.286-1.779-6.609c-1.336,0.588-4.974,2.302-8.205,5.229
	c-3.437,3.092-4.249,6.107-4.466,6.992c1.285,1.098,2.564,2.076,3.82,2.992C52.979,62.398,53.719,59.732,57.109,57.229z
	 M53.313,52.261c3.313-2.999,7.096-4.596,8.453-5.118c-0.086-0.219-0.166-0.458-0.246-0.691c-1.328,0.385-5.229,1.764-8.482,4.792
	c-3.725,3.5-4.858,6.848-5.054,7.195c0.363,0.319,0.727,0.646,1.09,0.924C49.239,58.462,49.805,55.427,53.313,52.261z
	 M43.705,32.697c5.047-2.809,9.411-2.547,11.264-2.14c-0.08-0.08-0.115-0.167-0.16-0.262c-1.416-0.385-6.02-0.944-11.431,2.12
	c-5.177,2.629-8.328,5.847-9.258,7.03c0.086,0.16,0.123,0.327,0.203,0.487C35.252,38.652,38.339,35.34,43.705,32.697z
	 M56.994,32.539c0.727-0.493,2.099-1.322,3.958-1.822c1.815-0.501,3.274-0.422,4.081-0.342c-0.202-0.43-0.442-0.851-0.689-1.278
	c-0.799,0.094-2.303,0.348-3.957,1.031c-1.779,0.756-2.928,1.751-3.472,2.208C56.951,32.415,56.973,32.481,56.994,32.539z
	 M42.406,29.148c-5.179,2.032-8.643,4.901-9.862,5.954c0.247,0.711,0.471,1.394,0.704,2.055c1.278-1.141,4.713-4.117,9.962-6.499
	c5.425-2.498,9.603-1.634,11.199-1.096c-0.282-0.516-0.589-1.032-0.851-1.511C52.188,27.774,47.859,27.02,42.406,29.148z
	 M56.464,24.094c-1.51,0.95-2.259,2.063-2.606,2.687c0.291,0.465,0.588,0.953,0.836,1.416c0.275-0.587,1.01-1.837,2.947-2.759
	c1.838-0.719,3.313-0.639,4.061-0.515c-0.422-0.625-0.908-1.292-1.416-1.916C59.412,23.047,57.968,23.244,56.464,24.094z
	 M47.656,43.446c4.532-3.312,9.295-4.669,10.952-5.09c-0.16-0.298-0.275-0.646-0.442-0.966c-1.576,0.341-6.296,1.569-10.792,4.807
	c-4.523,3.275-6.542,6.79-7.188,7.835c0.428,0.573,0.849,1.112,1.256,1.641C41.802,50.533,43.008,46.903,47.656,43.446z
	 M44.613,36.917c4.822-3.312,9.796-4.043,11.409-4.197c-0.342-0.733-0.683-1.416-1.01-2.077c-1.845-0.371-6.18-0.53-11.175,2.259
	c-5.265,2.622-8.519,5.838-9.492,7.051c0.706,1.676,1.519,3.252,2.367,4.762C37.475,43.54,39.878,40.134,44.613,36.917z
	 M31.941,2.532c0,0.087-0.036,0.146-0.036,0.203c-0.211,0.844-0.369,1.722-0.53,2.594c-0.406,1.306-0.72,2.599-1.01,3.877
	c-1.313,7.102-0.93,11.959-0.341,16.687c0.501-0.217,4.925-3.18,11.083-3.899c4.69-0.565,7.922,0.501,9.346,1.125
	c-0.24-0.319-0.451-0.646-0.69-0.943c-1.256-0.625-4.321-1.859-8.931-1.562c-5.825,0.37-10.262,3.187-10.748,3.369
	c-0.045,0.022-0.045,0.022-0.045,0c0,0.022,0,0.022,0.045,0c0.486-0.217,4.807-3.224,10.805-3.645
	c4.633-0.27,7.537,1.03,8.793,1.734c-1.292-1.844-2.627-3.514-3.965-5.069c-1.292-0.384-3.754-0.892-7.021-0.588
	c-4.967,0.421-8.736,2.782-8.694,2.665c-0.065,0.117,3.595-2.461,8.766-2.933c3.195-0.32,5.555,0.268,6.868,0.711
	c-0.79-0.937-1.575-1.8-2.337-2.629c-0.93-0.363-2.063-0.683-3.319-0.886c-5.184-1.01-10.115,1.112-10.058,1.009
	c-0.123,0.117,4.852-2.287,10.224-1.27c1.002,0.152,1.933,0.399,2.703,0.705c-0.683-0.792-1.409-1.488-2.077-2.164
	c-0.894-0.343-2.433-0.8-4.554-0.741c-3.348,0.071-6.158,1.285-6.181,1.205c0,0.08,2.753-1.388,6.268-1.468
	c1.955-0.064,3.355,0.372,4.249,0.778c-4.169-4.081-7.284-6.26-7.241-6.238c-0.043-0.022,2.846,1.8,6.833,5.352
	c-0.087-0.341-0.123-0.988,0.56-1.802c0.792-0.784,1.701-0.979,2.23-1.044c-3.239-1.955-6.732-3.74-10.551-5.36
	c-0.045,0.131-0.102,0.247-0.125,0.371C32.145,2.641,32.043,2.584,31.941,2.532z M47.155,42.03c4.582-3.313,9.39-4.379,11.009-4.686
	c-0.487-1.131-1.01-2.287-1.576-3.427c-0.16-0.406-0.363-0.79-0.566-1.176c-1.576,0.24-6.484,1.104-11.228,4.321
	c-4.648,3.173-7.254,6.564-8.046,7.698c1.047,1.858,2.223,3.638,3.436,5.271C40.75,48.921,42.55,45.363,47.155,42.03z
	 M43.248,32.212c5.504-3.116,10.107-2.396,11.547-1.954c-0.104-0.225-0.227-0.407-0.35-0.633c-1.575-0.436-5.811-1.225-11.134,1.258
	c-5.17,2.338-8.749,5.206-10.042,6.346c0.291,0.72,0.567,1.475,0.851,2.195C34.991,38.173,37.961,34.877,43.248,32.212z
	 M30.083,23.984c-0.045,0.022-0.045,0.022-0.045,0C30.038,24.006,30.038,24.006,30.083,23.984z"/>
<path fill="#584536" d="M61.982,97.212l0.386-0.022c2.956-11.276,3.616-20.936,3.552-27.614c-0.037-0.023-0.081-0.038-0.16-0.066
	C65.803,79.471,64.344,88.745,61.982,97.212z M55.702,64.497c-0.022,0.036-0.044,0.06-0.044,0.06S55.68,64.533,55.702,64.497
	c4.256,2.629,7.755,4.082,9.411,4.75c0.688,0.261,1.097,0.399,1.053,0.421c0.102-0.036-4.363-1.511-10.34-5.338
	c0.398-0.553,1.488-2.172,3.507-3.79c2.127-1.765,4.407-2.774,5.011-3.015c1.293,6.826,1.416,11.336,1.395,11.313
	c0.021,0.022,0.146-4.51-0.93-11.35c0.349,0.034,1.422,0.202,2.402,0.659c1.018,0.443,1.576,1.011,1.78,1.234
	c-1.031,5.736-2.665,9.455-2.825,10.151c0.08-0.289,0.441-1.161,0.908-2.468c1.414-3.944,3.841-12.063,2.947-22.309
	c-0.342-4.525-1.778-9.39-4.32-14.283c-1.271-2.506-2.891-5.005-4.792-7.488c0.079,0.016,0.146,0.016,0.146,0.016
	c-0.021-0.016-0.08,0-0.183-0.016c-1.575-2.106-3.435-4.176-5.476-6.165c-3.855-3.783-8.526-7.32-13.958-10.429
	c-0.566-0.318-1.133-0.624-1.7-0.958C39.289,5.217,38.897,5,38.447,4.774c-1.903-0.995-3.886-1.917-5.94-2.782
	c-0.168-0.071-0.327-0.144-0.487-0.203c-8.59,23.186,1.641,43.352,12.105,53.613C48.105,59.363,52.165,62.318,55.702,64.497z
	 M44.591,12.031c1.351-1.075,2.564-1.386,2.687-1.459c2.802,2.004,5.352,4.125,7.611,6.347c-0.785,0.166-2.238,0.625-3.392,1.836
	c-1.033,1.155-1.192,2.208-1.228,2.746c-2.2-2.941-4.496-5.505-6.63-7.676C43.967,13.199,43.901,12.518,44.591,12.031z
	 M43.458,13.665c-1.131-1.147-2.243-2.178-3.274-3.106c0.057-0.299,0.137-1.018,0.806-1.737c0.646-0.684,1.54-0.973,2.005-1.119
	c1.517,0.938,2.911,1.896,4.284,2.869c-0.123,0.051-1.336,0.313-2.789,1.396C43.938,12.301,43.517,13.143,43.458,13.665z
	 M69.775,51.833c-0.422-0.16-1.409-0.407-2.797-0.269c-1.438,0.145-2.592,0.675-3.08,0.892c-0.354-1.69-0.797-3.491-1.334-5.394
	c0.406-0.043,2.063-0.377,3.849-0.248c1.771,0.109,2.983,0.574,3.354,0.719C69.84,49.022,69.84,50.439,69.775,51.833z
	 M69.797,51.877c-0.021,0.362-0.029,0.696-0.072,1.045c-0.349-0.218-1.213-0.646-2.593-0.711c-1.452-0.095-2.745,0.305-3.194,0.449
	c-0.015-0.064-0.037-0.123-0.037-0.159c0.486-0.167,1.679-0.53,3.035-0.646C68.243,51.688,69.311,51.796,69.797,51.877z
	 M60.27,29.91c-1.845,0.769-2.918,1.836-3.397,2.389c-0.646-1.394-1.372-2.753-2.144-4.044c0.371-0.522,1.213-1.78,3.028-2.579
	c1.742-0.719,3.231-0.719,4.009-0.646c0.922,1.308,1.779,2.658,2.543,4.016C63.502,29.061,62.005,29.19,60.27,29.91z M64.344,29.096
	c0.247,0.428,0.487,0.849,0.689,1.278c-0.807-0.08-2.266-0.159-4.081,0.342c-1.859,0.5-3.231,1.329-3.958,1.822
	c-0.021-0.058-0.043-0.125-0.079-0.204c0.544-0.457,1.69-1.452,3.472-2.208C62.041,29.444,63.545,29.19,64.344,29.096z
	 M57.641,25.436c-1.938,0.922-2.672,2.172-2.947,2.759c-0.248-0.463-0.545-0.951-0.836-1.416c0.349-0.624,1.098-1.735,2.606-2.686
	c1.504-0.85,2.948-1.047,3.82-1.089c0.508,0.624,0.995,1.292,1.416,1.916C60.952,24.797,59.479,24.717,57.641,25.436z
	 M54.409,29.562c-1.597-0.538-5.774-1.401-11.199,1.096c-5.25,2.382-8.684,5.358-9.962,6.499c-0.233-0.661-0.457-1.344-0.704-2.055
	c1.219-1.053,4.684-3.922,9.862-5.954c5.453-2.128,9.782-1.374,11.153-1.098C53.82,28.529,54.127,29.045,54.409,29.562z
	 M43.312,30.883c5.324-2.483,9.559-1.693,11.133-1.258c0.125,0.226,0.248,0.408,0.351,0.633c-1.438-0.442-6.043-1.162-11.547,1.954
	c-5.287,2.665-8.257,5.961-9.128,7.211c-0.284-0.72-0.56-1.475-0.851-2.195C34.563,36.089,38.142,33.222,43.312,30.883z
	 M43.378,32.415c5.411-3.064,10.015-2.504,11.431-2.12c0.045,0.095,0.08,0.182,0.16,0.262c-1.853-0.407-6.217-0.668-11.264,2.14
	c-5.366,2.644-8.453,5.955-9.382,7.235c-0.08-0.161-0.116-0.327-0.203-0.487C35.05,38.261,38.201,35.044,43.378,32.415z
	 M43.836,32.902c4.996-2.789,9.331-2.63,11.176-2.259c0.326,0.661,0.668,1.344,1.01,2.077c-1.612,0.153-6.587,0.885-11.41,4.197
	c-4.734,3.218-7.138,6.623-7.901,7.799c-0.849-1.51-1.662-3.086-2.367-4.762C35.317,38.74,38.571,35.524,43.836,32.902z
	 M44.794,37.063c4.742-3.217,9.651-4.081,11.228-4.321c0.203,0.386,0.406,0.77,0.566,1.176c0.566,1.141,1.089,2.296,1.576,3.427
	c-1.619,0.306-6.428,1.374-11.009,4.686c-4.605,3.333-6.405,6.892-6.972,8.002c-1.213-1.634-2.389-3.413-3.436-5.271
	C37.54,43.626,40.146,40.235,44.794,37.063z M47.372,42.196c4.496-3.238,9.216-4.466,10.792-4.807
	c0.167,0.32,0.281,0.668,0.441,0.966c-1.654,0.421-6.418,1.779-10.951,5.09c-4.648,3.458-5.854,7.087-6.216,8.227
	c-0.407-0.529-0.828-1.066-1.256-1.641C40.83,48.986,42.849,45.472,47.372,42.196z M57.48,33.548
	c-0.139-0.327-0.291-0.626-0.442-0.973c0.747-0.4,2.178-1.148,3.95-1.621c1.779-0.478,3.275-0.515,4.089-0.492
	c0.762,1.465,1.452,2.94,2.019,4.377c-0.683-0.057-2.229-0.116-4.103,0.407c-1.925,0.532-3.334,1.416-3.9,1.816
	C58.593,35.887,58.047,34.724,57.48,33.548z M63.044,35.501c1.822-0.5,3.369-0.602,4.052-0.624c0.283,0.675,0.479,1.292,0.704,1.923
	c-0.704-0.268-1.997-0.632-3.774-0.632c-2.383,0.087-4.205,1.119-4.729,1.379c-0.081-0.137-0.124-0.282-0.219-0.448
	C59.738,36.736,61.191,36.016,63.044,35.501z M63.938,36.459c1.787-0.021,3.194,0.254,3.885,0.443
	c0.406,1.192,0.732,2.361,1.01,3.517c-0.441-0.386-1.575-1.171-3.639-1.171c-2.344,0.016-4.262,0.828-4.844,1.053
	c-0.318-0.899-0.689-1.8-1.053-2.716C59.82,37.36,61.7,36.496,63.938,36.459z M66.188,45.159c-1.801,0.168-3.274,0.777-3.861,1.053
	c-0.561-1.917-1.215-3.9-1.961-5.897c0.566-0.159,2.527-0.804,4.713-0.783c2.055-0.021,3.313,0.682,3.754,0.988
	c0.363,1.474,0.609,2.926,0.729,4.363c0,0.159,0.026,0.364,0.043,0.538C68.991,45.248,67.8,44.986,66.188,45.159z M69.68,46.277
	c-0.564-0.217-1.654-0.552-3.193-0.493c-1.998,0.05-3.676,0.719-4.037,0.864c-0.036-0.131-0.059-0.277-0.123-0.386
	c0.609-0.233,2.105-0.674,3.797-0.842c1.576-0.173,2.869-0.037,3.479,0.066C69.637,45.748,69.637,46.009,69.68,46.277z M61.54,46.43
	c-1.394,0.327-5.416,1.583-8.771,4.677c-3.777,3.594-4.621,6.963-4.831,7.332c-0.842-0.791-1.736-1.619-2.621-2.504
	c0.072-0.487,0.61-4.264,5.09-8.018c4.06-3.42,8.49-5.315,9.658-5.781C60.626,43.612,61.068,45.029,61.54,46.43z M53.036,51.244
	c3.254-3.028,7.153-4.407,8.483-4.792c0.078,0.233,0.158,0.472,0.246,0.691c-1.358,0.521-5.143,2.119-8.453,5.118
	c-3.508,3.166-4.075,6.201-4.242,7.104c-0.363-0.276-0.727-0.604-1.09-0.923C48.178,58.092,49.312,54.744,53.036,51.244z
	 M53.561,52.393c3.231-2.927,6.869-4.641,8.205-5.229c0.684,2.324,1.285,4.523,1.779,6.609c-0.938,0.347-3.725,1.451-6.436,3.455
	c-3.392,2.506-4.131,5.17-4.196,5.148c-1.256-0.916-2.535-1.895-3.82-2.992C49.312,58.5,50.124,55.484,53.561,52.393z
	 M66.543,46.562c-1.916-0.146-3.57,0.398-3.979,0.5c-0.037-0.139-0.08-0.263-0.116-0.399c0.362-0.101,2.062-0.567,3.965-0.603
	c1.517-0.051,2.687,0.152,3.267,0.298c0.016,0.385,0.061,0.748,0.088,1.132C69.441,47.287,68.346,46.663,66.543,46.562z
	 M51.824,18.865c1.001-1.119,2.404-1.663,3.107-1.91c0.485,0.494,0.967,0.972,1.416,1.459c-0.763,0.146-2.367,0.567-3.603,1.86
	c-1.011,1.132-1.286,2.143-1.365,2.752c-0.371-0.515-0.733-0.995-1.053-1.438C50.465,21.079,50.771,19.99,51.824,18.865z
	 M53.036,20.396c1.134-1.212,2.622-1.765,3.371-1.938c1.378,1.452,2.643,2.947,3.841,4.458c-0.895-0.036-2.324,0.088-3.958,0.972
	c-1.576,1.032-2.208,2.143-2.49,2.796c-0.764-1.249-1.575-2.425-2.383-3.579C51.621,22.539,52.027,21.485,53.036,20.396z
	 M53.523,28.014c-1.379-0.37-5.601-1.256-11.197,0.886c-5.287,2.113-8.599,5.054-9.783,6.158c-0.159-0.545-0.32-1.089-0.479-1.656
	c-0.124-0.363-0.205-0.74-0.349-1.104c1.423-0.915,5.156-3.151,10.043-4.873c5.134-1.902,9.207-1.51,10.668-1.27
	C52.813,26.745,53.152,27.368,53.523,28.014z M47.903,43.612c4.402-3.253,9.091-4.748,10.705-5.221
	c0.529,1.255,1.017,2.512,1.459,3.718c-1.221,0.421-5.743,2.185-9.897,5.664c-4.589,3.855-4.807,7.653-4.887,8.184
	c-0.248-0.27-0.487-0.53-0.755-0.791c-1.031-1.066-2.078-2.223-3.044-3.457C41.903,50.605,43.312,46.983,47.903,43.612z
	 M59.113,60.395c-2.062,1.655-2.989,3.334-3.312,3.937c-0.913-0.603-1.923-1.265-2.89-1.968c0.08,0.015,1.126-2.557,4.438-4.975
	c2.629-1.962,5.295-3.195,6.194-3.596c0.274,1.285,0.537,2.521,0.784,3.697C63.697,57.707,61.314,58.579,59.113,60.395z
	 M63.938,52.682c0.494-0.086,1.722-0.289,3.114-0.201c1.294,0.058,2.304,0.354,2.688,0.5c-0.061,1.01-0.139,1.982-0.24,2.904
	c-0.305-0.254-0.943-0.755-2.12-0.958c-1.313-0.239-2.548,0-2.991,0.058C64.264,54.229,64.104,53.489,63.938,52.682z M67.459,57.891
	c-1.082-0.502-2.268-0.445-2.65-0.445c-0.095-0.782-0.261-1.574-0.398-2.424c0.422,0,1.59-0.072,2.802,0.168
	c1.134,0.201,1.947,0.603,2.267,0.769c-0.123,1.163-0.283,2.303-0.485,3.349C68.867,59.007,68.445,58.339,67.459,57.891z
	 M32.065,2.171c0.094,0.042,0.195,0.101,0.32,0.136c3.819,1.621,7.312,3.405,10.551,5.36c-0.529,0.065-1.438,0.26-2.23,1.044
	c-0.683,0.814-0.646,1.46-0.56,1.802c-3.987-3.552-6.876-5.374-6.833-5.352C33.27,5.14,36.385,7.319,40.554,11.4
	c-0.894-0.406-2.294-0.842-4.249-0.778c-3.514,0.08-6.268,1.547-6.268,1.468c0.023,0.08,2.833-1.134,6.181-1.205
	c2.121-0.059,3.66,0.398,4.554,0.741c0.668,0.675,1.394,1.371,2.077,2.164c-0.77-0.305-1.7-0.553-2.703-0.705
	c-5.373-1.017-10.347,1.387-10.224,1.27c-0.058,0.103,4.874-2.019,10.058-1.009c1.255,0.204,2.389,0.523,3.319,0.886
	c0.762,0.829,1.547,1.692,2.337,2.629c-1.313-0.444-3.673-1.031-6.868-0.711c-5.171,0.472-8.831,3.05-8.766,2.933
	c-0.042,0.117,3.727-2.244,8.694-2.665c3.267-0.304,5.729,0.204,7.021,0.588c1.337,1.555,2.672,3.225,3.965,5.069
	c-1.256-0.704-4.16-2.004-8.793-1.734c-5.999,0.421-10.319,3.428-10.805,3.645c0.486-0.182,4.922-2.999,10.748-3.369
	c4.61-0.298,7.675,0.937,8.931,1.562c0.24,0.296,0.45,0.624,0.69,0.943c-1.424-0.624-4.656-1.69-9.346-1.125
	c-6.158,0.719-10.581,3.682-11.083,3.899c0.501-0.181,5.026-2.933,11.009-3.66c4.727-0.55,8.039,0.422,9.455,0.975
	c0.646,0.943,1.27,1.895,1.896,2.911c-1.452-0.313-5.49-0.849-10.69,1.068c-4.982,1.75-8.62,4.117-10,5.067
	c-0.645-2.164-1.249-4.204-1.67-6.361c-0.588-4.728-0.972-9.585,0.341-16.687c0.364-1.967,0.872-4.103,1.54-6.471
	c0-0.057,0.036-0.116,0.036-0.203C31.984,2.417,32.021,2.292,32.065,2.171z"/>
</svg>
