<?xml version="1.0" encoding="utf-8"?>
<!-- Generator: Adobe Illustrator 16.0.0, SVG Export Plug-In . SVG Version: 6.00 Build 0)  -->
<!DOCTYPE svg PUBLIC "-//W3C//DTD SVG 1.1//EN" "http://www.w3.org/Graphics/SVG/1.1/DTD/svg11.dtd">
<svg version="1.1" id="Layer_1" xmlns="http://www.w3.org/2000/svg" xmlns:xlink="http://www.w3.org/1999/xlink" x="0px" y="0px"
	 width="100px" height="100px" viewBox="0 0 100 100" enable-background="new 0 0 100 100" xml:space="preserve">
<path fill="#70CDE3" stroke="#676767" d="M47.905,15.396c7.416-4.28,16.897-1.74,21.177,5.676c1.412,2.444,2.081,5.114,2.08,7.749
	c0.005,0,0.012,0,0.018,0l7.047-7.045c0.002-3.511-0.891-7.069-2.771-10.328C69.75,1.566,57.113-1.82,47.232,3.884
	c-3.259,1.882-5.811,4.518-7.563,7.56l2.573,9.604C43.557,18.774,45.467,16.803,47.905,15.396z M18.976,34.498
	c0-8.563,6.94-15.504,15.502-15.504c2.825,0,5.471,0.754,7.751,2.074c0.004-0.007,0.008-0.014,0.012-0.021l-2.573-9.604
	C36.63,9.686,33.103,8.68,29.339,8.68c-11.41,0-20.66,9.249-20.66,20.661c0,3.762,1.006,7.29,2.764,10.328l9.604,2.573
	C19.73,39.963,18.976,37.319,18.976,34.498z M88.553,24.544c-3.259-1.88-6.816-2.772-10.326-2.769L71.18,28.82
	c2.629,0.001,5.291,0.671,7.731,2.08c7.415,4.281,9.956,13.763,5.674,21.176c-1.409,2.443-3.386,4.355-5.665,5.672l9.639,2.583
	c3.041-1.754,5.676-4.306,7.557-7.563C101.82,42.886,98.434,30.25,88.553,24.544z M78.914,57.752
	c1.318,2.28,2.074,4.928,2.074,7.751c0,8.562-6.941,15.503-15.504,15.503c-2.823,0-5.471-0.754-7.75-2.072
	c-0.061,0.104-0.123,0.205-0.185,0.309l2.446,9.681l-2.446-9.681c-1.31,2.15-3.157,4.015-5.491,5.361
	c-7.416,4.281-16.896,1.741-21.178-5.674c-1.408-2.439-2.078-5.104-2.079-7.73l-7.028,7.027c-0.002,3.51,0.89,7.067,2.771,10.326
	c5.705,9.881,18.341,13.268,28.223,7.563c3.26-1.881,5.811-4.518,7.563-7.559c3.038,1.758,6.565,2.766,10.329,2.766
	c11.408,0,20.66-9.25,20.66-20.661c0-3.763-1.008-7.29-2.764-10.329l-9.639-2.583C78.918,57.75,78.916,57.751,78.914,57.752z
	 M28.801,71.18c-2.634,0.002-5.304-0.666-7.748-2.078c-7.415-4.281-9.956-13.764-5.676-21.179c1.412-2.445,3.39-4.359,5.672-5.675
	c-0.001-0.002-0.002-0.004-0.003-0.006l-9.604-2.573c-3.041,1.754-5.677,4.306-7.558,7.564c-5.705,9.88-2.32,22.517,7.563,28.221
	c3.258,1.881,6.817,2.774,10.327,2.771l7.028-7.026C28.803,71.191,28.801,71.186,28.801,71.18z M47.233,39.673l-4.992-18.626
	c-0.004,0.007-0.008,0.014-0.012,0.021c-2.28-1.32-4.927-2.074-7.751-2.074c-8.562,0-15.502,6.941-15.502,15.504
	c0,2.821,0.755,5.465,2.071,7.744l18.626,4.992C42.807,45.421,45.42,42.807,47.233,39.673z M42.44,57.561L28.803,71.198
	c0.001,2.628,0.67,5.291,2.079,7.731c4.281,7.414,13.763,9.954,21.179,5.674c2.332-1.349,4.182-3.213,5.49-5.362l-4.783-18.914
	C49.63,58.52,46.061,57.563,42.44,57.561z M60.327,52.768l18.593,4.98c2.279-1.314,4.256-3.229,5.665-5.672
	c4.282-7.413,1.741-16.895-5.674-21.176c-2.44-1.408-5.104-2.078-7.731-2.08L57.561,42.441
	C57.563,46.061,58.521,49.63,60.327,52.768z"/>
<path fill="#AED7C7" stroke="#676767" d="M39.673,47.234l-18.626-4.992c0,0.002,0.001,0.004,0.003,0.006
	c-2.282,1.315-4.26,3.23-5.672,5.675c-4.28,7.415-1.739,16.896,5.676,21.179c2.444,1.412,5.113,2.08,7.748,2.078
	c0,0.006,0.001,0.012,0.001,0.02L42.44,57.561C42.437,53.939,41.48,50.371,39.673,47.234z M52.768,60.327l4.783,18.914
	c0.063-0.103,0.124-0.205,0.184-0.31c2.281,1.319,4.928,2.073,7.75,2.073c8.563,0,15.504-6.94,15.504-15.503
	c0-2.824-0.754-5.471-2.073-7.751c0.002-0.001,0.004-0.002,0.006-0.004l-18.593-4.981C57.193,54.579,54.579,57.193,52.768,60.327z
	 M69.082,21.072c-4.28-7.416-13.762-9.956-21.177-5.676c-2.438,1.407-4.348,3.378-5.663,5.651l4.992,18.626
	c3.137,1.808,6.706,2.764,10.327,2.768L71.18,28.82c-0.006,0-0.013,0-0.018,0C71.163,26.186,70.494,23.516,69.082,21.072z"/>
<path fill="#CBDB2A" stroke="#676767" d="M44.309,55.672c2.717,0.003,5.396,0.721,7.75,2.076c1.361-2.352,3.321-4.313,5.672-5.672
	c-1.354-2.354-2.073-5.032-2.076-7.749c-2.717-0.002-5.393-0.72-7.749-2.076c-1.361,2.352-3.322,4.313-5.672,5.673
	C43.588,50.278,44.307,52.955,44.309,55.672z"/>
</svg>
