<svg xmlns="http://www.w3.org/2000/svg" xmlns:se="http://svg-edit.googlecode.com" xmlns:xlink="http://www.w3.org/1999/xlink" id="svgcontent" width="205.65" height="395.85" x="0" y="0" viewBox="0 0 205.65 395.85" overflow="hidden"><g mask="" style="pointer-events:all"><title style="pointer-events:inherit">Layer 1</title><g id="svg_1" type="text" text="COMPETETION DANCE TEAM" font-size="39.929398600681495" font-family="Kroftsmann" fill="000000" text-anchor="start" font-weight="normal" font-style="normal" lineHeight="1" shapeId="0" shapeVal="0" fill-opacity="1" display="null" elemBBoxWidth="196.0480499267578" stroke="null" stroke-dasharray="none" style="pointer-events:inherit"><path id="svg_19" fill="#ffffff" stroke-width="0" d="M4.80057,169.28784C4.80057,169.28784 6.55049,166.97342 6.55049,166.97342C6.55049,166.97342 12.8728,166.97342 12.8728,166.97342C12.8728,166.97342 12.8728,169.85233 12.8728,169.85233C12.8728,169.85233 8.52621,169.85233 8.52621,169.85233C8.52621,169.85233 8.52621,177.36008 8.52621,177.36008C8.52621,177.36008 12.8728,177.36008 12.8728,177.36008C12.8728,177.36008 12.8728,180.52122 12.8728,180.52122C12.8728,180.52122 6.55049,180.52122 6.55049,180.52122C6.55049,180.52122 4.80057,177.92456 4.80057,177.92456C4.80057,177.92456 4.80057,169.28784 4.80057,169.28784C4.80057,169.28784 4.80057,169.28784 4.80057,169.28784M13.49374,169.57008C13.49374,169.57008 15.24367,166.97342 15.24367,166.97342C15.24367,166.97342 20.38054,166.97342 20.38054,166.97342C20.38054,166.97342 22.13047,169.28784 22.13047,169.28784C22.13047,169.28784 22.13047,177.92456 22.13047,177.92456C22.13047,177.92456 20.38054,180.52122 20.38054,180.52122C20.38054,180.52122 15.24367,180.52122 15.24367,180.52122C15.24367,180.52122 13.49374,178.20682 13.49374,178.20682C13.49374,178.20682 13.49374,169.57008 13.49374,169.57008C13.49374,169.57008 13.49374,169.57008 13.49374,169.57008M18.63062,177.36008C18.63062,177.36008 18.63062,170.13458 18.63062,170.13458C18.63062,170.13458 16.6549,170.13458 16.6549,170.13458C16.6549,170.13458 16.6549,177.36008 16.6549,177.36008C16.6549,177.36008 18.63062,177.36008 18.63062,177.36008C18.63062,177.36008 18.63062,177.36008 18.63062,177.36008M29.41242,179.11C29.41242,179.11 31.44458,173.91667 31.44458,173.91667C31.44458,173.91667 31.44458,180.52122 31.44458,180.52122C31.44458,180.52122 34.60574,180.52122 34.60574,180.52122C34.60574,180.52122 34.60574,166.97342 34.60574,166.97342C34.60574,166.97342 30.88009,166.97342 30.88009,166.97342C30.88009,166.97342 28.84792,171.88451 28.84792,171.88451C28.84792,171.88451 26.53351,166.97342 26.53351,166.97342C26.53351,166.97342 22.80786,166.97342 22.80786,166.97342C22.80786,166.97342 22.80786,180.52122 22.80786,180.52122C22.80786,180.52122 25.96901,180.52122 25.96901,180.52122C25.96901,180.52122 25.96901,173.91667 25.96901,173.91667C25.96901,173.91667 28.28343,179.11 28.28343,179.11C28.28343,179.11 29.41242,179.11 29.41242,179.11C29.41242,179.11 29.41242,179.11 29.41242,179.11M43.91986,173.63443C43.91986,173.63443 43.91986,169.28784 43.91986,169.28784C43.91986,169.28784 42.16993,166.97342 42.16993,166.97342C42.16993,166.97342 35.28313,166.97342 35.28313,166.97342C35.28313,166.97342 35.28313,180.52122 35.28313,180.52122C35.28313,180.52122 38.44429,180.52122 38.44429,180.52122C38.44429,180.52122 38.44429,176.17464 38.44429,176.17464C38.44429,176.17464 42.16993,176.17464 42.16993,176.17464C42.16993,176.17464 43.91986,173.63443 43.91986,173.63443M40.42001,173.06993C40.42001,173.06993 38.44429,173.06993 38.44429,173.06993C38.44429,173.06993 38.44429,169.85233 38.44429,169.85233C38.44429,169.85233 40.42001,169.85233 40.42001,169.85233C40.42001,169.85233 40.42001,173.06993 40.42001,173.06993C40.42001,173.06993 40.42001,173.06993 40.42001,173.06993M44.59725,166.97342C44.59725,166.97342 51.7663,166.97342 51.7663,166.97342C51.7663,166.97342 51.7663,169.90878 51.7663,169.90878C51.7663,169.90878 47.7584,169.90878 47.7584,169.90878C47.7584,169.90878 47.7584,171.88451 47.7584,171.88451C47.7584,171.88451 51.7663,171.88451 51.7663,171.88451C51.7663,171.88451 51.7663,174.76341 51.7663,174.76341C51.7663,174.76341 47.7584,174.76341 47.7584,174.76341C47.7584,174.76341 47.7584,177.64232 47.7584,177.64232C47.7584,177.64232 51.7663,177.64232 51.7663,177.64232C51.7663,177.64232 51.7663,180.52122 51.7663,180.52122C51.7663,180.52122 44.59725,180.52122 44.59725,180.52122C44.59725,180.52122 44.59725,166.97342 44.59725,166.97342C44.59725,166.97342 44.59725,166.97342 44.59725,166.97342M53.34687,166.97342C53.34687,166.97342 61.36266,166.97342 61.36266,166.97342C61.36266,166.97342 60.51592,169.85233 60.51592,169.85233C60.51592,169.85233 58.25795,169.85233 58.25795,169.85233C58.25795,169.85233 58.25795,180.52122 58.25795,180.52122C58.25795,180.52122 55.04035,180.52122 55.04035,180.52122C55.04035,180.52122 55.04035,169.85233 55.04035,169.85233C55.04035,169.85233 52.44369,169.85233 52.44369,169.85233C52.44369,169.85233 53.34687,166.97342 53.34687,166.97342M62.04005,166.97342C62.04005,166.97342 69.2091,166.97342 69.2091,166.97342C69.2091,166.97342 69.2091,169.90878 69.2091,169.90878C69.2091,169.90878 65.20121,169.90878 65.20121,169.90878C65.20121,169.90878 65.20121,171.88451 65.20121,171.88451C65.20121,171.88451 69.2091,171.88451 69.2091,171.88451C69.2091,171.88451 69.2091,174.76341 69.2091,174.76341C69.2091,174.76341 65.20121,174.76341 65.20121,174.76341C65.20121,174.76341 65.20121,177.64232 65.20121,177.64232C65.20121,177.64232 69.2091,177.64232 69.2091,177.64232C69.2091,177.64232 69.2091,180.52122 69.2091,180.52122C69.2091,180.52122 62.04005,180.52122 62.04005,180.52122C62.04005,180.52122 62.04005,166.97342 62.04005,166.97342C62.04005,166.97342 62.04005,166.97342 62.04005,166.97342M70.78968,166.97342C70.78968,166.97342 78.80546,166.97342 78.80546,166.97342C78.80546,166.97342 77.95872,169.85233 77.95872,169.85233C77.95872,169.85233 75.70076,169.85233 75.70076,169.85233C75.70076,169.85233 75.70076,180.52122 75.70076,180.52122C75.70076,180.52122 72.48315,180.52122 72.48315,180.52122C72.48315,180.52122 72.48315,169.85233 72.48315,169.85233C72.48315,169.85233 69.88649,169.85233 69.88649,169.85233C69.88649,169.85233 70.78968,166.97342 70.78968,166.97342M82.64401,166.97342C82.64401,166.97342 79.48285,166.97342 79.48285,166.97342C79.48285,166.97342 79.48285,180.52122 79.48285,180.52122C79.48285,180.52122 82.64401,180.52122 82.64401,180.52122C82.64401,180.52122 82.64401,166.97342 82.64401,166.97342C82.64401,166.97342 82.64401,166.97342 82.64401,166.97342M83.26495,169.57008C83.26495,169.57008 85.01487,166.97342 85.01487,166.97342C85.01487,166.97342 90.15175,166.97342 90.15175,166.97342C90.15175,166.97342 91.90168,169.28784 91.90168,169.28784C91.90168,169.28784 91.90168,177.92456 91.90168,177.92456C91.90168,177.92456 90.15175,180.52122 90.15175,180.52122C90.15175,180.52122 85.01487,180.52122 85.01487,180.52122C85.01487,180.52122 83.26495,178.20682 83.26495,178.20682C83.26495,178.20682 83.26495,169.57008 83.26495,169.57008C83.26495,169.57008 83.26495,169.57008 83.26495,169.57008M88.40182,177.36008C88.40182,177.36008 88.40182,170.13458 88.40182,170.13458C88.40182,170.13458 86.4261,170.13458 86.4261,170.13458C86.4261,170.13458 86.4261,177.36008 86.4261,177.36008C86.4261,177.36008 88.40182,177.36008 88.40182,177.36008C88.40182,177.36008 88.40182,177.36008 88.40182,177.36008M92.57907,180.52122C92.57907,180.52122 92.57907,166.97342 92.57907,166.97342C92.57907,166.97342 95.74022,166.97342 95.74022,166.97342C95.74022,166.97342 98.61913,172.44899 98.61913,172.44899C98.61913,172.44899 98.61913,166.97342 98.61913,166.97342C98.61913,166.97342 102.11898,166.97342 102.11898,166.97342C102.11898,166.97342 102.11898,180.52122 102.11898,180.52122C102.11898,180.52122 98.61913,180.52122 98.61913,180.52122C98.61913,180.52122 95.74022,174.76341 95.74022,174.76341C95.74022,174.76341 95.74022,180.52122 95.74022,180.52122C95.74022,180.52122 92.57907,180.52122 92.57907,180.52122C92.57907,180.52122 92.57907,180.52122 92.57907,180.52122M118.48924,169.28784C118.48924,169.28784 116.73932,166.97342 116.73932,166.97342C116.73932,166.97342 109.85252,166.97342 109.85252,166.97342C109.85252,166.97342 109.85252,180.52122 109.85252,180.52122C109.85252,180.52122 116.73932,180.52122 116.73932,180.52122C116.73932,180.52122 118.48924,177.92456 118.48924,177.92456C118.48924,177.92456 118.48924,169.28784 118.48924,169.28784C118.48924,169.28784 118.48924,169.28784 118.48924,169.28784M114.98939,169.85233C114.98939,169.85233 114.98939,177.36008 114.98939,177.36008C114.98939,177.36008 113.01367,177.36008 113.01367,177.36008C113.01367,177.36008 113.01367,169.85233 113.01367,169.85233C113.01367,169.85233 114.98939,169.85233 114.98939,169.85233C114.98939,169.85233 114.98939,169.85233 114.98939,169.85233M126.33568,166.97342C126.33568,166.97342 120.91656,166.97342 120.91656,166.97342C120.91656,166.97342 119.16663,169.28784 119.16663,169.28784C119.16663,169.28784 119.16663,180.52122 119.16663,180.52122C119.16663,180.52122 122.32778,180.52122 122.32778,180.52122C122.32778,180.52122 122.32778,176.51334 122.32778,176.51334C122.32778,176.51334 124.64221,176.51334 124.64221,176.51334C124.64221,176.51334 124.64221,180.52122 124.64221,180.52122C124.64221,180.52122 127.80336,180.52122 127.80336,180.52122C127.80336,180.52122 127.80336,169.28784 127.80336,169.28784C127.80336,169.28784 126.33568,166.97342 126.33568,166.97342M124.64221,173.63443C124.64221,173.63443 122.32778,173.63443 122.32778,173.63443C122.32778,173.63443 122.32778,169.85233 122.32778,169.85233C122.32778,169.85233 124.64221,169.85233 124.64221,169.85233C124.64221,169.85233 124.64221,173.63443 124.64221,173.63443C124.64221,173.63443 124.64221,173.63443 124.64221,173.63443M128.48075,180.52122C128.48075,180.52122 128.48075,166.97342 128.48075,166.97342C128.48075,166.97342 131.64191,166.97342 131.64191,166.97342C131.64191,166.97342 134.52082,172.44899 134.52082,172.44899C134.52082,172.44899 134.52082,166.97342 134.52082,166.97342C134.52082,166.97342 138.02066,166.97342 138.02066,166.97342C138.02066,166.97342 138.02066,180.52122 138.02066,180.52122C138.02066,180.52122 134.52082,180.52122 134.52082,180.52122C134.52082,180.52122 131.64191,174.76341 131.64191,174.76341C131.64191,174.76341 131.64191,180.52122 131.64191,180.52122C131.64191,180.52122 128.48075,180.52122 128.48075,180.52122C128.48075,180.52122 128.48075,180.52122 128.48075,180.52122M138.6416,169.28784C138.6416,169.28784 140.39154,166.97342 140.39154,166.97342C140.39154,166.97342 146.71384,166.97342 146.71384,166.97342C146.71384,166.97342 146.71384,169.85233 146.71384,169.85233C146.71384,169.85233 142.36725,169.85233 142.36725,169.85233C142.36725,169.85233 142.36725,177.36008 142.36725,177.36008C142.36725,177.36008 146.71384,177.36008 146.71384,177.36008C146.71384,177.36008 146.71384,180.52122 146.71384,180.52122C146.71384,180.52122 140.39154,180.52122 140.39154,180.52122C140.39154,180.52122 138.6416,177.92456 138.6416,177.92456C138.6416,177.92456 138.6416,169.28784 138.6416,169.28784C138.6416,169.28784 138.6416,169.28784 138.6416,169.28784M147.3348,166.97342C147.3348,166.97342 154.50383,166.97342 154.50383,166.97342C154.50383,166.97342 154.50383,169.90878 154.50383,169.90878C154.50383,169.90878 150.49593,169.90878 150.49593,169.90878C150.49593,169.90878 150.49593,171.88451 150.49593,171.88451C150.49593,171.88451 154.50383,171.88451 154.50383,171.88451C154.50383,171.88451 154.50383,174.76341 154.50383,174.76341C154.50383,174.76341 150.49593,174.76341 150.49593,174.76341C150.49593,174.76341 150.49593,177.64232 150.49593,177.64232C150.49593,177.64232 154.50383,177.64232 154.50383,177.64232C154.50383,177.64232 154.50383,180.52122 154.50383,180.52122C154.50383,180.52122 147.3348,180.52122 147.3348,180.52122C147.3348,180.52122 147.3348,166.97342 147.3348,166.97342C147.3348,166.97342 147.3348,166.97342 147.3348,166.97342M163.19701,166.97342C163.19701,166.97342 171.21279,166.97342 171.21279,166.97342C171.21279,166.97342 170.36605,169.85233 170.36605,169.85233C170.36605,169.85233 168.1081,169.85233 168.1081,169.85233C168.1081,169.85233 168.1081,180.52122 168.1081,180.52122C168.1081,180.52122 164.89048,180.52122 164.89048,180.52122C164.89048,180.52122 164.89048,169.85233 164.89048,169.85233C164.89048,169.85233 162.29381,169.85233 162.29381,169.85233C162.29381,169.85233 163.19701,166.97342 163.19701,166.97342M171.89019,166.97342C171.89019,166.97342 179.05924,166.97342 179.05924,166.97342C179.05924,166.97342 179.05924,169.90878 179.05924,169.90878C179.05924,169.90878 175.05135,169.90878 175.05135,169.90878C175.05135,169.90878 175.05135,171.88451 175.05135,171.88451C175.05135,171.88451 179.05924,171.88451 179.05924,171.88451C179.05924,171.88451 179.05924,174.76341 179.05924,174.76341C179.05924,174.76341 175.05135,174.76341 175.05135,174.76341C175.05135,174.76341 175.05135,177.64232 175.05135,177.64232C175.05135,177.64232 179.05924,177.64232 179.05924,177.64232C179.05924,177.64232 179.05924,180.52122 179.05924,180.52122C179.05924,180.52122 171.89019,180.52122 171.89019,180.52122C171.89019,180.52122 171.89019,166.97342 171.89019,166.97342C171.89019,166.97342 171.89019,166.97342 171.89019,166.97342M186.90567,166.97342C186.90567,166.97342 181.48654,166.97342 181.48654,166.97342C181.48654,166.97342 179.73662,169.28784 179.73662,169.28784C179.73662,169.28784 179.73662,180.52122 179.73662,180.52122C179.73662,180.52122 182.89777,180.52122 182.89777,180.52122C182.89777,180.52122 182.89777,176.51334 182.89777,176.51334C182.89777,176.51334 185.21219,176.51334 185.21219,176.51334C185.21219,176.51334 185.21219,180.52122 185.21219,180.52122C185.21219,180.52122 188.37335,180.52122 188.37335,180.52122C188.37335,180.52122 188.37335,169.28784 188.37335,169.28784C188.37335,169.28784 186.90567,166.97342 186.90567,166.97342M185.21219,173.63443C185.21219,173.63443 182.89777,173.63443 182.89777,173.63443C182.89777,173.63443 182.89777,169.85233 182.89777,169.85233C182.89777,169.85233 185.21219,169.85233 185.21219,169.85233C185.21219,169.85233 185.21219,173.63443 185.21219,173.63443C185.21219,173.63443 185.21219,173.63443 185.21219,173.63443M195.65531,179.11C195.65531,179.11 197.68746,173.91667 197.68746,173.91667C197.68746,173.91667 197.68746,180.52122 197.68746,180.52122C197.68746,180.52122 200.84862,180.52122 200.84862,180.52122C200.84862,180.52122 200.84862,166.97342 200.84862,166.97342C200.84862,166.97342 197.12297,166.97342 197.12297,166.97342C197.12297,166.97342 195.09081,171.88451 195.09081,171.88451C195.09081,171.88451 192.77639,166.97342 192.77639,166.97342C192.77639,166.97342 189.05074,166.97342 189.05074,166.97342C189.05074,166.97342 189.05074,180.52122 189.05074,180.52122C189.05074,180.52122 192.21189,180.52122 192.21189,180.52122C192.21189,180.52122 192.21189,173.91667 192.21189,173.91667C192.21189,173.91667 194.52631,179.11 194.52631,179.11C194.52631,179.11 195.65531,179.11 195.65531,179.11C195.65531,179.11 195.65531,179.11 195.65531,179.11" style="pointer-events:inherit"/><rect id="svg_20" x="4.801165470387787" y="166.9726555510424" width="196.04767262516543" height="13.548567520920187" fill="#ffffff" opacity="0" style="pointer-events:inherit"/></g><g type="text" text="ALL TROUPES" font-size="39.929398600681495" font-family="Kroftsmann" fill="000000" text-anchor="start" font-weight="normal" font-style="normal" lineHeight="1" shapeId="0" shapeVal="0" fill-opacity="1" display="null" elemBBoxWidth="196.0988311767578" stroke="null" stroke-dasharray="none" id="svg_8" style="pointer-events:inherit"><path fill="#ffffff" stroke-width="0" d="M18.86303,130.97258C18.86303,130.97258 8.21519,130.97258 8.21519,130.97258C8.21519,130.97258 4.77683,135.5201 4.77683,135.5201C4.77683,135.5201 4.77683,157.59218 4.77683,157.59218C4.77683,157.59218 10.98807,157.59218 10.98807,157.59218C10.98807,157.59218 10.98807,149.71722 10.98807,149.71722C10.98807,149.71722 15.53558,149.71722 15.53558,149.71722C15.53558,149.71722 15.53558,157.59218 15.53558,157.59218C15.53558,157.59218 21.74682,157.59218 21.74682,157.59218C21.74682,157.59218 21.74682,135.5201 21.74682,135.5201C21.74682,135.5201 18.86303,130.97258 18.86303,130.97258M15.53558,144.06055C15.53558,144.06055 10.98807,144.06055 10.98807,144.06055C10.98807,144.06055 10.98807,136.62924 10.98807,136.62924C10.98807,136.62924 15.53558,136.62924 15.53558,136.62924C15.53558,136.62924 15.53558,144.06055 15.53558,144.06055C15.53558,144.06055 15.53558,144.06055 15.53558,144.06055M29.28904,130.97258C29.28904,130.97258 23.0778,130.97258 23.0778,130.97258C23.0778,130.97258 23.0778,157.59218 23.0778,157.59218C23.0778,157.59218 36.60943,157.59218 36.60943,157.59218C36.60943,157.59218 40.04779,151.93552 40.04779,151.93552C40.04779,151.93552 29.28904,151.93552 29.28904,151.93552C29.28904,151.93552 29.28904,130.97258 29.28904,130.97258C29.28904,130.97258 29.28904,130.97258 29.28904,130.97258M47.59002,130.97258C47.59002,130.97258 41.37878,130.97258 41.37878,130.97258C41.37878,130.97258 41.37878,157.59218 41.37878,157.59218C41.37878,157.59218 54.9104,157.59218 54.9104,157.59218C54.9104,157.59218 58.34877,151.93552 58.34877,151.93552C58.34877,151.93552 47.59002,151.93552 47.59002,151.93552C47.59002,151.93552 47.59002,130.97258 47.59002,130.97258C47.59002,130.97258 47.59002,130.97258 47.59002,130.97258M75.42967,130.97258C75.42967,130.97258 91.1796,130.97258 91.1796,130.97258C91.1796,130.97258 89.51588,136.62924 89.51588,136.62924C89.51588,136.62924 85.07928,136.62924 85.07928,136.62924C85.07928,136.62924 85.07928,157.59218 85.07928,157.59218C85.07928,157.59218 78.75713,157.59218 78.75713,157.59218C78.75713,157.59218 78.75713,136.62924 78.75713,136.62924C78.75713,136.62924 73.65504,136.62924 73.65504,136.62924C73.65504,136.62924 75.42967,130.97258 75.42967,130.97258M106.04221,147.388C106.04221,147.388 109.48058,144.06055 109.48058,144.06055C109.48058,144.06055 109.48058,135.5201 109.48058,135.5201C109.48058,135.5201 106.04221,130.97258 106.04221,130.97258C106.04221,130.97258 92.51058,130.97258 92.51058,130.97258C92.51058,130.97258 92.51058,157.59218 92.51058,157.59218C92.51058,157.59218 98.72182,157.59218 98.72182,157.59218C98.72182,157.59218 98.72182,149.05173 98.72182,149.05173C98.72182,149.05173 99.83097,149.05173 99.83097,149.05173C99.83097,149.05173 104.37849,157.59218 104.37849,157.59218C104.37849,157.59218 111.69888,157.59218 111.69888,157.59218C111.69888,157.59218 106.04221,147.388 106.04221,147.388M102.60385,142.9514C102.60385,142.9514 98.72182,142.9514 98.72182,142.9514C98.72182,142.9514 98.72182,136.62924 98.72182,136.62924C98.72182,136.62924 102.60385,136.62924 102.60385,136.62924C102.60385,136.62924 102.60385,142.9514 102.60385,142.9514C102.60385,142.9514 102.60385,142.9514 102.60385,142.9514M113.02985,136.07468C113.02985,136.07468 116.46822,130.97258 116.46822,130.97258C116.46822,130.97258 126.56149,130.97258 126.56149,130.97258C126.56149,130.97258 129.99986,135.5201 129.99986,135.5201C129.99986,135.5201 129.99986,152.49008 129.99986,152.49008C129.99986,152.49008 126.56149,157.59218 126.56149,157.59218C126.56149,157.59218 116.46822,157.59218 116.46822,157.59218C116.46822,157.59218 113.02985,153.04466 113.02985,153.04466C113.02985,153.04466 113.02985,136.07468 113.02985,136.07468C113.02985,136.07468 113.02985,136.07468 113.02985,136.07468M123.12312,151.38095C123.12312,151.38095 123.12312,137.18382 123.12312,137.18382C123.12312,137.18382 119.2411,137.18382 119.2411,137.18382C119.2411,137.18382 119.2411,151.38095 119.2411,151.38095C119.2411,151.38095 123.12312,151.38095 123.12312,151.38095C123.12312,151.38095 123.12312,151.38095 123.12312,151.38095M142.08958,130.97258C142.08958,130.97258 148.30083,130.97258 148.30083,130.97258C148.30083,130.97258 148.30083,153.04466 148.30083,153.04466C148.30083,153.04466 145.41704,157.59218 145.41704,157.59218C145.41704,157.59218 134.7692,157.59218 134.7692,157.59218C134.7692,157.59218 131.33083,153.04466 131.33083,153.04466C131.33083,153.04466 131.33083,130.97258 131.33083,130.97258C131.33083,130.97258 137.54207,130.97258 137.54207,130.97258C137.54207,130.97258 137.54207,151.93552 137.54207,151.93552C137.54207,151.93552 142.08958,151.93552 142.08958,151.93552C142.08958,151.93552 142.08958,130.97258 142.08958,130.97258C142.08958,130.97258 142.08958,130.97258 142.08958,130.97258M166.60179,144.06055C166.60179,144.06055 166.60179,135.5201 166.60179,135.5201C166.60179,135.5201 163.16344,130.97258 163.16344,130.97258C163.16344,130.97258 149.63181,130.97258 149.63181,130.97258C149.63181,130.97258 149.63181,157.59218 149.63181,157.59218C149.63181,157.59218 155.84305,157.59218 155.84305,157.59218C155.84305,157.59218 155.84305,149.05173 155.84305,149.05173C155.84305,149.05173 163.16344,149.05173 163.16344,149.05173C163.16344,149.05173 166.60179,144.06055 166.60179,144.06055M159.72507,142.9514C159.72507,142.9514 155.84305,142.9514 155.84305,142.9514C155.84305,142.9514 155.84305,136.62924 155.84305,136.62924C155.84305,136.62924 159.72507,136.62924 159.72507,136.62924C159.72507,136.62924 159.72507,142.9514 159.72507,142.9514C159.72507,142.9514 159.72507,142.9514 159.72507,142.9514M167.93279,130.97258C167.93279,130.97258 182.01898,130.97258 182.01898,130.97258C182.01898,130.97258 182.01898,136.74017 182.01898,136.74017C182.01898,136.74017 174.14403,136.74017 174.14403,136.74017C174.14403,136.74017 174.14403,140.62219 174.14403,140.62219C174.14403,140.62219 182.01898,140.62219 182.01898,140.62219C182.01898,140.62219 182.01898,146.27885 182.01898,146.27885C182.01898,146.27885 174.14403,146.27885 174.14403,146.27885C174.14403,146.27885 174.14403,151.93552 174.14403,151.93552C174.14403,151.93552 182.01898,151.93552 182.01898,151.93552C182.01898,151.93552 182.01898,157.59218 182.01898,157.59218C182.01898,157.59218 167.93279,157.59218 167.93279,157.59218C167.93279,157.59218 167.93279,130.97258 167.93279,130.97258C167.93279,130.97258 167.93279,130.97258 167.93279,130.97258M185.67918,150.82637C185.67918,150.82637 183.34996,157.59218 183.34996,157.59218C183.34996,157.59218 198.65623,157.59218 198.65623,157.59218C198.65623,157.59218 200.87454,149.71722 200.87454,149.71722C200.87454,149.71722 192.44499,136.62924 192.44499,136.62924C192.44499,136.62924 199.2108,136.62924 199.2108,136.62924C199.2108,136.62924 200.87454,130.97258 200.87454,130.97258C200.87454,130.97258 186.23376,130.97258 186.23376,130.97258C186.23376,130.97258 184.45911,137.18382 184.45911,137.18382C184.45911,137.18382 194.10872,150.82637 194.10872,150.82637C194.10872,150.82637 185.67918,150.82637 185.67918,150.82637C185.67918,150.82637 185.67918,150.82637 185.67918,150.82637" id="svg_9" style="pointer-events:inherit"/><rect x="4.776171680539846" y="130.97265635523945" width="196.09765304718167" height="26.619215290993452" fill="#ffffff" opacity="0" id="svg_10" style="pointer-events:inherit"/></g><g id="svg_44" display="null" style="pointer-events:inherit" clip-id="51"><path d="M102.02205,130.99245C101.85211,130.2482 100.3366,130.50356 99.91654,130.4713C99.46513,130.43558 99.0808,130.69005 98.62239,130.77806C97.03718,131.07959 96.0402,131.3027 94.65019,132.15154C93.31944,132.96375 92.17343,134.16028 90.85488,134.92284C89.18076,135.88756 87.25304,136.25359 85.55453,137.11984C84.34229,137.73598 82.41371,138.8567 81.07861,138.95953C80.09557,139.03447 79.11516,138.88109 78.15565,139.04494C76.87632,139.26369 75.6144,139.88504 74.30893,140.06284C73.69976,140.01315 73.0906,139.96783 72.48057,139.91641C70.98248,140.03407 69.74498,140.40793 68.41596,140.95784C68.12228,141.07809 67.82772,140.9256 67.55146,141.13475C67.38152,140.97177 67.28566,140.93954 67.06081,140.94913C66.88651,140.42886 67.62031,137.25406 67.84341,136.41132C68.05343,135.95729 68.26259,135.5076 68.47349,135.05269C68.93624,133.08574 70.14325,131.35759 70.6243,129.25473C70.75415,128.68738 70.83259,126.83199 71.19165,126.42763C71.87053,126.02847 72.55027,125.62848 73.22916,125.23021C74.72202,124.08597 75.95428,122.7151 77.41663,121.52817C77.76524,121.24142 78.21665,121.14383 78.533,120.89284C79.31471,120.26625 79.91169,119.4218 80.57052,118.54071C81.53177,117.25441 82.27427,116.01865 83.26602,114.76457C83.6547,114.27133 84.2935,114.06828 84.73621,113.55148C85.1275,113.08959 85.8456,111.80853 85.73492,111.21417C85.72186,111.03291 85.66433,111.01112 85.52839,110.95185C85.45692,110.78888 85.592,110.61632 85.61204,110.4159C85.57283,110.23202 85.22511,109.89737 85.09003,109.76228C84.94276,109.80238 84.88524,109.81631 84.76149,109.94006C84.71965,109.85117 84.67783,109.76314 84.63424,109.67687C84.56802,109.64464 84.50092,109.61326 84.43206,109.58276C83.97628,109.87122 83.26776,110.54138 82.93747,111.03114C82.89303,111.03726 82.84683,111.04685 82.80675,111.05032C82.27427,110.64771 82.74749,109.98102 81.75488,109.49473C81.61195,109.53917 81.58319,109.5444 81.47948,109.73701C81.76707,110.16143 82.3832,112.60506 81.94921,113.16715C81.70084,113.38154 81.44984,113.59506 81.20061,113.80857C80.3971,114.58418 79.68598,115.39119 78.85806,116.01865C78.16524,116.50755 77.47066,116.99646 76.77959,117.48624C76.32554,117.97165 75.91856,118.81697 75.65799,119.19083C75.33118,119.42354 75.00437,119.65883 74.67581,119.88803C73.9769,120.42747 73.40957,121.06627 72.70539,121.65279C71.65962,122.53122 70.11535,122.33952 68.93101,122.86937C68.4212,123.09682 67.87565,123.55785 67.47825,124.04935C67.32837,124.28291 67.17934,124.51735 67.03031,124.74829C66.68259,124.84589 66.33313,124.94785 65.9854,125.04721C64.03938,124.15915 64.02457,121.76695 64.1152,120.10327C64.15094,119.45404 64.35225,118.83527 64.32959,118.30803C64.30257,117.69276 63.57053,116.735 63.01279,116.25832C62.41669,115.74675 62.0219,115.38161 61.36306,115.28835C61.1574,115.17593 61.19836,115.34499 60.96393,115.3511C60.98397,115.27615 61.00401,115.20381 61.02406,115.1306C60.81927,115.12973 60.77917,115.27702 60.61098,115.31187C60.08548,115.41472 59.56258,115.09052 59.07195,115.25699C58.99612,115.18028 58.92205,115.10533 58.84709,115.0304C58.55254,115.22734 58.28412,115.40514 57.93902,115.39293C57.91898,115.49313 57.8998,115.59422 57.88062,115.69272C57.70721,115.76593 57.74641,115.75284 57.56166,115.67004C57.48497,115.71364 57.54947,115.69096 57.46406,115.70667C57.34641,115.93498 57.42921,115.96375 57.39434,116.21037C57.31416,116.14587 57.23399,116.08313 57.15381,116.01778C57.14858,116.02911 57.14335,116.04131 57.13811,116.05264C57.17298,116.34111 57.23224,116.63829 57.56341,116.82475C57.60959,117.142 57.04749,119.46536 56.85141,119.87321C56.96471,120.07974 57.08148,120.29239 57.26885,120.39436C57.17036,120.84404 57.07189,121.29286 56.97429,121.74081C57.12505,121.97958 57.25229,122.01881 57.55034,122.00835C57.5303,122.26108 57.51024,122.51205 57.48933,122.76216C57.54947,123.06284 58.61877,124.48421 59.03448,124.67073C59.34471,124.58009 59.70116,124.58879 59.96172,124.35962C60.00704,124.38138 60.05236,124.40056 60.0968,124.42235C60.08722,124.65329 60.07763,124.88074 60.06804,125.11082C59.34209,125.68512 58.26146,125.94482 57.261,125.74438C56.35728,125.56659 55.74376,125.22324 55.00909,125.36006C54.09927,125.53436 53.12147,125.83327 52.27612,126.1958C51.76718,126.4128 51.22861,126.8259 50.65604,126.84506C50.14273,126.79889 49.6277,126.75443 49.11439,126.70824C48.24989,126.71521 47.34006,126.80237 46.50866,126.81804C45.62585,126.83636 44.58704,126.26465 43.73299,126.23068C42.81358,126.19669 41.88022,126.43375 41.00003,126.53133C39.82352,126.65945 38.34375,126.57927 37.0984,126.32828C36.09969,126.12871 35.96461,123.81841 34.23384,123.35567C34.2016,123.36699 34.1676,123.37917 34.13536,123.39314C34.09963,123.50032 34.0639,123.60664 34.02818,123.71385C34.35759,124.12865 34.68789,124.54085 35.0173,124.9557C35.05652,125.0533 35.04868,124.98444 35.02166,125.12303C33.78416,124.974 31.20718,125.48206 30.3601,126.29692C30.33395,126.38231 30.30869,126.46597 30.28341,126.54962C30.67732,126.86598 33.71095,127.96057 34.44125,128.06514C34.81076,128.0974 35.17853,128.1331 35.5489,128.16449C38.07272,128.70393 40.47975,129.59894 42.91902,129.76714C45.10383,129.91791 47.17709,129.64078 49.39066,129.84123C51.3053,130.01378 52.10096,130.01378 53.76637,129.64165C54.1472,129.55798 54.75375,129.4351 55.12587,129.81943C55.57992,130.28917 55.63744,131.08832 55.83352,131.67221C56.46535,133.54416 56.88453,135.32285 57.10588,137.36821C57.25141,138.11942 57.39696,138.87674 57.54162,139.62971C57.53553,140.19878 57.105,140.60228 56.98126,141.01711C56.82003,141.56004 56.70065,142.10034 56.56208,142.6337C55.79169,143.34482 54.6239,142.87859 53.63041,143.00581C52.97592,143.11476 52.32231,143.22282 51.66783,143.33176C50.94538,143.58797 50.22291,143.84419 49.50134,144.1004C49.2974,144.21021 49.09522,144.32265 48.89217,144.43506C47.6904,144.65465 46.36575,144.83333 45.01319,144.98494C44.05021,145.09389 42.7151,145.97672 41.70244,146.08913C40.71766,146.1693 39.73463,146.2486 38.75072,146.32619C38.24265,146.29828 37.73371,146.26865 37.22651,146.23642C35.50184,146.45166 33.66738,146.42989 31.86253,146.34708C30.00716,146.26341 28.05154,145.33441 26.24496,145.22986C24.74776,145.13921 23.59827,145.44948 22.28059,145.69783C21.36728,145.86865 20.49842,145.58542 19.71931,146.15797C19.58249,146.42377 19.58772,146.50133 19.73413,146.65733C20.14721,147.0896 20.64396,146.66692 20.97337,146.74013C21.00997,146.7471 22.08277,147.07825 22.12199,147.10612C22.29367,147.2238 22.65098,147.58372 23.02485,147.64734C23.55819,147.80072 24.09241,147.94975 24.62575,148.10136C25.12337,148.39595 26.25891,149.77113 27.16873,149.81558C27.81363,149.84784 28.07072,149.155 28.61365,148.91884C29.11824,148.70184 30.02197,148.76631 30.61806,148.85869C31.69172,149.0295 32.78892,149.55762 33.9567,149.83214C35.12188,150.1049 36.27833,150.24959 37.37031,150.46658C38.17468,150.62344 38.73505,150.89708 39.42351,150.92062C40.39347,150.95808 41.66933,151.00255 42.56084,150.72627C43.36348,150.48138 44.12429,149.96722 44.95741,149.81908C46.50169,149.54543 48.15315,150.21211 49.83511,150.22691C51.48569,150.0692 53.13715,149.91667 54.78687,149.76244C56.3259,149.7877 57.86494,149.81473 59.40223,149.84174C60.53168,149.70229 61.53387,148.86479 62.6302,148.74367C63.07117,148.69049 63.53044,148.93973 64.02718,149.01643C64.74877,149.12973 65.51306,149.03734 66.19718,148.95193C67.56628,148.77766 68.83428,147.8931 70.15108,147.5323C71.92368,147.04166 73.91851,146.60419 75.5473,145.74664C76.7944,145.09129 77.95259,144.26599 79.19707,143.65073C80.17923,143.16093 81.4481,143.37793 82.56011,143.23152C83.63117,142.87773 84.70309,142.52214 85.77327,142.16484C86.52274,141.78749 87.1354,141.20708 87.85263,140.6964C88.76855,140.04454 89.80562,139.4493 90.75466,138.78874C91.52766,138.15865 92.29805,137.52943 93.07192,136.89935C93.48502,136.62396 94.24059,136.16643 94.75651,136.19432C95.38746,136.23006 95.98006,136.7939 96.51951,136.47844C97.41453,135.95206 97.58709,134.37292 98.04461,133.80733C98.21455,133.70624 98.38361,133.60777 98.55442,133.50842C99.33789,132.9193 99.93311,131.92929 100.80459,131.58333C101.19937,131.42558 101.53838,131.66524 101.9009,131.35062C102.01422,131.25302 102.0447,131.11096 102.02205,130.99245z" id="svg_45" style="pointer-events:inherit"/></g><g id="svg_49" fill-opacity="1" display="null" style="pointer-events:inherit"><path fill="#000000" d="M62.12068,155.9595L66.86115,155.9595L68.32597,151.21904L69.79091,155.9595L74.53126,155.9595L70.69614,158.88927L72.16109,163.62961L68.32597,160.69984L64.49085,163.62961L65.9558,158.88927L62.12068,155.9595z" id="svg_50" style="pointer-events:inherit"/></g></g><defs><mask id="canvasMaskImageDef" maskUnits="objectBoundingBox" x="0" y="0"><image xmlns:xlink="http://www.w3.org/1999/xlink" id="canvasMaskImage" preserveAspectRatio="none" x="-103.65" y="-36.45" width="400" height="440.0580551523948" xlink:href="http://allinonedesigner.designnbuy.in/media/catalog/product/w/h/white-tees-1_-front_1_3.png"/></mask></defs></svg>