<?xml version="1.0" encoding="utf-8"?>
<!-- Generator: Adobe Illustrator 16.0.0, SVG Export Plug-In . SVG Version: 6.00 Build 0)  -->
<!DOCTYPE svg PUBLIC "-//W3C//DTD SVG 1.1//EN" "http://www.w3.org/Graphics/SVG/1.1/DTD/svg11.dtd">
<svg version="1.1"
	 id="svg1207" xmlns:cc="http://creativecommons.org/ns#" xmlns:dc="http://purl.org/dc/elements/1.1/" xmlns:rdf="http://www.w3.org/1999/02/22-rdf-syntax-ns#"
	 xmlns="http://www.w3.org/2000/svg" xmlns:xlink="http://www.w3.org/1999/xlink" x="0px" y="0px" width="144px" height="108px"
	 viewBox="0 0 144 108" enable-background="new 0 0 144 108" xml:space="preserve">
<rect id="rect3472" fill="#FFFF00" width="143.891" height="107.776"/>
<path fill="#009D00" d="M0,0h143.877v30.858H0V0z M0,77.141h143.877V108H0V77.141z"/>
<path id="path570" fill="#F10600" d="M0.149,0C0.449,0,54,53.373,54,53.373L0,108L0.149,0L0.149,0z"/>
<path d="M86.9,56.676l-6.744-5.041l8.332,0.009l2.566-8.164l2.568,8.164l8.332-0.008l-6.744,5.04l2.58,8.16l0,0l-6.736-5.05
	l-6.738,5.049L86.9,56.676z M45.361,56.676l-6.744-5.041l8.333,0.009l2.567-8.164l2.568,8.164l8.332-0.008l-6.746,5.04l2.582,8.16
	l0,0l-6.737-5.05l-6.737,5.049L45.361,56.676z"/>
</svg>
