<?xml version="1.0" encoding="utf-8"?>
<!-- Generator: Adobe Illustrator 16.0.0, SVG Export Plug-In . SVG Version: 6.00 Build 0)  -->
<!DOCTYPE svg PUBLIC "-//W3C//DTD SVG 1.1//EN" "http://www.w3.org/Graphics/SVG/1.1/DTD/svg11.dtd">
<svg version="1.1" id="Layer_1" xmlns="http://www.w3.org/2000/svg" xmlns:xlink="http://www.w3.org/1999/xlink" x="0px" y="0px"
	 width="23.004px" height="20.521px" viewBox="4.569 4.253 23.004 20.521" enable-background="new 4.569 4.253 23.004 20.521"
	 xml:space="preserve">
<path fill="#000000" d="M14.505,5.873c-3.937,2.521-5.904,5.557-5.904,9.108c0,1.104,0.192,1.656,0.576,1.656l0.396-0.107
	c0.312-0.12,0.563-0.18,0.756-0.18c1.128,0,2.069,0.41,2.825,1.229c0.757,0.82,1.135,1.832,1.135,3.037
	c0,1.157-0.408,2.14-1.225,2.947c-0.815,0.807-1.8,1.211-2.952,1.211c-1.608,0-2.935-0.661-3.979-1.984
	c-1.044-1.321-1.565-2.979-1.565-4.977c0-2.259,0.443-4.327,1.332-6.203c0.888-1.875,2.243-3.57,4.067-5.085
	c1.824-1.515,2.988-2.272,3.492-2.272c0.336,0,0.612,0.162,0.828,0.486s0.323,0.604,0.323,0.846L14.505,5.873z M27.465,5.873
	c-3.938,2.521-5.904,5.557-5.904,9.108c0,1.104,0.192,1.656,0.576,1.656l0.396-0.107c0.313-0.12,0.563-0.18,0.756-0.18
	c1.104,0,2.04,0.41,2.809,1.229c0.769,0.82,1.151,1.832,1.151,3.037c0,1.157-0.408,2.14-1.224,2.947
	c-0.816,0.807-1.801,1.211-2.952,1.211c-1.608,0-2.935-0.661-3.979-1.984c-1.044-1.321-1.564-2.979-1.564-4.977
	c0-2.284,0.449-4.369,1.35-6.256c0.9-1.888,2.256-3.577,4.068-5.067c1.812-1.49,2.97-2.236,3.474-2.236
	c0.336,0,0.612,0.162,0.828,0.486s0.324,0.606,0.324,0.846L27.465,5.873z"/>
</svg>
