<?xml version="1.0" encoding="utf-8"?>
<!-- Generator: Adobe Illustrator 16.0.0, SVG Export Plug-In . SVG Version: 6.00 Build 0)  -->
<!DOCTYPE svg PUBLIC "-//W3C//DTD SVG 1.1//EN" "http://www.w3.org/Graphics/SVG/1.1/DTD/svg11.dtd">
<svg version="1.1" id="Layer_1" xmlns="http://www.w3.org/2000/svg" xmlns:xlink="http://www.w3.org/1999/xlink" x="0px" y="0px"
	 width="97.461px" height="88.333px" viewBox="0 0 97.461 88.333" enable-background="new 0 0 97.461 88.333" xml:space="preserve">
<path fill="#321651" d="M48.362,0.083c-0.089,0.187-0.297,0.259-0.557,0.278C47.823-0.155,48.009,0.012,48.362,0.083L48.362,0.083z
	 M48.5,1.059c-0.059,0.171-0.174,0.286-0.414,0.279C48.146,1.167,48.264,1.051,48.5,1.059L48.5,1.059z M69.27,1.616
	c0.323-0.043,0.535,0.021,0.697,0.139C69.764,1.979,69.202,2.195,69.27,1.616L69.27,1.616z M53.521,2.871c0.138,0,0.276,0,0.418,0
	c0,0.093,0,0.187,0,0.279c-0.142,0-0.28,0-0.418,0C53.521,3.057,53.521,2.963,53.521,2.871L53.521,2.871z M42.369,3.15
	c0.438-0.363,0.824,0.194,0.561,0.696c-0.483,0.11-0.59-0.154-0.835-0.28C42.045,3.169,43.124,3.501,42.369,3.15L42.369,3.15z
	 M35.123,3.706c0.163,0.023,0.119,0.255,0.139,0.419c-0.284-0.244-0.272,0.105-0.557-0.14C34.747,3.5,35.081,3.998,35.123,3.706
	L35.123,3.706z M40.977,3.846C41.4,3.332,41.447,4.27,40.977,3.846L40.977,3.846z M45.716,3.706c0.451-0.172,0.104,0.452,0.558,0.28
	c-0.086,0.379-0.382,0.545-0.835,0.558c-0.119-0.162-0.187-0.375-0.143-0.697C45.497,3.858,45.693,3.869,45.716,3.706L45.716,3.706z
	 M54.497,4.125c0,0.139,0,0.278,0,0.418c-0.187,0-0.373,0-0.558,0C54.061,4.339,54.148,4.102,54.497,4.125L54.497,4.125z
	 M52.127,4.265C51.818,4.69,51.232,4.104,52.127,4.265L52.127,4.265z M70.523,5.38c0.024-0.164,0.252-0.12,0.416-0.14
	C70.919,5.403,70.688,5.358,70.523,5.38L70.523,5.38z M42.65,5.938c0,0.092,0,0.186,0,0.278c-0.438,0.064-0.625-0.124-0.557-0.558
	c0.139,0,0.275,0,0.418,0C42.229,6.143,42.571,5.646,42.65,5.938L42.65,5.938z M51.986,5.938
	C52.335,5.394,52.189,6.398,51.986,5.938L51.986,5.938z M41.254,6.772c0.395-0.115,0.361,0.197,0.7,0.141
	C41.883,7.164,41.063,7.449,41.254,6.772L41.254,6.772z M68.293,6.913c0.023-0.163,0.256-0.119,0.418-0.141
	C68.689,6.937,68.46,6.89,68.293,6.913L68.293,6.913z M40.281,7.19c0.032-0.175,0.275-0.14,0.278,0
	C40.497,7.394,40.438,7.177,40.281,7.19L40.281,7.19z M38.606,7.19c0.14,0,0.28,0,0.421,0c0,0.14,0,0.279,0,0.418
	C38.722,7.634,38.583,7.495,38.606,7.19L38.606,7.19z M34.983,7.889C35.331,7.345,35.188,8.351,34.983,7.889L34.983,7.889z
	 M52.127,8.167C52.473,7.623,52.329,8.628,52.127,8.167L52.127,8.167z M40.141,8.584c-0.092,0.188-0.299,0.26-0.557,0.28
	C39.442,8.444,39.893,8.617,40.141,8.584L40.141,8.584z M31.639,8.864c0.376,0.01,0.67,0.317,0.418,0.557
	C31.689,9.463,31.601,9.229,31.639,8.864L31.639,8.864z M35.262,9.002C35.608,8.46,35.464,9.465,35.262,9.002L35.262,9.002z
	 M49.757,9.979c0.095,0,0.187,0,0.279,0c0,0.092,0,0.185,0,0.277c-0.093,0-0.185,0-0.279,0
	C49.757,10.164,49.757,10.071,49.757,9.979L49.757,9.979z M45.995,10.256c0.184,0,0.371,0,0.558,0c-0.098,0.431-0.098,0.27,0,0.698
	C46.036,11.052,45.936,10.734,45.995,10.256L45.995,10.256z M61.881,10.256c0.094,0,0.188,0,0.28,0
	c0.065,0.299-0.198,0.267-0.418,0.281C61.77,10.424,61.881,10.397,61.881,10.256L61.881,10.256z M40.699,10.397
	c0.139,0,0.278,0,0.417,0c0.106,0.095,0.365,0.83-0.139,0.697C41.382,10.701,40.559,10.919,40.699,10.397L40.699,10.397z
	 M51.014,10.537c0.303-0.027,0.44,0.112,0.416,0.417c-0.142,0-0.279,0-0.416,0C51.014,10.814,51.014,10.676,51.014,10.537
	L51.014,10.537z M38.328,10.814c-0.057-0.27,0.633-0.204,0.417,0.14c-0.091,0-0.184,0-0.278,0
	C38.494,10.835,38.415,10.823,38.328,10.814L38.328,10.814z M27.738,10.814c-0.062,0.172-0.181,0.287-0.42,0.28
	C27.251,10.797,27.518,10.829,27.738,10.814L27.738,10.814z M39.164,10.954c0.364-0.039,0.7-0.047,0.56,0.419
	C39.359,11.412,39.122,11.322,39.164,10.954L39.164,10.954z M47.248,11.232c-0.021,0.187,0.219,0.769,0.278,0.418
	c0.348,0.021,0.042,0.472,0,0.558c-0.112-0.073-0.225-0.144-0.417-0.139c0.344-0.555-0.148-0.195-0.418-0.557
	C46.724,11.268,46.931,11.195,47.248,11.232L47.248,11.232z M41.954,11.373c0.436,0.096,0.181,0.372,0.14,0.696
	c-0.326,0.044-0.537-0.022-0.7-0.14c0.074-0.111,0.146-0.226,0.139-0.417C41.732,11.524,41.928,11.535,41.954,11.373L41.954,11.373z
	 M46.413,11.513c0.059,0.291-0.095,0.367-0.139,0.557C45.868,12.043,45.936,11.407,46.413,11.513L46.413,11.513z M48.5,11.651
	c0.021-0.053,0.296-0.247,0.418-0.138C49.197,11.75,48.306,12.178,48.5,11.651L48.5,11.651z M40.419,11.651
	C40.935,12.074,39.996,12.121,40.419,11.651L40.419,11.651z M43.346,12.208c-0.056-0.27,0.634-0.204,0.418,0.14
	c-0.092,0-0.187,0-0.278,0C43.509,12.229,43.432,12.216,43.346,12.208L43.346,12.208z M33.171,12.349
	C33.253,11.788,33.054,13.172,33.171,12.349L33.171,12.349z M46.552,12.349c0.112,0.074,0.225,0.146,0.418,0.139
	c0.029,0.238-0.237,0.361,0,0.418c-0.41,0.313-0.17-0.562-0.697,0C46.345,12.7,46.478,12.554,46.552,12.349L46.552,12.349z
	 M31.917,13.184c-0.347,0.021-0.433-0.218-0.696-0.279C31.375,12.548,32.024,12.578,31.917,13.184L31.917,13.184z M34.147,12.905
	c-0.029,0.307,0.365,1.252,0,1.254c0.252,0.354,0.827-0.302,0.697,0.558c-0.374-0.334-0.67,0.256-0.835,0.558
	c-0.726-0.004,0.073-0.726-0.7-0.558c0.119-0.439,0.679-0.438,0.561-1.114c-0.125,0.552-0.693,0.129-0.699,0.557
	c-0.4-0.461-0.436-0.81-0.14-1.394C33.742,12.462,33.911,12.992,34.147,12.905L34.147,12.905z M43.625,12.766
	c0.021-0.162,0.255-0.116,0.417-0.14C44.022,12.791,43.787,12.745,43.625,12.766L43.625,12.766z M54.497,12.766
	C54.963,12.429,54.159,13.232,54.497,12.766L54.497,12.766z M44.46,12.905C43.993,12.482,44.036,13.42,44.46,12.905L44.46,12.905z
	 M41.533,13.324C42.002,12.987,41.199,13.791,41.533,13.324L41.533,13.324z M56.027,13.324
	C56.596,12.924,56.936,13.778,56.027,13.324L56.027,13.324z M28.016,13.324c0.112,0.073,0.225,0.146,0.418,0.139
	c-0.032,0.15-0.278,0.093-0.278,0.279C27.992,13.72,28.037,13.487,28.016,13.324L28.016,13.324z M36.518,14.578
	c-0.767,0.412-0.536-0.623-0.699-1.115c0.518-0.097,0.349,0.488,0.56,0.696c0.288-0.423,1.061-0.046,1.114,0.558
	c-0.187,0-0.371,0-0.557,0c0-0.139,0-0.278,0-0.418C36.651,14.477,36.29,14.5,36.518,14.578L36.518,14.578z M45.017,13.881
	C45.367,13.336,45.222,14.344,45.017,13.881L45.017,13.881z M42.65,14.578c0.039-0.378-0.833,0.141-0.418,0.139
	c-0.856,0.268,0.08-0.908,0.697-0.836c0.062,0.463,0.293,0.436,0.138,1.115c-0.394,0.116-0.361-0.197-0.699-0.14
	C42.319,14.62,42.478,14.594,42.65,14.578L42.65,14.578z M28.016,14.299c0.044,0.246-0.782,0.249-0.56-0.14
	C27.744,13.881,27.731,14.222,28.016,14.299L28.016,14.299z M44.739,14.159c-0.042,0.189-0.196,0.267-0.139,0.558
	c0.187,0,0.374,0,0.56,0C45.198,14.352,45.106,14.117,44.739,14.159L44.739,14.159z M57.424,14.159c0.094,0,0.184,0,0.277,0
	c0,0.093,0,0.187,0,0.28c-0.094,0-0.186,0-0.277,0C57.424,14.346,57.424,14.252,57.424,14.159L57.424,14.159z M62.855,14.159
	c0.293-0.06,0.371,0.096,0.559,0.14C63.462,14.544,62.635,14.547,62.855,14.159L62.855,14.159z M32.752,14.299
	c-0.095,0.376,0.291,0.27,0.418,0.418C33.256,14.355,33.117,14.215,32.752,14.299L32.752,14.299z M39.164,14.439
	C39.631,14.102,38.829,14.905,39.164,14.439L39.164,14.439z M23.554,14.578c-0.059,0.172-0.178,0.287-0.417,0.278
	C23.072,14.56,23.338,14.592,23.554,14.578L23.554,14.578z M46.413,14.717c-0.033,0.246-0.24,0.318-0.557,0.279
	C45.79,14.562,46.205,14.498,46.413,14.717L46.413,14.717z M50.175,14.578c0.173,0.061,0.287,0.178,0.278,0.418
	C49.971,15.118,49.977,14.781,50.175,14.578L50.175,14.578z M27.317,14.856C27.788,15.279,27.741,14.342,27.317,14.856
	L27.317,14.856z M38.606,14.996C38.271,15.465,39.075,14.659,38.606,14.996L38.606,14.996z M50.73,14.856c0.093,0,0.188,0,0.283,0
	c0,0.094,0,0.186,0,0.28c-0.096,0-0.19,0-0.283,0C50.73,15.042,50.73,14.95,50.73,14.856L50.73,14.856z M36.936,15.136
	C37.013,14.577,36.817,15.958,36.936,15.136L36.936,15.136z M46.97,15.136C47.316,14.592,47.174,15.597,46.97,15.136L46.97,15.136z
	 M49.757,15.414c-0.248,0.018-0.293-0.17-0.557-0.139C49.224,14.87,49.861,14.938,49.757,15.414L49.757,15.414z M37.354,15.275
	C37.555,15.737,37.7,14.73,37.354,15.275L37.354,15.275z M69.128,15.554c0.046-0.188,0.351-0.116,0.56-0.14c0,0.14,0,0.279,0,0.419
	C69.305,15.934,69.407,15.556,69.128,15.554L69.128,15.554z M40.419,15.554c0.293,0.505,0.869-0.133,0.975,0.557
	c-0.394-0.145-0.581-0.145-0.975,0C40.65,15.834,40.409,15.934,40.419,15.554L40.419,15.554z M34.009,16.528
	c-0.163-0.208-0.404-0.34-0.417-0.695c0.112,0.025,0.139,0.14,0.278,0.14c0.213-0.685,0.82,0.158,0.975-0.14
	c0.187,0.09,0.261,0.297,0.278,0.557c-0.287-0.289-0.705,0.001-0.695,0.419c-0.113-0.075-0.229-0.146-0.418-0.14
	C34.174,16.508,34.063,16.314,34.009,16.528L34.009,16.528z M42.65,16.11c-0.293,0.059-0.371-0.095-0.557-0.138
	C42.117,15.566,42.754,15.636,42.65,16.11L42.65,16.11z M54.216,15.833c0.153,0.035,0.095,0.276,0.281,0.277
	c0.022,0.119-0.058,0.132-0.144,0.139c-0.092,0-0.184,0-0.275,0C54.038,16.025,54.209,16.011,54.216,15.833L54.216,15.833z
	 M50.036,15.973c0.091,0,0.187,0,0.276,0c0,0.092,0,0.185,0,0.277c-0.09,0-0.187,0-0.276,0
	C50.036,16.158,50.036,16.064,50.036,15.973L50.036,15.973z M22.998,17.226c-0.43,0.257-1.078-0.258-1.393-0.557
	C21.922,15.721,23.015,16.313,22.998,17.226L22.998,17.226z M22.162,16.668C22.53,15.932,21.898,17.198,22.162,16.668L22.162,16.668
	L22.162,16.668z M36.796,16.39C36.876,15.83,36.677,17.214,36.796,16.39L36.796,16.39z M53.798,16.39
	c0.136,0.561-0.832,0.561-0.696,0C53.369,16.128,53.354,16.472,53.798,16.39L53.798,16.39z M20.909,16.39
	c0.48-0.098,0.499,0.489,0.276,0.696C20.826,16.908,20.75,16.798,20.909,16.39L20.909,16.39z M44.739,16.528
	c0.341-0.374,0.516,0.596,0.139,0.697c-0.352,0.152-0.539-0.653-0.556,0c-0.208-0.119-0.299-0.35-0.279-0.697
	C44.576,16.313,45.112,17.066,44.739,16.528L44.739,16.528z M26.203,16.947c-0.249,0.018-0.293-0.17-0.557-0.139
	C25.669,16.404,26.309,16.472,26.203,16.947L26.203,16.947z M30.524,16.668c0.033-0.175,0.276-0.141,0.279,0
	C30.741,16.871,30.679,16.654,30.524,16.668L30.524,16.668z M38.05,16.668c0.408,0.29,1.247,0.148,1.256,0.836
	C38.464,17.623,38.05,17.626,38.05,16.668L38.05,16.668z M31.221,17.085C31.689,16.75,30.883,17.554,31.221,17.085L31.221,17.085z
	 M36.379,17.085c0,0.14,0,0.28,0,0.419c0.139,0,0.279,0,0.417,0c0-0.139,0-0.279,0-0.419C36.658,17.085,36.518,17.085,36.379,17.085
	L36.379,17.085z M31.639,17.226c-0.225,0.388,0.602,0.386,0.557,0.14C31.932,17.396,31.888,17.208,31.639,17.226L31.639,17.226z
	 M34.147,17.226c0.91,0.132-0.041,0.875-0.417,0.977C33.286,17.717,34.379,17.924,34.147,17.226L34.147,17.226z M40.002,17.366
	c0.036-0.176,0.275-0.141,0.279,0C40.219,17.568,40.156,17.352,40.002,17.366L40.002,17.366z M55.473,17.226
	c0.227-0.04,0.239,0.133,0.418,0.14C55.945,17.636,55.255,17.569,55.473,17.226L55.473,17.226z M25.507,17.644
	c0.091,0,0.186,0,0.278,0c0,0.092,0,0.187,0,0.278c-0.092,0-0.187,0-0.278,0C25.507,17.831,25.507,17.736,25.507,17.644
	L25.507,17.644z M38.746,17.783c0.516,0.136,0.726,0.575,1.256,0.697c-0.012,0.36-0.599,0.148-0.418,0.697
	c-0.456-0.125-1.072-0.012-1.674-0.279c-0.024-0.573,0.623-0.261,0.279-0.837C38.512,18.103,38.843,18.412,38.746,17.783
	L38.746,17.783z M30.244,18.061C30.448,17.601,30.593,18.605,30.244,18.061L30.244,18.061z M32.057,18.061
	c0.385-0.072,0.32,0.754,0.139,1.116C31.239,19.057,31.604,18.43,32.057,18.061L32.057,18.061z M50.175,18.202
	c0.364-0.04,0.599,0.05,0.558,0.418C50.342,18.763,50.141,18.778,50.175,18.202L50.175,18.202z M26.899,19.177
	c-0.158,0.027-0.078,0.14,0,0.14c-0.193,0.404-0.688-0.04-0.836-0.14c-0.005-0.471,0.326-0.604,0.558-0.837
	c0.438,0.166,0.317,0.893,0.835,0.977c-0.172,0.234-0.403,0.711-0.696,0.417C26.837,19.45,27.18,19.462,26.899,19.177L26.899,19.177
	z M42.232,18.34c-0.062,0.173-0.181,0.288-0.42,0.28C41.747,18.322,42.01,18.354,42.232,18.34L42.232,18.34z M45.716,18.34
	c0.788,0.025,0.857,0.783,1.671,0.419c0.125,0.34-0.619,0.717,0,0.697C46.635,19.832,45.79,19.107,45.716,18.34L45.716,18.34z
	 M32.614,18.48c-0.258,0.275-0.208,1.026,0.417,0.837c0.133-0.26-0.417-0.466,0-0.558c0.539,0.146,0.068,0.435,0.699,0.418
	C33.802,18.5,32.976,18.724,32.614,18.48L32.614,18.48z M37.075,18.62C37.422,18.076,37.276,19.081,37.075,18.62L37.075,18.62z
	 M66.203,18.62c-0.04-0.222,0.75-0.196,0.419,0.139C66.676,18.704,66.203,18.61,66.203,18.62L66.203,18.62z M30.524,18.759
	c-0.349-0.277-1.11-0.078-1.255,0.279c0.406,0.105,0.69,0.331,0.975,0.558C30.368,19.348,30.635,19.241,30.524,18.759L30.524,18.759
	z M67.598,18.759C67.27,19.208,67.034,18.27,67.598,18.759L67.598,18.759z M45.159,18.898c0.136,0,0.163,0.113,0.279,0.14
	C45.817,18.813,45.233,18.569,45.159,18.898L45.159,18.898z M55.473,18.759c0.092,0,0.187,0,0.277,0c0,0.092,0,0.185,0,0.279
	c-0.092,0-0.188,0-0.277,0C55.473,18.944,55.473,18.851,55.473,18.759L55.473,18.759z M41.954,19.456
	c-0.797-0.459-0.047,0.506-0.978,0C40.989,18.79,41.942,18.79,41.954,19.456L41.954,19.456z M51.148,19.038
	C50.587,18.546,50.82,19.486,51.148,19.038L51.148,19.038z M40.559,19.596c-0.053-0.385-0.492-0.748-0.835-0.419
	c-0.005,0.192,0.066,0.306,0.14,0.419C40.207,19.58,40.292,19.333,40.559,19.596L40.559,19.596z M28.434,19.177
	c0.092,0,0.187,0,0.278,0c0,0.093,0,0.185,0,0.279c-0.091,0-0.186,0-0.278,0C28.434,19.362,28.434,19.27,28.434,19.177
	L28.434,19.177z M49.201,19.596c0.406-0.205,0.406,0.622,0,0.417C49.201,19.874,49.201,19.734,49.201,19.596L49.201,19.596z
	 M95.749,19.596c0.226-0.04,0.239,0.13,0.418,0.138C96.223,20.006,95.533,19.938,95.749,19.596L95.749,19.596z M34.147,19.734
	c0.093,0,0.187,0,0.28,0c0.065,0.297-0.199,0.267-0.418,0.279C34.035,19.902,34.147,19.875,34.147,19.734L34.147,19.734z
	 M45.295,19.874c0.018,0.25-0.169,0.294-0.136,0.559c-0.476,0.057-0.797-0.043-0.699-0.559
	C44.869,19.749,44.89,19.749,45.295,19.874L45.295,19.874z M26.203,20.013c0,0.093,0,0.187,0,0.279c0.14,0,0.166,0.113,0.278,0.141
	C26.47,20.212,26.499,19.949,26.203,20.013L26.203,20.013z M41.254,20.013c0.14,0,0.279,0,0.419,0c0.017,0.25-0.17,0.294-0.14,0.558
	C41.347,20.479,41.276,20.272,41.254,20.013L41.254,20.013z M51.568,20.153c0.142,0.091,0.145,0.321,0.418,0.279
	c-0.12,0.404-0.209,0.156-0.559,0.139c0-0.092,0-0.187,0-0.279C51.547,20.317,51.563,20.238,51.568,20.153L51.568,20.153z
	 M28.851,20.571c0.083,0.499-0.411,0.424-0.835,0.418c0.018-0.25-0.171-0.294-0.14-0.557C28.117,20.188,28.736,20.276,28.851,20.571
	L28.851,20.571z M46.69,20.292c0.306,0.021,0.3,0.352,0.28,0.697c-0.164-0.023-0.25,0.031-0.28,0.14
	c-0.246-0.033-0.316-0.241-0.278-0.558c0.113,0.025,0.14,0.139,0.278,0.139C46.69,20.571,46.69,20.432,46.69,20.292L46.69,20.292z
	 M26.899,20.432c0.138,0,0.281,0,0.418,0c0,0.139,0,0.277,0,0.418c-0.122-0.086-0.25-0.169-0.28,0
	C26.875,20.827,26.923,20.595,26.899,20.432L26.899,20.432z M29.13,20.432c0.426-0.101,0.509,0.142,0.835,0.139
	c-0.505,0.172-0.532,0.291-0.558,0.697C29.166,21.14,29.1,20.832,29.13,20.432L29.13,20.432z M45.855,20.851
	c0.302-0.027,0.445,0.113,0.418,0.417C45.968,21.292,45.829,21.154,45.855,20.851L45.855,20.851z M21.327,20.989
	c0.23,0,0.462,0,0.696,0C22.13,21.41,21.111,21.683,21.327,20.989L21.327,20.989z M42.79,20.989
	c-0.062,0.172-0.181,0.287-0.421,0.279C42.307,20.971,42.571,21.001,42.79,20.989L42.79,20.989z M43.486,20.989
	c0.477,0.074,0.213,0.672,0.139,0.977c-0.322,0.044-0.536-0.023-0.696-0.141C42.997,21.429,43.655,21.625,43.486,20.989
	L43.486,20.989z M28.573,21.407c0.486,0.118,0.845,0.364,0.975,0.837c-0.401-0.018-0.913,0.075-1.114-0.141
	C28.318,21.71,28.629,21.743,28.573,21.407L28.573,21.407z M0,21.824c0.044-0.188,0.349-0.114,0.56-0.139
	c0.039,0.226-0.133,0.24-0.139,0.419c-0.096,0-0.187,0-0.28,0C0.163,21.941,0.11,21.857,0,21.824L0,21.824z M41.673,21.965
	C41.877,21.503,42.02,22.508,41.673,21.965L41.673,21.965z M57.003,21.965C56.675,22.414,56.439,21.475,57.003,21.965L57.003,21.965
	z M51.568,21.965c0.305-0.026,0.441,0.112,0.418,0.417c-0.143,0-0.276,0-0.418,0C51.568,22.245,51.568,22.104,51.568,21.965
	L51.568,21.965z M42.369,22.522c0.196-0.362,0.724,0.102,0.978,0.141c-0.118,0.205-0.352,0.298-0.696,0.277
	C42.656,22.702,42.544,22.58,42.369,22.522L42.369,22.522z M48.643,22.382c0.383,0.033,0.318,0.519,0.558,0.697
	c-0.211,0.466-0.626,0.415-0.978,0.14C48.226,22.802,48.587,22.745,48.643,22.382L48.643,22.382z M24.529,22.663
	c0.574,0.074,0.782,0.517,0.699,1.253c-0.617-0.257-0.571,0.225-0.975,0C24.115,23.269,24.434,23.075,24.529,22.663L24.529,22.663z
	 M39.027,22.94C39.229,22.479,39.371,23.483,39.027,22.94L39.027,22.94z M14.356,23.079c0.035-0.174,0.278-0.141,0.278,0
	C14.572,23.281,14.513,23.064,14.356,23.079L14.356,23.079z M32.057,23.079c-0.054-0.271,0.633-0.203,0.417,0.14
	c-0.091,0-0.186,0-0.278,0C32.222,23.1,32.143,23.088,32.057,23.079L32.057,23.079z M44.46,22.94
	c0.142,0.42-0.312,0.247-0.557,0.279C43.936,22.974,44.144,22.901,44.46,22.94L44.46,22.94z M47.666,22.94
	c0.225-0.039,0.24,0.132,0.421,0.139c-0.029,0.113-0.142,0.138-0.142,0.279c-0.093,0-0.184,0-0.279,0
	C47.666,23.219,47.666,23.079,47.666,22.94L47.666,22.94z M41.254,23.497c0.036-0.174,0.276-0.141,0.279,0
	C41.471,23.7,41.412,23.483,41.254,23.497L41.254,23.497z M51.71,23.358c-0.063,0.171-0.181,0.286-0.422,0.278
	C51.227,23.34,51.486,23.373,51.71,23.358L51.71,23.358z M18.678,23.636c0.091,0,0.184,0,0.278,0c0,0.094,0,0.187,0,0.28
	c-0.094,0-0.187,0-0.278,0C18.678,23.822,18.678,23.73,18.678,23.636L18.678,23.636z M44.182,23.777
	C44.387,24.238,44.528,23.233,44.182,23.777L44.182,23.777z M26.76,23.777c0.287,0.178,0.708,0.223,0.696,0.697
	c-0.133,0.003-0.106,0.17-0.139,0.278C26.733,24.727,26.511,24.26,26.76,23.777L26.76,23.777z M38.746,24.056
	c0.264,0.294,0.72,0.396,0.561,1.114c-0.35-0.266-0.548,0.115-0.978-0.14C38.239,24.478,38.858,24.632,38.746,24.056L38.746,24.056z
	 M50.175,24.195C50.643,23.857,49.837,24.662,50.175,24.195L50.175,24.195z M54.216,24.056c0.14,0,0.281,0,0.421,0
	c0,0.09,0,0.186,0,0.277c-0.14,0-0.281,0-0.421,0C54.216,24.242,54.216,24.146,54.216,24.056L54.216,24.056z M59.096,24.056
	c0.363-0.04,0.603,0.049,0.557,0.418C59.287,24.512,59.053,24.423,59.096,24.056L59.096,24.056z M22.023,24.195
	c0.406-0.205,0.406,0.623,0,0.417C22.023,24.474,22.023,24.333,22.023,24.195L22.023,24.195z M21.466,24.474
	c-0.024,0.163-0.255,0.117-0.42,0.138c-0.024,0.119,0.056,0.131,0.139,0.14c-0.057,0.348-0.539,0.008-0.415-0.278
	C21.114,24.459,21.199,24.212,21.466,24.474L21.466,24.474z M18.539,24.612c0.465,0.047,0.616,0.404,1.252,0.28
	c-0.011,0.825,0.496,1.144,0.279,1.811C18.953,27.539,17.466,25.571,18.539,24.612L18.539,24.612z M42.79,24.612
	c0.391,0.142-0.038,0.592,0,0.837c0.021,0.302,0.349,0.299,0.696,0.278c0.157-0.128-0.009-0.313,0.278-0.557
	c0.113,0.073,0.229,0.146,0.417,0.138c-0.329,0.761,0.302,0.278,0.279,0.977c-0.696-0.692-2.974,0.28-2.506-1.534
	C42.102,24.912,42.594,24.803,42.79,24.612L42.79,24.612z M42.512,25.309L42.512,25.309c-0.003-0.141-0.247-0.174-0.279,0
	C42.387,25.294,42.449,25.512,42.512,25.309L42.512,25.309z M22.44,24.892c0.096,0,0.187,0,0.279,0
	c0.038,0.225-0.133,0.238-0.139,0.417c-0.091,0-0.187,0-0.278,0C22.262,25.085,22.432,25.069,22.44,24.892L22.44,24.892z
	 M45.716,24.892c0.14,0,0.279,0,0.416,0c-0.184,0.231,0.053,0.886-0.416,0.835C45.977,25.48,45.601,25.375,45.716,24.892
	L45.716,24.892z M16.169,25.031c0.092,0,0.186,0,0.278,0c0,0.093,0,0.186,0,0.278c-0.092,0-0.186,0-0.278,0
	C16.169,25.216,16.169,25.124,16.169,25.031L16.169,25.031z M40.977,25.45c0.139,0,0.278,0,0.417,0c0,0.093,0,0.185,0,0.278
	c-0.14,0-0.278,0-0.417,0C40.977,25.634,40.977,25.542,40.977,25.45L40.977,25.45z M72.197,25.588
	c0.289-0.06,0.367,0.096,0.557,0.139C72.8,25.973,71.973,25.977,72.197,25.588L72.197,25.588z M48.643,25.728
	c0.092,0,0.184,0,0.276,0c0,0.092,0,0.187,0,0.279c-0.092,0-0.184,0-0.276,0C48.643,25.915,48.643,25.819,48.643,25.728
	L48.643,25.728z M17.562,27.121c0.008,0.084,0.021,0.165,0.139,0.14c-0.044-0.324,0.024-0.536,0.143-0.697
	c-0.24,0.008-0.358-0.106-0.42-0.278c-0.431-0.105-0.268,0.381-0.697,0.278c-0.119,0.543,0.498,1.071,0.835,0.697
	C17.485,27.261,17.404,27.148,17.562,27.121L17.562,27.121z M47.526,26.564c0.14,0,0.28,0,0.419,0c0,0.092,0,0.186,0,0.279
	c-0.139,0-0.279,0-0.419,0C47.526,26.75,47.526,26.656,47.526,26.564L47.526,26.564z M43.764,26.843
	c0.02-0.055,0.293-0.248,0.417-0.14C44.457,26.943,43.568,27.369,43.764,26.843L43.764,26.843z M57.563,26.703
	c0.14,0,0.279,0,0.42,0c0,0.093,0,0.187,0,0.279c-0.141,0-0.28,0-0.42,0C57.563,26.89,57.563,26.796,57.563,26.703L57.563,26.703z
	 M40.559,26.982c-0.21,0.163-0.34,0.401-0.695,0.418c0.02-0.163-0.034-0.25-0.14-0.279C39.726,26.739,40.381,26.79,40.559,26.982
	L40.559,26.982z M49.061,26.843c0.23,0,0.462,0,0.696,0C49.895,27.403,48.925,27.403,49.061,26.843L49.061,26.843z M18.814,27.261
	c0.029,0.583-0.681,0.43-0.557,1.115c0.281,0.583,0.479,0.478,1.256,0.417c0.012-0.219-0.019-0.483,0.278-0.417
	C19.763,27.708,19.256,27.518,18.814,27.261L18.814,27.261z M47.806,27.819c-0.318,0.301-0.869,0.05-0.835-0.418
	C47.286,27.097,47.841,27.349,47.806,27.819L47.806,27.819z M35.68,27.4c0.225-0.039,0.24,0.132,0.417,0.14
	C36.154,27.81,35.464,27.743,35.68,27.4L35.68,27.4z M42.79,27.679c0.14,0,0.278,0,0.417,0c-0.148,0.129-0.044,0.514-0.417,0.417
	C42.79,27.957,42.79,27.819,42.79,27.679L42.79,27.679z M57.003,27.957c-0.043-0.245,0.782-0.249,0.56,0.139
	C57.27,28.157,57.191,28,57.003,27.957L57.003,27.957z M35.819,27.957C36.458,28.05,35.709,28.801,35.819,27.957L35.819,27.957z
	 M51.288,27.957c0.294-0.059,0.37,0.096,0.558,0.139C51.895,28.343,51.066,28.346,51.288,27.957L51.288,27.957z M16.169,28.096
	c0.231,0.278-0.012,0.179,0,0.559C15.633,28.764,15.633,27.985,16.169,28.096L16.169,28.096z M43.764,28.655
	c0.14,0.341,0.048,0.296,0.14,0.835c-0.291,0.083-0.478,0.27-0.558,0.558c-0.352-0.346-0.915-0.478-0.834-1.255
	C42.739,28.56,43.329,28.682,43.764,28.655L43.764,28.655z M36.24,28.933c0.153-0.013,0.216,0.202,0.278,0
	C36.515,28.792,36.272,28.758,36.24,28.933L36.24,28.933z M36.936,28.793c0.302-0.024,0.442,0.113,0.418,0.418
	c-0.139,0-0.279,0-0.418,0C36.936,29.073,36.936,28.933,36.936,28.793L36.936,28.793z M41.116,28.793
	c0.438,0.158,0.368-0.039,0.696,0.139C41.607,29.155,41.048,29.373,41.116,28.793L41.116,28.793z M96.727,28.933
	C96.93,28.471,97.074,29.477,96.727,28.933L96.727,28.933z M14.634,28.933c0.972,0.382,0.279,1.071,0.14,1.812
	C14.395,30.201,13.648,29.329,14.634,28.933L14.634,28.933z M35.958,29.073c0.448-0.029,0.342,0.498,0.561,0.697
	c1.504-0.166,2.515,0.105,3.066,1.115c-0.34-0.173-0.907-0.118-0.978-0.557c-0.284,0.077-0.271,0.419-0.556,0.138
	c-0.099,0.349,0.612,0.574,0.139,0.837c-0.435-0.911-1.973-0.721-2.787-1.254c0-0.233,0-0.466,0-0.697
	C35.662,29.332,35.867,29.26,35.958,29.073L35.958,29.073z M47.806,29.073c0.091,0,0.186,0,0.281,0c0,0.093,0,0.186,0,0.279
	c-0.095,0-0.19,0-0.281,0C47.806,29.258,47.806,29.166,47.806,29.073L47.806,29.073z M51.71,29.212
	C52.057,28.669,51.911,29.674,51.71,29.212L51.71,29.212z M39.444,29.212c-0.263-0.03-0.307,0.156-0.559,0.14
	c0,0.139,0,0.279,0,0.418c0.094,0,0.186,0,0.278,0C39.421,29.749,39.249,29.298,39.444,29.212L39.444,29.212z M45.716,29.212
	c0.241,0.125,0.537,0.312,0.279,0.558C45.559,29.834,45.497,29.419,45.716,29.212L45.716,29.212z M40.837,29.352
	c-0.098,0.563,0.133,0.795,0.696,0.697C41.471,29.644,41.241,29.413,40.837,29.352L40.837,29.352z M47.666,29.77
	c-0.249,0.018-0.293-0.171-0.557-0.139C47.136,29.226,47.772,29.294,47.666,29.77L47.666,29.77z M44.6,29.49
	c0.184,0.143,0.515,0.137,0.696,0.279c0.044,0.32-0.402,0.155-0.418,0.418C44.573,30.166,44.581,29.836,44.6,29.49L44.6,29.49z
	 M18.539,29.908c0.092,0,0.184,0,0.275,0c0,0.094,0,0.186,0,0.279c-0.092,0-0.184,0-0.275,0
	C18.539,30.094,18.539,30.002,18.539,29.908L18.539,29.908z M18.678,30.744c-0.109-0.477-0.388-0.782-0.835-0.557
	C17.694,31.029,18.465,30.539,18.678,30.744L18.678,30.744z M47.945,30.048c0.094,0,0.186,0,0.278,0c0,0.093,0,0.185,0,0.279
	c-0.092,0-0.184,0-0.278,0C47.945,30.233,47.945,30.142,47.945,30.048L47.945,30.048z M49.479,30.048
	c0.244,0.034,0.318,0.24,0.279,0.557c-0.186,0-0.369,0-0.557,0C49.1,30.225,49.477,30.325,49.479,30.048L49.479,30.048z
	 M44.042,30.465C44.248,30.004,44.389,31.01,44.042,30.465L44.042,30.465z M55.473,30.884
	C55.875,30.481,55.068,31.286,55.473,30.884L55.473,30.884z M41.673,30.884c0.527-0.107,0.666,0.17,1.116,0.14
	c-0.133,0.285-0.174,0.662-0.557,0.696c-0.062,0.385,0.519,0.13,0.557,0.419c-0.08,0.756-1.38,0.292-1.535,0.975
	c-0.204-0.072-0.349-0.206-0.556-0.278c0.497-0.291,1.042-0.537,1.395-0.976C41.928,31.56,41.497,31.526,41.673,30.884
	L41.673,30.884z M43.486,30.884c-0.104,0.475,0.534,0.543,0.557,0.14C43.853,30.98,43.776,30.825,43.486,30.884L43.486,30.884z
	 M57.424,31.163C57.096,31.612,56.857,30.672,57.424,31.163L57.424,31.163z M18.814,31.441c0.229-0.038,0.243,0.134,0.421,0.14
	C19.289,31.851,18.601,31.785,18.814,31.441L18.814,31.441z M61.881,31.441c0.277,0.003,0.178,0.381,0.559,0.279
	C62.404,32.157,61.746,31.957,61.881,31.441L61.881,31.441z M58.537,31.581C59.018,31.942,57.82,31.918,58.537,31.581L58.537,31.581
	z M70.663,31.86c-0.058-0.27,0.634-0.204,0.418,0.14c-0.093,0-0.187,0-0.278,0C70.829,31.881,70.749,31.867,70.663,31.86
	L70.663,31.86z M47.666,32.417c-0.14,0.723-0.065,0.794-0.14,1.534c-0.438,0.02-0.477-0.358-0.556-0.696
	c0.298,0.065,0.266-0.2,0.278-0.418c-0.128-0.246-0.489-0.256-0.696-0.419C46.659,31.899,47.334,32.34,47.666,32.417L47.666,32.417z
	 M51.846,32.557c0.25,0.101,0.023,0.252,0,0.418C51.6,32.873,51.828,32.721,51.846,32.557L51.846,32.557z M17.981,33.812
	c-0.775-0.046-0.778,1.063-1.394,0.976c-0.258,0.197,0.219,0.676-0.14,0.975c-0.547,0.037-0.885-0.135-1.117-0.418
	c-0.1-0.567,0.451-0.479,0.282-1.114c-0.127-0.245-0.488-0.256-0.696-0.418c-0.092-0.509,0.092-0.743,0.279-0.976
	c0.607-0.005,1.084,0.12,1.531,0.278C16.842,32.275,18.21,33.002,17.981,33.812L17.981,33.812z M42.929,32.836
	c0.506-0.089,0.548,0.288,0.557,0.696C42.979,33.621,42.938,33.243,42.929,32.836L42.929,32.836z M19.514,33.114
	c0.249,0.501,0.314,0.914,0.139,1.254c-0.367-0.283-0.936-0.363-0.975-0.976C18.927,33.27,19.031,33.004,19.514,33.114
	L19.514,33.114z M50.175,33.812c0.367-0.043,0.457,0.192,0.418,0.557C50.227,34.41,50.234,34.078,50.175,33.812L50.175,33.812z
	 M51.014,33.95c0.137,0,0.274,0,0.416,0c0,0.139,0,0.279,0,0.418c0.117,0.026,0.133-0.053,0.141-0.139
	c0.486,0.236-0.272,0.358-0.557,0.279C51.014,34.322,51.014,34.137,51.014,33.95L51.014,33.95z M48.919,36.319
	c0.367,0.709,0.979,0.315,1.396,0.977c-0.526-0.64,0.236-0.863,0.418-1.534c-0.17-0.016-0.328-0.042-0.278-0.277
	c-0.382,0.441-0.802,0.012-1.252,0.277c0.069-1.279-2.4-1.772-2.927-1.114c0.083,1.006,1.022,1.829,0.975,2.508
	c0.293,0.081,0.396,0.346,0.838,0.279C47.947,36.646,48.813,36.861,48.919,36.319L48.919,36.319z M85.438,34.508
	c-0.057-0.272,0.633-0.203,0.418,0.139c-0.092,0-0.187,0-0.28,0C85.6,34.53,85.521,34.515,85.438,34.508L85.438,34.508z
	 M64.113,34.647C64.314,34.187,64.46,35.191,64.113,34.647L64.113,34.647z M43.625,34.647c0.488,0.062,0.589,0.293,0.417,0.696
	C43.652,35.364,43.64,35.003,43.625,34.647L43.625,34.647z M17.283,35.484c-0.545,0.407-0.148,1.165,0.561,1.114
	c-0.104-0.428,0.381-0.268,0.278-0.697C17.902,35.7,17.576,35.607,17.283,35.484L17.283,35.484z M41.812,35.484
	c0.856-0.246,0.64,0.659,1.255,0.277C42.994,36.336,41.536,36.403,41.812,35.484L41.812,35.484z M40.281,35.624
	c0.444-0.12,0.429,0.219,0.696,0.278C40.915,36.176,39.999,36.153,40.281,35.624L40.281,35.624z M52.545,35.624
	c0.092,0,0.188,0,0.278,0c0,0.091,0,0.186,0,0.278c-0.093,0-0.187,0-0.278,0C52.545,35.809,52.545,35.715,52.545,35.624
	L52.545,35.624z M55.75,35.624c0.363-0.041,0.6,0.05,0.559,0.417C55.941,36.079,55.609,36.088,55.75,35.624L55.75,35.624z
	 M0.838,36.319c0.19,0.042,0.116,0.349,0.139,0.558C0.655,36.838,0.655,36.504,0.838,36.319L0.838,36.319z M41.116,36.319
	c-0.101,0.427,0.24,0.409,0.139,0.837c0.504,0.038,0.963,0.035,0.839-0.557C41.958,36.316,41.557,36.297,41.116,36.319
	L41.116,36.319z M39.863,37.435c0.053-0.458,0.405-0.614,0.556-0.975c0.285,0.039,0.273,0.376,0.558,0.417
	c0.074,0.495-0.492,0.343-0.418,0.837C40.212,37.735,40.126,37.495,39.863,37.435L39.863,37.435z M45.295,37.295
	c-0.536,0.026-0.799-0.221-0.835-0.697C45,36.165,45.646,36.798,45.295,37.295L45.295,37.295z M96.865,36.599
	c-0.045-0.247,0.779-0.248,0.558,0.138C97.298,36.629,97.105,36.588,96.865,36.599L96.865,36.599z M49.618,37.573
	c-0.539,0.027-0.802-0.221-0.834-0.696C49.352,36.82,49.662,37.021,49.618,37.573L49.618,37.573z M58.814,37.573
	c0.024,0.229-0.912,0.282-0.694-0.138C58.378,37.164,58.684,37.339,58.814,37.573L58.814,37.573z M41.954,37.435
	c0.091,0,0.184,0,0.278,0c-0.026,0.119,0.053,0.13,0.136,0.138c0,0.092,0,0.188,0,0.28c-0.118-0.026-0.13,0.054-0.136,0.139
	c-0.094,0-0.187,0-0.278,0c0.023-0.12-0.057-0.131-0.142-0.139c0-0.093,0-0.188,0-0.28C41.931,37.599,41.942,37.52,41.954,37.435
	L41.954,37.435z M41.116,40.083c0.939-1.189-0.189-2.304-1.114-2.37c-1.561-0.111-1.831,2.1-0.279,2.788
	c0.436,0.231,0.569-0.52,0.696-0.141c-0.009,0.471,0.249,0.595-0.138,0.836c0.122-0.724-0.865-0.342-0.975-0.836
	c-0.255,0.838-0.516,2.088-0.279,2.787c-0.551-0.083-0.619,0.314-0.699,0.697c0.462,0.42,1.01,0.755,0.978,1.674
	c-0.279-0.232-0.178,0.014-0.561,0c-0.08,0.499,0.163,0.674,0.282,0.975c0.495-0.016,0.954-0.064,1.114-0.418
	c-0.133-0.238-0.461-0.281-0.557-0.557c0.438,0.156,0.314,0.014,0.835,0c-0.197,0.42-0.115,0.805,0.418,0.835
	c-0.205-0.63-0.248-1.423-0.557-1.951c0.619,0.11,0.926-0.094,1.252-0.277c0.143,0.68,0.388,0.429,0.979,0.558
	c-0.039-0.317,0.032-0.525,0.278-0.558c0.246,0.171,0.735,0.101,0.835,0.417c-0.026-0.304,0.112-0.443,0.417-0.417
	c-0.026-0.484-0.492-0.53-0.557-0.978c0.353-0.668,0.42-1.624,0.836-2.229c-0.208-0.209-0.625-0.211-0.558-0.697
	C42.733,40.943,42.404,39.463,41.116,40.083L41.116,40.083z M45.295,37.993c0.117,0.026,0.143,0.14,0.279,0.139
	c-0.027,0.112-0.136,0.139-0.136,0.279c-0.116-0.027-0.143-0.14-0.279-0.139C45.186,38.159,45.295,38.133,45.295,37.993
	L45.295,37.993z M22.58,38.131c0.047,0.464,0.402,0.619,0.279,1.254c-0.202-0.155-0.341-0.149-0.419,0.139
	c-0.293-0.356-0.811-0.49-0.835-1.114C22.034,38.425,22.002,37.971,22.58,38.131L22.58,38.131z M24.671,38.131
	c0.092,0,0.186,0,0.278,0c0,0.093,0,0.186,0,0.279c-0.092,0-0.187,0-0.278,0C24.671,38.317,24.671,38.225,24.671,38.131
	L24.671,38.131z M44.042,38.131c0.572,0.219,0.863,0.72,0.835,1.534c-0.461,0.289-1.516,0.18-1.67-0.28
	C43.242,38.727,43.815,38.601,44.042,38.131L44.042,38.131z M50.73,39.524c-0.229,0-0.465,0-0.694,0
	c0.022-0.16-0.03-0.247-0.14-0.277C50.012,38.719,50.816,39.032,50.73,39.524L50.73,39.524z M17.283,39.108
	c0.285,0.132,0.554,0.283,0.838,0.416c-0.213,0.348-0.195,0.921-0.56,1.116c-0.27-0.056-0.012-0.638-0.557-0.418
	C16.806,39.604,16.966,39.485,17.283,39.108L17.283,39.108z M26.343,39.108c0.032-0.031,0.343,0.213,0.278,0.277
	C26.479,39.529,26.265,39.186,26.343,39.108L26.343,39.108z M41.954,39.385c0.091,0,0.184,0,0.278,0c0,0.093,0,0.186,0,0.28
	c-0.094,0-0.187,0-0.278,0C41.954,39.571,41.954,39.478,41.954,39.385L41.954,39.385z M60.068,40.361
	c-0.401,0.173-0.633,0.072-0.695-0.418C59.643,39.673,60.229,39.797,60.068,40.361L60.068,40.361z M59.096,40.222
	c-0.119,0.208-0.451,0.202-0.695,0.28c-0.034,0.262,0.156,0.307,0.138,0.557C58.885,41.024,59.443,40.492,59.096,40.222
	L59.096,40.222z M63.273,40.222c0.144,0.419-0.309,0.247-0.557,0.28C62.754,40.257,62.959,40.183,63.273,40.222L63.273,40.222z
	 M64.393,40.361c0.268,0.059,0.599,0.051,0.557,0.419C64.586,40.819,64.252,40.826,64.393,40.361L64.393,40.361z M11.846,40.64
	c0.409-0.204,0.409,0.623,0,0.419C11.846,40.918,11.846,40.78,11.846,40.64L11.846,40.64z M61.047,40.78
	c0.445,0.018,0.61,0.316,0.559,0.835c-0.186-0.143-0.518-0.137-0.697-0.278C61.016,41.213,61.057,41.022,61.047,40.78L61.047,40.78z
	 M72.337,40.78c0.14,0,0.279,0,0.417,0c0,0.091,0,0.185,0,0.279c-0.138,0-0.277,0-0.417,0C72.337,40.965,72.337,40.872,72.337,40.78
	L72.337,40.78z M55.055,40.918c0.291-0.059,0.367,0.096,0.557,0.141C55.654,41.304,54.828,41.307,55.055,40.918L55.055,40.918z
	 M65.504,40.918c0.229-0.038,0.242,0.132,0.42,0.141C65.979,41.329,65.29,41.262,65.504,40.918L65.504,40.918z M47.526,41.059
	c0.235,0,0.466,0,0.697,0c-0.021,0.162,0.032,0.247,0.14,0.279C48.249,41.865,47.443,41.55,47.526,41.059L47.526,41.059z
	 M51.986,41.338c0.033-0.176,0.277-0.142,0.279,0C52.203,41.54,52.143,41.323,51.986,41.338L51.986,41.338z M56.868,41.477
	c-0.028,0.428-0.755,0.291-0.7-0.139C56.497,40.998,56.43,41.545,56.868,41.477L56.868,41.477z M59.373,41.895
	c-0.003,0.381-0.657,0.33-0.836,0.139C58.577,41.348,59.145,41.473,59.373,41.895L59.373,41.895z M48.362,41.616
	c-0.042,0.189-0.195,0.267-0.14,0.557c0.323-0.044,0.536,0.024,0.696,0.141c0.047-0.324-0.021-0.536-0.136-0.698
	C48.643,41.616,48.5,41.616,48.362,41.616L48.362,41.616z M49.618,41.754C49.289,42.204,49.055,41.265,49.618,41.754L49.618,41.754z
	 M46.83,41.754c0.063,0.357,0.196,0.641,0.418,0.837c-0.116-0.394,0.195-0.36,0.139-0.697C47.198,41.85,47.12,41.696,46.83,41.754
	L46.83,41.754z M46.273,42.732c-0.166,0.159-0.496,0.157-0.835,0.139c-0.062-0.267-0.302-0.35-0.279-0.698
	C45.616,41.727,46.223,42.042,46.273,42.732L46.273,42.732z M52.963,41.895c0.066,0.532-0.646,0.284-0.418,0.976
	c-0.396-0.023-0.58-0.256-0.977-0.279c0-0.186,0-0.373,0-0.558C52.395,42.143,52.286,42.042,52.963,41.895L52.963,41.895z
	 M68.016,41.895c0.519-0.057,0.817,0.111,0.836,0.557C68.66,42.221,67.959,42.644,68.016,41.895L68.016,41.895z M49.757,42.034
	c0.279,0.465,1.414,0.076,1.392,0.837C50.66,43.11,49.816,42.671,49.757,42.034L49.757,42.034z M34.983,42.172
	c0.096,0,0.187,0,0.279,0c0,0.095,0,0.188,0,0.279c-0.092,0-0.183,0-0.279,0C34.983,42.36,34.983,42.268,34.983,42.172
	L34.983,42.172z M57.563,42.592c0.021-0.164,0.252-0.119,0.42-0.14c0,0.14,0,0.28,0,0.419C57.797,42.82,57.762,42.625,57.563,42.592
	L57.563,42.592z M61.188,42.592c0.033-0.176,0.274-0.142,0.277,0C61.402,42.795,61.339,42.576,61.188,42.592L61.188,42.592z
	 M77.771,42.452c0.092,0,0.187,0,0.277,0c0,0.094,0,0.186,0,0.28c-0.092,0-0.188,0-0.277,0
	C77.771,42.638,77.771,42.545,77.771,42.452L77.771,42.452z M56.309,43.01C56.512,42.547,56.652,43.552,56.309,43.01L56.309,43.01z
	 M26.76,43.148c0.116,0.028,0.14,0.141,0.278,0.139c-0.026,0.115-0.138,0.14-0.138,0.28c-0.113-0.027-0.14-0.141-0.279-0.139
	C26.647,43.315,26.76,43.289,26.76,43.148L26.76,43.148z M49.896,43.428c0.229,0,0.465,0,0.695,0c0.113,0.259,0.23,0.51,0.278,0.835
	c-0.399,0.064-0.437,0.495-0.976,0.42c-0.051-0.184-0.246-0.221-0.278-0.42C49.438,43.713,50.077,43.979,49.896,43.428
	L49.896,43.428z M28.016,43.845c-0.186-0.248-0.809-0.431-1.116-0.138c-0.101,0.425,0.243,0.409,0.138,0.835
	c0.427-0.099,0.51,0.144,0.838,0.141C27.776,44.258,28.019,44.175,28.016,43.845L28.016,43.845z M30.803,44.961
	c-0.772,0.195-1.541-0.271-1.673-1.117C29.702,43.69,31.038,43.857,30.803,44.961L30.803,44.961z M63.273,44.125
	c-0.274,0.231-0.178-0.013-0.557,0C62.607,43.588,63.385,43.588,63.273,44.125L63.273,44.125z M22.998,45.099
	c-0.291,0.081-0.397,0.347-0.835,0.278C21.137,44.031,23.152,43.189,22.998,45.099L22.998,45.099z M47.387,44.821
	c-0.403-0.063-0.634-0.294-0.697-0.695C47.12,43.682,47.832,44.39,47.387,44.821L47.387,44.821z M52.686,44.125
	c0.112,0.073,0.225,0.143,0.416,0.138c0.112,0.483-0.207,0.536-0.139,0.978c-0.322,0.043-0.533-0.023-0.695-0.142
	C52.302,44.672,52.566,44.473,52.686,44.125L52.686,44.125z M10.455,45.377C8.52,44.672,11.565,43.664,10.455,45.377L10.455,45.377z
	 M46.132,44.542c0.222-0.028,0.485,0.354-0.137,0.419c0.03-0.248-0.143-0.701,0.279-0.56C46.3,44.521,46.217,44.536,46.132,44.542
	L46.132,44.542z M24.111,44.542c0.355,0.017,0.542,0.203,0.56,0.557c-0.124,0.063-0.249,0.123-0.279,0.278
	C24.096,45.268,23.847,44.805,24.111,44.542L24.111,44.542z M26.481,44.542c0.288,0.177,0.708,0.224,0.699,0.699
	c-0.219,0.153-0.29,0.452-0.699,0.416C26.273,45.374,26.001,44.732,26.481,44.542L26.481,44.542z M62.996,44.542
	c0.172,0.061,0.288,0.181,0.277,0.419c-0.125,0.104-0.314,0.147-0.557,0.138c0.024-0.16-0.029-0.248-0.139-0.278
	C62.609,44.622,62.993,44.772,62.996,44.542L62.996,44.542z M44.877,44.683c-0.094,1.164,1.458,0.68,1.396,1.81
	c-0.16,0.573-1.061,0.715-1.674,0.42C44.493,46.124,42.881,44.663,44.877,44.683L44.877,44.683z M27.876,44.821
	c0.264,0.061,0.351,0.301,0.697,0.278c0.018,0.344,0.02,0.671-0.139,0.838c-0.563,0.19-0.442-0.304-0.835-0.28
	C27.486,45.176,27.752,45.069,27.876,44.821L27.876,44.821z M42.094,44.961C41.972,45.786,42.17,44.402,42.094,44.961L42.094,44.961
	z M35.123,44.961c0.187,0,0.374,0,0.557,0c-0.018,0.248,0.171,0.293,0.14,0.558C35.344,45.579,35.028,45.476,35.123,44.961
	L35.123,44.961z M25.507,45.377c-0.234,0.662,0.802,0.77,0.695,0.142C25.869,45.577,25.901,45.265,25.507,45.377L25.507,45.377z
	 M43.764,46.354c-1.037-0.063-1.843,0.803-2.648,0c-0.018-0.832,0.465-0.63,1.117-0.557C42.612,45.155,43.96,45.265,43.764,46.354
	L43.764,46.354z M64.948,45.377c0.204,0.123,0.54,0.111,0.418,0.56C64.999,45.978,65.008,45.645,64.948,45.377L64.948,45.377z
	 M51.986,45.657c-0.113,0.5,0.314,0.674,0,0.979c-0.26-0.02-0.467-0.092-0.559-0.28C51.585,46.09,51.623,45.713,51.986,45.657
	L51.986,45.657z M50.313,45.937c0.037-0.177,0.279-0.142,0.279,0C50.529,46.139,50.473,45.92,50.313,45.937L50.313,45.937z
	 M50.175,45.937C50.012,46.358,49.438,45.786,50.175,45.937L50.175,45.937z M54.497,46.354c0.092,0,0.185,0,0.278,0
	c0,0.094,0,0.188,0,0.279c-0.096,0-0.188,0-0.278,0C54.497,46.542,54.497,46.448,54.497,46.354L54.497,46.354z M39.306,46.633
	c0.112,0.025,0.136,0.139,0.278,0.139c-0.026,0.113-0.142,0.139-0.14,0.277c-0.112-0.025-0.138-0.139-0.281-0.137
	C39.19,46.799,39.306,46.772,39.306,46.633L39.306,46.633z M56.168,47.049c0.006-0.42,0.991-0.403,0.835,0.142
	C56.71,47.499,56.384,47.219,56.168,47.049L56.168,47.049z M11.011,48.584c-0.589-0.061-0.758-0.543-1.253-0.696
	c-0.234-0.438,0.519-0.571,0.14-0.697C10.849,46.352,11.678,47.598,11.011,48.584L11.011,48.584z M42.65,46.913
	c-0.406,0.35-1.404-0.184-1.952,0.559c0.13,0.52,0.527,0.773,0.417,1.531c0.9-0.15,1.377,0.086,1.813-0.418
	C43.136,47.681,42.259,47.59,42.65,46.913L42.65,46.913z M44.877,47.888c-0.26,0.11-0.509,0.233-0.835,0.28
	C42.742,47.2,44.926,46.239,44.877,47.888L44.877,47.888z M69.829,47.049c0.085-0.338,0.7-0.072,0.556,0.279
	C70.178,47.258,70.031,47.124,69.829,47.049L69.829,47.049z M26.621,47.749c-0.371,0.283-0.409,0.254-0.278,0.836
	c-0.901,0.113-1.387-0.191-1.253-1.113C25.833,47.07,26.146,47.35,26.621,47.749L26.621,47.749z M47.387,47.191
	c0.234,0,0.465,0,0.699,0c0.053,0.36,0.414,0.42,0.414,0.837c-0.262,0.357-0.684,0.172-1.113,0
	C47.387,47.749,47.387,47.469,47.387,47.191L47.387,47.191z M29.408,47.469c0.122-0.379,0.62,0.117,0.278,0.279
	C29.535,47.711,29.592,47.469,29.408,47.469L29.408,47.469z M54.354,47.329c0.597-0.08,0.979,0.049,0.838,0.699
	c-0.381,0.012-0.28-0.232-0.555,0c0.256,0.508-0.085,0.952-0.283,1.393c-0.326-0.33-0.685,0.021-1.112,0
	c-0.734-0.59-0.443-1.264,0.139-1.812c0.187,0.231,0.791,0.046,0.976,0.279C54.354,47.704,54.354,47.516,54.354,47.329
	L54.354,47.329z M56.868,47.329c-0.046,0.19-0.202,0.268-0.146,0.561c0.164,0.113,0.375,0.182,0.7,0.14
	C57.413,47.62,57.104,47.51,56.868,47.329L56.868,47.329z M68.293,47.329c0,0.188,0,0.375,0,0.561
	c-0.378,0.102-0.279-0.277-0.557-0.279C67.77,47.363,67.977,47.292,68.293,47.329L68.293,47.329z M45.159,47.609
	c0.021-0.163,0.253-0.116,0.415-0.14c0,0.14,0,0.279,0,0.419C45.267,47.963,45.376,47.624,45.159,47.609L45.159,47.609z
	 M85.715,47.469c0.532,0.068,0.799,0.41,1.114,0.699c-0.073,0.109-0.146,0.227-0.14,0.416c-0.564,0.172-0.746,0.099-1.252-0.28
	C85.329,47.825,85.591,47.717,85.715,47.469L85.715,47.469z M22.719,48.304c-0.509,0.032-0.536,0.19-0.978,0
	C21.656,47.334,22.707,47.588,22.719,48.304L22.719,48.304z M63.975,48.864c-0.555,0.004-0.484,0.629-1.117,0.557
	c0.16-0.578-0.293-0.541-0.277-0.977C62.781,47.672,64.08,47.836,63.975,48.864L63.975,48.864z M51.288,48.028
	c-0.034,0.407,0.317,0.43,0.28,0.836c-0.532,0.067-0.892-0.039-1.115-0.279C50.473,48.137,50.771,47.972,51.288,48.028
	L51.288,48.028z M51.986,48.028c-0.037,0.453,0.164,0.67,0.559,0.696c0-0.187,0-0.372,0-0.556
	C52.302,48.176,52.111,48.133,51.986,48.028L51.986,48.028z M34.287,48.304c0.14,0,0.279,0,0.418,0c0,0.14,0,0.28,0,0.42
	C34.399,48.749,34.26,48.609,34.287,48.304L34.287,48.304z M38.467,48.304c0.204,0.122,0.539,0.112,0.418,0.56
	C38.521,48.907,38.429,48.668,38.467,48.304L38.467,48.304z M29.966,48.584c0.139,0,0.278,0,0.417,0
	c0.119,0.16,0.187,0.373,0.142,0.697C30.122,49.265,29.861,49.107,29.966,48.584L29.966,48.584z M38.189,48.584
	c-0.322-0.045-0.534,0.022-0.696,0.14c-0.068,0.438,0.427,0.315,0.278,0.838c0.451,0.171,0.106-0.453,0.557-0.28
	C38.444,48.888,38.132,48.918,38.189,48.584L38.189,48.584z M45.855,48.864c0.178,0.192,0.658,0.086,0.835,0.278
	c-0.1,0.426,0.143,0.509,0.14,0.836c-0.329,0.043-0.521,0.222-0.975,0.138C45.654,49.706,45.396,49.202,45.855,48.864L45.855,48.864
	z M56.586,49.142c0.68,0.086,0.717,0.086,1.396,0c0.164,0.394,0.313,0.801,0.418,1.253c-0.519,0.102-0.6-0.236-1.118-0.139
	C57.436,49.525,56.646,49.922,56.586,49.142L56.586,49.142z M43.625,49.282c0.364-0.039,0.697-0.048,0.557,0.418
	C43.817,49.738,43.583,49.648,43.625,49.282L43.625,49.282z M51.43,49.282c-0.162,0.164-0.158,0.493-0.142,0.834
	c0.351,0.118,0.75,0.186,1.257,0.143C52.566,49.538,52.137,49.269,51.43,49.282L51.43,49.282z M69.409,49.282
	c0.17,0.295,0.524,0.404,0.558,0.834c0.444-0.211,0.975-0.052,0.975,0.561c-0.903,0.205-0.77-0.623-1.672-0.418
	c-0.061-0.268-0.302-0.35-0.279-0.695C69.104,49.441,69.372,49.477,69.409,49.282L69.409,49.282z M48.223,49.42
	c0.586-0.027,1.123-0.01,0.978,0.695C48.727,50.344,48.309,49.972,48.223,49.42L48.223,49.42z M34.147,49.562
	c0.161,0.164,0.158,0.489,0.14,0.833c-0.26-0.109-0.512-0.23-0.835-0.279C33.476,49.726,33.692,49.524,34.147,49.562L34.147,49.562z
	 M37.91,50.536c-0.495,0.358-1.182-0.055-1.114-0.695C37.332,49.417,37.973,49.638,37.91,50.536L37.91,50.536z M62.718,49.978
	C62.923,49.516,63.064,50.52,62.718,49.978L62.718,49.978z M70.803,49.978c0.086,0.01,0.165,0.021,0.139,0.138
	c0.097,0,0.187,0,0.277,0C71.438,49.775,70.746,49.708,70.803,49.978L70.803,49.978z M79.583,49.978c0.032-0.175,0.274-0.14,0.278,0
	C79.799,50.18,79.738,49.963,79.583,49.978L79.583,49.978z M46.69,50.256c-0.156,0.996,1.307,0.781,1.396,0.139
	C47.874,49.831,47.112,49.991,46.69,50.256L46.69,50.256z M62.718,50.814c-0.007-0.793-0.595-0.931-1.112-0.558
	c-0.008,0.425,0.127,0.711,0.418,0.836C62.057,50.803,62.635,51.055,62.718,50.814L62.718,50.814z M64.529,50.956
	c0.093-1.347-2.17-1.065-1.115,0.139C63.816,51.079,64.327,51.168,64.529,50.956L64.529,50.956z M45.017,50.256
	c-1.449-0.736-1.517,1.213-0.14,1.115C44.849,50.924,45.124,50.782,45.017,50.256L45.017,50.256z M39.863,50.395
	c0.497-0.08,0.423,0.413,0.417,0.837C40.011,51.067,39.519,50.756,39.863,50.395L39.863,50.395z M45.855,50.395
	c0.35,0.115,0.438,0.49,0.697,0.697c-0.018,0.355-0.469,0.277-0.836,0.279c-0.059-0.268-0.302-0.35-0.278-0.697
	C45.547,50.554,45.817,50.594,45.855,50.395L45.855,50.395z M35.958,50.956c0.351-0.022,0.433,0.217,0.7,0.276
	c-0.261,0.267-0.016,0.353,0,0.697c-0.326-0.046-0.578-0.167-0.838-0.278C35.774,51.329,35.842,51.116,35.958,50.956L35.958,50.956z
	 M48.086,52.069c-0.534-0.045-0.925-0.046-0.838-0.977C47.864,50.663,48.345,51.661,48.086,52.069L48.086,52.069z M59.232,51.092
	c0.017,0.521,0.158,0.396,0,0.837c-0.559,0.049-1.019-0.003-1.112-0.419C58.189,50.792,58.615,51.059,59.232,51.092L59.232,51.092z
	 M67.316,50.956c0.537,0.752-0.18,1.926,0.699,2.367c-0.082,0.461-0.525,0.199-0.836,0.141c0.034,0.519,0.42,0.693,0.418,1.254
	c-0.576,0.224-1.433-0.035-1.258-0.977c0.322,0.045,0.535-0.02,0.699-0.14c-0.943-0.563-1.182-1.108-1.116-2.509
	C66.188,50.844,66.846,50.993,67.316,50.956L67.316,50.956z M46.552,51.372c0,0.141,0,0.279,0,0.42c0.138,0,0.278,0,0.418,0
	c0-0.141,0-0.279,0-0.42C46.83,51.372,46.69,51.372,46.552,51.372L46.552,51.372z M64.393,51.372
	c0.586,0.017,0.705,0.504,1.111,0.697c-0.158,0.686-1.23,0.354-1.391-0.14C64.01,51.549,64.391,51.649,64.393,51.372L64.393,51.372z
	 M72.337,51.51c0.55,0.009,0.827,0.285,0.836,0.837c-0.315,0.313-0.698-0.009-0.976-0.14C72.15,51.883,72.218,51.672,72.337,51.51
	L72.337,51.51z M51.71,51.792c0.474-0.06,0.79,0.041,0.694,0.557c-0.247-0.018-0.293,0.17-0.561,0.14
	C51.904,52.151,51.594,52.183,51.71,51.792L51.71,51.792z M34.147,52.208c-0.044-0.244,0.78-0.248,0.558,0.141
	C34.415,52.407,34.334,52.252,34.147,52.208L34.147,52.208z M51.568,53.879c0.422-0.861-0.545-1.957-1.256-1.672
	C49.857,53.124,50.479,54.061,51.568,53.879L51.568,53.879z M24.393,53.601c-0.829,0.085-1.321-0.167-1.256-0.976
	C23.694,51.773,24.816,52.698,24.393,53.601L24.393,53.601z M44.739,52.347c0.634-0.171,0.441,0.487,0.835,0.558
	c-0.178,0.559-0.661-0.412-0.697,0C44.691,52.862,44.762,52.555,44.739,52.347L44.739,52.347z M45.574,54.579
	c0.346-2.271-2.927-1.723-1.393,0C44.647,54.579,45.112,54.579,45.574,54.579L45.574,54.579z M68.852,53.043
	c0.442-0.117,0.433,0.22,0.698,0.279C69.484,53.797,68.641,53.647,68.852,53.043L68.852,53.043z M50.036,54.019
	c-0.202,0.216-0.714,0.124-1.117,0.142c0.059-0.336-0.251-0.305-0.136-0.697C49.277,53.105,50.033,53.448,50.036,54.019
	L50.036,54.019z M59.373,53.323c0.208,0.211,0.25,0.588,0.559,0.696c0.075,0.495-0.492,0.344-0.418,0.837
	c-0.34-0.452-1.035-0.544-0.977-1.393C58.701,53.301,59.029,53.304,59.373,53.323L59.373,53.323z M65.646,53.323
	c-0.701-0.098-0.92,0.289-0.836,0.977c0.418,0.093,0.485,0.533,1.113,0.418C65.982,54.1,65.884,53.638,65.646,53.323L65.646,53.323z
	 M80.836,53.463c0.023-0.164,0.254-0.119,0.421-0.141C81.232,53.485,81.001,53.439,80.836,53.463L80.836,53.463z M79.583,53.601
	c-0.05,0.185-0.245,0.22-0.278,0.418C78.721,53.926,79.238,53.154,79.583,53.601L79.583,53.601z M61.604,53.601
	c0.567-0.058,0.881,0.146,0.834,0.698C61.872,54.355,61.563,54.157,61.604,53.601L61.604,53.601z M39.863,54.019
	c1.288,1.135-0.173,2.526-0.7,3.483c-0.264-0.016-0.095-0.459-0.418-0.416c-0.053,0.666,0.764,0.611,0.14,1.115
	c-0.226-0.334-0.271-0.847-0.418-1.256c-0.438-0.068-0.545,0.305-0.835,0c-0.14-0.419,0.311-0.248,0.557-0.279
	C37.17,55.208,37.739,53.929,39.863,54.019L39.863,54.019z M56.586,54.019c0.828-0.041,1.484,0.099,1.396,0.976
	C57.243,55.456,56.093,54.811,56.586,54.019L56.586,54.019z M50.175,54.579c0.06,0.291-0.095,0.367-0.139,0.557
	c-0.284-0.041-0.371-0.278-0.558-0.418C49.689,54.391,49.818,54.504,50.175,54.579L50.175,54.579z M54.775,54.715
	c0.365,0.523,0.377,0.545,0.416,1.395c-0.795-0.084-1.392-0.374-1.395-1.254C53.979,54.665,54.404,54.717,54.775,54.715
	L54.775,54.715z M48.919,55.135c0.083,0.546-0.119,0.809-0.276,1.115c-0.311-0.433-1.078-0.41-0.978-1.256
	C48.282,54.84,48.4,54.857,48.919,55.135L48.919,55.135z M55.473,54.995c0.049-0.166,0.369-0.111,0.418,0
	C56.018,55.295,55.379,55.32,55.473,54.995L55.473,54.995z M69.128,55.135c0.585-0.031,0.661,0.226,1.117,0
	c-0.199,0.757,0.646,0.469,0.418,1.255c-0.614-0.159-0.459,0-0.976,0.139C69.449,56.07,68.705,55.851,69.128,55.135L69.128,55.135z
	 M7.527,55.413C7.729,54.952,7.874,55.958,7.527,55.413L7.527,55.413z M22.301,55.274c0.139,0,0.278,0,0.417,0
	c0,0.139,0,0.277,0,0.419C22.414,55.717,22.275,55.579,22.301,55.274L22.301,55.274z M44.182,56.529
	c-0.178,0.19-0.604,0.14-0.975,0.14C41.942,55.485,44.291,54.844,44.182,56.529L44.182,56.529z M74.563,55.413
	c0.513,0.098,0.729,0.482,1.119,0.697c0.072,0.686-0.923,0.381-1.257,0.28C74.242,55.973,74.283,55.682,74.563,55.413L74.563,55.413
	z M49.201,56.25c0.138,0,0.277,0,0.417,0c0,0.231,0,0.463,0,0.695c-0.187,0-0.37,0-0.557,0
	C49.017,56.625,49.082,56.413,49.201,56.25L49.201,56.25z M40.977,56.39c-0.374,0.442-0.032,1.063,0.697,0.834
	C41.732,56.659,41.531,56.344,40.977,56.39L40.977,56.39z M67.458,56.529c-0.335,0.716,0.181,1.388,0.417,1.951
	c-0.146-1.173,1.32,0.046,1.675-0.698C69.164,57.053,68.717,56.381,67.458,56.529L67.458,56.529z M72.057,56.667
	C71.729,57.118,71.492,56.176,72.057,56.667L72.057,56.667z M42.369,57.086c0.282,0,0.561,0,0.838,0
	c0.103,0.502,0.551,0.75,0.279,1.254C42.587,58.434,42.123,57.713,42.369,57.086L42.369,57.086z M49.479,58.62
	c0.094,0.51-0.302,0.534-0.277,0.977c-0.937,0.006-1.707-0.152-1.535-1.256C48.454,58.125,49.126,57.978,49.479,58.62L49.479,58.62z
	 M72.754,58.202c0.036-0.328,0.609-0.08,0.696,0C73.415,58.528,72.838,58.282,72.754,58.202L72.754,58.202z M55.891,58.48
	c0.187,0,0.373,0,0.557,0C56.609,58.963,55.667,59.127,55.891,58.48L55.891,58.48z M30.383,59.176
	c0.551-0.086,0.62,0.312,0.699,0.697c-0.199-0.013-0.394-0.021-0.418,0.141C30.421,59.885,30.356,59.577,30.383,59.176
	L30.383,59.176z M57.003,59.176c0.767-0.148,1.194,0.584,0.979,0.976C57.591,60.37,56.855,59.939,57.003,59.176L57.003,59.176z
	 M60.77,60.847c-0.463,0.101-0.892,0.228-1.396,0.28c-0.187-0.323-0.396-0.627-0.694-0.836
	C58.704,58.566,60.969,59.538,60.77,60.847L60.77,60.847z M63.273,59.454c0.93,0.053,1.398,0.557,1.535,1.395
	C64.007,61.249,62.479,60.54,63.273,59.454L63.273,59.454z M67.04,59.594c0.526-0.016,0.749,0.273,0.835,0.697
	C67.579,60.517,66.959,60.172,67.04,59.594L67.04,59.594z M77.354,59.736c0.438-0.161,0.338,0.218,0.557,0.278
	C77.854,60.321,77.092,60.2,77.354,59.736L77.354,59.736z M87.107,59.736c0.785-0.089,1.091,0.302,1.256,0.833
	C87.639,60.599,86.971,60.569,87.107,59.736L87.107,59.736z M73.311,61.684c-0.766-0.438-1.41,0.232-1.533-0.975
	C72.477,60.189,73.266,60.779,73.311,61.684L73.311,61.684z M87.527,60.989c0.365-0.043,0.457,0.192,0.418,0.557
	c-0.367,0.041-0.603-0.051-0.559-0.418C87.503,61.154,87.52,61.075,87.527,60.989L87.527,60.989z M81.534,61.405
	C81.736,60.946,81.88,61.95,81.534,61.405L81.534,61.405z M85.157,61.405c0.024-0.162,0.253-0.115,0.417-0.138
	c0,0.138,0,0.278,0,0.417C85.266,61.763,85.378,61.42,85.157,61.405L85.157,61.405z M25.089,61.684c0.035-0.176,0.275-0.139,0.278,0
	C25.305,61.885,25.246,61.67,25.089,61.684L25.089,61.684z M52.823,61.545c0.231,0,0.464,0,0.696,0
	c-0.019,0.252,0.172,0.293,0.139,0.558C53.141,62.159,52.841,61.993,52.823,61.545L52.823,61.545z M80.277,62.939
	c-0.588,0.034-0.748-0.364-1.391-0.278c0.014-0.25-0.173-0.293-0.144-0.558C79.396,61.745,80.211,62.265,80.277,62.939
	L80.277,62.939z M49.618,62.103c0.092,0,0.187,0,0.278,0c0,0.092,0,0.187,0,0.278c-0.092,0-0.187,0-0.278,0
	C49.618,62.29,49.618,62.195,49.618,62.103L49.618,62.103z M91.43,62.939c-0.104-0.222-0.684,0.03-0.56-0.416
	C91.264,62.377,91.466,62.364,91.43,62.939L91.43,62.939z M75.82,62.661C76.021,62.198,76.167,63.204,75.82,62.661L75.82,62.661z
	 M35.958,62.661c0.925-0.109,1.191,0.453,0.978,1.114c-0.545,0.083-0.809-0.118-1.116-0.278
	C35.801,63.154,35.798,62.825,35.958,62.661L35.958,62.661z M66.341,62.661c0.31,0.205,0.655,0.371,0.562,0.975
	C66.268,63.769,66.021,63.049,66.341,62.661L66.341,62.661z M52.823,63.917c-0.604,0.092-0.861-0.158-1.113-0.42
	C51.578,62.301,53.105,62.963,52.823,63.917L52.823,63.917z M48.5,67.818c0.458,0.634,1.152,1.222,0.561,2.089
	C47.687,70.187,46.152,67.597,48.5,67.818L48.5,67.818z M66.203,69.491c0.021-0.162,0.254-0.117,0.419-0.14
	C66.598,69.515,66.368,69.469,66.203,69.491L66.203,69.491z M63.137,69.907c0.187,0,0.371,0,0.559,0
	c0.062,0.295-0.098,0.37-0.141,0.561C63.352,70.344,63.016,70.355,63.137,69.907L63.137,69.907z M55.473,70.467
	C56.107,70.557,55.359,71.308,55.473,70.467L55.473,70.467z M48.783,73.95c-0.356-0.019-0.543-0.201-0.561-0.558
	C48.475,73.141,48.922,73.401,48.783,73.95L48.783,73.95z M28.99,73.532c0.827-0.129,1.15,0.512,0.835,1.116
	C29.017,74.758,28.828,73.988,28.99,73.532L28.99,73.532z M21.883,74.926c0.092,0,0.187,0,0.279,0c0,0.092,0,0.187,0,0.277
	c-0.092,0-0.187,0-0.279,0C21.883,75.113,21.883,75.018,21.883,74.926L21.883,74.926z M59.65,75.204
	c0.437-0.064,0.498,0.352,0.279,0.56C59.686,75.729,59.613,75.524,59.65,75.204L59.65,75.204z M72.616,75.204
	c0.493-0.031,0.726,0.203,0.694,0.696C72.814,75.934,72.579,75.702,72.616,75.204L72.616,75.204z M62.301,76.042
	C62.505,75.579,62.646,76.583,62.301,76.042L62.301,76.042z M17.283,76.318c0.095,0,0.187,0,0.279,0c0,0.097,0,0.188,0,0.28
	c-0.092,0-0.184,0-0.279,0C17.283,76.506,17.283,76.415,17.283,76.318L17.283,76.318z M84.74,77.713c0.093,0,0.185,0,0.279,0
	c0,0.092,0,0.187,0,0.277c-0.096,0-0.188,0-0.279,0C84.74,77.9,84.74,77.805,84.74,77.713L84.74,77.713z M74.704,78.129
	C74.908,77.668,75.055,78.674,74.704,78.129L74.704,78.129z M70.245,81.058c0.092,0,0.185,0,0.278,0c0,0.093,0,0.185,0,0.278
	c-0.096,0-0.188,0-0.278,0C70.245,81.243,70.245,81.151,70.245,81.058L70.245,81.058z M79.443,83.844
	c-0.111-0.073-0.226-0.145-0.418-0.139C79.066,83.325,79.51,83.413,79.443,83.844L79.443,83.844z M88.363,88.167
	C88.566,87.704,88.71,88.709,88.363,88.167L88.363,88.167z M44.042,7.889c-0.032-0.587,0.519,0.196,0.835,0.138
	C44.686,8.434,44.4,7.78,44.042,7.889L44.042,7.889z M35.68,7.889c0.171-0.423,0.533,0.097,0.699,0.138
	c-0.136,0.226-0.373,0.322-0.56,0.141c0.006-0.136,0.171-0.108,0.278-0.141C36.076,7.864,35.845,7.91,35.68,7.889L35.68,7.889z
	 M47.387,8.306c0.371,0.141,0.794,0.23,0.835,0.696c-0.483,0.069-0.486-0.348-0.697-0.557c-0.271,0.061,0.229,0.397-0.417,0.279
	C47.159,8.541,47.354,8.506,47.387,8.306L47.387,8.306z M38.189,9.281c-0.254-0.365,0.491,0.225,0.697,0.28
	c-0.196,0.357-1.076,0.749-1.115,0c0.161,0.116,0.374,0.183,0.696,0.139C38.349,9.587,38.384,9.317,38.189,9.281L38.189,9.281z
	 M39.444,13.045c-0.186,0-0.373,0-0.559,0c0.056-0.2,0.168-0.236,0-0.42c-0.525-0.257-0.993,0.157-0.976,0.838
	c0.569-0.043,0.074,0.29,0.14,0.557c0.275-0.042,0.275,0.188,0.417,0.279c0.012-0.242-0.03-0.433-0.139-0.557
	c0.803-0.081,1.175-0.591,1.535-1.117c-0.167-0.178-0.528-0.058-0.7,0.14C39.335,12.783,39.496,12.807,39.444,13.045L39.444,13.045z
	 M31.221,13.324c0.172,0.45-0.451,0.106-0.278,0.557C30.646,13.838,30.911,13.221,31.221,13.324L31.221,13.324z M24.671,14.02
	c0.127-0.082,0.104,0.832-0.279,0.697C24.37,14.371,24.611,14.287,24.671,14.02L24.671,14.02z M43.486,14.996
	c0-0.093,0-0.186,0-0.279c0.113-0.074,0.225-0.146,0.418-0.139c-0.012,0.198-0.024,0.395,0.139,0.418
	C44.01,15.355,43.803,14.805,43.486,14.996L43.486,14.996z M30.383,15.693c0.732-0.39,0.568,0.835,0.699,1.254
	c0.03-0.109,0.116-0.163,0.279-0.139c0.041-0.275-0.19-0.277-0.279-0.419c0.45-0.339,0.999-0.582,0.835-1.534
	C31.135,14.521,29.61,14.66,30.383,15.693L30.383,15.693z M36.936,15.693c0.406-0.035,0.48,0.263,0.697,0.417
	C37.62,16.29,36.799,16.118,36.936,15.693L36.936,15.693z M43.764,17.644c-0.053-0.162-0.675-0.162-0.278,0
	c-0.534,0.433-0.889-0.501-0.835-1.116C43.438,16.483,43.734,16.93,43.764,17.644L43.764,17.644z M43.346,16.809L43.346,16.809
	C42.852,17.042,43.799,17.243,43.346,16.809L43.346,16.809z M33.309,16.809c-0.639,0.275-0.197,0.717-0.835,0.557
	c-0.24,0.576,0.635,0.747,0.835,0.417c-0.396-0.073,0.225-0.205,0.283-0.279C33.612,17.158,33.518,16.926,33.309,16.809
	L33.309,16.809z M35.262,21.407c0.814,0.597,0.922,1.429,0.279,1.951c0.5-0.083,0.675,0.162,0.978,0.278
	c0.237-0.086,0.228-0.42,0.417-0.557c0.501,0.322,0.109,0.708,0.557,0.977c0.086-0.47,0.181-1.072-0.278-1.394
	c0.429,0.097,0.266,0.097,0.696,0c-0.1,0.378,0.279,0.28,0.279,0.557c-0.202,0.349-0.338,0.547-0.139,0.976
	c0.521,0.149,0.396-0.346,0.835-0.279c-0.021-0.694-0.069-0.551-0.418-0.976c0.687,0.083,0.16-1.047,0.696-1.116
	c0.527,0.34,0.8-0.292,0.838-0.557c0.112,0.171,1.463,0.744,1.531,0c-0.725,0.012-1.046,0.237-1.252-0.417
	c-0.33-0.004-0.413,0.239-0.836,0.138c-0.008-0.178-0.181-0.193-0.138-0.418c0.355,0.106,0.639,0.205,0.835-0.139
	c-0.216-0.481-1.312-0.348-0.978-0.977c-0.391,0.115-0.358-0.196-0.696-0.139c-0.101,0.38,0.278,0.28,0.278,0.557
	c-0.408-0.035-0.427,0.316-0.835,0.279c0.104-0.43-0.382-0.267-0.278-0.697c-0.423-0.176-0.708,0.478-0.836,0.141
	c0.368-0.308,0.223-0.6,0.14-1.116c-0.702-0.259-1.172-0.204-1.674-0.836c0.003-0.392,0.383,0.332,0.279-0.278
	c-0.057-0.6-0.477-0.186-0.696-0.418c-0.148,0.521,0.346,0.398,0.278,0.836c-0.885,0.013-0.106,0.859,0,1.394
	c0.522,0.15,0.397-0.345,0.835-0.279c-0.313,0.211,0.555,0.635-0.138,0.836c-0.116-0.437-0.545-0.458-0.836-0.138
	c0.361,0.032-0.189,0.24,0,0.557c0.38,0.172,0.652,0.231,0.836,0.279c-0.175,0.52-0.946,0.447-1.532,0.557
	c0.234-0.335-0.835-0.96-1.116-0.418c-0.163-0.207-0.119-0.624-0.557-0.558c-0.072,0.207-0.206,0.353-0.28,0.558
	c0.597,0.643,0.862,1.604,1.396,1.951c-0.044,0.328-0.433,0.312-0.56,0.557c0.207,0.027,0.13,0.337,0.138,0.557
	c0.57,0.039,0.575,0.634,0.978,0.838c-0.101,0.357-0.729,1.056-0.978,0.418c0.418-0.018,0.468-0.112,0.421-0.836
	c-0.477-0.256-0.761-0.073-1.116,0.139c0.068-0.439-0.199-0.545-0.28-0.837c-0.651-0.143-0.79,0.229-1.113,0.419
	c-0.109-0.358-0.897-0.032-0.838-0.558c0.264,0.276,0.661,0.067,0.978,0c0.103-0.429-0.382-0.27-0.279-0.697
	c0.539,0.092,0.495,0,0.835,0.141c-0.225-0.771,0.778-1.049,0.139-1.395c0.258-0.133,0.465,0.417,0.558,0
	c-0.315-0.196-0.113-0.907-0.697-0.835c-0.181,0.598-1.013,1.163-0.835,1.672c-0.329-0.043-0.261-0.484-0.699-0.419
	c-0.187,0.044-0.264,0.2-0.557,0.139c-0.056,0.596-0.03,1.271-0.695,1.255c-0.548-0.293-1.025-0.208-1.532-0.279
	c-0.171,0.166-0.498,0.882-0.281,0.977c0.367-0.556,1.285,0.218,0.698-0.558c0.249,0.078,0.577,0.07,0.696,0.278
	c-0.245,0.203,0.093,0.846-0.139,0.977c-0.119-0.208-0.352-0.301-0.697-0.279c-0.003,0.276-0.381,0.176-0.278,0.557
	c0.122,0.436,0.655,0.458,0.835,0.836c0,0.278,0,0.558,0,0.835c-0.445-0.119-0.43,0.22-0.696,0.279
	c-0.14-0.521-0.125-1.015,0.138-1.533c-0.835,0.042-1.368-0.212-1.673-0.696c-0.989-0.064-0.826,1.029-1.81,0.976
	c0.074,0.492-0.228,0.61-0.42,0.836c0.678,0.16,1.138,0.535,1.117,1.393c-1.198,0.021-1.991-1.908-3.066-0.697
	c-0.192-0.365-0.512-0.604-1.114-0.558c-0.326,1.088,0.96,1.6,1.253,0.837c-0.106,0.548,0.062,0.723-0.139,0.976
	c-0.151-0.131-0.044-0.514-0.418-0.418c-0.764,0.421-0.764,1.304-1.673,1.812c0.066,0.52-0.225,1.397,0.418,0.975
	c-0.113,0.394,0.195,0.361,0.139,0.697c-0.329,0.002-0.409-0.24-0.835-0.139c-0.161,0.164-0.158,0.494-0.139,0.837
	c0.453,0.499,1.111-0.07,1.532,0.417c-0.38,0.631,0.308,0.73,0.281,1.395c0.439-0.023,0.842-0.005,0.975,0.278
	c-0.199,0.034-0.234,0.229-0.418,0.279c0.083-0.698-0.311-0.119-0.699-0.418c-0.125,0.478-0.871,0.334-1.393,0.418
	c-0.159,0.166-0.159,0.492-0.139,0.837c-0.347-0.306-0.637,0.289-0.696,0.697c0.438,0.147,0.587,0.581,1.114,0.278
	c0.018,0.344,0.021,0.672-0.139,0.837c0.732,0.979,2.187-0.143,1.253-1.115c0.575,0.065-0.133-0.375,0.42-0.417
	c0.489,0.439,0.472,1.384,1.672,1.114c0.088,0.657,0.512,0.977,0.835,1.394c-1.081-0.033-0.844,1.278-0.557,1.95
	c-0.731-0.083-1.016,0.282-1.531,0.418c-0.175,1.221-0.833,2.375,0.557,2.787c0.237-0.365,0.406-0.803,1.117-0.696
	c0.264,0.448,0.291,0.827,0.14,1.394c0.72-0.178,1.265-0.805,1.949-0.278c0.175-0.245-0.095-0.795,0.558-0.835
	c-0.807-1.088-1.372-1.422-1.532-2.648c0-0.003,0.275,0.007,0.279,0c0.254-0.937-0.694-1.115-0.836-2.091
	c1.52-0.438,1.188,1.511,2.368,0.976c-0.083,0.592,0.589,0.433,0.835,0.696c-0.306,0.017-0.057,0.592-0.139,0.837
	c-1.008-0.048-1.352,1.403-0.558,2.23c0.628-0.163,0.738,0.191,0.838,0.555c0.243-0.009,0.433,0.033,0.558,0.141
	c0.139-0.186,0.228-0.423,0.417-0.558c0.815-0.023,1.075,0.505,1.671,0.697c-0.122-0.449,0.461-0.191,0.42-0.557
	c-0.42-0.358-0.255-1.241,0.279-1.395c-0.418-0.604-0.631-1.412-1.395-1.673c0.743-0.093,0.983,0.317,1.255,0.697
	c0.14-0.475-0.089-0.519,0.418-0.697c0.006-0.471-0.326-0.605-0.557-0.834c0.438-0.028,0.376-0.554,0.975-0.419
	c0.219,0.62,0.966,1.445,0.696,2.091c-1.341-0.309-1.522,2.509-0.139,2.787c0.145-0.333,2.189,0.336,1.674-1.395
	c-0.433-0.125-0.874-0.242-1.117-0.557c0.323,0.043,0.157-0.403,0.418-0.419c0.432,0.205,1.007,0.42,0.699,0.976
	c0.303,0.117,0.474,0.362,0.975,0.279c0-0.184,0-0.371,0-0.557c0.438,0.16,0.341-0.22,0.558-0.279
	c-0.146,0.797,0.728,0.574,0.977,0.976c-0.234,0.326-0.622,0.495-0.977,0.695c0.053,0.786,0.574,1.1,0.695,1.812
	c0.451,0.123,0.193-0.459,0.561-0.416c0.032,0.666,0.992,1.14,1.67,0.694c-0.174-0.705-0.987-0.78-0.835-1.811
	c0.355-0.018,0.539-0.204,0.558-0.557c-0.143-0.601-0.403-1.083-1.254-0.977c0.122-0.677-0.471-0.646-0.556-1.115
	c0.29-0.16,0.542,0.085,0.834-0.278c0.08-0.545-0.121-0.809-0.279-1.116c0.996,0.156,0.602-0.629,0.836-0.976
	c0.029,0.108,0.002,0.277,0.139,0.28c-0.106-0.523,0.364-0.472,0.557-0.697c-0.38-0.971,0.536-0.663,0.417-1.671
	c-0.225-0.241-0.583-0.346-1.113-0.28c0.201-0.216,0.293-0.543,0.418-0.836c-0.193-0.187-1.09-0.382-0.558-0.835
	c-0.015,0.6,0.93,0.24,0.975,0.418c-0.207,0.118-0.201,0.449-0.278,0.697c0.411,0.19,0.45,0.755,0.975,0.836
	c-0.042-0.367,0.195-0.459,0.56-0.419c0.151-0.988-0.5-1.174-0.978-1.533c0.534-0.035,0.296-0.738,0.418-0.835
	c0.374,0.185,0.646,0.468,0.7,0.975c1.101-0.159,1.194-0.51,2.23-0.279c-0.089-1.11-1.905-1.375-2.51-1.114
	c0.19-0.18,0.136-0.606,0.139-0.976c-0.515-0.042-0.224-0.892-0.978-0.697c-0.059,0.903,0.038,1.354,0.282,1.812
	c-0.189-0.137-0.282-0.371-0.421-0.557c-0.394,0.022-0.58,0.256-0.974,0.278c0.248-0.894-0.229-0.896,0.139-1.673
	c-0.355-0.016-0.539-0.202-0.557-0.557c-0.427-0.1-0.509,0.143-0.835,0.14c-0.104,0.425,0.142,0.508,0.139,0.836
	c-0.284,0.039-0.275,0.377-0.561,0.417c-0.319-0.531-1.155-0.087-1.53,0.139c0.461,0.004,0.142,0.789,0.417,0.976
	c-0.095-0.275-0.776,0.035-0.835-0.279c0.412-1.147,0.468-3.48,0.138-4.32c0.348,0.116,0.548,0.383,0.975,0.418
	c-0.408-0.346-0.624-1.228,0-1.533c-0.006,0.424,0.127,0.709,0.418,0.837c0.305-0.672-0.355-1.349,0-1.952
	c0.329,0.042,0.083,0.659,0.557,0.557c-0.002-0.744,1.076-0.278,1.535-0.835c0.044,0.467,0.796,0.227,0.835,0.696
	c0.003-0.229,0.385-0.079,0.418-0.279c-0.741-0.655-1.094-2.86-2.368-2.091c-0.278-0.095,0.086-0.831-0.421-0.697
	c-0.027,0.233,0.041,0.589-0.14,0.977c-0.435,0.065-0.39-0.351-0.556-0.559c0.204-0.121,0.539-0.109,0.417-0.557
	c-0.243-0.547-1.25-0.329-1.392-0.977c0.465,0,0.473-0.453,0.975-0.418C35.48,21.931,35.306,21.735,35.262,21.407L35.262,21.407z
	 M36.24,19.734c-0.069-0.298,0.198-0.265,0.417-0.278C36.596,19.627,36.477,19.742,36.24,19.734L36.24,19.734L36.24,19.734z
	 M36.936,20.153C37.138,19.689,37.282,20.696,36.936,20.153L36.936,20.153L36.936,20.153z M36.658,21.407
	c-0.021-0.25,0.168-0.295,0.138-0.557c0.211,0.252,0.955-0.028,0.836,0.557C36.867,21.374,37.19,21.797,36.658,21.407L36.658,21.407
	L36.658,21.407z M37.493,22.245c0.341-0.485,0.684-0.845,0.558-1.256c0.041-0.189,0.349-0.115,0.556-0.138
	c-0.187,0.321-0.559,0.461-0.417,1.115C37.925,22.023,37.839,22.264,37.493,22.245L37.493,22.245L37.493,22.245z M34.287,21.685
	c0.018-0.25-0.171-0.293-0.14-0.557c0.326,0.044,0.575,0.167,0.835,0.279C34.864,21.613,34.634,21.707,34.287,21.685L34.287,21.685
	L34.287,21.685z M31.639,21.685c-0.062,0.204-0.121-0.013-0.278,0C31.393,21.51,31.636,21.545,31.639,21.685L31.639,21.685
	L31.639,21.685z M37.214,22.245c-0.151-0.037-0.095-0.279-0.279-0.279C37.057,21.586,37.552,22.081,37.214,22.245L37.214,22.245
	L37.214,22.245z M38.328,22.104c-0.065-0.298,0.198-0.267,0.417-0.28C38.687,21.998,38.568,22.111,38.328,22.104L38.328,22.104
	L38.328,22.104z M34.287,24.195c-0.044-0.369,0.29-0.36,0.557-0.418C34.886,24.144,34.651,24.234,34.287,24.195L34.287,24.195
	L34.287,24.195z M28.99,24.474c0.015-0.356,0.521-0.331,0.696-0.141C29.592,24.771,29.315,24.516,28.99,24.474L28.99,24.474
	L28.99,24.474z M32.334,25.17c-0.367,0.042-0.456-0.194-0.417-0.558C32.285,24.571,32.276,24.905,32.334,25.17L32.334,25.17
	L32.334,25.17z M36.097,25.309c0-0.092,0-0.185,0-0.278c0.299-0.065,0.267,0.2,0.282,0.419
	C36.263,25.422,36.24,25.309,36.097,25.309L36.097,25.309L36.097,25.309z M33.87,25.45c0.578-0.025,0.856,0.331,0.975-0.279
	c0.267,0.098-0.168,0.654-0.278,0.836c0.121,0.405,0.21,0.157,0.557,0.14c0.036,0.453-0.166,0.671-0.557,0.697
	c-0.027-0.393-0.244-0.595-0.696-0.558C33.87,26.006,33.87,25.728,33.87,25.45L33.87,25.45L33.87,25.45z M33.309,25.866
	c0.063-0.171,0.181-0.285,0.421-0.278C33.667,25.76,33.553,25.875,33.309,25.866L33.309,25.866L33.309,25.866z M32.474,26.703
	c0.228-0.35-0.168-1.024,0.697-0.976c-0.071,0.305-0.335,0.901,0.138,0.976C33.253,27.013,32.572,26.813,32.474,26.703
	L32.474,26.703L32.474,26.703z M29.548,26.286c0-0.093,0-0.187,0-0.279c0.296-0.065,0.266,0.2,0.278,0.417
	C29.714,26.397,29.686,26.284,29.548,26.286L29.548,26.286L29.548,26.286z M33.452,27.261c0.071-0.113,0.145-0.226,0.14-0.418
	c0.443,0.019,0.612,0.314,0.556,0.835C33.627,27.827,33.926,27.156,33.452,27.261L33.452,27.261L33.452,27.261z M31.082,27.4
	C31.719,27.494,30.969,28.244,31.082,27.4L31.082,27.4L31.082,27.4z M23.972,28.516C24.611,28.607,23.863,29.36,23.972,28.516
	L23.972,28.516L23.972,28.516z M30.244,30.465c0-0.092,0-0.186,0-0.278c0.299-0.065,0.267,0.199,0.281,0.418
	C30.409,30.579,30.386,30.465,30.244,30.465L30.244,30.465L30.244,30.465z M24.95,32.557c0.059-0.219,0.439-0.119,0.278-0.557
	c0.104,0.219,0.441,0.208,0.418,0.557C25.379,32.818,25.395,32.475,24.95,32.557L24.95,32.557L24.95,32.557z M23.696,33.254
	c-0.472,0.033-0.723-0.518-0.42-0.837C23.415,32.714,23.996,32.935,23.696,33.254L23.696,33.254L23.696,33.254z M36.097,34.229
	c-0.027-0.364-0.13-1.071,0-1.532c1.073,0.264,0.96,0.77,0.699,1.532C36.367,34.131,36.527,34.131,36.097,34.229L36.097,34.229
	L36.097,34.229z M22.44,33.95c0.074-0.112,0.146-0.227,0.14-0.418c0.468-0.142,0.216,0.434,0.279,0.698
	C22.716,34.138,22.713,33.909,22.44,33.95L22.44,33.95L22.44,33.95z M33.031,34.229c0-0.093,0-0.186,0-0.279
	c0.094,0,0.187,0,0.278,0c0,0.093,0,0.187,0,0.279C33.218,34.229,33.125,34.229,33.031,34.229L33.031,34.229L33.031,34.229z
	 M27.738,35.205c0.163-0.161,0.491-0.158,0.835-0.14c-0.08,0.454,0.094,0.648,0.139,0.976c-0.328,0.002-0.409-0.24-0.835-0.139
	C27.992,35.507,27.679,35.54,27.738,35.205L27.738,35.205L27.738,35.205z M30.664,35.624C31.011,35.08,30.866,36.084,30.664,35.624
	L30.664,35.624L30.664,35.624z M33.73,36.319c0-0.093,0-0.185,0-0.278c0.092,0,0.184,0,0.279,0c0,0.093,0,0.185,0,0.278
	C33.914,36.319,33.822,36.319,33.73,36.319L33.73,36.319L33.73,36.319z M33.171,36.599c-0.018-0.165,0.073-0.074,0.138-0.139
	C33.97,35.8,33.25,37.23,33.171,36.599L33.171,36.599L33.171,36.599z M36.936,37.017c0.098-0.428,0.098-0.268,0-0.698
	c0.187,0,0.371,0,0.557,0c-0.098,0.609,0.403,0.62,0.417,1.116C37.268,37.614,37.68,36.737,36.936,37.017L36.936,37.017
	L36.936,37.017z M27.598,37.573c0.666-0.118-0.664,0.896,0,0.141C27.604,37.703,27.589,37.575,27.598,37.573L27.598,37.573
	L27.598,37.573z M33.87,39.665c0.029-0.708,0.287-0.97,0.278-1.394c0.14,0,0.28,0,0.418,0c0.142,0.415,0.27,0.844,0.836,0.837
	c0.067,0.438-0.199,0.543-0.279,0.834C34.874,39.61,34.574,39.75,33.87,39.665L33.87,39.665L33.87,39.665z M28.434,40.083
	c0.116-0.394-0.199-0.361-0.139-0.698c0.356,0.158,0.678,0.344,0.975,0.558C29.028,40.334,28.904,40.075,28.434,40.083
	L28.434,40.083L28.434,40.083z M24.111,42.313c-0.059-0.292,0.097-0.37,0.142-0.559C24.499,41.712,24.502,42.536,24.111,42.313
	L24.111,42.313L24.111,42.313z M42.369,17.644c-0.485-0.223-1.84,0.125-2.785,0c-0.078,0.913,1.307,0.366,0.975,1.533
	c0.386-0.248,1.523-0.753,0.835-0.837C41.385,17.771,42.262,18.092,42.369,17.644L42.369,17.644z M41.116,18.061
	C41.803,17.666,40.663,18.325,41.116,18.061L41.116,18.061L41.116,18.061z M27.876,18.061c-0.083-0.302,0.842,0.009,1.114,0.419
	c0.101,0.377-0.657-0.1-0.557,0.279C28.048,18.726,28.117,18.24,27.876,18.061L27.876,18.061z M24.811,19.874
	c0.495,0.217,0.083-0.473,0.417-0.418c-0.006,0.192,0.065,0.306,0.139,0.418c-0.166,0.068-0.317,0.149-0.417,0.279
	c0.427-0.008,0.335,0.502,0.835,0.418c0.249-0.831-0.358-1.097-0.557-1.673c-0.02,0.165,0.024,0.396-0.139,0.419
	c-0.119-0.163-0.184-0.375-0.14-0.697c-0.503-0.049-0.673-0.213-1.114,0c0.16,0.866,0.252,0.726-0.14,1.393
	c0.205,0.12,0.202,0.45,0.276,0.697c0.453,0.173,0.106-0.45,0.557-0.277c0.11,0.729,0.939,0.735,1.395,1.114
	c-0.08-0.245,0.168-0.819-0.139-0.837c-0.044,0.168-0.883-0.035-0.975-0.277c0.009-0.769-0.574-0.513,0-1.255
	C24.712,19.606,24.712,19.445,24.811,19.874L24.811,19.874z M23.972,19.596C24.585,19.57,24.014,20.145,23.972,19.596L23.972,19.596
	L23.972,19.596z M52.823,20.153c-0.173,0.06-0.287,0.178-0.278,0.418c-0.111-0.073-0.229-0.146-0.418-0.139
	c-0.121-0.529,0.621-0.494,0.836-0.279C52.936,20.311,52.823,20.229,52.823,20.153L52.823,20.153z M59.232,20.571
	c0.138-0.461,0.277,0.156,0.418,0.139C59.575,21.113,59.436,20.497,59.232,20.571L59.232,20.571z M27.038,22.245
	c1.319-0.002,0.241-1.583-0.417-1.116C26.956,21.592,26.721,21.762,27.038,22.245L27.038,22.245z M49.479,21.268
	C48.741,20.899,50.009,21.533,49.479,21.268L49.479,21.268z M23.696,21.546c-0.778,0.321-1.06,0.586-1.955,0.558
	c0.071,0.583,0.329,0.974,0.838,1.115c0.193-0.085,0.021-0.538,0.279-0.557c0.361,0.101,0.471,0.458,0.837,0.557
	c-0.142-0.419,0.309-0.247,0.557-0.279C23.913,22.371,24.215,21.981,23.696,21.546L23.696,21.546z M23.137,22.382
	C22.308,22.478,22.813,21.789,23.137,22.382L23.137,22.382L23.137,22.382z M91.708,21.965c0.351,0.058-0.133,0.397-0.416,0.279
	c0-0.141,0-0.279,0-0.42C91.488,21.75,91.629,22.368,91.708,21.965L91.708,21.965z M25.089,22.245
	c-0.136,0.555,0.415,0.419,0.278,0.975c0.326,0.047,0.602,0.143,0.696,0.417c0.06,0.386-0.518,0.132-0.556,0.42
	c0.488,0.352,1.016-0.221,1.252-0.559c-0.498-0.319-0.036-0.387,0.14-0.697c-0.264-0.014-0.095-0.46-0.418-0.418
	c-0.018,0.26-0.092,0.466-0.278,0.558c-0.163-0.208-0.118-0.623-0.557-0.558c0.006,0.24-0.106,0.357-0.279,0.418
	C25.334,22.554,25.507,22.103,25.089,22.245L25.089,22.245z M39.863,25.866c-0.131,0.103-0.214,0.253-0.279,0.419
	c-0.381-0.003-0.332-0.657-0.14-0.836c0.436-0.066,0.392,0.35,0.558,0.557C39.928,26.221,39.857,26.016,39.863,25.866L39.863,25.866
	z M50.036,26.564c0.077-0.404,0.219,0.214,0.417,0.139C50.316,27.166,50.178,26.546,50.036,26.564L50.036,26.564z M37.214,27.679
	C36.734,26.536,35.763,27.604,37.214,27.679L37.214,27.679z M68.57,37.714C68.175,37.028,68.835,38.167,68.57,37.714L68.57,37.714z
	 M49.201,47.469c0.076-0.403,0.216,0.212,0.417,0.14C49.48,48.069,49.342,47.454,49.201,47.469L49.201,47.469z M31.221,49.978
	c-0.136-1.036,0.705-1.073,1.113-0.558c-0.299,0.301-0.07,0.779,0.14,0.975c0.169-0.156,0.252-0.398,0.697-0.279
	c0,0.188,0,0.375,0,0.561C32.231,50.484,31.967,50.109,31.221,49.978L31.221,49.978z M54.354,10.397
	c0.144,0.091,0.146,0.32,0.422,0.279c-0.063,0.488-0.297,0.592-0.697,0.418C53.958,10.649,54.298,10.664,54.354,10.397
	L54.354,10.397z M43.346,20.153c0.193,0.086,0.021,0.537,0.279,0.557c0.011-0.359,0.598-0.146,0.417-0.697
	c-0.868,0.292,0.053-0.286-0.278-0.557c-0.545-0.082-0.809,0.121-1.114,0.278c0.116,0.354,0.127,1.535,0.696,0.976
	C43.129,20.585,43.273,20.197,43.346,20.153L43.346,20.153z M45.574,21.965c-0.13,0.708-0.201,1.171,0.281,1.532
	c-0.624,0.202-0.696,0.121-1.256,0.28c-0.116,0.394,0.196,0.36,0.139,0.697c0.773,0.163,0.809-0.491,1.393-0.141
	c0.121-0.492,0.867-0.628,1.255-0.277c0.106-0.758-0.171-1.13-0.139-1.812C46.383,22.001,46.351,22.451,45.574,21.965L45.574,21.965
	z M47.248,23.079c-0.021,0.163-0.255,0.119-0.418,0.14C46.854,23.055,47.085,23.101,47.248,23.079L47.248,23.079L47.248,23.079z
	 M45.855,23.777c0.089-0.142,0.32-0.143,0.276-0.419c0.188,0,0.372,0,0.559,0C46.38,23.466,46.318,23.821,45.855,23.777
	L45.855,23.777L45.855,23.777z M39.306,27.261c-0.208,0.445-0.869,0.434-0.978,0.976c0.586,0.313,2.059,1.013,2.371,0.696
	c-0.573-0.135-0.199-0.348-0.418-0.837c0.483,0.486,1.516-0.246,1.252-0.695C41.169,27.743,39.842,27.568,39.306,27.261
	L39.306,27.261z M39.306,28.376c0-0.093,0-0.187,0-0.28c0.091,0,0.184,0,0.278,0c0,0.094,0,0.187,0,0.28
	C39.49,28.376,39.397,28.376,39.306,28.376L39.306,28.376L39.306,28.376z M19.792,36.599c-0.233,1.07,0.827,0.847,0.558,1.95
	c-0.347,0.021-0.43-0.219-0.696-0.277c0.128-0.711,0.172-0.914-0.557-0.976c0-0.187,0-0.373,0-0.559
	C19.256,36.62,19.469,36.556,19.792,36.599L19.792,36.599z M29.13,49c-0.62,0.033-1.139,0.164-1.115,0.838
	c-0.776,0.17-0.895-0.316-1.116-0.696c0.181-0.239,0.29-0.548,0.699-0.558c0.136-0.557-0.418-0.42-0.281-0.977
	C28.33,46.929,29.325,47.424,29.13,49L29.13,49z M31.082,44.821c-0.436,0.643-0.276,1.02-1.116,1.254
	c0.511,1.297,0.598,1.666,1.255,2.649c0.509,0.091,0.533-0.302,0.975-0.28c0.009-0.798-0.587-0.99-0.975-1.395
	c0.377-0.254,0.023-0.469,0.278-0.695c0.732,0.16,1.455,0.98,2.231,0.279c0.154-0.668-0.436-0.588-0.279-1.256
	C32.178,45.743,31.995,45.103,31.082,44.821L31.082,44.821z M80.559,53.601c0.373,0.741,1.51,0.72,1.396,1.95
	c-0.922,0.176-1.118-0.369-1.954-0.277C80.082,54.606,80.307,54.153,80.559,53.601L80.559,53.601z M80.977,54.856L80.977,54.856
	C81.323,55.399,81.18,54.395,80.977,54.856L80.977,54.856z M56.445,55.551c0.572-0.053,1.476,0.871,0.979,0.978
	c0.17,0.12,0.838,0.444,0.977,0.14c0.352,0.158,0.399,0.615,0.416,1.113c-0.564,0.219-1.195-0.023-1.813-0.416
	c0.195-0.773,0.054-0.906-0.558-1.115C56.445,56.018,56.445,55.786,56.445,55.551L56.445,55.551z M68.711,63.079
	c-0.6-0.097-0.995-0.397-1.113-0.976C68.195,61.653,69.137,62.506,68.711,63.079z"/>
</svg>
