<?xml version="1.0" encoding="utf-8"?>
<!-- Generator: Adobe Illustrator 16.0.0, SVG Export Plug-In . SVG Version: 6.00 Build 0)  -->
<!DOCTYPE svg PUBLIC "-//W3C//DTD SVG 1.1//EN" "http://www.w3.org/Graphics/SVG/1.1/DTD/svg11.dtd">
<svg version="1.1" id="Layer_1" xmlns="http://www.w3.org/2000/svg" xmlns:xlink="http://www.w3.org/1999/xlink" x="0px" y="0px"
	 width="308.159px" height="260.161px" viewBox="-4 19.389 308.159 260.161" enable-background="new -4 19.389 308.159 260.161"
	 xml:space="preserve">
<path fill="none" stroke="#000000" stroke-width="10" d="M15.058,274.223c-14.317-1.918-18.426-20.359-8.937-29.989
	c10.389-13.679,30.271-22.311,46.509-13.888c0.662-52.118,0.287-104.249,0.386-156.372C134.994,57.571,217.084,41.71,299.097,25.48
	c-0.235,57.623,0.577,115.265-0.569,172.873c-1.97,14.86-17.138,24.729-30.791,27.816c-11.966,3.668-28.813-4.28-25.979-18.609
	c3.504-15.498,19.491-26.666,34.86-28.023c7.61-2.921,20.181,9.654,16.683-4.305c0.218-27.967,0.108-55.935,0.135-83.901
	c-38.271,7.481-76.533,15.016-114.802,22.523c-0.229,36.484,0.557,72.996-0.591,109.459c-3.18,15.897-20.297,26.407-35.75,27.231
	c-14.899,2.897-27.086-14.423-17.935-27.044c9.642-15.67,31.659-26.224,48.934-16.724c0.332-30.582,0.143-61.166,0.192-91.75
	c-38.396,7.827-76.922,15.048-115.318,22.875c-0.257,36.94,0.629,73.928-0.701,110.832
	C52.258,265.652,32.218,276.616,15.058,274.223L15.058,274.223z M116.443,114.909c18.839-3.752,37.71-7.357,56.501-11.339
	c2.95-13.54-17.916,0.087-25.354-1.308c-29.806,5.875-59.628,11.671-89.427,17.583c-2.266,13.05,15.28,1.239,22.47,2.12
	C92.569,119.607,104.506,117.256,116.443,114.909z M114.279,97.369c19.734-3.885,39.478-7.72,59.205-11.647
	c1.639-13.074-17.109-0.279-24.426-1.547c-30.22,5.915-60.425,11.9-90.636,17.855c-2.774,12.634,14.558,1.275,21.417,2.105
	C91.317,101.875,102.798,99.621,114.279,97.369z M237.447,90.867c18.662-3.665,37.322-7.329,55.984-10.993
	c1.753-13.035-16.508-0.897-23.96-1.877c-30.198,5.928-60.39,11.901-90.584,17.855c-3.559,11.045,8.595,3.946,14.873,3.588
	C208.324,96.584,222.886,93.726,237.447,90.867z M116.595,79.194c18.876-3.724,37.752-7.448,56.628-11.172
	c3.182-13.298-14.341-1.801-21.356-2.542c-31.164,6.27-62.322,12.567-93.499,18.77c-1.806,13.617,18.794-0.37,26.467,1.184
	C95.424,83.364,106.01,81.282,116.595,79.194z M236.418,73.091c19.006-3.731,38.011-7.463,57.016-11.195
	c2.257-12.518-14.431-1.313-21.224-2.148c-31.188,6.148-62.396,12.213-93.579,18.397c-0.48,12.897,19.7-0.512,28.226,0.737
	C216.711,76.957,226.565,75.026,236.418,73.091z M236.032,55.42c18.942-3.809,37.981-7.276,56.865-11.312
	c2.828-13.238-18.202,0.427-25.566-1.095c-29.372,5.741-58.859,11.05-88.168,17.028c-3.136,14.006,18.263,0.046,25.928,1.453
	C215.404,59.467,225.718,57.443,236.032,55.42z"/>
</svg>
