<?xml version="1.0" encoding="utf-8"?>
<!-- Generator: Adobe Illustrator 16.0.0, SVG Export Plug-In . SVG Version: 6.00 Build 0)  -->
<!DOCTYPE svg PUBLIC "-//W3C//DTD SVG 1.1//EN" "http://www.w3.org/Graphics/SVG/1.1/DTD/svg11.dtd">
<svg version="1.1" id="Layer_1" xmlns="http://www.w3.org/2000/svg" xmlns:xlink="http://www.w3.org/1999/xlink" x="0px" y="0px"
	 width="100px" height="100px" viewBox="0 0 100 100" enable-background="new 0 0 100 100" xml:space="preserve">
<path d="M4.616,6.3c0,0,0.33-0.249,0.229-0.667c-0.103-0.417-0.599-0.809-1.326-0.55C2.789,5.34,2.442,6.048,2.811,6.886
	c0.368,0.838,1.95,1.119,3.298,0.06c1.346-1.058,1.787-1.326,3.13-1.768c0,0-1.513,0.253-2.836,1.16
	c-1.325,0.908-2.341,0.64-2.645,0.21c-0.305-0.431-0.107-0.8,0.155-0.854C4.175,5.642,4.65,5.654,4.616,6.3z M10.796,6.344
	c0,0-0.325,0.26-0.211,0.675c0.114,0.414,0.619,0.793,1.341,0.515c0.722-0.275,1.051-0.994,0.661-1.821
	c-0.393-0.828-1.98-1.067-3.299,0.027c-1.32,1.095-1.751,1.373-3.083,1.853c0,0,1.505-0.294,2.804-1.238
	c1.299-0.942,2.32-0.701,2.637-0.278c0.316,0.422,0.128,0.796-0.132,0.857C11.254,6.992,10.779,6.991,10.796,6.344z M7.597,6.123
	C8.422,5.61,9.153,5.296,9.23,5.419c0.077,0.124-0.529,0.64-1.354,1.152C7.051,7.083,6.32,7.398,6.243,7.274
	C6.166,7.15,6.772,6.635,7.597,6.123z M15.133,6.3c0,0,0.331-0.249,0.229-0.667c-0.102-0.417-0.599-0.809-1.326-0.55
	c-0.73,0.257-1.077,0.965-0.708,1.803c0.368,0.838,1.95,1.119,3.298,0.06c1.346-1.058,1.787-1.326,3.13-1.768
	c0,0-1.513,0.253-2.836,1.16c-1.325,0.908-2.34,0.64-2.645,0.21c-0.305-0.431-0.108-0.8,0.155-0.854
	C14.693,5.642,15.168,5.654,15.133,6.3z M21.313,6.344c0,0-0.325,0.26-0.211,0.675c0.114,0.414,0.619,0.793,1.341,0.515
	c0.722-0.275,1.051-0.994,0.66-1.821c-0.392-0.828-1.979-1.067-3.298,0.027c-1.32,1.095-1.751,1.373-3.083,1.853
	c0,0,1.505-0.294,2.804-1.238c1.299-0.942,2.321-0.701,2.637-0.278c0.317,0.422,0.128,0.796-0.131,0.857
	C21.771,6.992,21.297,6.991,21.313,6.344z M18.114,6.123c0.825-0.512,1.556-0.827,1.633-0.703c0.077,0.124-0.529,0.639-1.354,1.151
	c-0.825,0.512-1.556,0.827-1.633,0.703C16.683,7.151,17.289,6.635,18.114,6.123z M25.651,6.3c0,0,0.33-0.249,0.228-0.667
	c-0.102-0.417-0.599-0.809-1.325-0.55c-0.73,0.257-1.077,0.965-0.708,1.803c0.367,0.838,1.95,1.119,3.298,0.06
	c1.346-1.058,1.787-1.326,3.13-1.768c0,0-1.513,0.253-2.836,1.16c-1.325,0.908-2.341,0.64-2.645,0.21
	c-0.304-0.431-0.107-0.8,0.156-0.854C25.21,5.642,25.686,5.654,25.651,6.3z M31.831,6.344c0,0-0.325,0.26-0.211,0.675
	c0.114,0.414,0.619,0.793,1.341,0.515c0.721-0.275,1.051-0.994,0.66-1.821c-0.393-0.828-1.98-1.067-3.298,0.027
	c-1.32,1.095-1.751,1.373-3.083,1.853c0,0,1.505-0.294,2.804-1.238c1.298-0.942,2.321-0.701,2.637-0.278
	c0.317,0.422,0.128,0.796-0.132,0.857C32.289,6.992,31.814,6.991,31.831,6.344z M28.631,6.124c0.825-0.512,1.556-0.827,1.633-0.703
	c0.077,0.124-0.529,0.64-1.354,1.152c-0.825,0.512-1.556,0.827-1.632,0.703C27.2,7.151,27.806,6.636,28.631,6.124z M36.169,6.3
	c0,0,0.33-0.249,0.228-0.667c-0.103-0.417-0.599-0.809-1.326-0.55c-0.73,0.257-1.077,0.965-0.708,1.803
	c0.368,0.838,1.95,1.119,3.297,0.06c1.346-1.058,1.787-1.326,3.13-1.768c0,0-1.513,0.253-2.835,1.16
	c-1.325,0.908-2.341,0.64-2.645,0.21c-0.305-0.431-0.107-0.8,0.156-0.854C35.728,5.642,36.203,5.654,36.169,6.3z M42.349,6.344
	c0,0-0.326,0.26-0.211,0.675c0.113,0.414,0.619,0.793,1.341,0.515c0.722-0.275,1.052-0.994,0.66-1.821
	c-0.393-0.828-1.979-1.067-3.298,0.027c-1.32,1.095-1.75,1.373-3.083,1.853c0,0,1.506-0.294,2.804-1.238
	c1.299-0.942,2.322-0.701,2.638-0.278c0.317,0.422,0.127,0.796-0.131,0.857C42.807,6.992,42.332,6.991,42.349,6.344z M39.147,6.125
	c0.825-0.512,1.556-0.827,1.633-0.703c0.077,0.124-0.529,0.64-1.354,1.152c-0.825,0.512-1.556,0.827-1.633,0.703
	C37.717,7.152,38.323,6.637,39.147,6.125z M46.686,6.3c0,0,0.33-0.249,0.229-0.667c-0.103-0.417-0.599-0.809-1.326-0.55
	c-0.73,0.257-1.077,0.965-0.708,1.803c0.367,0.838,1.95,1.119,3.297,0.06c1.346-1.058,1.787-1.326,3.13-1.768
	c0,0-1.514,0.253-2.836,1.16c-1.325,0.908-2.34,0.64-2.645,0.21c-0.304-0.431-0.107-0.8,0.155-0.854
	C46.245,5.642,46.72,5.654,46.686,6.3z M52.866,6.344c0,0-0.326,0.26-0.212,0.675c0.113,0.414,0.619,0.793,1.342,0.515
	c0.721-0.275,1.051-0.994,0.658-1.821c-0.393-0.828-1.979-1.067-3.297,0.027c-1.32,1.095-1.751,1.373-3.083,1.853
	c0,0,1.505-0.294,2.805-1.238c1.298-0.942,2.319-0.701,2.637-0.278c0.316,0.422,0.127,0.796-0.132,0.857
	C53.324,6.992,52.85,6.991,52.866,6.344z M49.664,6.121c0.824-0.512,1.555-0.827,1.631-0.703c0.077,0.124-0.528,0.639-1.353,1.151
	c-0.824,0.512-1.555,0.827-1.632,0.703C48.233,7.149,48.839,6.633,49.664,6.121z M57.204,6.3c0,0,0.33-0.249,0.228-0.667
	c-0.103-0.417-0.599-0.809-1.324-0.55c-0.73,0.257-1.078,0.965-0.709,1.803c0.367,0.838,1.949,1.119,3.299,0.06
	c1.346-1.058,1.785-1.326,3.129-1.768c0,0-1.512,0.253-2.835,1.16c-1.324,0.908-2.341,0.64-2.646,0.21
	c-0.305-0.431-0.107-0.8,0.155-0.854C56.764,5.642,57.236,5.654,57.204,6.3z M63.383,6.344c0,0-0.324,0.26-0.212,0.675
	c0.114,0.414,0.62,0.793,1.343,0.515c0.721-0.275,1.051-0.994,0.659-1.821c-0.394-0.828-1.979-1.067-3.298,0.027
	c-1.32,1.095-1.751,1.373-3.084,1.853c0,0,1.506-0.294,2.805-1.238c1.299-0.942,2.321-0.701,2.639-0.278
	c0.315,0.422,0.127,0.796-0.133,0.857C63.842,6.992,63.367,6.991,63.383,6.344z M60.182,6.125c0.824-0.512,1.555-0.827,1.633-0.703
	c0.076,0.124-0.529,0.639-1.354,1.151s-1.556,0.827-1.633,0.703S59.356,6.638,60.182,6.125z M67.723,6.3
	c0,0,0.328-0.249,0.228-0.667c-0.103-0.417-0.599-0.809-1.325-0.55c-0.73,0.257-1.076,0.965-0.708,1.803
	c0.366,0.838,1.949,1.119,3.298,0.06C70.561,5.888,71,5.62,72.344,5.178c0,0-1.513,0.253-2.836,1.16
	c-1.324,0.908-2.342,0.64-2.645,0.21c-0.305-0.431-0.107-0.8,0.156-0.854C67.279,5.642,67.755,5.654,67.723,6.3z M73.9,6.344
	c0,0-0.325,0.26-0.211,0.675c0.112,0.414,0.619,0.793,1.34,0.515c0.723-0.275,1.053-0.994,0.66-1.821
	c-0.393-0.828-1.979-1.067-3.299,0.027c-1.318,1.095-1.75,1.373-3.082,1.853c0,0,1.506-0.294,2.805-1.238
	c1.299-0.942,2.32-0.701,2.638-0.278c0.315,0.422,0.127,0.796-0.132,0.857C74.359,6.992,73.885,6.991,73.9,6.344z M70.698,6.125
	c0.825-0.512,1.556-0.827,1.634-0.702c0.076,0.124-0.529,0.64-1.354,1.152c-0.825,0.512-1.557,0.827-1.634,0.702
	C69.268,7.153,69.873,6.637,70.698,6.125z M78.238,6.3c0,0,0.33-0.249,0.229-0.667c-0.104-0.417-0.6-0.809-1.324-0.55
	c-0.73,0.257-1.078,0.965-0.709,1.803c0.366,0.838,1.949,1.119,3.299,0.06c1.346-1.058,1.785-1.326,3.129-1.768
	c0,0-1.512,0.253-2.836,1.16c-1.324,0.908-2.342,0.64-2.645,0.21c-0.306-0.431-0.107-0.8,0.155-0.854
	C77.798,5.642,78.271,5.654,78.238,6.3z M84.418,6.344c0,0-0.325,0.26-0.211,0.675c0.113,0.414,0.619,0.793,1.341,0.515
	c0.724-0.275,1.052-0.994,0.66-1.821c-0.394-0.828-1.979-1.067-3.298,0.027c-1.32,1.095-1.751,1.373-3.083,1.853
	c0,0,1.505-0.294,2.804-1.238c1.299-0.942,2.321-0.701,2.639-0.278c0.315,0.422,0.127,0.796-0.133,0.857
	C84.877,6.992,84.402,6.991,84.418,6.344z M81.215,6.126c0.825-0.512,1.557-0.827,1.633-0.702c0.078,0.124-0.528,0.64-1.354,1.152
	c-0.824,0.512-1.556,0.827-1.633,0.702C79.784,7.154,80.391,6.638,81.215,6.126z M88.757,6.3c0,0,0.33-0.249,0.228-0.667
	c-0.103-0.417-0.598-0.809-1.325-0.55c-0.729,0.257-1.076,0.965-0.707,1.803c0.366,0.838,1.948,1.119,3.298,0.06
	c1.346-1.058,1.786-1.326,3.13-1.768c0,0-1.513,0.253-2.836,1.16c-1.325,0.908-2.342,0.64-2.646,0.21
	c-0.306-0.431-0.107-0.8,0.156-0.854C88.314,5.642,88.79,5.654,88.757,6.3z M94.936,6.344c0,0-0.324,0.26-0.211,0.675
	c0.113,0.414,0.619,0.793,1.342,0.515c0.722-0.275,1.051-0.994,0.66-1.821c-0.394-0.828-1.979-1.067-3.3,0.027
	c-1.319,1.095-1.751,1.373-3.081,1.853c0,0,1.504-0.294,2.805-1.238c1.298-0.942,2.32-0.701,2.637-0.278
	c0.316,0.422,0.127,0.796-0.133,0.857C95.395,6.992,94.92,6.991,94.936,6.344z M91.732,6.126c0.825-0.512,1.557-0.826,1.634-0.702
	c0.077,0.125-0.528,0.641-1.354,1.152c-0.824,0.512-1.555,0.827-1.633,0.703C90.303,7.154,90.908,6.638,91.732,6.126z M4.616,92.277
	c0,0,0.33-0.247,0.229-0.666c-0.103-0.418-0.599-0.809-1.326-0.551c-0.729,0.258-1.076,0.967-0.708,1.805s1.95,1.117,3.298,0.06
	c1.346-1.058,1.787-1.325,3.13-1.768c0,0-1.513,0.253-2.836,1.159c-1.325,0.908-2.341,0.641-2.645,0.211
	c-0.305-0.432-0.107-0.801,0.155-0.854C4.175,91.62,4.65,91.633,4.616,92.277z M10.796,92.323c0,0-0.325,0.261-0.211,0.675
	c0.114,0.414,0.619,0.793,1.341,0.516c0.722-0.275,1.051-0.994,0.661-1.822c-0.393-0.827-1.98-1.065-3.299,0.027
	c-1.32,1.094-1.751,1.372-3.083,1.854c0,0,1.505-0.295,2.804-1.238c1.299-0.941,2.32-0.701,2.637-0.277
	c0.316,0.422,0.128,0.797-0.132,0.856C11.254,92.971,10.779,92.971,10.796,92.323z M7.598,92.104
	c0.825-0.512,1.556-0.827,1.633-0.702c0.077,0.123-0.529,0.639-1.354,1.15c-0.825,0.513-1.556,0.828-1.633,0.703
	C6.167,93.133,6.773,92.617,7.598,92.104z M15.133,92.277c0,0,0.331-0.247,0.229-0.666c-0.102-0.418-0.599-0.809-1.326-0.551
	c-0.73,0.258-1.077,0.967-0.708,1.805c0.368,0.838,1.95,1.117,3.298,0.06c1.346-1.058,1.787-1.325,3.13-1.768
	c0,0-1.513,0.253-2.836,1.159c-1.325,0.908-2.34,0.641-2.645,0.211c-0.305-0.432-0.108-0.801,0.155-0.854
	C14.693,91.62,15.168,91.633,15.133,92.277z M21.313,92.323c0,0-0.325,0.261-0.211,0.675c0.114,0.414,0.619,0.793,1.341,0.516
	c0.722-0.275,1.051-0.994,0.66-1.822c-0.392-0.827-1.979-1.065-3.298,0.027c-1.32,1.094-1.751,1.372-3.083,1.854
	c0,0,1.505-0.295,2.804-1.238c1.299-0.941,2.321-0.701,2.637-0.277c0.317,0.422,0.128,0.797-0.131,0.856
	C21.771,92.971,21.297,92.971,21.313,92.323z M18.111,92.102c0.825-0.512,1.556-0.826,1.633-0.703
	c0.077,0.125-0.529,0.641-1.354,1.152c-0.825,0.512-1.556,0.826-1.633,0.703C16.68,93.129,17.287,92.614,18.111,92.102z
	 M25.651,92.277c0,0,0.33-0.247,0.228-0.666c-0.102-0.418-0.599-0.809-1.325-0.551c-0.73,0.258-1.077,0.967-0.708,1.805
	c0.367,0.838,1.95,1.117,3.298,0.06c1.346-1.058,1.787-1.325,3.13-1.768c0,0-1.513,0.253-2.836,1.159
	c-1.325,0.908-2.341,0.641-2.645,0.211c-0.304-0.432-0.107-0.801,0.156-0.854C25.21,91.62,25.686,91.633,25.651,92.277z
	 M31.831,92.323c0,0-0.325,0.261-0.211,0.675c0.114,0.414,0.619,0.793,1.341,0.516c0.721-0.275,1.051-0.994,0.66-1.822
	c-0.393-0.827-1.98-1.065-3.298,0.027c-1.32,1.094-1.751,1.372-3.083,1.854c0,0,1.505-0.295,2.804-1.238
	c1.298-0.941,2.321-0.701,2.637-0.277c0.317,0.422,0.128,0.797-0.132,0.856C32.289,92.971,31.814,92.971,31.831,92.323z
	 M28.626,92.101c0.825-0.513,1.556-0.827,1.633-0.703c0.077,0.124-0.529,0.64-1.354,1.151c-0.825,0.513-1.556,0.827-1.633,0.703
	C27.195,93.129,27.802,92.613,28.626,92.101z M36.169,92.277c0,0,0.33-0.247,0.228-0.666c-0.103-0.418-0.599-0.809-1.326-0.551
	c-0.73,0.258-1.077,0.967-0.708,1.805c0.368,0.838,1.95,1.117,3.297,0.06c1.346-1.058,1.787-1.325,3.13-1.768
	c0,0-1.513,0.253-2.835,1.159c-1.325,0.908-2.341,0.641-2.645,0.211c-0.305-0.432-0.107-0.801,0.156-0.854
	C35.728,91.62,36.203,91.633,36.169,92.277z M42.349,92.323c0,0-0.326,0.261-0.211,0.675c0.113,0.414,0.619,0.793,1.341,0.516
	c0.722-0.275,1.052-0.994,0.66-1.822c-0.393-0.827-1.979-1.065-3.298,0.027c-1.32,1.094-1.75,1.372-3.083,1.854
	c0,0,1.506-0.295,2.804-1.238c1.299-0.941,2.322-0.701,2.638-0.277c0.317,0.422,0.127,0.797-0.131,0.856
	C42.807,92.971,42.332,92.971,42.349,92.323z M39.144,92.102c0.825-0.512,1.556-0.827,1.632-0.703
	c0.077,0.124-0.529,0.64-1.354,1.151c-0.825,0.513-1.556,0.827-1.633,0.703C37.712,93.129,38.318,92.613,39.144,92.102z
	 M46.686,92.277c0,0,0.33-0.247,0.229-0.666c-0.103-0.418-0.599-0.809-1.326-0.551c-0.73,0.258-1.077,0.967-0.708,1.805
	c0.367,0.838,1.95,1.117,3.297,0.06c1.346-1.058,1.787-1.325,3.13-1.768c0,0-1.514,0.253-2.836,1.159
	c-1.325,0.908-2.34,0.641-2.645,0.211c-0.304-0.432-0.107-0.801,0.155-0.854C46.245,91.62,46.72,91.633,46.686,92.277z
	 M52.866,92.323c0,0-0.326,0.261-0.212,0.675c0.113,0.414,0.619,0.793,1.342,0.516c0.721-0.275,1.051-0.994,0.658-1.822
	c-0.393-0.827-1.979-1.065-3.297,0.027c-1.32,1.094-1.751,1.372-3.083,1.854c0,0,1.505-0.295,2.805-1.238
	c1.298-0.941,2.319-0.701,2.637-0.277c0.316,0.422,0.127,0.797-0.132,0.856C53.324,92.971,52.85,92.971,52.866,92.323z
	 M49.666,92.096c0.824-0.512,1.555-0.826,1.632-0.703c0.077,0.125-0.528,0.641-1.353,1.152c-0.824,0.512-1.555,0.826-1.632,0.703
	C48.236,93.123,48.842,92.608,49.666,92.096z M57.204,92.277c0,0,0.33-0.247,0.228-0.666c-0.103-0.418-0.599-0.809-1.324-0.551
	c-0.73,0.258-1.078,0.967-0.709,1.805c0.367,0.838,1.949,1.117,3.299,0.06c1.346-1.058,1.785-1.325,3.129-1.768
	c0,0-1.512,0.253-2.835,1.159c-1.324,0.908-2.341,0.641-2.646,0.211c-0.305-0.432-0.107-0.801,0.155-0.854
	C56.764,91.62,57.236,91.633,57.204,92.277z M63.383,92.323c0,0-0.324,0.261-0.212,0.675c0.114,0.414,0.62,0.793,1.343,0.516
	c0.721-0.275,1.051-0.994,0.659-1.822c-0.394-0.827-1.979-1.065-3.298,0.027c-1.32,1.094-1.751,1.372-3.084,1.854
	c0,0,1.506-0.295,2.805-1.238c1.299-0.941,2.321-0.701,2.639-0.277c0.315,0.422,0.127,0.797-0.133,0.856
	C63.842,92.971,63.367,92.971,63.383,92.323z M60.177,92.103c0.825-0.513,1.556-0.827,1.633-0.703s-0.529,0.64-1.354,1.151
	c-0.824,0.513-1.555,0.827-1.633,0.703C58.746,93.131,59.352,92.615,60.177,92.103z M67.723,92.277c0,0,0.328-0.247,0.228-0.666
	c-0.103-0.418-0.599-0.809-1.325-0.551c-0.73,0.258-1.076,0.967-0.708,1.805c0.366,0.838,1.949,1.117,3.298,0.06
	c1.346-1.058,1.786-1.325,3.131-1.768c0,0-1.514,0.253-2.837,1.159c-1.325,0.908-2.342,0.641-2.646,0.211
	c-0.305-0.432-0.106-0.801,0.156-0.854C67.279,91.62,67.755,91.633,67.723,92.277z M73.9,92.323c0,0-0.325,0.261-0.211,0.675
	c0.112,0.414,0.619,0.793,1.34,0.516c0.723-0.275,1.053-0.994,0.66-1.822c-0.393-0.827-1.979-1.065-3.299,0.027
	c-1.32,1.094-1.75,1.372-3.082,1.854c0,0,1.506-0.295,2.805-1.238c1.299-0.941,2.32-0.701,2.638-0.277
	c0.315,0.422,0.127,0.797-0.132,0.856C74.359,92.971,73.885,92.971,73.9,92.323z M70.693,92.102
	c0.826-0.512,1.557-0.826,1.634-0.701c0.077,0.123-0.528,0.64-1.354,1.152c-0.825,0.512-1.556,0.826-1.634,0.701
	C69.264,93.13,69.869,92.614,70.693,92.102z M78.238,92.277c0,0,0.33-0.247,0.229-0.666c-0.104-0.418-0.6-0.809-1.324-0.551
	c-0.73,0.258-1.078,0.967-0.709,1.805c0.366,0.838,1.949,1.117,3.299,0.06c1.346-1.058,1.785-1.325,3.129-1.768
	c0,0-1.512,0.253-2.836,1.159c-1.324,0.908-2.342,0.641-2.645,0.211c-0.306-0.432-0.107-0.801,0.155-0.854
	C77.798,91.62,78.271,91.633,78.238,92.277z M84.418,92.323c0,0-0.325,0.261-0.211,0.675c0.113,0.414,0.619,0.793,1.341,0.516
	c0.724-0.275,1.052-0.994,0.66-1.822c-0.394-0.827-1.979-1.065-3.298,0.027c-1.32,1.094-1.751,1.372-3.083,1.854
	c0,0,1.505-0.295,2.804-1.238c1.299-0.941,2.321-0.701,2.639-0.277c0.315,0.422,0.127,0.797-0.133,0.856
	C84.877,92.971,84.402,92.971,84.418,92.323z M81.211,92.103c0.824-0.512,1.557-0.826,1.633-0.702
	c0.078,0.125-0.528,0.641-1.354,1.152c-0.824,0.513-1.556,0.826-1.633,0.703C79.779,93.131,80.387,92.615,81.211,92.103z
	 M88.757,92.277c0,0,0.33-0.247,0.228-0.666c-0.103-0.418-0.598-0.809-1.325-0.551c-0.729,0.258-1.076,0.967-0.707,1.805
	c0.366,0.838,1.948,1.117,3.298,0.06c1.346-1.058,1.786-1.325,3.13-1.768c0,0-1.513,0.253-2.836,1.159
	c-1.325,0.908-2.342,0.641-2.646,0.211c-0.306-0.432-0.107-0.801,0.156-0.854C88.314,91.62,88.79,91.633,88.757,92.277z
	 M94.936,92.323c0,0-0.324,0.261-0.211,0.675s0.619,0.793,1.342,0.516c0.722-0.275,1.051-0.994,0.66-1.822
	c-0.394-0.827-1.979-1.065-3.3,0.027c-1.319,1.094-1.751,1.372-3.081,1.854c0,0,1.504-0.295,2.805-1.238
	c1.298-0.941,2.32-0.701,2.637-0.277c0.316,0.422,0.127,0.797-0.133,0.856C95.395,92.971,94.92,92.971,94.936,92.323z
	 M91.729,92.104c0.824-0.513,1.557-0.827,1.633-0.703c0.078,0.125-0.528,0.641-1.354,1.152c-0.824,0.513-1.556,0.827-1.633,0.703
	C90.298,93.131,90.904,92.615,91.729,92.104z M95.436,10.694c0,0,0.25,0.318,0.668,0.22c0.416-0.098,0.809-0.579,0.549-1.28
	c-0.256-0.706-0.965-1.041-1.803-0.684c-0.838,0.354-1.117,1.883-0.061,3.185c1.059,1.301,1.326,1.726,1.77,3.023
	c0,0-0.254-1.462-1.16-2.739c-0.908-1.28-0.642-2.261-0.211-2.555c0.432-0.294,0.801-0.104,0.854,0.15
	C96.094,10.269,96.081,10.727,95.436,10.694z M95.393,16.663c0,0-0.262-0.314-0.676-0.205s-0.793,0.598-0.516,1.296
	c0.275,0.697,0.994,1.014,1.82,0.637c0.83-0.38,1.067-1.913-0.025-3.186c-1.096-1.275-1.373-1.691-1.854-2.977
	c0,0,0.293,1.454,1.238,2.708c0.941,1.254,0.7,2.242,0.277,2.547c-0.422,0.306-0.797,0.124-0.856-0.127
	C94.743,17.105,94.744,16.646,95.393,16.663z M96.314,15.149c-0.123,0.074-0.64-0.511-1.149-1.308
	c-0.513-0.798-0.828-1.503-0.704-1.577c0.124-0.074,0.641,0.51,1.152,1.307C96.126,14.37,96.439,15.076,96.314,15.149z
	 M95.436,20.852c0,0,0.25,0.318,0.668,0.22c0.416-0.099,0.809-0.578,0.549-1.28c-0.256-0.705-0.965-1.04-1.803-0.684
	c-0.838,0.355-1.117,1.883-0.061,3.185c1.059,1.3,1.326,1.726,1.77,3.023c0,0-0.254-1.46-1.16-2.738
	c-0.908-1.28-0.642-2.261-0.211-2.555c0.432-0.294,0.801-0.104,0.854,0.15C96.094,20.426,96.081,20.885,95.436,20.852z
	 M95.393,26.82c0,0-0.262-0.315-0.676-0.205c-0.414,0.11-0.793,0.598-0.516,1.296c0.275,0.697,0.994,1.015,1.82,0.637
	c0.83-0.379,1.067-1.912-0.025-3.186c-1.096-1.275-1.373-1.691-1.854-2.978c0,0,0.293,1.454,1.238,2.708
	c0.941,1.254,0.7,2.242,0.277,2.547c-0.422,0.306-0.797,0.123-0.856-0.127C94.743,27.262,94.744,26.804,95.393,26.82z
	 M96.314,25.306c-0.123,0.074-0.64-0.511-1.149-1.308c-0.513-0.798-0.828-1.503-0.704-1.577c0.124-0.075,0.641,0.51,1.152,1.307
	C96.126,24.527,96.439,25.233,96.314,25.306z M95.436,31.009c0,0,0.25,0.319,0.668,0.221c0.416-0.099,0.809-0.578,0.549-1.28
	c-0.256-0.705-0.965-1.04-1.803-0.684c-0.838,0.354-1.117,1.882-0.061,3.185c1.059,1.3,1.326,1.726,1.77,3.023
	c0,0-0.254-1.461-1.16-2.739c-0.908-1.279-0.642-2.26-0.211-2.554c0.432-0.294,0.801-0.104,0.854,0.15
	C96.094,30.583,96.081,31.042,95.436,31.009z M95.393,36.978c0,0-0.262-0.314-0.676-0.205s-0.793,0.598-0.516,1.296
	c0.275,0.696,0.994,1.014,1.82,0.637c0.83-0.379,1.067-1.912-0.025-3.186c-1.096-1.275-1.373-1.691-1.854-2.977
	c0,0,0.293,1.454,1.238,2.708c0.941,1.253,0.7,2.241,0.277,2.546c-0.422,0.306-0.797,0.124-0.856-0.127
	C94.743,37.419,94.744,36.961,95.393,36.978z M96.314,35.463c-0.123,0.075-0.64-0.51-1.149-1.307
	c-0.513-0.798-0.828-1.503-0.704-1.577c0.124-0.075,0.641,0.51,1.152,1.306C96.126,34.684,96.439,35.391,96.314,35.463z
	 M95.436,41.167c0,0,0.25,0.318,0.668,0.22c0.416-0.099,0.809-0.578,0.549-1.281c-0.256-0.705-0.965-1.039-1.803-0.682
	c-0.838,0.354-1.117,1.882-0.061,3.184c1.059,1.3,1.326,1.726,1.77,3.023c0,0-0.254-1.461-1.16-2.739
	c-0.908-1.279-0.642-2.261-0.211-2.554c0.432-0.294,0.801-0.104,0.854,0.15C96.094,40.741,96.081,41.199,95.436,41.167z
	 M95.393,47.135c0,0-0.262-0.314-0.676-0.204c-0.414,0.109-0.793,0.598-0.516,1.295c0.275,0.697,0.994,1.015,1.82,0.637
	c0.83-0.378,1.067-1.912-0.025-3.185c-1.096-1.275-1.373-1.691-1.854-2.978c0,0,0.293,1.454,1.238,2.708
	c0.941,1.254,0.7,2.242,0.277,2.547c-0.422,0.307-0.797,0.124-0.856-0.127C94.743,47.577,94.744,47.118,95.393,47.135z
	 M96.314,45.621c-0.123,0.074-0.64-0.511-1.149-1.308c-0.513-0.797-0.828-1.503-0.704-1.576c0.124-0.075,0.641,0.51,1.152,1.307
	C96.126,44.842,96.439,45.548,96.314,45.621z M95.436,51.324c0,0,0.25,0.318,0.668,0.22c0.416-0.099,0.809-0.577,0.549-1.279
	c-0.256-0.705-0.965-1.04-1.803-0.684c-0.838,0.354-1.117,1.883-0.061,3.185c1.059,1.301,1.326,1.727,1.77,3.023
	c0,0-0.254-1.462-1.16-2.74c-0.908-1.279-0.642-2.261-0.211-2.554c0.432-0.294,0.801-0.104,0.854,0.151
	C96.094,50.898,96.081,51.355,95.436,51.324z M95.393,57.292c0,0-0.262-0.313-0.676-0.204c-0.414,0.11-0.793,0.598-0.516,1.295
	c0.275,0.698,0.994,1.016,1.82,0.639c0.83-0.379,1.067-1.912-0.025-3.187c-1.096-1.274-1.373-1.69-1.854-2.978
	c0,0,0.293,1.453,1.238,2.709c0.941,1.254,0.7,2.24,0.277,2.547c-0.422,0.306-0.797,0.123-0.856-0.129
	C94.743,57.734,94.744,57.275,95.393,57.292z M96.314,55.777c-0.123,0.074-0.64-0.51-1.149-1.308
	c-0.513-0.797-0.828-1.504-0.704-1.575c0.124-0.076,0.641,0.511,1.152,1.307C96.126,54.999,96.439,55.706,96.314,55.777z
	 M95.436,61.482c0,0,0.25,0.316,0.668,0.219c0.416-0.1,0.809-0.578,0.549-1.279c-0.256-0.705-0.965-1.04-1.803-0.684
	c-0.838,0.354-1.117,1.883-0.061,3.185c1.059,1.302,1.326,1.726,1.77,3.022c0,0-0.254-1.461-1.16-2.738
	c-0.908-1.279-0.642-2.262-0.211-2.555c0.432-0.295,0.801-0.104,0.854,0.149C96.094,61.057,96.081,61.516,95.436,61.482z
	 M95.393,67.449c0,0-0.262-0.313-0.676-0.204c-0.414,0.11-0.793,0.599-0.516,1.296c0.275,0.697,0.994,1.016,1.82,0.639
	c0.83-0.381,1.067-1.914-0.025-3.187c-1.096-1.275-1.373-1.691-1.854-2.978c0,0,0.293,1.452,1.238,2.707
	c0.941,1.256,0.7,2.241,0.277,2.547c-0.422,0.307-0.797,0.123-0.856-0.127C94.743,67.893,94.744,67.434,95.393,67.449z
	 M96.314,65.938c-0.123,0.072-0.64-0.512-1.149-1.31c-0.513-0.797-0.828-1.503-0.704-1.576c0.124-0.075,0.641,0.511,1.152,1.308
	C96.126,65.157,96.439,65.863,96.314,65.938z M95.436,71.641c0,0,0.25,0.317,0.668,0.219c0.416-0.099,0.809-0.577,0.549-1.279
	c-0.256-0.705-0.965-1.04-1.803-0.684c-0.838,0.354-1.117,1.883-0.061,3.185c1.059,1.301,1.326,1.726,1.77,3.022
	c0,0-0.254-1.461-1.16-2.738c-0.908-1.279-0.642-2.262-0.211-2.555c0.432-0.293,0.801-0.104,0.854,0.15
	C96.094,71.214,96.081,71.672,95.436,71.641z M95.393,77.607c0,0-0.262-0.314-0.676-0.205s-0.793,0.599-0.516,1.296
	c0.275,0.696,0.994,1.015,1.82,0.638c0.83-0.379,1.067-1.912-0.025-3.188c-1.096-1.272-1.373-1.689-1.854-2.977
	c0,0,0.293,1.453,1.238,2.709c0.941,1.254,0.7,2.24,0.277,2.546c-0.422,0.308-0.797,0.124-0.856-0.127
	C94.743,78.05,94.744,77.592,95.393,77.607z M96.314,76.093c-0.123,0.075-0.64-0.51-1.149-1.307
	c-0.513-0.798-0.828-1.504-0.704-1.577c0.124-0.074,0.641,0.51,1.152,1.309C96.126,75.314,96.439,76.021,96.314,76.093z
	 M4.616,10.694c0,0,0.248,0.318,0.667,0.22c0.417-0.098,0.809-0.579,0.55-1.28c-0.258-0.705-0.967-1.04-1.804-0.683
	c-0.838,0.354-1.118,1.883-0.06,3.185c1.058,1.301,1.326,1.726,1.768,3.023c0,0-0.253-1.462-1.16-2.739
	c-0.908-1.28-0.64-2.261-0.211-2.555c0.432-0.294,0.801-0.104,0.854,0.15C5.273,10.269,5.261,10.727,4.616,10.694z M4.571,16.663
	c0,0-0.261-0.314-0.675-0.205s-0.793,0.598-0.515,1.296c0.275,0.697,0.994,1.014,1.821,0.637c0.828-0.38,1.067-1.913-0.027-3.186
	c-1.095-1.275-1.373-1.691-1.853-2.977c0,0,0.294,1.454,1.238,2.708c0.942,1.254,0.701,2.242,0.278,2.547
	c-0.422,0.306-0.796,0.124-0.856-0.127C3.923,17.105,3.924,16.646,4.571,16.663z M5.496,15.149c-0.124,0.074-0.64-0.511-1.151-1.308
	c-0.513-0.798-0.827-1.503-0.704-1.577c0.124-0.074,0.64,0.51,1.152,1.307C5.306,14.37,5.62,15.076,5.496,15.149z M4.616,20.852
	c0,0,0.248,0.318,0.667,0.22c0.417-0.099,0.809-0.578,0.55-1.28c-0.257-0.705-0.966-1.04-1.803-0.684
	c-0.838,0.355-1.118,1.883-0.06,3.185c1.058,1.3,1.326,1.726,1.768,3.023c0,0-0.253-1.46-1.16-2.738
	c-0.908-1.28-0.64-2.261-0.211-2.555c0.432-0.294,0.801-0.104,0.854,0.15C5.273,20.426,5.261,20.885,4.616,20.852z M4.571,26.82
	c0,0-0.261-0.315-0.675-0.205c-0.414,0.11-0.793,0.598-0.515,1.296c0.275,0.697,0.994,1.015,1.821,0.637
	c0.828-0.379,1.067-1.912-0.027-3.186c-1.095-1.275-1.373-1.691-1.853-2.978c0,0,0.294,1.454,1.238,2.708
	c0.942,1.254,0.701,2.242,0.278,2.547c-0.422,0.306-0.796,0.123-0.856-0.127C3.923,27.262,3.924,26.804,4.571,26.82z M5.496,25.306
	c-0.124,0.074-0.64-0.511-1.151-1.308c-0.513-0.798-0.827-1.503-0.704-1.577c0.124-0.075,0.64,0.51,1.152,1.307
	C5.306,24.527,5.62,25.233,5.496,25.306z M4.616,31.009c0,0,0.248,0.319,0.667,0.221c0.417-0.099,0.809-0.578,0.55-1.28
	c-0.257-0.705-0.966-1.04-1.803-0.684c-0.838,0.354-1.118,1.882-0.06,3.185c1.058,1.3,1.326,1.726,1.768,3.023
	c0,0-0.253-1.461-1.16-2.739c-0.908-1.279-0.64-2.26-0.211-2.554c0.432-0.294,0.801-0.104,0.854,0.15
	C5.273,30.583,5.261,31.042,4.616,31.009z M4.571,36.978c0,0-0.261-0.314-0.675-0.205s-0.793,0.598-0.515,1.296
	c0.275,0.696,0.994,1.014,1.821,0.637c0.828-0.379,1.067-1.912-0.027-3.186c-1.095-1.275-1.373-1.691-1.853-2.977
	c0,0,0.294,1.454,1.238,2.708c0.942,1.253,0.701,2.241,0.278,2.546c-0.422,0.306-0.796,0.124-0.856-0.127
	C3.923,37.419,3.924,36.961,4.571,36.978z M5.496,35.463c-0.124,0.075-0.64-0.51-1.151-1.307c-0.513-0.798-0.827-1.503-0.704-1.577
	c0.124-0.075,0.64,0.51,1.152,1.306C5.306,34.684,5.62,35.391,5.496,35.463z M4.616,41.167c0,0,0.248,0.318,0.667,0.22
	c0.417-0.099,0.809-0.578,0.55-1.281c-0.257-0.705-0.966-1.039-1.803-0.682c-0.838,0.354-1.118,1.882-0.06,3.184
	c1.058,1.3,1.326,1.726,1.768,3.023c0,0-0.253-1.461-1.16-2.739c-0.908-1.279-0.64-2.261-0.211-2.554
	c0.432-0.294,0.801-0.104,0.854,0.15C5.273,40.741,5.261,41.199,4.616,41.167z M4.571,47.135c0,0-0.261-0.314-0.675-0.204
	c-0.414,0.109-0.793,0.598-0.515,1.295c0.275,0.697,0.994,1.015,1.821,0.637c0.828-0.378,1.067-1.912-0.027-3.185
	C4.08,44.403,3.802,43.987,3.322,42.7c0,0,0.294,1.454,1.238,2.708c0.942,1.254,0.701,2.242,0.278,2.547
	c-0.422,0.307-0.796,0.124-0.856-0.127C3.923,47.577,3.924,47.118,4.571,47.135z M5.496,45.621c-0.124,0.074-0.64-0.511-1.151-1.308
	c-0.513-0.797-0.827-1.503-0.704-1.576c0.124-0.075,0.64,0.51,1.152,1.307C5.306,44.842,5.62,45.548,5.496,45.621z M4.616,51.324
	c0,0,0.248,0.318,0.667,0.22c0.417-0.099,0.809-0.577,0.55-1.279c-0.257-0.705-0.966-1.04-1.803-0.684
	c-0.838,0.354-1.118,1.883-0.06,3.185c1.058,1.301,1.326,1.727,1.768,3.023c0,0-0.253-1.462-1.16-2.74
	c-0.908-1.279-0.64-2.261-0.211-2.554c0.432-0.294,0.801-0.104,0.854,0.151C5.273,50.898,5.261,51.355,4.616,51.324z M4.571,57.292
	c0,0-0.261-0.313-0.675-0.204c-0.414,0.11-0.793,0.598-0.515,1.295c0.275,0.698,0.994,1.016,1.821,0.639
	c0.828-0.379,1.067-1.912-0.027-3.187c-1.095-1.274-1.373-1.69-1.853-2.978c0,0,0.294,1.453,1.238,2.709
	c0.942,1.254,0.701,2.24,0.278,2.547c-0.422,0.306-0.796,0.123-0.856-0.129C3.923,57.734,3.924,57.275,4.571,57.292z M5.496,55.777
	c-0.124,0.074-0.64-0.51-1.151-1.308c-0.513-0.797-0.827-1.504-0.704-1.575c0.124-0.076,0.64,0.511,1.152,1.307
	C5.306,54.999,5.62,55.706,5.496,55.777z M4.616,61.482c0,0,0.248,0.316,0.667,0.219c0.417-0.1,0.809-0.578,0.55-1.279
	c-0.257-0.705-0.966-1.04-1.803-0.684c-0.838,0.354-1.118,1.883-0.06,3.185c1.058,1.302,1.326,1.726,1.768,3.022
	c0,0-0.253-1.461-1.16-2.738c-0.908-1.279-0.64-2.262-0.211-2.555c0.432-0.295,0.801-0.104,0.854,0.149
	C5.274,61.057,5.261,61.516,4.616,61.482z M4.571,67.449c0,0-0.261-0.313-0.675-0.204c-0.414,0.11-0.793,0.599-0.515,1.296
	c0.275,0.697,0.994,1.016,1.821,0.639c0.828-0.381,1.067-1.914-0.027-3.187c-1.095-1.275-1.373-1.691-1.853-2.978
	c0,0,0.294,1.452,1.238,2.707c0.942,1.256,0.701,2.241,0.278,2.547c-0.422,0.307-0.796,0.123-0.856-0.127
	C3.923,67.893,3.924,67.434,4.571,67.449z M5.496,65.938c-0.124,0.072-0.64-0.512-1.151-1.31c-0.513-0.797-0.827-1.503-0.704-1.576
	c0.124-0.075,0.64,0.511,1.152,1.308C5.306,65.157,5.62,65.863,5.496,65.938z M4.616,71.641c0,0,0.248,0.317,0.667,0.219
	c0.417-0.099,0.809-0.577,0.55-1.279c-0.257-0.705-0.966-1.04-1.803-0.684c-0.838,0.354-1.118,1.883-0.06,3.185
	c1.058,1.301,1.326,1.726,1.768,3.022c0,0-0.253-1.461-1.16-2.738c-0.908-1.279-0.64-2.262-0.211-2.555
	c0.432-0.293,0.801-0.104,0.854,0.15C5.273,71.214,5.261,71.672,4.616,71.641z M4.571,77.607c0,0-0.261-0.314-0.675-0.205
	s-0.793,0.599-0.515,1.296c0.275,0.696,0.994,1.015,1.821,0.638c0.828-0.379,1.067-1.912-0.027-3.188
	c-1.095-1.272-1.373-1.689-1.853-2.977c0,0,0.294,1.453,1.238,2.709c0.942,1.254,0.701,2.24,0.278,2.546
	c-0.422,0.308-0.796,0.124-0.856-0.127C3.923,78.05,3.924,77.592,4.571,77.607z M5.496,76.093c-0.124,0.075-0.64-0.51-1.151-1.307
	c-0.513-0.798-0.827-1.504-0.704-1.577c0.124-0.074,0.64,0.51,1.152,1.309C5.306,75.314,5.62,76.021,5.496,76.093z M95.436,82.641
	c0,0,0.25,0.317,0.668,0.219c0.416-0.099,0.809-0.577,0.549-1.279c-0.256-0.705-0.965-1.04-1.803-0.684
	c-0.838,0.354-1.117,1.883-0.061,3.185c1.059,1.301,1.326,1.726,1.77,3.022c0,0-0.254-1.461-1.16-2.738
	c-0.908-1.279-0.642-2.262-0.211-2.555c0.432-0.293,0.801-0.104,0.854,0.15C96.094,82.214,96.081,82.672,95.436,82.641z
	 M95.393,88.607c0,0-0.262-0.314-0.676-0.205s-0.793,0.599-0.516,1.296c0.275,0.696,0.994,1.015,1.82,0.638
	c0.83-0.379,1.067-1.912-0.025-3.188c-1.096-1.272-1.373-1.689-1.854-2.977c0,0,0.293,1.453,1.238,2.709
	c0.941,1.254,0.7,2.24,0.277,2.546c-0.422,0.308-0.797,0.124-0.856-0.127C94.743,89.05,94.744,88.592,95.393,88.607z M96.314,87.093
	c-0.123,0.075-0.64-0.51-1.149-1.307c-0.513-0.798-0.828-1.504-0.704-1.577c0.124-0.074,0.641,0.51,1.152,1.309
	C96.126,86.314,96.439,87.021,96.314,87.093z M4.616,82.641c0,0,0.248,0.317,0.667,0.219c0.417-0.099,0.809-0.577,0.55-1.279
	c-0.257-0.705-0.966-1.04-1.803-0.684c-0.838,0.354-1.118,1.883-0.06,3.185c1.058,1.301,1.326,1.726,1.768,3.022
	c0,0-0.253-1.461-1.16-2.738c-0.908-1.279-0.64-2.262-0.211-2.555c0.432-0.293,0.801-0.104,0.854,0.15
	C5.273,82.214,5.261,82.672,4.616,82.641z M4.571,88.607c0,0-0.261-0.314-0.675-0.205s-0.793,0.599-0.515,1.296
	c0.275,0.696,0.994,1.015,1.821,0.638c0.828-0.379,1.067-1.912-0.027-3.188c-1.095-1.272-1.373-1.689-1.853-2.977
	c0,0,0.294,1.453,1.238,2.709c0.942,1.254,0.701,2.24,0.278,2.546c-0.422,0.308-0.796,0.124-0.856-0.127
	C3.923,89.05,3.924,88.592,4.571,88.607z M5.496,87.093c-0.124,0.075-0.64-0.51-1.151-1.307c-0.513-0.798-0.827-1.504-0.704-1.577
	c0.124-0.074,0.64,0.51,1.152,1.309C5.306,86.314,5.62,87.021,5.496,87.093z"/>
</svg>
