<?xml version="1.0" encoding="utf-8"?>
<!-- Generator: Adobe Illustrator 16.0.0, SVG Export Plug-In . SVG Version: 6.00 Build 0)  -->
<!DOCTYPE svg PUBLIC "-//W3C//DTD SVG 1.1//EN" "http://www.w3.org/Graphics/SVG/1.1/DTD/svg11.dtd">
<svg version="1.1" id="Layer_1" xmlns="http://www.w3.org/2000/svg" xmlns:xlink="http://www.w3.org/1999/xlink" x="0px" y="0px"
	 width="22.114px" height="19.096px" viewBox="4.998 6.454 22.114 19.096" enable-background="new 4.998 6.454 22.114 19.096"
	 xml:space="preserve">
<path d="M4.998,12.127v7.896h4.495l6.729,5.526l0.004-18.948l-6.729,5.526H4.998z M18.806,11.219
	c-0.393-0.389-1.023-0.389-1.414,0.002s-0.391,1.023,0.002,1.416v-0.002c0.862,0.863,1.395,2.049,1.395,3.365
	s-0.531,2.498-1.393,3.361c-0.395,0.389-0.395,1.021-0.002,1.415c0.194,0.195,0.45,0.293,0.707,0.293
	c0.256,0,0.512-0.098,0.707-0.293c1.223-1.22,1.98-2.915,1.979-4.776C20.788,14.135,20.026,12.439,18.806,11.219z M21.101,8.925
	c-0.393-0.391-1.023-0.391-1.412,0c-0.393,0.391-0.393,1.025,0,1.414c1.449,1.451,2.344,3.447,2.344,5.662
	c0,2.211-0.895,4.207-2.342,5.658c-0.393,0.391-0.393,1.023,0,1.414c0.194,0.195,0.451,0.293,0.707,0.293s0.513-0.098,0.707-0.293
	c1.809-1.809,2.93-4.314,2.928-7.072C24.033,13.241,22.912,10.732,21.101,8.925z M23.28,6.746c-0.393-0.391-1.025-0.389-1.414,0.002
	c-0.391,0.389-0.391,1.023,0.002,1.413h-0.002c2.009,2.009,3.248,4.773,3.248,7.839c0,3.063-1.239,5.828-3.246,7.838
	c-0.391,0.39-0.391,1.022,0.002,1.414c0.193,0.195,0.449,0.291,0.706,0.291c0.256,0,0.513-0.098,0.708-0.293
	c2.363-2.365,3.831-5.643,3.828-9.25C27.115,12.389,25.647,9.111,23.28,6.746z"/>
</svg>
