<svg xmlns="http://www.w3.org/2000/svg" width="187" height="243" x="0" y="0" id="svgcontent" viewBox="0 0 187 243" overflow="hidden"><g mask="" style="pointer-events:all"><title style="pointer-events:inherit">Layer 1</title><g id="svg_1" type="text" text="Friends@##@#@  Forever" font-size="13.262411586723807" font-family="Kroftsmann" font-id="1" fill="000000" text-anchor="start" font-weight="normal" font-style="normal" lineHeight="1" shapeId="0" shapeVal="0" fill-opacity="1" display="null" elemBBoxWidth="165.49942016601562" elemBBoxHeight="81.8351821899414" xscale="3.3105230871211084" yscale="3.3105242111906534" stroke-opacity="1" stroke-width="0" stroke-dasharray="none" stroke="ull" transform=""><path id="svg_14" fill="#000000" stroke="#ull" stroke-width="0" d="M17.95471738012219,94.88758279236305 C17.95471738012219,94.88758279236305 26.613861411602855,94.88758279236305 26.613861411602855,94.88758279236305 C26.613861411602855,94.88758279236305 26.613861411602855,88.66763202295414 26.613861411602855,88.66763202295414 C26.613861411602855,88.66763202295414 17.95471738012219,88.66763202295414 17.95471738012219,88.66763202295414 C17.95471738012219,88.66763202295414 17.95471738012219,82.44768125354528 17.95471738012219,82.44768125354528 C17.95471738012219,82.44768125354528 26.613861411602855,82.44768125354528 26.613861411602855,82.44768125354528 C26.613861411602855,82.44768125354528 26.613861411602855,76.22773048413637 26.613861411602855,76.22773048413637 C26.613861411602855,76.22773048413637 11.124969975010686,76.22773048413637 11.124969975010686,76.22773048413637 C11.124969975010686,76.22773048413637 11.124969975010686,105.49808704606056 11.124969975010686,105.49808704606056 C11.124969975010686,105.49808704606056 17.95471738012219,105.49808704606056 17.95471738012219,105.49808704606056 C17.95471738012219,105.49808704606056 17.95471738012219,94.88758279236305 17.95471738012219,94.88758279236305 C17.95471738012219,94.88758279236305 17.95471738012219,94.88758279236305 17.95471738012219,94.88758279236305 M42.956471273833955,94.27778369732295 C42.956471273833955,94.27778369732295 46.737224301663545,90.61898912708244 46.737224301663545,90.61898912708244 C46.737224301663545,90.61898912708244 46.737224301663545,81.22808306346508 46.737224301663545,81.22808306346508 C46.737224301663545,81.22808306346508 42.956471273833955,76.22773048413637 42.956471273833955,76.22773048413637 C42.956471273833955,76.22773048413637 28.077378712698177,76.22773048413637 28.077378712698177,76.22773048413637 C28.077378712698177,76.22773048413637 28.077378712698177,105.49808704606056 28.077378712698177,105.49808704606056 C28.077378712698177,105.49808704606056 34.90712611780968,105.49808704606056 34.90712611780968,105.49808704606056 C34.90712611780968,105.49808704606056 34.90712611780968,96.10718098244325 34.90712611780968,96.10718098244325 C34.90712611780968,96.10718098244325 36.12672386872245,96.10718098244325 36.12672386872245,96.10718098244325 C36.12672386872245,96.10718098244325 41.12707464746481,105.49808704606056 41.12707464746481,105.49808704606056 C41.12707464746481,105.49808704606056 49.17641980348908,105.49808704606056 49.17641980348908,105.49808704606056 C49.17641980348908,105.49808704606056 42.956471273833955,94.27778369732295 42.956471273833955,94.27778369732295 M39.17571824600438,89.3993909370023 C39.17571824600438,89.3993909370023 34.90712611780968,89.3993909370023 34.90712611780968,89.3993909370023 C34.90712611780968,89.3993909370023 34.90712611780968,82.44768125354528 34.90712611780968,82.44768125354528 C34.90712611780968,82.44768125354528 39.17571824600438,82.44768125354528 39.17571824600438,82.44768125354528 C39.17571824600438,82.44768125354528 39.17571824600438,89.3993909370023 39.17571824600438,89.3993909370023 C39.17571824600438,89.3993909370023 39.17571824600438,89.3993909370023 39.17571824600438,89.3993909370023 M50.639937104584405,76.22773048413637 C50.639937104584405,76.22773048413637 50.639937104584405,83.05748034858533 50.639937104584405,83.05748034858533 C50.639937104584405,83.05748034858533 53.07913260640994,83.05748034858533 53.07913260640994,83.05748034858533 C53.07913260640994,83.05748034858533 53.07913260640994,98.6683371816116 53.07913260640994,98.6683371816116 C53.07913260640994,98.6683371816116 50.639937104584405,98.6683371816116 50.639937104584405,98.6683371816116 C50.639937104584405,98.6683371816116 50.639937104584405,105.49808704606056 50.639937104584405,105.49808704606056 C50.639937104584405,105.49808704606056 62.348075513346984,105.49808704606056 62.348075513346984,105.49808704606056 C62.348075513346984,105.49808704606056 62.348075513346984,98.6683371816116 62.348075513346984,98.6683371816116 C62.348075513346984,98.6683371816116 59.90888001152145,98.6683371816116 59.90888001152145,98.6683371816116 C59.90888001152145,98.6683371816116 59.90888001152145,83.05748034858533 59.90888001152145,83.05748034858533 C59.90888001152145,83.05748034858533 62.348075513346984,83.05748034858533 62.348075513346984,83.05748034858533 C62.348075513346984,83.05748034858533 62.348075513346984,76.22773048413637 62.348075513346984,76.22773048413637 C62.348075513346984,76.22773048413637 50.639937104584405,76.22773048413637 50.639937104584405,76.22773048413637 C50.639937104584405,76.22773048413637 50.639937104584405,76.22773048413637 50.639937104584405,76.22773048413637 M63.81159281444232,76.22773048413637 C63.81159281444232,76.22773048413637 79.3004842510345,76.22773048413637 79.3004842510345,76.22773048413637 C79.3004842510345,76.22773048413637 78.32480605030429,82.56964107255328 78.32480605030429,82.56964107255328 C78.32480605030429,82.56964107255328 70.64134021955383,82.56964107255328 70.64134021955383,82.56964107255328 C70.64134021955383,82.56964107255328 70.64134021955383,86.83823473783389 70.64134021955383,86.83823473783389 C70.64134021955383,86.83823473783389 79.3004842510345,86.83823473783389 79.3004842510345,86.83823473783389 C79.3004842510345,86.83823473783389 78.32480605030429,93.0581855072428 78.32480605030429,93.0581855072428 C78.32480605030429,93.0581855072428 70.64134021955383,93.0581855072428 70.64134021955383,93.0581855072428 C70.64134021955383,93.0581855072428 70.64134021955383,99.27813627665171 70.64134021955383,99.27813627665171 C70.64134021955383,99.27813627665171 79.3004842510345,99.27813627665171 79.3004842510345,99.27813627665171 C79.3004842510345,99.27813627665171 78.32480605030429,105.49808704606056 78.32480605030429,105.49808704606056 C78.32480605030429,105.49808704606056 63.81159281444232,105.49808704606056 63.81159281444232,105.49808704606056 C63.81159281444232,105.49808704606056 63.81159281444232,76.22773048413637 63.81159281444232,76.22773048413637 C63.81159281444232,76.22773048413637 63.81159281444232,76.22773048413637 63.81159281444232,76.22773048413637 M80.7640015521298,105.49808704606056 C80.7640015521298,105.49808704606056 80.7640015521298,76.22773048413637 80.7640015521298,76.22773048413637 C80.7640015521298,76.22773048413637 87.5937489572413,76.22773048413637 87.5937489572413,76.22773048413637 C87.5937489572413,76.22773048413637 93.81369748689644,88.05783292791409 93.81369748689644,88.05783292791409 C93.81369748689644,88.05783292791409 93.81369748689644,76.22773048413637 93.81369748689644,76.22773048413637 C93.81369748689644,76.22773048413637 101.3752035425556,76.22773048413637 101.3752035425556,76.22773048413637 C101.3752035425556,76.22773048413637 101.3752035425556,105.49808704606056 101.3752035425556,105.49808704606056 C101.3752035425556,105.49808704606056 93.81369748689644,105.49808704606056 93.81369748689644,105.49808704606056 C93.81369748689644,105.49808704606056 87.5937489572413,93.0581855072428 87.5937489572413,93.0581855072428 C87.5937489572413,93.0581855072428 87.5937489572413,105.49808704606056 87.5937489572413,105.49808704606056 C87.5937489572413,105.49808704606056 80.7640015521298,105.49808704606056 80.7640015521298,105.49808704606056 C80.7640015521298,105.49808704606056 80.7640015521298,105.49808704606056 80.7640015521298,105.49808704606056 M121.37660665752503,81.22808306346508 C121.37660665752503,81.22808306346508 117.59585362969545,76.22773048413637 117.59585362969545,76.22773048413637 C117.59585362969545,76.22773048413637 102.71676106855966,76.22773048413637 102.71676106855966,76.22773048413637 C102.71676106855966,76.22773048413637 102.71676106855966,105.49808704606056 102.71676106855966,105.49808704606056 C102.71676106855966,105.49808704606056 117.59585362969545,105.49808704606056 117.59585362969545,105.49808704606056 C117.59585362969545,105.49808704606056 121.37660665752503,99.88793537169175 121.37660665752503,99.88793537169175 C121.37660665752503,99.88793537169175 121.37660665752503,81.22808306346508 121.37660665752503,81.22808306346508 C121.37660665752503,81.22808306346508 121.37660665752503,81.22808306346508 121.37660665752503,81.22808306346508 M113.81510060186582,82.44768125354528 C113.81510060186582,82.44768125354528 113.81510060186582,98.6683371816116 113.81510060186582,98.6683371816116 C113.81510060186582,98.6683371816116 109.54650847367117,98.6683371816116 109.54650847367117,98.6683371816116 C109.54650847367117,98.6683371816116 109.54650847367117,82.44768125354528 109.54650847367117,82.44768125354528 C109.54650847367117,82.44768125354528 113.81510060186582,82.44768125354528 113.81510060186582,82.44768125354528 C113.81510060186582,82.44768125354528 113.81510060186582,82.44768125354528 113.81510060186582,82.44768125354528 M139.06077404576018,88.66763202295414 C139.06077404576018,88.66763202295414 130.8894691146446,86.22843564279384 130.8894691146446,86.22843564279384 C130.8894691146446,86.22843564279384 131.9871070904661,83.66727944362543 131.9871070904661,83.66727944362543 C131.9871070904661,83.66727944362543 143.32936617395487,83.66727944362543 143.32936617395487,83.66727944362543 C143.32936617395487,83.66727944362543 141.25604999740315,76.22773048413637 141.25604999740315,76.22773048413637 C141.25604999740315,76.22773048413637 127.10871608681504,76.22773048413637 127.10871608681504,76.22773048413637 C127.10871608681504,76.22773048413637 122.84012395862032,86.22843564279384 122.84012395862032,86.22843564279384 C122.84012395862032,86.22843564279384 127.10871608681504,93.0581855072428 127.10871608681504,93.0581855072428 C127.10871608681504,93.0581855072428 135.28002101793058,95.49738188740315 135.28002101793058,95.49738188740315 C135.28002101793058,95.49738188740315 134.18238304210908,98.0585380865715 134.18238304210908,98.0585380865715 C134.18238304210908,98.0585380865715 122.84012395862032,98.0585380865715 122.84012395862032,98.0585380865715 C122.84012395862032,98.0585380865715 124.91344013517204,105.49808704606056 124.91344013517204,105.49808704606056 C124.91344013517204,105.49808704606056 139.06077404576018,105.49808704606056 139.06077404576018,105.49808704606056 C139.06077404576018,105.49808704606056 143.32936617395487,95.49738188740315 143.32936617395487,95.49738188740315 C143.32936617395487,95.49738188740315 139.06077404576018,88.66763202295414 139.06077404576018,88.66763202295414 " transform=""/><path id="svg_15" fill="#000000" stroke="#ull" stroke-width="0" d="M48.68858070312396,147.4524093299088 C48.68858070312396,147.4524093299088 57.34772473460464,147.4524093299088 57.34772473460464,147.4524093299088 C57.34772473460464,147.4524093299088 57.34772473460464,141.23245856049988 57.34772473460464,141.23245856049988 C57.34772473460464,141.23245856049988 48.68858070312396,141.23245856049988 48.68858070312396,141.23245856049988 C48.68858070312396,141.23245856049988 48.68858070312396,135.01250779109102 48.68858070312396,135.01250779109102 C48.68858070312396,135.01250779109102 57.34772473460464,135.01250779109102 57.34772473460464,135.01250779109102 C57.34772473460464,135.01250779109102 57.34772473460464,128.79255702168211 57.34772473460464,128.79255702168211 C57.34772473460464,128.79255702168211 41.858833298012456,128.79255702168211 41.858833298012456,128.79255702168211 C41.858833298012456,128.79255702168211 41.858833298012456,158.0629135836063 41.858833298012456,158.0629135836063 C41.858833298012456,158.0629135836063 48.68858070312396,158.0629135836063 48.68858070312396,158.0629135836063 C48.68858070312396,158.0629135836063 48.68858070312396,147.4524093299088 48.68858070312396,147.4524093299088 C48.68858070312396,147.4524093299088 48.68858070312396,147.4524093299088 48.68858070312396,147.4524093299088 M58.81124203569996,134.40270869605092 C58.81124203569996,134.40270869605092 62.59199506352954,128.79255702168211 62.59199506352954,128.79255702168211 C62.59199506352954,128.79255702168211 73.69033459683573,128.79255702168211 73.69033459683573,128.79255702168211 C73.69033459683573,128.79255702168211 77.47108762466533,133.79290960101082 77.47108762466533,133.79290960101082 C77.47108762466533,133.79290960101082 77.47108762466533,152.4527619092375 77.47108762466533,152.4527619092375 C77.47108762466533,152.4527619092375 73.69033459683573,158.0629135836063 73.69033459683573,158.0629135836063 C73.69033459683573,158.0629135836063 62.59199506352954,158.0629135836063 62.59199506352954,158.0629135836063 C62.59199506352954,158.0629135836063 58.81124203569996,153.0625610042776 58.81124203569996,153.0625610042776 C58.81124203569996,153.0625610042776 58.81124203569996,134.40270869605092 58.81124203569996,134.40270869605092 C58.81124203569996,134.40270869605092 58.81124203569996,134.40270869605092 58.81124203569996,134.40270869605092 M69.90958156900615,151.23316371915735 C69.90958156900615,151.23316371915735 69.90958156900615,135.62230688613107 69.90958156900615,135.62230688613107 C69.90958156900615,135.62230688613107 65.64098944081147,135.62230688613107 65.64098944081147,135.62230688613107 C65.64098944081147,135.62230688613107 65.64098944081147,151.23316371915735 65.64098944081147,151.23316371915735 C65.64098944081147,151.23316371915735 69.90958156900615,151.23316371915735 69.90958156900615,151.23316371915735 C69.90958156900615,151.23316371915735 69.90958156900615,151.23316371915735 69.90958156900615,151.23316371915735 M93.81369748689644,146.8426102348687 C93.81369748689644,146.8426102348687 97.59445051472605,143.18381566462818 97.59445051472605,143.18381566462818 C97.59445051472605,143.18381566462818 97.59445051472605,133.79290960101082 97.59445051472605,133.79290960101082 C97.59445051472605,133.79290960101082 93.81369748689644,128.79255702168211 93.81369748689644,128.79255702168211 C93.81369748689644,128.79255702168211 78.93460492576065,128.79255702168211 78.93460492576065,128.79255702168211 C78.93460492576065,128.79255702168211 78.93460492576065,158.0629135836063 78.93460492576065,158.0629135836063 C78.93460492576065,158.0629135836063 85.76435233087219,158.0629135836063 85.76435233087219,158.0629135836063 C85.76435233087219,158.0629135836063 85.76435233087219,148.672007519989 85.76435233087219,148.672007519989 C85.76435233087219,148.672007519989 86.98395008178494,148.672007519989 86.98395008178494,148.672007519989 C86.98395008178494,148.672007519989 91.9843008605273,158.0629135836063 91.9843008605273,158.0629135836063 C91.9843008605273,158.0629135836063 100.03364601655159,158.0629135836063 100.03364601655159,158.0629135836063 C100.03364601655159,158.0629135836063 93.81369748689644,146.8426102348687 93.81369748689644,146.8426102348687 M90.03294445906687,141.96421747454804 C90.03294445906687,141.96421747454804 85.76435233087219,141.96421747454804 85.76435233087219,141.96421747454804 C85.76435233087219,141.96421747454804 85.76435233087219,135.01250779109102 85.76435233087219,135.01250779109102 C85.76435233087219,135.01250779109102 90.03294445906687,135.01250779109102 90.03294445906687,135.01250779109102 C90.03294445906687,135.01250779109102 90.03294445906687,141.96421747454804 90.03294445906687,141.96421747454804 C90.03294445906687,141.96421747454804 90.03294445906687,141.96421747454804 90.03294445906687,141.96421747454804 M101.49716331764688,128.79255702168211 C101.49716331764688,128.79255702168211 116.98605475423903,128.79255702168211 116.98605475423903,128.79255702168211 C116.98605475423903,128.79255702168211 116.01037655350882,135.13446761009902 116.01037655350882,135.13446761009902 C116.01037655350882,135.13446761009902 108.32691072275841,135.13446761009902 108.32691072275841,135.13446761009902 C108.32691072275841,135.13446761009902 108.32691072275841,139.40306127537963 108.32691072275841,139.40306127537963 C108.32691072275841,139.40306127537963 116.98605475423903,139.40306127537963 116.98605475423903,139.40306127537963 C116.98605475423903,139.40306127537963 116.01037655350882,145.62301204478854 116.01037655350882,145.62301204478854 C116.01037655350882,145.62301204478854 108.32691072275841,145.62301204478854 108.32691072275841,145.62301204478854 C108.32691072275841,145.62301204478854 108.32691072275841,151.84296281419745 108.32691072275841,151.84296281419745 C108.32691072275841,151.84296281419745 116.98605475423903,151.84296281419745 116.98605475423903,151.84296281419745 C116.98605475423903,151.84296281419745 116.01037655350882,158.0629135836063 116.01037655350882,158.0629135836063 C116.01037655350882,158.0629135836063 101.49716331764688,158.0629135836063 101.49716331764688,158.0629135836063 C101.49716331764688,158.0629135836063 101.49716331764688,128.79255702168211 101.49716331764688,128.79255702168211 C101.49716331764688,128.79255702168211 101.49716331764688,128.79255702168211 101.49716331764688,128.79255702168211 M130.27967023918825,128.79255702168211 C130.27967023918825,128.79255702168211 137.10941764429975,128.79255702168211 137.10941764429975,128.79255702168211 C137.10941764429975,128.79255702168211 133.32866461647015,158.0629135836063 133.32866461647015,158.0629135836063 C133.32866461647015,158.0629135836063 122.23032508316396,158.0629135836063 122.23032508316396,158.0629135836063 C122.23032508316396,158.0629135836063 118.44957205533436,128.79255702168211 118.44957205533436,128.79255702168211 C118.44957205533436,128.79255702168211 125.27931946044586,128.79255702168211 125.27931946044586,128.79255702168211 C125.27931946044586,128.79255702168211 127.84047473736268,151.84296281419745 127.84047473736268,151.84296281419745 C127.84047473736268,151.84296281419745 130.27967023918825,128.79255702168211 130.27967023918825,128.79255702168211 M138.57293494539508,128.79255702168211 C138.57293494539508,128.79255702168211 154.06182638198723,128.79255702168211 154.06182638198723,128.79255702168211 C154.06182638198723,128.79255702168211 153.08614818125702,135.13446761009902 153.08614818125702,135.13446761009902 C153.08614818125702,135.13446761009902 145.40268235050658,135.13446761009902 145.40268235050658,135.13446761009902 C145.40268235050658,135.13446761009902 145.40268235050658,139.40306127537963 145.40268235050658,139.40306127537963 C145.40268235050658,139.40306127537963 154.06182638198723,139.40306127537963 154.06182638198723,139.40306127537963 C154.06182638198723,139.40306127537963 153.08614818125702,145.62301204478854 153.08614818125702,145.62301204478854 C153.08614818125702,145.62301204478854 145.40268235050658,145.62301204478854 145.40268235050658,145.62301204478854 C145.40268235050658,145.62301204478854 145.40268235050658,151.84296281419745 145.40268235050658,151.84296281419745 C145.40268235050658,151.84296281419745 154.06182638198723,151.84296281419745 154.06182638198723,151.84296281419745 C154.06182638198723,151.84296281419745 153.08614818125702,158.0629135836063 153.08614818125702,158.0629135836063 C153.08614818125702,158.0629135836063 138.57293494539508,158.0629135836063 138.57293494539508,158.0629135836063 C138.57293494539508,158.0629135836063 138.57293494539508,128.79255702168211 138.57293494539508,128.79255702168211 C138.57293494539508,128.79255702168211 138.57293494539508,128.79255702168211 138.57293494539508,128.79255702168211 M170.40443624421837,146.8426102348687 C170.40443624421837,146.8426102348687 174.18518927204795,143.18381566462818 174.18518927204795,143.18381566462818 C174.18518927204795,143.18381566462818 174.18518927204795,133.79290960101082 174.18518927204795,133.79290960101082 C174.18518927204795,133.79290960101082 170.40443624421837,128.79255702168211 170.40443624421837,128.79255702168211 C170.40443624421837,128.79255702168211 155.52534368308255,128.79255702168211 155.52534368308255,128.79255702168211 C155.52534368308255,128.79255702168211 155.52534368308255,158.0629135836063 155.52534368308255,158.0629135836063 C155.52534368308255,158.0629135836063 162.3550910881941,158.0629135836063 162.3550910881941,158.0629135836063 C162.3550910881941,158.0629135836063 162.3550910881941,148.672007519989 162.3550910881941,148.672007519989 C162.3550910881941,148.672007519989 163.57468883910687,148.672007519989 163.57468883910687,148.672007519989 C163.57468883910687,148.672007519989 168.5750396178492,158.0629135836063 168.5750396178492,158.0629135836063 C168.5750396178492,158.0629135836063 176.6243847738735,158.0629135836063 176.6243847738735,158.0629135836063 C176.6243847738735,158.0629135836063 170.40443624421837,146.8426102348687 170.40443624421837,146.8426102348687 M166.62368321638877,141.96421747454804 C166.62368321638877,141.96421747454804 162.3550910881941,141.96421747454804 162.3550910881941,141.96421747454804 C162.3550910881941,141.96421747454804 162.3550910881941,135.01250779109102 162.3550910881941,135.01250779109102 C162.3550910881941,135.01250779109102 166.62368321638877,135.01250779109102 166.62368321638877,135.01250779109102 C166.62368321638877,135.01250779109102 166.62368321638877,141.96421747454804 166.62368321638877,141.96421747454804 C166.62368321638877,141.96421747454804 166.62368321638877,141.96421747454804 166.62368321638877,141.96421747454804 " transform=""/><rect id="svg_16" x="11.124970436096191" y="76.22772979736328" width="132.2043914794922" height="29.270355224609375" fill="#000000" opacity="0"/><rect id="svg_17" x="41.85883331298828" y="128.7925567626953" width="134.76556396484375" height="29.270355224609375" fill="#000000" opacity="0"/></g></g></svg>