<?xml version="1.0" encoding="utf-8"?>
<!-- Generator: Adobe Illustrator 16.0.0, SVG Export Plug-In . SVG Version: 6.00 Build 0)  -->
<!DOCTYPE svg PUBLIC "-//W3C//DTD SVG 1.1//EN" "http://www.w3.org/Graphics/SVG/1.1/DTD/svg11.dtd">
<svg version="1.1" id="Layer_1" xmlns="http://www.w3.org/2000/svg" xmlns:xlink="http://www.w3.org/1999/xlink" x="0px" y="0px"
	 width="100px" height="100px" viewBox="0 0 100 100" enable-background="new 0 0 100 100" xml:space="preserve">
<path fill="#010101" d="M50,2.386c-26.268,0-47.562,21.318-47.562,47.615c0,26.296,21.294,47.612,47.562,47.612
	c26.268,0,47.563-21.316,47.563-47.612C97.563,23.704,76.268,2.386,50,2.386z M74.668,59.453
	c-13.516,2.861-24.173-3.383-24.173-3.383s-0.519,2.861,10.917,14.57c8.342,8.541,16.664,9.321,20.566,9.125
	c-0.563,0.602-1.103,1.225-1.695,1.797c-3.494-0.166-11.295-1.23-19.391-7.021c-9.183-6.565-14.557-21.076-14.557-21.076
	s-3.19,1.955-3.639,14.313c-0.45,12.385,7.656,23.195,9.849,25.883c-0.764,0.045-1.517,0.125-2.287,0.131
	c-1.66-2.674-7.146-11.896-9.122-20.029c-2.339-9.627,3.899-23.679,3.899-23.679s-10.657,4.945-17.154,11.97
	c-5.511,5.957-7.651,16.381-8.176,19.416c-0.602-0.582-1.224-1.141-1.792-1.754c0.671-3.066,3.497-14.344,9.967-21.045
	c7.315-7.576,20.013-12.49,20.013-12.49s-7.797-3.902-22.093-3.643c-9.909,0.182-16.439,5.232-19.518,8.318
	C6.278,50.57,6.24,50.291,6.24,50.001c0-0.374,0.047-0.734,0.056-1.104c2.876-2.35,8.986-6.178,19.766-7.917
	c16.114-2.603,25.471,4.163,25.471,4.163s1.299-5.985-10.657-16.133c-7.932-6.731-18.146-8.641-22.528-9.168
	c0.334-0.351,0.64-0.728,0.985-1.067c4.905,0.541,17.448,2.816,26.481,12.317c8.904,9.365,8.579,16.914,8.579,16.914
	s7.248-11.114,4.418-22.638c-2.802-11.399-5.459-16.875-6.74-19.065c0.772,0.038,1.557,0.041,2.318,0.118
	c1.987,4.883,7.1,18.17,6.762,24.933c-0.521,10.407-5.719,20.814-5.719,20.814s12.428-1.741,20.014-17.172
	c3.924-7.983,5.621-12.495,6.338-15.038c0.629,0.668,1.209,1.382,1.797,2.088c-0.973,2.737-3.141,8.152-7.615,16.593
	c-6.758,12.748-21.832,16.912-21.832,16.912s5.197,3.643,19.492,2.082c9.891-1.08,16.789-4.896,20.104-7.148
	c-0.021,0.695-0.065,1.383-0.104,2.072C90.369,54.373,83.84,57.51,74.668,59.453z"/>
</svg>
