<?xml version="1.0" encoding="utf-8"?>
<!-- Generator: Adobe Illustrator 16.0.0, SVG Export Plug-In . SVG Version: 6.00 Build 0)  -->
<!DOCTYPE svg PUBLIC "-//W3C//DTD SVG 1.1//EN" "http://www.w3.org/Graphics/SVG/1.1/DTD/svg11.dtd">
<svg version="1.1"
	 id="svg2982" xmlns:dc="http://purl.org/dc/elements/1.1/" xmlns:svg="http://www.w3.org/2000/svg" xmlns:cc="http://creativecommons.org/ns#" xmlns:rdf="http://www.w3.org/1999/02/22-rdf-syntax-ns#" xmlns:inkscape="http://www.inkscape.org/namespaces/inkscape" xmlns:sodipodi="http://sodipodi.sourceforge.net/DTD/sodipodi-0.dtd" sodipodi:docname="Strongman sport pictogram.png" inkscape:version="0.48.0 r9654"
	 xmlns="http://www.w3.org/2000/svg" xmlns:xlink="http://www.w3.org/1999/xlink" x="0px" y="0px" width="300px" height="300px"
	 viewBox="0 0 300 300" enable-background="new 0 0 300 300" xml:space="preserve">
<path fill-rule="evenodd" clip-rule="evenodd" d="M137.002,132.606c-1.861-2.226-3.302-3.631-4.365-5.28
	c-3.249-5.04-0.91-11.228,5.573-12.621c5.436-1.168,11.215-0.795,16.846-0.97c2.438-0.075,4.885,0.189,6.43,0.259
	c0-8.899-1.227-17.508,0.218-25.643c5.476-30.826,38.835-44.947,62.425-26.842c10.355,7.948,15.721,18.809,17.141,31.618
	c2.269,20.471-8.736,39.878-27.696,47.412c-6.532,2.596-13.905,3.214-20.958,4.338c-17.918,2.857-35.842,5.73-53.832,8.071
	c-5.676,0.739-11.646,0.336-17.343-0.497c-5.981-0.875-10.894-6.794-10.359-11.095c0.627-5.047,5.364-8.467,12.346-8.759
	c2.993-0.126,5.996-0.001,8.995,0.008C133.72,132.61,135.017,132.606,137.002,132.606z M178.346,135.315
	c-5.111-5.182-9.845-1.441-14.371-1.009C168.453,134.621,172.933,134.936,178.346,135.315z M47.126,291.395
	c1.029-0.716,2.131-1.348,3.076-2.161c6.437-5.535,12.935-11.004,19.236-16.69c19.633-17.72,39.605-35.097,58.563-53.515
	c7.51-7.296,12.94-16.82,18.837-25.65c2.715-4.064,2.909-9.037-0.475-13.067c-3.242-3.86-7.899-3.643-11.959-1.853
	c-3.841,1.694-7.613,4.053-10.653,6.926c-3.719,3.516-6.829,7.735-9.882,11.887c-21.19,28.811-42.308,57.674-63.41,86.55
	c-1.549,2.119-2.787,4.465-4.169,6.705C46.569,290.815,46.847,291.104,47.126,291.395z M251.186,288.587
	c-0.419-0.863-0.74-1.792-1.271-2.581c-13.814-20.553-27.615-41.116-41.497-61.625c-11.255-16.629-24.78-31.18-40.403-43.802
	c-3.349-2.705-6.802-4.404-10.879-1.885c-4.086,2.524-4.774,6.655-4.203,10.954c0.876,6.591,3.506,12.543,8.266,17.215
	c11.238,11.032,22.531,22.019,34.047,32.759c16.063,14.981,32.337,29.736,48.558,44.547c2.054,1.876,4.335,3.503,6.511,5.246
	C250.604,289.139,250.895,288.863,251.186,288.587z M90.286,88.012c-0.091,11.936,10.192,21.895,22.563,21.851
	c11.923-0.043,22.19-10.225,22.051-21.868c-0.142-11.92-10.1-21.513-22.303-21.488C100.309,66.531,90.376,76.105,90.286,88.012z
	 M163.975,134.307c4.479,0.314,8.958,0.629,14.371,1.009C173.234,130.134,168.501,133.874,163.975,134.307z"/>
</svg>
