<?xml version="1.0" encoding="utf-8"?>
<!-- Generator: Adobe Illustrator 16.0.0, SVG Export Plug-In . SVG Version: 6.00 Build 0)  -->
<!DOCTYPE svg PUBLIC "-//W3C//DTD SVG 1.1//EN" "http://www.w3.org/Graphics/SVG/1.1/DTD/svg11.dtd">
<svg version="1.1" id="Layer_1" xmlns="http://www.w3.org/2000/svg" xmlns:xlink="http://www.w3.org/1999/xlink" x="0px" y="0px"
	 width="100px" height="100px" viewBox="0 0 100 100" enable-background="new 0 0 100 100" xml:space="preserve">
<g>
	<path fill="#010101" d="M96.133,46.904c1.891,0.185,2.93,1.223,3.113,3.114c-0.184,1.891-1.223,2.917-3.113,3.078
		c-0.416,0-0.82-0.08-1.211-0.242c-1.568,4.729-4.912,7.254-10.033,7.578c-2.397-0.047-4.498-0.75-6.297-2.111
		c-2.951,4.773-7.287,7.139-13.006,7.093c-6.734-0.738-10.83-1.313-12.281-1.729c-1.432-0.393-2.537,0.911-3.322,3.909
		c-0.761-2.998-1.868-4.302-3.321-3.909c-1.453,0.416-5.535,0.991-12.247,1.729c-5.72,0.046-10.056-2.318-13.007-7.093
		c-1.799,1.385-3.909,2.089-6.331,2.111c-5.097-0.324-8.441-2.85-10.032-7.578c-0.37,0.162-0.761,0.242-1.176,0.242
		c-1.892-0.16-2.929-1.188-3.114-3.078c0.185-1.891,1.222-2.929,3.114-3.114c0.415,0,0.807,0.081,1.176,0.242
		c1.591-4.705,4.936-7.23,10.032-7.576c2.422,0.046,4.532,0.761,6.331,2.145c2.952-4.774,7.288-7.138,13.007-7.092
		c6.711,0.738,10.793,1.303,12.247,1.695s2.56-0.911,3.321-3.909c0.785,2.999,1.89,4.301,3.322,3.909
		c1.451-0.392,5.547-0.957,12.281-1.695c5.719-0.046,10.055,2.317,13.006,7.092c1.799-1.384,3.898-2.099,6.297-2.145
		c5.121,0.346,8.465,2.872,10.033,7.576C95.289,46.985,95.693,46.904,96.133,46.904"/>
</g>
</svg>
