<svg xmlns="http://www.w3.org/2000/svg" width="211" height="291" id="svgcontent" overflow="hidden" x="0" y="0" viewBox="0 0 211 291"><g style="pointer-events:all" mask=""><title style="pointer-events:inherit">Layer 1</title><g display="null" id="svg_36" style="pointer-events:inherit" clip-id="228"><path id="svg_37" d="M62.30649,179.24257C62.64142,174.88616 62.05325,173.23367 60.83607,172.89758C59.68191,172.57315 58.28267,173.69932 57.73535,178.09773C57.17402,182.55102 59.75309,186.88524 59.7671,186.8549C59.79277,186.86775 62.04158,183.61531 62.30649,179.24255L62.30649,179.24257zM49.88027,192.40166C54.2997,192.08658 56.69205,189.27994 56.69205,189.32546C56.69205,189.32546 52.48852,187.71732 48.14728,187.72899C43.79437,187.74533 42.48149,188.63342 42.96347,190.03848C43.39759,191.38754 45.47018,192.66307 49.88027,192.40165L49.88027,192.40166zM73.02188,187.36139C72.59593,182.83226 71.71368,181.24164 70.41714,181.11676C69.18595,180.98607 67.94894,182.38412 68.14616,186.99612C68.32938,191.6396 71.72535,195.64242 71.72535,195.59689C71.76271,195.61439 73.49686,191.87533 73.02189,187.36137L73.02188,187.36139zM60.04951,197.78269C54.99757,198.67545 53.64502,199.94283 54.46542,201.50661C55.25081,202.97237 57.90456,204.04601 62.97868,202.87667C68.05747,201.64315 70.29694,197.89359 70.31094,197.92394C70.2981,197.95661 65.09445,196.91213 60.04951,197.78272L60.04951,197.78269zM84.74557,202.14379C84.79576,202.12162 85.92308,198.02779 84.64988,193.47063C83.4502,188.90416 82.26803,187.41857 80.91547,187.50609C79.64695,187.58661 78.61415,189.23093 79.58742,193.92226C80.58171,198.64395 84.74557,202.17295 84.74557,202.14379zM73.61122,205.97272C69.08676,207.55399 68.0563,208.95441 69.04591,210.25095C69.96901,211.48914 72.58309,212.06562 77.10755,210.22176C81.5935,208.33591 83.08376,204.53498 83.11411,204.56649C83.08725,204.57932 78.11818,204.39727 73.61122,205.97272z" fill="#71BDB6" style="pointer-events:inherit"/><path id="svg_38" d="M19.97823,123.02584C19.97823,122.94298 19.98757,122.85663 19.98757,122.7726C19.58262,122.21012 19.10648,121.66046 18.56849,121.16331C15.29506,118.21663 10.7531,117.93772 8.41209,120.5448C7.90445,121.09679 7.54034,121.74098 7.31745,122.43301C9.93269,122.80294 12.92255,123.5755 15.71985,125.16962C17.40733,126.14173 18.96294,127.18386 20.34117,128.24001C20.12061,126.60621 19.98873,124.86037 19.97823,123.02585L19.97823,123.02584zM10.35982,134.60364C10.27813,134.56047 10.20811,134.50562 10.13692,134.45894C9.43205,134.51729 8.72835,134.65851 8.01881,134.88724C3.85262,136.23862 1.3389,140.04421 2.41371,143.38883C2.64711,144.09369 3.02639,144.7262 3.52353,145.26421C5.13982,143.17295 7.31861,140.98949 10.07624,139.36968C11.76955,138.38123 13.4617,137.54799 15.05349,136.88982C13.53289,136.26313 11.9516,135.5046 10.35982,134.60366L10.35982,134.60364zM34.8073,125.56406C34.89833,125.52322 34.98001,125.49521 35.05004,125.43803C35.34412,124.81952 35.57168,124.14033 35.70822,123.42029C36.64066,119.10707 34.61358,115.03539 31.1721,114.31536C30.43805,114.1403 29.70284,114.17065 28.99797,114.31536C29.99109,116.76955 30.80216,119.73841 30.82783,122.95582C30.82783,124.91405 30.72163,126.77425 30.47773,128.49558C31.7766,127.49547 33.22602,126.49183 34.8073,125.56406zM19.20334,159.98125C19.94789,160.15163 20.6831,160.12012 21.38797,159.96607C20.39368,157.52587 19.58378,154.55352 19.55344,151.33727C19.55344,149.37787 19.66431,147.52117 19.89304,145.80103C18.60117,146.80115 17.1611,147.7826 15.57514,148.71738C15.49462,148.77106 15.40826,148.80138 15.32774,148.84342C15.04416,149.47944 14.82126,150.15397 14.64854,150.87284C13.74528,155.17438 15.77236,159.26124 19.20334,159.98127L19.20334,159.98125zM30.39837,151.26609C30.39837,151.3501 30.38321,151.42362 30.38321,151.50533C30.79515,152.083 31.25962,152.63497 31.81744,153.13213C35.09088,156.07648 39.63168,156.34487 41.97385,153.75063C42.48149,153.18581 42.82109,152.55445 43.04866,151.84493C40.43808,151.4925 37.46339,150.70711 34.67076,149.12815C32.96344,148.15372 31.4125,147.11159 30.03427,146.04961C30.256,147.68923 30.38203,149.43508 30.39837,151.26609zM40.02729,139.69178C40.10781,139.73496 40.165,139.77695 40.24086,139.81783C40.92939,139.7618 41.63892,139.63811 42.33912,139.3942C46.54499,138.04282 49.05404,134.23255 47.96406,130.90778C47.73066,130.20058 47.35605,129.57038 46.84958,129.0324C45.24378,131.11782 43.079,133.30245 40.29687,134.92693C38.61989,135.92704 36.92658,136.74628 35.31495,137.40563C36.84488,138.0288 38.43667,138.79203 40.02729,139.69178z" fill="#D22C60" style="pointer-events:inherit"/><path id="svg_39" d="M34.13394,133.36197C34.47354,134.13686 34.67076,134.94092 34.7968,135.73331C36.58581,135.19649 38.58838,134.30957 40.60496,133.12273C46.0175,129.95082 48.34333,123.88359 48.34333,123.88359S41.91784,122.96866 36.51462,126.14173C34.5529,127.28423 32.86075,128.55624 31.54203,129.80611C32.63785,130.75373 33.53994,131.93706 34.13394,133.36197zM18.66069,129.96016C17.23111,128.65079 15.35574,127.31223 13.18279,126.07288C7.59753,122.89514 1.27822,123.4728 1.27822,123.4728S4.01484,129.21211 9.6001,132.38518C11.74855,133.6012 13.85731,134.52779 15.69184,135.09378C16.11663,133.13673 17.15993,131.33255 18.66069,129.96016zM21.95046,146.28998C21.52917,148.051 21.27594,150.19594 21.28644,152.5241C21.32728,158.44547 25.17838,163.22785 25.17838,163.22785S28.9688,158.38831 28.92795,152.4681C28.91745,150.19596 28.66421,148.10004 28.21375,146.3787C26.12599,147.06841 23.92152,146.99723 21.95046,146.29L21.95046,146.28998z" fill="#EF5027" style="pointer-events:inherit"/><path id="svg_40" d="M28.74707,128.10345C29.22787,126.22575 29.50679,123.9326 29.53713,121.44454C29.53713,115.11474 25.43279,110.04177 25.43279,110.04177S21.27594,115.2431 21.24676,121.58692C21.24676,123.97342 21.5,126.1709 21.95163,128.00542C24.22028,127.18386 26.61729,127.27253 28.74707,128.10343L28.74707,128.10346L28.74707,128.10345zM16.238,140.92062C15.74085,139.77813 15.51796,138.57611 15.49345,137.39277C14.08371,137.97044 12.6203,138.69047 11.14404,139.55056C4.90526,143.21609 2.19432,150.2111 2.19432,150.2111S9.62927,151.29757 15.87273,147.63087C17.24162,146.8303 18.49848,145.96907 19.60829,145.09265C18.16938,144.08085 16.97321,142.66879 16.238,140.92062zM33.39756,142.3327L48.56156,150.80394C48.56156,150.80394 44.59377,143.58371 39.70287,140.80743C38.04106,139.85981 36.3279,139.21563 34.75245,138.84803C34.52372,140.08738 34.07793,141.26955 33.39756,142.33269L33.39756,142.3327z" fill="#F1A7C9" style="pointer-events:inherit"/><path id="svg_41" d="M70.8501,197.59015C71.28422,197.64034 71.54096,197.69751 71.54096,197.68233C71.54096,197.68233 71.49428,197.76636 71.38225,197.89589C75.44575,200.23807 79.70413,202.26865 84.09789,203.95496C84.54134,203.94564 84.80741,203.95496 84.80741,203.94564C84.80741,203.94564 84.76191,204.02965 84.69539,204.1872C92.673,207.18755 101.15242,209.07692 109.87225,209.67093L111.01706,208.25653C102.06034,207.75003 93.3802,205.85834 85.20187,202.77394C85.11434,203.09254 85.0595,203.27693 85.0595,203.27693C85.0595,203.29794 84.64053,202.94317 84.04537,202.33166C79.9317,200.71652 75.93822,198.79681 72.11512,196.59703C72.00309,196.88876 71.92374,197.06149 71.8934,197.06149C71.8934,197.07083 71.54797,196.67054 71.05666,195.97618C67.18105,193.66669 63.49916,191.0596 60.018,188.19229C59.84646,188.45953 59.73442,188.6159 59.73442,188.6159C59.73442,188.63223 59.45668,188.1806 59.08557,187.41505C49.24776,179.03834 41.18029,168.48048 35.76891,156.2725C35.04887,156.0321 34.35917,155.69482 33.67998,155.26887C41.29466,173.3457 54.55178,188.01254 70.8501,197.59013L70.8501,197.59015zM60.02034,188.19347C60.75555,187.0288 62.61224,183.5418 62.88299,179.17371C63.29143,173.77051 62.55973,171.71192 61.05897,171.2883C59.62006,170.89735 57.90456,172.29074 57.19503,177.76398C56.70372,181.6781 58.18931,185.52803 59.08557,187.41857C59.45317,188.18413 59.73442,188.63343 59.73442,188.61942C59.73676,188.62058 59.84762,188.46303 60.02034,188.19347zM57.73535,178.10007C58.28384,173.69933 59.68191,172.57666 60.83607,172.89994C62.05325,173.23368 62.64142,174.88616 62.30649,179.2461C62.04158,183.61533 59.79277,186.86777 59.7671,186.85726C59.75076,186.88758 57.17402,182.55219 57.73535,178.10009L57.73535,178.10007zM49.98063,193.0295C55.42352,192.65024 58.41454,189.18308 58.41454,189.22861C58.39237,189.23792 53.19922,187.2517 47.84269,187.26102C42.44998,187.27736 40.84769,188.36501 41.40552,190.11316C41.95751,191.77731 44.52841,193.35861 49.98063,193.0295zM48.14611,187.72899C52.48969,187.71732 56.68972,189.32546 56.68972,189.32546C56.68972,189.27994 54.29853,192.08658 49.87911,192.40166C45.47018,192.66423 43.39759,191.38755 42.96113,190.04082C42.48033,188.63343 43.7932,187.74533 48.14611,187.72899zM72.11745,196.59819C72.64962,195.31566 73.89247,191.58125 73.43967,187.22368C72.96937,181.81931 71.89573,179.91826 70.3413,179.76189C68.87437,179.62651 67.40979,181.28366 67.60701,186.78839C67.77507,190.72002 69.8675,194.26185 71.059,195.98085C71.55031,196.6752 71.89574,197.0755 71.89574,197.06616C71.92608,197.06381 72.00661,196.89227 72.11747,196.59819L72.11745,196.59819zM70.41481,181.11911C71.71252,181.24164 72.59243,182.83343 73.01838,187.3649C73.49451,191.87534 71.7627,195.61441 71.72185,195.60158C71.72185,195.6471 68.32704,191.64078 68.14383,187.00078C67.9466,182.38648 69.18362,180.98956 70.41481,181.11911zM70.8501,197.59015C69.12527,197.31706 64.39426,196.71373 59.78344,197.51779C53.97411,198.53192 52.43483,199.99066 53.3661,201.77501C54.2682,203.47766 57.30823,204.68784 63.13856,203.35046C68.15549,202.14027 70.76491,198.76414 71.38225,197.89357C71.49428,197.76636 71.54096,197.67999 71.54096,197.67999C71.54096,197.69751 71.28422,197.64033 70.8501,197.59015zM62.97985,202.87665C57.90456,204.04599 55.25081,202.97235 54.46658,201.50659C53.64501,199.94049 54.99874,198.67311 60.05184,197.78268C65.09328,196.91211 70.29693,197.95306 70.31328,197.9239C70.29811,197.89587 68.0598,201.64547 62.97985,202.87663L62.97985,202.87665zM85.06182,203.27693C85.06182,203.27693 85.11668,203.09488 85.2042,202.77394C85.51228,201.43658 86.1308,197.54813 84.94862,193.31308C83.56923,188.05225 82.21317,186.34959 80.66107,186.44995C79.19065,186.54098 78.0143,188.41753 79.11129,193.81839C79.93169,197.68233 82.56678,200.84373 84.04653,202.33167C84.6417,202.94318 85.06182,203.29795 85.06182,203.27695L85.06182,203.27693zM80.91547,187.50609C82.26803,187.41974 83.45021,188.90416 84.64988,193.47063C85.92307,198.02544 84.79575,202.12162 84.74557,202.14379C84.74557,202.17295 80.58171,198.64513 79.58744,193.92226C78.61532,189.22861 79.64695,187.58661 80.91547,187.50609zM84.09788,203.95496C82.32289,203.9713 77.56035,204.1592 73.13275,205.6868C67.5755,207.62285 66.30814,209.34766 67.52531,210.9383C68.68064,212.47292 71.8759,213.17893 77.41915,210.90914C82.18867,208.89138 84.20174,205.15581 84.6954,204.18723C84.7631,204.02967 84.8086,203.94567 84.8086,203.94567C84.80743,203.95499 84.54137,203.94567 84.09791,203.95499L84.09789,203.95499L84.09789,203.95496L84.09787,203.95496L84.09788,203.95496zM77.1099,210.21828C72.5831,212.06446 69.96902,211.48563 69.04592,210.2486C68.05864,208.95325 69.08677,207.55165 73.61357,205.97037C78.11702,204.39492 83.0861,204.5793 83.11761,204.56296C83.08728,204.53379 81.59352,208.33354 77.1099,210.21826L77.1099,210.21828zM8.41327,120.54481C10.75427,117.93773 15.29507,118.21548 18.56967,121.16333C19.10649,121.66048 19.58379,122.20895 19.98874,122.77262C19.98874,122.63491 20.00391,122.49139 20.00391,122.34901C19.49744,121.54612 18.87892,120.78289 18.11337,120.09552C14.63221,116.96329 9.78216,116.66687 7.28828,119.43034C6.55307,120.23557 6.11778,121.22402 5.93456,122.27781C6.38619,122.31749 6.84249,122.37935 7.31862,122.43187C7.54152,121.74099 7.90679,121.09681 8.41327,120.54483L8.41327,120.54481zM2.41372,143.38883C1.33892,140.04421 3.85263,136.23862 8.01882,134.88724C8.72836,134.65967 9.43206,134.51729 10.13693,134.45894C10.00623,134.39243 9.89419,134.30957 9.77283,134.23371C8.83456,134.26406 7.85194,134.42394 6.89384,134.74486C2.42306,136.17909 -0.25287,140.24143 0.91296,143.79611C1.23739,144.82423 1.86523,145.69949 2.69147,146.39151C2.94471,146.02158 3.22479,145.64581 3.52354,145.26419C3.0264,144.7262 2.64596,144.09253 2.41372,143.38882L2.41372,143.38883zM31.17327,114.31653C34.61475,115.03657 36.64184,119.10823 35.7094,123.42146C35.57286,124.1415 35.3453,124.8207 35.05121,125.43921C35.17258,125.38319 35.28928,125.31316 35.40598,125.25716C35.85177,124.42627 36.20655,123.49382 36.41427,122.49254C37.40272,117.9144 35.23327,113.54981 31.58406,112.79244C30.52442,112.5497 29.45078,112.6629 28.43666,113.03051C28.63388,113.44129 28.8066,113.87775 28.99915,114.31771C29.70402,114.17183 30.43923,114.14149 31.17327,114.31654L31.17327,114.31652L31.17327,114.31653zM19.20335,159.98125C15.77237,159.26122 13.74529,155.17438 14.64739,150.87397C14.8201,150.15395 15.043,149.48058 15.32658,148.84455C15.21455,148.91341 15.09785,148.96828 14.97181,149.03945C14.53652,149.8727 14.17125,150.78527 13.96819,151.79125C12.98558,156.38805 15.15503,160.73162 18.80891,161.51934C19.86737,161.74457 20.93168,161.6337 21.95047,161.25095C21.75208,160.84017 21.58053,160.42121 21.38798,159.96607C20.68311,160.12012 19.9479,160.15163 19.20335,159.98125zM41.97386,153.75063C39.63286,156.34487 35.09206,156.07648 31.81745,153.13213C31.25963,152.63497 30.794,152.083 30.38322,151.50533C30.38322,151.64771 30.38322,151.79125 30.38322,151.92893C30.87452,152.7365 31.51404,153.50905 32.27375,154.18941C32.72538,154.59786 33.18635,154.95963 33.68232,155.27356C34.36268,155.69951 35.05121,156.03677 35.77125,156.27718C38.50787,157.23294 41.36585,156.78249 43.09884,154.84993C43.81888,154.04704 44.25418,153.07143 44.45724,152.01762C44.00094,151.97677 43.5248,151.91609 43.0475,151.84607C42.81993,152.55328 42.48034,153.18463 41.97386,153.75061L41.97386,153.75063zM47.9629,130.90897C49.05288,134.23374 46.545,138.044 42.33796,139.39539C41.63776,139.63813 40.92822,139.76299 40.23969,139.81899C40.36573,139.89019 40.48243,139.97303 40.59446,140.04421C41.54674,140.01389 42.51068,139.85865 43.49329,139.55057C47.95357,138.09766 50.6295,134.04116 49.48934,130.4993C49.14974,129.45719 48.51139,128.59593 47.70033,127.9039C47.42608,128.26916 47.16351,128.65195 46.84842,129.03355C47.35606,129.57037 47.73067,130.20172 47.9629,130.90893L47.9629,130.90895L47.9629,130.90897zM34.80731,125.56408C33.22603,126.49184 31.77661,127.49548 30.48007,128.49561C30.46957,128.65081 30.43923,128.80486 30.42989,128.96241C30.8045,129.21331 31.18961,129.49689 31.54438,129.80614C32.86192,128.55744 34.55524,127.28543 36.51697,126.14175C41.91901,122.96868 48.34567,123.88362 48.34567,123.88362S46.01868,129.94968 40.6073,133.12276C38.58956,134.30959 36.58815,135.19535 34.79914,135.73334C34.8715,136.23748 34.91117,136.73345 34.91117,137.23876C35.04304,137.29711 35.17492,137.35195 35.31729,137.40565C36.92892,136.74749 38.62223,135.92823 40.2992,134.92695C43.08133,133.30248 45.24612,131.11785 46.85192,129.03243C47.16701,128.64965 47.42958,128.2692 47.70383,127.90277C49.73091,125.00161 50.68901,122.56142 50.68901,122.56142S42.53519,121.40609 35.40947,125.25486C35.29277,125.31088 35.17607,125.38089 35.05471,125.4369C34.98001,125.49642 34.89833,125.52442 34.8073,125.5641L34.80731,125.56408L34.80731,125.56407L34.80731,125.56408zM19.97824,123.02586C19.98758,124.86039 20.12062,126.60621 20.34351,128.24118C20.47072,128.34271 20.59675,128.42906 20.72395,128.52826C20.94685,128.41623 21.17558,128.30304 21.41832,128.20149C21.5817,128.11865 21.76842,128.05913 21.95164,128.0066C21.50001,126.17207 21.24677,123.97577 21.24677,121.58809C21.27711,115.24427 25.4328,110.04296 25.4328,110.04296S29.53714,115.1159 29.53714,121.44571C29.50797,123.93376 29.22788,126.22691 28.74708,128.10462C29.32475,128.32752 29.89191,128.62394 30.42873,128.96355C30.43923,128.80599 30.46957,128.65195 30.47891,128.49674C30.72165,126.77659 30.82901,124.91639 30.82901,122.95698C30.80333,119.73957 29.99227,116.76955 28.99915,114.31652C28.8066,113.87655 28.63388,113.44009 28.43666,113.02932C26.94173,109.81422 25.3056,107.77198 25.3056,107.77198S20.23148,114.25584 20.00392,122.35014C20.00392,122.49252 19.98874,122.63606 19.98874,122.77377C19.98874,122.85663 19.97824,122.94182 19.97824,123.02585L19.97824,123.02587L19.97824,123.02585L19.97824,123.02586zM10.35983,134.60365C11.95161,135.50575 13.5329,136.26312 15.05233,136.88981C15.21455,136.82914 15.35575,136.75793 15.49346,136.70425C15.51797,136.16978 15.57398,135.63296 15.69068,135.09495C13.85616,134.53013 11.74856,133.60235 9.59894,132.38635C4.01368,129.21328 1.27707,123.47399 1.27707,123.47399S7.59637,122.89632 13.18163,126.07406C15.35575,127.31342 17.23112,128.6508 18.65953,129.96134C19.26754,129.40467 19.9619,128.9204 20.72279,128.52709C20.59675,128.42792 20.46955,128.3427 20.34235,128.24004C18.96295,127.1839 17.40734,126.14177 15.72102,125.16964C12.92373,123.57552 9.93387,122.80296 7.31862,122.43303C6.84249,122.38052 6.38619,122.31865 5.93456,122.27898C2.41256,121.97206 -0.18168,122.36534 -0.18168,122.36534S2.88986,129.99284 9.77166,134.23373C9.89303,134.3096 10.00506,134.39361 10.13576,134.45895C10.20695,134.50448 10.27814,134.56048 10.35983,134.60365zM15.32658,148.84457C15.4071,148.80139 15.49463,148.77105 15.57398,148.71853C17.15994,147.78375 18.60001,146.80232 19.89188,145.80221C19.92222,145.647 19.9479,145.48596 19.96307,145.33305C19.84637,145.2642 19.7355,145.17785 19.6083,145.09266C18.49849,145.96908 17.24163,146.83033 15.87274,147.63087C9.62928,151.29757 2.19433,150.2111 2.19433,150.2111S4.90527,143.2161 11.14405,139.55056C12.61914,138.69164 14.08372,137.97044 15.49346,137.39277C15.47829,137.16755 15.47829,136.94233 15.49346,136.70425C15.35575,136.75677 15.21455,136.82795 15.05233,136.88981C13.46055,137.548 11.7684,138.38241 10.07508,139.36967C7.31863,140.98948 5.13867,143.17292 3.52237,145.2642C3.22362,145.64697 2.94354,146.0216 2.6903,146.39152C0.64805,149.29501 -0.29955,151.73289 -0.29955,151.73289S7.84961,152.89056 14.96948,149.03944C15.09785,148.96827 15.21455,148.9134 15.32658,148.84454L15.32658,148.84457zM30.39838,151.26611C30.38322,149.43509 30.25601,147.68925 30.03428,146.04962C29.90241,145.95509 29.79038,145.85472 29.64917,145.77069C29.42627,145.88272 29.20221,145.99594 28.96881,146.09279C28.72024,146.20485 28.46233,146.29001 28.21376,146.37871C28.66539,148.10005 28.91863,150.19597 28.92796,152.46811C28.96881,158.38832 25.17839,163.22786 25.17839,163.22786S21.32612,158.44551 21.28645,152.52412C21.27595,150.19479 21.52918,148.05102 21.95047,146.28999C21.26077,146.0496 20.59675,145.72865 19.96307,145.33305C19.9479,145.48478 19.92222,145.64697 19.89188,145.80221C19.66432,147.52235 19.55229,149.37904 19.55229,151.33845C19.58263,154.5547 20.39253,157.52705 21.38681,159.96725C21.58053,160.4212 21.75208,160.84248 21.9493,161.25329C23.44423,164.48355 25.0757,166.51411 25.0757,166.51411S30.15331,160.02676 30.38088,151.93011C30.38088,151.7924 30.38088,151.64886 30.38088,151.50648C30.38204,151.42361 30.39838,151.35011 30.39838,151.26608L30.39838,151.26611zM40.0273,139.6918C38.43668,138.79202 36.84489,138.02882 35.31379,137.40564C35.17142,137.35196 35.03955,137.29712 34.90768,137.23875C34.89717,137.77557 34.83649,138.32757 34.75129,138.84689C36.32675,139.21449 38.0399,139.85867 39.70171,140.80627C44.59261,143.58258 48.5604,150.80281 48.5604,150.80281S40.3097,151.17041 35.42932,148.39061C33.65081,147.37999 32.13021,146.17682 30.94454,144.96664C30.5501,145.26306 30.11364,145.53146 29.64801,145.76953C29.78921,145.85356 29.90124,145.95393 30.03311,146.04846C31.41134,147.11043 32.96228,148.1514 34.6696,149.127C37.46224,150.70595 40.43692,151.49135 43.0475,151.84378C43.52363,151.91496 43.99977,151.97566 44.45724,152.01532C47.97457,152.32457 50.56881,151.92665 50.56881,151.92665S47.49844,144.2863 40.59563,140.0419C40.48477,139.9707 40.36806,139.88669 40.24087,139.81668C40.16501,139.77817 40.10783,139.73497 40.0273,139.69182L40.0273,139.6918zM21.95047,146.29001C23.92153,146.99722 26.126,147.06842 28.21376,146.37871C28.46233,146.29001 28.72024,146.20485 28.96881,146.09279C29.20221,145.99594 29.4251,145.88272 29.64917,145.77069C30.1148,145.53262 30.55126,145.26422 30.94571,144.9678C31.93416,144.2361 32.78023,143.34332 33.39874,142.33273C34.0791,141.27075 34.52373,140.08741 34.75246,138.84807C34.83882,138.32875 34.89834,137.77675 34.90884,137.23993C34.90884,136.73462 34.86916,136.23866 34.79681,135.73451C34.67077,134.94095 34.47238,134.13806 34.13395,133.36316C33.53995,131.93825 32.63786,130.75491 31.54321,129.80731C31.18844,129.49806 30.80333,129.21449 30.42873,128.96359C29.89191,128.62282 29.32358,128.32756 28.74708,128.10466C26.61847,127.27377 24.22145,127.18507 21.95047,128.00548C21.76725,128.05916 21.58053,128.11751 21.41715,128.20037C21.17442,128.3019 20.94685,128.41628 20.72279,128.52712C19.96307,128.91924 19.26871,129.40355 18.65953,129.96137C17.15877,131.3326 16.11547,133.1368 15.68952,135.09502C15.57282,135.63184 15.51797,136.16982 15.49229,136.70432C15.47712,136.94239 15.47712,137.16761 15.49229,137.39284C15.5168,138.57616 15.7397,139.777 16.23684,140.92069C16.97205,142.66886 18.16706,144.08092 19.60713,145.09154C19.73434,145.17673 19.8452,145.26308 19.9619,145.33193C20.59675,145.72754 21.26077,146.04964 21.95047,146.29003L21.95047,146.29001zM16.98839,140.61139C15.08384,136.08229 17.21128,130.86812 21.7229,128.94725C26.2532,127.03103 31.48369,129.16081 33.39874,133.68292C35.28928,138.19922 33.17701,143.42853 28.66539,145.34709C24.12459,147.25281 18.9046,145.13469 16.98839,140.61139z" fill="#574331" style="pointer-events:inherit"/><path id="svg_42" d="M28.66538,145.34822C33.17583,143.42967 35.28927,138.20035 33.39873,133.68405C31.48368,129.16192 26.25319,127.03215 21.7229,128.94836C17.21128,130.86924 15.08383,136.0834 16.98838,140.61253C18.90459,145.13466 24.12458,147.25276 28.66538,145.34822z" fill="#F9F294" style="pointer-events:inherit"/></g><g display="null" id="svg_43" style="pointer-events:inherit" clip-id="228"><path id="svg_44" d="M126.3257,183.16513C125.98666,178.26485 126.58205,176.40607 127.81418,176.02803C128.9825,175.6631 130.39893,176.92987 130.95297,181.87736C131.52119,186.88662 128.91044,191.76193 128.89627,191.72781C128.87028,191.74223 126.59386,188.08378 126.3257,183.16513zM138.90451,197.96703C134.4308,197.61263 132.00908,194.4556 132.00908,194.50681C132.00908,194.50681 136.26422,192.69791 140.65877,192.71102C145.06513,192.72942 146.39412,193.72837 145.90622,195.30884C145.46677,196.82633 143.36873,198.2611 138.90451,197.96703zM115.47874,192.29755C115.90993,187.20298 116.80301,185.41378 118.11547,185.27332C119.36178,185.12633 120.61399,186.69892 120.41434,191.88668C120.22887,197.10984 116.7912,201.6124 116.7912,201.56119C116.75339,201.58087 114.99794,197.375 115.47875,192.29753L115.47873,192.29753L115.47874,192.29755zM128.6104,204.01987C133.72437,205.0241 135.09352,206.44968 134.26305,208.20867C133.46802,209.85741 130.78168,211.0651 125.64528,209.74976C120.50414,208.36225 118.23715,204.14461 118.22298,204.17873C118.23598,204.21549 123.50354,203.04061 128.61042,204.01987L128.6104,204.01987zM103.61111,208.92542C103.56031,208.90047 102.41916,204.29555 103.70798,199.16947C104.92238,194.03292 106.11908,192.36188 107.48825,192.46033C108.77234,192.55091 109.81783,194.4005 108.83258,199.67751C107.8261,204.98867 103.61111,208.95823 103.61111,208.92542zM114.88217,213.23235C119.46219,215.01105 120.50529,216.58628 119.50354,218.0447C118.56911,219.43746 115.92293,220.08593 111.34291,218.01186C106.80189,215.89054 105.29332,211.61513 105.2626,211.65055C105.28978,211.66497 110.31987,211.46021 114.88217,213.23235z" fill="#71BDB6" style="pointer-events:inherit"/><path id="svg_45" d="M169.17368,119.93017C169.17368,119.83697 169.16422,119.73984 169.16422,119.64532C169.57415,119.01261 170.05614,118.39434 170.60073,117.83512C173.91436,114.52057 178.51209,114.20684 180.88184,117.1394C181.39571,117.7603 181.7643,118.4849 181.98992,119.26333C179.34258,119.67945 176.316,120.54846 173.48437,122.34159C171.77616,123.43506 170.20146,124.60728 168.8063,125.79528C169.02957,123.9575 169.16307,121.99374 169.1737,119.93018L169.17368,119.93016L169.17368,119.93017zM178.91019,132.95339C178.99288,132.90482 179.06375,132.84311 179.13582,132.79061C179.84934,132.85625 180.56168,133.01511 181.27994,133.27239C185.49729,134.7925 188.04186,139.07317 186.95386,142.83533C186.71759,143.62818 186.33365,144.33965 185.83042,144.94483C184.19428,142.59249 181.98873,140.13645 179.19724,138.31443C177.48314,137.20261 175.77022,136.26531 174.15888,135.52497C175.69817,134.82006 177.29886,133.9668 178.91019,132.95342L178.91019,132.95339zM154.16254,122.78528C154.07039,122.73934 153.9877,122.70783 153.91681,122.64352C153.61913,121.9478 153.38876,121.18381 153.25055,120.37388C152.30666,115.52218 154.35863,110.94219 157.84236,110.13226C158.58543,109.93535 159.32966,109.96949 160.04318,110.13226C159.03787,112.89285 158.21684,116.23233 158.19085,119.85141C158.19085,122.05412 158.29835,124.14655 158.54525,126.08277C157.23042,124.95779 155.76321,123.82888 154.16253,122.78527L154.16254,122.78528zM169.95809,161.49919C169.20441,161.69084 168.46015,161.65538 167.74663,161.48213C168.75313,158.73729 169.57297,155.39386 169.60369,151.77611C169.60369,149.57205 169.49146,147.48355 169.25991,145.54866C170.56766,146.67363 172.02541,147.77762 173.63085,148.8291C173.71236,148.88948 173.79978,148.9236 173.88129,148.97084C174.16834,149.68628 174.394,150.44502 174.56884,151.25363C175.48319,156.09219 173.43122,160.68925 169.95812,161.49919L169.95809,161.49919zM158.6256,151.696C158.6256,151.79051 158.64095,151.8732 158.64095,151.9651C158.22394,152.6149 157.75377,153.23579 157.18912,153.795C153.87548,157.1069 149.27892,157.40883 146.90801,154.49072C146.39414,153.85539 146.05036,153.14522 145.82001,152.34709C148.46265,151.95067 151.47385,151.06721 154.30077,149.29114C156.02906,148.19507 157.59902,147.02284 158.99419,145.8283C158.76972,147.67261 158.64214,149.63642 158.6256,151.69602L158.6256,151.696zM148.87845,138.67674C148.79694,138.72531 148.73905,138.77257 148.66226,138.81851C147.96527,138.75548 147.24702,138.61635 146.53824,138.34201C142.28073,136.8219 139.74088,132.53598 140.84422,128.79613C141.08049,128.00063 141.4597,127.29177 141.97239,126.68661C143.59791,129.03241 145.78927,131.48976 148.60554,133.31703C150.30311,134.44197 152.01722,135.36351 153.64863,136.10518C152.09991,136.80615 150.48858,137.66466 148.87843,138.67674L148.87845,138.67674z" fill="#D22C60" style="pointer-events:inherit"/><path id="svg_46" d="M154.84416,131.55669C154.50038,132.42832 154.30075,133.33275 154.17315,134.22408C152.36218,133.62024 150.33502,132.62259 148.29368,131.28759C142.81469,127.71971 140.46029,120.895 140.46029,120.895S146.96467,119.86586 152.43423,123.43505C154.42004,124.72019 156.13299,126.15101 157.46789,127.5569C156.35861,128.62282 155.44543,129.95387 154.84416,131.55669zM170.50738,127.73018C171.95451,126.25734 173.85292,124.75169 176.05255,123.35762C181.70639,119.78316 188.10329,120.43293 188.10329,120.43293S185.33307,126.88876 179.67923,130.45795C177.50439,131.82579 175.36974,132.86806 173.5127,133.5047C173.08269,131.30333 172.0266,129.27391 170.50739,127.73018L170.50738,127.73018zM167.17723,146.09866C167.6037,148.07953 167.86003,150.49226 167.84939,153.11107C167.80804,159.77167 163.90965,165.15106 163.90965,165.15106S160.07272,159.70733 160.11407,153.04805C160.12469,150.49226 160.38104,148.13464 160.83703,146.19844C162.95042,146.97423 165.18194,146.89416 167.17721,146.09866L167.17723,146.09866z" fill="#EF5027" style="pointer-events:inherit"/><path id="svg_47" d="M160.29716,125.64168C159.81047,123.52957 159.52812,120.95013 159.4974,118.15147C159.4974,111.03144 163.65214,105.32516 163.65214,105.32516S167.86003,111.17583 167.88957,118.31163C167.88957,120.99609 167.63322,123.46789 167.17604,125.53144C164.87955,124.60728 162.45309,124.70705 160.29716,125.64168zM172.95982,140.05899C173.46307,138.77388 173.6887,137.42178 173.71351,136.09071C175.14056,136.74049 176.62193,137.55044 178.11633,138.51788C184.43171,142.64103 187.17593,150.50934 187.17593,150.50934S179.6497,151.73143 173.32959,147.60697C171.94389,146.70647 170.67159,145.73769 169.54816,144.75188C171.00473,143.61376 172.21559,142.02541 172.95983,140.05901L172.95983,140.05899L172.95982,140.05899zM155.58958,141.64735L140.23939,151.17616C140.23939,151.17616 144.25588,143.05453 149.20684,139.93167C150.88906,138.86574 152.62325,138.14114 154.21806,137.72764C154.44961,139.1217 154.90086,140.45146 155.58958,141.64735z" fill="#F1A7C9" style="pointer-events:inherit"/><path id="svg_48" d="M117.6772,203.80328C117.23775,203.85972 116.97784,203.92404 116.97784,203.90696C116.97784,203.90696 117.0251,204.00146 117.1385,204.14718C113.02513,206.78175 108.71445,209.06584 104.26674,210.96267C103.81786,210.95216 103.54852,210.96267 103.54852,210.95216C103.54852,210.95216 103.59456,211.04667 103.66191,211.2239C95.58635,214.59884 87.00282,216.72407 78.17592,217.39222L77.01706,215.80125C86.08374,215.23153 94.87045,213.10365 103.1492,209.63421C103.23782,209.99258 103.29334,210.19999 103.29334,210.19999C103.29334,210.22363 103.71744,209.82458 104.31993,209.13673C108.4841,207.31996 112.52661,205.16058 116.39664,202.68617C116.51007,203.01431 116.59038,203.20862 116.62108,203.20862C116.62108,203.21913 116.97075,202.76888 117.46809,201.98781C121.39128,199.39 125.11838,196.45745 128.64229,193.23216C128.81595,193.53276 128.92935,193.70866 128.92935,193.70866C128.92935,193.72705 129.21049,193.21904 129.58616,192.35791C139.54475,182.93542 147.71127,171.05949 153.18911,157.32744C153.91798,157.05702 154.61616,156.67764 155.30369,156.19853C147.5955,176.5321 134.17561,193.03 117.67719,203.80328L117.6772,203.80328zM128.63992,193.23349C127.89569,191.92342 126.01621,188.00108 125.74212,183.08768C125.32865,177.00994 126.06934,174.69434 127.58853,174.21784C129.04512,173.77811 130.78168,175.34543 131.49992,181.50196C131.99725,185.90473 130.49344,190.23531 129.58616,192.36185C129.21403,193.22298 128.92935,193.72837 128.92935,193.71262C128.92698,193.71392 128.81476,193.5367 128.63992,193.23349zM130.95297,181.88C130.39775,176.92987 128.9825,175.66702 127.81418,176.03067C126.58205,176.40607 125.98666,178.26485 126.3257,183.16908C126.59386,188.08378 128.87029,191.74225 128.89627,191.73044C128.91281,191.76456 131.52119,186.88793 130.95297,181.88001L130.95297,181.88zM138.8029,198.67326C133.29318,198.24664 130.26544,194.34663 130.26544,194.39784C130.28789,194.40832 135.54478,192.17413 140.96708,192.18463C146.42599,192.203 148.04797,193.42644 147.48327,195.39282C146.92451,197.26474 144.32206,199.04345 138.80288,198.67326L138.8029,198.67326zM140.65994,192.71101C136.26304,192.69789 132.01143,194.5068 132.01143,194.5068C132.01143,194.45559 134.43199,197.61262 138.90567,197.96702C143.36873,198.26237 145.46677,196.82632 145.90858,195.31146C146.39529,193.72836 145.06628,192.72941 140.65994,192.71101zM116.39428,202.68748C115.85558,201.24482 114.59747,197.0442 115.05582,192.14262C115.5319,186.06355 116.61872,183.92518 118.19224,183.74928C119.67718,183.59701 121.15972,185.46104 120.9601,191.653C120.78998,196.07545 118.67185,200.05946 117.46572,201.99307C116.96838,202.77411 116.61871,203.22438 116.61871,203.21386C116.58799,203.21122 116.50647,203.01826 116.39427,202.68748L116.39428,202.68748zM118.11782,185.27595C116.80417,185.41377 115.91346,187.20428 115.48229,192.30145C115.00031,197.37498 116.75338,201.58085 116.79473,201.56643C116.79473,201.61761 120.23122,197.11115 120.41668,191.89187C120.61633,186.7015 119.36412,185.1302 118.11782,185.27592L118.11782,185.27595zM117.67719,203.80328C119.42318,203.49609 124.21228,202.81742 128.87971,203.72187C134.76037,204.8626 136.31854,206.50347 135.37582,208.51057C134.46267,210.42579 131.38531,211.78706 125.48339,210.28274C120.40487,208.92146 117.7634,205.12382 117.13847,204.14459C117.02507,204.00149 116.97781,203.90434 116.97781,203.90434C116.97781,203.92405 117.23771,203.85974 117.67717,203.8033L117.67719,203.80328zM125.64406,209.74974C130.78166,211.06508 133.468,209.85739 134.26186,208.20865C135.09351,206.44704 133.72316,205.02144 128.60802,204.01987C123.5047,203.04059 118.23712,204.21154 118.22058,204.17873C118.23595,204.14722 120.50173,208.36492 125.64406,209.74976L125.64406,209.74974zM103.29096,210.2C103.29096,210.2 103.23543,209.99523 103.14684,209.63422C102.83497,208.12992 102.20887,203.75603 103.40555,198.99228C104.80189,193.07466 106.17459,191.15946 107.74574,191.27231C109.23422,191.37474 110.425,193.48552 109.31456,199.56066C108.48408,203.90699 105.81663,207.46305 104.31872,209.13677C103.71624,209.82462 103.29095,210.22367 103.29095,210.20003L103.29097,210.2L103.29096,210.2zM107.48824,192.4603C106.11907,192.36318 104.92237,194.03292 103.70797,199.16945C102.41915,204.29291 103.5603,208.90045 103.6111,208.9254C103.6111,208.95819 107.8261,204.98993 108.83257,199.67748C109.81664,194.39785 108.77233,192.55088 107.48824,192.4603zM104.26673,210.96268C106.06353,210.98107 110.88454,211.19242 115.36651,212.91072C120.99198,215.08848 122.2749,217.02861 121.04279,218.81782C119.87328,220.54403 116.6388,221.33819 111.02749,218.785C106.1994,216.51536 104.16161,212.31344 103.6619,211.2239C103.59337,211.04668 103.54731,210.95217 103.54731,210.95217C103.5485,210.96267 103.81784,210.95217 104.26672,210.96267L104.26673,210.96267L104.26673,210.96268zM111.34053,218.00792C115.92292,220.08458 118.5691,219.43347 119.50353,218.04202C120.50292,216.58494 119.46218,215.00837 114.87978,213.2297C110.32105,211.45756 105.29096,211.66496 105.25907,211.64659C105.28977,211.61378 106.80188,215.88791 111.34054,218.00793L111.34052,218.00793L111.34053,218.0079L111.34053,218.00792zM180.88065,117.13939C178.5109,114.20683 173.91436,114.51926 170.59954,117.83511C170.05614,118.39431 169.57297,119.01127 169.16306,119.64531C169.16306,119.49041 169.14771,119.32895 169.14771,119.1688C169.66039,118.26566 170.28649,117.40717 171.06147,116.63398C174.58537,113.11073 179.49497,112.77729 182.01946,115.88575C182.76371,116.79151 183.20434,117.90337 183.38981,119.08871C182.93264,119.13335 182.47073,119.20291 181.98875,119.262C181.76313,118.48489 181.39338,117.76026 180.88067,117.13938L180.88067,117.13939L180.88065,117.13939zM186.95386,142.83533C188.04186,139.07317 185.49729,134.79247 181.27993,133.27239C180.56168,133.01641 179.84934,132.85625 179.13581,132.79061C179.26813,132.71581 179.38152,132.62261 179.5044,132.53725C180.45417,132.5714 181.44886,132.75121 182.41875,133.11222C186.94442,134.72553 189.65319,139.29499 188.47306,143.29348C188.14465,144.44993 187.5091,145.43446 186.67272,146.2129C186.41637,145.79679 186.13285,145.37409 185.83042,144.94483C186.33364,144.33967 186.71877,143.6269 186.95386,142.83533L186.95386,142.83535L186.95386,142.83533zM157.84119,110.13356C154.35746,110.94348 152.30547,115.52347 153.24935,120.37519C153.38758,121.1851 153.61794,121.94909 153.91564,122.64481C153.79279,122.5818 153.67467,122.50303 153.55651,122.44003C153.10526,121.50538 152.74613,120.45655 152.53585,119.33027C151.53524,114.18058 153.73136,109.2711 157.42536,108.41918C158.49802,108.14613 159.58483,108.27346 160.61141,108.68696C160.41175,109.14903 160.23693,109.63998 160.04201,110.13486C159.32848,109.97076 158.58425,109.93664 157.84119,110.13356L157.84119,110.13357L157.84119,110.13356zM169.95809,161.49918C173.43119,160.68924 175.48316,156.09218 174.56998,151.25493C174.39513,150.44501 174.1695,149.68756 173.88245,148.97214C173.99584,149.04961 174.11399,149.11132 174.24158,149.19138C174.68221,150.12865 175.05196,151.15517 175.25751,152.2867C176.2522,157.45738 174.05611,162.34322 170.35735,163.22928C169.28589,163.48264 168.20853,163.35793 167.17722,162.92737C167.37804,162.46532 167.5517,161.99405 167.74662,161.4821C168.46015,161.65536 169.20438,161.69082 169.95809,161.49917L169.95809,161.49918zM146.90801,154.49071C149.27775,157.40882 153.87429,157.10691 157.18912,153.79499C157.75379,153.2358 158.22512,152.61489 158.64095,151.96509C158.64095,152.12523 158.64095,152.2867 158.64095,152.44159C158.14362,153.34999 157.49625,154.21898 156.72721,154.98427C156.27004,155.44371 155.80341,155.85065 155.30135,156.20377C154.61263,156.68291 153.91564,157.06226 153.18677,157.33269C150.41654,158.40778 147.52349,157.90108 145.7692,155.72727C145.04032,154.82415 144.59966,153.72675 144.39411,152.54137C144.85601,152.49541 145.338,152.42714 145.82117,152.34839C146.05152,153.14389 146.3953,153.85407 146.90798,154.49069L146.90801,154.49071zM140.84542,128.79743C139.74207,132.53728 142.28075,136.8232 146.53942,138.34333C147.24822,138.61634 147.96648,138.75678 148.66344,138.81983C148.53585,138.89992 148.41773,138.99308 148.30431,139.07319C147.34035,139.03907 146.36457,138.86445 145.36989,138.51792C140.85484,136.88363 138.14606,132.3207 139.30022,128.33669C139.644,127.16444 140.29018,126.19568 141.11119,125.41726C141.38881,125.82813 141.6546,126.25869 141.97357,126.68794C141.45968,127.29179 141.08047,128.00195 140.8454,128.79745L140.84542,128.79745L140.84542,128.79743zM154.16254,122.78528C155.76322,123.82887 157.23043,124.9578 158.5429,126.08277C158.55352,126.25735 158.58425,126.43062 158.59371,126.60782C158.2145,126.89005 157.82465,127.20905 157.46552,127.5569C156.13181,126.15232 154.4177,124.7215 152.43189,123.43505C146.96352,119.86585 140.45795,120.895 140.45795,120.895S142.81351,127.71837 148.29134,131.28759C150.33385,132.6226 152.35984,133.61893 154.17081,134.22408C154.09754,134.79116 154.05741,135.34905 154.05741,135.91744C153.92391,135.98308 153.79041,136.04477 153.64629,136.10515C152.01488,135.36479 150.30077,134.44327 148.6032,133.317C145.78693,131.48973 143.59554,129.03238 141.97005,126.68658C141.6511,126.25603 141.38529,125.82807 141.10767,125.4159C139.0557,122.15256 138.08582,119.40771 138.08582,119.40771S146.33977,118.10813 153.55297,122.4374C153.6711,122.50042 153.78925,122.57917 153.9121,122.64218C153.98772,122.70914 154.07041,122.74064 154.16256,122.78526L154.16254,122.78527L154.16254,122.78528zM169.17368,119.93019C169.16422,121.99374 169.02956,123.9575 168.80393,125.79661C168.67516,125.91081 168.54758,126.00794 168.4188,126.11952C168.19318,125.99351 167.96163,125.86619 167.7159,125.75197C167.55051,125.65877 167.3615,125.59181 167.17603,125.53275C167.63321,123.4692 167.88956,120.99872 167.88956,118.31295C167.85884,111.17717 163.65213,105.3265 163.65213,105.3265S159.49739,111.03276 159.49739,118.15281C159.52693,120.95147 159.81045,123.53091 160.29715,125.64302C159.7124,125.89374 159.13828,126.22716 158.59486,126.60918C158.58421,126.43196 158.55351,126.25869 158.54406,126.08409C158.29835,124.14918 158.18966,122.05675 158.18966,119.85274C158.21565,116.23365 159.03668,112.89286 160.04199,110.13359C160.23691,109.63868 160.41174,109.14776 160.61139,108.68568C162.12467,105.06921 163.78088,102.77201 163.78088,102.77201S168.91731,110.06531 169.14767,119.17015C169.14767,119.3303 169.16302,119.49176 169.16302,119.64666C169.16302,119.73987 169.17366,119.83569 169.17366,119.9302L169.17368,119.93019zM178.91019,132.95341C177.29885,133.96809 175.69814,134.82005 174.16007,135.52496C173.99584,135.45669 173.85294,135.37663 173.71352,135.31625C173.68871,134.71505 173.63201,134.11122 173.51386,133.50607C175.37093,132.87072 177.50438,131.8271 179.68039,130.45929C185.33423,126.89008 188.10445,120.43427 188.10445,120.43427S181.70755,119.78449 176.05373,123.35894C173.85291,124.75304 171.95452,126.25735 170.50856,127.73151C169.89308,127.10537 169.1902,126.5606 168.41997,126.11821C168.54756,126.00665 168.67632,125.9108 168.80509,125.7953C170.20142,124.6073 171.77613,123.43508 173.48316,122.3416C176.31479,120.54848 179.34136,119.67946 181.98871,119.26335C182.47069,119.20428 182.93259,119.1347 183.38977,119.09006C186.95502,118.74483 189.5811,119.18721 189.5811,119.18721S186.47185,127.76696 179.50555,132.53728C179.38269,132.62262 179.26928,132.71714 179.13699,132.79064C179.06492,132.84186 178.99286,132.90485 178.91017,132.95342L178.91019,132.9534L178.91019,132.95342L178.91019,132.95341zM173.88245,148.97215C173.80094,148.92361 173.71233,148.88946 173.63201,148.83038C172.0266,147.77891 170.56884,146.67495 169.2611,145.54997C169.23038,145.37539 169.20441,145.19424 169.18903,145.02226C169.30715,144.94482 169.41938,144.84768 169.54816,144.75187C170.67159,145.73768 171.9439,146.70646 173.32958,147.60696C179.64969,151.73144 187.17592,150.50933 187.17592,150.50933S184.4317,142.64103 178.11632,138.51787C176.62313,137.55171 175.14055,136.74048 173.7135,136.0907C173.72887,135.83734 173.72887,135.58399 173.7135,135.31621C173.8529,135.37528 173.99583,135.45534 174.16005,135.52492C175.77138,136.26526 177.48431,137.20386 179.19841,138.31439C181.98871,140.1364 184.19543,142.59247 185.83157,144.94478C186.134,145.37535 186.41751,145.79674 186.67386,146.21286C188.74118,149.47884 189.70043,152.22104 189.70043,152.22104S181.45121,153.52324 174.24393,149.19136C174.11399,149.1113 173.99584,149.04959 173.88245,148.97212L173.88245,148.97214L173.88245,148.97215zM158.6256,151.69601C158.64095,149.63638 158.76972,147.6726 158.99419,145.82829C159.12766,145.72197 159.24108,145.60905 159.38401,145.51452C159.60964,145.64056 159.83646,145.76791 160.07273,145.87686C160.32436,146.00288 160.58544,146.09869 160.83704,146.19847C160.37987,148.13467 160.12351,150.49229 160.11408,153.04808C160.07273,159.70738 163.90966,165.15109 163.90966,165.15109S167.80924,159.7717 167.8494,153.1111C167.86005,150.49098 167.60369,148.07956 167.17725,146.09869C167.87542,145.82829 168.5476,145.4673 169.18905,145.02229C169.20443,145.19293 169.2304,145.37541 169.26112,145.55C169.49148,147.48491 169.6049,149.57338 169.6049,151.7774C169.57417,155.39517 168.75433,158.7386 167.74783,161.48341C167.55175,161.99406 167.37809,162.46795 167.17846,162.93002C165.66517,166.56355 164.01367,168.84762 164.01367,168.84762S158.8737,161.55035 158.64335,152.44294C158.64335,152.28802 158.64335,152.12655 158.64335,151.96641C158.64218,151.87318 158.62562,151.79052 158.62562,151.69598L158.62562,151.69601L158.6256,151.69601zM148.87844,138.67674C150.48859,137.66467 152.09992,136.80615 153.64983,136.10518C153.79395,136.0448 153.92745,135.98311 154.06092,135.91748C154.07157,136.52132 154.133,137.14223 154.21923,137.72635C152.62444,138.13986 150.89025,138.86444 149.20803,139.93036C144.25707,143.05325 140.24056,151.17488 140.24056,151.17488S148.59258,151.58836 153.53287,148.46153C155.33322,147.32475 156.87248,145.97137 158.07271,144.61012C158.472,144.94354 158.91382,145.24545 159.38518,145.51324C159.24224,145.60775 159.12883,145.72065 158.99533,145.82699C157.60019,147.02151 156.0302,148.19244 154.30191,149.28985C151.47499,151.06593 148.46379,151.94937 145.82115,152.34579C145.33917,152.42585 144.85719,152.49414 144.3941,152.53875C140.83357,152.88662 138.20749,152.43899 138.20749,152.43899S141.31557,143.8448 148.30313,139.07055C148.41534,138.99046 148.53349,138.89596 148.66225,138.81721C148.73903,138.77391 148.79692,138.72531 148.87844,138.67674zM167.17722,146.09869C165.18195,146.89419 162.95041,146.97424 160.83704,146.19847C160.58541,146.09869 160.32433,146.00288 160.07273,145.87686C159.83646,145.76791 159.61083,145.64056 159.38401,145.51452C158.91268,145.24673 158.47086,144.94482 158.07157,144.6114C157.07096,143.78837 156.2145,142.78413 155.58842,141.64735C154.8997,140.4528 154.44964,139.12173 154.21809,137.72764C154.13067,137.14347 154.07043,136.52258 154.05978,135.91874C154.05978,135.35035 154.09997,134.79246 154.17318,134.22535C154.30077,133.33274 154.50159,132.42962 154.8442,131.55798C155.44549,129.95518 156.35865,128.62414 157.46673,127.55819C157.82586,127.21034 158.21569,126.89135 158.5949,126.60913C159.13831,126.22582 159.7136,125.89371 160.29719,125.64299C162.45193,124.70835 164.87841,124.60858 167.17727,125.53141C167.36274,125.59178 167.55175,125.65743 167.71714,125.75063C167.96284,125.86484 168.1932,125.99346 168.42001,126.11817C169.18905,126.55924 169.89196,127.10403 170.5086,127.73148C172.02778,129.2739 173.0839,131.30332 173.51508,133.50603C173.6332,134.10985 173.68873,134.71501 173.71473,135.31621C173.73008,135.58399 173.73008,135.83734 173.71473,136.0907C173.68992,137.42177 173.46429,138.77252 172.96104,140.05898C172.21682,142.02538 171.00712,143.61373 169.54937,144.75052C169.42059,144.84636 169.30839,144.9435 169.19024,145.02092C168.5476,145.46593 167.87542,145.82825 167.17725,146.09865L167.17722,146.09867L167.17722,146.09869zM172.20023,139.71113C174.12816,134.61659 171.97458,128.75146 167.40758,126.59078C162.82166,124.43535 157.52695,126.83101 155.58838,131.91768C153.67464,136.9978 155.81284,142.87996 160.37985,145.03807C164.97639,147.18167 170.26048,144.79915 172.20022,139.71114L172.20023,139.71113z" fill="#574331" style="pointer-events:inherit"/><path id="svg_49" d="M160.37987,145.03934C155.81403,142.88127 153.67465,136.9991 155.5884,131.91898C157.52698,126.8323 162.82169,124.43664 167.4076,126.59206C171.9746,128.75278 174.12818,134.61788 172.20026,139.71244C170.26052,144.79914 164.97643,147.18166 160.37989,145.03934L160.37987,145.03934z" fill="#F9F294" style="pointer-events:inherit"/></g><g id="svg_1" type="text" text="Nature" font-size="38.78865" font-family="Euphoria Script" fill="ffff00" stroke="0" stroke-width="0" text-anchor="start" font-weight="normal" font-style="normal" lineHeight="1" shapeId="0" shapeVal="0" display="null" style="pointer-events:inherit"><path d="M60.31163,117.65838C56.43292,117.65838 58.37228,120.99838 56.97163,120.99838C55.46324,120.99838 56.32518,116.90419 60.7426,116.90419C65.05227,116.90419 65.69873,122.82999 64.94453,128.75581C64.94453,128.75581 65.16001,128.75581 65.16001,128.75581C68.60776,122.18355 73.24066,115.07258 76.36517,115.07258C77.33485,115.07258 77.76582,115.50355 77.76582,116.58096C75.50324,122.18354 69.57743,142.65451 74.53356,142.65451C76.14969,142.65451 76.25744,140.28418 77.33485,140.82289C77.22711,141.03837 76.14969,143.62417 74.31807,143.62417C66.23743,143.62417 73.45614,122.39901 75.07227,117.11966C75.18001,116.79643 74.74904,116.79643 74.53356,117.01192C69.57743,121.42934 63.97485,134.14289 62.68195,137.26741C62.46647,138.02161 60.7426,142.1158 59.88066,139.74548C59.9884,139.42224 67.4226,117.65838 60.31163,117.65838C60.31163,117.65838 60.31163,117.65838 60.31163,117.65838M87.35486,125.95451C86.06195,125.73903 87.13937,124.66161 85.30776,124.66161C81.10582,124.66161 78.41228,138.02161 80.56711,138.02161C82.29098,138.02161 86.81614,129.40226 87.78581,127.46289C88.43226,125.95451 89.83291,124.12289 90.5871,125.95451C90.5871,125.95451 88.00129,131.23386 88.00129,138.2371C88.00129,140.71516 88.32452,141.46935 88.97097,141.46935C90.37161,141.14612 89.72516,140.0687 90.5871,139.85322C90.91033,139.85322 90.80258,140.17645 90.80258,140.17645C90.80258,140.17645 90.15613,142.54678 88.86323,142.54678C86.06194,142.54678 85.84645,135.97451 86.49291,132.41903C86.49291,132.41903 86.16968,132.41903 86.16968,132.41903C84.23033,135.65128 81.75226,139.09904 80.24388,139.09904C74.85678,139.09904 78.7355,123.79968 85.52323,123.79968C87.46258,123.79968 88.43226,125.52356 87.35485,125.95452C87.35485,125.95452 87.35485,125.95452 87.35485,125.95452M102.00775,123.79968C102.33098,124.98485 99.63743,124.55388 97.59033,125.20033C96.51291,128.75581 95.22001,133.92743 95.22001,138.02162C95.22001,140.60742 95.65098,142.65452 97.05162,142.65452C98.66775,142.65452 99.09872,140.0687 100.17614,140.60742C100.0684,140.8229 98.7755,143.62419 96.94388,143.62419C94.35807,143.62419 93.28066,141.14613 93.28066,137.15968C93.28066,133.6042 94.1426,129.18678 95.32776,125.6313C93.92712,126.17 92.31098,124.44613 93.49615,124.12291C93.60389,124.33839 95.22002,124.33839 95.75873,124.33839C96.83615,121.86032 98.02131,119.16677 99.09873,120.99839C99.09873,120.99839 98.02131,124.12291 98.02131,124.12291C99.74518,123.90743 101.25356,123.79968 102.00776,123.79968C102.00776,123.79968 102.00776,123.79968 102.00776,123.79968M111.27357,138.34485C111.27357,142.65453 113.10518,141.46936 113.53615,140.06871C113.53615,140.06871 113.53615,139.85323 113.85938,139.85323C114.18261,139.85323 114.18261,140.06871 114.18261,140.06871C114.18261,140.06871 113.42841,142.54678 112.13551,142.54678C109.5497,142.54678 109.01099,137.26742 109.76518,132.41903C109.76518,132.41903 109.5497,132.41903 109.5497,132.41903C107.61035,135.75903 105.34777,138.9913 103.73163,138.9913C98.45228,138.9913 103.08518,124.01516 105.88647,124.01516C106.31744,124.01516 106.53292,124.33839 106.53292,124.76936C106.53292,124.76936 103.30067,132.74226 103.30067,136.29774C103.30067,137.15968 103.51615,137.91387 104.05486,137.91387C105.56325,137.91387 109.87293,129.94097 111.27357,126.92418C112.02776,125.20032 112.8897,124.01515 113.85938,124.01515C114.29034,124.01515 114.50583,124.33838 114.50583,124.76935C114.50583,124.76935 111.27357,130.91065 111.27357,138.34484C111.27357,138.34484 111.27357,138.34484 111.27357,138.34484M127.21938,123.04548C129.3742,123.79968 125.711,125.09258 125.92647,130.15646C124.52583,130.15646 124.41809,126.92419 125.28002,124.8771C122.26325,127.4629 117.95357,136.40548 117.95357,138.2371C117.95357,138.45258 117.73809,138.56033 117.5226,138.56033C116.76841,138.56033 116.55292,137.80613 116.55292,136.08226C116.55292,130.15646 117.95357,124.01517 119.78518,124.01517C121.72453,124.55388 117.95357,128.86356 118.49228,133.92743C120.43163,129.40227 124.2026,123.04549 127.21938,123.04549C127.21938,123.04549 127.21938,123.04549 127.21938,123.04549M132.60647,138.99131C135.73098,138.88357 135.73098,135.43581 137.13163,136.51324C137.13163,136.51324 135.30001,140.06872 132.28324,140.06872C123.98712,140.06872 128.51227,124.01518 135.94646,124.01518C140.47162,124.01518 138.10131,133.0655 132.49874,133.0655C131.42132,133.0655 131.20583,132.41905 131.20583,132.41905C135.30001,132.41905 138.42453,124.87712 135.73098,124.87712C131.09808,124.87712 127.32712,138.99132 132.60647,138.99132C132.60647,138.99132 132.60647,138.99132 132.60647,138.99132" stroke-width="0" stroke="#000000" fill="#ffff00" id="svg_7" style="pointer-events:inherit"/></g><g id="svg_3" type="text" text="Save" font-size="31.73349" font-family="Interceptor" fill="ffff00" stroke="0" stroke-width="0" text-anchor="start" font-weight="normal" font-style="normal" lineHeight="1" shapeId="0" shapeVal="0" display="null" style="pointer-events:inherit"><path id="svg_5" fill="#ffff00" stroke="#000000" stroke-width="0" d="M56.284,103.78909C57.95878,108.90158 67.56674,106.0809 73.64885,106.78607C75.67622,106.43349 76.82212,104.935 77.351,103.08392C77.351,103.08392 77.351,95.67961 77.351,95.67961C76.38139,90.65526 67.83118,93.03523 62.27796,92.50635C62.27796,92.50635 62.27796,86.86498 62.27796,86.86498C62.27796,86.86498 71.18075,86.86498 71.18075,86.86498C71.18075,86.86498 71.18075,90.21454 71.18075,90.21454C71.18075,90.21454 77.351,90.21454 77.351,90.21454C77.351,90.21454 77.351,85.63092 77.351,85.63092C76.82212,84.0443 75.32363,83.07468 73.03182,83.07468C73.03182,83.07468 59.36912,83.07468 59.36912,83.07468C57.95878,83.16281 56.63658,84.13243 56.284,85.27834C56.284,85.27834 56.284,94.00483 56.284,94.00483C57.16547,99.0292 65.71567,96.38479 71.00445,97.00182C71.00445,97.00182 71.00445,102.99576 71.00445,102.99576C71.00445,102.99576 62.10166,102.99576 62.10166,102.99576C62.10166,102.99576 62.10166,99.20548 62.10166,99.20548C62.10166,99.20548 56.284,99.20548 56.284,99.20548C56.284,99.20548 56.284,103.7891 56.284,103.7891C56.284,103.7891 56.284,103.7891 56.284,103.7891M99.82834,86.95313C101.06239,87.12941 102.56088,88.01088 102.56088,89.24492C102.56088,89.24492 102.56088,103.78909 102.56088,103.78909C102.56088,103.78909 104.58825,103.78909 104.58825,103.78909C104.58825,103.78909 104.58825,106.78607 104.58825,106.78607C104.58825,106.78607 95.15657,106.78607 95.15657,106.78607C95.15657,106.78607 95.15657,103.78909 95.15657,103.78909C95.15657,103.78909 97.00764,103.78909 97.00764,103.78909C97.00764,103.78909 97.00764,98.324 97.00764,98.324C97.00764,98.324 90.48481,98.324 90.48481,98.324C90.48481,98.324 90.48481,103.78909 90.48481,103.78909C90.48481,103.78909 92.33588,103.78909 92.33588,103.78909C92.33588,103.78909 92.33588,106.78607 92.33588,106.78607C92.33588,106.78607 82.90421,106.78607 82.90421,106.78607C82.90421,106.78607 82.90421,103.78909 82.90421,103.78909C82.90421,103.78909 84.75528,103.78909 84.75528,103.78909C84.75528,103.78909 84.75528,98.324 84.75528,98.324C84.75528,98.324 82.28718,98.324 82.28718,98.324C82.28718,98.324 82.28718,94.53372 82.28718,94.53372C82.28718,94.53372 84.93157,94.53372 84.93157,94.53372C84.93157,91.18416 84.40269,86.95312 87.31153,86.95312C87.31153,86.95312 99.82832,86.95312 99.82832,86.95312C99.82832,86.95312 99.82832,86.95312 99.82832,86.95312M91.10183,90.12638C90.04407,90.74341 90.6611,93.03522 90.4848,94.53371C90.4848,94.53371 97.00763,94.53371 97.00763,94.53371C96.83134,93.03522 97.44836,90.74341 96.3906,90.12638C96.3906,90.12638 91.10181,90.12638 91.10181,90.12638C91.10181,90.12638 91.10181,90.12638 91.10181,90.12638M111.1992,89.68566C111.1992,89.68566 111.1992,96.91366 111.1992,96.91366C111.1992,96.91366 116.31168,106.78607 116.31168,106.78607C116.31168,106.78607 122.92266,106.78607 122.92266,106.78607C122.92266,106.78607 128.4759,97.17811 128.4759,97.17811C128.4759,97.17811 128.4759,89.68566 128.4759,89.68566C128.4759,89.68566 130.15067,89.68566 130.15067,89.68566C130.15067,89.68566 130.15067,86.95312 130.15067,86.95312C130.15067,86.95312 121.07158,86.95312 121.07158,86.95312C121.07158,86.95312 121.07158,89.68566 121.07158,89.68566C121.07158,89.68566 122.92265,89.68566 122.92265,89.68566C122.92265,89.68566 122.92265,96.64922 122.92265,96.64922C122.92265,96.64922 119.74939,103.61278 119.74939,103.61278C119.74939,103.61278 116.66426,96.64922 116.66426,96.64922C116.66426,96.64922 116.66426,89.68566 116.66426,89.68566C116.66426,89.68566 118.51533,89.68566 118.51533,89.68566C118.51533,89.68566 118.51533,86.95312 118.51533,86.95312C118.51533,86.95312 109.43624,86.95312 109.43624,86.95312C109.43624,86.95312 109.43624,89.68566 109.43624,89.68566C109.43624,89.68566 111.19917,89.68566 111.19917,89.68566C111.19917,89.68566 111.19917,89.68566 111.19917,89.68566M135.88017,104.14167C135.88017,104.14167 137.46681,104.14167 137.46681,104.14167C137.46681,104.14167 137.46681,98.5003 137.46681,98.5003C137.46681,98.5003 134.99872,98.5003 134.99872,98.5003C134.99872,98.5003 134.99872,94.97444 134.99872,94.97444C134.99872,94.97444 137.46681,94.97444 137.46681,94.97444C137.46681,94.97444 137.46681,89.68567 137.46681,89.68567C137.46681,89.68567 135.88017,89.68567 135.88017,89.68567C135.88017,89.68567 135.88017,86.95313 135.88017,86.95313C135.88017,86.95313 153.86204,86.95313 153.86204,86.95313C153.86204,86.95313 153.86204,92.59449 153.86204,92.59449C153.86204,92.59449 149.01399,92.59449 149.01399,92.59449C149.01399,92.59449 149.01399,90.1264 149.01399,90.1264C149.01399,90.1264 143.19633,90.1264 143.19633,90.1264C143.19633,90.1264 143.19633,94.97445 143.19633,94.97445C143.19633,94.97445 148.13253,94.97445 148.13253,94.97445C148.13253,94.97445 148.13253,98.5003 148.13253,98.5003C148.13253,98.5003 143.19633,98.5003 143.19633,98.5003C143.19633,98.5003 143.19633,103.6128 143.19633,103.6128C143.19633,103.6128 149.01399,103.6128 149.01399,103.6128C149.01399,103.6128 149.01399,100.52767 149.01399,100.52767C149.01399,100.52767 153.86204,100.52767 153.86204,100.52767C153.86204,100.52767 153.86204,106.78608 153.86204,106.78608C153.86204,106.78608 135.88017,106.78608 135.88017,106.78608C135.88017,106.78608 135.88017,104.14167 135.88017,104.14167C135.88017,104.14167 135.88017,104.14167 135.88017,104.14167" style="pointer-events:inherit"/></g></g><defs><path fill="#000000" stroke="#000000" d="M48.07748,169.10873Q87.62747,169.00871 127.21441,169.11824" id="svg_2"/><path fill="#000000" stroke="#000000" d="M48.71666,314.04999Q97.06666,312.85001 145.43958,314.19898" id="svg_4"/><path id="svg_9" fill="#000000" stroke="#000000" d="M48.07748,169.10873Q87.62747,169.00871 127.21441,169.11824"/><path id="svg_10" fill="#000000" stroke="#000000" d="M48.71666,119.05Q97.06666,117.85001 145.43958,119.19896"/><path id="svg_13" d="M-3052.54321,3255.08496A3151.26782,3151.26782 0 0 1 3249.99243,3255.08496A3151.26782,3151.26782 0 0 1 -3052.54321,3255.08496A3151.26782,3151.26782 0 0 1 3249.99243,3255.08496A3151.26782,3151.26782 0 0 1 -3052.54321,3255.08496" stroke="#000000" fill="#000000"/><path id="svg_16" d="M-3057.34302,3236.28516A3151.26782,3151.26782 0 0 1 3245.19262,3236.28516A3151.26782,3151.26782 0 0 1 -3057.34302,3236.28516A3151.26782,3151.26782 0 0 1 3245.19262,3236.28516A3151.26782,3151.26782 0 0 1 -3057.34302,3236.28516" stroke="#000000" fill="#000000"/></defs></svg>