<svg xmlns="http://www.w3.org/2000/svg" xmlns:se="http://svg-edit.googlecode.com" xmlns:xlink="http://www.w3.org/1999/xlink" id="svgcontent" width="205.65" height="395.85" x="0" y="0" viewBox="0 0 205.65 395.85" overflow="hidden"><g mask="" style="pointer-events:all"><title style="pointer-events:inherit">Layer 1</title><g id="svg_4" display="inline" style="pointer-events:inherit" clip-id="428"><path fill-rule="evenodd" clip-rule="evenodd" d="M98.67771,92.03836C98.01995,91.25161 97.51065,90.75504 97.13495,90.17223C95.98664,88.3909 96.81333,86.20386 99.10465,85.71152C101.02591,85.29871 103.06842,85.43053 105.05861,85.36868C105.92029,85.34219 106.78514,85.43548 107.3312,85.46022C107.3312,82.31499 106.89754,79.27228 107.40825,76.39708C109.34365,65.50211 121.1339,60.51125 129.47143,66.91019C133.13124,69.7193 135.02779,73.55795 135.52965,78.08509C136.33159,85.32026 132.44205,92.1794 125.74093,94.84216C123.43228,95.75967 120.8264,95.97811 118.33363,96.37536C112.00078,97.38512 105.66581,98.40054 99.30752,99.22793C97.30143,99.48911 95.19141,99.34669 93.17789,99.05228C91.064,98.74303 89.32758,96.65104 89.51666,95.13091C89.73825,93.34712 91.41248,92.13838 93.88018,92.03519C94.93799,91.99065 95.99937,92.03482 97.05932,92.03799C97.51772,92.03978 97.97612,92.03836 98.67771,92.03836zM113.29012,92.99583C111.48369,91.16431 109.81054,92.48651 108.21089,92.63918C109.79358,92.75054 111.37697,92.86186 113.29012,92.99583zM66.91236,148.15994C67.27605,147.90688 67.66555,147.68352 67.99954,147.39616C70.2746,145.43991 72.57122,143.50697 74.79821,141.49734C81.7372,135.23447 88.79601,129.09285 95.49642,122.58327C98.15072,120.00462 100.06987,116.63849 102.15409,113.51765C103.11365,112.0813 103.18222,110.32367 101.98622,108.89932C100.84037,107.53506 99.19443,107.61176 97.75947,108.24441C96.40193,108.84312 95.06877,109.6769 93.99434,110.6923C92.67989,111.93497 91.58072,113.42613 90.50168,114.89359C83.01239,125.0764 75.54856,135.27759 68.09037,145.4834C67.54289,146.2323 67.10534,147.06146 66.6169,147.85318C66.7155,147.95496 66.81376,148.0571 66.91236,148.15994zM139.03432,147.16751C138.88625,146.86249 138.77278,146.53415 138.5851,146.25531C133.70276,138.99113 128.82498,131.72345 123.91862,124.47487C119.9407,118.5976 115.1605,113.45474 109.63877,108.9937C108.45512,108.03766 107.2347,107.43717 105.79375,108.32748C104.34962,109.21955 104.10646,110.67958 104.30828,112.19901C104.61788,114.5285 105.54741,116.63215 107.22976,118.28338C111.20166,122.18246 115.19301,126.06566 119.26317,129.86157C124.9404,135.15637 130.69219,140.37132 136.42525,145.60603C137.15122,146.26907 137.95742,146.84412 138.72646,147.46016C138.82862,147.36259 138.93145,147.26508 139.03432,147.16751zM82.16662,76.27728C82.13446,80.49586 85.76883,84.01572 90.14118,84.0002C94.35518,83.985 97.98391,80.3863 97.93477,76.27127C97.88459,72.05832 94.36509,68.66784 90.05211,68.67667C85.70911,68.68513 82.19843,72.06893 82.16662,76.27728zM108.2109,92.63955C109.79393,92.75054 111.37697,92.86186 113.29012,92.99616C111.48336,91.16468 109.81055,92.48651 108.2109,92.63955z" id="svg_5" style="pointer-events:inherit"/></g><g id="svg_6" type="text" text="The Dream Team" font-size="24.829407205158912" font-family="Janda Curlygirl Pop" fill="000000" text-anchor="start" font-weight="normal" font-style="normal" lineHeight="1" shapeId="9" shapeVal="145" fill-opacity="1" display="inline" elemBBoxWidth="193.4140625" stroke="null" stroke-dasharray="none" style="pointer-events:inherit"><path id="svg_15" fill="#000000" stroke-width="0" d="M16.256299267578125,64.92536064697265 C16.256299267578125,64.92536064697265 16.837719267578123,63.59881064697266 16.837719267578123,63.59881064697266 C16.837719267578123,63.59881064697266 13.552919267578124,62.159080646972654 13.552919267578124,62.159080646972654 C13.552919267578124,62.159080646972654 12.971489267578125,63.485640646972655 12.971489267578125,63.485640646972655 C12.971489267578125,63.485640646972655 14.171709267578125,64.01169064697265 14.171709267578125,64.01169064697265 C14.171709267578125,64.01169064697265 8.135929267578124,77.78262064697266 8.135929267578124,77.78262064697266 C8.135929267578124,77.78262064697266 6.9988792675781255,77.28425064697265 6.9988792675781255,77.28425064697265 C6.9988792675781255,77.28425064697265 6.417459267578124,78.61080064697265 6.417459267578124,78.61080064697265 C6.417459267578124,78.61080064697265 9.702259267578125,80.05053064697265 9.702259267578125,80.05053064697265 C9.702259267578125,80.05053064697265 10.283689267578126,78.72398064697265 10.283689267578126,78.72398064697265 C10.283689267578126,78.72398064697265 9.336149267578126,78.30867064697266 9.336149267578126,78.30867064697266 C9.336149267578126,78.30867064697266 11.301929267578124,73.82364064697265 11.301929267578124,73.82364064697265 C11.301929267578124,73.82364064697265 26.020389267578125,80.27472064697265 26.020389267578125,80.27472064697265 C26.020389267578125,80.27472064697265 25.328219267578124,81.85396064697267 25.328219267578124,81.85396064697267 C25.328219267578124,81.85396064697267 26.465259267578126,82.35232064697266 26.465259267578126,82.35232064697266 C26.465259267578126,82.35232064697266 29.372399267578125,75.71954064697266 29.372399267578125,75.71954064697266 C29.372399267578125,75.71954064697266 28.235359267578126,75.22118064697266 28.235359267578126,75.22118064697266 C28.235359267578126,75.22118064697266 27.736989267578124,76.35822064697265 27.736989267578124,76.35822064697265 C27.736989267578124,76.35822064697265 13.046209267578124,69.84397064697265 13.046209267578124,69.84397064697265 C13.046209267578124,69.84397064697265 15.371929267578125,64.53775064697265 15.371929267578125,64.53775064697265 C15.371929267578125,64.53775064697265 16.256299267578125,64.92536064697265 16.256299267578125,64.92536064697265 C16.256299267578125,64.92536064697265 16.256299267578125,64.92536064697265 16.256299267578125,64.92536064697265 M11.380959267578124,79.65673064697265 C10.871299267578124,79.96048064697266 10.282879267578124,79.92849064697265 9.844189267578123,80.41396064697265 C9.844189267578123,80.41396064697265 6.117199267578126,78.78042064697266 6.117199267578126,78.78042064697266 C6.536809267578125,77.30763064697265 7.374409267578123,76.77109064697265 8.472479267578123,76.49934064697266 C8.472479267578123,76.49934064697266 13.899139267578125,64.11814064697265 13.899139267578125,64.11814064697265 C13.899139267578125,64.11814064697265 12.698919267578125,63.59209064697266 12.698919267578125,63.59209064697266 C13.055359267578124,62.091610646972654 13.956129267578126,61.58276064697266 15.117369267578125,61.33869064697266 C15.117369267578125,61.33869064697266 18.654849267578125,62.889160646972655 18.654849267578125,62.889160646972655 C18.654849267578125,62.889160646972655 17.934989267578125,64.53157064697265 17.934989267578125,64.53157064697265 C17.934989267578125,64.53157064697265 16.662999267578122,65.02832064697266 16.662999267578122,65.02832064697266 C16.662999267578122,65.02832064697266 14.863339267578125,69.13433064697266 14.863339267578125,69.13433064697266 C14.863339267578125,69.13433064697266 28.101219267578124,75.01177064697265 28.101219267578124,75.01177064697265 C28.583189267578124,74.77119064697266 29.191499267578124,74.58599064697265 29.764319267578124,74.30992064697266 C29.764319267578124,74.30992064697266 31.217219267578123,74.94672064697266 31.217219267578123,74.94672064697266 C31.217219267578123,74.94672064697266 28.143959267578126,81.95853064697266 28.143959267578126,81.95853064697266 C27.661989267578125,82.19910064697265 27.045879267578126,82.23028064697266 26.634879267578125,82.65258064697267 C26.634879267578125,82.65258064697267 25.055639267578126,81.96040064697266 25.055639267578126,81.96040064697266 C25.055639267578126,81.96040064697266 25.720129267578123,80.44434064697265 25.720129267578123,80.44434064697265 C25.720129267578123,80.44434064697265 12.482259267578124,74.56689064697267 12.482259267578124,74.56689064697267 C12.482259267578124,74.56689064697267 11.153279267578124,77.59902064697266 11.153279267578124,77.59902064697266 C11.153279267578124,77.59902064697266 12.100819267578125,78.01433064697267 12.100819267578125,78.01433064697267 C12.100819267578125,78.01433064697267 11.380959267578124,79.65673064697265 11.380959267578124,79.65673064697265 C11.380959267578124,79.65673064697265 11.380959267578124,79.65673064697265 11.380959267578124,79.65673064697265 M35.39976926757812,64.67300064697265 C35.39976926757812,64.67300064697265 38.30476926757812,59.98151064697266 38.30476926757812,59.98151064697266 C38.30476926757812,59.98151064697266 37.432059267578126,59.42591064697265 37.432059267578126,59.42591064697265 C37.432059267578126,59.42591064697265 36.971679267578125,60.277480646972656 36.971679267578125,60.277480646972656 C31.973379267578125,57.34068064697266 26.589129267578127,53.340560646972655 22.658369267578124,55.66202064697266 C21.330349267578125,57.105890646972654 21.340659267578125,58.50240064697265 21.493719267578125,60.316830646972655 C21.493719267578125,60.316830646972655 17.214729267578125,57.91973064697265 17.214729267578125,57.91973064697265 C17.214729267578125,57.91973064697265 18.066639267578125,56.58157064697266 18.066639267578125,56.58157064697266 C18.066639267578125,56.58157064697266 17.040529267578123,56.01008064697265 17.040529267578123,56.01008064697265 C17.040529267578123,56.01008064697265 13.077279267578126,62.23541064697265 13.077279267578126,62.23541064697265 C13.077279267578126,62.23541064697265 14.140429267578124,62.74873064697265 14.140429267578124,62.74873064697265 C14.140429267578124,62.74873064697265 14.918259267578126,61.52693064697266 14.918259267578126,61.52693064697266 C14.918259267578126,61.52693064697266 29.897089267578124,71.38999064697265 29.897089267578124,71.38999064697265 C29.897089267578124,71.38999064697265 29.357389267578125,72.10931064697266 29.357389267578125,72.10931064697266 C29.357389267578125,72.10931064697266 30.499869267578127,72.75488064697265 30.499869267578127,72.75488064697265 C30.499869267578127,72.75488064697265 34.145659267578125,66.89977064697266 34.145659267578125,66.89977064697266 C34.145659267578125,66.89977064697266 32.98728926757813,66.40760064697265 32.98728926757813,66.40760064697265 C32.98728926757813,66.40760064697265 32.41578926757813,67.43371064697266 32.41578926757813,67.43371064697266 C32.41578926757813,67.43371064697266 22.620289267578123,61.115810646972655 22.620289267578123,61.115810646972655 C21.642049267578123,59.18484064697266 22.816669267578124,57.72508064697266 24.953619267578127,58.349690646972654 C27.958049267578126,59.28127064697266 31.713419267578125,61.34501064697265 34.86041926757812,63.593780646972654 C34.86041926757812,63.593780646972654 34.56409926757812,64.05922064697265 34.56409926757812,64.05922064697265 C34.56409926757812,64.05922064697265 35.39976926757812,64.67300064697265 35.39976926757812,64.67300064697265 M21.171359267578126,58.639900646972656 C21.071239267578125,56.613890646972656 22.711479267578124,54.551180646972654 24.610469267578125,54.779000646972655 C28.334729267578126,53.55249064697266 33.058019267578125,56.15068064697265 37.712479267578125,59.113860646972654 C37.712479267578125,59.113860646972654 38.98737926757813,58.78085064697266 38.98737926757813,58.78085064697266 C38.98737926757813,58.78085064697266 40.20917926757812,59.558680646972654 40.20917926757812,59.558680646972654 C40.20917926757812,59.558680646972654 37.118979267578126,64.54109064697266 37.118979267578126,64.54109064697266 C36.56879926757813,64.76315064697266 35.99223926757813,64.64138064697266 35.48433926757812,65.05388064697266 C35.48433926757812,65.05388064697266 34.183219267578124,64.14379064697266 34.183219267578124,64.14379064697266 C34.183219267578124,64.14379064697266 34.51656926757813,63.62016064697266 34.51656926757813,63.62016064697266 C31.216169267578124,61.355490646972655 27.381489267578125,59.15949064697266 24.324119267578126,58.43949064697266 C23.937819267578124,59.17470064697265 24.239209267578126,59.85714064697266 24.408339267578125,60.61891064697266 C24.408339267578125,60.61891064697266 32.92386926757813,66.12193064697266 32.92386926757813,66.12193064697266 C32.92386926757813,66.12193064697266 32.86567926757812,66.08489064697265 32.90271926757813,66.02671064697265 C33.55860926757813,66.28075064697265 34.00832926757813,65.83120064697266 34.600799267578125,65.79958064697266 C34.600799267578125,65.79958064697266 36.050069267578124,66.47695064697265 36.050069267578124,66.47695064697265 C36.050069267578124,66.47695064697265 32.219079267578124,72.62296064697266 32.219079267578124,72.62296064697266 C31.668899267578126,72.84503064697266 31.092329267578126,72.72325064697266 30.584429267578123,73.13576064697266 C30.584429267578123,73.13576064697266 29.071729267578124,72.17273064697265 29.071729267578124,72.17273064697265 C29.071729267578124,72.17273064697265 29.553249267578124,71.41638064697266 29.553249267578124,71.41638064697266 C29.553249267578124,71.41638064697266 15.933719267578125,62.50045064697266 15.933719267578125,62.50045064697266 C15.388779267578125,62.97114064697266 14.711749267578124,62.621880646972656 14.166809267578126,63.09257064697265 C14.166809267578126,63.09257064697265 12.791609267578124,62.29884064697266 12.791609267578124,62.29884064697266 C14.241409267578124,60.27841064697266 15.559109267578124,57.43804064697266 17.093469267578126,55.798500646972656 C17.987489267578127,55.55004064697266 18.823339267578127,55.264560646972654 19.971049267578124,56.158750646972656 C19.971049267578124,56.158750646972656 19.119139267578127,57.49691064697266 19.119139267578127,57.49691064697266 C19.119139267578127,57.49691064697266 21.171359267578126,58.639900646972656 21.171359267578126,58.639900646972656 M32.46902926757812,51.03626064697266 C32.46902926757812,51.03626064697266 29.809069267578124,47.80595064697266 29.809069267578124,47.80595064697266 C29.773339267578127,47.12411064697265 30.763329267578126,44.581560646972655 31.870529267578124,45.20725064697265 C31.870529267578124,45.20725064697265 35.24335926757813,47.130450646972655 35.24335926757813,47.130450646972655 C35.24335926757813,47.130450646972655 32.46902926757812,51.03626064697266 32.46902926757812,51.03626064697266 M39.347839267578124,55.55941064697265 C37.533079267578124,55.41033064697265 34.84717926757813,53.54880064697265 33.28910926757813,51.77467064697265 C33.28910926757813,51.77467064697265 38.43262926757812,44.61916064697266 38.43262926757812,44.61916064697266 C34.75246926757813,41.491150646972656 30.830519267578126,42.13622064697266 28.399459267578123,47.00076064697265 C25.845249267578126,52.31129064697265 33.45590926757812,62.412280646972654 39.49608926757813,57.45626064697266 C41.93163926757813,55.47283064697265 42.767859267578125,52.79184064697266 43.332289267578126,50.51578064697266 C43.332289267578126,50.51578064697266 43.99349926757812,51.01833064697266 43.99349926757812,51.01833064697266 C43.99349926757812,51.01833064697266 44.87545926757812,50.14188064697265 44.87545926757812,50.14188064697265 C44.87545926757812,50.14188064697265 42.01027926757813,47.654870646972654 42.01027926757813,47.654870646972654 C42.01027926757813,47.654870646972654 41.179569267578124,48.57746064697265 41.179569267578124,48.57746064697265 C41.179569267578124,48.57746064697265 42.04580926757812,49.264610646972656 42.04580926757812,49.264610646972656 C41.901839267578126,51.17678064697266 41.198959267578125,53.606610646972655 39.347839267578124,55.55941064697265 C39.347839267578124,55.55941064697265 39.347839267578124,55.55941064697265 39.347839267578124,55.55941064697265 M44.982869267578124,51.25949064697265 C44.28488926757812,54.71463064697265 40.77214926757813,59.44052064697266 37.22471926757812,58.84505064697266 C32.32850926757813,60.46907064697265 27.316329267578126,53.357440646972655 27.799089267578125,49.522890646972655 C27.205069267578125,46.57499064697265 31.245879267578125,41.67492064697265 34.362639267578125,42.43947064697265 C36.300539267578124,42.142560646972655 38.34073926757812,42.865860646972656 40.38073926757812,44.51706064697265 C40.38073926757812,44.51706064697265 35.28846926757812,51.718720646972656 35.28846926757812,51.718720646972656 C36.18533926757813,52.990300646972656 38.35356926757812,54.29293064697266 39.60942926757812,54.95966064697266 C41.029879267578124,53.175940646972656 41.609619267578125,51.192100646972655 41.809949267578126,49.423480646972656 C41.50241926757813,49.14658064697265 41.13852926757812,48.72612064697266 40.78994926757812,48.597880646972655 C41.605339267578124,47.38308064697266 42.57428926757812,47.23462064697266 43.70210926757812,47.32202064697266 C43.70210926757812,47.32202064697266 46.82356926757812,50.039790646972655 46.82356926757812,50.039790646972655 C46.22361926757813,50.70610064697266 45.62365926757813,51.37242064697266 44.982869267578124,51.25949064697265 C44.982869267578124,51.25949064697265 44.982869267578124,51.25949064697265 44.982869267578124,51.25949064697265 M32.43942926757813,45.812310646972655 C31.095969267578127,47.201300646972655 31.890319267578125,48.38058064697266 33.176799267578126,49.631750646972655 C33.176799267578126,49.631750646972655 34.904989267578124,47.19702064697266 34.904989267578124,47.19702064697266 C34.904989267578124,47.19702064697266 32.43942926757813,45.812310646972655 32.43942926757813,45.812310646972655 M48.53485926757813,25.459900646972656 C55.45050926757813,19.899730646972657 62.23462926757813,31.612720646972654 59.661869267578126,37.148670646972654 C59.326109267578126,38.02463064697265 58.81979926757813,38.764610646972656 58.10539926757812,39.310790646972656 C58.10539926757812,39.310790646972656 48.53485926757813,25.459900646972656 48.53485926757813,25.459900646972656 M43.58289926757813,29.991550646972655 C43.58289926757813,29.991550646972655 44.21917926757813,29.578340646972656 44.21917926757813,29.578340646972656 C44.21917926757813,29.578340646972656 43.82625926757812,28.84666064697266 43.82625926757812,28.84666064697266 C43.82625926757812,28.84666064697266 44.91099926757812,27.731030646972656 44.91099926757812,27.731030646972656 C44.91099926757812,27.731030646972656 54.27574926757812,42.78465064697266 54.27574926757812,42.78465064697266 C54.27574926757812,42.78465064697266 52.77180926757812,43.761320646972656 52.77180926757812,43.761320646972656 C52.77180926757812,43.761320646972656 52.30375926757813,42.913940646972655 52.30375926757813,42.913940646972655 C52.30375926757813,42.913940646972655 51.66747926757812,43.327150646972655 51.66747926757812,43.327150646972655 C51.66747926757812,43.327150646972655 53.037069267578126,45.56277064697265 53.037069267578126,45.56277064697265 C53.037069267578126,45.56277064697265 53.65305926757813,45.24497064697266 53.65305926757813,45.24497064697266 C53.65305926757813,45.24497064697266 53.222579267578126,44.45544064697266 53.222579267578126,44.45544064697266 C58.113019267578125,41.855220646972654 61.540759267578125,38.395650646972655 61.49326926757813,34.39683064697266 C61.431499267578126,29.996090646972657 58.64644926757812,24.567780646972658 54.356099267578124,23.406540646972655 C50.96197926757813,22.485660646972654 46.384039267578125,24.554000646972657 43.30035926757812,28.036850646972656 C43.30035926757812,28.036850646972656 43.02012926757813,27.478690646972655 43.02012926757813,27.478690646972655 C43.02012926757813,27.478690646972655 42.325999267578126,27.929460646972657 42.325999267578126,27.929460646972657 C42.325999267578126,27.929460646972657 43.58289926757813,29.991550646972655 43.58289926757813,29.991550646972655 M52.42243926757813,42.590160646972656 C52.64781926757813,42.937220646972655 53.411079267578124,43.09946064697266 53.989519267578125,42.723820646972655 C53.989519267578125,42.723820646972655 46.01164926757812,30.059060646972657 46.01164926757812,30.059060646972657 C45.005029267578124,31.041720646972657 44.34615926757812,30.153790646972656 43.46421926757812,30.315340646972658 C43.46421926757812,30.315340646972658 42.00221926757813,27.810780646972656 42.00221926757813,27.810780646972656 C42.522809267578126,27.472700646972655 43.005839267578125,27.076780646972658 43.537719267578126,27.389270646972655 C47.08414926757813,23.605910646972657 52.32694926757813,21.928190646972656 55.732359267578126,23.499640646972658 C61.19386926757812,24.311510646972657 64.52372926757812,33.74463064697265 62.52409926757812,37.757060646972654 C61.21029926757812,40.419490646972655 58.673479267578124,42.97153064697265 55.168289267578125,44.91888064697265 C55.168289267578125,44.91888064697265 55.561219267578124,45.65056064697266 55.561219267578124,45.65056064697266 C54.53731926757813,46.47997064697266 53.83788926757812,45.782850646972655 52.95594926757812,45.94440064697265 C52.95594926757812,45.94440064697265 51.34368926757813,43.208460646972654 51.34368926757813,43.208460646972654 C51.34368926757813,43.208460646972654 52.42243926757813,42.590160646972656 52.42243926757813,42.590160646972656 M58.86634926757813,38.076480646972655 C61.43542926757812,34.43439064697266 59.15737926757812,26.620880646972658 54.11273926757812,24.551430646972655 C52.90701926757812,24.594300646972655 51.715569267578125,25.039080646972657 50.44301926757812,25.865490646972656 C50.44301926757812,25.865490646972656 58.86634926757813,38.076480646972655 58.86634926757813,38.076480646972655 M64.23786926757813,36.91305064697266 C64.23786926757813,36.91305064697266 70.40545926757812,34.14696064697266 70.40545926757812,34.14696064697266 C70.40545926757812,34.14696064697266 69.95611926757812,33.289520646972655 69.95611926757812,33.289520646972655 C69.95611926757812,33.289520646972655 68.69179926757812,33.841120646972655 68.69179926757812,33.841120646972655 C65.95205926757812,28.941270646972654 65.45245926757812,23.139320646972656 67.82954926757813,19.619010646972654 C68.35943926757813,18.936330646972657 68.99964926757812,18.506520646972657 69.84098926757812,18.365200646972657 C68.13415926757813,19.109870646972656 68.00404926757813,22.778580646972657 70.08894926757813,23.072950646972657 C72.81747926757812,23.462760646972654 72.71888926757813,19.442320646972657 70.86049926757812,17.76990064697266 C65.99190926757812,16.959300646972657 65.12490926757812,22.905980646972658 65.19250926757812,26.337940646972655 C65.19250926757812,26.337940646972655 63.03317926757813,21.561110646972658 63.03317926757813,21.561110646972658 C63.03317926757813,21.561110646972658 64.55036926757813,20.899180646972656 64.55036926757813,20.899180646972656 C64.55036926757813,20.899180646972656 64.13665926757812,19.950940646972654 64.13665926757812,19.950940646972654 C64.13665926757812,19.950940646972654 57.90585926757812,22.744610646972657 57.90585926757812,22.744610646972657 C57.90585926757812,22.744610646972657 58.31955926757813,23.692850646972655 58.31955926757813,23.692850646972655 C58.31955926757813,23.692850646972655 59.26779926757813,23.279140646972657 59.26779926757813,23.279140646972657 C59.26779926757813,23.279140646972657 65.01721926757813,35.594790646972655 65.01721926757813,35.594790646972655 C65.01721926757813,35.594790646972655 63.816099267578124,36.11882064697266 63.816099267578124,36.11882064697266 C63.816099267578124,36.11882064697266 64.23786926757813,36.91305064697266 64.23786926757813,36.91305064697266 M68.58909926757812,22.222340646972658 C67.68550926757813,25.325520646972656 68.19096926757813,29.243690646972656 69.68372926757812,33.182610646972655 C70.56069926757812,32.95050064697266 71.76862926757812,33.476980646972656 72.22138926757813,34.85967064697266 C72.22138926757813,34.85967064697266 65.73770926757813,37.763670646972656 65.73770926757813,37.763670646972656 C65.15729926757813,37.64065064697266 64.74700926757812,37.217660646972654 64.09532926757812,37.27623064697266 C64.09532926757812,37.27623064697266 63.516139267578126,35.948700646972654 63.516139267578126,35.948700646972654 C63.516139267578126,35.948700646972654 64.71723926757812,35.42467064697266 64.71723926757812,35.42467064697266 C64.71723926757812,35.42467064697266 59.483809267578124,24.464140646972655 59.483809267578124,24.464140646972655 C59.05740926757812,24.349170646972656 58.674689267578124,23.989400646972655 58.177019267578125,24.056030646972655 C58.177019267578125,24.056030646972655 57.57025926757812,22.665280646972658 57.57025926757812,22.665280646972658 C59.747179267578126,21.790760646972657 62.209189267578125,20.189880646972657 64.27114926757812,19.741760646972658 C64.78028926757813,20.046370646972655 65.43197926757813,19.987800646972655 65.86984926757813,20.474000646972655 C66.32969926757812,18.76840064697266 69.17564926757812,16.322760646972657 71.11336926757812,17.659580646972657 C74.04765926757813,17.658620646972658 75.35977926757812,24.460560646972656 71.47041926757812,23.824720646972658 C70.45212926757813,23.215500646972657 69.23149926757813,23.522290646972657 68.58909926757812,22.222340646972658 C68.58909926757812,22.222340646972658 68.58909926757812,22.222340646972658 68.58909926757812,22.222340646972658 M65.23522926757812,23.158840646972656 C65.23522926757812,23.158840646972656 65.41805926757812,22.025600646972656 65.41805926757812,22.025600646972656 C65.41805926757812,22.025600646972656 64.84910926757811,22.273820646972656 64.84910926757811,22.273820646972656 C64.84910926757811,22.273820646972656 65.23522926757812,23.158840646972656 65.23522926757812,23.158840646972656 C65.23522926757812,23.158840646972656 65.23522926757812,23.158840646972656 65.23522926757812,23.158840646972656 M79.21450926757812,20.582290646972655 C79.21450926757812,20.582290646972655 78.78391926757813,16.419980646972654 78.78391926757813,16.419980646972654 C79.13110926757813,15.832060646972657 81.36169926757813,14.260730646972656 81.93838926757812,15.394220646972656 C81.93838926757812,15.394220646972656 83.68563926757813,18.861470646972656 83.68563926757813,18.861470646972656 C83.68563926757813,18.861470646972656 79.21450926757812,20.582290646972655 79.21450926757812,20.582290646972655 M82.44582926757812,28.154310646972657 C81.01604926757813,27.026790646972657 79.80710926757813,23.990710646972655 79.48963926757813,21.650980646972656 C79.48963926757813,21.650980646972656 87.73156926757812,18.532070646972656 87.73156926757812,18.532070646972656 C86.39430926757812,13.890970646972656 82.76959926757812,12.260230646972657 78.05446926757813,14.969720646972656 C72.99014926757812,17.982770646972657 73.74757926757812,30.607280646972654 81.52067926757812,29.816880646972656 C84.64671926757813,29.510630646972658 86.82572926757813,27.738930646972655 88.55437926757813,26.154390646972658 C88.55437926757813,26.154390646972658 88.82751926757813,26.938700646972656 88.82751926757813,26.938700646972656 C88.82751926757813,26.938700646972656 90.04697926757812,26.695980646972657 90.04697926757812,26.695980646972657 C90.04697926757812,26.695980646972657 89.03443926757812,23.039580646972656 89.03443926757812,23.039580646972656 C89.03443926757812,23.039580646972656 87.83216926757812,23.349090646972655 87.83216926757812,23.349090646972655 C87.83216926757812,23.349090646972655 88.17408926757813,24.400580646972656 88.17408926757813,24.400580646972656 C86.99696926757812,25.914360646972657 85.06793926757813,27.550480646972655 82.44582926757812,28.154310646972657 C82.44582926757812,28.154310646972657 82.44582926757812,28.154310646972657 82.44582926757812,28.154310646972657 M89.51859926757813,27.686640646972656 C87.02680926757813,30.179850646972657 81.48699926757813,32.17579064697266 78.86019926757812,29.718390646972658 C73.88244926757812,28.364760646972655 73.63760926757813,19.667790646972655 76.15981926757811,16.739440646972657 C77.29459926757812,13.954610646972656 83.37073926757813,12.105470646972655 85.54518926757812,14.465670646972656 C87.32414926757812,15.289640646972657 88.62431926757813,17.020280646972658 89.41132926757813,19.524010646972656 C89.41132926757813,19.524010646972656 81.18659926757812,22.709720646972656 81.18659926757812,22.709720646972656 C81.23092926757812,24.265130646972658 82.31750926757812,26.549300646972657 82.99537926757813,27.799170646972655 C85.16514926757813,27.098140646972656 86.74500926757813,25.765560646972656 87.88972926757813,24.402570646972656 C87.78655926757813,24.001820646972657 87.71578926757812,23.450280646972658 87.49621926757813,23.150710646972655 C88.84727926757813,22.589230646972656 89.73675926757812,23.001210646972655 90.62821926757812,23.697560646972658 C90.62821926757812,23.697560646972658 91.72673926757813,27.687920646972657 91.72673926757813,27.687920646972657 C90.85842926757812,27.911460646972657 89.99012926757813,28.135010646972656 89.51859926757813,27.686640646972656 C89.51859926757813,27.686640646972656 89.51859926757813,27.686640646972656 89.51859926757813,27.686640646972656 M82.07793926757813,16.212930646972655 C80.19054926757812,16.627610646972656 80.20048926757812,18.049440646972656 80.58077926757812,19.803240646972657 C80.58077926757812,19.803240646972657 83.36688926757813,18.729880646972656 83.36688926757813,18.729880646972656 C83.36688926757813,18.729880646972656 82.07793926757813,16.212930646972655 82.07793926757813,16.212930646972655 M100.60519926757813,22.033370646972656 C98.85289926757812,23.487510646972655 96.95457926757813,25.714360646972658 94.67539926757813,24.027770646972655 C91.75616926757812,20.385670646972656 96.10768926757812,17.686700646972657 100.22738926757812,17.28942064697266 C100.22738926757812,17.28942064697266 100.60519926757813,22.033370646972656 100.60519926757813,22.033370646972656 C100.60519926757813,22.033370646972656 100.60519926757813,22.033370646972656 100.60519926757813,22.033370646972656 M105.44950926757812,25.522150646972655 C103.63398926757813,19.232170646972655 106.26917926757812,9.750990646972657 98.90408926757813,11.098610646972656 C94.81724926757812,11.908410646972657 91.11796926757813,13.240850646972657 90.93237926757813,16.991830646972655 C91.34121926757813,19.519260646972654 95.80225926757812,18.195340646972657 96.08335926757813,16.512420646972657 C96.31761926757812,15.109990646972657 95.28389926757812,14.292860646972656 94.93770926757813,13.420970646972656 C96.59934926757812,11.697290646972656 99.30261926757812,11.758760646972656 99.90128926757812,14.063510646972656 C100.09355926757813,14.740090646972655 100.21705926757812,15.422140646972656 100.13978926757812,16.189370646972655 C95.17557926757813,17.276610646972657 91.36859926757813,19.863030646972657 89.67590926757813,23.803220646972655 C88.67865926757813,28.656680646972656 95.13047926757812,28.004490646972656 97.84288926757813,25.574430646972658 C98.74519926757813,24.741490646972657 99.93347926757812,24.024150646972657 100.70374926757812,23.270920646972655 C100.70374926757812,23.270920646972655 100.91181926757812,25.883530646972655 100.91181926757812,25.883530646972655 C100.91181926757812,25.883530646972655 99.67426926757813,25.982090646972658 99.67426926757813,25.982090646972658 C99.67426926757813,25.982090646972658 99.74544926757812,26.875880646972657 99.74544926757812,26.875880646972657 C99.74544926757812,26.875880646972657 106.68948926757813,26.322860646972657 106.68948926757813,26.322860646972657 C106.68948926757813,26.322860646972657 106.61830926757813,25.429070646972658 106.61830926757813,25.429070646972658 C106.61830926757813,25.429070646972658 105.44950926757812,25.522150646972655 105.44950926757812,25.522150646972655 C105.44950926757812,25.522150646972655 105.44950926757812,25.522150646972655 105.44950926757812,25.522150646972655 M90.64092926757812,16.807470646972657 C91.23904926757812,13.023640646972657 95.23828926757812,11.113800646972656 99.63847926757812,10.763370646972657 C106.44500926757813,10.221300646972656 105.65824926757813,18.586630646972658 106.59640926757812,25.154060646972656 C107.31130926757812,25.443070646972657 108.26532926757812,26.128170646972656 108.17404926757813,27.588410646972655 C108.17404926757813,27.588410646972655 100.88624926757812,28.168800646972656 100.88624926757812,28.168800646972656 C100.42992926757813,27.651630646972656 99.59393926757812,27.579830646972656 99.45400926757813,26.691520646972656 C97.44859926757813,28.442570646972655 93.07821926757812,30.036030646972655 91.07710926757812,27.497020646972658 C87.51109926757812,25.290220646972656 90.33972926757812,20.844420646972658 92.85378926757812,19.398800646972656 C92.09506926757813,18.559770646972655 90.83014926757812,18.314560646972655 90.64092926757812,16.807470646972657 C90.64092926757812,16.807470646972657 90.64092926757812,16.807470646972657 90.64092926757812,16.807470646972657 M100.07283926757813,18.823880646972654 C97.77904926757813,19.560070646972655 95.21571926757812,20.386910646972655 95.14328926757813,22.952670646972656 C95.88190926757812,26.145730646972655 98.69896926757812,23.292200646972656 100.32470926757813,21.986520646972657 C100.32470926757813,21.986520646972657 100.07283926757813,18.823880646972654 100.07283926757813,18.823880646972654 C100.07283926757813,18.823880646972654 100.07283926757813,18.823880646972654 100.07283926757813,18.823880646972654 M96.41679926757813,14.617770646972657 C96.79340926757813,15.002910646972657 97.35133926757813,15.927120646972655 97.54907926757812,16.672450646972656 C98.28345926757812,16.337210646972657 99.02330926757813,16.070720646972656 99.91709926757812,15.999540646972656 C99.75526926757813,14.836220646972656 99.91528926757813,13.370500646972657 98.74648926757813,13.463590646972657 C97.72067926757812,13.614470646972656 97.12927926757813,14.007510646972657 96.41679926757813,14.617770646972657 C96.41679926757813,14.617770646972657 96.41679926757813,14.617770646972657 96.41679926757813,14.617770646972657 M100.09660926757813,13.909580646972657 C100.09660926757813,13.909580646972657 100.09112926757813,13.840820646972656 100.09112926757813,13.840820646972656 C100.09112926757813,13.840820646972656 100.09660926757813,13.909580646972657 100.09660926757813,13.909580646972657 C100.09660926757813,13.909580646972657 100.09660926757813,13.909580646972657 100.09660926757813,13.909580646972657 M96.06383926757813,24.955030646972656 C96.06383926757813,24.955030646972656 96.13806926757813,25.018310646972655 96.13806926757813,25.018310646972655 C96.13806926757813,25.018310646972655 96.06383926757813,24.955030646972656 96.06383926757813,24.955030646972656 M117.98222926757812,13.592260646972656 C118.89150926757813,16.669140646972657 117.36532926757812,21.455200646972656 116.49604926757813,24.739210646972655 C116.49604926757813,24.739210646972655 115.61047926757813,24.598940646972657 115.61047926757813,24.598940646972657 C115.61047926757813,24.598940646972657 115.40547926757813,25.893250646972657 115.40547926757813,25.893250646972657 C115.40547926757813,25.893250646972657 121.54717926757813,26.796170646972655 121.54717926757813,26.796170646972655 C121.54717926757813,26.796170646972655 121.74139926757813,25.569990646972656 121.74139926757813,25.569990646972656 C121.74139926757813,25.569990646972656 120.51521926757812,25.375780646972657 120.51521926757812,25.375780646972657 C121.25565926757812,21.582560646972656 120.91018926757812,16.709550646972655 123.97289926757813,15.448880646972656 C125.13159926757812,14.305620646972656 127.01740926757813,14.743970646972656 127.31761926757812,16.816590646972656 C127.78240926757813,19.613590646972657 127.68002926757812,23.787190646972658 126.90382926757812,27.365260646972658 C126.90382926757812,27.365260646972658 125.74575926757812,27.181840646972656 125.74575926757812,27.181840646972656 C125.74575926757812,27.181840646972656 125.55154926757812,28.408030646972655 125.55154926757812,28.408030646972655 C125.55154926757812,28.408030646972655 131.69326926757813,29.310950646972657 131.69326926757813,29.310950646972657 C131.69326926757813,29.310950646972657 131.88746926757813,28.084760646972654 131.88746926757813,28.084760646972654 C131.88746926757813,28.084760646972654 130.11631926757812,27.804240646972655 130.11631926757812,27.804240646972655 C131.58515926757812,22.939270646972655 134.02038926757814,14.177200646972656 128.70352926757812,12.916110646972657 C126.11829926757812,12.925630646972657 124.17788926757812,14.154570646972656 121.90026926757812,15.749080646972656 C122.58677926757812,12.296460646972657 118.67887926757813,11.398190646972656 116.16114926757812,12.745180646972656 C114.70499926757813,13.562010646972656 113.26302926757812,14.730220646972656 112.38019926757812,16.336160646972658 C112.38019926757812,16.336160646972658 112.89808926757813,13.066330646972656 112.89808926757813,13.066330646972656 C112.89808926757813,13.066330646972656 113.52196926757813,13.095310646972656 113.52196926757813,13.095310646972656 C113.61907926757813,12.482220646972657 114.03182926757812,11.639800646972656 112.89871926757813,11.739650646972656 C112.89871926757813,11.739650646972656 107.72148926757812,10.919660646972655 107.72148926757812,10.919660646972655 C107.72148926757812,10.919660646972655 107.52728926757813,12.145850646972656 107.52728926757813,12.145850646972656 C107.52728926757813,12.145850646972656 109.36656926757813,12.437160646972655 109.36656926757813,12.437160646972655 C109.36656926757813,12.437160646972655 107.42108926757813,24.279500646972657 107.42108926757813,24.279500646972657 C107.42108926757813,24.279500646972657 106.05865926757812,24.063710646972655 106.05865926757812,24.063710646972655 C106.05865926757812,24.063710646972655 105.86444926757812,25.289900646972654 105.86444926757812,25.289900646972654 C105.86444926757812,25.289900646972654 112.05271926757813,26.339850646972657 112.05271926757813,26.339850646972657 C112.05271926757813,26.339850646972657 112.24691926757812,25.113670646972658 112.24691926757812,25.113670646972658 C112.24691926757812,25.113670646972658 111.09964926757813,24.862120646972656 111.09964926757813,24.862120646972656 C112.05248926757812,19.286960646972656 113.44241926757813,14.479320646972656 117.98222926757812,13.592260646972656 C117.98222926757812,13.592260646972656 117.98222926757812,13.592260646972656 117.98222926757812,13.592260646972656 M131.42774926757812,14.674360646972657 C133.87547926757813,17.296610646972656 133.15194926757812,23.187420646972654 131.79438926757814,27.790700646972656 C132.3858992675781,28.024050646972658 132.52891926757812,28.884660646972655 133.08805926757813,29.322370646972658 C133.08805926757813,29.322370646972658 132.83990926757812,30.889170646972655 132.83990926757812,30.889170646972655 C132.83990926757812,30.889170646972655 126.35757926757813,29.932300646972656 126.35757926757813,29.932300646972656 C125.93467926757812,29.516160646972658 125.82740926757812,28.870700646972658 125.24668926757812,28.569230646972656 C125.24668926757812,28.569230646972656 125.51641926757813,26.866200646972658 125.51641926757813,26.866200646972658 C125.51641926757813,26.866200646972658 126.74261926757812,27.060410646972656 126.74261926757812,27.060410646972656 C127.48306926757813,23.267180646972655 127.87951926757812,19.000500646972657 126.83738926757813,16.321550646972657 C123.32340926757813,16.463300646972655 121.98742926757812,20.930330646972656 121.96734926757813,25.466110646972655 C121.96734926757813,25.466110646972655 122.94198926757812,26.807600646972656 122.94198926757812,26.807600646972656 C122.94198926757812,26.807600646972656 122.69383926757813,28.374390646972657 122.69383926757813,28.374390646972657 C122.69383926757813,28.374390646972657 116.21150926757812,27.417520646972655 116.21150926757812,27.417520646972655 C115.78860926757812,27.001390646972656 115.76025926757812,26.298600646972655 115.10061926757813,26.054460646972657 C115.10061926757813,26.054460646972657 115.37034926757812,24.351420646972656 115.37034926757812,24.351420646972656 C115.37034926757812,24.351420646972656 116.25591926757812,24.491690646972657 116.25591926757812,24.491690646972657 C117.14277926757812,21.978600646972655 117.90818926757812,18.468650646972655 118.03152926757812,15.485480646972656 C114.50274926757812,16.602510646972657 113.46823926757813,20.488810646972656 112.53019926757813,25.088700646972658 C113.11430926757812,25.809690646972655 113.71999926757813,26.394430646972655 113.19934926757813,27.918070646972655 C113.19934926757813,27.918070646972655 106.73860926757813,26.824950646972656 106.73860926757813,26.824950646972656 C106.31570926757813,26.408820646972657 106.19765926757813,25.831480646972658 105.61692926757813,25.530010646972656 C105.61692926757813,25.530010646972656 105.89745926757813,23.758860646972657 105.89745926757813,23.758860646972657 C105.89745926757813,23.758860646972657 107.19175926757812,23.963860646972655 107.19175926757812,23.963860646972655 C107.19175926757812,23.963860646972655 108.87828926757813,13.756430646972657 108.87828926757813,13.756430646972657 C107.76676926757813,13.720040646972656 107.99672926757812,12.709010646972656 107.21163926757812,12.375170646972656 C107.21163926757812,12.375170646972656 107.49216926757812,10.604020646972657 107.49216926757812,10.604020646972657 C107.49216926757812,10.604020646972657 113.99944926757813,11.844160646972655 113.99944926757813,11.844160646972655 C113.99944926757813,11.844160646972655 114.90597926757812,13.174860646972656 114.90597926757812,13.174860646972656 C116.66358926757813,11.777310646972657 120.70496926757812,10.950960646972657 121.81521926757813,13.640700646972656 C122.10188926757813,14.035250646972656 122.46745926757812,14.372480646972656 122.66441926757813,14.892480646972656 C125.13560926757812,13.398460646972657 127.41323926757812,11.803960646972657 130.45310926757813,13.332880646972656 C130.8867992675781,13.680890646972657 131.16267926757814,14.143570646972655 131.42774926757812,14.674360646972657 C131.42774926757812,14.674360646972657 131.42774926757812,14.674360646972657 131.42774926757812,14.674360646972657 M159.9725792675781,25.531980646972656 C159.9725792675781,25.531980646972656 161.24705926757812,26.220120646972656 161.24705926757812,26.220120646972656 C161.24705926757812,26.220120646972656 162.95100926757812,23.064280646972655 162.95100926757812,23.064280646972655 C162.95100926757812,23.064280646972655 161.67654926757814,22.376150646972658 161.67654926757814,22.376150646972658 C161.67654926757814,22.376150646972658 161.05393926757813,23.529240646972656 161.05393926757813,23.529240646972656 C161.05393926757813,23.529240646972656 147.82371926757813,16.385710646972655 147.82371926757813,16.385710646972655 C147.82371926757813,16.385710646972655 148.4135492675781,15.293300646972657 148.4135492675781,15.293300646972657 C148.4135492675781,15.293300646972657 147.13908926757813,14.605160646972656 147.13908926757813,14.605160646972656 C147.13908926757813,14.605160646972656 145.43511926757813,17.761000646972654 145.43511926757813,17.761000646972654 C145.43511926757813,17.761000646972654 146.70957926757814,18.44914064697266 146.70957926757814,18.44914064697266 C146.70957926757814,18.44914064697266 147.20110926757812,17.538800646972657 147.20110926757812,17.538800646972657 C147.20110926757812,17.538800646972657 151.51003926757812,19.865360646972654 151.51003926757812,19.865360646972654 C151.51003926757812,19.865360646972654 143.87498926757814,34.005920646972655 143.87498926757814,34.005920646972655 C143.87498926757814,34.005920646972655 142.35775926757813,33.18671064697266 142.35775926757813,33.18671064697266 C142.35775926757813,33.18671064697266 141.76791926757812,34.279110646972654 141.76791926757812,34.279110646972654 C141.76791926757812,34.279110646972654 148.14027926757814,37.71980064697266 148.14027926757814,37.71980064697266 C148.14027926757814,37.71980064697266 148.73010926757814,36.62740064697266 148.73010926757814,36.62740064697266 C148.73010926757814,36.62740064697266 147.63770926757815,36.037570646972654 147.63770926757815,36.037570646972654 C147.63770926757815,36.037570646972654 155.33344926757815,21.929780646972656 155.33344926757815,21.929780646972656 C155.33344926757815,21.929780646972656 160.43133926757812,24.682330646972655 160.43133926757812,24.682330646972655 C160.43133926757812,24.682330646972655 159.9725792675781,25.531980646972656 159.9725792675781,25.531980646972656 C159.9725792675781,25.531980646972656 159.9725792675781,25.531980646972656 159.9725792675781,25.531980646972656 M145.69007926757814,19.466310646972655 C145.42910926757813,18.933480646972654 145.5091892675781,18.349660646972655 145.06127926757813,17.872680646972654 C145.06127926757813,17.872680646972654 146.99462926757812,14.292020646972656 146.99462926757812,14.292020646972656 C148.42808926757812,14.830860646972656 148.8942092675781,15.709600646972657 149.07511926757815,16.826240646972657 C149.07511926757815,16.826240646972657 160.97016926757811,23.248870646972655 160.97016926757811,23.248870646972655 C160.97016926757811,23.248870646972655 161.59277926757812,22.095770646972657 161.59277926757812,22.095770646972657 C163.05900926757812,22.573920646972656 163.4923692675781,23.513350646972658 163.64050926757812,24.690680646972655 C163.64050926757812,24.690680646972655 161.80546926757813,28.089270646972658 161.80546926757813,28.089270646972658 C161.80546926757813,28.089270646972658 160.22753926757812,27.237290646972657 160.22753926757812,27.237290646972657 C160.22753926757812,27.237290646972657 159.8366592675781,25.928880646972658 159.8366592675781,25.928880646972658 C159.8366592675781,25.928880646972658 155.89185926757813,23.798930646972657 155.89185926757813,23.798930646972657 C155.89185926757813,23.798930646972657 148.94979926757813,36.510870646972656 148.94979926757813,36.510870646972656 C149.15008926757812,37.01093064697265 149.28483926757812,37.63236064697266 149.51304926757814,38.225880646972655 C149.51304926757814,38.225880646972655 148.7593692675781,39.621720646972655 148.7593692675781,39.621720646972655 C148.7593692675781,39.621720646972655 142.02288926757814,35.98442064697266 142.02288926757814,35.98442064697266 C141.82259926757814,35.48437064697266 141.84197926757813,34.867780646972655 141.45477926757812,34.42356064697266 C141.45477926757812,34.42356064697266 142.27398926757814,32.90634064697266 142.27398926757814,32.90634064697266 C142.27398926757814,32.90634064697266 143.7305292675781,33.69278064697266 143.7305292675781,33.69278064697266 C143.7305292675781,33.69278064697266 150.67260926757814,20.980840646972656 150.67260926757814,20.980840646972656 C150.67260926757814,20.980840646972656 147.75952926757813,19.407950646972658 147.75952926757813,19.407950646972658 C147.75952926757813,19.407950646972658 147.26800926757812,20.318290646972656 147.26800926757812,20.318290646972656 C147.26800926757812,20.318290646972656 145.69007926757814,19.466310646972655 145.69007926757814,19.466310646972655 C145.69007926757814,19.466310646972655 145.69007926757814,19.466310646972655 145.69007926757814,19.466310646972655 M161.85269926757812,34.40650064697266 C161.85269926757812,34.40650064697266 164.83888926757814,31.475130646972655 164.83888926757814,31.475130646972655 C165.5150192675781,31.380110646972657 168.13416926757813,32.144730646972654 167.60735926757812,33.30225064697265 C167.60735926757812,33.30225064697265 165.98544926757813,36.82987064697266 165.98544926757813,36.82987064697266 C165.98544926757813,36.82987064697266 161.85269926757812,34.40650064697266 161.85269926757812,34.40650064697266 M157.94628926757812,41.65336064697266 C157.93662926757813,39.83251064697266 159.55699926757814,36.994590646972654 161.18856926757812,35.287820646972655 C161.18856926757812,35.287820646972655 168.76513926757812,39.788130646972654 168.76513926757812,39.788130646972654 C171.56049926757814,35.84935064697265 170.57606926757813,31.998540646972657 165.51814926757814,30.000700646972657 C160.00521926757813,27.919060646972657 150.6059792675781,36.381120646972654 156.06956926757812,41.96636064697266 C158.25771926757812,44.21978064697265 161.0014092675781,44.819160646972655 163.31799926757813,45.183060646972656 C163.31799926757813,45.183060646972656 162.87498926757812,45.88556064697266 162.87498926757812,45.88556064697266 C162.87498926757812,45.88556064697266 163.82494926757812,46.687780646972655 163.82494926757812,46.687780646972655 C163.82494926757812,46.687780646972655 166.05279926757814,43.61674064697266 166.05279926757814,43.61674064697266 C166.05279926757814,43.61674064697266 165.06130926757814,42.86961064697266 165.06130926757814,42.86961064697266 C165.06130926757814,42.86961064697266 164.45226926757812,43.79243064697266 164.45226926757812,43.79243064697266 C162.53483926757812,43.815670646972656 160.05299926757812,43.32723064697265 157.94628926757812,41.65336064697266 C157.94628926757812,41.65336064697266 157.94628926757812,41.65336064697266 157.94628926757812,41.65336064697266 M162.7209692675781,46.892180646972655 C159.21813926757812,46.49799064697265 154.20408926757813,43.410510646972654 154.48811926757813,39.82468064697265 C152.44352926757813,35.08864064697266 159.09126926757813,29.475720646972658 162.95329926757813,29.622430646972656 C165.83819926757812,28.77375064697266 171.07180926757812,32.37211064697266 170.58180926757814,35.54365064697266 C171.04647926757812,37.448300646972655 170.50375926757812,39.54378064697266 169.03663926757812,41.71992064697265 C169.03663926757812,41.71992064697265 161.41856926757814,37.274700646972654 161.41856926757814,37.274700646972654 C160.22997926757813,38.278980646972656 159.12129926757814,40.55249064697266 158.56655926757813,41.86168064697266 C160.46728926757814,43.12126064697266 162.49410926757812,43.525890646972655 164.27345926757812,43.57132064697265 C164.52249926757813,43.240830646972654 164.90963926757811,42.84167064697266 165.00700926757813,42.48325064697266 C166.28825926757813,43.18965064697265 166.52059926757812,44.141980646972655 166.53182926757813,45.27313064697266 C166.53182926757813,45.27313064697266 164.09644926757812,48.619570646972655 164.09644926757812,48.619570646972655 C163.38038926757812,48.07998064697266 162.66430926757812,47.54038064697266 162.7209692675781,46.892180646972655 C162.7209692675781,46.892180646972655 162.7209692675781,46.892180646972655 162.7209692675781,46.892180646972655 M167.05418926757812,33.921730646972655 C165.55338926757813,32.704430646972654 164.44782926757813,33.59854064697266 163.3135592675781,34.989180646972656 C163.3135592675781,34.989180646972656 165.88963926757813,36.49859064697266 165.88963926757813,36.49859064697266 C165.88963926757813,36.49859064697266 167.05418926757812,33.921730646972655 167.05418926757812,33.921730646972655 M174.28127926757813,52.179210646972656 C172.05287926757813,51.71099064697266 169.12847926757811,51.608870646972655 169.03222926757812,48.775150646972655 C170.06953926757814,44.22424064697266 174.88906926757812,45.954120646972655 177.76177926757813,48.93360064697266 C177.76177926757813,48.93360064697266 174.28127926757813,52.179210646972656 174.28127926757813,52.179210646972656 C174.28127926757813,52.179210646972656 174.28127926757813,52.179210646972656 174.28127926757813,52.179210646972656 M174.56103926757814,58.142490646972654 C178.3584192675781,52.809580646972655 187.42246926757812,48.978160646972654 181.78753926757813,44.047850646972655 C178.61216926757814,41.350610646972655 175.26846926757813,39.281870646972656 172.21533926757812,41.46882064697266 C170.49009926757813,43.36054064697265 174.30077926757812,46.03118064697266 175.79360926757812,45.20492064697265 C177.03764926757813,44.51638064697266 177.03484926757812,43.198700646972654 177.50243926757813,42.385440646972654 C179.88558926757813,42.61506064697265 181.51829926757813,44.77044064697266 180.08550926757812,46.672380646972655 C179.67515926757812,47.24364064697266 179.21777926757812,47.76446064697265 178.56884926757812,48.18099064697266 C174.63065926757812,44.96911064697265 170.2378892675781,43.595730646972655 166.09948926757812,44.72000064697266 C161.67823926757814,46.95677064697266 166.20068926757813,51.60423064697265 169.79040926757813,52.21758064697266 C171.00379926757813,52.406350646972655 172.30445926757812,52.89096064697266 173.37332926757813,53.025890646972655 C173.37332926757813,53.025890646972655 171.4565492675781,54.81333064697266 171.4565492675781,54.81333064697266 C171.4565492675781,54.81333064697266 170.60986926757812,53.905370646972656 170.60986926757812,53.905370646972656 C170.60986926757812,53.905370646972656 169.95411926757814,54.51686064697266 169.95411926757814,54.51686064697266 C169.95411926757814,54.51686064697266 174.70492926757814,59.61150064697266 174.70492926757814,59.61150064697266 C174.70492926757814,59.61150064697266 175.36067926757812,59.00000064697266 175.36067926757812,59.00000064697266 C175.36067926757812,59.00000064697266 174.56103926757814,58.142490646972654 174.56103926757814,58.142490646972654 C174.56103926757814,58.142490646972654 174.56103926757814,58.142490646972654 174.56103926757814,58.142490646972654 M172.17851926757814,41.12594064697265 C175.5138592675781,39.241640646972655 179.49629926757814,41.186280646972655 182.50671926757812,44.41456064697266 C187.16345926757813,49.40831064697265 180.12263926757814,53.99357064697266 175.56243926757813,58.81185064697266 C175.78060926757811,59.55146064697266 175.83724926757813,60.72462064697265 174.63685926757813,61.56109064697266 C174.63685926757813,61.56109064697266 169.65083926757814,56.21425064697266 169.65083926757814,56.21425064697266 C169.77215926757813,55.535290646972655 169.30857926757812,54.83591064697266 169.91728926757813,54.17398064697265 C167.29894926757814,53.69215064697266 163.33354926757812,51.260110646972656 164.0777892675781,48.11415064697266 C163.58883926757812,43.949130646972655 168.82954926757813,43.400150646972655 171.52493926757813,44.470260646972655 C171.71029926757814,43.354350646972655 171.11582926757814,42.21121064697266 172.17851926757814,41.12594064697265 C172.17851926757814,41.12594064697265 172.17851926757814,41.12594064697265 172.17851926757814,41.12594064697265 M176.4638992675781,49.76666064697265 C174.46107926757813,48.42794064697266 172.21966926757813,46.934490646972655 170.16515926757813,48.47312064697266 C168.12365926757812,51.036990646972654 172.11012926757812,51.46900064697266 174.14356926757813,51.93040064697266 C174.14356926757813,51.93040064697266 176.4638992675781,49.76666064697265 176.4638992675781,49.76666064697265 C176.4638992675781,49.76666064697265 176.4638992675781,49.76666064697265 176.4638992675781,49.76666064697265 M177.48480926757813,44.28799064697266 C177.41734926757812,44.822430646972656 177.04041926757813,45.834050646972656 176.57963926757813,46.45235064697266 C177.29882926757813,46.81906064697266 177.96755926757814,47.23281064697265 178.57905926757812,47.88855064697266 C179.38952926757813,47.038470646972655 180.63696926757814,46.25244064697266 179.83730926757812,45.394930646972654 C179.08131926757812,44.685340646972655 178.40576926757814,44.46655064697266 177.48480926757813,44.28799064697266 C177.48480926757813,44.28799064697266 177.48480926757813,44.28799064697266 177.48480926757813,44.28799064697266 M180.32749926757813,46.72963064697265 C180.32749926757813,46.72963064697265 180.37794926757812,46.682590646972656 180.37794926757812,46.682590646972656 C180.37794926757812,46.682590646972656 180.32749926757813,46.72963064697265 180.32749926757813,46.72963064697265 C180.32749926757813,46.72963064697265 180.32749926757813,46.72963064697265 180.32749926757813,46.72963064697265 M169.16932926757812,50.439120646972654 C169.16932926757812,50.439120646972654 169.16592926757812,50.53660064697266 169.16592926757812,50.53660064697266 C169.16592926757812,50.53660064697266 169.16932926757812,50.439120646972654 169.16932926757812,50.439120646972654 M191.54011926757812,60.45075064697266 C189.70506926757812,63.08260064697266 185.01411926757814,64.87995064697266 181.90647926757813,66.25217064697266 C181.90647926757813,66.25217064697266 181.4629092675781,65.47296064697267 181.4629092675781,65.47296064697267 C181.4629092675781,65.47296064697267 180.32406926757812,66.12125064697265 180.32406926757812,66.12125064697265 C180.32406926757812,66.12125064697265 183.45486926757812,71.48167064697266 183.45486926757812,71.48167064697266 C183.45486926757812,71.48167064697266 184.53376926757812,70.86750064697266 184.53376926757812,70.86750064697266 C184.53376926757812,70.86750064697266 183.91960926757812,69.78859064697266 183.91960926757812,69.78859064697266 C187.34443926757814,67.99771064697265 190.93432926757814,64.68436064697266 193.83175926757812,66.28886064697267 C195.44828926757813,66.47972064697265 196.28378926757813,68.22626064697266 194.85262926757812,69.75521064697266 C192.95857926757813,71.86513064697266 189.63517926757814,74.39188064697265 186.35601926757812,76.02045064697265 C186.35601926757812,76.02045064697265 185.77596926757812,75.00149064697266 185.77596926757812,75.00149064697266 C185.77596926757812,75.00149064697266 184.69706926757812,75.61565064697265 184.69706926757812,75.61565064697265 C184.69706926757812,75.61565064697265 187.82786926757814,80.97607064697266 187.82786926757814,80.97607064697266 C187.82786926757814,80.97607064697266 188.9067692675781,80.36191064697266 188.9067692675781,80.36191064697266 C188.9067692675781,80.36191064697266 188.01963926757813,78.80348064697266 188.01963926757813,78.80348064697266 C192.73640926757813,76.91207064697267 201.1002692675781,73.34136064697265 198.76437926757814,68.40143064697266 C197.14228926757812,66.38840064697266 194.97059926757814,65.64057064697266 192.30279926757814,64.85770064697266 C195.42794926757813,63.237430646972655 193.68870926757813,59.624470646972654 191.06425926757814,58.49948064697266 C189.51685926757813,57.87245064697266 187.70390926757813,57.475950646972656 185.8983492675781,57.78951064697266 C185.8983492675781,57.78951064697266 188.77541926757812,56.15173064697266 188.77541926757812,56.15173064697266 C188.77541926757812,56.15173064697266 189.14245926757812,56.65706064697265 189.14245926757812,56.65706064697265 C189.68189926757813,56.34997064697266 190.59759926757812,56.14616064697265 189.81191926757813,55.32362064697266 C189.81191926757813,55.32362064697266 187.21874926757812,50.768230646972654 187.21874926757812,50.768230646972654 C187.21874926757812,50.768230646972654 186.13984926757811,51.382400646972656 186.13984926757811,51.382400646972656 C186.13984926757811,51.382400646972656 187.06109926757813,53.00076064697265 187.06109926757813,53.00076064697265 C187.06109926757813,53.00076064697265 176.59753926757813,58.87780064697266 176.59753926757813,58.87780064697266 C176.59753926757813,58.87780064697266 175.91511926757812,57.67902064697266 175.91511926757812,57.67902064697266 C175.91511926757812,57.67902064697266 174.83621926757812,58.293190646972654 174.83621926757812,58.293190646972654 C174.83621926757812,58.293190646972654 177.88123926757814,63.78179064697266 177.88123926757814,63.78179064697266 C177.88123926757814,63.78179064697266 178.96015926757812,63.16762064697266 178.96015926757812,63.16762064697266 C178.96015926757812,63.16762064697266 178.44004926757813,62.11453064697265 178.44004926757813,62.11453064697265 C183.38918926757813,59.376580646972656 188.01190926757812,57.45935064697266 191.54011926757812,60.45075064697266 C191.54011926757812,60.45075064697266 191.54011926757812,60.45075064697266 191.54011926757812,60.45075064697266 M199.09271926757813,71.62711064697265 C198.57360926757812,75.17649064697267 193.52117926757813,78.29068064697265 189.07827926757813,80.10554064697266 C189.26548926757812,80.71324064697265 188.68269926757813,81.36244064697266 188.69009926757812,82.07250064697266 C188.69009926757812,82.07250064697266 187.31147926757814,82.85728064697265 187.31147926757814,82.85728064697265 C187.31147926757814,82.85728064697265 184.01008926757814,77.19716064697266 184.01008926757814,77.19716064697266 C184.07093926757813,76.60698064697266 184.50802926757814,76.12008064697265 184.38076926757813,75.47826064697266 C184.38076926757813,75.47826064697266 185.87924926757813,74.62525064697266 185.87924926757813,74.62525064697266 C185.87924926757813,74.62525064697266 186.49342926757814,75.70415064697266 186.49342926757814,75.70415064697266 C189.91825926757812,73.91328064697265 193.49801926757812,71.55804064697266 194.93929926757812,69.07098064697266 C192.63387926757812,66.41521064697265 188.31085926757814,68.16184064697265 184.75601926757813,70.97908064697265 C184.75601926757813,70.97908064697265 184.31709926757813,72.57809064697265 184.31709926757813,72.57809064697265 C184.31709926757813,72.57809064697265 182.93849926757812,73.36287064697265 182.93849926757812,73.36287064697265 C182.93849926757812,73.36287064697265 179.63708926757812,67.70275064697265 179.63708926757812,67.70275064697265 C179.69793926757814,67.11257064697266 180.22909926757814,66.65149064697266 180.0077692675781,65.98385064697266 C180.0077692675781,65.98385064697266 181.50623926757814,65.13084064697266 181.50623926757814,65.13084064697266 C181.50623926757814,65.13084064697266 181.94981926757814,65.91005064697265 181.94981926757814,65.91005064697265 C184.46635926757813,65.03304064697267 187.68556926757813,63.438590646972656 190.09234926757813,61.671710646972656 C187.01602926757812,59.61351064697266 183.33480926757812,61.23287064697266 179.15656926757813,63.37326064697265 C178.95832926757814,64.27973064697267 178.87995926757813,65.11797064697265 177.36486926757811,65.66299064697266 C177.36486926757811,65.66299064697266 174.18334926757814,59.93463064697266 174.18334926757814,59.93463064697266 C174.24420926757813,59.34445064697265 174.62135926757813,58.891670646972656 174.49409926757812,58.249850646972654 C174.49409926757812,58.249850646972654 176.05251926757813,57.362720646972654 176.05251926757813,57.362720646972654 C176.05251926757813,57.362720646972654 176.70080926757814,58.501560646972656 176.70080926757814,58.501560646972656 C176.70080926757814,58.501560646972656 185.72582926757812,53.44341064697265 185.72582926757812,53.44341064697265 C185.06001926757813,52.552620646972656 185.99322926757813,52.10075064697266 185.76359926757812,51.27912064697266 C185.76359926757812,51.27912064697266 187.32202926757813,50.39199064697266 187.32202926757813,50.39199064697266 C187.32202926757813,50.39199064697266 190.41778926757812,56.24852064697266 190.41778926757812,56.24852064697266 C190.41778926757812,56.24852064697266 189.94474926757812,57.787600646972656 189.94474926757812,57.787600646972656 C192.13394926757812,58.287370646972654 195.30341926757814,60.927440646972656 193.89625926757813,63.474450646972656 C193.7671692675781,63.94475064697266 193.73213926757813,64.44087064697266 193.44903926757812,64.91947064697266 C196.15925926757814,65.91627064697266 198.82705926757814,66.69914064697267 199.53163926757813,70.02809064697266 C199.53072926757812,70.58415064697266 199.34168926757812,71.08857064697266 199.09271926757813,71.62711064697265 C199.09271926757813,71.62711064697265 199.09271926757813,71.62711064697265 199.09271926757813,71.62711064697265 " style="pointer-events:inherit"/><rect id="svg_16" x="6.117968559265137" y="10.60546875" width="193.4140625" height="72.25" fill="#000000" opacity="0" style="pointer-events:inherit"/></g><g fill-opacity="1" display="null" id="svg_22" style="pointer-events:inherit" clip-id="598"><path fill="#FC9000" d="M111.62038,41.99306L119.89419,41.99306L122.45082,33.71924L125.00768,41.99306L133.28128,41.99306L126.58762,47.10655L129.14448,55.38014L122.45082,50.26665L115.75717,55.38014L118.31403,47.10655L111.62038,41.99306z" id="svg_23" style="pointer-events:inherit"/></g><g fill-opacity="1" display="null" id="svg_28" style="pointer-events:inherit" clip-id="598"><path fill="#FC9000" d="M173.87038,107.99306L182.1442,107.99306L184.70082,99.71924L187.25768,107.99306L195.53128,107.99306L188.83762,113.10655L191.39447,121.38014L184.70082,116.26665L178.00717,121.38014L180.56403,113.10655L173.87038,107.99306z" id="svg_29" style="pointer-events:inherit"/></g><g fill-opacity="1" display="null" id="svg_30" style="pointer-events:inherit" clip-id="598"><path fill="#FC9000" d="M159.87038,83.99306L168.1442,83.99306L170.70082,75.71924L173.25768,83.99306L181.53128,83.99306L174.83762,89.10655L177.39447,97.38014L170.70082,92.26665L164.00717,97.38014L166.56403,89.10655L159.87038,83.99306z" id="svg_31" style="pointer-events:inherit"/></g><g fill-opacity="1" display="null" id="svg_32" style="pointer-events:inherit" clip-id="598"><path fill="#FC9000" d="M139.62038,62.99306L147.8942,62.99306L150.45082,54.71924L153.00768,62.99306L161.28128,62.99306L154.58762,68.10655L157.14447,76.38014L150.45082,71.26665L143.75717,76.38014L146.31403,68.10655L139.62038,62.99306z" id="svg_33" style="pointer-events:inherit"/></g><g fill-opacity="1" display="null" id="svg_34" style="pointer-events:inherit" clip-id="598"><path fill="#FC9000" d="M77.12038,41.99306L85.39419,41.99306L87.95082,33.71924L90.50768,41.99306L98.78128,41.99306L92.08762,47.10655L94.64448,55.38014L87.95082,50.26665L81.25717,55.38014L83.81403,47.10655L77.12038,41.99306z" id="svg_35" style="pointer-events:inherit"/></g><g fill-opacity="1" display="null" id="svg_36" style="pointer-events:inherit" clip-id="598"><path fill="#FC9000" d="M50.12037,62.99306L58.39419,62.99306L60.95082,54.71924L63.50768,62.99306L71.78128,62.99306L65.08762,68.10655L67.64448,76.38014L60.95082,71.26665L54.25717,76.38014L56.81403,68.10655L50.12037,62.99306z" id="svg_37" style="pointer-events:inherit"/></g><g fill-opacity="1" display="null" id="svg_38" style="pointer-events:inherit" clip-id="598"><path fill="#FC9000" d="M31.62037,83.49306L39.89419,83.49306L42.45082,75.21924L45.00768,83.49306L53.28128,83.49306L46.58762,88.60655L49.14448,96.88014L42.45082,91.76665L35.75717,96.88014L38.31403,88.60655L31.62037,83.49306z" id="svg_39" style="pointer-events:inherit"/></g><g fill-opacity="1" display="null" id="svg_40" style="pointer-events:inherit" clip-id="598"><path fill="#FC9000" d="M22.37037,107.99306L30.64419,107.99306L33.20082,99.71924L35.75768,107.99306L44.03128,107.99306L37.33762,113.10655L39.89448,121.38014L33.20082,116.26665L26.50717,121.38014L29.06403,113.10655L22.37037,107.99306z" id="svg_41" style="pointer-events:inherit"/></g></g><defs><mask id="canvasMaskImageDef" maskUnits="objectBoundingBox" x="0" y="0"><image xmlns:xlink="http://www.w3.org/1999/xlink" id="canvasMaskImage" preserveAspectRatio="none" x="-103.65" y="-36.45" width="400" height="440.0580551523948" xlink:href="http://allinonedesigner.designnbuy.in/media/catalog/product/w/h/white-tees-1_-front_1_3.png"/></mask></defs></svg>