<?xml version="1.0" encoding="utf-8"?>
<!-- Generator: Adobe Illustrator 16.0.0, SVG Export Plug-In . SVG Version: 6.00 Build 0)  -->
<!DOCTYPE svg PUBLIC "-//W3C//DTD SVG 1.1//EN" "http://www.w3.org/Graphics/SVG/1.1/DTD/svg11.dtd">
<svg version="1.1" id="Layer_1" xmlns="http://www.w3.org/2000/svg" xmlns:xlink="http://www.w3.org/1999/xlink" x="0px" y="0px"
	 width="266.928px" height="310.661px" viewBox="16.534 -4 266.928 310.661" enable-background="new 16.534 -4 266.928 310.661"
	 xml:space="preserve">
<path fill="none" stroke="#000000" stroke-width="10" d="M21.539,297.241c0.116-13.503,21.893-17.951,30.833-27.318
	c34.509-23.16,68.132-49.896,89.285-86.396c22.473-37.292,34.658-82.972,25.518-126.229c-4.848-26.841-30.936-48.324-58.542-44.964
	c-18.181,2.487-39.182,6.672-49.701,23.458c-11.418,8.577-5.136,28.677,10.086,21.043c19.475-7.435,43.937,7.726,43.166,29.212
	c0.023,20.374-20.601,34.746-39.82,32.834C50.957,118.666,29.766,101.393,30.213,79C28.729,42.91,59.955,13.434,93.378,5.87
	c29.886-9.313,64.63-5.565,89.833,13.808c18.752,12.819,33.52,32.252,36.602,55.19c6.65,29.822-1.945,60.599-16.857,86.543
	c-19.166,34.951-48.449,63.565-82.442,84.091C88.94,265.637,56.1,283.82,22.127,299.582
	C21.931,298.802,21.735,298.021,21.539,297.241z M248.35,150.091c-16.256-7.361-12.668-37.271,6.25-37.944
	c14.158-3.302,27.383,11.494,23.012,25.177C274.854,150.128,259.483,155.678,248.35,150.091z M248.35,68.269
	c-16.256-7.361-12.668-37.271,6.25-37.944c14.158-3.302,27.383,11.495,23.012,25.178C274.782,68.35,259.563,73.833,248.35,68.269z"
	/>
</svg>
