<?xml version="1.0" encoding="utf-8"?>
<!-- Generator: Adobe Illustrator 16.0.0, SVG Export Plug-In . SVG Version: 6.00 Build 0)  -->
<!DOCTYPE svg PUBLIC "-//W3C//DTD SVG 1.1//EN" "http://www.w3.org/Graphics/SVG/1.1/DTD/svg11.dtd">
<svg version="1.1"
	 id="svg672" xmlns:cc="http://creativecommons.org/ns#" xmlns:dc="http://purl.org/dc/elements/1.1/" xmlns:rdf="http://www.w3.org/1999/02/22-rdf-syntax-ns#"
	 xmlns="http://www.w3.org/2000/svg" xmlns:xlink="http://www.w3.org/1999/xlink" x="0px" y="0px" width="143.447px"
	 height="71.281px" viewBox="0 0 143.447 71.281" enable-background="new 0 0 143.447 71.281" xml:space="preserve">
<rect id="rect681" x="0" fill="#199D00" width="143.827" height="71.28"/>
<path fill="#FEFFFF" d="M71.942,39.914c-1.677,1.166-3.43,2.197-5.105,3.365c-2.1,0.147-4.136,0.17-6.3,0.063
	c0,0-4.518-0.764-5.664-2.734c-0.063-0.192,1.464-0.893,1.464-0.893c2.313,1.635,4.879,3.076,9.673,2.863
	c-5.918-0.529-9.928-3.797-11.137-6.809c3.203-2.25,8.507-2.208,12.855,0.891c-1.358-1.697-5.897-3.584-9.291-3.055
	c-0.488-0.51-0.913-1.146-1.4-1.654c3.903-0.87,9.334,1.633,11.328,3.692c-2.101-3.374-3.627-7.192-1.146-11.838
	c0.488,0.467,1.04,0.934,1.527,1.4c-1.867,3.415-1.188,7.402,0.318,10.182c-2.609-5.388-0.51-10.711,2.927-13.3
	c4.009,2.419,5.156,8.847,2.8,13.429c1.337-0.765,2.419-6.493,0.572-10.311c0.425-0.509,0.849-1.02,1.271-1.527
	c2.779,3.754,1.104,9.801-1.209,12.092c1.763-1.527,6.321-4.519,11.646-3.819c-0.424,0.509-1.104,0.955-1.527,1.463
	c-4.369-0.169-7.912,1.698-9.479,3.311c3.84-2.547,9.143-3.819,13.046-0.955c-1.805,4.814-6.916,6.255-11.138,6.682
	c3.585,0.274,6.916-0.785,9.608-2.675c0.509,0.275,1.021,0.554,1.527,0.828c-1.146,1.08-2.8,2.162-5.155,2.48
	c-2.27,0.297-4.412,0.213-6.682,0.256C75.513,42.197,73.703,41.061,71.942,39.914L71.942,39.914z M71.942,41.039l-4.365,3.285
	l-11.7-0.045c0.146,0.473,0.593,1.074,0.854,1.352l11.608,0.045l3.602-2.789l3.466,2.744h11.744
	c0.338-0.359,0.696-0.855,1.013-1.283l-11.901,0.021L71.942,41.039L71.942,41.039z M65.238,52.324
	c3.359,1.658,10.5,1.521,13.725-0.041L65.238,52.324z M57.51,46.755c0.136,0,28.854-0.021,28.854-0.021
	c-0.502,0.57-1.095,1.184-1.71,1.709L58.987,48.33C58.505,47.996,57.865,47.216,57.51,46.755L57.51,46.755z M59.491,48.826
	l24.781,0.068c-0.467,0.358-0.841,0.787-1.373,1.057l-22.027-0.018c-0.509-0.273-1.03-0.738-1.379-1.107H59.491z M61.748,50.669
	l20.25-0.051c-0.54,0.348-1.146,0.717-1.822,1.041H63.572C63.008,51.466,62.356,51.044,61.748,50.669L61.748,50.669z"/>
<path fill="#FEB700" d="M82.682,22.024l-0.729-1.072l-1.259,0.313l0.794-1.025l-0.688-1.102l1.223,0.438l0.835-0.992l-0.039,1.296
	l1.201,0.487l-1.244,0.364L82.682,22.024z M73.527,20.497l-1.446-0.988l-1.432,1.012l0.495-1.682l-1.404-1.047l1.75-0.051
	l0.563-1.66l0.589,1.65l1.753,0.021l-1.389,1.07L73.527,20.497z M88.753,29.13l-1.192-0.506l-0.891,0.945l0.11-1.293l-1.172-0.553
	l1.262-0.293l0.164-1.287l0.67,1.111l1.274-0.242l-0.851,0.979L88.753,29.13z M61.24,22.005l0.729-1.072l1.261,0.312l-0.794-1.024
	l0.685-1.102l-1.22,0.438l-0.835-0.992l0.039,1.295l-1.202,0.488l1.244,0.363L61.24,22.005z M54.886,29.083l1.192-0.505l0.892,0.944
	l-0.111-1.291l1.172-0.555l-1.262-0.293l-0.164-1.287l-0.67,1.111l-1.274-0.242l0.851,0.98L54.886,29.083z"/>
</svg>
