<?xml version="1.0" encoding="utf-8"?>
<!-- Generator: Adobe Illustrator 16.0.3, SVG Export Plug-In . SVG Version: 6.00 Build 0)  -->
<!DOCTYPE svg PUBLIC "-//W3C//DTD SVG 1.1//EN" "http://www.w3.org/Graphics/SVG/1.1/DTD/svg11.dtd">
<svg version="1.1" id="Layer_1" xmlns="http://www.w3.org/2000/svg" xmlns:xlink="http://www.w3.org/1999/xlink" x="0px" y="0px"
	 width="100px" height="100px" viewBox="0 0 100 100" enable-background="new 0 0 100 100" xml:space="preserve">
<path d="M50,0C22.386,0,0,22.386,0,50s22.386,50,50,50c27.613,0,50-22.386,50-50S77.613,0,50,0z M81.783,61.244
	c-0.621,2.206-0.85,2.859-1.108,3.49l-0.174,0.406c-2.748,6.232-8.71,10.243-21.135,11.477l-17.62-0.021
	c-11.65-1.255-18.198-5.255-21.52-11.445c0,0-0.102-0.172-0.213-0.403c-0.326-0.644-0.615-1.308-0.875-1.994
	c-0.11-0.219-0.089-0.162-0.155-0.417c-1.181-3.313-1.665-7.125-1.665-11.375c0-5.628,2.035-10.221,5.367-13.817
	c-0.533-1.304-2.285-6.553,0.55-13.644c0,0,4.343-1.375,14.183,5.336c4.127-1.132,8.554-1.688,12.934-1.688
	c3.98,0,7.955,0.461,11.689,1.394c6.854-4.587,10.959-5.187,12.727-5.16c0.689,0.01,1.024,0.116,1.024,0.116
	c2.39,5.976,1.521,10.643,0.869,12.745c3.726,3.719,6.021,8.607,6.021,14.715C82.682,55.22,82.402,59.039,81.783,61.244z
	 M68.052,48.224c-1.845-1.936-4.302-2.428-7.171-2.422c-3.055,0.006-6.574,0.578-10.324,0.578c-7.304,0-13.742-2.13-17.544,1.893
	c-2.28,2.415-3.611,5.325-3.611,8.458c0,13.088,9.47,15.129,21.156,15.129c11.682,0,21.155-0.4,21.155-15.129
	c0-3.153-1.351-6.08-3.66-8.504V48.224z M39.118,64.826c-2.432,0-4.402-3.288-4.402-7.346c0-4.056,1.97-7.342,4.402-7.342
	c2.431,0.003,4.401,3.288,4.401,7.342C43.52,61.538,41.549,64.826,39.118,64.826z M62.734,64.826c-2.432,0-4.401-3.288-4.401-7.346
	c0-4.056,1.972-7.342,4.401-7.342c2.433,0.003,4.402,3.288,4.402,7.342C67.137,61.538,65.166,64.826,62.734,64.826z"/>
</svg>
