<?xml version="1.0" encoding="utf-8"?>
<!-- Generator: Adobe Illustrator 16.0.0, SVG Export Plug-In . SVG Version: 6.00 Build 0)  -->
<!DOCTYPE svg PUBLIC "-//W3C//DTD SVG 1.1//EN" "http://www.w3.org/Graphics/SVG/1.1/DTD/svg11.dtd">
<svg version="1.1" id="Layer_1" xmlns="http://www.w3.org/2000/svg" xmlns:xlink="http://www.w3.org/1999/xlink" x="0px" y="0px"
	 width="28.745px" height="27.33px" viewBox="1.628 1.896 28.745 27.33" enable-background="new 1.628 1.896 28.745 27.33"
	 xml:space="preserve">
<path fill="#000000" d="M30.373,12.329H19.391l-3.39-10.433l-0.477,1.458l-2.918,8.977L1.628,12.329l8.882,6.454l-3.396,10.44
	l8.884-6.455l8.887,6.457l-3.397-10.442L30.373,12.329z M17.175,21.151L16,20.298l-1.174,0.854l-3.902,2.834l1.49-4.584l0.45-1.381
	l-1.177-0.855l-3.9-2.834h6.275l0.45-1.381L16,8.366l1.489,4.581l0.449,1.381h6.28l-3.905,2.836l-1.179,0.854l0.449,1.383
	l1.494,4.584L17.175,21.151z"/>
</svg>
