<?xml version="1.0" encoding="utf-8"?>
<!-- Generator: Adobe Illustrator 16.0.0, SVG Export Plug-In . SVG Version: 6.00 Build 0)  -->
<!DOCTYPE svg PUBLIC "-//W3C//DTD SVG 1.1//EN" "http://www.w3.org/Graphics/SVG/1.1/DTD/svg11.dtd">
<svg version="1.1" id="Layer_1" xmlns="http://www.w3.org/2000/svg" xmlns:xlink="http://www.w3.org/1999/xlink" x="0px" y="0px"
	 width="100px" height="100px" viewBox="0 0 100 100" enable-background="new 0 0 100 100" xml:space="preserve">
<path fill="#010101" d="M34.046,48.859c0.161-0.482,0.229-0.504-0.006-0.854c-0.187-0.273-0.373-0.548-0.561-0.822
	c0.497-0.288,1-0.565,1.494-0.871C34.825,47.209,34.539,48.186,34.046,48.859 M36.516,48.292c-0.051-0.127-0.083-0.383-0.207-0.336
	c-0.199,0.077-0.397,0.152-0.595,0.23c-0.349,0.134-0.696,0.273-1.041,0.415c0.263-0.403,0.525-0.803,0.786-1.205
	c0.109-0.167,0.47-0.873,0.588-0.745C36.399,47.033,36.653,47.649,36.516,48.292 M33.206,46.782c0.28-0.417,0.367-0.466,0.493-1.018
	c0.121-0.538,0.241-1.078,0.358-1.622c0.28,0.241,0.56,0.497,0.854,0.71C34.437,45.584,33.868,46.403,33.206,46.782 M34.232,43.333
	c0.112-0.046,0.297-0.025,0.39-0.157c0.152-0.219,0.306-0.44,0.458-0.659c0.307-0.439,0.613-0.879,0.92-1.316
	c-0.05,0.438-0.05,1.774-0.349,1.928C35.257,43.331,34.607,43.679,34.232,43.333 M37.128,47.483c0.065-0.44,0.092-1.926,0.398-2.068
	c0.47-0.213,1.188-0.513,1.636-0.122c-0.124,0.045-0.352,0-0.453,0.135c-0.184,0.236-0.365,0.471-0.545,0.708
	C37.816,46.584,37.473,47.035,37.128,47.483 M36.054,45.969c0.077-0.326-0.517-0.266-0.684-0.291
	c0.225-0.233,0.055-0.792,0.024-1.092c0.004,0.037,0.422-0.738,0.444-0.784c0.078-0.173,0.156-0.345,0.233-0.517
	c-0.019,0.039,0.173-0.025,0.202-0.05c0.261-0.233,0.52-0.464,0.781-0.695c-0.074,0.329,0.542,0.252,0.714,0.276
	c-0.223,0.233-0.025,0.802,0.014,1.098c-0.009-0.059-0.447,0.758-0.464,0.792c-0.063,0.14-0.15,0.443-0.251,0.542
	c-0.009,0.007-0.189,0.015-0.253,0.069C36.561,45.533,36.307,45.75,36.054,45.969 M36.844,41.673
	c-0.234-0.309-0.4-0.788-0.302-1.245c0.095,0.204,0.09,0.334,0.258,0.257c0.188-0.084,0.374-0.17,0.562-0.254
	c0.326-0.146,0.65-0.291,0.978-0.433c-0.314,0.497-0.63,0.992-0.942,1.493C37.156,41.872,37.122,42.044,36.844,41.673
	 M38.306,43.646c0.499-0.73,1.142-1.644,1.872-1.931c-0.379,0.409-0.419,0.501-0.534,1.118c-0.1,0.534-0.202,1.066-0.306,1.596
	C38.996,44.164,38.657,43.885,38.306,43.646 M38.834,40.255c0.321,0.349,0.642,0.698,0.962,1.046
	c-0.547,0.284-1.095,0.562-1.629,0.88c0.113-0.867,0.357-1.824,0.825-2.464C38.939,39.896,38.887,40.076,38.834,40.255
	 M85.115,15.927c-1.292-0.218-2.536-0.239-3.748-0.225c-7.15,0.084-13.411,2.235-19.053,5.165c-2.961,1.541-5.767,3.342-8.447,5.33
	c-0.791,0.588-1.572,1.191-2.342,1.809c-0.264,0.213-0.496,0.346-0.639,0.696c-0.146,0.344-0.32,0.659-0.523,0.942
	c-0.522,0.732-1.221,1.241-2.002,1.438c-0.164,0.042-0.739,0.246-0.794-0.018c-0.042-0.205-0.084-0.411-0.126-0.616
	c-1.569,1.423-3.12,2.869-4.646,4.341c0.847-1.831,2.07-3.297,3.51-4.295c-0.012,0.118-0.022,0.235-0.034,0.353
	c0.639-0.585,1.281-1.166,1.929-1.741c-1.654,0.627-3.086,2.153-4.337,3.564c-0.72,0.81-1.403,1.673-2.062,2.568
	c-0.41,0.558-0.811,1.128-1.201,1.71c-0.339,0.333-0.673,0.67-1.001,1.02c-0.545-1.773-0.581-3.771,0.048-5.503
	c0.521-1.421,1.454-2.839,2.654-3.157c-0.152,0.637-0.309,1.272-0.468,1.904c1.18-1.228,2.207-2.856,2.893-4.665
	c0.398-1.044,0.682-2.196,0.746-3.43c0.061-1.202-0.112-2.447-0.038-3.669c0.296-4.901,2.473-8.958,4.821-12.041
	c0.11,0.171,0.22,0.342,0.329,0.512c1.021-1.734,2.04-3.467,3.062-5.199c-1.853,1.634-3.364,3.917-4.743,6.212
	c-1.679,2.797-3.138,5.861-4.462,9.041c-0.691,1.656-1.343,3.343-1.968,5.052c-0.366,0.993-0.722,1.992-1.067,2.997
	c-0.126,0.365,0.053,0.61,0.046,1.031c-0.006,0.335-0.084,0.655-0.189,0.941c-0.283,0.77-0.774,1.364-1.266,1.865
	c-0.32,0.114-0.437-0.292-0.599,0.193c-0.582,1.742-1.176,3.468-1.776,5.185c-0.141-1.006,0.048-2.045,0.332-2.958
	c0.09-0.283,0.479-1.744,0.743-1.366c0.247-0.721,0.492-1.441,0.735-2.166c-0.802,1.203-1.354,2.785-1.792,4.312
	c-0.262,0.921-0.478,1.866-0.657,2.82c-0.176,0.926-0.253,1.875-0.552,2.729c-0.112,0.321-0.152,0.711-0.42,0.721
	c-0.363,0.015-0.725,0.004-1.081-0.06c-0.558-0.101-1.203-0.335-1.514-1.053c-0.571-1.325,0.219-3.114,0.909-4.013
	c0.167,0.332,0.334,0.66,0.501,0.991c0.625-1.816,0.908-4.763-0.701-5.875c-0.73-0.504-1.458-0.655-2.04-1.58
	c-0.571-0.906-0.773-2.152-0.777-3.365c-0.006-1.25,0.175-2.473,0.415-3.642c0.051-0.072,0.414-0.032,0.422-0.126
	c0.011-0.147,0.023-0.293,0.032-0.438c0.087-1.153,0.168-2.312,0.241-3.479c-1.4,4.025-1.568,9.245-1.089,13.688
	c0.148,1.369,0.365,2.704,0.628,3.999c0.061,0.058,0.315-0.015,0.412,0.029c0.145,0.064,0.264,0.205,0.316,0.415
	c0.12,0.465-0.041,1.034-0.174,1.451c-0.144,0.45-0.246,0.545-0.517,0.802c-0.203,0.193-0.203,0.148-0.125,0.487
	c0.24,1.082,0.479,2.15,0.711,3.208c-0.38-0.052-0.747-0.26-0.979-0.698c-0.093-0.176-0.47-1.384-0.256-1.521
	c0.261-0.161,0.169-0.224,0.092-0.605c-0.062-0.3-0.122-0.599-0.186-0.901c-0.352,1.758,0.224,3.552,1.022,4.698
	c0.223,0.322,1.262,1.361,0.787,1.861c-0.574,0.608-1.161,1.189-1.769,1.716c-0.686,0.561-3.334,2.666-3.174,0.232
	c0.015-0.245,0.073-0.875,0.216-1.069c0.048-0.065,0.222-0.082,0.279-0.103c0.266-0.098,0.534-0.194,0.801-0.289
	c-0.269-1.604-1.563-1.691-2.474-1.27c-1.191,0.543-2.216,1.75-3.324,2.541c-0.931,0.667-2.043,1.324-2.937,0.882
	c-0.463-0.227-0.786-0.782-0.954-1.527c-0.048-0.209,0.302-0.58,0.41-0.736c-0.344-0.483-0.688-0.964-1.032-1.448
	c-0.264,3.857,2.27,4.884,4.076,5.122c0.56,0.068,1.133,0.081,1.714,0.063c0.22-0.007,0.565,0.095,0.76-0.14
	c0.199-0.242,0.416-0.464,0.646-0.623c0.516-0.355,0.879-0.06,0.915,0.738c-0.044,0.259-0.316,0.648-0.429,0.877
	c0.939-0.102,1.891-0.188,2.859-0.264c-0.823,0.788-1.92,1.631-2.81,1.243c0.073-0.114,0.145-0.232,0.218-0.348
	c-0.359,0.025-0.715,0.054-1.071,0.085c0.457,0.923,1.824,0.437,2.545,0.189c0.547-0.192,1.095-0.444,1.642-0.723
	c0.348-0.178,0.696-0.368,1.043-0.564c0.254-0.018,0.51-0.03,0.765-0.065c-0.62,1.495-1.324,2.939-2.134,4.265
	c-0.755,1.232-1.682,2.536-2.729,3.175c-0.4,0.241-0.904,0.371-1.096-0.172c-0.083-0.234-0.021-0.25,0.129-0.441
	c0.38-0.495,0.761-0.99,1.143-1.482c-1.43,0.104-2.95,1.838-4.029,3.29c-1.413,1.907-2.551,4.175-3.843,6.254
	c-1.211,1.958-2.506,3.836-3.868,5.478c-1.146,1.38-2.419,2.719-3.584,3.264c0.164-0.361,0.328-0.725,0.491-1.087
	c-0.838,0.752-1.661,1.521-2.469,2.31c0.326,0.303,0.999-0.115,1.481-0.428c0.618-0.402,1.257-0.939,1.892-1.511
	c1.451-1.304,2.92-2.821,4.382-4.371c1.688-1.785,3.379-3.644,5.074-5.524c0.26-0.289,0.521-0.578,0.781-0.869
	c0.114-0.175,0.203-0.438,0.305-0.629c0.321-0.613,0.701-1.211,1.146-1.632c0.098-0.096,1.174-0.757,1.133-0.455
	c-0.038,0.273-0.078,0.546-0.118,0.817c1.356-1.492,2.73-2.962,4.119-4.418c-0.905,1.787-2.091,3.383-3.426,4.499
	c0.039-0.136,0.078-0.271,0.116-0.407c-0.548,0.587-1.095,1.176-1.64,1.771c1.33-0.619,2.757-2.412,3.855-3.748
	c0.683-0.828,1.345-1.689,1.99-2.574c0.414-0.567,0.822-1.146,1.223-1.73c0.336-0.346,0.67-0.691,1.007-1.039
	c0.272,2.1,0.012,4.336-0.848,6.295c-0.639,1.47-1.955,3.592-3.272,3.697c0.308-0.775,0.612-1.554,0.912-2.336
	c-1.937,1.934-3.503,4.798-4.657,7.51c-0.724,1.709-1.23,3.4-1.787,5.101c-0.54,1.649-1.188,3.263-1.92,4.836
	c-2.62,5.64-6.399,10.835-10.434,15.332c0.158-0.396,0.313-0.795,0.466-1.196c-1.895,2.441-3.789,4.881-5.685,7.32
	c1.122-1.02,2.339-2.41,3.433-3.655c4.344-4.922,8.472-10.358,12.16-15.979c2.063-3.125,4.016-6.35,5.839-9.682
	c0.28-0.515,0.559-1.029,0.835-1.55c0.127-0.235,0.597-0.931,0.597-1.168c0.003-0.629,0.195-1.347,0.464-1.974
	c0.35-0.821,0.863-1.539,1.442-2.123c0.205-0.209,0.393-0.5,0.597-0.364c0.114,0.075,0.227,0.149,0.341,0.228
	c1.055-2.205,2.081-4.44,3.078-6.711c0.01,2.01-0.849,4.019-1.851,5.662c-0.044-0.08-0.086-0.158-0.131-0.238
	c-0.444,0.936-0.897,1.862-1.352,2.785c1.112-1.326,1.981-3.072,2.688-4.734c0.904-2.116,1.575-4.373,2.031-6.704
	c0.202-0.482,0.406-0.967,0.595-1.46c0.456,0.032,0.911,0.11,1.354,0.25c0.851,0.266,1.732,0.797,2.166,1.804
	c0.778,1.806-0.22,4.084-1.535,5.247c-0.198-0.547-0.399-1.096-0.602-1.646c-1.245,2.84-1.577,6.229-0.509,8.599
	c0.568,1.261,1.552,2.082,2.297,3.161c0.772,1.119,1.359,2.393,1.739,3.736c1.559,5.428-0.251,11.387-3.306,16.224
	c-0.322-0.226-0.643-0.447-0.962-0.671c-1.551,3.539-3.289,6.857-5.212,9.955c1.514-1.33,2.763-2.842,3.888-4.353
	c1.757-2.351,3.187-4.854,4.319-7.497c2.544-5.896,3.582-12.523,3.123-19.521c-0.115-1.807-0.333-3.635-0.648-5.479
	c-0.03-0.188-0.14-1.333-0.277-1.361c-0.257-0.052-0.505-0.164-0.713-0.332c-0.51-0.401-0.656-1.103-0.526-1.851
	c0.097-0.534,0.328-1.548,0.785-1.788c0.185-0.097,0.784-0.258,0.715-0.512c-0.446-1.637-0.918-3.294-1.418-4.973
	c0.833,0.253,1.553,0.896,1.926,1.866c0.175,0.451,0.271,0.943,0.305,1.441c0.016,0.213-0.229,0.178-0.381,0.215
	c0.206,0.74,0.407,1.475,0.604,2.201c0.496-2.132-0.431-4.523-1.535-6.139c-0.388-0.572-0.822-1.094-1.288-1.565
	c-0.215-0.218-0.338-0.33-0.444-0.66c-0.056-0.173-0.112-0.346-0.172-0.519c-0.113-0.324,0.326-0.517,0.543-0.692
	c0.221-0.178,0.442-0.351,0.667-0.521c0.479-0.357,0.967-0.688,1.47-0.984c0.995-0.586,2.105-1.102,3.249-1.055
	c0.87,0.032,1.935,0.496,2.068,1.745c0.018,0.172,0.028,1.185-0.161,1.196c-0.225,0.014-0.45,0.028-0.673,0.044
	c-0.448,0.032-0.895,0.067-1.338,0.102c1.26,3.058,5.053,3.077,7.528,2.789c1.637-0.212,3.225-0.723,4.885-1.006
	c1.541-0.262,3.127-0.386,4.754-0.345c6.623,0.146,13.81,3.365,19.845,8.921c-0.685,0.131-1.366,0.269-2.046,0.407
	c4.094,2.745,8.285,5.609,12.575,8.593c-1.108-1.767-2.733-3.432-4.279-4.933c-6.646-6.451-14.642-11.145-22.001-14.057
	c-3.927-1.562-7.786-2.657-11.51-3.322c-0.551-0.097-1.096-0.187-1.639-0.265c-0.299-0.044-0.787-0.231-1.039-0.066
	c-0.608,0.395-1.317,0.699-2.033,0.703c-0.432,0.002-0.873-0.13-1.223-0.475c-0.091-0.088-0.61-0.712-0.521-0.863
	c0.185-0.321,0.371-0.639,0.556-0.959c-1.797-0.089-3.557-0.138-5.281-0.137c1.396-0.965,3.08-1.561,4.771-1.038
	c-0.104,0.123-0.209,0.244-0.311,0.365c0.762,0.038,1.529,0.081,2.303,0.134c-1.281-1.083-3.244-0.914-4.584-0.732
	c-0.968,0.127-1.913,0.364-2.833,0.669c-0.505,0.167-1.003,0.355-1.494,0.559c-0.384,0.16-0.826,0.11-1.228,0.142
	c0.855-2.164,1.9-4.311,3.342-5.869c0.804-0.879,2.938-2.747,4.089-1.187c-0.563,0.566-1.123,1.135-1.682,1.706
	c2.39-0.126,4.788-1.706,6.646-3.397c2.349-2.122,3.983-5.159,6.2-7.467c4.101-4.251,9.396-6.723,15.518-7.297
	c-0.121,0.36-0.242,0.72-0.365,1.078C78.501,17.169,81.77,16.501,85.115,15.927"/>
</svg>
