<?xml version="1.0" encoding="utf-8"?>
<svg version="1.1" xmlns="http://www.w3.org/2000/svg" xmlns:xlink="http://www.w3.org/1999/xlink" x="0px" y="0px" width="13.253px"
	 height="100.47px" viewBox="0 0 13.253 100.47" xml:space="preserve">
<g id="g4165" transform="matrix(0.67315145,0,0,1.1030216,-93.279595,244.5458)">
	<path fill="#ED2224" stroke="#F7A8AA" stroke-width="0.6252" d="M139.248-210.792c0.907-1.058,4.665-1.851,9.166-1.851
		c4.507,0,8.271,0.795,9.17,1.856c-0.869,1.068-4.632,1.869-9.166,1.869C143.879-208.918,140.113-209.722,139.248-210.792z
		 M139.036-210.298c0,0.006,0.004,0.012,0.004,0.018v-0.036C139.039-210.31,139.036-210.304,139.036-210.298z M139.06-211.165h-0.02
		v0.849c0.005-0.163,0.077-0.322,0.209-0.475C139.15-210.913,139.079-211.037,139.06-211.165z M157.796-211.165h-0.02
		c-0.019,0.129-0.091,0.255-0.191,0.378c0.135,0.158,0.209,0.321,0.209,0.489c0,1.295-4.2,2.344-9.379,2.344
		c-5.154,0-9.335-1.04-9.375-2.326v76.642h0.137c-0.086,0.127-0.137,0.257-0.137,0.39c0,1.294,4.2,2.345,9.378,2.345
		c5.179,0,9.378-1.051,9.378-2.345c0-0.135-0.067-0.261-0.155-0.39h0.155V-211.165z"/>
	<path fill="#FCD5D5" d="M139.036-135.787c4.125,0,14.461-2.968,18.757-5.448v3.423c-3.714,2.144-13.705,5.448-18.757,5.448
		V-135.787z M139.036-148.291c4.125,0,14.461-2.968,18.757-5.448v3.423c-3.714,2.145-13.705,5.448-18.757,5.448V-148.291z
		 M139.036-160.795c4.125,0,14.461-2.968,18.757-5.448v3.423c-3.714,2.144-13.705,5.448-18.757,5.448V-160.795z M139.036-173.3
		c4.125,0,14.461-2.968,18.757-5.448v3.423c-3.714,2.144-13.705,5.447-18.757,5.447V-173.3z M139.036-185.804
		c4.125,0,14.461-2.968,18.757-5.448v3.423c-3.714,2.144-13.705,5.447-18.757,5.447V-185.804z M139.036-198.308
		c4.125,0,14.461-2.968,18.757-5.448v3.423c-3.714,2.144-13.705,5.448-18.757,5.448V-198.308z M151.733-210.504
		c0,0.572-1.856,1.036-4.143,1.036c-2.289,0-4.143-0.464-4.143-1.036c0-0.572,1.855-1.036,4.143-1.036
		C149.876-211.54,151.733-211.077,151.733-210.504z"/>
	
		<path id="path4185" fill="none" stroke="#010101" stroke-width="0.6252" d="M147.956-210.537c-0.435-4.829,0.805-8.401,3.308-11.026"/>
</g>
</svg>
