<?xml version="1.0" encoding="utf-8"?>
<!-- Generator: Adobe Illustrator 16.0.0, SVG Export Plug-In . SVG Version: 6.00 Build 0)  -->
<!DOCTYPE svg PUBLIC "-//W3C//DTD SVG 1.1//EN" "http://www.w3.org/Graphics/SVG/1.1/DTD/svg11.dtd">
<svg version="1.1" id="Layer_1" xmlns="http://www.w3.org/2000/svg" xmlns:xlink="http://www.w3.org/1999/xlink" x="0px" y="0px"
	 width="100px" height="100px" viewBox="0 0 100 100" enable-background="new 0 0 100 100" xml:space="preserve">
<g id="Shape_20">
	<g>
		<path fill="#010101" d="M93.365,8.32l-6.797,1.881l-0.146-2.173L37.895,21.443c-0.269-2.039-0.851-4.889-2.037-5.62
			c-0.36-0.221-1.631-0.2-3.454-0.01c-0.173-0.25-0.361-0.461-0.572-0.593c-1.804-1.122-27.694,4.193-28.25,6.438
			c-0.555,2.243,17.116,66.559,17.116,66.559l2.087-1.113c0.835,3.033,1.345,4.867,1.345,4.867l25.626-13.537l0.022,0.131
			l1.102-0.588l-0.925-5.561c-0.529-2.393,0.98-4.749,3.374-5.268c0.296-0.063,0.591-0.096,0.882-0.101
			c0.381,0.332,0.773,0.8,1.105,1.513c0.896,1.922,0.474,2.297,0.336,2.364l2.709-1.161c0.104,0.248,0.195,0.506,0.255,0.778
			l0.505,3.026l1.023-0.549l-0.011-0.068l11.753-6.208l1.611-0.863l-0.844-5.063c-0.461-2.092,0.846-4.151,2.925-4.637
			c0.546,0.273,1.229,0.827,1.762,1.969c0.896,1.92,0.474,2.297,0.336,2.365l2.669-1.145l0.438,2.617l8.906-4.764l0.011,0.11
			l6.731-3.558L93.365,8.32z M81.471,60.188l-0.345-2.063c-0.588-2.661-3.222-4.35-5.882-3.773c-2.659,0.575-4.338,3.196-3.75,5.855
			l0.789,4.748l-12.409,6.438l-0.336-2.023c-0.666-3.008-3.646-4.92-6.654-4.27c-3.009,0.649-4.909,3.617-4.244,6.627l0.843,5.06
			L25.097,89.438c0,0-17.356-64.254-16.625-65.718c0.73-1.464,24.115-7.145,25.576-5.976c1.462,1.171,2.061,7.953,2.061,7.953
			l55.913-15.634l2.984,43.101L81.471,60.188z M30.239,35.171c-2.733,1.429-4.112,5.297-3.708,8.229
			c0.405,2.935,3.363,4.285,6.097,2.855c2.734-1.429,4.219-4.736,4.12-7.058C36.622,36.238,32.974,33.742,30.239,35.171z
			 M44.526,48.817c-0.397-2.878-0.792-2.083-1.219-3.788c-0.986-1.845-2.455-1.863-3.821-1.149c-2.923,1.527-3.28,1.421-5.539,2.602
			c-2.747,1.436-4.693,1.51-7.427,2.939c-1.366,0.714-2.27,1.083-3.147,2.601c-1.152,2.404-0.993,2.479-0.346,7.176
			c0.321,2.318,0.879,6.367,1.235,8.957c0.32,2.316,0.452,6.113,2.615,4.984c2.053-1.072,1.817-2.635,1.493-4.976
			c-0.457-3.308-0.582-4.161-0.851-6.114c-0.294-2.136-0.459-2.438-0.058-2.648s0.401-0.18,0.714,2.092
			c0.291,2.104,1.902,11.533,1.846,11.641c0.064-0.121,12.636-5.182,12.601-5.408c-0.905-5.863-1.617-10.121-1.872-11.967
			c-0.137-1.001-0.394-2.229-0.043-2.41c0.347-0.184,0.389,0.166,0.588,1.607c0.228,1.652,0.459,3.329,0.78,5.648
			c0.532,3.857,1.229,4.578,2.597,3.864c2.05-1.071,1.357-4.747,1.068-6.848C45.346,54.758,44.928,51.727,44.526,48.817z
			 M33.435,26.522c0.732-1.171-0.188-5.864-1.211-6.596c-1.023-0.732-20.682,3.479-21.412,5.089
			c-0.731,1.61,0.411,5.576,1.581,6.747C13.563,32.933,32.705,27.693,33.435,26.522z M87.943,20.557L46.671,33.186l0.636,3.552
			l40.643-13.41L87.943,20.557z M48.663,42.972l0.48,3.708l39.419-15.391l-0.008-2.771L48.663,42.972z M50.654,52.667l0.48,3.553
			l37.428-16.798l-0.008-2.771L50.654,52.667z"/>
	</g>
</g>
</svg>
