<?xml version="1.0" encoding="utf-8"?>
<!-- Generator: Adobe Illustrator 16.0.0, SVG Export Plug-In . SVG Version: 6.00 Build 0)  -->
<!DOCTYPE svg PUBLIC "-//W3C//DTD SVG 1.1//EN" "http://www.w3.org/Graphics/SVG/1.1/DTD/svg11.dtd">
<svg version="1.1" id="Layer_1" xmlns="http://www.w3.org/2000/svg" xmlns:xlink="http://www.w3.org/1999/xlink" x="0px" y="0px"
	  viewBox="0 0 78.815 79" enable-background="new 0 0 78.815 79" xml:space="preserve">
<circle cx="39.456" cy="39.563" r="39.359"/>
<g>
	<path fill="#FFFFFF" d="M58.04,39.578c0.708-0.777,0.641-1.97-0.152-2.663L40.432,21.641c-0.792-0.693-2.063-0.679-2.839,0.033
		L20.078,37.729c-0.775,0.711-0.813,1.904-0.084,2.661l0.439,0.458c0.729,0.758,1.906,0.849,2.628,0.2l1.309-1.171v17.162
		c0,1.053,0.854,1.904,1.905,1.904h6.828c1.052,0,1.906-0.852,1.906-1.904V45.032h8.708v12.007
		c-0.016,1.051,0.738,1.904,1.789,1.904h7.235c1.054,0,1.906-0.854,1.906-1.906V40.119c0,0,0.361,0.316,0.808,0.707
		c0.445,0.392,1.38,0.078,2.089-0.702L58.04,39.578z"/>
</g>
</svg>
