<?xml version="1.0" encoding="utf-8"?>
<!-- Generator: Adobe Illustrator 16.0.0, SVG Export Plug-In . SVG Version: 6.00 Build 0)  -->
<!DOCTYPE svg PUBLIC "-//W3C//DTD SVG 1.1//EN" "http://www.w3.org/Graphics/SVG/1.1/DTD/svg11.dtd">
<svg version="1.1" id="Layer_1" xmlns="http://www.w3.org/2000/svg" xmlns:xlink="http://www.w3.org/1999/xlink" x="0px" y="0px"
	 width="100px" height="100px" viewBox="0 0 100 100" enable-background="new 0 0 100 100" xml:space="preserve">
<g>
	<path fill="#010101" d="M98.259,37.73L98.3,68.527v1.513L97.4,69.999c-0.219,0-0.438,0-0.654,0c-0.057,0-0.109,0-0.163,0
		c-0.056-0.028-0.097-0.041-0.123-0.041c-4.146,0.327-6.408,2.181-6.79,5.562c0,0.082,0,0.179,0,0.287
		c0,0.027,0.016,0.055,0.041,0.082l0.042,0.695l0.081,0.898h-5.889c-1.037,4.145-3.98,6.367-8.836,6.666h-50.22
		c-4.88-0.328-7.839-2.549-8.875-6.666h-3.518c-0.327,0-0.545,0-0.654,0l-0.736-0.041c0.082-1.228-0.041-2.426-0.369-3.599
		c-0.354-0.873-0.886-1.608-1.594-2.209c-1.336-1.09-2.958-1.649-4.868-1.677c-0.272,0-0.586,0.027-0.94,0.082L2.64,70.12
		L1.7,70.244V36.913h0.818c0.191,0,0.396-0.014,0.614-0.041c3.735-0.382,5.875-2.1,6.421-5.153l0.041-0.613l0.041-0.736h6.38
		c1.036-4.145,3.994-6.38,8.875-6.708h11.165c2.672-4.962,7.32-7.566,13.946-7.811c6.626,0.245,11.274,2.849,13.946,7.811h11.162
		c4.882,0.328,7.826,2.563,8.836,6.708h5.644l0.041,0.736l0.081,0.613c0.573,3.163,2.822,4.894,6.749,5.194h0.979h0.818
		L98.259,37.73"/>
</g>
</svg>
