<?xml version="1.0" encoding="utf-8"?>
<!-- Generator: Adobe Illustrator 16.0.0, SVG Export Plug-In . SVG Version: 6.00 Build 0)  -->
<!DOCTYPE svg PUBLIC "-//W3C//DTD SVG 1.1//EN" "http://www.w3.org/Graphics/SVG/1.1/DTD/svg11.dtd">
<svg version="1.1" id="Layer_1" xmlns="http://www.w3.org/2000/svg" xmlns:xlink="http://www.w3.org/1999/xlink" x="0px" y="0px"
	 width="100px" height="100px" viewBox="0 0 100 100" enable-background="new 0 0 100 100" xml:space="preserve">
<path d="M41.665,30.783c2.698-5.861,11.31-15.376,27.493-14.894c23.185,0.693,19.941,40.828-3.542,43.964
	c0,0,0.678,1.68,0.702,4.584c0.021,2.403-1.055,13.48-15.889,21.648C39.293,79.59,34.146,69.465,34.287,59.691
	c0,0-19.534-2.116-19.724-25.137c-0.191-23.021,36.99-27.696,46.531,1.018c0,0,1.817-1.164,6.915-1.017
	c3.753,0.109,14.355,3.902,21.578,15.707C82.77,59.979,70.59,67.441,60.913,63.95l-0.079,0.493
	c-1.811,12.23-16.131,18.455-25.438,18.185s-21.487-6.433-21.6-20.046c-0.112-13.614,7.47-20.973,20.975-22.13
	c0,0-1.795-2.818-1.824-6.25c-0.046-5.548,5.501-14.805,16.505-20.257c8.22,4.108,17.121,11.071,17.21,21.706
	c0.018,2.157-0.801,3.711-0.801,3.711S84.82,41.406,85.02,65.645c0.073,8.881-6.074,18.91-20.449,18.492
	c-7.396-0.214-18.896-4.529-23.431-20.431c0,0-1.434,1.106-7.381,1.528C29.455,65.54,16.695,60.598,9.74,49.361
	c6.172-10.137,18.432-16.243,30.584-13.813C40.326,35.551,40.522,33.399,41.665,30.783l0.479,0.326
	c-0.77,1.92-1.442,3.858-1.304,6.365l-0.581,0.149l-0.004-0.58c-12.67-3.156-24.87,4.351-29.578,12.486
	c6.975,10.715,18.37,15.073,22.745,15.2c5.733,0.166,9.037-2.229,9.037-2.229l0.42,0.594l-0.497,0.152
	C44.378,73.43,55.01,83.28,65.396,83.582c10.388,0.302,19.469-6.655,18.856-20.283c-0.644-14.365-10.737-22.801-19.214-23.046
	l-0.749-0.106c0,0,1.246,0.036,1.217-3.615c-0.092-11.052-8.127-17.73-16.043-21.658c-8.039,3.738-15.936,12.415-15.876,19.569
	c0.036,4.481,2.471,7.458,2.471,7.458l-0.419-0.428c-7.895-0.229-21.23,4.612-21.093,21.212C14.664,76.882,27.5,81.902,35.394,82.13
	c11.385,0.331,25.272-8.063,25.176-19.685l0.33-0.404l0.174,1c9.02,2.3,20.309-3.739,27.275-13.266
	C83.87,41.034,72.947,35.032,68.07,34.89c-6.76-0.196-8.846,2.067-8.846,2.067l0.879-0.971C54.98,19.24,40.335,16.491,35.349,16.346
	c-4.986-0.145-20.244,3.175-20.12,18.227c0.195,23.685,20.807,24.614,20.807,24.614l0.226,0.561l-0.886-0.025
	c0.616,13.332,8.27,20.918,15.513,25.17c12.27-6.963,14.967-16.359,14.937-20.137c-0.041-4.98-1.63-6.023-1.63-6.023l0.408-0.899
	l1.002,0.692c25.543-5.564,23.101-42.047,3.475-42.224c-11.723-0.104-22.952,5.629-26.934,14.807L41.665,30.783z M25.146,75.982
	c-1.494-3.705-4.542-7.582-4.594-13.813c-0.1-12.064,11.552-16.318,11.552-16.318s-4.69-4.452-4.737-10.345
	C27.247,21.223,39.05,12.349,50.36,7.642c15.519,7.374,21.64,20.385,21.703,28c0.054,6.476-3.574,9.939-3.574,9.939
	c6.854,4.928,9.484,11.562,9.541,18.533c0.057,6.69-1.002,7.313-1.061,11.686c-3.234,0.106-5.677,1.562-12.211,0.959
	c-12.063-1.11-17.12-10.786-17.12-10.786s-4.771,5.67-14.161,5.397C17.31,70.9,8.511,58.107,1.395,49.983
	c8.531-7.823,17.817-22.015,31.644-21.615c8.062,0.235,13.832,4.885,13.832,4.885c5.074-9.314,15.525-11.169,19.848-11.043
	c3.207,0.093,6.436,0.785,9.499,1.204c0.355,3.592,1.683,4.729,1.726,9.91c0.134,16.104-9.465,20.886-9.465,20.886
	s3.438,3.752,3.481,9.063c0.127,15.431-12.873,24.681-21.687,29.084C33.308,84.126,27.647,69.7,27.603,64.146
	c-0.061-7.306,3.728-11.346,3.728-11.346c-8.519-5.392-9.901-11.904-9.965-19.459c-0.029-3.689,0.708-5.269,1.116-8.709
	c3.71,0.038,5.189-2.477,11.339-2.299c15.04,0.437,20.777,10.977,20.777,10.977c6.189-4.883,10.592-5.088,14.082-4.985
	c3.489,0.101,14.141,2.152,24.051,15.055c2.223,2.893,4.129,5.123,5.875,6.932c-6.799,7.813-13.951,20.801-30.24,20.328
	c-10.721-0.313-14.16-4.354-14.16-4.354c-5.68,11.205-21.389,10.417-21.389,10.417l-0.233-0.38
	c5.068,0.146,18.284-1.876,22.104-12.057l0.336,0.426l-0.162,0.492c0,0,4.27,4.024,12.746,4.27
	C84.014,69.934,90.996,57.9,97.682,50.031c-7.478-8.251-16.306-20.84-28.998-21.208c-10.471-0.304-15.397,6.607-15.397,6.607
	l-0.251-0.257l0.906-0.969c0,0-5.734-10.208-19.279-10.602c-8.204-0.237-8.346,1.945-11.779,2.022
	c-1.17,6.709-2.986,21.727,10.693,27.489l-0.081,0.246l-1.167-0.53c0,0-3.535,4.545-3.482,10.853
	c0.041,5.036,3.709,18.709,22.022,27.689c11.184-5.555,27.671-22.479,17.112-37.01l-0.746,0.061l-0.517-2.089l0.248-0.075
	l0.257,0.92c0,0,9.61-3.207,9.469-20.39c-0.043-5.154-1.121-6.303-1.432-8.962c-2.601-0.466-5.521-1.115-8.455-1.2
	c-4.654-0.135-15.187,2.049-19.433,10.972l-1.232,1.707l0.072-1.243c0,0-4.854-4.373-13.331-4.619
	C19.091,29.044,10.647,42.56,2.523,50.399c6.941,8.188,15.522,20.107,30.868,20.553c11.22,0.325,15.063-6.865,15.063-6.865
	l0.336,0.341l-0.244,0.657c0,0,5.933,11.5,21.108,10.903l6.513-0.963c0.465-1.823,1.278-6.959,1.284-10.596
	c0.005-4.399-0.866-14.383-10.874-19.072l-0.004-0.331l0.999,0.195c0,0,3.464-3.137,3.406-10.026
	c-0.045-5.454-4.848-18.925-20.713-26.916C40.091,12.464,28.357,20.454,27.64,35.265c-0.284,5.856,6.299,11.581,6.299,11.581
	l-0.108,0.328l-0.89-0.468c0,0-11.486,4.092-11.388,15.935c0.058,7.033,2.645,9.385,3.968,12.771
	c1.524,0.157,4.209,0.717,7.061,0.912l0.233,0.38C27.746,76.557,25.146,75.982,25.146,75.982z"/>
</svg>
