<svg xmlns="http://www.w3.org/2000/svg" xmlns:se="http://svg-edit.googlecode.com" xmlns:xlink="http://www.w3.org/1999/xlink" id="svgcontent" width="205.65" height="395.85" x="0" y="0" viewBox="0 0 205.65 395.85" overflow="hidden"><g mask="" style="pointer-events:all"><title style="pointer-events:inherit">Layer 1</title><g id="svg_14" display="null" fill-opacity="1" stroke-opacity="1" style="pointer-events:inherit" clip-id="166"><g id="svg_15" transform="matrix(2.05956, 0, 0, 0.895966, -69.3211, -157.482)" style="pointer-events:inherit"><path fill="#7f003f" stroke="#7f003f" d="M115.49347,270.69473C120.02747,270.54874 123.80548,272.04074 126.82047,275.16574C129.83847,278.30972 131.40048,282.16672 131.50848,286.73672C131.40048,291.30673 129.83746,295.15573 126.82047,298.28073C123.80247,301.42673 120.02747,302.92471 115.49347,302.77969C107.81448,302.16672 100.94147,302.21872 94.87148,302.94174S85.04347,305.6777 83.59848,308.98471C82.13547,305.6777 78.36847,303.6647 72.29747,302.94174C66.22748,302.21872 59.36248,302.16672 51.70247,302.77969C47.16748,302.92471 43.39148,301.42569 40.37447,298.28073C37.33948,295.15573 35.76848,291.30673 35.65947,286.73672C35.76748,282.16672 37.33948,278.30868 40.37447,275.16574C43.39148,272.04074 47.16748,270.54971 51.70247,270.69473C59.36248,271.29074 66.22748,271.23672 72.29747,270.53171C78.36748,269.80868 82.13448,267.79471 83.59848,264.48874C85.04347,267.79471 88.80147,269.80868 94.87148,270.53171C100.94147,271.23672 107.81448,271.29074 115.49347,270.69473" id="svg_16" style="pointer-events:inherit"/></g></g><g id="svg_1" type="text" text="SPIRIT" font-size="20.391031680014944" font-family="Aldo" fill="000000" text-anchor="start" font-weight="normal" font-style="normal" lineHeight="1" shapeId="0" shapeVal="0" fill-opacity="1" display="null" elemBBoxWidth="55.546875" stroke="null" stroke-dasharray="none" style="pointer-events:inherit"><path id="svg_9" fill="#f9b909" stroke-width="0" d="M135.11784,106.04411C135.11784,106.04411 135.11784,100.21227 135.11784,100.21227C135.95387,101.53768 137.23851,102.37372 138.93097,102.69997C138.93097,102.69997 138.93097,106.04411 138.93097,106.04411C138.93097,106.04411 135.11784,106.04411 135.11784,106.04411C135.11784,106.04411 135.11784,106.04411 135.11784,106.04411M140.05247,101.66003C137.36086,101.74159 135.07706,99.37624 135.11784,96.7254C135.15863,93.87066 137.46281,91.52569 140.62341,91.81116C140.62341,91.81116 140.62341,96.17484 140.62341,96.17484C143.29465,96.09328 145.70079,98.47903 145.66,101.10947C145.61922,104.005 143.25386,106.30918 140.05247,106.04411C140.05247,106.04411 140.05247,101.66003 140.05247,101.66003C140.05247,101.66003 140.05247,101.66003 140.05247,101.66003M141.72453,95.15529C141.72453,95.15529 141.72453,91.81116 141.72453,91.81116C141.72453,91.81116 144.98711,91.81116 144.98711,91.81116C144.98711,91.81116 144.98711,96.97009 144.98711,96.97009C144.08989,95.99133 143.00917,95.37959 141.72453,95.15529C141.72453,95.15529 141.72453,95.15529 141.72453,95.15529M146.88347,106.04411C146.88347,106.04411 146.88347,91.83155 146.88347,91.83155C146.88347,91.83155 151.22676,91.83155 151.22676,91.83155C151.22676,91.83155 151.22676,102.10863 151.22676,102.10863C150.30916,101.9659 149.49352,101.57847 148.77983,100.94634C148.77983,100.94634 148.00497,101.74159 148.00497,101.74159C148.96335,102.59801 150.04408,103.06701 151.22676,103.16897C151.22676,103.16897 151.22676,106.04411 151.22676,106.04411C151.22676,106.04411 146.88347,106.04411 146.88347,106.04411C146.88347,106.04411 146.88347,106.04411 146.88347,106.04411M152.34827,91.83155C154.91754,91.87234 157.24211,94.29887 157.24211,96.9497C157.24211,99.6821 154.95831,102.10863 152.34827,102.16981C152.34827,102.16981 152.34827,91.83155 152.34827,91.83155C152.34827,91.83155 152.34827,91.83155 152.34827,91.83155M158.46558,106.04411C158.46558,106.04411 158.46558,91.83155 158.46558,91.83155C158.46558,91.83155 162.82925,91.83155 162.82925,91.83155C162.82925,91.83155 162.82925,106.04411 162.82925,106.04411C162.82925,106.04411 158.46558,106.04411 158.46558,106.04411C158.46558,106.04411 158.46558,106.04411 158.46558,106.04411M164.05272,106.04411C164.05272,106.04411 164.05272,91.81116 164.05272,91.81116C164.05272,91.81116 168.43678,91.81116 168.43678,91.81116C168.43678,91.81116 168.43678,98.03043 168.43678,98.03043C168.43678,98.03043 165.82674,99.19272 165.82674,99.19272C165.82674,99.19272 167.7435,106.04411 167.7435,106.04411C167.7435,106.04411 164.05272,106.04411 164.05272,106.04411C164.05272,106.04411 164.05272,106.04411 164.05272,106.04411M169.5583,91.83155C172.16835,91.91312 174.37057,94.27847 174.37057,96.97009C174.37057,98.29551 173.92198,99.53936 173.02477,100.66087C173.02477,100.66087 174.49292,106.04411 174.49292,106.04411C174.49292,106.04411 168.88539,106.04411 168.88539,106.04411C168.88539,106.04411 167.17255,99.82484 167.17255,99.82484C167.17255,99.82484 169.5583,98.74411 169.5583,98.74411C169.5583,98.74411 169.5583,91.83155 169.5583,91.83155C169.5583,91.83155 169.5583,91.83155 169.5583,91.83155M175.71638,106.04411C175.71638,106.04411 175.71638,91.83155 175.71638,91.83155C175.71638,91.83155 180.08006,91.83155 180.08006,91.83155C180.08006,91.83155 180.08006,106.04411 180.08006,106.04411C180.08006,106.04411 175.71638,106.04411 175.71638,106.04411C175.71638,106.04411 175.71638,106.04411 175.71638,106.04411M181.30353,96.15445C181.30353,96.15445 181.30353,91.81116 181.30353,91.81116C181.30353,91.81116 190.66301,91.81116 190.66301,91.81116C190.66301,91.81116 190.66301,96.15445 190.66301,96.15445C190.66301,96.15445 181.30353,96.15445 181.30353,96.15445C181.30353,96.15445 181.30353,96.15445 181.30353,96.15445M183.75046,106.06449C183.75046,106.06449 183.75046,97.27596 183.75046,97.27596C183.75046,97.27596 188.09373,97.27596 188.09373,97.27596C188.09373,97.27596 188.09373,106.06449 188.09373,106.06449C188.09373,106.06449 183.75046,106.06449 183.75046,106.06449C183.75046,106.06449 183.75046,106.06449 183.75046,106.06449" style="pointer-events:inherit"/><rect id="svg_10" x="135.11718611745164" y="91.7871093058493" width="55.54687603842467" height="14.277334705227986" fill="#f9b909" opacity="0" style="pointer-events:inherit"/></g><g type="text" text="NATURE" font-size="19.693289063231838" font-family="Aldo" fill="000000" text-anchor="start" font-weight="normal" font-style="normal" lineHeight="1" shapeId="0" shapeVal="0" fill-opacity="1" display="null" elemBBoxWidth="65.36328125" stroke="null" stroke-dasharray="none" id="svg_6" style="pointer-events:inherit"><path fill="#f9b909" stroke-width="0" d="M10.62215,106.29894C10.62215,106.29894 10.62215,93.28167 10.62215,93.28167C10.62215,93.28167 14.18664,106.29894 14.18664,106.29894C14.18664,106.29894 10.62215,106.29894 10.62215,106.29894C10.62215,106.29894 10.62215,106.29894 10.62215,106.29894M11.60681,92.57271C11.60681,92.57271 15.72271,92.57271 15.72271,92.57271C15.72271,92.57271 19.30689,106.29894 19.30689,106.29894C19.30689,106.29894 15.26977,106.29894 15.26977,106.29894C15.26977,106.29894 11.60681,92.57271 11.60681,92.57271M16.78615,92.57271C16.78615,92.57271 20.13401,92.57271 20.13401,92.57271C20.13401,92.57271 20.13401,105.15673 20.13401,105.15673C20.13401,105.15673 16.78615,92.57271 16.78615,92.57271M21.31561,106.31863C21.31561,106.31863 24.15144,95.62517 24.15144,95.62517C24.15144,95.62517 27.12513,106.31863 27.12513,106.31863C27.12513,106.31863 21.31561,106.31863 21.31561,106.31863C21.31561,106.31863 21.31561,106.31863 21.31561,106.31863M24.68316,93.69523C24.68316,93.69523 24.97856,92.55302 24.97856,92.55302C24.97856,92.55302 29.17323,92.55302 29.17323,92.55302C29.17323,92.55302 32.93465,106.31863 32.93465,106.31863C32.93465,106.31863 28.50366,106.31863 28.50366,106.31863C28.50366,106.31863 24.68316,93.69523 24.68316,93.69523M34.11625,96.74769C34.11625,96.74769 34.11625,92.55302 34.11625,92.55302C34.11625,92.55302 43.15546,92.55302 43.15546,92.55302C43.15546,92.55302 43.15546,96.74769 43.15546,96.74769C43.15546,96.74769 34.11625,96.74769 34.11625,96.74769C34.11625,96.74769 34.11625,96.74769 34.11625,96.74769M36.47944,106.31863C36.47944,106.31863 36.47944,97.83082 36.47944,97.83082C36.47944,97.83082 40.67411,97.83082 40.67411,97.83082C40.67411,97.83082 40.67411,106.31863 40.67411,106.31863C40.67411,106.31863 36.47944,106.31863 36.47944,106.31863C36.47944,106.31863 36.47944,106.31863 36.47944,106.31863M48.84682,106.31863C46.42455,106.102 44.33706,103.89636 44.33706,101.27715C44.33706,101.27715 44.33706,92.53333 44.33706,92.53333C44.33706,92.53333 48.84682,92.53333 48.84682,92.53333C48.84682,92.53333 48.84682,106.31863 48.84682,106.31863C48.84682,106.31863 48.84682,106.31863 48.84682,106.31863M49.92995,106.31863C49.92995,106.31863 49.92995,92.53333 49.92995,92.53333C49.92995,92.53333 54.43972,92.53333 54.43972,92.53333C54.43972,92.53333 54.43972,101.27715 54.43972,101.27715C54.47911,103.89636 52.33254,106.1217 49.92995,106.31863C49.92995,106.31863 49.92995,106.31863 49.92995,106.31863M55.62132,106.29894C55.62132,106.29894 55.62132,92.55302 55.62132,92.55302C55.62132,92.55302 59.85537,92.55302 59.85537,92.55302C59.85537,92.55302 59.85537,98.55947 59.85537,98.55947C59.85537,98.55947 57.33464,99.682 57.33464,99.682C57.33464,99.682 59.1858,106.29894 59.1858,106.29894C59.1858,106.29894 55.62132,106.29894 55.62132,106.29894C55.62132,106.29894 55.62132,106.29894 55.62132,106.29894M60.9385,92.57271C63.45925,92.65149 65.58612,94.93591 65.58612,97.53543C65.58612,98.81549 65.15286,100.01678 64.28636,101.09991C64.28636,101.09991 65.70428,106.29894 65.70428,106.29894C65.70428,106.29894 60.28863,106.29894 60.28863,106.29894C60.28863,106.29894 58.63439,100.29248 58.63439,100.29248C58.63439,100.29248 60.9385,99.24874 60.9385,99.24874C60.9385,99.24874 60.9385,92.57271 60.9385,92.57271C60.9385,92.57271 60.9385,92.57271 60.9385,92.57271M66.88587,106.29894C66.88587,106.29894 66.88587,92.55302 66.88587,92.55302C66.88587,92.55302 71.08054,92.55302 71.08054,92.55302C71.08054,92.55302 71.08054,106.29894 71.08054,106.29894C71.08054,106.29894 66.88587,106.29894 66.88587,106.29894C66.88587,106.29894 66.88587,106.29894 66.88587,106.29894M72.16368,106.29894C72.16368,106.29894 72.16368,102.20273 72.16368,102.20273C72.16368,102.20273 75.98418,102.20273 75.98418,102.20273C75.98418,102.20273 75.98418,106.29894 75.98418,106.29894C75.98418,106.29894 72.16368,106.29894 72.16368,106.29894C72.16368,106.29894 72.16368,106.29894 72.16368,106.29894M72.16368,101.09991C72.16368,101.09991 72.16368,97.85051 72.16368,97.85051C72.16368,97.85051 75.98418,97.85051 75.98418,97.85051C75.98418,97.85051 75.98418,101.09991 75.98418,101.09991C75.98418,101.09991 72.16368,101.09991 72.16368,101.09991C72.16368,101.09991 72.16368,101.09991 72.16368,101.09991M72.16368,96.78708C72.16368,96.78708 72.16368,92.55302 72.16368,92.55302C72.16368,92.55302 75.98418,92.55302 75.98418,92.55302C75.98418,92.55302 75.98418,96.78708 75.98418,96.78708C75.98418,96.78708 72.16368,96.78708 72.16368,96.78708C72.16368,96.78708 72.16368,96.78708 72.16368,96.78708" id="svg_7" style="pointer-events:inherit"/><rect x="10.621093704365194" y="92.53298585023731" width="65.36328170914203" height="13.785594068467617" fill="#f9b909" opacity="0" id="svg_8" style="pointer-events:inherit"/></g><g id="svg_20" display="null" fill-opacity="1" style="pointer-events:inherit" clip-id="334"><path d="M106.06906,73.78485C106.06906,75.56319 105.29384,77.88744 103.82291,79.04744C102.35693,77.88815 101.58171,75.5639 101.58171,73.78485C101.58171,71.30443 102.42863,68.75157 102.97527,66.96756C102.12195,67.82018 100.80649,68.5173 99.64152,68.5173C97.62962,68.5173 95.85059,65.34541 95.07607,64.7995C96.00748,64.25854 96.39154,65.03377 96.9325,65.03377C98.24867,65.03377 99.49101,63.33353 99.49101,62.01237C99.49101,60.23405 97.94128,59.15285 96.08485,58.60622C93.83798,58.99596 91.66991,57.98717 91.43564,57.6024C92.44443,57.6805 93.68251,57.29004 93.68251,56.74908C91.59182,57.36813 90.58304,55.89648 88.8828,57.13387C88.49235,55.27744 90.73922,54.42484 91.35755,54.42484C91.27946,52.33485 93.60442,51.40912 96.31274,51.40912C97.24414,51.40912 99.87508,50.9413 99.25603,49.54703C100.49342,49.7813 100.88387,50.32225 100.6496,51.94937C100.41532,52.72459 103.05194,54.97076 103.82149,56.98335C104.59671,54.97076 107.23403,52.72459 106.99976,51.94937C106.76691,50.32225 107.15594,49.7813 108.39403,49.54703C107.7757,50.94058 110.40592,51.40912 111.33733,51.40912C114.04564,51.40912 116.36563,52.33485 116.29181,54.42484C116.91156,54.42484 119.15134,55.27815 118.76656,57.13387C117.06136,55.89648 116.05753,57.36813 113.96684,56.74908C113.96684,57.29004 115.20422,57.6805 116.21301,57.6024C115.97945,57.98717 113.81066,58.99596 111.56308,58.60622C109.70808,59.15356 108.15762,60.23405 108.15762,62.01237C108.15762,63.33353 109.39571,65.03377 110.71616,65.03377C111.25781,65.03377 111.64188,64.25854 112.57257,64.7995C111.79664,65.34613 110.01902,68.5173 108.00216,68.5173C106.84216,68.5173 105.5274,67.82088 104.67409,66.96756C105.21646,68.75087 106.06906,71.30371 106.06906,73.78485L106.06906,73.78485zM108.00358,80.2841C108.00358,81.75575 107.46262,83.2274 106.61002,84.23691C106.22595,82.76524 105.52882,81.44907 104.52074,80.3622C105.52882,79.12482 105.99168,77.65317 106.53903,76.18152C107.54001,77.11293 108.00358,78.81317 108.00358,80.2841L108.00358,80.2841zM126.81767,73.31631L126.89506,90.73756C125.5015,88.56879 124.80579,83.07263 124.80579,77.73268C124.80579,75.87625 124.88316,74.09296 124.96126,72.39272C125.5015,72.3913 126.12054,72.69798 126.81767,73.31631L126.81767,73.31631zM112.18355,90.03972C111.95566,90.65805 111.64259,91.2764 111.414,91.90182C110.5621,90.9697 110.02044,90.03972 110.02044,88.41757C110.5621,86.78973 111.25853,84.70047 111.33662,82.91576C113.11495,84.93332 112.88068,88.1833 115.82397,89.0359C115.12684,89.42139 114.74277,89.57686 114.04494,89.96234L116.83276,93.67944C119.07892,93.91371 121.3982,92.05161 123.26031,92.67137C122.4077,93.218 122.09534,94.2204 120.5456,94.45467C120.6237,94.91753 120.85725,95.15179 121.24203,95.15179C122.48508,95.15179 125.03864,94.37659 126.11983,95.45848C123.80055,95.84822 123.72246,96.70084 122.4077,97.32059C123.72388,97.39796 123.87865,98.40178 123.64508,99.2551C122.79176,98.71414 121.93916,98.4025 121.24203,98.4025C119.07892,98.17461 117.13943,97.54916 115.90207,96.38919C114.43112,96.3125 112.57399,96.46655 111.33662,97.39938C111.10234,95.15321 113.4266,94.45609 115.82397,94.53348C114.66468,93.06111 114.12444,91.04922 112.18355,90.03972L112.18355,90.03972zM106.68811,65.65138C106.68811,65.96375 107.23545,66.42661 107.77428,66.42661C108.31523,66.42661 109.16783,66.19234 109.55331,65.88567C109.01236,65.57401 108.47212,65.88567 107.93117,65.49521C107.61951,65.26733 106.76691,65.03305 106.68811,65.65138L106.68811,65.65138zM99.64223,80.2841C99.64223,78.81245 100.11077,77.11221 101.11388,76.18152C101.66051,77.65317 102.12267,79.12482 103.12648,80.3622C102.12267,81.44907 101.42624,82.76454 101.03578,84.23691C100.18816,83.22812 99.64223,81.75647 99.64223,80.2841L99.64223,80.2841zM106.06906,86.47739C106.06906,88.56737 104.75288,90.9697 103.82291,92.13042C102.89717,90.9697 101.58171,88.56737 101.58171,86.47739C101.58171,84.54216 102.66291,82.68716 103.82291,81.67696C104.98787,82.68716 106.06906,84.54358 106.06906,86.47739L106.06906,86.47739zM80.82813,73.31631C81.52455,72.69798 82.14928,72.3913 82.69023,72.3913C82.76832,74.09154 82.84641,75.87555 82.84641,77.73126C82.84641,83.07123 82.14928,88.56879 80.75572,90.73685L80.82813,73.31631L80.82813,73.31631zM95.46156,90.03972C93.52704,91.04922 92.9868,93.06111 91.8268,94.53204C94.22346,94.45467 96.54843,95.15179 96.31416,97.39796C95.07678,96.46585 93.22036,96.3111 91.74871,96.38847C90.51133,97.54776 88.57114,98.17319 86.40307,98.40178C85.70594,98.40178 84.85901,98.71272 84.0057,99.25438C83.77142,98.40178 83.92831,97.39796 85.24307,97.31917C83.9276,96.6994 83.84952,95.84752 81.52526,95.45706C82.53405,94.37659 85.24307,95.15038 86.33066,95.15038C86.79282,95.15038 87.02708,94.91611 87.09949,94.45325C85.55544,94.21898 85.24307,93.21729 84.39047,92.66995C86.25257,92.05019 88.57114,93.91229 90.81802,93.67802L93.60513,89.96164C92.908,89.57544 92.52393,89.41997 91.8268,89.03448C94.76442,88.18188 94.53583,84.9319 96.31416,82.91434C96.39225,84.69975 97.08939,86.78833 97.63034,88.41615C97.63034,90.0383 97.08939,90.9697 96.23678,91.90041C96.00748,91.2764 95.69511,90.65805 95.46156,90.03972L95.46156,90.03972zM107.07856,113.50304C106.45952,113.26877 105.99168,112.80591 105.45073,112.87761C106.14645,115.74353 104.83169,117.37135 103.82291,118.30205C102.81908,117.52682 101.42624,115.66614 102.20075,112.87761C101.66051,112.80519 101.19197,113.26877 100.57364,113.50304C100.57364,110.40285 102.97598,109.39478 103.82362,108.15668C104.59813,109.39478 107.07856,110.40285 107.07856,113.50304L107.07856,113.50304zM103.82291,94.29919C104.90977,92.2085 108.8569,85.00644 108.8569,80.20601C108.8569,77.96481 108.39474,75.71866 106.92238,74.70987C106.84429,74.16891 107.38454,73.23822 107.77428,72.93153C106.6086,71.76657 106.38072,70.14442 105.83977,68.67206C107.30502,69.52538 109.63069,69.75327 111.72068,69.75327C113.42518,69.75327 116.75396,68.82825 116.75396,65.72878C116.75396,62.86356 117.373,60.38881 121.39749,60.38881C126.81697,60.38881 126.27531,71.14754 129.53096,71.92204C129.1405,72.3125 128.44479,72.39059 128.05931,72.39059C124.34221,72.39059 124.88174,63.33211 121.16962,63.33211C119.23013,63.33211 118.68918,64.87616 118.68918,66.19164C118.68918,67.20041 119.07963,68.75015 120.08273,68.75015C121.39891,68.75015 122.25223,68.13112 122.25223,67.58519C122.25223,66.96616 121.71056,66.65947 121.17174,66.65947C120.6244,66.65947 120.23962,67.20041 120.00536,67.81876C119.4644,67.58449 119.23013,66.58138 119.23013,66.26901C119.23013,64.87546 119.92727,64.17831 121.32083,64.17831C123.56699,64.17831 124.10794,68.05302 124.10794,70.91823C124.10794,76.87723 123.26102,82.91434 124.26412,88.95711C122.25223,87.40666 121.79008,84.00262 121.79008,80.59575C121.79008,77.26768 122.09747,74.16821 121.32153,73.39369C120.78058,77.34081 121.17174,81.2148 121.39891,85.23859C118.76798,83.61147 119.62058,76.80057 119.38702,72.4623C118.6899,73.39369 118.6118,75.09891 118.6118,77.03342C118.6118,78.96793 118.84607,81.136 118.76798,82.91434C116.52252,81.52077 116.98965,77.26698 116.75538,74.24631C115.82468,75.02151 116.36563,79.35838 115.74659,80.82434C114.50922,79.58698 114.90038,76.2589 114.27495,74.09084C114.04778,74.3251 113.96826,74.86534 113.96826,75.71866L113.96826,76.87866L113.96826,77.96553L112.11255,75.40701L111.25923,76.18224L110.48473,74.71059C111.02496,76.4946 110.94688,77.57579 110.94688,79.97813C110.94688,85.39618 107.23474,90.50827 104.51862,94.83873C107.38454,93.44516 107.38454,95.61395 108.62688,96.38919C107.93117,96.3125 107.30573,96.00511 106.6086,95.92844C106.22453,96.62344 105.68359,97.1651 104.83027,97.39868C104.83027,99.48936 105.21504,102.04221 106.4581,102.04221C107.85165,102.04221 109.24664,99.71796 110.64019,99.71796C111.18114,99.71796 111.64259,100.18649 112.18355,101.11151C109.7095,100.2653 111.48783,106.2236 107.77428,106.2236C106.6086,106.2236 105.76238,104.59576 104.90977,103.74954C104.29144,108.93404 110.40592,105.98932 111.414,108.39308C108.4707,107.54048 110.94688,111.79996 107.77428,112.18402C109.09045,108.77715 105.14405,108.77715 103.82291,106.99883C102.50743,108.77715 98.56032,108.77715 99.87579,112.18402C96.7039,111.79996 99.17937,107.54048 96.23607,108.39308C97.24486,105.98932 103.36005,108.93404 102.74171,103.74954C101.88839,104.59576 101.03578,106.2236 99.8765,106.2236C96.15869,106.2236 97.94199,100.26317 95.46156,101.11151C96.00819,100.18649 96.47034,99.71796 96.9332,99.71796C98.48294,99.71796 99.79841,102.04221 101.19267,102.04221C102.43005,102.04221 102.81979,99.48936 102.81979,97.39938C101.96719,97.1651 101.42624,96.62344 101.03578,95.92844C100.33936,96.00511 99.72032,96.3125 99.0239,96.38919C100.26695,95.61395 100.26695,93.44589 103.12648,94.83873C100.41745,90.50827 96.70461,85.39618 96.70461,79.97813C96.70461,77.57579 96.62652,76.49388 97.16747,74.71059L96.39225,76.18224L95.53964,75.40701L93.68322,77.96553L93.68322,75.71936C93.68322,74.78796 93.60513,74.24771 93.37086,74.09154C92.75182,76.26031 93.14227,79.58768 91.90489,80.82506C91.28088,79.28099 91.74871,75.10033 90.8961,74.24701C90.81802,75.02223 90.73993,75.87483 90.73993,76.72177C90.73993,79.12482 90.58375,81.83385 88.88351,82.91504C88.80541,81.1367 89.03969,78.96793 89.03969,77.03412C89.03969,75.10033 88.96159,73.39441 88.26517,72.46371C88.0309,76.80057 88.88422,83.61288 86.25257,85.24001C86.48116,81.21622 86.87161,77.34222 86.33066,73.39441C85.55544,74.16891 85.86212,77.2684 85.86212,80.59647C85.86212,84.00262 85.39925,87.40808 83.38736,88.95853C84.39047,82.99384 83.54354,76.87794 83.54354,70.91895C83.54354,68.05373 84.08379,64.17903 86.33066,64.17903C87.72422,64.17903 88.42064,64.87546 88.42064,66.26971C88.42064,66.58138 88.18637,67.58519 87.64542,67.81946C87.41115,67.20041 87.02637,66.66017 86.48045,66.66017C85.9395,66.66017 85.39925,66.96686 85.39925,67.58591C85.39925,68.13182 86.25186,68.75087 87.56733,68.75087C88.57114,68.75087 88.96088,67.20113 88.96088,66.19234C88.96088,64.87616 88.41993,63.33281 86.48045,63.33281C82.76761,63.33281 83.30856,72.3913 79.59004,72.3913C79.20527,72.3913 78.50884,72.3132 78.11839,71.92276C81.37405,71.14824 80.82742,60.38953 86.25186,60.38953C90.27635,60.38953 90.8954,62.86427 90.8954,65.72948C90.8954,68.82895 94.22346,69.75397 95.92939,69.75397C98.01937,69.75397 100.33865,69.52538 101.8103,68.67278C101.26935,70.14442 101.03508,71.76657 99.87579,72.93225C100.26624,73.23894 100.8072,74.16963 100.7291,74.71059C99.25745,75.71936 98.79459,77.96553 98.79459,80.20673C98.79459,85.00644 102.74171,92.2085 103.82291,94.29919L103.82291,94.29919zM100.96338,65.65138C100.88528,65.03305 100.03268,65.26662 99.72032,65.49521C99.17937,65.88567 98.63912,65.5733 98.09817,65.88567C98.48294,66.19234 99.33555,66.42661 99.87579,66.42661C100.41603,66.42661 100.96338,65.96375 100.96338,65.65138L100.96338,65.65138zM111.48783,55.12196L111.414,53.88388C110.71828,53.96198 110.24902,54.19624 110.02044,54.58101C110.5621,55.12196 110.94688,55.12196 111.48783,55.12196L111.48783,55.12196zM112.26305,55.12196L113.42802,54.27434C113.19446,53.88388 112.81039,53.96268 112.11255,53.72771L112.03445,54.42412L112.26305,55.12196L112.26305,55.12196zM96.23607,53.96198L96.15797,55.19934C96.70461,55.19934 97.08939,55.19934 97.62962,54.6584C97.40103,54.27434 96.9325,54.04005 96.23607,53.96198L96.23607,53.96198zM94.22346,54.34674L95.38914,55.19934L95.61774,54.50293L95.53964,53.8065C94.84251,54.04005 94.45774,53.96198 94.22346,54.34674L94.22346,54.34674z" id="svg_21" fill="#f9b909" style="pointer-events:inherit"/></g><g id="svg_22" type="text" text="Youth Group" font-size="25.18736668414343" font-family="Arvo" fill="7f003f" text-anchor="start" font-weight="normal" font-style="normal" lineHeight="1" shapeId="0" shapeVal="0" fill-opacity="1" display="null" elemBBoxWidth="157.2820281982422" stroke="null" stroke-dasharray="none" stroke-opacity="1" style="pointer-events:inherit"><path id="svg_25" fill="#7f003f" stroke-width="1" d="M24.18333085144043,125.0038074975586 C24.18333085144043,125.0038074975586 30.20031085144043,125.0038074975586 30.20031085144043,125.0038074975586 C30.20031085144043,125.0038074975586 30.20031085144043,127.1027574975586 30.20031085144043,127.1027574975586 C30.20031085144043,127.1027574975586 28.45119085144043,127.1027574975586 28.45119085144043,127.1027574975586 C28.45119085144043,127.1027574975586 31.94944085144043,133.1197374975586 31.94944085144043,133.1197374975586 C31.94944085144043,133.1197374975586 35.72754085144043,127.1027574975586 35.72754085144043,127.1027574975586 C35.72754085144043,127.1027574975586 33.76853085144043,127.1027574975586 33.76853085144043,127.1027574975586 C33.76853085144043,127.1027574975586 33.76853085144043,125.0038074975586 33.76853085144043,125.0038074975586 C33.76853085144043,125.0038074975586 39.85547085144043,125.0038074975586 39.85547085144043,125.0038074975586 C39.85547085144043,125.0038074975586 39.85547085144043,127.1027574975586 39.85547085144043,127.1027574975586 C39.85547085144043,127.1027574975586 38.24628085144043,127.1027574975586 38.24628085144043,127.1027574975586 C38.24628085144043,127.1027574975586 32.99891085144043,135.0087874975586 32.99891085144043,135.0087874975586 C32.99891085144043,135.0087874975586 32.99891085144043,141.5155274975586 32.99891085144043,141.5155274975586 C32.99891085144043,141.5155274975586 34.88796085144043,141.5155274975586 34.88796085144043,141.5155274975586 C34.88796085144043,141.5155274975586 34.88796085144043,143.6144774975586 34.88796085144043,143.6144774975586 C34.88796085144043,143.6144774975586 28.87098085144043,143.6144774975586 28.87098085144043,143.6144774975586 C28.87098085144043,143.6144774975586 28.87098085144043,141.5155274975586 28.87098085144043,141.5155274975586 C28.87098085144043,141.5155274975586 30.55014085144043,141.5155274975586 30.55014085144043,141.5155274975586 C30.55014085144043,141.5155274975586 30.55014085144043,135.0087874975586 30.55014085144043,135.0087874975586 C30.55014085144043,135.0087874975586 25.65260085144043,127.1027574975586 25.65260085144043,127.1027574975586 C25.65260085144043,127.1027574975586 24.18333085144043,127.1027574975586 24.18333085144043,127.1027574975586 C24.18333085144043,127.1027574975586 24.18333085144043,125.0038074975586 24.18333085144043,125.0038074975586 C24.18333085144043,125.0038074975586 24.18333085144043,125.0038074975586 24.18333085144043,125.0038074975586 M47.69154085144043,143.9642974975586 C43.56361085144043,143.9642974975586 41.254770851440426,141.3056374975586 41.254770851440426,137.24766749755858 C41.254770851440426,133.1897074975586 43.56361085144043,130.5310374975586 47.69154085144043,130.5310374975586 C51.81947085144043,130.5310374975586 54.05835085144043,133.1897074975586 54.05835085144043,137.24766749755858 C54.05835085144043,141.2356674975586 51.749510851440434,143.9642974975586 47.69154085144043,143.9642974975586 C47.69154085144043,143.9642974975586 47.69154085144043,143.9642974975586 47.69154085144043,143.9642974975586 M47.69154085144043,132.49005749755858 C44.96291085144043,132.49005749755858 43.77351085144043,134.4490774975586 43.70354085144043,137.24766749755858 C43.70354085144043,140.0462674975586 45.10284085144043,142.00528749755858 47.69154085144043,142.00528749755858 C50.42017085144043,142.00528749755858 51.67954085144043,139.9762974975586 51.67954085144043,137.24766749755858 C51.67954085144043,134.5190374975586 50.42017085144043,132.49005749755858 47.69154085144043,132.49005749755858 C47.69154085144043,132.49005749755858 47.69154085144043,132.49005749755858 47.69154085144043,132.49005749755858 M60.07533085144043,138.78689749755858 C59.72551085144043,142.2851474975586 63.99337085144043,142.2851474975586 65.88242085144043,140.7459174975586 C65.88242085144043,140.7459174975586 65.88242085144043,132.9798074975586 65.88242085144043,132.9798074975586 C65.88242085144043,132.9798074975586 64.13330085144042,132.9798074975586 64.13330085144042,132.9798074975586 C64.13330085144042,132.9798074975586 64.13330085144042,130.8808674975586 64.13330085144042,130.8808674975586 C64.13330085144042,130.8808674975586 68.26122085144043,130.8808674975586 68.26122085144043,130.8808674975586 C68.26122085144043,130.8808674975586 68.26122085144043,141.5155274975586 68.26122085144043,141.5155274975586 C68.26122085144043,141.5155274975586 69.66052085144042,141.5155274975586 69.66052085144042,141.5155274975586 C69.66052085144042,141.5155274975586 69.66052085144042,143.6144774975586 69.66052085144042,143.6144774975586 C69.66052085144042,143.6144774975586 65.95238085144044,143.6144774975586 65.95238085144044,143.6144774975586 C65.95238085144044,143.6144774975586 65.95238085144044,142.4250674975586 65.95238085144044,142.4250674975586 C63.293720851440426,144.8038774975586 57.696520851440425,144.2441574975586 57.696520851440425,139.0667574975586 C57.696520851440425,139.0667574975586 57.696520851440425,132.9798074975586 57.696520851440425,132.9798074975586 C57.696520851440425,132.9798074975586 56.01736085144043,132.9798074975586 56.01736085144043,132.9798074975586 C56.01736085144043,132.9798074975586 56.01736085144043,130.8808674975586 56.01736085144043,130.8808674975586 C56.01736085144043,130.8808674975586 60.07533085144043,130.8808674975586 60.07533085144043,130.8808674975586 C60.07533085144043,130.8808674975586 60.07533085144043,138.78689749755858 60.07533085144043,138.78689749755858 C60.07533085144043,138.78689749755858 60.07533085144043,138.78689749755858 60.07533085144043,138.78689749755858 M80.57505085144044,143.2646474975586 C77.84642085144043,144.7339174975586 74.34817085144043,143.7544074975586 74.41814085144043,139.7664074975586 C74.41814085144043,139.7664074975586 74.48810085144044,132.69994749755858 74.48810085144044,132.69994749755858 C74.48810085144044,132.69994749755858 72.45912085144043,132.69994749755858 72.45912085144043,132.69994749755858 C72.45912085144043,132.69994749755858 72.45912085144043,130.8808674975586 72.45912085144043,130.8808674975586 C72.45912085144043,130.8808674975586 74.48810085144044,130.8808674975586 74.48810085144044,130.8808674975586 C74.48810085144044,130.8808674975586 74.48810085144044,127.80240749755859 74.48810085144044,127.80240749755859 C74.48810085144044,127.80240749755859 76.72698085144043,126.75293749755859 76.72698085144043,126.75293749755859 C76.72698085144043,126.75293749755859 76.72698085144043,130.8808674975586 76.72698085144043,130.8808674975586 C76.72698085144043,130.8808674975586 79.73547085144043,130.8808674975586 79.73547085144043,130.8808674975586 C79.73547085144043,130.8808674975586 79.73547085144043,132.69994749755858 79.73547085144043,132.69994749755858 C79.73547085144043,132.69994749755858 76.72698085144043,132.69994749755858 76.72698085144043,132.69994749755858 C76.72698085144043,132.69994749755858 76.65701085144043,140.11622749755858 76.65701085144043,140.11622749755858 C76.37716085144044,142.21517749755859 78.61603085144043,142.4950374975586 80.01533085144044,141.7254274975586 C80.01533085144044,141.7254274975586 80.57505085144044,143.2646474975586 80.57505085144044,143.2646474975586 M92.53905085144044,135.7084374975586 C92.88887085144043,132.0702674975586 88.13126085144043,132.14022749755858 86.59203085144043,134.02928749755858 C86.59203085144043,134.02928749755858 86.59203085144043,141.5155274975586 86.59203085144043,141.5155274975586 C86.59203085144043,141.5155274975586 88.41112085144043,141.5155274975586 88.41112085144043,141.5155274975586 C88.41112085144043,141.5155274975586 88.41112085144043,143.6144774975586 88.41112085144043,143.6144774975586 C88.41112085144043,143.6144774975586 82.39413085144042,143.6144774975586 82.39413085144042,143.6144774975586 C82.39413085144042,143.6144774975586 82.39413085144042,141.5155274975586 82.39413085144042,141.5155274975586 C82.39413085144042,141.5155274975586 84.28319085144042,141.5155274975586 84.28319085144042,141.5155274975586 C84.28319085144042,141.5155274975586 84.28319085144042,126.6130074975586 84.28319085144042,126.6130074975586 C84.28319085144042,126.6130074975586 82.53407085144043,126.6130074975586 82.53407085144043,126.6130074975586 C82.53407085144043,126.6130074975586 82.53407085144043,124.4440874975586 82.53407085144043,124.4440874975586 C82.53407085144043,124.4440874975586 86.59203085144043,124.4440874975586 86.59203085144043,124.4440874975586 C86.59203085144043,124.4440874975586 86.66200085144044,132.2801574975586 86.66200085144044,132.2801574975586 C88.97084085144043,129.4815674975586 94.98782085144043,130.3911074975586 94.98782085144043,135.4285774975586 C94.98782085144043,135.4285774975586 94.98782085144043,141.5155274975586 94.98782085144043,141.5155274975586 C94.98782085144043,141.5155274975586 96.87687085144043,141.5155274975586 96.87687085144043,141.5155274975586 C96.87687085144043,141.5155274975586 96.87687085144043,143.6144774975586 96.87687085144043,143.6144774975586 C96.87687085144043,143.6144774975586 90.85989085144044,143.6144774975586 90.85989085144044,143.6144774975586 C90.85989085144044,143.6144774975586 90.85989085144044,141.5155274975586 90.85989085144044,141.5155274975586 C90.85989085144044,141.5155274975586 92.53905085144044,141.5155274975586 92.53905085144044,141.5155274975586 C92.53905085144044,141.5155274975586 92.53905085144044,135.7084374975586 92.53905085144044,135.7084374975586 C92.53905085144044,135.7084374975586 92.53905085144044,135.7084374975586 92.53905085144044,135.7084374975586 M106.60200085144044,134.2391774975586 C105.83238085144043,141.9353174975586 117.44656085144042,144.5939874975586 118.98578085144042,136.8278774975586 C118.98578085144042,136.8278774975586 113.80838085144043,136.8278774975586 113.80838085144043,136.8278774975586 C113.80838085144043,136.8278774975586 113.80838085144043,134.7289274975586 113.80838085144043,134.7289274975586 C113.80838085144043,134.7289274975586 121.64445085144042,134.7289274975586 121.64445085144042,134.7289274975586 C121.64445085144042,134.7289274975586 121.64445085144042,143.6844374975586 121.64445085144042,143.6844374975586 C121.64445085144042,143.6844374975586 119.40557085144043,143.6844374975586 119.40557085144043,143.6844374975586 C119.40557085144043,143.6844374975586 119.40557085144043,139.9762974975586 119.40557085144043,139.9762974975586 C118.28613085144043,142.21517749755859 116.18719085144043,143.7544074975586 112.82887085144043,143.7544074975586 C107.23168085144043,143.7544074975586 104.15322085144042,139.8363674975586 104.15322085144042,134.2391774975586 C104.15322085144042,128.5720174975586 107.44157085144043,124.7939174975586 113.03877085144043,124.58401749755859 C116.25715085144043,124.4440874975586 118.21617085144042,126.1232474975586 119.68543085144043,127.73243749755859 C119.68543085144043,127.73243749755859 120.87483085144044,127.73243749755859 120.87483085144044,127.73243749755859 C120.87483085144044,127.73243749755859 120.87483085144044,129.9013574975586 120.87483085144044,129.9013574975586 C120.87483085144044,129.9013574975586 118.21617085144042,129.9013574975586 118.21617085144042,129.9013574975586 C117.23666085144043,128.2921574975586 115.55750085144042,126.75293749755859 113.03877085144043,126.8928674975586 C108.91084085144043,127.1027574975586 107.02178085144043,130.1112474975586 106.60200085144044,134.2391774975586 C106.60200085144044,134.2391774975586 106.60200085144044,134.2391774975586 106.60200085144044,134.2391774975586 M129.20066085144043,132.6299874975586 C129.90031085144042,131.0207874975586 131.78936085144045,130.4610774975586 134.30810085144043,130.81089749755859 C134.30810085144043,130.81089749755859 134.30810085144043,133.5395274975586 134.30810085144043,133.5395274975586 C134.30810085144043,133.5395274975586 131.92929085144044,133.5395274975586 131.92929085144044,133.5395274975586 C131.92929085144044,133.5395274975586 131.92929085144044,132.7699174975586 131.92929085144044,132.7699174975586 C128.29111085144044,132.9098474975586 129.41055085144043,137.9473174975586 129.2706208514404,141.5155274975586 C129.2706208514404,141.5155274975586 131.43954085144043,141.5155274975586 131.43954085144043,141.5155274975586 C131.43954085144043,141.5155274975586 131.43954085144043,143.6144774975586 131.43954085144043,143.6144774975586 C131.43954085144043,143.6144774975586 125.14269085144043,143.6144774975586 125.14269085144043,143.6144774975586 C125.14269085144043,143.6144774975586 125.14269085144043,141.5155274975586 125.14269085144043,141.5155274975586 C125.14269085144043,141.5155274975586 126.89182085144043,141.5155274975586 126.89182085144043,141.5155274975586 C126.89182085144043,141.5155274975586 126.89182085144043,132.9798074975586 126.89182085144043,132.9798074975586 C126.89182085144043,132.9798074975586 125.14269085144043,132.9798074975586 125.14269085144043,132.9798074975586 C125.14269085144043,132.9798074975586 125.14269085144043,130.8808674975586 125.14269085144043,130.8808674975586 C125.14269085144043,130.8808674975586 129.20066085144043,130.8808674975586 129.20066085144043,130.8808674975586 C129.20066085144043,130.8808674975586 129.20066085144043,132.6299874975586 129.20066085144043,132.6299874975586 C129.20066085144043,132.6299874975586 129.20066085144043,132.6299874975586 129.20066085144043,132.6299874975586 M143.1236708514404,143.9642974975586 C138.99574085144042,143.9642974975586 136.68691085144042,141.3056374975586 136.68691085144042,137.24766749755858 C136.68691085144042,133.1897074975586 138.99574085144042,130.5310374975586 143.1236708514404,130.5310374975586 C147.25160085144043,130.5310374975586 149.49048085144042,133.1897074975586 149.49048085144042,137.24766749755858 C149.49048085144042,141.2356674975586 147.18164085144042,143.9642974975586 143.1236708514404,143.9642974975586 C143.1236708514404,143.9642974975586 143.1236708514404,143.9642974975586 143.1236708514404,143.9642974975586 M143.1236708514404,132.49005749755858 C140.39504085144043,132.49005749755858 139.20564085144042,134.4490774975586 139.1356708514404,137.24766749755858 C139.1356708514404,140.0462674975586 140.53497085144045,142.00528749755858 143.1236708514404,142.00528749755858 C145.85231085144045,142.00528749755858 147.11168085144044,139.9762974975586 147.11168085144044,137.24766749755858 C147.11168085144044,134.5190374975586 145.85231085144045,132.49005749755858 143.1236708514404,132.49005749755858 C143.1236708514404,132.49005749755858 143.1236708514404,132.49005749755858 143.1236708514404,132.49005749755858 M155.50746085144044,138.78689749755858 C155.15764085144042,142.2851474975586 159.42551085144044,142.2851474975586 161.31454085144043,140.7459174975586 C161.31454085144043,140.7459174975586 161.31454085144043,132.9798074975586 161.31454085144043,132.9798074975586 C161.31454085144043,132.9798074975586 159.56543085144042,132.9798074975586 159.56543085144042,132.9798074975586 C159.56543085144042,132.9798074975586 159.56543085144042,130.8808674975586 159.56543085144042,130.8808674975586 C159.56543085144042,130.8808674975586 163.69336085144042,130.8808674975586 163.69336085144042,130.8808674975586 C163.69336085144042,130.8808674975586 163.69336085144042,141.5155274975586 163.69336085144042,141.5155274975586 C163.69336085144042,141.5155274975586 165.09265085144042,141.5155274975586 165.09265085144042,141.5155274975586 C165.09265085144042,141.5155274975586 165.09265085144042,143.6144774975586 165.09265085144042,143.6144774975586 C165.09265085144042,143.6144774975586 161.38452085144044,143.6144774975586 161.38452085144044,143.6144774975586 C161.38452085144044,143.6144774975586 161.38452085144044,142.4250674975586 161.38452085144044,142.4250674975586 C158.72585085144044,144.8038774975586 153.12866085144043,144.2441574975586 153.12866085144043,139.0667574975586 C153.12866085144043,139.0667574975586 153.12866085144043,132.9798074975586 153.12866085144043,132.9798074975586 C153.12866085144043,132.9798074975586 151.44949085144043,132.9798074975586 151.44949085144043,132.9798074975586 C151.44949085144043,132.9798074975586 151.44949085144043,130.8808674975586 151.44949085144043,130.8808674975586 C151.44949085144043,130.8808674975586 155.50746085144044,130.8808674975586 155.50746085144044,130.8808674975586 C155.50746085144044,130.8808674975586 155.50746085144044,138.78689749755858 155.50746085144044,138.78689749755858 C155.50746085144044,138.78689749755858 155.50746085144044,138.78689749755858 155.50746085144044,138.78689749755858 M181.46445085144043,137.03777749755858 C181.46445085144043,142.3551074975586 176.77679085144044,145.2236674975586 172.08914085144042,143.1946874975586 C172.08914085144042,143.1946874975586 172.08914085144042,147.32261749755858 172.08914085144042,147.32261749755858 C172.08914085144042,147.32261749755858 174.04817085144043,147.32261749755858 174.04817085144043,147.32261749755858 C174.04817085144043,147.32261749755858 174.04817085144043,149.42155749755858 174.04817085144043,149.42155749755858 C174.04817085144043,149.42155749755858 168.03119085144044,149.42155749755858 168.03119085144044,149.42155749755858 C168.03119085144044,149.42155749755858 168.03119085144044,147.32261749755858 168.03119085144044,147.32261749755858 C168.03119085144044,147.32261749755858 169.78030085144044,147.32261749755858 169.78030085144044,147.32261749755858 C169.78030085144044,147.32261749755858 169.78030085144044,132.9798074975586 169.78030085144044,132.9798074975586 C169.78030085144044,132.9798074975586 167.96121085144043,132.9798074975586 167.96121085144043,132.9798074975586 C167.96121085144043,132.9798074975586 167.96121085144043,130.8808674975586 167.96121085144043,130.8808674975586 C167.96121085144043,130.8808674975586 172.01918085144044,130.8808674975586 172.01918085144044,130.8808674975586 C172.01918085144044,130.8808674975586 172.01918085144044,131.93033749755858 172.01918085144044,131.93033749755858 C175.79729085144044,128.8518774975586 181.46445085144043,131.4405774975586 181.46445085144043,137.03777749755858 C181.46445085144043,137.03777749755858 181.46445085144043,137.03777749755858 181.46445085144043,137.03777749755858 M179.15561085144043,137.1077374975586 C179.57539085144043,132.9798074975586 174.46796085144044,131.2306874975586 172.08914085144042,133.8893574975586 C172.08914085144042,133.8893574975586 172.08914085144042,140.8158774975586 172.08914085144042,140.8158774975586 C174.60788085144043,143.2646474975586 179.64536085144044,141.2356674975586 179.15561085144043,137.1077374975586 C179.15561085144043,137.1077374975586 179.15561085144043,137.1077374975586 179.15561085144043,137.1077374975586 " stroke="#f9b909" style="pointer-events:inherit"/><rect id="svg_26" x="24.184374809265137" y="124.4453125" width="157.28125" height="24.9765625" fill="#7f003f" opacity="0" stroke="#f9b909" stroke-width="1" style="pointer-events:inherit"/></g></g><defs><mask id="canvasMaskImageDef" maskUnits="objectBoundingBox" x="0" y="0"><image xmlns:xlink="http://www.w3.org/1999/xlink" id="canvasMaskImage" preserveAspectRatio="none" x="-103.65" y="-36.45" width="400" height="440.0580551523948" xlink:href="http://allinonedesigner.designnbuy.in/media/catalog/product/w/h/white-tees-1_-front_1_3.png"/></mask></defs></svg>