<?xml version="1.0" encoding="utf-8"?>
<!-- Generator: Adobe Illustrator 16.0.0, SVG Export Plug-In . SVG Version: 6.00 Build 0)  -->
<!DOCTYPE svg PUBLIC "-//W3C//DTD SVG 1.1//EN" "http://www.w3.org/Graphics/SVG/1.1/DTD/svg11.dtd">
<svg version="1.1" id="Layer_1" xmlns="http://www.w3.org/2000/svg" xmlns:xlink="http://www.w3.org/1999/xlink" x="0px" y="0px"
	 width="100px" height="100px" viewBox="0 0 100 100" enable-background="new 0 0 100 100" xml:space="preserve">
<path fill="#DCB644" d="M80.912,85.959c3.802-34.916-7.005-45.396-11.303-48.135c3.111-1.781,5.147-4.511,5.301-7.534
	c0.072-1.418-0.273-2.791-0.965-4.059c0.111-0.691,0.188-1.397,0.225-2.116c0.146-2.928-0.363-5.708-1.382-8.138
	c1.808-1.403,3.974-8.59,2.39-9.077c-4.576-1.409-7.988,1.078-8.768,1.72c-1.551-0.85-3.268-1.362-5.09-1.454
	c-1.27-0.065-2.51,0.08-3.695,0.406c-0.882-1.64-4.648-8.101-7.365-4.143c-1.159,1.688-2.11,7.946,0.061,9.317
	c-2.006,2.684-3.301,6.149-3.496,9.982c-0.022,0.44-0.028,0.877-0.022,1.311c-1.174,1.381-1.883,2.987-1.971,4.724
	c-0.194,3.841,1.415,7.054,5.874,9.071c-2.651,1.094-6.007,3.546-8.03,9.048c-0.006-0.002-0.01-0.002-0.016-0.002
	c0,0-0.005,0.033-0.017,0.093c-0.456,1.255-0.841,2.667-1.136,4.255c-1.362,4.164-4.063,10.139-8.788,12.422
	c-0.838,0.404-1.633,0.924-2.379,1.541c-1.6-0.028-2.833,1.77-2.833,1.77s-30.299,35.061,7.57,30.457c0,0,4.797-0.438,8.034-2.805
	c1.502,1.05,4.241,1.01,7.37,1.01c4.746,0,8.596,0.095,8.596-3.667c0-0.849-0.196-1.66-0.556-2.409
	c2.274,0.333,5.367,0.52,8.537-0.104c-0.182,0.552-0.277,1.13-0.277,1.725c0,3.764,3.848,3.669,8.595,3.669
	c4.746,0,8.595,0.095,8.595-3.669C83.971,89.078,82.781,87.208,80.912,85.959z M20.985,85.051c0.535-1.443,1.248-2.99,2.049-4.549
	c-0.194,1.268-0.333,2.571-0.412,3.902C22.045,84.573,21.497,84.792,20.985,85.051z M27.957,94.454
	c3.565-0.07,6.186-0.535,6.235-3.571c2.458,0.229,5.109,0.362,7.751,0.297c-0.035,0.244-0.055,0.492-0.056,0.745
	C39.266,94.589,33.077,95.15,27.957,94.454z"/>
<path fill="#3C2417" d="M48.104,89.02 M72.445,15.216c1.14-1.247,2.324-5.395,1.336-5.699c-2.316-0.712-4.176,0.052-5.156,0.64
	C70.189,11.495,71.493,13.222,72.445,15.216z M50.906,12.008c1.348-1.597,2.964-2.869,4.752-3.709
	c-0.844-1.775-3.174-6.023-4.895-3.017C49.978,6.656,49.476,10.905,50.906,12.008z M63.627,17.12
	c-0.793,0.033-1.477-0.89-1.525-2.061s0.555-2.148,1.348-2.181c0.794-0.033,1.477,0.889,1.525,2.061
	C65.023,16.11,64.42,17.086,63.627,17.12z M55.637,15.199c0.346,1.147,1.273,1.887,2.071,1.649c0.799-0.24,1.165-1.368,0.819-2.517
	c-0.348-1.153-1.273-1.89-2.071-1.651C55.658,12.92,55.291,14.047,55.637,15.199z M43.146,88.518
	c-0.068-1.006-0.436-2.148-1.165-3.443c0,0-0.638-0.954,0.432-1.637c1.068-0.683,1.869,0.379,1.869,0.379
	c1.027,1.81,1.546,3.379,1.683,4.742l-0.618-0.132l-0.283-0.807l-0.022,0.784l-0.414,0.044l-0.306-0.96v0.938l-0.458,0.088
	l-0.283-1.244l-0.065,1.287L43.146,88.518 M48.831,43.243c1.219,0,2.208,1.055,2.208,2.356s-0.989,2.356-2.208,2.356
	c-1.22,0-2.208-1.055-2.208-2.356S47.611,43.243,48.831,43.243z M29.105,77c1.219,0,2.208,1.055,2.208,2.357
	c0,1.301-0.989,2.356-2.208,2.356s-2.208-1.056-2.208-2.356C26.897,78.055,27.886,77,29.105,77z M39.457,62.79
	c1.219,0,2.208,1.054,2.208,2.354S40.676,67.5,39.457,67.5s-2.208-1.055-2.208-2.355S38.238,62.79,39.457,62.79z M63.557,24.112
	c0,0,0.24-3.141-0.326-4.776c0,0,0.369,5.147-0.065,5.234 M38.171,73.465c1.192,0,2.159,1.113,2.159,2.486s-0.967,2.486-2.159,2.486
	s-2.159-1.113-2.159-2.486S36.979,73.465,38.171,73.465z M74.418,49.584c0.939,0,1.701,0.791,1.701,1.768
	c0,0.976-0.762,1.767-1.701,1.767s-1.701-0.791-1.701-1.767C72.717,50.375,73.479,49.584,74.418,49.584z M78.154,78.566
	c0.898,0,1.628,0.918,1.628,2.049s-0.729,2.048-1.628,2.048c-0.899,0-1.629-0.917-1.629-2.048S77.255,78.566,78.154,78.566z
	 M73.423,83.236c0.724,0,1.31,0.43,1.31,0.957c0,0.529-0.586,0.957-1.31,0.957c-0.723,0-1.31-0.428-1.31-0.957
	C72.113,83.666,72.7,83.236,73.423,83.236z M51.715,73.335c0.614,0,1.112,0.879,1.112,1.963c0,1.085-0.498,1.963-1.112,1.963
	c-0.613,0-1.111-0.878-1.111-1.963C50.604,74.214,51.102,73.335,51.715,73.335z M45.368,61.033c0.578,0,1.047,0.586,1.047,1.31
	s-0.469,1.31-1.047,1.31c-0.579,0-1.047-0.586-1.047-1.31S44.79,61.033,45.368,61.033z M46.022,69.221
	c0.779,0,1.411,0.641,1.411,1.432c0,0.79-0.632,1.431-1.411,1.431s-1.411-0.641-1.411-1.431
	C44.611,69.861,45.243,69.221,46.022,69.221z M48.182,52.005c0.759,0,1.374,0.732,1.374,1.636c0,0.904-0.615,1.637-1.374,1.637
	s-1.374-0.732-1.374-1.637C46.808,52.737,47.423,52.005,48.182,52.005z M46.153,77.393c0.579,0,1.047,0.615,1.047,1.373
	c0,0.76-0.469,1.375-1.047,1.375c-0.578,0-1.047-0.615-1.047-1.375C45.106,78.008,45.575,77.393,46.153,77.393z M37.124,81.184
	c0.848,0,1.535,0.733,1.535,1.637c0,0.904-0.688,1.638-1.535,1.638s-1.535-0.733-1.535-1.638
	C35.589,81.917,36.276,81.184,37.124,81.184z M22.204,75.232c0,0.826,0.687,1.508,1.579,1.617c0.278-1.084,0.602-2.127,0.968-3.125
	c-0.22-0.082-0.461-0.129-0.715-0.129C23.024,73.598,22.204,74.33,22.204,75.232z M19.086,81.547c0.505,0,0.915-0.643,0.915-1.438
	c0-0.623-0.253-1.151-0.606-1.352c-0.377,0.704-0.737,1.419-1.072,2.139C18.485,81.288,18.766,81.547,19.086,81.547z M19.979,89.831
	c-0.058-1.138,0.234-2.544,0.758-4.095c-0.07-0.006-0.142-0.012-0.215-0.012c-1.154,0-2.089,0.937-2.089,2.09
	C18.433,88.781,19.089,89.592,19.979,89.831z M35.813,94.861c0-0.139-0.016-0.271-0.048-0.397c-0.703,0.104-1.429,0.179-2.167,0.22
	c-0.006,0.06-0.011,0.117-0.011,0.178c0,0.759,0.499,1.375,1.113,1.375C35.314,96.234,35.813,95.619,35.813,94.861z M30.709,96.891
	c-0.787,0-1.464,0.385-1.777,0.942c1.073-0.002,2.225-0.051,3.46-0.146C32.049,97.209,31.425,96.891,30.709,96.891z M20.327,93.954
	c-0.646,0-1.194,0.638-1.406,1.53c0.771,0.564,1.717,1.043,2.857,1.418c0.032-0.191,0.05-0.392,0.05-0.598
	C21.829,95.007,21.156,93.954,20.327,93.954z M39.659,94.918c0.955,0,1.729-0.602,1.729-1.346c0-0.338-0.163-0.648-0.428-0.885
	c-0.817,0.553-1.823,0.98-2.945,1.299C38.24,94.527,38.891,94.918,39.659,94.918z M44.688,91.566c-0.685,0-1.24,0.543-1.24,1.215
	c0,0.441,0.242,0.828,0.604,1.039c0.584-0.568,1.074-1.227,1.417-1.983C45.254,91.668,44.984,91.566,44.688,91.566z M69.932,15.57
	c0.541,0,0.98,0.528,0.98,1.178s-0.439,1.178-0.98,1.178c-0.543,0-0.981-0.527-0.981-1.178S69.389,15.57,69.932,15.57z
	 M69.637,21.85c0.813,0,1.471,0.879,1.471,1.963s-0.658,1.963-1.471,1.963c-0.813,0-1.473-0.879-1.473-1.963
	S68.823,21.85,69.637,21.85z M49.311,23.422c0.813,0,1.472,0.659,1.472,1.472s-0.659,1.472-1.472,1.472s-1.472-0.659-1.472-1.472
	S48.498,23.422,49.311,23.422z M45.582,30.967c-0.223,0-0.436,0.035-0.631,0.095c0.145,0.863,0.41,1.683,0.808,2.45
	c0.839-0.068,1.491-0.61,1.491-1.269C47.25,31.539,46.504,30.967,45.582,30.967z M48.243,19.496c1.138,0,2.061-1.055,2.061-2.355
	c0-1.02-0.569-1.886-1.363-2.214c-0.702,1.324-1.253,2.774-1.62,4.318C47.599,19.404,47.911,19.496,48.243,19.496z M43.582,54.367
	c0-1.301-0.989-2.354-2.209-2.354c-0.046,0-0.09,0.004-0.135,0.006c-0.419,1.199-0.946,2.511-1.589,3.817
	c0.405,0.539,1.026,0.886,1.724,0.886C42.592,56.725,43.582,55.669,43.582,54.367z M70.859,38.721
	c-0.366,0.234-0.602,0.586-0.602,0.98c0,0.704,0.747,1.276,1.669,1.276c0.39,0,0.748-0.104,1.031-0.275
	C72.215,39.885,71.504,39.235,70.859,38.721z M79.521,61.886c0.592,0,1.121-0.385,1.469-0.985c-0.202-1.473-0.442-2.856-0.715-4.158
	c-0.23-0.143-0.484-0.223-0.754-0.223c-1.049,0-1.896,1.201-1.896,2.684S78.473,61.886,79.521,61.886z M80.83,70.979
	c0.32,0,0.619-0.107,0.865-0.293c-0.014-1.035-0.047-2.037-0.094-3.01c-0.229-0.146-0.492-0.229-0.771-0.229
	c-0.868,0-1.571,0.789-1.571,1.765S79.962,70.979,80.83,70.979z M26.859,69.309c0.343,0.826,1.117,1.401,2.018,1.401
	c1.219,0,2.208-1.055,2.208-2.354c0-1.114-0.727-2.047-1.704-2.291C28.455,66.989,27.612,68.079,26.859,69.309z M81.068,88.991
	c1.966,2.358,1.555,4.597,1.846,4.129C83.359,90.764,81.602,88.953,81.068,88.991z M71.923,94.285
	c0.396,0.382-1.024-2.446,0.769-4.459C72.164,89.922,70.285,92.063,71.923,94.285z M77.521,89.885c0,0,1.071,1.993,0.527,4.493
	c0,0,0.76,0.442,0.596-2.032C78.477,89.773,77.217,89.115,77.521,89.885z M55.956,90.066c1.769,2.51,1.178,4.709,1.505,4.265
	C58.044,92.02,56.49,90.073,55.956,90.066z M47.409,94.764c0.407,0.409-1.142-2.506,1.291-4.393
	C48.104,90.428,45.796,92.422,47.409,94.764z M52.467,90.553c0,0,0.906,2.072,0.163,4.521c0,0,0.647,0.441,0.685-2.038
	C53.354,90.458,52.225,89.76,52.467,90.553z M31.362,88.947c1.966,2.357,1.555,4.598,1.846,4.129
	C33.602,90.725,31.896,88.909,31.362,88.947z M24.96,93.97c0.397,0.384-1.234-2.419,0.769-4.458
	C25.203,89.605,23.322,91.746,24.96,93.97z M28.613,89.594c0,0,1.072,1.994,0.528,4.493c0,0,0.644,0.425,0.48-2.053
	C29.452,89.463,28.309,88.824,28.613,89.594z M68.059,32.647c-0.06,0.554-0.574,1.33-1.672,1.595
	c-1.146,0.277-5.234,0.376-6.287-1.892c0,0-0.479-3.083-0.277-4.492c0.601-0.173,2.736-1.107,3.453-2.686
	c0.799-1.758,0.16-1.837-3.914-2.316s-0.719,4.233-0.719,4.233s0.582,0.582,0.9,0.751c-0.041,0.504-0.102,1.974,0.258,4.509
	c0,0-0.658,2.447-2.722,2.464c-5.175,0.043-5.076-2.898-5.138-3.254c-0.059-0.356-0.354-0.008-0.354-0.008s-0.77,3.703,5.588,3.656
	c2.176-0.016,2.803-2.145,2.803-2.145s1.184,1.412,3.119,1.621c6.154,0.668,5.334-2.29,5.334-2.29S68.117,32.093,68.059,32.647z
	 M57.363,23.784c0,0,0.13-2.486,0.85-4.274c0,0-0.806,3.729-0.457,4.034"/>
</svg>
