<?xml version="1.0" encoding="utf-8"?>
<!-- Generator: Adobe Illustrator 16.0.0, SVG Export Plug-In . SVG Version: 6.00 Build 0)  -->
<!DOCTYPE svg PUBLIC "-//W3C//DTD SVG 1.1//EN" "http://www.w3.org/Graphics/SVG/1.1/DTD/svg11.dtd">
<svg version="1.1"
	 id="svg378" xmlns:cc="http://creativecommons.org/ns#" xmlns:dc="http://purl.org/dc/elements/1.1/" xmlns:rdf="http://www.w3.org/1999/02/22-rdf-syntax-ns#"
	 xmlns="http://www.w3.org/2000/svg" xmlns:xlink="http://www.w3.org/1999/xlink" x="0px" y="0px" width="143.447px"
	 height="71.281px" viewBox="0 0 143.447 71.281" enable-background="new 0 0 143.447 71.281" xml:space="preserve">
<rect id="rect649" x="0" y="19.431" fill="#FFFFFF" width="143.357" height="30.215"/>
<path fill="#087BCE" d="M0,47.13h143.301v24.15H0V47.13z M0,0h143.445v23.483H0V0z M74.904,36.425l-2.743-1.889l3.415-0.014
	l1.088-3.084l1.018,3.074l3.415-0.019L78.31,36.41l1.021,3.072l0,0l-2.739-1.894l-2.781,1.92L74.904,36.425z M94.873,41.566
	l-2.742-1.89l3.415-0.014l1.088-3.086l1.019,3.078l3.415-0.021L98.28,41.55l1.021,3.072l0,0l-2.737-1.894l-2.783,1.92L94.873,41.566
	z M94.873,30.888L92.131,29l3.415-0.012l1.088-3.086l1.019,3.075l3.415-0.019l-2.786,1.914l1.021,3.073l0,0l-2.737-1.891
	l-2.783,1.918L94.873,30.888z M50.781,41.566l-2.742-1.89l3.415-0.014l1.087-3.086l1.018,3.078l3.416-0.021l-2.787,1.914
	l1.021,3.072l0,0l-2.738-1.893l-2.783,1.92L50.781,41.566z M50.781,30.888L48.038,29l3.415-0.012l1.087-3.086l1.018,3.075
	l3.416-0.019l-2.787,1.914l1.021,3.073l0,0l-2.738-1.891l-2.783,1.918L50.781,30.888z"/>
</svg>
