<?xml version="1.0" encoding="utf-8"?>
<!-- Generator: Adobe Illustrator 16.0.0, SVG Export Plug-In . SVG Version: 6.00 Build 0)  -->
<!DOCTYPE svg PUBLIC "-//W3C//DTD SVG 1.1//EN" "http://www.w3.org/Graphics/SVG/1.1/DTD/svg11.dtd">
<svg version="1.1" id="Layer_1" xmlns="http://www.w3.org/2000/svg" xmlns:xlink="http://www.w3.org/1999/xlink" x="0px" y="0px"
	 width="25.875px" height="19.958px" viewBox="2.562 7.063 25.875 19.958" enable-background="new 2.562 7.063 25.875 19.958"
	 xml:space="preserve">
<path d="M24.346,13.904c0.018-0.194,0.029-0.392,0.029-0.591c0-3.452-2.798-6.25-6.25-6.25c-2.68,0-4.958,1.689-5.847,4.059
	c-0.589-0.646-1.429-1.059-2.372-1.059c-1.778,0-3.219,1.441-3.219,3.219c0,0.211,0.023,0.416,0.062,0.613
	c-2.372,0.391-4.187,2.436-4.187,4.918c0,2.762,2.239,5,5,5h3.404l-0.707-0.707c-0.377-0.377-0.585-0.879-0.585-1.413
	c0-0.532,0.208-1.034,0.585-1.411l0.556-0.558c0.4-0.399,0.937-0.628,1.471-0.628c0.027,0,0.054,0,0.08,0.002v-0.473
	c0-1.104,0.898-2.002,2-2.002h3.266c1.103,0,2,0.898,2,2.002v0.473c0.027-0.002,0.054-0.002,0.081-0.002
	c0.533,0,1.07,0.229,1.471,0.63l0.557,0.552c0.779,0.781,0.779,2.051,0,2.828l-0.706,0.707h2.403c2.762,0,5-2.238,5-5
	C28.438,16.362,26.672,14.333,24.346,13.904z M21.033,20.986l-0.557-0.555c-0.39-0.39-0.963-0.45-1.275-0.138
	s-0.568,0.119-0.568-0.432v-1.238c0-0.549-0.451-1-1-1h-3.265c-0.55,0-1,0.451-1,1v1.238c0,0.551-0.256,0.744-0.569,0.432
	c-0.312-0.313-0.887-0.252-1.276,0.138l-0.556,0.555c-0.39,0.39-0.39,1.024-0.001,1.413l4.328,4.331
	c0.194,0.194,0.451,0.291,0.707,0.291s0.513-0.097,0.707-0.291l4.327-4.331C21.424,22.01,21.423,21.375,21.033,20.986z"/>
</svg>
