<?xml version="1.0" encoding="utf-8"?>
<!-- Generator: Adobe Illustrator 16.0.3, SVG Export Plug-In . SVG Version: 6.00 Build 0)  -->
<!DOCTYPE svg PUBLIC "-//W3C//DTD SVG 1.1 Tiny//EN" "http://www.w3.org/Graphics/SVG/1.1/DTD/svg11-tiny.dtd">
<svg version="1.1" baseProfile="tiny" id="Layer_1" xmlns="http://www.w3.org/2000/svg" xmlns:xlink="http://www.w3.org/1999/xlink"
	 x="0px" y="0px" width="53.544px" height="100px" viewBox="0 0 53.544 100" xml:space="preserve">
<path fill-rule="evenodd" d="M35.37,81.473c0.126,2.467-1.666,2.767-3.54,2.764c-6.974-0.011-13.947-0.082-20.921-0.137
	c-0.451-0.003-0.912-0.148-1.351-0.089C8.145,84.2,5.795,84.063,5.51,84.754c-0.865,2.093-0.591,4.403,1.292,6.209
	c2.839,2.724,6.346,3.823,10.108,3.839c4.604,0.021,9.207-0.364,13.811-0.545c1.386-0.055,2.773-0.009,4.161-0.009
	c0.09,0.383,0.182,0.766,0.271,1.148c-2.527,1.047-4.994,2.292-7.599,3.083c-2.56,0.778-5.271,1.576-7.896,1.517
	c-6.42-0.146-12.744-1.053-17.223-6.491c-2.876-3.491-3.227-10.482-0.943-14.365c0.556-0.945,1.057-2.146,0.989-3.193
	c-0.26-4.113-0.6-8.235-1.199-12.311c-1.291-8.779,1.589-16.29,6.05-23.686c2.932-4.862,6.897-7.518,11.978-9.509
	c4.268-1.674,7.153-4.772,7.794-9.93c0.565-4.551,2.102-8.914,6.47-11.786c1.931-1.27,3.12-3.681,4.608-5.603
	c0.6-0.775,0.973-1.763,1.673-2.414c1.352-1.256,2.58-0.805,2.824,1.033c0.248,1.877,0.176,3.8,0.471,5.667
	c0.114,0.724,0.795,1.872,1.315,1.929c2.313,0.252,3.64,1.638,4.894,3.36c0.556,0.764,1.397,1.389,2.23,1.866
	c2.063,1.183,2.626,3.309,1.042,5.159c-1.001,1.171-2.526,1.91-3.457,3.12c-0.847,1.101-1.688,2.576-1.69,3.888
	c-0.006,3.875,0.497,7.746,0.628,11.625c0.122,3.632-1.405,6.584-3.538,9.564c-1.736,2.427-3.029,5.591-3.315,8.545
	c-0.536,5.557-0.138,11.199-0.269,16.802c-0.048,2.079,0.613,3.071,2.76,3.379c2.404,0.347,2.248,0.952,1.295,3.2
	c-1.094,2.58-2.317,4.456-5.366,3.695C38.272,83.191,37.003,82.28,35.37,81.473z"/>
</svg>
