<?xml version="1.0" encoding="UTF-8"?>
<!-- Generator: Adobe Illustrator 16.0.0, SVG Export Plug-In . SVG Version: 6.00 Build 0)  -->
<!DOCTYPE svg PUBLIC "-//W3C//DTD SVG 1.1//EN" "http://www.w3.org/Graphics/SVG/1.1/DTD/svg11.dtd">
<svg version="1.1" id="svg378" xmlns:cc="http://creativecommons.org/ns#" xmlns:dc="http://purl.org/dc/elements/1.1/" xmlns:rdf="http://www.w3.org/1999/02/22-rdf-syntax-ns#" xmlns="http://www.w3.org/2000/svg" xmlns:xlink="http://www.w3.org/1999/xlink" x="0px" y="0px" width="144.018px" height="108px" viewBox="0 0 144.018 108" enable-background="new 0 0 144.018 108" xml:space="preserve">
<path fill="#E70013" d="M0,0v108h144V0H0z"/>
<path fill="#FFFFFF" d="M72.144,26.714c-15.044,0-27.238,12.195-27.238,27.238S57.1,81.189,72.144,81.189  c15.043,0,27.237-12.194,27.237-27.237S87.187,26.714,72.144,26.714z"/>
<path fill="#E70013" d="M62.848,54.096c0-4.516,3.343-15.721,16.554-16.218c-1.929-1.416-4.767-1.989-7.258-1.989  c-9.972,0-18.063,8.094-18.063,18.064c0,9.97,8.093,18.064,18.063,18.064v-0.002c2.492,0,5.617-0.787,7.257-1.847  C64.986,68.684,62.848,58.611,62.848,54.096z M80.196,49.744l-4.877-7.243l-0.368,8.724l-8.395,2.399l8.182,3.048l-0.312,8.725  l5.424-6.84l8.205,2.992l-4.83-7.276l5.38-6.875L80.196,49.744z"/>
</svg>