<?xml version="1.0" encoding="utf-8"?>
<!-- Generator: Adobe Illustrator 16.0.0, SVG Export Plug-In . SVG Version: 6.00 Build 0)  -->
<!DOCTYPE svg PUBLIC "-//W3C//DTD SVG 1.1//EN" "http://www.w3.org/Graphics/SVG/1.1/DTD/svg11.dtd">
<svg version="1.1" id="Layer_1" xmlns="http://www.w3.org/2000/svg" xmlns:xlink="http://www.w3.org/1999/xlink" x="0px" y="0px"
	 width="100px" height="100px" viewBox="0 0 100 100" enable-background="new 0 0 100 100" xml:space="preserve">
<path d="M79.361,50.339l13.047-24.136H64.143L49.573,1.632L34.787,25.769H6.302l14.786,25.223L6.954,74.909l28.485,0.218
	l14.134,23.918l14.35-23.482h28.703L79.361,50.339z M78.059,33.379l-5.22,8.479l-5.437-8.479H78.059z M49.355,15.114l6.305,10.655
	H43.484L49.355,15.114z M20.436,33.813h8.698l-4.132,7.612L20.436,33.813z M19.566,67.518l5.001-8.916l5.001,9.133L19.566,67.518z
	 M49.79,83.172l-5.218-8.045h10.219L49.79,83.172z M59.574,67.734H39.788L29.35,50.121l8.698-16.308h22.614l8.262,16.308
	L59.574,67.734z M67.186,67.734l5.871-10.438l5.87,10.438H67.186z"/>
</svg>
