<svg xmlns="http://www.w3.org/2000/svg" xmlns:se="http://svg-edit.googlecode.com" xmlns:xlink="http://www.w3.org/1999/xlink" id="svgcontent" width="205.65" height="395.85" x="0" y="0" viewBox="0 0 205.65 395.85" overflow="hidden"><g mask="" style="pointer-events:all"><title style="pointer-events:inherit">Layer 1</title><g id="svg_1" type="text" text="66" font-size="91.52357974562584" font-family="Aldo" fill="774b00" text-anchor="start" font-weight="normal" font-style="normal" lineHeight="1" shapeId="0" shapeVal="0" fill-opacity="1" display="null" elemBBoxWidth="98.484375" stroke="null" stroke-dasharray="none" transform="rotate(-25.3621, 63.0986, 112.186)" style="pointer-events:inherit"><path id="svg_17" fill="#774b00" stroke-width="0" d="M34.820740102233884,144.1274 C23.288770102233887,143.02912 13.861840102233886,133.05304999999998 13.861840102233886,120.69737 C13.861840102233886,120.69737 13.861840102233886,103.7655 13.861840102233886,103.7655 C13.495750102233886,91.13525 24.75315010223389,80.24394 37.383400102233885,80.24394 C49.006900102233885,80.24394 58.89145010223389,89.3963 60.355820102233885,99.73847 C60.355820102233885,99.73847 34.820740102233884,99.73847 34.820740102233884,99.73847 C34.820740102233884,99.73847 34.820740102233884,144.1274 34.820740102233884,144.1274 C34.820740102233884,144.1274 34.820740102233884,144.1274 34.820740102233884,144.1274 M50.74585010223389,104.77226 C55.962690102233886,104.68074 60.355820102233885,109.53149 60.355820102233885,114.74833 C60.355820102233885,131.58867 53.67460010223389,142.38845 39.854540102233884,144.1274 C39.854540102233884,144.1274 39.854540102233884,104.77226 39.854540102233884,104.77226 C39.854540102233884,104.77226 50.74585010223389,104.77226 50.74585010223389,104.77226 C50.74585010223389,104.77226 50.74585010223389,104.77226 50.74585010223389,104.77226 M86.80614010223388,144.1274 C75.27417010223388,143.02912 65.84724010223388,133.05304999999998 65.84724010223388,120.69737 C65.84724010223388,120.69737 65.84724010223388,103.7655 65.84724010223388,103.7655 C65.4811401022339,91.13525 76.73854010223388,80.24394 89.36880010223389,80.24394 C100.99229010223388,80.24394 110.87684010223388,89.3963 112.34122010223389,99.73847 C112.34122010223389,99.73847 86.80614010223388,99.73847 86.80614010223388,99.73847 C86.80614010223388,99.73847 86.80614010223388,144.1274 86.80614010223388,144.1274 C86.80614010223388,144.1274 86.80614010223388,144.1274 86.80614010223388,144.1274 M102.73124010223388,104.77226 C107.94808010223389,104.68074 112.34122010223389,109.53149 112.34122010223389,114.74833 C112.34122010223389,131.58867 105.66000010223388,142.38845 91.83994010223388,144.1274 C91.83994010223388,144.1274 91.83994010223388,104.77226 91.83994010223388,104.77226 C91.83994010223388,104.77226 102.73124010223388,104.77226 102.73124010223388,104.77226 C102.73124010223388,104.77226 102.73124010223388,104.77226 102.73124010223388,104.77226 " style="pointer-events:inherit"/><rect id="svg_18" x="13.85546875" y="80.2421875" width="98.484375" height="63.88671875" fill="#000000" opacity="0" style="pointer-events:inherit"/></g><g id="svg_11" fill-opacity="1" display="null" style="pointer-events:inherit" clip-id="587"><path id="svg_10" fill="#774b00" d="M143.87561,230.0798C147.54953,229.103 153.39658,223.89975 155.14435,220.05185C157.94244,213.89255 156.38657,204.28413 151.7933,199.35207C145.25218,192.33003 132.052,192.12024 125.31079,198.93158C118.02048,206.29677 117.92477,218.08029 125.09763,225.2536C130.11185,230.26639 136.75351,231.97357 143.87561,230.0798zM132.45222,224.45273C126.00293,221.23944 123.22659,215.18407 125.18172,208.59894C127.61441,200.40767 135.79311,196.41429 143.52325,199.6445C147.11356,201.14478 148.8304,202.73596 150.59848,206.19913C154.18684,213.23038 151.00983,221.46274 143.33765,225.01483C139.2471,226.90808 137.16388,226.80032 132.45222,224.45273zM64.07857,229.90341C70.55203,227.87817 75.63777,221.75177 76.80846,214.57072C78.00134,207.2567 72.47717,197.70868 65.51602,195.05028C60.21906,193.02748 52.46327,193.74379 48.34807,196.63614C46.57515,197.88219 44.10524,200.35211 42.85921,202.125C39.97456,206.2296 39.25148,213.99696 41.2617,219.26303C44.6669,228.18076 54.67313,232.84601 64.07857,229.90341zM53.39563,225.01434C43.16902,220.27951 41.65421,207.72653 50.49652,200.9819C52.90166,199.14758 53.96066,198.8605 58.3084,198.8605C62.65752,198.8605 63.71654,199.14758 66.12216,200.9819C73.49803,206.60855 73.82767,218.06821 66.75583,222.94418C61.25438,226.737 58.15515,227.21747 53.39563,225.01434zM102.59981,217.36154C111.09122,216.4664 114.29099,214.17096 116.16685,207.62889C117.89287,201.61073 120.54742,197.41675 124.57852,194.33881C128.12384,191.63158 134.02792,189.41302 137.68492,189.41302C140.14563,189.41302 141.44827,186.9668 141.44827,182.34503C141.44827,178.22887 138.60956,175.31044 131.45024,172.06573C125.71921,169.46822 124.41513,169.2691 123.79114,170.89508C123.55141,171.51859 123.06322,172.02901 122.70506,172.02901C122.34738,172.02901 116.83676,168.11728 110.45998,163.33699C94.85129,151.63567 93.63036,151.64293 84.73001,163.48344C81.80045,167.38016 79.23003,171.02364 79.01686,171.57947C78.65193,172.52879 87.59288,179.63153 89.05499,179.55421C89.39624,179.53632 92.13295,176.13551 95.13693,171.99612C98.52278,167.33037 101.10771,164.47285 101.93907,164.47528C103.49593,164.48059 120.93794,177.6803 121.57161,179.33235C122.06172,180.60936 117.93008,185.21468 114.84393,186.83098C111.939,188.35303 110.05977,188.15826 108.7615,186.2007C107.70103,184.60081 107.03258,184.48482 97.52129,184.25185L87.40775,184.00439L81.95271,179.90608C78.95209,177.65175 76.21541,175.8078 75.86978,175.8078C75.52567,175.8078 74.06885,177.66191 72.63428,179.92833L70.0247,184.04883L60.85899,184.0851C51.11087,184.12376 49.3689,184.73425 50.33365,187.77254C50.73193,189.02777 51.70685,189.27478 57.38712,189.55997C65.32077,189.95824 69.71921,191.70552 74.06497,196.18373C78.88152,201.14671 80.59741,205.36972 80.60223,212.27383L80.60611,218.13007L88.92014,218.02905C93.49211,217.97345 99.64848,217.67282 102.59981,217.36154zM108.66579,154.29213C109.42802,152.30606 108.53867,151.3645 105.12383,150.54137C101.9323,149.77188 101.75636,149.5882 101.52676,146.78577C101.24161,143.29987 102.25951,142.3902 105.73624,143.02629C108.49179,143.53043 108.76682,142.9243 106.85326,140.56172C104.97253,138.24068 102.68294,137.26144 99.13518,137.26144C92.84056,137.26144 89.00327,141.24373 89.44458,147.31841L89.67513,150.48819L94.60236,150.48819C98.87273,150.48819 100.04193,150.8159 103.36107,152.94505C107.70972,155.73346 108.07659,155.82626 108.66579,154.29213z" style="pointer-events:inherit"/></g><g id="svg_12" type="text" text="WORLD" font-size="21.631445446616347" font-family="Aldo" fill="774b00" text-anchor="start" font-weight="normal" font-style="normal" lineHeight="1" shapeId="0" shapeVal="0" fill-opacity="1" display="null" elemBBoxWidth="67.64708709716797" stroke="null" stroke-dasharray="none" transform="rotate(0.662404, 144.576, 309.602)" style="pointer-events:inherit"><path id="svg_34" fill="#774b00" stroke-width="0" d="M110.8385895727539,302.03149 C110.8385895727539,302.03149 116.18154957275391,302.03149 116.18154957275391,302.03149 C116.18154957275391,302.03149 120.3347895727539,317.1735 120.3347895727539,317.1735 C120.3347895727539,317.1735 115.3162995727539,317.1735 115.3162995727539,317.1735 C115.3162995727539,317.1735 110.8385895727539,302.03149 110.8385895727539,302.03149 M117.5010695727539,302.05312 C117.5010695727539,302.05312 122.36814957275391,302.05312 122.36814957275391,302.05312 C122.36814957275391,302.05312 126.5213895727539,316.13519 126.5213895727539,316.13519 C126.5213895727539,316.13519 126.2401795727539,317.1735 126.2401795727539,317.1735 C126.2401795727539,317.1735 121.63267957275391,317.1735 121.63267957275391,317.1735 C121.63267957275391,317.1735 117.5010695727539,302.05312 117.5010695727539,302.05312 M123.88234957275391,302.05312 C123.88234957275391,302.05312 130.2636295727539,302.05312 130.2636295727539,302.05312 C130.2636295727539,302.05312 127.14869957275391,313.77737 127.14869957275391,313.77737 C127.14869957275391,313.77737 123.88234957275391,302.05312 123.88234957275391,302.05312 M136.51510957275391,317.10861 C133.83280957275392,316.8923 131.5615095727539,314.57773 131.5615095727539,311.70075 C131.5615095727539,311.70075 131.5615095727539,307.43935 131.5615095727539,307.43935 C131.51824957275392,304.62727 133.8977095727539,302.26944 136.51510957275391,302.05312 C136.51510957275391,302.05312 136.51510957275391,317.10861 136.51510957275391,317.10861 C136.51510957275391,317.10861 136.51510957275391,317.10861 136.51510957275391,317.10861 M137.7048395727539,302.05312 C140.25734957275392,302.26944 142.59354957275391,304.67053 142.5502895727539,307.43935 C142.48538957275392,310.66244 142.9612895727539,313.58268 141.1658695727539,315.35646 C140.1924595727539,316.32988 139.0676195727539,316.95719 137.7048395727539,317.10861 C137.7048395727539,317.10861 137.7048395727539,302.05312 137.7048395727539,302.05312 C137.7048395727539,302.05312 137.7048395727539,302.05312 137.7048395727539,302.05312 M143.8481695727539,317.13024 C143.8481695727539,317.13024 143.8481695727539,302.03149 143.8481695727539,302.03149 C143.8481695727539,302.03149 148.49892957275392,302.03149 148.49892957275392,302.03149 C148.49892957275392,302.03149 148.49892957275392,308.62908 148.49892957275392,308.62908 C148.49892957275392,308.62908 145.73010957275392,309.86208 145.73010957275392,309.86208 C145.73010957275392,309.86208 147.7634695727539,317.13024 147.7634695727539,317.13024 C147.7634695727539,317.13024 143.8481695727539,317.13024 143.8481695727539,317.13024 C143.8481695727539,317.13024 143.8481695727539,317.13024 143.8481695727539,317.13024 M149.68865957275392,302.05312 C152.4574895727539,302.13965 154.79368957275392,304.6489 154.79368957275392,307.50425 C154.79368957275392,308.91029 154.3177895727539,310.22981 153.3660095727539,311.41954 C153.3660095727539,311.41954 154.9234695727539,317.13024 154.9234695727539,317.13024 C154.9234695727539,317.13024 148.9748295727539,317.13024 148.9748295727539,317.13024 C148.9748295727539,317.13024 147.1577795727539,310.53265 147.1577795727539,310.53265 C147.1577795727539,310.53265 149.68865957275392,309.38618 149.68865957275392,309.38618 C149.68865957275392,309.38618 149.68865957275392,302.05312 149.68865957275392,302.05312 C149.68865957275392,302.05312 149.68865957275392,302.05312 149.68865957275392,302.05312 M156.2213595727539,317.13024 C156.2213595727539,317.13024 156.2213595727539,302.03149 156.2213595727539,302.03149 C156.2213595727539,302.03149 160.8288595727539,302.03149 160.8288595727539,302.03149 C160.8288595727539,302.03149 160.8288595727539,317.13024 160.8288595727539,317.13024 C160.8288595727539,317.13024 156.2213595727539,317.13024 156.2213595727539,317.13024 C156.2213595727539,317.13024 156.2213595727539,317.13024 156.2213595727539,317.13024 M162.0185895727539,317.13024 C162.0185895727539,317.13024 162.0185895727539,313.34474 162.0185895727539,313.34474 C162.0185895727539,313.34474 166.02040957275392,313.34474 166.02040957275392,313.34474 C166.02040957275392,313.34474 166.02040957275392,317.13024 166.02040957275392,317.13024 C166.02040957275392,317.13024 162.0185895727539,317.13024 162.0185895727539,317.13024 C162.0185895727539,317.13024 162.0185895727539,317.13024 162.0185895727539,317.13024 M167.3182895727539,317.15187 C167.3182895727539,317.15187 167.3182895727539,302.03149 167.3182895727539,302.03149 C167.3182895727539,302.03149 172.2718895727539,302.03149 172.2718895727539,302.03149 C172.2718895727539,302.03149 172.2718895727539,317.15187 172.2718895727539,317.15187 C172.2718895727539,317.15187 167.3182895727539,317.15187 167.3182895727539,317.15187 C167.3182895727539,317.15187 167.3182895727539,317.15187 167.3182895727539,317.15187 M173.4616195727539,302.07476 C176.0357695727539,302.3127 178.3719595727539,304.77869 178.3070695727539,307.59077 C178.2637995727539,310.7706 178.6531695727539,313.51779 176.9010195727539,315.3132 C175.9059795727539,316.30825 174.82439957275392,316.97882 173.4616195727539,317.13024 C173.4616195727539,317.13024 173.4616195727539,302.07476 173.4616195727539,302.07476 C173.4616195727539,302.07476 173.4616195727539,302.07476 173.4616195727539,302.07476 " style="pointer-events:inherit"/><rect id="svg_35" x="110.83984375" y="302.03125" width="67.4765625" height="15.140625" fill="#000000" opacity="0" style="pointer-events:inherit"/></g><g type="text" text="ROAMING" font-size="26.172367167546177" font-family="Aldo" fill="774b00" text-anchor="start" font-weight="normal" font-style="normal" lineHeight="1" shapeId="0" shapeVal="0" fill-opacity="1" display="null" elemBBoxWidth="106.6171875" stroke="null" stroke-dasharray="none" transform="rotate(-12.5022, 134.426, 251.951)" id="svg_19" style="pointer-events:inherit"><path fill="#774b00" stroke-width="0" d="M81.11905085144042,261.0592092675781 C81.11905085144042,261.0592092675781 81.11905085144042,242.7908992675781 81.11905085144042,242.7908992675781 C81.11905085144042,242.7908992675781 86.74611085144042,242.7908992675781 86.74611085144042,242.7908992675781 C86.74611085144042,242.7908992675781 86.74611085144042,250.77346926757812 86.74611085144042,250.77346926757812 C86.74611085144042,250.77346926757812 83.39604085144043,252.2652892675781 83.39604085144043,252.2652892675781 C83.39604085144043,252.2652892675781 85.85624085144043,261.0592092675781 85.85624085144043,261.0592092675781 C85.85624085144043,261.0592092675781 81.11905085144042,261.0592092675781 81.11905085144042,261.0592092675781 C81.11905085144042,261.0592092675781 81.11905085144042,261.0592092675781 81.11905085144042,261.0592092675781 M88.18559085144042,242.81706926757812 C91.53565085144044,242.92175926757812 94.36226085144042,245.95774926757812 94.36226085144042,249.41250926757812 C94.36226085144042,251.11370926757812 93.78647085144043,252.7102192675781 92.63489085144043,254.14969926757811 C92.63489085144043,254.14969926757811 94.51930085144043,261.0592092675781 94.51930085144043,261.0592092675781 C94.51930085144043,261.0592092675781 87.32190085144043,261.0592092675781 87.32190085144043,261.0592092675781 C87.32190085144043,261.0592092675781 85.12342085144043,253.07663926757812 85.12342085144043,253.07663926757812 C85.12342085144043,253.07663926757812 88.18559085144042,251.68949926757813 88.18559085144042,251.68949926757813 C88.18559085144042,251.68949926757813 88.18559085144042,242.81706926757812 88.18559085144042,242.81706926757812 C88.18559085144042,242.81706926757812 88.18559085144042,242.81706926757812 88.18559085144042,242.81706926757812 M102.08311085144042,261.03303926757815 C98.83774085144043,260.77130926757815 96.08964085144044,257.9708692675781 96.08964085144044,254.48994926757814 C96.08964085144044,254.48994926757814 96.08964085144044,249.33398926757812 96.08964085144044,249.33398926757812 C96.03730085144043,245.93157926757812 98.91626085144043,243.07878926757812 102.08311085144042,242.81706926757812 C102.08311085144042,242.81706926757812 102.08311085144042,261.03303926757815 102.08311085144042,261.03303926757815 C102.08311085144042,261.03303926757815 102.08311085144042,261.03303926757815 102.08311085144042,261.03303926757815 M103.52260085144043,242.81706926757812 C106.61093085144043,243.07878926757812 109.43754085144043,245.98392926757813 109.38521085144043,249.33398926757812 C109.30668085144043,253.23366926757814 109.88247085144043,256.76693926757815 107.71017085144042,258.91307926757815 C106.53241085144043,260.0908292675781 105.17145085144043,260.8498292675781 103.52260085144043,261.03303926757815 C103.52260085144043,261.03303926757815 103.52260085144043,242.81706926757812 103.52260085144043,242.81706926757812 C103.52260085144043,242.81706926757812 103.52260085144043,242.81706926757812 103.52260085144043,242.81706926757812 M110.95555085144044,261.0853792675781 C110.95555085144044,261.0853792675781 114.72436085144042,246.87378926757813 114.72436085144042,246.87378926757813 C114.72436085144042,246.87378926757813 118.67639085144043,261.0853792675781 118.67639085144043,261.0853792675781 C118.67639085144043,261.0853792675781 110.95555085144044,261.0853792675781 110.95555085144044,261.0853792675781 C110.95555085144044,261.0853792675781 110.95555085144044,261.0853792675781 110.95555085144044,261.0853792675781 M115.43102085144044,244.3088992675781 C115.43102085144044,244.3088992675781 115.82361085144043,242.7908992675781 115.82361085144043,242.7908992675781 C115.82361085144043,242.7908992675781 121.39832085144043,242.7908992675781 121.39832085144043,242.7908992675781 C121.39832085144043,242.7908992675781 126.39724085144043,261.0853792675781 126.39724085144043,261.0853792675781 C126.39724085144043,261.0853792675781 120.50846085144043,261.0853792675781 120.50846085144043,261.0853792675781 C120.50846085144043,261.0853792675781 115.43102085144044,244.3088992675781 115.43102085144044,244.3088992675781 M127.96759085144043,261.11154926757814 C127.96759085144043,261.11154926757814 133.38527085144042,242.7908992675781 133.38527085144042,242.7908992675781 C133.38527085144042,242.7908992675781 139.45726085144042,242.7908992675781 139.45726085144042,242.7908992675781 C139.45726085144042,242.7908992675781 134.43216085144041,261.11154926757814 134.43216085144041,261.11154926757814 C134.43216085144041,261.11154926757814 127.96759085144043,261.11154926757814 127.96759085144043,261.11154926757814 C127.96759085144043,261.11154926757814 127.96759085144043,261.11154926757814 127.96759085144043,261.11154926757814 M136.02867085144044,261.0853792675781 C136.02867085144044,261.0853792675781 141.02759085144044,242.7908992675781 141.02759085144044,242.7908992675781 C141.02759085144044,242.7908992675781 146.60231085144045,242.7908992675781 146.60231085144045,242.7908992675781 C146.60231085144045,242.7908992675781 147.04724085144045,244.51826926757812 147.04724085144045,244.51826926757812 C147.04724085144045,244.51826926757812 141.91745085144044,261.0853792675781 141.91745085144044,261.0853792675781 C141.91745085144044,261.0853792675781 136.02867085144044,261.0853792675781 136.02867085144044,261.0853792675781 C136.02867085144044,261.0853792675781 136.02867085144044,261.0853792675781 136.02867085144044,261.0853792675781 M143.74952085144042,261.0853792675781 C143.74952085144042,261.0853792675781 147.67537085144045,246.84761926757812 147.67537085144045,246.84761926757812 C147.67537085144045,246.84761926757812 151.47037085144044,261.0853792675781 151.47037085144044,261.0853792675781 C151.47037085144044,261.0853792675781 143.74952085144042,261.0853792675781 143.74952085144042,261.0853792675781 C143.74952085144042,261.0853792675781 143.74952085144042,261.0853792675781 143.74952085144042,261.0853792675781 M153.04071085144042,261.0592092675781 C153.04071085144042,261.0592092675781 153.04071085144042,242.81706926757812 153.04071085144042,242.81706926757812 C153.04071085144042,242.81706926757812 158.64160085144044,242.81706926757812 158.64160085144044,242.81706926757812 C158.64160085144044,242.81706926757812 158.64160085144044,261.0592092675781 158.64160085144044,261.0592092675781 C158.64160085144044,261.0592092675781 153.04071085144042,261.0592092675781 153.04071085144042,261.0592092675781 C153.04071085144042,261.0592092675781 153.04071085144042,261.0592092675781 153.04071085144042,261.0592092675781 M160.21194085144043,261.0592092675781 C160.21194085144043,261.0592092675781 160.21194085144043,243.75926926757813 160.21194085144043,243.75926926757813 C160.21194085144043,243.75926926757813 164.94914085144043,261.0592092675781 164.94914085144043,261.0592092675781 C164.94914085144043,261.0592092675781 160.21194085144043,261.0592092675781 160.21194085144043,261.0592092675781 C160.21194085144043,261.0592092675781 160.21194085144043,261.0592092675781 160.21194085144043,261.0592092675781 M161.52055085144042,242.81706926757812 C161.52055085144042,242.81706926757812 166.99058085144043,242.81706926757812 166.99058085144043,242.81706926757812 C166.99058085144043,242.81706926757812 171.75395085144044,261.0592092675781 171.75395085144044,261.0592092675781 C171.75395085144044,261.0592092675781 166.38862085144044,261.0592092675781 166.38862085144044,261.0592092675781 C166.38862085144044,261.0592092675781 161.52055085144042,242.81706926757812 161.52055085144042,242.81706926757812 M168.40388085144042,242.81706926757812 C168.40388085144042,242.81706926757812 172.85319085144042,242.81706926757812 172.85319085144042,242.81706926757812 C172.85319085144042,242.81706926757812 172.85319085144042,259.5412092675781 172.85319085144042,259.5412092675781 C172.85319085144042,259.5412092675781 168.40388085144042,242.81706926757812 168.40388085144042,242.81706926757812 M180.41700085144043,261.0853792675781 C177.19780085144043,260.7974892675781 174.37120085144042,257.8661792675781 174.42354085144044,254.38524926757813 C174.47587085144042,250.53791926757813 174.00477085144044,247.18785926757812 176.15092085144042,245.04171926757812 C177.35484085144043,243.83778926757813 178.71580085144043,243.05261926757814 180.41700085144043,242.86941926757814 C180.41700085144043,242.86941926757814 180.41700085144043,261.0853792675781 180.41700085144043,261.0853792675781 C180.41700085144043,261.0853792675781 180.41700085144043,261.0853792675781 180.41700085144043,261.0853792675781 M181.85649085144044,261.0853792675781 C181.85649085144044,261.0853792675781 181.85649085144044,249.83126926757814 181.85649085144044,249.83126926757814 C181.85649085144044,249.83126926757814 187.71910085144043,249.83126926757814 187.71910085144043,249.83126926757814 C187.66676085144044,253.6000792675781 188.16403085144043,256.8716292675781 186.04406085144043,258.9654192675781 C184.86631085144043,260.14317926757815 183.50535085144043,260.9021792675781 181.85649085144044,261.0853792675781 C181.85649085144044,261.0853792675781 181.85649085144044,261.0853792675781 181.85649085144044,261.0853792675781 M181.85649085144044,248.39178926757813 C181.85649085144044,248.39178926757813 181.85649085144044,242.86941926757814 181.85649085144044,242.86941926757814 C184.81396085144044,243.1573092675781 187.24800085144042,245.59133926757812 187.71910085144043,248.39178926757813 C187.71910085144043,248.39178926757813 181.85649085144044,248.39178926757813 181.85649085144044,248.39178926757813 C181.85649085144044,248.39178926757813 181.85649085144044,248.39178926757813 181.85649085144044,248.39178926757813 " id="svg_20" style="pointer-events:inherit"/><rect x="81.1171875" y="242.7890625" width="106.6171875" height="18.32421875" fill="#774b00" opacity="0" id="svg_21" style="pointer-events:inherit"/></g><g type="text" text="AROUND" font-size="26.172367167546177" font-family="Aldo" fill="774b00" text-anchor="start" font-weight="normal" font-style="normal" lineHeight="1" shapeId="0" shapeVal="0" fill-opacity="1" display="null" elemBBoxWidth="89.5677490234375" stroke="null" stroke-dasharray="none" transform="rotate(0.662404, 132, 281.32)" id="svg_24" style="pointer-events:inherit"><path fill="#774b00" stroke-width="0" d="M87.31900275878907,290.48141146484375 C87.31900275878907,290.48141146484375 91.08782275878906,276.26981146484377 91.08782275878906,276.26981146484377 C91.08782275878906,276.26981146484377 95.03985275878907,290.48141146484375 95.03985275878907,290.48141146484375 C95.03985275878907,290.48141146484375 87.31900275878907,290.48141146484375 87.31900275878907,290.48141146484375 C87.31900275878907,290.48141146484375 87.31900275878907,290.48141146484375 87.31900275878907,290.48141146484375 M91.79447275878906,273.7049214648438 C91.79447275878906,273.7049214648438 92.18706275878907,272.18692146484375 92.18706275878907,272.18692146484375 C92.18706275878907,272.18692146484375 97.76177275878906,272.18692146484375 97.76177275878906,272.18692146484375 C97.76177275878906,272.18692146484375 102.76069275878906,290.48141146484375 102.76069275878906,290.48141146484375 C102.76069275878906,290.48141146484375 96.87191275878907,290.48141146484375 96.87191275878907,290.48141146484375 C96.87191275878907,290.48141146484375 91.79447275878906,273.7049214648438 91.79447275878906,273.7049214648438 M104.33103275878906,290.45523146484373 C104.33103275878906,290.45523146484373 104.33103275878906,272.18692146484375 104.33103275878906,272.18692146484375 C104.33103275878906,272.18692146484375 109.95809275878906,272.18692146484375 109.95809275878906,272.18692146484375 C109.95809275878906,272.18692146484375 109.95809275878906,280.16949146484376 109.95809275878906,280.16949146484376 C109.95809275878906,280.16949146484376 106.60803275878907,281.66132146484375 106.60803275878907,281.66132146484375 C106.60803275878907,281.66132146484375 109.06823275878907,290.45523146484373 109.06823275878907,290.45523146484373 C109.06823275878907,290.45523146484373 104.33103275878906,290.45523146484373 104.33103275878906,290.45523146484373 C104.33103275878906,290.45523146484373 104.33103275878906,290.45523146484373 104.33103275878906,290.45523146484373 M111.39757275878907,272.2130914648437 C114.74764275878906,272.31778146484373 117.57425275878907,275.35378146484373 117.57425275878907,278.8085314648437 C117.57425275878907,280.50973146484375 116.99846275878906,282.10625146484375 115.84688275878906,283.54573146484375 C115.84688275878906,283.54573146484375 117.73129275878907,290.45523146484373 117.73129275878907,290.45523146484373 C117.73129275878907,290.45523146484373 110.53389275878907,290.45523146484373 110.53389275878907,290.45523146484373 C110.53389275878907,290.45523146484373 108.33541275878906,282.4726614648437 108.33541275878906,282.4726614648437 C108.33541275878906,282.4726614648437 111.39757275878907,281.08553146484377 111.39757275878907,281.08553146484377 C111.39757275878907,281.08553146484377 111.39757275878907,272.2130914648437 111.39757275878907,272.2130914648437 C111.39757275878907,272.2130914648437 111.39757275878907,272.2130914648437 111.39757275878907,272.2130914648437 M125.29510275878906,290.42906146484376 C122.04973275878906,290.16734146484373 119.30163275878905,287.3668914648438 119.30163275878905,283.88597146484375 C119.30163275878905,283.88597146484375 119.30163275878905,278.73001146484376 119.30163275878905,278.73001146484376 C119.24928275878906,275.32761146484376 122.12824275878907,272.4748214648437 125.29510275878906,272.2130914648437 C125.29510275878906,272.2130914648437 125.29510275878906,290.42906146484376 125.29510275878906,290.42906146484376 C125.29510275878906,290.42906146484376 125.29510275878906,290.42906146484376 125.29510275878906,290.42906146484376 M126.73458275878906,272.2130914648437 C129.82292275878905,272.4748214648437 132.64954275878907,275.37995146484377 132.59719275878905,278.73001146484376 C132.51867275878908,282.6297014648438 133.09447275878907,286.16297146484374 130.92216275878906,288.30910146484376 C129.74440275878908,289.48686146484374 128.38344275878907,290.24586146484376 126.73458275878906,290.42906146484376 C126.73458275878906,290.42906146484376 126.73458275878906,272.2130914648437 126.73458275878906,272.2130914648437 C126.73458275878906,272.2130914648437 126.73458275878906,272.2130914648437 126.73458275878906,272.2130914648437 M140.16101275878907,290.48141146484375 C136.94180275878907,290.19351146484377 134.16753275878906,287.26221146484374 134.16753275878906,283.78128146484374 C134.16753275878906,283.78128146484374 134.16753275878906,272.16075146484377 134.16753275878906,272.16075146484377 C134.16753275878906,272.16075146484377 140.16101275878907,272.16075146484377 140.16101275878907,272.16075146484377 C140.16101275878907,272.16075146484377 140.16101275878907,290.48141146484375 140.16101275878907,290.48141146484375 C140.16101275878907,290.48141146484375 140.16101275878907,290.48141146484375 140.16101275878907,290.48141146484375 M141.60049275878907,290.48141146484375 C141.60049275878907,290.48141146484375 141.60049275878907,272.16075146484377 141.60049275878907,272.16075146484377 C141.60049275878907,272.16075146484377 147.59396275878908,272.16075146484377 147.59396275878908,272.16075146484377 C147.59396275878908,272.16075146484377 147.59396275878908,283.78128146484374 147.59396275878908,283.78128146484374 C147.64630275878906,287.26221146484374 144.79352275878907,290.21968146484375 141.60049275878907,290.48141146484375 C141.60049275878907,290.48141146484375 141.60049275878907,290.48141146484375 141.60049275878907,290.48141146484375 M149.16430275878906,290.45523146484373 C149.16430275878906,290.45523146484373 149.16430275878906,273.1553014648438 149.16430275878906,273.1553014648438 C149.16430275878906,273.1553014648438 153.90150275878906,290.45523146484373 153.90150275878906,290.45523146484373 C153.90150275878906,290.45523146484373 149.16430275878906,290.45523146484373 149.16430275878906,290.45523146484373 C149.16430275878906,290.45523146484373 149.16430275878906,290.45523146484373 149.16430275878906,290.45523146484373 M150.47292275878908,272.2130914648437 C150.47292275878908,272.2130914648437 155.94294275878906,272.2130914648437 155.94294275878906,272.2130914648437 C155.94294275878906,272.2130914648437 160.70631275878907,290.45523146484373 160.70631275878907,290.45523146484373 C160.70631275878907,290.45523146484373 155.34098275878907,290.45523146484373 155.34098275878907,290.45523146484373 C155.34098275878907,290.45523146484373 150.47292275878908,272.2130914648437 150.47292275878908,272.2130914648437 M157.35625275878908,272.2130914648437 C157.35625275878908,272.2130914648437 161.80555275878908,272.2130914648437 161.80555275878908,272.2130914648437 C161.80555275878908,272.2130914648437 161.80555275878908,288.93724146484374 161.80555275878908,288.93724146484374 C161.80555275878908,288.93724146484374 157.35625275878908,272.2130914648437 157.35625275878908,272.2130914648437 M163.37590275878907,290.48141146484375 C163.37590275878907,290.48141146484375 163.37590275878907,272.18692146484375 163.37590275878907,272.18692146484375 C163.37590275878907,272.18692146484375 169.36937275878907,272.18692146484375 169.36937275878907,272.18692146484375 C169.36937275878907,272.18692146484375 169.36937275878907,290.48141146484375 169.36937275878907,290.48141146484375 C169.36937275878907,290.48141146484375 163.37590275878907,290.48141146484375 163.37590275878907,290.48141146484375 C163.37590275878907,290.48141146484375 163.37590275878907,290.48141146484375 163.37590275878907,290.48141146484375 M170.80885275878904,272.23927146484374 C173.92336275878907,272.52716146484374 176.74997275878906,275.51081146484375 176.67146275878906,278.91322146484373 C176.61911275878907,282.76056146484376 177.09021275878905,286.08445146484377 174.97026275878906,288.2567514648438 C173.76632275878904,289.46068146484373 172.45771275878906,290.27203146484374 170.80885275878904,290.45523146484373 C170.80885275878904,290.45523146484373 170.80885275878904,272.23927146484374 170.80885275878904,272.23927146484374 C170.80885275878904,272.23927146484374 170.80885275878904,272.23927146484374 170.80885275878904,272.23927146484374 " id="svg_25" style="pointer-events:inherit"/><rect x="87.3203125" y="272.16015625" width="89.359375" height="18.3203125" fill="#000000" opacity="0" id="svg_26" style="pointer-events:inherit"/></g><g type="text" text="THE" font-size="15.660388810175897" font-family="Aldo" fill="774b00" text-anchor="start" font-weight="normal" font-style="normal" lineHeight="1" shapeId="0" shapeVal="0" fill-opacity="1" display="null" elemBBoxWidth="24.005592346191406" stroke="null" stroke-dasharray="none" id="svg_27" transform="rotate(-6.39791, 98.3047, 298.253)" style="pointer-events:inherit"><path id="svg_30" fill="#774b00" stroke-width="0" d="M86.36449,296.12299C86.36449,296.12299 86.36449,292.78766 86.36449,292.78766C86.36449,292.78766 93.5519,292.78766 93.5519,292.78766C93.5519,292.78766 93.5519,296.12299 93.5519,296.12299C93.5519,296.12299 86.36449,296.12299 86.36449,296.12299C86.36449,296.12299 86.36449,296.12299 86.36449,296.12299M88.24355,303.73318C88.24355,303.73318 88.24355,296.98422 88.24355,296.98422C88.24355,296.98422 91.57889,296.98422 91.57889,296.98422C91.57889,296.98422 91.57889,303.73318 91.57889,303.73318C91.57889,303.73318 88.24355,303.73318 88.24355,303.73318C88.24355,303.73318 88.24355,303.73318 88.24355,303.73318M94.49143,303.71753C94.49143,303.71753 94.49143,292.772 94.49143,292.772C94.49143,292.772 97.85808,292.772 97.85808,292.772C97.85808,292.772 97.85808,303.71753 97.85808,303.71753C97.85808,303.71753 94.49143,303.71753 94.49143,303.71753C94.49143,303.71753 94.49143,303.71753 94.49143,303.71753M98.71931,303.71753C98.71931,303.71753 98.71931,292.772 98.71931,292.772C98.71931,292.772 102.0703,292.772 102.0703,292.772C102.0703,292.772 102.0703,303.71753 102.0703,303.71753C102.0703,303.71753 98.71931,303.71753 98.71931,303.71753C98.71931,303.71753 98.71931,303.71753 98.71931,303.71753M103.00984,303.71753C103.00984,303.71753 103.00984,292.78766 103.00984,292.78766C103.00984,292.78766 106.34517,292.78766 106.34517,292.78766C106.34517,292.78766 106.34517,303.71753 106.34517,303.71753C106.34517,303.71753 103.00984,303.71753 103.00984,303.71753C103.00984,303.71753 103.00984,303.71753 103.00984,303.71753M107.20641,303.71753C107.20641,303.71753 107.20641,300.46048 107.20641,300.46048C107.20641,300.46048 110.24422,300.46048 110.24422,300.46048C110.24422,300.46048 110.24422,303.71753 110.24422,303.71753C110.24422,303.71753 107.20641,303.71753 107.20641,303.71753C107.20641,303.71753 107.20641,303.71753 107.20641,303.71753M107.20641,299.58359C107.20641,299.58359 107.20641,296.99988 107.20641,296.99988C107.20641,296.99988 110.24422,296.99988 110.24422,296.99988C110.24422,296.99988 110.24422,299.58359 110.24422,299.58359C110.24422,299.58359 107.20641,299.58359 107.20641,299.58359C107.20641,299.58359 107.20641,299.58359 107.20641,299.58359M107.20641,296.1543C107.20641,296.1543 107.20641,292.78766 107.20641,292.78766C107.20641,292.78766 110.24422,292.78766 110.24422,292.78766C110.24422,292.78766 110.24422,296.1543 110.24422,296.1543C110.24422,296.1543 107.20641,296.1543 107.20641,296.1543C107.20641,296.1543 107.20641,296.1543 107.20641,296.1543" style="pointer-events:inherit"/><rect id="svg_31" x="86.36339923366904" y="292.7708222772926" width="23.880449574440718" height="10.96331855095923" fill="#000000" opacity="0" style="pointer-events:inherit"/></g><defs style="pointer-events:inherit"/><defs style="pointer-events:inherit"/><g id="svg_52" display="null" transform="rotate(-13.7514 51.3242 286.178)"><path d="M49.698,295.96988L49.698,294.33932L48.57347,293.13983L48.7047,293.04608L50.05412,292.70871L50.93501,291.37805L51.02875,291.2843L51.94721,292.72754L52.45323,292.8587L53.50285,293.00867L52.54697,294.11444L52.69678,295.53885L52.69678,295.80133L51.17873,295.1828L51.02882,295.1828L49.698,295.96988zM49.698,295.96988L49.69833,295.96988L49.69833,294.33917L48.57397,293.13989L48.70478,293.04639L50.05428,292.70905L50.93517,291.3783L51.02858,291.28479L51.9468,292.72778L52.45299,292.85901L53.50202,293.00891L52.54648,294.11435L52.69629,295.53885L52.69629,295.80081L51.17856,295.1825L51.0285,295.1825L49.69775,295.96973L49.698,295.96988L49.69833,295.96988L49.698,295.96988L49.69816,295.97012L51.02875,295.18304L51.17847,295.18304L52.69695,295.80173L52.69695,295.53876L52.54713,294.11444L53.50334,293.00833L52.45315,292.85828L51.9473,292.72711L51.02866,291.28372L50.93468,291.37769L50.05386,292.70828L48.70454,293.04565L48.57297,293.13965L49.69766,294.33942L49.69766,295.97037L49.69816,295.97003L49.698,295.96988zM46.96373,290.85229L49.96046,294.48212L46.5863,298.26575L51.3235,296.9693L56.0266,298.26575L52.65252,294.48212L55.64974,290.85229L51.3235,292.06888L46.96373,290.85229zM48.9855,292.66003L47.83546,291.34344L50.89867,291.9545L47.33199,287.65295L47.78871,287.2619L44.993,285.7099L46.27304,288.55988L46.71415,288.1821L48.56058,290.46295L45.2686,289.64334L48.03532,292.89343M51.81218,290.85254L51.81218,286.13837L52.34256,285.89084L51.33259,283.20374L50.32253,285.89084L50.85291,286.13837L50.85291,290.85254M54.6116,292.89337L57.37832,289.64325L54.08642,290.46286L55.93285,288.18201L56.37388,288.55978L57.65384,285.70981L54.85822,287.26184L55.31501,287.65289L51.74818,291.95441L54.81155,291.34335L53.66142,292.65997M53.34345,295.88489L54.9294,297.5788L51.93689,297.09729L55.5484,301.1452L55.09177,301.53635L57.88739,303.08835L56.60744,300.2384L56.16624,300.61615L54.41983,298.60199L57.87856,299.28821L53.17844,294.25476M49.46889,294.25467L44.76878,299.28812L48.22742,298.6019L46.481,300.61606L46.03989,300.23828L44.75986,303.08826L47.55548,301.53625L47.09876,301.14514L50.7102,297.09723L47.71768,297.5787L49.30379,295.88483M53.58569,295.54346C54.49078,295.64886 55.48993,295.81592 56.46902,295.6102C57.23123,295.73163 58.42793,296.26019 58.98575,295.46021C59.74052,295.46021 60.8895,295.58685 61.01916,294.86014C61.77955,294.8963 62.37006,294.9826 63.00261,294.39349C63.49426,294.31125 64.49647,294.14325 64.60258,293.27682C63.99706,293.18234 63.47089,293.09299 62.88582,292.91022C61.50618,292.479 60.11456,291.32361 58.6691,291.31015C57.51847,291.2995 56.55408,292.56195 55.45235,292.89352C55.09714,293.00049 54.89117,292.78247 54.52728,292.71021C53.28118,293.28427 51.78443,295.14383 53.58569,295.54346zM48.11972,292.71002C47.75584,292.78229 47.55003,293.00031 47.19473,292.89337C46.093,292.56177 45.12853,291.29932 43.97799,291.31C42.53252,291.32343 41.14099,292.47885 39.76126,292.91003C39.17628,293.0929 38.65012,293.18225 38.04449,293.27667C38.15062,294.1431 39.15275,294.3111 39.64456,294.39334C40.27703,294.98254 40.86754,294.89624 41.62801,294.85999C41.75768,295.58667 42.90665,295.46005 43.66142,295.46005C44.21923,296.2601 45.41594,295.73145 46.17815,295.61005C47.15724,295.81577 48.15639,295.64877 49.06157,295.5433C51.32424,295.09888 48.96312,293.54904 48.11972,292.71002zM50.85283,295.83038L50.85283,301.61694L50.32245,301.86447L51.3325,304.55148L52.34248,301.86447L51.8121,301.61694L51.8121,295.83038M52.63757,294.29218L53.70428,293.0943L52.13799,292.7485L51.32854,291.36383L50.5157,292.74652L48.94867,293.08862L50.01249,294.28894L49.85359,295.88498L51.32391,295.24408L52.79276,295.88843L52.63757,294.29218z" id="svg_49" display="null" fill="#774b00"/><path fill="#774b00" d="M51.32424,258.07318C45.92097,262.79355 38.54267,265.40393 29.87376,265.08447C32.34035,269.20886 31.23143,274.39081 30.3569,278.5105S29.01673,286.68445 29.83461,291.62042C32.10728,301.43857 40.71797,306.71216 51.32424,314.28101C61.93052,306.71216 70.54121,301.43857 72.81388,291.62042C73.63167,286.68436 73.16571,282.63019 72.29109,278.5105C71.41666,274.39081 70.30765,269.20892 72.77425,265.08447C64.10524,265.40393 56.72744,262.79355 51.32424,258.07318zM51.32424,263.86603C55.82689,266.90314 60.05328,268.63248 66.6194,269.4321C66.46133,273.3064 67.27499,276.82031 67.96923,280.09082S69.03355,286.5799 68.38425,290.49847C66.58002,298.29276 59.74423,302.47943 51.32424,308.48807C42.90425,302.47943 36.0684,298.29276 34.26417,290.49847C33.61494,286.5799 34.31802,283.29434 35.01234,280.02374S36.52024,273.70648 35.9621,270.03226C43.80348,269.03873 47.85073,266.55255 51.32424,263.86603zM46.50041,275.46777L39.35674,270.35327L48.39904,270.12781L51.32424,260.69391L54.18999,270.12781L62.75756,270.35327L55.75628,275.46777L58.34328,283.89301L51.32424,279.01584L44.53059,283.89301L46.50041,275.46777zM47.9097,293.00049L44.80958,289.35873L48.12196,290.18341L46.69267,288.41791L46.21284,288.82886L44.63886,285.32428L48.07669,287.23273L47.56291,287.6727L51.32309,292.20755L48.27921,291.60028L49.10988,292.55139L48.86104,292.76868L47.39162,291.08643L50.47416,291.70135L47.10107,287.63312L47.50081,287.29089L45.34731,286.09534L46.33325,288.29062L46.7357,287.94598L48.99937,290.74219L45.7278,289.9277L48.16119,292.78607L47.9097,293.00049zM51.647,290.85254L51.647,286.03314L52.13411,285.80579L51.3325,283.67316L50.53082,285.80579L51.01792,286.03314L51.01792,290.85254L50.68757,290.85254L50.68757,286.2435L50.11399,285.97583L51.33242,282.73431L52.55077,285.97583L51.97719,286.2435L51.97719,290.85254L51.647,290.85254zM54.4859,292.78625L56.91921,289.92786L53.64771,290.74234L55.91138,287.94617L56.31367,288.29077L57.29961,286.09552L55.14619,287.29095L55.54601,287.6333L52.17276,291.70154L55.25538,291.08658L53.78588,292.76883L53.53712,292.55154L54.36788,291.60046L51.32384,292.2077L55.08418,287.67285L54.57031,287.233L58.00806,285.32446L56.43408,288.8291L55.95433,288.41815L54.52505,290.18365L57.83734,289.35901L54.73722,293.00073L54.4859,292.78625zM53.29893,294.14194L58.34874,299.54984L54.86003,298.85767L56.18334,300.38382L56.66748,299.96915L58.24146,303.47382L54.80379,301.56534L55.31287,301.12927L51.50404,296.86026L54.47855,297.33887L53.22288,295.9978L53.46404,295.772L55.38025,297.81863L52.36965,297.33423L55.78378,301.16098L55.37951,301.5072L57.533,302.70276L56.54707,300.50745L56.1489,300.84839L53.9793,298.34628L57.40805,299.02649L53.05753,294.36749L53.29893,294.14194zM49.58955,294.36749L45.23903,299.02649L48.66779,298.34628L46.49818,300.84845L46.10002,300.50745L45.11407,302.70276L47.26758,301.5072L46.8633,301.16098L50.27744,297.33423L47.26675,297.81863L49.18314,295.772L49.42429,295.9978L48.16845,297.33887L51.14288,296.86026L47.33414,301.12927L47.8433,301.56534L44.40555,303.47382L45.97961,299.96915L46.46374,300.38373L47.78706,298.8576L44.29843,299.54974L49.34823,294.14185L49.58955,294.36749zM54.45815,292.56006L54.50688,292.53766L54.55949,292.54807C54.72731,292.58151 54.8606,292.64066 54.97243,292.68451C55.08517,292.72934 55.17296,292.75742 55.26315,292.75717C55.30618,292.75717 55.35143,292.75122 55.40486,292.73523C55.78444,292.62164 56.16525,292.3786 56.55244,292.11127C56.94011,291.84457 57.33347,291.55502 57.75732,291.36069C58.03969,291.23151 58.33808,291.14471 58.65472,291.14471L58.67091,291.14481L58.67075,291.14481C59.05405,291.14844 59.42891,291.22748 59.79552,291.34814C60.16222,291.46896 60.52132,291.63141 60.87504,291.80511C61.58191,292.15305 62.26988,292.54517 62.93513,292.75238C63.50763,292.93127 64.0234,293.01917 64.62811,293.11346L64.78603,293.13815L64.76662,293.29681C64.74406,293.48215 64.68394,293.64493 64.59763,293.78229C64.51134,293.91977 64.39992,294.03162 64.27753,294.12195C64.03198,294.30267 63.74326,294.40192 63.48483,294.46643C63.31256,294.50912 63.15291,294.53571 63.02986,294.55637L63.00261,294.39343L63.11517,294.51434C62.87996,294.73376 62.64128,294.87177 62.39896,294.95099C62.15673,295.03052 61.91441,295.05182 61.66913,295.05182C61.4558,295.05176 61.23901,295.03589 61.01131,295.02515L61.01916,294.86014L61.18178,294.88922C61.15279,295.05545 61.07465,295.19708 60.96581,295.30133C60.85712,295.40619 60.72282,295.4754 60.57846,295.52332C60.28941,295.61804 59.95228,295.63324 59.62555,295.63391C59.39819,295.63382 59.17627,295.62531 58.98582,295.6254L58.98582,295.46021L59.12135,295.55469C58.98971,295.74432 58.81949,295.87506 58.63342,295.95288C58.4471,296.03116 58.24731,296.05899 58.04646,296.05899C57.75922,296.05875 57.46661,296.00256 57.19026,295.93988C56.91442,295.8768 56.65402,295.80676 56.44325,295.77341L56.46918,295.6102L56.50313,295.77182C56.15105,295.84583 55.79881,295.87308 55.45186,295.87308C54.79453,295.87292 54.1553,295.77594 53.56677,295.70758L53.55835,295.70657L53.55001,295.70477C53.31001,295.65143 53.11633,295.57245 52.96429,295.46667C52.81258,295.36136 52.7038,295.22632 52.64467,295.07501C52.60511,294.97443 52.58719,294.86804 52.58727,294.76129C52.58768,294.54639 52.65673,294.32999 52.76616,294.11823C52.87608,293.9064 53.02805,293.69803 53.20544,293.50156C53.56083,293.10901 54.01713,292.76385 54.45815,292.56006L54.52728,292.71002L54.49507,292.87207L54.52728,292.71002L54.59641,292.85999C54.30363,292.99463 53.9874,293.21033 53.71139,293.46173C53.43496,293.71274 53.19868,294.00037 53.05935,294.27002C52.96594,294.44977 52.91705,294.61981 52.91747,294.76111C52.91754,294.83173 52.92894,294.89532 52.95198,294.95386C52.97511,295.01242 53.0098,295.06677 53.06158,295.1192C53.1644,295.22345 53.34196,295.32031 53.62144,295.38217L53.5856,295.5434L53.60468,295.37936C54.20089,295.44897 54.82691,295.54282 55.45152,295.54266C55.78122,295.54266 56.11042,295.51672 56.43491,295.44849L56.46472,295.4422L56.49479,295.44702C56.73232,295.48508 56.99527,295.55676 57.26336,295.61761C57.53086,295.67883 57.80275,295.72888 58.04613,295.72855C58.21667,295.72864 58.37178,295.70444 58.50499,295.64825C58.63821,295.59155 58.75194,295.50549 58.85013,295.36566L58.89944,295.29498L58.98566,295.29498C59.18536,295.29504 59.4062,295.30347 59.6254,295.30347C59.80229,295.30347 59.97787,295.29794 60.13777,295.27917C60.29774,295.26053 60.4417,295.22821 60.55402,295.17969C60.62909,295.14737 60.68971,295.10864 60.73596,295.06387C60.79733,295.00351 60.8373,294.93439 60.85645,294.83115L60.88197,294.68835L61.02692,294.69519C61.25974,294.70642 61.47249,294.72162 61.66904,294.72156C61.89575,294.72156 62.09966,294.70166 62.2959,294.63721C62.4922,294.57257 62.68414,294.46387 62.88987,294.27267L62.92621,294.23889L62.97519,294.23065C63.15903,294.20001 63.40555,294.15814 63.64307,294.07635C63.88101,293.99493 64.10467,293.87369 64.25035,293.69919C64.34781,293.58224 64.41528,293.44275 64.43849,293.25684L64.60243,293.27692L64.5769,293.44019C63.97054,293.34552 63.43396,293.25476 62.83635,293.06796C62.30035,292.90021 61.77451,292.63214 61.25123,292.3652C60.7282,292.09802 60.20781,291.83179 59.69196,291.66214C59.34798,291.54889 59.00688,291.47845 58.66745,291.47534L58.66728,291.47534L58.65448,291.47522C58.46279,291.47522 58.27425,291.51456 58.08437,291.58325C57.89467,291.65192 57.7043,291.75018 57.51302,291.86554C57.12997,292.09607 56.74503,292.39471 56.34208,292.64691C56.07317,292.81482 55.79543,292.96259 55.49984,293.0517C55.41759,293.07654 55.33805,293.08777 55.26298,293.08777C55.10284,293.08752 54.96987,293.03873 54.85094,292.99197C54.73111,292.94434 54.6216,292.89734 54.49499,292.87231L54.5272,292.71027L54.45815,292.56006zM48.00319,292.82715L48.11973,292.71002L48.15193,292.87207C48.02541,292.89709 47.91598,292.94409 47.79607,292.99173C47.67713,293.03848 47.54417,293.08728 47.38403,293.08752C47.30895,293.08752 47.22942,293.07629 47.14708,293.05145C46.70374,292.91733 46.30013,292.6532 45.90726,292.38324C45.51505,292.11249 45.133,291.83459 44.75243,291.66098C44.49855,291.54495 44.2478,291.47498 43.99236,291.47498L43.97956,291.47507L43.97939,291.47507C43.63995,291.47821 43.29878,291.54865 42.95488,291.6619C42.61098,291.77502 42.26502,291.93088 41.91765,292.1015C41.2225,292.4425 40.5248,292.84366 39.8104,293.06763L39.8104,293.06763C39.21279,293.25446 38.6763,293.34521 38.06985,293.43985L38.04441,293.27658L38.20835,293.25653C38.22561,293.39609 38.26831,293.50916 38.32926,293.60651C38.39029,293.7038 38.47057,293.78574 38.5658,293.85611C38.75558,293.99692 39.00583,294.08752 39.2417,294.14557C39.39895,294.18463 39.54901,294.20984 39.67174,294.23032L39.72071,294.23859L39.75705,294.27234C39.96278,294.46356 40.15472,294.57224 40.35103,294.6369C40.54726,294.70132 40.75117,294.72122 40.97779,294.72122C41.17444,294.72131 41.3871,294.70602 41.62,294.69489L41.76495,294.68802L41.79047,294.83081C41.80963,294.93405 41.84952,295.00317 41.91088,295.06354C41.97241,295.12326 42.06036,295.1723 42.17227,295.20941C42.39576,295.28412 42.70744,295.30389 43.02145,295.30322C43.24072,295.30322 43.46148,295.2948 43.66118,295.29471L43.74731,295.29471L43.79662,295.36542C43.89474,295.50525 44.00847,295.59131 44.14176,295.64801C44.27489,295.70419 44.43,295.72839 44.60054,295.7283C44.84385,295.72864 45.11573,295.67859 45.38332,295.61737C45.6514,295.55652 45.91436,295.48483 46.15189,295.44678L46.18195,295.44196L46.21176,295.44824C46.53634,295.51639 46.86546,295.54239 47.19523,295.54239C47.81985,295.54257 48.44595,295.44873 49.04208,295.37912L49.06116,295.54315L49.02927,295.38101C49.27952,295.33203 49.46468,295.26929 49.59171,295.20206C49.71938,295.1344 49.78571,295.06552 49.8185,295.00391C49.84038,294.96222 49.85013,294.92142 49.85037,294.87238C49.85094,294.79053 49.81767,294.6824 49.74713,294.55951C49.67726,294.43671 49.57271,294.30109 49.44709,294.16211C49.19569,293.88361 48.86129,293.59192 48.55373,293.32458C48.34874,293.14633 48.15557,292.97852 48.00319,292.82715L48.11973,292.71002L48.08752,292.54797L48.17382,292.53088L48.23618,292.5929C48.41969,292.7757 48.68893,293.00281 48.96667,293.24667C49.24475,293.49115 49.53199,293.75281 49.7587,294.01617C49.90975,294.19232 50.03496,294.36871 50.11077,294.55103C50.1538,294.65521 50.18073,294.7627 50.18081,294.87268C50.18105,294.97015 50.15842,295.06934 50.11019,295.15952C50.06213,295.24994 49.99011,295.33008 49.89868,295.39868C49.71492,295.5358 49.45502,295.63391 49.0932,295.7056L49.08684,295.70685L49.0804,295.70758C48.49179,295.77594 47.85255,295.87292 47.19531,295.87308C46.84827,295.87308 46.49603,295.84583 46.14396,295.77182L46.1779,295.6102L46.20383,295.77341C45.99307,295.80667 45.73259,295.8768 45.45674,295.93988C45.1804,296.00266 44.8877,296.05875 44.60054,296.05899C44.3996,296.05899 44.19982,296.03116 44.01359,295.95288C43.82743,295.87506 43.65721,295.74432 43.52557,295.55469L43.6611,295.46021L43.6611,295.6254C43.47065,295.62531 43.24873,295.63382 43.02136,295.63391C42.83777,295.63382 42.65038,295.62845 42.47058,295.60739C42.2907,295.58609 42.11793,295.54999 41.96233,295.48328C41.85885,295.43875 41.76247,295.38004 41.68112,295.30139C41.57227,295.19708 41.49406,295.05545 41.46515,294.88928L41.62776,294.86023L41.63561,295.02521C41.40784,295.03595 41.19112,295.05182 40.97771,295.05191C40.73242,295.05191 40.49011,295.03058 40.24788,294.95105C40.00565,294.87186 39.76696,294.73386 39.53175,294.5144L39.64432,294.39349L39.61707,294.55646C39.43207,294.52539 39.1663,294.48145 38.89623,294.38873C38.62666,294.29556 38.34743,294.1535 38.14344,293.91153C38.00774,293.75073 37.91013,293.54425 37.88031,293.297L37.8609,293.13831L38.01889,293.11365C38.6236,293.01932 39.13937,292.93146 39.71179,292.75256L39.69214,292.75876L39.71179,292.75256C40.21063,292.59695 40.72284,292.33789 41.24538,292.07086C41.76825,291.8042 42.30152,291.5296 42.85156,291.3483C43.21818,291.22763 43.59305,291.14862 43.97634,291.14496L43.97617,291.14496L43.99236,291.1449C44.22972,291.1449 44.45725,291.19379 44.67496,291.27258C44.89282,291.3515 45.10136,291.46021 45.30437,291.58261C45.71012,291.82748 46.09598,292.1272 46.47984,292.36679C46.73546,292.52676 46.98917,292.65939 47.24222,292.73538C47.29558,292.75131 47.34084,292.75732 47.38394,292.75732C47.47413,292.7576 47.56184,292.72952 47.67458,292.68466C47.7864,292.64081 47.91962,292.58167 48.08743,292.54822L48.11964,292.71027L48.00319,292.82715zM51.97736,295.83038L51.97736,301.51181L52.55093,301.77948L51.33259,305.021L50.11416,301.77948L50.68774,301.51181L50.68774,295.83038L51.01809,295.83038L51.01809,301.72217L50.53098,301.94952L51.33267,304.08206L52.13428,301.94952L51.64717,301.72217L51.64717,295.83038L51.97736,295.83038zM53.43909,296.78049L51.32317,295.85226L49.20502,296.77551L49.43396,294.47626L47.90136,292.74701L50.15875,292.25421L51.32978,290.26233L52.49609,292.25702L54.75225,292.75513L53.21569,294.48071L53.43909,296.78049z" id="svg_50" display="null" fill-opacity="1" stroke="none" stroke-opacity="1"/><path fill="#ffffff" d="M51.32424,264.61108L49.19065,271.23615L42.84033,271.39471L47.85725,274.98642L46.4739,280.90341L51.32424,277.47821L56.17401,280.90341L54.35756,274.98642L59.27397,271.39471L53.25723,271.23615L51.32424,264.61108zM50.82409,270.52771C51.83926,270.80472 53.04613,271.30554 53.62392,272.89487C53.86847,273.90607 53.62136,274.6712 53.1573,275.328C53.40036,275.7948 54.06998,276.21436 53.59089,276.76141C52.96016,277.29272 52.55547,276.6922 52.09042,276.39481C51.20334,276.76901 50.62389,276.52887 49.99094,276.39481C49.6382,276.97269 49.27769,277.6666 48.75706,277.42807C48.23642,277.18958 48.32835,276.74606 48.62401,276.09467L49.3242,274.99484C49.8716,275.25922 50.30997,275.71353 51.1907,275.3945L49.75737,273.86108L48.92413,274.42828L47.95735,273.16147L49.82386,271.79456L51.35728,272.59473L50.75711,273.09491L52.12403,274.62781C52.85792,273.01428 52.48849,272.31586 50.82409,270.52771z" id="svg_51" display="null"/></g></g><defs><mask id="canvasMaskImageDef" maskUnits="objectBoundingBox" x="0" y="0"><image xmlns:xlink="http://www.w3.org/1999/xlink" id="canvasMaskImage" preserveAspectRatio="none" x="-103.65" y="-36.45" width="400" height="440.0580551523948" xlink:href="http://allinonedesigner.designnbuy.in/media/catalog/product/w/h/white-tees-1_-front_1_3.png"/></mask></defs><defs/><defs/><defs/><defs/><defs/><defs/><defs/><defs/><defs/><defs/><defs/><defs/><defs style="pointer-events:inherit"/><defs style="pointer-events:inherit"/><defs style="pointer-events:inherit"/><defs style="pointer-events:inherit"/><defs style="pointer-events:inherit"/><defs style="pointer-events:inherit"/></svg>