<?xml version="1.0" encoding="utf-8"?>
<!-- Generator: Adobe Illustrator 16.0.0, SVG Export Plug-In . SVG Version: 6.00 Build 0)  -->
<!DOCTYPE svg PUBLIC "-//W3C//DTD SVG 1.1//EN" "http://www.w3.org/Graphics/SVG/1.1/DTD/svg11.dtd">
<svg version="1.1" id="Layer_1" xmlns="http://www.w3.org/2000/svg" xmlns:xlink="http://www.w3.org/1999/xlink" x="0px" y="0px"
	 width="99.629px" height="65.857px" viewBox="0 0 99.629 65.857" enable-background="new 0 0 99.629 65.857" xml:space="preserve">
<path fill="#92278F" d="M99.563,0.072c-0.166-0.161-1.58,0-2.205,0H90.6c-0.201,0.549,0.223,0.188,0.414,0.413
	c0.01,0.014-0.182,0.289-0.14,0.414c0.053,0.149,0.375,0.063,0.414,0.274c0.015,0.069-0.271,0.375-0.138,0.553
	c0.084,0.109,0.401-0.213,0.552-0.139c0.231,0.112,0.09,0.65,0.138,0.689c0.037,0.028,0.84-0.571,0.827,0.138
	c0.001-0.079-0.547,0.125-0.552,0.138c-0.027,0.069,0.222,0.256,0.139,0.414c0.628,0.155,0.385-0.729,0.827-0.14
	c0.116,0.157,0.535,0.279,0.688,0.553c-0.041-0.072-0.387,0.217-0.275,0.553c0.084,0.248,0.382,0.316,0.689,0.274
	c0.381-0.054-0.055-0.676,0.414-0.136C94.712,4.2,94.995,4.395,95.15,4.62c0.019,0.03,0.113,0.4,0.137,0.414
	c0.148,0.097,0.513-0.042,0.689,0c0.646,0.157,1.34,0.615,1.793,0.553c0.381-0.051,1.063-0.553,1.379-0.967
	c0.127-0.166,0.125-0.371,0.414-0.136V3.105c-0.701-0.413-0.992-1.761,0-2.068C99.391,0.979,99.775,0.279,99.563,0.072z
	 M99.563,24.892v-0.414C99.159,24.276,99.159,25.094,99.563,24.892z M99.563,8.482V8.344C99.223,8.327,99.327,8.512,99.563,8.482z
	 M99.563,2.552V2.002C99.064,1.869,99.293,2.621,99.563,2.552z M99.287,15.376c0.037,0.04,0.209-0.063,0.137-0.137
	C99.387,15.2,99.215,15.307,99.287,15.376z M99.424,5.724c0-0.075-0.137-0.156-0.137,0C99.287,5.8,99.424,5.88,99.424,5.724z
	 M99.01,58.816c-0.062,0.022-0.654,0.032-0.412,0.272C98.873,59.365,99.95,58.445,99.01,58.816z M99.01,2.002
	c0.04,0.038,0.211-0.066,0.139-0.139C99.109,1.824,98.939,1.929,99.01,2.002z M99.148,5.449c-0.039-0.038-0.209,0.066-0.14,0.138
	C99.05,5.625,99.221,5.52,99.148,5.449z M98.873,5.173c-0.012-0.011-0.266-0.011-0.275,0C98.258,5.513,99.218,5.518,98.873,5.173z
	 M98.873,57.987c-0.125-0.125-0.539,0.072-0.553,0.14C98.268,58.395,99.093,58.207,98.873,57.987z M98.734,16.481
	c-0.039-0.039-0.209,0.064-0.137,0.138C98.637,16.658,98.807,16.552,98.734,16.481z M98.598,16.206
	c-0.039-0.039-0.209,0.066-0.139,0.136C98.498,16.38,98.668,16.277,98.598,16.206z M98.046,7.103
	c-0.153,0.313,0.118,0.652,0.413,0.552C98.9,7.502,98.302,6.576,98.046,7.103z M98.459,6C98.42,5.961,98.25,6.067,98.32,6.138
	C98.359,6.177,98.529,6.072,98.459,6z M98.184,6.552c0.039,0.04,0.209-0.064,0.137-0.139C98.282,6.375,98.111,6.479,98.184,6.552z
	 M98.32,50.403C96.975,50.315,97.825,51.167,98.32,50.403L98.32,50.403z M98.184,28.203c-0.039-0.039-0.209,0.066-0.138,0.138
	C98.083,28.379,98.256,28.274,98.184,28.203z M97.908,64.882c0.037,0.039,0.34-0.072,0.273-0.138
	C98.145,64.706,97.842,64.816,97.908,64.882z M97.908,16.066c0.037,0.038,0.209-0.063,0.138-0.137
	C98.007,15.889,97.836,15.995,97.908,16.066z M97.631,48.885c0.071,0.071,0.482-0.067,0.415-0.138
	C97.975,48.677,97.563,48.816,97.631,48.885z M98.046,21.307c0-0.076-0.138-0.157-0.138,0
	C97.908,21.382,98.046,21.462,98.046,21.307z M97.908,31.65c-0.039-0.039-0.211,0.063-0.139,0.138
	C97.809,31.825,97.979,31.719,97.908,31.65z M97.631,25.719c0.04,0.038,0.342-0.072,0.277-0.138
	C97.869,25.542,97.566,25.655,97.631,25.719z M97.219,57.85c0.393-0.029,0.692-0.857,0.551-0.968
	C97.609,57.232,97.223,57.346,97.219,57.85z M97.631,21.719c0.04,0.039,0.21-0.065,0.139-0.138
	C97.73,21.545,97.559,21.649,97.631,21.719z M97.493,5.863C97.4,5.77,97.227,5.997,97.219,6C96.206,6.513,98.072,6.442,97.493,5.863
	z M97.493,15.792c-0.039-0.04-0.341,0.073-0.274,0.139C97.256,15.968,97.559,15.856,97.493,15.792z M97.219,11.792
	c-0.039-0.039-0.211,0.068-0.139,0.139C97.119,11.968,97.289,11.863,97.219,11.792z M97.219,56.058
	c-0.039-0.039-0.211,0.063-0.139,0.136C97.119,56.233,97.289,56.127,97.219,56.058z M96.529,16.206c0.035,0.146,0.423,0.194,0.412,0
	C96.938,16.165,96.473,15.984,96.529,16.206z M96.667,13.998c0-0.076-0.138-0.157-0.138,0
	C96.529,14.075,96.667,14.155,96.667,13.998z M96.529,10.277c-0.041-0.041-0.342,0.071-0.277,0.136
	C96.291,10.452,96.594,10.341,96.529,10.277z M96.252,54.54c0.039,0.039,0.21-0.065,0.139-0.138
	C96.354,54.365,96.182,54.468,96.252,54.54z M95.979,49.99c-0.07,0.277,0.578,0.029,0.412-0.138
	C96.281,49.744,95.99,49.936,95.979,49.99z M96.115,48.885c0.037,0.039,0.34-0.072,0.275-0.138
	C96.354,48.711,96.05,48.822,96.115,48.885z M96.115,29.03c0.037,0.039,0.209-0.066,0.137-0.138
	C96.214,28.853,96.043,28.958,96.115,29.03z M95.979,11.379c0.037,0.037,0.338-0.072,0.273-0.14
	C96.214,11.203,95.912,11.313,95.979,11.379z M95.979,14.549c0.037,0.04,0.209-0.064,0.138-0.137
	C96.077,14.373,95.904,14.478,95.979,14.549z M96.115,20.893c-0.038-0.038-0.342,0.072-0.275,0.138
	C95.878,21.07,96.18,20.958,96.115,20.893z M95.701,12.205c-0.057,0.028-0.233-0.043-0.275,0c-0.043,0.044,0.125,0.546,0.137,0.554
	C96.146,13.058,96.337,11.885,95.701,12.205z M95.15,5.449c-0.275,0.602,0.896,0.543,0.688,0C95.757,5.233,95.253,5.223,95.15,5.449
	z M95.426,36.2c0.021,0.066,0.477,0.191,0.414,0C95.816,36.133,95.361,36.008,95.426,36.2z M95.701,32.063
	c-0.021,0.145,0.105,0.356,0.139,0.138C95.859,32.055,95.732,31.844,95.701,32.063z M95.563,6.138c-0.152,0.015-0.213-0.198-0.274,0
	C95.289,6.278,95.529,6.311,95.563,6.138z M95.426,13.86c-0.179-0.304-0.438-0.114-0.553,0C94.34,14.396,95.8,14.505,95.426,13.86z
	 M95.426,32.201c-0.039-0.038-0.211,0.065-0.139,0.139C95.325,32.377,95.497,32.272,95.426,32.201z M95.15,17.446
	c0.037,0.039,0.34-0.073,0.274-0.138C95.387,17.268,95.084,17.381,95.15,17.446z M95.15,48.473c0.037,0.037,0.209-0.065,0.137-0.14
	C95.249,48.294,95.077,48.402,95.15,48.473z M94.873,31.788c0.014,0.009-0.012,0.136,0,0.138c-0.207-0.038-0.145-0.131-0.275,0
	C94.098,32.425,95.316,32.171,94.873,31.788z M94.598,8.344c0.039,0.039,0.34-0.07,0.275-0.138
	C94.835,8.169,94.533,8.28,94.598,8.344z M94.734,50.403c-0.039-0.038-0.209,0.064-0.137,0.139
	C94.637,50.58,94.809,50.476,94.734,50.403z M94.46,51.506C94.924,51.926,94.878,50.996,94.46,51.506L94.46,51.506z M94.184,6.828
	c0.207,0.207,0.824-0.728,0.414-0.552C94.459,6.336,94.001,6.645,94.184,6.828z M94.46,4.76c0.104-0.006,0.247-0.801-0.138-0.417
	c-0.021,0.023,0.011,0.111,0,0.141C94.283,4.575,94.381,4.762,94.46,4.76z M94.322,15.929c0.039,0.038,0.209-0.066,0.138-0.139
	C94.421,15.751,94.251,15.857,94.322,15.929z M94.46,48.611c-0.039-0.039-0.209,0.065-0.138,0.138
	C94.361,48.786,94.531,48.682,94.46,48.611z M94.184,10.69c0.039,0.037,0.211-0.068,0.14-0.141
	C94.283,10.513,94.113,10.617,94.184,10.69z M94.184,17.308c0.039,0.039,0.211-0.066,0.14-0.139
	C94.283,17.131,94.113,17.237,94.184,17.308z M94.184,20.204c0.039,0.037,0.211-0.065,0.14-0.138
	C94.283,20.027,94.113,20.132,94.184,20.204z M94.184,54.264c0.146,0.146,0.674-0.387,0.967-0.553
	C94.729,53.764,93.891,53.969,94.184,54.264z M94.184,34.545c-0.037-0.039-0.34,0.073-0.274,0.139
	C93.947,34.719,94.248,34.61,94.184,34.545z M94.046,9.861c-0.116-0.103-0.399,0.078-0.413,0.14
	C93.459,10.749,94.324,10.105,94.046,9.861z M93.908,30.409c0.039,0.037,0.21-0.066,0.138-0.138
	C94.009,30.232,93.836,30.335,93.908,30.409z M93.771,7.655c0,0.077,0.138,0.155,0.138,0C93.908,7.578,93.771,7.498,93.771,7.655z
	 M93.494,52.749c-0.032,0.083,0.208,0.296,0.275,0.274C94.133,52.913,93.684,52.25,93.494,52.749z M93.494,4.484
	c0.154-0.016,0.216,0.2,0.275,0C93.77,4.344,93.529,4.309,93.494,4.484z M93.494,49.713C93.16,50.175,93.956,49.379,93.494,49.713
	L93.494,49.713z M93.494,29.582c-0.038-0.039-0.342,0.071-0.275,0.138C93.258,29.756,93.559,29.646,93.494,29.582z M92.805,9.723
	c0.258,0.227,0.379-0.245,0.414-0.276c0.102-0.084,0.26,0.037,0.275-0.136c-0.006,0.048-0.393-0.504-0.413-0.549
	c0.004,0.02,0.001,0.134,0,0.134C92.734,9.027,92.445,9.409,92.805,9.723z M93.357,6.965c0.768-0.031,0.191-1.435-0.414-0.826
	C92.577,6.506,92.921,6.985,93.357,6.965z M92.805,45.991c-0.378,0.282,0.668,0.334,0.553,0
	C93.277,45.763,92.816,45.98,92.805,45.991z M93.219,5.586c-0.037-0.04-0.209,0.067-0.138,0.139
	C93.12,5.763,93.29,5.66,93.219,5.586z M93.081,57.71c-0.043,0.021-0.468,0.086-0.276,0.276
	C92.979,58.161,93.49,57.527,93.081,57.71z M93.219,26.824c0-0.077-0.138-0.157-0.138,0C93.081,26.899,93.219,26.979,93.219,26.824z
	 M93.219,35.097c0-0.078-0.138-0.157-0.138,0C93.081,35.174,93.219,35.253,93.219,35.097z M92.805,51.369
	C93.542,51.653,93.246,50.883,92.805,51.369L92.805,51.369z M93.081,47.645c-0.108-0.109-0.399,0.085-0.414,0.139
	C92.6,48.061,93.246,47.811,93.081,47.645z M93.08,8.758c0,0,0,0.002,0.001,0.005C93.081,8.76,93.081,8.758,93.08,8.758L93.08,8.758
	z M92.943,44.061c-0.117-0.205-0.444-0.201-0.689-0.276C92.07,44.224,93.475,44.142,92.943,44.061z M92.805,10.413
	c-0.037-0.039-0.209,0.068-0.138,0.138C92.705,10.589,92.876,10.486,92.805,10.413z M92.667,33.718
	c0.038,0.038,0.209-0.066,0.138-0.139C92.768,33.542,92.596,33.645,92.667,33.718z M92.115,5.449
	c0.039,0.039,0.341-0.073,0.275-0.138C92.354,5.272,92.051,5.384,92.115,5.449z M92.115,57.437c0.039,0.037,0.341-0.075,0.275-0.141
	C92.354,57.26,92.051,57.373,92.115,57.437z M91.563,9.311c-0.178,0.438,0.235,0.866,0.553,0.55
	C92.377,9.6,91.777,8.782,91.563,9.311z M91.979,21.168c0,0.076,0.138,0.155,0.138,0C92.115,21.093,91.979,21.012,91.979,21.168z
	 M91.84,12.343c-0.008,0.034-0.021,0.257,0,0.275C92.322,13.101,91.984,11.622,91.84,12.343z M91.979,3.657
	c-0.037-0.039-0.211,0.064-0.139,0.138C91.878,3.833,92.05,3.728,91.979,3.657z M91.702,59.643c-0.013,0.013,0,0.117,0,0.136
	C91.702,60.49,92.199,59.147,91.702,59.643z M91.15,2.552c-0.103,0.241,0.131,0.564,0.412,0.553
	c0.381-0.021,0.363-0.784,0.276-0.827C91.703,2.207,91.129,2.603,91.15,2.552z M91.563,37.165c-0.076,0.076-0.002,0.28,0.14,0.14
	C91.777,37.227,91.706,37.023,91.563,37.165z M91.426,15.102c0.096-0.104,0.385-0.543,0.139-0.968
	c0.068,0.413-0.414,0.809-0.414,0.827C91.146,15.005,91.326,15.21,91.426,15.102z M91.15,40.336
	c-0.284,0.284,0.078,0.639,0.274,0.554C91.689,40.771,91.543,39.946,91.15,40.336z M91.288,6c0.038,0.039,0.211-0.065,0.138-0.138
	C91.389,5.824,91.217,5.929,91.288,6z M91.288,6.69c0.169-0.168-0.101-0.728-0.414-0.414C90.563,6.59,91.12,6.858,91.288,6.69z
	 M91.15,3.38c-0.039-0.038-0.209,0.065-0.139,0.138C91.052,3.557,91.223,3.452,91.15,3.38z M91.014,53.438
	c-0.861,0.146,0.075,0.184,0.137,0C91.214,53.245,91,53.439,91.014,53.438z M90.736,13.446c0.039,0.039,0.209-0.066,0.138-0.138
	C90.836,13.271,90.665,13.375,90.736,13.446z M90.874,46.542c-0.24,0.009-0.429-0.029-0.551-0.138
	C90.102,46.788,90.919,46.788,90.874,46.542z M90.6,44.336C91.329,44.485,90.762,43.917,90.6,44.336L90.6,44.336z M90.736,1.174
	c-0.108-0.108-0.399,0.085-0.413,0.14C90.255,1.588,90.902,1.34,90.736,1.174z M89.909,55.918c0.149,0.15,0.795-0.282,1.104-0.412
	C90.372,55.326,89.645,55.655,89.909,55.918z M90.6,10.413c-0.039-0.039-0.211,0.068-0.139,0.138
	C90.5,10.589,90.671,10.486,90.6,10.413z M90.461,48.749c0.039,0.037,0.21-0.065,0.139-0.138
	C90.561,48.572,90.389,48.677,90.461,48.749z M90.323,18.825c0.038,0.039,0.341-0.073,0.276-0.138
	C90.561,18.648,90.259,18.76,90.323,18.825z M90.6,0.622c-0.154,0.016-0.217-0.198-0.275,0C90.324,0.76,90.564,0.795,90.6,0.622z
	 M90.461,32.752c-0.038-0.038-0.209,0.067-0.138,0.139C90.361,32.929,90.532,32.826,90.461,32.752z M89.495,1.864
	c-0.035,0.479-0.103,0.489,0.274,0.828c0.242,0.213,0.275,0.379,0.554,0.274c0.674-0.254-0.22-1.158-0.276-1.379
	c-0.021-0.086,0.055-0.351,0-0.414c-0.227-0.269-0.557,0.003-0.552,0C89.209,1.377,89.52,1.573,89.495,1.864z M90.186,4.62
	c0.039,0.041,0.209-0.063,0.139-0.136C90.284,4.445,90.113,4.55,90.186,4.62z M90.323,19.927c-0.039-0.038-0.21,0.066-0.14,0.139
	C90.225,20.105,90.395,20,90.323,19.927z M90.323,35.097c0-0.078-0.14-0.157-0.14,0C90.186,35.174,90.323,35.253,90.323,35.097z
	 M90.047,12.896c0,0.073,0.139,0.154,0.139,0C90.186,12.819,90.047,12.739,90.047,12.896z M89.771,24.755
	c0.594,0.444,0.518-0.794,0-0.276c-0.012,0.015,0,0.12,0,0.138C89.771,24.631,89.76,24.746,89.771,24.755z M89.771,2.967
	c-0.115-0.104-0.4,0.077-0.414,0.139C89.186,3.853,90.048,3.21,89.771,2.967z M89.634,53.99c0.038,0.037,0.209-0.066,0.138-0.14
	C89.732,53.811,89.563,53.918,89.634,53.99z M89.634,49.163c0.323-0.323-0.561-0.369-0.552-0.139
	C89.082,49.022,89.514,49.281,89.634,49.163z M89.495,54.402c0.04,0.04,0.209-0.065,0.139-0.138
	C89.596,54.225,89.425,54.331,89.495,54.402z M89.495,19.099c0.106-0.105-0.24-0.666-0.274-0.274
	C89.212,18.907,89.329,19.267,89.495,19.099z M89.221,37.716c0.037,0.039,0.211-0.063,0.137-0.138
	C89.318,37.542,89.148,37.645,89.221,37.716z M89.221,8.621c-0.215-0.378-0.646-0.393-0.966-0.276c-0.094,0.036-0.337-0.061-0.414,0
	c-0.332,0.264-0.216,0.898-0.03,1.193c-0.078-0.144,0.356,0.188,0.313,0.188C89.126,9.98,89.615,9.316,89.221,8.621z M89.082,6.276
	c-0.073,0.025-0.52,0.171-0.275,0.414C89.203,7.086,89.634,6.08,89.082,6.276z M88.436,1.119c0.024,0.019,0.058,0.037,0.096,0.056
	c0.422,0.199,0.591-0.051,0.552-0.274c-0.043-0.254-0.804-0.104-0.731,0.121c0.021,0.002,0.037,0.008,0.043,0.017
	C88.407,1.065,88.421,1.091,88.436,1.119z M88.807,5.449c-0.014,0.03-0.021,0.393,0,0.414C89.506,6.563,89.262,4.432,88.807,5.449z
	 M88.393,31.788c0.039,0.037,0.211-0.068,0.139-0.138C88.492,31.611,88.32,31.714,88.393,31.788z M88.529,4.62
	c-0.074-0.2-0.34-0.037-0.413,0C87.341,5.031,88.771,5.26,88.529,4.62z M87.841,1.174c0.017,0.097-0.245,0.303-0.138,0.414
	c0.443,0.457,1.121,0.36,0.73-0.47C88.387,1.084,88.357,1.05,88.35,1.02c-0.098-0.01-0.33,0.052-0.371,0.017
	c-0.098-0.084-0.012-0.72-0.552-0.415C86.742,1.009,87.756,0.67,87.841,1.174z M88.255,16.206c-0.812,0.175-0.543,1.67,0,0.55
	c0.179-0.364,0.063-0.512,0-0.688C88.258,16.076,88.256,16.206,88.255,16.206z M88.255,2.002c-0.039-0.039-0.209,0.064-0.139,0.137
	C88.154,2.177,88.327,2.073,88.255,2.002z M88.116,53.99c0.038,0.037,0.211-0.066,0.139-0.14
	C88.216,53.811,88.046,53.918,88.116,53.99z M88.255,18.41c-0.002-0.139-0.241-0.171-0.276,0
	C88.133,18.398,88.193,18.612,88.255,18.41z M87.703,3.932c-0.038,0.211,0.082,0.266,0.273,0.274
	C88.775,4.249,87.784,3.467,87.703,3.932z M87.288,45.164c0.099,0.273,0.702,0.159,0.688,0
	C87.975,45.112,87.204,44.92,87.288,45.164z M87.703,18.825c-0.008,0,0.007,0.132,0,0.138c-0.023,0.024-0.249,0.14-0.139,0.276
	C87.707,19.412,88.195,18.797,87.703,18.825z M87.564,8.207c-0.039-0.037-0.209,0.066-0.139,0.138
	C87.466,8.383,87.637,8.278,87.564,8.207z M87.427,19.927c-0.038-0.038-0.209,0.066-0.139,0.139
	C87.328,20.105,87.499,20,87.427,19.927z M87.427,3.38c-0.038-0.038-0.34,0.073-0.274,0.138C87.191,3.557,87.493,3.446,87.427,3.38z
	 M87.427,2.002c0.093-0.453-0.639-0.688-0.688-0.688c-0.006,0,0.007,0.134,0,0.136c-0.459,0.191-0.549,0.306-0.412,0.689
	C86.475,2.571,87.379,2.239,87.427,2.002z M87.288,30.271c-0.021,0.145,0.108,0.354,0.139,0.138
	C87.448,30.264,87.32,30.051,87.288,30.271z M86.736,41.579c-0.02,0.021,0.014,0.108,0,0.138c-0.037,0.092,0.06,0.278,0.14,0.276
	C86.979,41.988,87.122,41.194,86.736,41.579z M86.6,4.62c0.039,0.041,0.211-0.063,0.139-0.136C86.699,4.445,86.527,4.55,86.6,4.62z
	 M86.325,59.367c-0.329,0.328,0.586,0.035,0.411-0.138C86.611,59.106,86.348,59.344,86.325,59.367z M86.325,51.644
	c-0.04-0.037-0.21,0.065-0.14,0.138C86.225,51.821,86.396,51.715,86.325,51.644z M86.188,4.62c-0.039-0.037-0.209,0.068-0.14,0.143
	C86.087,4.798,86.257,4.693,86.188,4.62z M86.188,9.034c-0.039-0.039-0.209,0.067-0.14,0.138C86.087,9.21,86.257,9.107,86.188,9.034
	z M85.909,3.38c-0.077,0.028-0.31,0.164-0.272,0.276C85.828,4.284,86.693,3.085,85.909,3.38z M86.048,9.723
	c0,0.074,0.14,0.154,0.14,0C86.188,9.646,86.048,9.566,86.048,9.723z M85.909,36.2c0.039,0.039,0.211-0.066,0.139-0.138
	C86.01,36.025,85.839,36.128,85.909,36.2z M85.909,19.376c0,0.077,0.139,0.155,0.139,0C86.048,19.299,85.909,19.219,85.909,19.376z
	 M85.637,8.207c-0.117-0.102-0.4,0.077-0.416,0.138C85.049,9.092,85.911,8.45,85.637,8.207z M85.357,35.648
	C85.542,36.332,86.01,35.864,85.357,35.648L85.357,35.648z M85.357,51.644c0.039,0.039,0.211-0.066,0.14-0.139
	C85.458,51.467,85.288,51.573,85.357,51.644z M85.221,1.174c0,0.709,0.496-0.635,0-0.138C85.208,1.049,85.221,1.154,85.221,1.174z
	 M85.221,7.103c0.038,0.039,0.211-0.064,0.139-0.139C85.32,6.926,85.148,7.033,85.221,7.103z M85.357,9.311
	c-0.037-0.04-0.209,0.064-0.139,0.136C85.259,9.486,85.432,9.382,85.357,9.311z M85.221,0.072h-0.691
	C84.32,0.494,85.434,0.494,85.221,0.072z M84.945,19.239c0.039,0.039,0.209-0.066,0.138-0.14
	C85.045,19.062,84.872,19.167,84.945,19.239z M83.979,12.343c-0.789,0.634,0.926,0.374,0.414-0.139
	C84.268,12.082,84.001,12.328,83.979,12.343z M84.256,21.031c0.038,0.039,0.209-0.066,0.139-0.138
	C84.355,20.855,84.184,20.959,84.256,21.031z M84.118,48.749c0.038,0.037,0.34-0.073,0.274-0.138
	C84.355,48.572,84.055,48.682,84.118,48.749z M84.118,2.552c-0.013,0.014,0,0.117,0,0.14C84.118,3.4,84.613,2.056,84.118,2.552z
	 M83.843,6.414c0,0.076,0.138,0.157,0.138,0C83.979,6.336,83.843,6.257,83.843,6.414z M83.843,30.271c-0.008,0,0.007,0.131,0,0.138
	c-0.024,0.023-0.251,0.138-0.139,0.275C83.848,30.859,84.334,30.245,83.843,30.271z M83.566,0.76c-0.019,0.019,0.009,0.11,0,0.139
	c-0.01,0.025-0.019,0.259,0,0.274C84.027,1.625,84.012,0.317,83.566,0.76z M83.152,4.344c-0.066,0.066-0.159-0.025-0.139,0.141
	C83.093,5.109,83.807,3.695,83.152,4.344z M82.877,13.86c-0.305,0.306,0.223,0.604,0.413,0.415
	C83.48,14.083,83.279,13.458,82.877,13.86z M83.29,53.438C81.904,53.423,82.368,54.15,83.29,53.438L83.29,53.438z M83.152,16.755
	c-0.039-0.037-0.211,0.066-0.139,0.141C83.052,16.933,83.225,16.828,83.152,16.755z M82.738,32.615
	c0.225,0.011,0.199-0.306,0.275-0.552c0.155-0.504,0.197-0.493,0-0.413C82.73,31.762,82.354,32.593,82.738,32.615z M82.877,52.749
	c0.039,0.039,0.209-0.067,0.139-0.138C82.977,52.571,82.805,52.675,82.877,52.749z M82.738,11.929
	c-0.012,0.011-0.239,0.036-0.137,0.14C82.939,12.408,83.236,11.433,82.738,11.929z M82.604,41.302
	c0.037,0.037,0.209-0.065,0.137-0.14C82.699,41.126,82.529,41.23,82.604,41.302z M81.498,0.347c-0.621,0.565,0.703,0.9,0.827,0.413
	C82.445,0.288,81.843,0.031,81.498,0.347z M81.637,44.197c-0.209-0.317-0.32-0.771-0.414-0.827c-0.304-0.175-0.846-0.22-1.379,0
	c-1.779,0.729-0.195,2.744,1.241,2.206c0.032-0.012-0.028-0.248,0-0.274c0.043-0.043,0.238,0.049,0.274,0
	c0.195-0.246,0.14-0.617,0.275-0.826c0.063-0.098,0.283,0.048,0.275-0.139C81.911,44.406,81.633,44.195,81.637,44.197z
	 M81.637,5.586c-0.039-0.04-0.212,0.067-0.139,0.139C81.536,5.763,81.707,5.66,81.637,5.586z M81.498,16.895
	c0.038,0.038,0.209-0.067,0.139-0.141C81.598,16.718,81.425,16.822,81.498,16.895z M81.359,54.54
	c0.039,0.039,0.341-0.071,0.275-0.138C81.598,54.365,81.296,54.475,81.359,54.54z M81.085,35.648c-0.071-0.041-0.751-0.168-1.241,0
	c-0.74,0.25-1.139,0.618-0.828,1.654c0.014,0.04,0.434,0.482,0.549,0.645c0.09,0,0.314,0.047,0.289,0.047
	c1.291,0.13,2.063-0.831,1.646-1.794c-0.015-0.03-0.244-0.104-0.276-0.138C81.172,36.008,81.137,35.68,81.085,35.648z M80.945,53.85
	c0.098-0.123,0.584,0.127,0.553-0.139c-0.002-0.016-0.385,0.016-0.413,0c-0.269-0.127-0.048-0.611-0.14-0.827
	c-0.043-0.102-0.305-0.188-0.413-0.413c-0.204-0.416-0.226-0.4-0.552-0.551c-0.403-0.188-1.008-0.324-1.379-0.415
	c-0.021-0.005-0.039-0.111-0.14-0.138c0.002,0,0,0.138,0,0.138c-0.011,0.004,0.015,0.134,0,0.139
	c-0.591,0.267-0.903,0.388-1.103,0.827c-0.023,0.052-0.246,0.076-0.276,0.14c-0.069,0.146-0.134,0.646-0.138,0.827
	c-0.014,0.718,0.461,1.109,0.689,1.379c0.375,0.438-0.059,0.384,0.275,0.552c0.427,0.211,1.617,0.084,1.927,0
	c0.006,0,0.537-0.125,0.558-0.14c0.133-0.104-0.063-0.325,0.137-0.412c0.045-0.021,0.216,0.198,0.406,0.005
	c-0.07,0.022-0.373-0.284-0.27-0.42c0.107-0.139,0.428,0.047,0.543-0.127C81.125,54.358,80.784,54.055,80.945,53.85z M81.359,2.416
	c-0.049-0.284-0.313-0.229-0.551-0.138C79.58,2.748,81.475,3.08,81.359,2.416z M81.223,5.034c0.154-0.155-0.355-0.686-0.414-0.271
	C80.79,4.897,81.02,5.238,81.223,5.034z M81.085,11.379c0.086-0.243-0.351-0.729-0.553-0.276
	C80.305,11.613,80.994,11.629,81.085,11.379z M80.67,14.962c-0.013,0.016,0,0.12,0,0.141C80.67,15.811,81.167,14.467,80.67,14.962z
	 M80.67,8.621c-0.039-0.039-0.209,0.066-0.138,0.138C80.57,8.796,80.741,8.693,80.67,8.621z M80.396,43.094
	c0.037,0.039,0.338-0.072,0.273-0.138C80.631,42.918,80.329,43.031,80.396,43.094z M80.396,47.921
	C81.125,48.07,80.559,47.501,80.396,47.921L80.396,47.921z M80.119,14.962c-0.092,0.321,0.538,0.301,0.413,0
	C80.484,14.852,80.166,14.796,80.119,14.962z M80.257,7.517c-0.144-0.146-0.524,0.102-0.553,0.138
	C79.305,8.166,80.533,7.794,80.257,7.517z M79.98,31.374c-0.039-0.04-0.209,0.065-0.138,0.137
	C79.882,31.55,80.053,31.447,79.98,31.374z M79.43,8.896c-0.01,0.027-0.019,0.259,0,0.274c0.461,0.452,0.444-0.854,0-0.413
	C79.411,8.777,79.438,8.872,79.43,8.896z M79.566,37.994c0.039,0.021,0.031,0-0.002-0.047
	C79.521,37.947,79.507,37.958,79.566,37.994z M79.291,5.449c0.211-0.145,0.326-0.624,0.139-0.829
	c-0.225-0.243-0.832,0.163-0.832,0.146C78.378,5,78.773,5.806,79.291,5.449z M79.016,16.066c-0.039-0.037-0.209,0.065-0.138,0.14
	C78.915,16.244,79.088,16.138,79.016,16.066z M78.74,43.094c0.037,0.039,0.209-0.065,0.138-0.138
	C78.839,42.918,78.669,43.023,78.74,43.094z M78.463,2.692c-0.011,0.011,0,0.118,0,0.136C78.463,3.538,78.96,2.194,78.463,2.692z
	 M78.602,9.447c0.174-0.058,0.193-0.743-0.139-0.413C78.229,9.269,78.426,9.507,78.602,9.447z M78.051,36.889
	c0-0.078-0.139-0.157-0.139,0C77.912,36.968,78.051,37.044,78.051,36.889z M77.773,25.03c0,0.075,0.139,0.157,0.139,0
	C77.912,24.954,77.773,24.873,77.773,25.03z M77.637,57.161c-0.008,0.033-0.021,0.255,0,0.276
	C78.117,57.917,77.781,56.44,77.637,57.161z M77.773,1.449c-0.115-0.102-0.399,0.079-0.412,0.14
	C77.188,2.336,78.052,1.694,77.773,1.449z M77.773,30.96c-0.166-0.231-0.432-0.397-0.828,0c-0.223,0.225-0.149,0.665-0.137,0.689
	C77.209,32.305,78.177,31.516,77.773,30.96z M77.223,7.242c-0.013-0.052-0.439-0.334-0.551,0C76.521,7.69,77.301,7.554,77.223,7.242
	z M77.084,13.585c0,0.075,0.139,0.155,0.139,0C77.223,13.508,77.084,13.427,77.084,13.585z M76.672,14.135
	c0.038,0.041,0.209-0.065,0.139-0.138C76.771,13.96,76.6,14.064,76.672,14.135z M76.811,19.514
	c-0.028-0.282-0.306-0.386-0.555-0.139C75.693,19.939,76.879,20.227,76.811,19.514z M76.533,29.167
	c0.037,0.037,0.209-0.065,0.139-0.138C76.632,28.99,76.462,29.094,76.533,29.167z M75.43,11.929
	c-0.334,0.572,0.961,0.27,0.553-0.139C75.842,11.653,75.456,11.885,75.43,11.929z M75.844,33.994
	c0.038,0.037,0.209-0.066,0.139-0.138C75.941,33.817,75.771,33.922,75.844,33.994z M74.879,8.069
	c0.039,0.038,0.209-0.065,0.137-0.138C74.979,7.892,74.807,7.998,74.879,8.069z M74.189,59.918c-0.059,0.058-0.174-0.02-0.14,0.139
	C74.211,60.774,74.8,59.307,74.189,59.918z M74.326,27.236c-0.037-0.037-0.209,0.068-0.137,0.138
	C74.229,27.413,74.398,27.309,74.326,27.236z M73.637,14.413c-0.123,0.125,0.066,0.476,0.276,0.414
	C74.066,14.782,74.245,13.805,73.637,14.413z M73.361,10.413c0.039,0.039,0.209-0.065,0.139-0.136
	C73.461,10.236,73.289,10.341,73.361,10.413z M72.396,44.612c-0.017,0.082,0.285,0.403,0.414,0.273
	C73.057,44.64,72.477,44.19,72.396,44.612z M72.534,7.379C72.514,7.4,72.24,7.637,72.396,7.792
	C72.928,8.325,73.148,6.765,72.534,7.379z M72.672,16.755c-0.038-0.037-0.209,0.066-0.138,0.141
	C72.573,16.933,72.743,16.828,72.672,16.755z M72.534,17.17c-0.039-0.039-0.341,0.071-0.274,0.139
	C72.297,17.347,72.6,17.235,72.534,17.17z M72.396,25.167c-0.017,0.006,0.011,0.127,0,0.139c0,0-0.244,0.356,0,0.275
	C72.463,25.559,72.586,25.105,72.396,25.167z M71.846,44.197c-0.173,0.749,0.689,0.107,0.414-0.136
	C72.143,43.959,71.857,44.135,71.846,44.197z M71.293,34.131c-0.305,0.305,0.225,0.604,0.413,0.414
	C71.896,34.353,71.695,33.729,71.293,34.131z M71.018,17.308c0.039,0.039,0.209-0.066,0.139-0.139
	C71.116,17.131,70.945,17.237,71.018,17.308z M69.363,35.923c-0.276,0.104-0.575,0.121-0.689,0.414
	c-0.367,0.945,0.577,1.721,1.379,1.52C71.253,37.548,70.747,35.4,69.363,35.923z M70.053,25.719c-0.007,0,0.008,0.132,0,0.139
	c-0.023,0.024-0.248,0.14-0.139,0.276C70.057,26.307,70.545,25.693,70.053,25.719z M70.053,52.885
	C69.588,52.465,69.634,53.396,70.053,52.885L70.053,52.885z M69.363,7.517c0,0.076,0.138,0.156,0.138,0
	C69.501,7.44,69.363,7.36,69.363,7.517z M69.225,6.69c-0.012,0.013,0,0.118,0,0.138C69.225,7.537,69.721,6.194,69.225,6.69z
	 M69.225,22.41c-0.037-0.039-0.209,0.067-0.138,0.138C69.125,22.586,69.296,22.483,69.225,22.41z M67.982,37.994
	c-0.012,0.012,0,0.117,0,0.137C67.982,38.84,68.48,37.497,67.982,37.994z M68.122,22.134c-0.039-0.039-0.341,0.073-0.276,0.139
	C67.885,22.309,68.188,22.199,68.122,22.134z M66.881,3.243c-0.076,0.075-0.005,0.28,0.139,0.138
	C67.096,3.305,67.021,3.101,66.881,3.243z M66.329,7.103c0,0.076,0.138,0.156,0.138,0C66.467,7.028,66.329,6.948,66.329,7.103z
	 M65.777,39.785c-0.016-0.011-0.144-0.214-1.104-0.138c-0.259,0.02-0.638,0.058-0.828,0.138c-0.037,0.017-0.062,0.234-0.139,0.275
	c-0.184,0.102-0.271-0.012-0.389,0.109c0.084-0.066-0.014,0.271-0.023,0.305v0.002c-0.002,0.002-0.002,0.004-0.002,0.004
	c-0.021,0.055-0.145-0.027-0.137,0.134c0.023,0.479,0.074,0.073-0.414,0.136c-0.251,0.034-0.66,0.396-0.688,0.555
	c-0.082,0.422,0.397,0.77,0.551,0.824c0.826,0.301,0.641-0.154,1.103,0.277c0.519,0.479,2.038,0.016,2.347-0.413
	C66.441,41.444,66.134,40.067,65.777,39.785z M64.95,13.86c-0.002-0.139-0.242-0.173-0.275,0
	C64.702,14.027,64.827,13.944,64.95,13.86z M63.434,34.958c0,0.709,0.496-0.635,0-0.138C63.42,34.833,63.434,34.94,63.434,34.958z
	 M63.02,58.54c-0.565,0.567,0.396,0.716,0.553,0.414C63.73,58.641,63.234,58.323,63.02,58.54z M63.434,21.031
	c0.145-0.077,0.248-0.95-0.138-0.553C63.105,20.677,63.203,21.154,63.434,21.031z M63.157,34.408
	c-0.038-0.039-0.209,0.064-0.14,0.138C63.059,34.584,63.229,34.478,63.157,34.408z M61.089,50.817
	c-0.129,0.166-0.065,0.579,0.274,0.415C61.566,51.133,61.415,50.399,61.089,50.817z M61.229,40.06c0.051-0.706,0.299-1.241,0-1.792
	c-0.063-0.11-0.306-0.063-0.416-0.139c-0.113-0.08-0.16-0.324-0.273-0.414c-0.583-0.447-1.747,0.021-2.068,0.553
	c-0.191,0.317,0.07,0.34-0.277,0.552c-0.123,0.075-0.229-0.242-0.412-0.139c0.283,0.606,0.363,0.115,0.537,0.516
	c-0.086-0.164,0.009,0.545,0.015,0.588c0-0.024-0.272,0.134-0.276,0.14c-0.43,0.496,0.385,0.271,0.553,0.412
	c0.104,0.563-0.895,0.027-0.688,0.689c0.624-0.209,0.407-0.048,0.552,0.138c0.082,0.109,0.245,0.097,0.274,0.275
	c0,0-0.283,0.22-0.274,0.414c0.029,0.713,0.398,0.065,0.688,0.14c0.104,0.025,0.235,0.372,0.409,0.411
	c0-0.015,0.566-0.104,0.693-0.136c0.979-0.247,1.197-1.004,1.24-2.068C61.503,40.167,61.217,40.201,61.229,40.06z M60.676,13.308
	c0.732,0.438,0.833-1.132,0.137-0.689C60.563,12.778,60.296,13.083,60.676,13.308z M60.538,42.406c0,0.078,0.138,0.155,0.138,0
	C60.676,42.327,60.538,42.249,60.538,42.406z M59.57,1.588c0.371-0.229,0.998-0.291,0.689-0.688
	c-0.16-0.211-0.438,0.048-0.689,0.138c-0.28,0.101-0.995,0.463-0.826,0.827C58.991,2.396,59.531,1.615,59.57,1.588z M60.123,12.343
	c-0.037-0.036-0.21,0.066-0.137,0.139C60.023,12.521,60.195,12.416,60.123,12.343z M60.123,27.374
	c-0.037-0.037-0.21,0.066-0.137,0.141C60.023,27.55,60.195,27.447,60.123,27.374z M59.85,21.997c0,0.077,0.137,0.155,0.137,0
	C59.986,21.92,59.85,21.839,59.85,21.997z M59.021,9.723c-0.533,0.531,0.658,0.245,0.275-0.139
	C59.207,9.497,59.033,9.71,59.021,9.723z M59.021,13.17c0.184-0.184-0.168-0.384-0.276-0.273
	C58.521,13.117,58.771,13.42,59.021,13.17z M58.055,11.515c-0.013,0.014,0,0.118,0,0.139C58.055,12.364,58.551,11.02,58.055,11.515z
	 M58.055,31.788c-0.061-0.095-0.304,0.142-0.275,0.138c-0.178,0.028-0.172,0.069-0.275,0.139
	C56.575,32.679,58.516,32.497,58.055,31.788z M57.503,53.575c-0.04,0.027-0.252-0.039-0.274,0c-0.258,0.428,0.076,0.82,0.414,0.827
	C58.107,54.41,58.07,53.191,57.503,53.575z M57.366,21.583c-0.038-0.037-0.343,0.073-0.276,0.139
	C57.129,21.759,57.432,21.647,57.366,21.583z M56.813,32.752c0,0.076,0.14,0.157,0.14,0C56.952,32.675,56.813,32.594,56.813,32.752z
	 M56.539,21.168c-0.039-0.038-0.341,0.074-0.277,0.14C56.302,21.346,56.604,21.232,56.539,21.168z M55.85,39.094
	c-0.31,0.341-0.188,0.564,0,0.689C56.816,40.431,56.826,38.029,55.85,39.094z M56.124,9.311c-0.039-0.04-0.209,0.064-0.138,0.136
	C56.023,9.486,56.195,9.382,56.124,9.311z M55.711,27.098c-0.039-0.037-0.209,0.065-0.139,0.138
	C55.611,27.275,55.781,27.17,55.711,27.098z M55.021,11.102c-0.02,0.138,0.211,0.479,0.412,0.276
	C55.591,11.222,55.079,10.691,55.021,11.102z M55.16,8.896c-0.016,0.015-0.262,0.152-0.139,0.274
	C55.588,9.738,55.74,8.316,55.16,8.896z M54.607,31.788c-0.014,0.013,0,0.118,0,0.138C54.607,32.634,55.104,31.291,54.607,31.788z
	 M54.745,4.072c0-0.079-0.138-0.159-0.138,0C54.607,4.146,54.745,4.227,54.745,4.072z M54.332,39.647c-0.014,0.013,0,0.118,0,0.138
	C54.332,40.494,54.829,39.151,54.332,39.647z M54.057,7.517c-0.013,0.013,0,0.12,0,0.138C54.057,8.364,54.552,7.021,54.057,7.517z
	 M53.781,26.546c0.037,0.039,0.209-0.064,0.138-0.138C53.88,26.372,53.708,26.475,53.781,26.546z M52.814,40.336
	c-0.013,0.014,0,0.118,0,0.139C52.814,41.183,53.313,39.84,52.814,40.336z M52.814,51.782c0,0.078,0.139,0.157,0.139,0
	C52.953,51.705,52.814,51.625,52.814,51.782z M52.539,1.313c0.038,0.038,0.21-0.067,0.137-0.14
	C52.639,1.134,52.467,1.24,52.539,1.313z M52.125,8.896c-0.021,0.022-0.294,0.256-0.139,0.415
	C52.367,9.689,52.534,8.487,52.125,8.896z M52.125,21.997c0.039,0.04,0.209-0.064,0.139-0.139
	C52.225,21.82,52.055,21.925,52.125,21.997z M51.574,39.647c-0.045,0.122,0.346,0.758,0.551,0.553
	C52.482,39.84,51.756,39.154,51.574,39.647z M52.125,5.449c-0.037-0.038-0.209,0.066-0.139,0.138
	C52.025,5.625,52.197,5.52,52.125,5.449z M51.436,49.438c0,0.077,0.14,0.154,0.14,0C51.574,49.361,51.436,49.281,51.436,49.438z
	 M51.436,42.406c-0.025-0.351-0.287-0.67-0.826-0.553c-1.439,0.313-0.28,1.616,0.414,1.379
	C51.205,43.171,51.452,42.635,51.436,42.406z M50.333,41.302c0.022-0.054,0.251-0.072,0.274-0.14c0.107-0.289,0.065-1.12,0-1.379
	c-0.143-0.569-0.622-0.673-0.964-0.827c-0.053-0.023-0.074-0.248-0.138-0.275c-0.375-0.155-0.753-0.012-0.828,0
	c-0.164,0.025-0.346-0.157-0.413-0.137c-0.151,0.046-0.103,0.291-0.414,0.274c-0.194-0.011-0.163-0.239-0.275-0.274
	c-0.729-0.243-0.128,0.377-0.139,0.412c-0.123,0.409-0.833-0.166-0.964,0c-0.117,0.467,0.428,0.316,0.413,0.553
	c-0.045,0.712-1.835,0.254-2.207,0.689c-0.112,0.132,0.104,0.516,0.139,0.55c0.58,0.591,0.642-0.666,1.379-0.55
	c0.052,0.007,0.426,0.5,0.413,0.55c0.005-0.021-1,0.007-0.552,0.276c0.33,0.304,0.305-0.313,0.828-0.137
	c0.079,0.025-0.135,0.43-0.139,0.413c0.081,0.299,0.551-0.168,0.415,0.137c-0.115,0.257-0.438,0-0.553,0.414
	c0.646,0.14,0.459-0.553,1.104-0.414c-0.098,0.366-0.628,0.291-0.689,0.688c0.402-0.022,1.013-0.618,0.965-0.274
	c-0.033,0.247-0.468,0.252-0.826,0.553c0.362,0.302,1.194-1.049,1.516-0.413c0.182,0.359-0.424,0.382-0.275,0.965
	c0.611,0.048,0.122-0.781,0.552-0.829c0.129-0.013,0.34,0.471,0.413,0.414c0.091-0.068-0.078-0.462,0-0.55
	c0.037-0.043,0.224,0.021,0.276,0c0.05-0.023,0.079-0.245,0.137-0.276c0.166-0.092,0.418-0.019,0.553-0.138
	C50.374,41.541,50.31,41.357,50.333,41.302z M45.368,40.2c-0.072-0.072,0.1-0.178,0.139-0.14
	C45.577,40.133,45.407,40.237,45.368,40.2z M50.057,43.922c0.039,0.037,0.211-0.063,0.139-0.138
	C50.155,43.745,49.986,43.85,50.057,43.922z M49.506,16.206c-0.04-0.039-0.342,0.071-0.276,0.136
	C49.268,16.38,49.569,16.27,49.506,16.206z M48.816,58.677c-0.321,0.321,0.034,0.66,0.275,0.553
	C49.37,59.102,49.206,58.288,48.816,58.677z M49.092,7.242c0.189-0.19-0.109-0.72-0.414-0.414
	C48.275,7.23,48.899,7.431,49.092,7.242z M47.299,21.168c-0.038-0.038-0.209,0.065-0.137,0.14
	C47.199,21.346,47.371,21.242,47.299,21.168z M47.023,42.68c-0.014,0.004,0.014,0.131,0,0.14c-0.029,0.02-0.103-0.011-0.138,0
	c-0.127,0.034-0.16,0.313,0,0.274C46.932,43.084,47.36,42.596,47.023,42.68z M45.094,22.41c0.231,0.071,0.641-0.12,0.688-0.138
	c0.002-0.002,0.002-0.002,0.005-0.002c0.001,0,0.001,0,0.001,0c0.188-0.105,0.313,0.047,0.408,0.002
	c0.021-0.012,0.001,0.091,0.124,0.007c-0.057,0.015-0.175-0.069-0.124-0.146c0.161-0.238,0.594-0.481,0.827-1.104
	c0.509-1.351-0.87-1.908-1.93-1.654c-0.655,0.155-1.217,1.07-1.104,1.792C44.048,21.54,44.843,22.334,45.094,22.41z M46.747,21.997
	c0.039,0.04,0.209-0.064,0.139-0.139C46.847,21.82,46.676,21.925,46.747,21.997z M45.92,41.439c-0.014,0.021-0.015,0.402,0,0.414
	c0.264,0.226,0.573-0.604,0.681-0.558C46.37,41.082,45.935,41.419,45.92,41.439z M46.196,33.994
	c0.037,0.037,0.341-0.073,0.276-0.138C46.433,33.817,46.13,33.929,46.196,33.994z M46.196,8.207
	c0.037,0.039,0.209-0.065,0.138-0.138C46.296,8.03,46.125,8.135,46.196,8.207z M45.92,5.034c1.061-0.1,1.149-2.388-0.413-1.653
	c-0.165,0.078-0.308,0.013-0.413,0.138c-0.14,0.167-0.26,0.842-0.139,1.103C45.16,5.068,45.842,5.042,45.92,5.034z M45.782,31.236
	c0.026-0.118-0.044-0.431-0.138-0.689c-0.199-0.542-0.584-0.954-1.517-0.553c-0.668,0.288-0.697,0.607-0.689,0.967
	c0.004,0.232,0.409,0.963,0.414,0.965C44.516,32.344,45.681,31.684,45.782,31.236z M45.507,2.692
	c-0.039-0.039-0.341,0.072-0.277,0.136C45.27,2.868,45.571,2.756,45.507,2.692z M44.955,11.379c-0.039-0.04-0.21,0.065-0.138,0.137
	C44.855,11.554,45.026,11.451,44.955,11.379z M42.335,40.336c-0.326,0.327,0.678,0.383,0.552,0
	C42.812,40.116,42.501,40.172,42.335,40.336z M42.06,30.546c0.038,0.039,0.209-0.065,0.138-0.138
	C42.158,30.37,41.988,30.475,42.06,30.546z M40.679,35.364c-0.145-0.493,0.181-0.872,0.139-1.095c-0.077-0.42-1.014-1.161-1.24-1.24
	c-0.483-0.171-0.797-0.069-1.104,0c-0.44,0.099-1.091,0.465-1.241,0.688c-0.058,0.087,0.03,0.313,0,0.413
	c-0.015,0.049-0.266,0.203-0.276,0.276c-0.019,0.148,0.069,0.794,0.139,0.965c0.362,0.911,1.633,1.354,2.482,1.104
	c0.572-0.172,0.699-0.71,1.104-0.829c-0.078,0.022,0.407,0.298,0.538,0.025C41.109,35.835,40.679,35.305,40.679,35.364z
	 M41.095,0.072h-0.967V0.21C40.481,0.334,40.911,0.433,41.095,0.072z M40.403,5.034c-0.161,0.163-0.278,0.408,0,0.553
	C41.204,6,41.012,4.427,40.403,5.034z M40.266,16.066c-0.067,0.032-0.319,0.167-0.274,0.274
	C40.231,16.956,40.887,15.764,40.266,16.066z M40.266,19.239c-0.013,0.013,0,0.118,0,0.138
	C40.266,20.085,40.764,18.743,40.266,19.239z M40.266,42.128c0.039,0.039,0.21-0.065,0.138-0.136
	C40.366,41.954,40.194,42.057,40.266,42.128z M40.403,40.614c-0.065-0.207-1.248-0.409-1.379-0.414
	c-0.172-0.011-0.193,0.106-0.275,0.137c-0.581,0.211-0.823,0.17-0.689,0.689C38.267,41.827,40.625,41.296,40.403,40.614z
	 M40.266,10.55c-0.037-0.036-0.21,0.066-0.138,0.141C40.168,10.727,40.338,10.622,40.266,10.55z M38.611,12.205
	c-0.037-0.038-0.21,0.067-0.138,0.139C38.513,12.383,38.685,12.278,38.611,12.205z M37.784,13.17
	c-0.04-0.039-0.209,0.066-0.139,0.139C37.685,13.347,37.856,13.243,37.784,13.17z M37.095,8.758c0.799,0.413,0.606-1.158,0-0.552
	C36.934,8.368,36.815,8.612,37.095,8.758z M36.267,58.677c-0.044,0.022-0.432,0.258-0.275,0.412
	C36.347,59.447,36.91,58.331,36.267,58.677z M35.991,36.062c-0.038-0.037-0.209,0.065-0.138,0.138
	C35.892,36.239,36.064,36.133,35.991,36.062z M35.577,10.826c0.039,0.039,0.21-0.063,0.138-0.136
	C35.678,10.65,35.506,10.755,35.577,10.826z M35.44,13.86c0.037,0.04,0.209-0.065,0.137-0.137
	C35.539,13.685,35.368,13.789,35.44,13.86z M35.025,34.408c0,0.075,0.139,0.156,0.139,0C35.164,34.33,35.025,34.25,35.025,34.408z
	 M34.199,44.474c-0.013,0.013,0,0.116,0,0.138C34.199,45.321,34.694,43.977,34.199,44.474z M33.785,10.964
	c0.038,0.04,0.209-0.064,0.138-0.139C33.884,10.788,33.714,10.893,33.785,10.964z M33.785,37.994
	c0.038,0.037,0.209-0.068,0.138-0.138C33.884,37.816,33.714,37.92,33.785,37.994z M30.613,8.896
	c-1.188,0.435-0.473,1.663,0.414,1.653c0.46-0.004,1.011-0.351,0.965-0.965C31.934,8.788,31.092,8.721,30.613,8.896z M31.441,2.278
	c-0.008,0.032-0.021,0.254,0,0.274C31.922,3.036,31.586,1.554,31.441,2.278z M30.891,14.135c-0.262,0.143-0.141,0.008-0.277,0.277
	c-0.249,0.496,0.099,1.013,0.689,0.964C32.378,15.292,31.939,13.573,30.891,14.135z M30.891,32.477
	c0.037,0.037,0.209-0.067,0.137-0.139C30.987,32.3,30.817,32.404,30.891,32.477z M30.752,2.138c0.361-0.11-0.089-0.774-0.276-0.274
	C30.443,1.949,30.684,2.16,30.752,2.138z M30.199,50.679c0.039,0.039,0.341-0.073,0.276-0.139
	C30.437,50.502,30.135,50.615,30.199,50.679z M28.959,17.031c0.038,0.039,0.209-0.064,0.137-0.136
	C29.058,16.856,28.887,16.961,28.959,17.031z M28.822,22.961c0.037,0.037,0.209-0.065,0.137-0.138
	C28.919,22.785,28.749,22.89,28.822,22.961z M28.269,23.651c-0.271-0.225-0.194-0.841-0.413-1.104
	c-0.146-0.177-0.456-0.199-0.551-0.274c-0.089-0.069-0.067-0.215-0.139-0.275c-0.283-0.234-0.094,0.114-0.414,0.138
	c-0.255,0.018-0.313-0.181-0.552-0.138c-0.177,0.03-0.622,0.489-0.689,0.551c-0.077,0.075-0.347,0.06-0.413,0.14
	c-0.064,0.079,0.045,0.319,0,0.413c-0.139,0.289-0.614-0.023-0.689,0.275c0.029-0.111,0.403,0.113,0.413,0.139
	c0.083,0.233-0.158,0.446-0.139,0.552c0,0,0.25,0.069,0.276,0.138c0.095,0.236-0.011,0.396,0.139,0.553
	c0.068,0.071,0.066,0.198,0.139,0.274c0.104,0.109,0.282,0.049,0.412,0.138c0.222,0.155,0.308,0.584,0.415,0.689
	c0.426,0.427,0.413-0.116,0.826-0.412c0.222-0.159,0.257,0.048,0.415,0c0.026-0.01-0.023-0.25,0-0.277
	c0.057-0.068,0.23,0.172,0.274,0.139c0.11-0.082,0.041-0.446,0.138-0.551c0.217-0.235,0.442,0,0.552-0.276
	c-0.021,0.054-0.271-0.402-0.136-0.553c0.102-0.111,0.555,0.088,0.689,0C28.844,23.177,28.569,23.899,28.269,23.651z M27.717,25.857
	c0.04,0.039,0.21-0.066,0.139-0.139C27.817,25.682,27.646,25.786,27.717,25.857z M26.2,27.925c0.039,0.04,0.211-0.064,0.138-0.138
	C26.301,27.75,26.129,27.854,26.2,27.925z M25.648,58.677c0.039,0.039,0.341-0.072,0.277-0.138
	C25.886,58.501,25.584,58.613,25.648,58.677z M25.648,25.582c-0.037-0.039-0.209,0.066-0.138,0.138
	C25.55,25.757,25.722,25.654,25.648,25.582z M24.546,65.849c0.038,0.036,0.341-0.073,0.275-0.139
	C24.784,65.672,24.482,65.783,24.546,65.849z M24.546,8.344c-0.039-0.038-0.21,0.066-0.138,0.139
	C24.447,8.521,24.618,8.417,24.546,8.344z M23.306,8.758c-0.116-0.08,0.049-0.23-0.139-0.275c-0.01,0-0.287,0.231-0.689,0.275
	c-0.227,0.025-0.462-0.031-0.689,0c-0.337,0.045-0.468,0.57-0.551,0.688c-0.076,0.105-0.207-0.011-0.277,0.139
	C20.972,9.562,21.15,9.727,21.1,9.86c-0.146,0.39-0.382-0.26-0.414,0.14c0-0.004,0.138,0.001,0.138,0.001
	c-0.033,0.993,0.498,1.815,1.517,1.929c0.205,0.022,0.927-0.4,1.24-0.414c0.095-0.002,0.302,0.236,0.413,0.139
	c0.12-0.105-0.181-0.408-0.137-0.552c0.003-0.012,0.257-0.119,0.275-0.139c0.463-0.4-0.021-1.711-0.552-2.206
	C23.531,8.712,23.362,8.798,23.306,8.758z M23.306,23.651c-0.019,0.018,0.008,0.112,0,0.14c-0.011,0.026-0.019,0.259,0,0.274
	C23.767,24.515,23.75,23.208,23.306,23.651z M22.616,29.167c0.001,0.14,0.239,0.173,0.274,0
	C22.737,29.181,22.676,28.969,22.616,29.167z M22.478,58.264c0.038,0.038,0.209-0.068,0.139-0.139
	C22.577,58.087,22.406,58.191,22.478,58.264z M20.686,22.547c-0.637,0.462-0.02,1.325,0.552,1.243
	C22.139,23.658,21.877,21.686,20.686,22.547z M20.271,38.82c0.155-0.014,0.217,0.2,0.277,0
	C20.546,38.681,20.306,38.647,20.271,38.82z M18.202,2.002c0.038,0.146,0.426,0.195,0.415,0C18.613,1.961,18.147,1.782,18.202,2.002
	z M17.376,56.194c0.038,0.039,0.208-0.066,0.137-0.136C17.475,56.019,17.304,56.123,17.376,56.194z M16.823,50.679
	c0.039,0.039,0.21-0.067,0.139-0.139C16.923,50.502,16.753,50.608,16.823,50.679z M14.894,42.542c0,0.077,0.138,0.156,0.138,0
	C15.031,42.466,14.894,42.385,14.894,42.542z M14.065,41.579c0,0.076,0.139,0.155,0.139,0
	C14.204,41.501,14.065,41.421,14.065,41.579z M13.652,14.413c0.039,0.039,0.341-0.073,0.275-0.138
	C13.89,14.236,13.587,14.348,13.652,14.413z M13.101,49.99c0.039,0.039,0.21-0.067,0.138-0.138
	C13.2,49.813,13.028,49.917,13.101,49.99z M12.687,6.138c-0.02,0.02-0.229,0.024-0.138,0.138
	C12.744,6.522,13.246,5.579,12.687,6.138z M11.584,63.78c-0.115,0.09,0.254,0.126,0.275,0.136
	C12.252,64.113,11.721,63.669,11.584,63.78z M11.721,20.204C11.388,20.667,12.184,19.87,11.721,20.204L11.721,20.204z
	 M11.308,51.921c-0.071-0.04-0.554-0.401-0.965-0.14c0.348,0.05,0.975,0.289,1.103,0.276C11.694,52.032,11.428,51.985,11.308,51.921
	z M11.308,48.885c-0.092-0.113-0.126,0.256-0.138,0.276C10.974,49.556,11.417,49.024,11.308,48.885z M10.756,0.76
	c0.195-0.156,0.072-0.652,0.414-0.688H6.619c-0.287,0.474,0.048,0.924,0.689,0.55C7.484,0.52,7.426,0.36,7.723,0.347
	C7.82,0.343,8.468,0.504,8.549,0.621c0.024,0.034-0.032,0.263,0,0.277c0.11,0.048,0.55,0.138,0.553,0.138
	c0.58,0.13,0.572,0.108,1.104-0.138C10.234,0.884,10.69,0.813,10.756,0.76z M10.895,47.232c-0.146-0.146-0.525,0.109-0.552,0.138
	C9.563,48.15,11.523,47.861,10.895,47.232z M10.618,37.165c0.039,0.039,0.21-0.065,0.138-0.138
	C10.717,36.99,10.547,37.093,10.618,37.165z M10.48,52.333c0.029,0.168,0.153,0.084,0.275,0
	C10.754,52.194,10.515,52.161,10.48,52.333z M10.066,32.201C10.531,32.62,10.483,31.691,10.066,32.201L10.066,32.201z M9.377,52.885
	c0,0.077,0.139,0.155,0.139,0C9.516,52.809,9.377,52.728,9.377,52.885z M9.377,37.994c-0.037-0.04-0.341,0.073-0.275,0.137
	C9.14,38.168,9.441,38.057,9.377,37.994z M8.688,17.86c0.039,0.039,0.209-0.066,0.139-0.141C8.787,17.683,8.616,17.789,8.688,17.86z
	 M8.549,34.821c-0.012,0.013,0,0.119,0,0.138C8.549,35.667,9.046,34.324,8.549,34.821z M8.688,19.239
	c-0.039-0.039-0.209,0.066-0.139,0.138C8.589,19.416,8.76,19.31,8.688,19.239z M8.412,34.131c0,0.078,0.137,0.155,0.137,0
	C8.549,34.054,8.412,33.974,8.412,34.131z M7.033,49.438c0.294,0.08,0.751,0.474,0.826,0C7.466,49.631,7.159,49.061,7.033,49.438z
	 M7.723,45.164c-0.559,0.266-1.518-0.37-1.916-0.011c0.091-0.052-0.011,0.515,0.123,0.563c-0.02-0.007,0.22-0.399,0.275-0.414
	C6.835,45.149,7.735,45.821,7.723,45.164z M7.172,56.748c0.037,0.037,0.34-0.075,0.275-0.14C7.407,56.569,7.105,56.683,7.172,56.748
	z M7.033,19.789c-0.038-0.037-0.211,0.068-0.138,0.141C6.933,19.967,7.104,19.862,7.033,19.789z M6.758,36.062
	c0.037,0.038,0.34-0.073,0.275-0.14C6.995,35.885,6.693,35.998,6.758,36.062z M6.758,19.927c-0.04-0.038-0.342,0.073-0.277,0.139
	C6.52,20.105,6.822,19.995,6.758,19.927z M6.48,41.026c-0.038-0.039-0.209,0.067-0.137,0.138C6.382,41.204,6.553,41.098,6.48,41.026
	z M6.068,42.958c0,0.709,0.495-0.635,0-0.138C6.056,42.833,6.068,42.938,6.068,42.958z M6.205,18.549
	c-0.038-0.039-0.209,0.066-0.137,0.139C6.106,18.724,6.277,18.621,6.205,18.549z M6.068,48.885c0.038,0.039,0.209-0.065,0.137-0.138
	C6.167,48.711,5.996,48.815,6.068,48.885z M4.412,57.297c0.029,0.167,0.153,0.086,0.276,0C4.688,57.159,4.447,57.125,4.412,57.297z
	 M4.412,9.034C4.375,8.995,4.203,9.101,4.274,9.171C4.313,9.21,4.484,9.107,4.412,9.034z M3.586,40.75
	c0.037,0.039,0.209-0.065,0.137-0.136C3.685,40.575,3.514,40.677,3.586,40.75z M3.31,8.344C3.277,8.43,3.518,8.641,3.586,8.621
	C3.948,8.51,3.497,7.846,3.31,8.344z M2.62,33.165c0.07,0.071,0.484-0.064,0.413-0.136C2.964,32.959,2.551,33.094,2.62,33.165z
	 M2.62,62.125C2.286,62.587,3.083,61.791,2.62,62.125L2.62,62.125z M2.896,3.932C2.158,3.648,2.455,4.417,2.896,3.932L2.896,3.932z
	 M1.931,52.333c0,0.068,0.222,0.331,0.276,0.277C2.275,52.541,1.931,51.775,1.931,52.333z M1.931,57.71c0,0.078,0.138,0.157,0.138,0
	C2.068,57.635,1.931,57.555,1.931,57.71z M1.241,37.027c0.039,0.039,0.209-0.064,0.138-0.138C1.341,36.85,1.17,36.956,1.241,37.027z
	 M0.828,47.094c0.039,0.038,0.341-0.072,0.274-0.14C1.065,46.916,0.763,47.03,0.828,47.094z M0.275,50.403
	c-0.001-0.013,0.344,0.209,0.414,0.139C0.947,50.283,0.262,50.138,0.275,50.403z M0.275,21.445c0.039,0.039,0.342-0.073,0.276-0.138
	C0.513,21.268,0.211,21.38,0.275,21.445z M0.275,64.055c0.039,0.038,0.21-0.066,0.138-0.141C0.376,63.878,0.204,63.982,0.275,64.055
	z M0,64.745v0.138C0.499,65.124,0.499,64.79,0,64.745z M0,30.271v0.274C0.454,30.646,0.211,30.271,0,30.271z M0,20.478v0.276
	C0.384,20.927,0.384,20.309,0,20.478z"/>
</svg>
