<?xml version="1.0" encoding="utf-8"?>
<!-- Generator: Adobe Illustrator 16.0.0, SVG Export Plug-In . SVG Version: 6.00 Build 0)  -->
<!DOCTYPE svg PUBLIC "-//W3C//DTD SVG 1.1//EN" "http://www.w3.org/Graphics/SVG/1.1/DTD/svg11.dtd">
<svg version="1.1" id="Layer_1" xmlns="http://www.w3.org/2000/svg" xmlns:xlink="http://www.w3.org/1999/xlink" x="0px" y="0px"
	 width="99.563px" height="66.189px" viewBox="0 0 99.563 66.189" enable-background="new 0 0 99.563 66.189" xml:space="preserve">
<path fill="#F15A29" d="M33.37,0c-0.045,0-0.091,0-0.137,0C33.26,0.155,33.371,0.077,33.37,0z M37.231,0c-0.045,0-0.091,0-0.137,0
	C37.12,0.155,37.232,0.077,37.231,0z M65.363,0c-0.045,0-0.092,0-0.139,0C65.109,0.806,65.71,0.538,65.363,0z M69.775,0
	c-0.09,0-0.185,0-0.275,0C69.533,0.173,69.773,0.14,69.775,0z M90.46,0c-0.045,0-0.092,0-0.139,0C90.349,0.155,90.46,0.077,90.46,0z
	 M95.287,0c-0.092,0-0.184,0-0.274,0C94.841,0.382,95.457,0.382,95.287,0z M8.411,0.138C8.373,0.1,8.202,0.203,8.273,0.275
	C8.312,0.314,8.482,0.209,8.411,0.138z M3.998,0.275C3.961,0.237,3.789,0.343,3.86,0.414C3.899,0.452,4.07,0.347,3.998,0.275z
	 M7.998,0.275C7.96,0.237,7.789,0.343,7.86,0.414C7.897,0.452,8.069,0.347,7.998,0.275z M28.821,0.689
	c0.157-0.157-0.229-0.648-0.277-0.275C28.535,0.489,28.773,0.736,28.821,0.689z M56.4,0.414c-0.154,0.016-0.215-0.2-0.275,0
	C56.125,0.554,56.365,0.586,56.4,0.414z M70.742,0.414c-0.012,0.011-0.24,0.038-0.139,0.138C70.943,0.892,71.238-0.084,70.742,0.414
	z M91.15,0.275c-0.037-0.038-0.209,0.066-0.139,0.139C91.05,0.452,91.22,0.347,91.15,0.275z M67.431,0.414
	c-0.037-0.039-0.341,0.071-0.275,0.138C67.195,0.59,67.496,0.479,67.431,0.414z M14.754,0.552c-0.038-0.038-0.208,0.066-0.137,0.139
	C14.654,0.727,14.827,0.623,14.754,0.552z M75.291,0.552c-0.037-0.038-0.209,0.066-0.137,0.139
	C75.193,0.727,75.363,0.623,75.291,0.552z M8.688,0.689C8.649,0.65,8.479,0.756,8.549,0.827C8.587,0.866,8.759,0.76,8.688,0.689z
	 M26.476,0.689C26.438,0.65,26.135,0.76,26.2,0.827C26.237,0.866,26.541,0.754,26.476,0.689z M33.785,0.965
	c-0.039-0.038-0.21,0.065-0.138,0.14C33.685,1.142,33.856,1.036,33.785,0.965z M16.547,1.104c-0.038-0.039-0.209,0.065-0.138,0.138
	C16.448,1.279,16.618,1.174,16.547,1.104z M69.085,1.241c-0.153,0.013-0.215-0.202-0.274,0C68.812,1.381,69.052,1.415,69.085,1.241z
	 M91.011,1.241c-0.039,0.09,0.059,0.277,0.139,0.275c0.104-0.004,0.246-0.8-0.139-0.413C90.992,1.123,91.023,1.213,91.011,1.241z
	 M95.011,1.241C94.736,1.31,94.39,1.17,94.597,1.654C94.804,2.14,95.892,1.021,95.011,1.241z M67.292,1.241
	c-0.037-0.039-0.209,0.066-0.137,0.138C67.195,1.416,67.365,1.312,67.292,1.241z M1.104,1.517c0-0.077-0.14-0.157-0.14,0
	C0.965,1.594,1.104,1.674,1.104,1.517z M28.683,1.517c0.038,0.037,0.209-0.066,0.139-0.139C28.781,1.34,28.611,1.445,28.683,1.517z
	 M88.667,1.379c-0.037-0.039-0.209,0.066-0.139,0.139C88.568,1.554,88.74,1.45,88.667,1.379z M13.376,1.654
	c0.038,0.037,0.341-0.071,0.275-0.138C13.614,1.479,13.311,1.588,13.376,1.654z M26.2,1.517c-0.038-0.038-0.342,0.07-0.275,0.138
	C25.963,1.691,26.265,1.583,26.2,1.517z M69.775,1.517c-0.037-0.038-0.34,0.07-0.275,0.138C69.539,1.691,69.841,1.583,69.775,1.517z
	 M27.578,1.654c-0.037-0.038-0.209,0.067-0.137,0.139C27.479,1.831,27.65,1.726,27.578,1.654z M79.429,1.654
	c-0.039-0.038-0.212,0.067-0.14,0.139C79.33,1.831,79.5,1.726,79.429,1.654z M26.063,1.929c0.038,0.039,0.209-0.065,0.138-0.137
	C26.162,1.756,25.991,1.859,26.063,1.929z M4.55,2.066c0.039,0.04,0.21-0.064,0.14-0.139C4.65,1.892,4.479,1.997,4.55,2.066z
	 M62.33,1.929c-0.07-0.069-0.483,0.069-0.414,0.138C61.986,2.138,62.398,1.999,62.33,1.929z M13.376,2.344
	c0.038,0.037,0.209-0.065,0.138-0.138C13.476,2.169,13.305,2.272,13.376,2.344z M37.231,2.206c-0.037-0.037-0.209,0.066-0.137,0.138
	C37.133,2.381,37.303,2.277,37.231,2.206z M78.187,3.173c0.68,0.063,0.617-1.376-0.275-0.829
	C77.349,2.688,77.724,3.126,78.187,3.173z M25.234,2.482c-0.037-0.037-0.209,0.063-0.138,0.138
	C25.136,2.658,25.307,2.552,25.234,2.482z M40.955,2.482c-0.037-0.037-0.341,0.072-0.275,0.138
	C40.718,2.658,41.021,2.547,40.955,2.482z M79.291,2.62c0.039,0.038,0.34-0.073,0.275-0.138C79.529,2.445,79.226,2.555,79.291,2.62z
	 M40.541,2.62c-0.038-0.039-0.208,0.066-0.137,0.138C40.441,2.796,40.613,2.691,40.541,2.62z M26.476,2.896
	c0.038,0.039,0.21-0.068,0.139-0.139C26.575,2.719,26.405,2.824,26.476,2.896z M7.031,3.033C7.071,3.07,7.242,2.967,7.17,2.896
	C7.132,2.858,6.962,2.962,7.031,3.033z M9.376,2.896C9.339,2.858,9.167,2.962,9.238,3.033C9.276,3.07,9.448,2.967,9.376,2.896z
	 M53.503,2.896c-0.037-0.037-0.209,0.065-0.139,0.138C53.404,3.07,53.576,2.967,53.503,2.896z M62.054,3.033
	c0.036,0.037,0.34-0.071,0.274-0.138C62.291,2.858,61.988,2.967,62.054,3.033z M9.79,3.033c-0.038-0.038-0.34,0.073-0.274,0.14
	C9.553,3.21,9.855,3.1,9.79,3.033z M72.533,3.173c-0.037-0.038-0.209,0.063-0.137,0.138C72.435,3.348,72.605,3.242,72.533,3.173z
	 M15.995,3.445c-0.154,0.017-0.214-0.198-0.274,0C15.721,3.587,15.961,3.619,15.995,3.445z M9.101,3.445
	c-0.038-0.037-0.209,0.068-0.138,0.14C9.001,3.624,9.173,3.518,9.101,3.445z M27.578,3.585c0,0.709,0.497-0.634,0-0.14
	C27.566,3.46,27.578,3.565,27.578,3.585z M33.233,3.445c-0.038-0.037-0.209,0.068-0.139,0.14
	C33.133,3.624,33.305,3.518,33.233,3.445z M33.37,3.585c0.04,0.039,0.21-0.066,0.139-0.14C33.471,3.408,33.3,3.514,33.37,3.585z
	 M97.908,3.585c-0.039-0.037-0.342,0.073-0.277,0.139C97.669,3.76,97.972,3.651,97.908,3.585z M98.458,3.862
	c0.076-0.077,0.004-0.281-0.139-0.14C98.244,3.8,98.316,4.003,98.458,3.862z M56.675,3.723c-0.038-0.039-0.209,0.066-0.137,0.14
	C56.576,3.899,56.748,3.794,56.675,3.723z M35.715,3.862c-0.036-0.04-0.209,0.063-0.138,0.136
	C35.615,4.037,35.786,3.932,35.715,3.862z M32.681,4.274c0.076-0.077,0.006-0.28-0.138-0.141
	C32.468,4.212,32.539,4.416,32.681,4.274z M16.547,4.274c-0.002-0.041-0.469-0.223-0.413,0C16.17,4.423,16.558,4.471,16.547,4.274z
	 M45.645,4.274c-0.203,0.491,0.711,0.161,0.412-0.141C45.944,4.022,45.662,4.229,45.645,4.274z M51.435,4.135
	c-0.037-0.036-0.209,0.068-0.14,0.141C51.335,4.313,51.507,4.207,51.435,4.135z M15.444,4.274c-0.039-0.037-0.208,0.065-0.139,0.138
	C15.344,4.449,15.517,4.346,15.444,4.274z M90.46,4.825c0.459,0.46,0.674-1.09,0.14-0.413C90.582,4.432,90.302,4.668,90.46,4.825z
	 M99.562,4.412c0-0.045,0-0.093,0-0.138C99.406,4.302,99.484,4.414,99.562,4.412z M47.437,4.412c-0.038-0.037-0.21,0.067-0.14,0.14
	C47.337,4.589,47.507,4.483,47.437,4.412z M99.287,4.964c0.008-0.009-0.018-0.638-0.414-0.552c-0.012,0.004,0.012,0.134,0,0.14
	C98.142,4.841,99.037,5.177,99.287,4.964z M45.092,4.552c-0.037-0.039-0.34,0.071-0.274,0.137
	C44.854,4.727,45.156,4.616,45.092,4.552z M25.097,4.964c0.039,0.039,0.21-0.064,0.138-0.139
	C25.197,4.787,25.025,4.893,25.097,4.964z M25.648,5.379C26.114,4.768,25.108,4.805,25.648,5.379L25.648,5.379z M55.986,5.241
	c0.363-0.114-0.088-0.777-0.275-0.277C55.677,5.05,55.919,5.26,55.986,5.241z M26.338,5.102c0,0.077,0.139,0.156,0.139,0
	C26.476,5.024,26.338,4.944,26.338,5.102z M81.773,4.964c-0.146-0.125-0.525,0.075-0.553,0.139
	C80.925,5.843,82.042,5.194,81.773,4.964z M19.58,5.102c-0.012,0.013,0,0.12,0,0.14C19.58,5.948,20.077,4.605,19.58,5.102z
	 M44.955,5.102c-0.039-0.037-0.21,0.067-0.139,0.14C44.854,5.278,45.025,5.173,44.955,5.102z M85.634,5.102
	c-0.036-0.037-0.211,0.067-0.139,0.14C85.535,5.278,85.705,5.173,85.634,5.102z M9.101,5.241c-0.038-0.04-0.209,0.065-0.138,0.138
	C9.001,5.416,9.173,5.311,9.101,5.241z M98.32,5.379c-0.012,0.012,0,0.117,0,0.137C98.32,6.226,98.816,4.882,98.32,5.379z
	 M70.878,5.653c-0.039-0.037-0.209,0.065-0.137,0.138C70.779,5.83,70.951,5.725,70.878,5.653z M41.645,5.929
	c-0.012,0.013-0.238,0.038-0.139,0.14C41.847,6.407,42.143,5.432,41.645,5.929z M90.873,5.929c0.041,0.038,0.211-0.066,0.14-0.139
	C90.974,5.752,90.802,5.859,90.873,5.929z M32.544,6.068C32.582,6.105,32.753,6,32.681,5.927
	C32.643,5.892,32.472,5.996,32.544,6.068z M40.541,6.068c-0.187,0.186-0.054,0.491,0.139,0.412
	C40.843,6.414,40.931,5.677,40.541,6.068z M92.251,5.929c-0.037-0.037-0.34,0.072-0.272,0.14
	C92.015,6.105,92.318,5.995,92.251,5.929z M83.98,6.068c-0.039-0.04-0.209,0.064-0.14,0.136C83.878,6.243,84.05,6.14,83.98,6.068z
	 M93.494,6.204c-0.154,0.016-0.215-0.198-0.274,0C93.22,6.344,93.46,6.379,93.494,6.204z M94.046,6.204
	C93.712,6.668,94.509,5.871,94.046,6.204L94.046,6.204z M11.169,6.204c-0.038-0.038-0.209,0.067-0.137,0.139
	C11.069,6.381,11.241,6.277,11.169,6.204z M38.749,6.204c-0.038-0.038-0.209,0.067-0.139,0.139
	C38.649,6.381,38.82,6.277,38.749,6.204z M43.299,6.204c-0.012,0.014,0,0.119,0,0.139C43.299,7.052,43.795,5.709,43.299,6.204z
	 M91.562,6.343c-0.037-0.036-0.209,0.066-0.138,0.139C91.464,6.52,91.634,6.414,91.562,6.343z M37.783,6.48
	c-0.038-0.039-0.209,0.067-0.138,0.138C37.684,6.657,37.854,6.552,37.783,6.48z M50.332,6.48c-0.038-0.039-0.21,0.067-0.138,0.138
	C50.233,6.657,50.403,6.552,50.332,6.48z M89.91,6.48c-0.039-0.039-0.209,0.067-0.139,0.138C89.808,6.657,89.98,6.552,89.91,6.48z
	 M85.357,6.618c-0.037-0.037-0.209,0.068-0.137,0.14C85.257,6.795,85.429,6.689,85.357,6.618z M22.477,7.032
	c0.259-0.257-0.429-0.403-0.413-0.139C22.063,6.881,22.405,7.104,22.477,7.032z M87.978,6.758c-0.037-0.04-0.209,0.065-0.14,0.137
	C87.878,6.933,88.05,6.827,87.978,6.758z M67.156,6.894c-0.039-0.038-0.209,0.066-0.139,0.139
	C67.056,7.07,67.228,6.967,67.156,6.894z M83.291,7.722c0.543,0.333,1.166-1.346,0.138-0.689c-0.052,0.032-0.238-0.044-0.275,0
	C82.933,7.292,83.216,7.677,83.291,7.722z M22.753,7.032c-0.038-0.037-0.209,0.066-0.138,0.138
	C22.653,7.208,22.824,7.104,22.753,7.032z M9.101,7.445c0.074,0.161,0.178,0.138,0.414,0.138C10.735,7.583,9.005,7.243,9.101,7.445z
	 M75.429,7.583c0.075-0.075,0.006-0.278-0.14-0.138C75.216,7.523,75.287,7.726,75.429,7.583z M23.58,7.445
	c-0.038-0.038-0.209,0.067-0.138,0.138C23.479,7.622,23.651,7.519,23.58,7.445z M22.615,7.859
	C23.172,8.344,22.939,7.417,22.615,7.859L22.615,7.859z M49.643,7.859C50.675,8.025,50.088,7.438,49.643,7.859L49.643,7.859z
	 M78.187,7.859c0.039,0.038,0.209-0.065,0.139-0.138C78.287,7.685,78.115,7.788,78.187,7.859z M95.287,7.722
	c-0.037-0.037-0.209,0.065-0.139,0.138C95.187,7.897,95.357,7.794,95.287,7.722z M35.302,7.859c-0.038-0.037-0.21,0.067-0.138,0.14
	C35.201,8.036,35.373,7.931,35.302,7.859z M78.05,7.859c-0.038-0.037-0.211,0.067-0.139,0.14C77.951,8.036,78.121,7.931,78.05,7.859
	z M96.941,8.135c-0.037-0.036-0.34,0.073-0.275,0.139C96.705,8.312,97.007,8.201,96.941,8.135z M17.512,8.411
	c-0.153,0.015-0.215-0.199-0.275,0C17.238,8.551,17.479,8.585,17.512,8.411z M86.187,8.411c-0.039-0.039-0.211,0.066-0.14,0.138
	C86.085,8.587,86.257,8.483,86.187,8.411z M18.479,8.549c-0.039-0.036-0.209,0.066-0.14,0.141
	C18.379,8.726,18.549,8.62,18.479,8.549z M32.957,8.688c-0.038-0.039-0.209,0.063-0.138,0.136
	C32.857,8.863,33.028,8.758,32.957,8.688z M92.115,9.102c0.313-0.07-0.105-0.759-0.275-0.277
	C91.859,8.772,92.089,9.106,92.115,9.102z M22.338,8.962c0.04,0.039,0.344-0.07,0.277-0.138C22.577,8.787,22.274,8.897,22.338,8.962
	z M22.892,8.962c0.037,0.039,0.209-0.063,0.137-0.138C22.99,8.787,22.819,8.893,22.892,8.962z M32.268,8.962
	C32.999,9.113,32.43,8.544,32.268,8.962L32.268,8.962z M44.265,9.238c-0.038-0.039-0.209,0.068-0.139,0.14
	C44.165,9.415,44.336,9.311,44.265,9.238z M49.643,9.238c-0.069-0.069-0.483,0.068-0.413,0.14
	C49.299,9.447,49.713,9.309,49.643,9.238z M84.806,9.378c-0.103-0.308-0.433-0.145-0.552,0C83.761,9.975,84.962,9.848,84.806,9.378z
	 M89.22,9.651c-0.041,0.025-0.438,0.254-0.277,0.416C89.126,10.25,89.591,9.405,89.22,9.651z M23.028,9.791
	c0.039,0.039,0.209-0.067,0.138-0.14C23.129,9.614,22.957,9.719,23.028,9.791z M49.78,9.791c-0.246,0.246,0.383,0.187,0.414,0
	C50.217,9.656,49.84,9.729,49.78,9.791z M61.64,9.791c0-0.077-0.14-0.156-0.14,0C61.501,9.867,61.64,9.948,61.64,9.791z
	 M64.673,9.791c-0.036-0.038-0.209,0.065-0.139,0.136C64.572,9.966,64.746,9.862,64.673,9.791z M72.396,9.927
	c-0.039-0.037-0.211,0.069-0.14,0.142C72.296,10.105,72.468,10,72.396,9.927z M32.406,10.067c-0.071-0.071-0.484,0.065-0.415,0.136
	C32.062,10.274,32.475,10.135,32.406,10.067z M34.06,10.203c0-0.138-0.24-0.173-0.274,0C33.813,10.371,33.938,10.289,34.06,10.203z
	 M48.953,10.203c-0.077,0.079-0.004,0.282,0.138,0.138C49.168,10.266,49.097,10.063,48.953,10.203z M22.201,10.341
	c-0.288,0.289,0.376,0.303,0.275,0C22.429,10.198,22.23,10.314,22.201,10.341z M22.892,10.341
	C23.355,10.76,23.309,9.832,22.892,10.341L22.892,10.341z M39.163,10.203c-0.039-0.037-0.21,0.068-0.138,0.138
	C39.063,10.38,39.234,10.276,39.163,10.203z M52.539,10.341c0.154-0.013,0.215,0.202,0.275,0
	C52.812,10.203,52.572,10.169,52.539,10.341z M67.431,10.341c0.039,0.039,0.209-0.063,0.139-0.138
	C67.531,10.166,67.361,10.271,67.431,10.341z M89.771,10.203c-0.037-0.037-0.209,0.068-0.14,0.138
	C89.671,10.38,89.841,10.276,89.771,10.203z M3.998,10.48c0.039,0.039,0.21-0.068,0.14-0.141C4.099,10.304,3.927,10.409,3.998,10.48
	z M32.681,10.341c-0.038-0.036-0.209,0.068-0.138,0.141C32.582,10.52,32.753,10.412,32.681,10.341z M82.187,10.341
	c-0.037-0.036-0.211,0.068-0.14,0.141C82.087,10.52,82.257,10.412,82.187,10.341z M65.224,10.618
	c-0.037-0.04-0.341,0.073-0.275,0.139C64.988,10.795,65.291,10.682,65.224,10.618z M73.085,10.618
	c-0.039-0.04-0.211,0.067-0.137,0.139C72.986,10.795,73.158,10.689,73.085,10.618z M89.91,10.895
	c-0.033-0.271-0.396-0.295-0.553-0.139C88.791,11.321,89.992,11.605,89.91,10.895z M19.442,10.895
	c0.039,0.037,0.211-0.067,0.138-0.139C19.543,10.718,19.371,10.821,19.442,10.895z M32.681,10.895c-0.074-0.187-0.477-0.25-0.552,0
	C32.04,11.189,32.838,11.28,32.681,10.895z M34.337,10.895C34.801,11.313,34.755,10.384,34.337,10.895L34.337,10.895z
	 M38.474,10.757c-0.039-0.039-0.21,0.064-0.139,0.139C38.373,10.932,38.545,10.827,38.474,10.757z M78.601,11.444
	c0,0.077,0.139,0.157,0.139,0C78.74,11.37,78.601,11.289,78.601,11.444z M15.995,11.444c-0.037-0.037-0.341,0.073-0.274,0.14
	C15.759,11.622,16.061,11.51,15.995,11.444z M67.292,11.584c0,0.075,0.14,0.155,0.14,0C67.431,11.506,67.292,11.427,67.292,11.584z
	 M35.302,11.997c0.069-0.067-0.275-0.836-0.275-0.277C35.025,11.788,35.248,12.051,35.302,11.997z M74.189,11.584
	c-0.037-0.039-0.209,0.066-0.14,0.136C74.087,11.759,74.259,11.655,74.189,11.584z M13.1,11.997
	c-0.038-0.038-0.209,0.065-0.139,0.137C13,12.174,13.171,12.068,13.1,11.997z M42.334,11.997c-0.012,0.012,0,0.119,0,0.137
	C42.334,12.844,42.831,11.5,42.334,11.997z M99.148,12.134c0.039,0.04,0.34-0.072,0.276-0.137
	C99.384,11.959,99.082,12.07,99.148,12.134z M20.547,12.134c-0.039-0.036-0.21,0.068-0.139,0.141
	C20.447,12.312,20.617,12.206,20.547,12.134z M41.368,12.409c-0.139-0.139,0.017-0.03-0.137,0
	C40.47,12.563,41.873,12.915,41.368,12.409z M10.066,12.549c0.038,0.037,0.208-0.065,0.138-0.14
	C10.166,12.372,9.995,12.478,10.066,12.549z M16.961,12.409c-0.038-0.037-0.209,0.068-0.139,0.14
	C16.861,12.586,17.032,12.482,16.961,12.409z M92.529,12.549c-0.076,0.077-0.006,0.28,0.139,0.139
	C92.744,12.609,92.671,12.406,92.529,12.549z M88.392,12.687c-0.037-0.038-0.209,0.064-0.14,0.138
	C88.292,12.863,88.462,12.758,88.392,12.687z M15.857,12.961c0,0.079,0.138,0.157,0.138,0
	C15.995,12.885,15.857,12.806,15.857,12.961z M69.085,12.961c0.039,0.04,0.209-0.064,0.14-0.137
	C69.185,12.786,69.015,12.892,69.085,12.961z M95.287,12.824c-0.125-0.125-0.393,0.121-0.414,0.137
	C94.22,13.478,95.791,13.326,95.287,12.824z M1.104,13.099c0.038,0.039,0.341-0.071,0.274-0.139
	C1.341,12.924,1.037,13.034,1.104,13.099z M2.481,13.099c-0.142-0.14-0.524,0.099-0.552,0.14
	C1.777,13.467,2.559,13.176,2.481,13.099z M5.24,13.238C6.272,13.402,5.685,12.814,5.24,13.238L5.24,13.238z M42.196,13.238
	c0-0.077-0.138-0.157-0.138,0C42.059,13.315,42.196,13.394,42.196,13.238z M48.953,13.514c0.158-0.157-0.227-0.648-0.274-0.275
	C48.667,13.313,48.907,13.56,48.953,13.514z M0.689,14.203c-0.046-0.009,0.803-0.575,0.827-0.553c-0.194-0.192-0.91-0.019-0.967,0
	c-0.016,0.006,0.016,0.127,0,0.138C0.437,13.878,0.64,14.194,0.689,14.203z M91.562,13.65c-0.037-0.037-0.34,0.073-0.273,0.138
	C91.326,13.828,91.628,13.717,91.562,13.65z M91.978,13.65c-0.039-0.037-0.209,0.067-0.14,0.138
	C91.876,13.828,92.048,13.723,91.978,13.65z M69.5,13.788c-0.037-0.037-0.209,0.068-0.137,0.14
	C69.4,13.965,69.572,13.859,69.5,13.788z M48.539,14.065c0-0.077-0.138-0.157-0.138,0C48.401,14.142,48.539,14.223,48.539,14.065z
	 M72.949,13.927c-0.039-0.038-0.342,0.071-0.277,0.139C72.71,14.103,73.011,13.994,72.949,13.927z M27.304,14.478
	c0.036-0.188-0.087-0.537-0.14-0.274C27.127,14.391,27.251,14.742,27.304,14.478z M29.096,14.203c0-0.077-0.139-0.155-0.139,0
	C28.958,14.279,29.096,14.36,29.096,14.203z M74.189,14.203c-0.013,0.011-0.238,0.037-0.14,0.138
	C74.39,14.682,74.685,13.706,74.189,14.203z M54.193,14.341c0,0.078,0.139,0.156,0.139,0C54.332,14.266,54.193,14.184,54.193,14.341
	z M78.462,14.617c0.105-0.004,0.248-0.799-0.137-0.414c-0.02,0.021,0.012,0.11,0,0.138C78.287,14.432,78.384,14.619,78.462,14.617z
	 M97.63,14.478c0.002,0.142,0.242,0.174,0.277,0C97.751,14.492,97.693,14.279,97.63,14.478z M7.031,14.478
	c-0.037-0.037-0.208,0.067-0.137,0.14C6.934,14.654,7.104,14.55,7.031,14.478z M8.825,14.617c-0.039-0.037-0.209,0.066-0.138,0.138
	C8.726,14.792,8.896,14.688,8.825,14.617z M29.923,14.755c0.038,0.037,0.21-0.065,0.14-0.138
	C30.022,14.58,29.853,14.684,29.923,14.755z M61.365,14.617c-0.039-0.037-0.342,0.071-0.277,0.138
	C61.126,14.792,61.429,14.684,61.365,14.617z M3.998,14.755c-0.037-0.039-0.341,0.073-0.274,0.139
	C3.761,14.932,4.064,14.821,3.998,14.755z M27.027,14.893c-0.021,0.145,0.106,0.354,0.138,0.138
	C27.187,14.887,27.06,14.675,27.027,14.893z M93.494,14.755c-0.039-0.039-0.209,0.067-0.137,0.139
	C93.394,14.932,93.566,14.824,93.494,14.755z M9.101,14.893c-0.038-0.038-0.209,0.064-0.138,0.138
	C9.001,15.069,9.173,14.964,9.101,14.893z M30.199,15.03c0.154-0.013,0.215,0.201,0.275,0C30.473,14.893,30.232,14.856,30.199,15.03
	z M56.951,15.03c0-0.077-0.137-0.156-0.137,0C56.814,15.108,56.951,15.188,56.951,15.03z M63.57,15.03
	c-0.002-0.04-0.469-0.222-0.414,0C63.193,15.177,63.58,15.227,63.57,15.03z M2.481,15.167c0.024,0.027,0.236,0.004,0.275,0
	C3.641,15.119,2.285,14.973,2.481,15.167z M99.562,15.442c0-0.136,0-0.275,0-0.412c-0.047,0-0.092,0-0.138,0
	C99.511,15.332,99.033,15.469,99.562,15.442z M66.464,15.167c-0.037-0.037-0.207,0.068-0.137,0.141
	C66.367,15.346,66.539,15.239,66.464,15.167z M43.161,15.442c-0.154,0.017-0.214-0.2-0.274,0
	C42.887,15.584,43.127,15.617,43.161,15.442z M65.363,15.307c-0.037-0.037-0.34,0.07-0.277,0.136
	C65.126,15.481,65.429,15.371,65.363,15.307z M25.786,15.856c0.037-0.188-0.085-0.537-0.138-0.274
	C25.61,15.77,25.734,16.121,25.786,15.856z M30.612,15.582c0-0.077-0.138-0.155-0.138,0C30.475,15.658,30.612,15.739,30.612,15.582z
	 M40.817,15.442c-0.038-0.037-0.21,0.068-0.139,0.14C40.718,15.621,40.889,15.516,40.817,15.442z M27.027,16.134
	c0.481,0.482,0.145-0.996,0-0.276C27.021,15.891,27.007,16.112,27.027,16.134z M25.234,15.996c-0.037-0.037-0.209,0.066-0.138,0.138
	C25.136,16.171,25.307,16.067,25.234,15.996z M50.745,16.271c0.258-0.258-0.427-0.404-0.413-0.139
	C50.331,16.119,50.675,16.343,50.745,16.271z M70.878,16.271c0.039,0.039,0.343-0.073,0.275-0.139
	C71.117,16.094,70.814,16.207,70.878,16.271z M63.156,16.271c-0.037-0.038-0.209,0.065-0.137,0.138
	C63.056,16.448,63.228,16.343,63.156,16.271z M9.101,16.547C9.832,16.698,9.264,16.129,9.101,16.547L9.101,16.547z M13.238,16.547
	c0.037,0.037,0.209-0.063,0.138-0.138C13.337,16.371,13.167,16.477,13.238,16.547z M27.023,16.438c-0.001-0.018,0-0.026,0.004-0.028
	C27.014,16.412,27.015,16.423,27.023,16.438z M27.441,16.686c0.015,0.047-0.365-0.17-0.418-0.248
	c0.002,0.037,0.015,0.104,0.004,0.108C25.944,17.204,27.697,17.517,27.441,16.686z M39.163,16.547
	c-0.001-0.013,0.343,0.21,0.413,0.14C39.834,16.427,39.148,16.282,39.163,16.547z M92.804,16.547c0-0.074-0.138-0.155-0.138,0
	C92.667,16.623,92.804,16.704,92.804,16.547z M50.47,16.686C51.236,17.118,50.917,16.26,50.47,16.686L50.47,16.686z M65.224,16.547
	c-0.037-0.038-0.209,0.067-0.14,0.14C65.126,16.724,65.296,16.618,65.224,16.547z M25.786,17.099c0.011,0.24-0.03,0.429-0.138,0.552
	C26.033,17.872,26.03,17.054,25.786,17.099z M57.917,17.236c-0.084-0.079-0.653-0.322-0.688,0
	C57.472,17.155,57.8,17.64,57.917,17.236z M72.949,17.236c-0.021,0.146,0.104,0.354,0.137,0.139
	C73.105,17.23,72.978,17.018,72.949,17.236z M26.752,17.51c-0.037,0.189,0.084,0.54,0.139,0.277
	C26.928,17.601,26.804,17.25,26.752,17.51z M79.291,17.375c-0.037-0.037-0.34,0.071-0.274,0.136
	C79.052,17.551,79.357,17.441,79.291,17.375z M5.791,17.51c-0.127-0.125-0.399,0.135-0.414,0.141
	c-0.174,0.075-0.697,0.024-0.413,0.414C5.051,18.183,5.955,17.677,5.791,17.51z M27.304,17.51c-0.039-0.036-0.209,0.068-0.14,0.141
	C27.203,17.689,27.375,17.584,27.304,17.51z M37.646,17.51c-0.039-0.036-0.209,0.068-0.139,0.141
	C37.545,17.689,37.718,17.584,37.646,17.51z M79.566,17.788c0.037,0.039,0.211-0.065,0.139-0.138
	C79.666,17.613,79.496,17.717,79.566,17.788z M3.309,18.064C3.272,18.027,3.1,18.13,3.171,18.202
	C3.21,18.24,3.38,18.137,3.309,18.064z M67.431,20.271c0.965,0.099,1.452-0.55,1.379-1.241c-0.08-0.754-0.521-1.243-1.519-0.827
	C66.082,18.706,66.794,20.205,67.431,20.271z M2.481,18.34c-0.39,0.275,0.719,0.028,0.553-0.138
	C2.884,18.052,2.508,18.322,2.481,18.34z M26.89,18.34c-0.003-0.14-0.241-0.173-0.275,0C26.644,18.508,26.767,18.426,26.89,18.34z
	 M71.017,18.34c0.039,0.039,0.209-0.065,0.137-0.138C71.117,18.163,70.945,18.269,71.017,18.34z M56.675,18.478
	c-0.038-0.038-0.209,0.066-0.137,0.138C56.576,18.654,56.748,18.549,56.675,18.478z M70.328,18.615
	c-0.039-0.038-0.209,0.067-0.139,0.139C70.228,18.792,70.398,18.687,70.328,18.615z M86.46,18.615c-0.012,0.013,0,0.119,0,0.139
	C86.46,19.462,86.958,18.12,86.46,18.615z M93.357,18.754c0.154-0.014,0.215,0.2,0.274,0C93.63,18.615,93.39,18.581,93.357,18.754z
	 M0,18.754c0,0.095,0,0.186,0,0.275C0.281,18.949,0.65,18.687,0,18.754z M33.37,18.754c-0.038-0.039-0.209,0.066-0.137,0.139
	C33.271,18.93,33.442,18.826,33.37,18.754z M19.168,18.892c-0.039-0.039-0.21,0.065-0.139,0.138
	C19.067,19.067,19.238,18.963,19.168,18.892z M65.775,19.029c0-0.14-0.24-0.173-0.273,0C65.531,19.197,65.654,19.115,65.775,19.029z
	 M0.551,19.029c-0.036-0.037-0.341,0.073-0.274,0.138C0.313,19.204,0.617,19.096,0.551,19.029z M17.236,19.167
	c0.039,0.037,0.21-0.065,0.138-0.138C17.337,18.992,17.165,19.096,17.236,19.167z M7.17,19.167c-0.038-0.037-0.34,0.073-0.274,0.139
	C6.933,19.344,7.235,19.233,7.17,19.167z M18.063,19.305c0.039,0.038,0.211-0.066,0.139-0.139
	C18.164,19.13,17.993,19.234,18.063,19.305z M1.379,19.305c-0.038-0.038-0.342,0.074-0.274,0.139
	C1.142,19.481,1.444,19.369,1.379,19.305z M31.44,19.305c-0.038-0.038-0.209,0.066-0.14,0.139
	C31.341,19.481,31.512,19.376,31.44,19.305z M0,19.443c0,0.045,0,0.092,0,0.138C0.156,19.555,0.075,19.443,0,19.443z M3.998,19.443
	c-0.037-0.039-0.209,0.065-0.138,0.138C3.899,19.619,4.07,19.516,3.998,19.443z M62.88,19.719c-0.01,0.012-0.237,0.038-0.137,0.139
	C63.083,20.196,63.38,19.221,62.88,19.719z M5.653,19.719c-0.038-0.036-0.209,0.066-0.138,0.139
	C5.554,19.894,5.725,19.79,5.653,19.719z M20.132,19.856c0.039,0.037,0.21-0.066,0.14-0.139
	C20.232,19.682,20.062,19.785,20.132,19.856z M89.91,20.132c0.037,0.039,0.209-0.065,0.137-0.138
	C90.009,19.956,89.837,20.062,89.91,20.132z M5.791,20.132c-0.038-0.038-0.208,0.067-0.138,0.14
	C5.691,20.309,5.863,20.205,5.791,20.132z M13.376,20.271c0.038,0.038,0.209-0.065,0.138-0.14
	C13.476,20.094,13.305,20.199,13.376,20.271z M14.617,20.271c-0.038,0.211,0.083,0.267,0.274,0.274
	C15.689,20.587,14.699,19.807,14.617,20.271z M20.821,20.271c0.039,0.038,0.21-0.065,0.139-0.14
	C20.922,20.094,20.751,20.199,20.821,20.271z M39.163,20.271c-0.039-0.039-0.21,0.065-0.138,0.138
	C39.063,20.446,39.234,20.343,39.163,20.271z M18.753,20.408C18.335,20.873,19.264,20.826,18.753,20.408L18.753,20.408z
	 M24.132,20.408c-0.037-0.037-0.209,0.066-0.138,0.138C24.031,20.585,24.203,20.479,24.132,20.408z M13.238,20.546
	c-0.039-0.037-0.209,0.068-0.139,0.139C13.138,20.721,13.31,20.619,13.238,20.546z M53.503,20.546c-0.012,0.014,0,0.12,0,0.139
	C53.503,21.395,54,20.05,53.503,20.546z M68.398,20.546c-0.039-0.037-0.211,0.068-0.14,0.139
	C68.296,20.721,68.468,20.619,68.398,20.546z M62.88,20.823c0.4,0.02,0.531,0.373,0.689,0.412c0.078,0.02,0.315-0.225,0.275-0.276
	C63.712,20.78,63.199,20.69,62.88,20.823z M83.152,20.684c-0.039-0.038-0.209,0.066-0.139,0.14
	C83.052,20.862,83.224,20.755,83.152,20.684z M23.58,20.959c0.038,0.039,0.21-0.063,0.138-0.136
	C23.68,20.783,23.509,20.889,23.58,20.959z M26.063,20.959c-0.038-0.038-0.341,0.074-0.276,0.14
	C25.823,21.135,26.128,21.024,26.063,20.959z M25.648,21.235c-0.002-0.141-0.242-0.173-0.275,0
	C25.402,21.401,25.526,21.321,25.648,21.235z M55.71,21.235c-0.037-0.037-0.209,0.067-0.139,0.138
	C55.611,21.41,55.781,21.307,55.71,21.235z M57.779,21.373c0.039,0.037,0.209-0.065,0.139-0.138
	C57.878,21.198,57.707,21.304,57.779,21.373z M13.238,21.513c0.037,0.036,0.209-0.068,0.138-0.141
	C13.337,21.336,13.167,21.44,13.238,21.513z M62.054,21.373c-0.039-0.037-0.212,0.067-0.14,0.141
	C61.953,21.55,62.125,21.444,62.054,21.373z M68.121,21.513c0.072,0.361,0.553,0.061,0.551,0
	C68.669,21.389,68.072,21.26,68.121,21.513z M24.959,21.648c-0.144,0.08-0.545,0.688-0.138,0.688
	C24.97,22.338,25.271,21.477,24.959,21.648z M25.373,21.513c-0.038-0.04-0.21,0.064-0.139,0.136
	C25.273,21.688,25.443,21.584,25.373,21.513z M61.365,21.787c0.037,0.038,0.209-0.064,0.137-0.139
	C61.464,21.61,61.292,21.716,61.365,21.787z M81.773,21.648C81.064,21.982,82.248,22.005,81.773,21.648L81.773,21.648z
	 M1.379,21.925C1.843,22.343,1.797,21.416,1.379,21.925L1.379,21.925z M63.019,21.925c-0.468,0.759,0.729,0.125,0.414-0.138
	C63.3,21.677,63.046,21.882,63.019,21.925z M65.775,22.063c-0.037-0.037-0.207,0.067-0.135,0.14
	C65.677,22.239,65.849,22.134,65.775,22.063z M26.476,22.338c0.038,0.039,0.21-0.063,0.139-0.136
	C26.575,22.164,26.405,22.268,26.476,22.338z M77.361,22.202c-0.039-0.038-0.211,0.065-0.139,0.136
	C77.261,22.377,77.431,22.273,77.361,22.202z M95.701,22.477c0.039,0.038,0.209-0.065,0.139-0.14
	C95.8,22.3,95.628,22.407,95.701,22.477z M80.119,22.477c-0.186-0.138-0.512,0.127-0.553,0.138
	C78.341,22.933,80.447,22.724,80.119,22.477z M31.991,22.614c-0.038-0.037-0.209,0.068-0.138,0.138
	C31.893,22.79,32.063,22.686,31.991,22.614z M53.917,22.752c0.037,0.038,0.209-0.065,0.138-0.138
	C54.017,22.577,53.845,22.683,53.917,22.752z M58.468,22.752c-0.049-0.143-0.245-0.027-0.274,0
	C57.904,23.041,58.57,23.054,58.468,22.752z M96.529,22.752c0.035,0.148,0.424,0.198,0.412,0
	C96.939,22.713,96.472,22.53,96.529,22.752z M36.818,22.892c0.037,0.037,0.21-0.068,0.138-0.141
	C36.918,22.715,36.747,22.82,36.818,22.892z M38.197,23.166c-0.021,0.146,0.107,0.355,0.139,0.139
	C38.355,23.159,38.229,22.948,38.197,23.166z M39.989,23.027c-0.037-0.038-0.209,0.066-0.138,0.139
	C39.891,23.204,40.062,23.101,39.989,23.027z M61.64,23.166c0.036,0.038,0.209-0.064,0.137-0.139
	C61.74,22.989,61.568,23.094,61.64,23.166z M87.978,23.166c-0.154,0.016-0.215-0.199-0.275,0
	C87.703,23.306,87.943,23.34,87.978,23.166z M40.955,23.304c0.038,0.039,0.209-0.065,0.14-0.139
	C41.055,23.129,40.885,23.232,40.955,23.304z M46.609,23.166c-0.114-0.114-0.396,0.094-0.414,0.139
	C45.993,23.795,46.907,23.465,46.609,23.166z M92.115,23.304c-0.002-0.039-0.469-0.223-0.414,0
	C91.74,23.452,92.126,23.501,92.115,23.304z M39.438,23.441c0,0.077,0.138,0.157,0.138,0C39.576,23.366,39.438,23.286,39.438,23.441
	z M98.873,23.441C99.337,23.861,99.289,22.933,98.873,23.441L98.873,23.441z M39.163,23.581c0-0.077-0.138-0.157-0.138,0
	C39.025,23.657,39.163,23.738,39.163,23.581z M55.71,23.581c0.037,0.037,0.209-0.067,0.14-0.14
	C55.81,23.404,55.638,23.51,55.71,23.581z M78.05,23.441c-0.038-0.037-0.342,0.073-0.276,0.14
	C77.812,23.618,78.115,23.508,78.05,23.441z M79.705,23.581c0.029,0.166,0.152,0.084,0.275,0
	C79.978,23.441,79.738,23.406,79.705,23.581z M4.274,23.719c0-0.076-0.138-0.156-0.138,0C4.137,23.795,4.274,23.874,4.274,23.719z
	 M55.986,23.719c0.037,0.037,0.211-0.065,0.139-0.138C56.085,23.543,55.914,23.647,55.986,23.719z M58.468,23.719
	c0.039,0.037,0.209-0.065,0.14-0.138C58.568,23.543,58.396,23.647,58.468,23.719z M94.736,23.581
	c-0.037-0.038-0.342,0.071-0.277,0.138C94.498,23.756,94.8,23.646,94.736,23.581z M49.643,23.856c-0.355,0.354,0.529,0.323,0.414,0
	C49.993,23.679,49.719,23.781,49.643,23.856z M53.228,23.856c-0.021,0.02-0.229,0.023-0.138,0.137
	C53.287,24.238,53.787,23.299,53.228,23.856z M69.363,23.719c-0.039-0.039-0.211,0.065-0.139,0.139
	C69.261,23.894,69.433,23.79,69.363,23.719z M98.736,23.856c0.037,0.037,0.34-0.073,0.272-0.139
	C98.972,23.679,98.669,23.792,98.736,23.856z M3.309,23.993c0.039,0.04,0.209-0.065,0.139-0.137
	C3.41,23.818,3.237,23.922,3.309,23.993z M75.568,23.993c0.002,0.14,0.242,0.174,0.274,0C75.689,24.008,75.628,23.792,75.568,23.993
	z M84.669,23.856c-0.039-0.038-0.211,0.064-0.139,0.137C84.568,24.033,84.74,23.927,84.669,23.856z M38.61,24.131
	c-0.037,0.189,0.086,0.54,0.139,0.277C38.786,24.221,38.662,23.868,38.61,24.131z M57.228,24.82
	c0.209,0.097,0.522-0.011,0.688-0.138c-0.045,0.033-0.258-0.121-0.276-0.138c-0.349-0.349,0.354-0.365,0.276-0.415
	c-0.352-0.209-0.703,0.027-0.688,0c-0.015,0.027-0.271-0.022-0.277,0C56.902,24.376,57.136,24.779,57.228,24.82z M96.804,24.131
	c-0.287,0.609,1.258,0.432,0.688-0.138C97.21,23.711,96.853,24.029,96.804,24.131z M38.887,24.271
	c-0.038,0.188,0.086,0.537,0.139,0.274C39.063,24.358,38.939,24.008,38.887,24.271z M47.987,24.271
	c0.039,0.037,0.209-0.068,0.138-0.141C48.088,24.094,47.916,24.199,47.987,24.271z M43.852,24.271
	c-0.039-0.039-0.209,0.065-0.14,0.138C43.752,24.445,43.922,24.342,43.852,24.271z M88.115,24.546
	c0.326-0.323-0.559-0.37-0.551-0.138C87.564,24.406,87.996,24.665,88.115,24.546z M91.839,24.408c0-0.077-0.139-0.157-0.139,0
	C91.701,24.483,91.839,24.563,91.839,24.408z M41.782,24.408c-0.038-0.04-0.208,0.065-0.138,0.138
	C41.683,24.583,41.854,24.479,41.782,24.408z M28.131,24.683c0,0.076,0.139,0.156,0.139,0
	C28.269,24.606,28.131,24.525,28.131,24.683z M56.675,24.683C56.341,25.146,57.138,24.351,56.675,24.683L56.675,24.683z
	 M86.599,24.546c-0.037-0.038-0.209,0.065-0.14,0.138C86.5,24.721,86.671,24.617,86.599,24.546z M24.132,24.683
	c-0.037-0.037-0.209,0.065-0.138,0.138C24.031,24.858,24.203,24.755,24.132,24.683z M37.921,24.82c0-0.075-0.138-0.155-0.138,0
	C37.783,24.897,37.921,24.978,37.921,24.82z M43.713,24.683c-0.038-0.037-0.209,0.065-0.138,0.138
	C43.614,24.858,43.784,24.755,43.713,24.683z M2.758,24.958c-0.013,0.016,0,0.12,0,0.141C2.758,25.807,3.253,24.463,2.758,24.958z
	 M66.464,25.235c0.039,0.037,0.345-0.073,0.277-0.138C66.705,25.059,66.402,25.171,66.464,25.235z M64.123,25.372
	c0.037,0.038,0.34-0.073,0.275-0.137C64.359,25.197,64.056,25.307,64.123,25.372z M92.941,25.51c0-0.111-0.252-0.434-0.551-0.138
	C91.98,25.781,92.947,26.016,92.941,25.51z M35.302,25.51c-0.002-0.139-0.241-0.173-0.275,0C35.18,25.496,35.24,25.71,35.302,25.51z
	 M43.438,25.51c0,0.077,0.138,0.157,0.138,0C43.575,25.436,43.438,25.354,43.438,25.51z M2.068,25.647
	c0.038,0.039,0.209-0.066,0.138-0.139C2.168,25.473,1.997,25.576,2.068,25.647z M12.549,25.647c-0.075,0.079-0.006,0.282,0.139,0.14
	C12.763,25.71,12.69,25.507,12.549,25.647z M23.442,25.787c0.037,0.037,0.209-0.065,0.138-0.14
	C23.542,25.61,23.371,25.716,23.442,25.787z M41.782,25.787c0.038,0.037,0.21-0.065,0.139-0.14
	C41.882,25.61,41.712,25.716,41.782,25.787z M67.292,25.787c0.039,0.037,0.211-0.065,0.14-0.14
	C67.394,25.61,67.222,25.716,67.292,25.787z M72.396,25.647C72.25,26.449,72.994,25.705,72.396,25.647L72.396,25.647z
	 M75.568,25.647c-0.137-0.134-0.529,0.088-0.553,0.14C74.736,26.395,76.082,26.162,75.568,25.647z M78.74,25.647
	c-0.039-0.037-0.209,0.067-0.139,0.14C78.64,25.824,78.81,25.721,78.74,25.647z M7.86,25.787c-0.039-0.039-0.209,0.066-0.139,0.138
	C7.76,25.962,7.932,25.856,7.86,25.787z M28.131,25.787c-0.039-0.039-0.21,0.066-0.138,0.138
	C28.031,25.962,28.202,25.856,28.131,25.787z M43.575,25.925c-0.065,0.064-0.158-0.026-0.138,0.139
	C43.515,26.688,44.227,25.272,43.575,25.925z M73.085,26.063c0.039,0.037,0.209-0.066,0.138-0.139
	C73.185,25.887,73.013,25.99,73.085,26.063z M12.823,26.063c-0.037-0.038-0.208,0.066-0.137,0.137
	C12.725,26.237,12.896,26.134,12.823,26.063z M74.464,26.199c0-0.074-0.137-0.155-0.137,0
	C74.328,26.276,74.464,26.356,74.464,26.199z M76.533,26.199c0.002,0.14,0.242,0.174,0.275,0C76.654,26.214,76.593,26,76.533,26.199
	z M77.361,26.199c0,0.077,0.137,0.157,0.137,0C77.498,26.125,77.361,26.044,77.361,26.199z M83.427,26.339
	c0.039,0.037,0.21-0.066,0.14-0.14C83.527,26.162,83.355,26.266,83.427,26.339z M21.098,26.475c0.039,0.039,0.341-0.071,0.275-0.137
	C21.335,26.3,21.033,26.41,21.098,26.475z M44.127,26.475c0.038,0.039,0.34-0.071,0.275-0.137
	C44.364,26.3,44.062,26.41,44.127,26.475z M67.017,26.475c-0.328,0.329,0.588,0.038,0.414-0.137
	C67.308,26.214,67.041,26.453,67.017,26.475z M79.429,26.475c0.036,0.039,0.209-0.064,0.137-0.137
	C79.529,26.3,79.357,26.405,79.429,26.475z M43.161,26.614c0.038,0.037,0.341-0.073,0.276-0.14
	C43.399,26.438,43.096,26.55,43.161,26.614z M43.713,26.614c0.038,0.037,0.343-0.073,0.276-0.14
	C43.951,26.438,43.647,26.55,43.713,26.614z M70.878,26.475c-0.006,0.002,0.009,0.132,0,0.14c-0.022,0.023-0.25,0.139-0.137,0.274
	C70.882,27.064,71.371,26.449,70.878,26.475z M24.27,26.889c0.075-0.074,0.005-0.28-0.139-0.138
	C24.055,26.828,24.126,27.032,24.27,26.889z M43.022,26.614c-0.037-0.038-0.208,0.065-0.138,0.138
	C42.924,26.789,43.095,26.686,43.022,26.614z M66.052,26.752C66.783,26.901,66.214,26.332,66.052,26.752L66.052,26.752z
	 M54.882,27.028c-0.047,0.088,0.063,0.142,0.14,0.136C55.447,27.146,55.123,26.582,54.882,27.028z M16.271,27.164
	c0.038,0.039,0.209-0.063,0.138-0.136C16.372,26.989,16.2,27.094,16.271,27.164z M27.165,27.164c0.038,0.039,0.21-0.063,0.14-0.136
	C27.265,26.989,27.095,27.094,27.165,27.164z M43.299,27.028c-0.037-0.039-0.341,0.071-0.275,0.136
	C43.062,27.203,43.365,27.093,43.299,27.028z M85.771,27.164C86.105,27.875,86.128,26.69,85.771,27.164L85.771,27.164z
	 M5.377,27.304c0.039,0.036,0.209-0.068,0.14-0.141C5.478,27.127,5.306,27.232,5.377,27.304z M42.748,27.304
	c0.038,0.036,0.209-0.068,0.139-0.141C42.847,27.127,42.676,27.232,42.748,27.304z M73.775,27.304c0-0.077-0.137-0.155-0.137,0
	C73.638,27.379,73.775,27.461,73.775,27.304z M86.738,27.854c0.295,0.297,0.734-0.396,0.412-0.689c0.008,0.006-0.002,0.141,0,0.141
	C87.001,27.316,86.375,27.493,86.738,27.854z M96.251,27.304c0.039,0.036,0.209-0.068,0.14-0.141
	C96.351,27.127,96.181,27.232,96.251,27.304z M27.304,27.441c0.036,0.037,0.209-0.068,0.138-0.139
	C27.402,27.266,27.231,27.37,27.304,27.441z M56.261,27.441c0.038,0.037,0.209-0.068,0.139-0.139
	C56.363,27.266,56.191,27.37,56.261,27.441z M23.994,27.441c-0.091-0.092-0.271,0.134-0.276,0.138
	C22.704,28.052,24.522,27.977,23.994,27.441z M33.785,27.441c-0.039-0.038-0.21,0.066-0.138,0.138
	C33.685,27.616,33.856,27.513,33.785,27.441z M86.187,27.579c0.037,0.037,0.207-0.065,0.137-0.138
	C86.285,27.403,86.113,27.509,86.187,27.579z M0.965,27.718c0.038,0.038,0.209-0.066,0.14-0.139
	C1.064,27.541,0.894,27.646,0.965,27.718z M32.819,27.579c-0.038-0.038-0.209,0.067-0.139,0.139
	C32.721,27.756,32.891,27.65,32.819,27.579z M33.923,27.718c0.038,0.038,0.341-0.074,0.275-0.139
	C34.16,27.541,33.857,27.652,33.923,27.718z M72.257,28.269c0.183,0.214,0.556-0.829,0.14-0.415
	C72.363,27.888,72.113,28.097,72.257,28.269z M82.738,27.854c0-0.075-0.139-0.157-0.139,0C82.599,27.933,82.738,28.01,82.738,27.854
	z M50.47,28.131c0.037,0.039,0.209-0.067,0.139-0.138C50.57,27.955,50.398,28.06,50.47,28.131z M55.572,28.131
	c0.039,0.039,0.342-0.072,0.277-0.138C55.81,27.955,55.507,28.064,55.572,28.131z M87.839,28.269
	c0.222-0.386-0.594-0.381-0.551-0.139C87.548,28.101,87.593,28.286,87.839,28.269z M8.411,28.269
	c0.038,0.037,0.21-0.064,0.138-0.139C8.511,28.093,8.34,28.198,8.411,28.269z M18.34,28.269c0,0.48,0.398,0.23,0.413,0.139
	C18.745,28.457,18.34,27.741,18.34,28.269z M55.296,28.269c0.037,0.037,0.211-0.064,0.138-0.139
	C55.396,28.093,55.226,28.198,55.296,28.269z M12.272,28.407c0.016,0.228,0.398,0.361,0.414,0.136
	C12.695,28.405,12.25,28.097,12.272,28.407z M18.892,28.407c-0.014,0.011,0,0.118,0,0.136
	C18.892,29.254,19.389,27.911,18.892,28.407z M34.612,28.543c-0.155,0.018-0.216-0.2-0.275,0
	C34.338,28.683,34.578,28.719,34.612,28.543z M45.645,28.543C44.206,28.388,44.813,28.963,45.645,28.543L45.645,28.543z
	 M73.912,28.683c0.039,0.036,0.209-0.066,0.139-0.141C74.013,28.506,73.841,28.611,73.912,28.683z M80.808,28.683
	c0.037,0.036,0.209-0.066,0.137-0.141C80.908,28.506,80.736,28.611,80.808,28.683z M31.854,28.683
	c-0.037-0.037-0.21,0.065-0.138,0.138C31.754,28.859,31.926,28.752,31.854,28.683z M84.255,28.82c0.127,0.255,0.605,0.147,0.552,0
	C84.798,28.801,84.144,28.601,84.255,28.82z M44.679,28.958c0.156,0.158,0.747,0.033,1.103-0.138
	C45.305,28.722,44.641,28.92,44.679,28.958z M56.951,28.958c0.039,0.037,0.342-0.073,0.277-0.138
	C57.189,28.782,56.886,28.894,56.951,28.958z M64.123,28.958c0.037,0.037,0.209-0.065,0.137-0.138
	C64.222,28.782,64.05,28.888,64.123,28.958z M32.957,29.097C33.688,29.245,33.119,28.677,32.957,29.097L32.957,29.097z
	 M43.299,29.097C44.3,29.467,44.224,28.57,43.299,29.097L43.299,29.097z M58.607,28.958c-0.228,0.032-0.064,0.325-0.277,0.552
	C58.791,29.503,58.841,28.926,58.607,28.958z M44.265,29.232c0.069,0.07,0.481-0.067,0.414-0.136
	C44.608,29.025,44.194,29.163,44.265,29.232z M58.744,29.232c-0.014,0.151,0.226,0.155,0.275,0
	C59.074,29.072,58.751,29.142,58.744,29.232z M73.775,29.097c-0.039-0.039-0.209,0.065-0.137,0.136
	C73.675,29.272,73.845,29.168,73.775,29.097z M82.048,29.232c-0.036-0.037-0.209,0.067-0.139,0.14
	C81.949,29.409,82.119,29.306,82.048,29.232z M25.648,29.372c-0.038-0.037-0.341,0.071-0.275,0.138
	C25.411,29.549,25.714,29.437,25.648,29.372z M62.466,29.372c-0.006,0,0.009,0.131,0,0.138c-0.022,0.024-0.248,0.141-0.137,0.276
	C62.47,29.96,62.958,29.346,62.466,29.372z M65.64,29.372c-0.015,0.013,0,0.12,0,0.138C65.64,30.219,66.134,28.877,65.64,29.372z
	 M74.189,29.51c0-0.076-0.14-0.154-0.14,0C74.05,29.587,74.189,29.667,74.189,29.51z M88.253,29.51c0,0.709,0.496-0.633,0-0.138
	C88.242,29.385,88.253,29.492,88.253,29.51z M27.165,29.51c-0.164,0.021-0.195,0.034-0.274,0.139
	C26.751,29.831,28.329,29.37,27.165,29.51z M58.882,29.647c0-0.075-0.139-0.155-0.139,0C58.744,29.724,58.882,29.802,58.882,29.647z
	 M85.082,29.51c-0.037-0.037-0.209,0.067-0.137,0.139C84.982,29.685,85.154,29.581,85.082,29.51z M33.647,29.786
	c-0.039-0.039-0.342,0.072-0.277,0.136C33.409,29.962,33.712,29.851,33.647,29.786z M47.161,29.786
	c-0.039-0.039-0.209,0.066-0.139,0.136C47.061,29.962,47.232,29.858,47.161,29.786z M3.86,30.062
	c0.039,0.037,0.21-0.066,0.138-0.141C3.961,29.885,3.789,29.99,3.86,30.062z M73.5,30.199c0,0.077,0.14,0.157,0.14,0
	C73.638,30.122,73.5,30.042,73.5,30.199z M72.671,30.199c-0.037-0.038-0.209,0.067-0.139,0.138
	C72.572,30.374,72.742,30.271,72.671,30.199z M65.363,30.337c-0.037-0.038-0.34,0.073-0.277,0.139
	C65.126,30.514,65.429,30.401,65.363,30.337z M74.601,30.475c0.039,0.039,0.211-0.066,0.139-0.139
	C74.703,30.299,74.531,30.404,74.601,30.475z M16.822,30.611c0.039,0.04,0.21-0.065,0.139-0.137
	C16.923,30.437,16.752,30.542,16.822,30.611z M32.681,30.611c0.04,0.04,0.21-0.065,0.139-0.137
	C32.781,30.437,32.61,30.542,32.681,30.611z M72.396,30.611c-0.287-0.528-0.205-0.218-0.554,0c-0.041,0.027-0.252-0.037-0.274,0
	C71.117,31.335,72.718,31.21,72.396,30.611z M80.531,30.889c0.039,0.036,0.342-0.073,0.277-0.139
	C80.771,30.714,80.466,30.822,80.531,30.889z M30.062,31.164c0.037,0.039,0.209-0.065,0.138-0.138
	C30.16,30.988,29.99,31.093,30.062,31.164z M30.337,31.302C31.069,31.451,30.5,30.883,30.337,31.302L30.337,31.302z M51.296,31.302
	c0,0.016-0.01,0.132,0,0.139c0.595,0.444,0.519-0.791,0-0.276C51.285,31.176,51.296,31.283,51.296,31.302z M60.398,31.44
	c0.039,0.038,0.211-0.067,0.139-0.139C60.498,31.264,60.328,31.369,60.398,31.44z M29.51,31.578
	C30.241,31.729,29.672,31.16,29.51,31.578L29.51,31.578z M43.161,31.578c0.039,0.037,0.21-0.065,0.138-0.138
	C43.261,31.403,43.091,31.507,43.161,31.578z M77.912,31.44c-0.037-0.037-0.342,0.07-0.274,0.138
	C77.675,31.615,77.978,31.505,77.912,31.44z M95.701,31.578c0.039,0.037,0.209-0.065,0.139-0.138
	C95.8,31.403,95.628,31.507,95.701,31.578z M99.009,31.578c-0.022,0.025-0.247,0.138-0.137,0.275
	C99.136,32.177,99.474,31.113,99.009,31.578z M7.446,31.578c-0.038-0.037-0.209,0.068-0.138,0.138
	C7.347,31.753,7.517,31.649,7.446,31.578z M26.89,31.716c-0.012,0.012-0.238,0.037-0.139,0.139
	C27.092,32.192,27.388,31.219,26.89,31.716z M29.372,31.578c-0.07-0.071-0.482,0.068-0.414,0.138
	C29.028,31.785,29.441,31.647,29.372,31.578z M75.015,31.716c0.039,0.037,0.342-0.07,0.274-0.138
	C75.253,31.541,74.951,31.651,75.015,31.716z M97.355,31.716c-0.154,0.016-0.215-0.199-0.275,0
	C97.082,31.855,97.322,31.889,97.355,31.716z M15.857,31.854c0.038,0.039,0.21-0.066,0.138-0.139
	C15.958,31.677,15.787,31.782,15.857,31.854z M28.131,31.854c0.038,0.039,0.342-0.073,0.275-0.139
	C28.369,31.677,28.065,31.789,28.131,31.854z M28.821,31.716c-0.04-0.038-0.343,0.073-0.277,0.139
	C28.583,31.893,28.885,31.78,28.821,31.716z M27.578,31.991c0.039,0.039,0.343-0.072,0.276-0.138
	C27.817,31.815,27.514,31.927,27.578,31.991z M31.991,31.854c-0.038-0.038-0.209,0.066-0.138,0.138
	C31.893,32.03,32.063,31.927,31.991,31.854z M25.097,31.991c-0.017,0.007,0.016,0.134,0,0.139c-0.722,0.268,0.475,0.336,0.552,0.275
	C25.873,32.229,25.335,31.891,25.097,31.991z M26.063,32.13c0.038,0.038,0.209-0.066,0.138-0.139
	C26.162,31.953,25.991,32.059,26.063,32.13z M27.993,32.13c0.037,0.038,0.34-0.072,0.275-0.139
	C28.23,31.953,27.927,32.065,27.993,32.13z M5.791,32.268c0.029,0.166,0.153,0.084,0.276,0C6.065,32.128,5.826,32.094,5.791,32.268z
	 M35.164,32.13c-0.038-0.037-0.21,0.066-0.139,0.139C35.063,32.306,35.234,32.201,35.164,32.13z M77.912,32.405
	c0.039,0.037,0.209-0.066,0.139-0.138C78.011,32.229,77.839,32.336,77.912,32.405z M82.187,32.405
	C82.744,32.89,82.513,31.962,82.187,32.405L82.187,32.405z M29.096,32.405c-0.037-0.037-0.209,0.066-0.139,0.138
	C28.996,32.582,29.167,32.477,29.096,32.405z M31.44,32.681c0.038,0.038,0.209-0.064,0.139-0.139
	C31.54,32.505,31.369,32.61,31.44,32.681z M42.472,32.543c-0.037-0.038-0.341,0.073-0.275,0.139
	C42.234,32.719,42.537,32.608,42.472,32.543z M31.164,32.681c-0.037-0.038-0.21,0.066-0.138,0.139
	C31.064,32.857,31.235,32.752,31.164,32.681z M91.425,32.819c0,0.709,0.496-0.636,0-0.139C91.414,32.694,91.425,32.8,91.425,32.819z
	 M34.337,32.957c0,0.077,0.139,0.155,0.139,0C34.475,32.88,34.337,32.8,34.337,32.957z M6.343,33.094
	c0.037,0.037,0.211-0.065,0.139-0.138C6.442,32.918,6.272,33.025,6.343,33.094z M14.617,33.094c0.037,0.037,0.341-0.07,0.274-0.138
	C14.854,32.918,14.552,33.03,14.617,33.094z M69.363,33.094c0.037,0.037,0.209-0.065,0.137-0.138
	C69.462,32.918,69.291,33.025,69.363,33.094z M83.841,32.957c-0.039-0.039-0.209,0.068-0.139,0.138
	C83.742,33.132,83.914,33.028,83.841,32.957z M27.717,33.232c-0.036-0.038-0.209,0.066-0.139,0.138
	C27.617,33.409,27.789,33.306,27.717,33.232z M31.44,33.645c0.038,0.041,0.209-0.065,0.139-0.137
	C31.54,33.472,31.369,33.575,31.44,33.645z M85.22,34.06c-0.021-0.256-0.091-0.459-0.275-0.552
	C84.689,33.752,84.98,33.937,85.22,34.06z M40.541,33.784c0,0.077,0.139,0.155,0.139,0C40.679,33.709,40.541,33.629,40.541,33.784z
	 M92.251,33.645c-0.037-0.037-0.34,0.074-0.272,0.14C92.015,33.821,92.318,33.713,92.251,33.645z M33.785,34.06
	c0-0.075-0.138-0.157-0.138,0C33.647,34.138,33.785,34.217,33.785,34.06z M41.231,33.924c-0.039-0.04-0.209,0.065-0.139,0.137
	C41.131,34.099,41.303,33.995,41.231,33.924z M57.779,34.06c0.039,0.039,0.209-0.064,0.139-0.137
	C57.878,33.884,57.707,33.989,57.779,34.06z M33.37,34.198c0-0.076-0.137-0.157-0.137,0C33.233,34.273,33.37,34.355,33.37,34.198z
	 M41.782,34.336c-0.038-0.039-0.208,0.068-0.138,0.139C41.683,34.512,41.854,34.407,41.782,34.336z M86.187,34.474
	c0-0.075-0.14-0.155-0.14,0C86.048,34.551,86.187,34.629,86.187,34.474z M78.187,34.613c0.039,0.037,0.209-0.068,0.139-0.14
	C78.287,34.437,78.115,34.54,78.187,34.613z M24.821,34.888c0.014,0.013,0.4,0.013,0.413,0
	C25.614,34.508,24.474,34.54,24.821,34.888z M42.334,34.749c0.038,0.039,0.209-0.063,0.139-0.136
	C42.434,34.574,42.264,34.679,42.334,34.749z M52.263,34.749c0.036,0.039,0.209-0.063,0.139-0.136
	C52.363,34.574,52.191,34.679,52.263,34.749z M64.123,34.749c0.154-0.013,0.215,0.202,0.275,0
	C64.396,34.611,64.156,34.575,64.123,34.749z M86.599,35.025c0.149,0.198,0.627-0.5,0.139-0.412c-0.01,0,0.008,0.127,0,0.136
	C86.722,34.765,86.607,35.034,86.599,35.025z M96.666,34.749C97.396,34.898,96.828,34.331,96.666,34.749L96.666,34.749z
	 M83.152,35.163c0.656,0.164,0.436-0.431,0-0.414C82.623,34.771,83.103,35.152,83.152,35.163z M5.93,35.025
	c0,0.077,0.138,0.157,0.138,0C6.067,34.949,5.93,34.868,5.93,35.025z M85.91,35.025c0.037,0.038,0.209-0.067,0.139-0.138
	C86.009,34.851,85.837,34.954,85.91,35.025z M35.854,35.025c-0.038-0.039-0.21,0.067-0.14,0.138
	C35.753,35.201,35.924,35.098,35.854,35.025z M39.025,35.163c0.037,0.038,0.209-0.064,0.138-0.138
	C39.124,34.986,38.953,35.094,39.025,35.163z M10.618,35.302c-0.076,0.075-0.005,0.28,0.138,0.137
	C10.832,35.363,10.761,35.158,10.618,35.302z M83.152,35.438c0.16,0.054,0.094-0.268,0-0.275C83,35.15,82.998,35.389,83.152,35.438z
	 M29.233,35.302c-0.037-0.038-0.209,0.066-0.138,0.137C29.134,35.478,29.306,35.372,29.233,35.302z M35.577,35.438
	c0,0.077,0.138,0.156,0.138,0C35.715,35.363,35.577,35.281,35.577,35.438z M40.266,35.578c0.037,0.037,0.209-0.068,0.139-0.14
	C40.364,35.4,40.195,35.506,40.266,35.578z M87.564,35.438c-0.037-0.038-0.209,0.066-0.138,0.14
	C87.464,35.615,87.636,35.51,87.564,35.438z M37.095,35.715c-0.039-0.037-0.211,0.066-0.14,0.139
	C36.994,35.891,37.165,35.787,37.095,35.715z M91.011,35.853c-0.037-0.037-0.21,0.065-0.14,0.138
	C90.914,36.029,91.083,35.924,91.011,35.853z M29.096,36.128c0.024,0.026,0.236,0.004,0.275,0
	C30.256,36.08,28.899,35.934,29.096,36.128z M12.962,36.268c-0.019,0.02-0.229,0.021-0.139,0.137
	C13.021,36.649,13.521,35.708,12.962,36.268z M30.199,36.268C29.541,35.883,29.866,36.719,30.199,36.268L30.199,36.268z
	 M34.612,36.268C35.711,36.703,35.543,35.785,34.612,36.268L34.612,36.268z M85.22,36.268c0.024-0.072,0.229,0.438,0.274,0.412
	C85.9,36.358,85.355,35.892,85.22,36.268z M87.703,36.542c0.104-0.003,0.246-0.797-0.139-0.414c-0.021,0.021,0.012,0.112,0,0.141
	C87.525,36.358,87.625,36.546,87.703,36.542z M14.754,36.542c-0.415,0.7,0.991,0.592,0.69,0
	C15.381,36.417,14.947,36.219,14.754,36.542z M27.027,36.404c-0.037-0.037-0.209,0.065-0.138,0.138
	C26.928,36.58,27.099,36.477,27.027,36.404z M53.781,36.542c0.029,0.166,0.152,0.086,0.273,0
	C54.052,36.403,53.812,36.369,53.781,36.542z M9.79,36.68c-0.063-0.176-0.337-0.075-0.414,0C9.021,37.037,9.906,37.003,9.79,36.68z
	 M39.163,36.68c0.038,0.038,0.209-0.066,0.137-0.139C39.263,36.505,39.091,36.608,39.163,36.68z M40.817,36.542
	c-0.013,0.014,0,0.118,0,0.139C40.817,37.389,41.313,36.046,40.817,36.542z M98.458,36.819c0.076-0.079,0.004-0.282-0.139-0.14
	C98.244,36.757,98.316,36.96,98.458,36.819z M36.405,36.819c0-0.079-0.139-0.157-0.139,0C36.267,36.895,36.405,36.975,36.405,36.819
	z M37.508,36.68c-0.037-0.037-0.341,0.072-0.275,0.14C37.27,36.856,37.573,36.746,37.508,36.68z M75.982,36.957
	c0,0.14,0.24,0.173,0.274,0C76.103,36.971,76.042,36.757,75.982,36.957z M11.307,37.094c0.039,0.037,0.342-0.072,0.275-0.138
	C11.546,36.917,11.242,37.028,11.307,37.094z M72.257,37.369c0.144,0.175,0.632-0.438,0.14-0.412c-0.008,0,0.008,0.128,0,0.138
	C72.373,37.117,72.146,37.231,72.257,37.369z M37.095,37.231c-0.441-0.093-1.073-0.294-1.241,0c0.538-0.114,1.663,0.403,1.792,0.274
	C37.985,37.168,37.374,37.291,37.095,37.231z M2.068,37.507c0.038,0.039,0.209-0.065,0.138-0.138
	C2.168,37.332,1.997,37.438,2.068,37.507z M8.273,37.507c0.038,0.039,0.209-0.065,0.138-0.138
	C8.373,37.332,8.202,37.438,8.273,37.507z M39.989,37.507c0,0.077,0.139,0.157,0.139,0C40.128,37.43,39.989,37.352,39.989,37.507z
	 M57.64,37.507c-0.287,0.289,0.377,0.303,0.276,0C57.869,37.362,57.669,37.479,57.64,37.507z M94.597,37.646
	c0.594,0.443,0.518-0.793,0-0.277c-0.013,0.013,0,0.12,0,0.138C94.597,37.523,94.587,37.639,94.597,37.646z M1.93,37.507
	c-0.037-0.037-0.209,0.068-0.14,0.141C1.831,37.684,2.002,37.578,1.93,37.507z M40.955,37.646c0.037,0.037,0.341-0.075,0.276-0.141
	C41.192,37.469,40.89,37.582,40.955,37.646z M85.91,37.507c-0.037-0.037-0.209,0.068-0.139,0.141
	C85.81,37.684,85.982,37.578,85.91,37.507z M88.392,37.646c0,0.075,0.137,0.156,0.137,0C88.529,37.569,88.392,37.489,88.392,37.646z
	 M35.439,37.784c0.037,0.037,0.341-0.073,0.274-0.138C35.678,37.606,35.374,37.718,35.439,37.784z M36.129,37.646v0.138
	c-0.084,0.003-0.301,0.028-0.274,0.137C35.937,38.291,36.632,37.668,36.129,37.646z M53.365,37.784c0.004,0.139,0.242,0.173,0.277,0
	C53.488,37.798,53.427,37.584,53.365,37.784z M7.722,37.921c-0.023,0.014-0.367,0.047-0.275,0.139
	C7.659,38.271,8.384,37.591,7.722,37.921z M23.994,37.784c-0.013,0.012,0,0.117,0,0.137C23.994,38.631,24.49,37.287,23.994,37.784z
	 M34.06,37.784c-0.038-0.04-0.209,0.065-0.138,0.137C33.961,37.959,34.132,37.855,34.06,37.784z M29.923,38.059
	c0-0.076-0.138-0.157-0.138,0C29.785,38.138,29.923,38.216,29.923,38.059z M36.543,38.059c0,0.079,0.139,0.156,0.139,0
	C36.681,37.982,36.543,37.901,36.543,38.059z M0.138,38.196c0.028,0.166,0.152,0.086,0.275,0
	C0.411,38.057,0.172,38.023,0.138,38.196z M38.887,38.059c-0.038-0.037-0.209,0.065-0.139,0.138
	C38.786,38.235,38.958,38.13,38.887,38.059z M39.989,38.196c0,0.077,0.139,0.157,0.139,0C40.128,38.119,39.989,38.039,39.989,38.196
	z M77.085,38.059c-0.039-0.037-0.211,0.065-0.139,0.138C76.984,38.235,77.156,38.13,77.085,38.059z M17.65,38.196
	c-0.038-0.037-0.209,0.066-0.139,0.14C17.551,38.373,17.722,38.268,17.65,38.196z M83.427,38.474
	c-0.01,0.073,0.229,0.32,0.275,0.273C83.863,38.591,83.476,38.1,83.427,38.474z M24.821,38.61c0.037,0.038,0.341-0.071,0.275-0.137
	C25.059,38.434,24.756,38.547,24.821,38.61z M58.744,38.61c0.037,0.038,0.211-0.065,0.139-0.137
	C58.843,38.434,58.671,38.539,58.744,38.61z M76.257,38.61c0,0.075,0.14,0.156,0.14,0C76.396,38.534,76.257,38.454,76.257,38.61z
	 M87.978,38.61c0.039,0.038,0.209-0.065,0.137-0.137C88.078,38.434,87.906,38.539,87.978,38.61z M7.031,38.748
	c0.04,0.04,0.211-0.064,0.139-0.138C7.132,38.573,6.962,38.677,7.031,38.748z M22.477,38.748c0.153-0.014,0.215,0.202,0.275,0
	C22.751,38.61,22.511,38.575,22.477,38.748z M1.93,38.885c0.037,0.039,0.21-0.065,0.139-0.138C2.03,38.711,1.859,38.814,1.93,38.885
	z M17.512,38.885c0,0.079,0.139,0.157,0.139,0C17.65,38.81,17.512,38.729,17.512,38.885z M81.634,38.885
	c0-0.013,0.343,0.209,0.414,0.141C82.308,38.767,81.621,38.621,81.634,38.885z M38.887,39.025c0.037,0.037,0.209-0.068,0.139-0.141
	C38.986,38.849,38.816,38.952,38.887,39.025z M74.328,40.127c0.545-0.137,0.568-1.452-0.277-1.102
	C73.283,39.342,73.81,40.26,74.328,40.127z M86.187,39.025c0.037,0.037,0.338-0.073,0.272-0.141
	C86.423,38.849,86.121,38.959,86.187,39.025z M72.81,39.715c0.178-0.313-0.189-1.054-0.689-0.552
	C71.535,39.747,72.589,40.099,72.81,39.715z M84.806,39.025c-0.037-0.038-0.209,0.065-0.138,0.138
	C84.707,39.2,84.878,39.094,84.806,39.025z M3.309,39.163c-0.037-0.04-0.209,0.065-0.139,0.138
	C3.21,39.338,3.38,39.234,3.309,39.163z M28.683,39.301c0.153-0.015,0.214,0.199,0.274,0C28.956,39.161,28.716,39.127,28.683,39.301
	z M39.576,39.438c0.037,0.04,0.209-0.065,0.139-0.138C39.675,39.263,39.506,39.366,39.576,39.438z M58.468,39.438
	c-0.008,0.034-0.021,0.256,0,0.276C58.949,40.195,58.613,38.716,58.468,39.438z M3.998,39.438c-0.286-0.285-0.657,0.047-0.688,0.138
	C3.221,39.827,4.177,39.616,3.998,39.438z M19.029,39.575c0,0.079,0.139,0.157,0.139,0C19.168,39.499,19.029,39.418,19.029,39.575z
	 M76.396,39.575c0,0.079,0.137,0.157,0.137,0C76.533,39.499,76.396,39.418,76.396,39.575z M99.562,39.575c0-0.044,0-0.091,0-0.138
	C99.406,39.465,99.484,39.575,99.562,39.575z M9.101,39.715c-0.038,0.025-0.437,0.254-0.275,0.412
	C9.01,40.313,9.473,39.467,9.101,39.715z M16.685,39.853c0.038,0.037,0.21-0.068,0.138-0.139
	C16.784,39.677,16.614,39.779,16.685,39.853z M23.305,39.853c0.152-0.016,0.214,0.199,0.274,0
	C23.578,39.713,23.339,39.677,23.305,39.853z M28.958,39.853c0.155-0.016,0.216,0.199,0.275,0
	C29.232,39.713,28.992,39.677,28.958,39.853z M98.183,39.853C97.718,39.435,97.765,40.361,98.183,39.853L98.183,39.853z
	 M99.562,40.127c0-0.091,0-0.184,0-0.273C99.179,39.683,99.179,40.297,99.562,40.127z M33.233,40.127
	c0.038,0.04,0.209-0.066,0.137-0.137C33.332,39.952,33.161,40.056,33.233,40.127z M33.647,40.127
	c0.037,0.04,0.209-0.066,0.138-0.137C33.746,39.952,33.575,40.056,33.647,40.127z M98.597,40.265
	C98.132,39.847,98.177,40.775,98.597,40.265L98.597,40.265z M23.718,40.404c0,0.075,0.139,0.157,0.139,0
	C23.855,40.327,23.718,40.247,23.718,40.404z M93.08,40.404c-0.154,0.013-0.213-0.2-0.274,0
	C92.806,40.544,93.046,40.577,93.08,40.404z M54.47,40.542c0.036,0.037,0.209-0.067,0.137-0.138
	C54.568,40.367,54.398,40.469,54.47,40.542z M78.05,40.404c-0.112-0.114-0.396,0.093-0.413,0.138
	C77.433,41.031,78.349,40.702,78.05,40.404z M90.599,40.542c0.037,0.037,0.209-0.067,0.137-0.138
	C90.699,40.367,90.527,40.469,90.599,40.542z M29.923,40.542c-0.036-0.038-0.34,0.073-0.274,0.139
	C29.686,40.717,29.989,40.606,29.923,40.542z M36.956,40.542c-0.038-0.038-0.341,0.073-0.274,0.139
	C36.719,40.717,37.021,40.606,36.956,40.542z M92.529,40.542c-0.037-0.038-0.209,0.066-0.139,0.139
	C92.429,40.717,92.599,40.613,92.529,40.542z M36.267,40.68c-0.038-0.038-0.209,0.064-0.139,0.138
	C36.167,40.856,36.339,40.749,36.267,40.68z M80.808,40.68c-0.037-0.038-0.343,0.07-0.277,0.138
	C80.57,40.856,80.873,40.744,80.808,40.68z M30.751,40.954c0.038,0.038,0.209-0.064,0.14-0.137
	C30.85,40.779,30.68,40.883,30.751,40.954z M64.123,40.954c0.037,0.038,0.209-0.064,0.137-0.137
	C64.222,40.779,64.05,40.883,64.123,40.954z M31.717,41.094c0.037,0.037,0.209-0.065,0.138-0.14
	C31.816,40.917,31.644,41.022,31.717,41.094z M75.982,41.094c0.037,0.037,0.209-0.065,0.137-0.14
	C76.082,40.917,75.91,41.022,75.982,41.094z M35.439,41.369c0-0.015,0.343,0.209,0.414,0.138
	C36.111,41.247,35.425,41.103,35.439,41.369z M17.512,41.507c0.038,0.039,0.21-0.065,0.139-0.138
	C17.612,41.331,17.441,41.435,17.512,41.507z M31.44,41.507c0.038,0.039,0.209-0.065,0.139-0.138
	C31.54,41.331,31.369,41.435,31.44,41.507z M85.082,41.507c0-0.006,0.408,0.282,0.414,0.276
	C85.722,41.557,85.072,41.192,85.082,41.507z M89.632,41.369c-0.012,0.013,0,0.117,0,0.138
	C89.632,42.216,90.128,40.872,89.632,41.369z M99.009,41.507c0.039,0.039,0.209-0.065,0.14-0.138
	C99.111,41.331,98.939,41.435,99.009,41.507z M11.583,41.644c0.038,0.04,0.209-0.065,0.139-0.138
	C11.683,41.469,11.512,41.572,11.583,41.644z M31.44,41.783c0.038,0.038,0.209-0.066,0.139-0.14
	C31.54,41.606,31.369,41.712,31.44,41.783z M48.953,41.921c0.038,0.037,0.209-0.067,0.138-0.138
	C49.054,41.744,48.882,41.848,48.953,41.921z M94.322,41.921c-0.039-0.039-0.209,0.066-0.139,0.139
	C94.222,42.096,94.394,41.992,94.322,41.921z M96.529,42.196c0.258-0.258-0.43-0.404-0.414-0.138
	C96.113,42.044,96.457,42.268,96.529,42.196z M98.044,42.059c0.039,0.037,0.209-0.066,0.14-0.139
	C98.144,41.882,97.972,41.987,98.044,42.059z M98.736,42.059c0,0,0.43,0.257,0.551,0.138C99.611,41.873,98.726,41.826,98.736,42.059
	z M46.333,42.196c-0.02,0.137,0.211,0.479,0.414,0.276C46.902,42.317,46.392,41.785,46.333,42.196z M54.47,42.196
	c0.036,0.039,0.209-0.066,0.137-0.138C54.568,42.021,54.398,42.124,54.47,42.196z M0.551,42.333c0.038,0.04,0.209-0.064,0.14-0.137
	C0.651,42.158,0.479,42.262,0.551,42.333z M48.953,42.333c0.038,0.04,0.209-0.064,0.138-0.137
	C49.054,42.158,48.882,42.262,48.953,42.333z M68.671,42.333c0.039,0.04,0.343-0.07,0.277-0.137
	C68.91,42.158,68.607,42.268,68.671,42.333z M89.494,42.333c0.039,0.04,0.342-0.07,0.277-0.137
	C89.734,42.158,89.429,42.268,89.494,42.333z M34.888,42.333c-0.039-0.037-0.209,0.068-0.14,0.141
	C34.788,42.51,34.959,42.405,34.888,42.333z M62.191,42.473c0.039,0.037,0.209-0.067,0.139-0.141
	C62.291,42.296,62.119,42.401,62.191,42.473z M63.019,42.473c0.037,0.037,0.209-0.067,0.137-0.141
	C63.119,42.296,62.947,42.401,63.019,42.473z M8.964,42.748c0.037,0.037,0.209-0.065,0.138-0.138
	C9.063,42.571,8.892,42.677,8.964,42.748z M41.368,42.61C41.353,43.895,41.849,43.044,41.368,42.61L41.368,42.61z M90.873,42.748
	c0-0.077-0.137-0.157-0.137,0C90.736,42.825,90.873,42.903,90.873,42.748z M5.103,42.748c-0.039-0.038-0.342,0.073-0.276,0.138
	C4.864,42.923,5.167,42.813,5.103,42.748z M33.37,42.885c-0.038-0.037-0.209,0.065-0.137,0.139
	C33.271,43.063,33.442,42.957,33.37,42.885z M41.094,42.885c-0.039-0.037-0.21,0.065-0.14,0.139
	C40.993,43.063,41.164,42.957,41.094,42.885z M5.516,43.162c0.005,0.004,0,0.138,0,0.138c-0.1,0.023-0.217,0.073-0.276,0.139
	C4.55,44.179,6.184,43.748,5.516,43.162z M27.578,43.3c0.155-0.015,0.216,0.2,0.276,0C27.854,43.16,27.613,43.127,27.578,43.3z
	 M17.374,43.438c0,0.709,0.497-0.634,0-0.139C17.362,43.311,17.374,43.418,17.374,43.438z M70.603,43.575
	c-0.033,0.086,0.209,0.296,0.274,0.276C71.242,43.739,70.791,43.076,70.603,43.575z M35.715,43.713
	c0.038,0.039,0.209-0.065,0.14-0.138C35.815,43.537,35.644,43.641,35.715,43.713z M93.494,43.713
	c0.039,0.039,0.211-0.065,0.139-0.138C93.593,43.537,93.423,43.641,93.494,43.713z M36.129,43.713
	c-0.039-0.038-0.209,0.065-0.138,0.14C36.029,43.89,36.2,43.784,36.129,43.713z M36.267,43.989c0.038,0.038,0.209-0.067,0.139-0.138
	C36.366,43.813,36.195,43.918,36.267,43.989z M93.357,44.265c0,0.075,0.137,0.156,0.137,0
	C93.494,44.188,93.357,44.109,93.357,44.265z M51.16,44.265c-0.037-0.038-0.209,0.064-0.139,0.138
	C51.06,44.439,51.23,44.336,51.16,44.265z M69.085,44.677c0.039,0.04,0.209-0.064,0.14-0.136
	C69.185,44.502,69.015,44.607,69.085,44.677z M97.355,44.677c-0.314,0.314,0.246,0.584,0.414,0.415
	C97.937,44.924,97.667,44.364,97.355,44.677z M32.406,44.677c-0.039-0.036-0.21,0.068-0.139,0.141
	C32.306,44.854,32.477,44.75,32.406,44.677z M40.817,44.816c0-0.077-0.139-0.157-0.139,0C40.679,44.894,40.817,44.972,40.817,44.816
	z M55.16,44.816c0.037,0.037,0.209-0.066,0.137-0.141C55.257,44.64,55.087,44.745,55.16,44.816z M60.812,44.677
	c-0.037-0.036-0.209,0.068-0.138,0.141C60.712,44.854,60.884,44.75,60.812,44.677z M9.515,44.954
	c0.038,0.039,0.209-0.065,0.139-0.138C9.614,44.779,9.443,44.883,9.515,44.954z M92.667,44.954c0.002,0.14,0.242,0.175,0.273,0
	C92.789,44.969,92.728,44.754,92.667,44.954z M32.544,45.23c-0.02,0.019-0.229,0.022-0.138,0.136
	C32.603,45.613,33.101,44.67,32.544,45.23z M74.464,45.23c-0.18,0.179,0.146,0.405,0.275,0.274
	C74.873,45.374,74.644,45.049,74.464,45.23z M95.148,45.092c-0.037-0.037-0.209,0.067-0.137,0.14
	C95.048,45.269,95.22,45.163,95.148,45.092z M1.24,45.23c-0.01,0,0.009,0.127,0,0.136c-0.014,0.019-0.131,0.286-0.137,0.277
	C1.254,45.844,1.73,45.144,1.24,45.23z M21.787,45.366c0-0.074-0.138-0.155-0.138,0C21.649,45.445,21.787,45.523,21.787,45.366z
	 M31.717,45.366c-0.075,0.079-0.006,0.282,0.138,0.14C31.93,45.431,31.859,45.226,31.717,45.366z M51.296,45.23
	c-0.037-0.039-0.209,0.063-0.137,0.136C51.199,45.406,51.369,45.301,51.296,45.23z M91.15,45.506
	c0.037,0.038,0.209-0.065,0.139-0.14C91.25,45.329,91.078,45.435,91.15,45.506z M16.822,45.506
	c-0.038-0.037-0.208,0.066-0.138,0.139C16.723,45.683,16.895,45.575,16.822,45.506z M11.583,45.781
	c0.038,0.037,0.209-0.066,0.139-0.138C11.683,45.606,11.512,45.71,11.583,45.781z M78.601,45.781c-0.154,0.016-0.215-0.2-0.275,0
	C78.328,45.92,78.568,45.954,78.601,45.781z M1.24,45.92c0.038,0.038,0.209-0.066,0.139-0.139C1.341,45.743,1.169,45.849,1.24,45.92
	z M5.653,45.92c0.038,0.038,0.21-0.066,0.138-0.139C5.753,45.743,5.583,45.849,5.653,45.92z M39.3,45.92
	c-0.021,0.021-0.294,0.258-0.137,0.413C39.541,46.712,39.71,45.512,39.3,45.92z M65.363,46.056c-0.047-0.108-0.365-0.164-0.414,0
	C64.857,46.378,65.488,46.356,65.363,46.056z M44.402,46.195c0.029,0.166,0.153,0.086,0.276,0
	C44.677,46.056,44.437,46.022,44.402,46.195z M72.671,46.195c0.002,0.14,0.242,0.174,0.277,0
	C72.792,46.21,72.734,45.995,72.671,46.195z M91.011,46.195c0.038,0.038,0.209-0.066,0.139-0.14
	C91.113,46.019,90.941,46.124,91.011,46.195z M92.115,46.056c-0.34-0.176-0.721-0.056-0.689,0.14
	c-0.012-0.075,0.617,0.14,0.554,0.138C92.007,46.335,92.236,46.12,92.115,46.056z M49.505,46.333c-0.049-0.145-0.247-0.03-0.274,0
	C48.94,46.62,49.605,46.637,49.505,46.333z M73.775,46.471c0,0.076,0.137,0.154,0.137,0C73.912,46.394,73.775,46.313,73.775,46.471z
	 M94.873,46.747c0.099-0.084-0.037-0.653-0.414-0.275C94.269,46.66,94.75,46.854,94.873,46.747z M4.137,46.471
	c-0.038-0.039-0.211,0.066-0.14,0.14C4.037,46.647,4.208,46.542,4.137,46.471z M77.085,46.61c0.037,0.037,0.34-0.073,0.275-0.141
	C77.322,46.432,77.019,46.544,77.085,46.61z M11.307,46.747c0.039,0.038,0.209-0.066,0.138-0.137
	C11.407,46.572,11.236,46.674,11.307,46.747z M99.562,46.747c0-0.046,0-0.093,0-0.137C99.406,46.637,99.484,46.747,99.562,46.747z
	 M8.825,46.885c0.038,0.038,0.209-0.064,0.139-0.138C8.925,46.708,8.754,46.813,8.825,46.885z M72.396,47.437
	c0.021-0.022-0.179-1.107-0.275-0.553C71.996,47.589,72.347,47.487,72.396,47.437z M18.202,47.022c0,0.077,0.138,0.157,0.138,0
	C18.34,46.945,18.202,46.867,18.202,47.022z M55.572,47.16c0.039,0.039,0.209-0.066,0.139-0.138
	C55.673,46.985,55.501,47.089,55.572,47.16z M94.736,47.16c0.037,0.039,0.34-0.071,0.275-0.138
	C94.972,46.985,94.669,47.096,94.736,47.16z M80.119,47.3c0.037,0.037,0.209-0.067,0.137-0.14
	C80.218,47.121,80.046,47.228,80.119,47.3z M12.272,47.437c0.038,0.038,0.209-0.067,0.138-0.138
	C12.372,47.26,12.201,47.363,12.272,47.437z M21.926,47.437c0.037,0.038,0.209-0.067,0.139-0.138
	C22.024,47.26,21.854,47.363,21.926,47.437z M31.302,47.437c-0.075,0.077-0.003,0.28,0.14,0.138
	C31.518,47.498,31.445,47.294,31.302,47.437z M40.679,47.437c0-0.078-0.139-0.157-0.139,0
	C40.541,47.514,40.679,47.593,40.679,47.437z M94.322,47.437c0.01-0.084,0.305,0.288,0.275,0.274
	C95.685,48.147,94.416,46.695,94.322,47.437z M55.572,47.574c0.039,0.038,0.209-0.065,0.139-0.138
	C55.673,47.397,55.501,47.503,55.572,47.574z M18.753,47.712c0.039,0.039,0.21-0.065,0.14-0.138
	C18.854,47.537,18.682,47.641,18.753,47.712z M72.121,47.989c0.037,0.037,0.34-0.075,0.275-0.14
	C72.357,47.811,72.054,47.923,72.121,47.989z M81.91,47.989c-0.076,0.074-0.004,0.28,0.139,0.137
	C82.125,48.05,82.054,47.846,81.91,47.989z M55.986,48.126c0.037,0.038,0.211-0.066,0.139-0.137
	C56.085,47.949,55.914,48.052,55.986,48.126z M74.601,48.126c0.039,0.038,0.211-0.066,0.139-0.137
	C74.703,47.949,74.531,48.052,74.601,48.126z M16.822,48.264c0.039,0.037,0.342-0.073,0.276-0.139
	C17.062,48.089,16.758,48.199,16.822,48.264z M60.537,48.264c0.037,0.037,0.209-0.065,0.139-0.139
	C60.636,48.089,60.464,48.192,60.537,48.264z M56.951,48.401c0.039,0.038,0.209-0.067,0.139-0.138
	C57.05,48.227,56.88,48.33,56.951,48.401z M69.363,48.401c0,0.077,0.137,0.157,0.137,0C69.5,48.325,69.363,48.244,69.363,48.401z
	 M91.011,48.677c0.069-0.067-0.275-0.834-0.275-0.274C90.736,48.468,90.958,48.73,91.011,48.677z M96.39,48.401
	C97.156,48.834,96.837,47.977,96.39,48.401L96.39,48.401z M16.961,48.539c-0.222,0.225,0.026,0.525,0.275,0.277
	C17.421,48.632,17.069,48.43,16.961,48.539z M82.738,48.539c0.039,0.039,0.209-0.065,0.139-0.138
	C82.839,48.364,82.666,48.468,82.738,48.539z M91.839,48.401c-0.039-0.037-0.342,0.071-0.276,0.138
	C91.603,48.578,91.904,48.466,91.839,48.401z M29.647,48.539c-0.013,0.013,0,0.12,0,0.138
	C29.647,49.385,30.144,48.043,29.647,48.539z M95.425,48.677c-0.063-0.156-0.428,0.016-0.413,0
	C94.699,48.991,95.564,49.025,95.425,48.677z M66.88,48.953c0.037,0.038,0.209-0.064,0.138-0.137
	C66.98,48.776,66.808,48.882,66.88,48.953z M84.117,48.953c0-0.014,0.342,0.209,0.414,0.138
	C84.789,48.832,84.103,48.688,84.117,48.953z M99.562,48.953c0-0.046,0-0.093,0-0.137C99.406,48.841,99.484,48.953,99.562,48.953z
	 M34.198,49.091c-0.008,0.082,0.109,0.443,0.276,0.277C34.58,49.26,34.234,48.7,34.198,49.091z M82.738,49.229
	c0,0.077,0.139,0.156,0.139,0C82.876,49.151,82.738,49.071,82.738,49.229z M35.439,49.368c0.038,0.037,0.21-0.068,0.138-0.14
	C35.539,49.191,35.368,49.295,35.439,49.368z M50.194,49.368c0.039,0.037,0.209-0.068,0.138-0.14
	C50.294,49.191,50.122,49.295,50.194,49.368z M7.031,49.643c0.04,0.038,0.211-0.065,0.139-0.138
	C7.132,49.466,6.962,49.571,7.031,49.643z M1.517,49.78c0.038,0.04,0.21-0.065,0.138-0.138C1.615,49.605,1.445,49.709,1.517,49.78z
	 M60.675,49.643c-0.008,0,0.007,0.131,0,0.138c-0.022,0.023-0.25,0.14-0.139,0.277C60.679,50.229,61.167,49.616,60.675,49.643z
	 M83.703,49.918c-0.002-0.039-0.469-0.222-0.412,0C83.326,50.068,83.714,50.114,83.703,49.918z M16.822,50.193
	C16.428,50.99,17.484,50.624,16.822,50.193L16.822,50.193z M56.675,50.333c0.002,0.14,0.242,0.173,0.275,0
	C56.796,50.344,56.738,50.133,56.675,50.333z M0.551,50.607c0,0.077,0.14,0.157,0.14,0C0.689,50.531,0.551,50.45,0.551,50.607z
	 M86.187,50.607c-0.445,0.44,0.424,0.683,0.551,0.415C86.921,50.629,86.328,50.467,86.187,50.607z M0.275,50.747
	c0.038,0.037,0.209-0.067,0.139-0.14C0.375,50.57,0.204,50.674,0.275,50.747z M23.58,50.747c0.038,0.037,0.21-0.067,0.138-0.14
	C23.68,50.57,23.509,50.674,23.58,50.747z M39.989,51.159C39.666,50.127,39.122,50.941,39.989,51.159L39.989,51.159z M87.15,50.747
	c-0.033,0.168,0.211,0.614,0.414,0.412C87.802,50.924,87.205,50.482,87.15,50.747z M95.148,51.022
	C95.613,51.441,95.568,50.51,95.148,51.022L95.148,51.022z M17.512,51.159c0.038,0.038,0.21-0.067,0.139-0.137
	C17.612,50.984,17.441,51.088,17.512,51.159z M45.092,51.159c0.038,0.038,0.209-0.067,0.139-0.137
	C45.191,50.984,45.021,51.088,45.092,51.159z M84.392,51.159c0.037,0.038,0.342-0.073,0.276-0.137
	C84.63,50.984,84.328,51.096,84.392,51.159z M40.541,51.437c0.039,0.037,0.342-0.073,0.276-0.141
	C40.779,51.26,40.477,51.37,40.541,51.437z M72.81,51.572c0,0.078,0.139,0.157,0.139,0C72.949,51.497,72.81,51.417,72.81,51.572z
	 M79.152,51.572c-0.012,0.013,0,0.12,0,0.14C79.152,52.421,79.65,51.077,79.152,51.572z M33.37,51.849
	c0.04,0.04,0.21-0.067,0.139-0.138C33.471,51.674,33.3,51.777,33.37,51.849z M18.063,52.126c0.039,0.037,0.211-0.067,0.139-0.14
	C18.164,51.947,17.993,52.052,18.063,52.126z M49.229,52.126c0.037,0.037,0.209-0.067,0.139-0.14
	C49.328,51.947,49.158,52.052,49.229,52.126z M59.71,52.126c-0.02,0.017-0.271,0.48,0,0.413
	C59.763,52.524,60.009,51.824,59.71,52.126z M70.742,52.126c-0.156,0.014-0.215-0.202-0.275,0
	C70.466,52.264,70.708,52.298,70.742,52.126z M11.996,52.264c0.039,0.036,0.21-0.068,0.138-0.139
	C12.097,52.089,11.925,52.19,11.996,52.264z M58.193,52.126c-0.014,0.012,0,0.118,0,0.139C58.193,52.971,58.689,51.63,58.193,52.126
	z M60.261,52.264c0.036,0.036,0.34-0.073,0.274-0.139C60.498,52.089,60.195,52.197,60.261,52.264z M75.568,52.264
	c0.037,0.036,0.209-0.068,0.139-0.139C75.667,52.089,75.496,52.19,75.568,52.264z M2.619,52.401c0.038,0.037,0.21-0.066,0.139-0.138
	C2.72,52.225,2.548,52.33,2.619,52.401z M16.134,52.264c-0.009,0.002,0.01,0.127,0,0.138c-0.015,0.016-0.131,0.285-0.139,0.273
	C16.146,52.874,16.624,52.176,16.134,52.264z M27.578,52.401c0.039,0.037,0.211-0.066,0.139-0.138
	C27.68,52.225,27.508,52.33,27.578,52.401z M31.717,52.676c0.037,0.038,0.209-0.064,0.138-0.137
	C31.816,52.501,31.644,52.604,31.717,52.676z M85.771,52.815c0.039,0.037,0.342-0.073,0.276-0.141
	C86.009,52.637,85.707,52.749,85.771,52.815z M33.37,52.951c-0.02,0.146,0.107,0.357,0.139,0.14
	C33.529,52.946,33.402,52.735,33.37,52.951z M70.603,52.951c0.039,0.039,0.34-0.071,0.274-0.136
	C70.839,52.776,70.539,52.887,70.603,52.951z M72.671,53.091c0,0.076,0.14,0.155,0.14,0C72.81,53.014,72.671,52.934,72.671,53.091z
	 M48.814,53.229c0,0.076,0.139,0.156,0.139,0C48.953,53.151,48.814,53.072,48.814,53.229z M51.435,53.365
	c0.039,0.038,0.209-0.065,0.139-0.137C51.535,53.19,51.365,53.294,51.435,53.365z M70.189,53.229
	c-0.037-0.038-0.209,0.064-0.138,0.137C70.089,53.403,70.261,53.3,70.189,53.229z M90.873,53.365c0.002,0.14,0.242,0.174,0.277,0
	C90.996,53.38,90.935,53.166,90.873,53.365z M1.104,53.365c-0.039-0.037-0.21,0.068-0.14,0.14
	C1.003,53.543,1.174,53.438,1.104,53.365z M32.13,53.505c0.038,0.038,0.209-0.066,0.139-0.14
	C32.229,53.328,32.059,53.434,32.13,53.505z M34.198,53.505c0.038,0.038,0.209-0.066,0.139-0.14
	C34.298,53.328,34.127,53.434,34.198,53.505z M17.512,53.78c-0.037-0.038-0.208,0.066-0.139,0.138
	C17.412,53.955,17.585,53.85,17.512,53.78z M88.253,54.192c0.039,0.04,0.209-0.065,0.14-0.137
	C88.355,54.018,88.183,54.123,88.253,54.192z M9.238,54.33c0.038,0.039,0.21-0.064,0.138-0.138
	C9.339,54.155,9.167,54.259,9.238,54.33z M12.823,54.33c0.04,0.039,0.209-0.064,0.139-0.138
	C12.925,54.155,12.753,54.259,12.823,54.33z M30.062,54.469c-0.04-0.063,0.004-0.179-0.14-0.14c0.232,0.252,0.119,1.088,0.14,1.104
	c0.208,0.177,0.547-0.281,0.551-0.413C30.613,55.006,30.166,54.635,30.062,54.469z M76.533,54.469
	c0.039,0.037,0.209-0.065,0.139-0.14C76.632,54.293,76.46,54.398,76.533,54.469z M87.427,54.745c0.037,0.039,0.21-0.065,0.138-0.138
	C87.527,54.569,87.355,54.673,87.427,54.745z M40.266,55.021c0.037,0.038,0.209-0.067,0.139-0.141
	C40.364,54.844,40.195,54.948,40.266,55.021z M16.271,55.435c-0.038-0.04-0.209,0.064-0.139,0.137
	C16.172,55.611,16.343,55.506,16.271,55.435z M34.198,55.571c-0.048-0.146-0.246-0.028-0.275,0
	C33.634,55.859,34.3,55.875,34.198,55.571z M68.671,55.571c0,0.077,0.14,0.157,0.14,0C68.81,55.497,68.671,55.416,68.671,55.571z
	 M87.15,55.709c0.039,0.04,0.209-0.064,0.139-0.138C87.251,55.534,87.08,55.638,87.15,55.709z M39.852,55.986
	c-0.121,0.524,0.073,0.69,0.138,0.412C40.012,56.304,39.942,55.597,39.852,55.986z M65.363,55.849c-0.012,0.011,0,0.117,0,0.138
	C65.363,56.693,65.859,55.352,65.363,55.849z M83.703,56.124c0,0.076,0.139,0.157,0.139,0
	C83.841,56.047,83.703,55.967,83.703,56.124z M91.289,55.986c-0.039-0.038-0.211,0.065-0.139,0.138
	C91.187,56.161,91.359,56.058,91.289,55.986z M92.941,56.124c0.039,0.037,0.211-0.065,0.139-0.138
	C93.042,55.948,92.871,56.052,92.941,56.124z M84.669,56.124c-0.039-0.038-0.211,0.065-0.139,0.139
	C84.568,56.301,84.74,56.195,84.669,56.124z M36.681,56.398c0.002,0.14,0.24,0.176,0.274,0
	C36.801,56.413,36.742,56.199,36.681,56.398z M72.121,56.262c-0.02,0.021,0.012,0.109,0,0.137c-0.039,0.092,0.06,0.278,0.137,0.276
	C72.363,56.672,72.505,55.877,72.121,56.262z M82.599,56.398c0.039,0.038,0.211-0.065,0.139-0.138
	C82.701,56.224,82.529,56.327,82.599,56.398z M42.059,56.538c0,0.075,0.138,0.155,0.138,0
	C42.196,56.461,42.059,56.381,42.059,56.538z M73.912,56.398c-0.012,0.013,0,0.12,0,0.14C73.912,57.247,74.41,55.902,73.912,56.398z
	 M46.747,56.676c-0.076,0.077-0.004,0.28,0.138,0.139C46.961,56.736,46.89,56.533,46.747,56.676z M84.945,56.676
	c0-0.076-0.139-0.156-0.139,0C84.806,56.753,84.945,56.831,84.945,56.676z M86.324,56.676c0.039,0.039,0.209-0.067,0.137-0.138
	C86.423,56.501,86.251,56.604,86.324,56.676z M70.742,56.813c0.037,0.037,0.209-0.066,0.137-0.139
	C70.839,56.638,70.669,56.742,70.742,56.813z M35.164,56.951c0.037,0.039,0.209-0.066,0.138-0.138
	C35.263,56.774,35.092,56.879,35.164,56.951z M59.572,57.228c0.037,0.038,0.209-0.066,0.139-0.141
	C59.671,57.051,59.5,57.156,59.572,57.228z M95.562,57.642c0.039,0.038,0.209-0.067,0.139-0.14
	C95.662,57.464,95.492,57.568,95.562,57.642z M7.998,57.778c0.038,0.039,0.208-0.066,0.139-0.137
	C8.098,57.603,7.927,57.706,7.998,57.778z M14.064,57.778c0.039,0.039,0.21-0.066,0.138-0.137
	C14.165,57.603,13.994,57.706,14.064,57.778z M49.505,57.778c0.039,0.039,0.209-0.066,0.139-0.137
	C49.605,57.603,49.433,57.706,49.505,57.778z M79.152,57.642c-0.012,0.011,0,0.117,0,0.137
	C79.152,58.487,79.65,57.146,79.152,57.642z M6.618,57.778c-0.015,0.005,0.014,0.126,0,0.139c0,0-0.241,0.355,0,0.273
	C6.685,58.169,6.81,57.715,6.618,57.778z M22.753,57.917c0.037,0.038,0.209-0.064,0.14-0.139
	C22.853,57.74,22.682,57.846,22.753,57.917z M83.566,58.055c0.037,0.038,0.209-0.067,0.137-0.139
	C83.666,57.878,83.494,57.983,83.566,58.055z M89.771,58.055c0.153-0.016,0.215,0.199,0.274,0
	C90.044,57.915,89.804,57.882,89.771,58.055z M9.515,58.19c0.038,0.039,0.209-0.064,0.139-0.136
	C9.614,58.016,9.443,58.121,9.515,58.19z M88.667,58.055c-0.012,0.013,0,0.119,0,0.136C88.667,58.901,89.164,57.559,88.667,58.055z
	 M91.425,58.19c0.039,0.039,0.209-0.064,0.138-0.136C91.525,58.016,91.353,58.121,91.425,58.19z M84.392,58.882
	c0.037,0.037,0.211-0.065,0.139-0.138C84.494,58.707,84.322,58.811,84.392,58.882z M74.05,59.021c0,0.073,0.14,0.154,0.14,0
	C74.189,58.944,74.05,58.864,74.05,59.021z M17.512,59.158c-0.277,0.764,1.03,0.342,0.552-0.137
	C17.932,58.887,17.533,59.102,17.512,59.158z M89.494,59.158c0.039,0.038,0.211-0.067,0.139-0.137
	C89.595,58.981,89.423,59.085,89.494,59.158z M70.189,59.158c-0.138-0.115-0.383,0.107-0.414,0.138
	C69.289,59.782,70.642,59.539,70.189,59.158z M78.876,59.434c0.039,0.038,0.211-0.067,0.14-0.139
	C78.976,59.257,78.806,59.362,78.876,59.434z M0,59.571c0,0.184,0,0.368,0,0.552C0.269,60.191,0.495,59.439,0,59.571z
	 M15.582,60.123c0.039,0.038,0.209-0.064,0.139-0.138C15.683,59.946,15.511,60.052,15.582,60.123z M75.291,60.538
	c0.039,0.037,0.209-0.068,0.14-0.14C75.392,60.36,75.22,60.465,75.291,60.538z M2.619,60.813c0.038,0.038,0.21-0.065,0.139-0.139
	C2.72,60.635,2.548,60.741,2.619,60.813z M70.603,61.09c0.039,0.037,0.209-0.067,0.139-0.14
	C70.703,60.911,70.533,61.017,70.603,61.09z M92.804,61.364C93.537,61.515,92.968,60.945,92.804,61.364L92.804,61.364z
	 M4.137,62.055c0.036,0.036,0.209-0.068,0.138-0.141C4.236,61.877,4.065,61.982,4.137,62.055z M84.806,62.055
	c0.039,0.036,0.342-0.073,0.274-0.141C85.044,61.877,84.742,61.988,84.806,62.055z M34.198,62.191
	c-0.021,0.146,0.106,0.354,0.139,0.138C34.356,62.185,34.229,61.972,34.198,62.191z M16.271,62.604
	c0.038,0.039,0.209-0.066,0.138-0.137C16.372,62.43,16.2,62.533,16.271,62.604z M32.13,62.604c0.038,0.039,0.209-0.066,0.139-0.137
	C32.229,62.43,32.059,62.533,32.13,62.604z M78.05,62.604c0.037,0.039,0.209-0.066,0.138-0.137
	C78.15,62.43,77.978,62.533,78.05,62.604z M42.059,62.744c0.038,0.037,0.209-0.066,0.138-0.14
	C42.158,62.567,41.986,62.672,42.059,62.744z M77.912,63.019c-0.959,0.655,1.301,1.596,0.965,0.274
	C78.73,62.715,78.326,62.734,77.912,63.019z M17.512,63.158c-0.013,0.011,0,0.118,0,0.136
	C17.512,64.003,18.009,62.661,17.512,63.158z M36.405,63.294c0.038,0.039,0.208-0.065,0.138-0.136
	C36.505,63.119,36.333,63.223,36.405,63.294z M44.54,63.434c-0.076,0.074-0.004,0.277,0.14,0.138
	C44.755,63.494,44.684,63.29,44.54,63.434z M90.046,63.708c0.039,0.038,0.209-0.064,0.138-0.137
	C90.146,63.531,89.974,63.637,90.046,63.708z M61.087,63.848c0.156-0.017,0.215,0.197,0.277,0
	C61.363,63.707,61.123,63.673,61.087,63.848z M21.649,64.26c0.039,0.037,0.209-0.067,0.138-0.138
	C21.749,64.083,21.578,64.188,21.649,64.26z M33.647,64.123C33.228,64.585,34.156,64.541,33.647,64.123L33.647,64.123z
	 M71.154,64.397c0.039,0.038,0.209-0.065,0.139-0.138C71.255,64.223,71.083,64.326,71.154,64.397z M78.601,64.397
	c-0.002-0.14-0.242-0.173-0.275,0C78.48,64.384,78.541,64.598,78.601,64.397z M87.703,64.397c0,0.077,0.137,0.155,0.137,0
	C87.839,64.321,87.703,64.24,87.703,64.397z M78.326,64.811c-0.223,0.224,0.025,0.526,0.275,0.275
	C78.785,64.903,78.433,64.703,78.326,64.811z M34.612,64.95c0.038,0.037,0.209-0.068,0.137-0.14
	C34.711,64.773,34.54,64.878,34.612,64.95z M89.22,65.225c0,0.14,0.239,0.174,0.272,0C89.341,65.239,89.281,65.024,89.22,65.225z
	 M86.324,65.64c0.039,0.036,0.209-0.066,0.137-0.141C86.423,65.463,86.251,65.568,86.324,65.64z M91.701,65.5
	c-0.037-0.037-0.209,0.068-0.139,0.141C91.603,65.677,91.771,65.573,91.701,65.5z M32.544,65.777c0,0.076,0.138,0.155,0.138,0
	C32.681,65.7,32.544,65.62,32.544,65.777z M52.953,65.777c0.037,0.037,0.209-0.066,0.139-0.138
	C53.052,65.602,52.88,65.705,52.953,65.777z M81.634,65.914c0.039,0.04,0.343-0.073,0.275-0.137
	C81.873,65.737,81.57,65.851,81.634,65.914z M84.806,66.189c0.139,0,0.274,0,0.414,0c0-0.045,0-0.091,0-0.137
	C85.001,65.765,84.435,65.689,84.806,66.189z M91.701,66.054c0.039,0.036,0.209-0.067,0.139-0.141
	C91.8,65.877,91.63,65.98,91.701,66.054z M80.669,66.189c0.093,0,0.185,0,0.275,0C80.912,66.017,80.671,66.05,80.669,66.189z
	 M5.791,0C5.745,0,5.699,0,5.653,0c-0.056,0.35,0.188,0.188,0.414,0.275C6.566,0.466,6.139,0.3,5.791,0z M0,15.167
	c0,0.049,0,0.094,0,0.141C1.207,15.046,0.247,14.942,0,15.167z M24.959,1.104C25.43,1.98,25.441,0.786,24.959,1.104L24.959,1.104z
	 M6.895,1.379c0.872,0.307-0.702-0.422-0.553-0.138C6.426,1.398,6.698,1.31,6.895,1.379z M13.238,2.482
	c-0.344,0.097-0.566-0.608-0.828-0.14C12.634,2.367,13.122,2.807,13.238,2.482z M16.822,18.478c-0.06,0,0.449-0.109,0.552-0.139
	c0.527-0.15,0.888-0.461,1.241-0.688c0.196-0.125,0.489-0.161,0.69-0.275c0.689-0.391,1.295-0.884,1.792-1.241
	c0.604-0.433,1.91-0.8,2.481-1.104c-0.029,0.016,0.035,0.19,0.138,0.137c0.099-0.048-0.052-0.287,0.139-0.273
	c0.014,0,0.051,0.464,0.275,0.273c0.139-0.111-0.146-0.532-0.138-0.55c0.025-0.059,0.66-0.518,0.551-0.414
	c-0.021,0.021,0.303-0.19,0.276-0.138c0.059-0.122-0.151-0.4-0.138-0.415c0.089-0.089,0.146,0.142,0.138,0.138
	c0.047,0.013,0.277-0.123,0.275-0.138c-0.045-0.423-0.431-0.267-0.553-0.826c0.278,0.494,0.825,0.44,1.38,0.552
	c0.313,0.063,0.103,0.745,0,1.103c0.521,0.006,0.218-0.548,0.275-0.689c0.084-0.198,0.174-0.343,0.414-0.412
	c0.53-0.154,0.771,0.293,0.827,0.274c0.039-0.011-0.033-0.376,0-0.412c0.024-0.028,0.545-0.136,0.552-0.14
	c0.114-0.037,0.344-0.246,0.551-0.139c0.04,0.021,0.247,1.118,0.414,0.968c-0.124-1.249,0.467-1.761,1.241-1.38
	c0.246,0.119,0.75,0.725,0.552,0.412c-0.521-0.48-0.927-0.827-0.414-1.24c0.104-0.08,0.271,0.14,0.275,0.14
	c0.178,0.016,0.188-0.174,0.414-0.14c0.271,0.043,0.641,0.551,0.827,0c-0.619-0.421-1.396-0.229-1.104-0.689
	c0.312-0.487,0.179-0.336,0.551-0.136c0.177,0.093,0.249,0.136,0.415,0c0.052-0.28-0.165-0.3-0.275-0.414
	c-0.623-0.646,0.234-0.113,0.413-0.555c-0.042,0.105-0.303-0.149-0.274-0.136c-0.802-0.422,0.22-0.131,0.688-0.14
	c0.632-0.011,0.956-0.23,1.38,0.14c-0.122-0.887-1.965,0.035-2.207-0.688c0.011,0.032,0.513-0.023,0.413-0.141
	c-0.313-0.367-0.513,0.428-0.553-0.272c-0.014-0.256-0.307-0.739-0.274-0.829c0.06-0.168,0.723-0.03,0.689-0.552
	c-0.557-0.137-0.71,0.254-0.826,0c-0.148-0.316,0.935-0.37,0.964-0.827c-0.66,0.036-0.918,0.825-1.518,0.552
	c-0.34-0.155,0.021-0.618,0-0.688c-0.022-0.078-0.358-0.09-0.274,0c0.032,0.035,0.114,0.354-0.14,0.274
	c-0.268-0.082-0.178-0.922-0.274-0.965c-0.04-0.018-0.535,0.411-0.689,0.415c-0.45,0.003-0.474-0.224-0.552-0.554
	c-0.108-0.466-0.324-0.146-0.413,0c-0.344,0.559-0.449-0.104-0.276-0.137C27.19,5.48,27.454,5.871,27.163,5.93
	c-0.2,0.041-0.438-0.454-0.688-0.414c-0.113,0.021,0.04,0.777-0.413,0.688c-0.122-0.021-0.214-0.81-0.414-0.688
	c0.088,0.99-0.091,1.109-0.552,1.104c0.013,0.002-0.476-0.851-0.689-1.104c-0.093-0.107-0.084-0.458-0.275-0.137
	c0.161,0.196,0.3,0.308,0.413,0.551c0.112,0.236,0.412,1.112,0.414,1.104c-0.005,0.023-0.253-0.02-0.274,0
	c-0.069,0.063,0.06,0.342,0,0.413c-0.141,0.175-0.667,0.246-0.689,0.276c-0.096,0.122,0.248,0.492,0.138,0.551
	c-0.326,0.173-0.632-0.195-0.826,0c0.271,0.143,0.925,0.359,0.688,0.688c-0.039,0.057-0.476-0.011-0.552,0
	c-0.601,0.094,0.005,0.116,0.138,0.141c0.814,0.141-0.273,0.564-0.274,0.688c0-0.054,0.393,0.071,0.412,0.136
	c0.013,0.037-0.024,1.032-0.138,1.243c-0.048,0.087-0.434,0.137-0.414,0.274c0.008,0.056,0.492-0.168,0.552-0.137
	c-0.026-0.016,0.333,0.912,0.276,0.966c-0.096,0.088-0.251-0.264-0.276-0.276c-0.363-0.195-0.98-0.062-1.24-0.138
	c-0.031-0.009,0.136-0.275,0.139-0.275c-0.046,0.002-0.56,0.039-0.688,0.137c-0.114,0.088-0.054,0.291-0.14,0.413
	c-0.072,0.104-0.311,0.193-0.413,0.275c-0.566,0.456-1.627,0.743-2.067,1.104c-0.296,0.241-0.528,0.423-0.827,0.552
	c-0.157,0.066-0.356,0.039-0.553,0.138c-0.396,0.2-0.31,0.493-0.414,0.689c-0.268,0.505-1.032,0.15-1.518,0.273
	c-0.17,0.045-0.594,0.318-0.688,0.415c-0.352,0.353-0.539,1.116-0.414,1.654C15.018,17.771,16.006,18.482,16.822,18.478z
	 M30.751,7.445c0.071,0.073-0.1,0.177-0.139,0.138C30.542,7.513,30.713,7.407,30.751,7.445z M99.148,5.515
	c-0.039-0.543-0.549,0.025-0.412,0.275c0.203,0.377,0.822-0.17,0.551,0C98.902,5.808,99.16,5.673,99.148,5.515z M19.306,6.204
	c0.3,0.052,0.276-0.624,0-0.413c-0.043,0.032,0.027,0.229,0,0.277C19.294,6.086,19.096,6.17,19.306,6.204z M35.441,9.248
	c0.043,0.221,0.412,0.476,0.412,0.679c-0.003,0.457-0.118,0.128,0.413,0.276c0.234,0.068,0.4,0.386,0.414,0.415
	c0.225,0.483-0.034,0.083,0.274,0c0.125-0.034,0.284,0.018,0.414,0c0.255-0.034,0.282-0.211,0.551-0.277
	c0.112-0.025,0.313,0.055,0.415,0c0.105-0.054,0.017-0.476,0.274-0.414c0.351,0.086-0.09-0.069,0.139-0.412
	c0.034-0.051,0.354,0.029,0.414,0c0.271-0.127-0.08-0.482-0.138-0.689c-0.229-0.811,0.141-0.82,0-1.103
	c0.017,0.035-0.021,0.104,0,0.138c-0.035-0.06-0.358,0.047-0.415,0c-0.086-0.071,0.219-0.239,0.02-0.398
	c0.046,0.045-0.155-0.016-0.155-0.016c-0.359-0.134-0.77-0.236-1.104-0.275c-0.72-0.082-0.844,0.127-1.104,0.275
	c-0.309,0.179-0.402,0.22-0.553,0.414c-0.073,0.097-0.232,0.172-0.274,0.274C35.49,8.014,35.463,9.289,35.441,9.248z M93.08,8.135
	c-0.24,0.128-0.74-0.004-0.688,0.414C92.744,8.533,92.875,8.297,93.08,8.135z M34.749,8.272c-0.354-0.354-0.605,0.536-0.412,0.688
	C34.28,8.563,34.988,8.512,34.749,8.272z M35.439,9.791c-0.081,0.104-0.059-0.333-0.139-0.276
	C34.841,9.733,35.294,9.98,35.439,9.791z M95.839,10.895C95.88,10.864,95.617,10.778,95.839,10.895L95.839,10.895z M96.529,11.17
	c0.01,0.03-0.533-0.194-0.689-0.274C94.388,11.854,96.828,12.073,96.529,11.17z M79.291,12.961
	c-0.209-0.152-0.233,0.213-0.274,0.277C78.71,13.702,79.419,13.056,79.291,12.961z M31.579,13.65
	c0.184-0.021,0.415,0.562,0.551,0.138C31.946,13.81,31.616,13.326,31.579,13.65z M75.359,14.917
	c-0.027,0.021-0.043,0.032-0.047,0.036C75.32,14.947,75.335,14.936,75.359,14.917z M75.599,14.729
	c-0.025,0.02-0.06,0.047-0.097,0.075c0.021-0.017,0.039-0.03,0.064-0.051C75.58,14.744,75.591,14.737,75.599,14.729z M75.503,14.805
	c-0.032,0.024-0.067,0.054-0.1,0.076C75.429,14.862,75.464,14.835,75.503,14.805z M29.647,15.996
	c0.079-0.211-0.334-0.847-0.414-0.829c-0.089,0.021,0.145,0.336,0.139,0.275c0.002,0.026,0.012,0.118,0,0.14
	C29.171,15.939,29.624,16.061,29.647,15.996z M23.442,15.582c-0.014,0.017-0.552,0.601-0.138,0.414
	C23.247,16.021,23.749,15.216,23.442,15.582z M1.104,16.271c0.063-0.193-0.151,0.002-0.14,0C0.104,16.418,1.043,16.455,1.104,16.271
	z M22.477,19.167c-0.003-0.205,0.513-0.563,0.139-0.688C22.764,18.831,22.021,18.96,22.477,19.167z M74.878,19.719
	c-0.041-0.048,0.047-0.234,0-0.274c-0.123-0.104-0.356,0.152-0.414,0.138c-0.077-0.02-0.192-0.367-0.274-0.414
	c-0.543-0.306-1.355,0.141-1.933-0.138c-0.041-0.021,0.023-0.366,0-0.414c-0.237-0.489-0.381,0.139-0.414,0.276
	c-0.196,0.838-0.459-0.646-0.825-0.414c-0.466,0.332,0.188,0.457,0,0.966c-0.099,0.256-0.568,0.292-0.689,0.413
	c-0.059,0.059-0.078,0.377-0.139,0.414c-0.068,0.043-0.254-0.169-0.275-0.14c-0.102,0.148,0.063,0.517,0,0.691
	C69.88,20.916,69.55,21,69.5,21.098c-0.123,0.242,0.074,0.406-0.137,0.551c-0.125,0.085-0.414-0.064-0.553,0
	c-0.037,0.272,0.108,0.191,0.274,0.275c0.552,0.28,0.299,0.327,0.414,0.968c0.021,0.116,0.211,0.255,0.14,0.412
	c-0.058,0.121-0.447,0.004-0.414,0.276c0.008,0.064,0.446-0.131,0.414-0.14c0.049,0.011,0.309,0.36,0.274,0.552
	c-0.065,0.396-1.176,0.03-0.828,0.827c0.533-0.019,0.599-0.808,1.104-0.689c0.59,0.141-0.39,0.675-0.414,0.689
	c-0.25,0.174-0.275,0.202-0.412,0.552c0.051-0.128,0.18,0.297,0.137,0.275c0.601,0.279,0.883-0.721,0.689-0.55
	c-0.031,0.023-0.361,0.113-0.275-0.141c-0.018,0.052,0.289-0.15,0.275-0.138c0.619-0.604,0.444,0.079,1.518,0.415
	c0.152,0.048,0.201-0.182,0.414-0.138c0.187,0.036,0.289,0.238,0.551,0.273c0.183,0.025,0.531-0.083,0.689,0
	c0.1,0.054-0.084,0.604,0.277,0.415c-0.188-0.601,0.028-0.849,0.411-0.829c0.015,0.002-0.014,0.259,0,0.277
	c0.31,0.354,0.117-0.523,0.14-0.553c0.266-0.354,0.971-0.321,1.24-0.689c0.092-0.125,0.407-1.525,0.413-1.655
	c0.013-0.271-0.036-1.021-0.137-1.379C75.541,20.376,75.101,19.978,74.878,19.719z M48.539,21.373
	c0.027,0.017,0.134,0.254,0.275,0.141C48.91,21.434,48.009,21.065,48.539,21.373z M64.259,26.752
	c-0.075,0.053,1.13,0.106,0.554-0.276c-0.133,0.177-0.654,0.068-0.828-0.137c-0.103-0.117,0.049-0.536,0-0.69
	c-0.103-0.323-0.422-0.473-0.551-0.689c-0.177-0.289-0.261-0.507-0.275-0.692c-0.006-0.024-0.008-0.065-0.002-0.135
	c-0.004,0.043-0.002,0.088,0.002,0.135c0.033,0.136,0.215-0.26,0.238-0.416c-0.047-0.01-0.086-0.012-0.103,0.008
	c0.088-0.104,0.109-0.081,0.103-0.008c0.067,0.013,0.147,0.033,0.174,0.008c0.047-0.047-0.045-0.23,0-0.275
	c0.092-0.093,0.387,0.017,0.275-0.276c-0.574-0.058-1.322,1.315-1.654,0.276c0,0.002,0.406-0.248,0.414-0.276
	c0.055-0.224-0.142-0.364-0.275-0.412c0.027,0.009-0.229,0.396-0.274,0.412c-0.318,0.11-1.492-0.146-1.38,0
	c-0.2-0.262,0.128-0.502,0-1.103c-0.608-0.103-0.137,0.959-0.139,0.964c-0.082,0.139-1.09,0.359-1.24,0.415
	c-0.702,0.254-1.284,1.54-1.518,1.654c-0.201,0.098-0.859-0.363-0.689,0.137c0.064,0.139,0.494,0.061,0.552,0.275
	c0.1,0.37-0.293,0.601-0.275,0.967c0-0.011,0.268,0.127,0.275,0.138c0.428,0.457-0.127,1.137-0.275,1.379
	c0.238,0.313,0.344-0.429,0.553-0.413c0.072,0.007,0.363,0.495,0.412,0.552c0.063,0.066,0.213,0.068,0.277,0.139
	c0.067,0.071,0.063,0.355,0.137,0.413c0.09,0.067,1.082,0.545,1.104,0.552c0.459,0.164,1.545-0.022,1.793,0.139
	c0.256,0.168,0.067,1.097,0.414,0.826c0.057-0.354-0.361-0.61-0.277-0.826c0.17-0.436,1.336-0.234,1.379-0.277
	c-0.035,0.038-0.26-0.123-0.275-0.136c-0.303-0.305-0.016-0.293,0.275-0.689c0.131-0.179,0.313-0.586,0.277-0.554
	c0.112-0.112,0.135,0.185,0.258,0.026c-0.066,0.076,0.027-0.229,0.018-0.162C63.791,27.191,63.998,26.932,64.259,26.752z
	 M68.949,22.614c-0.512,0.279-0.947-0.22-1.379,0.138C67.908,23.021,68.728,22.892,68.949,22.614z M24.545,23.993
	c0.132-0.282,0.281-0.546,0.414-0.827C24.61,23.15,24.401,23.972,24.545,23.993z M25.374,23.572
	c-0.012-0.041-0.203-0.243-0.276-0.131c-0.071,0.106,0.047,0.431,0.138,0.415c0.013-0.002,0.021-0.23,0.139-0.139
	c0.022,0.019-0.022,0.271,0,0.274c-0.121-0.021-0.106,0.172,0,0.138c0.193-0.061,0.499-0.588,0.413-0.827
	C25.739,23.172,25.406,23.519,25.374,23.572z M37.508,24.131c0.139,0.545,0.593-0.097,0.275-0.273
	c-0.146,0.83-0.137-0.549-0.138-0.553C37.565,23.204,37.411,24.072,37.508,24.131z M64.005,23.777
	c0.007-0.004,0.023-0.019,0.045-0.034C64.025,23.763,64.009,23.775,64.005,23.777z M64.095,23.706
	c0.026-0.018,0.061-0.047,0.102-0.075C64.162,23.656,64.126,23.685,64.095,23.706z M64.292,23.554
	c-0.026,0.021-0.061,0.049-0.096,0.076c0.02-0.016,0.039-0.031,0.063-0.05C64.273,23.57,64.283,23.562,64.292,23.554z
	 M95.976,23.581c-0.015,0.002,0.014,0.129,0,0.138c-0.029,0.021-0.105-0.009-0.138,0c-0.127,0.035-0.159,0.315,0,0.274
	C95.884,23.982,96.314,23.495,95.976,23.581z M34.337,24.546c0.307,0.459,0.724,0.81,0.552,0.553
	C34.734,24.867,34.13,24.234,34.337,24.546z M43.48,24.512c-0.063,0.048-0.169,0.132-0.239,0.186
	c0.041-0.032,0.104-0.08,0.196-0.151C43.454,24.531,43.468,24.521,43.48,24.512z M43.184,24.744
	c0.005-0.004,0.021-0.019,0.044-0.036C43.201,24.729,43.188,24.74,43.184,24.744z M42.059,28.683c-0.073-0.098,0.021-0.432,0-0.553
	c-0.083-0.44-0.301-0.672-0.139-0.826c0.359-0.348,0.013,0.636,0.413,0.274c0.104-0.094-0.15-0.381-0.138-0.415
	c0.001-0.002,0.926-0.15,0.275-0.274c-0.635,0.765-1.202-0.121-1.104-0.689c0,0,0.543-0.155,0.139-0.274
	c-0.481,0.957-0.875-0.78-0.966-0.826c-0.2-0.105-0.606,0.296-0.826,0.273c-0.258-0.021-0.446-0.496-0.827-0.552
	c-0.143-0.021-0.658,0.09-0.827,0.138c-0.525,0.155-1.031,0.48-1.379,0.552c-0.365,0.077-0.196-0.411-0.414-0.688
	c-0.19-0.242-0.33,0.086-0.553-0.138c-0.006,0.608,0.678,0.524,0.69,0.965c0.007,0.252-0.393,0.217-0.552,0.415
	c-0.07,0.089-0.213,0.6-0.414,0.966c-0.435,0.784-0.686,0.767-0.414,1.24c0.176,0.309-0.126-0.063-0.138,0
	c-0.04,0.201,0.134,0.293,0.138,0.414c0.007,0.188-0.158,0.256-0.138,0.55c0.059,0.855,0.228,0.92,0.552,1.379
	c0.306,0.437,0.402,0.729,0.688,1.104c0.052,0.066,0.224,0.067,0.276,0.139c0.101,0.136,0.014,0.309,0.138,0.414
	c0.136,0.115,0.401,0.038,0.552,0.138c0.104,0.069,0.156,0.36,0.275,0.414c0.297,0.134,0.981,0.238,1.379,0.275
	c1.104,0.104,1.564-0.314,1.93-0.689c0.252-0.257,0.923-0.62,0.967-0.689c-0.036,0.058-0.166-0.172-0.139-0.274
	c0.008-0.024,0.253-0.103,0.275-0.138c0.44-0.733-0.221-2.917,0.966-2.206C42.714,28.523,42.299,28.999,42.059,28.683z
	 M31.854,24.958c-0.146,0.073-0.208,0.105-0.218,0.111c0.021-0.011,0.414-0.208,0.445-0.225
	C32.068,24.853,32.002,24.885,31.854,24.958z M23.718,25.51c0.072-0.202,0.204-0.347,0.276-0.552
	C23.657,24.826,23.537,25.58,23.718,25.51z M64.949,25.098C63.839,25.467,65.841,24.799,64.949,25.098L64.949,25.098z
	 M26.476,25.235c-0.281-0.282-0.439,0.439-0.413,0.412C25.387,26.358,26.644,25.403,26.476,25.235z M42.196,25.647
	c0.046-0.012,0.477-0.498,0.138-0.412c-0.014,0.003,0.014,0.13,0,0.137c-0.027,0.021-0.104-0.009-0.138,0
	C42.071,25.408,42.037,25.688,42.196,25.647z M71.431,25.51c0.065,0.438-0.425,0.313-0.277,0.829
	C71.574,26.471,71.63,25.121,71.431,25.51z M34.337,25.925c-0.097,0.385-0.037,0.371,0.139,0.139
	C34.372,26.199,34.464,25.414,34.337,25.925z M11.307,26.614c-0.008-0.008-0.022-0.006-0.039-0.006
	C11.491,26.785,11.787,27.052,11.307,26.614z M11.169,26.614c0.015,0.016,0.063,0,0.1-0.006
	C11.12,26.494,11.004,26.418,11.169,26.614z M27.165,26.614c-0.332,0.494-0.948,0.705-1.24,1.239
	C26.271,27.464,27.294,27.021,27.165,26.614z M30.751,27.164c0.203,0.027,0.576,0.373,0.551,0c-0.522-0.025-0.979-0.121-1.379-0.274
	C29.791,27.338,30.515,27.135,30.751,27.164z M49.78,27.164c0.027,0.019,0.133,0.254,0.276,0.141
	C50.152,27.227,49.25,26.858,49.78,27.164z M33.37,27.441c-0.41,0.023-0.843-0.531-0.964,0C32.841,27.25,33.238,27.784,33.37,27.441
	z M99.009,27.718c0.072,0.028-0.002,0.434,0.277,0.275c-0.145-0.747-0.877-0.486-0.551-0.14
	C98.681,27.797,98.91,27.675,99.009,27.718z M64.535,28.269c-0.205,0.003-0.563-0.513-0.688-0.139
	C64.199,27.982,64.33,28.726,64.535,28.269z M57.855,28.437C57.878,28.426,57.875,28.427,57.855,28.437L57.855,28.437z
	 M57.548,28.59c0.029-0.015,0.062-0.029,0.093-0.047C57.605,28.563,57.576,28.577,57.548,28.59z M64.949,28.683
	c0,0.02-0.344-0.216-0.414-0.141c-0.055,0.064,0.025,0.332,0,0.415c-0.008,0.033-0.207,0.078,0,0.14
	C64.425,29.064,64.957,28.909,64.949,28.683z M80.531,29.232c-0.014,0.028-0.252,0.135-0.137,0.276
	C80.47,29.606,80.839,28.702,80.531,29.232z M34.337,29.51c0.103-0.052,0.209-0.242,0-0.138c-0.036,0.017-0.101-0.011-0.139,0
	C34.027,29.417,34.151,29.603,34.337,29.51z M55.71,29.372c-0.035,0.017-0.1-0.011-0.139,0c-0.17,0.045-0.047,0.23,0.139,0.138
	C55.814,29.458,55.919,29.267,55.71,29.372z M24.132,33.094c-0.026-0.211,0.064-0.486,0-0.688c-0.23-0.729-0.87-1.574-1.239-1.794
	c-0.098-0.055-0.307,0.034-0.415,0c-0.054-0.016-0.202-0.253-0.275-0.274c-0.77-0.222-1.301-0.138-2.206-0.138
	c-1.186,0-1.425,0.134-1.517-0.689c-0.317,0.041,0.202,0.596,0,0.827c-0.097,0.11-0.896,0.043-1.104,0.139
	c-0.027,0.012-0.109,0.243-0.138,0.275c-0.097,0.109-0.263-0.016-0.275,0c-0.116,0.131-0.04,0.404-0.139,0.553
	c-0.23,0.347-0.439,0.125-0.551,0.274c0.025-0.036,0.203,0.052,0.138,0.138c-0.084,0.112-0.341,0.153-0.414,0.275
	c-0.104,0.177-0.047,0.569-0.138,0.689c-0.117,0.156-0.559,0.294-0.552,0.275c-0.076,0.241,0.129,0.577,0.139,0.827
	c0.002,0.054-0.044,1.045,0,0.965c-0.154,0.282-0.51,0.116-0.827,0.276c-0.055,0.029-0.201,0.22-0.276,0.276
	c-0.125,0.092-0.445,0.084-0.139,0.275c0.289-0.312,0.813-0.073,1.104-0.275c-0.141,0.098-0.191-0.592,0.275-0.276
	c0.056,0.036-0.146,0.243-0.138,0.276c0.002,0.006,0.259,0.123,0.275,0.137c0.136,0.106-0.242,0.452-0.139,0.688
	c-0.021-0.048,0.511,0.132,0.552,0.276c0.02,0.068-0.156,0.262-0.139,0.274c0.302,0.245,0.717,0.085,0.966,0.277
	c0.396,0.305-0.07,0.392,0.275,0.55c0.227,0.105,0.448-0.152,0.552-0.138c0.132,0.021,0.352,0.325,0.552,0.415
	c0.114,0.052,0.294-0.036,0.413,0c0.053,0.014,0.204,0.255,0.276,0.274c0.279,0.078,0.681-0.051,0.966,0
	c0.328,0.06,0.638,0.363,0.965,0.415c0.316,0.048,0.378-0.068,0.552,0c-0.05-0.021,0.151,0.15,0.139,0.137
	c0.365,0.349-0.18-0.188,0-0.274c0.102-0.05,0.194,0.139,0.275,0.139c0.264,0,1.444-0.479,1.38-0.415
	c0.458-0.439,0.919-0.844,1.103-1.239c0.073-0.159,0.219-0.284,0.276-0.415C25.291,35.022,24.321,34.618,24.132,33.094z
	 M58.33,30.751c0.076,0.098,0.445-0.808,0.14-0.275C58.453,30.503,58.216,30.608,58.33,30.751z M30.337,31.026
	c0.766,0.184,0.964-0.22,1.654-0.415C31.579,30.408,30.854,30.896,30.337,31.026z M33.923,30.611
	C32.817,31.164,34.283,30.969,33.923,30.611L33.923,30.611z M42.472,30.889c0.097-0.077-0.808-0.444-0.275-0.139
	C42.224,30.768,42.329,31.003,42.472,30.889z M7.446,31.026c-0.132,0.091-0.315,0.155-0.415,0.275
	C6.46,31.998,7.912,30.708,7.446,31.026z M44.265,31.991c-0.262-0.029-0.718-0.551-0.827-0.275
	C43.617,31.824,44.168,32.255,44.265,31.991z M31.479,31.977c0.063,0,0.13,0.121,0.1,0.152c-0.071,0.071-0.177-0.1-0.139-0.139
	c-0.074,0.031-0.313,0.007-0.276,0.139c0.009,0.029,0.021,0.055,0.03,0.075c-0.054-0.016-0.154-0.002-0.305,0.063
	c0.049-0.021,0.216,0.074,0.137,0.138c0.023-0.021-0.805,0.15-0.414,0.275c0.4-0.102,0.625-0.309,0.63-0.415
	C31.472,32.457,31.959,31.794,31.479,31.977z M31.44,31.991c0.014-0.006,0.024-0.01,0.039-0.015
	C31.466,31.977,31.452,31.98,31.44,31.991z M30.199,32.405c-0.188,0.109-0.022,0.141,0.138,0
	C30.502,32.26,30.369,32.307,30.199,32.405z M44.402,32.405C44.095,32.009,44.978,33.145,44.402,32.405L44.402,32.405z
	 M87.564,32.681c-0.039-0.245-0.521-0.663-0.414-0.275c0.008,0.021,0.254,0.104,0.276,0.138
	C87.433,32.556,87.613,32.975,87.564,32.681z M31.164,35.853C31.561,35.546,30.425,36.427,31.164,35.853L31.164,35.853z
	 M31.991,36.404C32.676,36.221,32.208,35.753,31.991,36.404L31.991,36.404z M31.579,37.231c-1.165-0.157-0.305-0.425-0.139-0.827
	c-0.19-0.022-0.604-0.033-0.801,0.118c0.137-0.071,0.438,0.06,0.509,0.134c0.008,0.002,0.014,0.01,0.016,0.023
	c-0.001-0.008-0.007-0.015-0.016-0.023c-0.048-0.016-0.169,0.181-0.122,0.163c-0.129,0.048-0.257-0.14-0.275-0.14
	c-0.911,0.04,0.13,0.244,0,0.276c-0.361,0.085-0.688-0.26-1.241,0C30.144,37.01,31.085,37.92,31.579,37.231z M16.685,37.231
	c-0.095-0.117-0.129,0.265-0.139,0.274C15.931,38.4,16.883,37.48,16.685,37.231z M38.887,37.369
	c0.018,0.008,0.589,0.379,0.688,0.277c0.264-0.266-1.264-0.566-0.827-0.277C38.78,37.391,38.852,37.354,38.887,37.369z
	 M16.822,37.646C16.25,38.42,17.052,38.039,16.822,37.646L16.822,37.646z M80.119,38.474c0.162,0.041,0.521,0.556,0.689,0.137
	C80.632,38.584,80.132,38.211,80.119,38.474z M88.115,38.885c0,0.007,0.137-0.005,0.139,0c0.068,0.166,0.031,0.171,0.14,0.277
	C89.097,39.868,88.158,38.255,88.115,38.885z M79.98,39.438c-0.092,0.094,0.131,0.267,0.139,0.276c0.029,0.046-0.043,0.243,0,0.275
	C80.591,40.34,80.08,39.338,79.98,39.438z M87.703,45.644c-0.199-0.047,0.021,0.236-0.139,0.275
	c-0.568,0.141-0.351-0.339-0.275-0.275c0.33,0.281-0.141-0.159-0.139-0.277c0.014-0.399,0.547-0.132,0.553,0
	c-0.008-0.168-0.25-0.391-0.414-0.825c-0.082-0.216-0.063-0.561-0.139-0.688c-0.062-0.108-0.328-0.178-0.412-0.276
	c-0.217-0.252-0.252-0.534-0.277-0.552c-0.307-0.232-0.396,0.096-0.551-0.275c0.021,0.05,0.266-0.392,0.139-0.552
	c-0.409,0.121-0.352,0.386-0.69,0.414c-0.088,0.007-0.295-0.093-0.412-0.138c-0.498-0.198-0.598-0.537-0.965-0.829
	c-0.058-0.042-0.211,0.03-0.277,0c-0.051-0.022-0.072-0.248-0.137-0.274c-0.197-0.081-0.494,0.082-0.689,0
	c-0.264-0.111-0.299-0.493-0.688-0.415c-0.986,0.198-0.181,1.342,0,1.794c0.051,0.129,0.121,0.328,0.137,0.414
	c0.104,0.534-0.272,1.008-0.275,1.104c-0.006,0.287-0.043,0.789,0,1.102c0.025,0.186,0.283,0.247,0.275,0.415
	c-0.002,0.054-0.227,0.089-0.137,0.274c0.028,0.063,0.332,0.146,0.551,0.415c0.383,0.472,0.33,0.481,0.689,0.688
	c0.442,0.257,0.104,0.644,0.413,0.966c-0.047-0.05,0.062-0.307,0.14-0.275c0.088,0.036,0.19,0.345,0.274,0.414
	c0.486,0.399-0.028-0.26-0.139-0.414c-0.611-0.868,0.471,0.005,1.104-0.139c-0.082,0.019,0.17-0.322,0.137-0.274
	c0.221-0.33,1.045-0.625,1.381-0.552c0.961,0.209-0.373-0.625,0.412-0.966c0.19-0.082,0.856,0.624,0.965,0.137
	C87.875,45.642,87.953,45.702,87.703,45.644z M5.93,41.921c0.017-0.095,0.282-0.277,0-0.414c0.044,0.021-0.266,0.258-0.276,0.276
	c0.021-0.034,0.197,0.043,0.138,0.138c-0.099,0.157-0.595,0.473-0.138,0.553c-0.04-0.008,0.269-0.403,0.276-0.414
	c-0.02,0.025,0.064,0.171,0.138,0C6.049,42.104,5.914,42.009,5.93,41.921z M89.22,45.92c0.76,0.195,1.219,0.07,1.379,0
	c-0.203,0.088-0.097-0.171-0.277,0c-0.008,0.008-0.039-0.466,0.277-0.554c0.059-0.014,0.379,0.045,0.412,0
	c0.079-0.104-0.14-0.271-0.14-0.274c-0.004-0.172,0.271-0.194,0.277-0.274c0.016-0.207-0.123-1.627-0.14-1.654
	c-0.014-0.032-0.372-0.093-0.411-0.139c-0.105-0.118,0-0.327-0.14-0.413c-0.268-0.168-0.961,0.291-1.239,0
	c-0.021-0.021,0.016-0.273,0-0.277c-0.146-0.016-0.595-0.146-0.691-0.137c-0.262,0.033-0.826,0.621-0.826,0.966
	c0,0.045,0.162,0.188,0.137,0.413c-0.043,0.396-0.221,0.679-0.137,1.102c0.006,0.03,0.25,0.229,0.275,0.277
	c0.053,0.098,0.022,0.439,0,0.412c0.08,0.088,0.44-0.055,0.551,0c0.037,0.021-0.025,0.24,0,0.277
	C88.566,45.693,89.292,45.938,89.22,45.92z M32.819,42.885c-0.021,0.013,0.012,0.116,0,0.139c-0.08,0.145-0.074,0.16-0.139,0.414
	C32.479,44.237,33.181,42.623,32.819,42.885z M9.929,43.023c0.037-0.008-0.293,0.589-0.275,0.552c0,0-0.281,0.273,0,0.276
	c-0.292-0.003,0.495-0.424,0.413-0.276C10.143,43.441,10.038,43.002,9.929,43.023z M36.267,43.3c0.263,0.06,0.346,0.298,0.688,0.275
	C37.09,43.194,36.185,43.173,36.267,43.3z M26.89,43.438c0.323,0.043,0.081,0.652,0.552,0.552
	C27.466,43.675,26.976,43.186,26.89,43.438z M23.994,44.816c0.104-0.318,0.853-0.7,0.551-0.965
	C24.492,44.222,23.604,44.461,23.994,44.816z M35.025,44.816c-0.132,1.14-0.434,0.291-0.827,0.55
	c0.469,0.015,0.653,0.771,0.966,0.554C35.19,45.9,35.072,44.993,35.025,44.816z M51.296,45.644c0.142,0.274,0.238,0.59,0.554,0.688
	C51.771,46.092,51.074,45.301,51.296,45.644z M92.39,46.056c-0.056-0.438-0.759-0.508-0.552-0.274
	C91.875,45.824,92.033,46.014,92.39,46.056z M78.462,47.022c-0.174-0.202-0.553-0.904-0.825-0.553
	C77.839,46.622,78.718,47.301,78.462,47.022z M38.749,47.3C39.522,47.873,39.143,47.069,38.749,47.3L38.749,47.3z M86.324,48.401
	c0.172-0.171-0.49-0.787-0.689-1.103C85.73,47.731,85.958,48.766,86.324,48.401z M36.818,48.539
	c-0.097-0.19-0.628-0.642-0.689-0.413c0.207,0.208,0.581,0.245,0.689,0.551C37.053,48.709,37.159,48.521,36.818,48.539z
	 M92.39,50.333c0.286,0.08,0.446,0.289,0.688,0.414C93.134,50.404,92.416,50.14,92.39,50.333z M89.22,51.572
	c-0.07-0.343-0.978-0.228-0.14,0C89.035,51.56,89.263,51.796,89.22,51.572z M90.736,55.571
	C90.498,54.646,90.064,55.291,90.736,55.571L90.736,55.571z M89.494,55.571c-0.012,0.051-0.119,0.574,0.139,0.415
	C89.595,56.01,89.646,55.013,89.494,55.571z M47.022,55.986c-0.018,0.026-0.252,0.132-0.139,0.274
	C46.962,56.357,47.329,55.454,47.022,55.986z M1.791,57.917c-0.089,0.37-0.394,0.523-0.551,0.827
	c0.452,0.252,0.316-0.255,0.414-0.412C1.743,58.187,2.254,57.949,1.791,57.917z M47.022,58.606c0.254-0.007,0.467,0.706,0.688,0.274
	C47.438,58.91,47.123,58.298,47.022,58.606z M45.506,58.744c0.185-0.02,0.415,0.562,0.552,0.138
	C45.875,58.901,45.544,58.417,45.506,58.744z M61.087,59.021c-0.01-0.047-0.498-0.479-0.412-0.141c0.002,0.016,0.13-0.013,0.138,0
	c0.02,0.028-0.008,0.104,0,0.141C60.847,59.145,61.128,59.18,61.087,59.021z M1.379,59.021c-0.012,0,0.013,0.128,0,0.137
	c-0.057,0.042-0.225-0.046-0.274,0c-0.087,0.079,0.054,0.431,0.137,0.413C1.362,59.548,1.606,58.975,1.379,59.021z M91.701,60.813
	C90.937,59.813,91.291,61.093,91.701,60.813L91.701,60.813z M41.645,61.364c-0.192-0.229-0.485-0.776-0.689-0.552
	c0.494,0.288,0.466,1.096,1.104,1.242C42.233,61.689,41.825,61.579,41.645,61.364z M74.189,64.26
	c0.442-0.03,0.582,0.244,1.102,0.138c0.056,0.213,0.168,0.021,0-0.138C74.843,64.419,74.443,63.839,74.189,64.26z M43.575,65.225
	c0.437,0.115,0.393,0.711,0.827,0.829C44.34,65.648,43.751,65.059,43.575,65.225z"/>
</svg>
