<?xml version="1.0" encoding="utf-8"?>
<!-- Generator: Adobe Illustrator 16.0.0, SVG Export Plug-In . SVG Version: 6.00 Build 0)  -->
<!DOCTYPE svg PUBLIC "-//W3C//DTD SVG 1.1//EN" "http://www.w3.org/Graphics/SVG/1.1/DTD/svg11.dtd">
<svg version="1.1" id="Layer_1" xmlns="http://www.w3.org/2000/svg" xmlns:xlink="http://www.w3.org/1999/xlink" x="0px" y="0px"
	 width="100px" height="100px" viewBox="0 0 100 100" enable-background="new 0 0 100 100" xml:space="preserve">
<g>
	<path fill="none" stroke="#000000" d="M89.659,50c0.42,0.168,0.688,0.518,0.799,1.051c-0.056,0.98-0.519,1.471-1.388,1.471
		c-0.561-0.026-1.094-0.293-1.598-0.799c-0.168-0.166-0.336-0.32-0.505-0.461l0,0c-0.336-0.309-0.603-0.562-0.798-0.757
		c-0.646,0.421-1.261,1.022-1.85,1.808c0,0-0.014,0.015-0.043,0.041c-1.766,2.467-2.774,5.48-3.026,9.037c0,0.281,0,0.562,0,0.842
		c0.028,3.392,0.617,6.685,1.767,9.877c1.346,3.562,2.088,7.23,2.228,11.015c0.028,1.431-0.14,2.858-0.504,4.287
		c-1.625,5.073-5.507,7.733-11.644,7.985c-0.953,0-1.92-0.082-2.9-0.252c-1.906-0.446-3.77-1.051-5.592-1.807
		c-1.793-0.756-3.67-1.246-5.633-1.471c-0.363-0.029-0.714-0.043-1.051-0.043c-1.85-0.027-3.613,0.322-5.296,1.051
		c-0.056,0.029-0.127,0.07-0.21,0.127c-0.896,0.447-1.611,1.051-2.144,1.807c0.308,0.281,0.63,0.604,0.966,0.967l0,0
		c0.169,0.168,0.309,0.322,0.421,0.464c0.532,0.504,0.813,1.051,0.84,1.639c-0.026,0.869-0.519,1.317-1.472,1.347
		c-0.531-0.084-0.867-0.336-1.008-0.757c0,0-0.014,0-0.042,0c0.028,0,0.028,0,0,0c-0.14,0.421-0.477,0.673-1.009,0.757
		c-0.98-0.027-1.471-0.478-1.471-1.347c0.027-0.56,0.294-1.104,0.799-1.639c0.14-0.169,0.294-0.337,0.462-0.505l0,0
		c0.364-0.364,0.673-0.688,0.925-0.967c-1.821-2.045-4.357-3.026-7.608-2.942c-0.364,0-0.714,0.014-1.051,0.043
		c-1.961,0.225-3.853,0.715-5.674,1.471c-1.794,0.785-3.644,1.388-5.549,1.808c-0.981,0.17-1.948,0.252-2.9,0.252
		c-6.138-0.252-10.019-2.912-11.645-7.986c-0.363-1.428-0.532-2.857-0.504-4.287c0.141-3.783,0.883-7.453,2.229-11.014
		c1.12-3.193,1.709-6.486,1.765-9.877c0-0.281,0-0.562,0-0.842c-0.14-2.354-0.673-4.539-1.598-6.558
		c-0.924-2.019-2.045-3.476-3.362-4.372c-0.252,0.281-0.519,0.547-0.799,0.799l0,0c-0.14,0.141-0.28,0.279-0.42,0.42
		c-0.532,0.533-1.079,0.813-1.64,0.84c-0.868-0.026-1.331-0.518-1.387-1.471c0.111-0.533,0.364-0.882,0.756-1.051l0,0
		c0.028,0,0.028,0,0,0c-0.392-0.14-0.645-0.476-0.756-1.009c0.056-0.98,0.504-1.484,1.345-1.513c0.589,0.057,1.135,0.336,1.64,0.841
		c0.168,0.14,0.336,0.294,0.504,0.462l0,0c0.365,0.337,0.658,0.618,0.883,0.841c2.774-2.241,4.386-5.857,4.834-10.844
		c0-0.28,0-0.561,0-0.841c-0.056-3.391-0.645-6.684-1.765-9.878c-1.346-3.559-2.088-7.23-2.229-11.013
		c-0.028-1.458,0.141-2.887,0.504-4.288c1.626-5.072,5.507-7.735,11.645-7.987c0.952,0,1.919,0.084,2.9,0.252
		c1.905,0.42,3.755,1.023,5.549,1.808c1.821,0.756,3.713,1.247,5.674,1.471c0.337,0.028,0.687,0.042,1.051,0.042
		c3.335,0.084,5.899-0.938,7.692-3.069c-0.309-0.308-0.645-0.658-1.009-1.051c-0.028,0-0.028,0,0,0
		c-0.168-0.14-0.309-0.28-0.421-0.42c-0.532-0.532-0.813-1.079-0.84-1.639c0-0.869,0.49-1.331,1.471-1.387
		c0.532,0.112,0.869,0.364,1.009,0.756l0,0c0.168-0.392,0.519-0.644,1.05-0.756C52.012,0.834,52.5,1.282,52.5,2.123
		c-0.027,0.588-0.293,1.135-0.798,1.639C51.534,3.93,51.38,4.099,51.24,4.267l0,0c-0.393,0.42-0.729,0.771-1.01,1.051
		c0.534,0.785,1.262,1.401,2.187,1.85c0.083,0.056,0.153,0.098,0.21,0.126c1.682,0.729,3.446,1.079,5.296,1.051
		c0.365,0,0.716-0.014,1.052-0.042c1.961-0.225,3.84-0.715,5.633-1.471c1.82-0.785,3.685-1.388,5.591-1.808
		c0.979-0.167,1.948-0.252,2.899-0.252c6.139,0.252,10.02,2.915,11.645,7.987c0.363,1.429,0.533,2.858,0.504,4.288
		c-0.141,3.755-0.883,7.426-2.227,11.013c-1.149,3.194-1.737,6.487-1.768,9.878c0,0.28,0,0.561,0,0.841
		c0.252,3.559,1.262,6.571,3.027,9.037c0.027,0.028,0.041,0.042,0.041,0.042c0.562,0.757,1.148,1.345,1.766,1.765
		c0.309-0.28,0.604-0.575,0.883-0.882c0,0,0.016,0,0.043,0c0.141-0.141,0.279-0.28,0.42-0.42c0.532-0.504,1.08-0.784,1.639-0.841
		c0.869,0.029,1.332,0.533,1.389,1.513c-0.111,0.533-0.363,0.869-0.757,1.009C89.701,50,89.688,50,89.659,50L89.659,50"/>
</g>
</svg>
