<svg xmlns="http://www.w3.org/2000/svg" xmlns:se="http://svg-edit.googlecode.com" xmlns:xlink="http://www.w3.org/1999/xlink" id="svgcontent" width="205.65" height="395.85" x="0" y="0" viewBox="0 0 205.65 395.85" overflow="hidden"><g mask="" style="pointer-events:all"><title style="pointer-events:inherit">Layer 1</title><image xmlns:xlink="http://www.w3.org/1999/xlink" x="3.9120134390642782" y="48.98013509750036" width="197.82596724226786" height="188.33032081463898" preserveAspectRatio="none" id="svg_1" display="null" xlink:href="http://allinonedesigner.designnbuy.in/media/uploadedImage/admin_o_1acc5p3oo1f87bir1h7t1m5dt1aa.png" origWidth="500" origHeight="476" style="pointer-events:inherit"/><g id="svg_2" type="text" text="FOOTBALL LEAGUE" font-size="16.858190280684287" font-family="Aldo" fill="003164" text-anchor="start" font-weight="normal" font-style="normal" lineHeight="1" shapeId="9" shapeVal="45" display="null" elemBBoxWidth="135.1015625" stroke="null" fill-opacity="1" style="pointer-events:inherit"><path id="svg_31" fill="#003164" stroke-width="0" d="M39.49818935302734,207.28585732421874 C39.49818935302734,207.28585732421874 35.27522935302734,196.28466732421876 35.27522935302734,196.28466732421876 C35.27522935302734,196.28466732421876 38.53308935302734,195.03408732421875 38.53308935302734,195.03408732421875 C38.53308935302734,195.03408732421875 42.75605935302735,206.03527732421875 42.75605935302735,206.03527732421875 C42.75605935302735,206.03527732421875 39.49818935302734,207.28585732421874 39.49818935302734,207.28585732421874 C39.49818935302734,207.28585732421874 39.49818935302734,207.28585732421874 39.49818935302734,207.28585732421874 M42.00256935302734,201.48508732421874 C42.00256935302734,201.48508732421874 41.01781935302734,198.91971732421877 41.01781935302734,198.91971732421877 C41.01781935302734,198.91971732421877 44.02385935302735,197.76580732421874 44.02385935302735,197.76580732421874 C44.02385935302735,197.76580732421874 45.00861935302734,200.33117732421874 45.00861935302734,200.33117732421874 C45.00861935302734,200.33117732421874 42.00256935302734,201.48508732421874 42.00256935302734,201.48508732421874 C42.00256935302734,201.48508732421874 42.00256935302734,201.48508732421874 42.00256935302734,201.48508732421874 M40.685539353027345,198.05410732421876 C40.685539353027345,198.05410732421876 39.39870935302734,194.70180732421875 39.39870935302734,194.70180732421875 C39.39870935302734,194.70180732421875 42.404759353027345,193.54789732421875 42.404759353027345,193.54789732421875 C42.404759353027345,193.54789732421875 43.69158935302734,196.90018732421876 43.69158935302734,196.90018732421876 C43.69158935302734,196.90018732421876 40.685539353027345,198.05410732421876 40.685539353027345,198.05410732421876 C40.685539353027345,198.05410732421876 40.685539353027345,198.05410732421876 40.685539353027345,198.05410732421876 M50.904809353027346,203.05842732421874 C48.86460935302735,203.54407732421876 46.62371935302734,202.37552732421875 45.930859353027344,200.24312732421876 C45.930859353027344,200.24312732421876 44.90459935302734,197.08460732421875 44.90459935302734,197.08460732421875 C44.195299353027345,195.01072732421875 45.391109353027346,192.69007732421875 47.279019353027344,191.89939732421874 C47.279019353027344,191.89939732421874 50.904809353027346,203.05842732421874 50.904809353027346,203.05842732421874 C50.904809353027346,203.05842732421874 50.904809353027346,203.05842732421874 50.904809353027346,203.05842732421874 M48.16083935302734,191.61287732421874 C50.104839353027344,191.15849732421876 52.41466935302734,192.37554732421876 53.04940935302734,194.43819732421875 C53.777519353027344,196.84275732421875 54.833529353027345,198.89261732421875 53.92995935302734,200.63971732421874 C53.44288935302734,201.59563732421876 52.76024935302735,202.33148732421876 51.786629353027344,202.77190732421874 C51.786629353027344,202.77190732421874 48.16083935302734,191.61287732421874 48.16083935302734,191.61287732421874 C48.16083935302734,191.61287732421874 48.16083935302734,191.61287732421874 48.16083935302734,191.61287732421874 M59.73486935302734,200.40273732421875 C57.67204935302735,200.78094732421874 55.49538935302735,199.49671732421876 54.915079353027345,197.33097732421874 C54.915079353027345,197.33097732421874 54.05552935302734,194.12307732421874 54.05552935302734,194.12307732421874 C53.45573935302734,192.01491732421874 54.77135935302734,189.76002732421875 56.69806935302734,189.06924732421874 C56.69806935302734,189.06924732421874 59.73486935302734,200.40273732421875 59.73486935302734,200.40273732421875 C59.73486935302734,200.40273732421875 59.73486935302734,200.40273732421875 59.73486935302734,200.40273732421875 M57.593669353027344,188.82926732421876 C59.55878935302734,188.47724732421875 61.80174935302735,189.81351732421874 62.32767935302734,191.90655732421874 C62.92894935302735,194.34592732421874 63.876219353027345,196.44824732421876 62.88245935302734,198.14565732421875 C62.34602935302735,199.07477732421876 61.62580935302734,199.77389732421875 60.630469353027344,200.16276732421875 C60.630469353027344,200.16276732421875 57.593669353027344,188.82926732421876 57.593669353027344,188.82926732421876 C57.593669353027344,188.82926732421876 57.593669353027344,188.82926732421876 57.593669353027344,188.82926732421876 M63.23423935302735,191.06030732421874 C63.23423935302735,191.06030732421874 62.48766935302734,187.54797732421875 62.48766935302734,187.54797732421875 C62.48766935302734,187.54797732421875 70.05648935302735,185.93917732421875 70.05648935302735,185.93917732421875 C70.05648935302735,185.93917732421875 70.80305935302735,189.45150732421874 70.80305935302735,189.45150732421874 C70.80305935302735,189.45150732421874 63.23423935302735,191.06030732421874 63.23423935302735,191.06030732421874 C63.23423935302735,191.06030732421874 63.23423935302735,191.06030732421874 63.23423935302735,191.06030732421874 M66.91644935302735,198.65374732421876 C66.91644935302735,198.65374732421876 65.40578935302734,191.54664732421875 65.40578935302734,191.54664732421875 C65.40578935302734,191.54664732421875 68.91811935302735,190.80007732421876 68.91811935302735,190.80007732421876 C68.91811935302735,190.80007732421876 70.42877935302735,197.90717732421876 70.42877935302735,197.90717732421876 C70.42877935302735,197.90717732421876 66.91644935302735,198.65374732421876 66.91644935302735,198.65374732421876 C66.91644935302735,198.65374732421876 66.91644935302735,198.65374732421876 66.91644935302735,198.65374732421876 M73.16804935302734,197.32422732421875 C73.16804935302734,197.32422732421875 71.32991935302735,185.71873732421875 71.32991935302735,185.71873732421875 C71.32991935302735,185.71873732421875 74.89315935302734,185.15436732421875 74.89315935302734,185.15436732421875 C74.89315935302734,185.15436732421875 76.73128935302734,196.75986732421876 76.73128935302734,196.75986732421876 C76.73128935302734,196.75986732421876 73.16804935302734,197.32422732421875 73.16804935302734,197.32422732421875 C73.16804935302734,197.32422732421875 73.16804935302734,197.32422732421875 73.16804935302734,197.32422732421875 M80.98702935302734,192.80870732421874 C81.30085935302733,194.79012732421876 79.88978935302734,196.54976732421875 77.56381935302734,196.62800732421874 C77.56381935302734,196.62800732421874 75.72568935302735,185.02250732421874 75.72568935302735,185.02250732421874 C75.72568935302735,185.02250732421874 76.72472935302734,184.86427732421876 76.72472935302734,184.86427732421876 C78.31791935302735,184.57780732421875 79.89687935302734,185.71025732421876 80.11674935302734,187.31399732421875 C80.29788935302734,188.56542732421875 79.65952935302735,189.70770732421875 78.79038935302734,190.25499732421875 C79.79402935302734,190.55688732421876 80.78132935302735,191.50995732421876 80.98702935302734,192.80870732421874 C80.98702935302734,192.80870732421874 80.98702935302734,192.80870732421874 80.98702935302734,192.80870732421874 M82.06246935302735,195.88959732421876 C82.06246935302735,195.88959732421876 83.66225935302734,186.55527732421876 83.66225935302734,186.55527732421876 C83.66225935302734,186.55527732421876 87.01573935302734,195.44514732421874 87.01573935302734,195.44514732421874 C87.01573935302734,195.44514732421874 82.06246935302735,195.88959732421876 82.06246935302735,195.88959732421876 C82.06246935302735,195.88959732421876 82.06246935302735,195.88959732421876 82.06246935302735,195.88959732421876 M83.96795935302734,184.86910732421876 C83.96795935302734,184.86910732421876 84.13243935302734,183.87264732421875 84.13243935302734,183.87264732421875 C84.13243935302734,183.87264732421875 87.70886935302735,183.55174732421875 87.70886935302735,183.55174732421875 C87.70886935302735,183.55174732421875 91.96900935302735,195.00070732421875 91.96900935302735,195.00070732421875 C91.96900935302735,195.00070732421875 88.19108935302734,195.33968732421874 88.19108935302734,195.33968732421874 C88.19108935302734,195.33968732421874 83.96795935302734,184.86910732421876 83.96795935302734,184.86910732421876 M92.62959935302734,194.91842732421875 C92.62959935302734,194.91842732421875 92.21893935302734,183.15857732421875 92.21893935302734,183.15857732421875 C92.21893935302734,183.15857732421875 95.80754935302734,183.03325732421874 95.80754935302734,183.03325732421874 C95.80754935302734,183.03325732421874 96.21820935302733,194.79310732421874 96.21820935302733,194.79310732421874 C96.21820935302733,194.79310732421874 92.62959935302734,194.91842732421875 92.62959935302734,194.91842732421875 C92.62959935302734,194.91842732421875 92.62959935302734,194.91842732421875 92.62959935302734,194.91842732421875 M97.14484935302735,194.76074732421876 C97.14484935302735,194.76074732421876 97.04188935302734,191.81236732421874 97.04188935302734,191.81236732421874 C97.04188935302734,191.81236732421874 100.15874935302735,191.70351732421875 100.15874935302735,191.70351732421875 C100.15874935302735,191.70351732421875 100.26170935302734,194.65190732421874 100.26170935302734,194.65190732421874 C100.26170935302734,194.65190732421874 97.14484935302735,194.76074732421876 97.14484935302735,194.76074732421876 C97.14484935302735,194.76074732421876 97.14484935302735,194.76074732421876 97.14484935302735,194.76074732421876 M100.93340935302734,194.59286732421876 C100.93340935302734,194.59286732421876 101.13877935302735,182.82763732421876 101.13877935302735,182.82763732421876 C101.13877935302735,182.82763732421876 104.72901935302734,182.89030732421875 104.72901935302734,182.89030732421875 C104.72901935302734,182.89030732421875 104.52365935302734,194.65552732421875 104.52365935302734,194.65552732421875 C104.52365935302734,194.65552732421875 100.93340935302734,194.59286732421876 100.93340935302734,194.59286732421876 C100.93340935302734,194.59286732421876 100.93340935302734,194.59286732421876 100.93340935302734,194.59286732421876 M105.45071935302734,194.67171732421875 C105.45071935302734,194.67171732421875 105.50220935302734,191.72197732421876 105.50220935302734,191.72197732421876 C105.50220935302734,191.72197732421876 108.62049935302734,191.77640732421875 108.62049935302734,191.77640732421875 C108.62049935302734,191.77640732421875 108.56899935302734,194.72614732421874 108.56899935302734,194.72614732421874 C108.56899935302734,194.72614732421874 105.45071935302734,194.67171732421875 105.45071935302734,194.67171732421875 C105.45071935302734,194.67171732421875 105.45071935302734,194.67171732421875 105.45071935302734,194.67171732421875 M114.17433935302735,194.99489732421875 C114.17433935302735,194.99489732421875 115.19988935302734,183.27265732421876 115.19988935302734,183.27265732421876 C115.19988935302734,183.27265732421876 118.77702935302734,183.58561732421876 118.77702935302734,183.58561732421876 C118.77702935302734,183.58561732421876 117.75145935302734,195.30785732421876 117.75145935302734,195.30785732421876 C117.75145935302734,195.30785732421876 114.17433935302735,194.99489732421875 114.17433935302735,194.99489732421875 C114.17433935302735,194.99489732421875 114.17433935302735,194.99489732421875 114.17433935302735,194.99489732421875 M118.67513935302735,195.38866732421874 C118.67513935302735,195.38866732421874 118.93225935302735,192.44970732421876 118.93225935302735,192.44970732421876 C118.93225935302735,192.44970732421876 122.03915935302734,192.72152732421875 122.03915935302734,192.72152732421875 C122.03915935302734,192.72152732421875 121.78202935302734,195.66048732421876 121.78202935302734,195.66048732421876 C121.78202935302734,195.66048732421876 118.67513935302735,195.38866732421874 118.67513935302735,195.38866732421874 C118.67513935302735,195.38866732421874 118.67513935302735,195.38866732421874 118.67513935302735,195.38866732421874 M122.43057935302734,195.74972732421875 C122.43057935302734,195.74972732421875 124.06822935302735,184.09722732421875 124.06822935302735,184.09722732421875 C124.06822935302735,184.09722732421875 127.62408935302734,184.59696732421875 127.62408935302734,184.59696732421875 C127.62408935302734,184.59696732421875 125.98642935302735,196.24946732421876 125.98642935302735,196.24946732421876 C125.98642935302735,196.24946732421876 122.43057935302734,195.74972732421875 122.43057935302734,195.74972732421875 C122.43057935302734,195.74972732421875 122.43057935302734,195.74972732421875 122.43057935302734,195.74972732421875 M126.90460935302734,196.37850732421876 C126.90460935302734,196.37850732421876 127.39261935302734,192.90612732421874 127.39261935302734,192.90612732421874 C127.39261935302734,192.90612732421874 130.63127935302734,193.36129732421875 130.63127935302734,193.36129732421875 C130.63127935302734,193.36129732421875 130.14326935302734,196.83367732421874 130.14326935302734,196.83367732421874 C130.14326935302734,196.83367732421874 126.90460935302734,196.37850732421876 126.90460935302734,196.37850732421876 C126.90460935302734,196.37850732421876 126.90460935302734,196.37850732421876 126.90460935302734,196.37850732421876 M127.52400935302734,191.97125732421875 C127.52400935302734,191.97125732421875 127.91112935302735,189.21672732421874 127.91112935302735,189.21672732421874 C127.91112935302735,189.21672732421874 131.14978935302736,189.67189732421875 131.14978935302736,189.67189732421875 C131.14978935302736,189.67189732421875 130.76266935302735,192.42642732421876 130.76266935302735,192.42642732421876 C130.76266935302735,192.42642732421876 127.52400935302734,191.97125732421875 127.52400935302734,191.97125732421875 C127.52400935302734,191.97125732421875 127.52400935302734,191.97125732421875 127.52400935302734,191.97125732421875 M128.03782935302735,188.31524732421875 C128.03782935302735,188.31524732421875 128.54225935302736,184.72600732421876 128.54225935302736,184.72600732421876 C128.54225935302736,184.72600732421876 131.78092935302735,185.18117732421874 131.78092935302735,185.18117732421874 C131.78092935302735,185.18117732421874 131.27648935302733,188.77040732421875 131.27648935302733,188.77040732421875 C131.27648935302733,188.77040732421875 128.03782935302735,188.31524732421875 128.03782935302735,188.31524732421875 C128.03782935302735,188.31524732421875 128.03782935302735,188.31524732421875 128.03782935302735,188.31524732421875 M130.76109935302736,196.90782732421874 C130.76109935302736,196.90782732421874 134.97191935302735,188.42503732421875 134.97191935302735,188.42503732421875 C134.97191935302735,188.42503732421875 135.63360935302734,197.90331732421876 135.63360935302734,197.90331732421876 C135.63360935302734,197.90331732421876 130.76109935302736,196.90782732421874 130.76109935302736,196.90782732421874 C130.76109935302736,196.90782732421874 130.76109935302736,196.90782732421874 130.76109935302736,196.90782732421874 M135.74857935302734,186.89747732421876 C135.74857935302734,186.89747732421876 136.19206935302736,185.99011732421874 136.19206935302736,185.99011732421874 C136.19206935302736,185.99011732421874 139.71018935302735,186.70888732421875 139.71018935302735,186.70888732421875 C139.71018935302735,186.70888732421875 140.50611935302734,198.89880732421875 140.50611935302734,198.89880732421875 C140.50611935302734,198.89880732421875 136.78979935302735,198.13953732421874 136.78979935302735,198.13953732421874 C136.78979935302735,198.13953732421874 135.74857935302734,186.89747732421876 135.74857935302734,186.89747732421876 M144.84279935302735,200.02376732421874 C142.88788935302733,199.30796732421874 141.61791935302733,197.01295732421875 142.23079935302735,194.85594732421876 C142.90476935302735,192.47095732421874 143.17014935302734,190.30809732421875 144.86319935302734,189.33060732421876 C145.81295935302734,188.78226732421874 146.79061935302735,188.52063732421874 147.87959935302734,188.69026732421875 C147.87959935302734,188.69026732421875 144.84279935302735,200.02376732421874 144.84279935302735,200.02376732421874 C144.84279935302735,200.02376732421874 144.84279935302735,200.02376732421874 144.84279935302735,200.02376732421874 M145.73840935302735,200.26373732421874 C145.73840935302735,200.26373732421874 147.61458935302733,193.26172732421875 147.61458935302733,193.26172732421875 C147.61458935302733,193.26172732421875 151.26214935302733,194.23908732421876 151.26214935302733,194.23908732421876 C150.60127935302734,196.57521732421876 150.36526935302734,198.69358732421875 148.69722935302735,199.64286732421874 C147.76811935302734,200.17929732421874 146.79482935302735,200.42463732421874 145.73840935302735,200.26373732421874 C145.73840935302735,200.26373732421874 145.73840935302735,200.26373732421874 145.73840935302735,200.26373732421874 M147.85455935302735,192.36611732421875 C147.85455935302735,192.36611732421875 148.77519935302735,188.93024732421875 148.77519935302735,188.93024732421875 C150.56727935302735,189.60240732421875 151.67587935302734,191.52257732421876 151.50212935302733,193.34347732421875 C151.50212935302733,193.34347732421875 147.85455935302735,192.36611732421875 147.85455935302735,192.36611732421875 C147.85455935302735,192.36611732421875 147.85455935302735,192.36611732421875 147.85455935302735,192.36611732421875 M153.70256935302734,202.60309732421877 C151.78780935302734,201.78596732421875 150.67175935302734,199.43805732421876 151.36461935302736,197.30565732421874 C151.36461935302736,197.30565732421874 153.67761935302735,190.18696732421876 153.67761935302735,190.18696732421876 C153.67761935302735,190.18696732421876 157.34919935302736,191.37993732421876 157.34919935302736,191.37993732421876 C157.34919935302736,191.37993732421876 153.70256935302734,202.60309732421877 153.70256935302734,202.60309732421877 C153.70256935302734,202.60309732421877 153.70256935302734,202.60309732421877 153.70256935302734,202.60309732421877 M154.58438935302735,202.88961732421876 C154.58438935302735,202.88961732421876 158.23101935302736,191.66645732421875 158.23101935302736,191.66645732421875 C158.23101935302736,191.66645732421875 161.90259935302734,192.85942732421876 161.90259935302734,192.85942732421876 C161.90259935302734,192.85942732421876 159.58959935302732,199.97811732421874 159.58959935302732,199.97811732421874 C158.92879935302733,202.12093732421874 156.59252935302734,203.36484732421874 154.58438935302735,202.88961732421876 C154.58438935302735,202.88961732421876 154.58438935302735,202.88961732421876 154.58438935302735,202.88961732421876 M158.88674935302734,204.30001732421874 C158.88674935302734,204.30001732421874 163.10366935302733,193.31455732421875 163.10366935302733,193.31455732421875 C163.10366935302733,193.31455732421875 166.45595935302734,194.60137732421876 166.45595935302734,194.60137732421876 C166.45595935302734,194.60137732421876 162.23903935302735,205.58683732421875 162.23903935302735,205.58683732421875 C162.23903935302735,205.58683732421875 158.88674935302734,204.30001732421874 158.88674935302734,204.30001732421874 C158.88674935302734,204.30001732421874 158.88674935302734,204.30001732421874 158.88674935302734,204.30001732421874 M163.10465935302733,205.91911732421875 C163.10465935302733,205.91911732421875 164.36127935302736,202.64551732421876 164.36127935302736,202.64551732421876 C164.36127935302736,202.64551732421876 167.41454935302735,203.81755732421874 167.41454935302735,203.81755732421874 C167.41454935302735,203.81755732421874 166.15791935302735,207.09115732421876 166.15791935302735,207.09115732421876 C166.15791935302735,207.09115732421876 163.10465935302733,205.91911732421875 163.10465935302733,205.91911732421875 C163.10465935302733,205.91911732421875 163.10465935302733,205.91911732421875 163.10465935302733,205.91911732421875 M164.69959935302734,201.76415732421876 C164.69959935302734,201.76415732421876 165.69643935302733,199.16730732421874 165.69643935302733,199.16730732421874 C165.69643935302733,199.16730732421874 168.74970935302736,200.33934732421875 168.74970935302736,200.33934732421875 C168.74970935302736,200.33934732421875 167.75286935302734,202.93619732421874 167.75286935302734,202.93619732421874 C167.75286935302734,202.93619732421874 164.69959935302734,201.76415732421876 164.69959935302734,201.76415732421876 C164.69959935302734,201.76415732421876 164.69959935302734,201.76415732421876 164.69959935302734,201.76415732421876 M166.02266935302734,198.31743732421876 C166.02266935302734,198.31743732421876 167.32157935302735,194.93365732421876 167.32157935302735,194.93365732421876 C167.32157935302735,194.93365732421876 170.37483935302734,196.10569732421874 170.37483935302734,196.10569732421874 C170.37483935302734,196.10569732421874 169.07593935302734,199.48946732421877 169.07593935302734,199.48946732421877 C169.07593935302734,199.48946732421877 166.02266935302734,198.31743732421876 166.02266935302734,198.31743732421876 C166.02266935302734,198.31743732421876 166.02266935302734,198.31743732421876 166.02266935302734,198.31743732421876 " style="pointer-events:inherit"/><rect id="svg_32" x="35.27695369720459" y="182.828125" width="135.09765625" height="24.45703125" fill="#003164" opacity="0" style="pointer-events:inherit"/></g><g type="text" text="2 0 1 6" font-size="25.15199658125597" font-family="Interceptor" fill="003164" text-anchor="start" font-weight="normal" font-style="normal" lineHeight="1" shapeId="0" shapeVal="45" display="null" elemBBoxWidth="92.00674438476562" stroke="null" id="svg_9" fill-opacity="1" style="pointer-events:inherit"><path id="svg_33" fill="#003164" stroke-width="0" d="M70.73369073242188,221.67333267578124 C70.73369073242188,224.88720267578125 71.71183073242187,229.42853267578124 68.35823073242187,229.42853267578124 C68.35823073242187,229.42853267578124 61.022230732421875,229.42853267578124 61.022230732421875,229.42853267578124 C61.022230732421875,229.42853267578124 61.022230732421875,233.34106267578125 61.022230732421875,233.34106267578125 C61.022230732421875,233.34106267578125 66.89103073242188,233.34106267578125 66.89103073242188,233.34106267578125 C66.89103073242188,233.34106267578125 66.89103073242188,230.89573267578126 66.89103073242188,230.89573267578126 C66.89103073242188,230.89573267578126 70.73369073242188,230.89573267578126 70.73369073242188,230.89573267578126 C70.73369073242188,230.89573267578126 70.73369073242188,235.85626267578124 70.73369073242188,235.85626267578124 C70.73369073242188,235.85626267578124 56.900100732421876,235.85626267578124 56.900100732421876,235.85626267578124 C57.24943073242187,232.22320267578124 55.57263073242187,226.42426267578125 59.345430732421875,226.42426267578125 C59.345430732421875,226.42426267578125 66.82116073242187,226.42426267578125 66.82116073242187,226.42426267578125 C66.82116073242187,226.42426267578125 66.82116073242187,222.65146267578126 66.82116073242187,222.65146267578126 C66.82116073242187,222.65146267578126 60.95236073242187,222.65146267578126 60.95236073242187,222.65146267578126 C60.95236073242187,222.65146267578126 60.95236073242187,224.88720267578125 60.95236073242187,224.88720267578125 C60.95236073242187,224.88720267578125 56.830230732421875,224.88720267578125 56.830230732421875,224.88720267578125 C56.900100732421876,222.79120267578125 56.969960732421875,220.13626267578124 59.06596073242187,220.13626267578124 C59.06596073242187,220.13626267578124 69.26649073242187,220.13626267578124 69.26649073242187,220.13626267578124 C69.96516073242188,220.34586267578126 70.73369073242188,220.90480267578124 70.73369073242188,221.67333267578124 C70.73369073242188,221.67333267578124 70.73369073242188,221.67333267578124 70.73369073242188,221.67333267578124 M89.03876073242188,233.34106267578125 C89.03876073242188,233.34106267578125 89.03876073242188,222.65146267578126 89.03876073242188,222.65146267578126 C89.03876073242188,222.65146267578126 95.04729073242187,222.65146267578126 95.04729073242187,222.65146267578126 C95.04729073242187,222.65146267578126 95.04729073242187,233.34106267578125 95.04729073242187,233.34106267578125 C95.04729073242187,233.34106267578125 89.03876073242188,233.34106267578125 89.03876073242188,233.34106267578125 C89.03876073242188,233.34106267578125 89.03876073242188,233.34106267578125 89.03876073242188,233.34106267578125 M96.51449073242188,220.13626267578124 C92.39236073242188,220.13626267578124 85.89476073242187,218.59920267578124 84.84676073242187,222.16240267578124 C84.98649073242187,226.21466267578126 84.49743073242188,230.89573267578126 85.05636073242188,234.52879267578126 C85.47556073242188,235.22746267578125 86.31396073242188,235.50693267578126 87.08249073242187,235.85626267578124 C87.08249073242187,235.85626267578124 97.49262073242187,235.85626267578124 97.49262073242187,235.85626267578124 C98.33103073242188,235.64666267578124 99.09956073242188,234.73839267578126 99.30916073242187,233.90000267578125 C99.30916073242187,233.90000267578125 99.30916073242187,222.65146267578126 99.30916073242187,222.65146267578126 C99.16942073242188,221.11440267578126 98.05156073242188,220.13626267578124 96.51449073242188,220.13626267578124 C96.51449073242188,220.13626267578124 96.51449073242188,220.13626267578124 96.51449073242188,220.13626267578124 M113.35235073242188,233.76026267578126 C113.35235073242188,233.76026267578126 113.35235073242188,235.85626267578124 113.35235073242188,235.85626267578124 C113.35235073242188,235.85626267578124 120.82809073242188,235.85626267578124 120.82809073242188,235.85626267578124 C120.82809073242188,235.85626267578124 120.82809073242188,233.76026267578126 120.82809073242188,233.76026267578126 C120.82809073242188,233.76026267578126 119.08142073242188,233.76026267578126 119.08142073242188,233.76026267578126 C119.08142073242188,233.76026267578126 119.08142073242188,220.13626267578124 119.08142073242188,220.13626267578124 C119.08142073242188,220.13626267578124 113.35235073242188,220.13626267578124 113.35235073242188,220.13626267578124 C113.35235073242188,220.13626267578124 113.35235073242188,222.30213267578125 113.35235073242188,222.30213267578125 C113.35235073242188,222.30213267578125 114.81956073242188,222.30213267578125 114.81956073242188,222.30213267578125 C114.81956073242188,222.30213267578125 114.81956073242188,233.76026267578126 114.81956073242188,233.76026267578126 C114.81956073242188,233.76026267578126 113.35235073242188,233.76026267578126 113.35235073242188,233.76026267578126 C113.35235073242188,233.76026267578126 113.35235073242188,233.76026267578126 113.35235073242188,233.76026267578126 M138.7139507324219,229.42853267578124 C138.7139507324219,229.42853267578124 138.7139507324219,233.34106267578125 138.7139507324219,233.34106267578125 C138.7139507324219,233.34106267578125 144.58274073242188,233.34106267578125 144.58274073242188,233.34106267578125 C144.58274073242188,233.34106267578125 144.58274073242188,229.42853267578124 144.58274073242188,229.42853267578124 C144.58274073242188,229.42853267578124 138.7139507324219,229.42853267578124 138.7139507324219,229.42853267578124 C138.7139507324219,229.42853267578124 138.7139507324219,229.42853267578124 138.7139507324219,229.42853267578124 M146.11981073242185,220.13626267578124 C148.14595073242188,220.41573267578124 149.0542107324219,222.30213267578125 148.7747407324219,224.88720267578125 C148.7747407324219,224.88720267578125 144.72248073242187,224.88720267578125 144.72248073242187,224.88720267578125 C144.72248073242187,224.88720267578125 144.72248073242187,222.65146267578126 144.72248073242187,222.65146267578126 C144.72248073242187,222.65146267578126 138.85368073242188,222.65146267578126 138.85368073242188,222.65146267578126 C138.85368073242188,222.65146267578126 138.85368073242188,226.49413267578126 138.85368073242188,226.49413267578126 C142.48674073242188,226.84346267578124 148.07608073242187,225.23653267578126 148.7747407324219,228.52026267578125 C148.70487073242188,231.59439267578125 149.47341073242188,235.36719267578124 146.32941073242188,235.85626267578124 C142.2771507324219,235.43706267578125 136.05902073242186,237.18373267578124 134.8712807324219,233.90000267578125 C134.8712807324219,233.90000267578125 134.94115073242187,223.55973267578125 134.94115073242187,223.55973267578125 C134.73155073242188,221.67333267578124 136.05902073242186,220.13626267578124 137.45635073242187,220.13626267578124 C137.45635073242187,220.13626267578124 146.11981073242185,220.13626267578124 146.11981073242185,220.13626267578124 C146.11981073242185,220.13626267578124 146.11981073242185,220.13626267578124 146.11981073242185,220.13626267578124 " style="pointer-events:inherit"/><rect id="svg_34" x="56.82314491271973" y="219.8046875" width="92.00390625" height="16.1484375" fill="#003164" opacity="0" style="pointer-events:inherit"/></g><g type="text" text="MCLEAN" font-size="28.376338936818943" font-family="Interceptor" fill="ffffff" text-anchor="start" font-weight="normal" font-style="normal" lineHeight="1" shapeId="9" shapeVal="100" display="null" elemBBoxWidth="147.2373504638672" stroke="null" id="svg_18" fill-opacity="1" style="pointer-events:inherit"><path id="svg_27" fill="#ffffff" stroke-width="0" d="M39.72241,66.10205C39.72241,66.10205 41.60267,68.22729 41.60267,68.22729C41.60267,68.22729 49.15911,61.54192 49.15911,61.54192C49.15911,61.54192 47.27885,59.41667 47.27885,59.41667C47.27885,59.41667 45.80299,60.72241 45.80299,60.72241C45.80299,60.72241 40.31889,54.52377 40.31889,54.52377C42.31705,53.80838 44.24036,54.31689 46.15906,53.98752C46.66758,52.06422 46.44948,50.15231 47.34402,48.30846C47.34402,48.30846 52.82811,54.5071 52.82811,54.5071C52.82811,54.5071 51.35224,55.81284 51.35224,55.81284C51.35224,55.81284 53.23251,57.93808 53.23251,57.93808C53.23251,57.93808 60.78895,51.25271 60.78895,51.25271C60.78895,51.25271 58.90868,49.12746 58.90868,49.12746C58.90868,49.12746 57.25571,50.58989 57.25571,50.58989C57.25571,50.58989 45.08624,36.8348 45.08624,36.8348C45.08624,36.8348 44.73204,37.14818 44.73204,37.14818C44.73204,37.14818 42.29409,49.61896 42.29409,49.61896C42.29409,49.61896 29.56012,50.57116 29.56012,50.57116C29.56012,50.57116 29.20591,50.88454 29.20591,50.88454C29.20591,50.88454 41.37538,64.63962 41.37538,64.63962C41.37538,64.63962 39.72241,66.10205 39.72241,66.10205C39.72241,66.10205 39.72241,66.10205 39.72241,66.10205M64.82452,49.71585C69.57667,47.01368 78.31916,45.73729 77.87382,41.02235C77.87382,41.02235 76.21778,37.27301 76.21778,37.27301C76.21778,37.27301 71.45901,39.37492 71.45901,39.37492C71.45901,39.37492 72.82844,42.47532 72.82844,42.47532C72.82844,42.47532 65.54607,45.69187 65.54607,45.69187C65.54607,45.69187 59.71807,32.4971 59.71807,32.4971C59.71807,32.4971 67.00043,29.28055 67.00043,29.28055C67.00043,29.28055 68.21062,32.02045 68.21062,32.02045C68.21062,32.02045 73.2578,29.79116 73.2578,29.79116C73.2578,29.79116 71.6336,26.11393 71.6336,26.11393C70.79539,25.19163 69.38035,24.5241 67.93829,25.16104C67.93829,25.16104 56.04137,30.41579 56.04137,30.41579C54.52721,31.08458 53.98708,32.78803 54.59217,34.15798C54.59217,34.15798 60.92972,48.50639 60.92972,48.50639C61.75112,49.7808 63.43113,50.07278 64.82452,49.71585C64.82452,49.71585 64.82452,49.71585 64.82452,49.71585M80.34448,39.54341C80.34448,39.54341 80.82249,42.73959 80.82249,42.73959C80.82249,42.73959 99.14207,39.99973 99.14207,39.99973C99.14207,39.99973 98.09277,32.98373 98.09277,32.98373C98.09277,32.98373 92.94769,33.75322 92.94769,33.75322C92.94769,33.75322 93.49567,37.41714 93.49567,37.41714C93.49567,37.41714 88.03877,38.23326 88.03877,38.23326C88.03877,38.23326 85.82357,23.42169 85.82357,23.42169C85.82357,23.42169 88.08427,23.08358 88.08427,23.08358C88.08427,23.08358 87.66456,20.27718 87.66456,20.27718C87.66456,20.27718 77.68623,21.76953 77.68623,21.76953C77.68623,21.76953 78.10596,24.57593 78.10596,24.57593C78.10596,24.57593 80.1328,24.2728 80.1328,24.2728C80.1328,24.2728 82.37133,39.24028 82.37133,39.24028C82.37133,39.24028 80.34448,39.54341 80.34448,39.54341C80.34448,39.54341 80.34448,39.54341 80.34448,39.54341M102.11387,37.0638C102.11387,37.0638 101.79082,39.88297 101.79082,39.88297C101.79082,39.88297 120.82021,42.06351 120.82021,42.06351C120.82021,42.06351 121.59192,35.32883 121.59192,35.32883C121.59192,35.32883 116.42345,34.73658 116.42345,34.73658C116.42345,34.73658 116.03759,38.10392 116.03759,38.10392C116.03759,38.10392 109.85108,37.39503 109.85108,37.39503C109.85108,37.39503 110.47922,31.91331 110.47922,31.91331C110.47922,31.91331 115.88263,32.53247 115.88263,32.53247C115.88263,32.53247 116.31335,28.77358 116.31335,28.77358C116.31335,28.77358 110.90994,28.15442 110.90994,28.15442C110.90994,28.15442 111.49322,23.06425 111.49322,23.06425C111.49322,23.06425 117.67973,23.77315 117.67973,23.77315C117.67973,23.77315 117.38361,26.35739 117.38361,26.35739C117.38361,26.35739 122.55208,26.94963 122.55208,26.94963C122.55208,26.94963 123.23405,20.99806 123.23405,20.99806C123.23405,20.99806 104.20467,18.81752 104.20467,18.81752C104.20467,18.81752 103.88162,21.63669 103.88162,21.63669C103.88162,21.63669 105.52615,21.82513 105.52615,21.82513C105.52615,21.82513 104.88006,27.46347 104.88006,27.46347C104.88006,27.46347 102.21751,27.15837 102.21751,27.15837C102.21751,27.15837 101.78678,30.91726 101.78678,30.91726C101.78678,30.91726 104.44933,31.22236 104.44933,31.22236C104.44933,31.22236 103.75838,37.25224 103.75838,37.25224C103.75838,37.25224 102.11387,37.0638 102.11387,37.0638C102.11387,37.0638 102.11387,37.0638 102.11387,37.0638M135.75431,24.91882C134.57937,24.64801 133.00133,24.88712 132.48258,26.03665C132.48258,26.03665 130.14812,31.20952 130.14812,31.20952C130.14812,31.20952 127.56168,30.04229 127.56168,30.04229C127.56168,30.04229 125.90811,33.70641 125.90811,33.70641C125.90811,33.70641 128.35087,34.80879 128.35087,34.80879C128.35087,34.80879 125.91913,40.1972 125.91913,40.1972C125.91913,40.1972 124.12299,39.38662 124.12299,39.38662C124.12299,39.38662 122.79365,42.33228 122.79365,42.33228C122.79365,42.33228 131.98988,46.48242 131.98988,46.48242C131.98988,46.48242 133.31921,43.53676 133.31921,43.53676C133.31921,43.53676 131.45124,42.69376 131.45124,42.69376C131.45124,42.69376 133.88296,37.30536 133.88296,37.30536C133.88296,37.30536 140.34905,40.22342 140.34905,40.22342C140.34905,40.22342 137.91732,45.61183 137.91732,45.61183C137.91732,45.61183 136.04934,44.76883 136.04934,44.76883C136.04934,44.76883 134.71999,47.7145 134.71999,47.7145C134.71999,47.7145 143.91622,51.86463 143.91622,51.86463C143.91622,51.86463 145.24555,48.91897 145.24555,48.91897C145.24555,48.91897 143.30573,48.04355 143.30573,48.04355C143.30573,48.04355 149.72549,33.81816 149.72549,33.81816C149.95686,32.53894 149.40494,31.07918 148.11173,30.49557C148.11173,30.49557 135.75431,24.91882 135.75431,24.91882C135.75431,24.91882 135.75431,24.91882 135.75431,24.91882M135.53654,33.64124C136.36111,32.19733 136.7196,29.67832 138.09609,29.69417C138.09609,29.69417 143.26896,32.02862 143.26896,32.02862C144.19152,33.05031 142.5398,34.98571 142.00262,36.55931C142.00262,36.55931 135.53654,33.64124 135.53654,33.64124C135.53654,33.64124 135.53654,33.64124 135.53654,33.64124M146.89199,50.34982C146.89199,50.34982 144.97492,52.44193 144.97492,52.44193C144.97492,52.44193 152.18108,59.04515 152.18108,59.04515C152.18108,59.04515 153.88514,57.1855 153.88514,57.1855C153.88514,57.1855 152.43227,55.8542 152.43227,55.8542C152.43227,55.8542 157.81071,49.98468 157.81071,49.98468C157.81071,49.98468 159.85215,66.07439 159.85215,66.07439C159.85215,66.07439 160.4914,66.66016 160.4914,66.66016C160.4914,66.66016 172.68607,53.35202 172.68607,53.35202C172.68607,53.35202 174.31327,54.84307 174.31327,54.84307C174.31327,54.84307 176.44334,52.51851 176.44334,52.51851C176.44334,52.51851 169.23717,45.91528 169.23717,45.91528C169.23717,45.91528 167.32012,48.00739 167.32012,48.00739C167.32012,48.00739 168.83108,49.39194 168.83108,49.39194C168.83108,49.39194 164.03843,54.62221 164.03843,54.62221C164.03843,54.62221 161.74046,39.04579 161.74046,39.04579C161.74046,39.04579 160.92686,38.30027 160.92686,38.30027C160.92686,38.30027 148.51919,51.84087 148.51919,51.84087C148.51919,51.84087 146.89199,50.34982 146.89199,50.34982C146.89199,50.34982 146.89199,50.34982 146.89199,50.34982" style="pointer-events:inherit"/><rect id="svg_28" x="29.204875317709934" y="18.81640624301508" width="147.23735525971279" height="49.41015583695844" fill="#ffffff" opacity="0" style="pointer-events:inherit"/></g></g><defs><mask id="canvasMaskImageDef" maskUnits="objectBoundingBox" x="0" y="0"><image xmlns:xlink="http://www.w3.org/1999/xlink" id="canvasMaskImage" preserveAspectRatio="none" x="-103.65" y="-36.45" width="400" height="440.0580551523948" xlink:href="http://allinonedesigner.designnbuy.in/media/catalog/product/w/h/white-tees-1_-front_1_3.png"/></mask></defs></svg>