<?xml version="1.0" encoding="utf-8"?>
<!-- Generator: Adobe Illustrator 16.0.3, SVG Export Plug-In . SVG Version: 6.00 Build 0)  -->
<!DOCTYPE svg PUBLIC "-//W3C//DTD SVG 1.1 Tiny//EN" "http://www.w3.org/Graphics/SVG/1.1/DTD/svg11-tiny.dtd">
<svg version="1.1" baseProfile="tiny" id="Layer_1" xmlns="http://www.w3.org/2000/svg" xmlns:xlink="http://www.w3.org/1999/xlink"
	 x="0px" y="0px" width="317.897px" height="91.313px" viewBox="0 0 317.897 91.313" xml:space="preserve">
<path fill-rule="evenodd" fill="#817DA8" d="M311.283,46.619c-1.979-4.161-4.469-8.037-7.557-11.7
	c-0.373-0.441-0.75-0.879-1.141-1.314c-6.631-7.428-15.141-12.369-23.887-16.988c-2.301-1.213-28.678-13.301-28.91-12.606
	c-0.833,2.476-1.552,4.618-2.215,6.609c-0.533,1.016-1.003,1.903-1.217,2.435c-1.196,2.964-2.241,6.001-3.315,9.014
	c-0.65-0.246-1.163-0.435-1.487-0.537c-6.402-2.014-12.834-4.24-19.365-5.818c-13.914-3.361-28.104-5.561-42.385-6.545
	c-28.305-1.947-56.808,0.955-84.282,7.936c-6.788,1.724-13.656,3.57-20.319,5.846c-0.492-1.115-1.117-2.327-1.783-3.584
	c-1.362-4.37-2.611-8.337-4.42-14.053c0.132,0.428-29.429,12.46-31.591,13.478c-10.482,4.932-22.105,11.068-28.79,20.84
	c-0.13,0.19-0.278,0.406-0.435,0.634c0.016-0.214,0.022-0.422,0.051-0.642c-5.949,5.563-6.427,13.174-6.123,20.612
	c0.303,7.492,0.072,15.924,8.627,18.588c9.437,2.936,19.185,4.404,28.59,7.91c-5.736-6.932-8.67-10.33-14.765-16.969
	c9.1-5.123,13.899-7.346,23.545-11.244c-2.078,0.842-9.472-2.182-11.866-2.635c-2.894-0.547-7.255-1.054-11.683-2.008
	c1.208,0.168,2.416,0.341,3.623,0.518c9.278-6.492,19.099-12.271,29.278-17.348c0.923,2.034,1.932,4.073,2.684,6.037
	c2.09,5.459,3.796,11.157,6.79,16.252c1.201,2.045,3.227,5.85,5.927,6.215c2.951,0.396,7.253-3.568,10.127-4.557
	c27.089-9.311,55.694-14.266,84.369-13.627c17.42,0.389,34.783,2.865,51.629,7.313c8.613,2.273,17.174,7.293,26.324,6.979
	c5.756-0.199,6.336-3.344,8.33-8.225c2.09-5.109,4.16-10.229,6.27-15.331c0.347-0.837,0.646-1.587,0.909-2.282
	c10.295,5.405,20.02,11.753,28.556,19.158c1.574-0.065,3.021-0.119,4.399-0.156c-1.079,0.075-2.127,0.136-3.106,0.215
	c-3.828,0.309-7.631,0.529-11.441,1.064c-1.896,0.266-7.992,2.432-9.576,1.68c9.146,4.338,13.717,6.859,21.355,12.793
	c-6.318,5.994-9.299,9.201-14.994,15.764c6.752-2.371,14.01-4.596,21.188-5.168c7.143-0.568,9.994-1.877,12.771-9.139
	c1.416-3.709,4.191-7.861,5.049-11.598C315.905,56.576,313.868,51.298,311.283,46.619z"/>
<path fill="#FFE9B8" d="M311.283,46.619l1.354-0.645c-2.033-4.275-4.596-8.265-7.765-12.022l-0.001-0.001
	c-0.379-0.449-0.766-0.897-1.17-1.348l0.003,0.002c-6.843-7.659-15.529-12.677-24.306-17.315c-0.334-0.176-0.963-0.479-1.874-0.911
	c-3.17-1.5-9.573-4.439-15.378-7.011c-2.902-1.286-5.651-2.479-7.779-3.356c-1.064-0.439-1.972-0.799-2.681-1.057
	c-0.355-0.129-0.66-0.233-0.929-0.313c-0.135-0.04-0.261-0.074-0.393-0.102c-0.137-0.027-0.265-0.056-0.498-0.059
	c-0.126,0.003-0.285,0.001-0.563,0.096c-0.138,0.05-0.312,0.132-0.494,0.29c-0.182,0.154-0.359,0.402-0.446,0.67l0.002-0.006
	c-0.833,2.477-1.553,4.62-2.216,6.613l1.423,0.474l-1.328-0.697c-0.266,0.507-0.519,0.986-0.737,1.417
	c-0.22,0.433-0.402,0.808-0.543,1.155l0.001-0.001c-1.216,3.013-2.267,6.069-3.338,9.071l1.413,0.504l0.531-1.403
	c-0.66-0.25-1.177-0.441-1.568-0.565c-6.375-2.004-12.838-4.244-19.463-5.846c-13.995-3.381-28.268-5.593-42.634-6.583
	c-5.812-0.4-11.631-0.596-17.447-0.596c-22.684,0-45.326,2.99-67.308,8.575c-6.802,1.728-13.708,3.583-20.435,5.88l0.485,1.419
	l1.373-0.605c-0.519-1.177-1.159-2.415-1.83-3.681l-1.325,0.702l1.432-0.446c-1.363-4.372-2.613-8.343-4.422-14.059l-2.863,0.897
	l1.423-0.442H67.5c0,0.136,0.019,0.288,0.067,0.442l1.423-0.442H67.5h1.483L67.608,4.76c-0.052,0.132-0.106,0.315-0.107,0.555h1.483
	L67.608,4.76l1.342,0.542l-1.069-0.977C67.818,4.4,67.719,4.499,67.608,4.76l1.342,0.542l-1.069-0.977l0.882,0.806l-0.686-0.981
	c-0.024,0.021-0.068,0.04-0.196,0.175l0.882,0.806l-0.686-0.981l0.25,0.358l-0.234-0.369l-0.017,0.011l0.25,0.358l-0.234-0.369
	c-0.007,0.007-0.215,0.121-0.497,0.256c-1.088,0.528-3.475,1.568-6.418,2.819c-4.423,1.879-10.144,4.256-14.942,6.248
	c-2.399,0.996-4.567,1.896-6.23,2.591c-0.832,0.348-1.537,0.644-2.083,0.876c-0.55,0.234-0.926,0.397-1.155,0.504
	c-5.265,2.478-10.857,5.273-16.013,8.715c-5.154,3.442-9.885,7.535-13.376,12.636l0,0c-0.128,0.188-0.276,0.403-0.434,0.632
	l1.237,0.849l1.496,0.113c0.019-0.259,0.025-0.435,0.043-0.563l0.531-4.133L7.21,38.526c-2.772,2.587-4.465,5.632-5.431,8.819
	c-0.969,3.19-1.236,6.522-1.237,9.813c0,1.051,0.028,2.098,0.07,3.137v-0.001c0.157,3.712,0.148,7.798,1.285,11.489
	c0.572,1.843,1.453,3.601,2.825,5.082c1.369,1.483,3.216,2.659,5.57,3.389h0c9.584,2.974,19.299,4.442,28.512,7.883l5.255,1.959
	l-3.575-4.32c-5.74-6.938-8.712-10.379-14.815-17.027l-1.105,1.015l0.736,1.307c9.07-5.104,13.742-7.266,23.371-11.16l-1.125-2.781
	l0.011,0.028l-0.009-0.028h-0.002l0.011,0.028l-0.009-0.028c-0.015,0.007-0.171,0.04-0.409,0.038
	c-0.501,0.003-1.33-0.122-2.259-0.34c-1.402-0.325-3.056-0.841-4.556-1.317c-0.751-0.238-1.466-0.466-2.106-0.657
	c-0.643-0.191-1.199-0.347-1.696-0.441h0c-2.986-0.563-7.302-1.063-11.646-2.001l-0.316,1.467l-0.207,1.485
	c1.205,0.168,2.408,0.34,3.612,0.517l0.589,0.086l0.488-0.342c9.213-6.446,18.97-12.188,29.088-17.234l-0.669-1.342l-1.366,0.62
	c0.938,2.064,1.934,4.083,2.649,5.954c2.068,5.386,3.787,11.17,6.897,16.476c0.588,0.996,1.423,2.525,2.52,3.91
	c0.552,0.693,1.172,1.358,1.906,1.908c0.731,0.547,1.596,0.987,2.594,1.123h0.001c0.211,0.028,0.42,0.041,0.627,0.041
	c1.045-0.004,2.016-0.306,2.956-0.704c1.406-0.604,2.767-1.463,4.03-2.238c1.251-0.775,2.425-1.464,3.202-1.723
	c25.389-8.727,52.106-13.601,78.939-13.601c1.636,0,3.271,0.018,4.908,0.055c17.3,0.386,34.547,2.846,51.279,7.263
	c4.038,1.063,8.173,2.794,12.455,4.289c4.283,1.49,8.73,2.751,13.426,2.753c0.291,0,0.584-0.005,0.878-0.015
	c1.571-0.055,2.886-0.312,4.009-0.812c0.84-0.373,1.559-0.887,2.146-1.49c0.886-0.909,1.479-1.981,1.996-3.125
	c0.518-1.148,0.967-2.389,1.516-3.729c2.091-5.113,4.16-10.23,6.267-15.325c0.351-0.847,0.656-1.61,0.927-2.325l-1.403-0.53
	l-0.697,1.328c10.211,5.361,19.84,11.65,28.271,18.962l0.449,0.391l0.596-0.024c1.57-0.065,3.01-0.119,4.377-0.156l-0.04-1.499
	l-0.104-1.496c-1.067,0.074-2.119,0.135-3.123,0.216c-3.805,0.308-7.639,0.528-11.529,1.074c-0.537,0.077-1.148,0.229-1.872,0.416
	c-1.074,0.28-2.354,0.641-3.562,0.926c-1.196,0.287-2.35,0.487-2.974,0.481c-0.14,0-0.247-0.01-0.307-0.02l-0.049-0.01l-0.07,0.246
	l0.109-0.23l-0.039-0.016l-0.07,0.246l0.109-0.23l-1.286,2.711c4.561,2.163,7.945,3.857,11.123,5.734s6.167,3.945,9.955,6.888
	l0.92-1.185l-1.032-1.088c-6.34,6.013-9.394,9.298-15.095,15.868l-3.708,4.273l5.338-1.875c6.71-2.358,13.858-4.536,20.81-5.088
	c1.822-0.146,3.41-0.338,4.85-0.684c2.15-0.508,4.005-1.419,5.501-2.973c1.499-1.55,2.623-3.626,3.703-6.441
	c0.657-1.728,1.685-3.665,2.676-5.657c0.989-1.998,1.95-4.05,2.434-6.141c0.172-0.752,0.248-1.526,0.248-2.313
	c-0.003-2.036-0.496-4.16-1.248-6.288c-0.754-2.128-1.775-4.26-2.888-6.274L311.283,46.619l1.354-0.645L311.283,46.619l-1.313,0.725
	c1.055,1.908,2.007,3.908,2.686,5.825c0.681,1.916,1.078,3.75,1.076,5.287c0,0.595-0.058,1.145-0.172,1.643
	c-0.374,1.645-1.229,3.537-2.196,5.477c-0.965,1.945-2.033,3.938-2.792,5.921c-0.668,1.75-1.327,3.095-2.009,4.114
	c-1.034,1.528-2.048,2.343-3.484,2.945c-1.437,0.596-3.37,0.913-5.996,1.119c-7.404,0.593-14.771,2.864-21.565,5.248l0.497,1.415
	l1.133,0.983c5.689-6.555,8.597-9.684,14.894-15.659l1.267-1.201l-1.379-1.071c-3.851-2.991-6.966-5.15-10.27-7.102
	c-3.304-1.952-6.777-3.688-11.363-5.862l-1.286,2.711c0.581,0.264,1.085,0.295,1.604,0.303c0.75-0.003,1.543-0.12,2.386-0.283
	c1.258-0.247,2.608-0.607,3.793-0.925c0.591-0.158,1.14-0.306,1.603-0.421c0.459-0.114,0.843-0.196,1.043-0.224
	c3.73-0.524,7.503-0.745,11.354-1.055c0.956-0.077,2-0.138,3.091-0.214l-0.145-2.995c-1.389,0.037-2.844,0.091-4.422,0.156
	l0.063,1.499l0.982-1.133c-8.642-7.496-18.462-13.904-28.841-19.353l-1.501-0.788l-0.6,1.586c-0.255,0.676-0.549,1.411-0.892,2.239
	c-2.112,5.109-4.184,10.231-6.272,15.336c-0.51,1.25-0.92,2.36-1.322,3.29c-0.301,0.698-0.596,1.291-0.907,1.773
	c-0.474,0.726-0.945,1.195-1.632,1.561c-0.688,0.36-1.661,0.618-3.132,0.67c-0.259,0.009-0.517,0.013-0.774,0.013
	c-4.146,0.003-8.271-1.131-12.438-2.586c-4.167-1.449-8.361-3.215-12.677-4.356c-16.959-4.477-34.438-6.971-51.979-7.362
	c-1.658-0.037-3.316-0.056-4.975-0.056c-27.197,0-54.239,4.939-79.915,13.763c-0.855,0.297-1.683,0.744-2.529,1.238
	c-1.263,0.741-2.561,1.598-3.76,2.242c-1.191,0.654-2.293,1.04-2.923,1.022l-0.228-0.014h0.001c-0.352-0.047-0.753-0.219-1.2-0.553
	c-0.667-0.493-1.377-1.336-1.999-2.253c-0.627-0.917-1.174-1.894-1.636-2.683c-2.876-4.886-4.57-10.497-6.683-16.029
	c-0.789-2.057-1.811-4.116-2.719-6.12l-0.643-1.417l-1.393,0.694c-10.242,5.107-20.126,10.923-29.469,17.461l0.86,1.229l0.217-1.484
	c-1.21-0.177-2.421-0.351-3.634-0.519l-0.522,2.952c4.513,0.971,8.918,1.483,11.721,2.015h0c0.394,0.073,1.147,0.287,2.026,0.562
	c1.33,0.413,2.99,0.963,4.61,1.416c0.811,0.227,1.613,0.43,2.374,0.58c0.763,0.148,1.479,0.249,2.165,0.251
	c0.505-0.004,1-0.047,1.533-0.257l-1.125-2.781c-9.662,3.902-14.589,6.186-23.719,11.328l-1.648,0.928l1.279,1.394
	c6.085,6.629,8.982,9.984,14.714,16.91l1.156-0.956l0.524-1.405c-9.599-3.571-19.379-5.04-28.669-7.938h0
	c-1.923-0.603-3.255-1.479-4.26-2.561c-1.498-1.615-2.298-3.8-2.727-6.371c-0.431-2.562-0.475-5.448-0.588-8.284v-0.001
	c-0.041-1.009-0.067-2.016-0.067-3.014c-0.001-3.128,0.262-6.166,1.107-8.94c0.849-2.777,2.251-5.291,4.609-7.501l-1.024-1.096
	l-1.488-0.191c-0.039,0.312-0.045,0.552-0.059,0.721L6.27,45.707l3.151-4.594c0.156-0.228,0.305-0.444,0.437-0.636l0,0
	c3.193-4.67,7.616-8.532,12.565-11.834c4.947-3.303,10.408-6.042,15.625-8.495c0.209-0.099,0.919-0.405,1.92-0.826
	c3.528-1.485,10.937-4.539,17.459-7.272c3.263-1.367,6.305-2.654,8.542-3.63c1.119-0.489,2.035-0.898,2.691-1.208
	c0.33-0.156,0.591-0.285,0.806-0.403c0.11-0.061,0.204-0.113,0.327-0.198c0.063-0.046,0.133-0.093,0.249-0.206
	c0.058-0.059,0.131-0.134,0.225-0.279c0.085-0.145,0.226-0.379,0.235-0.811c0-0.138-0.02-0.292-0.068-0.448L67.57,5.765
	c1.81,5.714,3.058,9.679,4.418,14.046l0.042,0.133l0.065,0.123c0.661,1.247,1.271,2.433,1.735,3.487l0.555,1.259l1.302-0.445
	c6.6-2.254,13.429-4.091,20.204-5.812c21.753-5.527,44.149-8.482,66.569-8.482c5.749,0,11.499,0.194,17.241,0.589
	c14.195,0.979,28.302,3.165,42.135,6.506c6.438,1.555,12.838,3.768,19.268,5.791c0.257,0.08,0.766,0.267,1.406,0.509l1.431,0.541
	l0.514-1.44c1.077-3.023,2.116-6.041,3.293-8.956l0.001-0.001c0.073-0.185,0.232-0.519,0.435-0.917
	c0.203-0.4,0.451-0.872,0.719-1.381l0.057-0.108l0.038-0.115c0.662-1.989,1.381-4.129,2.214-6.604l0.001-0.005l0.001-0.001
	l-1.396-0.463l0.967,1.108c0.174-0.147,0.347-0.386,0.43-0.645l-1.396-0.463l0.967,1.108l-0.945-1.084l0.318,1.404
	c0.14-0.035,0.361-0.095,0.627-0.32l-0.945-1.084l0.318,1.404l-0.288-1.27v1.303c0.061-0.001,0.145-0.002,0.288-0.033l-0.288-1.27
	v1.303V4.598l-0.132,0.875l0.132,0.009V4.598l-0.132,0.875l0.019-0.124l-0.024,0.123l0.006,0.001l0.019-0.124l-0.024,0.123
	c0.029,0.004,0.248,0.063,0.533,0.161c1.101,0.374,3.321,1.284,5.987,2.431c4.01,1.725,9.084,4.002,13.342,5.947
	c2.129,0.973,4.055,1.862,5.54,2.558c0.743,0.348,1.376,0.647,1.868,0.883c0.489,0.234,0.847,0.411,0.999,0.491
	c8.715,4.6,17.048,9.464,23.467,16.661l0.009,0.01l-0.007-0.007c0.378,0.421,0.745,0.847,1.112,1.281l-0.001-0.001
	c3.007,3.568,5.423,7.331,7.349,11.377l0.02,0.041l0.021,0.04L311.283,46.619z"/>
</svg>
