<?xml version="1.0" encoding="utf-8"?>
<!-- Generator: Adobe Illustrator 16.0.0, SVG Export Plug-In . SVG Version: 6.00 Build 0)  -->
<!DOCTYPE svg PUBLIC "-//W3C//DTD SVG 1.1//EN" "http://www.w3.org/Graphics/SVG/1.1/DTD/svg11.dtd">
<svg version="1.1" id="Layer_1" xmlns="http://www.w3.org/2000/svg" xmlns:xlink="http://www.w3.org/1999/xlink" x="0px" y="0px"
	 width="595.275px" height="510.236px" viewBox="0 0 595.275 510.236" enable-background="new 0 0 595.275 510.236"
	 xml:space="preserve">
<path fill="#72706F" d="M236.854,201.154c9.121,2.641,20.521,7.08,34.082,13.441l-17.161,14.401
	c34.922,4.2,61.804,5.879,80.766,4.919c24.241-1.44,39.243-2.88,45.003-4.2c16.44-4.201,24.601-13.321,24.601-27.122
	c0-13.082-12.24-31.322-36.841-54.484l-36.964-34.082c0-3.48,10.44-7.201,31.322-10.921c7.081-1.199,17.042-1.44,29.882-0.72
	c1.2-13.08,1.681-23.52,1.44-31.322c-1.199-44.283-20.641-66.844-58.443-67.804c-16.082-0.72-29.643,3.24-40.443,12
	c-11.642,9.36-17.521,22.563-17.521,39.723c0,25.081,11.161,39.723,33.362,43.923l-3.12,4.2l-18.962-8.399
	c-1.68-0.72-3.84-1.08-6.72-1.08c-15.721,0-34.082,11.28-55.204,33.722c-19.92,21.602-29.882,39.122-29.882,52.803
	c0,5.521,5.521,10.441,16.562,14.761C220.532,196.955,228.693,199.115,236.854,201.154L236.854,201.154z M7.278,385.486
	c-1.44,7.2-2.16,14.641-2.16,22.082c0,22.801,6.48,41.882,19.2,57.363c12.721,15.48,28.683,23.162,47.644,23.162
	c25.801,0,48.363-7.44,67.805-22.201c17.4-13.082,28.322-28.683,32.763-46.685c-0.48,4.922-0.48,8.401,0,10.562
	c1.559,12.601,27.361,24.122,77.284,34.441c40.563,8.401,79.326,10.801,116.048,6.962c-6.361-0.24-9.481-11.4-9.481-33.723
	c0-15.961,1.801-30.843,5.28-44.643c6.841-28.322,20.763-61.445,41.883-99.127c11.642-1.68,29.042-4.681,51.964-9.121
	c11.761-3.359,23.401-6.721,34.802-10.2c15.481-4.201,31.683-6.36,48.604-6.36c13.082,0,22.682,4.201,28.802,12.6
	c2.04-6.72,3.001-12.119,2.76-16.08c-1.559-36.123-24.24-71.765-67.804-106.927c-17.401-13.801-37.802-25.801-61.203-35.881
	c-21.362-9.121-38.163-13.802-50.645-14.042c-31.683-1.2-47.403,1.2-47.403,7.08c0,0.48,11.4,11.4,34.442,33.002
	c22.922,21.602,34.443,39.603,34.443,54.124c0,26.282-25.322,39.603-75.965,40.083c-34.443,0.479-64.326-1.44-89.646-6.001
	c-6.12,5.881-12.001,12.601-17.641,20.043c-13.562,18.119-25.202,38.281-35.042,60.483c-7.561,16.921-13.082,35.522-16.562,55.923
	c0.24-8.16,1.201-16.561,2.76-24.961c3.6-20.402,9.601-39.603,18.361-57.604c18.962-39.844,37.563-64.686,55.804-74.525
	c-26.881-10.801-47.642-16.201-62.164-16.201c-3.24,0-6.121,0.24-8.401,0.72c-5.4,1.319-12.36,12.241-20.761,32.642
	c-7.8,18.96-13.801,38.401-18.001,58.323c-3,20.162-8.16,52.804-15.481,97.807c-2.281,12.842-8.88,24.003-19.681,33.363
	c-10.8,9.36-21.842,14.041-33.363,14.041c-19.92,0-29.882-12.001-29.882-36.123c0-16.441,5.281-30.962,15.841-43.684
	c11.042-13.561,24.602-20.4,40.803-20.4c13.801,0,22.442,6.24,25.922,18.721c1.679-12.24,4.8-32.281,9.6-60.124
	c4.44-23.882,12.241-48.963,23.521-75.245c-23.401-5.401-47.283-8.16-71.405-8.16c-30.962,0-47.403,6.959-49.563,20.761
	c-0.72,4.681-0.24,11.281,1.44,19.681l49.563,14.401l-43.923-6.599c-6.6-0.961-10.801,3.24-12.72,12.6
	c-1.681,8.521,2.16,13.44,11.279,14.762l81.606,12l-0.72,6.001l-26.762-4.562c-22.082-0.239-41.523,6.722-58.324,21.002
	C24.439,336.523,12.679,358.005,7.278,385.486L7.278,385.486z M366.581,391.728c-3.24,13.2-4.921,27.48-4.921,42.962
	c0,21.002,3.001,31.563,9.121,31.563c5.4,0,11.4-1.56,18.001-4.921c11.642,30.483,34.322,45.724,67.805,45.724
	c27.841,0,54.724-10.92,80.286-32.882c25.681-21.842,42.241-48.363,49.442-79.205c2.64-11.041,3.841-21.722,3.841-32.042
	c0-31.442-10.081-54.604-30.242-69.604l4.199-7.441c-6.72-8.641-16.321-12.96-28.801-12.96c-15.962,0-31.202,2.04-46.084,6
	c-10.921,3.239-22.081,6.601-33.361,9.841c-10.081,2.279-26.522,5.159-49.204,8.4c-5.88,10.561-11.28,20.881-16.201,30.961
	C379.062,352.244,371.021,373.485,366.581,391.728L366.581,391.728z M313.537,57.024c6.961-1.44,19.802-3.48,38.283-6.36
	c10.081-1.32,21-1.561,32.642-0.6c0.96,4.92,1.921,13.2,2.88,24.961c0,5.4-0.72,12.842-2.16,22.441
	c-12.361,0.72-24.841-0.72-37.442-4.2c-12.48-3.481-23.641-9.602-33.603-18.242L313.537,57.024z M261.455,189.273
	c0-7.321,2.16-13.321,6.36-18.122c4.2-4.799,9.121-7.319,14.761-7.561c12.12-0.24,21.723,4.562,28.802,14.401l-15.121,1.08v1.681
	c3.721-0.241,11.04-0.72,21.84-1.681c2.521-0.479,6.602-1.319,12.241-2.52c4.681-0.959,8.641-1.32,11.641-1.32
	c5.401,0,11.761,2.521,18.962,7.561c7.32,5.041,10.921,9.721,10.921,14.162c0,6.121-3.479,11.04-10.562,14.761
	c-7.08,3.84-15.121,5.64-24.24,5.64c-9.121,0-16.201-1.8-21.123-5.64c-2.039,0.96-5.279,1.44-9.479,1.44
	c-10.081,0-19.562-2.041-28.442-6.001C267.215,202.474,261.694,196.474,261.455,189.273L261.455,189.273z M426.705,384.767
	c3.479-12.722,7.319-23.042,11.28-30.963c8.4,25.322,16.802,37.924,25.322,37.924c3.24,0,7.561-8.641,12.96-26.043
	c7.08-22.682,13.561-38.883,19.682-48.482c23.882,0.721,35.883,15.96,35.883,45.723c0,21.361-7.2,40.802-21.482,58.324
	c-15,18.601-32.881,27.841-53.763,27.841c-21.842,0-32.643-14.16-32.643-42.602C423.944,399.287,424.785,391.966,426.705,384.767
	L426.705,384.767z M318.457,197.314c0,5.16,1.921,7.8,5.881,7.8c3.84,0,5.64-2.641,5.64-7.8c0-5.161-1.8-7.681-5.64-7.681
	C320.378,189.633,318.457,192.153,318.457,197.314z"/>
</svg>
