<?xml version="1.0" encoding="utf-8"?>
<!-- Generator: Adobe Illustrator 16.0.0, SVG Export Plug-In . SVG Version: 6.00 Build 0)  -->
<!DOCTYPE svg PUBLIC "-//W3C//DTD SVG 1.1//EN" "http://www.w3.org/Graphics/SVG/1.1/DTD/svg11.dtd">
<svg version="1.1" id="Layer_1" xmlns="http://www.w3.org/2000/svg" xmlns:xlink="http://www.w3.org/1999/xlink" x="0px" y="0px"
	 width="100px" height="100px" viewBox="0 0 100 100" enable-background="new 0 0 100 100" xml:space="preserve">
<path fill="#70CDE3" stroke="#676767" d="M47.21,50.62h0.476l1.074-0.621l-1.074-0.62h-0.477c-8.194,0-15.865-2.24-22.437-6.14
	C16.661,43.336,8.688,45.674,1.799,50c6.889,4.326,14.862,6.664,22.974,6.759C31.344,52.861,39.015,50.62,47.21,50.62L47.21,50.62z
	 M47.273,49.142l0.412,0.238h1.24l-0.621-1.075l-0.412-0.238c-7.096-4.098-12.618-9.873-16.359-16.534
	c-7.074-3.974-15.146-5.935-23.276-5.633c3.804,7.191,9.538,13.202,16.516,17.34C32.413,43.149,40.176,45.044,47.273,49.142z
	 M48.066,47.893l0.238,0.412l1.076,0.621v-1.242l-0.238-0.412c-4.099-7.096-5.992-14.86-5.902-22.499
	C39.1,17.795,33.091,12.06,25.899,8.256c-0.302,8.13,1.659,16.202,5.634,23.276C38.194,35.274,43.97,40.796,48.066,47.893z
	 M49.381,47.684L50,48.759l0.62-1.074v-0.477c0-8.195,2.241-15.865,6.142-22.436C56.663,16.66,54.326,8.688,50,1.799
	c-4.326,6.889-6.663,14.861-6.76,22.975c3.898,6.571,6.141,14.24,6.141,22.436V47.684z M50.857,47.272l-0.237,0.413v1.24
	l1.075-0.621l0.238-0.412c4.096-7.097,9.873-12.619,16.533-16.36c3.973-7.074,5.936-15.146,5.633-23.276
	c-7.19,3.804-13.201,9.539-17.34,16.516C56.852,32.412,54.956,40.176,50.857,47.272z M52.107,48.067l-0.412,0.238l-0.621,1.075
	h1.242l0.41-0.238c7.099-4.097,14.86-5.992,22.5-5.902c6.978-4.139,12.713-10.149,16.518-17.34
	c-8.131-0.302-16.203,1.659-23.276,5.633C64.727,38.194,59.203,43.969,52.107,48.067z M52.791,49.379h-0.475L51.24,50l1.074,0.621
	h0.477c8.195,0,15.866,2.24,22.438,6.139c8.111-0.097,16.084-2.433,22.974-6.76c-6.89-4.326-14.861-6.663-22.974-6.759
	C68.656,47.139,60.986,49.379,52.791,49.379z M31.533,68.467c3.741-6.66,9.264-12.438,16.361-16.533l0.411-0.24l0.621-1.072h-1.241
	l-0.413,0.238c-7.097,4.098-14.859,5.99-22.499,5.9C17.794,60.898,12.06,66.909,8.256,74.102
	C16.387,74.402,24.459,72.439,31.533,68.467z M43.24,75.229c-0.09-7.641,1.804-15.403,5.902-22.5l0.238-0.412v-1.241l-1.075,0.618
	l-0.239,0.414c-4.097,7.098-9.872,12.619-16.533,16.359c-3.974,7.074-5.936,15.147-5.634,23.275
	C33.091,87.939,39.101,82.204,43.24,75.229z M50.62,52.79v-0.478L50,51.24l-0.619,1.074v0.477c0,8.193-2.242,15.866-6.141,22.438
	c0.097,8.111,2.435,16.084,6.761,22.974c4.326-6.89,6.664-14.861,6.761-22.974C52.861,68.657,50.62,60.984,50.62,52.79z
	 M68.468,68.467c-6.661-3.74-12.438-9.264-16.534-16.359l-0.238-0.414l-1.074-0.618v1.239l0.238,0.414
	c4.098,7.097,5.992,14.859,5.902,22.5c4.139,6.977,10.147,12.713,17.34,16.515C74.402,83.614,72.441,75.541,68.468,68.467z
	 M51.695,51.693l0.412,0.238c7.097,4.098,12.619,9.873,16.359,16.534c7.074,3.974,15.146,5.935,23.276,5.634
	c-3.804-7.19-9.539-13.201-16.517-17.342c-7.641,0.092-15.402-1.804-22.5-5.9l-0.412-0.237h-1.24L51.695,51.693z"/>
</svg>
