<?xml version="1.0" encoding="utf-8"?>
<!-- Generator: Adobe Illustrator 16.0.0, SVG Export Plug-In . SVG Version: 6.00 Build 0)  -->
<!DOCTYPE svg PUBLIC "-//W3C//DTD SVG 1.1//EN" "http://www.w3.org/Graphics/SVG/1.1/DTD/svg11.dtd">
<svg version="1.1" id="Layer_1" xmlns="http://www.w3.org/2000/svg" xmlns:xlink="http://www.w3.org/1999/xlink" x="0px" y="0px"
	 width="100px" height="100px" viewBox="0 0 100 100" enable-background="new 0 0 100 100" xml:space="preserve">
<path d="M49.973,25.451c-0.704,0.938-1.696,1.131-2.689,1.228c0.289,0.8,0.386,1.931,0.386,3.075c0,3.586-2.372,8.109-2.22,13.544
	c0.138,3.834,3.062,14.882,3.158,23.433c0,1.364,0.055,2.785-0.428,3.765c-0.565,1.228-2.069,1.808-3.393,1.655
	c0.33-0.275,0.51-0.564,0.51-1.075c0-0.621-0.703-1.324-1.31-1.38c-1.09,0-1.752,0.896-1.752,1.945c0,1.461,1.172,2.729,3.021,2.729
	c1.931,0,2.827-1.09,3.778-2.263c-0.192,2.317-1.42,4.151-3.31,4.813c-0.097-0.606-0.662-1.173-1.503-1.131
	c-0.663,0-1.421,0.428-1.421,1.365c0,0.759,0.758,1.752,1.931,1.696c2.179-0.084,3.737-1.737,4.634-3.435
	c-0.234,1.364-0.992,2.868-0.992,4.192c0,1.709,1.364,4.164,2.123,5.529c0.855-1.559,2.22-4.44,2.124-5.709
	c-0.097-1.146-0.992-3.447-1.504-5.158c1.228,2.414,2.399,4.205,4.909,4.304c1.324,0.041,2.166-0.854,2.166-1.752
	c0.057-0.896-0.606-1.505-1.365-1.505c-0.896,0.043-1.282,0.897-1.229,1.505c-1.848-0.565-3.255-2.786-3.584-4.771
	c1.129,1.282,2.453,1.89,4.012,1.944c1.408,0.041,2.925-1.229,3.021-2.553c0.042-1.281-0.62-2.082-1.611-2.315
	c-0.898-0.233-2.069,0.289-2.168,1.462c-0.055,0.523,0.235,1.049,0.705,1.323c-0.705,0.056-1.463,0.097-2.125-0.274
	c-1.365-0.855-2.123-3.035-2.027-5.104c0.291-7.461,3.256-15.818,3.447-22.011c0.14-5.903-2.315-12.564-2.262-17.847
	c0.042-1.849,0.414-2.786,0.801-4.151c0.276-1.049,0.233-2.124,0.233-3.173c1.173-0.372,2.125-1.503,1.753-3.116
	c-0.622,1.048-1.229,1.848-2.704,1.793c0.662-0.8,1.146-2.221,0.429-2.966c-0.275,0.607-0.76,1.365-1.559,1.793
	c-0.938,0.565-2.456,0.235-3.876,0.097c-1.462-0.151-2.496,0.842-3.117,1.793c-1.642,0.042-2.786,0.276-3.861,1.407
	c-0.621,0.62-1.09,1.751-0.621,3.075c0.428-0.662,0.855-1.186,1.89-1.186c1.421,0,2.221,1.517,3.683,1.186
	c-0.842,0.372-1.931,0.372-2.827,0c-0.565-0.193-0.952-0.469-1.366-0.938c-0.151,0.648-0.055,1.365,0.414,1.793
	c0.621,0.51,1.421,0.565,2.083,0.744c0.938,0.29,2.027,1.145,3.31,1.187C48.662,26.059,49.228,25.782,49.973,25.451L49.973,25.451z"
	/>
<path d="M44.787,40.043c-0.235,1.559-0.235,3.447-0.056,5.006c0.428,3.448,1.421,7.6,1.613,10.717
	c0.097,1.518-0.097,4.399-0.386,6.33c-0.138,1.131-0.606,2.496-1.834,2.455c-1.283-0.041-1.655-0.564-1.696-1.518
	c-0.097-0.896,0.606-1.227,0.938-1.227c0.331-0.043,0.662,0.191,0.759,0.329c0.469-3.352,0.097-8.122-0.387-12.219
	c-0.8,3.819-1.973,9.062-3.489,12.219c-0.372,0.718-1.131,1.421-2.413,1.38c-1.131-0.056-1.793-0.896-1.696-1.89
	c0.096-0.952,0.565-1.462,1.227-1.462c0.801,0,1.049,0.413,1.187,1.034c1.751-4.069,1.986-9.447,2.165-13.695
	c-2.124,4.537-5.048,8.785-7.737,12.896c-0.854,1.27-2.22,2.263-3.503,1.601c-1.31-0.662-1.365-2.222-0.8-2.979
	c0.428-0.563,0.951-0.703,1.559-0.563c0.331,0.096,0.717,0.427,0.8,0.813c2.883-4.539,5.199-9.601,7.379-14.274
	c-4.345,4.634-8.938,9.021-13.612,12.716c-1.311,1.034-2.635,1.462-3.82,0.605c-1.462-1.033-0.855-2.357-0.235-2.883
	c0.704-0.605,1.462-0.51,1.891-0.096c0.372,0.33,0.564,0.717,0.606,1.145c4.827-4.207,9.02-9.115,13.322-13.984
	c-4.44,3.407-9.254,6.938-14.398,8.883c-1.985,0.76-4.399,0-4.345-1.986c0.042-0.951,0.607-1.655,1.697-1.655
	c0.758,0,1.269,1.09,1.323,1.793c5.187-2.22,9.53-5.476,14.026-9.351c-3.075,1.793-6.468,3.021-9.972,3.31
	c-2.22,0.139-4.44-0.993-4.386-2.592c0-1.187,0.662-1.752,1.421-1.752c1.365,0,1.559,1.365,1.269,2.124
	c3.117,0.041,6.606-1.365,9.544-2.979c3.959-2.262,6.413-6.647,8.124-8.165c1.696-1.559,3.393-0.661,3.393,1.462
	c0,1.89-1.752,5.104-3.448,6.759c1.228,0.138,2.275,0.992,2.358,2.262C43.559,40.235,44.222,40.043,44.787,40.043L44.787,40.043z
	 M56.025,40.001c0.47,1.311,0.47,3.489,0.276,5.048c-0.428,3.448-1.405,7.6-1.601,10.717c-0.096,1.518-0.096,4.481,0.193,6.428
	c0.139,1.09,0.606,2.729,1.834,2.688c1.283-0.041,1.56-0.371,1.601-1.322c0.056-0.855-0.606-1.229-0.979-1.229
	c-0.33,0-0.619,0.193-0.758,0.331c-0.428-3.312,0.373-9.585,1.034-12.563c0.522,3.682,0.951,7.847,2.261,11.102
	c0.525,1.228,1.325,2.358,2.883,2.413c1.146,0,1.613-0.91,1.519-1.848c-0.097-0.938-0.565-1.463-1.228-1.463
	c-0.855,0-1.09,0.372-1.188,0.993c-1.792-4.067-2.221-9.916-2.4-14.164c2.069,4.523,3.726,8.357,6.414,12.412
	c0.855,1.324,2.883,2.358,4.166,1.752c1.364-0.662,1.323-2.083,0.743-2.841c-0.412-0.566-0.938-0.607-1.599-0.566
	c-0.566,0.057-0.938,0.855-1.035,1.229c-2.883-4.523-4.439-9.254-6.62-13.93c4.345,4.635,8.356,8.924,13.034,12.606
	c1.281,0.992,3.021,1.282,4.206,0.427c1.421-1.034,0.854-2.552,0.233-3.021c-0.701-0.661-1.461-0.523-1.931-0.096
	c-0.331,0.33-0.565,0.662-0.565,1.088c-4.635-3.254-8.979-8.729-13.322-13.598c4.634,2.924,9.311,6.041,14.646,7.405
	c2.222,0.58,3.724-0.565,4.056-2.027c0.291-1.269-0.76-2.399-1.834-2.316c-0.994,0.055-1.654,1.379-1.187,2.454
	c-3.446-1.131-10.386-5.185-15.021-8.44c3.215,1.601,8.316,2.4,11.24,2.689c2.828,0.276,4.813-0.758,4.771-2.358
	c0-1.186-0.661-1.751-1.42-1.751c-1.365,0-1.6,1.365-1.27,2.124c-3.173,0.041-7.227-0.662-10.164-2.317
	c-4.91-2.73-5.379-7.075-7.074-8.634c-1.696-1.517-3.408-0.428-3.408,1.696c0,1.89,1.613,4.91,3.352,6.51
	c-1.226,0.152-2.205,1.614-2.303,2.938C57.199,40.14,56.593,40.043,56.025,40.001L56.025,40.001z M35.96,64.22
	c-2.552,1.56-5.53,2.455-8.702,2.455c-9.2,0-16.661-7.462-16.661-16.619c0-9.157,7.461-16.675,16.661-16.675
	c3.116,0,6.055,1.09,8.55,2.607c-1.558-2.552-2.495-5.586-2.495-8.744c0-9.213,7.502-16.675,16.715-16.675
	c9.158,0,16.619,7.462,16.619,16.675c0,3.116-0.896,6.041-2.357,8.551c2.551-1.559,5.283-2.455,8.454-2.455
	c9.254,0,16.716,7.503,16.716,16.716c0,9.157-7.462,16.619-16.716,16.619c-3.075,0-5.999-0.896-8.509-2.358
	c1.559,2.552,2.412,5.283,2.412,8.455c0,9.198-7.461,16.66-16.619,16.66c-9.157,0-16.674-7.462-16.674-16.66
	C33.354,69.652,34.442,66.675,35.96,64.22L35.96,64.22z M32.512,67.57c-0.482,1.654-0.91,3.406-0.91,5.199
	c0,10.15,8.22,18.371,18.33,18.371c10.15,0,18.412-8.221,18.412-18.371c0-1.849-0.332-3.447-0.842-5.145
	c1.655,0.469,3.447,0.745,5.24,0.745c10.15,0,18.412-8.206,18.412-18.371c0-10.095-8.262-18.356-18.412-18.356
	c-1.848,0-3.447,0.275-5.145,0.8c0.469-1.654,0.745-3.406,0.745-5.241c0-10.108-8.262-18.37-18.412-18.37
	c-10.11,0-18.33,8.262-18.33,18.37c0,1.835,0.248,3.628,0.813,5.338c-1.71-0.524-3.406-0.896-5.199-0.896
	c-10.15,0-18.37,8.262-18.37,18.356c0,10.109,8.22,18.371,18.37,18.371C29.064,68.371,30.856,68.039,32.512,67.57L32.512,67.57z"/>
<path fill="#FFFFFF" d="M47.614,19.686c0.524,0,0.951,0.429,0.951,0.993c0,0.524-0.427,0.952-0.951,0.952
	c-0.565,0-0.993-0.428-0.993-0.952C46.621,20.114,47.049,19.686,47.614,19.686L47.614,19.686z"/>
<path d="M47.614,20.072c0.386,0,0.662,0.276,0.662,0.605c0,0.387-0.276,0.662-0.662,0.662c-0.331,0-0.607-0.275-0.607-0.662
	C47.007,20.349,47.283,20.072,47.614,20.072L47.614,20.072z"/>
</svg>
