<?xml version="1.0" encoding="utf-8"?>
<!-- Generator: Adobe Illustrator 16.0.0, SVG Export Plug-In . SVG Version: 6.00 Build 0)  -->
<!DOCTYPE svg PUBLIC "-//W3C//DTD SVG 1.1//EN" "http://www.w3.org/Graphics/SVG/1.1/DTD/svg11.dtd">
<svg version="1.1" id="Layer_1" xmlns="http://www.w3.org/2000/svg" xmlns:xlink="http://www.w3.org/1999/xlink" x="0px" y="0px"
	 width="100px" height="100px" viewBox="0 0 100 100" enable-background="new 0 0 100 100" xml:space="preserve">
<path d="M59.161,38.026c0,0-0.423-0.201-0.402-0.684c0.021-0.482,0.482-1.023,1.347-0.903c0.863,0.12,1.406,0.824,1.186,1.827
	c-0.221,1.005-1.908,1.667-3.637,0.804c-1.727-0.863-2.188-1.145-3.834-1.145c0,0,1.707-0.161,3.373,0.542
	c1.668,0.703,2.731,0.181,2.973-0.361s-0.061-0.903-0.361-0.903C59.505,37.203,58.98,37.323,59.161,38.026z M55.205,38.89
	c0,0,2.35,0.703,1.968,3.033c0,0,0.502-1.286-0.12-1.968C56.43,39.271,55.205,38.89,55.205,38.89z M57.475,40.135
	c0,0,1.004,1.285,0.119,2.55c0,0-0.18,0.201-0.02,0.281c0.16,0.081,1.386-0.803,1.266-1.808
	C58.84,41.159,58.018,40.476,57.475,40.135z M59.922,42.014c0,0,3.17,2.033,6.926,0.724c3.758-1.31,5.516-3.859,5.516-3.859
	s1.172-1.723,2.859-1.792c1.688-0.069,2.791,0.965,2.93,2.067c0.139,1.103-0.448,2.998-2.618,3.274c0,0-1.517,0.242-2.481-1.31
	c0,0-0.138-0.275,0-0.31c0.139-0.035,0.344,0.172,0.518,0.345c0.172,0.172,1.068,1.034,2.068,0.724
	c0.998-0.31,1.273-1.275,1.239-1.723c-0.035-0.448-0.312-1.482-1.517-1.516c-1.207-0.035-2.032,0.724-2.379,1.033
	c-0.344,0.311-2.963,2.551-6.1,3.412c-3.136,0.862-5.756-0.035-7.029-0.896C59.854,42.187,59.543,41.876,59.922,42.014z
	 M68.089,42.014c0,0,3.757-1.792,3.481-3.549c-0.276-1.758-2.482-0.689-2.86-0.035c0,0-0.14,0.104-0.069,0.241
	c0.07,0.137,0.414-0.069,0.414-0.069s1.412-0.517,1.688,0.31C71.02,39.74,69.536,41.153,68.089,42.014z M71.982,38.603
	c0,0-0.551-1.654,0.793-2.378C72.775,36.225,73.292,37.741,71.982,38.603z M76.618,42.204c0,0-0.688,0.396-1.552,0.379
	c-0.86-0.018-1.859,0.689-2.016,1.43c0,0-0.086,0.259,0.155,0.31c0,0,0.153,0,0.293-0.172c0.138-0.173,0.481-0.328,0.603-0.069
	c0.121,0.258,0.26,0.275,0.328-0.086c0.068-0.361,0-0.948,0.981-1.223C76.395,42.497,76.618,42.204,76.618,42.204z M75.359,42.875
	c0,0-0.705,0.276-0.74,1.138c0,0,0.018,0.207,0.275-0.018c0.258-0.224,0.258-0.276,0.482-0.172c0.225,0.104,0.172-0.138-0.018-0.414
	C75.171,43.134,75.223,43.048,75.359,42.875z M51.291,33.595c-0.327,0.485-0.598,0.086-0.598,0.086S50.488,33.26,50,33.268
	c-0.488-0.007-0.693,0.414-0.693,0.414s-0.271,0.399-0.599-0.086c-0.347-0.514-1.139-0.655-0.911,0.199
	c0.228,0.855-0.213,1.753,0.427,2.564c0.551,0.698,1.043,0.882,1.583,0.927l0.002,0.013c0.064,0,0.127-0.001,0.19-0.002
	c0.063,0.001,0.126,0.002,0.19,0.002l0.002-0.013c0.54-0.045,1.032-0.229,1.584-0.927c0.641-0.812,0.199-1.709,0.427-2.564
	C52.432,32.94,51.641,33.082,51.291,33.595z M54.395,34.61c-0.566-1.083-1.336-0.631-1.336-0.631s0.631,0.825-0.195,2.233
	c-0.695,1.188-2.359,1.495-2.862,1.562c-0.503-0.067-2.167-0.374-2.863-1.562c-0.826-1.408-0.195-2.233-0.195-2.233
	s-0.769-0.451-1.335,0.631c-0.559,1.068-2.087-1.869-3.083,1.165c0,0,1.772-0.825,2.816,0.656c0,0,0.583,1.043,1.602,1.237
	c0.857,0.164,2.008,0.791,2.48,1.882c0.089,0.206,0.155,0.428,0.19,0.667c0,0,0.107,0.309,0.387,0.511
	c0.281-0.202,0.388-0.511,0.388-0.511c0.035-0.239,0.1-0.461,0.19-0.667c0.473-1.091,1.623-1.718,2.48-1.882
	c1.02-0.194,1.603-1.237,1.603-1.237c1.044-1.481,2.815-0.656,2.815-0.656C56.48,32.741,54.951,35.678,54.395,34.61z M40.839,38.026
	c0,0,0.422-0.201,0.402-0.684c-0.021-0.482-0.482-1.023-1.346-0.903c-0.864,0.12-1.406,0.824-1.185,1.827
	c0.22,1.005,1.908,1.667,3.635,0.804c1.727-0.863,2.189-1.145,3.835-1.145c0,0-1.706-0.161-3.374,0.542
	c-1.667,0.703-2.731,0.181-2.972-0.361s0.06-0.903,0.361-0.903C40.498,37.203,41.02,37.323,40.839,38.026z M44.795,38.89
	c0,0-2.35,0.703-1.968,3.033c0,0-0.502-1.286,0.121-1.968C43.57,39.271,44.795,38.89,44.795,38.89z M42.526,40.135
	c0,0-1.004,1.285-0.121,2.55c0,0,0.181,0.201,0.02,0.281c-0.161,0.081-1.386-0.803-1.265-1.808
	C41.161,41.159,41.984,40.476,42.526,40.135z M40.079,42.014c0,0-3.17,2.033-6.927,0.724c-3.757-1.309-5.514-3.859-5.514-3.859
	s-1.172-1.723-2.86-1.792c-1.688-0.069-2.792,0.965-2.93,2.067c-0.138,1.103,0.448,2.998,2.62,3.274c0,0,1.516,0.242,2.481-1.31
	c0,0,0.138-0.275,0-0.31c-0.138-0.035-0.344,0.172-0.517,0.345c-0.172,0.172-1.068,1.034-2.068,0.724s-1.275-1.275-1.241-1.723
	c0.034-0.448,0.31-1.482,1.516-1.516c1.207-0.035,2.033,0.724,2.377,1.033c0.345,0.311,2.965,2.551,6.101,3.412
	c3.136,0.862,5.755-0.035,7.03-0.896C40.147,42.187,40.458,41.876,40.079,42.014z M31.911,42.014c0,0-3.756-1.792-3.48-3.549
	c0.276-1.758,2.481-0.689,2.86-0.035c0,0,0.138,0.104,0.069,0.241c-0.069,0.137-0.414-0.069-0.414-0.069s-1.413-0.517-1.688,0.31
	C28.983,39.739,30.464,41.153,31.911,42.014z M28.018,38.603c0,0,0.551-1.654-0.793-2.378
	C27.225,36.225,26.708,37.741,28.018,38.603z M23.382,42.204c0,0,0.689,0.396,1.55,0.379c0.861-0.018,1.861,0.689,2.016,1.43
	c0,0,0.086,0.259-0.155,0.31c0,0-0.155,0-0.292-0.172c-0.138-0.173-0.482-0.328-0.604-0.069c-0.121,0.258-0.258,0.275-0.327-0.086
	c-0.069-0.361,0-0.948-0.982-1.223C23.605,42.497,23.382,42.204,23.382,42.204z M24.64,42.875c0,0,0.707,0.276,0.741,1.138
	c0,0-0.017,0.207-0.276-0.018c-0.258-0.224-0.258-0.276-0.482-0.172c-0.224,0.104-0.172-0.138,0.017-0.414
	C24.83,43.134,24.778,43.048,24.64,42.875z M52.876,44.653c2.751,1.044,4.097-1.606,4.097-1.606s0.603-1.507-0.322-0.201
	c-0.922,1.306-2.469,0.261-2.791-0.181c-0.32-0.442-0.782-0.02-0.782-0.02c-0.749,0.553-1.312,0.236-1.597-0.555h-0.818
	C50.784,42.919,51.268,44.043,52.876,44.653z M67.034,41.079c-0.101-0.341-0.703-0.221-0.703-0.221
	c0.422-0.883-0.663-0.783-0.502-1.004c0.159-0.221,0.622-1.044,0.341-1.265c-0.279-0.22-0.804,0.221-0.804,0.221
	c-1.284,0.984-2.53,1.326-2.53,1.326c-2.391,0.663-4.719-0.542-6.146-1.346c-1.424-0.803-2.852-0.703-2.852-0.703
	c-2.313,0.31-2.961,2.074-3.124,2.728h0.64c0.225-1.054,1.285-2.103,2.565-2.186c1.547-0.1,2.992,0.823,4.418,1.828
	c1.427,1.005,2.61,1.707,5.021,1.948C65.768,42.645,67.134,41.419,67.034,41.079z M46.161,38.086c0,0-1.426-0.101-2.852,0.703
	c-1.425,0.804-3.755,2.008-6.145,1.346c0,0-1.245-0.342-2.531-1.326c0,0-0.522-0.441-0.803-0.221
	c-0.281,0.221,0.181,1.044,0.342,1.265c0.161,0.221-0.924,0.121-0.502,1.004c0,0-0.603-0.12-0.703,0.221
	c-0.1,0.341,1.265,1.566,3.675,1.326c2.41-0.241,3.595-0.944,5.021-1.948c1.426-1.004,2.872-1.928,4.418-1.828
	c1.281,0.083,2.341,1.132,2.564,2.186h0.64C49.123,40.161,48.475,38.396,46.161,38.086z M46.924,42.645c0,0-0.462-0.421-0.783,0.02
	c-0.322,0.441-1.868,1.486-2.792,0.181c-0.923-1.306-0.321,0.201-0.321,0.201s1.346,2.65,4.097,1.606
	c1.607-0.61,2.09-1.734,2.214-2.563h-0.82C48.236,42.881,47.672,43.198,46.924,42.645z M51.473,40.99h-3.064
	c-0.243,0-0.442,0.198-0.442,0.442v0.018c0,0.243,0.199,0.442,0.442,0.442h3.064c0.243,0,0.44-0.199,0.44-0.442v-0.018
	C51.913,41.188,51.716,40.99,51.473,40.99z M40.839,67.975c0,0,0.422,0.2,0.402,0.684c-0.021,0.48-0.482,1.023-1.346,0.902
	c-0.864-0.119-1.406-0.822-1.185-1.826c0.22-1.006,1.908-1.668,3.635-0.805c1.727,0.863,2.189,1.146,3.835,1.146
	c0,0-1.706,0.161-3.374-0.542c-1.667-0.703-2.731-0.182-2.972,0.361c-0.241,0.541,0.06,0.902,0.361,0.902
	C40.498,68.797,41.02,68.677,40.839,67.975z M44.795,67.109c0,0-2.35-0.702-1.968-3.031c0,0-0.502,1.285,0.121,1.968
	C43.57,66.729,44.795,67.109,44.795,67.109z M42.526,65.865c0,0-1.004-1.285-0.121-2.551c0,0,0.181-0.2,0.02-0.281
	c-0.161-0.08-1.386,0.805-1.265,1.808C41.161,64.841,41.984,65.523,42.526,65.865z M40.079,63.984c0,0-3.17-2.032-6.927-0.723
	c-3.757,1.309-5.514,3.859-5.514,3.859s-1.172,1.723-2.86,1.792s-2.792-0.965-2.93-2.067c-0.138-1.104,0.448-2.998,2.62-3.273
	c0,0,1.516-0.241,2.481,1.31c0,0,0.138,0.275,0,0.312c-0.138,0.033-0.344-0.174-0.517-0.346c-0.172-0.173-1.068-1.033-2.068-0.724
	s-1.275,1.274-1.241,1.724c0.034,0.447,0.31,1.48,1.516,1.517c1.207,0.034,2.033-0.724,2.377-1.034
	c0.345-0.311,2.965-2.55,6.101-3.411c3.136-0.862,5.755,0.034,7.03,0.896C40.147,63.813,40.458,64.124,40.079,63.984z
	 M31.911,63.984c0,0-3.756,1.793-3.48,3.551c0.276,1.758,2.481,0.689,2.86,0.035c0,0,0.138-0.104,0.069-0.242
	c-0.069-0.139-0.414,0.068-0.414,0.068s-1.413,0.518-1.688-0.31C28.982,66.261,30.464,64.848,31.911,63.984z M28.018,67.396
	c0,0,0.551,1.654-0.793,2.379C27.225,69.775,26.708,68.26,28.018,67.396z M23.382,63.797c0,0,0.689-0.396,1.55-0.38
	c0.861,0.019,1.861-0.688,2.016-1.431c0,0,0.086-0.258-0.155-0.311c0,0-0.155,0-0.292,0.174c-0.138,0.172-0.482,0.326-0.604,0.067
	c-0.121-0.258-0.258-0.274-0.327,0.086c-0.069,0.362,0,0.948-0.982,1.224C23.605,63.504,23.382,63.797,23.382,63.797z M24.64,63.124
	c0,0,0.707-0.274,0.741-1.138c0,0-0.017-0.206-0.276,0.018c-0.258,0.225-0.258,0.276-0.482,0.173s-0.172,0.138,0.017,0.413
	C24.83,62.865,24.778,62.952,24.64,63.124z M48.708,72.404c0.328-0.483,0.599-0.086,0.599-0.086S49.512,72.74,50,72.732
	c0.488,0.008,0.693-0.414,0.693-0.414s0.271-0.397,0.598,0.086c0.35,0.515,1.141,0.654,0.912-0.199s0.214-1.752-0.428-2.563
	c-0.551-0.699-1.043-0.884-1.583-0.929l-0.002-0.013c-0.064,0-0.127,0.001-0.19,0.003c-0.063-0.002-0.125-0.003-0.19-0.003
	l-0.002,0.013c-0.54,0.045-1.032,0.229-1.583,0.929c-0.641,0.812-0.2,1.709-0.427,2.563C47.569,73.061,48.361,72.919,48.708,72.404z
	 M45.607,71.391c0.566,1.082,1.335,0.631,1.335,0.631s-0.631-0.824,0.195-2.232c0.695-1.188,2.36-1.494,2.863-1.563
	c0.503,0.067,2.167,0.375,2.863,1.563c0.826,1.408,0.193,2.232,0.193,2.232s0.771,0.451,1.336-0.631
	c0.559-1.067,2.088,1.869,3.082-1.166c0,0-1.771,0.826-2.814-0.654c0,0-0.583-1.043-1.604-1.237
	c-0.856-0.163-2.007-0.791-2.479-1.882c-0.09-0.205-0.155-0.43-0.19-0.667c0,0-0.107-0.31-0.388-0.511
	c-0.28,0.201-0.387,0.511-0.387,0.511c-0.035,0.237-0.101,0.462-0.19,0.667c-0.473,1.091-1.623,1.719-2.48,1.882
	c-1.02,0.194-1.602,1.237-1.602,1.237c-1.043,1.48-2.816,0.654-2.816,0.654C43.52,73.26,45.049,70.322,45.607,71.391z
	 M59.161,67.975c0,0-0.423,0.2-0.402,0.684c0.021,0.48,0.482,1.023,1.347,0.902c0.863-0.119,1.406-0.822,1.186-1.826
	c-0.221-1.006-1.908-1.668-3.637-0.805c-1.727,0.863-2.188,1.146-3.834,1.146c0,0,1.707,0.161,3.373-0.542
	c1.668-0.703,2.731-0.182,2.973,0.361c0.241,0.541-0.061,0.902-0.361,0.902C59.505,68.797,58.98,68.677,59.161,67.975z
	 M55.205,67.109c0,0,2.35-0.702,1.968-3.031c0,0,0.502,1.285-0.12,1.968C56.43,66.729,55.205,67.109,55.205,67.109z M57.475,65.865
	c0,0,1.004-1.285,0.119-2.551c0,0-0.18-0.2-0.02-0.281c0.16-0.08,1.386,0.805,1.266,1.808C58.84,64.841,58.018,65.523,57.475,65.865
	z M59.922,63.984c0,0,3.17-2.032,6.926-0.723c3.758,1.309,5.516,3.859,5.516,3.859s1.172,1.723,2.859,1.792
	c1.688,0.069,2.791-0.965,2.93-2.067c0.139-1.104-0.448-2.998-2.618-3.273c0,0-1.517-0.241-2.481,1.31c0,0-0.138,0.275,0,0.312
	c0.139,0.033,0.344-0.174,0.518-0.346c0.172-0.173,1.068-1.033,2.068-0.724c0.998,0.31,1.273,1.274,1.239,1.724
	c-0.035,0.446-0.312,1.48-1.517,1.517c-1.207,0.034-2.032-0.724-2.379-1.034c-0.344-0.311-2.963-2.55-6.1-3.411
	c-3.136-0.862-5.756,0.034-7.029,0.896C59.854,63.813,59.543,64.124,59.922,63.984z M68.089,63.984c0,0,3.757,1.793,3.481,3.551
	c-0.276,1.758-2.482,0.689-2.86,0.035c0,0-0.14-0.104-0.069-0.242c0.069-0.139,0.414,0.068,0.414,0.068s1.412,0.518,1.688-0.31
	C71.02,66.261,69.536,64.848,68.089,63.984z M71.982,67.396c0,0-0.551,1.654,0.793,2.379C72.775,69.775,73.292,68.26,71.982,67.396z
	 M76.618,63.797c0,0-0.688-0.396-1.552-0.38c-0.86,0.019-1.859-0.688-2.016-1.431c0,0-0.086-0.258,0.155-0.311
	c0,0,0.153,0,0.293,0.174c0.138,0.172,0.481,0.326,0.603,0.067c0.121-0.258,0.26-0.274,0.328,0.086c0.068,0.362,0,0.948,0.981,1.224
	C76.395,63.504,76.618,63.797,76.618,63.797z M75.359,63.124c0,0-0.705-0.274-0.74-1.138c0,0,0.018-0.206,0.275,0.018
	c0.258,0.225,0.258,0.276,0.482,0.173s0.172,0.138-0.018,0.413C75.169,62.865,75.223,62.952,75.359,63.124z M47.125,61.348
	c-2.751-1.045-4.097,1.605-4.097,1.605s-0.603,1.507,0.321,0.201c0.924-1.307,2.47-0.262,2.792,0.181
	c0.321,0.44,0.783,0.021,0.783,0.021c0.749-0.554,1.313-0.235,1.596,0.556h0.82C49.215,63.081,48.733,61.957,47.125,61.348z
	 M32.966,64.921c0.101,0.343,0.703,0.222,0.703,0.222c-0.421,0.885,0.663,0.783,0.502,1.004c-0.161,0.222-0.623,1.045-0.342,1.267
	c0.281,0.221,0.803-0.222,0.803-0.222c1.286-0.983,2.531-1.325,2.531-1.325c2.39-0.662,4.72,0.542,6.145,1.346
	c1.426,0.804,2.852,0.702,2.852,0.702c2.314-0.309,2.962-2.073,3.124-2.729h-0.64c-0.223,1.055-1.283,2.104-2.564,2.188
	c-1.547,0.1-2.993-0.824-4.418-1.828c-1.426-1.004-2.611-1.706-5.021-1.947C34.231,63.354,32.866,64.58,32.966,64.921z
	 M53.839,67.913c0,0,1.427,0.101,2.853-0.702c1.427-0.804,3.756-2.008,6.146-1.346c0,0,1.246,0.342,2.53,1.324
	c0,0,0.523,0.442,0.804,0.223c0.281-0.223-0.181-1.045-0.341-1.266c-0.161-0.222,0.924-0.121,0.502-1.004
	c0,0,0.604,0.119,0.703-0.223c0.1-0.341-1.268-1.566-3.676-1.325c-2.41,0.242-3.596,0.944-5.021,1.948s-2.871,1.928-4.418,1.828
	c-1.28-0.084-2.342-1.133-2.565-2.188h-0.64C50.877,65.84,51.525,67.604,53.839,67.913z M53.076,63.354c0,0,0.462,0.422,0.783-0.02
	c0.32-0.441,1.867-1.486,2.791-0.182c0.924,1.307,0.32-0.2,0.32-0.2s-1.345-2.65-4.096-1.606c-1.607,0.61-2.092,1.734-2.215,2.563
	h0.818C51.766,63.119,52.327,62.802,53.076,63.354z M48.529,65.01h3.063c0.243,0,0.442-0.197,0.442-0.441v-0.018
	c0-0.244-0.199-0.441-0.442-0.441h-3.063c-0.245,0-0.442,0.197-0.442,0.441v0.018C48.087,64.813,48.285,65.01,48.529,65.01z
	 M4.616,7.337c0,0,0.33-0.249,0.229-0.667C4.742,6.252,4.246,5.861,3.519,6.12c-0.73,0.257-1.077,0.965-0.708,1.803
	c0.368,0.838,1.95,1.119,3.298,0.06c1.346-1.058,1.787-1.326,3.13-1.768c0,0-1.513,0.253-2.836,1.16
	c-1.325,0.908-2.341,0.64-2.645,0.21c-0.305-0.431-0.107-0.8,0.155-0.854C4.175,6.679,4.65,6.691,4.616,7.337z M10.796,7.381
	c0,0-0.325,0.26-0.211,0.675c0.114,0.414,0.619,0.793,1.341,0.515c0.722-0.275,1.051-0.994,0.661-1.821
	c-0.393-0.828-1.98-1.067-3.299,0.027C7.968,7.872,7.537,8.15,6.205,8.63c0,0,1.505-0.294,2.804-1.238
	c1.299-0.942,2.32-0.701,2.637-0.278c0.316,0.422,0.128,0.796-0.132,0.857C11.254,8.029,10.779,8.028,10.796,7.381z M7.597,7.16
	C8.422,6.647,9.153,6.333,9.23,6.457c0.077,0.124-0.529,0.64-1.354,1.152C7.051,8.12,6.32,8.435,6.243,8.312
	C6.166,8.188,6.772,7.672,7.597,7.16z M15.133,7.337c0,0,0.331-0.249,0.229-0.667c-0.102-0.417-0.599-0.809-1.326-0.55
	c-0.73,0.257-1.077,0.965-0.708,1.803c0.368,0.838,1.95,1.119,3.298,0.06c1.346-1.058,1.787-1.326,3.13-1.768
	c0,0-1.513,0.253-2.836,1.16c-1.325,0.908-2.34,0.64-2.645,0.21c-0.305-0.431-0.108-0.8,0.155-0.854
	C14.693,6.679,15.168,6.691,15.133,7.337z M21.313,7.381c0,0-0.325,0.26-0.211,0.675c0.114,0.414,0.619,0.793,1.341,0.515
	c0.722-0.275,1.051-0.994,0.66-1.821c-0.392-0.828-1.979-1.067-3.298,0.027c-1.32,1.095-1.751,1.373-3.083,1.853
	c0,0,1.505-0.294,2.804-1.238c1.299-0.942,2.321-0.701,2.637-0.278c0.317,0.422,0.128,0.796-0.131,0.857
	C21.771,8.029,21.297,8.028,21.313,7.381z M18.114,7.16c0.825-0.512,1.556-0.827,1.633-0.703c0.077,0.124-0.53,0.64-1.354,1.152
	c-0.825,0.512-1.556,0.827-1.633,0.703S17.289,7.672,18.114,7.16z M25.651,7.337c0,0,0.33-0.249,0.228-0.667
	c-0.102-0.417-0.599-0.809-1.325-0.55c-0.73,0.257-1.077,0.965-0.708,1.803c0.367,0.838,1.95,1.119,3.298,0.06
	c1.346-1.058,1.787-1.326,3.13-1.768c0,0-1.513,0.253-2.836,1.16c-1.325,0.908-2.341,0.64-2.645,0.21
	c-0.304-0.431-0.107-0.8,0.156-0.854C25.21,6.679,25.686,6.691,25.651,7.337z M31.831,7.381c0,0-0.325,0.26-0.211,0.675
	c0.114,0.414,0.619,0.793,1.341,0.515c0.721-0.275,1.051-0.994,0.66-1.821c-0.393-0.828-1.98-1.067-3.298,0.027
	c-1.32,1.095-1.751,1.373-3.083,1.853c0,0,1.505-0.294,2.804-1.238c1.298-0.942,2.321-0.701,2.637-0.278
	c0.317,0.422,0.128,0.796-0.132,0.857C32.289,8.029,31.814,8.028,31.831,7.381z M28.631,7.161c0.825-0.512,1.556-0.827,1.632-0.703
	c0.077,0.124-0.529,0.64-1.354,1.152c-0.825,0.512-1.556,0.827-1.633,0.703C27.2,8.188,27.806,7.673,28.631,7.161z M36.169,7.337
	c0,0,0.33-0.249,0.228-0.667c-0.103-0.417-0.599-0.809-1.326-0.55c-0.73,0.257-1.077,0.965-0.708,1.803
	c0.368,0.838,1.95,1.119,3.297,0.06c1.346-1.058,1.787-1.326,3.13-1.768c0,0-1.513,0.253-2.835,1.16
	c-1.325,0.908-2.341,0.64-2.645,0.21c-0.305-0.431-0.107-0.8,0.156-0.854C35.728,6.679,36.203,6.691,36.169,7.337z M42.349,7.381
	c0,0-0.326,0.26-0.211,0.675c0.113,0.414,0.619,0.793,1.341,0.515c0.722-0.275,1.052-0.994,0.66-1.821
	c-0.393-0.828-1.979-1.067-3.298,0.027c-1.32,1.095-1.75,1.373-3.083,1.853c0,0,1.506-0.294,2.804-1.238
	c1.299-0.942,2.322-0.701,2.638-0.278c0.317,0.422,0.127,0.796-0.131,0.857C42.807,8.029,42.332,8.028,42.349,7.381z M39.147,7.162
	c0.825-0.512,1.556-0.827,1.633-0.703c0.077,0.124-0.529,0.639-1.354,1.152c-0.825,0.512-1.556,0.827-1.633,0.703
	C37.716,8.189,38.323,7.674,39.147,7.162z M46.686,7.337c0,0,0.33-0.249,0.229-0.667c-0.103-0.417-0.599-0.809-1.326-0.55
	c-0.73,0.257-1.077,0.965-0.708,1.803c0.367,0.838,1.95,1.119,3.297,0.06c1.346-1.058,1.787-1.326,3.13-1.768
	c0,0-1.514,0.253-2.836,1.16c-1.325,0.908-2.34,0.64-2.645,0.21c-0.304-0.431-0.107-0.8,0.155-0.854
	C46.245,6.679,46.72,6.691,46.686,7.337z M52.866,7.381c0,0-0.326,0.26-0.212,0.675c0.113,0.414,0.619,0.793,1.342,0.515
	c0.721-0.275,1.051-0.994,0.658-1.821c-0.393-0.828-1.979-1.067-3.297,0.027c-1.32,1.095-1.751,1.373-3.083,1.853
	c0,0,1.505-0.294,2.805-1.238c1.298-0.942,2.319-0.701,2.637-0.278c0.316,0.422,0.127,0.796-0.132,0.857
	C53.324,8.029,52.85,8.028,52.866,7.381z M49.664,7.158c0.824-0.512,1.555-0.827,1.631-0.703c0.078,0.124-0.528,0.64-1.353,1.151
	c-0.824,0.512-1.555,0.827-1.632,0.703C48.234,8.186,48.839,7.67,49.664,7.158z M57.204,7.337c0,0,0.33-0.249,0.228-0.667
	c-0.103-0.417-0.599-0.809-1.324-0.55c-0.73,0.257-1.078,0.965-0.709,1.803c0.367,0.838,1.949,1.119,3.299,0.06
	c1.346-1.058,1.785-1.326,3.129-1.768c0,0-1.512,0.253-2.835,1.16c-1.324,0.908-2.341,0.64-2.646,0.21
	c-0.305-0.431-0.107-0.8,0.155-0.854C56.764,6.679,57.236,6.691,57.204,7.337z M63.383,7.381c0,0-0.324,0.26-0.212,0.675
	c0.114,0.414,0.62,0.793,1.343,0.515c0.721-0.275,1.051-0.994,0.659-1.821c-0.394-0.828-1.979-1.067-3.298,0.027
	c-1.32,1.095-1.751,1.373-3.084,1.853c0,0,1.506-0.294,2.805-1.238c1.299-0.942,2.321-0.701,2.639-0.278
	c0.315,0.421,0.125,0.796-0.133,0.855C63.842,8.029,63.367,8.028,63.383,7.381z M60.182,7.163c0.824-0.512,1.555-0.827,1.632-0.703
	c0.077,0.124-0.529,0.64-1.354,1.152c-0.824,0.512-1.555,0.827-1.633,0.703C58.75,8.19,59.356,7.675,60.182,7.163z M67.723,7.337
	c0,0,0.328-0.249,0.228-0.667c-0.103-0.417-0.599-0.809-1.325-0.55c-0.73,0.257-1.076,0.965-0.708,1.803
	c0.366,0.838,1.949,1.119,3.298,0.06C70.561,6.925,71,6.657,72.344,6.215c0,0-1.513,0.253-2.836,1.16
	c-1.324,0.908-2.342,0.64-2.645,0.21c-0.305-0.431-0.107-0.8,0.156-0.854C67.279,6.679,67.755,6.691,67.723,7.337z M73.9,7.381
	c0,0-0.325,0.26-0.211,0.675c0.112,0.414,0.619,0.793,1.34,0.515c0.723-0.275,1.053-0.994,0.66-1.821
	c-0.393-0.828-1.979-1.067-3.299,0.027c-1.318,1.095-1.75,1.373-3.082,1.853c0,0,1.506-0.294,2.805-1.238
	c1.299-0.942,2.32-0.701,2.638-0.278c0.315,0.422,0.127,0.796-0.132,0.857C74.359,8.029,73.885,8.028,73.9,7.381z M70.698,7.162
	c0.825-0.512,1.556-0.827,1.634-0.702c0.076,0.124-0.529,0.64-1.354,1.152c-0.826,0.512-1.557,0.827-1.634,0.702
	C69.268,8.19,69.873,7.674,70.698,7.162z M78.238,7.337c0,0,0.33-0.249,0.229-0.667c-0.104-0.417-0.6-0.809-1.324-0.55
	c-0.73,0.257-1.078,0.965-0.709,1.803c0.366,0.838,1.949,1.119,3.299,0.06c1.346-1.058,1.785-1.326,3.129-1.768
	c0,0-1.512,0.253-2.836,1.16c-1.324,0.908-2.342,0.64-2.645,0.21c-0.306-0.431-0.107-0.8,0.155-0.854
	C77.798,6.679,78.271,6.691,78.238,7.337z M84.418,7.381c0,0-0.325,0.26-0.211,0.675c0.113,0.414,0.619,0.793,1.341,0.515
	c0.724-0.275,1.052-0.994,0.66-1.821c-0.394-0.828-1.979-1.067-3.298,0.027c-1.32,1.095-1.751,1.373-3.083,1.853
	c0,0,1.505-0.294,2.804-1.238c1.299-0.942,2.321-0.701,2.639-0.278c0.315,0.422,0.127,0.796-0.133,0.857
	C84.877,8.029,84.402,8.028,84.418,7.381z M81.215,7.163c0.825-0.512,1.557-0.827,1.633-0.702c0.078,0.124-0.528,0.64-1.354,1.152
	c-0.824,0.512-1.556,0.827-1.633,0.702S80.391,7.675,81.215,7.163z M88.757,7.337c0,0,0.33-0.249,0.228-0.667
	c-0.103-0.417-0.598-0.809-1.325-0.55c-0.729,0.257-1.076,0.965-0.707,1.803c0.366,0.838,1.948,1.119,3.298,0.06
	c1.346-1.058,1.786-1.326,3.13-1.768c0,0-1.513,0.253-2.836,1.16c-1.325,0.908-2.342,0.64-2.646,0.21
	c-0.306-0.431-0.107-0.8,0.156-0.854C88.314,6.679,88.79,6.691,88.757,7.337z M94.936,7.381c0,0-0.324,0.26-0.211,0.675
	c0.113,0.414,0.619,0.793,1.342,0.515c0.722-0.275,1.051-0.994,0.66-1.821c-0.394-0.828-1.979-1.067-3.3,0.027
	c-1.319,1.095-1.751,1.373-3.081,1.853c0,0,1.504-0.294,2.805-1.238c1.298-0.942,2.32-0.701,2.637-0.278
	c0.316,0.422,0.127,0.796-0.133,0.857C95.395,8.029,94.92,8.028,94.936,7.381z M91.732,7.163c0.825-0.512,1.557-0.826,1.633-0.702
	c0.078,0.125-0.528,0.641-1.354,1.152c-0.824,0.512-1.556,0.827-1.633,0.703C90.302,8.191,90.908,7.675,91.732,7.163z M4.616,93.314
	c0,0,0.33-0.248,0.229-0.666c-0.103-0.418-0.599-0.809-1.326-0.551c-0.729,0.258-1.076,0.967-0.708,1.805s1.95,1.117,3.298,0.06
	c1.346-1.058,1.787-1.326,3.13-1.769c0,0-1.513,0.254-2.836,1.16c-1.325,0.907-2.341,0.641-2.645,0.211
	c-0.305-0.432-0.107-0.801,0.155-0.854C4.175,92.657,4.65,92.67,4.616,93.314z M10.796,93.359c0,0-0.325,0.262-0.211,0.676
	c0.114,0.414,0.619,0.793,1.341,0.515c0.722-0.274,1.051-0.993,0.661-1.821c-0.393-0.828-1.98-1.065-3.299,0.027
	c-1.32,1.094-1.751,1.372-3.083,1.854c0,0,1.505-0.295,2.804-1.238c1.299-0.941,2.32-0.701,2.637-0.278
	c0.316,0.423,0.128,0.798-0.132,0.857C11.254,94.008,10.779,94.008,10.796,93.359z M7.598,93.142
	c0.825-0.512,1.556-0.827,1.633-0.702c0.077,0.123-0.529,0.639-1.354,1.15c-0.825,0.513-1.556,0.828-1.633,0.703
	C6.167,94.17,6.773,93.654,7.598,93.142z M15.133,93.314c0,0,0.331-0.248,0.229-0.666s-0.599-0.809-1.326-0.551
	c-0.73,0.258-1.077,0.967-0.708,1.805c0.368,0.838,1.95,1.117,3.298,0.06c1.346-1.058,1.787-1.326,3.13-1.769
	c0,0-1.513,0.254-2.836,1.16c-1.325,0.907-2.34,0.641-2.645,0.211c-0.305-0.432-0.108-0.801,0.155-0.854
	C14.693,92.657,15.168,92.67,15.133,93.314z M21.313,93.359c0,0-0.325,0.262-0.211,0.676c0.114,0.414,0.619,0.793,1.341,0.515
	c0.722-0.274,1.051-0.993,0.66-1.821c-0.392-0.828-1.979-1.065-3.298,0.027c-1.32,1.094-1.751,1.372-3.083,1.854
	c0,0,1.505-0.295,2.804-1.238c1.299-0.941,2.321-0.701,2.637-0.278c0.317,0.423,0.128,0.798-0.131,0.857
	C21.771,94.008,21.297,94.008,21.313,93.359z M18.111,93.139c0.825-0.512,1.556-0.826,1.633-0.703
	c0.077,0.125-0.529,0.641-1.354,1.152c-0.825,0.512-1.556,0.826-1.633,0.703C16.68,94.166,17.287,93.65,18.111,93.139z
	 M25.651,93.314c0,0,0.33-0.248,0.228-0.666s-0.599-0.809-1.325-0.551c-0.73,0.258-1.077,0.967-0.708,1.805
	c0.367,0.838,1.95,1.117,3.298,0.06c1.346-1.058,1.787-1.326,3.13-1.769c0,0-1.513,0.254-2.836,1.16
	c-1.325,0.907-2.341,0.641-2.645,0.211c-0.304-0.432-0.107-0.801,0.156-0.854C25.21,92.657,25.686,92.67,25.651,93.314z
	 M31.831,93.359c0,0-0.325,0.262-0.211,0.676c0.114,0.414,0.619,0.793,1.341,0.515c0.721-0.274,1.051-0.993,0.66-1.821
	c-0.393-0.828-1.98-1.065-3.298,0.027c-1.32,1.094-1.751,1.372-3.083,1.854c0,0,1.505-0.295,2.804-1.238
	c1.298-0.941,2.321-0.701,2.637-0.278c0.317,0.423,0.128,0.798-0.132,0.857C32.289,94.008,31.814,94.008,31.831,93.359z
	 M28.626,93.138c0.825-0.513,1.556-0.827,1.633-0.703c0.077,0.124-0.529,0.64-1.354,1.151c-0.825,0.512-1.556,0.827-1.632,0.703
	C27.195,94.166,27.802,93.65,28.626,93.138z M36.169,93.314c0,0,0.33-0.248,0.228-0.666c-0.103-0.418-0.599-0.809-1.326-0.551
	c-0.73,0.258-1.077,0.967-0.708,1.805c0.368,0.838,1.95,1.117,3.297,0.06c1.346-1.058,1.787-1.326,3.13-1.769
	c0,0-1.513,0.254-2.835,1.16c-1.325,0.907-2.341,0.641-2.645,0.211c-0.305-0.432-0.107-0.801,0.156-0.854
	C35.728,92.657,36.203,92.67,36.169,93.314z M42.349,93.359c0,0-0.326,0.262-0.211,0.676c0.113,0.414,0.619,0.793,1.341,0.515
	c0.722-0.274,1.052-0.993,0.66-1.821c-0.393-0.828-1.979-1.065-3.298,0.027c-1.32,1.094-1.75,1.372-3.083,1.854
	c0,0,1.506-0.295,2.804-1.238c1.299-0.941,2.322-0.701,2.638-0.278c0.317,0.423,0.127,0.798-0.131,0.857
	C42.807,94.008,42.332,94.008,42.349,93.359z M39.143,93.139c0.825-0.513,1.556-0.827,1.633-0.703
	c0.077,0.123-0.529,0.639-1.354,1.151s-1.556,0.827-1.633,0.703C37.712,94.166,38.318,93.65,39.143,93.139z M46.686,93.314
	c0,0,0.33-0.248,0.229-0.666c-0.103-0.418-0.599-0.809-1.326-0.551c-0.73,0.258-1.077,0.967-0.708,1.805
	c0.367,0.838,1.95,1.117,3.297,0.06c1.346-1.058,1.787-1.326,3.13-1.769c0,0-1.514,0.254-2.836,1.16
	c-1.325,0.907-2.34,0.641-2.645,0.211c-0.304-0.432-0.107-0.801,0.155-0.854C46.245,92.657,46.72,92.67,46.686,93.314z
	 M52.866,93.359c0,0-0.326,0.262-0.212,0.676c0.113,0.414,0.619,0.793,1.342,0.515c0.721-0.274,1.051-0.993,0.658-1.821
	s-1.979-1.065-3.297,0.027c-1.32,1.094-1.751,1.372-3.083,1.854c0,0,1.505-0.295,2.805-1.238c1.298-0.941,2.319-0.701,2.637-0.278
	c0.316,0.423,0.127,0.798-0.132,0.857C53.324,94.008,52.85,94.008,52.866,93.359z M49.666,93.133
	c0.824-0.512,1.555-0.826,1.632-0.703c0.077,0.125-0.529,0.64-1.354,1.152c-0.824,0.512-1.555,0.826-1.631,0.703
	C48.236,94.16,48.842,93.645,49.666,93.133z M57.204,93.314c0,0,0.33-0.248,0.228-0.666s-0.599-0.809-1.324-0.551
	c-0.73,0.258-1.078,0.967-0.709,1.805c0.367,0.838,1.949,1.117,3.299,0.06c1.346-1.058,1.785-1.326,3.129-1.769
	c0,0-1.512,0.254-2.835,1.16c-1.324,0.907-2.341,0.641-2.646,0.211c-0.305-0.432-0.107-0.801,0.155-0.854
	C56.764,92.657,57.236,92.67,57.204,93.314z M63.383,93.359c0,0-0.324,0.262-0.212,0.676c0.114,0.414,0.62,0.793,1.343,0.515
	c0.721-0.274,1.051-0.993,0.659-1.821c-0.394-0.828-1.979-1.065-3.298,0.027c-1.32,1.094-1.751,1.372-3.084,1.854
	c0,0,1.506-0.295,2.805-1.238c1.299-0.941,2.321-0.701,2.639-0.278c0.315,0.423,0.127,0.798-0.133,0.857
	C63.842,94.008,63.367,94.008,63.383,93.359z M60.177,93.14c0.825-0.513,1.556-0.827,1.633-0.703s-0.529,0.64-1.354,1.151
	c-0.824,0.512-1.556,0.827-1.633,0.703C58.746,94.168,59.352,93.652,60.177,93.14z M67.723,93.314c0,0,0.328-0.248,0.228-0.666
	c-0.103-0.418-0.599-0.809-1.325-0.551c-0.73,0.258-1.076,0.967-0.708,1.805c0.366,0.838,1.949,1.117,3.298,0.06
	c1.346-1.058,1.786-1.326,3.131-1.769c0,0-1.514,0.254-2.837,1.16c-1.325,0.907-2.342,0.641-2.646,0.211
	c-0.305-0.432-0.106-0.801,0.156-0.854C67.279,92.657,67.755,92.67,67.723,93.314z M73.9,93.359c0,0-0.325,0.262-0.211,0.676
	c0.112,0.414,0.619,0.793,1.34,0.515c0.723-0.274,1.053-0.993,0.66-1.821s-1.979-1.065-3.299,0.027
	c-1.32,1.094-1.75,1.372-3.082,1.854c0,0,1.506-0.295,2.805-1.238c1.299-0.941,2.32-0.701,2.638-0.278
	c0.315,0.423,0.127,0.798-0.132,0.857C74.359,94.008,73.885,94.008,73.9,93.359z M70.693,93.139
	c0.825-0.512,1.557-0.826,1.634-0.701c0.077,0.123-0.528,0.64-1.354,1.152c-0.825,0.512-1.556,0.826-1.634,0.701
	C69.264,94.167,69.869,93.651,70.693,93.139z M78.238,93.314c0,0,0.33-0.248,0.229-0.666c-0.104-0.418-0.6-0.809-1.324-0.551
	c-0.73,0.258-1.078,0.967-0.709,1.805c0.366,0.838,1.949,1.117,3.299,0.06c1.346-1.058,1.785-1.326,3.129-1.769
	c0,0-1.512,0.254-2.836,1.16c-1.324,0.907-2.342,0.641-2.645,0.211c-0.306-0.432-0.107-0.801,0.155-0.854
	C77.798,92.657,78.271,92.67,78.238,93.314z M84.418,93.359c0,0-0.325,0.262-0.211,0.676c0.113,0.414,0.619,0.793,1.341,0.515
	c0.724-0.274,1.052-0.993,0.66-1.821c-0.394-0.828-1.979-1.065-3.298,0.027c-1.32,1.094-1.751,1.372-3.083,1.854
	c0,0,1.505-0.295,2.804-1.238c1.299-0.941,2.321-0.701,2.639-0.278c0.315,0.423,0.127,0.798-0.133,0.857
	C84.877,94.008,84.402,94.008,84.418,93.359z M81.211,93.14c0.824-0.513,1.556-0.826,1.633-0.702
	c0.078,0.125-0.529,0.641-1.354,1.152s-1.556,0.826-1.633,0.703C79.779,94.168,80.386,93.652,81.211,93.14z M88.757,93.314
	c0,0,0.33-0.248,0.228-0.666s-0.598-0.809-1.325-0.551c-0.729,0.258-1.076,0.967-0.707,1.805c0.366,0.838,1.948,1.117,3.298,0.06
	c1.346-1.058,1.786-1.326,3.13-1.769c0,0-1.513,0.254-2.836,1.16c-1.325,0.907-2.342,0.641-2.646,0.211
	c-0.306-0.432-0.107-0.801,0.156-0.854C88.314,92.657,88.79,92.67,88.757,93.314z M94.936,93.359c0,0-0.324,0.262-0.211,0.676
	s0.619,0.793,1.342,0.515c0.722-0.274,1.051-0.993,0.66-1.821c-0.394-0.828-1.979-1.065-3.3,0.027
	c-1.319,1.094-1.751,1.372-3.081,1.854c0,0,1.504-0.295,2.805-1.238c1.298-0.941,2.32-0.701,2.637-0.278s0.127,0.798-0.133,0.857
	C95.395,94.008,94.92,94.008,94.936,93.359z M91.729,93.141c0.824-0.513,1.557-0.827,1.633-0.703
	c0.078,0.125-0.528,0.641-1.354,1.152c-0.824,0.513-1.556,0.827-1.633,0.703C90.298,94.168,90.904,93.652,91.729,93.141z
	 M95.436,11.731c0,0,0.25,0.318,0.668,0.22c0.416-0.098,0.809-0.579,0.549-1.28c-0.256-0.706-0.965-1.041-1.803-0.684
	c-0.838,0.354-1.117,1.883-0.061,3.185c1.059,1.301,1.326,1.726,1.77,3.023c0,0-0.254-1.462-1.16-2.739
	c-0.908-1.28-0.642-2.261-0.211-2.555c0.432-0.294,0.801-0.104,0.854,0.15C96.094,11.306,96.081,11.764,95.436,11.731z M95.393,17.7
	c0,0-0.262-0.314-0.676-0.205c-0.414,0.109-0.793,0.598-0.516,1.296c0.275,0.697,0.994,1.014,1.82,0.637
	c0.83-0.38,1.067-1.913-0.025-3.186c-1.096-1.275-1.373-1.691-1.854-2.977c0,0,0.293,1.454,1.238,2.708
	c0.941,1.254,0.7,2.242,0.277,2.547c-0.422,0.306-0.797,0.124-0.856-0.127C94.743,18.143,94.744,17.684,95.393,17.7z M96.314,16.186
	c-0.123,0.074-0.64-0.511-1.149-1.308c-0.513-0.798-0.828-1.503-0.704-1.577c0.124-0.074,0.641,0.51,1.152,1.307
	C96.126,15.407,96.439,16.113,96.314,16.186z M95.436,21.889c0,0,0.25,0.318,0.668,0.22c0.416-0.099,0.809-0.578,0.549-1.28
	c-0.256-0.705-0.965-1.04-1.803-0.684c-0.838,0.355-1.117,1.883-0.061,3.185c1.059,1.3,1.326,1.726,1.77,3.023
	c0,0-0.254-1.46-1.16-2.738c-0.908-1.28-0.642-2.261-0.211-2.555c0.432-0.294,0.801-0.104,0.854,0.15
	C96.094,21.463,96.081,21.922,95.436,21.889z M95.393,27.857c0,0-0.262-0.315-0.676-0.205c-0.414,0.11-0.793,0.598-0.516,1.296
	c0.275,0.697,0.994,1.015,1.82,0.637c0.83-0.379,1.067-1.912-0.025-3.186c-1.096-1.275-1.373-1.691-1.854-2.978
	c0,0,0.293,1.454,1.238,2.708c0.941,1.254,0.7,2.242,0.277,2.547c-0.422,0.306-0.797,0.123-0.856-0.127
	C94.743,28.299,94.744,27.841,95.393,27.857z M96.314,26.343c-0.123,0.074-0.64-0.511-1.149-1.308
	c-0.513-0.798-0.828-1.503-0.704-1.577c0.124-0.075,0.641,0.51,1.152,1.307C96.126,25.564,96.439,26.271,96.314,26.343z
	 M95.436,32.046c0,0,0.25,0.319,0.668,0.221c0.416-0.099,0.809-0.578,0.549-1.28c-0.256-0.705-0.965-1.04-1.803-0.684
	c-0.838,0.354-1.117,1.882-0.061,3.185c1.059,1.3,1.326,1.726,1.77,3.023c0,0-0.254-1.461-1.16-2.739
	c-0.908-1.279-0.642-2.26-0.211-2.554c0.432-0.294,0.801-0.104,0.854,0.15C96.094,31.62,96.081,32.079,95.436,32.046z
	 M95.393,38.015c0,0-0.262-0.314-0.676-0.205s-0.793,0.598-0.516,1.296c0.275,0.696,0.994,1.014,1.82,0.637
	c0.83-0.379,1.067-1.912-0.025-3.186c-1.096-1.275-1.373-1.691-1.854-2.977c0,0,0.293,1.454,1.238,2.708
	c0.941,1.253,0.7,2.241,0.277,2.546c-0.422,0.306-0.797,0.124-0.856-0.127C94.743,38.457,94.744,37.999,95.393,38.015z M96.314,36.5
	c-0.123,0.075-0.64-0.51-1.149-1.307c-0.513-0.798-0.828-1.503-0.704-1.577c0.124-0.075,0.641,0.51,1.152,1.306
	C96.126,35.721,96.439,36.428,96.314,36.5z M95.436,42.204c0,0,0.25,0.318,0.668,0.22c0.416-0.099,0.809-0.578,0.549-1.281
	c-0.256-0.705-0.965-1.039-1.803-0.682c-0.838,0.354-1.117,1.882-0.061,3.184c1.059,1.3,1.326,1.726,1.77,3.023
	c0,0-0.254-1.461-1.16-2.739c-0.908-1.279-0.642-2.261-0.211-2.554c0.432-0.294,0.801-0.104,0.854,0.15
	C96.094,41.778,96.081,42.236,95.436,42.204z M95.393,48.172c0,0-0.262-0.314-0.676-0.204c-0.414,0.109-0.793,0.598-0.516,1.295
	c0.275,0.697,0.994,1.015,1.82,0.637c0.83-0.378,1.067-1.912-0.025-3.185c-1.096-1.275-1.373-1.691-1.854-2.978
	c0,0,0.293,1.454,1.238,2.708c0.941,1.254,0.7,2.242,0.277,2.547c-0.422,0.307-0.797,0.124-0.856-0.127
	C94.743,48.614,94.744,48.155,95.393,48.172z M96.314,46.658c-0.123,0.074-0.64-0.511-1.149-1.308
	c-0.513-0.797-0.828-1.503-0.704-1.576c0.124-0.075,0.641,0.51,1.152,1.307C96.126,45.879,96.439,46.585,96.314,46.658z
	 M95.436,52.361c0,0,0.25,0.318,0.668,0.22c0.416-0.099,0.809-0.577,0.549-1.279c-0.256-0.704-0.965-1.04-1.803-0.684
	c-0.838,0.354-1.117,1.883-0.061,3.185c1.059,1.301,1.326,1.727,1.77,3.023c0,0-0.254-1.462-1.16-2.74
	c-0.908-1.279-0.642-2.261-0.211-2.554c0.432-0.294,0.801-0.104,0.854,0.151C96.094,51.936,96.081,52.395,95.436,52.361z
	 M95.393,58.329c0,0-0.262-0.313-0.676-0.204s-0.793,0.598-0.516,1.295c0.275,0.698,0.994,1.016,1.82,0.639
	c0.83-0.379,1.067-1.912-0.025-3.187c-1.096-1.274-1.373-1.69-1.854-2.978c0,0,0.293,1.453,1.238,2.709
	c0.941,1.254,0.7,2.24,0.277,2.547c-0.422,0.306-0.797,0.123-0.856-0.129C94.743,58.771,94.744,58.313,95.393,58.329z
	 M96.314,56.814c-0.123,0.074-0.64-0.51-1.149-1.308c-0.513-0.797-0.828-1.504-0.704-1.575c0.124-0.076,0.641,0.51,1.152,1.307
	C96.126,56.036,96.439,56.743,96.314,56.814z M95.436,62.52c0,0,0.25,0.317,0.668,0.22c0.416-0.099,0.809-0.578,0.549-1.279
	c-0.256-0.705-0.965-1.04-1.803-0.685c-0.838,0.354-1.117,1.884-0.061,3.186c1.059,1.301,1.326,1.727,1.77,3.023
	c0,0-0.254-1.461-1.16-2.739c-0.908-1.279-0.642-2.261-0.211-2.556c0.432-0.293,0.801-0.104,0.854,0.15S96.081,62.552,95.436,62.52z
	 M95.393,68.486c0,0-0.262-0.313-0.676-0.204c-0.414,0.11-0.793,0.599-0.516,1.296c0.275,0.697,0.994,1.015,1.82,0.638
	c0.83-0.38,1.067-1.913-0.025-3.186c-1.096-1.275-1.373-1.691-1.854-2.979c0,0,0.293,1.453,1.238,2.708
	c0.941,1.256,0.7,2.241,0.277,2.547c-0.422,0.307-0.797,0.123-0.856-0.127C94.743,68.93,94.744,68.471,95.393,68.486z
	 M96.314,66.975c-0.123,0.072-0.64-0.512-1.149-1.31c-0.513-0.797-0.828-1.503-0.704-1.576c0.124-0.075,0.641,0.511,1.152,1.308
	C96.126,66.193,96.439,66.9,96.314,66.975z M95.436,72.677c0,0,0.25,0.318,0.668,0.22c0.416-0.099,0.809-0.578,0.549-1.279
	c-0.256-0.705-0.965-1.04-1.803-0.684c-0.838,0.354-1.117,1.883-0.061,3.185c1.059,1.301,1.326,1.726,1.77,3.022
	c0,0-0.254-1.461-1.16-2.738c-0.908-1.279-0.642-2.262-0.211-2.555c0.432-0.293,0.801-0.104,0.854,0.15
	C96.094,72.251,96.081,72.709,95.436,72.677z M95.393,78.645c0,0-0.262-0.313-0.676-0.203c-0.414,0.108-0.793,0.598-0.516,1.295
	c0.275,0.697,0.994,1.015,1.82,0.638c0.83-0.379,1.067-1.912-0.025-3.187c-1.096-1.273-1.373-1.69-1.854-2.978
	c0,0,0.293,1.453,1.238,2.709c0.941,1.254,0.7,2.24,0.277,2.546c-0.422,0.307-0.797,0.124-0.856-0.127
	C94.743,79.087,94.744,78.629,95.393,78.645z M96.314,77.13c-0.123,0.075-0.64-0.51-1.149-1.307
	c-0.513-0.798-0.828-1.505-0.704-1.577c0.124-0.074,0.641,0.51,1.152,1.309C96.126,76.352,96.439,77.059,96.314,77.13z
	 M4.616,11.731c0,0,0.248,0.318,0.667,0.22c0.417-0.098,0.809-0.579,0.55-1.28c-0.258-0.705-0.967-1.04-1.804-0.683
	c-0.838,0.354-1.118,1.883-0.06,3.185c1.058,1.301,1.326,1.726,1.768,3.023c0,0-0.253-1.462-1.16-2.739
	c-0.908-1.28-0.64-2.261-0.211-2.555c0.432-0.294,0.801-0.104,0.854,0.15C5.273,11.306,5.261,11.764,4.616,11.731z M4.571,17.7
	c0,0-0.261-0.314-0.675-0.205c-0.414,0.109-0.793,0.598-0.515,1.296c0.275,0.697,0.994,1.014,1.821,0.637
	c0.828-0.38,1.067-1.913-0.027-3.186c-1.095-1.275-1.373-1.691-1.853-2.977c0,0,0.294,1.454,1.238,2.708
	c0.942,1.254,0.701,2.242,0.278,2.547c-0.422,0.306-0.796,0.124-0.856-0.127C3.923,18.143,3.924,17.684,4.571,17.7z M5.496,16.186
	c-0.124,0.074-0.64-0.511-1.151-1.308c-0.513-0.798-0.827-1.503-0.704-1.577c0.124-0.074,0.64,0.51,1.152,1.307
	C5.306,15.407,5.62,16.113,5.496,16.186z M4.616,21.889c0,0,0.248,0.318,0.667,0.22c0.417-0.099,0.809-0.578,0.55-1.28
	c-0.257-0.705-0.966-1.04-1.803-0.684C3.192,20.5,2.912,22.028,3.97,23.33c1.058,1.3,1.326,1.726,1.768,3.023
	c0,0-0.253-1.46-1.16-2.738c-0.908-1.28-0.64-2.261-0.211-2.555c0.432-0.294,0.801-0.104,0.854,0.15
	C5.273,21.463,5.261,21.922,4.616,21.889z M4.571,27.857c0,0-0.261-0.315-0.675-0.205c-0.414,0.11-0.793,0.598-0.515,1.296
	c0.275,0.697,0.994,1.015,1.821,0.637c0.828-0.379,1.067-1.912-0.027-3.186c-1.095-1.275-1.373-1.691-1.853-2.978
	c0,0,0.294,1.454,1.238,2.708c0.942,1.254,0.701,2.242,0.278,2.547c-0.422,0.306-0.796,0.123-0.856-0.127
	C3.923,28.299,3.924,27.841,4.571,27.857z M5.496,26.343c-0.124,0.074-0.64-0.511-1.151-1.308c-0.513-0.798-0.827-1.503-0.704-1.577
	c0.124-0.075,0.64,0.51,1.152,1.307C5.306,25.564,5.62,26.271,5.496,26.343z M4.616,32.046c0,0,0.248,0.319,0.667,0.221
	c0.417-0.099,0.809-0.578,0.55-1.28c-0.257-0.705-0.966-1.04-1.803-0.684c-0.838,0.354-1.118,1.882-0.06,3.185
	c1.058,1.3,1.326,1.726,1.768,3.023c0,0-0.253-1.461-1.16-2.739c-0.908-1.279-0.64-2.26-0.211-2.554
	c0.432-0.294,0.801-0.104,0.854,0.15C5.273,31.62,5.261,32.079,4.616,32.046z M4.571,38.015c0,0-0.261-0.314-0.675-0.205
	s-0.793,0.598-0.515,1.296c0.275,0.696,0.994,1.014,1.821,0.637c0.828-0.379,1.067-1.912-0.027-3.186
	c-1.095-1.275-1.373-1.691-1.853-2.977c0,0,0.294,1.454,1.238,2.708c0.942,1.253,0.701,2.241,0.278,2.546
	c-0.422,0.306-0.796,0.124-0.856-0.127C3.923,38.457,3.924,37.999,4.571,38.015z M5.496,36.5c-0.124,0.075-0.64-0.51-1.151-1.307
	c-0.513-0.798-0.827-1.503-0.704-1.577c0.124-0.075,0.64,0.51,1.152,1.306C5.306,35.721,5.62,36.428,5.496,36.5z M4.616,42.204
	c0,0,0.248,0.318,0.667,0.22c0.417-0.099,0.809-0.578,0.55-1.281c-0.257-0.705-0.966-1.039-1.803-0.682
	c-0.838,0.354-1.118,1.882-0.06,3.184c1.058,1.3,1.326,1.726,1.768,3.023c0,0-0.253-1.461-1.16-2.739
	c-0.908-1.279-0.64-2.261-0.211-2.554c0.432-0.294,0.801-0.104,0.854,0.15C5.273,41.778,5.261,42.236,4.616,42.204z M4.571,48.172
	c0,0-0.261-0.314-0.675-0.204c-0.414,0.109-0.793,0.598-0.515,1.295c0.275,0.697,0.994,1.015,1.821,0.637
	c0.828-0.378,1.067-1.912-0.027-3.185c-1.095-1.275-1.373-1.691-1.853-2.978c0,0,0.294,1.454,1.238,2.708
	c0.942,1.254,0.701,2.242,0.278,2.547c-0.422,0.307-0.796,0.124-0.856-0.127C3.923,48.614,3.924,48.155,4.571,48.172z M5.496,46.658
	c-0.124,0.074-0.64-0.511-1.151-1.308c-0.513-0.797-0.827-1.503-0.704-1.576c0.124-0.075,0.64,0.51,1.152,1.307
	C5.306,45.879,5.62,46.585,5.496,46.658z M4.616,52.361c0,0,0.248,0.318,0.667,0.22c0.417-0.099,0.809-0.577,0.55-1.279
	c-0.257-0.704-0.966-1.04-1.803-0.684c-0.838,0.354-1.118,1.883-0.06,3.185c1.058,1.301,1.326,1.727,1.768,3.023
	c0,0-0.253-1.462-1.16-2.74c-0.908-1.279-0.64-2.261-0.211-2.554c0.432-0.294,0.801-0.104,0.854,0.151
	C5.273,51.936,5.261,52.395,4.616,52.361z M4.571,58.329c0,0-0.261-0.313-0.675-0.204s-0.793,0.598-0.515,1.295
	c0.275,0.698,0.994,1.016,1.821,0.639c0.828-0.379,1.067-1.912-0.027-3.187c-1.095-1.274-1.373-1.69-1.853-2.978
	c0,0,0.294,1.453,1.238,2.709c0.942,1.254,0.701,2.24,0.278,2.547c-0.422,0.306-0.796,0.123-0.856-0.129
	C3.923,58.771,3.924,58.313,4.571,58.329z M5.496,56.814c-0.124,0.074-0.64-0.51-1.151-1.308c-0.513-0.797-0.827-1.504-0.704-1.575
	c0.124-0.076,0.64,0.51,1.152,1.307C5.306,56.036,5.62,56.743,5.496,56.814z M4.616,62.52c0,0,0.248,0.317,0.667,0.22
	c0.417-0.099,0.809-0.578,0.55-1.279c-0.257-0.705-0.966-1.04-1.803-0.685c-0.838,0.354-1.118,1.884-0.06,3.186
	c1.058,1.301,1.326,1.727,1.768,3.023c0,0-0.253-1.461-1.16-2.739c-0.908-1.279-0.64-2.261-0.211-2.556
	c0.432-0.293,0.801-0.104,0.854,0.15C5.274,62.094,5.261,62.552,4.616,62.52z M4.571,68.486c0,0-0.261-0.313-0.675-0.204
	c-0.414,0.11-0.793,0.599-0.515,1.296c0.275,0.697,0.994,1.015,1.821,0.638c0.828-0.38,1.067-1.913-0.027-3.186
	c-1.095-1.275-1.373-1.691-1.853-2.979c0,0,0.294,1.453,1.238,2.708c0.942,1.256,0.701,2.241,0.278,2.547
	c-0.422,0.307-0.796,0.123-0.856-0.127C3.923,68.93,3.924,68.471,4.571,68.486z M5.496,66.975c-0.124,0.072-0.64-0.512-1.151-1.31
	c-0.513-0.797-0.827-1.503-0.704-1.576c0.124-0.075,0.64,0.511,1.152,1.308C5.306,66.193,5.62,66.9,5.496,66.975z M4.616,72.677
	c0,0,0.248,0.318,0.667,0.22c0.417-0.099,0.809-0.578,0.55-1.279c-0.257-0.705-0.966-1.04-1.803-0.684
	c-0.838,0.354-1.118,1.883-0.06,3.185c1.058,1.301,1.326,1.726,1.768,3.022c0,0-0.253-1.461-1.16-2.738
	c-0.908-1.279-0.64-2.262-0.211-2.555c0.432-0.293,0.801-0.104,0.854,0.15C5.273,72.251,5.261,72.709,4.616,72.677z M4.571,78.645
	c0,0-0.261-0.313-0.675-0.203c-0.414,0.108-0.793,0.598-0.515,1.295c0.275,0.697,0.994,1.015,1.821,0.638
	c0.828-0.379,1.067-1.912-0.027-3.187c-1.095-1.273-1.373-1.69-1.853-2.978c0,0,0.294,1.453,1.238,2.709
	c0.942,1.254,0.701,2.24,0.278,2.546c-0.422,0.307-0.796,0.124-0.856-0.127C3.923,79.087,3.924,78.629,4.571,78.645z M5.496,77.13
	c-0.124,0.075-0.64-0.51-1.151-1.307c-0.513-0.798-0.827-1.505-0.704-1.577c0.124-0.074,0.64,0.51,1.152,1.309
	C5.306,76.352,5.62,77.059,5.496,77.13z M95.436,83.677c0,0,0.25,0.318,0.668,0.22c0.416-0.099,0.809-0.578,0.549-1.279
	c-0.256-0.705-0.965-1.04-1.803-0.684c-0.838,0.354-1.117,1.883-0.061,3.185c1.059,1.301,1.326,1.726,1.77,3.022
	c0,0-0.254-1.461-1.16-2.738c-0.908-1.279-0.642-2.262-0.211-2.555c0.432-0.293,0.801-0.104,0.854,0.15
	C96.094,83.251,96.081,83.709,95.436,83.677z M95.393,89.645c0,0-0.262-0.313-0.676-0.203c-0.414,0.108-0.793,0.598-0.516,1.295
	c0.275,0.697,0.994,1.015,1.82,0.638c0.83-0.379,1.067-1.912-0.025-3.187c-1.096-1.273-1.373-1.69-1.854-2.978
	c0,0,0.293,1.453,1.238,2.709c0.941,1.254,0.7,2.24,0.277,2.546c-0.422,0.307-0.797,0.124-0.856-0.127
	C94.743,90.087,94.744,89.629,95.393,89.645z M96.314,88.13c-0.123,0.075-0.64-0.51-1.149-1.307
	c-0.513-0.798-0.828-1.505-0.704-1.577c0.124-0.074,0.641,0.51,1.152,1.309C96.126,87.352,96.439,88.059,96.314,88.13z
	 M4.616,83.677c0,0,0.248,0.318,0.667,0.22c0.417-0.099,0.809-0.578,0.55-1.279c-0.257-0.705-0.966-1.04-1.803-0.684
	c-0.838,0.354-1.118,1.883-0.06,3.185c1.058,1.301,1.326,1.726,1.768,3.022c0,0-0.253-1.461-1.16-2.738
	c-0.908-1.279-0.64-2.262-0.211-2.555c0.432-0.293,0.801-0.104,0.854,0.15C5.273,83.251,5.261,83.709,4.616,83.677z M4.571,89.645
	c0,0-0.261-0.313-0.675-0.203c-0.414,0.108-0.793,0.598-0.515,1.295c0.275,0.697,0.994,1.015,1.821,0.638
	c0.828-0.379,1.067-1.912-0.027-3.187c-1.095-1.273-1.373-1.69-1.853-2.978c0,0,0.294,1.453,1.238,2.709
	c0.942,1.254,0.701,2.24,0.278,2.546c-0.422,0.307-0.796,0.124-0.856-0.127C3.923,90.087,3.924,89.629,4.571,89.645z M5.496,88.13
	c-0.124,0.075-0.64-0.51-1.151-1.307c-0.513-0.798-0.827-1.505-0.704-1.577c0.124-0.074,0.64,0.51,1.152,1.309
	C5.306,87.352,5.62,88.059,5.496,88.13z M8.464,13.078c0.239,0.954,0.78,2.022,1.291,2.01c0.513-0.014,0.462-0.892,0.462-0.892
	s-0.057-0.228,0.031-0.243c0.089-0.015,0.124,0.08,0.124,0.08c0.303,0.323,0.529,1.737-0.505,1.591
	C8.833,15.481,8.464,13.078,8.464,13.078z M9.445,15.679c0,0,1.021,0.051,1.133,0.935C10.578,16.614,9.639,16.574,9.445,15.679z
	 M8.292,12.138c-0.08,2.322,1.085,3.855,1.085,3.855s0.695,1.002,0.375,1.936c-0.32,0.933-1.12,1.314-1.751,1.156
	c-0.633-0.159-1.546-0.88-1.237-2.12c0,0,0.189-0.876,1.243-1.072c0,0,0.18-0.017,0.169,0.066c-0.01,0.082-0.167,0.151-0.298,0.208
	s-0.792,0.362-0.833,0.971C7,17.748,7.47,18.103,7.723,18.179c0.252,0.077,0.877,0.145,1.151-0.503
	c0.274-0.649,0.035-1.26-0.062-1.513c-0.098-0.253-0.768-2.154-0.575-4.042c0.023-0.222,0.061-0.431,0.105-0.634l0.023-0.003
	C8.328,11.693,8.299,11.909,8.292,12.138z M10.333,11.179c0.955,0.239,2.022,0.78,2.01,1.291c-0.014,0.513-0.891,0.462-0.891,0.462
	s-0.228-0.057-0.243,0.031c-0.015,0.089,0.08,0.124,0.08,0.124c0.323,0.303,1.736,0.529,1.592-0.505
	C12.737,11.547,10.333,11.179,10.333,11.179z M12.935,12.16c0,0,0.051,1.022,0.935,1.133C13.87,13.293,13.83,12.354,12.935,12.16z
	 M9.394,11.006c2.323-0.08,3.855,1.086,3.855,1.086s1.002,0.695,1.936,0.375c0.934-0.32,1.314-1.12,1.156-1.752
	c-0.159-0.633-0.88-1.545-2.121-1.237c0,0-0.875,0.19-1.071,1.244c0,0-0.017,0.18,0.066,0.169c0.082-0.01,0.15-0.167,0.207-0.298
	c0.058-0.131,0.363-0.792,0.972-0.834c0.61-0.042,0.965,0.427,1.041,0.68s0.145,0.877-0.503,1.151
	c-0.649,0.274-1.26,0.035-1.514-0.061c-0.252-0.098-2.153-0.768-4.042-0.575c-0.222,0.022-0.431,0.061-0.634,0.105L8.74,11.081
	C8.949,11.043,9.165,11.015,9.394,11.006z M12.707,21.488c0.766,3.064,2.504,6.494,4.145,6.455c1.646-0.045,1.484-2.863,1.484-2.863
	s-0.185-0.73,0.101-0.78c0.287-0.047,0.398,0.257,0.398,0.257c0.974,1.037,1.698,5.577-1.624,5.11
	C13.889,29.204,12.707,21.488,12.707,21.488z M15.858,29.838c0,0,3.28,0.165,3.637,3.004C19.495,32.843,16.479,32.713,15.858,29.838
	z M12.151,18.469c-0.256,7.458,3.487,12.381,3.487,12.381s2.232,3.219,1.203,6.219c-1.027,2.997-3.596,4.221-5.626,3.711
	c-2.034-0.51-4.963-2.826-3.973-6.809c0,0,0.607-2.813,3.993-3.442c0,0,0.577-0.054,0.543,0.211
	c-0.034,0.264-0.538,0.484-0.959,0.667c-0.419,0.184-2.543,1.163-2.676,3.119c-0.139,1.959,1.371,3.098,2.181,3.344
	c0.812,0.245,2.817,0.465,3.697-1.616c0.88-2.085,0.114-4.047-0.197-4.861c-0.313-0.813-2.465-6.916-1.847-12.981
	c0.073-0.712,0.195-1.382,0.337-2.035l0.074-0.009C12.269,17.041,12.177,17.733,12.151,18.469z M18.711,15.391
	c3.065,0.766,6.495,2.504,6.456,4.145c-0.045,1.646-2.862,1.484-2.862,1.484s-0.73-0.185-0.78,0.099
	c-0.047,0.287,0.257,0.399,0.257,0.399c1.037,0.974,5.575,1.697,5.11-1.624C26.428,16.572,18.711,15.391,18.711,15.391z
	 M27.063,18.54c0,0,0.163,3.282,3.003,3.639C30.065,22.179,29.937,19.163,27.063,18.54z M15.694,14.834
	c7.458-0.257,12.381,3.488,12.381,3.488s3.219,2.23,6.218,1.203c2.998-1.027,4.22-3.596,3.712-5.627
	c-0.51-2.033-2.826-4.962-6.811-3.973c0,0-2.812,0.609-3.441,3.993c0,0-0.054,0.578,0.211,0.544
	c0.264-0.033,0.484-0.537,0.667-0.958c0.185-0.42,1.164-2.543,3.12-2.678c1.959-0.137,3.099,1.373,3.344,2.183
	c0.244,0.812,0.465,2.817-1.616,3.698c-2.085,0.879-4.047,0.112-4.862-0.198c-0.812-0.313-6.915-2.465-12.979-1.847
	c-0.713,0.072-1.382,0.195-2.036,0.336l-0.008,0.074C14.264,14.953,14.957,14.861,15.694,14.834z M86.854,21.488
	c-0.766,3.064-2.504,6.494-4.145,6.455c-1.646-0.045-1.484-2.863-1.484-2.863s0.186-0.73-0.101-0.78
	c-0.287-0.047-0.397,0.257-0.397,0.257c-0.975,1.037-1.697,5.577,1.623,5.11C85.672,29.204,86.854,21.488,86.854,21.488z
	 M83.702,29.838c0,0-3.279,0.165-3.638,3.004C80.064,32.843,83.082,32.713,83.702,29.838z M87.409,18.469
	c0.256,7.458-3.486,12.381-3.486,12.381s-2.231,3.219-1.202,6.219c1.026,2.997,3.594,4.221,5.625,3.711
	c2.033-0.51,4.963-2.826,3.973-6.809c0,0-0.607-2.813-3.992-3.442c0,0-0.576-0.054-0.543,0.211c0.033,0.264,0.537,0.484,0.958,0.667
	c0.42,0.184,2.543,1.163,2.677,3.119c0.139,1.959-1.371,3.098-2.182,3.344c-0.813,0.245-2.816,0.465-3.697-1.616
	c-0.88-2.085-0.113-4.047,0.197-4.861c0.313-0.813,2.466-6.916,1.848-12.981c-0.074-0.712-0.195-1.382-0.337-2.035l-0.075-0.009
	C87.292,17.041,87.383,17.733,87.409,18.469z M80.85,15.391c-3.064,0.766-6.494,2.504-6.455,4.145
	c0.045,1.646,2.862,1.484,2.862,1.484s0.729-0.185,0.779,0.099c0.048,0.287-0.257,0.399-0.257,0.399
	c-1.036,0.974-5.575,1.697-5.11-1.624C73.133,16.572,80.85,15.391,80.85,15.391z M72.498,18.54c0,0-0.163,3.282-3.003,3.639
	C69.495,22.179,69.624,19.163,72.498,18.54z M83.866,14.834c-7.457-0.257-12.38,3.488-12.38,3.488s-3.219,2.23-6.219,1.203
	c-2.998-1.027-4.221-3.596-3.711-5.627c0.51-2.033,2.825-4.962,6.81-3.973c0,0,2.813,0.609,3.44,3.993c0,0,0.055,0.578-0.211,0.544
	c-0.264-0.033-0.484-0.537-0.666-0.958c-0.186-0.42-1.164-2.543-3.119-2.678c-1.961-0.137-3.1,1.373-3.345,2.183
	c-0.243,0.812-0.465,2.817,1.616,3.698c2.085,0.879,4.047,0.112,4.861-0.198c0.813-0.313,6.916-2.465,12.979-1.847
	c0.713,0.072,1.384,0.195,2.037,0.336l0.008,0.074C85.297,14.953,84.604,14.861,83.866,14.834z M86.854,78.016
	c-0.766-3.064-2.504-6.494-4.145-6.455c-1.646,0.045-1.484,2.861-1.484,2.861s0.186,0.73-0.101,0.78
	c-0.287,0.048-0.397-0.257-0.397-0.257c-0.975-1.036-1.697-5.576,1.623-5.11C85.672,70.299,86.854,78.016,86.854,78.016z
	 M83.702,69.664c0,0-3.279-0.164-3.638-3.004C80.064,66.66,83.082,66.79,83.702,69.664z M87.409,81.033
	c0.256-7.458-3.486-12.381-3.486-12.381s-2.231-3.219-1.202-6.219c1.026-2.996,3.594-4.221,5.625-3.711
	c2.033,0.51,4.963,2.825,3.973,6.809c0,0-0.607,2.813-3.992,3.443c0,0-0.576,0.053-0.543-0.213c0.033-0.264,0.537-0.484,0.958-0.667
	c0.42-0.184,2.543-1.163,2.677-3.118c0.139-1.959-1.371-3.099-2.182-3.345c-0.813-0.245-2.816-0.465-3.697,1.616
	c-0.88,2.086-0.113,4.048,0.197,4.859c0.313,0.813,2.466,6.916,1.848,12.981c-0.074,0.712-0.195,1.382-0.337,2.035l-0.075,0.009
	C87.292,82.463,87.383,81.77,87.409,81.033z M80.85,84.111c-3.064-0.766-6.494-2.504-6.455-4.145
	c0.045-1.646,2.862-1.484,2.862-1.484s0.729,0.186,0.779-0.1c0.048-0.287-0.257-0.398-0.257-0.398
	c-1.036-0.974-5.575-1.697-5.11,1.623C73.133,82.932,80.85,84.111,80.85,84.111z M72.498,80.963c0,0-0.163-3.281-3.003-3.639
	C69.495,77.324,69.624,80.341,72.498,80.963z M83.866,84.669c-7.457,0.256-12.38-3.487-12.38-3.487s-3.219-2.231-6.219-1.203
	c-2.998,1.026-4.221,3.596-3.711,5.627c0.51,2.033,2.825,4.963,6.81,3.974c0,0,2.813-0.609,3.44-3.993c0,0,0.055-0.578-0.211-0.544
	c-0.264,0.033-0.484,0.537-0.666,0.958c-0.186,0.42-1.164,2.544-3.119,2.678c-1.961,0.137-3.1-1.371-3.345-2.183
	c-0.243-0.812-0.465-2.815,1.616-3.697c2.085-0.88,4.047-0.112,4.861,0.197c0.813,0.313,6.916,2.466,12.979,1.847
	c0.713-0.072,1.384-0.195,2.037-0.337l0.008-0.073C85.297,84.55,84.604,84.643,83.866,84.669z M12.707,78.016
	c0.766-3.064,2.504-6.494,4.145-6.455c1.646,0.045,1.484,2.861,1.484,2.861s-0.185,0.73,0.101,0.78
	c0.287,0.048,0.398-0.257,0.398-0.257c0.974-1.036,1.698-5.576-1.624-5.11C13.889,70.299,12.707,78.016,12.707,78.016z
	 M15.858,69.664c0,0,3.28-0.164,3.637-3.004C19.495,66.66,16.479,66.79,15.858,69.664z M12.151,81.033
	c-0.256-7.458,3.487-12.381,3.487-12.381s2.232-3.219,1.203-6.219c-1.027-2.996-3.596-4.221-5.626-3.711
	c-2.034,0.51-4.963,2.825-3.973,6.809c0,0,0.607,2.813,3.993,3.443c0,0,0.577,0.053,0.543-0.213
	c-0.034-0.264-0.538-0.484-0.959-0.667c-0.419-0.184-2.543-1.163-2.676-3.118c-0.139-1.959,1.371-3.099,2.181-3.345
	c0.812-0.245,2.817-0.465,3.697,1.616c0.88,2.086,0.114,4.048-0.197,4.859c-0.313,0.813-2.465,6.916-1.847,12.981
	c0.073,0.712,0.195,1.382,0.337,2.035l0.074,0.009C12.269,82.463,12.177,81.77,12.151,81.033z M18.711,84.111
	c3.065-0.766,6.495-2.504,6.456-4.145c-0.045-1.646-2.862-1.484-2.862-1.484s-0.73,0.186-0.78-0.1
	c-0.047-0.287,0.257-0.398,0.257-0.398c1.037-0.974,5.575-1.697,5.11,1.623C26.428,82.932,18.711,84.111,18.711,84.111z
	 M27.063,80.963c0,0,0.163-3.281,3.003-3.639C30.065,77.324,29.937,80.341,27.063,80.963z M15.694,84.669
	c7.458,0.256,12.381-3.487,12.381-3.487s3.219-2.231,6.218-1.203c2.998,1.026,4.22,3.596,3.712,5.627
	c-0.51,2.033-2.826,4.963-6.811,3.974c0,0-2.812-0.609-3.441-3.993c0,0-0.054-0.578,0.211-0.544
	c0.264,0.033,0.484,0.537,0.667,0.958c0.185,0.42,1.164,2.544,3.12,2.678c1.959,0.137,3.099-1.371,3.344-2.183
	c0.244-0.812,0.465-2.815-1.616-3.697c-2.085-0.88-4.047-0.112-4.862,0.197c-0.812,0.313-6.915,2.466-12.979,1.847
	c-0.713-0.072-1.382-0.195-2.036-0.337l-0.008-0.073C14.264,84.55,14.957,84.643,15.694,84.669z M91.814,13.078
	c-0.238,0.954-0.78,2.022-1.291,2.01c-0.514-0.014-0.463-0.892-0.463-0.892s0.058-0.228-0.031-0.243
	c-0.09-0.015-0.123,0.08-0.123,0.08c-0.305,0.323-0.528,1.737,0.505,1.591C91.445,15.481,91.814,13.078,91.814,13.078z
	 M90.833,15.679c0,0-1.021,0.051-1.133,0.935C89.7,16.614,90.641,16.574,90.833,15.679z M91.986,12.138
	c0.08,2.322-1.086,3.855-1.086,3.855s-0.694,1.002-0.375,1.936c0.32,0.933,1.121,1.314,1.752,1.156
	c0.635-0.159,1.547-0.88,1.238-2.12c0,0-0.189-0.876-1.244-1.072c0,0-0.18-0.017-0.17,0.066c0.012,0.082,0.168,0.151,0.299,0.208
	c0.132,0.057,0.793,0.362,0.834,0.971c0.043,0.61-0.428,0.965-0.68,1.041c-0.252,0.077-0.877,0.145-1.15-0.503
	c-0.273-0.649-0.035-1.26,0.062-1.513c0.099-0.253,0.769-2.154,0.575-4.042c-0.023-0.222-0.061-0.431-0.105-0.634l-0.021-0.003
	C91.951,11.693,91.979,11.909,91.986,12.138z M89.943,11.179c-0.953,0.239-2.021,0.78-2.01,1.291
	c0.015,0.513,0.892,0.462,0.892,0.462s0.228-0.057,0.243,0.031c0.015,0.089-0.08,0.124-0.08,0.124
	c-0.322,0.303-1.735,0.529-1.592-0.505C87.541,11.547,89.943,11.179,89.943,11.179z M87.344,12.16c0,0-0.051,1.022-0.935,1.133
	C86.409,13.293,86.448,12.354,87.344,12.16z M90.884,11.006c-2.321-0.08-3.854,1.086-3.854,1.086s-1.002,0.695-1.937,0.375
	c-0.934-0.32-1.313-1.12-1.155-1.752c0.158-0.633,0.881-1.545,2.121-1.237c0,0,0.875,0.19,1.07,1.244c0,0,0.018,0.18-0.064,0.169
	c-0.082-0.01-0.15-0.167-0.209-0.298c-0.057-0.131-0.361-0.792-0.971-0.834s-0.966,0.427-1.042,0.68
	c-0.075,0.252-0.145,0.877,0.503,1.151c0.65,0.274,1.262,0.035,1.516-0.061c0.252-0.098,2.152-0.768,4.041-0.575
	c0.223,0.022,0.431,0.061,0.635,0.105l0.003,0.023C91.329,11.043,91.113,11.015,90.884,11.006z M91.814,86.886
	c-0.238-0.954-0.78-2.021-1.291-2.011c-0.514,0.014-0.463,0.893-0.463,0.893s0.058,0.228-0.031,0.242
	c-0.09,0.016-0.123-0.08-0.123-0.08c-0.305-0.322-0.528-1.736,0.505-1.592C91.445,84.482,91.814,86.886,91.814,86.886z
	 M90.833,84.285c0,0-1.021-0.053-1.133-0.936C89.7,83.35,90.641,83.391,90.833,84.285z M91.986,87.825
	c0.08-2.322-1.086-3.855-1.086-3.855s-0.694-1.002-0.375-1.936c0.32-0.935,1.121-1.314,1.752-1.156
	c0.635,0.159,1.547,0.88,1.238,2.12c0,0-0.189,0.876-1.244,1.072c0,0-0.18,0.017-0.17-0.066c0.012-0.082,0.168-0.15,0.299-0.207
	c0.132-0.058,0.793-0.361,0.834-0.972c0.043-0.61-0.428-0.966-0.68-1.041c-0.252-0.076-0.877-0.146-1.15,0.503
	s-0.035,1.261,0.062,1.514c0.099,0.254,0.769,2.153,0.575,4.042c-0.023,0.222-0.061,0.431-0.105,0.634l-0.021,0.004
	C91.951,88.271,91.979,88.055,91.986,87.825z M89.943,88.784c-0.953-0.239-2.021-0.78-2.01-1.291
	c0.015-0.513,0.892-0.462,0.892-0.462s0.228,0.058,0.243-0.031c0.015-0.089-0.08-0.124-0.08-0.124
	c-0.322-0.304-1.735-0.528-1.592,0.506C87.541,88.416,89.943,88.784,89.943,88.784z M87.344,87.803c0,0-0.051-1.021-0.935-1.133
	C86.409,86.67,86.448,87.609,87.344,87.803z M90.884,88.957c-2.321,0.08-3.854-1.086-3.854-1.086s-1.002-0.695-1.937-0.375
	c-0.934,0.32-1.313,1.12-1.155,1.753s0.881,1.545,2.121,1.235c0,0,0.875-0.188,1.07-1.242c0,0,0.018-0.18-0.064-0.169
	c-0.082,0.01-0.15,0.167-0.209,0.298c-0.057,0.131-0.361,0.792-0.971,0.834c-0.609,0.043-0.966-0.428-1.042-0.68
	c-0.075-0.254-0.145-0.877,0.503-1.151c0.65-0.272,1.262-0.035,1.516,0.062c0.252,0.099,2.152,0.769,4.041,0.575
	c0.223-0.021,0.431-0.061,0.635-0.104l0.003-0.023C91.329,88.92,91.113,88.948,90.884,88.957z M8.105,86.886
	c0.238-0.954,0.779-2.021,1.291-2.011c0.513,0.014,0.462,0.893,0.462,0.893S9.8,85.995,9.889,86.01
	c0.089,0.016,0.125-0.08,0.125-0.08c0.303-0.322,0.528-1.736-0.506-1.592C8.474,84.482,8.105,86.886,8.105,86.886z M9.086,84.285
	c0,0,1.021-0.053,1.133-0.936C10.219,83.35,9.28,83.391,9.086,84.285z M7.933,87.825c-0.08-2.322,1.085-3.855,1.085-3.855
	s0.695-1.002,0.375-1.936c-0.32-0.935-1.12-1.314-1.751-1.156c-0.633,0.159-1.546,0.88-1.237,2.12c0,0,0.189,0.876,1.244,1.072
	c0,0,0.179,0.017,0.169-0.066c-0.01-0.082-0.167-0.15-0.298-0.207c-0.131-0.058-0.792-0.361-0.833-0.972
	c-0.043-0.61,0.427-0.966,0.679-1.041c0.252-0.076,0.877-0.146,1.151,0.503s0.035,1.261-0.062,1.514
	c-0.098,0.254-0.768,2.153-0.575,4.042c0.023,0.222,0.061,0.431,0.105,0.634l0.023,0.004C7.969,88.271,7.94,88.055,7.933,87.825z
	 M9.975,88.784c0.955-0.239,2.022-0.78,2.01-1.291c-0.014-0.513-0.891-0.462-0.891-0.462S10.866,87.089,10.851,87
	s0.08-0.124,0.08-0.124c0.323-0.304,1.736-0.528,1.592,0.506S9.975,88.784,9.975,88.784z M12.576,87.803
	c0,0,0.051-1.021,0.935-1.133C13.511,86.67,13.471,87.609,12.576,87.803z M9.035,88.957c2.323,0.08,3.855-1.086,3.855-1.086
	s1.002-0.695,1.936-0.375c0.934,0.32,1.314,1.12,1.156,1.753c-0.158,0.633-0.88,1.545-2.121,1.235c0,0-0.875-0.188-1.071-1.242
	c0,0-0.017-0.18,0.066-0.169c0.082,0.01,0.15,0.167,0.207,0.298c0.058,0.131,0.363,0.792,0.972,0.834
	c0.61,0.043,0.965-0.428,1.041-0.68c0.076-0.254,0.145-0.877-0.503-1.151c-0.649-0.272-1.26-0.035-1.514,0.062
	c-0.252,0.099-2.153,0.769-4.042,0.575c-0.222-0.021-0.431-0.061-0.634-0.104l-0.002-0.023C8.59,88.92,8.806,88.948,9.035,88.957z"
	/>
</svg>
