<?xml version="1.0" encoding="utf-8"?>
<!-- Generator: Adobe Illustrator 16.0.0, SVG Export Plug-In . SVG Version: 6.00 Build 0)  -->
<!DOCTYPE svg PUBLIC "-//W3C//DTD SVG 1.1//EN" "http://www.w3.org/Graphics/SVG/1.1/DTD/svg11.dtd">
<svg version="1.1" id="Layer_1" xmlns="http://www.w3.org/2000/svg" xmlns:xlink="http://www.w3.org/1999/xlink" x="0px" y="0px"
	 width="32.195px" height="97.873px" viewBox="0 0 32.195 97.873" enable-background="new 0 0 32.195 97.873" xml:space="preserve">
<path d="M30.896,13.228c-0.077,0.002-0.579-0.224-0.586-0.258c-0.02,0.219,0.151,0.358,0.045,0.578
	c-0.067,0.013,0.045-0.063,0.011-0.111c-0.108,0.17-0.357-0.088-0.221,0.335c-0.165-0.221-0.375-0.395-0.462-0.611l-0.183,0.034
	c-0.018,0.146,0.047,0.207,0.191,0.185c-0.186,0.033-0.313-0.068-0.428,0.079c0.081,0.382,0.839,0.485,0.649,0.612
	c0.171,0.094,0.628,0.059,0.515,0.382c-0.117-0.102-0.212,0.1-0.35-0.01c-0.018,0.108,0.011,0.201,0.082,0.28
	c-0.354-0.165-1.402-1.109-1.793-0.988c-0.229,0.706,0.884,0.969,0.862,1.243c-0.016,0.168-0.239-0.175-0.254-0.182
	c-0.117,0.169,0.088,0.306,0.146,0.449c0.091,0.029,0.147-0.006,0.17-0.106c0.171,0.141,0.317,0.342,0.293,0.387
	c-0.133,0.44,0.271,0.31-0.166,0.684c-0.354,0.298,0.22,0.729,0.401,0.925c0.348-0.835,0.915,1.298,0.176,1.287
	c-0.039,0,0.02-0.262-0.021-0.288c-0.137,0.029-0.234,0.9-0.22,1.055c0.034,0.336,0.271-0.036,0.052,0.446
	c-0.202,0.444,0.162,0.32,0.393,0.553c0.521,0.524,2.637,1.34,1.8,2.56c-0.046-0.391-0.154-1.111-0.508-1.374
	c-0.477,0.045,0.412,1.687,0.412,1.869c-0.068-0.024-0.137-0.049-0.204-0.073c0.003,0.18,0.003,0.188,0.006,0.366
	c0.003-0.037-0.025-0.051-0.044-0.065c-0.288,0.335,0.062,1.247,0.027,1.563c-0.057,0.519-0.022,0.811-0.044,1.23
	c-0.068-0.066-0.367-0.315-0.387-0.369c-0.059,0.148-0.053,0.294,0.021,0.437l0.029-0.006c-0.226,0.076,0.032,0.505-0.116,0.39
	c-0.064,0.073,0.101,0.457,0.188,0.515c-0.134-0.261-0.24,0.295-0.356,0.253c0.065-0.006-0.045,1.028-0.064,1.142
	c-0.071,0.403,0.616,0.69,0.484-0.048c0.684,0.552-0.178,0.623-0.375,0.876c-0.242,0.347-0.301,0.182-0.279,0.688
	c0.006,0.153,0.142,0.457-0.132,0.488c0.021-0.059,0.001-0.104-0.056-0.135c-0.103-0.037,0.101,0.309,0.126,0.344
	c-0.356-0.695-0.724,0.915-0.716,0.903c-0.014,0.053-0.185-0.463-0.157-0.338c-0.277-0.304-0.645-0.075-1.067,0.199
	c0.13-0.031,0.157,0.117,0.276,0.131l-0.062,0.011l0.131,0.196c-0.069-0.004-0.135,0.013-0.146,0.064
	c-0.166,0.119-0.119-0.229-0.206-0.255c-0.077,0.219-0.321,0.257-0.455,0.268l-0.075-0.061c-0.054,0.317,0.229,0.269,0.04,0.554
	c-0.19,0.289-0.592,0.337-0.763,0.646c0.004-0.091,0.019-0.179,0.045-0.265c-0.119,0.075-0.361,0.025-0.375-0.15
	c-0.01,0.063-0.019,0.126-0.028,0.188c-0.009-0.021-0.018-0.039-0.025-0.059c-0.201,0.101-0.42-0.786-0.75-0.384
	c-0.066-0.149,0.165-0.15,0.158-0.346c-0.063-0.165-1.038,0.279-1.182,0.278c0.226-0.105,0.439-0.367,0.557-0.58
	c-0.098-0.112-0.217-0.188-0.358-0.227c0.254-0.235,0.553,0.39,0.855,0.025c-0.049-0.16-0.157-0.237-0.326-0.233
	c0.02-0.064,0.039-0.13,0.059-0.195l0.07,0.208c0.152-0.039-0.228-0.554-0.169-0.724c0.183-0.524,0.795-0.474,1.052-0.719
	c0.16-0.157,0.459-0.379,0.596-0.448c0.151-0.227-0.243-0.377-0.432-0.286c-0.013-0.075,0.006-0.14,0.058-0.194l0.112,0.089
	c-0.03-0.146,0.096-0.394,0.071-0.636c-0.019-0.06-0.019-0.317-0.177-0.262c-0.318,0.343-0.563,0.011-0.581,0.438
	c-0.087-0.009-0.16-0.068-0.258-0.025c0.079-0.262,0.189-1.194-0.422-0.647c-0.33,0.296-0.51,0.465-0.981,0.495
	c-0.294,0.02-0.777,0.324-1.034,0.276c0.078-0.233,0.652-0.563,0.789-0.507c0.33,0.139,0.975-0.368,0.544-0.475
	c-0.309-0.061-0.408-0.38-0.602-0.513c0.067-0.069,0.139-0.073,0.212-0.009c0.033,0.004-0.152-0.518-0.421-0.43l-0.147-0.118
	c0.537,0.21,0.272-0.452,0.602-0.486c0.576-0.061,0.504-0.308,0.844-0.737c0.027,0.095-0.15,0.315,0.061,0.319l-0.002-0.184
	l0.074,0.061c0.175-0.353,0.133-0.346-0.009-0.55c-0.036,0.073-0.054,0.149-0.052,0.23c-0.193-0.089-0.1-0.533-0.24-0.7
	c-0.203-0.244-0.402-0.172-0.521-0.333l-0.146,0.064c-0.021-0.388-0.059-0.102-0.242-0.285c0.083-0.052,0.049-0.073,0.043-0.118
	c-0.003-0.063,0.209,0.107,0.139-0.1c-0.173,0.068-0.854-0.321-1.249-0.187c-0.247,0.084-1.244,0.673-1.141,0.741
	c0.017,0.089-0.104,0.129-0.053,0.229c0.289,0.134,0.186-0.249,0.282-0.346c0.002,0.837,1.114,0.197,1.359,0.518
	c-0.24,0.154-0.772,0.506-0.984,0.545c-0.259,0.047-0.934,0.222-1.146,0.334c-0.441,0.232-0.354,0.253-0.218,0.586
	c0.081-0.077,0.283,0.234,0.294,0.296c0.112,0.617-0.312,0.335-0.39,0.713c-0.15-0.177,0.187-0.298,0.286-0.494
	c-0.232,0.043-0.553-0.688-0.864-0.678c-0.33,0.012-0.939,0.406-1.363,0.578c0.216,0.155,0.374,0.113,0.481-0.126
	c0.096,0.134,0.34,0.75,0.487,0.754c-0.02,0.047-0.24,0.22-0.289,0.31c-0.029-0.069-0.004-0.46-0.194-0.366
	c-0.152,0.17-0.105,0.507-0.089,0.712c-0.001-0.081-0.04-0.122-0.118-0.124c-0.087,0.285-0.08,0.363,0.021,0.621
	c0.07-0.049,0.091-0.114,0.059-0.195c0.076,0.182,0.162,0.36,0.229,0.545c0.005-0.001,0.5-0.338,0.454-0.269
	c0.06,0.245-0.279,0.406,0.002,0.513l-0.078,0.089c0.248,0.289,0.622,0.648,0.913,1.005c-0.147-0.052-0.298-0.061-0.448-0.027
	c0.055,0.052,0.065,0.111,0.033,0.178c-0.132-0.359-0.505-0.394-0.784-0.39c-0.271,0.003-0.043-0.705-0.13-0.834
	c-0.105-0.155-0.126,0.079-0.146,0.1l0.098,0.019c-0.04,0.259-0.399,0.123-0.505,0.167c-0.008,0.076,0.288,0.429,0.3,0.422
	c-0.171,0.489-0.692-0.054-0.721-0.306l0.104,0.053c0.013-0.117-0.308-0.468-0.268-0.244c-0.265-0.212-0.526,0.044-0.388,0.242
	c0.014,0.143-0.021,0.08-0.098,0.031c-0.011,0.091,0.816,1.204,0.274,1.308c0.135,0.195,0.279-0.194,0.338,0.121l0.08-0.419
	c0.115,0.304-0.249,0.709,0.142,0.929c-0.632,0.177,0.691,1.248,0.613,1.095l-0.098-0.018c0.038-0.015,0.106,0.009,0.114-0.059
	c-0.063,0.275,0.137,0.543,0.039,0.545c0.051,0.136-0.145,0.33,0.049,0.431l-0.026-0.143c0.047,0.028,0.096,0.056,0.143,0.084
	c0.014-0.156,0.098-0.221,0.249-0.193c-0.341,0.532-0.158,2.126,0.103,2.586c-0.034,0.025-0.019,0.078-0.012,0.112
	c-0.043-0.027-0.085-0.083-0.135-0.049c0.081,0.052-0.078,0.376,0.105,0.238l-0.019-0.106c0.18,0.053-0.21,0.508,0.111,0.273
	c0.298,0.117-0.098,0.164-0.063,0.158c-0.086,0.197,0.142,0.838,0.165,0.886c0.308,0.356-0.249,1.165,0.09,1.672
	c0.044-0.056,0.086-0.112,0.126-0.17l0.016,0.254c-0.059,0.021-0.113,0.014-0.166-0.044c-0.03,0.124,0.101,1.43,0.214,1.429
	c0.069-0.03,0.099-0.084,0.086-0.162c0.139,0.294-0.091,1.261,0.379,1.36c-0.061,0.097,0.084,0.479,0.271,0.609
	c0.054-0.232-0.253-0.481,0.049-0.412c-0.011-0.117-0.153-0.799-0.006-0.88c0.129,0.165,0.077,0.374,0.276,0.462
	c0.009-0.063,0.019-0.125,0.027-0.188c0.066,0.096,0.145,1.583,0.138,1.589c0.095-0.007,0.182,0.013,0.265,0.061
	c0.124-0.139,0.069-0.083,0.162-0.141c0.104-0.165-0.071-0.298,0.073-0.453l0.02,0.106c0.481-0.354-0.019-1.889-0.086-2.332
	c0.386,0.327,0.378,1.692,0.464,2.151c0.196,0.003-0.049-0.135,0.06-0.192c0.09,0.268,0.072,0.767,0.16,1.032l-0.073-0.059
	c-0.041,0.307,0.545,0.555,0.519,0.416c0.072,0.394,0.446,0.574,0.666,0.868l0.023-0.042c0.27,0.203,0.909,1.034,1.057,0.757
	c0.071,0.042,0.033,0.179,0.131,0.196l0.104-0.129c0.729,0.758,1.014,2.43,1.546,3.052c0.166,0.072,0.195,0.195,0.317,0.344
	c-0.077,0.054,0.105-0.639,0.06-0.523c-0.061,0.189,0.746,0.979,0.718,0.969l0.111,0.088l0.022-0.042
	c0.074,0.365,0.32,2.731,0.722,2.69c0.05-0.064,0.441,2.263,0.471,2.681c0.094,1.377-0.062,2.512-0.271,3.851
	c-0.063,0.397,0.052,0.812,0.192,1.178c0.136,0.354-0.02,0.57,0.046,0.916c0.058,0.309,0.429,1.252,0.281,1.518
	c-0.028-0.113-0.103-0.173-0.223-0.178c0.067-0.059-0.278-0.992-0.326-1.078c-0.001-0.313-0.182-0.619-0.432-0.799
	c0.219-0.161-0.04-0.566-0.188-0.663c-0.022,0.062-0.021,0.123,0.004,0.184c-0.096-0.209-0.558,0.065-0.381-0.003
	c-0.148-0.143-1.299,0.021-1.446,0.196c-0.097-0.019,0.102-0.188-0.07-0.208c-0.018,0.076-0.033,0.154-0.052,0.229l0.004-0.146
	c-0.039,0.007-0.738,0.139-0.411,0.332c0.045-0.044,0.09-0.089,0.134-0.134c0.196,0.133-0.588,0.623-0.658,0.709
	c0.032-0.073,0.021-0.713-0.146-0.45c0.31,0.419-0.396,0.282-0.351,0.653c0.042,0.011,0.305,0.084,0.206-0.076
	c0.22-0.016,0.093,0.494,0.094,0.584c0.008,0.529,0.361,0.339,0.433,0.714c0.012-0.066-0.646,0.68-0.643,0.676
	c-0.272,0.326-0.609,0.589-0.923,0.876c-0.648,0.598-0.046,0.139-0.104,0.667c-0.09-0.106-0.19-0.196-0.306-0.274
	c-0.031,0.326,0.366,0.412,0.444,0.688c-0.067-0.022-0.136-0.048-0.203-0.071c-0.004,0.066-0.021,0.096,0.003,0.184
	c-0.106-0.125-0.185-0.266-0.238-0.422c-0.263-0.315-0.142,0.074-0.387-0.049c0.066,0.236,0.218,0.475,0.391,0.66
	c0.02,0.021,0.271,0.229,0.272,0.23c0.359,0.097,0.173,0.372,0.313,0.613c-0.139-0.056-0.25-0.145-0.335-0.27
	c0.013,0.061,0.021,0.119,0.033,0.18c-0.08-0.045-0.163-0.164-0.253-0.175c-0.139,0.021,0.056,0.13-0.034,0.153l-0.073-0.061
	L24.28,65.39l-0.08-0.095c-0.308,0.313,0.563,0.497,0.55,0.743c0.517,0.115,0.424,0.461,0.329,0.929
	c-0.005-0.104-0.06-0.166-0.161-0.188l-0.166,0.287c-0.125-0.16-0.314-0.299-0.234-0.582c-0.378,0.033-0.181,0.403-0.108,0.608
	c0.057-0.036,0.113-0.069,0.171-0.106c-0.032,0.257,0.104,0.349,0.104,0.567l-0.452-0.392l-0.023,0.041
	c-0.041-0.309-0.42-0.46-0.438-0.836c0.055-0.025,0.106-0.022,0.159,0.008c0.288-0.371-0.274-0.436-0.296-0.568
	c0.088-0.039,0.18-0.057,0.274-0.053c-0.008-0.264-0.269-0.177-0.438-0.32c-0.458-0.268-0.646-0.02-0.482,0.457
	c-0.149-0.152-0.3-0.162-0.448-0.027c0.049,0.268,0.055,1.191,0.275,1.308c-0.06-0.026-0.115-0.052-0.173-0.078
	c-0.143,0.291,0.218,0.289,0.341,0.302c-0.146-0.213-0.092-0.404-0.118-0.637c0.104-0.039,0.353,0.075,0.436,0.139
	c-0.552,0.18-0.081,0.193-0.186,0.364c0.246,0.106,0.293,0.276,0.172,0.409c-0.119,0.68,0.86,1.803,0.618,2.307
	c-0.475-0.168-0.106-0.832-0.485-1.084c-0.043,0.08-1.394-0.33-1.497-0.418c-0.006,0.086-0.012,0.172-0.017,0.258
	c-0.185-0.058,0.033-0.244-0.15-0.301c-0.046,0.098-0.049,0.195-0.009,0.295c0.054,0.102-0.834-0.063-0.862-0.06
	c-0.023,0.096,0.204,0.162,0.054,0.283l-0.167-0.042c0.006,0.275,0.407,0.404,0.321,0.71c0.057-0.065,0.028-0.036,0.03-0.007
	l0.058,0.139c-0.536-0.085-0.668-0.758-1-1.137c-0.288,0.064-0.104,0.396-0.14,0.611c-0.223-0.254-0.52-1.431-0.932-1.399
	c-0.917,0.063-0.261,0.362-0.23,0.92c-0.127-0.095-0.563-0.484-0.737-0.238c-0.088,0.123,0.189,0.236,0.188,0.341
	c-0.085,0.354-0.102-0.031-0.268,0.088c0.097,0.135-0.081,0.314-0.216,0.369c0.185,0.196,0.038,0.09,0.01,0.219
	c-0.021,0.134,0.106,0.273,0.142,0.414c-0.4-0.064-0.317-0.098-0.609,0.182c-0.202,0.191-0.423,1.183,0.071,0.836
	c-0.622,0.343,0.956,0.484,0.225,0.693c-0.189,0.474,0.645,0.895,0.795,0.433c0.206-0.629-0.087-0.851,0.774-0.981
	c-0.045-0.076-0.093-0.154-0.138-0.231c0.144-0.15,0.933-0.226,1.045-0.156c0.021-0.014-0.053-0.283-0.053-0.284
	c-0.073-0.098-0.079,0.08-0.159-0.007c0.086-0.258,0.523,0.336,0.646-0.085c-0.014,0.073-0.02,0.146-0.016,0.223
	c0.089,0.191,1.293,0.226,1.28,0.131c0.096-0.069,0.61,0.299,0.729,0.347c0.058,0.022,1.219,0.049,0.972,0.144
	c-0.068,0.119,0.282,0.233,0.327,0.233c-0.029-0.272-0.452-0.614-0.409-0.841c0.296,0.462,0.395-0.17,0.418-0.299
	c0.402-0.037,0.188,0.002,0.424,0.067c0.188-0.231-0.098-0.423,0.298-0.319c0.265,0.067-0.226-1.539-0.455-1.707
	c-0.101,0.047,0.033,0.226-0.118,0.207c-0.103-0.261-0.62-1.529-0.463-1.64c0.282,0.343,0.377,0.787,0.566,1.181
	c0.384,0.105,0.152-0.5,0.077-0.602c0.148-0.139,0.729,1.756,0.892,1.229c0.167-0.002-0.021,0.179,0.106,0.235l0.078-0.088
	c0.104,0.054,0.052,0.222,0.176,0.263l-0.116,0.058c0.217,0.067,0.388,0.294,0.581,0.405c0.409,0.237,0.536-0.28,0.257-0.487
	c0.118,0.055,0.165,0.021,0.14-0.101c0.245,0.219,0.186,0.719,0.286,1.004c0.11,0.313,0.42,0.434,0.511,0.723
	c0.151,0.482,1.801,1.265,1.021,1.937c0.059-0.271-1.744-0.374-0.532,0.355l0.023-0.04l0.046,0.247
	c0.188,0.002,0.397-0.111,0.51-0.314c0.594,0.653-1.285,0.943-1.322,0.87c-0.104,0.012-0.167,0.071-0.187,0.182
	c-0.143,0.02,0.016-0.129-0.095-0.166c-0.037,0.138-0.667,0.422-0.817,0.432c-0.184,0.013-0.463-0.071-0.593-0.206
	c0.145,0.261-0.072,0.539,0.048,0.762c-0.151,0.12-0.292-0.099-0.309-0.126c0.018-0.168,0.13,0.014,0.17-0.104
	c-0.112-0.151-0.117-0.125-0.275-0.133l0.076-0.088l-0.142-0.082c-0.045,0.043,0,0.119,0.002,0.182
	c-0.21,0.025-0.813-0.43-0.972-0.479c0.038-0.216-0.28,0.026-0.297-0.237c-0.172,0.072,0.153,0.609,0.235,0.658
	c0.151,0.037,0.284,0.107,0.399,0.215c-0.103,0.096-0.113,0.363-0.377,0.179c-0.009,0.323-0.952-0.709-1.156-0.445
	c0.078,0.347,0.42,0.246,0.507,0.347c-0.041,0.135-0.191-0.06-0.133,0.135l0.173,0.078c-0.406-0.115-1.737-1.157-1.271-1.562
	c0.047-0.09-0.063-0.172-0.137-0.231l-0.079,0.088c-0.019-0.094-0.086-0.037-0.118-0.123c-0.046,0.035-0.002,0.104-0.003,0.146
	c-0.038-0.11-0.107-0.194-0.206-0.255c-0.146,0.227-0.115,0.094-0.264-0.061c0.098-0.113,1.148-0.223,1.288-0.203
	c0.045,0.078-0.308-0.576-0.171-0.408c0.048,0.038,0.113-0.029,0.139-0.1c0.003-0.325-0.464-0.205-0.556-0.447
	c-0.063,0.123-0.458,0.074-0.368,0.398c-0.104-0.017-0.205-0.047-0.303-0.092l0.024-0.041c-0.188-0.166-0.113,0.281-0.093,0.35
	c-0.497-0.465-1.367,0.875-0.605,0.478c0.162,0.22,0.122,0.343,0.066,0.626c-0.044,0.203-0.905,0.537-0.385,0.721
	c0.177-0.183,0.481-0.156,0.697,0.016c-0.183,0.033-0.708-0.045-0.77,0.107c0.062,0.159,0.128-0.058,0.227,0.031
	c-0.225,0.328-0.541,0.28-0.655,0.555c-0.017,0.039-0.506,0.25-0.458,0.238c-0.386-0.441-1.667-0.27-2.177-0.329
	c0.343-0.251-1.005-0.313-1.154-0.319c-0.331-0.016-1.489,0.168-1.739-0.133c0.077,0.409-0.993,0.488-0.674,0.785
	c-0.203,0.17,0.152,0.625,0.155,0.669c-0.168,0.056,0.078,0.425,0.2,0.402c-0.033,0.142-0.648,0.796-0.7,0.481
	c-0.069-0.44-0.301-0.483-0.411-0.862c-0.13,0.159,0.108,0.185,0.064,0.354c-0.053,0.085-0.177,0.063-0.25,0.011
	c-0.012-0.115,0.107,0.065,0.079-0.088c-0.055-0.043-0.153-0.145-0.196-0.035c0.016-0.125,0.387-0.342,0.109-0.455
	c-0.155-0.063-0.048,0.23-0.149,0.242c-0.126-0.088,0.058-0.342-0.171-0.41c-0.075,0.22-0.101,0.467-0.249,0.654
	c-0.212,0.268-0.286-0.133-0.395,0.127c0.243,0.273-0.009,0.797,0.093,1.01c0.044-0.075,0.166-0.021,0.249-0.193
	c0.068,0.023,0.029,0.154,0.118,0.126l0.022-0.04c0.078,0.021-0.025,0.113,0.082,0.094c0.038-0.078,0.017-0.135-0.063-0.172
	c0.128,0.198,0.437-0.002,0.488-0.091c-0.03,0.278,0.208,0.095,0.146,0.433c-0.075,0.42,0.264,0.287,0.459,0.115
	c0.148,0.046,0.013,0.285-0.008,0.295c-0.043,0.077,0.088,0.396,0.08,0.096c0.234,0.082,0.135,0.275,0.309,0.127
	c0.241,0.16-0.268,0.269-0.091,0.529c-0.289-0.109-0.098-0.447-0.251-0.503c-0.032,0.202-0.477,0.19-0.646,0.267
	c0.084,0.275,0.146,0.412,0.233,0.58l-0.05-0.101c-0.091,0.054-0.036,0.183-0.046,0.267c-0.041-0.063-0.089-0.117-0.146-0.166
	c-0.15-0.078,0.106,0.26,0.099,0.248c-0.006-0.01-0.315-0.16-0.284-0.168c-0.092,0.096,0.063,0.221-0.14,0.1
	c-0.022,0.095,0.004,0.176,0.076,0.242c-0.186,0.162,0.059,0.063-0.082,0.235c-0.264-0.321-0.169-0.217-0.386-0.039
	c-0.089-0.084-0.16-0.182-0.213-0.29c0.246,0.28,0.328-0.343,0.33-0.43c0.04,0.042,0.079,0.084,0.119,0.125
	c0.045,0.007,0.218,0.001,0.312-0.021c0,0.037,0.024,0.049,0.043,0.065c0.056-0.01,0.072-0.089,0.103-0.13
	c-0.04-0.04-0.206-0.398-0.261-0.391c-0.061,0.074-0.058,0.146,0.009,0.218c-0.261,0.243-0.358-0.291-0.299-0.421
	c0.03,0.055,0.063,0.109,0.093,0.166c0.068-0.17,0.463-0.231,0.096-0.445c-0.202-0.118-0.433,0.021-0.491,0.188
	c-0.104-0.42-0.875,0.256-0.437,0.705c0.332,0.707-1.212,3.021-0.292,3.356c0.473,1.349,1.231,0.229,0.739-0.103
	c0.146,0,0.242,0.067,0.291,0.205l-0.086,0.051c0.038,0.074,0.453,0.482,0.537,0.342c-0.139,0.095,0.074,0.249,0.035,0.359
	l0.024-0.041c0.132,0.066-0.063,0.121,0.009,0.219l0.091-0.018c-0.093,0.092,0.001,0.176,0.017,0.254
	c0.086-0.043,0.126-0.11,0.119-0.205c0.266,0.142-0.398,0.367,0.069,0.537c0.024-0.121,0.032-0.246,0.024-0.371
	c0.133,0.066,0.471,0.185,0.488-0.092c-0.093-0.052-0.029-0.379,0.006-0.478c0.014,0.12,0.835,0.84,0.894,0.897
	c0.025,0.141,0.246,0.414,0.313,0.491c0.003,0.132,0.187,1.214,0.377,1.179c0.005,0.082-0.024,0.149-0.09,0.2
	c0.167-0.015,0.552,0.324,0.604,0.364c0.198,0.146,0.448,0.449,0.681,0.51c0.056,0.016,0.858-0.025,0.512-0.219
	c0.208,0.04,0.203,0.725,0.188,0.846c0.039-0.019,0.304-0.019,0.189,0.002c-0.059,0.141,0.073,0.256,0.097,0.35
	c0.04-0.11,0.27-0.17,0.163-0.323c0.271,0.614,0.689-1.002,0.694-1.011c0.053,0.052,0.104,0.104,0.154,0.156
	c0.207-0.188,0.193-0.563,0.235-0.778c-0.027-0.115-0.131-0.44-0.277-0.458c-0.471-0.059-1-0.238-1.333-0.563
	c-0.021-0.354,0.11-0.514-0.014-0.916c0.254-0.054,0.226,0.419,0.507,0.349c0.059-0.451-0.155-0.742-0.278-1.16
	c-0.077,0.051-0.102,0.258-0.226,0.152c0.228,0.015,0.18-0.735-0.077-0.758c0.457-0.302,0.971,1.213,1.208,1.575
	c0.187-0.43-0.341-1.006-0.201-1.248c0.194,0.043,0.069,0.565,0.312,0.31l-0.088-0.131c0.075,0.053,0.111,0.021,0.108-0.095
	c-0.13,0.142-0.143-0.17-0.24-0.103c0.051-0.07,0.101-0.141,0.149-0.211c-0.001-0.018,0.25,0.461,0.271,0.498
	c0.199,0.348,0.177-0.412,0.35-0.394c0.13,0.394,0.604,0.736,0.784,1.171c0.091,0.223-0.123,0.495-0.324,0.524
	c-0.323,0.048-0.197,0.192-0.248,0.466c-0.101-0.04-0.167-0.113-0.199-0.219c-0.589-0.049,0.051,0.854,0.195,0.959
	c0.104,0.074,0.079,0.941,0.349,0.773c-0.039-0.211-0.162-0.568-0.017-0.769c0.122,0.426,0.596,0.825,0.524,1.298
	c-0.063,0.127-0.07,0.18-0.043,0.449c-0.096-0.067-0.202-0.125-0.291-0.203c-0.063,0.079-0.215,0.786-0.311,0.535
	c-0.263-0.063-0.129-0.346-0.357-0.229c-0.017-0.058-0.002-0.146-0.063-0.171c-0.073,0.061-0.038,0.221-0.1,0.313
	c0.108,0.164,0.195,0.037,0.295,0.056c-0.032,0.114-0.104-0.041-0.146,0.063c-0.079,0.119,0.226,0.457,0.335,0.531
	c0.366,0.25-0.011,0.229-0.072,0.373c0.047,0.049,0.077,0.104,0.096,0.167c-0.616-0.788-0.38,0.192-0.684,0.236
	c-0.018-0.142-0.102-0.199-0.252-0.173c0.049,0.133,0.056,0.268,0.017,0.404c0.041,0.166,0.424,0.051,0.25-0.162
	c0.073,0.246,0.86,0.271,0.861-0.051c0.001-0.326,0.549,0.227,0.641-0.19c0.12,0.026,0.606,0.385,0.558,0.116
	c0.014,0.107,0.203,0.236,0.097,0.35c-0.108-0.16-0.589-0.071-0.583-0.076l-0.035-0.029c-0.254,1.074,2.089,0.701,1.141-0.139
	c0.147-0.102,0.126,0.132,0.193,0.186c0.049-0.037,0.006-0.102,0.003-0.147c0.069,0.034,0.052,0.185,0.018,0.254
	c0.334-0.022,0.388-0.163,0.292-0.429c-0.007-0.023,0.807-0.338,0.907-0.32c0.907,0.166,0.059,0.225-0.196,0.521
	c-0.126,0.146,0.518,0.367,0.552,0.453c0.154-0.092-0.029-0.233-0.016-0.256c0.231,0.307,0.727,0.144,0.898-0.094
	c-0.023-0.04-0.067-0.025-0.098-0.02c0.062-0.092,0.176-0.148,0.254-0.155c0.019,0.014-0.272,0.142-0.052,0.229l0.023-0.041
	c-0.03,0.043,0.087,0.159,0.138,0.23c-0.069,0.086-0.173-0.085-0.271-0.096c-0.027,0.306,0.288,0.517,0.249,0.832
	c-0.271-0.178-0.031,0.123-0.002,0.156c0.154,0.164,0.802,0.336,0.822,0.354c0.304,0.258,0.163,0.464-0.27,0.415
	c0.197,0.187,0.969,0.528,1.229,0.56c0.168,0.021,1.156,0.527,1.234,0.635c-0.104,0.117-0.296-0.011-0.348,0.174
	c0.265,0.207,0.367,0.842,0.627,0.654c-0.005,0.027,0.284,0.504,0.343,0.527c0.146,0.059,0.225-0.809,0.441-0.895
	c0.102,0.254-0.148,0.49,0.012,0.732l0.138-0.101c-0.07,0.257,0.126,0.567,0.061,0.833c0.075-0.016,0.909,0.316,0.893,0.385
	c-0.066-0.055-0.457,0.1-0.472,0.184c0.001-0.007,0.594,0.301,0.556,0.096c0.184-0.008,0.221-0.116,0.494-0.055
	c-0.015,0.021-1.883,0.594-1.16,0.875c-0.042-0.314,0.525,0.81,0.451,0.395c0.179,0.234,0.321,0.582,0.604,0.548
	c-0.032,0.153-0.446,0.044-0.573,0.185c-0.235,0.256-0.362,0.219-0.367,0.688c-0.027-0.064-1.137,0.531-1.233,0.67
	c0.517-1.271-2.46-2.248-3.128-2.691c-0.452-0.3-0.896-0.605-1.343-0.914c-0.331-0.229-0.549-0.601-0.876-0.806
	c-0.28-0.176-0.61-0.487-0.938-0.56c-0.137,0.018-0.272,0.024-0.41,0.023c-0.094-0.119,0.092-0.348-0.112-0.43
	c0.228-0.169,0.677,0.243,0.879,0.314c0.071-0.071-0.151-0.25-0.139-0.231c0.351,0.114,2.375,1.51,2.51,0.927
	c0.089,0.32,1.59,0.864,1.771,0.857c0.248-0.012,1.681,0.345,1.693,0.296c-0.021-0.078-0.313-0.267-0.376-0.15
	c-0.012-0.36,0.595,0.177,0.479-0.446c-0.033-0.186-0.784-1.262-1.148-1.114c-0.194,0.266,0.159,0.573,0.298,0.751
	c-0.071,0.206-0.44-0.076-0.465,0.049c0.145,0.116,0.523,0.339,0.447,0.541c-0.049-0.202-0.646-0.521-0.775-0.441
	c-0.355-0.111-0.959-0.709-1.311-0.933c-0.021,0.062-0.021,0.123,0.003,0.185c-0.048,0.012-0.795-0.322-0.846-0.363
	c-0.323-0.271-0.757-0.303-1.113-0.549c-0.386-0.268-2.064-0.551-1.901-1.013c-0.291-0.093-0.965-1.006-0.857-0.538
	c-0.22-0.234-1.282,0.314-1.367-0.226c-0.102-0.651-0.679-0.056-0.812,0.228c-0.125-0.17-1.763-1.046-1.805-0.545
	c-0.2,0.002-1.055-0.197-0.893,0.131c-0.092,0.017-0.183,0.032-0.274,0.051c0.017,0.014-0.015,0.595-0.063,0.692
	c-0.068,0.14-0.274-0.291-0.216,0.021c-0.196-0.045-0.278-0.061-0.455-0.245c0.032,0.004,0.042-0.027,0.055-0.048
	c-0.082-0.131-0.225,0.015-0.261,0.051c-0.035,0.005-0.055-0.018-0.058-0.064c-0.007,0.189-0.101,0.362,0.011,0.4
	c-0.231,0.184-0.491,0.291-0.439,0.521c-0.136,0.063,0.002,0.127-0.082,0.234c0.078,0.043,0.638-0.092,0.695-0.165
	c-0.04,0.069-0.08,0.138-0.12,0.206c0.21,0.055,0.354,0.235,0.552,0.188c0.161-0.039,0.56-0.422,0.558-0.504
	c0.053,0.342,0.183,0.638,0.33,0.929c0.102-0.019,0.203-0.037,0.305-0.056l-0.023,0.041c0.15,0.184,1.116-0.529,1.083,0.056
	c-0.053-0.078-0.411,0.58-0.542,0.651c-0.082-0.44-0.17,0.047-0.386-0.039c0.048,0.09,0.096,0.179,0.145,0.268l0.028-0.189
	c0.019,0.354,1.704,0.914,1.69,0.604c0.145,0.386,1.14,0.217,1.381,0.292c0.016,0.089,0.135,0.17,0.229,0.215
	c-0.011,0.066-0.077,0.044-0.115,0.059c0.036-0.023,0.018-0.074,0.01-0.111c-0.038-0.037-0.111,0.021-0.146,0.064
	c0.002,0.035,0.025,0.049,0.045,0.063l-0.037-0.03c-0.087,0.27,0.652,0.357,0.712,0.493c0.051,0.116,0.183,0.329,0.299,0.469
	c0.252,0.306,0.364-0.08,0.609-0.021c0.17,0.041,0.407,0.234,0.508,0.314c-0.009,0.079-0.636,0.445-0.711,0.426
	c0.141-0.139-0.112-0.203-0.035-0.359c-0.103,0.257-0.432-0.102-0.501,0.021c-0.007-0.029-0.751-0.277-0.904-0.27
	c-0.385,0.023-1.042-0.116-1.531-0.116c-0.23,0.002-0.367-0.165-0.586,0.015c-0.253,0.207,0.075,0.392-0.09,0.619
	c-0.311,0.107-0.635-0.484-0.617-0.437c-0.045-0.078-0.384-0.351-0.496-0.427c-0.333-0.229-0.294-0.397-0.591-0.719
	c-0.207-0.225-0.367-0.414-0.567-0.597c-0.084-0.076-0.768-0.76-0.867-0.615c0.048,0.255,0.212-0.011,0.206,0.255
	c-0.187,0.049-0.483-0.203-0.633-0.176c-0.295-0.561-0.851-0.941-1.479-0.824c0.1-0.177-0.423-0.373-0.563-0.483
	c-0.109,0.186-0.135,0.11-0.248,0.192c-0.277-0.367-1.549,0.125-1.849,0.313c-0.455,0.28-1.559,0.302-1.913,0.681
	c-0.114-0.027,0.586-0.717,0.767-0.767c0.683-0.188,2.024-0.177,1.838-1.185c-0.134-0.043-0.059,0.226-0.046,0.265
	c-0.332-0.147-1.17-0.521-1.235-0.871C8,90.595,8.502,90.69,8.464,90.683c0.03,0.019,0.108,0.209,0.101,0.2
	c0.074,0.132,0.778-0.012,0.698,0.019c0.1,0.107,0.184,0.086,0.267,0.242c0.069-0.051,0.046-0.174-0.01-0.219
	c0.045-0.016,0.083,0.051,0.129,0.014c0.008-0.082-0.023-0.138-0.094-0.168c0.058,0.024,0.097,0.006,0.115-0.058
	c-0.274-0.088-0.617-0.086-0.844-0.293c-0.226-0.206-0.04-0.242-0.172-0.509c-0.276-0.557,0.413-0.128,0.427-0.152
	c0.165,0.047,0.385-0.354,0.398-0.404l0.037,0.029c0.008-0.251-0.246-0.463-0.275-0.463c-0.023-0.094-0.143-0.255-0.266-0.243
	c0.092-0.223,0.291,0.361,0.385,0.038c-0.021,0.307,0.942,0.506,0.299-0.117c-0.205-0.199-1.034-0.25-1.024-0.225L8.442,88.19
	l-0.041,0.117C8.287,88.04,8.02,88.181,7.843,88.19c0.443-0.92-0.557-0.518-1.153-0.775c0.022-0.025,0.189-0.216,0.149-0.213
	c0.024,0.066,0.071,0.096,0.143,0.085c0.032-0.112,0.053-0.226,0.063-0.343c-0.18-0.129-0.135,0.174-0.229,0.177
	c-0.229,0.007,0.004-0.222,0.006-0.024c0.051-0.225,0.057-0.451,0.021-0.681c-0.023-0.079-0.292-0.297-0.252-0.047
	c-0.503,0.062-0.063-0.583,0.126-0.683c0.217-0.254,0.663-1.614,0.232-1.806c-0.102,0.104-0.173,0.229-0.215,0.369
	c-0.241-0.072-0.007-0.347-0.221-0.509l0.062-0.012c-0.016-0.433-0.229-0.838-0.449-1.054l-0.042,0.116
	c-0.094-0.057-0.182-0.12-0.263-0.193c0.015-0.192,0.328-0.143,0.042-0.39c-0.271-0.233-0.248-0.083-0.473-0.094
	c0.064-0.063-0.721-0.778-0.539,0.077c0.045,0.211-0.657,0.863-0.854,0.584c0.094-0.018-0.017-0.803-0.029-0.838
	c-0.058-0.107-0.147-0.027-0.227-0.031l0.063,0.172c-0.054-0.082-0.115,0.179-0.16-0.008c-0.212-0.316,0.352-0.213,0.349-0.506
	c0.614,0.052-0.309-0.789-0.379-0.847c0.23-0.057,0.178-0.792,0.224-0.666c0.066,0.025,0.115,0.005,0.146-0.063
	c0.48,1.067,0.01,0.017,0.155,0.155l0.186,0.147c0.109-0.31,0.349,0.047,0.507,0.106c0.263,0.098,0.23-0.238,0.299-0.184
	c0.139-0.143-0.279-0.413-0.325-0.563c-0.012,0.051-0.022,0.103-0.034,0.152c-0.075-0.15,0.105-0.533-0.167-0.556l0.03-0.006
	c-0.083-0.115-0.275-0.416-0.244-0.47c-0.311,0.031-0.346,0.252-0.525,0.057c-0.334-0.364,0.177-0.323,0.444-0.339
	c0.902-0.054,0.565-1.507,0.296-1.959c-0.058,0.034-0.114,0.069-0.171,0.104c-0.16-0.373,0.334-1.128-0.088-1.156
	c0.154-0.227,0.05-1.678-0.075-1.948c-0.148-0.319-0.305-0.761-0.651-0.597L3.549,72.88c-0.106,0.162-0.208,0.133-0.345,0.357
	c-0.139-0.27-0.286-0.685-0.356-0.74c-0.054-0.146-0.13-0.28-0.232-0.396c-0.922,1.369-1.675-2.154-2.059-2.076
	c-0.086-0.748,0.922,0.199,0.979-0.107c0.065-0.354-0.661-0.693-0.852-0.867c-0.213-0.193-0.191-0.104-0.317-0.35
	c-0.07-0.137-0.005-0.506-0.17-0.633c-0.029-0.022,0.137-0.436,0.104-0.602c0.146,0.067,0.623-0.672,0.638-0.814
	c-0.119,0.061-0.695-0.252-0.734-0.379c0.186-0.274,0.458,0.246,0.345-0.355c0.107,0.064,0.214,0.132,0.32,0.197
	c0.047-0.109,0.045-0.217-0.006-0.32c-0.138,0.04-0.225,0.188-0.312-0.025c0.24-0.078,0.408-0.256,0.549-0.285
	c0.117,0.18,0.425,0.646,0.084,0.791c0.157,0.134,0.712-0.688,0.793-0.732c0.195-0.107-0.15-0.377-0.329-0.16
	c-0.239,0.153,0.17,0.235-0.02,0.406c0.121-0.174-0.216-0.164-0.253-0.176c0.417-0.772-0.39-0.32-0.355-0.555
	c-0.009-0.068-0.392-0.318-0.441-0.506c-0.038,0.334-0.48-0.029-0.357-0.227c0.066,0.023-0.024,0.162,0.087,0.13
	c0.169-0.261-0.266-0.247,0.173-0.408c0.367-0.134,0.328-0.103,0.603-0.362c0.402-0.382,0.477,0.184,0.785,0.004
	c0.19-0.234-0.431-0.559-0.396-0.439c0.005-0.246-0.382-0.631-0.191-0.516c-0.018-0.181-0.109-0.336,0.029-0.521
	c0.087-0.005,0.065,0.183,0.167,0.043c0.063-0.288-0.469-0.387-0.097-0.679c0.174,0.027,0.326-0.629,0.284-0.747
	c0.011,0.03,0.436,0.356,0.388,0.106c0.092,0.031,0.11,0.137,0.195,0.037c-0.21-0.166,0.333-0.337,0.439-0.521
	c-0.356-0.036-0.806-0.792-1.029-0.947c0.045-0.098,0.122,0.104,0.146-0.063c-0.135-0.053-0.641-1.157-0.61-1.243
	c0.134,0.157,0.269,0.317,0.403,0.476c0.145-0.764-0.555-1.014-0.818-1.683c-0.119-0.236-0.371-1.032-0.063-1.017
	c-0.146-1.312-0.444-2.694,0.05-3.973c0.292,0.186,0.04,1.521,0.06,1.803c0.033,0.452,0.688,1.909,0.106,1.799
	c-0.145,0.377,0.135,1.086,0.441,1.02c0.063,0.116,0.259,0.294,0.177,0.445c0.021-0.18-0.222-0.426-0.407-0.328
	c0.314,0.516,0.156,0.434,0.621,0.724c0.44,0.28,0.891,0.813,1.257,1.188c0.477,0.488,0.624,0.066,1.06-0.342
	c0.256-0.246-0.097-0.521-0.222-0.72l-0.024,0.042l0.012-0.113c0.001,0.037,0.024,0.053,0.043,0.065
	c0.136-0.033-0.063-0.142,0.021-0.224c0.879,0,0.27-0.951,0.403-1.391c0.146-0.465-0.065-0.945-0.066-1.349
	c0.006-0.271,0.129-1.215,0.42-0.483c0.028,0.045,0.109,0.314,0.346,0.155c-0.028-0.101-0.093-0.162-0.192-0.185
	c0.307,0.02,0.026-0.399,0.317-0.5C5,53.547,4.907,53.44,4.858,53.296c0.158-0.165,0.463,0.366,0.523-0.061
	c0.083-0.207-0.253-0.146-0.133-0.381l0.232,0.066c-0.034-0.158,0.201-0.26,0.05-0.412c-0.021-0.006,0.884-0.859,0.893-0.973
	c0.029,0.137,0.115,0.206,0.26,0.208c-0.077-0.269,0.078-0.894-0.475-0.683c-0.033-0.068-0.022-0.131,0.029-0.189l0.118,0.126
	l0.116-0.39c0.118,0.047,0.101,0.449,0.264,0.576l0.065-0.16c0.397,0.658,0.143,1.775,0.011,2.387
	c-0.046,0.216-0.332,0.268-0.333,0.309c-0.013,0.428,0.104,1.368,0.361,1.59c0.05,0.537,0.709,0.631,0.486,0.24
	c0.432,0.084-0.636-0.927-0.647-0.943c0.085-0.016,0.625,0.076,0.617,0.082c0.079-0.07-0.207-1.261-0.263-1.396
	c0.118,0.209,0.292,0.35,0.521,0.419c0.01-0.085-0.011-0.161-0.061-0.229c0.107,0.063,0.171,0.031,0.19-0.09
	c-0.077,0.19,0.047,0.532,0.282,0.498c0.135-0.334,0.128-2.336-0.257-2.228c-0.12,0.149,0.075,0.262,0.049,0.432
	c0.021-0.28-0.435-0.386-0.295-0.569c0.164-0.067,0.694,0.136,0.762,0.188c0.067-0.157,0.101-0.323,0.098-0.495
	c0.263,0.094,0.345,1.104,0.596,1.174c0.296-0.078,0.138-0.568,0.464-0.563c-0.04,0.068-0.079,0.137-0.119,0.205
	c0.472,0.117,0.726-0.547,0.745-0.991c0.019-0.442,0.611-1.659,0.291-1.917c-0.016-0.089,0.104-0.129,0.054-0.229
	c-0.149,0.128-0.233-0.148-0.305-0.274c-0.031,0.055-0.063,0.109-0.096,0.165c-0.314-0.092,0.108-1.445-0.298-1.266
	c0.004-0.352,0.261-0.933,0.073-0.968c-0.062-0.046,0.094-0.55-0.222-0.51c0.188-0.154,0.4-0.255,0.639-0.302
	c0.083-0.139-0.122-0.139-0.083-0.278c0.043,0.004,0.086,0.009,0.129,0.013c-0.055-0.109-0.042-0.21,0.038-0.301
	c-0.202,0.03-0.203-0.259-0.371-0.297c-0.166,0.115,0.109,0.375,0.25,0.319c-0.032,0.055-0.064,0.11-0.096,0.165
	c-0.125-0.089-0.755-1.246-0.739-1.257c0.04,0.136,0.128,0.218,0.267,0.244c0.119-0.46-0.459-0.89-0.503-1.007
	C9,43.338,8.862,43.033,8.843,42.975c-0.088,0.012-0.085,0.598-0.063,0.673c-0.151,0.021,0.025-0.126-0.095-0.166l-0.023,0.04
	L8.55,43.434L8.508,43.55c-0.321-0.012-0.651-0.354-0.608-0.565c0.018-0.094-0.073-0.363-0.119-0.432
	c-0.222-0.334,0.094-0.137,0.153-0.399c0.025,0.081,0.051,0.162,0.076,0.242c0.016-0.005,0.357-0.4,0.094-0.348
	c0.033-0.003,0.349-0.727,0.229-0.629l0.184-0.034c-0.281-0.028,0.015-0.635-0.373-0.481c0.019-0.39,0.596-0.012,0.47,0.11
	c0.05-0.048,0.255-0.554,0.099-0.619c0.137-0.078,0.207,0.27,0.317,0.014l-0.021-0.105l0.089,0.13l0.059-0.194
	c0.093-0.007-0.049,0.166,0.087,0.13c0.029-0.139,0.004-0.269-0.073-0.39c-0.021,0.048-0.139,0.098-0.177,0.069
	c0.295-0.185-0.29-0.722,0.298-0.605c-0.089-0.057-0.081-0.353-0.278-0.316l0.032,0.179c-0.054-0.002-0.105-0.005-0.16-0.008
	c-0.091-0.032-0.131-0.757-0.159-0.785c-0.122,0.007-0.242-0.004-0.361-0.032c-0.038-0.115-0.073-0.23-0.107-0.346
	c-0.21-0.329-0.063-0.354-0.408-0.332c-0.01,0.122,0.047,0.197,0.168,0.226C8,38.035,7.814,39.074,7.61,38.432
	c-0.063-0.198-0.003-0.825-0.376-0.697c-0.003-0.101,0.035-0.181,0.114-0.24c-0.062,0.088-0.04,0.145,0.063,0.172
	c0.173-0.172-0.071-0.392,0.084-0.566l0.038,0.029c0.056-0.412,0.341-0.437-0.241-0.616c0.157-0.167,0.042-0.51,0.335-0.576
	c-0.057-0.105-0.145-0.017-0.151,0.029c0.1-0.358,0.558,0.382,0.642,0.394l0.07,0.207L8.15,36.541
	c-0.011,0.02-0.029,0.041-0.018,0.076c0.042,0.059,0.107,0.009,0.16,0.007c0.208-0.171-0.405-0.891-0.524-1.031
	c-0.203-0.24-0.141,0.068-0.215,0.105c-0.304-0.162-0.261-0.003-0.514-0.383c-0.339,0.147-0.204-0.144-0.28-0.313
	c-0.053-0.003-0.105-0.006-0.158-0.008c0.012-0.021,0.032-0.043,0.018-0.077c-0.142-0.083-0.249,0.102-0.315,0.17
	c0.007-0.101,0.241-0.193,0.039-0.302c-0.001,0.078-0.035,0.135-0.104,0.171c-0.114-0.02-0.155-0.087-0.122-0.201
	c0.047,0.028,0.094,0.056,0.141,0.083c0.037-0.106,0.131-0.116,0.114-0.24c-0.211,0.109-0.143-0.176-0.25,0.009
	c-0.148-0.181,0.07-0.452-0.027-0.655c-0.094,0.016-0.136,0.072-0.127,0.171c-0.313-0.326-0.293,0.265-0.245,0.375
	c-0.145-0.08-0.11-0.185-0.139-0.23c-0.113,0.021-0.239-0.043-0.325-0.05c-0.045,0.076,0.135,0.297,0.079,0.426l-0.073-0.06
	c-0.136,0.111,0.082,0.096-0.163,0.141c0.103-0.244-0.01-0.242-0.009-0.55c-0.166-0.06-0.167,0.278-0.221,0.335
	c-0.005,0.013-0.021-0.795-0.022-0.803c-0.126,0.192-0.356-0.355-0.38-0.003c0.022,0.019-0.352-1.784-0.415-1.721
	c0.113,0.351,0.133,0.057,0.104,0.054c0.028-0.021,0.301,0.4,0.219,0.326c0.247,0.001,0.164,0.373,0.428,0.434
	c0.036-0.025,0.018-0.075,0.011-0.111l0.074,0.059c0.063-0.175-0.021-1.171,0.032-1.181C5.01,31.902,5.39,32.108,5.5,32.3
	c-0.038-0.086,0.347-0.396,0.355-0.601c0.011-0.268,0.014-0.618,0.118-0.589c0.075-0.149,0.022-0.262-0.073-0.39l0.081,0.095
	c0.035-0.039-0.047-0.694-0.176-0.774c-0.038,0.08-0.076,0.16-0.113,0.24c-0.137-0.135-0.091-0.35-0.314-0.16
	c-0.041-0.031-0.081-0.063-0.122-0.093c0.002-0.102,0.248-0.036,0.271-0.054c0.062-0.157-0.393-0.428-0.052-0.349
	c0.011-0.021,0.032-0.044,0.018-0.077L5.458,29.7c0.111,0.091,0.174,0.035,0.258,0.027l-0.02-0.107
	c0.063,0.035,0.05,0.186,0.146,0.119l0.042-0.117C5.938,29.68,6.01,29.617,6.058,29.7c-0.095-0.165,0.038-0.354,0.06-0.524
	l-0.186,0.182l-0.033-0.177l-0.13,0.317c-0.045-0.133,0.138-0.332-0.097-0.35c-0.166-0.023,0.021,0.25-0.009,0.295
	c-0.033-0.046-0.688-0.67-0.58-0.405c-0.048-0.063-0.333,0.126-0.362-0.08L4.696,29l-0.112-0.09l-0.041,0.118
	c-0.005-0.085-0.011-0.17-0.016-0.254c-0.245-0.1-0.135,0.402-0.409,0.002c0.077,0.022,0.155,0.045,0.232,0.067
	c-0.246-0.494-1.596-0.35-1.46,0.125c-0.05-0.04-0.099-0.079-0.148-0.119c-0.013-0.03-0.27,0.516-0.28,0.529
	c0.215,0.357,0.557,0.069,0.561-0.215l0.138,0.232l0.048-0.083l0.057,0.136l-0.074-0.06c-0.047,0.039-0.002,0.104-0.004,0.148
	c0.167,0.048,0.316-0.445,0.612-0.301c0.313,0.147,0.097,0.232,0.434,0.229c0.146-0.002-0.086,0.293-0.089,0.297
	c0.062,0.05,0.124,0.1,0.186,0.149c-0.03-0.159,0.069-0.104,0.144-0.247l0.094,0.166c0.176-0.167,0.738,0,0.564,0.394
	c-0.095,0.218-0.615,0.363-0.901,0.217c-0.118-0.06,0.015,0.223-0.005,0.261L4.198,30.56c-0.212-0.046-0.429,0.29-0.735-0.046
	c-0.053,0.224,0.171,0.545,0.234,0.579c-0.082,0.238-0.063,0.243-0.271,0.234c0.078,0.23,0.146,0.464,0.199,0.7
	c0.031,0.168-0.188,0.378-0.268,0.12c-0.021,0.053-0.043,0.106-0.065,0.159c-0.008-0.178,0.006-0.354,0.041-0.528
	c-0.087-0.23-0.287-0.112-0.312-0.247c-0.021-0.102-0.427-0.452-0.435-0.636c-0.003-0.099-0.14-0.514-0.166-0.581
	c-0.177-0.622-0.255-0.489-0.848-0.624c0.031,0.077,0.047,0.156,0.049,0.239c-0.106,0.119-0.259-0.241-0.364,0.084
	c-0.054,0.168-0.108,0.402-0.129,0.574c-0.066,0.597-0.371,0.793-0.375,1.351C0.752,32.39,0.759,32.984,0.5,33.396
	c-0.14,0.223-0.06,0.912-0.205,0.973c0.042-0.138-0.272-0.338-0.229-0.215c-0.182-0.251,0.042-0.791,0.146-1.035
	c0.125-0.291-0.003-0.804,0.17-1.005c-0.404-0.212,0.449-1.646,0.247-2.064c0.419-0.002,0.421-0.43,0.556-0.58
	c0.031-0.103-0.04-1.059,0.332-0.76c0.021-0.048,0.07-0.094,0.035-0.153l0.008,0.036c0.182-0.042,0.383-0.188,0.577-0.291
	c-0.01,0.063-0.02,0.126-0.029,0.188c0.188-0.075,0.15,0.155,0.281-0.015c-0.002-0.008-0.063-0.128-0.083-0.176
	c-0.178-0.412,0.492-0.312,0.74-0.534c-0.013,0.064-0.001,0.123,0.033,0.177c0.007-0.028,0.378-0.493,0.409-0.517
	c0.011,0.073,0.015,0.146,0.009,0.22c0.269,0.121,0.846-0.238,0.976-0.182c0.13-0.014,0.223-0.08,0.279-0.199
	c-0.406,0.045-0.073-0.346-0.005-0.365c0.021-0.104,0.182-0.127,0.052-0.231L4.738,26.68l0.048-0.082
	c0.064,0.036-0.003,0.104,0.087,0.131c0.05-0.034,0.007-0.101,0.004-0.147c0.082,0.187,0.283,0.113,0.364,0.263L5.216,26.7
	c0.055,0.064,0.108,0.129,0.162,0.192c-0.16-0.066-0.328,0.461,0.014,0.45c0.194-0.007,0.151-0.327,0.029-0.386
	c0.08,0.019,0.13-0.014,0.152-0.098c-0.032,0.027,0.231,0.466,0.232,0.467c-0.063,0.002,0.148,0.192,0.344,0.156l-0.037-0.03
	c0.216-0.059,0.494-0.105,0.421-0.115c0.38,0.018,0.422-0.372,0.687,0.13c0.198-0.045,0.18-0.313,0.425-0.263
	c-0.066,0.023-0.065,0.158-0.077,0.271l0.123-0.022c0.021,0.068,0.303,0.252,0.187,0.331c-0.272,0.185-0.08,0.505,0.053,0.615
	c-0.095,0.129,0.153,0.307,0.24,0.204c-0.049,0.059,0.14-0.229,0.037-0.073l0.208-0.404c0.02,0.051-0.048,0.118,0.026,0.141
	c0.077-0.265-0.042-0.448,0.107-0.606c0.065-0.208,0.001-1.097,0.154-1.203c0.148,0.065,0.267,0.268,0.341,0.356
	c0.204,0.24,0.472-0.166,0.295-0.328c0.247-0.127,0.576,0.34,0.417,0.546c-0.072-0.095-0.021-0.174-0.053-0.283l-0.023,0.041
	l-0.05-0.102c-0.38-0.084-0.002,0.458,0.122,0.492l0.074,0.06c0.037-0.025,0.017-0.077,0.011-0.112
	c0.037,0.059,0.112,0.291,0.253,0.174c0.122-0.216,0.535-0.679,0.408-1.03c-0.332,0.08-0.226,0.583-0.613,0.212
	c-0.115-0.11-0.108-0.353-0.128-0.295c0.17-0.191,0.759-0.102,0.742-0.265c-0.015-0.153-0.336-0.205-0.103-0.368
	c-0.123-0.066-0.324-0.321-0.313-0.338c0.027-0.045,0.206-0.376-0.002-0.338c-0.001,0.049-0.003,0.099-0.005,0.148
	c-0.132-0.361-0.667,0.218-0.688,0.202c-0.146-0.02-0.395,0.415-0.306,0.056c-0.022-0.087-0.111-0.089-0.173-0.078l0.051,0.101
	c-0.106-0.197-0.678-0.711-0.183-0.811c0.122-0.085,0.938-0.064,0.874-0.565c-0.091,0.229,0.433,0.752,0.646,0.761
	c0.021-0.219-0.069-0.104-0.153-0.155c0.178-0.224,0.115-0.494,0.179-0.73c0.148,0.535,0.816,0.604,0.845,0.98
	c0.161-0.06,0.012-0.252,0.099-0.352c0.236-0.271,0.17,0.319,0.281,0.354c0.22-0.041,0.347-0.344,0.409-0.517
	c-0.146-0.148-0.188,0.258-0.294-0.056c0.126-0.04,0.463-0.142,0.486-0.273c0.021,0.326-0.253,0.875,0.146,0.964
	c-0.166,0.239,0.44,0.575-0.067,0.819c-0.004-0.263-0.331-0.199-0.378-0.333c-0.211,0.232-0.271,0.506-0.166,0.802
	c-0.08-0.085-0.039-0.257-0.183-0.297c-0.117,0.131,0.13,0.582,0.255,0.356c-0.115,0.251,0.169,0.164,0.053,0.453
	c-0.09,0.224,0.158,0.303,0.059,0.48c-0.008-0.089-0.052-0.153-0.131-0.195c-0.02,0.105-0.134,0.244-0.049,0.413
	c0.358,0.321,0.499-0.56,0.491-0.753c0.063,0.094,0.104,0.196,0.12,0.308c-0.02-0.041-0.002-0.057,0.055-0.046
	c-0.031,0.047-0.117,0.446,0.115,0.324c0.287-0.151-0.437-0.01,0.132-0.188c0.071,0.142-0.194,0.386,0.048,0.431
	c0.091-0.071-0.102-0.116,0.035-0.152c-0.031,0.371,0.407,0.744,0.447,1.054c0.348-0.284,0.155-1.387-0.328-1.26
	c0.003,0.073,0.006,0.146,0.009,0.219c-0.085-0.042-0.139-0.39-0.085-0.461c-0.08,0.026-0.159,0.054-0.238,0.08
	c0.089-0.146-0.079-0.495-0.136-0.561c-0.039-0.038,0.018-0.414-0.027-0.656c0.928,0.235,0.469-0.42,0.99-0.955
	c-0.095-0.075-0.031-0.899,0.099-0.825c0.048-0.046,0.003-0.118-0.003-0.184c0.03-0.012,0.049,0.01,0.067,0.024
	c-0.122-0.233,0.181-0.438-0.027-0.655c-0.089,0.178-0.078,0.419-0.219,0.518c-0.021-0.165-0.105-0.284-0.256-0.355
	c-0.104,0.138-0.138,0.291-0.104,0.459c0.143,0.027,0.22,0.11,0.235,0.251c-0.196-0.127-0.219-0.205-0.286-0.351
	c-0.002,0.063-0.051,0.044-0.114,0.058c-0.026-0.194-0.021,0.02-0.125-0.161c0.087-0.164-0.048-0.409-0.148-0.632
	c-0.043,0.191-0.236,0.171-0.246,0.375c-0.16-0.342-0.563-0.41-0.816-0.654c0.074-0.135-0.049-0.617-0.217-0.658
	c0.293-0.02,0.128-0.567,0.088-0.713c-0.174,0.125-0.462,0.364-0.217,0.701c-0.119,0.063-0.196-0.312-0.365-0.262
	c0.034,0.004,0.043-0.027,0.055-0.048c-0.114,0.012-0.146-0.043-0.095-0.166c0.319-0.179,0.652-0.827,1.082-0.972
	c-0.216-0.431-0.367,0.006-0.54-0.193c0.061-0.043,0.12-0.085,0.182-0.125c0.052-0.094-0.124-0.12-0.179-0.021l-0.009-0.219
	c0.115,0.025,0.213,0.125,0.369,0.114c-0.036-0.074,0.06-0.238-0.107-0.236l-0.023,0.04c-0.216-0.034,0.114-1.014-0.077-1.086
	c0.015-0.098,0.142-0.205-0.002-0.182c-0.088-0.073-0.46-0.016-0.433-0.287c0.054,0.002,0.106,0.004,0.16,0.006
	c-0.049-0.009-0.052,0.058-0.078,0.089c0.111,0.014,0.198-0.027,0.262-0.122c0.03,0.072,0.083,0.123,0.154,0.154
	c-0.147-0.562,0.065-0.154-0.146-0.449c0.488,0.115-0.106-1.456-0.131-1.554c-0.173-0.006,0.038,0.112-0.065,0.158
	c-0.229-0.191,0.089-1.401-0.157-1.695c-0.283,0.224-0.229,1.278-0.39,1.467c-0.155,0.145-0.059,0.291,0.087,0.131
	c-0.025,0.204,0.038,0.376,0.191,0.515c-0.094,0.042-0.179,0.068-0.251,0.011c-0.068,0.104-0.062,0.201,0.021,0.289l0.049-0.082
	c0.149-0.01-0.003,0.158,0.124,0.161l-0.159-0.007c-0.037,0.092,0.044,0.688,0.096,0.679c0.077-0.173-0.053-0.034,0.112-0.241
	c-0.272,0.382,0.228,1.421,0.142,1.44c-0.011-0.059-0.021-0.118-0.033-0.177c-0.047,0.001-0.054,0.076-0.114,0.059
	c0.006-0.101,0.238-0.126,0.075-0.271c-0.026,0.107-0.211,0.051-0.149,0.212l-0.069-0.207c-0.334,0.278,0.134,0.38,0.164,0.373
	c0.165,0.174,0.085,0.225-0.032,0.336c0.168-0.167,0.146,0.317,0.255,0.355c-0.129,0.112-0.312-0.115-0.352,0.14
	c0.019,0.08,0.067,0.12,0.146,0.119c-0.188,0.125-0.137,0.229-0.215,0.37c0.053-0.156-0.01-0.218-0.19-0.185l0.151-0.027
	c-0.008-0.092-0.08-0.141-0.077-0.243c0.029-0.013,0.05,0.01,0.067,0.023c0.153-0.277-0.452-0.45-0.267-0.758
	c-0.094-0.003-0.147,0.044-0.164,0.142c-0.497-0.225-0.241-0.5-0.597-0.66c0.006,0.021,0.529,0.113,0.56,0.116
	c-0.02,0.098-0.021,0.196-0.009,0.295l0.139-0.1c0.051,0.046,0.035,0.133,0.095,0.166l0.117-0.389
	c-0.003,0.037-0.043,0.045,0.013,0.072c0.026-0.008,0.2-0.141,0.188-0.183c-0.201-0.19-0.29,0.121-0.333,0.245
	c-0.16-0.321,0.289-0.328,0.216-0.621c-0.063-0.245-0.178-0.518-0.254-0.767c0.05,0.04,0.1,0.08,0.148,0.119
	c0.111-0.212-0.293-0.129-0.097-0.348c-0.087-0.095-0.144,0.073-0.169,0.104c-0.05-0.1-0.021-0.325-0.141-0.414
	c0.086,0.124,0.148,0.039,0.271,0.097c-0.05-0.161,0.242-0.629-0.165-0.617c-0.165,0.005-0.167,0.334-0.156,0.42
	c0.036-0.117-0.12-0.196-0.182-0.296c-0.252,0.015-0.325,0.412-0.121,0.536c0.032-0.056,0.063-0.11,0.097-0.165l-0.024,0.041
	l0.22-0.005c-0.37,0.239-0.128,0.66-0.472,0.859c0.335-0.045,0.402,0.539,0.328,0.746c-0.073-0.108-0.154-0.213-0.219-0.326
	l-0.048,0.083c-0.026-0.147-0.114-0.632-0.254-0.688C9.372,17.788,9.051,18.182,9.18,18c-0.064-0.345-0.227-0.337-0.375-0.613
	c-0.163-0.302-0.339-0.412-0.268-0.731c0.073-0.327-0.052-0.349-0.107-0.314c-0.101-0.08-0.125-0.075-0.217-0.144
	c0.023-0.053,0.188,1.684-0.25,1.038c0.206-0.1-0.06-0.532,0.117-0.389c0.087-0.1-0.193-0.484-0.306-0.457
	c0.008-0.145,0.253,0.003,0.248-0.192c-0.357,0.011-0.657-0.097-0.992-0.073c0.031-0.142,0.233-0.07,0.174-0.252l0.187,0.148
	c0.032-0.172,0.043-0.345,0.028-0.519c0.085,0.288,0.433,0.304,0.666,0.353c-0.001,0.016-0.39-0.497-0.411-0.511
	c0.136,0.021,0.195-0.035,0.183-0.17c-0.003-0.199-0.374-0.014-0.282-0.031c-0.176-0.236-0.205,0.073-0.345-0.157
	c-0.032,0.055-0.064,0.11-0.097,0.165c-0.007-0.021-0.288-0.21-0.327-0.231c-0.228-0.014-0.033,0.223-0.131,0.316
	c-0.106-0.018-1.162-0.838-1.181-0.918c-0.006,0.011,0.049,0.803,0.036,0.789c-0.025-0.052-0.051-0.104-0.076-0.156l0.079-0.089
	c-0.014-0.125-0.119-0.014-0.173-0.078l-0.004,0.148c-0.04-0.05-0.083-0.054-0.128-0.013c-0.257-0.118,0.082-0.393-0.007-0.55
	c-0.112,0.021-0.225,0.042-0.335,0.063c-0.02,0.106,0.079,0.089,0.117,0.126c0.021-0.041-0.475,0.128-0.48,0.125
	c0.162-0.086,0.017-0.246-0.042-0.396c0.092,0.079,0.142,0.18,0.15,0.302c0.421-0.013,0.026-0.996-0.361-0.593
	c-0.086-0.215-0.146-0.437-0.181-0.666c-0.099-0.204-0.389-0.086-0.359-0.371c0.191-0.085,0.28-0.221,0.184-0.364
	c0.03-0.013,0.048,0.01,0.068,0.023c0.048-0.046,0.003-0.118-0.003-0.183c0.178,0.057,0.724,0.375,0.848,0.319
	c0.041,0.115-0.451,0.601,0.161,0.521c0.056,0.019-0.052,0.4,0.242,0.284c-0.005-0.085-0.01-0.17-0.017-0.254
	c0.193-0.075,0.145,0.024,0.278,0.133c-0.117-0.051-0.224,0.276-0.101,0.311c0.04-0.043,0.051-0.094,0.036-0.152
	c0.015,0.033-0.007,0.056-0.019,0.076l0.122-0.021L5.456,13.74c0.148,0.104,0.265-0.032,0.218-0.188
	c0.068-0.048,0.092,0.342,0.131,0.333c0.078-0.018,0.004-0.217,0.11-0.048c-0.032-0.277-0.107-0.679-0.395-0.771
	c0.266-0.175,0.596,0.914,0.955,0.888l0.021-0.042c0.021,0.016,0.025,0.337,0.098,0.35c0.125-0.061-0.051-0.236,0.076-0.271
	c0.012,0.01-0.054,0.224,0.077,0.243c0.222-0.02-0.097-0.881-0.104-0.898c0.128,0.123,0.471-0.362,0.417-0.297
	c-0.015-0.406,0.197-0.066-0.031-0.469c-0.152-0.267-0.084-0.267,0.027-0.516c0.02-0.043,0.017-0.7-0.001-0.74
	c0.142-0.42,0.697-0.558,0.351-1.166c-0.003-0.005,1.679,1.004,1.728,0.944c0.313-0.384-0.578-1.65-0.716-2.124
	C8.35,9.056,8.282,9.142,8.214,9.228c-0.041-0.061-0.572-0.046-0.6,0.001C7.39,9.134,8.104,8.663,8.22,8.641
	c0.325-0.057,1.09,0.347,1.212,0.642c0.052,0.128-0.185,0.133-0.144,0.294c0.125,0.338,0.396,0.519,0.338,0.835
	c-0.124,0.673,0.04,0.865,0.636,1.003c-0.09-0.207-0.344,0.292-0.345,0.356c-0.013,0.472,0.498,0.473,0.471,0.317
	c0.13-0.014,0.193,0.048,0.192,0.185c-0.244,0.002-1.049-0.172-1.254,0.05c0.008-0.009-0.161-0.179-0.151-0.303l0.149,0.12
	l0.004-0.148c0.123,0.326,0.255-0.121,0.437,0.14c0.142-0.297-0.26-0.306-0.32-0.197c0.05-0.023-0.747-0.763-0.951-0.821
	c-0.209-0.066-0.595,0.295-0.352,0.438c-0.037,0.024-0.364,0.637-0.365,0.582c0.091,0.173,0.432,0.364,0.595,0.646
	c0.007,0.013,0.297,0.57,0.394,0.57c0.136-0.085,0.277-0.002,0.32,0.046l0.087,0.13c0.122-0.36,0.145,0.225,0.386,0.039
	c0.109-0.097-0.049-0.316,0.161-0.323c0.01,0.067,0.042,0.122,0.094,0.165c0.056-0.096,0.11-0.191,0.167-0.288
	c-0.243,0.011-0.251-0.004-0.268-0.243c0.044,0.065,0.087,0.13,0.132,0.195c0.196-0.084,0.584-0.149,0.71-0.425
	c0.043,0.065,0.087,0.13,0.132,0.195l-0.214,0.04c0.021,0.063,0.005,0.146,0.063,0.171c-0.022-0.039-0.134-0.092-0.153,0.029
	c0.103,0.217,0.223,0.202,0.281,0.42c0.096,0.354,0.49-0.208,0.53-0.25c0.364-0.382,0.271-1.123-0.379-0.91
	c-0.058-0.174,0.254-0.186,0.172-0.345c-0.094-0.184-0.418-0.286-0.551-0.503c0.059,0.167,0.27-0.08,0.282,0.167
	c0.11-0.001,0.011-0.167,0.035-0.152l0.074,0.06c0.097-0.279,0.583,0.165,0.754,0.156c0.35-0.021,0.746-0.507,0.304-0.737
	c-0.266-0.14-0.779-0.663-0.955-0.907c0.024-0.145,0.974-0.3,0.937-0.394c0.467,0.569,0.604-0.662,0.604-0.662
	c0.047,0.027,0.094,0.056,0.141,0.084C12.6,9.09,12.329,8.453,12.216,8.85c0.02,0.092,0.064,0.108,0.136,0.049
	c0.18,0.16-0.296,0.257-0.32,0.316c-0.032-0.063-0.219-1.557-0.47-1.445c-0.214,0.095-0.438,0.15-0.284,0.448l0.059-0.195
	c0.255,0.195-0.333,0.312-0.101,0.472c0.144,0.1,0.355,0.427,0.311,0.53c0.004-0.01-0.263,0.031-0.237,0.032L11.23,8.813
	c-0.162-0.041-0.067,0.144-0.029,0.188c-0.109,0.048-0.371-0.179-0.529-0.163c-0.312,0.031-0.126,0.232-0.188,0.371
	c-0.08,0.021-0.303-0.834-0.292-0.925c0.029-0.235,0.039-0.402-0.064-0.61c-0.057-0.117-0.376-0.055-0.33,0.049
	C9.784,7.688,9.801,7.665,9.813,7.645c-0.4,0.075-0.765,0.19-1.116,0.283C8.7,8.001,8.704,8.074,8.707,8.146
	C8.356,8.074,8.081,7.832,7.765,7.661l0.427-0.08c-0.233-0.203-0.549-0.199-0.775-0.26L7.413,7.469
	C7.326,7.338,7.088,7.584,7.099,7.307C7.336,7.305,7.53,7.114,7.771,7.224c0.32,0.144,0.586,0.386,0.937,0.472
	C8.937,7.752,9.61,7.518,9.768,7.399C9.744,7.26,9.665,7.177,9.532,7.148c0.196-0.13,0.493,0.22,0.619,0.104
	c0.008,0.048,0.687-0.445,0.786-0.477c0.147-0.024,0.251-0.104,0.312-0.242c0.13,0.148,0.293,0.207,0.487,0.175
	c0.4-0.038,0.87-0.068,1.261,0.074c0.339,0.123,1.212,0.851,1.326,0.574c0.199-0.482,0.289,0.788,0.208,0.694
	c-0.329-0.277-0.573,0.917-0.616,1.105c0.003-0.152-0.784-0.972-0.771-0.98c-0.143,0.103-0.311,0.594-0.334,0.735
	c-0.079,0.47,0.215,0.543,0.436,0.884c0.23-0.397,0.456-0.271,0.425-0.593c-0.016,0.012,0.913,0.519,0.919,0.526
	c0.149-0.53,0.055-0.012-0.025-0.142c0.141-0.008-0.028-0.234,0.156-0.176c-0.055,0.084,0.086,0.24,0.097,0.349
	c0.266-0.621-0.2-0.204-0.248-0.65c0.555-0.58,0.365,0.906,0.631,1.02c0.095-0.105,0.105-0.217,0.032-0.337
	C15.446,9.662,15.75,9.75,15.759,9.4c0.367,0.165-0.143,0.652,0.2,0.733c-0.036,0.087-0.063,0.184,0.025,0.142
	c-0.012,0.021-0.029,0.042-0.018,0.076l0.093-0.017c-0.114,0.156-0.486,0.442-0.206,0.589c-0.219,0.514,0.196,0.527,0.664,0.684
	c0.038-0.099,0.041-0.197,0.008-0.296l0.037,0.029c0.041-0.28-0.136-0.4-0.351-0.521c0.062-0.012,0.122-0.022,0.184-0.034
	c-0.022-0.018-0.153-0.183-0.168-0.182c0.078,0.043,0.159,0.075,0.246,0.095c0.021-0.167,0.049-1.137-0.101-1.106
	c-0.061,0.013-0.272,0.374-0.274,0.442c0.023,0.014-0.163-0.303-0.189-0.333c0.148-0.062,0.036-0.076,0.022-0.224
	c0.268,0.123,0.399-0.188,0.343-0.357c0.037,0.146-0.151,0.351-0.302,0.241c0.052-0.17,0.104-0.339,0.157-0.508
	c0.034,0.126,0.086,0.255,0.104,0.385c0.035-0.024,0.017-0.076,0.01-0.112c0.029-0.013,0.049,0.009,0.068,0.024
	c0.024-0.287,0.057-0.574,0.093-0.861c-0.181,0.099-0.361-0.332-0.368-0.445c0.028,0.076,0.08,0.127,0.155,0.154
	c0.08-0.077-0.071-0.097-0.002-0.183c0.037,0.049,0.269,0.324,0.242,0.285c0.126,0.154,0.416,0.208,0.459,0.43
	c0.046,0.23-0.013,0.368,0.163,0.574c0.23,0.271,0.522,0.354,0.711,0.548c0.091,0.093,0.031-0.143,0.1-0.131
	c0.154,0.104,0.302,0.153,0.297,0.239c0.219,0.113,0.346,0.034,0.339-0.21c0.282,0.375,0.43-0.311,0.161-0.323
	c0.058-0.147,0.184,0.154,0.207-0.077c-0.276,0.126-0.397-0.53-0.589-0.109c0.401,0.032,0.052,0.359,0.153,0.484
	c-0.181-0.2-0.157,0.008-0.251,0.011c-0.08-0.08-0.066-0.423-0.056-0.467c-0.064-0.074-0.141-0.085-0.227-0.031
	c-0.064-0.13,0.238-0.286,0.115-0.36c-0.313-0.185-0.197-0.416-0.273-0.664c-0.156-0.512,0.465-0.748,0.298-1.276
	c0.04,0.019,0.72,0.277,0.349,0.008c0.052-0.01,0.103-0.019,0.153-0.028c0.017-0.128-0.359-0.052-0.325-0.381
	c-0.364-0.174-0.328-0.743-0.715-0.967c-0.397,0.149,0.12,0.173,0.065,0.355C17.456,5.717,17.613,5.53,17.449,5.6
	c-0.041,0.117,0.046,0.248,0.151,0.301c-0.021,0.052-0.793-0.613-1.039-0.319c-0.167-0.234,0.605-0.244,0.129-0.584
	c-0.156-0.111-0.21-0.338-0.289-0.451c0.056-0.01,0.291-0.054,0.329-0.083c0.134-0.103-0.277-0.229-0.228-0.257
	c0.233-0.128,0.528,0.005,0.881-0.137c-0.076-0.058-0.089-0.128-0.038-0.212c-0.083,0.08-0.185,0.111-0.3,0.091
	c0.476-0.38-0.698-0.653-0.469-1.16c-0.07-0.024-0.188,0.374-0.185,0.364c0.115,0.027-0.028,0.22,0.077,0.244
	c-0.434-0.187-0.629-1.366-0.146-0.78l0.194-0.146c-0.058,0.083-0.035,0.141,0.063,0.172c0.213-0.369,0.051-0.242-0.046-0.248
	c-0.103-0.133,0.189-0.354,0.215-0.371c0.047,0.028,0.096,0.057,0.143,0.084c-0.072,0.172-0.072,0.076,0.101,0.202
	c-0.2,0.294,0.147,0.095,0.399,0.108c-0.067-0.039-0.242-0.383-0.345-0.156c0.198-0.279-0.427-0.669-0.195-0.881
	c0.163,0.17,0.761,0.368,0.828,0.543c0.115-0.106,0.313-0.838,0.318-0.83c0.036,0.124,0.106,0.16,0.21,0.108
	c0.041,0.125-0.021,0.168,0.022,0.289c0.12,0.133,0.059-0.236,0.25-0.01c0.136-0.118-0.058-0.586,0.269-0.416
	c0.05,0.022,0.455,0.022,0.433-0.228c-0.042,0.33,0.384,0.317,0.636,0.358c-0.062,0.062,0.049,0.042,0.085-0.052l0.037,0.029
	c0.054-0.092,0.03-0.161-0.07-0.206c0.101,0.001,0.16,0.051,0.187,0.148c0.109-0.099-0.188-0.595-0.066-0.355
	c0.032-0.145-0.402-0.475-0.403-0.476L19.62,0.13c0.112,0.009,0.203,0.073,0.31,0.127l-0.087,0.052
	c-0.012-0.026,0.468,0.67,0.369,0.629c-0.037,0,0.243-0.113,0.238-0.08c-0.101-0.062-0.126-0.142-0.078-0.243
	c0.345,0.203,1.063-0.094,1.14,0.008c-0.05-0.181,0.1-0.227,0.116-0.389c-0.148-0.063,0.412,1.17,0.477,0.352
	c0.097,0.079-0.096,0.344-0.043,0.449c0.155-0.168,0.162,0.24,0.317,0.015c-0.172-0.042-0.153-0.219-0.137-0.231
	c0.021-0.069-0.011-0.401-0.159-0.338c0.05-0.21,0.117-0.285,0.228-0.482c0.157,0.097,0.151,0.612,0.468,0.647
	c0.577-0.803,0.958,0.313,1.685,0.203c0.32-0.05,0.555-0.146,0.766,0.261c0.19,0.371,0.388,0.415,0.609,0.545
	c-0.004-0.073-0.149-0.137-0.194-0.037c-0.005,0.12,1.348,0.489,1.352,0.481c0.065-0.113,0.301,0.348,0.444,0.322
	c0.345-0.059-0.053,0.823,0.107,1.117c-0.215-0.12-0.258,0.361-0.014,0.442c0.112,0.313,0.197,1.14,0.072,1.234
	c0.01-0.011,0.13,0.239,0.042,0.396c0.275-0.361,0.778,0.673,0.52,0.417c0.129,0.007,0.245,0.765-0.093,0.86
	c0.42,0.165,0.668-0.986,0.955-0.801c0,0.417-0.321,0.573-0.249,1.037c-0.041-0.054-0.082-0.106-0.123-0.16
	c-0.017,0.059-0.339,0.507-0.098,0.495c-0.07,0.306-0.359-0.114-0.223,0.335c-0.283,0.01-0.181,0.262-0.342,0.54l0.101,0.019
	c-0.083,0.152-0.276,0.381-0.388,0.476c0.005,0.094-0.584,1.972-0.104,1.816l0.041-0.117c-0.009,0.159,0.011,0.315,0.061,0.467
	c-0.063,0.103-0.137,0.199-0.22,0.288c-0.128,0.312,0.39,0.175,0.384,0.451c0.507,0.211,1.159,0.343,1.4,0.4
	c0-0.012-0.005-0.319-0.022-0.289c0.167,0.097,0.405,0.632,0.443,0.688c-0.285-0.186,1.563,0.184,0.879,0.313l-0.074-0.061
	C30.43,12.969,30.779,13.136,30.896,13.228"/>
</svg>
