<?xml version="1.0" encoding="utf-8"?>
<!-- Generator: Adobe Illustrator 16.0.0, SVG Export Plug-In . SVG Version: 6.00 Build 0)  -->
<!DOCTYPE svg PUBLIC "-//W3C//DTD SVG 1.1//EN" "http://www.w3.org/Graphics/SVG/1.1/DTD/svg11.dtd">
<svg version="1.1" id="Layer_1" xmlns="http://www.w3.org/2000/svg" xmlns:xlink="http://www.w3.org/1999/xlink" x="0px" y="0px"
	 width="29.068px" height="29.068px" viewBox="1.466 1.466 29.068 29.068" enable-background="new 1.466 1.466 29.068 29.068"
	 xml:space="preserve">
<path fill="#000000" d="M16,1.466C7.973,1.466,1.466,7.973,1.466,16c0,8.027,6.508,14.534,14.534,14.534
	c8.027,0,14.534-6.507,14.534-14.534C30.534,7.973,24.027,1.466,16,1.466z M27.436,17.39c0.001,0.002,0.004,0.002,0.005,0.004
	c-0.022,0.187-0.054,0.37-0.085,0.554c-0.016-0.012-0.034-0.025-0.047-0.036c-0.104-0.09-0.254-0.128-0.318-0.115
	c-0.157,0.032,0.229,0.306,0.267,0.343c0.01,0.009,0.031,0.029,0.063,0.058c-1.029,5.312-5.709,9.338-11.319,9.338
	c-4.123,0-7.735-2.18-9.775-5.441c0.123-0.016,0.239-0.016,0.279-0.075c0.052-0.077,0.103-0.241,0.179-0.331
	c0.076-0.089,0.165-0.229,0.127-0.292c-0.039-0.064,0.101-0.345,0.088-0.419c-0.014-0.076-0.127-0.257,0.063-0.407
	c0.191-0.151,0.395-0.382,0.407-0.444c0.012-0.063,0.166-0.331,0.152-0.458c-0.013-0.127-0.152-0.279-0.24-0.317
	c-0.09-0.037-0.28-0.051-0.356-0.151c-0.076-0.104-0.292-0.203-0.367-0.178c-0.076,0.024-0.204,0.05-0.306-0.016
	c-0.102-0.062-0.267-0.139-0.33-0.188c-0.064-0.05-0.229-0.088-0.305-0.088c-0.077,0-0.065-0.053-0.178,0.101
	c-0.114,0.153,0,0.204-0.204,0.177c-0.204-0.022,0.024-0.035,0.141-0.188c0.113-0.152-0.013-0.242-0.141-0.203
	c-0.126,0.038-0.038,0.115-0.241,0.153c-0.203,0.035-0.203-0.091-0.076-0.115c0.127-0.025,0.355-0.139,0.355-0.19
	c0-0.051-0.025-0.19-0.127-0.19c-0.103,0-0.077-0.126-0.229-0.291c-0.092-0.102-0.195-0.164-0.299-0.204
	c-0.09-0.579-0.15-1.167-0.15-1.771c0-2.844,1.039-5.445,2.751-7.458c0.024-0.02,0.049-0.033,0.069-0.036
	c0.084-0.009,0.311-0.024,0.51-0.059C8,8.418,8.216,8.291,8.287,8.299c0.069,0.009,0.241,0.009,0.187-0.042
	C8.417,8.2,8.339,8.082,8.223,8.082c-0.116,0-0.009-0.186,0.022-0.186c0.03,0,0.187,0.024,0.178,0.109
	C8.417,8.091,8.471,8.2,8.625,8.167c0.156-0.034,0.132-0.162,0.103-0.194C8.695,7.938,8.672,7.853,8.642,7.794
	c-0.031-0.06-0.023-0.136,0.14-0.152C8.944,7.625,9.168,7.708,9.16,7.573s0-0.28,0.046-0.356C9.253,7.142,9.354,7.09,9.299,7.065
	C9.246,7.04,9.176,7.099,9.121,6.972C9.067,6.844,9.168,6.752,9.229,6.701c0.02-0.015,0.066-0.06,0.124-0.112
	C11.234,5.257,13.524,4.466,16,4.466c3.213,0,6.122,1.323,8.214,3.45c-0.008,0.022-0.01,0.052-0.03,0.057
	c-0.077,0.013-0.166,0.063-0.18-0.052c-0.013-0.113-0.013-0.331-0.102-0.203c-0.089,0.127-0.127,0.127-0.127,0.191
	c0,0.063,0.076,0.127,0.051,0.241C23.8,8.264,23.8,8.341,23.84,8.341c0.036,0,0.126-0.114,0.239-0.141
	c0.116-0.025,0.319-0.088,0.332,0.026s0.139,0.151,0.013,0.203c-0.128,0.051-0.267,0.025-0.293-0.052
	c-0.024-0.077-0.113-0.077-0.202-0.013c-0.089,0.063-0.279,0.292-0.279,0.292s-0.307,0.139-0.343,0.114
	c-0.04-0.025,0.101-0.165,0.202-0.229c0.103-0.063,0.179-0.204,0.141-0.242c-0.038-0.037-0.088-0.278-0.063-0.343
	c0.025-0.063,0.14-0.151,0.014-0.216c-0.127-0.063-0.218-0.14-0.318-0.178s-0.216,0.151-0.305,0.204
	c-0.089,0.051-0.076,0.113-0.191,0.127c-0.114,0.013-0.188,0.165,0,0.254c0.191,0.089,0.255,0.151,0.204,0.204
	c-0.051,0.051-0.267-0.025-0.267-0.025s-0.165-0.076-0.269-0.076c-0.101,0-0.229-0.063-0.33-0.076
	c-0.102-0.013-0.306-0.013-0.354,0.038c-0.052,0.052-0.18,0.203-0.28,0.152s-0.101-0.102-0.241-0.051
	c-0.14,0.051-0.278-0.038-0.354,0.038c-0.077,0.076-0.014,0.076-0.255,0s-0.189,0.051-0.419,0.089
	c-0.23,0.038-0.368-0.038-0.433,0.038c-0.063,0.077-0.153,0.217-0.189,0.127c-0.038-0.088,0.126-0.241,0.062-0.292
	c-0.062-0.051-0.33-0.025-0.367,0.013c-0.039,0.038-0.014,0.178,0.012,0.229c0.025,0.05,0.063,0.254-0.012,0.216
	c-0.077-0.038-0.063-0.166-0.141-0.152c-0.076,0.013-0.165,0.051-0.203,0.077c-0.038,0.025-0.191,0.025-0.229,0.076
	s0.014,0.19-0.052,0.203c-0.063,0.013-0.113,0.063-0.254-0.025c-0.14-0.089-0.14-0.038-0.178-0.012
	c-0.038,0.024-0.216,0.127-0.229,0.012c-0.013-0.114,0.025-0.152-0.089-0.229s-0.025-0.076,0.127-0.025
	c0.152,0.05,0.344,0.075,0.622-0.013c0.28-0.089,0.396-0.127,0.28-0.179c-0.115-0.05-0.229-0.101-0.406-0.127
	c-0.179-0.024-0.42-0.024-0.7-0.127c-0.278-0.102-0.343-0.14-0.457-0.165s-0.813-0.14-1.132-0.089
	c-0.316,0.051-1.192,0.28-1.245,0.318c-0.052,0.038-0.128,0.189-0.292,0.317c-0.165,0.128-0.47,0.42-0.712,0.471
	c-0.24,0.051-0.521,0.254-0.521,0.305s0.101,0.242,0.076,0.28c-0.025,0.038,0.05,0.229,0.19,0.279
	c0.14,0.051,0.381,0.038,0.394-0.038c0.014-0.076,0.204-0.241,0.217-0.127s0.14,0.292,0.114,0.367c-0.025,0.077,0,0.153,0.09,0.141
	c0.088-0.013,0.559-0.114,0.559-0.114s0.153-0.064,0.127-0.166c-0.025-0.101,0.166-0.241,0.203-0.279
	c0.038-0.038,0.178-0.19,0.014-0.24c-0.167-0.052-0.293-0.064-0.114-0.217c0.178-0.151,0.292,0,0.521-0.229
	c0.229-0.229-0.051-0.292,0.191-0.305c0.241-0.014,0.496-0.025,0.443,0.051c-0.05,0.076-0.342,0.242-0.508,0.317
	c-0.166,0.077-0.14,0.217-0.076,0.292c0.063,0.076,0.091,0.254,0.204,0.229c0.113-0.025,0.254-0.114,0.38-0.102
	c0.128,0.013,0.384-0.013,0.42-0.013c0.039,0,0.217,0.178,0.114,0.203c-0.101,0.025-0.229,0.013-0.444,0.025
	S16.14,9.779,16.14,9.817c0,0.039,0.292,0.127,0.189,0.19c-0.102,0.063-0.203-0.013-0.331-0.025
	c-0.127-0.013-0.203,0.166-0.241,0.267c-0.038,0.103,0.063,0.28-0.127,0.216c-0.19-0.063-0.331-0.063-0.381-0.038
	c-0.051,0.025-0.203,0.076-0.331,0.114c-0.126,0.038-0.076-0.063-0.242-0.063c-0.163,0-0.163,0-0.163,0l-0.104,0.013
	c0,0-0.101-0.063-0.114-0.165c-0.013-0.102,0.051-0.216-0.013-0.241s-0.292,0.013-0.33,0.088c-0.038,0.076-0.077,0.217-0.026,0.28
	c0.053,0.063,0.204,0.19,0.064,0.152s-0.317-0.051-0.419,0.025c-0.101,0.076-0.279,0.241-0.279,0.241s-0.317,0.025-0.317,0.103
	c0,0.076,0,0.178-0.114,0.19c-0.115,0.013-0.269,0.05-0.42,0.076c-0.153,0.025-0.14,0.088-0.317,0.102
	c-0.178,0.015-0.204,0.09-0.038,0.114c0.165,0.025,0.418,0.127,0.432,0.241s-0.014,0.242-0.076,0.356
	c-0.043,0.078-0.305,0.025-0.458,0.025c-0.152,0-0.456-0.051-0.584,0c-0.127,0.051-0.103,0.305-0.064,0.419
	c0.039,0.114-0.012,0.178-0.063,0.216s-0.065,0.152,0,0.204c0.063,0.051,0.114,0.165,0.166,0.179
	c0.051,0.013,0.215-0.038,0.278,0.024c0.064,0.064,0.128,0.216,0.165,0.178c0.039-0.037,0.09-0.202,0.153-0.166
	c0.064,0.039,0.216-0.012,0.331-0.024s0.177-0.141,0.292-0.204c0.114-0.063,0.05-0.063,0.013-0.14
	c-0.038-0.076,0.114-0.165,0.204-0.255c0.088-0.089,0.253-0.013,0.292-0.114c0.038-0.103,0.051-0.279,0.151-0.268
	c0.103,0.014,0.243,0.076,0.331,0.076c0.089,0,0.279-0.14,0.332-0.165c0.05-0.024,0.241-0.013,0.267,0.103
	c0.025,0.113,0.241,0.254,0.292,0.278c0.051,0.025,0.381,0.127,0.434,0.165c0.05,0.038,0.126,0.153,0.151,0.254
	c0.025,0.103,0.114,0.103,0.128,0.014c0.013-0.089-0.064-0.254,0.025-0.242c0.088,0.013,0.191-0.026,0.191-0.026
	s-0.243-0.165-0.331-0.203c-0.089-0.038-0.256-0.113-0.331-0.24c-0.076-0.127-0.268-0.153-0.254-0.279
	c0.013-0.127,0.19-0.051,0.292,0.051c0.102,0.103,0.355,0.241,0.444,0.33c0.088,0.089,0.229,0.127,0.268,0.242
	c0.039,0.114,0.151,0.241,0.189,0.292s0.165,0.331,0.204,0.394c0.038,0.063,0.165-0.012,0.229-0.063
	c0.063-0.051,0.179-0.076,0.19-0.178c0.013-0.103-0.153-0.179-0.203-0.217c-0.051-0.038,0.127-0.075,0.191-0.127
	c0.063-0.05,0.177-0.14,0.228-0.063c0.052,0.077,0.026,0.381,0.052,0.432c0.024,0.051,0.278,0.127,0.331,0.191
	c0.05,0.063,0.267,0.089,0.304,0.051c0.039-0.038,0.242,0.026,0.294,0.038c0.049,0.013,0.202-0.025,0.304-0.05
	c0.104-0.025,0.204-0.103,0.191,0.063c-0.014,0.165-0.051,0.419-0.18,0.546c-0.127,0.127-0.075,0.191-0.201,0.191
	c-0.061,0-0.113,0-0.156,0.021c-0.041-0.064-0.099-0.116-0.175-0.097c-0.152,0.038-0.345,0.038-0.471,0.19
	c-0.128,0.152-0.178,0.165-0.204,0.113c-0.024-0.051,0.369-0.267,0.317-0.331c-0.05-0.063-0.354-0.038-0.521-0.038
	s-0.306-0.102-0.434-0.127c-0.126-0.024-0.292,0.127-0.418,0.255c-0.128,0.127-0.216,0.037-0.331,0.037s-0.331-0.165-0.331-0.165
	s-0.216-0.089-0.305-0.089c-0.088,0-0.267-0.165-0.318-0.165c-0.05,0-0.189-0.114-0.088-0.166c0.102-0.05,0.202,0.052,0.102-0.229
	c-0.102-0.279-0.33-0.216-0.419-0.178c-0.089,0.039-0.725,0.024-0.775,0.024s-0.419,0.127-0.533,0.179
	c-0.116,0.051-0.317,0.114-0.369,0.14c-0.051,0.024-0.317-0.051-0.433,0.013c-0.151,0.084-0.291,0.216-0.33,0.216
	c-0.038,0-0.153,0.09-0.229,0.28c-0.077,0.19,0.013,0.355-0.129,0.419c-0.139,0.063-0.394,0.204-0.494,0.305
	c-0.103,0.102-0.229,0.458-0.355,0.623c-0.127,0.165,0,0.317,0.025,0.419c0.024,0.102,0.113,0.292-0.025,0.472
	c-0.14,0.178-0.127,0.266-0.191,0.278c-0.063,0.014,0.063,0.063,0.089,0.19c0.024,0.128-0.114,0.255,0.128,0.369
	c0.24,0.113,0.354,0.217,0.418,0.367c0.063,0.152,0.382,0.406,0.382,0.406s0.229,0.205,0.344,0.294
	c0.114,0.089,0.152,0.037,0.177-0.051c0.025-0.09,0.179-0.104,0.355-0.104c0.178,0,0.305,0.04,0.482,0.014
	c0.179-0.024,0.356-0.141,0.421-0.166c0.063-0.024,0.278-0.164,0.442-0.063c0.166,0.103,0.142,0.24,0.23,0.332
	c0.088,0.088,0.239,0.037,0.354-0.052c0.114-0.09,0.064-0.052,0.203,0.025c0.14,0.075,0.204,0.151,0.077,0.267
	c-0.128,0.113-0.051,0.293-0.128,0.471c-0.076,0.178-0.063,0.203,0.077,0.277c0.14,0.076,0.394,0.549,0.47,0.639
	c0.077,0.088-0.025,0.342,0.064,0.495c0.089,0.15,0.178,0.254,0.076,0.33c-0.103,0.075-0.279,0.217-0.292,0.471
	c-0.012,0.254,0.052,0.431,0.103,0.521s0.177,0.331,0.241,0.419c0.063,0.089,0.14,0.306,0.151,0.445
	c0.014,0.14-0.023,0.306,0.039,0.381c0.064,0.076,0.103,0.191,0.216,0.292c0.115,0.104,0.152,0.318,0.152,0.318
	s0.039,0.089,0.051,0.229c0.013,0.141,0.025,0.229,0.152,0.292c0.126,0.063,0.215,0.076,0.28,0.014
	c0.063-0.063,0.381-0.077,0.546-0.063c0.165,0.013,0.354-0.075,0.521-0.189c0.166-0.115,0.407-0.42,0.496-0.509
	c0.089-0.09,0.292-0.255,0.269-0.355c-0.025-0.102-0.077-0.203,0.023-0.254c0.103-0.053,0.344-0.152,0.356-0.229
	s-0.09-0.395-0.115-0.457c-0.024-0.063,0.063-0.18,0.165-0.306c0.103-0.128,0.421-0.216,0.471-0.268
	c0.051-0.053,0.191-0.267,0.217-0.433c0.024-0.167-0.051-0.369,0-0.457c0.051-0.09,0.014-0.165-0.103-0.268
	c-0.114-0.103-0.089-0.407-0.127-0.457c-0.037-0.051-0.013-0.319,0.063-0.346c0.076-0.022,0.242-0.278,0.345-0.393
	c0.102-0.114,0.394-0.47,0.533-0.496c0.14-0.024,0.355-0.229,0.368-0.343c0.014-0.115,0.38-0.547,0.395-0.635
	c0.013-0.091,0.166-0.42,0.102-0.497c-0.062-0.076-0.559,0.114-0.622,0.141c-0.063,0.025-0.241,0.127-0.445,0.113
	c-0.202-0.014-0.114-0.177-0.128-0.254c-0.012-0.076-0.228-0.368-0.278-0.381s-0.203-0.166-0.268-0.317
	c-0.063-0.153-0.151-0.343-0.254-0.458c-0.102-0.114-0.165-0.38-0.268-0.559c-0.102-0.179-0.189-0.407-0.279-0.572
	c-0.021-0.041-0.045-0.079-0.066-0.117c0.117-0.029,0.288-0.082,0.31-0.009c0.024,0.088,0.165,0.278,0.19,0.419
	c0.024,0.14,0.165,0.089,0.178,0.216c0.014,0.128,0.14,0.433,0.189,0.47c0.053,0.038,0.28,0.242,0.318,0.318
	s0.089,0.178,0.127,0.369c0.038,0.189,0.076,0.443,0.179,0.481s0.444-0.063,0.509-0.102c0.063-0.038,0.481-0.242,0.635-0.255
	c0.152-0.012,0.179-0.115,0.368-0.152c0.19-0.038,0.331-0.177,0.458-0.28c0.127-0.101,0.279-0.354,0.33-0.443
	c0.052-0.088,0.179-0.152,0.114-0.253c-0.063-0.104-0.331-0.254-0.433-0.269c-0.103-0.012-0.089-0.178-0.152-0.178
	c-0.063,0-0.051,0.088-0.178,0.153c-0.127,0.063-0.255,0.189-0.344,0.165c-0.089-0.025,0.025-0.089-0.113-0.203
	s-0.192-0.141-0.192-0.229c0-0.089-0.277-0.255-0.304-0.382s0.19-0.305,0.254-0.189c0.063,0.113,0.115,0.292,0.279,0.367
	c0.165,0.076,0.318,0.204,0.395,0.229c0.076,0.024,0.268-0.14,0.33-0.114c0.063,0.024,0.191,0.253,0.307,0.292
	c0.112,0.038,0.495,0.051,0.559,0.051c0.064,0,0.33,0.014,0.381-0.063s0.089-0.076,0.153-0.076c0.062,0,0.177,0.229,0.267,0.254
	c0.089,0.025,0.254,0.013,0.241,0.179c-0.012,0.164,0.076,0.306,0.165,0.317c0.09,0.012,0.293-0.191,0.293-0.191
	s0,0.318-0.012,0.434c-0.015,0.113,0.139,0.534,0.139,0.534s0.19,0.393,0.241,0.481s0.267,0.355,0.267,0.471
	c0,0.114,0.025,0.293,0.104,0.293c0.076,0,0.151-0.203,0.24-0.331c0.091-0.126,0.115-0.306,0.152-0.433
	c0.038-0.127,0.038-0.355,0.038-0.443c0-0.091,0.075-0.166,0.255-0.242c0.179-0.076,0.305-0.292,0.456-0.407
	c0.153-0.115,0.142-0.305,0.446-0.305s0.278,0,0.354-0.077c0.076-0.076,0.151-0.127,0.19,0.013c0.038,0.141,0.254,0.343,0.292,0.395
	s0.114,0.19,0.103,0.344c-0.013,0.152,0.013,0.33,0.075,0.33c0.063,0,0.191-0.216,0.191-0.216s0.279-0.189,0.267,0.013
	c-0.014,0.203,0.025,0.419,0.025,0.545c0,0.053,0.042,0.135,0.088,0.21c-0.005,0.059-0.004,0.119-0.009,0.178
	C27.388,17.153,27.387,17.327,27.436,17.39z M20.382,12.064c0.076,0.05,0.103,0.127,0.152,0.203c0.052,0.075,0.14,0.05,0.203,0.113
	c0.063,0.064-0.178,0.141-0.075,0.217c0.102,0.076,0.151,0.381,0.165,0.458c0.013,0.075-0.279,0.113-0.369,0.102
	c-0.089-0.013-0.354-0.102-0.444-0.127c-0.09-0.026-0.14-0.343-0.025-0.331c0.116,0.013,0.141-0.025,0.267-0.139
	c0.128-0.115-0.188-0.166-0.277-0.191s-0.269-0.305-0.331-0.394c-0.063-0.09-0.015-0.229,0.141-0.331
	c0.076-0.052,0.279,0.063,0.381,0c0.102-0.063,0.203-0.141,0.241-0.165c0.039-0.025,0.293,0.038,0.33,0.113
	c0.039,0.076,0.191,0.191,0.141,0.229c-0.052,0.038-0.28,0.076-0.355,0c-0.075-0.077-0.255,0.012-0.269,0.152
	S20.307,12.013,20.382,12.064z M16.875,12.28c-0.077-0.025,0.025-0.178,0.103-0.229c0.074-0.051,0.164-0.178,0.24-0.305
	s0.179-0.14,0.241-0.127c0.063,0.013,0.203,0.241,0.241,0.318c0.038,0.076,0.165-0.026,0.217-0.052
	c0.05-0.024,0.127-0.102,0.141-0.164c0.013-0.063,0.127-0.103,0.254-0.103s0.013,0.103-0.076,0.127
	c-0.09,0.025-0.038,0.077,0.113,0.127c0.152,0.051,0.293,0.191,0.459,0.279c0.165,0.089,0.189,0.267,0.088,0.292
	c-0.102,0.024-0.406,0.051-0.521,0.038c-0.114-0.014-0.254-0.127-0.419-0.153c-0.165-0.024-0.369-0.013-0.433,0.077
	c-0.064,0.09-0.292,0.05-0.396,0.05c-0.102,0-0.228,0.127-0.253,0.077C16.875,12.534,16.951,12.306,16.875,12.28z M17.307,9.458
	c0.063-0.178,0.419,0.038,0.354,0.127C17.599,9.675,17.264,9.579,17.307,9.458z M17.802,18.584c0.063,0.103-0.14,0.432-0.254,0.407
	c-0.112-0.027-0.075-0.318-0.038-0.382C17.548,18.545,17.769,18.529,17.802,18.584z M13.189,12.674
	c0.024-0.051-0.039-0.152-0.127-0.013C13.032,12.71,13.164,12.725,13.189,12.674z M20.813,8.035
	c0.141,0.076,0.339,0.107,0.433,0.013c0.076-0.075,0.013-0.204-0.05-0.216c-0.064-0.013-0.104-0.115,0.062-0.203
	c0.165-0.089,0.344-0.204,0.534-0.229c0.19-0.025,0.622-0.038,0.774,0c0.151,0.039,0.382-0.166,0.445-0.254
	c0.063-0.088-0.203-0.152-0.279-0.052c-0.077,0.104-0.444,0.076-0.521,0.052c-0.076-0.025-0.686,0.102-0.812,0.102
	c-0.128,0-0.179,0.152-0.356,0.229c-0.179,0.075-0.42,0.19-0.509,0.229c-0.088,0.038-0.177,0.19-0.101,0.216
	C20.509,7.947,20.674,7.959,20.813,8.035z M14.142,12.674c0.063-0.089-0.052-0.217-0.114-0.217c-0.12,0-0.178,0.191-0.104,0.254
	C14.002,12.776,14.078,12.763,14.142,12.674z M14.714,13.017c0.064,0.024,0.114,0.102,0.165,0.113c0.053,0.014,0.218,0,0.167-0.127
	c-0.05-0.127-0.167-0.127-0.204-0.127s-0.202-0.038-0.267,0C14.528,12.905,14.65,12.992,14.714,13.017z M11.308,10.958
	c0.101,0.014,0.217-0.063,0.305-0.101s0.216-0.114,0.216-0.229c0-0.113-0.024-0.216-0.077-0.267
	c-0.051-0.051-0.14-0.064-0.216-0.051c-0.115,0.02-0.127,0.14-0.203,0.14s-0.165,0.025-0.14,0.114c0.024,0.089,0.077,0.151,0,0.189
	C11.117,10.793,11.205,10.946,11.308,10.958z M11.931,10.412c0.127,0.051,0.394,0.103,0.292,0.153
	c-0.103,0.051-0.28,0.189-0.306,0.267c-0.024,0.077,0.216,0.153,0.216,0.153s-0.076,0.089-0.013,0.114
	c0.063,0.024,0.103-0.09,0.203-0.09s0.304,0.063,0.406,0.063s0.267-0.14,0.254-0.229c-0.013-0.089-0.141-0.229-0.254-0.279
	s-0.241-0.28-0.317-0.331s0.076-0.178-0.013-0.268c-0.09-0.089-0.153-0.075-0.255-0.14c-0.103-0.063-0.191,0.013-0.254,0.089
	c-0.063,0.076-0.141-0.013-0.218,0.012c-0.102,0.035-0.063,0.166-0.012,0.229C11.714,10.221,11.804,10.361,11.931,10.412z
	 M24.729,17.198c-0.083,0.037-0.153,0.47,0,0.521c0.151,0.053,0.241-0.201,0.19-0.267C24.868,17.39,24.843,17.147,24.729,17.198z
	 M20.114,20.464c-0.159-0.045-0.177,0.166-0.304,0.307c-0.128,0.141-0.268,0.254-0.317,0.24c-0.052-0.013-0.331,0.09-0.242,0.279
	c0.089,0.191,0.076,0.382-0.013,0.473c-0.089,0.088,0.076,0.342,0.052,0.481c-0.025,0.139,0.037,0.229,0.215,0.229
	c0.179,0,0.242-0.064,0.318-0.229c0.076-0.166,0.088-0.331,0.164-0.47c0.077-0.142,0.141-0.435,0.179-0.51s0.114-0.316,0.103-0.457
	C20.254,20.669,20.204,20.489,20.114,20.464z M10.391,8.802c-0.069-0.06-0.229-0.102-0.307-0.109c-0.076-0.008-0.151,0.06-0.32,0.06
	c-0.168,0-0.279,0.067-0.348,0C9.349,8.684,9.068,8.65,9.042,8.692C9.008,8.749,8.941,8.751,9.008,8.87
	c0.069,0.118,0.12,0.187,0.18,0.178C9.246,9.04,9.449,9.031,9.475,9.099C9.5,9.167,9.569,9.226,9.712,9.184
	c0.146-0.042,0.264-0.068,0.296-0.119c0.033-0.051,0.264-0.06,0.264-0.06S10.458,8.861,10.391,8.802z"/>
</svg>
