<?xml version="1.0" encoding="utf-8"?>
<!-- Generator: Adobe Illustrator 16.0.0, SVG Export Plug-In . SVG Version: 6.00 Build 0)  -->
<!DOCTYPE svg PUBLIC "-//W3C//DTD SVG 1.1//EN" "http://www.w3.org/Graphics/SVG/1.1/DTD/svg11.dtd">
<svg version="1.1" id="Layer_1" xmlns="http://www.w3.org/2000/svg" xmlns:xlink="http://www.w3.org/1999/xlink" x="0px" y="0px"
	 width="100px" height="100px" viewBox="0 0 100 100" enable-background="new 0 0 100 100" xml:space="preserve">
<path fill="#010101" d="M61.447,84.395c-1.293,4.275-4.563,5.26-5.096,10.189c1.084,1.996,1.293,3.241,3.502,4.141h3.186
	c1.922-0.688,2.669-1.759,3.503-3.502C66.471,90.954,59.58,81.424,61.447,84.395z M58.898,94.902
	c-0.211-0.105-0.424-0.213-0.637-0.318c-0.26-1.443-0.184-1.998,0.318-3.184h0.955c0.213,0.955,0.425,1.91,0.638,2.865
	C59.749,94.479,59.324,94.689,58.898,94.902z M64.313,86.305v0.318c1.051,0.658,1.278,0.916,3.186,0.955
	c0.213-0.424,0.425-0.85,0.639-1.273c0.641-1.767-0.881-3.361-1.912-4.457C65.266,83.43,64.441,83.746,64.313,86.305z M64.95,84.713
	c0.647,0.622,0.346,0.111,0.637,1.273C65.374,85.563,65.162,85.137,64.95,84.713z M54.123,44.589
	c-1.883,1.359-4.097,2.576-5.096,4.776c-2.733,6.021,0.884,17.152,9.235,14.648C67.145,61.352,66.173,43.992,54.123,44.589z
	 M43.614,50.321c-1.571-1.096-2.454-1.673-5.413-1.592c-3.021,1.859-8.22,9.542-2.23,12.419c1.154,1.074,3.312,1.25,4.777,0.317
	C44.941,59.625,45.36,54.643,43.614,50.321z M79.279,41.086c-0.336-6.962-5.045-8.986-9.234-12.101
	c-0.318-0.106-0.637-0.212-0.955-0.318c2.166,3.232,4.997,6.363-2.229,9.554c-3.092,0.028-4.18-0.806-5.414-2.548
	c-0.368-1.797-1.133-4.592-0.317-6.688c1.589-4.083,6.538-5.479,8.279-9.872C74.373,6.59,64.327,1.091,53.168,1.281
	c-2.877,1.432-8.068,3.653-6.051,8.598c0.489-0.034,1.638-2.739,4.14-3.185c1.401-0.511,2.943,0.334,4.14,0.955
	c1.256,3.156,2.326,9.941-2.865,10.509c-0.982-0.778-1.266-1.024-1.592-2.547c-0.539-1.859,0.945-2.552,2.229-3.503
	c-2.783-1.046-7.046,1.076-7.962,3.185c-1.776,4.755,1.851,2.417,2.548,8.917c-6.119,6.707-16.232,9.122-21.654,16.559
	c-12.954,17.769-0.526,38.979,16.241,43.945c15.604,4.621,34.138-8.042,34.392-21.019c0.123-6.247-5.645-9.56-5.094-14.966
	C72.035,44.809,77.501,44.097,79.279,41.086z M54.76,72.611c-1.168,2.548-2.336,5.096-3.503,7.643h-6.368
	c-0.426-2.547-0.85-5.095-1.274-7.643h-0.318c-0.849,2.44-1.698,4.884-2.548,7.324c-2.335-1.063-4.67-2.123-7.006-3.186
	c0.737-8.807-3.195-8.032-5.095-14.967c-6.25-22.812,23.542-26.854,17.833-24.519c10.087-0.247,18.182,3.806,21.017,10.827
	C72.277,59.928,65.545,72.361,54.76,72.611z M42.021,67.518c1.168,0.104,2.336,0.211,3.503,0.317
	c0.213-0.106,0.425-0.213,0.638-0.317c-0.531-1.699-1.062-3.396-1.593-5.096C43.721,64.12,42.871,65.818,42.021,67.518z"/>
</svg>
