<svg xmlns="http://www.w3.org/2000/svg" xmlns:se="http://svg-edit.googlecode.com" xmlns:xlink="http://www.w3.org/1999/xlink" id="svgcontent" width="205.65" height="395.85" x="0" y="0" viewBox="0 0 205.65 395.85" overflow="hidden"><g mask="" style="pointer-events:all"><title style="pointer-events:inherit">Layer 1</title><g id="svg_6" type="text" text="LOVE" font-size="33.39008681797401" font-family="Pokemon" fill="ff00ff" text-anchor="start" font-weight="normal" font-style="normal" lineHeight="1" shapeId="0" shapeVal="0" fill-opacity="1" display="null" elemBBoxWidth="78.46671295166016" stroke-dasharray="none" stroke-opacity="1" stroke="ull" style="pointer-events:inherit"><path id="svg_13" fill="#ff00ff" stroke-width="0" d="M82.02282,90.8995C82.02282,90.8995 96.21361,91.456 96.21361,91.456C96.21361,91.456 96.12086,96.37176 96.12086,96.37176C96.12086,96.37176 76.36506,95.53701 76.36506,95.53701C76.36506,95.53701 75.06655,75.96671 75.06655,75.96671C75.06655,75.96671 73.1188,76.33771 73.1188,76.33771C73.1188,76.33771 73.76805,73.5552 73.76805,73.5552C73.76805,73.5552 80.63157,71.1437 80.63157,71.1437C80.63157,71.1437 82.02282,90.8995 82.02282,90.8995M98.81062,74.20445C104.46838,71.97845 112.16665,75.41021 112.16665,80.88247C112.16665,87.83874 103.81913,93.03275 98.16136,93.03275C90.09209,93.03275 86.19658,83.66498 91.85435,78.74922C94.1731,76.61596 96.49186,75.13196 98.81062,74.20445C98.81062,74.20445 98.81062,74.20445 98.81062,74.20445M103.26263,83.20123C105.58138,83.29398 107.06539,80.78972 106.32339,78.37822C106.04513,79.67672 104.93213,81.34622 103.44813,81.25347C102.52063,81.25347 102.05687,80.69697 102.05687,79.67672C102.05687,78.65647 102.70613,77.82171 104.09738,77.17246C101.68587,77.07971 100.29462,78.47097 100.10912,80.60422C99.92362,82.36648 101.87137,83.10848 103.26263,83.20123C103.26263,83.20123 103.26263,83.20123 103.26263,83.20123M111.23915,75.22471C111.23915,75.22471 108.92039,74.76096 108.92039,74.76096C108.92039,74.76096 108.73489,71.8857 108.73489,71.8857C108.73489,71.8857 116.98966,72.34945 116.98966,72.34945C116.98966,72.34945 122.09093,85.70548 122.09093,85.70548C122.09093,85.70548 125.70819,73.1842 125.70819,73.1842C125.70819,73.1842 133.59196,73.5552 133.59196,73.5552C133.59196,73.5552 125.42994,94.42401 125.42994,94.42401C125.42994,94.42401 119.30842,94.33126 119.30842,94.33126C119.30842,94.33126 111.23915,75.22471 111.23915,75.22471M137.39472,90.8995C137.39472,90.8995 151.5855,91.456 151.5855,91.456C151.5855,91.456 151.49275,96.37176 151.49275,96.37176C151.49275,96.37176 131.73695,95.53701 131.73695,95.53701C131.73695,95.53701 130.62395,78.47097 130.62395,78.47097C130.62395,78.47097 128.67619,78.74922 128.67619,78.74922C128.67619,78.74922 129.04719,73.46245 129.04719,73.46245C129.04719,73.46245 145.46399,71.42195 145.46399,71.42195C145.46399,71.42195 145.83499,76.33771 145.83499,76.33771C145.83499,76.33771 136.46721,77.54346 136.46721,77.54346C136.46721,77.54346 136.65271,81.06797 136.65271,81.06797C136.65271,81.06797 145.92774,79.76947 145.92774,79.76947C145.92774,79.76947 146.20599,83.85048 146.20599,83.85048C146.20599,83.85048 136.93097,85.33448 136.93097,85.33448C136.93097,85.33448 137.39472,90.8995 137.39472,90.8995" stroke="#ull" style="pointer-events:inherit"/><rect id="svg_14" x="73.1187973022461" y="71.14369583129883" width="78.46670374691712" height="25.228064318115685" fill="#ff00ff" opacity="0" stroke="null" style="pointer-events:inherit"/></g><g type="text" text="MEANS" font-size="45.51129475102903" font-family="Pokemon" fill="7fff00" text-anchor="start" font-weight="normal" font-style="normal" lineHeight="1" shapeId="0" shapeVal="0" fill-opacity="1" display="null" elemBBoxWidth="112.64046478271484" stroke-dasharray="none" stroke-opacity="1" id="svg_15" stroke="ull" style="pointer-events:inherit"><path id="svg_20" fill="#7fff00" stroke-width="0" d="M74.64721,108.84397C74.64721,108.84397 83.74947,108.33829 83.74947,108.33829C83.74947,108.33829 86.15145,111.49879 86.15145,111.49879C86.15145,111.49879 88.3006,107.07409 88.3006,107.07409C88.3006,107.07409 94.24235,106.94767 94.24235,106.94767C94.24235,106.94767 101.19546,133.87518 101.19546,133.87518C101.19546,133.87518 90.44974,132.99024 90.44974,132.99024C90.44974,132.99024 88.42702,123.76156 88.42702,123.76156C88.42702,123.76156 86.40429,127.17491 86.40429,127.17491C86.40429,127.17491 83.49663,122.87662 83.49663,122.87662C83.49663,122.87662 82.61168,130.71468 82.61168,130.71468C82.61168,130.71468 72.1188,131.34678 72.1188,131.34678C72.1188,131.34678 74.64721,108.84397 74.64721,108.84397M108.14858,129.70331C108.14858,129.70331 127.49088,130.46184 127.49088,130.46184C127.49088,130.46184 127.36446,137.16211 127.36446,137.16211C127.36446,137.16211 100.43694,136.02433 100.43694,136.02433C100.43694,136.02433 98.9199,112.763 98.9199,112.763C98.9199,112.763 96.26507,113.14226 96.26507,113.14226C96.26507,113.14226 96.77075,105.9363 96.77075,105.9363C96.77075,105.9363 119.14714,103.15506 119.14714,103.15506C119.14714,103.15506 119.65282,109.85533 119.65282,109.85533C119.65282,109.85533 106.88438,111.49879 106.88438,111.49879C106.88438,111.49879 107.13722,116.30277 107.13722,116.30277C107.13722,116.30277 119.77924,114.53288 119.77924,114.53288C119.77924,114.53288 120.1585,120.09537 120.1585,120.09537C120.1585,120.09537 107.51648,122.1181 107.51648,122.1181C107.51648,122.1181 108.14858,129.70331 108.14858,129.70331M130.90423,103.4079C130.90423,103.4079 149.10875,139.81694 149.10875,139.81694C149.10875,139.81694 141.39711,140.44904 141.39711,140.44904C141.39711,140.44904 132.80053,123.63514 132.80053,123.63514C132.80053,123.63514 127.87014,123.00304 127.87014,123.00304C127.87014,123.00304 120.41135,136.40359 120.41135,136.40359C120.41135,136.40359 110.8034,136.78285 110.8034,136.78285C110.8034,136.78285 130.90423,103.4079 130.90423,103.4079M128.2494,119.33685C128.2494,119.33685 132.54769,119.84253 132.54769,119.84253C132.54769,119.84253 130.77781,113.90078 130.77781,113.90078C130.77781,113.90078 128.2494,119.33685 128.2494,119.33685M147.71812,102.7758C147.71812,102.7758 152.52209,112.88942 152.52209,112.88942C152.52209,112.88942 151.51073,103.66074 151.51073,103.66074C151.51073,103.66074 163.01498,104.04 163.01498,104.04C163.01498,104.04 163.26782,138.55273 163.26782,138.55273C163.26782,138.55273 156.56754,138.93199 156.56754,138.93199C156.56754,138.93199 149.61443,122.49736 149.61443,122.49736C149.61443,122.49736 149.74085,136.02433 149.74085,136.02433C149.74085,136.02433 140.89143,136.15075 140.89143,136.15075C140.89143,136.15075 139.88007,106.69482 139.88007,106.69482C139.88007,106.69482 136.71956,106.06272 136.71956,106.06272C136.71956,106.06272 136.59314,102.14369 136.59314,102.14369C136.59314,102.14369 147.71812,102.7758 147.71812,102.7758M160.10731,122.87662C163.1414,124.77292 169.08315,126.28997 173.38144,126.66923C174.51922,126.66923 175.40416,126.03713 175.53058,125.40503C175.53058,124.52008 174.13996,123.50872 171.61156,122.37094C165.92264,119.58969 160.36015,116.68203 159.22237,110.36101C159.85447,103.28148 169.46241,103.66074 176.79479,105.17778C178.31183,105.43062 180.84024,106.31556 184.75926,107.32693C184.75926,107.32693 181.59876,114.15362 181.59876,114.15362C179.82887,112.763 172.11724,110.86669 168.45105,110.36101C165.29054,110.61385 166.04906,112.88942 168.57747,114.28004C174.01354,117.31413 182.35728,119.21043 182.35728,126.66923C182.35728,131.4732 178.43825,132.7374 173.25502,132.99024C169.58883,133.11666 161.75077,131.09394 156.9468,129.82973C157.19965,129.82973 159.72805,123.3823 160.10731,122.87662C160.10731,122.87662 160.10731,122.87662 160.10731,122.87662" stroke="#ull" style="pointer-events:inherit"/><rect id="svg_21" x="72.11880493164062" y="102.14369201660156" width="112.64045329708097" height="38.305345394050164" fill="#7fff00" opacity="0" stroke="null" style="pointer-events:inherit"/></g><g type="text" text="NOTHING" font-size="43.30354057540903" font-family="Pokemon" fill="ff00ff" text-anchor="start" font-weight="normal" font-style="normal" lineHeight="1" shapeId="0" shapeVal="0" fill-opacity="1" display="null" elemBBoxWidth="152.88555908203125" stroke-dasharray="none" stroke-opacity="1" id="svg_22" stroke="ull" style="pointer-events:inherit"><path id="svg_25" fill="#ff00ff" stroke-width="0" d="M44.70413,141.74513C44.70413,141.74513 49.27506,151.36814 49.27506,151.36814C49.27506,151.36814 48.31276,142.58715 48.31276,142.58715C48.31276,142.58715 59.25893,142.94801 59.25893,142.94801C59.25893,142.94801 59.4995,175.78653 59.4995,175.78653C59.4995,175.78653 53.12426,176.14739 53.12426,176.14739C53.12426,176.14739 46.50844,160.51 46.50844,160.51C46.50844,160.51 46.62873,173.38077 46.62873,173.38077C46.62873,173.38077 38.2086,173.50106 38.2086,173.50106C38.2086,173.50106 37.2463,145.47405 37.2463,145.47405C37.2463,145.47405 34.23911,144.87261 34.23911,144.87261C34.23911,144.87261 34.11882,141.14369 34.11882,141.14369C34.11882,141.14369 44.70413,141.74513 44.70413,141.74513M68.2805,145.71462C75.61804,142.82772 85.60192,147.27836 85.60192,154.37533C85.60192,163.3969 74.77603,170.13301 67.43849,170.13301C56.97346,170.13301 51.92139,157.98396 59.25893,151.60872C62.26612,148.8421 65.27331,146.9175 68.2805,145.71462C68.2805,145.71462 68.2805,145.71462 68.2805,145.71462M74.05431,157.38252C77.0615,157.50281 78.9861,154.25504 78.0238,151.12757C77.66293,152.81159 76.21948,154.97677 74.29488,154.85648C73.092,154.85648 72.49057,154.13476 72.49057,152.81159C72.49057,151.48843 73.33258,150.40584 75.13689,149.56383C72.00942,149.44354 70.2051,151.24785 69.96453,154.01447C69.72395,156.29993 72.24999,157.26223 74.05431,157.38252C74.05431,157.38252 74.05431,157.38252 74.05431,157.38252M100.15672,149.92469C100.15672,149.92469 101.11902,169.65186 101.11902,169.65186C98.3524,169.53157 94.86406,169.65186 92.5786,169.05042C92.5786,169.05042 91.37572,150.16527 91.37572,150.16527C91.37572,150.16527 80.42955,150.40584 80.42955,150.40584C80.42955,150.40584 80.67012,144.63204 80.67012,144.63204C80.67012,144.63204 108.69714,143.0683 108.69714,143.0683C108.69714,143.0683 109.058,149.44354 109.058,149.44354C109.058,149.44354 100.15672,149.92469 100.15672,149.92469M112.54634,141.98571C112.54634,141.98571 113.02749,152.21015 113.02749,152.21015C113.02749,152.21015 115.43324,152.21015 115.43324,152.21015C115.43324,152.21015 114.71152,142.58715 114.71152,142.58715C114.71152,142.58715 124.09395,143.18858 124.09395,143.18858C124.09395,143.18858 125.89827,175.78653 125.89827,175.78653C125.89827,175.78653 118.8013,175.66624 118.8013,175.66624C118.8013,175.66624 115.9144,158.46511 115.9144,158.46511C115.9144,158.46511 113.14778,157.86367 113.14778,157.86367C113.14778,157.86367 113.02749,173.38077 113.02749,173.38077C113.02749,173.38077 104.60736,173.50106 104.60736,173.50106C104.60736,173.50106 103.64506,145.47405 103.64506,145.47405C103.64506,145.47405 100.63787,144.87261 100.63787,144.87261C100.63787,144.87261 100.51758,141.14369 100.51758,141.14369C100.51758,141.14369 112.54634,141.98571 112.54634,141.98571M134.91984,162.55489C134.91984,162.55489 143.82112,162.67518 143.82112,162.67518C143.82112,162.67518 143.70083,169.05042 143.70083,169.05042C143.70083,169.05042 122.53021,169.05042 122.53021,169.05042C122.53021,169.05042 123.37223,163.3969 123.37223,163.3969C123.37223,163.3969 128.30402,163.27662 128.30402,163.27662C128.30402,163.27662 129.02575,150.52613 129.02575,150.52613C129.02575,150.52613 121.32734,151.60872 121.32734,151.60872C121.32734,151.60872 121.80849,144.75232 121.80849,144.75232C121.80849,144.75232 143.0994,142.106 143.0994,142.106C143.0994,142.106 143.58055,148.48124 143.58055,148.48124C143.58055,148.48124 136.12271,149.68412 136.12271,149.68412C136.12271,149.68412 134.91984,162.55489 134.91984,162.55489M150.55723,141.74513C150.55723,141.74513 155.12816,151.36814 155.12816,151.36814C155.12816,151.36814 154.16586,142.58715 154.16586,142.58715C154.16586,142.58715 165.11203,142.94801 165.11203,142.94801C165.11203,142.94801 165.3526,175.78653 165.3526,175.78653C165.3526,175.78653 158.97736,176.14739 158.97736,176.14739C158.97736,176.14739 152.36154,160.51 152.36154,160.51C152.36154,160.51 152.48183,173.38077 152.48183,173.38077C152.48183,173.38077 144.0617,173.50106 144.0617,173.50106C144.0617,173.50106 143.0994,145.47405 143.0994,145.47405C143.0994,145.47405 140.09221,144.87261 140.09221,144.87261C140.09221,144.87261 139.97192,141.14369 139.97192,141.14369C139.97192,141.14369 150.55723,141.74513 150.55723,141.74513M173.89302,153.41303C169.68296,153.41303 169.80325,160.99115 174.25389,160.75058C174.25389,160.75058 176.0582,160.38971 176.0582,160.38971C176.0582,160.38971 174.73504,159.90856 174.73504,159.90856C174.73504,159.90856 176.77993,156.05936 176.77993,156.05936C176.77993,156.05936 186.7638,159.18684 186.7638,159.18684C186.7638,159.18684 184.35805,175.42566 184.35805,175.42566C184.35805,175.42566 175.45676,174.82423 175.45676,174.82423C175.45676,174.82423 177.9828,168.44898 177.9828,168.44898C168.96123,170.37358 161.38311,166.52438 161.38311,156.17965C161.38311,145.9552 171.96842,142.46686 181.35086,146.07549C184.59862,147.27836 186.40294,148.72181 187.00437,150.7667C187.00437,150.7667 179.18568,155.09706 179.18568,155.09706C178.70453,154.01447 176.90022,153.41303 173.89302,153.41303C173.89302,153.41303 173.89302,153.41303 173.89302,153.41303" stroke="#ull" style="pointer-events:inherit"/><rect id="svg_26" x="34.118821323006124" y="141.14407790395012" width="152.88555956020002" height="35.00369297038492" fill="#ff00ff" opacity="0" stroke="null" style="pointer-events:inherit"/></g><g id="svg_30" display="null" clip-id="414" transform=""><path fill="#7fff00" d="M23.30263,51.23243C24.21186,54.05633 24.37151,56.58034 23.72095,57.16711L23.61205,56.78791C23.57082,56.80729 23.52923,56.8228 23.48448,56.83584C24.06843,56.45558 23.85768,54.06268 22.98017,51.33463C22.06777,48.49451 20.78145,46.36945 20.10516,46.58618C19.42852,46.80327 19.62024,49.28287 20.53264,52.12228C21.39747,54.80909 22.59709,56.86121 23.29593,56.88658C23.248,56.89575 23.20008,56.90209 23.15215,56.90843L23.26386,57.28199C22.38952,57.09063 21.09404,54.98143 20.21018,52.22448C19.22412,49.16128 19.11875,46.45544 19.97406,46.1809C20.82973,45.90708 22.32009,48.16606 23.30263,51.23243zM69.90501,63.24628C69.90501,63.24628 70.39416,63.31288 70.39416,63.42812C70.39416,63.42812 70.53125,63.75657 69.9406,63.82353C69.9406,63.82353 69.31542,63.79182 69.21005,64.05014L69.05393,64.50616C69.05393,64.50616 69.5748,64.42616 69.65691,64.60836C69.65691,64.60836 69.83946,64.9051 69.32564,65.05241C69.32564,65.05241 68.75825,65.16694 68.48654,65.61063C68.48654,65.61063 67.7077,66.99245 66.8175,67.35615C66.8175,67.35615 64.06055,69.29267 62.92119,70.22763C62.92119,70.22763 61.2814,71.77861 60.4356,72.39111C60.4356,72.39111 59.68602,73.32571 58.09063,73.71231C58.09063,73.71231 57.31496,75.65236 57.08836,75.90117C57.08836,75.90117 57.2473,76.47208 56.83638,76.60952C56.83638,76.60952 55.94865,76.99577 55.69738,76.99577C55.69738,76.99577 54.89951,77.48034 54.62885,77.5829C54.62885,77.5829 54.06358,78.09636 53.94235,78.31662C53.94235,78.31662 53.4324,78.81106 53.17302,79.27379C53.17302,79.27379 52.91787,79.47783 53.08703,80.84697C53.08703,80.84697 53.39716,86.07682 52.71418,87.95625C52.71418,87.95625 53.29425,92.0566 53.15752,94.41497L52.95347,96.67043C52.95347,96.67043 53.32703,96.84241 53.60121,97.59587C53.60121,97.59587 54.18481,98.22423 54.54251,98.5118C54.54251,98.5118 55.30478,99.19478 55.34954,100.09097C55.34954,100.09097 56.19851,102.21005 56.3356,102.56705C56.3356,102.56705 56.4734,103.02977 57.08871,103.37091C57.08871,103.37091 58.83141,104.70445 59.51404,107.40395C59.51404,107.40395 59.85553,107.94984 60.09447,108.29098C60.09447,108.29098 61.42801,108.97749 61.76985,109.38558C61.76985,109.38558 64.77913,110.68423 65.42687,111.91557C65.42687,111.91557 66.93274,113.31713 66.65821,114.54847C66.65821,114.54847 66.00729,116.49486 63.10374,115.23145C63.10374,115.23145 61.01956,114.10196 60.50679,113.41898C60.50679,113.41898 59.82381,112.59856 58.31723,112.46147C58.31723,112.46147 54.8329,111.7436 55.20963,109.93429C55.20963,109.93429 55.17369,108.87141 55.79006,108.60075C56.40573,108.32622 55.82213,108.46331 55.82213,108.46331S53.80526,107.09418 53.22448,106.4112C53.22448,106.4112 51.68724,105.62637 51.2076,105.21439L49.15901,104.39467L48.57858,104.94374L47.62107,103.6768C47.62107,103.6768 46.83307,103.26835 46.45598,103.16651C46.45598,103.16651 45.39662,102.99453 45.15698,103.16651L44.474,103.64473L43.24195,107.54104L42.73201,107.47056C42.73201,107.47056 40.91953,110.03614 40.81698,110.54679C40.81698,110.54679 40.50791,112.90445 39.92713,114.17139C39.92713,114.17139 39.31146,114.71693 39.10706,116.59636C39.10706,116.59636 38.62848,121.52031 37.9455,122.71641L37.05847,125.45115C37.05847,125.45115 36.78429,126.95456 36.85125,128.15066C36.85125,128.15066 37.5374,129.68825 36.78429,132.18405C36.78429,132.18405 36.64685,133.10562 36.64685,133.54966C36.64685,133.54966 36.98834,135.53412 35.31295,135.53412C35.31295,135.53412 33.36691,135.94292 33.02507,134.30278C33.02507,134.30278 32.99018,132.83109 32.68041,132.0815C32.68041,132.0815 32.27196,130.30427 33.12762,128.73144C33.12762,128.73144 33.43387,128.28739 33.67316,127.97762L33.67316,125.38032L33.81025,125.07442C33.74964,122.93032 33.77219,120.76614 33.98611,118.63191C34.19016,116.61504 35.06098,114.80891 35.67383,112.89494C35.76017,112.63697 35.89409,112.32966 35.89409,112.05231C35.89409,112.05231 36.74905,109.14559 36.57989,108.01962L36.10131,104.49652L35.86202,104.39467C35.86202,104.39467 35.99946,102.92651 36.10131,102.27595C36.10131,102.27595 35.65444,101.83226 35.92898,100.29397L35.82677,99.16483C35.82677,99.16483 35.4504,98.89311 35.86202,98.41489C35.86202,98.41489 35.4504,98.0734 35.89409,97.48944C35.89409,97.48944 35.92933,96.77157 36.78429,94.99434C36.78429,94.99434 36.98834,93.11456 36.98834,92.36497C36.98834,92.36497 37.02358,89.39093 37.09054,88.81015C37.09054,88.81015 37.32983,87.75079 37.39996,87.5115C37.39996,87.5115 36.7138,86.04016 36.9531,84.94591C36.9531,84.94591 36.30571,83.81959 36.30571,83.54506C36.30571,83.54506 35.41515,83.20392 34.86961,83.27053C34.86961,83.27053 33.70805,83.85166 33.39863,83.54506C32.57856,83.81959 31.72677,84.0684 30.85208,84.03351C30.13103,84.00814 29.76734,83.81642 29.50232,83.10137C29.50232,83.10137 28.376,80.60627 28.23891,77.15401C28.23891,77.15401 27.86253,74.82771 27.62324,74.11301C27.62324,74.11301 27.317,73.70139 26.66608,73.22281C26.66608,73.22281 25.74381,72.64203 25.7787,71.92416C25.7787,71.92416 25.43756,71.58267 25.67685,71.13933C25.67685,71.13933 25.70857,70.42111 26.08495,70.04437C26.08495,70.04437 25.43756,69.05197 25.60637,68.71083C25.60637,68.71083 25.64161,68.40458 26.15543,68.40458L25.8809,67.34522L25.74381,65.46262L25.73077,65.42456L26.07579,65.31918L26.85427,66.9914L27.22114,67.76671C27.22114,67.76671 27.63628,67.82415 27.7702,68.27419C27.7702,68.27419 28.54234,69.16087 28.56173,69.33355C28.56173,69.33355 29.14568,70.01336 29.20277,70.25864C29.20277,70.25864 29.90161,70.67026 29.99747,73.16572C29.99747,73.16572 29.95906,74.74842 30.46653,76.41076C30.46653,76.41076 31.7525,79.22268 31.7525,79.37176C31.7525,79.37176 32.22474,78.45019 33.0737,78.1087L33.5618,77.8243C33.5618,77.8243 35.97726,76.16548 37.98109,75.76972C37.98109,75.76972 38.281,75.75033 38.41492,75.52373C38.41492,75.52373 39.11376,74.90136 39.4711,74.8633C39.4711,74.8633 39.6022,74.71317 39.62088,74.4834C39.62088,74.4834 39.81224,73.88042 40.56535,73.93786C40.56535,73.93786 40.88817,73.9953 40.9805,73.65381L41.7752,72.37102C41.7752,72.37102 41.944,71.97526 42.11387,72.04891L41.92533,71.27677C41.92533,71.27677 41.49221,71.25739 41.35794,70.38939C41.35794,70.38939 41.07671,69.23734 41.2649,68.97268C41.30014,68.92122 41.17186,68.45251 41.1627,68.38555C41.11125,67.91649 41.10208,67.43791 41.11512,66.96602C41.15248,65.78191 41.40516,64.49312 42.52866,63.87076C43.2712,63.45596 44.28686,63.30901 45.11962,63.22302C48.06828,62.91677 49.41204,65.66103 49.26791,68.25833C49.26791,68.25833 49.86455,68.63189 49.45292,69.8153C49.45292,69.8153 49.45292,70.90991 48.5881,71.14003C48.5881,71.14003 48.23392,71.38849 48.1733,71.72363L48.19868,72.12574C48.19868,72.12574 48.79496,72.21807 50.01714,71.68839C50.01714,71.68839 50.84673,71.27395 52.1489,71.26408C52.1489,71.26408 53.98005,70.61634 55.00488,70.54903C55.00488,70.54903 55.89156,70.20437 56.75674,70.1219L57.54791,69.92702C57.54791,69.92702 58.31054,69.662 58.5752,69.35258C58.5752,69.35258 60.34609,68.35701 61.84914,67.69623L65.38105,65.78155C65.38105,65.78155 66.15637,65.25822 66.4753,64.4385C66.4753,64.4385 67.04304,63.23253 67.38489,63.07289C67.38489,63.07289 68.32302,62.19537 68.88124,62.12841C68.88124,62.12841 69.71083,61.99132 70.09708,62.04842C70.09708,62.04842 70.4509,62.15062 70.47346,62.27502C70.47346,62.27502 70.5087,62.51431 70.15769,62.64188C70.15769,62.64188 70.29196,62.92593 70.13232,63.09509L69.90501,63.24628zM23.72095,57.16711L26.07579,65.32024L25.73077,65.42561L23.26422,57.28235C23.35972,57.30455 23.45241,57.30455 23.5384,57.27565C23.60571,57.2538 23.66632,57.21856 23.72095,57.16711zM23.29629,56.88694C23.36007,56.8739 23.42069,56.85769 23.4813,56.83901C23.45875,56.8517 23.43338,56.86156 23.408,56.87073C23.37276,56.88341 23.3347,56.88694 23.29629,56.88694zM23.61205,56.78791L23.72095,57.16711C23.66632,57.21856 23.60571,57.2538 23.53875,57.27565C23.45241,57.3049 23.36007,57.3049 23.26457,57.28235L23.15285,56.90879C23.20078,56.90244 23.24871,56.8961 23.29664,56.88694C23.3347,56.88694 23.37311,56.88341 23.40835,56.87073C23.43373,56.86156 23.45945,56.8517 23.48166,56.83901L23.48483,56.83584C23.52923,56.8228 23.57082,56.80729 23.61205,56.78791z" id="svg_31"/><path fill="#ff00ff" stroke="#010101" stroke-width="0.2015" d="M23.26457,57.28235C22.39023,57.09099 21.09475,54.98178 20.21089,52.22483C19.22483,49.16163 19.11946,46.45579 19.97477,46.18126C20.83008,45.90708 22.32009,48.16606 23.30298,51.23243C24.21221,54.05633 24.37186,56.58034 23.7213,57.16711C23.66667,57.21856 23.60606,57.2538 23.5391,57.27565C23.45241,57.3049 23.36007,57.3049 23.26457,57.28235zM23.29629,56.88694C22.5978,56.86156 21.39782,54.80909 20.533,52.12263C19.62059,49.28287 19.42888,46.80327 20.10552,46.58653C20.7818,46.36945 22.06777,48.49486 22.98052,51.33498C23.85804,54.06303 24.06878,56.45593 23.48483,56.83619L23.48166,56.83936C23.4591,56.85205 23.43373,56.86192 23.40835,56.87108C23.37276,56.88341 23.3347,56.88694 23.29629,56.88694z" id="svg_32"/></g><g id="svg_41" type="text" text="NEW TENNIS CLUB" font-size="16.88467134012633" font-family="Afta sans" fill="7fff00" text-anchor="start" font-weight="normal" font-style="normal" lineHeight="1" shapeId="0" shapeVal="0" fill-opacity="1" display="null" elemBBoxWidth="149.41249084472656" stroke-opacity="1" stroke="null" style="pointer-events:inherit"><path id="svg_42" fill="#7fff00" stroke-width="0" d="M35.11874,194.96387C35.11874,194.96387 35.11874,182.90821 35.11874,182.90821C35.11874,182.90821 36.72279,182.90821 36.72279,182.90821C36.72279,182.90821 43.426,193.68064 43.426,193.68064C43.426,193.68064 43.426,182.90821 43.426,182.90821C43.426,182.90821 44.54039,182.90821 44.54039,182.90821C44.54039,182.90821 44.54039,194.96387 44.54039,194.96387C44.54039,194.96387 43.27404,194.96387 43.27404,194.96387C43.27404,194.96387 36.19936,183.60049 36.19936,183.60049C36.19936,183.60049 36.19936,194.96387 36.19936,194.96387C36.19936,194.96387 35.11874,194.96387 35.11874,194.96387C35.11874,194.96387 35.11874,194.96387 35.11874,194.96387M47.1744,194.96387C47.1744,194.96387 47.1744,182.90821 47.1744,182.90821C47.1744,182.90821 54.18154,182.90821 54.18154,182.90821C54.18154,182.90821 54.18154,183.61737 54.18154,183.61737C54.18154,183.61737 48.23814,183.61737 48.23814,183.61737C48.23814,183.61737 48.23814,188.46327 48.23814,188.46327C48.23814,188.46327 52.64504,188.46327 52.64504,188.46327C52.64504,188.46327 52.64504,189.18931 52.64504,189.18931C52.64504,189.18931 48.23814,189.18931 48.23814,189.18931C48.23814,189.18931 48.23814,194.23783 48.23814,194.23783C48.23814,194.23783 54.58677,194.23783 54.58677,194.23783C54.58677,194.23783 54.58677,194.96387 54.58677,194.96387C54.58677,194.96387 47.1744,194.96387 47.1744,194.96387C47.1744,194.96387 47.1744,194.96387 47.1744,194.96387M55.48166,182.89133C55.48166,182.89133 56.73113,182.89133 56.73113,182.89133C56.73113,182.89133 60.81722,194.13652 60.81722,194.13652C60.81722,194.13652 63.72138,182.89133 63.72138,182.89133C63.72138,182.89133 65.10593,182.89133 65.10593,182.89133C65.10593,182.89133 67.94255,194.17029 67.94255,194.17029C67.94255,194.17029 71.94422,182.89133 71.94422,182.89133C71.94422,182.89133 73.22746,182.89133 73.22746,182.89133C73.22746,182.89133 68.83744,194.96387 68.83744,194.96387C68.83744,194.96387 67.19963,194.96387 67.19963,194.96387C67.19963,194.96387 64.41366,183.49918 64.41366,183.49918C64.41366,183.49918 61.59392,194.96387 61.59392,194.96387C61.59392,194.96387 59.9561,194.96387 59.9561,194.96387C59.9561,194.96387 55.48166,182.89133 55.48166,182.89133M88.32236,182.87444C88.32236,182.87444 88.32236,183.60049 88.32236,183.60049C88.32236,183.60049 83.81415,183.60049 83.81415,183.60049C83.81415,183.60049 83.81415,194.96387 83.81415,194.96387C83.81415,194.96387 82.68288,194.96387 82.68288,194.96387C82.68288,194.96387 82.68288,183.60049 82.68288,183.60049C82.68288,183.60049 78.03959,183.60049 78.03959,183.60049C78.03959,183.60049 78.03959,182.87444 78.03959,182.87444C78.03959,182.87444 88.32236,182.87444 88.32236,182.87444C88.32236,182.87444 88.32236,182.87444 88.32236,182.87444M89.82509,194.96387C89.82509,194.96387 89.82509,182.90821 89.82509,182.90821C89.82509,182.90821 96.83223,182.90821 96.83223,182.90821C96.83223,182.90821 96.83223,183.61737 96.83223,183.61737C96.83223,183.61737 90.88883,183.61737 90.88883,183.61737C90.88883,183.61737 90.88883,188.46327 90.88883,188.46327C90.88883,188.46327 95.29573,188.46327 95.29573,188.46327C95.29573,188.46327 95.29573,189.18931 95.29573,189.18931C95.29573,189.18931 90.88883,189.18931 90.88883,189.18931C90.88883,189.18931 90.88883,194.23783 90.88883,194.23783C90.88883,194.23783 97.23747,194.23783 97.23747,194.23783C97.23747,194.23783 97.23747,194.96387 97.23747,194.96387C97.23747,194.96387 89.82509,194.96387 89.82509,194.96387C89.82509,194.96387 89.82509,194.96387 89.82509,194.96387M99.36494,194.96387C99.36494,194.96387 99.36494,182.90821 99.36494,182.90821C99.36494,182.90821 100.96898,182.90821 100.96898,182.90821C100.96898,182.90821 107.6722,193.68064 107.6722,193.68064C107.6722,193.68064 107.6722,182.90821 107.6722,182.90821C107.6722,182.90821 108.78658,182.90821 108.78658,182.90821C108.78658,182.90821 108.78658,194.96387 108.78658,194.96387C108.78658,194.96387 107.52023,194.96387 107.52023,194.96387C107.52023,194.96387 100.44555,183.60049 100.44555,183.60049C100.44555,183.60049 100.44555,194.96387 100.44555,194.96387C100.44555,194.96387 99.36494,194.96387 99.36494,194.96387C99.36494,194.96387 99.36494,194.96387 99.36494,194.96387M111.36994,194.96387C111.36994,194.96387 111.36994,182.90821 111.36994,182.90821C111.36994,182.90821 112.97398,182.90821 112.97398,182.90821C112.97398,182.90821 119.6772,193.68064 119.6772,193.68064C119.6772,193.68064 119.6772,182.90821 119.6772,182.90821C119.6772,182.90821 120.79159,182.90821 120.79159,182.90821C120.79159,182.90821 120.79159,194.96387 120.79159,194.96387C120.79159,194.96387 119.52524,194.96387 119.52524,194.96387C119.52524,194.96387 112.45056,183.60049 112.45056,183.60049C112.45056,183.60049 112.45056,194.96387 112.45056,194.96387C112.45056,194.96387 111.36994,194.96387 111.36994,194.96387C111.36994,194.96387 111.36994,194.96387 111.36994,194.96387M123.57756,194.96387C123.57756,194.96387 123.57756,182.89133 123.57756,182.89133C123.57756,182.89133 124.65818,182.89133 124.65818,182.89133C124.65818,182.89133 124.65818,194.96387 124.65818,194.96387C124.65818,194.96387 123.57756,194.96387 123.57756,194.96387C123.57756,194.96387 123.57756,194.96387 123.57756,194.96387M135.17733,183.33033C135.17733,183.33033 135.17733,184.19145 135.17733,184.19145C133.60706,183.46541 132.57709,183.34722 131.34451,183.34722C129.80801,183.34722 128.491,184.19145 128.491,185.6773C128.491,187.09561 129.45343,187.66969 131.12501,188.15935C132.99921,188.69966 135.5488,189.52701 135.5488,192.09348C135.5488,194.74437 132.61086,195.30157 130.98993,195.30157C129.01443,195.30157 127.74808,194.72749 127.15711,194.32225C127.15711,194.32225 127.15711,193.20787 127.15711,193.20787C128.00135,193.8326 129.43654,194.4911 130.98993,194.4911C132.83036,194.4911 134.26556,193.42737 134.26556,192.09348C134.26556,191.31678 134.1136,189.99978 131.19255,189.2062C128.62608,188.49704 127.15711,187.60215 127.15711,185.66042C127.15711,184.09014 128.60919,182.62117 131.3614,182.62117C133.5564,182.62117 134.53572,183.00952 135.17733,183.33033C135.17733,183.33033 135.17733,183.33033 135.17733,183.33033M141.89743,188.9867C141.84678,183.54983 146.70957,181.55744 151.33597,183.17837C151.33597,183.17837 151.33597,184.20833 151.33597,184.20833C150.306,183.71868 149.25915,183.33033 148.09411,183.33033C147.82396,183.33033 143.28198,183.43164 143.28198,188.96981C143.28198,194.55864 147.63822,194.45733 148.09411,194.45733C149.46177,194.45733 150.55927,193.86637 151.45416,193.14033C151.45416,193.14033 151.45416,194.30537 151.45416,194.30537C150.93074,194.65995 149.73192,195.31845 148.09411,195.31845C144.09244,195.31845 141.94809,192.46494 141.89743,188.9867C141.89743,188.9867 141.89743,188.9867 141.89743,188.9867M155.45583,194.20406C155.45583,194.20406 161.34858,194.20406 161.34858,194.20406C161.34858,194.20406 161.34858,194.96387 161.34858,194.96387C161.34858,194.96387 153.96998,194.96387 153.96998,194.96387C153.96998,194.96387 153.96998,182.89133 153.96998,182.89133C153.96998,182.89133 155.08437,182.89133 155.08437,182.89133C155.08437,182.89133 155.08437,193.76506 155.08437,193.76506C155.08437,194.22095 155.06748,194.20406 155.45583,194.20406C155.45583,194.20406 155.45583,194.20406 155.45583,194.20406M171.20923,182.89133C171.20923,182.89133 172.27297,182.89133 172.27297,182.89133C172.27297,182.89133 172.27297,189.79716 172.27297,189.79716C172.27297,191.62071 172.32362,195.18337 167.64656,195.18337C162.90197,195.18337 162.88509,191.60382 162.88509,189.66208C162.88509,189.66208 162.88509,182.89133 162.88509,182.89133C162.88509,182.89133 163.98259,182.89133 163.98259,182.89133C163.98259,182.89133 163.98259,189.79716 163.98259,189.79716C163.98259,190.8609 163.99947,194.38979 167.64656,194.38979C171.20923,194.38979 171.20923,190.89467 171.20923,189.79716C171.20923,189.79716 171.20923,182.89133 171.20923,182.89133C171.20923,182.89133 171.20923,182.89133 171.20923,182.89133M176.19021,188.7672C176.19021,188.7672 176.19021,194.40668 176.19021,194.40668C176.19021,194.40668 178.72291,194.52487 178.72291,194.52487C182.31935,194.60929 183.19735,193.37671 183.19735,191.53628C183.19735,189.78028 181.74527,188.7672 179.63468,188.7672C179.63468,188.7672 176.19021,188.7672 176.19021,188.7672C176.19021,188.7672 176.19021,188.7672 176.19021,188.7672M176.19021,188.00739C176.19021,188.00739 178.87487,188.00739 178.87487,188.00739C181.17119,188.00739 182.11673,187.39954 182.11673,185.86303C182.11673,184.49537 181.23873,183.63426 178.99307,183.63426C178.99307,183.63426 176.19021,183.63426 176.19021,183.63426C176.19021,183.63426 176.19021,188.00739 176.19021,188.00739C176.19021,188.00739 176.19021,188.00739 176.19021,188.00739M175.09271,182.90821C175.09271,182.90821 178.97618,182.90821 178.97618,182.90821C182.30246,182.90821 183.38308,184.22522 183.38308,185.86303C183.38308,187.31511 182.33623,188.10869 180.9348,188.29443C182.89343,188.61523 184.53124,189.61143 184.53124,191.67136C184.53124,193.49491 183.60258,195.2678 179.63468,195.18337C176.59544,195.13272 175.53171,195.03141 175.12648,194.98076C175.12648,190.8609 175.09271,187.02808 175.09271,182.90821C175.09271,182.90821 175.09271,182.90821 175.09271,182.90821" stroke="null" style="pointer-events:inherit"/><rect id="svg_43" x="35.11874351949059" y="182.53764117156513" width="149.4124969478276" height="12.780809697299512" fill="#7fff00" opacity="0" stroke="null" style="pointer-events:inherit"/></g><circle cx="167.82499451664313" cy="80.92500520113555" r="11.412494659423828" id="svg_8" fill="#7fff00" display="null" fill-opacity="1" stroke-opacity="1" stroke="#000000" transform="" stroke-width="0"/></g><defs><mask id="canvasMaskImageDef" maskUnits="objectBoundingBox" x="0" y="0"><image xmlns:xlink="http://www.w3.org/1999/xlink" id="canvasMaskImage" preserveAspectRatio="none" x="-103.65" y="-36.45" width="400" height="440.0580551523948" xlink:href="http://allinonedesigner.designnbuy.in/media/catalog/product/w/h/white-tees-1_-front_1_3.png"/></mask></defs></svg>