<?xml version="1.0" encoding="utf-8"?>
<!-- Generator: Adobe Illustrator 16.0.0, SVG Export Plug-In . SVG Version: 6.00 Build 0)  -->
<!DOCTYPE svg PUBLIC "-//W3C//DTD SVG 1.1//EN" "http://www.w3.org/Graphics/SVG/1.1/DTD/svg11.dtd">
<svg version="1.1" id="Layer_1" xmlns="http://www.w3.org/2000/svg" xmlns:xlink="http://www.w3.org/1999/xlink" x="0px" y="0px"
	 width="100px" height="100px" viewBox="0 0 100 100" enable-background="new 0 0 100 100" xml:space="preserve">
<path fill="#DA1963" d="M95.816,53.116c-0.871-3.602-5.08-5.522-8.771-4.92c-0.916,0.097-1.771,0.31-2.568,0.608
	c-0.807,0.297-1.561,0.683-2.273,1.131c-1.334,1.074-2.688,2.309-3.92,3.647c-0.614,0.669-1.201,1.363-1.741,2.081
	c-0.563,0.751-1.306,1.545-1.976,2.354c0.619-2.189,0.72-4.808,0.769-6.813c-0.085-1.165-0.271-2.32-0.489-3.457
	c-1.021-3.141-0.74-7.404-3.893-9.542c-0.559-0.27-1.205-0.42-1.963-0.42c-3.695-0.285-6.821,3.127-7.391,6.82
	c-0.19,0.9-0.254,1.776-0.221,2.634c0.037,0.854,0.174,1.69,0.375,2.51c0.611,1.603,1.365,3.271,2.262,4.854
	c0.444,0.791,0.926,1.563,1.438,2.297c0.538,0.769,1.063,1.714,1.623,2.6c-1.893-1.262-4.348-2.164-6.234-2.827
	c-1.138-0.276-2.289-0.461-3.439-0.604c-3.301,0.006-7.271-1.582-10.277,0.756c-0.427,0.445-0.77,1.017-1.004,1.736
	c-1.412,3.426,0.866,7.453,4.204,9.138c0.797,0.458,1.612,0.788,2.437,1.021c0.825,0.232,1.659,0.36,2.502,0.424
	c1.713-0.086,3.533-0.289,5.315-0.648c0.892-0.18,1.774-0.398,2.633-0.659c0.896-0.276,1.956-0.479,2.972-0.741
	c-1.785,1.409-3.397,3.463-4.615,5.055c-0.613,0.996-1.146,2.039-1.637,3.088c-1.018,3.144-3.754,6.426-2.459,10.009
	c0.293,0.548,0.729,1.048,1.342,1.491c2.82,2.402,7.356,1.48,9.988-1.174c0.682-0.617,1.246-1.291,1.721-2.002
	c0.479-0.713,0.86-1.469,1.178-2.252c0.443-1.653,0.814-3.447,1.023-5.256c0.106-0.902,0.17-1.811,0.188-2.707
	c0.015-0.938,0.146-2.01,0.211-3.058c0.79,2.134,2.246,4.307,3.384,5.955c0.758,0.893,1.583,1.719,2.432,2.509
	c2.672,1.938,4.949,5.555,8.761,5.432c0.606-0.107,1.219-0.369,1.834-0.813c3.153-1.941,3.68-6.541,1.967-9.863
	c-0.375-0.839-0.839-1.586-1.369-2.257c-0.532-0.672-1.133-1.269-1.776-1.812c-1.438-0.938-3.027-1.842-4.684-2.604
	c-0.824-0.38-1.671-0.721-2.518-1.015c-0.891-0.304-1.872-0.767-2.852-1.151c2.274-0.089,4.793-0.797,6.715-1.372
	c1.086-0.44,2.125-0.974,3.142-1.532c2.669-1.943,6.813-2.99,7.87-6.652C96.107,54.5,96.053,53.837,95.816,53.116z M85.268,58.139
	c-3.341,3.728-8.509,5.129-11.002,5.609c0.15,0.109,0.313,0.206,0.48,0.295c-0.428,0.104-0.813,0.313-1.145,0.668
	c3.631,5.032,13.84,12.805,7.89,10.173c-4.576-2.022-7.507-6.506-8.736-8.729c-0.056,0.178-0.099,0.362-0.133,0.548
	c-0.228-0.372-0.547-0.676-0.985-0.881c-3.662,5.009-7.902,17.119-7.236,10.646c0.511-4.976,3.865-9.147,5.604-11.006
	c-0.188,0.002-0.372,0.019-0.563,0.045c0.285-0.334,0.475-0.729,0.533-1.211c-5.896-1.938-18.726-2.228-12.361-3.594
	c4.891-1.054,9.896,0.85,12.197,1.928c-0.061-0.178-0.134-0.353-0.217-0.521c0.404,0.168,0.842,0.224,1.315,0.132
	c0.021-6.204-3.673-18.493-0.4-12.865c2.511,4.326,2.246,9.672,1.935,12.196c0.152-0.111,0.295-0.235,0.432-0.368
	c-0.035,0.438,0.046,0.869,0.279,1.295C79.061,60.6,89.607,53.291,85.268,58.139z"/>
<path fill="#8178B8" d="M49.055,32.708c0.25,0,0.497,0.006,0.743,0.015c0.081,0.004,0.163,0.009,0.245,0.013
	c0.896,1.188,0.482,2.842,1.104,4.288c0.205-1.239-0.207-2.686,0.826-3.98c0.075-0.029,0.154-0.036,0.233-0.043
	c1.492,0.279,2.917,0.755,4.244,1.397c1.14-2.148,1.786-4.598,1.786-7.199c0-2.3-0.504-4.482-1.409-6.443
	c0.387-0.468,0.534-0.716,0.776-1.075c3.045-3.316,3.871-8.275,1.394-12.2C57.137,5,54.45,3.347,51.352,3.554
	c-4.129,0.206-7.438,3.513-7.438,7.645c0.206,2.685,1.859,5.165,4.544,5.991c0.438,0.12,0.867,0.192,1.286,0.22
	c0.083,0.006,0.166,0.009,0.249,0.011c2.184,11.132,0.53,22.496,1.151,33.858c0.619-11.362-1.242-22.933,0.961-34.254
	c0.074-0.031,0.146-0.064,0.218-0.099c0.717-0.348,1.362-0.88,1.92-1.595c1.239-1.653,1.239-4.132-0.413-5.579
	c-1.033-0.826-3.307-1.032-3.924,0.62c1.032-0.413,1.858-0.207,2.685,0.207c1.446,0.826,1.239,2.479,0.413,3.719
	c-0.259,0.369-0.556,0.658-0.881,0.878c-0.064,0.044-0.131,0.085-0.198,0.124c-0.573,0.445-0.987,0.857-1.736,0.437
	c-0.074-0.011-0.151-0.019-0.227-0.03c-0.984-0.082-1.975-0.53-2.742-1.202c-2.065-2.066-1.86-5.165,0-7.23
	c2.479-2.687,6.611-2.479,9.088-0.207c1.651,1.653,2.479,3.925,2.271,6.404c-0.413,2.686-1.857,5.166-4.339,6.405
	c-0.687,0.365-1.388,0.628-2.099,0.795c-0.041,0.016-0.084,0.032-0.125,0.054c-0.877,1.63-0.672,3.489-0.877,5.142
	c-0.414-1.653,0-3.306-0.885-4.902c-0.042-0.03-0.084-0.046-0.126-0.065c-4.646-0.019-9.061-3.715-9.579-8.598
	c-0.764-0.08-1.5-0.029-2.213,0.19c-4.284,1.314-7.769,4.45-9.558,8.502c1.063,1.741,1.677,3.786,1.677,5.975
	c0,2.271-0.66,4.382-1.797,6.163c1.259,3.01,3.449,5.535,6.209,7.215c0.254-0.382,0.579-0.68,1.064-0.786
	c2.398,2.421,6.738,2.834,9.01-0.264c1.445-2.067,1.445-4.959-0.413-6.818c-0.828-0.827-1.86-1.033-3.101-1.24
	c-2.271-0.206-4.338,1.86-4.544,3.926c0,1.652,1.033,3.306,2.891,3.719c1.448,0.207,3.101-0.826,3.513-2.272
	c0.206-1.033-0.205-1.653-1.032-2.273c-0.828-0.62-1.86-0.62-2.481,0.414c0,0.207,0,0.62,0.208,0.62
	c1.033-1.034,2.687-0.414,2.273,1.032c-0.414,1.034-1.446,1.447-2.481,1.24c-1.858-0.414-2.066-2.479-1.239-3.926
	c0.827-1.239,2.274-1.446,3.512-1.239c1.653,0.62,2.687,2.272,2.481,4.132c-0.415,2.479-2.893,3.925-5.167,3.512
	c-3.306-0.826-4.958-4.751-2.892-7.644c2.271-3.306,7.023-3.306,9.34-0.324c0.318,0.343,0.467,0.472,0.696,0.743
	C47.342,32.771,48.192,32.708,49.055,32.708z M73.451,56.348c-3.113-0.629-5.784-2.479-7.488-5.029
	c-0.54,5.689-3.885,10.561-8.634,13.215c-0.218,0.119-0.437,0.234-0.657,0.351c-0.568,0.032-0.98,0.24-1.361,0.609
	c-0.23,0.091-0.468,0.179-0.703,0.261c-0.476,0.164-0.961,0.309-1.453,0.432c0.119,0.156,0.24,0.313,0.365,0.465
	c0.127,0.148,0.256,0.301,0.391,0.443c3.643,5.057,1.574,12.285,3.021,18.07c2.065-3.721,0-7.854,1.857-11.57
	c1.031,1.653,1.031,3.516,1.379,5.168c0.037,0.245,0.07,0.488,0.107,0.732c0.688,4.794,0.986,9.673,1.088,14.592
	c0.063-0.059,0.125-0.107,0.188-0.166c0.229-8.011,0.979-15.867,2.963-23.303c0.229-0.043,0.459-0.098,0.684-0.151
	c4.974-1.26,8.65-5.764,8.65-11.128C73.846,58.301,73.708,57.3,73.451,56.348z"/>
<path fill="#DAE8A3" d="M19.737,63.249c0.002,4.049,0.601,8.687,3.825,11.128c0.19,0.145,0.389,0.281,0.597,0.409
	c3.515,6.346,2.301,13.93,2.583,21.03c0.343,0.055,0.686,0.106,1.028,0.164c0.462-6.771-0.84-13.974,2.284-19.86
	c0.038-0.076,0.079-0.149,0.121-0.224c-0.104-0.032,0.103-0.239,0.103-0.239c0.5,4.895,0.766,9.802,0.898,14.715
	c0.166-5.17,0.469-10.347,0.997-15.535c0.064-0.044,0.127-0.085,0.192-0.129c1.072-0.722,1.947-1.731,2.458-2.976
	c0.621-1.86,0.207-4.133-1.24-5.578c-1.446-1.241-3.512-1.653-4.958,0c-0.207,0.412-0.413,0.824-0.413,1.238
	c0,1.031,1.035,1.856,2.066,1.856c0.207,0.208,0.413,0.62,0.413,0.826c-0.154,0.543-0.426,0.97-0.78,1.276
	c-0.119,0.104-0.246,0.193-0.381,0.271c-1.112,0.723-2.352,0.518-3.455-0.337c-0.154-0.097-0.303-0.2-0.445-0.31
	c-0.567-0.438-1.033-1.007-1.343-1.73c-1.24-3.098,0.207-6.816,3.305-8.469c4.545-2.273,9.092,0.412,12.143,3.931
	c0.167,0.026,0.308-0.004,0.431-0.067c0.125-0.065,0.23-0.168,0.333-0.276c-0.159-0.095-0.315-0.188-0.469-0.285
	c-0.154-0.097-0.306-0.194-0.458-0.298c-0.393-0.328-0.762-0.646-1.263-1.155c-1.007-1.437-2.866-2.054-4.105-3.294h0.619
	c-0.207-0.413-0.413-0.618-0.431-1.063c-0.368-0.629-0.699-1.285-0.985-1.961c-0.864-2.033-1.34-4.271-1.34-6.619
	c0-2.661,0.613-5.177,1.704-7.419c-0.768-0.187-1.562-0.311-2.375-0.36c-0.156-0.037-0.305-0.06-0.519-0.162
	c-2.045-2.664-5.972-3.697-8.657-1.425c-1.652,1.447-2.272,3.306-1.859,5.372c0.828,3.513,5.578,5.164,8.057,2.272
	c1.86-2.067,1.034-5.992-2.064-6.406c-1.652-0.206-3.307,0.621-3.719,2.273c-0.414,1.652,1.033,3.513,2.892,3.305
	c1.239-0.206,1.652-1.445,1.86-2.478c0.619,1.447-0.621,2.891-1.86,3.099c-2.271,0.207-4.338-1.86-3.719-4.132
	c0.621-2.893,3.925-4.132,6.405-2.479c2.892,2.066,3.101,6.199,0.206,8.264c-3.097,2.271-6.611,0.826-8.978-1.608
	c-0.241,0.357-0.465,0.727-0.671,1.108c-1.034,1.9-1.621,4.083-1.621,6.402c0,2.224,0.541,4.319,1.498,6.168
	C18.966,62.105,19.331,62.693,19.737,63.249z"/>
<path fill="#B9D1ED" d="M75.798,32.937c-5.629,0-10.336,3.936-11.526,9.205c0.957,1.922,1.56,4.051,1.724,6.303
	c3.633,1.207,6.456,4.18,7.459,7.903c0.38,0.076,0.769,0.135,1.155,0.174c0.063,0.01,0.129,0.016,0.195,0.021
	c1.959,7.548,0.307,15.604,1.133,23.456c0.412-7.853-0.826-15.701,0.899-23.438c0.067-0.026,0.136-0.033,0.204-0.041
	c0.271-0.026,0.543-0.064,0.809-0.11c0.326,0.114,0.596,0.146,1.004,0.36c3.074,3.396,9.065,2.981,10.722-1.563
	c1.237-4.131-2.272-8.263-6.404-7.229c-2.271,0.619-3.926,2.891-3.926,5.167c0.205,1.442,0.616,2.686,1.856,3.512
	c1.652,1.033,3.512,1.652,5.166,0.414c1.858-1.24,2.687-3.512,1.651-5.58c-0.826-1.651-2.687-2.479-4.544-2.064
	c-1.859,0.621-3.1,2.271-2.688,4.34c0.621,2.688,4.133,3.512,5.785,1.444c1.443-1.858,0-4.958-2.479-4.543
	c-1.24,0.205-2.272,1.444-1.86,2.892c0.414,1.031,1.86,1.651,2.893,1.031c0.414-0.413,0.826-1.65-0.205-2.064
	c-0.412-0.207-0.617,0.414-1.031,0.414c0.207,0,0.414-0.207,0.619-0.207c0.412,0,0.617,0.412,0.617,0.826
	c-0.205,0.618-0.617,0.826-1.236,0.618c-1.033-0.411-1.239-1.444-0.619-2.271c1.441-1.239,3.102,0,3.102,1.652
	c0,1.443-1.447,2.063-2.479,2.063c-1.239-0.207-2.272-1.238-2.479-2.479c0-0.826,0.207-1.654,0.826-2.272
	c1.24-1.032,3.1-1.239,4.338-0.205c0.828,0.823,1.446,2.065,1.241,3.306c-0.413,1.857-2.065,3.305-3.927,3.1
	c-2.271-0.209-4.133-2.271-3.926-4.545c0.205-2.272,2.064-3.925,4.34-4.13c2.271,0,4.339,1.445,4.959,3.716
	c0.412,2.479-0.827,4.959-3.102,5.992c-2.271,1.031-5.164,0.205-6.611-1.859c-1.239-1.858-1.239-4.133-0.205-6.197
	c1.652-2.894,5.164-3.513,8.066-2.57c0.101-0.435,0.18-0.88,0.229-1.332c0.053-0.453,0.08-0.913,0.08-1.379
	c0-1.865-0.436-3.63-1.202-5.199c-0.188-0.393-0.373-0.765-0.551-1.107c3.084,0.017,6.185-2.05,6.391-5.355
	c-0.411,3.305-4.132,5.785-7.438,4.545c-1.65-0.62-2.894-2.066-3.821-3.505c-0.394-0.192-0.796-0.364-1.212-0.511
	C78.539,33.18,77.198,32.937,75.798,32.937z M49.523,44.955c0.408-0.316,0.848-0.602,1.331-0.853
	c4.217-2.121,9.381-0.675,12.1,2.812c0.426,0.473,0.668,0.71,0.98,1.053c0.174,0.023,0.342,0.051,0.51,0.082
	c-0.303-1.045-0.467-2.148-0.467-3.29c0-0.9,0.104-1.775,0.295-2.618c-1.676-3.368-4.436-6.103-7.819-7.745
	c-2.582,4.866-7.699,8.181-13.592,8.181c-2.923,0-5.656-0.815-7.984-2.231c-0.407,0.616-0.777,1.26-1.102,1.929
	c5.873,1.434,10.234,6.728,10.234,13.045c0,0.994-0.108,1.965-0.314,2.896c-0.052,0.234-0.11,0.468-0.171,0.695
	c-0.844,2.075-0.226,5.382-3.118,5.382c2.663,9.936,3.14,20.376,3.098,30.922c0.053,0.021,0.101,0.049,0.152,0.073
	c0.02-8.466,0.339-16.897,1.708-25.212c1.033,1.445,0.827,3.1,1.215,4.666c0.03,0.244,0.059,0.492,0.086,0.738
	c0.84,7.67,0.063,15.731,0.423,23.459c0.245,0.033,0.489,0.063,0.733,0.095c0.552-10.898-1.654-22.806,2.811-32.429
	c0.176-0.018,0.346-0.033,0.518-0.057c0.684-0.085,1.354-0.21,2.012-0.372c-0.354-0.479-0.674-0.983-0.952-1.517
	c-0.28-0.531-0.519-1.086-0.712-1.662c6.061-0.362,12.671-3.873,11.431-11.104c-0.62-2.686-2.067-5.167-4.752-6.196
	c-3.101-1.446-7.024-0.413-8.884,2.479c-1.652,2.688-1.24,5.99,1.445,8.058c1.445,0.828,3.1,0.828,4.752,0.207
	c1.238-0.618,1.859-1.65,1.859-2.893c0-1.238-0.826-2.688-2.273-2.479c0.209,1.24,1.033,2.479-0.204,3.307
	c-1.86,1.031-3.927-0.62-3.927-2.479c0.207-1.447,0.826-2.896,2.271-3.511c2.271-1.241,4.958,0,6.198,2.064
	c0.822,1.859,1.029,3.718,0,5.579c-1.653,2.892-5.372,4.132-8.475,2.892c-1.856-0.824-3.305-2.271-4.128-4.131
	C45.359,51.277,46.6,47.146,49.523,44.955z"/>
<path fill="#8DC641" d="M35.658,11.33c0.376-1.35-0.661-2.759-1.989-3.24c-0.32-0.137-0.64-0.224-0.96-0.274
	c-0.321-0.05-0.64-0.061-0.959-0.046c-0.64,0.109-1.313,0.268-1.966,0.482c-0.327,0.107-0.648,0.229-0.958,0.366
	c-0.324,0.144-0.715,0.27-1.086,0.414c0.608-0.609,1.124-1.454,1.508-2.107c0.187-0.4,0.34-0.816,0.477-1.231
	c0.242-1.226,1.12-2.581,0.474-3.868c-0.135-0.192-0.32-0.36-0.571-0.5c-1.167-0.776-2.828-0.225-3.696,0.89
	c-0.228,0.261-0.411,0.54-0.557,0.829c-0.147,0.289-0.255,0.589-0.338,0.897c-0.094,0.641-0.152,1.33-0.149,2.019
	c0.001,0.343,0.017,0.687,0.051,1.024c0.036,0.352,0.034,0.76,0.058,1.157c-0.393-0.766-1.037-1.515-1.539-2.083
	c-0.322-0.302-0.67-0.574-1.024-0.833c-1.09-0.607-2.107-1.863-3.531-1.645c-0.223,0.068-0.443,0.193-0.652,0.388
	c-1.097,0.87-1.088,2.619-0.296,3.792c0.179,0.297,0.387,0.556,0.617,0.785c0.229,0.229,0.482,0.426,0.749,0.599
	c0.58,0.288,1.218,0.555,1.873,0.767c0.328,0.104,0.661,0.194,0.992,0.267c0.345,0.074,0.734,0.202,1.117,0.302
	c-0.849,0.137-1.761,0.517-2.456,0.819c-0.387,0.215-0.752,0.461-1.109,0.716c-0.915,0.85-2.422,1.43-2.656,2.852
	c-0.003,0.233,0.047,0.479,0.168,0.74c0.489,1.313,2.155,1.844,3.513,1.453c0.339-0.078,0.65-0.196,0.938-0.344
	c0.289-0.147,0.554-0.326,0.803-0.526c0.452-0.463,0.904-0.988,1.306-1.546c0.202-0.279,0.391-0.567,0.562-0.859
	c0.177-0.307,0.42-0.636,0.632-0.97c-0.131,0.85-0.052,1.835,0.02,2.588c0.086,0.435,0.207,0.859,0.34,1.277
	c0.525,1.132,0.611,2.746,1.891,3.407c0.221,0.075,0.47,0.103,0.757,0.07c1.398-0.06,2.418-1.481,2.466-2.894
	c0.031-0.347,0.015-0.679-0.036-0.998c-0.052-0.32-0.141-0.627-0.252-0.926c-0.302-0.573-0.66-1.165-1.067-1.72
	c-0.202-0.277-0.418-0.546-0.644-0.799c-0.238-0.265-0.478-0.598-0.729-0.905c0.769,0.39,1.73,0.619,2.471,0.785
	c0.438,0.053,0.88,0.07,1.319,0.072c1.239-0.15,2.798,0.267,3.824-0.746C35.499,11.841,35.602,11.611,35.658,11.33z M31.249,11.044
	c-1.788,0.614-3.753,0.125-4.665-0.176c0.029,0.064,0.064,0.125,0.104,0.186c-0.16-0.044-0.326-0.046-0.5,0.009
	c0.271,2.33,2.209,6.778,0.729,4.813c-1.135-1.511-1.277-3.531-1.273-4.492c-0.053,0.048-0.101,0.101-0.146,0.157
	c-0.007-0.167-0.056-0.324-0.163-0.474c-2.133,0.979-5.763,4.196-4.351,2.182c1.085-1.548,2.962-2.308,3.877-2.6
	c-0.062-0.036-0.126-0.064-0.193-0.09c0.155-0.059,0.29-0.154,0.398-0.303c-1.59-1.725-5.771-4.184-3.418-3.462
	c1.808,0.553,3.11,2.104,3.67,2.883c0.014-0.069,0.021-0.141,0.026-0.211c0.102,0.129,0.236,0.229,0.411,0.286
	c1.15-2.045,2.198-6.782,2.237-4.322c0.032,1.891-1.039,3.607-1.607,4.382c0.069-0.009,0.139-0.022,0.208-0.042
	c-0.091,0.138-0.144,0.296-0.146,0.48C28.747,10.712,33.576,10.244,31.249,11.044z M64.443,48.049
	c0.529,0.096,1.045,0.23,1.549,0.396c-0.164-2.252-0.766-4.381-1.723-6.303c-0.189,0.843-0.293,1.718-0.293,2.618
	C63.977,45.901,64.141,47.004,64.443,48.049z"/>
<path fill="#F491AF" d="M56.449,34.397c-2.237-1.082-4.745-1.689-7.395-1.689c-0.862,0-1.712,0.064-2.542,0.189
	c-0.229-0.271-0.378-0.4-0.696-0.743c-1.489-1.949-4.174-2.568-6.448-1.949c-3.512,1.033-4.958,5.785-2.479,8.471
	c1.858,1.86,4.752,2.065,6.61,0.207c2.067-2.067,1.241-5.579-1.446-6.405c-1.238-0.207-2.686,0-3.512,1.239
	c-0.827,1.446-0.619,3.512,1.239,3.926c1.035,0.207,2.067-0.207,2.481-1.24c0.414-1.446-1.24-2.066-2.273-1.032
	c-0.208,0-0.208-0.414-0.208-0.62c1.035-1.653,3.308-0.62,3.513,1.033c0.206,2.066-1.86,3.306-3.513,3.099
	c-1.858-0.413-2.891-2.067-2.891-3.719c0.206-3.1,3.718-4.752,6.404-3.513c2.893,1.447,3.513,4.959,1.654,7.646
	c-2.272,3.098-6.612,2.685-9.01,0.264c-0.485,0.105-0.81,0.403-1.064,0.786c2.328,1.416,5.061,2.231,7.984,2.231
	C48.75,42.578,53.867,39.263,56.449,34.397z M65.963,51.316c-0.665-0.992-1.18-2.093-1.52-3.271c-0.168-0.03-0.338-0.058-0.51-0.082
	c-0.315-0.343-0.561-0.58-0.983-1.053c-2.097-2.454-5.4-4.106-8.707-3.9c-5.577,0.413-9.708,6.405-7.437,11.777
	c1.239,3.101,4.543,5.165,8.057,4.544c4.133-0.825,6.611-5.165,4.546-8.883c-1.24-2.064-3.927-3.306-6.198-2.064
	c-1.447,0.619-2.066,2.064-2.273,3.512c0,1.857,2.066,3.512,3.93,2.479c1.236-0.826,0.41-2.064,0.203-3.309
	c1.445-0.207,2.272,1.24,2.272,2.479s-0.62,2.271-1.858,2.892c-1.651,0.621-3.308,0.621-4.752-0.207
	c-2.688-2.063-3.1-5.371-1.444-8.057c2.688-4.132,8.677-4.132,11.772-0.413c2.066,2.479,2.48,5.785,1.446,8.884
	c-1.653,4.752-6.61,5.578-11.017,6.354c0.193,0.576,0.432,1.131,0.712,1.662c0.278,0.531,0.599,1.038,0.952,1.516
	c0.492-0.123,0.978-0.266,1.451-0.43c0.234-0.082,0.472-0.17,0.703-0.262c0.381-0.368,0.793-0.576,1.36-0.608
	c0.224-0.112,0.438-0.229,0.657-0.351C62.078,61.876,65.423,57.008,65.963,51.316z M7.997,37.778
	c0.076,0.023,0.154,0.044,0.234,0.068c2.42,1.656,0.561,5.788,1.387,8.269c0.207-2.688-0.62-5.579,0.861-8.153
	c0.044-0.007,0.086-0.014,0.134-0.021c1.162-0.233,2.208-0.814,3.138-1.743c1.653-1.86,1.653-4.339,0.414-6.405
	c-1.653-2.272-4.546-2.893-6.819-1.446C5.9,29.38,4.867,31.034,5.281,32.892c0.412,2.48,2.686,4.132,5.164,3.72
	c2.067-0.413,3.513-2.687,3.1-4.752c-0.413-2.272-2.892-3.305-4.958-2.479c-1.241,0.62-1.859,1.859-1.859,3.099
	c0.206,1.445,1.446,2.893,3.098,2.686c1.86-0.207,3.101-2.479,1.654-3.926c-0.62-0.62-1.24-0.826-2.066-0.62
	c-1.034,0.414-1.446,1.653-0.827,2.479c0.62,0.826,2.066,0.206,1.858-0.826c-0.206-0.621-1.032,0.207-1.032,0
	c-0.414-0.621,0.619-0.826,1.032-0.414c0.621,0.414,1.034,1.033,0.621,1.653c-0.621,0.826-1.86,1.032-2.687,0.412
	c-1.033-0.826-0.826-2.272,0-3.305c1.24-1.239,3.1-0.62,3.926,0.62c0.827,1.447,0.414,3.306-1.032,4.133
	c-1.654,1.032-3.719,0.207-4.753-1.447c-1.032-1.652-0.206-3.512,1.034-4.751c1.653-1.24,3.926-1.033,5.373,0.414
	c2.064,1.859,1.652,5.165-0.414,6.817c-0.64,0.465-1.344,0.767-2.063,0.905c-0.082,0.015-0.165,0.028-0.248,0.039
	c-0.582-0.118-1.201,0.296-1.669-0.059c-0.078-0.017-0.156-0.035-0.233-0.058c-1.087-0.293-2.088-0.982-2.81-2.067
	C4.457,33.513,4.457,31.652,5.077,30c1.031-2.066,3.098-3.305,5.578-3.1c2.273,0.208,4.132,1.654,4.958,3.926
	c0.186,0.621,0.26,1.222,0.246,1.808c-0.004,0.195-0.019,0.39-0.042,0.583c0.002,0.708-0.204,1.121-0.435,1.699
	c-0.071,0.187-0.147,0.37-0.23,0.555c-0.165,0.367-0.353,0.732-0.556,1.095c-0.183,0.82,0.163,1.028,0.521,1.212
	c0.151,0.055,0.303,0.106,0.458,0.162c2.039,10.476,2.751,21.169,2.926,31.955c0.183-10.627,0.859-21.18,2.718-31.551
	c0.24-0.146,0.477-0.216,0.712-0.278c2.818-0.747,5.209-2.539,6.738-4.934c-0.765-1.826-1.187-3.83-1.187-5.933
	c0-2.208,0.468-4.306,1.307-6.205c-2.015-3.3-5.651-5.503-9.8-5.503c-6.115,0-11.111,4.778-11.46,10.803
	c-0.141,0.185-0.19,0.318-0.325,0.511c-2.953,1.542-3.985,5.054-2.746,7.946C5.087,36.34,6.457,37.317,7.997,37.778z"/>
<path fill="#DA1963" d="M65.963,51.316c0.051-0.533,0.08-1.073,0.08-1.625c0-0.422-0.021-0.836-0.051-1.25
	c-0.504-0.166-1.02-0.3-1.549-0.396C64.783,49.224,65.298,50.324,65.963,51.316z M28.784,20.993
	c-0.839,1.898-1.307,3.997-1.307,6.205c0,2.103,0.422,4.107,1.187,5.933c1.137-1.781,1.797-3.894,1.797-6.163
	C30.461,24.779,29.847,22.734,28.784,20.993z"/>
<path fill="#2E3192" d="M65.992,48.445c0.029,0.414,0.051,0.828,0.051,1.25c0,0.548-0.029,1.089-0.08,1.624
	c1.704,2.554,4.375,4.4,7.488,5.029C72.448,52.625,69.625,49.652,65.992,48.445z M63.743,32.415
	c5.391,20.647,2.362,42.672,2.922,63.959c0.125,0.056,0.247,0.11,0.369,0.169c0.209-8.408-0.313-16.82,0.146-25.259
	c0.002-0.151,0.006-0.304,0.006-0.455c0.899-12.526-1.785-26.369,2.959-38.062c0.17-0.109,0.334-0.226,0.492-0.353
	c1.258-1.009,2.063-2.56,2.063-4.299c0-3.043-2.468-5.509-5.511-5.509c-3.041,0-5.51,2.466-5.51,5.509
	c0,1.521,0.614,2.899,1.611,3.896C63.438,32.155,63.586,32.29,63.743,32.415z M33.771,42.275c-1.091,2.243-1.704,4.758-1.704,7.419
	c0,2.346,0.477,4.583,1.34,6.617c0.286,0.68,0.617,1.332,0.985,1.963c0.018,0.442,0.224,0.647,0.431,1.063c-0.207,0-0.413,0-0.619,0
	c1.239,1.24,3.098,1.858,4.105,3.294c0.501,0.514,0.87,0.827,1.263,1.155c0.152,0.104,0.304,0.2,0.458,0.298
	c0.154,0.1,0.31,0.189,0.469,0.285c2.794-0.072,2.176-3.378,3.02-5.454c0.062-0.229,0.12-0.461,0.171-0.694
	c0.206-0.934,0.314-1.902,0.314-2.896C44.005,49.003,39.644,43.709,33.771,42.275z M70.646,98.441
	c0.022,0.012,0.043,0.031,0.066,0.045c-0.008-2.908-0.025-5.816-0.092-8.723c-0.073,2.86-0.107,5.729-0.135,8.596
	C70.542,98.386,70.594,98.413,70.646,98.441z M69.473,71.039c0.07,0.029,0.146,0.059,0.217,0.104
	c0.521,6.195,0.799,12.404,0.937,18.623c0.16-6.219,0.45-12.428,0.953-18.623c0.073-0.045,0.146-0.072,0.219-0.104
	c1.072-0.454,1.823-1.516,1.823-2.751c0-1.647-1.337-2.983-2.984-2.983c-1.646,0-2.982,1.336-2.982,2.983
	C67.648,69.523,68.4,70.585,69.473,71.039z M41.249,70.354c0.38,0,0.689,0.309,0.689,0.689s-0.309,0.689-0.689,0.689
	s-0.689-0.309-0.689-0.689S40.869,70.354,41.249,70.354z M88.357,27.465c2.9,0.246,4.537,3.209,4.363,5.974
	c-0.013,0.162-0.027,0.324-0.053,0.484c-1.031,12.809-0.206,25.412-0.413,38.222c-0.409-11.773,1.033-23.755-0.928-35.623
	c-0.054,0.047-0.104,0.104-0.158,0.164c-0.378,0.425-0.804,0.817-1.265,1.187c-0.151,0.18-0.229,0.299-0.36,0.454
	C88.83,40.015,87.158,41.2,85.21,41.2c-2.601,0-4.708-2.106-4.708-4.705c0-0.434,0.061-0.853,0.17-1.251
	c0.109-0.399,0.27-0.775,0.475-1.125c1.813,3.937,7.396,5.177,9.873,1.251c0.039-0.064,0.076-0.128,0.113-0.195
	c0.036-0.065,0.07-0.133,0.105-0.201c0.191-0.018,0.191-0.225,0.183-0.417c0.024-0.073,0.052-0.146,0.074-0.221
	c0.502-1.536,0.276-3.378-0.892-4.546c-1.238-1.239-3.102-1.653-4.752-0.826c-1.651,1.033-2.065,3.512-0.619,4.751
	c0.619,0.413,1.443,0.826,2.271,0.206c0.62-0.412,1.034-1.239,0.413-1.859c-0.619-0.413-0.826,0.827-1.445,0.414
	c-0.205-0.207-0.205-0.62-0.205-0.827c0.411-1.033,1.65-1.446,2.479-0.826c1.651,1.239,0.825,3.719-0.827,4.546
	c-2.064,0.827-4.337-0.62-4.751-2.686c-0.414-2.479,1.442-5.165,3.824-5.227C87.434,27.397,87.893,27.398,88.357,27.465z
	 M17.95,50.611c1.838,0,3.328,1.49,3.328,3.328s-1.49,3.328-3.328,3.328c-1.838,0-3.328-1.49-3.328-3.328
	S16.112,50.611,17.95,50.611z M30.587,91.796c0.285,0,0.516,0.231,0.516,0.517s-0.231,0.516-0.516,0.516
	c-0.285,0-0.516-0.23-0.516-0.516S30.302,91.796,30.587,91.796z M38.128,82.497c0.229,0,0.414,0.186,0.414,0.414
	s-0.186,0.414-0.414,0.414s-0.414-0.186-0.414-0.414S37.899,82.497,38.128,82.497z M75.727,86.572
	c0.928,0.086,1.873-0.2,2.605-0.844c-0.521-1.026-2.268-1.043-3.332-0.477c0.369-0.854,0.391-1.841,0.004-2.738
	c-1.139,0.182-1.693,1.838-1.482,3.023c-0.696-0.616-1.631-0.938-2.604-0.852c-0.182,1.141,1.225,2.178,2.42,2.345
	c-0.803,0.474-1.398,1.261-1.613,2.215c1.026,0.521,2.447-0.492,2.979-1.577c0.2,0.908,0.767,1.721,1.604,2.221
	C77.123,89.073,76.598,87.408,75.727,86.572z M74.219,86.383c0.068-0.066,0.133-0.135,0.195-0.206
	c0.084,0.044,0.17,0.087,0.256,0.123c-0.02,0.093-0.029,0.187-0.039,0.28c-0.094,0.013-0.188,0.029-0.277,0.051
	C74.313,86.546,74.268,86.462,74.219,86.383z M37.204,63.006c0.652,1.158,1.753,2.034,3.106,2.371
	c0.779-1.447-0.624-3.51-2.154-4.296c1.303-0.263,2.477-1.039,3.216-2.222c-1.138-1.188-3.531-0.491-4.752,0.721
	c0.154-1.32-0.224-2.678-1.119-3.744c-1.481,0.715-1.558,3.206-0.782,4.741c-1.208-0.556-2.615-0.614-3.908-0.093
	c0.221,1.63,2.567,2.472,4.269,2.209c-0.9,0.979-1.392,2.297-1.295,3.688C35.402,66.675,36.927,64.704,37.204,63.006z M36.2,61.082
	c0.132,0.025,0.265,0.047,0.397,0.063c0.016,0.138,0.038,0.271,0.063,0.398c-0.123,0.057-0.243,0.118-0.357,0.184
	c-0.093-0.1-0.188-0.191-0.287-0.283C36.083,61.323,36.144,61.203,36.2,61.082z M37.57,68.13c0.657,0.49,1.498,0.709,2.347,0.562
	c0.076-1.014-1.231-1.822-2.292-1.887c0.67-0.475,1.137-1.207,1.259-2.061c-0.94-0.387-2.116,0.605-2.503,1.598
	c-0.243-0.783-0.794-1.455-1.567-1.834c-0.659,0.774-0.078,2.198,0.744,2.873c-0.82-0.012-1.629,0.307-2.229,0.926
	c0.533,0.865,2.069,0.754,2.961,0.18c-0.262,0.777-0.21,1.646,0.192,2.406C37.47,70.65,37.839,69.157,37.57,68.13z M36.521,67.295
	c0.082-0.02,0.161-0.04,0.241-0.063c0.042,0.068,0.088,0.14,0.134,0.209c-0.054,0.061-0.106,0.125-0.155,0.189
	c-0.077-0.031-0.155-0.063-0.234-0.089C36.516,67.461,36.519,67.377,36.521,67.295z M58.881,95.967
	c-0.102-0.089-0.207-0.171-0.316-0.23c0.215-0.035,0.42-0.113,0.615-0.217c0.188-0.227,0.413-0.424,0.693-0.582
	c0.025-0.031,0.059-0.063,0.083-0.099c-0.468-0.521-1.488-0.257-2.022,0.24c0.082-0.558-0.059-1.138-0.424-1.603
	c-0.637,0.28-0.701,1.338-0.395,1.998c-0.506-0.25-1.102-0.295-1.655-0.094c0.072,0.692,1.054,1.081,1.778,0.993
	c-0.396,0.399-0.621,0.953-0.6,1.545c0.682,0.146,1.354-0.669,1.491-1.385c0.103,0.188,0.231,0.354,0.386,0.506
	C58.592,96.657,58.707,96.294,58.881,95.967z M57.771,95.982c-0.039-0.043-0.08-0.084-0.119-0.123
	c0.031-0.049,0.057-0.102,0.082-0.151c0.058,0.015,0.113,0.024,0.168,0.032c0.005,0.059,0.013,0.113,0.021,0.171
	C57.871,95.934,57.818,95.957,57.771,95.982z M52.281,72.771c0.91-0.045,1.785-0.451,2.404-1.18
	c-0.647-0.923-2.344-0.691-3.293,0.008c0.236-0.883,0.123-1.841-0.377-2.652c-1.079,0.333-1.383,2.013-1.014,3.134
	c-0.764-0.499-1.71-0.685-2.64-0.461c-0.016,1.127,1.489,1.937,2.668,1.932c-0.711,0.571-1.178,1.414-1.254,2.368
	c1.067,0.362,2.302-0.816,2.662-1.941c0.326,0.854,0.981,1.562,1.863,1.924C53.979,75,53.238,73.46,52.281,72.771z M50.795,72.797
	c0.057-0.072,0.112-0.146,0.16-0.225c0.088,0.031,0.176,0.059,0.264,0.084c-0.003,0.093-0.003,0.184,0.002,0.275
	c-0.089,0.023-0.176,0.055-0.261,0.088C50.908,72.941,50.854,72.869,50.795,72.797z M43.604,88.49c0.285,0,0.516,0.23,0.516,0.516
	s-0.231,0.516-0.516,0.516s-0.516-0.23-0.516-0.516S43.319,88.49,43.604,88.49z M61.475,76.92c0.457,0,0.826,0.37,0.826,0.826
	s-0.369,0.826-0.826,0.826c-0.455,0-0.826-0.37-0.826-0.826S61.02,76.92,61.475,76.92z M56.619,81.05
	c0.172,0,0.311,0.14,0.311,0.312s-0.139,0.311-0.311,0.311s-0.311-0.139-0.311-0.311S56.447,81.05,56.619,81.05z M56,93.035
	c0.285,0,0.516,0.23,0.516,0.516s-0.23,0.516-0.516,0.516s-0.516-0.23-0.516-0.516S55.715,93.035,56,93.035z M55.07,83.943
	c0.342,0,0.619,0.277,0.619,0.619c0,0.343-0.277,0.621-0.619,0.621c-0.343,0-0.62-0.278-0.62-0.621
	C54.45,84.221,54.728,83.943,55.07,83.943z M57.859,88.49c0.171,0,0.31,0.139,0.31,0.31s-0.139,0.31-0.31,0.31
	c-0.172,0-0.311-0.139-0.311-0.31S57.688,88.49,57.859,88.49z M46.806,61.011c0.228,0,0.413,0.185,0.413,0.413
	s-0.185,0.413-0.413,0.413s-0.413-0.185-0.413-0.413S46.578,61.011,46.806,61.011z M55.793,70.309c0.172,0,0.311,0.139,0.311,0.31
	s-0.139,0.31-0.311,0.31s-0.311-0.139-0.311-0.31S55.621,70.309,55.793,70.309z M52.797,74.025c0.344,0,0.621,0.277,0.621,0.621
	c0,0.342-0.277,0.621-0.621,0.621c-0.343,0-0.621-0.279-0.621-0.621C52.176,74.303,52.454,74.025,52.797,74.025z"/>
</svg>
