<?xml version="1.0" encoding="utf-8"?>
<!-- Generator: Adobe Illustrator 16.0.0, SVG Export Plug-In . SVG Version: 6.00 Build 0)  -->
<!DOCTYPE svg PUBLIC "-//W3C//DTD SVG 1.1//EN" "http://www.w3.org/Graphics/SVG/1.1/DTD/svg11.dtd">
<svg version="1.1" id="Layer_1" xmlns="http://www.w3.org/2000/svg" xmlns:xlink="http://www.w3.org/1999/xlink" x="0px" y="0px"
	 width="25.75px" height="14.21px" viewBox="3.125 8.895 25.75 14.21" enable-background="new 3.125 8.895 25.75 14.21"
	 xml:space="preserve">
<path fill="#000000" d="M21.77,8.895c-2.379,0-4.479,1.174-5.77,2.97c-1.289-1.796-3.39-2.97-5.77-2.97
	c-3.924,0-7.105,3.181-7.105,7.104s3.181,7.105,7.105,7.105c2.379,0,4.48-1.175,5.77-2.971c1.29,1.796,3.391,2.971,5.77,2.971
	c3.926,0,7.105-3.182,7.105-7.105S25.693,8.895,21.77,8.895z M21.77,21.822c-3.211,0-5.821-2.609-5.821-5.82
	c0-3.213,2.61-5.824,5.821-5.824c3.213,0,5.823,2.611,5.823,5.824C27.593,19.212,24.98,21.822,21.77,21.822z"/>
</svg>
