<?xml version="1.0" encoding="utf-8"?>
<!-- Generator: Adobe Illustrator 16.0.0, SVG Export Plug-In . SVG Version: 6.00 Build 0)  -->
<!DOCTYPE svg PUBLIC "-//W3C//DTD SVG 1.1//EN" "http://www.w3.org/Graphics/SVG/1.1/DTD/svg11.dtd">
<svg version="1.1" id="Layer_1" xmlns="http://www.w3.org/2000/svg" xmlns:xlink="http://www.w3.org/1999/xlink" x="0px" y="0px"
	 width="100px" height="100px" viewBox="0 0 100 100" enable-background="new 0 0 100 100" xml:space="preserve">
<path fill="#010101" d="M32.858,56.589c0,0-7.058-15.603-9.362-24.284c-2.437-9.184-1.103-21.636-1.103-21.636
	c-2.268,1.598-4.39,3.387-6.345,5.343c0,0,0.783,11.533,4.712,19.203C24.457,42.43,32.858,56.589,32.858,56.589z M31.479,50.02
	c0,0-0.499-17.834,0.749-27.164C33.465,13.62,39.39,3.112,39.39,3.112c-2.795,0.629-5.495,1.504-8.079,2.6
	c0,0-3.687,10.584-2.983,19.03C29.027,33.159,31.479,50.02,31.479,50.02z M15.858,45.83c6.618,5.596,20.713,16.286,20.713,16.286
	s-12.229-11.498-17.53-18.468c-5.771-7.591-9.367-19.75-9.367-19.75c-1.509,2.334-2.821,4.803-3.915,7.393
	C5.759,31.291,9.839,40.739,15.858,45.83z M42.11,33.747c0,0,17.542-7.746,27.299-10.487c8.679-2.438,19.881-0.897,19.881-0.897
	c-1.599-2.269-3.384-4.394-5.339-6.352c0,0-12.314,1.26-20.501,5.525C56.168,25.331,42.11,33.747,42.11,33.747z M42.255,65.909
	c0,0-16.083-6.054-23.855-10.503C10.343,50.793,2.777,41.255,2.777,41.255C2.257,44.09,1.985,47.014,1.985,50
	c0,0,8.444,7.302,16.485,9.686C26.211,61.979,42.255,65.909,42.255,65.909z M73.135,28.906c-8.216,0.87-24.467,3.461-24.467,3.461
	s19.777-0.568,30.114,0.532c8.711,0.925,18.055,6.479,18.055,6.479c-0.63-2.796-1.502-5.498-2.597-8.087
	C94.24,31.291,82.348,27.931,73.135,28.906z M43.466,19.627c5.082-8.542,15.271-16.9,15.271-16.9
	C55.904,2.206,52.982,1.933,50,1.933c0,0-7.765,9.11-10.532,17.579c-2.532,7.75-6.67,23.642-6.67,23.642
	S38.876,27.342,43.466,19.627z M53.154,16.72c-5.795,6.71-16.567,20.746-16.567,20.746s12.68-13.121,20.399-18.983
	c7.486-5.687,19.087-8.85,19.087-8.85c-2.33-1.512-4.8-2.827-7.386-3.921C68.688,5.711,58.691,10.31,53.154,16.72z M55.673,65.85
	c0,0-16.901,7.877-26.089,10.721c-8.164,2.527-18.875,1.068-18.875,1.068c1.597,2.269,3.383,4.395,5.34,6.352
	c0,0,11.699-1.364,19.313-5.729C42.136,74.373,55.673,65.85,55.673,65.85z M78.771,50.536c-5.58-4.426-17.563-13.058-17.563-13.058
	S75.157,50.51,81.553,58.271c5.749,6.978,8.771,17.83,8.771,17.83c1.51-2.332,2.822-4.804,3.916-7.393
	C94.24,68.71,86.566,56.717,78.771,50.536z M78.186,39.473c-7.442-2.148-22.658-5.789-22.658-5.789s18.345,7.092,27.416,12.056
	c7.744,4.238,14.279,13.006,14.279,13.006c0.52-2.837,0.793-5.76,0.793-8.746C98.016,50,87.419,42.139,78.186,39.473z
	 M64.925,43.007c0,0,8.412,18.185,11.597,28.05c2.584,8.012,1.084,18.273,1.084,18.273c2.269-1.596,4.392-3.387,6.347-5.342
	c0,0-2.563-13.719-7.479-22.231C72.885,55.549,64.925,43.007,64.925,43.007z M66.302,49.573c0,0-1.034,21.118-2.805,31.073
	c-1.501,8.441-2.888,16.244-2.888,16.244c2.793-0.631,5.494-1.507,8.078-2.601c0,0,2.988-11.741,1.672-20.763
	C69.195,65.557,66.302,49.573,66.302,49.573z M61.195,62.13c0,0-15.564,13.642-23.699,19.113
	c-7.025,4.725-13.571,9.126-13.571,9.126c2.332,1.512,4.801,2.824,7.386,3.921c0,0,6.093-6.44,12.02-12.708
	C48.944,75.646,61.195,62.13,61.195,62.13z M50.922,82.621c-4.919,7.462-9.658,14.652-9.658,14.652
	c2.833,0.521,5.753,0.793,8.735,0.793c0,0,7.646-11.057,10.019-20.279c1.764-6.866,4.969-21.346,4.969-21.346
	S56.227,74.573,50.922,82.621z M24.156,71.076c8.241-1.027,24.959-3.85,24.959-3.85S30.41,67.968,20.81,66.989
	c-8.425-0.859-17.649-6.366-17.649-6.366c0.63,2.796,1.503,5.499,2.598,8.087C5.759,68.71,15.999,72.093,24.156,71.076z"/>
</svg>
