<?xml version="1.0" encoding="utf-8"?>
<!-- Generator: Adobe Illustrator 16.0.0, SVG Export Plug-In . SVG Version: 6.00 Build 0)  -->
<!DOCTYPE svg PUBLIC "-//W3C//DTD SVG 1.1//EN" "http://www.w3.org/Graphics/SVG/1.1/DTD/svg11.dtd">
<svg version="1.1" id="Layer_1" xmlns="http://www.w3.org/2000/svg" xmlns:xlink="http://www.w3.org/1999/xlink" x="0px" y="0px"
	 width="26.775px" height="26.877px" viewBox="1.624 2.248 26.775 26.877" enable-background="new 1.624 2.248 26.775 26.877"
	 xml:space="preserve">
<path d="M24.086,20.903c-1.805,3.113-5.163,5.213-9.023,5.22C9.297,26.112,4.636,21.451,4.625,15.688
	C4.636,9.922,9.297,5.261,15.063,5.25c3.859,0.007,7.216,2.105,9.022,5.218l3.962,2.284l0.143,0.082
	C26.879,6.784,21.504,2.25,15.063,2.248C7.64,2.25,1.625,8.265,1.624,15.688c0.002,7.42,6.017,13.435,13.438,13.437
	c6.442-0.002,11.819-4.538,13.127-10.589l-0.141,0.081L24.086,20.903z M28.4,15.688l-7.149-4.129v2.297H10.275v3.661H21.25v2.297
	L28.4,15.688z"/>
</svg>
