<?xml version="1.0" encoding="utf-8"?>
<!-- Generator: Adobe Illustrator 16.0.0, SVG Export Plug-In . SVG Version: 6.00 Build 0)  -->
<!DOCTYPE svg PUBLIC "-//W3C//DTD SVG 1.1//EN" "http://www.w3.org/Graphics/SVG/1.1/DTD/svg11.dtd">
<svg version="1.1" id="Layer_1" xmlns="http://www.w3.org/2000/svg" xmlns:xlink="http://www.w3.org/1999/xlink" x="0px" y="0px"
	 width="100px" height="100px" viewBox="0 0 100 100" enable-background="new 0 0 100 100" xml:space="preserve">
<path d="M32.826,39.431c18.197,0,28.09,18.01,47.874,15.958C61.477,55.389,53.451,38.125,32.826,39.431z M32.11,39.711l-0.305-0.28
	l0.241-0.341c0,0-0.6,0.065-0.652,0.373C31.365,39.649,31.956,39.711,32.11,39.711z M30.545,39.771l-0.243-0.224l0.195-0.273
	c0,0-0.481,0.053-0.523,0.298C29.949,39.72,30.422,39.771,30.545,39.771z M28.951,39.875l-0.195-0.178l0.154-0.22
	c0,0-0.384,0.043-0.417,0.24C28.474,39.835,28.851,39.875,28.951,39.875z M27.5,39.994l-0.158-0.143l0.125-0.176
	c0,0-0.309,0.035-0.334,0.191C27.117,39.962,27.419,39.994,27.5,39.994z M26.09,40.249l-0.127-0.115l0.1-0.141
	c0,0-0.245,0.027-0.268,0.153C25.783,40.223,26.024,40.249,26.09,40.249z M25.034,40.502l-0.102-0.091l0.081-0.112
	c0,0-0.196,0.022-0.214,0.123C24.788,40.482,24.982,40.502,25.034,40.502z M17.968,47.805l-0.167-0.379l0.361-0.215
	c0,0-0.577-0.182-0.749,0.078C17.309,47.447,17.825,47.742,17.968,47.805z M16.513,47.228l-0.134-0.304l0.288-0.171
	c0,0-0.461-0.146-0.598,0.062C15.987,46.941,16.399,47.177,16.513,47.228z M15.011,46.679l-0.106-0.243l0.229-0.137
	c0,0-0.368-0.117-0.477,0.049C14.588,46.449,14.918,46.639,15.011,46.679z M13.637,46.202l-0.086-0.195l0.185-0.11
	c0,0-0.295-0.093-0.383,0.04C13.297,46.019,13.563,46.17,13.637,46.202z M12.241,45.865l-0.068-0.155l0.148-0.088
	c0,0-0.238-0.075-0.307,0.032C11.971,45.718,12.184,45.839,12.241,45.865z M11.173,45.672l-0.054-0.125l0.117-0.07
	c0,0-0.189-0.06-0.246,0.025C10.957,45.554,11.125,45.651,11.173,45.672z M37.094,52.869c0,0.84,1.914-0.561,1.914,4.014
	c0,3.545-5.108,9.004-13.274,9.004c-27.156,0-26.97-33.268-4.526-33.268c4.713,0,6.485,1.4,6.485,1.4s1.681-2.583,11.759-0.156
	c11.884,2.862,28.185,21.028,42.057,21.028c2.316,0,3.359-0.933,3.359-0.933s-0.763,0.59-3.749,0.59
	c-15.817,0-30.375-23.423-54.172-23.423c-32.85,0-27.996,35.184-1.214,35.184c14.84,0,16.144-14.279,12.318-14.279
	C36.747,52.029,37.094,52.869,37.094,52.869z M3.245,45.777c0,0,1.803-0.187,2.659-0.187c21.556,0,25.196,27.576,10.73,27.576
	c-13.67,0-21.463-22.209-10.823-22.209c7.651,0,11.524,7.932,11.524,9.611c0,1.681-1.493,1.681-1.493,1.681
	c1.354-1.447-2.193-10.965-9.938-10.965c-10.173,0-2.659,21.604,10.778,21.604c13.53,0,10.125-27.018-10.406-27.018
	c-0.465,0-1.733,0.009-2.846,0.14C3.033,46.058,2.614,45.917,3.245,45.777z M18.736,47.737c10.45,4.167,11.011,13.875,14.867,13.875
	c0.748,0,1.369-1.31,0-1.31c-5.536,0-2.922,16.984,6.409,16.984c7.217,0,6.657-12.813-3.857-13.937c0,0,8.338,1.369,8.338,8.461
	c0,9.209-13.376,5.353-13.376-6.594c0-0.746-0.373-4.604,2.675-4.604c0.934,0-0.194,2.223-2.365-1.93
	C28.564,53.211,24.894,49.666,18.736,47.737z M67.175,60.57c-18.2,0-28.092-18.012-47.874-15.958
	C38.523,44.612,46.549,61.875,67.175,60.57z M67.891,60.291l0.305,0.279l-0.243,0.342c0,0,0.603-0.066,0.651-0.373
	C68.637,60.352,68.045,60.291,67.891,60.291z M69.453,60.23l0.244,0.225l-0.193,0.273c0,0,0.48-0.054,0.521-0.299
	C70.052,60.279,69.578,60.23,69.453,60.23z M71.05,60.125l0.195,0.18l-0.154,0.219c0,0,0.384-0.041,0.417-0.237
	C71.525,60.166,71.15,60.125,71.05,60.125z M72.501,60.006l0.155,0.145l-0.125,0.177c0,0,0.31-0.035,0.336-0.191
	C72.883,60.039,72.579,60.006,72.501,60.006z M73.911,59.752l0.125,0.115l-0.099,0.139c0,0,0.244-0.025,0.266-0.152
	C74.216,59.777,73.975,59.752,73.911,59.752z M74.967,59.498l0.1,0.092l-0.078,0.111c0,0,0.197-0.021,0.215-0.123
	C75.211,59.518,75.02,59.498,74.967,59.498z M82.033,52.195l0.165,0.379l-0.36,0.215c0,0,0.577,0.184,0.749-0.076
	C82.689,52.555,82.176,52.258,82.033,52.195z M83.486,52.773l0.135,0.303l-0.29,0.172c0,0,0.464,0.146,0.601-0.061
	C84.014,53.061,83.602,52.824,83.486,52.773z M84.988,53.322l0.107,0.242l-0.232,0.139c0,0,0.371,0.115,0.479-0.051
	C85.41,53.551,85.08,53.363,84.988,53.322z M86.363,53.799l0.087,0.195l-0.185,0.109c0,0,0.295,0.094,0.383-0.039
	C86.701,53.982,86.438,53.83,86.363,53.799z M87.758,54.137l0.067,0.156l-0.146,0.086c0,0,0.235,0.074,0.307-0.031
	C88.027,54.283,87.816,54.162,87.758,54.137z M88.827,54.33l0.055,0.123l-0.118,0.07c0,0,0.188,0.061,0.244-0.023
	C89.043,54.447,88.873,54.352,88.827,54.33z M62.904,47.132c0-0.841-1.913,0.56-1.913-4.014c0-3.546,5.108-9.005,13.276-9.005
	c27.154,0,26.969,33.27,4.524,33.27c-4.712,0-6.485-1.4-6.485-1.4s-1.681,2.582-11.759,0.154
	C48.665,63.275,32.365,45.11,18.492,45.11c-2.317,0-3.361,0.933-3.361,0.933s0.764-0.591,3.751-0.591
	c15.816,0,30.375,23.423,54.173,23.423c32.848,0,27.994-35.181,1.213-35.181c-14.838,0-16.145,14.277-12.318,14.277
	C63.255,47.971,62.904,47.132,62.904,47.132z M96.757,54.223c0,0-1.804,0.188-2.659,0.188c-21.559,0-25.195-27.576-10.731-27.576
	c13.672,0,21.464,22.209,10.825,22.209c-7.652,0-11.526-7.932-11.526-9.611c0-1.679,1.495-1.68,1.495-1.68
	c-1.354,1.446,2.193,10.965,9.938,10.965c10.174,0,2.66-21.604-10.777-21.604c-13.531,0-10.125,27.017,10.404,27.017
	c0.467,0,1.734-0.01,2.848-0.141C96.967,53.943,97.387,54.084,96.757,54.223z M81.266,52.264
	c-10.451-4.167-11.013-13.873-14.869-13.873c-0.746,0-1.369,1.307,0,1.307c5.537,0,2.924-16.985-6.406-16.985
	c-7.219,0-6.657,12.816,3.855,13.937c0,0-8.334-1.369-8.334-8.462c0-9.207,13.373-5.35,13.373,6.595
	c0,0.747,0.374,4.604-2.675,4.604c-0.935,0,0.194-2.223,2.364,1.928C71.438,46.79,75.105,50.335,81.266,52.264z"/>
</svg>
