<svg xmlns="http://www.w3.org/2000/svg" xmlns:se="http://svg-edit.googlecode.com" xmlns:xlink="http://www.w3.org/1999/xlink" id="svgcontent" width="205.65" height="395.85" x="0" y="0" viewBox="0 0 205.65 395.85" overflow="hidden"><g mask="" style="pointer-events:all"><title style="pointer-events:inherit">Layer 1</title><g id="svg_1" type="text" text="SHOWER" font-size="37.30382088235294" font-family="Afta sans" fill="ffff00" text-anchor="start" font-weight="normal" font-style="normal" lineHeight="1" shapeId="0" shapeVal="0" fill-opacity="1" display="null" elemBBoxWidth="162.6796875" stroke="null" stroke-dasharray="none" style="pointer-events:inherit"><path id="svg_14" fill="#ffff00" stroke-width="0" d="M35.83607,174.75859C35.83607,174.75859 35.83607,176.66104 35.83607,176.66104C32.3669,175.05701 30.09142,174.79589 27.36831,174.79589C23.97374,174.79589 21.06412,176.66104 21.06412,179.94369C21.06412,183.07714 23.19038,184.34544 26.88337,185.42722C31.024,186.62092 36.65674,188.44876 36.65674,194.1188C36.65674,199.97536 30.16603,201.20636 26.58495,201.20636C22.22051,201.20636 19.42279,199.93806 18.11718,199.04279C18.11718,199.04279 18.11718,196.5808 18.11718,196.5808C19.98233,197.96101 23.15308,199.41582 26.58495,199.41582C30.65097,199.41582 33.82172,197.06574 33.82172,194.1188C33.82172,192.40287 33.48599,189.49324 27.03258,187.74C21.36254,186.17328 18.11718,184.19623 18.11718,179.90639C18.11718,176.43722 21.32524,173.19186 27.40561,173.19186C32.25499,173.19186 34.41856,174.04983 35.83607,174.75859C35.83607,174.75859 35.83607,174.75859 35.83607,174.75859M60.97824,186.24789C60.97824,186.24789 60.97824,173.78871 60.97824,173.78871C60.97824,173.78871 63.40294,173.78871 63.40294,173.78871C63.40294,173.78871 63.40294,200.4603 63.40294,200.4603C63.40294,200.4603 60.97824,200.4603 60.97824,200.4603C60.97824,200.4603 60.97824,187.92652 60.97824,187.92652C60.97824,187.92652 44.11732,187.92652 44.11732,187.92652C44.11732,187.92652 44.11732,200.4603 44.11732,200.4603C44.11732,200.4603 41.43151,200.4603 41.43151,200.4603C41.43151,200.4603 41.43151,173.78871 41.43151,173.78871C41.43151,173.78871 44.11732,173.78871 44.11732,173.78871C44.11732,173.78871 44.11732,186.24789 44.11732,186.24789C44.11732,186.24789 60.97824,186.24789 60.97824,186.24789C60.97824,186.24789 60.97824,186.24789 60.97824,186.24789M70.6024,187.14316C70.6024,199.93806 79.96544,199.52773 81.75597,199.52773C83.28539,199.52773 93.24528,199.49043 93.24528,187.14316C93.24528,174.60938 83.2481,174.83319 81.71867,174.83319C79.92813,174.83319 70.6024,174.9078 70.6024,187.14316C70.6024,187.14316 70.6024,187.14316 70.6024,187.14316M81.75597,173.19186C91.49203,173.19186 95.74458,178.04124 95.74458,187.18046C95.74458,195.08868 91.82776,201.20636 81.75597,201.20636C71.49767,201.20636 67.69277,195.57362 67.69277,187.18046C67.69277,178.04124 72.84058,173.19186 81.75597,173.19186C81.75597,173.19186 81.75597,173.19186 81.75597,173.19186M97.3486,173.78871C97.3486,173.78871 100.10901,173.78871 100.10901,173.78871C100.10901,173.78871 109.13632,198.63246 109.13632,198.63246C109.13632,198.63246 115.55243,173.78871 115.55243,173.78871C115.55243,173.78871 118.61126,173.78871 118.61126,173.78871C118.61126,173.78871 124.87816,198.70707 124.87816,198.70707C124.87816,198.70707 133.71896,173.78871 133.71896,173.78871C133.71896,173.78871 136.55398,173.78871 136.55398,173.78871C136.55398,173.78871 126.85521,200.4603 126.85521,200.4603C126.85521,200.4603 123.23683,200.4603 123.23683,200.4603C123.23683,200.4603 117.08184,175.13162 117.08184,175.13162C117.08184,175.13162 110.85226,200.4603 110.85226,200.4603C110.85226,200.4603 107.23387,200.4603 107.23387,200.4603C107.23387,200.4603 97.3486,173.78871 97.3486,173.78871M139.72472,200.4603C139.72472,200.4603 139.72472,173.82601 139.72472,173.82601C139.72472,173.82601 155.20544,173.82601 155.20544,173.82601C155.20544,173.82601 155.20544,175.39274 155.20544,175.39274C155.20544,175.39274 142.07481,175.39274 142.07481,175.39274C142.07481,175.39274 142.07481,186.09868 142.07481,186.09868C142.07481,186.09868 151.81087,186.09868 151.81087,186.09868C151.81087,186.09868 151.81087,187.7027 151.81087,187.7027C151.81087,187.7027 142.07481,187.7027 142.07481,187.7027C142.07481,187.7027 142.07481,198.85628 142.07481,198.85628C142.07481,198.85628 156.1007,198.85628 156.1007,198.85628C156.1007,198.85628 156.1007,200.4603 156.1007,200.4603C156.1007,200.4603 139.72472,200.4603 139.72472,200.4603C139.72472,200.4603 139.72472,200.4603 139.72472,200.4603M163.18826,185.65104C163.18826,185.65104 169.79087,185.65104 169.79087,185.65104C174.75217,185.65104 176.09507,182.70411 176.09507,180.50324C176.09507,178.15315 174.49104,175.43004 169.79087,175.43004C169.79087,175.43004 163.18826,175.43004 163.18826,175.43004C163.18826,175.43004 163.18826,185.65104 163.18826,185.65104C163.18826,185.65104 163.18826,185.65104 163.18826,185.65104M160.83818,173.78871C160.83818,173.78871 169.79087,173.78871 169.79087,173.78871C175.83396,173.78871 178.63168,176.51182 178.63168,180.16751C178.63168,184.34544 175.42363,186.28519 172.84973,186.58361C175.42363,187.18046 176.16968,188.9337 176.95305,190.87345C176.95305,190.87345 180.79525,200.4603 180.79525,200.4603C180.79525,200.4603 178.33325,200.4603 178.33325,200.4603C175.34902,192.92511 174.26723,190.202 174.08071,189.79167C173.33467,188.18764 172.36477,187.47888 170.68616,187.47888C170.68616,187.47888 163.18826,187.47888 163.18826,187.47888C163.18826,187.47888 163.18826,200.4603 163.18826,200.4603C163.18826,200.4603 160.83818,200.4603 160.83818,200.4603C160.83818,200.4603 160.83818,173.78871 160.83818,173.78871C160.83818,173.78871 160.83818,173.78871 160.83818,173.78871" style="pointer-events:inherit"/><rect id="svg_15" x="18.117185297832066" y="173.19140528375283" width="162.67577941017225" height="28.01266336487606" fill="#000000" opacity="0" style="pointer-events:inherit"/></g><g type="text" text="Jenny's" font-size="31.111598009575097" font-family="Afta sans" fill="ffff00" text-anchor="start" font-weight="normal" font-style="normal" lineHeight="1" shapeId="0" shapeVal="0" fill-opacity="1" display="null" elemBBoxWidth="97.4140625" id="svg_4" style="pointer-events:inherit"><path fill="#ffff00" stroke-width="0" d="M19.98623,79.62559C19.98623,79.62559 21.91514,79.62559 21.91514,79.62559C21.91514,79.62559 21.91514,102.58595 21.91514,102.58595C21.91514,107.00381 19.33289,107.99937 18.11953,108.24825C18.11953,108.24825 18.11953,107.09714 18.11953,107.09714C19.45732,105.75931 19.98623,104.57709 19.98623,102.58595C19.98623,102.58595 19.98623,79.62559 19.98623,79.62559C19.98623,79.62559 19.98623,79.62559 19.98623,79.62559M38.1865,92.38134C38.03094,89.33238 36.97316,86.78123 33.64421,86.78123C30.03526,86.78123 28.63525,89.51909 28.63525,92.41245C28.63525,92.41245 38.1865,92.38134 38.1865,92.38134M33.64421,101.1237C36.16425,101.1237 37.75094,99.56813 38.40429,98.60367C39.36875,99.35031 39.55542,99.53702 39.77319,99.69257C37.87539,101.9326 35.63535,102.39928 33.64421,102.39928C28.10635,102.39928 26.33299,99.22588 26.33299,94.21692C26.33299,88.64795 28.57303,85.3501 33.64421,85.3501C37.87539,85.3501 40.05321,88.02573 40.02209,93.71913C40.02209,93.71913 28.38635,93.68803 28.38635,93.68803C28.38635,98.04366 28.69746,101.1237 33.64421,101.1237C33.64421,101.1237 33.64421,101.1237 33.64421,101.1237M54.73788,101.90149C54.73788,101.90149 54.73788,91.94577 54.73788,91.94577C54.73788,88.71017 53.43118,86.87457 50.81782,86.87457C47.98666,86.87457 45.49773,89.11462 45.49773,91.60355C45.49773,91.60355 45.49773,101.90149 45.49773,101.90149C45.49773,101.90149 43.44436,101.90149 43.44436,101.90149C43.44436,101.90149 43.44436,85.78567 43.44436,85.78567C43.44436,85.78567 45.27995,85.78567 45.27995,85.78567C45.27995,85.78567 45.46661,88.99017 45.46661,88.99017C46.27554,87.03016 49.23112,85.31898 51.75116,85.31898C54.70676,85.31898 56.72902,87.52795 56.72902,92.16356C56.72902,92.16356 56.72902,101.90149 56.72902,101.90149C56.72902,101.90149 54.73788,101.90149 54.73788,101.90149C54.73788,101.90149 54.73788,101.90149 54.73788,101.90149M72.22258,101.90149C72.22258,101.90149 72.22258,91.94577 72.22258,91.94577C72.22258,88.71017 70.9159,86.87457 68.30254,86.87457C65.47137,86.87457 62.98245,89.11462 62.98245,91.60355C62.98245,91.60355 62.98245,101.90149 62.98245,101.90149C62.98245,101.90149 60.92908,101.90149 60.92908,101.90149C60.92908,101.90149 60.92908,85.78567 60.92908,85.78567C60.92908,85.78567 62.76466,85.78567 62.76466,85.78567C62.76466,85.78567 62.95133,88.99017 62.95133,88.99017C63.76024,87.03016 66.71583,85.31898 69.23587,85.31898C72.19147,85.31898 74.21372,87.52795 74.21372,92.16356C74.21372,92.16356 74.21372,101.90149 74.21372,101.90149C74.21372,101.90149 72.22258,101.90149 72.22258,101.90149C72.22258,101.90149 72.22258,101.90149 72.22258,101.90149M83.85833,103.5193C83.85833,103.5193 76.79601,85.78567 76.79601,85.78567C76.79601,85.78567 78.91158,85.78567 78.91158,85.78567C78.91158,85.78567 84.91612,101.90149 84.91612,101.90149C84.91612,101.90149 90.14287,85.78567 90.14287,85.78567C90.14287,85.78567 92.25848,85.78567 92.25848,85.78567C92.25848,85.78567 84.13834,108.49713 84.13834,108.49713C84.13834,108.49713 82.33387,108.49713 82.33387,108.49713C82.33387,108.49713 83.85833,103.5193 83.85833,103.5193M97.95187,86.56348C97.95187,86.56348 96.55187,86.56348 96.55187,86.56348C96.55187,86.56348 96.55187,79.19002 96.55187,79.19002C96.55187,79.19002 97.95187,79.19002 97.95187,79.19002C97.95187,79.19002 97.95187,86.56348 97.95187,86.56348C97.95187,86.56348 97.95187,86.56348 97.95187,86.56348M108.71649,85.47456C111.54765,85.47456 113.5388,86.43902 114.68991,86.93681C114.68991,87.40349 114.72105,88.02573 114.72105,88.43017C112.69878,87.55905 110.83209,86.78123 108.71649,86.78123C107.06759,86.78123 105.35645,87.15459 105.35645,89.55019C105.35645,91.54134 106.50755,91.97688 108.99652,92.59913C113.38324,93.71913 115.52995,95.08806 115.52995,97.60809C115.52995,100.5948 112.94766,102.36813 109.15205,102.36813C105.91645,102.36813 103.55198,101.09259 102.77419,100.56371C102.77419,99.8481 102.8053,99.25699 102.8053,98.54145C104.70309,99.66145 106.8187,100.81256 109.15205,100.81256C111.36098,100.81256 113.35213,100.19035 113.35213,97.60809C113.35213,95.49249 110.67651,94.80803 107.56538,93.93691C104.14309,92.97245 103.14751,91.63467 103.14751,89.48795C103.14751,87.9946 104.08087,85.47456 108.71649,85.47456C108.71649,85.47456 108.71649,85.47456 108.71649,85.47456" id="svg_5" style="pointer-events:inherit"/><rect x="18.117185684852302" y="79.19140694895759" width="97.41406132373959" height="29.30859161540866" fill="#ffff00" opacity="0" id="svg_6" style="pointer-events:inherit"/></g><g type="text" text="BABY" font-size="58.50971568072731" font-family="Bebas Neue" fill="ffff00" text-anchor="start" font-weight="normal" font-style="normal" lineHeight="1" shapeId="0" shapeVal="0" fill-opacity="1" display="null" elemBBoxWidth="91.828125" stroke="null" stroke-dasharray="none" id="svg_11" style="pointer-events:inherit"><path id="svg_16" fill="#ffff00" stroke-width="0" d="M18.12792,120.33014C28.69217,120.00508 37.46863,119.35498 37.46863,131.21945C37.46863,135.44515 36.16842,138.20811 33.24293,139.50832C41.20675,142.59634 40.23159,163.23726 28.36712,161.28694C28.36712,161.28694 18.12792,161.28694 18.12792,161.28694C18.12792,161.28694 18.12792,120.33014 18.12792,120.33014C18.12792,120.33014 18.12792,120.33014 18.12792,120.33014M31.61766,151.37279C31.61766,145.03424 30.80502,141.7837 24.629,142.92139C24.629,142.92139 24.629,155.43597 24.629,155.43597C28.52965,155.43597 31.61766,156.2486 31.61766,151.37279C31.61766,151.37279 31.61766,151.37279 31.61766,151.37279M30.96755,132.68219C30.96755,127.3188 29.66734,125.36847 24.629,126.18111C24.629,126.18111 24.629,137.07042 24.629,137.07042C28.52965,137.23295 30.96755,137.07042 30.96755,132.68219C30.96755,132.68219 30.96755,132.68219 30.96755,132.68219M56.15924,120.33014C56.15924,120.33014 62.82284,161.28694 62.82284,161.28694C62.82284,161.28694 56.32176,161.28694 56.32176,161.28694C56.32176,161.28694 55.18407,153.8107 55.18407,153.8107C55.18407,153.8107 47.22025,153.8107 47.22025,153.8107C47.22025,153.8107 46.08256,161.28694 46.08256,161.28694C46.08256,161.28694 40.23159,161.28694 40.23159,161.28694C40.23159,161.28694 46.73267,120.33014 46.73267,120.33014C46.73267,120.33014 56.15924,120.33014 56.15924,120.33014C56.15924,120.33014 56.15924,120.33014 56.15924,120.33014M51.1209,127.64385C51.1209,127.64385 48.03289,148.28478 48.03289,148.28478C48.03289,148.28478 54.20891,148.28478 54.20891,148.28478C54.20891,148.28478 51.1209,127.64385 51.1209,127.64385M65.5858,120.33014C76.15005,120.00508 84.92651,119.35498 84.92651,131.21945C84.92651,135.44515 83.6263,138.20811 80.70081,139.50832C88.66463,142.59634 87.68947,163.23726 75.825,161.28694C75.825,161.28694 65.5858,161.28694 65.5858,161.28694C65.5858,161.28694 65.5858,120.33014 65.5858,120.33014C65.5858,120.33014 65.5858,120.33014 65.5858,120.33014M79.07554,151.37279C79.07554,145.03424 78.2629,141.7837 72.08688,142.92139C72.08688,142.92139 72.08688,155.43597 72.08688,155.43597C75.98752,155.43597 79.07554,156.2486 79.07554,151.37279C79.07554,151.37279 79.07554,151.37279 79.07554,151.37279M78.42543,132.68219C78.42543,127.3188 77.12522,125.36847 72.08688,126.18111C72.08688,126.18111 72.08688,137.07042 72.08688,137.07042C75.98752,137.23295 78.42543,137.07042 78.42543,132.68219C78.42543,132.68219 78.42543,132.68219 78.42543,132.68219M95.32824,161.28694C95.32824,161.28694 95.32824,147.63467 95.32824,147.63467C95.32824,147.63467 87.20189,120.33014 87.20189,120.33014C87.20189,120.33014 94.02802,120.33014 94.02802,120.33014C94.02802,120.33014 98.90384,139.02074 98.90384,139.02074C98.90384,139.02074 103.77964,120.33014 103.77964,120.33014C103.77964,120.33014 109.95567,120.33014 109.95567,120.33014C109.95567,120.33014 101.82932,147.63467 101.82932,147.63467C101.82932,147.63467 101.82932,161.28694 101.82932,161.28694C101.82932,161.28694 95.32824,161.28694 95.32824,161.28694C95.32824,161.28694 95.32824,161.28694 95.32824,161.28694" style="pointer-events:inherit"/><rect id="svg_17" x="18.128906585276127" y="120.19531543552876" width="91.8281264603138" height="41.21980940550566" fill="#000000" opacity="0" style="pointer-events:inherit"/></g><g id="svg_21" fill-opacity="1" display="null" stroke-opacity="1" style="pointer-events:inherit" clip-id="138"><path fill="#010101" d="M177.53012,119.38466C177.32532,119.28387 177.38176,118.84198 177.30516,118.69281C177.21889,118.52751 176.97778,118.29367 177.03261,118.02274C177.07051,117.94128 177.10841,117.85823 177.1463,117.77356C177.09227,117.45828 176.90359,117.16478 176.8407,116.8898C176.83586,116.72855 176.83102,116.56566 176.82941,116.40277C176.76489,116.23828 176.59073,116.18182 176.50041,116.05362C176.46736,115.96492 176.43108,115.87703 176.39963,115.79155C176.33028,115.7343 176.26416,115.67706 176.19319,115.62141C176.06096,115.37225 176.42221,115.0723 176.3085,114.79329C176.19319,114.52075 175.88678,114.58768 175.63924,114.43365C175.57069,114.38931 175.52231,114.26997 175.47151,114.20708C175.43442,114.16272 175.33604,114.12643 175.28766,114.09258C175.02156,113.89502 174.81836,113.57892 174.5305,113.40152C174.25957,113.23784 173.91928,113.24106 173.65802,113.10962C173.46692,113.01205 173.27098,112.98303 173.06939,112.89352C172.96698,112.84595 172.8541,112.72984 172.72991,112.7C172.42834,112.62502 172.25255,112.6613 171.93727,112.64517C171.84776,112.65082 171.75745,112.65887 171.66795,112.66693C170.4173,112.4202 168.9449,113.05319 168.37158,113.68617C168.22401,113.84583 168.0821,114.1732 168.0313,114.34174C167.94824,114.61267 168.16838,114.78845 168.11113,114.97633C168.09178,115.03842 168.03937,115.11583 168.02162,115.19162C168.01598,115.25211 168.01357,115.31419 168.00791,115.37306C167.96034,115.50772 167.86761,115.56981 167.85068,115.72462C167.86197,115.80768 167.87245,115.89154 167.88374,115.97459C167.86681,116.09555 167.79424,116.50195 167.74747,116.56161C167.65877,116.68741 167.48217,116.7753 167.35316,116.82288C167.31686,116.82449 167.28381,116.83095 167.24995,116.83417C167.20317,116.88174 167.20317,116.9398 167.14754,116.98174C167.17173,117.13655 167.10399,117.43974 167.0677,117.59294C167.01126,117.8526 167.12738,118.07837 167.17173,118.24931C167.20641,118.39526 167.14028,118.40575 167.26123,118.48961C167.24833,118.50655 167.23865,118.52509 167.22655,118.54283C167.35155,118.767 167.30477,118.79361 167.2943,119.06293C167.14028,119.13388 167.12093,119.31934 166.93385,119.32419C166.9137,119.36853 166.91692,119.34999 166.93385,119.39192C166.88063,119.41934 166.86612,119.3903 166.85322,119.47174C166.76532,119.44272 166.70646,119.32257 166.63712,119.26854C166.32184,119.02341 165.9743,118.77184 165.67514,118.54283C165.62837,118.50897 165.57273,118.42268 165.52677,118.39607C164.9212,118.03079 164.44948,117.57037 163.89713,117.16235C163.60443,116.94383 163.27946,116.76079 163.00288,116.57372C162.86742,116.44954 162.73034,116.32375 162.59487,116.19957C162.47714,116.1286 162.33362,116.09636 162.23282,116.00604C161.99171,115.78833 161.94011,115.43837 161.76836,115.14647C161.61273,114.87715 161.31197,114.67314 161.21359,114.35384C161.27971,114.18369 161.40469,114.20868 161.49742,114.08289C161.52242,114.05225 161.5313,113.99823 161.5313,113.92485C161.41115,113.7531 161.17488,113.72246 160.99748,113.60715C160.84831,113.45877 160.69672,113.31363 160.54431,113.16365C160.30482,113.00238 160.03873,112.92175 159.82182,112.74596C159.57105,112.54761 159.54121,112.10088 159.28882,111.89767C159.05095,111.70657 158.78405,111.62917 158.50667,111.46628C158.23573,111.30663 157.98979,111.09697 157.72369,110.93248C157.54308,110.83975 157.36325,110.74541 157.18182,110.64944C156.72784,110.27933 156.37871,109.76166 155.84489,109.47298C155.36914,109.21495 154.9192,108.91982 154.487,108.66904C154.23945,108.52632 153.88707,108.39488 153.67017,108.22716C152.97105,107.67885 152.24211,107.15875 151.5172,106.64107C151.33174,106.50883 151.18579,106.27257 150.99791,106.14435C150.17381,105.5791 149.55534,104.78726 148.72077,104.24055C148.00957,103.77449 147.19515,103.43823 146.48959,102.98265C146.1856,102.78751 145.7784,102.67543 145.47037,102.45126C144.85028,102.00052 144.29874,101.43526 143.76089,100.89984C143.71896,100.8821 143.67703,100.86275 143.6351,100.8434C143.43674,100.69099 143.2537,100.49828 143.06985,100.35555C142.95616,100.26765 142.88359,100.08704 142.76505,100.00479C142.35301,99.72418 142.0345,99.31454 141.71115,98.9404C141.63858,98.89525 141.56681,98.8501 141.49425,98.80493C141.20798,98.36548 140.78626,98.04697 140.46372,97.63734C140.09119,97.164 139.82751,96.6423 139.50336,96.14317C139.23242,95.73273 138.951,95.34164 138.63088,94.98686C138.59621,94.95218 138.48493,94.78043 138.45994,94.71593C138.43736,94.65706 138.45832,94.52724 138.40268,94.46837C138.33575,94.44499 138.26802,94.4216 138.20029,94.39903C138.09547,94.33049 138.05273,94.09987 137.99709,93.97972C138.0487,93.94022 138.23013,93.8636 138.35915,93.9007C138.37447,93.9128 138.3914,93.92409 138.4035,93.93457C138.60589,93.9007 138.89618,93.81845 139.10825,93.86765C139.37918,93.92973 139.5598,94.10551 139.8896,93.93457C140.1178,93.81683 140.1307,93.46124 140.20569,93.19836C140.28069,92.9355 140.46533,92.96371 140.60161,92.76778C140.7016,92.62585 140.65321,92.37912 140.79352,92.27994C140.89835,92.2114 141.01204,92.2767 141.15638,92.2372C141.28217,92.19043 141.40555,92.14607 141.52972,92.10092C141.66116,92.10979 141.83452,92.17592 141.92645,92.1227C141.97563,92.16623 142.34737,92.20656 142.41348,92.18076C142.58362,92.11462 142.69652,91.92514 142.83359,91.8187C143.04567,91.65259 143.34079,91.53325 143.56898,91.35344C144.11086,90.9301 144.34872,90.18825 144.69062,89.56332C144.83818,89.29482 144.77448,88.99567 144.89383,88.76021C144.91882,88.73441 144.93333,88.73924 144.98413,88.73924C145.00107,88.66344 144.99945,88.43767 145.00752,88.42073C145.03413,88.39734 145.06074,88.37477 145.08734,88.35219C145.15588,88.22156 145.13089,88.10384 145.17685,87.97885C145.23734,87.8208 145.3478,87.85628 145.3478,87.58293C145.35587,87.57809 145.36392,87.57567 145.37119,87.57164L145.42682,87.57164C145.42279,87.59663 145.41956,87.62405 145.41634,87.64986L145.42682,87.64986C145.45827,87.57486 145.50746,87.42407 145.58487,87.41278C145.56955,87.20233 145.65985,86.54434 145.53971,86.33711C145.50906,86.31857 145.47842,86.29921 145.4494,86.27986C145.40747,86.1823 145.36554,86.08473 145.32361,85.98636C145.23329,85.94926 144.97043,85.8412 144.91721,85.73558C144.89866,85.67671 144.8793,85.61543 144.86076,85.55415C144.82045,85.50899 144.74384,85.50012 144.7253,85.42836C144.7019,85.34531 144.66724,85.19531 144.61079,85.10258C144.59064,85.06792 144.52855,85.0784 144.49871,85.03404C144.49146,84.99373 144.48178,84.95261 144.47533,84.91068C144.43823,84.901 144.40517,84.89616 144.37212,84.88649C144.31164,84.84375 144.09392,84.53815 144.07699,84.39944C143.99232,84.38896 143.85686,84.36397 143.81734,84.28737L143.81734,84.17368C143.77299,84.10754 143.69235,84.12772 143.69155,84.0374C143.64075,84.05029 143.64881,84.05029 143.62382,84.08255C143.55769,84.07047 143.59317,84.06723 143.55608,84.07047C143.48431,83.99789 143.3045,83.89951 143.26257,83.81081C143.13597,83.55762 143.14,83.22298 143.10292,82.90527L143.0126,82.90527C143.07227,82.64966 142.48605,82.38599 142.35704,82.27068C142.22803,82.15536 142.01514,81.9554 141.83533,81.90701C141.70873,81.87718 141.5652,81.88524 141.41603,81.82961C141.35797,81.80621 141.25556,81.71591 141.20154,81.68285C141.05801,81.59415 140.86125,81.66269 140.70321,81.61592C140.57016,81.57237 140.43873,81.53206 140.30568,81.49094C140.11861,81.45546 139.90492,81.44174 139.70575,81.47804C139.6606,81.4861 139.61624,81.49174 139.57109,81.50142C139.3566,81.43771 139.07437,81.4482 138.86795,81.50142C138.40511,81.61995 137.89629,81.75381 137.49796,81.97636C137.20284,82.14247 136.88351,82.38034 136.58033,82.51904C136.2981,82.64725 136.13844,82.76256 135.91187,82.90448C135.80946,82.96898 135.61916,82.9843 135.53852,83.07542C135.52643,83.1109 135.51595,83.1496 135.50385,83.1875C135.46918,83.24878 135.39177,83.28587 135.3458,83.33426C135.27,83.4165 135.26517,83.49634 135.20872,83.58423C135.10873,83.74147 134.86279,83.90112 134.81361,84.0253C134.73943,84.21077 134.58138,84.39058 134.46284,84.54701C134.40076,84.60265 134.3419,84.6599 134.28142,84.71634C134.25803,84.81876 134.23627,84.91954 134.21288,85.02196C134.15724,85.17758 134.04677,85.25661 133.97501,85.4082C133.79842,85.78395 133.50087,86.54758 133.05737,86.57257L133.05737,86.6524C133.03157,86.64917 133.00496,86.64514 132.97836,86.64192L132.97836,86.70885C132.82596,86.83141 132.52357,87.10396 132.52518,87.36522C132.63565,87.37892 132.59534,87.3886 132.7179,87.37811C132.72758,87.68936 132.49857,87.78371 132.42358,87.96594C132.37278,88.04578 132.49857,88.35622 132.53809,88.47556C132.49938,88.62231 132.32037,88.70941 132.30102,88.77956C132.27118,88.77713 132.27682,88.77713 132.24457,88.75859C132.18974,88.80617 132.16071,88.82713 132.12926,88.90535C132.14458,88.91341 132.16071,88.92229 132.17442,88.92873C132.16797,88.94405 132.1599,88.95776 132.15265,88.97227C132.12281,88.98114 132.19539,89.07146 132.22038,89.09807C132.18571,89.11984 132.20425,89.09807 132.197,89.13274C132.14862,89.16096 132.15265,89.15854 132.07281,89.15613L132.07281,89.34642C132.16555,89.44238 132.16071,89.52301 132.35585,89.52785C132.37278,89.54881 132.35747,89.53511 132.38004,89.55043C132.38004,89.90845 132.07766,89.97699 131.92687,90.18584C131.61401,90.61481 131.38903,91.08815 131.1689,91.56631C131.10519,91.70097 130.88425,91.8187 130.90845,91.98561C130.78024,92.09206 130.58752,92.16704 130.51172,92.35895C130.46495,92.37912 130.46737,92.37669 130.4206,92.35895C130.27707,92.55731 130.05613,92.69359 129.88841,92.89114C129.67392,93.14595 129.26349,93.70233 129.15302,93.98859C128.89579,94.66592 128.65791,95.32069 128.41602,96.02786C128.21684,96.61327 128.20152,97.13579 128.03219,97.64702L128.03219,97.83812C128.00478,98.0518 127.97736,98.26306 127.95155,98.47433L127.95155,98.96056C127.92333,99.08232 127.92656,99.17424 127.93865,99.27988C128.09025,99.41373 128.20394,99.60242 128.23297,99.84755C128.54341,102.47304 129.50539,104.81952 129.46265,107.50386C129.43282,109.43347 129.25703,111.37033 128.77806,113.24348L129.05142,111.74448C129.05142,111.74448 124.46973,120.38051 126.75977,124.25665L126.79605,124.06311C127.12988,126.1427 127.45081,128.13762 128.59663,129.93982C128.60389,129.94223 128.61437,129.94547 128.62163,129.94707C128.76113,129.98175 128.95949,129.90515 129.11996,129.86725C129.21188,129.84225 129.3038,129.85355 129.38928,129.8745C129.60377,129.80354 129.82149,129.73419 130.03839,129.6721C130.14322,130.82922 130.14967,131.86862 129.90776,132.29114C129.90776,132.29114 128.06767,136.30516 128.23539,137.3647C128.23539,137.3647 128.51439,141.37793 129.12721,143.72119C129.12721,143.72119 130.07387,149.68658 128.29022,149.85431C128.29022,149.85431 127.00086,150.59534 127.14439,151.4912L127.14037,151.4912C127.14037,151.4912 127.14278,151.50168 127.14439,151.50491C127.1573,151.58151 127.18068,151.65649 127.21455,151.73148C127.43549,152.45801 128.0467,154.70532 127.82173,156.58331L128.41279,156.62927L128.19507,152.56284C128.84177,152.89667 130.05129,153.65463 130.29482,154.70773C130.29482,154.70773 131.01972,157.66141 132.4131,157.55093C132.4131,157.55093 133.12833,157.55093 133.88953,157.53159C133.88631,157.55737 133.8855,157.58481 133.88228,157.61464L134.47253,157.65979L134.46527,157.51385C135.0531,157.48965 135.5611,157.44934 135.64738,157.38402C135.64738,157.38402 135.98685,156.66153 134.81039,156.66153C134.73137,156.66153 134.58783,156.63008 134.41528,156.5817L134.26045,153.67398C135.39257,154.42389 136.59565,156.19547 136.59565,156.19547C137.93178,158.57501 139.64285,158.38873 139.64285,158.38873C141.87323,158.35245 142.20706,157.72107 142.20706,157.72107C143.1384,157.16147 140.64596,156.71637 140.64596,156.71637C139.12276,156.34625 139.04858,153.77963 139.04858,153.77963C138.45268,152.99826 138.3414,146.90143 138.3414,146.90143C138.3414,145.04361 139.01229,139.20804 139.01229,139.20804C139.08566,137.87109 140.31213,133.85547 140.31213,133.85547C140.64676,133.37245 140.79594,132.7419 140.79594,132.7419C141.08623,132.09439 140.50807,129.03589 140.35002,128.24405C140.56532,128.24969 140.78062,128.25374 140.9943,128.26341C141.55472,126.3064 141.54907,124.20746 141.34506,122.12868C141.34184,122.12062 141.33942,122.11176 141.33458,122.10207L141.33458,122.02628C141.32813,121.95209 141.31926,121.87952 141.3112,121.80533C141.2854,121.72147 141.25556,121.62471 141.24508,121.51505C141.25153,121.47633 141.25878,121.43683 141.26604,121.39893C141.26443,121.39328 141.26443,121.38522 141.26443,121.37958C141.24588,121.33281 141.22815,121.29007 141.21121,121.24249C141.21766,121.21588 141.22734,121.18605 141.23621,121.1546C141.19992,120.86191 141.16042,120.56839 141.1209,120.2773C140.99269,120.17247 140.84029,120.0491 140.81367,120.03297C140.81691,119.94508 140.90238,119.89105 141.02011,119.85153C140.68305,118.91779 140.31858,118.00015 140.01217,117.10913C138.92843,113.94904 139.35902,110.86072 139.94363,107.64497C139.99684,107.35147 140.15731,107.17488 140.35728,107.08859C140.37663,106.55237 140.82738,106.30643 141.26604,106.34998C141.25556,106.29675 141.24104,106.24434 141.23379,106.19435L141.23379,106.18144C141.28943,106.17419 141.34587,106.16774 141.40231,106.16048C141.79904,106.53867 142.35461,106.87491 142.73764,107.24664C142.92632,107.42888 143.01341,107.70706 143.23596,107.85785L143.33836,107.85785C143.38997,107.89091 143.44481,107.97639 143.49722,108.00461C143.74719,108.14653 143.99554,108.20619 144.24471,108.3457C144.50275,108.49165 144.76319,108.72147 145.02687,108.86661C145.39861,109.07141 145.79129,109.2093 146.159,109.43266C146.25737,109.50121 146.35493,109.56894 146.45331,109.63506C146.63716,109.72456 146.8202,109.83907 146.99759,109.90761L147.0871,109.90761C147.45802,110.13257 147.91845,110.38094 148.29825,110.5535C149.07395,110.90587 149.78838,111.22034 150.53023,111.57352C150.79955,111.70012 151.02694,111.7872 151.26643,111.9122C151.289,111.92349 151.35674,111.89365 151.36803,111.90091C151.39302,111.91542 151.41238,111.9888 151.45914,112.01379C151.88167,112.21619 152.22115,112.34842 152.59045,112.61453C152.64609,112.62823 152.70415,112.64598 152.76221,112.65968C152.92751,112.76451 153.37907,113.15076 153.45084,113.32735C153.53792,113.53619 153.55647,113.74019 153.66774,113.9176C153.75079,114.04742 153.87901,114.17804 153.96126,114.32318C154.07898,114.52719 154.02093,114.73361 154.1185,114.93762C154.17978,115.05858 154.44185,115.24323 154.5386,115.29807C154.71117,115.39322 155.82635,115.73108 156.011,115.63673C156.32065,115.48111 156.39806,115.63673 156.73349,115.56981C156.798,115.55852 156.86251,115.54642 156.92783,115.53433C157.20037,115.6069 157.56001,115.55127 157.74225,115.63673C157.88819,115.70609 158.0043,115.79559 158.15106,115.85284C158.2962,115.90848 158.62036,115.95686 158.72761,116.03427C159.0195,116.23747 158.97596,116.79305 159.05659,117.09705C159.13723,117.39619 159.23158,117.69778 159.43155,118.00418C159.39849,118.0316 159.6283,118.692 159.65733,118.76216C159.67668,118.81134 159.70732,118.80247 159.73715,118.84198C159.82989,118.96616 159.82101,119.22823 159.90569,119.31773C159.92907,119.34354 159.96213,119.32338 159.97342,119.36369C159.9702,119.39273 159.96536,119.42418 159.96213,119.45401C159.98471,119.49997 160.06776,119.57013 160.0976,119.62253C160.1105,119.67979 160.12099,119.73785 160.13227,119.79268C160.17178,119.81686 160.20807,119.83864 160.24596,119.86041C160.30885,119.96846 160.31612,120.12651 160.37015,120.2007C160.37982,120.216 160.46126,120.24907 160.48465,120.27971C160.53464,120.35471 160.50723,120.44662 160.55238,120.51678C160.55238,120.49744 160.733,120.62241 160.7451,120.64096C160.77493,120.69176 160.75639,120.80142 160.81122,120.85867C160.95475,120.99092 161.04748,121.19734 161.19746,121.32314C161.24261,121.33281 161.28616,121.34329 161.33212,121.3562C161.54016,121.51181 161.78288,121.67389 161.97963,121.7626C162.09171,121.8013 162.2046,121.8392 162.31829,121.87549C162.34813,121.90451 162.33281,121.88919 162.32957,121.93353C162.50294,121.91418 163.04723,122.15207 163.21495,122.23996C163.26414,122.20206 163.80279,122.40848 163.80279,122.40848C163.96326,122.42058 164.15597,122.50282 164.28983,122.56572C164.38982,122.61652 164.54141,122.55362 164.65026,122.6004C164.89378,122.70683 165.47356,122.83344 165.79448,122.83989C165.8606,122.97858 165.75013,123.88976 165.68078,124.07278C165.65417,124.05989 165.62918,124.04941 165.60095,124.03973C165.57193,124.32115 165.54208,124.6066 165.51064,124.88882C165.49935,124.97672 165.48726,125.07106 165.47597,125.15976C165.45903,125.19766 165.40823,125.23395 165.39775,125.28394C165.38889,125.56374 165.38082,125.84354 165.37679,126.12173C165.33486,126.13867 165.32841,126.13383 165.30743,126.16931C165.29292,126.18947 165.31873,126.58377 165.31873,126.70151C165.30018,126.70313 165.28244,126.70956 165.26228,126.71118C165.16068,126.92889 165.28889,127.14499 165.24051,127.4127C165.19778,127.64897 165.19778,127.90297 165.24051,128.16101L165.24051,128.694C165.26389,128.83833 165.30824,129.05766 165.27518,129.19153C165.29695,129.20764 165.31953,129.22136 165.34292,129.23828C165.17923,129.55841 165.24535,130.14381 165.30824,130.50507C165.31147,130.68327 165.31631,130.85905 165.31953,131.03888C165.37759,131.19772 165.4421,131.259 165.48967,131.38882C165.47516,131.47269 165.45984,131.55576 165.44371,131.638C165.49371,131.75894 165.48323,131.85088 165.50096,131.9686C165.46952,132.01376 165.49371,132.0081 165.44371,132.01376C165.44855,132.03149 165.45178,132.05246 165.45661,132.0694C165.47838,132.09601 165.49371,132.08551 165.55821,132.08229C165.57756,132.28792 165.6187,132.36209 165.63805,132.55724L165.5816,132.55724C165.61627,132.64594 165.55983,132.73141 165.5816,132.77252C165.75336,133.09184 165.71223,133.50389 165.7977,133.7587L165.7977,134.0643C165.78642,134.08124 165.74287,134.06108 165.75174,134.09898C165.80013,134.28363 165.89931,134.46265 165.90012,134.66423C166.02912,134.72552 166.56293,135.79393 166.55568,135.97778C166.55406,136.05841 166.77661,136.39951 166.78307,136.54465L166.78307,136.59061C166.83305,136.64545 166.87499,136.65753 166.90724,136.73656C167.08464,137.4147 167.26042,138.09042 167.43944,138.76614C167.55394,139.13304 167.71359,139.55476 167.66522,139.79747C167.62892,139.9781 167.69505,140.18774 167.61925,140.33934C167.78859,140.40224 167.67489,140.83685 167.80068,141.007C167.78375,141.02394 167.76279,141.03683 167.74423,141.05296C167.76279,141.05699 167.78375,141.06264 167.80068,141.06668C167.76762,141.18439 167.78616,141.44888 167.82166,141.57629C167.83212,141.59161 167.81842,141.59564 167.8789,141.59886C167.88858,141.63112 167.89503,141.6666 167.90067,141.69885C167.88696,141.70853 167.87245,141.71579 167.85471,141.72223C167.9805,142.00285 167.92244,142.30927 168.05952,142.56003C168.03775,142.60277 168.06597,142.57777 168.01517,142.5947C168.1208,142.79791 168.13048,143.01804 168.13935,143.27448C168.16112,143.25916 168.15467,143.25916 168.1958,143.25269C168.2224,143.3551 168.17725,143.52283 168.27481,143.56879C168.26353,143.64215 168.26998,143.63007 168.21837,143.63812L168.21837,143.6841C168.22966,143.67281 168.24014,143.66714 168.25143,143.66071L168.30788,143.66071C168.25627,143.94937 168.25546,144.37109 168.2861,144.6001C168.31352,144.82346 168.39416,145.07828 168.2861,145.23633C168.32401,145.28146 168.36191,145.32582 168.3998,145.37097C168.41754,145.37582 168.43608,145.37904 168.45544,145.38226C168.45544,145.51773 168.49738,145.54274 168.55785,145.60724C168.5022,145.85641 168.5909,146.16846 168.61429,146.36763C168.62881,146.47408 168.50462,146.58293 168.56752,146.69501C168.58607,146.72806 168.71832,147.05545 168.70299,147.11511C168.6925,147.15704 168.65784,147.16916 168.64655,147.20462C168.62396,147.28123 168.69412,147.99727 168.69412,147.99727C168.60785,148.07629 168.65058,148.20047 168.62558,148.2682C168.61752,148.2795 168.61026,148.2916 168.603,148.30289C168.62881,148.42142 168.69655,148.54074 168.71832,148.68912C168.73122,148.78265 168.69574,148.88586 168.67073,148.93668C168.61913,149.05197 168.71589,149.42371 168.63768,149.60594C168.6538,149.68658 168.6659,149.76559 168.68364,149.84381C168.67558,149.90671 168.60785,149.9301 168.62719,150.01395C168.72234,150.44696 168.70461,151.3654 168.60542,151.91454C168.57074,152.38464 168.53769,152.85233 168.50301,153.3192C168.41029,153.58368 168.31514,153.84816 168.21999,154.11104C167.96275,154.31906 167.70554,154.52792 167.45073,154.73273C167.12173,154.77547 166.79274,154.81741 166.46294,154.85852C166.00897,155.00043 165.5574,155.13913 165.10504,155.27863C164.97441,155.41087 164.84702,155.54312 164.7188,155.67615C164.64703,155.74228 164.57608,155.81003 164.5035,155.87856C164.47852,156.09547 164.4519,156.30835 164.42368,156.52283C164.55833,156.66394 164.69542,156.80586 164.8325,156.94295C165.41872,156.88005 166.00816,156.68573 166.55244,156.54782C167.04432,156.42445 167.562,156.38576 168.09419,156.29868L168.62477,156.29868C169.29565,156.29868 169.95123,156.32446 170.33344,156.04709C170.42455,155.91565 170.51648,155.78421 170.60759,155.65277C170.74629,155.46088 170.88659,155.26733 171.0269,155.07544C170.989,154.7924 170.94949,154.51582 170.9124,154.23683C170.80515,153.65384 170.75273,152.98537 170.86723,152.33464C170.99464,151.62747 171.12366,150.92191 171.25348,150.21796C171.36557,149.7648 171.53893,149.29227 171.547,148.74396L171.55909,148.74396C172.17514,149.20035 172.22675,150.05589 172.40818,150.95013C172.48076,151.42427 172.55252,151.89679 172.62347,152.36932C172.45415,153.13373 172.28481,153.89896 172.11386,154.66904C171.76714,155.11414 171.42039,155.55923 171.07205,156.00595C170.42374,156.30997 169.77544,156.61719 169.12552,156.9236C168.88361,157.10422 168.6409,157.28484 168.4006,157.46626C168.38851,157.48239 168.37723,157.49771 168.36755,157.51224C168.47157,157.61867 168.5772,157.7251 168.68445,157.82831C168.85539,157.89444 169.02472,157.95734 169.19486,158.02347C169.3642,158.03796 169.53434,158.05087 169.70448,158.067C170.37456,158.18472 171.02045,158.12828 171.64053,158.01378C171.85098,157.98557 172.06226,157.95894 172.27351,157.93314C172.67831,157.73074 173.08148,157.53159 173.48466,157.3316C173.83058,157.15744 174.47568,156.90344 174.62807,156.57283C174.76192,156.29222 174.93851,155.62616 174.84497,155.16898C174.79095,154.92868 174.73209,154.68436 174.67484,154.44487C174.66113,154.27393 174.645,154.10538 174.62807,153.93605C174.61516,153.81592 174.60065,153.69333 174.58211,153.5732C174.67081,153.14825 174.75708,152.71927 174.84337,152.29352C175.06108,151.29767 175.18042,150.30585 175.5457,149.4866C175.64005,149.34468 175.73438,149.20761 175.82954,149.0665C175.81259,148.9407 175.70374,148.83264 175.65939,148.7375C175.64648,148.71411 175.66263,148.56091 175.65939,148.55688C175.49409,148.31174 175.41507,148.02145 175.31911,147.75294C175.21671,147.46347 175.02156,147.19818 174.89981,146.94901C174.84901,146.84258 174.85545,146.49988 174.8224,146.4523C174.75467,146.36118 174.80304,146.29184 174.76353,146.18056C174.72322,146.06203 174.65871,145.8822 174.59259,145.77173C174.63693,145.7298 174.53372,145.43549 174.52647,145.42017C174.67886,145.26373 174.53534,145.05569 174.59259,144.82025C174.63855,144.6485 174.60548,144.15338 174.54823,143.94777C174.54501,143.76956 174.54018,143.59299 174.53534,143.41638C174.50227,143.21721 174.62001,143.02208 174.54823,142.8616C174.5813,142.8479 174.57082,142.84952 174.60388,142.84952C174.49341,142.39635 174.63855,141.83916 174.72885,141.41098C174.76596,141.23117 174.71434,141.11829 174.73935,140.95781C174.75629,140.86105 174.81917,140.84492 174.84175,140.78767C174.88528,140.68285 174.90787,140.1555 174.86513,140.05148C174.90062,139.99422 174.924,139.93777 175.0127,139.92729C175.02963,139.6991 175.00464,139.33221 175.07964,139.17014C175.1143,139.09433 175.22397,139.01532 175.26186,138.92017C175.32959,138.74921 175.17236,138.51859 175.22881,138.3541C175.27315,138.2267 175.26186,138.09123 175.27718,137.9727C175.57069,137.95981 175.74728,137.62436 175.73438,136.81961C175.74004,136.81638 175.74567,136.81317 175.74969,136.81317C175.7747,136.51723 175.87389,136.04471 175.76181,135.81732C175.76987,135.76491 175.77711,135.71088 175.78357,135.65765C175.6989,135.38269 175.61746,135.06741 175.54327,134.72472C175.51909,134.51103 175.49651,134.3046 175.47635,134.10785C175.47313,133.99094 175.47151,133.8732 175.46184,133.75467C175.45055,133.74419 175.4433,133.73451 175.43201,133.72482C175.03044,130.1535 174.85545,129.46326 174.85545,129.46326C175.30943,126.87245 174.98608,124.02199 174.71193,122.38751C174.71837,122.38348 174.7216,122.37622 174.72806,122.37462C174.72806,122.35768 174.72644,122.34155 174.73047,122.31656C174.7458,122.23189 174.81433,122.19157 174.83289,122.11336C174.88368,121.88274 174.68694,121.71017 174.64015,121.5481C174.62323,121.49327 174.64662,121.35216 174.60548,121.26266L174.60548,121.24249C174.54742,121.16508 174.47083,121.11751 174.44824,121.0264C174.39584,120.8248 174.61678,120.62161 174.62807,120.42647C174.67886,120.40228 174.69418,120.37889 174.73209,120.34503C174.8595,120.32809 174.87804,120.37244 175.00464,120.41518C175.07721,120.65144 175.07721,121.01108 174.87965,121.12558C174.98044,121.21347 175.09334,121.34329 175.2417,121.28363C175.32153,121.32716 175.3546,121.39168 175.38927,121.47795C175.42555,121.46666 175.46506,121.45457 175.50296,121.44489C175.55215,121.48441 175.57875,121.49973 175.64972,121.52393C175.63681,121.61826 175.6086,121.64165 175.60374,121.71503C175.47473,121.72147 175.38121,121.75291 175.31105,121.81662C175.31911,121.88033 175.32718,121.94563 175.33282,122.00934C175.34169,122.02385 175.34976,122.03354 175.3562,122.04562C175.49005,122.04562 175.53441,121.99321 175.63843,121.97467C175.72229,121.98515 175.80534,121.99161 175.89001,121.99725C175.9021,122.00208 175.91177,122.00531 175.92307,122.00934C176.38269,121.84485 177.30032,121.30943 177.4519,120.80869C177.57286,120.39745 177.42934,119.56448 177.53012,119.38466zM135.81429,133.0733C135.81429,133.0733 133.41782,136.01245 133.91856,140.73042C133.99758,141.47711 134.14353,141.9843 134.33141,142.30765C134.28304,142.28668 134.25159,142.27217 134.25159,142.27217S134.43623,142.87451 134.60074,143.57443C134.57735,143.54539 134.56042,143.52686 134.56042,143.52686S134.70153,144.44771 134.81119,145.61691C134.76765,145.70966 134.7749,145.7169 134.81683,145.66772C134.97972,147.43848 135.07084,149.75754 134.50478,150.35585C134.50478,150.35585 133.33879,151.44443 133.36217,151.80728C133.01948,152.38222 133.18639,152.83298 133.37347,153.10068C133.57344,153.81914 133.87744,155.10527 133.92259,156.40913C132.78403,155.62053 132.91546,150.85982 132.91546,150.85982S132.4131,141.32471 133.47265,137.58807C133.47265,137.58807 133.52748,134.0764 134.86603,132.62659C134.86603,132.62659 135.21114,131.59767 135.24259,130.53651C135.52804,130.96227 136.32471,132.28387 135.81429,133.0733zM167.66441,140.63689L167.66441,140.66028C167.68537,140.64334 167.67085,140.65866 167.68779,140.63689L167.66441,140.63689z" id="svg_22" stroke="#ffff00" style="pointer-events:inherit"/></g></g><defs><mask id="canvasMaskImageDef" maskUnits="objectBoundingBox" x="0" y="0"><image xmlns:xlink="http://www.w3.org/1999/xlink" id="canvasMaskImage" preserveAspectRatio="none" x="-103.65" y="-36.45" width="400" height="440.0580551523948" xlink:href="http://allinonedesigner.designnbuy.in/media/catalog/product/w/h/white-tees-1_-front_1_3.png"/></mask></defs></svg>