<?xml version="1.0" encoding="utf-8"?>
<!-- Generator: Adobe Illustrator 16.0.0, SVG Export Plug-In . SVG Version: 6.00 Build 0)  -->
<!DOCTYPE svg PUBLIC "-//W3C//DTD SVG 1.1//EN" "http://www.w3.org/Graphics/SVG/1.1/DTD/svg11.dtd">
<svg version="1.1"
	 id="svg548" xmlns:cc="http://creativecommons.org/ns#" xmlns:dc="http://purl.org/dc/elements/1.1/" xmlns:rdf="http://www.w3.org/1999/02/22-rdf-syntax-ns#"
	 xmlns="http://www.w3.org/2000/svg" xmlns:xlink="http://www.w3.org/1999/xlink" x="0px" y="0px" width="144px" height="108px"
	 viewBox="0 0 144 108" enable-background="new 0 0 144 108" xml:space="preserve">
<path fill="#FFE300" d="M64.846,21.803h79.581v22.232H64.846V21.803z M144.427,65.784H64.846v0.002H0v20.782h144.427V65.784z"/>
<path fill="#D80000" d="M0,0v21.75v22.232v21.75h64.847v-21.75V21.75V0H0z"/>
<path fill="#118600" d="M64.846,44.035h79.581v21.75H64.846V44.035z M64.846,21.803h79.581V0.053H64.846V21.803z M0,86.568v21.75
	h144.427v-21.75H0z"/>
<path fill="#FFFFFF" d="M42.002,45.559c0.582,1.65,0.985,2.813,0.93,2.699c-0.07-0.142-1.664-1.314-3.589-2.699
	c-3.043-2.19-6.917-4.909-6.917-4.909s-4.046,2.791-7.074,4.909c-1.679,1.174-3.041,2.14-3.229,2.309
	c0.093-0.154,0.414-1.058,0.836-2.309c1.174-3.479,3.126-9.618,3.126-9.618l-9.419-7.063l11.772-0.182l0,0
	c0-0.087,0.922-2.689,1.879-5.367c1.033-2.889,2.105-5.863,2.105-5.863l1.922,5.863l1.701,5.187c0,0,12.135,0.362,12.135,0.182
	c0-0.182-9.6,7.245-9.6,7.245S40.723,41.93,42.002,45.559z"/>
</svg>
