<?xml version="1.0" encoding="utf-8"?>
<!-- Generator: Adobe Illustrator 16.0.0, SVG Export Plug-In . SVG Version: 6.00 Build 0)  -->
<!DOCTYPE svg PUBLIC "-//W3C//DTD SVG 1.1//EN" "http://www.w3.org/Graphics/SVG/1.1/DTD/svg11.dtd">
<svg version="1.1" id="Layer_1" xmlns="http://www.w3.org/2000/svg" xmlns:xlink="http://www.w3.org/1999/xlink" x="0px" y="0px"
	 width="100px" height="100px" viewBox="0 0 100 100" enable-background="new 0 0 100 100" xml:space="preserve">
<path fill="#B6742A" d="M69.139,60.27c0.104-0.271-0.666-0.89-1.738-1.384c-1.084-0.502-2.063-0.688-2.188-0.419
	c-0.011,0.023-0.013,0.051-0.01,0.078l-3.712,8.016l3.901,1.808l3.739-8.082c0.001-0.001,0.005-0.003,0.005-0.004
	c0-0.005,0-0.007,0.002-0.009l0.002-0.004H69.139z"/>
<path d="M89.925,33.654c0.014,0.021,0.024,0.037,0.024,0.037c-8.082,6.421-11.978,13.222-13.445,16.29l0.33-0.782l-9.34-3.947
	l-0.918,2.171c3.035-8.639,0.845-19.099,0.038-22.309c-0.651-1.762-1.025-3.659-1.025-5.647c0-9.007,7.302-16.309,16.31-16.309
	c9.007,0,16.309,7.302,16.309,16.309C98.207,25.554,94.866,30.852,89.925,33.654z M67.494,45.252l-0.918,2.171
	c-0.045,0.128-0.08,0.26-0.127,0.387c0,0,2.256-0.416,5.244,0.919c3.08,1.376,3.859,2.814,4.082,2.93c0,0,0.222-0.62,0.729-1.678
	l0.33-0.782L67.494,45.252z"/>
<path fill="#4D4D4D" d="M70.789,11.44c-2.236,0.995-3.902,2.831-4.918,5.144c1.012-1.613,2.4-2.892,4.136-3.664
	c5.83-2.595,13.312,1.491,16.707,9.125c2.095,4.705,2.146,9.659,0.515,13.376c2.39-3.809,2.654-9.494,0.27-14.856
	C84.1,12.932,76.619,8.846,70.789,11.44z"/>
<path fill="#FBCA28" d="M75.775,51.659c0,0,0.222-0.62,0.729-1.678l-1.614,3.82c0.223-0.667-1.575-1.98-4.165-3.066
	c-2.522-1.055-4.772-1.415-5.187-0.854l1.038-2.458c-0.045,0.128-0.08,0.26-0.127,0.387c0,0,2.256-0.416,5.244,0.919
	C74.773,50.105,75.553,51.543,75.775,51.659z M51.1,80.932c-0.134,0.166-0.692,0.349-0.878,0.411
	c-1.988,0.677-5.968-3.991-9.009-10.825c-3.042-6.832-3.919-13.078-1.96-13.949c0.18-0.08,0.331-0.147,0.873-0.4
	c-1.65,2.791-0.619,7.674,2.143,13.881C45.03,76.256,48.995,80.802,51.1,80.932z M61.744,52.117
	c-1.137,4.969-3.084,7.693-4.534,4.438c-0.933-2.096-2.103-4.011-3.463-5.728c-7.355-9.272-20.303-12.78-31.614-7.746
	C8.726,49.047,2.694,64.752,8.66,78.158c5.966,13.406,21.671,19.439,35.077,13.473c3.59-1.598,6.72-4.127,9.164-6.893
	c0.932,0.322,2.733,0.902,2.971,1.306c-3.102,3.519-6.496,6.196-10.805,8.114c-15.656,6.968-33.997-0.077-40.964-15.734
	C-2.866,62.77,6.674,42.774,22.33,35.807c14.694-6.539,31.251-0.654,38.992,13.037C61.828,49.742,62.044,50.811,61.744,52.117z
	 M64.699,67.842l-8.807,18.199c0,0-1.701,1.912-2.793,2.923c-1.115,1.031-3.416,2.595-3.416,2.595l3.199-6.8
	c1.844-1.544,9.197-17.922,9.197-17.922L64.699,67.842z M73.161,53.65l-0.003,0.006c-0.001,0.002-0.001,0.006-0.002,0.009
	c-0.002,0.002-0.004,0.004-0.006,0.007l-5.396,11.654l-5.625-2.605l5.353-11.557c-0.004-0.041,0-0.08,0.015-0.114
	c0.177-0.388,1.591-0.118,3.155,0.604C72.197,52.369,73.311,53.255,73.161,53.65L73.161,53.65z M60.391,62.357
	c-0.732-0.336-1.596-0.014-1.931,0.716l0,0c-0.335,0.733-0.015,1.596,0.715,1.931l3.237,1.485c0.73,0.336,1.595,0.013,1.93-0.718
	l0,0c0.335-0.73,0.014-1.595-0.716-1.93L60.391,62.357z"/>
<path fill="#B6742A" d="M60.79,48.045c0,0,7.858,16.886-8.915,26.623c0.688,3.289,0.529,5.694-0.63,6.21
	c-1.959,0.872-6.011-3.962-9.052-10.796c-3.041-6.832-3.919-13.079-1.96-13.95c1.216-0.542,3.24,1.12,5.328,4.091
	c2.085-0.777,10.188-4.324,6.476-11.333C52.036,48.89,57.921,44.035,60.79,48.045z M63.398,64.566c-0.402,0-0.729,0.326-0.729,0.729
	s0.327,0.729,0.729,0.729s0.729-0.326,0.729-0.729S63.801,64.566,63.398,64.566z M70.725,50.734
	c-2.522-1.055-4.772-1.415-5.187-0.854c-0.017,0.022-0.049,0.036-0.06,0.061c-0.274,0.661,1.625,2.084,4.246,3.182
	s4.887,1.363,5.164,0.704c0.003-0.008-0.002-0.019,0.001-0.026C75.112,53.134,73.314,51.82,70.725,50.734z"/>
</svg>
