<?xml version="1.0" encoding="utf-8"?>
<!-- Generator: Adobe Illustrator 16.0.0, SVG Export Plug-In . SVG Version: 6.00 Build 0)  -->
<!DOCTYPE svg PUBLIC "-//W3C//DTD SVG 1.1//EN" "http://www.w3.org/Graphics/SVG/1.1/DTD/svg11.dtd">
<svg version="1.1"
	 id="svg548" xmlns:cc="http://creativecommons.org/ns#" xmlns:dc="http://purl.org/dc/elements/1.1/" xmlns:rdf="http://www.w3.org/1999/02/22-rdf-syntax-ns#"
	 xmlns="http://www.w3.org/2000/svg" xmlns:xlink="http://www.w3.org/1999/xlink" x="0px" y="0px" width="143.447px"
	 height="71.281px" viewBox="0 0 143.447 71.281" enable-background="new 0 0 143.447 71.281" xml:space="preserve">
<path id="path581" d="M0,56.764V14.53l31.436,21.104L0,56.764L0,56.764z"/>
<path id="path597" fill="#0000CC" d="M21.449,71.279l35.292-23.754h86.704v23.754H21.449L21.449,71.279z"/>
<path id="path598" fill="#FF0000" d="M19.18,0.002l124.264,0.001V23.76H56.739C56.738,23.76,19.651-0.233,19.18,0.002L19.18,0.002z"
	/>
<path id="path599" fill="#FFCC00" d="M0,8.912v5.612l31.436,21.107L0,56.759v5.613l39.593-26.741L0,8.912L0,8.912z"/>
<path id="path600" fill="#009933" d="M0,8.912V0.001h13.208l41.941,28.38h88.294v14.512H55.149L13.208,71.268H0v-8.896
	l39.593-26.743L0,8.912L0,8.912z"/>
<path fill="#FFFFFF" d="M13.208,0.002h8.24L56.74,23.758h86.705v4.623H55.153L13.211,0.002H13.208z M13.208,71.279h8.24
	L56.74,47.525h86.705v-4.623H55.153L13.211,71.279H13.208z"/>
</svg>
