<svg xmlns="http://www.w3.org/2000/svg" xmlns:se="http://svg-edit.googlecode.com" xmlns:xlink="http://www.w3.org/1999/xlink" id="svgcontent" width="205.65" height="395.85" x="0" y="0" viewBox="0 0 205.65 395.85" overflow="hidden"><g mask="" style="pointer-events:all"><title style="pointer-events:inherit">Layer 1</title><g id="svg_1" type="text" text="We Love You" font-size="36.29552639209938" font-family="Black Jack" fill="000000" text-anchor="start" font-weight="normal" font-style="normal" lineHeight="1" shapeId="2" shapeVal="5" fill-opacity="1" display="null" elemBBoxWidth="175.4453125" stroke="null" stroke-dasharray="none" style="pointer-events:inherit"><path id="svg_37" fill="#000000" stroke-width="0" d="M29.33389,87.86497C33.87094,85.34814 31.45153,92.69433 31.55153,98.69313C31.65329,106.2182 32.46035,113.56807 34.67799,117.07167C38.40798,116.90477 39.11328,109.80926 40.32386,105.59586C42.33974,98.96273 43.2468,90.67584 42.13798,82.95796C42.03797,82.41966 42.5415,81.98347 42.94503,82.09607C47.07855,91.89837 42.13798,111.80403 36.49211,120.14443C28.7286,127.37802 27.9233,108.36212 28.22507,95.39802C23.58802,104.77938 20.96509,119.18461 17.43686,132.01856C16.62981,133.29903 14.91745,134.29064 15.11746,131.89132C18.24392,118.06014 17.63863,98.44553 15.11746,86.85971C16.93333,82.04157 18.74745,87.34471 19.15098,91.06218C19.85627,97.5241 20.76508,104.688 20.36156,112.95442C22.98273,103.27094 26.00743,94.90379 29.33389,87.86497C29.33389,87.86497 29.33389,87.86497 29.33389,87.86497M45.86972,109.69688C45.86972,113.34647 47.07855,115.55382 49.90148,114.36121C54.94382,112.38588 58.16852,107.57702 59.58087,102.53709C57.16146,102.36115 56.3544,108.96375 53.2297,110.39261C50.50677,113.24734 47.58208,112.14065 48.89442,107.34732C51.6156,104.98871 53.935,101.20186 54.54029,97.25737C54.43853,95.85642 53.73323,94.68331 52.42265,95.17361C48.08737,96.68957 45.86972,103.83164 45.86972,109.69688C45.86972,109.69688 45.86972,109.69688 45.86972,109.69688M48.99443,105.6782C49.59972,102.8626 50.40677,98.54673 52.32089,97.13454C54.13676,99.4851 50.50677,103.59611 48.99443,105.6782C48.99443,105.6782 48.99443,105.6782 48.99443,105.6782M83.0714,84.32091C83.0714,80.22014 79.34141,77.14258 76.2167,80.4498C71.98142,85.27694 72.68847,95.22353 70.7726,102.50352C70.7726,105.44574 65.12673,106.01778 68.15143,108.6717C70.8726,108.05859 73.99906,105.23064 77.93081,105.70504C83.47492,106.5312 87.71021,103.02175 88.92078,98.99541C88.92078,98.81406 88.51726,98.57648 88.31549,98.59407C86.09609,100.45636 84.48374,104.71133 79.74493,104.04014C77.72905,103.81776 75.81318,103.39447 73.49377,103.75008C75.30964,97.02505 75.40965,87.90745 77.93081,82.14288C78.43435,81.16777 78.93787,80.7726 79.54317,80.75886C81.96258,80.61405 80.95551,84.31332 82.3661,85.09715C82.97139,85.0706 83.0714,84.97307 83.0714,84.32091C83.0714,84.32091 83.0714,84.32091 83.0714,84.32091M94.56665,91.21913C89.82784,91.42151 87.8102,96.08945 87.8102,100.18772C87.8102,102.46458 88.81902,104.35545 91.34019,104.19818C95.87724,103.16822 97.99312,99.89101 97.99312,95.46661C97.99312,93.07723 97.28783,91.1447 94.56665,91.21913C94.56665,91.21913 94.56665,91.21913 94.56665,91.21913M90.53313,100.84768C90.33138,97.70832 91.44019,94.03762 94.56665,93.26746C96.179,93.30146 96.48077,94.7117 96.48077,96.13088C96.48077,99.23571 95.27194,101.68913 92.24725,102.50831C91.03667,102.60611 90.63314,101.83055 90.53313,100.84768C90.53313,100.84768 90.53313,100.84768 90.53313,100.84768M102.73193,92.23404C102.1284,91.08767 100.31252,91.89246 100.21252,92.8645C102.43016,95.58656 104.24428,99.47738 105.05133,103.37362C105.55486,104.09077 107.26897,103.78917 106.96721,102.71686C108.88309,99.24476 111.70602,95.18884 113.92366,92.25189C113.82365,91.25812 112.31131,91.28264 112.00778,92.07526C109.89014,94.66542 108.68132,97.19632 106.76544,99.8798C106.06015,96.9453 104.6478,94.18565 102.73193,92.23404C102.73193,92.23404 102.73193,92.23404 102.73193,92.23404M114.93248,99.70229C114.93248,102.22856 116.1413,104.24564 118.96424,104.57606C124.00657,105.32117 127.23303,102.82398 128.64362,99.09143C126.22421,98.0676 125.41716,103.18868 122.29246,102.99266C119.56953,104.01087 116.64659,102.0298 117.95718,99.0629C120.67835,98.23845 122.99776,96.06854 123.60304,93.12606C123.50128,91.98925 122.79599,90.9003 121.4854,90.98759C117.15012,91.16085 114.93248,95.64234 114.93248,99.70229C114.93248,99.70229 114.93248,99.70229 114.93248,99.70229M118.05718,97.88502C118.66247,96.01783 119.46953,93.05454 121.3854,92.46622C123.19952,94.77738 119.56953,96.83433 118.05718,97.88502C118.05718,97.88502 118.05718,97.88502 118.05718,97.88502M154.75708,84.05644C152.03415,83.97679 152.63943,87.65273 151.63062,89.69536C148.80769,95.02365 146.99358,101.76618 143.06181,104.77461C140.64241,106.61503 139.23006,103.37854 139.23006,99.78022C139.23006,93.95995 140.03712,88.54001 141.04418,83.69615C139.23006,80.73175 137.31419,84.20936 136.81065,86.35395C135.90359,89.88056 135.70184,94.06549 135.70184,98.37468C135.70184,102.17077 136.20537,106.70861 139.93536,107.91447C146.38828,108.64518 148.30415,101.4058 151.02708,96.39731C150.11827,105.64009 149.00945,114.97808 144.27065,117.86637C141.75123,118.29743 139.63359,115.47736 138.12124,114.01604C137.71771,113.8848 137.61771,113.95684 137.61771,114.37415C138.32301,117.5463 142.86005,120.70582 145.37946,119.5506C153.04297,115.78722 154.05003,100.23162 155.66414,85.62703C155.56238,84.86735 155.46237,84.10997 154.75708,84.05644C154.75708,84.05644 154.75708,84.05644 154.75708,84.05644M164.2347,98.91556C159.49588,97.75862 157.47826,103.68016 157.47826,109.42753C157.47826,112.62057 158.48708,115.86855 161.00824,117.13097C165.54529,118.17596 167.66116,114.03853 167.66116,106.8525C167.66116,102.97172 166.95587,99.6217 164.2347,98.91556C164.2347,98.91556 164.2347,98.91556 164.2347,98.91556M160.20119,111.75688C159.99942,107.07731 161.10825,102.13549 164.2347,102.09045C165.84705,102.70658 166.14882,105.05615 166.14882,107.31487C166.14882,112.25643 164.93999,115.51956 161.9153,115.13267C160.70471,114.60697 160.30119,113.24747 160.20119,111.75688C160.20119,111.75688 160.20119,111.75688 160.20119,111.75688M174.01408,102.52611C170.08232,102.0982 170.58586,110.13613 170.58586,116.23802C170.58586,118.91684 171.29115,122.12302 173.20703,122.86217C176.73526,124.37012 178.55113,119.84936 180.26524,117.23371C180.06348,121.64196 180.06348,127.31618 182.58289,129.39294C186.41464,130.26398 189.03581,125.46791 190.54816,119.91659C190.54816,119.15795 190.44815,118.53872 190.04463,118.3365C187.72522,120.49011 186.5164,127.26066 183.38994,127.12787C180.66701,121.46492 183.4917,112.22481 184.09525,107.04871C180.97054,102.89746 180.46701,114.64874 178.04584,116.65729C176.83702,118.4901 175.62643,121.05271 173.61055,120.76926C173.00526,120.60596 172.90526,118.7176 172.90526,118.10537C173.00526,112.63902 174.11409,108.45715 174.81938,104.02594C174.81938,103.24334 174.61937,102.71175 174.01408,102.52611C174.01408,102.52611 174.01408,102.52611 174.01408,102.52611" style="pointer-events:inherit"/><rect id="svg_38" x="15.102343559265137" y="79.05078125" width="175.4453125" height="54.30078125" fill="#000000" opacity="0" style="pointer-events:inherit"/></g><g id="svg_5" fill-opacity="1" display="null" clip-id="608" stroke="null" stroke-opacity="1" style="pointer-events:inherit"><path fill="#b00b00" d="M171.70148,136.86965C173.33875,142.79444 173.70001,149.22501 172.78528,156.16136C170.47317,166.37368 165.75212,174.24932 158.62358,179.78828C151.54273,185.32724 144.00379,190.36187 136.00821,194.88928C131.72068,197.82711 127.62679,200.95858 123.7251,204.28225L119.24538,208.47295C114.91016,212.23014 111.10529,216.51622 107.82931,221.33409C106.23973,223.11587 105.08367,225.23579 104.36114,227.69241L103.06057,224.80226L99.01437,218.73296C93.5231,211.60298 87.09253,205.41374 79.72266,200.16379L58.48011,186.79688C51.25475,182.41398 45.32996,176.80132 40.70573,169.96179C38.77944,166.92714 37.28524,163.4344 36.226,159.48502C34.97313,153.27121 34.95,146.96058 36.15375,140.55458C38.36904,128.07928 43.81263,118.85394 52.48306,112.88146C55.42089,110.90604 58.84138,109.41329 62.74307,108.40174L66.50026,107.75145L68.08984,107.6792C75.50739,107.77457 81.57669,109.26878 86.29774,112.15892C91.06648,115.09675 94.99274,118.78169 98.07507,123.21372C100.62852,126.34519 102.65162,129.86105 104.14438,133.76274L104.21663,133.835C108.93768,122.22529 117.17314,114.18202 128.92736,109.7023L134.70764,108.40174C141.01827,107.77457 146.41272,108.52168 150.89245,110.6416C161.6828,115.45802 168.61914,124.20215 171.70148,136.86965M155.44442,152.11516C154.91408,149.12964 154.16842,146.38256 153.20456,143.87825C150.2176,136.6052 145.11216,131.4752 137.8868,128.48823C131.67299,126.27294 125.84502,126.29606 120.40143,128.56049C114.95785,130.82347 110.83939,133.78587 108.04607,137.44768C106.50418,139.03726 105.2513,140.8436 104.28888,142.8667L104.21663,142.8667L103.13283,141.06036L100.24268,137.01416C95.76296,130.56047 88.34541,127.06773 77.98858,126.53739L73.79787,127.18767C70.86004,127.9102 68.25891,129.01857 65.99448,130.51133C59.34715,135.04019 55.10876,142.04734 53.27785,151.53713C52.31399,156.06454 52.24173,160.6642 53.06109,165.33756C53.88044,168.85487 55.13332,171.9372 56.81828,174.58602C60.38327,179.78828 64.88611,184.02812 70.3297,187.30265L86.36999,197.56266C91.76445,201.51204 96.38868,206.18396 100.24268,211.57986L101.97677,214.90352C102.6993,216.3486 103.56635,217.07113 104.5779,217.07113C105.39581,216.78212 106.11834,215.98733 106.7455,214.68676L108.40734,211.5076C111.68331,207.02788 115.46362,203.02937 119.75115,199.51351C122.64129,197.10457 125.67594,194.81703 128.8551,192.64942L142.36652,183.83448C146.74943,180.79983 150.26673,176.87357 152.91555,172.05715C155.758,166.61356 156.60048,159.96768 155.44442,152.11516M153.42132,165.04855C151.44591,171.88807 147.93005,177.18715 142.8723,180.94434C137.86223,184.70152 132.58772,188.21738 127.04876,191.49336C119.05318,196.64649 112.28446,202.98168 106.7455,210.49605L104.28888,214.90352L104.21663,215.04803C103.87993,213.84429 103.37415,212.80817 102.6993,211.94113L98.21958,205.79957L95.83521,203.4152C94.34245,201.63343 92.68062,200.06842 90.84972,198.71872L82.61281,192.50491C73.41203,187.92837 65.60865,181.93132 59.20264,174.51377C55.49459,169.84185 53.97582,163.38672 54.65067,155.14981C54.98737,152.59636 55.44546,150.212 56.02349,147.9967C57.27636,143.80599 59.13039,140.21788 61.58701,137.23092C64.18814,134.00407 67.58406,131.52288 71.77477,129.7888L75.67646,128.77725L77.84407,128.48823C88.39309,129.06626 95.71527,132.82345 99.80916,139.75979C101.68775,141.97509 103.13283,144.50396 104.14438,147.34642L104.21663,147.41867C107.58798,139.08494 113.44052,133.30466 121.77425,130.07781C128.03575,128.24691 133.55159,128.48823 138.32032,130.80035C143.08906,133.11246 146.67862,136.21937 149.08611,140.12106C150.72337,142.8667 151.97625,145.99672 152.84329,149.51403C154.19155,154.47496 154.38519,159.6541 153.42132,165.04855M117.22227,143.73374L126.10947,143.51698C133.19032,145.68459 137.57322,150.55014 139.25962,158.1122C140.17435,161.6772 140.27117,165.38669 139.54863,169.23926C138.15125,174.00799 135.64694,177.76518 132.03426,180.51082C128.42158,183.20876 124.63983,185.68851 120.69045,187.95294C113.89861,192.24046 108.4319,197.85168 104.28888,204.78802L104.28888,204.93253L104.21663,204.93253C102.81924,201.60886 100.82071,198.81554 98.21958,196.55111C95.52163,193.75634 92.53611,191.2766 89.26014,189.10899C84.58822,186.65237 79.77035,183.37639 74.80942,179.2825C69.89617,175.18862 67.82539,169.40833 68.59561,161.94164L69.60716,156.73939C70.52189,153.80011 71.82246,151.27123 73.50885,149.15276C75.53195,146.45481 78.30071,144.52853 81.81802,143.37247L84.92492,142.79444C93.49853,143.22796 99.27882,146.45625 102.26578,152.47642L104.21663,156.16136L104.21663,156.30586L105.15593,154.42727L107.03452,151.32037C109.44345,147.80451 112.83937,145.27563 117.22227,143.73374M106.67325,148.64698C105.75852,149.61085 104.98685,150.69465 104.36114,151.89839L104.21663,152.0429C103.54178,150.74234 102.72242,149.58628 101.76001,148.57473C98.48403,143.71062 92.96964,141.10804 85.21394,140.77134L81.81802,141.34937C79.65041,141.9274 77.72413,142.81901 76.03773,144.02275C70.83547,147.68457 67.75313,153.51254 66.78927,161.50812C66.35575,164.44595 66.45257,167.24072 67.07829,169.88954C67.65631,172.25079 68.52336,174.36926 69.67941,176.24785C72.28054,180.00504 75.60421,183.06281 79.65041,185.42406C83.64892,187.78531 87.52605,190.28962 91.28324,192.93843C95.08811,195.7332 98.36409,199.07999 101.10972,202.98168L102.33804,205.51056C102.77156,206.52211 103.51866,206.98019 104.5779,206.88338C106.07066,205.96864 107.10677,204.57126 107.6848,202.69267C110.09374,199.41669 112.83793,196.52655 115.92171,194.02224L128.63834,185.35181C133.06893,182.55704 136.65849,179.01806 139.40413,174.73053C141.71624,170.82883 142.46334,165.89102 141.64399,159.91854C141.21047,157.50961 140.58475,155.27119 139.76539,153.19896C137.59779,148.04583 133.93742,144.40859 128.78285,142.28867C124.20631,140.64996 119.92022,140.62684 115.92171,142.21641C111.9232,143.75831 108.84086,145.90135 106.67325,148.64698" id="svg_6" stroke-width="0" stroke="null" style="pointer-events:inherit"/></g><g id="svg_35" display="null" style="pointer-events:inherit"><path fill-rule="evenodd" d="M95.31845,259.41373C93.48575,257.58109 91.82357,258.0499 90.45971,258.47607C89.22371,252.67969 97.79044,249.18539 98.30188,246.20137C96.81018,247.60783 95.78728,248.1199 93.95458,249.22745C91.01377,251.01749 89.60729,253.74579 89.01059,257.24011C86.11238,254.76811 84.27971,250.46341 87.30577,243.09065C84.91903,248.50348 81.29627,252.8934 76.94896,252.80818C70.85422,252.67969 69.06416,249.73888 66.25119,247.86356C61.6908,247.43677 58.02542,245.6899 58.28113,240.02139C58.409,237.42154 60.15644,235.2905 60.88101,234.18237C56.53369,238.0614 47.92434,245.6899 42.08531,238.91324C39.86904,239.08374 38.71828,238.95584 37.09871,237.84773C34.28573,235.80196 31.81375,230.00557 36.11843,225.70026C33.81693,227.27782 31.08918,228.81218 28.36147,228.08704C25.63375,227.36244 24.39777,225.44452 24.65348,223.44136C25.03708,221.01202 27.7648,220.45793 29.51224,220.84151C27.63693,223.48398 29.17126,224.25117 32.3678,223.31352C35.22339,222.50371 39.10188,221.3956 42.00008,224.12273C45.83593,224.59154 48.64888,227.19199 47.75386,231.24036C50.69468,230.00435 55.46819,227.44711 58.92044,228.5979C61.64816,227.44711 68.68056,227.19139 72.64428,227.36189C76.65062,227.57497 84.27971,229.66339 86.70908,231.66655C89.13846,231.19774 92.50548,231.62334 94.84963,233.45604C98.04618,232.56099 100.90175,231.19774 102.86229,228.89565C104.82344,231.19774 107.63581,232.56099 110.83236,233.45604C113.13385,231.62277 116.50089,231.19774 118.93087,231.66655C121.36023,229.6628 128.98873,227.57497 132.99566,227.36189C137.002,227.19139 143.99118,227.44711 146.7195,228.5979C150.17176,227.44711 154.98789,230.00435 157.88608,231.24036C156.99048,227.19139 159.804,224.59154 163.63987,224.12273C166.53806,221.3956 170.41655,222.50371 173.27153,223.31352C176.46807,224.25117 178.00243,223.48398 176.12714,220.84151C177.87456,220.45793 180.64548,221.01202 180.98589,223.44136C181.28423,225.44452 180.00621,227.36244 177.32109,228.08704C174.59337,228.81218 171.82305,227.27782 169.56415,225.70026C173.86881,230.00496 171.35421,235.80136 168.54125,237.84773C166.96428,238.95584 165.77031,239.08374 163.55404,238.91324C157.71563,245.6899 149.10625,238.0614 144.75835,234.18237C145.52553,235.2905 147.23095,237.4221 147.35878,240.02139C147.61513,245.6899 143.94918,247.43677 139.38875,247.86356C136.57578,249.73888 134.78572,252.67969 128.69098,252.80818C124.34366,252.8934 120.72092,248.50348 118.33419,243.09065C121.40345,250.46341 119.52756,254.76872 116.62935,257.24011C116.03266,253.74579 114.62618,251.01749 111.72858,249.22745C109.9385,248.1199 108.87299,247.60783 107.38068,246.20137C107.89212,249.18539 116.41684,252.67969 115.22287,258.47607C113.81638,258.0499 112.23941,257.58109 110.36412,259.41373C108.53144,261.24643 106.48563,264.31516 102.8629,264.4856C99.19692,264.31516 97.15116,261.24643 95.31845,259.41373zM102.86229,263.76166C100.09197,263.4201 94.63652,253.66055 91.09902,257.79416C91.99404,253.78784 97.40686,250.76176 99.53789,247.13902C101.71155,243.51628 102.22298,241.7262 102.2656,235.88779C101.37058,241.76942 100.09197,243.43102 97.279,245.94563S90.16137,248.07729 88.66964,255.53526C88.15819,254.68344 85.72881,247.77834 89.1811,244.15559C90.80068,242.74908 95.44629,244.45395 99.45266,239.21097C96.63968,241.38524 94.03983,242.27968 91.82357,242.10922C95.8299,239.67982 101.49843,236.44127 102.86229,231.32619C104.18355,236.44127 109.8947,239.67982 113.8158,242.10922C111.64214,242.27968 109.0423,241.38524 106.22933,239.21097C110.23627,244.45334 114.83927,242.74908 116.50148,244.15559C119.95374,247.77834 117.48175,254.68289 116.97031,255.53526C115.47861,248.07668 111.21593,248.46025 108.40299,245.94563S104.31139,241.76881 103.41636,235.88779C103.45899,241.7262 104.01305,243.51628 106.14409,247.13902S113.6453,253.78784 114.54094,257.79416C111.04544,253.65996 105.58944,263.4201 102.86229,263.76166zM102.86229,244.49716C102.2656,247.09702 101.02962,250.63391 101.02962,252.29611C101.02962,253.91629 102.43608,255.9615 102.86229,256.34564C103.2459,255.96207 104.65175,253.91629 104.65175,252.29611C104.65178,250.63391 103.45899,247.09702 102.86229,244.49716zM43.2787,239.33946C52.48474,244.11298 55.42557,234.8643 64.50374,231.1563C56.87468,238.35976 58.06804,245.86101 65.35617,247.30952C63.18251,244.625 63.56609,237.67783 67.27407,234.86487C70.08705,232.69125 74.77533,228.72751 85.51569,232.05194C80.57172,228.68489 70.30017,227.70462 61.98915,229.3242C52.27164,231.19951 50.73729,240.23506 43.2787,239.33946zM78.52535,242.9622C77.5877,241.38585 74.22065,241.8967 73.92232,245.73256C73.62397,249.73947 80.14493,252.55244 84.0234,247.35214C79.50562,255.28014 68.97833,252.08299 69.87335,245.73256C70.76897,239.33946 78.14234,240.44759 78.52535,242.9622zM80.01706,248.46025C82.65953,248.37503 84.27912,244.49716 87.43305,241.21533C91.05581,237.50677 96.21289,240.40497 98.3013,233.62891C93.48517,237.08113 87.34781,235.20583 84.70533,239.08434C82.02083,243.09065 83.0437,248.37563 80.01706,248.46025zM69.5756,249.22745C65.22831,245.43422 66.25119,240.74593 68.7232,239.2542C71.15257,237.71989 74.30648,238.27393 76.30967,240.40436C70.51326,238.74277 66.76264,243.77202 69.5756,249.22745zM93.23005,233.54308C90.11875,232.47752 83.89612,232.52014 79.12262,233.54308C79.59145,233.96986 80.35862,234.0977 81.12578,234.0977C80.27338,234.35344 79.20786,234.35344 78.27022,233.84198C75.49987,234.65118 77.16207,236.86746 72.26071,237.12375C73.96552,237.12375 74.73269,237.76306 75.92607,238.48764C79.07999,235.20583 82.36179,233.88458 87.30577,233.33055C81.80773,234.48068 78.44068,236.82545 78.0571,238.91383C78.31284,239.08434 78.56855,239.25479 78.78165,239.51053C78.99475,238.27452 79.97503,236.39922 82.06343,235.71729C79.97503,236.78279 79.29311,238.99966 79.20786,240.14984C79.63407,240.74654 79.84717,241.25795 80.06026,241.76942C81.72248,240.19246 80.48647,239.59576 82.83062,237.76306C82.95848,236.44183 82.91585,235.12 86.06978,234.0977C83.5978,235.50417 84.15184,236.56972 84.27971,236.91068C86.45336,236.44183 87.30577,235.54623 88.45653,234.26822C89.4368,233.20267 91.61046,232.98959 93.23005,233.54308zM38.93138,238.14607C34.96768,235.84398 34.03003,232.86055 34.71195,229.83505C35.39387,226.76636 38.07898,224.80582 41.61648,225.2326C45.19663,225.65825 46.68834,227.74724 47.07192,229.23897C45.70807,227.61938 42.34105,227.02269 39.61332,227.87512C36.80036,228.68428 33.98741,234.48068 38.93138,238.14607zM42.00008,238.44443C41.01981,238.48705 40.42311,238.48705 39.27237,237.71989C37.09871,236.22755 36.80036,233.37257 37.73801,231.28418C38.67567,229.23836 40.93456,228.21487 43.32132,228.3007C45.15399,228.38594 47.88171,230.34653 46.13426,232.90376C46.77357,230.43115 43.23606,229.70721 41.48861,231.24097C39.52807,232.98959 39.48545,237.29425 42.00008,238.44443zM47.45552,233.62891C49.58654,231.28474 53.84861,228.42915 58.02542,229.28098C54.23218,229.96291 52.35687,232.47752 50.01275,234.77902C48.60627,236.22815 46.90143,237.63461 44.21634,238.27393C42.85248,238.57227 41.27552,237.29425 40.89194,236.10031C43.32132,237.89095 45.75068,235.41833 47.45552,233.62891zM28.70246,221.18307C25.25017,221.31152 23.84369,225.10416 26.91237,226.97948C31.7285,229.96291 35.60699,222.84587 41.446,224.59274C39.44284,222.63216 35.73483,223.101 32.32519,224.20972C29.17126,225.2326 26.44354,223.69769 28.70246,221.18307zM81.89296,231.7962C75.37201,231.3268 65.78237,233.79936 65.22831,244.4545C65.05783,240.53342 66.08071,237.54999 67.99864,235.67467C72.17546,231.58308 79.07999,230.94318 81.89296,231.7962zM162.36066,239.33946C153.15462,244.11298 150.25699,234.8643 141.13559,231.1563C148.76529,238.35976 147.57131,245.86101 140.28377,247.30952C142.45743,244.625 142.11707,237.67783 138.40848,234.86487C135.59554,232.69125 130.86464,228.72751 120.12423,232.05194C125.06823,228.68489 135.33921,227.70462 143.69283,229.3242C153.36769,231.19951 154.90206,240.23506 162.36066,239.33946zM127.11341,242.9622C128.09371,241.38585 131.41751,241.8967 131.71646,245.73256C132.05742,249.73947 125.49385,252.55244 121.61536,247.35214C126.13375,255.28014 136.66043,252.08299 135.76542,245.73256C134.86979,239.33946 127.49643,240.44759 127.11341,242.9622zM125.62111,248.46025C122.63826,248.37503 123.61853,243.09065 120.93283,239.08374C118.33298,235.20526 112.23824,237.08058 107.37949,233.6283C109.4679,240.40436 114.58237,237.50677 118.20514,241.21478C121.35965,244.49716 122.97866,248.37563 125.62111,248.46025zM136.06376,249.22745C140.41106,245.43422 139.38817,240.74593 136.95938,239.2542C134.48679,237.71989 131.33286,238.27393 129.3729,240.40436C135.12609,238.74277 138.87671,243.77202 136.06376,249.22745zM112.45194,233.54308C114.02832,232.98898 116.24518,233.20267 117.22487,234.26822C118.33298,235.54623 119.18601,236.44183 121.35904,236.91068C121.48691,236.56972 122.04099,235.50417 119.56958,234.0977C122.72292,235.12059 122.6803,236.44183 122.80875,237.76306C125.15232,239.59576 123.91631,240.19246 125.57911,241.76942C125.79218,241.25795 126.0053,240.74593 126.43149,240.14984C126.38887,238.99966 125.66373,236.78279 123.61853,235.71729C125.66373,236.39922 126.644,238.27452 126.90033,239.51053C127.11286,239.25479 127.32653,239.08434 127.58165,238.91383C127.19808,236.826 123.83106,234.48128 118.33298,233.33055C123.31961,233.88458 126.55877,235.20583 129.7127,238.48764C130.90667,237.76306 131.67385,237.12375 133.37806,237.12375C128.4767,236.86746 130.13889,234.65118 127.41118,233.84198C126.43149,234.35284 125.36599,234.35284 124.51297,234.0977C125.28016,234.0977 126.04732,233.96986 126.51616,233.54308C121.78585,232.52074 115.52062,232.47752 112.45194,233.54308zM166.75058,238.14607C170.7143,235.84398 171.60935,232.86055 170.9274,229.83505C170.24608,226.76636 167.60358,224.80582 164.02344,225.2326C160.44274,225.65825 158.99424,227.74724 158.56803,229.23897C159.9319,227.61938 163.29833,227.02269 166.02665,227.87512C168.83901,228.68428 171.65198,234.48068 166.75058,238.14607zM163.63929,238.44443C164.61957,238.48705 165.21625,238.48705 166.36643,237.71989C168.54067,236.22755 168.83901,233.37257 167.90136,231.28418C166.9637,229.23836 164.74743,228.21487 162.31748,228.3007C160.52799,228.38594 157.80027,230.34653 159.5051,232.90376C158.8658,230.43115 162.40331,229.70721 164.15073,231.24097C166.11069,232.98959 166.15389,237.29425 163.63929,238.44443zM158.22588,233.62891C156.05222,231.28474 151.79018,228.42915 147.65657,229.28098C151.40715,229.96291 153.28247,232.47752 155.62661,234.77902C157.0331,236.22815 158.73851,237.63461 161.42301,238.27393C162.78746,238.57227 164.36443,237.29425 164.79004,236.10031C162.31748,237.89095 159.88868,235.41833 158.22588,233.62891zM176.93691,221.18307C180.38919,221.31152 181.79566,225.10416 178.72699,226.97948C173.91088,229.96291 170.0324,222.84587 164.23598,224.59274C166.1971,222.63216 169.90451,223.101 173.31418,224.20972C176.46807,225.2326 179.1958,223.69769 176.93691,221.18307zM123.74581,231.7962C130.26734,231.3268 139.89901,233.79936 140.41045,244.4545C140.62357,240.53342 139.55863,237.54999 137.64013,235.67467C133.46389,231.58308 126.55877,230.94318 123.74581,231.7962zM129.67067,233.84198C130.01105,235.461 131.92955,236.10031 133.46389,236.27136C135.04027,236.39922 136.44733,236.826 137.08664,237.93417C136.65985,236.74017 135.46704,235.54683 133.84688,235.37633C132.56827,235.2905 130.69356,235.2905 129.67067,233.84198zM162.31748,235.24788C161.33779,234.52335 160.48478,231.83821 163.21308,231.96666C162.10495,230.94318 160.57061,231.71037 160.27166,232.60597C159.9733,233.50101 160.40012,234.94954 162.31748,235.24788zM43.40654,235.24788C44.42945,234.52335 45.28186,231.83821 42.55413,231.96666C43.66227,230.94318 45.19663,231.71037 45.49495,232.60597C45.7933,233.50101 45.36711,234.94954 43.40654,235.24788zM72.30333,236.27077C70.72636,236.39861 69.27726,236.82545 68.63795,237.93356C69.10678,236.73962 70.30017,235.54623 71.91974,235.37572C73.15573,235.2905 75.03104,235.2905 76.05394,233.84198C75.7556,235.461 73.79506,236.10031 72.30333,236.27077zM107.55056,258.86026C108.95704,257.32535 111.1307,255.19492 113.38959,256.00473C111.59954,254.89656 109.85209,255.45064 107.76307,257.41119C106.05884,258.98816 104.65175,260.69296 103.0754,260.9487C101.54103,260.69296 100.13459,258.98816 98.42975,257.41119C96.34134,255.45064 94.59389,254.89656 92.76122,256.00473C95.06272,255.19492 97.23638,257.32535 98.60022,258.86026C100.00672,260.39462 101.71155,262.18408 103.0754,262.26993C104.48191,262.18408 106.1861,260.39401 107.55056,258.86026zM102.86229,241.21533C101.24269,244.625 99.58049,249.09956 98.9412,252.29611C98.30188,255.19431 99.75101,256.89972 102.86229,259.2439C105.97359,256.89972 107.42272,255.19431 106.82541,252.29611C106.14409,249.09956 104.48191,244.625 102.86229,241.21533zM99.32479,252.46661C99.06905,254.81134 100.00672,256.3877 102.86229,258.05051C105.71788,256.3877 106.65554,254.81134 106.40041,252.46661C106.05942,249.52576 104.05567,244.19821 102.86229,241.7262C101.71155,244.19821 99.66574,249.52576 99.32479,252.46661zM104.05509,236.95268C104.69439,241.2574 107.29482,244.4545 109.17014,245.56265C111.08806,246.67021 116.50089,249.31329 116.96972,254.17142C116.75663,248.80182 112.06836,246.49971 109.76683,245.09381C107.50736,243.64473 104.95012,240.4902 104.05509,236.95268zM95.44574,245.09381C93.14421,246.49971 88.41332,248.80182 88.20021,254.17142C88.66904,249.31329 94.1671,246.67021 96.04241,245.56265C97.9177,244.4545 100.56018,241.25795 101.15688,236.95268C100.26242,240.4902 97.74782,243.64473 95.44574,245.09381zM169.94713,234.73701C171.69399,231.96666 170.58643,228.00296 168.1997,226.55385C170.5006,228.47177 170.84217,231.83821 169.94713,234.73701zM166.19652,223.99605C169.60616,224.12389 172.54697,226.34077 174.42229,226.89424S177.61884,227.23521 178.72699,226.4254C179.83455,225.61563 180.13346,224.08128 179.15319,223.14362C180.30396,225.5298 177.06481,227.02209 174.76325,226.29695C172.29126,225.5304 169.00946,223.82555 166.19652,223.99605zM166.28177,227.70462C163.85238,226.72435 160.91217,226.76695 159.12151,228.59966C160.52799,226.63911 163.98024,225.99921 166.28177,227.70462zM169.09414,235.92981C171.09729,233.32996 170.33014,229.32359 168.11444,227.61879C170.20285,229.74983 170.24547,233.16005 169.09414,235.92981zM164.44907,238.27393C168.02919,237.37892 168.37017,234.52335 167.51836,232.26445C168.28435,235.50417 166.92109,237.37949 164.44907,238.27393zM164.53373,231.11429C163.21308,230.134 159.50505,229.11108 159.20615,232.00928C158.69529,229.36626 162.91414,228.85478 164.53373,231.11429zM149.1903,229.53731C152.43007,230.30447 154.39003,233.11743 156.26534,234.86487C158.09859,236.61234 161.55088,239.04167 163.2125,237.50737C161.50708,238.70132 159.29139,237.08113 156.64832,234.65179C154.34742,232.52074 152.77105,230.30386 149.1903,229.53731zM159.93129,239.59576C156.30854,239.25479 151.4498,233.71353 148.38112,231.66832C145.26979,229.62195 139.34496,228.38594 130.77881,229.0679C136.74508,228.64166 144.45943,229.87767 147.9549,232.34969S155.62661,239.63782 159.93129,239.59576zM141.98742,246.45709C143.65023,245.2211 145.01349,244.11298 145.18396,240.91699C145.31183,238.10347 143.94796,235.16266 141.98742,232.81848C143.607,234.82169 145.78066,237.25043 145.73804,240.95905C145.65337,245.34894 141.98742,246.45709 141.98742,246.45709zM136.83094,248.03467C139.17505,244.75285 138.70626,240.02199 135.9785,239.21219C137.68332,239.38208 140.62415,243.51628 136.83094,248.03467zM135.21135,244.92336C134.18787,242.23822 131.20441,240.3203 127.88001,241.98193C131.07714,239.76627 134.78514,242.153 135.21135,244.92336zM127.49643,251.0181C130.26734,251.48689 134.74193,250.29295 135.42443,246.96852C135.42443,249.31329 131.92955,252.16827 127.49643,251.0181zM123.44745,249.52576C127.07079,252.85019 131.80109,251.87053 133.16555,250.4214C130.52308,252.21088 125.66373,251.40106 123.44745,249.52576zM117.1402,239.76627C115.05181,238.57227 109.89472,238.82861 108.01941,234.6944C110.79032,238.35976 115.77634,238.10406 117.7795,239.34003C119.74007,240.61864 121.61478,244.36926 122.97866,246.67078C120.93283,243.98569 119.22863,240.95905 117.1402,239.76627zM35.69222,234.73701C34.7972,231.83882 35.13816,228.47177 37.43966,226.55385C35.05291,228.00296 33.94477,231.96666 35.69222,234.73701zM39.44284,223.99605C36.03318,224.12389 33.09237,226.34077 31.21705,226.89424S28.0205,227.23521 26.91237,226.4254S25.50591,224.08128 26.52879,223.14362C25.33541,225.5298 28.57459,227.02209 30.87609,226.29695C33.3481,225.5304 36.62987,223.82555 39.44284,223.99605zM39.35759,227.70462C41.78696,226.72435 44.72779,226.76695 46.51786,228.59966C45.11138,226.63911 41.65909,225.99921 39.35759,227.70462zM36.54462,235.92981C34.54146,233.32996 35.30864,229.32359 37.52491,227.61879C35.4359,229.74983 35.39387,233.16005 36.54462,235.92981zM41.19029,238.27393C37.61014,237.37892 37.26918,234.52335 38.12159,232.26445C37.35443,235.50417 38.71828,237.37949 41.19029,238.27393zM41.10504,231.11429C42.42627,230.134 46.13426,229.11108 46.43261,232.00928C46.94407,229.36626 42.72404,228.85478 41.10504,231.11429zM56.44846,229.53731C53.2093,230.30447 51.29137,233.11743 49.37344,234.86487C47.54074,236.61234 44.08849,239.04167 42.42627,237.50737C44.1311,238.70132 46.34738,237.08113 48.98984,234.65179C51.29137,232.52074 52.86834,230.30386 56.44846,229.53731zM45.70807,239.59576C49.33081,239.25479 54.18957,233.71353 57.30086,231.66832C60.36954,229.62195 66.2938,228.38594 74.86056,229.0679C68.89368,228.64166 61.17933,229.87767 57.68446,232.34969C54.18957,234.82169 50.05537,239.63782 45.70807,239.59576zM63.65134,246.45709C61.98915,245.2211 60.62528,244.11298 60.45479,240.91699C60.32693,238.10347 61.6908,235.16266 63.65134,232.81848C62.03176,234.82169 59.8581,237.25104 59.90071,240.95905C59.98597,245.34894 63.65134,246.45709 63.65134,246.45709zM68.80843,248.03467C66.46431,244.75285 66.93314,240.02199 69.66085,239.21219C67.95603,239.38208 65.01519,243.51628 68.80843,248.03467zM70.42801,244.92336C71.45092,242.23822 74.43437,240.3203 77.80136,241.98193C74.56221,239.76627 70.85422,242.153 70.42801,244.92336zM78.14234,251.0181C75.37201,251.48689 70.89684,250.29295 70.21492,246.96852C70.21492,249.31329 73.7098,252.16827 78.14234,251.0181zM82.1913,249.52576C78.56855,252.85019 73.88029,251.87053 72.4738,250.4214C75.11629,252.21088 79.97503,251.40106 82.1913,249.52576zM88.49916,239.76627C90.58756,238.57227 95.8299,238.82861 97.66257,234.6944C94.89225,238.35976 89.86301,238.10406 87.85987,239.34003C85.8993,240.61864 84.02399,244.36926 82.66013,246.67078C84.70594,243.98569 86.41074,240.95905 88.49916,239.76627z" id="svg_36" style="pointer-events:inherit"/></g><g id="svg_29" type="text" text="MoM" font-size="43.353562632751924" font-family="Afta sans" fill="000000" text-anchor="start" font-weight="normal" font-style="normal" lineHeight="1" shapeId="0" shapeVal="0" fill-opacity="1" display="null" elemBBoxWidth="97.41511535644531" stroke-opacity="1" style="pointer-events:inherit"><path id="svg_30" fill="#000000" stroke-width="1" d="M70.58539,171.08324C70.58539,171.08324 67.37732,171.08324 67.37732,171.08324C67.37732,171.08324 54.97854,145.50536 54.97854,145.50536C54.97854,154.69604 54.84849,164.71045 54.84849,174.72485C54.84849,174.72485 52.11727,174.72485 52.11727,174.72485C52.11727,174.72485 52.11727,143.72789 52.11727,143.72789C52.11727,143.72789 57.40626,143.72789 57.40626,143.72789C57.40626,143.72789 67.89754,166.96478 67.89754,166.96478C68.67788,168.6555 69.58829,167.96188 70.0218,166.96478C79.03911,146.71921 79.81944,145.07182 80.33966,143.72789C80.33966,143.72789 85.23848,143.72789 85.23848,143.72789C85.23848,143.72789 85.23848,174.72485 85.23848,174.72485C85.23848,174.72485 82.46393,174.72485 82.46393,174.72485C82.46393,174.72485 82.42059,145.46199 82.42059,145.46199C82.42059,145.46199 70.58539,171.08324 70.58539,171.08324M93.12862,163.4099C93.12862,172.90404 97.50719,173.46762 100.75864,173.46762C103.27307,173.46762 107.69501,173.42429 107.69501,163.4099C107.69501,153.69894 103.22974,153.61224 100.28175,153.61224C97.29044,153.61224 93.12862,153.48219 93.12862,163.4099C93.12862,163.4099 93.12862,163.4099 93.12862,163.4099M100.28175,151.61803C108.60544,151.61803 110.94644,156.95039 110.94644,163.4099C110.94644,171.25665 108.69211,175.46185 100.75864,175.46185C92.82516,175.46185 90.13731,169.82602 90.13731,163.4099C90.13731,155.86656 92.73845,151.61803 100.28175,151.61803C100.28175,151.61803 100.28175,151.61803 100.28175,151.61803M134.87695,171.08324C134.87695,171.08324 131.66887,171.08324 131.66887,171.08324C131.66887,171.08324 119.2701,145.50536 119.2701,145.50536C119.2701,154.69604 119.14005,164.71045 119.14005,174.72485C119.14005,174.72485 116.40883,174.72485 116.40883,174.72485C116.40883,174.72485 116.40883,143.72789 116.40883,143.72789C116.40883,143.72789 121.69783,143.72789 121.69783,143.72789C121.69783,143.72789 132.18909,166.96478 132.18909,166.96478C132.96944,168.6555 133.87985,167.96188 134.31335,166.96478C143.33066,146.71921 144.11101,145.07182 144.63121,143.72789C144.63121,143.72789 149.53004,143.72789 149.53004,143.72789C149.53004,143.72789 149.53004,174.72485 149.53004,174.72485C149.53004,174.72485 146.75548,174.72485 146.75548,174.72485C146.75548,174.72485 146.71214,145.46199 146.71214,145.46199C146.71214,145.46199 134.87695,171.08324 134.87695,171.08324" stroke="#000000" style="pointer-events:inherit"/><rect id="svg_31" x="52.12091195796596" y="143.7259003137363" width="97.41138984180104" height="31.7377129125175" fill="#000000" opacity="0" stroke="#000000" stroke-width="1" style="pointer-events:inherit"/></g></g><defs><mask id="canvasMaskImageDef" maskUnits="objectBoundingBox" x="0" y="0"><image xmlns:xlink="http://www.w3.org/1999/xlink" id="canvasMaskImage" preserveAspectRatio="none" x="-103.65" y="-36.45" width="400" height="440.0580551523948" xlink:href="http://allinonedesigner.designnbuy.in/media/catalog/product/w/h/white-tees-1_-front_1_3.png"/></mask></defs></svg>