<svg xmlns="http://www.w3.org/2000/svg" width="211" height="291" id="svgcontent" overflow="hidden" x="0" y="0" viewBox="0 0 211 291"><g style="pointer-events:all" mask=""><title style="pointer-events:inherit">Layer 1</title><g display="null" shapeVal="0" shapeId="0" lineHeight="1" font-style="normal" font-weight="normal" text-anchor="start" stroke-width="0" stroke="0" fill="ffff00" font-family="Euphoria Script" font-size="47.30096" text="William" type="text" id="svg_1" style="pointer-events:inherit" elemBBoxWidth="112.74382019042969" transform=""><path d="M36.00167,138.89978 C36.79009,139.95099 39.15535,140.608 39.68095,139.42538 C40.46937,139.42538 40.46937,141.39642 38.36692,141.39642 C37.5785,141.39642 36.65868,141.13362 36.00166,140.73941 C35.60745,149.28061 31.40255,160.18707 26.93485,160.18707 C22.59855,160.18707 21.54732,155.19375 21.94153,149.80623 C18.39365,156.24497 13.92594,162.94653 10.37806,162.94653 C9.06403,162.94653 8.40701,162.42093 8.53842,161.10688 C9.58964,158.34742 13.00613,148.49218 13.00613,140.4766 C13.00613,136.79731 12.08631,134.03785 9.32684,134.03785 C4.46493,134.03785 6.96159,138.11135 5.12194,138.11135 C3.2823,138.11135 4.33352,133.11803 9.72105,133.11803 C14.05735,133.11803 15.502790000000001,137.19152 15.502790000000001,141.92203 C15.502790000000001,149.01779 13.13753,155.71935 11.5607,160.84407 C11.4293,161.36967 11.82351,161.50108 12.48052,160.97548 C18.39366,155.85075 22.46716,145.3385 23.12417,143.36746 C24.1754,140.08238 25.35803,137.58572 26.67205,137.58572 C27.19767,137.58572 27.46047,137.84852 27.46047,138.37413 C27.06626,139.42537 21.81014,158.87303 26.93486,158.87303 C30.61414,158.87303 34.55624,147.83516 34.68764,139.95097 C31.27116,136.27168 27.32907,132.5924 31.92818,130.88417 C34.03063,130.88417 35.87027,134.43205 36.00167,138.89976 C36.00167,138.89976 36.00167,138.89976 36.00167,138.89976 M32.19098,131.93539 C31.53396,131.93539 32.71659,135.08906 34.68764,137.45433 C34.29343,134.16923 33.1108,131.93539 32.19098,131.93539 C32.19098,131.93539 32.19098,131.93539 32.19098,131.93539 M39.81236,157.03337 C39.81236,149.93761 41.5206,142.57904 44.01726,142.57904 C44.67427,142.57904 44.80568,142.97325 44.80568,143.49886 C44.80568,143.49886 41.5206,152.17147 41.5206,159.66144 C41.5206,160.05565 41.12639,160.18706 40.86358,160.18706 C40.20657,160.18706 39.81236,159.13582 39.81236,157.03337 C39.81236,157.03337 39.81236,157.03337 39.81236,157.03337 M45.98831,134.56346 C46.51393,134.56346 46.77673,134.95766 46.77673,135.48328 C46.77673,136.4031 44.93709,139.03116 44.93709,139.03116 C43.62306,139.03116 44.01727,134.56346 45.98831,134.56346 C45.98831,134.56346 45.98831,134.56346 45.98831,134.56346 M52.68987,164.52336 C54.52951,164.52336 55.18653,161.36967 56.36915,162.02669 C56.23775,162.28951 54.79231,165.70598 52.55846,165.70598 C49.40478,165.70598 48.35356,162.1581 48.35356,157.29619 C48.35356,145.99553 53.34688,130.88417 56.10634,130.88417 C56.50055,130.88417 56.76336,131.14697 56.76336,131.67259 C56.76336,131.67259 50.58741,146.25831 50.58741,158.87303 C50.58741,162.02669 51.24442,164.52336 52.68986,164.52336 C52.68986,164.52336 52.68986,164.52336 52.68986,164.52336 M62.54509,164.52336 C64.38473,164.52336 65.04175,161.36967 66.22438,162.02669 C66.09297,162.28951 64.64754,165.70598 62.41369,165.70598 C59.26002,165.70598 58.20879,162.1581 58.20879,157.29619 C58.20879,145.99553 63.20211,130.88417 65.96157,130.88417 C66.35577,130.88417 66.61858,131.14697 66.61858,131.67259 C66.61858,131.67259 60.44264,146.25831 60.44264,158.87303 C60.44264,162.02669 61.09965,164.52336 62.54509,164.52336 C62.54509,164.52336 62.54509,164.52336 62.54509,164.52336 M67.66981,157.03337 C67.66981,149.93761 69.37805,142.57904 71.87471,142.57904 C72.53172,142.57904 72.66312,142.97325 72.66312,143.49886 C72.66312,143.49886 69.37805,152.17147 69.37805,159.66144 C69.37805,160.05565 68.98384,160.18706 68.72104,160.18706 C68.06402,160.18706 67.66981,159.13582 67.66981,157.03337 C67.66981,157.03337 67.66981,157.03337 67.66981,157.03337 M73.84576,134.56346 C74.37137,134.56346 74.63417,134.95766 74.63417,135.48328 C74.63417,136.4031 72.79453,139.03116 72.79453,139.03116 C71.4805,139.03116 71.87471,134.56346 73.84575,134.56346 C73.84575,134.56346 73.84575,134.56346 73.84575,134.56346 M86.72324,144.15587 C85.14641,143.89308 86.46044,142.57904 84.22659,142.57904 C79.10186,142.57904 75.81678,158.87303 78.44485,158.87303 C80.5473,158.87303 86.06623,148.36078 87.24886,145.99553 C88.03727,144.15587 89.74551,141.92203 90.66534,144.15587 C90.66534,144.15587 87.51165,150.59462 87.51165,159.13582 C87.51165,162.1581 87.90586,163.07793 88.69428,163.07793 C90.40252,162.6837 89.61411,161.36968 90.66533,161.10688 C91.05954,161.10688 90.92813,161.50109 90.92813,161.50109 C90.92813,161.50109 90.13971,164.39196 88.56287,164.39196 C85.1464,164.39196 84.88359,156.37637 85.67201,152.04006 C85.67201,152.04006 85.2778,152.04006 85.2778,152.04006 C82.91254,155.98217 79.89026,160.18706 78.05063,160.18706 C71.48048,160.18706 76.21098,141.52782 84.48938,141.52782 C86.85464,141.52782 88.03726,143.63027 86.72323,144.15587 C86.72323,144.15587 86.72323,144.15587 86.72323,144.15587 M102.22879,155.58794 C102.22879,150.46323 103.54282,145.46991 103.93703,143.76168 C104.06843,143.36747 103.54282,143.23606 103.14862,143.63027 C98.81232,147.30956 95.65864,158.74163 94.476,159.92425 C93.55618,159.92425 93.29338,159.00443 93.29338,156.90199 C93.29338,149.67482 95.00162,142.05343 97.23548,142.05343 C99.86353,142.57905 95.13302,147.96658 95.79005,154.14251 C97.8925,148.88641 101.44037,141.65923 104.98827,141.65923 C106.17089,141.65923 106.8279,142.44765 106.8279,143.49886 C106.8279,143.49886 104.98827,148.75499 104.19985,153.87972 C104.19985,153.87972 104.59406,153.87972 104.59406,153.87972 C106.69651,149.54342 110.24438,143.10467 113.13526,143.10467 C114.31788,143.10467 114.9749,143.76168 114.9749,144.9443 C114.9749,144.9443 113.00385,151.51446 113.00385,157.69039 C113.00385,162.02669 113.92368,162.02669 115.63191,160.97549 C116.02612,160.97549 115.76331,161.36969 115.76331,161.36969 C115.76331,161.36969 115.1063,162.94653 113.92368,162.94653 C109.32457,163.20933 110.9014,147.70376 111.95263,145.33851 C112.08403,144.9443 111.68982,145.07571 111.29561,145.33851 C107.22211,148.755 104.59406,157.559 103.28002,158.61022 C102.3602,158.61022 102.2288,157.69039 102.2288,155.58794 C102.2288,155.58794 102.2288,155.58794 102.2288,155.58794 " stroke-width="0" stroke="#000000" fill="#ffff00" id="svg_6" style="pointer-events:inherit" transform=""/></g><g display="null" shapeVal="0" shapeId="0" lineHeight="1" font-style="normal" font-weight="normal" text-anchor="start" stroke-width="0" stroke="0" fill="0" font-family="Kaushan Script" font-size="47.44914" text="Family" type="text" id="svg_8" style="pointer-events:inherit" elemBBoxWidth="128.77011108398438" transform=""><path d="M50.20502,190.30307 C55.21348,189.38046 60.88095,188.58966 59.56293,194.38892 C56.00429,193.72992 51.39123,194.52073 48.09619,195.04792 C45.19655,201.76981 43.48313,207.5691 42.42872,213.23655 C40.31989,212.70936 38.73828,211.39134 37.28846,209.0189 C38.21107,207.04188 39.52909,203.61503 42.95593,194.91615 C41.63791,194.52073 40.7153,193.72993 40.3199,192.67552 C40.7153,192.2801 42.29692,191.88469 44.40575,191.3575 C45.98737,186.61266 47.83259,183.44942 47.70079,180.15437 C44.53756,180.15437 42.95594,177.78193 44.14215,175.14589 C50.33682,176.06853 62.85797,174.35509 64.43959,174.35509 C65.8894,174.35509 67.07562,175.93672 67.73463,178.70455 C62.85797,178.44094 59.29933,178.70455 55.47708,179.23177 C54.68627,180.41796 53.76366,182.2632 50.20502,190.30309 C50.20502,190.30309 50.20502,190.30309 50.20502,190.30309 M66.81201,207.56911 C70.10705,207.04189 76.43353,195.70696 78.93776,190.30309 C80.25578,190.30309 82.49641,191.2257 82.49641,191.88469 C79.72857,198.87019 76.30173,204.53764 79.33317,209.54613 C76.96073,210.86412 73.7975,210.86412 73.7975,206.91008 C73.7975,205.19667 74.32471,202.42882 75.51092,199.39738 C73.00669,205.19667 68.78904,209.94151 65.88941,210.46873 C63.51698,210.33692 61.93536,207.96449 61.93536,204.66944 C61.93536,197.55216 68.78904,187.93064 73.92931,187.66706 C75.24732,188.06245 77.35614,190.30308 77.48795,191.48930000000001 C72.34768,192.2801 66.15301,200.7154 66.15301,206.51466 C66.15301,207.17369 66.41661,207.4373 66.81201,207.5691 C66.81201,207.5691 66.81201,207.5691 66.81201,207.5691 M101.73943,193.33451 C98.83979,192.93912 88.95468,207.70087 86.71405,210.60053 C83.41901,208.09629 84.20982,204.53763 85.52783,199.9246 C86.97764,195.31153 89.61368,190.56669 91.7225,186.87623 C93.43592,187.27165 94.75394,187.93064 96.33556,189.51228 C95.14934,193.46632 90.27269,198.34297 89.61367,203.61503 C93.17231,198.47477 99.7624,189.38047 103.84824,189.38047 C105.42986,189.38047 107.53868,190.56669 107.67048,190.96207 C107.01148,193.46631 102.13482,200.58359 101.73941,203.21964 C107.93408,194.78434 112.67895,189.11686 116.23759,189.11686 C117.5556,189.11686 118.87362,189.77589 119.26902,191.09388 C118.0828,194.78434 113.33795,202.42881 113.33795,206.91007 C113.33795,210.20511 116.63299,206.77826 116.50118,209.0189 C113.73335,212.18214 108.46129,210.99592 108.46129,205.98747 C108.46129,201.63801 111.09732,197.42036 112.28354,194.78434 C109.2521,195.04792 101.73941,206.91007 98.70798,210.60053 C97.38996,210.07331 96.20375,208.75528 95.80834,207.17368 C96.46735,203.21964 97.78537,198.87018 101.73942,193.33451 C101.73942,193.33451 101.73942,193.33451 101.73942,193.33451 M131.65837,192.80732 C127.83613,197.42036 125.9909,203.61503 124.6729,210.20512 C124.14569,210.20512 121.11425,209.0189 121.11425,206.25108 C121.77326,203.48323 122.30047,192.2801 127.30894,189.64409 C128.36334,189.90767 130.47216,190.96208 131.65838,192.80733 C131.65838,192.80733 131.65838,192.80733 131.65838,192.80733 M131.65838,186.87624 C129.68136,186.61266 130.34037,184.76741 129.81317,183.18581 C129.81317,182.1314 130.47217,178.96816 131.26298,176.99114 C132.71279,176.99114 136.13964,178.83635 137.06225,180.28618 C135.61244,181.60417 132.18559,185.82182 131.65838,186.87624 C131.65838,186.87624 131.65838,186.87624 131.65838,186.87624 M151.82403,173.0371 C144.44314,181.20879 136.53504,199.26559 136.13964,212.84118 C134.29443,212.57757 134.29443,211.25955 133.10819,210.60055 C130.86757,204.93307 132.84459,200.58361 135.87603000000001,191.75292 C139.56647,180.94518 143.25692,173.95971 146.55196,170.00564 C148.13358,170.26925 151.29682,172.24627 151.82402,173.0371 C151.82402,173.0371 151.82402,173.0371 151.82402,173.0371 M166.05858,189.7759 C159.07311,203.35146 157.62328,226.54851000000002 141.67529,226.54851000000002 C138.51205,226.54851000000002 132.84459,224.7033 134.82161,222.33086 C136.27144,223.64888 136.79863,223.78069 138.24846,223.78069 C145.49754,223.78069 152.21942,215.08178 155.77806,201.37441 C154.19644,203.87865 150.6378,209.28252 147.73817,210.33693 C145.76113,210.20512 143.1251,208.8871 142.5979,206.64647 C142.86151,198.60658 146.94736,191.3575 151.56041,186.87624 C152.61482,186.87624 154.72365,187.40346 155.77806,188.45787 C154.98726,188.72148 148.00177,200.84721 147.60637,206.77827 C147.60637,207.30549 147.86998,207.4373 148.00177,207.5691 C153.40564,205.19666 157.88689,194.38892 161.57733,188.32606 C163.29075,188.32606 165.53139,189.11686 166.05858,189.77589 C166.05858,189.77589 166.05858,189.77589 166.05858,189.77589 " stroke-width="0" stroke="#000000" fill="#000000" id="svg_11" style="pointer-events:inherit" transform=""/></g><g display="null" shapeVal="0" shapeId="0" lineHeight="1" font-style="normal" font-weight="normal" text-anchor="start" stroke-width="0" stroke="0" fill="ffff00" font-family="LeviScriptOpti" font-size="48.04291" text="Reunion" type="text" id="svg_13" style="pointer-events:inherit" elemBBoxWidth="120.36953735351562" transform=""><path d="M99.11533,233.06705 C88.57299,241.34079000000003 81.50028,268.29715 60.28215,260.69065 C60.28215,260.69065 60.94939,259.48963 60.94939,259.48963 C72.42586,264.96097 76.69618,258.42203 85.5037,247.74628 C90.97504,241.20734 94.57812,235.60253999999998 98.58154,232.66672 C87.10506,225.72745 67.35486,238.13803000000001 66.95452,247.47937000000002 C66.95452,250.01486 68.82278,251.34933 71.35828,251.34933 C75.49515,251.34933 83.2351,246.14488999999998 87.90575,236.13632 C87.90575,236.13632 88.43954,236.40323 88.43954,236.40323 C84.70301,246.54523 77.09651,252.01657 71.49173,252.01657 C68.28899,252.01657 66.42073,250.41521999999998 66.42073,247.47937000000002 C66.68762,237.73770000000002 87.37196,224.7933 99.24877,232.26636000000002 C99.64911,231.99948 100.04945,231.33225 100.4498,231.99948 C100.4498,231.99948 99.78256,232.53325999999998 99.78256,232.53325999999998 C105.78769,239.07217000000003 99.91601,246.81213000000002 91.37537,249.48104 C93.24364,253.48449 86.17093,258.68893 86.83817,260.15685 C86.83817,260.95751 87.10505,261.35787 87.7723,261.35787 C89.24023,261.35787 92.44295,259.48961 96.44637,255.21929 C96.44637,255.21929 96.84671,255.61964999999998 96.84671,255.61964999999998 C92.70985,260.0234 89.50711,262.15856 87.77229,262.15856 C81.50026,260.29027 89.64055,253.48449 90.84158,250.28176000000002 C90.70813,249.08074 87.5054,250.28176000000002 87.77229,248.68038 C88.03918,247.07903 90.44124,247.74626999999998 91.10848,248.94729 C97.78084,246.41180000000003 103.91942,238.80529 99.11532,233.06704000000002 C99.11532,233.06704000000002 99.11532,233.06704000000002 99.11532,233.06704000000002 M90.44124,249.08074 C89.774,248.28001999999998 88.83987,248.01314000000002 88.30609,248.68038 C88.43954,249.21416 89.50712,249.34762 90.44124,249.08074 C90.44124,249.08074 90.44124,249.08074 90.44124,249.08074 M93.91087,260.15685 C93.91087,256.95412 100.04945,250.94898999999998 102.7184,251.61622999999997 C104.05287,251.61622999999997 104.72011,252.15001 104.72011,252.95069999999998 C104.72011,254.68553000000003 101.65082,257.4879 95.91258,258.68892 C94.97844,260.02339 94.44466,261.62477 96.44636,261.62477 C98.71498,261.62477 103.25218,259.62303 107.38905,255.21928000000003 C107.38905,255.21928000000003 107.78939,255.61964 107.78939,255.61964 C103.51907,260.29026 98.71497,262.292 96.31291,262.292 C94.71155,262.292 93.91086,261.62476 93.91086,260.15684 C93.91086,260.15684 93.91086,260.15684 93.91086,260.15684 M96.44636,258.02168 C101.65081,256.68721 104.05287,254.28517 104.05287,252.95069999999998 C104.05287,252.41689000000002 103.78597,252.28346 103.38563,252.28346 C102.05116,252.28346 99.51567,254.28517 96.44637,258.02168 C96.44637,258.02168 96.44637,258.02168 96.44637,258.02168 M109.39077,252.01655 C109.39077,252.01655 111.39249,251.74966999999998 111.39249,251.74966999999998 C107.38906,257.08753 104.98701,259.88996 104.98701,260.95749 C108.05631,262.42545 111.65937,258.55548 116.59693,252.14999 C116.59693,252.14999 118.59864,251.88308 118.59864,251.88308 C114.59522,257.221 112.32661,260.02337 112.32661,260.95748 C114.72866,262.69231 117.93139,259.48958 122.20172,255.21926000000002 C122.20172,255.21926000000002 122.7355,255.61962 122.7355,255.61962 C118.46518,260.42373 114.46176,262.29198 112.72695,262.29198 C110.3249,262.29198 110.85869,260.15682 111.79282,258.68889 C108.99043,261.09096 106.85527,262.29198 105.38735,262.29198 C104.31977,262.29198 103.65253,261.7582 103.65253,260.95748 C103.65253,259.75649 105.65424,256.82064 109.39077,252.01653 C109.39077,252.01653 109.39077,252.01653 109.39077,252.01653 M133.94507,252.41685999999999 C132.07681,252.41685999999999 127.8065,255.35271 122.73551,261.89162 C122.73551,261.89162 120.86725,261.89162 120.86725,261.89162 C124.60378,256.1534 127.93997,254.41857 126.33859,252.81722000000002 C125.67135,252.81722000000002 124.33688,253.88479 122.33517,256.01995 C122.33517,256.01995 121.80137,255.61962 121.80137,255.61962 C124.20343,253.21755000000002 125.8048,251.74966 127.40617,251.74966 C129.54132,252.41687000000002 128.47374,253.75134000000003 127.40617,255.75304999999997 C130.60891,252.81723 133.01096,251.61621000000002 134.21198,251.61621000000002 C135.413,251.61621000000002 136.21369,252.28345000000002 136.21369,253.35100999999997 C136.88093,255.08580999999998 129.40787,260.69061 132.34373,261.4913 C134.07855,261.4913 136.61404,259.35614 140.35057,255.21927 C140.35057,255.21927 140.88435,255.61962999999997 140.88435,255.61962999999997 C136.88093,260.02338 133.94508,262.29199 131.80995,262.29199 C125.53792,260.82406 137.54817,253.75134000000003 133.94508,252.41687000000002 C133.94508,252.41687000000002 133.94508,252.41687000000002 133.94508,252.41687000000002 M148.49086,247.21242999999998 C148.62431,248.41348 146.08881,249.74795 145.95535,247.87966999999998 C145.82191,246.41177 148.3574,245.34418 148.49086,247.21242999999998 C148.49086,247.21242999999998 148.49086,247.21242999999998 148.49086,247.21242999999998 M142.48572,252.14999 C142.48572,252.14999 145.02121,251.61621000000002 145.02121,251.61621000000002 C141.01781,257.08752 138.48232,259.88995 138.48232,260.69061 C138.48232,261.22442 138.88265,261.4913 139.41645,261.4913 C141.41816,261.4913 145.02122,259.48959 149.02465,255.21927 C149.02465,255.21927 149.55845,255.61962999999997 149.55845,255.61962999999997 C145.28813,260.29025 141.28472,262.29199 139.01611,262.29199 C137.81509,262.29199 137.14785,261.75821 137.14785,260.69061 C137.14785,259.22271 139.14956,256.68719 142.48573,252.14999 C142.48573,252.14999 142.48573,252.14999 142.48573,252.14999 M148.89122,261.62475 C151.56017,261.89163 158.36598,255.35271999999998 157.56529,253.75134000000003 C157.56529,252.81723 157.03149,252.41687000000002 156.23082,252.41687000000002 C154.62946,252.01654000000002 147.02296,258.55548 147.55673,260.55719 C147.55673,261.22443 148.09053,261.62476 148.89122,261.62476 C148.89122,261.62476 148.89122,261.62476 148.89122,261.62476 M146.08882,259.88996 C146.22227,256.15342 153.69533,251.08243 155.83047,251.61622 C160.50112,252.68379 157.69873,256.6872 154.62945,259.22273 C157.2984,259.22273 159.43354,258.02168 161.96905,255.21928000000003 C161.96905,255.21928000000003 162.50285,255.61964 162.50285,255.61964 C159.83389,258.68891 157.2984,260.02339 153.82876,259.88996 C151.82705,261.49131 150.22569,262.292 148.89121,262.292 C147.15639,262.292 146.08881,261.35786 146.08881,259.88996 C146.08881,259.88996 146.08881,259.88996 146.08881,259.88996 M173.71241,252.41688 C171.84415,252.41688 167.57384,255.35273 162.50285,261.89164 C162.50285,261.89164 160.63458,261.89164 160.63458,261.89164 C164.37111,256.15342 167.70729,254.41859 166.10592,252.81724000000003 C165.43868,252.81724000000003 164.10421,253.88481000000002 162.10249,256.01997 C162.10249,256.01997 161.56872,255.61964 161.56872,255.61964 C163.97076,253.21757000000002 165.57212,251.74968 167.17349,251.74968 C169.30865,252.41689000000002 168.24109,253.75135999999998 167.17349,255.75306999999998 C170.37623,252.81725 172.77829,251.61622999999997 173.97932,251.61622999999997 C175.18034,251.61622999999997 175.98101,252.28347000000002 175.98101,253.35102999999998 C176.64826,255.08583 169.17521,260.69063 172.11105,261.49132 C173.84587,261.49132 176.38136,259.35616 180.11789,255.21929 C180.11789,255.21929 180.65169,255.61964999999998 180.65169,255.61964999999998 C176.64827,260.0234 173.71242,262.29201 171.57726,262.29201 C165.30524,260.82408 177.3155,253.75135999999998 173.71242,252.41689000000002 C173.71242,252.41689000000002 173.71242,252.41689000000002 173.71242,252.41689000000002 " stroke-width="0" stroke="#000000" fill="#ffff00" id="svg_20" style="pointer-events:inherit" transform=""/></g><g id="svg_10" display="null" clip-id="227" stroke="null" stroke-opacity="1" transform=""><path fill="#EF5027" d="M79.03675695724161,81.85270389198217 C78.86504220213689,89.62565847305538 89.58004292067088,95.85203549315219 102.87877832101371,95.79479724145068 C104.17007327940112,95.77075717573595 105.45449964758438,95.68833409328576 106.6942801794404,95.56355470457632 C108.08288016572048,93.21907591488 110.10682474588799,90.93298014191923 112.26585160007123,89.5684202213538 C112.0643729540817,88.88041643590095 111.89265819897699,88.19470218051615 111.72781203407649,87.5066983950633 C106.36573261467339,87.41053813220465 99.09304035347185,85.05003263203191 99.0186306262598,81.88246778286695 C98.89270647251637,78.61301884567328 106.51455206909745,75.68470988862094 111.93730403530422,75.16956562330682 C112.146796036532,74.33388714846387 112.39978910905293,73.5646050455948 112.63904500116547,72.77357240707906 C112.47419883626497,72.6774121442204 112.31049743639846,72.59384429673614 112.14565127149794,72.46677537795865 C110.27853950099271,71.19837572025187 108.94946729648225,69.55563789641677 108.24085774041683,67.93465060822832 C106.67939823399797,67.77094920836181 105.08245101152416,67.64388028958433 103.42368647721264,67.66563082523095 C90.10205577618919,67.7331719622388 79.20045835710812,74.08776266614714 79.03675695724161,81.85270389198217 zM121.47205200375181,28.87297811700867 C113.93148472458694,31.30789334439345 111.00317576753461,40.90331385964471 114.89423211820733,53.291961057932596 C115.92452064883562,56.65184643281479 117.4184390182466,59.71294813381475 119.12070462385131,62.30469617086186 C119.5396886263068,61.89372552364456 119.94264591828588,61.49076823166551 120.35247180046912,61.12558818580948 C117.76072376342199,56.51104033362894 114.43174704445866,49.78325622862633 117.37264841688533,48.11762310411062 C120.32957649978846,46.46000333483316 128.41047287501618,50.3647968659143 131.3433608922046,54.79274801754774 C131.96267877561561,54.599282726796446 132.63580061562612,54.41268602624935 133.29289574516014,54.24783986134885 C133.58252129877008,49.15592498997715 136.42840717337214,44.771474909636865 139.77455536784595,44.75659296419444 C140.80484389847425,44.75659296419444 141.76759129209464,45.14466831073108 142.5975459417674,45.85442263183053 C142.47849037822812,45.39193755808185 142.3743167601313,44.93632107453736 142.23122113087732,44.465822645550446 C138.3619153158512,32.098925982909165 129.0068954577465,26.4323390644537 121.47205200375181,28.87297811700867 zM187.10257616980638,47.76618023866301 C182.94822386130642,42.075553254492874 171.98137483528552,42.717766438584505 161.86165193444793,49.03457989636979 C162.04824863499505,52.44025587261325 160.63904287810234,57.532170743984935 158.84519606977517,60.78788250077025 C159.2183894708694,61.12444342077549 159.53205509019398,61.4529909855425 159.8823531906076,61.7884071405137 C164.62511472659972,59.16689521258175 171.76272471378553,59.18979051326241 173.46499031939024,62.116954705280705 C175.08368807751063,65.00634165117599 170.81600403064155,69.635771448799 166.16024463723585,72.36145699482778 C166.40179005941647,73.14562104313927 166.6101372956102,73.91490314600836 166.80474735139555,74.72883108520469 C166.82764265207615,74.71394913976233 166.82764265207615,74.71394913976233 166.82764265207615,74.71394913976233 C168.2379931740028,74.71394913976233 169.73191154341384,74.93832308643245 171.19034219676985,75.32639843296909 C172.72089304726984,74.52048384901099 174.27319443341642,73.57834222600317 175.80489004895043,72.50340785904767 C186.45921822068073,64.94795863444034 191.50763202075922,53.85060639453992 187.10257616980638,47.76618023866301 zM165.99768800240338,89.08761890706067 C170.53897089240596,91.82246257336166 175.5049616100342,97.2509383647386 173.7798007037489,100.13918054559983 C172.01800731637456,103.02169890129093 164.1763668332594,102.2615749186941 159.45764536298196,99.79575103539042 C159.09933390733013,100.22160362805013 158.67920513984058,100.59365226411035 158.29227455833797,100.9657009001705 C160.88173306531704,105.52758956078566 160.5016710740186,110.62293872725945 157.4760570890736,112.33321768810237 C156.37135883123327,112.95139080647937 155.06632669243746,113.04182724416782 153.75099166833536,112.7041215591286 C154.27300452385373,113.39327010961551 154.81333361991653,114.0503652391495 155.3948742572045,114.59298386528036 C166.53572756839816,125.0630048665316 178.12418400789804,126.76527047213634 183.60531899084046,119.41816848372278 C188.43050360928277,112.97428610715997 185.4369430452907,99.90564847865744 175.67667636513892,90.9295458468172 C173.7798007037489,89.22956977128051 171.79248860467035,87.77113911792453 169.76854402450283,86.53135858606848 C168.71650495822797,86.70879716634336 167.6564525367149,86.83930038022294 166.64219071656308,86.87478809627791 C166.43269871533533,87.62460919356849 166.24495724975418,88.35611405031455 165.99768800240338,89.08761890706067 zM118.19344494628585,134.5794365944347 C126.55709828491932,137.59703722414145 136.53372555650304,131.1886425636337 140.97426912351088,118.75763905908667 C141.4390437273276,117.5270166475029 141.86375155495324,116.09033652979346 142.2689983770004,114.63305064147147 C141.31197480855013,116.44750322041128 140.04471991587735,117.50183181675419 138.75914878266008,117.50183181675419 C136.34941838602396,117.54762241811545 134.70553579715482,113.87292665887463 134.53382104205016,108.44559563253173 C132.7926334252884,108.19718162014689 131.09151258471772,107.78850050299772 129.47167006156332,107.22069704611809 C126.64867948764183,111.58797565094793 122.60193509234081,114.01602228812851 120.20479711107905,112.68580531858407 C117.8374230207021,111.31895586795059 118.04691502192986,106.70326325073589 120.60775440305811,102.21578431733283 C119.95867262876229,101.6571389807255 119.33019662507907,101.07330881336947 118.74751122275707,100.47001764043489 C116.63541973496913,103.2311909025187 113.72199272335921,107.04783752597936 112.475343601299,110.6240834922935 C108.27749022150581,122.57771997764942 109.61457578125452,131.54580925425148 118.19344494628585,134.5794365944347 z" id="svg_14" stroke-width="0" stroke="null" transform=""/><path fill="#F7F297" d="M156.5247573457935,110.77404771175165 C159.42788147209714,109.1290203578485 159.75757380189816,104.33703392539303 157.3524224653982,99.99036109117574 C157.71073392105,99.6102990998773 158.05645296132752,99.26686958966792 158.4273568323537,98.86963612285902 C162.921704355961,101.22327303282762 170.38900667294786,101.94104070916532 172.01800731637456,99.2073418078983 C173.68364044089023,96.45990572622293 168.96377420557874,91.30731830804756 164.62511472659972,88.7144255059664 C164.87123920891648,88.02756648554754 165.07500738497404,87.31895692948214 165.23756401980654,86.61034737341667 C170.2745301695447,86.34819618062348 176.56615879658133,84.37004220181724 176.62454181331694,81.31580909102146 C176.6600295293719,78.08299263491675 170.6053672643798,74.99785086820208 165.43102931055782,75.05852341500575 C165.40698924484317,75.0218909339168 165.3966863595369,75.05852341500575 165.40698924484317,75.03562811432515 C165.23756401980654,74.2732146016602 165.036085373817,73.54170974491414 164.8105666621128,72.81707347837227 C169.19387197741906,70.19670631547437 173.30128891952373,65.82026959037232 171.72609223269654,63.07970209890114 C170.15089554586933,60.2647248802179 163.34183312345053,60.2647248802179 158.8291693592987,62.74428594392994 C158.51664850500813,62.430620324605286 158.18008758500292,62.094059404600046 157.84467143003172,61.811302441194286 C160.38376027551334,57.23338707010271 162.08602588111808,48.9899340600426 159.35232697985106,47.45251461933837 C156.6415233792647,45.91395041360015 150.49642467658413,51.603432632736244 147.62993303136946,55.950105466953524 C146.92017871026997,55.78525930205301 146.25507022549772,55.576912065859304 145.52356536875166,55.42694784640116 C145.42511557582498,50.67044913000066 142.89404008558154,46.563032187896 139.71502758607633,46.563032187896 C136.55547609214966,46.563032187896 133.82864578108683,50.75287221245094 133.58252129877008,55.62155790218651 C132.91855757903187,55.740613465725744 132.32213499630151,55.90545963062631 131.7096857030947,56.0989249213776 C128.9324857305345,51.89420295138024 121.24767805708166,48.18401947608443 118.46246472928324,49.73632086223101 C115.63260556515762,51.364176740623705 118.79101229405025,57.733649389974474 121.26256000252405,62.116954705280705 C120.58256957230941,62.74428594392994 119.91059249733297,63.43114496434873 119.291274613922,64.1180039847676 C115.71388388257384,61.82503962160273 111.57784781461835,61.742616539152436 109.9419785809875,64.00581701143254 C108.2179624397362,66.38005969201363 109.80002771676759,70.34552576989846 113.47357871097438,72.89949656082254 C113.63728011084088,73.02656547960002 113.78609956526498,73.08609326136965 113.95094573016547,73.19026687946653 C113.69680789261051,73.937798446689 113.47357871097438,74.71394913976233 113.2709552999508,75.46033594195075 C108.11149929157126,75.95258490658426 100.88230810166294,78.7458115896209 101.00250843023623,81.85155912694813 C101.0918001028907,84.86000163638265 107.9695484273514,87.08656962757372 113.07634524416545,87.15411076458157 C113.22516469858954,87.86272032064704 113.38199750825187,88.50493350473864 113.5766075640372,89.17004198951089 C109.22993472981995,91.85222646424651 105.40756428118907,98.57085244897678 106.97589237781213,101.29653799500554 C108.5281937639587,104.0600007871574 114.99497144120213,101.73956206317573 119.46069983895865,99.22794757851085 C120.11779496849266,99.92854377933801 120.77489009802667,100.55816454805532 121.49151300933035,101.16145572098989 C119.0577425469796,105.41883688255268 118.89289638207906,109.80901078806312 121.16296544456334,111.10717433665474 C123.4032706161628,112.36985016919138 127.2851688465633,110.07116198085632 129.92270748497165,105.91108584718614 C131.46814028091407,106.44912541318092 133.0811142138643,106.84292458488775 134.74674733838003,107.0753118867961 C134.91617256341667,112.25079460565215 136.47190824466534,115.70798500842696 138.7705964330004,115.70798500842696 C141.05783697099514,115.70798500842696 143.37140710477263,112.08136938061548 143.67705936885898,106.86581988556841 C144.79778433717576,106.66548600461286 145.8795872943354,106.36555756569666 146.8812566991129,106.05990530161023 C149.41462171942445,110.27950921705002 153.69375341663383,112.39389023490602 156.5247573457935,110.77404771175165 zM150.1392579859663,101.6571389807255 C150.36935575780663,102.06582009787468 150.1392579859663,102.75382388332761 149.7053920380684,102.97819782999773 C149.28755280064695,103.2311909025187 148.66136632703177,102.9404205838747 148.4221104349192,102.56722718278044 C148.2126184336915,102.12649264467836 148.43813714539564,101.55067583256061 148.8697135632255,101.29768276003966 C149.2864080356129,101.05384780779099 149.9148840392961,101.25876074888254 150.1392579859663,101.6571389807255 zM153.4705242349977,100.80543379540615 C153.09733083390344,101.08933552384588 152.45397288477778,100.90273882329879 152.133438675249,100.5730464934978 C151.84152359157102,100.19985309240352 151.96859251034846,99.57366661878834 152.34865450164693,99.28976489034852 C152.71383454750296,98.96808591578571 153.40870692316,99.03562705279356 153.6708581159532,99.415689044092 C153.99368185555005,99.74423660885901 153.8345595158197,100.48947864601345 153.4705242349977,100.80543379540615 zM155.4395200935317,97.97442986624642 C155.08120863787988,97.68137001753439 155.1109725287647,97.04144636351086 155.4395200935317,96.69000349806325 C155.7302904121757,96.33741586758154 156.39425413191395,96.29277003125432 156.75256558756575,96.58582987996635 C157.09599509777513,96.86973160840617 157.09599509777513,97.62298700079884 156.8120933693354,97.97442986624642 C156.4778219793982,98.33274132189828 155.81385825965998,98.28809548557109 155.4395200935317,97.97442986624642 zM158.00951759493222,93.6357703872674 C158.26480019752125,93.21907591488 158.89098667113643,93.09086223106846 159.32256308896626,93.3003542322962 C159.71178320053696,93.55449206985116 159.84457594448457,94.25623303571246 159.59158287196362,94.67407227313387 C159.35232697985106,95.0896219804873 158.63455930351338,95.12739922661032 158.22587818636418,94.89730145477 C157.84467143003172,94.67407227313387 157.75537975737726,94.03185908904229 158.00951759493222,93.6357703872674 zM160.48907865864425,91.38859662546379 C160.0105668744191,91.24664576124388 159.84457594448457,90.62618311279883 160.0105668744191,90.1865933397308 C160.17655780435365,89.73097685618626 160.80159951293484,89.50660290951613 161.2492026412411,89.66343571917847 C161.7116877149898,89.81339993863654 161.94293025186417,90.4750741283067 161.75060972614688,90.93069061185119 C161.60751409689288,91.38859662546379 160.92179984150812,91.55344279036427 160.48907865864425,91.38859662546379 zM152.19754551715477,61.12444342077549 C152.45397288477778,60.70545941831996 153.19921492193222,60.56350855410007 153.60789603908148,60.81077780145084 C154.0062742709244,61.042020338325216 154.0715258778642,61.69911546785923 153.82082233541132,62.0952041696341 C153.5724083230265,62.51418817208962 152.899286483016,62.626375145424674 152.52838261198985,62.387119253312136 C152.09566142912598,62.161600541607896 151.9537105649061,61.51938735751631 152.19754551715477,61.12444342077549 zM155.47844210468878,63.528449992241434 C155.81385825965998,63.155256591147165 156.5602450618485,63.155256591147165 156.91855651750026,63.46892221047182 C157.28488132839033,63.75969252911574 157.2047477760081,64.4465515495346 156.89108215668355,64.77624387933567 C156.56253459191652,65.17920117131472 155.91917664279086,65.13455533498751 155.5631547172071,64.83577166110528 C155.1876717860448,64.55072516763148 155.1876717860448,63.88790621292728 155.47844210468878,63.528449992241434 zM158.30601173874635,66.50026002058694 C158.6643231943982,66.209489701943 159.36720892529348,66.31366332003982 159.68087454461806,66.67197477569168 C159.96477627305785,67.04631294181995 159.79993010815735,67.66563082523095 159.4255919420291,67.99417838999796 C159.05468807100294,68.30784400932254 158.41018535684321,68.16589314510263 158.09766450255262,67.80758168945084 C157.81490753914687,67.44125687856076 157.9064887418694,66.81392563991159 158.30601173874635,66.50026002058694 zM160.48907865864425,69.91280458703456 C160.92294460654216,69.6586667494796 161.58690832628037,69.91280458703456 161.83303280859712,70.3008799335712 C162.0883154111861,70.69696863534607 161.77236026179347,71.3242998739953 161.36367914464427,71.57042435631209 C160.92294460654216,71.7787715925058 160.32652202381178,71.57042435631209 160.09527948693744,71.15258511889061 C159.86289218502907,70.75649641711574 160.0678051261207,70.13717853370474 160.48907865864425,69.91280458703456 zM163.1621050131076,79.46357926595859 C162.71221235473325,79.57576623929366 162.22110815513378,79.1281631109874 162.13296124751338,78.6565199169665 C162.04939340002906,78.19403484321776 162.4592192822123,77.7017858785843 162.92055959092696,77.58845414021519 C163.41624285066257,77.51404441300315 163.98290154250813,77.98454284199006 164.05845603475416,78.44015932553455 C164.1168390514898,78.94843500064448 163.62344532182226,79.38115618350837 163.1621050131076,79.46357926595859 zM162.62292068207876,75.43858540630421 C162.1318164824793,75.60457633623876 161.60751409689288,75.26687065119947 161.45869464246886,74.81239893268902 C161.29270371253432,74.37166439458689 161.58347403117824,73.81874288314977 162.08602588111808,73.62413282736442 C162.50272035350548,73.48332672817857 163.15981548303952,73.83476959362618 163.29718728712328,74.25260883104765 C163.45058580168347,74.72997585023874 163.06479998521493,75.25198870575704 162.62292068207876,75.43858540630421 zM161.39802209566523,86.46610697912872 C161.48731376831967,86.00476667041404 162.045959104927,85.66133716020461 162.51874706398195,85.74147071258685 C162.99725884820703,85.82389379503714 163.3704522493013,86.42146114280153 163.2800158116128,86.92172346267321 C163.16096024807354,87.36245800077529 162.5404975996285,87.65322831941928 162.0688544056076,87.57881859220724 C161.58690832628037,87.5066983950633 161.2961380076364,86.94461876335387 161.39802209566523,86.46610697912872 zM162.99725884820703,83.55496949758684 C162.50272035350548,83.55496949758684 162.08602588111808,83.0535624126811 162.11006594683272,82.60710404940883 C162.13410601254736,82.1056969645031 162.62292068207876,81.68785772708162 163.08769528589556,81.68785772708162 C163.56620707012064,81.66496242640102 164.06074556482224,82.22475252804233 164.04471885434577,82.70326431226748 C164.014954963461,83.18978945173087 163.45058580168347,83.54123231717847 162.99725884820703,83.55496949758684 zM148.50224398730143,59.29396413135923 C148.706012163359,58.839492412848784 149.39058165370977,58.562459274613175 149.84848766732233,58.72730543951373 C150.28922220542438,58.92077073026502 150.45177884025688,59.56298391435662 150.28922220542438,59.99570509722051 C150.12437604052388,60.42842628008434 149.49933433194275,60.63791828131211 149.04142831833016,60.503980772330436 C148.58581183478566,60.33226601722575 148.37517506852393,59.750725379937776 148.50224398730143,59.29396413135923 zM160.88173306531704,81.56078880830414 C160.63560858300025,93.3827773147465 150.82497224135113,102.9404205838747 138.8244003895999,103.02169890129093 C126.8776324944481,103.04573896700558 117.35662170640892,93.59226931597419 117.6256414894063,81.88361254790101 C117.87977932696127,70.1600738343854 127.72017955949524,60.56465331913411 139.668092219681,60.50627030239848 C151.6194391749689,60.45933493600326 161.09465936164685,69.86815875070737 160.88173306531704,81.56078880830414 zM132.09776104963134,103.63987201966788 C132.17217077684336,103.18654506619143 132.76973812460778,102.85685273639038 133.2482499088329,102.9598815894532 C133.70959021754754,103.04230467190348 134.0392825473486,103.56431752742179 133.95685946489832,104.043974076681 C133.8538306118355,104.52134109587209 133.21848601794807,104.88652114172811 132.74684282392712,104.81211141451607 C132.2545938592936,104.72739880199777 132.00846937697685,104.12067333396107 132.09776104963134,103.63987201966788 zM136.1605321554088,104.43319418825166 C136.1605321554088,103.96498528933279 136.69971648643758,103.5666070574899 137.15991203011822,103.5666070574899 C137.65445052481977,103.5666070574899 138.1169355985685,104.02222354103438 138.08831647271768,104.52363062594011 C138.07228976224127,104.96436516404225 137.49189388998732,105.43371882799511 137.043145996647,105.43371882799511 C136.53372555650304,105.47950942935637 136.1605321554088,104.919719327715 136.1605321554088,104.43319418825166 zM141.35891017494544,105.34671668540875 C140.88039839072027,105.45661412867571 140.40417613656322,104.96436516404225 140.31259493384073,104.49501150008933 C140.27710721778573,104.06114555219145 140.68578833493493,103.5666070574899 141.19406401004488,103.48647350510765 C141.61991660270456,103.38115512197678 142.16711428897156,103.81387630484068 142.23122113087732,104.24659748770458 C142.31364421332762,104.702213971249 141.84772484447683,105.28489937357102 141.35891017494544,105.34671668540875 zM118.83680289541152,95.5486727591339 C118.54488781173352,95.15029452729098 118.73148451228062,94.50235751802919 119.12070462385131,94.1955604889088 C119.50191138018376,93.89563204999257 120.1223740286288,94.04559626945064 120.4577901836,94.40619725517053 C120.74856050224399,94.73474481993762 120.62149158346648,95.3987085396758 120.24829818237224,95.68833409328576 C119.88082860644816,95.9813939419978 119.14932374970209,95.88408891410515 118.83680289541152,95.5486727591339 zM121.65979346933297,97.39975781916269 C121.97231432362354,97.01855106283026 122.61452750771517,97.04144636351086 122.98772090880941,97.35511198283544 C123.34603236446122,97.62298700079884 123.36205907493766,98.26520018489043 123.04724869057902,98.64640694122286 C122.71870112581202,99.01158698707891 121.97231432362354,99.03562705279356 121.61400286797172,98.71852713836688 C121.26256000252405,98.4151644043485 121.3301011395319,97.72029202869146 121.65979346933297,97.39975781916269 zM124.73463235074134,100.07965276383021 C124.9887701882963,99.65494493620457 125.60121948150308,99.55763990831193 126.01905871892455,99.81864633607105 C126.45177990178846,100.03386216246898 126.55709828491932,100.6531800458799 126.31784239280675,101.05041351268883 C126.08545509089839,101.4671079850763 125.33219969850573,101.60905884929622 124.94412435196907,101.38582966766 C124.52628511454759,101.13398136017315 124.48049451318634,100.47001764043489 124.73463235074134,100.07965276383021 zM130.00742009748996,102.90378810278568 C129.84257393258946,103.32048257517309 129.1408329667282,103.6043843036129 128.67720312794546,103.44182766878046 C128.22273140943503,103.30102156959461 128.0658985997727,102.6347683197883 128.26737724576225,102.17342801107367 C128.43336817569678,101.71895629256318 129.05154129407376,101.55296536262861 129.47052529652927,101.69606099188258 C129.9249970150397,101.84259091623855 130.1791348525947,102.46190879964956 130.00742009748996,102.90378810278568 zM141.52146680977788,56.74113810546919 C142.02287389468364,56.74113810546919 142.3869091755056,57.27917767146397 142.3869091755056,57.75654469065506 C142.3582900496548,58.233911709846154 141.84772484447683,58.60824987597442 141.35891017494544,58.652895712301685 C140.88039839072027,58.652895712301685 140.44538767778835,58.15148862739595 140.4625591532988,57.69014831868125 C140.48316492391137,57.2185051246603 141.02120448990613,56.74113810546919 141.52146680977788,56.74113810546919 zM138.19935868101874,57.667253018000594 C138.28063699843494,58.152633392429934 137.8479158155711,58.60824987597442 137.36368020617581,58.68952819339066 C136.9080637226313,58.80285993175977 136.37116892167057,58.42165317542732 136.2807324839821,57.94428615623622 C136.25325812316535,57.48866967269173 136.69971648643758,56.928879571050345 137.16334632522032,56.83958789839595 C137.6510162297177,56.74113810546919 138.1295280139428,57.2185051246603 138.19935868101874,57.667253018000594 zM134.0839283836758,58.33923009297703 C134.21099730245328,58.75706933039851 133.87558114748208,59.311135606869755 133.41195130869937,59.48285036197444 C132.96320341535906,59.65342035204513 132.39654472351353,59.33403090755034 132.2545938592936,58.90016495965247 C132.09661628459727,58.459430421550394 132.45492774024913,57.817217237458735 132.91855757903187,57.65237107255824 C133.38218741781458,57.46577437201107 133.8893183278905,57.87560025419437 134.0839283836758,58.33923009297703 zM130.09556700511038,59.65342035204513 C130.34970484266535,60.064390999262415 130.0669478792596,60.63906304634615 129.65597723204237,60.893200883901116 C129.2461513498591,61.12558818580948 128.6188201112099,60.93899148526238 128.39330139950573,60.5211522478409 C128.13916356195074,60.13193213627022 128.40932810998214,59.45995506129378 128.842049292846,59.21383057897705 C129.25988853026752,58.96656133162627 129.85860064306587,59.25733165027026 130.09556700511038,59.65342035204513 zM126.1850496488591,62.909132108830434 C125.81758007293503,63.245693028835674 125.19826218952403,63.13350605550062 124.85483267931463,62.75916788937229 C124.57093095087485,62.430620324605286 124.69113127944816,61.69911546785923 125.07119327074655,61.39346320377288 C125.43637331660258,61.080942349482285 126.10949515661308,61.2663942849954 126.39339688505282,61.617837150442995 C126.70706250437743,62.020794442422044 126.55709828491932,62.62523038039063 126.1850496488591,62.909132108830434 zM123.11478982758689,65.49973538084349 C122.80799279846646,65.88094213717599 122.15891102417068,65.90269267282254 121.78571762307644,65.61192235417862 C121.4125242219822,65.29825673485396 121.4274061674246,64.57362046831209 121.74794037695338,64.19241371197964 C122.07648794172043,63.84211561156603 122.73358307125442,63.88676144789329 123.09189452690626,64.17753176653723 C123.4513507475921,64.50607933130429 123.4513507475921,65.15630587063411 123.11478982758689,65.49973538084349 zM118.94097651350839,67.52367996101104 C119.20999629650576,67.10469595855551 119.88082860644816,67.04631294181995 120.28493066346127,67.27641071366025 C120.70391466591673,67.52367996101104 120.77832439312878,68.15101119966022 120.53792373598218,68.5837323825241 C120.28493066346127,68.97867631926499 119.64271747936964,69.09887664783822 119.20999629650576,68.88938464661052 C118.83680289541152,68.64326016429374 118.7085892116,67.91976866278591 118.94097651350839,67.52367996101104 zM146.44281169107887,58.53956397393257 C146.34550666318626,59.0260891133959 145.77770320630663,59.3099908418357 145.30148095214957,59.2344363495896 C144.84471970357106,59.14399991190115 144.49442160315743,58.60710511094044 144.57569992057364,58.15148862739595 C144.6718601834323,57.6890035536472 145.31521813255796,57.29978344207652 145.7983089769192,57.38335128956085 C146.25507022549772,57.46577437201107 146.52523477352918,58.06219695474148 146.44281169107887,58.53956397393257 zM118.04462549186177,70.77939171779634 C118.50024197540628,70.94996170786703 118.7085892116,71.55554241086966 118.52199251105289,72.01115889441415 C118.33539581050576,72.443880077278 117.71607792709476,72.69000455959478 117.2902253344351,72.54919846040893 C116.81972690544819,72.38435229550836 116.59535295877801,71.69749327508957 116.77508106912096,71.26362732719163 C116.96167776966807,70.81716896391943 117.61075954396388,70.63744085357644 118.04462549186177,70.77939171779634 zM114.35619255221259,83.78850156452926 C114.28865141520474,83.32601649078057 114.75800507915763,82.84750470655543 115.24453021862095,82.77080544927534 C115.71502864760787,82.69067189689316 116.20842237727543,83.09935301404235 116.25192344856858,83.58473338847169 C116.35609706666547,84.04034987201618 115.92337588380157,84.53488836671774 115.44600886461049,84.61502191909992 C114.99726097127017,84.7203403022308 114.43174704445866,84.26472381868629 114.35619255221259,83.78850156452926 zM115.46890416529114,80.50188115182512 C114.97551043562356,80.5247764525057 114.49013006119426,79.96498635086434 114.49013006119426,79.48647456663925 C114.49013006119426,79.00910754744815 115.07281546351626,78.63591414635388 115.55132724774138,78.61301884567328 C116.05845815781728,78.61301884567328 116.42478296870735,79.1281631109874 116.42478296870735,79.59064818473607 C116.40188766802672,80.06801520392719 115.92452064883562,80.50188115182512 115.46890416529114,80.50188115182512 zM116.02869426693248,76.47688729217067 C115.53644530229899,76.34981837339319 115.17698908161309,75.7740015612754 115.282307464744,75.2966345420843 C115.38648108284086,74.81125416765497 115.99091702080943,74.54337914969163 116.46256021483039,74.62465746710787 C116.92504528857907,74.68418524887748 117.20780225198483,75.25198870575704 117.13339252477279,75.69959183406336 C117.04410085211832,76.17009026305027 116.46256021483039,76.51466453829369 116.02869426693248,76.47688729217067 zM115.24453021862095,87.94056434296118 C115.05678875303983,87.48494785941669 115.46890416529114,86.92401299274125 115.92452064883562,86.7614563579088 C116.38013713238011,86.5966101930083 116.92504528857907,86.92630252280937 117.08989145347957,87.37962947628581 C117.25359285334608,87.82150877942193 116.92504528857907,88.38129888106324 116.46256021483039,88.54614504596381 C116.02869426693248,88.73045221644287 115.38648108284086,88.35611405031455 115.24453021862095,87.94056434296118 zM116.70067134190892,91.88885894533547 C116.46256021483039,91.4801778281863 116.76134388871256,90.87345236014961 117.19406507157646,90.62618311279883 C117.62678625444032,90.37204527524386 118.20947165676232,90.62618311279883 118.43384560343245,91.0154032243695 C118.66508814030682,91.45613776247164 118.46360949431728,92.06057370044022 118.04577025689582,92.30784294779099 C117.62678625444032,92.52992736439307 116.92390052354502,92.30784294779099 116.70067134190892,91.88885894533547 zM145.63689710712077,104.52363062594011 C145.1824253886103,104.702213971249 144.6214905219349,104.29238808906575 144.4646577122726,103.85050878592969 C144.2998115473721,103.44182766878046 144.65926776805796,102.90378810278568 145.13549002221504,102.72978381761294 C145.5979750959637,102.54433188209984 146.1371594269925,102.83510220074382 146.27796552617838,103.27698150387988 C146.4657069917595,103.75434852307106 146.07648688018884,104.39656170716265 145.63689710712077,104.52363062594011 z" id="svg_16" stroke-width="0" stroke="null" transform=""/><path fill="#BBD647" d="M118.20832689172828,81.88246778286695 C117.95418905417331,93.28318275678575 127.20618005921514,102.46190879964956 138.8621776357229,102.44588208917315 C150.49527991155009,102.37719618713123 160.0460545904741,93.07369075555798 160.3013371930631,81.55964404327014 C160.48907865864425,70.19556155044032 151.28860208013384,61.01798027261056 139.65549980430666,61.078652819414245 C128.0658985997727,61.13818060118386 118.46246472928324,70.47373945371 118.20832689172828,81.88246778286695 zM149.80956565616526,81.68900249211566 C149.70424727303438,87.42313054757896 144.87906265459196,92.07545564588264 139.06365628171244,92.13612819268624 C133.21619648788004,92.1590234933669 128.60050387066536,87.54218611111827 128.67491359787743,81.80805805565491 C128.7939691614167,76.0807985903958 133.62602237006325,71.40672295644558 139.4883641093381,71.38497242079897 C145.30148095214957,71.33918181943773 149.9148840392961,75.95372967161832 149.80956565616526,81.68900249211566 z" id="svg_17" stroke-width="0" stroke="null" transform=""/><path fill="#D02B5C" d="M129.59759421530674,81.80805805565491 C129.47052529652927,87.05108191151874 133.725616928024,91.29243636260513 139.06594581178052,91.26954106192447 C144.4028404004349,91.20886851512087 148.8388049073066,86.94576352838787 148.91550416458674,81.68900249211566 C149.04028355329615,76.45399199149001 144.7989291022098,72.22065089564192 139.44715256811295,72.23553284108428 C134.0839283836758,72.28017867741154 129.67772776768896,76.55931037462095 129.59759421530674,81.80805805565491 z" id="svg_19" stroke-width="0" stroke="null" transform=""/><path fill="#56412D" d="M128.67720312794546,81.80805805565491 C128.60279340073345,87.54333087615225 133.21848601794807,92.1590234933669 139.06709057681454,92.13612819268624 C144.88135218466007,92.0743108808486 149.7053920380684,87.42313054757896 149.81071042119927,81.68900249211566 C149.91717356936425,75.95372967161832 145.30262571718362,71.33918181943773 139.49065363940616,71.38497242079897 C133.6283119001313,71.40672295644558 128.79625869148478,76.0807985903958 128.67720312794546,81.80805805565491 zM148.91435939955267,81.68900249211566 C148.83994967234065,86.94461876335387 144.40398516546895,91.20886851512087 139.06480104674648,91.26954106192447 C133.72447216298997,91.29358112763919 129.4693805314952,87.04993714648475 129.5964494502727,81.80805805565491 C129.67772776768896,76.55931037462095 134.08278361864177,72.28017867741154 139.4448630380449,72.23553284108428 C144.7989291022098,72.22065089564192 149.04142831833016,76.45399199149001 148.91435939955267,81.68900249211566 zM117.62678625444032,81.88246778286695 C117.35776647144297,93.59112455094021 126.87877725948215,103.04459420197153 138.8255451546339,103.02055413625689 C150.82497224135113,102.9404205838747 160.63904287810234,93.38163254971244 160.88516736041913,81.55964404327014 C161.09465936164685,69.86815875070737 151.6194391749689,60.45933493600326 139.66923698471507,60.50512553736449 C127.72132432452926,60.56350855410007 117.87977932696127,70.15892906935136 117.62678625444032,81.88246778286695 zM160.30019242802905,81.56078880830414 C160.04490982544004,93.07598028562603 150.49642467658413,102.37948571719929 138.86103287068886,102.44702685420714 C127.20389052914706,102.4630535646836 117.95304428913929,93.28432752181979 118.20718212669422,81.88361254790101 C118.46131996424921,70.47488421874398 128.06475383473867,61.13932536621785 139.6532102742386,61.080942349482285 C151.2874573150998,61.01912503764461 160.48907865864425,70.19785108050843 160.30019242802905,81.56078880830414 zM102.87877832101371,95.79479724145068 C89.58004292067088,95.85546978825428 78.86389743710286,89.62565847305538 79.03675695724161,81.85270389198217 C79.20045835710812,74.08776266614714 90.10320054122322,67.7331719622388 103.4248312422467,67.6644860601969 C105.08245101152416,67.64273552455029 106.680542999032,67.76980444332783 108.24200250545084,67.93350584319428 C108.00961520354248,67.41034822264193 107.86766433932259,66.91809925800841 107.75547736598749,66.39494163745606 C106.53172354460794,66.31366332003982 105.30568019316028,66.25299077323615 104.0441491256577,66.25299077323615 C89.46098735713159,66.34915103609481 77.45354691517618,73.31619103320996 77.28984551530968,81.88132301783297 C77.12499935040917,90.39494057592452 88.83480088351641,97.24750406963653 103.44085795272314,97.19026581793494 C104.26966783736187,97.19026581793494 105.08359577655821,97.14561998160767 105.88951036051631,97.07693407956583 C106.12876625262889,96.58354034989824 106.41266798106867,96.06152749437996 106.69656970950847,95.56240993954225 C105.45449964758438,95.68833409328576 104.17007327940112,95.76961241070197 102.87877832101371,95.79479724145068 zM119.11955985881728,62.30469617086186 C117.41729425321259,59.71294813381475 115.92337588380157,56.65184643281479 114.89308735317334,53.291961057932596 C111.00317576753461,40.90331385964471 113.93033995955291,31.30789334439345 121.47205200375181,28.87297811700867 C129.00804022278058,26.4323390644537 138.36420484591926,32.098925982909165 142.23007636584333,44.464677880516405 C142.37317199509724,44.935176309503305 142.47849037822812,45.390792793047794 142.59640117673337,45.85327786679653 C143.55113521511555,46.66033721578863 144.3433126186653,47.88409103716822 144.92485325595325,49.340232160456154 C144.624924817037,47.73527158274412 144.25287618097678,46.122297649793865 143.7388766806967,44.50131036160542 C139.51927276525691,30.874027396495563 129.22325604917847,24.639637021160517 120.91226190211043,27.304650020385644 C112.60813634524665,30.00744026573379 109.38333324438017,40.565608174605444 113.6384248758749,54.223799795634136 C114.59430367929112,57.34442927840378 115.88674340271258,60.226947634094884 117.40241230777016,62.75802312433831 C117.69318262641416,62.90798734379638 117.98395294505812,63.05680679822048 118.25411749308952,63.24454826380163 C118.54488781173352,62.93088264447704 118.83680289541152,62.62523038039063 119.11955985881728,62.30469617086186 zM187.10257616980638,47.76618023866301 C191.50992155082733,53.85060639453992 186.45921822068073,64.94795863444034 175.80489004895043,72.50455262408167 C174.27319443341642,73.57834222600317 172.72089304726984,74.52162861404503 171.19034219676985,75.32754319800314 C171.98137483528552,75.5370351992309 172.72089304726984,75.81292357243247 173.46613508442428,76.11857583651881 C174.3865261717855,75.5656543250817 175.28173242839807,74.97610033255548 176.1689253297724,74.33274238342982 C188.18437912696612,65.85804683649533 193.8750061111362,53.37323937534883 188.92389733895035,46.51838635156872 C184.39864115942422,40.26796926575727 172.66022050046615,40.784258296105435 161.56401302559976,47.26477315375722 C161.7300039555343,47.76618023866301 161.83188804356308,48.36260282139337 161.86394146451596,49.03457989636979 C171.98137483528552,42.717766438584505 182.94822386130642,42.075553254492874 187.10257616980638,47.76618023866301 zM184.68826671303415,120.39007399761542 C189.9209876835917,113.4527978913851 186.6813026372828,99.34700314205011 176.1093975480028,89.68633101985905 C174.67500696036146,88.35611405031455 173.18108859095042,87.19875660090878 171.6585510956887,86.13755941436172 C171.03694368220965,86.30355034429627 170.38900667294786,86.42146114280153 169.76854402450283,86.53479288117057 C171.7936333697044,87.77457341302663 173.7798007037489,89.22956977128051 175.67667636513892,90.93298014191923 C185.43579828025668,99.90908277375954 188.43050360928277,112.97772040226212 183.60531899084046,119.42160277882488 C178.12647353796615,126.76870476723843 166.53916186350025,125.06758392666774 155.3948742572045,114.59641816038251 C154.81333361991653,114.05151000418357 154.27414928888777,113.39441487464953 153.75099166833536,112.70755585423069 C152.96682762002388,112.4992086180369 152.15289968082755,112.1260152169427 151.38934140312858,111.64750343271754 C152.2719552443668,113.00061570294272 153.2335578729532,114.2472648250029 154.2581225784113,115.2180255738615 C166.24495724975418,126.52258028492164 178.75151524654729,128.35077004426978 184.68826671303415,120.39007399761542 zM142.27014314203439,114.63305064147147 C141.8648963199873,116.08919176475942 141.4390437273276,117.52472711743481 140.97541388854486,118.75763905908667 C136.532580791469,131.1886425636337 126.55709828491932,137.59703722414145 118.1945897113199,134.5794365944347 C109.61457578125452,131.54924354935358 108.27863498653987,122.57886474268349 112.475343601299,110.6240834922935 C113.72199272335921,107.04783752597936 116.63427496993508,103.2311909025187 118.74751122275707,100.47001764043489 C118.66508814030682,100.36355449227003 118.58380982289059,100.28227617485379 118.47963620479369,100.17695779172286 C117.85917355634871,100.53069018723858 117.2100917820529,100.86610634220975 116.53124611687224,101.20152249718095 C114.55194737303195,103.83104778035113 112.43069776497177,106.97457256380139 111.44505507067073,109.94638259214688 C106.89003500025976,122.86505600119133 108.32442558790112,132.58640067018598 117.59129853838535,135.87073155282215 C126.64867948764183,139.11156136416503 137.46785382427265,132.19145673344516 142.291893677681,118.73588852344005 C143.40689482082763,115.59923233019401 144.60088475132235,111.3418511686312 145.04848787962862,107.97509720354483 C144.67414971350038,108.04721740068877 144.30210107744017,108.13879860341135 143.9346315015161,108.21893215579351 C143.76062721634332,110.7946534823642 143.14130933293234,113.02122147355527 142.27014314203439,114.63305064147147 zM157.47949138417567,112.33436245313641 C160.50396060408667,110.6240834922935 160.88516736041913,105.53102385588775 158.29341932337204,100.96799043023861 C158.68034990487462,100.59479702914433 159.10047867236415,100.22274839308412 159.45993489305005,99.79689580042447 C164.1786563633275,102.26043015366002 172.0202968464426,103.02055413625689 173.78209023381692,100.1403253106339 C175.5083959051363,97.2509383647386 170.54126042247404,91.82131780832768 165.99997753247143,89.08990843712871 C166.2472467798222,88.35611405031455 166.43498824540336,87.62689872363659 166.64333548159706,86.87822239138 C167.661031596851,86.84273467532503 168.718794488296,86.71337622647951 169.7708335545709,86.53479288117057 C170.39129620301588,86.42146114280153 171.04037797731175,86.30355034429627 171.65969586072274,86.13755941436172 C175.38705081152898,85.2434979227832 178.5454575404216,83.55496949758684 178.57522143130646,81.337559626668 C178.61986726763365,79.32162840173875 176.4242079323614,77.364080193545 173.46613508442428,76.11743107148483 C172.72089304726984,75.81063404236437 171.98137483528552,75.5347456691628 171.19034219676985,75.32639843296909 C169.73534583851594,74.93832308643245 168.2402827040709,74.71394913976233 166.82764265207615,74.71394913976233 C166.82764265207615,74.71394913976233 166.82764265207615,74.71394913976233 166.80474735139555,74.72883108520469 C166.6101372956102,73.9160479110424 166.40179005941647,73.14562104313927 166.16024463723585,72.36145699482778 C170.81371450057352,69.635771448799 175.08368807751063,65.00634165117599 173.46499031939024,62.116954705280705 C171.76272471378553,59.18979051326241 164.62282519653166,59.16689521258175 159.8823531906076,61.7884071405137 C159.53091032516,61.4529909855425 159.2183894708694,61.12444342077549 158.84519606977517,60.78788250077025 C160.63560858300025,57.532170743984935 162.04824863499505,52.44025587261325 161.86165193444793,49.03457989636979 C161.83303280859712,48.36374758642741 161.72771442546622,47.76618023866301 161.56286826056572,47.26477315375722 C161.3407838439636,46.54128165224938 160.96644567783537,45.99522873101638 160.4295508768746,45.689576466930035 C157.56076970159194,44.06973394377559 151.1168873250291,50.066013192032074 148.07753615967573,54.65766574353208 C147.38495331408672,54.447028977270264 146.628263626592,54.246695096314795 145.8601262887569,54.082993696448284 C145.8234938076679,52.372714735605385 145.462892821948,50.73799026700851 144.92599802098727,49.340232160456154 C144.3444573836993,47.88523580220226 143.5522799801496,46.66033721578863 142.5975459417674,45.85327786679653 C141.76759129209464,45.14352354569702 140.80713342854227,44.755448199160384 139.77455536784595,44.755448199160384 C136.42840717337214,44.77033014460281 133.58252129877008,49.15363545990904 133.29289574516014,54.246695096314795 C132.63580061562612,54.41154126121529 131.96267877561561,54.598137961762404 131.3433608922046,54.79160325251375 C128.40932810998214,50.36365210088026 120.32957649978846,46.458858569799105 117.37264841688533,48.116478339076636 C114.43174704445866,49.78211146359233 117.76072376342199,56.509895568594885 120.35247180046912,61.12444342077549 C119.94264591828588,61.48962346663153 119.5396886263068,61.89258075861058 119.12070462385131,62.303551405827804 C118.83680289541152,62.62523038039063 118.54603257676754,62.93088264447704 118.25526225812358,63.24454826380163 C117.98624247512619,63.05680679822048 117.6954721564822,62.90798734379638 117.40355707280422,62.75802312433831 C113.84906164213669,60.86916081818647 110.02554642847177,60.93670195519434 108.39769055007912,63.11747934502415 C107.7405954205451,64.02756754707914 107.55399871999796,65.19293835172309 107.75433260095348,66.39494163745606 C107.86651957428856,66.91809925800841 108.00847043850844,67.41034822264193 108.24085774041683,67.93350584319428 C108.94946729648225,69.55449313138277 110.27853950099271,71.19723095521782 112.14565127149794,72.4656306129246 C112.31049743639846,72.59269953170208 112.47419883626497,72.67626737918641 112.63904500116547,72.77242764204506 C112.39978910905293,73.56346028056075 112.14565127149794,74.33274238342982 111.93730403530422,75.16842085827277 C106.5156968341315,75.68470988862094 98.89270647251637,78.61187408063923 99.0186306262598,81.88132301783297 C99.09304035347185,85.0477431019638 106.36573261467339,87.40824860213654 111.72781203407649,87.5066983950633 C111.89265819897699,88.19355741548209 112.06322818904769,88.87927167086696 112.26585160007123,89.56613069128576 C110.10796951092205,90.93183537688525 108.08402493075452,93.21793114984592 106.6942801794404,95.56240993954225 C106.4103784510006,96.06381702444807 106.12762148759484,96.58697464500034 105.88722083044824,97.07693407956583 C104.95538209274667,99.18444650721764 104.62568976294564,101.16260048602393 105.33544408404511,102.35430088645063 C106.73892601576763,104.87163919628563 112.04033288836706,103.35597029122809 116.5289565868042,101.19808820207885 C117.20780225198483,100.86267204710765 117.85802879131465,100.52725589213648 118.47734667472565,100.17352349662082 C118.58266505785653,100.2788418797517 118.66394337527277,100.36012019716793 118.74522169268899,100.4665833453328 C119.32790709501097,101.0698745182674 119.9552383336602,101.65370468562341 120.60546487299003,102.21235002223074 C118.04462549186177,106.69982895563379 117.83513349063406,111.3143768078144 120.20250758101098,112.68237102348198 C122.59964556227274,114.01029846295839 126.64638995757379,111.58454135584583 129.4693805314952,107.21726275101602 C131.0903678196837,107.78506620789562 132.79148866025437,108.19489209007887 134.5315315119821,108.4410165723956 C134.7032462670868,113.86949236377254 136.34483932588785,117.54418812301336 138.75685925259205,117.49839752165212 C140.04243038580927,117.49839752165212 141.3108300435161,116.44406892530918 142.26785361196636,114.62961634636937 C143.14016456789827,113.01778717845318 143.75948245130928,110.7912191872621 143.93119720641397,108.21549786069141 C144.29637725227,108.13421954327518 144.67071541839826,108.04378310558667 145.04505358452656,107.96937337837468 C145.82234904263385,107.78163191279353 146.5824730252307,107.58702185700818 147.33458365258934,107.36493744040612 C148.43470285029355,109.21487773540082 149.86794867290087,110.68590080413122 151.39048616816262,111.64292437258146 C152.15289968082755,112.11914662673851 152.96797238505792,112.49348479286678 153.75213643336946,112.70297679409452 C155.06632669243746,113.04297200920186 156.37364836130132,112.95253557151335 157.47949138417567,112.33436245313641 zM146.88354622918098,106.06219483167834 C145.88187682440352,106.3701366258328 144.80007386724384,106.66777553468097 143.6793488989271,106.86810941563644 C143.37255186980667,112.08365891068354 141.0601265010632,115.71027453849507 138.77288596306846,115.71027453849507 C136.4741977747334,115.71027453849507 134.91960685851876,112.25193937068613 134.74903686844806,107.07760141686421 C133.0834037439324,106.84750364502389 131.47042981098213,106.45141494324903 129.9249970150397,105.91337537725425 C127.28745837663136,110.07345151092443 123.40556014623084,112.37213969925949 121.16525497463141,111.10946386672285 C118.89518591214713,109.81015555309716 119.06003207704764,105.4199816475867 121.49380253939842,101.16374525105795 C120.77717962809474,100.5604540781234 120.12008449856073,99.93083330940613 119.46298936902669,99.2302371085789 C114.99726097127017,101.73956206317573 108.53048329402677,104.06229031722543 106.97818190788017,101.29882752507365 C105.40985381125715,98.57314197904489 109.23222425988801,91.85451599431454 113.57889709410524,89.17233151957899 C113.38428703831994,88.50722303480674 113.22745422865765,87.86500985071508 113.07863477423356,87.15640029464969 C107.97183795741944,87.08885915764182 101.09408963295874,84.86229116645069 101.0047979603043,81.85384865701617 C100.88459763173101,78.748101119689 108.11264405660529,75.95487443665237 113.2732448300189,75.46262547201886 C113.47472347600842,74.71509390479632 113.69909742267859,73.93894321172306 113.95323526023354,73.19255640953457 C113.78838909533302,73.0883827914377 113.63956964090892,73.02885500966806 113.47586824104245,72.90178609089058 C109.80231724683567,70.3478152999665 108.21910720477021,66.38234922208174 109.94426811105554,64.00810654150058 C111.58013734468642,61.74490606922048 115.71617341264191,61.82732915167077 119.29356414399004,64.1202935148357 C119.91288202740104,63.433434494416844 120.58485910237748,62.74657547399798 121.26484953259215,62.1192442353488 C118.79330182411834,57.735938920042514 115.63489509522569,51.366466270691745 118.46475425935131,49.73861039229912 C121.24996758714973,48.18630900615253 128.93477526060255,51.89649248144828 131.71197523316275,56.10121445144564 C132.32442452636957,55.907749160694365 132.92199187413394,55.742902995793855 133.58481082883813,55.62384743225455 C133.8309353111549,50.75516174251898 136.55776562221772,46.56532171796404 139.7173171161444,46.56532171796404 C142.8963296156496,46.56532171796404 145.42740510589306,50.67273866006876 145.52585489881972,55.4292373764692 C146.2573597555658,55.579201595927344 146.92246824033805,55.78754883212105 147.63222256143752,55.95239499702156 C150.49871420665215,51.60686692783834 156.64381290933272,45.91623994366826 159.35461650991914,47.45480414940647 C162.0883154111861,48.99222359011064 160.38490504054738,57.23567660017082 157.84696096009975,61.8135919712624 C158.18237711507095,62.09749369970214 158.5189380350762,62.4329098546734 158.8314588893668,62.74657547399798 C163.3406883584165,60.26701441028594 170.1531850759374,60.26701441028594 171.7283817627646,63.08199162896918 C173.3035784495918,65.82370388547442 169.19616150748715,70.19899584554241 164.81285619218087,72.8193630084403 C165.03837490388506,73.54399927498218 165.23985354987457,74.27550413172824 165.40927877491123,75.0379176443932 C165.39554159450284,75.06081294507379 165.40927877491123,75.02303569895078 165.43331884062587,75.06081294507379 C170.6088015594819,75.00128516330417 176.66575335454203,78.08528216498479 176.626831343385,81.3180986210895 C176.56615879658133,84.37118696685123 170.2768196996128,86.35048571069157 165.23985354987457,86.61263690348471 C165.07386261994003,87.32124645955018 164.87352873898456,88.02985601561565 164.6274042566678,88.7178598010685 C168.9660637356468,91.3096078381156 173.6859299709583,96.46219525629098 172.0202968464426,99.20963133796636 C170.39129620301588,101.94333023923335 162.92399388602905,101.22556256289565 158.42964636242175,98.87192565292705 C158.05874249139555,99.27030388477002 157.71416821615213,99.61144386491134 157.35471199546623,99.9926506212438 C159.76215286203433,104.33932345546106 159.43131576719924,109.1324546529506 156.52704687586152,110.77633724181968 C153.69375341663383,112.39389023490602 149.41462171942445,110.27950921705002 146.88354622918098,106.06219483167834 zM115.55132724774138,78.61301884567328 C115.07281546351626,78.63591414635388 114.49013006119426,79.0079627824141 114.49013006119426,79.48647456663925 S114.97551043562356,80.5247764525057 115.46890416529114,80.50188115182512 C115.92452064883562,80.50188115182512 116.40188766802672,80.06915996896122 116.42363820367332,79.59064818473607 C116.42363820367332,79.12701834595335 116.05845815781728,78.61301884567328 115.55132724774138,78.61301884567328 zM117.13339252477279,75.69959183406336 C117.20780225198483,75.25198870575704 116.92504528857907,74.68418524887748 116.46256021483039,74.62465746710787 C115.99091702080943,74.54337914969163 115.38648108284086,74.81125416765497 115.282307464744,75.2966345420843 C115.17698908161309,75.7740015612754 115.53644530229899,76.34867360835914 116.02869426693248,76.47688729217067 C116.46256021483039,76.51466453829369 117.04410085211832,76.17009026305027 117.13339252477279,75.69959183406336 zM117.2902253344351,72.54919846040893 C117.71607792709476,72.69000455959478 118.3365405755398,72.443880077278 118.52199251105289,72.01115889441415 C118.7085892116,71.55554241086966 118.50024197540628,70.95110647290109 118.04462549186177,70.77939171779634 C117.61075954396388,70.63629608854245 116.96167776966807,70.81602419888537 116.77508106912096,71.26362732719163 C116.59535295877801,71.69749327508957 116.82087167048222,72.38549706054242 117.2902253344351,72.54919846040893 zM120.53792373598218,68.5837323825241 C120.77717962809474,68.15101119966022 120.70391466591673,67.52367996101104 120.28493066346127,67.27641071366025 C119.88082860644816,67.0451681767859 119.20999629650576,67.10469595855551 118.94097651350839,67.52367996101104 C118.7085892116,67.91976866278591 118.83680289541152,68.64326016429374 119.20999629650576,68.88938464661052 C119.64271747936964,69.09887664783822 120.28493066346127,68.97982108429898 120.53792373598218,68.5837323825241 zM121.74794037695338,64.19241371197964 C121.42626140239057,64.57362046831209 121.4125242219822,65.29825673485396 121.78571762307644,65.61192235417862 C122.15891102417068,65.90269267282254 122.8091375635005,65.88094213717599 123.11478982758689,65.49973538084349 C123.45020598255812,65.15516110560007 123.45020598255812,64.50607933130429 123.09189452690626,64.17753176653723 C122.73358307125442,63.88790621292728 122.07648794172043,63.84211561156603 121.74794037695338,64.19241371197964 zM125.07119327074655,61.39346320377288 C124.69113127944816,61.700260232893285 124.57093095087485,62.430620324605286 124.85483267931463,62.75916788937229 C125.19826218952403,63.13350605550062 125.81758007293503,63.245693028835674 126.1850496488591,62.909132108830434 C126.55824304995338,62.62523038039063 126.70706250437743,62.020794442422044 126.39339688505282,61.617837150442995 C126.10949515661308,61.2663942849954 125.43637331660258,61.07979758444823 125.07119327074655,61.39346320377288 zM128.84319405788005,59.212685813943 C128.41047287501618,59.458810296259784 128.14030832698475,60.130787371236224 128.39444616453972,60.52000748280692 C128.6188201112099,60.93784672022839 129.2461513498591,61.12444342077549 129.65712199707636,60.892056118867075 C130.06809264429364,60.63791828131211 130.3508496076994,60.064390999262415 130.09671177014445,59.652275587011076 C129.85860064306587,59.25733165027026 129.25988853026752,58.96656133162627 128.84319405788005,59.212685813943 zM132.91970234406588,57.65237107255824 C132.4560725052832,57.817217237458735 132.09776104963134,58.459430421550394 132.25573862432768,58.90016495965247 C132.39768948854754,59.3328861425163 132.96434818039313,59.65342035204513 133.4130960737334,59.48285036197444 C133.87672591251615,59.311135606869755 134.21214206748732,58.758214095432564 134.08507314870985,58.33923009297703 C133.8893183278905,57.87560025419437 133.38218741781458,57.46577437201107 132.91970234406588,57.65237107255824 zM137.15991203011822,56.83844313336189 C136.69971648643758,56.928879571050345 136.24982382806326,57.48752490765767 136.27844295391407,57.94314139120216 C136.3688793916025,58.42050841039327 136.90577419256323,58.80171516672577 137.36253544114174,58.68838342835666 C137.8479158155711,58.60710511094044 138.28063699843494,58.15148862739595 138.19706915095065,57.66610825296661 C138.1295280139428,57.2185051246603 137.6510162297177,56.74113810546919 137.15991203011822,56.83844313336189 zM140.45912485819673,57.69014831868125 C140.4430981477203,58.152633392429934 140.87696409561818,58.652895712301685 141.3554758798433,58.652895712301685 C141.84772484447683,58.60710511094044 142.35485575455272,58.233911709846154 142.38461964543757,57.75654469065506 C142.38461964543757,57.27917767146397 142.01943959958152,56.74113810546919 141.51917727970982,56.74113810546919 S140.48316492391137,57.2185051246603 140.45912485819673,57.69014831868125 zM144.57569992057364,58.152633392429934 C144.49442160315743,58.60824987597442 144.84357493853702,59.14628944196919 145.30148095214957,59.235581114623656 C145.77770320630663,59.3099908418357 146.34550666318626,59.0260891133959 146.44281169107887,58.54070873896656 C146.52523477352918,58.063341719775465 146.25507022549772,57.466919137045124 145.7983089769192,57.38449605459485 C145.316362897592,57.30092820711057 144.6718601834323,57.69014831868125 144.57569992057364,58.152633392429934 zM149.04142831833016,60.50512553736449 C149.4970448018747,60.63906304634615 150.12437604052388,60.431860575186505 150.28922220542438,59.996849862254564 C150.45406837032496,59.56412867939066 150.28922220542438,58.921915495299075 149.84848766732233,58.72845020454771 C149.39287118377783,58.56360403964722 148.706012163359,58.839492412848784 148.50224398730143,59.29510889639329 C148.37517506852393,59.750725379937776 148.58581183478566,60.33226601722575 149.04142831833016,60.50512553736449 zM152.52838261198985,62.387119253312136 C152.899286483016,62.62523038039063 153.5724083230265,62.51304340705556 153.82082233541132,62.0952041696341 C154.07381540793224,61.700260232893285 154.0062742709244,61.04316510335926 153.60789603908148,60.81077780145084 C153.19921492193222,60.56350855410007 152.45168335470976,60.70660418335402 152.19754551715477,61.12444342077549 C151.9537105649061,61.51938735751631 152.09566142912598,62.161600541607896 152.52838261198985,62.387119253312136 zM156.8887926266155,64.77624387933567 C157.20131348090604,64.44769631456866 157.28488132839033,63.760837294149795 156.91741175246625,63.46892221047182 C156.55910029681442,63.155256591147165 155.81271349462594,63.155256591147165 155.4750078095867,63.528449992241434 C155.1842374909427,63.88676144789329 155.1842374909427,64.55072516763148 155.55857565707097,64.8346268960713 C155.91803187775685,65.13341056995347 156.5602450618485,65.17920117131472 156.8887926266155,64.77624387933567 zM159.42788147209714,67.99417838999796 C159.80107487319134,67.66563082523095 159.96592103809192,67.04631294181995 159.6820193096521,66.67197477569168 C159.3694984553615,66.31366332003982 158.66546795943222,66.209489701943 158.30944603384845,66.50026002058694 C157.9064887418694,66.81392563991159 157.81490753914687,67.44125687856076 158.0988092675867,67.80758168945084 C158.41247488691127,68.16589314510263 159.05583283603693,68.30784400932254 159.42788147209714,67.99417838999796 zM161.36138961457618,71.57042435631209 C161.76892596669137,71.3242998739953 162.08602588111808,70.69696863534607 161.83188804356308,70.3008799335712 C161.58347403117824,69.91280458703456 160.92179984150812,69.65752198444561 160.4879338936102,69.91280458703456 C160.0678051261207,70.13717853370474 159.859457889927,70.75649641711574 160.09070042680128,71.15258511889061 C160.32423249374375,71.57042435631209 160.92179984150812,71.7787715925058 161.36138961457618,71.57042435631209 zM162.08602588111808,73.62413282736442 C161.5846187962123,73.81874288314977 161.2961380076364,74.37166439458689 161.45869464246886,74.81239893268902 C161.60751409689288,75.26687065119947 162.1318164824793,75.60457633623876 162.62292068207876,75.43858540630421 C163.06479998521493,75.25198870575704 163.45402009678557,74.72997585023874 163.29718728712328,74.25260883104765 C163.1621050131076,73.83362482859218 162.50272035350548,73.48332672817857 162.08602588111808,73.62413282736442 zM162.921704355961,77.58959890524918 C162.46036404724632,77.7017858785843 162.04824863499505,78.19403484321776 162.13410601254736,78.65766468200049 C162.22225292016782,79.1281631109874 162.71564664983532,79.5769110043277 163.16324977814162,79.46472403099264 C163.62344532182226,79.3834457135764 164.1179838165238,78.94957976567854 164.0596007997882,78.44244885560259 C163.98061201244002,77.98568760702405 163.4150980856285,77.51518917803713 162.921704355961,77.58959890524918 zM163.08540575582748,81.68900249211566 C162.62292068207876,81.68900249211566 162.1318164824793,82.1079864945712 162.10892118179868,82.60710404940883 C162.08488111608403,83.05585194274914 162.50272035350548,83.55496949758684 162.994969318139,83.55496949758684 C163.4494410366495,83.54008755214443 164.01152066835888,83.19093421676486 164.04013979420967,82.70555384233552 C164.0596007997882,82.22475252804233 163.56391754005259,81.666107191435 163.08540575582748,81.68900249211566 zM162.0688544056076,87.58110812227534 C162.5404975996285,87.65322831941928 163.15981548303952,87.36589229587739 163.2800158116128,86.92401299274125 C163.3704522493013,86.42260590783552 162.99725884820703,85.82618332510518 162.51874706398195,85.74490500768894 C162.04824863499505,85.66248192523867 161.49074806342173,86.00705620048214 161.39802209566523,86.46954127423082 C161.2961380076364,86.94461876335387 161.58690832628037,87.5066983950633 162.0688544056076,87.58110812227534 zM161.7494649611128,90.93298014191923 C161.94293025186417,90.4785084234088 161.7116877149898,89.81339993863654 161.24805787620707,89.66458048421245 C160.79930998286676,89.50774767455019 160.17426827428562,89.73326638625436 160.00942210938507,90.1877381047648 C159.8422864144165,90.62847264286694 160.00942210938507,91.24893529131192 160.4879338936102,91.39088615553183 C160.92179984150812,91.55344279036427 161.60751409689288,91.38859662546379 161.7494649611128,90.93298014191923 zM159.59158287196362,94.67407227313387 C159.84457594448457,94.25623303571246 159.71063843550291,93.55334730481712 159.32256308896626,93.3003542322962 C158.88869714106832,93.09086223106846 158.26251066745317,93.21907591488 158.00951759493222,93.6357703872674 C157.75537975737726,94.03185908904229 157.84467143003172,94.67407227313387 158.22587818636418,94.89844621980404 C158.63455930351338,95.12968875667843 159.35232697985106,95.09305627558939 159.59158287196362,94.67407227313387 zM156.7548551176338,96.58582987996635 C156.39654366198198,96.29277003125432 155.7302904121757,96.33741586758154 155.44066485856575,96.69000349806325 C155.11211729379875,97.04144636351086 155.08235340291392,97.68137001753439 155.44066485856575,97.97442986624642 C155.81385825965998,98.28695072053702 156.4778219793982,98.33274132189828 156.81323813436939,97.97442986624642 C157.09942939287723,97.62413176583283 157.09942939287723,96.86973160840617 156.7548551176338,96.58582987996635 zM153.6708581159532,99.415689044092 C153.40870692316,99.03562705279356 152.71383454750296,98.96694115075164 152.34865450164693,99.28976489034852 C151.96859251034846,99.57366661878834 151.84152359157102,100.19985309240352 152.133438675249,100.5730464934978 C152.45397288477778,100.90273882329879 153.09733083390344,101.08933552384588 153.4705242349977,100.80543379540615 C153.8345595158197,100.48947864601345 153.99368185555005,99.74423660885901 153.6708581159532,99.415689044092 zM148.4221104349192,102.56722718278044 C148.66136632703177,102.9404205838747 149.28755280064695,103.2311909025187 149.7053920380684,102.97819782999773 C150.1392579859663,102.75382388332761 150.36935575780663,102.06582009787468 150.1392579859663,101.6571389807255 C149.91717356936425,101.25876074888254 149.28755280064695,101.05384780779099 148.8697135632255,101.29768276003966 C148.4358476153276,101.55067583256061 148.2126184336915,102.12649264467836 148.4221104349192,102.56722718278044 zM145.134345257181,102.72978381761294 C144.65812300302395,102.90149857271763 144.2998115473721,103.44068290374639 144.4635129472386,103.85050878592969 C144.6214905219349,104.29238808906575 145.17899109350822,104.702213971249 145.63460757705275,104.52363062594011 C146.0753421151548,104.39656170716265 146.4645622267255,103.75434852307106 146.27682076114434,103.27698150387988 C146.1337251318904,102.83510220074382 145.5979750959637,102.54433188209984 145.134345257181,102.72978381761294 zM141.1917744799768,103.48647350510765 C140.68578833493493,103.5666070574899 140.27367292268366,104.06114555219145 140.3114501688067,104.49501150008933 C140.40074184146113,104.96436516404225 140.87696409561818,105.45661412867571 141.3554758798433,105.34671668540875 C141.84772484447683,105.28489937357102 142.31020991822552,104.702213971249 142.22778683577525,104.24659748770458 C142.1636799938695,103.81387630484068 141.61762707263654,103.38115512197678 141.1917744799768,103.48647350510765 zM138.08602694264962,104.52363062594011 C138.1135013034664,104.02222354103438 137.6510162297177,103.5666070574899 137.15876726508418,103.5666070574899 C136.6962821913355,103.5666070574899 136.1570978603067,103.96498528933279 136.1570978603067,104.43319418825166 C136.1570978603067,104.919719327715 136.53143602643496,105.47950942935637 137.03971170154492,105.43371882799511 C137.4907491249533,105.43371882799511 138.07228976224127,104.96436516404225 138.08602694264962,104.52363062594011 zM133.95685946489832,104.04626360674902 C134.0392825473486,103.5666070574899 133.71073498258158,103.04459420197153 133.2482499088329,102.9633158845553 C132.76973812460778,102.85914226645846 132.17217077684336,103.18654506619143 132.09776104963134,103.64330631476997 C132.00846937697685,104.12181809899513 132.25573862432768,104.72739880199777 132.74684282392712,104.81440094458412 C133.21848601794807,104.88881067179616 133.85268584680148,104.52363062594011 133.95685946489832,104.04626360674902 zM129.4693805314952,101.69377146181452 C129.05039652903974,101.55067583256061 128.4322234106628,101.71666676249512 128.2662324807282,102.17113848100564 C128.0658985997727,102.63362355475425 128.221586644401,103.29758727449251 128.67605836291148,103.44068290374639 C129.13968820169418,103.6043843036129 129.84142916755542,103.32048257517309 130.00627533245597,102.90149857271763 C130.1791348525947,102.46190879964956 129.9249970150397,101.84259091623855 129.4693805314952,101.69377146181452 zM126.31784239280675,101.05384780779099 C126.55709828491932,100.65546957594802 126.45177990178846,100.03500692750302 126.01905871892455,99.81979110110507 C125.60121948150308,99.55763990831193 124.9887701882963,99.65494493620457 124.73463235074134,100.08194229389827 C124.48049451318634,100.472307170503 124.5251403495136,101.1362708902412 124.94412435196907,101.39040872779617 C125.33334446353975,101.61134837936419 126.08659985593242,101.46939751514435 126.31784239280675,101.05384780779099 zM123.04724869057902,98.64640694122286 C123.36091430990365,98.26520018489043 123.34603236446122,97.62298700079884 122.98772090880941,97.35511198283544 C122.61452750771517,97.04144636351086 121.97231432362354,97.01855106283026 121.65979346933297,97.39975781916269 C121.33124590456596,97.71914726365742 121.2637047675581,98.4151644043485 121.61400286797172,98.71852713836688 C121.97231432362354,99.03562705279356 122.71870112581202,99.01158698707891 123.04724869057902,98.64640694122286 zM120.45664541856594,94.40619725517053 C120.12122926359476,94.04674103448468 119.50076661514973,93.89906634509467 119.11955985881728,94.1955604889088 C118.73148451228062,94.50235751802919 118.54488781173352,95.15029452729098 118.83565813037751,95.5486727591339 C119.14817898466805,95.88408891410515 119.88082860644816,95.9813939419978 120.2460086523042,95.68833409328576 C120.62034681843245,95.3987085396758 120.74741573720993,94.73474481993762 120.45664541856594,94.40619725517053 zM118.04462549186177,92.30784294779099 C118.46246472928324,92.06057370044022 118.66394337527277,91.45613776247164 118.43270083839843,91.0154032243695 C118.20832689172828,90.62618311279883 117.6256414894063,90.37204527524386 117.1929203065424,90.62618311279883 C116.76019912367855,90.87345236014961 116.46141544979635,91.4767435330842 116.6995265768749,91.88885894533547 C116.92390052354502,92.30784294779099 117.62678625444032,92.52992736439307 118.04462549186177,92.30784294779099 zM117.08874668844558,87.37848471125176 C116.92390052354502,86.92401299274125 116.3789923673461,86.5931758979062 115.92337588380157,86.75916682784076 C115.46775940025708,86.92401299274125 115.05678875303983,87.48265832934858 115.24338545358692,87.93713004785909 C115.38533631780683,88.3538245202465 116.02754950189846,88.72816268637477 116.46027068476232,88.54156598582766 C116.92390052354502,88.37786458596116 117.25244808831206,87.81921924935384 117.08874668844558,87.37848471125176 zM116.25192344856858,83.58473338847169 C116.20727761224138,83.09935301404235 115.71388388257384,82.69067189689316 115.24453021862095,82.77080544927534 C114.75800507915763,82.84635994152144 114.28865141520474,83.32258219567848 114.35619255221259,83.78850156452926 C114.43060227942463,84.26472381868629 114.99726097127017,84.7203403022308 115.44600886461049,84.61731144916801 C115.92452064883562,84.53488836671774 116.35724183169948,84.04034987201618 116.25192344856858,83.58473338847169 z" id="svg_21" stroke-width="0" stroke="null" transform=""/></g></g><defs><path id="svg_5" d="M-58.39263,-698.53156A3420.77124,3420.77124 0 0 1 6783.1499,-698.53156A3420.77124,3420.77124 0 0 1 -58.39263,-698.53156A3420.77124,3420.77124 0 0 1 6783.1499,-698.53156A3420.77124,3420.77124 0 0 1 -58.39263,-698.53156" stroke="#000000" fill="#000000"/><path id="svg_7" d="M44.38284,193.21437Q83.88284,195.21437 123.35262,192.96437" stroke="#000000" fill="#000000"/><path id="svg_9" d="M54.12695,266.86508Q89.67694,268.86508 125.25228,266.61508" stroke="#000000" fill="#000000"/><path fill="#000000" stroke="#000000" d="M-4648.72217,4804.11572A4698.25391,4698.25391 0 0 1 4747.78564,4804.11572A4698.25391,4698.25391 0 0 1 -4648.72217,4804.11572A4698.25391,4698.25391 0 0 1 4747.78564,4804.11572A4698.25391,4698.25391 0 0 1 -4648.72217,4804.11572" id="svg_12"/><path fill="#000000" stroke="#000000" d="M-4627.52197,4831.81592A4698.25391,4698.25391 0 0 1 4768.98584,4831.81592A4698.25391,4698.25391 0 0 1 -4627.52197,4831.81592A4698.25391,4698.25391 0 0 1 4768.98584,4831.81592A4698.25391,4698.25391 0 0 1 -4627.52197,4831.81592" id="svg_15"/><path fill="#000000" stroke="#000000" d="M-4612.82227,4855.6665A4698.25391,4698.25391 0 0 1 4783.68554,4855.6665A4698.25391,4698.25391 0 0 1 -4612.82227,4855.6665A4698.25391,4698.25391 0 0 1 4783.68554,4855.6665A4698.25391,4698.25391 0 0 1 -4612.82227,4855.6665" id="svg_18"/></defs></svg>