<?xml version="1.0" encoding="utf-8"?>
<!-- Generator: Adobe Illustrator 16.0.0, SVG Export Plug-In . SVG Version: 6.00 Build 0)  -->
<!DOCTYPE svg PUBLIC "-//W3C//DTD SVG 1.1//EN" "http://www.w3.org/Graphics/SVG/1.1/DTD/svg11.dtd">
<svg version="1.1" id="Layer_1" xmlns="http://www.w3.org/2000/svg" xmlns:xlink="http://www.w3.org/1999/xlink" x="0px" y="0px"
	 width="100px" height="100px" viewBox="0 0 100 100" enable-background="new 0 0 100 100" xml:space="preserve">
<path fill="#0791B6" d="M59.75,84.64c11.825-17.861,24.715-54.647,23.34-55.979c-1.348-1.322-23.831,24.11-33.846,43.907
	C39.232,52.771,16.75,27.338,15.403,28.661c-1.373,1.331,11.488,38.045,23.305,55.925c-14.455-0.133-33.079,3.555-32.802,4.671
	c0.336,1.38,31.96,7.521,44.408,5.063c12.45,2.458,44.073-3.683,44.409-5.063C95.015,88.084,74.43,84.07,59.75,84.64z"/>
<path fill="#B7D167" d="M58.4,74.342c1.556-26.151-5.099-68.612-7.219-69.228c-2.271-0.66-12.435,42.495-10.917,69.074
	C26.11,63.839,5.813,54.404,5.286,55.682c-0.677,1.63,26.949,31.412,40.828,37.374c0.569,0.644,1.341,0.974,2.287,1.027
	c0.325,0.019,0.672,0.002,1.036-0.043c1.422,0.173,2.557-0.12,3.321-0.983c0.4-0.172,0.812-0.364,1.233-0.574
	c14.216-7.079,40.256-35.218,39.599-36.801C93.061,54.398,72.564,63.932,58.4,74.342z"/>
<path fill="#109647" d="M69.827,13.414c-1.466-0.865-13.164,20.666-20.687,41.798C41.619,34.08,29.919,12.549,28.45,13.414
	c-2.509,1.481,6.129,80.723,20.489,81.033c0.067,0.006,0.135,0.002,0.202,0.005c0.067-0.003,0.134,0.001,0.202-0.005
	C63.706,94.137,72.345,14.895,69.827,13.414z"/>
</svg>
