<?xml version="1.0" encoding="utf-8"?>
<!-- Generator: Adobe Illustrator 16.0.0, SVG Export Plug-In . SVG Version: 6.00 Build 0)  -->
<!DOCTYPE svg PUBLIC "-//W3C//DTD SVG 1.1//EN" "http://www.w3.org/Graphics/SVG/1.1/DTD/svg11.dtd">
<svg version="1.1" id="Layer_1" xmlns="http://www.w3.org/2000/svg" xmlns:xlink="http://www.w3.org/1999/xlink" x="0px" y="0px"
	 width="99.563px" height="65.51px" viewBox="0 0 99.563 65.51" enable-background="new 0 0 99.563 65.51" xml:space="preserve">
<path fill="#28903B" d="M37.094,0c-0.184,0-0.368,0-0.552,0C36.343,0.915,37.533,0.402,37.094,0z M71.018,0
	c-0.229,0-0.461,0-0.688,0C69.6,0.965,71.803,1.099,71.018,0z M83.842,0.965c0.686,0.11,0.314-0.214,0.689-0.138
	c0.002,0,0.014,0.377,0.139,0.277C85.057,0.786,84.572,0.497,84.807,0c-0.598,0-1.195,0-1.792,0
	C83.207,0.293,83.286,0.876,83.842,0.965z M90.6,0c-0.14,0-0.276,0-0.414,0C90.227,0.322,90.559,0.322,90.6,0z M92.115,0
	c-0.093,0-0.185,0-0.276,0C91.874,0.174,92.114,0.14,92.115,0z M97.907,0c-0.092,0-0.186,0-0.275,0
	C97.666,0.174,97.905,0.14,97.907,0z M7.859,0.415c0.038,0.037,0.209-0.068,0.139-0.14C7.959,0.238,7.788,0.342,7.859,0.415z
	 M29.924,0.415c0.037,0.037,0.209-0.068,0.138-0.14C30.022,0.238,29.853,0.342,29.924,0.415z M89.221,0.275
	c-0.038-0.037-0.211,0.066-0.14,0.14C89.12,0.452,89.291,0.347,89.221,0.275z M95.563,0.415c0-0.077-0.138-0.157-0.138,0
	C95.426,0.489,95.563,0.57,95.563,0.415z M75.154,4.412c0.155-0.026,0.224,0.486,0.553,0.14c0.091-0.097-0.136-0.268-0.14-0.276
	c-0.435-0.995,0.797-0.504,0.968-0.965c0.13-0.359-0.377-0.572-0.553-0.552c0.203-0.023-0.228,0.841-0.415,0.414
	c-0.028-0.068,0.12-0.288,0.14-0.414c0.027-0.195-0.079-0.513,0-0.69c0.01-0.022,0.367-0.024,0.275-0.137
	c-0.258-0.318-2.294-0.138-2.345-0.689c0.01,0.102,0.817,0.251,0.689-0.415c-0.36-0.227-1.003,0.256-1.241,0
	c-0.01-0.009,0.197-0.407,0.139-0.412c-0.551-0.054-1.177-0.06-1.518,0.138c-0.043,0.022,0.036,0.239,0,0.274
	c-0.041,0.039-0.244-0.046-0.276,0c-0.078,0.111-0.081,0.316-0.138,0.415C71.143,1.5,70.76,1.487,70.74,1.655
	c0,0.011,0.396-0.016,0.413,0c0.064,0.075-0.207,0.146,0,0.552c0.003,0.004,0.255,0.114,0.275,0.138
	c0.142,0.163,0.286,0.652,0.276,0.829c-0.002,0.013-0.26-0.017-0.276,0c-0.094,0.08,0.14,0.28,0.138,0.275
	c-0.017-0.052,0.179-0.232,0.276-0.138c0.127,0.119,0.034,1.261,0.138,1.377c0.221,0.252,0.634-0.071,0.827,0
	c0.03,0.013-0.021,0.246,0,0.277c0.122,0.173,1.042,0.309,1.241,0.276C74.565,5.152,74.805,4.475,75.154,4.412z M74.465,0.415
	c-0.039-0.04-0.341,0.071-0.276,0.138C74.227,0.59,74.529,0.479,74.465,0.415z M76.257,0.415c-0.013,0.011,0,0.117,0,0.138
	C76.257,1.262,76.754-0.082,76.257,0.415z M89.91,0.689c0.075-0.076,0.004-0.28-0.141-0.137C89.694,0.627,89.768,0.833,89.91,0.689z
	 M70.051,1.104c0.223-0.224-0.544-0.92-0.689-0.415C69.332,0.799,69.672,1.482,70.051,1.104z M91.701,0.553
	c-0.037-0.04-0.209,0.065-0.138,0.137C91.603,0.728,91.773,0.624,91.701,0.553z M69.087,0.689c-0.038-0.037-0.209,0.066-0.138,0.138
	C68.986,0.866,69.158,0.762,69.087,0.689z M83.152,0.689c-0.036-0.037-0.209,0.066-0.138,0.138
	C83.053,0.866,83.224,0.762,83.152,0.689z M88.116,0.689c-0.038-0.037-0.209,0.066-0.139,0.138
	C88.016,0.866,88.188,0.762,88.116,0.689z M97.907,1.104c0.081-0.004,0.462-0.74,0-0.277C97.889,0.847,97.645,1.113,97.907,1.104z
	 M67.293,0.827c-0.037-0.037-0.209,0.068-0.138,0.138C67.194,1.004,67.365,0.898,67.293,0.827z M91.701,0.965
	c0.039,0.039,0.209-0.066,0.138-0.138C91.801,0.79,91.63,0.896,91.701,0.965z M93.495,0.827c-0.04-0.037-0.209,0.068-0.139,0.138
	C93.395,1.004,93.566,0.898,93.495,0.827z M75.567,1.104c0-0.077-0.138-0.157-0.138,0C75.43,1.18,75.567,1.26,75.567,1.104z
	 M76.672,0.965c-0.039-0.037-0.211,0.068-0.138,0.14C76.571,1.142,76.742,1.036,76.672,0.965z M89.634,0.965
	c-0.038-0.037-0.21,0.068-0.139,0.14C89.533,1.142,89.704,1.036,89.634,0.965z M85.91,1.104c-0.037-0.04-0.209,0.065-0.139,0.138
	C85.811,1.279,85.981,1.174,85.91,1.104z M98.458,1.242c-0.001-0.14-0.241-0.176-0.274,0C98.213,1.408,98.336,1.326,98.458,1.242z
	 M83.566,1.379c-0.007,0.032-0.021,0.254,0,0.275C84.047,2.137,83.711,0.657,83.566,1.379z M69.914,1.517
	c0.154-0.014,0.215,0.202,0.274,0C70.189,1.378,69.947,1.344,69.914,1.517z M87.842,1.654c0.075-0.075,0.003-0.28-0.14-0.138
	C87.626,1.594,87.698,1.797,87.842,1.654z M95.563,1.379c-0.07-0.069-0.483,0.068-0.415,0.138
	C95.221,1.588,95.633,1.449,95.563,1.379z M88.806,1.517c-0.038-0.037-0.341,0.073-0.273,0.138
	C88.568,1.692,88.871,1.583,88.806,1.517z M89.634,1.517c-0.038-0.037-0.21,0.068-0.139,0.138
	C89.533,1.692,89.704,1.588,89.634,1.517z M82.602,2.068c0.154-0.156-0.354-0.686-0.415-0.274
	C82.168,1.93,82.398,2.271,82.602,2.068z M95.977,1.654c-0.038-0.037-0.209,0.066-0.139,0.14
	C95.878,1.831,96.047,1.726,95.977,1.654z M98.458,1.794c0-0.079-0.138-0.157-0.138,0C98.321,1.869,98.458,1.949,98.458,1.794z
	 M97.08,1.794c-0.009,0,0.007,0.13,0,0.138c-0.023,0.022-0.25,0.137-0.139,0.274C97.084,2.382,97.572,1.767,97.08,1.794z
	 M96.391,1.932c-0.039-0.04-0.209,0.065-0.138,0.137C96.291,2.106,96.462,2.001,96.391,1.932z M94.459,2.206
	c-0.037-0.037-0.209,0.068-0.138,0.138C94.36,2.382,94.531,2.277,94.459,2.206z M28.545,2.483c0.037,0.037,0.34-0.073,0.274-0.14
	C28.782,2.307,28.479,2.417,28.545,2.483z M81.497,2.344c-0.038-0.037-0.342,0.073-0.274,0.14C81.26,2.521,81.563,2.41,81.497,2.344
	z M81.912,2.344c-0.039-0.037-0.344,0.073-0.276,0.14C81.674,2.521,81.977,2.41,81.912,2.344z M88.116,2.621
	c0.037,0.037,0.341-0.073,0.274-0.138C88.354,2.444,88.051,2.555,88.116,2.621z M88.668,2.759c0.038,0.037,0.209-0.068,0.138-0.138
	C88.768,2.581,88.597,2.687,88.668,2.759z M96.805,2.621c-0.039-0.04-0.209,0.065-0.139,0.138
	C96.705,2.796,96.875,2.69,96.805,2.621z M64.123,2.759c-0.039-0.038-0.209,0.065-0.14,0.137
	C64.022,2.934,64.194,2.828,64.123,2.759z M67.57,2.896c-0.002-0.139-0.242-0.173-0.276,0C67.449,2.882,67.51,3.096,67.57,2.896z
	 M68.397,3.033c-0.002-0.139-0.24-0.173-0.275,0C68.275,3.021,68.336,3.233,68.397,3.033z M93.357,2.896
	c-0.039-0.037-0.21,0.066-0.14,0.138C93.258,3.072,93.428,2.968,93.357,2.896z M80.118,3.311c0.037,0.037,0.209-0.068,0.139-0.138
	C80.219,3.134,80.047,3.239,80.118,3.311z M87.979,4.138c0.002,0.005,0.513,0.153,0.554,0.138c0.454-0.187,0.079-0.624,0.273-0.827
	c0.382-0.398-0.181-0.188-0.273-0.138C88.209,3.477,87.813,3.647,87.979,4.138z M90.46,3.585c0.066-0.022,0.189-0.477,0-0.412
	c-0.016,0.004,0.013,0.125,0,0.138C90.46,3.311,90.219,3.666,90.46,3.585z M99.563,3.311c0-0.047,0-0.093,0-0.138
	C99.406,3.198,99.486,3.311,99.563,3.311z M83.015,3.448c0,0.076,0.138,0.155,0.138,0C83.152,3.371,83.015,3.291,83.015,3.448z
	 M96.805,3.311c-0.039-0.039-0.209,0.065-0.139,0.138C96.705,3.485,96.875,3.382,96.805,3.311z M28.13,3.585
	c0.039,0.038,0.209-0.065,0.138-0.137C28.23,3.41,28.059,3.514,28.13,3.585z M65.115,4.664c0.254-0.212,0.313-0.83,0.247-0.941
	c-0.235-0.393-0.921-0.16-0.965-0.138c-0.18,0.09-0.36,0.083-0.414,0.277c-0.114,0.422,0.24,0.761,0.414,0.825
	C64.563,4.75,65.194,4.578,65.115,4.664z M68.672,3.448c-0.012,0.012,0,0.117,0,0.137C68.672,4.295,69.169,2.951,68.672,3.448z
	 M76.672,3.723c0.076-0.076,0.004-0.28-0.138-0.138C76.457,3.662,76.529,3.866,76.672,3.723z M89.357,3.448
	C88.939,3.912,89.867,3.866,89.357,3.448L89.357,3.448z M93.218,3.448c-0.037-0.038-0.209,0.065-0.138,0.137
	C93.119,3.623,93.289,3.52,93.218,3.448z M23.855,3.723c0.039,0.04,0.209-0.065,0.139-0.138C23.956,3.548,23.784,3.651,23.855,3.723
	z M97.218,3.723c-0.069,0.279,0.579,0.027,0.414-0.138C97.523,3.477,97.23,3.669,97.218,3.723z M83.704,3.862
	c0,0.075,0.138,0.155,0.138,0C83.842,3.783,83.704,3.705,83.704,3.862z M91.979,3.723c-0.039-0.037-0.21,0.068-0.14,0.14
	C91.879,3.899,92.049,3.794,91.979,3.723z M94.459,3.723c-0.037-0.037-0.209,0.068-0.138,0.14
	C94.36,3.899,94.531,3.794,94.459,3.723z M59.986,4c0.037,0.037,0.209-0.068,0.138-0.138C60.085,3.823,59.913,3.929,59.986,4z
	 M70.051,4c-0.253,0.254,0.321,0.588,0.415,0.275C70.526,4.073,70.146,3.905,70.051,4z M28.268,4.138
	c-0.314,0.315,0.232,0.457,0.415,0.274C28.924,4.171,28.628,3.778,28.268,4.138z M81.636,4.688c0.308,0.166,0.763-0.39,0.689-0.55
	c-0.104-0.224-0.506-0.021-0.564,0.007C81.512,4.304,81.414,4.569,81.636,4.688z M81.761,4.145c0.005-0.002,0.009-0.006,0.013-0.007
	C81.75,4.151,81.749,4.151,81.761,4.145z M98.458,4.138c0-0.077-0.138-0.157-0.138,0C98.321,4.212,98.458,4.293,98.458,4.138z
	 M57.365,4.412c0.036,0.038,0.209-0.065,0.138-0.137C57.465,4.237,57.294,4.341,57.365,4.412z M84.117,4.275
	c-0.038-0.038-0.343,0.072-0.275,0.137C83.879,4.45,84.184,4.341,84.117,4.275z M99.147,4.552c-0.001-0.14-0.24-0.175-0.273,0
	C98.902,4.718,99.025,4.636,99.147,4.552z M26.477,4.688c0.037,0.039,0.209-0.066,0.137-0.136
	C26.576,4.513,26.404,4.618,26.477,4.688z M64.123,4.965c0.258-0.26-0.431-0.404-0.414-0.138
	C63.709,4.813,64.051,5.036,64.123,4.965z M83.704,4.965c0.406-0.372-0.479-0.284-0.553-0.138
	C82.979,5.168,83.645,5.018,83.704,4.965z M90.047,4.827c0.038,0.037,0.209-0.068,0.139-0.14C90.146,4.65,89.977,4.756,90.047,4.827
	z M91.701,4.965c0.324-0.324-0.56-0.368-0.553-0.138C91.149,4.827,91.582,5.084,91.701,4.965z M77.085,4.827
	c-0.038-0.038-0.21,0.065-0.139,0.138C76.984,5.002,77.156,4.898,77.085,4.827z M81.636,4.965c0.038,0.037,0.209-0.066,0.138-0.138
	C81.736,4.789,81.564,4.893,81.636,4.965z M93.495,4.827c-0.04-0.038-0.209,0.065-0.139,0.138
	C93.395,5.002,93.566,4.898,93.495,4.827z M32.819,5.102c-0.021-0.272-0.466-0.177-0.826,0c-0.028,0.015-0.117-0.021-0.14,0
	c-0.117,0.118-0.471,0.885-0.413,0.967c-0.013-0.018,0.784,0.246,1.104,0.138c0.313-0.107,0.306-0.418,0.414-0.689
	C33.147,5.036,32.848,5.47,32.819,5.102z M63.847,5.517c-0.046-0.534-0.164-0.472-0.966-0.415c-0.271,0.021-0.783-0.026-0.966,0.14
	c-0.204,0.186-0.021,0.945-0.139,0.827C62.23,6.527,63.904,6.206,63.847,5.517z M77.498,4.965c-0.013,0.012,0,0.119,0,0.137
	C77.498,5.812,77.994,4.468,77.498,4.965z M82.187,5.102c0.038,0.038,0.209-0.065,0.14-0.137C82.287,4.927,82.115,5.03,82.187,5.102
	z M89.495,5.241c-0.001-0.14-0.241-0.175-0.274,0C89.374,5.226,89.435,5.441,89.495,5.241z M95.148,5.102
	c-0.037-0.037-0.209,0.066-0.137,0.14C95.05,5.278,95.221,5.174,95.148,5.102z M69.914,5.377c0-0.075-0.139-0.155-0.139,0
	C69.776,5.456,69.914,5.534,69.914,5.377z M83.291,5.241c-0.039-0.039-0.211,0.064-0.14,0.136
	C83.189,5.416,83.361,5.311,83.291,5.241z M83.842,5.241c-0.039-0.039-0.209,0.064-0.138,0.136
	C83.742,5.416,83.913,5.311,83.842,5.241z M95.426,5.377c0.037,0.039,0.209-0.066,0.138-0.136
	C95.523,5.202,95.354,5.306,95.426,5.377z M56.123,6.896c0.234,0.186,1.14-0.027,1.242-0.277c0.429-1.045-0.669-1.343-1.104-1.102
	c-0.058,0.032-0.23-0.045-0.275,0c-0.319,0.317,0.002,0.968,0,0.965C56.063,6.558,56.045,6.833,56.123,6.896z M59.434,5.517
	c0.037,0.037,0.209-0.066,0.138-0.14C59.533,5.34,59.362,5.445,59.434,5.517z M70.189,5.517c0.038,0.037,0.209-0.066,0.14-0.14
	C70.289,5.34,70.119,5.445,70.189,5.517z M91.149,5.377c-0.038-0.037-0.209,0.068-0.138,0.14C91.051,5.554,91.221,5.45,91.149,5.377
	z M96.805,5.517c0.037,0.037,0.209-0.066,0.138-0.14C96.903,5.34,96.733,5.445,96.805,5.517z M99.011,5.517
	c0.038,0.037,0.209-0.066,0.137-0.14C99.11,5.34,98.938,5.445,99.011,5.517z M66.742,5.517c-0.038-0.038-0.341,0.073-0.275,0.138
	C66.505,5.691,66.808,5.581,66.742,5.517z M72.672,5.654c0.002,0.139,0.241,0.173,0.274,0C72.793,5.668,72.732,5.454,72.672,5.654z
	 M74.465,5.517c-0.039-0.038-0.209,0.065-0.138,0.138C74.365,5.693,74.536,5.588,74.465,5.517z M77.637,5.654
	c0.037,0.039,0.209-0.066,0.138-0.138C77.736,5.479,77.564,5.582,77.637,5.654z M91.701,5.517c-0.037-0.038-0.209,0.065-0.138,0.138
	C91.603,5.693,91.773,5.588,91.701,5.517z M69.361,6.068c0.068-0.023,0.191-0.479,0-0.414c-0.014,0.005,0.015,0.126,0,0.137
	C69.361,5.791,69.121,6.148,69.361,6.068z M69.776,5.791c0.038,0.04,0.209-0.065,0.139-0.137C69.877,5.616,69.705,5.72,69.776,5.791
	z M89.771,5.654c-0.038-0.038-0.209,0.065-0.137,0.137C89.672,5.831,89.842,5.726,89.771,5.654z M71.845,5.791
	c-0.038-0.037-0.209,0.068-0.138,0.14C71.745,5.969,71.916,5.863,71.845,5.791z M74.051,5.931c0.039,0.038,0.209-0.067,0.138-0.14
	C74.15,5.754,73.979,5.859,74.051,5.931z M97.355,5.931c0.029,0.166,0.153,0.084,0.276,0C97.629,5.791,97.389,5.756,97.355,5.931z
	 M83.152,6.068c0.037,0.037,0.209-0.068,0.14-0.137C83.252,5.892,83.08,5.997,83.152,6.068z M70.189,6.206
	c0.038,0.037,0.209-0.066,0.14-0.138C70.289,6.029,70.119,6.135,70.189,6.206z M72.534,6.068c-0.038-0.039-0.209,0.066-0.139,0.138
	C72.435,6.243,72.605,6.14,72.534,6.068z M97.632,6.206c0.038,0.037,0.209-0.066,0.137-0.138C97.73,6.029,97.56,6.135,97.632,6.206z
	 M98.597,6.068c-0.013,0.011,0,0.118,0,0.138C98.597,6.915,99.094,5.571,98.597,6.068z M89.357,6.344
	c0.029,0.166,0.154,0.084,0.276,0C89.631,6.204,89.392,6.17,89.357,6.344z M97.907,6.344c0.028,0.166,0.151,0.084,0.275,0
	C98.182,6.204,97.941,6.17,97.907,6.344z M21.235,6.344c-0.038-0.038-0.209,0.065-0.138,0.138
	C21.136,6.521,21.307,6.415,21.235,6.344z M32.13,6.481c0.038,0.039,0.209-0.066,0.138-0.138C32.229,6.306,32.059,6.409,32.13,6.481
	z M62.467,6.344c-0.037-0.038-0.209,0.065-0.138,0.138C62.367,6.521,62.538,6.415,62.467,6.344z M65.363,6.618
	c0.039,0.04,0.211-0.065,0.14-0.137C65.463,6.443,65.293,6.549,65.363,6.618z M71.293,6.618c0.039,0.04,0.209-0.065,0.138-0.137
	C71.393,6.443,71.222,6.549,71.293,6.618z M86.049,6.481c-0.039-0.038-0.21,0.067-0.139,0.137
	C85.947,6.658,86.119,6.553,86.049,6.481z M91.564,6.481c-0.039-0.038-0.342,0.073-0.274,0.137
	C91.326,6.658,91.629,6.545,91.564,6.481z M84.67,6.758c0.037,0.037,0.34-0.073,0.272-0.14C84.906,6.581,84.604,6.691,84.67,6.758z
	 M65.226,6.896c0.038,0.037,0.341-0.073,0.276-0.138C65.463,6.719,65.16,6.831,65.226,6.896z M72.947,6.896
	c0.038,0.037,0.209-0.066,0.14-0.138C73.047,6.719,72.877,6.824,72.947,6.896z M85.358,7.033c0.13,0.143,0.711,0.127,0.69-0.275
	C85.803,6.833,85.477,6.827,85.358,7.033z M95.977,6.896c0.037,0.037,0.209-0.066,0.14-0.138
	C96.076,6.719,95.905,6.824,95.977,6.896z M61.226,6.896c-0.038-0.038-0.209,0.066-0.138,0.138
	C61.126,7.07,61.297,6.967,61.226,6.896z M91.979,6.896c-0.039-0.038-0.21,0.066-0.14,0.138C91.879,7.07,92.049,6.967,91.979,6.896z
	 M99.424,6.896c-0.037-0.038-0.209,0.066-0.138,0.138C99.324,7.07,99.495,6.967,99.424,6.896z M89.357,7.171
	c0.038,0.037,0.209-0.066,0.139-0.138C89.457,6.995,89.286,7.099,89.357,7.171z M92.943,7.033c-0.013,0.013,0,0.119,0,0.138
	C92.943,7.88,93.439,6.536,92.943,7.033z M72.396,7.308c0.038,0.04,0.209-0.065,0.139-0.137C72.496,7.133,72.325,7.236,72.396,7.308
	z M72.81,7.308c0.038,0.04,0.209-0.065,0.139-0.137C72.91,7.133,72.738,7.236,72.81,7.308z M69.914,7.445
	c0.038,0.04,0.341-0.071,0.274-0.138C70.152,7.271,69.85,7.381,69.914,7.445z M97.769,7.308c-0.038-0.037-0.209,0.066-0.137,0.138
	C97.67,7.485,97.841,7.38,97.769,7.308z M66.467,7.445c-0.038-0.037-0.209,0.068-0.139,0.14C66.366,7.622,66.537,7.517,66.467,7.445
	z M75.017,7.585c0.038,0.037,0.209-0.068,0.138-0.14C75.115,7.408,74.945,7.514,75.017,7.585z M75.844,7.585
	c0.038,0.037,0.209-0.068,0.139-0.14C75.943,7.408,75.771,7.514,75.844,7.585z M65.502,7.723c-0.039-0.039-0.209,0.065-0.14,0.138
	C65.402,7.897,65.573,7.794,65.502,7.723z M98.734,7.997c0.037,0.04,0.209-0.065,0.14-0.137C98.834,7.822,98.664,7.926,98.734,7.997
	z M79.705,8.135c-0.156,0.015-0.215-0.2-0.276,0C79.431,8.274,79.671,8.311,79.705,8.135z M90.322,8.135c0,0.71,0.496-0.632,0-0.138
	C90.311,8.01,90.322,8.117,90.322,8.135z M69.639,8.274C69.6,8.237,69.43,8.341,69.5,8.412C69.539,8.451,69.711,8.346,69.639,8.274z
	 M72.12,8.412c0.039,0.037,0.341-0.073,0.275-0.138C72.358,8.237,72.056,8.348,72.12,8.412z M95.426,8.274
	c-0.039-0.037-0.342,0.073-0.277,0.138C95.188,8.449,95.49,8.339,95.426,8.274z M53.229,8.412C53.19,8.374,53.02,8.479,53.09,8.55
	C53.128,8.589,53.299,8.483,53.229,8.412z M54.47,8.412c-0.04-0.038-0.21,0.066-0.14,0.138C54.369,8.589,54.54,8.483,54.47,8.412z
	 M79.98,8.55c0.039,0.039,0.21-0.066,0.139-0.138C80.08,8.374,79.908,8.479,79.98,8.55z M99.147,8.412
	C99.11,8.374,98.938,8.478,99.01,8.55C99.049,8.589,99.22,8.483,99.147,8.412z M66.467,8.688c0.038,0.038,0.209-0.067,0.137-0.139
	C66.566,8.512,66.395,8.615,66.467,8.688z M68.949,8.55c-0.038-0.038-0.209,0.065-0.14,0.139C68.85,8.727,69.021,8.621,68.949,8.55z
	 M70.879,8.688c0.038,0.038,0.209-0.067,0.139-0.139C70.979,8.512,70.809,8.615,70.879,8.688z M78.9,8.664
	c0.06,0.003,0.148,0.319,0.115,0.3c0.283,0.166,0.519-0.271,0.413-0.414C79.337,8.425,78.996,8.591,78.9,8.664z M78.877,8.688
	c0.002-0.007,0.012-0.016,0.022-0.024C78.893,8.662,78.884,8.669,78.877,8.688z M69.5,8.688c-0.038-0.039-0.209,0.064-0.14,0.138
	C69.401,8.864,69.57,8.759,69.5,8.688z M79.98,8.826c-0.03,0.084,0.208,0.295,0.276,0.275C80.618,8.991,80.168,8.326,79.98,8.826z
	 M80.671,9.239C80.813,9.414,81.3,8.8,80.808,8.826c-0.007,0,0.009,0.131,0,0.138C80.785,8.987,80.559,9.104,80.671,9.239z
	 M93.218,8.826c-0.037-0.039-0.209,0.066-0.138,0.138C93.119,9.001,93.289,8.897,93.218,8.826z M65.639,8.964
	c-0.037-0.037-0.209,0.066-0.137,0.138C65.539,9.139,65.711,9.033,65.639,8.964z M63.57,9.102c-0.037-0.037-0.209,0.066-0.137,0.138
	C63.471,9.278,63.643,9.173,63.57,9.102z M90.6,9.377c0.037,0.039,0.209-0.066,0.137-0.138C90.697,9.201,90.527,9.305,90.6,9.377z
	 M64.26,9.516c0.038,0.038,0.209-0.067,0.139-0.139C64.36,9.339,64.189,9.442,64.26,9.516z M72.947,9.516
	c0.038,0.038,0.209-0.067,0.14-0.139C73.047,9.339,72.877,9.442,72.947,9.516z M63.984,9.653c0.038,0.038,0.21-0.066,0.14-0.138
	C64.084,9.477,63.914,9.582,63.984,9.653z M69.5,9.516c-0.038-0.039-0.209,0.066-0.14,0.138C69.401,9.691,69.57,9.587,69.5,9.516z
	 M75.567,9.516c-0.037-0.039-0.209,0.066-0.138,0.138C75.468,9.691,75.639,9.587,75.567,9.516z M75.706,9.653
	c0.038,0.038,0.209-0.066,0.138-0.138C75.805,9.477,75.635,9.582,75.706,9.653z M77.085,9.653c0.038,0.038,0.209-0.066,0.138-0.138
	C77.184,9.477,77.013,9.582,77.085,9.653z M90.736,9.516c-0.039-0.039-0.209,0.066-0.137,0.138
	C90.637,9.691,90.809,9.587,90.736,9.516z M93.357,9.516c-0.039-0.039-0.21,0.066-0.14,0.138
	C93.258,9.691,93.428,9.587,93.357,9.516z M83.979,9.791c-0.038-0.037-0.209,0.066-0.138,0.138
	C83.879,9.966,84.051,9.862,83.979,9.791z M67.982,9.929c-0.037-0.039-0.209,0.066-0.137,0.138
	C67.884,10.105,68.055,10,67.982,9.929z M77.913,9.929c-0.014,0.013,0,0.119,0,0.138C77.913,10.775,78.408,9.432,77.913,9.929z
	 M94.874,9.929c-0.108-0.109-0.401,0.084-0.415,0.138C94.39,10.345,95.038,10.095,94.874,9.929z M96.115,10.066
	c0.036,0.039,0.209-0.066,0.138-0.138C96.214,9.89,96.043,9.995,96.115,10.066z M77.498,10.204c0-0.077-0.138-0.156-0.138,0
	C77.361,10.28,77.498,10.36,77.498,10.204z M83.152,10.204c0.045,0.041,0.135-0.243-0.138,0c-0.397,0.358-0.196,0.114,0.138,0.276
	c0.068,0.034,0.127,0.321,0.275,0.275C83.933,10.602,83.148,10.202,83.152,10.204z M91.289,10.204c0.027,0.167,0.15,0.085,0.274,0
	C91.563,10.066,91.322,10.03,91.289,10.204z M69.361,10.343c0.04,0.038,0.209-0.067,0.14-0.139
	C69.462,10.166,69.291,10.271,69.361,10.343z M72.534,10.343c0.037,0.038,0.209-0.067,0.138-0.139
	C72.635,10.166,72.462,10.271,72.534,10.343z M76.396,10.343c0.038,0.038,0.341-0.073,0.276-0.139
	C76.633,10.166,76.33,10.278,76.396,10.343z M80.395,10.343c-0.058,0.058-0.174-0.021-0.138,0.138
	C80.416,11.197,81.005,9.732,80.395,10.343z M96.115,10.204c-0.039-0.038-0.342,0.074-0.277,0.139
	C95.878,10.381,96.18,10.27,96.115,10.204z M75.017,10.48c0.038,0.037,0.209-0.067,0.138-0.138
	C75.115,10.304,74.945,10.409,75.017,10.48z M88.943,10.343c-0.037-0.039-0.209,0.066-0.138,0.138
	C88.844,10.518,89.015,10.413,88.943,10.343z M73.361,10.618c0.039,0.037,0.209-0.066,0.139-0.138
	C73.461,10.441,73.29,10.547,73.361,10.618z M74.465,10.618c0.038,0.037,0.209-0.066,0.139-0.138
	C74.564,10.441,74.393,10.547,74.465,10.618z M98.597,10.618c-0.082,0.043-0.304,0.15-0.275,0.276
	C98.436,11.422,99.37,10.227,98.597,10.618z M65.914,10.618c-0.037-0.039-0.209,0.066-0.138,0.138
	C65.815,10.795,65.986,10.689,65.914,10.618z M83.704,10.756c0.038,0.039,0.209-0.066,0.138-0.138
	C83.803,10.579,83.633,10.685,83.704,10.756z M71.293,10.895c0.039,0.038,0.209-0.067,0.138-0.139
	C71.393,10.718,71.222,10.821,71.293,10.895z M85.358,10.756c-0.015,0.005,0.014,0.125,0,0.139c0,0-0.241,0.355,0,0.275
	C85.424,11.146,85.549,10.693,85.358,10.756z M86.875,10.756c-0.037-0.038-0.209,0.065-0.139,0.139
	C86.775,10.933,86.947,10.827,86.875,10.756z M89.357,11.032c0.038,0.038,0.209-0.065,0.139-0.138
	C89.457,10.855,89.286,10.961,89.357,11.032z M88.668,11.032c-0.039-0.037-0.209,0.066-0.138,0.138
	C88.568,11.209,88.74,11.103,88.668,11.032z M90.047,11.17c0-0.077-0.137-0.157-0.137,0C89.91,11.247,90.047,11.327,90.047,11.17z
	 M59.986,11.308c0.037,0.037,0.209-0.066,0.138-0.138C60.085,11.133,59.913,11.236,59.986,11.308z M62.329,11.308
	c0.038,0.037,0.209-0.066,0.138-0.138C62.43,11.133,62.258,11.236,62.329,11.308z M76.947,11.308
	c0.037,0.037,0.209-0.066,0.139-0.138C77.047,11.133,76.875,11.236,76.947,11.308z M90.46,11.308c0.003,0.14,0.242,0.173,0.275,0
	C90.582,11.322,90.522,11.107,90.46,11.308z M70.879,11.447c0.038,0.037,0.209-0.068,0.139-0.14
	C70.979,11.271,70.809,11.374,70.879,11.447z M80.946,11.447c0.037,0.037,0.209-0.068,0.139-0.14
	C81.046,11.271,80.875,11.374,80.946,11.447z M88.806,11.447c0.038,0.037,0.209-0.068,0.138-0.14
	C88.906,11.271,88.734,11.374,88.806,11.447z M94.736,11.447c-0.039-0.04-0.342,0.071-0.276,0.137
	C94.499,11.622,94.801,11.511,94.736,11.447z M67.432,11.722c0,0.075,0.139,0.155,0.139,0C67.57,11.646,67.432,11.564,67.432,11.722
	z M75.43,11.722C75.097,12.185,75.893,11.388,75.43,11.722L75.43,11.722z M85.358,11.584c-0.038-0.039-0.209,0.066-0.138,0.138
	C85.258,11.76,85.43,11.654,85.358,11.584z M70.741,11.859c0.038,0.038,0.209-0.067,0.138-0.138
	C70.841,11.685,70.67,11.788,70.741,11.859z M76.257,11.859c0.038,0.038,0.209-0.067,0.139-0.138
	C76.357,11.685,76.186,11.788,76.257,11.859z M83.842,11.722c-0.008,0,0.007,0.129,0,0.138c-0.024,0.023-0.249,0.14-0.138,0.275
	C83.846,12.31,84.335,11.695,83.842,11.722z M84.943,11.859c0.04,0.038,0.211-0.067,0.141-0.138
	C85.046,11.685,84.873,11.788,84.943,11.859z M88.943,11.859c0.039,0.038,0.343-0.073,0.277-0.138
	C89.183,11.685,88.879,11.793,88.943,11.859z M89.495,11.859c0,0.709,0.496-0.634,0-0.138C89.482,11.732,89.495,11.84,89.495,11.859
	z M91.149,11.859c0.04,0.038,0.21-0.067,0.141-0.138C91.25,11.685,91.079,11.788,91.149,11.859z M73.225,11.997
	c0,0.077,0.137,0.155,0.137,0C73.361,11.92,73.225,11.84,73.225,11.997z M86.875,11.997c0,0.077,0.137,0.155,0.137,0
	C87.012,11.92,86.875,11.84,86.875,11.997z M52.676,11.997c-0.038-0.039-0.209,0.066-0.137,0.138
	C52.577,12.174,52.748,12.068,52.676,11.997z M74.604,11.997c-0.039-0.039-0.211,0.066-0.139,0.138
	C74.503,12.174,74.674,12.068,74.604,11.997z M77.223,12.135c0.038,0.039,0.21-0.066,0.139-0.138
	C77.322,11.958,77.151,12.063,77.223,12.135z M83.291,12.135c0.037,0.039,0.207-0.066,0.137-0.138
	C83.39,11.958,83.219,12.063,83.291,12.135z M96.666,11.997c-0.038-0.039-0.209,0.066-0.14,0.138
	C96.567,12.174,96.736,12.068,96.666,11.997z M88.116,12.135c-0.038-0.038-0.342,0.073-0.274,0.14
	C87.879,12.312,88.182,12.201,88.116,12.135z M91.012,12.274c0.002,0.137,0.242,0.171,0.277,0
	C91.133,12.286,91.074,12.072,91.012,12.274z M99.286,12.274c0,0.074,0.138,0.155,0.138,0
	C99.424,12.195,99.286,12.117,99.286,12.274z M46.885,12.274c-0.037-0.04-0.209,0.065-0.138,0.137
	C46.784,12.449,46.956,12.344,46.885,12.274z M77.913,12.411c0.038,0.038,0.208-0.067,0.138-0.137
	C78.012,12.234,77.841,12.34,77.913,12.411z M79.844,12.411c0.037,0.038,0.209-0.067,0.137-0.137
	C79.942,12.234,79.772,12.34,79.844,12.411z M95.426,12.274c-0.039-0.04-0.342,0.073-0.277,0.137
	C95.188,12.449,95.49,12.338,95.426,12.274z M58.469,12.549c-0.02,0.02-0.23,0.023-0.139,0.138
	C58.526,12.934,59.026,11.992,58.469,12.549z M87.702,12.549c0,0.077,0.14,0.157,0.14,0C87.842,12.473,87.702,12.392,87.702,12.549z
	 M96.942,12.549c0.038,0.038,0.209-0.067,0.139-0.138C97.041,12.372,96.871,12.478,96.942,12.549z M56.123,12.687
	c0.039,0.037,0.209-0.066,0.139-0.138C56.224,12.512,56.053,12.615,56.123,12.687z M67.982,12.687
	c0.04,0.037,0.209-0.066,0.14-0.138C68.083,12.512,67.912,12.615,67.982,12.687z M72.81,12.687c0.038,0.037,0.209-0.066,0.139-0.138
	C72.91,12.512,72.738,12.615,72.81,12.687z M84.256,12.687c-0.287,0.288,0.377,0.302,0.274,0
	C84.482,12.542,84.285,12.658,84.256,12.687z M97.632,12.687c-0.011,0.075,0.229,0.321,0.275,0.275
	C98.064,12.805,97.68,12.313,97.632,12.687z M26.751,12.824c0.039,0.039,0.209-0.066,0.139-0.138
	C26.852,12.647,26.681,12.753,26.751,12.824z M71.155,12.824c0,0.077,0.139,0.157,0.139,0
	C71.293,12.747,71.155,12.667,71.155,12.824z M83.291,12.824c0-0.077-0.14-0.157-0.14,0C83.152,12.901,83.291,12.981,83.291,12.824z
	 M93.77,12.687c-0.012,0.013,0,0.12,0,0.138C93.77,13.533,94.267,12.19,93.77,12.687z M54.744,13.101
	c0.039,0.038,0.209-0.067,0.139-0.139C54.845,12.924,54.674,13.029,54.744,13.101z M71.845,12.962
	c-0.038-0.038-0.209,0.067-0.138,0.139C71.745,13.139,71.916,13.033,71.845,12.962z M97.355,13.101
	c0.037,0.038,0.341-0.073,0.276-0.139C97.593,12.924,97.291,13.035,97.355,13.101z M54.055,13.238
	c-0.242,0.27-0.039,0.81,0.415,0.689C54.97,13.796,54.623,12.608,54.055,13.238z M80.808,13.376c0.076-0.077,0.005-0.28-0.137-0.138
	C80.594,13.313,80.666,13.519,80.808,13.376z M85.358,13.101c-0.038-0.039-0.209,0.066-0.138,0.138
	C85.258,13.276,85.43,13.171,85.358,13.101z M92.943,13.238c0.002,0.14,0.24,0.174,0.274,0
	C93.064,13.251,93.004,13.038,92.943,13.238z M99.563,13.376c0-0.046,0-0.093,0-0.138C99.406,13.266,99.486,13.376,99.563,13.376z
	 M75.43,13.516c0,0.075,0.138,0.155,0.138,0C75.567,13.437,75.43,13.358,75.43,13.516z M75.982,13.516
	c0.028,0.164,0.152,0.084,0.274,0C76.256,13.376,76.016,13.341,75.982,13.516z M77.361,13.516c0.037,0.037,0.209-0.068,0.138-0.14
	C77.461,13.337,77.289,13.442,77.361,13.516z M83.291,13.653c0.037,0.037,0.207-0.068,0.137-0.138
	C83.39,13.477,83.219,13.58,83.291,13.653z M86.186,13.516c-0.037-0.039-0.209,0.064-0.137,0.138
	C86.086,13.69,86.257,13.585,86.186,13.516z M99.147,13.653c-0.064,0.064-0.156-0.027-0.137,0.138
	C99.089,14.416,99.8,13.001,99.147,13.653z M32.13,13.791c0.038,0.037,0.209-0.068,0.138-0.138
	C32.229,13.613,32.059,13.719,32.13,13.791z M87.289,13.928c0.037,0.038,0.209-0.067,0.139-0.137
	C87.389,13.753,87.218,13.856,87.289,13.928z M58.33,14.065c0.038,0.038,0.209-0.065,0.139-0.138
	C58.43,13.891,58.258,13.994,58.33,14.065z M62.744,13.928c-0.039-0.037-0.211,0.066-0.141,0.138
	C62.644,14.104,62.814,14,62.744,13.928z M83.152,14.065c0.029,0.166,0.153,0.086,0.275,0
	C83.426,13.927,83.186,13.893,83.152,14.065z M55.849,14.065c-0.04-0.037-0.21,0.066-0.14,0.14
	C55.748,14.242,55.919,14.137,55.849,14.065z M65.226,14.205c0.038,0.037,0.208-0.068,0.138-0.14
	C65.326,14.028,65.153,14.132,65.226,14.205z M74.188,14.065c-0.038-0.037-0.209,0.066-0.138,0.14
	C74.09,14.242,74.26,14.137,74.188,14.065z M84.394,14.205c0.038,0.037,0.341-0.075,0.276-0.14
	C84.631,14.028,84.328,14.139,84.394,14.205z M96.527,14.205c0-0.079-0.137-0.157-0.137,0C96.391,14.28,96.527,14.36,96.527,14.205z
	 M63.709,14.205c-0.038-0.039-0.209,0.064-0.14,0.136C63.608,14.38,63.779,14.274,63.709,14.205z M66.467,14.205
	c-0.038-0.039-0.209,0.064-0.139,0.136C66.366,14.38,66.537,14.274,66.467,14.205z M72.12,14.341
	c0.039,0.039,0.209-0.066,0.138-0.136C72.221,14.166,72.049,14.27,72.12,14.341z M85.358,14.205
	c-0.038-0.039-0.209,0.064-0.138,0.136C85.258,14.38,85.43,14.274,85.358,14.205z M82.187,14.617
	c0.076-0.076,0.005-0.28-0.138-0.137C81.973,14.555,82.045,14.761,82.187,14.617z M94.459,14.341
	c-0.037-0.038-0.209,0.067-0.138,0.14C94.36,14.518,94.531,14.412,94.459,14.341z M95.426,14.341
	c-0.039-0.038-0.21,0.067-0.139,0.14C95.326,14.518,95.496,14.412,95.426,14.341z M21.235,14.617
	c-0.199,0.099-0.564,0.355-0.413,0.689C21.113,15.944,22.65,13.928,21.235,14.617z M64.813,14.617c0.028,0.167,0.152,0.084,0.275,0
	C65.086,14.479,64.846,14.444,64.813,14.617z M97.08,14.48c-0.039-0.038-0.209,0.065-0.139,0.137
	C96.98,14.655,97.151,14.55,97.08,14.48z M64.123,14.893c0.037,0.039,0.209-0.066,0.137-0.138
	C64.222,14.716,64.051,14.821,64.123,14.893z M74.465,14.755C74.318,15.556,75.063,14.813,74.465,14.755L74.465,14.755z
	 M98.458,14.893c0.04,0.039,0.21-0.066,0.139-0.138C98.559,14.716,98.388,14.821,98.458,14.893z M67.708,14.893
	c-0.038-0.037-0.209,0.066-0.139,0.138C67.607,15.069,67.779,14.964,67.708,14.893z M69.087,15.03c0.023,0.025,0.234,0.004,0.273,0
	C70.246,14.98,68.891,14.836,69.087,15.03z M76.396,15.03c0.038,0.039,0.209-0.066,0.14-0.138
	C76.494,14.855,76.323,14.959,76.396,15.03z M79.844,15.03c0.037,0.039,0.209-0.066,0.137-0.138
	C79.942,14.855,79.772,14.959,79.844,15.03z M95.563,15.03c0.038,0.039,0.209-0.066,0.139-0.138
	C95.662,14.855,95.492,14.959,95.563,15.03z M76.809,15.307c0.021-0.145-0.104-0.356-0.137-0.137
	C76.65,15.314,76.777,15.525,76.809,15.307z M94.322,15.03c-0.038-0.037-0.209,0.067-0.138,0.14
	C94.222,15.207,94.394,15.102,94.322,15.03z M96.253,15.03c-0.071-0.069-0.483,0.069-0.415,0.14
	C95.909,15.239,96.322,15.1,96.253,15.03z M67.156,15.17c-0.037-0.04-0.209,0.065-0.138,0.137
	C67.056,15.345,67.228,15.239,67.156,15.17z M75.293,15.307c0,0.708,0.494-0.634,0-0.137C75.279,15.181,75.293,15.287,75.293,15.307
	z M86.049,15.307c0.037,0.038,0.208-0.067,0.137-0.137C86.148,15.13,85.977,15.235,86.049,15.307z M88.668,15.307
	c0.038,0.038,0.209-0.067,0.138-0.137C88.768,15.13,88.597,15.235,88.668,15.307z M52.953,15.72c0.461,0.452,0.442-0.857,0-0.413
	c-0.021,0.019,0.007,0.111,0,0.138C52.943,15.472,52.934,15.702,52.953,15.72z M67.982,15.444c0.04,0.038,0.209-0.065,0.14-0.138
	C68.083,15.27,67.912,15.373,67.982,15.444z M72.81,15.307c-0.114-0.114-0.396,0.094-0.413,0.138
	C72.194,15.936,73.107,15.605,72.81,15.307z M90.047,15.307c-0.039-0.037-0.209,0.066-0.137,0.138
	C89.947,15.482,90.119,15.379,90.047,15.307z M21.787,15.582c0.038,0.039,0.209-0.066,0.139-0.138
	C21.887,15.405,21.716,15.511,21.787,15.582z M74.465,15.72C74.131,16.183,74.928,15.388,74.465,15.72L74.465,15.72z M83.015,15.72
	c0.038,0.039,0.209-0.066,0.138-0.138C83.115,15.545,82.943,15.648,83.015,15.72z M91.289,15.72c-0.039-0.037-0.21,0.068-0.141,0.14
	C91.189,15.896,91.359,15.791,91.289,15.72z M94.322,15.859c-0.201,0.489,0.712,0.158,0.414-0.14
	C94.622,15.607,94.34,15.814,94.322,15.859z M65.226,15.997c0.038,0.037,0.208-0.066,0.138-0.138
	C65.326,15.819,65.153,15.925,65.226,15.997z M64.949,16.134c0.037,0.038,0.209-0.065,0.139-0.137
	C65.05,15.957,64.879,16.063,64.949,16.134z M79.016,16.134c0.037,0.038,0.209-0.065,0.138-0.137
	C79.115,15.957,78.943,16.063,79.016,16.134z M97.907,15.997c-0.038-0.04-0.209,0.065-0.14,0.137
	C97.809,16.172,97.979,16.068,97.907,15.997z M95.426,16.271c0.037,0.039,0.209-0.065,0.138-0.138
	C95.523,16.095,95.354,16.2,95.426,16.271z M62.467,16.409c0.037,0.039,0.209-0.066,0.138-0.138
	C62.566,16.234,62.396,16.338,62.467,16.409z M65.226,16.549c0.038,0.037,0.208-0.068,0.138-0.14
	C65.326,16.372,65.153,16.478,65.226,16.549z M94.185,16.409c-0.04-0.037-0.209,0.068-0.138,0.14
	C94.084,16.586,94.256,16.48,94.185,16.409z M65.088,16.549c-0.038-0.038-0.209,0.065-0.139,0.138
	C64.987,16.724,65.158,16.618,65.088,16.549z M85.221,16.687c0-0.077-0.138-0.157-0.138,0
	C85.083,16.763,85.221,16.842,85.221,16.687z M97.632,16.687c-0.331,0.586,0.849,0.459,0.688,0
	C98.244,16.461,97.742,16.488,97.632,16.687z M55.159,16.823c-0.014,0.013,0,0.118,0,0.138c0,0.017-0.012,0.131,0,0.138
	C55.752,17.545,55.676,16.306,55.159,16.823z M68.811,16.961C69.693,17.12,69.113,16.54,68.811,16.961L68.811,16.961z
	 M58.606,17.099c0.038,0.039,0.209-0.066,0.139-0.138C58.705,16.924,58.534,17.027,58.606,17.099z M68.26,17.099
	c0.037,0.039,0.209-0.066,0.138-0.138C68.359,16.924,68.188,17.027,68.26,17.099z M84.256,16.961
	C83.872,17.62,84.708,17.295,84.256,16.961L84.256,16.961z M19.443,17.238c-0.014,0.03-0.021,0.393,0,0.412
	C20.144,18.351,19.899,16.22,19.443,17.238z M84.531,17.238c0.096-0.006-0.157,0.216-0.138,0.138
	C84.208,18.117,85.135,17.206,84.531,17.238z M82.602,17.65C81.093,17.594,82.063,18.18,82.602,17.65L82.602,17.65z M63.57,17.928
	c0.038,0.037,0.209-0.068,0.14-0.14C63.671,17.751,63.5,17.856,63.57,17.928z M88.943,17.928c0.039,0.037,0.21-0.068,0.139-0.14
	C89.043,17.751,88.872,17.856,88.943,17.928z M94.598,17.928c-0.01,0.075,0.23,0.321,0.276,0.273
	C95.031,18.046,94.646,17.555,94.598,17.928z M95.977,18.065c0-0.077-0.139-0.157-0.139,0
	C95.838,18.142,95.977,18.221,95.977,18.065z M97.08,18.065c0.027,0.166,0.151,0.084,0.274,0
	C97.354,17.926,97.113,17.892,97.08,18.065z M96.805,18.201c0.037,0.039,0.209-0.064,0.138-0.136
	C96.903,18.025,96.733,18.131,96.805,18.201z M55.849,18.34c-0.39,0.39,0.468,0.329,0.413,0
	C56.232,18.165,55.913,18.276,55.849,18.34z M63.984,18.34c0.038,0.04,0.21-0.065,0.14-0.139
	C64.084,18.163,63.914,18.269,63.984,18.34z M66.053,18.201c-0.037-0.038-0.34,0.075-0.275,0.139
	C65.815,18.38,66.118,18.267,66.053,18.201z M75.017,18.34c0.038,0.04,0.209-0.065,0.138-0.139
	C75.115,18.163,74.945,18.269,75.017,18.34z M91.564,18.201c-0.039-0.038-0.209,0.067-0.139,0.139
	C91.464,18.38,91.635,18.274,91.564,18.201z M97.218,18.478c-0.038-0.037-0.209,0.068-0.138,0.14
	C97.118,18.654,97.289,18.549,97.218,18.478z M98.184,18.755c-0.015,0.032-0.021,0.39,0,0.412
	C98.646,19.673,98.551,17.906,98.184,18.755z M22.201,18.893c-0.039-0.04-0.21,0.065-0.139,0.137
	C22.102,19.069,22.272,18.964,22.201,18.893z M89.771,18.893c-0.038-0.04-0.209,0.065-0.137,0.137
	C89.672,19.069,89.842,18.964,89.771,18.893z M97.355,18.893c-0.038-0.04-0.209,0.065-0.138,0.137
	C97.257,19.069,97.427,18.964,97.355,18.893z M95.701,19.029c-0.039-0.037-0.209,0.066-0.139,0.138
	C95.602,19.207,95.772,19.102,95.701,19.029z M74.878,19.307c0,0.075,0.139,0.155,0.139,0
	C75.017,19.229,74.878,19.149,74.878,19.307z M88.116,19.307c0.037,0.037,0.209-0.068,0.139-0.14
	C88.217,19.13,88.045,19.235,88.116,19.307z M74.604,19.444c0.037,0.037,0.209-0.068,0.138-0.138
	C74.703,19.268,74.531,19.373,74.604,19.444z M32.819,19.444c-0.038-0.039-0.209,0.066-0.138,0.138
	C32.72,19.619,32.891,19.516,32.819,19.444z M77.774,19.582c0.038,0.037,0.209-0.066,0.14-0.138
	C77.873,19.405,77.702,19.511,77.774,19.582z M98.458,19.72c0.16,0.718,0.751-0.749,0.139-0.138
	C98.539,19.639,98.424,19.563,98.458,19.72z M53.504,19.582c-0.006,0,0.008,0.134,0,0.138c-0.061,0.028-0.23-0.043-0.275,0
	c-0.147,0.139-0.248,0.687-0.271,0.696c0.039,0.063,0.521,0.489,0.548,0.539c0.048-0.043,0.782-0.364,0.825-0.409
	c0.047-0.044,0.119-0.369,0.14-0.412c0.021-0.047,0.276-0.215,0.138-0.414C54.518,19.591,53.66,19.58,53.504,19.582z M93.908,19.72
	c-0.038-0.038-0.209,0.065-0.14,0.137C93.809,19.896,93.979,19.791,93.908,19.72z M81.084,20.409
	C81.611,19.739,80.539,19.843,81.084,20.409L81.084,20.409z M90.6,20.271c-0.039-0.039-0.21,0.065-0.14,0.138
	C90.499,20.448,90.67,20.343,90.6,20.271z M91.149,20.409c0.04,0.039,0.21-0.066,0.141-0.138
	C91.25,20.232,91.079,20.337,91.149,20.409z M65.639,20.546c0.038,0.04,0.209-0.065,0.139-0.137
	C65.739,20.371,65.568,20.475,65.639,20.546z M82.876,20.546c0-0.076-0.139-0.157-0.139,0
	C82.738,20.623,82.876,20.703,82.876,20.546z M78.602,20.686c0.039,0.038,0.21-0.067,0.14-0.14
	C78.701,20.509,78.53,20.614,78.602,20.686z M98.321,20.546c-0.038-0.037-0.342,0.073-0.275,0.14
	C98.084,20.724,98.386,20.612,98.321,20.546z M99.563,20.823c0-0.093,0-0.184,0-0.277C99.389,20.58,99.423,20.821,99.563,20.823z
	 M90.736,20.823c-0.039-0.039-0.341,0.071-0.275,0.136C90.499,20.998,90.801,20.888,90.736,20.823z M91.289,20.959
	c0,0.078,0.137,0.157,0.137,0C91.426,20.884,91.289,20.804,91.289,20.959z M86.049,21.099c0.028,0.166,0.152,0.084,0.272,0
	C86.322,20.959,86.082,20.925,86.049,21.099z M96.666,21.099c0.039,0.039,0.209-0.066,0.139-0.14
	C96.766,20.922,96.596,21.026,96.666,21.099z M98.045,21.099c-0.065,0.065-0.158-0.025-0.138,0.137
	C97.986,21.863,98.697,20.446,98.045,21.099z M98.597,20.959c-0.013,0.015,0,0.12,0,0.14C98.597,21.808,99.094,20.464,98.597,20.959
	z M58.606,21.235c0.038,0.04,0.209-0.065,0.139-0.137C58.705,21.061,58.534,21.164,58.606,21.235z M65.088,21.235
	c-0.012,0.013,0,0.12,0,0.14C65.088,22.083,65.584,20.739,65.088,21.235z M92.528,21.513c-0.011,0.013,0,0.118,0,0.138
	C92.528,22.359,93.025,21.017,92.528,21.513z M67.293,21.788c0.039,0.039,0.209-0.066,0.139-0.138
	C67.395,21.611,67.223,21.717,67.293,21.788z M89.495,21.65c-0.014,0.013,0,0.118,0,0.138C89.495,22.497,89.991,21.153,89.495,21.65
	z M94.047,21.65c-0.013,0.013,0,0.118,0,0.138C94.047,22.497,94.541,21.153,94.047,21.65z M98.734,21.926
	c0.03,0.166,0.153,0.084,0.276,0C99.008,21.786,98.77,21.752,98.734,21.926z M55.159,21.926c-0.04-0.038-0.21,0.067-0.141,0.139
	C55.059,22.103,55.229,21.997,55.159,21.926z M95.701,22.202c0-0.077-0.139-0.157-0.139,0
	C95.563,22.279,95.701,22.357,95.701,22.202z M72.81,22.34c0.038,0.037,0.209-0.066,0.139-0.138
	C72.91,22.163,72.738,22.269,72.81,22.34z M99.563,22.478c0-0.092,0-0.185,0-0.275C99.179,22.03,99.179,22.648,99.563,22.478z
	 M94.459,22.34c-0.013,0.013,0,0.118,0,0.138C94.459,23.187,94.956,21.843,94.459,22.34z M80.257,22.615
	c0.001,0.139,0.241,0.173,0.276,0C80.378,22.629,80.317,22.415,80.257,22.615z M61.226,23.029c-0.038-0.039-0.209,0.066-0.138,0.138
	C61.126,23.206,61.297,23.101,61.226,23.029z M94.874,23.167c0.038,0.039,0.209-0.066,0.138-0.138
	C94.973,22.99,94.803,23.096,94.874,23.167z M96.115,23.305c0.036,0.039,0.34-0.071,0.274-0.138
	C96.352,23.129,96.049,23.24,96.115,23.305z M77.085,23.443c0.038,0.038,0.209-0.067,0.138-0.139
	C77.184,23.267,77.013,23.372,77.085,23.443z M83.704,23.443c0.038,0.038,0.209-0.067,0.138-0.139
	C83.803,23.267,83.633,23.372,83.704,23.443z M75.844,24.133c0.038,0.038,0.209-0.067,0.139-0.139
	C75.943,23.956,75.771,24.062,75.844,24.133z M86.322,24.133c0.04,0.038,0.212-0.067,0.142-0.139
	C86.423,23.956,86.252,24.062,86.322,24.133z M72.12,24.133c-0.038-0.039-0.209,0.066-0.139,0.138
	C72.021,24.309,72.191,24.203,72.12,24.133z M82.325,24.408c0,0.075,0.138,0.155,0.138,0C82.463,24.331,82.325,24.251,82.325,24.408
	z M98.045,24.271c-0.038-0.039-0.209,0.066-0.138,0.138C97.945,24.446,98.116,24.342,98.045,24.271z M82.325,24.684
	c-0.038-0.038-0.21,0.067-0.14,0.139C82.225,24.86,82.396,24.755,82.325,24.684z M14.341,24.96c0.038,0.038,0.209-0.067,0.138-0.138
	C14.441,24.783,14.271,24.889,14.341,24.96z M82.738,24.822c-0.012,0.011,0,0.118,0,0.138C82.738,25.67,83.234,24.326,82.738,24.822
	z M59.156,24.96c-0.036-0.039-0.209,0.066-0.137,0.138C59.058,25.136,59.229,25.031,59.156,24.96z M90.736,24.96
	c-0.039-0.039-0.209,0.066-0.137,0.138C90.637,25.136,90.809,25.031,90.736,24.96z M85.221,25.235
	c-0.039-0.037-0.209,0.066-0.138,0.138C85.121,25.41,85.292,25.307,85.221,25.235z M96.115,25.373
	c-0.039-0.038-0.211,0.066-0.14,0.14C96.014,25.55,96.186,25.444,96.115,25.373z M43.852,25.513c-0.039-0.04-0.21,0.065-0.139,0.136
	C43.752,25.688,43.922,25.582,43.852,25.513z M81.223,25.513c-0.039-0.04-0.211,0.065-0.139,0.136
	C81.122,25.688,81.293,25.582,81.223,25.513z M92.668,26.063c0.052-0.013,0.299-0.713,0-0.414
	C92.648,25.668,92.396,26.13,92.668,26.063z M96.527,25.648c-0.191,0.147-0.609,1.03-0.137,0.828
	C96.621,26.377,96.964,25.317,96.527,25.648z M2.62,25.787c0.037,0.038,0.209-0.065,0.138-0.139
	C2.72,25.61,2.549,25.716,2.62,25.787z M2.343,26.063c0.04,0.037,0.21-0.066,0.139-0.138C2.443,25.888,2.271,25.991,2.343,26.063z
	 M57.641,26.338c0.038,0.039,0.209-0.066,0.137-0.136C57.74,26.162,57.568,26.266,57.641,26.338z M12.823,26.338
	c-0.037-0.038-0.21,0.067-0.139,0.139C12.725,26.515,12.895,26.411,12.823,26.338z M69.914,26.614
	c0.038,0.039,0.209-0.066,0.137-0.138C70.014,26.438,69.842,26.543,69.914,26.614z M69.776,26.892
	c0.038,0.037,0.342-0.073,0.274-0.14C70.014,26.715,69.711,26.825,69.776,26.892z M99.563,27.029c0-0.047,0-0.094,0-0.138
	C99.406,26.916,99.486,27.029,99.563,27.029z M84.256,27.166c-0.039-0.039-0.211,0.066-0.139,0.138
	C84.156,27.343,84.326,27.238,84.256,27.166z M85.358,27.166c-0.038-0.039-0.209,0.066-0.138,0.138
	C85.258,27.343,85.43,27.238,85.358,27.166z M93.218,27.304c-0.135-0.136-0.528,0.088-0.55,0.138
	C92.387,28.049,93.732,27.818,93.218,27.304z M59.156,27.581c0.04,0.037,0.212-0.068,0.141-0.14
	C59.257,27.404,59.086,27.51,59.156,27.581z M92.528,27.441c-0.089-0.089-0.261,0.125-0.273,0.14
	C91.721,28.113,92.912,27.825,92.528,27.441z M99.286,27.993c-0.038-0.037-0.209,0.066-0.14,0.138
	C99.188,28.169,99.357,28.064,99.286,27.993z M85.633,28.131C85.236,29.122,86.162,28.774,85.633,28.131L85.633,28.131z
	 M90.322,28.271c0-0.077-0.137-0.157-0.137,0C90.186,28.346,90.322,28.426,90.322,28.271z M2.343,28.544
	c0.04,0.039,0.21-0.066,0.139-0.138C2.443,28.368,2.271,28.474,2.343,28.544z M11.584,28.544c0.037,0.039,0.208-0.066,0.138-0.138
	C11.683,28.368,11.513,28.474,11.584,28.544z M84.256,28.683c-0.039-0.037-0.211,0.066-0.139,0.138
	C84.156,28.858,84.326,28.754,84.256,28.683z M98.321,29.098c-0.287,0.287,0.376,0.302,0.275,0
	C98.549,28.953,98.35,29.067,98.321,29.098z M50.47,29.51c-0.082,0.043-0.231,0.064-0.275,0.14c-0.32,0.528,0.088,0.543,0.275,0.689
	c0.047,0.034,0.191,0.227,0.256,0.267c-0.006-0.049,0.466-0.31,0.436-0.267c0.176-0.226,0.169-0.79,0.137-0.829
	C51.074,29.233,50.588,29.449,50.47,29.51z M50.746,30.612c-0.006,0.002-0.014-0.002-0.021-0.007
	C50.726,30.61,50.73,30.614,50.746,30.612z M94.047,29.51c0,0.709,0.494-0.634,0-0.138C94.034,29.385,94.047,29.492,94.047,29.51z
	 M0,29.785c0,0.046,0,0.093,0,0.138C0.157,29.897,0.076,29.785,0,29.785z M84.256,29.923c0.037,0.039,0.209-0.064,0.138-0.138
	C84.355,29.748,84.184,29.853,84.256,29.923z M52.264,30.062c-0.111-0.21-0.454-0.271-0.688,0c-0.011,0.01-0.139-0.009-0.14,0
	C51.29,31.048,52.505,30.524,52.264,30.062z M94.185,29.923c-0.04-0.038-0.209,0.067-0.138,0.139
	C94.084,30.1,94.256,29.996,94.185,29.923z M90.186,30.475c0.037,0.039,0.209-0.066,0.138-0.136
	C90.285,30.3,90.113,30.405,90.186,30.475z M50.47,30.475c-0.037-0.037-0.209,0.067-0.138,0.138
	C50.37,30.651,50.541,30.546,50.47,30.475z M51.021,31.026c0.038,0.039,0.209-0.065,0.14-0.138
	C51.122,30.85,50.951,30.955,51.021,31.026z M82.876,31.302c0.021-0.145-0.106-0.354-0.139-0.138
	C82.719,31.311,82.845,31.521,82.876,31.302z M69.225,31.302c0.038,0.039,0.209-0.066,0.137-0.138
	C69.324,31.127,69.152,31.232,69.225,31.302z M77.223,31.302c0.038,0.039,0.21-0.066,0.139-0.138
	C77.322,31.127,77.151,31.232,77.223,31.302z M37.646,31.441c-0.038-0.038-0.209,0.065-0.137,0.137
	C37.546,31.616,37.718,31.513,37.646,31.441z M99.563,31.716c0-0.046,0-0.091,0-0.138C99.406,31.605,99.486,31.716,99.563,31.716z
	 M55.159,31.854c0.037,0.039,0.209-0.066,0.138-0.138C55.26,31.679,55.088,31.784,55.159,31.854z M92.668,31.854
	c0.037,0.039,0.209-0.066,0.137-0.138C92.766,31.679,92.596,31.784,92.668,31.854z M48.539,31.854
	c-0.038-0.037-0.209,0.068-0.139,0.138C48.439,32.03,48.61,31.927,48.539,31.854z M92.254,31.854
	c-0.039-0.037-0.342,0.073-0.275,0.138C92.016,32.03,92.318,31.92,92.254,31.854z M95.012,31.991
	c0.038,0.039,0.209-0.064,0.137-0.138C95.111,31.816,94.939,31.922,95.012,31.991z M89.634,31.991c-0.013,0.015,0,0.12,0,0.14
	C89.634,32.84,90.129,31.496,89.634,31.991z M91.426,32.131c-0.039-0.038-0.209,0.065-0.137,0.137
	C91.326,32.308,91.498,32.202,91.426,32.131z M94.185,32.268c0.037,0.04,0.209-0.065,0.139-0.137
	C94.283,32.093,94.113,32.196,94.185,32.268z M25.372,32.681c-0.287,0.289,0.377,0.304,0.276,0
	C25.601,32.538,25.402,32.652,25.372,32.681z M80.808,32.82c-0.038-0.038-0.21,0.065-0.137,0.138
	C80.709,32.995,80.879,32.892,80.808,32.82z M90.736,32.958c0.038,0.037,0.209-0.066,0.14-0.138
	C90.836,32.782,90.666,32.886,90.736,32.958z M98.321,32.82c-0.038-0.038-0.209,0.065-0.138,0.138
	C98.222,32.995,98.393,32.892,98.321,32.82z M87.289,33.095c0.037,0.04,0.342-0.073,0.274-0.137
	C87.527,32.918,87.223,33.031,87.289,33.095z M91.839,32.958c-0.038-0.04-0.209,0.067-0.138,0.137
	C91.74,33.135,91.91,33.029,91.839,32.958z M97.632,33.51c0.038,0.037,0.341-0.073,0.275-0.14
	C97.869,33.333,97.566,33.442,97.632,33.51z M56.538,33.647c-0.039-0.041-0.21,0.064-0.141,0.137
	C56.438,33.824,56.608,33.719,56.538,33.647z M83.152,33.784c0.037,0.04,0.209-0.065,0.14-0.137
	C83.252,33.606,83.08,33.713,83.152,33.784z M47.851,35.164c0.266,0.362,0.313,0.262,0.688,0.414
	c0.093,0.036,0.104,0.286,0.275,0.274c0.146-0.01,0.752-0.42,0.827-0.553c0.293-0.52-0.046-1.412-0.274-1.517
	c-0.172-0.074-0.418-0.054-0.967,0.138c-0.065,0.025-0.372-0.05-0.414,0c-0.165,0.204-0.058,0.715-0.137,0.827
	c-0.026,0.038-0.052,0.062-0.072,0.075c0.021,0.016,0.044,0.035,0.072,0.064C47.897,34.935,47.81,35.11,47.851,35.164z
	 M47.778,34.824C47.611,34.694,47.658,34.901,47.778,34.824L47.778,34.824z M86.737,33.922c0.038,0.04,0.21-0.065,0.139-0.138
	C86.838,33.747,86.666,33.851,86.737,33.922z M38.473,34.337c-0.011,0.012-0.238,0.037-0.137,0.137
	C38.675,34.813,38.971,33.84,38.473,34.337z M90.047,34.199c-0.039-0.039-0.209,0.065-0.137,0.138
	C89.947,34.374,90.119,34.271,90.047,34.199z M17.788,34.337c-0.038-0.038-0.209,0.064-0.139,0.137
	C17.689,34.515,17.86,34.408,17.788,34.337z M98.873,34.474c0.028,0.168,0.151,0.086,0.273,0
	C99.146,34.335,98.906,34.301,98.873,34.474z M91.149,35.026c-0.038-0.041-0.341,0.072-0.273,0.138
	C90.912,35.203,91.216,35.091,91.149,35.026z M57.228,35.301c0,0.077,0.139,0.157,0.139,0
	C57.365,35.226,57.228,35.146,57.228,35.301z M88.531,35.301c-0.039-0.036-0.211,0.068-0.14,0.138
	C88.431,35.478,88.602,35.374,88.531,35.301z M44.816,35.716c-0.039-0.039-0.209,0.065-0.138,0.139
	C44.716,35.894,44.888,35.787,44.816,35.716z M85.633,35.716c-0.037-0.039-0.209,0.065-0.137,0.139
	C85.535,35.894,85.705,35.787,85.633,35.716z M45.506,35.854c-0.038-0.039-0.209,0.064-0.138,0.137
	C45.405,36.03,45.577,35.925,45.506,35.854z M50.057,36.681c-0.482-0.254,0.015-0.608-0.414-0.689c-0.15-0.026-0.399-0.021-0.552,0
	c-0.598,0.09-0.486,0.387-0.827,0.689c-0.151,0.137-0.313-0.07-0.413,0.137c0.059-0.12,0.404,0.107,0.413,0.141
	c-0.009-0.034-0.272,0.266-0.276,0.275c-0.195,0.824,0.537,0.014,0.689,0.414c-0.005-0.016-0.124,0.009-0.138,0
	c0.023,0.018,0.104,0.676,0.138,0.688c0.098,0.039,0.573-0.054,0.69-0.14c0.01-0.006,0.049-0.323,0.412-0.689
	c-0.036,0.04,0.066,0.209,0.139,0.141c0.088-0.086,0.15-0.398,0.414-0.553c0.206-0.119,0.459,0.103,0.414-0.277
	C50.685,36.313,50.641,36.989,50.057,36.681z M82.463,36.269c-0.037-0.039-0.209,0.065-0.138,0.138
	C82.363,36.442,82.534,36.339,82.463,36.269z M34.888,36.957c0.038,0.037,0.209-0.067,0.138-0.14
	C34.988,36.78,34.816,36.886,34.888,36.957z M59.846,36.957c0.04,0.037,0.211-0.067,0.141-0.14
	C59.946,36.78,59.775,36.886,59.846,36.957z M43.023,37.095c0.029,0.166,0.153,0.084,0.276,0
	C43.298,36.955,43.058,36.92,43.023,37.095z M84.531,37.095c0.037,0.037,0.21-0.066,0.14-0.138
	C84.631,36.918,84.46,37.022,84.531,37.095z M46.058,37.784c0.037,0.037,0.209-0.066,0.138-0.139
	C46.157,37.606,45.986,37.713,46.058,37.784z M47.987,38.06c0.039,0.039,0.21-0.065,0.14-0.138
	C48.087,37.884,47.917,37.987,47.987,38.06z M49.505,38.196c0.038,0.039,0.209-0.065,0.138-0.137
	C49.604,38.021,49.434,38.127,49.505,38.196z M94.598,38.06c-0.038-0.037-0.209,0.067-0.139,0.138
	C94.499,38.235,94.668,38.131,94.598,38.06z M99.286,38.474c0.038,0.037,0.209-0.065,0.138-0.138
	C99.387,38.297,99.215,38.401,99.286,38.474z M39.852,38.61c0.038,0.037,0.209-0.065,0.139-0.137
	C39.952,38.435,39.78,38.54,39.852,38.61z M47.437,38.61c0.038,0.037,0.209-0.065,0.139-0.137
	C47.537,38.435,47.365,38.54,47.437,38.61z M43.3,38.61c-0.039-0.037-0.209,0.066-0.139,0.139
	C43.199,38.788,43.371,38.683,43.3,38.61z M98.045,38.61c-0.012,0.012,0,0.119,0,0.139c0,0.016-0.012,0.13,0,0.139
	C98.639,39.333,98.562,38.095,98.045,38.61z M77.637,38.749c-0.014,0.014,0,0.119,0,0.139
	C77.637,39.599,78.133,38.254,77.637,38.749z M90.736,38.888c-0.109,0.111-0.422,0.682-0.275,0.827
	C90.789,40.044,91.24,38.383,90.736,38.888z M60.398,38.888c-0.013,0.012,0,0.118,0,0.139
	C60.398,39.733,60.895,38.392,60.398,38.888z M36.819,39.438c-0.163,0.162-0.28,0.406,0,0.552
	C37.617,40.403,37.426,38.831,36.819,39.438z M81.773,39.301c-0.037-0.036-0.342,0.073-0.275,0.138
	C81.535,39.478,81.838,39.367,81.773,39.301z M96.805,39.576c-0.039-0.038-0.209,0.067-0.139,0.139
	C96.705,39.753,96.875,39.647,96.805,39.576z M44.265,39.715c-0.038-0.039-0.209,0.066-0.138,0.138
	C44.164,39.892,44.336,39.786,44.265,39.715z M43.438,40.267c-0.038-0.039-0.209,0.066-0.138,0.139
	C43.337,40.442,43.509,40.337,43.438,40.267z M50.194,40.403c-0.002-0.139-0.24-0.172-0.275,0
	C50.073,40.392,50.133,40.604,50.194,40.403z M48.677,40.542c0.039,0.038,0.21-0.064,0.139-0.139
	C48.776,40.365,48.605,40.472,48.677,40.542z M47.022,40.817c-0.038-0.039-0.209,0.066-0.138,0.138
	C46.922,40.994,47.094,40.89,47.022,40.817z M41.921,40.955c-0.039-0.038-0.209,0.067-0.139,0.139
	C41.82,41.132,41.992,41.026,41.921,40.955z M53.78,41.921c0,0.077,0.139,0.155,0.139,0C53.918,41.845,53.78,41.765,53.78,41.921z
	 M79.98,42.196c0.039,0.037,0.21-0.066,0.139-0.139C80.08,42.021,79.908,42.125,79.98,42.196z M44.54,42.196
	c-0.038-0.037-0.208,0.068-0.139,0.138C44.441,42.371,44.611,42.269,44.54,42.196z M49.78,42.748
	c0.038,0.038,0.209-0.065,0.139-0.138C49.88,42.571,49.709,42.677,49.78,42.748z M46.333,43.022c0,0.078,0.138,0.158,0.138,0
	C46.471,42.948,46.333,42.868,46.333,43.022z M36.819,43.163c0.037,0.037,0.209-0.068,0.138-0.141
	C36.918,42.985,36.747,43.091,36.819,43.163z M21.512,43.438c-0.089-0.213-0.464-0.155-0.552-0.139
	c-0.194,0.042-0.484-0.018-0.552,0.139c-0.335,0.771,0.5,0.926,0.826,0.826C21.365,44.228,21.609,43.674,21.512,43.438z
	 M82.049,43.575c-0.077-0.484-0.461-0.364-0.689-0.139C80.848,43.95,82.169,44.336,82.049,43.575z M34.75,43.438
	c-0.039-0.037-0.21,0.065-0.139,0.138C34.65,43.612,34.822,43.509,34.75,43.438z M62.604,43.575
	c-0.038-0.037-0.209,0.068-0.138,0.138C62.504,43.752,62.676,43.646,62.604,43.575z M92.805,43.575
	c-0.039-0.037-0.34,0.072-0.276,0.138C92.568,43.752,92.869,43.642,92.805,43.575z M76.947,43.989
	c0.037,0.037,0.209-0.065,0.139-0.137C77.047,43.813,76.875,43.918,76.947,43.989z M84.531,43.989
	c0.037,0.037,0.21-0.065,0.14-0.137C84.631,43.813,84.46,43.918,84.531,43.989z M85.083,43.989c-0.274,0.16-0.546,0.712-0.141,0.965
	c0.179,0.111,0.479-0.105,0.554-0.139C85.865,44.649,85.595,43.687,85.083,43.989z M89.91,43.989
	c0.036,0.037,0.209-0.065,0.137-0.137C90.008,43.813,89.838,43.918,89.91,43.989z M96.391,43.989
	c-0.039-0.039-0.209,0.066-0.138,0.138C96.291,44.165,96.462,44.062,96.391,43.989z M90.6,44.265c0.153-0.013,0.214,0.2,0.275,0
	C90.873,44.126,90.633,44.092,90.6,44.265z M49.918,44.401c-0.038-0.036-0.209,0.068-0.139,0.139
	C49.818,44.579,49.989,44.476,49.918,44.401z M94.322,44.54c-0.037,0.021-0.349,0.205-0.274,0.275
	C94.354,45.124,94.826,44.272,94.322,44.54z M62.744,44.681c-0.039-0.041-0.211,0.064-0.141,0.137
	C62.644,44.854,62.814,44.751,62.744,44.681z M92.668,44.815c0.037,0.039,0.209-0.064,0.137-0.137
	C92.766,44.64,92.596,44.745,92.668,44.815z M55.849,44.954c0.038,0.039,0.209-0.064,0.138-0.139
	C55.949,44.778,55.776,44.883,55.849,44.954z M87.289,44.954c-0.023,0.025-0.249,0.14-0.138,0.277
	C87.414,45.556,87.752,44.491,87.289,44.954z M45.368,45.231c0-0.078-0.139-0.157-0.139,0C45.23,45.308,45.368,45.39,45.368,45.231z
	 M89.221,45.231c0.037,0.037,0.34-0.073,0.274-0.141C89.457,45.056,89.154,45.165,89.221,45.231z M93.218,45.369
	c0.04,0.037,0.341-0.073,0.277-0.138C93.455,45.192,93.154,45.303,93.218,45.369z M91.426,45.369
	c-0.039-0.04-0.341,0.071-0.276,0.137C91.189,45.544,91.49,45.433,91.426,45.369z M28.407,45.781
	c0.036,0.038,0.209-0.066,0.138-0.138C28.506,45.606,28.336,45.712,28.407,45.781z M68.811,45.644c-0.012,0.014,0,0.121,0,0.139
	C68.811,46.49,69.307,45.147,68.811,45.644z M83.015,46.333c-0.181,0.182,0.146,0.407,0.276,0.275
	C83.422,46.479,83.195,46.153,83.015,46.333z M45.919,46.608c0.039,0.039,0.21-0.066,0.139-0.139
	C46.02,46.435,45.848,46.539,45.919,46.608z M32.543,47.438c-0.021,0.138,0.211,0.477,0.414,0.273
	C33.112,47.558,32.602,47.026,32.543,47.438z M41.094,47.3c-0.039-0.039-0.21,0.066-0.139,0.139
	C40.993,47.476,41.164,47.371,41.094,47.3z M51.574,47.575c0.036,0.037,0.209-0.066,0.137-0.139
	C51.672,47.397,51.502,47.503,51.574,47.575z M77.637,47.575c0,0.074,0.138,0.156,0.138,0
	C77.774,47.498,77.637,47.418,77.637,47.575z M78.188,47.575c0,0.074,0.14,0.156,0.14,0C78.326,47.498,78.188,47.418,78.188,47.575z
	 M58.606,47.712c-0.161-0.137-0.517,0.104-0.552,0.139c-0.065,0.063-0.27,0.324-0.138,0.553
	C58.096,48.713,59.08,48.125,58.606,47.712z M97.494,47.851c-0.002-0.14-0.242-0.174-0.276,0
	C97.373,47.838,97.432,48.052,97.494,47.851z M29.646,47.989c0,0.076,0.141,0.156,0.141,0
	C29.786,47.912,29.646,47.832,29.646,47.989z M86.737,48.265c-0.037-0.037-0.209,0.065-0.138,0.139
	C86.637,48.44,86.809,48.334,86.737,48.265z M36.404,48.401c-0.036-0.037-0.209,0.067-0.138,0.138
	C36.305,48.579,36.476,48.474,36.404,48.401z M37.646,48.539c0.038,0.04,0.209-0.065,0.139-0.138
	C37.745,48.364,37.574,48.47,37.646,48.539z M62.881,48.539c-0.039-0.037-0.209,0.067-0.137,0.14
	C62.781,48.716,62.953,48.61,62.881,48.539z M63.467,48.842c0.035,0.042-0.239-0.034-0.173-0.024
	c-0.276-0.036-0.929,0.125-0.965,0.138c0.036-0.013-0.439,0.06-0.424,0.011c-0.069,0.094,0.151,0.383,0.148,0.401
	c-0.006,0.022-0.254-0.021-0.277,0c-0.069,0.063,0.062,0.342,0,0.415c-0.018,0.021-0.271-0.023-0.274,0
	c-0.051,0.293,0.221,0.248,0.274,0.414c-0.016-0.051-0.146,0.172-0.138,0.275c0.023,0.293,0.235,0.514,0.275,0.551
	c-0.135-0.123,0.937,0.275,0.966,0.275c0.44,0.016,0.555-0.334,0.688-0.551c0.048-0.075,0.252-0.182,0.276-0.275
	C63.986,49.931,63.789,49.081,63.467,48.842z M63.467,48.842c-0.004-0.006-0.016-0.015-0.033-0.024
	C63.445,48.823,63.455,48.832,63.467,48.842z M82.325,49.229c0.462,0.451,0.441-0.857,0-0.412c-0.021,0.018,0.008,0.109,0,0.138
	C82.316,48.979,82.307,49.213,82.325,49.229z M21.512,49.229c-0.386,0.666,1.025,0.56,0.689,0
	C22.091,49.045,21.688,48.926,21.512,49.229z M53.504,49.229c0.037,0.037,0.209-0.065,0.139-0.138
	C53.604,49.054,53.432,49.159,53.504,49.229z M57.09,49.366c-0.031,0.086,0.209,0.299,0.275,0.277
	C57.728,49.531,57.277,48.868,57.09,49.366z M40.267,49.366c-0.039-0.037-0.21,0.068-0.14,0.14
	C40.166,49.543,40.337,49.438,40.267,49.366z M96.253,49.366c-0.039-0.037-0.21,0.068-0.138,0.14
	C96.152,49.543,96.324,49.438,96.253,49.366z M26.477,49.644c0,0.075,0.137,0.157,0.137,0
	C26.613,49.565,26.477,49.487,26.477,49.644z M38.61,49.644c0.039,0.037,0.209-0.065,0.14-0.138
	C38.711,49.467,38.539,49.572,38.61,49.644z M69.776,49.919c0.038,0.037,0.209-0.066,0.139-0.138
	C69.877,49.743,69.705,49.847,69.776,49.919z M94.322,50.058c0.038,0.039,0.209-0.066,0.138-0.139
	C94.422,49.881,94.25,49.983,94.322,50.058z M94.874,49.919c-0.04-0.038-0.209,0.064-0.139,0.139
	C94.773,50.097,94.945,49.99,94.874,49.919z M35.163,50.333c0.038,0.037,0.341-0.073,0.275-0.139
	C35.401,50.156,35.099,50.269,35.163,50.333z M34.336,50.472c0.038,0.038,0.209-0.066,0.138-0.139
	C34.436,50.295,34.265,50.399,34.336,50.472z M47.022,50.472c0,0.075,0.14,0.156,0.14,0C47.161,50.394,47.022,50.315,47.022,50.472z
	 M50.194,50.885c-0.039-0.038-0.21,0.066-0.138,0.138C50.095,51.06,50.266,50.954,50.194,50.885z M79.566,51.022
	c-0.498,0.498,0.224,1.112,0.69,0.826C80.648,51.61,80.279,50.31,79.566,51.022z M45.23,51.16c-0.284,0.263-0.336,0.724,0.139,0.827
	C46.018,52.132,46.105,50.349,45.23,51.16z M72.12,51.16c-0.038-0.038-0.209,0.065-0.139,0.138
	C72.021,51.335,72.191,51.231,72.12,51.16z M67.708,51.437c-0.381-0.24-1.039-0.016-1.241,0.139
	c-0.545,0.406-0.055,1.023-0.139,1.654c-0.031,0.234-0.529,0.225-0.275,0.552c0.649,0.147,0.229-0.347,0.689-0.552
	c0.09-0.041,0.325,0.16,0.551,0.138c-0.035,0.005,0.202-0.107,0.269-0.134c-0.002,0,0,0,0.009-0.004
	c-0.002,0-0.006,0.004-0.009,0.004c0.019-0.006,0.373-0.125,0.284-0.004c0.166-0.226,0.223-1.109,0.137-1.379
	C68.016,51.951,67.646,51.396,67.708,51.437z M85.772,51.851c-0.013,0.012,0,0.118,0,0.137
	C85.772,52.696,86.269,51.354,85.772,51.851z M40.955,51.987c-0.497,0.102-0.018,0.211-0.14,0.414c-0.023,0.043-0.24-0.039-0.273,0
	c-0.271,0.299,0.027,0.888,0,0.965c-0.057,0.146-0.614,0.091-0.415,0.414c0.477,0.017,0.248-0.307,0.688-0.274
	c0.018,0-0.018,0.269,0,0.274c0.179,0.07,0.534-0.105,0.689,0c0.054,0.035-0.009,0.34,0.14,0.275c0.036-0.018-0.032-0.246,0-0.275
	c0.047-0.049,0.226,0.043,0.275,0c0.197-0.174,0.439-0.875,0.273-1.241C42.067,52.251,41.204,51.937,40.955,51.987z M44.54,53.091
	c0.038,0.038,0.21-0.066,0.139-0.14C44.641,52.914,44.469,53.021,44.54,53.091z M95.563,52.951c-0.04-0.037-0.209,0.067-0.138,0.14
	C95.463,53.129,95.635,53.022,95.563,52.951z M77.085,53.918c0.068-0.181,0.027-0.144-0.139-0.412
	c-0.254-0.415-0.534-0.446-0.965-0.276c-0.127,0.049-0.495,0.174-0.553,0.276c-0.104,0.179-0.146,0.94-0.137,0.964
	c-0.015-0.037,0.273,0.137,0.273,0.139c0.235,0.271,0.6,0.496,0.968,0.414c0.105-0.024,0.619-0.521,0.688-0.826
	C77.229,54.172,77.02,54.09,77.085,53.918z M39.852,53.366c0.038,0.037,0.209-0.066,0.139-0.139
	C39.952,53.19,39.78,53.296,39.852,53.366z M81.773,54.056c0.213-0.377-0.17-0.885-0.551-0.55
	C80.608,54.039,81.637,54.3,81.773,54.056z M86.737,53.506c0,0.076,0.139,0.155,0.139,0C86.875,53.427,86.737,53.349,86.737,53.506z
	 M43.574,53.642c-0.161,0.162-0.279,0.408,0,0.555C44.375,54.606,44.182,53.035,43.574,53.642z M34.888,53.78
	c-0.038-0.037-0.209,0.066-0.138,0.138C34.788,53.955,34.959,53.851,34.888,53.78z M15.307,54.194
	c0.037,0.037,0.209-0.067,0.138-0.139C15.406,54.019,15.235,54.123,15.307,54.194z M97.632,54.745
	c-0.021,0.021-0.294,0.259-0.138,0.414C97.836,55.503,98.143,54.231,97.632,54.745z M70.604,54.883
	c0.038,0.039,0.209-0.065,0.139-0.138C70.703,54.708,70.532,54.812,70.604,54.883z M73.775,54.883
	c0.038,0.039,0.209-0.065,0.14-0.138C73.875,54.708,73.705,54.812,73.775,54.883z M34.888,55.159
	c0.038,0.038,0.209-0.065,0.138-0.139C34.988,54.981,34.816,55.088,34.888,55.159z M97.355,55.435
	c0.037,0.037,0.209-0.065,0.14-0.138C97.455,55.26,97.285,55.362,97.355,55.435z M96.391,55.572c0-0.075-0.138-0.155-0.138,0
	C96.253,55.649,96.391,55.729,96.391,55.572z M52.264,56.951c0,0.077,0.137,0.157,0.137,0C52.4,56.876,52.264,56.796,52.264,56.951z
	 M19.856,57.089c-0.942,0.589,0.567,1.305,0.828,0.691C20.949,57.153,20.272,56.83,19.856,57.089z M61.915,57.089
	c-0.339,0.08-0.577,0.075-0.689,0.414c-0.063,0.193-0.012,0.549,0.141,0.827c0.202,0.379,0.602,0.47,0.964,0.276
	c0.157-0.086,0.211-0.39,0.274-0.553C62.869,57.394,62.49,56.958,61.915,57.089z M92.115,58.192
	c0.271-0.528-0.259-1.193-0.826-0.827C90.337,57.978,91.733,58.94,92.115,58.192z M47.712,58.056
	c0.038,0.037,0.21-0.065,0.139-0.138C47.812,57.88,47.641,57.983,47.712,58.056z M56.676,58.192c0,0.076,0.137,0.154,0.137,0
	C56.813,58.116,56.676,58.035,56.676,58.192z M27.855,58.606c-0.226,0.131-0.45,0.235-0.276,0.551
	C28.123,60.14,28.936,57.976,27.855,58.606z M60.398,58.606c0,0.074,0.138,0.156,0.138,0C60.535,58.53,60.398,58.45,60.398,58.606z
	 M67.019,58.606c0,0.074,0.139,0.156,0.139,0C67.156,58.53,67.019,58.45,67.019,58.606z M41.921,58.744
	c0.037,0.038,0.209-0.067,0.137-0.138C42.021,58.569,41.849,58.673,41.921,58.744z M53.229,58.744
	c0.037,0.038,0.209-0.067,0.138-0.138C53.327,58.569,53.156,58.673,53.229,58.744z M50.194,58.882
	c0.038,0.038,0.209-0.064,0.139-0.138C50.293,58.705,50.123,58.812,50.194,58.882z M56.538,58.882
	c0.038,0.038,0.209-0.064,0.138-0.138C56.639,58.705,56.467,58.812,56.538,58.882z M97.907,59.297c0.154-0.015,0.214,0.2,0.275,0
	C98.182,59.157,97.941,59.121,97.907,59.297z M59.846,59.709c0.04,0.039,0.211-0.065,0.141-0.138
	C59.946,59.534,59.775,59.638,59.846,59.709z M97.218,60.124c0.115-0.116-0.389-0.68-0.413-0.277
	C96.796,59.976,97.007,60.334,97.218,60.124z M97.494,59.985c0,0.076,0.138,0.158,0.138,0
	C97.632,59.909,97.494,59.829,97.494,59.985z M82.738,60.124c0.039,0.037,0.209-0.068,0.139-0.139
	C82.838,59.947,82.666,60.052,82.738,60.124z M58.882,60.261C58.549,60.724,59.344,59.927,58.882,60.261L58.882,60.261z
	 M91.289,60.95c0.018,0.113-0.429-0.291-0.414-0.274c-0.357-0.415-0.609-0.599-1.104-0.415c-1.713,0.631,0.077,2.781,1.104,1.518
	c0.186-0.229,0.021-0.524,0.137-0.689C91.069,61.01,91.317,61.126,91.289,60.95z M96.666,61.226
	c-0.054-0.063,0.168-0.265,0.139-0.412c-0.1-0.492-0.994-0.912-1.656-0.688c-0.028,0.009-0.155,0.356-0.273,0.412
	c-0.573,0.269,0.138,0.021-0.139,0.414c-0.075,0.108-0.324-0.013-0.413,0.138c0.028-0.05,0.339,0.239,0.274,0.415
	c-0.086,0.237-1.085,0.358-0.688,0.827c0.778,0.282,0.381-0.797,0.827-0.553c0.071,0.039-0.312,0.373,0,0.414
	c-0.02-0.004,0.125-0.271,0.139-0.276c0.089-0.026,0.291,0.202,0.273,0.276c-0.007,0.033-0.27-0.14-0.273-0.137
	c0.005-0.003-0.201,0.4-0.139,0.411c0.257,0.046,0.307-0.153,0.552-0.137c0.135,0.011,0.241,0.218,0.414,0.137
	c0.114-0.053,0.108-0.396,0.274-0.411c0.203-0.021,0.046,0.223,0.14,0.274c0.434,0.248,0.097-0.353,0.138-0.415
	c0.043-0.064,0.241,0.166,0.273,0.141c0.164-0.133-0.105-0.453,0.14-0.553c-0.087,0.035,0.133,0.41,0.139,0.412
	c0.556,0.32,0.92-0.307,0.689-0.689C97.307,60.92,96.742,61.317,96.666,61.226z M50.47,60.261c-0.013,0.014,0,0.118,0,0.139
	C50.47,61.106,50.967,59.765,50.47,60.261z M79.016,60.397c-0.476,0.291,0.07,0.898,0.413,0.689
	C79.682,60.933,79.573,60.06,79.016,60.397z M80.257,60.397c0.037,0.041,0.34-0.072,0.276-0.138
	C80.494,60.224,80.19,60.334,80.257,60.397z M48.677,60.536c0.039,0.039,0.21-0.066,0.139-0.139
	C48.776,60.36,48.605,60.465,48.677,60.536z M63.156,60.536c0.039,0.039,0.211-0.066,0.139-0.139
	C63.256,60.36,63.085,60.465,63.156,60.536z M22.339,60.813c-0.277,0.763,1.032,0.34,0.552-0.139
	C22.758,60.542,22.358,60.756,22.339,60.813z M49.367,61.226c0.037,0.039,0.209-0.064,0.138-0.138
	C49.466,61.051,49.295,61.153,49.367,61.226z M49.918,61.365c0.039,0.036,0.21-0.068,0.139-0.14
	C50.018,61.188,49.848,61.294,49.918,61.365z M72.12,61.776c0.039,0.041,0.209-0.064,0.138-0.137
	C72.221,61.603,72.049,61.706,72.12,61.776z M49.229,61.915c0.039,0.039,0.21-0.064,0.14-0.139
	C49.328,61.74,49.158,61.844,49.229,61.915z M17.788,62.056c-0.096,0.049-0.388,0.375-0.413,0.411
	c-0.491,0.693-0.188,1.546,0.688,1.517c0.559-0.016,0.879-0.648,0.965-1.238c0.039-0.268,0.08-0.609,0-0.689
	C18.739,61.763,17.903,61.99,17.788,62.056z M21.926,62.056c0.037,0.036,0.208-0.068,0.138-0.141
	C22.024,61.878,21.854,61.983,21.926,62.056z M61.365,62.056c0.036,0.036,0.206-0.068,0.137-0.141
	C61.464,61.878,61.293,61.983,61.365,62.056z M74.188,62.056c0.038,0.036,0.209-0.068,0.14-0.141
	C74.289,61.878,74.117,61.983,74.188,62.056z M17.236,62.192c-0.036,0.037,0.072,0.341,0.14,0.273
	C17.412,62.431,17.302,62.126,17.236,62.192z M85.91,62.33c0.036,0.037,0.209-0.065,0.139-0.138
	C86.01,62.153,85.839,62.258,85.91,62.33z M58.606,62.744c0.038,0.037,0.209-0.068,0.139-0.14
	C58.705,62.567,58.534,62.673,58.606,62.744z M93.218,62.744C92.754,62.324,92.8,63.253,93.218,62.744L93.218,62.744z
	 M95.426,62.744c0,0.075,0.138,0.155,0.138,0C95.563,62.667,95.426,62.587,95.426,62.744z M81.497,63.157
	c0.038,0.039,0.209-0.066,0.139-0.139C81.598,62.981,81.426,63.085,81.497,63.157z M71.845,63.294
	c0.038,0.04,0.209-0.064,0.138-0.137C71.945,63.119,71.772,63.224,71.845,63.294z M91.979,63.571c-1.264,0.015-0.824,1.301,0,0.688
	c0.043-0.034-0.036-0.229,0-0.276c0.228-0.301,0.359-0.168,0-0.551C91.984,63.438,91.973,63.571,91.979,63.571z M44.54,63.983
	c-0.369,0.162-0.61,0.338-0.413,0.828c-0.023-0.059,0.498,0.271,0.413,0.275C45.236,65.065,45.506,63.562,44.54,63.983z
	 M68.949,65.502c0.036,0.038,0.209-0.067,0.138-0.14C69.049,65.325,68.878,65.429,68.949,65.502z M98.597,15.72
	c-0.063,0.246,0.106,0.547,0.138,0.967c0.058,0.77-0.332,1.614-0.275,1.791c0.029,0.092,0.354,0.071,0.275,0
	c-0.385-0.345,0.242,0.152,0.14,0.14c0.309,0.037,0.433-0.134,0.688-0.14c0-1.239,0-2.48,0-3.723
	C99.183,14.909,98.763,15.071,98.597,15.72z M84.117,9.791c0-0.002,0.073,0.17,0.114,0.243c0.045-0.017,0.295,0.032,0.299,0.032
	c0.43,0.046,0.632,0.003,0.827,0.138c0.144,0.098,0.264,0.546,0.274,0.552c0.275,0.125,0.517-0.347,0.688-0.138
	c0.404,0.48-0.489,1.008,0.415,1.104C87,11,86.248,11.06,86.463,10.618c0.076-0.159,0.543,0.127,0.549,0.138
	c0.094,0.151-0.146,0.336-0.137,0.414c0.028,0.213,0.521,0.561,0.553,0.689c0.085-0.375-0.625-0.646-0.275-0.827
	c0.079,0.155,0.164,0.286,0.275,0.415c0.318,0.367,0.295,0.221,0.551,0c0.159-0.14,0.498-0.797,0.413-0.967
	c-0.05-0.104-0.737-0.088-0.55-0.276c0.294-0.297,1.09,0.082,1.653,0c0.017-0.002,0.101-0.265,0.139-0.275
	c0.065-0.02,0.26,0.159,0.276,0.138c0.286-0.359-0.432-0.22-0.141-0.689c0.07-0.111,0.247,0.053,0.276-0.138
	c-0.015,0.098-0.283-0.15-0.276-0.138c-0.44-0.634,0.29-0.259,0.276-0.689c-0.4,0.151-0.53,0.089-0.689-0.277
	c0.05,0.113,0.293-0.125,0.276-0.274c-0.028-0.252-0.683-1.265-0.828-1.379c-0.271-0.215-0.125-0.34-0.274-0.551
	c-0.071-0.102-0.205,0.002-0.275-0.14c-0.208-0.41-0.056-0.662-0.276-0.826c-0.136-0.101-0.573,0.117-0.688,0
	c-0.219-0.222-0.043-0.754-0.138-0.827c-0.17-0.131-0.699,0.182-0.688,0c-0.004,0.043,0.334-0.32,0.412-0.415
	c0.195-0.232,0.263-0.306,0.414-0.412c-0.142,0.1,0.867,0.1,0.274-0.277c-0.199,0.497-0.426-0.149-0.412-0.138
	c-0.047-0.046-0.229,0.045-0.276,0c-0.562-0.535,0.235-0.266,0.137-0.964c-0.229-0.288-0.14,0.055-0.549,0.137
	c-0.292,0.058-0.752-0.543-1.104-0.414c-0.468,0.172,0.098,0.194-0.274,0.688c-0.161,0.213-0.649,0.345-0.689,0.415
	c-0.044,0.076-0.14,0.813-0.138,0.826c0.001,0.013,0.195,0,0.316-0.003C84.48,3.512,84.467,3.5,84.67,3.585
	c-0.01-0.003-0.048-0.003-0.099-0.003c0.135,0.102,0.433,0.323,0.512,0.556c0.003,0.011-0.164,0.43,0,0.55
	c0.646,0.037-0.18-0.534,0.413-0.55c0.065,0.855-0.098,1.131,0.137,1.517c-0.525-0.186-0.135,0.401-0.137,0.414
	c-0.002,0.007-0.235,0.026-0.139,0.138c0.021,0.023,0.545,0.148,0.553,0.138c0.116-0.197,0.095-0.534-0.236-0.674
	C85.77,5.683,86,5.614,86.049,5.654c0.088,0.071,0.178,0.475,0.414,0.552c0.217,0.069,0.377-0.22,0.412,0
	c0.104,0.634-0.396,0.536-0.554,0.689c-0.114,0.118-0.15,0.298-0.272,0.412c-0.562,0.522-0.584,0.103-0.966-0.137
	c-0.236-0.146-0.456-0.135-0.689-0.138c-0.079-0.002,0.141,0.357,0.139,0.274c0.013,0.437-0.536,0.191-0.689,0.138
	c-0.567-0.194-1.015-0.47-1.379-0.964c-0.283-0.383-0.152-0.68-0.276-1.104c-0.13-0.443-0.868-0.132-0.964-0.275
	c-0.078-0.114,0.036-0.416,0-0.55C81.142,4.25,80.973,4.179,80.946,4c-0.017-0.105,0.164,0.034,0-0.138
	C80.984,3.901,80.891,4.057,80.808,4c-0.271-0.191-0.599-0.511-0.827-0.552c-0.396-0.073-0.415,0.459-0.552,0
	c0.083,0.278,0.373-0.512,0.415-0.553c0.025-0.024,0.409-0.128,0.413-0.137c0.038-0.12-0.091-1.096-0.139-1.242
	c-0.095-0.298-0.633-1.073-0.966-1.241c-0.201-0.102-1.025-0.152-1.103-0.138c-0.428,0.084-1.053,0.754-1.242,1.104
	c-0.072,0.132-0.257,0.271-0.273,0.412c-0.005,0.018,0.188,0.202,0.138,0.414c-0.021,0.083-0.311-0.042-0.276,0.138
	c0.003,0.015,0.251-0.011,0.276,0c0.184,0.084,0.281,0.974,0.274,0.967c0.086,0.105,0.435,0.056,0.552,0.138
	c0.223,0.149,0.233,0.418,0.415,0.552c-0.064-0.048,0.066-0.15,0.138-0.14c0.25,0.043-0.02,0.415,0,0.553
	c0.062,0.45,0.074-0.604,0.551-0.275c-0.105,0.325-0.537,0.414-0.551,0.827c-0.001,0.026,0.18-0.009,0.137,0.138
	c-0.007,0.022-0.27-0.021-0.273,0c-0.046,0.196,0.092,0.557,0.138,0.689c-0.018-0.052,0.18-0.232,0.275-0.138
	c0.275,0.27,0.003,0.827,0,0.827c-0.058,0.012-0.148-0.605-0.275-0.553c-0.056,0.023-0.037,0.229-0.138,0.277
	c-0.188,0.088-0.507-0.095-0.69,0c-0.301,0.153-0.212,0.659-0.551,0.55c-0.012-0.003-0.007-0.386,0-0.412
	c0.074-0.343,0.11-0.07-0.138-0.275c-0.071-0.059,0.169-0.232,0.138-0.276c-0.021-0.03-0.243-0.104-0.276-0.138
	c-0.305-0.304-1.019-0.642-1.518-0.415c0.081-0.035,0.157,0.054,0.139,0.14c-0.063,0.286-0.772,0.4-0.413,0.689
	c0.09,0.071-0.143,0.164-0.139,0.138c-0.078,0.622,0.187,0.513,0.413,0.689c0.091,0.069,0.168,0.379,0.275,0.413
	c1.078,0.348,1.179-0.488,1.519-0.275c0.046,0.028-0.138,0.252-0.138,0.275c0,0.393,0.813,1.459,0.964,1.655
	c-0.289-0.375,0.652-0.302,0.139,0.413c0.5,0.08,0.264-0.325,0.551-0.551c-0.094,0.073,0.189,0.045,0.276,0
	c0.229-0.123,0.674-0.341,0.828-0.414c-0.163,0.077-0.13-0.34,0-0.414c0.304-0.177,0.63,0.244,0.826,0.414
	c-0.001-0.002,0.176,0.293,0.139,0.275c0.183,0.086,0.491-0.045,0.688,0c0.258,0.061,0.344,0.227,0.552,0.276
	c0.134,0.03,0.169-0.145,0.275-0.138c0.04,0.002,0.306,0.258,0.413,0.275c-0.031-0.005,0.018-0.414,0.14-0.414
	c0.343,0.003,1.043,0.689,1.24,0.966c0.099,0.138-0.006,0.181,0.139,0.275c-0.127-0.084,0.107-0.402,0.138-0.414
	C84.416,9.146,84.131,9.618,84.117,9.791z M85.772,5.931c0.071,0.069-0.1,0.175-0.14,0.138C85.563,5.997,85.733,5.892,85.772,5.931z
	 M81.636,6.896c-0.206,0.22-1.595-0.645-0.689-1.104c0.006-0.001-0.003-0.137,0-0.137c0.342,0.052,0.098,0.121,0.276,0.276
	c0.021,0.018,0.411,0.132,0.413,0.138C81.747,6.324,81.655,6.874,81.636,6.896z M84.256,10.066
	c-0.005-0.002-0.014-0.015-0.023-0.032C84.221,10.037,84.223,10.048,84.256,10.066z M89.971,0.95
	c0.018,0.036,0.042,0.084,0.076,0.154C90.29,1.59,90.065,1.14,89.971,0.95z M89.971,0.95c-0.02-0.039-0.033-0.067-0.037-0.074
	C89.937,0.885,89.949,0.908,89.971,0.95z M27.993,1.794c-0.152-0.109,0.341-0.097,0.273,0c0.229-0.329-0.285-0.136-0.273-0.14
	C27.873,1.685,27.889,1.719,27.993,1.794z M70.609,2.203c0.019-0.056-0.353-0.851-0.42-0.409c0.064,0.27,0.572,0.811,0.689,0.827
	c0.02,0.002,0.214-0.407,0.139-0.553C70.973,1.983,70.652,2.176,70.609,2.203z M87.842,1.794c0.067,0.434-0.685,0.05-0.553,0.55
	C87.627,2.451,88.215,1.858,87.842,1.794z M84.256,3.862c-0.318,0.304,0.24,0.345,0.414,0.55
	C84.693,4.067,84.359,4.078,84.256,3.862z M87.979,4.552c-0.172,0.045-0.047,0.229,0.139,0.136c0.104-0.05,0.21-0.241,0-0.136
	C88.082,4.567,88.016,4.541,87.979,4.552z M68.397,5.791c0.098-0.098,0.038-1.327,0.139-1.239c-0.031-0.026-1.052,0.007-1.242,0.136
	c-0.281,0.193-0.339,0.65-0.274,0.967c0.068,0.343,0.497-0.084,0.827,0.414c0.127,0.191-0.027,0.413,0.137,0.55
	c0.109,0.093,0.367-0.125,0.415-0.137c0.079-0.021-0.009,0.188,0.139,0c-0.036,0.046-0.264-0.394-0.275-0.413
	C68.072,5.777,68.239,5.95,68.397,5.791z M71.293,5.241c0.002-0.182,0.243-0.127,0.274-0.276C70.84,4.698,71.2,5.009,71.293,5.241z
	 M68.397,9.377C68.436,9.526,68.443,9.054,68.397,9.377L68.397,9.377z M82.537,10.159c0.024,0.03,0.047,0.011,0.063-0.093
	C82.588,10.143,82.563,10.162,82.537,10.159z M82.187,9.239c-0.324-0.154-0.91,0.138-0.964,0.276
	c-0.322,0.806,0.916,0.866,1.24,0.551c-0.011,0.012,0.031,0.085,0.074,0.093C82.448,10.05,82.316,9.302,82.187,9.239z
	 M80.118,10.066c-0.115,0.098-0.163,0.309-0.274,0.414C80.281,10.441,80.424,9.809,80.118,10.066z M84.807,10.895
	c0.401-0.104,0.153-0.414,0-0.552c-0.219-0.2-0.477-0.065-0.551,0c0.018-0.016,0.127,0.018,0.138,0
	c-0.036,0.064-0.392,0.269-0.275,0.413C84.189,10.847,84.69,10.924,84.807,10.895z M90.6,13.376
	c-0.038-0.328-0.479-0.377-0.414-0.689c0.072-0.35,0.58-0.184,0.551-0.412c-0.03-0.245-0.566-0.374-0.673-0.406
	c0.1,0.105,0.255,1.19-0.43,0.818c-0.092-0.05,0.276-0.291,0.276-0.275c0.063-0.475-0.694-0.149-0.276,0.138
	c-0.752,0.181-1.017,1.096-0.966,1.379c-0.058-0.311,0.459,0.093,0.413,0.277c0.008-0.032-0.247,0.077-0.139,0.136
	c0.159,0.086,0.327-0.136,0.414-0.136c0.313-0.006,0.5,0.224,0.689,0.136C90.312,14.221,90.631,13.665,90.6,13.376z M90.063,11.868
	c-0.007-0.007-0.011-0.009-0.017-0.009S90.045,11.863,90.063,11.868z M86.737,12.962C87.057,12.107,86.336,12.557,86.737,12.962
	L86.737,12.962z M14.683,12.986c-0.025,0.021-0.041,0.032-0.044,0.036C14.644,13.019,14.66,13.005,14.683,12.986z M14.892,12.824
	c0.02-0.013,0.031-0.023,0.043-0.032c-0.061,0.047-0.169,0.131-0.236,0.184C14.738,12.943,14.801,12.896,14.892,12.824z
	 M87.702,14.48c-0.126,0.125,0.128,0.395,0.14,0.412c0.029,0.048,0.135,0.554,0.274,0.414C88.283,15.141,87.681,14.502,87.702,14.48
	z M82.049,15.582c-0.117-0.018,0.673-0.343,0.414-0.552c-0.342-0.273-0.289,0.061-0.414,0.414
	C82.045,15.459,81.834,15.55,82.049,15.582z M98.321,19.444c-0.017-0.036-0.24,0.023-0.275,0c-0.113-0.08,0.035-0.218-0.138-0.277
	c0.033,0.013-0.155,0.157-0.275,0.14c-0.436-0.069-0.205,0.002,0,0.275c0.165,0.22,0.22,0.149,0.413,0.414
	C98.121,19.764,98.488,19.794,98.321,19.444z M98.045,20.409c0.209-0.086-0.023-0.34,0-0.413
	C97.928,19.834,97.582,20.598,98.045,20.409z M94.736,19.996c0.044,0.114-0.177,0.138-0.276,0.138c-0.115,0,0.036-0.161-0.138,0
	c0.056-0.052,0.164,0.059,0.138,0.138c-0.034,0.104-0.385,0.141-0.274,0.414C94.676,20.446,94.818,20.209,94.736,19.996z
	 M84.115,21.12c0.002-0.01,0.002-0.017,0.002-0.021C84.113,21.118,84.113,21.123,84.115,21.12z M84.256,21.375
	c0.159-0.093,0.117-0.702,0.138-0.966c0-0.002-0.252,0.681-0.277,0.711C84.114,21.202,84.176,21.42,84.256,21.375z M84.394,20.409
	C84.581,20.033,84.41,20.184,84.394,20.409L84.394,20.409z M52.539,23.994c-0.006,0.003-0.013,0.002-0.018,0.002
	C52.523,23.999,52.527,23.999,52.539,23.994z M52.953,22.34c-0.482-0.72-1.23,0.057-1.242,0.552
	c-0.003,0.155,0.182,0.519,0.275,0.689c-0.054-0.098,0.196-0.164,0.276,0c0.088,0.186-0.229,0.14,0,0.275
	c-0.222-0.131,0.457-0.183,0.275-0.14c-0.181,0.045-0.088,0.279-0.018,0.279C52.51,23.93,53.334,22.909,52.953,22.34z
	 M12.823,27.166c-0.33,0.02-0.683,0.344-0.966,0.688c-0.354,0.438,0.654-0.265,0.139,0.276c-0.31,0.325,0.204-0.246,0.275,0.14
	c0.042,0.222-0.369,0.254-0.414,0.55c0.296,0.017,0.336-0.282,0.553-0.414c0.251-0.152,0.598-0.248,0.688-0.413
	C13.345,27.552,12.854,27.165,12.823,27.166z M48.539,31.578c0.02,0.027,0.002-0.003-0.021-0.069
	C48.509,31.521,48.513,31.543,48.539,31.578z M48.815,31.578c-0.054-0.033-0.176,0.136,0,0.138c0.18,0.004,0.729-0.024,0.827-0.274
	c0.386-0.969-0.925-0.924-1.104-0.553c-0.122,0.254-0.063,0.501-0.021,0.62C48.553,31.463,48.802,31.571,48.815,31.578z
	 M92.391,31.991c0.039-0.007,0.103,0.018,0.138,0c-0.018,0.009,0.02,0.129,0,0.14c-0.3,0.168-0.492,0.287-0.688,0.689
	c0.04-0.081,0.271,0.098,0.276,0.138c0.058,0.432-0.581,0.27-0.552,0.552c0.003,0.026,0.195-0.024,0.317-0.075
	c0.017-0.068,0.05-0.104,0.097-0.063c0.013,0.013-0.032,0.037-0.097,0.063c-0.038,0.159,0.017,0.51,0.233,0.625
	c-0.058-0.029,0.373-0.274,0.412-0.274c0.456,0,0.502,0.569,0.553,0.553c0.188-0.065-0.013-0.399,0-0.415
	c0.049-0.052,0.436-0.104,0.553-0.273c0.009-0.014,0.148-0.311,0.137-0.277C94.102,32.252,93.156,31.819,92.391,31.991z
	 M91.289,33.51c-0.641,0.964,0.586,0.644,0.274,0.274C91.137,34.237,91.586,33.551,91.289,33.51z M37.921,51.851
	c-0.162-0.402-0.695-0.502-0.965-0.828c-0.031-0.037,0.25-0.608-0.276-0.414c0.17,0.701,0.056,0.435-0.275,0.689
	c-0.423,0.328-0.025,0.321-0.412,0.414c-0.04,0.01-0.051-0.213-0.14,0c0.028-0.066,0.141,0.075,0.14,0.139
	c-0.01,0.424-0.085,1.199,0.138,1.379c-0.042-0.032,0.19-0.235,0.274-0.139c0.021,0.023-0.022,0.27,0,0.275
	c0.253,0.056,1.093-0.038,1.241-0.139c-0.056,0.037-0.183-0.054-0.137-0.138c0.021-0.041,0.246,0.038,0.274,0
	c0.063-0.082-0.039-0.315,0-0.414c0.038-0.095,0.257-0.102,0.272-0.265C38.04,52.427,37.94,51.897,37.921,51.851z M89.634,53.642
	c0.208-0.043,0.125-0.164,0.413-0.412c0.008-0.008,0.033,0.181,0.139,0c-0.021,0.039-0.178-0.043-0.139-0.139
	c0.131-0.313,0.322-1.058-0.137-1.24c-0.72-0.289-1.357,0.436-1.379,0.826C88.498,53.254,89.291,53.716,89.634,53.642z
	 M82.187,58.744c-0.335-0.14-0.289-0.313-0.551-0.276c-0.128,0.018-0.566,0.23-0.689,0.414c-0.23,0.346,0.042,0.747,0,0.827
	c-0.029,0.056-0.343-0.013-0.274,0.138c-0.001,0,0.396,0.127,0.413,0.141c0.295,0.229,0.455,0.472,0.828,0.55
	c-0.317-0.065,0.224,0.179,0.273,0.14c0.146-0.113,0.014-0.424,0.14-0.552c0.027-0.031,0.263,0.033,0.275,0
	c0.127-0.336,0.113-1.167,0.012-1.358C82.643,58.854,82.301,58.791,82.187,58.744z M48.677,59.571c-0.051-0.103-0.241-0.209-0.138,0
	c0.018,0.035-0.01,0.101,0,0.138C48.585,59.881,48.771,59.756,48.677,59.571z"/>
</svg>
