<?xml version="1.0" encoding="utf-8"?>
<!-- Generator: Adobe Illustrator 16.0.0, SVG Export Plug-In . SVG Version: 6.00 Build 0)  -->
<!DOCTYPE svg PUBLIC "-//W3C//DTD SVG 1.1//EN" "http://www.w3.org/Graphics/SVG/1.1/DTD/svg11.dtd">
<svg version="1.1" id="Layer_1" xmlns="http://www.w3.org/2000/svg" xmlns:xlink="http://www.w3.org/1999/xlink" x="0px" y="0px"
	 width="288px" height="288px" viewBox="0 0 288 288" enable-background="new 0 0 288 288" xml:space="preserve">
<path fill-rule="evenodd" clip-rule="evenodd" d="M198.012,166.934c23.793,37.414-6.941,42.185-6.941,42.185l-45.338,12.054
	C145.732,221.172,172.556,126.902,198.012,166.934z M93.023,163.247c-26.471,35.569,3.83,42.577,3.83,42.577l44.337,15.348
	C141.19,221.172,121.346,125.188,93.023,163.247z M184.834,76.258c-9.823,0-17.787,7.964-17.787,17.787
	c0,5.044,2.111,9.588,5.486,12.826c-3.593,2.641-7.083,5.403-10.54,8.207c-2.539,2.113-5.062,4.244-7.537,6.435l-7.792,6.404
	c-0.108-7-0.277-14-0.573-21.003c-0.247-6.361-0.558-12.724-0.979-19.086c8.685-1.176,15.385-8.599,15.385-17.605
	c0-9.823-7.962-17.787-17.785-17.787s-17.786,7.963-17.786,17.787c0,9.534,7.51,17.294,16.934,17.743
	c-0.417,6.315-0.723,12.632-0.968,18.948c-0.291,6.827-0.46,13.654-0.569,20.482l-9.355-7.69c-2.474-2.19-4.997-4.322-7.536-6.435
	c-3.497-2.834-7.025-5.63-10.66-8.298c3.443-3.243,5.605-7.833,5.605-12.937c0-9.822-7.963-17.786-17.786-17.786
	c-9.823,0-17.786,7.963-17.786,17.786c0,9.823,7.963,17.786,17.786,17.786c3.729,0,7.186-1.151,10.046-3.113
	c3.442,3.188,7.016,6.216,10.612,9.218c2.563,2.077,5.139,4.135,7.762,6.137l11.26,9.257c-0.008,0.624-0.019,1.248-0.024,1.872
	l-0.098,0.083l0.093,0.114c-0.041,3.787-0.074,7.575-0.093,11.363c0.04,8.876,0.131,17.752,0.362,26.631v49.789h5.961v-49.829
	c0.229-8.863,0.321-17.729,0.362-26.591c-0.023-4.305-0.063-8.608-0.115-12.912l9.696-7.97c2.623-2.002,5.198-4.06,7.76-6.137
	c3.555-2.967,7.083-5.961,10.491-9.107c2.884,2.014,6.383,3.205,10.169,3.205c9.821,0,17.785-7.963,17.785-17.786
	C202.619,84.222,194.655,76.258,184.834,76.258z"/>
</svg>
