<?xml version="1.0" encoding="utf-8"?>
<!-- Generator: Adobe Illustrator 15.0.0, SVG Export Plug-In . SVG Version: 6.00 Build 0)  -->
<!DOCTYPE svg PUBLIC "-//W3C//DTD SVG 1.1//EN" "http://www.w3.org/Graphics/SVG/1.1/DTD/svg11.dtd">
<svg version="1.1" id="RSS" xmlns="http://www.w3.org/2000/svg" xmlns:xlink="http://www.w3.org/1999/xlink" x="0px" y="0px"
	 width="100px" height="100px" viewBox="0 0 100 100" enable-background="new 0 0 100 100" xml:space="preserve">
<path fill-rule="evenodd" clip-rule="evenodd" d="M50,0C22.386,0,0,22.385,0,50c0,27.614,22.386,50,50,50s50-22.386,50-50
	C100,22.385,77.614,0,50,0z M36.339,73.718c-2.326,4.216-8.551,4.891-11.771,1.494c-1.038-1.096-1.883-2.652-2.02-4.568
	c-0.127-1.773,0.61-3.652,1.142-4.48c0.593-0.924,1.735-1.968,2.635-2.46c0.691-0.377,1.585-0.653,2.723-0.79
	c3.4-0.408,5.965,1.443,7.204,3.514C37.465,68.456,37.531,71.558,36.339,73.718z M48.286,77.495
	c-0.124-8.167-3.345-13.975-7.554-18.184c-4.207-4.207-9.967-7.483-18.184-7.555c0-3.426,0-6.852,0-10.278
	c-0.008-0.125-0.015-0.249,0.088-0.264c11.519,0.26,19.697,4.676,25.65,10.629c5.838,5.838,10.345,14.124,10.542,25.65
	C55.313,77.495,51.8,77.495,48.286,77.495z M77.451,77.495c-3.485,0-6.97,0-10.454,0c-0.349-14.146-5.758-24.068-13.001-31.448
	c-3.605-3.674-8.074-6.671-13.177-9.048c-5.127-2.389-11.221-3.877-18.271-3.953c0-3.426,0-6.852,0-10.278
	c-0.003-0.151,0.065-0.228,0.176-0.264c17.537,0.485,29.715,7.138,38.827,16.251c4.492,4.493,8.314,9.939,11.156,16.339
	C75.532,61.457,77.672,68.896,77.451,77.495z"/>
</svg>
