<?xml version="1.0" encoding="utf-8"?>
<!-- Generator: Adobe Illustrator 16.0.0, SVG Export Plug-In . SVG Version: 6.00 Build 0)  -->
<!DOCTYPE svg PUBLIC "-//W3C//DTD SVG 1.1//EN" "http://www.w3.org/Graphics/SVG/1.1/DTD/svg11.dtd">
<svg version="1.1" id="Layer_1" xmlns="http://www.w3.org/2000/svg" xmlns:xlink="http://www.w3.org/1999/xlink" x="0px" y="0px"
	 width="246.26px" height="310.112px" viewBox="26.874 -5.101 246.26 310.112"
	 enable-background="new 26.874 -5.101 246.26 310.112" xml:space="preserve">
<path fill="none" stroke="#000000" stroke-width="10" d="M49.396,299.541c-16.82-3.041-22.62-24.291-12.592-37.021
	c13.308-19.688,41.775-32.961,64.08-20.537c0.444-69.33,0.188-138.665,0.256-207.997C156.753,22.765,212.49,12.122,268.125,1
	c-0.119,77.704-0.24,155.408-0.361,233.113c-8.715,23.502-36.879,39.799-61.4,32.512c-14.602-4.371-18.102-23.215-9.971-34.762
	c11.133-17.225,31.854-29.05,52.686-25.824c5.945-0.601,14.699,9.023,12.186-1.863c0-54.467,0-108.933,0-163.399
	C210.212,51.053,159.06,60.842,107.984,71.008c-0.174,63.382,0.434,126.775-0.455,190.15c-1.625,19.25-20.103,32.383-37.351,37.514
	C63.362,299.82,56.267,300.533,49.396,299.541L49.396,299.541z M182.57,41.131c26.23-5.162,52.475-10.262,78.691-15.481
	c3.338-13.293-11.596-4.66-18.898-4.336c-44.787,8.841-89.602,17.552-134.381,26.427c-3.336,13.293,11.597,4.66,18.898,4.336
	C145.443,48.419,164.005,44.773,182.57,41.131L182.57,41.131z"/>
</svg>
