<?xml version="1.0" encoding="utf-8"?>
<!-- Generator: Adobe Illustrator 16.0.0, SVG Export Plug-In . SVG Version: 6.00 Build 0)  -->
<!DOCTYPE svg PUBLIC "-//W3C//DTD SVG 1.1//EN" "http://www.w3.org/Graphics/SVG/1.1/DTD/svg11.dtd">
<svg version="1.1" id="Layer_1" xmlns="http://www.w3.org/2000/svg" xmlns:xlink="http://www.w3.org/1999/xlink" x="0px" y="0px"
	 width="100px" height="100px" viewBox="0 0 100 100" enable-background="new 0 0 100 100" xml:space="preserve">
<g>
	<path d="M70.4,1.788c-0.197,0-0.394,0-0.59,0c-0.022,0.029,0.518,0.259,0.785,0.294C70.51,1.952,70.469,1.95,70.4,1.788z"/>
	<path d="M78.055,14.347c0-0.081,0-0.163,0-0.246c0.239,0.117,0.178,0.228,0.491,0.293c0.052,0.051,0.099,0.099,0.147,0.147
		c0.041-1.306-0.685-2.427-1.131-3.777c-0.474-1.43-0.377-4.336-1.274-5.691c-0.325-0.311-0.651-0.621-0.979-0.931
		c-0.266-0.31-0.338-0.654-0.836-0.737c0.02,0.064,0.035,0.131,0.051,0.196c-0.229-0.163-0.457-0.327-0.687-0.49
		c-0.565-0.219-1.2-0.182-1.569-0.246c-0.586-0.099-1.097-0.498-1.572-0.686c-0.02-0.112-1.231,0.341-1.372-0.099
		c-1.034,0.87-4.154,2.431-3.777,4.318c-0.552,0.417-1.293,0.723-1.864,1.128c0.039,0.273,0.211,0.415,0.246,0.589
		c0.166,0.891-0.425,1.695-0.102,2.501c-0.07,0.342-0.354,0.564-0.537,0.834c0.048,0.163,0.096,0.328,0.146,0.49
		c0.461,0.776,1.922,0.591,2.846,0.932c0.437,0.217,0.393,0.717,0.539,1.226c0.443,1.526,0.68,3.519-0.881,4.221
		c-0.506,0.169-1.471-0.233-2.063-0.345c-0.872-0.164-1.647,0.194-2.503,0.05c-1.124-0.187-2.063-0.627-2.992-0.982
		c-0.867-0.325-1.732-0.654-2.599-0.98c-1.197-0.371-2.327-0.386-3.188-1.031c-0.492-0.67-0.984-1.34-1.473-2.011
		c-2.305-2.801-3.607-6.743-6.331-9.125c-0.604,0.15-5.334,0.899-5.74,0.736c-0.521-0.212-1.019-0.803-1.567-1.081
		c-0.15,0.049-0.297,0.099-0.444,0.147c0,0.049,0,0.099,0,0.147c0.083,0.066,0.166,0.131,0.246,0.197
		C37.186,4.15,37.129,4.16,36.94,4.188c-0.093,0.485,0.319,0.348,0.441,0.687c0.194,0.529,1.124,1.593,1.963,1.521
		c0.476-0.034,0.952-0.065,1.424-0.098c0.709,0.209,0.651,0.275,1.52,0.048c0.664-0.172,1.817-0.328,2.308,0.049
		c0.626,0.48,0.849,1.925,1.178,2.699c1.005,2.382,1.73,5.041,2.991,7.212c0.98,1.682,2.656,2.343,4.463,3.189
		c2.649,1.237,5.146,2.698,8.291,3.581c-0.324,0.851-0.653,1.702-0.979,2.551c0.079-0.034,0.165-0.066,0.245-0.098
		c-0.868,0.786-1.733,1.571-2.599,2.355c-0.709,0.355-1.722,0-2.555,0.146c-2.617,0.463-6.74,0.372-9.221,0
		c-0.881-0.13-3.292-0.56-3.828-0.343c-0.46,0.186-0.625,0.637-0.983,0.883c-0.415,0.286-0.645,0.214-0.881,0.688
		c0.032,0.147,0.064,0.294,0.099,0.441c0.194,0.099,0.389,0.196,0.587,0.294c-0.582,0.731-1.258,1.717-2.306,1.963
		c-0.753,0.174-1.81-0.233-2.209,0.147c-0.22,0.068-0.175,0.025-0.242,0.246c0.153,0.174,0.361,0.185,0.587,0.293
		c-0.115,0.05-0.23,0.099-0.345,0.147c-0.015,0.083-0.031,0.163-0.047,0.246c0.016,0.031,0.032,0.065,0.047,0.097
		c2.047,0.49,2.851,0.087,4.317-0.784c0.326-0.099,0.658-0.197,0.983-0.295c1.079-0.688,1.159-1.662,2.943-1.962
		c1.035-0.174,2.123,0.421,2.992,0.638c2.397,0.594,4.661,0.881,7.312,1.374c1.012,0.098,2.026,0.196,3.039,0.295
		c0.967-0.508,1.932-1.014,2.896-1.521c0.211,1.359,0.383,2.736,0.884,3.828c0.439,0.766,0.883,1.536,1.325,2.305
		c-0.045,0.269-0.077,0.233-0.198,0.393c0.105,0.293,0.225,0.533,0.198,0.786c-0.097,0.201-0.052,0.107-0.294,0.146
		c-0.09,0.37-0.139,0.747,0.048,1.03c-0.495,0.369-3.924-0.753-4.467-1.03c-2.034-1.047-4.345-1.472-6.621-2.306
		c-1.941-0.712-3.904-1.604-6.28-1.962c-0.507,0.048-1.015,0.098-1.519,0.147c-0.524,0.44-1.047,0.883-1.571,1.325
		c-0.948,0.506-1.9,1.014-2.848,1.52c-1.951,1.031-4.179,1.743-6.328,2.602c-1.047,0.424-2.094,0.849-3.139,1.273
		c-1.903,0.449-3.802,0.426-5.593,0.933c-1.015,0.393-2.027,0.786-3.042,1.178c-0.754,0.23-1.504,0.457-2.257,0.687
		c-0.233,0.187-0.201,0.58-0.344,0.736c-0.205,0.314-0.786,0.316-1.127,0.49c-0.016,0.034-0.032,0.067-0.048,0.099
		c0,0-0.39,1.634-0.393,1.717c0.08,0.064,0.163,0.131,0.246,0.195c0.297,0.2,0.715,0.026,0.98-0.096
		c0.523,0.357,1.098,0.739,1.669,1.028c1.168-0.048,3.049-1.048,4.119-1.42c0.795-0.278,1.673,0.144,2.308,0.244
		c1.475,0.235,2.289-1.241,2.551-2.307c2.551-0.194,5.102-0.391,7.652-0.587c1.753-0.297,3.33-0.172,4.709-0.738
		c1.089-0.443,3.981-3.078,4.808-2.892c2.071,0.459,3.428,2.568,4.906,3.727c2.335,1.834,5.097,3.029,7.752,4.612
		c1.097,0.655,2.353,1.745,3.729,2.012c0.063,0.623,0.131,1.243,0.193,1.865c0.45,2.005,1.006,3.835,1.377,5.985
		c0.407,2.402,0.066,4.295,0.491,6.527c0.134,0.725,0.536,1.18,0.733,1.717c-0.016,0.193-0.031,0.39-0.047,0.588
		c0.11,0.605,0.226,1.209,0.342,1.815c0.223,1.019,0.632,2.162,0.884,3.337c0.383,1.805-0.108,3.563-0.146,5.348
		c-0.078,3.447,0.487,6.857-0.199,9.91c-0.262,0.733-0.522,1.472-0.785,2.207c-0.583,1.885-0.612,6.346-1.86,7.357
		c-0.405,0.329-0.938,0.111-1.425,0.297c-0.217,0.105-0.223,0.204-0.344,0.393c0.035,0.422,0.255,0.662,0.293,0.881
		c1.795,0.014,4.111,0.209,5.252-0.439c0,0.115,0,0.23,0,0.346c0.277-0.02,0.556-0.035,0.834-0.052
		c0.154-1.075,0.476-3.62,1.078-4.661c0.332-0.572,1.006-0.879,1.179-1.666c0.36-1.671-1.245-2.479-0.983-4.074
		c0.713-4.299,2.127-7.914,2.846-12.313c-0.029-0.733-0.064-1.472-0.098-2.206c-0.078-0.885-0.162-1.77-0.244-2.65
		c-0.293-1.424-0.588-2.847-0.881-4.268c-0.281-1.619,0.254-3.391,0.487-4.761c0.463-2.728,0.319-5.315,0.836-7.851
		c0.64-3.15,2.207-4.837,2.746-8.095c0.431-2.599-0.463-5.063-0.933-6.968c-0.563-2.292-0.729-4.864-1.127-7.114
		c-0.338-1.895,0.494-2.715,0.881-3.974c0.477-1.543,0.604-3.711,0.832-5.348c0.018,0,0.035,0,0.053,0
		c0.152,0.477-0.003,1.276-0.053,1.815c0.018,0,0.035,0,0.053,0c0.117-0.347,0.045-0.495,0.393-0.492
		c-0.035-0.179-0.066-0.357-0.099-0.54c0.179,0.101,0.108,0.003,0.147,0.246c0.016,0,0.03,0,0.051,0
		c0.277-0.572,0.285-1.462,0.294-2.109c0.229,0.141,0.274,1.062,0.293,1.375c0.017,0,0.032,0,0.052,0
		c0.098-0.134,0.035-0.027,0.048-0.246c0.015,0,0.031,0,0.048,0c0.084,0.246,0.162,0.491,0.245,0.734c0-0.262,0-0.522,0-0.784
		c0.017-0.065,0.032-0.129,0.05-0.196c0.148,0.075,0.265,0.428,0.442,0.589c0,0.032,0,0.065,0,0.097c0.017,0,0.032,0,0.048,0
		c-0.016-0.393-0.031-0.784-0.048-1.178c0.063,0,0.13,0,0.194,0c0.025,0.259-0.061,0.351,0.049,0.589c0,0.033,0,0.065,0,0.099
		c0.05,0,0.1,0,0.146,0c-0.064-0.33-0.123-0.688,0.148-0.833c-0.066-0.018-0.13-0.034-0.197-0.049c0-0.572,0.079-0.687,0-1.277
		c0.016,0,0.032,0,0.049,0c0.168,0.186,0.223,0.636,0.051,0.738c0.039,0.274,0.328,0.459,0.393,0.932c0-0.851,0-1.701,0-2.551
		c0-0.599,0.156-0.539,0.146-0.884c0.194,0.096,0.24,0.27,0.295,0.492c0.13-0.032,0.261-0.067,0.392-0.099
		c0.017,0.067,0.032,0.131,0.048,0.198c0.035,0.014,0.067,0.032,0.1,0.048c0.039-0.175,0.035-0.14,0.1-0.246
		C78.549,17.783,78.512,16.097,78.055,14.347z M63.582,11.257c0-0.05,0-0.099,0-0.147c0.048,0,0.1,0,0.146,0
		C63.662,11.203,63.686,11.19,63.582,11.257z M40.914,29.212c-0.016-0.032-0.032-0.064-0.048-0.096
		C40.956,29.18,40.895,29.168,40.914,29.212z M46.853,34.56c-0.313-0.018-0.591-0.108-0.737-0.293
		c0.246,0.033,0.491,0.067,0.737,0.099C46.853,34.431,46.853,34.496,46.853,34.56z M65.006,98.441
		c-0.096-0.129-0.048-0.047-0.052-0.197c0.032,0.066,0.067,0.131,0.101,0.197C65.038,98.441,65.021,98.441,65.006,98.441z
		 M74.57,3.553c0.031,0,0.066,0,0.1,0c0.1,0.165,0.195,0.329,0.294,0.492C74.833,3.882,74.702,3.718,74.57,3.553z M75.65,19.842
		c-0.032-0.063-0.063-0.13-0.1-0.195C75.652,19.743,75.605,19.663,75.65,19.842z M75.701,21.56c-0.051,0-0.1,0-0.149,0
		c0.019-0.293,0.035-0.589,0.05-0.883c0.035,0,0.064,0,0.101,0C75.701,20.97,75.701,21.266,75.701,21.56z M75.602,20.58
		c0-0.067,0-0.131,0-0.198c0.101,0.096,0.056,0.018,0.101,0.198C75.666,20.58,75.637,20.58,75.602,20.58z M75.701,20.284
		c-0.182-0.101-0.108-0.001-0.149-0.246c0.05,0,0.099,0,0.149,0C75.701,20.121,75.701,20.203,75.701,20.284z M77.467,19.009
		c0.047,0,0.096,0,0.146,0c-0.032,0.065-0.064,0.131-0.1,0.194c-0.016,0-0.031,0-0.048,0C77.467,19.14,77.467,19.074,77.467,19.009z
		 M76.779,8.361c-0.034,0.144-0.079,0.132-0.146,0C76.682,8.361,76.729,8.361,76.779,8.361z M76.436,7.822
		c-0.031,0.144-0.082,0.132-0.146,0C76.339,7.822,76.389,7.822,76.436,7.822z M75.896,7.381c-0.018,0.047-0.033,0.097-0.049,0.146
		c-0.035-0.049-0.068-0.099-0.1-0.146C75.797,7.381,75.848,7.381,75.896,7.381z M75.749,23.277c0.048,0,0.099,0,0.147,0
		C75.861,23.421,75.814,23.408,75.749,23.277z M75.947,7.97c-0.051,0-0.1,0-0.15,0c0-0.049,0-0.099,0-0.147
		c0.051,0.032,0.1,0.067,0.15,0.099C75.947,7.937,75.947,7.953,75.947,7.97z M76.389,21.46c-0.021,0-0.035,0-0.05,0
		c-0.206-0.277-0.149-1.255-0.146-1.716C76.438,20.065,76.406,20.919,76.389,21.46z M76.534,20.334
		c-0.032-0.198-0.067-0.393-0.099-0.589c0.152,0.126,0.158,0.292,0.149,0.589C76.566,20.334,76.551,20.334,76.534,20.334z
		 M76.682,22.589c-0.033-0.392-0.066-0.784-0.096-1.177c0.048,0.393,0.096,0.785,0.145,1.177
		C76.713,22.589,76.7,22.589,76.682,22.589z M76.534,10.031c0.315,0.144,0.307,0.394,0.687,0.49c0,0.065,0,0.131,0,0.196
		c-0.048,0-0.099,0-0.146,0C76.896,10.487,76.713,10.258,76.534,10.031z M77.025,18.959c0.031,0,0.063,0,0.097,0
		c0.035,0.165,0.065,0.327,0.099,0.49C77.087,19.337,77.061,19.165,77.025,18.959z M77.32,19.842c0,0.016,0,0.034,0,0.051
		c-0.021,0-0.032,0-0.053,0c-0.047-0.115-0.096-0.23-0.146-0.345C77.247,19.639,77.256,19.694,77.32,19.842z M77.27,20.039
		c0.031,0,0.066,0,0.099,0c0.017,0.065,0.034,0.132,0.052,0.196C77.301,20.148,77.332,20.187,77.27,20.039z M77.563,19.745
		c-0.028-0.165-0.063-0.327-0.096-0.49c0.047,0,0.096,0,0.146,0c0.017,0.131,0.035,0.262,0.049,0.393
		C77.63,19.679,77.598,19.711,77.563,19.745z M77.712,17.93c0-0.051,0-0.099,0-0.147c0.101,0.086,0.035-0.001,0.097,0.147
		C77.775,17.93,77.744,17.93,77.712,17.93z M77.907,18.763c0.155,0.112,0.208,0.262,0.245,0.492
		C77.955,19.155,77.938,19.019,77.907,18.763z"/>
	<path d="M75.402,24.896c-0.012,0.23-0.029,0.458-0.047,0.687c0.018,0,0.035,0,0.047,0C75.402,25.354,75.402,25.126,75.402,24.896z"
		/>
</g>
</svg>
