<?xml version="1.0" encoding="utf-8"?>
<!-- Generator: Adobe Illustrator 16.0.0, SVG Export Plug-In . SVG Version: 6.00 Build 0)  -->
<!DOCTYPE svg PUBLIC "-//W3C//DTD SVG 1.1//EN" "http://www.w3.org/Graphics/SVG/1.1/DTD/svg11.dtd">
<svg version="1.1" id="Layer_1" xmlns="http://www.w3.org/2000/svg" xmlns:xlink="http://www.w3.org/1999/xlink" x="0px" y="0px"
	 width="100px" height="100px" viewBox="0 0 100 100" enable-background="new 0 0 100 100" xml:space="preserve">
<path fill="#C71A8B" d="M63.251,25.272C42.988,5.01,19.557-4.41,10.911,4.233c-8.641,8.643,0.78,32.077,21.036,52.339
	c20.264,20.26,43.696,29.681,52.343,21.037C92.932,68.966,83.512,45.533,63.251,25.272z M80.643,73.239
	c-6.584,6.588-24.449-0.591-39.89-16.032C25.308,41.759,18.125,23.901,24.717,17.309c6.586-6.586,24.446,0.593,39.893,16.036
	C80.053,48.792,87.232,66.65,80.643,73.239z"/>
<path fill="#2AACE3" d="M48.519,46.292C28.537,52.479,14.477,64.4,17.116,72.926c2.639,8.521,20.977,10.417,40.957,4.235
	c19.978-6.183,34.038-18.108,31.401-26.631C86.837,42.004,68.5,40.114,48.519,46.292z M85.12,51.482
	c2.254,7.281-9.757,17.473-26.822,22.752C41.229,79.52,25.56,77.9,23.306,70.616c-2.254-7.28,9.758-17.47,26.827-22.751
	C67.203,42.582,82.87,44.203,85.12,51.482z"/>
<path fill="#F47622" d="M49.021,68.699c5.518,13.162,12.638,22.313,15.901,20.439c3.262-1.882,1.43-14.074-4.088-27.236
	c-5.52-13.167-12.641-22.313-15.901-20.437C41.669,43.342,43.505,55.537,49.021,68.699z M45.969,44.338
	c2.784-1.603,8.866,6.209,13.583,17.46c4.714,11.243,6.28,21.661,3.492,23.265c-2.782,1.607-8.864-6.209-13.584-17.457
	C44.748,56.359,43.182,45.942,45.969,44.338z"/>
<path fill="#2E358F" d="M14.925,44.751c-2.224-0.659-4.645,0.119-5.416,1.729c-0.772,1.618,0.406,3.454,2.625,4.113
	c2.218,0.657,4.642-0.118,5.412-1.731C18.318,47.247,17.144,45.404,14.925,44.751z M96.13,59.925
	c-1.302-0.386-2.728,0.068-3.177,1.017c-0.454,0.943,0.234,2.023,1.535,2.408c1.306,0.393,2.722-0.063,3.182-1.017
	C98.118,61.391,97.432,60.311,96.13,59.925z M49.194,5.909c-0.401,0.893-0.212,1.948,0.42,2.365c0.63,0.413,1.463,0.027,1.865-0.864
	c0.406-0.889,0.217-1.945-0.414-2.36C50.434,4.635,49.6,5.021,49.194,5.909z M48.1,95.915c-0.401,0.894-0.216,1.952,0.41,2.365
	c0.636,0.413,1.469,0.026,1.87-0.864c0.401-0.889,0.218-1.943-0.413-2.359C49.335,94.643,48.497,95.027,48.1,95.915z M74.967,88.461
	c-0.229,0.509-0.124,1.121,0.233,1.354c0.37,0.242,0.848,0.02,1.075-0.494c0.232-0.512,0.129-1.114-0.233-1.357
	C75.682,87.721,75.2,87.941,74.967,88.461z M57.049,37.555c-0.229,0.511-0.119,1.122,0.239,1.358
	c0.364,0.239,0.847,0.018,1.075-0.493c0.229-0.518,0.129-1.122-0.238-1.364C57.764,36.821,57.277,37.042,57.049,37.555z
	 M18.75,83.216c-0.229,0.513-0.119,1.121,0.238,1.357c0.365,0.239,0.847,0.017,1.076-0.494c0.232-0.519,0.128-1.121-0.238-1.364
	C19.464,82.479,18.983,82.702,18.75,83.216z"/>
<path fill="#FFCB0A" d="M27.966,41.77C6.688,62.374-3.426,86.43,5.363,95.51c8.789,9.07,33.157-0.277,54.426-20.878
	C81.063,54.03,91.18,29.972,82.391,20.898C73.604,11.824,49.234,21.172,27.966,41.77z M77.507,24.886
	c7.507,7.755-1.134,28.308-19.307,45.905c-18.171,17.604-38.992,25.59-46.504,17.837c-7.507-7.752,1.136-28.305,19.311-45.907
	C49.181,25.119,69.999,17.135,77.507,24.886z"/>
</svg>
