<?xml version="1.0" encoding="UTF-8" standalone="no"?>
<!-- Created with Inkscape (http://www.inkscape.org/) -->
<svg
   xmlns:svg="http://www.w3.org/2000/svg"
   xmlns="http://www.w3.org/2000/svg"
   version="1.0"
   width="504.66989"
   height="871.8642"
   id="svg7037">
  <defs
     id="defs7039" />
  <g
     transform="translate(208.84546,-67.428406)"
     id="layer1">
    <path
       d="M 179.15283,931.05189 C 174.34624,926.6867 170.41358,922.26411 170.41358,921.22392 C 170.41358,920.18373 168.72526,917.45368 166.66176,915.15718 C 162.59398,910.63007 160.92636,908.28799 156.91317,901.46595 C 155.47513,899.02143 151.49866,893.14788 148.07658,888.41364 C 144.65449,883.6794 140.79907,877.67921 139.50899,875.07989 C 138.21889,872.48057 136.08388,869.03161 134.76449,867.41554 C 131.50607,863.42439 133.27132,858.7409 137.79712,859.36943 C 139.55749,859.61391 142.50308,860.91606 144.34288,862.2631 C 146.40846,863.77544 148.17398,864.25987 148.95856,863.52959 C 149.65738,862.87913 150.27486,856.71968 150.33073,849.84195 C 150.4521,834.90035 147.57845,825.93094 134.72917,801.14535 C 130.20315,792.41492 125.56887,782.98605 124.43075,780.19231 C 123.29262,777.39858 121.20145,772.69037 119.78369,769.72964 C 118.36592,766.7689 117.20594,763.76106 117.20594,763.04553 C 117.20594,762.33 116.60165,760.7523 115.86308,759.53952 C 114.17787,756.77229 110.32085,746.71503 102.84224,725.58743 C 94.600771,702.30469 92.498018,695.10184 91.769415,687.65806 C 90.237567,672.00801 86.85206,655.44626 84.387155,651.54428 C 82.928024,649.23444 81.734181,646.76918 81.734181,646.06591 C 81.734181,644.82578 79.764066,640.61786 71.104426,623.36202 C 68.826157,618.82219 65.941143,611.39339 64.693288,606.85356 C 63.445418,602.31374 61.857648,597.60706 61.164925,596.39428 C 60.472189,595.18149 59.905405,592.23815 59.905405,589.8535 C 59.905405,587.46886 58.376572,582.46094 56.507988,578.72481 C 54.639404,574.98867 53.104568,570.96553 53.097241,569.78449 C 53.078701,566.79687 51.717745,566.26286 42.122688,565.47831 C 37.501154,565.10044 32.204456,564.25496 30.352257,563.5995 C 24.125613,561.39596 23.316979,562.01117 22.32115,569.70954 C 20.707076,582.18727 9.7551973,619.25476 4.0303416,631.61624 C -3.4828093,647.83909 -5.7701513,651.26756 -14.721587,659.72328 C -19.996019,664.70563 -27.689135,672.72243 -31.817406,677.53836 C -35.945664,682.35431 -41.400757,688.00268 -43.93984,690.0903 C -46.478908,692.17792 -51.932964,697.57618 -56.059967,702.08644 C -60.18697,706.59672 -65.098441,711.44051 -66.974351,712.85044 C -73.520706,717.77064 -86.07453,730.36399 -86.07453,732.01073 C -86.07453,732.92361 -87.175737,733.99584 -88.521645,734.39345 C -89.867567,734.79106 -93.204832,736.97249 -95.937794,739.24107 C -101.48348,743.84444 -106.19555,747.33742 -109.2676,749.12225 C -110.39315,749.77619 -110.77843,750.31998 -110.12378,750.33067 C -107.43669,750.37457 -112.56666,754.15975 -115.31325,754.15975 C -116.95386,754.15975 -119.48791,754.97468 -120.94446,755.97071 C -123.55498,757.75583 -123.55384,757.77846 -120.86414,757.55806 C -119.36341,757.43507 -117.74609,756.83622 -117.2701,756.22727 C -116.79411,755.61831 -115.76974,755.33259 -114.99373,755.59233 C -114.21772,755.85206 -115.07606,757.77892 -116.90118,759.87422 C -119.13558,762.43938 -120.55052,763.20068 -121.23265,762.20476 C -121.97645,761.11879 -122.96867,761.24857 -124.96567,762.69308 C -127.08397,764.22529 -127.16717,764.4945 -125.3418,763.91017 C -120.69504,762.42262 -121.60141,765.56167 -127.64861,771.89928 C -131.03885,775.45233 -134.85751,779.91468 -136.1345,781.81562 C -142.47288,791.25081 -155.57645,798.3411 -160.89031,795.21089 C -163.4115,793.72575 -163.58513,787.77088 -161.2912,781.4622 C -159.56949,776.7272 -156.70316,767.02539 -156.07963,763.82233 C -155.64063,761.56719 -152.31692,755.0424 -147.92317,747.81035 C -146.86236,746.06426 -142.87887,738.79386 -139.07098,731.65391 C -131.29817,717.07959 -128.36778,713.67564 -128.36778,719.22102 C -128.36778,721.12879 -127.02447,723.98881 -125.38263,725.57661 C -122.95799,727.92147 -121.73372,728.24815 -118.86236,727.31646 C -114.88132,726.02472 -105.30831,713.24576 -102.34633,705.26934 C -101.30889,702.4756 -98.119553,695.90397 -95.258906,690.66571 C -92.398258,685.42745 -88.518043,677.4272 -86.636185,672.88737 C -84.754326,668.34755 -81.503216,662.91881 -79.411487,660.8235 C -77.319759,658.7282 -72.65424,653.44232 -69.043651,649.0771 C -65.433062,644.71189 -62.096275,641.14035 -61.62858,641.14035 C -61.160871,641.14035 -56.111865,636.99736 -50.408566,631.93371 C -36.976733,620.00834 -36.382172,618.27647 -37.491374,594.30855 C -38.915197,563.54224 -40.506241,545.60169 -42.386054,539.11618 L -44.168087,532.96804 L -49.772953,533.68554 C -52.855626,534.08015 -63.816396,534.78373 -74.130233,535.24901 L -92.882639,536.09501 L -101.66373,532.07126 C -108.57352,528.90501 -111.99114,526.22867 -117.70093,519.51253 L -124.95704,510.97755 L -125.66932,498.67399 C -126.06108,491.90702 -126.675,486.10341 -127.03362,485.77705 C -127.39223,485.45071 -129.73657,484.88595 -132.24328,484.52204 C -134.74999,484.15813 -137.81966,483.02912 -139.06477,482.01313 C -140.30988,480.99713 -142.86346,479.73638 -144.73937,479.21146 C -146.61528,478.68653 -151.1812,476.90461 -154.88586,475.25162 C -158.59053,473.59863 -162.3206,472.24618 -163.17491,472.24618 C -165.75602,472.24618 -170.0141,467.075 -176.24556,456.37267 C -179.49888,450.78519 -183.56385,444.27667 -185.2788,441.9093 C -186.99376,439.54192 -188.39089,437.25613 -188.38351,436.82977 C -188.37614,436.40341 -183.66002,435.90626 -177.90325,435.72499 C -170.96438,435.5065 -166.67903,434.75745 -165.18946,433.5027 C -163.95365,432.46171 -160.82648,431.60999 -158.24019,431.60999 C -155.65389,431.60999 -149.86986,429.91358 -145.38678,427.8402 C -140.90369,425.76681 -136.56248,424.05247 -135.73963,424.03055 C -134.91678,424.00863 -132.07641,422.03167 -129.42769,419.6373 C -125.17228,415.7905 -119.4378,413.48638 -109.95507,411.81318 C -104.94959,410.92999 -98.369002,406.94145 -98.704469,404.99412 C -98.90895,403.80716 -96.1078,401.61112 -91.372306,399.24587 C -87.157633,397.14075 -81.325257,393.53211 -78.41147,391.22668 C -59.643011,376.37671 -54.627863,372.86476 -47.74802,369.75409 C -40.964168,366.6868 -40.230721,365.99638 -41.574351,363.94257 C -42.786366,362.08992 -42.609403,361.2734 -40.711609,359.96184 C -39.398472,359.05435 -38.324087,357.76567 -38.324087,357.09815 C -38.324087,356.43061 -36.175317,354.11373 -33.549042,351.94951 C -27.210348,346.72603 -27.334281,342.76919 -34.231191,330.16999 C -37.232648,324.68698 -39.688385,319.0151 -39.688385,317.56585 C -39.688385,316.11659 -40.284843,314.58772 -41.013842,314.16835 C -42.739748,313.17549 -47.899716,302.31007 -47.50014,300.51004 C -47.330681,299.74667 -52.567786,296.17212 -59.138139,292.56662 C -68.048641,287.67696 -72.481983,284.26743 -76.584743,279.14903 C -79.61002,275.37487 -82.983835,271.81884 -84.082136,271.24674 C -86.161163,270.16377 -95.62462,257.08382 -95.62462,255.29324 C -95.62462,254.73011 -97.172907,252.91549 -99.065258,251.26076 C -100.95761,249.60601 -102.96096,246.61755 -103.51713,244.61973 C -104.96548,239.41721 -102.20808,220.00478 -99.717515,217.86987 C -98.591969,216.90506 -93.987461,215.09831 -89.485276,213.85488 C -84.983091,212.61145 -80.807847,211.18137 -80.206942,210.67692 C -79.60605,210.17246 -82.487244,208.11604 -86.609594,206.10708 C -90.731945,204.09813 -94.744661,201.14722 -95.526759,199.54952 C -96.308843,197.95182 -98.492607,195.98985 -100.37957,195.1896 C -102.26653,194.38933 -103.81041,193.34531 -103.81041,192.86954 C -103.81041,192.39376 -106.11266,191.33815 -108.92653,190.52371 C -112.60783,189.45822 -115.76442,186.97406 -120.18199,181.66596 C -125.18048,175.65983 -127.38202,174.05669 -132.02925,173.03899 C -135.86156,172.19972 -137.65478,172.21171 -137.48644,173.07544 C -137.34855,173.78301 -138.77056,174.44477 -140.64647,174.54604 C -142.52238,174.6473 -145.78573,175.38357 -147.89836,176.18216 C -150.52383,177.17462 -152.54643,177.2322 -154.28909,176.36409 C -158.02002,174.50555 -160.75387,174.66447 -158.65521,176.61789 C -156.45823,178.66283 -156.5771,185.47624 -158.86048,188.38284 C -160.0743,189.92795 -161.70349,190.4846 -163.63553,190.01432 C -165.24847,189.62171 -166.61802,189.67558 -166.67898,190.13402 C -166.73993,190.59246 -167.1012,192.68189 -167.48178,194.77719 C -168.64849,201.20044 -168.64054,214.9081 -167.46807,218.42872 C -166.46485,221.44115 -166.70199,221.76216 -169.93063,221.76216 C -174.52485,221.76216 -175.57431,222.80414 -173.417,225.22364 C -171.99337,226.8203 -172.07262,227.15915 -173.8697,227.15915 C -177.22697,227.15915 -180.63077,219.8991 -179.72074,214.67932 C -178.96303,210.33319 -178.99966,210.28868 -181.07009,213.04007 C -182.51515,214.96041 -182.87452,216.96706 -182.18962,219.2914 C -180.4577,225.16901 -180.57835,227.37003 -182.67352,228.11838 C -188.33967,230.14221 -189.09804,219.2625 -184.05854,208.24867 C -179.82824,199.00333 -182.3653,200.88797 -187.53094,210.82812 C -190.40473,216.35811 -191.80244,220.42034 -190.99183,220.88665 C -190.1761,221.35591 -190.48986,222.33152 -191.77605,223.32509 C -195.1013,225.89381 -195.83361,223.90408 -193.98779,217.31571 C -193.05862,213.99917 -192.2099,210.28561 -192.10175,209.06335 C -191.9936,207.84109 -191.5145,206.84106 -191.03709,206.84106 C -190.55969,206.84106 -188.22229,203.92606 -185.84287,200.36329 L -181.51668,193.88552 L -187.21659,198.08752 C -190.35155,200.39861 -194.10902,204.17078 -195.56652,206.4701 C -197.02402,208.76944 -198.76157,210.6507 -199.42776,210.6507 C -201.26651,210.6507 -204.3382,218.36058 -205.42216,225.69651 C -206.4082,232.36967 -208.87456,233.59828 -208.8452,227.40168 C -208.76314,210.08381 -190.48151,190.27869 -170.4905,185.85069 C -167.86866,185.26995 -166.90922,184.2489 -166.90922,182.03947 C -166.90922,175.12365 -152.3965,165.6656 -139.28646,164.03751 C -135.90746,163.61788 -132.76466,162.73831 -132.30245,162.0829 C -130.68526,159.78977 -125.63919,164.12496 -125.63919,167.80744 C -125.63919,171.65605 -124.20079,172.49418 -113.0442,175.14639 C -109.4936,175.99047 -106.88523,177.12786 -107.24782,177.67395 C -107.6104,178.22002 -106.75528,178.38647 -105.34751,178.0438 C -103.93976,177.70115 -100.13404,178.61428 -96.890334,180.07301 C -93.646646,181.53173 -89.856066,182.38944 -88.466828,181.97902 C -87.077576,181.56861 -84.440796,182.14772 -82.607316,183.26592 C -80.773821,184.38414 -76.485354,185.65477 -73.077377,186.08955 L -66.881061,186.88008 L -69.315228,182.8999 C -70.654028,180.71081 -72.373876,178.91612 -73.137133,178.9117 C -75.473426,178.89819 -88.749538,167.44507 -90.885497,163.60044 C -91.991288,161.61007 -92.896023,158.85793 -92.896023,157.48458 C -92.896023,156.11123 -93.446708,154.79711 -94.119771,154.56429 C -94.792821,154.33148 -97.77751,148.83883 -100.75238,142.35838 C -103.72726,135.87795 -108.39501,128.25971 -111.12518,125.42895 C -113.85533,122.59821 -116.0891,119.81841 -116.0891,119.25163 C -116.0891,118.68484 -117.01,117.8922 -118.13554,117.49016 C -119.26109,117.08814 -120.18199,115.88412 -120.18199,114.81454 C -120.18199,113.74497 -121.02842,112.86987 -122.06292,112.86987 C -125.43709,112.86987 -127.48223,106.00401 -125.64855,100.8324 C -124.29602,97.017829 -124.38667,95.756824 -126.19841,93.183106 C -127.39156,91.488157 -128.36778,88.42283 -128.36778,86.371274 C -128.36778,83.360716 -127.57084,82.38259 -124.23644,81.300652 C -121.96422,80.563372 -119.04803,80.275642 -117.75602,80.661279 C -115.95564,81.198655 -115.83931,81.074905 -117.25797,80.131485 C -120.00512,78.304622 -117.22297,77.172307 -108.87623,76.720178 C -104.96448,76.508286 -101.30351,76.269307 -100.74074,76.189127 C -100.17797,76.108934 -99.717515,74.684673 -99.717515,73.024101 C -99.717515,67.986089 -96.685075,66.752565 -86.737416,67.744152 C -80.48695,68.367193 -76.722933,69.490962 -74.108991,71.514441 C -70.612062,74.221446 -62.225924,76.788066 -63.589868,74.733881 C -64.372689,73.554924 -62.032821,71.910542 -56.742117,69.92149 C -53.206469,68.592254 -52.974293,68.620751 -55.036744,70.130741 C -58.126975,72.393199 -58.062744,73.503557 -54.841635,73.503557 C -53.421182,73.503557 -51.905624,74.360727 -51.473701,75.408379 C -51.041791,76.45603 -49.932425,77.3132 -49.008427,77.3132 C -47.701784,77.3132 -47.692275,76.974561 -48.965615,75.789343 C -49.866052,74.951221 -50.602773,73.148321 -50.602773,71.782881 C -50.602773,69.458212 -50.444051,69.433982 -48.107826,71.401917 C -46.338181,72.892592 -43.096922,73.503557 -36.958247,73.503557 C -27.73196,73.503557 -24.880549,74.41189 -6.0639257,83.345135 C 0.18847699,86.313481 6.1142529,88.742129 7.1044608,88.742129 C 8.0946686,88.742129 9.9137697,89.456437 11.146905,90.32948 C 13.193052,91.778135 13.212193,92.63806 11.366038,100.17106 C 10.253439,104.71088 9.1532415,110.22328 8.9211607,112.42084 C 8.4909018,116.49479 10.769731,128.98351 12.362958,131.28314 C 12.846848,131.98158 14.029695,135.12453 14.991498,138.26749 C 17.164102,145.36706 16.873466,144.14843 18.119848,151.38471 C 20.021666,162.42645 30.589059,168.14991 38.448905,162.39522 C 40.356767,160.99836 42.376898,159.85546 42.938088,159.85546 C 43.499265,159.85546 46.066889,158.35855 48.643926,156.52898 C 52.649233,153.68542 53.817032,153.40931 56.688307,154.62701 C 58.53569,155.41047 60.936351,158.03229 62.02311,160.45326 C 63.382565,163.48175 64.637365,164.62702 66.045103,164.12419 C 68.312417,163.31436 68.885736,165.59792 66.726897,166.83981 C 64.475846,168.13476 65.184735,170.01451 67.924151,170.01451 C 69.332994,170.01451 71.24997,169.15734 72.184091,168.10969 C 74.543891,165.46308 76.276987,165.73194 76.276987,168.74463 C 76.276987,170.27569 77.225229,171.32731 78.664509,171.39247 C 79.977646,171.45191 91.795882,171.69709 104.92726,171.9373 C 126.55578,172.33294 129.57278,172.66831 136.98827,175.50111 C 145.41449,178.72 154.68262,179.57972 160.13945,177.64863 C 161.84785,177.04404 163.78403,176.99701 164.44209,177.54412 C 165.10013,178.09121 173.00575,179.25376 182.01012,180.12754 C 203.33959,182.19734 214.12982,185.74581 233.13263,196.93964 C 236.85824,199.13425 240.84175,200.44534 243.36487,200.30737 C 249.37703,199.97858 256.57093,201.74545 260.3002,204.46679 C 262.08971,205.77263 264.54545,206.84818 265.7574,206.85689 C 268.29629,206.87513 279.55747,216.20699 279.55747,218.29267 C 279.55747,219.05962 282.32017,222.22224 285.69681,225.3207 C 289.65112,228.94923 291.83615,232.06007 291.83615,234.06129 C 291.83615,237.52531 293.95144,239.48184 295.02266,237.00864 C 295.43951,236.04625 295.75636,236.295 295.82134,237.63567 C 295.88058,238.85793 295.08332,239.85796 294.04965,239.85796 C 293.01598,239.85796 291.44916,240.6667 290.56782,241.65516 C 287.45643,245.14471 279.27062,241.14316 264.08778,228.71064 C 261.20719,226.35187 258.5434,224.70766 258.16823,225.05685 C 257.79307,225.40605 259.07554,227.86892 261.01815,230.52988 C 271.57006,244.98372 257.44818,242.051 244.89801,227.18216 C 241.34955,222.97811 237.11758,218.87656 235.49364,218.06761 C 233.86969,217.25864 231.44536,215.30027 230.10623,213.71566 C 226.22866,209.12729 219.99476,208.03386 194.77366,207.51832 C 175.90918,207.13271 170.16257,206.59379 166.5054,204.86726 C 162.0335,202.75611 161.6815,202.78864 152.86241,206.12846 C 147.88346,208.01401 141.5492,210.99659 138.78629,212.75642 C 132.92202,216.49166 128.5609,215.90144 127.29346,211.201 C 126.20327,207.15798 125.16803,207.08102 102.19866,209.33549 C 86.336028,210.89241 83.529093,211.40052 71.688196,214.85836 C 64.621989,216.92188 62.027585,218.3194 61.114883,220.55384 C 59.078653,225.53887 59.683365,242.60629 62.045621,246.82313 C 65.015426,252.12453 64.627624,267.81552 61.292951,277.27685 C 60.546202,279.39558 59.395444,283.83547 58.735723,287.14324 L 57.536219,293.15738 L 61.108334,292.42748 C 63.073006,292.02603 68.260164,290.89114 72.63536,289.90551 C 77.010557,288.91987 82.228998,288.10785 84.231898,288.10103 C 86.234797,288.09421 91.132137,286.6766 95.114879,284.95078 C 99.097621,283.22496 102.78123,281.91078 103.30067,282.03039 C 104.65032,282.34116 113.31826,280.35675 115.79687,279.16955 C 120.43911,276.94602 127.72965,274.31335 132.74683,273.04878 C 136.67763,272.05803 141.10591,268.81305 149.80827,260.54641 C 163.01962,247.99653 169.30051,245.19234 180.65032,246.77655 C 185.75036,247.48842 186.9231,248.18159 187.66169,250.9207 C 188.1495,252.72981 187.84488,255.25888 186.98475,256.54085 C 186.12461,257.82283 185.42087,260.62754 185.42087,262.77354 C 185.42087,264.91953 184.91605,266.38495 184.29903,266.03001 C 183.68203,265.67506 179.97071,268.77532 176.05166,272.91947 C 172.13261,277.06361 166.19112,281.94616 162.84836,283.76958 C 159.50559,285.59301 156.7706,287.88776 156.7706,288.86904 C 156.7706,289.9024 155.47883,290.61102 153.70093,290.55295 C 152.01261,290.49781 151.40249,290.16328 152.34513,289.80954 C 153.28776,289.45582 153.7148,288.64801 153.29411,288.01443 C 151.18692,284.84087 133.57752,298.41894 133.57752,303.21728 C 133.57752,303.98982 132.50314,304.70893 131.19,304.81531 C 129.87686,304.9217 128.07839,305.07185 127.1934,305.14898 C 126.3084,305.22611 125.1317,305.71052 124.57849,306.22544 C 124.02529,306.74036 122.60061,307.16445 121.41252,307.16785 C 120.22445,307.17127 115.07107,309.17133 109.96056,311.61244 C 104.85006,314.05355 99.525233,316.05082 98.127632,316.05082 C 96.730018,316.05082 93.762464,317.47944 91.533077,319.22552 C 89.303677,320.97161 86.530113,322.40023 85.369572,322.40023 C 84.209046,322.40023 82.889946,322.95683 82.438241,323.63712 C 81.986535,324.3174 78.708849,325.67785 75.154483,326.66033 C 67.62114,328.74267 57.830402,334.5403 59.867859,335.71238 C 60.638879,336.15592 61.269703,339.21182 61.269703,342.50328 C 61.269703,350.10955 65.568963,364.6798 68.663178,367.55987 C 69.996125,368.80057 70.729558,370.83971 70.340706,372.22382 C 69.840977,374.00253 72.077171,376.99889 78.420559,383.05031 C 83.244514,387.65225 87.191375,391.68736 87.191375,392.01725 C 87.191375,392.34714 89.348972,395.06788 91.986038,398.06337 C 94.623104,401.05884 99.161211,407.41987 102.07073,412.19898 C 104.98023,416.9781 109.2375,422.75832 111.53131,425.04392 C 113.82511,427.32951 116.08165,430.31334 116.54584,431.67465 C 117.01003,433.03595 117.99689,434.14975 118.73889,434.14975 C 119.48088,434.14975 121.36633,436.8397 122.92878,440.12744 C 126.09828,446.79672 134.41958,458.39056 137.10602,459.88017 C 138.06593,460.41243 139.71397,462.41249 140.76835,464.32475 C 153.75648,487.8807 159.88037,496.48887 170.19793,505.69308 C 173.45597,508.59953 178.26512,512.90142 180.88494,515.25282 C 183.96377,518.0162 185.18004,519.96389 184.32427,520.76043 C 183.59609,521.43822 176.63817,523.01565 168.86223,524.26581 C 161.08628,525.51599 153.18931,527.21926 151.3134,528.05087 C 147.19373,529.87716 139.03472,541.90771 139.03472,546.15592 C 139.03472,548.72344 138.33374,549.22601 134.60075,549.33484 C 132.16206,549.40593 126.85707,551.01833 122.81187,552.91796 L 115.45697,556.37182 L 116.32591,567.32654 C 116.80384,573.35163 118.13788,581.13847 119.29044,584.63065 C 122.28831,593.714 125.37984,612.51378 125.38625,621.69972 C 125.38926,626.02371 126.00567,629.9147 126.75603,630.34636 C 127.5064,630.77802 128.12033,632.16176 128.12033,633.42135 C 128.12033,634.68093 129.99463,639.9331 132.28545,645.0928 C 134.57627,650.25252 137.97762,658.69762 139.84401,663.85971 C 141.71038,669.02179 143.93827,674.45053 144.79485,675.92358 C 145.65144,677.39662 146.5106,679.92988 146.70409,681.55305 C 147.09079,684.79704 152.17973,701.23726 154.04528,705.26934 C 154.69158,706.66621 155.51587,709.52344 155.87705,711.61874 C 156.23822,713.71405 157.55759,721.14285 158.809,728.12719 C 160.0604,735.11154 161.30191,744.48708 161.56789,748.96175 C 162.64382,767.0614 165.26278,795.49904 165.94896,796.53288 C 167.48542,798.84783 167.37817,819.55702 165.82487,820.49159 C 164.84529,821.08097 165.17117,821.43171 166.70976,821.444 C 168.71173,821.45998 168.88832,821.91034 167.70181,823.97396 C 166.64969,825.80381 166.72565,827.181 167.98198,829.05349 C 168.92999,830.46644 170.03837,831.62249 170.44504,831.62249 C 170.85173,831.62249 171.32364,834.05114 171.49375,837.01949 C 171.89207,843.96955 172.27097,845.82963 173.73242,848.00969 C 174.55119,849.23106 174.43159,849.50764 173.35298,848.88715 C 172.41457,848.34732 171.77788,848.79744 171.77788,850.00068 C 171.77788,851.11147 172.6128,852.31852 173.63326,852.683 C 174.8971,853.13442 175.41999,855.35978 175.27328,859.66294 C 175.11575,864.28409 175.70785,866.52764 177.47863,868.01926 C 178.81001,869.14076 179.58603,870.53019 179.20313,871.10686 C 178.82023,871.68354 179.09006,873.17865 179.80277,874.42932 C 183.47797,880.87869 188.89026,893.99614 190.9411,901.42465 C 191.80252,904.5449 193.57391,909.40219 194.87754,912.21864 C 199.51385,922.23532 200.4658,925.92617 198.8736,927.71188 C 198.05075,928.63473 197.68907,930.49877 198.06988,931.85417 C 198.45068,933.20958 197.88085,935.48983 196.80359,936.92138 C 193.49322,941.32053 188.70745,939.7291 179.15283,931.05189 z M 194.2735,930.65015 C 193.93796,930.14482 191.94605,929.41166 189.84702,929.0209 C 184.69878,928.06252 179.14608,923.80955 174.93356,917.59831 C 173.01654,914.77172 170.88671,911.8428 170.20059,911.08961 C 169.51447,910.33642 167.1015,906.93982 164.83845,903.54161 C 162.57537,900.1434 160.40299,897.66165 160.01089,898.0266 C 158.91851,899.04339 162.88255,905.51468 168.2839,911.53227 C 170.95596,914.50917 173.14218,917.43946 173.14218,918.04403 C 173.14218,918.64859 176.19964,922.03439 179.93654,925.56802 C 183.67343,929.10165 186.69767,932.3879 186.65707,932.87079 C 186.61647,933.35366 187.70306,934.1413 189.07173,934.62109 C 191.57709,935.49935 195.50322,932.50219 194.2735,930.65015 z M 187.77674,900.22555 C 187.66722,898.87239 187.30233,898.02152 186.96585,898.33471 C 186.62938,898.6479 185.53016,898.26769 184.52317,897.4898 C 182.01751,895.55421 182.20152,897.38093 184.75126,899.75421 C 185.8837,900.80828 186.40278,902.28437 185.90476,903.03441 C 185.38685,903.8144 185.63632,904.03165 186.48756,903.54197 C 187.30611,903.07109 187.88624,901.5787 187.77674,900.22555 z M 165.11192,895.6471 C 163.52565,893.77005 162.22779,892.63243 162.22779,893.11906 C 162.22779,894.37708 166.90169,900.03769 167.49944,899.50362 C 167.77259,899.25959 166.6982,897.52416 165.11192,895.6471 z M 159.49919,895.58859 C 159.49919,894.05084 151.27561,881.42964 149.25829,879.87128 C 147.59857,878.58916 147.22051,878.66544 147.22051,880.28248 C 147.22051,881.37442 147.84612,882.62773 148.61076,883.06759 C 149.37538,883.50746 151.53449,886.68414 153.40878,890.12689 C 156.31281,895.4611 159.49919,898.31856 159.49919,895.58859 z M 179.39053,882.44674 C 178.40085,881.38313 177.25251,879.65574 176.83866,878.60809 C 176.20961,877.01571 176.06853,877.04229 175.97849,878.77008 C 175.91925,879.90681 176.75518,881.52007 177.83613,882.35509 C 178.91708,883.19011 179.4731,884.83156 179.07173,886.00275 C 178.45777,887.79431 178.56793,887.83455 179.76596,886.25638 C 180.78572,884.91304 180.67915,883.83162 179.39053,882.44674 z M 149.42485,872.08314 C 148.21246,870.47201 147.22051,869.67878 147.22051,870.32041 C 147.22051,870.96205 144.99329,869.51772 142.27112,867.1108 C 137.02887,862.47562 136.96558,862.61245 140.97037,869.9232 C 143.60615,874.73481 148.38562,877.81609 150.44807,876.03338 C 151.10057,875.46939 150.64262,873.70143 149.42485,872.08314 z M 161.54564,822.73333 C 162.0094,822.03489 161.73866,821.46345 160.94401,821.46345 C 160.14937,821.46345 159.49919,822.03489 159.49919,822.73333 C 159.49919,823.43176 159.76993,824.00321 160.10082,824.00321 C 160.43172,824.00321 161.08189,823.43176 161.54564,822.73333 z M 151.68797,799.39313 C 156.01696,799.21861 156.13669,801.30061 150.40117,777.01761 C 148.50405,768.98561 146.67639,760.98536 146.33968,759.23928 C 146.00298,757.49319 145.05886,753.77879 144.24164,750.98505 C 143.42443,748.19131 142.59258,744.76264 142.39307,743.36577 C 142.19357,741.9689 140.7424,736.28967 139.16824,730.74526 C 136.33297,720.75907 135.74876,717.661 136.90362,718.73594 C 137.70465,719.48154 143.48285,739.94828 147.98008,757.9694 C 154.91403,785.75493 156.7706,794.04597 156.7706,797.22603 C 156.7706,800.08059 156.99033,800.21518 158.83999,798.49352 C 160.42839,797.01505 160.60617,795.69738 159.60487,792.82442 C 158.88739,790.7658 157.61727,782.79557 156.7824,775.11279 C 154.91672,757.94437 154.32763,753.81134 153.41833,751.51055 C 153.02807,750.52309 152.10958,746.00077 151.37724,741.46094 C 145.66961,706.07905 143.78422,698.69995 133.53197,671.61749 C 121.60235,640.10409 116.67638,624.78862 108.35078,593.32628 C 103.8497,576.31668 102.13976,564.57901 103.92133,562.92074 C 104.64943,562.24304 105.58643,566.67372 106.90124,577.01136 C 107.16773,579.10666 108.05472,582.24962 108.87232,583.99571 C 109.68991,585.74179 111.56543,592.31343 113.04011,598.59934 C 114.51481,604.88525 116.62607,612.31405 117.73182,615.10779 L 119.74228,620.18731 L 119.9521,616.0602 C 120.46664,605.93934 120.27874,603.39194 118.68754,598.91681 C 117.75627,596.29768 116.51277,594.15475 115.92418,594.15475 C 114.46241,594.15475 111.75216,581.08198 111.73373,573.94234 C 111.72547,570.74126 111.34839,566.03787 110.89577,563.49038 C 110.08916,558.95041 109.98801,558.88389 105.79468,560.136 C 103.44168,560.83859 99.981673,561.49429 98.105763,561.59311 C 95.376306,561.7369 94.730229,562.40693 94.871325,564.94749 C 95.133379,569.66608 96.985401,581.96854 97.575269,582.90895 C 97.857501,583.3589 99.318692,589.53693 100.82237,596.63792 C 102.32606,603.7389 104.17176,610.61914 104.92395,611.92733 C 105.67613,613.23554 106.29155,615.26398 106.29155,616.435 C 106.29155,618.62847 113.72686,636.85408 119.24216,648.1799 C 122.26289,654.38304 126.38306,667.13456 127.79662,674.65511 C 128.27357,677.19261 128.00861,678.05251 126.93932,677.43739 C 126.08815,676.94775 125.39173,675.1415 125.39173,673.42352 C 125.39173,669.41211 120.21448,655.83643 114.04872,643.68011 C 108.21977,632.18781 105.11221,624.46153 103.54875,617.57404 C 102.90539,614.73988 101.75163,611.02548 100.98484,609.31981 C 99.537035,606.0993 94.793873,583.11711 93.236581,571.77697 C 91.990499,562.70298 91.484481,562.19852 85.378277,563.94288 C 81.555894,565.03481 80.488112,565.90657 81.146591,567.3977 C 83.209738,572.06966 87.255497,586.64257 89.103753,596.05957 C 91.536679,608.45549 94.415826,618.17526 97.069482,622.95125 C 110.8209,647.70071 109.28849,643.38573 122.92134,695.74523 C 123.73968,698.88819 125.19209,703.17403 126.14893,705.26934 C 128.68469,710.82218 138.77277,746.26791 143.13551,764.95374 C 144.44007,770.54122 146.18321,777.36645 147.00914,780.12091 C 147.83508,782.87538 148.2377,785.38328 147.90384,785.69402 C 146.77479,786.74495 144.18774,779.62966 139.67034,763.04892 C 138.43347,758.5091 137.09159,753.93753 136.68837,752.88987 C 136.28515,751.84222 135.788,749.84216 135.5836,748.44529 C 134.92665,743.95558 129.44231,725.9688 124.57283,712.33372 C 121.96953,705.04417 119.68969,698.18682 119.5065,697.09515 C 119.32332,696.00347 118.76594,694.50352 118.26784,693.7619 C 117.76977,693.02029 116.07502,686.44866 114.50174,679.15827 C 110.07897,658.66364 106.69203,648.14657 101.31422,638.20866 C 90.333832,617.91744 88.913201,614.90487 88.025248,610.02827 C 87.516542,607.23453 86.18751,599.80572 85.071814,593.51981 C 83.956118,587.2339 81.776733,578.23362 80.228732,573.51919 L 77.414171,564.94749 L 71.376822,564.94749 C 66.049605,564.94749 65.489806,565.20888 66.61759,567.16978 C 72.9599,578.1973 74.110508,581.73176 80.569861,610.02827 C 83.273723,621.87314 87.125288,630.52899 95.826306,644.31505 C 97.589567,647.10879 99.401355,650.82319 99.852488,652.56928 C 100.30363,654.31536 101.91602,660.31555 103.43556,665.90303 C 104.9551,671.4905 106.17414,677.77641 106.14452,679.87172 C 106.11048,682.28011 105.21778,680.41179 103.71748,674.79219 C 102.41223,669.90315 100.65633,664.76013 99.815515,663.36327 C 98.974698,661.9664 97.592118,657.99399 96.743101,654.53571 C 95.894098,651.07742 93.409779,645.77966 91.222413,642.76289 C 85.31118,634.61025 80.795966,624.71918 78.517711,614.9318 C 72.684161,589.8708 70.806818,583.77216 66.15426,574.76853 C 60.981263,564.75776 60.47871,564.24398 57.552154,565.97457 C 56.293152,566.71908 56.820903,569.14121 59.692274,575.79671 C 61.788437,580.65537 64.270314,587.90623 65.20756,591.9097 C 66.144806,595.9132 67.737802,600.77049 68.747546,602.70369 C 69.757291,604.63691 70.862304,608.26618 71.203133,610.76875 C 71.801733,615.16406 75.416865,621.73835 78.291919,623.66004 C 79.134715,624.22336 78.87693,624.61671 77.641285,624.65284 C 75.972817,624.70161 76.031891,625.02158 77.961159,626.3852 C 79.262631,627.30508 79.978752,628.38231 79.552531,628.77904 C 79.126311,629.17576 80.02788,632.13123 81.556017,635.34676 C 83.084168,638.5623 84.430267,641.60987 84.547364,642.11917 C 84.664448,642.62847 86.56201,646.05935 88.764152,649.74334 C 90.966293,653.42734 92.397251,656.99994 91.944072,657.68245 C 91.490893,658.36498 92.057445,663.63677 93.203088,669.39756 C 94.348716,675.15835 95.596081,682.92317 95.975001,686.6527 C 96.353921,690.38226 97.660497,695.23955 98.878515,697.44669 C 102.55565,704.10999 106.4838,716.15247 106.13939,719.70632 C 105.66582,724.59303 107.5351,731.01046 111.22307,737.15907 C 113.00774,740.1345 114.73139,743.89112 115.05341,745.50712 C 115.37542,747.12312 115.73013,748.44529 115.84164,748.44529 C 115.95316,748.44529 116.30583,749.75503 116.62535,751.35583 C 117.47018,755.5884 124.89922,769.97677 127.12921,771.69941 C 128.1774,772.50913 129.75011,775.46558 130.62412,778.26932 C 131.49813,781.07305 132.96326,785.75951 133.87997,788.68368 C 136.23057,796.18168 141.36876,801.59465 145.04213,800.44275 C 146.61541,799.94939 149.60605,799.47707 151.68797,799.39313 z M 123.6597,752.5724 C 116.11554,732.58926 110.53384,713.47958 108.9158,702.09464 C 108.27058,697.55481 107.34939,691.55462 106.86869,688.76088 C 106.30674,685.49489 106.46328,684.13475 107.30715,684.95124 C 108.029,685.64968 109.67931,692.22131 110.97449,699.55487 C 114.19564,717.79354 126.01797,757.97926 129.46715,762.41398 C 130.98537,764.36599 132.0789,769.39833 130.98485,769.39833 C 130.44975,769.39833 127.15342,761.82666 123.6597,752.5724 z M 135.47038,715.83199 C 134.92214,715.00633 134.36601,712.8634 134.23452,711.06994 C 134.10304,709.27648 133.52432,705.23759 132.94849,702.09464 C 132.36094,698.88778 132.41891,696.8433 133.08059,697.43557 C 134.09336,698.3421 137.61717,717.33321 136.77262,717.33321 C 136.60462,717.33321 136.01861,716.65767 135.47038,715.83199 z M 131.37287,693.91458 C 130.95778,692.90773 130.85861,691.05053 131.15248,689.78747 C 131.48614,688.35351 131.95312,689.04106 132.39588,691.61812 C 133.13887,695.94271 132.65594,697.02681 131.37287,693.91458 z M 129.02987,684.73959 C 128.52962,684.27398 128.13899,682.98822 128.16182,681.88236 C 128.19588,680.23113 128.46211,680.28599 129.65117,682.18925 C 131.12022,684.54068 130.69432,686.28887 129.02987,684.73959 z M -153.84652,791.42061 C -153.3528,790.96104 -153.64214,789.80747 -154.48953,788.85709 C -156.65434,786.42917 -155.14179,774.85852 -151.85635,768.71417 C -144.89642,755.6978 -142.01077,749.72966 -142.01077,748.35145 C -142.01077,747.52644 -141.19736,746.2231 -140.2032,745.45511 C -137.20657,743.14025 -130.82142,730.3637 -131.42651,727.89317 C -131.82121,726.2817 -133.08133,727.69044 -135.61153,732.57178 C -137.60267,736.41317 -141.64305,743.74705 -144.59015,748.86928 C -150.89848,759.83353 -158.09323,780.28987 -159.06828,790.03389 C -159.28595,792.20927 -155.71318,793.15809 -153.84652,791.42061 z M -128.00604,766.73912 C -128.37561,765.42365 -129.26298,764.68388 -129.97796,765.09518 C -130.69293,765.50648 -130.92876,766.16799 -130.50202,766.5652 C -130.07529,766.96242 -130.79001,768.38162 -132.09033,769.71901 C -134.38246,772.07651 -134.346,772.10461 -130.8943,770.64074 C -128.38658,769.57723 -127.53272,768.42379 -128.00604,766.73912 z M 157.93394,747.24667 C 154.95776,723.64989 152.38035,709.15383 150.8405,707.35119 C 150.02874,706.40092 149.16343,704.11513 148.91759,702.27167 C 148.67175,700.42822 147.61798,696.63415 146.57588,693.84041 C 145.53377,691.04667 144.2356,687.04655 143.69103,684.95124 C 143.14647,682.85594 142.5471,680.57015 142.35912,679.87172 C 142.17112,679.17328 140.4318,675.31335 138.49396,671.2941 C 136.55611,667.27484 135.08053,663.84616 135.21487,663.67482 C 135.34923,663.50346 134.74749,662.22037 133.87768,660.8235 C 131.26404,656.62615 131.95631,659.20562 137.5035,674.33356 C 144.21141,692.62695 150.194,716.30436 152.04692,731.89232 C 153.04781,740.31246 152.97348,739.8708 155.47375,752.25493 C 157.65416,763.05475 159.46325,759.37196 157.93394,747.24667 z M -139.15945,753.52481 C -138.06264,751.52885 -138.36454,751.62695 -140.56944,753.98296 C -142.11253,755.63183 -143.36567,757.63189 -143.35418,758.42755 C -143.3323,759.943 -141.52665,757.83259 -139.15945,753.52481 z M -135.21016,746.14805 C -135.19868,745.583 -135.80321,745.47387 -136.55357,745.90553 C -137.30394,746.33719 -137.90847,747.65667 -137.89699,748.83771 C -137.87898,750.68827 -137.69331,750.72179 -136.55357,749.08023 C -135.82619,748.03258 -135.22165,746.7131 -135.21016,746.14805 z M -98.353217,734.32856 C -98.353217,732.81841 -97.442902,732.43768 -94.909905,732.88837 C -91.373752,733.51757 -89.080994,732.07677 -91.44988,730.71403 C -93.397443,729.59368 -91.606229,726.23877 -88.998236,726.12212 C -87.406945,726.05095 -87.285877,725.82536 -88.580869,725.34449 C -89.605076,724.96418 -92.746182,727.00399 -95.743436,729.99581 C -101.42447,735.66654 -101.86937,736.38142 -99.717515,736.38142 C -98.967151,736.38142 -98.353217,735.45763 -98.353217,734.32856 z M -81.263386,718.84834 C -81.68344,718.45736 -82.784292,718.84753 -83.709751,719.71539 C -85.047118,720.96955 -84.890415,721.11541 -82.946016,720.42627 C -81.600518,719.94939 -80.843332,719.23932 -81.263386,718.84834 z M -78.570888,710.9838 C -78.107136,710.28537 -78.648613,709.71392 -79.774159,709.71392 C -80.899705,709.71392 -82.200032,710.28537 -82.663784,710.9838 C -83.127536,711.68224 -82.58606,712.25368 -81.460514,712.25368 C -80.334967,712.25368 -79.034641,711.68224 -78.570888,710.9838 z M -59.233626,684.36484 C -50.84922,676.30615 -41.934839,667.14116 -39.423903,663.99821 C -32.190283,654.94385 -27.409699,648.09037 -27.409699,646.77456 C -27.409699,646.10706 -26.204546,644.86038 -24.731581,644.00416 C -22.408631,642.65384 -22.169142,642.73965 -22.925768,644.6511 C -23.405537,645.86314 -25.224625,648.6231 -26.968185,650.78432 C -28.711745,652.94556 -30.138296,655.1774 -30.138296,655.74398 C -30.138296,656.31056 -31.673132,658.64714 -33.549042,660.93638 C -35.424953,663.22562 -36.959788,665.62885 -36.959788,666.27691 C -36.959788,666.92495 -42.024747,671.99763 -48.215251,677.54952 C -58.891119,687.12407 -63.542363,691.66569 -73.695732,702.42944 C -78.549646,707.57514 -78.292258,711.37275 -73.38283,707.04638 C -71.734075,705.59344 -67.866698,702.70585 -64.78865,700.62954 C -61.710615,698.5532 -55.878243,692.74756 -51.827818,687.72812 C -47.777407,682.70866 -41.854209,676.05981 -38.665162,672.95289 C -35.476114,669.84597 -32.866893,666.88086 -32.866893,666.36377 C -32.866893,665.84666 -27.454707,658.95983 -20.83981,651.05967 C -14.224914,643.15952 -8.3260963,635.55287 -7.731344,634.156 C -5.533159,628.99324 -2.6391681,617.33006 -0.79922055,606.21862 C 1.1435405,594.48622 5.6692188,571.29317 7.9974351,561.13785 C 8.7179893,557.99489 9.3342702,554.88051 9.3669452,554.217 C 9.3996201,553.55348 10.105072,553.64235 10.934592,554.41446 C 12.036045,555.43969 11.66808,558.88997 9.5702939,567.20698 C 7.9904089,573.47073 6.7006148,580.23923 6.7040937,582.24808 C 6.7075727,584.25692 5.811406,590.4721 4.7125999,596.05957 C 3.6138076,601.64705 2.0408669,610.21875 1.2171853,615.10779 C 0.39350377,619.99683 -0.56056381,625.42557 -0.90296181,627.17166 C -1.4354612,629.88711 -1.3133155,630.02102 -0.058611111,628.09734 C 0.74819409,626.86037 1.6273208,624.86031 1.8950098,623.65275 C 2.1627124,622.4452 3.6128116,618.88568 5.1174692,615.74273 C 8.7102947,608.23795 13.877916,588.10298 12.675819,586.29255 C 12.102964,585.42982 12.351075,585.22852 13.308458,585.77927 C 14.305528,586.35285 14.883554,585.71949 14.883554,584.05342 C 14.883554,582.60586 15.466369,580.42921 16.17871,579.21642 C 18.474074,575.30846 20.374447,561.0295 18.932874,558.5223 C 16.939388,555.05522 -0.13457525,541.94598 -1.5764341,542.77543 C -2.2656231,543.17189 -5.1368848,541.81406 -7.9570263,539.75802 C -14.466122,535.01252 -21.60364,533.77 -28.019977,536.26538 C -30.685775,537.30213 -32.871682,537.75097 -32.877535,537.26278 C -32.883387,536.7746 -34.418223,535.71463 -36.288281,534.9073 C -40.140282,533.24433 -40.224841,533.44266 -38.271302,539.55825 C -35.417012,548.49366 -31.2323,612.25358 -33.296129,615.36183 C -33.815285,616.14371 -33.903146,617.6006 -33.491387,618.59938 C -33.079614,619.59816 -33.691557,621.14832 -34.851251,622.04417 C -36.010946,622.94002 -36.959788,624.40908 -36.959788,625.30876 C -36.959788,627.27557 -53.317959,643.66562 -55.329508,643.71427 C -57.635036,643.77003 -65.071946,650.22972 -70.298574,656.71639 C -76.277789,664.13707 -96.259414,699.3873 -95.098928,700.46747 C -94.6377,700.89679 -94.106838,701.00994 -93.919247,700.71893 C -93.731656,700.42792 -91.490973,696.28781 -88.939953,691.51871 C -86.388946,686.74961 -83.597046,682.17804 -82.735751,681.35966 C -81.874442,680.54129 -79.272042,677.30021 -76.952626,674.15725 C -74.633209,671.0143 -70.057898,666.09474 -66.78526,663.2249 C -63.512621,660.35507 -58.225791,654.99226 -55.036744,651.30755 C -51.847696,647.62285 -49.238475,645.1238 -49.238475,645.75413 C -49.238475,647.46523 -55.984535,656.37892 -57.279527,656.37892 C -57.89619,656.37892 -60.73697,659.95046 -63.592364,664.31568 C -66.447773,668.68089 -71.659612,675.12594 -75.174249,678.63803 C -78.688887,682.1501 -83.937889,688.8646 -86.838701,693.55913 C -89.739513,698.25365 -92.576804,702.09464 -93.143793,702.09464 C -93.710782,702.09464 -93.821304,702.9518 -93.389394,703.99946 C -92.505001,706.14464 -90.167426,706.59238 -90.167426,704.61659 C -90.167426,702.12059 -84.002325,694.50659 -81.968742,694.49107 C -80.836101,694.48242 -79.138273,693.32604 -78.195788,691.92133 C -77.253317,690.51662 -72.040674,684.72594 -66.612157,679.05314 C -61.183627,673.38035 -54.74683,666.44899 -52.308147,663.65012 C -49.869463,660.85125 -47.874176,658.96497 -47.874176,659.45839 C -47.874176,660.85337 -50.775889,665.69736 -52.875763,667.80785 C -58.420231,673.38032 -62.154121,677.61664 -67.2429,684.10827 C -73.46507,692.04572 -81.40571,700.91714 -86.92517,706.0976 C -90.183333,709.15567 -90.27863,709.50776 -87.960564,709.92329 C -86.28878,710.22297 -83.521232,708.41966 -79.942759,704.69896 C -76.937141,701.57388 -67.618027,692.42353 -59.233626,684.36484 z M -46.632365,641.35338 C -45.896571,640.07367 -44.356428,638.30196 -43.209845,637.41623 C -41.356854,635.98481 -41.359678,636.24343 -43.235289,639.74296 C -44.39587,641.9084 -45.935999,643.68011 -46.657809,643.68011 C -47.488844,643.68011 -47.479526,642.82675 -46.632365,641.35338 z M -23.899618,627.17166 C -23.454038,625.42557 -22.757618,620.99686 -22.35204,617.33008 C -21.946461,613.6633 -20.996868,610.66321 -20.241838,610.66321 C -18.310537,610.66321 -19.749272,620.49307 -22.472221,625.90178 C -23.945895,628.82901 -24.433209,629.26253 -23.899618,627.17166 z M -16.495311,625.39501 C -16.495311,624.18503 -15.901309,622.16196 -15.175311,620.8993 C -14.449314,619.63664 -12.26177,607.81669 -10.314111,594.63275 C -4.9352552,558.22275 -3.9033543,552.24868 -2.9930671,552.24868 C -1.5750835,552.24868 -5.5945115,590.15465 -8.4465638,603.67886 C -11.351606,617.45434 -12.460344,621.26194 -14.103136,623.10439 C -15.043656,624.15921 -15.608517,625.26776 -15.3584,625.56784 C -15.10827,625.86791 -15.261753,626.44677 -15.699475,626.85419 C -16.137183,627.2616 -16.495311,626.60497 -16.495311,625.39501 z M -31.799248,625.20236 C -32.237542,624.7944 -32.019786,622.51771 -31.315358,620.14304 C -30.61093,617.76837 -29.904428,608.09245 -29.745364,598.64099 C -29.586301,589.18953 -28.995696,581.45639 -28.432923,581.45624 C -27.87015,581.45607 -27.526592,581.88453 -27.669448,582.40835 C -27.812303,582.93218 -27.474148,589.36095 -26.917992,596.69451 C -25.685062,612.95184 -28.334803,628.42704 -31.799248,625.20236 z M -22.61082,604.3497 C -23.123169,603.57808 -22.896504,597.96846 -22.107121,591.88388 C -21.317738,585.79929 -20.350873,573.67792 -19.958542,564.94749 C -19.566197,556.21706 -18.679239,547.35964 -17.987513,545.26434 L -16.729848,541.45469 L -16.455651,545.89928 C -15.797404,556.56925 -19.518897,603.74178 -21.137787,605.24864 C -21.4356,605.52585 -22.098471,605.12133 -22.61082,604.3497 z M -30.138296,577.57135 C -30.138296,576.8317 -29.524362,576.5797 -28.773997,577.01136 C -28.023633,577.44302 -27.409699,578.04819 -27.409699,578.35619 C -27.409699,578.66419 -28.023633,578.91618 -28.773997,578.91618 C -29.524362,578.91618 -30.138296,578.31101 -30.138296,577.57135 z M -30.138296,568.75713 C -30.138296,565.9634 -29.608075,563.67761 -28.960033,563.67761 C -28.311991,563.67761 -27.781784,565.9634 -27.781784,568.75713 C -27.781784,571.55087 -28.311991,573.83666 -28.960033,573.83666 C -29.608075,573.83666 -30.138296,571.55087 -30.138296,568.75713 z M -28.657364,553.26612 C -28.505449,547.92373 -27.849331,542.79493 -27.199324,541.86875 C -26.519044,540.89944 -26.392464,544.7655 -26.901061,550.9788 C -28.021682,564.66888 -29.018521,565.96712 -28.657364,553.26612 z M -7.5408743,645.58813 C -5.1688367,640.30392 -5.0465001,638.1798 -7.3346469,642.00739 C -9.0259951,644.83668 -14.524868,651.16522 -23.657878,660.7935 C -32.155043,669.75144 -29.410211,668.67057 -19.137411,659.0134 C -13.837303,654.03091 -8.6188611,647.98954 -7.5408743,645.58813 z M 130.01157,649.19303 C 128.67604,645.938 127.3462,643.93694 127.05638,644.74623 C 126.76656,645.55551 127.62216,648.88086 128.95768,652.13588 C 130.29322,655.39091 131.62306,657.39197 131.91287,656.58269 C 132.20269,655.7734 131.3471,652.44805 130.01157,649.19303 z M 125.38528,637.69603 C 123.89873,635.53813 123.86023,635.5409 124.60657,637.75204 C 125.03841,639.03142 125.44021,640.74576 125.49944,641.56168 C 125.57718,642.6324 125.79385,642.6168 126.27814,641.50567 C 126.6472,640.65894 126.2454,638.9446 125.38528,637.69603 z M 122.2308,628.20344 C 121.79529,627.19041 121.47201,627.49131 121.40655,628.97066 C 121.34731,630.30932 121.66976,631.05935 122.12311,630.63738 C 122.57645,630.21541 122.62491,629.12014 122.2308,628.20344 z M 120.8665,621.85403 C 120.43099,620.84101 120.10771,621.14191 120.04225,622.62126 C 119.98301,623.95991 120.30546,624.70994 120.75881,624.28797 C 121.21215,623.86601 121.26061,622.77073 120.8665,621.85403 z M 116.77361,590.10701 C 116.3381,589.09399 116.01481,589.39488 115.94935,590.87423 C 115.89012,592.21289 116.21257,592.96292 116.66591,592.54095 C 117.11925,592.11898 117.16771,591.02371 116.77361,590.10701 z M 115.40931,585.02748 C 114.9738,584.01446 114.65051,584.31536 114.58506,585.79471 C 114.52582,587.13337 114.84827,587.8834 115.30161,587.46143 C 115.75496,587.03946 115.80342,585.94419 115.40931,585.02748 z M 72.704653,552.81766 C 73.170547,551.68757 72.941836,551.17784 72.16847,551.62273 C 70.063126,552.83385 70.586089,550.10785 72.866241,547.98551 C 75.534113,545.50227 75.449403,544.7496 72.525166,544.95464 C 70.815836,545.07449 70.18609,546.13423 70.308181,548.68536 C 70.632802,555.46813 71.205098,556.45498 72.704653,552.81766 z M 66.726897,536.45012 C 66.726897,536.14212 66.112963,535.53695 65.362599,535.10529 C 64.612235,534.67363 63.9983,534.92563 63.9983,535.66528 C 63.9983,536.40494 64.612235,537.01011 65.362599,537.01011 C 66.112963,537.01011 66.726897,536.75811 66.726897,536.45012 z M -72.661034,531.89197 C -70.539823,531.85598 -70.539441,531.76951 -72.655372,530.62007 C -75.176227,529.25064 -79.253038,530.22834 -79.253038,532.20231 C -79.253038,532.90075 -78.28193,533.12533 -77.095004,532.70139 C -75.908092,532.27744 -73.912805,531.91321 -72.661034,531.89197 z M 65.362599,531.53836 C 65.362599,528.72152 61.817319,524.99897 60.715293,526.65869 C 60.18128,527.46293 60.394533,528.12094 61.189182,528.12094 C 61.983832,528.12094 62.634002,529.26384 62.634002,530.6607 C 62.634002,532.05757 63.247936,533.20047 63.9983,533.20047 C 64.748665,533.20047 65.362599,532.45252 65.362599,531.53836 z M -31.775454,527.86697 C -30.875017,527.02885 -30.138296,525.29473 -30.138296,524.01339 C -30.138296,522.73203 -26.173522,518.13188 -21.327684,513.79084 C -13.1017,506.42175 -12.474737,505.46131 -11.879071,499.31655 C -11.376449,494.13166 -11.780759,492.15587 -13.784423,490.0055 C -15.183265,488.50425 -16.721225,485.60858 -17.2021,483.5707 C -18.357879,478.67265 -20.112285,478.86639 -21.022517,483.99258 C -22.491744,492.2669 -24.43853,498.3936 -27.257402,503.61439 C -28.841899,506.549 -30.138296,509.5491 -30.138296,510.28126 C -30.138296,511.01344 -30.75223,511.61249 -31.502594,511.61249 C -32.252959,511.61249 -32.886416,512.61252 -32.910278,513.83478 C -32.934153,515.05704 -33.855054,517.16633 -34.956725,518.52208 C -37.315543,521.42489 -37.605702,525.58118 -35.449524,525.58118 C -34.618884,525.58118 -34.292639,526.43835 -34.724563,527.486 C -35.667443,529.77306 -34.048021,529.98226 -31.775454,527.86697 z M 59.206488,518.17648 C 58.392111,517.38348 53.083912,520.59049 53.083912,521.8755 C 53.083912,522.58196 54.558623,522.13328 56.361039,520.87841 C 58.163455,519.62355 59.443903,518.40767 59.206488,518.17648 z M -39.130237,514.41517 C -38.033887,511.12761 -34.927911,502.78988 -32.228074,495.88689 C -29.528223,488.9839 -27.552282,483.11909 -27.837093,482.85399 C -28.121904,482.58889 -33.882422,487.39114 -40.638251,493.52564 C -50.376682,502.36844 -52.846253,505.33174 -52.558018,507.82842 C -52.358053,509.56044 -52.143298,511.62405 -52.080759,512.41422 C -51.916716,514.48717 -43.572148,521.80111 -42.243294,521.03668 C -41.627449,520.68241 -40.226574,517.70273 -39.130237,514.41517 z M 67.326643,514.24801 C 68.031685,513.1477 68.544334,511.96171 68.465873,511.61249 C 68.387426,511.26327 68.960131,510.26324 69.738559,509.3902 C 70.517,508.51716 70.618272,507.82454 69.963614,507.85104 C 69.308969,507.87754 67.11193,510.13578 65.081308,512.86935 C 62.276556,516.64504 61.948687,517.64831 63.717009,517.04404 C 64.997267,516.60655 66.621601,515.34834 67.326643,514.24801 z M 101.30328,510.60462 C 100.87034,509.06365 99.937552,507.80285 99.230422,507.80285 C 98.523293,507.80285 98.193269,508.23143 98.49703,508.75526 C 98.800791,509.27908 99.465409,510.78949 99.973965,512.11172 C 101.21825,515.34688 102.2932,514.12815 101.30328,510.60462 z M -114.48332,495.58321 L -109.32013,492.25275 L -111.88908,488.91634 C -116.04728,483.5159 -121.22906,479.53309 -122.86936,480.47669 C -123.70814,480.9592 -125.28843,480.66338 -126.38109,479.81931 C -129.68621,477.26612 -128.60779,480.12827 -124.91163,483.71921 C -122.28312,486.27293 -121.42494,488.49423 -121.32787,492.99534 C -121.25767,496.25042 -120.85065,498.91368 -120.42338,498.91368 C -119.99609,498.91368 -117.32306,497.41497 -114.48332,495.58321 z M 26.809147,480.13759 C 26.707534,478.88201 25.551291,477.86994 24.218467,477.86994 C 21.993992,477.86994 21.97863,478.04206 24.016073,480.13759 C 25.228689,481.38479 26.394496,482.40523 26.606753,482.40523 C 26.818997,482.40523 26.910078,481.38479 26.809147,480.13759 z M -141.61546,474.78594 C -142.06359,473.19091 -143.47639,472.24618 -145.41359,472.24618 C -147.11011,472.24618 -149.26244,471.38901 -150.19656,470.34136 C -152.03024,468.2848 -156.41996,467.77831 -157.55782,469.49199 C -157.94326,470.07249 -156.02993,471.35824 -153.30597,472.34922 C -150.582,473.3402 -147.07971,474.80928 -145.52311,475.61384 C -141.40737,477.74115 -140.82016,477.61674 -141.61546,474.78594 z M 30.572987,476.05582 C 30.109235,475.35739 29.115875,474.78594 28.365511,474.78594 C 27.615147,474.78594 27.380638,475.35739 27.84439,476.05582 C 28.308142,476.75426 29.301502,477.3257 30.051866,477.3257 C 30.80223,477.3257 31.036739,476.75426 30.572987,476.05582 z M 46.232078,472.36683 C 46.215392,471.95126 44.950579,470.18262 43.421364,468.43654 L 40.640978,465.26183 L 42.804592,469.38895 C 44.040701,471.74686 44.368337,473.51606 43.568858,473.51606 C 42.79923,473.51606 42.169524,472.84675 42.169524,472.0287 C 42.169524,469.92036 38.002343,465.89678 35.818728,465.89678 C 34.809489,465.89678 33.983733,467.10964 33.983733,468.59202 C 33.983733,470.86282 34.311206,471.03431 36.063156,469.68094 C 37.206834,468.79746 38.281219,468.29891 38.450679,468.57305 C 41.534593,473.56197 42.106194,475.13767 41.299075,476.42495 C 40.769495,477.26958 41.669591,476.87205 43.299314,475.54153 C 44.929023,474.21103 46.248763,472.78241 46.232078,472.36683 z M -71.076565,465.26183 C -70.191435,462.4681 -68.604592,458.92407 -67.550249,457.38624 C -65.751189,454.76218 -66.052167,454.25435 -72.442473,449.13201 C -76.187541,446.13002 -79.272424,443.10241 -79.297759,442.40398 C -79.323094,441.70554 -80.552628,439.78345 -82.030081,438.13267 C -84.619724,435.23921 -84.842937,435.20846 -88.236439,437.27809 C -90.172487,438.45885 -94.257565,441.52384 -97.314399,444.08916 L -102.87226,448.75338 L -98.225218,449.38832 C -93.669075,450.01084 -93.577422,450.14521 -93.539467,456.25699 C -93.509698,461.05372 -92.896637,462.81011 -90.880026,463.87628 C -89.438617,464.63834 -86.15748,467.37851 -83.588615,469.96555 C -79.040071,474.54628 -78.836504,474.61268 -75.801922,472.50531 C -74.088104,471.31514 -71.961695,468.05557 -71.076565,465.26183 z M 25.115793,471.96293 C 25.894371,471.42208 25.455067,471.00684 24.092569,470.99574 C 22.765393,470.98493 21.705047,471.91627 21.705047,473.09277 C 21.705047,474.25682 22.165498,474.69206 22.728271,474.05995 C 23.291044,473.42784 24.365429,472.48418 25.115793,471.96293 z M -163.81017,464.6653 C -166.89138,460.63759 -170.54672,457.80677 -168.62242,460.93851 C -167.28414,463.11654 -162.20394,468.43654 -161.46238,468.43654 C -161.1669,468.43654 -162.22341,466.73948 -163.81017,464.6653 z M 32.619435,463.39686 C 32.619435,462.72036 31.698533,462.49577 30.572987,462.89779 C 29.447441,463.29982 28.526539,463.85332 28.526539,464.12782 C 28.526539,464.4023 29.447441,464.62689 30.572987,464.62689 C 31.698533,464.62689 32.619435,464.07338 32.619435,463.39686 z M 38.751206,462.07935 C 37.3889,460.6782 36.003946,459.78343 35.673526,460.09098 C 34.875302,460.83396 38.420773,464.51706 39.993455,464.57859 C 40.67252,464.60515 40.113513,463.4805 38.751206,462.07935 z M -162.75869,446.81195 C -158.78759,443.33992 -155.01618,440.49916 -154.37779,440.49916 C -152.61096,440.49916 -151.30979,436.41526 -152.6725,435.14685 C -153.36442,434.50282 -156.41975,434.90374 -159.87979,436.09259 C -163.18319,437.22763 -168.6487,438.43256 -172.02534,438.77024 C -181.7869,439.74643 -182.39462,440.13172 -179.31156,443.38953 C -177.84164,444.94277 -175.92104,447.7851 -175.04355,449.70579 C -174.16607,451.62649 -172.66755,453.1815 -171.71351,453.16136 C -170.75947,453.14121 -166.7298,450.28398 -162.75869,446.81195 z M 72.184091,446.69868 C 72.184091,446.00024 71.416673,445.83207 70.478718,446.32498 C 69.238421,446.97676 69.172716,446.81594 70.237756,445.73529 C 72.069927,443.87628 71.055612,436.69209 68.959572,436.68217 C 67.984289,436.67756 67.377108,433.84464 67.322973,429.04628 C 67.275632,424.85055 66.622078,420.84542 65.870623,420.14597 C 64.958439,419.29692 62.140808,420.84589 57.393104,424.80641 L 50.281861,430.73857 L 53.289007,433.71802 C 54.942946,435.35672 56.954768,436.62797 57.759718,436.54303 C 62.053834,436.08991 63.611112,437.25559 66.475362,443.06694 C 69.217997,448.63161 72.184091,450.51856 72.184091,446.69868 z M 58.954202,434.41306 C 57.986955,433.84144 57.7783,432.75881 58.44259,431.75836 C 59.240309,430.55695 59.837872,430.48091 60.51129,431.49513 C 61.032111,432.27952 62.109402,432.54672 62.905265,432.08889 C 63.721143,431.61954 64.089135,431.9913 63.748948,432.94121 C 62.987396,435.06777 61.062098,435.65879 58.954202,434.41306 z M 62.634002,429.31191 C 62.634002,428.63 63.606201,427.72483 64.79445,427.30041 C 66.123154,426.82581 66.746871,427.10962 66.414555,428.03759 C 65.734752,429.93585 62.634002,430.98103 62.634002,429.31191 z M 60.587554,425.26058 C 61.051306,424.56215 61.701476,423.9907 62.032373,423.9907 C 62.36327,423.9907 62.634002,424.56215 62.634002,425.26058 C 62.634002,425.95902 61.983832,426.53047 61.189182,426.53047 C 60.394533,426.53047 60.123802,425.95902 60.587554,425.26058 z M -11.69283,426.4142 C -10.92664,423.1672 -11.971693,421.57316 -20.81217,412.50425 C -26.303744,406.87077 -31.29312,401.43616 -31.89966,400.42733 C -32.506213,399.41849 -33.88365,398.59308 -34.960641,398.59308 C -37.150354,398.59308 -49.019423,405.0726 -55.538423,409.82683 L -59.79191,412.92886 L -56.924332,415.99862 C -55.347162,417.687 -48.460361,422.76084 -41.620341,427.27383 C -34.780308,431.78682 -28.054794,436.47707 -26.674724,437.69663 C -24.274104,439.81806 -23.91438,439.70126 -18.361849,434.99773 C -15.16984,432.29377 -12.168779,428.43119 -11.69283,426.4142 z M -107.89504,417.00068 C -105.35694,415.25772 -103.91111,413.83166 -104.68212,413.83166 C -109.4326,413.83166 -121.53433,416.98703 -124.34072,418.95739 L -127.66582,421.29195 L -122.05434,420.59138 C -118.3811,420.13281 -116.08723,420.4264 -115.41329,421.44139 C -114.67537,422.55274 -114.1183,422.59223 -113.44675,421.58084 C -112.93141,420.80471 -110.43315,418.74364 -107.89504,417.00068 z M 31.937286,399.86297 C 32.401038,399.16453 32.130307,398.59308 31.335657,398.59308 C 30.541008,398.59308 29.890838,399.16453 29.890838,399.86297 C 29.890838,400.5614 30.161569,401.13285 30.492466,401.13285 C 30.823363,401.13285 31.473533,400.5614 31.937286,399.86297 z M 22.161377,394.44334 C 21.67506,393.71093 21.936978,393.49709 22.748558,393.96396 C 23.554367,394.42752 25.140214,393.94437 26.27265,392.89029 C 27.4051,391.83623 28.914259,390.9738 29.626341,390.9738 C 30.338423,390.9738 31.607971,390.20337 32.44756,389.26173 C 33.612235,387.95551 33.328433,387.00579 31.25032,385.25527 C 29.752239,383.99336 28.478066,381.76369 28.418828,380.30046 C 28.35959,378.83724 28.001462,378.35436 27.622992,379.2274 C 27.244522,380.10044 26.140286,380.81475 25.169151,380.81475 C 24.198016,380.81475 22.639168,381.67192 21.705047,382.71957 C 20.770925,383.76722 18.700466,384.61564 17.104032,384.60495 C 14.670915,384.58865 14.532425,384.36386 16.247853,383.21527 C 17.888599,382.1167 17.75337,382.02704 15.565704,382.76308 C 14.064975,383.268 11.455754,383.95997 9.767435,384.30079 C 5.5650409,385.14913 5.8990212,388.62167 10.554321,392.48251 C 16.452006,397.37371 19.354347,398.61215 21.334517,397.08247 C 22.272145,396.35817 22.64423,395.17056 22.161377,394.44334 z M 23.751495,383.35451 C 24.215247,382.65608 24.865417,382.08463 25.196314,382.08463 C 25.527211,382.08463 25.797942,382.65608 25.797942,383.35451 C 25.797942,384.05295 25.147772,384.62439 24.353123,384.62439 C 23.558474,384.62439 23.287742,384.05295 23.751495,383.35451 z M 37.358749,391.1673 C 36.048776,389.84268 35.013833,389.78104 32.778594,390.89451 C 29.794327,392.38111 28.853234,394.78344 31.255136,394.78344 C 32.0055,394.78344 32.619435,394.21199 32.619435,393.51356 C 32.619435,392.81513 33.274735,392.24368 34.075673,392.24368 C 34.933885,392.24368 35.158708,393.33815 34.623139,394.9088 C 33.736099,397.51019 33.778174,397.51779 36.382743,395.22627 C 38.528826,393.33814 38.719868,392.54365 37.358749,391.1673 z M -59.238633,383.2171 C -42.159812,371.31529 -41.688747,370.93561 -47.284022,373.58164 C -50.584997,375.14266 -73.906884,390.68288 -76.410754,392.98981 C -76.723396,393.27787 -76.312006,393.51356 -75.496524,393.51356 C -74.681042,393.51356 -67.364991,388.88015 -59.238633,383.2171 z M 31.790965,375.9556 C 32.174223,375.37838 32.107318,373.55178 31.64227,371.89649 C 30.852723,369.08624 30.72789,369.05061 29.757519,371.35865 C 29.185959,372.71812 28.675166,374.54471 28.622436,375.41776 C 28.514875,377.19812 30.717671,377.57203 31.790965,375.9556 z M 9.0568674,372.42824 C 8.603511,372.00627 7.4268172,371.96117 6.4419574,372.328 C 5.3536156,372.73337 5.6768861,373.03428 7.2662257,373.09521 C 8.7044146,373.15035 9.5102102,372.85021 9.0568674,372.42824 z M 4.5291837,368.21029 C 5.6403639,367.35192 6.7612988,367.33362 7.8102943,368.15674 C 8.6866241,368.84437 9.1071009,369.02622 8.744675,368.56083 C 8.3822628,368.09545 8.7075388,367.0173 9.4675213,366.16496 C 10.400783,365.11826 10.39695,363.50776 9.4556928,361.20339 C 7.2595815,355.82693 7.6954203,351.61047 10.449584,351.58805 C 12.381417,351.57231 12.469387,351.35194 10.910472,350.43341 C 7.9537502,348.69127 5.6284535,351.75115 6.3640287,356.41613 C 6.9051641,359.84787 6.574308,360.49666 4.2831324,360.49666 C 1.0949033,360.49666 -0.8899464,365.53826 1.6329417,367.22826 C 2.7025926,367.94477 2.2335604,368.12258 0.30545194,367.7315 C -1.4870316,367.36792 -2.9693283,367.83796 -3.4113474,368.91014 C -3.9578035,370.23563 -3.2494324,370.54212 -0.65259939,370.10381 C 1.2690969,369.77946 3.6009013,368.92737 4.5291837,368.21029 z M 21.771434,361.44907 C 23.792369,358.22712 20.121656,358.49817 17.952571,361.73106 C 16.838321,363.39178 15.463995,363.95332 13.872582,363.39812 C 11.776392,362.66681 11.707863,362.82991 13.330819,364.6873 C 14.352719,365.85684 14.793183,367.82102 14.309635,369.05219 C 13.39344,371.38488 19.339531,365.32618 21.771434,361.44907 z M -6.9452216,368.85475 C -6.9452216,368.56265 -6.5725771,367.41975 -6.117106,366.31498 C -5.5736923,364.99686 -6.0427245,364.3063 -7.4814045,364.3063 C -9.5646883,364.3063 -9.9123798,363.66204 -10.222689,359.22677 C -10.313279,357.93204 -12.381965,357.10502 -16.681565,356.64462 C -20.160649,356.2721 -23.976087,355.21881 -25.160339,354.30399 C -26.972032,352.90448 -28.007344,353.10054 -31.688125,355.54011 L -36.062735,358.43952 L -29.965276,360.4205 C -26.611666,361.51003 -21.748542,363.61586 -19.15834,365.1001 C -12.849237,368.71535 -6.9452216,370.5304 -6.9452216,368.85475 z M -16.607497,365.25871 C -16.669205,365.0841 -16.981411,363.2269 -17.301311,361.1316 C -17.823824,357.70917 -17.693138,357.54783 -16.015501,359.54424 C -14.988402,360.76651 -13.514005,361.76654 -12.739056,361.76654 C -11.964094,361.76654 -10.976669,362.62371 -10.544746,363.67136 C -9.9774022,365.04752 -10.694177,365.57618 -13.127376,365.57618 C -14.979739,365.57618 -16.54579,365.43332 -16.607497,365.25871 z M -26.0454,359.22677 C -28.686314,357.30398 -28.939255,356.73711 -27.166076,356.71525 C -25.906529,356.69972 -23.911242,357.585 -22.732106,358.68254 C -18.574311,362.55258 -20.943061,362.94167 -26.0454,359.22677 z M 17.612151,357.47744 C 17.612151,356.51531 16.844733,355.13565 15.906778,354.41154 C 14.627844,353.42418 14.152209,353.86162 14.00466,356.16088 C 13.885106,358.02371 14.554295,359.22677 15.710033,359.22677 C 16.75619,359.22677 17.612151,358.43958 17.612151,357.47744 z M -6.4029129,355.62773 C -4.858336,353.30152 -4.1627211,346.34707 -5.5547149,347.14782 C -6.3321877,347.59508 -7.4735598,346.68971 -8.0910822,345.1359 C -9.1438977,342.48684 -9.2755798,342.46046 -10.204067,344.71262 C -10.748681,346.03363 -10.589699,347.30203 -9.8507681,347.5313 C -9.1115366,347.76065 -8.8498914,349.91338 -9.2690585,352.31758 C -9.9751239,356.36743 -8.2313048,358.3814 -6.4029129,355.62773 z M 1.2405694,356.12702 C 1.2405694,355.81902 0.62663509,355.21385 -0.12372908,354.78219 C -0.87409325,354.35053 -1.4880276,354.60253 -1.4880276,355.34218 C -1.4880276,356.08184 -0.87409325,356.68701 -0.12372908,356.68701 C 0.62663509,356.68701 1.2405694,356.43502 1.2405694,356.12702 z M -16.26911,347.97163 C -15.311018,349.28768 -15.061201,349.09381 -15.227059,347.16291 C -15.613128,342.66845 -15.172433,341.44844 -13.162903,341.44844 C -11.887584,341.44844 -11.392275,340.49392 -11.75582,338.73685 C -12.553225,334.88283 -13.524469,334.34729 -16.538846,336.09951 C -17.995262,336.94612 -20.044547,337.6388 -21.092792,337.6388 C -22.141051,337.6388 -23.29211,339.06741 -23.650716,340.8135 C -24.201428,343.49499 -23.787964,343.9882 -20.989228,343.9882 C -18.23692,343.9882 -17.80471,344.47212 -18.437226,346.84543 C -18.856052,348.41691 -18.823104,348.9237 -18.364018,347.97163 C -17.659303,346.51016 -17.333059,346.51016 -16.26911,347.97163 z M 8.0411745,343.67073 C 8.0526619,343.14691 7.1411604,342.71832 6.0156142,342.71832 C 3.9265184,342.71832 3.2203848,345.40771 4.8991951,346.97034 C 5.8152806,347.82303 8.0004229,345.52825 8.0411745,343.67073 z M 17.162942,344.58774 C 18.926953,342.94581 18.964403,342.31131 17.406565,340.46063 C 16.394092,339.25783 15.046915,337.92074 14.412844,337.48928 C 13.778773,337.05783 14.991184,336.30038 17.107115,335.80607 C 19.223033,335.31177 21.1402,335.37904 21.367478,335.9556 C 22.479123,338.77549 27.13209,346.90052 26.628814,345.14293 C 26.310687,344.03194 26.535059,342.393 27.127438,341.50086 C 27.778604,340.52017 27.189227,338.9338 25.636914,337.48891 C 22.288857,334.37256 22.252362,330.01951 25.574293,330.01951 C 27.547901,330.01951 28.124194,328.95142 28.291211,324.98402 C 28.464041,320.87849 28.106281,320.09029 26.35403,320.71615 C 24.634782,321.33024 24.566608,321.69189 26.013215,322.52407 C 27.419097,323.33281 27.457434,323.9033 26.18543,325.08727 C 24.91344,326.27123 24.08733,326.25332 22.473679,325.0068 C 20.013508,323.10634 21.906827,318.59058 25.163789,318.59058 C 26.262936,318.59058 27.089537,318.162 27.000681,317.63817 C 26.542017,314.93432 27.527504,314.85009 31.193511,317.27985 C 33.660013,318.91462 34.927255,320.67337 34.458291,321.81091 C 34.036723,322.83347 34.371426,323.67011 35.202066,323.67011 C 36.032719,323.67011 36.71233,324.18805 36.71233,324.8211 C 36.71233,325.45415 35.330978,325.7113 33.642659,325.39255 L 30.572987,324.813 L 33.642659,326.9362 C 37.105221,329.33116 37.640654,331.28939 34.832927,331.28939 C 33.799267,331.28939 32.189258,332.14656 31.255136,333.19421 C 28.464464,336.32406 32.289779,335.52132 35.818783,332.23655 C 37.510213,330.66217 40.010754,329.57422 41.375543,329.81886 C 43.152283,330.13734 43.542991,329.77821 42.751357,328.55423 C 41.831751,327.13239 42.019411,327.12669 43.866875,328.52028 C 46.480789,330.49205 50.149947,329.12361 56.104251,323.95629 C 59.238549,321.23625 60.137254,320.99847 61.960352,322.40679 C 65.057815,324.79955 67.49467,322.29869 65.479969,318.79472 C 64.27131,316.69262 64.445367,315.91609 66.376805,314.7935 C 68.312253,313.66859 67.942978,313.54815 64.457482,314.16752 C 60.873306,314.80442 59.986771,314.48032 59.228222,312.25576 C 58.678546,310.64371 59.174768,308.35546 60.474413,306.50922 C 63.67739,301.95917 63.092802,301.25047 59.288401,305.07141 C 55.13418,309.24366 53.740222,309.27452 50.912004,305.25683 C 47.910301,300.9927 43.077219,301.13848 39.667183,305.59602 L 36.979023,309.10992 L 42.302871,308.63735 C 48.39681,308.09641 49.307752,310.04845 45.079164,314.58664 C 41.822188,318.08207 35.241494,318.17937 31.937286,314.78094 C 29.550186,312.32577 29.554497,312.23821 32.066908,312.15192 C 34.533491,312.06722 34.526888,312.00708 31.937286,310.9713 C 27.801606,309.31713 27.162241,309.48279 27.162241,312.20857 C 27.162241,313.70271 25.529639,315.50155 23.121625,316.66059 C 19.354715,318.47373 18.985386,318.43916 17.669329,316.15027 C 15.816093,312.9271 17.264719,309.12205 19.644997,310.9608 C 21.334967,312.26627 25.838967,311.47173 25.754558,309.88302 C 25.730682,309.43393 24.832892,307.98663 23.759448,306.66682 C 21.868967,304.34247 21.688389,304.33928 18.004565,306.56534 C 15.912822,307.82933 13.39917,309.90921 12.418676,311.18728 C 10.539041,313.63735 6.6977634,314.37175 6.6977634,312.28103 C 6.6977634,311.60452 5.7768619,311.37993 4.6513157,311.78195 C 1.8763598,312.77311 2.0506489,313.54255 6.0242911,317.84328 C 9.3622111,321.45597 12.767623,321.703 9.5545226,318.09938 C 7.3800627,315.66064 10.169044,313.98977 12.896863,316.09698 C 16.225533,318.66835 15.351222,323.31336 11.302107,324.56965 L 7.7206735,325.68085 L 13.348555,328.04304 C 16.443903,329.34225 18.97645,331.17562 18.97645,332.11719 C 18.97645,334.44182 12.907846,334.29885 10.790659,331.92433 C 9.8565374,330.87668 8.4483494,330.01951 7.6613674,330.01951 C 6.8743718,330.01951 5.0022132,329.01948 3.5010074,327.79722 C 1.9998015,326.57496 1.2202687,326.28924 1.7687167,327.16228 C 2.350972,328.08914 2.02279,328.78312 0.98001569,328.83013 C -0.0022246539,328.8744 0.5754739,329.42743 2.2637933,330.05908 C 5.5018603,331.27056 6.1477874,333.85152 4.1021582,337.40481 C 3.0520986,339.22878 3.6043939,339.54362 7.8539791,339.54362 C 12.27593,339.54362 12.885717,339.93689 13.268798,343.03579 C 13.765594,347.05455 14.288734,347.26304 17.162942,344.58774 z M 43.054231,324.80956 C 40.734296,322.75944 40.729153,322.51196 42.956015,320.09116 C 44.874942,318.00512 45.769362,317.80562 47.830735,319.00388 C 51.000042,320.84617 51.028092,322.56949 47.928951,325.03941 C 45.74752,326.77794 45.255431,326.75474 43.054231,324.80956 z M 51.719614,319.86046 C 51.719614,318.4636 51.105679,317.3207 50.355315,317.3207 C 49.604951,317.3207 48.991017,316.46353 48.991017,315.41588 C 48.991017,312.92754 52.315717,312.97744 55.032908,315.50659 C 57.606016,317.90162 57.697233,318.8681 55.53965,320.87637 C 53.134405,323.11516 51.719614,322.73892 51.719614,319.86046 z M -4.7670644,336.86542 C -5.3913538,335.35113 -5.9113562,335.2862 -7.3558481,336.54219 C -8.8517468,337.84287 -8.795756,338.46237 -7.0311041,340.13498 C -5.3546678,341.72398 -4.8011855,341.79309 -4.4423205,340.4582 C -4.1912623,339.52437 -4.3374059,337.90762 -4.7670644,336.86542 z M 0.23207997,339.04925 C 0.60281444,337.7297 0.37684568,335.8725 -0.27006373,334.92214 C -1.0697337,333.74734 -1.4529378,334.51535 -1.4671402,337.32133 C -1.4905242,341.94165 -0.78273982,342.66138 0.23207997,339.04925 z M -20.138056,323.41823 C -15.377296,322.97503 -13.361667,319.86046 -17.835612,319.86046 C -19.448199,319.86046 -22.059971,319.21666 -23.639569,318.4298 C -25.999942,317.25398 -26.82627,317.42364 -28.278389,319.38221 C -29.250151,320.6929 -30.731588,322.50677 -31.570455,323.41303 C -32.714105,324.64853 -32.500142,325.90679 -30.715231,328.44237 L -28.334789,331.82397 L -26.293798,327.81264 C -24.767721,324.8133 -23.214713,323.70465 -20.138056,323.41823 z M 3.9691664,321.86272 C 3.9691664,320.86865 2.460798,318.38679 0.61724872,316.34748 C -1.5729552,313.92471 -2.2710531,312.20809 -1.3969743,311.3945 C 0.43832097,309.68622 -4.8462756,305.35765 -7.5765507,306.33284 C -8.825143,306.77882 -9.6738185,308.63967 -9.6738185,310.93145 C -9.6738185,313.04867 -10.287753,314.78094 -11.038117,314.78094 C -11.788481,314.78094 -12.402416,313.59723 -12.402416,312.15047 C -12.402416,309.81228 -12.629803,309.73165 -14.448863,311.42482 C -15.57441,312.47247 -16.495311,314.03716 -16.495311,314.90188 C -16.495311,315.76661 -16.091342,316.09811 -15.597616,315.63854 C -15.103877,315.17898 -13.776169,315.51233 -12.647157,316.37931 C -11.011541,317.6353 -10.477745,317.63307 -10.020419,316.36829 C -9.3397291,314.48583 -5.5809231,314.21704 -5.5809231,316.05082 C -5.5809231,316.74926 -4.6088604,317.3207 -3.4207883,317.3207 C -2.2327026,317.3207 -1.5287382,318.03501 -1.8564155,318.90805 C -2.184079,319.7811 -1.1608552,321.18946 0.41741992,322.03775 C 4.0623344,323.99682 3.9691664,324.00142 3.9691664,321.86272 z M 76.509341,318.90805 C 75.833972,317.68579 75.529733,316.04636 75.833262,315.26489 C 76.184024,314.36179 75.122504,314.06868 72.920308,314.46051 C 68.924428,315.17152 68.892517,315.2462 71.147975,318.60782 C 73.341289,321.87681 78.303298,322.15468 76.509341,318.90805 z M 89.237823,316.05082 C 89.701575,315.35239 89.430843,314.78094 88.636194,314.78094 C 87.841545,314.78094 87.171852,313.78091 87.14799,312.55865 C 87.108726,310.54779 86.914027,310.57088 85.101638,312.80123 C 83.528956,314.73661 83.464998,315.48261 84.803948,316.27397 C 87.092886,317.62677 88.229401,317.56957 89.237823,316.05082 z M 108.1202,308.4828 C 114.26539,306.05012 115.86912,304.85683 115.3719,303.08706 C 115.02079,301.83731 115.2898,300.49477 115.96972,300.10363 C 116.64965,299.71249 117.20594,300.00882 117.20594,300.76214 C 117.20594,301.54713 118.73336,301.874 120.78407,301.52787 C 125.23522,300.77658 124.9678,301.07726 126.06997,295.58429 C 126.8664,291.61502 126.41651,290.38165 122.75716,286.50232 C 119.7053,283.26698 117.74584,282.20247 115.74074,282.69053 C 113.94944,283.12654 113.24014,284.0503 113.74897,285.28453 C 114.8541,287.96512 113.28705,291.92308 111.12062,291.92308 C 108.70848,291.92308 107.20184,295.81809 108.97543,297.46893 C 111.49937,299.8182 110.50695,304.48863 107.0337,306.60689 C 105.19078,307.73085 103.07282,308.29947 102.32711,307.87049 C 101.58139,307.44151 100.26691,308.31553 99.406035,309.81277 C 98.545149,311.31001 98.378404,312.32606 99.035464,312.07063 C 99.692524,311.81522 103.78066,310.2007 108.1202,308.4828 z M 119.33693,297.53807 C 115.81859,295.14343 117.08557,294.26885 121.14414,296.2906 C 122.93269,297.18157 123.8459,298.22703 123.17348,298.61384 C 122.50106,299.00066 120.77462,298.51656 119.33693,297.53807 z M -21.212087,309.78917 C -21.643805,309.13899 -21.379895,308.25203 -20.625629,307.81812 C -19.759791,307.32005 -20.006647,305.96036 -21.295227,304.12984 C -23.154779,301.48821 -23.062471,300.75839 -20.256846,295.92022 C -17.726536,291.55684 -17.512709,290.41272 -19.057627,289.50369 C -21.252333,288.21231 -19.948228,285.57368 -17.115248,285.57368 C -14.974023,285.57368 -10.604338,294.05206 -11.809846,295.86763 C -12.22432,296.49187 -11.94453,297.00261 -11.188067,297.00261 C -9.741324,297.00261 -2.0868455,288.29775 -3.0031493,287.69453 C -3.295382,287.50216 -5.3762783,286.27502 -7.6273708,284.96755 C -11.056085,282.97612 -11.41641,282.93546 -9.8478485,284.71695 C -8.8180077,285.88659 -8.5893513,286.84356 -9.3397155,286.84356 C -10.09008,286.84356 -11.468294,285.98639 -12.402416,284.93874 C -13.336537,283.89109 -15.100029,283.02517 -16.321281,283.01447 C -18.253305,282.99755 -18.275912,282.83512 -16.495311,281.76404 C -15.369765,281.08699 -14.859108,280.52429 -15.360501,280.5136 C -15.861908,280.5029 -17.24326,280.1473 -18.430173,279.72335 C -20.029663,279.15204 -20.588207,279.74364 -20.588207,282.00914 C -20.588207,285.41352 -22.873925,288.11344 -25.756033,288.11344 C -27.21605,288.11344 -27.43382,286.92497 -26.707263,282.92215 C -25.876951,278.34766 -26.217234,277.29149 -29.571184,274.03299 C -34.21688,269.51951 -36.959788,269.29747 -36.959788,273.43486 C -36.959788,277.26773 -38.118078,277.96853 -42.124409,276.55963 C -45.103041,275.51214 -45.143574,275.32241 -43.03003,272.31999 C -41.81313,270.59131 -41.181201,268.62915 -41.62573,267.95965 C -42.070273,267.29016 -41.692977,266.51247 -40.787301,266.23147 C -39.687076,265.89012 -39.617565,265.44622 -40.577813,264.89382 C -42.730416,263.65551 -46.837023,266.97993 -47.026128,270.11393 C -47.117373,271.62595 -48.975888,274.85328 -51.15616,277.28575 L -55.12028,281.70844 L -58.318727,278.49611 C -62.060148,274.73843 -62.305926,273.94272 -59.405173,274.97882 C -57.001674,275.8373 -53.292065,271.90804 -54.268957,269.53849 C -55.193365,267.29623 -50.635053,261.3945 -46.97966,260.10091 C -44.922858,259.37302 -44.111127,258.31382 -44.635455,257.04201 C -45.726675,254.39514 -46.884146,254.58621 -50.936876,258.08222 C -52.840496,259.72434 -55.382361,261.41949 -56.585482,261.84922 C -59.744119,262.97742 -64.347968,270.57457 -63.456808,273.18808 C -62.953614,274.66378 -63.418717,275.41463 -64.835963,275.41463 C -66.012084,275.41463 -66.974351,276.28973 -66.974351,277.3593 C -66.974351,278.42888 -67.891733,279.63165 -69.012968,280.03213 C -71.723433,281.00025 -70.551788,282.50328 -64.15818,286.26007 C -57.689581,290.06092 -54.697797,290.34938 -58.106415,286.84356 C -60.527222,284.35372 -60.489336,284.3038 -56.17948,284.3038 C -52.34426,284.3038 -51.89842,284.64171 -52.686057,286.9516 C -53.309651,288.78037 -52.627256,290.5522 -50.479987,292.67968 C -47.992488,295.14425 -46.498104,295.60753 -43.003808,294.99736 C -38.211573,294.16055 -35.785318,296.06011 -38.194792,298.76242 C -40.369484,301.20142 -38.664711,301.99577 -33.954239,300.73832 C -31.386943,300.05299 -28.810124,300.11463 -27.235437,300.89906 C -24.282004,302.37029 -24.205985,302.69266 -26.054419,305.90746 C -27.113592,307.74957 -26.879533,308.5931 -25.031195,309.595 C -22.00529,311.23522 -20.190677,311.32747 -21.212087,309.78917 z M -32.273901,293.70644 C -31.762725,291.81072 -32.072312,289.63953 -33.002559,288.59622 C -33.892163,287.5985 -34.313431,286.49682 -33.938727,286.14805 C -32.728812,285.02186 -28.773997,287.06193 -28.773997,288.81223 C -28.773997,289.74555 -27.512171,291.33184 -25.969941,292.33731 C -23.233868,294.12109 -23.271891,294.19981 -27.53782,295.58401 C -33.347153,297.46901 -33.294123,297.49003 -32.273901,293.70644 z M -44.429132,290.70486 C -44.874016,290.03483 -44.465108,288.33467 -43.520454,286.92671 C -42.05719,284.74582 -42.201846,284.07126 -44.497469,282.37064 C -47.052801,280.47763 -46.954107,280.41739 -42.587629,281.205 C -39.426972,281.7751 -37.632142,281.50676 -36.863537,280.3492 C -34.948171,277.46454 -34.077149,279.95169 -35.652272,283.80788 C -38.221301,290.09731 -42.565746,293.51123 -44.429132,290.70486 z M 82.501285,302.03737 C 82.650075,293.22 78.6835,297.22631 78.337078,306.2433 C 78.170006,310.59158 78.351853,310.85419 80.284573,309.05577 C 81.460134,307.96188 82.454435,304.81378 82.501285,302.03737 z M 92.648569,309.06648 C 94.06617,307.47659 93.875305,307.16165 91.49414,307.16165 C 89.5188,307.16165 88.882859,307.74755 89.426601,309.06648 C 89.858524,310.11413 90.378008,310.9713 90.581029,310.9713 C 90.784064,310.9713 91.714447,310.11413 92.648569,309.06648 z M 71.443673,308.51928 C 71.875392,307.86911 71.594633,306.97246 70.819793,306.52671 C 70.044953,306.08097 69.826393,305.04146 70.334116,304.21667 C 70.84184,303.3919 70.737034,303.1573 70.101203,303.69535 C 68.612535,304.95508 68.218812,309.70142 69.602975,309.70142 C 70.183661,309.70142 71.011968,309.16945 71.443673,308.51928 z M -38.324087,307.87154 C -38.324087,307.56355 -38.938021,306.95837 -39.688385,306.52671 C -40.43875,306.09506 -41.052684,306.34705 -41.052684,307.08671 C -41.052684,307.82636 -40.43875,308.43154 -39.688385,308.43154 C -38.938021,308.43154 -38.324087,308.17954 -38.324087,307.87154 z M -28.773997,304.62189 C -28.773997,303.92346 -29.424168,303.35201 -30.218817,303.35201 C -31.013466,303.35201 -31.284198,303.92346 -30.820445,304.62189 C -30.356693,305.32033 -29.706523,305.89177 -29.375626,305.89177 C -29.044729,305.89177 -28.773997,305.32033 -28.773997,304.62189 z M 104.92726,302.69984 C 104.92726,302.34115 104.20059,300.96462 103.31244,299.64089 C 101.94351,297.60058 102.35899,296.53298 106.04104,292.62958 C 108.42991,290.0971 110.38445,287.18779 110.38445,286.16443 C 110.38445,283.72434 106.87348,283.77828 104.63997,286.25268 C 103.67243,287.32458 102.09147,289.01851 101.12672,290.01698 C 100.16195,291.01545 99.405543,292.14108 99.44579,292.51838 C 99.663137,294.55595 97.638313,299.54237 96.593561,299.54237 C 94.013399,299.54237 95.534551,301.93371 98.446837,302.45582 C 103.36228,303.33705 104.92726,303.39598 104.92726,302.69984 z M 63.628807,300.04503 C 63.175451,299.62306 61.998757,299.57795 61.013897,299.94478 C 59.925555,300.35015 60.248826,300.65106 61.838165,300.71199 C 63.276355,300.76713 64.08215,300.46701 63.628807,300.04503 z M 94.012867,298.27249 C 97.762478,294.78237 97.587056,291.63466 93.671793,292.15223 C 91.983473,292.37541 90.682055,293.12947 90.779753,293.8279 C 90.87745,294.52634 90.432198,296.38354 89.790295,297.95502 C 88.322678,301.54799 90.331553,301.69903 94.012867,298.27249 z M -42.166866,296.72746 C -43.145832,295.81625 -43.781281,295.74127 -43.781281,296.53698 C -43.781281,297.2587 -43.371991,298.23016 -42.871744,298.69578 C -42.37151,299.1614 -41.645021,299.24712 -41.257329,298.88626 C -40.869636,298.52541 -41.278926,297.55395 -42.166866,296.72746 z M 85.827076,294.46285 C 85.827076,293.76441 85.176906,293.19296 84.382257,293.19296 C 83.587608,293.19296 83.316876,293.76441 83.780629,294.46285 C 84.244381,295.16128 84.894551,295.73273 85.225448,295.73273 C 85.556345,295.73273 85.827076,295.16128 85.827076,294.46285 z M -71.067247,277.95439 C -71.067247,277.25596 -71.717417,276.68451 -72.512066,276.68451 C -73.306715,276.68451 -73.577447,277.25596 -73.113695,277.95439 C -72.649942,278.65283 -71.999772,279.22427 -71.668875,279.22427 C -71.337978,279.22427 -71.067247,278.65283 -71.067247,277.95439 z M -71.10396,272.19875 C -72.510647,270.6211 -72.488532,269.23897 -70.987149,264.89693 C -69.968591,261.95124 -68.495544,259.10208 -67.713719,258.56547 C -66.80511,257.94186 -67.18961,257.09853 -68.779359,256.22818 C -71.102637,254.95625 -71.117235,254.71299 -69.000853,252.53625 C -66.353213,249.81312 -66.792149,245.57243 -69.721639,245.57243 C -71.02801,245.57243 -71.628778,246.61514 -71.410368,248.50343 C -71.196132,250.35552 -71.620074,251.11876 -72.562068,250.57686 C -73.38197,250.1052 -73.780591,248.39393 -73.447907,246.77403 C -72.879731,244.00752 -73.375381,243.77567 -81.613479,242.9545 C -86.437229,242.47368 -90.593769,241.43739 -90.850243,240.65165 C -92.085657,236.86667 -92.503091,226.957 -91.358949,228.57525 C -90.317921,230.04766 -89.842259,230.00573 -88.436131,228.31758 C -87.512433,227.20863 -85.989262,226.54194 -85.051306,226.83605 C -84.113351,227.13016 -83.345933,226.71801 -83.345933,225.92016 C -83.345933,225.12229 -82.774415,224.79827 -82.075908,225.2001 C -81.377387,225.60194 -80.396061,225.31348 -79.895158,224.55911 C -79.273775,223.62326 -80.473908,223.44761 -83.672901,224.00622 C -87.930986,224.74976 -88.350317,224.55684 -88.241159,221.90455 C -88.096666,218.39341 -91.840915,217.31521 -96.360345,219.56656 C -99.587852,221.17432 -99.635234,221.43543 -99.893237,239.03483 C -99.970101,244.27805 -99.34689,245.80744 -95.710393,249.29969 C -91.649354,253.19965 -87.285195,254.80354 -87.855704,252.18639 C -88.001602,251.51706 -87.35356,250.70751 -86.415605,250.3874 C -84.853415,249.85423 -84.085492,252.18871 -84.584771,255.95318 C -84.901697,258.3428 -82.274536,259.14145 -79.175423,257.59763 C -77.53132,256.77863 -76.629997,255.40227 -77.057963,254.36421 C -77.494007,253.30651 -76.971985,252.55677 -75.79948,252.55677 C -74.697481,252.55677 -73.795844,253.09102 -73.795844,253.74398 C -73.795844,256.03903 -76.712332,262.03908 -78.26092,262.92992 C -79.372755,263.56952 -79.150251,264.52638 -77.49342,266.23046 C -76.21012,267.55036 -75.160142,269.27119 -75.160142,270.05453 C -75.160142,270.83787 -74.085757,272.06126 -72.77262,272.77315 C -69.452368,274.57319 -69.096163,274.45058 -71.10396,272.19875 z M -97.244724,231.37121 C -96.259878,231.00438 -95.083171,231.04949 -94.629814,231.47145 C -94.176471,231.89344 -94.982267,232.19356 -96.420456,232.13842 C -98.009795,232.07749 -98.333066,231.77658 -97.244724,231.37121 z M -80.344477,267.54137 C -81.244914,266.70325 -81.981635,265.09666 -81.981635,263.97117 C -81.981635,261.77232 -86.777731,256.36642 -88.728555,256.36642 C -90.851089,256.36642 -88.553215,261.42636 -84.676424,265.28926 C -82.592186,267.36605 -80.396484,269.06523 -79.797106,269.06523 C -79.197729,269.06523 -79.44404,268.37949 -80.344477,267.54137 z M 8.0620619,256.86549 C 8.0620619,256.59101 7.1411604,256.36642 6.0156142,256.36642 C 4.8900679,256.36642 3.9691664,256.91993 3.9691664,257.59645 C 3.9691664,258.27295 4.8900679,258.49754 6.0156142,258.09552 C 7.1411604,257.69349 8.0620619,257.13999 8.0620619,256.86549 z M -19.906057,243.66761 C -19.442305,242.96917 -19.713036,242.39773 -20.507686,242.39773 C -21.302335,242.39773 -21.952505,242.96917 -21.952505,243.66761 C -21.952505,244.36604 -21.681774,244.93749 -21.350877,244.93749 C -21.01998,244.93749 -20.36981,244.36604 -19.906057,243.66761 z M -3.5344753,225.88927 C -3.070723,225.19084 -3.6121994,224.61939 -4.7377457,224.61939 C -5.8632919,224.61939 -7.1636185,225.19084 -7.6273708,225.88927 C -8.0911231,226.58771 -7.5496467,227.15915 -6.4241005,227.15915 C -5.2985542,227.15915 -3.9982277,226.58771 -3.5344753,225.88927 z M -33.680233,222.96089 C -32.182356,221.94142 -31.424802,220.10658 -31.714102,218.19884 C -32.106201,215.61326 -33.391725,214.82069 -39.416672,213.44998 C -43.394243,212.54506 -48.838394,210.65986 -51.514821,209.26064 C -57.115771,206.33248 -57.530217,206.43283 -55.944902,210.33323 C -55.272399,211.98785 -53.631366,213.19046 -52.046065,213.19046 C -50.33709,213.19046 -48.447714,214.7411 -47.017397,217.31758 C -43.133089,224.31453 -38.530464,226.26202 -33.680233,222.96089 z M -0.80587833,221.56481 C 8.2632686,219.23213 15.117832,215.84054 14.040964,214.2187 C 13.561754,213.497 13.708784,212.54181 14.367686,212.09608 C 15.026601,211.65034 16.258331,210.11912 17.104864,208.69337 C 18.329186,206.63135 18.168703,205.55475 16.320283,203.43002 C 13.465216,200.14816 7.3032391,200.82763 3.7173851,204.81969 C 0.55453192,208.34081 0.62149169,209.77857 3.8729152,208.15889 C 6.0210577,207.0888 7.024854,207.46245 9.3301091,210.19028 C 10.883772,212.02876 12.154957,213.92152 12.154957,214.39641 C 12.154957,215.49349 3.1187446,219.53987 0.66876463,219.53987 C -1.4864041,219.53987 -11.014378,223.23338 -8.9916693,223.28473 C -8.2413051,223.30378 -4.5576992,222.52982 -0.80587833,221.56481 z M -170.92832,215.47705 C -170.66876,213.45507 -171.30724,211.9615 -172.63369,211.48772 C -174.30591,210.89044 -174.75393,211.68352 -174.75393,215.24097 C -174.75393,220.49048 -171.59686,220.6853 -170.92832,215.47705 z M 65.81264,211.18055 C 64.829363,208.79549 64.449447,208.90775 63.629694,211.82557 C 63.160785,213.4946 63.515857,214.06565 64.748719,213.6253 C 65.741956,213.27054 66.220715,212.17039 65.81264,211.18055 z M -36.399689,206.27031 C -39.929935,202.46422 -43.648917,199.05348 -44.664105,198.69087 C -45.679279,198.32827 -46.509878,196.87078 -46.509878,195.45198 C -46.509878,193.32551 -47.393507,192.87237 -51.540169,192.87237 L -56.570461,192.87237 L -52.862038,196.47525 C -50.699202,198.57653 -49.484171,200.87989 -49.946723,202.00187 C -51.010344,204.58178 -42.81649,209.21768 -30.400746,213.06055 C -30.169907,213.13201 -32.869431,210.0764 -36.399689,206.27031 z M 136.88868,209.9885 C 138.33463,208.97027 139.1373,207.78313 138.6724,207.3504 C 137.50291,206.26185 129.52393,209.68253 130.34569,210.92016 C 131.34673,212.42779 133.95137,212.05692 136.88868,209.9885 z M -171.54873,204.89556 C -172.63093,202.27058 -173.38963,202.57991 -173.38963,205.64613 C -173.38963,207.08422 -172.80251,207.92309 -172.08491,207.51027 C -171.36733,207.09747 -171.12604,205.92085 -171.54873,204.89556 z M 128.41135,201.76153 C 128.74174,199.66623 128.79163,197.95189 128.52222,197.95189 C 127.60206,197.95189 125.71058,203.66396 126.31458,204.61877 C 127.35981,206.27109 127.79344,205.68017 128.41135,201.76153 z M 185.42087,202.9666 C 176.64656,201.51339 171.46926,201.53928 172.46003,203.03142 C 172.92378,203.72985 177.41104,204.22978 182.43172,204.14235 C 191.39939,203.9862 191.45205,203.96549 185.42087,202.9666 z M 118.57024,201.76153 C 118.57024,201.0631 118.29951,200.49165 117.96861,200.49165 C 117.63771,200.49165 116.98754,201.0631 116.52379,201.76153 C 116.06004,202.45997 116.33077,203.03142 117.12542,203.03142 C 117.92007,203.03142 118.57024,202.45997 118.57024,201.76153 z M 225.66768,201.76153 C 226.13143,201.0631 225.8607,200.49165 225.06605,200.49165 C 224.2714,200.49165 223.62123,201.0631 223.62123,201.76153 C 223.62123,202.45997 223.89196,203.03142 224.22286,203.03142 C 224.55375,203.03142 225.20392,202.45997 225.66768,201.76153 z M -88.391682,196.36454 C -89.230835,189.83133 -92.859637,186.52296 -99.186503,186.52296 C -101.72965,186.52296 -103.81041,186.88113 -103.81041,187.3189 C -103.81041,187.93718 -88.817875,201.51021 -87.90973,201.7141 C -87.793533,201.74019 -88.010415,199.33289 -88.391682,196.36454 z M 124.36264,198.9043 C 125.49737,196.03224 123.97477,193.87195 121.92942,195.45198 C 120.92143,196.23062 120.43289,197.6831 120.84375,198.67967 C 121.76548,200.91543 123.52374,201.02767 124.36264,198.9043 z M 131.45372,191.31993 C 134.74296,186.94888 133.97879,186.08407 129.46858,189.07335 C 127.20868,190.57119 125.71006,192.32444 126.13836,192.96948 C 127.40632,194.87911 129.19255,194.32478 131.45372,191.31993 z M -50.207345,187.62231 C -47.048189,186.13166 -41.700726,182.39208 -38.324087,179.31213 C -34.947448,176.23219 -30.617588,172.28347 -28.702167,170.53718 C -26.672364,168.68661 -24.348445,167.67328 -23.131286,168.10803 C -21.948562,168.53046 -20.968709,168.14188 -20.871735,167.21192 C -20.777558,166.30882 -20.088027,162.99842 -19.339464,159.85546 C -17.363837,151.56046 -17.513173,149.52649 -20.066171,149.95821 C -21.279783,150.16344 -22.963805,149.33303 -23.808442,148.11286 C -25.06593,146.29627 -24.666177,145.3092 -21.60188,142.66447 C -17.070677,138.75367 -16.885323,136.50692 -20.879075,133.90318 C -22.956779,132.54862 -23.806982,130.81605 -23.604957,128.34826 C -23.406411,125.92286 -24.590335,123.42851 -27.262218,120.6429 L -31.213077,116.52391 L -33.58963,122.31618 C -35.236516,126.33003 -36.74704,128.10844 -38.509441,128.10844 C -40.331543,128.10844 -41.052684,127.18252 -41.052684,124.84303 C -41.052684,121.114 -44.458,117.15638 -45.85556,119.26119 C -46.870462,120.7897 -52.160052,119.56811 -53.651558,117.46077 C -54.202843,116.68186 -54.725956,114.33023 -54.814063,112.23493 L -54.974231,108.42528 L -56.396608,112.5524 C -57.84713,116.76118 -60.433645,117.7027 -64.245754,115.40963 C -65.930772,114.39605 -65.950855,114.1752 -64.359441,114.15919 C -63.296434,114.1485 -62.816815,113.77661 -63.293651,113.33279 C -64.837178,111.89608 -70.855535,116.53083 -71.309028,119.50546 C -71.927314,123.56101 -81.352789,124.4297 -84.166586,120.69045 C -86.241971,117.93248 -91.531724,118.30053 -91.531724,121.2029 C -91.531724,122.13099 -93.174708,123.63582 -95.182805,124.54697 C -100.28502,126.86206 -101.1861,129.93571 -96.519122,129.1053 C -92.249959,128.34568 -86.861308,132.57409 -90.460313,133.85958 C -91.576037,134.2581 -93.040966,134.48807 -93.715693,134.37062 C -98.729408,133.49792 -100.04717,134.51098 -99.175452,138.56795 C -98.689721,140.82851 -97.362913,143.54288 -96.226971,144.59989 C -94.39304,146.3064 -94.019645,146.30831 -92.894167,144.61689 C -91.77798,142.93945 -91.173159,142.9678 -87.827381,144.85435 C -82.419902,147.90339 -82.928608,150.35994 -88.935178,150.20376 L -93.842273,150.07617 L -89.425766,158.45798 C -84.65244,167.51698 -83.534629,168.72363 -72.886525,176.31179 C -69.009775,179.07449 -64.178917,183.35936 -62.151297,185.83374 C -60.123667,188.30811 -57.899192,190.33261 -57.207984,190.33261 C -56.516789,190.33261 -53.366501,189.11297 -50.207345,187.62231 z M -64.536868,177.85408 C -67.268153,176.8541 -65.898629,173.89391 -62.861551,174.2329 C -61.746946,174.3573 -60.694731,173.88765 -60.523266,173.18921 C -60.351814,172.49078 -62.491116,171.91933 -65.277287,171.91933 C -69.081551,171.91933 -70.462126,171.34655 -70.821277,169.61922 C -71.240895,167.60109 -70.658053,167.43075 -66.06727,168.22973 C -63.189528,168.73057 -59.439962,169.48621 -57.734903,169.90893 L -54.634794,170.67753 L -58.417052,174.69372 C -61.046802,177.48613 -62.911593,178.44914 -64.536868,177.85408 z M -24.681102,164.93499 C -24.681102,164.23655 -24.030932,163.66511 -23.236283,163.66511 C -22.441633,163.66511 -22.170902,164.23655 -22.634654,164.93499 C -23.098407,165.63342 -23.748577,166.20487 -24.079474,166.20487 C -24.410371,166.20487 -24.681102,165.63342 -24.681102,164.93499 z M -65.359404,144.26306 C -67.447654,141.92101 -63.145379,137.48745 -57.908073,136.58434 C -54.419767,135.98282 -53.486546,136.30814 -52.920471,138.32299 C -52.385284,140.2279 -53.378575,141.2926 -57.211708,142.92279 C -59.95489,144.08943 -62.590192,145.22731 -63.067942,145.45138 C -63.545692,145.67546 -64.576856,145.14072 -65.359404,144.26306 z M -26.72755,142.07713 C -26.263797,141.37869 -25.613627,140.80725 -25.28273,140.80725 C -24.951833,140.80725 -24.681102,141.37869 -24.681102,142.07713 C -24.681102,142.77556 -25.331272,143.34701 -26.125921,143.34701 C -26.920571,143.34701 -27.191302,142.77556 -26.72755,142.07713 z M -67.429113,131.07149 C -69.158061,129.4622 -68.322919,128.16609 -64.313505,126.23623 C -59.343179,123.84385 -54.159718,123.74448 -52.145959,126.00299 C -50.013342,128.3948 -51.594168,129.37832 -57.571133,129.37832 C -60.403235,129.37832 -63.099853,129.94977 -63.563605,130.6482 C -64.537346,132.11471 -66.121924,132.28823 -67.429113,131.07149 z M -35.240472,184.56675 C -33.184638,182.7924 -31.502594,181.05795 -31.502594,180.71243 C -31.502594,179.57831 -36.25405,182.42242 -38.891881,185.13547 C -42.536932,188.88446 -39.73806,188.44853 -35.240472,184.56675 z M -159.74665,183.34826 C -159.74665,181.60217 -160.36058,180.17356 -161.11095,180.17356 C -161.86131,180.17356 -162.47525,181.60217 -162.47525,183.34826 C -162.47525,185.09435 -161.86131,186.52296 -161.11095,186.52296 C -160.36058,186.52296 -159.74665,185.09435 -159.74665,183.34826 z M 18.97645,181.44344 C 18.97645,180.04657 19.766761,178.90368 20.732698,178.90368 C 22.725542,178.90368 23.58741,172.56108 22.322801,167.20186 C 21.087988,161.96886 19.428742,162.89276 17.841708,169.69704 C 14.946339,182.11058 14.831315,183.9832 16.96411,183.9832 C 18.070897,183.9832 18.97645,182.84031 18.97645,181.44344 z M -113.0524,178.89893 C -117.58148,176.32866 -120.18199,175.70034 -120.18199,177.17633 C -120.18199,178.84145 -115.29139,181.36387 -111.9962,181.39831 C -108.72145,181.43252 -108.76356,181.33287 -113.0524,178.89893 z M 85.890448,178.20595 L 89.158038,174.96847 L 85.787184,176.12698 C 83.933212,176.76416 82.217825,178.22103 81.975225,179.36447 C 81.374374,182.1963 82.071053,181.99015 85.890448,178.20595 z M 119.1528,178.24147 C 120.59875,177.22324 121.51965,176.16942 121.19924,175.89963 C 119.95918,174.85549 104.92726,174.30804 104.92726,175.30703 C 104.92726,175.88832 106.00164,176.38209 107.31478,176.4043 C 108.62791,176.42652 110.89403,177.28369 112.35058,178.30912 C 115.56746,180.57386 115.84454,180.57111 119.1528,178.24147 z M -20.247132,173.04192 C -18.933995,172.61079 -17.85961,171.37897 -17.85961,170.30453 C -17.85961,168.6004 -18.178132,168.61931 -20.354557,170.45263 C -21.726782,171.60854 -23.568585,172.55427 -24.447452,172.55427 C -25.32632,172.55427 -26.0454,173.17334 -26.0454,173.92997 C -26.0454,174.68662 -25.277983,174.97271 -24.340027,174.56574 C -23.402072,174.15877 -21.560269,173.47304 -20.247132,173.04192 z M 48.530266,162.07775 C 48.151796,161.20471 47.842127,161.91902 47.842127,163.66511 C 47.842127,165.41119 48.151796,166.1255 48.530266,165.25246 C 48.908736,164.37941 48.908736,162.9508 48.530266,162.07775 z M 54.448211,159.26037 C 54.448211,158.12435 53.648336,157.68111 52.401763,158.12635 C 51.276217,158.52839 50.355315,159.36761 50.355315,159.99133 C 50.355315,160.61504 51.276217,161.12534 52.401763,161.12534 C 53.527309,161.12534 54.448211,160.2861 54.448211,159.26037 z M -4.8689093,125.88615 C -5.2891133,124.31467 -6.3008361,123.02891 -7.1171777,123.02891 C -8.0005883,123.02891 -8.1983297,123.92854 -7.6056512,125.25121 C -7.0579535,126.47347 -6.6420199,130.04501 -6.6813526,133.18796 L -6.7528691,138.90243 L -5.4288856,133.8229 C -4.7006913,131.02916 -4.4487054,127.45762 -4.8689093,125.88615 z M 7.3035938,129.58626 C 7.0607759,128.42425 6.4300198,125.75916 5.9019135,123.66386 L 4.9417202,119.85421 L 3.9092873,123.02891 C 3.3414527,124.775 2.815652,127.72159 2.7408612,129.5769 C 2.6317719,132.28287 3.113301,132.82643 5.1749743,132.32461 C 6.6683218,131.96112 7.5601092,130.81388 7.3035938,129.58626 z M -101.76396,111.59999 C -101.30021,110.90155 -101.91414,110.33011 -103.12826,110.33011 C -104.34238,110.33011 -104.95631,110.90155 -104.49256,111.59999 C -104.02881,112.29842 -103.41487,112.86987 -103.12826,112.86987 C -102.84165,112.86987 -102.22772,112.29842 -101.76396,111.59999 z M -94.842959,111.89801 C -92.78782,110.58817 -91.430889,106.72835 -92.757287,105.96533 C -94.218055,105.125 -100.01186,110.90272 -98.820462,112.01167 C -97.652499,113.0988 -96.683534,113.07112 -94.842959,111.89801 z M -9.6738185,111.54127 C -9.6738185,108.8889 -0.23611999,91.528413 1.49834,90.990263 C 2.6715139,90.626277 2.2328919,89.91607 0.21371651,88.910223 C -2.4979768,87.559412 -2.8523261,87.681588 -2.8523261,89.967335 C -2.8523261,92.989652 -5.3352948,93.297255 -9.0719856,90.737874 C -11.425591,89.125811 -12.061832,89.22109 -14.789938,91.594167 C -16.478257,93.062784 -17.85961,95.099597 -17.85961,96.120442 C -17.85961,98.87296 -11.884678,112.8296 -10.697042,112.85123 C -10.134269,112.86149 -9.6738185,112.27199 -9.6738185,111.54127 z M -120.5135,100.70907 C -121.85623,99.459276 -124.27489,101.3779 -124.27489,103.69282 C -124.27489,105.63127 -124.09544,105.62779 -121.96857,103.64812 C -120.7001,102.46742 -120.04532,101.14485 -120.5135,100.70907 z M -57.424266,81.122843 C -57.424266,80.424408 -57.694997,79.852962 -58.025894,79.852962 C -58.356791,79.852962 -59.006961,80.424408 -59.470714,81.122843 C -59.934466,81.821277 -59.663735,82.392724 -58.869085,82.392724 C -58.074436,82.392724 -57.424266,81.821277 -57.424266,81.122843 z M -91.531724,74.213446 C -91.531724,72.873112 -94.149963,72.310009 -94.928718,73.482845 C -95.400029,74.192671 -94.828524,74.773438 -93.658693,74.773438 C -92.488861,74.773438 -91.531724,74.521443 -91.531724,74.213446 z M 187.35593,261.02461 C 187.79237,259.74523 188.14946,258.17375 188.14946,257.53243 C 188.14946,256.89113 188.7634,256.36642 189.51376,256.36642 C 191.48918,256.36642 191.19132,258.06291 188.72023,260.88576 C 186.74567,263.14142 186.62981,263.15321 187.35593,261.02461 z M -142.69292,161.12534 C -141.19219,160.52508 -138.42948,160.03397 -136.55357,160.03397 C -133.4446,160.03397 -133.38424,160.13053 -135.87143,161.12534 C -137.37215,161.7256 -140.13486,162.21672 -142.01077,162.21672 C -145.11975,162.21672 -145.1801,162.12016 -142.69292,161.12534 z"
       id="path7136"
       style="fill:#000000" />
  </g>
</svg>
