<?xml version="1.0" encoding="utf-8"?>
<!-- Generator: Adobe Illustrator 16.0.0, SVG Export Plug-In . SVG Version: 6.00 Build 0)  -->
<!DOCTYPE svg PUBLIC "-//W3C//DTD SVG 1.1//EN" "http://www.w3.org/Graphics/SVG/1.1/DTD/svg11.dtd">
<svg version="1.1" id="Layer_1" xmlns="http://www.w3.org/2000/svg" xmlns:xlink="http://www.w3.org/1999/xlink" x="0px" y="0px"
	 width="100px" height="100px" viewBox="0 0 100 100" enable-background="new 0 0 100 100" xml:space="preserve">
<path fill="#FFCB0A" d="M50.077,21.204c0,0-5.816,16.432-17.702,22.754c-11.886,6.324-12.135,23.521,0.761,29.838
	c12.893,6.323,16.94,26.565,16.94,24.528c0-36.409-21.242-27.814-21.242-39.952C28.835,46.235,50.077,51.799,50.077,21.204z
	 M49.924,1.532c0,0,5.814,16.434,17.702,22.755c11.884,6.325,12.136,23.516-0.763,29.84c-12.893,6.32-16.939,26.564-16.939,24.525
	c0-36.412,21.239-27.815,21.239-39.952C71.163,26.565,49.924,32.128,49.924,1.532z"/>
<path fill="#C71A8B" d="M50.077,34.275c0,0-3.221,10.344-9.8,14.323c-6.575,3.98-6.712,14.806,0.422,18.783
	c7.138,3.98,9.377,16.723,9.377,15.439c0-22.922-11.759-17.51-11.759-25.147C38.318,50.035,50.077,53.535,50.077,34.275z
	 M49.924,14.604c0,0,3.219,10.343,9.801,14.322c6.575,3.981,6.711,14.803-0.423,18.784c-7.139,3.978-9.378,16.724-9.378,15.437
	c0-22.919,11.756-17.506,11.756-25.146S49.924,33.863,49.924,14.604z"/>
<path fill="#1DB359" d="M50.077,46.379c0,0-1.12,5.195-3.407,7.195c-2.286,1.996-2.332,7.437,0.145,9.434
	c2.484,1.998,3.262,8.397,3.262,7.756c0-11.513-4.089-8.795-4.089-12.632C45.988,54.294,50.077,56.05,50.077,46.379z M49.924,26.705
	c0,0,1.12,5.198,3.408,7.199c2.288,1.996,2.329,7.436-0.146,9.433c-2.486,1.999-3.263,8.397-3.263,7.753
	c0-11.509,4.093-8.792,4.093-12.629C54.016,34.62,49.924,36.38,49.924,26.705z"/>
</svg>
