<?xml version="1.0" encoding="utf-8"?>
<!-- Generator: Adobe Illustrator 16.0.3, SVG Export Plug-In . SVG Version: 6.00 Build 0)  -->
<!DOCTYPE svg PUBLIC "-//W3C//DTD SVG 1.1//EN" "http://www.w3.org/Graphics/SVG/1.1/DTD/svg11.dtd">
<svg version="1.1"
	 id="Layer_1" xmlns:inkscape="http://www.inkscape.org/namespaces/inkscape" xmlns:rdf="http://www.w3.org/1999/02/22-rdf-syntax-ns#" xmlns:cc="http://web.resource.org/cc/" xmlns:dc="http://purl.org/dc/elements/1.1/" xmlns:sodipodi="http://sodipodi.sourceforge.net/DTD/sodipodi-0.dtd" xmlns:svg="http://www.w3.org/2000/svg" xmlns:ns1="http://sozi.baierouge.fr"
	 xmlns="http://www.w3.org/2000/svg" xmlns:xlink="http://www.w3.org/1999/xlink" x="0px" y="0px" width="288px" height="289.429px"
	 viewBox="0.003 71.28 288 289.429" enable-background="new 0.003 71.28 288 289.429" xml:space="preserve">
<path d="M143.31,92.702c1.333,0.802,0.398,0.172,2.04,0c0.119,1.224,0.52,1.639,0,2.72c-1.241-0.301-1.81,0.601-2.38,0
	c-0.258-1.281,0.418-1.624,0.344-2.72H143.31z M136.513,93.723h1.701c-0.246,1.041,0.586,1,0.34,2.039
	c-0.582-0.124-0.642,0.266-0.681,0.681c-0.966,0.058-0.665-1.149-2.042-0.681c0.542-1.299,0.542-0.399,0-1.699
	c0.291-0.063,0.321,0.132,0.34,0.338c0.32-0.009,0.246-0.416,0.332-0.679H136.513z M151.127,94.403c0.303,0.209,0.609,0.411,0.682,0
	c0.98,0.449,0.695,2.156,0.34,3.061c-0.774,0.466-1.278-0.876-1.361,0c-0.518-0.615-1.225-1.042-1.021-2.381
	c0.677,0.224,1.144,0.076,1.353-0.68H151.127z M160.984,96.443c1.148,0.392,0.534,0.676,2.039,0.34
	c0.531,1.583,1.286,2.054,2.719,2.039c0.948,1.515-0.444,1.809-0.338,3.401c-0.06,0.737,1.205,0.153,1.7,0.34
	c1.157,2.131-1.163,2.725-2.042,2.72c-0.785-0.971-0.563-2.051,0-3.06c-0.099-1.304-2.26-1.827-1.018-3.401
	c-1.117,0.406-1.145,0.95-2.381,0.34c-0.498,0.633-1.363,0.902-1.358,2.039c-0.693-0.892-2.41-0.763-2.38-2.379
	c0.427,0.929,2.484-2.126,2.38,0.34c0.553-0.596,0.467-1.813,0.688-2.72H160.984z M142.29,96.784c0.318,1.36,0.918,2.019,0,3.06
	c-1.043-0.088-1.527-0.738-2.379-1.021c-0.271-1.741,0.603-2.341,2.384-2.039H142.29z M154.531,96.784
	c0.287-0.064,0.32,0.133,0.34,0.338c0.105,0.462,0.852,0.283,1.357,0.34c0.341,1.473-0.379,1.887-0.678,2.72
	c-0.584,0.071-0.883-0.58-1.021,0c-1.267-0.703-0.479-2.505-0.013-3.398H154.531z M149.763,99.503
	c-0.132,0.998-1.114,1.152-1.358,2.039c-0.581,0.071-0.88-0.58-1.02,0c-0.997-0.138-0.271-1.995-1.018-2.379
	c0.725-0.412,2.494-1.149,3.404,0.34H149.763z M126.312,98.823c0.921,0.182,0.845,0.273,2.039,0.681
	c0.277,1.749-0.866,2.079-2.379,2.039c0.39-1.069-0.533-0.826-0.681-1.359c-0.504-1.294,1.512-0.067,1.02-1.36H126.312z
	 M134.129,98.823c0.196,0.71,0.844,0.971,0.681,2.04c-0.332,0.01-0.266,0.417-0.34,0.68c-2.233,0.501-2.828,0.655-3.061-2.039
	c1.303-0.593,1.303-0.366,2.729-0.681H134.129z M94.008,99.163h1.362c0.215,0.777,0.674,2.05,0,2.72
	C93.99,101.713,93.311,100.465,94.008,99.163z M138.885,99.844c1.322,0.573,1.937,2.983,0.34,3.739
	c-0.8-0.698-0.564-0.488-1.699-1.021c-0.327-0.634,1.018-1.137,0-1.361c0.406-0.492,1.352-0.454,1.352-1.357H138.885z
	 M104.55,100.183c1.758,0.096,1.732,1.654,1.358,3.061c-0.25-0.772-1.436-0.602-2.039-1.02
	C103.399,100.847,104.605,101.147,104.55,100.183z M150.106,101.542c1.857-0.271,2.651,0.521,2.381,2.379
	c-2.126,0.207-3.011-0.685-2.384-2.379H150.106z M160.309,101.542c0.699,0.675,0.321,0.675,1.018,0
	c0.611-0.043,0.72,0.416,1.361,0.34v2.039c-0.869,0.041-1.749,0.065-1.699,1.021c-0.492-0.416-0.457-1.358-1.361-1.359
	c-0.172-1.07,0.479-1.331,0.676-2.042H160.309z M172.549,101.883c1.283,0.304,2.023,1.152,2.039,2.72
	C173.003,105.852,170.766,103.726,172.549,101.883z M146.026,105.622c-0.902,0.399-2.003-0.651-2.039,0
	c-1.074-0.578-0.423-1.582-0.341-2.72c2.286-0.967,3.221,0.788,2.385,2.72H146.026z M93.667,102.903
	c-0.246,1.04,0.587,0.999,0.341,2.04c0.581,0.014,0.88-0.253,1.021-0.681c0.318,0.193,0.514,0.946,0.681,0.34
	c0.958,0.401-0.382,3.1,1.019,3.061c1.064-0.782,2.423-1.052,2.382,1.359c-0.717,0.281-1.329,1.4-2.043,0.68
	c-0.339,3.368-2.468,5.399,1.699,6.119v1.359c-1.015,0.009-0.847,0.857-2.716,0.681c-0.409-0.937-0.739-1.421-0.34-2.381
	c-0.634,0.047-1.137,0.224-1.362,0.681c-0.526-0.494-0.714-1.328-0.681-2.38c1.05,0.253,0.416-1.173,1.703-0.681
	c-1.088-2.491,1.621-3.256,0.34-5.78c-0.327,0.583-1.128,0.685-1.362,1.359c-0.534-0.145-0.29-1.069-1.358-0.68
	c0.027-0.483,0.056-0.964-0.34-1.021c0.343-1.2,0.586-0.623,1.358-1.02c-1.23-0.81-2.455-0.211-2.38-2.72
	C92.031,102.852,92.83,102.858,93.667,102.903z M156.228,102.903c0.066,1.314,0.015,2.505-0.341,3.401
	c-1.242-0.456-2.258-1.791-1.698-3.061C155.393,102.945,155.024,103.199,156.228,102.903L156.228,102.903z M129.716,103.583
	c0.164,1.298-0.097,2.17-0.681,2.72c-0.303-0.209-0.61-0.411-0.681,0c-1.015-0.232-1.139-1.354-1.021-2.72
	c1.389,0.092,1.303-0.446,2.372,0H129.716z M180.366,103.242v2.38c-1.876-0.063-2.006,1.622-3.06,2.38
	c0.459,1.003,0.426,2.104-0.34,2.72c-0.824-0.921-1.503-0.011-2.039-1.359c-0.333,0.917-1.174,1.32-1.36,2.379
	c-1.071,0.165-0.77-1.043-2.039-0.68v-2.381c1.872-0.131,2.36,0.368,3.737,0v-3.06c2.445,0.097,2.691-2.271,5.113-2.38H180.366z
	 M157.936,104.263c0.961-0.054,0.792,1.021,1.699,1.021c0.149,1.168-0.133,1.905-0.34,2.72c-1.768-0.095-1.5-0.456-2.381-1.021
	c-0.368-1.627,0.849-1.654,1.033-2.72H157.936z M119.848,104.603c0.958,0.29,1.528,0.966,1.36,2.379
	c-0.578-0.125-0.642,0.266-0.681,0.681c-1.048,0.254-0.414-1.174-1.701-0.681v-2.039c0.396-0.055,0.606,0.075,0.681,0.34
	C119.839,105.274,119.774,104.867,119.848,104.603z M139.229,104.943c0.29-0.063,0.321,0.133,0.34,0.34
	c-0.055,0.736,1.206,0.154,1.699,0.339c0.378,0.643,0.434,1.606,0.681,2.381c-1.284-0.493-0.652,0.934-1.699,0.68
	C139.316,107.346,138.776,107.148,139.229,104.943L139.229,104.943z M171.186,104.943c2.176,2.484-3.259,4.894-2.721,0.68
	c0.836-0.301,1.242-1.019,2.717-0.68H171.186z M131.413,105.622c2.643-0.625,3.544,2.431,1.702,3.401
	c-0.983-1.277-1.426-1.221-1.696-3.401H131.413z M148.41,105.962c0.126,0.37,1.49,1.422,1.358,0c0.983,0.449,0.7,2.154,0.343,3.061
	c-0.947-0.774-1.682,0.343-2.723-0.341C147.008,107.061,147.819,106.624,148.41,105.962L148.41,105.962z M142.622,107.664
	c1.06,0.188,2.216,0.276,3.059,0.681c0.009,0.799-0.586,1-0.339,2.039c-0.85-0.043-1.066-0.649-1.358,0.34
	c-0.75-0.704-1.623-1.304-1.352-3.06H142.622z M162.004,107.664c1.301,0.4,2.252,1.146,2.041,3.06
	c0.756-2.41,2.701,1.303,1.699,2.72c-1.422-0.164-2.163-1.01-2.039-2.72c-1.096-0.075-1.438,0.6-2.72,0.341
	c-0.409-0.937-0.739-1.421-0.339-2.381c0.896,0.095,1.708,0.113,1.363-1.02H162.004z M179.69,108.002
	c1.603,0.659,1.897,3.583-0.341,3.739c-0.586-0.773-1.406-1.313-1.356-2.72C178.669,109.706,179.455,108.771,179.69,108.002
	L179.69,108.002z M124.271,109.023c0.526,0.929,1.663-0.465,2.382,1.359c0.182,1.876-1.813,0.563-1.702,1.7
	c-0.608,0.043-0.716-0.417-1.358-0.341c0.246-1.038-0.349-1.237-0.341-2.04c0.578,0.016,0.873-0.251,1.021-0.678H124.271z
	 M138.885,110.723c-0.042,0.608,0.418,0.716,0.34,1.359c0.091,1.11-1.32,0.72-1.358,1.7c-1.352-0.887-2.016-3.504,1.008-3.059
	H138.885z M115.089,111.063c1.395,0.009,2.233,1.854,1.358,3.059h-1.358C114.669,113.161,114.669,112.023,115.089,111.063z
	 M146.715,111.743c0.818-0.14,0.739,0.621,1.698,0.34c0.208,1.653,0.208,1.746,0,3.4c-0.64,0.55-1.573-0.137-2.038,0.34
	c-1.229-1.361,0.565-2.592,0.344-4.081H146.715z M140.925,112.083c1.055-0.034,1.624,0.414,2.38,0.68
	c0.442,1.499-0.02,1.393-0.681,2.381c-0.855-0.5-1.137-0.376-2.379-1.7c-0.418-1.103,1.094-0.261,0.676-1.361H140.925z
	 M168.469,112.422c1.74-0.894,2.863,4.023-0.339,3.401c-0.053-1.082-0.77-1.496-0.681-2.72
	C168.125,113.219,168.506,113.033,168.469,112.422z M156.572,113.102c0.289-0.063,0.32,0.133,0.338,0.34
	c0.146,0.76,1.678,0.139,2.381,0.34v2.039c-0.252,0.542-1.664-0.077-1.357,1.021c-0.86-0.849-1.487-1.916-1.364-3.741H156.572z
	 M174.934,113.442c2.114-0.253,3.592,0.997,2.38,2.72c-0.444-0.24-1.801-0.182-2.042,0c-0.736-0.651-0.75-1.772-0.344-2.72H174.934z
	 M129.028,113.783c0.901,0.002,1.942-0.127,2.38,0.339v2.041h-2.039c-0.627-0.98-0.553-1.064-0.344-2.38H129.028z M152.822,114.803
	c-0.313,0.93-0.822,1.669-1.699,2.04c-0.927-0.321-0.777-1.716-1.018-2.721C151.52,113.252,151.814,114.386,152.822,114.803z
	 M172.881,113.783c0.471,0.437,0.338,1.477,0.34,2.38c-0.774-0.096-1.278,0.081-1.358,0.681c-0.608-0.104-0.228-2.905-1.021-1.7
	c-0.725-0.525,0.947-1.518,2.028-1.361H172.881z M117.128,114.462c0.436,0.472,1.605,0.209,2.039,0.681
	c0.246,1.039-0.345,1.238-0.34,2.039c-1.314,0.709-1.469-1.422-2.039-0.339C115.854,116.316,116.756,114.802,117.128,114.462z
	 M162.692,114.803c1.765,0.204,2.501,2.538,1.36,3.739c-0.681-0.033-1.475-1.656-1.702-1.02c-0.749-0.043-0.144-1.443-0.339-2.041
	c0.59,0.49,0.762,0.313,0.676-0.678H162.692z M139.229,116.163c-0.219,1.353,0.898,1.367,0.681,2.72
	c-0.581-0.015-0.88,0.253-1.021,0.681c-0.597-0.853-0.562-0.24-1.358-0.681v-2.039c1.045,0.252,0.651-0.934,1.696-0.681H139.229z
	 M135.149,116.843c0.467,0.438,0.334,1.476,0.34,2.379c-1.378-0.471-1.077,0.738-2.042,0.68c0.672-0.771-1.04-1.22-0.681-2.72
	c0.787-0.108,1.266-0.537,2.372-0.339H135.149z M143.654,116.843c0.82-0.14,0.739,0.62,1.699,0.339c0.119,1.224,0.521,1.64,0,2.72
	c-0.491,0.187-1.757-0.397-1.699,0.341c-0.816,0.134,0.188-1.548-1.021-1.021C142.301,117.201,143.53,117.754,143.654,116.843
	L143.654,116.843z M171.529,117.183c1.316,0.232,1.77,1.705,1.358,2.72c-1.632,0.5-1.417-0.848-2.72-0.68
	c-0.139-0.818,0.621-0.738,0.339-1.7c0.479,0.03,0.958,0.057,1.021-0.34H171.529z M77.009,117.523
	c0.449,0.348,1.253,0.333,1.701,0.68c-0.282,0.961,0.479,0.881,0.34,1.7c-0.678,0.641-1.453,0.32-1.702,0.681
	C76.239,119.626,76.453,118.843,77.009,117.523z M124.271,117.523c0.675,0.667,0.219,1.943,0,2.72h-1.699
	C122.054,118.697,122.042,117.15,124.271,117.523z M155.551,118.202c0.146,1.168-0.135,1.906-0.338,2.72
	c-0.262-0.232-1.08-1.432-1.021,0c-0.706,0.305-0.094-2.314-0.682-1.02c-0.75-0.043-0.144-1.442-0.34-2.039
	c0.958-0.398,1.449-0.068,2.384,0.339H155.551z M177.307,117.862c1.521-0.275,1.887,0.604,2.039,1.7
	c-0.136,0.813,1.549-0.189,1.021,1.02c-1.226-0.616-1.001,0.059-2.042,0.339c0.045-0.842-0.414-0.577-0.336,0
	c-0.32-0.193-0.516-0.945-0.682-0.339C176.299,119.986,177.502,118.771,177.307,117.862z M83.47,118.202
	c0.669,0.804,2.089,0.859,1.698,2.72c-1.561,0.752-2.271,0.762-3.401,0C81.29,118.97,82.928,119.134,83.47,118.202z
	 M147.047,118.542h1.697c-0.16,0.726,0.484,0.647,1.019,0.681c0,0.565,0.003,1.133,0,1.699c-0.708-0.506-1.274,0.34-1.698,0.34
	c-0.454-0.339-0.668-0.919-1.359-1.02c-0.27-0.961,0.492-0.88,0.345-1.7H147.047z M157.936,119.223c1.07,0.381,0.77,0.031,2.039,0
	c0.02,1.114,0.965,1.299,0.682,2.72c-1.002,0.804-1.863,0.666-3.061,0c-0.029-0.539,0.163-1.298-0.34-1.359
	c0.148-0.535,1.07-0.292,0.688-1.361H157.936z M91.288,120.242c1.198,1.034,0.872-0.067,2.379,0c-0.113,0.682,0.07,1.064,0.681,1.02
	c-0.368,2.334-0.854,0.826-2.72,2.041C90.94,122.129,91.181,121.796,91.288,120.242z M89.591,121.603
	c0.052,0.961-1.021,0.792-1.021,1.7c-1.126-0.292-2.545-0.1-2.379-2.381C87.656,120.472,88.417,120.98,89.591,121.603z
	 M111.349,120.582c0.402,0.392,1.203,0.385,2.039,0.339c0.205,1.26,0.562,1.971-0.338,2.721c-0.506-0.48-0.733-1.085-0.681,0.339
	c-0.625-0.509-0.849-1.418-1.701-1.699C110.814,121.635,111.401,121.428,111.349,120.582z M128.684,120.582
	c1.271-0.364,0.968,0.845,2.039,0.68c0.327,1.459-0.954,1.313-1.018,2.381c-0.453,0.049-1.265-1.145-1.362-0.34
	c-1.032-0.739,0.111-2.135,0.344-2.72H128.684z M141.946,123.982c-0.526-0.773-0.709-0.642-1.699-0.339
	c-0.432-0.815-1.243-1.252-1.021-2.721c2.655-0.902,3.97,0.891,2.716,3.061H141.946z M137.533,122.961
	c-0.849,0.287-1.824,0.445-3.061,0.341C133.354,120.227,138.258,120.083,137.533,122.961z M150.451,120.921
	c1.223-0.074,3.177,0.208,3.4,2.04c-0.25,0.542-1.663-0.077-1.357,1.021c-0.852,0.45-1.064-1.344-1.361-0.339
	c-0.799-0.347-0.713-1.563-0.688-2.721H150.451z M174.934,122.283v2.039c-1.371,0.566-0.658,0.285-2.72,0v-2.039
	c1.045-0.873,1.573-0.505,2.716,0H174.934z M146.37,122.283v2.039h-2.72c-0.787-2.277,1.34-2.987,2.717-2.039H146.37z
	 M167.449,121.943c0.677,0.343,1.191,0.849,1.701,1.359c0.163,1.07-1.044,0.769-0.682,2.04c-1.28,0.568-1.55-1.583-2.039-0.681
	C165.041,122.781,167.758,123.219,167.449,121.943L167.449,121.943z M148.742,123.982c0.708,0.199,1.1,0.715,1.699,1.021v1.699
	c-0.755,0.562-1.843-0.072-2.039,0.34c-0.816,0.135,0.188-1.547-1.021-1.02c-0.138-0.818,0.622-0.739,0.339-1.7
	C148.68,124.256,148.704,125.789,148.742,123.982L148.742,123.982z M154.188,124.322c1.193,0.305,1.117-0.065,2.039,0.681
	c0.149,1.168-0.133,1.905-0.341,2.72c-1.585-0.188-2.544-1.78-1.696-3.401H154.188z M99.449,124.663
	c0.29-0.063,0.321,0.133,0.34,0.34c0.313,0.38,0.633,0.107,1.701,0.341c0.197,1.103-0.232,1.582-0.34,2.379
	c-1.163-0.139-0.432-0.918-1.701-0.34C99.028,126.331,98.366,125.51,99.449,124.663z M134.129,125.682
	c-0.061,2.296-3.959,2.495-3.401-0.68c1.647-0.232,2.605-0.511,3.404,0.68H134.129z M137.189,124.663
	c0.675,0.004,0.432,0.927,1.361,0.681c0.246,1.607-0.487,2.234-1.021,3.059c-0.639-0.949-2.067-1.105-1.702-3.059
	c0.59-0.079,1.696,0.341,1.352-0.681H137.189z M123.927,125.003c1.223,0.022,1.592,0.901,2.039,1.699
	c-0.374,0.873-1.308,1.186-2.039,1.7C123.166,127.209,123.166,126.195,123.927,125.003z M115.089,126.022h1.698
	c-0.097,0.607,0.321,0.697,0.34,0.34c0.752,0.042,0.144,1.442,0.341,2.039c-0.675-0.704-0.777,0.363-1.358,0.681
	c-0.459-0.069-0.634-1.412-0.681,0c-0.37-0.083-0.232-0.676-0.681-0.681C114.476,127.223,115.255,127.095,115.089,126.022z
	 M140.925,129.083c-0.716-1.756,0.537,0.884-0.681,0.339c0.038-1.685-0.334-1.669,0-3.06c1.053-0.446,0.971,0.092,2.379,0v2.72
	c-1.057-0.237-0.664-0.237-1.708,0H140.925z M129.372,131.122c-0.51-0.51-1.024-1.017-1.702-1.359
	c-0.345-1.479,0.706-1.563,1.021-2.379c0.767,0.932,0.972-0.376,1.698,1.359c-0.098,1.044-0.737,1.529-1.02,2.379H129.372z
	 M106.25,128.063c1.763-0.405,2.094,0.623,3.061,1.02c-0.266,0.304-0.365,0.768-0.34,1.36c-1.46-0.125-0.938-0.062-2.72,0.339
	C105.856,129.83,105.859,129.015,106.25,128.063z M144.662,128.063c1.261-0.551,2.318,0.811,2.382,0.339
	c1.239,0.939-0.574,1.67-0.341,2.72c-0.383-0.75-1.496-0.768-2.382-1.02c-0.037-0.838-0.037-1.637,0.345-2.039H144.662z
	 M132.765,128.401h2.382c0.146,1.169-0.135,1.906-0.34,2.72c-0.845,0.441-1.649-0.758-1.699,0c-1.069-0.577-0.418-1.582-0.344-2.72
	H132.765z M83.129,132.482c1.27,0.031,0.969,0.382,2.039,0c0.208,0.815,0.489,1.552,0.341,2.72
	c-0.845-0.051-1.649-0.062-1.699,0.681c-0.454-0.339-0.668-0.919-1.361-1.02C82.25,133.642,82.844,133.218,83.129,132.482z
	 M81.09,134.522c0.598,0.853,0.562,0.238,1.358,0.678c0.219,1.352-0.432,1.836-1.019,2.382
	C80.595,137.278,80.509,135.205,81.09,134.522z M98.43,136.563c0.05,1.081,0.77,1.496,0.681,2.72c-1.649,0.761-1.904,0.665-3.401,0
	v-2.041C97.229,136.9,97.017,136.593,98.43,136.563z M105.229,137.583c0.467,1.029-0.161,1.214,0,2.72
	c-1.622,0.375-2.059-0.435-2.72-1.02C103.228,138.526,103.366,137.19,105.229,137.583z M97.409,141.662
	c-0.053,0.454,0.534,1.874,0.681,1.02c1.303,1.326-1.267,1.664-2.039,2.04c-0.896,0.1-0.268-1.32-1.36-1.021
	C95.259,142.686,95.586,141.423,97.409,141.662z M104.55,143.363c1.705-0.232,2.127,0.817,2.379,2.039
	c-0.825,0.558-1.652,0.867-2.72,0.341C103.508,144.479,104.697,144.852,104.55,143.363z M116.11,144.722v1.699
	c-0.564,0.569-1.997,0.271-3.06,0.34c-0.235-1.068,0.039-1.389-0.341-1.698C113.413,144.543,115.237,144.021,116.11,144.722z
	 M181.043,146.761c0.895-0.099,0.266,1.32,1.357,1.021c-0.205,0.813-0.489,1.551-0.34,2.72c2.158,0.39,1.109,1.875,2.043,3.399
	c0.992,0.09,1.043-0.768,2.038-0.68c-0.056,0.96,1.021,0.792,1.019,1.699c-0.229,1.134-0.872,1.846-2.381,1.7
	c-1.111-1.153-1.776-2.756-3.401-3.4c0.687-3.309-0.637-3.16-1.358-5.439c0.418-1.055,0.996,0.182,1.033-1.021H181.043z
	 M243.946,151.521c-0.243,1.039,0.349,1.238,0.341,2.041c-1.203,0.113-0.838,0.935-2.039,0.339
	c-0.394-0.402-0.385-1.202-0.341-2.039C242.313,151.471,243.111,151.476,243.946,151.521L243.946,151.521z M271.49,151.521
	c2.113,0.879-0.477,4.356,2.381,4.42c0.004,0.801-0.588,1.001-0.341,2.039c-1.431,0.411-1.491-0.548-2.38-0.68
	c0.185-1.772-0.104-3.073-0.681-4.08C270.102,151.953,271.736,152.684,271.49,151.521z M237.481,157.981
	c0.222,1.242-0.231,1.813-0.681,2.381c-1.123-0.35-2.436-0.513-2.043-2.381c1.143-0.504,1.659-0.871,2.717,0H237.481z
	 M254.492,157.981c1.284-0.493,0.65,0.936,1.698,0.681c-0.284,0.395-0.447,0.912-0.339,1.7c-0.717,0.451-1.004-0.167-2.039,0.339
	c-0.186-0.493,0.396-1.758-0.341-1.699c-0.123-0.816,1.562,0.187,1.032-1.021H254.492z M268.762,157.981
	c-0.244,1.04,0.587,1,0.342,2.041c0.902-0.114,1.19-0.848,2.039-1.02c-0.076,1.419,0.551,1.605,0,2.72h-1.701
	c0.144-0.711-0.232-0.9-0.338-1.359c-0.348,0.22-0.354,0.782-1.021,0.68c-0.352-0.783-1.171-1.096-1.021-2.379
	c1.045,0.253,0.418-1.174,1.696-0.681H268.762z M259.58,159.682c0.787,1.498,0.145,3.208-2.037,2.72
	c-0.886-1.316-0.173-3.444,2.039-2.72H259.58z M261.965,161.041h2.039c0.486,1.035,0.348,2.32-0.682,2.72
	c-1.314-0.047-1.4-1.326-1.363-2.72H261.965z M272.51,161.722c0.963-0.281,0.881,0.479,1.701,0.34
	c-1.09,2.596,1.447,3.175,0.34,5.44c-1.356,0.409-0.921-0.271-2.041-0.34C273.148,164.533,271.772,163.758,272.51,161.722z
	 M270.125,164.101c0.056,0.961-1.021,0.792-1.018,1.7c-0.846,0.053-1.055-0.535-1.701-0.681c-0.308-2.438,2.188-2.93,2.729-1.019
	H270.125z M24.992,163.761c0.288-0.063,0.32,0.133,0.338,0.34c0.918,0.556,1.322-0.038,2.382,0.681
	c0.199,1.22-0.396,1.643-0.681,2.379c-0.579-0.894-1.043-0.237-2.039-1.02C24.804,164.785,24.804,165.116,24.992,163.761z
	 M75.991,164.101c1.304,0.951,0.515-0.082,2.379,0c1.295,1.873,0.894,6.384-2.042,6.121c-0.666-1.257-1.148-2.704-1.699-4.081
	C75.05,165.427,75.571,164.815,75.991,164.101z M253.127,167.162c-3.281-0.356-0.515-5.179,0.682-1.7
	c0.049,0.844-0.529,1.052-0.676,1.7H253.127z M262.309,168.181h-1.361c-0.586-0.206,0.027-1.611-0.682-1.7
	c0.787-2.162,3.454-0.122,2.041,1.7H262.309z M258.229,166.142c0.26,0.801,0.672,2.35,0,3.059c-1.734,0.378-1.262-1.456-2.039-2.039
	C256.939,166.897,257.099,166.032,258.229,166.142L258.229,166.142z M247.683,169.201c-0.752,0.942-1.411,0.963-2.72,0.681
	c-0.946-3.435,2.74-3.152,2.717-0.681H247.683z M260.944,169.881c0.831,1.397-0.228,2.028-0.681,3.061
	c-0.881-0.48-1.621-1.099-1.358-2.72c0.394-0.392,1.192-0.385,2.028-0.341H260.944z M261.965,174.301
	c2.186-0.487,2.825,1.222,2.039,2.72c-0.301-0.209-0.606-0.41-0.682,0c-1.105-0.257-1.475-1.244-1.363-2.72H261.965z
	 M257.885,174.981h1.7c0.468,0.439,0.335,1.478,0.341,2.382C258.574,178.067,257.517,176.976,257.885,174.981z M249.379,175.662
	c0.396,0.284,0.913,0.448,1.702,0.341c0.755,1.022,0.401,1.186,0.339,2.72c-0.42-0.381-0.699-0.296-0.681,0.34
	c-1.106-0.612-2.938-2.098-1.364-3.401H249.379z M177.307,178.382c1.101,0.257,1.477,1.243,1.357,2.72
	c-0.799,0.437-0.631-0.044-1.699,0.341c0.226-1.244-0.735-1.306-0.68-2.38c0.688,0.114,1.068-0.071,1.02-0.681H177.307z
	 M259.924,178.382c1.84,0.144,2.529,1.471,2.039,3.061C259.898,181.806,259.775,180.233,259.924,178.382L259.924,178.382z
	 M172.205,181.441c1.472-0.339,1.885,0.378,2.721,0.68c0.245,1.04-0.588,0.999-0.341,2.04c-2.089,0.789-3.22-0.779-2.372-2.72
	H172.205z M168.813,183.142c0.998,1.025,0.421,2.698-1.021,3.059c-0.155-1.203-1.436-1.283-1.358-2.72
	c0.799,0.821,0.885-0.825,2.372-0.339H168.813z M250.411,183.142c1.413-0.054,2.095,0.625,2.039,2.039
	c-0.401,0.391-1.202,0.386-2.039,0.34C249.92,185.068,249.92,183.594,250.411,183.142z M10.712,184.842v1.699
	c-0.606,0.499-1.333-0.213-2.042,0.681c-0.489-0.869-1.765-0.955-1.358-2.72C9.032,184.203,9.326,184.297,10.712,184.842z
	 M63.07,184.161c1.283,0.078,1.834,0.885,1.699,2.38H63.07C62.904,185.767,62.395,184.805,63.07,184.161z M133.108,189.601
	c2.15-1.496,4.441,1.27,5.44,0c0.551,0.934,1.666,1.504,2.718,1.021c1.172,3.316,7.608,2.567,10.882,2.721
	c1.857-1.184,0.875-5.012-0.34-6.119c-1.32,0.268-1.156,2.017-1.699,3.06c-3.431,1.102-5.207-4.153-1.703-5.101
	c0.455-0.123,1.74,0.253,2.039-0.68c1.033,0.853,2.428,0.294,3.401,1.02c2.317,1.726,1.992,6.421,1.021,9.179
	c-1.132-0.32-1.702,0.816-3.06,1.021c-4.184,0.627-8.989-0.656-11.22-1.7c-1.364-1.96-4.865-2.634-6.12-2.041
	c-0.479-0.761-1.721-0.773-1.352-2.387L133.108,189.601z M61.71,187.221h1.358c-0.166,1.074,0.614,1.201,0.34,2.379H61.71
	C61.522,188.245,61.522,188.577,61.71,187.221z M65.111,188.92c0.454,0.34,0.666,0.92,1.358,1.021
	c0.196,1.104-0.232,1.582-0.341,2.379c-0.274-0.235-0.929-0.529-1.019,0c-0.949-0.299-1.128-1.366-1.361-2.379
	c0.691-0.189,0.666-1.024,1.361-0.341C65.111,189.375,65.111,189.147,65.111,188.92z M252.107,189.941
	c1.266-0.364,0.967,0.844,2.037,0.68c0.507,1.752-0.809,1.684-1.02,2.721c-0.823-0.802-1.881-1.886-1.02-3.4H252.107z
	 M68.51,190.621c1.07-0.163,1.331,0.484,2.042,0.681v2.04c-0.714,0.955-1.278-0.055-1.701,1.021
	c-0.642-0.037-0.235-1.125-1.021-1.021c-0.285-1.422,0.662-1.607,0.681-2.722V190.621z M201.113,191.641
	c0.509,0.245,1.431,0.258,1.698,0c0.797,0.109,0.331,1.483,1.019,1.7c-0.492,0.867-1.553,1.167-2.381,1.699
	c-1.4-0.578-1.044-2.333-0.331-3.398H201.113z M131.413,192.661c-0.047,1.2-0.974,1.521-1.021,2.72c-0.582,0.073-0.88-0.58-1.018,0
	c-0.872-0.376-0.67-1.826-0.681-3.06c0.959,0.321,1.438-0.667,2.716,0.338L131.413,192.661z M60.35,192.321
	c1.203-0.182,1.751,0.288,2.039,1.021c0.042,1.174-0.687,1.581-2.039,1.358c0.091-1.404-0.446-1.319,0-2.375V192.321z
	 M195.668,192.321h2.042c0.491,0.851,0.821,1.334,0.339,2.379c-1.301,0.166-2.172-0.096-2.723-0.68
	c-0.135-0.813,0.627-0.734,0.345-1.695L195.668,192.321z M57.63,193.68c1.015,0.005,1.157,0.884,2.039,1.02
	c0.247,1.041-0.586,1-0.34,2.04c-1.134-0.566-2.033,0.22-3.061,0.68c-0.307-1.62,0.152-2.238,0-2.72
	c0.232-1.267,1.132,0.258,1.362-1.015V193.68z M134.805,194.363c1.778-0.532,0.215,2.276,1.699,2.039
	c-0.412,0.494-1.357,0.456-1.358,1.359c-1.143-0.406-1.738-1.738-1.021-3.061c0.418,0.369,0.701,0.295,0.676-0.344L134.805,194.363z
	 M66.81,197.424c-0.252,0.542-1.666-0.078-1.361,1.021c-0.634-0.769-2.047-2.041-1.358-3.061
	C65.109,194.991,67.303,194.746,66.81,197.424L66.81,197.424z M68.85,195.715c0.327,0.58,1.068,0.744,1.701,1.02
	c0.044,0.838,0.05,1.639-0.34,2.041c-1.226-0.213-3.143,0.221-2.72-2.381c0.601-0.074,1.701,0.356,1.359-0.676V195.715z
	 M253.459,195.715c0.438,0.583,1.119,0.922,2.039,1.02c0.579,1.609-0.239,2.324-1.698,2.72c-0.149-0.418-0.435-0.698-1.021-0.68
	c-0.308-1.549,0.565-1.917,0.677-3.061H253.459z M117.809,196.404c0.822,0.649,1.652-0.369,2.72,0.34
	c0.496,1.854-1.079,1.641-1.36,2.72C118.362,198.8,117.688,198.001,117.809,196.404z M200.77,196.404
	c0.289-0.063,0.32,0.133,0.342,0.34c0.036,0.651,1.138-0.399,2.039,0c0.62,1.162,0.176,1.854-0.34,2.72
	C201.299,199.489,200.07,198.469,200.77,196.404L200.77,196.404z M196.013,197.08c0.29-0.062,0.321,0.133,0.341,0.339
	c0.309,0.823,1.002-0.77,2.039-0.339c0.449,0.569,0.9,1.138,0.68,2.379c-0.252,0.542-1.664-0.077-1.357,1.021
	c-1.192-0.517-1.93-1.475-1.696-3.405L196.013,197.08z M205.525,198.776c1.206,0.039,1.367,1.125,1.358,2.379
	c-0.88,0.897-1.261,0.324-2.38,0.681c-0.107-0.799-0.538-1.277-0.34-2.38c0.614-0.074,1.721,0.356,1.376-0.676L205.525,198.776z
	 M60.69,199.796c-0.125,0.579,0.266,0.64,0.681,0.68c-0.426,2.474-3.131,2.674-3.401,0c0.833-0.295,1.248-1.008,2.72-0.676V199.796z
	 M195.324,200.484c-0.243,1.041,0.348,1.24,0.34,2.04c-0.582,0.96-1.336-0.125-1.357,1.02c-0.489,0.182-0.831-1.325-1.021-0.34
	c-0.877-0.763-0.623-1.913,0-2.72c1.266-0.037,0.959-0.381,2.027,0H195.324z M120.87,200.484c1.271-0.023,1.948,0.547,2.379,1.36
	c0.36,1.267-1.276,0.537-1.021,1.699c-1.345-0.283-2.183-1.585-1.36-3.061L120.87,200.484z M63.751,200.816
	c1.632-0.5,1.419,0.848,2.72,0.681v2.039c-1.055-0.445-0.971,0.093-2.379,0c-0.559-0.812-0.867-1.647-0.34-2.716V200.816z
	 M72.59,200.816c0.362,1.417,0.088,1.5,0,3.061c-0.684,0.237-1.58-1.229-1.701,0c-0.504-0.628-0.65-1.615-0.678-2.72
	c0.438-0.467,1.475-0.332,2.379-0.344V200.816z M199.061,201.504h1.361c0.467,0.438,0.334,1.476,0.336,2.379
	c-1.979,0.185-2.163-0.897-1.695-2.384L199.061,201.504z M190.912,204.564c0.445,0.346,1.254,0.332,1.701,0.679
	c-0.094,1.41,0.444,1.326,0,2.379c-0.539,0.03-1.299-0.164-1.361,0.34c-0.934-0.811-0.577-2.151-0.332-3.404L190.912,204.564z
	 M69.87,205.585c0.675,0.231,0.778,1.035,1.358,1.359c0.235,1.368-1.431,0.834-1.358,2.039c-1.092-0.381-1.754-1.193-2.042-2.38
	c0.684-0.344,1.378-0.664,2.042-1.02V205.585z M199.404,205.917v2.721c-0.882-0.906-1.406-0.055-2.379,0
	c-0.787-0.348-0.703-1.563-0.682-2.721C197.475,205.327,197.855,206.089,199.404,205.917z M73.612,207.957
	c1.558,0.026,1.895,1.276,2.039,2.72c-0.684-0.114-1.066,0.071-1.021,0.681c-1.807-0.221-1.922-2.2-1.018-3.393V207.957z
	 M81.768,208.977c0.044-0.75,1.444-0.144,2.042-0.338c-0.166,1.072,0.612,1.2,0.341,2.379c-1.245,0.074-1.306,0.466-2.382,0
	c-0.367-0.885,1.035-1.635,0-2.053V208.977z M78.371,211.693h1.699c-0.158,0.727,0.486,0.647,1.021,0.681
	c0.147,2.381-0.929,1.485-1.701,2.72c-0.493-0.414-0.454-1.358-1.358-1.361c-0.247-1.02,0.585-0.983,0.339-2.028V211.693z
	 M71.569,212.726c2.048-0.461,1.436,1.737,2.72,2.039c-0.332,0.461-1.146,0.441-1.358,1.021
	C71.403,215.835,71.511,214.25,71.569,212.726z M90.611,212.726c0.544,1.093,0.28,2.253-0.343,3.061
	c-0.697-0.675-0.318-0.675-1.018,0c-1.168-0.079-1.484-1.013-1.699-2.042C88.718,213.892,88.339,212.245,90.611,212.726
	L90.611,212.726z M83.47,215.442c0.714,0.419,1.326,0.94,2.039,1.359c-0.18,0.273-0.354,0.553-0.341,1.02
	c-0.581,0.588-1.336-0.499-1.358,1.021c-1.345-0.02-2.023-0.697-2.042-2.041c0.934-0.725,1.422-0.589,1.701-1.364V215.442z
	 M94.008,217.139h1.362c-0.125,0.578,0.265,0.64,0.681,0.68c-0.542,0.93,0.166,1.449-0.681,2.38c-0.582,0.073-0.88-0.579-1.021,0
	C93.729,219.387,93.555,218.146,94.008,217.139z M104.55,221.219c-0.656-0.138-0.271-1.318-1.36-1.021v-2.038
	c0.332,0.008,0.263,0.417,0.34,0.68c1.026-2.39,2.899,0.293,1.699,2.039c-0.418-0.368-0.697-0.295-0.679,0.345V221.219z
	 M261.289,218.502c0.511-0.729,0.833,0.244,1.701-0.339c0.479,1.085,0.649,3.183-1.361,2.72c-0.614-0.737,0.037-2.199-0.344-2.372
	L261.289,218.502z M256.863,223.936c1.705-0.232,2.128,0.819,2.381,2.039c-0.578-0.125-0.641,0.266-0.681,0.68
	c-1.929,0.517-2.544-1.549-1.708-2.716L256.863,223.936z M248.371,228.359h1.357c0.527,0.493,0.302,1.738,0.34,2.718
	c-1.345,0.438-0.693-1.117-2.039-0.681c-0.049-0.836-0.049-1.635,0.344-2.041L248.371,228.359z M248.703,233.46
	c0.163,1.302-0.096,2.173-0.682,2.724c-0.648-0.146-0.617-0.975-1.701-0.681c-0.404-2.274,0.763-2.63,2.373-2.053L248.703,233.46z
	 M242.582,234.137c1.007,0.127,1.676,0.592,2.039,1.361c0.035,1.964-1.766,0.549-2.039,1.699
	C241.218,236.373,242.41,235.279,242.582,234.137z M247.007,238.561h1.701c-0.124,0.579,0.263,0.643,0.679,0.682
	c0.249,1.041-0.588,0.998-0.338,2.039c-0.483-0.029-0.962-0.059-1.021,0.34c-0.903-0.477-1.12-1.397-1.701-1.36
	c-0.037-1.204,1.069,0.233,0.676-1.696L247.007,238.561z M243.258,240.602h2.041c0.339,1.473-0.381,1.887-0.68,2.72
	c-1.438-0.11-1.771-1.708-1.365-2.716L243.258,240.602z M209.95,256.234c0.29-0.063,0.321,0.133,0.339,0.338
	c0.513,0.73,0.834-0.242,1.703,0.34c0.273,1.896-1.346,2.425-2.042,2.382c-1.141-0.239-0.562-1.956-1.019-2.042
	c-0.136-0.822,1.549,0.186,1.02-1.031L209.95,256.234z M213.342,258.619c1.492-0.15,1.117,1.041,2.381,0.337
	c0.245,1.041-0.587,1.002-0.34,2.042c-0.955,0.545-1.447-0.569-1.358,1.019c-0.907,0.003-0.739-1.074-1.702-1.019v-1.361
	c0.59-0.627,1.168,0.603,1.008-1.008L213.342,258.619z M97.75,259.64c1.466,0.182,1.906,0.099,2.72,0.341
	c-0.28,0.959,0.478,0.882,0.34,1.701c-0.564,0.569-1.997,0.271-3.06,0.338c-0.354-0.972-0.354-1.426,0-2.385V259.64z
	 M118.149,259.983c1.342,0.018,2.023,0.697,2.039,2.039c-0.329,0.579-0.94,0.874-2.039,0.681c-0.675-0.676-0.219-1.941,0-2.716
	V259.983z M104.888,260.66c1.45-0.202,1.06,1.436,1.701,2.039c-0.221,0.345-0.783,0.352-0.681,1.021
	c-0.582,0.071-0.88-0.579-1.021,0c-0.896-0.122-0.308-1.733-1.019-2.038C103.734,260.869,105.419,261.865,104.888,260.66z
	 M89.591,261.004h2.039c0.606,1.174,0.305,2.563-1.018,2.721c-0.066-0.385-0.343-0.191-0.343,0
	c-0.787-0.344-0.704-1.561-0.678-2.716V261.004z M114.749,261.336c0.347,2.199-1.256,2.132-2.039,2.381
	c-0.378-0.646-0.849-1.193-1.021-2.039c0.676-0.468,2.131-1.168,3.06-0.345V261.336z M208.242,261.336
	c1.264-0.02,0.979,1.513,1.019,2.72c-0.493,0.185-1.755-0.398-1.7,0.337c-0.733-0.284-0.287-1.752-1.018-2.035
	c-0.16-1.058,1.561-0.234,1.696-1.008L208.242,261.336z M121.55,262.023c0.962,0.354,1.416,0.354,2.379,0
	c0.108,1.355,0.018,2.513-0.681,3.06c-0.301-0.263-0.768-0.365-1.361-0.337c-0.208-0.823-0.49-1.561-0.34-2.729L121.55,262.023z
	 M210.971,263.044c0.676,0.913,2.56,0.614,2.039,2.72c-0.635,0.049-1.135,0.225-1.358,0.683c-1.771-0.455-1.353-2.065-0.677-3.393
	L210.971,263.044z M81.43,263.72c0.902,0.003,1.943-0.13,2.379,0.339c0.374,1.621-0.434,2.059-1.021,2.721
	C81.989,266.104,81.046,265.574,81.43,263.72L81.43,263.72z M117.809,263.72c0.825,0.196,0.756,1.283,1.019,2.038
	c-0.725-0.157-0.648,0.486-0.679,1.021c-1.117-0.629-1.146-0.371-2.382-1.021c-0.28-0.96,0.482-0.88,0.343-1.699
	c0.493-0.196,1.756,0.395,1.699-0.344V263.72z M112.369,266.436c-0.88,0.711-2.899,0.383-2.72-1.021
	C109.952,263.252,112.729,264.234,112.369,266.436z M94.008,265.084c2.187-0.177,1.743,2.33,1.021,3.4
	c-0.614-0.971-2.379-0.793-2.039-2.719c0.681,0.098,1.062-0.086,1.018-0.689V265.084z M54.57,266.104
	c1.156,1.833-0.821,3.262-1.699,3.06C51.485,268.206,52.285,265.428,54.57,266.104z M72.931,266.436
	c0.288-0.064,0.321,0.133,0.338,0.34c0.551,0.471,1.339,0.699,1.701,1.358c-0.412,1.789-1.184,0.915-1.358,1.702
	c-1.385,0.024-1.466-1.259-1.361-2.721c0.578,0.136,0.642-0.258,0.68-0.676V266.436z M104.55,268.82
	c-1.055,1.514-2.859,0.742-3.401-1.018c1.121-1.708,3.08-0.713,3.401,1.021V268.82z M107.948,267.125
	c0.492,0.867,1.765,0.951,1.36,2.719c-0.876,0.901-1.636-0.047-2.042,1.021c-0.664-0.471-0.182-2.086-0.677-2.723
	c0.851,0.061,1.063-0.517,1.359-1.008V267.125z M115.43,267.125c0.581,1.098,0.911,2.026,0,3.059
	c-1.184-0.403-2.222-0.951-2.042-2.723c0.83,0.849,0.725-0.725,2.042-0.344V267.125z M38.251,268.82h3.061
	c-0.044,0.609,0.416,0.717,0.34,1.361c-0.619,1.07-2.063,0.663-2.72,1.699C38.267,271.291,38.198,270.123,38.251,268.82z
	 M60.35,270.517v2.043c-1.021,0.755-1.188,0.4-2.72,0.337c-0.027-0.537,0.164-1.296-0.34-1.358c0.672-0.86,1.796-1.671,3.061-1.008
	V270.517z M95.37,270.186c-0.002,0.938,1.104,0.165,0.681,0c1.364,0.541,2.021,1.856,1.018,3.398
	c-1.369-0.234-2.763-1.832-1.698-3.405V270.186z M196.013,270.861c1.09-0.689,1.062,1.346,1.36,0.336
	c1.086,0.893-0.141,2.33-0.681,2.721c-0.897-0.59-1.327-1.844-0.688-3.049L196.013,270.861z M82.112,271.193
	c0.746,1.671,0.589,2.449-0.681,3.401c-0.564-0.933-0.891-0.163-2.042-0.683v-2.037c1.582,0.455,1.139-1.119,2.722-0.676V271.193z
	 M89.93,271.881c-0.006,0.9,0.127,1.941-0.341,2.38c-0.902,0.397-2.003-0.653-2.039,0c-0.667-0.465-0.186-2.083-0.681-2.72
	c1.273,0.282,1.357-0.48,3.061,0.332V271.881z M111.689,272.213c1.048-0.254,0.416,1.17,1.699,0.678
	c0.11,1.129,0.052,2.093-0.679,2.383c-1.217-0.145-1.638-1.086-1.701-2.383c0.578,0.136,0.642-0.258,0.681-0.676V272.213z
	 M207.222,272.901c0.872-0.369,0.547,2.107,1.021,1.021c1.032,0.421-0.367,1.171,0,2.039c-1.77,0.186-2.228-0.947-2.039-2.717
	C206.694,273.613,207.039,273.601,207.222,272.901L207.222,272.901z M213.011,273.245c1.837-0.022,2.624,1.001,2.38,3.06
	c-1.438,0.111-1.985,1.486-2.719,1.357c-1.685-1.572,0.381-2.58,0.332-4.424L213.011,273.245z M20.912,273.922
	c0.951,0.41,2.371,0.349,2.039,2.039c-0.905,0.116-1.19,0.849-2.039,1.021C20.225,276.17,19.926,274.609,20.912,273.922z
	 M200.094,273.922c1.69-0.103,2.705,0.468,2.38,2.381c-1.375-0.471-1.077,0.736-2.039,0.679c-0.835-0.603-0.812-2.052-0.344-3.06
	H200.094z M105.909,276.306c0.009,0.8-0.587,0.998-0.34,2.039C102.415,279.758,102.979,273.588,105.909,276.306L105.909,276.306z
	 M223.888,275.617c0.163,1.217,0.554,1.965,0,3.061c-0.96-0.281-0.88,0.479-1.698,0.337c0.125-0.575-0.266-0.642-0.682-0.679
	c-0.012-1.695,0.48-2.9,2.373-2.717L223.888,275.617z M26.35,276.306c0.894-0.103,0.268,1.317,1.36,1.019
	c-0.002,0.566,0,1.135,0,1.699c-0.728-0.158-0.65,0.486-0.681,1.021c-1.447,0.084-1.267-1.455-2.379-1.7
	c0.345-0.447,0.332-1.254,0.678-1.702c0.399,0.639,0.983,0.922,1.021-0.332V276.306z M37.911,276.306
	c0.606,0.642,1.121,1.373,1.021,2.718c-2.015,1.413-3.346-0.474-2.042-2.381c0.317,0.209,1.255,0.787,1.02-0.332V276.306z
	 M96.388,276.306c0.587,0.235,1.464,1.899,1.702,1.358c1.082,0.567-1.05,0.725-0.34,2.039c-1.314-0.129-1.342-0.197-2.379-1.018
	c-0.022-1.893,1.077-0.885,1.018-2.385V276.306z M87.889,278.002h2.042c-0.088,0.996,0.768,1.046,0.681,2.039
	c-0.435,0.473-1.666,0.146-1.703,1.02c-0.533-0.146-0.29-1.07-1.358-0.681c-0.2-1.106,0.229-1.585,0.337-2.384V278.002z
	 M208.242,278.002c0.959-0.281,0.879,0.479,1.699,0.339c-0.466,3.036,1.588,1.563,2.721,2.72c-0.475,1.229,0.131,1.776-0.341,2.381
	c0.397-0.506-1.668-1.085-1.698-0.34c-0.738-1.586-3.318-2.926-2.373-5.102L208.242,278.002z M198.385,281.063
	c1.039-0.246,1.238,0.349,2.041,0.338c0.032,1.17,0.175,2.441-0.681,2.723c-1.217-0.271-1.487-1.476-1.364-3.073L198.385,281.063z
	 M67.829,281.395c0.5,0.862,1.848,0.873,2.042,2.041C69.101,286.803,65.892,283.805,67.829,281.395L67.829,281.395z
	 M100.469,281.395c1.939,0.104,2.736-0.068,2.72,2.381c-1.306,0.873-4.045,0.05-2.72-2.384V281.395z M193.973,281.395
	c0.936,1.134,1.373,2.846,0,3.74c-0.799-0.673-1.743-1.204-1.358-3.06c0.688,0.737,1.144,0.024,1.353-0.677L193.973,281.395z
	 M204.85,283.103c0.904,1.237,0.119,3.136-1.358,3.061c-0.713-1.34-0.958-3.196,1.364-3.061H204.85z M82.789,284.455
	c0.376,1.621-0.435,2.061-1.021,2.722c-0.63-0.613-1.245-1.247-1.019-2.722C82.02,284.43,81.719,284.073,82.789,284.455z
	 M96.051,284.455c0.575-0.122,0.639,0.265,0.679,0.68c-0.288-0.061-0.321,0.133-0.341,0.341
	C95.989,285.427,96.104,284.861,96.051,284.455z M178.67,285.143h1.361c0.468,0.439,0.334,1.478,0.34,2.381
	c-1.287-0.492-0.652,0.936-1.702,0.681c-0.713-0.812-0.54-1.831-0.013-3.06L178.67,285.143z M215.051,285.475
	c1.25,0.938,2.03,1.775,1.018,3.4c-1.301-0.116-2.715,0.072-2.381-2.381c0.959-0.54,1.451,0.578,1.365-1.02H215.051z
	 M75.651,286.494c0.327,0.582,1.068,0.744,1.698,1.02v2.041c-0.498,0.789-1.075-0.663-1.021,0.682
	c-1.258-0.762-1.667-2.459-0.677-3.736V286.494z M192.264,289.223c0.884,0.308,1.265,0.173,2.383,0
	c-0.126,0.58,0.262,0.643,0.678,0.68c0.299,2-1.469,1.93-2.379,2.722c-0.016-1.734-1.508-0.228-1.359-2.38
	c0.726,0.172,0.652-0.479,0.677-1.008L192.264,289.223z M64.091,289.555c1.27-0.365,0.968,0.845,2.039,0.682v2.379
	c-0.778-0.356-2.05-0.215-2.72-0.681c-0.108-1.131-0.053-2.089,0.681-2.384V289.555z M200.77,290.243
	c1.161,0.083,1.856,0.637,2.722,1.019c0.089,0.996-0.769,1.047-0.681,2.041c-0.844,0.439-1.649-0.76-1.699,0
	c-0.908-0.799-0.553-1.832-0.344-3.061L200.77,290.243z M175.941,293.304c0.327,1.572-0.906,1.583-1.357,2.381
	c-0.512-0.96-1.254-0.03-2.039-1.021c-0.504-2.79,2.15-2.053,3.404-1.364L175.941,293.304z M185.467,293.979
	c0.648,0.146,0.855,0.733,1.7,0.681v2.039c-1.071-0.382-0.77-0.029-2.039,0c-0.062-1.118-0.812-2.225,0.345-2.716L185.467,293.979z
	 M70.889,294.656c0.509,0.512,1.024,1.015,1.701,1.357c-0.086,1.504-1.033,2.141-2.039,2.724c-0.796-0.112-0.332-1.483-1.021-1.702
	c0.65-0.602,1.221-1.278,1.359-2.385V294.656z M206.214,295c0.733,1.51-0.096,3.224-1.701,3.398c0.675-0.41-0.086-1.17-0.341-0.338
	c-0.757-0.146-0.135-1.677-0.339-2.38c0.886-0.123,0.946-1.069,2.384-0.663L206.214,295z M194.992,296.695
	c0.785,0.35,0.702,1.564,0.679,2.721c-0.396-0.056-0.604,0.076-0.679,0.34c-1.068,0.162-0.96-0.854-1.36-1.359
	c-0.147-1.156,1.021-1.009,1.364-1.697L194.992,296.695z M179.69,300.433c0.71-0.027,1.278,0.702,1.698,0.341
	c0.454,0.639,0.288,1.552,0,2.719c-0.286,0.061-0.32-0.133-0.336-0.34c-0.588,1.441-0.684-0.635-1.361,0.34
	C178.217,303.025,179.422,301.219,179.69,300.433L179.69,300.433z M77.689,301.797c1.827,0.614,0.46,2.346,0.341,3.737
	c-0.531-1.054-1.685-1.488-1.361-3.401c0.551-0.093,0.586,0.322,1.021,0.341C77.689,302.252,77.689,302.031,77.689,301.797
	L77.689,301.797z M141.27,286.494c-0.482,0.027-0.963,0.056-1.019-0.339c-7.293,1.694-10.882,3.174-17.68,6.12
	c-3.527-0.33-3.096,1.831-6.119,2.379c-1.876,2.078-4.549,3.346-6.798,5.781c-0.55,0.093-0.586-0.321-1.021-0.342
	c-1.051,2.464-4.272,2.756-5.099,5.44c-4.724,2.41-9.565,3.788-13.262,7.142c-3.03,0.51-5.716,1.785-8.837,1.359
	c-0.327-0.045-0.268-0.388-0.341-0.68c-3.262,0.463-5.625-2.361-9.861-3.402c-2.001-1.852-4.031-3.674-6.118-5.44
	c-2.03-3.408-5.586-7.104-8.5-8.5c-0.531-0.538-2.247-3.083-2.723-3.398c-0.19-0.128-0.431,0.583-0.337,0.681
	c-0.96-0.995-1.411-2.488-2.382-3.402c-3.211-3.021-6.97-4.107-11.219-4.078c-0.772-1.237-2.714-1.068-4.078-0.682
	c-0.332-0.008-0.266-0.416-0.34-0.681c-0.867-0.368-1.32,1.594-1.361,0c-2.576,1.223-5.933,0.481-7.479,1.702
	c-0.542-1.48-0.869,0.818-1.021-0.682c-0.33,0.01-0.263,0.418-0.339,0.682c-3.958-1.065-7.017-2.262-10.88-3.061
	c-0.659-1.4-1.953-2.736-2.039-4.08c-0.055-0.842,0.701-1.484,1.021-2.718c0.259-1.005,0.907-4.155,2.379-4.421
	c0.185-0.033,0.454,0.486,0.681,0.339c0.63-0.415,0.73-1.479,1.358-2.038c0.327-0.291,1.25-0.332,1.701-0.682
	c0.396-0.307,0.736-1.179,1.019-1.36c1.411-0.911,3.625-1.161,5.44-2.039c1.007-0.487,1.873-1.655,2.72-2.039
	c0.553-0.252,1.804-0.022,2.382-0.339c1.992-1.102,6.504-1.957,8.157-2.722c-0.155,1.396,0.728-0.138,1.701,0.341
	c1.231-0.699,2.612-0.734,4.418-0.682c3.37,0.103,7.758-1.053,10.542-1.357c0.495-0.056,1.394-0.248,1.698,0.336
	c2.689-1.537,5.464-0.805,6.46-2.719c0.578-0.125,0.642,0.266,0.677,0.68c3.321-1.602,6.292-1.581,8.843-4.08
	c-0.758-2.434-3.275-1.4-5.102-1.698c-0.562-0.091-1.154-0.843-1.698-1.019c-0.52-0.172-0.642,0.474-1.021,0.338
	c-0.135-0.049-0.241-0.648-0.34-0.682c-1.367-0.442-2.037-0.51-3.739-1.019c-3.671-1.099-9.917-4.081-14.96-5.099
	c-0.409-1.356-2.149-0.947-3.061-1.36c-0.763-0.349-1.275-1.019-2.039-1.358c-0.988-0.441-2.152-0.587-3.06-1.021
	c-0.382-0.182-0.427-0.865-0.681-1.021c-1.273-0.759-3.187-0.54-3.74-2.037c-1.071,0.166-1.199-0.612-2.38-0.34
	c-0.666-1.343-2.881-1.813-3.739-2.38c-1.068-0.706-0.927-1.2-1.701-1.7c-0.282-0.182-1.151,0.138-1.358,0
	c-0.31-0.207-0.23-0.77-0.681-1.02c-1.605-0.902-2.324-1.409-3.74-2.721c-2.001-1.854-4.648-3.608-6.802-5.779
	c-1.597-1.613-3.132-3.302-4.759-5.1c-3.134-3.47-5.363-7.704-7.479-12.241c-0.365-0.779-0.313-1.985-0.34-3.4
	c-0.089-1.044-0.739-1.529-1.021-2.38c-1.004-11.892,2.589-19.41,6.8-26.86c0.712,0.146,0.9-0.232,1.358-0.338
	c0.464-2.826,3.122-3.455,3.74-6.121c2.283-1.344,4.505-2.747,5.78-5.099c1.878-0.292,3.074-1.483,4.419-2.72
	c0.972-0.891,1.046-0.967,2.382-1.7c1.101-0.607,0.866-0.963,2.379-1.359c0.694-0.182,0.73-1.026,1.358-1.36
	c1.314-0.697,2.835-0.53,3.401-2.379c0.993,0.222,1.52-0.398,2.38-1.021c0.689-0.497,1.855-1.385,2.72-1.7
	c0.263-0.096,1.298,0.044,1.36,0c0.997-0.704,1.356-2.265,2.38-3.061c3.801,1.062,5.752-2.435,8.839-2.379
	c2.726-2.662,6.057-2.935,9.181-4.079c1.917-0.703,3.315-2.731,5.44-2.72c-0.113-1.246,1.723-0.542,1.358-2.042
	c0.612-0.043,0.719,0.417,1.361,0.341c0.83-3.805,0.188-11.035-1.361-14.621c0.484-5.217-1.795-10.37-1.698-14.959
	c0.05-2.402,0.509-5.869,1.698-7.821c0.047-0.075,0.522,0.454,0.681,0.34c2.454-5.365,6.36-9.279,11.219-12.239
	c0.699-0.096,0.679-0.908,1.021-1.359c3.368-0.591,3.697-2.579,7.479-3.061c0.481-0.767,1.826-0.667,2.039-1.7
	c1.248-0.165,2.675-0.006,3.401-0.34c1.176-0.537,1.041-1.396,1.702-1.7c0.904-0.417,2.147-0.347,3.06-1.02
	c-0.061,0.044,1.978-0.553,3.739-0.339c2.302-1.922,5.661-0.847,7.822-3.06c2.028,1.043,1.897-0.639,4.759,0
	c4.379-1.642,6.864-2.081,13.599-1.7c0.752,0.187,0.484-0.649,1.021-0.681c0.71-0.273,1.524,0.656,2.039,0.681
	c0.12,0.005,0.764-0.66,1.021-0.681c1.181-0.093,2.794,0.846,3.739-0.339c0.639,0.825,5.138,0.941,6.12,1.021
	c1.605,0.127,3.433-0.253,4.081,0c0.199,0.079-0.097,0.618,0.338,0.68c1.15,0.165,2.937-0.305,3.4-0.339
	c-0.113,0.008,0.225,1.18,0.681,0c4.931,0.757,9.86,1.888,14.621,2.379c1.378,0.87,2.381,1.592,4.42,1.02
	c0.558,0.803,1.751,0.969,2.38,1.7c0.395-0.285,0.912-0.448,1.701-0.34c2.062,1.274,2.964,1.918,5.779,2.041
	c1.521,1.799,3.85,2.169,5.781,2.039c1.607,1.561,3.434,4.35,5.779,4.08c-0.371,1.314,1.148,1.199,1.699,1.699
	c1.212,1.104,1.901,2.952,3.741,3.401c0.537,1.766,2.557,3.966,3.06,5.44c2.003,5.858,1.221,12.265,1.357,19.04
	c0.684-1.017,0.712-2.689,1.021-4.079c1.281-0.419,2.247-1.153,3.4-1.7c1.664,1.185,2.997-0.071,4.76,1.021
	c4.225-1.261,6.209-3.987,9.18-5.78c1.852-0.039,3.107,0.517,4.42,1.02c1.49,1.797,1.006,5.566,2.379,7.48
	c0.182,0.867-1.322,0.773-0.677,2.379c0.397,1.002,0.61-0.108,0,1.361c-0.825,1.968-0.72,6.106-1.021,9.519
	c-1.472,0.048-1.343-0.466-2.381-1.359c0.703-5.763,2.633-12.926,0-17.34c-0.644,0.331-1.599-0.456-2.041-0.34
	c-1.132,0.296-1.522,1.82-2.716,2.72c-0.023,0.016-1.67,1.211-2.043,1.359c-0.338,0.137-0.73-0.316-0.682-0.339
	c-3.131,1.453-3.393,2.147-6.118,1.698c-0.921-0.151-1.754,0.154-2.72-0.68c-0.453,0.339-0.67,0.919-1.361,1.021v2.72
	c-1.377,1.424-2.354,3.531-3.059,6.12c-1.328-0.121-1.545,1.843-2.381,2.379c-1.36,0.877-3.561,0.704-4.759,1.7
	c-0.554,0.458-1.896,1.584-2.38,2.379c-0.199,0.327,0.211,1.043,0,1.359c-0.188,0.282-0.588-0.157-0.681,0.341
	c-0.44,2.375,0.88,4.602,1.698,7.141c3.149,0.829,4.934-1.697,8.16-2.72c1.325-4.684,4.098-7.917,4.762-13.261
	c1.256-0.171,1.273-1.578,2.039-1.359c1.154-0.021,1.868,0.399,2.381,1.021c0.982-0.944,3.156-0.695,4.418-1.358
	c1.054,0.193,0.896,1.599,2.042,1.699c-1.044,10.785-2.44,20.002-3.401,30.26c-1.809,1.46-2.592,3.073-4.759,3.06
	c-0.812-0.005-1.561-0.725-2.382-0.681c-1.273,0.07-2.732,0.488-3.738,1.359c-1.668,1.443-4.527,2.515-6.12,5.44
	c-1.243-0.181-1.658-0.151-2.72-1.02c-1.555,0.939-1.623,3.362-2.039,5.439c-2.817,1.333-1.922,5.483-1.361,7.821
	c1.164,0.876,2.194,1.884,3.742,2.379c4.205-1.937,3.909-7.938,7.139-10.88c2.003-1.822,4.466-1.976,6.119-3.74h2.039
	c3.563-2.152,7.858-2.446,10.541-2.72c2.217-2.733,1.752-6.888,1.699-10.539c-0.078-5.569-0.916-10.533,0-16.321
	c0.086-0.543,0.104-0.667,0.681-0.679c-0.146-0.535-1.07-0.291-0.681-1.36c1.109-0.584,1.639,1.628,1.699,0
	c1.816,0.923,0.699,2.914,0.682,4.421c-0.045,3.501,0.157,7.601,0,11.219c2.744,1.287,7.459,3.374,10.201,5.78
	c0.324-0.582,1.068-0.746,1.699-1.021c2.416-3.703,6.395-5.847,9.181-9.179c3.841-0.616,9.761,1.21,11.56,4.76
	c0.275-0.236,0.933-0.53,1.019,0c2.791-3.091,8.149-4.957,13.599-4.76c1.023,0.037,2.65,0.055,3.741,0.34
	c1.131,0.295,1.465,1.282,2.38,1.7c0.631,0.287,1.615-0.426,2.041,0.339c-1.198,8.194-1.389,15.335,2.381,21.759
	c1.607,2.744,3.788,4.817,4.759,7.82c0.538,1.667,0.427,3.604,0.681,6.121c0.664,6.593,2.701,12.331,3.06,18.02
	c1.472,23.246-5.595,40.5-15.642,55.078c-1.065-0.16-0.896,0.916-1.698,1.021c-1.378,3.045-3.448,5.39-5.78,7.479
	c-1.295,3.467-3.304,6.215-6.461,7.822c-0.384,0.746-1.137,1.129-1.358,2.039c-5.06,2.422-6.022,8.937-10.54,11.9
	c-1.285,3.929-4.728,5.699-6.119,9.518c-0.994-0.082-1.174,0.642-1.702,1.021c-1.767,2.764-4.463,4.6-5.099,8.5
	c-1.84,1.33-2.547,3.795-3.74,5.779c-1.32-0.383-1.349,1.185-2.039,1.698c-0.424,0.315-1.434,0.28-2.039,0.683
	c-0.436,0.283-0.673,1.166-1.021,1.36c-0.5,0.271-1.049,0.009-1.018,0c-1.488,0.517-4.353,2.271-6.801,3.06
	c-1.92,0.613-4.098,0.332-5.439,1.699c-1.588-0.847-4.83,1.026-5.781,0c-0.371,0.082-0.229,0.675-0.681,0.682
	c-1.067-0.173-1.389,0.799-1.698-0.344c-0.729,0.516-1.805,0.658-2.721,0.682c-1.24,0.033-2.907-0.238-3.4-1.018
	c-0.703,0.159-2.178,0.497-2.381-0.682c-3.067,0.359-5.063,1.258-8.16,1.699c-1.326,0.189-2.66-0.183-3.74,0
	c-1.129,0.192-1.684,0.979-3.74,1.359c-0.471,0.089-0.659,0.518-0.682-0.339c-0.824,1.519-1.594,0.956-2.717,1.358
	c-0.688,0.246-1.06,1.238-1.361,1.36c-0.249,0.1-0.313-0.729-0.68-0.681c-0.297,0.038-2.68,1.255-3.742,2.041
	c-0.699,0.518-1.281,1.379-1.698,2.039h-1.36c-1.373,0.777-1.77,2.537-3.739,2.721c-0.518-0.033-0.129,0.733-0.339,1.018
	c-0.291,0.398-1.537,0.188-1.7,0.343c-0.912,0.833-0.988,2.913-3.06,3.06c-0.553,2.958-3.206,3.818-3.74,6.797
	c-0.609-0.04-0.717,0.418-1.361,0.341c-0.16,2.673-2.021,3.647-2.717,5.78c-0.504,0.393-0.857,0.393-1.361,0
	c-1.455,4.552-4.507,7.506-6.46,11.56c-2.413,0.988-4.06,2.739-5.44,4.759c-0.302-0.152-0.609-0.299-0.681-0.681
	c-1.884,3.384-4.978,1.389-6.798-1.021c-0.924-9.468,1.248-17.777,2.379-23.458c0.077-0.383,0.332-0.19,0.34,0
	c2.357-6.32,2.061-13.91,3.738-20.74c0.678-2.75,3.071-8.242,4.082-11.219c0.246-0.72-0.053-3.053,1.021-2.039
	c1.696-3.896,2.999-9.857,0.332-13.877L141.27,286.494z M174.934,82.161c-0.971-0.296-2.717-1.894-3.4-2.04
	c-1.152-0.246-1.813-0.614-2.039-0.68c-0.605-0.173-1.221,0.104-1.702,0c-1.026-0.228-2.163-0.166-2.72-0.34V78.42
	c-0.164-0.184-2.084-0.697-2.039-0.68c-1.995-0.87-4.379,0.057-6.12-0.34c-1.009-0.229-1.304-1.157-2.38-1.7
	c0.293,0.15-0.547,1.167-0.34,0c-1.164,0.859-2.225-0.354-3.061-0.339c-0.098,0.001-0.346,0.709-0.681,0.68
	c-0.02-0.001-0.19-0.607-0.681-0.68c-1.986-0.295-4.084,0.122-6.118,0c-5.479-0.33-10.099-0.658-13.938-0.34
	c-2.36,0.195-4.859-0.193-7.143,0c-0.805,0.067-1.577,0.583-2.379,0.68c-0.628,0.076-1.588-0.515-2.039-0.339
	c-0.234,0.091-0.285,0.597-0.681,0.68c-1.813,0.373-3.605,0.112-4.759,0.34c-0.153,0.031,0.02,0.629-0.341,0.681
	c-2.177,0.305-4.659-0.359-6.8,0.339c-1.079,0.353-2.03,1.622-3.741,1.02c-0.049,0.335-0.038,0.581-0.337,0.681
	c-2.988,0.982-5.104,1.29-8.5,2.041c-0.99,2.184-3.392,1.696-5.102,2.379c-0.166,0.066-0.033,0.565-0.337,0.68
	c-1.163,0.44-2.682,1.336-4.422,1.36c-2.225,2.159-3.837,2.908-6.8,4.08c-3.37,4.014-9.108,8.205-7.479,17
	c0.677,0.457,1.619,0.647,2.38,1.02c1.727-2.468,4.734-3.654,6.8-5.78c2.448-0.385,3.522-2.146,5.44-3.061
	c4.214-1.188,6.912-2.2,9.858-4.079c1.057,0.114,1.627-0.788,2.382,0c0.08-1.588,0.944-0.278,1.358-1.361
	c4.929-0.254,10.385-2.72,13.94-3.06c4.407-0.422,7.321-1.952,9.861-1.021c0.039-0.51,0.102-0.678,0.681-0.681
	c5.279-0.006,13.054-0.828,17.336,0c1.413,0.274,0.219,0.633,1.362,0c0.25-0.136,0.921,0.527,1.36,0.681
	c-0.157-0.053,0.625-0.048,1.019,0c5.966,0.73,10.11,0.316,14.96,2.38c0.038-0.414,0.103-0.805,0.679-0.68
	c0.436,0.331,0.4,0.471,1.021,0.68c2.843,0.961,5.847,1.721,9.52,2.04c-0.234,0.913,0.703,0.658,1.019,1.02
	c1.27-0.285,4.009,1.534,6.8,1.7c1.007,1.319,2.118,1.781,3.742,1.701c-0.232,1.384,1.037,0.615,0.681,0.68
	c0.377-0.07,3.001,1.934,3.398,2.041c0.987,0.263,1.176,1.065,1.702,1.7c0.143,0.174,0.575-0.43,0.678-0.34
	c1.277,1.097,2.337,2.841,4.422,3.06c6.519-3.79,1.413-10.572-1.021-14.28c-3.377-2.177-6.053-5.052-9.518-7.14
	c-0.594-0.026-1.059,0.076-1.361,0.339c-0.061-0.957-1.615-0.423-1.356-1.698c-0.983-0.404-2.237-0.085-3.073-0.341H174.934z
	 M82.449,105.62c-1.134-0.224-1.663-1.057-2.72-1.359c-0.384,2.085,1.438,1.962,1.701,3.401c1.528,0.219,2.671-0.938,3.398,0.34
	c-0.135,1.268,0.274,1.995,1.361,2.039c1.163-1.929,2.415-2.043,4.759-3.061c-0.305,2.119,1.78,1.847,2.042,3.401
	c-0.002,1.018-0.612,1.429-1.362,1.7c-0.909-0.562-1.09-1.854-2.039-2.38c-0.949,0.413-1.289,1.433-1.702,2.38
	c-1.615,0.857-1.751-0.869-2.72-0.34c0.639-0.602-0.404-0.992,0.34-1.7c-2.905,2.312-5.362-1.55-8.16-3.739
	c-0.168,0.966-1.776,0.489-1.358,2.04c0.986,0.714,1.649,1.748,2.039,3.059c0.08-0.597,0.584-0.774,1.358-0.68
	c0.564,0.458,1.174,0.869,1.36,1.699c-0.581,0.214-0.559,1.027-1.021,1.36c-1.574-0.694-3.178-3.408-4.418-2.38
	c0.736-0.057,0.155,1.206,0.341,1.7c0.205,0.586,1.612-0.026,1.698,0.681c0.42,1.432,0.44,2.438-1.021,2.72
	c-0.827-0.532-1.367-1.353-1.358-2.72c-0.513-0.659-1.431,0.594-1.701-0.681c-0.265-1.307,1.843-1.986,0.681-3.061
	c-0.047,1.412-0.221,0.069-0.681,0c0.02,0.637-0.26,0.719-0.678,0.341c-0.484,2.863,2.077,3.944,0,5.78
	c-0.991-0.149-1.679-1.621-1.021-2.38h-1.699c-0.379,3.324,2.67,3.224,5.1,3.739c0.241,1.26-0.582,1.46-0.34,2.72
	c1.488-0.248-0.274,0.676,0.681,0.68c1.007-0.983,1.953,0.975,2.039,2.04c2.13,0.721,1.718-0.645,3.74-0.68
	c0.179,0.952,0.498,1.768,0.678,2.72c1.652,0,3.273,1.883,5.102,2.72c-0.058-1.434,0.52,0.006,1.019,0
	c-0.18-1.065-1.4-1.092-1.019-2.72c1.068,0.388,0.825-0.534,1.358-0.681c0.111,0.797,1.484,0.331,1.703,1.021
	c0.506,1.751-0.812,1.683-1.021,2.72c2.692,1.16,6.84,3.704,11.22,3.399v0.681c2.169,0.669,4.311,0.073,6.8,0.339v0.681
	c3.486,0.662,7.537,1.118,12.238,1.019c0.509-0.547-0.293-1.705,0-3.06c0.717,0.828,1.513-0.3,2.042,0.34v3.061
	c1.29,0.851,0.958-0.181,3.058,0.34c0.243-1.262-0.579-1.46-0.338-2.72c1.367-0.128,0.833-0.219,2.039-0.681
	c-0.102,0.668,0.459,0.673,0.681,1.02c0.246,1.041-0.587,1-0.34,2.042c0.896,0.268,2.762,0.45,4.078-0.34
	c-1.101-0.256-1.475-1.244-1.358-2.72c0.341,0.001,0.405-0.275,0.681-0.341c0.922,0.21,1.59,0.675,2.039,1.359
	c-0.402,0.732-1.453,0.816-1.021,2.382c0.717-0.85,2.806,0.336,2.72,0.338c0.075-0.002,0.027-0.658,0.34-0.679
	c1.057-0.076,5.102,0.04,3.06-0.68c0.207,0.02,0.405,0.05,0.341,0.338c-1.104-0.255-1.478-1.244-1.362-2.72
	c1.214,0.259,2.335-1.052,2.722,0.34c0.354,1.176-1.555,1.809-0.34,2.72c1.037,0.056,2.465-0.577,3.739,0
	c0.54-1.575-1.406-3.765,1.361-4.08c0.451,1.248,0.636,3.411,1.019,3.739c0.052-0.845,1.155-0.099,1.361,0
	c0.362-1.065,0.978-1.876,1.021-2.379c0.163,0.605,0.362-0.148,0.679-0.34c0.566,0.682,0.912,1.582,2.041,1.701
	c2.83-0.637,7.445-1.033,10.199-2.72c0.146,1.179,3.588-1.413,4.759-0.34c1.499-1.878,3.932-0.785,5.439-2.72
	c3.388-0.408,3.89-2.435,7.481-2.039c-0.002-1.705,0.92-2.483,1.699-3.401c0.311,1.234,1.005,0.208,2.042,0.34
	c0.011-1.012-1.013-2.717,0.337-3.061c0.363,0.714,1.331,0.068,2.724,1.02c0.038-1.719,0.62-0.692,0.677-0.34
	c0.109-0.459,0.486-0.649,0.341-1.359c-0.712-0.742-0.971,0.171-2.039,0c-0.669-2.9-2.592-1.713-3.741-3.06
	c0.152-2.787,4.109-2.22,2.721,0.681c2.703,0.23,3.464,0.073,4.422-1.02c-1.18-0.411-1.398-1.777-2.042-2.721
	c-0.437,0.654-0.703-0.803-1.7,0c-0.248-1.262-0.436-2.723,0.683-3.399c-0.021,0.585,0.259,0.871,0.681,1.02
	c0.43-0.992,0.215-1.592,1.699-2.039c0.816-2.403-1.301-3.846-2.38-3.74c-0.006,0.831-0.077,3.552-2.042,4.081
	c-0.972-1.984,0.637-3.438,0.34-5.78c-0.691-0.896-2.256-0.918-3.4-1.362c-0.902,0.458-1.02,1.699-2.381,1.701
	c0.492-1.286-0.934-0.651-0.682-1.701c0.146-0.534,1.07-0.29,0.682-1.358c-1.621,0.26-1.508-1.212-3.06-1.021
	c-0.036,0.869-0.623,1.189-1.019,1.7c-1.176,0.07-1.605,0.484-2.38-0.34c-0.418-1.549,0.933-1.333,0.679-2.72
	c-4.469-1.348-6.639-2.297-11.557-3.06c0.644,1.706-0.131,2.716-1.703,3.06c0.246-0.928-0.674-0.686-0.681-1.359
	c0.266-0.756,0.714-1.326,0.681-2.38c-2.406,0.187-4.369-1.173-5.779-1.359c-1.428-0.189-3.305,0.505-4.758,0.339
	c-0.334-0.037-1.101-0.637-1.362-0.68c-0.62-0.101-1.051,0.36-1.358,0.341c-0.933-0.059-1.8-0.967-2.72-1.019
	c-0.781-0.048-2.025,0.703-2.379,0.678v-0.678c-0.96-0.31-3.342-0.015-4.762,0c-0.725,1.436,0.518,2.542,0.681,4.078
	c-0.756,0.716-1.641-0.358-3.061,0c-0.376-1.436-0.838-2.788-1.358-4.078c-1.891,0.589-3.553,1.654-5.102,0
	c-1.068,0.29-0.847,1.87-2.039,2.039c-1.068,0.049-1.167-0.872-1.358-1.7c-1.181,0.065-1.293,1.203-2.382,1.359
	c-0.882-0.135-1.023-1.014-2.039-1.021c-1.134,0.451-1.615,1.558-2.379,2.38c-0.973,0.226-1.829-1.725-3.06-1.021
	c-0.252,1.387,1.096,1.171,0.681,2.72c-0.451,0.003-0.312,0.596-0.681,0.681c-0.1-1.373-1.508,0.225-1.699-1.362
	c-0.25-1.039,0.587-0.998,0.338-2.039c-1.065,0.041-2.64,0.714-3.739,0.341c0.971,2.136,0.794,5.308-1.701,5.78
	c0.544-1.34-1.466-0.119-1.358-1.021c-0.225-1.471,0.792-1.701,1.699-2.039c-0.299-1.203,0.874-1.751-0.341-2.04
	c-0.825,0.955-1.583,0.006-2.039,1.02c-1.754,0.13-6.651,0.11-4.759,2.382c-0.04-1.418,1.588,0.421,1.699,1.02
	c-0.672,0.235-0.905,0.907-1.021,1.7c1.5,0.204,2.435,0.967,2.042,3.06c0.288,0.731,2.167-0.128,2.38,0.68
	c0.033,1.053-0.155,1.887-0.681,2.381c-0.675-0.567-0.433,0.031-1.358,0c-0.346-1.397-1.283-1.447-0.681-3.061
	c-1.353-0.059-1.559-0.527-2.72-1.359c-0.358-1.176,1.555-1.81,0.34-2.72c-0.064,0.504-0.822,0.311-1.36,0.34
	c-1.021-1.603,0.957-2.213,0-3.401c-1.444,0.946-3.077,1.492-4.419,1.701c-0.387,1.653-0.166,3.913-1.698,4.419
	c-1.088,0.201-1.055-0.639-1.703,0c0.009-0.802-0.586-1.001-0.34-2.04c-0.927-0.031-0.683,0.565-1.358,0
	c0.091,1.224-0.628,1.638-0.681,2.72c1.481,0.333,2.189,1.436,2.039,3.401c-2.806,1.221-2.468-2.04-2.72-3.74
	c-0.789,0.695-2.216-0.271-2.72,0.34c0.777,0.435,0.002,2.205-0.645,2.376H82.449z M157.936,95.08
	c-0.018-0.468,0.16-0.746,0.337-1.019c-0.583,0.133-0.868-0.505-1.018,0c0.713,0.1-0.504,0.918,0.688,1.019H157.936z
	 M185.467,110.041c-0.754,1.056-0.607,3.385,1.358,2.04c-0.1,0.667,0.46,0.674,0.681,1.02c0.367,1.27-0.844,0.969-0.681,2.041
	c0.739,0.509,0.794,1.7,2.042,1.7c0.418-0.715,0.941-1.327,1.357-2.04c-1.17-2.644-2.481-2.744-2.379-5.78
	c-0.381,0.204-2.814,1.655-2.36,1.02H185.467z M191.588,111.74c0.445-0.079,0.016-1.638-0.34-1.02
	c-0.16,0.275,0.109,1.062,0.344,1.02H191.588z M190.224,109.7c0.188,0.605,0.176,1.412,0.683,1.7c0.221-0.827,0.688-1.749-0.677-1.7
	H190.224z M137.865,149.819c3.215-0.374,6.183-0.979,8.16-0.34c0.069-0.305,0.02-0.618,0.34-0.68
	c2.097-0.399,3.713-0.873,4.418-0.34c0.014-0.574,0.133-0.596,0.682-0.68c2.455-0.373,5.08,0.152,6.119-1.361
	c2.902,0.803,6.176-1.946,7.141-3.739c1.247-0.804,5.63-3.508,8.498-1.359c0.078-0.263,0.012-0.67,0.341-0.68
	c-0.305,1.098,1.108,0.477,1.36,1.02c-0.305-1.187,1.106-0.581,1.358-0.34c0.395-0.623,0.889-1.152,1.36-1.701
	c4.043-1.498,5.832-3.31,8.84-6.458c-0.666-0.468-0.185-2.083-0.682-2.72c0.842-1.652,2.092-2.893,2.38-5.099
	c1.247,0.229,2.452-2.229,4.078-2.721h1.702c1.249-1.972,1.855-6.193-1.357-6.799c-1.352,1.709-1.818,4.305-4.762,4.419
	c-0.655,1.568-2.893,3.129-4.419,2.72c-2.784,3.413-6.631,5.367-9.521,5.44c-1.728,1.035-3.256,1.819-5.099,1.7
	c-0.193,1.167-1.541,1.18-2.041,2.04c-1.065-1.166-2.206,0.327-3.059,1.021c-0.367-1.013-3.4,0.376-4.761,0.681
	c-0.437,0.097-0.813-0.395-1.018-0.34c-0.623,0.161-0.796,0.775-1.702,1.02c-0.632,0.17-2.001,0.289-2.721,0
	c-0.163,0.402-0.361,0.771-0.68,1.019c-3.441-0.42-7.568,0.999-10.88,1.701c-0.075-0.265-0.009-0.671-0.338-0.68
	c-0.078,0.263-0.011,0.668-0.343,0.68c-0.075-0.265-0.009-0.671-0.338-0.68c-2.676,0.494-5.396,1.426-7.141,0.338
	c-0.285,0.794-1.47,0.659-2.039,0.681c-6.336,0.241-12.034-0.501-17.68-1.02c-1.926-0.177-3.901,0.166-5.44-1.021
	c-1.533,0.681-5.261-1.272-7.139-0.34c0.458-1.105-0.891-0.21-1.36-0.338v-0.681c-2.994-0.775-8.237-0.985-9.861-2.72
	c-4.867-1.34-8.282-2.099-11.557-5.1c-2.844-0.331-3.278-3.07-6.12-3.401c0.672,1.277-1.743,1.15-0.681,1.7
	c0.445-0.241,1.762-0.815,2.379-0.341c0.215,1.146-0.438,3.159,0.34,3.74c-0.095-1.228,1.488-0.777,2.039-1.36
	c1.021,0.689,0.924,3.399-0.34,3.741c-0.982-0.275-3.132,0.844-4.078,1.7c-0.102-1.03-1.312-0.955-1.36-2.041
	c0.705-1.147,1.812-1.577,2.041-2.379c-0.194-0.35-1.599-0.08-1.701-1.359c-1.066-0.161-0.896,0.915-1.699,1.021
	c-0.38,4.347,1.506,6.961,5.44,7.819c0.38-1.217,1.857-3.115,1.699-3.739c-0.018,0.358-0.435,0.267-0.341-0.341
	c1.117,0.557,1.672,0.295,2.042-0.678c1.63-0.271,1.583,1.137,2.72,1.359c0.005,2.323-3.671,1.077-4.421,3.398
	c-0.451-0.441-1.265-0.449-1.358,0.34c0.467,0.016,0.748-0.16,1.019-0.34c0.976,3.671,4.697,4.598,7.822,6.121
	c0.31-1.24-1.478-2.12-0.34-3.061c-0.237,1.078,1.862-0.662,3.401,0v2.042c-1.072-0.164-1.331,0.484-2.043,0.679
	c-0.008,1.577,4.444,2.645,4.082,1.362c-0.468,1.082-0.338-1.202-0.341-1.7c1.572,0.437,0.936-1.332,1.703-1.7
	c-0.327,1.458,0.951,1.313,1.018,2.379c0.062,1.307-1.173,1.318-1.361,2.38c8.793,3.354,16.349,4.142,26.181,5.78
	c0.675-0.004,0.431-0.927,1.36-0.68c5.221,2.148,10.831,0.075,16.318,1.7c0.332-1.198,2.237-0.514,3.688-0.682H137.865z
	 M205.525,123.3c-0.141,1.56-0.744,2.656-1.36,3.739c1.731,4.153-0.398,11.037,5.442,11.561c0.267-6.291,1.764-9.659,1.699-15.299
	c-2.58,0.306-3.601,0.613-5.776,0H205.525z M80.074,182.118c3.157-1.317-0.691-7.818,2.379-8.838
	c-0.155,1.743,0.894,2.281,1.36,3.398v-1.359c2.001-0.378,3.011-1.748,3.401-3.739c-1.981-1.664-3.671-1.619-5.099-4.079
	c-2.081-3.584-1.481-8.802-5.442-9.86c-0.313-0.083-0.235-0.645-0.34-0.681c-1.632-0.536-2.884-0.038-4.419,1.02
	c1.038,10.068,0.28,21.78,1.358,31.28c0.1,0.87,0.767,1.437,1.021,1.7c-0.465,3.405,0.636,4.333,1.701,6.12
	c1.099,1.844,2.463,4.404,3.739,5.44c0.341,0.276,1.497,0.381,2.039,0.68c1.615,0.889,1.865,1.331,3.061,2.04
	c1.245,0.738,1.585,1,2.382,1.7c0.445,0.393,1.068,0.326,1.018,1.02c1.946-0.019,2.861,0.993,3.742,2.042
	c2.125-0.559,4.518,0.998,6.119,2.039c5.014,0.732,11.084,3.167,15.978,3.06c0.805-0.018,0.777,0.582,1.699,0.681
	c2.526,0.271,4.914,0.044,7.141,0.339c0.896,0.119,1.477,0.639,2.379,0.68c1.926,0.088,3.948-0.887,5.78,0.34
	c0.371-0.983,2.631-0.35,4.082-0.34c0.075-0.264,0.009-0.67,0.341-0.68c1.773,0.002,11.651,0.594,12.917-1.021
	c3.169,0.292,2.932-1.373,6.121-0.34c0.157-1.078,1.66-0.497,2.379-0.68c1.404-0.359,2.768-1.555,4.76-1.359
	c1.065-1.185,2.899-0.15,3.741-1.701c4.427,0.234,5.583-2.802,9.521-3.06c0.053-0.399-0.062-0.964,0.336-1.02
	c0.65,0.638,0.617-0.202,1.703,0c-0.115-1.247,1.723-0.542,1.357-2.041c0.834,0.862,0.726-0.716,2.042-0.338
	c0.166-1.34,1.2-1.291,1.358-1.362c0.189-0.083,0.16-1.198,0.339-1.358c0.186-0.166,0.796,0.12,1.021,0
	c0.409-0.224,0.778-1.201,1.021-1.36c0.354-0.235,0.733-0.072,1.018-0.339c0.965-0.904,1.823-3.207,3.06-4.76
	c0.193-0.242,0.832-0.043,1.021-0.34c0.849-1.343,2.896-5.162,3.057-6.12c0.58-3.446-0.717-7.344-0.338-11.219
	c-4.352,0.504-8.023-3.793-7.142-9.858c0.214-1.46,1.183-2.955,1.702-4.421c-0.359-3.304,1.511-4.382,1.699-7.139
	c1.645-0.042,3.09-1.899,5.779-1.36c-0.229-1.921,0.582-4.888-0.681-5.779c-1.937,4.275-8.187,2.545-7.819-3.401
	c1.159,0.252,0.563-1.252,1.358-1.359c0.606,0.435,2.573,0.055,2.724-1.02c-0.316,1.332,1.792,0.246,2.039,1.02
	c-0.02-0.585,0.26-0.872,0.678-1.02c0.249-3.988-4.035-3.445-4.419-6.799c-4.271,1.946-8.085,5.049-11.56,6.799
	c0.486,3.932,2.658,6.181,3.059,10.2c-0.666-0.102-0.674,0.458-1.02,0.68c-1.34-0.764-2.048-0.285-3.061-1.021
	c-0.28,1.354,1.488,1.248,2.041,1.699c1.193,0.976,1.889,2.538,2.721,3.401v1.359c0.93,0.542,1.676,1.269,2.72,1.7
	c0.411-1.179,1.528-1.643,2.381-2.379c0.212,1.05,1.837,2.448,0.681,3.739c0.006-1.69-0.99,1.281-1.699,0
	c0.202,0.884-0.139,1.224-1.021,1.02c-0.731,0.858-0.675,2.499-2.38,2.381c-0.086,1.692-0.141,1.445-0.34,2.72
	c-1.1-0.338-1.17,1.449-2.38,0.678c-0.06,1.871-0.176,3.799,1.018,4.42c0.132-1.799,1.099-1.218,1.702-2.041
	c2.34,1.205-0.147,3.99-1.021,5.101c-1.43,0.411-1.492-0.549-2.381-0.68c-5.06-0.639-10.02,4.109-12.921-2.382
	c-1.638-0.466-1.46-0.633-3.398-0.678c-1.329-1.506-3.149-2.516-3.06-5.44c0.34-0.001,0.404,0.274,0.682,0.339
	c-0.383-3.668,1.115-5.458,1.699-8.16c2.393-0.72,3.126-1.465,5.779,0.34c-0.234-2.554,0.971-3.775,2.721-5.101
	c0.617,0.629,2.05,0.443,2.719,1.021c0.498-0.86,1.211-1.508,1.699-2.381c0.031-0.027,2.027,0.671,1.702-0.339
	c-1.909,0.131-5.961-5.394-9.521-6.46c-1.48,1.325-4.443,1.159-6.798,1.7c-0.687,0.156-1.337,0.97-1.702,1.02
	c-0.035,0.005-0.387-0.778-0.681-0.68c-0.229,0.076-0.38,0.716-1.019,1.02c-0.143,0.066-1.771-0.196-1.021-0.34
	c-3.503,0.67-6.452,1.893-10.199,2.04c-0.448,0.019-0.916-0.335-1.021-0.34c-0.228-0.01-0.842,0.709-1.358,0.68
	c-0.124-0.005-0.719-0.719-1.021-0.68c-0.329,0.043-0.929,0.592-1.36,0.68c-3.799,0.774-14.889,1.178-17,0
	c-0.135-0.076-1.124,0.385-1.358,0.34c-0.016-0.002-0.157-0.612-0.34-0.68c0.07,0.025-1.234,0.021-1.36,0
	c-3.132-0.514-5.266,0.004-7.479-0.34c-0.528-0.081-3.718-1.269-4.422-1.359c-0.697-0.091-1.652,0.526-2.379,0.341
	c-4.453-1.135-8.406-2.39-12.919-3.061c-0.382-0.638-1.317-0.723-1.702-1.359c-5.139-0.594-6.607-2.946-11.216-3.739
	c-0.748-1.295-2.161-1.921-3.401-2.721c-3.848,2.17-4.003,9.807-3.74,14.96c3.525-1.379,3.348,0.331,7.142,1.021
	c1.419-1.299,3.189-2.248,3.397-4.759c1.813-1.136,3.73-2.167,5.439-3.401c1.594,1.605,5.579,0.404,5.781,5.1
	c-3.191,0.856-3.859,5.064-6.117,6.46c-1.214,0.751-1.74-0.048-2.043,0c0.033-0.005-0.205,0.625-0.34,0.68
	c-0.774,0.326-1.63-0.096-2.379-0.339c-0.358,4.721,2.337,9.181,6.802,10.199c0.252-1.539-0.933,0.52-0.681-1.02
	c0.639-0.21,1.094-2.481,3.741-1.7c1.774-3.266,2.521-4.272,6.117-5.1c2.596,0.717,3.403,0.878,5.442,3.061
	c0.734-1.37,1.071-1.024,2.039-2.04c4.009,0.158,6.906,1.053,6.46,4.761c-0.107,0.885-0.938,1.432-1.021,2.379
	c-0.141,1.582,0.626,3.358,0.341,5.1c3.414,3.245-0.617,7.37-4.419,6.802c-0.398,1.53-0.998,2.855-2.382,3.399
	c-0.752,3.32,2.25,5.209,2.039,8.161c-0.08,1.142-1.179,1.684-1.358,2.039c-0.285,0.563-0.014,1.287-0.341,2.039
	c-0.968,2.249-2.311,3.23-1.358,5.441c-0.67-0.102-0.675,0.458-1.021,0.68c0.011-1.03-1.709-0.329-1.698-1.359
	c-0.548-2.515-2.411-5.14-3.74-5.78c-1.588-1.759-1.159-6.256,0.34-7.819c0.033,0.381-0.495,0.53,0,0.68
	c0.197-0.207,0.794-1.612,0-1.699c-0.266,1.829-0.197-0.979-1.021-0.681c-4.08,1.845-6.482-1.354-8.16-3.061
	c-0.573-1.818,1.019-1.475,1.021-2.72c-0.902-1.39-2.897-0.766-3.401-1.021c-1.07-0.541-1.563-2.449-3.061-2.041
	c0.239,0.075,0.703,0.011,0.681,0.34c-0.135,1.983-1.796,6.191-3.74,6.799c-0.033,0.011-3.273-0.541-2.72-0.339
	c-1.524-0.558-1.325-2.496-1.361-4.421c2.135-2.076,3.234,0.731,3.762,1.711L80.074,182.118z M196.693,142
	c0.023-1.34,2.486-0.232,2.381-1.7c-0.737,0.057-0.154-1.207-0.34-1.7c-0.928,0.247-0.684-0.675-1.359-0.681
	c-1.057,0.314-1.475,3.04-0.676,4.081H196.693z M199.41,139.96c-0.264,1.622,0.531,2.188,0.34,3.739c2.205,0.44,2,0.183,3.4-0.339
	c0.111,1.136,1.088,1.405,1.699,2.039c0.207-0.813,0.489-1.551,0.34-2.72c3.1-0.883,1.564,3.065,3.06,4.08
	c1.653-3.867-1.366-6.414-4.081-7.141c-0.074,1.096,0.604,1.439,0.342,2.721c-0.461,0.463-2.375,0.648-2.381-0.34
	c-0.288-1.421,0.66-1.606,0.68-2.72c-1.326-1.316-2.003,1.437-3.404,0.683H199.41z M65.453,146.418
	c0.449-1.219,1.117-0.104,2.042-0.68v-2.04c-1.61-0.056-2.089-0.511-3.061-0.68c-0.02-0.208-0.053-0.403-0.34-0.341
	C63.143,144.408,64.235,145.857,65.453,146.418z M175.945,150.16c-0.398-3.114-2.506-4.519-3.737-6.799
	c-1.364-0.36-1.651,0.313-2.382-0.681c-0.033,0.873-1.264,0.546-1.699,1.02c-0.424,2.236,1.459,2.169,1.699,3.74
	c2.432-0.698,3.301,3.612,5.783,2.72c-0.529-0.133-0.05-0.408,0.331,0H175.945z M136.849,356.865
	c0.197-1.594,2.532-2.236,3.401-4.078c2.125-1.051,2.814-3.536,3.74-5.783c2.411-1.903,4.139-5.891,5.776-7.479
	c0.451-1.693,2.039-3.326,2.043-4.418c1.047,0.5,1.064-2.021,2.721-2.043c-0.142-0.818,0.619-0.738,0.339-1.699
	c0.46-0.105,0.647-0.484,1.358-0.34c-0.197-2.023,1.643-2.22,2.382-3.06c0.634-0.723,0.782-1.784,1.358-2.38
	c0.263-0.275,0.71-0.459,1.02-0.682c-0.174,0.125,0.694-0.69,0.679-0.678c1.568-1.267,3.354-1.926,4.081-3.06
	c0.258,0.666,1.084-0.925,2.38-0.341c0.187-0.605,0.175-1.413,0.681-1.701c3.486-0.969,8.783-4.627,12.578-4.42
	c0.039-1.203,0.625,0.036,1.021-1.021c1.618-0.176,2.782,0.239,4.419,0c0.919-0.131,1.893-0.992,2.724-1.018
	c0.085-0.004,0.016,0.762,0.677,0.682c0.612-0.076,1.199-0.613,1.703-0.682c3.309-0.455,5.176,0.812,7.139,1.018
	c1.699,0.184,2.756-0.496,4.422-0.68c2.521-0.274,5.473-0.166,8.159-0.678c2.198-0.424,4.577-0.887,6.118-2.382
	c0.018,1.405,1.256-1.018,2.725-0.337c1.227-1.521,2.811-1.732,5.098-2.724c0.581-1.228,1.768-1.854,3.061-2.38
	c2.537-5.621,5.922-10.393,9.178-15.298c0.591,0.026,1.059-0.075,1.359-0.339c4.83-6.371,10.471-14.319,15.639-21.422
	c0.471-0.015,0.748,0.161,1.021,0.343c0.318-1.384,1.639-1.767,2.721-2.382c2.023-1.915,3.158-4.268,4.759-6.461
	c2.324-3.179,4.972-5.898,7.142-8.838c1.381-1.869,2.133-4.074,4.081-5.439c-0.249-1.039,0.587-1,0.337-2.041
	c7.868-9.734,11.051-25.514,11.559-41.818c0.232-7.356-2.063-13.553-3.059-20.739c-0.629-4.538-0.994-8.346-2.72-10.881
	c-1.077-0.621-2.046-1.354-2.72-2.38c-1.689-5.085-4.561-10.505-3.739-16.999c-0.976-0.05-1.263-0.444-1.36-2.039
	c0.232-1.369,1.887,0.271,1.702-1.021c0.066-2.22-1.141-3.168-2.382-4.079c0.19,1.031-0.988,0.06-1.699,0
	c-2.164-0.185-4.424,0.037-5.779,0.681h-2.721c-3.522,1.797-6.864,5.218-10.539,7.819c-1.637,3.691-4.474,6.18-6.119,9.86
	c2.474,2.729,5.066,5.434,7.139,8.5c1.035,1.529,1.428,3.257,2.38,4.762c0.299,0.467,0.978,0.34,1.36,1.019
	c3.459,6.123,6.719,17.325,5.44,26.521c-0.907,6.539-3.159,12.322-5.44,16.659c-1.31,0.729-2.361,1.716-2.72,3.398
	c-0.268,1.403,1.628,0.642,1.358,2.041c-0.486,0.533-0.854,1.186-1.699,1.362c-0.739-0.511-0.541-1.954-1.699-2.043
	c-0.383,2.604-2.359,2.372-3.4,4.759c-2.013,0.142-1.785,2.525-4.081,2.381c-0.968,2.433-3.761,3.041-5.44,4.762
	c-4.205,0.927-7.071,5.137-11.559,5.439c-0.551,1.604-2.585,1.723-4.078,2.381c-2.184,5.343-0.465,16.247-3.741,19.383
	c-0.667,3.752-2.19,6.646-4.419,8.836c-0.904-0.115-1.148-0.892-1.36-1.699c3.328-4.217,6.577-11.92,5.099-18.699
	c-0.047,0.632-0.222,1.136-0.682,1.358c-0.398-0.507-1.41-0.4-1.357-1.358c-0.059-0.852,0.523-1.064,1.021-1.36
	c0.953-0.017,0.93,1.481,1.698,0.681c0.114-2.379-2.06-2.477-2.38-4.42c-0.91,0.241-3.16,0.896-2.381,1.697
	c0.322-0.832,1.338,0.438,1.358,1.021c-0.047,0.635-0.224,1.137-0.677,1.361c-1.213,0.074-2.039-0.231-2.383-1.021
	c-0.174-0.997,1.694-1.67,0.682-2.38c-0.589,1.538-2.223,0.726-3.061,1.019c-1.076,0.382-1.98,1.869-3.738,1.359
	c0.041,0.613-0.34,0.797-1.021,0.682c-0.738,2.435-2.649,3.697-3.4,6.119c-0.642-0.076-0.75,0.384-1.36,0.338
	c-1.044,3.265-3.868,4.747-5.099,7.822c-0.846-0.053-1.051,0.533-1.699,0.678v1.359c-1.488-0.637-2.322,1.256-3.4,2.043
	c-1.135-0.453-1.938,0.129-3.061,0c-0.697-0.083-5.136-1.513-6.12-1.021c-0.255,0.129,0.136,0.673-0.337,0.679l-0.681-0.679
	c-0.39-0.066-0.687,0.388-1.36,0.341c-1.756-0.128-2.07-0.294-3.398-0.681c-0.564-0.164-1.334-0.612-1.703-0.682
	c-1.537-0.287-3.455,0.211-4.08,0v-0.682c-0.133-0.15-0.83,0.1-1.018,0c-2.996-1.579-4.159-2.743-6.801-2.379
	c-0.053,4.027-1.5,6.66-2.381,9.86c-1.283-1.185-0.303,1.953-2.039,1.356c-1.469,5.446-5.52,8.308-7.142,13.6
	c-2.888,2.098-3.901,6.07-5.44,9.521c-0.649-0.872-0.993,0.749-1.357,1.701c-0.836,2.175-1.597,4.637-2.039,7.139
	c-3.481,2.75-3.237,8.488-4.081,13.94c-0.29,1.88-1.259,3.621-1.702,5.44c-0.982,4.038-1.281,8.04-2.039,11.559
	c-0.409,1.902-0.501,4.319-1.021,5.779c-0.246,0.697-0.876,1.013-1.018,1.702c-0.972,4.751-0.36,11.688,1.699,13.597
	c1.143,0.836,1.512-1.476,3.392-1.008L136.849,356.865z M57.293,144.371c-0.005-0.52-1.602,0.169-2.039,0.34
	c0.382,2.195-1.154,2.472-1.021,4.419c0.675,0.004,0.435,0.927,1.362,0.68c1.364-0.618,0.423-1.568,2.039-2.039
	c0.816-0.238,1.538,0.901,2.379,0.68c3.564-0.938,3.019-3.752,0.681-5.439c-0.482,1.625-2.527-0.193-3.061,1.02
	c0.075,1.284,1.748,0.972,2.039,2.04c-0.473,0.433-0.146,1.666-1.018,1.7C57.105,147.203,57.598,145.486,57.293,144.371z
	 M245.648,155.25c0.982-2.19,3.212-3.133,3.738-5.78c0.342,0,0.406,0.277,0.681,0.34c-0.069-1.403-2.676-0.271-2.38-2.039
	c0.041-0.866,0.494-1.32,1.361-1.36c1.339,0.133,0.574,2.371,1.698,2.721c1.466-1.647-0.392-3.555-2.039-4.079
	c-0.567,1.213-0.912,0.673-2.042,1.02c-0.979-0.152-0.801-1.463-1.698-1.7c-3.688,0.453-4.905,6.155-5.1,11.219
	c2.606-0.646,4.511-0.45,5.789-0.342H245.648z M42.335,149.47c-0.069,1.333-2.645,1.442-3.061,1.361
	c-0.08,1.617,0.432,3.831-1.019,4.078c-1.17-0.945-1.658-1.684-3.061-1.699c-1.148,1.797-3.486,2.406-5.1,3.739
	c0.266,0.784,1.466,2.586,0,3.061c-1.431,0.071-1.428-1.292-2.72-1.359c-2.379,1.082-4.319,3.434-6.12,4.079
	c-0.225,1.585,1.214,1.506,1.36,2.72c-0.476,1.306-1.178,0.411-1.701,1.359c-0.418-1.056-1.077-1.869-2.039-2.379
	c-0.964,2.143-3.313,1.673-3.401,4.08c1.478-0.139,2.565,2.65,1.021,3.399c-1.926,0.458-1.605-1.589-2.723-2.72
	c-1.181,2.556-3.881,3.597-4.418,6.802h2.039c-0.246,1.04,0.587,0.998,0.34,2.039c-1.084-0.29-1.051,0.536-1.698,0.681
	c-0.547-0.698-1.118-1.375-1.361-2.379c-5.758,5.676-8.328,19.71-4.759,28.557c0.977,2.42,1.671,5.044,3.06,7.141
	c0.584,0.882,1.534,1.465,2.039,2.379c0.977,1.763,1.668,2.961,3.061,4.422c3.199,3.354,7.822,7.347,11.22,9.859
	c0.392,0.289,1.259,0.338,1.701,0.682c0.592,0.465,0.876,1.371,1.358,1.699c0.496,0.336,1.23,0.096,1.701,0.338
	c0.172,0.092,0.398,0.858,0.678,1.021c0.443,0.258,1.294,0.117,1.701,0.341c1.453,0.802,2.631,2.082,4.078,2.72
	c0.459,0.199,1.19,0.208,1.701,1.018c0.055-0.396,0.537-0.368,1.019-0.336c0.697,2.234,4.093,2.135,6.12,3.059
	c0.562,0.254,0.938,1.127,1.362,1.358c1.53,0.849,3.167,0.581,4.078,1.702c0.04-0.416,0.102-0.808,0.681-0.681
	c1.317,1.399,3.998,1.441,5.099,3.06c4.43,1.051,7.581,1.632,10.542,3.738c2.41,0.525,5.224,0.234,7.138,1.02
	c0.228,0.096-0.053,0.582,0.341,0.682c-0.011-0.002,0.05-0.736,0.34-0.682c1.568,0.299,2.831,1.628,4.418,2.039
	c1.615,0.422,3.461,0.08,5.1,0.341c0.05,0.009,0.238,0.657,0.34,0.681c2.293,0.482,4.721-0.067,6.802,0.34
	c1.524,0.296,2.877,1.309,4.418,1.699c0.039-0.415,0.102-0.805,0.681-0.678c3.881,1.217,8.926,1.357,12.577,1.698
	c1.043,0.097,2.087,0.793,3.401,1.019c0.024,0.006,0.024-0.73,0.34-0.681c0.133,0.022,0.553,0.564,1.021,0.681
	c3.993,0.998,8.514-0.899,11.9,1.021c0.04-0.414,0.1-0.804,0.681-0.681c1.092,1.459,5.581-0.689,7.479,1.021
	c0.164-0.401,0.363-0.77,0.677-1.021c0.941,0.647,6.093,0.767,6.12,0c3.149,1.475,6.719,0.346,10.203,0
	c4.708-0.467,9.486,0.368,11.899-1.021c0.485,0.083,0.573,0.562,1.019,0.681c0-0.595,0.151-0.567,0.682-0.681
	c2.169-0.46,4.539-0.267,6.459-0.338c1.803-1.946,4.076-0.21,5.781-0.681c0.271-0.075-0.022-0.598,0.681-0.682
	c0.587-0.066,1.06,0.111,1.358,0.341c0.076-1.425,1.078,0.202,1.357-1.021c1.701,0.854,3.176-0.614,4.422-1.018
	c-0.113,0.036,0.901,0.454,1.361,0.339c0.096-0.023,0.074-0.597,0.336-0.681c1.771-0.563,6.447-0.102,7.482-1.7
	c2.606-0.054,2.666-0.117,3.738-1.02c5.891-0.631,6.882-2.193,13.941-3.74c0.053-0.398-0.061-0.963,0.338-1.019
	c0.076,0.263,0.012,0.67,0.34,0.681c0.178-1.093,3.141-0.764,4.08-2.041c2.023,0.037,1.689-0.288,3.061-1.018
	c2.72,0.021,4.332-2.546,7.818-2.725c1.248-2.035,4.911-1.66,5.78-4.076c0.075,0.263,0.009,0.668,0.341,0.681
	c3.392-2.954,8.733-3.96,11.219-7.819c10.746-6.845,19.287-21.194,16.66-37.741c-1.329-8.347-5.465-14.14-8.84-20.739
	c-0.509-0.398-1.393-0.423-1.699-1.019c-0.305-1.058-1.138-1.584-1.361-2.72c-2.055,0.019-3.34-4.143-5.439-4.08
	c-0.994,1.839,0.216,3.699-0.682,5.781c-0.037-0.415-0.102-0.805-0.678-0.681c0.541,2.402,1.816,4.076,3.398,5.44
	c0.711-0.916,3.129-0.918,3.4,1.02c-1.53-0.968-0.367,1.01-2.039,0.681c-0.121,2.047,0.778,3.075,1.699,4.079
	c1.904,4.734,3.904,12.52,3.061,20.06c-0.349,3.125-2.308,8.648-3.74,9.52c-1.119,5.018-4.768,7.682-6.799,10.88
	c-1.813,0.23-2.054,1.448-3.061,2.38c-1.318,1.221-3.35,2.905-4.758,4.082c-1.021,0.848-1.144,1.043-2.042,0.677
	c-0.054,0.402,0.058,0.967-0.341,1.021h-1.018c-3.334,4.063-9.063,4.736-12.922,7.819c0.03-1.326-0.464-0.149-0.678,0
	c-1.818,1.267-3.682,1.157-5.1,2.38c-0.043-1.34-0.361-0.128-0.681,0c-1.167,0.468-1.151,0.688-2.042,1.021
	c-0.777,0.289-1.897-0.231-2.039,1.02c-4.99,1.041-7.207,2.939-12.237,3.398c-1.132,1.461-2.479,1.621-5.442,1.702
	c-0.164,0.401-0.363,0.77-0.679,1.021c-0.038-0.414-0.102-0.808-0.681-0.682c-0.246,1.163-1.707,0.381-3.4,0.682
	c-0.729,1.203-3.293,0.833-4.419,2.037c-0.104-1.385-0.278-0.064-0.683,0c-1.518,0.245-4.266-0.344-5.098,1.021
	c-0.473-0.712-3.4-0.086-4.422,0.681c-0.445-0.345-1.254-0.334-1.699-0.681c-0.217,1.334-1.316,0.489-1.702,0.681
	c-0.265,0.136,0.128,0.623-0.337,0.682c-0.936,0.116-1.967-0.394-2.723-0.341c-0.945,0.067-1.4,0.634-2.039,0.681
	c-0.474,0.033-0.928-0.429-1.357-0.339c-0.172,0.036-0.316,0.644-0.682,0.679c-2.498,0.246-5.24-0.322-7.818,0
	c-0.949,0.121-1.793,0.893-2.721,1.02c-1.181,0.164-2.841-0.011-4.08,0c-2.349,0.023-4.798-0.04-7.139,0
	c-5.48,0.103-13.796,0.787-20.06-0.678c-0.288,0.504-1.095,0.488-1.701,0.678c-1.187-1.178-4.17-0.743-6.798-1.02
	c-0.528-0.057-1.992-0.731-1.36-0.679c-2.822-0.231-4.246-0.036-6.458-0.341c-1.992-0.273-3.901-0.67-5.783-1.02
	c-0.838-0.155-1.524,0.283-2.379,0c-3.39-1.13-6.641-0.486-9.518-2.039c-5.5-0.781-7.73-1.926-11.219-2.721
	c-0.038,0.414-0.102,0.806-0.681,0.682c-1.059-1.088-3.093-2.309-5.099-2.039c0.354-0.994-3.227-1.143-3.061-1.021v-0.682
	c-1.436-0.464-1.477-0.002-2.042-0.68c-0.128-0.155-0.567,0.383-0.677,0.34c-0.794-0.322-0.551-0.658-1.021-1.02
	c-0.409-0.317-2.021-0.351-2.72-0.68c-0.405-0.191-0.772-0.925-1.021-1.021c-0.44-0.176-1.298,0.182-1.699,0
	c-0.15-0.067-0.398-0.878-0.681-1.021c-2.651-1.34-6.588-2.534-9.18-4.078c-0.385-0.229-0.752-0.892-1.019-1.021
	c-0.374-0.179-0.889,0.413-1.021,0.341c-0.117-0.064-0.191-0.896-0.341-1.018c-0.821-0.692-1.757-0.225-2.379-0.682
	c-1.699-2.258-4.241-3.951-6.458-4.758c-2.362-2.769-7.006-5.484-9.18-8.843c-1.42-2.19-3.525-5.959-4.763-8.5
	c-1.076-2.215-2.573-4.185-3.057-6.459c-2-9.351,0.893-15.861,3.739-22.1c0.467,0.015,0.746-0.158,1.021-0.339
	c1.403-3.912,3.769-7.211,6.458-9.861c1.363-1.342,3.373-2.095,4.081-4.08c1.395,0.054,2.112-1.358,3.061-2.039
	c0.971-0.698,3.001-1.046,3.061-2.72c-0.786-0.462-1.649-0.846-1.361-2.381c2.34-0.639,2.322,1.082,3.74,1.361
	c4.527-3.708,9.147-5.332,14.62-7.821c0.51-1.969,1.046-4.16-0.339-5.44c-2.233,1.003-3.432,1.16-5.44,2.039
	c-0.343,1.59,1.364,1.13,1.019,2.721c-0.888,0.13-0.949,1.09-2.379,0.68c0.25-0.928-0.675-0.685-0.677-1.359
	c0.19-1.054,1.599-0.894,1.699-2.04c-1.317,0.114-2.247,2.054-4.076,1.319L42.335,149.47z M188.878,146.75
	c-0.147,1.507,0.566,2.152,1.698,2.38c0.526-0.495,0.299-1.741,0.341-2.721C190.068,146.366,189.27,146.358,188.878,146.75
	L188.878,146.75z M222.197,152.871c0.646,0.145,0.615,0.971,1.699,0.681c0.691-0.218,0.225-1.589,1.021-1.7
	c-0.164,1.071,1.559,0.254,1.702,1.021c0.259,1.28-0.415,1.626-0.343,2.72c1.752,2.484,4.274,0.791,5.783,2.72
	c-0.199,1.104,0.229,1.583,0.336,2.38c3.828,0.25,3.039,5.122,7.143,5.101c0.791-1.361-0.234-2.022-0.682-3.061
	c1.038,0.019,0.816-1.224,2.039-1.02c-0.012-4.18-3.963-4.423-6.12-6.46c-0.604-0.064-0.919,0.761-1.698,1.359
	c-1.577-0.537-1.354-1.986-1.018-3.739c-3.709-1.509-7.117-5.122-10.543-5.781c-0.467,1.874,2.25,3.602,0.689,5.779H222.197z
	 M197.039,149.811c-0.507,1.399-1.219,3.35,0.681,3.74c0.169-0.589,0.972-0.788,1.358-1.021c1.469-0.88,3.15-1.777,3.74-0.68
	c1.233-1.622,2.783-0.385,4.078-0.681c-0.186-0.494,0.397-1.758-0.338-1.7c-0.588,0.903-2.645-0.009-3.06-0.68
	c-1.571,1.032-3.674-0.725-5.101,0c0.786,0.293-0.861,1.904-1.352,1.021H197.039z M82.795,156.271
	c1.261,1.501,3.271-0.044,4.422-0.681c-0.144-2.189,3.339-2.544,2.039-4.759C87.165,150.328,83.789,153.129,82.795,156.271z
	 M54.576,153.89c-1.156,1.65-4.529,1.777-7.138,2.72c-1.508,0.544-2.797,2.19-4.082,1.359c-4.33,4.438-10.783,7.401-15.639,12.24
	c-2.667,2.655-5.155,6.765-7.141,9.52c-1.34,1.858-1.556,4.126-2.38,6.12c-0.462,1.117-1.461,1.873-1.698,3.059
	c-0.144,0.706,0.174,1.642,0,2.38c-0.133,0.553-0.593,0.277-0.681,1.021c-0.205,1.701,0.152,3.301,0,5.099
	c0.002,0.451,0.595,0.311,0.681,0.681c0.719,6.648,3.608,11.123,6.119,15.98c1.727,2.323,4.344,3.521,6.119,5.438
	c0.412,0.445,0.259,0.996,0.681,1.36c0.352,0.304,0.954,0.036,1.358,0.339c0.327,0.244,0.288,1.072,0.681,1.359
	c0.365,0.271,1.237,0.373,1.701,0.68c1.143,0.759,1.906,2.049,2.72,2.721c0.993,0.828,2.172,1.154,3.398,1.361
	c4.33,4.285,11.836,5.39,16.663,9.178c5.489,0.556,6.048,2.91,10.54,3.059c1.59,1.773,3.663,1.066,5.44,2.381
	c0.894-0.149,1.751-0.199,2.72,0c0.998,0.211,1.641,1.018,2.72,1.361c2.928,0.93,6.528,0.786,8.5,1.36
	c1.099,0.318,0.055,0.62,1.362,0c4.518,1.483,7.094,1.429,11.9,2.039v0.679c0.666,0.105,0.672-0.457,1.019-0.679
	c1.223,1.445,6.889,0.681,7.481,1.021c0.27,0.153-0.135,0.637,0.338,0.68c-0.056-0.004,0.163-0.692,0.681-0.68
	c2.327,0.054,4.71,1.237,7.481,1.019c2.161-0.169,4.764-0.337,7.139,0.681c-0.058-1.345,0.523,0.108,1.019-0.681
	c0.642,1.104,1.555-0.038,2.723,0.681c0.944-1.314,3.708,0.188,6.12-0.681c0.542,1.123,1.27-0.047,2.039,0.681
	c0.158-0.734,1.323-0.625,2.039-0.681c2.585-0.193,6.652,0.429,8.499,0.341c0.729-0.036,1.306-0.586,2.039-0.682
	c1.563-0.203,4.093,0.356,5.439,0c0.203-0.053-0.068-0.634,0.342-0.678c1.059-0.117,1.994,0.447,3.06,0.336
	c-0.128,0.016,0.304-0.657,0.339-0.681c-0.326,0.183,0.623,0.011,0.682,0c4.606-0.746,7.063-0.39,10.879-1.018
	c0.537-0.03,0.268-0.869,1.021-0.681c1.666-0.033,3.32-0.078,4.078-1.02c4.502,0.768,9.084-2.631,14.279-2.379
	c3.053-1.494,6.815-2.568,9.861-3.404c-0.208-0.017-0.404-0.05-0.34-0.338c3.436,0.223,3.104-1.362,6.458-1.359
	c1.771-2.355,4.37-1.598,6.46-3.742c0.526,1.51,0.564-0.553,2.039,0c1.397-1.529,2.563-2.046,4.762-2.039
	c1.824-2.315,4.277-2.149,6.121-4.076c2.441-0.469,2.846-2.074,4.758-2.383c-0.059-0.852,0.76-0.824,1.021-1.357
	c0.994,0.088,1.043-0.77,2.038-0.682c3.901-5.275,10.927-7.433,12.581-14.958c1.713-1.46,2.529-3.815,2.717-6.799
	c1.209,0.042,1.519-2.204,1.701-3.74c0.498-4.183-0.815-8.859-0.68-11.899c-0.346-0.332-0.69-0.672-1.021-1.02
	c-2.482-11.344-10.397-17.255-17.336-24.14c-0.819,0.139-0.743-0.621-1.703-0.341c-0.393-0.853-1.354-1.138-1.357-2.379
	c-1.86-0.768-2.155-1.003-4.081-1.7c-0.921,0.893-0.728,2.899-1.698,3.739c-1.693-0.98-1.951,1.112-3.401,1.359
	c-1.981-0.742-4.943,0.442-6.8,1.7c-0.449-0.003-0.312-0.596-0.682-0.68c-2.727,1.648-5.289,1.661-7.479,4.08
	c-0.076-0.266-0.285-0.396-0.679-0.34c-0.775,1.726-2.753,2.767-2.382,6.458c1.189,1.813,3.109,2.446,4.422,3.741
	c0.615,0.607,0.295,0.674,0.679,1.359c0.64,1.143,2.015,1.841,2.723,2.72c2.313,2.877,2.05,5.42,3.737,9.859
	c0.205,0.537,0.568,0.29,0.682,1.021c0.385,2.511-0.404,5.43-0.682,6.458c-1.215,4.559-1.413,10.662-5.439,11.56
	c0.225,1.244-0.736,1.305-0.682,2.382c-2.027,1.352-2.928,1.878-4.759,3.399c-0.429,0.356-0.507,0.675-1.021,1.021
	c-1.893,1.267-3.548,2.636-4.758,4.418c-1.196-0.936-2.529,0.808-3.402,2.041c-1.129,0.149-1.064,0.715-2.721,0.338
	c-0.785,1.963-3.424,1.545-5.098,1.359c-1.486,2.354-4.613,1.689-6.461,4.078c-0.736-0.431-0.755-0.076-1.699-0.677
	c-5.776,1.553-8.16,2.712-13.259,3.057c-0.962,1.682-2.091,1.413-3.401,0.343c-0.738,0.357-1.508,0.578-2.379,0.678
	c-0.85,0.098-2.548-0.29-3.4,0c-0.312,0.107-0.418,0.682-0.683,0.682c-0.544,0-0.799-0.75-1.36-0.682
	c0.03-0.002-0.287,0.585-0.678,0.682c-2.643,0.655-8.608,0.242-10.203,0.34c-1.201,0.072-2.152,0.723-2.72,0.681
	c-0.128-0.011-0.327-0.702-0.677-0.681c-0.048,0.002-0.072,0.637-0.34,0.681c-1.157,0.179-3.284-0.427-4.763-0.339
	c-1.046,0.061-1.358,0.462-2.039,0.339c-0.432-0.076-0.31-0.626-0.681-0.681c0.113,0.018-0.194,0.654-0.34,0.681
	c-0.436,0.069-0.318-0.653-0.677-0.681c-0.908,0.859-2.49,0.199-3.06,0c-0.642-0.225-2.718,0.447-3.401,0.34
	c-0.514-0.08-0.777-0.625-1.361-0.681c-6.36-0.609-11.681-1.237-18.698-2.039c-3.764-1.826-7.178-1.263-10.88-3.401
	c-2.408,0.242-5.955-1.906-10.199-2.721c-2.58-2.66-8.288-3.419-10.542-5.439c-0.075,0.263-0.008,0.67-0.34,0.681
	c0-1.502-1.95-2.386-2.72-2.04c-3.52-4.865-8.733-8.041-11.897-13.261c0.155-1.508-1.309-2.475-1.702-4.079
	c-0.858-3.505,0.234-7.577,0-10.541c1.074-2.101,1.793-4.555,2.72-6.799c2.03-2.05,4.396-3.765,5.78-6.459
	c2.167-0.668,3.099-2.568,4.418-4.082c2.563,0.295,3.074-1.46,4.763-2.039c-0.259-6.446-0.23-13.353-1.36-18.02
	c-5.911-0.943-7.189,1.892-13.595,1.995L54.576,153.89z M177.313,160.011c0.287-1.107-0.576-2.789-1.361-1.7
	c0.763,0.267-0.061,2.105,1.365,1.7H177.313z M167.799,164.09c-1.479,0.485-1.563-1.162-2.379-0.341
	c-1.703,2.873,0.933,3.521,2.039,5.101c0.037-0.651,1.139,0.4,2.041,0c1.023,2.053-1.373,4.888,0.679,5.781
	c0.88-1.503,2.778-1.985,2.72-4.42c-1.251-1.92-3.35-0.994-3.738-3.401c-0.291-1.775,1.68-3.682,1.357-5.78
	c-0.14-0.933-0.926-1.292-1.357-2.379c-0.541,1.727,0.037,4.566-1.353,5.44H167.799z M171.88,161.03c-0.412-0.073-0.21-0.376,0-0.68
	c-0.86-0.359-1.509,1.146-0.681,1.359c0.077-0.264,0.008-0.671,0.34-0.681c-0.012,0.192,0.258,0.387,0.332,0.001H171.88z
	 M109.996,179.05c-0.551-1.054-0.296-1.321-0.681-2.04c-1.001-0.03-4.726-2.064-3.74-4.08c1.749-0.007,2.672,0.056,3.401,0.341
	c0.18-0.869,0.451-1.19-0.34-1.7c-1.831,1.029-2-2.527-3.74-2.72c0.058,0.851-0.52,1.063-1.019,1.359
	c0.166,1.095,1.243,2.008,0,2.72c-0.883-0.308-1.265-0.172-2.379,0v2.039c1.156-0.022,2.371-0.104,2.72,0.681
	c0.033,1.053-0.155,1.885-0.681,2.379c-0.357-1.887-1.466,0.01-2.379-0.339c-2.554-0.977-2.518-5.01-2.382-7.479
	c-0.83-0.34-0.722-0.114-2.039-0.34c0.049,1.523-0.036,2.912-0.678,3.739c-1.041,0.37-1.068-0.564-2.382,0.341
	c-0.08,2.35,0.867,3.67,1.703,5.101c1.77,0.195,3.29-2.003,4.759,0c0.219,0.763-1.19,0.783-1.362,2.039
	c0.371,1.515,1.389,0.268,2.382,1.02c0.927-1.915,2.134-2.17,3.061-3.739c0.838-0.044,1.638-0.052,2.039,0.34
	c0.144-0.763,0.73-1.084,1.018-1.7C109.08,176.792,109.094,178.365,109.996,179.05z M90.955,170.551
	c0.02-0.208,0.053-0.404,0.34-0.34c0.451,0.002,0.313,0.595,0.681,0.678c-0.075-0.576,0.382-0.84,0.34,0
	c0.844,0.052,1.648,0.064,1.699-0.678C93.187,168.567,90.573,169.351,90.955,170.551z M101.156,170.211
	c-0.19-0.76-0.644-0.999-0.681-0.681C100.285,171.291,101.287,170.726,101.156,170.211z M102.515,169.871
	c0.071,0.382,0.378,0.528,0.681,0.681c0.002-1.605-1.367-0.25-1.698-1.021c0.188,0.001,0.384-0.275,0-0.34
	C100.69,169.881,101.919,170.579,102.515,169.871z M194.311,195.704c1.225-1.085,1.377,2.702,0,2.72
	c-0.303-1.143-1.511-0.027-2.043-1.359c-2.091,0.82-1.082,3.838-2.039,5.099c-0.883-0.135-1.023-1.014-2.039-1.02
	c-1.195,0.506-1.717,1.915-2.72,2.379c-0.269,0.125-0.501-0.441-0.681-0.34c-0.439,0.251-0.148,1.835-1.021,0.681
	c-0.712,2.459-3.508,2.835-4.759,4.761c-3.055,1.631-5.579,1.86-8.84,4.08c-2.637-0.247-6.47,3.151-9.518,2.379
	c-1.154,1.729-4.18,0.637-6.119,2.718c-0.143-1.281-1.767,0.186-2.039,0c-1.119-0.752,0.586-0.073-0.682,0
	c-0.996,0.059-1.91-0.275-2.72,0c-0.433,0.146-0.597,0.612-1.021,0.682c-0.05,0.008,0-0.755-0.341-0.682
	c-0.047,0.013-0.789,0.96-1.018,1.021c-1.635,0.43-4.803-0.091-7.141,0c-0.531,0.02-2.43-0.07-2.72,0
	c-0.177,0.042-0.292,0.755-0.681,0.679c-1.09-0.214,0.026-0.371-1.018,0c-0.354,0.128-0.513-0.442-1.021-0.338
	c-0.461,0.092-1.053,0.687-1.36,0.683v-0.683c-0.672,0.1-1.14,0.731-1.699,0.683c-0.221-1.203-1.333-0.498-1.699,0
	c-1.251-1.203-3.066-0.627-5.102-0.683c-1.807-0.052-4.187-0.687-5.778-1.021c-1.306-0.273-2.994,0.141-4.421,0
	c-1.206-0.119-2.377-0.896-2.72-1.02c-2.707-0.96-6.966-0.775-9.521-1.36c-1.06-0.243-0.71-1.011-1.358,0
	c-0.119-1.104-2.037-1.533-2.72-1.021c-2.972-1.663-6.253-3.334-9.861-4.081c-0.29-0.94-1.137-1.598-2.039-2.039
	c-0.6-0.295-1.815-0.204-2.039-0.341c-0.548-0.333-0.991-1.603-1.699-2.04c-0.745-0.456-1.513-0.412-2.382-0.68
	c0.254-1.047-1.17-0.414-0.677-1.7c-3.356-0.725-2.762-5.401-6.802-5.44c-0.96-3.308-0.73-11.181-4.759-9.18
	c-0.774-0.813-1.188-1.988-2.042-2.72c1.367-0.376,2.709-0.02,3.401-0.34c-0.736,0.058-0.155-1.205-0.34-1.699
	c2.817-0.088,1.013-2.864,1.36-5.101c-1.961,0.022-1.459,0.518-3.401,0.681c-0.296,2.168,2.459,1.545,1.021,4.08
	c-3.627,0.362-1.5-2.725-1.701-3.74c0.252,1.424-1.298,0.442-1.699,0.681c-0.844,0.501-0.944,1.702-2.039,2.379
	c-0.334-1.042-0.907,0.391-1.361,0.34c0.083,1.138,0.73,2.142-0.34,2.72c-0.694-0.1-0.667-0.92-1.358-1.02
	c-0.387,0.862-1.641,0.853-1.36,2.379c0.21,0.922,1.422,0.847,1.36,2.041c-0.332,0.348-0.672,0.688-1.021,1.02
	c-0.449-0.004-0.31-0.596-0.681-0.68c-1.272,0.993-0.63,3.901-2.72,4.079c0.183,6.167,3.578,10.928,6.461,13.259
	c-0.767-0.68,0.321-2.379,0.681-3.058c1.167,0.077,1.479,1.011,1.698,2.039c-3.069,1.698,0.337,4.474,2.039,5.44
	c0.069-1.357,0.642-1.168,2.38-1.361c-0.247,0.928,0.677,0.685,0.681,1.361c-0.396,0.51-0.982,0.831-1.019,1.7
	c0.681,2.49,4.311,2.034,5.44,4.08c5.537,1.568,9.558,5.578,14.958,5.439c0.266,1.666,3.437,0.418,3.74,2.043
	c4.338,0.029,7.708,2.629,11.561,2.039c2.561,0.754,6.532,1.453,7.819,1.698c1.123,0.213,2.57,0.274,3.74,0.341
	c6.135,0.339,10.818,1.266,17.34,1.018c3.156-0.119,7.068,0.252,10.199,0c0.699-0.056,1.358-0.621,2.039-0.679
	c0.768-0.063,1.245,0.39,2.043,0.341l0.339-0.682c0.38-0.135,0.5,0.526,1.018,0.34c0.38-0.135,0.299-0.589,1.021-0.682
	c1.817-0.227,3.702-0.199,5.439-0.34c4.952-0.4,9.856-1.198,15.301-2.379c2.212-1.744,5.729-1.852,7.479-1.701
	c0.424-1.32,1.015-1.213,3.059-1.359c2.001-1.989,5.134-2.064,8.16-4.078c2.682-0.178,3.039-1.571,4.422-2.72
	c0.466-0.016,0.744,0.16,1.02,0.34c2.539-3.696,7.447-5.02,9.52-9.181c-0.65-0.73-1.256-1.261-1.701-1.359
	c-0.111-1.47,1.148-1.571,2.041-2.039c0.504,0.402,0.529,1.284,1.019,1.699c0.448-0.98,0.398-0.318,1.021-1.021
	c0.232-0.26,0.985-0.731,1.357-2.039c0.543-1.888,0.828-4.286,1.361-6.119c-0.857-0.121-2.449-0.138-2.721-0.68v-1.7
	c0.469,0.014,0.748-0.16,1.021-0.34c1.064-0.16,0.896,0.915,1.699,1.02c0.418-0.961,0.418-2.099,0-3.06
	c-1.506,0.794-1.896-1.166-2.38-2.379c-0.188,1.68-0.175-0.354-0.681-0.341c-0.297,0.498-0.509,1.078-1.361,1.021
	c0.255-1.047-0.932-0.654-0.678-1.7c1.161-1.003,0.717-2.146,1.698-1.02c-1.034-1.8-1.843-3.824-3.737-4.76
	c-0.29,1.89,0.918,0.694,1.357,1.359c-0.846,0.051-0.1,1.151,0,1.359c-0.852,0.281-1.336,0.93-2.38,1.02
	c-1.217-1.358,0.371-2.66,0-3.739c0.017,0.051-0.938-0.56-1.021-0.681c-0.869-1.253-1.688-0.514-3.4-1.7
	c-0.858,1.635-1.172,3.815-1.02,6.46c0.324,1.035,1.938,0.782,1.7,2.379c0.981-1.198,2.601-1.06,3.401-1.698
	c0.179,0.951,0.497,1.767,0.68,2.72c-1.07-0.39-0.826,0.535-1.359,0.68c-0.889-0.245-1.044-1.224-2.039-1.359
	c-1.314,0.378-1.343,1.035-2.381,1.02c-0.013,2.11-0.91,4.284-0.357,5.095L194.311,195.704z M101.833,197.413
	c3.954-1.55,3.222-7.623,0.341-9.858C99.624,189.93,98.408,195.053,101.833,197.413z M192.27,252.487
	c-1.576,0.862-2.785,3.702-4.418,3.398c-0.246,1.682-2.145,1.71-2.721,3.06c-2.883,0.975-3.573,2.659-5.439,4.08
	c-0.637,0.486-1.685,0.051-1.698,1.358c3.278,0.842,9.37,0.1,12.237,1.021c1.93-2.261,4.383-4.005,6.12-6.462
	c0.04-2.305-0.589-3.942-0.341-6.457c-2.311-0.479-1.672,0.713-3.748,0L192.27,252.487z M72.937,260.992
	c-0.073,0.295-0.016,0.633-0.34,0.683c-3.312,0.481-9.67-0.282-12.241,1.356c-0.612-0.959-2.665-0.35-2.72-0.339
	c-3.824,0.813-8.301,0.575-10.54,1.698c-1.327-1.74-5.287,1.501-7.479,0.344c-0.454,1.366-1.591,0.69-2.382,1.018
	c-0.619,0.258-0.821,1.37-1.358,0.682c0-0.188-0.276-0.387-0.34,0c-0.42,0.963-4.032,0.936-5.78,1.699
	c-0.104,1.485,1.004,1.513,0.34,2.722c-1.768,0.664-2.618-0.5-3.74-1.36c-1.367,0.857-3.348,2.674-4.759,2.381
	c-0.958,3.148-6.157,3.781-4.422,8.499c1.375,0.802,1.461-0.796,2.72-1.018c0.288,0.96,0.396,2.097,0.681,3.057
	c3.361,2.062,9.264,0.397,10.88,0.341c0.19-1.551-1.281-1.439-1.019-3.061c1.259,0.24,1.459-0.582,2.72-0.337
	c-0.003,0.337,0.274,0.403,0.34,0.679c0.288,1.283-1.128,1.596-0.34,2.379c1.347-0.125,3.257,0.313,4.078-0.34
	c1.672,1.074,2.459,0.59,4.763,1.021c5.509,1.038,9.689,3.361,12.577,7.818c0.847-0.053,1.051,0.535,1.699,0.682
	c1.127,2.62,3.962,3.51,5.783,5.439c1.336,1.418,1.961,3.466,4.078,4.08c3.342,6.375,10.907,8.877,17.68,10.881
	c0.006-0.59,0.144-0.58,0.681-0.682c2.072-0.396,4.432-0.813,5.44-1.36c0.33-1.82,2.083-2.22,2.039-4.42
	c1.46,0.468,0.595-2.126,1.699-1.021c0.816-3.264,2.338-5.82,3.401-8.836c1.417-0.627,2.092-1.989,2.72-3.401
	c-0.813-1.376-2.003-0.67-2.379-2.039c0.356-1.577,1.535-0.783,2.039-1.702c0.821,0.426,0.78,1.716,2.042,1.702
	c2.275-2.599,4.499-5.247,6.798-7.821c1.199,0.953,2.504-0.883,2.72-2.039c-0.254-0.928-2.05-2.602-0.34-3.401
	c1.214,0.261,1.588,1.358,2.382,2.039c1.209-1.267,3.116-2.534,2.039-5.1c1.45-1.651,3.463,0.917,4.078-1.698
	c-0.18-1.064-1.4-1.094-1.019-2.721c0.449-0.006,0.31-0.597,0.678-0.68c0.531,0.641,1.325-0.487,2.042,0.34
	c0.352-1.598-1.184-1.309-0.681-3.061c0.869-0.261,1.563-0.5,2.039,0.34c-0.108,0.789,0.055,1.306,0.34,1.699
	c-1.713,0.393-2.335,2.844-1.699,3.741c1.603-1.435,1.929-2.302,4.418-3.06c0.467-1.077,0.075-1.135,0-2.381
	c0.812,0.842,0.56-0.883,2.039-0.34c0.144-1.885-0.661-2.067-0.677-3.061c1.066-0.383,0.896,0.098,1.699-0.339v-2.72
	c-2.125-0.795-2.963,0.324-4.418,1.702c-0.047-1.413-0.224-0.07-0.681,0c0.164-1.071-0.484-1.331-0.681-2.043
	c-3.948-0.984-7.651-0.286-11.219-0.681c-0.622,0.979-0.847,0.77-1.698,1.021c-1.763-3.036-6.112-2.031-9.521-2.381
	c-2.158-0.222-3.945-1.044-5.78-1.021c-0.332,0.349-0.672,0.689-1.021,1.021c-3.282-0.141-6.128,1.603-9.177,1.021
	c-0.268,0.752-1.19,0.85-1.701,1.357c-1.627-0.819-3.641,0.457-5.44,0.682c-0.179,1.178,0.506,3.224-0.681,3.4
	c-1.414-0.85-0.786-2.225-1.699-3.061c-0.62,0.639-1.394,0.774-1.715,0.013L72.937,260.992z M176.637,257.244
	c0.541,0.476,0.869,1.172,1.021,2.041c-0.57,0.449-1.141,0.898-2.383,0.679c-0.389-0.951-0.389-1.768,0-2.72
	c-0.918-0.394-0.844-0.164-2.039,0c-0.014,1.119,0.142,2.406-1.018,2.379c-1.165-1.175-1.165-1.57-2.382-2.379
	c-0.503,0.789-0.956,0.646-1.358,0c-0.467,2.014,0.934,4.908,2.721,5.779c0.938-0.079,0.775-1.264,1.36-1.699
	c2.86,1.168,3.63,0.129,6.458-0.34c0.226-1.023,1.306-1.188,1.021-2.721c-1.118-0.209-2.298-2.912-3.392-1.02H176.637z
	 M165.414,258.608v2.38c0.83,0.338,0.727,0.111,2.039,0.34c0.465-0.562-0.277-1.984,0-3.4c-1.266-0.369-0.971,0.836-2.039,0.676
	V258.608z M148.072,259.629c0.018,0.471-0.16,0.746-0.34,1.021c1.195-0.407,1.118-0.496,2.039-0.682
	c0.141,1.463,1.165,0.451,1.702,1.02c0.468-0.773-0.878-1.277,0-1.359c0.138,0.43,0.437,0.696,1.021,0.68
	c-1.462-1.621-2.003-0.27-4.424-0.676L148.072,259.629z M130.398,259.629v2.723c-2.028-0.432-0.863,3.719-2.72,2.38
	c-0.279,2.132,1.419,1.97,2.72,1.7c1.065-1.315-0.199-3.809,2.723-3.742c0.467,0.778,0.371,2.123,1.698,2.042
	c1.456-0.587,0.821-3.259,2.379-3.741c1.4,1.813,2.82,2.724,5.1,1.02c0.241-2.291-2.169-2.838-2.72-1.701
	c-0.553-1.324-2.626-0.198-2.38,0.342c-0.971-1.476-4.806-0.222-6.796-1.045L130.398,259.629z M147.053,260.305
	c-0.424,0.366-0.992-0.367-1.703-0.34c0.232,1.068-0.037,1.389,0.34,1.703c0.283-0.418,2.286-0.824,1.352-1.353L147.053,260.305z
	 M154.869,262.689c-6.285,0.338-12.401,2.185-15.981,3.059c-2.203,0.538-1.893,0.625-3.738,1.361c-0.78,0.311-3.14,1.173-3.06,0.337
	c-0.25,0.774-1.024,1.019-1.703,1.36c-2.554-0.061-3.209,1.776-5.439,2.042c-0.263,0.979-1.239,1.251-1.699,2.036
	c-2.471,0.857-4.1,3.293-6.12,4.762c-1.579,1.149-2.161,2.775-3.401,4.08c-1.029,1.086-2.747,2.648-4.078,3.398
	c-0.414,0.235-1.013,0.045-1.36,0.341c-0.927,0.789-1.29,2.194-2.039,3.06c-0.396,0.457-1.261,0.512-1.699,1.021
	c-1.391,1.607-1.588,4.237-3.061,3.74c-1.214,3.355-8.441,9.416-1.701,11.561c1.06-0.53,1.217-1.959,3.06-1.703
	c1.234-2.199,4.175-4.39,6.12-4.762c-0.237-1.14,0.7-1.111,1.021-1.699c1.065,0.17,0.896-1.172,1.699-0.337
	c1.132-2.904,3.786-2.366,5.099-4.761c4.297-2.137,11.11-3.143,13.262-5.44c4.565-0.733,8.932-3.487,16.319-1.358
	c1.01-1.648,1.763-5.191,3.397-5.102c0.176-3.453,3.354-3.9,3.401-7.479c1.492-0.537,1.148-1.807,1.701-3.06
	c1.157-2.626,3.961-4.939,1.019-7.142c-0.071,0.411-0.376,0.21-0.677,0c-0.074,0.245-0.013,0.65-0.345,0.663L154.869,262.689z
	 M152.822,109.363c0.357,0.962,0.357,1.417,0,2.379c-1.408,0.092-1.322-0.447-2.38,0c-1.301-1.911,1.577-2.165,0.681-4.76
	c0.846,0.052,1.411-0.174,1.699-0.68c0.535,0.145,0.293,1.069,1.361,0.68c0.611,0.862-0.646,1.929,0.681,2.381
	c1.099,0.419,0.261-1.1,1.358-0.681c-0.246,0.928,0.676,0.685,0.681,1.359c0.186,1.204-1.203,0.836-1.021,2.041
	c-0.688-0.671-1.488-1.231-2.038-2.041c0.152-0.494,0.299,0.035,0.682,0c0.061-1.367-0.86-0.898-1.696-0.678H152.822z
	 M85.85,115.144h-2.72c-0.889,0.472-0.962,1.755-1.36,2.72c-0.941-0.186-0.96-1.103-1.699,0c-0.758-0.488-1.273-1.22-1.018-2.72
	c0.882-0.339,2.044-0.074,3.061,0.339c0.597-0.569-0.305-1.138,0-2.379c0.492-0.526,1.738-0.299,2.716-0.341
	C85.202,113.525,85.392,114.466,85.85,115.144c0.451-0.342,1.265-0.322,1.362-1.021c0.752,0.719,2.088,0.857,1.698,2.721
	c-0.329-0.01-0.263-0.417-0.34-0.681c-0.65,1.212-1.209,0.744-2.379,1.02C86.436,116.144,85.603,116.182,85.85,115.144z
	 M90.268,116.163c0.332,0.01,0.266,0.417,0.343,0.681c0.976-0.19,0.589-0.247,1.699-0.681c0.31,0.596,0.115,1.696,0.681,2.039
	c-0.647,1.239-0.927,0.73-2.379,1.021C90.285,117.805,90.772,117.545,90.268,116.163z M153.844,127.722
	c0.512,0.296-0.094,0.51,0.34,1.359c-0.852-0.058-1.064,0.521-1.361,1.021c-0.613-0.794-2.059-0.305-1.699-2.72
	c1.475-0.653,2.102,1.26,2.717,0.34H153.844z M90.611,135.201c0.608-0.043,0.717,0.417,1.358,0.34v2.042
	c-0.684-0.117-1.066,0.069-1.021,0.679c-0.582,0.072-0.88-0.579-1.018,0c-0.765,0.263-0.011-2.644-0.681-1.359
	C88.829,136.296,90.193,136.36,90.611,135.201z M244.967,149.822c-1.102-0.42-0.261,1.1-1.358,0.681
	c0.157-0.727-0.487-0.648-1.021-0.681v-2.039h1.7c0.123,0.794,0.418,1.404,0.688,2.039c1.1,0.42,0.26-1.1,1.358-0.68
	c0.056,0.398,0.62,0.287,1.021,0.339c-0.089,0.997,0.77,1.046,0.681,2.04c-1.491,0.176-1.117,0.107-2.38,0.341
	c-0.196-0.712-0.836-0.971-0.676-2.041H244.967z M131.744,162.742c-0.108,1.197,1.099-0.14,1.699-1.02h3.741
	c0.725,2.134-0.449,3.104-1.021,3.399c-1.009,0.521-1.203,2.06-2.72,2.041c-0.482-0.591-1.048-0.867-1.699-0.34
	C129.839,165.861,130.773,164.158,131.744,162.742z M195.324,183.481c0.333,0.01,0.266,0.415,0.34,0.681
	c1.22-0.449,1.248,0.022,2.383-0.34c0.313,1.333,0.74,1.265,0.338,2.72c-1.709,0.152-2.803-0.938-3.072-3.06H195.324z
	 M211.303,251.822c1.471-0.336,1.887,0.383,2.719,0.682c-0.271,0.637-0.567,1.244-0.68,2.039c-1.329,0.312-1.346-1.068-2.039-0.679
	c-0.652-0.037,0.405-1.144,0-2.04V251.822z M215.051,255.903c0.346-0.445,0.332-1.251,0.678-1.7c0.581-0.072,0.883,0.582,1.021,0
	c1.416,0.771,0.763,2.381,0,3.4c-0.074,0.615-0.259-1.794-1.697-1.708L215.051,255.903z M29.07,273.577
	c1.71-0.608,3.083,0.033,2.72,2.38c-1.026,0.315-2.643-0.484-2.72,0c-0.562-0.05,0.358-1.426,0-2.385V273.577z M93.329,287.184
	c0.161,0.901,1.696,1.322,0.681,2.38c-1.192-0.792-2.813-1.146-1.018-1.36c-0.305-0.831-0.794-1.473-0.681-2.72
	c1.173,0.268,1.494-0.318,1.699-1.021c1.386,1.117,0.654,2.448,1.021,4.761C94.487,288.51,94.291,287.466,93.329,287.184z
	 M94.008,289.223c0.298-0.699-0.88-1.525-1.018-0.68c0.535,0.023,0.266,0.859,1.018,0.676V289.223z M97.409,286.494
	c-0.75-0.044-0.144-1.443-0.34-2.041c0.283,0.244,1.285,1.984,1.362,0.343c0.863,0.033,0.803,1.268,0.337,1.698
	C97.647,286.839,97.47,284.319,97.409,286.494z M99.449,286.839v-1.702c0.274,0.182,0.553,0.354,1.021,0.34
	c0.467,0.775-0.878,1.279,0,1.361c-0.15,0.491-0.435-0.148-1.021-0.013V286.839z M101.15,286.163
	C102.17,283.889,100.268,288.879,101.15,286.163z M92.31,290.575h-1.362c-0.305,1.552,0.566,1.929,0.681,3.061
	c-1.101-0.422-0.259,1.101-1.36,0.681c0.216-2.074-1.679-0.273-1.358-2.039c-1.095,0.297-2.006,1.868-2.379,0.34
	c-0.349-0.041-0.688,1.466-1.021,0.338c-0.474,1.225-2.169,1.877-2.72,2.041c-0.898-0.123-0.307-1.731-1.021-2.041
	c0.175-1.02,1.273-0.67,2.042-1.02c0.219-0.1,2.158-0.818,3.061-1.36c0.745-0.447,1.289-0.128,1.358-1.358
	c1.382-0.268,2.371,0.367,2.382-0.681c1.894,0.024,1.401,0.909,1.7,2.028V290.575z M88.909,291.264
	c0.382-0.072,0.528-0.377,0.681-0.682c-1.906-0.061,0.048,2.36-0.681,0.677V291.264z M126.988,162.062
	c0.343,0.22,0.352,0.781,1.018,0.68c-1.698,3.629-3.32,7.333-4.759,11.219c-3.331,0.187-5.276,1.949-8.5,2.382
	c-1.508-5.676,2.089-8.908,4.759-12.24c0.742,0.199,1.671,0.145,2.379,0c0.454-0.092,0.069-0.529,0.34-0.681
	c0.119-0.064,0.65,0.479,1.021,0.34c0.416-0.153,0.714-0.926,1.019-1.02c0.799-0.242,2.384,0.757,2.716-0.68H126.988z
	 M117.469,172.942c3.246-0.478,7.089-3.272,5.099-6.8c-2.902,0.209-4.538,2.972-5.78,5.779
	C117.612,172.381,117.001,172.602,117.469,172.942z M158.943,173.961c-0.018,1.377,0.684,2.038,1.361,2.72
	c0.225,1.244-0.736,1.305-0.682,2.382c-2.346-0.194-6.021-0.958-5.779-4.76c1.438-0.516,2.494-0.704,5.088-0.341H158.943z
	 M123.596,177.362c1.347-0.216,0.973,1.292,2.379,1.02c-0.244,2.736,1.69,3.294,1.699,5.78c0.719,0.451,1.004-0.167,2.042,0.34
	c1.48,3.351-0.659,4.609-2.72,5.1c0.464,2.167-1.273,2.127-1.021,4.079c-2.598,1.445-4.972-0.525-6.8-1.02
	c-1.126,0.571-2.198,1.201-2.38,2.72c-1.68,0.232-3.799-1.143-5.44-2.72c0.808-3.305-1.853-3.663-1.358-7.48
	c1.192,0.583,2.136-1.601,2.72-2.72c2.484-0.167,3.857,0.891,3.739,4.08c1.488,2.792,5.068,1.334,5.102-0.68
	c0.589-0.791,2.36-0.156,2.379-0.681c0.765,1.288,1.767,1.244,2.381,2.041c0.639-0.719,1.754-0.966,1.358-2.72
	c-0.752-0.654-1.38,0.88-3.057,0.34c-0.566-1.022-0.257-2.917-0.681-4.08c-2.31,2.008-4.615,3.872-7.481,2.04
	c-0.482-1.045-0.152-1.529,0.34-2.381c0.997-0.088,1.046,0.769,2.039,0.681c1.82-0.435,1.815-2.398,3.061-3.061
	c0.833-0.45,1.624,0.366,1.697-0.681L123.596,177.362z"/>
</svg>
