<svg xmlns="http://www.w3.org/2000/svg" xmlns:se="http://svg-edit.googlecode.com" xmlns:xlink="http://www.w3.org/1999/xlink" id="svgcontent" width="205.65" height="395.85" x="0" y="0" viewBox="0 0 205.65 395.85" overflow="hidden"><g mask="" style="pointer-events:all"><title style="pointer-events:inherit">Layer 1</title><g id="svg_1" type="text" text="PREMIERE" font-size="38.38280883123891" font-family="Afta sans" fill="000000" text-anchor="start" font-weight="normal" font-style="normal" lineHeight="1" shapeId="9" shapeVal="45" fill-opacity="1" display="null" elemBBoxWidth="180.0789031982422" stroke="null" stroke-dasharray="none" style="pointer-events:inherit"><path id="svg_6" fill="#000000" stroke-width="0" d="M15.657229948883057,82.44848178833007 C15.657229948883057,82.44848178833007 19.910599948883057,94.13453178833008 19.910599948883057,94.13453178833008 C19.910599948883057,94.13453178833008 26.474979948883057,91.74529178833008 26.474979948883057,91.74529178833008 C31.524509948883058,89.90741178833008 31.362469948883057,85.30993178833008 30.784849948883057,83.72294178833008 C29.865919948883057,81.19817178833009 27.271139948883057,78.22137178833007 22.221609948883057,80.05924178833007 C22.221609948883057,80.05924178833007 15.657229948883057,82.44848178833007 15.657229948883057,82.44848178833007 C15.657229948883057,82.44848178833007 15.657229948883057,82.44848178833007 15.657229948883057,82.44848178833007 M12.784379948883057,81.73773178833008 C12.784379948883057,81.73773178833008 21.643999948883057,78.47225178833008 21.643999948883057,78.47225178833008 C28.460859948883055,75.99112178833008 32.25263994888306,79.22663178833008 33.52602994888306,82.72523178833008 C34.72063994888306,86.00742178833008 34.03998994888306,90.87078178833008 27.078859948883057,93.40442178833008 C27.078859948883057,93.40442178833008 20.514479948883057,95.79366178833007 20.514479948883057,95.79366178833007 C20.514479948883057,95.79366178833007 24.479039948883056,106.68621178833007 24.479039948883056,106.68621178833007 C24.479039948883056,106.68621178833007 22.170689948883055,107.52638178833007 22.170689948883055,107.52638178833007 C22.170689948883055,107.52638178833007 12.784379948883057,81.73773178833008 12.784379948883057,81.73773178833008 C12.784379948883057,81.73773178833008 12.784379948883057,81.73773178833008 12.784379948883057,81.73773178833008 M41.00228994888305,84.76559178833008 C41.00228994888305,84.76559178833008 47.59423994888306,83.12203178833008 47.59423994888306,83.12203178833008 C52.54751994888306,81.88704178833008 53.15468994888305,78.61058178833008 52.60683994888306,76.41326178833008 C52.021839948883056,74.06698178833008 49.74254994888306,71.74754178833008 45.049979948883056,72.91753178833008 C45.049979948883056,72.91753178833008 38.458019948883056,74.56109178833007 38.458019948883056,74.56109178833007 C38.458019948883056,74.56109178833007 41.00228994888305,84.76559178833008 41.00228994888305,84.76559178833008 C41.00228994888305,84.76559178833008 41.00228994888305,84.76559178833008 41.00228994888305,84.76559178833008 M35.703159948883055,73.50741178833007 C35.703159948883055,73.50741178833007 44.641399948883056,71.27886178833008 44.641399948883056,71.27886178833008 C50.67471994888306,69.77458178833008 54.14576994888306,71.79688178833008 55.05575994888306,75.44666178833008 C56.09575994888306,79.61784178833008 53.37573994888306,82.35302178833008 50.88027994888306,83.29167178833008 C53.598599948883056,83.24685178833008 54.779869948883054,84.81154178833008 56.04481994888306,86.55316178833007 C56.04481994888306,86.55316178833007 62.267229948883056,95.16810178833008 62.267229948883056,95.16810178833008 C62.267229948883056,95.16810178833008 59.80920994888306,95.78096178833007 59.80920994888306,95.78096178833007 C54.954099948883055,89.00079178833008 53.19620994888306,86.55136178833007 52.907849948883054,86.18812178833008 C51.76371994888306,84.77239178833008 50.61897994888306,84.30621178833007 48.943059948883054,84.72406178833008 C48.943059948883054,84.72406178833008 41.457279948883055,86.59048178833008 41.457279948883055,86.59048178833008 C41.457279948883055,86.59048178833008 44.68868994888306,99.55093178833008 44.68868994888306,99.55093178833008 C44.68868994888306,99.55093178833008 42.342399948883056,100.13592178833008 42.342399948883056,100.13592178833008 C42.342399948883056,100.13592178833008 35.703159948883055,73.50741178833007 35.703159948883055,73.50741178833007 C35.703159948883055,73.50741178833007 35.703159948883055,73.50741178833007 35.703159948883055,73.50741178833007 M65.13927994888306,94.55409178833008 C65.13927994888306,94.55409178833008 61.278669948883056,67.42205178833008 61.278669948883056,67.42205178833008 C61.278669948883056,67.42205178833008 77.04868994888305,65.17814178833008 77.04868994888305,65.17814178833008 C77.04868994888305,65.17814178833008 77.27578994888306,66.77414178833008 77.27578994888306,66.77414178833008 C77.27578994888306,66.77414178833008 63.899769948883055,68.67741178833008 63.899769948883055,68.67741178833008 C63.899769948883055,68.67741178833008 65.45158994888305,79.58343178833007 65.45158994888305,79.58343178833007 C65.45158994888305,79.58343178833007 75.36959994888306,78.17220178833009 75.36959994888306,78.17220178833009 C75.36959994888306,78.17220178833009 75.60209994888305,79.80620178833007 75.60209994888305,79.80620178833007 C75.60209994888305,79.80620178833007 65.68407994888307,81.21743178833007 65.68407994888307,81.21743178833007 C65.68407994888307,81.21743178833007 67.30077994888306,92.57945178833008 67.30077994888306,92.57945178833008 C67.30077994888306,92.57945178833008 81.58879994888305,90.54641178833008 81.58879994888305,90.54641178833008 C81.58879994888305,90.54641178833008 81.82129994888305,92.18041178833008 81.82129994888305,92.18041178833008 C81.82129994888305,92.18041178833008 65.13927994888306,94.55409178833008 65.13927994888306,94.55409178833008 C65.13927994888306,94.55409178833008 65.13927994888306,94.55409178833008 65.13927994888306,94.55409178833008 M100.70596994888305,87.79336178833007 C100.70596994888305,87.79336178833007 97.86714994888305,87.88590178833007 97.86714994888305,87.88590178833007 C97.86714994888305,87.88590178833007 86.15768994888306,65.60972178833008 86.15768994888306,65.60972178833008 C86.42279994888305,73.74255178833008 86.59657994888306,82.60803178833008 86.88544994888305,91.46975178833009 C86.88544994888305,91.46975178833009 84.46861994888306,91.54853178833008 84.46861994888306,91.54853178833008 C84.46861994888306,91.54853178833008 83.57449994888306,64.11939178833008 83.57449994888306,64.11939178833008 C83.57449994888306,64.11939178833008 88.25470994888306,63.966831788330076 88.25470994888306,63.966831788330076 C88.25470994888306,63.966831788330076 98.20869994888305,84.22646178833008 98.20869994888305,84.22646178833008 C98.94798994888306,85.70009178833007 99.73359994888305,85.06003178833008 100.08845994888306,84.16519178833008 C107.48384994888306,65.98982178833008 108.12685994888305,64.50954178833008 108.54842994888305,63.30530178833008 C108.54842994888305,63.30530178833008 112.88338994888305,63.16399178833008 112.88338994888305,63.16399178833008 C112.88338994888305,63.16399178833008 113.77751994888305,90.59313178833008 113.77751994888305,90.59313178833008 C113.77751994888305,90.59313178833008 111.32231994888306,90.67316178833008 111.32231994888306,90.67316178833008 C111.32231994888306,90.67316178833008 110.43984994888305,64.77977178833008 110.43984994888305,64.77977178833008 C110.43984994888305,64.77977178833008 100.70596994888305,87.79336178833007 100.70596994888305,87.79336178833007 M118.19405994888305,91.33574178833008 C118.19405994888305,91.33574178833008 120.10844994888306,63.95889178833008 120.10844994888306,63.95889178833008 C120.10844994888306,63.95889178833008 122.55895994888306,64.13024178833008 122.55895994888306,64.13024178833008 C122.55895994888306,64.13024178833008 120.64457994888306,91.50710178833008 120.64457994888306,91.50710178833008 C120.64457994888306,91.50710178833008 118.19405994888305,91.33574178833008 118.19405994888305,91.33574178833008 C118.19405994888305,91.33574178833008 118.19405994888305,91.33574178833008 118.19405994888305,91.33574178833008 M126.40156994888305,91.78957178833008 C126.40156994888305,91.78957178833008 130.21565994888306,64.65095178833008 130.21565994888306,64.65095178833008 C130.21565994888306,64.65095178833008 145.98949994888306,66.86782178833008 145.98949994888306,66.86782178833008 C145.98949994888306,66.86782178833008 145.76514994888305,68.46421178833008 145.76514994888305,68.46421178833008 C145.76514994888305,68.46421178833008 132.38587994888306,66.58387178833007 132.38587994888306,66.58387178833007 C132.38587994888306,66.58387178833007 130.85276994888306,77.49253178833008 130.85276994888306,77.49253178833008 C130.85276994888306,77.49253178833008 140.77319994888305,78.88676178833008 140.77319994888305,78.88676178833008 C140.77319994888305,78.88676178833008 140.54348994888306,80.52116178833008 140.54348994888306,80.52116178833008 C140.54348994888306,80.52116178833008 130.62306994888306,79.12693178833008 130.62306994888306,79.12693178833008 C130.62306994888306,79.12693178833008 129.02585994888307,90.49171178833008 129.02585994888307,90.49171178833008 C129.02585994888307,90.49171178833008 143.31733994888305,92.50024178833007 143.31733994888305,92.50024178833007 C143.31733994888305,92.50024178833007 143.08762994888306,94.13464178833007 143.08762994888306,94.13464178833007 C143.08762994888306,94.13464178833007 126.40156994888305,91.78957178833008 126.40156994888305,91.78957178833008 C126.40156994888305,91.78957178833008 126.40156994888305,91.78957178833008 126.40156994888305,91.78957178833008 M151.95093994888305,80.24223178833007 C151.95093994888305,80.24223178833007 158.54288994888304,81.88579178833008 158.54288994888304,81.88579178833008 C163.49616994888305,83.12078178833008 165.57046994888304,80.51289178833008 166.11831994888306,78.31558178833008 C166.70330994888306,75.96929178833008 165.77973994888305,72.85129178833007 161.08715994888306,71.68130178833007 C161.08715994888306,71.68130178833007 154.49520994888306,70.03774178833008 154.49520994888306,70.03774178833008 C154.49520994888306,70.03774178833008 151.95093994888305,80.24223178833007 151.95093994888305,80.24223178833007 C151.95093994888305,80.24223178833007 151.95093994888305,80.24223178833007 151.95093994888305,80.24223178833007 M152.55747994888307,67.81407178833008 C152.55747994888307,67.81407178833008 161.49572994888305,70.04262178833008 161.49572994888305,70.04262178833008 C167.52903994888305,71.54690178833008 169.64437994888306,74.96203178833008 168.73438994888306,78.61181178833007 C167.69439994888305,82.78300178833008 164.00867994888307,83.92105178833008 161.36465994888306,83.57828178833007 C163.78582994888305,84.81487178833008 164.09425994888306,86.75099178833008 164.39349994888306,88.88261178833008 C164.39349994888306,88.88261178833008 165.84307994888306,99.41040178833008 165.84307994888306,99.41040178833008 C165.84307994888306,99.41040178833008 163.38505994888305,98.79754178833008 163.38505994888305,98.79754178833008 C162.28133994888304,90.53167178833007 161.87916994888306,87.54367178833007 161.79508994888306,87.08758178833008 C161.44952994888305,85.30043178833007 160.65763994888306,84.35139178833008 158.98171994888307,83.93354178833007 C158.98171994888307,83.93354178833007 151.49593994888306,82.06712178833007 151.49593994888306,82.06712178833007 C151.49593994888306,82.06712178833007 148.26453994888305,95.02757178833008 148.26453994888305,95.02757178833008 C148.26453994888305,95.02757178833008 145.91824994888304,94.44258178833007 145.91824994888304,94.44258178833007 C145.91824994888304,94.44258178833007 152.55747994888307,67.81407178833008 152.55747994888307,67.81407178833008 C152.55747994888307,67.81407178833008 152.55747994888307,67.81407178833008 152.55747994888307,67.81407178833008 M168.83399994888305,100.32324178833008 C168.83399994888305,100.32324178833008 177.81638994888306,74.43177178833008 177.81638994888306,74.43177178833008 C177.81638994888306,74.43177178833008 192.86535994888305,79.65264178833007 192.86535994888305,79.65264178833007 C192.86535994888305,79.65264178833007 192.33698994888306,81.17567178833008 192.33698994888306,81.17567178833008 C192.33698994888306,81.17567178833008 179.57256994888306,76.74737178833007 179.57256994888306,76.74737178833007 C179.57256994888306,76.74737178833007 175.96198994888306,87.15472178833008 175.96198994888306,87.15472178833008 C175.96198994888306,87.15472178833008 185.42651994888305,90.43821178833008 185.42651994888305,90.43821178833008 C185.42651994888305,90.43821178833008 184.88555994888307,91.99750178833008 184.88555994888307,91.99750178833008 C184.88555994888307,91.99750178833008 175.42103994888305,88.71401178833008 175.42103994888305,88.71401178833008 C175.42103994888305,88.71401178833008 171.65949994888305,99.55652178833009 171.65949994888305,99.55652178833009 C171.65949994888305,99.55652178833009 185.29421994888307,104.28675178833008 185.29421994888307,104.28675178833008 C185.29421994888307,104.28675178833008 184.75326994888306,105.84604178833007 184.75326994888306,105.84604178833007 C184.75326994888306,105.84604178833007 168.83399994888305,100.32324178833008 168.83399994888305,100.32324178833008 C168.83399994888305,100.32324178833008 168.83399994888305,100.32324178833008 168.83399994888305,100.32324178833008 " style="pointer-events:inherit"/><rect id="svg_7" x="12.786329460155685" y="63.1640625" width="180.078125" height="44.36328125" fill="#000000" opacity="0" style="pointer-events:inherit"/></g><g id="svg_8" type="text" text="2016" font-size="24.69724768098456" font-family="Afta sans" fill="000000" text-anchor="start" font-weight="normal" font-style="normal" lineHeight="1" shapeId="0" shapeVal="0" fill-opacity="1" display="null" elemBBoxWidth="54.62890625" stroke="null" stroke-dasharray="none" style="pointer-events:inherit"><path id="svg_21" fill="#000000" stroke-width="0" d="M77.56093,131.08051C77.56093,131.08051 87.61224,131.08051 87.61224,131.08051C87.61224,131.08051 87.61224,132.26593 87.61224,132.26593C87.61224,132.26593 75.51115,132.26593 75.51115,132.26593C75.58525,127.17854 78.30182,125.35102 82.1544,123.37534C84.50053,122.16523 85.46368,120.68346 85.46368,119.00413C85.46368,117.2507 84.27827,115.49728 81.43822,115.49728C79.14148,115.49728 77.98077,116.75678 77.43745,117.42358C76.96823,117.05314 76.67188,116.78148 76.20265,116.46043C77.06702,115.34911 79.04269,114.33657 81.41353,114.33657C85.29081,114.33657 87.04424,116.48513 87.04424,119.00413C87.04424,121.37495 85.68594,123.32594 82.62363,124.83241C79.98115,126.1166 77.68442,128.0182 77.56093,131.08051C77.56093,131.08051 77.56093,131.08051 77.56093,131.08051M97.49068,115.52198C94.25549,115.52198 92.08223,117.52236 92.08223,123.84456C92.08223,129.96919 94.55183,131.64853 97.49068,131.64853C100.42952,131.64853 102.72624,129.49997 102.72624,123.67169C102.72624,117.62115 100.42952,115.52198 97.49068,115.52198C97.49068,115.52198 97.49068,115.52198 97.49068,115.52198M97.49068,114.41066C100.28134,114.41066 104.35619,115.57137 104.35619,123.67169C104.35619,131.57443 99.96028,132.66107 97.49068,132.66107C94.99637,132.66107 90.40289,131.57443 90.40289,123.67169C90.40289,115.86772 94.10732,114.41066 97.49068,114.41066C97.49068,114.41066 97.49068,114.41066 97.49068,114.41066M109.3448,114.33657C109.3448,114.33657 111.36987,114.33657 111.36987,114.33657C111.36987,114.33657 111.36987,132.26593 111.36987,132.26593C111.36987,132.26593 109.73994,132.26593 109.73994,132.26593C109.73994,132.26593 109.73994,115.62077 109.73994,115.62077C109.73994,115.62077 107.64076,116.18877 107.64076,116.18877C107.64076,116.18877 107.64076,115.47259 107.64076,115.47259C107.66547,115.47259 108.80148,114.7317 109.3448,114.33657C109.3448,114.33657 109.3448,114.33657 109.3448,114.33657M119.09976,126.85748C119.09976,128.90726 120.705,131.52505 123.54504,131.52505C129.62029,131.52505 129.91664,122.46158 124.23654,122.46158C121.76694,122.46158 119.89003,124.61014 119.09976,126.85748C119.09976,126.85748 119.09976,126.85748 119.09976,126.85748M129.81786,115.9912C129.81786,115.9912 129.71907,117.42358 129.71907,117.42358C128.55836,116.70739 126.43449,115.54668 124.11305,115.54668C119.02567,115.54668 118.58113,121.77009 118.7787,125.22754C119.17384,124.01743 121.14952,121.27617 124.23654,121.27617C132.13928,121.27617 132.28746,132.51288 123.56975,132.51288C119.61838,132.51288 117.09938,130.46311 117.09938,123.47412C117.09938,113.64507 124.11305,112.83011 129.81786,115.9912C129.81786,115.9912 129.81786,115.9912 129.81786,115.9912" style="pointer-events:inherit"/><rect id="svg_22" x="75.51054688519798" y="114.33593581686728" width="54.62634361744858" height="18.324218293069862" fill="#000000" opacity="0" style="pointer-events:inherit"/></g><g id="svg_14" display="null" style="pointer-events:inherit" clip-id="876"><path fill-rule="evenodd" d="M16.20401,101.80722C15.2878,98.02539 13.97925,96.14906 11.3451,93.16643C15.91283,95.36319 18.00723,96.03207 19.46197,100.83252C21.38216,107.20346 23.25848,109.66216 28.84479,111.11572C32.83014,112.16351 35.59465,111.98929 37.29552,112.81778C40.13191,114.19945 40.51085,116.90549 41.60131,124.19267C42.721,123.45189 43.78343,123.42265 45.1066,123.13145L43.56534,117.1967C41.39783,108.83243 52.48149,106.89764 57.48541,107.50929C73.54373,109.51599 84.88935,113.70602 102.2867,113.82178C118.27315,113.93871 133.85146,108.65822 149.63446,107.32045C157.25544,106.6808 163.23407,111.27657 162.07053,115.85889C161.46012,118.27373 160.93622,120.65933 160.29654,123.07416C161.8244,123.39461 162.95871,123.7431 164.33914,124.47044C164.71805,122.79762 165.34311,118.49185 165.85118,116.28169C167.52523,109.11026 181.3722,114.36151 184.60215,105.21262C187.05966,97.8085 185.60608,96.84842 193.64865,92.97882L191.87348,96.87766C188.48514,100.96536 188.61551,107.23393 186.85738,112.16475C189.91062,108.63022 193.35871,108.17941 197.53287,108.67407C189.66574,112.39743 188.90912,115.51044 185.3734,123.24838C182.79892,128.12196 176.7923,127.80153 171.803,128.51425C171.1487,130.97301 170.55291,136.93698 169.17006,141.3439C168.53041,143.3506 165.67937,144.63107 162.08756,143.32256C158.39218,141.9994 154.76993,140.26807 151.09041,139.90378C145.51996,139.35065 142.04268,140.76149 135.42438,140.44104C130.11589,140.19374 133.40309,134.59406 134.36197,131.45181C114.08435,136.78958 92.61515,137.21234 72.19254,132.09146C72.84684,134.34669 74.49042,139.80139 70.31624,140.48495C66.92667,141.05145 58.69405,138.53549 52.0173,140.15108C46.65029,141.44623 37.32597,147.88907 36.29279,141.09654C35.60927,136.52884 34.21299,130.69641 33.47099,128.23772C28.46707,127.64069 22.54694,128.29619 20.06022,122.7684C16.77178,115.49458 14.77849,111.61038 8.11637,109.6183C11.97134,108.99327 13.83305,107.63966 18.32767,111.69809C17.12025,108.25131 17.04714,105.32713 16.20401,101.80722zM168.35375,140.36797C168.26725,139.01558 166.82712,137.63391 165.31388,136.83344C163.90421,136.09142 163.04647,134.97173 163.19022,133.77895L164.32576,125.70589C162.76987,124.80428 161.34436,124.26576 159.64228,123.93193L157.24208,133.63396C156.77663,135.55414 156.10775,137.72044 152.32589,137.59007C150.69686,137.51692 147.86048,136.73106 145.18369,135.43715C142.24616,134.01163 139.72898,133.26967 137.82341,133.19653C135.46704,133.0954 134.18775,134.44783 133.75156,135.91595C131.68515,142.88394 143.29398,137.10878 152.60245,138.85475C159.01725,140.06213 161.73792,142.6951 164.69005,142.79623C167.03057,142.86932 168.07836,141.79347 168.35375,140.36797zM164.73148,142.01155C161.77808,141.91046 159.05866,139.29211 152.65847,138.08473C145.09474,136.65921 136.00432,140.20836 133.98183,137.85199C135.0869,140.70302 145.09474,137.0515 152.65847,138.4624C159.05866,139.66985 161.77808,142.30151 164.73148,142.40388C166.20085,142.44774 167.40827,142.08469 167.7433,141.00761C167.16214,141.66187 166.20206,142.07007 164.73148,142.01155zM151.05994,129.03697C146.12792,126.89873 139.87393,129.28427 135.45119,130.43326L134.47649,133.67657C137.64797,131.27635 141.5602,132.8907 145.69173,134.89864C149.7063,136.86267 154.97217,138.4624 155.96152,134.84016C156.42693,133.08078 153.69167,130.1859 151.05994,129.03697zM102.70827,115.34961C88.16317,114.98531 63.98673,108.96404 56.55456,108.68745C49.61584,108.41092 43.40573,112.09166 44.55345,116.41206L49.07733,133.48897C50.28475,130.8414 53.54392,126.2164 61.355,127.6273C71.21663,129.38788 79.56624,133.72166 102.70827,134.56599C125.82108,133.7229 134.17066,129.38788 144.03353,127.6273C151.84461,126.2164 156.68769,131.39452 156.30999,133.48897L160.83385,116.41206C161.98279,112.09166 155.77146,108.41092 148.83397,108.68745C141.40056,108.96404 117.22536,114.98531 102.70827,115.34961zM191.469,95.39119C186.41877,97.63181 186.98775,102.85384 184.74713,107.71156C182.50774,112.57048 173.16883,112.75931 170.36042,113.51595C167.55326,114.25673 166.55052,115.95879 166.24471,117.99594L164.19298,131.81487C164.76071,129.76314 166.43236,128.26454 169.24073,127.52376C172.03328,126.76712 182.31768,127.14479 184.55706,122.28711C186.7965,117.42938 188.26706,112.26465 193.31485,110.02527C188.60092,109.98141 186.41877,113.64749 183.48122,118.14217C185.51596,113.44405 186.97313,109.79253 187.59574,106.47612C188.38279,102.36041 188.31089,98.84044 191.469,95.39119zM164.41228,132.74571C163.4522,137.11003 168.09304,135.03018 168.76192,139.29211C169.2858,136.51422 169.89743,131.07291 171.17554,128.12073C169.29921,128.12073 165.94011,129.35617 164.41228,132.74571zM166.72475,117.32707L166.41892,118.84029C168.0333,114.73796 171.75791,113.93871 173.32961,113.79254C171.52643,113.83638 168.66078,114.0106 166.72475,117.32707zM164.99341,128.86275L164.68882,130.37596C166.30316,126.2737 170.02658,125.47438 171.5983,125.32822C169.79509,125.37083 166.9282,125.5463 164.99341,128.86275zM165.19692,127.58221C167.11708,124.26576 169.98395,124.09154 171.78716,124.04768C170.21543,124.19267 166.49205,124.99316 164.89232,129.09543L165.19692,127.58221zM165.38695,126.30293C167.3071,122.98647 170.174,122.79762 171.99179,122.7684C170.40551,122.91457 166.69548,123.71381 165.08234,127.81615L165.38695,126.30293zM165.57579,125.0224C167.51183,121.70593 170.37627,121.51711 172.18067,121.48787C170.60895,121.63284 166.88434,122.43333 165.26999,126.53561L165.57579,125.0224zM165.76465,123.72725L165.4589,125.25508C167.07325,121.1528 170.79784,120.3535 172.36956,120.19272C170.56633,120.23657 167.69945,120.4254 165.76465,123.72725zM165.95352,122.44795L165.64772,123.97578C167.26207,119.85884 170.98668,119.0742 172.55841,118.91336C170.75518,118.95604 167.88831,119.13148 165.95352,122.44795zM166.15821,121.16742C168.07718,117.85097 170.944,117.67674 172.74723,117.63289C171.17551,117.7925 167.45092,118.57831 165.85118,122.69525L166.15821,121.16742zM166.34708,119.88808C168.28305,116.57167 171.14753,116.39621 172.95192,116.35355C171.36559,116.51314 167.6556,117.29901 166.04125,121.41595L166.34708,119.88808zM173.14078,115.07301C171.56909,115.21924 167.84447,116.01848 166.23009,120.12082L166.53591,118.60878C168.47071,115.29114 171.33635,115.11568 173.14078,115.07301zM160.52805,115.62495C160.04798,112.45349 156.09069,109.89366 151.9896,109.58783C156.73154,110.53331 159.5107,112.61308 160.41109,116.105L160.52805,115.62495zM156.55732,131.26173L156.39769,132.00375C155.17566,128.26454 151.97618,127.24716 147.81539,126.56242C152.81931,126.86943 155.4961,128.28033 156.55732,131.26173zM156.81926,130.22974C155.80071,127.23378 153.03739,125.73636 148.09078,125.43054C152.28078,126.14209 155.46566,127.2191 156.67305,130.94377C156.71813,130.70979 156.76081,130.46248 156.81926,130.22974zM157.08124,129.18196C156.10771,126.17133 153.25551,124.59958 148.36855,124.295C152.60121,125.0224 155.74343,126.18593 156.93624,129.88007C156.98011,129.64738 157.03734,129.4147 157.08124,129.18196zM157.34316,128.13417C156.41231,125.10886 153.47481,123.47989 148.64511,123.17406C152.92163,123.90147 156.0334,125.13692 157.19818,128.83228C157.25544,128.60077 157.29932,128.36809 157.34316,128.13417zM157.60514,127.08755C156.71813,124.0623 153.69287,122.34558 148.92166,122.03975C153.24086,122.79639 156.32582,124.0903 157.47477,127.77106C157.51862,127.53838 157.56127,127.32025 157.60514,127.08755zM157.8805,126.05434C157.00811,122.99985 153.90976,121.21004 149.21164,120.90544C153.5613,121.67546 156.61582,123.04375 157.73551,126.70865C157.77936,126.49176 157.82321,126.2737 157.8805,126.05434zM158.14365,125.00778C158.0998,125.22585 158.05596,125.42931 157.99742,125.64743C156.907,121.99591 153.8671,120.55577 149.48824,119.77113C154.12784,120.07697 157.31394,121.95329 158.14365,125.00778zM158.4056,123.95993C158.36174,124.17805 158.31787,124.38275 158.27402,124.58496C157.19818,120.96391 154.18755,119.4507 149.76482,118.63559C154.34714,118.95604 157.61975,120.89082 158.4056,123.95993zM158.66634,122.92799C158.62249,123.11684 158.5786,123.32028 158.53597,123.52498C157.48815,119.91736 154.50675,118.33224 150.04018,117.50252C154.56525,117.82173 157.92556,119.84422 158.66634,122.92799zM158.92829,121.88016C158.88443,122.06898 158.84178,122.27249 158.79792,122.46257C157.77936,118.86952 154.82718,117.21132 150.31795,116.38278C154.78334,116.68742 158.23017,118.78181 158.92829,121.88016zM159.20487,120.83354C158.53597,117.7206 155.00023,115.55305 150.59331,115.24728C155.14643,116.10625 158.05596,117.82173 159.07328,121.41595C159.11714,121.21127 159.16103,121.02243 159.20487,120.83354zM159.46682,119.78575C158.84178,116.67281 155.21953,114.43219 150.88573,114.11293C155.45346,114.98531 158.34835,116.78973 159.33766,120.3535C159.37909,120.16348 159.42295,119.97459 159.46682,119.78575zM159.72876,118.75258C159.14638,115.61034 155.43761,113.29782 151.16107,112.97743C155.77266,113.86562 158.63831,115.74194 159.61301,119.28986C159.64107,119.10226 159.68492,118.92798 159.72876,118.75258zM159.99074,117.70598C159.45221,114.56374 155.6557,112.16351 151.43643,111.84306C156.09069,112.75931 158.92708,114.69411 159.87375,118.22864C159.91764,118.05441 159.96149,117.88019 159.99074,117.70598zM151.71424,110.70876C156.41231,111.63962 159.21949,113.64749 160.13573,117.16747C160.17958,117.00786 160.22222,116.83241 160.2661,116.65936C159.74218,113.50133 155.8738,111.02921 151.71424,110.70876zM159.77262,125.93863C159.72876,126.09941 159.68492,126.25908 159.62763,126.41867C160.9374,126.85481 162.24474,127.29225 163.56913,127.72844C163.59836,127.58221 163.62761,127.43724 163.65564,127.29225C162.36171,126.84019 161.06777,126.38939 159.77262,125.93863zM159.5107,127.08755C160.81801,127.53838 162.12778,127.98918 163.43875,128.42656C163.40952,128.57155 163.37905,128.70314 163.35106,128.84813C162.02664,128.41194 160.70348,127.97574 159.36571,127.53838C159.40833,127.39339 159.45221,127.23254 159.5107,127.08755zM159.2341,128.23648C159.19026,128.36685 159.14759,128.51308 159.10373,128.64345C160.45615,129.07964 161.80979,129.51578 163.14754,129.9532C163.1756,129.83621 163.20607,129.70586 163.23407,129.5743C161.8963,129.12349 160.55849,128.68854 159.2341,128.23648zM158.95754,129.38664C160.30995,129.82285 161.66236,130.27365 163.01599,130.70979C162.98676,130.84016 162.97213,130.95715 162.94286,131.07291C161.57463,130.6367 160.2076,130.20052 158.84058,129.76437C158.86982,129.63277 158.91367,129.51701 158.95754,129.38664zM158.68099,130.53557C158.6371,130.65132 158.60784,130.76831 158.56523,130.86945C159.96149,131.30559 161.35775,131.74178 162.7394,132.17921L162.7979,131.85876C161.42964,131.42258 160.04798,130.97176 158.68099,130.53557zM158.4056,131.68456C159.80188,132.12068 161.19814,132.55812 162.59442,132.99431L162.53595,133.2989C161.12625,132.8627 159.7154,132.42651 158.30326,131.99033L158.4056,131.68456zM158.12903,132.83348L158.04134,133.11002L162.33248,134.40398L162.37635,134.14323L158.12903,132.83348zM163.87371,126.14209L163.7714,126.62337L159.90302,125.3136L160.04798,124.78966L163.87371,126.14209zM40.97504,142.79742C43.92842,142.69629 46.64784,140.06213 53.04805,138.85593C62.35773,137.11003 73.96532,142.88518 71.90015,135.91719C71.46396,134.44783 70.18343,133.0954 67.82706,133.19777C65.92153,133.27084 63.40555,134.01286 60.46679,135.43839C57.79,136.7323 54.95361,137.51817 53.32461,137.59125C49.54275,137.72162 48.88847,135.55531 48.40842,133.63515L46.0082,123.93312C44.32073,124.267 42.8806,124.80551 41.32471,125.70712L42.47367,133.78012C42.60403,134.97296 41.74629,136.09265 40.3354,136.83467C38.838,137.6351 37.38325,139.01677 37.29552,140.3692C37.58671,141.79347 38.63332,142.86932 40.97504,142.79742zM37.90594,141.00761C38.25561,142.08469 39.44842,142.44774 40.91778,142.40388C43.86993,142.30275 46.59058,139.66985 52.99077,138.4624C60.56913,137.0515 70.56234,140.70178 71.68206,137.85199C69.64612,140.20836 60.56913,136.65921 52.99077,138.08473C46.59058,139.29211 43.86993,141.91046 40.91778,142.01155C39.44842,142.07007 38.48833,141.66187 37.90594,141.00761zM49.70357,134.84016C50.67828,138.4624 55.94414,136.86267 59.95872,134.89864C64.09027,132.89194 68.00374,131.27635 71.17398,133.67657L70.19928,130.43326C65.77774,129.28427 59.52256,126.89873 54.59174,129.03697C51.9576,130.1859 49.22353,133.08078 49.70357,134.84016zM18.05111,106.47612C18.69075,109.79253 20.13209,113.44286 22.16803,118.14217C19.22926,113.64749 17.04714,109.98141 12.33443,110.02527C17.3822,112.26465 18.85156,117.42938 21.09219,122.28711C23.3316,127.14603 33.61598,126.76712 36.40852,127.52376C39.21571,128.26454 40.90317,129.76314 41.45632,131.81487L39.40454,117.99718C39.09874,115.96002 38.09477,114.2579 35.28762,113.51718C32.49508,112.76054 23.15614,112.57172 20.90211,107.71274C18.66152,102.85384 19.22926,97.63181 14.18272,95.39119C17.33835,98.84044 17.27985,102.36041 18.05111,106.47612zM34.47372,128.12073C35.75426,131.07291 36.36467,136.51422 36.88856,139.29211C37.57209,135.03018 42.19707,137.11003 41.23823,132.74571C39.71036,129.35617 36.35005,128.12073 34.47372,128.12073zM38.92449,117.32707C36.9897,114.0106 34.12529,113.83514 32.32083,113.79254C33.89133,113.93753 37.61473,114.73796 39.22908,118.84029L38.92449,117.32707zM40.65584,128.86275L40.96163,130.37596C39.34728,126.2737 35.62389,125.47438 34.05218,125.32822C35.85539,125.37083 38.72104,125.5463 40.65584,128.86275zM40.46697,127.58221C38.53218,124.26576 35.66653,124.09154 33.86331,124.04768C35.43505,124.19267 39.15845,124.99316 40.7728,129.09543L40.46697,127.58221zM40.26228,126.30293C38.3421,122.98647 35.47645,122.79762 33.67324,122.7684C35.24498,122.91457 38.96837,123.71381 40.56811,127.81615L40.26228,126.30293zM40.07345,125.0224C38.15327,121.70593 35.273,121.51711 33.46979,121.48787C35.05491,121.63284 38.76489,122.43333 40.37924,126.53561L40.07345,125.0224zM39.88458,123.72725L40.18917,125.25508C38.57482,121.1528 34.85142,120.3535 33.27972,120.19272C35.08414,120.23657 37.94979,120.4254 39.88458,123.72725zM39.69575,122.44795L40.00033,123.97578C38.38599,119.85884 34.66259,119.0742 33.09087,118.91336C34.8953,118.95604 37.76096,119.13148 39.69575,122.44795zM39.50688,121.16742C37.57209,117.85097 34.70644,117.67674 32.90322,117.63289C34.47496,117.7925 38.19833,118.57831 39.81271,122.69525L39.50688,121.16742zM39.3034,119.88808C37.38325,116.57167 34.5176,116.39621 32.71315,116.35355C34.28489,116.51314 38.00828,117.29901 39.60802,121.41595L39.3034,119.88808zM32.5097,115.07301C34.09482,115.21924 37.8036,116.01848 39.41795,120.12082L39.11336,118.60878C37.17977,115.29114 34.31291,115.11568 32.5097,115.07301zM45.00547,115.74194L45.12122,116.2366C46.00941,112.73131 48.80197,110.65154 53.5293,109.70605C49.44038,110.02527 45.47089,112.57172 45.00547,115.74194zM48.9762,131.39334L49.12118,132.1353C50.35783,128.39732 53.55854,127.37877 57.71813,126.69522C52.69958,127.00104 50.0228,128.41194 48.9762,131.39334zM48.71425,130.34549C49.71818,127.34947 52.48149,125.86549 57.42692,125.55966C53.2381,126.25784 50.06665,127.34947 48.85923,131.07166C48.80197,130.84016 48.75809,130.59409 48.71425,130.34549zM48.43768,129.31357C49.427,126.30293 52.27801,124.73119 57.15035,124.42535C52.91769,125.15277 49.77544,126.30293 48.58266,130.01167C48.53879,129.77899 48.49615,129.54625 48.43768,129.31357zM48.1757,128.26572C49.12118,125.24046 52.05994,123.6115 56.875,123.29105C52.59845,124.03307 49.48547,125.2697 48.32193,128.94926C48.27805,128.73114 48.21958,128.49846 48.1757,128.26572zM47.91376,127.2191C48.81535,124.19386 51.84184,122.47719 56.5972,122.17136C52.29142,122.91338 49.19308,124.22191 48.05875,127.90266C48.00149,127.66992 47.95761,127.45184 47.91376,127.2191zM47.65181,126.18593C48.51076,123.13145 51.62253,121.34164 56.32185,121.03705C51.97221,121.8083 48.90308,123.17529 47.78339,126.84019C47.73954,126.62213 47.69566,126.40401 47.65181,126.18593zM47.38984,125.13815C47.43372,125.3416 47.47756,125.56091 47.5202,125.77898C48.6119,122.12752 51.65177,120.68738 56.04404,119.90274C51.40444,120.20734 48.20494,122.08366 47.38984,125.13815zM47.11327,124.09154C47.15715,124.295 47.201,124.51312 47.25947,124.7178C48.33655,121.0809 51.33256,119.58231 55.75407,118.76839C51.18758,119.07297 47.89914,121.02243 47.11327,124.09154zM46.85253,123.04375C46.89641,123.24721 46.93906,123.45065 46.9829,123.65416C48.04533,120.04649 51.01212,118.46138 55.47751,117.63165C50.96825,117.95328 47.59331,119.95998 46.85253,123.04375zM46.59058,122.01176C46.63447,122.20059 46.67831,122.40405 46.72217,122.59412C47.75416,119.00113 50.70753,117.34286 55.20216,116.49977C50.75017,116.81779 47.28873,118.91336 46.59058,122.01176zM46.32864,120.96391C46.9829,117.85097 50.53208,115.68343 54.92556,115.37883C50.38709,116.2366 47.46295,117.95328 46.46022,121.53171C46.41637,121.34164 46.37128,121.1528 46.32864,120.96391zM46.05208,119.91612C46.69173,116.80318 50.31398,114.54912 54.64899,114.24329C50.06665,115.11568 47.17177,116.90549 46.18365,120.48387C46.13978,120.29503 46.09592,120.1062 46.05208,119.91612zM45.7901,118.88414C46.38711,115.74194 50.09589,113.42943 54.37244,113.10898C49.74742,113.99722 46.8818,115.87231 45.92047,119.4227C45.87783,119.23264 45.83398,119.05835 45.7901,118.88414zM45.52936,117.83635C46.08131,114.69411 49.87781,112.29388 54.08246,111.97343C49.42821,112.88968 46.59183,114.82448 45.65973,118.35901C45.61588,118.18602 45.57203,118.01056 45.52936,117.83635zM53.80587,110.84036C49.12118,111.77122 46.29941,113.7791 45.38317,117.29901C45.33932,117.1248 45.31006,116.96396 45.2662,116.79097C45.77548,113.63287 49.65972,111.15958 53.80587,110.84036zM45.87783,125.93863C44.58268,126.39063 43.28877,126.84019 41.99362,127.29225C42.02286,127.43724 42.05209,127.58221 42.09473,127.72844C43.40449,127.29225 44.71305,126.85605 46.02161,126.41867C45.96435,126.25908 45.92047,126.09941 45.87783,125.93863zM46.1544,127.08755C44.83125,127.53838 43.52148,127.98918 42.21293,128.42656C42.24216,128.57155 42.27019,128.70314 42.30066,128.84813C43.62383,128.41194 44.96283,127.97574 46.28599,127.53838C46.24212,127.39339 46.19706,127.23254 46.1544,127.08755zM46.41637,128.23648C46.46022,128.36685 46.50286,128.51308 46.54674,128.64345C45.1943,129.07964 43.85654,129.51578 42.5029,129.9532C42.47367,129.83621 42.4444,129.70586 42.42979,129.5743C43.75417,129.12349 45.09199,128.68854 46.41637,128.23648zM46.69173,129.38664C45.33932,129.82285 43.98691,130.27365 42.63327,130.70979C42.66251,130.84016 42.67712,130.95715 42.70638,131.07291C44.0734,130.6367 45.44166,130.20052 46.80868,129.76437C46.77943,129.63277 46.73557,129.51701 46.69173,129.38664zM46.96828,130.53557C47.01217,130.65132 47.0414,130.76831 47.08525,130.86945C45.68899,131.30559 44.30612,131.74178 42.90984,132.17921L42.85137,131.85876C44.2196,131.42258 45.60126,130.97176 46.96828,130.53557zM47.24485,131.68456C45.84859,132.12068 44.45232,132.55812 43.06943,132.99431L43.11331,133.2989C44.52421,132.8627 45.93509,132.42651 47.34598,131.99033L47.24485,131.68456zM47.52145,132.83348L47.60917,133.11002L43.31801,134.40398L43.27415,134.14323L47.52145,132.83348zM41.77553,126.14209L41.89128,126.62337L45.76086,125.3136L45.60003,124.78966L41.77553,126.14209z" id="svg_15" style="pointer-events:inherit"/></g><g type="text" text="DANCE TROUPE" font-size="6.90097655823302" font-family="Afta sans" fill="000000" text-anchor="start" font-weight="normal" font-style="normal" lineHeight="1" shapeId="0" shapeVal="0" fill-opacity="1" display="null" elemBBoxWidth="180.05078125" id="svg_16" style="pointer-events:inherit"><path fill="#000000" stroke-width="0" d="M14.37153,151.92752C14.37153,151.92752 14.37153,165.99324 14.37153,165.99324C14.37153,166.91162 14.39571,166.93578 14.97575,166.93578C14.97575,166.93578 17.17505,166.93578 17.17505,166.93578C20.00269,166.93578 24.11123,165.19572 24.11123,159.41957C24.11123,153.88512 20.00269,151.73419 17.17505,151.73419C14.97575,151.73419 14.37153,151.75835 14.37153,151.92752C14.37153,151.92752 14.37153,151.92752 14.37153,151.92752M12.80062,150.69493C12.80062,150.69493 17.15086,150.69493 17.15086,150.69493C23.60371,150.69493 26.04467,155.93942 26.04467,159.41957C26.04467,162.92392 24.13538,167.97504 17.17505,167.97504C17.17505,167.97504 12.80062,167.97504 12.80062,167.97504C12.80062,167.97504 12.80062,150.69493 12.80062,150.69493C12.80062,150.69493 12.80062,150.69493 12.80062,150.69493M38.41866,160.41048C38.41866,160.41048 35.34933,151.51669 35.34933,151.51669C35.34933,151.51669 31.91749,160.41048 31.91749,160.41048C31.91749,160.41048 38.41866,160.41048 38.41866,160.41048C38.41866,160.41048 38.41866,160.41048 38.41866,160.41048M27.32558,167.99919C27.32558,167.99919 34.14094,150.71909 34.14094,150.71909C34.14094,150.71909 36.63023,150.71909 36.63023,150.71909C36.63023,150.71909 42.6964,167.99919 42.6964,167.99919C42.6964,167.99919 40.90796,167.99919 40.90796,167.99919C40.90796,167.99919 38.73285,161.42552 38.73285,161.42552C38.73285,161.42552 31.67579,161.42552 31.67579,161.42552C31.67579,161.42552 28.99316,167.99919 28.99316,167.99919C28.99316,167.99919 27.32558,167.99919 27.32558,167.99919C27.32558,167.99919 27.32558,167.99919 27.32558,167.99919M44.99236,167.99919C44.99236,167.99919 44.99236,150.74329 44.99236,150.74329C44.99236,150.74329 47.28831,150.74329 47.28831,150.74329C47.28831,150.74329 56.88297,166.16241 56.88297,166.16241C56.88297,166.16241 56.88297,150.74329 56.88297,150.74329C56.88297,150.74329 58.47804,150.74329 58.47804,150.74329C58.47804,150.74329 58.47804,167.99919 58.47804,167.99919C58.47804,167.99919 56.66546,167.99919 56.66546,167.99919C56.66546,167.99919 46.53909,151.73419 46.53909,151.73419C46.53909,151.73419 46.53909,167.99919 46.53909,167.99919C46.53909,167.99919 44.99236,167.99919 44.99236,167.99919C44.99236,167.99919 44.99236,167.99919 44.99236,167.99919M61.40238,159.44379C61.32986,151.66167 68.29025,148.80986 74.91228,151.12996C74.91228,151.12996 74.91228,152.60422 74.91228,152.60422C73.438,151.90337 71.93961,151.34752 70.27199,151.34752C69.88531,151.34752 63.38415,151.49249 63.38415,159.41957C63.38415,167.41917 69.61946,167.27414 70.27199,167.27414C72.22961,167.27414 73.80052,166.42827 75.08142,165.38907C75.08142,165.38907 75.08142,167.05664 75.08142,167.05664C74.33223,167.56419 72.61632,168.50674 70.27199,168.50674C64.5442,168.50674 61.47489,164.42238 61.40238,159.44379C61.40238,159.44379 61.40238,159.44379 61.40238,159.44379M78.68245,167.99919C78.68245,167.99919 78.68245,150.74329 78.68245,150.74329C78.68245,150.74329 88.71214,150.74329 88.71214,150.74329C88.71214,150.74329 88.71214,151.75835 88.71214,151.75835C88.71214,151.75835 80.20503,151.75835 80.20503,151.75835C80.20503,151.75835 80.20503,158.69453 80.20503,158.69453C80.20503,158.69453 86.51286,158.69453 86.51286,158.69453C86.51286,158.69453 86.51286,159.73373 86.51286,159.73373C86.51286,159.73373 80.20503,159.73373 80.20503,159.73373C80.20503,159.73373 80.20503,166.95998 80.20503,166.95998C80.20503,166.95998 89.29219,166.95998 89.29219,166.95998C89.29219,166.95998 89.29219,167.99919 89.29219,167.99919C89.29219,167.99919 78.68245,167.99919 78.68245,167.99919C78.68245,167.99919 78.68245,167.99919 78.68245,167.99919M111.96172,150.69493C111.96172,150.69493 111.96172,151.73419 111.96172,151.73419C111.96172,151.73419 105.50888,151.73419 105.50888,151.73419C105.50888,151.73419 105.50888,167.99919 105.50888,167.99919C105.50888,167.99919 103.8896,167.99919 103.8896,167.99919C103.8896,167.99919 103.8896,151.73419 103.8896,151.73419C103.8896,151.73419 97.24342,151.73419 97.24342,151.73419C97.24342,151.73419 97.24342,150.69493 97.24342,150.69493C97.24342,150.69493 111.96172,150.69493 111.96172,150.69493C111.96172,150.69493 111.96172,150.69493 111.96172,150.69493M115.58691,158.40453C115.58691,158.40453 119.86464,158.40453 119.86464,158.40453C123.07896,158.40453 123.94901,156.49529 123.94901,155.06935C123.94901,153.5468 122.90981,151.7825 119.86464,151.7825C119.86464,151.7825 115.58691,151.7825 115.58691,151.7825C115.58691,151.7825 115.58691,158.40453 115.58691,158.40453C115.58691,158.40453 115.58691,158.40453 115.58691,158.40453M114.06433,150.71909C114.06433,150.71909 119.86464,150.71909 119.86464,150.71909C123.77985,150.71909 125.59244,152.48338 125.59244,154.85187C125.59244,157.55865 123.51399,158.81535 121.84639,159.00868C123.51399,159.39542 123.99734,160.5313 124.50487,161.78804C124.50487,161.78804 126.99417,167.99919 126.99417,167.99919C126.99417,167.99919 125.39909,167.99919 125.39909,167.99919C123.46567,163.11726 122.76477,161.35301 122.64395,161.08716C122.16058,160.04794 121.53223,159.58876 120.44466,159.58876C120.44466,159.58876 115.58691,159.58876 115.58691,159.58876C115.58691,159.58876 115.58691,167.99919 115.58691,167.99919C115.58691,167.99919 114.06433,167.99919 114.06433,167.99919C114.06433,167.99919 114.06433,150.71909 114.06433,150.71909C114.06433,150.71909 114.06433,150.71909 114.06433,150.71909M130.86104,159.37122C130.86104,167.66081 136.9272,167.39502 138.08727,167.39502C139.07816,167.39502 145.53099,167.37086 145.53099,159.37122C145.53099,151.25079 139.05397,151.39581 138.06311,151.39581C136.90305,151.39581 130.86104,151.44412 130.86104,159.37122C130.86104,159.37122 130.86104,159.37122 130.86104,159.37122M138.08727,150.33241C144.3951,150.33241 147.15024,153.47423 147.15024,159.39542C147.15024,164.51898 144.61261,168.48259 138.08727,168.48259C131.44109,168.48259 128.97594,164.83321 128.97594,159.39542C128.97594,153.47423 132.31113,150.33241 138.08727,150.33241C138.08727,150.33241 138.08727,150.33241 138.08727,150.33241M161.77187,150.71909C161.77187,150.71909 163.29445,150.71909 163.29445,150.71909C163.29445,150.71909 163.29445,160.60381 163.29445,160.60381C163.29445,163.21393 163.36693,168.3134 156.67242,168.3134C149.88121,168.3134 149.85706,163.18977 149.85706,160.41048C149.85706,160.41048 149.85706,150.71909 149.85706,150.71909C149.85706,150.71909 151.42798,150.71909 151.42798,150.71909C151.42798,150.71909 151.42798,160.60381 151.42798,160.60381C151.42798,162.12636 151.45215,167.17752 156.67242,167.17752C161.77187,167.17752 161.77187,162.17473 161.77187,160.60381C161.77187,160.60381 161.77187,150.71909 161.77187,150.71909C161.77187,150.71909 161.77187,150.71909 161.77187,150.71909M168.92557,151.7825C168.92557,151.7825 168.92557,159.61292 168.92557,159.61292C168.92557,159.61292 173.32414,159.61292 173.32414,159.61292C176.70764,159.61292 177.60185,156.85782 177.60185,155.7944C177.60185,154.10266 176.70764,151.7825 173.32414,151.7825C173.32414,151.7825 168.92557,151.7825 168.92557,151.7825C168.92557,151.7825 168.92557,151.7825 168.92557,151.7825M167.37881,150.74329C167.37881,150.74329 173.32414,150.71909 173.32414,150.71909C177.89188,150.71909 179.43861,153.45007 179.43861,155.7944C179.43861,157.99368 177.98856,160.72469 173.32414,160.72469C173.32414,160.72469 168.92557,160.72469 168.92557,160.72469C168.92557,160.72469 168.92557,168.02335 168.92557,168.02335C168.92557,168.02335 167.37881,168.02335 167.37881,168.02335C167.37881,168.02335 167.37881,150.74329 167.37881,150.74329C167.37881,150.74329 167.37881,150.74329 167.37881,150.74329M182.2421,167.99919C182.2421,167.99919 182.2421,150.74329 182.2421,150.74329C182.2421,150.74329 192.2718,150.74329 192.2718,150.74329C192.2718,150.74329 192.2718,151.75835 192.2718,151.75835C192.2718,151.75835 183.76468,151.75835 183.76468,151.75835C183.76468,151.75835 183.76468,158.69453 183.76468,158.69453C183.76468,158.69453 190.07251,158.69453 190.07251,158.69453C190.07251,158.69453 190.07251,159.73373 190.07251,159.73373C190.07251,159.73373 183.76468,159.73373 183.76468,159.73373C183.76468,159.73373 183.76468,166.95998 183.76468,166.95998C183.76468,166.95998 192.85182,166.95998 192.85182,166.95998C192.85182,166.95998 192.85182,167.99919 192.85182,167.99919C192.85182,167.99919 182.2421,167.99919 182.2421,167.99919C182.2421,167.99919 182.2421,167.99919 182.2421,167.99919" id="svg_17" style="pointer-events:inherit"/><rect x="12.806819166522473" y="150.33593316935003" width="180.04377738945186" height="18.16717091202736" fill="#000000" opacity="0" id="svg_18" style="pointer-events:inherit"/></g></g><defs><mask id="canvasMaskImageDef" maskUnits="objectBoundingBox" x="0" y="0"><image xmlns:xlink="http://www.w3.org/1999/xlink" id="canvasMaskImage" preserveAspectRatio="none" x="-103.65" y="-36.45" width="400" height="440.0580551523948" xlink:href="http://allinonedesigner.designnbuy.in/media/catalog/product/w/h/white-tees-1_-front_1_3.png"/></mask></defs></svg>