<?xml version="1.0" encoding="utf-8"?>
<!-- Generator: Adobe Illustrator 16.0.0, SVG Export Plug-In . SVG Version: 6.00 Build 0)  -->
<!DOCTYPE svg PUBLIC "-//W3C//DTD SVG 1.1//EN" "http://www.w3.org/Graphics/SVG/1.1/DTD/svg11.dtd">
<svg version="1.1" id="Layer_1" xmlns="http://www.w3.org/2000/svg" xmlns:xlink="http://www.w3.org/1999/xlink" x="0px" y="0px"
	 width="100px" height="100px" viewBox="0 0 100 100" enable-background="new 0 0 100 100" xml:space="preserve">
<circle fill="#3796D3" cx="50.397" cy="48.137" r="44.31"/>
<circle fill="#1F4A95" cx="50.149" cy="48.22" r="43.567"/>
<path fill="#4A8AC2" d="M90.45,47.728c0,11.47-16.929,17.249-40.063,17.249c-23.136,0-40.54-5.777-40.54-17.249
	c0-23.136,17.166-41.891,40.301-41.891C73.284,5.836,90.45,24.591,90.45,47.728z"/>
<path fill="#94CCF7" d="M53.854,15.318c1.639-2.835,6.155-3.292,10.09-1.02c3.934,2.273,5.796,6.414,4.158,9.25
	c-1.639,2.836-6.156,3.292-10.091,1.02C54.076,22.295,52.215,18.154,53.854,15.318z M53.967,15.339
	c1.616-2.799,6.074-3.25,9.955-1.007c3.883,2.242,5.719,6.329,4.102,9.127c-1.617,2.798-6.074,3.25-9.955,1.007
	C54.186,22.224,52.35,18.138,53.967,15.339z M54.076,15.362c1.595-2.761,5.992-3.206,9.821-0.994s5.64,6.243,4.046,9.004
	c-1.596,2.761-5.992,3.206-9.821,0.994S52.481,18.123,54.076,15.362z M54.189,15.383c1.572-2.723,5.909-3.162,9.687-0.979
	c3.776,2.182,5.563,6.158,3.991,8.881c-1.574,2.723-5.91,3.162-9.688,0.98C54.402,22.083,52.615,18.106,54.189,15.383z
	 M54.297,15.406c1.552-2.686,5.829-3.118,9.555-0.967c3.725,2.152,5.486,6.073,3.936,8.759c-1.553,2.686-5.83,3.119-9.555,0.967
	S52.746,18.092,54.297,15.406z M54.413,15.424c1.53-2.648,5.747-3.074,9.42-0.952s5.41,5.989,3.88,8.637
	c-1.529,2.647-5.747,3.074-9.42,0.952S52.883,18.072,54.413,15.424z M54.516,15.441c1.508-2.61,5.665-3.031,9.287-0.94
	c3.621,2.091,5.335,5.903,3.827,8.513c-1.507,2.61-5.665,3.031-9.286,0.94C54.722,21.863,53.008,18.052,54.516,15.441z
	 M54.629,15.472c1.486-2.572,5.583-2.986,9.152-0.925c3.568,2.061,5.256,5.817,3.77,8.39c-1.485,2.572-5.583,2.986-9.151,0.925
	C54.831,21.801,53.143,18.044,54.629,15.472z M54.741,15.488c1.464-2.535,5.501-2.943,9.018-0.913
	c3.516,2.031,5.179,5.733,3.714,8.268c-1.464,2.535-5.501,2.944-9.018,0.913C54.939,21.725,53.276,18.023,54.741,15.488z
	 M54.851,15.515c1.442-2.497,5.421-2.899,8.884-0.898c3.465,2.001,5.104,5.648,3.661,8.145c-1.442,2.498-5.421,2.899-8.884,0.898
	C55.047,21.659,53.408,18.013,54.851,15.515z M54.96,15.532c1.421-2.459,5.339-2.855,8.751-0.884
	c3.412,1.971,5.026,5.563,3.605,8.022s-5.339,2.855-8.751,0.884C55.153,21.583,53.539,17.991,54.96,15.532z M55.07,15.55
	c1.398-2.422,5.256-2.813,8.616-0.873s4.95,5.477,3.551,7.899s-5.257,2.813-8.616,0.873C55.261,21.51,53.671,17.973,55.07,15.55z
	 M55.184,15.576c1.377-2.385,5.175-2.769,8.482-0.858c3.307,1.91,4.871,5.392,3.494,7.776c-1.377,2.385-5.176,2.769-8.482,0.858
	C55.37,21.442,53.806,17.96,55.184,15.576z M55.289,15.596c1.355-2.347,5.092-2.725,8.348-0.845c3.256,1.88,4.795,5.306,3.44,7.653
	c-1.355,2.347-5.093,2.725-8.349,0.845C55.474,21.369,53.934,17.943,55.289,15.596z M55.404,15.616
	c1.334-2.309,5.012-2.682,8.215-0.832s4.719,5.221,3.385,7.53c-1.333,2.309-5.011,2.682-8.214,0.832S54.071,17.925,55.404,15.616z
	 M55.51,15.634c1.313-2.271,4.931-2.638,8.082-0.818s4.643,5.137,3.33,7.409c-1.312,2.272-4.93,2.638-8.081,0.818
	S54.198,17.906,55.51,15.634z M55.62,15.661c1.29-2.234,4.849-2.594,7.948-0.804c3.099,1.79,4.565,5.052,3.275,7.286
	c-1.291,2.234-4.849,2.594-7.947,0.804C55.797,21.157,54.33,17.895,55.62,15.661z M55.73,15.677
	c1.269-2.197,4.768-2.551,7.814-0.792s4.488,4.967,3.22,7.164s-4.767,2.551-7.813,0.792C55.903,21.081,54.462,17.874,55.73,15.677z
	 M55.842,15.7c1.246-2.159,4.686-2.507,7.68-0.777c2.995,1.729,4.412,4.882,3.166,7.041c-1.247,2.159-4.686,2.507-7.681,0.777
	C56.012,21.011,54.595,17.859,55.842,15.7z M55.957,15.726c1.227-2.122,4.605-2.464,7.548-0.764c2.942,1.699,4.335,4.797,3.11,6.918
	c-1.226,2.122-4.604,2.464-7.547,0.765C56.125,20.945,54.732,17.848,55.957,15.726z M56.063,15.746
	c1.203-2.083,4.522-2.419,7.412-0.75c2.891,1.67,4.258,4.712,3.055,6.796c-1.203,2.084-4.522,2.419-7.412,0.75
	C56.227,20.873,54.859,17.83,56.063,15.746z M56.173,15.766c1.182-2.046,4.44-2.375,7.278-0.735c2.839,1.639,4.182,4.627,3,6.673
	s-4.441,2.375-7.279,0.736C56.334,20.8,54.99,17.812,56.173,15.766z M56.279,15.79c1.16-2.008,4.358-2.332,7.145-0.723
	c2.786,1.609,4.104,4.542,2.944,6.55c-1.16,2.009-4.358,2.333-7.146,0.723C56.438,20.731,55.119,17.798,56.279,15.79z
	 M56.396,15.813c1.138-1.971,4.277-2.288,7.011-0.709c2.733,1.579,4.026,4.457,2.889,6.427c-1.139,1.971-4.277,2.289-7.012,0.709
	C56.55,20.661,55.257,17.783,56.396,15.813z M56.5,15.833c1.117-1.933,4.195-2.245,6.877-0.696c2.682,1.548,3.95,4.371,2.834,6.304
	c-1.117,1.933-4.195,2.245-6.877,0.696C56.652,20.589,55.385,17.766,56.5,15.833z M56.609,15.855c1.095-1.895,4.113-2.2,6.743-0.681
	c2.63,1.519,3.873,4.286,2.778,6.182c-1.095,1.895-4.113,2.2-6.742,0.681C56.759,20.518,55.515,17.75,56.609,15.855z M56.723,15.871
	c1.073-1.858,4.033-2.158,6.611-0.669s3.797,4.202,2.725,6.06c-1.073,1.858-4.033,2.157-6.611,0.668
	C56.869,20.442,55.65,17.729,56.723,15.871z M56.832,15.9c1.051-1.82,3.951-2.113,6.476-0.655c2.525,1.459,3.72,4.117,2.669,5.937
	c-1.052,1.82-3.951,2.113-6.477,0.654C56.975,20.378,55.781,17.72,56.832,15.9z M56.942,15.919c1.03-1.783,3.87-2.071,6.343-0.643
	s3.643,4.032,2.613,5.814c-1.029,1.783-3.869,2.071-6.342,0.643C57.083,20.306,55.913,17.703,56.942,15.919z M57.063,15.942
	c1.008-1.745,3.786-2.026,6.207-0.628s3.566,3.945,2.559,5.69c-1.007,1.745-3.786,2.026-6.207,0.628S56.057,17.688,57.063,15.942z
	 M57.172,15.963c0.986-1.708,3.706-1.982,6.074-0.615c2.369,1.368,3.49,3.861,2.504,5.569c-0.985,1.708-3.705,1.982-6.074,0.615
	C57.307,20.164,56.186,17.671,57.172,15.963z M57.277,15.985c0.964-1.67,3.623-1.939,5.939-0.602
	c2.317,1.338,3.414,3.776,2.45,5.445c-0.964,1.67-3.624,1.939-5.94,0.601C57.41,20.092,56.313,17.654,57.277,15.985z M57.388,16.009
	c0.942-1.632,3.542-1.896,5.806-0.588s3.336,3.69,2.393,5.323c-0.942,1.632-3.542,1.896-5.806,0.588
	C57.516,20.024,56.445,17.641,57.388,16.009z M57.5,16.026c0.921-1.595,3.461-1.852,5.674-0.574s3.26,3.606,2.338,5.201
	c-0.92,1.595-3.461,1.852-5.673,0.574S56.579,17.621,57.5,16.026z M57.609,16.051c0.899-1.557,3.379-1.808,5.539-0.56
	c2.161,1.247,3.184,3.521,2.285,5.077s-3.379,1.808-5.539,0.561C57.734,19.881,56.711,17.608,57.609,16.051z M57.721,16.068
	c0.877-1.52,3.298-1.764,5.406-0.547c2.108,1.218,3.105,3.437,2.229,4.956c-0.877,1.519-3.298,1.764-5.406,0.546
	C57.842,19.807,56.844,17.588,57.721,16.068z M57.83,16.095c0.855-1.482,3.217-1.721,5.272-0.533
	c2.056,1.187,3.029,3.351,2.174,4.832c-0.855,1.482-3.216,1.721-5.272,0.534C57.948,19.74,56.975,17.576,57.83,16.095z
	 M57.944,16.114c0.835-1.444,3.135-1.677,5.138-0.52c2.004,1.157,2.952,3.266,2.117,4.71c-0.834,1.444-3.134,1.677-5.137,0.521
	C58.059,19.668,57.11,17.559,57.944,16.114z M58.051,16.136c0.813-1.407,3.053-1.633,5.005-0.505s2.875,3.182,2.063,4.588
	s-3.054,1.633-5.005,0.505S57.238,17.542,58.051,16.136z M58.158,16.159c0.79-1.369,2.971-1.589,4.869-0.492
	s2.797,3.095,2.006,4.464s-2.971,1.589-4.869,0.493C58.266,19.526,57.367,17.527,58.158,16.159z M58.27,16.178
	c0.77-1.332,2.89-1.546,4.736-0.48c1.848,1.066,2.722,3.01,1.953,4.342c-0.77,1.331-2.89,1.546-4.736,0.479
	C58.375,19.453,57.501,17.509,58.27,16.178z M58.381,16.201c0.746-1.294,2.807-1.502,4.602-0.466
	c1.795,1.037,2.645,2.926,1.898,4.219c-0.748,1.294-2.809,1.502-4.604,0.466C58.482,19.383,57.633,17.495,58.381,16.201z
	 M58.489,16.226c0.726-1.256,2.726-1.458,4.469-0.452c1.743,1.006,2.567,2.84,1.843,4.096c-0.725,1.256-2.727,1.458-4.469,0.452
	C58.589,19.315,57.764,17.481,58.489,16.226z M58.604,16.246c0.703-1.218,2.644-1.415,4.334-0.439
	c1.69,0.976,2.49,2.754,1.786,3.973c-0.703,1.218-2.643,1.415-4.333,0.439C58.701,19.243,57.9,17.464,58.604,16.246z M58.712,16.262
	c0.683-1.181,2.563-1.371,4.202-0.425s2.414,2.671,1.731,3.852c-0.682,1.181-2.563,1.371-4.202,0.425
	C58.806,19.167,58.029,17.443,58.712,16.262z M58.824,16.284c0.66-1.143,2.48-1.327,4.067-0.411
	c1.587,0.916,2.337,2.585,1.677,3.729c-0.66,1.143-2.48,1.327-4.067,0.411S58.164,17.427,58.824,16.284z M58.936,16.306
	c0.638-1.106,2.398-1.284,3.933-0.398s2.26,2.5,1.621,3.606s-2.399,1.284-3.934,0.398S58.297,17.411,58.936,16.306z M59.042,16.326
	c0.616-1.068,2.318-1.239,3.8-0.383c1.482,0.856,2.184,2.416,1.566,3.484c-0.616,1.068-2.318,1.239-3.8,0.383
	S58.425,17.394,59.042,16.326z M59.151,16.35c0.595-1.03,2.236-1.196,3.666-0.371c1.431,0.826,2.107,2.331,1.513,3.36
	c-0.596,1.03-2.236,1.196-3.666,0.371C59.233,18.884,58.557,17.38,59.151,16.35z M59.264,16.375
	c0.572-0.992,2.154-1.152,3.531-0.356s2.029,2.245,1.457,3.237c-0.574,0.992-2.154,1.152-3.532,0.356
	C59.342,18.817,58.689,17.368,59.264,16.375z M59.375,16.394c0.552-0.955,2.073-1.108,3.398-0.343c1.324,0.765,1.952,2.16,1.4,3.115
	s-2.073,1.108-3.398,0.343C59.45,18.744,58.823,17.349,59.375,16.394z M59.482,16.413c0.529-0.917,1.99-1.065,3.264-0.331
	c1.272,0.735,1.875,2.074,1.346,2.991c-0.53,0.917-1.991,1.065-3.264,0.331C59.555,18.669,58.953,17.33,59.482,16.413z
	 M59.592,16.433c0.508-0.88,1.91-1.021,3.132-0.316s1.8,1.99,1.292,2.87c-0.508,0.879-1.909,1.021-3.131,0.316
	S59.084,17.313,59.592,16.433z M59.703,16.459c0.486-0.842,1.828-0.978,2.997-0.303s1.723,1.904,1.236,2.747
	c-0.485,0.842-1.827,0.979-2.997,0.304C59.771,18.532,59.217,17.302,59.703,16.459z M59.811,16.475
	c0.465-0.805,1.746-0.935,2.862-0.29c1.116,0.644,1.646,1.819,1.181,2.623c-0.465,0.805-1.746,0.935-2.862,0.29
	C59.875,18.454,59.346,17.279,59.811,16.475z M59.927,16.503c0.442-0.767,1.664-0.891,2.729-0.277
	c1.064,0.614,1.568,1.734,1.126,2.501c-0.443,0.767-1.665,0.891-2.729,0.277C59.988,18.391,59.484,17.271,59.927,16.503z
	 M60.033,16.52c0.42-0.729,1.582-0.847,2.596-0.263c1.012,0.584,1.492,1.65,1.07,2.379c-0.42,0.729-1.582,0.847-2.596,0.262
	C60.092,18.314,59.611,17.25,60.033,16.52z M60.146,16.541c0.398-0.691,1.501-0.802,2.461-0.248
	c0.961,0.555,1.416,1.565,1.016,2.257c-0.398,0.691-1.501,0.802-2.461,0.248C60.201,18.243,59.746,17.233,60.146,16.541z
	 M60.254,16.565c0.379-0.654,1.42-0.759,2.328-0.234c0.909,0.524,1.34,1.479,0.961,2.133c-0.377,0.654-1.42,0.758-2.328,0.234
	S59.877,17.219,60.254,16.565z"/>
<path fill="#1E140F" d="M32.978,50.6c0-3.917-2.307-6.725-4.934-7.758c-2.588,1.039-4.813,3.848-4.813,7.758
	c0,4.068,1.851,7.51,4.821,8.649C31.051,58.109,32.978,54.668,32.978,50.6z M69.398,19.441c-1.408-0.964-2.896-1.462-4.144-1.426
	c0.261,1.361,1.263,2.825,2.78,3.865c1.4,0.959,2.955,1.364,4.253,1.222C71.967,21.844,70.93,20.488,69.398,19.441z M58.311,12.229
	c-1.67-0.358-3.235-0.255-4.375,0.251c0.754,1.161,2.237,2.136,4.039,2.522c1.658,0.357,3.25,0.142,4.396-0.481
	C61.596,13.479,60.121,12.619,58.311,12.229z"/>
<path fill="#142A51" d="M23.231,50.6c0-3.91,2.225-6.719,4.813-7.758c-0.049-0.019-0.098-0.041-0.147-0.058
	c-0.086-0.032-0.173-0.062-0.26-0.09c-0.117-0.038-0.234-0.069-0.351-0.1c-0.082-0.021-0.164-0.043-0.247-0.061
	c-0.131-0.028-0.263-0.049-0.394-0.068c-0.068-0.01-0.137-0.023-0.205-0.031c-0.2-0.021-0.4-0.035-0.598-0.035
	c-3.383,0-7.02,3.201-7.02,8.199c0,4.998,2.79,9.051,7.02,9.051c0.176,0,0.348-0.01,0.519-0.022
	c0.042-0.003,0.083-0.007,0.125-0.011c0.168-0.02,0.335-0.038,0.499-0.068c0,0,0,0,0-0.001c0.168-0.028,0.333-0.067,0.496-0.112
	c0.033-0.01,0.066-0.02,0.099-0.027c0.16-0.047,0.317-0.098,0.471-0.154h0.001C25.082,58.109,23.231,54.668,23.231,50.6z
	 M74.629,21.835c1.092-1.571-0.098-4.073-2.563-5.762c-2.467-1.689-5.187-1.947-6.367-0.355c-0.477,0.641-0.604,1.449-0.441,2.297
	c1.246-0.037,2.733,0.461,4.143,1.426c1.529,1.047,2.567,2.403,2.893,3.661C73.277,22.995,74.117,22.573,74.629,21.835z
	 M64.057,12.463c0.412-1.868-1.636-3.732-4.559-4.36s-5.535,0.163-6.025,2.085c-0.197,0.772-0.009,1.568,0.463,2.292
	c1.14-0.506,2.705-0.61,4.375-0.251c1.813,0.39,3.285,1.25,4.063,2.292C63.244,14.048,63.861,13.338,64.057,12.463z"/>
</svg>
