<?xml version="1.0" encoding="utf-8"?>
<!-- Generator: Adobe Illustrator 16.0.0, SVG Export Plug-In . SVG Version: 6.00 Build 0)  -->
<!DOCTYPE svg PUBLIC "-//W3C//DTD SVG 1.1//EN" "http://www.w3.org/Graphics/SVG/1.1/DTD/svg11.dtd">
<svg version="1.1" id="Layer_1" xmlns="http://www.w3.org/2000/svg" xmlns:xlink="http://www.w3.org/1999/xlink" x="0px" y="0px"
	 width="288px" height="288px" viewBox="0 0 288 288" enable-background="new 0 0 288 288" xml:space="preserve">
<path fill="#010101" d="M96.808,198.924c-0.402-4.685-1.071-11.914-2.009-14.323c-0.937-2.409-2.409-24.099-0.535-28.382
	c1.874-4.283,0.535-10.174,0.535-12.717c0-2.544-0.669-14.19,0.402-17.804c1.07-3.615,2.677-5.355,2.544-7.23
	c-0.134-1.874,0-15.395,5.622-21.286c5.623-5.89,4.552-5.623,4.552-5.623s-1.606-1.071-0.402-2.409
	c1.205-1.339,0.402-2.678,2.276-4.82c1.875-2.142,8.3-6.693,10.709-6.693c2.41,0,3.08-0.67,3.08-0.67s1.472-8.701,6.56-11.378
	c5.087-2.678,5.488-3.347,6.693-3.347c1.204,0,1.874-0.402,3.748-0.134c1.874,0.267,4.418,1.338,6.025,1.606
	c1.605,0.268,4.284,3.213,5.756,4.417c1.472,1.205,2.408,3.615,3.211,5.489c0.804,1.875,0.537,8.568,0.27,9.104
	c0,0,9.371,3.883,12.182,6.56c2.813,2.678,7.229,5.088,7.229,6.159l0.18,0.625c0,0,4.73,4.462,5.89,8.122s1.963,9.103,2.052,10.978
	c0.09,1.875,1.697,5.801,2.589,7.943c0.892,2.142,2.498,6.158,1.964,12.763c-0.535,6.604-0.18,16.244,0.178,17.135
	c0.356,0.892,2.679,9.816,3.035,21.419c0.356,11.604-2.32,24.989-1.785,26.953c0.536,1.964,4.82,11.066,6.604,13.387
	c1.786,2.32,4.997,3.928,5.534,4.641c0.535,0.716-0.179,1.964-1.785,1.786c0,0,1.65,2.633,0.981,3.302
	c-0.668,0.67-2.409,0.536-7.63-5.621l-1.339-1.607c0,0,1.206,3.882,2.811,5.488c1.605,1.606,1.874,3.615,0.537,3.48
	c-1.338-0.135-5.088-3.882-6.292-6.023c-1.206-2.142-3.348-3.214-3.348-1.607c0,1.607,0.401,4.285,0.804,4.955
	c0.401,0.668,1.606,2.141-0.135,2.676c-1.739,0.536-3.481-2.676-3.882-5.354c-0.402-2.678-0.536-6.426-1.339-6.426
	s-1.74,3.615-3.078,3.615c-1.34,0-5.088-1.205-5.088-3.214s2.142,0,3.211-0.133c1.073-0.135,0.938-2.41,0.938-4.151
	c0-1.74,1.072-6.96,1.875-8.166s0.669-9.37,0.669-12.583s0.269-8.568-0.401-10.576c-0.67-2.009-2.008-6.56-2.008-10.041
	c0-3.48,0.135-7.095-0.669-8.031c-0.804-0.938-0.135-3.482-1.474-5.356c-1.34-1.874-4.818-6.426-5.087-10.844
	s-0.668-9.772-1.338-11.646c-0.671-1.874,0.267-6.962,0.267-6.962s-3.615-3.079-4.284-3.347c-0.669-0.267-2.677-0.536-2.677-0.536
	s-2.812,13.655-3.214,16.333c-0.401,2.678-1.605,10.977-3.479,10.977c0,0-0.27,3.08-0.67,4.018
	c-0.402,0.937-3.749,4.417-3.749,4.953c0,0,0.135,2.141,0.067,3.613s0.735,6.426,1.605,7.164c0.871,0.734,1.674,3.078,1.606,5.956
	c-0.066,2.879-2.81,5.354-6.759,5.222c-3.949-0.135-7.966-1.272-7.966-4.284s0.669-6.093,1.473-7.229
	c0.804-1.138,0.335-4.619-0.133-5.689c-0.47-1.071-0.47-4.886-0.135-5.488c0.334-0.604,1.539-2.611,0.869-3.08
	c-0.669-0.469-3.078-2.342-3.078-3.814s-0.268-6.426-0.268-7.765c0-1.34,0.268-1.272-0.803-2.209
	c-1.072-0.938-2.545,0.201-2.545-1.807c0-2.009,1.139-7.498,1.071-9.706c-0.067-2.209-0.334-6.493-0.334-6.493l-1.673-0.134
	c0,0-1.138,3.883-1.875,4.284c0,0-0.401,9.103-0.736,10.776c-0.334,1.674-1.271,2.945-1.138,4.351
	c0.134,1.406-0.938,2.611-0.938,3.816c0,0,0.603,2.677,1.272,4.352c0.669,1.673-0.737,8.032-0.737,10.039
	c0,2.01-0.267,10.375,0,11.781c0.268,1.406,1.071,3.949,1.004,4.217s1.941,0.2,2.008,2.945c0,0-0.804,4.485-0.737,6.158
	s1.808,7.497,1.473,9.907c-0.335,2.409-1.874,4.751-5.756,4.686c-3.882-0.067-11.446-1.005-11.646-3.682
	c-0.202-2.679,1.204-7.966,1.941-8.435c0.736-0.469,1.405-5.488,1.205-6.559c-0.201-1.072-0.268-4.821,0.803-5.424
	c1.071-0.602,1.138-3.68,0.804-4.617s-3.949-9.639-4.819-11.58c-0.87-1.941-2.343-8.367-2.411-11.447
	c-0.066-3.078,1.139-4.148,1.473-5.22c0.334-1.071-2.075-6.025-2.075-6.225c0,0-0.871,10.174-1.807,12.448
	c-0.938,2.276-2.477,3.348-2.477,5.355c0,2.009-1.338,10.375-1.338,12.518c0,2.141,0.401,8.435-0.067,11.58
	c-0.469,3.146-0.669,9.572-0.603,13.788c0.066,4.218,0.469,6.827,0.87,7.563c0.401,0.737,1.071,2.679,1.003,4.687
	c-0.065,2.008-0.803,7.229-0.401,7.966c0.401,0.735,2.476,0.735,3.146,0.803c0.67,0.067,0.67,1.941-0.803,2.478
	c-1.473,0.535-2.41,0.734-3.146,0.668c0,0,0,5.69-1.406,7.027c-1.406,1.341-3.615,1.609-3.28,0.135
	c0.335-1.472,0.937-2.544,0.937-3.347c0-0.804-0.335-3.883-0.335-3.883s-1.07-0.266-1.339,0.067
	c-0.267,0.335-0.602,4.218-2.275,6.025c-1.673,1.806-2.209,3.012-3.815,2.611c-1.606-0.402-0.937-1.407-0.268-2.277
	c0.669-0.871,2.744-4.351,2.812-5.422c0.067-1.07-0.536-1.005-1.272-0.067c-0.736,0.938-4.685,5.557-5.891,6.225
	c-1.205,0.671-2.812,0.135-2.678-0.936c0.134-1.071,1.138-1.541,2.209-2.543c1.071-1.006,2.275-2.946,1.807-2.88
	c-0.469,0.066-2.008,2.544-3.48,2.678c-1.473,0.135-2.812-0.402-2.209-1.808c0.603-1.405,1.474-0.602,2.41-1.405
	c0.937-0.803,2.945-3.011,4.15-6.024c1.205-3.013,1.941-3.748,1.941-5.688s1.338-4.552,1.606-5.288
	C97.008,199.46,96.808,198.924,96.808,198.924z"/>
</svg>
