<?xml version="1.0" encoding="utf-8"?>
<!-- Generator: Adobe Illustrator 16.0.3, SVG Export Plug-In . SVG Version: 6.00 Build 0)  -->
<!DOCTYPE svg PUBLIC "-//W3C//DTD SVG 1.1//EN" "http://www.w3.org/Graphics/SVG/1.1/DTD/svg11.dtd">
<svg version="1.1" id="Layer_1" xmlns="http://www.w3.org/2000/svg" xmlns:xlink="http://www.w3.org/1999/xlink" x="0px" y="0px"
	 width="98.14px" height="86.655px" viewBox="0.017 -0.005 98.14 86.655" enable-background="new 0.017 -0.005 98.14 86.655"
	 xml:space="preserve">
<path fill="#B00B00" d="M56.05,80.3c0.867-0.6,1.35-1.25,1.45-1.95c-0.8,0.733-1.45,1.617-1.95,2.65h0.15L56.05,80.3 M79.2,60l-1.95,2.3
	C78.383,61.733,79.033,60.967,79.2,60 M75.3,63.9l-1.4,1.6c0.8-0.267,1.333-0.8,1.6-1.6H75.3 M70.2,69l0.05-0.15l0.25-0.2h0.2
	L70.2,69 M40.35,77.1l-0.7-0.35c2.2,3,5.15,5.066,8.85,6.2l-0.7-0.9l0.7,0.35l-1.6-1.55L46.2,81l0.7,0.7l-1.05-0.5
	c0.2-0.634-0.033-1.167-0.7-1.6h-0.2v0.7l-4.6-3.9V77.1 M39.65,76.4c-0.767-1.2-1.767-1.833-3-1.9c0.567,1.5,1.517,2.25,2.85,2.25
	l-0.35-0.5L39.65,76.4 M19.2,58.25c-1.167-1.934-2.65-3.583-4.45-4.95C15.75,55.4,17.233,57.05,19.2,58.25 M15.5,53.45
	c-0.467-1.034-1.233-1.784-2.3-2.25C13.733,52.167,14.5,52.917,15.5,53.45 M31.55,74.1l-1.05-0.35c0.133-0.167,0.067-0.45-0.2-0.85
	C30.833,73.167,31.25,73.566,31.55,74.1 M27.85,66.9l-1.6-1.4V66c-0.567-0.467-1.267-0.816-2.1-1.05
	C24.983,65.983,26.217,66.633,27.85,66.9 M11.4,49.35l-0.35-0.1l1.45,3.5h-0.2V52.4l-3.55-5.1l2.3,1.6v-0.15L11.4,49.35l0.35,0.05
	l-0.5-0.85c-0.167-0.133-0.233-0.066-0.2,0.2l-5.3-9.55l0.75,0.5c-0.4-1.867-0.517-3.634-0.35-5.3c-0.767-0.3-1.083-0.7-0.95-1.2
	c0.167-0.534,0.183-1.3,0.05-2.3c-0.933-3-0.767-5.95,0.5-8.85l1.6-1.75L6.3,20.65c0.233-0.5,0.784-1.216,1.65-2.15l-0.6,1.75
	c0.433-0.4,0.717-1.066,0.85-2c2-1.934,4.333-3.833,7-5.7c2.7-1.866,4.5-2.7,5.4-2.5l-0.2,0.35c2.033-1.2,4.333-2.017,6.9-2.45
	L27.15,8.3c-0.6,0.067-1.017,0.3-1.25,0.7l1.75-0.35l-0.5,0.55L34,8.8c-0.567-0.267-0.8-0.433-0.7-0.5
	c1.567-0.167,4.117,0.634,7.65,2.4c3.533,1.8,5.867,3.167,7,4.1l1.25,1.8c0.233,0.633,0.816,1.1,1.75,1.4
	c1.3-2.667,3.216-5.733,5.75-9.2c2.5-3.466,5.117-5.75,7.85-6.85L64,2.8l4.25-1.9c0.167,0.333,0.7,0.467,1.6,0.4l2.3-0.6L76,0.9
	v0.15L72.15,1.4l0.35,0.2c3.433,0.9,6.667,1.9,9.7,3c4.133,2.5,7.15,5.85,9.05,10.05c1.9,4.2,3.35,9.133,4.35,14.8h0.2
	c-0.167-1.3-0.466-2.684-0.9-4.15c-0.4-1.466-0.467-2.716-0.2-3.75l0.2,1.05c0.033-1.9-0.283-3.434-0.95-4.6
	c-0.633-1.2-1.133-2.5-1.5-3.9h0.15l0.7,1.6c-0.267-1.2-0.8-2.134-1.6-2.8c0.4-0.466,0.466-0.833,0.2-1.1l-0.55-1.05
	c2.167,1.967,3.583,4.5,4.25,7.6c0.167-0.267,0.35-0.317,0.55-0.15c0.434,1,0.434,2.283,0,3.85c0.7,0.1,1.167,0.934,1.4,2.5H97.2
	l-0.2-0.9c0.167,1.767,0.467,3.434,0.9,5c0.434,1.6,0.317,3.35-0.35,5.25v-0.35L97,31.6l-0.35,0.15c0.3,2.4,0.417,4.583,0.35,6.55
	c-0.333,1.634-1,3.4-2,5.3L92.8,48h-0.2l0.7-1.95c-2.267,1.767-4.167,4.317-5.7,7.65c-1.567,3.366-3.367,6.167-5.4,8.4
	c0.033-0.5-0.15-0.784-0.55-0.85c0.667-1.2,1.55-2.15,2.65-2.85l-0.15-0.15l-0.9,0.15l0.9-1.05l1.4-2.65L85,55.05l1.45-2.45
	l-1.6,0.7l-3,4.75l2.3-1.55c-1.533,2.733-3.25,5.434-5.15,8.1c0.367-0.1,0.483,0.066,0.35,0.5l-4.2,4.25L73,69.7l-2.8,3.55
	l-2.5,1.25l-1.4,2.45l-1.25,0.15c-0.333-0.034-0.8,0.283-1.4,0.95C63.083,78.717,62.5,79,61.9,78.9l1.6-1.6l-1.95,1.6l0.35-0.55
	l-1.95,1.05v-0.15l1.9-1.75l1.65-1.6v-1.05c0.867-0.767,1.85-1.367,2.95-1.8c1.066-0.466,2.083-1.283,3.05-2.45l-1.1,0.7
	c0.267-0.733,0.8-1.2,1.6-1.4c0.567,0.133,1.283-0.167,2.15-0.9l0.35-1.4l-0.2-0.2l-1.8,1.25h-0.15l-0.1,0.2
	c-1.7,1.733-3.183,3.017-4.45,3.85l0.7-0.85l-2.65,1.9l0.85-0.15c-1,1.066-2.083,1.816-3.25,2.25c-1.167,0.4-2.2,1.066-3.1,2
	l1.25-0.75l-1.05,1.95l2.1-1.4c-1.066,1.434-2.367,2.667-3.9,3.7l2.5-1.6v0.55c-2.033,2.233-4.217,4.35-6.55,6.35
	c-1.6-0.466-2.767-1.233-3.5-2.3c-0.267,0.333-0.567,0.45-0.9,0.35c-0.767-0.833-3.2-2.317-7.3-4.45c-4.133-2.1-7.05-3.9-8.75-5.4
	l1.95,0.85c-1.2-1.367-2.55-2.434-4.05-3.2c-1.5-0.733-2.8-1.717-3.9-2.95l1.4,0.85c-1.3-1.867-2.6-3.267-3.9-4.2H23.6l-0.2,0.35
	l1.45,1.4L25,68.5l-0.5,0.15L22.35,66v1.25l-0.5-0.2c-0.767-1.233-1.717-2.233-2.85-3c1.533,0.134,2.65,0.617,3.35,1.45L22,64.75
	l1.05,0.35l-0.85-1.2l-2.15-1.05l0.35,0.5c-1.233-0.767-2.35-1.65-3.35-2.65l-0.85,0.55c-2.5-1.467-4.767-3.684-6.8-6.65
	c-2.033-3-3.533-5.967-4.5-8.9c0.533-0.233,1-0.167,1.4,0.2c0.233,0.567,0.3,1.217,0.2,1.95c0.967,2.966,2.85,4.9,5.65,5.8
	c0.434,0.833,0.783,1.9,1.05,3.2l-2.3-2.3c1.133,1.934,2.483,3.75,4.05,5.45l4.25-0.15v-0.2l-0.55-0.35L13,51.9L11.4,49.35
	 M1.55,31.75v-0.5l0.15,0.5H1.55 M4,20.3c0.967-0.3,1.617-1.116,1.95-2.45c0.133,0.9-0.184,2.133-0.95,3.7
	c-0.767,1.534-1.333,2.884-1.7,4.05l0.2,6.15l-0.35-0.5c0.5,1.633,0.667,3.1,0.5,4.4L3.3,35.1c-0.966-2.267-1.216-4.7-0.75-7.3
	L4,20.3 M1.55,24.35c0.1-0.7,0.267-1.083,0.5-1.15l0.7-0.6l0.2-0.55l-0.2,2.65H2.4c0.067,1.233-0.05,2.533-0.35,3.9
	c0.133-1.067,0.017-1.9-0.35-2.5c-0.367,2.433-0.417,4.617-0.15,6.55c0.733,1.934,1.7,3.784,2.9,5.55c1.2,1.733,1.767,3.533,1.7,5.4
	c0.767,0.3,0.883,0.833,0.35,1.6l-1.8-1.6l-3.35-4.05c-0.767-1.533-1.2-4.066-1.3-7.6c-0.133-3.567,0.133-6.333,0.8-8.3L1,24.35
	l0.35-1.75L1.55,24.35 M8.05,18h0.2L8.2,18.25L7.95,18.5l0.1-0.15V18 M7.35,12.2H7.9c-0.967,1.733-2,3.3-3.1,4.7
	c-1.066,1.4-1.8,3.233-2.2,5.5H2.4l0.2-2.1l-0.35,0.15l-0.7,2.15h-0.2v-0.7C2.717,18,4.717,14.767,7.35,12.2 M10.35,9.55L11.4,8.8
	l1.45,0.9v0.7l-5.3,4.95c0.2-1.3,0.667-2.35,1.4-3.15l-0.2,0.7l1.45-1.8l-1.05,0.55C9.283,11.117,9.683,10.417,10.35,9.55
	 M23.05,8.8c-0.333,0.467-0.733,0.65-1.2,0.55V9.2l0.7-0.4H23.05 M70.35,0.2l0.9-0.2c0.667-0.033,1.133,0.083,1.4,0.35L70.35,0.2
	 M81.15,62.3V63l-0.55,0.2L81.15,62.3 M91.9,45l0.35-0.15c0.267-0.934,0.15-1.65-0.35-2.15l-0.35,2.15L91.9,45 M88.7,48.9l0.35-1.45
	c0.267,0.3,0.633,0.55,1.1,0.75l1.4-3.2l-0.35,0.55c0.2-1.333,0.133-2.283-0.2-2.85c-0.9,2.667-2.133,5.083-3.7,7.25L88.7,48.9
	 M90.65,44.3c0.133,0.5-0.033,0.917-0.5,1.25L90.65,44.3 M88.9,9.2c1.233,0.767,2.117,1.883,2.65,3.35
	C90.583,11.75,89.7,10.633,88.9,9.2 M87.3,6.55c1.3,0.667,2.417,1.55,3.35,2.65C89.117,8.733,88,7.85,87.3,6.55"/>
</svg>
