<?xml version="1.0" encoding="utf-8"?>
<!-- Generator: Adobe Illustrator 16.0.0, SVG Export Plug-In . SVG Version: 6.00 Build 0)  -->
<!DOCTYPE svg PUBLIC "-//W3C//DTD SVG 1.1//EN" "http://www.w3.org/Graphics/SVG/1.1/DTD/svg11.dtd">
<svg version="1.1" id="Layer_1" xmlns="http://www.w3.org/2000/svg" xmlns:xlink="http://www.w3.org/1999/xlink" x="0px" y="0px"
	 width="308.065px" height="144.3px" viewBox="-4.004 77.851 308.065 144.3" enable-background="new -4.004 77.851 308.065 144.3"
	 xml:space="preserve">
<path fill="none" stroke="#000000" stroke-width="10" d="M136.985,214.159c-14.706-5.742-4.625-24.056-14.391-33.275
	c-12.963-7.752-2.123-24.165-12.578-33.288c-7.488-6.649-5.242-16.624-3.679-25.189c-29.751-0.236-59.533,0.624-89.257-0.785
	c-15.115,1.28-20.032-18.27-12.807-28.852c7.004-11.241,21.877-8.313,33.126-9.403c64.979-0.769,129.976-0.611,194.957,0.029
	c17.263,0.801,37.018-1.195,50.657,11.688c16.248,15.167,16.017,39.344,16.048,59.948c-0.422,19.218-2.9,42.021-20.486,53.469
	c-16.369,10.952-36.937,7.669-55.555,8.623c-27.942-0.3-56.071,1.045-83.869-2.267L136.985,214.159L136.985,214.159L136.985,214.159
	z M206.317,203.601c9.631-11.231-3.521-20.502-14.653-17.56c-16.146-0.105-32.655-1.702-48.526,1.755
	c-13.674,5.196-4.855,21.545,7.465,18.259c18.049,1.024,36.476,1.821,54.286-1.687L206.317,203.601z M272.25,201.424
	c15.663-8.699,15.78-28.605,16.25-44.249c-0.342-16.506,1.707-34.584-7.045-49.366c-7.238-10.842-20.72-14.525-33.138-14.12
	c-23.366,0.038-47.079-1.827-70.165,2.525c-15.664,3.363-22.231,20.93-23.458,35.19c-0.483,13.8-1.821,28.008,1.226,41.56
	c7.246,5.03,15.895-9.138,19.172-15.422c4.317-11.676-0.62-26.251,8.109-36.194c8.723-9.464,24.964-8.534,32.525,1.887
	c8.381,9.232-0.483,21.696,1.823,32.516c4.151,9.931-0.7,19.459-0.858,28.507c4.139,6.871,2.879,15.029,1.611,22.506
	c16.211-0.577,32.861,1.706,48.65-2.719C268.802,203.354,270.567,202.453,272.25,201.424z M145.712,165.48
	c2.188-13.699-18.655-12.597-20.493-1.57c-4.386,12.232,17.611,15.569,20.781,7.032C146.037,169.116,145.859,167.298,145.712,165.48
	z M208.163,165.903c1.416-11.797-20.56-11.915-24.751-3.631c-2.344,5.032-10.04,15.254,1.133,12.593
	C192.092,173.161,209.668,178.616,208.163,165.903z M145.721,134.791c-0.754-2.942,3.031-10.287-1.133-9.921
	c-9.209,1.015-19.081-0.453-27.709,3.19c-7.772,10.637,5.244,21.027,15.922,17.539C140.592,145.714,146.712,144.355,145.721,134.791
	z M206.725,142.322c8.858-9.539-4.957-21.959-14.945-15.668c-10.397,5.406-7.292,25.106,6.587,19.177
	C201.335,145.286,204.504,144.53,206.725,142.322z M153.54,103.932c2.004-3.508,4.007-7.016,6.011-10.524
	c-44.99,0.241-90.002-0.616-134.975,0.73c-12.214-3.326-22.078,15.222-6.822,18.358c24.021,3.107,48.391,1.524,72.563,1.979
	c19.071-0.006,38.142-0.012,57.213-0.018C149.533,110.948,151.537,107.44,153.54,103.932L153.54,103.932z"/>
</svg>
