<?xml version="1.0" encoding="utf-8"?>
<!-- Generator: Adobe Illustrator 16.0.3, SVG Export Plug-In . SVG Version: 6.00 Build 0)  -->
<!DOCTYPE svg PUBLIC "-//W3C//DTD SVG 1.1 Tiny//EN" "http://www.w3.org/Graphics/SVG/1.1/DTD/svg11-tiny.dtd">
<svg version="1.1" baseProfile="tiny" id="Layer_1" xmlns="http://www.w3.org/2000/svg" xmlns:xlink="http://www.w3.org/1999/xlink"
	 x="0px" y="0px" width="219.025px" height="103.777px" viewBox="0 0 219.025 103.777" xml:space="preserve">
<path fill="#33553E" d="M217.421,18.363c0.043,1.305-32.414,16.207-32.414,16.207l-9.898-3.047l-5.762,0.219L80.312,70.221
	c0,0-14.246,7.1-16.207,8.623c-1.958,1.523-0.424,1.917-1.739,2.716c-0.984,0.598-4.75,0.324-5.62-0.33
	c-0.869-0.652-45.72,22.196-48.767,21.762c-3.047-0.436-2.831-4.57-2.831-4.57s48.49-21.811,48.49-22.682
	c0-0.87,0.136-2.989,1.545-3.424c1.41-0.436,4.475,0.776,4.475,0.776l19.954-8.944l81.683-34.903c0,0,9.462-10.55,12.725-12.509
	c3.265-1.958,19.475-14.902,25.889-15.99c1.095-0.186,4.367-1.542,7.938,1.523C213.59,7.198,217.204,11.512,217.421,18.363z
	 M218.189,98.421c0,0-48.49-21.811-48.49-22.682c0-0.87-0.133-2.989-1.544-3.424c-1.411-0.436-4.477,0.776-4.477,0.776
	l-27.092-12.27c0,0-83.112-35.187-84.337-36.365C31.907,4.879,11.026-0.779,11.026-0.779S7.543,1.18,3.74,4.879
	c-3.806,3.699-4.572,13.048-4.572,13.048s18.489,10.446,23.713,13.379c5.224,2.933,7.286,2.175,9.244,1.958
	c1.958-0.218,7.616-3.586,7.616-3.586l11.183,0.222l84.87,36.894c0,0,21.48,10.525,23.438,12.049
	c1.959,1.523,0.428,1.917,1.742,2.716c0.984,0.598,4.748,0.324,5.619-0.33c0.871-0.652,45.722,22.196,48.769,21.762
	C218.409,102.556,218.189,98.421,218.189,98.421z"/>
</svg>
