<?xml version="1.0" encoding="utf-8"?>
<!-- Generator: Adobe Illustrator 16.0.0, SVG Export Plug-In . SVG Version: 6.00 Build 0)  -->
<!DOCTYPE svg PUBLIC "-//W3C//DTD SVG 1.1//EN" "http://www.w3.org/Graphics/SVG/1.1/DTD/svg11.dtd">
<svg version="1.1" id="Layer_1" xmlns="http://www.w3.org/2000/svg" xmlns:xlink="http://www.w3.org/1999/xlink" x="0px" y="0px"
	 width="100px" height="100px" viewBox="0 0 100 100" enable-background="new 0 0 100 100" xml:space="preserve">
<path fill="#010101" d="M90.648,70.256c-2.195,0.162-10.791,0.58-17.047-8.559c-4.461-6.516-10.361-4.939-10.361-4.939l1.846,1.432
	c0,0-1.295,1.949-3.984,0.851c-2.567-1.056-3.901-4.285-4.533-6.488c1.88-0.395,11.07-2.791,11.07-2.791l-0.471-0.914
	c1.574-3.013,4.205-1.372,4.205-1.372c22.363-6.616,26.35-16.795,26.35-16.795l-5.721,4.402l1.064,0.5
	c-1.439,1.667-7.221,8.04-18.105,6.001c-7.76-1.453-10.822,3.835-10.822,3.835l2.318-0.296c0,0,0.465,2.296-2.215,3.417
	c-2.566,1.075-5.791-0.268-7.793-1.381c1.053-1.61,5.854-9.798,5.854-9.798l-0.979-0.315c-1.02-3.244,2.002-3.942,2.002-3.942
	C74.463,12.61,70.084,2.594,70.084,2.594L69.15,9.752l1.106-0.401c0.16,2.195,0.578,10.792-8.562,17.047
	c-6.516,4.459-4.938,10.362-4.938,10.362l1.433-1.848c0,0,1.951,1.296,0.848,3.983c-1.053,2.572-4.283,3.906-6.486,4.535
	c-0.395-1.879-2.79-11.068-2.79-11.068l-0.917,0.469c-3.011-1.575-1.37-4.206-1.37-4.206C40.858,6.263,30.679,2.278,30.679,2.278
	l4.402,5.721l0.5-1.065c1.667,1.438,8.04,7.221,6.002,18.105C40.13,32.8,45.417,35.86,45.417,35.86l-0.295-2.318
	c0,0,2.295-0.464,3.416,2.216c1.076,2.565-0.268,5.791-1.38,7.793c-1.609-1.052-9.799-5.854-9.799-5.854l-0.315,0.979
	c-3.242,1.016-3.941-2.005-3.941-2.005C12.61,25.536,2.594,29.916,2.594,29.916L9.75,30.85l-0.398-1.106
	c2.195-0.162,10.791-0.581,17.046,8.558c4.46,6.515,10.362,4.94,10.362,4.94l-1.848-1.431c0,0,1.298-1.951,3.984-0.85
	c2.571,1.054,3.905,4.285,4.534,6.487c-1.877,0.394-11.067,2.791-11.067,2.791l0.47,0.915c-1.575,3.012-4.206,1.371-4.206,1.371
	C6.264,59.141,2.278,69.32,2.278,69.32l5.721-4.4l-1.065-0.5c1.438-1.666,7.221-8.041,18.105-6.004
	c7.762,1.453,10.821-3.832,10.821-3.832l-2.319,0.295c0,0-0.463-2.297,2.217-3.418c2.565-1.074,5.792,0.268,7.793,1.381
	c-1.053,1.611-5.853,9.799-5.853,9.799l0.978,0.314c1.018,3.244-2.003,3.943-2.003,3.943c-11.138,20.492-6.756,30.506-6.756,30.506
	l0.934-7.156l-1.106,0.4c-0.162-2.195-0.582-10.791,8.557-17.047c6.515-4.461,4.94-10.363,4.94-10.363l-1.43,1.848
	c0,0-1.952-1.295-0.849-3.984c1.052-2.569,4.284-3.903,6.486-4.533c0.394,1.877,2.79,11.068,2.79,11.068l0.917-0.469
	c3.01,1.574,1.369,4.205,1.369,4.205c6.615,22.365,16.795,26.35,16.795,26.35L64.92,92l-0.5,1.066
	c-1.668-1.439-8.041-7.222-6.004-18.105c1.453-7.762-3.832-10.82-3.832-10.82l0.293,2.318c0,0-2.295,0.463-3.416-2.217
	c-1.075-2.564,0.268-5.791,1.381-7.793c1.609,1.051,9.799,5.854,9.799,5.854l0.314-0.979c3.244-1.019,3.943,2.004,3.943,2.004
	c20.49,11.137,30.506,6.756,30.506,6.756l-7.156-0.933L90.648,70.256z M48.877,54.412l-0.37,0.484l-2.42-2.568l-0.607,0.078
	l0.108-3.527L45.1,48.506l2.572-2.418l-0.08-0.606l3.528,0.107l0.371-0.486l2.42,2.571l0.606-0.081l-0.106,3.529l0.485,0.371
	l-2.571,2.42l0.082,0.606L48.877,54.412z"/>
</svg>
