<?xml version="1.0" encoding="utf-8"?>
<!-- Generator: Adobe Illustrator 16.0.0, SVG Export Plug-In . SVG Version: 6.00 Build 0)  -->
<!DOCTYPE svg PUBLIC "-//W3C//DTD SVG 1.1//EN" "http://www.w3.org/Graphics/SVG/1.1/DTD/svg11.dtd">
<svg version="1.1" id="Layer_1" xmlns="http://www.w3.org/2000/svg" xmlns:xlink="http://www.w3.org/1999/xlink" x="0px" y="0px"
	 width="27px" height="15.429px" viewBox="2.5 8.286 27 15.429" enable-background="new 2.5 8.286 27 15.429" xml:space="preserve">
<path d="M16,8.286C8.454,8.286,2.5,16,2.5,16s5.954,7.715,13.5,7.715c5.771,0,13.5-7.715,13.5-7.715S21.771,8.286,16,8.286z
	 M16,20.807c-2.649,0-4.807-2.157-4.807-4.808c0-2.649,2.158-4.807,4.807-4.807c2.648,0,4.807,2.158,4.807,4.807
	C20.807,18.649,18.648,20.807,16,20.807z M16,13.194c-1.549,0-2.806,1.256-2.806,2.806S14.45,18.806,16,18.806
	S18.807,17.55,18.807,16C18.807,14.451,17.55,13.194,16,13.194z"/>
</svg>
