<?xml version="1.0" encoding="utf-8"?>
<!-- Generator: Adobe Illustrator 16.0.0, SVG Export Plug-In . SVG Version: 6.00 Build 0)  -->
<!DOCTYPE svg PUBLIC "-//W3C//DTD SVG 1.1//EN" "http://www.w3.org/Graphics/SVG/1.1/DTD/svg11.dtd">
<svg version="1.1" id="Layer_1" xmlns="http://www.w3.org/2000/svg" xmlns:xlink="http://www.w3.org/1999/xlink" x="0px" y="0px"
	 width="161.291px" height="103.654px" viewBox="69.354 98.502 161.291 103.654"
	 enable-background="new 69.354 98.502 161.291 103.654" xml:space="preserve">
<path fill="none" stroke="#000000" stroke-width="10" d="M130.521,195.658c-18.479-2.981-38.131-9.414-49.819-24.969
	c-4.873-6.502-6.857-14.782-6.237-22.811c-0.813-10.418,5.239-19.782,13.11-26.042c15.716-12.699,36.444-17.124,56.188-18.214
	c21.015-0.842,42.852,2.624,61.209,13.32c11.192,6.863,21.104,18.666,20.547,32.456c0.612,8.097-0.919,16.688-6.593,22.84
	c-11.241,13.637-28.928,19.594-45.725,22.875C159.134,197.658,144.647,197.808,130.521,195.658z M164.853,187.699
	c9.066-1.935,15.014-11.038,14.888-20.033c1.548-18.897-4.735-39.563-20.094-51.521c-8.613-6.063-20.889-6.658-30.005-1.423
	c-6.797,4.103-9.336,12.237-9.318,19.781c-0.737,16.044,3.977,32.82,14.66,45.022C142.478,187.396,154.33,191.609,164.853,187.699z"
	/>
</svg>
