<?xml version="1.0" encoding="utf-8"?>
<!-- Generator: Adobe Illustrator 16.0.0, SVG Export Plug-In . SVG Version: 6.00 Build 0)  -->
<!DOCTYPE svg PUBLIC "-//W3C//DTD SVG 1.1//EN" "http://www.w3.org/Graphics/SVG/1.1/DTD/svg11.dtd">
<svg version="1.1"
	 id="svg797" xmlns:cc="http://creativecommons.org/ns#" xmlns:dc="http://purl.org/dc/elements/1.1/" xmlns:rdf="http://www.w3.org/1999/02/22-rdf-syntax-ns#"
	 xmlns="http://www.w3.org/2000/svg" xmlns:xlink="http://www.w3.org/1999/xlink" x="0px" y="0px" width="95.787px"
	 height="71.281px" viewBox="24.219 0 95.787 71.281" enable-background="new 24.219 0 95.787 71.281" xml:space="preserve">
<path fill="#00009D" d="M24.5,0.185h31.916v71.813H24.5V0.185z M88.331,0.185h31.918v71.813H88.331V0.185z"/>
<rect id="rect809" x="56.416" y="0.185" fill="#FFD400" width="31.918" height="71.813"/>
<path d="M91.91,15.896c-4.306,0.672-8.734,2.933-11.77,6.07c-0.354,0.435,0.052,0.502,0.253,0.477
	c1.661-0.498,1.333,1.363,1.212,2.11c-1.702,5.441-3.189,10.714-3.734,16.974c-0.002,0.437-0.07,0.754-0.276,0.773
	c-0.767,0.041-1.52,0.028-2.295,0.028c-0.282,0.003-0.344-0.312-0.364-0.606c0.041-6.306-0.016-12.611,0.024-18.916
	c0.018-0.416,1.526-2.105,1.771-2.112c0.771-0.019,1.097,0,1.959-0.016c0.226-0.001,0.272-0.694,0.016-0.727
	c-0.526,0-1.499-0.048-2.026-0.048c-0.248,0.009-3.774-2.679-3.78-3.231c-0.015-0.315-0.017-0.628-0.021-0.94v-1.575
	c0.008-0.137-0.251-0.192-0.503-0.187c-0.252-0.005-0.51,0.05-0.503,0.187v1.533c-0.004,0.326-0.006,0.652-0.022,0.982
	c-0.007,0.553-3.531,3.24-3.781,3.231c-0.525,0-1.5,0.048-2.024,0.048c-0.257,0.032-0.211,0.725,0.016,0.727
	c0.862,0.016,1.188-0.003,1.959,0.016c0.245,0.007,1.752,1.697,1.771,2.112c0.039,6.304-0.018,12.609,0.023,18.916
	c-0.02,0.295-0.08,0.609-0.363,0.606c-0.774,0-1.527,0.013-2.295-0.028c-0.206-0.02-0.275-0.337-0.275-0.773
	c-0.545-6.26-2.031-11.532-3.735-16.974c-0.121-0.747-0.447-2.607,1.214-2.11c0.2,0.025,0.605-0.042,0.251-0.477
	c-3.033-3.138-7.464-5.398-11.769-6.07c-0.381-0.098-0.605,0.092-0.263,0.534c5.704,8.794,10.484,19.168,10.445,31.476h6.669
	l0.121,10.307c1.736-0.122,0.777,0.078,2.515-0.041h0.002v-0.006c0.005-0.444,0.021-1.46,0.045-2.88
	c0.023,1.42,0.04,2.436,0.045,2.88v0.006c1.738,0.119,0.778-0.081,2.517,0.041l0.12-10.307h6.67
	c-0.039-12.307,4.741-22.682,10.446-31.476C92.513,15.988,92.291,15.799,91.91,15.896z"/>
</svg>
