<?xml version="1.0" encoding="utf-8"?>
<!-- Generator: Adobe Illustrator 16.0.0, SVG Export Plug-In . SVG Version: 6.00 Build 0)  -->
<!DOCTYPE svg PUBLIC "-//W3C//DTD SVG 1.1//EN" "http://www.w3.org/Graphics/SVG/1.1/DTD/svg11.dtd">
<svg version="1.1" id="Layer_1" xmlns="http://www.w3.org/2000/svg" xmlns:xlink="http://www.w3.org/1999/xlink" x="0px" y="0px"
	 width="33.903px" height="33.044px" viewBox="-0.979 -0.917 33.903 33.044" enable-background="new -0.979 -0.917 33.903 33.044"
	 xml:space="preserve">
<path d="M15.5,21.083h1.001v-2.002H15.5V21.083z M15.5,25.083h1.001v-2H15.5V25.083z M15.5,29.083h1.001v-2H15.5V29.083z
	 M15.5,32.127h1.001v-1.045H15.5V32.127z M15.5,17.083h1.001v-2H15.5V17.083z M15.5,1.083h1.001v-2H15.5V1.083z M15.5,5.083h1.001
	v-2H15.5V5.083z M15.5,9.083h1.001v-2H15.5V9.083z M15.5,13.083h1.001v-2H15.5V13.083z M18.832,1.203v25.961h14.093L18.832,1.203z
	 M19.832,5.136l11.41,21.031h-11.41V5.136z M13.113,27.165V1.203L-0.979,27.165H13.113z"/>
</svg>
