<?xml version="1.0" encoding="utf-8"?>
<!-- Generator: Adobe Illustrator 15.1.0, SVG Export Plug-In . SVG Version: 6.00 Build 0)  -->
<!DOCTYPE svg PUBLIC "-//W3C//DTD SVG 1.1//EN" "http://www.w3.org/Graphics/SVG/1.1/DTD/svg11.dtd">
<svg version="1.1" id="Layer_1" xmlns="http://www.w3.org/2000/svg" xmlns:xlink="http://www.w3.org/1999/xlink" x="0px" y="0px"
	 width="100px" height="100px" viewBox="0 0 100 100" enable-background="new 0 0 100 100" xml:space="preserve">
<g>
	<path fill="#010101" d="M31.184,37.277C31.189,37.295,31.189,37.292,31.184,37.277L31.184,37.277z"/>
	<path fill="#010101" d="M37.173,98.902C41.066,98.339,47.557,98.958,48.29,98c0.113-0.621,0.113-1.004-0.026-1.176
		c-0.423-0.514-1.313-0.388-2.425-0.569c-1.267-0.205-2.972-0.894-4.566-0.999c-0.577-0.611-1.076-1.301-1.711-1.854
		c-1.091-3.67-2.076-7.843-3.139-11.841c-0.162-0.605-0.378-1.155-0.428-1.712c-0.138-1.572,0.285-3.309,0.285-4.993
		c0-0.924-0.176-1.843-0.142-2.711c0.045-1.148,0.359-2.307,0.428-3.423c0.187-3.02-0.718-5.906-0.286-8.988
		c0.445-0.388,0.934-0.596,1.427-0.855c0.643-0.34,1.266-0.633,1.855-1c0.109-0.066,0.302-0.056,0.428-0.142
		c0.232-0.158,0.352-0.436,0.57-0.571c0.447-0.273,0.962-0.447,1.426-0.714c0.502-0.288,0.938-0.668,1.427-0.855
		c0.506-0.192,1.15-0.259,1.712-0.428c1.086-0.328,2.268-0.64,3.281-1.142c0.212-0.104,0.198-0.281,0.428-0.428
		c0.174-0.108,0.396-0.027,0.571-0.143c0.3-0.195,0.564-0.517,0.856-0.714c0.32-0.214,0.71-0.371,0.998-0.569
		c0.053-0.035,0.1-0.265,0.144-0.286c0.072-0.032,0.219,0.044,0.284,0c0.054-0.035,0.097-0.265,0.144-0.285
		c0.349-0.157,0.502-0.358,0.855-0.713c0.07-0.069,0.218-0.073,0.286-0.144c0.146-0.149,0.149-0.44,0.284-0.57
		c0.077-0.072,0.214-0.072,0.285-0.143c0.431-0.412,1.259-1.185,2.284-1.142c0.898,1.203,0.535,3.494,0.855,5.279
		c0.115,0.646,0.452,1.382,0.713,2.14c0.24,0.698,0.417,1.391,0.713,1.998c0.483,0.981,1.58,2.852,2.426,2.996
		c0.661,0.113,2.113-0.714,3.139-1.141c0.297-0.125,0.594-0.167,0.855-0.286c1.071-0.485,2.327-1.203,3.424-1.854
		c0.575-0.341,1.142-0.669,1.712-0.998c0.521-0.301,1.9-0.923,2.283-1.428c0.094-0.124,0.045-0.184,0.143-0.285
		c0.062-0.063,0.524-1.276,0.57-1.569c0.16-1.012-0.053-2.2,0.143-3.282c0.249-1.369,0.983-2.44,0.714-3.708
		c-1.009,0.131-0.407,1.876-1.284,2.139c0.035-0.604-0.131-1.009-0.285-1.426c-0.112-0.376-0.671,0.32-0.714-0.286
		c-0.402-0.025-0.178-0.677-0.713-0.57c-0.326,0.726,0.479,1.275,0.713,1.997c0.266,0.812,0.277,1.431,0,2.426
		c-0.955-0.375-0.666-1.997-1.997-1.998c-0.344,0.924,0.628,1.557,0.856,2.426c0.2,0.767,0.093,1.657,0,2.567
		c-0.299,0.752-1.222,0.751-1.854,0.999c-0.36,0.143-0.624,0.297-1,0.428c-1.537,0.542-3.307,1.058-5.277,1.428
		c-0.082-1.782-1.076-3.426-1.283-5.279c-0.246-2.198,0.279-4.029-0.571-5.85c-0.434-0.926-1.214-1.49-1.854-2.425
		c-0.209-0.304-0.407-0.58-0.57-0.855c-0.708-1.203-1.522-2.536-0.856-4.138c0.709-0.417,1.354,0.934,2.425,0.714
		c0.454-0.093,0.536-0.2,0.856-0.714c0.092-0.391,0.321,0.016,0.571-0.285c0.133-0.159-0.009-0.437,0.143-0.57
		c0.127-0.113,0.313-0.025,0.427-0.143c0.252-0.258,0.56-0.815,1.427-0.571c0.241-0.493-0.116-0.945,0-1.711
		c0.175,0.045,0.882-0.023,0.429-0.144c-0.176-0.062-0.293-0.182-0.285-0.428c0.235-0.382,0.779-0.458,0.999-0.856
		c0.212-1.005,0.356-1.85,0-2.996c-0.52-1.673-1.38-2.321-2.854-3.424c-0.082-0.061-0.224-0.251-0.284-0.286
		c-0.327-0.178-0.776-0.126-1.143-0.285c-0.619-0.27-1.298-1.061-2.14-1.284c-0.455-0.121-1.321,0.025-1.855,0.428
		c-0.375,0.285-0.446,0.89-0.854,0.999c-0.169,0.515-0.106,0.957-0.286,1.427c-0.128,0.338-0.454,0.625-0.569,0.999
		c-0.314,1.006-0.151,2.143-0.429,3.566c-0.086,0.371,0.057,0.514,0.429,0.428c-0.176,0.145,0.032,0.423,0,0.571
		c-0.196,0.875-1.644,2.002-2.997,1.854c0.267-2.414-0.15-4.59,0.143-6.562c0.103-0.69,0.351-1.339,0.571-1.998
		c0.371-1.112,0.88-2.24,1.141-3.709c1.487-0.753,3.286-1.039,5.137-1.427c0.961-0.201,1.908-0.313,2.854-0.428
		c1.476-0.18,2.887-0.317,3.708-1.283c0.098-0.115,0.173-0.395,0.286-0.571c0.309-0.48,0.505-1.028,0.855-1.711
		c0.17-0.33,0.495-0.712,0.57-0.999c0.155-0.581,0.127-1.557,0.144-2.283c0.016-0.715,0.066-1.476-0.144-2.14
		c-0.713,0.394-0.47,1.905-0.713,2.996c-0.754-0.672-1.186-1.667-1.712-2.568c-0.432,0.209-0.4,0.305-0.855,0
		c-0.47,0.343,0.182,0.759,0.285,0.999c0.392,0.22-0.607,0.236-0.285,0.856c0.202,0.759,0.521,1.357,0.428,2.14
		c-0.108,0.896-0.847,1.38-1.142,1.998c-1.899-0.083-3.776-0.26-5.563-0.143c-1.962,0.129-3.757,0.673-5.564,0.713
		c-0.408,0.128-0.38,0.56-0.57,0.856c-0.158,0.248-0.422,0.473-0.57,0.713c-0.655,1.067-1.165,2.2-1.712,3.424
		c-0.753,1.682-1.396,3.748-1.854,5.849c-0.148,0.677-0.236,1.446-0.428,2.14c-0.021,0.075-0.273,0.374-0.286,0.428
		c-0.103,0.461-0.097,1.133-0.285,1.569c-0.143,0.333-0.481,0.652-0.714,0.999c-0.499,0.748-1.085,1.742-1.569,2.711
		c-0.123,0.248-0.293,0.555-0.428,0.856c-0.153,0.344-0.136,0.741-0.285,0.999c-0.193,0.333-0.606,0.542-0.856,0.856
		c-0.161,0.202-0.121,0.384-0.285,0.571c-0.12,0.136-0.297,0.276-0.428,0.428c-0.088,0.103-0.052,0.194-0.143,0.285
		c-0.071,0.071-0.214,0.071-0.286,0.143c-0.159,0.159-0.166,0.457-0.285,0.57c-0.126,0.12-0.43,0.152-0.571,0.285
		c-0.12,0.114-0.198,0.28-0.286,0.428c-0.65-0.315-1.651-0.499-2.14-0.57c1.107-2.266,2.019-4.622,2.568-7.133
		c0.083-0.376,0.051-0.754,0.143-1.142c0.067-0.285,0.204-0.531,0.286-0.856c0.154-0.62,0.255-1.351,0.427-1.997
		c0.087-0.321,0.363-0.55,0.428-0.855c0.063-0.298,0.076-0.681,0.142-1c0.063-0.297,0.238-0.686,0.286-0.998
		c0.059-0.383-0.072-0.771,0-1.142c0.456-2.31,1.696-4.701,2.568-7.133c0.217-0.608,0.363-1.238,0.57-1.854
		c0.105-0.314,0.167-0.651,0.286-0.999c0.077-0.229,0.343-0.481,0.427-0.714c0.226-0.613,0.325-1.263,0.571-1.854
		c0.126-0.303,0.303-0.547,0.427-0.856c0.052-0.126,0.077-0.259,0.144-0.428c0.099-0.251,0.417-0.833,0.713-1.141
		c0.544-0.568,1.012-2.241,1.426-3.139c0.119-0.253,0.284-0.631,0.428-0.999c0.389-0.987,0.424-2.095,0.999-2.996
		c-0.192-0.42,0.036-1.025,0.142-1.712c0.177-1.121,0.585-2.098-0.285-2.711c-0.192-0.135-0.71-0.318-0.999-0.285
		c-0.764,0.086-0.84,0.839-1.283,1.569c-0.113,0.186-0.346,0.263-0.428,0.428c-0.074,0.146-0.109,0.356-0.144,0.428
		c-0.248,0.538-0.45,1.499-0.855,2.14c-0.72,1.14-1.868,1.708-3.281,2.282c0.096,0.667-0.23,0.913-0.428,1.284
		c0.188,0.424,0.227,0.868,0.428,1.426c0.162,0.444,0.597,0.874,0.57,1.284c-0.036,0.553-0.899,1.278-1.427,1.998
		c-0.546,0.743-0.973,1.548-1.284,1.997c-0.239,0.344-0.478,0.641-0.713,0.999c-0.101,0.153-0.185,0.415-0.286,0.571
		c-0.036,0.055-0.264,0.095-0.286,0.143c-0.175,0.389-0.445,0.803-0.713,1.284c-0.182,0.328-0.436,0.692-0.57,0.998
		c-0.153,0.351-0.16,0.799-0.286,1.142c-0.293,0.805-0.705,1.579-0.999,2.568c-0.2,0.676-0.359,1.753-0.57,2.71
		c-0.146,0.667-0.44,1.372-0.285,2.14c-0.233-0.176-0.215-0.102-0.286,0.143c-0.007,0.025,0.195,0.257,0.143,0.285
		c-0.092,0.051-0.166-0.078-0.143-0.143c-0.494,1.336-0.817,2.317-1.569,3.567c-0.178,0.296-0.266,0.609-0.427,0.855
		c-0.081,0.123-0.345,0.168-0.428,0.286c-0.197,0.279-0.307,0.945-0.713,1.141c-0.04,0.255,0.135,0.292,0.143,0.142
		c0.515,0.276-0.308,0.162-0.286,0.143c-0.207,0.171-0.092,0.554-0.428,0.571c-0.084,0.292,0.268,0.786,0,0.428
		c-0.354-0.293-0.235,0.652-0.143,0.286c-0.029,0.114,0.146-0.01,0,0.142c-0.069,0.072-0.307,0-0.286,0.143
		c0.007,0.038,0.091,0.233,0.143,0.143c-0.203,0.347-0.243-0.211-0.143,0.285c0.041,0.206-0.323-0.11-0.285,0.143
		c0.021,0.141,0.035,0.203,0.04,0.228c0.005,0.014,0.005,0.018,0,0c-0.015-0.042-0.073-0.17-0.183,0.058
		c-0.014,0.027,0.198,0.255,0.143,0.286c0.021-0.011-0.584-0.21-0.143,0.143c0.021,0.196-0.58-0.061-0.144,0.285
		c0.022,0.197-0.579-0.06-0.142,0.285c-0.143,0.197-0.234-0.06-0.427,0.286c-0.018,0.354,0.175,0.243,0.141,0
		c0.428,0.094-0.136,0.305,0,0.57c-0.114-0.027-0.141-0.143-0.284-0.142c0.47,0.503-0.354,0.261,0,0.428
		c-0.549,1.819-1.691,3.675-2.568,5.564c-0.108,0.232-0.041,0.388-0.144,0.57c-0.068,0.119-0.238,0.199-0.285,0.285
		c-0.043,0.079,0.064,0.372,0,0.428c-0.039,0.034-0.262-0.042-0.286,0c-0.174,0.311-0.163,0.7-0.285,1.283
		c-0.052,0.246-0.13,0.644-0.143,0.856c-0.08,1.303,0.436,2.542,0.57,3.854c0.137,1.339-0.157,2.635,0,3.993
		c0.209,1.805,0.88,3.593,1.142,5.423c0.282,1.98,0.16,3.997,0.428,5.991c0.355,2.646,1.404,5.39,1.712,8.416
		c0.157,1.556,0.261,3.186,0.427,4.708c0.169,1.548,0.213,3.069,0.57,4.423c0.46,1.735,1.373,3.271,2.141,4.851
		c0.624,1.284,1.28,2.608,1.997,3.995c0.415,0.801,0.569,2.213,0.57,3.423C35.719,97.543,36.67,98.975,37.173,98.902z"/>
</g>
</svg>
