<?xml version="1.0" encoding="utf-8"?>
<!-- Generator: Adobe Illustrator 16.0.0, SVG Export Plug-In . SVG Version: 6.00 Build 0)  -->
<!DOCTYPE svg PUBLIC "-//W3C//DTD SVG 1.1//EN" "http://www.w3.org/Graphics/SVG/1.1/DTD/svg11.dtd">
<svg version="1.1"
	 id="svg551" xmlns:cc="http://creativecommons.org/ns#" xmlns:dc="http://purl.org/dc/elements/1.1/" xmlns:rdf="http://www.w3.org/1999/02/22-rdf-syntax-ns#"
	 xmlns="http://www.w3.org/2000/svg" xmlns:xlink="http://www.w3.org/1999/xlink" x="0px" y="0px" width="143.447px"
	 height="71.281px" viewBox="0 0 143.447 71.281" enable-background="new 0 0 143.447 71.281" xml:space="preserve">
<rect id="rect628" x="0" fill="#FFCC00" width="143.157" height="71.277"/>
<rect id="rect626" x="59.625" y="6.339" fill="#FF6600" width="30.011" height="59.875"/>
<rect id="rect625" x="30.08" y="6.339" fill="#006600" width="29.571" height="59.885"/>
<rect id="rect627" x="59.739" y="25.479" fill="#991B33" width="54.632" height="40.81"/>
<path fill="#FFCC00" stroke="#991B33" stroke-width="0.1485" stroke-linecap="round" stroke-linejoin="round" d="M81.252,44.37
	l0.806,0.021c0,0-0.908,0.764-0.702,1.797c0.95-1.404,1.302-1.137,1.302-1.137c-0.288,0.311-0.848,0.744-0.412,1.693
	c0.372-0.971,1.136-1.715,1.136-1.715s-0.206,1.074,0.248,2.066c0.33-0.992,0.889-1.838,0.889-1.838s-0.083,1.072,0.394,1.467
	c0.37-0.332,0.618-1.178,0.618-1.178s0.703,1.238,1.138,1.424c0.351-0.848,0.351-1.508,0.351-1.508s1.446,1.033,2.604,0.434
	c-1.033-0.371-1.385-1.238-1.385-1.238s1.881,0.826,2.687,0.455c-0.785-0.6-2.624-1.488-2.624-1.488s1.363,0.496,1.756,0.371
	c-0.186-0.268-0.785-0.598-0.785-0.598 M92.536,34.291c2.49-0.227,6.339,1.809,8.379,3.167c0-0.451,0-0.902,0.45-1.131
	c0.453-0.227,1.135,0.229,0.907,0.904c-0.681,1.582-3.397-0.227-4.302-0.678l0.453,0.904c-1.359-0.229-1.586-0.453-2.491-1.584
	c-0.227,0.905-0.227,1.131-1.359,1.131c0.427-0.672,0.568-0.897,0-1.583l-0.227,1.354l-1.132-1.582v1.582
	c-0.228-0.223-1.133-0.904-1.586-0.904c-0.678-0.228-1.132,1.132-1.358,1.812c0.682-0.68,0.904-1.131,2.038-0.68
	c-0.614,0.578-0.436,1.273,0.228,1.809c0,0,0.117-0.941,0.189-1.156c0.36,0.27,1.124,1.283,2.074,1.383
	c0.68,0,1.36-0.227,2.038-0.451c2.263-0.227,7.245,0.225,6.114,3.617c-0.228,0.682-0.453,1.133-0.906,1.584
	c3.171,1.133,0.453,5.203-0.229,7.238c-0.453,1.811-0.138,3.25,2.096,3.018c-0.451,0.904-1.188,1.055-2.096,1.055
	c0,0,0.114,0.545,0.696,0.801c-0.968,0.867,0.336,2.168-0.242,2.818c-0.975,0.468-2.265-0.227-2.265-0.227l-0.063,0.643
	c0,0-1.711-0.119-1.747-0.191c0,0,0.486-0.91,0.451-0.93c-0.453,0.68-0.886,1.076-1.811,0.93c0,0,0.072-0.426,0.577-0.965
	c-0.688,0.684-0.762,0.984-1.482,0.965c0-1.131,0.678-2.486,2.038-2.035c0.227,0,0.939,0.563,1.275,0.199
	c0.271-0.389,0.11-1.709,0.11-2.162c0.144-2-0.257-1.881-1.387-3.012c-0.906-0.678-1.569-1.717-2.7-1.943
	c-1.133-0.229-2.962,1.039-3.869,1.49c-2.264,1.357-4.302,2.262-6.793,2.715c0,0,0.049-0.115,0.049-0.342
	c0-0.152,2.445-2.057,2.873-5.396c-0.669,3.299-3.047,5.039-3.137,5.652c-0.089,0.613-0.574,1.658-0.634,1.729
	c0.295-0.178,1.237-0.641,2.433-0.738c-0.258,1.418-1.584,1.133-1.811,1.811c0,0.68,0.906,1.584,0,2.035h-3.623
	c0,0,0.558-0.771,0.584-0.984c-0.487,0.297-0.797,1.072-1.864,0.992c0.039-0.291,0.55-0.748,0.464-0.928
	c-0.609,0.566-0.896,1.043-1.677,0.92c0.227-0.678,0.227-1.582,1.134-1.582c0.681-0.227,1.359,0.227,1.812-0.453
	c0.907-1.131-0.165-3.605-0.391-4.965c0-1.131,0.004-1.346-0.288-2.725l0.228,4.07c-0.906-0.68-1.813-1.131-2.493-2.035
	c-1.584-2.035-1.131-4.297,0.907-5.656c0.906-0.678,1.396-1.031,2.528-1.482c-0.227-0.68,0.322-1.18-0.479-1.391
	c-0.24,0.42-0.476,0.877-0.934,0.838l0.243-1.131c0,0-0.814,0.051-0.653,1.51c-0.938-0.451-0.479-1.51-0.479-1.51h-0.454
	c0,0-0.002,1.346-0.739,1.619c0.198-0.633,0.286-1.619,0.286-1.619s-1.213,1.447-1.917,0.977c0.414-0.469,0.736-0.545,0.681-1.111
	c-0.056-0.564-0.348-1.293-0.4-1.408c0.257,0.125,1.966,0.635,3.037,0.104c-0.071,0.354-0.039,0.764-0.039,0.764
	c1.131-0.227,1.357-0.227,2.491,0.225c-0.228-1.582-1.134-1.809-2.038-2.939v0.904c-0.906-0.225-1.133-0.451-1.587-1.355
	l-0.678,0.451c-1.194-0.705-2.076-2.377-0.382-2.279c1.013,0.127,0.154,0.924,0.154,0.924s2.594-0.816,3.623-0.906
	c0,0-0.3-0.633-1.256-0.741c0.793-0.597,1.591-0.789,2.162,0.467c0.568,0.029,1.1-0.655,0.762-1.543
	c0.841-0.014,1.256,0.52,1.639,1.08c0.313,0.057,0.628-0.273,0.554-1.396c0.794,0.678,1.184,0.887,1.235,1.458
	c0.676,0.15,1.134-0.003,2.15-0.456c-0.225,0.907-0.225,1.131-1.131,1.584c0.64,0.791,0.707,1.744,0.571,2.09
	c-0.222-0.063-0.275-0.078-0.435-0.121c0.05,0.35,0.12,1.311,0.089,1.875h-0.453l0.681,2.037l-0.453,0.68
	c1.585-0.68,3.171-0.453,4.756-0.904c1.811-0.227,3.624-0.906,5.662-0.906c1.356,0,1.356,0.68,3.171,0.68v-1.131
	c0-0.904-0.681-1.809-1.813-2.035c-0.679,0-1.811,0.451-2.489,0.678c-0.905,0.227-2.266,0.227-3.172,0.227
	c-2.942-0.453-2.474-0.738-3.5-1.289c-0.614,0.164-0.959,0.686-1.266,1.605c-0.569-0.834-0.44-1.9,0.236-2.352
	C88.461,35.874,90.271,34.743,92.536,34.291L92.536,34.291z M93.216,54.651c-0.453-0.682-2.04-1.813-1.586-2.943
	c0.68-1.131,4.531-2.939,5.209-0.449c0.227,0.678-0.473,2.477-0.699,3.154c0.343-0.088,0.725-0.613,1.841-0.424
	c-0.208,0.891-1.564,1.574-1.564,1.574c0.138,0.602-0.936,3.383-0.936,3.383h-2.943l0.452-0.904l-0.68,0.904h-1.134l0.907-1.131
	c0,0-1.072,1.256-1.986,1.205c0.227-1.809,1.306-2.109,2.893-1.43C93.216,56.686,93.667,55.555,93.216,54.651z M81.089,37.616
	c-0.307,0.188-0.057,1.432,0.413,1.219C82.087,38.571,81.321,37.473,81.089,37.616z M81.377,37.223
	c0.558,0.393,1.445,1.445,2.541,1.385c-0.826-0.682-0.661-1.178-0.661-1.178c0.434,0.516,1.88,0.99,2.354,0.785
	c-0.559-0.414-0.661-0.455-0.784-0.848c0.66,0.082,1.486,0.227,2.147-0.063 M82.45,44.122l0.063-0.949c0,0,0.619,1.445,1.073,1.467
	c-0.289-1.055-0.165-1.9-0.165-1.9 M83.897,42.965c0,0,1.239,2.271,1.839,1.9c-0.908-0.805-0.806-1.857-0.806-1.857
	s0.413,1.402,1.632,1.838c0.083-0.785-0.476-2.066-0.476-2.066s1.013,1.777,1.528,1.818c0.33-0.412,0.206-0.848,0.206-0.848
	 M82.927,41.397l0.909,1.156l0.145-1.549c0,0,0.89,0.701,1.054,0.682c0.165-0.021-0.247-1.652-0.247-1.652s1.197,1.816,1.28,1.775
	s0.124-1.797,0.124-1.797s0.909,2.5,1.22,2.479c0.31-0.02,0.228-0.35,0.228-0.35 M82.245,39.372c0,0,1.403,1.279,1.549,1.197
	c0.145-0.082-0.578-1.488-0.578-1.488s0.806,0.766,1.116,0.828c0.31,0.063,0.103-0.992,0.103-0.992s0.95,0.807,1.116,0.766
	c0.165-0.043,0.082-0.766,0.082-0.766s0.62,0.619,0.661,0.619S86.17,37.76,86.17,37.76s1.385,1.467,1.486,1.445 M76.626,39.827
	c0.062,0.104,0.292,1.93,3.122,1.188c0.269-0.146,0.149,0.51,0.139,0.701c0.124-0.021,1.473-0.502,2.402,0.18
	c-0.109-0.754-0.313-1.262-1.118-1.695c-0.394-0.084-0.68,0.117-0.68,0.117S77.08,40.342,76.626,39.827z M75.082,51.458
	c-0.047,0.213-0.195,0.271-0.618,0.885c0.188,0.258,1.053,0.662,1.288,0.449c0.211-0.117,0.227-0.678,0.227-0.678
	c0.453,0.678,1.251,1.746,2.157,1.975c0.678,0.227,1.357-0.229,1.357-0.904c0-0.678-1.023-1.773-1.476-2.225
	c-1.134-1.357-1.033-3.922-3.176-3.564c-0.012,0.02-0.098,0.311-0.303,0.363c0.172,0.33,0.269,0.607-0.144,0.711
	c0.319,0.314,0.37,0.543-0.042,0.701c0.25,0.334,0.541,0.457-0.032,0.742C74.923,50.497,75.052,51.358,75.082,51.458 M74.524,32.288
	c-0.682,0.985-0.752,11.839-0.54,14.025c-0.682,0.447-1.95,0.258-2.303,0.117C71.846,45.655,72.433,33.063,74.524,32.288
	L74.524,32.288z M72.597,54.534c0,0-3.007,0.424-1.739-1.361c1.081-0.471,1.058,0.635,0.658,1.01
	c0.494,0.057,0.822-0.266,0.893-0.75c-0.609-0.822,0.26-1.363,0.213-1.363c-2.092,0.469-2.373-0.963-1.599-1.197
	c0.979,0.055,0.666,0.367,1.059,0.656c0.704-0.648,1.127-0.713,1.55-0.047c0.423-0.656,1.034-0.586,1.058-0.516
	c0.682,1.148-0.821,1.221-1.433,1.078c0.517,0.564,0.305,1.105,0.141,1.506c0.017,0.391,0.313,0.453,0.799,0.609
	c-1.033-2.852,3.642,0.76-1.058,0.398c0.008,0.127,0.016,0.252,0.023,0.377c0.384,0.068,0.649,0.164,0.774,0.563
	c-0.164,0.221-0.423,0.25-0.822,0.096c0,0,0.235,0.656-0.188,0.846c-0.354-0.213-0.399-0.73-0.399-0.73
	c-0.195,0.244-0.484,0.086-0.729-0.115C72.018,55.051,72.636,55.309,72.597,54.534L72.597,54.534z M70.013,45.844
	c0.18-0.814,2.075-0.713,1.174,0.164c0.604,0.963,2.451,0.82,3.148,0.281c-0.588-1.119,1.011-0.877,0.938-0.023
	C75.08,47.778,69.809,47.575,70.013,45.844z M107.62,60.259c0.563,1.057,1.566,3.559,2.122,4.156
	c0.521,0.467,1.814,0.41,2.215-0.115c0,0,0.829,0.854,1.165,1.113c0.198-0.068,0.32-0.26,0.32-0.26
	c-0.337-0.367-0.798-0.572-1.023-1.252c0.338-0.451,0.523-1.33,0.298-2.01C111.725,60.234,108.429,60.89,107.62,60.259z
	 M66.487,31.438c-0.563-1.057-1.565-3.558-2.122-4.157c-0.521-0.466-1.815-0.41-2.215,0.116c0,0-0.83-0.854-1.165-1.113
	c-0.198,0.068-0.321,0.259-0.321,0.259c0.338,0.367,0.798,0.573,1.023,1.253c-0.338,0.451-0.522,1.328-0.297,2.007
	C62.382,31.463,65.678,30.807,66.487,31.438z M66.151,60.099c-1.056,0.563-3.559,1.564-4.156,2.121
	c-0.466,0.52-0.41,1.814,0.115,2.215c0,0-0.854,0.83-1.112,1.164c0.067,0.199,0.259,0.322,0.259,0.322
	c0.367-0.338,0.573-0.799,1.253-1.023c0.451,0.336,1.328,0.523,2.008,0.297C66.176,64.203,65.521,60.908,66.151,60.099z
	 M107.707,31.438c0.563-1.057,1.565-3.56,2.121-4.158c0.521-0.465,1.815-0.41,2.215,0.115c0,0,0.83-0.854,1.165-1.112
	c0.198,0.067,0.321,0.258,0.321,0.258c-0.338,0.367-0.798,0.574-1.023,1.253c0.337,0.451,0.522,1.329,0.297,2.007
	C111.811,31.463,108.515,30.807,107.707,31.438z M70.861,47.7c-0.044,0.346,0.777,0.494,1.618,0.498
	c0.843,0.004,1.705-0.137,1.744-0.375c0.011-0.428-0.735-0.064-1.584-0.072C71.791,47.745,71.083,47.411,70.861,47.7z
	 M70.929,48.655c0.011,0.322,0.827,0.398,1.548,0.422c0.721,0.021,1.448-0.123,1.581-0.355c-0.128-0.365-0.93-0.061-1.582-0.043
	C71.825,48.694,71.1,48.354,70.929,48.655L70.929,48.655z M71.163,49.508c-0.057,0.244,0.662,0.42,1.324,0.424
	s1.601-0.252,1.605-0.512c-0.039-0.205-0.966,0.07-1.589,0.092S71.163,49.286,71.163,49.508z M71.084,50.387
	c0.055,0.236,0.872,0.316,1.588,0.264c0.717-0.055,1.446-0.275,1.508-0.531c-0.033-0.16-0.857,0.125-1.54,0.16
	S71.072,50.198,71.084,50.387z"/>
</svg>
