<?xml version="1.0" encoding="utf-8"?>
<!-- Generator: Adobe Illustrator 16.0.0, SVG Export Plug-In . SVG Version: 6.00 Build 0)  -->
<!DOCTYPE svg PUBLIC "-//W3C//DTD SVG 1.1//EN" "http://www.w3.org/Graphics/SVG/1.1/DTD/svg11.dtd">
<svg version="1.1" id="Layer_1" xmlns="http://www.w3.org/2000/svg" xmlns:xlink="http://www.w3.org/1999/xlink" x="0px" y="0px"
	 width="25.875px" height="16.75px" viewBox="2.562 7.063 25.875 16.75" enable-background="new 2.562 7.063 25.875 16.75"
	 xml:space="preserve">
<path d="M24.346,13.904c0.018-0.195,0.029-0.393,0.029-0.592c0-3.451-2.798-6.25-6.25-6.25c-2.68,0-4.958,1.689-5.847,4.059
	c-0.589-0.646-1.429-1.06-2.372-1.06c-1.778,0-3.219,1.441-3.219,3.22c0,0.21,0.023,0.415,0.062,0.612
	c-2.372,0.392-4.187,2.437-4.187,4.918c0,2.763,2.239,5,5,5h15.875c2.762,0,5-2.237,5-5C28.438,16.361,26.672,14.332,24.346,13.904z
	"/>
</svg>
