<?xml version="1.0" encoding="utf-8"?>
<!-- Generator: Adobe Illustrator 16.0.0, SVG Export Plug-In . SVG Version: 6.00 Build 0)  -->
<!DOCTYPE svg PUBLIC "-//W3C//DTD SVG 1.1//EN" "http://www.w3.org/Graphics/SVG/1.1/DTD/svg11.dtd">
<svg version="1.1" id="Layer_1" xmlns="http://www.w3.org/2000/svg" xmlns:xlink="http://www.w3.org/1999/xlink" x="0px" y="0px"
	 width="100px" height="100px" viewBox="0 0 100 100" enable-background="new 0 0 100 100" xml:space="preserve">
<g>
	<path fill="#010101" d="M62.672,8.263c0.221-0.317,0.734-0.341,0.732-0.879C62.876,7.302,62.291,7.919,62.672,8.263z"/>
	<path fill="#010101" d="M34.753,47.924c-0.081,0.018-0.16,0.042-0.233,0.074C34.626,47.995,34.701,47.966,34.753,47.924z"/>
	<path fill="#010101" d="M94.343,2.984c-1.043-0.325-2.167-0.57-3.077-1.026c0.778-0.638,2.479-0.354,2.784-1.467
		c-1.501-0.215-3.146,0.657-4.839,0.733c-1.063,0.873-2.369,1.371-3.665,1.907c-1.62,0.668-3.274,1.572-4.692,2.345
		c-0.703,0.384-1.185,0.542-1.905,0.88c-0.335,0.158-0.558,0.44-0.88,0.586c-0.34,0.153-0.719,0.155-1.026,0.293
		c-0.498,0.224-1.181,0.684-1.612,0.879c-0.05,0.021-0.089,0.258-0.146,0.293C75,8.578,74.505,8.66,74.257,8.848
		c-0.198,0.148-0.446,0.456-0.588,0.586c-0.254,0.235-0.42,0.377-0.731,0.587c-1.016,0.681-2.261,1.124-3.227,1.759
		c-0.234,0.155-0.375,0.444-0.587,0.586c-0.127,0.086-0.329,0.082-0.438,0.146c-0.959,0.569-2.527,0.252-3.666,0.587
		c-0.059,0.017-0.349,0.24-0.439,0.293c-0.227,0.131-0.403,0.194-0.587,0.293c-0.282,0.154-0.851,0.029-1.146-0.01
		c-0.349-0.045-0.938-0.292-1.268-0.076c-0.27,0.175-0.303,0.58-0.366,0.863c-0.187,0.816-0.575,1.161-1.313,1.497
		c-0.157,0.072-0.328,0.137-0.482,0.22c-0.082,0.045-0.184,0.091-0.232,0.174c-0.037,0.057-0.021,0.166-0.052,0.208
		c-0.047,0.063-0.124,0.095-0.271,0.058c-0.118-0.615-0.516-0.951-0.586-1.613c0.772,0.298,0.191-0.37,0.438-0.879
		c-0.021,0.038,0.331-0.098,0.356-0.114c0.126-0.086,0.199-0.173,0.363-0.189c-0.074-0.211,0.008-0.589,0.09-0.789
		c0.053-0.126,0.127-0.239,0.213-0.347c0.056-0.07,0.285-0.241,0.297-0.321c0.105-0.786,0.424-1.409,0.587-1.906
		c0.062-0.187-0.065-0.598,0.293-0.586c0.336-0.039,0.479-0.051,0.508-0.056c0.091-0.021-0.845,0.005-0.653-0.53
		c0.828-0.302,0.729,0.812,1.172,0.44c0.123-0.17,0.193-0.393,0.146-0.733c0.305,0.128,0.557-0.483,0.294-0.439
		c-0.387,0.344,0.111-0.868-0.147-0.88c0-0.391,0.465-0.318,0.44-0.733c-0.341-0.389-0.393,0.389-0.733,0
		c-0.023-0.464,0.391-0.49,0.293-1.026c-0.703-0.226-0.844-1.012-1.318-1.466c0.253,0.008,0.376-0.114,0.439-0.294
		c-0.352-0.465-0.873,0.592-1.319,0c0.235-0.165,1.092-0.458,0.587-0.879c-0.43,0.281-0.639,0.685-1.027,0.879
		c-0.131,0.066-0.312-0.25-0.586-0.146c-0.119,0.045-0.063,0.744-0.439,0.44c-0.424-0.115-0.539-0.536-0.879-0.734
		c-0.527,0.021-1.346,0.01-1.906-0.146c-0.24-0.067-0.327-0.273-0.586-0.293c-0.211-0.018-0.445,0.125-0.734,0.147
		c-1.25,0.09-1.684,0.199-2.346,0.586c-0.252,0.147-0.389,0.561-0.732,0.293c-0.044,0.288,0.198,0.29,0.295,0.44
		c-1.051,0.807-1.723,1.993-1.761,3.813c-0.388,0.736-1.323,0.925-1.466,1.905c0.124,0.464,0.756,0.418,0.88,0.88
		c0,0.968-0.473,2.939,0.293,3.373c0.765,0.433,3.215-0.475,3.666,0.879c0.317,0.955-0.146,2.364-0.146,3.666
		c-0.358,0.342-0.828,0.425-1.174,0.733c-0.535,0.477-0.606,1.058-1.32,1.32c-0.229,0.084-0.356-0.154-0.585-0.147
		c-0.53,0.02-1.228,0.361-1.76,0.44c-0.714-1.107-2.544-0.939-3.666-0.586c-1.965,0.617-3.362,1.647-4.252,3.079
		c-0.328,0.528-0.599,1.133-0.732,1.76c-1.991,0.899-4.241,0.966-6.012,1.76c-0.518,0.231-1.074,0.557-1.466,0.732
		c-0.051,0.023-0.087,0.259-0.146,0.294c-0.56,0.327-1.161,0.546-1.76,0.879c-1.22,0.679-2.352,1.25-3.519,1.76
		c-0.276,0.121-0.541,0.291-0.879,0.44c-0.332,0.146-0.759,0.12-1.026,0.293c-0.237,0.153-0.613,0.611-0.88,0.88
		c-0.662,0.669-1.077,1.272-1.613,1.906c-0.747,0.882-1.662,1.375-2.64,1.906c-0.09,0.472,0.527,0.202,0.146,0.587
		c-0.669,0.552-1.597,0.846-2.199,1.466c0.78,0.431,1.636-0.18,2.199-0.439c-0.045,0.689-1.122,0.96-0.733,1.613
		c0.741-0.094,1.115-1.324,1.613-1.174c-0.129,0.946-0.508,1.643-0.587,2.64c1.016-0.034,1.099-1.471,1.32-2.2
		c0.017-0.055,0.272-0.215,0.293-0.293c0.112-0.406-0.017-0.89,0.146-1.173c0.395-0.682,1.109-1.109,1.76-1.026
		c-0.21,0.704-0.495,2.001-0.146,2.786c1.326-0.186,0.775-1.574,1.026-2.492c0.077-0.284,0.388-0.693,0.586-1.173
		c0.145-0.353,0.239-1.063,0.44-1.32c0.358-0.458,1.288-0.771,1.906-0.88c0.286-0.05,0.563-0.078,0.88-0.146
		c0.776-0.166,1.725-0.452,2.199-0.586c0.282-0.08,0.552-0.058,0.879-0.147c1.669-0.453,3.55-1.159,4.985-1.613
		c0.134-0.042,0.306,0.042,0.44,0c0.054-0.016,0.219-0.263,0.293-0.293c0.236-0.094,0.53-0.05,0.733-0.146
		c0.222-0.106,0.358-0.354,0.586-0.439c1.033-0.384,2.126-0.373,2.933-0.733c0.528,0.401,0.907,0.951,1.76,1.027
		c0.489,0,0.5-0.478,1.026-0.44c0.59,0.276,1.037,0.718,1.32,1.32c0.215,0.455,0.098,1.067,0.293,1.466
		c0.133,0.271,0.42,0.455,0.734,0.732c0.956,0.849,1.718,0.943,3.225,1.319c-0.221,1.264,0.158,2.771-0.293,4.252
		c-0.75,0.322-1.804,0.73-2.346,0.587c-0.115-0.03-0.206,0.123-0.293,0.147c-1.192,0.332-2.197,0.812-3.225,0.879
		c-0.375,0.359-0.636,0.831-1.466,0.733c-0.619,0.536-1.133,1.107-1.907,1.466c-0.293,0.137-0.736,0.149-1.026,0.293
		c-0.643,0.319-1.107,1.026-1.907,1.026c-0.204,0.09-0.021,0.565-0.293,0.587c-0.017-0.179-0.044-0.348-0.293-0.293
		c-0.397,0.141-0.041,0.86-0.293,0.586c-0.343,0.195-0.42,0.655-0.586,1.026c-0.491,0.358-0.769,0.385-1.026,0.88
		c-0.054,0.104,0.18,0.613-0.061,0.806c0.53-0.116,1.185,0.075,1.233,0.661c0.026,0.515-0.496,0.482-0.586,0.88
		c-0.026,0.462-0.104,0.874-0.587,0.879c0.075-0.543,0.25-0.369-0.293-0.293c-0.409,0.286,0.212,0.187,0.293,0.439
		c0.119,0.372-0.087,0.802,0,1.32c-2.822,2.021-6.9,3.158-10.264,4.398c-0.899,0.331-1.98,0.768-2.64,1.026
		c-0.592,0.231-1.215,0.327-1.759,0.438c-1.357,0.28-2.53,0.299-3.958,0.439c-2.16,0.214-4.278,1.271-5.719,2.199
		C9.841,60.729,9.24,61.197,8.72,61.49c-1.145,0.646-2.303,0.96-3.079,1.906c0.214,0.002,0,0.112,0,0.146
		c-0.022,0.726,0.435,1.556,1.027,1.906c1.816,0.101,3.335-0.571,4.545-0.882c0.621-0.157,1.228-0.377,1.906-0.293
		c0.395,0.051,0.803,0.399,1.173,0.588c0.242,0.123,0.337,0.146,0.586,0.294c1.32,0.784,2.154-0.642,2.346-1.761
		c0.926-0.373,0.775-1.189,1.613-1.467c0.305-0.1,0.712,0.145,1.026,0.146c0.768,0.008,1.422-0.24,2.053-0.293
		c2.142-0.182,4.101-0.256,5.865-0.44c1.116-0.116,2.395-0.229,3.08-0.438c1.061-0.322,2.222-0.854,3.08-1.319
		c1.086-0.591,1.984-1.46,3.079-2.053c0.771-0.419,1.584-0.767,2.347-1.173c2.574-1.375,5.236-1.563,8.797-2.053
		c0.083,3.396,1.682,6.459,2.2,9.969c0.132,0.9,0.232,1.808,0.439,2.641c0.602,2.402,1.733,4.695,2.055,7.186
		c0.222,1.731,0.344,3.521,0.586,5.277c0.238,1.744,0.613,3.509,0.731,5.279c0.144,2.129-0.268,4.686-0.146,6.449
		c0.021,0.338,0.234,0.746,0.293,1.176c0.152,1.15,0.115,1.978,0.439,2.639c0.295,0.602,0.707,1.205,0.732,1.906
		c0.268,0.229,0.563,1.172,0.55,1.172c-0.285,1.357,1.392,1.888,2.384,1.32c0.934-0.4,0.531-1.65,0.563-2.646
		c-0.104-1.033-0.492-1.98-0.271-2.925c0.01-0.038,0.264-0.233,0.293-0.294c0.32-0.625,0.287-0.613,0.733-1.026
		c-0.041,0.038-0.031-0.28,0.147-0.438c0.146-0.063,0.426-0.219,0.438-0.293c0.001-0.006,0.277-0.127,0.294-0.147
		c0.353-0.432,0.849-0.819,0.733-1.466c0.062-0.405-0.547-0.139-0.588-0.439c0.188-0.191,0.188-0.541,0-0.733
		c-0.563-0.265-0.896-0.699-1.611-0.439c0.086-0.37-0.336-0.544-0.44-0.731c-0.11-0.199-0.274-0.566-0.293-0.733
		c0.003,0.021,0.287-0.136,0.293-0.147c0.066-0.131-0.014-0.434,0-0.586c0.188-2.107,0.159-4.157,0.294-6.157
		c0.1-1.472,0.557-2.645,0.586-3.813c0.014-0.549-0.207-1.207-0.293-1.76c-0.246-1.593-0.515-2.604-0.88-3.813
		c-0.379-1.248-0.649-2.248-0.88-3.664c-0.096-0.596-0.259-1.291-0.293-1.906c-0.15-2.666,0.754-5.389,0.732-8.065
		c-0.008-0.899-0.258-1.846-0.146-2.784c0.063-0.533,0.418-0.891,0.293-1.468c1.143-0.698,2.316-1.696,3.227-2.493
		c0.154-0.136,0.529-0.23,0.586-0.293c0.053-0.058,0.123-0.401,0.146-0.44c0.26-0.428,0.574-0.907,0.881-1.173
		c0.225-0.196,0.793-0.252,0.879-0.439c-0.014,0.031-0.22-0.144,0-0.146c0.81,0.023,1.344,0.317,2.053,0.439
		c0.236-0.589-1.063-0.387-0.586-0.733c0.351,0.228,0.935,0.016,1.613,0.147c0.471,0.09,1.575,0.863,1.612,0.293
		c-0.114-0.033-0.29-0.004-0.293-0.146c0.53,0.006,0.472,0.604,0.879,0.733c0.601,0.144,0.593-0.016,1.32,0
		c0.418,0.364,0.89,0.675,1.317,1.026c0.477,0.182,0.113-0.474,0.588-0.293c0.699,0.188,1.711,0.246,2.639,0.293
		c0.242-0.002,0.083-0.407,0.295-0.439c0.705,0.251,1.051-0.002,1.759,0.293c-0.147-0.441,0.327-0.26,0.587-0.293
		c-0.105-0.38,0.305-0.545,0.439-0.734c0.188-0.263,0.224-0.647,0.586-0.732c0.13-0.472-0.482-0.201-0.438-0.587
		c0.254-0.135,0.321-0.458,0.293-0.88c-0.205-0.341-1.346-0.503-1.027-0.879c0.144,0.236,0.392,0.337,0.586,0.146
		c0.037,0.141,0.154,0.258,0.294,0.293c0.604,0.151-0.813-0.498,0-0.293c0.448-0.105,0.433,0.252,0.879,0.146
		c-0.175-0.387,0.706-0.377,0-0.44c-0.322-0.424,0.187,0.225-0.146,0.147c-1.334-0.505-2.236-1.33-3.52-1.906
		c-0.121-0.054-0.313,0.039-0.439,0c-0.055-0.017-0.222-0.264-0.293-0.293c-0.314-0.129-0.604-0.16-0.88-0.293
		c-1.052-0.509-1.905-1.208-2.786-1.759c-0.467-0.292-0.986-0.472-1.467-0.733c-0.055-0.03-0.09-0.25-0.146-0.293
		c-0.096-0.072-0.354-0.106-0.439-0.146c-1.332-0.648-2.529-0.987-4.104-1.174c-0.063-0.23-0.463-0.125-0.295-0.586
		c-1.17,0.237-2.262,0.099-3.226-0.44c0.22-0.589-0.444-1.352,0.146-1.759c-0.088-0.252-0.695,0.011-0.732-0.293
		c0.33-0.837-0.299-1.495-0.293-2.347c0.001-0.301,0.219-0.74,0.293-1.173c0.072-0.42,0.047-0.949,0.146-1.32
		c0.015-0.055,0.252-0.175,0.293-0.292c0.07-0.203-0.088-0.554,0.146-0.586c0.193,0.002,0.133,0.257,0.293,0.293
		c-0.313-0.537-0.199-0.682,0.146-1.173c0.201,0.464,0.031,0.49,0,1.026c0.763-0.362,1.363-0.885,1.611-1.76
		c0.346,0.145,0.721,0.257,1.174,0.294c0.775-0.194,1.065-0.286,1.613-0.587c0.669-0.368,2.008-1.358,2.199-1.906
		c0.342-0.979,0.525-2.179,1.318-2.933c0.371-0.442,0.656-0.059,1.175-0.293c0.937-1.836,1.526-4.952,0.88-7.478
		c1.09-0.904,2.107-2.07,3.372-2.933c1.707-1.167,3.959-2.124,5.718-3.226c0.954-0.598,2.145-1.529,2.934-2.052
		c0.278-0.186,0.537-0.291,0.732-0.44c0.68-0.519,0.91-1.069,1.611-1.32c0.293-0.104,0.761,0.05,1.027,0
		c0.215-0.04,0.443-0.195,0.732-0.293c0.947-0.322,1.632-0.818,2.492-1.026c0.727-0.176,1.798,0.035,2.492-0.146
		c0.242-0.063,0.465-0.262,0.733-0.44C93.938,3.451,94.484,3.402,94.343,2.984z"/>
</g>
</svg>
