<?xml version="1.0" encoding="utf-8"?>
<!-- Generator: Adobe Illustrator 16.0.0, SVG Export Plug-In . SVG Version: 6.00 Build 0)  -->
<!DOCTYPE svg PUBLIC "-//W3C//DTD SVG 1.1//EN" "http://www.w3.org/Graphics/SVG/1.1/DTD/svg11.dtd">
<svg version="1.1" id="Layer_1" xmlns="http://www.w3.org/2000/svg" xmlns:xlink="http://www.w3.org/1999/xlink" x="0px" y="0px"
	 width="100px" height="100px" viewBox="0 0 100 100" enable-background="new 0 0 100 100" xml:space="preserve">
<path fill="#FFFFFF" stroke="#000000" stroke-width="0.576" stroke-miterlimit="2.6131" d="M39.601,30.23
	c0.388-0.493-4.965-1.197-8.803-4.26c-1.69-1.338-4.225-1.725-5.458-0.81c-1.197,0.915-4.084,2.958-4.084,2.958l1.303,2.922
	c0,0,2.923-1.972,3.275-2.148c0.387-0.176,1.655-0.247,2.324,0.07c0.669,0.317,6.443,4.648,6.972,5.317
	c0.563,0.669,0.985,0.845,1.232,0.845c0.247,0,1.338-0.669,1.514-0.422C37.875,34.702,38.122,32.097,39.601,30.23L39.601,30.23z
	 M38.615,31.568c-0.986,0.317-1.162,1.444-1.62,2.253c-0.247,0.388-0.775,0.353-1.127,0c-0.035-0.035-0.176-0.035-0.247,0
	c-0.211,0.141-0.352,0.493-0.528,0.493c-0.176,0-0.458-0.317-0.669-0.458c-0.176-0.105,0,0-0.492-0.352
	c0.316-0.528,0.704-0.986,0.88-1.62c0.211-0.81-0.247-1.584,0.247-2.324c0.563-0.774,1.549-0.634,2.324-0.211
	c0.105,0.035,0.247,0,0.352,0c-0.422-0.071-0.845,0.105-1.197,0.281c-0.493,0.176-0.563,0.669-0.634,1.127
	c-0.07,0.669,0.423,1.549-0.141,2.078c0.387-0.071,0.739,0.211,1.126,0c0.88-0.528,0.669-1.092,1.021-1.866
	c0.176-0.317,0.916,0,1.338-0.035C39.108,31.181,38.826,31.498,38.615,31.568L38.615,31.568z M34.565,28.188
	c-0.88,0.387-1.197,1.373-1.444,2.218c-0.176,0.739-0.035,1.514-0.141,2.253c-0.106-0.036-0.106-0.211-0.141-0.211
	c-0.316-0.106-0.387-0.493-0.739-0.528c-0.071-1.268,0.141-2.535,0.774-3.627c0.141-0.211,0.423-0.458,0.705-0.422
	C33.896,27.941,34.213,28.118,34.565,28.188L34.565,28.188z M28.086,28.998c0-0.105,0.036-0.211-0.035-0.317
	c-0.211-0.352-0.528-0.634-0.739-0.986c-0.246-0.493-0.387-1.056-0.669-1.549c-0.141-0.247-0.423-0.141-0.634,0
	c-0.141,0.105-0.176,0.317-0.07,0.458c0.422,0.458,0.739,1.056,0.704,1.655c-0.035,0.141-0.211,0.282-0.387,0.352
	c-0.211,0.105-0.317-0.105-0.422-0.176c-0.387-0.493-0.634-1.057-0.846-1.62c-0.105-0.282-0.422-0.669-0.633-0.458
	c-0.317,0.317,0.493,1.091-0.035,1.232c-0.317,0.07-0.739-0.211-1.021,0.105c0.282,0.211,0.599,0.247,0.845,0.458
	c0.106,0.07,0.247,0.246,0.071,0.246c-0.88,0.036-1.761,0.106-2.536,0.563c-0.07,0-0.105,0.141-0.07,0.211
	c0.282,0.599,0.528,1.197,0.81,1.831c0,0.035,0.105,0.105,0.141,0.07c0.211-0.247,0.423-0.458,0.705-0.599
	c0.387-0.176,0.774-0.387,1.126-0.669c0.422-0.352,0.845-0.634,1.303-0.774c0.704-0.176,1.514-0.493,2.394-0.141
	C28.086,28.892,28.086,28.962,28.086,28.998L28.086,28.998z M36.361,86.497c0.141-0.528,0.352-1.62,0.422-2.113
	c0.035-0.491-0.176-1.126,0.352-1.407c0.563-0.316,0.388,0.492,0.634,0.492c0.247,0,0.493-0.141,0.493-0.141
	c0.07-0.212,1.937-1.689,1.584-1.409c0,0,5.246-5.175,7.641-6.056c0,0-0.247-3.662,0-5c0.247-1.338,0.986-2.219,1.69-2.43
	c0.739-0.246,1.62-0.635,3.451-2.57c0,0,2.253,6.654,7.677,12.078c0.633,0.634,1.479,5.633,1.372,7.357
	c-0.142,1.69,0,5.493-0.739,6.727c-0.738,1.197-0.738,1.092-0.738,1.092c-0.739,0.845-1.551-0.6-2.676,2.816
	c-0.248,0.739-1.232,2.569,0.845,2.569s3.415-0.634,4.401-1.231c0.985-0.599,1.092-1.973,0.598-2.43c0,0,0.494-0.142,0.389-0.492
	c-0.141-0.389-0.635-1.127-0.141-1.479c0.492-0.353,1.091-0.599,1.725,0.104l0.352-0.352c0,0-0.738-1.831-0.352-7.219
	c0.352-5.389,0.492-8.168,0.105-8.311c-0.354-0.104-2.922-3.169-2.816-4.4c0.141-1.232,1.232-4.401,1.865-5.493
	c0.599-1.093,1.197-4.894,0.458-6.865c0,0,3.204,2.958,4.647,5.388c1.479,2.465,1.654,3.31,1.832,4.895
	c0.141,0.984-0.951,4.753,1.971,6.831c2.924,2.077,1.69,0.774,1.973,1.231c0.6,1.092,0.704,1.231,0.704,1.973
	c0,0,1.937-2.605-0.246-4.789c-0.599-0.6,0-1.689,0-1.689s0.142,0.246,0-0.388c-0.104-0.599-0.599-1.831-1.937-2.923
	c-1.34-1.092-1.586-2.324-1.974-3.662c-0.353-1.338-3.099-6.443-5.845-9.436c-1.585-1.69-5.035-5.002-7.357-10
	c-2.324-5.035-1.093-10.317-0.494-12.465c0.246-0.88,2.219-4.295,3.205-5.774c0.95-1.444,1.338-2.078,1.338-2.078V26.85l0.598-0.599
	l-0.246-0.739l0.494-0.493V24.28l0.492-0.353l-0.106-0.88l0.493-0.74v-0.951l0.354-0.88l-0.354-0.845l0.354-0.599l-0.354-0.634
	l0.212-0.845l-0.353-0.74l0.246-0.985L64,15.371l0.105-0.88l-0.739-0.599v-0.74l-0.738-0.599l0.246-0.986l-0.845-0.493v-0.986
	l-0.846-0.493L61.042,8.75l-0.739-0.247L60.094,7.52h-0.881l-0.246-0.705l-0.738-0.141L57.77,6.076c0,0-0.985-0.247-3.063-0.247
	s-1.831,0.81-1.831,0.81s-5.282,2.465-6.232,3.345c-0.986,0.845-5.529,2.817-6.268,3.416c-0.704,0.599-1.584,0.739-1.338,2.218
	c0,0-0.598,1.444,0.493,2.289c0,0,0.634,1.232,1.584,1.127c0,0,0.634,2.042,2.078-0.387c0.387-0.599,3.556-0.353,4.155,0.141
	c0.634,0.493,1.619,1.091,0.493,2.183c-1.091,1.127-5.599,4.296-5.985,7.112c0,0-4.014,3.169-4.155,7.43c0,0-8.31,1.972-9.542,2.465
	c-1.197,0.493-2.923,0.493-2.923,5.634c0,5.105,0.986,10.74,0.986,10.74c0.106,1.479,1.092,4.895,1.092,4.895s3.416-0.6,3.31-3.311
	c-0.141-2.677-0.387-2.078-0.986-2.57c-0.599-0.457-0.493-0.95-0.493-0.95s-1.092-0.388-0.845-1.231c0.247-0.846,0.74-0.354,0.74,0
	c0,0,0.352-1.584-0.493-1.973c-0.88-0.352-0.387-3.909-0.141-5.353c0.246-1.479,1.972-1.972,3.556-1.972s4.507,0.599,6.479-0.104
	c1.584-0.599,1.831,1.584,1.831,2.183c0,0.599,0.985,2.078,1.338,3.063c0.387,0.986,1.726,6.232,5.281,10.387
	c0,0-0.669,0.316-1.866,0.811c-4.014,1.619-3.274,2.711-3.274,4.576c0,1.197-0.176,2.043,0.247,5.035
	c0.176,1.268,0.774,3.204,0.951,3.874c0.317,1.091,0.388,2.323-1.197,3.661c-2.465,2.078-5.634,4.297-6.127,4.895
	c-0.492,0.635-0.598,1.338-1.232,1.974c-0.352,0.351-0.985,0.563-1.338,0.598c-1.091,0.142-0.915,0.563-1.584,2.57
	c-0.353,1.092-0.845,2.712-0.845,2.712S35.622,89.208,36.361,86.497L36.361,86.497z M53.544,5.935c0,0-0.81-3.134-2.431-3.838
	c-1.125-0.493-0.95,0.247-0.809,0.669c0.176,0.528,0,2.078,1.373,4.331c0.423,0.74,1.197-0.246,1.197-0.457
	C52.875,6.393,52.805,5.688,53.544,5.935L53.544,5.935z M59.848,9.245l0.457-0.74L60.094,7.52h-0.881l-0.246-0.705l-0.738-0.141
	l-0.847-0.599c0,0-0.245,1.584-0.353,2.324c-0.141,0.705-0.881,0.705-0.881,0.705s-0.246,0.633-0.703,1.232
	c-0.493,0.634-1.373,0.634-2.077,0.634c-0.739,0-1.479,0.105-1.726,0.704c-0.246,0.634-1.584,0.493-2.571,0.388
	c-0.986-0.141-1.338-0.634-2.077-0.247c-0.74,0.352-3.31,1.338-4.895,1.69c-1.584,0.388,0.845,0.141,0.845,0.141
	s1.479-0.599,2.077-0.599c0.634,0,1.232-0.634,2.465-0.493c1.232,0.106,1.937,0.74,2.922,0.599c0.985-0.105,1.726-1.091,2.323-1.091
	c0.635,0,2.324,0.352,3.311,0c0.986-0.388,1.938-1.726,2.324-2.078C58.721,9.597,59.848,9.245,59.848,9.245L59.848,9.245z
	 M52.137,10.583c0,0-1.479-0.494-2.22-0.74c-0.599-0.211-1.197,1.127-2.429,1.585c0,0,1.338,0.141,2.324,0.493
	C50.727,12.272,51.995,11.322,52.137,10.583L52.137,10.583z M49.424,10.336c0,0,2.042,0.634-0.176,1.338
	C49.248,11.674,49.988,11.146,49.424,10.336L49.424,10.336z M51.467,10.97c0,0,0.105,0.951-2.219,0.704
	C49.248,11.674,50.833,11.639,51.467,10.97L51.467,10.97z M52.91,7.73l-2.993,2.112c0,0,1.444-0.176,1.55,0.071
	c0.246,0.563,0.352,0,0.67,0.07c0.28,0.07,0.598,0.176,0.844-0.176c0.248-0.387,0.213-0.282,0.317-0.493
	C53.368,9.174,52.91,7.73,52.91,7.73L52.91,7.73z M53.721,17.695c0.492-1.479,2.746-3.063,3.17-3.45
	c0.422-0.352,1.231-0.106,1.549-0.176c0.281-0.07,0.668-0.247,1.515-0.493c0.845-0.247,2.253,0.07,2.676,0.07
	c0.457,0,0.738-0.493,0.738-0.493l-0.738-0.599l0.246-0.986l-0.845-0.493l-0.071-0.352c0,0-0.95,0.705-1.515,0.705
	c-0.563,0-1.09,0.246-1.09,0.246s-0.07,0.634-0.812,0.634c-1.091,0-2.431,0.986-2.815,1.092c-0.354,0.105-0.847,0.247-1.269,0.317
	c-0.423,0.035-0.388-0.247-1.162-0.317c-0.812-0.07-1.831-0.07-2.5-0.07s-1.408,0.317-2.641,0.141
	c-1.232-0.176-2.253,0.106-2.429,0.247C45.517,13.823,44.249,14,44.249,14c0.774,0.211,2.852,1.831,3.31,2.148
	c0.422,0.316,0.774,0.493,0.774,0.81c0,0.282-0.422,0.845-0.845,0.774c-0.422-0.035-2.324-0.246-3.556,0
	c-1.232,0.247-1.585,1.902-1.585,1.902c0.493-0.317,1.057-1.162,1.057-1.162c1.514-0.493,3.169,0,3.944,0.317
	c0.81,0.282,0.88,0.986,1.056,1.268c0.176,0.317,3.733,0,3.979-0.669c0.247-0.669,0.916-0.916,1.444-0.845
	c0.81,0.07,1.479-0.141,1.972-0.388c0.493-0.247,0.669-0.423,1.338-0.599c0.6-0.176,1.479,0.317,1.901,0
	c0.493-0.352,0.599-0.422,1.058-0.422c0.422,0,0.422-0.07,1.092,0.247c0.668,0.316,3.521,0.176,3.521,0.176l-0.353-0.74l0.246-0.985
	l-0.6-0.458l0.105-0.88l-0.352-0.176c0,0-0.881,0.317-1.832,0.493c-1.056,0.176-2.218,0.845-2.781,1.232
	c-0.527,0.352-2.006,0.246-2.358,0.352c-0.246,0.07-0.316,0.81-0.985,0.81c-0.881,0-1.057,0.247-1.338,0.282
	c-0.316,0.07-2.148,0.493-2.148,0.493c-0.668,0.141-1.76,0.176-2.5,0.07c0,0,1.268-1.584,1.408-1.901
	c0.106-0.317,0.07-0.493-0.246-0.528c-0.316-0.07-2.429-1.091-3.098-1.021c0,0,0.599-0.422,0.88-0.387
	c0.317,0.07,1.584-0.176,2.042-0.035c1.163,0.281,1.902,0.81,2.253,0.95c0.317,0.105,0.528,0,0.775,0c0,0-0.423,0.951-1.197,1.867
	c-0.563,0.668-1.021,1.056-1.021,1.056S53.686,17.765,53.721,17.695L53.721,17.695z M44.107,18.329
	c-0.458,0.035-0.81,0.141-0.915,0.317c-1.444,2.429-2.078,0.387-2.078,0.387c-0.95,0.105-1.584-1.127-1.584-1.127
	c-1.091-0.845-0.493-2.289-0.493-2.289c-0.246-1.479,0.634-1.62,1.338-2.218c0.739-0.599,5.281-2.57,6.268-3.416
	c0.95-0.88,5.739-3.169,5.739-3.169s-4.718,2.852-5.387,3.768c0,0-1.162,0.563-1.514,0.845c-0.388,0.317-2.641,0.986-3.063,1.232
	s-1.338,0.845-1.338,0.845s1.092,0,1.021,1.725c0,0,0.669-0.422,1.655-0.422c0.986,0,2.676,1.901,3.838,2.006
	c0,0-1.514,0.142-1.831,0.071c-0.282-0.071-0.916-0.563-1.514-0.493c-0.634,0.07-1.655,1.409-0.634,1.479
	C44.671,17.906,44.107,18.329,44.107,18.329L44.107,18.329z M41.326,16.639c-0.247,0.141-1.303,0.986-0.387,1.268
	c0.387,0.141,0.316-0.422,0.246-0.668C41.114,16.991,41.326,16.639,41.326,16.639L41.326,16.639z M56.148,8.751
	c0,0,0.354-5.07-1.688-6.972c-1.479-1.338-1.585-0.141-1.585,0.634c0,0.845-0.669,4.226,0.6,7.429c0.492,1.232,1.231,0,1.338-0.352
	C54.952,9.104,55.199,8.012,56.148,8.751L56.148,8.751z M52.875,2.026c0.493,0.493,2.184,2.218,2.43,6.232 M64.6,19.315
	c0,0-1.899-0.353-2.886,0.141c-0.95,0.493-1.938,0.247-2.323-0.07c-0.354-0.317-1.339-0.176-1.69-0.07c0,0,0.493,0.704,0.599,0.916
	c0.141,0.246,2.324,1.795,3.169,1.725c0.882-0.07,2.712-0.176,2.957,0.141l0.07-0.74l0.353-0.88l-0.353-0.845L64.6,19.315
	L64.6,19.315z M57.699,19.315c-0.563-0.036-1.232,0.07-1.797,0.246c-0.527,0.211-1.268,0.317-1.584,0.247
	c-0.281-0.035-0.492-0.035-0.739-0.105c-0.211-0.07-1.093-0.141-1.373,0c-0.317,0.105-3.063,0.669-3.803,0.352
	c0,0-0.176,0.422-0.387,0.669c-0.176,0.247,0.704,0.211,1.162,0.247c0.493,0.07,2.042,0.88,3.38,0.247
	c1.338-0.599,1.515-0.669,1.832-0.669c0.315,0,2.076,0.176,2.569-0.423S57.699,19.315,57.699,19.315L57.699,19.315z M63.615,24.28
	c0,0-1.409-0.07-1.901-0.176c-0.493-0.141-0.95-0.669-1.938-0.493c-0.984,0.176-2.322-0.599-2.641-0.916
	c0,0-0.176,1.408,0.141,1.584c0.283,0.176,0.705,0.141,0.951,0.352c0.353,0.353,0.739,0.07,1.162,0.211
	c0.457,0.106,3.135,2.359,3.204,2.817l0.177-0.211V26.85l0.598-0.599l-0.246-0.739l0.494-0.493V24.28L63.615,24.28z M56.713,22.026
	c0,0-1.268,1.69-1.761,1.831c-0.492,0.106-1.726-0.246-2.147-0.246s-0.916,0.105-1.515,0.246c-0.633,0.106-1.725-0.246-2.112-0.246
	c-0.352,0-0.95,0.317-1.197,0.317s-0.563-0.071-0.916,0c-0.387,0.035-0.88,0.035-1.057,0.105c-0.176,0.07-0.669-0.07-0.986,0
	c-0.282,0.07-0.774,0.141-0.774,0.141s3.416-2.958,3.591-3.204c0,0,2.148,1.549,2.747,1.549c0.633,0,2.782,0.035,2.993-0.211
	C53.579,22.308,56.148,22.519,56.713,22.026L56.713,22.026z M62.171,28.364c0,0-0.317-0.493-1.127-0.528
	c-0.774-0.071-1.021-0.493-1.161-0.669c-0.105-0.211-0.775-0.668-1.761-0.633l-0.317-0.176c0,0,0.141-0.423-0.738-0.247
	c-0.846,0.176-2.185-0.105-2.324-0.317c-0.105-0.176-0.246-0.316-0.669-0.211c-0.281,0.035-0.142-0.387-0.353-0.458
	c-0.423-0.106-0.811,0.141-1.092,0.141c-0.316,0-0.881-0.634-1.339-0.669c-0.493-0.07-1.337,0.317-2.112,0.105
	c-0.458-0.105-0.774-0.352-1.197-0.105c-0.422,0.247-1.232,0.035-1.549,0c-0.282-0.07-0.423-0.563-0.423-0.563
	s-1.584-0.105-1.76,0.141c-0.176,0.247-1.584,1.76-1.972,2.676c0,0,1.303-0.81,1.901-0.845c0.599-0.071,1.338-0.317,1.761-0.211
	c0.458,0.141,0.88,0.247,1.162,0.211c0.317-0.071,0.916-0.247,1.162-0.141c0.247,0.141,0.915,0.07,1.162,0.07
	c0.247,0,0.88-0.176,1.162,0.071c0.317,0.246,2.289,0.282,2.642,0.352c0.352,0.07,0.315,0.317,0.492,0.423
	c0.176,0.141,2.395-0.247,2.887,0c0.459,0.246,0.459,1.162,1.269,1.408c0.812,0.247,0.563,0.387,0.669,0.634
	c0.143,0.211,0.178,0.599,0.74,0.845s1.021,1.232,1.021,1.584C60.305,31.251,62.029,28.751,62.171,28.364L62.171,28.364z
	 M60.27,31.075c-0.492,0.035-2.465,0.106-2.888,0c-0.422-0.141-0.491-0.563-0.774-0.634c-0.315-0.035-0.984,0.105-1.231,0
	c-0.423-0.105-0.423-0.458-0.739-0.528c-0.316-0.07-0.738-0.105-0.845-0.246c-0.212-0.176-0.071-0.493-0.563-0.669
	c-0.353-0.141-0.916-0.422-1.092-0.493c-0.176-0.071,0.246,0.07,0,0c-0.246-0.07-1.655-0.387-3.24-0.387
	c-0.316,0-0.493-0.423-0.493-0.423c-0.317-0.247-0.317-0.176-0.845-0.035c-0.563,0.105-1.55-0.211-1.796-0.141
	c-0.247,0.07-0.352-0.247-0.74-0.423c-0.282-0.141-0.916-0.105-1.584-0.176c-0.528-0.071-1.092-0.246-1.338,0.246l-0.246,0.916
	c0,0-0.493,0.493,0.633,0.282c1.092-0.176,4.155-0.352,4.437-0.035c0.317,0.282,0.634,0.916,0.986,1.092
	c0,0-0.705-0.211-1.726,0.176c-0.282,0.141-0.176-0.105-0.352-0.105s-1.092-0.422-2.078,0c-0.422,0.176-1.303-0.105-1.409-0.247
	c-0.246-0.317-0.492-1.162-0.492-1.162l0,0c0,0-2.676,2.254-2.817,3.345c-0.105,1.056,0.071,0.563,0.563,0.493
	c0.493-0.07,0.81-0.845,1.232-0.986c1.338-0.423,2.113,0.105,2.605,0c0.387-0.035,0.422-0.106,0.81-0.176
	c0.247-0.035,0.352-0.422,0.599-0.422c0.599,0,1.901,0,2.324-0.07c0.422-0.071,0.317-0.493,0.669-0.493
	c0.388,0,1.056,0.07,1.408,0.247c0.388,0.176,2.712,0.141,3.662,0.247c0.985,0.141,0.739,0.563,1.057,0.563
	c0.316,0,0.423-0.141,0.739,0c0.281,0.106,1.338,0.845,1.408,1.162c0.035,0.282-0.141,0.598,0.669,0.916
	c0.774,0.317,1.021,0.845,1.161,1.232c0.106,0.353,0.248,1.374,0.248,1.374s1.338-3.239,1.689-3.521
	C60.27,31.674,60.27,31.075,60.27,31.075L60.27,31.075z M46.115,32.871c0.07,0-0.07-0.141-0.035-0.211
	c0.916-0.774,2.183-0.774,3.274-0.634c0.563,0.071,1.268,0.423,1.832,0.563c0.811,0.176,1.865,0.141,2.605,0.494
	c0.527,0.211,0.246,0.845-0.178,1.126c-0.069,0.035,0.213,0.458,0.318,0.493c0.527,0.281,1.373,0,1.514,0.739
	c0.881,0.105,1.761-0.035,2.642,0c0.142,0-0.035,0.422-0.071,0.599c-0.141,0.352-0.035,0.739-0.281,1.056
	c0-0.282-0.246-0.282-0.387-0.352c-0.6-0.282-1.269,0.176-1.797-0.176c-0.176-0.07-0.141-0.387-0.211-0.422
	c-1.057-0.317-2.183,0.105-3.238-0.176c-0.177-0.07-0.07-0.422-0.142-0.493c-0.812-0.493-1.726-0.669-2.571-1.021
	c-0.176-0.106-0.458-0.141-0.634-0.211c-0.422-0.211-0.845-0.528-1.268-0.634c-0.493-0.141-1.126-0.141-1.549,0.282
	c-0.141,0.105,0.211,0.387,0.07,0.458c-0.634,0.423-1.443,0.035-2.077,0.423c-0.176,0.105-0.317,0.211-0.458,0.246
	c-0.774,0.317-1.584,0.669-1.795,1.514c-0.07,0.387,0.105,0.74,0,1.092c-0.07,0.458-0.493,0.599-0.774,0.916
	c-0.599,0.599-0.317,1.549-0.071,2.253c0.176,0.493,0.775,0.74,1.303,0.493c0.14-0.07,0.387-0.634,0.598-0.81
	c0.141-0.105,0.528-0.352,0.704-0.422c0.563-0.317,0.704-0.211,1.303-0.423c0.141-0.035,0.211-0.176,0.317-0.211
	c0.141-0.035,0.282,0.035,0.388-0.035c0.704-0.317,1.443-0.317,2.113,0.141c0.105,0.07,0.035,0.458-0.106,0.528
	c-1.021,0.352-1.303,0.141-2.253,0.668c-0.563,0.317-0.775,0.951-1.374,1.232c-0.492,0.211-1.197,0.07-1.76,0.176
	c-0.141,0.035-1.092,0.388-1.197,0.528c-0.211,0.247-0.387,0.493-0.704,0.598c-0.035-0.422-0.176-0.845-0.352-1.197
	c-0.105-0.211-0.458-0.317-0.599-0.599c-0.07-0.176-0.141-0.422-0.035-0.634c0.035-0.141,0.035-0.282,0.105-0.387
	c0.176-0.317-0.035-0.599-0.211-0.916c-0.036,0-0.106,0-0.176,0c0.211-0.035,0.282-0.247,0.387-0.387
	c0.176-0.247,0.035-0.669-0.317-0.775c0.176-0.211,0.458-0.317,0.528-0.599c0.035-0.211-0.141-0.493-0.07-0.563
	c0.317-0.422,0.634-0.916,0.422-1.303c-0.211-0.458-0.951-0.282-1.444-0.422c-0.246-0.07-0.528-0.141-0.81-0.106
	c0.105-0.387,0.317-0.774,0.247-1.232c0.035,0.388,0.317,0.564,0.634,0.599c0.458,0.07,0.88,0.141,1.338-0.035
	c0.458-0.176,0.951,0.211,1.479,0.07c-0.036,0-0.071,0-0.071,0c0.353-0.176,0.423-0.669,0.845-0.74
	c0.528-0.07,1.057-0.035,1.584-0.141c0.07-0.036,0.211-0.071,0.247-0.176c0.176-0.281,0.211-0.598,0.563-0.633
	c0.528-0.07,0.986-0.176,1.479-0.317L46.115,32.871L46.115,32.871z M53.755,37.413c-0.315,0.317-0.81,0.317-1.231,0.247
	c-0.422-0.035-0.881-0.141-1.269-0.352c-0.353-0.247-0.739-0.423-1.126-0.563c-0.493-0.141-0.986-0.282-1.514-0.211
	c-0.458,0.07-0.88,0.317-1.338,0.352c-1.268,0.141-2.395,0.423-3.697,0.176c-0.176-0.035-0.141-0.563-0.599-0.317
	c-0.423,0.211-0.176,0.916-0.07,1.373c0.105,0.458,0.633,0.528,1.056,0.423c1.831-0.634,3.697-0.352,5.563-0.528
	c0.951,0.599,2.078,0.387,3.134,0.352c0.493,0,1.443-0.211,1.197-0.951C53.861,37.378,53.791,37.378,53.755,37.413L53.755,37.413z
	 M38.72,31.92c0.071-0.141,0.176-0.352,0.353-0.247c0.845,0.528,1.795,0.035,2.711,0.352c0.422,0.176,0.845-0.105,1.268-0.211
	c0.282-0.106,0.528-0.423,0.845-0.388c0.07,0.035-0.036,0.211-0.071,0.247c-0.563,0.563-1.232,1.021-1.901,1.374
	c-0.634,0.282-1.409-0.035-2.183,0.141c-0.211,0.035-0.387,0.07-0.528,0.035c0,0.07,0,0.106-0.035,0.141
	c0,0.035-0.105-0.071-0.105,0.07c0.035,0.105-0.74,0.493-1.092,0.211c-0.035-0.036-0.035-0.211,0-0.282
	c0.352-0.564,0.387-1.232,0.916-1.655L38.72,31.92L38.72,31.92z M57.77,37.272c-0.211,0.07-0.422,0.105-0.599,0.282
	c-0.28,0.281-0.704,0-0.95,0.246c-0.105,0.071-0.212,0.211-0.316,0.282c-0.389,0.458-0.881,0.775-1.338,1.162
	c-1.232,1.127-2.889,0.211-4.438,0.528c-0.528,0.141-0.845,0.563-1.268,0.845c-0.352,0.211-0.81,0.035-1.126,0.282
	c-0.211,0.176-0.352,0.458-0.563,0.634c-0.282,0.281-0.774,0.105-1.126,0.387c-0.317,0.282-0.458,0.705-0.74,1.021
	c-0.317,0.352-0.739,0.493-1.232,0.458c-0.81-0.105-1.584-0.458-2.429-0.282c-0.564,0.105-1.021,0.07-1.338,0.634
	c0.282,1.021,0.563,2.007,1.197,2.817c0.141,0.176,0.563,0.035,0.634-0.141c0.14-0.247,0-0.634,0.246-0.88
	c0.07-0.035,0.176,0,0.246-0.035c0.211-0.106,0.458-0.352,0.669-0.352c0.88-0.035,1.831,0.282,2.711-0.176
	c1.057-0.493,2.289-0.176,3.416,0c0.035-1.162-1.338-1.092-2.147-1.056c0.211-0.669,0.739-1.162,0.951-1.831
	c0.07-0.247,0.282-0.387,0.458-0.458c0.493-0.141,0.845-0.422,1.268-0.669c0.141-0.07,0.281-0.212,0.387-0.282
	c0.317-0.246,0.774-0.211,1.058,0c0.845,0.599,1.584-0.316,2.322-0.07c0.248,0.07,0.6,0.423,0.916,0.282
	c0.176-0.071,0.246-0.282,0.354-0.423c0.176-0.211,0.492-0.035,0.703-0.105c0.423-0.106,0.705-0.387,1.127-0.528
	c0.212-0.07,0.492,0.141,0.527,0.035c0.248-0.634,0.178-1.373,0.248-2.042C57.594,37.66,57.594,37.413,57.77,37.272L57.77,37.272z
	 M57.348,40.195c-0.142,0.035-0.246,0.176-0.316,0.247c-0.67,0.493-0.986,1.303-1.655,1.831c-0.069,0.035-0.176,0.106-0.28,0.106
	c-1.128,0.176-2.113-0.458-3.24-0.211c-0.142,0.035-0.211,0.388-0.388,0.458c-0.317,0.07-0.704,0.035-0.986,0.247
	c-0.211,0.105-0.493,0.563-0.211,0.563c1.514-0.035,3.063-0.105,4.577,0.07c0.459,0.669,1.269,0.705,1.938,1.021
	c0.247,0.105,0.281,0.493,0.563,0.634c0.143,0.035,0.317-0.071,0.424-0.141c-0.211-0.528-0.246-1.162-0.316-1.796
	c-0.036-0.598-0.143-0.81-0.071-1.373c0.071-0.316-0.176-0.493-0.069-0.774C57.382,40.829,57.348,40.441,57.348,40.195
	L57.348,40.195z M57.84,45.477c-0.211,0-0.316-0.071-0.527,0.07c-0.388,0.247-0.916,0.317-1.408,0.211
	c-0.459-0.106-0.846-0.388-1.303-0.458c-0.774-0.105-1.551,0.105-2.254-0.176c-0.353-0.141-0.705-0.317-1.058-0.423
	c-0.281-0.105-0.281,0.423-0.035,0.493c0.177,0.035,0.353,0.176,0.528,0.247c0.354,0.176,0.634,0.563,0.986,0.81
	c0.668,0.423,1.514,0.106,2.183,0.317c0.353,0.141,0.739,0.211,1.127,0.247c0.669,0.07,1.444,0.211,2.078-0.07
	c0-0.599-0.388-1.021-0.493-1.584L57.84,45.477L57.84,45.477z M58.402,47.061c-0.598,0.387-1.092,0.951-1.83,0.951
	c-0.459,0.035-0.846,0-1.268-0.247c-0.951-0.493-2.043-0.105-3.135-0.317c-0.141-0.035-0.281-0.141-0.388-0.282
	c-0.105-0.141-0.281-0.105-0.423-0.141c-0.211-0.07-0.457,0-0.668-0.07c-0.353-0.071-0.705-0.282-1.021-0.423
	c-0.705-0.387-1.443-0.528-2.183-0.105c-0.422,0.247-0.951-0.106-1.373,0.211c-0.247,0.211-0.493,0.353-0.74,0.423
	c-1.091,0.211-2.112,0.141-3.169-0.035c-0.246-0.07-0.458-0.211-0.668-0.352c-0.071,0.282,0.07,0.563,0.141,0.81
	c0.317,0.845,0.633,1.726,1.021,2.57c0.07-0.81,0.704-1.479,1.443-1.69c0.705-0.176,1.374,0.352,2.007-0.07
	c0.528-0.317,1.091-0.563,1.655-0.422c0.388,0.105,0.81,0.352,1.162,0.176c0.423-0.211,0.88-0.282,1.303-0.141
	c0.141,0.035,0.352,0.176,0.493,0.246c0.846,0.353,1.797,0.071,2.747,0.211c0.177,0.035,0.246,0.352,0.493,0.387
	c1.127,0.071,2.254-0.071,3.415,0.071c0.177,0,0.317,0.422,0.599,0.317c0.424-0.176,1.021-0.423,1.375,0
	c-0.317-0.669-0.74-1.232-1.058-1.902C58.298,47.167,58.333,47.096,58.402,47.061L58.402,47.061z M42.628,50.3
	c0.951,0.105,1.831-0.493,2.817-0.247c0.458,0.141,0.88,0.317,1.338,0.105c0.211-0.105,0.387-0.317,0.599-0.387
	c0.493-0.176,1.056,0.035,1.514-0.176c0.247-0.104,0.458-0.282,0.704-0.422c0.211-0.141,0.528-0.07,0.705,0.07
	c0.528,0.493,0.916,1.232,1.69,1.338c0.669,0.069,1.338,0,2.007,0c-0.423,0.353-0.669,0.88-1.162,1.092
	c-0.492,0.246-0.986,0.211-1.479,0.104c-0.459-0.104-0.775-0.563-1.233-0.774c-0.211-0.104-0.493-0.069-0.704,0
	c-1.021,0.282-2.007,0.563-2.993,0.951c-0.845,0.353-1.866,0.388-2.747,0.211c-0.422-0.104-0.598-0.669-0.81-1.091
	C42.734,50.828,42.699,50.546,42.628,50.3L42.628,50.3z M43.755,52.624c0.563,0.247,0.986,0.739,1.69,0.881
	c0.528,0.07,1.056,0.07,1.584,0c0.528-0.071,0.986-0.353,1.479-0.599c1.056-0.563,2.219,0.104,3.344-0.035c-0.035,0-0.035,0-0.069,0
	c0.599-0.036,1.092-0.316,1.655-0.354c0.81-0.035,1.127-1.057,1.795-1.338c0.916-0.388,2.043,0.07,2.959-0.281
	c0.527-0.211,1.127-1.269,1.689-0.917c0.352,0.246,0.316,0.879,0.635,1.268c0.211,0.281,0.246,0.634,0.563,0.811
	c-1.373,0.599-2.922-0.105-4.366,0.246c-0.246,0.07-0.491,0.211-0.669,0.387c-0.246,0.283-0.458,0.563-0.704,0.812
	c-0.141,0.142-0.353,0.281-0.563,0.246c-0.176,0-0.141-0.246-0.246-0.317c-0.281-0.141-0.563,0.178-0.846,0.248
	c-0.914,0.141-1.865-0.142-2.711,0.104c-0.74,0.211-1.338,0.493-2.113,0.634c-0.211,0.035-0.493,0.141-0.81,0.282
	c0.07,0,0.141,0,0.211,0c-0.458,0-0.916-0.036-1.374,0c-0.246,0.034-0.422,0.315-0.669,0.422c-0.282,0.104-0.599,0.282-0.88,0.212
	c-0.247-0.07-0.458-0.281-0.563-0.527c-0.246-0.635-0.563-1.197-0.951-1.797C43.72,52.906,43.685,52.589,43.755,52.624
	L43.755,52.624z M61.326,52.378c-0.141,0.104-0.354,0.104-0.493,0.246c-0.458,0.528-0.88,1.196-1.479,1.442
	c-0.774,0.283-1.443,0.847-2.289,0.847c-0.211,0-0.353,0.176-0.527,0.315c-0.354,0.282-0.846,0.143-1.197,0.424
	c-0.141,0.104-0.352,0.176-0.388,0.07c-0.177-0.459-0.634-0.881-1.091-0.916c-1.303-0.104-2.571-0.035-3.875,0.176
	c-0.845,0.142-1.443,0.916-2.359,1.093c-0.668,0.104-1.338-0.142-2.007-0.177c0.07,0.035,0.141,0.035,0.176,0.142
	c0.07,0.104,0.105,0.246,0.211,0.353c0.353,0.422,0.705,0.774,0.88,1.303c1.092-0.353,2.112-0.739,3.274-0.95
	c0.88-0.142,1.796-0.035,2.641,0.211c0.354,0.104,0.739,0.104,1.057,0.247c0.388,0.211,0.74,0.457,1.127,0.669
	c0.177,0.069,0.423,0.142,0.563,0.035c0.423-0.247,0.882-0.353,1.232-0.177c0.106,0.07,0.247,0.211,0.388,0.316
	c0.282,0.141,0.423-0.07,0.635-0.281c0.069-0.07,0.176,0.035,0.211,0.105c0.105,0.387,0.142,0.915,0.563,1.091
	c0.811,0.317,1.727,0.071,2.465-0.315c0.316-0.142,0.704,0.141,0.986,0.315c0.634,0.317,1.408,0.106,2.111,0.106
	c0.142,0.035,0.246,0.281,0.387,0.457c0.035,0.07,0.143,0.105,0.213,0.105c0.281,0.035,0.599,0.105,0.773-0.07
	c0.211-0.211,0.459-0.316,0.704-0.388c0.317-0.069,0.669,0.035,0.986,0.104c-0.07,0-0.104,0-0.142,0.07
	c-0.246-0.527-0.563-0.986-0.846-1.479c-0.176-0.247-0.458-0.354-0.703-0.424c-0.318-0.104-0.705,0.035-1.093,0.07
	c-0.563,0.07-1.058-0.176-1.62-0.315c-0.455-0.071-0.914-0.071-1.268,0.176c-0.211,0.142-0.422,0.281-0.668,0.388
	c-0.424,0.211-0.915,0.141-1.373,0.035c-0.247-0.07-0.354-0.354-0.563-0.527c-0.529-0.459-1.197-0.424-1.832-0.494
	c1.197-0.387,2.185-1.795,3.486-1.231c0.281,0.142,0.387,0.774,0.773,0.634c0.211-0.07,0.457-0.281,0.563-0.527
	c0.212-0.424,0.425-0.881,0.636-1.338c0.034-0.142-0.035-0.282-0.105-0.389C62.102,53.363,61.572,52.977,61.326,52.378
	L61.326,52.378z M69.002,61.639c-0.458-0.142-0.986-0.07-1.443,0c-0.316,0.07-0.74,0.387-1.021,0.176
	c-0.424-0.316-0.635-0.633-0.951-0.949c0.6-0.317,1.197,0.104,1.762-0.178c0.176-0.069,0.598-0.141,0.738-0.352
	c0.07-0.07,0.389,0.6,0.423,0.634L69.002,61.639L69.002,61.639z M69.529,62.482l0.775,1.373c0,0-1.269,0.847-1.586,0.528
	c-0.07-0.106-0.773-0.95-0.88-1.021C67.84,63.364,69.529,62.87,69.529,62.482L69.529,62.482z M70.975,65.124
	c0,0-0.459,0.81-1.373,0.599l0.703,1.269c0,0,1.443-0.177,1.232-0.812L70.975,65.124L70.975,65.124z M70.975,68.434
	c0,0,0.387,1.127,0.352,1.408c0,0,1.268-0.141,1.197-0.738l-0.353-1.057C72.171,68.047,71.678,68.574,70.975,68.434L70.975,68.434z
	 M71.432,70.617c0.142,0.984-0.951,4.753,1.973,6.831c2.923,2.077,1.689,0.774,1.972,1.231c0.599,1.092,0.704,1.231,0.704,1.973
	c0,0,1.938-2.605-0.246-4.789c-0.6-0.6,0-1.689,0-1.689s0.141,0.246,0-0.388c-0.105-0.599-0.6-1.831-1.938-2.923
	c-0.388-0.316-0.705-0.67-0.951-1.021C72.559,70.229,72.313,70.617,71.432,70.617L71.432,70.617z M65.059,60.898
	c-0.07-0.105-0.494,0.035-0.74-0.069c-0.491-0.177-0.95-0.528-1.479-0.67c-0.457-0.142-0.881,0.212-1.338,0.282
	c-0.387,0.035-0.811,0.069-1.197-0.07c-0.457-0.178-0.81-0.528-1.303-0.6c-0.634-0.035-1.303-0.104-1.865,0.142
	c-0.6,0.246-1.021,0.774-1.727,0.81c-0.035,0-0.035,0.178-0.07,0.178c-0.527,0.176-1.127,0.176-1.654,0
	c-0.353-0.143-0.6-0.528-0.985-0.67c-0.493-0.176-0.916,0.035-1.409,0.177c-0.176,0.034-0.458,0-0.668-0.105
	c0.281,0.423,0.422,0.915,0.775,1.196c0.281,0.212,0.668,0.354,0.914,0.635c0.142,0.176,0.354,0.281,0.563,0.387
	c0.388,0.246,0.916,0.211,1.408,0.176c0.599-0.034,1.057-0.668,1.655-0.491c0.176,0.035,0.353,0.28,0.563,0.176
	c0.316-0.176,0.635-0.528,0.951-0.315c0.457,0.315,0.738,0.772,1.16,1.16c0.705,0.67,1.586,0.985,2.466,1.338
	c0.317,0.143,0.669,0.317,0.95,0.563c0.281,0.211,0.494,0.528,0.773,0.669c0.317,0.141,0.705,0,1.022,0.141
	c0.175,0.07,0.457,0.142,0.563,0.389c0.141-0.07,0.353,0.105,0.387,0.035c0.211-0.563,0.281-1.162,0.388-1.762
	c0.035-0.246,0.106-0.634-0.035-0.738c-0.457-0.353-1.091,0.211-1.653,0c-0.283-0.105-0.354-0.492-0.635-0.492
	c-0.916-0.035-2.218-0.143-2.359-1.268c0.528-0.213,1.127,0,1.621-0.178c1.09-0.458,2.252,0.105,3.133,0.669
	C65.27,61.99,65.305,61.393,65.059,60.898L65.059,60.898z M46.854,57.482c-0.105-0.104-0.669,0.177-0.774,0.283
	c0.141,0.387,0.141,0.563,0.387,0.914c0.422,0.6,1.268,1.127,1.831,1.973c0.458,0.668,0.633,0.738,1.197,1.303
	c0.317,0.316,0.458,0.6,0.775,0.88c0.211,0.176,0.563,0.353,0.739,0.563c0.353,0.388,0.599,0.563,0.81,0.879
	c0.07,0.143,0.986,1.479,0.847,1.69c-0.142-0.388-0.563-1.69-0.739-2.077c-0.105-0.281-0.492-0.811-0.67-1.021
	c-0.563-0.738-0.668-0.88-1.373-1.795c-0.774-0.986-1.337-1.62-2.112-2.57C47.488,58.117,47.171,57.801,46.854,57.482L46.854,57.482
	z M47.171,57.729c0.775-0.315,1.584,0.389,2.147,1.058c0.211,0.247,0.599,0.282,0.88,0.141c0.493-0.245,0.774-0.845,1.338-1.056
	c0.423-0.178,0.845-0.07,1.162,0.141c0.81,0.563,1.69,0.881,2.641,0.67c-0.353,0.245-0.669,0.387-1.092,0.457
	c-0.704,0.07-1.269-0.353-1.901-0.527c-0.527-0.105-0.914,0.141-1.338,0.423c-0.07,0.034-0.07,0.104-0.07,0.176
	c-0.211,0-0.246,0.281-0.422,0.315c0,0,0.035,0,0.07,0c-0.493,0.072-1.162,0.563-0.88,0.986c0.176,0.211,0.599,0.281,0.81,0.458
	c0.317,0.246,0.424,0.704,0.635,1.056c0.141,0.213,0.281,0.389,0.423,0.6c0.245,0.281,0.81,0.316,1.057,0.634
	c0.422,0.634,0.07,1.373-0.317,1.866c0,0-0.104-0.316-0.141-0.458c-0.035-0.176-0.07-0.176-0.176-0.281
	c-0.07-0.106-0.105-0.282-0.178-0.353c-0.104-0.176-0.176-0.457-0.28-0.633c-0.493-0.705-0.916-1.375-1.549-2.008
	c-0.071-0.105-0.141-0.281-0.247-0.388c-0.81-0.774-1.373-1.69-2.077-2.604c-0.071-0.106-0.211-0.213-0.247-0.282
	C47.382,57.906,47.101,57.766,47.171,57.729L47.171,57.729z M64.564,66.92c-1.197-0.143-0.985,0.07-1.654,0.176
	c-0.352,0.035-0.986,0.035-1.303-0.035c-0.353-0.069-0.846-0.353-1.057-0.457c-0.599-0.388-0.916-0.635-1.443-0.881
	c-0.811-0.423-1.762-0.774-2.676-0.984c-1.408-0.317-2.713-0.213-3.979,0.633c0.353,0.704,0.458,1.373,0.774,2.042
	c0.211-0.634,0.353-0.985,0.985-1.196c0.847-0.316,1.69-0.353,2.396-0.212c0.07,0,0.422,0.07,0.881,0.282
	c0.422,0.176,0.527,0.316,0.81,0.457c0.388,0.177,0.669,0.354,0.95,0.527c0.775,0.528,1.091,0.951,2.008,1.093
	c0.95,0.104,1.865,0,2.745-0.177c0.142-0.353,0.212-0.457,0.353-0.738C64.424,67.307,64.424,67.061,64.564,66.92L64.564,66.92z
	 M63.262,70.159c-0.668,0.423-1.548,0.104-2.322,0.034c-0.459-0.034-0.985-0.069-1.338-0.492c0.069,0.035,0.104,0,0.141-0.035
	c0.212-0.141,0.388-0.246,0.458-0.458c0.069-0.246-0.104-0.457-0.281-0.526c-0.353-0.106-0.705-0.178-1.058-0.248
	c-0.527-0.141-1.057-0.176-1.584-0.176c-0.635,0-1.232-0.035-1.866,0c-0.599,0.035-1.55,0.141-1.726-0.634
	c-0.035-0.176-0.177-0.247-0.388-0.212l-0.034-0.035h-0.035c0.28,0.389,0.492,1.092,0.738,1.55c0.316,0.599,0.493,1.093,0.846,1.655
	c0.141,0.211,0.246,0.422,0.422,0.6c0.07,0.141,0.07,0.28,0.177,0.387c0.141-0.246,0.247-0.528,0.563-0.563
	c0.668-0.104,1.303-0.211,1.865-0.634c0.773-0.176,1.516,0.143,2.289,0.212h-0.035c0.176,0,0.316-0.035,0.493,0
	c0.845,0.246,1.726,0.422,2.499,0.035c0.035-0.035,0.035-0.212,0.07-0.317C63.156,70.266,63.227,70.193,63.262,70.159L63.262,70.159
	z M58.509,75.969c-0.28-0.316-0.528-0.703-0.845-1.056c-0.141-0.177-0.211-0.423-0.354-0.563c-0.176-0.211-0.422-0.423-0.527-0.599
	c-0.246-0.493-0.635-0.846-0.915-1.303c-0.07-0.035-0.177-0.177-0.104-0.282c0.104-0.141,0.28-0.176,0.422-0.211
	c0.739-0.07,1.479-0.141,2.147,0.07c0.739,0.281,1.442,0.176,2.219,0.246c0.457,0.035,0.563,0.527,0.915,0.67
	c0.352,0.176,0.811,0.246,1.197,0.104c0-0.035-0.035-0.069-0.035-0.069c0.035,0.352,0.211,0.668,0.281,1.021
	c-0.986,0.634-2.219,0.104-3.204,0.634c-0.353,0.212-0.739,1.057-0.142,1.232c0.67,0.142,1.408,0.035,2.008,0.492
	c0.423,0.317,0.986-0.035,1.373,0.248c0.457,0.315,0.846,0.315,1.338,0.422c0.211,0.035,0.458-0.142,0.669-0.211
	c0.141-0.035,0.317,0.211,0.458,0.387c-0.389-0.035-0.811-0.176-1.197-0.035c-0.07,0,0,0.212-0.141,0.247
	c-0.422,0.104-0.563,0.669-0.528,1.058c-0.035-0.283-0.247-0.529-0.423-0.705c-0.457-0.353-1.092-0.177-1.585,0.07
	c-0.421,0.176-0.492,0.811-0.28,1.196c-0.141,0-0.316-0.07-0.423,0.106c0.246-0.494-0.353-0.986-0.669-1.445
	c-0.211-0.315-0.423-0.703-0.773-0.773L58.509,75.969L58.509,75.969z M61.502,83.15c0.316,0.812,0.176,3.979,0.034,4.859
	c-0.104,1.057,0.071,2.113-0.28,3.1c-0.354,0.916-0.704,2.147-1.865,2.358c-0.07,0.035-0.213,0.142-0.248,0.247
	c-0.035,0.176,0.178,0.281,0.354,0.316c0.352,0.104,0.704,0.07,1.021-0.07c0.844-0.316,0.633-1.373,0.914-2.077
	c0.211-0.563,0.951-0.142,1.408-0.353c0.246-0.105,0.457-0.352,0.352-0.563c-0.246-0.634-1.16-0.28-1.549-0.634
	c-0.176-0.176-0.069-0.669,0.211-0.811c0.248-0.176,0.635-0.141,0.847-0.388c0.211-0.211,0.176-0.634,0.422-0.774
	c0.528-0.353,1.127,0.105,1.69-0.104c0.246-0.104,0.422-0.458,0.176-0.563c-0.281-0.141-0.67,0.035-0.95-0.141
	c-0.211-0.142-0.388-0.353-0.636-0.388c-0.598-0.104-1.055,0.493-1.653,0.388c-0.069,0-0.142-0.07-0.176-0.177
	c-0.105-0.315,0.034-0.599,0.315-0.81c0.035-0.035,0.106-0.035,0.178-0.035c-0.035,0-0.07,0-0.143,0
	c0.494-0.246,0.775-0.635,1.127-1.092c0.035-0.035,0.105,0,0.176,0c0.035-0.035,0.07-0.07,0.07-0.105
	c0.529,0.07,1.727,0.281,1.516-0.493c-0.105-0.246-0.67-0.034-0.881-0.352s-0.423-0.599-0.67-0.847
	c-0.104-0.141-0.316-0.211-0.457-0.281c-0.315-0.069-0.668,0.212-0.986-0.034c-0.069-0.035-0.104-0.212-0.034-0.317
	c0.247-0.599,0.563-1.268,1.196-1.373c0.563-0.104,1.373,0.105,1.619-0.527c0.071-0.211,0.035-0.457-0.176-0.563
	c-0.141-0.069-0.352-0.104-0.527-0.035c-0.494,0.212-1.021,0.247-1.514,0.105c-0.388-0.07-0.6-0.457-0.881-0.704
	c-0.176-0.104-0.493,0-0.6-0.21C61.432,80.758,61.291,82.729,61.502,83.15L61.502,83.15z M58.402,94.066
	c0,0-0.457,0.812-0.879,1.867c-0.317,0.703-1.232,2.569,0.845,2.569s3.415-0.634,4.401-1.231c0.985-0.599,1.092-1.973,0.598-2.43
	c0,0,0.283-0.07,0.389-0.281C63.756,94.561,59.107,94.843,58.402,94.066L58.402,94.066z M35.305,80.793
	c-0.281,0.915-1.126,1.443-1.654,2.288c-0.035,0.035-0.141,0.212,0,0.282c0.105,0.035,0.246,0,0.352-0.07s0.141-0.247,0.247-0.354
	c0.81-0.668,1.091-1.549,1.479-2.465c-0.106,0.035-0.211-0.104-0.247-0.035c-0.07,0.248-0.176,0.459-0.247,0.74L35.305,80.793
	L35.305,80.793z M31.96,83.75c-0.176-0.105-0.247,0.916-0.493,1.655c-0.353,1.092-0.845,2.712-0.845,2.712s5,1.091,5.739-1.62
	c0.317-1.127,0.387-1.761,0.422-2.113C36.784,84.384,32.277,83.962,31.96,83.75L31.96,83.75z M38.157,83.258
	c-0.247-0.247-0.247-0.634-0.563-0.811c-0.141-0.07-0.317-0.176-0.493-0.211c-0.352-0.141-0.81-0.07-1.021-0.317
	c-0.176-0.176,0-0.599,0.247-0.599c0.599,0,1.197-0.105,1.69,0.281c0.423,0.316,0.704,0.811,0.563,1.338
	c-0.07,0.177-0.282,0.389-0.493,0.354C38.122,83.293,38.157,83.258,38.157,83.258L38.157,83.258z M40.375,81.355
	c-0.493,0.105-0.951,0.211-1.409-0.035c-0.387-0.176-0.634-0.527-0.81-0.846c-0.282-0.457-0.176-1.056-0.176-1.584
	c0.282,0.07,0.458,0.354,0.563,0.563c0.528,1.126,2.042,1.056,2.993,0.739c0,0.035,0,0.104-0.035,0.176
	c-0.317,0.492-0.81,0.773-1.338,0.984h0.212V81.355z M42.453,79.49c-0.211,0.104-0.316,0.281-0.458,0.353
	c-1.021,0.457-1.725-0.599-2.43-1.196c-0.176-0.105-0.282-0.424-0.458-0.6c-0.071-0.07-0.211-0.211-0.141-0.281
	c0.352-0.353,0.775-0.985,1.197-0.6c0.282,0.247,0.211,0.881,0.528,0.986c0.458,0.176,1.091-0.142,1.619,0.176
	c0.317,0.247,0.846-0.211,1.303-0.035c0.105,0.035,0.07,0.212,0.035,0.212C43.192,78.855,42.911,79.279,42.453,79.49L42.453,79.49z
	 M41.432,75.723c0.141,0.389,0.705,0.424,0.915,0.811c0.141,0.247,0.106,0.563,0.388,0.705c0.388,0.176,0.845,0.141,1.232,0.246
	c0.176,0.035,0.387,0.353,0.528,0.281c0.211-0.105,0.669-0.246,0.528-0.492c-0.247-0.389-0.457-0.775-0.634-1.197
	c-0.035-0.106-0.176-0.106-0.247-0.143c-0.246-0.069-0.563-0.069-0.845-0.104c-0.493-0.104-0.916-0.599-1.408-0.528
	C41.713,75.3,41.361,75.477,41.432,75.723L41.432,75.723z M42.734,74.385c0.704,0.316,1.479,0.281,2.218,0.281
	c-0.035-0.035,0.035-0.07,0.035-0.105c0.035-0.141-0.105-0.246-0.176-0.352c0.281,0.035,0.458-0.212,0.599-0.389
	c0.035-0.069,0.07-0.211-0.036-0.211c-0.739,0.035-1.479,0.177-2.218-0.105C43.192,73.855,43.016,74.174,42.734,74.385
	L42.734,74.385z M43.087,72.482c0.07,0.281,0.422,0.211,0.633,0.035c0.387-0.353,0.599-0.846,1.021-1.162
	c0.211-0.141,0.493,0.105,0.74,0.281c0.141,0.178,0.528,0,0.634-0.246c0.07-0.211-0.07-0.457-0.247-0.527
	c-0.387-0.211-0.845-0.035-1.197-0.246c-0.563-0.389-1.021-0.916-1.725-0.739c-0.211,0.035-0.458,0.211-0.353,0.457
	C42.805,71.039,42.875,71.779,43.087,72.482L43.087,72.482z M42.347,69.279c0.987,0.387,2.078-0.389,3.134,0
	c0.105,0.035,0.247,0.141,0.317,0.176c0.141,0.07,0.387,0.035,0.458,0.105c0.423,0.388,1.021,0.633,1.479,0.422
	c0.176-0.104,0.247-0.457,0.387-0.668c-0.563-0.035-1.162,0.104-1.69-0.248c-0.563-0.422-1.057-0.738-1.584-1.127
	c-0.634-0.457-0.916-1.125-1.514-1.584c-0.423-0.316-0.775-0.633-1.197-0.95c-0.282,0.739-0.247,0.739-0.211,1.515
	c0,0.281,0.07,0.528,0.105,1.057c0.035,0.142,0.281,1.162,0.211,1.338L42.347,69.279L42.347,69.279z M42.875,59.385
	c1.056,1.162,1.725,2.605,2.816,3.732c0.951,0.316,1.232,1.408,1.62,2.253c0.176,0.388,0.458,0.704,0.774,1.021
	c0.176,0.176,0.317,0.424,0.458,0.635c0.105,0.141,0.493,0.141,0.387,0.211c-0.457,0.281-1.091,0.423-1.654,0.246
	c-0.458-0.176-0.74-0.668-1.232-0.846c-0.775-0.246-1.514-0.422-2.148-0.914c-0.845-0.67-0.986-1.902-0.669-2.889
	c0,0.105,0.106,0.141,0.141,0.211c0.07,0.105,0.211,0.143,0.281,0.283c0.176,0.316,0.282,0.633,0.422,0.949
	c0.141,0.316,0.494,0.459,0.88,0.388c0.247-1.161-0.775-1.796-1.444-2.604c-0.07-0.105-0.352-0.07-0.422-0.142
	c-0.388-0.246-0.811-0.423-0.916-0.88C41.995,60.336,41.925,59.49,42.875,59.385L42.875,59.385z M44.354,58.855
	c-0.07,0.213,0,0.459,0.105,0.67c0.247,0.668,0.423,1.373,0.845,1.972c0.493,0.739,1.479,0.67,1.972,1.373
	c0.176,0.211,0.282,0.528,0.387,0.812c0.176,0.387,0.669,0.387,0.986,0.633c0.211,0.177,0.352,0.459,0.493,0.705
	c0.141,0.28,0.176,0.633,0.422,0.773c0.528,0.246,1.198,0.035,1.795,0.105c0.457,0.069,0.916,0.527,1.304,0.353
	c0.28-0.142,0.104-0.599-0.07-0.812c-0.388-0.563-0.634-1.338-1.339-1.442c-0.458,0.423-1.021,0.246-1.443-0.035
	c-0.422-0.28-0.739-0.668-0.986-1.092c-0.176-0.422-0.352-0.81-0.598-1.196c-0.247-0.316-0.634-0.492-0.951-0.773
	c-0.317-0.213-0.493-0.563-0.669-0.881c-0.141-0.353-0.035-0.774-0.211-1.093c-0.141-0.245-0.247-0.669-0.458-0.634
	c-0.387,0.105-0.845,0.178-1.232,0.389C44.601,58.751,44.389,58.716,44.354,58.855L44.354,58.855z M37.03,35.723
	c-0.739-0.141-1.409,0.211-1.901,0.669c-0.211,0.176,0.246,0.669,0.035,0.845c-0.423,0.387-0.388,0.774-0.282,1.162
	c0.071,0.211,0.422,0.211,0.669,0.282c0.458,0.141,0.176,0.986,0.88,0.951c-0.07,0.705-0.035,1.409,0.247,2.042
	c0.422,0.88,1.373,0.246,2.042,0.035c0.423-0.105,0.036-0.704-0.176-0.951c-0.493-0.633-1.549-1.197-1.232-1.76
	c0.422-0.774,0.247-1.584,0.282-2.289c0-0.176,0.105-0.493,0-0.599c-0.388-0.423-1.021-0.07-1.549-0.141L37.03,35.723L37.03,35.723z
	 M31.96,37.483c0-0.035-0.07-0.493-0.07-0.563c0.035,0.563,0.176,1.092,0.176,1.62c0.071,1.197-0.458,2.183-0.704,3.345
	c1.338,0,2.746,0.141,4.084,0.317c0.387-1.232-0.458-2.253-0.951-3.274c-0.141-0.282-0.88,0.353-1.056-0.07
	c-0.247-0.634-0.07-1.444-0.07-2.183c0,0.07,0,0.105,0,0.141L31.96,37.483L31.96,37.483z M30.481,37.237
	c-0.458,1.549-0.211,3.38,0.317,4.824c-0.634-0.141-1.021,0.388-1.584,0.493c0-0.141-0.035-0.317,0-0.493
	c0.035-0.071,0.106-0.141,0.247-0.106c0-0.176,0.035-0.387-0.035-0.458c-0.845-0.634-1.761-1.021-2.641-1.655
	c-0.247-0.176-0.774-0.387-0.634-0.669c0.106-0.247,0.458-0.669,0.634-0.528c0.317,0.282,0.599,0.563,0.916,0.352
	c0.211-0.105,0.106-0.528,0.176-0.845c0.282-0.176,0.563-0.317,0.845-0.317c-0.071,0.247-0.247,1.127,0.317,1.092
	c0.352,0,0.176-0.88,0.352-1.232C29.495,37.519,30.199,37.519,30.481,37.237L30.481,37.237z M28.58,42.941
	c-0.458,0.07-0.88-0.211-1.162-0.458c-0.774-0.634-1.126-1.761-1.584-2.676c-0.422,0.599-0.493,1.514-0.529,2.007
	c-0.141,0.916-0.07,1.796-0.141,2.57c0.458,0,0.916-0.035,1.373-0.211c0.564-0.211,1.303,0.422,1.761-0.07
	C28.544,43.821,28.439,43.329,28.58,42.941L28.58,42.941z M27.981,46.357c-0.774,0.458-1.796,0.246-2.676,0.105
	c-0.035,1.021,0.177,1.831,0.247,3.063c0.282-0.176,0.563-0.387,0.845-0.599c0.528-0.387,1.338,0,1.62-0.422
	C28.368,47.906,27.734,47.096,27.981,46.357L27.981,46.357z M25.657,50.265c0.176,1.162,0.951,0.211,1.69,0.422
	c0.211,0.069,0.422,0.069,0.634,0.035c0.105,0,0.176-0.142,0.105-0.212c-0.669-0.493-1.479-0.669-2.288-0.458
	c-0.106,0.035-0.176,0.282-0.141,0.458V50.265L25.657,50.265z M26.15,54.42c0.493,1.973,1.092,4.895,1.092,4.895
	s3.416-0.633,3.31-3.31c-0.141-2.677-0.353-2.078-0.986-2.571c-0.141-0.104-0.282-0.246-0.352-0.387
	c0.07,0.105-0.739,0.669-1.127,0.985c-0.246,0.212-0.563,0.142-0.88,0.353S26.115,54.209,26.15,54.42L26.15,54.42z M57.523,9.737
	c0.457,0.247,3.203,1.972,3.768,6.584c0.492,3.909-0.6,6.726-1.092,8.451c-0.493,1.726-2.676,4.507-1.479,9.295"/>
</svg>
