<?xml version="1.0" encoding="utf-8"?>
<!-- Generator: Adobe Illustrator 16.0.0, SVG Export Plug-In . SVG Version: 6.00 Build 0)  -->
<!DOCTYPE svg PUBLIC "-//W3C//DTD SVG 1.1//EN" "http://www.w3.org/Graphics/SVG/1.1/DTD/svg11.dtd">
<svg version="1.1" id="Layer_1" xmlns="http://www.w3.org/2000/svg" xmlns:xlink="http://www.w3.org/1999/xlink" x="0px" y="0px"
	 width="100px" height="100px" viewBox="0 0 100 100" enable-background="new 0 0 100 100" xml:space="preserve">
<path fill="#04A54F" d="M3.905,87.357c0,0-2.182-6.129-1.463-11.902c0.709-5.782,7.229-13.479,7.229-13.479
	S16.341,76.875,3.905,87.357z"/>
<path fill="#EBE212" d="M27.488,28.887c0,4.34,3.523,7.86,7.866,7.86c4.339,0,7.857-3.521,7.857-7.86c0-4.342-3.518-7.86-7.857-7.86
	C31.011,21.026,27.488,24.545,27.488,28.887z M50.551,72.904c0,4.343,3.518,7.859,7.861,7.859c4.338,0,7.855-3.519,7.855-7.859
	c0-4.344-3.52-7.862-7.855-7.862C54.068,65.042,50.551,68.561,50.551,72.904z"/>
<path fill="#2E358F" d="M16.335,34.088c0,2.189-1.779,3.958-3.956,3.958c-2.191,0-3.967-1.769-3.967-3.958s1.776-3.96,3.967-3.96
	C14.556,30.128,16.335,31.9,16.335,34.088z M97.704,38.321c0,14.18-11.492,25.68-25.667,25.68c-14.186,0-25.684-11.5-25.684-25.68
	c0-14.179,11.499-25.679,25.684-25.68C86.212,12.641,97.704,24.141,97.704,38.321z M91.42,35.17c0-4.338-3.52-7.857-7.855-7.857
	c-4.344,0-7.858,3.519-7.858,7.857c0,4.345,3.515,7.863,7.858,7.863C87.902,43.033,91.42,39.514,91.42,35.17z"/>
<path fill="#2AACE3" d="M28.873,42.35c-8.689,0.001-15.728,7.04-15.728,15.722c0,8.68,7.04,15.72,15.728,15.72
	c8.675,0,15.716-7.04,15.716-15.72C44.589,49.389,37.548,42.35,28.873,42.35z M21.393,62.359c-3.047,0-5.517-2.467-5.517-5.51
	c0-3.045,2.47-5.515,5.517-5.515c3.04,0,5.509,2.47,5.509,5.515C26.902,59.893,24.433,62.359,21.393,62.359z"/>
</svg>
