<svg xmlns="http://www.w3.org/2000/svg" xmlns:se="http://svg-edit.googlecode.com" xmlns:xlink="http://www.w3.org/1999/xlink" id="svgcontent" width="205.65" height="395.85" x="0" y="0" viewBox="0 0 205.65 395.85" overflow="hidden"><g mask="" style="pointer-events:all"><title style="pointer-events:inherit">Layer 1</title><g type="text" text="2 RAVE!" font-size="64.99603655099791" font-family="Bebas Neue" fill="000000" text-anchor="start" font-weight="normal" font-style="normal" lineHeight="1" shapeId="0" shapeVal="0" fill-opacity="1" display="null" elemBBoxWidth="137.23336791992188" stroke-opacity="1" stroke-dasharray="none" stroke="ull" id="svg_25" style="pointer-events:inherit"><path id="svg_34" fill="#000000" stroke="#ull" stroke-width="0" d="M54.8889,105.33584C55.22443,98.62517 47.67492,98.9607 48.01045,104.66478C48.01045,104.66478 48.01045,109.19448 48.01045,109.19448C48.01045,109.19448 41.63531,109.19448 41.63531,109.19448C40.96424,100.4706 43.31298,94.26323 51.53356,94.43099C58.07647,94.43099 61.43181,98.28963 61.43181,105.00031C61.43181,118.92497 47.00385,123.79021 48.34598,131.17196C48.34598,131.17196 60.92851,131.17196 60.92851,131.17196C60.92851,131.17196 60.92851,137.21157 60.92851,137.21157C60.92851,137.21157 41.63531,137.21157 41.63531,137.21157C39.1188,120.2671 54.05006,118.92497 54.8889,105.33584C54.8889,105.33584 54.8889,105.33584 54.8889,105.33584M95.4885,137.21157C95.4885,137.21157 88.61005,137.21157 88.61005,137.21157C86.42908,132.51409 92.13316,117.2473 81.39608,119.93157C81.39608,119.93157 81.39608,137.21157 81.39608,137.21157C81.39608,137.21157 74.6854,137.21157 74.6854,137.21157C74.6854,137.21157 74.6854,94.93429 74.6854,94.93429C86.42908,94.43099 94.64967,94.26323 94.64967,108.02012C94.64967,112.38206 93.30753,115.2341 90.28772,116.57623C97.16617,118.7572 93.13976,130.33312 95.4885,137.21157C95.4885,137.21157 95.4885,137.21157 95.4885,137.21157M87.93899,109.53002C87.93899,103.49041 87.43569,99.63177 81.39608,100.9739C81.39608,100.9739 81.39608,113.89196 81.39608,113.89196C85.25472,114.05973 87.93899,114.05973 87.93899,109.53002C87.93899,109.53002 87.93899,109.53002 87.93899,109.53002M113.60733,94.93429C113.60733,94.93429 120.48578,137.21157 120.48578,137.21157C120.48578,137.21157 113.7751,137.21157 113.7751,137.21157C113.7751,137.21157 112.60073,129.49429 112.60073,129.49429C112.60073,129.49429 104.38015,129.49429 104.38015,129.49429C104.38015,129.49429 103.20578,137.21157 103.20578,137.21157C103.20578,137.21157 97.16617,137.21157 97.16617,137.21157C97.16617,137.21157 103.87685,94.93429 103.87685,94.93429C103.87685,94.93429 113.60733,94.93429 113.60733,94.93429C113.60733,94.93429 113.60733,94.93429 113.60733,94.93429M108.40656,102.48381C108.40656,102.48381 105.21898,123.79021 105.21898,123.79021C105.21898,123.79021 111.59413,123.79021 111.59413,123.79021C111.59413,123.79021 108.40656,102.48381 108.40656,102.48381M128.37082,94.93429C128.37082,94.93429 133.40383,129.49429 133.40383,129.49429C133.40383,129.49429 138.43684,94.93429 138.43684,94.93429C138.43684,94.93429 144.64422,94.93429 144.64422,94.93429C144.64422,94.93429 138.10131,137.21157 138.10131,137.21157C138.10131,137.21157 128.20306,137.21157 128.20306,137.21157C128.20306,137.21157 121.66015,94.93429 121.66015,94.93429C121.66015,94.93429 128.37082,94.93429 128.37082,94.93429C128.37082,94.93429 128.37082,94.93429 128.37082,94.93429M154.20694,100.9739C154.20694,100.9739 154.20694,112.71759 154.20694,112.71759C154.20694,112.71759 163.26635,112.71759 163.26635,112.71759C163.26635,112.71759 163.26635,118.7572 163.26635,118.7572C163.26635,118.7572 154.20694,118.7572 154.20694,118.7572C154.20694,118.7572 154.20694,131.17196 154.20694,131.17196C154.20694,131.17196 165.61509,131.17196 165.61509,131.17196C165.61509,131.17196 165.61509,137.21157 165.61509,137.21157C165.61509,137.21157 147.49626,137.21157 147.49626,137.21157C147.49626,137.21157 147.49626,94.93429 147.49626,94.93429C147.49626,94.93429 165.61509,94.93429 165.61509,94.93429C165.61509,94.93429 165.61509,100.9739 165.61509,100.9739C165.61509,100.9739 154.20694,100.9739 154.20694,100.9739C154.20694,100.9739 154.20694,100.9739 154.20694,100.9739M175.51334,127.81662C175.51334,127.81662 170.48033,127.81662 170.48033,127.81662C170.48033,127.81662 169.6415,112.54982 169.6415,112.54982C169.6415,112.54982 169.6415,94.93429 169.6415,94.93429C169.6415,94.93429 176.35217,94.93429 176.35217,94.93429C176.35217,94.93429 176.35217,112.54982 176.35217,112.54982C176.35217,112.54982 175.51334,127.81662 175.51334,127.81662M169.80926,130.83642C169.80926,130.83642 176.18441,130.83642 176.18441,130.83642C176.18441,130.83642 176.18441,137.21157 176.18441,137.21157C176.18441,137.21157 169.80926,137.21157 169.80926,137.21157C169.80926,137.21157 169.80926,130.83642 169.80926,130.83642C169.80926,130.83642 169.80926,130.83642 169.80926,130.83642" style="pointer-events:inherit"/><rect id="svg_35" x="39.11880111694336" y="94.26322174072266" width="137.2333740894289" height="42.94835087078833" fill="#000000" opacity="0" style="pointer-events:inherit"/></g><g id="svg_1" type="text" text="B" font-size="64.99603655099791" font-family="Bebas Neue" fill="000000" text-anchor="start" font-weight="normal" font-style="normal" lineHeight="1" shapeId="0" shapeVal="0" fill-opacity="1" display="null" elemBBoxWidth="26.944419860839844" stroke-opacity="1" stroke-dasharray="none" stroke="ull" style="pointer-events:inherit"><path id="svg_8" fill="#000000" stroke-width="0" d="M38.1188,41.55034C50.45251,41.17084 60.69898,40.41184 60.69898,54.26355C60.69898,59.19704 59.18099,62.42278 55.7655,63.94077C65.06322,67.54601 63.92472,91.6442 50.07301,89.3672C50.07301,89.3672 38.1188,89.3672 38.1188,89.3672C38.1188,89.3672 38.1188,41.55034 38.1188,41.55034C38.1188,41.55034 38.1188,41.55034 38.1188,41.55034M53.868,77.79248C53.868,70.39226 52.91926,66.59727 45.70878,67.92551C45.70878,67.92551 45.70878,82.53622 45.70878,82.53622C50.26276,82.53622 53.868,83.48497 53.868,77.79248C53.868,77.79248 53.868,77.79248 53.868,77.79248M53.109,55.9713C53.109,49.70957 51.59101,47.43257 45.70878,48.38132C45.70878,48.38132 45.70878,61.09453 45.70878,61.09453C50.26276,61.28428 53.109,61.09453 53.109,55.9713C53.109,55.9713 53.109,55.9713 53.109,55.9713" stroke="#ull" style="pointer-events:inherit"/><rect id="svg_9" x="38.11879742950481" y="40.41184291361877" width="26.944421251277646" height="51.23235624756791" fill="#000000" opacity="0" stroke="null" style="pointer-events:inherit"/></g><g id="svg_13" display="null" fill-opacity="1" style="pointer-events:inherit" clip-id="895"><path d="M76.115,64.2242C77.06099,64.2242 77.82875,64.99196 77.82875,65.93795C77.8219,66.20187 77.97613,66.67487 78.5451,67.28496C79.10035,67.88477 80.0155,68.54628 81.16371,69.11867C83.46699,70.27374 86.68198,71.08263 89.825,71.0792C92.18312,71.0792 94.57894,70.6302 96.6046,69.91385C98.62682,69.20436 100.27202,68.19325 101.1049,67.28496C101.67387,66.67487 101.8281,66.20187 101.82125,65.93795C101.82125,64.99196 102.58901,64.2242 103.535,64.2242S105.24875,64.99196 105.24875,65.93795C105.24189,67.38779 104.53926,68.62854 103.6104,69.62594C102.66784,70.6302 101.43737,71.47337 100.01839,72.18629C97.17699,73.59842 93.53698,74.50328 89.825,74.5067C87.03844,74.5067 84.29644,73.99258 81.90062,73.14256C79.5048,72.28568 77.45515,71.12719 76.0396,69.62594C75.11074,68.62854 74.40811,67.38779 74.40125,65.93795C74.40125,64.99196 75.16901,64.2242 76.115,64.2242zM69.26,55.65545L110.39,55.65545M69.26,57.3692L110.39,57.3692C111.33599,57.3692 112.10375,56.60144 112.10375,55.65545S111.33599,53.9417 110.39,53.9417L69.26,53.9417C68.31401,53.9417 67.54625,54.70946 67.54625,55.65545S68.31401,57.3692 69.26,57.3692M93.2525,52.22795L93.2525,59.08295L100.1075,59.08295L100.1075,52.22795L93.2525,52.22795zM93.2525,52.22795L91.53875,52.22795L91.53875,59.08295C91.53875,59.53538 91.72041,59.9741 92.03917,60.29629S92.80007,60.7967 93.2525,60.7967L100.1075,60.7967C100.55993,60.7967 100.99865,60.61505 101.32083,60.29629S101.82125,59.53538 101.82125,59.08295L101.82125,52.22795C101.82125,51.77552 101.63959,51.3368 101.32083,51.01462S100.55993,50.5142 100.1075,50.5142L93.2525,50.5142C92.80007,50.5142 92.36135,50.69586 92.03917,51.01462S91.53875,51.77552 91.53875,52.22795L93.2525,52.22795L93.2525,53.9417L98.39375,53.9417L98.39375,57.3692L94.96625,57.3692L94.96625,52.22795L93.2525,52.22795L93.2525,53.9417L93.2525,52.22795zM79.5425,52.22795L79.5425,59.08295L86.3975,59.08295L86.3975,52.22795L79.5425,52.22795zM79.5425,52.22795L77.82875,52.22795L77.82875,59.08295C77.82875,59.53538 78.01041,59.9741 78.32917,60.29629S79.09007,60.7967 79.5425,60.7967L86.3975,60.7967C86.84993,60.7967 87.28865,60.61505 87.61084,60.29629S88.11125,59.53538 88.11125,59.08295L88.11125,52.22795C88.11125,51.77552 87.92959,51.3368 87.61084,51.01462S86.84993,50.5142 86.3975,50.5142L79.5425,50.5142C79.09007,50.5142 78.65135,50.69586 78.32917,51.01462S77.82875,51.77552 77.82875,52.22795L79.5425,52.22795L79.5425,53.9417L84.68375,53.9417L84.68375,57.3692L81.25625,57.3692L81.25625,52.22795L79.5425,52.22795L79.5425,53.9417L79.5425,52.22795zM113.8175,65.93795L112.10375,65.93795C112.10375,72.09717 109.61196,77.65315 105.57779,81.69074C101.54019,85.72491 95.98422,88.2167 89.825,88.2167C83.66578,88.2167 78.10981,85.72491 74.07221,81.69074C70.03804,77.65315 67.54625,72.09717 67.54625,65.93795C67.54625,59.77874 70.03804,54.22276 74.07221,50.18516C78.10981,46.151 83.66578,43.6592 89.825,43.6592C95.98422,43.6592 101.54019,46.151 105.57779,50.18516C109.61196,54.22276 112.10375,59.77874 112.10375,65.93795L113.8175,65.93795L115.53125,65.93795C115.53125,51.73782 104.02513,40.2317 89.825,40.2317C75.62487,40.2317 64.11875,51.73782 64.11875,65.93795C64.11875,80.13809 75.62487,91.6442 89.825,91.6442C104.02513,91.6442 115.53125,80.13809 115.53125,65.93795L113.8175,65.93795z" id="svg_14" fill="#ffff00" style="pointer-events:inherit"/></g><g type="text" text="RN" font-size="64.99603655099791" font-family="Bebas Neue" fill="000000" text-anchor="start" font-weight="normal" font-style="normal" lineHeight="1" shapeId="0" shapeVal="0" fill-opacity="1" display="null" elemBBoxWidth="54.03435516357422" stroke-opacity="1" stroke-dasharray="none" stroke="ull" id="svg_15" style="pointer-events:inherit"><path id="svg_18" fill="#000000" stroke="#ull" stroke-width="0" d="M145.93447,91.6442C145.93447,91.6442 137.72929,91.6442 137.72929,91.6442C135.12765,86.04066 141.93194,67.82916 129.12385,71.03119C129.12385,71.03119 129.12385,91.6442 129.12385,91.6442C129.12385,91.6442 121.1188,91.6442 121.1188,91.6442C121.1188,91.6442 121.1188,41.21235 121.1188,41.21235C135.12765,40.61197 144.93384,40.41185 144.93384,56.82221C144.93384,62.0255 143.33283,65.42765 139.73055,67.02866C147.93573,69.6303 143.1327,83.43902 145.93447,91.6442C145.93447,91.6442 145.93447,91.6442 145.93447,91.6442M136.92878,58.62335C136.92878,51.4188 136.3284,46.81589 129.12385,48.4169C129.12385,48.4169 129.12385,63.82663 129.12385,63.82663C133.72676,64.02676 136.92878,64.02676 136.92878,58.62335C136.92878,58.62335 136.92878,58.62335 136.92878,58.62335M166.94774,91.6442C166.94774,91.6442 157.14155,55.02107 157.14155,55.02107C157.14155,55.02107 157.14155,91.6442 157.14155,91.6442C157.14155,91.6442 149.937,91.6442 149.937,91.6442C149.937,91.6442 149.937,41.21235 149.937,41.21235C149.937,41.21235 159.94332,41.21235 159.94332,41.21235C159.94332,41.21235 167.94837,71.43144 167.94837,71.43144C167.94837,71.43144 167.94837,41.21235 167.94837,41.21235C167.94837,41.21235 175.15292,41.21235 175.15292,41.21235C175.15292,41.21235 175.15292,91.6442 175.15292,91.6442C175.15292,91.6442 166.94774,91.6442 166.94774,91.6442C166.94774,91.6442 166.94774,91.6442 166.94774,91.6442" style="pointer-events:inherit"/><rect id="svg_19" x="121.11902481047582" y="40.41184616088867" width="54.03412435527571" height="51.232356353741125" fill="#000000" opacity="0" style="pointer-events:inherit"/></g></g><defs><mask id="canvasMaskImageDef" maskUnits="objectBoundingBox" x="0" y="0"><image xmlns:xlink="http://www.w3.org/1999/xlink" id="canvasMaskImage" preserveAspectRatio="none" x="-103.65" y="-36.45" width="400" height="440.0580551523948" xlink:href="http://allinonedesigner.designnbuy.in/media/catalog/product/w/h/white-tees-1_-front_1_3.png"/></mask></defs></svg>