<?xml version="1.0" encoding="utf-8"?>
<!-- Generator: Adobe Illustrator 16.0.0, SVG Export Plug-In . SVG Version: 6.00 Build 0)  -->
<!DOCTYPE svg PUBLIC "-//W3C//DTD SVG 1.1//EN" "http://www.w3.org/Graphics/SVG/1.1/DTD/svg11.dtd">
<svg version="1.1"
	 id="svg660" xmlns:cc="http://creativecommons.org/ns#" xmlns:dc="http://purl.org/dc/elements/1.1/" xmlns:rdf="http://www.w3.org/1999/02/22-rdf-syntax-ns#"
	 xmlns="http://www.w3.org/2000/svg" xmlns:xlink="http://www.w3.org/1999/xlink" x="0px" y="0px" width="143.447px"
	 height="71.281px" viewBox="0 0 143.447 71.281" enable-background="new 0 0 143.447 71.281" xml:space="preserve">
<rect id="rect665" x="0" fill="#FFFF00" width="143.447" height="17.82"/>
<rect id="rect667" x="0" y="35.64" fill="#BE0027" width="143.446" height="17.819"/>
<rect id="rect666" x="0" y="53.458" fill="#3B5AA3" width="143.446" height="17.819"/>
<path id="path664" fill="#239E46" d="M0,0v71.281l53.162-35.54L0,0z"/>
<path fill="#FFFFFF" d="M21.886,19.69c-11.849-0.6-17.245,8.836-17.231,16.131c-0.027,8.627,8.146,15.744,15.706,15.313
	c-4.076-1.928-9.052-7.329-9.098-15.35C11.221,28.521,15.37,22.204,21.886,19.69L21.886,19.69z M21.708,27.435l-1.669-1.307
	l-2.022,0.637l0.728-1.994l-1.229-1.728l2.118,0.074l1.264-1.704l0.584,2.039l2.014,0.675l-1.761,1.187L21.708,27.435z
	 M21.673,34.683l-1.669-1.308l-2.022,0.638l0.727-1.994l-1.229-1.728l2.12,0.073l1.262-1.704l0.585,2.04l2.012,0.675l-1.761,1.187
	L21.673,34.683z M21.708,42.001l-1.669-1.308l-2.022,0.64l0.728-1.992l-1.229-1.729l2.118,0.074l1.264-1.705l0.584,2.041
	l2.014,0.677l-1.761,1.188L21.708,42.001z M21.673,49.393l-1.669-1.31l-2.022,0.64l0.727-1.992l-1.229-1.729l2.12,0.072l1.262-1.703
	l0.585,2.041l2.012,0.674l-1.761,1.188L21.673,49.393z"/>
</svg>
