<?xml version="1.0" encoding="utf-8"?>
<!-- Generator: Adobe Illustrator 16.0.0, SVG Export Plug-In . SVG Version: 6.00 Build 0)  -->
<!DOCTYPE svg PUBLIC "-//W3C//DTD SVG 1.1//EN" "http://www.w3.org/Graphics/SVG/1.1/DTD/svg11.dtd">
<svg version="1.1"
	 id="svg2" xmlns:cc="http://creativecommons.org/ns#" xmlns:dc="http://purl.org/dc/elements/1.1/" xmlns:rdf="http://www.w3.org/1999/02/22-rdf-syntax-ns#" xmlns:inkscape="http://www.inkscape.org/namespaces/inkscape" xmlns:svg="http://www.w3.org/2000/svg" xmlns:sodipodi="http://sodipodi.sourceforge.net/DTD/sodipodi-0.dtd" inkscape:output_extension="org.inkscape.output.svg.inkscape" inkscape:version="0.46+devel r21627" sodipodi:docname="maraca tambor y furruco.svg"
	 xmlns="http://www.w3.org/2000/svg" xmlns:xlink="http://www.w3.org/1999/xlink" x="0px" y="0px" width="759.34px"
	 height="729.035px" viewBox="0 0 759.34 729.035" enable-background="new 0 0 759.34 729.035" xml:space="preserve">
<path fill="#FFFFFF" stroke="#000000" stroke-width="2" stroke-linecap="round" stroke-linejoin="round" d="M351.558,71.913
	c-1.039,0.067-2.014,0.277-2.893,0.626c-7.278,3.999-6.193,12.462-2.362,16.774c-8.219,11.749-17.296,25.521-24.253,39.059
	c8.599-0.009,16.041,4.775,23.326,10.713c4.965-13.701,9.757-30.214,14.568-43.939c6.521-0.792,13.07-5.463,10.508-12.485
	C369.138,77.411,358.83,71.445,351.558,71.913z M321.575,129.226c-5.004,10.087-9.624,23.132-12.271,34.857
	c7.154,0.685,12.751,3.732,18.973,8.635c6.737-10.063,13.044-22.545,17.016-33.033C337.911,134.412,330.164,130.384,321.575,129.226
	L321.575,129.226z M309.188,164.606c-0.562,2.77-1.065,5.554-1.445,8.436c-6.609-0.289-7.571,3.431-7.375,8.001
	c4.078,0.921,8.15,2.372,12.146,4.29c3.217,1.543,6.217,3.351,8.967,5.351c3.802-2.029,2.682-5.556,0.288-9.448
	c2.173-2.594,4.152-5.217,6.025-7.857C321.918,169.349,315.796,166.141,309.188,164.606z M336.969,240.939
	c-9.511,19.812-36.578,26.58-60.456,15.116c-23.878-11.463-35.525-36.816-26.015-56.628c9.511-19.812,36.579-26.58,60.457-15.116
	C334.833,195.774,346.479,221.127,336.969,240.939z M334.29,71.19c1.039,0.067,2.014,0.277,2.893,0.626
	c7.277,3.999,6.193,12.462,2.361,16.775c8.22,11.748,17.297,25.521,24.253,39.059c-8.597-0.009-16.04,4.775-23.326,10.713
	c-4.964-13.701-9.756-30.215-14.567-43.939c-6.521-0.792-13.07-5.463-10.509-12.485C316.71,76.688,327.018,70.723,334.29,71.19z
	 M364.272,128.503c5.004,10.087,9.622,23.132,12.271,34.857c-7.153,0.685-12.75,3.732-18.971,8.635
	c-6.739-10.063-13.045-22.545-17.017-33.033C347.936,133.69,355.683,129.662,364.272,128.503L364.272,128.503z M376.66,163.884
	c0.561,2.77,1.065,5.554,1.446,8.436c6.607-0.289,7.57,3.431,7.375,8.001c-4.078,0.921-8.15,2.372-12.147,4.29
	c-3.215,1.543-6.216,3.351-8.966,5.351c-3.802-2.029-2.681-5.556-0.289-9.448c-2.171-2.594-4.152-5.217-6.025-7.857
	C363.929,168.626,370.051,165.419,376.66,163.884z M348.878,240.217c9.512,19.812,36.579,26.58,60.457,15.116
	c23.878-11.463,35.525-36.816,26.014-56.628c-9.511-19.812-36.577-26.579-60.456-15.116
	C351.015,195.052,339.367,220.405,348.878,240.217z M187.223,294.073c-63.809,3.573-114.752,41.975-115.263,86.36l-0.03,0.002
	l0.038,0.248l0.003,0.127c-0.003,0.664,0.009,1.342,0.028,2.01c0.106,3.646,0.576,7.215,1.337,10.699l25.542,238.075
	c0.003,0.194,0.011,0.394,0.017,0.587c0.981,33.785,40.956,58.955,89.305,56.248c47.879-2.682,85.998-31.715,85.781-65.089
	l32.03-240.211c0.541-2.67,0.49-5.356,0.662-8.086C306.064,301.295,222.776,296.426,187.223,294.073L187.223,294.073
	L187.223,294.073z M133.712,441.724l13.664,234.74l9.602-2.602L141.025,441.02L133.712,441.724z M227.052,443.011l-0.817,235.604
	l-9.712-1.452l3.202-233.981L227.052,443.011L227.052,443.011z M305.859,360.811c-7.87,42.136-55.521,76.799-114.052,80.285
	c-56.943,3.392-105.237-23.883-117.156-63.176l-0.414-21.718c-3.616,9.896-3.707,40.154,1.536,46.209
	c16.963,33.752,63.018,56.059,116.482,52.875c50.693-3.02,92.896-27.437,110.037-60.423c5.875-16.281,3.784-46.665,0.613-51.648
	L305.859,360.811L305.859,360.811z M99.366,634.166c3.868,33.763,42.573,58.346,88.997,55.581
	c45.296-2.697,81.852-30.481,85.472-63.519c-12.789,25.825-45.95,45.565-85.385,47.914
	C147.736,676.567,112.624,659.731,99.366,634.166L99.366,634.166z M81.311,454.078l65.505,214.947l-1.329-22.419L78.675,429.023
	L81.311,454.078L81.311,454.078z M135.54,472.617L99.332,633.652l-1.823-19.328l36.565-166.382L135.54,472.617z M143.474,473.793
	l73.374,193.596l-0.599-20.935l-74.452-195.735L143.474,473.793z M219.087,473.231l-62.115,197.723l-1.204-21.911l63.658-197.537
	L219.087,473.231z M227.456,471.084l46.131,155.333l1.363-16.733l-47.71-158.705L227.456,471.084L227.456,471.084z M297.839,430.595
	l-71.468,234.189l0.779-25.085l73.829-241.948L297.839,430.595z M305.787,359.199c-7.87,42.136-55.521,76.799-114.053,80.285
	c-56.943,3.391-105.237-23.884-117.156-63.176l0.963-20.617c-3.615,9.896-5.083,39.052,0.159,45.107
	c16.963,33.752,63.018,56.06,116.482,52.875c50.693-3.019,92.896-27.436,110.037-60.422c5.875-16.281,0.473-46.471-2.698-51.454
	L305.787,359.199z M306.925,360.582c1.318,40.979-50.273,76.861-115.232,80.145c-64.959,3.284-118.689-27.273-120.006-68.252
	c-1.318-40.979,50.273-76.86,115.232-80.145C251.878,289.045,305.606,319.603,306.925,360.582L306.925,360.582z M190.314,354.668
	c-0.203-0.005-0.418,0.02-0.626,0.039c-3.327,0.296-5.966,3.502-5.898,7.196c0.067,3.693,2.818,6.447,6.145,6.152
	c3.327-0.297,5.966-3.503,5.898-7.197C195.77,357.395,193.358,354.74,190.314,354.668L190.314,354.668z M189.726,357.028
	c2.205-0.196,4.033,1.653,4.078,4.101c0.045,2.448-1.702,4.563-3.907,4.758c-2.205,0.197-4.033-1.614-4.078-4.062
	C185.774,359.377,187.521,357.224,189.726,357.028z M179.256,41.134c0.247-4.437,5.647-4.584,5.831,0.008l8.622,319.836
	c-1.481,5.678-5.308,6.083-7.73,1.128L179.256,41.134L179.256,41.134z M530.741,268.619c-77.72,3.798-139.77,44.611-140.392,91.784
	l-0.035,0.001l0.045,0.265l0.004,0.133c-0.004,0.707,0.012,1.428,0.035,2.137c0.129,3.875,0.7,7.668,1.628,11.372l31.108,253.026
	c0.005,0.206,0.016,0.416,0.021,0.623c1.194,35.907,49.885,62.658,108.773,59.78c58.317-2.851,104.746-33.706,104.482-69.178
	l39.012-255.294c0.659-2.838,0.599-5.694,0.808-8.594C675.492,276.293,574.046,271.119,530.741,268.619L530.741,268.619
	L530.741,268.619z M518.541,445.616l-1.075,235.535l11.843-1.3L527.465,445.9L518.541,445.616L518.541,445.616z M421.064,422.402
	l26.258,242.718l11.566-3.389l-28.963-240.582L421.064,422.402z M648.851,410.164L610.709,661.48l-12.559-4.084l41.025-248.964
	L648.851,410.164L648.851,410.164z M465.557,441.134l16.646,234.674l11.696-2.602l-19.434-232.775L465.557,441.134L465.557,441.134z
	 M579.26,442.42l-0.995,235.536l-11.831-1.451l3.9-233.916L579.26,442.42z M675.261,360.244
	c-9.587,42.124-67.635,76.777-138.936,80.262c-69.366,3.391-128.197-23.876-142.716-63.156l-3.86-20.335
	c-4.404,9.893-1.16,38.765,5.227,44.818c20.664,33.742,76.768,56.043,141.896,52.86c61.753-3.019,113.163-27.429,134.044-60.405
	c7.157-16.277,9.592-46.458,5.729-51.439L675.261,360.244L675.261,360.244z M423.717,633.521
	c4.712,33.753,51.861,58.328,108.413,55.564c55.18-2.696,99.71-30.473,104.12-63.501c-15.579,25.819-55.976,45.554-104.014,47.901
	C482.64,675.911,439.867,659.08,423.717,633.521L423.717,633.521z M401.723,453.484L481.52,668.37l-1.619-22.412l-81.389-217.521
	L401.723,453.484z M467.783,472.018l-44.108,160.99l-2.221-19.322l44.542-166.335L467.783,472.018L467.783,472.018z
	 M477.447,473.194l89.383,193.54l-0.729-20.93l-90.693-195.68L477.447,473.194z M569.559,472.633L493.892,670.3l-1.467-21.905
	l77.546-197.48L569.559,472.633z M579.752,470.486l56.196,155.288l1.659-16.729L579.49,450.387L579.752,470.486L579.752,470.486z
	 M665.491,430.008L578.43,664.131l0.949-25.078l89.938-241.879L665.491,430.008z M374.333,451.942
	c-0.363,16.066,26.962-13.235,22.176,4.594c0.468,16.056,17.502,2.815,22.283,16.12c2.983,13.852,12.145,7.104,19.951,6.477
	c3.801,5.692,9.293,24.28,14.635,8.555c7.336-11.646,15.397,13.31,19.809-1.641c9.563-9.309,21.809-4.064,32.419-1.215
	c8.577,2.201,18.151,2.277,23.308-3.932c9.192,0.078,2.165,26.628,11.056,14.879c1.852-8.643,4.354-15.646,13.094-12.963
	c8.146-7.994,15.274-1.6,22.62,2.533c8.964,1.801,14.251-17.246,22.182-3.979c3.87,18.534,3.217-19.894,12.374-3.731
	c7.365,7.616,12.487-14.97,20.629-4.486c5.968-1.67,7.393-13.022,13.168-3.563c6.616,3.71,10.939-10.049,19.571-6.476
	c6.101-9.472,13.632-2.368,18.745-11.94c-17.31-14.897-3.48-59.959-5.635-85.856c-33.952,50.942-251.072,119.199-289.423,2.815
	C388.291,401.731,396.751,433.078,374.333,451.942L374.333,451.942z M374.336,435.448c-0.368,16.065,27.111-13.243,22.296,4.587
	c0.467,16.056,17.597,2.812,22.401,16.114c2.997,13.851,12.209,7.102,20.058,6.471c3.82,5.69,9.34,24.277,14.713,8.551
	c7.379-11.646,15.479,13.305,19.917-1.646c9.616-9.313,21.929-4.071,32.596-1.225c8.625,2.199,18.25,2.272,23.435-3.938
	c9.244,0.077,2.173,26.627,11.114,14.877c1.861-8.644,4.379-15.648,13.166-12.967c8.189-7.997,15.357-1.604,22.743,2.527
	c9.011,1.797,14.332-17.25,22.303-3.983c3.887,18.531,3.236-19.894,12.44-3.734c7.403,7.613,12.56-14.974,20.742-4.493
	c6-1.672,7.436-13.024,13.24-3.563c6.65,3.708,11.001-10.053,19.679-6.481c6.137-9.473,13.706-2.372,18.851-11.945
	c-17.4-14.894-3.489-59.955-5.649-85.854c-34.146,50.95-247.12,119.004-285.657,2.631
	C386.796,385.311,386.544,417.083,374.336,435.448L374.336,435.448z M675.174,358.632c-9.588,42.125-67.635,76.778-138.936,80.261
	c-69.367,3.391-128.197-23.875-142.717-63.156l-3.859-20.334c-4.405,9.893-1.16,38.766,5.226,44.819
	c20.664,33.742,76.768,56.042,141.896,52.86c61.754-3.019,113.164-27.428,134.044-60.405c7.157-16.277,9.592-46.458,5.729-51.439
	L675.174,358.632z M676.508,345.72c1.604,48.232-61.22,90.464-140.322,94.331c-79.104,3.866-144.529-32.101-146.136-80.333
	c-1.604-48.232,61.22-90.466,140.322-94.331C609.474,261.522,674.902,297.488,676.508,345.72L676.508,345.72z M713.982,335.05
	l-160.99,29.438c-3.239-9.161-5.8-4.4-13.896-0.548c-2.031-1.889-4.763-3.051-7.771-3.051c-6.273,0-11.37,5.041-11.37,11.25
	c0,6.211,5.097,11.229,11.37,11.229c4.428,0,8.257-2.516,10.13-6.174c6.217,4.906,11.199,8.33,12.896-5.362l159.083-29.415
	C716.593,342.557,717.44,334.882,713.982,335.05L713.982,335.05z M380.854,301.827l160.989,29.438
	c3.24-9.161,5.8-4.401,13.896-0.548c2.032-1.889,4.763-3.051,7.771-3.051c6.272,0,11.369,5.041,11.369,11.25
	s-5.097,11.227-11.369,11.227c-4.429,0-8.257-2.514-10.131-6.174c-6.216,4.907-11.199,8.33-12.896-5.363L381.4,309.192
	C378.242,309.333,377.395,301.658,380.854,301.827z"/>
</svg>
