<?xml version="1.0" encoding="utf-8"?>
<!-- Generator: Adobe Illustrator 16.0.0, SVG Export Plug-In . SVG Version: 6.00 Build 0)  -->
<!DOCTYPE svg PUBLIC "-//W3C//DTD SVG 1.1//EN" "http://www.w3.org/Graphics/SVG/1.1/DTD/svg11.dtd">
<svg version="1.1" id="Layer_1" xmlns="http://www.w3.org/2000/svg" xmlns:xlink="http://www.w3.org/1999/xlink" x="0px" y="0px"
	 width="100px" height="100px" viewBox="0 0 100 100" enable-background="new 0 0 100 100" xml:space="preserve">
<path fill="#3B4A9F" d="M66.421,51.334c-10.852,4.115-16.558,15.628-18.482,20.297c-1.924-4.669-7.632-16.182-18.482-20.297
	c-13.744-5.215-28.288-1.781-28.288-1.781s21.897,25.808,46.771,24.13c24.873,1.678,46.771-24.13,46.771-24.13
	S80.164,46.119,66.421,51.334z"/>
<path fill="#1F7277" d="M57.658,43.414c0,0-3.874,3.637-7.515,9.139c-3.422-5.502-7.063-9.139-7.063-9.139
	s-2.882,8.753-0.321,17.521c0.416,1.421,1.039,2.725,1.789,3.916c-0.704,2.988-0.921,6.106-0.339,9.229c0,0,2.803-1.11,5.936-3.33
	c2.944,2.22,5.579,3.33,5.579,3.33c0.502-2.863,0.377-5.723-0.156-8.481c1.034-1.386,1.896-2.938,2.434-4.664
	C60.725,52.167,57.658,43.414,57.658,43.414z"/>
<path fill="#ED174C" d="M65.598,48.872c-1.632,1.21-3.021,2.647-4.204,4.206c0.301-13.592-4.546-26.114-4.546-26.114
	s-3.724,3.737-6.912,9.728c-3.188-5.991-6.912-9.728-6.912-9.728s-4.846,12.522-4.545,26.115c-1.184-1.56-2.573-2.996-4.205-4.207
	c-10.304-7.646-23.268-7.646-23.268-7.646s12.197,27.572,33.111,31.696c0.184,0.271,0.356,0.549,0.552,0.814
	c0,0,0.197-0.214,0.528-0.606c0.016,0.002,0.03,0.007,0.046,0.009c0,0-0.001-0.022-0.003-0.06c0.929-1.104,2.857-3.543,4.695-6.793
	c1.839,3.251,3.768,5.69,4.696,6.794c-0.002,0.036-0.003,0.059-0.003,0.059c0.016-0.002,0.029-0.006,0.045-0.009
	c0.332,0.393,0.528,0.606,0.528,0.606c0.195-0.266,0.367-0.543,0.552-0.813c20.914-4.124,33.114-31.697,33.114-31.697
	S75.902,41.226,65.598,48.872z"/>
<path fill="#EE2C24" d="M68.688,22.106c0,0-11.951,7.097-17.267,19.786c-0.822,1.964-1.313,4-1.557,6.038
	c-0.274-1.702-0.727-3.395-1.415-5.037c-5.317-12.689-17.269-19.786-17.269-19.786s-4.002,33.27,14.1,48.163
	c0,0,3.797-7.031,4.716-15.486c1.092,8.002,4.593,14.484,4.593,14.484C72.692,55.377,68.688,22.106,68.688,22.106z"/>
</svg>
