<?xml version="1.0" encoding="utf-8"?>
<!-- Generator: Adobe Illustrator 16.0.0, SVG Export Plug-In . SVG Version: 6.00 Build 0)  -->
<!DOCTYPE svg PUBLIC "-//W3C//DTD SVG 1.1//EN" "http://www.w3.org/Graphics/SVG/1.1/DTD/svg11.dtd">
<svg version="1.1" id="Layer_1" xmlns="http://www.w3.org/2000/svg" xmlns:xlink="http://www.w3.org/1999/xlink" x="0px" y="0px"
	 width="288px" height="288px" viewBox="0 0 288 288" enable-background="new 0 0 288 288" xml:space="preserve">
<path fill="#010101" d="M224.607,258.502c2.024,9.406-5.935,8.83-5.935,8.83c-4.196-1.159-5.935-6.372-5.935-6.372
	c0-0.577-3.76-5.208-3.76-5.208c-3.043-1.881-3.765-5.068-3.765-5.068c-0.146-0.576-3.473-6.654-3.473-6.654l-3.039-3.185
	c-6.372-4.92-10.132-10.565-10.132-10.565c-2.024-4.342-6.079-6.947-6.079-6.947c-4.773-3.327-10.708-11.725-10.708-11.725
	c-4.055-0.144-9.118-0.576-9.118-0.576c-0.726-2.024-11.435-14.331-11.435-14.331c-1.25,0.519-14.914,16.382-14.914,16.382h-6.051
	c-1.678,4.215-3.889,7.361-6.779,10.85c-1.04,0.832-1.981,5.004-1.981,5.004c-0.101,2.814-2.083,8.551-2.083,8.551
	c-1.25,2.398-3.652,10.01-3.652,10.01c0.315,0.107-0.31,2.089-0.31,2.089l-0.417,4.481c0.941,2.92-2.505,8.449-2.505,8.449
	c-1.041,1.356-1.772,4.797-1.772,4.797c-2.922,3.229-10.428,0.834-10.428,0.834c-3.231-3.131,0.936-7.72,0.936-7.72
	c1.356-1.875,3.237-4.689,3.237-4.689c0-1.255,2.291-4.587,2.291-4.587c-0.102-1.674,0.94-3.445,0.94-3.445v-9.283
	c-0.625-11.469,4.171-19.084,4.171-19.084c1.042-2.291,3.338-9.385,3.338-9.385l-1.356-0.73
	c-0.523-5.736,10.533-26.904,10.533-26.904c-0.209-2.506,1.667-3.754,1.667-3.754c0.838-2.188,2.814-7.51,2.814-7.51
	c-0.102-1.356,1.357-5.844,1.357-5.844c0.625-2.814,1.356-7.195,1.356-7.195c-1.667-4.479-1.875-20.541-1.875-20.541
	c0.311-7.612-3.129-10.849-3.129-10.849c-1.463-1.667-8.867-4.166-8.867-4.166c-1.25-0.732-1.458-2.714-1.458-2.714
	c-0.316-0.417-8.969-6.152-8.969-6.152c-1.981-1.042-4.278-4.796-4.278-4.796c-2.499-4.172-4.797-13.038-4.797-13.038
	c-1.356-7.403-2.504-11.366-2.504-11.366c-2.816-1.981-3.125-3.963-3.125-3.963c-1.255-0.726-0.941-3.125-0.941-3.125
	c-1.148-1.047,0.208-2.606,0.208-2.606c-1.25-1.671,0.625-3.338,0.625-3.338c-1.773-2.399,1.458-3.023,1.458-3.023v-4.903
	l1.148-3.755L94.617,35.08c0.305,0.027,0.615,0.037,0.929,0.032l0.62,24.671l0.935,3.754l0.107,7.718
	c5.314,2.296,5.838,11.056,5.838,11.056c0.523,4.273,3.546,10.843,3.546,10.843c1.356,1.564,5.314,10.218,5.314,10.218
	c1.463,2.296,3.029,2.296,3.029,2.296c1.772,0.208,5.736,1.565,5.736,1.565l1.875,0.208c0.94,0.518,5.112,1.25,5.112,1.25
	c2.607,0.315,6.778,0.732,6.778,0.732c3.13,0.101,9.492,0.101,9.492,0.101c1.142-0.101,4.897-0.518,4.897-0.518l-0.209-2.713
	l-0.726-1.565c-1.047-2.291-0.522-10.009-0.522-10.009l0.522-1.563c-0.209-5.528,5.004-8.236,5.004-8.236
	c1.041-1.773,5.631-1.357,5.631-1.357c10.324,1.25,8.343,13.658,8.343,13.658c1.147,2.19-0.625,4.695-0.625,4.695
	c-0.416,1.565-2.606,1.981-2.606,1.981l-0.938,2.815l-0.209,3.338l0.731-0.107c0.728-0.102,1.459,1.148,1.459,1.148l1.041,1.773
	c1.047,0.73,4.17,1.98,4.17,1.98c1.881,1.25,6.469,3.231,6.469,3.231c3.547,2.398,5.839,7.819,5.839,7.819
	c0.731,1.982,3.653,8.135,3.653,8.135l-0.84,0.521l-0.832,0.316c2.711,6.671-0.31,8.968-0.31,8.968
	c-2.089,2.292-10.642-2.606-10.642-2.606l-1.041,6.57c-0.106,1.875-0.731,6.361-0.731,6.361c0.625,2.605,0.625,12.307,0.625,12.307
	c0.84,0.725,1.672,4.063,1.672,4.063c0,1.256,0.485,3.745,0.485,3.745c0,0.576,2.605,6.224,2.605,6.224
	c1.592,3.903,12.445,27.494,12.445,27.494l-1.01,0.435l1.01,3.184c0.87,2.029,4.636,6.078,4.636,6.078
	c5.353,3.183,9.552,10.42,9.552,10.42c1.735,4.926,4.484,10.858,4.484,10.858c0.434,0,1.736,2.169,1.736,2.169l2.463,3.038
	c1.734,0.289,6.222,6.806,6.222,6.806C224.32,255.318,224.607,258.502,224.607,258.502z M95.631,34.356
	c5.945-0.149,10.612-6.345,10.42-13.839c-0.192-7.493-5.165-13.443-11.109-13.294c-5.945,0.155-10.608,6.351-10.421,13.839
	C84.714,28.556,89.685,34.506,95.631,34.356z M106.644,20.501c0.202,7.91-4.722,14.448-10.992,14.608c-0.033,0-0.069,0-0.102,0
	l-0.01-0.459l-0.934-0.315l0.016,0.742C88.81,34.57,84.116,28.551,83.93,21.078c-0.204-7.905,4.722-14.442,10.997-14.603
	C101.197,6.315,106.447,12.596,106.644,20.501z"/>
</svg>
