<?xml version="1.0" encoding="utf-8"?>
<!-- Generator: Adobe Illustrator 16.0.3, SVG Export Plug-In . SVG Version: 6.00 Build 0)  -->
<!DOCTYPE svg PUBLIC "-//W3C//DTD SVG 1.1 Tiny//EN" "http://www.w3.org/Graphics/SVG/1.1/DTD/svg11-tiny.dtd">
<svg version="1.1" baseProfile="tiny" id="Layer_1" xmlns="http://www.w3.org/2000/svg" xmlns:xlink="http://www.w3.org/1999/xlink"
	 x="0px" y="0px" width="15px" height="15px" viewBox="0 0 15 15" xml:space="preserve">
<path d="M7,4.5C7,5.329,6.328,6,5.5,6S4,5.329,4,4.5S4.672,3,5.5,3S7,3.671,7,4.5z M9.5,3.5c-0.553,0-1,0.447-1,1s0.447,1,1,1
	s1-0.447,1-1S10.053,3.5,9.5,3.5z M10.5,4.5H10C9.999,4.777,9.776,5,9.5,5C9.224,5,9,4.777,9,4.5S9.224,4,9.5,4
	C9.776,4,9.999,4.223,10,4.5H10.5H11C11,3.671,10.329,3,9.5,3C8.672,3,8,3.671,8,4.5S8.672,6,9.5,6C10.329,6,11,5.329,11,4.5H10.5z
	 M3.5,9.5h8 M3.5,10h8c0.276,0,0.5-0.224,0.5-0.5S11.776,9,11.5,9h-8C3.224,9,3,9.224,3,9.5S3.224,10,3.5,10 M14.5,7.5H14
	c0,1.797-0.727,3.418-1.903,4.597C10.918,13.273,9.297,14,7.5,14s-3.418-0.727-4.596-1.903C1.727,10.918,1,9.297,1,7.5
	s0.727-3.418,1.904-4.596C4.082,1.727,5.703,1,7.5,1s3.418,0.727,4.597,1.904C13.273,4.082,14,5.703,14,7.5H14.5H15
	C15,3.357,11.643,0,7.5,0C3.357,0,0,3.357,0,7.5C0,11.643,3.357,15,7.5,15S15,11.643,15,7.5H14.5z"/>
</svg>
