<?xml version="1.0" encoding="utf-8"?>
<!-- Generator: Adobe Illustrator 16.0.0, SVG Export Plug-In . SVG Version: 6.00 Build 0)  -->
<!DOCTYPE svg PUBLIC "-//W3C//DTD SVG 1.1//EN" "http://www.w3.org/Graphics/SVG/1.1/DTD/svg11.dtd">
<svg version="1.1" id="Layer_1" xmlns="http://www.w3.org/2000/svg" xmlns:xlink="http://www.w3.org/1999/xlink" x="0px" y="0px"
	 width="94px" height="79px" viewBox="0 0 94 79" enable-background="new 0 0 94 79" xml:space="preserve">
<path d="M47.048,0.204c-21.737,0-39.359,17.622-39.359,39.359c0,21.738,17.622,39.359,39.359,39.359
	c21.737,0,39.36-17.621,39.36-39.359C86.408,17.826,68.785,0.204,47.048,0.204z M65.633,39.578l-0.496,0.546
	c-0.709,0.78-1.645,1.094-2.09,0.702c-0.446-0.391-0.807-0.707-0.807-0.707v16.918c0,1.052-0.853,1.906-1.906,1.906h-7.235
	c-1.052,0-1.806-0.854-1.789-1.904V45.032h-8.708v12.007c0,1.052-0.854,1.904-1.906,1.904h-6.828c-1.051,0-1.905-0.852-1.905-1.904
	V39.877l-1.309,1.171c-0.722,0.649-1.899,0.558-2.628-0.2l-0.439-0.457c-0.729-0.758-0.691-1.951,0.084-2.662l17.515-16.055
	c0.776-0.712,2.047-0.726,2.839-0.033L65.48,36.915C66.273,37.608,66.34,38.801,65.633,39.578z"/>
</svg>
