<?xml version="1.0" encoding="utf-8"?>
<!-- Generator: Adobe Illustrator 16.0.3, SVG Export Plug-In . SVG Version: 6.00 Build 0)  -->
<!DOCTYPE svg PUBLIC "-//W3C//DTD SVG 1.1 Tiny//EN" "http://www.w3.org/Graphics/SVG/1.1/DTD/svg11-tiny.dtd">
<svg version="1.1" baseProfile="tiny" id="Layer_1" xmlns="http://www.w3.org/2000/svg" xmlns:xlink="http://www.w3.org/1999/xlink"
	 x="0px" y="0px" width="147.672px" height="89.568px" viewBox="0 0 147.672 89.568" xml:space="preserve">
<path fill-rule="evenodd" d="M73.368,84.96c-12.96,0.072-26.064,1.656-38.736,4.608c-4.68-17.496-13.824-33.984-25.56-47.808
	C6.048,38.232,3.024,34.632,0,31.032c9.288,2.088,21.312,3.672,30.024,8.352l0.288,0.216c-0.504-9.792,1.152-17.856,4.176-27.216
	c8.28,4.824,16.992,10.656,22.968,18.288l0.072,0.072c1.728-9.288,5.76-18.648,11.808-25.992L73.44,0
	c5.831,6.84,10.151,12.888,12.96,21.528c1.008,2.952,1.728,5.904,2.304,8.928c6.048-7.488,15.336-13.248,23.544-18.072l1.944,6.12
	c2.088,6.912,2.376,14.041,1.943,21.24c5.257-3.24,11.952-4.752,17.856-6.048c4.607-1.008,9.144-2.016,13.68-3.024
	C133.849,46.944,120.24,63,114.049,83.88l-1.584,5.688C99.721,86.616,86.544,85.032,73.368,84.96z M33.552,45.288
	c-0.648,4.536,1.224,10.872,5.544,13.176c5.256,2.305-0.144-8.783-1.08-10.008C36.72,46.944,35.496,45.864,33.552,45.288z
	 M58.536,36.36c-3.816,3.744-3.24,10.728-0.864,15.191c2.304,3.457,6.768,3.313,7.848-0.936C66.6,44.712,63.648,39.168,58.536,36.36
	z M87.48,36.36c-4.896,2.664-7.2,7.992-6.48,13.464c0.217,1.08,0.504,2.016,1.152,2.88C88.776,59.832,93.024,41.904,87.48,36.36z
	 M113.112,45.072c-4.608,1.44-7.776,6.983-7.776,11.664c0.36,5.76,6.12-2.304,6.84-3.888
	C113.184,50.257,113.544,47.808,113.112,45.072z M73.368,81.144c-12.96,0-30.456,2.449-35.496,3.673
	c-2.448-9.36-8.712-20.736-13.32-28.729c-2.52-4.392-8.28-12.24-12.384-16.992c4.968,1.08,12.528,2.736,16.992,5.76
	c-1.872,10.512,6.408,21.313,13.104,18.72c8.064-3.024,1.512-19.728-7.272-21.96c-0.504-5.832-0.36-14.4,2.088-21.744
	c4.32,2.376,15.048,11.232,17.208,14.904c-5.4,4.68-4.032,26.64,9.072,24.264c11.016-2.016,7.704-20.952-1.656-25.416
	c1.368-8.136,5.328-18.792,11.664-25.992c6.408,7.2,9.864,17.712,11.16,25.849c-9.288,4.536-12.096,23.544-1.08,25.56
	c13.032,2.376,13.608-19.584,8.208-24.264c2.16-3.672,13.68-12.528,18-14.904c2.447,7.344,2.304,15.768,1.872,21.6
	c-8.784,2.232-15.12,19.08-7.056,22.104c6.695,2.593,14.976-8.208,13.104-18.72c4.464-3.024,12.96-5.112,17.928-6.192
	c-11.016,12.888-22.031,29.735-26.28,46.152C104.184,83.593,86.4,81.144,73.368,81.144z M73.656,60.769
	c-16.2,0.287-31.32,4.392-40.176,7.848l0.504,1.367c8.928-3.455,23.616-7.271,39.816-7.56c16.127,0.288,30.6,4.104,39.457,7.56
	l0.575-1.512C104.904,65.017,89.784,61.056,73.656,60.769z M107.353,83.017l0.359-1.152c-8.28-1.8-24.407-4.896-34.2-4.536
	c-9.792-0.36-25.992,2.448-34.2,4.248l0.288,1.44c8.28-1.873,24.408-3.744,33.912-3.744C83.016,79.272,99.072,81.144,107.353,83.017
	z M74.088,64.944c-5.904,0.287-5.904,9.216,0,9.504C79.92,74.16,79.92,65.231,74.088,64.944z M109.584,70.92
	c-0.936,0.145-2.376,2.089-3.239,4.392c-0.864,2.377-0.792,4.177,0.216,4.104c0.936-0.071,2.375-2.088,3.24-4.392
	C110.664,72.72,110.592,70.849,109.584,70.92z M101.376,68.328c-1.728,0-3.527,2.16-4.104,4.824
	c-0.504,2.664,0.433,4.823,2.089,4.823c1.728,0,3.528-2.159,4.104-4.823C103.969,70.488,103.032,68.328,101.376,68.328z
	 M89.352,65.521c-2.447,0.072-4.535,2.52-4.68,5.472c-0.144,2.952,1.729,5.328,4.176,5.256c2.376-0.071,4.537-2.592,4.681-5.544
	C93.673,67.753,91.801,65.448,89.352,65.521z M74.088,63.576c-3.24,0-5.904,2.735-5.904,6.12c0,3.384,2.664,6.12,5.904,6.12
	c3.167,0,5.832-2.736,5.832-6.12C79.92,66.312,77.256,63.576,74.088,63.576z M57.96,65.521c-2.448-0.072-4.32,2.232-4.176,5.184
	c0.144,2.952,2.232,5.473,4.68,5.544c2.448,0.072,4.32-2.304,4.248-5.256C62.568,68.04,60.408,65.593,57.96,65.521z M45.936,68.328
	c-1.728,0-2.664,2.16-2.088,4.824c0.504,2.664,2.376,4.823,4.032,4.823c1.728,0,2.664-2.159,2.088-4.823
	C49.464,70.488,47.664,68.328,45.936,68.328z M37.656,70.92c-0.936-0.071-1.008,1.8-0.216,4.104c0.864,2.304,2.304,4.32,3.312,4.392
	c0.936,0.072,1.008-1.728,0.216-4.104C40.104,73.009,38.664,71.064,37.656,70.92z M57.888,66.888c-0.288,0-0.504,0-0.792,0.072
	c-4.248,1.801-0.792,10.152,2.952,7.344C62.424,72.216,61.272,67.177,57.888,66.888z M101.376,69.696h-0.144
	c-2.88,0.648-3.744,8.279-1.08,6.552c0.863-0.647,1.367-1.584,1.729-2.592C102.096,72.937,102.744,69.84,101.376,69.696z
	 M89.424,66.888c-3.527,0.289-4.824,6.408-1.439,7.849C92.376,75.96,93.96,67.032,89.424,66.888z M45.936,69.696
	c-0.576,0.072-0.792,0.863-0.864,1.368c-0.144,1.655,0.36,3.312,1.368,4.607c2.52,2.736,2.52-1.44,2.016-3.023
	C48.096,71.568,47.232,69.84,45.936,69.696z"/>
</svg>
