<?xml version="1.0" encoding="utf-8"?>
<!-- Generator: Adobe Illustrator 16.0.0, SVG Export Plug-In . SVG Version: 6.00 Build 0)  -->
<!DOCTYPE svg PUBLIC "-//W3C//DTD SVG 1.1//EN" "http://www.w3.org/Graphics/SVG/1.1/DTD/svg11.dtd">
<svg version="1.1" id="Layer_1" xmlns="http://www.w3.org/2000/svg" xmlns:xlink="http://www.w3.org/1999/xlink" x="0px" y="0px"
	 width="308.457px" height="255.669px" viewBox="-4.006 22.165 308.457 255.669"
	 enable-background="new -4.006 22.165 308.457 255.669" xml:space="preserve">
<path fill="none" stroke="#000000" stroke-width="10" d="M164.763,54.296c-12.894-14.082,13.133-37.91,24.833-21.678
	C199.582,46.687,177.384,64.574,164.763,54.296z M199.289,86.344c-10.536-15.503,18.295-32.067,27.415-16.581
	C237.529,85.957,208.275,104.452,199.289,86.344z M238.595,125.118c-13.163-8.911-0.081-29.465,13.549-27.632
	c18.934,2.89,13.873,34.441-4.593,32.895C243.966,129.965,240.772,127.93,238.595,125.118z M271.473,159.354
	c-11.009-13.996,14.377-32.379,25.048-19.052C308.128,155.128,282.224,174.697,271.473,159.354z M207.629,160.122
	c-12.238-11.584,5.726-30.303,19.24-25.417c19.637,6.286,5.037,36.506-12.487,29.641
	C211.971,163.205,209.813,161.634,207.629,160.122z M155.575,160.122c-14.384-13.433,11.897-35.5,24.208-21.448
	C192.272,153.321,168.834,174.104,155.575,160.122z M104.158,159.354c-11.015-13.992,14.384-32.385,25.044-19.046
	C140.776,155.157,114.944,174.69,104.158,159.354z M55.186,160.122c-14.383-13.433,11.897-35.5,24.208-21.448
	C91.883,153.321,68.445,174.104,55.186,160.122z M3.773,159.367c-12.622-16.515,21.514-34.539,27.205-13.821
	C35.186,159.411,12.398,171.484,3.773,159.367z M236.511,196.077c-12.265-12.725,9.549-34.956,22.638-23.374
	c16.163,11.538-5.254,38.272-20.093,25.934C238.219,197.772,237.361,196.928,236.511,196.077z M199.289,227.632
	c-10.339-14.747,16.534-30.933,26.241-17.104c12.662,14.69-12.77,34.706-24.481,20.029L199.289,227.632z M165.996,266.877
	c-11.17-10.219,4.173-26.313,16.332-23.575c18.509,4.774,6.846,34.457-10.131,28.824
	C169.567,271.223,167.433,269.214,165.996,266.877z"/>
</svg>
