<svg xmlns="http://www.w3.org/2000/svg" xmlns:se="http://svg-edit.googlecode.com" xmlns:xlink="http://www.w3.org/1999/xlink" id="svgcontent" width="205.65" height="395.85" x="0" y="0" viewBox="0 0 205.65 395.85" overflow="hidden"><g mask="" style="pointer-events:all"><title style="pointer-events:inherit">Layer 1</title><g id="svg_1" type="text" text="TROUPE" font-size="43.389603995679835" font-family="Aleo" fill="none" text-anchor="middle" font-weight="normal" font-style="normal" lineHeight="1" shapeId="0" shapeVal="45" fill-opacity="1" display="null" elemBBoxWidth="170.0440673828125" stroke="null" stroke-dasharray="none" style="pointer-events:inherit"><path id="svg_15" fill="#ffffff" stroke-width="0" d="M17.80471,157.04356C17.80471,157.04356 43.29586,157.04356 43.29586,157.04356C43.29586,157.04356 43.29586,163.92075 43.29586,163.92075C42.3196,163.81227 40.56234,164.24617 40.34539,163.46516C40.25862,163.16144 40.17184,162.20688 39.97659,160.57979C39.97659,160.57979 32.66551,160.57979 32.66551,160.57979C32.66551,160.57979 32.66551,184.96451 32.66551,184.96451C32.66551,184.96451 35.35564,185.50687 35.35564,185.50687C36.13664,185.70212 35.70275,187.22075 35.81123,188.13191C35.81123,188.13191 25.33273,188.13191 25.33273,188.13191C25.44121,187.0472 24.96393,185.65874 26.07035,185.44179C26.07035,185.44179 28.45676,184.96451 28.45676,184.96451C28.45676,184.96451 28.45676,160.57979 28.45676,160.57979C28.45676,160.57979 21.12398,160.57979 21.12398,160.57979C20.92873,162.20688 20.82026,163.20483 20.73348,163.48686C20.51653,164.26787 18.75927,163.81227 17.80471,163.92075C17.80471,163.92075 17.80471,157.04356 17.80471,157.04356C17.80471,157.04356 17.80471,157.04356 17.80471,157.04356M68.48328,165.65631C68.48328,170.84132 65.1857,173.37959 60.82509,174.46432C61.34576,174.76805 61.80135,175.20193 62.21355,175.78769C62.21355,175.78769 68.96056,184.96451 68.96056,184.96451C68.96056,184.96451 71.39035,185.46349 71.39035,185.46349C72.36661,185.63704 71.99781,187.06888 72.06288,188.13191C72.06288,188.13191 67.55041,188.13191 67.55041,188.13191C66.7911,188.13191 66.27043,187.8065 65.85823,187.24245C65.85823,187.24245 57.78784,176.13481 57.78784,176.13481C57.26718,175.44058 56.87667,175.15855 55.68347,175.15855C55.68347,175.15855 52.90657,175.15855 52.90657,175.15855C52.90657,175.15855 52.90657,184.96451 52.90657,184.96451C52.90657,184.96451 55.37975,185.46349 55.37975,185.46349C56.35601,185.63704 55.9872,187.06888 56.05228,188.13191C56.05228,188.13191 45.59548,188.13191 45.59548,188.13191C45.66057,187.06888 45.27007,185.63704 46.24632,185.46349C46.24632,185.46349 48.71951,184.96451 48.71951,184.96451C48.71951,184.96451 48.71951,160.21097 48.71951,160.21097C48.71951,160.21097 46.24632,159.71201 46.24632,159.71201C45.27007,159.53844 45.66057,158.1066 45.59548,157.04356C45.59548,157.04356 57.09362,157.04356 57.09362,157.04356C63.77555,157.08696 68.48328,159.25641 68.48328,165.65631C68.48328,165.65631 68.48328,165.65631 68.48328,165.65631M64.38301,165.96004C64.38301,161.90315 61.49762,160.34114 57.09362,160.36284C57.09362,160.36284 52.90657,160.36284 52.90657,160.36284C52.90657,160.36284 52.90657,172.09961 52.90657,172.09961C52.90657,172.09961 56.89837,172.09961 56.89837,172.09961C61.34576,172.03453 64.38301,170.25557 64.38301,165.96004C64.38301,165.96004 64.38301,165.96004 64.38301,165.96004M103.69361,166.17699C105.16884,169.97354 105.16884,175.22363 103.69361,179.02019C101.52415,184.5957 96.94658,188.45734 89.46195,188.45734C81.99901,188.45734 77.42145,184.55231 75.25199,179.02019C73.77676,175.22363 73.77676,169.97354 75.25199,166.17699C77.42145,160.62317 81.97732,156.69646 89.46195,156.69646C96.94658,156.69646 101.52415,160.62317 103.69361,166.17699C103.69361,166.17699 103.69361,166.17699 103.69361,166.17699M99.7018,177.71851C100.72145,174.78975 100.74314,170.38574 99.7018,167.45697C98.22657,163.20483 94.99408,160.34114 89.46195,160.34114C82.12918,160.34114 78.4411,165.13565 78.4411,172.59859C78.4411,178.39105 80.80581,182.23099 84.92778,183.96655C87.57452,185.07298 91.37107,185.07298 94.01782,183.96655C96.79473,182.81674 98.68215,180.66898 99.7018,177.71851C99.7018,177.71851 99.7018,177.71851 99.7018,177.71851M122.1991,184.79095C127.25393,184.79095 130.37796,181.12456 130.37796,175.93956C130.37796,175.93956 130.37796,160.21097 130.37796,160.21097C128.68578,159.92894 127.73121,159.75539 127.51427,159.71201C126.45124,159.58183 126.95021,158.0849 126.84174,157.04356C126.84174,157.04356 137.71073,157.04356 137.71073,157.04356C137.60225,158.0849 138.07953,159.49506 137.0382,159.71201C137.0382,159.71201 134.56502,160.21097 134.56502,160.21097C134.56502,160.21097 134.56502,175.93956 134.56502,175.93956C134.6735,183.25064 129.53186,188.50073 122.1991,188.50073C114.88802,188.50073 109.81148,183.25064 109.81148,175.93956C109.81148,175.93956 109.81148,160.21097 109.81148,160.21097C108.42303,159.92894 107.59864,159.77708 107.3383,159.71201C106.31865,159.56013 106.79593,158.0849 106.68746,157.04356C106.68746,157.04356 117.55645,157.04356 117.55645,157.04356C117.44799,158.0849 117.92527,159.58183 116.88392,159.71201C116.66698,159.75539 115.71241,159.92894 113.99854,160.21097C113.99854,160.21097 113.99854,175.91786 113.99854,175.91786C113.93345,181.08118 117.16595,184.79095 122.1991,184.79095C122.1991,184.79095 122.1991,184.79095 122.1991,184.79095M151.61696,157.04356C158.66771,156.95679 163.28865,160.34114 163.20188,166.67596C163.1151,173.03249 158.34229,176.61209 151.61696,176.50362C151.61696,176.50362 147.21295,176.50362 147.21295,176.50362C147.21295,176.50362 147.21295,184.96451 147.21295,184.96451C147.21295,184.96451 149.68615,185.46349 149.68615,185.46349C150.70578,185.61534 150.2285,187.09058 150.33698,188.13191C150.33698,188.13191 139.90189,188.13191 139.90189,188.13191C140.01035,187.09058 139.53307,185.65874 140.55272,185.46349C140.55272,185.46349 143.0259,184.96451 143.0259,184.96451C143.0259,184.96451 143.0259,160.21097 143.0259,160.21097C141.63745,159.92894 140.81307,159.77708 140.55272,159.71201C139.53307,159.56013 140.01035,158.0849 139.90189,157.04356C139.90189,157.04356 151.61696,157.04356 151.61696,157.04356C151.61696,157.04356 151.61696,157.04356 151.61696,157.04356M151.61696,173.16264C156.02097,173.22774 158.99314,170.81963 158.99314,166.67596C158.99314,162.42383 156.21622,160.29776 151.61696,160.36284C151.61696,160.36284 147.21295,160.36284 147.21295,160.36284C147.21295,160.36284 147.21295,173.16264 147.21295,173.16264C147.21295,173.16264 151.61696,173.16264 151.61696,173.16264C151.61696,173.16264 151.61696,173.16264 151.61696,173.16264M165.56658,157.04356C165.56658,157.04356 187.84693,157.04356 187.84693,157.04356C187.84693,157.04356 187.84693,164.5499 187.84693,164.5499C186.67543,164.44142 185.00495,164.9621 184.85308,163.79059C184.83139,163.66042 184.72292,162.55399 184.54937,160.47131C184.54937,160.47131 172.92105,160.47131 172.92105,160.47131C172.92105,160.47131 172.92105,170.79794 172.92105,170.79794C172.92105,170.79794 184.3758,170.79794 184.3758,170.79794C184.3758,170.79794 184.3758,174.09552 184.3758,174.09552C184.3758,174.09552 172.92105,174.09552 172.92105,174.09552C172.92105,174.09552 172.92105,184.70418 172.92105,184.70418C172.92105,184.70418 184.57105,184.70418 184.57105,184.70418C184.72292,182.77335 184.83139,181.75371 184.85308,181.62354C185.02664,180.47372 186.67543,180.9944 187.84693,180.88593C187.84693,180.88593 187.84693,188.13191 187.84693,188.13191C187.84693,188.13191 165.56658,188.13191 165.56658,188.13191C165.67505,187.09058 165.19777,185.65874 166.21743,185.46349C166.21743,185.46349 168.6906,184.96451 168.6906,184.96451C168.6906,184.96451 168.6906,160.21097 168.6906,160.21097C167.30216,159.92894 166.47776,159.77708 166.21743,159.71201C165.19777,159.56013 165.67505,158.0849 165.56658,157.04356C165.56658,157.04356 165.56658,157.04356 165.56658,157.04356" style="pointer-events:inherit"/><rect id="svg_16" x="17.805700486060232" y="156.69531249301508" width="170.04134287149645" height="31.80644980072975" fill="#000000" opacity="0" style="pointer-events:inherit"/></g><g type="text" text="ELITE DANCE" font-size="28.764264365792858" font-family="Aleo" fill="ffffff" text-anchor="start" font-weight="normal" font-style="normal" lineHeight="1" shapeId="9" shapeVal="90" fill-opacity="1" display="null" elemBBoxWidth="177.3986358642578" stroke="null" stroke-dasharray="none" id="svg_8" style="pointer-events:inherit"><path id="svg_17" fill="#ffffff" stroke-width="0" d="M15.837489676513671,110.21281349121094 C15.837489676513671,110.21281349121094 26.94518967651367,100.47705349121094 26.94518967651367,100.47705349121094 C26.94518967651367,100.47705349121094 30.22520967651367,104.21927349121094 30.22520967651367,104.21927349121094 C29.59375967651367,104.67711349121095 28.98846967651367,105.66663349121094 28.400849676513673,105.14894349121093 C28.333159676513674,105.09353349121093 27.79560967651367,104.58932349121093 26.799019676513673,103.62686349121094 C26.799019676513673,103.62686349121094 21.00181967651367,108.70803349121094 21.00181967651367,108.70803349121094 C21.00181967651367,108.70803349121094 25.51419967651367,113.85630349121094 25.51419967651367,113.85630349121094 C25.51419967651367,113.85630349121094 31.224879676513673,108.85096349121093 31.224879676513673,108.85096349121093 C31.224879676513673,108.85096349121093 32.665809676513675,110.49494349121093 32.665809676513675,110.49494349121093 C32.665809676513675,110.49494349121093 26.95512967651367,115.50028349121094 26.95512967651367,115.50028349121094 C26.95512967651367,115.50028349121094 31.59075967651367,120.78915349121094 31.59075967651367,120.78915349121094 C31.59075967651367,120.78915349121094 37.39877967651367,115.69849349121094 37.39877967651367,115.69849349121094 C36.63078967651367,114.66954349121093 36.239319676513674,114.11380349121094 36.19324967651367,114.03943349121093 C35.77734967651367,113.39036349121093 36.82685967651367,112.92947349121093 37.36349967651367,112.36348349121093 C37.36349967651367,112.36348349121093 40.52975967651367,115.97592349121093 40.52975967651367,115.97592349121093 C40.52975967651367,115.97592349121093 29.422059676513673,125.71168349121093 29.422059676513673,125.71168349121093 C29.02109967651367,125.14513349121094 28.157489676513674,124.63985349121094 28.58050967651367,124.09696349121094 C28.58050967651367,124.09696349121094 29.595459676513673,122.76750349121093 29.595459676513673,122.76750349121093 C29.595459676513673,122.76750349121093 18.77899967651367,110.42681349121094 18.77899967651367,110.42681349121094 C17.963559676513672,110.89291349121095 17.48619967651367,111.17743349121093 17.32797967651367,111.25874349121094 C16.75327967651367,111.62859349121094 16.346599676513673,110.68456349121094 15.837489676513671,110.21281349121094 C15.837489676513671,110.21281349121094 15.837489676513671,110.21281349121094 15.837489676513671,110.21281349121094 M50.61376967651367,104.02197349121093 C50.61376967651367,104.02197349121093 53.045579676513675,107.79311349121093 53.045579676513675,107.79311349121093 C53.045579676513675,107.79311349121093 40.91022967651367,115.61853349121094 40.91022967651367,115.61853349121094 C40.564579676513674,115.00289349121094 39.83258967651367,114.34544349121094 40.31414967651367,113.89801349121095 C40.31414967651367,113.89801349121095 41.51279967651367,112.73146349121095 41.51279967651367,112.73146349121095 C41.51279967651367,112.73146349121095 32.619559676513674,98.94020349121094 32.619559676513674,98.94020349121094 C32.619559676513674,98.94020349121094 31.06237967651367,99.55074349121094 31.06237967651367,99.55074349121094 C30.456109676513673,99.80479349121094 30.15925967651367,98.86675349121094 29.74106967651367,98.29787349121094 C29.74106967651367,98.29787349121094 35.56700967651367,94.54104349121094 35.56700967651367,94.54104349121094 C35.91265967651367,95.15669349121094 36.64464967651367,95.81413349121094 36.16308967651367,96.26157349121094 C36.16308967651367,96.26157349121094 34.96443967651367,97.42812349121094 34.96443967651367,97.42812349121094 C34.96443967651367,97.42812349121094 43.72517967651367,111.01390349121094 43.72517967651367,111.01390349121094 C43.72517967651367,111.01390349121094 49.97414967651367,106.98427349121093 49.97414967651367,106.98427349121093 C49.59030967651367,106.25634349121094 49.248949676513675,105.62082349121094 49.21076967651367,105.50853349121094 C48.92203967651367,104.82195349121093 49.99224967651367,104.49120349121094 50.61376967651367,104.02197349121093 C50.61376967651367,104.02197349121093 50.61376967651367,104.02197349121093 50.61376967651367,104.02197349121093 M51.19680967651367,87.74942349121093 C51.19680967651367,87.74942349121093 49.87709967651367,88.77702349121094 49.87709967651367,88.77702349121094 C49.87709967651367,88.77702349121094 57.199209676513675,103.46291349121094 57.199209676513675,103.46291349121094 C58.11925967651367,103.21311349121093 58.685439676513674,103.05939349121094 58.91062967651367,102.99532349121094 C59.463939676513675,102.84802349121094 59.662139676513675,103.89021349121094 60.002439676513674,104.41158349121093 C60.002439676513674,104.41158349121093 53.78570967651367,107.51112349121094 53.78570967651367,107.51112349121094 C53.542039676513674,106.86123349121094 52.83533967651367,106.15292349121094 53.382519676513674,105.73546349121094 C53.382519676513674,105.73546349121094 54.702229676513674,104.70786349121093 54.702229676513674,104.70786349121093 C54.702229676513674,104.70786349121093 47.38010967651367,90.02197349121093 47.38010967651367,90.02197349121093 C47.38010967651367,90.02197349121093 45.681569676513675,90.48314349121094 45.681569676513675,90.48314349121094 C45.12825967651367,90.63045349121094 44.93004967651367,89.58826349121094 44.58975967651367,89.06689349121093 C44.58975967651367,89.06689349121093 50.806479676513675,85.96734349121094 50.806479676513675,85.96734349121094 C51.05015967651367,86.61724349121094 51.75043967651367,87.31268349121093 51.19680967651367,87.74942349121093 C51.19680967651367,87.74942349121093 51.19680967651367,87.74942349121093 51.19680967651367,87.74942349121093 M53.060909676513674,84.62169349121093 C53.060909676513674,84.62169349121093 68.92570967651366,78.80065349121094 68.92570967651366,78.80065349121094 C68.92570967651366,78.80065349121094 70.49614967651368,83.08077349121093 70.49614967651368,83.08077349121093 C69.86378967651368,83.23619349121094 68.86920967651366,83.90751349121093 68.55584967651367,83.47098349121094 C68.43247967651368,83.30177349121094 68.16049967651367,82.72750349121094 67.66741967651367,81.75944349121093 C67.66741967651367,81.75944349121093 63.11726967651367,83.42897349121094 63.11726967651367,83.42897349121094 C63.11726967651367,83.42897349121094 68.68564967651366,98.60516349121093 68.68564967651366,98.60516349121093 C68.68564967651366,98.60516349121093 70.48374967651367,98.32841349121094 70.48374967651367,98.32841349121094 C71.01440967651368,98.27158349121093 71.09114967651368,99.31580349121094 71.36672967651367,99.85811349121093 C71.36672967651367,99.85811349121093 64.84528967651367,102.25093349121093 64.84528967651367,102.25093349121093 C64.66508967651367,101.55106349121094 64.05098967651367,100.79593349121095 64.69004967651367,100.40825349121094 C64.69004967651367,100.40825349121094 66.06626967651367,99.56626349121093 66.06626967651367,99.56626349121093 C66.06626967651367,99.56626349121093 60.49787967651367,84.39006349121094 60.49787967651367,84.39006349121094 C60.49787967651367,84.39006349121094 55.93421967651367,86.06454349121094 55.93421967651367,86.06454349121094 C56.18425967651367,87.12177349121094 56.34463967651367,87.76763349121094 56.35503967651367,87.96297349121093 C56.39835967651367,88.49858349121094 55.20066967651367,88.61632349121093 54.63134967651367,88.90181349121093 C54.63134967651367,88.90181349121093 53.060909676513674,84.62169349121093 53.060909676513674,84.62169349121093 C53.060909676513674,84.62169349121093 53.060909676513674,84.62169349121093 53.060909676513674,84.62169349121093 M71.86460967651368,77.98005349121094 C71.86460967651368,77.98005349121094 86.33853967651368,75.03529349121094 86.33853967651368,75.03529349121094 C86.33853967651368,75.03529349121094 87.33063967651367,79.91161349121094 87.33063967651367,79.91161349121094 C86.55524967651367,79.99598349121094 85.53887967651367,80.55501349121094 85.28538967651367,79.81404349121094 C85.25408967651367,79.73234349121094 85.03738967651367,79.02792349121094 84.64937967651368,77.69789349121093 C84.64937967651368,77.69789349121093 77.09531967651367,79.23478349121093 77.09531967651367,79.23478349121093 C77.09531967651367,79.23478349121093 78.46016967651367,85.94324349121094 78.46016967651367,85.94324349121094 C78.46016967651367,85.94324349121094 85.90147967651367,84.42929349121094 85.90147967651367,84.42929349121094 C85.90147967651367,84.42929349121094 86.33731967651367,86.57149349121093 86.33731967651367,86.57149349121093 C86.33731967651367,86.57149349121093 78.89600967651367,88.08544349121094 78.89600967651367,88.08544349121094 C78.89600967651367,88.08544349121094 80.29812967651367,94.97712349121093 80.29812967651367,94.97712349121093 C80.29812967651367,94.97712349121093 87.86628967651367,93.43736349121093 87.86628967651367,93.43736349121093 C87.70974967651367,92.16297349121093 87.64544967651368,91.48624349121094 87.64233967651367,91.39882349121093 C87.60311967651367,90.62893349121094 88.74303967651367,90.74925349121094 89.48973967651366,90.52395349121093 C89.48973967651366,90.52395349121093 90.44742967651368,95.23115349121093 90.44742967651368,95.23115349121093 C90.44742967651368,95.23115349121093 75.97350967651367,98.17590349121093 75.97350967651367,98.17590349121093 C75.90633967651367,97.48508349121093 75.40703967651368,96.61800349121094 76.04362967651367,96.35639349121094 C76.04362967651367,96.35639349121094 77.58431967651367,95.70537349121093 77.58431967651367,95.70537349121093 C77.58431967651367,95.70537349121093 74.31269967651367,79.62479349121094 74.31269967651367,79.62479349121094 C73.37343967651367,79.62509349121093 72.81781967651366,79.63539349121093 72.64009967651367,79.62752349121094 C71.95763967651368,79.66363349121093 72.07270967651368,78.64220349121094 71.86460967651368,77.98005349121094 C71.86460967651368,77.98005349121094 71.86460967651368,77.98005349121094 71.86460967651368,77.98005349121094 M106.24923967651367,73.86641349121093 C112.27618967651367,73.87420349121093 116.38176967651367,78.33535349121094 116.21580967651367,84.35946349121093 C116.12854967651367,87.60877349121094 114.99013967651368,90.11995349121094 113.27740967651367,91.77210349121094 C111.37413967651368,93.62221349121094 108.91247967651367,94.52728349121094 105.87834967651368,94.47267349121094 C105.87834967651368,94.47267349121094 96.37329967651367,94.30159349121094 96.37329967651367,94.30159349121094 C96.45761967651367,93.61266349121094 96.15834967651367,92.65789349121094 96.83652967651368,92.54064349121094 C96.83652967651368,92.54064349121094 98.48177967651367,92.23941349121094 98.48177967651367,92.23941349121094 C98.48177967651367,92.23941349121094 98.77708967651367,75.83205349121094 98.77708967651367,75.83205349121094 C97.86014967651367,75.62855349121094 97.31551967651367,75.51806349121094 97.14374967651368,75.47181349121094 C96.46969967651367,75.35899349121094 96.80365967651367,74.38686349121093 96.74418967651367,73.69533349121093 C96.74418967651367,73.69533349121093 106.24923967651367,73.86641349121093 106.24923967651367,73.86641349121093 C106.24923967651367,73.86641349121093 106.24923967651367,73.86641349121093 106.24923967651367,73.86641349121093 M105.91897967651367,92.21504349121093 C110.52025967651367,92.31224349121094 113.29730967651368,89.06818349121093 113.35422967651367,84.30795349121094 C113.39907967651367,79.41804349121094 110.85275967651367,76.23640349121094 106.20859967651367,76.12404349121094 C106.20859967651367,76.12404349121094 101.57829967651367,76.04070349121093 101.57829967651367,76.04070349121093 C101.57829967651367,76.04070349121093 101.28868967651367,92.13170349121094 101.28868967651367,92.13170349121094 C101.28868967651367,92.13170349121094 105.91897967651367,92.21504349121093 105.91897967651367,92.21504349121093 C105.91897967651367,92.21504349121093 105.91897967651367,92.21504349121093 105.91897967651367,92.21504349121093 M135.90012967651367,96.98399349121094 C136.47197967651368,97.20308349121093 135.99824967651367,98.01665349121095 135.94541967651367,98.63701349121094 C135.94541967651367,98.63701349121094 130.15301967651368,97.45853349121094 130.15301967651368,97.45853349121094 C130.33555967651367,96.84989349121093 130.2312296765137,95.99209349121094 130.8575596765137,95.94339349121094 C130.8575596765137,95.94339349121094 132.07915967651365,95.85437349121094 132.07915967651365,95.85437349121094 C132.07915967651365,95.85437349121094 131.32935967651366,91.46023349121094 131.32935967651366,91.46023349121094 C131.32935967651366,91.46023349121094 122.61963967651367,89.68822349121093 122.61963967651367,89.68822349121093 C122.61963967651367,89.68822349121093 120.21251967651366,93.44007349121094 120.21251967651366,93.44007349121094 C120.21251967651366,93.44007349121094 121.30222967651368,93.99934349121094 121.30222967651368,93.99934349121094 C121.88530967651367,94.23538349121094 121.41443967651367,95.03487349121093 121.35873967651368,95.66931349121094 C121.35873967651368,95.66931349121094 115.56634967651367,94.49084349121094 115.56634967651367,94.49084349121094 C115.74601967651367,93.89629349121094 115.65577967651367,93.04136349121094 116.25391967651368,92.98693349121093 C116.25391967651368,92.98693349121093 117.45020967651367,92.87807349121094 117.45020967651367,92.87807349121094 C117.45020967651367,92.87807349121094 128.48361967651368,76.08707349121094 128.48361967651368,76.08707349121094 C128.48361967651368,76.08707349121094 131.26002967651368,76.65194349121094 131.26002967651368,76.65194349121094 C131.26002967651368,76.65194349121094 134.84147967651367,96.41636349121094 134.84147967651367,96.41636349121094 C134.84147967651367,96.41636349121094 135.90012967651367,96.98399349121094 135.90012967651367,96.98399349121094 M123.78210967651367,87.86998349121095 C123.78210967651367,87.86998349121095 130.9697496765137,89.33232349121094 130.9697496765137,89.33232349121094 C130.9697496765137,89.33232349121094 129.55897967651367,80.97307349121094 129.55897967651367,80.97307349121094 C129.45080967651367,80.42270349121094 129.38251967651365,79.74835349121093 129.34004967651367,78.94716349121094 C127.56883967651368,82.31471349121094 125.67369967651368,84.77643349121094 123.78210967651367,87.86998349121095 C123.78210967651367,87.86998349121095 123.78210967651367,87.86998349121095 123.78210967651367,87.86998349121095 M152.55347967651366,100.55093349121094 C152.67322967651367,100.14908349121094 152.82277967651368,99.71288349121093 153.02640967651368,99.22125349121094 C153.02640967651368,99.22125349121094 157.80920967651366,87.67454349121094 157.80920967651366,87.67454349121094 C156.84434967651367,87.07250349121094 156.30373967651366,86.72404349121094 156.16858967651368,86.63692349121094 C155.58259967651367,86.28523349121093 156.24917967651368,85.50277349121095 156.44693967651367,84.83746349121094 C156.44693967651367,84.83746349121094 162.79828967651366,87.46828349121094 162.79828967651366,87.46828349121094 C162.46767967651368,88.07855349121094 162.40224967651366,89.06332349121094 161.70941967651368,88.93201349121094 C161.70941967651368,88.93201349121094 160.06805967651368,88.61018349121093 160.06805967651368,88.61018349121093 C160.06805967651368,88.61018349121093 152.98466967651368,105.71101349121093 152.98466967651368,105.71101349121093 C152.07106967651367,105.28588349121094 151.17020967651368,105.13067349121094 150.95831967651367,104.32682349121094 C150.95831967651367,104.32682349121094 145.88170967651368,85.42711349121093 145.88170967651368,85.42711349121093 C145.73442967651368,85.89539349121094 145.5771096765137,86.31280349121094 145.42299967651368,86.68485349121093 C145.42299967651368,86.68485349121093 140.60716967651368,98.31128349121093 140.60716967651368,98.31128349121093 C141.58531967651368,98.91882349121093 142.12593967651367,99.26729349121094 142.24779967651367,99.34890349121093 C142.83377967651367,99.70059349121094 142.16719967651366,100.48305349121094 141.96945967651368,101.14836349121094 C141.96945967651368,101.14836349121094 135.63138967651366,98.52304349121094 135.63138967651366,98.52304349121094 C135.96200967651367,97.91277349121094 136.03292967651367,96.91472349121094 136.70696967651367,97.05381349121095 C136.70696967651367,97.05381349121095 138.34831967651365,97.37564349121094 138.34831967651365,97.37564349121094 C138.34831967651365,97.37564349121094 144.62814967651366,82.21476349121093 144.62814967651366,82.21476349121093 C143.84930967651368,81.68978349121093 143.38292967651367,81.38763349121093 143.23997967651368,81.28172349121094 C142.65399967651368,80.93003349121093 143.32059967651367,80.14757349121093 143.51832967651367,79.48226349121094 C143.51832967651367,79.48226349121094 146.76044967651367,80.82519349121094 146.76044967651367,80.82519349121094 C147.29971967651366,81.06413349121094 147.34642967651368,81.17688349121094 147.46907967651367,81.63243349121093 C147.46907967651367,81.63243349121093 152.55347967651366,100.55093349121094 152.55347967651366,100.55093349121094 M159.73291967651366,97.61580349121094 C163.04028967651368,92.42426349121094 169.07034967651367,90.96243349121093 174.25191967651367,94.36577349121094 C175.60712967651367,95.26324349121094 177.15504967651367,96.79506349121094 178.82947967651367,99.03842349121093 C178.82947967651367,99.03842349121093 176.24847967651368,103.08977349121093 176.24847967651368,103.08977349121093 C175.63211967651367,102.61183349121094 174.51706967651367,102.32778349121094 174.83729967651368,101.61096349121094 C174.82410967651367,101.55138349121094 176.02313967651367,99.34807349121094 176.04190967651368,99.29183349121094 C173.14921967651367,95.82897349121095 170.16501967651368,94.49057349121094 167.09701967651367,95.26447349121094 C165.12450967651367,95.76427349121093 163.47146967651366,97.04740349121093 162.13461967651367,99.14585349121094 C159.66952967651366,103.01525349121094 160.07321967651367,107.46740349121094 163.79706967651367,109.83974349121094 C166.12598967651368,111.32343349121093 167.36250967651367,111.30971349121094 169.24113967651368,111.09114349121094 C169.62721967651368,111.04721349121094 169.94484967651368,111.16430349121094 170.00862967651366,111.54599349121094 C170.00862967651366,111.54599349121094 170.28911967651368,113.14005349121094 170.28911967651368,113.14005349121094 C167.67226967651368,113.92853349121094 165.02956967651366,113.47274349121093 162.36101967651368,111.77269349121093 C157.36354967651368,108.58895349121093 156.48735967651368,102.71030349121094 159.73291967651366,97.61580349121094 C159.73291967651366,97.61580349121094 159.73291967651366,97.61580349121094 159.73291967651366,97.61580349121094 M182.16194967651367,99.96194349121095 C182.16194967651367,99.96194349121095 193.23604967651366,109.73593349121094 193.23604967651366,109.73593349121094 C193.23604967651366,109.73593349121094 189.94314967651368,113.46683349121093 189.94314967651368,113.46683349121093 C189.40845967651367,112.89899349121094 188.34975967651368,112.42498349121094 188.78819967651367,111.77608349121094 C188.83452967651368,111.70186349121093 189.26596967651366,111.10435349121093 190.09334967651367,109.99305349121093 C190.09334967651367,109.99305349121093 184.31367967651366,104.89192349121095 184.31367967651366,104.89192349121095 C184.31367967651366,104.89192349121095 179.78357967651368,110.02461349121094 179.78357967651368,110.02461349121094 C179.78357967651368,110.02461349121094 185.47697967651368,115.04960349121095 185.47697967651368,115.04960349121095 C185.47697967651368,115.04960349121095 184.03038967651366,116.68860349121094 184.03038967651366,116.68860349121094 C184.03038967651366,116.68860349121094 178.33699967651367,111.66361349121094 178.33699967651367,111.66361349121094 C178.33699967651367,111.66361349121094 173.68317967651367,116.93647349121093 173.68317967651367,116.93647349121093 C173.68317967651367,116.93647349121093 179.47360967651366,122.04712349121094 179.47360967651366,122.04712349121094 C180.39610967651367,121.15405349121093 180.89731967651366,120.69484349121095 180.96519967651366,120.63966349121094 C181.55586967651368,120.14430349121093 182.14696967651366,121.12639349121093 182.77682967651367,121.58639349121094 C182.77682967651367,121.58639349121094 179.59814967651369,125.18789349121093 179.59814967651369,125.18789349121093 C179.59814967651369,125.18789349121093 168.52405967651367,115.41391349121093 168.52405967651367,115.41391349121093 C169.03477967651366,114.94391349121094 169.42567967651368,114.02287349121093 170.01813967651367,114.37312349121095 C170.01813967651367,114.37312349121095 171.46628967651367,115.21005349121094 171.46628967651367,115.21005349121094 C171.46628967651367,115.21005349121094 182.32521967651368,102.90671349121094 182.32521967651368,102.90671349121094 C181.75882967651367,102.15744349121094 181.41568967651367,101.72031349121093 181.31483967651369,101.57376349121094 C180.87466967651366,101.05098349121094 181.75905967651366,100.52711349121094 182.16194967651367,99.96194349121095 C182.16194967651367,99.96194349121095 182.16194967651367,99.96194349121095 182.16194967651367,99.96194349121095 " style="pointer-events:inherit"/><rect id="svg_18" x="15.836136102676392" y="73.6953125" width="177.3984375" height="52.015625" fill="#000000" opacity="0" style="pointer-events:inherit"/></g><line x1="16.835937508195638" y1="137.92520344108345" x2="92.66073455885054" y2="137.92520344108345" stroke="#ffffff" stroke-width="2" id="svg_19" fill="none" display="null" fill-opacity="1" stroke-opacity="1" style="pointer-events:inherit"/><line x1="16.835937508195638" y1="142.92520344108345" x2="92.66073455885054" y2="142.92520344108345" stroke="#ffffff" stroke-width="2" fill="none" display="null" fill-opacity="1" stroke-opacity="1" id="svg_20" style="pointer-events:inherit"/><line x1="116.41291046962142" y1="137.92520344108345" x2="192.23770752027633" y2="137.92520344108345" stroke="#ffffff" stroke-width="2" fill="none" display="null" fill-opacity="1" stroke-opacity="1" id="svg_21" style="pointer-events:inherit"/><line x1="116.41291046962142" y1="142.92520344108345" x2="192.23770752027633" y2="142.92520344108345" stroke="#ffffff" stroke-width="2" fill="none" display="null" fill-opacity="1" stroke-opacity="1" id="svg_22" style="pointer-events:inherit"/><g id="svg_26" fill-opacity="1" display="null" style="pointer-events:inherit" clip-id="598"><path fill="#FC9000" d="M88.82912,132.21762L100.82728,132.21762L104.53474,120.21947L108.24252,132.21762L120.24036,132.21762L110.53366,139.63287L114.24144,151.63069L104.53474,144.21545L94.82805,151.63069L98.53583,139.63287L88.82912,132.21762z" id="svg_27" style="pointer-events:inherit"/></g></g><defs><mask id="canvasMaskImageDef" maskUnits="objectBoundingBox" x="0" y="0"><image xmlns:xlink="http://www.w3.org/1999/xlink" id="canvasMaskImage" preserveAspectRatio="none" x="-103.65" y="-36.45" width="400" height="440.0580551523948" xlink:href="http://allinonedesigner.designnbuy.in/media/catalog/product/w/h/white-tees-1_-front_1_3.png"/></mask></defs></svg>