<?xml version="1.0" encoding="utf-8"?>
<!-- Generator: Adobe Illustrator 16.0.0, SVG Export Plug-In . SVG Version: 6.00 Build 0)  -->
<!DOCTYPE svg PUBLIC "-//W3C//DTD SVG 1.1//EN" "http://www.w3.org/Graphics/SVG/1.1/DTD/svg11.dtd">
<svg version="1.1" id="Layer_1" xmlns="http://www.w3.org/2000/svg" xmlns:xlink="http://www.w3.org/1999/xlink" x="0px" y="0px"
	 width="96.771px" height="66.191px" viewBox="0 0 96.771 66.191" enable-background="new 0 0 96.771 66.191" xml:space="preserve">
<path fill="#EC008C" d="M31.804,1.125c-0.048-0.063-0.073-0.134-0.133-0.2c-0.071-0.077-0.163-0.128-0.23-0.229
	c-0.022-0.035-0.009-0.041-0.033-0.067c-0.025-0.024-0.125-0.163-0.165-0.229c-0.025-0.043-0.049-0.028-0.066-0.101
	c-0.018-0.067-0.014-0.094-0.032-0.133C31.102,0.088,31.076,0.066,31.011,0h-0.232c-0.034,0.093-0.052,0.239,0,0.328
	c0.018,0.031,0.078,0.031,0.132,0.068c0.012,0.009,0.022,0.063,0.034,0.065c0.015,0.007,0.054-0.011,0.066,0
	c0.163,0.146,0.269,0.285,0.396,0.396c0.192,0.168,0.425,0.502,0.662,0.662C32.016,1.363,31.897,1.245,31.804,1.125z M47.657,0.265
	C47.691,0.179,47.646,0.121,47.624,0h-0.265C47.194,0.093,47.604,0.398,47.657,0.265z M90.483,0.431
	C90.693,0.44,90.941,0.235,90.846,0h-0.694C90.151,0.252,90.271,0.422,90.483,0.431z M10.922,0.066
	c0.009,0.009,0.05-0.018,0.033-0.032C10.945,0.023,10.904,0.048,10.922,0.066z M2.25,0.198c0.01,0.009,0.051-0.017,0.034-0.034
	C2.274,0.157,2.233,0.181,2.25,0.198z M33.724,0.694c0.025-0.073-0.084-0.155-0.133-0.067C33.538,0.724,33.711,0.734,33.724,0.694z
	 M44.546,1.654c0.05-0.093,0.015-0.188,0.066-0.299c0.035-0.073,0.131-0.089,0.166-0.164c0.012-0.028,0.035-0.129,0.032-0.166
	c-0.006-0.103-0.146-0.236-0.266-0.198c-0.095,0.028-0.164,0.265-0.165,0.364c-0.001,0.054,0.079,0.127,0.101,0.198
	C44.511,1.504,44.428,1.64,44.546,1.654z M8.506,0.959c0.01,0.009,0.051-0.016,0.033-0.034C8.53,0.916,8.488,0.943,8.506,0.959z
	 M39.186,1.355c0.014-0.05-0.092-0.171-0.133-0.065C39.026,1.357,39.168,1.416,39.186,1.355z M71.288,1.719
	c0.393,0.247,0.195-0.533-0.065-0.396c-0.041,0.021-0.088,0.019-0.1,0.066C71.083,1.538,71.215,1.676,71.288,1.719z M94.52,1.39
	c0.003-0.078-0.089-0.114-0.165-0.066C94.154,1.45,94.516,1.59,94.52,1.39z M8.737,1.355C8.702,1.547,8.88,1.37,8.737,1.355
	L8.737,1.355z M74.167,1.719c0.097-0.096-0.083-0.447-0.266-0.264C73.73,1.627,74.064,1.822,74.167,1.719z M46.433,2.085
	c0.063,0.021,0.284-0.243,0.231-0.397c-0.043-0.127-0.159-0.178-0.267-0.1c-0.143,0.107-0.033,0.289,0,0.364
	C46.409,1.974,46.416,2.079,46.433,2.085z M74.597,2.019c0.045-0.082-0.063-0.237-0.166-0.132
	C74.296,2.021,74.552,2.103,74.597,2.019z M80.025,1.887c-0.073,0.072,0.054,0.145,0.1,0.098C80.17,1.939,80.122,1.79,80.025,1.887z
	 M29.753,2.515c0.029,0.043,0.006,0.125,0.033,0.165c-0.223-0.348,0.026,0.152,0.131,0.064c0.039-0.03-0.03-0.223-0.032-0.33
	c-0.002-0.173,0.085-0.366,0-0.463c-0.01-0.013-0.055-0.022-0.065-0.034c-0.078-0.074-0.218-0.011-0.231,0
	c-0.087,0.068-0.098,0.197-0.065,0.333C29.545,2.354,29.681,2.408,29.753,2.515z M28.462,2.745c-0.007-0.139,0.065-0.27,0.032-0.396
	c-0.052-0.198-0.397-0.383-0.495-0.133c-0.014,0.034,0.062,0.354,0.065,0.364c0.053,0.12,0.187,0.196,0.23,0.297
	c0.052,0.108,0.035,0.242,0.066,0.332c0.027,0.075,0.105,0.146,0.132,0.198c0.046,0.091,0.012,0.207,0.134,0.232
	c0-0.139-0.029-0.436-0.066-0.53C28.519,2.999,28.466,2.84,28.462,2.745z M78.867,2.316c-0.076-0.08-0.146-0.114-0.199-0.101
	c-0.046,0.014-0.114-0.006-0.132,0.034c-0.091,0.222,0.327,0.362,0.396,0.198C78.93,2.454,78.828,2.275,78.867,2.316z M71.685,3.675
	c0.008,0.006,0.245-0.158,0.266-0.167c0.043-0.02,0.126,0.007,0.164-0.032c0.023-0.023,0.103-0.229,0.099-0.3
	c-0.005-0.15-0.151-0.156-0.263-0.132c-0.155,0.035-0.123,0.067-0.167,0.166c-0.006,0.014-0.06,0.019-0.065,0.034
	c-0.019,0.05,0.01,0.146,0,0.198C71.69,3.594,71.593,3.61,71.685,3.675z M43.718,3.408c0.06-0.028,0.021-0.237-0.063-0.132
	C43.592,3.351,43.648,3.442,43.718,3.408z M43.023,4.203c0.1,0.246,0.034,0.554,0.231,0.728c0.079-0.362-0.051-0.537-0.032-0.793
	c0.005-0.087,0.089-0.189,0.099-0.265c0.034-0.279-0.154-0.553-0.331-0.531c-0.214,0.025-0.251,0.307-0.198,0.531
	C42.817,3.977,42.967,4.062,43.023,4.203z M5.295,3.442c0.038-0.006,0.053,0.046,0.066,0C5.361,3.408,5.303,3.399,5.295,3.442z
	 M5.46,3.606c0,0.02,0.034,0.037,0.034,0C5.494,3.589,5.46,3.569,5.46,3.606z M80.919,4.302c0.161-0.03,0.162-0.547-0.133-0.396
	c-0.03,0.015-0.091,0.002-0.1,0.034C80.645,4.076,80.807,4.321,80.919,4.302z M47.822,4.466c0.162-0.015-0.016-0.319-0.1-0.164
	C47.67,4.401,47.75,4.475,47.822,4.466z M46.035,4.866c0.024,0,0.056-0.047,0.099-0.101c0.116-0.141,0.026-0.325-0.132-0.364v0.032
	C45.766,4.512,45.928,4.864,46.035,4.866z M6.254,4.466c0,0.034,0.06,0.045,0.067,0C6.283,4.471,6.27,4.419,6.254,4.466z M75.92,4.5
	c-0.003,0.003,0,0.028,0,0.032C75.92,4.703,76.04,4.38,75.92,4.5z M85.784,4.6c-0.111,0.052-0.074,0.022-0.101,0.132
	c-0.027,0.124,0.006,0.231,0.167,0.231c0.155-0.002,0.282-0.218,0.197-0.33C85.991,4.557,85.921,4.537,85.784,4.6z M0,4.634
	c-0.002,0.019,0.026,0.105,0.066,0.065C0.092,4.673,0.008,4.539,0,4.634z M79.694,4.964c0.063-0.102-0.004-0.195-0.033-0.231
	c-0.198-0.239-0.392,0.349-0.463,0.463C79.316,5.11,79.616,5.091,79.694,4.964z M31.97,4.964c0.01,0.01,0.05-0.016,0.032-0.033
	C31.995,4.921,31.953,4.946,31.97,4.964z M96.54,5.229c0.028-0.05-0.076-0.079-0.166-0.132c-0.142-0.084-0.266-0.159-0.396-0.066
	C95.697,5.227,96.514,5.271,96.54,5.229z M26.112,5.263c-0.065-0.077-0.05-0.18-0.1-0.198c-0.219-0.093-0.313,0.025-0.299,0.164
	c0.016,0.138,0.227,0.075,0.397,0.132c0.147,0.052,0.231,0.236,0.363,0.133c-0.087-0.01-0.219-0.131-0.265-0.165
	C26.181,5.306,26.137,5.291,26.112,5.263z M30.149,6.121c-0.166-0.155-0.36-0.292-0.529-0.429c-0.016-0.015-0.018-0.053-0.033-0.067
	c-0.024-0.021-0.07-0.011-0.1-0.032c-0.072-0.061-0.107-0.146-0.132-0.199c-0.006-0.012-0.059-0.021-0.067-0.032
	c-0.009-0.014,0.009-0.048,0-0.065c-0.002-0.01-0.057-0.024-0.064-0.031c-0.105-0.122-0.268-0.238-0.431-0.102
	c-0.044,0.038-0.048,0.256,0,0.331c0.017,0.026,0.063-0.013,0.066,0.033c0.007,0.084,0.216,0.065,0.298,0.099
	c0.041,0.019,0.077,0.069,0.131,0.101c0.051,0.028,0.114,0.038,0.167,0.065c0.296,0.164,0.646,0.454,0.895,0.563
	C30.347,6.271,30.236,6.204,30.149,6.121z M68.838,5.128c-0.12,0.02-0.19,0.072-0.23,0.167c-0.021,0.05,0.003,0.151-0.034,0.231
	c-0.006,0.017-0.051,0.041-0.064,0.065c-0.049,0.086-0.148,0.313-0.133,0.33c0.036,0.036,0.297-0.229,0.297-0.229
	c0.182-0.134,0.397-0.192,0.398-0.364C69.072,5.114,68.958,5.112,68.838,5.128z M76.385,5.823c0.012,0.009,0.023,0.121,0.032,0.132
	c0.04,0.056,0.09,0.088,0.133,0.068c0.112-0.055-0.036-0.273-0.032-0.299c-0.002,0.011,0.064-0.065,0.064-0.065
	c0.217-0.232-0.004-0.556-0.297-0.563c-0.037,0-0.052,0.029-0.065,0.03c-0.118,0.025-0.08,0.027-0.133,0.066
	c-0.031,0.026-0.073,0.007-0.1,0.036c-0.01,0.011,0.007,0.052,0,0.065c-0.006,0.013-0.063,0.019-0.066,0.033
	c-0.021,0.07-0.017,0.247,0.034,0.331C76.042,5.808,76.3,5.76,76.385,5.823z M25.086,5.823c0.099,0.05,0.242,0.002,0.332,0.034
	c0.193,0.068,0.282,0.246,0.431,0.166c-0.104-0.091-0.276-0.172-0.364-0.266c-0.081-0.087-0.109-0.205-0.166-0.266
	c0.006,0.007-0.084-0.038-0.066-0.034c-0.132-0.034-0.294-0.002-0.33,0.103C24.895,5.629,25.063,5.813,25.086,5.823z M28.23,6.056
	c0,0.033,0.058,0.043,0.064,0C28.26,6.059,28.245,6.007,28.23,6.056z M22.141,6.42c-0.159,0.053-0.352-0.404-0.529-0.299
	c-0.053,0.032-0.063,0.145-0.033,0.199c0.044,0.085,0.249,0.037,0.397,0.064C22.051,6.402,22.072,6.529,22.141,6.42z M90.914,6.354
	c-0.034-0.033-0.127,0.022-0.132,0.031C90.701,6.523,91.027,6.468,90.914,6.354z M75.855,6.519c0.007-0.073-0.057-0.146-0.133-0.1
	c-0.009,0.005-0.063-0.009-0.066,0C75.579,6.573,75.844,6.648,75.855,6.519z M93.032,6.75c-0.038-0.063-0.122-0.043-0.166,0
	C92.753,6.863,93.125,6.916,93.032,6.75z M76.053,7.513c0.045,0.011,0.06,0.047,0.1,0.065c0.125,0.059,0.309,0.148,0.364,0.099
	c-0.088-0.052-0.218-0.199-0.298-0.265c-0.046-0.037-0.107-0.037-0.133-0.065c-0.04-0.049-0.017-0.139-0.066-0.166
	c-0.132-0.076-0.373-0.118-0.431,0.031c-0.023,0.066,0.092,0.237,0.133,0.268C75.804,7.531,75.939,7.482,76.053,7.513z
	 M33.923,7.413c-0.057,0.059,0.071,0.284,0.164,0.232c0.053-0.028,0.005-0.081,0-0.102C34.064,7.426,34.023,7.312,33.923,7.413z
	 M40.707,8.042c0.133-0.052,0.021-0.396-0.133-0.332c-0.029,0.015-0.09,0.005-0.099,0.033C40.431,7.894,40.628,8.072,40.707,8.042z
	 M96.109,7.941c-0.04-0.053-0.193-0.071-0.265,0c-0.002,0.002-0.032-0.001-0.032,0C95.841,8.267,96.199,8.062,96.109,7.941z
	 M43.289,8.108c-0.132,0.375,0.183,0.533,0.23,0.693c0.028,0.092-0.024,0.212,0,0.33C43.591,9.465,43.79,9.299,43.751,9
	c-0.016-0.123-0.13-0.222-0.133-0.298c-0.001-0.056,0.083-0.135,0.099-0.265c0.041-0.3-0.194-0.479-0.329-0.396
	C43.366,8.055,43.296,8.087,43.289,8.108z M82.573,8.076c0-0.021-0.032-0.038-0.032,0C82.541,8.094,82.573,8.111,82.573,8.076z
	 M42.064,9.365c0.021,0.133,0.024,0.275,0.032,0.331c0.001,0.012-0.008,0.095,0,0.098c0.132,0.084,0.453-0.916,0.1-0.098
	c0.049-0.113,0.04-0.23,0.067-0.331c0.053-0.201,0.094-0.257,0.132-0.396c0.026-0.102,0.055-0.214,0.033-0.298
	c-0.021-0.086-0.209-0.286-0.267-0.231c-0.002,0.002,0.002,0.032,0,0.032c-0.18,0.014-0.313,0.143-0.265,0.431
	C41.916,8.999,42.042,9.238,42.064,9.365z M46.797,9.332c0.234,0.096,0.26-0.442,0.032-0.331
	C46.687,9.072,46.708,9.296,46.797,9.332z M29.091,9.233c-0.04,0.022-0.066,0.034-0.065,0.099c0.002,0.228,0.353,0.192,0.23-0.065
	C29.21,9.165,29.096,9.228,29.091,9.233z M81.548,9.432c0.063-0.063-0.137-0.295-0.266-0.166
	C81.204,9.346,81.482,9.498,81.548,9.432z M38.854,11.35c0.011,0.063,0.005,0.196,0.099,0.199c-0.023-0.179,0.052-0.382,0.066-0.597
	c0.011-0.148-0.025-0.313,0-0.462c0.021-0.122,0.104-0.217,0.132-0.331c0.059-0.241-0.063-0.502-0.265-0.496
	c-0.157,0-0.244,0.151-0.265,0.296c-0.023,0.18,0.118,0.381,0.164,0.631S38.818,11.155,38.854,11.35z M43.852,10.523
	c0.07-0.159,0.007-0.536-0.033-0.629c-0.05-0.114-0.098,0.063-0.102,0.1C43.715,10.074,43.753,10.448,43.852,10.523z M47.889,10.623
	c0.076,0.057,0.186-0.114,0.265-0.198c0.103-0.108,0.222-0.179,0.198-0.299c-0.024-0.132-0.097-0.15-0.231-0.132
	c-0.063,0.009-0.161,0.052-0.198,0.101C47.867,10.166,47.796,10.556,47.889,10.623z M82.74,10.094c0.006,0.039,0.035,0.021,0.065,0
	C82.805,10.061,82.748,10.054,82.74,10.094z M41.866,10.557c0.136-0.039,0.008-0.385-0.133-0.231
	C41.659,10.405,41.748,10.591,41.866,10.557z M79.594,10.689c0,0,0.002,0.032,0,0.032c-0.253,0.084,0.167,0.337,0.23,0.134
	C79.852,10.774,79.599,10.689,79.594,10.689z M47.459,11.086c-0.055,0.114-0.008,0.226,0,0.232c0.084,0.085,0.283-0.254,0.297-0.297
	c0.046-0.141,0.009-0.068-0.032-0.068c-0.049,0-0.011,0.056-0.032,0.068C47.561,11.08,47.491,11.02,47.459,11.086z M75.987,11.086
	c-0.069,0.023-0.16,0.099-0.132,0.166c0.003,0.007,0.248,0.103,0.331,0.034c0.01-0.01,0.036-0.118,0.032-0.135
	C76.194,11.061,76.17,11.023,75.987,11.086z M47.922,17.804c0.201-0.051,0.136-0.301-0.065-0.364
	c-0.125-0.039-0.212,0.045-0.363,0.034c-0.09-0.007-0.21-0.071-0.298-0.102c-0.154-0.048-0.257-0.018-0.266-0.13
	c-0.003-0.03,0.162-0.164,0.166-0.166c0.074-0.049,0.191-0.047,0.265-0.101c0.104-0.078,0.417-0.461,0.529-0.628
	c0.06-0.091,0.078-0.136,0.132-0.23c0.034-0.062,0.096-0.12,0.1-0.135c0.008-0.019-0.028-0.112,0-0.198
	c0.019-0.05,0.059-0.091,0.066-0.13c0.037-0.164,0.039-0.332,0.065-0.465c0.025-0.129,0.191-0.271,0.166-0.398
	c-0.018-0.086-0.139-0.104-0.199-0.164c-0.161-0.159-0.127-0.202-0.164-0.396c-0.038-0.2-0.162-0.164-0.134-0.268
	c0.032-0.113,0.361-0.148,0.396-0.264c0.087-0.273-0.156-0.217-0.264-0.066c-0.075,0.104-0.041,0.243-0.134,0.266
	c-0.037,0.011-0.085-0.032-0.132-0.066c-0.106-0.077-0.142-0.129-0.199-0.229c-0.032-0.06-0.045-0.141-0.066-0.168
	c-0.011-0.016-0.083-0.019-0.099-0.032c-0.026-0.023-0.041-0.073-0.065-0.098c-0.037-0.038-0.084-0.084-0.1-0.102
	c-0.063-0.065-0.136-0.08-0.198-0.132c-0.043-0.036-0.099-0.099-0.101-0.164c-0.003-0.092,0.172-0.178,0.198-0.232
	c0.028-0.058,0.068-0.07,0.066-0.166c0-0.056-0.035-0.151-0.066-0.167c-0.062-0.027-0.167,0-0.198,0.034
	c-0.116,0.123,0.064,0.456-0.032,0.531c0.009-0.008-0.113-0.027-0.133-0.034c-0.043-0.019-0.059-0.047-0.1-0.065
	c-0.048-0.023-0.088-0.01-0.132-0.034c-0.039-0.021-0.058-0.084-0.101-0.099c-0.079-0.026-0.183,0.015-0.265,0
	c-0.08-0.017-0.158-0.074-0.231-0.101c-0.053-0.018-0.103-0.018-0.133-0.033c-0.077-0.036-0.078-0.06-0.133-0.063
	c-0.054-0.008-0.049,0.05-0.132,0.063c0.005,0-0.036-0.032-0.066-0.032c-0.126,0.006-0.111,0.013-0.229-0.099
	c-0.091-0.086-0.15-0.155-0.199-0.231c-0.012-0.021-0.052-0.047-0.067-0.067c-0.147-0.186-0.234-0.286-0.362-0.497
	c-0.101-0.16-0.16-0.327-0.266-0.396c-0.062-0.039-0.204-0.108-0.331-0.066c-0.049,0.019-0.223,0.301-0.23,0.333
	c-0.067,0.221,0.029,0.395-0.033,0.595c-0.035,0.11-0.143,0.188-0.199,0.265c-0.054,0.076-0.082,0.16-0.132,0.231
	c-0.019,0.029-0.079,0.038-0.1,0.066c-0.038,0.054-0.029,0.089-0.065,0.132c-0.152,0.181-0.214,0.215-0.397,0.135
	c-0.227-0.103-0.354-0.231-0.462-0.397c-0.131-0.198-0.201-0.407-0.397-0.497c-0.013-0.006-0.018-0.06-0.034-0.066
	c-0.025-0.011-0.068,0.008-0.099,0c-0.043-0.009-0.038-0.055-0.065-0.065c-0.065-0.026-0.129-0.035-0.199-0.065
	c-0.164-0.073-0.266-0.15-0.396-0.132c-0.091,0.011-0.249,0.109-0.266,0.132c0.006-0.007-0.063,0.123-0.066,0.132
	c-0.043,0.189,0.053,0.443,0.066,0.563c0.01,0.096-0.018,0.198,0,0.264c0.021,0.084,0.089,0.17,0.132,0.265
	c0.112,0.25,0.229,0.5,0.365,0.663c0.034,0.041,0.071,0.104,0.098,0.132c0.137,0.144,0.392,0.282,0.431,0.497
	c0.073,0.388-0.104,0.433-0.362,0.364c-0.044-0.011-0.327-0.258-0.396-0.299c-0.06-0.034-0.136-0.043-0.165-0.065
	c-0.094-0.069-0.164-0.213-0.266-0.231c-0.072-0.014-0.12,0.08-0.232,0.1c-0.031,0.006-0.074-0.03-0.131-0.034
	c-0.12-0.005-0.18,0.043-0.199,0.102c-0.024,0.07,0.021,0.119,0.065,0.164c0.152,0.152,0.345,0.038,0.464,0.166
	c0.015-0.13-0.047-0.094-0.066-0.133c-0.024-0.052-0.075-0.111-0.033-0.163c0.014-0.018,0.095,0.063,0.101,0.063
	c0.124,0.06,0.104,0.01,0.165,0.034c0.067,0.028,0.273,0.154,0.231,0.133c0.203,0.102,0.356,0.121,0.464,0.298
	c0.059,0.098,0.094,0.334,0.132,0.563c0.035,0.2,0.072,0.45,0.066,0.563c-0.003,0.029-0.03,0.193-0.034,0.198
	c-0.066,0.17-0.299,0.156-0.298,0.398c0,0.131,0.211,0.278,0.332,0.463c0.049,0.074,0.081,0.166,0.132,0.265
	c0.047,0.089,0.116,0.184,0.133,0.265c0.02,0.087-0.023,0.149,0,0.199c0.024,0.047,0.113,0.122,0.167,0.165
	c0.063,0.055,0.139,0.093,0.197,0.132c0.052,0.036,0.126,0.09,0.198,0.132c0.09,0.057,0.199,0.075,0.23,0.134
	c0.003,0.005-0.001,0.197,0,0.197c0.067,0.049,0.181-0.074,0.231-0.063c0.026,0.004,0.062,0.112,0.133,0.164
	c0.036,0.026,0.094,0.013,0.133,0.034c0.033,0.016,0.106,0.093,0.132,0.099c0.256,0.057,0.58,0.012,0.794,0.065
	c0.058,0.015,0.123,0.078,0.167,0.101c0.076,0.035,0.154,0.065,0.23,0.065c0.104-0.002,0.188-0.088,0.298-0.133
	c0.079-0.031,0.174-0.024,0.267-0.066c0.099-0.045,0.241-0.182,0.329-0.197c0.082-0.018,0.193,0.017,0.231,0
	c0.104-0.05,0.143-0.177,0.198-0.233c0.058-0.054,0.199,0.021,0.232,0.067c0.032,0.047-0.018,0.112,0.032,0.166
	c0.052,0.056,0.202,0.148,0.266,0.066c0.101-0.139-0.118-0.209-0.133-0.301c0.001,0.003,0.029-0.291,0.032-0.297
	c0.014-0.02,0.185-0.025,0.199-0.034c0.201-0.104,0.011-0.125,0.032-0.329c0.002-0.021,0.012-0.148,0.132-0.198
	c0.082-0.034,0.161,0.056,0.331,0.098c0.098,0.027,0.236,0.006,0.299,0.034c0.035,0.017,0.067,0.077,0.1,0.101
	C47.625,17.754,47.86,17.82,47.922,17.804z M83.136,11.418v0.032c-0.021,0-0.072,0.007-0.067,0.034
	C83.089,11.571,83.256,11.422,83.136,11.418z M55.072,11.582c-0.004-0.011-0.106-0.08-0.133,0
	C54.903,11.689,55.089,11.657,55.072,11.582z M42.229,11.648c-0.047,0.052,0.003,0.263,0.132,0.267
	C42.646,11.92,42.393,11.476,42.229,11.648z M61.955,12.045c-0.158-0.027-0.287-0.345-0.496-0.297c-0.02,0.004-0.09,0.054-0.1,0.1
	C61.312,12.081,61.726,12.071,61.955,12.045z M53.846,12.179c0.066-0.16-0.177-0.255-0.299-0.232c-0.001,0,0.004,0.032,0,0.034
	C53.312,12.144,53.778,12.342,53.846,12.179z M95.779,12.708c0.067-0.03,0.005-0.149,0.033-0.331
	c0.021-0.132,0.125-0.322,0.099-0.363c-0.078-0.121-0.324-0.037-0.331-0.032c-0.172,0.136-0.007,0.27,0.066,0.431
	C95.686,12.499,95.708,12.74,95.779,12.708z M42.726,12.575c0.084-0.013-0.022-0.207-0.065-0.098
	C42.644,12.517,42.697,12.579,42.726,12.575z M50.57,14.958c0.165-0.009,0.407-0.039,0.464-0.064
	c0.025-0.014,0.052-0.018,0.099-0.034c0.198-0.071,0.219-0.097,0.331-0.196c0.104-0.095,0.215-0.155,0.298-0.233
	c0.086-0.078,0.148-0.2,0.165-0.266c0.022-0.082,0.029-0.227,0.033-0.362c0.007-0.182,0.021-0.402,0-0.495
	c-0.002-0.014-0.059-0.083-0.064-0.102c-0.012-0.025,0.013-0.071,0-0.1c-0.03-0.063-0.124-0.081-0.166-0.133
	c-0.034-0.043-0.039-0.101-0.066-0.131c-0.115-0.14-0.278-0.315-0.43-0.363c-0.193-0.063-0.405-0.023-0.629,0
	c-0.486,0.048-0.963,0.105-1.158,0.396c-0.122,0.179-0.184,0.646-0.166,0.959c0.01,0.175,0.074,0.297,0.133,0.432
	c0.118,0.274,0.17,0.293,0.396,0.464C50.075,14.927,50.13,14.987,50.57,14.958z M37.199,12.972c0.136-0.03,0.163-0.474-0.1-0.364
	c-0.029,0.015-0.092,0.004-0.1,0.034C36.972,12.745,37.108,12.993,37.199,12.972z M48.12,13.006c0.144,0.105,0.125-0.19,0-0.065
	c-0.002,0.004,0,0.026,0,0.032S48.119,13.004,48.12,13.006z M82.409,13.072c-0.032-0.133-0.104-0.105-0.232-0.066
	c-0.016,0.004-0.092-0.011-0.1,0C81.91,13.232,82.473,13.354,82.409,13.072z M78.304,13.104c0.009,0.011,0.05-0.016,0.031-0.032
	C78.329,13.063,78.288,13.088,78.304,13.104z M93.793,13.305c0.163-0.005,0.407,0.05,0.495-0.066
	c-0.183,0.009-0.472-0.105-0.662-0.166c-0.02-0.008-0.077-0.004-0.099,0c-0.053,0.009-0.136,0.064-0.132,0.132
	C93.405,13.404,93.588,13.306,93.793,13.305z M86.975,13.503c0.013-0.036,0.064-0.024,0.064-0.101c0-0.16-0.164-0.298-0.298-0.164
	c-0.119,0.118,0.044,0.194,0.067,0.229c0.011,0.016-0.01,0.051,0,0.066c0.003,0.009,0.058,0.024,0.063,0.033
	C87.017,13.734,86.931,13.637,86.975,13.503z M40.111,13.603c-0.025-0.162-0.325-0.455-0.397-0.298
	C39.631,13.481,40.007,13.499,40.111,13.603z M83.831,13.469c-0.009-0.009-0.05,0.017-0.032,0.034
	C83.807,13.512,83.847,13.486,83.831,13.469z M21.115,13.667c-0.115-0.075-0.221-0.118-0.299-0.063
	c-0.029,0.018-0.081,0.037-0.066,0.099c0.047,0.184,0.438,0.1,0.432,0C21.184,13.723,21.104,13.661,21.115,13.667z M40.476,13.932
	c0.051-0.052-0.042-0.189-0.132-0.1C40.259,13.917,40.43,13.979,40.476,13.932z M90.914,14.826
	c-0.049,0.091,0.105,0.215,0.165,0.099c0.062-0.113-0.052-0.124-0.099-0.099C90.971,14.83,90.917,14.819,90.914,14.826z
	 M93.992,15.091c0.114,0.037,0.308-0.088,0.33-0.099c0.055-0.028,0.104,0.021,0.1-0.067c-0.003-0.049-0.225-0.127-0.265-0.133
	c-0.072-0.007-0.115,0.011-0.165,0.034c-0.081,0.036-0.124,0.021-0.134,0.066C93.844,14.968,93.916,15.065,93.992,15.091z
	 M22.406,14.858c-0.01-0.009-0.052,0.016-0.034,0.034C22.382,14.901,22.422,14.876,22.406,14.858z M23.928,14.958
	c-0.004,0,0.002,0.034,0,0.034c-0.091,0.032-0.136,0.038-0.101,0.133c0.043,0.11,0.293,0.019,0.299-0.034
	C24.133,15.014,23.936,14.958,23.928,14.958z M84.625,15.091c-0.01-0.009-0.082,0.019-0.065,0.034
	C84.568,15.132,84.641,15.106,84.625,15.091z M49.478,15.655c-0.021-0.054-0.012-0.116-0.033-0.168
	c-0.035-0.077-0.093-0.097-0.1-0.133c-0.006-0.028,0.071-0.082,0.032-0.132c-0.063-0.082-0.156-0.047-0.197-0.032
	c-0.025,0.008-0.089,0.045-0.1,0.065c-0.093,0.155,0.035,0.112,0.132,0.133c0.135,0.022,0.116,0.242,0.101,0.363
	c0.001-0.012-0.089,0.143-0.067,0.299c0.018,0.116,0.125,0.271,0.233,0.266c0.253-0.018,0.128-0.391,0.065-0.531
	C49.528,15.748,49.493,15.689,49.478,15.655z M85.156,15.323C85.266,15.423,85.255,15.201,85.156,15.323L85.156,15.323z
	 M94.454,15.487c-0.173,0.052-0.175,0.004-0.198,0.132c-0.021,0.116,0.092,0.213,0.198,0.232c0.043,0.007,0.141-0.037,0.199-0.066
	c0.104-0.046,0.15-0.063,0.167-0.13C94.854,15.496,94.547,15.46,94.454,15.487z M48.914,15.655c-0.007,0-0.032,0.063-0.098,0.098
	c-0.164,0.079-0.406,0.083-0.465,0.165c0.125-0.02,0.274-0.006,0.299,0c0.029,0.005,0.032-0.032,0.032-0.032
	c0.158-0.008,0.439-0.031,0.463-0.065C49.255,15.655,48.956,15.651,48.914,15.655z M95.249,15.819
	c-0.037,0.082,0.084,0.12,0.133,0.099C95.461,15.884,95.31,15.679,95.249,15.819z M81.877,16.084c0.1-0.027,0.167-0.036,0.166-0.032
	c0.069-0.152-0.188-0.267-0.331-0.166c-0.007,0.006-0.023-0.006-0.032,0c-0.063,0.03-0.047,0.14-0.033,0.166
	C81.689,16.135,81.834,16.097,81.877,16.084z M90.516,15.951c-0.012,0.011-0.047-0.001-0.033,0.032
	c-0.006-0.012,0.09,0.034,0.065,0.032C90.639,16.021,90.607,15.858,90.516,15.951z M63.312,16.016
	c-0.077,0.078,0.009,0.16,0.064,0.134C63.445,16.118,63.405,15.923,63.312,16.016z M92.336,16.052
	c-0.053,0.105,0.271,0.151,0.267,0.032C92.597,16.005,92.369,15.987,92.336,16.052z M40.674,16.548
	c0.052-0.098-0.103-0.154-0.166-0.102C40.382,16.558,40.636,16.618,40.674,16.548z M88.729,16.778
	c-0.002-0.007-0.063-0.022-0.066-0.032c-0.012-0.023,0.017-0.076,0-0.1c-0.097-0.151-0.276-0.191-0.463-0.166
	c-0.221,0.029-0.382,0.162-0.431,0.298c-0.124,0.347,0.104,0.616,0.396,0.661C88.544,17.497,88.832,17.181,88.729,16.778z
	 M83.962,16.746c-0.025-0.214-0.145-0.321-0.297-0.23c-0.124,0.072-0.104,0.289-0.033,0.361c0.072,0.077,0.135,0.189,0.166,0.267
	c0.015,0.031,0.012,0.138,0.032,0.198c0.03,0.083,0.08,0.117,0.101,0.166c0.048,0.117,0.057,0.219,0.1,0.297
	c0.056,0.104,0.048,0.045,0.065-0.032c0.05-0.209-0.104-0.535-0.134-0.729C83.954,16.98,83.977,16.852,83.962,16.746z
	 M71.883,17.474c-0.026,0.015-0.091,0.004-0.065,0.065c0.057,0.142,0.257,0.052,0.364,0.031c0.146-0.022,0.147,0,0.044-0.028
	c0.031,0.008-0.245-0.098-0.274-0.104C71.909,17.436,71.903,17.465,71.883,17.474z M95.911,17.739c-0.009,0.004-0.062-0.009-0.065,0
	c-0.092,0.156,0.22,0.229,0.197,0.063C96.033,17.718,95.932,17.726,95.911,17.739z M14.761,17.87
	c-0.041,0.015-0.123-0.007-0.135,0.034c-0.071,0.276,0.375,0.114,0.365,0.033c-0.001-0.003-0.122-0.028-0.133-0.033
	C14.773,17.863,14.806,17.854,14.761,17.87z M45.804,19.161c-0.03,0.097,0.033,0.193,0.032,0.331
	c-0.002,0.516-0.265,1.102-0.197,1.457c0.095-0.355,0.268-0.821,0.362-1.125c0.021-0.064,0.013-0.145,0.033-0.2
	c0.053-0.128,0.285-0.356,0.232-0.527C46.18,18.813,45.86,18.986,45.804,19.161z M43.487,19.228
	c0.011-0.034,0.035-0.264,0.032-0.266c-0.027-0.027-0.104,0.031-0.1,0.032c-0.229-0.026-0.257,0.07-0.265,0.198
	c-0.013,0.188,0.048,0.129,0.165,0.166C43.416,19.389,43.45,19.344,43.487,19.228z M4.501,19.228
	c-0.06-0.066-0.081-0.173-0.132-0.198c-0.262-0.123-0.308,0.142-0.166,0.265c0.057,0.05,0.22,0.028,0.331,0.065
	c0.104,0.034,0.14,0.157,0.198,0.065C4.697,19.365,4.589,19.328,4.501,19.228z M68.011,19.13c-0.115,0.114,0.021,0.178,0.1,0.164
	C68.204,19.279,68.139,18.999,68.011,19.13z M79.363,19.79c-0.009,0.027,0.056,0.176,0.133,0.1
	C79.557,19.828,79.395,19.684,79.363,19.79z M40.277,19.824c-0.06-0.011-0.119,0.018-0.166,0.032
	c-0.045,0.015-0.096,0.007-0.132,0.032c-0.013,0.009,0.009,0.059,0,0.066c-0.01,0.008-0.061-0.011-0.067,0
	c-0.049,0.073-0.075,0.434-0.063,0.497c0.023,0.162,0.132,0.13,0.197,0.396c0.024,0.104,0.005,0.347,0.032,0.529
	c0.011,0.066,0.048,0.163,0.065,0.23c0.006,0.019,0.003,0.238,0.101,0.198c0.039-0.017,0.063-0.357,0.065-0.396
	c0.015-0.209-0.013-0.412,0.033-0.563c0.019-0.063,0.075-0.101,0.101-0.133c0.072-0.103,0.096-0.177,0.131-0.299
	C40.658,20.137,40.448,19.854,40.277,19.824z M37.001,21.677c0.044,0.087,0.003,0.207,0.1,0.266c-0.08-0.229,0.123-0.413,0.1-0.497
	c-0.029-0.107-0.165-0.188-0.232-0.166c-0.064,0.021-0.098,0.14-0.099,0.231C36.868,21.554,36.978,21.634,37.001,21.677z
	 M38.06,21.743c0.04-0.013,0.095-0.118,0.1-0.167c0.008-0.1-0.089-0.212-0.199-0.229v0.032c-0.109,0.021-0.267,0.122-0.165,0.297
	C37.807,21.698,37.991,21.768,38.06,21.743z M93.461,21.412c-0.155,0.155,0.219,0.195,0.198,0.032
	C93.654,21.395,93.535,21.337,93.461,21.412z M27.833,21.941c-0.065-0.027-0.147,0.014-0.23,0.033
	c-0.154,0.035-0.188,0.041-0.231,0.133c-0.081,0.164,0.021,0.414,0.1,0.463c0.081,0.05,0.337,0.028,0.363,0
	c0.064-0.064,0.142-0.066,0.166-0.133C28.07,22.245,27.882,21.961,27.833,21.941z M22.339,22.172
	c-0.069-0.095-0.255-0.215-0.362-0.196c-0.384,0.063-0.102,0.489,0.032,0.563c0.053,0.028,0.147-0.004,0.198,0.032
	c0.11,0.076,0.222,0.227,0.331,0.332c0.121,0.114,0.218,0.253,0.363,0.298c-0.038-0.196-0.323-0.434-0.464-0.729
	C22.394,22.377,22.394,22.248,22.339,22.172z M66.224,22.073c-0.146-0.068-0.207-0.12-0.298-0.066
	c-0.03,0.021-0.088-0.002-0.065,0.066C65.91,22.235,66.442,22.179,66.224,22.073z M71.817,22.041
	c-0.01-0.009-0.082,0.019-0.065,0.032C71.76,22.084,71.833,22.056,71.817,22.041z M41.534,22.538
	c0.003,0.182,0.109,0.302,0.133,0.43c0.03,0.163-0.068,0.324,0.066,0.396c0.036-0.13,0.038-0.253,0.064-0.33
	c0.048-0.138,0.124-0.168,0.166-0.265c0.028-0.069,0.071-0.228,0.066-0.267c-0.045-0.284-0.405-0.276-0.492-0.041
	C41.545,22.463,41.534,22.561,41.534,22.538z M42.361,23c0.037-0.134,0.058-0.114,0.101-0.198c0.105-0.211-0.041-0.307-0.167-0.264
	c-0.199,0.067-0.082,0.216-0.03,0.364c0.053,0.159-0.024,0.162,0.063,0.164C42.307,23.066,42.366,22.986,42.361,23z M64.007,22.538
	c0.008,0.039,0.036,0.021,0.065,0C64.073,22.504,64.015,22.495,64.007,22.538z M93.461,23.066c0.022-0.011,0.124-0.28,0.033-0.364
	c-0.049-0.045-0.171-0.041-0.231,0C93.104,22.816,93.339,23.127,93.461,23.066z M53.516,24.392c0.021-0.01,0.079,0.013,0.099,0
	c0.184-0.135,0.252-0.535-0.066-0.432c-0.178,0.059-0.138,0.118-0.166,0.363c-0.011,0.102-0.079,0.117-0.031,0.164
	C53.406,24.546,53.412,24.424,53.516,24.392z M96.175,23.961c-0.054,0.018-0.117,0.061-0.1,0.1c0.021,0.047,0.124,0.027,0.166,0
	C96.304,24.019,96.231,23.943,96.175,23.961z M43.058,24.721c-0.03-0.028-0.095,0.027-0.101,0.033
	C42.787,24.924,43.196,24.861,43.058,24.721z M53.516,24.854c-0.075,0.031-0.155,0.156-0.033,0.197
	C53.705,25.13,53.75,24.755,53.516,24.854z M90.846,25.119c0.086,0.026,0.35-0.06,0.332-0.032c0.053-0.079-0.23-0.226-0.299-0.231
	c-0.042-0.005-0.047,0.021-0.064,0.032c-0.057,0.025-0.107,0.038-0.102,0.099C90.717,25.005,90.783,25.098,90.846,25.119z
	 M84.458,25.317c-0.001,0.003,0,0.027,0,0.034c0,0.003-0.001,0.029,0,0.03C84.603,25.49,84.583,25.194,84.458,25.317z
	 M25.251,25.813c-0.039-0.033-0.094-0.002-0.098,0c-0.328,0.112,0.25,0.377,0.265,0.363C25.418,26.177,25.347,25.897,25.251,25.813z
	 M96.705,26.046c0.078-0.078-0.129-0.207-0.165-0.1C96.53,25.975,96.619,26.132,96.705,26.046z M39.417,27.401
	c0.158-0.014,0.004-0.335-0.1-0.166C39.252,27.343,39.394,27.403,39.417,27.401z M19.459,27.965
	c-0.035-0.051-0.056-0.156-0.099-0.197c-0.115-0.111-0.285-0.105-0.331-0.034c-0.095,0.148,0.104,0.306,0.166,0.332
	c0.068,0.029,0.156,0.004,0.23,0.034c0.116,0.043,0.2,0.188,0.3,0.098C19.669,28.15,19.563,28.109,19.459,27.965z M93.032,27.898
	c-0.018,0.039,0.038,0.104,0.066,0.1C93.185,27.977,93.087,27.775,93.032,27.898z M38.821,28.099
	c-0.076,0.074,0.055,0.107,0.099,0.063C38.979,28.105,38.907,28.01,38.821,28.099z M86.446,28.297
	c-0.01,0.023,0.063,0.086,0.1,0.064C86.643,28.308,86.487,28.186,86.446,28.297z M35.908,28.793c0.01,0.008,0.049,0.109,0.066,0.1
	c0.012-0.008-0.003-0.114,0-0.133c0.011-0.078,0.053-0.113,0.032-0.167c-0.051-0.128-0.184-0.073-0.197-0.063
	c-0.032,0.02-0.078,0.035-0.066,0.098C35.76,28.715,35.871,28.76,35.908,28.793z M47.922,29.919
	c0.012,0.003,0.021,0.058,0.033,0.064c0.016,0.011,0.049-0.008,0.065,0c0.014,0.005,0.018,0.061,0.034,0.066
	c0.095,0.038,0.263,0.043,0.33,0.032c0.19-0.03,0.271-0.179,0.331-0.332c0.038-0.097,0.072-0.138,0.065-0.229
	c-0.004-0.051-0.105-0.289-0.164-0.331c-0.114-0.078-0.302-0.087-0.498-0.033c-0.101,0.028-0.214,0.063-0.265,0.132
	c-0.086,0.12-0.072,0.402-0.033,0.53C47.844,29.887,47.9,29.908,47.922,29.919z M75.161,29.951c-0.023,0.05,0.044,0.166,0.132,0.132
	C75.403,30.04,75.221,29.82,75.161,29.951z M88.298,30.017c0.145,0.104,0.124-0.189,0-0.065c-0.003,0.001,0,0.028,0,0.032
	S88.295,30.016,88.298,30.017z M12.013,30.183c-0.104-0.054-0.232-0.049-0.298,0c-0.281,0.204,0.469,0.36,0.529,0.263
	C12.225,30.478,11.969,30.16,12.013,30.183z M15.985,30.35c-0.04-0.002-0.05,0.025-0.067,0.03c-0.246,0.068-0.355,0.354-0.265,0.629
	c0.015,0.043,0.13,0.113,0.199,0.165c0.109,0.085,0.175,0.137,0.265,0.133c0.161-0.005,0.266-0.135,0.298-0.198
	c0.011-0.021,0.06-0.075,0.066-0.1C16.596,30.653,16.289,30.35,15.985,30.35z M38.953,31.573c-0.074,0.143-0.127,0.296-0.065,0.494
	c0.004,0.015,0.063,0.05,0.065,0.065c0.114,0.428,0.124,0.434,0.364,0.696c0.086,0.095,0.172,0.238,0.264,0.297
	c0.041,0.026,0.09,0.014,0.133,0.034c0.042,0.021,0.06,0.05,0.101,0.065c0.086,0.033,0.182,0.049,0.265,0.065
	c0.457,0.105,0.657,0.103,0.927-0.1c0.039-0.029,0.055-0.094,0.1-0.133c0.025-0.021,0.077-0.015,0.1-0.032
	c0.039-0.028,0.088-0.116,0.1-0.132c0.038-0.06,0.047-0.166,0.066-0.232c0.004-0.013,0.061-0.048,0.066-0.065
	c0.049-0.133,0.089-0.272,0.099-0.362c0.031-0.285-0.048-0.45-0.099-0.662c-0.035-0.146-0.028-0.333-0.066-0.398
	c-0.007-0.013-0.312-0.213-0.33-0.229c-0.08-0.077-0.274-0.113-0.332-0.166c-0.14-0.135-0.693-0.146-0.894-0.102
	c-0.03,0.008-0.069-0.009-0.101,0c-0.189,0.064-0.439,0.396-0.527,0.53C39.096,31.343,39.023,31.436,38.953,31.573z M80.885,31.01
	c-0.046,0-0.191,0.072-0.197,0.1c-0.047,0.254,0.521,0.138,0.662,0.1C81.238,31.21,80.954,31.009,80.885,31.01z M48.386,32.235
	c0.151-0.263-0.066-0.441-0.267-0.366c-0.014,0.006-0.089,0.021-0.1,0.034c-0.044,0.052-0.181,0.614-0.165,0.629
	c0.024,0.024,0.244-0.153,0.265-0.164C48.225,32.309,48.349,32.298,48.386,32.235z M49.413,32.003
	c-0.09,0.043-0.151,0.188-0.035,0.232C49.597,32.315,49.636,31.896,49.413,32.003z M72.082,32.73c0.043-0.043,0.007-0.35,0-0.362
	c-0.022-0.054-0.097-0.084-0.131-0.101c-0.014-0.005-0.019-0.062-0.034-0.066c-0.051-0.016-0.08,0.025-0.1,0.034
	C71.443,32.371,72.001,32.814,72.082,32.73z M71.188,33.161c-0.033-0.062-0.031-0.174-0.065-0.198
	c-0.123-0.086-0.34-0.077-0.332,0.099c0.006,0.101,0.315,0.226,0.366,0.267c0.092,0.075,0.18,0.151,0.263,0.198
	C71.458,33.418,71.263,33.299,71.188,33.161z M83.534,33.161c-0.019-0.103-0.293-0.043-0.299-0.034
	C83.138,33.27,83.56,33.313,83.534,33.161z M39.218,33.922c-0.17,0.114,0.025,0.344,0.133,0.298
	C39.46,34.174,39.46,33.759,39.218,33.922z M90.186,34.286c0.079-0.048-0.021-0.278-0.135-0.166
	C89.999,34.176,90.087,34.342,90.186,34.286z M43.354,40.54c-0.031-0.202-0.146-0.225-0.166-0.431
	c-0.009-0.114,0.063-0.226,0.066-0.362c0.002-0.054-0.009-0.216-0.032-0.332c-0.015-0.06-0.06-0.103-0.066-0.165
	c-0.013-0.1-0.04-0.405-0.033-0.431c0.035-0.134,0.115-0.078,0.166-0.164c0.098-0.168,0.035-0.207-0.033-0.2
	c-0.074,0.009-0.03,0.023-0.066,0.066c-0.021,0.024-0.051,0.041-0.065,0.067c-0.078,0.137-0.016,0.194-0.133,0.164
	c-0.043-0.013-0.197,0.075-0.231,0.065c-0.234-0.069-0.274-0.466-0.431-0.728c-0.046-0.08-0.154-0.22-0.198-0.267
	c-0.022-0.024-0.011-0.033-0.032-0.065c-0.085-0.119-0.18-0.278-0.265-0.331c-0.06-0.034-0.17-0.009-0.231-0.032
	c-0.069-0.027-0.129-0.081-0.165-0.1c-0.128-0.061-0.224-0.118-0.332-0.197c-0.021-0.017-0.08-0.048-0.1-0.066
	c-0.056-0.063-0.097-0.229-0.132-0.264c-0.062-0.064-0.079-0.077-0.1-0.167c-0.025-0.106,0.049-0.228,0.033-0.299
	c-0.024-0.109-0.115-0.175-0.199-0.163c-0.25,0.025-0.125,0.408-0.164,0.66c-0.05,0.31-0.256,0.342-0.531,0.33
	c-0.17-0.006-0.408-0.059-0.462-0.166c-0.055-0.106,0.007-0.435,0-0.595c-0.014-0.295-0.063-0.706-0.067-0.993
	c0-0.009,0.015-0.272,0.007-0.302c-0.003,0.003-0.007,0.003-0.007,0.003c0.004-0.005,0.006-0.007,0.007-0.003
	c0.02-0.015,0.095-0.075,0.127-0.127c0.044-0.071,0.064-0.146,0.064-0.198c0-0.011-0.024-0.188-0.032-0.2
	c-0.054-0.09-0.299-0.153-0.396-0.099c-0.061,0.032-0.146,0.152-0.132,0.362c0.007,0.112,0.093,0.172,0.132,0.299
	c0.03,0.095,0.058,0.265,0.065,0.431c0.021,0.351-0.06,0.578-0.1,0.86c-0.038,0.271-0.021,0.538-0.099,0.629
	c-0.014,0.013-0.152,0.032-0.232,0.066c-0.063,0.025-0.173,0.063-0.23,0.1c-0.096,0.054-0.173,0.163-0.266,0.229
	c-0.064,0.052-0.196,0.066-0.23,0.102c-0.012,0.011,0.011,0.054,0,0.065c-0.058,0.063-0.152,0.053-0.199,0.101
	c-0.01,0.009,0.012,0.054,0,0.063c-0.038,0.035-0.088,0.094-0.132,0.133c-0.04,0.037-0.113,0.049-0.132,0.067
	c-0.012,0.011,0.011,0.056,0,0.064c-0.025,0.021-0.076,0.016-0.102,0.033c-0.024,0.02-0.032,0.047-0.063,0.065
	c-0.038,0.021-0.163,0.052-0.268,0.101c-0.032,0.017-0.182,0.147-0.23,0.133c-0.045-0.018-0.057-0.111-0.065-0.133
	c-0.006-0.013-0.063-0.017-0.065-0.032c-0.021-0.082,0.046-0.21,0.031-0.3c-0.021-0.164-0.26-0.411-0.429-0.396
	c-0.14,0.011-0.31,0.257-0.299,0.396c0.013,0.151,0.262,0.315,0.299,0.332c0.084,0.037,0.346-0.012,0.396,0.099
	c0.025,0.058-0.105,0.153-0.133,0.198c-0.041,0.067-0.071,0.172-0.1,0.231c-0.102,0.224-0.196,0.479-0.231,0.729
	c-0.015,0.102-0.028,0.213-0.032,0.265c-0.006,0.056,0.047,0.282,0,0.362c-0.004,0.006-0.106,0.038-0.166,0.067
	c-0.165,0.08-0.427,0.127-0.432,0.299c-0.004,0.172,0.296,0.265,0.397,0.297c0.065,0.021,0.19,0.057,0.199,0.064
	c0.021,0.023,0.051,0.297,0.064,0.365c0.003,0.012,0.063,0.082,0.066,0.098c0.019,0.073,0.012,0.176,0.033,0.268
	c0.023,0.106,0.066,0.193,0.066,0.264c-0.001,0.165-0.093,0.284-0.101,0.465c-0.012,0.291,0.122,0.534,0.197,0.695
	c0.045,0.093,0.088,0.21,0.134,0.296c0.026,0.052,0.067,0.086,0.1,0.134c0.105,0.163,0.103,0.198,0.231,0.331
	c0.123,0.123,0.183,0.149,0.298,0.198c0.041,0.016,0.094,0.05,0.133,0.066c0.097,0.038,0.202,0.059,0.298,0.098
	c0.185,0.079,0.374,0.209,0.563,0.234c0.205,0.022,0.322,0.013,0.431,0.064c0.222,0.107,0.479,0.191,0.794,0.165
	c0.163-0.015,0.315-0.093,0.431-0.101c0.06-0.003,0.14,0.029,0.198,0.031c0.181,0.012,0.396,0.007,0.495-0.031
	c0.076-0.026,0.193-0.172,0.3-0.231c0.074-0.042,0.178-0.058,0.263-0.099c0.203-0.096,0.426-0.234,0.598-0.33
	c0.155-0.088,0.138-0.105,0.23-0.232c0.066-0.09,0.155-0.142,0.198-0.198c0.018-0.021,0.014-0.082,0.033-0.101
	c0.018-0.016,0.083-0.023,0.101-0.032c0.091-0.054,0.111-0.116,0.165-0.198c0.084-0.132,0.269-0.313,0.297-0.397
	c0.004-0.007-0.037-0.125-0.032-0.164c0.019-0.123,0.066-0.184,0.1-0.298c0.054-0.189,0.087-0.179,0.166-0.299
	c0.095-0.142,0.089-0.23,0.133-0.432c0.019-0.085,0.061-0.156,0.065-0.23c0.003-0.027-0.03-0.064-0.033-0.1
	c-0.002-0.033,0.032-0.058,0.033-0.065c0.005-0.039-0.034-0.046-0.033-0.099C43.327,40.799,43.372,40.654,43.354,40.54z
	 M33.69,35.277c-0.057-0.097-0.117-0.128-0.165-0.198c-0.036-0.052-0.033-0.128-0.066-0.198c-0.063-0.13-0.112-0.324-0.165-0.361
	c-0.134-0.098-0.369-0.028-0.396,0.132c-0.033,0.188,0.142,0.276,0.198,0.331c0.021,0.02,0.043,0.012,0.065,0.033
	c0.073,0.062,0.174,0.192,0.232,0.229c0.037,0.027,0.099,0.006,0.132,0.032c0.016,0.015,0.021,0.084,0.033,0.101
	c0.034,0.046,0.111,0.046,0.132,0.067c0.011,0.009-0.011,0.058,0,0.063c0.014,0.012,0.052-0.005,0.065,0
	c0.123,0.059,0.204,0.355,0.33,0.268C33.946,35.66,33.771,35.415,33.69,35.277z M20.055,34.519c-0.047,0.043,0.01,0.205,0.134,0.197
	C20.453,34.702,20.233,34.353,20.055,34.519z M72.875,35.277c-0.065-0.18-0.196-0.252-0.297-0.198
	c-0.045,0.025-0.082,0.021-0.1,0.066c-0.082,0.229,0.163,0.322,0.266,0.431c0.115,0.123,0.204,0.325,0.264,0.266
	c0.051-0.05-0.096-0.24-0.133-0.396C72.865,35.394,72.894,35.326,72.875,35.277z M96.573,35.18c-0.07,0.018-0.194,0.066-0.265,0.132
	c-0.166,0.147-0.378,0.334-0.364,0.661c0.01,0.254,0.111,0.345,0.298,0.464c0.066,0.043,0.18,0.106,0.265,0.133
	c0.086,0.028,0.173,0.02,0.266,0.033v-1.457C96.706,35.204,96.632,35.165,96.573,35.18z M89.292,35.544
	c-0.055,0.024-0.094,0.034-0.1,0.101c-0.003,0.041,0.078,0.151,0.1,0.165C89.612,35.986,89.566,35.417,89.292,35.544z
	 M93.858,36.173c0.01,0.01,0.052-0.017,0.033-0.031C93.882,36.13,93.842,36.156,93.858,36.173z M41.601,37.132
	c0.077-0.058,0.049-0.184,0.099-0.297c0.027-0.061,0.084-0.093,0.1-0.166c0.055-0.246,0.063-0.561-0.165-0.496
	c-0.069,0.021-0.123,0.19-0.133,0.231c-0.007,0.038,0.05,0.142,0.065,0.229C41.604,36.83,41.565,37.03,41.601,37.132z M95.844,36.77
	c-0.121,0.119,0.147,0.139,0.1,0C95.93,36.729,95.84,36.771,95.844,36.77z M96.506,36.867c-0.009-0.009-0.082,0.019-0.065,0.032
	C96.45,36.91,96.522,36.884,96.506,36.867z M35.875,37.033c-0.101,0.304,0.396,0.51,0.432,0.166c0.02-0.192-0.169-0.33-0.331-0.233
	C35.953,36.979,35.882,37.012,35.875,37.033z M44.313,37c0,0-0.147,0.069-0.164,0.101c-0.027,0.047,0.021,0.134,0,0.197
	c-0.033,0.094-0.167,0.18-0.232,0.266c-0.015,0.021-0.021,0.046-0.032,0.064c-0.021,0.034-0.048,0.042-0.065,0.068
	c-0.119,0.168-0.066,0.17-0.066,0.362c0,0.153-0.082,0.283-0.034,0.331c0.061,0.055,0.094-0.059,0.102-0.066
	c0.128-0.125,0.08-0.004,0.099-0.099c0.006-0.024,0.006-0.074,0-0.101c-0.021-0.095,0.006-0.1,0.066-0.231
	c0.07-0.149,0.095-0.213,0.166-0.296c0.05-0.063,0.061-0.079,0.1-0.1c0.06-0.034,0.121,0.048,0.198,0.032
	c0.023-0.006,0.137-0.095,0.165-0.134C44.816,37.121,44.521,36.919,44.313,37z M75.126,37.396c-0.035-0.029-0.126,0.02-0.132,0.033
	C74.948,37.554,75.21,37.469,75.126,37.396z M94.322,38.357c0.091-0.025,0-0.152,0-0.165c0-0.042,0.047-0.048,0.033-0.101
	c-0.002-0.007-0.063-0.022-0.066-0.033c-0.011-0.023,0.018-0.082,0-0.099c-0.019-0.021-0.115-0.038-0.198-0.067
	c-0.157-0.057-0.242-0.062-0.362-0.032c-0.298,0.073-0.477,0.396-0.331,0.629c0.075,0.123,0.188,0.185,0.331,0.198
	c0.073,0.007,0.304-0.021,0.396-0.066c0.01-0.003,0.023-0.057,0.033-0.064c0.02-0.02,0.081-0.014,0.099-0.034
	C94.344,38.422,94.167,38.396,94.322,38.357z M93.66,38.92c-0.021,0.012-0.093,0.046-0.099,0.066
	c-0.105,0.326,0.527,0.354,0.396,0.064C93.898,38.92,93.694,38.9,93.66,38.92z M54.343,39.316c0.021-0.063-0.091-0.164-0.133-0.066
	S54.325,39.372,54.343,39.316z M70.46,39.583c0.019,0.003,0.067,0.06,0.102,0.063c0.172,0.038,0.3-0.071,0.297-0.164
	c-0.004-0.089-0.152-0.175-0.297-0.166c-0.002,0.002,0,0.034,0,0.034c-0.066,0.007-0.371,0.181-0.366,0.197
	C70.213,39.603,70.416,39.572,70.46,39.583z M83.334,39.383c0.009,0.012,0.05-0.017,0.033-0.031
	C83.358,39.34,83.317,39.366,83.334,39.383z M60.763,40.906c0.005,0.007,0.059,0.023,0.065,0.032
	c0.022,0.024,0.011,0.07,0.033,0.099c0.086,0.104,0.414,0.283,0.529,0.298c0.427,0.06,0.639-0.218,0.761-0.429
	c0.124-0.215,0.124-0.354,0.034-0.597c-0.078-0.209-0.107-0.264-0.232-0.364c-0.046-0.038-0.099-0.109-0.132-0.132
	c-0.126-0.095-0.251-0.157-0.331-0.167c-0.035-0.001-0.057,0.031-0.067,0.034c-0.18,0.017-0.292,0.11-0.362,0.163
	c-0.027,0.021-0.075,0.02-0.101,0.034c-0.174,0.12-0.296,0.484-0.264,0.762C60.703,40.685,60.731,40.842,60.763,40.906z
	 M29.852,39.945c-0.028,0.032-0.031,0.112,0,0.132C30.081,40.222,29.998,39.771,29.852,39.945z M88.961,39.979
	c-0.349,0.084-0.271,0.488,0,0.527c0.048,0.008,0.333-0.102,0.33-0.1c0.001,0,0.044-0.2,0.033-0.265
	C89.303,40.013,89.06,39.954,88.961,39.979z M50.57,40.31c-0.01-0.01-0.05,0.016-0.033,0.031
	C50.545,40.353,50.587,40.325,50.57,40.31z M54.971,40.342c-0.025-0.024-0.097,0.021-0.1,0.034
	C54.856,40.443,55.011,40.383,54.971,40.342z M82.309,40.64c0.04-0.082-0.088-0.146-0.134-0.101
	C82.067,40.649,82.269,40.721,82.309,40.64z M87.431,40.979c-0.012,0.007,0.009-0.059,0.007-0.041
	c0.014-0.107-0.002-0.258-0.032-0.299c0.02,0.028-0.136-0.084-0.199-0.101c-0.124-0.028-0.225,0.028-0.23,0.034
	c-0.1,0.065-0.119,0.22-0.102,0.298C86.92,41.052,87.31,41.144,87.431,40.979z M44.977,40.772c-0.069,0.068-0.044,0.179,0.065,0.166
	C45.187,40.921,45.076,40.672,44.977,40.772z M43.752,41.203c-0.09,0.093,0.089,0.185,0.133,0.132
	C43.938,41.272,43.872,41.081,43.752,41.203z M44.447,41.369c-0.019-0.12-0.056-0.147-0.232-0.134c-0.026,0.003-0.073-0.011-0.1,0
	c-0.04,0.018-0.277,0.261-0.198,0.366c0.059,0.073,0.43-0.004,0.464-0.034c0.012-0.009-0.008-0.052,0-0.066
	C44.429,41.424,44.459,41.445,44.447,41.369z M87.935,41.567C87.941,41.559,88,41.537,88,41.533c0.18-0.282-0.304-0.265-0.396-0.232
	c-0.029,0.012-0.073-0.011-0.102,0c-0.098,0.053-0.104,0.209-0.099,0.232c0.009,0.058,0.109,0.15,0.166,0.166
	C87.719,41.74,87.887,41.621,87.935,41.567z M50.438,41.435c-0.065,0.063,0.087,0.146,0.132,0.099
	C50.616,41.488,50.531,41.342,50.438,41.435z M76.451,41.402c-0.001,0,0,0.032,0,0.032c-0.311,0.104,0.021,0.388,0.133,0.364
	c0.047-0.011,0.13-0.114,0.132-0.167C76.72,41.505,76.512,41.408,76.451,41.402z M53.417,43.355c0.014-0.028-0.013-0.073,0-0.102
	c0.024-0.054,0.055-0.068,0.066-0.134c0.043-0.222-0.026-0.425-0.066-0.595c-0.01-0.043-0.056-0.039-0.065-0.066
	c-0.06-0.148-0.069-0.283-0.101-0.33c-0.03-0.048-0.222-0.226-0.23-0.231c-0.142-0.093-0.512-0.175-0.729-0.23
	c-0.037-0.011-0.056,0.032-0.065,0.032c-0.02,0.002-0.051-0.007-0.066,0c-0.127,0.058-0.3,0.109-0.431,0.166
	c-0.152,0.066-0.206,0.146-0.298,0.297c-0.053,0.086-0.101,0.192-0.133,0.266c-0.081,0.18-0.211,0.466-0.197,0.63
	c0.008,0.104,0.102,0.199,0.165,0.331c0.033,0.068,0.034,0.143,0.065,0.197c0.03,0.06,0.068,0.132,0.1,0.166
	c0.044,0.048,0.158,0.103,0.266,0.166c0.104,0.06,0.2,0.146,0.297,0.164c0.067,0.016,0.176-0.034,0.299-0.034
	c0.21,0.002,0.508,0.054,0.597-0.03c0.053-0.053,0.129-0.096,0.165-0.134c0.038-0.043,0.033-0.084,0.064-0.132
	c0.067-0.104,0.108-0.142,0.166-0.231C53.334,43.439,53.4,43.39,53.417,43.355z M51.1,41.699c-0.028-0.024-0.098,0.02-0.101,0.032
	C50.958,41.912,51.166,41.758,51.1,41.699z M62.319,42.891c0.105-0.071,0.241-0.219,0.231-0.364
	c-0.003-0.041-0.087-0.185-0.133-0.23c-0.132-0.138-0.23-0.138-0.431-0.166c-0.059-0.009-0.112-0.056-0.165-0.065
	c-0.163-0.035-0.309-0.052-0.398-0.065c-0.032-0.008-0.056,0.032-0.064,0.032c-0.152,0.009-0.333,0.03-0.496,0.067
	c-0.045,0.009-0.107,0.016-0.165,0.031c-0.012,0.004-0.051,0.062-0.067,0.066c-0.048,0.014-0.118-0.021-0.164,0
	c-0.03,0.014-0.26,0.192-0.299,0.23c-0.066,0.068-0.112,0.107-0.133,0.198c-0.085,0.411,0.288,0.626,0.596,0.661
	c0.157,0.02,0.333-0.032,0.498-0.032c0.14,0,0.278,0.052,0.396,0.032c0.013-0.002-0.006-0.039,0.032-0.032
	c0.104,0.021,0.188-0.116,0.332-0.166c0.111-0.037,0.216-0.007,0.264-0.031C62.187,43.039,62.295,42.905,62.319,42.891z
	 M43.785,42.13c-0.059,0.06,0.081,0.116,0.1,0.066C43.907,42.13,43.837,42.078,43.785,42.13z M96.274,42.229
	c0.061-0.061-0.079-0.167-0.1-0.066C96.171,42.184,96.244,42.259,96.274,42.229z M31.043,42.362c-0.065-0.093-0.098-0.03-0.133,0
	c-0.086,0.075-0.008,0.112,0.034,0.132C30.945,42.494,31.1,42.438,31.043,42.362z M16.813,42.494
	c-0.041-0.005-0.049,0.027-0.066,0.032c-0.134,0.041-0.222,0.173-0.231,0.267c-0.022,0.221,0.21,0.401,0.364,0.396
	c0.129-0.006,0.317-0.155,0.331-0.299C17.229,42.688,16.998,42.514,16.813,42.494z M85.453,42.561
	c-0.043,0.009-0.087,0.039-0.133,0.064c-0.11,0.064-0.262,0.209-0.264,0.331c-0.002,0.037,0.104,0.271,0.1,0.267
	c0.006,0.006,0.137,0.04,0.264,0.063c0.213,0.043,0.374-0.023,0.496-0.132c0.038-0.034,0.091-0.075,0.101-0.099
	C86.151,42.626,85.66,42.512,85.453,42.561z M63.973,42.658c0.01,0.011,0.051-0.016,0.033-0.032
	C63.998,42.617,63.957,42.643,63.973,42.658z M74.723,42.891c0.002,0,0.004,0,0.007,0C74.718,42.889,74.717,42.889,74.723,42.891z
	 M74.664,42.925c-0.029,0.019-0.139,0.036-0.065,0.133c0.098,0.131,0.565-0.088,0.563-0.101c-0.005-0.011-0.396-0.058-0.438-0.065
	C74.689,42.891,74.682,42.91,74.664,42.925z M26.146,43.453c0.086-0.059,0.002-0.304-0.133-0.166
	C25.934,43.369,26.061,43.51,26.146,43.453z M87.901,43.388c-0.29,0.173,0.061,0.504,0.198,0.462
	c0.095-0.026,0.202-0.209,0.134-0.362c0.012,0.028-0.172-0.112-0.232-0.132C87.952,43.337,87.92,43.375,87.901,43.388z
	 M29.455,43.552c-0.039,0.039-0.066,0.1,0,0.135C29.646,43.784,29.601,43.407,29.455,43.552z M31.108,43.752
	c-0.188,0.08,0.064,0.166,0.101,0.132c0.007-0.007,0.006-0.158,0-0.166C31.177,43.688,31.114,43.748,31.108,43.752z M79.363,44.048
	c-0.132,0.064-0.172,0.167-0.133,0.268c0.062,0.157,0.438,0.123,0.464-0.067C79.723,44.017,79.423,44.02,79.363,44.048z
	 M84.792,44.51c0.207-0.007-0.077-0.177-0.101-0.063C84.677,44.51,84.73,44.517,84.792,44.51z M65.066,45.538
	c-0.002,0.007-0.006,0.062,0,0.066C65.181,45.721,65.101,45.366,65.066,45.538z M81.946,45.638
	c-0.278,0.179,0.336,0.217,0.363,0.197c0.088-0.059,0.002-0.111-0.101-0.166C82.068,45.596,81.965,45.624,81.946,45.638z
	 M96.34,45.67C96.212,45.499,96.169,45.802,96.34,45.67L96.34,45.67z M64.04,46.066c-0.002,0,0.001,0.032,0,0.034
	c-0.051,0.11,0.297,0.215,0.298,0.101C64.338,46.135,64.126,46.056,64.04,46.066z M83.732,46.399
	c-0.066-0.011-0.102,0.014-0.133,0.033c-0.012,0.006-0.062-0.012-0.065,0c-0.089,0.135,0.217,0.106,0.231,0.099
	C83.871,46.471,83.809,46.41,83.732,46.399z M13.402,47.162c-0.063-0.063-0.231-0.041-0.33,0c-0.313,0.121-0.266,0.605,0.033,0.627
	c0.114,0.007,0.34-0.071,0.364-0.101c0.023-0.026,0.021-0.114,0.032-0.164C13.553,47.315,13.491,47.244,13.402,47.162z
	 M19.923,47.162c-0.002,0,0.003,0.028,0,0.032c-0.022,0.041,0.015,0.123,0.033,0.132C19.971,47.332,20.154,47.11,19.923,47.162z
	 M72.479,47.688c-0.203-0.039-0.234-0.06-0.33-0.032c-0.293,0.084-0.323,0.273-0.134,0.398c0.224,0.146,0.4,0.028,0.596-0.067
	c0.152-0.075,0.318-0.131,0.298-0.198C72.889,47.716,72.636,47.721,72.479,47.688z M70.725,48.616
	c-0.016-0.051-0.289-0.129-0.332-0.133c-0.081-0.009-0.11,0.015-0.164,0.034c-0.108,0.039-0.075,0.009-0.133,0.065
	c-0.185,0.183,0.076,0.384,0.33,0.33C70.485,48.901,70.735,48.648,70.725,48.616z M72.015,48.584c-0.054-0.034-0.118-0.006-0.133,0
	c-0.006,0.002-0.064-0.004-0.065,0c-0.021,0.142,0.232,0.257,0.298,0.198C72.115,48.782,72.072,48.618,72.015,48.584z
	 M29.455,48.948c-0.07,0.082,0.011,0.179,0.101,0.132C29.613,49.048,29.556,48.828,29.455,48.948z M51.959,49.015
	c-0.051,0.052,0,0.12,0.067,0.098C52.076,49.094,52.019,48.955,51.959,49.015z M42.295,49.047c-0.071,0.073,0.055,0.146,0.102,0.101
	C42.441,49.1,42.393,48.95,42.295,49.047z M96.639,49.179c-0.125-0.125-0.061-0.063-0.199-0.1c-0.077-0.021-0.156-0.064-0.198,0
	c-0.02,0.03-0.03,0.217,0,0.265c0.016,0.025,0.126,0.023,0.166,0.032c0.205,0.053,0.211,0.053,0.297-0.065
	c-0.006,0.011-0.044-0.012-0.033-0.032c0.013-0.021,0.073,0.011,0.066-0.032C96.742,49.268,96.635,49.175,96.639,49.179z
	 M71.652,49.08c-0.048-0.009-0.07,0.032-0.099,0.032c-0.074,0-0.14-0.052-0.198,0c-0.03,0.025-0.085-0.007-0.067,0.065
	c0.025,0.103,0.104,0.141,0.198,0.133c0.037-0.002,0.082-0.062,0.133-0.099C71.762,49.105,71.77,49.1,71.652,49.08z M33.161,49.444
	c0.075-0.177-0.127-0.242-0.198-0.198C32.748,49.375,33.094,49.602,33.161,49.444z M90.152,49.444
	c-0.103,0.101,0.167,0.136,0.199,0.063C90.4,49.403,90.207,49.39,90.152,49.444z M74.73,49.643
	c-0.038-0.035-0.108-0.157-0.133-0.166c-0.066-0.026-0.126,0.009-0.166,0.031c-0.244,0.157,0.357,0.307,0.396,0.266
	C74.878,49.726,74.707,49.62,74.73,49.643z M37.928,49.941c-0.084-0.12-0.151-0.194-0.331-0.103
	c-0.031,0.019-0.117,0.058-0.134,0.103c-0.102,0.27,0.128,0.44,0.331,0.396c0.089-0.02,0.188-0.129,0.198-0.231
	C38.007,49.972,37.961,49.989,37.928,49.941z M82.473,49.907c-0.153-0.009-0.267,0.111-0.363,0.166
	c-0.063,0.034-0.2,0.066-0.232,0.099c-0.01,0.012,0.013,0.058,0,0.066c-0.059,0.046-0.35,0.061-0.362,0.064
	c-0.009,0.005-0.053,0.059-0.067,0.066c-0.03,0.023-0.073,0.037-0.098,0.066c-0.237,0.266,0.104,0.45,0.297,0.363
	c0.063-0.029,0.104-0.065,0.133-0.101c0.01-0.011,0.062-0.024,0.065-0.032c0.038-0.055,0.031-0.162,0.066-0.198
	c0.005-0.007,0.063-0.029,0.066-0.032c0.027-0.02,0.043-0.052,0.064-0.066c0.071-0.047,0.146-0.025,0.198-0.066
	c0.011-0.007-0.009-0.055,0-0.064c0.008-0.011,0.056-0.021,0.067-0.034c0.066-0.077,0.086-0.095,0.164-0.131
	c0.032-0.016,0.129-0.169,0.1-0.2C82.544,49.844,82.471,49.907,82.473,49.907z M62.915,50.006c0.037-0.038-0.085-0.165-0.1-0.063
	C62.811,49.974,62.866,50.054,62.915,50.006z M61.061,50.502c-0.108-0.027-0.306-0.018-0.432,0.034
	c-0.152,0.064-0.265,0.257-0.265,0.396c0.003,0.244,0.353,0.494,0.497,0.497c0.075,0,0.248-0.093,0.33-0.166
	c0.046-0.038,0.197-0.279,0.199-0.298C61.407,50.81,61.233,50.549,61.061,50.502z M96.771,50.835v-0.034
	C96.733,50.808,96.753,50.835,96.771,50.835z M59.572,50.999c-0.106-0.036-0.161-0.002-0.166,0c-0.177,0.06-0.155,0.048-0.165,0.132
	c-0.016,0.143,0.214,0.273,0.363,0.2c0.066-0.032,0.135-0.184,0.101-0.265C59.698,51.052,59.602,51.01,59.572,50.999z
	 M82.209,51.363c-0.003,0.002,0,0.028,0,0.032C82.209,51.566,82.329,51.243,82.209,51.363z M55.667,51.463
	c-0.065-0.001-0.1-0.035-0.165-0.032c-0.071,0.001-0.474,0.003-0.464,0C55,51.444,54.85,51.564,54.873,51.66
	c0.002,0.007,0.077,0.126,0.1,0.134c0.145,0.048,0.227-0.06,0.363-0.101c0.146-0.044,0.333-0.06,0.497-0.101
	c0.18-0.043,0.36-0.088,0.431-0.163C56.125,51.365,55.902,51.465,55.667,51.463z M43.95,52.521c-0.146,0.006-0.357-0.069-0.431,0
	c-0.013,0.011-0.056,0.021-0.065,0.034c-0.05,0.054-0.036,0.204,0,0.231c0.2,0.144,0.409-0.049,0.529-0.101
	c0.215-0.094,0.492-0.08,0.563-0.198C44.346,52.458,44.186,52.516,43.95,52.521z M82.01,52.951c-0.009-0.009-0.08,0.018-0.063,0.034
	C81.954,52.994,82.026,52.968,82.01,52.951z M85.022,53.216c-0.021-0.031-0.004-0.106-0.032-0.133
	c-0.021-0.018-0.079-0.018-0.101-0.031c-0.099-0.063-0.215-0.127-0.298-0.065c-0.137,0.102-0.02,0.241,0.065,0.298
	c0.1,0.064,0.119,0.029,0.266,0.066c0.059,0.013,0.087,0.048,0.134,0.065C85.425,53.555,85.048,53.259,85.022,53.216z
	 M58.612,53.117c-0.047,0.049,0.081,0.152,0.133,0.099C58.798,53.162,58.719,53.01,58.612,53.117z M74.398,53.78
	c-0.002-0.258-0.438-0.404-0.595-0.332c-0.148,0.069-0.201,0.283-0.199,0.332c0.009,0.114,0.187,0.3,0.332,0.33
	C74.157,54.157,74.401,53.964,74.398,53.78z M48.584,53.847c-0.244,0.118-0.09,0.277-0.099,0.527
	c-0.01,0.226-0.253,1.034-0.101,1.125c0.075,0.043,0.131-0.191,0.133-0.198c0.092-0.243,0.116-0.64,0.198-0.826
	c0.032-0.076,0.113-0.112,0.133-0.166c0.049-0.146,0.054-0.299,0.032-0.364C48.838,53.798,48.651,53.813,48.584,53.847z
	 M53.78,53.847c-0.075,0.073,0.056,0.107,0.1,0.063C53.937,53.854,53.868,53.76,53.78,53.847z M56.99,55.204
	c-0.007,0.002-0.063-0.008-0.065,0c-0.052,0.123,0.172,0.147,0.166,0.032C57.089,55.218,57.015,55.191,56.99,55.204z M63.509,55.334
	c-0.008-0.009-0.049,0.018-0.031,0.034C63.487,55.375,63.527,55.352,63.509,55.334z M58.91,55.831
	c-0.041,0.18,0.167,0.024,0.1-0.032C58.982,55.773,58.914,55.816,58.91,55.831z M93.363,56.094
	c-0.049-0.018-0.081,0.023-0.101,0.034c-0.04,0.021-0.09,0.021-0.1,0.066c-0.011,0.056,0.036,0.192,0.1,0.229
	c0.08,0.051,0.227,0.041,0.266,0c0.002,0,0.038-0.183,0.033-0.197C93.567,56.247,93.418,56.116,93.363,56.094z M34.684,56.163
	c0,0-0.001,0.032,0,0.032c-0.293,0.054-0.115,0.371-0.066,0.53c0.01,0.027-0.006,0.065,0,0.099c0.037,0.214,0.112,0.043,0.166-0.133
	C34.86,56.437,34.871,56.228,34.684,56.163z M21.247,56.525c-0.009,0.006-0.063-0.007-0.065,0c-0.05,0.09,0.104,0.217,0.165,0.101
	C21.406,56.512,21.295,56.502,21.247,56.525z M20.321,56.658c-0.003,0,0.001,0.032,0,0.033c-0.007,0.006-0.075,0.092-0.034,0.133
	C20.375,56.911,20.547,56.656,20.321,56.658z M33.195,56.89c-0.051,0.031-0.104,0.178-0.101,0.265
	c0.002,0.049,0.095,0.14,0.133,0.265c0.057,0.188-0.017,0.464,0.132,0.396c0.053-0.021,0.009-0.225,0.034-0.362
	c0.009-0.056,0.087-0.147,0.099-0.229C33.534,56.922,33.37,56.777,33.195,56.89z M26.311,57.188
	c-0.015-0.096-0.335-0.079-0.496-0.102c-0.086-0.011-0.125-0.055-0.198-0.064c0,0-0.054,0.039-0.1,0.034
	c-0.021-0.005-0.04-0.038-0.1-0.034c-0.002,0.002,0,0.032,0,0.034c-0.329,0.109-0.378,0.512,0.065,0.527
	C25.673,57.592,26.327,57.301,26.311,57.188z M81.978,57.088c-0.266,0.202,0.143,0.55,0.297,0.432
	C82.47,57.369,82.171,56.941,81.978,57.088z M63.246,57.419c0.037-0.002,0.051,0.048,0.066,0
	C63.311,57.387,63.253,57.378,63.246,57.419z M25.946,58.512c-0.089-0.014-0.148,0.008-0.198,0.033
	c-0.134,0.068-0.161,0.104-0.132,0.23c0.021,0.102,0.185,0.161,0.297,0.166c0.093,0.004,0.463-0.164,0.464-0.166
	C26.398,58.684,26.042,58.524,25.946,58.512z M47.955,58.612c-0.123,0.123,0.17,0.214,0.198,0.098
	C48.178,58.612,48.039,58.526,47.955,58.612z M95.746,58.612c0.018,0.016,0.116-0.018,0.1-0.034
	C95.828,58.561,95.729,58.594,95.746,58.612z M70.527,58.677c-0.086,0.038-0.18,0.124-0.134,0.266
	c0.029,0.086,0.236,0.172,0.332,0.132c0.047-0.02,0.098-0.136,0.099-0.198C70.83,58.684,70.615,58.637,70.527,58.677z
	 M90.846,58.975c-0.28,0.16,0.048,0.494,0.198,0.463c0.039-0.006,0.159-0.079,0.166-0.198C91.22,59.067,90.918,58.936,90.846,58.975
	z M77.973,59.239c-0.035,0.016-0.082,0.003-0.101,0.034c-0.026,0.05-0.002,0.162,0.033,0.198c0.092,0.095,0.281-0.031,0.266-0.134
	C78.16,59.264,78.049,59.205,77.973,59.239z M94.389,59.605c-0.009,0.005-0.065-0.008-0.067,0c-0.11,0.347,0.546,0.431,0.364,0.098
	C94.631,59.604,94.454,59.557,94.389,59.605z M36.802,59.836c-0.068,0.069,0.091,0.071,0.066,0
	C36.855,59.8,36.809,59.828,36.802,59.836z M58.38,59.836c0,0.019,0.033,0.037,0.033,0C58.414,59.817,58.38,59.798,58.38,59.836z
	 M88.034,60.068c-0.037,0.001-0.05,0.025-0.066,0.031c-0.079,0.021-0.188,0.067-0.23,0.133c-0.148,0.229-0.022,0.418,0.165,0.498
	c0.186,0.077,0.457,0.024,0.529-0.168c0.063-0.166,0.031-0.26-0.031-0.33C88.301,60.125,88.212,60.058,88.034,60.068z
	 M50.172,60.232c-0.166,0.05-0.262,0.207-0.297,0.364c-0.086,0.372,0.143,0.527,0.396,0.597c0.212,0.056,0.188,0.037,0.331-0.066
	c0.15-0.111,0.249-0.255,0.231-0.464C50.808,60.354,50.42,60.159,50.172,60.232z M62.815,60.53
	c-0.095-0.028-0.221-0.005-0.298-0.032c-0.011-0.005-0.047-0.055-0.066-0.064c-0.153-0.091-0.242-0.139-0.363-0.102
	c-0.436,0.134-0.051,0.452,0.199,0.463c0.048,0.004,0.172-0.089,0.23-0.099c0.053-0.009,0.111,0.032,0.166,0.034
	c0.159,0.002,0.326-0.066,0.331-0.101C63.016,60.616,62.82,60.532,62.815,60.53z M44.811,61.027c-0.021,0.021-0.06,0.11-0.032,0.166
	c0.06,0.127,0.468,0.162,0.463,0.164c0.065-0.041-0.001-0.082-0.065-0.164C45.112,61.113,44.939,60.898,44.811,61.027z M18.6,61.357
	c-0.002,0.004-0.047,0.077,0,0.101C18.732,61.521,18.715,61.241,18.6,61.357z M63.509,61.59c-0.124,0.125,0.157,0.211,0.2,0.133
	C63.757,61.631,63.627,61.474,63.509,61.59z M52.821,61.722c-0.022,0.076,0.129,0.07,0.1,0
	C52.909,61.695,52.833,61.683,52.821,61.722z M75.391,61.952c-0.167,0.17,0.303,0.377,0.331,0.134
	C75.735,61.986,75.49,61.856,75.391,61.952z M49.841,62.086c-0.067,0.07,0.092,0.072,0.067,0
	C49.897,62.051,49.848,62.079,49.841,62.086z M57.818,62.12c-0.108-0.075-0.197-0.034-0.199-0.034
	c-0.064,0.029-0.117,0.027-0.132,0.066c-0.041,0.112,0.064,0.274,0.099,0.299c0.032,0.021,0.04,0.046,0.066,0.065
	c0.078,0.06,0.438,0.06,0.431,0.065C58.106,62.56,57.953,62.212,57.818,62.12z M69.5,62.217c-0.129-0.104-0.14-0.088-0.198-0.063
	c-0.136,0.054-0.153,0.075-0.133,0.198c0.039,0.217,0.456,0.174,0.463,0C69.634,62.313,69.559,62.267,69.5,62.217z M81.877,62.647
	c-0.004,0.016,0.095,0.173,0.166,0.102C82.121,62.671,81.91,62.546,81.877,62.647z M66.422,62.913c-0.065-0.046-0.127-0.001-0.132,0
	c-0.046,0.027-0.063-0.007-0.065,0.066c-0.003,0.12,0.227,0.271,0.299,0.197C66.539,63.162,66.496,62.965,66.422,62.913z
	 M87.504,63.177c-0.044,0.144,0.166,0.184,0.198,0.102C87.724,63.223,87.535,63.079,87.504,63.177z M82.871,63.477
	c-0.032,0.078,0.089,0.125,0.134,0.098C83.108,63.512,82.911,63.38,82.871,63.477z M73.472,63.841c0,0,0.001,0.032,0,0.033
	c-0.277,0.111,0.104,0.417,0.198,0.197C73.714,63.969,73.518,63.848,73.472,63.841z M53.978,64.469
	c-0.098-0.037-0.223-0.006-0.265,0c-0.274,0.035-0.332,0.106-0.431,0.299c-0.047,0.091-0.087,0.147-0.1,0.229
	c-0.021,0.141,0.041,0.439,0.133,0.53c0.119,0.114,0.482,0.152,0.628,0.099c0.095-0.034,0.409-0.267,0.431-0.331
	c0.044-0.126,0.029-0.38-0.032-0.527C54.307,64.682,54.075,64.507,53.978,64.469z M57.454,64.635
	c-0.157,0.014-0.267,0.06-0.265,0.231c0.004,0.322,0.523,0.32,0.53,0C57.721,64.719,57.605,64.619,57.454,64.635z M74.431,64.8
	c-0.084-0.047-0.178-0.041-0.298,0c-0.207,0.069-0.302,0.327-0.166,0.466c0.022,0.021,0.012,0.075,0.033,0.098
	c0.065,0.063,0.368,0.086,0.464,0.032c0.004-0.002,0.115-0.161,0.133-0.23C74.611,65.105,74.477,64.825,74.431,64.8z M60.069,65.825
	c-0.027,0.056,0.029,0.14,0.099,0.134C60.355,65.944,60.141,65.681,60.069,65.825z M7.082,66.191h0.397
	C7.412,66.054,7.155,66.079,7.082,66.191z M32.036,66.157c0.01,0.007,0.051-0.016,0.033-0.034
	C32.06,66.114,32.018,66.14,32.036,66.157z M9.034,2.019C9.13,1.922,8.938,2.113,9.034,2.019L9.034,2.019z M17.871,15.057
	c-0.057-0.063-0.151-0.178-0.231-0.1c-0.092,0.092-0.02,0.156,0.033,0.232c0.061,0.088,0.146,0.084,0.198,0.133
	c0.073,0.065,0.134,0.166,0.198,0.229c0.085,0.086,0.146,0.192,0.231,0.166c-0.101-0.131-0.176-0.228-0.298-0.431
	C17.98,15.251,17.935,15.126,17.871,15.057z M43.321,19.492c0.02,0.002,0.038-0.027,0-0.034c-0.055,0.184-0.389,0.211-0.298,0.398
	c-0.005-0.012,0.093,0.027,0.065,0.032C43.213,19.867,43.284,19.652,43.321,19.492z M8.042,21.909
	C7.946,21.813,8.138,22.005,8.042,21.909L8.042,21.909z M40.541,27.037C40.637,26.942,40.445,27.134,40.541,27.037L40.541,27.037z
	 M70.891,46.167c-0.08-0.093-0.265-0.226-0.33-0.198c-0.179,0.071,0.065,0.278,0.131,0.299c0.039,0.011,0.099-0.022,0.199,0
	c0.004,0,0.027,0.002,0.032,0c0.003-0.002,0.015,0.051,0.032,0C70.951,46.283,70.893,46.171,70.891,46.167z"/>
</svg>
