<?xml version="1.0" encoding="utf-8"?>
<!-- Generator: Adobe Illustrator 16.0.0, SVG Export Plug-In . SVG Version: 6.00 Build 0)  -->
<!DOCTYPE svg PUBLIC "-//W3C//DTD SVG 1.1//EN" "http://www.w3.org/Graphics/SVG/1.1/DTD/svg11.dtd">
<svg version="1.1"
	 id="svg1641" xmlns:cc="http://creativecommons.org/ns#" xmlns:dc="http://purl.org/dc/elements/1.1/" xmlns:rdf="http://www.w3.org/1999/02/22-rdf-syntax-ns#"
	 xmlns="http://www.w3.org/2000/svg" xmlns:xlink="http://www.w3.org/1999/xlink" x="0px" y="0px" width="143.447px"
	 height="71.281px" viewBox="0 0 143.447 71.281" enable-background="new 0 0 143.447 71.281" xml:space="preserve">
<rect x="0" y="35.615" fill="#E4104D" width="143.444" height="35.665"/>
<polygon fill="#8A85FF" points="0,0 0,35.614 0,35.615 143.445,35.615 143.445,35.614 143.445,0 "/>
<path fill="#F3EF7D" d="M36.982,22.786c0.114-0.096,0.191-0.236,0.191-0.402c0-0.289-0.219-0.521-0.489-0.521
	c-0.271,0-0.49,0.232-0.49,0.521c0,0.242,0.16,0.438,0.372,0.496c-0.383,0.1-0.729,0.235-1.018,0.413
	c1.161-1.87,2.635-5.063,1.04-7.434c-2.391-3.555-11.765-0.112-11.803-0.112c-0.034,0-0.091-1.58-1.867-1.881
	c0.145-0.158,0.235-0.37,0.235-0.604c0-0.455-0.333-0.814-0.755-0.865c0.138-0.041,0.354-0.215,0.366-0.928
	c0.018-0.892-0.321-1.162-0.321-1.162v-0.219c0,0,0.257,0.018,0.272,0.018c0.017,0,0.274,0.42,1.146,0.42
	c0.869,0,1.016-0.352,1-0.471c-0.017-0.117-0.064-0.488-0.937-0.521c-0.87-0.033-1.209,0.269-1.226,0.269s-0.274-0.017-0.274-0.017
	l0.032-0.304c0,0,0.371-0.285,0.354-1.043c-0.017-0.756-0.369-0.992-0.531-0.992c-0.161,0-0.469,0.285-0.469,1.01
	s0.354,1.01,0.354,1.061l0.017,0.252h-0.29c0,0-0.371-0.287-1.145-0.27c-0.773,0.018-0.952,0.286-0.937,0.438
	c0.018,0.152,0.063,0.422,0.951,0.404c0.886-0.017,1.145-0.236,1.145-0.236h0.241v0.22c0,0.017-0.227,0.271-0.258,1.162
	c0.014,0.694,0.188,0.866,0.322,0.909c-0.424,0.049-0.757,0.41-0.757,0.865c0,0.244,0.096,0.465,0.248,0.625
	c-1.627,0.363-1.67,1.861-1.705,1.861c-0.038,0-9.412-3.443-11.803,0.113c-1.631,2.425-0.049,5.719,1.123,7.57
	c-0.294-0.221-0.646-0.416-1.06-0.555c-0.045,0.014-0.089,0.029-0.137,0.029c-0.136,0-0.259-0.062-0.348-0.155
	c-0.524-0.104-1.128-0.12-1.833,0.011l4.064,8.114c0,0,3.948-1.69,12.615-1.69c8.666,0,13.288,1.933,13.288,1.933l2.795-8.258l0,0
	C38.052,22.717,37.483,22.713,36.982,22.786z M8.131,22.904c-0.136,0-0.259-0.06-0.348-0.155c0.17,0.034,0.332,0.075,0.483,0.126
	C8.222,22.887,8.178,22.904,8.131,22.904z M12.238,14.167c0.271,0,0.489-0.232,0.489-0.521c0-0.287-0.22-0.521-0.489-0.521
	c-0.271,0-0.49,0.233-0.49,0.521C11.748,13.935,11.967,14.167,12.238,14.167z M11.199,14.325c0.271,0,0.489-0.232,0.489-0.521
	c0-0.287-0.219-0.521-0.489-0.521s-0.49,0.233-0.49,0.521C10.709,14.093,10.927,14.325,11.199,14.325z M9.12,14.851
	c0.271,0,0.489-0.232,0.489-0.521S9.39,13.81,9.12,13.81s-0.49,0.232-0.49,0.521S8.849,14.851,9.12,14.851z M13.328,14.22
	c0.271,0,0.489-0.232,0.489-0.521c0-0.289-0.22-0.521-0.489-0.521c-0.271,0-0.49,0.232-0.49,0.521
	C12.837,13.986,13.056,14.22,13.328,14.22z M10.109,14.483c0.271,0,0.49-0.233,0.49-0.521c0-0.287-0.22-0.521-0.49-0.521
	c-0.271,0-0.489,0.234-0.489,0.521S9.84,14.483,10.109,14.483z M16.543,14.692c0.271,0,0.49-0.232,0.49-0.52
	c0-0.289-0.221-0.521-0.49-0.521c-0.271,0-0.489,0.232-0.489,0.521C16.052,14.46,16.272,14.692,16.543,14.692z M17.583,14.956
	c0.271,0,0.49-0.232,0.49-0.521c0-0.287-0.22-0.521-0.49-0.521s-0.49,0.233-0.49,0.521C17.093,14.724,17.311,14.956,17.583,14.956z
	 M15.455,14.483c0.271,0,0.49-0.233,0.49-0.521c0-0.287-0.22-0.521-0.49-0.521s-0.49,0.234-0.49,0.521S15.183,14.483,15.455,14.483z
	 M14.366,14.325c0.271,0,0.489-0.232,0.489-0.521c0-0.287-0.221-0.521-0.489-0.521c-0.271,0-0.49,0.233-0.49,0.521
	C13.876,14.093,14.095,14.325,14.366,14.325z M18.622,15.272c0.271,0,0.49-0.233,0.49-0.521c0-0.287-0.22-0.521-0.49-0.521
	s-0.49,0.234-0.49,0.521S18.35,15.272,18.622,15.272z M8.62,22.383c0-0.289-0.22-0.521-0.49-0.521S7.64,22.094,7.64,22.383
	c0,0.143,0.055,0.271,0.143,0.365c0.17,0.034,0.332,0.075,0.483,0.126C8.469,22.811,8.62,22.619,8.62,22.383z M7.042,18.704
	c-0.271,0-0.49,0.232-0.49,0.521c0,0.287,0.22,0.521,0.49,0.521c0.271,0,0.49-0.233,0.49-0.521S7.311,18.704,7.042,18.704z
	 M8.179,15.536c0.271,0,0.489-0.232,0.489-0.521c0-0.287-0.219-0.521-0.489-0.521c-0.271,0-0.49,0.233-0.49,0.521
	C7.689,15.303,7.91,15.536,8.179,15.536z M6.993,18.587c0.271,0,0.489-0.232,0.489-0.521c0-0.287-0.22-0.52-0.489-0.52
	c-0.271,0-0.49,0.232-0.49,0.52S6.721,18.587,6.993,18.587z M37.332,18.065c0,0.289,0.219,0.521,0.49,0.521
	c0.271,0,0.489-0.232,0.489-0.521c0-0.287-0.22-0.52-0.489-0.52C37.551,17.546,37.332,17.779,37.332,18.065z M7.14,17.483
	c0.271,0,0.489-0.233,0.489-0.521c0-0.287-0.219-0.521-0.489-0.521c-0.271,0-0.49,0.234-0.49,0.521S6.87,17.483,7.14,17.483z
	 M7.537,16.483c0.271,0,0.49-0.233,0.49-0.521c0-0.287-0.22-0.521-0.49-0.521c-0.27,0-0.49,0.234-0.49,0.521
	C7.047,16.25,7.265,16.483,7.537,16.483z M7.289,19.81c-0.271,0-0.49,0.232-0.49,0.521s0.221,0.521,0.49,0.521
	c0.271,0,0.49-0.232,0.49-0.521S7.559,19.81,7.289,19.81z M7.196,21.434c0,0.289,0.219,0.521,0.489,0.521s0.489-0.232,0.489-0.521
	c0-0.287-0.219-0.52-0.489-0.52S7.196,21.147,7.196,21.434z M36.788,15.962c0,0.288,0.219,0.521,0.49,0.521
	c0.271,0,0.489-0.233,0.489-0.521c0-0.287-0.22-0.521-0.489-0.521C37.007,15.44,36.788,15.675,36.788,15.962z M36.634,15.536
	c0.271,0,0.491-0.232,0.491-0.521c0-0.287-0.22-0.521-0.491-0.521c-0.27,0-0.489,0.233-0.489,0.521
	C36.144,15.303,36.365,15.536,36.634,15.536z M35.696,14.851c0.271,0,0.489-0.232,0.489-0.521s-0.22-0.521-0.489-0.521
	c-0.271,0-0.49,0.232-0.49,0.521S35.424,14.851,35.696,14.851z M34.705,14.483c0.271,0,0.49-0.233,0.49-0.521
	c0-0.287-0.221-0.521-0.49-0.521c-0.271,0-0.491,0.234-0.491,0.521S34.434,14.483,34.705,14.483z M37.184,16.961
	c0,0.288,0.22,0.521,0.489,0.521c0.271,0,0.49-0.232,0.49-0.521s-0.219-0.521-0.49-0.521C37.404,16.44,37.184,16.675,37.184,16.961z
	 M33.616,14.325c0.271,0,0.489-0.232,0.489-0.521c0-0.287-0.219-0.521-0.489-0.521s-0.49,0.233-0.49,0.521
	C33.126,14.093,33.345,14.325,33.616,14.325z M38.015,20.33c0-0.288-0.22-0.521-0.49-0.521c-0.271,0-0.489,0.232-0.489,0.521
	s0.219,0.521,0.489,0.521S38.015,20.618,38.015,20.33z M19.612,15.483c0.271,0,0.489-0.233,0.489-0.521
	c0-0.287-0.22-0.521-0.489-0.521c-0.271,0-0.49,0.234-0.49,0.521C19.122,15.25,19.341,15.483,19.612,15.483z M38.263,19.226
	c0-0.289-0.22-0.521-0.49-0.521c-0.271,0-0.489,0.232-0.489,0.521c0,0.287,0.219,0.521,0.489,0.521
	C38.044,19.746,38.263,19.513,38.263,19.226z M37.129,20.914c-0.27,0-0.489,0.233-0.489,0.52c0,0.289,0.221,0.521,0.489,0.521
	c0.271,0,0.49-0.232,0.49-0.521C37.619,21.147,37.4,20.914,37.129,20.914z M24.713,14.962c0,0.288,0.22,0.521,0.49,0.521
	c0.271,0,0.491-0.233,0.491-0.521c0-0.287-0.221-0.521-0.491-0.521C24.932,14.44,24.713,14.675,24.713,14.962z M32.577,14.167
	c0.271,0,0.489-0.232,0.489-0.521c0-0.287-0.22-0.521-0.489-0.521c-0.271,0-0.491,0.233-0.491,0.521
	C32.086,13.935,32.307,14.167,32.577,14.167z M26.194,15.272c0.271,0,0.489-0.233,0.489-0.521c0-0.287-0.22-0.521-0.489-0.521
	c-0.271,0-0.49,0.234-0.49,0.521S25.922,15.272,26.194,15.272z M28.272,14.692c0.271,0,0.49-0.232,0.49-0.52
	c0-0.289-0.22-0.521-0.49-0.521c-0.271,0-0.489,0.232-0.489,0.521C27.782,14.46,28.001,14.692,28.272,14.692z M27.232,14.956
	c0.271,0,0.49-0.232,0.49-0.521c0-0.287-0.22-0.521-0.49-0.521c-0.271,0-0.489,0.233-0.489,0.521
	C26.742,14.724,26.961,14.956,27.232,14.956z M29.361,14.483c0.271,0,0.489-0.233,0.489-0.521c0-0.287-0.22-0.521-0.489-0.521
	c-0.271,0-0.49,0.234-0.49,0.521S29.089,14.483,29.361,14.483z M31.489,14.22c0.271,0,0.489-0.232,0.489-0.521
	c0-0.289-0.22-0.521-0.489-0.521c-0.271,0-0.49,0.232-0.49,0.521C30.998,13.986,31.217,14.22,31.489,14.22z M30.449,14.325
	c0.271,0,0.489-0.232,0.489-0.521c0-0.287-0.219-0.521-0.489-0.521s-0.49,0.233-0.49,0.521
	C29.959,14.093,30.178,14.325,30.449,14.325z"/>
<path d="M10.726,24.735c-0.568-0.729-4.07-5.439-1.957-8.62c2.295-3.454,11.294-0.108,11.331-0.108c0.036,0,0.072-1.854,2.294-1.892
	c2.224,0.037,2.26,1.892,2.295,1.892c0.036,0,9.035-3.346,11.331,0.108c2.296,3.454-2.04,8.725-2.04,8.725h-0.049
	c-0.14-0.9-0.729-3.39-3.048-3.91c-2.397-0.416-4.52,2.696-4.52,2.696s-0.5-3.502-4.046-3.598c-3.545,0.096-4.045,3.598-4.045,3.598
	s-2.119-3.112-4.521-2.696C11.519,21.432,10.892,23.762,10.726,24.735z M6.481,23.551L6.481,23.551
	c0.043,0.226,0.206,0.379,0.361,0.346l0,0C7,23.862,7.092,23.652,7.047,23.426l0,0c-0.043-0.225-0.206-0.379-0.361-0.345l0,0
	C6.529,23.117,6.437,23.327,6.481,23.551z M7.293,23.588L7.293,23.588c0.044,0.225,0.206,0.379,0.362,0.346l0,0
	c0.155-0.035,0.247-0.246,0.202-0.469l0,0c-0.044-0.226-0.205-0.379-0.361-0.346l0,0C7.341,23.154,7.249,23.365,7.293,23.588z
	 M8.025,23.91L8.025,23.91c0.044,0.226,0.206,0.379,0.362,0.345l0,0c0.155-0.033,0.246-0.244,0.202-0.469l0,0
	c-0.044-0.225-0.206-0.379-0.361-0.346l0,0C8.073,23.473,7.981,23.684,8.025,23.91z M8.715,24.35L8.715,24.35
	c0.044,0.225,0.206,0.379,0.362,0.345l0,0c0.155-0.034,0.248-0.245,0.204-0.47l0,0C9.237,24,9.075,23.846,8.919,23.881l0,0
	C8.761,23.915,8.671,24.125,8.715,24.35z M22.439,21.067L22.439,21.067c0,0.229,0.13,0.416,0.288,0.416l0,0
	c0.16,0,0.289-0.186,0.289-0.416l0,0c0-0.228-0.129-0.416-0.289-0.416l0,0C22.569,20.651,22.439,20.837,22.439,21.067z
	 M23.225,21.276L23.225,21.276c0,0.23,0.129,0.416,0.289,0.416l0,0c0.158,0,0.289-0.186,0.289-0.416l0,0
	c0-0.229-0.131-0.415-0.289-0.415l0,0C23.355,20.861,23.225,21.047,23.225,21.276z M21.716,21.067L21.716,21.067
	c0,0.229,0.131,0.416,0.289,0.416l0,0c0.16,0,0.289-0.186,0.289-0.416l0,0c0-0.228-0.129-0.416-0.289-0.416l0,0
	C21.846,20.651,21.716,20.837,21.716,21.067z M20.34,21.698L20.34,21.698c0,0.229,0.13,0.416,0.289,0.416l0,0
	c0.159,0,0.288-0.187,0.288-0.416l0,0c0-0.23-0.129-0.416-0.288-0.416l0,0C20.469,21.282,20.34,21.467,20.34,21.698z M20.995,21.276
	L20.995,21.276c0,0.23,0.128,0.416,0.289,0.416l0,0c0.158,0,0.289-0.186,0.289-0.416l0,0c0-0.229-0.131-0.415-0.289-0.415l0,0
	C21.123,20.861,20.995,21.047,20.995,21.276z M19.813,22.33L19.813,22.33c0,0.229,0.129,0.416,0.289,0.416l0,0
	c0.159,0,0.288-0.187,0.288-0.416l0,0c0-0.229-0.129-0.416-0.288-0.416l0,0C19.944,21.914,19.813,22.1,19.813,22.33z M23.882,21.75
	L23.882,21.75c0,0.229,0.13,0.416,0.288,0.416l0,0c0.16,0,0.289-0.186,0.289-0.416l0,0c0-0.229-0.129-0.416-0.289-0.416l0,0
	C24.012,21.334,23.882,21.52,23.882,21.75z M24.472,22.33L24.472,22.33c0,0.229,0.129,0.416,0.289,0.416l0,0
	c0.158,0,0.287-0.187,0.287-0.416l0,0c0-0.229-0.129-0.416-0.287-0.416l0,0C24.601,21.914,24.472,22.1,24.472,22.33z M30.751,22.186
	L30.751,22.186c-0.033,0.227,0.067,0.432,0.226,0.457l0,0c0.156,0.027,0.313-0.135,0.347-0.362l0,0
	c0.033-0.229-0.066-0.433-0.226-0.458l0,0C30.94,21.797,30.785,21.958,30.751,22.186z M31.498,22.524L31.498,22.524
	c-0.034,0.227,0.065,0.432,0.225,0.457l0,0c0.156,0.027,0.313-0.135,0.347-0.362l0,0c0.032-0.228-0.068-0.433-0.227-0.458l0,0
	C31.685,22.135,31.531,22.297,31.498,22.524z M30.038,22.067L30.038,22.067c-0.034,0.227,0.065,0.432,0.225,0.457l0,0
	c0.156,0.027,0.313-0.135,0.346-0.362l0,0c0.033-0.228-0.067-0.433-0.226-0.458l0,0C30.225,21.678,30.072,21.84,30.038,22.067z
	 M28.584,22.461L28.584,22.461c-0.033,0.229,0.066,0.432,0.225,0.459l0,0c0.157,0.026,0.313-0.136,0.347-0.363l0,0
	c0.032-0.227-0.067-0.432-0.225-0.457l0,0C28.773,22.073,28.618,22.236,28.584,22.461z M29.293,22.155L29.293,22.155
	c-0.033,0.227,0.067,0.432,0.226,0.458l0,0c0.156,0.026,0.313-0.136,0.346-0.363l0,0c0.033-0.228-0.067-0.433-0.225-0.458l0,0
	C29.482,21.766,29.327,21.928,29.293,22.155z M27.973,23L27.973,23c-0.033,0.228,0.066,0.433,0.226,0.458l0,0
	c0.156,0.025,0.313-0.136,0.345-0.363l0,0c0.034-0.227-0.065-0.432-0.224-0.457l0,0C28.161,22.611,28.007,22.772,27.973,23z
	 M32.077,23.1L32.077,23.1c-0.033,0.227,0.066,0.432,0.225,0.457l0,0c0.157,0.026,0.313-0.135,0.347-0.362l0,0
	c0.034-0.228-0.065-0.433-0.225-0.458l0,0C32.265,22.71,32.111,22.874,32.077,23.1z M32.575,23.77L32.575,23.77
	c-0.034,0.227,0.066,0.432,0.225,0.457l0,0c0.157,0.027,0.313-0.135,0.346-0.362l0,0c0.034-0.228-0.066-0.433-0.225-0.458l0,0
	C32.763,23.381,32.609,23.543,32.575,23.77z M13.969,21.969L13.969,21.969c0.038,0.227,0.197,0.385,0.354,0.354l0,0
	c0.156-0.03,0.253-0.238,0.213-0.464l0,0c-0.039-0.227-0.198-0.385-0.354-0.354l0,0C14.024,21.536,13.929,21.744,13.969,21.969z
	 M14.778,22.026L14.778,22.026c0.038,0.226,0.197,0.384,0.354,0.354l0,0c0.157-0.029,0.252-0.238,0.214-0.464l0,0
	c-0.039-0.226-0.197-0.384-0.354-0.354l0,0C14.835,21.592,14.74,21.799,14.778,22.026z M13.259,22.108L13.259,22.108
	c0.039,0.227,0.198,0.385,0.354,0.355l0,0c0.156-0.031,0.252-0.238,0.213-0.465l0,0c-0.039-0.227-0.198-0.384-0.354-0.354l0,0
	C13.314,21.674,13.219,21.883,13.259,22.108z M12.01,22.994L12.01,22.994c0.039,0.226,0.198,0.384,0.354,0.354l0,0
	c0.156-0.031,0.253-0.24,0.214-0.465l0,0c-0.039-0.226-0.198-0.384-0.354-0.354l0,0C12.066,22.559,11.971,22.768,12.01,22.994z
	 M12.584,22.454L12.584,22.454c0.04,0.227,0.198,0.385,0.354,0.354l0,0c0.157-0.029,0.252-0.237,0.213-0.463l0,0
	c-0.038-0.227-0.196-0.385-0.354-0.354l0,0C12.64,22.02,12.545,22.227,12.584,22.454z M11.6,23.715L11.6,23.715
	c0.039,0.227,0.197,0.385,0.354,0.354l0,0c0.157-0.031,0.252-0.238,0.213-0.464l0,0c-0.039-0.227-0.197-0.385-0.354-0.354l0,0
	C11.658,23.283,11.561,23.491,11.6,23.715z M15.505,22.366L15.505,22.366c0.039,0.227,0.198,0.384,0.354,0.354l0,0
	c0.157-0.029,0.253-0.238,0.214-0.463l0,0c-0.039-0.227-0.198-0.385-0.354-0.355l0,0C15.56,21.932,15.465,22.139,15.505,22.366z
	 M16.182,22.823L16.182,22.823c0.039,0.227,0.197,0.384,0.354,0.354l0,0c0.157-0.029,0.252-0.238,0.214-0.463l0,0
	c-0.039-0.227-0.198-0.385-0.354-0.355l0,0C16.24,22.389,16.143,22.596,16.182,22.823z M37.755,23.52L37.755,23.52
	c-0.082,0.211-0.027,0.437,0.12,0.5l0,0c0.146,0.064,0.333-0.055,0.415-0.269l0,0c0.082-0.212,0.028-0.437-0.12-0.501l0,0
	C38.022,23.188,37.837,23.307,37.755,23.52z M36.255,23.551L36.255,23.551c-0.081,0.211-0.027,0.437,0.12,0.5l0,0
	c0.146,0.064,0.333-0.056,0.415-0.269l0,0c0.082-0.212,0.028-0.438-0.12-0.501l0,0C36.523,23.217,36.337,23.338,36.255,23.551z
	 M37.012,23.424L37.012,23.424c-0.082,0.213-0.028,0.438,0.118,0.502l0,0c0.148,0.063,0.333-0.057,0.416-0.27l0,0
	c0.082-0.212,0.028-0.438-0.12-0.501l0,0C37.281,23.092,37.093,23.211,37.012,23.424z M35.544,23.924L35.544,23.924
	c-0.082,0.213-0.027,0.438,0.12,0.502l0,0c0.146,0.063,0.333-0.057,0.415-0.27l0,0c0.081-0.212,0.027-0.438-0.12-0.501l0,0
	C35.811,23.592,35.626,23.711,35.544,23.924z M10.093,30.779L10.093,30.779c0,1.13,5.798,2.046,12.948,2.046l0,0
	c7.149,0,12.947-0.916,12.947-2.046l0,0c0-1.13-5.798-2.048-12.947-2.048l0,0C15.89,28.731,10.093,29.647,10.093,30.779z
	 M20.357,23.61c1.159,0.51,1.267,0.51,1.738,0.354c0.217-0.472,0.325-0.982,0.325-0.982l0.146,1.021
	c0.616,0.039,0.58,0.117,1.701-0.236c-2.171,1.297-1.847,4.478-1.847,4.478S22.384,25.219,20.357,23.61L20.357,23.61z
	 M14.116,24.695c0.106-0.513,0.099-1.036,0.099-1.036l0.367,0.956c0.606-0.116,0.589-0.03,1.603-0.655
	c-1.824,1.803-0.805,4.814-0.805,4.814s-0.704-2.932-3.03-3.988C13.588,24.993,13.692,24.965,14.116,24.695z M28.805,23.84
	c1.003,0.801,1.107,0.828,1.602,0.801c0.319-0.398,0.545-0.865,0.545-0.865l-0.1,1.029c0.587,0.201,0.532,0.267,1.703,0.221
	c-2.407,0.682-2.835,3.85-2.835,3.85S30.392,25.934,28.805,23.84L28.805,23.84z M9.167,26.155c-0.001-0.454-0.082-0.914-0.082-0.914
	l0.391,0.831c0.398-0.12,0.398-0.044,1.003-0.623c-0.989,1.64,0.146,4.256,0.146,4.256s-0.908-2.556-2.657-3.418
	C8.848,26.432,8.917,26.405,9.167,26.155z M34.839,25.161c0.391,0.852,0.451,0.895,0.787,0.971c0.351-0.26,0.659-0.594,0.659-0.594
	l-0.418,0.814c0.32,0.281,0.263,0.324,1.054,0.521c-1.83,0.073-3.199,2.56-3.199,2.56S35.174,27.18,34.839,25.161L34.839,25.161z
	 M22.252,12.376h0.178v1.768h-0.178V12.376z M21.494,13.166h1.692v0.185h-1.692V13.166z"/>
<path fill="#F3EF7D" d="M35.89,17.511h-0.14v1.67h0.14V17.511z M35.384,16.604h-0.139v3.434h0.139V16.604z M34.902,16.136h-0.163
	v4.516h0.163V16.136z M34.281,15.806h-0.177v5.4h0.177V15.806z M33.579,15.612h-0.177v6.052h0.177V15.612z M32.863,15.378h-0.176
	v6.595h0.176V15.378z M32.252,15.327h-0.177V22.2h0.177V15.327z M31.64,15.327h-0.178v7.066h0.178V15.327z M30.875,15.343h-0.164
	v7.371h0.164V15.343z M30.158,15.412h-0.201v7.375h0.201V15.412z M29.372,15.595h-0.201v7.265h0.201V15.595z M28.605,15.876h-0.188
	v7.036h0.188V15.876z M27.802,16.198h-0.177v6.662h0.177V16.198z M27.137,16.415H26.96v6.214h0.178V16.415z M26.429,16.836h-0.15
	v5.604h0.15V16.836z M25.809,17.38h-0.127v4.789h0.127V17.38z M25.254,17.911h-0.151v3.896h0.151V17.911z M24.709,18.726h-0.136
	v2.486h0.136V18.726z M8.83,17.345h0.14v1.668H8.83V17.345z M9.336,16.438h0.14v3.433h-0.14V16.438z M9.819,15.97h0.163v4.514H9.819
	V15.97z M10.438,15.64h0.178v5.399h-0.178V15.64z M11.14,15.445h0.177v6.052H11.14V15.445z M11.858,15.211h0.176v6.594h-0.176
	V15.211z M12.468,15.16h0.178v6.873h-0.178V15.16z M13.079,15.16h0.177v7.065h-0.177V15.16z M13.844,15.175h0.162v7.371h-0.162
	V15.175z M14.561,15.246h0.201v7.375h-0.201V15.246z M15.347,15.427h0.2v7.265h-0.2V15.427z M16.116,15.709h0.188v7.036h-0.188
	V15.709z M16.919,16.031h0.178v6.661h-0.178V16.031z M17.583,16.248h0.177v6.215h-0.177V16.248z M18.291,16.669h0.15v5.603h-0.15
	V16.669z M18.911,17.214h0.127v4.788h-0.127V17.214z M19.467,17.744h0.151v3.895h-0.151V17.744z M20.01,18.558h0.137v2.488H20.01
	V18.558z M22.381,17.968L22.381,17.968c0.217,0,0.392,0.197,0.392,0.441l0,0c0,0.244-0.175,0.441-0.392,0.441l0,0
	c-0.216,0-0.391-0.197-0.391-0.441l0,0C21.99,18.164,22.165,17.968,22.381,17.968z M22.356,17.073L22.356,17.073
	c0.203,0,0.366,0.186,0.366,0.415l0,0c0,0.229-0.164,0.416-0.366,0.416l0,0c-0.201,0-0.365-0.187-0.365-0.416l0,0
	C21.99,17.259,22.155,17.073,22.356,17.073z M22.356,16.229L22.356,16.229c0.203,0,0.366,0.174,0.366,0.389l0,0
	c0,0.215-0.164,0.391-0.366,0.391l0,0c-0.201,0-0.365-0.175-0.365-0.391l0,0C21.99,16.404,22.155,16.229,22.356,16.229z
	 M22.357,15.548L22.357,15.548c0.176,0,0.316,0.139,0.316,0.311l0,0c0,0.172-0.142,0.311-0.316,0.311l0,0
	c-0.175,0-0.315-0.139-0.315-0.311l0,0C22.041,15.687,22.182,15.548,22.357,15.548z M22.357,14.757L22.357,14.757
	c0.176,0,0.316,0.164,0.316,0.363l0,0c0,0.201-0.142,0.363-0.316,0.363l0,0c-0.175,0-0.315-0.163-0.315-0.363l0,0
	C22.041,14.919,22.182,14.757,22.357,14.757z M22.358,14.179L22.358,14.179c0.146,0,0.268,0.115,0.268,0.258l0,0
	c0,0.143-0.12,0.258-0.268,0.258l0,0c-0.147,0-0.269-0.115-0.269-0.258l0,0C22.091,14.293,22.21,14.179,22.358,14.179z
	 M22.382,18.863L22.382,18.863c0.271,0,0.49,0.233,0.49,0.521l0,0c0,0.289-0.22,0.521-0.49,0.521l0,0
	c-0.271,0-0.489-0.232-0.489-0.521l0,0C21.892,19.097,22.113,18.863,22.382,18.863z"/>
</svg>
