<?xml version="1.0" encoding="utf-8"?>
<!-- Generator: Adobe Illustrator 16.0.0, SVG Export Plug-In . SVG Version: 6.00 Build 0)  -->
<!DOCTYPE svg PUBLIC "-//W3C//DTD SVG 1.1//EN" "http://www.w3.org/Graphics/SVG/1.1/DTD/svg11.dtd">
<svg version="1.1" id="Layer_1" xmlns="http://www.w3.org/2000/svg" xmlns:xlink="http://www.w3.org/1999/xlink" x="0px" y="0px"
	 width="27.874px" height="30.647px" viewBox="1.562 0.227 27.874 30.647" enable-background="new 1.562 0.227 27.874 30.647"
	 xml:space="preserve">
<path fill="#000000" d="M25.371,7.306c-0.092-3.925-3.301-7.077-7.248-7.079c-2.638,0.001-4.941,1.412-6.208,3.517
	c-0.595-0.327-1.28-0.517-2.01-0.517C7.626,3.229,5.772,5.033,5.689,7.293c-2.393,0.786-4.125,3.025-4.127,5.687
	c0,3.312,2.687,6,6,6v-0.002h5.271l-2.166,3.397l1.977-0.411L10,30.875l9.138-10.102L17,21l2.168-2.022h4.269c3.312,0,6-2.688,6-6
	C29.434,10.34,27.732,8.11,25.371,7.306z M23.436,16.979H7.561c-2.209-0.006-3.997-1.792-4.001-4.001
	C3.558,10.996,5.01,9.36,6.91,9.047c0.265-0.043,0.502-0.19,0.657-0.414C7.722,8.41,7.779,8.135,7.73,7.87
	C7.702,7.722,7.685,7.582,7.685,7.446C7.689,6.221,8.68,5.23,9.905,5.228c0.647,0,1.217,0.277,1.633,0.73
	c0.233,0.257,0.587,0.375,0.927,0.31c0.342-0.066,0.626-0.308,0.748-0.63c0.749-1.992,2.662-3.412,4.912-3.41
	c2.898,0.004,5.244,2.35,5.25,5.249c0,0.161-0.008,0.325-0.026,0.497c-0.05,0.517,0.305,0.983,0.815,1.078
	c1.859,0.345,3.273,1.967,3.271,3.924C27.43,15.186,25.645,16.973,23.436,16.979z"/>
</svg>
