<?xml version="1.0" encoding="utf-8"?>
<!-- Generator: Adobe Illustrator 16.0.0, SVG Export Plug-In . SVG Version: 6.00 Build 0)  -->
<!DOCTYPE svg PUBLIC "-//W3C//DTD SVG 1.1//EN" "http://www.w3.org/Graphics/SVG/1.1/DTD/svg11.dtd">
<svg version="1.1" id="Layer_1" xmlns="http://www.w3.org/2000/svg" xmlns:xlink="http://www.w3.org/1999/xlink" x="0px" y="0px"
	 width="28px" height="21px" viewBox="2 4.938 28 21" enable-background="new 2 4.938 28 21" xml:space="preserve">
<path fill="#000000" d="M16,4.938c-7.732,0-14,4.701-14,10.5c0,1.981,0.741,3.834,2.016,5.414L2,25.271l5.613-1.439
	c2.339,1.316,5.237,2.105,8.387,2.105c7.732,0,14-4.701,14-10.5C30,9.639,23.732,4.938,16,4.938z M16.982,21.375h-1.969v-1.889
	h1.969V21.375z M16.982,17.469v0.625h-1.969v-0.769c0-2.321,2.641-2.689,2.641-4.337c0-0.752-0.672-1.329-1.553-1.329
	c-0.912,0-1.713,0.672-1.713,0.672l-1.12-1.393c0,0,1.104-1.153,3.009-1.153c1.81,0,3.49,1.121,3.49,3.009
	C19.768,15.438,16.982,15.741,16.982,17.469z"/>
</svg>
