<?xml version="1.0" encoding="utf-8"?>
<!-- Generator: Adobe Illustrator 16.0.0, SVG Export Plug-In . SVG Version: 6.00 Build 0)  -->
<!DOCTYPE svg PUBLIC "-//W3C//DTD SVG 1.1//EN" "http://www.w3.org/Graphics/SVG/1.1/DTD/svg11.dtd">
<svg version="1.1" id="Layer_1" xmlns="http://www.w3.org/2000/svg" xmlns:xlink="http://www.w3.org/1999/xlink" x="0px" y="0px"
	 width="100px" height="100px" viewBox="0 0 100 100" enable-background="new 0 0 100 100" xml:space="preserve">
<path fill="#584536" d="M9.889,98.191c0,0,83.216,10.188,78.079-96.362C87.968,1.83,7.133,8.006,9.889,98.191z M12.354,95.343
	C9.795,10.634,85.75,4.815,85.75,4.815C90.484,104.889,12.354,95.343,12.354,95.343z"/>
<path fill="#B8D54C" d="M12.354,95.343c0,0,78.13,9.546,73.396-90.527C85.75,4.815,9.795,10.634,12.354,95.343z M63.048,55.544
	c0.879-0.043,1.759,0.108,2.585,0.545c2.406,1.229,3.303,4.249,2.073,6.74c-1.263,2.466-4.231,3.464-6.603,2.21
	c-2.391-1.254-3.319-4.266-2.058-6.766c0.699-1.407,1.962-2.32,3.361-2.638L58.713,37.84L36.089,66.198l-1.023,10.683
	c0.682-0.146,1.424-0.068,2.116,0.281c1.57,0.861,2.209,2.875,1.374,4.513c-0.853,1.646-2.85,2.304-4.411,1.478
	c-1.613-0.862-2.235-2.877-1.374-4.514c0.333-0.683,0.854-1.169,1.493-1.477l-0.973-7.499L18.83,87.775
	c0,0,11.747-17.532,26.797-37.12l-14.281,1.518c0.188,0.931,0.093,1.903-0.375,2.824c-1.024,2.014-3.421,2.799-5.392,1.783
	c-1.945-1.023-2.713-3.523-1.664-5.537c1.023-2.013,3.447-2.824,5.392-1.8c0.947,0.521,1.612,1.348,1.92,2.321l17.259-4.813
	c5.264-6.74,10.819-13.582,16.372-19.938l-8.777,0.409c-0.034,0.469-0.146,0.947-0.357,1.391c-0.854,1.664-2.832,2.304-4.395,1.467
	c-1.612-0.828-2.227-2.841-1.374-4.504c0.802-1.638,2.808-2.303,4.396-1.442c0.987,0.521,1.586,1.494,1.73,2.568l10.826-2.218
	c4.556-5.127,9.086-9.845,13.387-13.863L61.248,34.684L63.048,55.544z"/>
<path fill="#584536" d="M66.904,24.685l-10.826,2.218c-0.146-1.075-0.743-2.048-1.73-2.568c-1.589-0.861-3.593-0.196-4.396,1.442
	c-0.853,1.664-0.238,3.677,1.374,4.504c1.563,0.836,3.541,0.196,4.395-1.467c0.213-0.444,0.323-0.921,0.357-1.391l8.777-0.409
	c-5.554,6.355-11.106,13.198-16.372,19.938l-17.259,4.812c-0.308-0.973-0.973-1.8-1.92-2.32c-1.945-1.024-4.368-0.213-5.392,1.8
	c-1.049,2.014-0.282,4.514,1.664,5.537c1.971,1.016,4.368,0.229,5.392-1.783c0.469-0.921,0.563-1.895,0.375-2.824l14.281-1.518
	c-15.05,19.588-26.797,37.119-26.797,37.119l14.46-18.111l0.973,7.499c-0.64,0.308-1.16,0.794-1.493,1.478
	c-0.861,1.637-0.239,3.649,1.374,4.512c1.561,0.828,3.558,0.171,4.411-1.477c0.835-1.638,0.196-3.65-1.374-4.513
	c-0.691-0.351-1.434-0.427-2.116-0.281l1.023-10.683l22.625-28.357l3.693,17.797c-1.398,0.315-2.661,1.229-3.36,2.637
	c-1.263,2.5-0.333,5.512,2.058,6.766c2.371,1.254,5.34,0.256,6.603-2.21c1.229-2.491,0.333-5.511-2.073-6.74
	c-0.826-0.437-1.706-0.588-2.585-0.545l-1.8-20.86l19.043-23.862C75.99,14.84,71.46,19.558,66.904,24.685z"/>
</svg>
