<svg xmlns="http://www.w3.org/2000/svg" xmlns:se="http://svg-edit.googlecode.com" xmlns:xlink="http://www.w3.org/1999/xlink" id="svgcontent" width="205.65" height="395.85" x="0" y="0" viewBox="0 0 205.65 395.85" overflow="hidden"><g mask="" style="pointer-events:all"><title style="pointer-events:inherit">Layer 1</title><g id="svg_1" type="text" text="PARTY!" font-size="26.595832912560073" font-family="Brush-Script" fill="000000" text-anchor="start" font-weight="normal" font-style="normal" lineHeight="1" shapeId="0" shapeVal="0" fill-opacity="1" display="null" elemBBoxWidth="102.50077056884766" stroke="null" stroke-dasharray="none" style="pointer-events:inherit"><path id="svg_18" fill="#000000" stroke-width="0" d="M90.01218,211.90482C89.18771,211.50587 88.38983,210.33566 89.16112,209.3782C89.93239,208.42076 91.58133,208.10161 93.07069,207.64948C93.07069,207.64948 97.27284,202.11755 97.27284,202.11755C94.34731,202.38351 91.44835,202.94202 89.05473,203.76649C88.68239,203.89948 87.99089,204.03246 87.85791,203.63351C88.20366,202.33032 89.2941,201.1069 89.98558,200.17606C91.68771,198.97925 95.83667,198.39413 99.00157,198.39413C103.15051,198.39413 107.29947,199.27179 107.1133,203.68671C106.82074,210.54843 99.34732,213.10162 91.87389,212.33035C91.87389,212.33035 90.75687,214.08568 90.75687,214.08568C92.06006,214.85695 90.06537,216.29312 89.58664,217.1176C89.24091,217.43675 88.84196,217.86229 88.36324,217.91547C86.34195,217.38356 88.28345,214.67078 88.84196,213.76653C88.84196,213.76653 90.01218,211.90482 90.01218,211.90482M104.10797,202.72925C102.59201,202.22394 100.7037,202.09096 98.7888,202.01117C98.76221,202.59627 98.68242,202.88882 98.41646,203.23457C98.41646,203.23457 95.43773,207.27715 95.43773,207.27715C95.43773,207.27715 97.06007,207.17076 97.06007,207.17076C97.592,207.14417 97.5654,207.67607 97.11327,207.78246C97.11327,207.78246 94.82602,208.36757 94.82602,208.36757C94.82602,208.36757 94.24092,209.21864 94.24092,209.21864C99.32072,209.75055 103.73563,208.23459 105.09201,204.45798C105.41116,203.52713 105.06541,203.075 104.10797,202.72925C104.10797,202.72925 104.10797,202.72925 104.10797,202.72925M115.54417,215.54845C115.65056,213.50056 116.82079,212.35695 117.53886,210.92078C117.53886,210.92078 111.79416,211.08034 111.79416,211.08034C111.79416,211.08034 106.12926,216.66547 106.12926,216.66547C105.27818,217.43675 104.98563,218.07504 103.70903,218.15483C102.72499,218.20802 102.72499,217.41016 103.2303,216.71866C104.26755,215.33568 105.59734,214.03249 107.40585,213.36758C107.40585,213.36758 109.45374,211.08034 109.45374,211.08034C108.33672,211.21332 106.10266,211.26651 107.16649,209.96332C108.20374,208.68672 109.79948,207.01118 112.27289,207.06438C112.51225,207.06438 112.67183,207.06438 112.69843,207.25055C112.51225,207.83565 110.99629,207.38353 110.78352,207.94203C111.02289,208.47395 112.08672,208.07501 112.83141,208.1282C112.83141,208.1282 118.28355,203.52713 118.28355,203.52713C118.28355,203.52713 120.65057,201.66542 120.65057,201.66542C122.27292,200.575 123.70909,199.27179 125.5708,198.76648C126.90059,198.92606 126.36868,200.60159 125.83676,201.53244C125.83676,201.53244 122.45909,207.46332 122.45909,207.46332C123.25697,207.46332 124.18782,207.30374 124.77293,207.5697C123.94846,208.50055 123.41655,209.4048 122.77824,210.57503C122.77824,210.57503 120.65057,210.65482 120.65057,210.65482C120.11867,211.69205 119.29419,212.64951 118.97504,213.84631C119.00163,214.08568 119.2144,214.27185 119.48036,214.29845C120.46442,214.08568 120.65057,213.66014 121.76761,212.86226C121.76761,212.86226 122.24632,213.52716 122.24632,213.52716C120.73036,214.85695 119.48036,216.71866 116.90056,216.90483C116.18248,216.95802 115.51758,216.26653 115.54417,215.54845C115.54417,215.54845 115.54417,215.54845 115.54417,215.54845M123.12399,201.53244C123.12399,201.53244 119.26759,204.48457 119.26759,204.48457C119.26759,204.48457 115.41119,207.86224 115.41119,207.86224C115.41119,207.86224 119.50696,207.5697 119.50696,207.5697C119.50696,207.5697 123.12399,201.53244 123.12399,201.53244M127.43251,212.11758C125.75697,211.82503 125.99634,210.14949 127.29953,209.35161C128.04422,208.89949 129.00166,208.58034 130.25166,208.44736C130.25166,208.44736 134.18785,202.80904 134.18785,202.80904C134.18785,202.80904 130.70381,203.52713 130.70381,203.52713C130.70381,203.52713 128.54955,204.24521 128.54955,204.24521C129.29422,204.2984 130.43785,204.21861 130.70381,204.69734C130.38466,205.22926 129.18784,205.04309 128.38997,205.20267C127.56549,205.36224 126.71443,205.44203 125.78357,205.44203C123.86867,205.38884 125.22505,202.94202 125.78357,202.19734C128.07082,199.11221 133.60274,198.81967 138.70915,198.81967C140.99638,198.81967 142.77831,199.08562 144.05492,199.72392C145.67726,200.5218 146.15599,201.50584 145.75703,203.34096C144.48045,209.00587 137.03362,208.71332 130.99635,210.04311C130.99635,210.04311 141.02299,213.44737 141.02299,213.44737C142.40596,214.05908 142.8315,214.5112 142.88469,216.37291C142.9113,217.56973 142.19319,217.64952 141.18256,217.25058C141.18256,217.25058 134.00169,214.43143 134.00169,214.43143C134.00169,214.43143 129.34741,212.80907 129.34741,212.80907C129.34741,212.80907 127.08678,216.02718 127.08678,216.02718C127.19315,217.17079 126.10272,217.80908 125.06548,217.94206C124.3208,217.75591 124.48038,216.95802 124.87932,216.21333C124.87932,216.21333 126.04953,214.19206 126.04953,214.19206C126.04953,214.19206 127.43251,212.11758 127.43251,212.11758M143.04427,202.46329C140.94319,202.01117 138.39,202.33032 135.70381,202.62286C135.62404,203.47394 135.33147,204.08565 134.93254,204.61755C134.93254,204.61755 132.77827,207.80905 132.77827,207.80905C132.77827,207.80905 135.01233,207.35693 135.01233,207.35693C138.25702,206.55905 142.00703,205.78778 143.73576,203.52713C144.13469,202.99521 143.78896,202.62286 143.04427,202.46329C143.04427,202.46329 143.04427,202.46329 143.04427,202.46329M153.49643,217.33037C152.80495,218.10164 150.94322,217.72931 151.15599,216.61227C151.98047,212.33035 155.19856,209.11226 157.59219,206.08032C157.59219,206.08032 160.43794,202.46329 160.43794,202.46329C159.13475,202.54308 157.85814,202.62286 156.68793,202.72925C153.20387,203.0218 150.17195,203.68671 147.16663,204.53777C147.9113,204.69734 149.00172,204.75053 149.26768,205.36224C148.68259,206.02713 147.19322,205.28246 145.86342,205.49522C143.70917,205.81438 144.69321,203.89948 144.90598,202.51648C145.09215,201.34627 145.30492,200.94733 146.42194,200.41542C149.79961,198.79308 155.17197,198.28775 159.85283,198.73988C162.06029,198.95265 162.0869,200.33563 162.6454,201.95798C162.37944,203.60692 161.07625,204.77713 160.22517,206.02713C160.22517,206.02713 157.48579,210.01651 157.48579,210.01651C157.48579,210.01651 155.38474,213.44737 155.38474,213.44737C155.70387,213.31439 156.10283,213.47397 156.02303,213.81972C155.78368,215.01653 154.40068,216.29312 153.49643,217.33037C153.49643,217.33037 153.49643,217.33037 153.49643,217.33037M162.85817,206.2133C162.24646,206.50586 160.96986,207.83565 160.49113,206.66544C160.94325,205.12288 161.10284,203.44734 162.40602,202.72925C162.40602,202.72925 165.65073,200.94733 165.65073,200.94733C167.7784,199.98988 169.98584,198.6335 172.80501,198.52711C174.56032,198.44733 175.01247,200.06967 174.02841,201.47925C172.35287,203.89948 168.78903,208.1548 167.0603,210.54843C166.82094,210.89418 166.68797,211.13353 166.68797,211.3197C166.68797,211.55907 166.84753,211.71864 167.0869,211.71864C168.9752,211.16013 171.36882,208.89949 172.93799,207.43672C172.93799,207.43672 178.25716,202.51648 178.25716,202.51648C179.34758,201.74521 180.4912,203.55373 179.77312,204.53777C179.77312,204.53777 175.09224,210.89418 175.09224,210.89418C174.16139,212.33035 172.21989,214.77716 171.76778,216.21333C171.92735,216.69206 172.21989,216.29312 172.75182,216.02718C174.16139,215.28249 175.41139,214.08568 177.2731,213.89951C178.09758,213.81972 177.938,214.5378 177.40608,214.96333C177.40608,214.96333 173.15074,218.3676 173.15074,218.3676C173.15074,218.3676 168.76244,222.54315 168.76244,222.54315C167.99117,223.28783 166.34222,222.94209 166.50179,221.71867C166.87413,218.84633 169.29436,215.62823 170.9433,213.39418C170.9433,213.39418 174.95927,207.94203 174.95927,207.94203C174.95927,207.94203 167.43265,214.45802 167.43265,214.45802C166.42201,215.12291 165.41136,216.13356 164.10817,216.18675C163.36348,216.05377 162.53902,215.33568 162.53902,214.4846C164.02838,210.17609 167.99117,206.74522 170.49117,203.31436C170.81032,202.86223 170.9167,202.46329 170.46458,202.27713C168.15074,203.34096 165.2252,205.06969 162.85817,206.2133C162.85817,206.2133 162.85817,206.2133 162.85817,206.2133M182.29973,212.48993C183.12419,212.38354 183.81569,213.2878 183.81569,214.13887C183.81569,215.38887 183.17738,216.87823 182.14014,216.93143C181.47523,216.95802 180.70396,216.31972 180.75716,215.65483C180.86354,214.37823 181.1295,212.62291 182.29973,212.48993C182.29973,212.48993 182.29973,212.48993 182.29973,212.48993M187.32634,198.84627C188.07101,198.23456 190.43803,198.84627 189.87953,200.06967C189.08165,201.7718 188.12421,203.34096 187.27315,204.9899C187.27315,204.9899 184.56036,210.44205 184.56036,210.44205C184.85292,211.13353 184.45398,212.09099 183.7625,212.09099C182.43269,212.09099 181.821,210.44205 182.61888,209.32501C182.61888,209.32501 185.46461,202.67606 185.46461,202.67606C185.46461,202.67606 186.87421,199.64413 186.87421,199.64413C187.00719,199.29839 187.14015,198.97925 187.32634,198.84627C187.32634,198.84627 187.32634,198.84627 187.32634,198.84627" style="pointer-events:inherit"/><rect id="svg_19" x="87.46406960650347" y="198.39453276316635" width="102.50000032782555" height="24.53837565262802" fill="#000000" opacity="0" style="pointer-events:inherit"/></g><g type="text" text="Max's" font-size="28.87964478002571" font-family="Aldo" fill="ffffff" text-anchor="start" font-weight="normal" font-style="normal" lineHeight="1" shapeId="0" shapeVal="0" fill-opacity="1" display="null" elemBBoxWidth="82.83984375" stroke="null" stroke-dasharray="none" id="svg_6" stroke-opacity="1" style="pointer-events:inherit"><path fill="#ffffff" stroke-width="1" d="M26.11695085144043,150.69928884033203 C26.11695085144043,150.69928884033203 32.09504085144043,130.48353884033202 32.09504085144043,130.48353884033202 C32.09504085144043,130.48353884033202 38.79512085144043,130.48353884033202 38.79512085144043,130.48353884033202 C38.79512085144043,130.48353884033202 33.25022085144043,150.69928884033203 33.25022085144043,150.69928884033203 C33.25022085144043,150.69928884033203 26.11695085144043,150.69928884033203 26.11695085144043,150.69928884033203 C26.11695085144043,150.69928884033203 26.11695085144043,150.69928884033203 26.11695085144043,150.69928884033203 M35.01188085144043,150.67041884033205 C35.01188085144043,150.67041884033205 40.52789085144043,130.48353884033202 40.52789085144043,130.48353884033202 C40.52789085144043,130.48353884033202 46.67926085144043,130.48353884033202 46.67926085144043,130.48353884033202 C46.67926085144043,130.48353884033202 47.17021085144043,132.38959884033204 47.17021085144043,132.38959884033204 C47.17021085144043,132.38959884033204 41.50980085144043,150.67041884033205 41.50980085144043,150.67041884033205 C41.50980085144043,150.67041884033205 35.01188085144043,150.67041884033205 35.01188085144043,150.67041884033205 C35.01188085144043,150.67041884033205 35.01188085144043,150.67041884033205 35.01188085144043,150.67041884033205 M43.53138085144043,150.67041884033205 C43.53138085144043,150.67041884033205 47.863320851440434,134.95988884033204 47.863320851440434,134.95988884033204 C47.863320851440434,134.95988884033204 52.05087085144043,150.67041884033205 52.05087085144043,150.67041884033205 C52.05087085144043,150.67041884033205 43.53138085144043,150.67041884033205 43.53138085144043,150.67041884033205 C43.53138085144043,150.67041884033205 43.53138085144043,150.67041884033205 43.53138085144043,150.67041884033205 M62.76522085144043,150.69928884033203 C57.306970851440425,151.19024884033203 53.78365085144043,147.78244884033202 53.78365085144043,142.67074884033204 C53.78365085144043,139.29182884033202 56.09402085144043,136.57714884033203 58.75095085144043,135.68187884033202 C58.75095085144043,135.68187884033202 62.76522085144043,150.69928884033203 62.76522085144043,150.69928884033203 M60.19493085144043,135.33531884033204 C64.78679085144043,134.61332884033203 68.45451085144043,138.48320884033203 68.45451085144043,142.67074884033204 C68.45451085144043,142.67074884033204 68.45451085144043,150.69928884033203 68.45451085144043,150.69928884033203 C68.45451085144043,150.69928884033203 64.35360085144043,150.69928884033203 64.35360085144043,150.69928884033203 C64.35360085144043,150.69928884033203 60.19493085144043,135.33531884033204 60.19493085144043,135.33531884033204 M70.18729085144042,150.69928884033203 C70.21617085144044,147.08933884033203 69.84073085144043,144.86560884033202 71.60239085144043,142.35307884033205 C70.07177085144042,139.98493884033203 70.12953085144042,138.42543884033202 70.18729085144042,135.24867884033202 C70.18729085144042,135.24867884033202 76.80073085144042,135.24867884033202 76.80073085144042,135.24867884033202 C76.80073085144042,135.24867884033202 76.80073085144042,150.69928884033203 76.80073085144042,150.69928884033203 C76.80073085144042,150.69928884033203 70.18729085144042,150.69928884033203 70.18729085144042,150.69928884033203 C70.18729085144042,150.69928884033203 70.18729085144042,150.69928884033203 70.18729085144042,150.69928884033203 M78.38911085144042,150.69928884033203 C78.38911085144042,150.69928884033203 78.38911085144042,135.24867884033202 78.38911085144042,135.24867884033202 C78.38911085144042,135.24867884033202 84.85815085144043,135.24867884033202 84.85815085144043,135.24867884033202 C84.88703085144043,138.25216884033202 84.97367085144043,140.24485884033203 83.58745085144042,142.35307884033205 C85.17582085144042,144.60568884033202 84.82927085144043,147.26261884033204 84.85815085144043,150.69928884033203 C84.85815085144043,150.69928884033203 78.38911085144042,150.69928884033203 78.38911085144042,150.69928884033203 C78.38911085144042,150.69928884033203 78.38911085144042,150.69928884033203 78.38911085144042,150.69928884033203 M86.59093085144043,134.72884884033203 C86.59093085144043,134.72884884033203 86.59093085144043,130.39689884033203 86.59093085144043,130.39689884033203 C86.59093085144043,130.39689884033203 92.71341085144043,130.39689884033203 92.71341085144043,130.39689884033203 C92.71341085144043,130.39689884033203 92.71341085144043,134.72884884033203 92.71341085144043,134.72884884033203 C92.71341085144043,134.72884884033203 89.82544085144043,137.61680884033203 89.82544085144043,137.61680884033203 C89.82544085144043,137.61680884033203 89.82544085144043,134.72884884033203 89.82544085144043,134.72884884033203 C89.82544085144043,134.72884884033203 86.59093085144043,134.72884884033203 86.59093085144043,134.72884884033203 C86.59093085144043,134.72884884033203 86.59093085144043,134.72884884033203 86.59093085144043,134.72884884033203 M108.94377085144043,142.95954884033202 C109.17481085144043,147.20485884033204 105.68037085144043,150.69928884033203 101.69498085144043,150.69928884033203 C98.08503085144044,150.69928884033203 94.76387085144043,147.84020884033202 94.44619085144043,144.54792884033202 C94.44619085144043,144.54792884033202 102.47473085144043,144.54792884033202 102.47473085144043,144.54792884033202 C102.47473085144043,144.54792884033202 102.47473085144043,142.95954884033202 102.47473085144043,142.95954884033202 C102.47473085144043,142.95954884033202 108.94377085144043,142.95954884033202 108.94377085144043,142.95954884033202 C108.94377085144043,142.95954884033202 108.94377085144043,142.95954884033202 108.94377085144043,142.95954884033202 M94.44619085144043,141.40004884033203 C94.79274085144043,138.10776884033203 98.08503085144044,135.24867884033202 101.69498085144043,135.24867884033202 C105.39158085144042,135.24867884033202 108.42394085144043,138.16552884033203 108.94377085144043,141.40004884033203 C108.94377085144043,141.40004884033203 94.44619085144043,141.40004884033203 94.44619085144043,141.40004884033203 C94.44619085144043,141.40004884033203 94.44619085144043,141.40004884033203 94.44619085144043,141.40004884033203 " id="svg_7" stroke="#000000" style="pointer-events:inherit"/><rect x="26.1171875" y="130.3984375" width="82.83984375" height="20.34765625" fill="#ffffff" opacity="0" id="svg_8" stroke="#000000" stroke-width="1" style="pointer-events:inherit"/></g><g type="text" text="Bachelor" font-size="49.42932848627019" font-family="Brush-Script" fill="000000" text-anchor="start" font-weight="normal" font-style="normal" lineHeight="1" shapeId="0" shapeVal="0" fill-opacity="1" display="null" elemBBoxWidth="172.15113830566406" stroke="null" stroke-dasharray="none" id="svg_15" transform="rotate(-6.86539 96.309 165.734)"><path fill="#000000" stroke-width="0" d="M30.525840000000002,149.10338 C37.39651,147.86765 47.23295,147.57106 47.8261,154.09573 C46.78809,162.7953 35.32048,163.4873 27.16464,165.26677 C27.16464,165.26677 26.27491,166.05763 26.27491,166.05763 C30.723550000000003,166.84851 35.41934,167.58995 38.97825,169.17169 C43.32803,171.09943 40.65885,175.49864 38.43453,177.08038 C34.33189,180.04614 29.191249999999997,182.31989 22.37,182.46817 C17.57535,182.51761 12.731280000000002,180.54044 14.01644,175.84465 C14.9556,172.48344 17.37764,170.30856 19.35481,167.88652 C17.32821,167.73824 15.400459999999999,167.54051 15.10389,166.10707 C15.84533,163.58617 20.63997,163.88275 23.40801,163.2896 C26.37377,160.52155 29.09238,156.41891 34.18361,156.07291 C35.17219,156.36949 34.48018,156.96265 33.73874,157.80293 C33.73874,157.80293 29.83383,162.35043 29.83383,162.35043 C35.17219,161.55957 40.60942,160.76869 43.22917,157.25922 C44.81091,155.13376 41.59801,154.04631 38.97825,154.09573 C32.84902,154.1946 27.609499999999997,155.52919 22.76543,157.20979 C23.50687,157.45694 23.65516,158.39609 22.66657,158.69267 C19.99739,159.38467 16.93277,159.97783 14.60959,161.06528 C12.97843,161.80672 11.44612,160.47212 12.4347,158.79152 C14.461300000000001,155.28204 16.88334,152.41515 21.48027,151.27827 C24.841459999999998,150.43797 27.856659999999998,149.54823 30.525840000000002,149.10338 C30.525840000000002,149.10338 30.525840000000002,149.10338 30.525840000000002,149.10338 M20.24454,172.92831 C18.56394,175.54807 22.12285,177.08038 24.98975,176.93208 C28.40038,176.73438 31.563850000000002,175.49864 33.98589,174.11462 C36.25964,172.78003 36.7045,171.09943 33.98589,170.11084 C31.31671,169.17169 27.21407,168.87511 24.14945,168.43024 C22.96315,169.81427 21.23312,171.34657 20.24454,172.92831 C20.24454,172.92831 20.24454,172.92831 20.24454,172.92831 M69.13014,174.21347 C69.13014,174.90549 68.98186,175.64693 69.08071,176.28951 C66.3621,178.36554 63.79177,180.78758 60.72716,182.51761 C58.70055000000001,183.65448 56.4268,183.0119 56.4268,180.78758 C56.4268,178.4644 57.31654,177.32751 58.30512,175.05377 C55.78423,177.08038 53.26333,179.40355 50.54472,181.13358 C46.59037,183.65448 43.92118,178.66211 44.36605,174.21347 C46.78809,168.97397 53.2139,166.35422 58.9477,164.37704 C61.96289,163.33902 64.92865,163.33902 65.71951,166.00821 C65.67009,166.89793 64.63207,166.9968 63.98949,167.29337 C65.5218,167.78766 65.71951,169.46826 64.6815,170.80286 C63.346909999999994,172.58231 60.9743,173.9169 60.9743,176.58609 C60.9743,177.52524 61.76517,178.21725 62.80318,178.01953 C65.5218,177.47581 66.06553,176.24008 69.13014,174.21347 C69.13014,174.21347 69.13014,174.21347 69.13014,174.21347 M48.27097,175.30092 C48.07325,176.04236 47.52953,178.31612 48.81469,178.21725 C53.75762,176.58609 57.761399999999995,171.79144 61.023740000000004,168.43024 C56.624520000000004,169.76483 52.42303,171.24771 49.21012,173.9169 C48.76526,174.36176 48.41925,174.80663 48.27097,175.30092 C48.27097,175.30092 48.27097,175.30092 48.27097,175.30092 M86.9247,174.21347 C86.9247,174.21347 86.87527,176.33893 86.87527,176.33893 C83.41521,178.85983 79.80688,182.36931 74.32022,182.56703 C68.48756,182.81418 67.64726,173.0766 71.10732,169.76483 C74.17193,166.79907 78.07685,163.19073 83.41521,163.19073 C87.07299,163.19073 84.70039,168.33139 83.41521,169.61655 C82.52549,170.50627 81.73462,171.64316 80.3506,171.8903 C79.11487,171.84087 78.76887,171.00056 78.57114,169.76483 C76.84112,170.95114 75.06166,172.18687 73.52935,173.57089 C71.20618,175.64693 73.23277,178.4644 76.09968,178.4644 C80.64717,178.4644 83.95894,176.14122 86.9247,174.21347 C86.9247,174.21347 86.9247,174.21347 86.9247,174.21347 M101.2592,167.29337 C103.63181,165.71164 106.15271,165.85992 106.647,168.43024 C106.05385,171.69258 101.80293,173.12604 101.16035,176.33893 C101.16035,177.12981 101.50635,177.47581 102.29722,177.47581 C105.06526,177.47581 106.10328,175.89407 108.77246,174.21347 C108.77246,174.21347 108.72304,176.28951 108.72304,176.28951 C104.47211,179.40355 102.34665,181.52901 98.09573,182.41875 C94.53681,181.97388 96.56342,176.83324 97.79915,175.20206 C97.79915,175.20206 101.16035,170.70399 101.16035,170.70399 C96.76113,173.71918 93.00451,177.57466 89.29731,181.3313 C89.05016,181.57845 88.80302,181.57845 88.60529,181.57845 C86.77641,181.13358 86.87527,179.20584 86.87527,176.33893 C86.87527,168.92453 92.21364,164.72305 95.72312,160.17555 C97.94744,157.30864 101.06149,154.34288 103.53295,152.36571 C105.31241,150.88283 106.59757,150.14139 107.33901,150.14139 C108.22874,150.14139 109.16789,150.63568 109.16789,151.52541 C109.16789,152.36571 108.3276,153.89803 106.69643,156.02348 C101.95122,162.10329 95.77255,168.33139 90.23647,173.9169 C90.23647,173.9169 90.18703,175.79521 90.18703,175.79521 C93.74595,172.97774 97.45315,169.81427 101.2592,167.29337 C101.2592,167.29337 101.2592,167.29337 101.2592,167.29337 M126.56702000000001,174.21347 C126.56702000000001,174.21347 126.46815000000001,176.28951 126.46815000000001,176.28951 C122.95867999999999,178.81041 119.89407,182.51761 114.35797,182.51761 C110.50249,182.51761 108.92075,180.24385 108.72304,176.33893 C108.37703,169.46826 115.64314,163.2896 122.26668000000001,163.2896 C123.99669,163.2896 125.33127999999999,163.9816 125.33127999999999,165.56334 C125.33127999999999,171.29715 118.26289,172.87889 113.56711,174.70776 C113.07281,176.98152 114.35797,178.41496 116.58231,178.36554 C120.78378000000001,178.31612 123.79898,175.9435 126.56702000000001,174.21347 C126.56702000000001,174.21347 126.56702000000001,174.21347 126.56702000000001,174.21347 M121.22864999999999,166.74965 C121.17922999999999,165.81049 120.04234,166.20593 119.35034,166.5025 C117.02716,167.58995 115.14883,169.86369 114.0614,172.28574 C116.53287,171.34657 118.95491,169.81427 120.53665000000001,168.13367 C120.98150999999999,167.58995 121.22864999999999,167.14508 121.22864999999999,166.74965 C121.22864999999999,166.74965 121.22864999999999,166.74965 121.22864999999999,166.74965 M141.59354,174.21347 C141.59354,174.90549 141.44525,175.64693 141.54411,176.33893 C141.54411,176.33893 138.28177,178.85983 138.28177,178.85983 C136.15631,180.19443 134.03085,182.27046 130.91679,182.27046 C124.78755000000001,182.27046 126.22102000000001,172.73059 128.14876,168.28195 C130.86737,161.955 135.36543,156.81435 140.40723,152.71172 C141.34639,151.97028 142.08783,151.57484 142.58212,151.57484 C144.60872,152.11856 143.27412,155.67747 142.82927,157.30864 C140.95096,164.03104 135.56316,167.98538 131.2628,172.48344 C130.81795,175.05377 130.81795,178.31612 133.78369,178.06897 C137.1449,177.77238 138.62778,176.24008 141.59354,174.21347 C141.59354,174.21347 141.59354,174.21347 141.59354,174.21347 M139.96236,157.35808 C136.60117,160.07669 134.22856,163.83331 132.30083,167.98538 C135.36543,164.87134 138.13348,161.70786 139.96236,157.35808 C139.96236,157.35808 139.96236,157.35808 139.96236,157.35808 M161.2664,174.21347 C161.2664,174.21347 161.16756,176.33893 161.16756,176.33893 C158.99266,177.82182 157.3615,179.00812 154.00029,178.61269 C151.87483,180.54044 150.24367,182.22102 146.73418,182.22102 C140.20952,182.22102 140.45667,171.59372 144.46043,168.33139 C147.32733,166.00821 150.29311,163.78389 155.08774,163.53674 C156.37289,163.4873 157.7075,164.1299 157.75693,165.26677 C157.75693,166.00821 157.16377,166.30478 156.62006,166.60136 C157.95464,167.09566 158.35008,167.58995 158.35008,169.3694 C158.35008,171.93973 157.21321,173.71918 155.97748,175.89407 C158.49837,176.0918 159.53638,175.2515 161.2664,174.21347 C161.2664,174.21347 161.2664,174.21347 161.2664,174.21347 M150.93568,176.73438 C149.55165,173.62033 151.23225,171.49486 152.61629,168.77625 C149.60107,170.75342 145.15245,172.18687 145.15245,176.93208 C145.15245,179.799 149.99652,177.97011 150.93568,176.73438 C150.93568,176.73438 150.93568,176.73438 150.93568,176.73438 M180.49442,174.21347 C180.49442,174.21347 180.44499,176.33893 180.44499,176.33893 C180.44499,176.33893 175.99635,179.94728 175.99635,179.94728 C174.5629,180.93587 172.93173,182.27046 170.75684,182.27046 C167.24736,182.27046 166.75307,177.52524 168.58195,174.90549 C169.71883,173.27432 170.80627,171.64316 172.14085,170.2097 C172.14085,170.2097 166.60478,171.34657 166.60478,171.34657 C166.60478,171.34657 164.1333,173.86748 164.1333,173.86748 C163.29301,174.7572 162.15614,175.5975 161.16756,176.38837 C161.21698,175.64693 161.11812,174.85606 161.2664,174.21347 C162.255,173.37317 163.19415,172.63174 164.03445,171.64316 C162.15614,171.59372 162.84814,169.07283 163.4413,168.08424 C164.67703,165.95877 166.3082,163.83331 168.92796,163.14131 C169.96597,163.19073 170.11426,164.47589 169.57054,165.31619 C169.57054,165.31619 176.34236,164.42647 176.34236,164.42647 C177.7758,164.42647 179.01154,166.84851 178.22067,168.33139 C176.78722,171.09943 172.98116,172.2363 172.68459000000001,176.04236 C173.17888,179.05756 177.38037,176.33893 178.51724,175.54807 C178.51724,175.54807 180.49442,174.21347 180.49442,174.21347 " id="svg_16" transform=""/><rect x="12.121093661524355" y="148.39843990840018" width="168.37499752640724" height="34.6658339491114" fill="#000000" opacity="0" id="svg_17" transform=""/></g><g id="svg_20" type="text" text="2016" font-size="49.275960419737395" font-family="Brush-Script" fill="000000" text-anchor="start" font-weight="normal" font-style="normal" lineHeight="1" shapeId="0" shapeVal="0" fill-opacity="1" display="null" elemBBoxWidth="109.80078125" stroke="null" stroke-dasharray="none" stroke-opacity="1" style="pointer-events:inherit"><path id="svg_23" fill="#ffffff" stroke-width="1" d="M102.9019,226.50417C107.18861,226.50417 107.73061,228.77071 107.87842,233.55013C108.02625,239.06863 104.8728,240.39902 101.42374,242.41919C101.42374,242.41919 89.10562,249.5144 89.10562,249.5144C89.10562,249.5144 84.37546,252.81567 84.37546,252.81567C91.12579,252.2244 97.43266,251.04184 103.34535,249.56369C102.35991,252.52002 101.62082,255.32855 99.10793,256.46182C95.95448,257.89072 89.79543,258.28491 84.91745,258.43271C81.2713,258.53128 78.90622,254.04749 80.87712,250.9433C85.45946,243.7988 95.46176,241.13809 102.40918,236.26013C103.54245,235.47176 104.52789,234.38777 104.97134,232.90959C104.82353,231.08652 102.11354,231.48068 100.43828,231.82559C96.39793,232.61395 92.99814,234.38777 89.69688,235.96448C91.02724,236.16156 92.50542,236.26013 93.63869,236.55576C94.91977,236.90067 94.47632,238.32956 93.19524,238.28027C93.19524,238.28027 86.4449,239.56137 86.4449,239.56137C85.7551,239.56137 85.11455,238.67447 85.16382,237.93539C85.85364,229.01706 93.68796,226.50417 102.9019,226.50417C102.9019,226.50417 102.9019,226.50417 102.9019,226.50417M134.48555,229.60834C134.38701,230.24887 133.40155,230.3967 133.00737,230.54451C135.37245,231.2836 135.76663,234.33849 135.32318,237.44266C133.74646,247.78989 127.43959,255.08218 118.32419,258.03854C111.67241,260.20654 106.74516,254.54019 108.51897,247.49423C111.1304,236.99921 118.22563,230.34743 127.7845,226.70126C130.9872,225.46945 133.59865,227.24326 134.48555,229.60834C134.48555,229.60834 134.48555,229.60834 134.48555,229.60834M126.99614,234.58485C126.65123,234.58485 126.55269,234.09213 126.55269,233.69795C120.39363,237.63974 113.49548,241.87717 113.49548,251.18967C113.49548,252.61856 113.9882,254.29382 115.36784,254.49094C119.556,253.30838 123.05434,249.81003 125.66579,247.00153C128.42503,244.09445 131.33211,240.15265 131.82484,235.47176C131.92339,234.28922 131.08574,232.95886 130.00175,232.95886C128.57286,233.00813 128.17867,234.23994 126.99614,234.58485C126.99614,234.58485 126.99614,234.58485 126.99614,234.58485M146.06458,257.15164C146.26167,258.13708 146.5573,259.86163 145.1284,259.31964C143.50241,258.08783 140.25043,258.08783 140.59532,255.18076C141.72859,245.22769 148.28185,239.21646 152.86418,232.1705C152.86418,232.1705 146.85294,234.43704 146.85294,234.43704C145.27623,231.08652 150.59764,230.05179 152.96272,228.52434C154.34235,227.63744 155.77126,226.89835 157.10161,226.65199C159.07249,227.44035 160.00868,229.90398 158.62904,232.41687C155.62343,237.78757 151.43527,244.29153 148.47893,250.00714C148.47893,250.00714 147.78911,251.43604 147.78911,251.43604C147.00075,253.1113 146.11385,255.08218 146.06458,257.15164C146.06458,257.15164 146.06458,257.15164 146.06458,257.15164M173.0166,258.48199C166.41411,258.48199 162.52158,249.9086 165.87212,242.96118C168.82845,236.80212 175.43095,231.33287 181.09729,227.8838C182.62474,226.94762 183.61018,226.55344 185.67963,226.55344C187.45343,226.55344 188.63597,226.60272 189.17798,226.65199C190.5576,226.70126 189.81853,227.83453 189.22725,228.08089C183.51164,230.79088 178.92931,235.12685 174.69188,239.06863C177.30331,238.08319 178.14095,237.29483 180.70311,237.24557C184.39854,237.14703 187.20708,240.2019 186.71436,244.24225C185.82745,250.89404 180.5553,255.23001 175.08604,257.84146C174.14987,258.23563 173.46007,258.48199 173.0166,258.48199C173.0166,258.48199 173.0166,258.48199 173.0166,258.48199M173.06589,253.16058C177.10622,250.99258 181.68855,248.03622 181.68855,242.27136C181.68855,241.43372 181.49147,240.49756 180.50603,240.64536C177.10622,241.13809 173.80498,244.43933 171.34135,246.80441C170.35591,247.7406 170.011,248.6275 170.011,250.59839C170.011,253.1113 170.8979,254.34311 173.06589,253.16058C173.06589,253.16058 173.06589,253.16058 173.06589,253.16058" stroke="#000000" style="pointer-events:inherit"/><rect id="svg_24" x="80.1671933857724" y="226.3007794385776" width="109.79297492001206" height="33.12255069613457" fill="#ffffff" opacity="0" stroke="#000000" stroke-width="1" style="pointer-events:inherit"/></g><g id="svg_28" type="text" text="LAS VEGAS WEEKEND" font-size="28.21495570536785" font-family="Bebas Neue" fill="000000" text-anchor="start" font-weight="normal" font-style="normal" lineHeight="1" shapeId="0" shapeVal="0" fill-opacity="1" display="null" elemBBoxWidth="174.91015625" stroke="null" stroke-dasharray="none" style="pointer-events:inherit"><path id="svg_33" fill="#000000" stroke-width="0" d="M13.12469,296.02658C13.12469,296.02658 13.12469,276.27612 13.12469,276.27612C13.12469,276.27612 16.25969,276.27612 16.25969,276.27612C16.25969,276.27612 16.25969,293.20508 16.25969,293.20508C16.25969,293.20508 21.35406,293.20508 21.35406,293.20508C21.35406,293.20508 21.35406,296.02658 21.35406,296.02658C21.35406,296.02658 13.12469,296.02658 13.12469,296.02658C13.12469,296.02658 13.12469,296.02658 13.12469,296.02658M29.58342,276.27612C29.58342,276.27612 32.79679,296.02658 32.79679,296.02658C32.79679,296.02658 29.66179,296.02658 29.66179,296.02658C29.66179,296.02658 29.11317,292.42136 29.11317,292.42136C29.11317,292.42136 25.2728,292.42136 25.2728,292.42136C25.2728,292.42136 24.72418,296.02658 24.72418,296.02658C24.72418,296.02658 21.90268,296.02658 21.90268,296.02658C21.90268,296.02658 25.03768,276.27612 25.03768,276.27612C25.03768,276.27612 29.58342,276.27612 29.58342,276.27612C29.58342,276.27612 29.58342,276.27612 29.58342,276.27612M27.1538,279.80298C27.1538,279.80298 25.66467,289.75659 25.66467,289.75659C25.66467,289.75659 28.64292,289.75659 28.64292,289.75659C28.64292,289.75659 27.1538,279.80298 27.1538,279.80298M33.73729,280.97861C33.73729,277.84363 35.30478,276.04099 38.3614,276.04099C41.65315,276.04099 43.0639,278.07874 42.90715,281.60562C42.90715,281.60562 40.00727,281.60562 40.00727,281.60562C40.08565,280.03812 39.77215,278.86249 38.43978,278.86249C37.42091,278.86249 36.87228,279.4111 36.87228,280.82187C36.87228,284.89734 42.90715,285.68109 42.90715,291.3241C42.90715,294.45908 41.33965,296.26172 38.28303,296.26172C34.75616,296.26172 33.34541,293.91046 33.65891,290.0701C33.65891,290.0701 36.63716,290.0701 36.63716,290.0701C36.55878,291.79434 36.63716,293.44022 38.20465,293.44022C39.22353,293.44022 39.85052,292.8916 39.85052,291.48083C39.85052,287.40533 33.73729,286.62161 33.73729,280.97861C33.73729,280.97861 33.73729,280.97861 33.73729,280.97861M51.29326,276.27612C51.29326,276.27612 53.6445,292.42136 53.6445,292.42136C53.6445,292.42136 55.99575,276.27612 55.99575,276.27612C55.99575,276.27612 58.89562,276.27612 58.89562,276.27612C58.89562,276.27612 55.839,296.02658 55.839,296.02658C55.839,296.02658 51.21488,296.02658 51.21488,296.02658C51.21488,296.02658 48.15826,276.27612 48.15826,276.27612C48.15826,276.27612 51.29326,276.27612 51.29326,276.27612C51.29326,276.27612 51.29326,276.27612 51.29326,276.27612M63.36299,279.09763C63.36299,279.09763 63.36299,284.58386 63.36299,284.58386C63.36299,284.58386 67.59523,284.58386 67.59523,284.58386C67.59523,284.58386 67.59523,287.40533 67.59523,287.40533C67.59523,287.40533 63.36299,287.40533 63.36299,287.40533C63.36299,287.40533 63.36299,293.20508 63.36299,293.20508C63.36299,293.20508 68.69248,293.20508 68.69248,293.20508C68.69248,293.20508 68.69248,296.02658 68.69248,296.02658C68.69248,296.02658 60.22799,296.02658 60.22799,296.02658C60.22799,296.02658 60.22799,276.27612 60.22799,276.27612C60.22799,276.27612 68.69248,276.27612 68.69248,276.27612C68.69248,276.27612 68.69248,279.09763 68.69248,279.09763C68.69248,279.09763 63.36299,279.09763 63.36299,279.09763C63.36299,279.09763 63.36299,279.09763 63.36299,279.09763M75.27597,287.87561C75.27597,287.87561 75.27597,285.05411 75.27597,285.05411C75.27597,285.05411 79.58659,285.05411 79.58659,285.05411C79.58659,290.30521 80.52708,296.26172 74.96247,296.26172C68.22223,296.26172 70.33836,287.09186 70.33836,280.97861C70.33836,277.84363 71.90585,276.04099 74.96247,276.04099C78.72446,275.96262 79.90009,278.78412 79.58659,282.93799C79.58659,282.93799 76.68672,282.93799 76.68672,282.93799C76.76509,281.05698 76.84347,278.86249 75.04085,278.86249C74.02197,278.86249 73.47335,279.4111 73.47335,280.82187C73.47335,280.82187 73.47335,291.48083 73.47335,291.48083C73.47335,292.8916 74.02197,293.44022 75.04085,293.44022C77.31372,293.44022 76.60835,289.99173 76.68672,287.87561C76.68672,287.87561 75.27597,287.87561 75.27597,287.87561C75.27597,287.87561 75.27597,287.87561 75.27597,287.87561M88.44295,276.27612C88.44295,276.27612 91.65632,296.02658 91.65632,296.02658C91.65632,296.02658 88.52132,296.02658 88.52132,296.02658C88.52132,296.02658 87.9727,292.42136 87.9727,292.42136C87.9727,292.42136 84.13233,292.42136 84.13233,292.42136C84.13233,292.42136 83.58371,296.02658 83.58371,296.02658C83.58371,296.02658 80.76221,296.02658 80.76221,296.02658C80.76221,296.02658 83.89721,276.27612 83.89721,276.27612C83.89721,276.27612 88.44295,276.27612 88.44295,276.27612C88.44295,276.27612 88.44295,276.27612 88.44295,276.27612M86.01333,279.80298C86.01333,279.80298 84.5242,289.75659 84.5242,289.75659C84.5242,289.75659 87.50245,289.75659 87.50245,289.75659C87.50245,289.75659 86.01333,279.80298 86.01333,279.80298M92.59682,280.97861C92.59682,277.84363 94.16431,276.04099 97.22094,276.04099C100.51269,276.04099 101.92343,278.07874 101.76668,281.60562C101.76668,281.60562 98.86681,281.60562 98.86681,281.60562C98.94518,280.03812 98.63168,278.86249 97.29932,278.86249C96.28043,278.86249 95.73181,279.4111 95.73181,280.82187C95.73181,284.89734 101.76668,285.68109 101.76668,291.3241C101.76668,294.45908 100.19919,296.26172 97.14256,296.26172C93.61569,296.26172 92.20494,293.91046 92.51844,290.0701C92.51844,290.0701 95.49669,290.0701 95.49669,290.0701C95.41831,291.79434 95.49669,293.44022 97.06419,293.44022C98.08306,293.44022 98.71006,292.8916 98.71006,291.48083C98.71006,287.40533 92.59682,286.62161 92.59682,280.97861C92.59682,280.97861 92.59682,280.97861 92.59682,280.97861M115.87416,296.02658C115.87416,296.02658 114.69854,285.52435 114.69854,285.52435C114.69854,285.52435 113.60129,296.02658 113.60129,296.02658C113.60129,296.02658 109.29066,296.02658 109.29066,296.02658C109.29066,296.02658 107.09617,276.27612 107.09617,276.27612C107.09617,276.27612 110.15279,276.27612 110.15279,276.27612C110.15279,276.27612 111.79867,291.87271 111.79867,291.87271C111.79867,291.87271 113.28779,276.27612 113.28779,276.27612C113.28779,276.27612 116.26603,276.27612 116.26603,276.27612C116.26603,276.27612 117.83353,291.95108 117.83353,291.95108C117.83353,291.95108 119.4794,276.27612 119.4794,276.27612C119.4794,276.27612 122.14414,276.27612 122.14414,276.27612C122.14414,276.27612 119.94965,296.02658 119.94965,296.02658C119.94965,296.02658 115.87416,296.02658 115.87416,296.02658C115.87416,296.02658 115.87416,296.02658 115.87416,296.02658M126.76826,279.09763C126.76826,279.09763 126.76826,284.58386 126.76826,284.58386C126.76826,284.58386 131.0005,284.58386 131.0005,284.58386C131.0005,284.58386 131.0005,287.40533 131.0005,287.40533C131.0005,287.40533 126.76826,287.40533 126.76826,287.40533C126.76826,287.40533 126.76826,293.20508 126.76826,293.20508C126.76826,293.20508 132.09776,293.20508 132.09776,293.20508C132.09776,293.20508 132.09776,296.02658 132.09776,296.02658C132.09776,296.02658 123.63327,296.02658 123.63327,296.02658C123.63327,296.02658 123.63327,276.27612 123.63327,276.27612C123.63327,276.27612 132.09776,276.27612 132.09776,276.27612C132.09776,276.27612 132.09776,279.09763 132.09776,279.09763C132.09776,279.09763 126.76826,279.09763 126.76826,279.09763C126.76826,279.09763 126.76826,279.09763 126.76826,279.09763M137.11375,279.09763C137.11375,279.09763 137.11375,284.58386 137.11375,284.58386C137.11375,284.58386 141.34599,284.58386 141.34599,284.58386C141.34599,284.58386 141.34599,287.40533 141.34599,287.40533C141.34599,287.40533 137.11375,287.40533 137.11375,287.40533C137.11375,287.40533 137.11375,293.20508 137.11375,293.20508C137.11375,293.20508 142.44324,293.20508 142.44324,293.20508C142.44324,293.20508 142.44324,296.02658 142.44324,296.02658C142.44324,296.02658 133.97874,296.02658 133.97874,296.02658C133.97874,296.02658 133.97874,276.27612 133.97874,276.27612C133.97874,276.27612 142.44324,276.27612 142.44324,276.27612C142.44324,276.27612 142.44324,279.09763 142.44324,279.09763C142.44324,279.09763 137.11375,279.09763 137.11375,279.09763C137.11375,279.09763 137.11375,279.09763 137.11375,279.09763M151.45634,296.02658C151.45634,296.02658 148.39973,288.18909 148.39973,288.18909C146.98898,289.75659 147.53761,293.20508 147.45923,296.02658C147.45923,296.02658 144.32423,296.02658 144.32423,296.02658C144.32423,296.02658 144.32423,276.27612 144.32423,276.27612C144.32423,276.27612 147.45923,276.27612 147.45923,276.27612C147.45923,276.27612 147.45923,284.89734 147.45923,284.89734C147.45923,284.89734 151.53473,276.27612 151.53473,276.27612C151.53473,276.27612 154.59135,276.27612 154.59135,276.27612C154.59135,276.27612 150.28073,285.05411 150.28073,285.05411C150.28073,285.05411 154.59135,296.02658 154.59135,296.02658C154.59135,296.02658 151.45634,296.02658 151.45634,296.02658C151.45634,296.02658 151.45634,296.02658 151.45634,296.02658M159.13708,279.09763C159.13708,279.09763 159.13708,284.58386 159.13708,284.58386C159.13708,284.58386 163.36932,284.58386 163.36932,284.58386C163.36932,284.58386 163.36932,287.40533 163.36932,287.40533C163.36932,287.40533 159.13708,287.40533 159.13708,287.40533C159.13708,287.40533 159.13708,293.20508 159.13708,293.20508C159.13708,293.20508 164.46657,293.20508 164.46657,293.20508C164.46657,293.20508 164.46657,296.02658 164.46657,296.02658C164.46657,296.02658 156.00209,296.02658 156.00209,296.02658C156.00209,296.02658 156.00209,276.27612 156.00209,276.27612C156.00209,276.27612 164.46657,276.27612 164.46657,276.27612C164.46657,276.27612 164.46657,279.09763 164.46657,279.09763C164.46657,279.09763 159.13708,279.09763 159.13708,279.09763C159.13708,279.09763 159.13708,279.09763 159.13708,279.09763M173.00945,296.02658C173.00945,296.02658 169.16907,281.68399 169.16907,281.68399C169.16907,281.68399 169.16907,296.02658 169.16907,296.02658C169.16907,296.02658 166.34758,296.02658 166.34758,296.02658C166.34758,296.02658 166.34758,276.27612 166.34758,276.27612C166.34758,276.27612 170.26631,276.27612 170.26631,276.27612C170.26631,276.27612 173.40132,288.11072 173.40132,288.11072C173.40132,288.11072 173.40132,276.27612 173.40132,276.27612C173.40132,276.27612 176.22281,276.27612 176.22281,276.27612C176.22281,276.27612 176.22281,296.02658 176.22281,296.02658C176.22281,296.02658 173.00945,296.02658 173.00945,296.02658C173.00945,296.02658 173.00945,296.02658 173.00945,296.02658M178.33893,296.02658C178.33893,296.02658 178.33893,276.27612 178.33893,276.27612C183.35493,276.11935 188.29254,275.88425 187.90067,281.13535C187.43042,287.17023 190.09515,296.34009 183.27655,296.02658C183.27655,296.02658 178.33893,296.02658 178.33893,296.02658C178.33893,296.02658 178.33893,296.02658 178.33893,296.02658M184.76567,280.97861C184.84404,278.78412 183.35493,279.09763 181.47392,279.09763C181.47392,279.09763 181.47392,293.20508 181.47392,293.20508C183.27655,293.20508 184.76567,293.51859 184.76567,291.3241C184.76567,291.3241 184.76567,280.97861 184.76567,280.97861C184.76567,280.97861 184.76567,280.97861 184.76567,280.97861" style="pointer-events:inherit"/><rect id="svg_34" x="13.125000044703484" y="276.03906089719385" width="174.9101543216966" height="20.220588392112404" fill="#000000" opacity="0" style="pointer-events:inherit"/></g><line x1="14.125001491606241" y1="272.925" x2="188.96750325411563" y2="272.925" stroke="#000000" stroke-width="2" id="svg_35" fill="none" display="null" fill-opacity="1" stroke-opacity="1" style="pointer-events:inherit"/><g id="svg_5" display="null" clip-id="52" fill-opacity="1" transform=""><path d="M22.736217383507935,221.40563304516823 C22.824697864788035,221.67170649244625 22.87589014324294,221.9788601631757 23.069915198621445,222.2986539026595 C23.170403745218124,222.39787844238074 23.268996281501657,222.4977349855397 23.368220821222906,222.59695952526096 C23.47376539532131,222.89589715130012 23.097091346443193,223.16702662607986 23.069915198621445,223.49124438962764 C23.022514940792817,224.06699952138598 23.693702591646115,224.0897516451437 23.144491604271806,224.8317236810211 C23.521165653149936,225.49406328374639 23.111627425510633,225.88843342888055 23.368220821222906,226.4698765915783 C23.38149289341493,226.42121232687424 23.393500958731508,226.37065205185704 23.406141027485802,226.3213557837153 C23.451645275001283,226.82000649607238 23.47882142282303,226.99443944488172 23.44279722687328,227.40018565189473 C23.553397828473393,227.40018565189473 23.66652644382438,227.40018565189473 23.777759048862208,227.40018565189473 C23.7644869766702,227.48613811942397 23.75311091479132,227.5720905869532 23.741102849474743,227.6605710682333 C23.262676247124503,228.0701092958726 23.471869385008162,228.92331393678782 23.66652644382438,229.37266838100317 C23.691174577895254,229.32210810598596 23.71582271196614,229.2728118378442 23.741102849474743,229.22414757314016 C23.75311091479132,229.24879570721103 23.7644869766702,229.2728118378442 23.777759048862208,229.2974599719151 C23.913639787970936,229.4219646491449 24.05078453395508,229.5471013298125 24.185401266188364,229.67160600704233 C24.114616881164295,229.8220228252185 24.077960681776815,229.90734328931003 24.074800664588253,230.1550886368943 C24.0134963311299,230.1304405028234 23.950927990796117,230.10389635843939 23.88899165390005,230.07924822436848 C23.900367715778913,230.1550886368943 23.913639787970936,230.22840103566924 23.925647853287515,230.3036094447573 C24.36046621843542,230.3750258332191 24.472962830348678,230.6063390914228 24.930533319254323,230.52733866170843 C24.909677205809714,230.0754562037422 24.768108435761576,229.9743356537078 24.81803670734105,229.5224531957416 C24.856588917041663,229.483900986041 24.893245116429128,229.44724478665353 24.930533319254323,229.40932458039063 C24.943805391446332,229.40932458039063 24.957077463638342,229.40932458039063 24.96718951864179,229.40932458039063 C24.979829587396083,229.483900986041 24.992469656150377,229.55784538825364 25.0057417283424,229.63305379734172 C24.806028642024472,229.78599862926876 24.962133491140065,229.86689506929628 24.930533319254323,230.15382463001887 C24.930533319254323,230.15382463001887 25.865266403634763,230.6145551361131 25.89749857895822,230.63793926330854 C25.95501089179028,230.48689044169467 25.92467472677997,230.50711455170153 26.083307589646424,230.4502342423072 C26.058659455575537,230.52544265139528 26.03401132150465,230.5987550501702 26.009995190871493,230.674595462696 C26.059291459013252,230.674595462696 26.111115740905888,230.674595462696 26.159148002172216,230.674595462696 C26.146507933417922,230.62529919455423 26.134499868101344,230.57473891953703 26.12122779590932,230.52544265139528 C26.75323123362429,230.5096425654524 26.75323123362429,230.21702497379036 27.275898076614567,230.07798421749305 C27.715772469264195,229.96295959182893 28.15817487566467,230.31435350319845 28.578457161745135,230.18984882596862 C28.86285870871687,230.10705637562796 28.984203368758145,229.8220228252185 29.36087741763626,229.78094260176704 C29.371621476077422,229.82012681490536 29.38489354826943,229.85678301429283 29.39816562046144,229.89533522399344 C29.64464696117028,229.74744641956815 29.624422851163402,229.64695787297146 29.69457523274977,229.40932458039063 C29.769151638400132,229.483900986041 29.845624054363654,229.55784538825364 29.91830444970087,229.63305379734172 C29.93410453564374,229.53951728855992 31.97926766008939,228.48470355101364 32.411558011486434,228.21989411061105 C32.42419808024073,228.15542975996414 32.43747015243274,228.09412542650577 32.45074222462476,228.03345309648515 C32.265565217374274,227.93170054301302 31.75427443626286,226.1406028005288 31.81747478003436,226.0609703673767 C31.998859766658555,226.1747309861654 32.12020442669983,226.3314678387187 32.411558011486434,226.3592759899782 C32.45074222462476,226.29417963589353 32.48739842401223,226.23540331618605 32.52405462339969,226.17283497585225 C32.43747015243274,226.15956290366023 32.3508856814658,226.14629083146824 32.26366920706113,226.13491476958936 C32.27504526893999,226.0104100923595 32.288317341132014,225.88464140825425 32.301589413324024,225.76203274133752 C32.47791837244651,225.65269614661284 32.758527898791954,225.56105564814416 32.85901644538863,225.42896692966173 C32.74651983347536,225.41379884715658 32.635287228437534,225.40179078184 32.52405462339969,225.39041471996114 C32.550598767783725,224.96760442012982 32.74525582659993,225.05861291516078 32.933592851038995,224.8317236810211 C32.87165651414293,224.71985907254555 32.87165651414293,224.74071518599013 32.85901644538863,224.64465066345747 C32.90894471696811,224.62000252938657 32.9588729885476,224.59345838500255 33.00816925668936,224.5694422543694 C32.70670361689932,224.45188961495438 32.78507204317597,224.03223933231166 32.78444003973826,223.75162980596622 C32.96013699542303,223.63850119061522 33.01638530137966,223.52853259245282 33.11876985828948,223.34272358176463 C33.08274566233973,223.31807544769373 33.04482545607682,223.29216330674743 33.00816925668936,223.26751517267655 C33.05746552483113,223.24286703860565 33.107393796410605,223.2188509079725 33.157322067990094,223.19420277390162 L33.231898473640456,223.12089037512666 C33.19271426050213,223.19420277390162 33.157322067990094,223.26751517267655 33.11876985828948,223.34461959207778 C33.34249907524058,223.19546678077702 33.40569941901208,223.0418899454123 33.67746089722952,222.89652915473786 C33.63195664971404,222.7852965497 33.630060639400895,222.82953679034006 33.64080469784204,222.7126161543628 C33.740029237563306,222.68796802029192 33.838621773846825,222.66079187247016 33.93911032044352,222.63614373839928 C33.96249444763896,222.6494158105913 33.98840658858528,222.66079187247016 34.01368672609388,222.6746959480999 C33.95870242701268,223.00523374602483 33.8879180419886,223.09750624793122 33.753301309755315,223.30733138925257 C33.753301309755315,223.3206034614446 33.753301309755315,223.33197952332347 33.753301309755315,223.3452515955155 C33.802597577897075,223.3452515955155 33.85126184260113,223.3452515955155 33.90055811074291,223.3452515955155 C33.93911032044352,223.33197952332347 33.975766519830984,223.3206034614446 34.01368672609388,223.30733138925257 C34.0737270526768,223.0715941069849 34.17611160958663,222.80678466658233 34.04971092204363,222.5268071436746 C33.860741894166864,222.07745269945926 33.29446681397424,222.23418955201257 33.1194018617272,221.9687481081723 C33.34123506836515,221.92577187440764 33.50239594498247,221.79747517655153 33.5668602956294,221.5952340764827 C33.46700375247043,221.53645775677523 33.51566801717448,221.58322601116615 33.45625969402927,221.48336946800717 C33.245802549270195,221.54024977740153 33.14784201642436,221.63378628618335 32.93422485447671,221.5952340764827 C32.834368311317746,221.2988244641944 32.73640777847193,221.00051884159294 32.63591923187525,220.70221321899146 C32.993633177621916,220.66113299554002 33.18323420893641,220.45699588515808 33.305842875853116,220.1801783794389 C33.29446681397424,220.16880231756002 33.28245874865766,220.15679425224346 33.26981867990335,220.14352218005143 C33.09601773453174,220.2812989294733 32.9209527822847,220.4165476651443 32.747151836913076,220.55306040769074 C32.50951854433225,220.52651626330672 32.40713398742243,220.46900395047464 32.26366920706113,220.36661939356483 C32.201100866727344,220.16943432099777 32.13916452983128,219.97035323811753 32.07722819293521,219.77316816555046 C32.38690987741555,219.80224032368534 33.17944218831012,219.77253616211274 33.04545745951455,219.51151874233648 C32.91716076165841,219.61327129580857 32.85080040069833,219.66825559488979 32.63591923187525,219.69732775302467 C32.68521550001701,219.6480314848829 32.73577577503421,219.59810321330343 32.78507204317597,219.54817494172394 C32.82109623912574,219.42493427136952 32.859648448826334,219.29979759070196 32.896304648213814,219.17592491690982 C32.88366457945952,219.16454885503094 32.87165651414293,219.15127678283892 32.859648448826334,219.13863671408464 C32.83373630788003,219.15127678283892 32.810352180684575,219.16454885503094 32.78507204317597,219.17592491690982 C32.82741627350288,219.4577984501307 32.681423479390716,219.58356713423598 32.45137422806248,219.69795975646238 C32.41219001492415,219.69795975646238 32.37553381553667,219.69795975646238 32.33824561271149,219.69795975646238 C32.392597908354986,219.44831839856496 32.534798681840854,219.2005730509807 32.711127640963326,219.064692311872 C32.69848757220903,219.0400441778011 32.68521550001701,219.01539604373022 32.673839438138145,218.99074790965932 C32.6005270393632,218.95282770339642 32.52468662683741,218.91553950057124 32.45137422806248,218.87825129774606 C32.317389499266895,218.9642037652753 32.33824561271149,219.01792405748108 32.19098881172391,218.91553950057124 C32.21753295610793,218.82200299178945 32.23902107299024,218.66779415298697 32.25671716924626,218.5287533966897 C32.222588983609654,218.63366596735037 32.187828794535335,218.73731453113564 32.152436602023286,218.8422271017963 C31.97926766008939,218.85486717055062 31.805466714717767,218.86687523586718 31.631665769346156,218.87888330118378 C31.631665769346156,218.86687523586718 31.631665769346156,218.8542351671129 31.631665769346156,218.8422271017963 C31.83769889004124,218.6513620636064 31.933131409136195,218.4402729154096 32.19035680828618,218.35811246850665 C32.21310893204392,218.406144729773 32.23775706611481,218.45354498760162 32.259877186434835,218.50094524543022 C32.279469293004,218.34610440319005 32.29400537207144,218.21527969158308 32.301589413324024,218.20959166064364 C32.59799902561235,217.8240695636375 33.441091611524115,217.9125500449176 34.013054722656165,217.80131743987977 C35.09820462521277,217.59022829168296 38.96353765027753,216.4020618287788 39.5955410879925,217.2426264009397 C39.51780466515356,217.42021936693763 39.64673336644742,217.5959163226224 39.5955410879925,217.9125500449176 C39.47672444170209,218.64504202922924 39.55003684047702,219.35857391040943 39.70614168959263,219.99626537906386 C39.781350098680704,220.31985113917392 39.855294500893365,220.64343689928398 39.92987090654373,220.96449464564319 C39.87867862808881,221.27038430949722 39.69982165521547,221.4081610589191 39.63156528394225,221.74375488434575 C39.23719513880812,223.7503657990908 39.06529020374964,225.52250343844355 38.40484661133749,227.47729007129595 C37.934636053677565,228.86580162395575 37.43535333788273,230.37186581603055 36.73003750139283,231.60869654363873 C36.05189781272466,232.7937029893543 34.88079544263883,233.81628455157713 34.34738454120739,235.10557156451566 C33.26981867990335,237.7201697863425 33.08653768296601,240.75441829081205 32.152436602023286,243.70334633119012 C31.805466714717767,244.33661377578053 31.457864823974532,244.96861721349552 31.110894936669013,245.60062065121048 C30.94278202223684,245.89955827724964 30.99334229725403,246.4323371752434 30.887165719717927,246.7167387222151 C30.576852031799874,247.544031222184 30.054185188809583,248.66773333444124 29.583974631149644,249.47164170721467 C29.41965373734375,249.75414724387326 29.681935163995462,250.61556792947877 29.659183040237735,250.8494092014333 C30.734852891228613,250.90060147988822 31.603225614648977,250.7046804141966 32.71049563752561,250.70278440388344 C32.83752832850632,250.27618208342582 32.9670890332379,249.33892098529452 32.82046423568802,248.8023500666745 C32.982889119180754,248.30559536463056 33.1453140026735,247.8094726660243 33.305842875853116,247.31398197085576 C33.36714720931147,246.91581980509534 33.43034755308297,246.52081765652346 33.49165188654132,246.12455150107618 C33.60794051908087,245.79274969627582 33.90308612449377,245.5171961974321 34.01368672609388,245.2296346332718 C34.26459209086673,244.57740708554994 33.90940615887091,244.07559635600424 34.12491933113171,243.59148172271458 C35.01035614737039,241.61899899360617 36.43109987535365,239.95240592835177 37.40059314880841,238.1221239727292 C38.00605244213935,236.9781977504651 38.29993404067682,235.6977587856546 38.88896124462717,234.5879607490271 C39.54371680609988,233.35365803516976 40.63265872928277,232.33486849357323 41.34429460014982,231.08602970064845 C41.92636976628532,230.0716641831159 42.29545977391086,228.81397734206314 42.98244751070703,227.88682829893526 C44.4373194243269,225.929513652332 46.067888293631526,224.12198382046716 47.00198937457425,221.63378628618335 C48.62687021293945,221.9485239981654 50.17843865252969,220.06831377096336 51.13402785035473,219.32570973164826 C51.94488826094303,218.6937062939333 52.65146810430838,217.78551735393688 53.292951593589066,216.98160898116345 C54.17270037888832,215.97735551863434 55.053081167625265,214.97183804922983 55.93472596323764,213.96758458670075 C56.72915428444537,212.71432176971194 57.522950602215374,211.46105895272316 58.31737892342309,210.2084281391721 C58.910198147999736,209.15614241537668 61.22333073003654,207.0300828509035 62.560018000803694,207.23042794065915 C62.554329969864256,207.56033373514637 62.65165849927237,207.46616522292683 62.67251461271695,207.86369538524954 C62.139103711285514,208.0855285918875 63.56869548739678,210.0011310116016 63.379726459520015,210.91753599628828 C63.28871796448905,211.35551437862478 63.40563860046633,211.92747748975682 63.343070260132535,212.25485527049318 C63.241317706660425,212.51524068683173 63.14398917725234,212.77752211348346 63.044764637531074,213.037907529822 C63.080788833480824,213.38487741712754 63.11744503286829,213.73247930787076 63.155997242568915,214.0794491951763 C62.997996383140176,214.42831509279495 62.90066785373206,214.45675524749214 62.784379221192495,214.93518184984237 C62.70727480179127,215.24359952744726 62.85705961652974,215.7814344529427 62.5220977945408,216.16316452932256 C62.459529454207015,216.16316452932256 62.39948912762409,216.16316452932256 62.335024776977164,216.16316452932256 C62.058207271258,217.58264425043038 61.314339225067485,218.54518548607027 60.698135873295385,219.73587996272528 C60.38087014756246,220.35208331449738 60.33473389660928,221.27607234043666 59.99092402649234,221.9327239122225 C59.20155173278633,223.43942010773503 58.13536193336118,224.87280390447256 57.46038226188159,226.50969280815434 C56.37270434557412,229.15020317092748 55.13966563859222,231.53728015517694 54.14805224481742,234.2125507070244 C53.801082357511916,235.15044380859342 53.516048807102464,236.21094557707914 53.328975789538816,237.07742229018638 C53.284103545461065,237.2929354624472 53.44273640832752,237.31315957245405 53.36626399236401,237.5634329337892 C53.2480793495113,237.9571710754856 52.89478942782864,238.31298901091913 52.69697235182386,238.64226280196863 C52.51116334113564,239.10172930118745 52.32409032357202,239.56182780384393 52.138913316321535,240.01876628931186 C51.83997569028236,240.35436011473848 51.542934074556314,240.69058594360285 51.24526045539257,241.02491576215408 C51.110643723159285,241.21009276940458 50.78452994929836,242.01463314561573 50.873642434016176,242.2162422422468 C50.6303211104959,242.76292521587024 50.147470484081666,243.15982337475526 49.83210076866189,243.62940192897747 C49.69432401924003,243.92770755157895 49.5578112766936,244.22285315699185 49.422562541022586,244.521790783031 C49.07559265371707,244.70886380059466 48.72799076297383,244.89404080784513 48.38165287910604,245.08048182197103 C48.09345931150801,245.30357903548443 48.04921907086796,245.7453494384472 47.78504163390309,245.97539868977543 C47.09805389710692,246.5732739418538 46.350393830290116,246.97143610761424 45.77400669509406,247.68686399910757 C45.725974433827716,247.68686399910757 45.67604616224824,247.68686399910757 45.62674989410647,247.68686399910757 C45.62674989410647,247.68686399910757 44.52706391248242,248.4718122687496 44.398135211188574,248.54133264689824 C44.051165323883055,248.66646932756578 43.70356343313982,248.79160600823337 43.35785755270973,248.91421467515008 C43.10695218793688,249.12783183709772 43.17647256608552,249.4179214150089 42.83455870628174,249.58540232600336 C42.462940684905334,249.768051319503 42.11344278384895,249.22579236994355 42.01737826131628,249.84578774234194 C41.99083411693225,249.85905981453396 41.96618598286136,249.87169988328824 41.94216985222819,249.88370794860484 C42.059090488205456,250.18706959870804 42.08942665321578,250.18264557464403 42.27713167421713,250.4063747915951 C42.202555268566755,250.44303099098258 42.129242869791824,250.4777911800569 42.05340245726603,250.51823940007066 C42.05340245726603,250.52961546194953 42.05340245726603,250.54035952039067 42.05340245726603,250.55615960633355 C42.09132266352893,250.55615960633355 42.12861086635411,250.55615960633355 42.166531072617005,250.55615960633355 C43.39388174865948,250.49106325224892 44.62186442813967,250.42975891879055 45.849215104182136,250.36971859220765 C46.448354363135934,250.26354201467154 47.31293506593002,250.68382430075198 47.82169783329056,250.81212099860812 C48.383548889419174,250.95937779959573 49.080016677781074,250.73312056889375 49.49713894667296,250.62820799823305 C49.832732772099604,250.6174639397919 50.167694594088545,250.6048238710376 50.50328841951519,250.5909197954079 C52.4795631692499,249.53041802692215 53.48950466271843,247.89163311292725 54.81987189910845,246.08599929137557 C55.38614697930106,245.32190713517818 56.09146281579096,244.58562313024024 56.569257414703486,243.74189854089076 C58.82424568047051,239.7672289211013 60.401094257569355,235.3267727677159 62.859587630280586,231.5360161483015 C62.872859702472596,231.5360161483015 62.88423576435147,231.5360161483015 62.8975078365435,231.5360161483015 C62.94111607374583,232.69890247369705 63.40563860046633,233.76572427655992 63.75324049120955,234.73774556376554 C63.877745168439404,235.30781266458445 64.00224984566925,235.8759837550902 64.1267545228991,236.44794686622225 C64.6494213658894,237.6064091675538 65.30228091704896,238.72252723855843 65.76301142314317,239.98527010711297 C66.92020971759928,243.15160733006496 67.62805356784004,246.07967925699842 69.11326164647022,249.0292393008142 C69.3230867877916,249.59867439819539 69.5341759359884,250.17190151620287 69.7452650841852,250.74133661358405 C70.11941111931246,251.34932392066585 71.19950499436735,251.32277977628183 71.45736239695506,251.74748608642628 C71.38088998099154,251.7740302308103 71.43081825257102,251.76581418612 71.49591460665567,251.82079848520124 C71.63558736639068,251.64573353295418 72.2189265394016,251.9813273583808 72.64868887704777,251.96995129650196 C73.32556455884051,251.9509911933705 74.79118053090153,252.1115200665501 75.40169585173419,251.59706926825012 C75.57170477647952,251.482044642586 75.67851335745334,251.3006596559618 75.70000147433566,251.0383782293101 C75.52746453583947,250.7046804141966 75.35239958359242,250.36845458533222 75.17923064165853,250.03222875646787 C75.34607954921529,249.907724079238 75.4990243811423,249.89824402767226 75.62732107899842,249.73392313386637 C75.62732107899842,249.6953709241658 75.62732107899842,249.66061073509144 75.62732107899842,249.62395453570397 C75.07431807099783,249.1733360846132 74.47201879485547,248.3327715124523 74.24892158134207,247.57499939063206 C74.20973736820375,247.3032379124146 74.17560918256714,247.02958042388403 74.13705697286653,246.7578189456666 C73.97842411000008,246.31794455301696 73.54360574485217,246.02532696135495 73.42921312262577,245.6777250706117 C73.34452466197196,245.41986766802398 73.47471737014124,245.10260194229107 73.42921312262577,244.89530481472056 C73.244668118813,244.30185358670622 73.05759510124936,243.70587434494098 72.87052208368573,243.10989510317577 C72.73653735489015,242.50190779609397 72.59876060546829,241.89265648213674 72.46287986635957,241.2865651853681 C72.03943756309054,240.34298405285963 71.61852327357238,239.40129893066432 71.19634497717877,238.45645379128044 C70.96060769491109,238.15814816867896 70.72487041264341,237.86110655295295 70.49039713725114,237.5640649372269 C70.30142810937437,237.09259037269152 70.11625110212388,236.62111580815616 69.92917808456025,236.15153725393395 C69.79329734545153,236.06432077952928 69.65741660634282,235.97584029824918 69.52027186035866,235.89115183759537 C69.42294333095056,235.532805888411 69.32245478435388,235.16940391172488 69.22386224807035,234.80916195222733 C69.03742123394443,234.52665641556877 68.85224422669394,234.2416228651593 68.66264319537945,233.95595731131212 C68.65316314381373,233.94268523912012 68.64052307505943,233.92878116349038 68.62598699599198,233.91614109473608 C68.65316314381373,233.6930438812227 68.67528326413375,233.47057867114702 68.70245941195549,233.24621745075822 C68.57985074503878,232.35130058295383 68.81116400324248,231.36916724074476 68.70245941195549,230.2309290494201 C68.66264319537945,229.94589549901065 68.62598699599198,229.6614939520389 68.58996280004223,229.37582839819174 C68.59375482066852,228.807657307686 68.73911561134295,228.0018529245994 68.47683418469126,227.43936986503306 C68.61713894786396,227.06775184365665 69.07470943676961,226.91480701172964 69.22323024463263,226.5084288012789 C69.22323024463263,226.26131545713235 69.22323024463263,226.01293810611037 69.22323024463263,225.7651927585261 C69.48235165409577,225.10854118674024 69.74273707043434,224.44936160120352 70.0031224867729,223.79271002941766 C70.01639455896492,223.4817643380619 70.0277706208438,223.1727146570193 70.04167469647352,222.86176896566354 C70.16870738745422,221.99213223536773 70.4082366903482,220.47469198141408 70.15164329463592,219.2511333259979 C70.01702656240263,218.8542351671129 69.87988181641849,218.4567050047902 69.74336907387206,218.0604388493429 C69.67195268541026,217.81142949488319 70.07390687179699,217.3001387137718 69.85586568578532,216.75787976421233 C69.95951424957057,216.41090987690683 70.29005204749551,215.93121926768114 70.4891331303757,215.56718528755732 C70.71539036107768,215.15006301866546 70.90435938895445,214.11610539456376 71.19508097030334,213.52075815623627 C71.43461027319731,213.02716347138087 71.33475373003834,212.3743039202213 71.4554663866419,211.7701086337658 C71.99014129494877,209.09989410942003 72.00467737401621,205.19664087809238 70.52452532288775,202.95050066045337 C69.62202441383079,201.58221321780044 67.97312744483241,200.50464735649643 66.76726488567226,199.4138094230004 C66.90124961446783,198.7173416346385 67.39168428213465,197.93428937530965 67.77151834820134,197.44132669389197 C68.48694623969469,197.44575071795597 69.1461258252314,197.54687126799035 69.52027186035866,197.29217388259124 C70.3026921162498,196.76381900866153 69.82236950358643,195.51182019854815 69.96836229769858,194.61247930667975 C70.04989074116381,194.10118852556835 70.46574900318026,193.41609679908532 70.82409495236465,192.93830220017279 C71.13693665403356,192.52307594159407 72.48247197292875,191.5289345340684 72.23725463909534,191.11560428580282 C72.17215828501068,191.03660385608845 72.09947788967347,191.02333178389642 72.01415742558194,190.9664514745021 C71.82645240458059,190.97782753638094 71.64190740076782,190.99109960857297 71.4548343832042,191.00373967732727 C71.49338659290481,190.95381140574779 71.52814678197913,190.904515137606 71.56606698824203,190.85458686602652 C71.75882803674509,190.8444748110231 71.9907732983865,190.8703869519694 72.12539003061977,190.70669806160123 C72.15003816469067,190.5948334531257 72.17468629876154,190.48423285152558 72.20059843970786,190.3717362396123 C72.03058951496254,190.21247137330812 72.0078373912048,190.0424624485628 71.86500461428122,189.85096540693516 C71.78600418456685,189.75490088440247 71.76957209518625,189.75869290502877 71.60525120138036,189.7384687950219 C71.3202176509709,189.91226974039353 71.0332880902483,190.0854386823274 70.74951854671428,190.25923962769903 C70.623749862609,190.45516069339067 70.49924518537915,190.65234576595773 70.3747405081493,190.85142684883797 C70.23506774841431,190.96771548137752 70.0410426930358,190.8994591101043 69.9272820742471,190.96392346075123 C69.68016873010055,191.26159707991496 69.43115937564086,191.558638695641 69.18341402805659,191.85694431824248 C68.1753685449012,192.63304453975647 67.2886677217871,193.4369529125299 66.5037194521451,194.42540628911613 C66.12072536888984,195.11997806716488 65.73583527532142,195.81454984521363 65.3515771851907,196.50848961982467 C65.31302497549011,196.50848961982467 65.27510476922721,196.50848961982467 65.23908057327745,196.50848961982467 C64.29739545108214,193.78265879296 64.16530673259972,192.46303561501114 60.95852128963395,192.0433853323684 C59.81712308112071,191.89296851419223 57.61332709380861,194.16059684871354 57.422462055618695,195.09532993309398 C57.27394124775569,195.83161393803192 57.699279561337846,196.26580029974212 57.908472699221505,196.80679524242615 C58.05004146926966,197.17462124317623 58.01338526988219,197.85402493871985 58.28072272403563,198.1093543275567 C58.39511534626203,198.1769786953922 58.49939591348499,198.1896187641465 58.57839634319937,198.2957953416826 C58.822349670157365,198.81277415373344 58.517724013178736,199.44288158113528 58.725653144186964,200.00726065101475 C59.61930600511593,199.95986039318612 59.47836923850549,200.350438517694 59.91824363115511,200.900281508506 C60.067396442455845,200.98686597947295 60.217181257194284,201.0734504504399 60.363806054744174,201.16066692484458 C60.414366329761364,201.35848400084936 60.463662597903124,201.55756508372957 60.51169485916947,201.75664616660978 C60.63430352608617,201.99301545231518 61.00023351652314,201.92286307072882 61.1083061043724,202.090975985161 C60.71772797986455,202.2673049442835 60.58563926138211,202.81398791790693 60.32651785191899,203.13251765051527 C60.29934170409723,203.16854184646502 59.14530342682971,203.89534579983726 59.09916717587652,203.9149379064064 C58.51582800286559,204.00089037393565 57.93185682641696,204.0874748449026 57.349149656843764,204.175323322745 C56.975003621716496,204.33774820623773 56.54081726000631,204.57411749194313 56.2323995824014,204.65817394915922 C55.560579928110386,204.84145494609658 54.885600256630795,204.51597317567334 54.29657305268044,204.73275035480958 C52.36833056421207,205.44438622567665 50.90334659558877,206.7121851217329 48.602854082306266,206.818361699269 C48.625606206064006,206.3709032653668 48.57062190698281,206.13706199341226 48.49035747039301,205.7009796213889 C48.31782053189683,205.62577121230083 48.14338758308749,205.5518268100882 47.970850644591295,205.47725040443783 C48.00940285429192,205.26742526311645 48.035314995238224,205.17578476464777 48.00687484054106,204.95521556488526 C47.77492957889966,204.9482635270704 47.73321735201047,204.74728643387704 47.55941640663886,204.585493553822 C47.07846179053776,204.79847871233196 46.78963621950203,204.79531869514338 46.48185054533482,205.104368376186 C46.572859040365785,205.27058528030503 46.61393926381726,205.2648972493656 46.48185054533482,205.40267399878746 C46.25748932494601,205.93418888990576 46.05904024550351,206.16676615498486 45.92442351327023,206.818361699269 C45.811926901356955,206.80508962707697 45.70069429631913,206.79181755488497 45.58756568096814,206.77917748613066 C45.56607756408583,206.99342665151605 45.225427711157465,207.4099169169702 45.10471505455391,207.45036513698398 C44.88161784104052,207.64818221298876 43.05133588541797,208.17148105941675 42.68477389154329,208.23152138599966 C42.22783540607536,208.30672979508773 41.71085659402452,208.135456863467 41.159749596337065,208.3427539910375 C40.891780138745915,208.44513854794732 40.129583992861654,208.73775613960936 39.67074949708058,208.78831641462656 C39.25173121787556,208.8376126827683 38.436446783223246,208.7352281258585 38.07051679278628,208.9374692259273 C37.73555497079735,209.1365503088075 37.40122515224613,209.3356313916877 37.0668953336949,209.53281646425478 C36.59668477603496,209.44686399672554 36.123314201186446,209.3602795257586 35.651207633213374,209.27306305135394 C34.847299260439925,209.14666236381095 33.224314432387885,209.90001046156718 32.860912455701765,210.3139727132705 C32.88556058977265,210.36579699516312 32.910840727281254,210.41382925642947 32.93548886135214,210.46312552457124 C31.95398752258079,210.66220660745145 31.07676675103241,212.00078988853176 30.404947096741395,212.58665707529354 C29.43987784735063,213.4291176577676 28.286471573520814,213.47841392590936 27.09261707967724,214.11231337393747 C26.9813844746394,214.17108969364497 26.284916686277498,214.5825239315974 26.19896421874826,214.66974040600206 C26.013155208060056,214.860605444192 25.883594503328496,215.17471115273634 25.641537186683664,215.30300785059248 C25.271815175620404,215.49576889909554 23.27405230900338,215.71254607823178 23.222228027110745,215.8237786832696 C22.81837783041088,216.06899601710302 23.126163504578074,216.23521292122206 22.96184261077218,216.67887933449796 C22.904962301377836,216.82803214579872 22.67112102942329,216.96391288490742 22.62688078878324,217.08841756213727 C22.502376111553403,217.4448675010085 22.765921545080545,217.7943654020649 22.552936386570593,218.16787943375445 C22.326047152430917,218.24687986346882 21.950005106990517,218.34547239975234 22.030901547018033,218.72530646581905 C22.30392703211089,219.09818849407088 22.57632051376605,219.4698065154473 22.849345998858922,219.8420565402614 C22.96057860389675,220.30341904979332 22.548512362506585,220.85263003716764 22.736217383507935,221.40563304516823 zM47.48420799755077,210.8745597625237 C48.53333370415763,210.41446125986718 49.89087708836939,210.38602110517 51.02089923500375,209.9815389050324 C51.783727384325715,209.70788141650183 52.48082717612533,209.05122984471598 53.364367982050865,208.9001810231021 C53.03951821506536,209.45887206204213 52.33293837170004,209.6889213133704 51.80205548401946,210.05485130380737 C50.92230669872022,210.66094260057602 48.63319024731659,212.3913680130396 48.37849286191745,213.40510152713443 C48.107363387137724,213.36844532774694 46.06915230050696,212.43876827086822 46.06915230050696,212.43876827086822 C45.885871303569616,211.6955322281154 46.9324689964256,211.11472106885537 47.48420799755077,210.8745597625237 zM41.53199962115117,210.46375752800895 C41.5414796727169,210.44037340081348 41.55475174490891,210.41446125986718 41.568023817100936,210.390445129234 C42.35107607642978,210.26594045200414 42.79284647939254,209.82985807998082 43.65363516156033,209.83175409029397 C43.707987457203814,210.15533985040403 43.90454052633318,210.3007006410785 43.762971756285026,210.61480634962282 C43.29276119862509,210.66283861088917 42.820022627214286,210.71213487903094 42.34918006611663,210.76395916092355 C42.13493090073126,210.7197189202835 41.834097264378926,210.57499013304678 41.53199962115117,210.5762541399222 C41.53199962115117,210.53959794053475 41.53199962115117,210.50294174114728 41.53199962115117,210.46375752800895 z" id="svg_9" fill="#ffffff" transform=""/></g></g><defs><mask id="canvasMaskImageDef" maskUnits="objectBoundingBox" x="0" y="0"><image xmlns:xlink="http://www.w3.org/1999/xlink" id="canvasMaskImage" preserveAspectRatio="none" x="-103.65" y="-36.45" width="400" height="440.0580551523948" xlink:href="http://allinonedesigner.designnbuy.in/media/catalog/product/w/h/white-tees-1_-front_1_3.png"/></mask></defs></svg>