<?xml version="1.0" encoding="utf-8"?>
<!-- Generator: Adobe Illustrator 16.0.0, SVG Export Plug-In . SVG Version: 6.00 Build 0)  -->
<!DOCTYPE svg PUBLIC "-//W3C//DTD SVG 1.1//EN" "http://www.w3.org/Graphics/SVG/1.1/DTD/svg11.dtd">
<svg version="1.1" id="Layer_1" xmlns="http://www.w3.org/2000/svg" xmlns:xlink="http://www.w3.org/1999/xlink" x="0px" y="0px"
	 width="100px" height="100px" viewBox="0 0 100 100" enable-background="new 0 0 100 100" xml:space="preserve">
<path d="M86.123,25.833c0-1.378-0.641-2.224-1.904-2.65l-3.389-0.845l-0.738-0.206l-0.633-0.32c-0.641-0.32-1.059-0.32-1.271,0.107
	l2.226,4.653c1.05,2.01,2.429,3.069,4.12,3.069c0-1.059-0.215-1.904-0.633-2.543l-2.438-2.536c0.429-0.106,0.746,0,0.951,0.32
	l1.06,0.952c0.106-0.106,0.428-0.213,0.846-0.213l0.953,0.213l-0.738,0.312c0.531,1.485,0.738,3.282,0.738,5.399l2.436,4.546
	c0.953,1.584,2.117,2.429,3.488,2.429l0.32,2.65c0.318-0.106,0.633-0.426,0.95-0.853l0.321-0.312l0.313-1.69l-0.214-3.282
	l-0.737,0.32l0.105-0.952c0-1.797-0.525-3.176-1.479-4.021c-0.844-0.952-2.649-2.331-5.506-4.341L86.123,25.833L86.123,25.833z
	 M20.967,52.166l-0.632-0.105l-0.533,1.166l-0.313,1.478l-0.746,3.174c0,2.119,1.059,4.761,1.379,5.286
	c0.951,1.591,2.223,2.756,3.807,3.709c-1.69-0.641-3.487-2.225-5.292-4.76c-1.797-2.649-2.955-4.021-3.488-4.342
	c-0.632-0.633-1.797-1.058-3.487-1.271l-3.496-0.951c-0.738-0.42-1.264-0.42-1.584,0l2.856,7.195l1.378,1.798l1.158,1.272
	c1.165,0.845,2.116,1.477,2.962,1.903l1.592,0.105l2.643-0.212l2.224-0.739c1.157,0.739,2.216,1.051,3.274,1.051l1.797-0.312
	c-0.845-0.428-1.264-1.272-1.264-2.545L25.3,63.27v-1.265c0-1.796-0.312-3.175-0.952-4.233l-1.477-2.75L20.967,52.166L20.967,52.166
	z M31.012,5.949l-2.536,0.632L25.3,7.952c-2.643,1.698-3.062,2.963-3.906,6.032l-0.533-0.107l-2.536,2.543
	c-0.845,1.158-1.271,2.216-1.271,3.062l-0.525-6.557c-3.069,2.642-5.187,5.186-5.925,7.402c-0.319,0.746-0.533,1.378-0.533,2.01
	c0,1.166,0.533,2.331,1.485,3.283l0.738-2.117c0.632-1.371,0.952-2.43,0.952-3.069l0.845-0.738l-2.01,6.77l0.32,0.213l1.797-1.591
	l1.69-2.003l1.165-3.602l0.319,0.746l3.382-3.389l2.962-0.32c1.165-0.206,2.224-0.632,3.282-1.264
	c1.059-0.846,1.798-2.011,2.217-3.389L31.012,5.949L31.012,5.949z M47.301,6.901l-7.296-0.426l-3.487,0.632l-2.65,0.746
	l-2.216,1.584c-0.952,0.632-1.379,1.272-1.379,1.904l5.399-1.485l3.381-0.952c0.739-0.099,1.691-0.206,3.069-0.206L40.53,9.224
	l-1.903,0.32l-2.643,0.739c-0.106,0.525-0.419,0.845-1.059,0.845h-1.798l-2.322,0.845c-0.846,0.427-1.271,0.846-1.271,1.165
	l2.01-0.106l5.499,0.739l2.437,0.639c0.313,0.107,0.952,0.206,1.69,0.206l-8.993-1.158l-2.43,0.419
	c-0.738,0.107-1.059,0.427-1.059,1.059c1.371,0.213,2.963,0.632,4.547,1.272c1.69,0.738,2.749,1.058,3.487,1.165l1.805,0.099
	l1.584-0.206l2.963-0.952l2.855-1.271v-1.271l-9.412-2.962l1.37-0.099c0.64,0.419,1.272,0.632,1.904,0.632
	c0.845,0,2.011-0.426,3.389-1.165l2.963-1.371l1.051-0.853C47.514,7.64,47.514,7.32,47.301,6.901L47.301,6.901z M70.786,10.283
	c-0.953-1.378-2.226-2.331-3.915-2.75l-7.936-1.058l3.389,5.285l1.691,1.378c0.418,0.106,1.264,0.213,2.534,0.213h1.904h1.271
	v-0.426l-2.438-1.264c-1.264-0.64-2.107-1.165-2.534-1.592l3.915,1.691c1.163,0.533,2.116,1.165,3.066,1.903l-0.426-1.583
	l-0.418-1.059L70.786,10.283L70.786,10.283z M77.023,10.496l-5.819-3.389v0.952l0.532,3.282l1.584,3.914
	c0.32,0.738,0.738,1.477,1.379,2.117l2.431,1.904c-0.846-0.747-2.331-1.272-4.333-1.698c-2.011-0.419-3.389-0.846-4.021-1.265
	l4.439,0.632l0.105-0.319c-0.318-1.265-0.844-2.011-1.584-2.217c-0.844-0.426-1.797-0.639-2.854-0.639l-3.176,0.319l-3.175,0.214
	c1.591,2.117,3.281,3.808,5.186,4.973c2.01,1.157,4.127,1.69,6.236,1.69l1.798-0.64c0.951-0.312,1.485-0.632,1.485-1.051
	l1.688,0.312l1.378-0.312c0.633,0,1.586,0.632,2.752,1.904c1.262,1.264,2.116,1.904,2.534,1.904c-0.739-2.65-2.011-4.866-3.7-6.458
	l-0.428,0.426c-0.313-1.584-0.845-2.963-1.477-4.021C79.141,11.76,78.188,10.915,77.023,10.496L77.023,10.496z M88.126,18.218
	l-1.585-1.904c-0.213,0-0.418,0.206-0.738,0.526l-0.105,1.378l0.427,5.818c0.526,2.323,1.688,3.594,3.274,3.808l-0.525-3.602
	l-0.746-3.168c0.641,0.739,1.164,2.323,1.484,4.653c0.525,2.429,1.271,4.021,2.322,4.653l0.32-2.855
	C92.254,23.609,90.883,20.541,88.126,18.218L88.126,18.218z M26.046,20.86l-0.533-0.632l-0.845,0.206
	c-4.76,0-9.199,2.962-11.743,6.77c-0.205,0.32-0.205,0.739-0.099,1.059l0.738,0.632l3.381-2.643
	c1.379-0.952,2.544-1.797,3.595-2.323h0.427l-4.127,2.962l-2.536,2.003c-0.427,0.639-0.632,1.271-0.632,2.01h0.525l6.983-3.061
	c1.583-0.853,2.429-1.698,2.642-2.543l1.271-2.536C25.62,22.025,25.939,21.279,26.046,20.86L26.046,20.86z M12.293,33.021
	l0.213-1.584c0-1.485-0.532-3.069-1.484-4.866L8.166,22.23c-0.738,0.533-1.157,1.058-1.264,1.485L5.95,26.038l-0.213,1.805v1.904
	c0,3.062,0.739,5.605,3.176,6.869v1.059l-0.32-0.846l-0.319,0.214l-0.846,0.738l0.106,1.584c0,1.166,0.214,2.011,0.632,2.331
	L12.293,33.021L12.293,33.021z M15.575,35.459l-0.846-0.64l-3.495,3.594c-1.584,1.592-3.168,3.496-3.168,6.458l0.099,1.371
	c0,3.069,2.224,4.341,2.856,4.759c-0.525,0.214-0.952,0.214-1.371,0l-1.485-1.903l-1.903-2.855
	c-0.738-1.166-1.051-2.217-1.051-3.069l0.951,1.378c0.419,0.739,0.846,0.952,1.158,1.058c0.319-0.533,0.427-1.165,0.427-1.797
	c0-0.952-0.633-2.117-2.011-3.701l-2.117-2.437l-0.632,0.64v1.264l-0.106,2.224v2.117l0.213,2.642
	c0.214,0.739,0.525,1.371,0.952,2.118c0.525,1.37,1.264,2.322,2.216,2.75l3.914,1.264c0.846,1.592,2.117,2.758,4.128,4.021
	c2.01,1.271,3.282,2.436,3.914,3.594c0-1.69-1.69-3.168-1.69-4.014c2.109-2.011,2.749-4.973,2.749-8.042l-0.106-1.691l-0.106-2.437
	l-0.526-1.37c-0.213-0.739-0.532-1.272-0.951-1.378l-3.069,5.399c-0.952,1.797-1.484,3.38-1.484,4.964l0.213,1.699l0.738,1.371
	l0.533,1.164c-2.437-1.377-2.543-4.547-2.543-6.771c2.855-4.333,3.914-7.188,3.914-10.89L15.575,35.459L15.575,35.459z
	 M96.691,35.877l-2.108,2.331l-1.696,2.323c-0.848,0.952-1.266,2.01-1.266,3.069l0.105,1.904l0.106,1.904l-0.213,1.797l3.808-8.887
	c0,2.224-1.164,6.031-2.75,8.255v0.632l2.965-1.904l1.371-3.275l0.104-1.591l-0.214-3.275L96.691,35.877L96.691,35.877z
	 M87.173,37.256h0.533l2.116,4.76c0.848,2.109,1.266,4.013,1.266,5.604c0,1.264-0.313,2.536-0.951,3.808l-1.06,1.691l-0.312-5.286
	l-1.061-4.866l0.215,4.12l0.205,4.974l-0.205,3.281l-0.748,3.061v1.699l0.533-0.953l0.633-2.961c0.641-2.33,1.484-3.808,2.544-4.448
	l2.854-2.322c0.633-0.632,1.479-1.165,2.537-1.484c-0.533,0.952-0.738,1.698-0.738,2.223l-0.108,2.01v3.382
	c-0.845,1.699-1.796,2.854-2.962,3.603c-0.951,0.738-2.855,1.584-5.293,2.748L85.27,63.59c-0.524,0.524-1.158,0.846-1.903,0.846
	l0.745-1.691c0.738-0.846,0.846-1.27,0.951-1.689l1.061-2.748c0.632-1.592,0.951-2.758,0.951-3.283l-0.746-2.01l-0.951-2.324
	c-0.105-0.426-0.205-1.805-0.205-4.021v-2.544l0.1-2.749l0.64-2.011L87.173,37.256L87.173,37.256z M82.734,52.486
	c-0.526,0.106-0.951,0.313-1.061,0.524l-1.371,1.486l-1.164,1.583l-2.01,2.429l-0.633,2.011c-0.105,0.428-0.213,1.06-0.213,1.799
	l-0.32,3.389l0.105,1.904c0,0.951-0.418,1.688-1.271,2.115l-3.272,1.584c0.317,0.213,0.845,0.418,1.582,0.526
	c0.319-0.208,0.951-0.42,1.904-0.526l1.904-0.213c1.591,0,2.747,0.319,3.594,0.951l1.059,0.106c1.271-0.106,2.33-0.427,3.177-0.738
	l3.487-2.011c0.951-0.738,1.699-1.484,2.328-2.329l1.479-1.692l0.427-0.632l-0.212-0.53l-1.271-0.108l-1.478-0.099l-2.644,0.207
	l-2.438,0.639c-1.796,0.738-3.062,1.584-4.012,2.75l-1.699,1.263c-0.524,0.319-1.058,0.427-1.478,0.427
	c4.548-2.115,6.559-6.449,6.559-8.779l-0.633-3.383C82.734,54.916,82.628,53.438,82.734,52.486L82.734,52.486z M75.332,59.675
	c-0.739-0.212-1.379-0.104-1.797,0.321l-1.691,1.263c-1.591,0.854-2.756,1.806-3.494,2.964c-0.951,1.592-1.166,2.116-1.584,3.913
	c-0.32,1.691-0.633,1.486-1.06,2.226l-0.213,0.418l1.058,0.32c1.272-0.848,2.225-1.691,2.857-2.537l3.068-4.652
	c-0.847,2.963-1.799,4.547-4.439,6.976l0.845,0.32l2.644-0.738c1.371-0.532,2.322-1.593,2.642-3.177
	c0.74-2.116,0.74-2.322,0.847-4.127L75.332,59.675L75.332,59.675z M37.675,67.078c-0.952-1.479-2.749-2.749-5.285-3.809
	c-2.536-1.158-4.127-2.012-4.866-2.535l-0.213,0.213c-0.206,0.312-0.206,0.632,0,0.951l0.746,1.265l2.003,5.711
	c0.533,1.166,1.271,2.011,2.224,2.756l1.584,0.849c0.32,0,0.854-0.215,1.378-0.641l1.059-0.738l-2.855-2.644l-2.117-3.176
	l0.32,0.319l3.168,3.594c1.165,1.166,2.33,1.798,3.389,1.798l1.059-0.214V70.04L37.675,67.078L37.675,67.078z M29.534,69.407
	l-1.797-0.951l-1.272-0.106l-3.487,0.426l-3.914,1.371l0.106,0.633l5.178,3.709l2.117,0.418l2.011,0.215l2.855-0.428
	c1.165-0.525,1.797-0.952,2.117-1.478l-0.427-0.319c-1.69,0-3.487-0.213-5.284-0.633l-5.187-1.689l3.914,0.738
	c2.011,0.418,2.437,0.418,3.176,0.418l2.011,0.107l-1.166-1.158L29.534,69.407L29.534,69.407z M75.546,72.789L70.68,72.05
	c-2.225-0.524-3.809-0.737-4.974-0.737l-1.584,0.105c-1.378,0.738-2.224,1.798-2.544,3.169L61.16,73.74l-0.952,0.427l-1.164,0.106
	c-0.427,0.313-0.633,1.06-0.633,2.011l2.216,0.104c0.641-0.318,1.271-0.531,2.012-0.531l2.854,0.951l2.116,0.739l1.689,0.104
	c1.692,0,3.178-0.211,4.342-0.631c1.371-0.633,2.322-1.271,2.644-1.797c0.952-0.953,1.164-0.64,2.429-1.691
	c-0.418-0.426-0.845-0.639-1.371-0.639L75.546,72.789L75.546,72.789z M46.455,73.43c-2.116,0-5.925-1.904-7.295-1.904
	c-1.379,0-2.536,0.313-3.488,1.059l-2.011,1.689c-1.165,1.166-2.01,0.848-2.437,1.586c1.271,0.845,2.855,1.271,4.76,1.271
	l2.437-0.106l2.536-0.318l2.643-0.952c0.739-0.524,1.484-0.846,2.224-0.846l-0.427,0.321l-0.106,0.631l1.592,0.427
	c0.951,0.205,1.478,0.205,1.69,0l0.32-0.847C48.785,74.486,47.407,74.273,46.455,73.43L46.455,73.43z M55.448,72.896l-0.739-0.847
	l-0.852-0.106l-0.739,0.847c0.532,0.533,0.846,1.165,0.846,1.903l-0.524,2.117c-0.32,0.738-0.532,1.379-0.532,2.01l0.425,1.271
	l2.536-1.271c0.952-0.525,1.379-0.952,1.379-1.377l0.524-1.371l0.319-1.272l-0.319-0.737l-0.737-0.951
	c-0.32-0.32-0.738-0.428-1.06-0.215l0.105,0.953l0.32,0.532v0.632c0,1.06-0.32,1.69-0.952,1.903l0.313-2.535
	C55.762,73.848,55.662,73.322,55.448,72.896L55.448,72.896z M53.118,74.693l-0.42-1.266c-0.212-0.318-0.64-0.428-1.271-0.213
	c-2.01,1.583-2.642,2.962-2.642,4.545l0.214,1.272l0.738,0.845c0.106,0.107,0.419,0.214,0.846,0.214l0.104-0.952l0.42-0.846
	l0.105,1.479l1.061,0.427l-0.32-1.165l0.533-2.012L53.118,74.693L53.118,74.693z M86.123,78.294
	c-0.746-0.745-1.378-1.058-1.807-1.058l-2.215-0.32l-0.738,0.427l-0.533,0.524c0.533,0.215,0.845,0.525,1.061,0.953l0.737,0.845
	l0.64,0.321l1.051-0.428c0.746,0.318,1.166,0.738,1.379,1.379l0.632,1.265l0.845-0.42c-0.418,1.271-1.156,1.903-2.216,1.903
	l-2.01-0.213c-0.952-0.214-1.69-0.214-2.224-0.107c-0.846,0.32-2.322,0.953-3.168,1.486c-0.748,0.523-1.166,1.264-1.166,2.01
	l1.166,0.632l2.002,0.526c0.746-0.739,2.116-1.059,4.127-1.059c2.332-0.313,3.487-0.633,3.594-1.053l0.643-2.01l0.205-1.164
	l-0.313-1.272c-0.846-0.419-0.951-1.585-1.484-2.749C86.328,78.605,86.223,78.5,86.123,78.294L86.123,78.294z M48.466,77.977
	l-0.32-0.953l-7.928,1.06c-4.021,0.632-6.663,0.951-7.935,0.951l-4.333-0.427l2.109,1.592l3.176,1.265l2.117-0.737l2.855-0.738
	l4.439-0.643l2.224-0.418l1.69-0.105C47.62,78.5,48.252,78.188,48.466,77.977L48.466,77.977z M76.284,79.771h-0.952l-1.904,0.105
	l-3.595-0.213l-4.021-0.525l-7.723-1.484l-0.427,0.428l-0.206,0.523l7.93,2.011l4.445,1.272l2.749,0.846l2.323-1.485
	C75.652,80.616,76.18,80.092,76.284,79.771L76.284,79.771z M22.551,78.395l-1.059-0.101c-1.37,0-2.643,0.526-4.013,1.478
	l-0.952,1.379v1.053c0.205,0.533,0.525,1.058,0.952,1.378l2.01,1.058h1.371c1.378-0.213,2.117-0.533,2.224-0.845l-1.379-1.379
	c-0.632-0.418-1.165-0.632-1.477-0.632c-0.213-0.738-0.106-1.272,0.312-1.69L22.551,78.395L22.551,78.395z M25.833,80.198
	c-0.427-0.951-1.059-1.484-1.797-1.484c-1.165,0-2.011,0.427-2.544,1.378l1.805,0.952c0.739-0.106,1.158,0.104,1.371,0.419
	l0.632,0.533l0.533,0.206C26.046,81.889,26.046,81.249,25.833,80.198L25.833,80.198z M82.413,81.044
	c-0.522-1.379-0.951-2.011-1.369-2.011c0,0.738-0.214,1.371-0.739,1.798c-0.426,0.106-0.846,0-1.271-0.427l-0.739-0.846
	l-0.738,0.846l-0.32,0.951c0.105,0.746,0.32,1.164,0.738,1.379l1.904,0.418l0.951-0.312C81.891,82.309,82.413,81.676,82.413,81.044
	L82.413,81.044z M48.146,79.033c-1.69,0.845-2.749,2.115-3.168,3.701c0.214,0.631,0.632,1.164,1.166,1.689l1.264,1.059l0.32,0.319
	l0.418,0.634l0.214,0.845l-0.419,0.95c-0.213-1.164-0.64-2.008-1.165-2.533l-15.338-3.915l-2.429,0.319
	c-1.485,0.951-2.437,2.217-2.855,3.596c0.525,0.525,0.845,0.632,1.157,0.738c0.319-0.32,0.64-0.526,1.059-0.526l1.378,0.1
	c0.525-0.1,0.952-0.312,1.165-0.739h0.952c2.003,0.429,3.701,0.953,6.344,2.117c2.749,1.166,5.079,1.691,7.082,1.691l2.011-0.214
	l0.532-0.845l0.214,0.532l1.265-1.06c0.319-0.531,0.532-1.271,0.532-2.117L49,83.792l-0.747-0.739c0-1.378,0.214-2.438,0.747-2.962
	c-0.533,0.106-0.952,0.418-1.379,1.058l-0.845,1.054L48.146,79.033L48.146,79.033z M80.197,79.559l-0.844-0.312l-0.107,0.631
	l0.525,0.526l0.32-0.206L80.197,79.559z M56.613,85.376c-0.318-0.524-0.533-1.478-0.746-2.854c-0.205-1.371-0.633-2.116-1.266-2.43
	v2.645l-0.951-2.119l-0.211,1.271l0.418,1.799c0.319,0.524,0.64,0.845,0.951,1.164C55.762,85.376,56.4,85.591,56.613,85.376
	L56.613,85.376z M25.3,82.734l-0.952-1.06c-0.312-0.319-0.632-0.427-1.051-0.213c-0.213,0.739-0.106,1.379,0.419,1.797
	C24.562,83.152,25.094,82.947,25.3,82.734L25.3,82.734z M70.253,84.639l-3.274-1.584c-0.641-0.318-1.379-0.533-2.224-0.533
	c-0.953,0-2.011,0.215-2.962,0.738l-3.702,2.649l-0.95,0.1c-1.379,0-2.644-0.526-3.701-1.584l0.213,1.272l1.265,1.583
	c0.532,0.532,1.164,0.95,1.797,1.165l1.378,0.213l2.536-0.428l2.854-1.795h1.379h1.166l1.263,0.213
	c0.321,0.313,0.642,0.524,1.06,0.524l1.061-0.312l0.951-0.32l-1.479,1.271l0.313,1.265c0.533-0.106,0.846-0.313,1.06-0.632
	l0.951-1.379l-0.951-0.633l0.533-0.427L70.253,84.639L70.253,84.639z M23.084,84.639L21.6,85.164
	c-0.739,0.318-1.06,0.745-0.846,1.378l0.951-0.106l0.846-0.633C23.084,85.482,23.297,85.059,23.084,84.639L23.084,84.639z
	 M20.335,87.066l-0.319-2.01l-2.011,1.697c-0.32,0.419-0.525,0.952-0.525,1.691c0.632,1.058,1.157,1.688,1.477,2.011l2.438,1.265
	l2.643,0.213l2.855,0.213c1.584,0,2.855-0.319,3.808-0.951l1.264-1.479c0.32-0.427,0.32-0.854,0.107-1.271l-0.952-1.271
	l-0.846-0.632l-1.264,1.903c-1.485,0.633-3.069,0.951-4.866,0.951C21.705,88.864,20.754,88.02,20.335,87.066L20.335,87.066z
	 M29.009,87.602l0.312-0.953l-0.312-0.213l-1.165,0.428l-1.379,0.205l0.739,0.951l0.853,0.213
	C28.476,88.23,28.796,88.02,29.009,87.602L29.009,87.602z M78.508,89.078c0-0.738-0.427-1.165-1.378-1.165l-1.06-0.42l0.32,1.06
	l0.846,1.059L78.508,89.078L78.508,89.078z M69.727,89.718l-1.057-0.64l-0.533-1.266c-0.42-0.105-0.848,0.101-1.266,0.633
	l-0.639,1.271c0.211,1.051,0.533,1.904,1.057,2.535c1.904,1.165,4.021,1.798,6.354,1.798c1.478,0,2.961-0.319,4.332-1.06
	l1.061-0.631c0.318-0.32,0.523-1.166,0.738-2.543l-0.215-0.739l-0.523-0.632c-0.526,1.164-0.953,1.688-1.379,1.688l-2.109,0.106
	H73.43l-1.584-0.106L69.727,89.718L69.727,89.718z M8.379,26.465c0.319,0.526,0.64,1.378,0.845,2.75l0.641,3.807L8.592,29
	C8.485,28.688,8.379,27.843,8.379,26.465L8.379,26.465z M21.492,56.818l2.224,7.296L21.492,56.818z M81.363,57.354l-1.379,5.711
	c-0.633,2.109-1.478,3.595-2.644,4.438c0.953-1.271,1.798-3.067,2.431-5.498L81.363,57.354L81.363,57.354z M9.757,58.305
	l4.653,3.594l4.653,3.383C15.682,64.016,13.672,62.852,9.757,58.305L9.757,58.305z M78.295,16.626l1.264,0.846l-0.74-0.419
	L78.295,16.626z M74.381,12.293l2.749,3.176L74.381,12.293z M80.092,69.934l8.985-3.809L80.092,69.934z M92.146,37.043l0.319-0.846
	L92.146,37.043z M68.775,16.101l-0.426-0.214L68.775,16.101z M13.778,38.947c-0.427,2.223-2.757,5.711-3.176,7.722
	c0.213-1.378,0.738-2.856,1.478-4.341L13.778,38.947L13.778,38.947z M17.159,46.135l-1.379,8.148l0.321-4.234L17.159,46.135z
	 M93.943,51.428L91.301,56.4l-1.058,1.477l-1.166,1.271l2.011-3.388l1.592-2.642L93.943,51.428z M35.353,75.438
	c2.535-1.164,2.855-1.271,5.817-1.271l1.584,0.106l-3.594,0.632C37.888,75.227,36.624,75.438,35.353,75.438L35.353,75.438z
	 M64.122,74.693l1.584-0.106l2.536,0.106l2.544,0.104l1.478-0.104l2.223-0.42c-1.059,0.632-2.328,0.953-3.807,0.953l-2.855-0.216
	L64.122,74.693L64.122,74.693z M27.95,9.224l-1.059,2.749c-0.533,0.952-1.165,1.592-1.69,1.904L27.95,9.224L27.95,9.224z"/>
</svg>
