<?xml version="1.0" encoding="utf-8"?>
<!-- Generator: Adobe Illustrator 16.0.0, SVG Export Plug-In . SVG Version: 6.00 Build 0)  -->
<!DOCTYPE svg PUBLIC "-//W3C//DTD SVG 1.1//EN" "http://www.w3.org/Graphics/SVG/1.1/DTD/svg11.dtd">
<svg version="1.1"
	 id="svg378" xmlns:cc="http://creativecommons.org/ns#" xmlns:dc="http://purl.org/dc/elements/1.1/" xmlns:rdf="http://www.w3.org/1999/02/22-rdf-syntax-ns#"
	 xmlns="http://www.w3.org/2000/svg" xmlns:xlink="http://www.w3.org/1999/xlink" x="0px" y="0px" width="143.447px"
	 height="71.281px" viewBox="0 0 143.447 71.281" enable-background="new 0 0 143.447 71.281" xml:space="preserve">
<rect id="rect605" x="0" y="15.887" fill="#C60000" width="143.287" height="39.505"/>
<path fill="#3E5698" d="M0,58.381h143.287v12.898H0V58.381z M0,0.001h143.287v12.897H0V0.001z"/>
<path id="path607" fill="#FFFFFF" d="M56.42,35.644c0,8.851-7.408,16.026-16.547,16.026c-9.141,0-16.548-7.176-16.548-16.026
	c0-8.853,7.408-16.027,16.548-16.027C49.011,19.617,56.42,26.792,56.42,35.644z"/>
<polygon id="polygon136" fill="#C40000" points="35.119,37.666 27.16,32 37.073,31.959 40.23,22.701 43.182,31.929 53.095,31.872 
	45.007,37.617 47.975,46.838 47.975,46.838 40.024,41.161 31.946,46.918 "/>
</svg>
