<?xml version="1.0" encoding="utf-8"?>
<!-- Generator: Adobe Illustrator 16.0.0, SVG Export Plug-In . SVG Version: 6.00 Build 0)  -->
<!DOCTYPE svg PUBLIC "-//W3C//DTD SVG 1.1//EN" "http://www.w3.org/Graphics/SVG/1.1/DTD/svg11.dtd">
<svg version="1.1" id="Layer_1" xmlns="http://www.w3.org/2000/svg" xmlns:xlink="http://www.w3.org/1999/xlink" x="0px" y="0px"
	 width="20.28px" height="28.584px" viewBox="5.872 3.614 20.28 28.584" enable-background="new 5.872 3.614 20.28 28.584"
	 xml:space="preserve">
<path d="M26.04,9.508c0.138-0.533,0.149-1.407,0.027-1.943l-0.403-1.771c-0.122-0.536-0.665-1.052-1.207-1.146l-3.724-0.643
	c-0.542-0.094-1.429-0.091-1.97,0.007l-4.033,0.726c-0.542,0.098-1.429,0.108-1.973,0.023L8.812,4.146
	C8.817,4.165,8.826,4.182,8.83,4.201l2.701,12.831l1.235,0.215c0.542,0.094,1.428,0.09,1.97-0.008l4.032-0.727
	c0.541-0.098,1.43-0.107,1.974-0.021l4.328,0.674c0.545,0.086,0.906-0.287,0.808-0.828l-0.485-2.625
	c-0.1-0.541-0.068-1.419,0.068-1.952L26.04,9.508z M6.667,3.636C6.126,3.75,5.78,4.279,5.894,4.819l5.764,27.379H13.7L7.852,4.409
	C7.736,3.867,7.207,3.521,6.667,3.636z"/>
</svg>
