<?xml version="1.0" encoding="utf-8"?>
<!-- Generator: Adobe Illustrator 16.0.0, SVG Export Plug-In . SVG Version: 6.00 Build 0)  -->
<!DOCTYPE svg PUBLIC "-//W3C//DTD SVG 1.1//EN" "http://www.w3.org/Graphics/SVG/1.1/DTD/svg11.dtd">
<svg version="1.1" id="Layer_1" xmlns="http://www.w3.org/2000/svg" xmlns:xlink="http://www.w3.org/1999/xlink" x="0px" y="0px"
	 width="100px" height="100px" viewBox="0 0 100 100" enable-background="new 0 0 100 100" xml:space="preserve">
<path fill="#A63232" d="M70.322,45.501C83.285,39.327,81.9,22.967,89.678,11.168c-9.547,7.052-28.482,5.711-34.643,18.809
	c-6.104,12.976-7.793,12.154-2.395,17.642C58.4,53.473,57.367,51.671,70.322,45.501z M56.094,30.147
	C54.223,15.914,38.235,12.17,29.422,1.129c3.751,11.254-3.368,28.854,7.175,38.75c10.461,9.826,9.156,11.182,16.043,7.739
	C59.986,43.949,57.955,44.375,56.094,30.147z M37.092,38.934C22.975,36.314,14.475,50.36,1.255,55.333
	c11.859-0.088,26.398,12.117,39.074,5.151c12.567-6.909,13.455-5.254,12.312-12.866C51.416,39.495,51.199,41.559,37.092,38.934z
	 M39.576,59.721c-6.854,12.614,3.878,25.043,4.521,39.15c3.582-11.305,19.688-21.363,16.976-35.566
	c-2.693-14.097-0.839-14.426-8.433-15.687C44.54,46.263,46.43,47.113,39.576,59.721z M60.117,63.782
	c9.879,10.42,25.01,4.051,38.629,7.793c-9.646-6.896-14.229-25.32-28.582-27.13c-14.24-1.791-13.977-3.659-17.523,3.173
	C48.851,54.905,50.244,53.365,60.117,63.782z"/>
<path fill="#FEE58D" d="M74.859,25.754c-5.082,4.329-9.787,9.223-14.299,14.066C65.873,35.431,70.531,30.756,74.859,25.754z
	 M75.645,27.388c-0.674,0.662-1.764,0.658-2.426-0.02c-0.668-0.673-0.658-1.76,0.016-2.425c0.677-0.669,1.763-0.665,2.431,0.018
	C76.328,25.638,76.32,26.724,75.645,27.388z M38.708,19.728c2.552,6.17,5.757,12.158,8.961,17.944
	C45.138,31.267,42.126,25.392,38.708,19.728z M40.513,19.485c0.421,0.85,0.077,1.88-0.776,2.306c-0.849,0.428-1.88,0.085-2.3-0.77
	c-0.424-0.854-0.081-1.879,0.772-2.306C39.054,18.294,40.086,18.638,40.513,19.485z M21.81,52.248
	c6.657-0.516,13.345-1.717,19.837-2.979C34.77,49.697,28.25,50.745,21.81,52.248z M22.134,50.462
	c0.945-0.143,1.814,0.505,1.958,1.442c0.142,0.938-0.505,1.813-1.446,1.953c-0.941,0.145-1.813-0.5-1.955-1.443
	C20.552,51.479,21.199,50.602,22.134,50.462z M47.516,78.367c1.568-6.492,2.495-13.217,3.294-19.782
	C49.093,65.255,48.071,71.779,47.516,78.367z M45.919,77.505c0.158-0.935,1.037-1.565,1.974-1.412
	c0.936,0.158,1.571,1.046,1.411,1.981c-0.151,0.932-1.04,1.563-1.974,1.404C46.393,79.328,45.76,78.441,45.919,77.505z
	 M80.301,61.99c-5.688-3.489-11.799-6.452-17.801-9.245C68.316,56.441,74.209,59.424,80.301,61.99z M78.986,63.242
	c-0.842-0.432-1.17-1.469-0.729-2.313c0.438-0.847,1.476-1.164,2.318-0.732c0.836,0.438,1.168,1.473,0.723,2.322
	C80.867,63.359,79.826,63.684,78.986,63.242z"/>
<path fill="#FDB813" d="M61.881,49.032c-0.779,5.106-5.555,8.616-10.656,7.827c-5.104-0.78-8.615-5.549-7.831-10.657
	c0.78-5.103,5.556-8.608,10.657-7.825C59.158,39.156,62.662,43.93,61.881,49.032z"/>
<path fill="#FFF9D2" d="M59.531,48.675c-0.582,3.812-4.139,6.423-7.951,5.843c-3.81-0.586-6.418-4.147-5.837-7.958
	c0.581-3.808,4.146-6.42,7.952-5.841C57.502,41.301,60.117,44.862,59.531,48.675z"/>
</svg>
