<?xml version="1.0" encoding="utf-8"?>
<!-- Generator: Adobe Illustrator 16.0.0, SVG Export Plug-In . SVG Version: 6.00 Build 0)  -->
<!DOCTYPE svg PUBLIC "-//W3C//DTD SVG 1.1//EN" "http://www.w3.org/Graphics/SVG/1.1/DTD/svg11.dtd">
<svg version="1.1" id="Layer_1" xmlns="http://www.w3.org/2000/svg" xmlns:xlink="http://www.w3.org/1999/xlink" x="0px" y="0px"
	 width="100px" height="100px" viewBox="0 0 100 100" enable-background="new 0 0 100 100" xml:space="preserve">
<path d="M64.009,63.496c-15.324-1.025-20.71-25.048-41.826-25.048c-23.355,0-17.636,29.028,7.77,29.028
	c12.822,0,17.255-6.148,17.255-11.25c0-1.764-1.061-3.002-1.573-3.002c-0.202,0-0.298,0.153-0.298,0.321
	c0,0.549,1.645,0.179,1.645,2.966c0,2.527-1.823,10.773-17.028,10.773c-24.977,0-31.029-28.647-7.77-28.647
	C41.105,38.638,47.589,63.139,64.009,63.496z"/>
<path d="M46.873,57.705c0.071-0.836,0.004-2.264-0.786-3.005c-0.382-0.357-0.572,0.263-0.167,0.502
	c0.405,0.237,1.024,1.263,0.834,2.931L46.873,57.705z"/>
<path d="M46.438,59.32c0.22-0.809,0.411-2.225-0.233-3.096c-0.311-0.42-0.609,0.154-0.254,0.461c0.355,0.309,0.78,1.428,0.293,3.034
	L46.438,59.32z"/>
<path d="M45.881,60.559c0.283-0.652,0.615-1.822,0.178-2.634c-0.21-0.392-0.531,0.058-0.27,0.359
	c0.263,0.301,0.484,1.293-0.12,2.587L45.881,60.559z"/>
<path d="M45.204,61.631c0.288-0.531,0.654-1.497,0.343-2.215c-0.149-0.348-0.454,0.009-0.254,0.283
	c0.199,0.273,0.315,1.132-0.291,2.184L45.204,61.631z"/>
<path d="M43.741,63.27c0.395-0.457,0.959-1.322,0.81-2.09c-0.072-0.371-0.446-0.091-0.31,0.223c0.136,0.311,0.066,1.173-0.751,2.067
	L43.741,63.27z"/>
<path d="M42.724,64.082c0.381-0.346,0.95-1.014,0.907-1.678c-0.022-0.32-0.367-0.122-0.285,0.154s-0.071,0.996-0.855,1.664
	L42.724,64.082z"/>
<path d="M41.62,64.792c0.341-0.274,0.854-0.815,0.848-1.382c-0.004-0.271-0.306-0.121-0.249,0.117
	c0.057,0.238-0.105,0.843-0.803,1.373L41.62,64.792z"/>
<path d="M40.767,65.236c0.306-0.209,0.779-0.633,0.812-1.112c0.016-0.231-0.25-0.123-0.22,0.083
	c0.032,0.206-0.146,0.707-0.773,1.109L40.767,65.236z"/>
<path d="M39.67,65.672c0.294-0.115,0.766-0.378,0.883-0.77c0.058-0.188-0.184-0.148-0.196,0.027
	c-0.013,0.178-0.255,0.56-0.852,0.774L39.67,65.672z"/>
<path d="M38.872,66.02c0.24-0.119,0.621-0.373,0.695-0.711c0.034-0.166-0.166-0.115-0.165,0.035s-0.179,0.49-0.669,0.713
	L38.872,66.02z"/>
<path d="M37.983,66.311c0.255-0.082,0.668-0.28,0.788-0.605c0.058-0.158-0.149-0.137-0.168,0.013
	c-0.021,0.148-0.245,0.46-0.762,0.613L37.983,66.311z"/>
<path d="M27.783,40.259c-0.791-0.274-2.192-0.786-4.671-0.786c-8.246,0-10.343,8.222-6.054,8.222c0,0,0.5,0.072,0.716-0.286
	c0,0,0.047,0.309-0.311,0.358c0,0,1.098,0.071,1.453-0.716c0,0,0.215,0.214-0.095,0.478c0,0,0.451-0.056,1.002-0.835
	c0.285-0.405,0.643,0.191-0.025,0.62c-0.667,0.429-1.167,0.643-2.024,0.643c-5.911,0-2.787-8.862,5.386-8.698
	c2.383,0.048,3.503,0.405,4.742,0.953C28.66,40.547,28.332,40.45,27.783,40.259z"/>
<path d="M18.768,38.893c0,0-2.633,0.568-3.782,2.001c-0.607,0.758-0.511,0.151-0.071-0.314
	C15.521,39.937,17.425,38.896,18.768,38.893z"/>
<path d="M16.237,39.38c0,0-2.074,0.474-3.782,3.325c-0.499,0.835-0.479,0.233-0.121-0.297C12.829,41.674,13.688,40.021,16.237,39.38
	z"/>
<path d="M11.998,41.816c0,0-1.348,1.498-1.144,3.638c0.031,0.334-0.207,0.397-0.254-0.301
	C10.553,44.453,10.967,42.722,11.998,41.816z"/>
<path d="M10.299,43.961c0,0-1.757,4.006,1.398,5.751c0.746,0.413,0.349,0.81-0.445,0.111C10.457,49.125,8.71,47.551,10.299,43.961z"
	/>
<path d="M9.218,45.518c0,0-0.492,0.858-0.492,2.05c0,3.083,2.463,6.165,6.148,6.165c1.97,0,2.923-1.393,3.034-1.985
	c0.111-0.588-0.313-0.448-0.412-0.063c-0.096,0.365-0.538,1.875-2.605,1.875c-2.574,0-6.022-2.271-6.022-6.069
	c0-1.191,0.429-1.986,0.429-1.986S9.393,45.216,9.218,45.518z"/>
<path d="M16.972,52.271c-0.095,0.375-0.842,1.238-2.177,1.271c0,0,1.384-0.178,1.779-1.286
	C16.732,51.811,17.051,51.952,16.972,52.271z"/>
<path d="M14.271,53.525c0,0,0.75,0.02,1.207-0.397c0.175-0.158-0.063-0.349-0.334-0.11c-0.27,0.237-0.54,0.461-0.904,0.461"/>
<path d="M13.596,53.382c0,0,0.353,0.134,0.762-0.063c0.244-0.117,0.151-0.313-0.111-0.166C13.994,53.295,13.82,53.354,13.596,53.382
	z"/>
<path d="M9.004,51.579c0.574,0.958,1.764,3.551,6.506,3.551c0.357,0,0.501,0.431-0.071,0.431c-0.572,0-4.267,0.166-6.507-3.934
	C8.932,51.627,8.932,51.46,9.004,51.579z"/>
<path d="M8.836,51.413v-0.16l0.128,0.063c0,0,0-0.254-0.159-0.207C8.646,51.158,8.836,51.413,8.836,51.413z"/>
<path d="M8.711,50.911l0.015-0.134l0.103,0.064c0,0,0.022-0.216-0.116-0.189C8.573,50.68,8.711,50.911,8.711,50.911z"/>
<path d="M8.592,50.37l0.022-0.109l0.078,0.062c0,0,0.036-0.174-0.08-0.164C8.498,50.168,8.592,50.37,8.592,50.37z"/>
<path d="M8.528,49.912l0.019-0.094l0.067,0.053c0,0,0.031-0.149-0.068-0.14C8.447,49.74,8.528,49.912,8.528,49.912z"/>
<path d="M14.739,59.063l-0.12-0.103l0.131-0.056c0,0-0.193-0.165-0.261-0.014C14.421,59.041,14.739,59.063,14.739,59.063z"/>
<path d="M14.276,58.832l-0.093-0.098L14.3,58.7c0,0-0.147-0.158-0.219-0.036C14.011,58.785,14.276,58.832,14.276,58.832z"/>
<path d="M13.788,58.57l-0.068-0.09l0.098-0.02c0,0-0.109-0.141-0.176-0.045C13.573,58.511,13.788,58.57,13.788,58.57z"/>
<path d="M13.398,58.32l-0.058-0.074l0.083-0.018c0,0-0.094-0.121-0.151-0.039C13.215,58.27,13.398,58.32,13.398,58.32z"/>
<path d="M23.016,63.241l-0.199-0.064l0.132-0.135c0,0-0.319-0.104-0.325,0.115C22.618,63.376,23.016,63.241,23.016,63.241z"/>
<path d="M22.334,63.193l-0.163-0.074l0.124-0.102c0,0-0.26-0.117-0.285,0.068C21.985,63.271,22.334,63.193,22.334,63.193z"/>
<path d="M21.604,63.119l-0.128-0.072l0.109-0.072c0,0-0.204-0.117-0.238,0.031C21.313,63.156,21.604,63.119,21.604,63.119z"/>
<path d="M21.003,63.012l-0.11-0.063l0.095-0.063c0,0-0.175-0.101-0.205,0.028C20.752,63.043,21.003,63.012,21.003,63.012z"/>
<path d="M17.07,62.76l-0.213-0.18l0.229-0.098c0,0-0.342-0.287-0.456-0.021C16.516,62.729,17.07,62.76,17.07,62.76z"/>
<path d="M16.258,62.364l-0.163-0.173l0.202-0.062c0,0-0.261-0.272-0.383-0.06C15.792,62.284,16.258,62.364,16.258,62.364z"/>
<path d="M15.399,61.911l-0.121-0.152l0.171-0.034c0,0-0.193-0.244-0.31-0.078C15.022,61.813,15.399,61.911,15.399,61.911z"/>
<path d="M14.715,61.482l-0.103-0.133l0.146-0.029c0,0-0.165-0.209-0.266-0.067C14.393,61.396,14.715,61.482,14.715,61.482z"/>
<path d="M28.298,66.368l-0.211-0.069l0.14-0.141c0,0-0.338-0.112-0.345,0.119C27.876,66.51,28.298,66.368,28.298,66.368z"/>
<path d="M27.576,66.314l-0.171-0.078l0.13-0.105c0,0-0.274-0.126-0.301,0.069C27.207,66.396,27.576,66.314,27.576,66.314z"/>
<path d="M26.805,66.234l-0.135-0.077l0.115-0.077c0,0-0.215-0.125-0.253,0.033C26.496,66.271,26.805,66.234,26.805,66.234z"/>
<path d="M26.168,66.119l-0.115-0.067l0.101-0.065c0,0-0.186-0.106-0.218,0.029C25.904,66.148,26.168,66.119,26.168,66.119z"/>
<path d="M32.886,65.893l-0.388-0.027l0.178-0.299c0,0-0.62-0.047-0.533,0.351C32.231,66.313,32.886,65.893,32.886,65.893z"/>
<path d="M31.64,66.109l-0.325-0.061l0.179-0.234c0,0-0.521-0.097-0.483,0.246C31.047,66.405,31.64,66.109,31.64,66.109z"/>
<path d="M30.296,66.303l-0.263-0.072l0.165-0.181c0,0-0.418-0.12-0.415,0.165C29.788,66.5,30.296,66.303,30.296,66.303z"/>
<path d="M29.168,66.378l-0.224-0.063l0.14-0.154c0,0-0.359-0.102-0.354,0.145C28.732,66.546,29.168,66.378,29.168,66.378z"/>
<path d="M35.917,68.578l-0.258-0.148l0.154-0.216c0,0-0.467-0.075-0.427,0.231C35.426,68.751,35.917,68.578,35.917,68.578z"/>
<path d="M34.861,68.631l-0.203-0.13l0.15-0.167c0,0-0.389-0.107-0.383,0.154C34.432,68.751,34.861,68.631,34.861,68.631z"/>
<path d="M33.908,68.68l-0.191-0.136l0.137-0.125c0,0-0.31-0.117-0.325,0.099C33.512,68.732,33.908,68.68,33.908,68.68z"/>
<path d="M32.979,68.643l-0.166-0.109l0.117-0.107c0,0-0.266-0.101-0.279,0.083C32.638,68.693,32.979,68.643,32.979,68.643z"/>
<path d="M32.133,68.628l-0.166-0.11l0.117-0.106c0,0-0.266-0.103-0.279,0.083C31.791,68.678,32.133,68.628,32.133,68.628z"/>
<path d="M41.702,67.201l-0.339-0.094l0.171-0.431c0,0-0.826,0.07-0.627,0.573C41.106,67.753,41.702,67.201,41.702,67.201z"/>
<path d="M40.212,67.727l-0.365-0.125l0.185-0.348c0,0-0.704-0.018-0.582,0.426C39.57,68.123,40.212,67.727,40.212,67.727z"/>
<path d="M38.557,68.07l-0.295-0.114l0.178-0.271c0,0-0.575-0.067-0.511,0.304C37.994,68.361,38.557,68.07,38.557,68.07z"/>
<path d="M37.126,68.404l-0.313-0.129l0.152-0.231c0,0-0.493-0.06-0.438,0.261C36.582,68.625,37.126,68.404,37.126,68.404z"/>
<path d="M47.272,66.738l-0.285-0.079l0.096-0.246c0,0-0.473,0.043-0.355,0.33C46.843,67.029,47.272,66.738,47.272,66.738z"/>
<path d="M46.265,67.057l-0.229-0.076l0.104-0.199c0,0-0.402-0.008-0.331,0.246C45.88,67.28,46.265,67.057,46.265,67.057z"/>
<path d="M45.355,67.341l-0.22-0.083l0.101-0.154c0,0-0.33-0.037-0.29,0.176C44.984,67.492,45.355,67.341,45.355,67.341z"/>
<path d="M44.446,67.539l-0.188-0.066l0.086-0.132c0,0-0.282-0.032-0.249,0.15C44.128,67.673,44.446,67.539,44.446,67.539z"/>
<path d="M43.623,67.736l-0.188-0.064l0.086-0.134c0,0-0.281-0.031-0.248,0.151C43.306,67.871,43.623,67.736,43.623,67.736z"/>
<path d="M52.525,63.954l-0.352-0.007l0.059-0.459c0,0-0.78,0.275-0.461,0.713C52.09,64.637,52.525,63.954,52.525,63.954z"/>
<path d="M51.217,64.835l-0.384-0.028l0.09-0.383c0,0-0.686,0.16-0.457,0.559C50.693,65.38,51.217,64.835,51.217,64.835z"/>
<path d="M49.7,65.585l-0.313-0.037l0.104-0.307c0,0-0.574,0.079-0.417,0.423C49.229,66.008,49.7,65.585,49.7,65.585z"/>
<path d="M48.4,66.268l-0.335-0.045l0.089-0.265c0,0-0.492,0.067-0.357,0.362C47.931,66.616,48.4,66.268,48.4,66.268z"/>
<path d="M51.764,58.673l-0.283,0.089l-0.054-0.261c0,0-0.372,0.292-0.12,0.47C51.559,59.15,51.764,58.673,51.764,58.673z"/>
<path d="M51.085,59.482l-0.233,0.061l-0.021-0.225c0,0-0.342,0.213-0.146,0.387C50.88,59.88,51.085,59.482,51.085,59.482z"/>
<path d="M50.472,60.215l-0.229,0.049l0.001-0.186c0,0-0.298,0.146-0.15,0.305C50.241,60.54,50.472,60.215,50.472,60.215z"/>
<path d="M49.813,60.871l-0.194,0.047l0.001-0.159c0,0-0.255,0.126-0.128,0.263C49.618,61.155,49.813,60.871,49.813,60.871z"/>
<path d="M49.228,61.48l-0.195,0.047l0.002-0.158c0,0-0.255,0.125-0.129,0.261C49.032,61.766,49.228,61.48,49.228,61.48z"/>
<path d="M49.291,57.941l-0.271,0.121l-0.081-0.252c0,0-0.338,0.332-0.067,0.479C49.143,58.439,49.291,57.941,49.291,57.941z"/>
<path d="M48.71,58.824l-0.227,0.088l-0.045-0.221c0,0-0.316,0.248-0.102,0.398C48.551,59.241,48.71,58.824,48.71,58.824z"/>
<path d="M48.184,59.621l-0.222,0.074l-0.021-0.185c0,0-0.278,0.181-0.114,0.319C47.991,59.973,48.184,59.621,48.184,59.621z"/>
<path d="M47.604,60.35l-0.188,0.066l-0.018-0.157c0,0-0.238,0.153-0.098,0.273C47.443,60.652,47.604,60.35,47.604,60.35z"/>
<path d="M47.092,61.021l-0.188,0.066l-0.018-0.156c0,0-0.239,0.152-0.098,0.272C46.93,61.327,47.092,61.021,47.092,61.021z"/>
<path d="M49.868,56.866l-0.289,0.176l-0.097-0.261c0,0-0.339,0.363-0.049,0.507C49.725,57.434,49.868,56.866,49.868,56.866z"/>
<path d="M42.904,65.42l-0.292-0.055l0.076-0.254c0,0-0.467,0.08-0.328,0.356C42.498,65.745,42.904,65.42,42.904,65.42z"/>
<path d="M41.926,65.816L41.69,65.76l0.088-0.208c0,0-0.402,0.026-0.311,0.272C41.558,66.07,41.926,65.816,41.926,65.816z"/>
<path d="M41.04,66.174l-0.225-0.064l0.088-0.16c0,0-0.331-0.012-0.276,0.197C40.684,66.354,41.04,66.174,41.04,66.174z"/>
<path d="M40.151,66.445l-0.194-0.051l0.076-0.141c0,0-0.284-0.009-0.236,0.171C39.845,66.605,40.151,66.445,40.151,66.445z"/>
<path d="M39.346,66.709l-0.192-0.05l0.075-0.14c0,0-0.284-0.01-0.236,0.17C39.041,66.868,39.346,66.709,39.346,66.709z"/>
<path d="M45.23,64.076l-0.315-0.014l0.079-0.313c0,0-0.565,0.124-0.383,0.455C44.796,64.534,45.23,64.076,45.23,64.076z"/>
<path d="M43.99,64.859l-0.338-0.02l0.067-0.27c0,0-0.485,0.106-0.327,0.391C43.55,65.245,43.99,64.859,43.99,64.859z"/>
<path d="M46.441,72.034l-0.211-0.07l0.141-0.141c0,0-0.338-0.112-0.345,0.12C46.021,72.176,46.441,72.034,46.441,72.034z"/>
<path d="M45.72,71.98l-0.171-0.08l0.132-0.104c0,0-0.275-0.126-0.303,0.069S45.72,71.98,45.72,71.98z"/>
<path d="M44.948,71.9l-0.135-0.078l0.116-0.076c0,0-0.216-0.125-0.253,0.033C44.64,71.938,44.948,71.9,44.948,71.9z"/>
<path d="M47.312,72.043l-0.224-0.063l0.141-0.154c0,0-0.359-0.102-0.355,0.142C46.876,72.211,47.312,72.043,47.312,72.043z"/>
<path d="M20.215,66.823l-0.165-0.149l0.186-0.072c0,0-0.264-0.237-0.364-0.027C19.771,66.782,20.215,66.823,20.215,66.823z"/>
<path d="M19.576,66.482l-0.125-0.142l0.163-0.045c0,0-0.2-0.226-0.304-0.058C19.206,66.407,19.576,66.482,19.576,66.482z"/>
<path d="M18.903,66.098l-0.092-0.127l0.137-0.021c0,0-0.146-0.201-0.244-0.071C18.605,66.007,18.903,66.098,18.903,66.098z"/>
<path d="M18.369,65.732l-0.079-0.106l0.117-0.021c0,0-0.126-0.172-0.21-0.062C18.113,65.655,18.369,65.732,18.369,65.732z"/>
<path d="M24.603,68.243l-0.343-0.183l0.283-0.201c0,0-0.549-0.293-0.628,0.106C23.835,68.361,24.603,68.243,24.603,68.243z"/>
<path d="M23.376,67.939l-0.273-0.188l0.258-0.145c0,0-0.437-0.299-0.541,0.029C22.715,67.97,23.376,67.939,23.376,67.939z"/>
<path d="M22.068,67.572l-0.209-0.174l0.223-0.1c0,0-0.335-0.277-0.446-0.017C21.525,67.545,22.068,67.572,22.068,67.572z"/>
<path d="M21.007,67.184l-0.179-0.147l0.19-0.084c0,0-0.288-0.238-0.383-0.017C20.541,67.161,21.007,67.184,21.007,67.184z"/>
<path d="M32.294,70.561l-0.196-0.105l0.161-0.114c0,0-0.314-0.168-0.359,0.06C31.854,70.628,32.294,70.561,32.294,70.561z"/>
<path d="M31.51,70.459l-0.156-0.107l0.147-0.08c0,0-0.25-0.172-0.31,0.017C31.132,70.477,31.51,70.459,31.51,70.459z"/>
<path d="M30.787,70.387l-0.12-0.1l0.127-0.057c0,0-0.19-0.157-0.255-0.008C30.477,70.371,30.787,70.387,30.787,70.387z"/>
<path d="M30.174,70.254l-0.103-0.086l0.109-0.047c0,0-0.164-0.139-0.219-0.01C29.906,70.241,30.174,70.254,30.174,70.254z"/>
<path d="M36.552,70.852l-0.377-0.095l0.226-0.265c0,0-0.604-0.149-0.584,0.257C35.837,71.152,36.552,70.852,36.552,70.852z"/>
<path d="M35.287,70.855l-0.31-0.112l0.215-0.204c0,0-0.497-0.182-0.518,0.163S35.287,70.855,35.287,70.855z"/>
<path d="M34.154,70.764l-0.246-0.117l0.192-0.149c0,0-0.393-0.188-0.437,0.093C33.62,70.87,34.154,70.764,34.154,70.764z"/>
<path d="M33.094,70.626l-0.211-0.101l0.166-0.129c0,0-0.338-0.16-0.375,0.08C32.637,70.719,33.094,70.626,33.094,70.626z"/>
<path d="M16.534,54.9c0.166,0,0.282,0.14,0.282,0.283c0,0.145-0.116,0.283-0.282,0.283s-0.284-0.139-0.284-0.283
	S16.371,54.9,16.534,54.9z"/>
<path d="M25.567,58.178c0.183,0,0.311,0.152,0.311,0.313c0,0.156-0.128,0.311-0.311,0.311s-0.312-0.15-0.312-0.311
	C25.255,58.329,25.389,58.178,25.567,58.178z"/>
<path d="M26.189,57.646c0.146,0,0.249,0.123,0.249,0.25c0,0.125-0.104,0.248-0.249,0.248c-0.146,0-0.249-0.121-0.249-0.248
	C25.94,57.768,26.046,57.646,26.189,57.646z"/>
<path d="M26.743,57.081c0.116,0,0.199,0.099,0.199,0.199s-0.083,0.198-0.199,0.198c-0.117,0-0.199-0.097-0.199-0.198
	C26.544,57.177,26.628,57.081,26.743,57.081z"/>
<path d="M27.171,56.566c0.094,0,0.16,0.078,0.16,0.16c0,0.08-0.066,0.158-0.16,0.158c-0.093,0-0.159-0.076-0.159-0.158
	S27.08,56.566,27.171,56.566z"/>
<path d="M27.554,56.051c0.074,0,0.127,0.063,0.127,0.127c0,0.066-0.053,0.129-0.127,0.129c-0.075,0-0.128-0.063-0.128-0.129
	S27.479,56.051,27.554,56.051z"/>
<path d="M17.543,54.627c0.149,0,0.255,0.125,0.255,0.254c0,0.131-0.105,0.256-0.255,0.256c-0.148,0-0.255-0.123-0.255-0.256
	C17.288,54.751,17.396,54.627,17.543,54.627z"/>
<path d="M18.227,54.152c0.135,0,0.229,0.113,0.229,0.229c0,0.117-0.095,0.229-0.229,0.229c-0.134,0-0.229-0.11-0.229-0.229
	C17.997,54.266,18.095,54.152,18.227,54.152z"/>
<path d="M18.904,53.518c0.121,0,0.206,0.103,0.206,0.207c0,0.104-0.085,0.205-0.206,0.205c-0.121,0-0.206-0.1-0.206-0.205
	C18.698,53.618,18.785,53.518,18.904,53.518z"/>
<path d="M19.379,52.807c0.109,0,0.187,0.09,0.187,0.186c0,0.094-0.077,0.185-0.187,0.185c-0.108,0-0.186-0.089-0.186-0.185
	S19.272,52.807,19.379,52.807z"/>
<path d="M19.683,52.081c0.099,0,0.168,0.083,0.168,0.167c0,0.085-0.069,0.168-0.168,0.168c-0.098,0-0.167-0.081-0.167-0.168
	C19.516,52.162,19.587,52.081,19.683,52.081z"/>
<path d="M19.839,51.365c0.089,0,0.151,0.074,0.151,0.15s-0.063,0.15-0.151,0.15s-0.15-0.073-0.15-0.15
	C19.688,51.438,19.753,51.365,19.839,51.365z"/>
<path d="M5.924,57.301c-0.088-0.063-0.097-0.183-0.042-0.259c0.055-0.077,0.172-0.106,0.26-0.042
	c0.089,0.063,0.099,0.182,0.042,0.259C6.127,57.337,6.011,57.363,5.924,57.301z"/>
<path d="M5.474,57.9c-0.08-0.059-0.088-0.164-0.038-0.233C5.486,57.6,5.59,57.572,5.67,57.63c0.078,0.058,0.088,0.164,0.037,0.231
	C5.656,57.934,5.552,57.956,5.474,57.9z"/>
<path d="M4.893,58.405c-0.071-0.052-0.078-0.148-0.033-0.21c0.045-0.063,0.138-0.086,0.211-0.034c0.07,0.053,0.079,0.147,0.033,0.21
	C5.058,58.436,4.963,58.456,4.893,58.405z"/>
<path d="M19.891,50.739c0.079,0,0.136,0.067,0.136,0.136s-0.057,0.136-0.136,0.136c-0.08,0-0.136-0.065-0.136-0.136
	S19.813,50.739,19.891,50.739z"/>
<path d="M19.678,50.065c0.072,0,0.123,0.061,0.123,0.122c0,0.062-0.051,0.122-0.123,0.122c-0.07,0-0.121-0.059-0.121-0.122
	C19.557,50.125,19.608,50.065,19.678,50.065z"/>
<path d="M33.992,59.193c0.147-0.076,0.315-0.008,0.383,0.119c0.067,0.125,0.029,0.305-0.117,0.383
	c-0.147,0.078-0.314,0.011-0.383-0.118S33.849,59.271,33.992,59.193z"/>
<path d="M34.756,58.48c0.132-0.07,0.284-0.01,0.345,0.104c0.061,0.115,0.026,0.273-0.105,0.346c-0.133,0.069-0.283,0.01-0.345-0.105
	C34.589,58.708,34.626,58.548,34.756,58.48z"/>
<path d="M35.139,57.741c0.118-0.063,0.254-0.009,0.31,0.096c0.055,0.103,0.023,0.247-0.096,0.31c-0.119,0.063-0.254,0.01-0.31-0.095
	C34.987,57.945,35.021,57.803,35.139,57.741z"/>
<path d="M35.438,56.861c0.107-0.057,0.229-0.006,0.279,0.086c0.049,0.093,0.021,0.223-0.086,0.279s-0.229,0.008-0.279-0.086
	C35.302,57.046,35.333,56.917,35.438,56.861z"/>
<path d="M35.72,55.979c0.098-0.052,0.207-0.006,0.252,0.076c0.044,0.084,0.02,0.199-0.077,0.252
	c-0.097,0.051-0.207,0.006-0.251-0.078C35.599,56.145,35.626,56.027,35.72,55.979z"/>
<path d="M35.992,55.025c0.087-0.047,0.187-0.006,0.226,0.069c0.04,0.073,0.018,0.181-0.069,0.226
	c-0.087,0.047-0.186,0.008-0.227-0.068C35.883,55.176,35.907,55.07,35.992,55.025z"/>
<path d="M36.103,54.229c0.078-0.041,0.169-0.006,0.203,0.063c0.036,0.066,0.016,0.161-0.062,0.203
	c-0.078,0.042-0.167,0.007-0.203-0.063C36.004,54.363,36.026,54.27,36.103,54.229z"/>
<path d="M36.181,53.302c0.069-0.036,0.15-0.004,0.184,0.058c0.031,0.061,0.014,0.146-0.057,0.183
	c-0.07,0.038-0.15,0.006-0.183-0.056C36.092,53.424,36.111,53.339,36.181,53.302z"/>
<path d="M36.079,52.57c0.063-0.035,0.136-0.006,0.165,0.05c0.028,0.055,0.013,0.131-0.051,0.164
	c-0.063,0.034-0.136,0.005-0.164-0.05C35.999,52.68,36.017,52.604,36.079,52.57z"/>
<path d="M41.788,60.717c0.145-0.082,0.315-0.019,0.386,0.107c0.07,0.125,0.037,0.304-0.107,0.385
	c-0.145,0.082-0.313,0.021-0.386-0.105C41.609,60.977,41.646,60.797,41.788,60.717z"/>
<path d="M42.531,59.98c0.131-0.073,0.284-0.018,0.348,0.098c0.063,0.111,0.033,0.271-0.097,0.347
	c-0.13,0.075-0.282,0.019-0.347-0.097C42.371,60.215,42.404,60.053,42.531,59.98z"/>
<path d="M42.893,59.232c0.118-0.065,0.256-0.016,0.313,0.086c0.057,0.103,0.03,0.246-0.088,0.313
	c-0.116,0.066-0.253,0.017-0.312-0.087S42.778,59.297,42.893,59.232z"/>
<path d="M43.17,58.346c0.105-0.061,0.229-0.014,0.281,0.077c0.052,0.091,0.027,0.224-0.078,0.281
	c-0.105,0.06-0.229,0.015-0.281-0.077C43.04,58.534,43.066,58.402,43.17,58.346z"/>
<path d="M43.428,57.453c0.095-0.055,0.206-0.01,0.253,0.07c0.047,0.082,0.024,0.199-0.07,0.254c-0.096,0.053-0.206,0.014-0.253-0.07
	C43.31,57.624,43.334,57.507,43.428,57.453z"/>
<path d="M43.673,56.494c0.085-0.049,0.187-0.01,0.228,0.063c0.042,0.075,0.022,0.182-0.063,0.229
	c-0.085,0.049-0.185,0.012-0.227-0.063C43.566,56.646,43.589,56.541,43.673,56.494z"/>
<path d="M43.762,55.695c0.077-0.045,0.168-0.01,0.205,0.057c0.038,0.066,0.021,0.162-0.057,0.205
	c-0.077,0.042-0.167,0.011-0.205-0.057C43.667,55.832,43.687,55.738,43.762,55.695z"/>
<path d="M43.814,54.768c0.069-0.039,0.15-0.009,0.185,0.051c0.035,0.061,0.018,0.145-0.051,0.186
	c-0.069,0.039-0.15,0.01-0.186-0.052C43.729,54.891,43.747,54.805,43.814,54.768z"/>
<path d="M43.693,54.036c0.062-0.035,0.136-0.007,0.166,0.046c0.03,0.055,0.016,0.132-0.047,0.167
	c-0.063,0.036-0.135,0.009-0.166-0.046C43.616,54.148,43.632,54.07,43.693,54.036z"/>
<path d="M19.288,49.493c0.064,0,0.109,0.054,0.109,0.11s-0.045,0.11-0.109,0.11s-0.109-0.053-0.109-0.11
	S19.226,49.493,19.288,49.493z"/>
<path d="M18.814,49.096c0.064,0,0.109,0.054,0.109,0.109c0,0.055-0.045,0.109-0.109,0.109s-0.109-0.054-0.109-0.109
	C18.705,49.148,18.751,49.096,18.814,49.096z"/>
<path d="M18.271,48.857c0.058,0,0.098,0.048,0.098,0.099c0,0.05-0.04,0.099-0.098,0.099c-0.059,0-0.099-0.048-0.099-0.099
	C18.173,48.905,18.215,48.857,18.271,48.857z"/>
<path d="M17.702,48.832c0.059,0,0.099,0.049,0.099,0.099c0,0.05-0.04,0.099-0.099,0.099c-0.058,0-0.099-0.049-0.099-0.099
	C17.604,48.88,17.646,48.832,17.702,48.832z"/>
<path d="M17.106,48.863c0.052,0,0.088,0.043,0.088,0.089c0,0.045-0.036,0.088-0.088,0.088c-0.053,0-0.089-0.042-0.089-0.088
	S17.055,48.863,17.106,48.863z"/>
<path d="M16.63,49.036c0.047,0,0.08,0.04,0.08,0.08s-0.033,0.08-0.08,0.08s-0.08-0.038-0.08-0.08S16.584,49.036,16.63,49.036z"/>
<path d="M16.165,49.243c0.042,0,0.072,0.036,0.072,0.073c0,0.036-0.03,0.072-0.072,0.072s-0.071-0.035-0.071-0.072
	C16.094,49.278,16.124,49.243,16.165,49.243z"/>
<path d="M15.736,49.555c0.037,0,0.064,0.032,0.064,0.065c0,0.033-0.027,0.065-0.064,0.065c-0.038,0-0.064-0.032-0.064-0.065
	C15.672,49.586,15.699,49.555,15.736,49.555z"/>
<path d="M8.106,50.189c0,2.417,2.51,7.672,10.311,7.672c4.576,0,5.607-3.191,5.607-4.24s-0.445-1.971-1.304-1.971
	c-0.699,0-0.524,0.557-0.746,0.557c-0.35,0-0.445-0.716,0.523-0.716c1.176,0,1.717,1.018,1.717,2.098
	c0,1.271-1.476,4.957-6.545,4.957c-5.386,0-9.676-4.21-9.676-8.373C7.994,49.745,8.106,49.776,8.106,50.189z"/>
<path d="M15.43,59.213c1.018,0.43,2.686,0.986,4.354,0.986c1.669,0,3.587-0.536,4.878-1.432c0.207-0.143,0.795,0.063,0.334,0.541
	c-0.46,0.478-2.431,1.19-4.528,1.19c-2.097,0-4.02-0.666-5.115-1.19C14.255,58.784,15.43,59.213,15.43,59.213z"/>
<path d="M9.051,55.227c0.839,1.314,4.528,7.244,13.18,7.244s10.82-6.791,10.82-9.08c0-2.621-2.192-4.29-4.695-4.29
	c-1.334,0-2.192,1-2.526,1.573c-0.246,0.422,0,1.023,0.644,0c0.644-1.025,1.501-1.311,2.265-1.311c1.429,0,4.122,1.073,4.122,4.028
	c0,3.289-3.098,8.865-10.652,8.865c-3.766,0-9.176-1.216-13.014-7.102C9.193,55.154,8.885,54.963,9.051,55.227z"/>
<path d="M25.889,49.875c-0.188,0.205-1.334,1.025-1.334,2.563c0,1.252,0.882,0.871,0.882,0.871s-0.502-0.49-0.502-1.418
	c0-0.931,0.822-1.752,0.942-1.86C25.995,49.923,26.032,49.72,25.889,49.875z"/>
<path d="M24.486,52.768c0,0-0.302,0.891,1.61,1.672c0,0-0.096,0.195-0.488,0.174c-0.393-0.023-1.391-0.512-1.183-1.824
	C24.426,52.788,24.483,52.611,24.486,52.768z"/>
<path d="M25.29,54.754c0,0,0.444,0.663,1.157,0.712c0.714,0.05,0.555-0.415,0.555-0.415s-0.619,0.316-1.661-0.33
	C25.341,54.721,25.215,54.629,25.29,54.754z"/>
<path d="M26.813,55.57c0,0,0.708,0.136,1.12-0.289c0,0,0.395,0.299-0.27,0.436C27.19,55.813,26.813,55.57,26.813,55.57z"/>
<path d="M28.319,55.666c0,0,0.513-0.189,0.561-0.393c0.048-0.203,0.407,0.123,0.048,0.285C28.343,55.82,28.319,55.666,28.319,55.666
	z"/>
<path d="M29.38,55.154c0,0,0.084-0.071,0.061-0.321c-0.024-0.252,0.237,0.13,0.118,0.332C29.44,55.368,29.32,55.273,29.38,55.154z"
	/>
<path d="M30.166,50.209c1.49,0,2.455,1.716,2.539,2.063l-0.084-0.311c0,0-0.846-2.252-2.919-2.252c-0.382,0-1.097,0.047-1.502,0.524
	c-0.405,0.477-0.048,0.929,0.501,0.406C29.249,50.113,30.166,50.209,30.166,50.209z"/>
<path d="M32.038,52.223c0.99,1.112,0.619,3.129,0.417,3.42l0.121-0.354c0,0,0.677-2.171-0.503-3.66
	c-0.236-0.299-0.691-0.798-1.361-0.856c-0.623-0.055-0.726,0.582,0.03,0.645C31.498,51.475,32.038,52.223,32.038,52.223z"/>
<path d="M32.132,53.391c0.721,0.948,0.298,2.533,0.118,2.754l0.12-0.276c0,0,0.675-1.688-0.173-2.949
	c-0.17-0.254-0.501-0.68-1.031-0.771c-0.494-0.08-0.616,0.42-0.017,0.516C31.749,52.761,32.132,53.391,32.132,53.391z"/>
<path d="M32.09,55.23c0.271,0.603-0.329,2.096-0.517,2.223l0.178-0.238c0,0,0.857-1.17,0.498-2.331
	c-0.072-0.233-0.228-0.637-0.614-0.825c-0.359-0.177-0.568,0.181-0.131,0.391S32.09,55.23,32.09,55.23z"/>
<path d="M31.536,57.068c0.049,0.337-0.387,1.222-0.559,1.279l0.56-0.799c0,0,0.238-0.299,0.196-0.715
	c-0.02-0.193-0.039-0.539-0.295-0.768c-0.239-0.213-0.478,0.016-0.186,0.272C31.544,56.598,31.536,57.068,31.536,57.068z"/>
<path d="M30.54,58.855c0.067-0.142,0.16-0.416,0.079-0.68c-0.075-0.244-0.286-0.197-0.24,0.11c0.098,0.647-0.419,1.173-0.419,1.173
	L30.54,58.855z"/>
<path d="M29.134,60.141c0.072-0.102,0.181-0.307,0.151-0.524c-0.025-0.203-0.199-0.193-0.202,0.056
	c-0.01,0.523-0.485,0.871-0.485,0.871L29.134,60.141z"/>
<path d="M27.863,60.953c0.069-0.071,0.183-0.221,0.188-0.396c0.005-0.164-0.133-0.179-0.168,0.019
	c-0.074,0.413-0.495,0.624-0.495,0.624L27.863,60.953z"/>
<path d="M26.567,61.52c0.055-0.043,0.146-0.136,0.165-0.258c0.018-0.113-0.077-0.136-0.119-0.003
	c-0.087,0.281-0.397,0.392-0.397,0.392L26.567,61.52z"/>
<path d="M23.391,63.122c0.611,0,5.856,0.761,10.01-3.162c0.285-0.271,0.683,0.063,0.317,0.556c-0.365,0.493-4.73,3.641-10.312,2.78
	C23.199,63.266,23.231,63.122,23.391,63.122z"/>
<path d="M17.433,62.693c1.87,0.83,4.671,2.064,9.024,2.064c7.753,0,17.255-5.053,14.871-12.232c0,0,0.508,0.697,0.508,2.572
	c0,4.101-5.751,10.295-14.584,10.295c-3.688,0-7.976-1.48-9.883-2.541C17.083,62.693,17.146,62.566,17.433,62.693z"/>
<path d="M33.543,65.553c1.349-0.225,4.94-1.365,7.626-4.162c0.266-0.275,0.731-0.031,0.191,0.637
	c-0.54,0.666-3.787,3.08-7.722,3.686C33.226,65.775,33.162,65.616,33.543,65.553z"/>
<path d="M36.148,44.167c0,0-2.55-1.43-5.576-1.764c0,0,3.646,0.93,5.886,2.098L36.148,44.167z"/>
<path d="M37.65,45.633l-0.263-0.298c0,0-6.387-2.67-12.321-2.718C25.066,42.618,31.453,43.143,37.65,45.633z"/>
<path d="M38.438,46.741l-0.239-0.333c0,0-13.728-4.267-21.926-3.575C16.272,42.833,24.828,42.571,38.438,46.741z"/>
<path d="M39.897,48.012l-0.443-0.413c-3.639-1.239-12.838-3.273-21.704-3.273c-9.914,0-14.3-0.317-17.572-2.065
	c0,0,0.985,2.319,17.604,2.319C25.091,44.58,35.926,46.646,39.897,48.012z"/>
<path d="M40.884,48.902l-0.286-0.348c0,0-8.294-2.606-17.954-2.606c-3.241,0-8.293,0.889-11.026,0.476c0,0-0.058,0.477,4.734,0.127
	C21.15,46.201,28.046,45.502,40.884,48.902z"/>
<path d="M42.186,49.888L42.186,49.888l-0.19-0.287c-4.194-1.176-7.403-2.033-11.948-2.033c-4.544,0-7.816,0.54-9.723,0.317
	c0,0,4.448,0.127,9.723-0.063C35.322,47.63,42.186,49.888,42.186,49.888z"/>
<path d="M43.075,50.713l-0.222-0.254c0,0-4.354-2.128-14.871-1.652C27.982,48.806,38.532,48.839,43.075,50.713z"/>
<path d="M43.934,51.443l-0.254-0.254c0,0-4.639-1.622-10.327-1.144C33.353,50.046,39.675,49.951,43.934,51.443z"/>
<path d="M44.602,52.175l-0.223-0.223c0,0-3.019-1.304-7.595-0.953C36.784,50.999,41.328,50.968,44.602,52.175z"/>
<path d="M45.301,52.874l-0.318-0.286c0,0-2.605-0.891-4.64-0.316C40.343,52.271,42.854,51.984,45.301,52.874z"/>
<path d="M11.482,41.307c0,0-2.275,2.151-3.385,1.478c-0.379-0.23-0.125-0.41,0.257-0.268c0.381,0.144,0.923,0.34,2.967-1.21
	C12.013,40.783,11.673,41.165,11.482,41.307z"/>
<path d="M8.678,44.739c0,0-1.364,3.192-3.543,3.099c-1.112-0.048-1.239-1.255-0.111-0.461s2.745-1.125,3.611-2.59
	C8.737,44.612,8.678,44.739,8.678,44.739z"/>
<path d="M7.656,47.313c0,0-0.551,1.535-1.298,1.441c-0.381-0.047-0.298-0.357,0.06-0.298C6.774,48.517,7.228,48.195,7.656,47.313z"
	/>
<path d="M7.515,48.362c-0.238,0.655-0.97,6.006-2.991,5.863c-0.501-0.037-0.906,0.166-0.144,0.32
	c0.762,0.154,1.905-0.538,2.538-3.039c0.453-1.787,0.488-2.048,0.488-2.048L7.515,48.362z"/>
<path d="M7.695,54.089c0.063,0.695,1.761,5.927-0.247,7.601c-0.386,0.32-0.75,0.535,0.007,0.354c0.756-0.184,1.518-2.316,1.033-4.85
	c-0.347-1.813-0.426-2.063-0.426-2.063L7.695,54.089z"/>
<path d="M27.845,70.22c0.619,0.319,5.951,1.675,6.295,4.267c0.066,0.496,0.052,0.918,0.301,0.182c0.25-0.736-1.15-2.52-3.55-3.461
	c-1.717-0.675-1.973-0.742-1.973-0.742L27.845,70.22z"/>
<path d="M34.478,71.218c0.664,0.216,6.144,0.698,6.897,3.201c0.146,0.479,0.199,0.899,0.327,0.132
	c0.128-0.767-1.539-2.303-4.059-2.849c-1.803-0.39-2.065-0.416-2.065-0.416L34.478,71.218z"/>
<path d="M7.471,51.65c0,0-0.276,3.125-1.352,4.847c-0.158,0.254,0.239,0.524,0.413,0.144c0.176-0.382,0.891-2.86,1.002-4.561
	L7.471,51.65z"/>
<path d="M10.623,62.975c-0.108-0.007-0.179-0.104-0.173-0.197c0.007-0.094,0.09-0.18,0.198-0.174c0.109,0.01,0.18,0.104,0.173,0.198
	C10.813,62.896,10.729,62.98,10.623,62.975z"/>
<path d="M10.559,63.723c-0.099-0.007-0.161-0.095-0.155-0.179c0.006-0.084,0.08-0.162,0.178-0.155
	c0.099,0.008,0.161,0.092,0.155,0.178C10.731,63.652,10.654,63.729,10.559,63.723z"/>
<path d="M10.333,64.458c-0.088-0.006-0.145-0.085-0.14-0.16c0.006-0.077,0.072-0.146,0.16-0.142c0.088,0.007,0.146,0.084,0.14,0.16
	C10.488,64.396,10.42,64.463,10.333,64.458z"/>
<path d="M16.843,69.154c-0.102-0.039-0.14-0.153-0.105-0.241c0.033-0.087,0.139-0.146,0.24-0.104c0.101,0.039,0.14,0.15,0.105,0.24
	S16.941,69.193,16.843,69.154z"/>
<path d="M16.931,69.932c-0.092-0.035-0.126-0.138-0.096-0.217c0.031-0.079,0.126-0.131,0.217-0.095
	c0.092,0.035,0.127,0.136,0.096,0.216C17.117,69.916,17.02,69.967,16.931,69.932z"/>
<path d="M16.864,70.636c-0.082-0.032-0.113-0.124-0.086-0.194c0.028-0.07,0.112-0.117,0.195-0.086
	c0.082,0.031,0.113,0.123,0.085,0.194C17.031,70.622,16.944,70.667,16.864,70.636z"/>
<path d="M8.942,57.363c0,0,1.421,2.797,1.421,4.824c0,0.301,0.48,0.318,0.426-0.098c-0.054-0.416-0.76-2.896-1.566-4.396
	L8.942,57.363z"/>
<path d="M9.566,39.309c0.083,0.154,0.272,0.191,0.405,0.119c0.133-0.072,0.204-0.251,0.12-0.405
	c-0.085-0.154-0.271-0.194-0.406-0.12C9.55,38.977,9.483,39.158,9.566,39.309z"/>
<path d="M8.517,39.907c0.075,0.138,0.245,0.173,0.365,0.107c0.119-0.065,0.183-0.226,0.107-0.365
	c-0.076-0.139-0.244-0.174-0.365-0.107C8.501,39.608,8.442,39.771,8.517,39.907z"/>
<path d="M7.592,40.73c0.067,0.125,0.221,0.156,0.328,0.097c0.108-0.059,0.165-0.204,0.098-0.328
	c-0.068-0.125-0.219-0.158-0.329-0.097C7.579,40.462,7.524,40.609,7.592,40.73z"/>
<path d="M18.907,37.99c0,0-5.05-0.196-8.017,1.17c-0.438,0.202-0.789-0.488-0.145-0.69c0.646-0.201,4.751-0.837,7.489-0.669
	L18.907,37.99z"/>
<path d="M90.762,61.001c-0.084-0.153-0.271-0.192-0.404-0.119c-0.135,0.071-0.203,0.251-0.119,0.404
	c0.082,0.155,0.27,0.194,0.404,0.121C90.777,61.333,90.844,61.15,90.762,61.001z"/>
<path d="M91.813,60.402c-0.076-0.139-0.246-0.174-0.365-0.106c-0.12,0.065-0.184,0.226-0.107,0.365
	c0.076,0.138,0.243,0.173,0.364,0.106C91.826,60.702,91.887,60.538,91.813,60.402z"/>
<path d="M92.736,59.578c-0.068-0.124-0.221-0.155-0.328-0.098c-0.108,0.06-0.166,0.205-0.098,0.328
	c0.067,0.125,0.219,0.157,0.328,0.099C92.749,59.848,92.803,59.701,92.736,59.578z"/>
<path d="M81.419,62.318c0,0,5.052,0.197,8.019-1.17c0.438-0.201,0.789,0.487,0.145,0.689c-0.646,0.201-4.75,0.839-7.488,0.669
	L81.419,62.318z"/>
<path d="M11.108,60.246c1.271,1.748,3.448,4.434,3.433,7.404c-0.016,2.858-1.335,3.336-1.938,3.526
	c-0.604,0.19-0.604-0.286,0.095-0.477c0.699-0.191,1.535-0.795,1.59-3.052c0.063-2.686-1.557-4.885-3.273-7.309
	C10.744,59.96,10.818,59.848,11.108,60.246z"/>
<path d="M14.366,64.377c0.389,0.723,2.049,2.57,2.288,4.005c0.047,0.285,0.429,0.261,0.333-0.127
	c-0.133-0.543-0.619-1.78-2.495-3.973C14.397,64.171,14.255,64.171,14.366,64.377z"/>
<path d="M22.573,71.171c-0.108-0.007-0.18-0.104-0.173-0.196c0.006-0.095,0.089-0.182,0.197-0.174
	c0.109,0.008,0.179,0.102,0.173,0.198C22.765,71.094,22.68,71.18,22.573,71.171z"/>
<path d="M22.89,71.886c-0.097-0.007-0.161-0.094-0.155-0.178c0.006-0.085,0.08-0.162,0.178-0.155
	c0.099,0.008,0.162,0.092,0.156,0.178C23.063,71.816,22.986,71.893,22.89,71.886z"/>
<path d="M23.038,72.578c-0.088-0.008-0.146-0.084-0.14-0.161c0.005-0.076,0.071-0.146,0.159-0.14
	c0.089,0.007,0.146,0.082,0.141,0.16C23.192,72.516,23.125,72.584,23.038,72.578z"/>
<path d="M18.778,67.357c0.588,0.572,2.726,1.838,3.383,3.132c0.132,0.259,0.488,0.122,0.28-0.22
	c-0.288-0.479-0.735-1.149-3.57-3.043C18.749,67.146,18.61,67.191,18.778,67.357z"/>
<path d="M29.24,72.311c-0.077,0.008-0.138-0.052-0.145-0.117c-0.007-0.065,0.04-0.135,0.116-0.144
	c0.077-0.009,0.137,0.048,0.145,0.116C29.363,72.232,29.314,72.302,29.24,72.311z"/>
<path d="M29.546,72.768c-0.068,0.008-0.123-0.047-0.129-0.104c-0.007-0.06,0.036-0.122,0.104-0.129
	c0.068-0.009,0.123,0.045,0.13,0.104C29.657,72.698,29.614,72.76,29.546,72.768z"/>
<path d="M29.732,73.229c-0.062,0.008-0.111-0.041-0.116-0.094c-0.006-0.054,0.032-0.109,0.095-0.115
	c0.062-0.009,0.11,0.039,0.116,0.094C29.833,73.168,29.793,73.223,29.732,73.229z"/>
<path d="M26.146,70.124c0.476,0.325,2.112,0.944,2.726,1.763c0.122,0.163,0.353,0.025,0.167-0.188
	c-0.259-0.297-0.648-0.707-2.845-1.678C26.101,69.98,26.01,70.03,26.146,70.124z"/>
<path d="M15.009,64.329c1.102,1.101,5.792,5.601,5.792,9.176c0,1.12-0.31,1.716-0.93,2.097c-0.619,0.383,0.048,0.621,0.357,0.191
	c0.311-0.429,0.763-0.787,0.763-2.454c0-1.669-1.083-4.254-5.887-9.057C14.938,64.114,14.818,64.139,15.009,64.329z"/>
<path d="M20.229,67.586c1.36,0.757,6.114,2.952,7.579,6.214c0.35,0.777,0.234,1.464-0.256,2.001
	c-0.491,0.536,0.216,0.583,0.396,0.085c0.179-0.497,0.494-1.069-0.003-2.3c-0.627-1.546-2.601-3.632-7.639-6.07
	C20.095,67.412,19.993,67.456,20.229,67.586z"/>
<path d="M47.692,71.917c1.555-0.06,6.758-0.647,9.701,1.382c0.703,0.484,0.961,1.131,0.819,1.846
	c-0.142,0.713,0.487,0.386,0.384-0.134c-0.104-0.52-0.132-1.172-1.195-1.965c-1.338-0.998-4.107-1.757-9.679-1.231
	C47.487,71.837,47.423,71.927,47.692,71.917z"/>
<path d="M24.947,68.095c0,0,3.193,1.335,10.105,1.335c11.392,0,20.544-5.957,33.794-5.957c13.252,0,15.682,8.389,15.682,10.725
	c0,0.904-0.571,1.144-0.571-0.19c0-1.335-1.097-10.296-15.108-10.296c-14.015,0-21.116,5.958-33.794,5.958
	c-8.104,0-10.105-1.431-10.105-1.431v-0.144H24.947z"/>
<path d="M40.784,69.251c0,0,0.75,0.047,0.739,0.333c-0.012,0.287-0.548-0.333-1.216-0.273L40.784,69.251z"/>
<path d="M40.186,69.329c0,0,0.6,0.039,0.591,0.269c-0.009,0.229-0.438-0.269-0.973-0.22L40.186,69.329z"/>
<path d="M49.502,69.878c0,0,0.752,0.048,0.739,0.335c-0.012,0.286-0.548-0.335-1.215-0.273L49.502,69.878z"/>
<path d="M48.903,69.957c0,0,0.602,0.038,0.592,0.268c-0.01,0.23-0.438-0.268-0.973-0.221L48.903,69.957z"/>
<path d="M47.569,67.797c0,0,0.938-0.047,0.965,0.309c0.026,0.357-0.729-0.336-1.548-0.166L47.569,67.797z"/>
<path d="M46.837,67.979c0,0,0.751-0.037,0.772,0.248c0.02,0.285-0.583-0.27-1.239-0.135L46.837,67.979z"/>
<path d="M54.568,65.885c0,0,1.176-0.06,1.207,0.387c0.033,0.447-0.909-0.42-1.937-0.209L54.568,65.885z"/>
<path d="M53.652,66.113c0,0,0.94-0.047,0.967,0.31c0.025,0.356-0.729-0.337-1.549-0.168L53.652,66.113z"/>
<path d="M57.086,68.396c0,0,1.171,0.102,1.143,0.547c-0.028,0.447-0.846-0.539-1.891-0.471L57.086,68.396z"/>
<path d="M56.146,68.499c0,0,0.938,0.081,0.914,0.438c-0.022,0.356-0.677-0.433-1.512-0.377L56.146,68.499z"/>
<path d="M75.172,64.467c0,0,2.118,1.107,2.277,2.602c0.093,0.867-1.729-2.467-3.717-2.944L75.172,64.467z"/>
<path d="M73.2,64.027c0,0,1.87,0.822,1.62,1.474s-1.008-1.199-2.598-1.581L73.2,64.027z"/>
<path d="M65.491,63.828c0,0,1.829,0.165,1.782,0.861c-0.049,0.697-1.316-0.85-2.949-0.748L65.491,63.828z"/>
<path d="M64.023,63.98c0,0,1.465,0.131,1.426,0.689c-0.037,0.557-1.053-0.681-2.358-0.6L64.023,63.98z"/>
<path d="M66.501,69.018c0,0,1.667,0.772,1.388,1.414c-0.281,0.639-0.953-1.244-2.525-1.699L66.501,69.018z"/>
<path d="M65.068,68.667c0,0,1.334,0.618,1.108,1.13c-0.224,0.514-0.761-0.995-2.018-1.359L65.068,68.667z"/>
<path d="M35.353,69.662c0,0,0.591,0.115,0.552,0.341c-0.039,0.226-0.401-0.321-0.937-0.342L35.353,69.662z"/>
<path d="M34.869,69.663c0,0,0.473,0.092,0.441,0.272c-0.032,0.18-0.32-0.258-0.748-0.274L34.869,69.663z"/>
<path d="M83.003,70.415c0,0,0.504,1.051,0.413,2.146c-0.063,0.763-0.62,1.317-0.43-0.031c0.19-1.352-0.127-2.146-0.444-2.908
	L83.003,70.415z"/>
<path d="M74.811,62.896c13.463-0.467,15.683,8.271,15.683,10.604c0,0.906-0.571,1.146-0.571-0.19
	C89.922,71.977,88.824,62.896,74.811,62.896z"/>
<path d="M88.967,69.721c0,0,0.504,1.051,0.413,2.146c-0.063,0.764-0.618,1.319-0.429-0.031s-0.127-2.146-0.445-2.907L88.967,69.721z
	"/>
<path d="M73.786,73.123c0,0,0.778,0.867,1.001,1.941c0.154,0.75-0.223,1.439-0.42,0.091c-0.198-1.349-0.729-2.021-1.247-2.664
	L73.786,73.123z"/>
<path d="M36.959,70.764c0,0,0.857,0.287,5.053,0.287c4.194,0,12.392-2.906,18.683-2.906s14.634,3.573,14.634,8.77
	c0,0.715,0.573,0.857,0.573-0.189c0-2.336-4.909-8.817-15.157-8.817c-6.007,0-14.395,3.003-18.732,3.003
	c-2.304,0-4.798-0.225-4.798-0.225C36.832,70.613,36.808,70.701,36.959,70.764z"/>
<path d="M45.396,63.807c0.701-0.313,3.654-2.543,5.386-6.214l-0.206-0.222c0,0-2.027,4.122-5.243,6.212
	C45.015,63.789,45.253,63.869,45.396,63.807z"/>
<path d="M42.027,66.775c1.45-0.526,5.942-2.08,11.313-7.229l0.253,0.189c-3.701,3.48-7.896,6.439-11.52,7.246
	C41.789,67.047,41.853,66.84,42.027,66.775z"/>
<path d="M52.734,63.773c0.574-0.287,4.084-2.099,4.084-2.099l-0.428-0.253c0,0-3.338,1.873-3.703,2.049S52.545,63.869,52.734,63.773
	z"/>
<path d="M35.991,36.504c15.325,1.025,20.711,25.048,41.825,25.048c23.355,0,17.637-29.028-7.77-29.028
	c-12.822,0-17.255,6.149-17.255,11.249c0,1.764,1.062,3.003,1.571,3.003c0.205,0,0.3-0.155,0.3-0.322
	c0-0.548-1.646-0.178-1.646-2.968c0-2.526,1.823-10.772,17.028-10.772c24.978,0,31.029,28.647,7.771,28.647
	C58.895,61.361,52.412,36.862,35.991,36.504z"/>
<path d="M53.127,42.296c-0.07,0.834-0.004,2.261,0.786,3.002c0.382,0.358,0.571-0.262,0.167-0.5
	c-0.405-0.238-1.023-1.263-0.833-2.931L53.127,42.296z"/>
<path d="M53.563,40.68c-0.221,0.808-0.412,2.224,0.232,3.095c0.313,0.421,0.609-0.154,0.255-0.462
	c-0.356-0.307-0.78-1.427-0.293-3.033L53.563,40.68z"/>
<path d="M54.119,39.442c-0.282,0.654-0.614,1.822-0.178,2.634c0.211,0.39,0.531-0.058,0.27-0.358
	c-0.262-0.303-0.484-1.295,0.12-2.588L54.119,39.442z"/>
<path d="M54.796,38.368c-0.288,0.532-0.653,1.498-0.344,2.217c0.149,0.347,0.455-0.009,0.255-0.284
	c-0.2-0.275-0.314-1.132,0.291-2.183L54.796,38.368z"/>
<path d="M56.26,36.73c-0.396,0.458-0.96,1.323-0.811,2.092c0.072,0.371,0.445,0.088,0.31-0.223c-0.137-0.31-0.065-1.172,0.753-2.069
	L56.26,36.73z"/>
<path d="M57.275,35.918c-0.381,0.344-0.949,1.014-0.905,1.677c0.021,0.32,0.366,0.123,0.284-0.154
	c-0.081-0.277,0.07-0.997,0.855-1.665L57.275,35.918z"/>
<path d="M58.38,35.208c-0.34,0.275-0.854,0.816-0.847,1.381c0.003,0.272,0.306,0.121,0.249-0.118
	c-0.058-0.24,0.104-0.843,0.802-1.375L58.38,35.208z"/>
<path d="M59.234,34.763c-0.309,0.209-0.779,0.633-0.813,1.113c-0.017,0.231,0.251,0.123,0.22-0.083s0.146-0.707,0.773-1.109
	L59.234,34.763z"/>
<path d="M60.33,34.327c-0.294,0.116-0.766,0.377-0.883,0.769c-0.059,0.188,0.185,0.148,0.197-0.027
	c0.013-0.177,0.254-0.558,0.851-0.773L60.33,34.327z"/>
<path d="M61.129,33.981c-0.24,0.118-0.622,0.373-0.695,0.711c-0.035,0.165,0.166,0.114,0.166-0.036
	c-0.002-0.151,0.178-0.491,0.666-0.713L61.129,33.981z"/>
<path d="M62.018,33.688c-0.256,0.083-0.668,0.281-0.787,0.607c-0.06,0.158,0.148,0.136,0.168-0.013
	c0.02-0.149,0.244-0.461,0.761-0.612L62.018,33.688z"/>
<path d="M72.217,59.741c0.79,0.274,2.192,0.786,4.672,0.786c8.246,0,10.344-8.223,6.053-8.223c0,0-0.5-0.07-0.715,0.285
	c0,0-0.047-0.309,0.311-0.355c0,0-1.098-0.072-1.453,0.715c0,0-0.215-0.215,0.096-0.479c0,0-0.453,0.057-1.002,0.834
	c-0.285,0.405-0.644-0.189,0.023-0.619c0.668-0.43,1.169-0.645,2.025-0.645c5.91,0,2.787,8.863-5.388,8.7
	c-2.382-0.048-3.503-0.405-4.741-0.953C71.34,59.453,71.669,59.551,72.217,59.741z"/>
<path d="M81.232,61.107c0,0,2.634-0.568,3.781-2.002c0.607-0.761,0.512-0.151,0.072,0.313
	C84.479,60.063,82.576,61.104,81.232,61.107z"/>
<path d="M83.764,60.62c0,0,2.074-0.476,3.781-3.327c0.499-0.833,0.479-0.232,0.121,0.299C87.172,58.326,86.314,59.979,83.764,60.62z
	"/>
<path d="M88.002,58.184c0,0,1.35-1.498,1.145-3.638c-0.031-0.334,0.205-0.397,0.254,0.302
	C89.447,55.547,89.034,57.277,88.002,58.184z"/>
<path d="M89.702,56.038c0,0,1.756-4.006-1.399-5.75c-0.746-0.414-0.349-0.811,0.445-0.111
	C89.544,50.875,91.291,52.448,89.702,56.038z"/>
<path d="M90.782,54.48c0,0,0.491-0.856,0.491-2.049c0-3.083-2.461-6.166-6.148-6.166c-1.969,0-2.922,1.393-3.033,1.987
	c-0.111,0.587,0.313,0.448,0.412,0.063c0.096-0.366,0.539-1.875,2.605-1.875c2.574,0,6.021,2.272,6.021,6.069
	c0,1.191-0.429,1.985-0.429,1.985S90.607,54.784,90.782,54.48z"/>
<path d="M83.029,47.729c0.094-0.375,0.842-1.239,2.176-1.271c0,0-1.385,0.18-1.779,1.288C83.268,48.19,82.949,48.047,83.029,47.729z
	"/>
<path d="M85.729,46.474c0,0-0.748-0.019-1.207,0.397c-0.174,0.158,0.063,0.35,0.334,0.111c0.27-0.238,0.539-0.461,0.906-0.461"/>
<path d="M86.404,46.618c0,0-0.354-0.134-0.762,0.064c-0.244,0.118-0.151,0.313,0.11,0.166C86.007,46.705,86.18,46.645,86.404,46.618
	z"/>
<path d="M90.997,48.42c-0.575-0.958-1.765-3.551-6.507-3.551c-0.357,0-0.5-0.429,0.07-0.429c0.573,0,4.268-0.167,6.508,3.933
	C91.068,48.373,91.068,48.54,90.997,48.42z"/>
<path d="M91.163,48.588v0.158l-0.127-0.063c0,0,0,0.254,0.159,0.207C91.354,48.841,91.163,48.588,91.163,48.588z"/>
<path d="M91.289,49.088l-0.016,0.135l-0.101-0.066c0,0-0.024,0.214,0.113,0.189C91.427,49.321,91.289,49.088,91.289,49.088z"/>
<path d="M91.407,49.63l-0.021,0.109l-0.078-0.063c0,0-0.037,0.175,0.08,0.165C91.504,49.832,91.407,49.63,91.407,49.63z"/>
<path d="M91.473,50.087l-0.021,0.094l-0.065-0.053c0,0-0.031,0.149,0.067,0.141C91.555,50.261,91.473,50.087,91.473,50.087z"/>
<path d="M85.262,40.937l0.12,0.104l-0.131,0.055c0,0,0.192,0.167,0.261,0.014C85.578,40.957,85.262,40.937,85.262,40.937z"/>
<path d="M85.725,41.167l0.092,0.098L85.7,41.3c0,0,0.147,0.158,0.219,0.036C85.988,41.214,85.725,41.167,85.725,41.167z"/>
<path d="M86.212,41.429l0.069,0.088l-0.098,0.02c0,0,0.107,0.14,0.176,0.046C86.427,41.489,86.212,41.429,86.212,41.429z"/>
<path d="M86.602,41.679l0.06,0.075l-0.084,0.017c0,0,0.093,0.121,0.151,0.039C86.785,41.729,86.602,41.679,86.602,41.679z"/>
<path d="M76.984,36.758l0.199,0.065l-0.133,0.133c0,0,0.319,0.105,0.325-0.115C77.382,36.624,76.984,36.758,76.984,36.758z"/>
<path d="M77.666,36.807l0.162,0.073l-0.124,0.101c0,0,0.261,0.118,0.286-0.067C78.016,36.73,77.666,36.807,77.666,36.807z"/>
<path d="M78.396,36.88l0.129,0.073l-0.109,0.073c0,0,0.203,0.117,0.238-0.032C78.688,36.844,78.396,36.88,78.396,36.88z"/>
<path d="M78.998,36.988l0.107,0.063l-0.094,0.063c0,0,0.176,0.099,0.205-0.029C79.247,36.957,78.998,36.988,78.998,36.988z"/>
<path d="M82.93,37.24l0.213,0.179l-0.229,0.1c0,0,0.34,0.286,0.456,0.02C83.484,37.271,82.93,37.24,82.93,37.24z"/>
<path d="M83.742,37.637l0.162,0.171l-0.201,0.062c0,0,0.261,0.273,0.383,0.06C84.208,37.714,83.742,37.637,83.742,37.637z"/>
<path d="M84.602,38.088l0.119,0.154l-0.17,0.035c0,0,0.192,0.244,0.311,0.078C84.977,38.188,84.602,38.088,84.602,38.088z"/>
<path d="M85.285,38.518l0.104,0.132l-0.146,0.03c0,0,0.166,0.209,0.266,0.066C85.607,38.604,85.285,38.518,85.285,38.518z"/>
<path d="M71.702,33.631l0.212,0.069l-0.143,0.142c0,0,0.34,0.112,0.346-0.121C72.124,33.49,71.702,33.631,71.702,33.631z"/>
<path d="M72.424,33.685l0.172,0.079l-0.132,0.106c0,0,0.274,0.126,0.304-0.07C72.794,33.604,72.424,33.685,72.424,33.685z"/>
<path d="M73.195,33.765l0.136,0.078l-0.116,0.077c0,0,0.217,0.125,0.253-0.034C73.506,33.728,73.195,33.765,73.195,33.765z"/>
<path d="M73.832,33.881l0.116,0.066l-0.101,0.066c0,0,0.185,0.106,0.217-0.028C74.098,33.849,73.832,33.881,73.832,33.881z"/>
<path d="M67.115,34.107l0.388,0.028l-0.178,0.299c0,0,0.618,0.045,0.532-0.351C67.77,33.687,67.115,34.107,67.115,34.107z"/>
<path d="M68.359,33.889l0.326,0.06l-0.179,0.236c0,0,0.521,0.095,0.481-0.248C68.953,33.595,68.359,33.889,68.359,33.889z"/>
<path d="M69.704,33.696l0.263,0.075l-0.164,0.18c0,0,0.42,0.119,0.414-0.166C70.213,33.501,69.704,33.696,69.704,33.696z"/>
<path d="M70.833,33.622l0.224,0.064l-0.141,0.154c0,0,0.359,0.102,0.355-0.142C71.268,33.454,70.833,33.622,70.833,33.622z"/>
<path d="M64.083,31.422l0.258,0.148l-0.155,0.214c0,0,0.469,0.076,0.428-0.229C64.572,31.248,64.083,31.422,64.083,31.422z"/>
<path d="M65.139,31.369l0.204,0.13l-0.149,0.167c0,0,0.387,0.107,0.382-0.155C65.568,31.249,65.139,31.369,65.139,31.369z"/>
<path d="M66.092,31.321l0.192,0.134l-0.138,0.126c0,0,0.312,0.118,0.326-0.098C66.486,31.268,66.092,31.321,66.092,31.321z"/>
<path d="M67.021,31.356l0.166,0.111l-0.117,0.108c0,0,0.265,0.101,0.277-0.084C67.361,31.307,67.021,31.356,67.021,31.356z"/>
<path d="M67.866,31.371l0.167,0.111l-0.117,0.108c0,0,0.266,0.101,0.279-0.084C68.208,31.321,67.866,31.371,67.866,31.371z"/>
<path d="M58.299,32.798l0.338,0.093l-0.171,0.431c0,0,0.826-0.071,0.627-0.574C58.895,32.247,58.299,32.798,58.299,32.798z"/>
<path d="M59.788,32.274l0.364,0.124l-0.185,0.347c0,0,0.704,0.017,0.582-0.426C60.43,31.877,59.788,32.274,59.788,32.274z"/>
<path d="M61.443,31.929l0.295,0.115l-0.178,0.271c0,0,0.574,0.068,0.51-0.304C62.006,31.637,61.443,31.929,61.443,31.929z"/>
<path d="M62.874,31.595l0.313,0.128l-0.152,0.232c0,0,0.494,0.059,0.438-0.261C63.416,31.375,62.874,31.595,62.874,31.595z"/>
<path d="M52.729,33.261l0.285,0.079l-0.096,0.247c0,0,0.471-0.044,0.355-0.33C53.157,32.97,52.729,33.261,52.729,33.261z"/>
<path d="M53.734,32.945l0.23,0.074l-0.104,0.201c0,0,0.402,0.007,0.33-0.246C54.12,32.721,53.734,32.945,53.734,32.945z"/>
<path d="M54.646,32.66l0.22,0.082l-0.101,0.156c0,0,0.328,0.036,0.291-0.176C55.018,32.508,54.646,32.66,54.646,32.66z"/>
<path d="M55.555,32.46l0.188,0.066l-0.086,0.134c0,0,0.282,0.031,0.25-0.151C55.872,32.326,55.555,32.46,55.555,32.46z"/>
<path d="M56.377,32.262l0.188,0.065l-0.086,0.133c0,0,0.283,0.031,0.248-0.15C56.695,32.128,56.377,32.262,56.377,32.262z"/>
<path d="M47.473,36.045l0.353,0.006l-0.058,0.459c0,0,0.78-0.276,0.463-0.711C47.911,35.362,47.473,36.045,47.473,36.045z"/>
<path d="M48.783,35.165l0.385,0.029l-0.09,0.383c0,0,0.685-0.161,0.456-0.559C49.305,34.619,48.783,35.165,48.783,35.165z"/>
<path d="M50.3,34.415l0.313,0.037l-0.104,0.307c0,0,0.572-0.079,0.416-0.423C50.77,33.992,50.3,34.415,50.3,34.415z"/>
<path d="M51.602,33.733l0.334,0.045l-0.09,0.263c0,0,0.492-0.067,0.358-0.362C52.068,33.384,51.602,33.733,51.602,33.733z"/>
<path d="M48.237,41.326l0.283-0.087l0.053,0.259c0,0,0.373-0.291,0.121-0.47C48.442,40.849,48.237,41.326,48.237,41.326z"/>
<path d="M48.915,40.517l0.235-0.061l0.02,0.224c0,0,0.343-0.21,0.146-0.385C49.12,40.121,48.915,40.517,48.915,40.517z"/>
<path d="M49.528,39.786l0.229-0.049l-0.001,0.185c0,0,0.298-0.147,0.149-0.305C49.76,39.458,49.528,39.786,49.528,39.786z"/>
<path d="M50.187,39.128l0.194-0.046l-0.001,0.159c0,0,0.255-0.126,0.128-0.261C50.382,38.844,50.187,39.128,50.187,39.128z"/>
<path d="M50.771,38.518l0.194-0.046l-0.001,0.16c0,0,0.256-0.126,0.129-0.262C50.969,38.233,50.771,38.518,50.771,38.518z"/>
<path d="M50.709,42.057l0.271-0.12l0.08,0.252c0,0,0.338-0.331,0.067-0.48C50.859,41.56,50.709,42.057,50.709,42.057z"/>
<path d="M51.291,41.175l0.227-0.087l0.045,0.221c0,0,0.315-0.249,0.103-0.4C51.448,40.757,51.291,41.175,51.291,41.175z"/>
<path d="M51.816,40.379l0.222-0.075l0.021,0.184c0,0,0.279-0.18,0.114-0.32C52.008,40.027,51.816,40.379,51.816,40.379z"/>
<path d="M52.396,39.651l0.187-0.068l0.019,0.158c0,0,0.238-0.154,0.099-0.275C52.559,39.347,52.396,39.651,52.396,39.651z"/>
<path d="M52.909,38.978l0.187-0.068l0.018,0.159c0,0,0.24-0.154,0.1-0.274C53.07,38.674,52.909,38.978,52.909,38.978z"/>
<path d="M50.133,43.133l0.288-0.175l0.097,0.26c0,0,0.34-0.363,0.049-0.507C50.275,42.567,50.133,43.133,50.133,43.133z"/>
<path d="M57.098,34.58l0.291,0.055l-0.076,0.253c0,0,0.467-0.081,0.328-0.357C57.501,34.254,57.098,34.58,57.098,34.58z"/>
<path d="M58.075,34.183l0.235,0.056l-0.088,0.208c0,0,0.4-0.025,0.311-0.271C58.443,33.93,58.075,34.183,58.075,34.183z"/>
<path d="M58.96,33.825l0.226,0.064l-0.088,0.163c0,0,0.332,0.01,0.275-0.198C59.316,33.645,58.96,33.825,58.96,33.825z"/>
<path d="M59.852,33.554l0.191,0.05l-0.076,0.14c0,0,0.284,0.008,0.236-0.171C60.156,33.395,59.852,33.554,59.852,33.554z"/>
<path d="M60.652,33.29l0.193,0.051l-0.074,0.14c0,0,0.283,0.009,0.235-0.17C60.96,33.131,60.652,33.29,60.652,33.29z"/>
<path d="M54.77,35.924l0.315,0.012l-0.079,0.314c0,0,0.564-0.124,0.383-0.455C55.203,35.465,54.77,35.924,54.77,35.924z"/>
<path d="M56.012,35.14l0.338,0.02l-0.068,0.269c0,0,0.484-0.106,0.328-0.39C56.452,34.755,56.012,35.14,56.012,35.14z"/>
<path d="M53.561,27.966l0.209,0.07l-0.14,0.14c0,0,0.337,0.111,0.345-0.121C53.98,27.825,53.561,27.966,53.561,27.966z"/>
<path d="M54.279,28.019l0.173,0.079l-0.132,0.106c0,0,0.273,0.126,0.302-0.069C54.648,27.939,54.279,28.019,54.279,28.019z"/>
<path d="M55.052,28.1l0.136,0.078l-0.117,0.077c0,0,0.217,0.124,0.254-0.034C55.361,28.063,55.052,28.1,55.052,28.1z"/>
<path d="M52.688,27.956l0.226,0.064l-0.14,0.154c0,0,0.357,0.101,0.354-0.143C53.123,27.789,52.688,27.956,52.688,27.956z"/>
<path d="M79.785,33.176l0.165,0.15l-0.185,0.072c0,0,0.264,0.239,0.361,0.029C80.229,33.217,79.785,33.176,79.785,33.176z"/>
<path d="M80.424,33.517l0.125,0.142l-0.162,0.044c0,0,0.2,0.226,0.305,0.058C80.795,33.593,80.424,33.517,80.424,33.517z"/>
<path d="M81.098,33.903l0.092,0.125l-0.138,0.023c0,0,0.146,0.201,0.245,0.071C81.395,33.994,81.098,33.903,81.098,33.903z"/>
<path d="M81.632,34.266l0.079,0.108l-0.118,0.02c0,0,0.126,0.172,0.21,0.061C81.887,34.344,81.632,34.266,81.632,34.266z"/>
<path d="M75.396,31.756l0.344,0.182l-0.283,0.202c0,0,0.55,0.292,0.629-0.106C76.166,31.636,75.396,31.756,75.396,31.756z"/>
<path d="M76.625,32.061l0.271,0.187l-0.258,0.144c0,0,0.438,0.298,0.541-0.03C77.285,32.031,76.625,32.061,76.625,32.061z"/>
<path d="M77.932,32.428l0.211,0.173L77.918,32.7c0,0,0.336,0.278,0.445,0.017C78.477,32.455,77.932,32.428,77.932,32.428z"/>
<path d="M78.993,32.815l0.18,0.149l-0.19,0.084c0,0,0.287,0.238,0.384,0.014C79.459,32.838,78.993,32.815,78.993,32.815z"/>
<path d="M67.706,29.441l0.196,0.103L67.74,29.66c0,0,0.314,0.167,0.359-0.061C68.146,29.372,67.706,29.441,67.706,29.441z"/>
<path d="M68.49,29.542l0.156,0.106l-0.147,0.083c0,0,0.25,0.17,0.312-0.018C68.868,29.524,68.49,29.542,68.49,29.542z"/>
<path d="M69.213,29.613l0.12,0.1l-0.128,0.056c0,0,0.191,0.159,0.256,0.009C69.523,29.628,69.213,29.613,69.213,29.613z"/>
<path d="M69.826,29.746l0.104,0.085l-0.109,0.048c0,0,0.164,0.137,0.219,0.009C70.093,29.758,69.826,29.746,69.826,29.746z"/>
<path d="M63.447,29.149l0.378,0.093L63.6,29.507c0,0,0.604,0.148,0.584-0.256C64.164,28.845,63.447,29.149,63.447,29.149z"/>
<path d="M64.713,29.144l0.311,0.114l-0.215,0.203c0,0,0.496,0.182,0.518-0.162C65.346,28.953,64.713,29.144,64.713,29.144z"/>
<path d="M65.846,29.237l0.246,0.118L65.9,29.504c0,0,0.393,0.188,0.436-0.093C66.38,29.13,65.846,29.237,65.846,29.237z"/>
<path d="M66.906,29.374l0.211,0.1l-0.165,0.128c0,0,0.337,0.161,0.374-0.08C67.363,29.281,66.906,29.374,66.906,29.374z"/>
<path d="M83.466,45.099c-0.166,0-0.282-0.14-0.282-0.284s0.116-0.283,0.282-0.283c0.167,0,0.283,0.137,0.283,0.283
	S83.63,45.099,83.466,45.099z"/>
<path d="M74.434,41.822c-0.183,0-0.312-0.154-0.312-0.313c0-0.158,0.129-0.311,0.312-0.311c0.184,0,0.312,0.151,0.312,0.311
	C74.744,41.671,74.611,41.822,74.434,41.822z"/>
<path d="M73.813,42.353c-0.147,0-0.25-0.123-0.25-0.25s0.103-0.25,0.25-0.25c0.146,0,0.248,0.121,0.248,0.25
	S73.954,42.353,73.813,42.353z"/>
<path d="M73.258,42.919c-0.117,0-0.199-0.099-0.199-0.2c0-0.101,0.082-0.199,0.199-0.199c0.116,0,0.199,0.097,0.199,0.199
	C73.457,42.821,73.372,42.919,73.258,42.919z"/>
<path d="M72.828,43.434c-0.094,0-0.159-0.079-0.159-0.16s0.065-0.16,0.159-0.16s0.158,0.077,0.158,0.16
	C72.986,43.355,72.92,43.434,72.828,43.434z"/>
<path d="M72.447,43.949c-0.075,0-0.127-0.063-0.127-0.127c0-0.065,0.052-0.127,0.127-0.127c0.074,0,0.128,0.062,0.128,0.127
	C72.575,43.887,72.521,43.949,72.447,43.949z"/>
<path d="M82.457,45.373c-0.148,0-0.255-0.125-0.255-0.254s0.104-0.255,0.255-0.255c0.148,0,0.254,0.123,0.254,0.255
	C82.711,45.249,82.604,45.373,82.457,45.373z"/>
<path d="M81.773,45.846c-0.135,0-0.229-0.113-0.229-0.229c0-0.116,0.095-0.229,0.229-0.229c0.136,0,0.229,0.111,0.229,0.229
	C82.003,45.735,81.904,45.846,81.773,45.846z"/>
<path d="M81.096,46.482c-0.121,0-0.205-0.101-0.205-0.206c0-0.104,0.084-0.206,0.205-0.206s0.207,0.099,0.207,0.206
	S81.213,46.482,81.096,46.482z"/>
<path d="M80.621,47.195c-0.109,0-0.186-0.092-0.186-0.187c0-0.094,0.076-0.186,0.186-0.186s0.186,0.09,0.186,0.186
	C80.807,47.105,80.729,47.195,80.621,47.195z"/>
<path d="M80.316,47.918c-0.098,0-0.168-0.083-0.168-0.167c0-0.085,0.07-0.168,0.168-0.168c0.1,0,0.168,0.081,0.168,0.168
	C80.484,47.837,80.413,47.918,80.316,47.918z"/>
<path d="M80.161,48.634c-0.089,0-0.149-0.074-0.149-0.15c0-0.077,0.062-0.151,0.149-0.151s0.149,0.073,0.149,0.151
	C80.311,48.561,80.247,48.634,80.161,48.634z"/>
<path d="M94.076,42.699c0.089,0.063,0.097,0.183,0.041,0.259c-0.055,0.076-0.172,0.105-0.258,0.042
	c-0.09-0.064-0.1-0.182-0.043-0.259C93.872,42.663,93.988,42.636,94.076,42.699z"/>
<path d="M94.525,42.099c0.08,0.057,0.088,0.165,0.039,0.234c-0.051,0.068-0.154,0.094-0.233,0.037
	c-0.08-0.058-0.088-0.164-0.038-0.234C94.344,42.067,94.449,42.043,94.525,42.099z"/>
<path d="M95.105,41.594c0.072,0.052,0.08,0.149,0.035,0.21c-0.045,0.062-0.139,0.085-0.209,0.034
	c-0.074-0.052-0.08-0.147-0.035-0.21C94.941,41.566,95.037,41.543,95.105,41.594z"/>
<path d="M80.109,49.26c-0.08,0-0.135-0.066-0.135-0.135s0.055-0.136,0.135-0.136s0.136,0.066,0.136,0.136
	C80.245,49.194,80.188,49.26,80.109,49.26z"/>
<path d="M80.322,49.934c-0.071,0-0.122-0.06-0.122-0.122c0-0.061,0.051-0.122,0.122-0.122c0.07,0,0.121,0.059,0.121,0.122
	S80.393,49.934,80.322,49.934z"/>
<path d="M66.008,40.805c-0.146,0.078-0.314,0.009-0.382-0.117c-0.067-0.127-0.03-0.305,0.116-0.383
	c0.146-0.078,0.314-0.012,0.383,0.118C66.193,40.551,66.15,40.729,66.008,40.805z"/>
<path d="M65.244,41.52c-0.133,0.069-0.284,0.008-0.346-0.106c-0.06-0.114-0.025-0.274,0.106-0.344
	c0.132-0.069,0.282-0.011,0.345,0.105C65.412,41.292,65.374,41.452,65.244,41.52z"/>
<path d="M64.861,42.258c-0.118,0.063-0.256,0.008-0.31-0.096c-0.055-0.102-0.024-0.247,0.095-0.31s0.256-0.009,0.312,0.095
	C65.014,42.053,64.979,42.197,64.861,42.258z"/>
<path d="M64.563,43.138c-0.106,0.057-0.229,0.007-0.279-0.085c-0.049-0.093-0.021-0.223,0.086-0.279s0.229-0.008,0.277,0.085
	C64.697,42.953,64.666,43.083,64.563,43.138z"/>
<path d="M64.279,44.022c-0.098,0.051-0.206,0.005-0.252-0.077c-0.043-0.083-0.02-0.2,0.078-0.251
	c0.097-0.051,0.205-0.007,0.25,0.077C64.402,43.855,64.374,43.972,64.279,44.022z"/>
<path d="M64.009,44.974c-0.087,0.045-0.187,0.006-0.227-0.069c-0.04-0.075-0.017-0.18,0.069-0.226
	c0.086-0.046,0.186-0.007,0.226,0.07C64.118,44.824,64.093,44.929,64.009,44.974z"/>
<path d="M63.896,45.771c-0.078,0.042-0.168,0.005-0.203-0.062c-0.035-0.068-0.017-0.162,0.063-0.204
	c0.078-0.042,0.166-0.005,0.203,0.063C63.996,45.637,63.975,45.73,63.896,45.771z"/>
<path d="M63.818,46.698c-0.069,0.037-0.149,0.004-0.182-0.056c-0.033-0.061-0.016-0.146,0.055-0.184
	c0.072-0.037,0.151-0.005,0.185,0.057C63.908,46.576,63.889,46.661,63.818,46.698z"/>
<path d="M63.921,47.43c-0.063,0.034-0.136,0.004-0.164-0.05c-0.028-0.055-0.013-0.131,0.052-0.165
	c0.063-0.034,0.135-0.005,0.164,0.05C64.001,47.321,63.982,47.398,63.921,47.43z"/>
<path d="M58.213,39.283c-0.146,0.082-0.314,0.019-0.386-0.106s-0.038-0.304,0.106-0.387c0.145-0.081,0.313-0.02,0.387,0.107
	C58.393,39.024,58.354,39.203,58.213,39.283z"/>
<path d="M57.469,40.019c-0.131,0.074-0.283,0.016-0.348-0.097c-0.063-0.112-0.033-0.273,0.097-0.347
	c0.13-0.074,0.282-0.018,0.347,0.097C57.63,39.786,57.596,39.946,57.469,40.019z"/>
<path d="M57.107,40.767c-0.117,0.066-0.256,0.014-0.313-0.087c-0.059-0.101-0.031-0.245,0.085-0.313
	c0.117-0.066,0.255-0.015,0.313,0.087C57.252,40.557,57.223,40.702,57.107,40.767z"/>
<path d="M56.83,41.655c-0.105,0.059-0.229,0.013-0.281-0.079c-0.052-0.091-0.027-0.221,0.079-0.281
	c0.104-0.06,0.228-0.015,0.28,0.078C56.96,41.466,56.934,41.596,56.83,41.655z"/>
<path d="M56.572,42.546c-0.096,0.053-0.206,0.011-0.252-0.07c-0.047-0.082-0.025-0.199,0.07-0.253
	c0.094-0.053,0.205-0.013,0.252,0.07S56.666,42.493,56.572,42.546z"/>
<path d="M56.327,43.505c-0.085,0.048-0.187,0.011-0.228-0.063c-0.043-0.073-0.022-0.18,0.063-0.229
	c0.084-0.048,0.185-0.011,0.228,0.064C56.434,43.352,56.411,43.458,56.327,43.505z"/>
<path d="M56.238,44.305c-0.077,0.043-0.168,0.009-0.205-0.057s-0.021-0.161,0.057-0.205c0.077-0.044,0.168-0.011,0.205,0.057
	C56.334,44.167,56.313,44.262,56.238,44.305z"/>
<path d="M56.188,45.233c-0.07,0.04-0.151,0.009-0.186-0.051s-0.02-0.146,0.051-0.185c0.069-0.039,0.15-0.009,0.186,0.052
	C56.271,45.109,56.254,45.195,56.188,45.233z"/>
<path d="M56.309,45.963c-0.063,0.036-0.137,0.007-0.166-0.046c-0.031-0.054-0.018-0.13,0.045-0.166
	c0.063-0.035,0.136-0.009,0.166,0.046C56.385,45.851,56.368,45.929,56.309,45.963z"/>
<path d="M80.713,50.507c-0.064,0-0.109-0.054-0.109-0.11c0-0.055,0.045-0.109,0.109-0.109s0.109,0.053,0.109,0.109
	C80.822,50.454,80.775,50.507,80.713,50.507z"/>
<path d="M81.188,50.902c-0.064,0-0.109-0.053-0.109-0.108s0.045-0.108,0.109-0.108c0.063,0,0.108,0.053,0.108,0.108
	S81.248,50.902,81.188,50.902z"/>
<path d="M81.729,51.143c-0.058,0-0.099-0.049-0.099-0.099s0.041-0.099,0.099-0.099c0.059,0,0.101,0.048,0.101,0.099
	S81.786,51.143,81.729,51.143z"/>
<path d="M82.298,51.168c-0.058,0-0.099-0.049-0.099-0.1s0.041-0.098,0.099-0.098s0.099,0.047,0.099,0.098
	C82.396,51.12,82.354,51.168,82.298,51.168z"/>
<path d="M82.895,51.137c-0.052,0-0.09-0.044-0.09-0.089c0-0.046,0.038-0.09,0.09-0.09c0.053,0,0.09,0.044,0.09,0.09
	S82.945,51.137,82.895,51.137z"/>
<path d="M83.37,50.964c-0.047,0-0.08-0.04-0.08-0.08c0-0.041,0.033-0.079,0.08-0.079s0.079,0.038,0.079,0.079
	S83.416,50.964,83.37,50.964z"/>
<path d="M83.835,50.756c-0.042,0-0.071-0.036-0.071-0.07c0-0.037,0.029-0.072,0.071-0.072c0.043,0,0.072,0.033,0.072,0.072
	C83.907,50.721,83.877,50.756,83.835,50.756z"/>
<path d="M84.266,50.444c-0.039,0-0.065-0.032-0.065-0.064c0-0.033,0.026-0.064,0.065-0.064c0.036,0,0.063,0.031,0.063,0.064
	C84.329,50.413,84.301,50.444,84.266,50.444z"/>
<path d="M91.895,49.811c0-2.416-2.511-7.675-10.312-7.675c-4.576,0-5.606,3.194-5.606,4.243s0.444,1.971,1.303,1.971
	c0.699,0,0.523-0.556,0.746-0.556c0.352,0,0.445,0.715-0.522,0.715c-1.176,0-1.717-1.017-1.717-2.097
	c0-1.271,1.478-4.957,6.545-4.957c5.386,0,9.676,4.21,9.676,8.373C92.006,50.256,91.895,50.224,91.895,49.811z"/>
<path d="M84.57,40.786c-1.018-0.428-2.687-0.984-4.354-0.984c-1.669,0-3.587,0.536-4.878,1.43c-0.206,0.144-0.795-0.063-0.334-0.54
	s2.432-1.192,4.528-1.192s4.021,0.667,5.114,1.192C85.746,41.215,84.57,40.786,84.57,40.786z"/>
<path d="M90.949,44.774c-0.838-1.316-4.528-7.245-13.18-7.245c-8.65,0-10.819,6.792-10.819,9.08c0,2.621,2.192,4.29,4.694,4.29
	c1.334,0,2.191-1.001,2.525-1.573c0.248-0.421,0-1.024-0.645,0c-0.643,1.025-1.5,1.311-2.264,1.311
	c-1.431,0-4.121-1.072-4.121-4.027c0-3.289,3.096-8.866,10.651-8.866c3.767,0,9.175,1.215,13.013,7.102
	C90.807,44.846,91.116,45.036,90.949,44.774z"/>
<path d="M74.111,50.125c0.188-0.205,1.334-1.025,1.334-2.563c0-1.251-0.883-0.87-0.883-0.87s0.502,0.488,0.502,1.418
	c0,0.93-0.823,1.752-0.941,1.859C74.004,50.077,73.969,50.279,74.111,50.125z"/>
<path d="M75.514,47.232c0,0,0.303-0.89-1.609-1.67c0,0,0.097-0.198,0.488-0.175c0.393,0.024,1.391,0.511,1.183,1.824
	C75.574,47.211,75.518,47.387,75.514,47.232z"/>
<path d="M74.709,45.246c0,0-0.441-0.664-1.154-0.713c-0.715-0.049-0.556,0.416-0.556,0.416s0.619-0.316,1.661,0.329
	C74.66,45.278,74.785,45.371,74.709,45.246z"/>
<path d="M73.188,44.428c0,0-0.707-0.135-1.121,0.289c0,0-0.394-0.297,0.271-0.434C72.811,44.187,73.188,44.428,73.188,44.428z"/>
<path d="M71.682,44.333c0,0-0.514,0.19-0.561,0.393c-0.048,0.203-0.408-0.125-0.048-0.286
	C71.656,44.179,71.682,44.333,71.682,44.333z"/>
<path d="M70.62,44.846c0,0-0.084,0.071-0.06,0.322c0.022,0.25-0.238-0.131-0.119-0.334S70.68,44.727,70.62,44.846z"/>
<path d="M69.833,49.791c-1.487,0-2.453-1.715-2.537-2.062l0.084,0.311c0,0,0.845,2.251,2.919,2.251c0.381,0,1.096-0.047,1.501-0.524
	s0.048-0.93-0.501-0.405C70.751,49.886,69.833,49.791,69.833,49.791z"/>
<path d="M67.963,47.777c-0.99-1.112-0.619-3.128-0.417-3.419l-0.122,0.356c0,0-0.677,2.17,0.504,3.66
	c0.235,0.299,0.69,0.798,1.36,0.856c0.623,0.054,0.728-0.583-0.03-0.644C68.502,48.525,67.963,47.777,67.963,47.777z"/>
<path d="M67.869,46.609c-0.721-0.949-0.299-2.533-0.119-2.754l-0.12,0.277c0,0-0.675,1.688,0.173,2.95
	c0.17,0.253,0.502,0.68,1.032,0.768c0.493,0.083,0.614-0.418,0.017-0.515C68.252,47.24,67.869,46.609,67.869,46.609z"/>
<path d="M67.909,44.768c-0.269-0.602,0.329-2.095,0.518-2.222l-0.178,0.238c0,0-0.856,1.171-0.498,2.333
	c0.071,0.233,0.229,0.636,0.615,0.826c0.358,0.177,0.567-0.18,0.13-0.391C68.059,45.34,67.909,44.768,67.909,44.768z"/>
<path d="M68.463,42.931c-0.048-0.338,0.389-1.222,0.561-1.279l-0.561,0.798c0,0-0.238,0.298-0.195,0.713
	c0.02,0.195,0.039,0.54,0.295,0.769c0.239,0.214,0.478-0.016,0.185-0.272C68.456,43.403,68.463,42.931,68.463,42.931z"/>
<path d="M69.46,41.144c-0.067,0.141-0.159,0.416-0.078,0.679c0.073,0.245,0.286,0.197,0.239-0.111
	c-0.098-0.648,0.419-1.172,0.419-1.172L69.46,41.144z"/>
<path d="M70.866,39.857c-0.072,0.104-0.181,0.308-0.151,0.526c0.026,0.204,0.199,0.193,0.204-0.055
	c0.009-0.525,0.483-0.87,0.483-0.87L70.866,39.857z"/>
<path d="M72.137,39.047c-0.07,0.071-0.182,0.219-0.187,0.395c-0.007,0.164,0.132,0.179,0.167-0.017
	c0.074-0.413,0.494-0.625,0.494-0.625L72.137,39.047z"/>
<path d="M73.434,38.48c-0.056,0.043-0.146,0.136-0.166,0.258c-0.018,0.113,0.076,0.135,0.119,0.002
	c0.088-0.28,0.397-0.391,0.397-0.391L73.434,38.48z"/>
<path d="M76.609,36.877c-0.611,0-5.855-0.76-10.01,3.162c-0.287,0.271-0.684-0.063-0.317-0.556c0.366-0.494,4.729-3.64,10.312-2.781
	C76.801,36.734,76.77,36.877,76.609,36.877z"/>
<path d="M82.568,37.307c-1.871-0.831-4.672-2.065-9.024-2.065c-7.754,0-17.255,5.052-14.872,12.233c0,0-0.509-0.698-0.509-2.573
	c0-4.1,5.752-10.296,14.586-10.296c3.687,0,7.976,1.483,9.883,2.542C82.918,37.307,82.854,37.435,82.568,37.307z"/>
<path d="M66.458,34.446c-1.351,0.226-4.942,1.367-7.627,4.163c-0.267,0.276-0.731,0.032-0.19-0.635s3.786-3.081,7.721-3.686
	C66.775,34.225,66.838,34.383,66.458,34.446z"/>
<path d="M63.852,55.832c0,0,2.551,1.432,5.578,1.764c0,0-3.646-0.929-5.888-2.097L63.852,55.832z"/>
<path d="M62.352,54.366l0.262,0.299c0,0,6.388,2.669,12.322,2.717C74.936,57.382,68.547,56.857,62.352,54.366z"/>
<path d="M61.563,53.259l0.238,0.333c0,0,13.729,4.268,21.926,3.575C83.729,57.167,75.173,57.43,61.563,53.259z"/>
<path d="M60.104,51.986l0.443,0.414c3.639,1.24,12.837,3.272,21.703,3.272c9.914,0,14.3,0.317,17.572,2.065
	c0,0-0.984-2.32-17.604-2.32C74.909,55.419,64.074,53.354,60.104,51.986z"/>
<path d="M59.117,51.098l0.285,0.351c0,0,8.293,2.604,17.953,2.604c3.242,0,8.295-0.89,11.026-0.477c0,0,0.058-0.477-4.733-0.126
	C78.852,53.799,71.955,54.497,59.117,51.098z"/>
<path d="M57.814,50.113L57.814,50.113l0.188,0.286c4.195,1.175,7.404,2.033,11.949,2.033c4.543,0,7.817-0.539,9.724-0.316
	c0,0-4.449-0.127-9.724,0.063S57.814,50.113,57.814,50.113z"/>
<path d="M56.925,49.286l0.222,0.254c0,0,4.354,2.128,14.873,1.651C72.02,51.191,61.469,51.162,56.925,49.286z"/>
<path d="M56.066,48.556l0.254,0.253c0,0,4.64,1.622,10.328,1.145C66.648,49.954,60.324,50.049,56.066,48.556z"/>
<path d="M55.398,47.825l0.224,0.222c0,0,3.019,1.303,7.594,0.953C63.216,49,58.672,49.032,55.398,47.825z"/>
<path d="M54.7,47.126l0.317,0.286c0,0,2.605,0.89,4.64,0.317C59.657,47.729,57.146,48.015,54.7,47.126z"/>
<path d="M88.518,58.691c0,0,2.276-2.15,3.385-1.478c0.38,0.229,0.125,0.411-0.256,0.269c-0.381-0.144-0.924-0.342-2.967,1.209
	C87.986,59.216,88.327,58.836,88.518,58.691z"/>
<path d="M91.322,55.26c0,0,1.363-3.189,3.543-3.098c1.111,0.048,1.238,1.255,0.111,0.46c-1.127-0.794-2.746,1.126-3.611,2.591
	C91.262,55.389,91.322,55.26,91.322,55.26z"/>
<path d="M92.343,52.688c0,0,0.554-1.537,1.3-1.441c0.381,0.047,0.299,0.355-0.061,0.297C93.225,51.482,92.771,51.805,92.343,52.688z
	"/>
<path d="M92.486,51.639c0.238-0.654,0.969-6.008,2.99-5.863c0.5,0.036,0.905-0.167,0.143-0.322
	c-0.762-0.156-1.904,0.539-2.537,3.039c-0.453,1.787-0.489,2.05-0.489,2.05L92.486,51.639z"/>
<path d="M92.305,45.911c-0.063-0.696-1.761-5.927,0.247-7.601c0.386-0.321,0.75-0.535-0.006-0.352
	c-0.757,0.182-1.519,2.317-1.032,4.85c0.346,1.811,0.424,2.064,0.424,2.064L92.305,45.911z"/>
<path d="M72.156,29.779c-0.62-0.318-5.952-1.673-6.295-4.264c-0.066-0.499-0.053-0.92-0.303-0.183
	c-0.248,0.737,1.149,2.52,3.551,3.461c1.718,0.673,1.973,0.742,1.973,0.742L72.156,29.779z"/>
<path d="M65.521,28.781c-0.664-0.214-6.143-0.698-6.897-3.201c-0.146-0.481-0.196-0.899-0.326-0.132
	c-0.128,0.768,1.539,2.304,4.06,2.849c1.803,0.39,2.065,0.416,2.065,0.416L65.521,28.781z"/>
<path d="M92.529,48.349c0,0,0.275-3.127,1.352-4.846c0.159-0.254-0.238-0.524-0.414-0.144c-0.175,0.382-0.89,2.86-1,4.561
	L92.529,48.349z"/>
<path d="M89.377,37.024c0.109,0.007,0.18,0.105,0.173,0.198c-0.006,0.095-0.09,0.182-0.198,0.173
	c-0.107-0.007-0.179-0.103-0.172-0.198C89.188,37.103,89.271,37.017,89.377,37.024z"/>
<path d="M89.441,36.278c0.099,0.006,0.162,0.093,0.156,0.178c-0.007,0.084-0.08,0.163-0.18,0.156
	c-0.098-0.007-0.161-0.092-0.154-0.178C89.27,36.347,89.346,36.271,89.441,36.278z"/>
<path d="M89.666,35.542c0.089,0.006,0.146,0.084,0.141,0.16c-0.005,0.076-0.072,0.146-0.16,0.14
	c-0.088-0.006-0.146-0.083-0.14-0.161C89.512,35.605,89.58,35.536,89.666,35.542z"/>
<path d="M83.157,30.846c0.102,0.04,0.141,0.152,0.106,0.241c-0.035,0.087-0.141,0.145-0.24,0.105
	c-0.104-0.04-0.142-0.152-0.105-0.24C82.952,30.862,83.059,30.807,83.157,30.846z"/>
<path d="M83.068,30.068c0.094,0.036,0.127,0.138,0.097,0.216c-0.031,0.079-0.125,0.13-0.216,0.095
	c-0.092-0.035-0.129-0.136-0.096-0.216C82.885,30.083,82.98,30.033,83.068,30.068z"/>
<path d="M83.137,29.364c0.081,0.032,0.112,0.124,0.086,0.195c-0.027,0.071-0.113,0.118-0.195,0.085
	c-0.082-0.032-0.113-0.123-0.086-0.195C82.971,29.377,83.057,29.333,83.137,29.364z"/>
<path d="M91.059,42.636c0,0-1.422-2.797-1.42-4.825c0-0.301-0.48-0.318-0.427,0.098c0.054,0.415,0.759,2.896,1.563,4.398
	L91.059,42.636z"/>
<path d="M88.891,39.753c-1.27-1.748-3.445-4.433-3.431-7.404c0.015-2.859,1.335-3.336,1.938-3.527
	c0.604-0.19,0.604,0.286-0.097,0.477c-0.698,0.191-1.534,0.795-1.588,3.05c-0.063,2.685,1.556,4.885,3.272,7.309
	C89.257,40.04,89.182,40.152,88.891,39.753z"/>
<path d="M85.635,35.623c-0.39-0.722-2.05-2.571-2.287-4.004c-0.049-0.285-0.43-0.262-0.334,0.128
	c0.133,0.542,0.619,1.779,2.494,3.972C85.604,35.829,85.746,35.829,85.635,35.623z"/>
<path d="M77.427,28.828c0.109,0.007,0.181,0.104,0.175,0.198c-0.009,0.094-0.09,0.18-0.199,0.173
	c-0.107-0.007-0.18-0.102-0.172-0.197C77.234,28.906,77.32,28.821,77.427,28.828z"/>
<path d="M77.109,28.113c0.099,0.007,0.16,0.093,0.156,0.178c-0.006,0.085-0.08,0.162-0.18,0.156
	c-0.098-0.007-0.161-0.093-0.154-0.179C76.938,28.183,77.016,28.106,77.109,28.113z"/>
<path d="M76.962,27.421c0.089,0.006,0.146,0.084,0.14,0.161c-0.004,0.076-0.072,0.146-0.158,0.14
	c-0.088-0.006-0.146-0.083-0.142-0.161C76.807,27.485,76.876,27.416,76.962,27.421z"/>
<path d="M81.223,32.643c-0.588-0.572-2.727-1.839-3.384-3.134c-0.131-0.258-0.487-0.122-0.28,0.222
	c0.289,0.477,0.734,1.149,3.57,3.042C81.251,32.854,81.391,32.807,81.223,32.643z"/>
<path d="M70.762,27.69c0.075-0.008,0.137,0.051,0.145,0.117c0.006,0.065-0.041,0.136-0.117,0.144
	c-0.076,0.008-0.137-0.05-0.145-0.117C70.639,27.767,70.688,27.699,70.762,27.69z"/>
<path d="M70.454,27.232c0.067-0.007,0.123,0.045,0.13,0.105c0.006,0.059-0.037,0.123-0.104,0.129
	c-0.069,0.007-0.123-0.044-0.131-0.105C70.343,27.302,70.387,27.24,70.454,27.232z"/>
<path d="M70.268,26.771c0.063-0.007,0.111,0.041,0.116,0.094c0.007,0.054-0.032,0.11-0.094,0.117
	c-0.062,0.006-0.11-0.04-0.116-0.094C70.168,26.833,70.207,26.777,70.268,26.771z"/>
<path d="M73.854,29.876c-0.476-0.326-2.111-0.945-2.726-1.764c-0.122-0.163-0.354-0.025-0.168,0.188
	c0.259,0.297,0.649,0.708,2.847,1.676C73.898,30.019,73.99,29.969,73.854,29.876z"/>
<path d="M84.99,35.67c-1.1-1.101-5.79-5.6-5.79-9.175c0-1.12,0.31-1.716,0.93-2.097c0.618-0.381-0.049-0.619-0.358-0.19
	c-0.309,0.428-0.762,0.786-0.762,2.454s1.082,4.252,5.887,9.056C85.063,35.885,85.182,35.861,84.99,35.67z"/>
<path d="M79.771,32.413c-1.36-0.755-6.114-2.951-7.58-6.212c-0.349-0.778-0.233-1.465,0.258-2.001
	c0.49-0.537-0.217-0.583-0.396-0.085c-0.181,0.497-0.496,1.07,0.004,2.3c0.625,1.545,2.601,3.632,7.637,6.072
	C79.904,32.588,80.008,32.543,79.771,32.413z"/>
<path d="M52.309,28.082c-1.556,0.06-6.759,0.648-9.702-1.382c-0.703-0.483-0.961-1.131-0.819-1.843
	c0.142-0.714-0.487-0.387-0.383,0.132c0.104,0.519,0.132,1.172,1.195,1.964c1.337,0.998,4.106,1.758,9.679,1.231
	C52.514,28.162,52.577,28.072,52.309,28.082z"/>
<path d="M75.053,31.905c0,0-3.193-1.334-10.104-1.334c-11.393,0-20.543,5.958-33.794,5.958c-13.252,0-15.683-8.39-15.683-10.725
	c0-0.905,0.572-1.144,0.572,0.191s1.097,10.295,15.11,10.295c14.013,0,21.114-5.958,33.794-5.958c8.103,0,10.104,1.431,10.104,1.431
	L75.053,31.905L75.053,31.905z"/>
<path d="M59.216,30.749c0,0-0.751-0.048-0.737-0.334c0.012-0.287,0.547,0.334,1.215,0.274L59.216,30.749z"/>
<path d="M59.814,30.671c0,0-0.601-0.039-0.592-0.268c0.01-0.229,0.438,0.268,0.973,0.219L59.814,30.671z"/>
<path d="M50.498,30.122c0,0-0.751-0.048-0.738-0.334c0.011-0.286,0.548,0.334,1.215,0.274L50.498,30.122z"/>
<path d="M51.098,30.042c0,0-0.601-0.039-0.593-0.267c0.011-0.229,0.438,0.267,0.974,0.219L51.098,30.042z"/>
<path d="M52.432,32.203c0,0-0.938,0.048-0.966-0.309c-0.024-0.357,0.728,0.336,1.55,0.167L52.432,32.203z"/>
<path d="M53.163,32.02c0,0-0.751,0.039-0.771-0.247c-0.021-0.286,0.582,0.269,1.238,0.134L53.163,32.02z"/>
<path d="M45.431,34.116c0,0-1.174,0.058-1.206-0.388c-0.032-0.446,0.909,0.42,1.936,0.21L45.431,34.116z"/>
<path d="M46.347,33.886c0,0-0.939,0.048-0.966-0.31c-0.025-0.356,0.729,0.337,1.549,0.167L46.347,33.886z"/>
<path d="M42.915,31.603c0,0-1.171-0.1-1.143-0.548c0.029-0.446,0.845,0.542,1.889,0.472L42.915,31.603z"/>
<path d="M43.853,31.5c0,0-0.938-0.08-0.914-0.438s0.676,0.433,1.512,0.377L43.853,31.5z"/>
<path d="M24.829,35.533c0,0-2.119-1.107-2.277-2.601c-0.093-0.868,1.729,2.467,3.717,2.944L24.829,35.533z"/>
<path d="M26.8,35.972c0,0-1.872-0.821-1.621-1.474c0.251-0.652,1.009,1.199,2.599,1.581L26.8,35.972z"/>
<path d="M34.509,36.172c0,0-1.829-0.166-1.781-0.863c0.048-0.697,1.316,0.851,2.948,0.749L34.509,36.172z"/>
<path d="M35.976,36.019c0,0-1.464-0.132-1.426-0.69c0.039-0.558,1.053,0.681,2.359,0.599L35.976,36.019z"/>
<path d="M33.499,30.982c0,0-1.666-0.772-1.387-1.413c0.28-0.64,0.952,1.245,2.523,1.699L33.499,30.982z"/>
<path d="M34.931,31.333c0,0-1.333-0.619-1.108-1.13c0.224-0.512,0.762,0.996,2.019,1.359L34.931,31.333z"/>
<path d="M64.648,30.337c0,0-0.592-0.114-0.553-0.34c0.038-0.226,0.399,0.321,0.937,0.343L64.648,30.337z"/>
<path d="M65.131,30.336c0,0-0.472-0.092-0.441-0.273c0.031-0.18,0.32,0.257,0.75,0.274L65.131,30.336z"/>
<path d="M16.997,29.584c0,0-0.504-1.05-0.413-2.145c0.064-0.762,0.62-1.319,0.429,0.032c-0.19,1.351,0.128,2.145,0.446,2.907
	L16.997,29.584z"/>
<path d="M25.315,37.654c-13.179,0.531-15.683-8.27-15.683-10.606c0-0.905,0.572-1.143,0.572,0.191
	C10.205,28.574,11.302,37.654,25.315,37.654z"/>
<path d="M11.158,30.83c0,0-0.504-1.051-0.412-2.145c0.063-0.763,0.619-1.32,0.428,0.032c-0.19,1.351,0.128,2.145,0.445,2.907
	L11.158,30.83z"/>
<path d="M26.215,26.876c0,0-0.78-0.866-1.001-1.941c-0.155-0.75,0.223-1.44,0.42-0.091c0.198,1.349,0.727,2.022,1.247,2.664
	L26.215,26.876z"/>
<path d="M63.042,29.235c0,0-0.858-0.286-5.054-0.286c-4.193,0-12.392,2.907-18.684,2.907s-14.633-3.575-14.633-8.77
	c0-0.715-0.572-0.858-0.572,0.19c0,2.335,4.909,8.818,15.157,8.818c6.006,0,14.395-3.003,18.73-3.003c2.305,0,4.8,0.223,4.8,0.223
	C63.168,29.387,63.193,29.299,63.042,29.235z"/>
<path d="M54.604,36.195c-0.699,0.312-3.653,2.542-5.386,6.212l0.207,0.222c0,0,2.027-4.122,5.242-6.212
	C54.986,36.209,54.748,36.131,54.604,36.195z"/>
<path d="M57.973,33.223c-1.449,0.527-5.94,2.081-11.313,7.229l-0.254-0.19c3.702-3.48,7.895-6.441,11.52-7.246
	C58.211,32.953,58.146,33.16,57.973,33.223z"/>
<path d="M47.265,36.227c-0.573,0.286-4.083,2.097-4.083,2.097l0.429,0.254c0,0,3.337-1.875,3.701-2.049
	C47.678,36.353,47.455,36.131,47.265,36.227z"/>
</svg>
