<?xml version="1.0" encoding="utf-8"?>
<!-- Generator: Adobe Illustrator 16.0.0, SVG Export Plug-In . SVG Version: 6.00 Build 0)  -->
<!DOCTYPE svg PUBLIC "-//W3C//DTD SVG 1.1//EN" "http://www.w3.org/Graphics/SVG/1.1/DTD/svg11.dtd">
<svg version="1.1" id="Layer_1" xmlns="http://www.w3.org/2000/svg" xmlns:xlink="http://www.w3.org/1999/xlink" x="0px" y="0px"
	 width="100px" height="100px" viewBox="0 0 100 100" enable-background="new 0 0 100 100" xml:space="preserve">
<path d="M82.041,0.619c0.665,0.096,0.641,0.885,1.309,0.98c0.135,1.444-0.09,2.528-0.654,3.271
	c-0.229,0.789,0.693,0.964,0.979,1.308c0.374,0.45,0.5,0.942,0.982,1.308c0.413,1.003,1.112,1.722,1.635,2.617
	c2.194,0.125,4.118-0.024,4.578-1.635c0.851,0.087,0.089,1.28,0,1.635c-0.17,0.683-0.573,1.102-0.981,1.962
	c-0.787-0.134-0.711,0.597-1.635,0.327c-0.232,0.783-0.152,1.204-0.326,2.617c-1.625,1.126-0.041,3.659,1.961,3.597
	c-0.902,1.78-4.343,1.608-4.578-0.654c-2.086,0.23-2.613,4.669-1.309,6.214c0.148,0.533-1.781,0.533-1.636,0
	c-1.05,0.286-0.677-0.849-1.308-0.981c-0.485,0.143,0.129,0.418,0,0.981c-0.879-0.292-1.603-0.795-2.289-1.635
	c-0.121-0.148-0.588-0.512-0.653-0.654c-0.126-0.271,0.116-0.707,0-0.981c-0.062-0.141-0.285,0.003-0.327-0.327
	c-0.143-1.155,0.211-2.704,0.98-3.597c-0.319-0.335-0.646-0.662-0.98-0.981c-0.178-3.011,0.134-5.535,1.309-7.195
	c-0.328-1.524-0.807-1.839-1.963-1.962c-1.242-0.134-1.965,1.005-2.945,1.96c-0.393,0.385-1.031,0.607-1.307,0.981
	c-0.087,0.116,0.108,0.565,0,0.654c-0.494,0.405-0.531,0.601-0.98,1.308c-0.654,1.028-1.254,4.479-0.981,6.868
	c0.259,2.259,1.375,4.276,2.617,5.887c1.055,1.367,2.696,2.605,3.924,4.251c0.138,0.185,0.308-0.054,0.327,0.328
	c0.021,0.426,1.47,1.767,1.962,2.289c0.533,0.566,1.104,1.043,1.636,1.635c0.479,0.535,1.194,1.084,1.635,1.636
	c0.461,0.574,0.891,1.351,1.309,1.962c0.126,0.183,0.309-0.053,0.328,0.327c0.005,0.104,0.25,0.535,0.326,0.653
	c0.43,0.662,0.93,1.675,1.309,2.943c0.157,0.528,0.165,0.759,0.327,1.309c1.317,4.466-0.302,11.271-2.29,14.389
	c-0.098,0.154-0.277,0.243-0.327,0.327c-0.354,0.598-0.603,1.258-1.308,1.962c-0.313,0.313-0.838,0.877-0.98,0.979
	c-0.117,0.086-0.566-0.105-0.654,0c-0.369,0.451-0.543,0.676-1.309,0.98c-0.115,0.048-0.58-0.09-0.654,0
	c-0.16,0.198-0.795,0.464-1.635,0.654c-2.98,0.681-7.242,0.316-10.138-0.98c-0.737,0.244-0.128,1.836-0.327,2.616
	c0,0.872,0,1.744,0,2.617c1.618,2.745,4.975,1.717,6.867,0.325c0.791-0.58,1.179-1.195,1.962-1.961
	c0.163-0.16,0.276-0.381,0.653-0.327c-0.184,2.364-0.065,4.427,2.617,3.925c-0.305,0.785-1.313,0.865-0.98,2.289
	c0.34,1.402,1.404,2.083,3.271,1.962c-0.224,1.632-1.869,1.839-3.599,1.962c0.345,0.854,1.327,1.07,2.616,0.98
	c-0.422,1.433-1.881,1.826-3.271,2.289c0.563,0.854,1.178,1.658,2.616,1.637c-0.126,1.619-2.05,1.438-3.271,1.962
	c0.299,0.791,1.314,0.864,2.289,0.979c-0.433,1.857-2.99,1.588-4.58,2.291c0.803,0.834,1.896,1.377,3.271,1.635
	c-1.009,0.844-2.182,1.525-4.251,1.308c-0.937,0.046-0.599,1.365-0.653,2.289c0.071,0.69,0.875,0.642,1.307,0.981
	c0.419,0.328,0.627,0.504,0.982,0.98c0.278,1.043-0.517,1.012-0.656,1.635c0.248,2.428-0.621,3.737-2.287,4.252
	c-0.055-1.01,0.771-1.849,0-2.617c0.101-1.021-0.945,0.832-0.981-0.325c-0.429-0.116-0.514-0.576-0.981-0.654
	c-0.088-1.11,0.254-2.651-0.326-3.271c-2.065,0.55-2.475,2.758-2.288,5.56c-0.38,0.274-0.878,0.433-1.636,0.327
	c-0.228,1.199-0.564,2.486,0,3.597c-1.783-0.505-2.555-2.022-2.289-4.578c-1.463-0.155-1.637,0.979-1.637,2.29
	c-1.063-0.242-0.992-1.621-1.634-2.29c0.63-0.946,0.496-2.226,0.979-3.271c0.061-0.129,0.256-0.038,0.328-0.326
	c0.051-0.206-0.041-0.446,0-0.654c-0.028-0.24-0.571-0.193-0.98,0c-0.396,0.188-1.676,1.862-1.962,1.309
	c-0.224-2.621,1.082-3.713,2.942-4.252c0-0.437,0-0.871,0-1.309c1.674-0.257,2.375,0.459,3.924,0.327
	c0.266-0.062,0.326-0.327,0.654-0.327c0.922-0.385,0.994-1.621,1.309-2.615c1.062-0.355,1.232-1.6,1.962-2.289
	c0.267-2.229-0.673-3.25-0.981-4.905c-0.895,0.161-1.236,1.235-1.962,1.963c-1.014,0.312-1.771,0.758-2.942,0.653
	c-1.146-0.103-1.885-0.904-2.615-1.309c-0.997,1.872,0.951,3.324,2.287,3.924c-0.957,1.579-3.639,0.188-4.25-0.654
	c-0.322,1.309-0.322,1.964,0,3.271c-1.754-0.316-1.799-2.344-2.291-3.924c-1.285,0.13-0.281,2.552-1.633,2.616
	c-1.064-3.569,0.86-6.396,3.598-7.195c-0.193-3.515-2.084-5.328-2.944-8.175c-1.909-0.077-3.387-0.11-4.577,0.652
	c-3.34,2.145-4.464,8.172,0.326,9.158c1.053-0.146,1.771-0.628,2.943-0.654c-0.426,1.922-2.328,3.547-4.579,2.615
	c-1.453,0.291-1.655,1.834-2.616,2.616c-0.625-0.684-1.054-1.562-1.308-2.616c-1.019,0.727-1.419,2.07-1.635,3.599
	c-1.87-0.421-1.82-2.761-3.271-3.599c-0.655,0.437-0.729,1.452-0.981,2.289c-1.736-0.553-2.416-2.162-3.271-3.597
	c-0.912,0.286-1.083,1.313-1.308,2.289c-1.917-0.59-1.49-3.524-3.27-4.252c-1.129,0.834-1.053,2.872-1.963,3.924
	c-0.483,0.38-0.824,0.38-1.308,0c-0.183,0.472-0.51,0.799-0.98,0.981c0.071,1.054-0.579,1.384-0.328,2.617
	c-1.326-0.621-2.229-3.308-0.981-4.58c0.404-1.059-1.059-0.25-0.654-1.308c0.63-0.297,0.947-0.931,1.635-1.31
	c0.653-0.357,1.843,0.039,1.963-0.98c-0.408-0.861-1.727-0.031-2.29,0c-0.908,0.053-2.03,0.774-2.943,0.98
	c-1.217,0.347-0.641-1.103-1.308-1.309c-1.435-0.018-1.752,1.082-2.944,1.309c-0.189-1.062,0.223-1.521,0.327-2.289
	c0.686-0.066,0.759-0.932,1.308-1.307c0.475-0.326,1.79,0.057,1.635-0.981c-0.435-0.829-1.452,0.479-2.289,0.327
	c-0.023-1.223,0.525-1.873,1.308-2.289c0.23-0.971,1.88-0.518,1.963-1.637c-0.142-0.729-1.612-0.131-2.289-0.326
	c1.018-2.204,4.141-1.488,6.867-1.309c-0.087,1.178,0.605,1.576,0.655,2.616c0.366,0.712,1.159,1.349,1.962,1.962
	c0.471,0.36,0.464,0.443,1.308,0.654c0.248,0.063,0.263,0.311,0.327,0.326c1.803,0.451,4.631-0.17,6.867,0
	c0.924,0.07,1.748,0.492,2.616,0.328c0.142-2.869-1.735-3.715-1.635-6.541c-1.191-0.103-2.128,0.053-2.944,0.328
	c-1.458,0.045,0.293-0.841,0-1.637c-1.224,0.303-1.718,1.334-2.943,1.637c-1.652,0.344-1.871-0.748-3.27-0.656
	c0.213-1.116,1.252-0.394,1.962-0.652c1.156-0.423,1.994-1.384,2.616-2.29c-0.572-0.517-1.742-0.438-2.616-0.653
	c0.011-0.738-0.851-0.478-1.308-0.981c-0.487-0.536-0.719-1.521-0.981-2.288c-0.252-0.738-0.765-1.398-0.328-1.962
	c1.233,1.274,2.31,2.705,4.579,2.942c0.653-0.36-0.398-1.757,0-2.942c0.963-0.892,1.458-2.249,2.943-2.616
	c0.005,1.423-1.011,1.823-0.655,3.598c0.265,0.909,1.149,0.982,1.962,1.309c1.24,0.494,2.542-0.244,3.925-1.309
	c0.194-0.149,0.463-0.535,0.653-0.654c1.41-0.881,2.704-1.702,4.252-1.635c0.62,0.025,1.419,0.625,1.961,0.653
	c0.422,0.022,0.409,0.531,0.654,0.654c0.359,0.18,1.008-0.214,0.98,0.327c1.418,0,2.834,0,4.25,0
	c0.041-1.457-0.807-2.028-0.979-3.271c-0.844-0.363-2.121-0.162-3.598-0.328c-0.705-0.078-2.148-0.332-2.616-0.652
	c-0.118-0.08-0.222-0.607-0.327-0.654c-0.156-0.069-0.521,0.104-0.653,0c-0.611-0.475-1.083-1.35-1.635-1.962
	c-0.654-0.729-1.339-1.153-1.635-1.962c-1.119,0.844-2.101,1.825-2.943,2.943c-0.817-0.623,0.407-1.419-0.327-2.29
	c-1.022-0.149-1.046,0.699-0.981,1.635c-1.283-0.027-2.039-0.576-2.944-0.981c-0.914,0.42,1.03,0.676,0.655,1.636
	c-1.272-0.256-2.49-0.563-3.271-1.31c-0.536-0.054-0.536,2.017,0,1.963c-0.682,0.974-1.332-0.821-2.289-0.653
	c-0.547,1.23,1.521,1.487,0.654,1.961c-1.847,0.104-2.09-1.397-3.27-1.961c-0.722,0.039-0.14,1.387-0.328,1.961
	c-0.811-0.17-1.165-0.797-1.635-1.308c-0.734,0.138-0.009,1.735-0.653,1.962c-0.576-0.079-0.746-0.563-0.655-1.308
	c-0.655,0.435-0.729,1.45-0.98,2.288c-0.403-0.144-0.672-0.42-0.654-0.98c-0.617-0.119-0.389,0.764-0.654,0.98
	c-0.048,0.039-0.296-0.049-0.327,0c-0.078,0.119,0.105,0.568,0,0.654c-0.602,0.491-1.342,1.332-1.963,2.289
	c-1.421-1.371,0.195-3.771-0.653-5.561c-2.889,0.163-2.008,4.097-2.617,6.541c-0.681,0.716-1.057-0.287-1.635,0.326
	c-0.338,0.861-0.391,2.007-0.328,3.271c-2.167-0.448-2.02-3.212-1.96-5.886c0.499-0.544,0.863-1.048,1.308-1.635
	c0.343-0.454,1.104-0.758,0.98-1.637c-1.068-1.031-1.975,0.488-2.616,0.981c-0.795,0.61-1.594,1.247-1.963,1.962
	c-0.435,0-0.871,0-1.308,0c-1.054,0.471-1.452,1.602-1.962,2.616c-1.919-1.692,0.003-3.474,0-5.886
	c1.055-1.127,3.461-0.9,4.578-1.963c-0.041-0.724-1.387-0.141-1.962-0.328c-0.281-0.264-0.194-0.896-0.654-0.98
	c-1.113-0.023-2.282-0.102-2.616,0.654c-0.745-0.001-0.206-1,0-1.308c0.399-0.599,1.436-2.106,2.944-1.962
	c0.334-0.319,0.662-0.646,0.98-0.98c1.296,0.491,1.88,0.816,2.943,1.635c0.179,0.137,0.482,0.56,0.655,0.654
	c0.252,0.138,0.715-0.113,0.98,0c0.144,0.062-0.012,0.296,0.328,0.327c0.522,0.05,0.571-0.255,0.981-0.327
	c0.747-0.13,1.149-0.018,1.962-0.327c1.062-0.401,2.339-1.419,3.598-2.289c1.076-0.745,2.217-1.545,3.271-2.29
	c0.184-0.13-0.054-0.306,0.327-0.327c0.101-0.004,0.54-0.251,0.654-0.327c0.219-0.145,0.453-0.521,0.655-0.653
	c0.215-0.143,0.419-0.178,0.653-0.328c0.155-0.098,0.243-0.277,0.328-0.328c0.24-0.141,0.707-0.137,0.981-0.327
	c0.117-0.081,0.223-0.607,0.326-0.654c0.451-0.203,0.748-0.257,1.309-0.654c0.557-0.394,0.94-1.049,1.634-0.981
	c-1.042-1.573-2.24-2.991-2.615-5.232c-0.655,0.435-0.729,1.451-0.981,2.289c-0.966-0.476-0.834-3.338-0.326-4.25
	c-1.029-0.048-1.124,0.838-1.308,1.635c-0.534-0.491-0.413-1.763-0.328-2.617c0.087-0.871,0.467-1.823,0.654-2.289
	c-1.25-0.051-1.062,1.335-1.635,1.961c-0.704-0.707-0.31-3.516,0-4.578c-0.556-0.12-0.617,0.255-0.654,0.654
	c-1.505-0.743-0.124-3.088-0.327-4.578c-0.984-0.33-0.579,0.729-0.654,1.308c-0.803-0.71-0.898-1.689-1.309-2.943
	c-0.162-0.5-0.128-1.436-0.327-1.963c-0.049-0.13-0.309,0.009-0.327-0.327c-0.053-0.993-1.17-1.434-2.29-1.962
	c-1.377,0.148-1.505,1.546-2.616,1.962c-1.172-0.518-2.767-0.101-3.598-0.654c-0.149-0.1-0.24-0.273-0.327-0.327
	c-0.146-0.092-0.845-0.187-0.98-0.327c-0.179-0.186-0.208-0.767-0.328-0.981c-0.079-0.142-0.444-0.294-0.326-0.654
	c1.107,0.091,1.877,0.52,3.269,0.327c0.44-0.215,0.61-0.699,0.655-1.309c1.213-0.313,2.431-0.62,3.271-1.308
	c-0.669-1.175-1.562-1.998-3.271-1.308c-0.863,0.1-0.845-0.683-0.981-1.308c-1.338,0.08-3.152-0.319-3.597,0.654
	c-0.765-0.681,0.698-1.899,0.98-2.616c0.279-0.21,1.096-0.068,1.308-0.327c0.36-0.439,0.679-0.113,1.309-0.328
	c0.47-0.159,0.917-0.965,1.635-0.654c-0.236-1.071-1.34-1.276-2.617-1.308c1.328-2.66,5.383-1.298,6.868,0.327
	c0.648-0.644,0.209-1.868,0-2.616c-0.362-0.222-1.697-1.086-0.981-1.309c3.112,0.049,3.879,2.442,4.904,4.579
	c-0.22,1.889-1.221,4.073,0.328,5.559c0.105,0.101,0.563-0.111,0.655,0c0.091,0.113,0.214,0.577,0.327,0.654
	c0.208,0.143,0.767,0.142,0.981,0.328c0.646,0.562,1.253,1.58,1.962,2.289c0.805,0.805,1.899,1.436,2.289,1.962
	c0.086,0.116-0.108,0.565,0,0.654c0.503,0.411,0.913,1.132,1.308,1.962c0.455,0.952,0.571,1.782,0.982,2.617
	c0.079,0.161,0.307-0.035,0.326,0.327c0.025,0.471,0.623,0.707,0.654,1.309c0.022,0.422,0.49,0.41,0.655,0.653
	c0.079,0.119-0.107,0.567,0,0.654c0.313,0.256,0.403,0.327,0.653,0.654c0.082,0.107,0.612,0.231,0.655,0.327
	c0.062,0.139-0.102,0.549,0,0.654c0.272,0.283,0.872,0.28,1.308,0.654c0.26,0.224,0.382,0.789,0.655,0.981
	c0.118,0.083,0.565-0.107,0.653,0c0.391,0.479,0.97,0.781,1.635,1.308c2.453-0.817,4.311-2.229,7.849-1.962
	c0.741-0.355,1.838-1.335,0.981-2.289c-0.007-0.571-1.603,0.253-2.29,0.327c-1.852,0.198-4.326-0.172-5.886,0.327
	c0.005-0.976,0.85-1.111,0.98-1.962c0.238-1-0.563-0.962-0.326-1.962c0.741,0.773,1.188,0.632,1.308-0.654
	c-0.687-0.821-2.191-0.05-3.597-0.328c0.027,0.006-0.164-0.286-0.328-0.327c-0.378-0.095-0.996-0.096-1.308-0.327
	c-1.097-0.813-1.813-3.641-1.308-5.232c0.035-0.109,0.311-0.009,0.327-0.327c0.032-0.61,0.611-1.24,1.635-1.309
	c-0.642,3.804,1.502,4.821,4.252,5.232c0.216-1.416-0.762-1.638-1.635-1.961c0-0.982,0-1.962,0-2.944
	c0.189-1.212-1.009-1.896-0.328-2.616c0.543-0.547,1.919-0.26,2.943-0.327c0.38-0.313,1.056-0.285,1.635-0.654
	c0.372-0.236,0.682-0.367,0.981-0.654c0.265-0.254,0.544-0.218,0.981-0.327c0.288-0.072,0.56-0.222,0.98-0.327
	c0.229-0.057,0.289-0.319,0.327-0.327c0.563-0.118,1.446,0.239,1.962,0c1.324-0.614,1.766-1.688,2.616-2.616
	c1.296,0.078,1.404,1.341,0.979,2.289c0.029,0.599,0.572,0.414,0.982,0.654c0.241,0.142,0.444,0.493,0.653,0.654
	c0.552,0.421,1.032,0.931,1.636,1.308c-0.236,1,0.564,0.961,0.327,1.962c1.035-0.381,2.574-0.259,2.942-1.308
	c0.996,0.911-0.207,2.39-0.98,2.616c0.941,1.347,1.21,3.369,1.635,5.232c0.25,0.842,1.045,1.137,2.289,0.981
	c-0.335,1.082-0.904,1.929-2.289,1.962c-0.197,2.158,0.455,3.469,1.309,4.578c1.305,0.18,0.986,0.18,2.289,0
	c-0.65,1.42-2.369,1.772-3.924,2.29c0.119,1.296-0.302,3.134,0.326,3.924c0.315,0.666,1.258,0.706,2.289,0.654
	c-0.365,1.377-2.447,1.04-3.597,1.635c0.313,1.431,0.969,2.519,2.289,2.943c-0.576,0.767-1.406,1.316-2.289,1.309
	c-1.32-0.012-1.986-1.462-2.942-1.962c0.055,1.293,0.567,2.281,1.309,3.27c0.16,0.214,0.544,0.479,0.654,0.655
	c0.071,0.119-0.105,0.568,0,0.653c0.441,0.363,0.555,0.584,0.979,1.309c0.104,0.176,0.308-0.047,0.327,0.327
	c0.008,0.152,0.242,0.475,0.326,0.654c0.113,0.244,0.154,0.679,0.326,0.981c0.078,0.136,0.604,0.212,0.654,0.327
	c0.078,0.173-0.097,0.491,0,0.654c0.12,0.203,0.561,0.473,0.654,0.654c0.234,0.442,0.093,0.849,0.326,1.308
	c0.106,0.208,0.563,0.476,0.654,0.654c0.229,0.447,0.092,0.849,0.326,1.308c0.111,0.217,0.553,0.469,0.654,0.654
	c0.064,0.119-0.102,0.571,0,0.653c0.1,0.081,0.595,0.229,0.654,0.327c0.213,0.349,0.105,0.678,0.326,0.979
	c0.295,0.406,0.738,1.056,1.31,1.636c0.733,0.75,1.334,1.043,2.288,1.637c0.179,0.109,0.496,0.582,0.654,0.652
	c0.176,0.08,0.463-0.047,0.653,0c0.833,0.209,3.11,0.521,4.578,0c1.214-0.431,1.872-1.242,2.942-2.289
	c0.441-0.431,0.996-0.574,1.31-0.979c0.21-0.272,0.156-0.709,0.327-0.981c0.109-0.18,0.582-0.496,0.652-0.652
	c0.08-0.178-0.047-0.467,0-0.654c0.201-0.799,0.529-3.036,0-4.252c-0.987-2.272-4.889-4.814-6.866-2.289
	c-0.148,1.782,0.804,2.467,1.962,2.943c-0.378,1.148-2.049,1.002-3.598,0.981c-0.143-0.396-0.724-0.376-0.98-0.655
	c-0.273-0.292-0.025-1.048-0.654-0.98c-2.039,0.932-0.998,3.872-0.654,5.886c-1.383-0.756-2.892-2.354-2.941-4.25
	c-0.047-1.642,0.943-2.742,1.635-3.924c-0.354-0.492-0.871-0.594-1.308-0.981c-0.363-0.323-0.42-0.865-0.981-0.982
	c0-0.98,0-1.962,0-2.943c0.924,1.148,1.832,2.313,3.598,2.616c0.863,0.1,0.844-0.682,0.98-1.308
	c0.818,0.055,1.023-0.502,1.309-0.981c-1.213-2.56-0.396-5.756,2.615-5.887c-0.853,1.831-1.258,3.902,0.328,5.233
	c2.448,0.275,4.061,1.389,5.559,2.616c-0.457-3.152-1.615-5.359-3.271-7.521c-0.476-0.622-1.088-1.409-1.635-1.962
	c-0.589-0.595-1.088-1.155-1.636-1.635c-0.393-0.343-0.896-0.301-1.309-0.654c-0.273-0.235-0.378-0.759-0.654-0.982
	c-0.111-0.092-0.563,0.11-0.652,0c-0.876-1.071-2.314-2.704-3.271-4.251c-0.133-0.217-0.179-0.423-0.326-0.654
	c-0.192-0.303-0.666-1.504-0.979-2.289c-0.163-0.407-0.838-2.016-0.981-2.943c-0.395-2.535-0.189-4.824,0.326-6.867
	c0.119-0.465,0.403-1.336,0.655-1.962c0.089-0.224,0.289-0.237,0.327-0.327c0.467-1.14,0.951-2.164,1.961-3.271
	c0.167-0.182,0.309,0.053,0.327-0.327c0.022-0.419,0.436-0.123,0.653-0.327c0.229-0.211,0.4-0.83,0.654-0.98
	c0.12-0.072,0.57,0.103,0.654,0c0.219-0.268,0.249-0.226,0.652-0.327c0.289-0.072,0.563-0.222,0.982-0.327
	c1.123-0.281,3.805-0.494,5.23-1.308c0.5-0.285,0.959-0.918,1.637-1.308c-0.094-0.528,0.309-0.564,0.327-0.982
	C82.041,1.273,82.041,0.946,82.041,0.619z M46.395,19.259c1.308,0,2.616,0,3.924,0c0-0.545,0-1.089,0-1.635
	C48.529,17.688,46.184,17.196,46.395,19.259z M46.722,23.511c1.976,0.014,3.879-0.045,3.924-1.962c-1.417,0-2.834,0-4.251,0
	C46.157,22.549,46.958,22.511,46.722,23.511z"/>
</svg>
