<?xml version="1.0" encoding="utf-8"?>
<!-- Generator: Adobe Illustrator 16.0.0, SVG Export Plug-In . SVG Version: 6.00 Build 0)  -->
<!DOCTYPE svg PUBLIC "-//W3C//DTD SVG 1.1//EN" "http://www.w3.org/Graphics/SVG/1.1/DTD/svg11.dtd">
<svg version="1.1"
	 id="svg153" xmlns:cc="http://creativecommons.org/ns#" xmlns:dc="http://purl.org/dc/elements/1.1/" xmlns:rdf="http://www.w3.org/1999/02/22-rdf-syntax-ns#"
	 xmlns="http://www.w3.org/2000/svg" xmlns:xlink="http://www.w3.org/1999/xlink" x="0px" y="0px" width="144px" height="108.5px"
	 viewBox="0 0 144 108.5" enable-background="new 0 0 144 108.5" xml:space="preserve">
<path fill="#081873" d="M0,0h144.002v54.063H0V0z M0,81.285h143.906v26.57H0V81.285z"/>
<rect y="53.816" fill="#FFFFFF" width="143.808" height="27.412"/>
<rect id="rect728" y="63.734" fill="#DE3929" width="143.818" height="8.353"/>
<path fill="#FFCE08" d="M63.811,84.087l1.401,4.312h4.534l-3.667,2.664l1.401,4.313l-3.668-2.665l-3.668,2.665l1.401-4.313
	l-3.667-2.664h4.534L63.811,84.087z M102.991,52.77l1.4,4.312h4.533l-3.667,2.665l1.4,4.313l-3.668-2.666l-3.667,2.666l1.399-4.313
	l-3.667-2.665h4.534L102.991,52.77z M54.827,70.664l1.401,4.313h4.533l-3.668,2.664l1.401,4.312l-3.668-2.664l-3.668,2.664
	l1.401-4.312l-3.668-2.664h4.533L54.827,70.664z M102.991,69.402l1.4,4.312h4.533l-3.667,2.665l1.4,4.313l-3.668-2.666l-3.667,2.666
	l1.399-4.313l-3.667-2.665h4.534L102.991,69.402z M93.071,39.641l1.4,4.313h4.533l-3.668,2.665l1.401,4.312l-3.668-2.664
	l-3.667,2.664l1.399-4.312l-3.668-2.665h4.533L93.071,39.641z M78.098,34.427l1.4,4.313h4.533l-3.666,2.665l1.398,4.312
	l-3.667-2.665l-3.668,2.665l1.4-4.312l-3.667-2.665h4.534L78.098,34.427z M63.123,39.348l1.401,4.313h4.533l-3.668,2.665
	l1.401,4.312l-3.667-2.664l-3.668,2.664l1.401-4.312l-3.668-2.665h4.533L63.123,39.348z M54.389,52.77l1.4,4.312h4.533l-3.668,2.665
	l1.401,4.313l-3.667-2.666l-3.668,2.666l1.401-4.313l-3.668-2.665h4.534L54.389,52.77z M78.098,88.563l1.4,4.312h4.533l-3.666,2.664
	l1.398,4.313l-3.667-2.666l-3.668,2.666l1.4-4.313l-3.667-2.664h4.534L78.098,88.563z M94.007,84.087l1.399,4.312h4.535
	l-3.668,2.664l1.4,4.313l-3.668-2.665l-3.667,2.665l1.4-4.313l-3.668-2.664h4.532L94.007,84.087z"/>
</svg>
