<?xml version="1.0" encoding="utf-8"?>
<!-- Generator: Adobe Illustrator 16.0.3, SVG Export Plug-In . SVG Version: 6.00 Build 0)  -->
<!DOCTYPE svg PUBLIC "-//W3C//DTD SVG 1.1//EN" "http://www.w3.org/Graphics/SVG/1.1/DTD/svg11.dtd">
<svg version="1.1" id="Layer_1" xmlns="http://www.w3.org/2000/svg" xmlns:xlink="http://www.w3.org/1999/xlink" x="0px" y="0px"
	 width="15px" height="15px" viewBox="0 0 15 15" enable-background="new 0 0 15 15" xml:space="preserve">
<path d="M7,4.5C7,5.328,6.328,6,5.5,6S4,5.328,4,4.5S4.672,3,5.5,3S7,3.672,7,4.5z M9.5,3C8.672,3,8,3.672,8,4.5S8.672,6,9.5,6
	C10.329,6,11,5.328,11,4.5S10.329,3,9.5,3z M6,8.5v3c-0.002,0.301,0.165,0.559,0.347,0.708c0.277,0.23,0.607,0.341,0.975,0.425
	c0.367,0.08,0.772,0.117,1.179,0.117c0.543-0.001,1.08-0.063,1.533-0.213c0.227-0.077,0.436-0.173,0.62-0.329
	c0.182-0.149,0.35-0.407,0.347-0.708v-3C11,8.224,10.776,8,10.5,8S10,8.224,10,8.5v3h0.127l-0.112-0.061L10,11.5h0.127l-0.112-0.061
	l0.034,0.019l-0.031-0.024l-0.003,0.006l0.034,0.019l-0.031-0.024c0.003,0.014-0.185,0.141-0.476,0.205
	C9.253,11.71,8.875,11.75,8.5,11.75c-0.458,0.001-0.919-0.062-1.217-0.162c-0.148-0.048-0.252-0.108-0.286-0.14l-0.015-0.015
	l-0.045,0.038l0.053-0.021l-0.008-0.017l-0.045,0.038l0.053-0.021L6.865,11.5H7l-0.009-0.05L6.865,11.5H7v-3C7,8.224,6.776,8,6.5,8
	S6,8.224,6,8.5z M8,8.5v2C8,10.776,8.224,11,8.5,11S9,10.776,9,10.5v-2C9,8.224,8.776,8,8.5,8S8,8.224,8,8.5 M3.5,9h8
	C11.776,9,12,8.776,12,8.5S11.776,8,11.5,8h-8C3.224,8,3,8.224,3,8.5S3.224,9,3.5,9 M14.5,7.5H14c0,1.797-0.727,3.418-1.903,4.597
	C10.918,13.273,9.297,14,7.5,14s-3.418-0.727-4.596-1.903C1.727,10.918,1,9.297,1,7.5s0.727-3.418,1.904-4.596
	C4.082,1.727,5.703,1,7.5,1s3.418,0.727,4.597,1.904C13.273,4.082,14,5.703,14,7.5H14.5H15C15,3.357,11.643,0,7.5,0
	C3.357,0,0,3.357,0,7.5C0,11.643,3.357,15,7.5,15S15,11.643,15,7.5H14.5z"/>
</svg>
