<?xml version="1.0" encoding="utf-8"?>
<!-- Generator: Adobe Illustrator 16.0.0, SVG Export Plug-In . SVG Version: 6.00 Build 0)  -->
<!DOCTYPE svg PUBLIC "-//W3C//DTD SVG 1.1//EN" "http://www.w3.org/Graphics/SVG/1.1/DTD/svg11.dtd">
<svg version="1.1" id="Layer_1" xmlns="http://www.w3.org/2000/svg" xmlns:xlink="http://www.w3.org/1999/xlink" x="0px" y="0px"
	 width="100px" height="100px" viewBox="0 0 100 100" enable-background="new 0 0 100 100" xml:space="preserve">
<g>
	<path fill="none" stroke="#000000" d="M89.541,28.377c1.486,5.65,2.051,10.105,1.695,13.366c-0.322,3.293,1.582,6.054,5.713,8.281
		c-4.131,2.195-6.035,4.94-5.713,8.233c0.354,3.294-0.209,7.749-1.695,13.365c-1.904,4.229-4.324,6.329-7.264,6.295
		c-2.939-0.031-4.568-0.208-4.891-0.531c0.354,0.323,0.53,1.952,0.53,4.892c0.033,2.938-2.065,5.359-6.295,7.264
		c-5.617,1.486-10.072,2.051-13.365,1.695c-3.293-0.322-6.039,1.582-8.233,5.715c-2.227-4.133-4.988-6.037-8.281-5.715
		c-3.261,0.354-7.716-0.209-13.366-1.695c-4.229-1.902-6.328-4.324-6.295-7.264c0.032-2.938,0.21-4.567,0.533-4.892
		c-0.323,0.355-1.954,0.531-4.892,0.531c-2.938,0.034-5.359-2.065-7.264-6.295c-1.485-5.616-2.05-10.071-1.695-13.365
		c0.323-3.293-1.582-6.038-5.714-8.233c4.132-2.227,6.037-4.988,5.714-8.281c-0.355-3.261,0.21-7.716,1.695-13.366
		c1.905-4.229,4.326-6.328,7.264-6.295s4.568,0.21,4.892,0.533c-0.355-0.323-0.533-1.953-0.533-4.892
		c-0.032-2.938,2.066-5.359,6.295-7.264c5.65-1.485,10.105-2.05,13.366-1.695c3.293,0.323,6.054-1.582,8.281-5.714
		c2.194,4.132,4.94,6.037,8.233,5.714c3.293-0.355,7.748,0.21,13.365,1.695c4.229,1.905,6.328,4.326,6.295,7.264
		c-0.03,2.938-0.209,4.568-0.53,4.892c0.321-0.355,1.95-0.533,4.891-0.533C85.217,22.049,87.637,24.148,89.541,28.377"/>
</g>
</svg>
