<?xml version="1.0" encoding="utf-8"?>
<!-- Generator: Adobe Illustrator 16.0.0, SVG Export Plug-In . SVG Version: 6.00 Build 0)  -->
<!DOCTYPE svg PUBLIC "-//W3C//DTD SVG 1.1//EN" "http://www.w3.org/Graphics/SVG/1.1/DTD/svg11.dtd">
<svg version="1.1" id="Layer_1" xmlns="http://www.w3.org/2000/svg" xmlns:xlink="http://www.w3.org/1999/xlink" x="0px" y="0px"
	 width="100px" height="100px" viewBox="0 0 100 100" enable-background="new 0 0 100 100" xml:space="preserve">
<path fill="#E64725" d="M90.143,75.545c0,0-29.022-8.646-37.875-30.265c-8.854-21.614-3.023-44.485-3.023-44.485
	S93.991,35.935,90.143,75.545z"/>
<path fill="#F1AC1E" d="M89.289,75.629c0,0-28.221-1.127-41.205-18.623C35.105,39.509,35.105,17.498,35.105,17.498
	S83.645,38.944,89.289,75.629z M90.305,74.656c0,0-20.75,19.154-42.304,15.963c-21.548-3.193-37.112-18.756-37.112-18.756
	S60.376,52.707,90.305,74.656z"/>
<path fill="#592975" d="M90.889,73.871c0,0-7.437,18.789-22.318,23.417c-14.887,4.628-29.75-0.579-29.75-0.579
	S64.784,69.005,90.889,73.871z"/>
<path fill="#119D49" d="M90.889,73.994c0,0-26.634,14.402-48.178,5.381C21.163,70.35,9.112,50.056,9.112,50.056
	S65.604,43.259,90.889,73.994z"/>
</svg>
