<?xml version="1.0" encoding="utf-8"?>
<!-- Generator: Adobe Illustrator 16.0.0, SVG Export Plug-In . SVG Version: 6.00 Build 0)  -->
<!DOCTYPE svg PUBLIC "-//W3C//DTD SVG 1.1//EN" "http://www.w3.org/Graphics/SVG/1.1/DTD/svg11.dtd">
<svg version="1.1" id="Layer_1" xmlns="http://www.w3.org/2000/svg" xmlns:xlink="http://www.w3.org/1999/xlink" x="0px" y="0px"
	 width="94px" height="79px" viewBox="0 0 94 79" enable-background="new 0 0 94 79" xml:space="preserve">
<g>
	<path d="M52.27,32.801c-1.886,0-2.115,0.229-2.115,2.115c0,1.887,0.229,2.116,2.115,2.116c1.889,0,2.117-0.229,2.115-2.116
		C54.385,33.03,54.158,32.801,52.27,32.801z"/>
	<path d="M58.616,39.046c-1.888,0-2.116,0.229-2.116,2.115c0,1.887,0.229,2.116,2.116,2.116c1.886,0,2.114-0.229,2.114-2.116
		C60.73,39.275,60.502,39.046,58.616,39.046z"/>
	<path d="M58.616,45.292c-1.888,0-2.116,0.228-2.116,2.114c0,1.888,0.229,2.115,2.116,2.115c1.886,0,2.114-0.228,2.114-2.115
		C60.73,45.52,60.502,45.292,58.616,45.292z"/>
	<path d="M52.27,45.292c-1.886,0-2.115,0.228-2.115,2.114c0,1.888,0.229,2.115,2.115,2.115c1.889,0,2.117-0.228,2.115-2.115
		C54.385,45.52,54.158,45.292,52.27,45.292z"/>
	<path d="M52.27,39.046c-1.886,0-2.115,0.229-2.115,2.115c0,1.887,0.229,2.116,2.115,2.116c1.889,0,2.117-0.229,2.115-2.116
		C54.385,39.275,54.158,39.046,52.27,39.046z"/>
	<path d="M66.02,17.491H51.213v10.375H66.02V17.491z M58.616,26.354h-5.994c-0.276,0-0.502-0.225-0.502-0.503
		c0-0.276,0.226-0.502,0.502-0.502h5.994c0.276,0,0.503,0.225,0.503,0.503C59.119,26.129,58.893,26.354,58.616,26.354z
		 M64.609,23.334l-11.987-0.001c-0.276,0-0.502-0.226-0.502-0.504c0-0.276,0.226-0.502,0.502-0.502h11.987
		c0.277,0,0.502,0.225,0.502,0.503S64.887,23.334,64.609,23.334z M64.609,20.313l-11.987-0.002c-0.276,0-0.502-0.226-0.502-0.504
		c0-0.276,0.226-0.502,0.502-0.502h11.987c0.277,0,0.502,0.226,0.502,0.504C65.111,20.088,64.887,20.313,64.609,20.313z"/>
	<path d="M58.616,32.801c-1.888,0-2.116,0.229-2.116,2.115c0,1.887,0.229,2.116,2.116,2.116c1.886,0,2.114-0.229,2.114-2.116
		C60.73,33.03,60.502,32.801,58.616,32.801z"/>
	<path d="M64.961,32.801c-1.886,0-2.113,0.229-2.113,2.115c0,1.887,0.227,2.116,2.113,2.116s2.115-0.229,2.115-2.116
		C67.076,33.03,66.85,32.801,64.961,32.801z"/>
	<path d="M64.961,45.292c-1.886,0-2.113,0.228-2.113,2.114c0,1.888,0.227,2.115,2.113,2.115s2.115-0.228,2.115-2.115
		C67.076,45.52,66.85,45.292,64.961,45.292z"/>
	<path d="M47.073,0c-21.815,0-39.5,17.685-39.5,39.5S25.258,79,47.073,79c21.816,0,39.5-17.685,39.5-39.5S68.889,0,47.073,0z
		 M24.253,58.043c-1.592-0.579-2.652-2.094-2.652-3.787c0-8.73,0-17.459,0-26.187c0-1.696,1.06-3.209,2.652-3.788
		c-0.535,1.301-0.789,2.581-0.789,3.988c0,8.596,0,17.19,0,25.788C23.464,55.46,23.718,56.742,24.253,58.043z M42.399,54.055
		c0,4.672-3.788,8.461-8.46,8.461s-8.461-3.789-8.461-8.461c0-8.597,0-17.192,0-25.787c0-4.67,3.788-8.46,8.461-8.46
		s8.46,3.789,8.46,8.46C42.399,36.864,42.399,45.458,42.399,54.055z M70.953,54.255c0,2.226-1.803,4.027-4.028,4.027
		c-7.802,0-15.604,0-23.404,0c0.606-1.374,0.892-2.726,0.892-4.228c0-8.598,0-17.193,0-25.788c0-1.5-0.286-2.855-0.892-4.229
		c2.228,0,4.456,0,6.684,0c0-2.517,0-5.035,0-7.553c5.605,0,11.214,0,16.818,0c0,2.518,0,5.036,0,7.555
		c2.188,0.054,3.931,1.842,3.93,4.028C70.953,36.797,70.953,45.525,70.953,54.255z"/>
	<path d="M64.961,39.046c-1.886,0-2.113,0.229-2.113,2.115c0,1.887,0.227,2.116,2.113,2.116s2.115-0.229,2.115-2.116
		C67.076,39.275,66.85,39.046,64.961,39.046z"/>
</g>
</svg>
