<?xml version="1.0" encoding="utf-8"?>
<!-- Generator: Adobe Illustrator 16.0.0, SVG Export Plug-In . SVG Version: 6.00 Build 0)  -->
<!DOCTYPE svg PUBLIC "-//W3C//DTD SVG 1.1//EN" "http://www.w3.org/Graphics/SVG/1.1/DTD/svg11.dtd">
<svg version="1.1"
	 id="svg3869" xmlns:cc="http://web.resource.org/cc/" xmlns:dc="http://purl.org/dc/elements/1.1/" xmlns:rdf="http://www.w3.org/1999/02/22-rdf-syntax-ns#" xmlns:inkscape="http://www.inkscape.org/namespaces/inkscape" xmlns:svg="http://www.w3.org/2000/svg" xmlns:sodipodi="http://sodipodi.sourceforge.net/DTD/sodipodi-0.dtd" sodipodi:version="0.32" inkscape:version="0.45pre1" sodipodi:modified="true"
	 xmlns="http://www.w3.org/2000/svg" xmlns:xlink="http://www.w3.org/1999/xlink" x="0px" y="0px" width="288.131px" height="288px"
	 viewBox="0 0 288.131 288" enable-background="new 0 0 288.131 288" xml:space="preserve">
<path id="path3326" d="M220.759,201.286c-32.353-3.964-53.682-34.921-45.648-66.271c3.754-14.655,12.105-25.245,27.112-34.381
	c0.575-0.352,0.579-0.498,0.021-1.831c-0.333-0.797-0.733-1.375-0.883-1.288c-0.151,0.088-16.091,5.356-35.419,11.703
	c-19.333,6.347-38.115,12.558-41.738,13.798c-3.624,1.24-7.075,2.258-7.665,2.258c-1.25,0-2.169-0.908-4.848-4.775
	c-6.416-9.271-14.462-17.263-22.055-21.908c-5.289-3.231-9.254-4.886-16.338-6.811c-3.658-0.995-17.251-0.991-21.585,0.002
	c-7.033,1.615-13.689,4.073-19.657,7.265l-3.229,1.73l-1.452-2.674c-0.8-1.471-1.452-2.74-1.452-2.822
	c0-0.313,6.891-3.742,10.696-5.319c8.392-3.481,15.488-5.115,23.685-5.449c16.931-0.689,32.101,5.66,45.472,19.033
	c3.812,3.81,8.956,9.993,10.976,13.191c0.576,0.913,1.144,1.659,1.259,1.659c0.119,0,1.356-0.386,2.75-0.857l2.539-0.859
	l-6.827-13.182l-6.829-13.18l-7.228-0.103c-9.516-0.138-9.015,0.301-9.189-8.045c-0.072-3.495,0.043-6.553,0.28-7.343
	c0.59-1.977,4.182-5.713,5.495-5.713c0.569,0,7.095,2.413,14.503,5.365c9.835,3.916,13.668,5.616,14.21,6.299
	c1.066,1.353,2.507,5.071,2.507,6.479c0,0.767-0.324,1.51-0.884,2.038c-0.828,0.777-1.254,0.832-6.685,0.832
	c-3.191,0-5.801,0.09-5.801,0.205c0,0.161,12.137,23.777,12.414,24.152c0.108,0.149,69.107-22.506,69.433-22.794
	c0.269-0.246-11.933-27.898-12.315-27.912c-0.106-0.004-1.912,1.366-4.012,3.044c-3.376,2.699-4.003,3.053-5.392,3.056
	c-1.329,0.002-22.233-4.766-22.628-5.163c-0.266-0.262,1.234-5.914,1.567-5.914c0.188,0,4.657,1.031,9.929,2.291
	c5.271,1.262,9.839,2.292,10.145,2.292c0.308,0,2.61-1.646,5.117-3.657c2.507-2.012,5.032-3.825,5.615-4.027
	c1.661-0.58,2.935,0.13,3.993,2.226c0.809,1.604,11.788,25.881,13.648,30.179l0.695,1.606l2.789-0.951
	c6.891-2.348,16.111-3.424,24.109-2.815c11.344,0.862,21.268,4.226,30.461,10.321c6.583,4.366,14.01,12.527,18.426,20.25l0.997,1.75
	l-2.728,1.558l-2.731,1.558l-1.746-2.925c-6.675-11.197-16.844-19.425-29.046-23.504c-7.769-2.598-18.567-3.574-26.359-2.382
	c-3.95,0.604-10.581,2.321-11.207,2.904c-0.25,0.231,0.142,1.486,0.681,2.185c0.039,0.049,2.062-0.417,4.501-1.031
	c16.119-4.072,33.18-0.639,46.029,9.269c10.695,8.247,18.142,20.94,20.196,34.432c3.483,22.875-8.575,45.729-29.448,55.816
	c-5.083,2.458-7.672,3.344-12.784,4.385C232.706,201.452,224.981,201.805,220.759,201.286z M234.747,194.598
	c18.958-3.307,34.103-18.051,38.011-37c0.915-4.442,1.094-12.459,0.373-16.849c-2.742-16.733-14.938-31.403-30.629-36.831
	c-4.93-1.707-8.477-2.362-14.021-2.596c-5.413-0.228-8.823,0.138-13.962,1.491c-2.364,0.625-2.957,0.917-2.821,1.406
	c0.092,0.342,3.402,7.793,7.354,16.563l7.182,15.946l1.367,0.229c3.438,0.573,5.983,2.206,7.647,4.895
	c3.584,5.797-0.335,13.957-7.19,14.987c-5.259,0.788-10.576-3.288-11.315-8.681c-0.35-2.521,0.627-5.698,2.32-7.573l1.331-1.471
	l-7.275-16.172c-4.002-8.894-7.396-16.295-7.553-16.442c-0.396-0.386-4.689,2.289-8.368,5.216
	c-8.686,6.905-14.815,17.249-16.725,28.226c-0.756,4.352-0.756,12.175,0,16.517c2.929,16.781,15,30.804,31.311,36.373
	c1.889,0.648,4.815,1.423,6.493,1.725C222.457,195.308,230.558,195.328,234.747,194.598z M229.191,149.374
	c2.24-2.239,1.013-5.588-2.204-6.022c-1.424-0.19-1.739-0.081-2.771,0.951c-1.589,1.59-1.608,3.511-0.048,5.071
	C225.71,150.913,227.656,150.913,229.191,149.374z M119.444,83.812c-0.489-0.487-19.165-7.777-19.461-7.593
	c-0.181,0.11-0.328,1.912-0.328,4v3.798h9.997C115.148,84.017,119.555,83.925,119.444,83.812z M52.282,199.768
	c-19.202-3.389-35.275-17.178-41.413-35.525c-2.049-6.124-2.685-10.283-2.658-17.382c0.033-9.288,1.598-15.799,5.774-24.01
	c9.116-17.924,26.979-28.889,47.115-28.923c6.109-0.009,9.41,0.432,14.867,1.978c8.267,2.348,16.047,6.872,22.382,13.017
	c7.283,7.067,12.226,15.539,14.687,25.178c0.414,1.623,0.753,3.391,0.753,3.929c0,0.71,0.236,1.029,0.86,1.154
	c0.473,0.094,6.707,0.352,13.848,0.569c9.45,0.291,13.606,0.561,15.25,0.994c6.483,1.707,11.629,6.613,13.776,13.143
	c0.947,2.869,0.959,8.343,0.03,11.093c-2.142,6.325-6.943,10.966-13.366,12.916c-1.161,0.352-3.318,0.583-5.377,0.57
	c-3.147-0.017-4.556-0.329-16.617-3.684c-7.249-2.019-13.235-3.504-13.302-3.302c-0.068,0.199-1.07,1.873-2.228,3.721
	c-10.131,16.136-26.886,25.39-45.785,25.291C58.226,200.484,54.604,200.177,52.282,199.768z M70.749,193.224
	c12.612-2.481,23.993-10.501,30.765-21.669c0.682-1.127,1.188-2.09,1.123-2.147c-0.066-0.054-9.917-2.801-21.895-6.103
	c-11.977-3.304-22.596-6.359-23.6-6.787c-2.218-0.951-4.924-3.847-5.554-5.939c-1.563-5.216,0.636-10.069,5.494-12.114
	c2.456-1.036,5.418-1.057,28.414-0.239c12.072,0.432,22,0.73,22.063,0.662c0.19-0.187-1.356-5.972-2.208-8.267
	c-1.089-2.93-3.87-8.081-5.857-10.85c-6.282-8.755-15.608-15.241-25.859-17.985c-26.857-7.187-53.819,10.072-58.605,37.511
	c-0.738,4.236-0.724,11.614,0.029,15.965c2.502,14.417,11.811,27.045,24.853,33.706C49.761,194,59.791,195.383,70.749,193.224z
	 M143.746,171.48c6.457-2.416,9.915-10.09,7.462-16.579c-1.035-2.753-3.596-5.616-6.275-7.024c-1.658-0.875-2.381-1.012-5.357-1.012
	c-3.054-0.003-3.688,0.125-5.678,1.132c-7.412,3.745-9.644,13.878-4.377,19.861C132.99,171.797,138.886,173.301,143.746,171.48z
	 M122.195,167.955c0-0.061-0.372-1.137-0.824-2.389c-0.532-1.465-0.888-3.541-1.002-5.818c-0.228-4.58,0.699-7.677,3.345-11.192
	c1.016-1.354,1.822-2.485,1.79-2.517c-0.225-0.213-54.982-2.07-55.185-1.872c-0.087,0.087,0.048,0.786,0.301,1.552
	c0.554,1.683,0.246,4.127-0.776,6.13c-0.407,0.803-0.65,1.548-0.539,1.66c0.18,0.178,27.335,7.74,38.562,10.736
	c2.312,0.617,6.266,1.715,8.787,2.439C120.998,167.93,122.195,168.205,122.195,167.955z M62.606,150.677
	c1.385-0.715,1.902-1.646,1.902-3.427c0-2.012-1.363-3.255-3.579-3.255c-1.432,0-1.859,0.188-2.691,1.175
	c-1.404,1.664-1.305,3.17,0.308,4.783C59.976,151.385,60.917,151.552,62.606,150.677z"/>
</svg>
