<?xml version="1.0" encoding="utf-8"?>
<!-- Generator: Adobe Illustrator 15.1.0, SVG Export Plug-In . SVG Version: 6.00 Build 0)  -->
<!DOCTYPE svg PUBLIC "-//W3C//DTD SVG 1.1//EN" "http://www.w3.org/Graphics/SVG/1.1/DTD/svg11.dtd">
<svg version="1.1" id="Layer_1" xmlns="http://www.w3.org/2000/svg" xmlns:xlink="http://www.w3.org/1999/xlink" x="0px" y="0px"
	 width="100px" height="100px" viewBox="0 0 100 100" enable-background="new 0 0 100 100" xml:space="preserve">
<path d="M51.997,6.824l3.188,2.657c0,0,6.292,2.235,7.526,3.188c1.235,0.952,2.367,3.073,2.569,3.188c0.202,0.114,1.771,0,1.771,0
	s0.84-0.377,1.239-0.443c0.399-0.067,3.006,0.328,3.985,0.531s3.014,2.056,3.276,2.303c1.931-0.608,4.025,0.015,4.429,0.886
	c0.404,0.871-1.285,3.089-1.24,3.454c1.395,2.419,1.264,5.855,1.507,6.2s1.689,1.815,1.682,2.48
	c-0.005,0.665-0.582,7.717-0.176,9.033c0.405,1.318,0.771,6.115,0.796,6.554c0.025,0.441,7.733-0.604,7.795-4.251
	c0.322,0.118,0.267,0.014,0.709,0.355c-0.476,3.85-6.662,4.374-7.174,4.517c-0.515,0.144-1.354,1.984-1.95,1.595
	c-0.594-0.389-0.222-1.149-0.531-1.152c-0.308-0.002-2.769,0.002-2.833,0.354c-0.065,0.351-0.492,0.892-0.532,1.329
	c-0.04,0.436-3.005,5.161-3.276,5.491c-0.272,0.329,3.153,4.221,3.012,6.642c-0.143,2.422-0.467,9.064-0.998,10.273
	c-0.532,1.212-2.398,4.341-2.545,5.581c-0.148,1.241-4.576,9.27-5.757,10.451c-1.18,1.181-1.949,3.896-2.48,4.34
	c0.179,0.205,4.782,2.392,4.693,3.896c-0.088,1.506-0.855,3.159-4.959,3.188c-4.104,0.028-7.351-2.864-8.059-3.012
	c-0.709-0.147-6.26,0.679-7.086-1.328c-0.827-2.009,0.236-2.954,0.443-3.542c-0.089-2.244,0.797-4.076,1.239-4.252
	c-0.147-0.473,0.03-1.653,0.53-2.392c0.503-0.738,1.861-1.682,2.569-1.771c0.708-0.088,2.54-3.514,2.924-4.604
	c0.384-1.093,1.978-2.923,2.833-3.277c0.147-0.06,2.51-7.146,2.303-7.793c-0.206-0.65-2.214-1.95-2.568-1.771
	c-0.354,0.177-1.417,2.183-1.771,2.567c-0.354,0.385-4.073,1.387-4.34,1.947c-0.915,8.002-4.398,16.445-4.162,16.918
	c0.235,0.472,0.531,2.361,0.177,3.011c-0.354,0.65-1.771,3.366-1.771,3.897c0,0.532,0.118,2.066,0.266,3.986
	c0.148,1.917-1.8,1.268-1.86-0.089c-0.059-1.359-0.472-2.835-0.62-3.277c-0.147-0.444-0.797-1.034-1.506-0.975
	s-4.163,3.099-5.226,3.542c-2.126,0.621-2.702-0.885-2.303-0.885c1.595,0.044,3.056-0.809,2.923-0.987
	c-0.133-0.177-0.576,0.146-1.506,0.013c-0.93-0.134-1.063-1.152-0.708-1.152c0.354,0,1.992,0.045,2.391,0
	c0.398-0.043,0.619-0.886,0.886-1.062c0.265-0.177,1.019,0.088,1.417-0.354c0.399-0.442,4.073-4.517,3.985-6.112
	c-0.088-1.593,0.502-14.199,1.063-15.409c0.561-1.211,2.982-8.356,3.1-8.855c0.118-0.504-2.597-2.334-2.657-1.773
	C48.571,61.234,31.271,73.22,28.969,73.16c-2.302-0.06-3.365-0.413-4.605-0.974c-2.952-1.742-3.957-9.536-3.986-10.186
	c-0.028-0.648-0.561-3.484-0.974-3.72c-0.412-0.235-1.18-1.299-1.063-1.771c0.119-0.474,0.119-3.427,0.443-4.252
	c0.325-0.827,1.21-2.421,1.506-2.657c0.296-0.235,0.177-1.063,0.177-1.329c0-0.265-1.239,0.147-1.505-0.177
	c-0.267-0.326-0.562-1.387-0.442-2.125c-0.355-0.208-3.543-0.975-3.986-1.063c-0.443-0.089-0.324-0.501-0.709-0.532
	c-0.384-0.029-2.302,0.621-2.302,0.621s-3.868,0.531-2.125-2.657c1.741-3.188,6.701-4.074,7.882-4.074
	c1.182,0,6.495-3.66,8.945-0.886c0.384,0.767-0.088,2.125,0.266,2.658c0.354,0.531-0.059,3.836-0.443,4.427
	c-0.385,0.59,0,2.746,0,2.746s2.155,1.151,2.302,2.657c0.148,1.506-0.088,2.657-0.088,2.657s1.24,2.037,1.417,2.568
	c0.178,0.531,0.06,0.944,0.178,1.151c0.118,0.206,0.619-0.088,0.619-0.088s0.09-1.536,0.266-1.949
	c0.177-0.413,4.37-2.361,4.163-3.01c-0.207-0.651-0.207-1.005,0-1.595c0.207-0.59,4.959-4.34,4.959-4.34s0.089-2.863,1.064-4.074
	c0.973-1.211,2.568-2.334,3.188-2.568c0.619-0.236,4.34-4.548,6.11-5.313c1.773-0.768,5.906-1.595,6.201-2.657
	c0.294-1.063,2.361-5.019,3.72-5.315c0.59-0.176,1.97-0.472,1.97-0.472s-0.08-1.831-0.106-4.509c-0.438-0.08-8.025-5.92-8.91-6.654
	c-0.884-0.736-3.012-2.015-3.274-1.933c-0.263,0.082-2.291-0.05-2.95,0c-0.662,0.048-1.992,1.555-2.847,2.146
	c-0.854,0.592-1.568-0.068-0.858-0.697c0.71-0.63,2.171-1.892,2.63-2.362c0.458-0.471-0.067-0.675-0.646-0.59
	c-0.577,0.085-3.381,0.865-4.185,1.02c-0.805,0.155-1.128-0.646-0.323-0.912c0.805-0.266,4.007-1.534,4.24-1.664
	c0.234-0.131,0.126-0.394-0.107-0.429c-0.234-0.036-4.447-0.489-5.045-0.538c-0.597-0.048-0.548-1.13,0.644-1.073
	c1.192,0.056,4.34,0.172,4.776,0.107c0.438-0.065,0.514-0.294,0.108-0.644c-0.404-0.35-3.359-2.761-3.864-3.221
	c-0.505-0.46,0.21-1.374,1.396-0.536c0.76,0.477,3.66,2.403,4.455,2.845c0.796,0.44,1.464-0.114,1.611-0.645
	c0.146-0.53,0.148-0.32,0.215-2.147c0.066-1.826,1.537-2.297,1.61-1.556s-0.073,2.695,0,3.112c0.073,0.418,0.549,1.121,0.912,1.664
	S51.997,6.824,51.997,6.824z M79.895,43.226c0.133,0.214,1.276,0.478,1.771,1.239c0.069-0.32-0.649-3.751-1.241-4.34
	C79.836,39.537,79.762,43.009,79.895,43.226z M80.071,44.111c-1.39,0.114-1.342,2.727-1.329,3.1
	c0.017,0.372,2.446,0.152,2.746,0.088S81.826,43.994,80.071,44.111z"/>
</svg>
