<?xml version="1.0" encoding="utf-8"?>
<!-- Generator: Adobe Illustrator 16.0.0, SVG Export Plug-In . SVG Version: 6.00 Build 0)  -->
<!DOCTYPE svg PUBLIC "-//W3C//DTD SVG 1.1//EN" "http://www.w3.org/Graphics/SVG/1.1/DTD/svg11.dtd">
<svg version="1.1" id="Layer_1" xmlns="http://www.w3.org/2000/svg" xmlns:xlink="http://www.w3.org/1999/xlink" x="0px" y="0px"
	 width="205.344px" height="314.163px" viewBox="47.328 -9.323 205.344 314.163"
	 enable-background="new 47.328 -9.323 205.344 314.163" xml:space="preserve">
<path fill="none" stroke="#000000" stroke-width="10" d="M100.178,299.235c-10.039,0.342-24.73-4.845-14.466-16.415
	c11.174-4.404-1.986-19.004,9.212-25.881c8.989-12.8,21.206-24.488,24.892-40.119c-0.573-10.601-13.226-16.874-7.189-28.607
	c-5.922-18.776-4.554-40.388,6.258-57.267c9.18-15.677,20.326-32.287,19.151-51.258c-11.514,4.808-23.702,9.021-36.373,6.837
	c-11.913-1.106-22.598,8.54-34.75,3.295c-12.318-2.559-19.645-19.029-10.46-28.657c10.037-8.573,24.783-8.85,34.355-18.417
	c12.629-10.461,24.311-24.612,41.717-26.461c7.693-1.761,10.993-9.492,15.252-15.285c3.539,9.188,9.694,17.313,18.958,21.387
	c18.838,10.912,23.527,33.98,30.475,52.944c5.137,14.852,9.416,30.358,18.018,43.617c0.091,6.363-9.563,9.053-3.043,16.513
	c3.392,20.232,3.538,40.951,3.237,61.419c-5.72,10.017-10.931,21.197-3.3,32.693c5.097,14.051,17.79,23.267,24.035,36.525
	c3.53,6.865-6.882,16.833,6.091,15.106c11.848,6.269,2.281,21.568-9.502,17.117C188.587,299.445,144.331,300.566,100.178,299.235z"
	/>
</svg>
