<?xml version="1.0" encoding="utf-8"?>
<!-- Generator: Adobe Illustrator 16.0.0, SVG Export Plug-In . SVG Version: 6.00 Build 0)  -->
<!DOCTYPE svg PUBLIC "-//W3C//DTD SVG 1.1//EN" "http://www.w3.org/Graphics/SVG/1.1/DTD/svg11.dtd">
<svg version="1.1" id="Layer_1" xmlns="http://www.w3.org/2000/svg" xmlns:xlink="http://www.w3.org/1999/xlink" x="0px" y="0px"
	 width="155.268px" height="308.513px" viewBox="72.367 -3.999 155.268 308.513"
	 enable-background="new 72.367 -3.999 155.268 308.513" xml:space="preserve">
<path fill="none" stroke="#000000" stroke-width="10" d="M96.711,298.783c-12.19-1.978-21.581-13.65-18.877-26.144
	c3.2-16.488,18.163-28.109,32.827-34.563c11.862-4.833,26.353-5.635,37.637,1.139c0.449-79.355,0.195-158.715,0.264-238.072
	c3.98-0.17,8.543-1,7.455,4.604c0.324,13.213,8.162,24.355,17.9,32.621c20.688,19.079,43.621,41.151,45.443,71.034
	c1.947,11.708-4.328,23.23-1.67,34.596c2.535,11.202,1.779,22.831,0.178,34.09c7.533,20.208,5.715,43.477-2.492,63.208
	c0.758,6.167-13.84,16.229-7.445,5.95c8.635-18.745,13.178-41.801,3.814-61.089c-11.34-18.695-31.977-28.281-48.898-41.045
	c-11.775-11.867-5.428,11.19-7.184,18.063c-0.262,33.718-0.281,67.436-0.41,101.152c-5.271,12.845-14.945,23.719-27.828,29.295
	C117.979,298.032,107.129,300.948,96.711,298.783L96.711,298.783z M211.577,153.435c-7.299-26.186-30.52-43.933-53.188-56.723
	c-6.205-0.868,1.84,14.154,3.582,18.806c8.119,15.928,24.109,25.329,35.639,38.484c5.029,4.168,10.756,12.771,14.68,15.071
	C212.86,163.885,212.516,158.563,211.577,153.435z M212.495,117.714c-0.115-22.009-16.641-39.552-32.656-52.651
	c-7.469-4.944-16.5-13.271-24.17-14.269c1.459,12.251,6.949,24.248,17.035,31.762c14.35,13.932,29.521,27.828,39.479,45.324
	C213.329,124.839,212.313,120.959,212.495,117.714z"/>
</svg>
