<?xml version="1.0" encoding="utf-8"?>
<!-- Generator: Adobe Illustrator 16.0.0, SVG Export Plug-In . SVG Version: 6.00 Build 0)  -->
<!DOCTYPE svg PUBLIC "-//W3C//DTD SVG 1.1//EN" "http://www.w3.org/Graphics/SVG/1.1/DTD/svg11.dtd">
<svg version="1.1" id="Layer_1" xmlns="http://www.w3.org/2000/svg" xmlns:xlink="http://www.w3.org/1999/xlink" x="0px" y="0px"
	 width="100px" height="100px" viewBox="0 0 100 100" enable-background="new 0 0 100 100" xml:space="preserve">
<path d="M12.032,5.939c0,0-1.965,1.261-4.295,0.449C5.408,5.576,4.318,3.995,4.318,3.995S3.591,2.926,2.544,2.884
	C1.498,2.841,0.813,3.482,0.728,4.166s0.278,1.859,1.625,2.029c0,0,0.94,0.15,1.539-0.812c0,0,0.085-0.171,0-0.192
	C3.805,5.17,3.677,5.298,3.57,5.405C3.463,5.512,2.908,6.046,2.288,5.854s-0.79-0.791-0.769-1.068
	c0.021-0.278,0.192-0.919,0.939-0.94c0.749-0.022,1.262,0.448,1.475,0.64c0.214,0.192,1.838,1.582,3.782,2.116
	c1.945,0.534,3.568-0.022,4.359-0.556C12.075,6.046,12.267,5.854,12.032,5.939z M6.967,5.939c0,0-2.329-1.111-2.158-2.2
	c0.171-1.09,1.539-0.428,1.774-0.021c0,0,0.085,0.064,0.042,0.149C6.583,3.952,6.369,3.824,6.369,3.824s-0.876-0.32-1.047,0.192
	C5.152,4.529,6.071,5.405,6.967,5.939z M4.554,3.824c0,0,0.341-1.025-0.492-1.474C4.062,2.35,3.741,3.29,4.554,3.824z M1.24,2.879
	c0,0,1.966-1.261,4.295-0.449c2.33,0.813,3.419,2.393,3.419,2.393s0.726,1.069,1.773,1.112c1.047,0.042,1.73-0.599,1.816-1.282
	s-0.278-1.859-1.624-2.03c0,0-0.94-0.149-1.538,0.812c0,0-0.086,0.17,0,0.192c0.084,0.021,0.213-0.106,0.32-0.213
	s0.663-0.641,1.282-0.449c0.62,0.192,0.791,0.791,0.77,1.068c-0.022,0.278-0.192,0.918-0.94,0.94s-1.26-0.449-1.475-0.641
	C9.125,4.14,7.501,2.751,5.557,2.217C3.613,1.683,1.989,2.238,1.198,2.772C1.198,2.772,1.005,2.965,1.24,2.879z M6.305,2.879
	c0,0,2.329,1.111,2.158,2.201S6.925,5.507,6.689,5.102c0,0-0.085-0.064-0.043-0.15c0.043-0.085,0.257,0.043,0.257,0.043
	s0.875,0.32,1.047-0.192C8.121,4.29,7.202,3.414,6.305,2.879z M8.719,4.995c0,0-0.342,1.025,0.492,1.474
	C9.211,6.469,9.531,5.529,8.719,4.995z M24.437,5.939c0,0-1.966,1.261-4.295,0.449s-3.419-2.393-3.419-2.393
	s-0.726-1.069-1.773-1.111c-1.047-0.043-1.731,0.598-1.817,1.281c-0.085,0.684,0.278,1.859,1.625,2.03c0,0,0.94,0.15,1.539-0.812
	c0,0,0.085-0.171,0-0.192c-0.086-0.022-0.214,0.106-0.32,0.213s-0.663,0.641-1.283,0.448c-0.619-0.192-0.79-0.791-0.769-1.068
	c0.021-0.278,0.192-0.919,0.939-0.94c0.749-0.021,1.261,0.448,1.475,0.641c0.214,0.193,1.838,1.582,3.782,2.116
	c1.945,0.534,3.569-0.022,4.359-0.556C24.479,6.046,24.672,5.854,24.437,5.939z M19.372,5.939c0,0-2.328-1.111-2.158-2.2
	c0.171-1.09,1.539-0.428,1.774-0.021c0,0,0.085,0.064,0.042,0.149c-0.042,0.086-0.256-0.042-0.256-0.042s-0.876-0.32-1.048,0.192
	C17.557,4.529,18.476,5.405,19.372,5.939z M16.958,3.824c0,0,0.341-1.025-0.492-1.474C16.467,2.35,16.146,3.29,16.958,3.824z
	 M13.646,2.879c0,0,1.965-1.261,4.295-0.449c2.329,0.813,3.419,2.393,3.419,2.393s0.726,1.069,1.773,1.112
	c1.047,0.042,1.731-0.599,1.817-1.282c0.086-0.683-0.278-1.859-1.625-2.03c0,0-0.94-0.149-1.538,0.812c0,0-0.085,0.17,0,0.192
	S22,3.521,22.107,3.414s0.663-0.641,1.283-0.449c0.62,0.192,0.79,0.791,0.769,1.068c-0.021,0.278-0.192,0.918-0.94,0.94
	c-0.749,0.021-1.261-0.449-1.474-0.641c-0.214-0.192-1.839-1.582-3.783-2.116c-1.944-0.534-3.568,0.021-4.358,0.556
	C13.603,2.772,13.411,2.965,13.646,2.879z M18.71,2.879c0,0,2.329,1.111,2.158,2.201c-0.171,1.09-1.538,0.427-1.773,0.021
	c0,0-0.086-0.064-0.043-0.15c0.043-0.085,0.256,0.043,0.256,0.043s0.877,0.32,1.047-0.192C20.525,4.29,19.607,3.414,18.71,2.879z
	 M21.124,4.995c0,0-0.342,1.025,0.492,1.474C21.616,6.469,21.936,5.529,21.124,4.995z M36.842,5.939c0,0-1.965,1.261-4.295,0.449
	c-2.329-0.812-3.418-2.393-3.418-2.393s-0.727-1.069-1.774-1.111c-1.047-0.043-1.73,0.598-1.815,1.281
	c-0.086,0.684,0.278,1.859,1.623,2.03c0,0,0.94,0.15,1.54-0.812c0,0,0.084-0.171,0-0.192c-0.085-0.022-0.215,0.106-0.321,0.213
	c-0.107,0.107-0.663,0.641-1.283,0.448C26.48,5.66,26.308,5.061,26.33,4.784c0.021-0.278,0.192-0.919,0.94-0.94
	s1.26,0.448,1.475,0.641c0.213,0.192,1.838,1.582,3.782,2.116c1.945,0.534,3.569-0.022,4.359-0.556
	C36.884,6.046,37.077,5.854,36.842,5.939z M31.778,5.939c0,0-2.329-1.111-2.158-2.2c0.171-1.09,1.538-0.428,1.773-0.021
	c0,0,0.085,0.064,0.043,0.149c-0.043,0.086-0.257-0.042-0.257-0.042s-0.876-0.32-1.047,0.192
	C29.961,4.529,30.881,5.405,31.778,5.939z M29.364,3.824c0,0,0.342-1.025-0.492-1.474C28.872,2.35,28.552,3.29,29.364,3.824z
	 M26.051,2.879c0,0,1.965-1.261,4.294-0.449c2.33,0.813,3.419,2.393,3.419,2.393s0.727,1.069,1.773,1.112
	c1.047,0.042,1.731-0.599,1.816-1.282s-0.278-1.859-1.625-2.03c0,0-0.939-0.149-1.538,0.812c0,0-0.085,0.17,0,0.192
	c0.085,0.021,0.213-0.106,0.32-0.213c0.108-0.107,0.663-0.641,1.283-0.449c0.62,0.192,0.791,0.791,0.77,1.068
	c-0.022,0.278-0.192,0.918-0.94,0.94s-1.261-0.449-1.475-0.641S32.31,2.75,30.366,2.216c-1.945-0.534-3.568,0.021-4.359,0.556
	C26.008,2.772,25.816,2.965,26.051,2.879z M31.115,2.879c0,0,2.33,1.111,2.158,2.201s-1.538,0.427-1.774,0.021
	c0,0-0.085-0.064-0.042-0.15c0.042-0.085,0.256,0.043,0.256,0.043s0.876,0.32,1.047-0.192C32.93,4.29,32.012,3.414,31.115,2.879z
	 M33.529,4.995c0,0-0.341,1.025,0.491,1.474C34.021,6.469,34.342,5.529,33.529,4.995z M49.247,5.939c0,0-1.965,1.261-4.294,0.449
	c-2.33-0.812-3.419-2.393-3.419-2.393s-0.726-1.069-1.773-1.111c-1.048-0.043-1.731,0.598-1.816,1.281
	c-0.086,0.684,0.278,1.859,1.624,2.03c0,0,0.94,0.15,1.539-0.812c0,0,0.085-0.171,0-0.192c-0.085-0.022-0.214,0.106-0.32,0.213
	c-0.107,0.107-0.663,0.641-1.282,0.448c-0.62-0.192-0.792-0.791-0.769-1.068c0.021-0.278,0.191-0.919,0.939-0.94
	c0.749-0.021,1.261,0.448,1.475,0.641c0.214,0.192,1.838,1.582,3.783,2.116C46.876,7.136,48.5,6.58,49.29,6.046
	C49.29,6.046,49.483,5.854,49.247,5.939z M44.183,5.939c0,0-2.329-1.111-2.158-2.2c0.171-1.09,1.539-0.428,1.774-0.021
	c0,0,0.085,0.064,0.042,0.149c-0.042,0.086-0.256-0.042-0.256-0.042s-0.876-0.32-1.047,0.192
	C42.367,4.529,43.286,5.405,44.183,5.939z M41.769,3.824c0,0,0.342-1.025-0.491-1.474C41.277,2.35,40.957,3.29,41.769,3.824z
	 M38.456,2.879c0,0,1.966-1.261,4.295-0.449c2.33,0.813,3.418,2.393,3.418,2.393s0.727,1.069,1.774,1.112
	c1.046,0.042,1.73-0.599,1.816-1.282c0.085-0.684-0.278-1.859-1.625-2.03c0,0-0.94-0.149-1.538,0.812c0,0-0.085,0.17,0,0.192
	s0.213-0.106,0.32-0.213s0.662-0.641,1.282-0.449c0.62,0.192,0.79,0.791,0.769,1.068c-0.021,0.278-0.192,0.918-0.94,0.94
	c-0.748,0.021-1.261-0.449-1.475-0.641C46.338,4.14,44.714,2.75,42.77,2.216c-1.945-0.534-3.568,0.021-4.359,0.556
	C38.414,2.772,38.221,2.965,38.456,2.879z M43.52,2.879c0,0,2.33,1.111,2.158,2.201c-0.171,1.09-1.538,0.427-1.773,0.021
	c0,0-0.085-0.064-0.043-0.15c0.043-0.085,0.256,0.043,0.256,0.043s0.877,0.32,1.047-0.192C45.336,4.29,44.417,3.414,43.52,2.879z
	 M45.934,4.995c0,0-0.341,1.025,0.492,1.474C46.426,6.469,46.747,5.529,45.934,4.995z M61.652,5.939c0,0-1.967,1.261-4.297,0.449
	c-2.328-0.812-3.418-2.393-3.418-2.393s-0.727-1.069-1.772-1.111c-1.047-0.043-1.73,0.598-1.816,1.281
	c-0.085,0.684,0.278,1.859,1.624,2.03c0,0,0.94,0.15,1.539-0.812c0,0,0.086-0.171,0-0.192c-0.086-0.022-0.215,0.106-0.32,0.213
	c-0.106,0.107-0.662,0.641-1.282,0.448c-0.62-0.192-0.79-0.791-0.769-1.068c0.021-0.278,0.191-0.919,0.938-0.94
	c0.748-0.021,1.261,0.448,1.476,0.641c0.213,0.192,1.838,1.582,3.781,2.116c1.943,0.534,3.568-0.022,4.359-0.556
	C61.695,6.046,61.889,5.854,61.652,5.939z M56.589,5.939c0,0-2.33-1.111-2.159-2.2c0.172-1.09,1.538-0.428,1.774-0.021
	c0,0,0.085,0.064,0.043,0.149c-0.043,0.086-0.257-0.042-0.257-0.042s-0.877-0.32-1.047,0.192
	C54.771,4.529,55.691,5.405,56.589,5.939z M54.174,3.824c0,0,0.342-1.025-0.492-1.474C53.682,2.35,53.361,3.29,54.174,3.824z
	 M50.861,2.879c0,0,1.965-1.261,4.295-0.449c2.328,0.813,3.419,2.393,3.419,2.393s0.727,1.069,1.772,1.112
	c1.047,0.043,1.731-0.599,1.816-1.282c0.086-0.684-0.277-1.859-1.624-2.03c0,0-0.938-0.149-1.539,0.812c0,0-0.085,0.17,0,0.192
	c0.086,0.021,0.214-0.106,0.319-0.213c0.109-0.107,0.664-0.641,1.283-0.449c0.619,0.192,0.791,0.791,0.77,1.068
	c-0.021,0.278-0.191,0.918-0.939,0.94c-0.748,0.021-1.262-0.449-1.476-0.641c-0.213-0.192-1.837-1.582-3.782-2.116
	c-1.943-0.534-3.568,0.021-4.357,0.556C50.818,2.772,50.625,2.965,50.861,2.879z M55.926,2.879c0,0,2.328,1.111,2.157,2.201
	s-1.538,0.427-1.772,0.021c0,0-0.086-0.064-0.043-0.15c0.043-0.085,0.256,0.043,0.256,0.043s0.877,0.32,1.047-0.192
	C57.74,4.29,56.822,3.414,55.926,2.879z M58.34,4.995c0,0-0.341,1.025,0.491,1.474C58.831,6.469,59.15,5.529,58.34,4.995z
	 M74.057,5.939c0,0-1.965,1.261-4.293,0.449c-2.33-0.812-3.42-2.393-3.42-2.393s-0.727-1.069-1.773-1.111
	c-1.047-0.043-1.729,0.598-1.815,1.281c-0.086,0.684,0.277,1.859,1.624,2.03c0,0,0.939,0.15,1.539-0.812c0,0,0.084-0.171,0-0.192
	c-0.086-0.022-0.214,0.106-0.32,0.213s-0.664,0.641-1.281,0.448c-0.621-0.192-0.793-0.791-0.771-1.068
	c0.021-0.278,0.19-0.919,0.938-0.94s1.263,0.448,1.476,0.641s1.838,1.582,3.782,2.116c1.945,0.534,3.568-0.022,4.359-0.556
	C74.102,6.046,74.293,5.854,74.057,5.939z M68.993,5.939c0,0-2.329-1.111-2.158-2.2c0.172-1.09,1.539-0.428,1.774-0.021
	c0,0,0.084,0.064,0.041,0.149c-0.041,0.086-0.256-0.042-0.256-0.042s-0.877-0.32-1.047,0.192
	C67.178,4.529,68.096,5.405,68.993,5.939z M66.579,3.824c0,0,0.341-1.025-0.491-1.474C66.088,2.35,65.768,3.29,66.579,3.824z
	 M63.268,2.879c0,0,1.965-1.261,4.295-0.449c2.328,0.813,3.418,2.393,3.418,2.393s0.728,1.069,1.773,1.112s1.73-0.599,1.816-1.282
	c0.084-0.684-0.278-1.859-1.625-2.03c0,0-0.939-0.149-1.538,0.812c0,0-0.085,0.17,0,0.192s0.214-0.106,0.321-0.213
	c0.105-0.107,0.662-0.641,1.28-0.449c0.62,0.192,0.791,0.791,0.771,1.068c-0.021,0.278-0.192,0.918-0.94,0.94
	c-0.747,0.021-1.261-0.449-1.474-0.641c-0.215-0.192-1.84-1.582-3.783-2.116c-1.943-0.534-3.566,0.021-4.357,0.556
	C63.225,2.772,63.031,2.965,63.268,2.879z M68.331,2.879c0,0,2.329,1.111,2.157,2.201c-0.17,1.09-1.538,0.427-1.773,0.021
	c0,0-0.086-0.064-0.043-0.15c0.043-0.085,0.258,0.043,0.258,0.043s0.877,0.32,1.047-0.192C70.146,4.29,69.229,3.414,68.331,2.879z
	 M70.744,4.995c0,0-0.342,1.025,0.492,1.474C71.236,6.469,71.559,5.529,70.744,4.995z M86.463,5.939c0,0-1.966,1.261-4.295,0.449
	s-3.419-2.393-3.419-2.393s-0.728-1.069-1.772-1.111c-1.047-0.043-1.73,0.598-1.817,1.281c-0.085,0.684,0.278,1.859,1.625,2.03
	c0,0,0.938,0.15,1.539-0.812c0,0,0.085-0.171,0-0.192c-0.087-0.022-0.216,0.106-0.321,0.213s-0.662,0.641-1.281,0.448
	c-0.619-0.192-0.791-0.791-0.77-1.068c0.021-0.278,0.191-0.919,0.939-0.94s1.26,0.448,1.475,0.641
	c0.214,0.193,1.838,1.582,3.781,2.116c1.944,0.534,3.568-0.022,4.359-0.556C86.506,6.046,86.698,5.854,86.463,5.939z M81.398,5.939
	c0,0-2.33-1.111-2.158-2.2c0.172-1.09,1.537-0.428,1.773-0.021c0,0,0.086,0.064,0.043,0.149C81.014,3.953,80.8,3.825,80.8,3.825
	s-0.877-0.32-1.047,0.192C79.583,4.529,80.502,5.405,81.398,5.939z M78.984,3.824c0,0,0.342-1.025-0.492-1.474
	C78.492,2.35,78.173,3.29,78.984,3.824z M75.671,2.879c0,0,1.966-1.261,4.296-0.449c2.329,0.813,3.42,2.393,3.42,2.393
	s0.725,1.069,1.771,1.112c1.046,0.043,1.73-0.599,1.816-1.282c0.086-0.684-0.277-1.859-1.625-2.03c0,0-0.938-0.149-1.537,0.812
	c0,0-0.086,0.17,0,0.192c0.084,0.021,0.213-0.106,0.319-0.213s0.663-0.641,1.282-0.449c0.62,0.192,0.79,0.791,0.77,1.068
	c-0.021,0.278-0.191,0.918-0.938,0.94c-0.749,0.021-1.263-0.449-1.476-0.641c-0.215-0.192-1.838-1.582-3.781-2.116
	c-1.944-0.534-3.569,0.021-4.358,0.556C75.63,2.772,75.438,2.965,75.671,2.879z M80.736,2.879c0,0,2.328,1.111,2.156,2.201
	c-0.17,1.09-1.537,0.427-1.772,0.021c0,0-0.086-0.064-0.042-0.15c0.042-0.085,0.255,0.043,0.255,0.043s0.877,0.32,1.048-0.192
	C82.551,4.29,81.633,3.414,80.736,2.879z M83.15,4.995c0,0-0.342,1.025,0.49,1.474C83.643,6.469,83.962,5.529,83.15,4.995z
	 M98.867,5.939c0,0-1.965,1.261-4.294,0.449c-2.33-0.812-3.419-2.393-3.419-2.393s-0.729-1.069-1.774-1.111
	c-1.047-0.043-1.729,0.598-1.815,1.281c-0.086,0.684,0.278,1.859,1.623,2.03c0,0,0.94,0.15,1.539-0.812c0,0,0.086-0.171,0-0.192
	c-0.084-0.022-0.213,0.106-0.318,0.213c-0.107,0.107-0.663,0.641-1.283,0.448c-0.619-0.192-0.791-0.791-0.77-1.068
	c0.021-0.278,0.191-0.919,0.939-0.94c0.747-0.021,1.262,0.448,1.475,0.641c0.213,0.192,1.838,1.582,3.782,2.116
	c1.944,0.534,3.567-0.022,4.358-0.556C98.91,6.046,99.104,5.854,98.867,5.939z M93.805,5.939c0,0-2.33-1.111-2.16-2.2
	c0.172-1.09,1.539-0.428,1.774-0.021c0,0,0.086,0.064,0.043,0.149c-0.043,0.086-0.257-0.042-0.257-0.042s-0.876-0.32-1.047,0.192
	C91.986,4.529,92.906,5.405,93.805,5.939z M91.391,3.824c0,0,0.342-1.025-0.492-1.474C90.896,2.35,90.577,3.29,91.391,3.824z
	 M88.077,2.879c0,0,1.965-1.261,4.294-0.449c2.33,0.813,3.42,2.393,3.42,2.393s0.727,1.069,1.773,1.112
	c1.045,0.043,1.729-0.599,1.814-1.282c0.086-0.684-0.277-1.859-1.624-2.03c0,0-0.938-0.149-1.539,0.812c0,0-0.084,0.17,0,0.192
	c0.086,0.021,0.214-0.106,0.321-0.213s0.663-0.641,1.281-0.449c0.621,0.192,0.791,0.791,0.771,1.068
	c-0.022,0.278-0.192,0.918-0.94,0.94s-1.26-0.449-1.474-0.641s-1.839-1.582-3.782-2.116c-1.944-0.534-3.568,0.021-4.358,0.556
	C88.034,2.772,87.842,2.965,88.077,2.879z M93.143,2.879c0,0,2.328,1.111,2.157,2.201s-1.538,0.427-1.774,0.021
	c0,0-0.084-0.064-0.043-0.15c0.043-0.085,0.258,0.043,0.258,0.043s0.876,0.32,1.047-0.192C94.957,4.29,94.038,3.414,93.143,2.879z
	 M95.555,4.995c0,0-0.341,1.025,0.491,1.474C96.046,6.469,96.368,5.529,95.555,4.995z M12.032,98.12c0,0-1.965,1.261-4.295,0.448
	c-2.329-0.812-3.419-2.393-3.419-2.393s-0.727-1.068-1.773-1.109c-1.047-0.045-1.731,0.597-1.816,1.281
	c-0.085,0.684,0.278,1.857,1.625,2.029c0,0,0.94,0.148,1.539-0.813c0,0,0.085-0.172,0-0.192c-0.086-0.022-0.214,0.106-0.321,0.214
	c-0.107,0.107-0.663,0.641-1.283,0.448s-0.79-0.79-0.769-1.068s0.192-0.919,0.939-0.94c0.749-0.021,1.261,0.449,1.475,0.643
	c0.214,0.191,1.838,1.581,3.782,2.115c1.945,0.535,3.568-0.021,4.359-0.557C12.075,98.229,12.267,98.035,12.032,98.12z M6.967,98.12
	c0,0-2.329-1.11-2.158-2.199C4.98,94.83,6.348,95.492,6.583,95.9c0,0,0.085,0.063,0.042,0.147s-0.257-0.042-0.257-0.042
	s-0.876-0.32-1.047,0.192C5.152,96.71,6.071,97.587,6.967,98.12z M4.554,96.006c0,0,0.341-1.025-0.492-1.475
	C4.062,94.531,3.741,95.471,4.554,96.006z M1.24,95.063c0,0,1.966-1.263,4.295-0.451c2.33,0.813,3.419,2.395,3.419,2.395
	s0.726,1.069,1.773,1.111c1.047,0.043,1.73-0.598,1.816-1.282c0.085-0.685-0.278-1.858-1.624-2.03c0,0-0.94-0.147-1.538,0.813
	c0,0-0.086,0.171,0,0.192c0.084,0.021,0.213-0.106,0.32-0.215c0.107-0.105,0.663-0.641,1.282-0.447
	c0.619,0.192,0.791,0.789,0.77,1.066c-0.022,0.278-0.192,0.92-0.94,0.94s-1.26-0.448-1.475-0.642
	c-0.213-0.191-1.838-1.58-3.782-2.115c-1.944-0.534-3.568,0.021-4.359,0.557C1.198,94.954,1.005,95.146,1.24,95.063z M6.305,95.063
	c0,0,2.329,1.109,2.158,2.198c-0.171,1.091-1.538,0.429-1.773,0.022c0,0-0.085-0.064-0.043-0.149
	c0.043-0.085,0.257,0.042,0.257,0.042s0.875,0.321,1.047-0.191C8.121,96.473,7.202,95.595,6.305,95.063z M8.719,97.176
	c0,0-0.342,1.025,0.492,1.475C9.211,98.65,9.531,97.711,8.719,97.176z M24.437,98.12c0,0-1.966,1.261-4.295,0.448
	c-2.329-0.812-3.419-2.393-3.419-2.393s-0.726-1.068-1.773-1.109c-1.047-0.045-1.731,0.597-1.817,1.281
	c-0.085,0.684,0.278,1.857,1.625,2.029c0,0,0.94,0.148,1.539-0.813c0,0,0.085-0.172,0-0.192c-0.086-0.022-0.214,0.106-0.32,0.214
	s-0.663,0.641-1.283,0.448c-0.619-0.192-0.79-0.79-0.769-1.068s0.192-0.919,0.939-0.94c0.749-0.021,1.261,0.449,1.475,0.643
	c0.214,0.193,1.838,1.581,3.782,2.115c1.945,0.535,3.569-0.021,4.359-0.557C24.479,98.229,24.672,98.035,24.437,98.12z
	 M19.372,98.12c0,0-2.328-1.11-2.158-2.199c0.171-1.091,1.539-0.429,1.774-0.021c0,0,0.085,0.063,0.042,0.147
	c-0.042,0.085-0.256-0.042-0.256-0.042s-0.876-0.32-1.048,0.192C17.557,96.71,18.476,97.587,19.372,98.12z M16.958,96.006
	c0,0,0.341-1.025-0.492-1.475C16.467,94.531,16.146,95.471,16.958,96.006z M13.646,95.063c0,0,1.965-1.263,4.295-0.451
	c2.329,0.813,3.419,2.395,3.419,2.395s0.726,1.069,1.773,1.111c1.047,0.043,1.731-0.598,1.817-1.282
	c0.085-0.685-0.278-1.858-1.625-2.03c0,0-0.94-0.147-1.538,0.813c0,0-0.085,0.171,0,0.192c0.085,0.021,0.213-0.106,0.32-0.215
	c0.107-0.105,0.663-0.641,1.283-0.447c0.62,0.191,0.79,0.789,0.769,1.066c-0.021,0.278-0.192,0.92-0.94,0.94
	c-0.749,0.021-1.261-0.448-1.474-0.642c-0.214-0.191-1.839-1.58-3.783-2.115c-1.944-0.534-3.568,0.021-4.358,0.557
	C13.603,94.954,13.411,95.146,13.646,95.063z M18.71,95.063c0,0,2.329,1.109,2.158,2.198c-0.171,1.091-1.538,0.429-1.773,0.022
	c0,0-0.086-0.064-0.043-0.149c0.043-0.085,0.256,0.042,0.256,0.042s0.877,0.321,1.047-0.191
	C20.525,96.473,19.607,95.595,18.71,95.063z M21.124,97.176c0,0-0.342,1.025,0.492,1.475C21.616,98.65,21.936,97.711,21.124,97.176z
	 M36.842,98.12c0,0-1.965,1.261-4.295,0.448c-2.329-0.812-3.418-2.393-3.418-2.393s-0.727-1.068-1.774-1.109
	c-1.047-0.045-1.73,0.597-1.815,1.281c-0.086,0.684,0.278,1.857,1.623,2.029c0,0,0.94,0.148,1.54-0.813c0,0,0.084-0.172,0-0.192
	c-0.085-0.022-0.215,0.106-0.321,0.214c-0.107,0.105-0.663,0.641-1.283,0.448c-0.619-0.192-0.791-0.79-0.769-1.068
	c0.021-0.278,0.192-0.919,0.94-0.94c0.748-0.021,1.26,0.449,1.475,0.643c0.213,0.191,1.838,1.581,3.782,2.115
	c1.945,0.535,3.569-0.021,4.359-0.557C36.884,98.229,37.077,98.035,36.842,98.12z M31.778,98.12c0,0-2.329-1.11-2.158-2.199
	c0.171-1.091,1.538-0.429,1.773-0.021c0,0,0.085,0.063,0.043,0.147c-0.043,0.085-0.257-0.042-0.257-0.042s-0.876-0.32-1.047,0.192
	C29.961,96.71,30.881,97.587,31.778,98.12z M29.364,96.006c0,0,0.342-1.025-0.492-1.475C28.872,94.531,28.552,95.471,29.364,96.006z
	 M26.051,95.063c0,0,1.965-1.263,4.294-0.451c2.33,0.813,3.419,2.395,3.419,2.395s0.727,1.069,1.773,1.111
	c1.047,0.043,1.731-0.598,1.816-1.282s-0.278-1.858-1.625-2.03c0,0-0.939-0.147-1.538,0.813c0,0-0.085,0.171,0,0.192
	c0.085,0.021,0.213-0.106,0.32-0.215c0.108-0.105,0.663-0.641,1.283-0.447c0.62,0.192,0.791,0.789,0.77,1.066
	c-0.022,0.278-0.192,0.92-0.94,0.94s-1.261-0.448-1.475-0.642c-0.214-0.191-1.838-1.58-3.782-2.115
	c-1.945-0.534-3.568,0.021-4.359,0.557C26.008,94.954,25.816,95.146,26.051,95.063z M31.115,95.063c0,0,2.33,1.109,2.158,2.198
	c-0.172,1.091-1.538,0.429-1.774,0.022c0,0-0.085-0.064-0.042-0.149c0.042-0.085,0.256,0.042,0.256,0.042s0.876,0.321,1.047-0.191
	C32.93,96.473,32.012,95.595,31.115,95.063z M33.529,97.176c0,0-0.341,1.025,0.491,1.475C34.021,98.65,34.342,97.711,33.529,97.176z
	 M49.247,98.12c0,0-1.965,1.261-4.294,0.448c-2.33-0.812-3.419-2.393-3.419-2.393s-0.726-1.068-1.773-1.109
	c-1.048-0.045-1.731,0.597-1.816,1.281c-0.086,0.684,0.278,1.857,1.624,2.029c0,0,0.94,0.148,1.539-0.813c0,0,0.085-0.172,0-0.192
	c-0.085-0.022-0.214,0.106-0.32,0.214c-0.107,0.105-0.663,0.641-1.282,0.448c-0.62-0.192-0.792-0.79-0.769-1.068
	c0.021-0.278,0.191-0.919,0.939-0.94c0.749-0.021,1.261,0.449,1.475,0.643c0.214,0.191,1.838,1.581,3.783,2.115
	c1.945,0.535,3.568-0.021,4.358-0.557C49.29,98.229,49.483,98.035,49.247,98.12z M44.183,98.12c0,0-2.329-1.11-2.158-2.199
	c0.171-1.091,1.539-0.429,1.774-0.021c0,0,0.085,0.063,0.042,0.147c-0.042,0.085-0.256-0.042-0.256-0.042s-0.876-0.32-1.047,0.192
	C42.367,96.71,43.286,97.587,44.183,98.12z M41.769,96.006c0,0,0.342-1.025-0.491-1.475C41.277,94.531,40.957,95.471,41.769,96.006z
	 M38.456,95.063c0,0,1.966-1.263,4.295-0.451c2.33,0.813,3.418,2.395,3.418,2.395s0.727,1.069,1.774,1.111
	c1.046,0.043,1.73-0.598,1.816-1.282c0.085-0.685-0.278-1.858-1.625-2.03c0,0-0.94-0.147-1.538,0.813c0,0-0.085,0.171,0,0.192
	c0.085,0.021,0.213-0.106,0.32-0.215c0.107-0.105,0.662-0.641,1.282-0.447c0.62,0.192,0.79,0.789,0.769,1.066
	c-0.021,0.278-0.192,0.92-0.94,0.94s-1.261-0.448-1.475-0.642c-0.214-0.192-1.838-1.58-3.782-2.115
	c-1.945-0.534-3.568,0.021-4.359,0.557C38.414,94.954,38.221,95.146,38.456,95.063z M43.52,95.063c0,0,2.33,1.109,2.158,2.198
	c-0.171,1.091-1.538,0.429-1.773,0.022c0,0-0.085-0.064-0.043-0.149c0.043-0.085,0.256,0.042,0.256,0.042s0.877,0.321,1.047-0.191
	C45.336,96.473,44.417,95.595,43.52,95.063z M45.934,97.176c0,0-0.341,1.025,0.492,1.475C46.426,98.65,46.747,97.711,45.934,97.176z
	 M61.652,98.12c0,0-1.967,1.261-4.297,0.448c-2.328-0.812-3.418-2.393-3.418-2.393s-0.727-1.068-1.772-1.109
	c-1.047-0.045-1.73,0.597-1.816,1.281c-0.085,0.684,0.278,1.857,1.624,2.029c0,0,0.94,0.148,1.539-0.813c0,0,0.086-0.172,0-0.192
	c-0.086-0.022-0.215,0.106-0.32,0.214c-0.106,0.107-0.662,0.641-1.282,0.448c-0.62-0.193-0.79-0.79-0.769-1.068
	c0.021-0.278,0.191-0.919,0.938-0.94c0.748-0.021,1.261,0.449,1.476,0.643c0.213,0.191,1.838,1.581,3.781,2.115
	c1.943,0.535,3.568-0.021,4.359-0.557C61.695,98.229,61.889,98.035,61.652,98.12z M56.589,98.12c0,0-2.33-1.11-2.159-2.199
	c0.172-1.091,1.538-0.429,1.774-0.021c0,0,0.085,0.063,0.043,0.147c-0.043,0.085-0.257-0.042-0.257-0.042s-0.877-0.32-1.047,0.192
	C54.771,96.71,55.691,97.587,56.589,98.12z M54.174,96.006c0,0,0.342-1.025-0.492-1.475C53.682,94.531,53.361,95.471,54.174,96.006z
	 M50.861,95.063c0,0,1.965-1.263,4.295-0.451c2.328,0.813,3.419,2.395,3.419,2.395s0.727,1.069,1.772,1.111
	c1.047,0.043,1.731-0.598,1.816-1.282c0.086-0.685-0.277-1.858-1.624-2.03c0,0-0.938-0.147-1.539,0.813c0,0-0.085,0.171,0,0.192
	c0.086,0.021,0.214-0.106,0.319-0.215c0.109-0.105,0.664-0.641,1.283-0.447c0.619,0.191,0.791,0.789,0.77,1.066
	c-0.021,0.278-0.191,0.92-0.939,0.94s-1.262-0.448-1.476-0.642c-0.213-0.191-1.837-1.58-3.782-2.115
	c-1.943-0.534-3.568,0.021-4.357,0.557C50.818,94.954,50.625,95.146,50.861,95.063z M55.926,95.063c0,0,2.328,1.109,2.157,2.198
	c-0.171,1.091-1.538,0.429-1.772,0.022c0,0-0.086-0.064-0.043-0.149s0.256,0.042,0.256,0.042s0.877,0.321,1.047-0.191
	C57.74,96.473,56.822,95.595,55.926,95.063z M58.34,97.176c0,0-0.341,1.025,0.491,1.475C58.831,98.65,59.15,97.711,58.34,97.176z
	 M74.057,98.12c0,0-1.965,1.261-4.293,0.448c-2.33-0.812-3.42-2.393-3.42-2.393s-0.727-1.068-1.773-1.109
	c-1.047-0.045-1.729,0.597-1.815,1.281c-0.086,0.684,0.277,1.857,1.624,2.029c0,0,0.939,0.148,1.539-0.813c0,0,0.084-0.172,0-0.192
	c-0.086-0.022-0.214,0.106-0.32,0.214c-0.106,0.105-0.664,0.641-1.281,0.448c-0.621-0.192-0.793-0.79-0.771-1.068
	c0.021-0.278,0.19-0.919,0.938-0.94c0.748-0.021,1.263,0.449,1.476,0.643s1.838,1.581,3.782,2.115
	c1.945,0.535,3.568-0.021,4.359-0.557C74.102,98.229,74.293,98.035,74.057,98.12z M68.993,98.12c0,0-2.329-1.11-2.158-2.199
	c0.172-1.091,1.539-0.429,1.774-0.021c0,0,0.084,0.063,0.041,0.147c-0.041,0.085-0.256-0.042-0.256-0.042s-0.877-0.32-1.047,0.192
	C67.178,96.71,68.096,97.587,68.993,98.12z M66.579,96.006c0,0,0.341-1.025-0.491-1.475C66.088,94.531,65.768,95.471,66.579,96.006z
	 M63.268,95.063c0,0,1.965-1.263,4.295-0.451c2.328,0.813,3.418,2.395,3.418,2.395s0.728,1.069,1.773,1.111
	c1.047,0.043,1.73-0.598,1.816-1.282c0.084-0.685-0.278-1.858-1.625-2.03c0,0-0.939-0.147-1.538,0.813c0,0-0.085,0.171,0,0.192
	c0.085,0.021,0.214-0.106,0.321-0.215c0.105-0.105,0.662-0.641,1.28-0.447c0.62,0.191,0.791,0.789,0.771,1.066
	c-0.021,0.278-0.192,0.92-0.94,0.94c-0.747,0.021-1.261-0.448-1.474-0.642c-0.215-0.191-1.84-1.58-3.783-2.115
	c-1.943-0.534-3.566,0.021-4.357,0.557C63.225,94.954,63.031,95.146,63.268,95.063z M68.331,95.063c0,0,2.329,1.109,2.157,2.198
	c-0.17,1.091-1.538,0.429-1.773,0.022c0,0-0.086-0.064-0.043-0.149s0.258,0.042,0.258,0.042s0.877,0.321,1.047-0.191
	C70.146,96.473,69.229,95.595,68.331,95.063z M70.744,97.176c0,0-0.342,1.025,0.492,1.475C71.236,98.65,71.559,97.711,70.744,97.176
	z M86.463,98.12c0,0-1.966,1.261-4.295,0.448c-2.329-0.812-3.419-2.393-3.419-2.393s-0.728-1.068-1.772-1.109
	c-1.047-0.045-1.73,0.597-1.817,1.281c-0.085,0.684,0.278,1.857,1.625,2.029c0,0,0.938,0.148,1.539-0.813c0,0,0.085-0.172,0-0.192
	c-0.087-0.022-0.216,0.106-0.321,0.214s-0.662,0.641-1.281,0.448s-0.791-0.79-0.77-1.068s0.191-0.919,0.939-0.94
	c0.748-0.021,1.26,0.449,1.475,0.643c0.214,0.193,1.838,1.581,3.781,2.115c1.944,0.535,3.568-0.021,4.359-0.557
	C86.506,98.229,86.698,98.035,86.463,98.12z M81.398,98.12c0,0-2.33-1.11-2.158-2.199c0.172-1.091,1.537-0.429,1.773-0.021
	c0,0,0.086,0.063,0.043,0.147S80.8,96.006,80.8,96.006s-0.877-0.32-1.047,0.192C79.583,96.71,80.502,97.587,81.398,98.12z
	 M78.984,96.006c0,0,0.342-1.025-0.492-1.475C78.492,94.531,78.173,95.471,78.984,96.006z M75.671,95.063
	c0,0,1.966-1.263,4.296-0.451c2.329,0.813,3.42,2.395,3.42,2.395s0.725,1.069,1.771,1.111c1.047,0.043,1.73-0.598,1.816-1.282
	s-0.277-1.858-1.625-2.03c0,0-0.938-0.147-1.537,0.813c0,0-0.086,0.171,0,0.192c0.084,0.021,0.213-0.106,0.319-0.215
	c0.106-0.105,0.663-0.641,1.282-0.447c0.62,0.191,0.79,0.789,0.77,1.066c-0.021,0.278-0.191,0.92-0.938,0.94
	c-0.749,0.021-1.263-0.448-1.476-0.642c-0.215-0.191-1.838-1.58-3.781-2.115c-1.944-0.534-3.569,0.021-4.358,0.557
	C75.63,94.954,75.438,95.146,75.671,95.063z M80.736,95.063c0,0,2.328,1.109,2.156,2.198c-0.17,1.091-1.537,0.429-1.772,0.022
	c0,0-0.086-0.064-0.042-0.149c0.042-0.085,0.255,0.042,0.255,0.042s0.877,0.321,1.048-0.191
	C82.551,96.473,81.633,95.595,80.736,95.063z M83.15,97.176c0,0-0.342,1.025,0.49,1.475C83.643,98.65,83.962,97.711,83.15,97.176z
	 M98.867,98.12c0,0-1.965,1.261-4.294,0.448c-2.33-0.812-3.419-2.393-3.419-2.393s-0.729-1.068-1.774-1.109
	c-1.047-0.045-1.729,0.597-1.815,1.281c-0.086,0.684,0.278,1.857,1.623,2.029c0,0,0.94,0.148,1.539-0.813c0,0,0.086-0.172,0-0.192
	c-0.084-0.022-0.213,0.106-0.318,0.214c-0.107,0.105-0.663,0.641-1.283,0.448c-0.619-0.192-0.791-0.79-0.77-1.068
	s0.191-0.919,0.939-0.94c0.747-0.021,1.262,0.449,1.475,0.643c0.213,0.191,1.838,1.581,3.782,2.115
	c1.944,0.535,3.567-0.021,4.358-0.557C98.91,98.229,99.104,98.035,98.867,98.12z M93.805,98.12c0,0-2.33-1.11-2.16-2.199
	c0.172-1.091,1.539-0.429,1.774-0.021c0,0,0.086,0.063,0.043,0.147s-0.257-0.042-0.257-0.042s-0.876-0.32-1.047,0.192
	C91.986,96.71,92.906,97.587,93.805,98.12z M91.391,96.006c0,0,0.342-1.025-0.492-1.475C90.896,94.531,90.577,95.471,91.391,96.006z
	 M88.077,95.063c0,0,1.965-1.263,4.294-0.451c2.33,0.813,3.42,2.395,3.42,2.395s0.727,1.069,1.773,1.111
	c1.047,0.043,1.729-0.598,1.814-1.282c0.086-0.685-0.277-1.858-1.624-2.03c0,0-0.938-0.147-1.539,0.813c0,0-0.084,0.171,0,0.192
	c0.086,0.021,0.214-0.106,0.321-0.215c0.107-0.105,0.663-0.641,1.281-0.447c0.621,0.191,0.791,0.789,0.771,1.066
	c-0.022,0.278-0.192,0.92-0.94,0.94s-1.26-0.448-1.474-0.642c-0.214-0.191-1.839-1.58-3.782-2.115
	c-1.944-0.534-3.568,0.021-4.358,0.557C88.034,94.954,87.842,95.146,88.077,95.063z M93.143,95.063c0,0,2.328,1.109,2.157,2.198
	c-0.171,1.091-1.538,0.429-1.774,0.022c0,0-0.084-0.064-0.043-0.149c0.043-0.085,0.258,0.042,0.258,0.042s0.876,0.321,1.047-0.191
	C94.957,96.473,94.038,95.595,93.143,95.063z M95.555,97.176c0,0-0.341,1.025,0.491,1.475C96.046,98.65,96.368,97.711,95.555,97.176
	z M4.622,69.034c0,0,1.26,1.934,0.449,4.226s-2.393,3.363-2.393,3.363s-1.068,0.715-1.11,1.745
	c-0.043,1.028,0.597,1.702,1.282,1.786c0.683,0.084,1.858-0.273,2.03-1.598c0,0,0.15-0.925-0.812-1.515c0,0-0.171-0.083-0.192,0
	c-0.022,0.084,0.106,0.211,0.213,0.315s0.642,0.651,0.449,1.262c-0.192,0.609-0.791,0.777-1.068,0.756
	c-0.278-0.021-0.919-0.188-0.94-0.924S2.979,77.211,3.171,77c0.192-0.21,1.581-1.809,2.115-3.721
	c0.535-1.913-0.021-3.51-0.555-4.288C4.729,68.992,4.536,68.803,4.622,69.034z M4.622,74.018c0,0-1.111,2.291-2.2,2.121
	c-1.09-0.168-0.428-1.513-0.021-1.744c0,0,0.064-0.084,0.149-0.041c0.085,0.041-0.042,0.252-0.042,0.252s-0.32,0.861,0.192,1.03
	C3.211,75.803,4.087,74.898,4.622,74.018z M2.506,76.393c0,0-1.026-0.336-1.474,0.483C1.032,76.876,1.972,77.189,2.506,76.393z
	 M1.562,79.65c0,0-1.261-1.935-0.449-4.227c0.813-2.292,2.393-3.363,2.393-3.363s1.069-0.715,1.111-1.744s-0.598-1.702-1.282-1.786
	c-0.683-0.085-1.859,0.272-2.03,1.598c0,0-0.149,0.925,0.812,1.515c0,0,0.17,0.084,0.192,0c0.021-0.084-0.106-0.211-0.214-0.315
	c-0.106-0.104-0.641-0.652-0.448-1.263c0.192-0.608,0.791-0.776,1.068-0.756c0.278,0.021,0.919,0.188,0.94,0.926
	c0.021,0.734-0.448,1.24-0.641,1.449c-0.193,0.211-1.581,1.809-2.115,3.721c-0.535,1.914,0.021,3.511,0.555,4.289
	C1.455,79.691,1.647,79.882,1.562,79.65z M1.562,74.668c0,0,1.111-2.291,2.2-2.123c1.09,0.168,0.427,1.514,0.022,1.745
	c0,0-0.064,0.084-0.15,0.042C3.548,74.29,3.676,74.08,3.676,74.08s0.32-0.862-0.192-1.03C2.972,72.883,2.096,73.785,1.562,74.668z
	 M3.677,72.293c0,0,1.025,0.336,1.475-0.482C5.151,71.811,4.211,71.494,3.677,72.293z M4.622,56.83c0,0,1.26,1.936,0.449,4.227
	s-2.393,3.362-2.393,3.362s-1.068,0.714-1.11,1.745c-0.043,1.029,0.597,1.702,1.282,1.787c0.683,0.083,1.858-0.273,2.03-1.6
	c0,0,0.15-0.925-0.812-1.514c0,0-0.171-0.084-0.192,0c-0.022,0.085,0.106,0.21,0.213,0.314c0.107,0.105,0.642,0.652,0.449,1.263
	c-0.192,0.61-0.791,0.778-1.068,0.757c-0.277-0.021-0.919-0.189-0.94-0.925c-0.021-0.736,0.449-1.24,0.641-1.451
	c0.192-0.21,1.581-1.808,2.115-3.721c0.535-1.912-0.021-3.511-0.555-4.287C4.729,56.789,4.536,56.6,4.622,56.83z M4.622,61.813
	c0,0-1.111,2.291-2.2,2.123c-1.09-0.168-0.428-1.514-0.021-1.744c0,0,0.064-0.086,0.149-0.043C2.634,62.191,2.506,62.4,2.506,62.4
	s-0.32,0.861,0.192,1.029C3.21,63.598,4.087,62.693,4.622,61.813z M2.506,64.188c0,0-1.026-0.336-1.474,0.483
	C1.032,64.671,1.972,64.986,2.506,64.188z M1.562,67.445c0,0-1.261-1.935-0.449-4.225c0.813-2.291,2.393-3.363,2.393-3.363
	s1.069-0.715,1.111-1.744c0.042-1.031-0.598-1.702-1.282-1.788c-0.683-0.083-1.859,0.274-2.03,1.6c0,0-0.149,0.925,0.812,1.513
	c0,0,0.17,0.084,0.192,0c0.021-0.084-0.106-0.209-0.214-0.314c-0.106-0.105-0.641-0.65-0.448-1.262
	c0.192-0.609,0.791-0.778,1.068-0.758c0.278,0.021,0.919,0.188,0.94,0.926c0.021,0.736-0.448,1.24-0.641,1.451
	c-0.192,0.209-1.581,1.808-2.115,3.721c-0.535,1.913,0.021,3.511,0.555,4.288C1.455,67.488,1.647,67.678,1.562,67.445z
	 M1.562,62.464c0,0,1.111-2.291,2.2-2.123c1.09,0.168,0.427,1.515,0.022,1.745c0,0-0.064,0.085-0.15,0.042
	c-0.085-0.042,0.042-0.252,0.042-0.252s0.32-0.862-0.192-1.03C2.972,60.68,2.096,61.582,1.562,62.464z M3.677,60.089
	c0,0,1.025,0.336,1.475-0.483C5.151,59.605,4.211,59.29,3.677,60.089z M4.622,44.626c0,0,1.26,1.934,0.449,4.225
	c-0.812,2.292-2.393,3.364-2.393,3.364s-1.068,0.715-1.11,1.744c-0.043,1.031,0.597,1.702,1.282,1.788
	c0.683,0.083,1.858-0.274,2.03-1.601c0,0,0.15-0.924-0.812-1.514c0,0-0.171-0.083-0.192,0c-0.022,0.086,0.106,0.211,0.213,0.316
	s0.642,0.65,0.449,1.262c-0.192,0.609-0.791,0.778-1.068,0.757c-0.277-0.021-0.919-0.188-0.94-0.925
	c-0.021-0.736,0.449-1.24,0.641-1.451c0.192-0.21,1.581-1.808,2.115-3.721c0.535-1.913-0.021-3.511-0.555-4.288
	C4.729,44.584,4.536,44.395,4.622,44.626z M4.622,49.609c0,0-1.111,2.292-2.2,2.124c-1.09-0.168-0.428-1.515-0.021-1.746
	c0,0,0.064-0.084,0.149-0.042s-0.042,0.252-0.042,0.252s-0.32,0.861,0.192,1.029C3.212,51.395,4.087,50.49,4.622,49.609z
	 M2.506,51.982c0,0-1.026-0.336-1.474,0.483C1.032,52.467,1.972,52.782,2.506,51.982z M1.562,55.242c0,0-1.261-1.934-0.449-4.227
	c0.813-2.292,2.393-3.363,2.393-3.363s1.069-0.714,1.111-1.745c0.042-1.031-0.598-1.703-1.282-1.787
	c-0.683-0.084-1.859,0.273-2.03,1.598c0,0-0.149,0.924,0.812,1.513c0,0,0.17,0.084,0.192,0c0.021-0.083-0.106-0.21-0.214-0.315
	c-0.106-0.105-0.641-0.652-0.448-1.262c0.192-0.61,0.791-0.778,1.068-0.757c0.278,0.021,0.919,0.189,0.94,0.925
	c0.021,0.735-0.448,1.24-0.641,1.451c-0.192,0.21-1.581,1.808-2.115,3.72c-0.535,1.914,0.021,3.511,0.555,4.288
	C1.455,55.283,1.647,55.475,1.562,55.242z M1.562,50.259c0,0,1.111-2.29,2.2-2.123c1.09,0.168,0.427,1.514,0.022,1.745
	c0,0-0.064,0.085-0.15,0.042c-0.086-0.043,0.042-0.252,0.042-0.252s0.32-0.862-0.192-1.03C2.972,48.474,2.096,49.378,1.562,50.259z
	 M3.677,47.885c0,0,1.025,0.335,1.475-0.484C5.151,47.401,4.211,47.086,3.677,47.885z M4.622,32.422c0,0,1.26,1.934,0.449,4.225
	c-0.812,2.292-2.393,3.364-2.393,3.364s-1.068,0.714-1.11,1.745c-0.043,1.029,0.597,1.702,1.282,1.787
	c0.683,0.083,1.858-0.273,2.03-1.598c0,0,0.15-0.925-0.812-1.514c0,0-0.171-0.083-0.192,0c-0.022,0.085,0.106,0.211,0.213,0.316
	s0.642,0.652,0.449,1.261c-0.192,0.61-0.791,0.778-1.068,0.757c-0.277-0.021-0.919-0.189-0.94-0.924
	c-0.021-0.736,0.449-1.24,0.641-1.451c0.192-0.21,1.581-1.808,2.115-3.721c0.535-1.914-0.021-3.511-0.555-4.289
	C4.729,32.38,4.536,32.19,4.622,32.422z M4.622,37.404c0,0-1.111,2.292-2.2,2.124c-1.09-0.168-0.428-1.514-0.021-1.746
	c0,0,0.064-0.084,0.149-0.042s-0.042,0.252-0.042,0.252s-0.32,0.862,0.192,1.03C3.212,39.19,4.087,38.287,4.622,37.404z
	 M2.506,39.779c0,0-1.026-0.336-1.474,0.484C1.032,40.263,1.972,40.578,2.506,39.779z M1.562,43.038c0,0-1.261-1.934-0.449-4.225
	c0.813-2.292,2.393-3.364,2.393-3.364s1.069-0.714,1.111-1.745c0.042-1.029-0.598-1.703-1.282-1.786
	c-0.683-0.084-1.859,0.273-2.03,1.597c0,0-0.149,0.925,0.812,1.514c0,0,0.17,0.084,0.192,0c0.021-0.084-0.106-0.21-0.214-0.315
	c-0.106-0.105-0.641-0.652-0.448-1.261c0.192-0.61,0.791-0.778,1.068-0.757c0.278,0.021,0.919,0.189,0.94,0.924
	c0.021,0.736-0.448,1.24-0.641,1.451c-0.192,0.21-1.581,1.808-2.115,3.72c-0.535,1.913,0.021,3.511,0.555,4.289
	C1.455,43.08,1.647,43.27,1.562,43.038z M1.562,38.056c0,0,1.111-2.291,2.2-2.123c1.09,0.168,0.427,1.513,0.022,1.745
	c0,0-0.064,0.084-0.15,0.042c-0.085-0.042,0.042-0.252,0.042-0.252s0.32-0.862-0.192-1.03C2.972,36.27,2.096,37.173,1.562,38.056z
	 M3.677,35.681c0,0,1.025,0.336,1.475-0.483C5.151,35.197,4.211,34.882,3.677,35.681z M4.622,20.218c0,0,1.26,1.934,0.449,4.225
	c-0.812,2.292-2.393,3.364-2.393,3.364s-1.068,0.715-1.11,1.745c-0.043,1.03,0.597,1.702,1.282,1.787
	c0.683,0.084,1.858-0.273,2.03-1.598c0,0,0.15-0.925-0.812-1.514c0,0-0.171-0.083-0.192,0c-0.022,0.085,0.106,0.211,0.213,0.315
	c0.107,0.105,0.642,0.652,0.449,1.262c-0.192,0.609-0.791,0.777-1.068,0.756c-0.277-0.021-0.919-0.189-0.94-0.925
	c-0.021-0.736,0.449-1.24,0.641-1.45s1.581-1.809,2.115-3.721c0.535-1.914-0.021-3.511-0.555-4.289
	C4.729,20.176,4.536,19.986,4.622,20.218z M4.622,25.2c0,0-1.111,2.291-2.2,2.123c-1.09-0.168-0.428-1.513-0.021-1.745
	c0,0,0.064-0.084,0.149-0.042s-0.042,0.252-0.042,0.252s-0.32,0.861,0.192,1.03C3.211,26.986,4.087,26.082,4.622,25.2z
	 M2.506,27.575c0,0-1.026-0.336-1.474,0.483C1.032,28.059,1.972,28.374,2.506,27.575z M1.562,30.834c0,0-1.261-1.934-0.449-4.226
	c0.813-2.291,2.393-3.363,2.393-3.363S4.575,22.53,4.617,21.5s-0.598-1.703-1.282-1.787c-0.683-0.084-1.859,0.273-2.03,1.598
	c0,0-0.149,0.924,0.812,1.513c0,0,0.17,0.084,0.192,0c0.021-0.083-0.106-0.209-0.214-0.314c-0.106-0.104-0.641-0.652-0.448-1.262
	c0.192-0.61,0.791-0.777,1.068-0.757c0.278,0.021,0.919,0.189,0.94,0.925s-0.448,1.24-0.641,1.451
	c-0.193,0.211-1.581,1.808-2.115,3.721c-0.535,1.913,0.021,3.51,0.555,4.288C1.455,30.876,1.647,31.065,1.562,30.834z M1.562,25.851
	c0,0,1.111-2.291,2.2-2.123c1.09,0.168,0.427,1.514,0.022,1.745c0,0-0.064,0.084-0.15,0.042c-0.085-0.042,0.042-0.252,0.042-0.252
	s0.32-0.862-0.192-1.031C2.972,24.065,2.096,24.969,1.562,25.851z M3.677,23.476c0,0,1.025,0.336,1.475-0.482
	C5.151,22.994,4.211,22.678,3.677,23.476z M4.622,8.014c0,0,1.26,1.934,0.449,4.226c-0.812,2.292-2.393,3.363-2.393,3.363
	s-1.068,0.715-1.11,1.745c-0.043,1.03,0.597,1.703,1.282,1.787c0.683,0.084,1.858-0.273,2.03-1.598c0,0,0.15-0.925-0.812-1.514
	c0,0-0.171-0.083-0.192,0c-0.022,0.084,0.106,0.21,0.213,0.315S4.731,16.99,4.538,17.6c-0.192,0.61-0.791,0.778-1.068,0.757
	c-0.278-0.021-0.919-0.189-0.94-0.925c-0.021-0.736,0.449-1.24,0.641-1.451s1.581-1.809,2.115-3.721
	c0.535-1.913-0.021-3.511-0.555-4.288C4.729,7.972,4.536,7.782,4.622,8.014z M4.622,12.997c0,0-1.111,2.291-2.2,2.123
	c-1.09-0.168-0.428-1.514-0.021-1.745c0,0,0.064-0.084,0.149-0.042s-0.042,0.251-0.042,0.251s-0.32,0.862,0.192,1.03
	C3.211,14.782,4.087,13.878,4.622,12.997z M2.506,15.371c0,0-1.026-0.336-1.474,0.483C1.032,15.854,1.972,16.17,2.506,15.371z
	 M1.562,18.63c0,0-1.261-1.934-0.449-4.225c0.813-2.292,2.393-3.364,2.393-3.364s1.069-0.715,1.111-1.745
	c0.042-1.03-0.598-1.702-1.282-1.787c-0.683-0.084-1.859,0.274-2.03,1.599c0,0-0.149,0.924,0.812,1.513c0,0,0.17,0.083,0.192,0
	c0.021-0.084-0.106-0.21-0.214-0.315c-0.106-0.105-0.641-0.652-0.448-1.262c0.192-0.61,0.791-0.777,1.068-0.757
	c0.278,0.021,0.919,0.189,0.94,0.925c0.021,0.735-0.448,1.239-0.641,1.45c-0.192,0.21-1.581,1.809-2.115,3.721
	c-0.535,1.913,0.021,3.511,0.555,4.289C1.455,18.672,1.647,18.861,1.562,18.63z M1.562,13.647c0,0,1.111-2.291,2.2-2.123
	c1.09,0.167,0.427,1.513,0.022,1.745c0,0-0.064,0.084-0.15,0.042c-0.086-0.042,0.042-0.252,0.042-0.252s0.32-0.861-0.192-1.03
	C2.972,11.862,2.096,12.766,1.562,13.647z M3.677,11.272c0,0,1.025,0.336,1.475-0.483C5.151,10.789,4.211,10.474,3.677,11.272z
	 M4.622,81.514c0,0,1.26,1.932,0.449,4.225c-0.811,2.292-2.393,3.363-2.393,3.363s-1.068,0.715-1.11,1.744
	c-0.043,1.029,0.597,1.702,1.282,1.786c0.683,0.084,1.858-0.272,2.03-1.598c0,0,0.15-0.925-0.812-1.515c0,0-0.171-0.082-0.192,0
	c-0.022,0.084,0.106,0.211,0.213,0.316s0.642,0.65,0.449,1.262c-0.192,0.608-0.791,0.776-1.068,0.756
	c-0.278-0.021-0.919-0.188-0.94-0.924c-0.021-0.736,0.449-1.24,0.641-1.451c0.192-0.209,1.581-1.808,2.115-3.721
	c0.535-1.914-0.021-3.511-0.555-4.289C4.729,81.47,4.536,81.28,4.622,81.514z M4.622,86.494c0,0-1.111,2.291-2.2,2.123
	c-1.09-0.169-0.428-1.514-0.021-1.745c0,0,0.064-0.084,0.149-0.042s-0.042,0.253-0.042,0.253s-0.32,0.862,0.192,1.03
	C3.211,88.28,4.087,87.377,4.622,86.494z M2.506,88.869c0,0-1.026-0.336-1.474,0.484C1.032,89.354,1.972,89.669,2.506,88.869z
	 M1.562,92.129c0,0-1.261-1.936-0.449-4.227c0.813-2.293,2.393-3.362,2.393-3.362s1.069-0.716,1.111-1.745s-0.598-1.703-1.282-1.787
	c-0.683-0.084-1.859,0.273-2.03,1.598c0,0-0.149,0.926,0.812,1.515c0,0,0.17,0.084,0.192,0c0.021-0.084-0.106-0.21-0.214-0.315
	c-0.106-0.104-0.641-0.652-0.448-1.261c0.192-0.61,0.791-0.778,1.068-0.757c0.278,0.021,0.919,0.188,0.94,0.925
	c0.021,0.735-0.448,1.24-0.641,1.451c-0.192,0.209-1.581,1.808-2.115,3.72c-0.535,1.913,0.021,3.51,0.555,4.288
	C1.455,92.17,1.647,92.359,1.562,92.129z M1.562,87.146c0,0,1.111-2.291,2.2-2.123c1.09,0.168,0.427,1.515,0.022,1.744
	c0,0-0.064,0.084-0.15,0.043c-0.085-0.043,0.042-0.252,0.042-0.252s0.32-0.863-0.192-1.031C2.972,85.359,2.096,86.264,1.562,87.146z
	 M3.677,84.771c0,0,1.025,0.336,1.475-0.483C5.151,84.287,4.211,83.973,3.677,84.771z M98.73,69.295c0,0,1.26,1.922,0.447,4.201
	c-0.812,2.277-2.393,3.346-2.393,3.346s-1.069,0.71-1.111,1.735c-0.043,1.022,0.6,1.692,1.281,1.776
	c0.684,0.084,1.859-0.271,2.029-1.59c0,0,0.15-0.92-0.812-1.506c0,0-0.171-0.083-0.19,0c-0.022,0.084,0.104,0.209,0.213,0.313
	c0.105,0.104,0.642,0.647,0.449,1.255c-0.193,0.607-0.791,0.773-1.068,0.752c-0.278-0.021-0.919-0.188-0.939-0.919
	c-0.021-0.732,0.447-1.233,0.641-1.442c0.191-0.21,1.58-1.799,2.115-3.701c0.533-1.901-0.021-3.49-0.556-4.265
	C98.838,69.252,98.646,69.063,98.73,69.295z M98.73,74.249c0,0-1.112,2.278-2.201,2.11c-1.09-0.166-0.428-1.504-0.021-1.734
	c0,0,0.063-0.084,0.15-0.042c0.085,0.042-0.043,0.251-0.043,0.251s-0.321,0.857,0.191,1.023
	C97.32,76.025,98.195,75.127,98.73,74.249z M96.615,76.609c0,0-1.025-0.332-1.475,0.481C95.141,77.092,96.081,77.406,96.615,76.609z
	 M95.671,79.852c0,0-1.262-1.922-0.448-4.201c0.813-2.279,2.393-3.346,2.393-3.346s1.068-0.711,1.111-1.734
	c0.041-1.023-0.599-1.692-1.283-1.776c-0.684-0.084-1.858,0.271-2.028,1.589c0,0-0.149,0.919,0.812,1.506c0,0,0.172,0.082,0.192,0
	c0.021-0.084-0.106-0.21-0.214-0.313c-0.107-0.105-0.641-0.649-0.448-1.257c0.191-0.605,0.791-0.771,1.068-0.752
	c0.278,0.021,0.919,0.188,0.94,0.92c0.021,0.73-0.449,1.233-0.642,1.442c-0.192,0.21-1.582,1.798-2.116,3.7
	c-0.533,1.903,0.021,3.491,0.557,4.266C95.563,79.895,95.756,80.082,95.671,79.852z M95.671,74.896c0,0,1.11-2.278,2.2-2.11
	c1.09,0.167,0.427,1.505,0.021,1.733c0,0-0.064,0.086-0.149,0.043c-0.086-0.043,0.043-0.25,0.043-0.25s0.319-0.857-0.192-1.025
	C97.081,73.12,96.204,74.02,95.671,74.896z M97.786,72.534c0,0,1.024,0.335,1.474-0.479C99.26,72.055,98.32,71.74,97.786,72.534z
	 M98.73,57.156c0,0,1.26,1.923,0.447,4.201c-0.812,2.279-2.393,3.346-2.393,3.346s-1.069,0.712-1.111,1.736
	c-0.043,1.023,0.6,1.692,1.281,1.776c0.684,0.082,1.859-0.272,2.029-1.59c0,0,0.15-0.92-0.812-1.505c0,0-0.171-0.085-0.19,0
	c-0.022,0.084,0.104,0.208,0.213,0.313c0.105,0.104,0.642,0.647,0.449,1.254c-0.192,0.607-0.791,0.774-1.068,0.754
	c-0.278-0.021-0.919-0.188-0.939-0.92c-0.021-0.731,0.447-1.232,0.641-1.442s1.58-1.799,2.115-3.701
	c0.533-1.901-0.021-3.491-0.556-4.265C98.838,57.114,98.646,56.927,98.73,57.156z M98.73,62.111c0,0-1.112,2.277-2.201,2.111
	c-1.09-0.168-0.428-1.506-0.021-1.736c0,0,0.063-0.084,0.15-0.041c0.085,0.041-0.043,0.25-0.043,0.25s-0.321,0.857,0.191,1.024
	C97.32,63.889,98.195,62.988,98.73,62.111z M96.615,64.473c0,0-1.025-0.332-1.475,0.481C95.141,64.954,96.081,65.268,96.615,64.473z
	 M95.671,67.714c0,0-1.262-1.922-0.448-4.2c0.813-2.279,2.393-3.347,2.393-3.347s1.068-0.711,1.111-1.735
	c0.041-1.022-0.599-1.691-1.283-1.775c-0.684-0.083-1.858,0.271-2.028,1.589c0,0-0.149,0.92,0.812,1.505c0,0,0.172,0.083,0.192,0
	s-0.106-0.208-0.214-0.313c-0.107-0.105-0.641-0.649-0.448-1.256c0.191-0.606,0.791-0.772,1.068-0.752
	c0.278,0.021,0.919,0.188,0.94,0.918c0.021,0.732-0.449,1.234-0.642,1.443c-0.192,0.21-1.582,1.798-2.116,3.7
	c-0.533,1.901,0.021,3.491,0.557,4.266C95.563,67.757,95.756,67.945,95.671,67.714z M95.671,62.76c0,0,1.11-2.277,2.2-2.111
	c1.09,0.168,0.427,1.506,0.021,1.735c0,0-0.064,0.084-0.149,0.041c-0.086-0.041,0.043-0.25,0.043-0.25s0.319-0.856-0.192-1.024
	C97.081,60.982,96.204,61.883,95.671,62.76z M97.786,60.396c0,0,1.024,0.334,1.474-0.479C99.26,59.917,98.32,59.604,97.786,60.396z
	 M98.73,45.02c0,0,1.26,1.922,0.447,4.202c-0.812,2.279-2.393,3.344-2.393,3.344s-1.069,0.711-1.111,1.735
	c-0.043,1.024,0.6,1.693,1.281,1.777c0.684,0.083,1.859-0.272,2.029-1.59c0,0,0.15-0.919-0.812-1.505c0,0-0.171-0.084-0.19,0
	c-0.022,0.084,0.104,0.209,0.213,0.313c0.105,0.105,0.642,0.648,0.449,1.255c-0.192,0.607-0.791,0.774-1.068,0.753
	c-0.278-0.021-0.919-0.188-0.939-0.92c-0.021-0.73,0.447-1.232,0.641-1.441c0.191-0.209,1.58-1.799,2.115-3.7
	c0.533-1.903-0.021-3.492-0.556-4.265C98.838,44.978,98.646,44.788,98.73,45.02z M98.73,49.974c0,0-1.112,2.278-2.201,2.111
	c-1.09-0.167-0.428-1.505-0.021-1.735c0,0,0.063-0.084,0.15-0.042c0.085,0.042-0.043,0.25-0.043,0.25s-0.321,0.856,0.191,1.024
	C97.32,51.751,98.195,50.852,98.73,49.974z M96.615,52.336c0,0-1.025-0.334-1.475,0.48C95.141,52.816,96.081,53.131,96.615,52.336z
	 M95.671,55.576c0,0-1.262-1.922-0.448-4.201c0.813-2.279,2.393-3.345,2.393-3.345s1.068-0.711,1.111-1.735
	c0.041-1.026-0.599-1.694-1.283-1.778c-0.684-0.083-1.858,0.271-2.028,1.589c0,0-0.149,0.919,0.812,1.505c0,0,0.172,0.084,0.192,0
	c0.021-0.083-0.106-0.209-0.214-0.313c-0.107-0.105-0.641-0.648-0.448-1.254c0.191-0.606,0.791-0.774,1.068-0.753
	c0.278,0.021,0.919,0.188,0.94,0.92c0.021,0.732-0.449,1.232-0.642,1.443c-0.192,0.208-1.582,1.797-2.116,3.7
	c-0.533,1.902,0.021,3.491,0.557,4.266C95.563,55.619,95.756,55.809,95.671,55.576z M95.671,50.622c0,0,1.11-2.278,2.2-2.111
	c1.09,0.168,0.427,1.505,0.021,1.735c0,0-0.064,0.084-0.149,0.042c-0.086-0.042,0.043-0.251,0.043-0.251s0.319-0.857-0.192-1.025
	C97.081,48.846,96.204,49.745,95.671,50.622z M97.786,48.26c0,0,1.024,0.333,1.474-0.481C99.26,47.779,98.32,47.465,97.786,48.26z
	 M98.73,32.882c0,0,1.26,1.923,0.447,4.202c-0.812,2.28-2.393,3.346-2.393,3.346s-1.069,0.711-1.111,1.735
	c-0.043,1.024,0.6,1.693,1.281,1.777c0.684,0.083,1.859-0.271,2.029-1.589c0,0,0.15-0.919-0.812-1.505c0,0-0.171-0.083-0.19,0
	c-0.022,0.084,0.104,0.209,0.213,0.313c0.105,0.105,0.642,0.648,0.449,1.254c-0.192,0.607-0.791,0.773-1.068,0.753
	c-0.278-0.021-0.919-0.188-0.939-0.919c-0.021-0.731,0.447-1.233,0.641-1.443c0.191-0.209,1.58-1.798,2.115-3.7
	c0.533-1.903-0.021-3.492-0.556-4.265C98.838,32.84,98.646,32.652,98.73,32.882z M98.73,37.836c0,0-1.112,2.279-2.201,2.112
	c-1.09-0.168-0.428-1.506-0.021-1.736c0,0,0.063-0.083,0.15-0.042c0.085,0.042-0.043,0.25-0.043,0.25s-0.321,0.858,0.191,1.024
	C97.32,39.613,98.195,38.714,98.73,37.836z M96.615,40.199c0,0-1.025-0.334-1.475,0.48C95.141,40.679,96.081,40.994,96.615,40.199z
	 M95.671,43.44c0,0-1.262-1.923-0.448-4.203c0.813-2.279,2.393-3.345,2.393-3.345s1.068-0.71,1.111-1.735
	c0.041-1.024-0.599-1.693-1.283-1.777c-0.684-0.083-1.858,0.272-2.028,1.589c0,0-0.149,0.919,0.812,1.505c0,0,0.172,0.083,0.192,0
	c0.021-0.084-0.106-0.209-0.214-0.313c-0.107-0.105-0.641-0.649-0.448-1.255c0.191-0.606,0.791-0.773,1.068-0.752
	c0.278,0.021,0.919,0.188,0.94,0.92c0.021,0.732-0.449,1.233-0.642,1.442s-1.582,1.798-2.116,3.7
	c-0.533,1.903,0.021,3.492,0.557,4.265C95.563,43.481,95.756,43.67,95.671,43.44z M95.671,38.485c0,0,1.11-2.278,2.2-2.111
	s0.427,1.504,0.021,1.735c0,0-0.064,0.084-0.149,0.042c-0.086-0.042,0.043-0.251,0.043-0.251s0.319-0.857-0.192-1.024
	C97.081,36.708,96.204,37.607,95.671,38.485z M97.786,36.123c0,0,1.024,0.334,1.474-0.481C99.26,35.642,98.32,35.328,97.786,36.123z
	 M98.73,20.744c0,0,1.26,1.923,0.447,4.202c-0.812,2.279-2.393,3.346-2.393,3.346s-1.069,0.71-1.111,1.734
	c-0.043,1.024,0.6,1.693,1.281,1.777c0.684,0.083,1.859-0.271,2.029-1.589c0,0,0.15-0.919-0.812-1.505c0,0-0.171-0.083-0.19,0
	c-0.022,0.084,0.104,0.209,0.213,0.313c0.105,0.105,0.642,0.648,0.449,1.255c-0.192,0.606-0.791,0.773-1.068,0.752
	c-0.278-0.021-0.919-0.188-0.939-0.92c-0.021-0.732,0.447-1.233,0.641-1.442c0.191-0.209,1.58-1.798,2.115-3.7
	c0.533-1.904-0.021-3.492-0.556-4.265C98.838,20.703,98.646,20.514,98.73,20.744z M98.73,25.699c0,0-1.112,2.279-2.201,2.112
	c-1.09-0.167-0.428-1.505-0.021-1.735c0,0,0.063-0.084,0.15-0.042c0.085,0.042-0.043,0.25-0.043,0.25s-0.321,0.857,0.191,1.025
	C97.32,27.476,98.195,26.577,98.73,25.699z M96.615,28.061c0,0-1.025-0.334-1.475,0.481C95.141,28.542,96.081,28.856,96.615,28.061z
	 M95.671,31.303c0,0-1.262-1.923-0.448-4.203c0.813-2.279,2.393-3.345,2.393-3.345s1.068-0.711,1.111-1.736
	c0.041-1.024-0.599-1.693-1.283-1.777c-0.684-0.083-1.858,0.272-2.028,1.589c0,0-0.149,0.92,0.812,1.505c0,0,0.172,0.083,0.192,0
	s-0.106-0.208-0.214-0.313c-0.107-0.104-0.641-0.648-0.448-1.254c0.191-0.607,0.791-0.773,1.068-0.753
	c0.278,0.021,0.919,0.188,0.94,0.919c0.021,0.732-0.449,1.233-0.642,1.443c-0.192,0.209-1.582,1.799-2.116,3.701
	c-0.533,1.902,0.021,3.492,0.557,4.265C95.563,31.344,95.756,31.532,95.671,31.303z M95.671,26.347c0,0,1.11-2.278,2.2-2.111
	c1.09,0.168,0.427,1.506,0.021,1.736c0,0-0.064,0.084-0.149,0.042c-0.086-0.042,0.043-0.25,0.043-0.25s0.319-0.857-0.192-1.025
	C97.081,24.57,96.204,25.47,95.671,26.347z M97.786,23.985c0,0,1.024,0.334,1.474-0.48C99.26,23.505,98.32,23.191,97.786,23.985z
	 M98.73,8.606c0,0,1.26,1.923,0.447,4.203c-0.812,2.279-2.393,3.345-2.393,3.345s-1.069,0.71-1.111,1.735
	c-0.043,1.024,0.6,1.693,1.281,1.777c0.684,0.084,1.859-0.271,2.029-1.589c0,0,0.15-0.919-0.812-1.505c0,0-0.171-0.083-0.19,0
	c-0.022,0.083,0.104,0.209,0.213,0.313c0.105,0.104,0.642,0.649,0.449,1.255c-0.193,0.606-0.791,0.773-1.068,0.752
	c-0.278-0.021-0.919-0.188-0.939-0.919c-0.021-0.732,0.447-1.233,0.641-1.443c0.191-0.209,1.58-1.798,2.115-3.701
	c0.533-1.903-0.021-3.491-0.556-4.265C98.838,8.565,98.646,8.376,98.73,8.606z M98.73,13.562c0,0-1.112,2.279-2.201,2.111
	c-1.09-0.167-0.428-1.505-0.021-1.735c0,0,0.063-0.083,0.15-0.042c0.085,0.042-0.043,0.25-0.043,0.25s-0.321,0.857,0.191,1.025
	C97.32,15.338,98.195,14.439,98.73,13.562z M96.615,15.924c0,0-1.025-0.335-1.475,0.48C95.141,16.405,96.081,16.718,96.615,15.924z
	 M95.671,19.165c0,0-1.262-1.923-0.448-4.202c0.813-2.279,2.393-3.345,2.393-3.345s1.068-0.711,1.111-1.736
	c0.041-1.023-0.599-1.692-1.283-1.776c-0.684-0.083-1.858,0.271-2.028,1.589c0,0-0.149,0.919,0.812,1.505c0,0,0.172,0.083,0.192,0
	s-0.106-0.209-0.214-0.313s-0.641-0.648-0.448-1.255c0.191-0.606,0.791-0.773,1.068-0.752c0.278,0.021,0.919,0.188,0.94,0.919
	c0.021,0.731-0.449,1.233-0.642,1.442s-1.582,1.799-2.116,3.701c-0.533,1.902,0.021,3.491,0.557,4.265
	C95.563,19.207,95.756,19.395,95.671,19.165z M95.671,14.21c0,0,1.11-2.279,2.2-2.111c1.09,0.167,0.427,1.505,0.021,1.735
	c0,0-0.064,0.083-0.149,0.042c-0.086-0.042,0.043-0.251,0.043-0.251s0.319-0.857-0.192-1.024
	C97.081,12.434,96.204,13.333,95.671,14.21z M97.786,11.848c0,0,1.024,0.334,1.474-0.481C99.26,11.367,98.32,11.053,97.786,11.848z
	 M98.861,81.838c0,0,1.262,1.923,0.449,4.202c-0.812,2.278-2.393,3.345-2.393,3.345s-1.068,0.711-1.111,1.735
	c-0.043,1.022,0.598,1.692,1.281,1.776s1.859-0.271,2.03-1.59c0,0,0.149-0.918-0.813-1.505c0,0-0.17-0.083-0.191,0
	s0.107,0.209,0.215,0.313c0.105,0.104,0.641,0.648,0.447,1.255c-0.191,0.604-0.789,0.772-1.067,0.752s-0.919-0.188-0.94-0.92
	c-0.021-0.731,0.449-1.233,0.643-1.441c0.191-0.21,1.581-1.799,2.113-3.7c0.535-1.902-0.021-3.492-0.555-4.266
	C98.971,81.796,98.777,81.607,98.861,81.838z M98.861,86.793c0,0-1.11,2.277-2.199,2.111c-1.09-0.168-0.428-1.506-0.021-1.735
	c0,0,0.063-0.084,0.149-0.043c0.085,0.043-0.042,0.252-0.042,0.252s-0.321,0.856,0.191,1.024
	C97.452,88.568,98.329,87.671,98.861,86.793z M96.748,89.154c0,0-1.025-0.334-1.477,0.48C95.271,89.636,96.213,89.95,96.748,89.154z
	 M95.805,92.396c0,0-1.263-1.924-0.451-4.203c0.813-2.279,2.395-3.346,2.395-3.346s1.068-0.709,1.109-1.733
	c0.043-1.023-0.596-1.692-1.28-1.777c-0.685-0.084-1.86,0.272-2.03,1.59c0,0-0.148,0.919,0.813,1.505c0,0,0.172,0.084,0.193,0
	c0.021-0.082-0.107-0.209-0.215-0.313c-0.107-0.105-0.641-0.648-0.447-1.256c0.19-0.605,0.789-0.771,1.066-0.752
	c0.277,0.021,0.92,0.188,0.939,0.921c0.021,0.729-0.448,1.233-0.641,1.44c-0.191,0.209-1.581,1.799-2.115,3.7
	c-0.535,1.903,0.021,3.491,0.557,4.267C95.695,92.438,95.889,92.625,95.805,92.396z M95.805,87.439c0,0,1.109-2.277,2.198-2.11
	c1.091,0.168,0.429,1.505,0.021,1.735c0,0-0.063,0.084-0.147,0.041c-0.086-0.041,0.042-0.25,0.042-0.25s0.32-0.857-0.191-1.024
	C97.214,85.664,96.337,86.563,95.805,87.439z M97.918,85.078c0,0,1.025,0.334,1.475-0.48C99.393,84.598,98.453,84.283,97.918,85.078
	z M57.456,26.404c0,0-0.332-0.158-0.315-0.538c0.017-0.38,0.379-0.807,1.06-0.712c0.681,0.095,1.108,0.649,0.935,1.44
	c-0.175,0.792-1.503,1.313-2.863,0.633c-1.36-0.679-1.726-0.902-3.021-0.902c0,0,1.346-0.126,2.657,0.427
	c1.313,0.554,2.151,0.143,2.342-0.284c0.188-0.428-0.048-0.711-0.284-0.711C57.727,25.755,57.313,25.85,57.456,26.404z
	 M54.339,27.084c0,0,1.853,0.553,1.552,2.389c0,0,0.396-1.013-0.096-1.55C55.305,27.385,54.339,27.084,54.339,27.084z
	 M56.127,28.065c0,0,0.791,1.012,0.096,2.009c0,0-0.144,0.159-0.017,0.222c0.127,0.064,1.092-0.632,0.997-1.423
	C57.203,28.872,56.555,28.334,56.127,28.065z M58.057,29.546c0,0,2.496,1.602,5.455,0.569c2.961-1.031,4.346-3.041,4.346-3.041
	s0.922-1.357,2.252-1.412c1.332-0.055,2.201,0.76,2.309,1.629c0.109,0.869-0.354,2.362-2.063,2.58c0,0-1.193,0.189-1.955-1.032
	c0,0-0.107-0.216,0-0.244c0.108-0.028,0.271,0.135,0.408,0.271c0.135,0.135,0.842,0.814,1.629,0.57
	c0.787-0.245,1.004-1.005,0.978-1.358c-0.026-0.352-0.244-1.167-1.194-1.195c-0.949-0.026-1.602,0.571-1.873,0.815
	c-0.271,0.245-2.336,2.01-4.807,2.688c-2.471,0.679-4.534-0.027-5.538-0.706C58.001,29.681,57.756,29.438,58.057,29.546z
	 M64.49,29.546c0,0,2.959-1.412,2.74-2.796c-0.217-1.385-1.953-0.543-2.252-0.027c0,0-0.108,0.081-0.056,0.19
	c0.056,0.109,0.326-0.054,0.326-0.054s1.112-0.407,1.33,0.244C66.798,27.753,65.629,28.867,64.49,29.546z M67.559,26.858
	c0,0-0.436-1.303,0.623-1.873C68.182,24.985,68.59,26.179,67.559,26.858z M43.021,26.404c0,0,0.332-0.158,0.317-0.538
	c-0.016-0.38-0.38-0.807-1.061-0.712c-0.68,0.095-1.107,0.649-0.933,1.44c0.174,0.792,1.503,1.313,2.863,0.633
	c1.361-0.679,1.725-0.902,3.022-0.902c0,0-1.345-0.126-2.658,0.427c-1.314,0.554-2.152,0.143-2.341-0.285
	c-0.19-0.427,0.046-0.711,0.284-0.711C42.752,25.755,43.164,25.85,43.021,26.404z M46.138,27.084c0,0-1.85,0.554-1.55,2.389
	c0,0-0.395-1.013,0.095-1.55C45.173,27.385,46.138,27.084,46.138,27.084z M44.351,28.065c0,0-0.791,1.012-0.095,2.009
	c0,0,0.143,0.159,0.017,0.222s-1.092-0.633-0.997-1.423C43.275,28.872,43.923,28.334,44.351,28.065z M42.423,29.546
	c0,0-2.498,1.602-5.458,0.569c-2.959-1.031-4.344-3.041-4.344-3.041s-0.924-1.357-2.253-1.412c-1.331-0.055-2.199,0.76-2.308,1.629
	c-0.108,0.869,0.354,2.362,2.064,2.58c0,0,1.194,0.189,1.955-1.032c0,0,0.108-0.216,0-0.244c-0.108-0.028-0.272,0.135-0.408,0.271
	c-0.136,0.135-0.841,0.814-1.629,0.57c-0.787-0.245-1.004-1.005-0.978-1.358c0.027-0.352,0.245-1.167,1.196-1.195
	c0.95-0.026,1.601,0.571,1.873,0.814c0.271,0.245,2.335,2.01,4.806,2.688c2.47,0.679,4.534-0.027,5.539-0.706
	C42.477,29.681,42.721,29.438,42.423,29.546z M35.988,29.546c0,0-2.959-1.412-2.742-2.796c0.218-1.385,1.955-0.543,2.253-0.027
	c0,0,0.11,0.081,0.055,0.19c-0.055,0.109-0.326-0.054-0.326-0.054s-1.113-0.407-1.331,0.244
	C33.681,27.753,34.848,28.867,35.988,29.546z M32.92,26.858c0,0,0.435-1.303-0.625-1.873C32.295,24.985,31.889,26.179,32.92,26.858z
	 M63.658,28.809c-0.078-0.269-0.553-0.174-0.553-0.174c0.33-0.696-0.523-0.617-0.396-0.792c0.127-0.174,0.49-0.822,0.27-0.997
	c-0.223-0.174-0.633,0.174-0.633,0.174c-1.014,0.775-1.994,1.044-1.994,1.044c-1.883,0.522-3.718-0.427-4.842-1.06
	c-1.123-0.632-2.246-0.553-2.246-0.553c-1.824,0.243-2.334,1.633-2.462,2.149h0.505c0.176-0.831,1.012-1.657,2.021-1.722
	c1.218-0.08,2.356,0.649,3.479,1.439c1.123,0.791,2.057,1.345,3.955,1.535C62.661,30.043,63.736,29.077,63.658,28.809z
	 M47.214,26.452c0,0-1.124-0.079-2.247,0.553c-1.124,0.633-2.958,1.582-4.841,1.06c0,0-0.981-0.269-1.994-1.044
	c0,0-0.412-0.348-0.633-0.174c-0.222,0.174,0.143,0.823,0.269,0.997c0.127,0.174-0.728,0.095-0.395,0.792
	c0,0-0.475-0.095-0.554,0.174c-0.08,0.268,0.997,1.234,2.895,1.043c1.898-0.19,2.832-0.743,3.956-1.535
	c1.124-0.791,2.262-1.519,3.48-1.439c1.011,0.065,1.845,0.892,2.021,1.722h0.504C49.548,28.085,49.038,26.695,47.214,26.452z
	 M51.396,28.739h-2.414c-0.191,0-0.348,0.156-0.348,0.348v0.014c0,0.192,0.157,0.348,0.348,0.348h2.414
	c0.192,0,0.351-0.156,0.351-0.348v-0.014C51.747,28.895,51.59,28.739,51.396,28.739z M74.533,43.48c0,0,0.156,0.333,0.537,0.317
	c0.38-0.016,0.808-0.38,0.713-1.06c-0.094-0.681-0.649-1.108-1.439-0.934c-0.792,0.174-1.313,1.503-0.633,2.863s0.9,1.726,0.9,3.022
	c0,0,0.127-1.344-0.426-2.658c-0.556-1.313-0.145-2.152,0.283-2.341s0.713,0.047,0.713,0.284
	C75.182,43.212,75.087,43.623,74.533,43.48z M73.854,46.597c0,0-0.555-1.851-2.39-1.55c0,0,1.013-0.396,1.55,0.095
	C73.553,45.632,73.854,46.597,73.854,46.597z M72.872,44.81c0,0-1.013-0.791-2.009-0.095c0,0-0.158,0.143-0.223,0.016
	c-0.063-0.127,0.633-1.092,1.424-0.997C72.064,43.734,72.602,44.382,72.872,44.81z M71.391,42.881c0,0-1.602-2.497-0.57-5.457
	c1.033-2.959,3.041-4.344,3.041-4.344s1.357-0.923,1.412-2.253c0.057-1.33-0.76-2.199-1.629-2.308
	c-0.867-0.109-2.361,0.353-2.578,2.064c0,0-0.189,1.194,1.031,1.954c0,0,0.217,0.109,0.243,0c0.028-0.109-0.135-0.271-0.271-0.407
	c-0.135-0.135-0.814-0.842-0.57-1.629c0.245-0.788,1.005-1.004,1.357-0.977s1.166,0.244,1.193,1.194
	c0.027,0.95-0.57,1.602-0.813,1.873c-0.246,0.272-2.012,2.336-2.688,4.806c-0.679,2.471,0.026,4.534,0.706,5.539
	C71.256,42.936,71.5,43.18,71.391,42.881z M71.391,36.447c0,0,1.412-2.959,2.797-2.742c1.386,0.218,0.543,1.954,0.027,2.253
	c0,0-0.081,0.108-0.189,0.055c-0.108-0.055,0.055-0.326,0.055-0.326s0.406-1.114-0.245-1.331
	C73.184,34.14,72.07,35.308,71.391,36.447z M74.079,33.38c0,0,1.304,0.434,1.873-0.625C75.952,32.755,74.758,32.348,74.079,33.38z
	 M74.533,57.915c0,0,0.156-0.332,0.537-0.315c0.38,0.017,0.808,0.379,0.713,1.061c-0.094,0.681-0.649,1.105-1.439,0.934
	c-0.792-0.175-1.313-1.504-0.633-2.863c0.68-1.36,0.9-1.726,0.9-3.022c0,0,0.127,1.347-0.426,2.658
	c-0.556,1.313-0.145,2.151,0.283,2.342c0.428,0.188,0.713-0.048,0.713-0.284C75.182,58.186,75.087,57.771,74.533,57.915z
	 M73.854,54.799c0,0-0.555,1.852-2.39,1.551c0,0,1.013,0.396,1.55-0.096C73.553,55.764,73.854,54.799,73.854,54.799z M72.872,56.586
	c0,0-1.013,0.791-2.009,0.096c0,0-0.158-0.144-0.223-0.017c-0.063,0.127,0.633,1.092,1.424,0.997
	C72.064,57.662,72.602,57.014,72.872,56.586z M71.391,58.514c0,0-1.602,2.498-0.57,5.459c1.033,2.959,3.041,4.344,3.041,4.344
	s1.357,0.923,1.412,2.252c0.057,1.33-0.76,2.201-1.629,2.31c-0.867,0.108-2.361-0.354-2.578-2.063c0,0-0.189-1.194,1.031-1.955
	c0,0,0.217-0.107,0.243,0c0.027,0.109-0.135,0.271-0.271,0.408c-0.135,0.135-0.814,0.842-0.57,1.629
	c0.245,0.787,1.005,1.004,1.357,0.978c0.352-0.026,1.166-0.244,1.193-1.195c0.027-0.948-0.57-1.601-0.813-1.872
	c-0.246-0.271-2.012-2.336-2.688-4.807c-0.679-2.471,0.026-4.534,0.706-5.538C71.256,58.46,71.5,58.216,71.391,58.514z
	 M71.391,64.948c0,0,1.412,2.96,2.797,2.741c1.386-0.217,0.543-1.953,0.027-2.252c0,0-0.082-0.109-0.189-0.055
	c-0.108,0.055,0.055,0.325,0.055,0.325s0.406,1.112-0.245,1.33S72.07,66.089,71.391,64.948z M74.079,68.018
	c0,0,1.304-0.435,1.873,0.623C75.952,68.641,74.759,69.048,74.079,68.018z M72.127,37.278c0.271,0.079,0.176,0.554,0.176,0.554
	c0.695-0.332,0.617,0.523,0.791,0.396s0.822-0.491,0.997-0.269c0.173,0.221-0.175,0.632-0.175,0.632
	c-0.773,1.013-1.044,1.994-1.044,1.994c-0.522,1.883,0.427,3.718,1.06,4.841s0.555,2.247,0.555,2.247
	c-0.243,1.823-1.635,2.333-2.149,2.461V49.63c0.831-0.176,1.657-1.011,1.724-2.021c0.078-1.218-0.648-2.357-1.439-3.481
	c-0.791-1.123-1.346-2.057-1.535-3.955C70.895,38.275,71.859,37.2,72.127,37.278z M74.486,53.723c0,0,0.078,1.125-0.555,2.246
	c-0.634,1.124-1.582,2.959-1.061,4.842c0,0,0.27,0.981,1.044,1.994c0,0,0.349,0.411,0.175,0.633
	c-0.175,0.222-0.822-0.143-0.997-0.27c-0.174-0.126-0.096,0.729-0.791,0.396c0,0,0.097,0.475-0.176,0.554
	c-0.269,0.079-1.231-0.996-1.043-2.896c0.188-1.898,0.744-2.832,1.535-3.955c0.791-1.125,1.519-2.264,1.438-3.48
	c-0.064-1.01-0.892-1.846-1.723-2.021v-0.505C72.852,51.391,74.242,51.898,74.486,53.723z M72.198,49.539v2.414
	c0,0.191-0.156,0.348-0.349,0.348h-0.014c-0.191,0-0.35-0.156-0.35-0.348v-2.414c0-0.192,0.158-0.348,0.35-0.348h0.014
	C72.042,49.191,72.198,49.347,72.198,49.539z M43.009,75.005c0,0,0.333,0.158,0.316,0.539c-0.016,0.379-0.38,0.806-1.06,0.711
	c-0.681-0.095-1.107-0.649-0.934-1.438c0.174-0.793,1.503-1.313,2.864-0.633c1.36,0.68,1.725,0.899,3.021,0.899
	c0,0-1.345,0.127-2.657-0.426c-1.313-0.556-2.152-0.144-2.342,0.284c-0.189,0.427,0.048,0.711,0.285,0.711
	C42.74,75.652,43.152,75.559,43.009,75.005z M46.126,74.323c0,0-1.851-0.554-1.551-2.388c0,0-0.396,1.012,0.095,1.549
	C45.161,74.023,46.126,74.323,46.126,74.323z M44.338,73.344c0,0-0.792-1.012-0.095-2.009c0,0,0.142-0.159,0.016-0.224
	c-0.127-0.063-1.092,0.635-0.998,1.425C43.262,72.536,43.912,73.074,44.338,73.344z M42.41,71.861c0,0-2.497-1.602-5.457-0.569
	c-2.96,1.033-4.344,3.041-4.344,3.041s-0.923,1.356-2.253,1.412c-1.331,0.055-2.2-0.761-2.308-1.629s0.352-2.361,2.064-2.579
	c0,0,1.194-0.189,1.954,1.031c0,0,0.108,0.218,0,0.244c-0.108,0.027-0.271-0.136-0.407-0.271c-0.136-0.135-0.842-0.813-1.629-0.57
	c-0.788,0.245-1.004,1.006-0.978,1.358c0.027,0.353,0.244,1.168,1.194,1.194c0.951,0.026,1.602-0.57,1.874-0.814
	s2.335-2.01,4.806-2.688c2.471-0.68,4.534,0.025,5.539,0.705C42.464,71.729,42.708,71.971,42.41,71.861z M35.975,71.861
	c0,0-2.958,1.414-2.741,2.798c0.217,1.385,1.955,0.543,2.253,0.026c0,0,0.108-0.08,0.055-0.188
	c-0.055-0.108-0.327,0.054-0.327,0.054s-1.113,0.407-1.33-0.244C33.668,73.656,34.835,72.541,35.975,71.861z M32.908,74.551
	c0,0,0.434,1.303-0.625,1.873C32.284,76.424,31.876,75.229,32.908,74.551z M57.443,75.005c0,0-0.332,0.158-0.316,0.539
	c0.018,0.379,0.38,0.806,1.061,0.711s1.107-0.649,0.935-1.438c-0.174-0.793-1.503-1.313-2.864-0.633
	c-1.359,0.68-1.725,0.899-3.021,0.899c0,0,1.346,0.127,2.658-0.426c1.313-0.556,2.151-0.144,2.342,0.284
	c0.189,0.427-0.047,0.711-0.284,0.711S57.301,75.559,57.443,75.005z M54.326,74.323c0,0,1.852-0.554,1.552-2.388
	c0,0,0.396,1.012-0.096,1.549C55.292,74.023,54.326,74.323,54.326,74.323z M56.115,73.344c0,0,0.789-1.012,0.095-2.009
	c0,0-0.144-0.159-0.017-0.224c0.125-0.063,1.092,0.635,0.996,1.425C57.189,72.536,56.542,73.074,56.115,73.344z M58.043,71.861
	c0,0,2.498-1.602,5.457-0.569c2.959,1.033,4.346,3.041,4.346,3.041s0.922,1.356,2.252,1.412c1.33,0.055,2.199-0.761,2.31-1.629
	c0.106-0.868-0.354-2.361-2.064-2.579c0,0-1.194-0.189-1.954,1.031c0,0-0.109,0.218,0,0.244c0.108,0.026,0.271-0.136,0.407-0.271
	c0.136-0.135,0.841-0.813,1.628-0.57c0.788,0.245,1.006,1.006,0.979,1.358s-0.244,1.167-1.195,1.194
	c-0.948,0.026-1.602-0.57-1.872-0.813c-0.271-0.245-2.336-2.011-4.808-2.688c-2.471-0.679-4.533,0.026-5.537,0.707
	C57.988,71.729,57.744,71.971,58.043,71.861z M64.477,71.861c0,0,2.961,1.414,2.742,2.798c-0.217,1.385-1.953,0.543-2.253,0.026
	c0,0-0.108-0.08-0.054-0.188c0.054-0.108,0.324,0.054,0.324,0.054s1.113,0.407,1.332-0.244
	C66.784,73.655,65.617,72.541,64.477,71.861z M67.546,74.551c0,0-0.437,1.303,0.624,1.873C68.17,76.424,68.576,75.229,67.546,74.551
	z M36.807,72.6c0.079,0.271,0.554,0.176,0.554,0.176c-0.333,0.694,0.523,0.615,0.396,0.789c-0.128,0.176-0.491,0.824-0.269,0.998
	c0.221,0.174,0.632-0.174,0.632-0.174c1.014-0.775,1.995-1.045,1.995-1.045c1.882-0.521,3.717,0.428,4.841,1.062
	c1.123,0.632,2.246,0.553,2.246,0.553c1.824-0.244,2.334-1.634,2.461-2.149h-0.504c-0.175,0.832-1.011,1.656-2.021,1.724
	c-1.218,0.077-2.357-0.649-3.481-1.44c-1.123-0.79-2.058-1.344-3.956-1.533C37.804,71.366,36.729,72.332,36.807,72.6z
	 M53.251,74.957c0,0,1.124,0.079,2.246-0.553c1.124-0.635,2.959-1.584,4.843-1.062c0,0,0.98,0.269,1.993,1.044
	c0,0,0.411,0.348,0.632,0.176c0.223-0.176-0.142-0.823-0.27-0.998c-0.127-0.174,0.729-0.096,0.396-0.791
	c0,0,0.475,0.096,0.553-0.174c0.08-0.269-0.996-1.233-2.895-1.045c-1.898,0.19-2.833,0.744-3.956,1.534
	c-1.124,0.791-2.262,1.519-3.479,1.44c-1.01-0.066-1.846-0.893-2.021-1.723H50.79C50.917,73.323,51.428,74.713,53.251,74.957z
	 M49.068,72.669h2.415c0.189,0,0.349-0.153,0.349-0.347v-0.014c0-0.192-0.158-0.35-0.349-0.35h-2.415
	c-0.193,0-0.348,0.156-0.348,0.35v0.014C48.72,72.516,48.875,72.669,49.068,72.669z M25.932,57.93c0,0-0.158-0.335-0.538-0.318
	c-0.379,0.018-0.806,0.381-0.712,1.061c0.095,0.682,0.649,1.108,1.44,0.936c0.791-0.174,1.313-1.504,0.632-2.864
	c-0.68-1.36-0.901-1.726-0.901-3.021c0,0-0.126,1.344,0.427,2.656c0.554,1.313,0.143,2.152-0.285,2.342
	c-0.428,0.189-0.711-0.047-0.711-0.283C25.284,58.195,25.378,57.785,25.932,57.93z M26.613,54.811c0,0,0.553,1.853,2.388,1.551
	c0,0-1.012,0.396-1.55-0.094C26.913,55.775,26.613,54.811,26.613,54.811z M27.593,56.6c0,0,1.013,0.789,2.009,0.096
	c0,0,0.158-0.145,0.222-0.018c0.064,0.127-0.633,1.092-1.424,0.997C28.4,57.675,27.863,57.025,27.593,56.6z M29.074,58.527
	c0,0,1.602,2.496,0.569,5.457c-1.031,2.959-3.041,4.344-3.041,4.344s-1.356,0.923-1.411,2.253c-0.055,1.33,0.759,2.2,1.627,2.31
	c0.869,0.106,2.363-0.354,2.581-2.065c0,0,0.189-1.193-1.032-1.953c0,0-0.217-0.108-0.244,0s0.136,0.271,0.271,0.407
	c0.136,0.135,0.814,0.842,0.57,1.629c-0.245,0.787-1.005,1.004-1.357,0.978c-0.353-0.026-1.167-0.243-1.195-1.194
	c-0.027-0.949,0.571-1.603,0.814-1.873c0.245-0.271,2.009-2.336,2.688-4.807c0.679-2.471-0.027-4.533-0.706-5.537
	C29.209,58.473,28.965,58.229,29.074,58.527z M29.074,64.962c0,0-1.412,2.959-2.796,2.741c-1.385-0.217-0.543-1.954-0.027-2.253
	c0,0,0.082-0.108,0.19-0.056c0.108,0.056-0.054,0.325-0.054,0.325s-0.408,1.115,0.244,1.331
	C27.282,67.27,28.395,66.102,29.074,64.962z M26.386,68.027c0,0-1.303-0.433-1.874,0.625C24.513,68.652,25.708,69.061,26.386,68.027
	z M25.932,43.494c0,0-0.158,0.332-0.538,0.316c-0.379-0.017-0.806-0.38-0.712-1.06c0.095-0.681,0.649-1.107,1.44-0.934
	c0.791,0.174,1.313,1.503,0.632,2.863c-0.68,1.361-0.901,1.725-0.901,3.022c0,0-0.126-1.346,0.427-2.659
	c0.554-1.313,0.143-2.151-0.285-2.34c-0.428-0.19-0.712,0.047-0.711,0.284C25.284,43.224,25.378,43.636,25.932,43.494z
	 M26.613,46.61c0,0,0.553-1.851,2.388-1.55c0,0-1.012-0.396-1.55,0.095C26.913,45.645,26.613,46.61,26.613,46.61z M27.593,44.823
	c0,0,1.013-0.792,2.009-0.095c0,0,0.158,0.143,0.222,0.016c0.063-0.126-0.633-1.092-1.424-0.997
	C28.4,43.747,27.863,44.395,27.593,44.823z M29.074,42.894c0,0,1.602-2.498,0.569-5.456c-1.03-2.959-3.041-4.345-3.041-4.345
	s-1.356-0.922-1.411-2.252c-0.055-1.331,0.759-2.2,1.627-2.308c0.869-0.109,2.363,0.353,2.581,2.063c0,0,0.189,1.195-1.032,1.955
	c0,0-0.217,0.109-0.244,0c-0.027-0.109,0.136-0.271,0.271-0.408c0.135-0.136,0.814-0.842,0.57-1.629
	c-0.245-0.788-1.005-1.004-1.357-0.978c-0.353,0.027-1.167,0.245-1.195,1.195c-0.027,0.949,0.571,1.601,0.814,1.873
	c0.245,0.271,2.009,2.335,2.688,4.805c0.679,2.471-0.027,4.535-0.706,5.539C29.209,42.948,28.965,43.193,29.074,42.894z
	 M29.074,36.459c0,0-1.412-2.959-2.796-2.742c-1.385,0.218-0.543,1.955-0.027,2.253c0,0,0.082,0.109,0.19,0.054
	c0.108-0.054-0.054-0.326-0.054-0.326s-0.408-1.113,0.244-1.331C27.282,34.152,28.395,35.319,29.074,36.459z M26.386,33.392
	c0,0-1.303,0.434-1.874-0.625C24.513,32.767,25.708,32.36,26.386,33.392z M28.337,64.13c-0.269-0.078-0.174-0.554-0.174-0.554
	c-0.695,0.332-0.617-0.523-0.79-0.396c-0.175,0.127-0.824,0.49-0.998,0.27s0.174-0.633,0.174-0.633
	c0.775-1.012,1.044-1.993,1.044-1.993c0.523-1.884-0.427-3.72-1.06-4.843c-0.632-1.123-0.553-2.246-0.553-2.246
	c0.243-1.822,1.634-2.334,2.149-2.461v0.504c-0.831,0.177-1.656,1.012-1.723,2.021c-0.079,1.22,0.649,2.357,1.44,3.479
	c0.792,1.125,1.345,2.06,1.534,3.957C29.571,63.134,28.605,64.208,28.337,64.13z M25.98,47.686c0,0-0.079-1.124,0.553-2.246
	c0.633-1.124,1.582-2.959,1.06-4.842c0,0-0.269-0.98-1.044-1.994c0,0-0.348-0.411-0.174-0.632c0.174-0.222,0.822,0.142,0.998,0.269
	c0.173,0.126,0.095-0.728,0.79-0.396c0,0-0.095-0.475,0.174-0.553c0.269-0.08,1.234,0.997,1.043,2.895
	c-0.189,1.899-0.743,2.832-1.534,3.956c-0.791,1.123-1.519,2.262-1.44,3.48c0.066,1.01,0.892,1.845,1.723,2.021v0.504
	C27.614,50.02,26.223,49.509,25.98,47.686z M28.267,51.869v-2.414c0-0.191,0.157-0.348,0.348-0.348h0.014
	c0.192,0,0.348,0.157,0.348,0.348v2.414c0,0.191-0.157,0.349-0.348,0.349h-0.014C28.423,52.218,28.267,52.063,28.267,51.869z
	 M50.232,25.489c0,0-1.07,1.734,0,3.038C51.303,27.224,50.232,25.489,50.232,25.489z M24.787,50.602c0,0,1.735,1.071,3.038,0
	C26.522,49.531,24.787,50.602,24.787,50.602z M50.19,75.801c0,0,1.07-1.734,0-3.037C49.12,74.066,50.19,75.801,50.19,75.801z
	 M75.635,50.688c0,0-1.732-1.069-3.037,0C73.9,51.759,75.635,50.688,75.635,50.688z M62.303,11.014c0,0-0.545-0.259-0.52-0.883
	s0.624-1.324,1.738-1.169c1.119,0.156,1.819,1.066,1.535,2.364c-0.285,1.299-2.468,2.156-4.703,1.04
	c-2.232-1.116-2.83-1.481-4.961-1.481c0,0,2.209-0.208,4.363,0.701c2.157,0.91,3.534,0.234,3.846-0.467
	c0.312-0.702-0.078-1.168-0.468-1.168C62.746,9.95,62.068,10.105,62.303,11.014z M57.188,12.132c0,0,3.037,0.908,2.543,3.921
	c0,0,0.649-1.661-0.153-2.544C58.77,12.625,57.188,12.132,57.188,12.132z M60.121,13.742c0,0,1.298,1.662,0.154,3.299
	c0,0-0.232,0.26-0.024,0.364c0.207,0.104,1.793-1.039,1.638-2.338C61.889,15.066,60.822,14.185,60.121,13.742z M63.287,16.174
	c0,0,4.1,2.63,8.96,0.936c4.858-1.694,7.133-4.994,7.133-4.994s1.515-2.229,3.7-2.318c2.184-0.09,3.609,1.249,3.788,2.675
	c0.179,1.427-0.578,3.879-3.388,4.236c0,0-1.961,0.312-3.209-1.695c0,0-0.179-0.356,0-0.4c0.178-0.045,0.443,0.222,0.666,0.445
	c0.224,0.222,1.383,1.337,2.676,0.936c1.294-0.401,1.648-1.65,1.604-2.229s-0.399-1.917-1.961-1.962
	c-1.562-0.044-2.631,0.937-3.075,1.338c-0.445,0.4-3.832,3.299-7.891,4.412c-4.057,1.115-7.445-0.044-9.096-1.158
	C63.197,16.396,62.796,15.995,63.287,16.174z M73.852,16.174c0,0,4.859-2.319,4.504-4.592c-0.357-2.274-3.209-0.892-3.699-0.046
	c0,0-0.18,0.135-0.092,0.313c0.092,0.178,0.535-0.089,0.535-0.089s1.83-0.669,2.185,0.401C77.641,13.23,75.725,15.059,73.852,16.174
	z M78.889,11.76c0,0-0.713-2.14,1.025-3.076C79.914,8.685,80.582,10.645,78.889,11.76z M38.603,11.014c0,0,0.545-0.259,0.52-0.883
	c-0.027-0.624-0.625-1.324-1.741-1.169c-1.117,0.156-1.817,1.066-1.532,2.364c0.285,1.299,2.466,2.156,4.701,1.04
	c2.234-1.116,2.832-1.481,4.962-1.481c0,0-2.208-0.208-4.365,0.701c-2.156,0.91-3.534,0.234-3.844-0.467
	c-0.312-0.702,0.077-1.168,0.466-1.167C38.161,9.95,38.836,10.105,38.603,11.014z M43.721,12.132c0,0-3.04,0.909-2.546,3.921
	c0,0-0.65-1.661,0.157-2.544C42.135,12.625,43.721,12.132,43.721,12.132z M40.785,13.742c0,0-1.298,1.662-0.155,3.299
	c0,0,0.233,0.26,0.024,0.364c-0.207,0.104-1.792-1.04-1.635-2.338C39.019,15.066,40.083,14.185,40.785,13.742z M37.619,16.174
	c0,0-4.101,2.63-8.96,0.936c-4.858-1.694-7.133-4.994-7.133-4.994s-1.516-2.229-3.699-2.318c-2.184-0.09-3.61,1.249-3.79,2.675
	c-0.178,1.427,0.58,3.879,3.389,4.236c0,0,1.961,0.312,3.21-1.695c0,0,0.177-0.356,0-0.4c-0.179-0.045-0.446,0.222-0.67,0.445
	c-0.223,0.222-1.382,1.337-2.674,0.936c-1.292-0.401-1.648-1.65-1.605-2.229c0.046-0.579,0.402-1.917,1.963-1.962
	c1.56-0.044,2.628,0.937,3.075,1.337c0.446,0.401,3.834,3.3,7.891,4.413c4.056,1.115,7.444-0.044,9.094-1.158
	C37.709,16.396,38.109,15.995,37.619,16.174z M27.054,16.174c0,0-4.859-2.319-4.502-4.592c0.356-2.274,3.209-0.892,3.699-0.046
	c0,0,0.179,0.135,0.089,0.313c-0.089,0.178-0.534-0.089-0.534-0.089s-1.828-0.669-2.185,0.401
	C23.265,13.23,25.181,15.059,27.054,16.174z M22.017,11.76c0,0,0.713-2.14-1.026-3.076C20.991,8.685,20.325,10.645,22.017,11.76z
	 M72.488,14.962c-0.131-0.441-0.91-0.285-0.91-0.285c0.545-1.143-0.859-1.013-0.651-1.299s0.808-1.352,0.442-1.638
	c-0.364-0.285-1.039,0.286-1.039,0.286c-1.662,1.273-3.271,1.714-3.271,1.714c-3.093,0.858-6.105-0.701-7.951-1.74
	c-1.844-1.039-3.688-0.909-3.688-0.909c-2.994,0.4-3.831,2.682-4.042,3.529h0.829c0.288-1.365,1.66-2.72,3.317-2.829
	c2-0.13,3.869,1.066,5.713,2.364c1.846,1.299,3.38,2.208,6.496,2.52C70.852,16.989,72.616,15.404,72.488,14.962z M45.487,11.093
	c0,0-1.845-0.129-3.689,0.909c-1.844,1.039-4.857,2.598-7.948,1.74c0,0-1.611-0.441-3.275-1.714c0,0-0.676-0.571-1.039-0.286
	c-0.362,0.286,0.234,1.352,0.442,1.638s-1.194,0.156-0.649,1.299c0,0-0.78-0.157-0.908,0.285c-0.132,0.441,1.634,2.027,4.752,1.714
	c3.119-0.312,4.65-1.219,6.494-2.52c1.846-1.298,3.715-2.494,5.716-2.364c1.658,0.108,3.028,1.464,3.318,2.829h0.827
	C49.318,13.774,48.479,11.493,45.487,11.093z M52.355,14.849h-3.963c-0.314,0-0.572,0.257-0.571,0.572l-0.001,0.022
	c0,0.316,0.258,0.571,0.572,0.571h3.963c0.315,0,0.57-0.256,0.57-0.571V15.42C52.927,15.104,52.672,14.849,52.355,14.849z
	 M90.343,39.054c0,0,0.259,0.546,0.884,0.521c0.623-0.027,1.323-0.625,1.168-1.741c-0.153-1.118-1.064-1.819-2.362-1.533
	c-1.302,0.285-2.157,2.467-1.038,4.701c1.113,2.234,1.479,2.833,1.479,4.963c0,0,0.209-2.208-0.701-4.364
	c-0.91-2.157-0.232-3.534,0.467-3.846c0.701-0.311,1.17,0.078,1.17,0.467C91.407,38.612,91.253,39.288,90.343,39.054z
	 M89.227,44.171c0,0-0.91-3.04-3.925-2.546c0,0,1.663-0.649,2.546,0.157C88.732,42.586,89.227,44.171,89.227,44.171z M87.615,41.236
	c0,0-1.662-1.298-3.299-0.157c0,0-0.262,0.234-0.363,0.026c-0.105-0.208,1.038-1.793,2.338-1.637
	C86.291,39.469,87.173,40.534,87.615,41.236z M85.184,38.069c0,0-2.631-4.1-0.937-8.96c1.694-4.858,4.993-7.132,4.993-7.132
	s2.228-1.516,2.316-3.7c0.092-2.184-1.246-3.612-2.674-3.789c-1.427-0.178-3.878,0.578-4.236,3.39c0,0-0.311,1.96,1.695,3.208
	c0,0,0.356,0.178,0.4,0c0.045-0.178-0.223-0.445-0.443-0.668c-0.225-0.223-1.339-1.382-0.938-2.674
	c0.402-1.294,1.65-1.649,2.228-1.606c0.58,0.044,1.918,0.401,1.963,1.961c0.044,1.561-0.938,2.63-1.338,3.075
	c-0.399,0.447-3.299,3.835-4.413,7.891c-1.113,4.058,0.045,7.444,1.159,9.095C84.961,38.16,85.361,38.561,85.184,38.069z
	 M85.184,27.504c0,0,2.317-4.858,4.59-4.501c2.274,0.357,0.895,3.208,0.047,3.699c0,0-0.133,0.179-0.313,0.09
	c-0.178-0.09,0.09-0.535,0.09-0.535s0.67-1.828-0.402-2.184C88.127,23.716,86.3,25.633,85.184,27.504z M89.596,22.469
	c0,0,2.141,0.712,3.077-1.026C92.673,21.442,90.711,20.773,89.596,22.469z M90.343,62.754c0,0,0.259-0.546,0.884-0.521
	c0.623,0.027,1.323,0.625,1.168,1.742c-0.153,1.117-1.064,1.817-2.362,1.532c-1.302-0.284-2.157-2.467-1.038-4.702
	c1.113-2.232,1.479-2.83,1.479-4.961c0,0,0.209,2.207-0.701,4.362c-0.91,2.158-0.232,3.535,0.467,3.847
	c0.701,0.312,1.17-0.078,1.17-0.467C91.407,63.197,91.253,62.521,90.343,62.754z M89.227,57.637c0,0-0.91,3.039-3.924,2.547
	c0,0,1.662,0.648,2.545-0.156C88.732,59.223,89.227,57.637,89.227,57.637z M87.615,60.572c0,0-1.662,1.3-3.299,0.154
	c0,0-0.262-0.232-0.363-0.025c-0.104,0.209,1.038,1.792,2.338,1.637C86.291,62.338,87.173,61.271,87.615,60.572z M85.184,63.736
	c0,0-2.631,4.102-0.937,8.962c1.694,4.858,4.993,7.133,4.993,7.133s2.228,1.515,2.316,3.699c0.092,2.184-1.246,3.61-2.674,3.79
	c-1.427,0.178-3.878-0.58-4.236-3.389c0,0-0.311-1.962,1.695-3.211c0,0,0.356-0.178,0.4,0c0.045,0.18-0.223,0.445-0.445,0.67
	c-0.223,0.224-1.337,1.383-0.936,2.676c0.402,1.291,1.65,1.646,2.228,1.604c0.58-0.046,1.918-0.401,1.964-1.964
	c0.043-1.559-0.939-2.629-1.339-3.074s-3.299-3.835-4.413-7.89c-1.113-4.058,0.045-7.445,1.159-9.095
	C84.961,63.648,85.361,63.247,85.184,63.736z M85.184,74.303c0,0,2.317,4.86,4.59,4.504c2.274-0.357,0.895-3.211,0.047-3.699
	c0,0-0.135-0.182-0.313-0.092c-0.178,0.092,0.09,0.535,0.09,0.535s0.67,1.827-0.402,2.184C88.127,78.092,86.3,76.175,85.184,74.303z
	 M89.596,79.341c0,0,2.141-0.713,3.077,1.024C92.673,80.365,90.711,81.033,89.596,79.341z M86.395,28.869
	c0.441,0.13,0.285,0.91,0.285,0.91c1.143-0.545,1.012,0.858,1.299,0.649c0.285-0.208,1.353-0.805,1.639-0.441
	c0.283,0.363-0.286,1.038-0.286,1.038c-1.274,1.663-1.715,3.275-1.715,3.275c-0.858,3.091,0.7,6.104,1.739,7.948
	c1.039,1.844,0.908,3.689,0.908,3.689c-0.398,2.993-2.683,3.831-3.529,4.042v-0.828c1.365-0.289,2.722-1.662,2.828-3.318
	c0.131-2-1.063-3.87-2.362-5.715c-1.3-1.844-2.208-3.378-2.521-6.494C84.368,30.507,85.953,28.741,86.395,28.869z M90.264,55.869
	c0,0,0.131,1.845-0.908,3.688c-1.039,1.848-2.597,4.858-1.739,7.951c0,0,0.44,1.609,1.715,3.273c0,0,0.569,0.675,0.286,1.039
	c-0.286,0.361-1.354-0.235-1.639-0.443c-0.287-0.208-0.156,1.196-1.299,0.65c0,0,0.156,0.779-0.285,0.908
	c-0.44,0.131-2.027-1.636-1.715-4.754c0.312-3.117,1.221-4.649,2.521-6.492c1.299-1.847,2.493-3.717,2.362-5.715
	c-0.105-1.66-1.463-3.031-2.828-3.318v-0.828C87.581,52.04,89.863,52.877,90.264,55.869z M86.509,49.001v3.965
	c0,0.313-0.257,0.57-0.571,0.57h-0.021c-0.316,0-0.572-0.257-0.572-0.57v-3.965c0-0.316,0.256-0.571,0.571-0.571h0.022
	C86.252,48.43,86.509,48.685,86.509,49.001z M38.582,90.814c0,0,0.546,0.26,0.52,0.883s-0.624,1.324-1.74,1.169
	c-1.118-0.156-1.819-1.066-1.534-2.363c0.285-1.302,2.467-2.157,4.703-1.039c2.232,1.115,2.831,1.479,4.96,1.479
	c0,0-2.208,0.207-4.364-0.701c-2.156-0.91-3.533-0.232-3.845,0.468c-0.312,0.701,0.078,1.168,0.468,1.168
	C38.141,91.878,38.816,91.725,38.582,90.814z M43.699,89.695c0,0-3.04-0.907-2.546-3.922c0,0-0.649,1.662,0.157,2.545
	C42.115,89.202,43.699,89.695,43.699,89.695z M40.765,88.087c0,0-1.299-1.662-0.157-3.299c0,0,0.235-0.261,0.028-0.364
	c-0.209-0.104-1.794,1.039-1.638,2.338C38.998,86.762,40.063,87.645,40.765,88.087z M37.598,85.654c0,0-4.101-2.629-8.96-0.937
	c-4.858,1.694-7.132,4.993-7.132,4.993s-1.517,2.229-3.699,2.316c-2.185,0.093-3.613-1.246-3.791-2.674
	c-0.178-1.427,0.579-3.879,3.389-4.235c0,0,1.96-0.312,3.208,1.694c0,0,0.179,0.356,0,0.4c-0.178,0.045-0.445-0.222-0.667-0.445
	c-0.224-0.224-1.383-1.338-2.675-0.937c-1.294,0.401-1.649,1.651-1.606,2.229c0.044,0.58,0.401,1.918,1.961,1.963
	c1.561,0.041,2.631-0.938,3.075-1.338c0.447-0.4,3.836-3.3,7.892-4.414c4.057-1.113,7.445,0.045,9.094,1.158
	C37.688,85.432,38.09,85.833,37.598,85.654z M27.033,85.654c0,0-4.859,2.318-4.502,4.59c0.357,2.275,3.209,0.893,3.699,0.048
	c0,0,0.178-0.134,0.091-0.313c-0.091-0.178-0.537,0.088-0.537,0.088s-1.828,0.67-2.184-0.398S25.161,86.77,27.033,85.654z
	 M21.996,90.066c0,0,0.713,2.143-1.025,3.078C20.971,93.145,20.302,91.184,21.996,90.066z M62.282,90.814
	c0,0-0.546,0.26-0.521,0.883c0.026,0.623,0.625,1.324,1.741,1.169c1.117-0.156,1.817-1.066,1.532-2.363
	c-0.286-1.302-2.469-2.157-4.701-1.039c-2.234,1.115-2.832,1.479-4.963,1.479c0,0,2.208,0.207,4.363-0.701
	c2.158-0.91,3.535-0.232,3.847,0.468c0.31,0.701-0.078,1.168-0.468,1.168C62.727,91.878,62.049,91.725,62.282,90.814z
	 M57.164,89.695c0,0,3.039-0.908,2.547-3.92c0,0,0.648,1.66-0.156,2.543C58.75,89.202,57.164,89.695,57.164,89.695z M60.1,88.087
	c0,0,1.301-1.662,0.155-3.299c0,0-0.231-0.261-0.024-0.364c0.209-0.104,1.791,1.039,1.637,2.338
	C61.866,86.762,60.805,87.645,60.1,88.087z M63.266,85.654c0,0,4.103-2.629,8.961-0.937c4.858,1.694,7.133,4.993,7.133,4.993
	s1.517,2.229,3.699,2.316c2.185,0.093,3.61-1.246,3.791-2.674c0.178-1.427-0.58-3.879-3.389-4.235c0,0-1.962-0.312-3.211,1.694
	c0,0-0.18,0.356,0,0.4c0.18,0.045,0.445-0.222,0.67-0.445c0.223-0.224,1.382-1.338,2.676-0.937c1.291,0.401,1.646,1.651,1.604,2.229
	c-0.045,0.58-0.401,1.918-1.965,1.963c-1.558,0.041-2.629-0.938-3.073-1.338c-0.446-0.4-3.835-3.3-7.892-4.414
	c-4.054-1.113-7.442,0.045-9.094,1.158C63.177,85.432,62.775,85.833,63.266,85.654z M73.831,85.654c0,0,4.86,2.318,4.503,4.59
	c-0.357,2.275-3.21,0.893-3.699,0.048c0,0-0.181-0.135-0.091-0.313c0.091-0.178,0.535,0.088,0.535,0.088s1.828,0.67,2.185-0.398
	S75.703,86.77,73.831,85.654z M78.868,90.066c0,0-0.712,2.143,1.024,3.078C79.895,93.145,80.561,91.184,78.868,90.066z
	 M28.397,86.865c0.13,0.441,0.911,0.285,0.911,0.285c-0.546,1.143,0.858,1.013,0.648,1.299c-0.208,0.285-0.805,1.353-0.44,1.639
	c0.364,0.283,1.039-0.286,1.039-0.286c1.662-1.272,3.274-1.715,3.274-1.715c3.091-0.858,6.104,0.7,7.949,1.739
	c1.843,1.039,3.688,0.908,3.688,0.908c2.993-0.398,3.831-2.682,4.042-3.528H48.68c-0.289,1.364-1.66,2.721-3.317,2.829
	c-2.001,0.129-3.87-1.065-5.715-2.363c-1.844-1.3-3.378-2.209-6.494-2.521C30.036,84.84,28.27,86.425,28.397,86.865z M55.396,90.734
	c0,0,1.846,0.131,3.688-0.908c1.849-1.039,4.86-2.598,7.951-1.739c0,0,1.608,0.44,3.272,1.715c0,0,0.676,0.569,1.039,0.286
	c0.363-0.286-0.234-1.354-0.443-1.639c-0.207-0.286,1.197-0.156,0.652-1.299c0,0,0.777,0.156,0.908-0.285
	c0.129-0.44-1.637-2.027-4.755-1.715c-3.118,0.312-4.647,1.222-6.493,2.521c-1.846,1.298-3.716,2.492-5.716,2.363
	c-1.659-0.108-3.028-1.466-3.317-2.829h-0.828C51.566,88.055,52.404,90.336,55.396,90.734z M48.529,86.979h3.965
	c0.313,0,0.57-0.254,0.57-0.569v-0.022c0-0.316-0.258-0.57-0.57-0.57h-3.965c-0.315,0-0.571,0.254-0.571,0.57v0.022
	C47.958,86.725,48.213,86.979,48.529,86.979z M10.542,62.773c0,0-0.259-0.545-0.883-0.52c-0.623,0.026-1.323,0.624-1.169,1.74
	c0.156,1.117,1.067,1.818,2.366,1.533c1.298-0.287,2.155-2.469,1.039-4.703c-1.117-2.231-1.481-2.83-1.481-4.961
	c0,0-0.208,2.207,0.701,4.363c0.91,2.156,0.234,3.534-0.466,3.847c-0.703,0.311-1.169-0.078-1.169-0.468
	C9.478,63.218,9.633,62.541,10.542,62.773z M11.661,57.657c0,0,0.909,3.038,3.921,2.546c0,0-1.661,0.648-2.544-0.156
	C12.153,59.242,11.661,57.657,11.661,57.657z M13.27,60.592c0,0,1.662,1.299,3.299,0.156c0,0,0.26-0.234,0.364-0.025
	c0.104,0.207-1.04,1.793-2.338,1.637C14.595,62.359,13.712,61.294,13.27,60.592z M15.702,63.758c0,0,2.631,4.102,0.936,8.961
	c-1.694,4.859-4.993,7.133-4.993,7.133s-2.228,1.516-2.316,3.699c-0.09,2.184,1.247,3.61,2.674,3.788
	c1.426,0.179,3.878-0.577,4.235-3.389c0,0,0.313-1.959-1.694-3.208c0,0-0.356-0.178-0.4,0c-0.045,0.178,0.222,0.445,0.445,0.669
	c0.222,0.222,1.337,1.381,0.936,2.674c-0.402,1.294-1.65,1.649-2.229,1.604c-0.579-0.043-1.917-0.399-1.962-1.961
	c-0.043-1.56,0.938-2.631,1.338-3.074c0.401-0.447,3.299-3.836,4.414-7.891c1.113-4.059-0.045-7.445-1.16-9.096
	C15.924,63.669,15.523,63.268,15.702,63.758z M15.702,74.323c0,0-2.318,4.858-4.592,4.503c-2.273-0.357-0.891-3.209-0.044-3.701
	c0,0,0.133-0.177,0.312-0.089c0.178,0.089-0.089,0.534-0.089,0.534s-0.669,1.828,0.401,2.185
	C12.759,78.111,14.587,76.195,15.702,74.323z M11.289,79.359c0,0-2.14-0.713-3.076,1.024C8.212,80.385,10.174,81.055,11.289,79.359z
	 M10.542,39.074c0,0-0.259,0.544-0.883,0.52c-0.623-0.026-1.323-0.625-1.169-1.741c0.156-1.118,1.067-1.818,2.366-1.532
	c1.298,0.286,2.155,2.467,1.039,4.701c-1.117,2.235-1.481,2.833-1.481,4.963c0,0-0.208-2.208,0.701-4.365
	c0.91-2.156,0.234-3.534-0.467-3.843c-0.702-0.313-1.169,0.077-1.168,0.465C9.478,38.632,9.633,39.308,10.542,39.074z
	 M11.661,44.191c0,0,0.909-3.039,3.921-2.545c0,0-1.661-0.65-2.544,0.156C12.153,42.607,11.661,44.191,11.661,44.191z M13.27,41.257
	c0,0,1.662-1.298,3.299-0.156c0,0,0.26,0.234,0.364,0.026s-1.04-1.792-2.338-1.636C14.595,39.49,13.712,40.555,13.27,41.257z
	 M15.702,38.09c0,0,2.631-4.101,0.936-8.959c-1.694-4.858-4.993-7.133-4.993-7.133s-2.228-1.515-2.316-3.699
	c-0.09-2.184,1.247-3.612,2.674-3.79c1.426-0.179,3.878,0.58,4.235,3.387c0,0,0.313,1.963-1.694,3.211c0,0-0.356,0.178-0.4,0
	c-0.045-0.179,0.222-0.446,0.446-0.669c0.221-0.224,1.336-1.383,0.935-2.675c-0.402-1.293-1.65-1.648-2.229-1.605
	c-0.579,0.046-1.917,0.402-1.962,1.963c-0.043,1.559,0.938,2.628,1.338,3.075c0.401,0.445,3.299,3.834,4.414,7.89
	c1.113,4.057-0.045,7.446-1.16,9.095C15.924,38.18,15.523,38.582,15.702,38.09z M15.702,27.525c0,0-2.318-4.86-4.592-4.503
	c-2.273,0.357-0.891,3.21-0.044,3.7c0,0,0.133,0.178,0.312,0.089c0.178-0.089-0.089-0.535-0.089-0.535s-0.669-1.828,0.401-2.185
	C12.759,23.737,14.587,25.653,15.702,27.525z M11.289,22.488c0,0-2.14,0.712-3.076-1.026C8.212,21.462,10.174,20.794,11.289,22.488z
	 M14.491,72.96c-0.441-0.131-0.285-0.911-0.285-0.911c-1.143,0.546-1.014-0.857-1.299-0.65c-0.286,0.209-1.351,0.808-1.638,0.443
	c-0.285-0.363,0.287-1.039,0.287-1.039c1.273-1.664,1.714-3.275,1.714-3.275c0.858-3.09-0.7-6.103-1.74-7.948
	c-1.039-1.845-0.909-3.688-0.909-3.688c0.4-2.994,2.682-3.83,3.529-4.041v0.828c-1.364,0.288-2.72,1.66-2.829,3.317
	c-0.13,2,1.065,3.868,2.364,5.714s2.208,3.378,2.52,6.495C16.518,71.322,14.932,73.088,14.491,72.96z M10.621,45.959
	c0,0-0.13-1.846,0.909-3.689c1.04-1.845,2.598-4.858,1.74-7.95c0,0-0.441-1.611-1.714-3.273c0,0-0.571-0.676-0.287-1.039
	c0.287-0.363,1.352,0.233,1.638,0.441c0.285,0.209,0.156-1.194,1.299-0.648c0,0-0.157-0.78,0.285-0.909
	c0.44-0.131,2.027,1.636,1.714,4.753c-0.312,3.119-1.22,4.651-2.52,6.495c-1.298,1.844-2.494,3.715-2.364,5.715
	c0.109,1.658,1.465,3.028,2.829,3.316V50C13.303,49.789,11.021,48.952,10.621,45.959z M14.376,52.826v-3.963
	c0-0.313,0.257-0.57,0.572-0.57h0.022c0.316,0,0.572,0.257,0.572,0.57v3.963c0,0.316-0.257,0.572-0.572,0.572h-0.022
	C14.632,53.398,14.376,53.145,14.376,52.826z M50.442,9.513c0,0-1.757,2.848,0,4.988C52.199,12.361,50.442,9.513,50.442,9.513z
	 M8.663,50.746c0,0,2.849,1.757,4.988,0C11.512,48.989,8.663,50.746,8.663,50.746z M50.374,92.121c0,0,1.757-2.848,0-4.989
	C48.615,89.273,50.374,92.121,50.374,92.121z M92.15,50.889c0,0-2.848-1.758-4.986,0C89.305,52.646,92.15,50.889,92.15,50.889z"/>
</svg>
