<?xml version="1.0" encoding="utf-8"?>
<!-- Generator: Adobe Illustrator 16.0.0, SVG Export Plug-In . SVG Version: 6.00 Build 0)  -->
<!DOCTYPE svg PUBLIC "-//W3C//DTD SVG 1.1//EN" "http://www.w3.org/Graphics/SVG/1.1/DTD/svg11.dtd">
<svg version="1.1"
	 id="svg570" xmlns:cc="http://creativecommons.org/ns#" xmlns:dc="http://purl.org/dc/elements/1.1/" xmlns:rdf="http://www.w3.org/1999/02/22-rdf-syntax-ns#"
	 xmlns="http://www.w3.org/2000/svg" xmlns:xlink="http://www.w3.org/1999/xlink" x="0px" y="0px" width="143.447px"
	 height="71.281px" viewBox="0 0 143.447 71.281" enable-background="new 0 0 143.447 71.281" xml:space="preserve">
<path fill="#E73E2D" d="M24.14,41.822c5.426,0,7.217,4.228,15.508,4.542c4.608,0.176,8.982-2.587,13.222-3.886l-7.149-2.388
	l4.36,0.063c-1.148-0.916-2.044-2.258-2.366-4.479c2.396,1.856,3.21,1.577,4.581,1.522l-4.078-3.366h-0.001h0.001l0,0l4.053,1.383
	c-0.808-1.222-1.243-2.769-0.87-4.973c1.695,2.475,2.556,2.484,3.854,2.842l-2.631-4.472l3.137,2.649
	c-0.248-1.412-0.042-2.976,1.117-4.824c0.609,2.893,1.389,3.262,2.428,4.063l-0.977-5.428l2.095,3.688
	c0.188-1.438,0.858-2.883,2.552-4.304c-0.313,3.007,0.348,3.556,1.112,4.687l0.979-5.42l0.645,3.935
	c0.755-1.269,1.966-2.341,4.138-2.958c-1.644,2.829-1.065,3.506-0.854,5.081l2.523-4.563l-0.631,4.002
	c1.116-0.959,2.604-1.588,4.851-1.485c-2.293,2.021-2.149,2.87-2.361,4.245l3.948-3.676l-2.24,4.07
	c1.354-0.595,2.962-0.764,5.088-0.004c-2.763,1.249-2.896,2.1-3.488,3.335l5.078-1.948h0.001l-3.458,2.928
	c1.465-0.188,3.056,0.104,4.88,1.43c-2.909,0.408-3.345,1.152-4.204,2.127l5.325-0.117h0.001l-9.944,3.023c0,0.004,0,0.006,0,0.008
	c0,1.259-0.25,2.453-0.692,3.552c7.279-0.578,8.982-5.063,13.729-5.097c5.235,0,7.098,4.836,15.21,4.836
	c8.883,0,10.97-4.793,16.204-4.836c4.371-0.035,8.261,3.873,14.55,3.666c3.644-0.028,7.283-2.26,10.092-3.568V0H0.301v41.958
	c1.273,0.694,6.14,3.952,10.523,3.892C15.709,45.782,20.085,41.822,24.14,41.822z M46.803,11.739
	C46.803,11.739,46.804,11.739,46.803,11.739c9.437-0.646,7.716-1.452,11.514-2.058c3.226,0.442,4.524,1.904,5.846,3.353
	c5.521-4.414,10.774-3.815,17.271-4.287c0.267,0.972,0.173,2.425-3.6,3.718c-2.85,0.42-6.938,2.266-10.037,3.834
	c2.422-0.395,5.008-0.429,7.077-0.315c1.188,0.053,1.612,0.586,2.159,1.519h-1.479c-1.023,0.993-2.047,1.459-5.088,1.459
	c-1.524,1.016-3.156,2.188-5.906,2.26c-0.48,0-3.799-0.041-6.158-3.358c-1.546-0.16-2.212-0.28-2.919-1.56
	c-1.025,0.041-1.615-0.207-2.8,0.398c0.721-1.336,1.721-1.131,2.72-1.559c0.521-0.399,0.521-0.76,1.561-1.039
	c1.134-0.034,2.674,1.14,3.935,2.135c0.227-0.264,0.453-0.523,0.678-0.768c-0.521-0.666-1.604-1.558-3.788-2.887
	C54.391,12.383,48.319,13.18,46.803,11.739L46.803,11.739L46.803,11.739z"/>
<path fill="#005989" d="M0.155,64.303V58.93c2.688,1.144,6.508,3.879,10.593,3.875c6.901-0.039,7.086-4.238,14.08-4.037
	c7.011,0.16,5.742,4.578,15.209,4.56c7.821-0.021,10.35-5.356,17.09-4.718c4.993-0.231,7.038,5.054,14.712,5.121
	c7.959,0.152,10.884-5.762,15.876-5.272c5.318,0,7.063,4.767,14.523,4.799c9.505,0.043,11.175-4.957,17.124-4.637
	c4.229-0.08,7.568,3.664,13.771,3.758c4.093,0.063,7.631-2.217,10.315-3.688v5.502c-2.792,1.316-6.379,3.479-9.967,3.509
	c-6.296,0.207-10.188-3.701-14.563-3.666c-5.239,0.041-7.329,4.836-16.22,4.836c-8.122,0-9.984-4.836-15.227-4.836
	c-5.12,0.034-6.689,5.258-15.559,5.161c-7.232-0.077-10.054-4.985-15.175-4.95c-5.431,0-11.046,4.772-17.06,4.543
	c-8.3-0.313-10.093-4.543-15.521-4.543c-4.06,0-8.438,3.963-13.329,4.026C6.275,68.334,1.19,64.813,0.155,64.303z M10.834,56.999
	c4.891-0.063,9.27-4.026,13.329-4.026c5.432,0,7.225,4.229,15.521,4.543c6.014,0.229,11.629-4.543,17.06-4.543
	c5.122-0.035,7.942,4.872,15.175,4.95c8.867,0.097,10.438-5.127,15.559-5.162c5.24,0,7.104,4.837,15.227,4.837
	c8.892,0,10.979-4.793,16.22-4.837c4.374-0.034,8.269,3.873,14.563,3.666c3.588-0.028,7.175-2.19,9.967-3.508v-5.453
	c-2.698,1.468-6.283,3.822-10.438,3.761c-6.197-0.093-9.532-3.838-13.762-3.759c-5.938-0.319-7.608,4.683-17.105,4.638
	c-7.456-0.031-9.196-4.797-14.512-4.797c-4.989-0.488-7.909,5.424-15.861,5.271c-7.667-0.065-9.709-5.354-14.698-5.123
	c-6.735-0.642-9.261,4.699-17.074,4.719c-9.458,0.021-8.19-4.397-15.194-4.559c-6.987-0.199-7.17,3.998-14.067,4.039
	c-4.081,0.002-7.896-2.734-10.583-3.873v5.25C1.19,53.542,6.275,57.063,10.834,56.999z"/>
<path fill="#FFFFFF" d="M133.485,67.698c3.588-0.029,7.175-2.189,9.967-3.507v5.011H0.06l-0.059-4.959
	c0.032,0.006,0.083,0.024,0.152,0.062c1.035,0.512,6.12,4.03,10.679,3.969c4.891-0.064,9.27-4.027,13.329-4.027
	c5.431,0,7.225,4.229,15.521,4.543c6.014,0.23,11.629-4.543,17.06-4.543c5.122-0.035,7.942,4.873,15.175,4.951
	c8.867,0.096,10.438-5.127,15.559-5.162c5.24,0,7.104,4.836,15.227,4.836c8.891,0,10.979-4.795,16.22-4.836
	C123.296,63.997,127.189,67.905,133.485,67.698z M10.748,62.805c6.901-0.039,7.086-4.238,14.08-4.037
	c7.011,0.16,5.742,4.578,15.209,4.56c7.821-0.021,10.35-5.356,17.09-4.718c4.993-0.231,7.038,5.054,14.712,5.121
	c7.959,0.152,10.884-5.762,15.876-5.272c5.318,0,7.063,4.767,14.523,4.799c9.505,0.043,11.175-4.957,17.124-4.637
	c4.229-0.08,7.568,3.664,13.771,3.758c4.093,0.063,7.631-2.217,10.315-3.688v-5.77c-2.792,1.314-6.379,3.479-9.967,3.506
	c-6.296,0.207-10.188-3.699-14.563-3.664c-5.239,0.041-7.329,4.834-16.22,4.834c-8.122,0-9.984-4.834-15.227-4.834
	c-5.12,0.033-6.689,5.258-15.559,5.162c-7.232-0.078-10.054-4.986-15.175-4.951c-5.431,0-11.046,4.773-17.06,4.543
	c-8.3-0.313-10.093-4.543-15.521-4.543c-4.06,0-8.438,3.961-13.329,4.027c-4.56,0.063-9.645-3.457-10.68-3.967
	C0.083,52.999,0.032,52.977,0,52.971l0.068,5.924c0.027,0.013,0.057,0.025,0.083,0.035C2.844,60.073,6.664,62.809,10.748,62.805z
	 M10.737,51.657c6.896-0.041,7.081-4.238,14.068-4.039c7.004,0.157,5.736,4.58,15.194,4.557c7.813-0.018,10.339-5.354,17.074-4.717
	c4.987-0.229,7.029,5.056,14.698,5.123c7.952,0.149,10.872-5.763,15.86-5.271c5.314,0,7.057,4.764,14.513,4.797
	c9.497,0.045,11.167-4.957,17.105-4.64c4.229-0.079,7.563,3.666,13.762,3.761c4.155,0.063,7.74-2.293,10.438-3.761v-5.761
	c-2.809,1.309-6.448,3.54-10.092,3.568c-6.289,0.205-10.179-3.701-14.55-3.666c-5.234,0.043-7.321,4.836-16.204,4.836
	c-8.112,0-9.975-4.836-15.21-4.836c-4.744,0.031-6.447,4.519-13.729,5.097c-0.573,0.045-1.171,0.074-1.816,0.065
	c-7.229-0.078-10.043-4.986-15.162-4.949c-1.264,0-2.537,0.264-3.821,0.656c-4.237,1.299-8.611,4.062-13.222,3.886
	c-8.292-0.314-10.082-4.542-15.508-4.542c-4.056,0-8.432,3.96-13.315,4.025c-4.385,0.063-9.25-3.193-10.523-3.892
	c-0.136-0.074-0.243-0.127-0.292-0.138l0.069,5.926H0.072c0.027,0.012,0.057,0.025,0.083,0.037
	C2.841,48.92,6.657,51.659,10.737,51.657z"/>
<path fill="#FEC74A" d="M74.362,43.154c0,1.259-0.25,2.453-0.692,3.552c-0.572,0.045-1.17,0.074-1.816,0.065
	c-7.228-0.078-10.043-4.986-15.162-4.949c-1.263,0-2.536,0.264-3.821,0.656l-7.149-2.388l4.36,0.063
	c-1.148-0.916-2.044-2.258-2.366-4.479c2.396,1.856,3.21,1.577,4.581,1.522l-4.078-3.366l4.053,1.383
	c-0.808-1.222-1.243-2.769-0.87-4.973c1.695,2.475,2.556,2.484,3.854,2.842l-2.631-4.472l3.137,2.649
	c-0.248-1.412-0.042-2.976,1.117-4.824c0.609,2.893,1.389,3.262,2.428,4.063l-0.977-5.428l2.095,3.688
	c0.188-1.438,0.858-2.883,2.552-4.304c-0.313,3.007,0.348,3.556,1.112,4.687l0.979-5.42l0.645,3.935
	c0.755-1.269,1.966-2.341,4.138-2.958c-1.644,2.829-1.065,3.506-0.854,5.081l2.523-4.563l-0.631,4.002
	c1.116-0.959,2.604-1.588,4.851-1.485c-2.293,2.021-2.149,2.87-2.361,4.245l3.948-3.676l-2.24,4.07
	c1.354-0.595,2.962-0.764,5.088-0.004c-2.763,1.249-2.896,2.1-3.488,3.335l5.078-1.948h0.001l-3.458,2.928
	c1.465-0.188,3.056,0.104,4.88,1.43c-2.909,0.408-3.345,1.152-4.204,2.127l5.325-0.117h0.001l-9.944,3.023
	C74.362,43.15,74.362,43.152,74.362,43.154z M57.784,12.584c2.184,1.331,3.266,2.223,3.788,2.889
	c-0.225,0.244-0.451,0.502-0.678,0.767c-1.262-0.995-2.802-2.169-3.935-2.136c-1.039,0.281-1.039,0.64-1.561,1.041
	c-0.999,0.426-1.999,0.221-2.72,1.558c1.186-0.604,1.773-0.358,2.8-0.397c0.707,1.279,1.373,1.398,2.919,1.559
	c2.357,3.318,5.678,3.359,6.158,3.359c2.75-0.072,4.382-1.246,5.906-2.26c3.042,0,4.063-0.467,5.087-1.459h1.479
	c-0.547-0.934-0.974-1.467-2.159-1.52c-2.069-0.113-4.655-0.079-7.077,0.316c3.101-1.57,7.188-3.416,10.037-3.834
	c3.771-1.293,3.864-2.746,3.6-3.719c-6.495,0.471-11.749-0.127-17.271,4.287c-1.32-1.449-2.62-2.91-5.846-3.354
	c-3.798,0.606-2.078,1.412-11.514,2.06C48.319,13.18,54.391,12.383,57.784,12.584z"/>
</svg>
