<?xml version="1.0" encoding="utf-8"?>
<!-- Generator: Adobe Illustrator 16.0.0, SVG Export Plug-In . SVG Version: 6.00 Build 0)  -->
<!DOCTYPE svg PUBLIC "-//W3C//DTD SVG 1.1//EN" "http://www.w3.org/Graphics/SVG/1.1/DTD/svg11.dtd">
<svg version="1.1" id="Layer_1" xmlns="http://www.w3.org/2000/svg" xmlns:xlink="http://www.w3.org/1999/xlink" x="0px" y="0px"
	 width="100px" height="100px" viewBox="0 0 100 100" enable-background="new 0 0 100 100" xml:space="preserve">
<path fill="#FFFFFF" stroke="#000000" stroke-width="0.5" stroke-miterlimit="2.6131" d="M86.585,54.805
	c0.714,1.596,0.582,5.637-1.767,13.135c-2.35,7.496,1.222,9.957-0.582,9.111c-3.664-1.729-9.264,1.447-11.35,3.533
	c-4.341,4.283-16.273,2.292-16.273,2.292c18.453-4.829,13.38-17.024,13.38-17.024l-58.079-41.45
	c0.094,0.188,0.244-0.019,0.113-0.057c-1.052-0.281-1.691-1.183-2.368-1.635c-1.184-0.789-0.226-2.311,0.714-3.063
	c0.939-0.751,2.969,0.132,3.758,1.165L71.46,61.475c0,0,7.835,7.572,11.235-7.703L86.585,54.805L86.585,54.805z"/>
<path fill="none" stroke="#000000" stroke-width="0.5" stroke-miterlimit="2.6131" d="M7.555,22.278
	c-1.954-0.057-3.476-1.616-3.42-3.476c0.076-1.841,1.71-3.289,3.664-3.232c1.954,0.075,3.477,1.635,3.42,3.476
	C11.163,20.907,9.509,22.354,7.555,22.278L7.555,22.278z M7.499,24.345c-3.176-0.112-5.637-2.611-5.543-5.618
	c0.112-2.987,2.762-5.336,5.918-5.224c3.157,0.112,5.638,2.631,5.524,5.618C13.304,22.128,10.655,24.458,7.499,24.345L7.499,24.345z
	 M26.382,13.165c0.714,0.639,0.489,1.09,0.338,2.349L10.504,38.325c0,0-2.029,2.011-3.288,0.921
	c-1.409-1.203-0.864-1.465-0.432-2.499C7.198,35.713,23,13.56,23,13.56s1.485-1.785,3.025-0.677
	C26.157,12.977,26.289,13.071,26.382,13.165L26.382,13.165z M25.312,14.461c-0.113-0.075-0.226-0.169-0.357-0.263
	c-1.353-0.939-2.612,0.376-2.725,0.413c-0.188,0.038-0.338,0.282-0.469,0.47c-1.296,1.841-10.241,14.336-12.872,18.32
	c-0.545,0.864-0.977,1.466-1.052,1.71c-0.376,0.921-0.733,1.278,0.583,2.386L25.312,14.461L25.312,14.461z M25.312,14.461
	c-0.113-0.075-0.226-0.169-0.357-0.263c-1.353-0.939-2.612,0.376-2.725,0.413c-0.188,0.038-0.338,0.282-0.469,0.47
	c-1.296,1.841-10.241,14.336-12.872,18.32c-0.545,0.864-0.977,1.466-1.052,1.71c-0.376,0.921-0.733,1.278,0.583,2.386
	 M25.312,14.461c0.601,0.545,0.526,0.977,0.47,2.03c0.057,0.112-0.264,0.751-0.282,0.92l-12.721,18c0,0-0.996,1.372-1.184,1.466
	c-0.188,0.094-1.954,1.635-3.175,0.62L25.312,14.461L25.312,14.461z M25.312,14.461c0.601,0.545,0.526,0.977,0.47,2.03
	c0.057,0.112-0.264,0.751-0.282,0.92l-12.721,18c0,0-0.996,1.372-1.184,1.466c-0.188,0.094-1.954,1.635-3.175,0.62 M24.221,15.758
	c-0.112-0.075-0.206-0.15-0.338-0.225c-1.165-0.789-2.217,0.075-2.423,0.131c-0.357,0.076-0.564,0.432-0.639,0.564
	c-0.883,1.221-9.076,12.608-10.973,15.596c-0.432,0.751-0.864,1.315-0.958,1.653c-0.3,0.808-0.507,1.278,0.733,2.255L24.221,15.758
	L24.221,15.758z M24.221,15.758c-0.112-0.075-0.206-0.15-0.338-0.225c-1.165-0.789-2.217,0.075-2.423,0.131
	c-0.357,0.076-0.564,0.432-0.639,0.564c-0.883,1.221-9.076,12.608-10.973,15.596c-0.432,0.751-0.864,1.315-0.958,1.653
	c-0.3,0.808-0.507,1.278,0.733,2.255 M24.221,15.758c0.526,0.433,0.602,0.846,0.639,1.729c0.113,0.226-0.075,0.827-0.113,1.165
	l-10.86,15.483c0,0-0.827,1.127-1.221,1.315c-0.357,0.169-1.86,1.221-3.044,0.282L24.221,15.758L24.221,15.758z M24.221,15.758
	c0.526,0.433,0.602,0.846,0.639,1.729c0.113,0.226-0.075,0.827-0.113,1.165l-10.86,15.483c0,0-0.827,1.127-1.221,1.315
	c-0.357,0.169-1.86,1.221-3.044,0.282 M10.824,33.985c1.128,0.864,2.368,0.281,2.913,0.037c0.602-0.282,1.259-1.165,1.259-1.165
	l9-12.965c0.075-0.507,0.094-1.089-0.075-1.428c-0.132-0.695-0.357-1.09-0.79-1.409c-0.093-0.075-0.206-0.132-0.3-0.207
	c-0.996-0.62-1.823-0.206-2.142-0.15c-0.544,0.131-0.789,0.601-0.827,0.658c-0.432,0.62-7.892,10.898-9.057,12.909
	c-0.319,0.62-0.733,1.146-0.864,1.578C9.697,32.556,9.659,33.101,10.824,33.985L10.824,33.985z M22.042,18.351
	c0.639,0.413,1.391,1.353,1.203,2.781l-7.141,10.467c0,0-1.785,2.273-4.077,0.638c-2.048-1.484-0.695-2.518-0.263-3.532
	c0.433-1.034,7.141-10.203,7.141-10.203S19.731,16.848,22.042,18.351 M7.104,24.326c-0.62-0.019-1.089-0.526-1.071-1.146
	c0.019-0.601,0.526-1.09,1.146-1.071c0.601,0.019,1.089,0.544,1.071,1.146C8.231,23.875,7.705,24.345,7.104,24.326L7.104,24.326z
	 M8.588,26.45c0.507-0.658,0.245-1.672-0.602-2.311c-0.827-0.621-1.936-0.602-2.443,0.038c-0.507,0.639-0.244,1.672,0.602,2.292
	C6.972,27.088,8.081,27.088,8.588,26.45L8.588,26.45z M11.163,31.41c0.357-0.601,0.019-1.353-0.77-1.709
	c-0.771-0.357-1.691-0.188-2.067,0.414c-0.357,0.582,0,1.333,0.771,1.69C9.885,32.162,10.806,31.993,11.163,31.41L11.163,31.41z
	 M9.039,29.588c0.62-0.527,0.545-1.598-0.169-2.368c-0.714-0.771-1.804-0.939-2.424-0.413c-0.62,0.544-0.525,1.597,0.188,2.367
	C7.347,29.944,8.419,30.132,9.039,29.588L9.039,29.588z M12.516,34.06c-0.263-0.658,0.394-1.372,1.484-1.597
	c1.09-0.207,2.18,0.132,2.442,0.808c0.263,0.657-0.395,1.353-1.484,1.578C13.869,35.075,12.779,34.717,12.516,34.06L12.516,34.06z
	 M13.323,33.233c0.414-0.507,0-1.184-0.92-1.503c-0.939-0.319-2.029-0.169-2.443,0.338c-0.413,0.507,0,1.184,0.921,1.503
	C11.802,33.89,12.891,33.74,13.323,33.233L13.323,33.233z M15.766,34.436c-0.263-0.658,0.395-1.372,1.484-1.597
	c1.089-0.207,2.18,0.131,2.443,0.789c0.263,0.658-0.395,1.371-1.484,1.597C17.119,35.45,16.029,35.093,15.766,34.436L15.766,34.436z
	 M19.28,34.436c-0.263-0.658,0.414-1.372,1.484-1.597c1.09-0.226,2.198,0.131,2.461,0.789c0.263,0.658-0.414,1.371-1.484,1.597
	C20.651,35.431,19.562,35.093,19.28,34.436L19.28,34.436z M25.706,34.379c-0.169,0.075-0.357,0.131-0.545,0.168
	c-1.09,0.226-2.199-0.131-2.461-0.789c-0.169-0.432,0.075-0.902,0.564-1.221L25.706,34.379L25.706,34.379z"/>
<path fill="#FFFFFF" stroke="#000000" stroke-width="0.5" stroke-miterlimit="2.6131" d="M12.196,53.9
	c-0.771,1.561-0.771,5.6,1.315,13.173c2.085,7.573-1.579,9.921,0.263,9.132c3.721-1.598,9.188,1.768,11.218,3.927
	c4.171,4.437,16.178,2.856,16.178,2.856C22.906,77.52,28.374,65.514,28.374,65.514l59.508-39.403
	c-0.112,0.188-0.243-0.019-0.112-0.056c1.051-0.263,1.729-1.128,2.424-1.56c1.203-0.733,0.301-2.311-0.619-3.082
	c-0.902-0.789-2.971,0.038-3.777,1.033L27.078,61.079c0,0-8.099,7.31-10.955-8.099L12.196,53.9L12.196,53.9z"/>
<path fill="#FFFFFF" stroke="#000000" stroke-width="0.5" stroke-miterlimit="2.6131" d="M73.809,14.386
	c-0.732,0.621-0.525,1.071-0.414,2.33l15.408,23.356c0,0,1.954,2.086,3.25,1.034c1.447-1.146,0.922-1.428,0.527-2.48
	c-0.396-1.034-15.391-23.751-15.391-23.751s-1.445-1.823-3.006-0.771C74.033,14.199,73.902,14.292,73.809,14.386L73.809,14.386z
	 M74.842,15.721c0.112-0.094,0.227-0.169,0.356-0.263c1.372-0.883,2.61,0.47,2.725,0.507c0.17,0.038,0.302,0.3,0.433,0.488
	c1.24,1.879,9.732,14.675,12.232,18.753c0.525,0.883,0.921,1.503,0.995,1.766c0.338,0.92,0.694,1.296-0.676,2.349L74.842,15.721
	L74.842,15.721z M74.842,15.721c0.112-0.094,0.227-0.169,0.356-0.263c1.372-0.883,2.61,0.47,2.725,0.507
	c0.17,0.038,0.302,0.3,0.433,0.488c1.24,1.879,9.732,14.675,12.232,18.753c0.525,0.883,0.921,1.503,0.995,1.766
	c0.338,0.92,0.694,1.296-0.676,2.349 M74.842,15.721c-0.639,0.507-0.564,0.939-0.545,2.011c-0.056,0.112,0.227,0.751,0.244,0.92
	l12.081,18.434c0,0,0.959,1.409,1.147,1.503c0.168,0.094,1.877,1.691,3.138,0.733L74.842,15.721L74.842,15.721z M74.842,15.721
	c-0.639,0.507-0.564,0.939-0.545,2.011c-0.056,0.112,0.227,0.751,0.244,0.92l12.081,18.434c0,0,0.959,1.409,1.147,1.503
	c0.168,0.094,1.877,1.691,3.138,0.733 M75.875,17.055c0.113-0.075,0.227-0.15,0.338-0.226c1.203-0.733,2.219,0.151,2.441,0.207
	c0.357,0.094,0.527,0.469,0.621,0.582c0.826,1.259,8.605,12.928,10.41,15.99c0.414,0.752,0.808,1.334,0.901,1.691
	c0.282,0.808,0.45,1.277-0.81,2.217L75.875,17.055L75.875,17.055z M75.875,17.055c0.113-0.075,0.227-0.15,0.338-0.226
	c1.203-0.733,2.219,0.151,2.441,0.207c0.357,0.094,0.527,0.469,0.621,0.582c0.826,1.259,8.605,12.928,10.41,15.99
	c0.414,0.752,0.808,1.334,0.901,1.691c0.282,0.808,0.45,1.277-0.81,2.217 M75.875,17.055c-0.525,0.414-0.62,0.808-0.695,1.691
	c-0.111,0.226,0.038,0.827,0.075,1.165L85.57,35.769c0,0,0.789,1.165,1.166,1.354c0.355,0.188,1.822,1.296,3.043,0.395
	L75.875,17.055L75.875,17.055z M75.875,17.055c-0.525,0.414-0.62,0.808-0.695,1.691c-0.111,0.226,0.038,0.827,0.075,1.165
	L85.57,35.769c0,0,0.789,1.165,1.166,1.354c0.355,0.188,1.822,1.296,3.043,0.395 M88.634,35.732
	c-1.165,0.827-2.387,0.188-2.913-0.075c-0.582-0.301-1.221-1.203-1.221-1.203l-8.55-13.266c-0.038-0.507-0.056-1.09,0.132-1.428
	c0.168-0.695,0.395-1.071,0.845-1.391c0.095-0.056,0.207-0.112,0.302-0.188c1.015-0.583,1.822-0.15,2.16-0.056
	c0.525,0.131,0.752,0.601,0.789,0.676c0.413,0.62,7.518,11.161,8.606,13.209c0.301,0.62,0.694,1.165,0.807,1.616
	C89.816,34.341,89.816,34.886,88.634,35.732L88.634,35.732z M92.316,24.232c1.953,0,3.551-1.484,3.551-3.345
	c0-1.86-1.598-3.363-3.551-3.363c-1.955,0-3.532,1.503-3.532,3.363C88.784,22.748,90.361,24.232,92.316,24.232L92.316,24.232z
	 M92.316,26.318c3.156,0,5.729-2.443,5.729-5.431c0-2.987-2.573-5.43-5.729-5.43c-3.157,0-5.731,2.443-5.731,5.43
	C86.585,23.875,89.159,26.318,92.316,26.318L92.316,26.318z M77.96,19.704c-0.655,0.395-1.427,1.315-1.295,2.743l6.782,10.71
	c0,0,1.691,2.349,4.039,0.77c2.104-1.39,0.789-2.479,0.396-3.513C87.486,29.362,81.1,19.967,81.1,19.967S80.328,18.295,77.96,19.704
	L77.96,19.704z M92.71,26.299c0.603,0,1.108-0.488,1.108-1.109c0-0.601-0.506-1.108-1.108-1.108c-0.619,0-1.106,0.507-1.106,1.108
	C91.604,25.811,92.091,26.299,92.71,26.299L92.71,26.299z M91.15,28.366c-0.488-0.657-0.188-1.691,0.677-2.273
	c0.864-0.602,1.954-0.545,2.442,0.113s0.188,1.672-0.677,2.273S91.641,29.024,91.15,28.366L91.15,28.366z M88.408,33.233
	c-0.34-0.602,0.019-1.353,0.826-1.691c0.789-0.319,1.69-0.112,2.029,0.489c0.338,0.601-0.02,1.353-0.809,1.672
	C89.667,34.041,88.746,33.815,88.408,33.233L88.408,33.233z M90.588,31.504c-0.602-0.563-0.488-1.616,0.244-2.368
	c0.751-0.751,1.842-0.883,2.441-0.337c0.603,0.563,0.488,1.616-0.262,2.367C92.277,31.917,91.188,32.049,90.588,31.504
	L90.588,31.504z M86.961,35.845c0.282-0.658-0.357-1.391-1.428-1.654c-1.071-0.263-2.182,0.057-2.48,0.714
	c-0.281,0.639,0.356,1.391,1.428,1.635C85.57,36.803,86.68,36.483,86.961,35.845L86.961,35.845z M86.189,34.98
	c-0.412-0.526,0.039-1.184,0.959-1.466c0.938-0.282,2.029-0.094,2.425,0.413c0.395,0.526-0.038,1.184-0.978,1.466
	C87.676,35.694,86.585,35.506,86.189,34.98L86.189,34.98z M83.691,36.107c0.301-0.657-0.34-1.39-1.428-1.653
	c-1.07-0.263-2.181,0.056-2.463,0.714c-0.301,0.639,0.338,1.372,1.428,1.635C82.301,37.066,83.409,36.747,83.691,36.107
	L83.691,36.107z M80.178,35.977c0.282-0.658-0.357-1.391-1.429-1.654c-1.089-0.263-2.179,0.057-2.479,0.714
	c-0.281,0.639,0.357,1.372,1.429,1.635C78.787,36.934,79.896,36.615,80.178,35.977L80.178,35.977z M73.752,35.694
	c0.168,0.094,0.355,0.15,0.563,0.207c1.07,0.244,2.181-0.076,2.463-0.714c0.205-0.432-0.021-0.902-0.51-1.24L73.752,35.694
	L73.752,35.694z"/>
<path fill="#FFFFFF" stroke="#000000" stroke-width="0.5" stroke-miterlimit="2.6131" d="M74.146,81.955
	c-0.922-0.037-1.653-0.602-1.615-1.26c0.018-0.657,0.77-1.164,1.689-1.146c0.92,0.038,1.635,0.603,1.616,1.259
	C75.818,81.467,75.048,81.993,74.146,81.955L74.146,81.955z M76.42,83.176c-0.902,0.15-1.729-0.262-1.842-0.902
	c-0.094-0.656,0.546-1.313,1.445-1.465c0.922-0.149,1.729,0.265,1.843,0.922C77.979,82.387,77.322,83.025,76.42,83.176L76.42,83.176
	z M78.6,84.172c-0.901,0.151-1.729-0.263-1.822-0.92c-0.111-0.641,0.546-1.297,1.447-1.447c0.9-0.149,1.729,0.264,1.821,0.922
	C80.158,83.383,79.52,84.021,78.6,84.172L78.6,84.172z M81.249,84.68c-0.847,0.396-1.748,0.206-2.013-0.395
	c-0.279-0.602,0.171-1.409,0.998-1.785c0.845-0.376,1.746-0.207,2.01,0.395C82.525,83.516,82.076,84.305,81.249,84.68L81.249,84.68z
	 M83.579,84.905c-0.827,0.376-1.729,0.188-2.013-0.413c-0.262-0.602,0.188-1.393,1.016-1.785c0.827-0.376,1.729-0.188,2.012,0.413
	C84.875,83.723,84.425,84.51,83.579,84.905L83.579,84.905z M86.189,84.323c-0.639,0.657-1.539,0.827-2.028,0.375
	c-0.47-0.47-0.356-1.372,0.282-2.028c0.639-0.677,1.541-0.847,2.011-0.377C86.941,82.744,86.811,83.665,86.189,84.323L86.189,84.323
	z M88.445,83.214c-0.639,0.677-1.541,0.847-2.012,0.376c-0.488-0.451-0.355-1.354,0.265-2.029c0.639-0.658,1.54-0.826,2.028-0.375
	C89.197,81.654,89.064,82.557,88.445,83.214L88.445,83.214z M90.38,81.146c-0.112,0.92-0.713,1.598-1.371,1.522
	c-0.657-0.076-1.108-0.885-1.015-1.786c0.094-0.921,0.714-1.598,1.373-1.521C90.023,79.438,90.475,80.245,90.38,81.146L90.38,81.146
	z M91.357,79.1c-0.094,0.901-0.715,1.578-1.371,1.502c-0.657-0.056-1.108-0.863-1.016-1.766c0.113-0.92,0.732-1.597,1.391-1.521
	C91.021,77.389,91.471,78.178,91.357,79.1L91.357,79.1z M91.884,76.036c0.357,0.846,0.149,1.747-0.45,1.991
	c-0.621,0.264-1.408-0.226-1.767-1.07c-0.338-0.846-0.132-1.729,0.47-1.992C90.757,74.721,91.527,75.189,91.884,76.036
	L91.884,76.036z M92.033,73.387c0.604,0.715,0.658,1.616,0.15,2.049c-0.507,0.433-1.39,0.207-1.973-0.508
	c-0.602-0.695-0.658-1.615-0.15-2.029C90.568,72.467,91.451,72.691,92.033,73.387L92.033,73.387z M91.264,70.736
	c0.809,0.451,1.203,1.279,0.885,1.861c-0.32,0.582-1.24,0.694-2.029,0.243c-0.809-0.432-1.203-1.259-0.901-1.841
	C89.535,70.418,90.456,70.305,91.264,70.736L91.264,70.736z M90.287,68.745c0.809,0.452,1.201,1.278,0.883,1.86
	s-1.221,0.694-2.029,0.244c-0.809-0.433-1.203-1.259-0.883-1.842C88.559,68.427,89.479,68.313,90.287,68.745L90.287,68.745z
	 M88.258,67.148c0.883,0.263,1.446,0.978,1.277,1.615c-0.188,0.639-1.053,0.939-1.936,0.695c-0.884-0.244-1.445-0.977-1.26-1.616
	C86.527,67.205,87.375,66.904,88.258,67.148L88.258,67.148z M86.359,65.495c0.902,0.149,1.561,0.808,1.447,1.466
	c-0.113,0.639-0.939,1.053-1.842,0.9c-0.902-0.148-1.561-0.807-1.447-1.465C84.631,65.739,85.458,65.345,86.359,65.495
	L86.359,65.495z M71.646,50.934c-0.451,0.488-1.391,0.338-2.104-0.32c-0.694-0.658-0.901-1.578-0.451-2.066
	c0.451-0.488,1.39-0.338,2.087,0.32C71.893,49.524,72.1,50.463,71.646,50.934L71.646,50.934z M73.057,53.395
	c-0.451,0.488-1.391,0.356-2.086-0.319c-0.714-0.657-0.921-1.578-0.47-2.066c0.451-0.487,1.392-0.338,2.104,0.32
	C73.301,51.984,73.508,52.925,73.057,53.395L73.057,53.395z M73.227,56.025c-0.451,0.47-1.392,0.338-2.086-0.32
	c-0.715-0.657-0.92-1.598-0.471-2.086c0.452-0.469,1.391-0.337,2.105,0.318C73.471,54.615,73.677,55.536,73.227,56.025
	L73.227,56.025z M73.02,58.355c-0.451,0.487-1.392,0.355-2.104-0.32c-0.694-0.657-0.901-1.578-0.45-2.066
	c0.45-0.488,1.391-0.339,2.104,0.318C73.264,56.945,73.471,57.885,73.02,58.355L73.02,58.355z M72.943,60.572
	c-0.45,0.486-1.392,0.355-2.104-0.319c-0.694-0.658-0.901-1.579-0.45-2.067c0.45-0.487,1.391-0.338,2.086,0.319
	C73.188,59.162,73.395,60.104,72.943,60.572L72.943,60.572z M72.775,63.033c-0.282,0.732-1.224,0.789-2.105,0.132
	c-0.883-0.658-1.372-1.785-1.089-2.499c0.3-0.732,1.237-0.789,2.123-0.131C72.587,61.191,73.075,62.318,72.775,63.033L72.775,63.033
	z M72.117,65.382c-0.451,0.488-1.393,0.338-2.086-0.319c-0.715-0.656-0.922-1.597-0.469-2.065c0.449-0.489,1.39-0.356,2.104,0.319
	C72.359,63.973,72.566,64.895,72.117,65.382L72.117,65.382z M71.271,67.58c-0.453,0.47-1.41,0.339-2.105-0.338
	c-0.713-0.657-0.92-1.578-0.469-2.066c0.449-0.488,1.39-0.339,2.104,0.319C71.516,66.152,71.723,67.092,71.271,67.58L71.271,67.58z
	 M70.633,70.118c-0.564,0.317-1.429-0.095-1.896-0.94c-0.489-0.846-0.396-1.785,0.168-2.123c0.582-0.318,1.429,0.096,1.916,0.939
	C71.29,68.839,71.216,69.779,70.633,70.118L70.633,70.118z M70.182,72.277c-0.375,0.396-1.146,0.113-1.709-0.639
	c-0.563-0.771-0.716-1.69-0.32-2.086c0.375-0.395,1.146-0.111,1.711,0.657C70.426,70.963,70.576,71.884,70.182,72.277L70.182,72.277
	z M69.505,74.607c-0.432,0-0.938-0.207-1.353-0.601c-0.715-0.657-0.92-1.598-0.471-2.067c0.451-0.488,1.768-0.019,2.48,0.64
	L69.505,74.607L69.505,74.607z M68.643,75.941c-0.115-0.074-0.209-0.149-0.303-0.226c-0.695-0.676-0.9-1.597-0.449-2.086
	c0.394-0.413,1.146-0.356,1.803,0.095L68.643,75.941L68.643,75.941z M77.622,72.128c-2.479,3.308-10.296,10.354-20.237,11.048
	 M84.198,55.648c0,0,0.282,8.55-4.396,13.68 M75.236,67.148c0.883,0.244,1.465,1.09,2.555,1.653 M74.673,68.427
	c0.677,0.488,1.185,0.789,1.935,1.165 M82.434,72.43c-0.716-0.02-1.09-0.81-1.805-0.847c0.133-1.297,0.751-1.747,1.146-2.574
	 M81.605,73.706c-0.771-0.356-2.312-1.127-2.519-1.015c-0.188,0.132-0.28,0.602-1.954,2.16 M88.934,57.415
	c0,0-7.703-1.334-10.709-1.56c0,0,3.399-9.396,2.986-14.206C81.211,41.651,87.093,46.724,88.934,57.415L88.934,57.415z
	 M66.743,83.516l1.973,3.965c0,0-12.796,0.094-16.591-3.703c0,0,9.131-5.223,11.01-8.492l1.26,4.322 M83.898,50.219
	c-0.319,0.113-0.733-0.301-0.922-0.902c-0.207-0.62-0.111-1.184,0.207-1.296c0.319-0.094,0.732,0.32,0.92,0.921
	C84.313,49.542,84.218,50.125,83.898,50.219L83.898,50.219z M69.563,48.847c-0.451,0.489-1.392,0.338-2.104-0.319
	c-0.694-0.658-0.901-1.579-0.451-2.067c0.451-0.488,1.392-0.338,2.086,0.32C69.807,47.438,70.014,48.359,69.563,48.847
	L69.563,48.847z M66.686,46.762c-0.449,0.488-1.39,0.338-2.104-0.319c-0.695-0.658-0.9-1.597-0.451-2.067
	c0.451-0.488,1.391-0.338,2.104,0.319C66.932,45.353,67.139,46.273,66.686,46.762L66.686,46.762z M63.813,46.235
	c-0.451,0.489-1.391,0.338-2.086-0.319c-0.715-0.658-0.92-1.578-0.471-2.067c0.451-0.489,1.391-0.338,2.104,0.319
	C64.057,44.826,64.264,45.766,63.813,46.235L63.813,46.235z M53.666,40.617c-0.451,0.489-1.393,0.338-2.087-0.319
	c-0.713-0.658-0.92-1.579-0.47-2.067c0.451-0.489,1.391-0.338,2.104,0.319C53.909,39.208,54.116,40.147,53.666,40.617L53.666,40.617
	z M51.034,39.453c-0.45,0.488-1.389,0.356-2.084-0.32c-0.715-0.658-0.921-1.578-0.471-2.067c0.452-0.489,1.392-0.338,2.105,0.32
	C51.279,38.043,51.484,38.982,51.034,39.453L51.034,39.453z M48.404,38.832c-0.451,0.489-1.39,0.338-2.104-0.319
	c-0.695-0.657-0.902-1.597-0.451-2.067c0.451-0.488,1.39-0.357,2.104,0.319C48.648,37.423,48.856,38.344,48.404,38.832
	L48.404,38.832z M45.605,37.799c-0.47,0.489-1.409,0.338-2.104-0.319c-0.714-0.658-0.921-1.578-0.471-2.067
	c0.452-0.488,1.392-0.337,2.105,0.32C45.849,36.39,46.056,37.31,45.605,37.799L45.605,37.799z M42.373,37.667
	c-0.451,0.489-1.391,0.338-2.085-0.319c-0.714-0.657-0.921-1.597-0.47-2.067c0.452-0.488,1.391-0.338,2.105,0.319
	C42.617,36.258,42.824,37.179,42.373,37.667L42.373,37.667z M38.99,37.461c-0.451,0.488-1.39,0.338-2.085-0.32
	c-0.714-0.658-0.92-1.578-0.47-2.066c0.451-0.489,1.39-0.338,2.104,0.319C39.253,36.051,39.46,36.991,38.99,37.461L38.99,37.461z
	 M56.258,42.064c-0.449,0.489-1.39,0.338-2.104-0.319c-0.715-0.657-0.92-1.597-0.471-2.067c0.45-0.488,1.392-0.338,2.104,0.319
	C56.502,40.655,56.709,41.576,56.258,42.064L56.258,42.064z M32.001,48.565c-0.452,0.489-1.391,0.338-2.105-0.319
	c-0.714-0.658-0.92-1.597-0.47-2.067c0.47-0.489,1.41-0.338,2.105,0.319C32.245,47.156,32.452,48.077,32.001,48.565L32.001,48.565z
	 M32.527,46.743c-0.47,0.489-1.409,0.338-2.104-0.319c-0.714-0.658-0.921-1.597-0.47-2.085c0.451-0.47,1.391-0.338,2.104,0.319
	C32.771,45.333,32.978,46.254,32.527,46.743L32.527,46.743z M34.35,45.428c-0.451,0.488-1.391,0.357-2.104-0.319
	c-0.714-0.658-0.921-1.579-0.47-2.067c0.47-0.489,1.409-0.338,2.104,0.319C34.594,44.018,34.8,44.958,34.35,45.428L34.35,45.428z
	 M36.698,44.395c-0.451,0.488-1.391,0.338-2.104-0.32c-0.714-0.658-0.92-1.597-0.47-2.085c0.47-0.47,1.409-0.338,2.104,0.319
	C36.942,42.985,37.149,43.906,36.698,44.395L36.698,44.395z M38.258,42.816c-0.451,0.488-1.391,0.356-2.104-0.32
	c-0.695-0.657-0.902-1.578-0.451-2.066c0.451-0.489,1.391-0.338,2.104,0.319C38.502,41.407,38.709,42.346,38.258,42.816
	L38.258,42.816z M40.08,41.782c-0.451,0.489-1.39,0.338-2.085-0.319c-0.714-0.658-0.92-1.597-0.47-2.067
	c0.451-0.489,1.39-0.357,2.104,0.319C40.325,40.373,40.531,41.293,40.08,41.782L40.08,41.782z M42.166,40.73
	c-0.451,0.489-1.39,0.357-2.086-0.319c-0.714-0.658-0.92-1.579-0.469-2.067c0.451-0.488,1.39-0.338,2.104,0.319
	C42.429,39.321,42.636,40.261,42.166,40.73L42.166,40.73z M44.778,39.959c-0.451,0.47-1.39,0.338-2.086-0.319
	c-0.714-0.677-0.92-1.597-0.47-2.085c0.452-0.47,1.391-0.338,2.104,0.319C45.022,38.55,45.229,39.471,44.778,39.959L44.778,39.959z
	 M46.864,39.17c-0.452,0.488-1.39,0.338-2.086-0.319c-0.713-0.658-0.921-1.597-0.469-2.067c0.45-0.488,1.39-0.338,2.104,0.319
	C47.127,37.761,47.333,38.682,46.864,39.17L46.864,39.17z M49.212,38.118c-0.451,0.489-1.391,0.357-2.085-0.319
	c-0.715-0.658-0.921-1.578-0.471-2.067c0.452-0.489,1.392-0.338,2.105,0.319C49.476,36.709,49.682,37.648,49.212,38.118
	L49.212,38.118z M51.561,37.611c-0.449,0.47-1.39,0.338-2.084-0.319c-0.714-0.676-0.921-1.597-0.469-2.085
	c0.451-0.47,1.39-0.338,2.104,0.319C51.823,36.202,52.029,37.123,51.561,37.611L51.561,37.611z M54.172,37.348
	c-0.449,0.489-1.39,0.338-2.084-0.319c-0.715-0.657-0.921-1.597-0.471-2.086c0.451-0.469,1.391-0.338,2.104,0.32
	C54.417,35.938,54.623,36.859,54.172,37.348L54.172,37.348z M56.784,37.085c-0.45,0.488-1.392,0.338-2.104-0.32
	c-0.695-0.658-0.902-1.597-0.451-2.067c0.451-0.488,1.391-0.357,2.104,0.319C57.027,35.675,57.234,36.596,56.784,37.085
	L56.784,37.085z M58.87,37.085c-0.451,0.488-1.392,0.338-2.086-0.32c-0.714-0.658-0.921-1.597-0.47-2.067
	c0.451-0.488,1.391-0.357,2.104,0.319C59.113,35.675,59.32,36.596,58.87,37.085L58.87,37.085z M61.745,36.559
	c-0.451,0.489-1.392,0.338-2.104-0.32c-0.695-0.657-0.902-1.578-0.451-2.067c0.451-0.488,1.392-0.337,2.104,0.32
	C61.988,35.15,62.195,36.07,61.745,36.559L61.745,36.559z M63.831,36.821c-0.452,0.489-1.392,0.338-2.104-0.319
	c-0.695-0.657-0.901-1.597-0.451-2.066c0.451-0.489,1.391-0.338,2.104,0.319C64.075,35.412,64.281,36.333,63.831,36.821
	L63.831,36.821z M23.677,81.447c0.921,0,1.672-0.525,1.672-1.184c0-0.677-0.751-1.203-1.672-1.203c-0.921,0-1.654,0.526-1.654,1.203
	C22.023,80.922,22.756,81.447,23.677,81.447L23.677,81.447z M21.366,82.611c0.902,0.171,1.729-0.206,1.86-0.862
	c0.132-0.64-0.489-1.315-1.391-1.485c-0.901-0.188-1.747,0.188-1.879,0.846C19.843,81.749,20.464,82.425,21.366,82.611
	L21.366,82.611z M19.148,83.516c0.883,0.188,1.729-0.188,1.86-0.846c0.132-0.64-0.507-1.314-1.39-1.504
	c-0.902-0.169-1.748,0.207-1.879,0.846C17.626,82.67,18.247,83.345,19.148,83.516L19.148,83.516z M16.499,83.947
	c0.808,0.395,1.71,0.263,2.01-0.338c0.301-0.584-0.131-1.41-0.939-1.824c-0.827-0.395-1.728-0.264-2.029,0.339
	S15.672,83.533,16.499,83.947L16.499,83.947z M14.15,84.079c0.808,0.396,1.71,0.263,2.011-0.339c0.3-0.602-0.132-1.409-0.939-1.822
	c-0.827-0.396-1.729-0.264-2.029,0.338C12.891,82.839,13.323,83.665,14.15,84.079L14.15,84.079z M11.558,83.402
	c0.62,0.693,1.503,0.883,2.01,0.449c0.489-0.449,0.395-1.353-0.206-2.047c-0.62-0.677-1.503-0.884-2.011-0.433
	C10.862,81.805,10.956,82.727,11.558,83.402L11.558,83.402z M9.339,82.236c0.621,0.678,1.503,0.884,2.011,0.434
	c0.489-0.434,0.395-1.354-0.206-2.029c-0.621-0.695-1.503-0.884-2.011-0.451C8.645,80.62,8.739,81.541,9.339,82.236L9.339,82.236z
	 M7.48,80.095c0.075,0.902,0.657,1.616,1.315,1.561c0.677-0.056,1.146-0.827,1.071-1.747c-0.057-0.922-0.658-1.616-1.315-1.561
	C7.893,78.385,7.405,79.174,7.48,80.095L7.48,80.095z M6.559,78.01c0.076,0.901,0.677,1.598,1.334,1.561
	c0.658-0.057,1.127-0.848,1.071-1.748C8.889,76.9,8.288,76.206,7.63,76.262C6.972,76.3,6.502,77.089,6.559,78.01L6.559,78.01z
	 M6.146,74.928c-0.375,0.826-0.207,1.729,0.395,2.012c0.602,0.281,1.409-0.17,1.785-1.016c0.395-0.826,0.207-1.729-0.395-2.011
	C7.329,73.648,6.54,74.102,6.146,74.928L6.146,74.928z M6.089,72.277c-0.62,0.677-0.714,1.599-0.226,2.029
	c0.489,0.451,1.391,0.264,2.01-0.432c0.602-0.677,0.714-1.579,0.225-2.03C7.593,71.396,6.709,71.602,6.089,72.277L6.089,72.277z
	 M6.972,69.666c-0.827,0.395-1.259,1.223-0.958,1.804c0.301,0.603,1.202,0.753,2.029,0.339c0.808-0.412,1.24-1.222,0.94-1.822
	C8.682,69.402,7.78,69.254,6.972,69.666L6.972,69.666z M8.006,67.693c-0.808,0.412-1.24,1.24-0.939,1.822
	c0.282,0.603,1.202,0.732,2.011,0.338c0.827-0.412,1.258-1.222,0.958-1.821C9.734,67.43,8.833,67.299,8.006,67.693L8.006,67.693z
	 M10.073,66.171c-0.883,0.226-1.466,0.921-1.315,1.579c0.169,0.639,1.015,0.977,1.898,0.751c0.902-0.226,1.484-0.921,1.334-1.56
	C11.82,66.284,10.975,65.945,10.073,66.171L10.073,66.171z M12.046,64.593c-0.921,0.112-1.579,0.752-1.484,1.392
	c0.075,0.656,0.883,1.107,1.804,0.978c0.902-0.112,1.56-0.752,1.484-1.409C13.755,64.895,12.948,64.462,12.046,64.593L12.046,64.593
	z M30.46,82.48l-1.56,4.697c0,0,12.796-0.263,16.705-3.927c0,0-10.185-4.961-10.692-8.081l-2.612,3.646 M27.247,50.557
	c0.432,0.489,1.39,0.375,2.123-0.263c0.714-0.62,0.958-1.541,0.526-2.048s-1.371-0.395-2.104,0.244
	C27.059,49.129,26.815,50.05,27.247,50.557L27.247,50.557z M25.744,52.962c0.451,0.508,1.39,0.396,2.123-0.244
	c0.733-0.639,0.958-1.56,0.526-2.067c-0.432-0.487-1.372-0.375-2.104,0.264C25.556,51.534,25.312,52.455,25.744,52.962
	L25.744,52.962z M25.5,55.574c0.432,0.488,1.372,0.395,2.104-0.244c0.733-0.641,0.959-1.561,0.526-2.066
	c-0.432-0.488-1.372-0.377-2.104,0.243C25.292,54.146,25.048,55.066,25.5,55.574L25.5,55.574z M25.631,57.923
	c0.432,0.488,1.372,0.396,2.105-0.243c0.732-0.64,0.958-1.561,0.525-2.068c-0.432-0.487-1.371-0.375-2.104,0.244
	C25.424,56.495,25.18,57.415,25.631,57.923L25.631,57.923z M25.631,60.141c0.432,0.508,1.372,0.396,2.105-0.244
	c0.732-0.64,0.958-1.561,0.525-2.067c-0.432-0.487-1.371-0.375-2.104,0.264C25.424,58.712,25.18,59.633,25.631,60.141L25.631,60.141
	z M25.706,62.602c0.263,0.732,1.203,0.826,2.104,0.188c0.902-0.62,1.428-1.729,1.165-2.462c-0.263-0.731-1.203-0.808-2.124-0.188
	C25.95,60.76,25.443,61.868,25.706,62.602L25.706,62.602z M26.27,64.969c0.432,0.489,1.391,0.396,2.124-0.244
	c0.714-0.639,0.958-1.56,0.526-2.066c-0.432-0.488-1.372-0.375-2.104,0.244C26.082,63.54,25.838,64.462,26.27,64.969L26.27,64.969z
	 M27.059,67.186c0.432,0.51,1.372,0.396,2.104-0.244c0.733-0.639,0.978-1.56,0.545-2.065c-0.451-0.487-1.391-0.376-2.124,0.263
	C26.852,65.758,26.627,66.68,27.059,67.186L27.059,67.186z M27.585,69.741c0.564,0.356,1.447-0.037,1.954-0.864
	c0.508-0.827,0.451-1.766-0.113-2.123c-0.563-0.339-1.428,0.037-1.935,0.864C26.984,68.445,27.021,69.402,27.585,69.741
	L27.585,69.741z M27.961,71.939c0.375,0.396,1.146,0.131,1.748-0.602c0.583-0.732,0.752-1.652,0.395-2.066
	c-0.376-0.414-1.146-0.15-1.748,0.582C27.773,70.605,27.604,71.527,27.961,71.939L27.961,71.939z M28.581,74.288
	c0.433,0,0.94-0.188,1.372-0.563c0.733-0.638,0.958-1.559,0.526-2.047c-0.432-0.508-1.766-0.076-2.499,0.563L28.581,74.288
	L28.581,74.288z M29.389,75.643c0.112-0.057,0.207-0.133,0.301-0.227c0.732-0.639,0.977-1.561,0.526-2.048
	c-0.376-0.433-1.128-0.414-1.804,0.019L29.389,75.643L29.389,75.643z M20.558,71.508c2.349,3.401,9.903,10.71,19.823,11.744
	 M14.544,54.805c0,0-0.583,8.549,3.927,13.848 M23.094,66.622c-0.883,0.207-1.503,1.034-2.612,1.56 M23.62,67.919
	c-0.695,0.451-1.221,0.752-1.973,1.09 M15.729,71.641c0.714,0.019,1.109-0.752,1.823-0.771c-0.075-1.314-0.677-1.768-1.052-2.612
	 M16.499,72.954c0.808-0.338,2.349-1.052,2.556-0.92c0.187,0.132,0.263,0.601,1.879,2.218 M10.448,54.766
	c0,0,3.119-1.841,9.921-2.104c0,0-4.96-3.646-2.349-11.744C18.021,40.918,9.922,46.404,10.448,54.766L10.448,54.766z M15.033,49.411
	c0.32,0.113,0.733-0.282,0.958-0.883c0.226-0.602,0.15-1.184-0.169-1.297c-0.301-0.112-0.733,0.282-0.958,0.883
	C14.639,48.716,14.714,49.298,15.033,49.411L15.033,49.411z"/>
</svg>
