<?xml version="1.0" encoding="utf-8"?>
<!-- Generator: Adobe Illustrator 16.0.0, SVG Export Plug-In . SVG Version: 6.00 Build 0)  -->
<!DOCTYPE svg PUBLIC "-//W3C//DTD SVG 1.1//EN" "http://www.w3.org/Graphics/SVG/1.1/DTD/svg11.dtd">
<svg version="1.1" id="Layer_1" xmlns="http://www.w3.org/2000/svg" xmlns:xlink="http://www.w3.org/1999/xlink" x="0px" y="0px"
	 width="28.563px" height="26.875px" viewBox="-0.057 2.25 28.563 26.875" enable-background="new -0.057 2.25 28.563 26.875"
	 xml:space="preserve">
<path d="M15.067,2.25c-5.979,0-11.034,3.91-12.777,9.309h3.213c1.602-3.705,5.271-6.301,9.564-6.309
	c5.765,0.01,10.429,4.674,10.438,10.437c-0.009,5.765-4.673,10.429-10.438,10.438c-4.294-0.008-7.964-2.605-9.565-6.312H2.289
	c1.744,5.399,6.799,9.31,12.778,9.312c7.419-0.002,13.438-6.016,13.438-13.438C28.504,8.265,22.486,2.252,15.067,2.25z
	 M10.918,19.813l7.149-4.126l-7.149-4.129v2.297H-0.057v3.661h10.976V19.813z"/>
</svg>
