<?xml version="1.0" encoding="utf-8"?>
<!DOCTYPE svg PUBLIC "-//W3C//DTD SVG 1.1//EN" "http://www.w3.org/Graphics/SVG/1.1/DTD/svg11.dtd">
<svg version="1.1"
	 id="Layer_1" xmlns="http://www.w3.org/2000/svg" xmlns:xlink="http://www.w3.org/1999/xlink" x="0px" y="0px" width="288.086px"
	 height="310.086px" viewBox="0 0 288.086 310.086" enable-background="new 0 0 288.086 310.086" xml:space="preserve">
<g>
	<path d="M199.733,55.9c4.844-6.138,9.988-12.396,15.434-18.895c5.447-6.649,11.944-14.532,17.06-20.158
		c5.055-5.687,8.484-10.41,13.209-13.238c4.633-2.888,9.267-4.001,14.592-3.459c5.265,0.511,12.185,1.745,16.938,6.619
		c4.603,4.904,10.951,14.712,11.042,22.234c0.029,7.281,1.413,7.762-10.71,21.632c-12.426,13.93-37.368,37.307-62.399,61.075
		c-25.184,23.678-65.86,61.135-86.766,79.999c-20.79,18.683-25.453,20.639-37.428,31.86c-12.035,11.132-22.535,22.386-34.178,34.691
		c-11.793,12.243-23.377,24.731-35.562,38.148c0.933,2.527,0.843,4.845-0.15,7.07c-1.053,2.196-3.46,5.114-6.047,6.077
		c-2.708,0.813-7.371,0.752-9.808-0.872c-2.497-1.775-4.543-6.078-4.874-9.176c-0.331-3.189,0.572-7.161,2.708-9.146
		c2.076-1.958,5.175-2.769,9.537-2.438c7.01-8.003,15.254-17.422,25.543-28.822c10.199-11.464,21.963-22.896,35.292-39.174
		c13.328-16.488,31.169-42.06,43.535-58.517c12.095-16.457,18.052-25.573,29.003-39.534c11.072-14.141,27.108-33.185,36.374-44.257
		c9.026-11.045,14.835-18.206,17.659-21.726L199.733,55.9z M199.733,55.9l0.014,0.011c4.844-6.138,9.988-12.396,15.434-18.894
		c5.447-6.649,11.944-14.532,17.06-20.157c5.055-5.688,8.484-10.41,13.204-13.235c3.877-2.417,7.753-3.59,12.035-3.59
		c0.832,0,1.68,0.044,2.546,0.133c5.264,0.511,12.179,1.744,16.928,6.613c4.601,4.901,10.947,14.709,11.037,22.221
		c0.005,1.402,0.061,2.552,0.061,3.593c0,4.363-0.978,6.826-10.767,18.027c-12.425,13.928-37.367,37.306-62.398,61.074
		c-25.184,23.678-65.859,61.135-86.765,79.999c-20.789,18.683-25.452,20.638-37.428,31.861
		c-12.035,11.132-22.536,22.386-34.179,34.691c-11.793,12.243-23.377,24.732-35.562,38.149l-0.007,0.008l0.003,0.01
		c0.437,1.184,0.649,2.32,0.649,3.423c0,1.249-0.272,2.454-0.799,3.634c-1.05,2.192-3.457,5.108-6.037,6.068l0.006,0.017
		l-0.005-0.018c-1.085,0.326-2.486,0.512-3.932,0.512c-2.155,0-4.408-0.412-5.861-1.381c-2.49-1.77-4.536-6.071-4.866-9.163
		c-0.044-0.428-0.067-0.869-0.067-1.318c0-2.896,0.925-6.101,2.769-7.812c1.771-1.671,4.289-2.505,7.707-2.505
		c0.58,0,1.185,0.023,1.816,0.071l0.009,0.001l0.006-0.007c7.01-8.003,15.254-17.422,25.543-28.822
		c10.199-11.463,21.963-22.895,35.292-39.174c13.329-16.489,31.17-42.062,43.535-58.518c12.095-16.458,18.052-25.574,29.003-39.533
		c11.071-14.14,27.108-33.185,36.374-44.256c9.026-11.045,14.835-18.206,17.659-21.726l-0.027-0.023l-0.003,0.003L199.733,55.9
		l0.014,0.011L199.733,55.9l0.014,0.012l0.003-0.003l-0.014-0.012l-0.014-0.011c-2.824,3.52-8.633,10.681-17.659,21.726
		c-9.266,11.071-25.302,30.116-36.375,44.257c-10.952,13.961-16.909,23.078-29.004,39.534
		c-12.365,16.458-30.207,42.029-43.534,58.516c-13.328,16.277-25.091,27.709-35.291,39.174c-10.29,11.4-18.533,20.819-25.543,28.822
		l0.014,0.012l0.001-0.018c-0.633-0.049-1.239-0.072-1.819-0.072c-3.424,0-5.953,0.836-7.731,2.515
		C0.925,292.075,0,295.286,0,298.189c0,0.45,0.022,0.894,0.066,1.322c0.333,3.104,2.378,7.407,4.882,9.188
		c1.464,0.976,3.722,1.387,5.881,1.387c1.449,0,2.853-0.186,3.942-0.512l0-0.001h0c2.595-0.966,5.002-3.886,6.057-6.086
		c0.529-1.185,0.802-2.396,0.802-3.649c0-1.107-0.213-2.248-0.651-3.435l-0.017,0.006l0.013,0.012
		c12.185-13.417,23.769-25.904,35.562-38.147c11.644-12.306,22.143-23.56,34.177-34.691c11.973-11.22,16.637-13.177,37.428-31.859
		c20.906-18.864,61.582-56.321,86.766-80c25.031-23.768,49.974-47.146,62.4-61.077c9.788-11.198,10.776-13.676,10.775-18.051
		c0-1.042-0.056-2.192-0.062-3.593c-0.092-7.531-6.442-17.339-11.047-22.246c-4.759-4.879-11.684-6.113-16.949-6.625
		C259.162,0.044,258.312,0,257.479,0c-4.289,0-8.173,1.175-12.054,3.595c-4.729,2.831-8.158,7.556-13.213,13.242
		c-5.115,5.626-11.612,13.509-17.06,20.158c-5.445,6.498-10.59,12.757-15.434,18.895l0.027,0.023L199.733,55.9z M200.233,58.79
		c-2.824,3.52-8.633,10.681-17.676,21.721c-9.266,11.072-25.302,30.117-36.374,44.257c-10.952,13.96-16.909,23.076-29.003,39.533
		c-12.365,16.518-30.207,42.06-43.535,58.518c-13.298,16.187-25.002,27.438-35.231,38.63c-10.259,11.163-18.563,20.338-25.604,27.98
		c-3.941-0.753-6.709-0.061-8.635,1.834c-1.925,1.927-3.068,6.771-2.617,9.659c0.451,2.829,2.888,5.837,5.235,7.071
		c2.136,1.021,6.107,0.39,8.093-0.271c1.926-0.602,3.279-1.384,3.941-3.399c0.662-2.105,0.662-5.114,0-9.146
		c11.493-11.764,22.625-23.107,33.847-34.721c11.132-11.614,21.03-22.835,32.944-34.237c11.854-11.464,17.3-14.864,37.909-33.758
		c20.64-19.164,59.723-55.719,84.994-79.487c25.183-23.889,52.079-48.108,65.137-61.978c12.847-13.78,11.313-13.027,11.764-20.128
		c0.36-7.281-5.295-17.751-9.417-22.475c-4.213-4.693-10.41-5.084-15.465-5.355c-5.114-0.361-9.988,0.632-14.622,3.46
		c-4.724,2.828-8.153,7.551-13.208,13.238c-5.114,5.626-11.612,13.509-17.059,20.158c-5.446,6.499-10.591,12.757-15.435,18.895
		L200.233,58.79z M200.217,58.789l0.014,0.011c4.844-6.138,9.988-12.395,15.435-18.894c5.446-6.649,11.944-14.532,17.059-20.157
		c5.055-5.688,8.484-10.409,13.203-13.234c4.027-2.458,8.235-3.529,12.625-3.529c0.658,0,1.32,0.024,1.987,0.071
		c5.055,0.27,11.246,0.662,15.452,5.349c3.994,4.575,9.43,14.556,9.429,21.787c0,0.228-0.005,0.453-0.016,0.675
		c-0.453,7.103,1.088,6.333-11.76,20.117c-13.056,13.868-39.953,38.088-65.136,61.977c-25.271,23.768-64.354,60.324-84.994,79.487
		c-20.608,18.894-26.054,22.294-37.909,33.759c-11.915,11.402-21.813,22.624-32.945,34.237
		c-11.222,11.613-22.354,22.957-33.847,34.721l-0.006,0.007l0.001,0.009c0.331,2.015,0.496,3.774,0.496,5.292
		s-0.165,2.795-0.495,3.845c-0.661,2.01-2.005,2.786-3.93,3.388c-1.23,0.41-3.225,0.809-5.07,0.809c-1.129,0-2.203-0.149-3.01-0.536
		l-0.008,0.017l0.008-0.016c-2.341-1.231-4.776-4.237-5.226-7.059c-0.066-0.423-0.098-0.89-0.098-1.382
		c-0.001-2.86,1.073-6.625,2.71-8.262c1.409-1.386,3.27-2.127,5.715-2.127c0.889,0,1.854,0.098,2.903,0.298l0.01,0.002l0.007-0.008
		c7.041-7.643,15.344-16.817,25.604-27.98c10.229-11.19,21.933-22.442,35.232-38.63c13.329-16.459,31.17-42.002,43.535-58.519
		c12.095-16.458,18.052-25.574,29.003-39.533c11.071-14.14,27.108-33.185,36.374-44.256c9.043-11.041,14.852-18.201,17.676-21.721
		l0.021-0.026l-0.049-0.004L200.217,58.789l0.014,0.011L200.217,58.789l-0.002,0.018l0.016,0.001l0.002-0.018l-0.014-0.011
		c-2.824,3.52-8.633,10.681-17.676,21.721c-9.266,11.071-25.302,30.116-36.375,44.257c-10.952,13.96-16.909,23.077-29.004,39.534
		c-12.365,16.518-30.207,42.06-43.534,58.517c-13.297,16.186-25,27.438-35.23,38.63c-10.259,11.163-18.563,20.338-25.604,27.979
		l0.013,0.013l0.003-0.018c-1.051-0.201-2.019-0.299-2.91-0.299c-2.453,0-4.325,0.744-5.741,2.138
		c-1.648,1.65-2.72,5.418-2.721,8.287c0,0.494,0.032,0.962,0.099,1.388c0.453,2.837,2.892,5.847,5.244,7.084l0,0.001
		c0.815,0.39,1.893,0.539,3.026,0.539c1.851,0,3.847-0.399,5.081-0.811c1.927-0.601,3.289-1.389,3.953-3.41
		c0.332-1.056,0.497-2.336,0.497-3.856s-0.166-3.281-0.497-5.298l-0.018,0.003l0.013,0.013
		c11.493-11.764,22.625-23.107,33.848-34.721c11.132-11.615,21.03-22.835,32.943-34.237c11.854-11.463,17.299-14.863,37.909-33.757
		c20.64-19.164,59.723-55.72,84.995-79.488c25.183-23.889,52.078-48.108,65.137-61.979c12.847-13.775,11.319-13.041,11.769-20.139
		c0.012-0.223,0.017-0.449,0.017-0.677c-0.001-7.248-5.439-17.228-9.438-21.811c-4.22-4.7-10.423-5.09-15.478-5.361
		c-0.667-0.047-1.33-0.071-1.989-0.071c-4.396,0-8.61,1.073-12.644,3.534c-4.728,2.831-8.157,7.556-13.212,13.241
		c-5.114,5.626-11.612,13.51-17.059,20.159c-5.446,6.499-10.591,12.757-15.435,18.895l-0.021,0.026l0.032,0.003L200.217,58.789z
		 M250.971,21.602c1.354,2.738,7.913,6.349,9.115,5.837c0.993-0.632-1.323-6.438-2.647-9.176c-1.413-2.828-4.212-7.913-5.265-7.371
		C251.029,11.462,249.591,18.744,250.971,21.602L250.971,21.602z M270.586,12.365c2.016,2.587,7.552,8.544,9.056,8.936
		c1.414,0.271,1.654-3.971-0.331-6.679c-2.226-2.768-10.38-8.936-11.944-9.327c-1.471-0.331,1.145,4.302,3.218,7.07H270.586z
		 M250.971,41.609c-3.43,2.016-11.733,11.373-18.864,17.51c-7.13,6.077-21.843,19.466-23.378,18.684
		c-1.563-1.023,7.612-16.157,14.082-24.16c6.408-8.033,18.863-19.767,24.129-23.377c5.145-3.58,6.228,2.227,6.949,1.865
		c0.633-0.421-0.451-4.543-2.798-4.362c-2.347,0.09-5.506,0-11.343,5.175c-6.107,5.175-17.511,16.307-24.13,25.633
		c-6.618,9.267-16.517,27.559-14.952,29.455c1.715,1.625,15.735-12.034,24.429-18.924c8.484-6.95,22.024-17.42,26.447-22.023
		c4.262-4.727,2.607-7.405-0.585-5.479L250.971,41.609z M224.228,77.773c-4.182,2.828-8.304,5.837-15.494,12.155
		c-7.341,6.348-25.424,26.506-27.8,25.423c-2.316-1.354,8.243-22.896,13.81-32.824c5.565-9.928,17.99-23.738,19.165-26.325
		c0.872-2.587-7.462,3.761-13.058,10.681c-5.687,6.799-15.946,20.94-20.098,30.237c-4.183,9.236-6.92,23.347-4.272,25.032
		c2.769,1.474,10.921-7.191,20.52-15.435c9.537-8.304,31.681-28.973,36.374-33.817c4.487-4.894-5.023,2.026-9.144,4.884
		L224.228,77.773z M170.74,134.872c-0.209-1.146-15.553,11.308-17.609,10.446c-2.046-1.083,2.317-8.635,5.446-16.036
		c3.129-7.521,14.591-30.688,12.787-28.07c-2.135,2.888-21.601,35.652-24.64,44.348c-2.918,8.334,2.889,8.213,6.98,6.378
		c4.093-1.865,16.97-15.945,17.029-17.059L170.74,134.872z M128.729,156.934c-1.023-0.061-7.672,12.396-7.07,15.313
		c0.542,2.828,4.182,4.844,10.35,1.864c6.138-3.189,14.35-9.717,26.145-19.947c11.764-10.29,38.691-35.893,43.866-40.827
		c4.844-4.844-7.643,6.047-14.141,11.794c-6.648,5.716-16.607,15.133-24.761,22.113c-8.214,6.95-17.602,14.321-23.618,18.744
		c-5.957,4.242-10.109,7.853-11.884,6.438c-1.797-1.646,2.056-15.403,1.12-15.486L128.729,156.934z M122.232,185.363
		c-7.104,3.067-11.166,3.552-12.302,1.446c-1.173-2.226,0.602-6.889,5.326-14.322c-5.145,8.304-7.883,13.719-8.093,16.727
		c-0.181,2.829,4.062,1.475,6.679,0.813c2.557-0.723,5.205-2.166,8.394-4.663L122.232,185.363z M116.516,192.733
		c-1.504,0.51-17.091,11.583-19.373,11.165c-2.226-0.603,5.687-12.788,6.107-14.502c0.271-1.745-2.106,1.022-4.001,4.122
		c-1.925,3.098-8.424,12.877-7.311,14.261c1.023,1.174,9.357-4.032,13.509-6.559c4.092-2.588,12.426-8.937,11.072-8.484
		L116.516,192.733z M93.227,212.801c-3.279,1.956-9.327,5.596-10.5,5.235c-1.173-0.541,4.122-7.913,3.581-7.972
		c-0.632-0.061-5.596,4.903-7.101,7.461c-1.594,2.467-3.55,7.101-2.046,7.28c1.475,0.061,6.8-3.459,10.981-6.498
		c4.152-3.188,12.907-11.012,13.84-11.975c0.752-0.869-5.532,4.43-8.758,6.478L93.227,212.801z M16.781,295.054
		c2.828-2.679,8.304-8.153,17.24-17.358c8.936-9.419,25.934-27.831,35.893-37.939c9.928-10.048,21.181-19.856,23.076-21.993
		c1.655-2.166-5.867,3.009-12.576,9.146c-6.77,6.169-17.119,15.856-27.68,27.109c-10.831,11.102-29.695,32.371-35.833,39.322
		c-6.021,6.836-3.042,4.279-0.124,1.722L16.781,295.054z M16.871,289.915c-0.21,0.572,4.272-5.295,8.936-10.169
		c4.483-4.935,17.992-18.083,18.263-18.774c0.18-0.572-12.215,9.719-16.758,14.743c-4.633,4.896-10.169,13.38-10.44,14.198V289.915z
		 M47.589,256.845c-0.03,0.512,5.235-6.528,9.176-10.229c3.821-3.851,14.05-11.433,14.081-12.064
		c-0.03-0.542-10.26,4.874-14.081,8.694c-3.941,3.77-9.207,12.945-9.176,13.605V256.845z M122.411,196.856
		c-2.587,0.872-4.904,1.174-7.401,0.782c-2.497-0.45-5.506-1.716-7.281-3.219c-1.775-1.655-2.918-3.582-3.55-6.108
		c-0.692-2.559-1.083-5.384-0.842-8.815l-12.275,16.968c0.873,3.31,2.347,5.836,4.543,7.823c2.106,1.955,5.927,3.279,8.575,3.729
		c2.648,0.331,4.964-0.15,7.191-1.563c3.677-3.185,7.354-6.377,11.048-9.595L122.411,196.856z M214.926,106.355
		c-2.196,3.099,26.446-25.573,36.374-36.104c9.809-10.59,18.864-18.473,22.174-26.536c3.069-8.093-3.22-20.459-3.31-21.662
		c-0.09-1.083,3.34,9.567,2.618,14.532c-0.843,4.723,1.985,2.376-7.644,14.08c-9.819,11.734-47.787,52.23-50.202,55.69H214.926z
		 M257.231,54.938c0.271-0.151,10.29-12.728,11.854-17.42c1.475-4.693-2.769-10.59-2.979-10.5c-0.3,0.06,2.77,5.897,1.324,10.65
		c-1.63,4.693-10.446,17.179-10.204,17.27H257.231z M9.951,289.921c-2.948,2.976-4.272,5.474-4.212,7.605
		c0.06,2.136,2.557,4.724,4.693,4.965c2.046,0.09,4.513-1.266,7.521-4.182c-3.701,1.021-6.288,1.414-7.762,1.053
		c-1.534-0.421-1.354-1.505-1.324-3.129c-0.06-1.596,0.301-3.701,1.083-6.319V289.921z"/>
</g>
</svg>
