<?xml version="1.0" encoding="utf-8"?>
<!-- Generator: Adobe Illustrator 16.0.3, SVG Export Plug-In . SVG Version: 6.00 Build 0)  -->
<!DOCTYPE svg PUBLIC "-//W3C//DTD SVG 1.1//EN" "http://www.w3.org/Graphics/SVG/1.1/DTD/svg11.dtd">
<svg version="1.1" id="Layer_1" xmlns="http://www.w3.org/2000/svg" xmlns:xlink="http://www.w3.org/1999/xlink" x="0px" y="0px"
	 width="15px" height="15px" viewBox="0 0 15 15" enable-background="new 0 0 15 15" xml:space="preserve">
<path d="M3.5,7C3.776,7,4,7.224,4,7.5c0.006,1.393,0.445,2.214,1.07,2.741C5.698,10.767,6.58,11.001,7.5,11
	c0.92,0.001,1.802-0.233,2.43-0.759C10.555,9.714,10.994,8.893,11,7.5C11,7.224,11.224,7,11.5,7S12,7.224,12,7.5
	c0.006,1.607-0.555,2.786-1.43,3.509C9.698,11.733,8.58,11.999,7.5,12c-1.08-0.001-2.198-0.267-3.07-0.991
	C3.555,10.286,2.994,9.107,3,7.5C3,7.224,3.224,7,3.5,7z M5.5,3.5c-0.552,0-1,0.448-1,1s0.448,1,1,1s1-0.448,1-1S6.052,3.5,5.5,3.5z
	 M6.5,4.5H6C6,4.775,5.775,5,5.5,5C5.225,5,5,4.775,5,4.5C5,4.225,5.225,4,5.5,4C5.775,4,6,4.225,6,4.5H6.5H7C7,3.671,6.329,3,5.5,3
	C4.671,3,4,3.671,4,4.5C4,5.329,4.671,6,5.5,6C6.329,6,7,5.329,7,4.5H6.5z M9.5,3.5c-0.552,0-1,0.448-1,1s0.448,1,1,1
	c0.553,0,1-0.448,1-1S10.053,3.5,9.5,3.5z M10.5,4.5H10C9.999,4.775,9.776,5,9.5,5C9.225,5,9,4.775,9,4.5S9.225,4,9.5,4
	C9.776,4,9.999,4.225,10,4.5H10.5H11C11,3.672,10.329,3,9.5,3C8.672,3,8,3.671,8,4.5S8.672,6,9.5,6C10.329,6,11,5.328,11,4.5H10.5z
	 M14.5,7.5H14c0,1.797-0.727,3.418-1.903,4.597C10.918,13.273,9.297,14,7.5,14s-3.418-0.727-4.596-1.903C1.727,10.918,1,9.297,1,7.5
	s0.727-3.418,1.904-4.596C4.082,1.727,5.703,1,7.5,1s3.418,0.727,4.597,1.904C13.273,4.082,14,5.703,14,7.5H14.5H15
	C15,3.357,11.643,0,7.5,0C3.357,0,0,3.357,0,7.5C0,11.643,3.357,15,7.5,15S15,11.643,15,7.5H14.5z"/>
</svg>
