<svg xmlns="http://www.w3.org/2000/svg" width="173" height="318" x="0" y="0" id="svgcontent" viewBox="0 0 173 318" overflow="hidden"><defs><path fill="#000000" stroke="#000000" d="M63.4709,296.16129Q98.9709,298.16129 134.50809,295.91129" id="svg_6"/><path fill="#000000" stroke="#000000" d="M70.58727,200.60025Q124.98729,202.60025 179.42886,200.35025" id="svg_5"/><path id="svg_4" d="M-5327.31641,5566.26221A5443.09912,5443.09912 0 0 1 5558.88184,5566.26221A5443.09912,5443.09912 0 0 1 -5327.31641,5566.26221A5443.09912,5443.09912 0 0 1 5558.88184,5566.26221A5443.09912,5443.09912 0 0 1 -5327.31641,5566.26221" stroke="#000000" fill="#000000"/><path id="svg_3" d="M-8289.14941,8626.30664A8422.47949,8422.47949 0 0 1 8555.80957,8626.30664A8422.47949,8422.47949 0 0 1 -8289.14941,8626.30664A8422.47949,8422.47949 0 0 1 8555.80957,8626.30664A8422.47949,8422.47949 0 0 1 -8289.14941,8626.30664" stroke="#000000" fill="#000000"/><path fill="#000000" stroke="#000000" d="M-5319.12646,5611.94922A5443.09912,5443.09912 0 0 1 5567.07178,5611.94922A5443.09912,5443.09912 0 0 1 -5319.12646,5611.94922A5443.09912,5443.09912 0 0 1 5567.07178,5611.94922A5443.09912,5443.09912 0 0 1 -5319.12646,5611.94922" id="svg_2"/><path fill="#000000" stroke="#000000" d="M-5308.82666,5642.94922A5443.09912,5443.09912 0 0 1 5577.37158,5642.94922A5443.09912,5443.09912 0 0 1 -5308.82666,5642.94922A5443.09912,5443.09912 0 0 1 5577.37158,5642.94922A5443.09912,5443.09912 0 0 1 -5308.82666,5642.94922" id="svg_1"/></defs><g mask="" style="pointer-events:all"><title style="pointer-events:inherit">Layer 1</title><g id="svg_19" fill-opacity="1" stroke-opacity="1" display="null" clip-id="670" stroke="null" transform=""><path fill="#f5eaea" stroke-width="1" d="M 12.875 131.696 L 20.6793 118.179 L 34.1957 110.375 L 49.8043 110.375 L 63.3207 118.179 L 71.125 131.696 L 71.125 147.304 L 63.3207 160.821 L 49.8043 168.625 L 34.1957 168.625 L 20.6793 160.821 L 12.875 147.304 L 12.875 131.696 Z" id="svg_20" stroke="#000000" transform=""/></g><g display="null" shapeVal="0" shapeId="0" lineHeight="1" font-style="normal" font-weight="normal" text-anchor="start" stroke="ffffff" fill="1f5600" font-family="Molot" font-size="25.41854" text="ADVENTURE" type="text" id="svg_23" transform="matrix(0.829746 0 0 0.829746 1.82975 0)" fill-opacity="1" stroke-opacity="1"><path d="M78.57045,191.16852C78.57045,191.16852 80.26504,191.16852 80.26504,191.16852C80.26504,191.16852 79.70018,185.87292 79.70018,185.87292C79.70018,185.87292 79.13531,185.87292 79.13531,185.87292C79.13531,185.87292 78.57044,191.16852 78.57044,191.16852M74.75762,181.42462C74.75762,181.42462 84.07786,181.42462 84.07786,181.42462C84.85454,187.4263 86.33731,192.72186 86.54913,199.2178C86.54913,199.2178 80.97112,199.2178 80.97112,199.2178C80.97112,199.2178 80.61808,195.61679 80.61808,195.61679C80.61808,195.61679 78.21741,195.61679 78.21741,195.61679C78.21741,195.61679 77.86437,199.2178 77.86437,199.2178C77.86437,199.2178 72.28636,199.2178 72.28636,199.2178C72.49818,192.65128 74.05155,187.4263 74.75763,181.42462C74.75763,181.42462 74.75763,181.42462 74.75763,181.42462M93.60992,185.87292C93.60992,185.87292 93.60992,194.7695 93.60992,194.7695C93.60992,194.7695 95.86937,194.7695 95.86937,194.7695C95.86937,194.7695 95.86937,185.87292 95.86937,185.87292C95.86937,185.87292 93.60992,185.87292 93.60992,185.87292C93.60992,185.87292 93.60992,185.87292 93.60992,185.87292M99.18794,199.2178C99.18794,199.2178 88.0319,199.2178 88.0319,199.2178C88.0319,199.2178 88.0319,181.42462 88.0319,181.42462C88.0319,181.42462 99.18794,181.42462 99.18794,181.42462C100.45888,181.42462 101.37678,182.34253 101.37678,183.61346C101.37678,183.61346 101.37678,197.02896 101.37678,197.02896C101.37678,198.2999 100.45889,199.2178 99.18794,199.2178C99.18794,199.2178 99.18794,199.2178 99.18794,199.2178M105.47203,199.2178C105.47203,199.2178 102.64772,182.90738 102.64772,182.90738C102.64772,182.90738 102.64772,181.42462 102.64772,181.42462C102.64772,181.42462 108.15513,181.42462 108.15513,181.42462C108.15513,181.42462 109.28486,194.7695 109.28486,194.7695C109.28486,194.7695 109.92033,194.7695 109.92033,194.7695C109.92033,194.7695 111.05005,181.42462 111.05005,181.42462C111.05005,181.42462 116.62806,181.42462 116.62806,181.42462C116.20441,187.84995 114.65105,193.14554 113.80376,199.2178C113.80376,199.2178 105.47203,199.2178 105.47203,199.2178C105.47203,199.2178 105.47203,199.2178 105.47203,199.2178M129.76112,199.2178C129.76112,199.2178 117.82841,199.2178 117.82841,199.2178C117.82841,199.2178 117.82841,181.42462 117.82841,181.42462C117.82841,181.42462 129.76112,181.42462 129.76112,181.42462C129.97295,183.40164 129.4081,184.67258 128.84322,185.87292C128.84322,185.87292 123.40641,185.87292 123.40641,185.87292C123.40641,185.87292 123.40641,187.84995 123.40641,187.84995C123.40641,187.84995 128.84322,187.84995 128.84322,187.84995C128.84322,187.84995 128.84322,192.2982 128.84322,192.2982C128.84322,192.2982 123.40641,192.2982 123.40641,192.2982C123.40641,192.2982 123.40641,194.76949 123.40641,194.76949C123.40641,194.76949 129.76112,194.76949 129.76112,194.76949C129.76112,194.76949 129.76112,199.21779 129.76112,199.21779C129.76112,199.21779 129.76112,199.21779 129.76112,199.21779M139.78743,189.68571C139.78743,189.68571 140.21109,189.68571 140.21109,189.68571C139.92865,186.93204 139.4344,184.53136 139.505,181.42461C139.505,181.42461 144.58878,181.42461 144.58878,181.42461C144.58878,181.42461 144.58878,199.21779 144.58878,199.21779C144.58878,199.21779 138.72832,199.21779 138.72832,199.21779C138.72832,199.21779 136.11581,191.02727 136.11581,191.02727C136.11581,191.02727 135.69217,191.02727 135.69217,191.02727C135.97461,193.71037 136.46886,196.18166 136.39825,199.21779C136.39825,199.21779 131.2439,199.21779 131.2439,199.21779C131.2439,199.21779 131.2439,181.42461 131.2439,181.42461C131.2439,181.42461 137.17494,181.42461 137.17494,181.42461C137.17494,181.42461 139.78743,189.68571 139.78743,189.68571M149.17827,185.87291C149.17827,185.87291 145.85971,185.87291 145.85971,185.87291C145.85971,185.87291 145.85971,181.42461 145.85971,181.42461C145.85971,181.42461 158.28668,181.42461 158.28668,181.42461C158.4985,183.40163 157.93364,184.67258 157.36877,185.87291C157.36877,185.87291 154.75629,185.87291 154.75629,185.87291C154.75629,185.87291 154.75629,199.21779 154.75629,199.21779C154.75629,199.21779 149.17825,199.21779 149.17825,199.21779C149.17825,199.21779 149.17825,185.87291 149.17825,185.87291C149.17825,185.87291 149.17825,185.87291 149.17825,185.87291M167.32446,181.42461C167.32446,181.42461 172.83189,181.42461 172.83189,181.42461C172.83189,181.42461 172.83189,199.21779 172.83189,199.21779C172.83189,199.21779 161.74646,199.21779 161.74646,199.21779C160.40491,199.21779 159.48701,198.29988 159.48701,197.02895C159.48701,197.02895 159.48701,181.42461 159.48701,181.42461C159.48701,181.42461 165.06503,181.42461 165.06503,181.42461C165.06503,181.42461 165.06503,194.76949 165.06503,194.76949C165.06503,194.76949 167.32448,194.76949 167.32448,194.76949C167.32448,194.76949 167.32448,181.42461 167.32448,181.42461C167.32448,181.42461 167.32448,181.42461 167.32448,181.42461M182.64638,185.87291C182.64638,185.87291 180.38693,185.87291 180.38693,185.87291C180.38693,185.87291 180.38693,189.26207 180.38693,189.26207C180.38693,189.26207 182.64638,189.26207 182.64638,189.26207C182.64638,189.26207 182.64638,185.87291 182.64638,185.87291C182.64638,185.87291 182.64638,185.87291 182.64638,185.87291M174.80891,181.42461C174.80891,181.42461 185.96494,181.42461 185.96494,181.42461C189.56593,181.56586 188.15378,187.21448 188.15378,190.60362C188.15378,191.45091 187.58893,192.43945 186.74162,192.65128C187.37711,194.7695 188.71864,196.18167 188.43622,199.2178C188.43622,199.2178 182.9994,199.2178 182.9994,199.2178C182.9994,199.2178 181.51665,193.71037 181.51665,193.71037C181.51665,193.71037 180.38695,193.71037 180.38695,193.71037C180.38695,193.71037 180.38695,199.2178 180.38695,199.2178C180.38695,199.2178 174.80891,199.2178 174.80891,199.2178C174.80891,199.2178 174.80891,181.42462 174.80891,181.42462C174.80891,181.42462 174.80891,181.42462 174.80891,181.42462M201.85172,199.2178C201.85172,199.2178 189.91899,199.2178 189.91899,199.2178C189.91899,199.2178 189.91899,181.42462 189.91899,181.42462C189.91899,181.42462 201.85172,181.42462 201.85172,181.42462C202.06354,183.40164 201.49867,184.67258 200.93381,185.87292C200.93381,185.87292 195.49699,185.87292 195.49699,185.87292C195.49699,185.87292 195.49699,187.84995 195.49699,187.84995C195.49699,187.84995 200.93381,187.84995 200.93381,187.84995C200.93381,187.84995 200.93381,192.2982 200.93381,192.2982C200.93381,192.2982 195.49699,192.2982 195.49699,192.2982C195.49699,192.2982 195.49699,194.76949 195.49699,194.76949C195.49699,194.76949 201.85172,194.76949 201.85172,194.76949C201.85172,194.76949 201.85172,199.21779 201.85172,199.21779C201.85172,199.21779 201.85172,199.21779 201.85172,199.21779" stroke="#ffffff" fill="#1f5600" id="svg_24"/></g><g id="svg_21" display="null" shapeVal="0" shapeId="0" lineHeight="1" font-style="normal" font-weight="normal" text-anchor="start" stroke="ffffff" fill="7f3f00" font-family="Molot" font-size="28.60572" text="WORLD" type="text" transform="matrix(0.829746, 0, 0, 0.829746, 1.82975, 0)" style="pointer-events:inherit"><path id="svg_22" d="M90.46972,149.42545C90.46972,149.42545 95.71431,149.42545 95.71431,149.42545C95.71431,149.42545 97.22412,159.04056 97.22412,159.04056C97.22412,159.04056 97.78036,159.04056 97.78036,159.04056C97.78036,159.04056 97.78036,149.42545 97.78036,149.42545C97.78036,149.42545 103.81959,149.42545 103.81959,149.42545C103.66067,156.57718 102.38925,162.69588 101.833,169.45029C101.833,169.45029 94.8402,169.45029 94.8402,169.45029C94.8402,169.45029 93.25094,161.58337 93.25094,161.58337C93.25094,161.58337 92.85362,161.58337 92.85362,161.58337C92.85362,161.58337 91.34382,169.45029 91.34382,169.45029C91.34382,169.45029 84.35102,169.45029 84.35102,169.45029C84.35102,169.45029 82.28497,151.88882 82.28497,151.88882C82.28497,151.88882 82.28497,149.42545 82.28497,149.42545C82.28497,149.42545 88.40366,149.42545 88.40366,149.42545C88.40366,149.42545 88.40366,159.04054 88.40366,159.04054C88.40366,159.04054 88.88044,159.04054 88.88044,159.04054C88.88044,159.04054 90.46971,149.42545 90.46971,149.42545M114.30878,154.43166C114.30878,154.43166 111.76595,154.43166 111.76595,154.43166C111.76595,154.43166 111.76595,164.44406 111.76595,164.44406C111.76595,164.44406 114.30878,164.44406 114.30878,164.44406C114.30878,164.44406 114.30878,154.43166 114.30878,154.43166C114.30878,154.43166 114.30878,154.43166 114.30878,154.43166M118.04357,169.45029C118.04357,169.45029 108.03116,169.45029 108.03116,169.45029C106.52136,169.45029 105.48833,168.41724 105.48833,166.98689C105.48833,166.98689 105.48833,151.88882 105.48833,151.88882C105.48833,150.45848 106.52136,149.42545 108.03116,149.42545C108.03116,149.42545 118.04357,149.42545 118.04357,149.42545C119.55338,149.42545 120.50695,150.45848 120.50695,151.88882C120.50695,151.88882 120.50695,166.98689 120.50695,166.98689C120.50695,168.41724 119.55338,169.45029 118.04357,169.45029C118.04357,169.45029 118.04357,169.45029 118.04357,169.45029M131.55237,154.43166C131.55237,154.43166 129.00954,154.43166 129.00954,154.43166C129.00954,154.43166 129.00954,158.2459 129.00954,158.2459C129.00954,158.2459 131.55237,158.2459 131.55237,158.2459C131.55237,158.2459 131.55237,154.43166 131.55237,154.43166C131.55237,154.43166 131.55237,154.43166 131.55237,154.43166M122.73192,149.42545C122.73192,149.42545 135.28716,149.42545 135.28716,149.42545C139.3398,149.58438 137.75053,155.94147 137.75053,159.75572C137.75053,160.70929 137.11482,161.82178 136.16129,162.06017C136.87643,164.44406 138.38626,166.03334 138.06841,169.45029C138.06841,169.45029 131.94971,169.45029 131.94971,169.45029C131.94971,169.45029 130.28098,163.25211 130.28098,163.25211C130.28098,163.25211 129.00955,163.25211 129.00955,163.25211C129.00955,163.25211 129.00955,169.45029 129.00955,169.45029C129.00955,169.45029 122.73193,169.45029 122.73193,169.45029C122.73193,169.45029 122.73193,149.42545 122.73193,149.42545C122.73193,149.42545 122.73193,149.42545 122.73193,149.42545M139.73714,169.45029C139.73714,169.45029 139.73714,149.42545 139.73714,149.42545C139.73714,149.42545 146.01476,149.42545 146.01476,149.42545C146.01476,149.42545 146.01476,164.44406 146.01476,164.44406C146.01476,164.44406 152.29237,164.44406 152.29237,164.44406C152.29237,164.44406 152.29237,169.45029 152.29237,169.45029C152.29237,169.45029 139.73714,169.45029 139.73714,169.45029C139.73714,169.45029 139.73714,169.45029 139.73714,169.45029M159.92088,154.43166C159.92088,154.43166 159.92088,164.44408 159.92088,164.44408C159.92088,164.44408 162.46371,164.44408 162.46371,164.44408C162.46371,164.44408 162.46371,154.43166 162.46371,154.43166C162.46371,154.43166 159.92088,154.43166 159.92088,154.43166C159.92088,154.43166 159.92088,154.43166 159.92088,154.43166M166.19852,169.45029C166.19852,169.45029 153.64326,169.45029 153.64326,169.45029C153.64326,169.45029 153.64326,149.42546 153.64326,149.42546C153.64326,149.42546 166.19852,149.42546 166.19852,149.42546C167.62885,149.42546 168.66187,150.4585 168.66187,151.88884C168.66187,151.88884 168.66187,166.98692 168.66187,166.98692C168.66187,168.41727 167.62883,169.4503 166.19852,169.4503C166.19852,169.4503 166.19852,169.4503 166.19852,169.4503" stroke="#ffffff" fill="#7f3f00" style="pointer-events:inherit"/></g><g id="svg_12" display="null" clip-id="350" fill-opacity="1" transform=""><g id="svg_11" transform="matrix(0.515685 0 0 0.515685 0 1.68486)"><g id="svg_13" transform=""><path fill="#7f3f00" d="M 92.1848 300.358 C 90.6608 300.358 89.4328 299.585 88.7378 299.019 C 87.9018 302.623 86.7358 305.949 85.5397 308.817 C 86.2288 309.456 87.5488 310.418 89.3118 310.418 C 91.1028 310.418 93.2077 309.758 94.3777 309.333 C 94.6808 306.13 94.9478 302.507 95.0798 298.752 C 94.5838 299.451 93.6548 300.358 92.1848 300.358 Z M 85.4048 309.131 C 82.8627 315.129 80.2188 319.039 80.2188 319.039 S 82.8497 323.352 86.4398 323.59 C 90.0268 323.829 92.8988 321.195 92.8988 321.195 S 93.6978 316.387 94.3477 309.632 C 93.2657 310.305 91.3588 311.254 89.1918 311.254 C 87.0298 311.256 85.9248 310.016 85.4048 309.131 Z M 92.8988 288.982 C 93.9428 288.749 94.5888 288.152 94.9808 287.596 C 94.6638 282.458 93.8948 277.642 92.4297 273.884 C 92.1707 274.546 91.6338 275.407 90.5048 275.69 C 89.0608 276.049 88.1448 275.776 87.7807 275.619 C 89.0847 279.531 90.0268 283.927 90.0268 288.624 C 90.0268 288.736 90.0137 288.85 90.0117 288.961 C 90.4048 289.107 91.3268 289.332 92.8988 288.982 Z M 115.534 260.004 C 106.93 253.048 91.8798 252.553 90.0588 252.553 C 89.5148 252.553 87.7028 252.637 85.1107 253.026 C 87.1257 252.384 90.0328 251.725 93.5328 251.725 C 100.316 251.725 108.255 251.725 108.255 251.725 S 107.925 250.731 106.436 250.235 C 104.948 249.737 103.956 249.737 103.956 249.737 S 104.452 249.075 105.94 249.075 C 107.429 249.075 110.077 249.573 110.077 249.573 S 109.249 248.083 107.927 247.917 C 106.603 247.751 104.948 247.751 104.948 247.751 S 107.263 246.757 109.249 246.757 C 111.234 246.757 116.197 247.255 116.197 247.255 S 115.702 246.095 114.544 245.765 C 113.386 245.434 112.393 245.434 112.393 245.434 S 114.048 244.44 117.687 244.44 S 126.289 246.427 126.289 246.427 S 117.687 237.154 102.635 242.452 C 88.6557 247.373 85.0957 250.576 84.6578 251.008 C 84.9428 250.716 89.0827 246.511 94.0328 244.276 C 99.1618 241.958 106.768 239.14 106.768 239.14 L 102.469 238.977 C 102.469 238.977 103.625 237.982 105.445 237.487 C 107.265 236.988 108.921 236.16 108.921 236.16 S 108.259 235.664 106.606 235.83 C 104.952 235.994 103.793 236.326 103.793 236.326 S 105.613 234.836 107.929 234.34 C 110.242 233.842 112.397 233.842 112.397 233.842 S 111.899 232.353 109.915 232.353 S 106.606 232.353 106.606 232.353 S 107.597 231.029 111.402 229.871 C 115.208 228.711 120.503 228.215 120.503 228.215 S 106.276 224.238 98.1678 231.525 C 90.0638 238.813 83.7767 248.416 83.7767 248.416 S 85.2657 244.277 85.0997 241.131 S 83.6118 235.334 83.6118 235.334 L 82.2878 239.807 C 82.2878 239.807 82.4538 238.481 81.7917 237.323 C 81.1298 236.163 79.8067 233.347 79.8067 233.347 S 81.1298 236.66 79.8067 238.481 C 78.4838 240.303 78.6497 240.965 78.6497 240.965 L 76.4998 232.024 L 77.1618 238.98 C 77.1618 238.98 76.4998 235.17 74.0168 232.355 C 71.5368 229.541 68.0618 228.215 68.0618 228.215 S 71.0398 230.035 72.3628 234.506 C 73.6868 238.98 74.3488 241.298 74.3488 241.298 L 68.0618 237.323 L 73.0248 241.96 L 65.2487 239.476 L 75.9988 245.928 L 68.7207 244.771 L 78.1328 251.403 C 74.9148 250.007 69.5267 248.803 60.9448 249.738 C 44.2378 251.559 42.4198 264.641 42.4198 264.641 S 42.9158 263.979 45.7288 261.991 C 48.5388 260.005 51.5177 259.343 51.5177 259.343 S 51.3508 259.905 51.3508 261.165 C 51.3508 262.323 52.1798 263.647 52.1798 263.647 S 53.5008 261.165 53.9988 260.169 C 54.4958 259.175 56.9767 257.686 56.9767 257.686 S 56.4808 258.347 56.1508 259.175 C 55.8178 260.003 56.8108 260.997 56.8108 260.997 S 58.3008 258.845 60.1188 257.518 C 61.9388 256.194 64.5858 255.199 64.5858 255.199 S 63.7598 256.36 62.9318 257.518 C 62.1058 258.677 63.0978 259.835 63.0978 259.835 S 65.9108 258.016 69.3848 256.689 C 70.9008 256.111 73.5548 255.563 76.0638 255.131 C 70.9048 256.775 65.0238 259.444 59.6238 263.81 C 46.7198 274.245 53.9988 286.5 53.9988 286.5 S 54.3288 283.521 54.9908 281.367 C 55.6518 279.214 56.8088 278.054 56.8088 278.054 S 57.1408 278.716 57.8028 279.544 C 58.4618 280.372 60.1168 280.704 60.1168 280.704 S 59.4558 278.716 60.1168 276.562 C 60.7788 274.41 62.1028 272.587 62.1028 272.587 S 62.1028 273.581 62.2688 274.575 C 62.4328 275.57 63.7568 276.066 63.7568 276.066 S 63.4248 272.919 64.0867 271.262 S 66.0728 268.449 66.0728 268.449 L 67.3948 270.435 L 69.0488 264.972 L 70.7028 266.461 C 70.7028 266.461 71.5307 262.486 73.5137 260.664 C 75.2038 259.116 75.9608 257.808 79.4978 256.432 C 77.7598 258.262 75.0938 261.56 71.6948 267.287 C 65.4098 277.889 68.0548 288.815 68.0548 288.815 L 73.0188 277.886 L 74.8388 282.522 L 75.9967 270.434 L 78.1468 273.083 L 79.1387 268.446 L 81.1228 271.093 L 82.1817 263.801 C 83.9428 266.601 86.1298 270.688 87.7568 275.54 C 88.1048 275.574 89.2057 275.631 90.6318 275.058 C 91.5508 274.689 92.0508 274.111 92.3368 273.662 C 91.9338 272.662 91.4948 271.722 90.9837 270.895 C 88.0078 266.075 86.0308 262.773 84.7117 260.507 L 85.0948 258.342 L 92.5397 270.597 L 93.3638 266.457 L 99.4838 273.908 L 98.3278 268.939 L 105.44 278.046 C 105.44 278.046 106.102 277.217 106.268 276.227 C 106.432 275.232 105.772 273.576 105.772 273.576 L 112.223 281.36 C 112.223 281.36 112.884 272.418 102.297 262.812 C 97.7897 258.725 89.3237 256.185 84.8088 255.057 C 88.6188 254.676 91.8758 255.914 97.4998 258.012 C 104.613 260.659 110.07 267.616 110.07 267.616 S 110.07 265.794 110.07 264.802 C 110.07 263.809 108.251 262.485 108.251 262.485 S 110.07 263.147 111.727 264.141 C 113.38 265.132 115.199 266.622 115.199 266.622 L 113.546 262.813 C 113.546 262.813 116.525 265.13 118.509 266.292 C 120.495 267.45 124.133 267.949 124.133 267.949 S 124.134 266.96 115.534 260.004 Z M 92.6598 289.821 C 91.0588 289.98 90.3237 289.502 90.0098 289.165 C 89.9638 292.489 89.4908 295.725 88.7937 298.78 C 89.5638 299.134 90.8497 299.64 91.9428 299.64 C 93.1328 299.64 94.4337 298.798 95.0908 298.309 C 95.2008 294.9 95.2008 291.402 95.0068 288.018 C 94.5948 288.837 93.8758 289.698 92.6598 289.821 Z" id="svg_14" stroke-width="0" transform=""/></g></g></g></g></svg>