<svg xmlns="http://www.w3.org/2000/svg" xmlns:se="http://svg-edit.googlecode.com" xmlns:xlink="http://www.w3.org/1999/xlink" id="svgcontent" width="205.65" height="395.85" x="0" y="0" viewBox="0 0 205.65 395.85" overflow="hidden"><g mask="" style="pointer-events:all"><title style="pointer-events:inherit">Layer 1</title><g type="text" text="FIDELITY" font-size="42.21298778561419" font-family="Belligerent Madness" fill="ff0000" text-anchor="start" font-weight="normal" font-style="normal" lineHeight="1" shapeId="2" shapeVal="10" fill-opacity="1" display="null" elemBBoxWidth="174.2469482421875" stroke-opacity="1" stroke-dasharray="none" stroke="ull" id="svg_3" style="pointer-events:inherit"><path id="svg_31" fill="#ff0000" stroke="#ull" stroke-width="0" d="M18.93912002746582,154.80690850463867 C21.04916002746582,147.05226850463868 19.75950002746582,133.5310985046387 20.22878002746582,122.46843850463867 C19.64305002746582,123.01999850463868 18.46984002746582,126.36830850463868 18.11874002746582,126.21380850463868 C18.23519002746582,122.01665850463867 19.87769002746582,119.20236850463867 20.81626002746582,116.12834850463867 C20.11233002746582,116.95891850463867 19.05731002746582,119.49252850463867 18.35338002746582,119.10755850463867 C19.52486002746582,112.46671850463868 21.98773002746582,108.30163850463867 23.86487002746582,103.93485850463867 C23.74668002746582,105.10672850463868 23.63022002746582,106.57341850463868 23.63022002746582,107.73637850463867 C27.264570027465822,103.61803850463866 33.83107002746582,103.28715850463867 37.700060027465824,99.33714850463866 C38.75682002746582,100.65119850463867 40.86686002746582,103.34086850463868 38.63863002746582,105.32554850463868 C34.76964002746582,108.93295850463868 29.96209002746582,112.48229850463868 25.623810027465822,116.40644850463867 C25.623810027465822,116.40644850463867 25.50562002746582,128.26204850463867 25.50562002746582,128.26204850463867 C25.50562002746582,128.26204850463867 25.623810027465822,127.63894850463868 25.623810027465822,127.63894850463868 C25.623810027465822,127.63894850463868 25.97491002746582,133.60082850463868 25.97491002746582,133.60082850463868 C25.97491002746582,133.60082850463868 31.01711002746582,126.00829850463867 31.01711002746582,126.00829850463867 C31.01711002746582,126.00829850463867 30.19673002746582,129.0058385046387 30.19673002746582,129.0058385046387 C32.190320027465816,126.93534850463867 34.18217002746582,125.20626850463867 36.41040002746582,124.14401850463867 C36.17576002746582,130.30270850463867 30.07854002746582,137.89723850463866 26.56064002746582,141.80641850463866 C26.67883002746582,147.78268850463866 27.73385002746582,156.07772850463869 25.74027002746582,161.49044850463866 C25.74027002746582,161.49044850463866 26.32600002746582,169.17081850463867 26.32600002746582,169.17081850463867 C26.56064002746582,171.64309850463866 25.03634002746582,177.87171850463866 23.63022002746582,179.54020850463868 C23.16094002746582,178.14708850463867 22.92630002746582,175.52776850463866 22.691660027465822,172.88467850463869 C22.22237002746582,174.97661850463868 21.75309002746582,177.69564850463868 20.81626002746582,178.97296850463866 C20.81626002746582,169.82068850463867 20.69807002746582,161.09990850463868 20.11233002746582,154.00762850463866 C19.75950002746582,154.6520685046387 19.05731002746582,155.63716850463868 18.93912002746582,154.80690850463867 C18.93912002746582,154.80690850463867 18.93912002746582,154.80690850463867 18.93912002746582,154.80690850463867 M18.82267002746582,118.94485850463867 C18.82267002746582,118.94485850463867 18.70448002746582,119.30244850463868 18.70448002746582,119.30244850463868 C18.70448002746582,119.30244850463868 18.82267002746582,118.94485850463867 18.82267002746582,118.94485850463867 M19.40841002746582,118.11808850463868 C19.40841002746582,118.11808850463868 19.29022002746582,118.47102850463867 19.29022002746582,118.47102850463867 C19.29022002746582,118.47102850463867 19.40841002746582,118.11808850463868 19.40841002746582,118.11808850463868 M53.530580027465824,140.87057850463867 C48.84121002746582,144.59533850463868 46.26015002746582,150.35884850463867 42.97690002746582,155.89771850463868 C42.860450027465816,152.52561850463866 44.97049002746582,148.65995850463867 46.26015002746582,145.9187085046387 C45.90906002746582,132.43602850463867 45.79087002746582,118.10047850463867 46.72944002746582,104.93732850463867 C44.85404002746582,105.56614850463868 43.095090027465815,106.82781850463867 41.10150002746582,107.56951850463867 C41.68724002746582,100.53403850463867 49.30876002746582,99.70705850463867 53.88341002746582,100.27089850463867 C53.76522002746582,100.44294850463868 53.29594002746582,100.79913850463868 53.76522002746582,100.77832850463867 C53.76522002746582,100.77832850463867 55.87526002746582,100.04237850463866 55.87526002746582,100.04237850463866 C55.87526002746582,100.04237850463866 55.75881002746582,100.20719850463867 55.75881002746582,100.20719850463867 C56.22809002746582,100.19162850463867 56.93202002746582,99.53641850463868 57.166660027465824,99.84625850463867 C55.52417002746582,101.67505850463867 55.05488002746582,104.15877850463866 52.59201002746582,104.60159850463867 C52.35737002746582,115.30277850463867 51.18590002746582,128.17422850463868 51.88982002746582,137.50972850463867 C51.88982002746582,138.03057850463867 51.53699002746582,138.64372850463866 51.42054002746582,139.0823185046387 C51.42054002746582,139.0823185046387 55.99345002746582,135.0961885046387 55.99345002746582,135.0961885046387 C56.57919002746582,136.28761850463866 54.58560002746582,139.3781585046387 53.530580027465824,140.87057850463867 C53.530580027465824,140.87057850463867 53.530580027465824,140.87057850463867 53.530580027465824,140.87057850463867 M45.32332002746582,149.11583850463867 C44.85404002746582,149.16572850463868 44.15011002746582,151.44314850463866 43.915470027465815,152.48236850463866 C44.61939002746582,151.57797850463868 44.85404002746582,150.15644850463866 45.32332002746582,149.11583850463867 C45.32332002746582,149.11583850463867 45.32332002746582,149.11583850463867 45.32332002746582,149.11583850463867 M63.263880027465824,129.63924850463866 C62.91105002746582,121.63436850463867 63.38033002746582,112.87960850463867 62.20886002746582,105.30910850463867 C60.68282002746582,105.50477850463867 59.98063002746582,106.79179850463868 58.57278002746582,107.16605850463867 C60.91746002746582,97.84303850463867 77.68655002746581,101.07312850463867 80.14942002746582,105.44249850463868 C86.48128002746581,115.37517850463867 69.47755002746581,126.88149850463867 58.92387002746582,137.25810850463867 C58.22168002746582,138.07673850463868 57.987040027465824,138.09507850463868 58.33814002746582,136.91305850463868 C59.15851002746582,133.90557850463867 61.27029002746582,131.6733685046387 63.263880027465824,129.63924850463866 C63.263880027465824,129.63924850463866 63.263880027465824,129.63924850463866 63.263880027465824,129.63924850463866 M75.10722002746581,119.18211850463867 C75.92760002746581,114.16153850463867 74.40330002746582,110.25653850463867 73.23009002746582,106.70218850463867 C73.23009002746582,106.70218850463867 73.93401002746582,105.90699850463866 73.93401002746582,105.90699850463866 C71.94042002746582,105.06976850463867 69.59574002746582,104.58599850463867 67.01642002746581,104.60685850463867 C67.48396002746583,110.16099850463867 67.24932002746581,116.23027850463868 68.18789002746581,120.96022850463868 C68.54072002746582,122.48529850463868 68.65717002746581,123.58576850463868 68.42253002746583,125.22724850463867 C70.65076002746582,123.47770850463867 73.23009002746582,121.12087850463867 75.10722002746581,119.18211850463867 C75.10722002746581,119.18211850463867 75.10722002746581,119.18211850463867 75.10722002746581,119.18211850463867 M89.76453002746582,109.31110850463867 C91.99276002746582,108.26056850463867 95.04137002746582,107.22524850463867 98.08998002746581,106.90224850463868 C99.14500002746583,107.84294850463867 95.97820002746582,108.97810850463867 95.50892002746582,109.82148850463867 C93.51707002746582,110.25129850463867 91.28884002746582,110.65251850463868 89.99917002746582,111.74153850463867 C89.99917002746582,111.74153850463867 90.35027002746583,118.56746850463867 90.35027002746583,118.56746850463867 C93.74997002746582,117.45873850463867 98.08998002746581,115.73261850463867 102.31006002746582,116.22166850463867 C102.07542002746582,117.63831850463868 100.90395002746583,117.94994850463867 100.20002002746583,118.96097850463867 C100.20002002746583,118.96097850463867 100.20002002746583,118.69557850463868 100.20002002746583,118.69557850463868 C99.84893002746583,118.98329850463867 99.02681002746581,119.75341850463867 98.55927002746581,119.79275850463867 C95.62711002746582,118.39693850463867 89.06061002746583,122.34552850463866 85.54271002746582,123.78030850463867 C84.60414002746582,124.16959850463867 84.36950002746582,125.75075850463867 83.19803002746582,125.54801850463868 C83.19803002746582,125.54801850463868 83.07984002746582,104.55555850463867 83.07984002746582,104.55555850463867 C83.31448002746582,104.33335850463868 84.25305002746582,104.16274850463867 83.90022002746582,103.78428850463868 C83.90022002746582,103.78428850463868 83.19803002746582,104.03619850463866 83.19803002746582,104.03619850463866 C84.36950002746582,102.94922850463867 87.77094002746583,99.87743850463866 89.41170002746583,101.08758850463867 C93.16424002746582,100.17474850463867 97.85534002746581,100.39302850463866 102.54471002746583,100.36585850463868 C102.31006002746582,100.71887850463867 101.02040002746583,101.25455850463868 102.31006002746582,101.24744850463867 C101.25504002746582,104.87162850463866 93.63352002746582,102.91570850463867 89.99917002746582,105.13246850463867 C89.99917002746582,105.13246850463867 90.35027002746583,104.73391850463867 90.35027002746583,104.73391850463867 C90.35027002746583,104.73391850463867 89.17706002746581,104.99594850463868 89.17706002746581,104.99594850463868 C89.17706002746581,104.99594850463868 89.76453002746582,109.31110850463867 89.76453002746582,109.31110850463867 M102.19361002746582,101.24794850463867 C102.19361002746582,101.24794850463867 102.19361002746582,101.24794850463867 102.19361002746582,101.24794850463867 C102.19361002746582,101.24794850463867 102.19361002746582,101.24794850463867 102.19361002746582,101.24794850463867 C102.19361002746582,101.24794850463867 102.19361002746582,101.24794850463867 102.19361002746582,101.24794850463867 M120.60346002746581,122.82803850463867 C114.27160002746582,121.52935850463867 111.69227002746582,123.15232850463867 106.18079002746582,122.55108850463867 C105.24222002746582,122.26693850463867 106.53188002746582,121.41751850463868 106.76652002746582,121.07370850463867 C105.94615002746582,121.84065850463867 104.65648002746582,121.38231850463868 105.00758002746582,120.15333850463867 C105.00758002746582,120.15333850463867 105.00758002746582,119.27369850463867 105.00758002746582,119.27369850463867 C104.53829002746582,119.44727850463867 104.06901002746582,119.88813850463868 103.48327002746582,119.71802850463867 C103.59973002746582,116.46175850463867 105.82796002746582,114.18151850463867 106.53188002746582,111.37652850463867 C107.23581002746582,110.86306850463868 107.47045002746582,109.89855850463867 107.47045002746582,108.75156850463867 C107.00117002746582,108.91833850463867 106.88472002746582,109.09246850463867 106.41543002746582,108.90850850463868 C107.23581002746582,106.71818850463868 106.29724002746582,103.35960850463867 107.00117002746582,101.69014850463867 C107.00117002746582,101.69014850463867 106.65007002746582,101.77645850463867 106.65007002746582,101.77645850463867 C107.82155002746582,101.07771850463868 108.05619002746582,99.48902850463867 110.16797002746583,99.40728850463867 C110.40087002746581,99.94257850463867 109.93332002746583,100.38406850463866 109.81513002746583,100.82758850463867 C110.51906002746583,100.38870850463867 111.45763002746583,100.03917850463867 111.92517002746582,100.93992850463867 C110.98834002746582,101.82135850463868 112.04336002746582,104.17225850463868 110.98834002746582,105.48173850463867 C111.22299002746583,105.48941850463868 111.33944002746583,105.49332850463867 111.33944002746583,105.67191850463867 C110.87015002746583,109.76092850463867 110.75370002746583,115.10586850463868 111.22299002746583,119.07422850463867 C114.62269002746582,118.30300850463867 120.13417002746581,120.79823850463868 123.88671002746582,120.26130850463868 C123.88671002746582,120.26130850463868 123.76852002746583,120.42924850463868 123.76852002746583,120.42924850463868 C125.76211002746582,120.27115850463868 128.8107100274658,121.83517850463868 126.23139002746582,122.76741850463867 C126.23139002746582,122.76741850463867 125.76211002746582,122.21016850463867 125.76211002746582,122.21016850463867 C124.70709002746582,123.20176850463868 123.06633002746582,123.50402850463867 120.60346002746581,122.82803850463867 C120.60346002746581,122.82803850463867 120.60346002746581,122.82803850463867 120.60346002746581,122.82803850463867 M141.00689002746583,131.05664850463867 C136.31579002746582,128.42440850463868 133.73646002746582,129.2570985046387 130.45321002746581,128.93846850463868 C130.33502002746582,127.03594850463867 132.44680002746583,126.95504850463867 133.73646002746582,126.62112850463868 C133.3836300274658,118.37299850463867 133.26718002746583,109.91864850463867 134.20574002746582,102.35517850463867 C132.3286100274658,102.46504850463867 130.56966002746583,102.90439850463866 128.57607002746582,102.98882850463866 C129.16355002746582,99.49856850463867 136.78507002746582,99.27245850463868 141.35798002746583,99.86269850463867 C141.2415300274658,99.98997850463867 140.77225002746582,100.23507850463866 141.2415300274658,100.25002850463866 C141.2415300274658,100.25002850463866 143.3515700274658,99.77967850463867 143.3515700274658,99.77967850463867 C143.3515700274658,99.77967850463867 143.23512002746583,99.91135850463867 143.23512002746583,99.91135850463867 C143.7026700274658,99.92384850463867 144.40659002746582,99.39266850463866 144.64123002746584,99.67307850463868 C143.0004800274658,101.11218850463868 142.5311900274658,103.08495850463868 140.0683200274658,103.01504850463867 C139.83368002746582,110.86091850463868 138.6604700274658,119.43869850463867 139.36439002746582,126.74049850463867 C139.36439002746582,127.11782850463867 139.01330002746582,127.19520850463867 138.89511002746582,127.38658850463867 C138.89511002746582,127.38658850463867 143.46802002746583,129.26679850463867 143.46802002746583,129.26679850463867 C144.05550002746583,130.96097850463866 142.0619100274658,131.14156850463866 141.00689002746583,131.05664850463867 C141.00689002746583,131.05664850463867 141.00689002746583,131.05664850463867 141.00689002746583,131.05664850463867 M132.79789002746583,127.56289850463867 C132.3286100274658,127.12715850463867 131.62642002746583,127.70697850463867 131.3917800274658,128.04488850463866 C132.09397002746582,128.2521685046387 132.3286100274658,127.68755850463867 132.79789002746583,127.56289850463867 C132.79789002746583,127.56289850463867 132.79789002746583,127.56289850463867 132.79789002746583,127.56289850463867 M145.69626002746583,105.61126850463867 C147.8080300274658,102.96698850463866 150.03453002746582,100.10779850463868 154.37454002746583,100.08458850463867 C154.37454002746583,100.08458850463867 153.90525002746583,101.05377850463867 153.90525002746583,101.05377850463867 C153.90525002746583,101.05377850463867 166.9200700274658,101.77887850463867 166.9200700274658,101.77887850463867 C166.33433002746582,105.67350850463868 174.42514002746583,100.35302850463867 171.84581002746583,107.82301850463867 C170.43796002746583,111.60135850463867 168.3279200274658,109.59626850463867 166.33433002746582,110.63940850463867 C166.33433002746582,110.63940850463867 166.45252002746582,110.66624850463867 166.45252002746582,110.45917850463867 C165.39576002746583,109.81830850463867 163.28572002746583,108.59648850463867 161.29213002746582,108.60053850463868 C159.65138002746582,119.06600850463867 161.52677002746583,133.42396850463865 162.34715002746583,144.72263850463867 C161.17568002746583,145.9726285046387 160.00247002746582,151.00331850463868 158.0088800274658,148.36254850463865 C156.2499300274658,136.80327850463868 156.95386002746582,124.12155850463867 156.95386002746582,111.97059850463867 C156.95386002746582,110.40839850463867 158.24352002746582,109.27936850463867 158.71281002746582,108.11966850463867 C158.71281002746582,108.11966850463867 146.8694700274658,107.78059850463868 146.8694700274658,107.78059850463868 C146.8694700274658,106.77371850463868 147.57339002746582,106.29928850463867 147.92449002746582,105.76355850463867 C147.33875002746584,105.83028850463867 146.98592002746582,106.21483850463866 146.16554002746582,106.09884850463868 C145.69626002746583,106.03351850463866 145.5798000274658,105.87710850463867 145.69626002746583,105.61126850463867 C145.69626002746583,105.61126850463867 145.69626002746583,105.61126850463867 145.69626002746583,105.61126850463867 M191.77996002746582,164.70083850463868 C192.36570002746583,172.56761850463866 191.1942300274658,182.71181850463867 188.4967100274658,179.57748850463867 C187.0888600274658,173.45172850463868 185.4481000274658,179.53554850463868 183.92380002746583,178.84472850463868 C181.5773800274658,179.97809850463867 175.71480002746583,179.76154850463868 173.95585002746583,167.69485850463866 C174.89442002746583,159.92461850463866 181.22628002746583,174.59768850463868 184.50953002746581,172.20307850463868 C188.8478000274658,175.42438850463867 185.79920002746582,155.6671085046387 185.79920002746582,145.39458850463868 C185.79920002746582,145.39458850463868 185.32991002746581,145.88929850463867 185.32991002746581,145.88929850463867 C180.17126002746582,134.08392850463866 178.06122002746582,118.42141850463867 173.48657002746583,109.05233850463867 C173.8394000274658,105.55787850463867 175.71480002746583,103.59260850463866 177.2391000274658,102.97794850463868 C179.5855300274658,112.91449850463867 182.98523002746583,122.19336850463867 186.03384002746583,132.61842850463867 C187.79278002746582,123.94510850463867 184.50953002746581,105.03580850463868 189.3170900274658,103.10920850463867 C189.3170900274658,120.56256850463868 190.2556600274658,146.88050850463867 191.31068002746582,165.47221850463868 C191.31068002746582,165.47221850463868 191.77996002746582,164.70083850463868 191.77996002746582,164.70083850463868 " style="pointer-events:inherit"/><rect id="svg_32" x="18.118741989135742" y="97.84303665161133" width="174.2469482421875" height="84.8687744140625" fill="#000000" opacity="0" style="pointer-events:inherit"/></g><g id="svg_8" type="text" text="HIGH" font-size="36.60154819043196" font-family="Belligerent Madness" fill="ff0000" text-anchor="start" font-weight="normal" font-style="normal" lineHeight="1" shapeId="2" shapeVal="5" fill-opacity="1" display="null" elemBBoxWidth="84.79466247558594" stroke-opacity="1" stroke-dasharray="none" stroke="ull" style="pointer-events:inherit"><path id="svg_33" fill="#ff0000" stroke-width="0" d="M50.57276,81.6886C50.67467,76.07487 50.26787,69.35807 53.62246,67.68877C53.62246,67.68877 53.72437,68.7741 53.72437,68.7741C53.72437,68.7741 54.74094,68.01374 54.74094,68.01374C54.63988,77.61424 53.92819,89.34599 55.85942,95.44105C55.45263,96.74239 53.41949,101.17383 53.1146,98.47167C53.01269,97.43999 52.70781,96.04721 51.89421,96.2271C50.67467,94.62233 50.77573,89.2503 50.36894,85.81204C50.67467,85.54319 50.97955,84.89176 50.67467,84.50573C47.929,87.25628 43.1502,88.46645 39.99859,92.14622C40.1005,96.62766 39.08393,104.32843 40.6092,105.55302C40.50729,107.48768 39.38881,114.49846 37.86354,114.07658C37.45674,115.11066 37.04995,115.79748 36.94888,115.37668C35.3217,104.12729 35.11872,84.63541 37.25377,71.9101C37.66056,69.88275 38.47331,68.05797 39.79561,67.49638C40.30347,69.32693 40.71027,66.14634 41.62577,66.47801C41.93066,67.92513 40.20241,70.00591 41.42195,71.03902C39.49072,74.00486 40.20241,82.26993 39.99859,88.26193C42.84532,85.02104 46.50564,82.82993 50.47085,81.46456C50.26787,81.66772 50.16596,81.83578 50.57276,81.6886C50.57276,81.6886 50.57276,81.6886 50.57276,81.6886M67.65398,90.24787C63.58686,91.52451 61.34991,94.34621 58.50318,97.07702C58.40127,95.2771 60.23143,93.33128 61.34991,91.96339C61.04502,84.70608 60.94311,77.01673 61.7567,69.9739C60.12952,70.28984 58.60508,70.94841 56.87599,71.33371C57.3847,67.59437 63.99366,67.1704 67.95887,67.5102C67.85696,67.60554 67.45016,67.80013 67.85696,67.7938C67.85696,67.7938 69.68712,67.39928 69.68712,67.39928C69.68712,67.39928 69.58521,67.4926 69.58521,67.4926C69.99201,67.48872 70.60178,67.11699 70.8056,67.29875C69.38223,68.32779 68.97544,69.7299 66.84039,69.906C66.63657,75.83728 65.62,82.83995 66.22977,88.08274C66.22977,88.37061 65.92489,88.65321 65.82382,88.8769C65.82382,88.8769 69.78903,87.50308 69.78903,87.50308C70.29689,88.32447 68.56864,89.63063 67.65398,90.24787C67.65398,90.24787 67.65398,90.24787 67.65398,90.24787M60.53631,93.6011C60.12952,93.59379 59.51974,94.76457 59.31677,95.3047C59.92654,94.86677 60.12952,94.12354 60.53631,93.6011C60.53631,93.6011 60.53631,93.6011 60.53631,93.6011M83.71779,79.4409C83.92077,78.63911 84.93818,78.19574 85.54795,77.70889C84.2265,77.0201 86.05582,75.80888 86.56452,75.39192C88.29278,74.14428 91.13951,73.66876 93.88517,73.80361C93.47837,73.95807 94.08815,74.04092 94.08815,74.56603C95.91831,74.5253 97.23976,73.73613 98.96886,73.65646C97.74847,75.16689 96.62999,76.51513 94.69792,76.88937C93.78326,80.26767 93.27455,85.73377 93.27455,91.01423C93.27455,93.29187 92.4618,94.75448 90.63164,94.62167C89.30934,92.81397 90.42782,89.4956 90.32676,86.99433C87.1743,88.49853 81.98954,89.92965 77.31265,87.47119C69.07735,87.18588 71.21239,74.76699 75.78738,71.28745C78.32922,68.43446 82.39634,65.84302 88.29278,67.05127C88.39468,67.05204 88.59766,66.95735 88.90339,66.8627C88.39468,68.10803 87.48003,69.32234 85.64986,69.17121C84.73436,69.60761 82.39634,69.27966 81.78572,70.62057C79.0409,71.28912 78.83708,74.049 78.83708,77.1671C78.93899,80.5554 80.15938,83.19765 82.29443,85.09321C82.29443,85.09321 83.20909,85.30128 83.20909,85.30128C83.20909,85.30128 82.80229,85.60928 82.80229,85.60928C85.54795,87.64189 89.00446,86.7021 90.52973,85.47451C90.52973,85.47451 91.64821,77.45413 91.64821,77.45413C89.00446,77.99232 86.66643,78.97256 84.12459,79.66755C83.8197,79.63411 83.71779,79.62328 83.71779,79.4409C83.71779,79.4409 83.71779,79.4409 83.71779,79.4409M75.07569,82.72037C73.65233,78.6805 74.97378,76.11842 76.39715,73.24093C78.5322,71.90772 79.95556,69.6929 82.29443,68.91627C75.48249,69.41821 72.43194,76.95527 75.07569,82.72037C75.07569,82.72037 75.07569,82.72037 75.07569,82.72037M114.62587,86.21617C114.72778,78.99419 114.32099,70.16085 117.67642,68.3012C117.67642,68.3012 117.77749,69.95046 117.77749,69.95046C117.77749,69.95046 118.7949,68.91649 118.7949,68.91649C118.69299,84.06064 117.98131,101.38092 119.91338,114.90101C119.50658,116.12307 117.4726,118.1605 117.16772,113.44355C117.06581,111.70707 116.76092,109.04313 115.94817,107.65039C114.72778,103.18128 114.82969,96.32361 114.42289,91.31794C114.72778,91.3415 115.03267,90.85254 114.72778,89.98858C111.98296,90.14806 107.20416,86.23492 104.05254,86.22161C104.15361,89.78437 103.13704,94.32084 104.66232,97.44722C104.56041,98.81837 103.44193,102.33068 101.91665,99.48231C101.5107,99.54641 101.1039,99.36582 101.00199,98.92737C99.37481,89.60728 99.17183,77.52616 101.30688,70.13456C101.71368,68.81465 102.52727,67.60517 103.84872,67.25262C104.35743,68.70153 104.76423,66.21298 105.67889,66.47732C105.98377,67.70147 104.25552,69.21799 105.47591,70.23981C103.54384,72.12478 104.25552,78.74618 104.05254,83.23372C106.89927,82.88919 110.55875,83.8354 114.52396,85.82863C114.32099,85.89678 114.21908,86.0137 114.62587,86.21617C114.62587,86.21617 114.62587,86.21617 114.62587,86.21617" stroke="#ull" style="pointer-events:inherit"/><rect id="svg_34" x="35.118717193603516" y="65.8430229432614" width="84.79466249134384" height="52.31747910215245" fill="#000000" opacity="0" stroke="null" style="pointer-events:inherit"/></g><g id="svg_5" display="null" clip-id="41" stroke-opacity="1" stroke="null" transform=""><path fill="#010101" d="M80.43073642682585,126.85943191534227 C90.24480745315422,123.50524767435795 101.01811233716408,122.5574220266204 111.35116583590634,124.13811262548708 C118.77920289463525,125.26402352691449 125.95658588000019,127.69540236241517 132.45431070489738,131.17174425675708 C140.45917348373956,135.43107255575163 147.41000374894858,141.24459943240288 153.0866758078907,147.9220605562932 C161.71978052702337,155.69305344457638 168.22875265008437,165.41856878657927 171.8857313101897,175.98594169147952 C172.01427186063273,176.45102384161154 172.3806124293955,176.81308146481572 172.6200192045957,177.229594909396 C173.32859898891311,178.35256225291118 173.4121503467011,179.67569153445788 173.7142206402424,180.91492941550607 C175.71302619963208,182.06733233814356 177.23783847926305,183.88939468581296 177.9030358278059,185.9690183508024 C178.69998724055293,188.40481252317144 178.35292775435667,191.15115205528062 176.9084533187527,193.32496957346135 C176.7766992545485,193.51630083775615 176.6883276261189,193.72823700743663 176.6706533004331,193.95636274563435 C176.7236762774907,199.3533761777053 176.68511411235772,204.7680509572495 176.69636141052158,210.16947972618874 C175.9411856766686,210.16947972618874 175.187616699696,210.16947972618874 174.4340477227235,210.16947972618874 C174.0580666126776,212.89521435291238 173.67405171822892,215.6165336427675 173.29807060818288,218.34374004844727 C173.13418140636801,220.3394723129382 172.04319348448246,222.2542567348428 170.307896053501,223.47583326841757 C170.15364739296933,225.309669847736 170.0379608975706,227.14644998496652 169.90299331960532,228.98028656428488 C169.90299331960532,229.34528774540127 169.5639676178117,229.58813127316012 169.3599094939834,229.8662974958656 C167.92507559966256,231.5853353166071 166.33759980169066,233.23814308432338 165.37675918712873,235.23240356985818 C164.90437266425047,236.1699267649029 164.89151860920612,237.22960761330515 164.40306451752247,238.1597719135694 C162.72079006359883,241.9083929147924 159.34178034382657,245.00795939636893 155.1899205645154,246.4400003206681 C152.47128792264448,247.40843087379125 149.4650457991572,247.57032655896373 146.60983882244048,247.1184904194368 C144.37162648785053,247.947101971729 141.75100601569247,247.88087191870395 139.58670449760723,246.89772357601967 C136.84879077316984,245.6702599266203 135.07653793393604,242.86504923626663 135.32237173665837,240.0716127775617 C136.59974345668638,223.86585469178786 137.89639625928086,207.660096606014 139.17858824995048,191.45286674128403 C139.3344436673627,189.27610566519107 140.65359106628475,187.2023691160261 142.6523966256745,186.01464349844196 C144.2270183686021,185.03296693471367 146.1952955472616,184.6870988800269 148.07198758373045,184.88284548119006 C148.76289304236195,184.89756327075125 149.41844984962157,185.2213546410963 150.11096206513363,185.09036631400218 C152.34114061532082,184.84163567041887 154.6179151150438,185.05210006114322 156.75650852304037,185.67024722271117 C154.15516913344865,173.4250463078407 147.51122943242254,161.81859745992384 137.5043475804295,153.29405374611017 C132.50090665443298,149.0214794365106 126.66195215055654,145.5466093211248 120.29437463298297,143.2359163600255 C112.46464835411945,140.36447561664662 103.85243147443371,139.33423034736666 95.47962136994826,140.25262041598188 C89.46071009545152,140.90461849354048 83.5783731558005,142.56478515603732 78.18609706471375,145.09477318159773 C68.51342064387269,149.60430390313175 60.46035515861434,156.79688766166205 54.827065535446785,165.2625602172311 C50.65592467356917,171.48229808576994 47.78465012804708,178.40701807428738 46.214848655761095,185.55839202204652 C48.39843125641278,184.96673688168858 50.71376792126856,184.869599470585 52.96644106778336,185.13157612477337 C54.90097635195157,184.7003448906319 57.02189543426224,184.68121176420235 58.85199152119544,185.4759724005041 C61.392274149326596,186.51504834352076 63.191841855529596,188.88166890495242 63.37822565367203,191.42637472007402 C64.6652379149833,207.64979415332115 65.9554636900556,223.87321358656845 67.24247595136684,240.09516124085962 C67.40957866694282,242.35728549640723 66.29930966249081,244.6635631206382 64.3647743783226,246.07794269746395 C62.04140392906413,247.81317008672266 58.65114691112814,248.1443203518484 55.91323318669076,247.09347017718278 C52.743101861388524,247.67040752797956 49.38819349482443,247.3171805785122 46.447828403439125,246.08530159224455 C42.19795645441512,244.3279975186441 38.928206202519554,240.8016151397945 37.588170964150514,236.72478743135804 C36.134055987263324,236.81015061081263 34.68315452413715,236.9117033587845 33.23385981789155,237.02061500153698 C32.89965438673956,232.5110842800029 32.616865175764794,227.99125110577612 32.23124352443563,223.48907927902258 C30.72571232737118,222.36905549341972 29.634724405485574,220.7604010943869 29.353541951391385,218.99132278913754 C28.937391919331972,216.047764876909 28.532489185436244,213.10715052259278 28.1243729377795,210.16653616827656 C27.50416478189169,210.16653616827656 26.885563382884428,210.16653616827656 26.265355226996615,210.16653616827656 C26.262141713235565,205.75119929993392 26.27017549763825,201.33586243159112 26.260534956354988,196.91758200533616 C26.13360116279248,195.79461466182104 26.001847098588343,194.66428842352536 25.776901135312954,193.56045420643966 C24.504349685926538,191.68982315321838 23.950018562140798,189.4026786554169 24.340460484111635,187.22150224245564 C24.742149704246234,184.65619152194853 26.417997130647755,182.29398629738517 28.821705423933185,180.9311189840233 C29.141450043160315,179.70807067149244 29.215360859665072,178.40554629533128 29.893412263252305,177.28846606764057 C30.100683900841712,176.88961397053365 30.45256365767964,176.56582260018843 30.601992047569723,176.14342203978373 C34.00670987743053,166.28397481277446 39.856911679470755,157.12950970574383 47.6416487656792,149.63521126121017 C48.81297453159165,148.46514699109937 50.1128408479472,147.40546614269707 51.31630175147046,146.26778100962082 C59.0014199110855,137.67995080069417 69.01312203372015,130.72285167514224 80.43073642682585,126.85943191534227 zM83.50285558241522,130.31222534638633 C72.27644525809353,133.78856724072816 62.41899179599061,140.49546394374073 54.928291218920705,148.84780951968906 C54.25988035661673,149.62638058747345 53.39705191176763,150.23275351739258 52.65151671919783,150.94656631110792 C44.17105390371628,158.5394739457013 37.92719666594413,168.17668255033738 34.56264775809681,178.58510332797718 C34.18505989117029,178.88534623502454 33.82514634992968,179.2444603003164 33.7480220196638,179.71984490314134 C33.44113145548099,181.11950669040596 33.147094946342484,182.523583814539 32.85948546472611,183.9247173807597 C31.799025923570767,184.12340753983517 30.809263685159156,184.62086882700174 30.102290657722282,185.37589143148836 C28.317183763444117,187.20089733707 28.381454038665645,190.23717732353367 30.229224451284797,192.00772740773903 C30.332056891639265,193.38972784753037 30.716071786087916,194.75259516089216 30.638947455822077,196.14489805337618 C30.58110420812269,199.4254933465548 30.536115015467615,202.7060886397335 30.478271767768256,205.98815571186822 C31.050277217239866,206.0926520177524 31.62228266671155,206.19862010259257 32.19268135930269,206.30458818743276 C32.748619239968974,210.32401651658083 33.30616387751579,214.3449166246849 33.87334905634585,218.36434495383287 C34.06776663889101,219.6197724033983 35.26962078553368,220.64560233580988 36.656251973438295,220.71183238883512 C36.89083847799691,224.65325643330902 37.223437152268346,228.58732158300234 37.49015879443772,232.52433029060796 C38.79323862455432,232.42277754263608 40.10113872531259,232.35949104752316 41.40261179854868,232.24469228894628 C41.45884828936752,234.23306565865653 42.00996589939214,236.21555191254245 43.12184166072474,237.93017439641562 C44.52454041743473,240.13195571476248 46.79970816027706,241.8804291146261 49.45728404068754,242.676661529884 C51.782261246826586,243.38605898673106 54.35789252632961,243.31247003892528 56.66519540678267,242.56774988713153 C58.064680649731606,243.89823806345876 60.743144369589125,243.8084595471358 61.98677419512579,242.34256770684604 C62.5057566675397,241.7582714612687 62.72588236017346,240.9797003934843 62.6567918143103,240.23350846273436 C61.37138630987961,224.13224668284462 60.098834860493234,208.02656956608644 58.81342935606249,191.92825134410896 C58.81021584230145,190.64486009437732 57.78831846627901,189.44536024514423 56.432215659104635,189.13039954853573 C55.41995882436546,188.90080203138197 54.31451009055503,189.0450363690811 53.409905966811955,189.5204209719061 C50.94032064142449,188.91404804198697 48.25382313716428,189.13334310644797 45.94330674295013,190.13120923869343 C45.430751298058375,190.36669387167169 44.8587458485867,190.56391225179104 44.48758500918236,190.9848410332397 C42.57554432134168,193.10714628795645 41.58578208293004,195.88880851501233 41.69182803704555,198.63956338398987 C42.4759253947483,209.4277031323072 43.24395518364562,220.2158428806246 44.02965929822891,231.00692618685414 C44.27870661471238,234.4803245232838 46.41890677958944,237.7565044795941 49.61635297186085,239.6315508696836 C46.87201221990129,238.86328225459198 44.860352605467284,236.77041257899754 43.595834940483556,234.4935705338888 C42.40201457824355,232.29031743658578 41.7641320966698,229.84569259048 41.64844560127103,227.3937088495937 C41.126249615096086,220.25705269139578 40.61690768396539,213.12481187006614 40.104352239073634,205.98962749082432 C40.22164549135296,205.99257104873658 40.459445509672655,205.99257104873658 40.576738761951944,205.99257104873658 C40.45141172526998,202.61042300758604 40.08346439962664,199.22385962956722 40.374287395004096,195.84318336737277 C40.31965766106583,194.55390500181676 40.47229956471698,193.27051375208512 40.58637930323517,191.98859428130962 C41.593815867332715,181.70233115702717 45.14796208708361,171.6088710759957 51.086535517553486,162.82087892903766 C56.05141427841704,155.45756881159804 62.69856749320432,149.01264876277386 70.61987891425848,144.27499230304215 C76.72073478966273,140.6102627023176 83.57997991268107,137.99049616043428 90.74129532924061,136.69974601592213 C99.36315275020952,135.12052719601158 108.39473317571574,135.47964126130344 116.83502706918385,137.7299912852021 C122.95998429779614,139.3489481369278 128.7603766365397,141.93780732073276 133.97108920012562,145.29199156171708 C139.75862748382482,149.01412054172994 144.81669814375962,153.65463959035813 148.97498495059298,158.8809266635198 C157.47312209176044,169.56015476908476 162.14557110036606,182.65898747850142 162.62117113700538,195.83876803050444 C162.60349681131947,196.35683422305667 162.50869815536768,196.8734286366528 162.5520805911423,197.39443838711722 C162.87664548101102,200.3070889412673 162.37694409116355,203.22121127437345 162.438000852624,206.13386182852352 C161.90134405452423,213.44124434563074 161.38718185275195,220.74862686273795 160.85695208217427,228.05453760088903 C160.59023044000492,231.0039826289419 159.61492901351812,233.96078655177544 157.6916410275137,236.36420158711002 C156.51388823407902,237.84481121696092 154.88785027097416,239.0840490980091 152.9452812024033,239.59769995369305 C155.42129355531296,238.17007436626216 157.26585045417093,235.88587342637285 158.06601538067915,233.31173203212907 C158.57214379804876,231.8193481706292 158.55607622924327,230.24896002445536 158.6910438072085,228.71095101531603 C159.3948033208844,218.79557618797435 160.13069797217088,208.8802013606327 160.82481694456357,198.96629831224718 C161.04976290783887,196.01979684210647 159.99412363732517,192.97910151877448 157.8426761742842,190.7655459687787 C155.30721381679473,189.22459340172702 152.04549734930185,188.8183824098395 149.11155928543877,189.51159029816932 C147.75224296450327,188.77570082011223 145.82092119409614,188.82721308357623 144.6704832676307,189.88247859511011 C143.99564537780455,190.49473864085365 143.69518184114384,191.37339067765393 143.70000211178547,192.2329095880246 C142.44191147432394,208.1811063564785 141.167753268057,224.1307749038885 139.9064491168344,240.0789716723424 C139.83093154344908,240.744215760506 139.9257301994008,241.4477261015286 140.32420590577436,242.02024811545695 C141.40394652949612,243.7775521890574 144.4134021667445,244.00420614829906 145.89001173995933,242.55303209757034 C147.72814161129517,243.18148171183117 149.74462149637083,243.3198289337059 151.67272975301688,243.00781179500964 C155.62053140849972,242.36611617014387 159.0011478851524,239.6035870695174 160.32190204095502,236.1640396490784 C160.51953313726122,235.20738332760422 160.93086289867907,234.29782393272558 161.12206696746313,233.33822405333916 C161.1734831876404,233.3146755900413 161.2795291417559,233.2646351055334 161.33255211881368,233.2440302001478 C162.354449494836,231.19384211428067 163.96441988913548,229.47333251458315 165.386399728412,227.67040329334324 C165.61295244856782,225.3597103322439 165.7222119164445,223.0357713605395 165.9150227421091,220.71919128361563 C166.88068362731258,220.6367716620733 167.80296207674166,220.15255638551167 168.27695535650042,219.3680982019028 C168.68507160415723,218.78527373528152 168.72042025552912,218.08029161530283 168.81682566836136,217.4135757481831 C169.34384192517794,213.61049892558384 169.87728520951669,209.798591429248 170.40108795257223,205.99109926978053 C170.9747001589244,205.99109926978053 171.55634614967934,205.99109926978053 172.1363853835537,205.99109926978053 C172.1363853835537,203.60681736087543 172.1363853835537,201.22106367301424 172.13477862667315,198.83530998515303 C171.8873380670702,198.83530998515303 171.63989750746728,198.83530998515303 171.397277218506,198.83530998515303 C171.6784596726002,196.57024217169328 172.0897894340181,194.31547681092619 172.28902728720482,192.04305010268584 C173.87971659893782,190.51534354623925 174.22516932825357,188.0471702368357 173.07955167242966,186.2074465416929 C172.40632053948414,185.03149515575763 171.13055557633663,184.22937562467533 169.73749736090988,183.92030204389138 C169.43703382424923,183.05048068082783 169.33902165453637,182.11001392787082 169.11889596190264,181.210756985685 C168.884309457344,180.3026693697626 168.93572567752122,179.19294803685236 168.00059317304786,178.60276467545063 C164.6183699395146,168.20906168737181 158.40504108247265,158.57185308273586 149.93421880827435,150.97894544814247 C149.31883092302823,150.43733079229239 148.8737592671191,149.7647278093482 148.31139435893064,149.17895978481474 C143.99885889156562,144.32650456650612 138.93275444722812,140.02449467778416 133.24001481948065,136.55698345717906 C127.48621843027274,133.06298021536386 121.08811253196893,130.43585477869993 114.36544174379634,128.97732183319067 C104.20913150191329,126.74463315676539 93.37959012708461,127.21707420167809 83.50285558241522,130.31222534638633 zM37.414641221052385,179.25329097405313 C39.42308732172539,171.56471770731233 43.0286497616535,164.21612537943392 48.077079880305114,157.79916913077588 C42.638207839682664,166.28250303381836 39.039072427276736,175.74015460580839 37.43392230361887,185.46125461094297 C37.13827903759982,185.16395526180793 36.81371414773106,184.88726081805842 36.46504790465422,184.6473608482118 C36.68838711104906,183.25211439781546 37.05151416605072,181.88188818967316 37.31341553757851,180.49547241301354 C37.392146624724845,180.08337430530148 37.28770742748988,179.65950196594065 37.414641221052385,179.25329097405313 zM157.8523167155675,162.80174580260817 M158.03227348618782,163.09610159383098 M158.21705052744966,163.38457026922939 M158.38575999990627,163.9615076200262 C158.46931135769424,163.868785545791 158.54804244484063,163.77606347155572 158.6332005595092,163.68334139732056 C158.68622353656687,163.817273282327 158.80030327508516,164.08955238920808 158.85653976590402,164.2234842742145 C161.68603863253213,169.00382232367357 163.81499149924537,174.12855664886334 165.1678807926588,179.4225455540062 C165.18876863210576,181.19603919612388 165.82343759991838,182.90330278521645 166.0869457283267,184.65471974299234 C165.87003354945398,184.80778475442818 165.65794164122298,184.9623215448203 165.44906324675296,185.11685833521227 C164.1861523386498,177.81389115497342 161.8547481049886,170.64632763869704 158.38575999990627,163.9615076200262 zM30.274213643939834,187.77636290891067 C30.536115015467615,186.69019003929833 31.42947184104697,185.80859444458588 32.5204597629325,185.358230084015 C32.46261651523315,186.52387901725749 31.628709694233727,187.7984395932524 32.40316651065325,188.88755602077688 C33.06193683167396,189.88836571093452 34.85186399659372,189.83832522642675 35.43833025799018,188.79777750445396 C35.86572758821341,187.94708926781996 35.88822218454094,186.98160227260897 36.12602220286064,186.07792999355487 C36.64018440463293,186.60924219671205 37.2378979641932,187.26712739009514 37.03383984036478,188.03245244727452 C36.89083847799691,188.83751553626905 36.88441145047477,189.65876819378076 36.70927495049609,190.45941594590684 C35.95249245976252,191.70895627964788 34.17702610676758,192.39922061006544 32.68595572162795,191.90617465976723 C30.855859634694745,191.40135447782006 29.78897306601726,189.4424166872319 30.274213643939834,187.77636290891067 zM169.99618521867654,185.3449840734099 C171.0614650304735,185.78357420233192 171.94839482853067,186.62395998627318 172.23921782390815,187.67775371885097 C172.6232327183568,188.87431001017188 172.20868944317795,190.22245953397254 171.27195018182405,191.11288580242166 C170.4460771452273,191.87526730168878 169.18637975088524,192.25645805132243 168.0423688519419,191.97976360757292 C167.34824987954934,191.84583172256654 166.7585701043917,191.4587538571085 166.26047547142488,191.02457906505478 C166.10462005401257,189.64405040421963 165.9648322054058,188.2591064065161 165.7366727283693,186.88446486150545 C165.95037139348088,186.60777041775594 166.1721038429952,186.33696308983096 166.392229535629,186.06762754086205 C166.58664711817414,186.83442437699753 166.70233361357285,187.61888256060647 166.90639173740124,188.38420761778585 C167.13615797131826,189.2643314335421 168.26731481521728,189.86481724763684 169.2056608334517,189.53661054042328 C170.03956765445108,189.29523879162053 170.57783120943145,188.45926834454764 170.4701784984354,187.67039482407043 C170.34324470487286,186.89035197732986 170.13436631040287,186.12355514119437 169.99618521867654,185.3449840734099 z" id="svg_6" stroke-width="0" stroke="null" transform=""/><polygon points="82.1259 160.997 90.8329 162.042 84.634 167.738 86.2392 175.647 78.4094 172.006 70.6954 175.849 72.0547 167.901 65.6807 162.368 74.354 161.099 78.1283 153.836" id="svg_7" stroke="null" transform=""/><polygon points="101.357 217.683 117.189 219.58 105.916 229.934 108.838 244.313 94.6023 237.693 80.5786 244.678 83.053 230.23 71.465 220.172 87.2289 217.867 94.0898 204.661" id="svg_9" stroke="null" transform=""/><polygon points="118.535 182.61 129.467 183.922 121.683 191.075 123.701 201.005 113.864 196.432 104.18 201.259 105.891 191.281 97.8865 184.331 108.774 182.737 113.517 173.618" id="svg_10" stroke="null" transform=""/></g></g><defs><mask id="canvasMaskImageDef" maskUnits="objectBoundingBox" x="0" y="0"><image xmlns:xlink="http://www.w3.org/1999/xlink" id="canvasMaskImage" preserveAspectRatio="none" x="-103.65" y="-36.45" width="400" height="440.0580551523948" xlink:href="http://allinonedesigner.designnbuy.in/media/catalog/product/w/h/white-tees-1_-front_1_3.png"/></mask></defs></svg>