<?xml version="1.0" encoding="utf-8"?>
<!-- Generator: Adobe Illustrator 16.0.0, SVG Export Plug-In . SVG Version: 6.00 Build 0)  -->
<!DOCTYPE svg PUBLIC "-//W3C//DTD SVG 1.1//EN" "http://www.w3.org/Graphics/SVG/1.1/DTD/svg11.dtd">
<svg version="1.1" id="Layer_1" xmlns="http://www.w3.org/2000/svg" xmlns:xlink="http://www.w3.org/1999/xlink" x="0px" y="0px"
	 width="29.068px" height="29.068px" viewBox="1.466 1.466 29.068 29.068" enable-background="new 1.466 1.466 29.068 29.068"
	 xml:space="preserve">
<path fill="#000000" d="M16,1.466C7.973,1.466,1.466,7.973,1.466,16c0,8.027,6.508,14.534,14.534,14.534
	c8.027,0,14.534-6.507,14.534-14.534C30.534,7.973,24.027,1.466,16,1.466z M17.255,23.88v2.047h-1.958v-2.023
	c-3.213-0.44-4.621-3.08-4.621-3.08l2.003-1.673c0,0,1.275,2.223,3.586,2.223c1.275,0,2.243-0.683,2.243-1.849
	c0-2.729-7.349-2.398-7.349-7.459c0-2.2,1.738-3.785,4.137-4.159V5.859h1.958v2.046c1.672,0.22,3.652,1.1,3.652,2.993v1.452H18.31
	v-0.704c0-0.727-0.926-1.21-1.959-1.21c-1.32,0-2.288,0.66-2.288,1.584c0,2.794,7.349,2.111,7.349,7.415
	C21.413,21.614,19.785,23.506,17.255,23.88z"/>
</svg>
