<?xml version="1.0" encoding="utf-8"?>
<!-- Generator: Adobe Illustrator 15.1.0, SVG Export Plug-In . SVG Version: 6.00 Build 0)  -->
<!DOCTYPE svg PUBLIC "-//W3C//DTD SVG 1.1//EN" "http://www.w3.org/Graphics/SVG/1.1/DTD/svg11.dtd">
<svg version="1.1" id="Layer_1" xmlns="http://www.w3.org/2000/svg" xmlns:xlink="http://www.w3.org/1999/xlink" x="0px" y="0px"
	 width="100px" height="100px" viewBox="0 0 100 100" enable-background="new 0 0 100 100" xml:space="preserve">
<path fill-rule="evenodd" clip-rule="evenodd" d="M81.962,32.03c0.444,0.16,0.901,0.236,1.536,0.22
	c0.071-0.047,0.146-0.091,0.218-0.134c-0.013-0.073-0.028-0.146-0.043-0.22c-0.892-1.023-7.953-1.825-10.005-1.053
	c-1.024,0.396-2.048,0.79-3.071,1.187c-1.936,0.407-3.864,0.816-5.795,1.228c-0.835,0.292-1.668,0.585-2.501,0.877
	c-0.821,0.412-1.641,0.821-2.459,1.229c-0.952,0.238-1.903,0.467-2.854,0.703c-0.817,0.32-1.637,0.645-2.457,0.963
	c-1.93-0.056-3.861-0.116-5.792-0.173c-0.513-0.231-1.024-0.47-1.536-0.701c-0.547-1.478-0.055-5.238,0.701-6.233
	c0.282-0.37,1.145-0.643,1.582-0.833c0.361-0.483,0.333-1.522,0.351-2.196c-0.534-0.681-0.075-0.265-0.309-0.879
	c-0.089-0.236-0.368-0.356-0.481-0.699c0.265-0.343,0.294-0.485,0.217-1.01c-0.352-0.218-0.809-0.327-1.183-0.572
	c-0.48-0.312-0.619-0.868-0.966-1.317c-0.311-0.398-1.893-1.629-2.458-1.754c-1.35-0.305-3.096,0.527-3.949,1.05
	c-0.454,0.278-0.846,0.77-1.406,0.924c-0.175-0.91-0.646-1.658-0.922-2.459c-0.306-1.108-0.614-2.223-0.92-3.336
	c-0.537-1.302-1.474-2.408-2.195-3.554c-0.924-1.464-1.756-2.949-2.633-4.475c-0.339-0.879-0.673-1.756-1.01-2.635
	c-0.254-0.652-0.792-1.193-1.14-1.758c-0.279-0.497-0.558-0.993-0.833-1.491c-0.015-0.16-0.031-0.318-0.047-0.483
	c-0.062-0.113-2.243-1.315-2.5-1.446c-0.264,0.22-0.526,0.438-0.791,0.659c-0.057-0.047-0.116-0.089-0.176-0.133
	c-0.13,0.086-0.263,0.176-0.394,0.265c-0.103,0.38-0.205,0.761-0.309,1.139c-0.117-0.016-0.231-0.026-0.351-0.042
	c-1.149,0.923-2.83,2.43-3.291,3.994c-0.461,1.558-0.218,3.509-0.66,5.178c-1.081,3.247-2.164,6.496-3.248,9.745
	c-0.559,1.578-2.164,4.52-1.752,6.449c0.708,3.34,2.18,6.117,3.377,8.91c0.512,1.406,1.023,2.811,1.535,4.212
	c0.651,1.482,2.255,3.917,2.459,5.532c0.087,0.681-0.595,1.335-0.746,1.885c-0.043,0.865-0.089,1.727-0.133,2.592
	c0.403,2.391,0.292,5.107,0.703,7.636c0.016,1.246,0.03,2.487,0.044,3.731c0.336,1.462,0.674,2.924,1.009,4.391
	c0.191,1.646,0.382,3.303,0.572,4.958c-0.043,0.774-0.087,1.549-0.132,2.328c-0.318,1.971-0.454,4.294-0.089,6.359
	c0.902,5.085,3.116,8.931,4.391,13.563c0.389,1.41-0.217,2.684,0.043,3.994c1.046,0.639,2.481,0.801,4.258,0.525
	c1.339-0.207,3.749-0.356,5.222-0.132c0.909,0.016,1.815,0.029,2.722,0.045c0.337-0.118,0.673-0.233,1.009-0.354
	c0.452-2.132-2.625-2.005-4.039-2.502c-0.95-0.32-1.901-0.643-2.85-0.963c-1.562-0.993-2.903-3.078-3.469-5.047
	c-0.103-0.819-0.204-1.636-0.307-2.457c-0.234-1.685-0.468-3.367-0.703-5.049c-0.087-1.185-0.175-2.37-0.261-3.552
	c-0.217-1.313-0.92-2.412-0.616-4.041c0.41-1.696,0.817-3.394,1.229-5.092c-0.059-0.468-0.117-0.933-0.176-1.404
	c-0.152-0.926-0.033-2.127,0.132-2.896c0.262-1.224,0.799-2.428,1.053-3.776c-0.059-2.338-0.117-4.68-0.174-7.022
	c0.422-0.203,0.847-0.405,1.271-0.612c1.765-0.731,3.602-1.271,5.266-1.979c1.253-0.527,2.664-0.879,3.776-1.577
	c1.02-0.641,1.635-1.64,2.546-2.368c0.497-0.367,0.993-0.732,1.492-1.1c0.627-0.5,1.4-1.406,1.71-2.194
	c0.315-0.799,0.176-1.705,0.879-2.107c1.405-0.806,3.171-0.984,4.871-1.493c1.2-0.405,2.399-0.817,3.599-1.226
	c3.363-1.244,6.73-2.49,10.096-3.73c2.257-0.975,4.34-2.465,6.757-3.16c0-0.118,0-0.238,0-0.352
	c1.148,0.006,1.606,0.463,2.461,0.699c0.6,0.169,1.222,0.078,1.709,0.352c0.59,0.332,0.979,1.108,1.846,1.144
	c0.714-1.03-1.745-1.491-1.668-2.152c0.043-0.394,1-0.332,1.404-0.262c0.512,0.084,1.022,0.173,1.536,0.262
	c0.647,0.256,1.063,0.652,2.021,0.657c0.056-0.087,0.113-0.174,0.173-0.26C83.385,32.673,82.535,32.517,81.962,32.03z
	 M38.643,38.701c-0.217,0.935-0.75,1.255-1.184,1.887c-0.406,0.592-0.389,1.057-1.053,1.402c-0.968-0.539-1.932-1.082-2.898-1.625
	c-1.053-0.158-2.107-0.321-3.162-0.481c-0.674-0.416-2.268-2.715-2.807-3.465c-1.75-2.45-3.934-4.693-5.354-7.419
	c-0.269-0.514-0.257-1.273-0.483-1.711c0.683-1.464,1.707-2.759,2.152-4.301c0.158-1.422,0.321-2.839,0.481-4.259
	c0.222-2.208,0.439-4.415,0.659-6.627c0.147,0.058,0.293,0.12,0.438,0.176c1.618-1.008,1.243-4.221,1.669-6.409
	c0.699,0.545,1.458,1.15,2.369,1.493c-0.059,0.133-0.117,0.265-0.174,0.396c0.497,1.01,1.189,1.958,1.623,2.938
	c0.655,1.479,0.955,2.968,1.624,4.348c0.791,1.446,1.581,2.895,2.371,4.346c0.84,2.61,1.123,5.43,1.669,8.251
	c0.177,0.921,0.025,1.798,0.261,2.806c0.206,0.572,0.41,1.142,0.615,1.711c0.202,0.832,0.141,1.339,0.396,2.107
	C38.226,35.396,39.067,36.872,38.643,38.701z"/>
</svg>
