<?xml version="1.0" encoding="utf-8"?>
<svg version="1.1"
	 id="svg2" xmlns:svg="http://www.w3.org/2000/svg" xmlns="http://www.w3.org/2000/svg" xmlns:xlink="http://www.w3.org/1999/xlink" x="0px" y="0px" width="100px" height="70.897px"
	 viewBox="0 -0.041 100 70.897" xml:space="preserve">
<path id="rect3011" fill="#762301" stroke="#6E3319" stroke-width="0.3257" d="M0.689,34.05
	v24.429c0,6.746,21.875,12.214,48.859,12.214c26.983,0,48.858-5.469,48.858-12.214V34.05c0,6.746-21.875,12.214-48.858,12.214
	C22.564,46.264,0.689,40.796,0.689,34.05z"/>
<path id="path3026" fill="#DAAF05" d="M45.252,22.476
	c-9.073,0.169-18.153,1.028-27.039,2.901c-3.66,0.808-7.338,1.661-10.797,3.132c-1.607,0.705-3.188,1.519-4.572,2.605
	c-1.64,1.364-2.566,3.442-2.759,5.542c-0.322,2.636,0.281,5.393,1.752,7.611c0.899,1.295,2.333,2.036,3.595,2.919
	c0.875,0.573,1.643,1.287,2.383,2.021c1.087,0.931,2.36,1.829,3.84,1.895c2.487,0.153,4.818-0.888,7.238-1.261
	c1.468-0.181,3.035,0.149,4.193,1.102c1.205,0.867,2.267,2.071,3.78,2.383c1.725,0.354,3.438-0.245,5.08-0.709
	c1.46-0.39,2.982-0.837,4.504-0.574c1.042,0.366,1.596,1.433,1.923,2.42c0.658,1.797,0.842,3.812,2,5.395
	c0.537,0.648,1.676,0.339,1.969-0.402c1.036-1.744,1.883-3.691,3.489-5.005c1.169-0.98,2.85-1.537,4.328-0.97
	c1.46,0.563,2.447,2.015,4.031,2.306c1.118,0.201,2.141-0.458,3.022-1.06c1.327-0.892,2.719-1.887,4.368-2.004
	c1.413,0.018,2.583,0.916,3.714,1.656c1.581,1.034,3.154,2.24,5.06,2.573c0.907,0.067,1.58-0.661,2.17-1.243
	c2.132-2.093,4.874-3.686,7.875-4.041c1.921-0.235,3.875,0.33,5.777-0.134c1.441-0.322,2.521-1.407,3.581-2.361
	c0.855-0.8,1.761-1.571,2.832-2.069c1.74-0.951,3.69-1.678,5.022-3.213c2.581-2.896,3.173-7.443,1.274-10.85
	c-1.008-1.717-2.797-2.779-4.6-3.5c-7.735-3.136-15.949-5.004-24.24-5.867c-7.043-0.817-14.135-1.163-21.223-1.205
	C47.632,22.46,46.442,22.468,45.252,22.476L45.252,22.476z"/>
<path id="path3843" fill="#FFD42A" d="
	M48.805,24.37c-1.164-0.011-2.335-0.003-3.517,0.005c-0.007,0-0.014,0-0.02,0c-8.965,0.168-17.914,1.016-26.648,2.855
	c-0.005,0.001-0.01,0.004-0.015,0.005c-3.634,0.802-7.176,1.635-10.423,3.013c-1.518,0.666-2.941,1.403-4.127,2.326
	c-0.002,0.001-0.003,0.003-0.005,0.005c-1.177,0.982-1.924,2.59-2.076,4.25c-0.001,0.019-0.003,0.037-0.005,0.056
	C1.7,39.072,2.214,41.389,3.407,43.2c0.556,0.787,1.715,1.449,3.115,2.428l-0.005,0.005c0.989,0.654,1.802,1.409,2.534,2.132
	c0.009,0.007,0.017,0.013,0.026,0.021c0.98,0.835,1.908,1.386,2.662,1.42c0.012,0.001,0.023,0.003,0.036,0.005
	c1.886,0.117,4.065-0.821,6.83-1.247c0.019-0.002,0.037-0.004,0.056-0.005c1.869-0.23,3.906,0.158,5.532,1.445l0.005-0.005
	c0.04,0.029,0.058,0.048,0.097,0.076c1.384,1.009,2.235,1.847,2.952,1.995c1.068,0.219,2.461-0.195,4.184-0.682
	c0.008-0.001,0.017-0.003,0.025-0.005c1.432-0.383,3.235-0.966,5.318-0.605c0.102,0.017,0.203,0.042,0.3,0.076
	c1.903,0.667,2.674,2.352,3.079,3.558c0.006,0.017,0.015,0.039,0.021,0.056c0.505,1.395,0.776,2.611,1.12,3.588
	c0.789-1.448,1.658-3.098,3.318-4.463c0.006-0.005,0.014-0.01,0.021-0.016c1.583-1.319,3.905-2.15,6.209-1.267
	c1.107,0.427,1.842,1.072,2.422,1.506c0.578,0.433,0.954,0.645,1.262,0.703c0.001,0,0.004,0,0.005,0
	c0.211,0.035,0.769-0.182,1.613-0.758c0.003-0.002,0.007-0.003,0.01-0.005c1.294-0.87,2.96-2.16,5.293-2.326
	c0.052-0.004,0.105-0.006,0.158-0.005c2.202,0.028,3.682,1.28,4.728,1.965c1.576,1.03,2.883,1.938,4.132,2.229
	c0.007-0.004,0.002,0,0.01-0.005c0.141-0.097,0.392-0.34,0.713-0.657c0.001,0,0.003,0,0.005,0c2.369-2.326,5.455-4.153,8.978-4.57
	c0.002,0,0.003,0,0.005,0c2.437-0.297,4.286,0.217,5.552-0.092c0.012-0.003,0.024-0.007,0.036-0.01
	c0.745-0.167,1.599-0.905,2.698-1.894c0.009-0.008,0.021-0.017,0.03-0.025c0.865-0.809,1.876-1.688,3.186-2.321V45.44
	c0.04-0.022,0.072-0.035,0.112-0.056c1.856-1.005,3.481-1.694,4.387-2.738c0.007-0.005,0.014-0.01,0.021-0.015
	c2.015-2.261,2.493-6.009,1.038-8.642c-0.687-1.158-2.055-2.048-3.654-2.688c-0.003,0-0.006,0-0.01,0
	c-7.544-3.059-15.587-4.888-23.727-5.736c-0.007-0.001-0.014-0.003-0.021-0.005c-6.96-0.808-13.98-1.15-21.014-1.191
	C48.808,24.37,48.807,24.37,48.805,24.37L48.805,24.37z"/>
<path id="path3809" fill="#FFDD55" d="
	M89.339,34.047c0,5.494-17.815,9.948-39.791,9.948c-21.977,0-39.792-4.454-39.792-9.948c0-5.494,17.815-9.948,39.792-9.948
	C71.524,24.1,89.339,28.554,89.339,34.047z"/>
<g>
	<path fill="#EC2024" stroke="#F6A7A9" stroke-width="0.1629" d="M15.868,9.154c0.159-0.304,0.818-0.532,1.607-0.532
		c0.791,0,1.45,0.229,1.608,0.533c-0.152,0.307-0.813,0.537-1.607,0.537C16.681,9.693,16.02,9.462,15.868,9.154z M15.831,9.296
		c0,0.001,0.001,0.003,0.001,0.005v-0.01C15.832,9.293,15.831,9.294,15.831,9.296z M15.835,9.047h-0.003v0.244
		c0-0.047,0.013-0.092,0.036-0.137C15.851,9.12,15.839,9.084,15.835,9.047z M19.121,9.047h-0.003
		c-0.003,0.037-0.016,0.073-0.034,0.108c0.023,0.045,0.037,0.092,0.037,0.141c0,0.372-0.736,0.673-1.645,0.673
		c-0.904,0-1.637-0.299-1.644-0.668v22.021h0.024c-0.015,0.037-0.024,0.074-0.024,0.112c0,0.372,0.736,0.674,1.644,0.674
		c0.908,0,1.645-0.302,1.645-0.674c0-0.039-0.012-0.075-0.027-0.112h0.027V9.047z M30.852,4.431
		c0.159-0.304,0.818-0.532,1.607-0.532c0.791,0,1.45,0.229,1.608,0.533C33.915,4.74,33.254,4.97,32.459,4.97
		C31.664,4.97,31.003,4.739,30.852,4.431z M30.814,4.573c0,0.002,0,0.003,0,0.005V4.568C30.815,4.57,30.814,4.571,30.814,4.573z
		 M30.818,4.324h-0.003v0.244c0.001-0.047,0.014-0.092,0.037-0.137C30.834,4.396,30.822,4.361,30.818,4.324z M34.104,4.324h-0.003
		c-0.003,0.037-0.016,0.073-0.034,0.108c0.023,0.045,0.037,0.092,0.037,0.141c0,0.372-0.736,0.674-1.645,0.674
		c-0.904,0-1.637-0.299-1.644-0.668V26.6h0.024c-0.015,0.037-0.024,0.074-0.024,0.112c0,0.372,0.736,0.673,1.645,0.673
		s1.645-0.301,1.645-0.673c0-0.039-0.012-0.075-0.027-0.112h0.027V4.324z M49.082,3.095c0.159-0.304,0.818-0.532,1.607-0.532
		c0.791,0,1.45,0.229,1.608,0.533c-0.152,0.307-0.813,0.537-1.607,0.537C49.894,3.633,49.233,3.402,49.082,3.095z M49.044,3.237
		c0,0.001,0,0.003,0,0.005v-0.01C49.045,3.233,49.044,3.235,49.044,3.237z M49.048,2.988h-0.003v0.244
		c0.001-0.047,0.014-0.093,0.037-0.137C49.064,3.06,49.052,3.024,49.048,2.988z M52.334,2.988h-0.003
		c-0.003,0.037-0.016,0.073-0.034,0.108c0.023,0.045,0.037,0.092,0.037,0.141c0,0.372-0.736,0.673-1.645,0.673
		c-0.904,0-1.637-0.299-1.644-0.668v22.021h0.024c-0.015,0.037-0.024,0.074-0.024,0.112c0,0.372,0.736,0.674,1.645,0.674
		s1.645-0.302,1.645-0.674c0-0.039-0.012-0.075-0.027-0.112h0.027V2.988z M67.663,4.376c0.159-0.304,0.818-0.532,1.607-0.532
		c0.791,0,1.45,0.229,1.608,0.533c-0.152,0.307-0.812,0.537-1.607,0.537C68.475,4.915,67.814,4.684,67.663,4.376z M67.625,4.518
		c0,0.002,0.001,0.003,0.001,0.005V4.513C67.626,4.515,67.625,4.516,67.625,4.518z M67.63,4.269h-0.003v0.244
		c0-0.047,0.013-0.092,0.037-0.137C67.646,4.341,67.633,4.306,67.63,4.269z M70.916,4.269h-0.004
		c-0.003,0.037-0.016,0.073-0.034,0.108c0.024,0.045,0.037,0.092,0.037,0.141c0,0.372-0.736,0.674-1.645,0.674
		c-0.904,0-1.637-0.299-1.644-0.668v22.021h0.024c-0.015,0.037-0.024,0.074-0.024,0.112c0,0.372,0.736,0.673,1.645,0.673
		c0.908,0,1.645-0.301,1.645-0.673c0-0.039-0.012-0.075-0.027-0.112h0.027V4.269z M82.684,10.738
		c0.159-0.304,0.818-0.532,1.607-0.532c0.791,0,1.45,0.229,1.608,0.533c-0.152,0.307-0.813,0.537-1.607,0.537
		C83.497,11.277,82.836,11.046,82.684,10.738z M82.647,10.88c0,0.001,0.001,0.003,0.001,0.005v-0.01
		C82.648,10.877,82.647,10.878,82.647,10.88z M82.651,10.631h-0.003v0.244c0-0.047,0.013-0.092,0.036-0.137
		C82.667,10.704,82.655,10.668,82.651,10.631z M85.937,10.631h-0.003c-0.003,0.037-0.016,0.073-0.034,0.108
		c0.023,0.045,0.037,0.092,0.037,0.141c0,0.372-0.736,0.673-1.645,0.673c-0.904,0-1.637-0.299-1.644-0.668v22.021h0.024
		c-0.015,0.037-0.024,0.074-0.024,0.112c0,0.372,0.736,0.673,1.644,0.673c0.908,0,1.645-0.302,1.645-0.673
		c0-0.039-0.012-0.075-0.027-0.112h0.027V10.631z M74.053,17.4c0.159-0.304,0.818-0.532,1.607-0.532c0.79,0,1.45,0.229,1.608,0.533
		c-0.152,0.307-0.813,0.537-1.607,0.537C74.865,17.939,74.204,17.708,74.053,17.4z M74.016,17.542c0,0.002,0,0.003,0,0.005v-0.011
		C74.016,17.539,74.016,17.541,74.016,17.542z M74.02,17.293h-0.003v0.244c0-0.047,0.014-0.092,0.037-0.137
		C74.036,17.366,74.023,17.33,74.02,17.293z M77.305,17.293h-0.003c-0.004,0.037-0.017,0.073-0.034,0.108
		c0.023,0.045,0.037,0.092,0.037,0.141c0,0.372-0.737,0.674-1.645,0.674c-0.904,0-1.637-0.299-1.644-0.668v22.021h0.024
		c-0.015,0.037-0.024,0.074-0.024,0.112c0,0.372,0.736,0.674,1.645,0.674s1.645-0.302,1.645-0.674c0-0.039-0.012-0.075-0.027-0.112
		h0.027V17.293z M45.017,20.242c0.159-0.304,0.818-0.532,1.607-0.532c0.791,0,1.45,0.229,1.608,0.533
		c-0.152,0.307-0.813,0.537-1.607,0.537C45.829,20.78,45.168,20.549,45.017,20.242z M44.979,20.384c0,0.001,0,0.003,0,0.005v-0.01
		C44.98,20.38,44.979,20.382,44.979,20.384z M44.984,20.135H44.98v0.244c0.001-0.047,0.014-0.092,0.037-0.137
		C45,20.207,44.987,20.171,44.984,20.135z M48.269,20.135h-0.003c-0.003,0.037-0.016,0.073-0.034,0.108
		c0.023,0.045,0.037,0.092,0.037,0.141c0,0.372-0.736,0.673-1.645,0.673c-0.904,0-1.637-0.299-1.644-0.668V42.41h0.024
		c-0.015,0.037-0.024,0.074-0.024,0.112c0,0.372,0.737,0.674,1.645,0.674c0.908,0,1.645-0.302,1.645-0.674
		c0-0.039-0.012-0.075-0.027-0.112h0.027V20.135z M21.982,17.036c0.159-0.304,0.818-0.532,1.607-0.532
		c0.791,0,1.45,0.229,1.608,0.533c-0.152,0.307-0.813,0.537-1.607,0.537C22.794,17.574,22.134,17.344,21.982,17.036z M21.945,17.178
		c0,0.002,0,0.003,0,0.005v-0.01C21.946,17.174,21.945,17.176,21.945,17.178z M21.949,16.929h-0.003v0.244
		c0.001-0.047,0.014-0.093,0.037-0.137C21.965,17.001,21.953,16.965,21.949,16.929z M25.235,16.929h-0.003
		c-0.003,0.037-0.016,0.073-0.034,0.108c0.023,0.045,0.037,0.093,0.037,0.141c0,0.372-0.736,0.674-1.645,0.674
		c-0.904,0-1.637-0.299-1.644-0.668v22.021h0.024c-0.015,0.037-0.024,0.074-0.024,0.112c0,0.372,0.736,0.674,1.645,0.674
		s1.645-0.302,1.645-0.674c0-0.039-0.012-0.075-0.027-0.112h0.027V16.929z"/>
	<path fill="#FBD4D4" d="M15.831,30.705c0.724,0,2.536-0.853,3.289-1.565v0.983c-0.651,0.616-2.403,1.565-3.289,1.565V30.705z
		 M15.831,27.112c0.724,0,2.536-0.853,3.289-1.565v0.984c-0.651,0.616-2.403,1.565-3.289,1.565V27.112z M15.831,23.52
		c0.724,0,2.536-0.853,3.289-1.565v0.983c-0.651,0.616-2.403,1.565-3.289,1.565V23.52z M15.831,19.927
		c0.724,0,2.536-0.853,3.289-1.565v0.983c-0.651,0.616-2.403,1.565-3.289,1.565V19.927z M15.831,16.334
		c0.724,0,2.536-0.853,3.289-1.565v0.983c-0.651,0.616-2.403,1.565-3.289,1.565V16.334z M15.831,12.741
		c0.724,0,2.536-0.853,3.289-1.565v0.984c-0.651,0.616-2.403,1.565-3.289,1.565V12.741z M18.058,9.237
		c0,0.165-0.326,0.298-0.727,0.298c-0.401,0-0.727-0.133-0.727-0.298c0-0.164,0.325-0.297,0.727-0.297
		C17.732,8.939,18.058,9.073,18.058,9.237z M30.814,25.982c0.723,0,2.536-0.853,3.289-1.565V25.4
		c-0.651,0.616-2.403,1.565-3.289,1.565V25.982z M30.814,22.39c0.723,0,2.536-0.853,3.289-1.565v0.983
		c-0.651,0.616-2.403,1.565-3.289,1.565V22.39z M30.814,18.796c0.723,0,2.536-0.853,3.289-1.565v0.983
		c-0.651,0.616-2.403,1.565-3.289,1.565V18.796z M30.814,15.204c0.723,0,2.536-0.853,3.289-1.565v0.983
		c-0.651,0.616-2.403,1.565-3.289,1.565V15.204z M30.814,11.611c0.723,0,2.536-0.853,3.289-1.565v0.983
		c-0.651,0.616-2.403,1.565-3.289,1.565V11.611z M30.814,8.019c0.723,0,2.536-0.853,3.289-1.565v0.983
		c-0.651,0.616-2.403,1.565-3.289,1.565V8.019z M33.041,4.514c0,0.164-0.325,0.297-0.726,0.297c-0.401,0-0.727-0.133-0.727-0.297
		c0-0.165,0.325-0.298,0.727-0.298C32.715,4.216,33.041,4.35,33.041,4.514z M49.044,24.646c0.723,0,2.536-0.853,3.289-1.565v0.983
		c-0.651,0.616-2.403,1.565-3.289,1.565V24.646z M49.044,21.053c0.723,0,2.536-0.853,3.289-1.565v0.984
		c-0.651,0.616-2.403,1.565-3.289,1.565V21.053z M49.044,17.46c0.723,0,2.536-0.853,3.289-1.565v0.983
		c-0.651,0.616-2.403,1.565-3.289,1.565V17.46z M49.044,13.867c0.723,0,2.536-0.853,3.289-1.565v0.983
		c-0.651,0.616-2.403,1.565-3.289,1.565V13.867z M49.044,10.274c0.723,0,2.536-0.853,3.289-1.565v0.984
		c-0.651,0.616-2.403,1.565-3.289,1.565V10.274z M49.044,6.682c0.723,0,2.536-0.853,3.289-1.565V6.1
		c-0.651,0.616-2.403,1.565-3.289,1.565V6.682z M51.271,3.177c0,0.165-0.325,0.298-0.727,0.298c-0.401,0-0.727-0.133-0.727-0.298
		c0-0.164,0.326-0.297,0.727-0.297C50.945,2.88,51.271,3.013,51.271,3.177z M67.625,25.927c0.724,0,2.536-0.853,3.289-1.565v0.983
		c-0.651,0.616-2.403,1.565-3.289,1.565V25.927z M67.625,22.334c0.724,0,2.536-0.853,3.289-1.565v0.983
		c-0.651,0.616-2.403,1.565-3.289,1.565V22.334z M67.625,18.741c0.724,0,2.536-0.853,3.289-1.565v0.983
		c-0.651,0.616-2.403,1.565-3.289,1.565V18.741z M67.625,15.148c0.724,0,2.536-0.853,3.289-1.565v0.983
		c-0.651,0.616-2.403,1.565-3.289,1.565V15.148z M67.625,11.556c0.724,0,2.536-0.853,3.289-1.565v0.983
		c-0.651,0.616-2.403,1.565-3.289,1.565V11.556z M67.625,7.963c0.724,0,2.536-0.853,3.289-1.565v0.983
		c-0.651,0.616-2.403,1.565-3.289,1.565V7.963z M69.852,4.459c0,0.164-0.326,0.297-0.727,0.297c-0.401,0-0.727-0.133-0.727-0.297
		c0-0.165,0.325-0.298,0.727-0.298C69.526,4.161,69.852,4.294,69.852,4.459z M82.647,32.289c0.724,0,2.536-0.853,3.289-1.565v0.984
		c-0.651,0.616-2.403,1.565-3.289,1.565V32.289z M82.647,28.696c0.724,0,2.536-0.853,3.289-1.565v0.983
		c-0.651,0.616-2.403,1.565-3.289,1.565V28.696z M82.647,25.104c0.724,0,2.536-0.853,3.289-1.565v0.983
		c-0.651,0.616-2.403,1.565-3.289,1.565V25.104z M82.647,21.511c0.724,0,2.536-0.853,3.289-1.565v0.983
		c-0.651,0.616-2.403,1.565-3.289,1.565V21.511z M82.647,17.918c0.724,0,2.536-0.853,3.289-1.565v0.983
		c-0.651,0.616-2.403,1.565-3.289,1.565V17.918z M82.647,14.325c0.724,0,2.536-0.853,3.289-1.565v0.984
		c-0.651,0.616-2.403,1.565-3.289,1.565V14.325z M84.874,10.821c0,0.165-0.326,0.298-0.727,0.298c-0.401,0-0.727-0.133-0.727-0.298
		c0-0.164,0.325-0.297,0.727-0.297C84.548,10.523,84.874,10.657,84.874,10.821z M74.016,38.951c0.723,0,2.536-0.853,3.289-1.565
		v0.983c-0.651,0.616-2.403,1.565-3.289,1.565V38.951z M74.016,35.359c0.723,0,2.536-0.853,3.289-1.565v0.983
		c-0.651,0.616-2.403,1.565-3.289,1.565V35.359z M74.016,31.766c0.723,0,2.536-0.853,3.289-1.565v0.983
		c-0.651,0.616-2.403,1.565-3.289,1.565V31.766z M74.016,28.173c0.723,0,2.536-0.853,3.289-1.565v0.983
		c-0.651,0.616-2.403,1.565-3.289,1.565V28.173z M74.016,24.58c0.723,0,2.536-0.853,3.289-1.565v0.983
		c-0.651,0.616-2.403,1.565-3.289,1.565V24.58z M74.016,20.987c0.723,0,2.536-0.853,3.289-1.565v0.983
		c-0.651,0.616-2.403,1.565-3.289,1.565V20.987z M76.242,17.483c0,0.164-0.325,0.297-0.727,0.297s-0.727-0.133-0.727-0.297
		c0-0.165,0.325-0.298,0.727-0.298S76.242,17.319,76.242,17.483z M44.979,41.792c0.724,0,2.536-0.853,3.289-1.565v0.983
		c-0.651,0.616-2.403,1.565-3.289,1.565V41.792z M44.979,38.2c0.724,0,2.536-0.853,3.289-1.565v0.983
		c-0.651,0.616-2.403,1.565-3.289,1.565V38.2z M44.979,34.607c0.724,0,2.536-0.853,3.289-1.565v0.983
		c-0.651,0.616-2.403,1.565-3.289,1.565V34.607z M44.979,31.014c0.724,0,2.536-0.853,3.289-1.565v0.983
		c-0.651,0.616-2.403,1.565-3.289,1.565V31.014z M44.979,27.421c0.724,0,2.536-0.853,3.289-1.565v0.983
		c-0.651,0.616-2.403,1.565-3.289,1.565V27.421z M44.979,23.829c0.724,0,2.536-0.853,3.289-1.565v0.983
		c-0.651,0.616-2.403,1.565-3.289,1.565V23.829z M47.206,20.325c0,0.164-0.326,0.297-0.727,0.297c-0.401,0-0.727-0.133-0.727-0.297
		c0-0.165,0.325-0.298,0.727-0.298C46.88,20.027,47.206,20.16,47.206,20.325z M21.945,38.587c0.723,0,2.536-0.853,3.289-1.565v0.983
		c-0.651,0.616-2.403,1.565-3.289,1.565V38.587z M21.945,34.994c0.723,0,2.536-0.853,3.289-1.565v0.984
		c-0.651,0.616-2.403,1.565-3.289,1.565V34.994z M21.945,31.401c0.723,0,2.536-0.853,3.289-1.565v0.983
		c-0.651,0.616-2.403,1.565-3.289,1.565V31.401z M21.945,27.809c0.723,0,2.536-0.853,3.289-1.565v0.984
		c-0.651,0.616-2.403,1.565-3.289,1.565V27.809z M21.945,24.216c0.723,0,2.536-0.853,3.289-1.565v0.984
		c-0.651,0.616-2.403,1.565-3.289,1.565V24.216z M21.945,20.623c0.723,0,2.536-0.853,3.289-1.565v0.983
		c-0.651,0.616-2.403,1.565-3.289,1.565V20.623z M24.171,17.119c0,0.165-0.325,0.298-0.726,0.298c-0.401,0-0.727-0.133-0.727-0.298
		s0.325-0.298,0.727-0.298C23.846,16.821,24.171,16.954,24.171,17.119z"/>
	<path fill="none" stroke="#000000" stroke-width="0.1629" d="M17.395,9.228c-0.076-1.387,0.142-2.414,0.581-3.168 M32.378,4.504
		c-0.076-1.387,0.141-2.414,0.58-3.168 M50.608,3.168C50.532,1.78,50.75,0.754,51.188,0 M69.189,4.449
		c-0.076-1.387,0.142-2.414,0.581-3.168 M84.211,10.812c-0.076-1.387,0.142-2.414,0.581-3.168 M75.58,17.474
		c-0.077-1.387,0.141-2.414,0.58-3.168 M46.543,20.315c-0.076-1.387,0.142-2.414,0.581-3.168 M23.509,17.109
		c-0.076-1.388,0.141-2.414,0.58-3.168"/>
</g>
</svg>
