<?xml version="1.0" encoding="utf-8"?>
<!-- Generator: Adobe Illustrator 16.0.0, SVG Export Plug-In . SVG Version: 6.00 Build 0)  -->
<!DOCTYPE svg PUBLIC "-//W3C//DTD SVG 1.1//EN" "http://www.w3.org/Graphics/SVG/1.1/DTD/svg11.dtd">
<svg version="1.1"
	 id="svg1646" xmlns:cc="http://creativecommons.org/ns#" xmlns:dc="http://purl.org/dc/elements/1.1/" xmlns:rdf="http://www.w3.org/1999/02/22-rdf-syntax-ns#"
	 xmlns="http://www.w3.org/2000/svg" xmlns:xlink="http://www.w3.org/1999/xlink" x="0px" y="0px" width="640px" height="480px"
	 viewBox="0 0 640 480" enable-background="new 0 0 640 480" xml:space="preserve">
<rect id="rect2996" fill="#FFFFFF" width="640" height="480"/>
<path fill="#0000AB" d="M3.227,225.33h319.87v254.66H3.227V225.33z M214.8,177.65l-41.959-29.326l-41.754,29.614l15.529-48.124
	l-41.677-29.716l51.562-0.415l15.993-47.978l16.335,47.867l51.562,0.063l-41.463,29.996L214.8,177.65L214.8,177.65z"/>
<path fill="#DB0000" d="M323.07,3.655h316.5v221.68h-316.5V3.655z M516.85,413.89l-42.354-27.743l-42.146,28.018l15.677-45.529
	l-42.069-28.113l52.047-0.393l16.143-45.391l16.489,45.285l52.047,0.061l-41.853,28.379L516.85,413.89L516.85,413.89z"/>
</svg>
