<?xml version="1.0" encoding="utf-8"?>
<!-- Generator: Adobe Illustrator 16.0.0, SVG Export Plug-In . SVG Version: 6.00 Build 0)  -->
<!DOCTYPE svg PUBLIC "-//W3C//DTD SVG 1.1//EN" "http://www.w3.org/Graphics/SVG/1.1/DTD/svg11.dtd">
<svg version="1.1" id="Layer_1" xmlns="http://www.w3.org/2000/svg" xmlns:xlink="http://www.w3.org/1999/xlink" x="0px" y="0px"
	 width="308px" height="279.021px" viewBox="-4 -4 308 279.021" enable-background="new -4 -4 308 279.021" xml:space="preserve">
<path fill="none" stroke="#000000" stroke-width="10" d="M4.333,266.666c0-1.854,2.237-3.355,5-3.355c2.762,0,5,1.502,5,3.355
	c0,1.854-2.238,3.355-5,3.355C6.571,270.021,4.333,268.521,4.333,266.666z M14.583,242.556c0-4.636,5.594-8.39,12.5-8.39
	c6.906,0,12.5,3.754,12.5,8.39c0,4.635-5.594,8.389-12.5,8.389C20.177,250.944,14.583,247.19,14.583,242.556z M38.333,206
	c0-12.814,19.467-23.194,43.5-23.194c24.033,0,43.5,10.38,43.5,23.194c0,12.815-19.467,23.194-43.5,23.194
	C57.8,229.194,38.333,218.815,38.333,206z M1,101C1,45.752,67.68,1,150,1s149,44.751,149,100s-66.68,100-149,100S1,156.249,1,101z"
	/>
</svg>
