<?xml version="1.0" encoding="utf-8"?>
<!-- Generator: Adobe Illustrator 16.0.0, SVG Export Plug-In . SVG Version: 6.00 Build 0)  -->
<!DOCTYPE svg PUBLIC "-//W3C//DTD SVG 1.1//EN" "http://www.w3.org/Graphics/SVG/1.1/DTD/svg11.dtd">
<svg version="1.1" id="Layer_1" xmlns="http://www.w3.org/2000/svg" xmlns:xlink="http://www.w3.org/1999/xlink" x="0px" y="0px"
	 width="100px" height="100px" viewBox="0 0 100 100" enable-background="new 0 0 100 100" xml:space="preserve">
<path d="M51.621,1.29c0,0-2.831-0.666-3.999-0.083c-1.165,0.583-1.833,2.833-1.749,3.666c0.083,0.833-0.75,1.417-0.75,1.75
	s-0.668,1,0,0.333c0.666-0.666,1.332-1.833,1-0.999c-0.334,0.832-0.167,1.915-0.167,1.915s-0.5,0.167-0.583,1.083
	s0.75,2.083,1,2.083s0.25,1,0.25,1.582c0,0.584-0.083,1.667-0.583,1.501c-0.5-0.167-0.667,0.75-1.25,0.833s-2.415,0.333-3.417,0
	c-1-0.333-2.333-0.417-2.916,0.417c-0.583,0.833-0.25,1.667-1,2.083s-2.166,1.833-3.082,2.416c-0.917,0.584-3.083,1.5-3.666,2.083
	s-0.582,0.5-1.25,0.5c-0.667,0-0.583-0.333-1.417-0.166c-0.832,0.166-0.417-0.917-1.25-1.749c-0.832-0.834-0.999-1.084-1.999-1.917
	c-1-0.832-2.583-2.499-2.916-2.999s-0.834-0.5-0.834-0.5s-0.666-0.667-1.916-0.833s-3.792,0.126-4.333,0.084
	c-0.542-0.042-1-0.541-1.375-0.917c-0.375-0.375-0.625-0.375-0.708-0.125c-0.083,0.251,0.083,0.417,0.458,0.834s0.332,0.625,0,0.375
	c-0.333-0.25-1.541-0.708-1.958-0.75c-0.417-0.041-0.499,0.75,0,0.792c0.5,0.042,1.542,0.666,1.125,0.625
	c-0.417-0.042-0.75-0.042-1.083-0.251c-0.333-0.208-0.374,0.5,0.208,0.709c0.583,0.207,1.79,0.499,2.207,0.624
	s1.292,0.25,2.499,0.25c1.209,0,2.292,0,2.626,0.082c0.333,0.083,0.542,0.375,0.542,0.375s-1.376,1.208-1.667,1.458
	s-0.624,0.583,0.042,1.167c0.667,0.584,5.791,5.831,7.665,7.666c1.875,1.832,3.541,2.081,4.499,1.624
	c0.958-0.458,3.707-1.709,4.666-2.125c0.958-0.416,2.666-1.125,3.207-1.499c0.542-0.375,0.584,0.083,0.584,1.041
	c0,0.959,0.458,4.124,0.541,5.165c0.084,1.042,0.042,1.875-0.458,2.749c-0.5,0.875-2.041,3.626-2.5,5
	c-0.458,1.375-2.583,6.416-2.791,7.291s0.584,1.375,0.584,1.375s-0.624,4.831-1.083,6.664s-0.833,3.373-0.084,3.833
	c0.75,0.458,2.292,0.792,2.292,0.792s0.333,3.623,0.5,5.873c0.167,2.248-0.333,6.289-0.208,8.955s2.333,13.371,2.5,14.828
	c0.167,1.459-0.25,1.459-0.417,2.041c-0.166,0.584-0.041,1.17-0.166,2.293c-0.126,1.125-0.709,2.791-0.625,3.957
	c0.083,1.168,1.208,2.457,2.832,2.207c1.624-0.248,1.917-1.457,2-3.207c0.084-1.75,0.042-3.789,0.042-4
	c0-0.207,0.334,0.418,0.334,0.543s0.292-0.207,0.25-0.793c-0.042-0.582-0.208-0.666-0.291-1.166c-0.084-0.5-0.209-1.625-0.417-1.914
	c-0.209-0.293-0.333-1.002-0.458-1.793s-0.334-10.789-0.084-13.203c0.25-2.416,0.375-2.959,0.75-4.709
	c0.375-1.748,0.125-3.666,0.125-4.455c0-0.793-0.083-3.375-0.083-3.375l1.874,0.5c0,0-0.707,6.623,0.126,9.33
	c0.833,2.709,3.707,4.998,5.748,8.416c2.042,3.414,4.5,7.33,5.083,9.621s1.209,4.664,1.209,5.5c0,0.83,0.415,2.791,0.457,3.207
	c0.042,0.414,0.625,1.207,0.709,1.33c0.083,0.125,0.498,0.543,1.041,0.209c0.541-0.332,3.666-3.498,3.331-5.082
	c-0.333-1.58-0.831-2.209-0.916-2.707c-0.083-0.5-0.083-0.834-0.083-0.834l0.293,0.584l0.207-0.75c0,0-0.626-1.166-0.626-1.625
	c0-0.457,0.085-2.414-1.04-3.123c-1.124-0.707-1.874-0.459-2.332-1.666c-0.458-1.209-2.041-7.873-3.582-9.871
	c-1.543-2.002-2.375-2.416-2.834-3.125c-0.458-0.709,0.042-4.957,0.167-6.041c0.125-1.082,0.333-1.957,0.458-1.957
	c0.124,0,0.707,0.5,0.707-0.5s0.793-5.873,0.957-7.289c0.167-1.418,0.211-3.248,0.211-3.248s1.457,0.082,1.748-0.293
	c0.292-0.374,0.209-0.958,0.376-2.082c0.166-1.125,0.25-6.916,0.25-6.916s0.332-0.25,0.373-1c0.043-0.75-0.124-2.958-0.165-3.832
	c-0.042-0.875,0.375-3.458,1.124-4.624c0.75-1.167,1.916-3.374,2.083-4.082c0.166-0.709,0.707-1.084,1.29-0.874
	c0.584,0.208,3.791,2.666,5.041,3.748c1.249,1.085,2.041,0.958,3.457,1.042c1.419,0.083,1.875-0.667,3.791-1.792
	c1.916-1.123,7.123-3.414,8.162-3.872c1.043-0.459,1.252-0.543,0.836-1.167c-0.418-0.625-1.002-1.417-1.168-1.625
	c-0.168-0.209,0.375-0.084,0.959-0.084c0.582,0,2.248,0.708,3.25,1.375c0.998,0.666,2.705,0.458,3.664,0.333
	c0.959-0.126,0.875-0.625,0.334-0.625s-1.875-0.25-0.875-0.25s2.457-0.334,2.166-0.708c-0.291-0.375-0.666-0.167-0.666-0.167
	s0.332-0.792-0.334-0.792c-0.668,0-2.039,0.333-2.707,0.249c-0.666-0.082-0.209-0.249,0.209-0.5c0.416-0.25,1.914-0.542,1.998-0.666
	c0.084-0.125,0-0.5-0.75-0.375s-2.539,0.499-3.207,0.208c-0.668-0.292-2.207-1.083-3.166-1.249
	c-0.957-0.167-1.875,0.749-1.875,0.749s-0.459-0.542-0.956-0.125c-0.501,0.416-3.999,2.748-5.416,3.665
	c-1.416,0.916-2.415,0.666-3.206,0.958c-0.792,0.292-1.25,0.583-1.833,0.334c-0.585-0.251-0.251-1.125-0.668-1.583
	c-0.418-0.458-1.081-0.875-1.499-1.125s-2.166-1.791-2.999-2.749c-0.833-0.957-1.416-1.792-1.542-2.499
	c-0.124-0.708,0.042-1.874-2.082-2.374s-3.873-0.375-4.374-0.875c-0.499-0.5-0.792-1-0.956-1.208
	c-0.168-0.209-0.377-0.375-0.377-0.375s0.334-2.167,0.584-2.5s0.583-0.75,0.625-0.958c0.043-0.207,0.291,0,0.584-0.583
	c0.291-0.583,0.499-1.958,0.374-2.29c-0.125-0.334,0.874,0,0.542-0.584c-0.333-0.583-0.333-1.249-0.333-1.916S54.413,2.708,53.496,2
	C52.581,1.29,51.829,1.457,51.621,1.29z"/>
</svg>
