<?xml version="1.0" encoding="utf-8"?>
<!-- Generator: Adobe Illustrator 16.0.0, SVG Export Plug-In . SVG Version: 6.00 Build 0)  -->
<!DOCTYPE svg PUBLIC "-//W3C//DTD SVG 1.1//EN" "http://www.w3.org/Graphics/SVG/1.1/DTD/svg11.dtd">
<svg version="1.1" id="Layer_1" xmlns="http://www.w3.org/2000/svg" xmlns:xlink="http://www.w3.org/1999/xlink" x="0px" y="0px"
	 width="100px" height="100px" viewBox="0 0 100 100" enable-background="new 0 0 100 100" xml:space="preserve">
<path d="M84.334,65.936c-0.727-2.315-0.859-3.174-0.66-7.01s0.727-6.877,0.794-9.127c0.197-0.662-0.198-1.057-0.198-1.917
	c0-0.86,0.198-3.902,0.198-4.365s-0.397-1.125-0.464-1.785c-0.064-0.661-0.131-1.521,0.131-2.183
	c0.266-0.661-0.132-1.321-0.594-1.917c-0.462-0.596-0.266-1.256-0.596-1.984s-0.528-1.455-0.33-2.512
	c0.197-1.058-0.596-3.107-1.785-3.901c-1.189-0.793-1.454-1.257-1.785-1.454c-0.33-0.199-0.463-0.266-0.729-0.529
	c-0.266-0.265-0.924-1.323-0.924-1.323s0.857-0.199,0.396-1.059c-0.463-0.858-0.86-2.313-1.322-3.041
	c-0.464-0.728-0.528-0.728-0.993-1.389c-0.461-0.661-1.123-2.446-2.511-3.702c-1.39-1.256-1.853-1.786-2.313-2.249
	c-0.465-0.463-1.258-1.124-2.184-1.852c-0.927-0.727-3.77-1.719-3.77-1.719s-1.918-2.976-3.307-3.836
	c-1.391-0.86-2.314-0.925-2.314-0.925s-1.123-1.059-2.182-1.852S55.238,3.18,55.04,3.512C54.381,3.116,52.596,1,51.075,1
	c-1.521,0-2.778,2.116-2.778,2.116s-6.545-0.264-7.736-0.331c-1.19-0.065-2.579,0-3.439-0.463c-0.859-0.462-2.646-0.33-3.967-0.265
	c-1.322,0.067-2.646-0.131-3.703-0.198c-1.057-0.067-3.174-0.528-3.636,0.463c0,0-2.579-0.528-3.704-0.595
	c-1.124-0.065-1.72-0.33-3.901-0.33c-2.183,0-4.563,0.462-5.422,1.189c-0.86,0.728-2.777,4.43-0.067,5.621
	c2.712,1.19,4.894,0.265,6.547,0c1.652-0.264,2.645,0.332,3.834,0.529c1.19,0.198,1.852,0,2.843,0c0.992,0,0.926,0.198,0.992,0.462
	c0.067,0.266,1.918,2.844,3.505,4.298c1.587,1.455,2.116,0.53,2.777,0.265c0.661-0.265,3.901-1.852,4.297-2.116
	c0.397-0.264,1.455,0.198,2.381,0.529c0.925,0.331,2.05,0.792,2.578,0.792c0.529,0,0.861,0.133,1.587,0.596
	c0.727,0.463,1.323,0.794,0.993,1.322c-0.332,0.53-0.86,1.984-0.86,3.175c0,1.189-1.785,4.828-1.72,6.347
	c0.066,1.521,0.794,3.704,0.794,4.894c0,1.191,1.124,1.984,1.521,2.645c0.397,0.661,0.596,2.91,3.175,4.497
	c2.579,1.586,6.017,1.389,7.009,1.389c0.991,0,1.455,0,1.455,0s-0.729,3.967-0.066,7.208c0.662,3.24,0.859,5.091,1.916,6.876
	c1.06,1.785,1.59,3.637,1.59,3.637s-0.135,0.466,0.594,1.324c0.729,0.856,0.926,1.39,0.926,1.39s-1.851,1.586-2.248,2.774
	c-0.396,1.188-1.058,1.521-1.652,2.25c-0.596,0.726-0.463,2.379-0.926,3.041c-0.463,0.66-0.597,1.453-0.33,2.114
	c0.265,0.662,0,1.785,0,2.382c0,0.594,0.66,1.059,0.265,1.455c-0.397,0.395-0.529,0.725-0.197,0.725
	c0.329,0,0.396,0.334-0.067,0.599c-0.463,0.264-1.189,0.396-0.463,0.264c0.729-0.131,0.463,0.332,0.463,0.332
	s-0.528,1.125-0.133,0.66c0.397-0.463,0.928-0.859,0.728-0.33c-0.197,0.529-0.265,0.99-0.065,0.793
	c0.198-0.197,0.795-1.322,0.529-0.197c-0.264,1.123-0.066,1.586,0.463,0.395c0.528-1.188,0.198,0.199,0.331,0.531
	c0.133,0.33,0.99,1.32,1.321,2.115c0.33,0.793,0.529,0.594,1.189,1.322c0.662,0.727,0.662,1.189,0.662,0.727
	c0-0.461,0.266-0.727,0.396-0.33c0.134,0.396,0.265,0.793,0.265,0.793s-0.131-1.188,0.199-0.529
	c0.329,0.662,0.329,0.398,0.595,1.125c0.264,0.729,0.991,1.455,0.661,0.729c-0.331-0.729-0.065-1.19,0.331-0.465
	c0.396,0.729,0.992,0.926,1.852,0.994c0.859,0.063,1.721-0.199,0.53-0.332c-1.192-0.134-1.06,0-1.588-0.529
	c-0.528-0.526,0-0.33,0.858-0.33c0.859,0,1.059,0.002,1.39-0.727c0.331-0.729,0.793-1.589,0.331-0.729
	c-0.465,0.859-0.729,1.457-1.521,0.859c-0.793-0.596-0.529-0.99-0.33-1.652c0.197-0.662,1.389-1.256,0.86-0.596
	c-0.53,0.662-0.729,1.455-0.397,0.926c0.33-0.529,0.595-0.064,1.059-0.596c0.462-0.527,0.331-1.322,0.462-0.527
	c0.134,0.793,1.522,1.652,1.124,0.99c-0.396-0.662-0.264-1.719,0.134-1.256s1.785,0.727,0.99,0.066
	c-0.792-0.662-0.792-0.795-0.265-1.06c0.529-0.265,0.992-0.063,1.455-0.197c0.463-0.133,1.059,0.595,0.463-0.133
	c-0.594-0.729,0.065-0.463,0.596-0.926c0.529-0.463,1.322-0.396,0.66-0.927c-0.66-0.528-0.727-0.991-0.33-1.059
	c0.396-0.066,0.794-0.795,0.794-0.795s0.265-0.197,0.794-0.66c0.529-0.461,0.33-1.256,0-1.52c-0.33-0.266,1.521-2.049,0.529-1.52
	c-0.992,0.526-0.859,0.327-0.795-0.466c0.066-0.793,0.463-1.256,0.596-2.114c0.132-0.859,0.396-2.117,0-2.447
	c-0.396-0.332-0.464-0.729-0.133-0.662c0.33,0.066,1.059-0.264,1.059,0.598c0,0.857,0.859,2.512,1.521,3.898
	c0.662,1.389,0.793,3.438,0.858,7.076c0.066,3.637-0.661,6.281-0.661,7.936c0,1.652,0.596,3.969-0.065,7.338
	c-0.66,3.373-0.793,5.557-1.455,5.887c-0.659,0.33-2.513,0.33-3.437,0.396c-0.929,0.064-1.19,0.396-2.25,0.596
	c-1.059,0.197-2.777,0.463-3.24,0.529c-0.463,0.064-0.728,0.328-0.728,0.328s-0.397,0.266-0.661,0.598
	c-0.264,0.33-0.197,0.396,1.322,0.197c0.132,0.395,0.926,0.395,1.786,0.33c0.858-0.064,2.38-0.131,2.579-0.064
	c0.197,0.064,0.925,0.396,1.916,0.197c0.992-0.197,2.249,0.131,3.572,0.197c1.32,0.066,2.379-0.131,2.512-0.99
	s2.051-4.365,3.24-7.01c1.189-2.646,1.123-6.613,1.189-8.266c0.064-1.652,0.795-4.433,0.993-6.744
	C84.068,74.33,85.063,68.248,84.334,65.936z M55.307,22.359c-0.596,0-1.19,0.132-1.19,0.661c0,0.53-0.396,0.793-0.925,1.256
	c-0.528,0.462-0.596-0.925-0.528-1.454c0.065-0.53-0.332-1.323-0.134-1.853c0.199-0.53,1.721-1.852,1.721-1.852
	c0.462-0.132,0.132,0.199,0.661,0.661c0.526,0.463,0.463,0.86,1.587,1.653C57.619,22.226,55.902,22.359,55.307,22.359z"/>
</svg>
