<?xml version="1.0" encoding="utf-8"?>
<!-- Generator: Adobe Illustrator 16.0.3, SVG Export Plug-In . SVG Version: 6.00 Build 0)  -->
<!DOCTYPE svg PUBLIC "-//W3C//DTD SVG 1.1//EN" "http://www.w3.org/Graphics/SVG/1.1/DTD/svg11.dtd">
<svg version="1.1"
	 id="svg2" xmlns:inkscape="http://www.inkscape.org/namespaces/inkscape" xmlns:rdf="http://www.w3.org/1999/02/22-rdf-syntax-ns#" xmlns:cc="http://creativecommons.org/ns#" xmlns:dc="http://purl.org/dc/elements/1.1/" xmlns:sodipodi="http://sodipodi.sourceforge.net/DTD/sodipodi-0.dtd" xmlns:ns1="http://sozi.baierouge.fr" inkscape:version="0.48.1 " sodipodi:docname="beerbarrel.svg"
	 xmlns="http://www.w3.org/2000/svg" xmlns:xlink="http://www.w3.org/1999/xlink" x="0px" y="0px" width="287.997px"
	 height="171.977px" viewBox="-0.003 130.132 287.997 171.977" enable-background="new -0.003 130.132 287.997 171.977"
	 xml:space="preserve">
<path d="M88.393,301.765c0.216-0.216,0.775-0.238,1.244-0.051c0.518,0.207,0.364,0.36-0.392,0.392
	C88.561,302.133,88.177,301.98,88.393,301.765z M79.784,300.916c0-0.445-0.603-0.578-1.551-0.341
	c-0.853,0.214-1.746,0.073-1.984-0.312c-0.238-0.386-0.105-0.701,0.295-0.701c0.401,0,2.324-0.73,4.274-1.622
	c1.95-0.892,3.82-1.622,4.155-1.622s0.441-0.438,0.235-0.973c-0.225-0.588-0.003-0.973,0.561-0.973c0.968,0,1.125,1.711,0.282,3.074
	c-0.266,0.43-1.638,1.128-3.05,1.551c-4.16,1.246-2.938,1.781,1.811,0.792c2.408-0.501,6.875-1.181,9.925-1.509
	c5.674-0.612,9.036-1.541,9.747-2.691c0.22-0.356,3.121-0.766,6.446-0.911c3.539-0.154,5.799-0.024,5.451,0.313
	c-0.327,0.318-2.614,0.674-5.083,0.79c-6.066,0.286-6.399,1.567-0.575,2.21c4.252,0.468,4.331,0.508,2.144,1.092
	c-1.455,0.389-3.784,0.363-6.487-0.07c-4.639-0.746-15.558-0.256-14.154,0.635c0.471,0.299,2.17,0.581,3.775,0.629l2.919,0.085
	l-3.568,0.593c-2.501,0.416-3.988,0.369-4.975-0.156c-1.315-0.701-7.392-0.381-9.722,0.514
	C80.176,301.496,79.784,301.319,79.784,300.916z M48.647,300.211c-0.892-0.285-3.044-0.549-4.782-0.584
	c-2.732-0.057-3.051-0.197-2.353-1.037c0.444-0.535,1.624-0.974,2.621-0.974c2.344,0,3.955-0.628,3.5-1.365
	c-0.202-0.326,2.268-0.581,5.625-0.581c3.292,0,5.836,0.148,5.655,0.329c-0.311,0.311-6.374,1.306-12.861,2.11
	c-2.918,0.361-2.917,0.362,2.595,1.492c3.033,0.623,4.638,1.131,3.568,1.13S49.54,300.496,48.647,300.211z M71.352,298.197
	c4.121-1.893,5.838-2.858,5.838-3.285c0-1.079-1.326-1.122-3.348-0.108c-4.07,2.04-4.42,2.163-6.157,2.163
	c-2.417,0-1.41-0.785,2.57-2.004c2.042-0.625,3.292-1.359,3.178-1.865c-0.136-0.598,0.32-0.713,1.622-0.407
	c0.996,0.234,3.058,0.601,4.583,0.815c3.327,0.469,4.303,1.516,1.414,1.516c-1.521,0-1.96,0.242-1.695,0.934
	c0.412,1.074-2.123,2.068-6.707,2.629C70.091,298.897,69.93,298.85,71.352,298.197L71.352,298.197z M157.703,298.429
	c-4.568-0.144-7.171-0.517-8.09-1.161c-1.295-0.906-1.25-0.949,1.021-0.949c1.307,0,2.557,0.293,2.777,0.648
	c0.22,0.357,2.791,0.675,5.713,0.706c2.923,0.031,6.773,0.284,8.557,0.562l3.244,0.506l-3.244-0.05
	C165.898,298.662,161.408,298.545,157.703,298.429z M116.761,296.951c0-0.348,0.766-0.633,1.701-0.633
	c1.499,0,1.597-0.125,0.824-1.057c-0.786-0.947-0.676-1.017,1.056-0.664c4.683,0.953,16.27,1.811,19.024,1.408
	c2.395-0.352,2.856-0.276,2.234,0.361c-0.737,0.758-3.842,0.825-17.38,0.383c-1.784-0.059-4.192,0.104-5.352,0.363
	C117.61,297.395,116.76,297.328,116.761,296.951L116.761,296.951z M144.816,297.169c0.624-0.163,1.646-0.163,2.27,0
	c0.625,0.163,0.114,0.297-1.135,0.297C144.703,297.466,144.192,297.332,144.816,297.169z M25.297,296.242
	c3.257-1.066,22.074-3.05,23.854-2.514c1.511,0.455,1.31,0.541-1.381,0.588c-2.521,0.045-3.076,0.251-2.777,1.029
	c0.455,1.186-2.211,1.35-4.245,0.262c-0.947-0.508-2.102-0.517-4.012-0.031C33.475,296.404,22.926,297.019,25.297,296.242z
	 M143.713,295.756c0.339-0.31,1.638-0.727,2.886-0.928l2.271-0.365l-1.946,0.898C144.711,296.384,142.765,296.623,143.713,295.756z
	 M93.246,294.592c0.446-0.18,1.176-0.18,1.622,0c0.446,0.18,0.082,0.327-0.811,0.327S92.8,294.771,93.246,294.592z M98.273,294.373
	c-1.766-0.449-1.796-0.498-0.324-0.527c0.892-0.016,2.206,0.221,2.919,0.527C102.468,295.061,100.975,295.061,98.273,294.373z
	 M136.046,294.596c0.439-0.178,1.315-0.188,1.946-0.023c0.631,0.164,0.272,0.31-0.798,0.322
	C136.124,294.908,135.607,294.773,136.046,294.596z M140.938,294.629c0.216-0.215,0.775-0.238,1.243-0.051
	c0.518,0.207,0.364,0.361-0.392,0.393C141.105,294.998,140.722,294.846,140.938,294.629z M56.11,293.725
	c0.714-0.307,4.216-0.549,7.784-0.539c4.191,0.013,5.913,0.203,4.865,0.539C66.504,294.446,54.429,294.446,56.11,293.725z
	 M117.41,293.064c-3.033-0.252-6.974-0.348-8.757-0.211l-3.243,0.248l2.919-1.027c1.605-0.566,3.94-1.017,5.189-1.002
	c2.642,0.029,8.478,1.351,9.374,2.121c0.339,0.292,0.485,0.486,0.324,0.43C123.055,293.568,120.442,293.316,117.41,293.064z
	 M130.238,292.6c1.526-0.137,3.861-0.135,5.189,0.006s0.08,0.252-2.774,0.25c-2.854,0-3.941-0.117-2.416-0.254V292.6z
	 M37.62,291.129c-0.535-0.346-1.886-0.633-3.002-0.639s-2.392-0.447-2.836-0.982c-1.2-1.445,0.675-1.264,6.487,0.629
	c4.093,1.332,4.505,1.586,2.595,1.603C39.615,291.75,38.155,291.475,37.62,291.129z M46.053,291.129
	c-1.193-0.771,2.605-0.785,7.46-0.029c3.183,0.496,3.152,0.507-1.622,0.582C49.215,291.724,46.588,291.475,46.053,291.129z
	 M69.231,291.353c0.439-0.178,1.315-0.188,1.946-0.024c0.631,0.165,0.272,0.311-0.798,0.324
	C69.308,291.664,68.792,291.53,69.231,291.353z M86.271,291.02c-1.605-0.33-3.941-0.928-5.189-1.325s-4.022-0.697-6.163-0.665
	c-2.693,0.04-3.493-0.113-2.595-0.497c0.714-0.306,2.076-0.575,3.028-0.601c4.503-0.119,5.143-1.973,0.702-2.035
	c-2.763-0.04-2.914-0.114-1.459-0.723c3.306-1.382,6.212-2.395,7.946-2.768c0.981-0.211,1.784-0.703,1.784-1.094
	c0-0.834-1.534-0.601-8.893,1.35c-4.886,1.295-6.36,1.381-17.839,1.041c-6.882-0.203-14.702-0.395-17.378-0.424
	s-4.281-0.184-3.568-0.342c8.066-1.794,12.649-3.083,12.649-3.557c0-0.929-16.813-0.67-20.086,0.309
	c-2.789,0.834-2.841,0.896-1.411,1.661c0.886,0.474,2.578,0.644,4.194,0.421c2.884-0.398,2.432-0.069-2.481,1.805l-2.595,0.99
	l5.189,0.104c2.854,0.057,7.744,0.096,10.865,0.087c3.122-0.009,5.676,0.24,5.676,0.554c0,0.772-4.154,1.503-6.258,1.102
	c-2.296-0.439-11.527,0.741-11.797,1.509c-0.119,0.337-2.016,0.609-4.216,0.604c-5.032-0.013-3.811-1.03,1.979-1.65
	c2.241-0.24,4.075-0.711,4.075-1.046c0-0.932-12.435-0.057-15.893,1.119c-1.651,0.561-3.343,0.905-3.76,0.766
	c-0.417-0.139,1.719-0.893,4.745-1.676s6.378-1.68,7.449-1.991c1.92-0.561,1.911-0.569-0.653-0.634
	c-1.43-0.037-3.537,0.202-4.684,0.531c-1.146,0.328-2.896,0.374-3.888,0.101l-1.803-0.497l2.143-0.484
	c2.912-0.658,2.251-2.016-0.914-1.877c-1.39,0.061-1.942-0.04-1.229-0.225c2.053-0.531,2.521-1.341,1.045-1.809
	c-0.745-0.236-3.551,0.172-6.235,0.908c-5.278,1.447-8.757,1.723-8.757,0.689c0-0.356,0.844-0.648,1.876-0.648
	s4.084-0.456,6.783-1.014c4.639-0.96,5.234-0.944,10.918,0.288c3.307,0.717,6.166,1.067,6.353,0.778
	c0.188-0.288,2.53-1.215,5.206-2.059c4.453-1.404,4.7-1.57,2.919-1.958c-1.914-0.416-1.906-0.425,0.437-0.499
	c3.143-0.102,9.123-1.431,9.941-2.209c0.412-0.392-1.072-0.457-4.054-0.177c-4.393,0.411-4.703,0.356-4.703-0.835
	c0-0.939,0.8-1.549,3.035-2.31c3.621-1.233,3.654-1.237,3.069-0.29c-0.328,0.529,0.08,0.607,1.421,0.273
	c2.76-0.689,10.927-4.338,11.178-4.994c0.302-0.787,3.352-0.71,3.352,0.084c0,0.357,0.511,0.645,1.135,0.64
	c0.884-0.008,0.94-0.134,0.255-0.567c-0.484-0.307-0.628-0.714-0.32-0.904c0.963-0.595,10.111,0.078,10.831,0.797
	c0.479,0.48,0.209,0.705-0.905,0.752c-1.256,0.055-1.044,0.248,1.005,0.924c1.452,0.479,2.023,0.875,1.297,0.9
	c-0.713,0.025-2.133-0.39-3.155-0.923c-2.396-1.25-2.32-1.258-6.718,0.698l-3.749,1.666l1.532,1.252
	c1.95,1.596,2.882,1.599,2.377,0.008c-0.285-0.899-0.014-1.366,0.979-1.682c0.755-0.239,1.546-0.263,1.757-0.052
	s0.043,0.384-0.373,0.384c-0.417,0-0.757,0.265-0.757,0.588c0,0.611,3.88,1.157,12.487,1.756c3.753,0.261,5.027,0.584,5.027,1.273
	c0,0.508-0.597,0.924-1.326,0.924c-0.903,0-1.265,0.361-1.135,1.135c0.253,1.506-3.487,1.848-9.215,0.844
	c-2.319-0.407-6.448-0.8-9.177-0.873c-4.878-0.131-4.924-0.147-2.757-1.014c1.212-0.484,2.204-1.141,2.204-1.459
	c0-0.783-1.103-0.729-2.715,0.134c-0.969,0.519-1.213,0.519-0.892,0c0.264-0.428-0.079-0.714-0.856-0.714
	c-1.875,0-2.269-1.09-0.559-1.546c2.327-0.62,3.15-1.397,2.707-2.555c-0.481-1.253-2.005-1.046-7.252,0.987
	c-5.169,2.002-4.069,2.538,1.547,0.754c2.724-0.864,5.066-1.459,5.205-1.32c0.231,0.231-5.162,2.299-8.764,3.36
	c-1.086,0.319-1.325,0.649-0.829,1.146s1.182,0.475,2.384-0.072c1.716-0.783,2.888-0.537,2.888,0.604
	c0,0.348-0.657,0.895-1.459,1.218c-1.393,0.56-1.376,0.589,0.362,0.628c2.62,0.059,1.481,1.338-1.191,1.338
	c-1.699,0-2.125-0.225-1.838-0.973c0.206-0.535,0.184-0.973-0.049-0.973c-1.354,0-8.797,2.184-8.797,2.58
	c0,0.691,8.332,1.355,11.177,0.893c1.401-0.229,2.248-0.673,2.012-1.055c-0.271-0.439,1.203-0.521,4.391-0.248
	c2.64,0.227,7.491,0.603,10.78,0.836c6.596,0.469,7.559,1.535,1.387,1.535c-2.845,0-3.831,0.22-3.625,0.811
	c0.186,0.529,1.495,0.778,3.784,0.717c5.455-0.146,16.798-1.661,16.798-2.243c0-0.288-1.095-0.705-2.433-0.928
	c-3.917-0.651-4.594-0.999-3.082-1.583c0.714-0.275,2.611-0.694,4.217-0.932c2.8-0.412,2.853-0.391,1.297,0.533l-1.622,0.965
	l2.218,0.46l2.218,0.46l-1.894,1.516l-1.894,1.516l1.946-0.008c3.956-0.012,6.432-1.429,3.73-2.135
	c-0.625-0.163,1.04-0.33,3.697-0.372c5.118-0.079,5.355,0.446,0.84,1.863c-1.518,0.476-2.67,0.956-2.559,1.067
	c0.11,0.109,2.812-0.042,6.003-0.338c3.205-0.298,6.079-0.289,6.419,0.019c0.362,0.327,0.013,0.558-0.849,0.558
	c-0.869,0-1.292,0.28-1.04,0.688c0.29,0.47-1.613,0.678-5.962,0.654c-8.466-0.048-9.307,0.006-9.307,0.588
	c0,0.273-1.802,0.85-4.004,1.283c-5.601,1.102-3.75,1.953,4.274,1.967c6.99,0.01,7.998,0.543,1.915,1.014
	c-5.237,0.404-9.847,1.328-8.672,1.738c0.535,0.186,3.454,0.928,6.486,1.646C93.007,291.62,91.939,292.188,86.271,291.02z
	 M52.984,281.346c1.004-0.387,2.971-0.902,4.37-1.145c2.579-0.448,4.08-2.06,1.889-2.028c-2.296,0.033-10.215,2.409-10.458,3.138
	C48.475,282.243,50.604,282.261,52.984,281.346L52.984,281.346z M73.703,274.264c0.491,0,0.892-0.438,0.892-0.973
	c0-1.152-0.23-1.172-3.406-0.291c-2.983,0.828-3.33,2.254-0.405,1.669C71.898,274.446,73.212,274.264,73.703,274.264z
	 M67.093,272.386c0.197-0.319-0.049-0.737-0.548-0.929c-1.164-0.447-3.626,0.189-3.626,0.936
	C62.918,273.145,66.628,273.138,67.093,272.386L67.093,272.386z M144.486,290.699c0.446-0.18,1.176-0.18,1.622,0
	s0.081,0.328-0.812,0.328C144.405,291.027,144.041,290.879,144.486,290.699z M105.079,289.184c0.535-0.346,1.411-0.613,1.946-0.594
	c0.642,0.023,0.531,0.226-0.324,0.594C104.918,289.949,103.894,289.949,105.079,289.184z M52.212,288.535l-7.135-0.393l7.297-0.129
	c4.519-0.079,7.298,0.119,7.298,0.521c0,0.356-0.073,0.591-0.162,0.521S56.137,288.75,52.212,288.535L52.212,288.535z
	 M63.078,288.736c0.624-0.164,1.646-0.164,2.27,0c0.625,0.162,0.114,0.297-1.135,0.297
	C62.964,289.033,62.453,288.898,63.078,288.736z M117.878,288.109c0.439-0.178,1.315-0.189,1.946-0.024
	c0.631,0.165,0.272,0.31-0.798,0.323C117.956,288.421,117.439,288.287,117.878,288.109z M96.646,287.237
	c1.271-0.821,2.129-0.821,1.622,0c-0.22,0.356-0.895,0.644-1.498,0.639C95.825,287.867,95.808,287.779,96.646,287.237z
	 M173.365,287.494c0.216-0.216,0.775-0.238,1.244-0.051c0.518,0.207,0.363,0.359-0.393,0.391
	C173.533,287.862,173.15,287.709,173.365,287.494z M145.771,286.163c0.438-0.178,1.314-0.188,1.945-0.024
	c0.631,0.165,0.271,0.311-0.799,0.323S145.332,286.341,145.771,286.163z M179.264,285.611c1.067-0.557,3.414-0.942,5.514-0.906
	l3.656,0.063l-4.541,0.859C177.86,286.769,177.051,286.766,179.264,285.611z M196.38,284.834c0.803-0.155,2.116-0.155,2.919,0
	c0.803,0.154,0.146,0.28-1.459,0.28S195.577,284.988,196.38,284.834z M112.863,284.01c-1.707-0.371-0.822-0.516,3.568-0.582
	c3.211-0.049,8.465-0.52,11.676-1.047s7.589-0.929,9.73-0.892l3.892,0.067l-3.892,0.528
	C121.686,284.276,116.07,284.709,112.863,284.01z M132.485,284.195c0.625-0.163,1.646-0.163,2.271,0
	c0.624,0.163,0.113,0.297-1.135,0.297C132.372,284.492,131.861,284.358,132.485,284.195z M155.852,284.25
	c0.215-0.215,0.775-0.238,1.243-0.051c0.518,0.207,0.364,0.361-0.392,0.393C156.02,284.619,155.636,284.466,155.852,284.25z
	 M167.824,284.174c1.151-0.143,3.195-0.146,4.541-0.006c1.346,0.141,0.403,0.258-2.094,0.26
	C167.773,284.428,166.672,284.316,167.824,284.174L167.824,284.174z M190.218,284.195c0.624-0.164,1.646-0.164,2.271,0
	c0.624,0.162,0.113,0.297-1.135,0.297C190.104,284.492,189.594,284.357,190.218,284.195z M138.161,283.55
	c0.892-0.146,5.3-1.002,9.796-1.901c6.934-1.387,8.754-1.536,12-0.984l3.826,0.651l-3.566-0.179
	c-1.963-0.099-6.912,0.504-10.997,1.339c-4.086,0.835-8.61,1.478-10.055,1.429C137.494,283.849,137.129,283.72,138.161,283.55z
	 M159.893,283.345c0.713-0.307,2.172-0.544,3.242-0.526l1.947,0.031l-1.947,0.495c-1.07,0.272-2.529,0.509-3.242,0.526
	C158.595,283.902,158.595,283.902,159.893,283.345z M200.759,283.312c-0.874-0.397-0.237-0.462,1.946-0.196
	c1.783,0.218,3.365,0.504,3.514,0.637C206.787,284.26,201.992,283.873,200.759,283.312z M213.732,282.998
	c-1.393-0.671-1.512-0.829-0.424-0.557c0.838,0.211,3.248,0.422,5.357,0.471c2.182,0.049,3.342,0.282,2.693,0.539
	C219.451,284.205,215.789,283.988,213.732,282.998z M205.299,282.047c0.714-0.307,2.319-0.549,3.568-0.538
	c2.064,0.018,2.123,0.066,0.648,0.538c-0.892,0.286-2.497,0.528-3.567,0.539C204.296,282.602,204.197,282.521,205.299,282.047z
	 M167.189,281.568c1.873-0.131,4.938-0.131,6.811,0c1.873,0.132,0.342,0.238-3.404,0.238S165.316,281.7,167.189,281.568z
	 M195.42,281.655c0.217-0.216,0.775-0.239,1.244-0.052c0.518,0.207,0.363,0.361-0.393,0.393
	C195.588,282.023,195.205,281.871,195.42,281.655L195.42,281.655z M183.73,280.941c-0.803-0.155-1.459-0.533-1.459-0.84
	s2.846-0.547,6.324-0.533l6.324,0.023l-4.216,0.863C186.247,281.367,186.027,281.383,183.73,280.941L183.73,280.941z
	 M198.975,280.969c0.446-0.18,1.176-0.18,1.622,0s0.081,0.327-0.812,0.327C198.894,281.296,198.529,281.148,198.975,280.969z
	 M204.813,278.966c0.697-0.698,2.137-1.14,3.73-1.146c1.427-0.007,3.908-0.209,5.514-0.45l2.919-0.44l-3.243,0.875
	c-1.784,0.481-4.32,0.903-5.638,0.938s-2.575,0.354-2.796,0.711c-0.22,0.356-0.676,0.648-1.011,0.648
	C203.952,280.101,204.188,279.59,204.813,278.966z M168.162,278.339c0.981-0.148,2.587-0.148,3.568,0
	c0.98,0.149,0.178,0.271-1.784,0.271S167.182,278.488,168.162,278.339z M220.219,278.154l-1.945-0.494l1.945-0.013
	c1.07-0.007,2.676,0.222,3.568,0.507l1.621,0.52l-1.621-0.012C222.895,278.655,221.289,278.427,220.219,278.154z M233.192,278.154
	c-1.07-0.273,0.827-0.344,4.216-0.156c3.391,0.187,6.285,0.445,6.434,0.574C244.352,279.013,235.14,278.652,233.192,278.154z
	 M76.712,277.766c0.216-0.217,0.775-0.239,1.243-0.052c0.518,0.207,0.364,0.36-0.392,0.392
	C76.879,278.134,76.497,277.98,76.712,277.766z M175.188,277.924c0.148-0.128,1.73-0.401,3.514-0.607
	c2.087-0.241,2.781-0.174,1.946,0.188C179.408,278.041,174.625,278.409,175.188,277.924z M182.27,277.508c0-0.82,1.325-0.82,2.595,0
	c0.758,0.49,0.579,0.631-0.812,0.639C183.072,278.153,182.27,277.865,182.27,277.508z M187.354,277.467
	c0.957-0.383,1.916-0.375,2.595,0.021c0.822,0.479,0.462,0.624-1.517,0.607C186.162,278.077,186.027,277.998,187.354,277.467z
	 M16.207,277.236c0-0.761,4.899-3.134,8.222-3.981c4.459-1.138,12.045-4.696,11.588-5.437c-0.281-0.454,3.849-1.252,12.299-2.375
	l2.595-0.346l-1.782,0.977c-0.98,0.537-2.12,1.186-2.533,1.439c-0.456,0.282-0.576,0.182-0.305-0.256
	c0.806-1.305-6.25-0.022-8.679,1.577c-1.25,0.823-4.022,2.129-6.163,2.902c-9.411,3.399-10.316,3.783-8.977,3.804
	c0.771,0.012,3.252-0.559,5.514-1.268c5.41-1.696,6.159-1.609,2.166,0.25C26.334,276.302,16.207,278.271,16.207,277.236z
	 M189.825,276.18c-1.729-0.291-3.329-0.713-3.556-0.939c-0.484-0.484,5.967,0.305,8.322,1.018l1.621,0.49l-1.621-0.021
	C193.699,276.716,191.555,276.469,189.825,276.18L189.825,276.18z M105.4,275.525c1.427-0.296,3.324-0.521,4.216-0.5
	c1.04,0.023,0.691,0.229-0.973,0.574c-1.427,0.295-3.324,0.52-4.216,0.499C103.387,276.074,103.735,275.869,105.4,275.525z
	 M205.789,275.745c0.986-0.149,2.445-0.146,3.244,0.009c0.797,0.154-0.01,0.276-1.793,0.271
	C205.456,276.02,204.803,275.895,205.789,275.745L205.789,275.745z M125.704,274.922c2.795-0.662,3.392-1.307,1.21-1.307
	c-0.951,0-1.729-0.324-1.729-0.722c0-0.707,4.666-0.335,6.991,0.558c1.152,0.441-4.507,2.074-6.991,2.016
	C123.848,275.436,123.939,275.34,125.704,274.922z M221.838,274.912c7.021-1.194,8.2-1.293,6.961-0.58
	c-0.631,0.362-3.258,0.777-5.838,0.923l-4.691,0.264L221.838,274.912z M9.875,274.467c0.62-0.162,1.788-0.168,2.595-0.014
	c0.807,0.155,0.299,0.289-1.127,0.295C9.916,274.756,9.255,274.629,9.875,274.467z M1.288,273.939c0-0.179-0.073-0.521-0.162-0.764
	c-0.089-0.241,1.589-0.512,3.73-0.6l3.892-0.16l-3.243,0.911C1.941,274.328,1.288,274.424,1.288,273.939z M14.839,273.129
	c-0.04-0.625-0.138-2.449-0.219-4.055c-0.907-17.955-1.239-22.761-2.015-29.121c-0.496-4.064-0.731-7.666-0.523-8.002
	c0.623-1.008,8.184,0.141,9.639,1.465c1.235,1.124,2.51,1.291,14.433,1.887c0.446,0.021,0.811,0.479,0.811,1.014
	c0,1.402,3.177,1.263,3.703-0.162c0.442-1.199,1.438-2.082,2.367-2.099c0.306-0.005,0.388,0.428,0.183,0.963
	c-0.254,0.662,0.035,0.974,0.903,0.974c0.799,0,1.277-0.439,1.277-1.172c0-1.021,0.582-1.167,4.541-1.135
	c3.878,0.03,4.541,0.201,4.541,1.171c0,0.624,0.438,1.136,0.973,1.136c0.541,0,0.973-0.577,0.973-1.298
	c0-2.587,2.357-0.554,2.696,2.325l0.223,1.891l-4.216,0.061c-3.524,0.05-3.657,0.018-0.811-0.196
	c3.967-0.298,4.47-1.247,0.973-1.837c-1.338-0.226-3.016-0.58-3.73-0.786c-1.987-0.575-4.216-0.585-4.216-0.019
	c0,0.279-0.706,0.508-1.568,0.508s-2.055,0.187-2.649,0.414c-0.865,0.332-0.908,0.528-0.215,0.983
	c0.852,0.56-19.994,0.187-26.217-0.47c-1.694-0.178-3.081-0.065-3.081,0.25c0,0.654,4.723,1.024,27.569,2.16
	c13.145,0.653,16.358,0.994,16.965,1.801c0.599,0.796,2.54,1.023,9.73,1.14c33.082,0.536,88.953,2.312,119.902,3.808
	c25.639,1.24,47.425,1.27,48.137,0.063c0.396-0.67,3.586-0.969,13.478-1.264c10.571-0.314,13.091-0.568,13.685-1.379
	c0.566-0.775,3.089-1.127,11.509-1.604c5.931-0.336,11.084-0.797,11.452-1.025c0.367-0.227,0.668-0.872,0.668-1.434
	c0-0.832-0.505-0.943-2.756-0.602c-1.517,0.229-6.479,0.604-11.027,0.832c-7.546,0.378-8.271,0.316-8.271-0.7
	c0-0.833-0.451-1.062-1.783-0.909c-1.004,0.116-1.713,0.561-1.622,1.017c0.101,0.505-0.573,0.812-1.784,0.812
	c-1.297,0-1.945-0.325-1.945-0.974c0-0.583,0.598-0.974,1.491-0.974c0.821,0,1.82-0.328,2.222-0.729
	c0.401-0.402,3.598-0.956,7.104-1.232c8.393-0.66,13.58-2.232,10.871-3.295c-0.996-0.389-0.834-0.5,0.784-0.536
	c1.323-0.03,2.183,0.329,2.448,1.021c0.528,1.378,0.434,1.446-2.536,1.826c-1.378,0.177-2.804,0.619-3.169,0.984
	c-0.364,0.365-1.407,0.668-2.317,0.673c-2.657,0.015-4.573,0.722-4.573,1.688c0,1.232,1.914,1.129,3.361-0.182
	c1.039-0.94,1.406-0.965,2.85-0.192c1.014,0.542,1.83,0.646,2.102,0.269c0.878-1.222,3.621-2.443,3.861-1.721
	c0.129,0.387,0.865,0.064,1.651-0.723c0.78-0.78,1.347-1.638,1.257-1.905s0.139-0.486,0.507-0.486s0.827,0.511,1.021,1.135
	s0.621,1.642,0.953,2.262c0.674,1.265,0.803,3.969,0.217,4.556c-0.212,0.211-0.432,1.961-0.487,3.889
	c-0.123,4.229-2.872,9.155-6.053,10.848l-2.06,1.097l1.734,0.745c1.645,0.707,1.65,0.725,0.113,0.345
	c-3.182-0.787-10.775-0.712-15.244,0.149l-4.54,0.877l3.892-0.34c2.141-0.188,4.477-0.502,5.189-0.699
	c0.98-0.271,1.121-0.172,0.572,0.407c-0.863,0.911-10.855,2.004-11.167,1.221c-0.119-0.299-1.87-0.497-3.892-0.441l-3.676,0.102
	l3.242,0.47c3.191,0.463,3.17,0.471-1.297,0.496c-7.567,0.043-19.399,0.608-20.434,0.976c-2.121,0.753-27.762,2.269-47.491,2.806
	c-12.075,0.329-16.263,0.244-16.97-0.342c-0.722-0.6-1.049-0.602-1.414-0.012c-0.81,1.311-9.985,0.225-11.458-1.355
	c-1.232-1.322-2.454-1.709-2.454-0.776c0,0.285,0.277,0.796,0.615,1.135c0.389,0.39,0.03,0.651-0.973,0.71
	c-0.873,0.051-1.589-0.199-1.589-0.556c0-0.357-0.364-0.501-0.811-0.318s-1.292,0.525-1.88,0.763
	c-0.677,0.271-1.555-0.092-2.393-0.99c-1.588-1.704-4.045-1.43-10.13,1.132c-2.353,0.989-5.397,1.692-7.785,1.796
	c-3.798,0.164-5.405,0.512-7.533,1.627c-0.658,0.344-1.572,0.109-2.595-0.666c-1.233-0.934-2.291-1.119-4.822-0.846
	c-1.784,0.193-3.827,0.313-4.541,0.266c-0.713-0.047-2.986-0.146-5.05-0.22c-2.388-0.085-3.957-0.464-4.313-1.04
	c-0.322-0.521-1.022-0.729-1.647-0.488c-0.602,0.23-1.507-0.007-2.03-0.527c-0.519-0.519-1.446-0.77-2.06-0.559
	c-0.878,0.302-0.84,0.162,0.181-0.656c1.638-1.313,0.778-1.333-2.856-0.067c-1.99,0.693-3.062,0.788-3.535,0.315
	c-1.066-1.066-2.591-0.807-4.789,0.814c-1.836,1.354-1.919,1.561-0.89,2.203c0.625,0.391,2.574,0.605,4.332,0.479l3.197-0.231
	l-2.823,0.729c-1.985,0.513-3.43,0.53-4.865,0.06c-1.123-0.369-3.574-0.635-5.447-0.594c-3.25,0.074-3.694-0.188-3.454-2.031
	c0.058-0.445-0.346-0.811-0.896-0.811c-1.202,0-1.33-1.043-0.19-1.551c0.446-0.199,0.227-0.336-0.486-0.304
	c-2.807,0.126-3.298-0.099-1.946-0.89c1.206-0.705,1.137-0.8-0.973-1.336c-3.901-0.993-7.739-0.574-16.021,1.745
	c-3.14,0.88-7.022,1.78-8.628,2.002c-7.859,1.083-13,2.735-20.636,6.634c-4.393,2.243-8.114,4.078-8.271,4.078
	C15.039,274.264,14.879,273.753,14.839,273.129L14.839,273.129z M160.539,263.236c0.234-0.38-0.439-0.648-1.622-0.648
	s-1.856,0.269-1.622,0.648c0.221,0.356,0.951,0.648,1.622,0.648S160.318,263.593,160.539,263.236z M181.094,262.793
	c-0.469-0.188-1.027-0.164-1.243,0.051c-0.216,0.216,0.167,0.369,0.852,0.341C181.458,263.154,181.611,263,181.094,262.793z
	 M215.838,262.107c-2.051-0.129-5.408-0.129-7.459,0c-2.052,0.129-0.373,0.234,3.729,0.234S217.891,262.236,215.838,262.107z
	 M225.204,261.496c-0.468-0.188-1.028-0.165-1.243,0.051c-0.216,0.215,0.168,0.369,0.852,0.341
	C225.568,261.856,225.722,261.703,225.204,261.496z M212.264,259.533c-0.807-0.154-1.975-0.148-2.595,0.014s0.04,0.289,1.468,0.282
	C212.563,259.822,213.07,259.689,212.264,259.533z M222.326,259.545c-0.625-0.162-1.646-0.162-2.271,0
	c-0.624,0.164-0.114,0.297,1.136,0.297C222.439,259.842,222.95,259.709,222.326,259.545z M233.354,259.516
	c-1.695-0.133-4.468-0.133-6.162,0c-1.695,0.134-0.309,0.243,3.08,0.243C233.662,259.759,235.048,259.649,233.354,259.516z
	 M239.354,259.344c0-0.356-0.584-0.648-1.297-0.648c-0.714,0-1.298,0.292-1.298,0.648c0,0.357,0.584,0.648,1.298,0.648
	C238.77,259.992,239.354,259.701,239.354,259.344z M244.705,258.914c-0.445-0.18-1.176-0.18-1.621,0
	c-0.446,0.18-0.082,0.328,0.811,0.328C244.786,259.242,245.151,259.094,244.705,258.914z M249.246,258.914
	c-0.445-0.18-1.176-0.18-1.621,0c-0.447,0.18-0.082,0.328,0.811,0.328C249.327,259.242,249.691,259.094,249.246,258.914z
	 M217.299,257.4c-3.037-0.388-4.109-0.229-3.635,0.538c0.153,0.248,1.69,0.312,3.416,0.143l3.138-0.308L217.299,257.4z
	 M263.03,258.084c2.586-0.535,2.582-0.537-0.973-0.555c-1.962-0.01-5.027,0.209-6.812,0.487l-3.243,0.505l4.216,0.05
	C258.539,258.598,261.604,258.379,263.03,258.084z M135.565,257.398c0-0.357-0.455-0.649-1.012-0.649
	c-0.556,0-0.831,0.292-0.61,0.649c0.221,0.355,0.676,0.648,1.012,0.648C135.291,258.047,135.565,257.754,135.565,257.398z
	 M140.592,256.371c-0.618-0.619-1.857,0.383-1.396,1.128c0.273,0.443,0.636,0.433,1.103-0.034
	C140.68,257.083,140.813,256.591,140.592,256.371z M146.431,256.371c-0.618-0.619-1.857,0.383-1.397,1.128
	c0.274,0.443,0.637,0.433,1.104-0.034C146.518,257.083,146.65,256.591,146.431,256.371z M156.972,257.436
	c0-0.88-1.145-1.459-1.56-0.787c-0.388,0.627,0.174,1.398,1.02,1.398C156.729,258.047,156.972,257.771,156.972,257.436z
	 M166.053,257.398c0-0.357-0.291-0.649-0.648-0.649s-0.648,0.292-0.648,0.649c0,0.355,0.291,0.648,0.648,0.648
	S166.053,257.754,166.053,257.398z M170.594,257.436c0-0.88-1.145-1.459-1.559-0.787c-0.389,0.627,0.174,1.398,1.018,1.398
	C170.351,258.047,170.594,257.771,170.594,257.436z M175.783,257.398c0-0.357-0.438-0.649-0.973-0.649s-0.973,0.292-0.973,0.649
	c0,0.355,0.438,0.648,0.973,0.648S175.783,257.754,175.783,257.398z M180.324,257.398c0-0.357-0.455-0.649-1.012-0.649
	s-0.83,0.292-0.61,0.649c0.221,0.355,0.676,0.648,1.011,0.648C180.049,258.047,180.324,257.754,180.324,257.398z M185.514,257.035
	c0-0.157-0.292-0.286-0.648-0.286c-0.357,0-0.649,0.31-0.649,0.687c0,0.379,0.292,0.508,0.649,0.287
	C185.222,257.502,185.514,257.192,185.514,257.035z M189.723,257.387c-0.224-0.361-0.679-0.49-1.011-0.285
	c-0.899,0.556-0.731,0.945,0.407,0.945C189.676,258.047,189.947,257.75,189.723,257.387z M194.595,257.398
	c0-0.357-0.292-0.649-0.648-0.649s-0.649,0.292-0.649,0.649c0,0.355,0.293,0.648,0.649,0.648S194.595,257.754,194.595,257.398z
	 M203.027,257.398c0-0.357-0.274-0.649-0.609-0.649c-0.336,0-0.791,0.292-1.012,0.649c-0.221,0.355,0.054,0.648,0.61,0.648
	C202.572,258.047,203.027,257.754,203.027,257.398z M207.568,257.398c0-0.357-0.438-0.649-0.973-0.649s-0.973,0.292-0.973,0.649
	c0,0.355,0.438,0.648,0.973,0.648S207.568,257.754,207.568,257.398z M211.137,257.398c-0.221-0.357-0.676-0.649-1.012-0.649
	s-0.61,0.292-0.61,0.649c0,0.355,0.455,0.648,1.011,0.648C211.082,258.047,211.356,257.754,211.137,257.398z M224.775,257.426
	c-0.211-0.341-0.812-0.455-1.335-0.254c-1.341,0.514-1.183,0.875,0.384,0.875C224.559,258.047,224.986,257.768,224.775,257.426z
	 M228.519,257.33c-0.513-0.513-1.056-0.518-1.913-0.02c-1.051,0.611-0.963,0.699,0.715,0.717
	C228.717,258.041,229.041,257.853,228.519,257.33z M232.219,257.398c0-0.357-0.584-0.649-1.298-0.649s-1.298,0.292-1.298,0.649
	c0,0.355,0.584,0.648,1.298,0.648S232.219,257.754,232.219,257.398z M249.732,257.076c13.287-0.543,16.996-1,16.596-2.041
	c-0.193-0.505,0.085-0.881,0.652-0.881c0.545,0,0.811,0.292,0.59,0.648c-0.527,0.855,5.231,0.73,10.699-0.232
	c3.283-0.577,4.264-1.012,4.445-1.971c0.205-1.091-0.053-1.184-2.266-0.814c-7.107,1.186-37.755,3.086-51.682,3.206
	c-8.734,0.075-15.266,0.368-14.517,0.649c0.749,0.283,6.558,0.43,12.909,0.325c6.35-0.104,11.546,0.029,11.545,0.297
	c0,0.268-1.021,0.486-2.271,0.486c-1.248,0-2.27,0.294-2.27,0.654c0,0.396,1.342,0.532,3.405,0.343
	C239.442,257.574,244.916,257.273,249.732,257.076z M240.65,256.025c0-0.315,1.623-0.574,3.606-0.574s3.446,0.259,3.251,0.574
	c-0.194,0.316-1.817,0.574-3.605,0.574S240.65,256.342,240.65,256.025z M249.414,256.111c-0.224-0.363,0.049-0.66,0.604-0.66
	c1.14,0,1.308,0.391,0.407,0.945C250.094,256.603,249.639,256.474,249.414,256.111z M252.503,255.709
	c0.216-0.216,0.774-0.238,1.243-0.052c0.518,0.207,0.363,0.36-0.392,0.392C252.67,256.078,252.287,255.924,252.503,255.709z
	 M255.57,255.451c0-0.355,0.292-0.648,0.648-0.648c0.357,0,0.649,0.293,0.649,0.648c0,0.357-0.292,0.649-0.649,0.649
	C255.862,256.101,255.57,255.809,255.57,255.451z M258.496,255.463c-0.225-0.363,0.048-0.66,0.604-0.66
	c1.14,0,1.308,0.39,0.408,0.945C259.176,255.953,258.721,255.825,258.496,255.463z M262.576,254.674
	c0.605-0.605,0.951-0.605,1.557,0s0.433,0.777-0.778,0.777C262.145,255.451,261.971,255.279,262.576,254.674z M269.842,254.154
	c0-0.356,0.438-0.648,0.973-0.648s0.973,0.292,0.973,0.648c0,0.357-0.438,0.648-0.973,0.648S269.842,254.512,269.842,254.154z
	 M274.559,253.763c0.215-0.216,0.774-0.239,1.242-0.052c0.518,0.207,0.364,0.361-0.392,0.393
	C274.726,254.131,274.342,253.979,274.559,253.763z M279.41,253.076c0.445-0.18,1.176-0.18,1.621,0s0.081,0.327-0.811,0.327
	C279.328,253.403,278.963,253.256,279.41,253.076z M97.293,256.749c0-0.356-0.292-0.648-0.648-0.648s-0.648,0.292-0.648,0.648
	s0.292,0.649,0.648,0.649S97.293,257.105,97.293,256.749z M108.321,256.749c0-0.356-0.292-0.648-0.649-0.648
	c-0.356,0-0.648,0.292-0.648,0.648s0.292,0.649,0.648,0.649C108.029,257.398,108.321,257.105,108.321,256.749z M113.51,256.587
	c0-0.76-0.945-0.57-1.216,0.243c-0.134,0.401,0.085,0.621,0.486,0.486C113.182,257.184,113.51,256.854,113.51,256.587z
	 M118.7,256.749c0-0.356-0.292-0.648-0.649-0.648c-0.356,0-0.648,0.292-0.648,0.648s0.292,0.649,0.648,0.649
	C118.408,257.398,118.7,257.105,118.7,256.749z M125.187,256.749c0-0.356-0.292-0.648-0.649-0.648s-0.648,0.292-0.648,0.648
	s0.292,0.649,0.648,0.649S125.187,257.105,125.187,256.749z M131.024,256.749c0-0.356-0.292-0.648-0.648-0.648
	c-0.357,0-0.649,0.292-0.649,0.648s0.292,0.649,0.649,0.649C130.732,257.398,131.024,257.105,131.024,256.749z M151.133,256.749
	c0-0.356-0.291-0.648-0.648-0.648c-0.356,0-0.648,0.292-0.648,0.648s0.292,0.649,0.648,0.649
	C150.842,257.398,151.133,257.105,151.133,256.749z M161.512,256.749c0-0.356-0.273-0.648-0.609-0.648s-0.791,0.292-1.012,0.648
	s0.055,0.649,0.61,0.649S161.512,257.105,161.512,256.749z M199.136,256.749c0-0.356-0.292-0.648-0.649-0.648
	c-0.355,0-0.648,0.292-0.648,0.648s0.293,0.649,0.648,0.649C198.844,257.398,199.136,257.105,199.136,256.749z M274.383,256.854
	c1.605-0.246,2.627-0.631,2.27-0.855c-0.587-0.371-7.51,0.424-9.081,1.042C266.496,257.463,271.258,257.334,274.383,256.854z
	 M87.725,255.83c0.089-0.326-0.203-0.716-0.648-0.865c-0.446-0.148-0.811,0.217-0.811,0.812
	C86.266,256.875,87.429,256.918,87.725,255.83z M91.658,254.746c-0.508-0.508-0.827-0.508-1.141,0
	c-0.675,1.092,0.28,2.272,1.141,1.411C92.166,255.649,92.166,255.254,91.658,254.746z M103.456,256.101
	c-0.221-0.356-0.676-0.649-1.011-0.649c-0.336,0-0.61,0.293-0.61,0.649s0.455,0.648,1.011,0.648S103.676,256.457,103.456,256.101z
	 M56.426,255.451c0-0.355-0.292-0.648-0.648-0.648s-0.649,0.293-0.649,0.648c0,0.357,0.292,0.649,0.649,0.649
	S56.426,255.809,56.426,255.451z M67.454,255.451c0-0.355-0.438-0.648-0.973-0.648s-0.973,0.293-0.973,0.648
	c0,0.357,0.438,0.649,0.973,0.649S67.454,255.809,67.454,255.451z M72.644,255.451c0-0.355-0.438-0.648-0.973-0.648
	s-0.973,0.293-0.973,0.648c0,0.357,0.438,0.649,0.973,0.649S72.644,255.809,72.644,255.451z M77.508,255.451
	c-0.22-0.355-0.675-0.648-1.011-0.648c-0.335,0-0.61,0.293-0.61,0.648c0,0.357,0.455,0.649,1.011,0.649
	S77.729,255.809,77.508,255.451z M83.671,255.451c0-0.355-0.292-0.648-0.648-0.648c-0.357,0-0.649,0.293-0.649,0.648
	c0,0.357,0.292,0.649,0.649,0.649C83.379,256.101,83.671,255.809,83.671,255.451z M62.265,254.803c0-0.356-0.292-0.648-0.649-0.648
	c-0.356,0-0.648,0.292-0.648,0.648c0,0.357,0.292,0.648,0.648,0.648C61.973,255.451,62.265,255.16,62.265,254.803z M207.043,255.009
	c-0.469-0.188-1.027-0.165-1.243,0.052c-0.216,0.215,0.167,0.368,0.851,0.34C207.406,255.369,207.561,255.216,207.043,255.009z
	 M180.325,253.182c0-0.535-0.274-0.973-0.61-0.973c-0.818,0-1.404,1.013-0.886,1.531
	C179.56,254.471,180.325,254.185,180.325,253.182z M192.65,253.506c0-0.357-0.438-0.648-0.973-0.648s-0.974,0.291-0.974,0.648
	s0.438,0.648,0.974,0.648S192.65,253.863,192.65,253.506z M203.678,253.182c0-0.535-0.292-0.973-0.648-0.973
	c-0.357,0-0.648,0.438-0.648,0.973s0.291,0.973,0.648,0.973C203.386,254.154,203.678,253.717,203.678,253.182z M207.335,253.182
	c-0.27-0.703,0.071-0.973,1.228-0.973c0.881,0,1.529,0.328,1.439,0.729c-0.089,0.401,0.203,0.863,0.648,1.026
	c0.446,0.164,0.812-0.164,0.812-0.729s0.438-1.026,0.973-1.026s0.974,0.484,0.974,1.076c0,0.987,1.516,1.042,18.324,0.656
	c18.613-0.426,32.436-1.199,42.976-2.404c7.134-0.816,8.108-1.096,8.108-2.33c0-0.531,0.297-0.783,0.659-0.56
	s0.491,0.679,0.286,1.011s-0.055,0.604,0.334,0.604c0.768,0,1.673-1.805,1.162-2.315c-0.172-0.172-2.971-0.012-6.22,0.356
	c-13.167,1.491-32.657,2.63-51.684,3.021c-18.839,0.387-22.29,0.75-21.36,2.255C206.595,254.553,207.732,254.215,207.335,253.182
	L207.335,253.182z M214.705,252.857c0-0.357,0.438-0.648,0.973-0.648s0.974,0.291,0.974,0.648c0,0.356-0.438,0.648-0.974,0.648
	S214.705,253.214,214.705,252.857z M218.598,252.857c0-0.357,0.438-0.648,0.973-0.648s0.973,0.291,0.973,0.648
	c0,0.356-0.438,0.648-0.973,0.648S218.598,253.214,218.598,252.857z M222.49,252.857c0-0.357,0.438-0.648,0.973-0.648
	s0.973,0.291,0.973,0.648c0,0.356-0.438,0.648-0.973,0.648S222.49,253.214,222.49,252.857z M226.382,252.857
	c0-0.357,0.438-0.648,0.973-0.648s0.974,0.291,0.974,0.648c0,0.356-0.438,0.648-0.974,0.648S226.382,253.214,226.382,252.857z
	 M230.273,252.857c0-0.357,0.292-0.648,0.648-0.648c0.357,0,0.648,0.291,0.648,0.648c0,0.356-0.291,0.648-0.648,0.648
	C230.565,253.506,230.273,253.214,230.273,252.857z M233.848,252.867c-0.224-0.362,0.048-0.658,0.604-0.658
	c1.141,0,1.308,0.389,0.408,0.945C234.527,253.359,234.072,253.23,233.848,252.867z M236.936,252.465
	c0.217-0.215,0.775-0.238,1.244-0.051c0.518,0.207,0.363,0.361-0.393,0.393C237.104,252.834,236.721,252.681,236.936,252.465z
	 M240.828,252.465c0.216-0.215,0.775-0.238,1.244-0.051c0.517,0.207,0.363,0.361-0.393,0.393
	C240.996,252.834,240.613,252.681,240.828,252.465z M244.545,252.209c0-0.357,0.291-0.649,0.648-0.649s0.648,0.292,0.648,0.649
	c0,0.356-0.291,0.648-0.648,0.648S244.545,252.565,244.545,252.209z M248.437,252.209c0-0.357,0.292-0.649,0.649-0.649
	c0.356,0,0.648,0.292,0.648,0.649c0,0.356-0.292,0.648-0.648,0.648C248.729,252.857,248.437,252.565,248.437,252.209z
	 M251.855,251.816c0.216-0.215,0.775-0.238,1.244-0.051c0.518,0.207,0.363,0.36-0.393,0.392
	C252.023,252.186,251.641,252.032,251.855,251.816z M255.572,251.922c0-0.684,1.244-0.972,1.615-0.373
	c0.225,0.363-0.048,0.66-0.604,0.66C256.027,252.209,255.572,252.08,255.572,251.922z M259.64,251.168
	c0.216-0.216,0.775-0.238,1.243-0.051c0.518,0.207,0.364,0.36-0.392,0.392C259.808,251.537,259.424,251.383,259.64,251.168
	L259.64,251.168z M266.775,250.52c0.215-0.216,0.775-0.238,1.243-0.052c0.518,0.208,0.364,0.36-0.392,0.392
	C266.943,250.889,266.56,250.734,266.775,250.52z M270.668,250.52c0.215-0.216,0.774-0.238,1.242-0.052
	c0.518,0.208,0.364,0.36-0.391,0.392C270.835,250.889,270.451,250.734,270.668,250.52z M275.208,249.871
	c0.216-0.217,0.775-0.239,1.243-0.052c0.518,0.207,0.364,0.36-0.392,0.392C275.376,250.239,274.992,250.086,275.208,249.871z
	 M279.249,249.613c0.22-0.356,0.692-0.648,1.05-0.648c0.356,0,0.468,0.292,0.248,0.648c-0.221,0.357-0.693,0.649-1.051,0.649
	C279.14,250.263,279.028,249.971,279.249,249.613z M144.811,252.587c0.089-0.327-0.203-0.716-0.649-0.864
	c-0.446-0.149-0.811,0.215-0.811,0.811C143.351,253.631,144.514,253.674,144.811,252.587z M150.486,252.857
	c0-0.357-0.438-0.648-0.973-0.648s-0.973,0.291-0.973,0.648c0,0.356,0.438,0.648,0.973,0.648S150.486,253.214,150.486,252.857z
	 M155.514,252.695c-0.307-0.918-1.35-0.818-1.676,0.162c-0.119,0.356,0.27,0.648,0.865,0.648
	C155.297,253.506,155.662,253.141,155.514,252.695z M161.514,252.17c0-0.336-0.438-0.61-0.973-0.61
	c-1.004,0-1.289,0.766-0.559,1.496C160.501,253.574,161.514,252.988,161.514,252.17z M166.703,252.857
	c0-0.357-0.438-0.648-0.973-0.648s-0.973,0.291-0.973,0.648c0,0.356,0.438,0.648,0.973,0.648S166.703,253.214,166.703,252.857z
	 M176.434,252.857c0-0.357-0.438-0.648-0.973-0.648s-0.974,0.291-0.974,0.648c0,0.356,0.438,0.648,0.974,0.648
	S176.434,253.214,176.434,252.857z M185.19,252.857c-0.22-0.357-0.675-0.648-1.011-0.648s-0.611,0.291-0.611,0.648
	c0,0.356,0.455,0.648,1.012,0.648S185.411,253.214,185.19,252.857z M189.407,252.533c0-0.535-0.274-0.974-0.61-0.974
	c-0.818,0-1.404,1.013-0.886,1.531C188.642,253.821,189.407,253.536,189.407,252.533z M196.543,252.857
	c0-0.357-0.438-0.648-0.974-0.648s-0.973,0.291-0.973,0.648c0,0.356,0.438,0.648,0.973,0.648S196.543,253.214,196.543,252.857z
	 M199.785,252.695c0-0.76-0.944-0.57-1.215,0.243c-0.135,0.401,0.084,0.62,0.486,0.486
	C199.457,253.291,199.785,252.963,199.785,252.695z M92.754,251.197c0-0.514-0.438-0.935-0.973-0.935
	c-0.977,0-1.333,1.369-0.559,2.145C91.828,253.013,92.754,252.281,92.754,251.197z M108.322,251.521c0-0.336-0.438-0.61-0.973-0.61
	c-1.003,0-1.289,0.766-0.558,1.496C107.31,252.926,108.322,252.34,108.322,251.521z M113.998,252.047
	c-0.306-0.919-1.349-0.818-1.676,0.162c-0.119,0.356,0.271,0.648,0.865,0.648S114.147,252.492,113.998,252.047z M119.999,251.885
	c0-0.535-0.438-0.974-0.973-0.974s-0.973,0.438-0.973,0.974s0.438,0.973,0.973,0.973S119.999,252.42,119.999,251.885z
	 M125.188,251.885c0-0.535-0.438-0.974-0.973-0.974s-0.973,0.438-0.973,0.974s0.438,0.973,0.973,0.973
	S125.188,252.42,125.188,251.885z M130.729,252.166c0.597-0.967-0.095-1.492-1.337-1.016c-0.573,0.221-0.86,0.694-0.638,1.053
	C129.279,253.055,130.189,253.037,130.729,252.166L130.729,252.166z M135.567,251.885c0-0.535-0.438-0.974-0.973-0.974
	c-1.013,0-1.287,0.767-0.541,1.514C134.799,253.171,135.567,252.896,135.567,251.885z M140.432,252.209
	c-0.22-0.357-0.675-0.649-1.011-0.649c-0.335,0-0.61,0.292-0.61,0.649c0,0.356,0.455,0.648,1.011,0.648
	S140.652,252.565,140.432,252.209z M171.244,252.209c0-0.357-0.438-0.649-0.973-0.649s-0.974,0.292-0.974,0.649
	c0,0.356,0.438,0.648,0.974,0.648S171.244,252.565,171.244,252.209z M72.347,251.517c0.597-0.966-0.095-1.491-1.337-1.015
	c-0.573,0.221-0.86,0.693-0.638,1.053C70.897,252.406,71.808,252.389,72.347,251.517z M76.739,250.206
	c-0.508-0.508-0.827-0.508-1.141,0c-0.675,1.092,0.28,2.271,1.141,1.41C77.247,251.108,77.247,250.714,76.739,250.206z
	 M86.915,251.235c0-0.535-0.438-0.974-0.973-0.974s-0.973,0.438-0.973,0.974s0.438,0.974,0.973,0.974S86.915,251.771,86.915,251.235
	z M97.794,251.033c0.142-0.424-0.205-0.771-0.77-0.771s-1.027,0.463-1.027,1.027C95.997,252.436,97.393,252.235,97.794,251.033z
	 M102.321,251.397c-0.306-0.918-1.349-0.817-1.676,0.162c-0.119,0.356,0.271,0.649,0.865,0.649
	C102.105,252.209,102.47,251.844,102.321,251.397z M62.395,249.484c-0.605-0.605-0.957-0.6-1.583,0.026
	c-0.642,0.642-0.61,0.927,0.157,1.4C62.269,251.715,63.448,250.536,62.395,249.484L62.395,249.484z M66.806,250.587
	c0-0.535-0.438-0.974-0.973-0.974s-0.973,0.438-0.973,0.974s0.438,0.973,0.973,0.973S66.806,251.122,66.806,250.587z
	 M82.375,250.587c0-0.535-0.42-0.974-0.935-0.974c-1.084,0-1.815,0.926-1.21,1.531C81.005,251.92,82.375,251.564,82.375,250.587z
	 M56.427,250.262c0-0.355-0.292-0.648-0.648-0.648s-0.649,0.293-0.649,0.648c0,0.357,0.292,0.649,0.649,0.649
	S56.427,250.619,56.427,250.262z M220.705,249.793c-1.16-0.144-3.057-0.144-4.217,0c-1.159,0.145-0.211,0.262,2.108,0.262
	S221.865,249.938,220.705,249.793z M249.733,249.617c16.532-0.912,29.19-1.959,31.785-2.627c2.46-0.635,2.899-0.654-22.38,1.014
	c-7.849,0.518-17.773,0.972-22.055,1.008c-4.281,0.037-9.244,0.295-11.027,0.572C221.082,250.358,235.918,250.379,249.733,249.617z
	 M33.724,247.633c0-1.023-2.183-2.489-2.795-1.877c-0.554,0.555,1.036,2.826,1.979,2.826
	C33.356,248.582,33.724,248.154,33.724,247.633z M267.508,246.958c8.131-0.537,15.266-1.265,15.855-1.616
	c0.749-0.447-0.002-0.527-2.496-0.266c-1.962,0.205-11.887,0.895-22.055,1.533c-12.224,0.768-16.387,1.189-12.288,1.242
	C249.934,247.896,259.376,247.494,267.508,246.958z M36.279,246.023c0.767-0.484,0.656-0.871-0.638-2.215
	c-1.149-1.193-1.784-1.445-2.388-0.944c-1.033,0.857-1.049,1.982-0.043,2.988C34.134,246.775,35.014,246.824,36.279,246.023z
	 M98.597,245.944c0-0.378-0.292-0.507-0.648-0.286c-0.357,0.221-0.649,0.529-0.649,0.688c0,0.156,0.292,0.285,0.649,0.285
	C98.305,246.631,98.597,246.322,98.597,245.944z M101.192,245.982c0-0.357-0.292-0.648-0.648-0.648
	c-0.357,0-0.649,0.291-0.649,0.648s0.292,0.648,0.649,0.648C100.9,246.631,101.192,246.34,101.192,245.982z M68.649,245.282
	l2.38-0.051l-1.812-0.661c-2.027-0.739-5-0.236-5,0.846c0,0.388,0.462,0.527,1.026,0.312
	C65.808,245.511,67.34,245.311,68.649,245.282L68.649,245.282z M90.813,245.334c0-0.357-0.309-0.648-0.687-0.648
	c-0.377,0-0.506,0.291-0.286,0.648c0.22,0.356,0.529,0.648,0.687,0.648C90.685,245.982,90.813,245.69,90.813,245.334z
	 M72.772,244.891c-0.468-0.188-1.028-0.164-1.243,0.051c-0.215,0.216,0.167,0.369,0.852,0.341
	C73.136,245.252,73.29,245.098,72.772,244.891z M84.975,245.08c0-0.139-1.021-0.373-2.271-0.518c-1.249-0.146-2.27-0.032-2.27,0.253
	s1.021,0.519,2.27,0.519C83.954,245.334,84.975,245.22,84.975,245.08z M273.416,244.715c3.154-0.491,3.106-0.508-1.746-0.592
	c-2.744-0.048-5.169,0.205-5.389,0.563C265.813,245.44,268.68,245.453,273.416,244.715z M27.892,236.898
	c-0.535-0.346-1.557-0.629-2.271-0.629c-1.074,0-1.13,0.107-0.324,0.629c0.535,0.346,1.557,0.629,2.27,0.629
	C28.642,237.527,28.697,237.419,27.892,236.898z M22.702,236.618c0-0.154-0.929-0.942-2.065-1.751
	c-1.667-1.187-1.983-1.258-1.642-0.368c0.574,1.497-0.125,1.385-1.927-0.309c-1.507-1.416-2.182-0.827-0.723,0.632
	c0.605,0.605,0.453,0.779-0.687,0.779c-0.812,0-1.287,0.289-1.064,0.648C14.972,236.863,22.702,237.214,22.702,236.618z
	 M32.586,236.439c-0.807-0.155-1.975-0.149-2.595,0.014c-0.62,0.162,0.04,0.289,1.467,0.281
	C32.886,236.728,33.394,236.595,32.586,236.439z M158.262,273.588c0.906-1.113,0.801-1.153-1.946-0.748
	c-1.598,0.236-6.554,0.539-11.013,0.673l-8.109,0.244l7.673-0.555c7.051-0.509,9.517-1.19,9.517-2.629
	c0-1.484-2.655-1.909-5.995-0.958c-2.658,0.758-4.842,0.857-9.898,0.451c-4.759-0.381-7.402-0.289-9.924,0.346
	c-1.891,0.477-4.289,0.866-5.329,0.866c-1.041,0-4.875,0.579-8.522,1.285c-5.932,1.149-7.846,1.253-6.967,0.374
	c0.158-0.157,2.031-0.586,4.163-0.953c2.131-0.367,6.503-1.133,9.714-1.703c3.211-0.569,9.536-1.145,14.055-1.277
	c4.52-0.133,9.417-0.564,10.882-0.959c1.9-0.512,3.721-0.523,6.336-0.039c2.018,0.373,5.002,0.682,6.631,0.688
	c2.152,0.008,2.696,0.182,1.99,0.639c-1.246,0.805,5.662,0.82,14.595,0.033c3.646-0.321,8.191-0.328,10.379-0.017l3.892,0.556
	l-3.892-0.205c-6.243-0.327-17.203,0.848-21.247,2.277c-2.054,0.726-4.069,1.112-4.479,0.859c-0.46-0.285-0.568-0.175-0.282,0.287
	c0.254,0.412,0.178,0.75-0.172,0.75c-0.348,0-1.168,0.2-1.821,0.445C157.415,274.723,157.394,274.652,158.262,273.588z
	 M159.249,271.278c0.22-0.356-0.054-0.648-0.61-0.648s-1.012,0.292-1.012,0.648s0.275,0.649,0.611,0.649
	C158.573,271.928,159.028,271.635,159.249,271.278z M52.717,273.481c0.215-0.216,0.775-0.239,1.243-0.052
	c0.518,0.207,0.364,0.361-0.392,0.393C52.884,273.85,52.501,273.697,52.717,273.481L52.717,273.481z M166.223,273.408
	c0.98-0.148,2.586-0.148,3.567,0s0.179,0.271-1.784,0.271C166.044,273.679,165.241,273.557,166.223,273.408z M193.48,273.481
	c0.215-0.216,0.775-0.239,1.243-0.052c0.518,0.207,0.364,0.361-0.392,0.393C193.648,273.85,193.265,273.697,193.48,273.481
	L193.48,273.481z M198.656,273.4c1.338-0.14,3.527-0.14,4.865,0c1.338,0.141,0.243,0.255-2.433,0.255S197.318,273.541,198.656,273.4
	z M210.598,272.612c0.771-0.33,3.543-0.917,6.162-1.306s5.639-0.843,6.709-1.01c1.07-0.168-0.014,0.242-2.408,0.909
	C216.254,272.547,208.235,273.624,210.598,272.612z M231.752,272.832c0.216-0.215,0.775-0.238,1.244-0.051
	c0.518,0.207,0.363,0.361-0.393,0.393C231.92,273.201,231.537,273.048,231.752,272.832z M9.554,272.184
	c0.439-0.178,1.315-0.188,1.946-0.023c0.631,0.164,0.271,0.31-0.799,0.322C9.631,272.496,9.115,272.361,9.554,272.184z
	 M140.762,271.961c0-0.357,0.292-0.648,0.649-0.648s0.648,0.291,0.648,0.648c0,0.356-0.292,0.648-0.648,0.648
	S140.762,272.317,140.762,271.961z M173.845,271.817c8.991-0.92,24.089-1.326,24.749-0.665c0.411,0.41-1.484,0.578-5.409,0.479
	c-5.528-0.14-5.655-0.117-1.501,0.265c2.775,0.255-0.758,0.417-9.082,0.419C172.486,272.314,170.232,272.188,173.845,271.817
	L173.845,271.817z M235.956,272.18c0.446-0.18,1.176-0.18,1.622,0c0.445,0.18,0.08,0.327-0.812,0.327S235.51,272.359,235.956,272.18
	z M145.479,271.568c0.215-0.215,0.775-0.238,1.243-0.051c0.518,0.207,0.364,0.361-0.392,0.393
	C145.646,271.938,145.263,271.784,145.479,271.568z M238.888,271.568c0.216-0.215,0.775-0.238,1.243-0.051
	c0.518,0.207,0.364,0.361-0.392,0.393C239.056,271.938,238.672,271.784,238.888,271.568z M97.301,270.501
	c0.001-0.268,2.994-0.439,6.65-0.382c6.917,0.107,6.132,0.387-1.947,0.691C99.417,270.908,97.3,270.769,97.301,270.501z
	 M202.549,269.567c0.625-0.163,1.646-0.163,2.271,0s0.113,0.297-1.136,0.297C202.436,269.864,201.925,269.73,202.549,269.567z
	 M247.971,269.623c0.215-0.216,0.774-0.238,1.242-0.052c0.518,0.207,0.364,0.36-0.392,0.392
	C248.138,269.991,247.754,269.838,247.971,269.623z M91.632,268.9c0.986-0.148,2.445-0.145,3.243,0.01
	c0.798,0.153-0.009,0.275-1.792,0.271C91.299,269.174,90.646,269.05,91.632,268.9z M226.537,268.9
	c0.975-0.148,2.727-0.15,3.893-0.006c1.166,0.144,0.369,0.265-1.771,0.269C226.518,269.17,225.563,269.049,226.537,268.9z
	 M167.52,268.242c1.338-0.14,3.527-0.14,4.865,0c1.338,0.141,0.243,0.255-2.433,0.255S166.182,268.383,167.52,268.242z
	 M186.34,268.25c0.986-0.149,2.446-0.146,3.244,0.009s-0.01,0.276-1.793,0.271S185.354,268.398,186.34,268.25z M192.162,267.621
	c0.62-0.162,1.787-0.168,2.595-0.014c0.807,0.156,0.3,0.289-1.128,0.296C192.202,267.91,191.542,267.783,192.162,267.621z
	 M199.916,267.327c0.828-0.525,9.438-0.813,8.903-0.298c-0.148,0.144-2.403,0.391-5.011,0.549
	C201.169,267.738,199.443,267.627,199.916,267.327z M238.551,266.943c1.516-0.137,3.997-0.137,5.514,0
	c1.516,0.137,0.275,0.248-2.758,0.248C238.275,267.191,237.034,267.08,238.551,266.943z M219.995,266.049
	c0.483-0.307,2.923-0.539,5.419-0.516c5.538,0.051,4.887,0.383-1.527,0.778C221.1,266.483,219.481,266.374,219.995,266.049z
	 M265.383,266.181c-0.553-0.351,0.318-0.45,2.271-0.261c4.394,0.428,5.006,0.739,1.547,0.788
	C267.595,266.73,265.877,266.493,265.383,266.181z M242.195,265.61c0.333-0.54,6.219-0.384,6.781,0.18
	c0.183,0.182-1.34,0.331-3.383,0.331S242.021,265.891,242.195,265.61z M252.983,264.721c2.505-0.683,6.187-1.355,4.378-0.8
	c-0.623,0.192-1.135,0.619-1.135,0.95c0,0.33-1.24,0.57-2.757,0.534l-2.757-0.065L252.983,264.721z M274.877,265.043
	c0.445-0.181,1.176-0.181,1.621,0c0.445,0.18,0.081,0.326-0.811,0.326C274.795,265.369,274.43,265.223,274.877,265.043z
	 M275.363,262.877c-1.609-0.409-1.307-0.508,1.745-0.572c2.03-0.041,3.872,0.216,4.093,0.572
	C281.664,263.626,278.306,263.626,275.363,262.877z M206.279,244.035l-8.109-0.355l9.406-0.049
	c5.173-0.027,12.617,0.163,16.541,0.422l7.136,0.471l-8.433-0.066C218.182,244.42,210.738,244.23,206.279,244.035z M236.177,244.115
	c-0.503-0.317-1.32-0.422-1.817-0.232c-0.688,0.266-0.801-0.057-0.475-1.356c0.335-1.333,0.19-1.704-0.663-1.704
	c-0.692,0-1.009-0.415-0.867-1.135c0.174-0.883,0.869-1.131,3.129-1.113l2.905,0.021l0.197,3.059
	C238.789,244.795,238.199,245.396,236.177,244.115z M115.464,242.951c-2.319-0.119-12.92-0.442-23.558-0.718
	c-12.271-0.317-19.503-0.75-19.785-1.183c-0.244-0.375-0.881-0.869-1.417-1.099c-0.535-0.229,3.328-0.328,8.584-0.221
	c9.188,0.188,9.516,0.149,8.495-0.979c-0.871-0.962-2.084-1.174-6.721-1.174c-3.671,0-6.513-0.357-8.093-1.018
	c-2.638-1.103-3.561-0.714-3.733,1.569c-0.085,1.132-0.519,1.395-2.307,1.395c-1.832,0-2.128-0.191-1.763-1.136
	c0.242-0.624,0.602-1.938,0.799-2.919c0.346-1.713,0.255-1.783-2.277-1.783c-2.855,0-3.601-0.572-2.95-2.267
	c0.23-0.601,0.594-0.8,0.813-0.445c0.218,0.353,4.774,0.843,10.126,1.091c5.352,0.247,10.022,0.494,10.379,0.549
	c0.356,0.055,0.818-1.652,1.026-3.793c0.373-3.842,0.379-3.853,0.486-0.791c0.117,3.331,1.286,4.507,3.037,3.055
	c1.233-1.024,1.256-4.463,0.033-4.934c-0.532-0.203-0.765-0.793-0.542-1.373c0.316-0.824,0.062-0.935-1.338-0.583
	c-1.279,0.321-1.729,0.188-1.729-0.511c0-0.591,0.789-1.02,2.108-1.147l2.108-0.203l0.536-7.743
	c0.546-7.89,0.068-10.935-1.659-10.587c-1.204,0.243-0.924-6.674,0.307-7.58c0.642-0.473,1.054-2.606,1.321-6.849
	c0.344-5.457,0.282-6.018-0.544-4.903c-1.233,1.664-1.188,0.792,0.086-1.672c1.412-2.731,3.717-30.226,2.566-30.609
	c-0.423-0.141-0.393-0.784,0.085-1.834c0.405-0.889,0.951-5.762,1.211-10.827c0.261-5.066,0.729-9.367,1.039-9.559
	s0.491,0.325,0.403,1.148c-0.125,1.164,0.16,1.498,1.282,1.498c0.793,0,1.905,0.657,2.469,1.459c1.16,1.65,0.583,1.875-1.251,0.487
	c-0.677-0.513-1.487-0.773-1.8-0.58c-0.582,0.359-0.18,20.016,0.499,24.419c0.239,1.55,0.119,2.433-0.331,2.433
	c-1.173,0-0.938,21.341,0.267,24.225c0.535,1.281,0.962,2.703,0.948,3.161c-0.014,0.458-0.438-0.117-0.941-1.276
	c-0.504-1.16-1.003-2.108-1.11-2.108c-0.285,0,0.08,39.735,0.367,40.022c0.134,0.134,1.781-0.362,3.659-1.104
	c1.878-0.74,3.741-1.236,4.138-1.104c0.398,0.133-1.216,0.888-3.587,1.677c-3.208,1.067-4.405,1.794-4.677,2.836
	c-0.202,0.771-0.218,1.55-0.036,1.731c0.182,0.183,2.579-0.256,5.326-0.973c3.322-0.866,5.001-1.619,5.012-2.248
	c0.01-0.52,0.233-1.289,0.497-1.711c0.264-0.422,0.196-0.941-0.151-1.156c-0.705-0.436-0.196-2.295,0.628-2.295
	c0.29,0,0.72,0.877,0.955,1.947c0.235,1.07,0.696,1.945,1.024,1.945s0.597,0.47,0.597,1.043c0,0.776,0.397,0.944,1.548,0.655
	c1.22-0.306,1.626-0.088,1.919,1.031c0.204,0.78,0.059,1.796-0.324,2.257c-1.128,1.359,0.869,1.699,7.969,1.357
	c3.57-0.172,6.147-0.101,5.729,0.158c-1.728,1.068,0.789,1.162,6.501,0.242c6.681-1.075,7.256-0.896,8.05,2.5l0.417,1.783
	l-6.986,0.013c-8.851,0.017-13.286,1.065-13.807,3.269c-0.329,1.393-0.43,1.44-0.831,0.396c-0.687-1.787-0.559-2.38,0.516-2.38
	c0.535,0,0.973-0.255,0.973-0.565s1.459-0.758,3.244-0.995c3.323-0.44,3.897-0.981,2.379-2.241c-1.135-0.941-7.368-1.316-9.839-0.59
	c-3.237,0.949-4.426,1.194-7.135,1.471c-3.892,0.396-12.387,2.033-13.218,2.547c-0.401,0.248-0.729,1.197-0.729,2.109
	c0,1.408,0.221,1.598,1.459,1.254c0.803-0.223,2.189-0.553,3.081-0.734c1.318-0.268,1.384-0.226,0.352,0.223
	c-0.947,0.412-0.222,0.662,2.852,0.983c4.618,0.483,14.053,0.455,12.04-0.036c-0.713-0.174-1.735-0.679-2.271-1.123
	c-0.535-0.443-1.557-1.057-2.27-1.361c-1.1-0.469-0.952-0.59,0.967-0.799c1.246-0.137,2.435-0.522,2.643-0.858
	c0.534-0.864,2.602,1.593,2.725,3.239c0.129,1.709,2.14,1.773,13.111,0.412c4.246-0.527,7.813-0.866,7.925-0.754
	c0.112,0.111-0.118,1.127-0.511,2.255l-0.715,2.052l-7.234-0.125C122.936,243.224,117.783,243.07,115.464,242.951z M68.25,236.42
	c1.34-2.268,3.351-2.26,8.13,0.029c1.649,0.791,1.774,0.723,2.396-1.303c0.442-1.438,0.364-1.459-5.357-1.459
	c-4.973,0-5.853,0.162-6.132,1.135c-0.18,0.625-0.537,1.646-0.794,2.271C65.745,238.912,67.081,238.4,68.25,236.42z M88.291,236.119
	c-0.365-0.994-1.133-1.504-2.412-1.601c-1.032-0.077-1.511,0.02-1.065,0.216c0.446,0.197,0.811,0.789,0.811,1.315
	s0.271,0.789,0.604,0.584c0.332-0.206,0.787-0.077,1.011,0.286C88.026,238.191,88.828,237.581,88.291,236.119z M81.436,236.304
	c0.687,0.57,0.852,0.438,0.772-0.622c-0.145-1.924-2.437-1.814-2.369,0.113c0.028,0.803,0.203,1.083,0.388,0.622
	C80.477,235.791,80.783,235.762,81.436,236.304z M91.463,235.092c0-0.913-0.731-1.332-1.685-0.967
	c-1.354,0.52-1.1,1.508,0.388,1.508C90.879,235.633,91.463,235.39,91.463,235.092z M97.625,233.627
	c0.807-0.336,0.192-0.396-1.622-0.157c-1.605,0.21-3.211,0.669-3.567,1.017C91.73,235.178,95.341,234.578,97.625,233.627z
	 M94.058,231.379c0-1.07-1.025-1.252-1.622-0.287c-0.529,0.856,0.247,2.071,1.018,1.594
	C93.786,232.48,94.058,231.893,94.058,231.379z M91.046,228.402c0.776-7.424,0.504-23.906-0.394-23.903
	c-0.616,0.002-0.865,3.347-1.039,13.946c-0.141,8.621,0.01,13.944,0.394,13.944C90.35,232.39,90.817,230.596,91.046,228.402z
	 M103.408,231.832c0.19-0.308,0.134-0.77-0.124-1.027s-0.469-0.81-0.469-1.227c0-0.416-0.655-0.85-1.457-0.963
	c-1.098-0.156-1.36,0.043-1.065,0.811c0.215,0.56,0.687,1.018,1.049,1.018c0.379,0,0.316,0.412-0.149,0.973
	c-0.674,0.813-0.585,0.974,0.531,0.974C102.46,232.39,103.218,232.139,103.408,231.832z M96.652,230.68
	c0-0.484-0.415-0.685-0.973-0.471c-0.535,0.205-0.973,0.586-0.973,0.845s0.438,0.472,0.973,0.472S96.652,231.145,96.652,230.68z
	 M105.59,229.037c-0.193-2.77-1.486-4.064-2.2-2.203c-0.457,1.188,0.905,4.906,1.797,4.906
	C105.513,231.74,105.694,230.523,105.59,229.037z M108.329,230.729c0-0.157-0.455-0.286-1.011-0.286s-0.828,0.297-0.604,0.66
	C107.083,231.702,108.329,231.414,108.329,230.729z M99.247,230.119c0-0.535-0.438-0.973-0.973-0.973s-0.973,0.438-0.973,0.973
	s0.438,0.973,0.973,0.973S99.247,230.654,99.247,230.119z M90.428,201.055c0.712-0.521,1.072-1.458,0.935-2.433
	c-0.18-1.279-0.599-1.585-2.169-1.585c-1.539,0-1.991,0.313-2.158,1.495c-0.202,1.421,0.833,3.37,1.789,3.37
	C89.069,201.902,89.791,201.521,90.428,201.055z M90.814,187.539c0-5.951-0.192-7.736-0.811-7.53
	c-0.578,0.192-0.837,2.396-0.904,7.676c-0.051,4.073,0.042,7.63,0.207,7.903C90.286,197.208,90.814,194.386,90.814,187.539
	L90.814,187.539z M91.828,167.815c0.277-6.815,0.188-8.768-0.359-7.907c-0.706,1.109-1.929,17.15-1.352,17.727
	C91.033,178.552,91.501,175.868,91.828,167.815z M189.901,242.945c1.517-0.137,3.997-0.137,5.514,0s0.276,0.248-2.757,0.248
	S188.385,243.082,189.901,242.945z M181.133,242.308c0.975-0.147,2.727-0.151,3.892-0.007c1.166,0.145,0.368,0.266-1.772,0.27
	S180.158,242.455,181.133,242.308z M161.684,241.052c-0.445-0.185-0.811-1.332-0.811-2.551c0-1.985,0.186-2.217,1.783-2.217
	c1.642-0.001,1.779,0.194,1.717,2.433C164.307,241.118,163.514,241.807,161.684,241.052z M155.206,240.359
	c0.985-0.148,2.445-0.145,3.243,0.01c0.798,0.153-0.009,0.275-1.793,0.271C154.873,240.635,154.221,240.509,155.206,240.359z
	 M201.578,240.36c-1.238-0.188-1.785-0.654-1.785-1.524c0-1.101,0.478-1.254,3.893-1.254c3.719,0,3.893,0.072,3.893,1.621
	c0,1.417-0.267,1.609-2.109,1.524C204.311,240.674,202.559,240.509,201.578,240.36z M208.875,239.527
	c0-0.713,0.292-1.297,0.648-1.297c0.357,0,0.648,0.584,0.648,1.297c0,0.714-0.291,1.298-0.648,1.298
	C209.167,240.825,208.875,240.241,208.875,239.527z M211.47,239.527c0-1.104,0.433-1.297,2.919-1.297s2.919,0.192,2.919,1.297
	c0,1.105-0.433,1.298-2.919,1.298S211.47,240.633,211.47,239.527z M218.605,239.527c0-1.599,1.645-1.703,2.543-0.162
	c0.625,1.073,0.662,1.071,0.681-0.031c0.017-1.01,0.523-1.143,3.743-0.974c2.938,0.153,3.77,0.435,3.939,1.329
	c0.192,1.01-0.398,1.136-5.346,1.136C219.037,240.825,218.605,240.725,218.605,239.527z M230.281,239.49
	c0-0.735,0.292-1.156,0.648-0.936c0.357,0.221,0.648,0.822,0.648,1.336s-0.291,0.935-0.648,0.935
	C230.573,240.825,230.281,240.225,230.281,239.49z M240.063,239.906c-0.027-0.684,0.125-1.066,0.341-0.852
	c0.216,0.216,0.239,0.775,0.052,1.244C240.248,240.815,240.094,240.662,240.063,239.906z M241.309,239.852
	c0-0.702,0.721-0.973,2.596-0.973c1.873,0,2.594,0.271,2.594,0.973c0,0.703-0.721,0.974-2.594,0.974
	C242.029,240.825,241.309,240.555,241.309,239.852z M247.146,239.852c0-0.535,0.293-0.973,0.649-0.973s0.648,0.438,0.648,0.973
	s-0.292,0.974-0.648,0.974S247.146,240.387,247.146,239.852z M249.094,239.852c0-0.702,0.721-0.973,2.594-0.973
	c1.874,0,2.596,0.271,2.596,0.973c0,0.703-0.722,0.974-2.596,0.974C249.814,240.825,249.094,240.555,249.094,239.852z
	 M254.932,239.852c0-0.535,0.438-0.973,0.973-0.973s0.973,0.438,0.973,0.973s-0.438,0.974-0.973,0.974
	S254.932,240.387,254.932,239.852z M146.771,239.711c0.986-0.148,2.446-0.145,3.243,0.009c0.799,0.154-0.009,0.276-1.793,0.271
	C146.438,239.986,145.785,239.86,146.771,239.711z M187.791,239.746c-11.857-0.721-13.947-1.006-13.947-1.898
	c0-1.133,1.055-1.202,1.568-0.104c0.303,0.648,0.453,0.648,0.756,0c0.396-0.848,8.109-1.188,8.904-0.394
	c0.229,0.229,2.904,0.356,5.945,0.284c5.195-0.125,5.529-0.053,5.529,1.204C196.547,240.268,196.488,240.273,187.791,239.746
	L187.791,239.746z M197.196,238.825c0-1.581,1.516-1.357,1.831,0.271c0.125,0.64-0.207,1.08-0.811,1.08
	C197.615,240.176,197.196,239.622,197.196,238.825z M100.07,238.487c0.215-0.216,0.775-0.239,1.243-0.052
	c0.518,0.207,0.364,0.361-0.392,0.393C100.237,238.855,99.854,238.703,100.07,238.487z M169.596,238.174
	c-0.613-0.992,0.717-2.14,1.937-1.672c0.56,0.215,1.017,0.838,1.017,1.384C172.549,239.02,170.256,239.243,169.596,238.174z
	 M165.863,237.815c-0.676-0.677,0.181-1.531,1.535-1.531c0.691,0,1.258,0.438,1.258,0.974
	C168.656,238.22,166.666,238.617,165.863,237.815z M156.133,237.167c-0.518-0.519,0.068-1.531,0.887-1.531
	c0.336,0,0.609,0.438,0.609,0.974C157.629,237.611,156.863,237.897,156.133,237.167z M158.603,236.934
	c-0.221-0.357-0.092-0.649,0.286-0.649c0.377,0,0.688,0.292,0.688,0.649c0,0.356-0.129,0.648-0.287,0.648
	C159.132,237.582,158.822,237.29,158.603,236.934z M145.791,236.461c-1.338-0.141-2.433-0.527-2.433-0.859s0.949-0.48,2.108-0.328
	c1.16,0.15,2.473,0.295,2.919,0.318c0.446,0.024,0.812,0.336,0.812,0.692s-0.22,0.601-0.487,0.54S147.129,236.601,145.791,236.461z
	 M151.467,236.284c0.221-0.356,1.113-0.648,1.984-0.648s1.584,0.292,1.584,0.648s-0.894,0.649-1.984,0.649
	C151.893,236.934,151.232,236.663,151.467,236.284z M224.281,236.472c-3.514-0.384-2.992-1.484,0.703-1.484
	c3.576,0,3.987-0.231,3.529-1.983c-0.227-0.867-0.893-1.26-2.139-1.26c-1.563,0-1.756-0.199-1.41-1.46
	c0.363-1.331,0.422-1.349,0.658-0.2c0.217,1.047,0.399,0.928,1.09-0.715c0.457-1.086,0.691-2.706,0.52-3.6
	c-0.222-1.162,0.026-1.756,0.87-2.08c0.7-0.268,1.285-0.141,1.437,0.314c0.141,0.422,0.803,1.314,1.473,1.982
	c1.574,1.576,1.545,2.514-0.082,2.514c-0.864,0-1.297,0.433-1.297,1.298c0,0.721,0.433,1.298,0.973,1.298
	c0.535,0,0.973-0.328,0.973-0.729c0-0.538,0.229-0.538,0.877-0.002c0.594,0.494,1.838,0.547,3.878,0.166
	c2.069-0.387,3.467-0.32,4.493,0.213c2.044,1.06,4.449,1.646,4.041,0.984c-0.186-0.299-0.039-0.727,0.323-0.951
	c1.167-0.721,0.743-4.594-0.638-5.845c-0.714-0.646-1.32-1.64-1.35-2.208c-0.036-0.742-0.148-0.792-0.395-0.176
	c-0.217,0.545-2.838-1.777-7.142-6.327c-3.739-3.953-7.038-7.039-7.332-6.858c-0.294,0.182-1.606-1.131-2.917-2.917
	s-2.729-3.246-3.15-3.246c-0.57,0-0.746,3.622-0.683,14.069c0.078,13.038,0.173,14.101,1.278,14.487
	c0.941,0.33,0.75,0.508-0.898,0.838c-1.851,0.37-2.046,0.609-1.684,2.054c0.312,1.239,0.158,1.635-0.633,1.635
	c-0.718,0-1.043-0.585-1.043-1.87c0-1.373-0.389-1.992-1.46-2.326c-2.72-0.85-5.676-1.039-5.676-0.363
	c0,0.367,0.803,0.706,1.784,0.753c1.553,0.074,1.49,0.138-0.486,0.486c-1.709,0.302-2.322,0.763-2.479,1.86
	c-0.113,0.803-0.516,1.46-0.892,1.46c-0.419,0-0.53-0.776-0.285-1.998c0.286-1.435,0.173-1.924-0.405-1.733
	c-0.443,0.145-0.901,1.08-1.019,2.078c-0.206,1.762-0.301,1.804-3.171,1.41c-1.628-0.223-3.356-0.405-3.842-0.405
	s-0.883-0.267-0.883-0.592s1.355-0.544,3.014-0.486c1.906,0.066,3.116-0.192,3.297-0.706c0.195-0.557-0.496-0.814-2.202-0.82
	c-1.367-0.006-2.925-0.321-3.46-0.701c-0.712-0.507,0.025-0.59,2.758-0.309c2.207,0.227,3.729,0.129,3.729-0.238
	c0-0.342-1.532-0.729-3.405-0.859l-3.406-0.238l3.73-0.119c3.403-0.109,3.729-0.248,3.72-1.58c-0.014-2.053-0.703-2.91-2.753-3.424
	c-1.9-0.478-2.443-1.604-0.772-1.604c0.553,0,1.898,0.463,2.99,1.027s1.817,0.753,1.61,0.42c-0.206-0.334,0.01-1.133,0.479-1.775
	c1.242-1.698,2.566-0.604,2.1,1.736c-0.234,1.171-0.135,1.748,0.259,1.505c0.362-0.224,0.639,0.405,0.639,1.452
	c0,1.702,0.201,1.854,2.578,1.949c2.933,0.117,3.628-0.523,2.618-2.408c-0.95-1.777-3.254-1.788-2.789-0.014
	c0.186,0.713,0.043,1.297-0.317,1.297s-0.768-1.168-0.903-2.595c-0.137-1.427-0.021-2.595,0.256-2.595s0.504,0.292,0.504,0.648
	c0,0.357,0.713,0.648,1.584,0.648c1.912,0,2.479,0.814,2.934,4.217c0.191,1.428,0.639,2.596,0.996,2.596
	c0.995,0,1.137-3.747,0.191-5.039c-0.658-0.898-0.727-3.342-0.313-11.257c0.349-6.7,0.298-10.766-0.151-12.053
	c-0.445-1.277-0.461-2.347-0.045-3.124c0.385-0.717,0.396-1.265,0.029-1.396c-0.369-0.131-0.35-1.399,0.048-3.252
	c0.534-2.486,0.462-3.329-0.396-4.638c-0.577-0.88-0.771-1.702-0.433-1.827c0.339-0.125,0.812-4.31,1.051-9.299
	c0.238-4.99,0.561-9.198,0.713-9.352c0.154-0.153,0.313,1.886,0.354,4.532c0.103,6.648,0.378,8.502,1.355,9.123
	c0.647,0.411,0.654,0.536,0.03,0.544c-0.6,0.007-0.812,1.891-0.812,7.225v7.215l6.262,6.894
	c7.617,8.387,14.525,15.651,14.882,15.651c0.798,0-0.458-2.623-7.683-16.026c-4.371-8.108-8.049-15.044-8.174-15.413
	c-0.665-1.965,3.453,4.871,7.021,11.655c2.253,4.281,6.242,11.751,8.867,16.6c2.624,4.849,4.772,9.429,4.772,10.179
	c0,0.749,0.291,1.543,0.648,1.764c0.371,0.229,0.648-0.345,0.648-1.339c0-1.495,0.141-1.622,1.003-0.907
	c0.552,0.457,0.871,1.174,0.71,1.593c-0.267,0.695,3.906,2.71,4.463,2.153c0.587-0.587-0.988-5.259-2.064-6.123
	c-1.115-0.896-1.087-0.93,0.43-0.514c4.266,1.169,4.541,1.421,4.541,4.147c0,1.436-0.292,2.61-0.648,2.61
	c-0.357,0-0.649-1.07-0.649-2.379c0-1.308-0.207-2.171-0.46-1.918c-0.253,0.254-0.379,1.586-0.279,2.961
	c0.1,1.376-0.132,2.694-0.514,2.93c-0.381,0.236-0.693,1.014-0.693,1.727c0,1.104-0.364,1.269-2.43,1.098
	c-2.11-0.175-2.483-0.457-2.842-2.147l-0.412-1.946l-0.077,2.108c-0.093,2.563-1.208,2.806-1.493,0.324
	c-0.168-1.464-0.525-1.784-1.989-1.784c-0.981,0-1.711,0.293-1.622,0.649c0.09,0.356,0.819,0.637,1.622,0.623
	c0.979-0.018,1.46,0.356,1.46,1.135c0,0.895-0.521,1.161-2.271,1.161c-2.09,0-2.27-0.154-2.27-1.946
	c0-1.282-0.326-1.946-0.957-1.946c-0.713,0-0.875,0.538-0.637,2.108c0.232,1.526,0.168,1.759-0.233,0.84
	c-0.521-1.194-0.592-1.201-1.197-0.119c-0.496,0.886-1.3,1.103-3.513,0.944c-2.499-0.179-2.898-0.414-3.097-1.827
	c-0.211-1.503-1.097-2.562-2.163-2.585c-0.246-0.005-0.537,0.939-0.649,2.099C229.291,236.785,228.811,236.966,224.281,236.472
	L224.281,236.472z M237.336,235.23c1.139-0.229,2.027-0.813,2.027-1.336c0-0.512-0.305-0.742-0.678-0.512s-1.384-0.045-2.248-0.61
	c-2.088-1.368-2.74-1.298-3.263,0.35c-0.274,0.864-0.109,1.586,0.442,1.937C234.686,235.734,234.789,235.739,237.336,235.23z
	 M252.822,234.176c-0.408-1.227-2.432-1.401-2.432-0.209c0,0.602,0.555,1.021,1.351,1.021
	C252.534,234.987,252.981,234.652,252.822,234.176z M209.523,228.824c0-1.248-0.29-2.27-0.645-2.27s-0.521,0.656-0.373,1.459
	c0.15,0.803,0.295,1.824,0.32,2.271C208.938,232.143,209.523,230.914,209.523,228.824z M228.465,229.02
	c-0.605-0.605-0.778-0.433-0.778,0.778s0.173,1.384,0.778,0.778S229.07,229.625,228.465,229.02z M254.941,236.122
	c0.018-1.465,1.118-2.601,2.676-2.759c0.842-0.086,1.895-0.193,2.341-0.239c0.45-0.046,0.812-0.948,0.812-2.028
	c0-1.298,0.324-1.947,0.973-1.947s0.973,0.649,0.973,1.947c0,1.34-0.318,1.945-1.024,1.945c-0.801,0-0.931,0.425-0.597,1.946
	c0.402,1.833,0.312,1.946-1.57,1.946c-1.613,0-2.015-0.281-2.086-1.46l-0.088-1.46l-0.281,1.46
	C256.776,236.987,254.924,237.553,254.941,236.122z M211.47,235.312c0-0.721,0.757-0.974,2.919-0.974s2.919,0.253,2.919,0.974
	s-0.757,0.973-2.919,0.973S211.47,236.032,211.47,235.312z M230.281,235.674c0-0.377,0.292-0.687,0.648-0.687
	c0.357,0,0.648,0.128,0.648,0.286c0,0.157-0.291,0.467-0.648,0.687C230.573,236.181,230.281,236.052,230.281,235.674z
	 M139.466,235.35c0-0.685,1.245-0.973,1.615-0.373c0.224,0.362-0.047,0.659-0.604,0.659
	C139.921,235.636,139.466,235.507,139.466,235.35z M188.766,234.619c0-0.777,0.344-0.894,1.46-0.492
	c0.803,0.289,2.554,0.483,3.892,0.434c1.338-0.051,2.434,0.17,2.434,0.491s-1.752,0.584-3.893,0.584
	C189.557,235.636,188.766,235.43,188.766,234.619z M197.492,233.527c0.25-1.159,0.617-3.207,0.816-4.55
	c0.277-1.879,0.717-2.531,1.904-2.829c0.849-0.213,1.926-0.07,2.394,0.318c0.616,0.511,1.06,0.495,1.613-0.058
	c0.585-0.585,0.763-0.278,0.763,1.313c0,1.142-0.291,2.076-0.648,2.076s-0.648-0.493-0.648-1.097c0-0.959-0.123-0.938-0.974,0.162
	c-0.917,1.186-1.014,1.192-1.653,0.123c-0.877-1.463-2.187-1.484-1.627-0.026c0.5,1.306-0.953,6.676-1.807,6.676
	C197.3,235.636,197.24,234.691,197.492,233.527z M273.096,234.896c0-0.509-1.115-0.625-3.568-0.371
	c-1.962,0.202-3.567,0.112-3.567-0.2c0-0.312,1.532-0.655,3.405-0.764l3.406-0.196l-0.204-4.865l-0.204-4.865l1.295,2.051
	c0.711,1.127,1.865,2.231,2.564,2.453c0.707,0.225,1.42,1.185,1.609,2.166c0.437,2.273,0.207,2.443-1.596,1.181
	c-1.951-1.366-2.492-1.311-2.492,0.259c0,0.9,0.446,1.31,1.459,1.338l1.46,0.041l-1.501,0.603c-0.826,0.331-1.319,0.896-1.098,1.256
	c0.223,0.36,0.096,0.654-0.282,0.654S273.096,235.303,273.096,234.896z M170.475,234.42c-0.941-0.346-0.869-0.518,0.486-1.156
	c1.273-0.6,1.592-0.574,1.592,0.125C172.553,234.551,171.822,234.914,170.475,234.42z M173.851,231.137
	c0-6.113-2.077-10.001-2.448-4.582c-0.1,1.453,0.114,2.594,0.486,2.594c0.365,0,0.664,0.377,0.664,0.837s-0.656,0.842-1.459,0.849
	c-5.771,0.047-6.324,0.212-6.324,1.883c0,0.892-0.279,1.621-0.619,1.621s-0.559-0.803-0.486-1.783
	c0.121-1.633-0.051-1.775-2.023-1.684c-2.736,0.128-3.189,0.604-2.154,2.26c0.787,1.262,0.723,1.307-1.267,0.869
	c-1.152-0.253-3.56-0.46-5.349-0.46h-3.253l2.201-0.926c2.114-0.889,4.517-2.936,4.517-3.848c0-0.239-1.021-0.271-2.27-0.067
	c-1.249,0.202-2.271,0.11-2.271-0.204c0-0.315-1.378-0.661-3.063-0.771c-2.882-0.186-3.104-0.332-3.73-2.468
	c-0.817-2.784-1.502-3.892-2.406-3.892c-0.446,0-0.414,0.332,0.09,0.938c1.068,1.286,1.999,8.265,1.057,7.928
	c-0.388-0.139-0.635-0.877-0.55-1.641c0.115-1.028-0.2-1.388-1.214-1.388c-1.204,0-1.262,0.132-0.479,1.094
	c0.778,0.957,0.75,1.043-0.224,0.678c-1.584-0.594-1.923,0.365-0.731,2.066c0.754,1.077,1.421,1.354,2.567,1.066
	c0.916-0.229,1.549-0.103,1.549,0.313c0,0.41-0.987,0.616-2.389,0.498c-2.006-0.169-2.526-0.539-3.247-2.313
	c-0.776-1.911-0.734-2.219,0.443-3.226c1.736-1.486,1.64-2.123-0.321-2.123c-0.892,0-1.622-0.292-1.622-0.648
	c0-0.796-5.867-0.788-9.406,0.013c-2.053,0.464-1.613,0.516,2.108,0.248c2.756-0.199,4.703-0.086,4.703,0.273
	c0,0.336,0.584,0.765,1.297,0.951c3.051,0.797,0.853,1.434-4.954,1.434c-5.861,0-6.281-0.09-6.781-1.439
	c-0.32-0.865-0.27-1.601,0.127-1.846c0.363-0.225,4.145-0.569,8.404-0.766l7.744-0.356v-2.725c0-2.185-0.29-2.864-1.459-3.429
	c-1.42-0.685-1.41-0.705,0.391-0.748l1.851-0.044l-0.19-8.271c-0.104-4.549-0.135-9.925-0.067-11.947l0.123-3.676l3.086-0.662
	c3.584-0.769,8.375-0.295,8.822,0.872c0.17,0.443,0.144,6.521-0.059,13.506l-0.368,12.701l-1.724-0.345
	c-2.068-0.414-3.465,0.974-3.158,3.137c0.242,1.712,2.428,2.321,4.247,1.183c1.034-0.647,1.013-0.684-0.214-0.352
	c-2.779,0.751-4.605-1.176-2.652-2.797c1.082-0.898,3.695-0.232,3.695,0.942c0,0.593,0.77,0.897,2.271,0.897
	c1.248,0,2.27,0.121,2.27,0.271c0,0.148,0.174,0.724,0.387,1.277c0.244,0.637-0.404,1.729-1.767,2.972
	c-1.185,1.081-1.796,1.966-1.359,1.966s0.794-0.245,0.794-0.545c0-0.299,0.775-0.898,1.725-1.33c1.893-0.862,2.47-0.438,3.216,2.361
	c0.554,2.075,2.843,1.967,2.843-0.135c0-1.038-0.776-2.213-2.229-3.372c-1.226-0.978-2.084-2.013-1.908-2.298
	c0.512-0.827,1.193-0.617,2.771,0.854c1.545,1.439,2.372,1.127,2.781-1.049c0.179-0.953,0.779-0.23,2.264,2.723l2.021,4.021
	l-2.688,0.245c-2.485,0.227-2.433,0.254,0.718,0.358c3.365,0.112,3.405,0.091,3.405-1.802c0-2.787-1.29-5.184-3.37-6.259
	c-1-0.518-1.819-1.226-1.819-1.573c0-0.85,0.871-0.799,1.772,0.104c0.404,0.404,1.193,0.559,1.752,0.344
	c0.794-0.305,1.017-1.424,1.018-5.113v-4.723l2.756-0.195c1.517-0.107,3.997,0.149,5.514,0.571l2.757,0.766v6.007v6.008l2.433,0.295
	c1.371,0.166,2.641-0.016,2.908-0.416c0.263-0.391,0.481-3.198,0.487-6.239l0.01-5.528l4.151,0.348l4.151,0.349l0.348-2.591
	c0.481-3.585-1.425-4.455-6.546-2.986c-1.908,0.547-2.108,0.472-2.148-0.811c-0.024-0.778-0.161-2.716-0.305-4.307
	c-0.164-1.827,0.031-3.079,0.531-3.396c1.151-0.731,6.182-0.633,7.645,0.149c0.865,0.463,1.254,0.463,1.254,0
	c0-0.369,0.658-0.667,1.461-0.662c0.943,0.006,1.179,0.188,0.666,0.514c-0.941,0.599-1.039,24.567-0.102,25.147
	c0.994,0.614,0.639,2.207-0.402,1.808c-0.549-0.21-0.974-0.016-0.974,0.445c0,0.566-0.366,0.487-1.187-0.255
	c-0.652-0.59-1.602-1.072-2.107-1.07c-0.549,0.002-0.209,0.593,0.841,1.459c2.149,1.775,3.737,5.407,2.088,4.774
	c-0.571-0.22-2.529-0.398-4.353-0.398c-2.852,0-3.156-0.116-2.178-0.831c0.955-0.697,1.051-1.335,0.604-4.002
	c-0.736-4.396-2.354-4.867-2.045-0.595c0.227,3.127-0.877,5.156-1.275,2.347c-0.209-1.463-1.049-1.928-1.67-0.924
	c-0.574,0.931,0.367,3.355,1.304,3.355c0.614,0,0.897,0.818,0.897,2.596c0,2.938-1.07,3.524-1.481,0.811l-0.271-1.783l-0.098,1.783
	c-0.096,1.767-0.14,1.783-4.637,1.783c-2.498,0-4.541-0.277-4.541-0.617c0-0.357,1.316-0.463,3.121-0.248
	c2.508,0.297,3.359,0.131,4.338-0.842c1.189-1.184,1.121-1.221-2.959-1.586l-4.176-0.375l3.691-0.111
	c2.03-0.062,3.876-0.41,4.102-0.774c0.516-0.835-1.679-5.344-2.766-5.681c-0.558-0.174-0.811,0.576-0.811,2.396
	c0,1.495-0.312,2.648-0.715,2.648c-0.447,0-0.627-1.086-0.481-2.918c0.242-3.049-0.37-3.688-1.738-1.816
	c-0.576,0.787-0.613,1.412-0.132,2.185c0.75,1.2,0.164,3.487-0.748,2.923c-0.318-0.197-0.763-1.332-0.986-2.523
	c-0.223-1.189-0.861-2.726-1.418-3.412c-0.973-1.197-0.996-1.182-0.572,0.374c0.87,3.2,1.131,10.378,0.377,10.378
	C174.123,234.986,173.85,233.531,173.851,231.137L173.851,231.137z M159.58,228.215c0-0.975-1.165-2.01-1.681-1.494
	c-0.452,0.453,0.443,2.428,1.101,2.428C159.318,229.148,159.58,228.729,159.58,228.215z M153.051,226.594
	c0.772-0.488,0.787-0.765,0.084-1.611c-1.232-1.484-1.988-1.256-1.988,0.599C151.146,227.313,151.564,227.534,153.051,226.594z
	 M151.867,203.762c-0.102-1.91-0.523-3.695-0.939-3.967c-0.414-0.272-2.506-0.42-4.646-0.328l-3.892,0.167l-0.19,3.94l-0.19,3.939
	l5.021-0.14l5.021-0.14L151.867,203.762z M223.306,233.893c0.62-0.162,1.788-0.168,2.595-0.014c0.807,0.156,0.3,0.289-1.127,0.296
	C223.346,234.182,222.686,234.055,223.306,233.893z M263.369,232.021c0-1.81,0.236-2.272,1.074-2.108
	c1.276,0.25,1.732,2.416,0.756,3.594C264.008,234.941,263.369,234.424,263.369,232.021z M190.068,231.744
	c-1.271-0.407-1.34-0.518-0.324-0.508c0.714,0.007,2.174,0.234,3.244,0.508c1.748,0.444,1.781,0.496,0.324,0.507
	C192.42,232.258,190.961,232.029,190.068,231.744z M146.758,229.982c0.975-0.147,2.727-0.15,3.893-0.006s0.368,0.266-1.772,0.269
	C146.737,230.249,145.783,230.131,146.758,229.982z M111.693,227.777l0.21-2.195l4.865-0.451c4.094-0.38,4.993-0.283,5.676,0.61
	c1.548,2.026,0.904,2.563-3.568,2.972c-2.408,0.221-5.057,0.595-5.886,0.831C111.601,229.94,111.5,229.803,111.693,227.777z
	 M222.5,228.256c0-0.492,0.41-1.234,0.91-1.649c1.217-1.011,1.809,0.565,0.648,1.726C222.999,229.392,222.5,229.367,222.5,228.256z
	 M237.853,227.744c-1.306-1.425-1.055-2.216,0.513-1.615c0.551,0.212,1,0.978,1,1.702
	C239.365,229.396,239.367,229.396,237.853,227.744z M242.934,227.852c-0.221-0.356,0.055-0.648,0.61-0.648s1.011,0.292,1.011,0.648
	c0,0.357-0.273,0.648-0.609,0.648S243.154,228.209,242.934,227.852z M240.664,226.23c-0.459-0.553-0.688-1.15-0.51-1.329
	c0.178-0.179,0.699,0.128,1.158,0.68c0.458,0.553,0.688,1.15,0.509,1.329C241.643,227.088,241.122,226.782,240.664,226.23z
	 M97.306,225.906c0.535-0.347,1.411-0.613,1.946-0.594c0.642,0.023,0.531,0.226-0.324,0.594
	C97.144,226.672,96.12,226.672,97.306,225.906z M108.982,224.608c0-0.356,0.42-0.649,0.935-0.649s1.115,0.293,1.335,0.649
	c0.221,0.356-0.2,0.648-0.935,0.648C109.583,225.257,108.982,224.965,108.982,224.608z M75.916,222.662
	c-0.01-1.004,4.432-13.758,4.474-12.845c0.06,1.322-2.921,10.818-3.83,12.197C76.208,222.549,75.918,222.841,75.916,222.662z
	 M106.387,221.834c0-0.457-0.624-1.363-1.386-2.016c-1.881-1.611-0.876-2.145,5.095-2.704l4.746-0.444l-1.633-1.514
	c-0.898-0.833-1.633-2.066-1.633-2.741c0-3.199,5.528-4.639,7.422-1.933c1.364,1.947,1.271,3.537-0.287,4.871
	c-1.638,1.402-1.625,1.764,0.122,3.392l1.42,1.322h-1.458c-0.807,0-1.279,0.29-1.057,0.649c0.252,0.408-1.278,0.648-4.14,0.648
	c-2.497,0-4.721,0.291-4.941,0.648C108.08,222.947,106.387,222.813,106.387,221.834L106.387,221.834z M116.016,219.736
	c0.555-0.556-0.716-1.549-2.478-1.936c-2.111-0.464-5.253,0.742-5.729,2.197c-0.242,0.742,0.45,0.82,3.84,0.438
	C113.924,220.178,115.889,219.863,116.016,219.736z M128.604,220.881c3.762-0.126,6.325-0.482,6.325-0.879
	c0-0.427-2.431-0.594-6.764-0.463l-6.764,0.204l0.185-14.547c0.18-14.201,0.219-14.575,1.646-15.73
	c0.804-0.651,2.496-1.184,3.76-1.184c2.143,0,2.23-0.077,1.286-1.135c-0.853-0.956-0.873-1.263-0.128-1.946
	c0.487-0.446,1.17-0.811,1.518-0.811c0.885,0,1.534-2.348,1.062-3.837c-0.217-0.683-0.091-1.43,0.281-1.66
	c0.648-0.401,1.016,1.719,0.771,4.443c-0.098,1.087,0.27,1.185,3.465,0.92c4.645-0.385,4.65,0.5,0.007,1.08
	c-1.962,0.245-3.568,0.716-3.568,1.048c0,0.331,0.511,0.602,1.135,0.601c1.05,0,1.121,0.994,0.947,13.298l-0.188,13.299h1.571
	c1.603,0,2.852,2.221,1.662,2.957c-0.323,0.199-0.588,0.055-0.588-0.324c0-0.378-0.246-0.687-0.545-0.687
	c-0.3,0-0.347,1.313-0.103,2.919l0.443,2.919l-6.87-0.136l-6.87-0.136L128.604,220.881L128.604,220.881z M129.623,216.983
	c0.22-1.545-1.152-2.504-2.722-1.901c-0.573,0.22-0.776,0.954-0.566,2.05C126.753,219.326,129.307,219.211,129.623,216.983z
	 M130.27,211.705c0.363-3.691-2.56-5.429-5.388-3.204c-1.077,0.848-1.629,1.925-1.629,3.181c0,2.706,1.804,2.523,2.067-0.209
	c0.17-1.762,0.469-2.108,1.825-2.108c1.458,0,1.614,0.248,1.546,2.458C128.596,214.853,129.971,214.75,130.27,211.705z
	 M132.728,203.474c-0.217-0.564-0.394-2.293-0.394-3.842c0-2.651-0.135-2.86-2.305-3.577c-1.332-0.439-3.043-0.551-4.054-0.265
	c-0.962,0.272-2.042,0.519-2.398,0.548c-0.357,0.029-0.737,1.769-0.846,3.867c-0.181,3.504-0.095,3.788,1.063,3.485
	c0.693-0.181,1.658-0.078,2.143,0.229c0.486,0.308,2.301,0.564,4.034,0.569C132.58,204.498,133.054,204.323,132.728,203.474z
	 M124.701,200.607c0-1.249,0.133-1.76,0.296-1.135s0.163,1.646,0,2.271S124.701,201.856,124.701,200.607z M132.334,188.283
	c-1.27-0.821-2.129-0.821-1.622,0c0.221,0.356,0.895,0.644,1.498,0.639C133.156,188.913,133.173,188.824,132.334,188.283z
	 M160.896,221.189c-0.012-0.273,0.774-1.734,1.745-3.242c0.972-1.51,2.584-4.35,3.584-6.313c1-1.962,1.635-2.838,1.41-1.946
	C166.939,212.456,160.957,222.665,160.896,221.189z M137.523,219.419c0-0.356,0.129-0.648,0.286-0.648s0.466,0.292,0.687,0.648
	s0.092,0.649-0.286,0.649S137.523,219.775,137.523,219.419z M72.707,212.013c-0.028-0.684,0.125-1.067,0.341-0.852
	c0.215,0.215,0.238,0.775,0.051,1.243C72.892,212.922,72.738,212.769,72.707,212.013z M179.862,208.85
	c-0.47-1.035-0.536-1.756-0.162-1.756c1.036,0,0.722-1.774-0.392-2.201c-1.994-0.766-7.232-0.413-8.023,0.541
	c-1.635,1.97-2.324,0.484-1.973-4.248c0.406-5.461,1.252-6.364,6.119-6.526l3.281-0.109l-3.893-0.431
	c-2.756-0.305-3.205-0.462-1.538-0.54c1.294-0.06,2.753-0.594,3.243-1.187c0.948-1.147,0.705-1.141-3.975,0.109
	c-1.145,0.305-1.358,0.247-0.729-0.2c0.516-0.364,0.68-0.979,0.39-1.449c-0.392-0.634,0.206-0.723,2.674-0.396
	c5.493,0.727,13.187,1.068,10.639,0.472c-2.269-0.53-2.269-0.531-0.325-0.606c3.645-0.141,3.881,0.908,0.529,2.349
	c-1.718,0.739-3.939,1.547-4.938,1.797c-1.68,0.421-1.738,0.538-0.787,1.589c0.826,0.912,0.99,2.447,0.841,7.84
	C180.682,209.807,180.564,210.396,179.862,208.85L179.862,208.85z M180.983,192.823c0-0.761-0.499-0.761-2.271,0
	c-1.149,0.494-1.094,0.563,0.486,0.603C180.181,193.452,180.983,193.18,180.983,192.823z M80.497,207.743
	c-0.02-0.535,0.248-1.411,0.593-1.946c0.766-1.186,0.766-0.162,0,1.622C80.722,208.274,80.521,208.384,80.497,207.743z
	 M74.01,207.418c0.068-1.229,1.149-3.298,1.187-2.271c0.02,0.536-0.248,1.411-0.593,1.946S73.99,207.775,74.01,207.418z
	 M210.589,203.202c0.22-0.892,0.797-2.498,1.284-3.568c0.712-1.563,0.808-1.626,0.488-0.324c-0.219,0.892-0.797,2.498-1.284,3.568
	C210.365,204.441,210.27,204.504,210.589,203.202z M75.262,203.384c0-0.941,6.802-26.076,10.68-39.465
	c1.618-5.588,2.942-10.341,2.942-10.563c0-0.222,0.16-0.243,0.356-0.047c0.351,0.351-0.766,4.681-5.316,20.618
	c-2.846,9.97-4.134,14.631-6.406,23.19C75.999,202.841,75.262,204.887,75.262,203.384L75.262,203.384z M81.805,203.442
	c0.067-1.229,1.148-3.298,1.186-2.271c0.02,0.535-0.247,1.411-0.593,1.946C82.052,203.653,81.785,203.799,81.805,203.442z
	 M103.257,201.172c0-0.892,0.147-1.257,0.328-0.811c0.18,0.446,0.18,1.176,0,1.622C103.405,202.429,103.257,202.064,103.257,201.172
	z M80.451,200.99c0-0.848,4.053-11.549,4.286-11.316c0.135,0.136-0.651,2.704-1.747,5.708
	C81.138,200.457,80.451,201.974,80.451,200.99z M189.708,195.881c0-1.444,1.207-1.56,2.317-0.223
	c0.506,0.609,1.808,0.941,3.484,0.888l2.678-0.085l-2.271-0.432l-2.271-0.433l2.387-0.319c1.313-0.176,2.244-0.089,2.07,0.193
	c-0.174,0.282,0.357,0.538,1.181,0.568c1.288,0.048,1.225,0.141-0.448,0.657c-1.07,0.331-3.563,0.552-5.537,0.492
	C190.281,197.095,189.708,196.886,189.708,195.881L189.708,195.881z M192.201,194.293c0.215-0.216,0.774-0.239,1.242-0.051
	c0.518,0.207,0.364,0.361-0.392,0.392C192.368,194.662,191.984,194.509,192.201,194.293z M194.795,194.293
	c0.216-0.216,0.775-0.239,1.244-0.051c0.518,0.207,0.363,0.361-0.393,0.392C194.963,194.662,194.58,194.509,194.795,194.293z
	 M197.391,193.645c0.215-0.215,0.774-0.238,1.242-0.051c0.518,0.207,0.364,0.361-0.392,0.392
	C197.558,194.014,197.174,193.86,197.391,193.645z M190.234,191.645c0.619-0.163,1.787-0.168,2.594-0.013s0.3,0.288-1.127,0.295
	C190.273,191.934,189.613,191.807,190.234,191.645z M195.106,191.012c0.446-0.18,1.176-0.18,1.622,0
	c0.445,0.18,0.08,0.327-0.811,0.327C195.025,191.339,194.66,191.192,195.106,191.012z M235.162,190.793
	c-0.221-0.356-0.092-0.648,0.286-0.648s0.687,0.292,0.687,0.648c0,0.357-0.129,0.649-0.285,0.649
	C235.691,191.442,235.383,191.15,235.162,190.793z M154.934,189.458c1.541-0.684,2.635-1.51,2.434-1.837s0.582-0.968,1.74-1.425
	c1.159-0.458,2.399-0.972,2.756-1.142c0.357-0.17,0.248,0.176-0.241,0.769c-0.489,0.593-1.237,1.078-1.663,1.078
	c-0.424,0-1.61,0.876-2.636,1.946c-1.169,1.219-2.485,1.929-3.527,1.9C152.374,190.708,152.539,190.521,154.934,189.458z
	 M199.987,190.401c0.216-0.216,0.774-0.239,1.243-0.051c0.518,0.207,0.363,0.361-0.393,0.392
	C200.154,190.77,199.771,190.617,199.987,190.401z M190.635,189.499c1.554-0.334,3.451-0.796,4.217-1.027
	c0.961-0.29,1.191-0.209,0.743,0.262c-0.356,0.375-2.254,0.837-4.216,1.027C187.924,190.096,187.9,190.087,190.635,189.499z
	 M201.109,189.2c-1.605-0.481-2.336-0.907-1.623-0.947c0.715-0.04,2.027-0.221,2.92-0.401c1.354-0.275,1.408-0.236,0.328,0.235
	c-0.825,0.36,1.11,0.528,5.352,0.466c3.654-0.054,6.645,0.136,6.645,0.422s-1.386,0.524-3.08,0.528
	c-1.695,0.004-4.104,0.134-5.352,0.29C205.049,189.948,202.715,189.681,201.109,189.2z M206.461,189.066
	c-0.447-0.18-1.176-0.18-1.623,0c-0.445,0.18-0.08,0.327,0.812,0.327S206.906,189.246,206.461,189.066z M148.891,188.847
	c-0.232-0.376,0.398-0.649,1.502-0.649c1.047,0,2.889-0.141,4.092-0.313c2.117-0.302,2.104-0.282-0.404,0.599
	C150.912,189.597,149.418,189.702,148.891,188.847z M176.459,188.903c-3.467-0.37-3.522-0.406-1.951-1.298
	c0.986-0.561,3.764-0.96,7.135-1.028c6.971-0.14,7.303-0.187,6.816-0.974c-0.221-0.356-0.074-0.648,0.324-0.648
	c0.399,0,0.57-0.253,0.379-0.562c-0.191-0.309-1.157-0.465-2.146-0.348c-0.99,0.118-1.289,0.057-0.664-0.134
	c0.979-0.301,1.738-3.497,0.83-3.497c-0.167,0-2.46,0.704-5.096,1.564c-5.834,1.905-18.605,3.37-19.318,2.217
	c-0.354-0.574-1.689-0.494-5.408,0.323c-2.717,0.597-5.879,1.05-7.027,1.008c-1.67-0.061-1.438-0.194,1.152-0.66
	c1.785-0.32,4.558-0.852,6.163-1.18s5.839-0.607,9.408-0.618c5.89-0.019,15.593-1.345,17.226-2.354
	c0.359-0.222,1.545-0.66,2.637-0.973c1.617-0.464,1.916-0.395,1.621,0.375c-0.248,0.645,0.094,0.961,1.076,0.996
	c0.791,0.028,1.074,0.199,0.629,0.378c-1.13,0.456-1.017,1.517,0.162,1.517c0.535,0,0.899,0.365,0.811,0.811
	c-0.295,1.47-2.562,3.047-4.949,3.442c-3.832,0.634-4.518,1.047-2.673,1.61c1.34,0.409,1.171,0.487-0.974,0.454
	C181.194,189.303,178.422,189.113,176.459,188.903z M177.918,187.769c-0.445-0.18-1.176-0.18-1.621,0
	c-0.446,0.18-0.081,0.327,0.811,0.327C178,188.096,178.364,187.949,177.918,187.769z M221.866,189.245
	c0-0.533,3.968-0.801,4.283-0.29c0.185,0.297-0.704,0.541-1.975,0.541C222.905,189.496,221.866,189.383,221.866,189.245z
	 M85.015,188.522c0-0.356,0.283-1.086,0.629-1.622s0.629-0.681,0.629-0.324s-0.283,1.086-0.629,1.622S85.015,188.879,85.015,188.522
	z M187.013,188.455c0.216-0.215,0.775-0.238,1.243-0.051c0.518,0.207,0.364,0.361-0.392,0.392
	C187.181,188.824,186.797,188.671,187.013,188.455z M191.702,187.259c1.427-0.543,3.763-0.955,5.189-0.916l2.595,0.071l-2.595,0.467
	c-1.427,0.257-3.763,0.669-5.189,0.916l-2.595,0.449L191.702,187.259z M149.807,186.853c-0.62-0.393,0.027-0.587,2.002-0.6
	c1.605-0.01,3.648-0.169,4.541-0.353c1.361-0.28,1.414-0.243,0.324,0.236C154.525,187.082,150.784,187.472,149.807,186.853z
	 M221.868,186.901c0-0.356,0.657-0.644,1.46-0.639c1.18,0.008,1.273,0.13,0.486,0.639
	C222.557,187.714,221.868,187.714,221.868,186.901z M241.951,184.921c2.236-1.445,4.171-2.524,4.299-2.396
	c0.32,0.321-6.895,5.025-7.707,5.025C238.181,187.55,239.715,186.367,241.951,184.921z M248.14,187.018
	c0.774-0.732,6.812-3.406,6.812-3.016c0,0.34-3.301,2.059-5.672,2.954C248.296,187.328,247.783,187.355,248.14,187.018
	L248.14,187.018z M254.676,186.222c1.613-0.743,4.775-1.348,8.108-1.551l5.464-0.333l-5.838,0.876
	c-3.211,0.482-6.66,1.205-7.664,1.606C251.828,187.986,251.777,187.557,254.676,186.222z M203.705,186.252
	c-1.491-0.478-1.508-0.525-0.215-0.584c0.773-0.036,1.916-0.26,2.539-0.5c0.739-0.284,0.979-0.187,0.69,0.28
	c-0.271,0.438,0.255,0.82,1.353,0.986c1.496,0.226,1.418,0.276-0.475,0.304C206.349,186.757,204.598,186.538,203.705,186.252z
	 M213.261,186.476c0.439-0.178,1.315-0.188,1.946-0.024s0.271,0.31-0.799,0.323C213.338,186.788,212.822,186.653,213.261,186.476z
	 M236.787,185.014c1.963-1.069,4.006-1.955,4.541-1.968c1.467-0.037-3.969,3.051-6.182,3.511
	C233.725,186.853,234.154,186.449,236.787,185.014z M183.434,185.823c0.446-0.18,1.176-0.18,1.622,0s0.081,0.327-0.812,0.327
	C183.354,186.15,182.988,186.003,183.434,185.823z M231.555,184.629c2.295-0.907,4.467-1.551,4.828-1.431
	c0.852,0.284-3.805,2.127-6.73,2.664C228.158,186.136,228.809,185.714,231.555,184.629z M247.166,185.013
	c0.893-0.73,1.914-1.329,2.271-1.331c0.693-0.005-0.479,0.894-2.596,1.987C245.98,186.114,246.09,185.894,247.166,185.013
	L247.166,185.013z M182.137,184.525c0.445-0.18,1.176-0.18,1.621,0c0.446,0.18,0.082,0.327-0.811,0.327
	C182.056,184.853,181.69,184.706,182.137,184.525z M198.354,184.525c0.445-0.18,1.176-0.18,1.621,0
	c0.447,0.18,0.082,0.327-0.811,0.327C198.272,184.853,197.908,184.706,198.354,184.525z M210.559,184.375
	c-0.392-0.634,1.553-1.609,2.105-1.057c0.186,0.187-0.074,0.384-0.58,0.437c-0.506,0.054,0.395,0.302,2,0.551l2.92,0.454
	l-3.043,0.097C212.287,184.911,210.756,184.694,210.559,184.375z M202.246,183.877c0.445-0.18,1.176-0.18,1.621,0
	c0.446,0.18,0.081,0.327-0.811,0.327C202.164,184.204,201.8,184.057,202.246,183.877z M224.949,183.877
	c0.446-0.18,1.176-0.18,1.622,0c0.446,0.18,0.081,0.327-0.812,0.327C224.868,184.204,224.504,184.057,224.949,183.877z
	 M205.326,183.009c0.221-0.356,1.041-0.644,1.822-0.639c1.156,0.008,1.24,0.127,0.449,0.639
	C206.319,183.835,204.816,183.835,205.326,183.009z M230.926,182.305c1.95-0.692,3.842-1.159,4.205-1.038
	c0.815,0.271-5.321,2.408-6.729,2.343C227.84,183.584,228.977,182.997,230.926,182.305z M133.975,182.466
	c1.876-0.814,7.368-1.54,6.162-0.814c-0.535,0.322-2.433,0.764-4.216,0.981C133.854,182.885,133.148,182.825,133.975,182.466z
	 M142.732,182.398c0-0.377,0.292-0.687,0.649-0.687c0.356,0,0.648,0.129,0.648,0.286c0,0.158-0.292,0.467-0.648,0.687
	C143.024,182.905,142.732,182.776,142.732,182.398z M149.543,182.629c3.361-0.502,9.662-1.561,11.352-1.908
	c0.893-0.183,0.455,0.13-0.973,0.696c-1.427,0.566-4.783,1.136-7.459,1.266C149.787,182.814,148.473,182.79,149.543,182.629z
	 M198.344,182.583c0.439-0.178,1.314-0.188,1.946-0.024c0.631,0.165,0.271,0.31-0.799,0.323
	C198.421,182.896,197.904,182.761,198.344,182.583z M260.967,182.617c0.216-0.216,0.775-0.239,1.244-0.051
	c0.518,0.207,0.363,0.361-0.393,0.392C261.135,182.986,260.752,182.833,260.967,182.617z M201.762,182.112
	c0-0.137,0.584-0.402,1.299-0.588c0.713-0.187,1.135-0.075,0.934,0.249C203.646,182.337,201.762,182.624,201.762,182.112z
	 M209.072,181.968c0.217-0.215,0.775-0.238,1.244-0.051c0.518,0.208,0.363,0.361-0.393,0.392
	C209.24,182.337,208.857,182.184,209.072,181.968z M270.521,181.393c5.52-1.018,8.535-1.189,5.648-0.322
	c-0.996,0.299-3.77,0.696-6.162,0.881l-4.352,0.338L270.521,181.393z M163.49,181.139c0-0.694,2.322-1.369,4.54-1.319
	c1.507,0.034,1.529,0.081,0.325,0.649c-2.8,1.321,9.247-0.19,13.868-1.74c2.633-0.883,4.904-1.488,5.047-1.345
	c0.622,0.623-6.935,3.242-10.792,3.74C170.869,181.847,163.49,181.856,163.49,181.139z M215.021,180.456
	c1.763-0.719,3.336-1.177,3.496-1.017c0.345,0.345-2.477,1.469-4.945,1.969C212.606,181.604,213.259,181.175,215.021,180.456z
	 M251.764,181.479c0.148-0.128,1.146-0.429,2.217-0.668c1.421-0.318,1.684-0.257,0.973,0.223
	C254.077,181.626,251.113,182.04,251.764,181.479z M238.79,180.817c0.149-0.135,2.897-0.407,6.108-0.604
	c4.205-0.257,5.021-0.202,2.92,0.198C244.859,180.974,238.294,181.269,238.79,180.817z M133.101,179.117
	c0-0.892,0.147-1.257,0.327-0.811c0.18,0.446,0.18,1.176,0,1.622C133.249,180.374,133.101,180.009,133.101,179.117z M136.293,178.66
	c0.028-0.997,0.198-1.448,0.378-1.002c0.183,0.454,1.438,0.811,2.847,0.811c1.974,0,2.439-0.211,2.147-0.973
	c-0.442-1.152,1.171-1.308,3.063-0.295c0.949,0.508,1.625,0.427,2.697-0.324c2.018-1.414,2.859-1.245,1.466,0.295
	c-0.646,0.713-1.713,1.297-2.371,1.297s-1.196,0.241-1.196,0.535s-0.949,0.518-2.109,0.496c-1.159-0.022-3.203,0.188-4.541,0.467
	C136.316,180.458,136.244,180.418,136.293,178.66z M222.042,180.022c0.216-0.216,0.774-0.239,1.243-0.051
	c0.518,0.207,0.363,0.361-0.392,0.392C222.209,180.391,221.826,180.238,222.042,180.022z M224.637,180.022
	c0.216-0.216,0.775-0.239,1.243-0.051c0.518,0.207,0.364,0.361-0.392,0.392C224.805,180.391,224.422,180.238,224.637,180.022z
	 M263.382,179.434c14.817-1.656,14.714-1.648,12.765-1.006c-2.631,0.866-12.475,1.996-16.656,1.912
	C256.842,180.286,257.846,180.052,263.382,179.434z M170.147,179.374c0.216-0.215,0.774-0.238,1.243-0.051
	c0.518,0.207,0.363,0.361-0.393,0.392C170.314,179.743,169.932,179.589,170.147,179.374z M196.723,179.32
	c0.619-0.162,1.787-0.168,2.594-0.013c0.808,0.155,0.3,0.288-1.127,0.295C196.762,179.609,196.102,179.482,196.723,179.32z
	 M201.595,179.336c0.446-0.18,1.176-0.18,1.622,0c0.445,0.18,0.081,0.327-0.811,0.327
	C201.514,179.663,201.148,179.516,201.595,179.336z M205.055,178.884c0.148-0.128,1.729-0.401,3.514-0.607
	c2.086-0.241,2.781-0.174,1.945,0.187C209.275,179,204.492,179.369,205.055,178.884z M234.666,178.691
	c0.438-0.178,1.314-0.188,1.945-0.024s0.271,0.31-0.799,0.323C234.742,179.004,234.227,178.869,234.666,178.691z M241.002,178.431
	c3.286-0.68,5.941-0.649,3.244,0.037c-1.07,0.272-2.822,0.496-3.893,0.498C238.717,178.968,238.82,178.882,241.002,178.431z
	 M163.258,177.981c-0.165-0.267,1.205-0.526,3.043-0.574c2.475-0.065,2.922,0.044,1.723,0.422
	C165.857,178.51,163.629,178.581,163.258,177.981z M174.686,178.076c0.215-0.215,0.775-0.238,1.243-0.051
	c0.518,0.207,0.364,0.361-0.392,0.392C174.854,178.445,174.47,178.292,174.686,178.076z M191.861,178.039
	c0.446-0.18,1.176-0.18,1.622,0s0.081,0.327-0.812,0.327C191.781,178.366,191.416,178.219,191.861,178.039z M216.674,177.819
	c0.535-0.346,1.265-0.628,1.621-0.628c0.357,0,0.211,0.283-0.324,0.628c-0.535,0.346-1.265,0.629-1.621,0.629
	C215.992,178.448,216.139,178.166,216.674,177.819z M158.293,177.229c0.535-0.303,1.703-0.744,2.594-0.98l1.623-0.43l-1.623,0.977
	c-0.891,0.538-2.059,0.979-2.594,0.98C157.428,177.78,157.428,177.719,158.293,177.229z M179.051,176.847
	c2.961-1.141,4.127-1.124,1.621,0.023c-1.07,0.49-2.384,0.882-2.919,0.871C177.218,177.73,177.802,177.327,179.051,176.847z
	 M200.931,177.394c0.439-0.178,1.315-0.188,1.946-0.024c0.631,0.164,0.271,0.31-0.799,0.323S200.492,177.572,200.931,177.394z
	 M224.133,177.369c3.671-0.33,11.114-2.027,13.788-3.144c2.253-0.941,6.599-1.332,5.787-0.52c-0.234,0.234-1.67,0.64-3.189,0.9
	c-1.521,0.261-5.072,1.091-7.895,1.844s-6.471,1.321-8.108,1.261l-2.978-0.109L224.133,177.369z M263.217,177.39
	c0.445-0.18,1.176-0.18,1.621,0c0.446,0.18,0.081,0.327-0.811,0.327C263.135,177.717,262.771,177.57,263.217,177.39z
	 M278.474,177.428c0.216-0.216,0.775-0.239,1.243-0.051c0.518,0.207,0.364,0.361-0.392,0.392
	C278.642,177.796,278.258,177.643,278.474,177.428z M238.404,176.545c1.229-0.549,6.683-0.938,6.108-0.435
	c-0.148,0.13-1.876,0.412-3.838,0.626C238.345,176.99,237.557,176.924,238.404,176.545z M266.798,176.779
	c0.216-0.215,0.774-0.238,1.243-0.051c0.518,0.208,0.363,0.361-0.393,0.392C266.965,177.148,266.582,176.995,266.798,176.779z
	 M163.32,176.093c0.446-0.18,1.176-0.18,1.622,0c0.446,0.18,0.081,0.327-0.812,0.327C163.239,176.42,162.875,176.272,163.32,176.093
	z M187.16,175.877c-0.764-0.325,1.377-0.403,5.188-0.188c3.567,0.201,6.608,0.471,6.757,0.6
	C199.684,176.788,188.383,176.399,187.16,175.877z M207.769,176.13c0.216-0.216,0.774-0.239,1.243-0.051
	c0.518,0.207,0.363,0.361-0.392,0.392C207.936,176.499,207.553,176.346,207.769,176.13z M271.813,176.271
	c0-0.138,0.859-0.377,1.911-0.531s1.765-0.042,1.583,0.25C274.986,176.511,271.813,176.766,271.813,176.271z M168.957,175.217
	c1.762-0.312,3.44-0.421,3.73-0.242c0.29,0.18,0.527,0.017,0.527-0.361c0-0.377,0.496-0.687,1.104-0.687
	c0.795,0,0.905,0.197,0.396,0.706c-0.389,0.389-2.563,0.806-4.833,0.929C165.77,175.784,165.767,175.782,168.957,175.217z
	 M222.678,175.426c0.623-0.163,1.646-0.163,2.27,0c0.625,0.163,0.113,0.297-1.135,0.297
	C222.563,175.723,222.053,175.589,222.678,175.426z M135.592,174.614c0-0.377,0.292-0.687,0.648-0.687
	c0.357,0,0.649,0.128,0.649,0.286c0,0.158-0.292,0.467-0.649,0.687C135.884,175.121,135.592,174.992,135.592,174.614z
	 M182.297,174.802c-0.535-0.176-1.557-0.579-2.271-0.895s-2.026-0.693-2.919-0.837c-1.397-0.227-1.353-0.268,0.324-0.301
	c1.07-0.021,3.406,0.5,5.189,1.159C185.388,174.948,185.1,175.725,182.297,174.802z M229.975,174.319
	c6.438-1.511,7.944-1.723,4.865-0.686c-1.605,0.541-4.232,1.122-5.838,1.291C226.467,175.192,226.594,175.112,229.975,174.319z
	 M191.865,174.098c1.873-0.131,4.938-0.131,6.811,0c1.873,0.131,0.341,0.238-3.405,0.238S189.992,174.229,191.865,174.098z
	 M213.596,174.112c0.98-0.149,2.586-0.149,3.568,0c0.98,0.148,0.178,0.27-1.785,0.27
	C213.418,174.382,212.615,174.26,213.596,174.112z M96.723,173.009c-0.028-0.684,0.125-1.067,0.341-0.852
	c0.216,0.215,0.239,0.775,0.051,1.243C96.908,173.918,96.754,173.764,96.723,173.009z M186.027,173.498
	c0.445-0.18,1.176-0.18,1.621,0c0.446,0.18,0.081,0.327-0.811,0.327C185.945,173.825,185.581,173.678,186.027,173.498z
	 M202.582,173.536c0.215-0.215,0.775-0.239,1.243-0.051c0.518,0.207,0.364,0.361-0.392,0.392
	C202.75,173.904,202.366,173.751,202.582,173.536z M244.57,173.279c0-0.356,0.291-0.648,0.648-0.648s0.648,0.292,0.648,0.648
	c0,0.357-0.291,0.649-0.648,0.649S244.57,173.636,244.57,173.279z M161.539,172.63c0-0.748,1.559-0.748,3.893,0
	c1.377,0.441,1.207,0.529-1.135,0.584C162.779,173.25,161.539,172.987,161.539,172.63z M179.054,171.657
	c-1.249-0.481-1.833-0.875-1.298-0.875s1.995,0.394,3.244,0.875c1.248,0.481,1.832,0.874,1.297,0.874
	S180.303,172.138,179.054,171.657z M188.621,172.201c0.446-0.18,1.176-0.18,1.622,0c0.446,0.18,0.081,0.327-0.811,0.327
	S188.176,172.38,188.621,172.201z M199.324,172.183c0.625-0.163,1.646-0.163,2.271,0c0.623,0.163,0.113,0.296-1.136,0.296
	S198.7,172.346,199.324,172.183z M213.758,171.981c-1.736-0.441-1.771-0.495-0.324-0.495c0.892,0,2.498,0.223,3.568,0.495
	c1.735,0.442,1.77,0.495,0.324,0.495C216.434,172.477,214.828,172.254,213.758,171.981z M157.822,171.59
	c0.217-0.216,0.775-0.239,1.244-0.051c0.518,0.207,0.363,0.361-0.393,0.392C157.99,171.958,157.607,171.805,157.822,171.59
	L157.822,171.59z M165.607,171.59c0.215-0.216,0.775-0.239,1.243-0.051c0.517,0.207,0.364,0.361-0.392,0.392
	C165.775,171.958,165.392,171.805,165.607,171.59z M95.109,167.059c-0.597-2.376-0.965-4.44-0.818-4.587s0.755,1.677,1.353,4.053
	c0.597,2.376,0.965,4.441,0.818,4.587C96.314,171.259,95.706,169.436,95.109,167.059z M173.865,170.064
	c2.676-0.699,5.303-1.264,5.838-1.255c1.678,0.028-4.721,1.823-7.784,2.184C169.805,171.241,170.343,170.985,173.865,170.064z
	 M186.189,170.599c-4.852-0.792-5.691-1.314-1.297-0.807c1.962,0.227,6.34,0.621,9.73,0.876l6.162,0.465l-5.514,0.024
	C192.238,171.17,188.152,170.919,186.189,170.599z M224.299,170.903c0.447-0.18,1.176-0.18,1.623,0
	c0.445,0.18,0.08,0.327-0.812,0.327S223.854,171.083,224.299,170.903z M234.367,170.941c0.216-0.215,0.775-0.239,1.244-0.051
	c0.518,0.207,0.363,0.361-0.393,0.392C234.535,171.31,234.152,171.157,234.367,170.941z M244.57,170.684
	c0-0.356,0.129-0.648,0.287-0.648c0.156,0,0.466,0.292,0.686,0.648c0.221,0.357,0.092,0.649-0.285,0.649
	C244.88,171.333,244.57,171.041,244.57,170.684z M159.918,170.036c-0.221-0.357,0.055-0.649,0.611-0.649
	c0.556,0,1.011,0.292,1.011,0.649c0,0.356-0.274,0.648-0.61,0.648S160.139,170.392,159.918,170.036z M164.959,170.292
	c0.215-0.216,0.775-0.239,1.243-0.051c0.518,0.207,0.364,0.361-0.392,0.392C165.127,170.661,164.744,170.508,164.959,170.292z
	 M201.934,170.292c0.215-0.216,0.775-0.239,1.243-0.051c0.518,0.207,0.364,0.361-0.392,0.392
	C202.102,170.661,201.719,170.508,201.934,170.292z M229.178,170.292c0.216-0.216,0.775-0.239,1.244-0.051
	c0.518,0.207,0.363,0.361-0.393,0.392C229.346,170.661,228.963,170.508,229.178,170.292z M214.245,169.588
	c0.624-0.163,1.646-0.163,2.271,0c0.624,0.163,0.113,0.296-1.136,0.296S213.621,169.751,214.245,169.588z M239.381,169.387
	c0-0.356,0.292-0.648,0.648-0.648c0.357,0,0.649,0.292,0.649,0.648c0,0.357-0.292,0.649-0.649,0.649
	C239.673,170.036,239.381,169.744,239.381,169.387z M186.514,168.738l-3.243-0.445l3.405-0.102c1.906-0.057,3.406,0.184,3.406,0.547
	c0,0.356-0.073,0.603-0.162,0.546C189.83,169.229,188.298,168.983,186.514,168.738z M192.5,168.918
	c1.151-0.143,3.194-0.146,4.541-0.005c1.346,0.14,0.403,0.257-2.094,0.26C192.449,169.177,191.348,169.062,192.5,168.918z
	 M210.016,168.961c0.439-0.178,1.315-0.188,1.946-0.024c0.632,0.165,0.272,0.31-0.798,0.323S209.576,169.139,210.016,168.961z
	 M162.541,168.134c-0.205-0.332-0.077-0.787,0.285-1.011c0.363-0.224,0.66,0.047,0.66,0.604
	C163.486,168.866,163.097,169.034,162.541,168.134z M166.904,168.346c0.217-0.215,0.775-0.239,1.244-0.051
	c0.518,0.207,0.363,0.361-0.393,0.392C167.072,168.715,166.689,168.562,166.904,168.346z M174.514,168.089
	c2.217-0.71,3.923-0.71,2.27,0c-0.713,0.307-1.881,0.549-2.594,0.539C173.146,168.612,173.209,168.507,174.514,168.089z
	 M201.285,168.346c0.215-0.215,0.775-0.239,1.243-0.051c0.517,0.207,0.364,0.361-0.392,0.392
	C201.452,168.715,201.069,168.562,201.285,168.346z M222.029,167.642c0.624-0.163,1.646-0.163,2.27,0
	c0.625,0.163,0.113,0.297-1.135,0.297S221.404,167.805,222.029,167.642z M190.594,166.96c2.243-0.127,5.746-0.126,7.783,0.002
	c2.038,0.128,0.202,0.232-4.079,0.231C190.017,167.192,188.35,167.087,190.594,166.96z M211.975,167.011
	c0.445-0.18,1.176-0.18,1.621,0c0.446,0.18,0.082,0.327-0.811,0.327S211.528,167.191,211.975,167.011z M172.544,164.791
	c1.949-0.692,3.847-1.149,4.216-1.017c0.701,0.252-5.854,2.404-7.067,2.321C169.311,166.07,170.594,165.482,172.544,164.791
	L172.544,164.791z M178.405,165.705c2.961-0.301,14.134-2.037,16.217-2.519c1.213-0.281,1.374-0.214,0.642,0.264
	c-1.598,1.041-11.521,2.702-15.471,2.59C177.436,165.973,176.942,165.854,178.405,165.705z M191.865,165.686
	c0.803-0.155,2.116-0.155,2.919,0c0.803,0.154,0.146,0.281-1.46,0.281S191.063,165.84,191.865,165.686z M221.705,165.686
	c0.803-0.155,2.115-0.155,2.918,0c0.803,0.154,0.146,0.281-1.459,0.281S220.902,165.84,221.705,165.686z M198.027,165.03
	c0.981-0.148,2.587-0.148,3.568,0c0.98,0.149,0.178,0.271-1.784,0.271S197.047,165.179,198.027,165.03z M214.244,165.047
	c0.625-0.163,1.646-0.163,2.271,0c0.623,0.163,0.113,0.297-1.136,0.297S213.62,165.21,214.244,165.047z M210.366,164.454
	c0.216-0.216,0.774-0.239,1.243-0.051c0.518,0.207,0.363,0.361-0.393,0.392C210.533,164.823,210.15,164.669,210.366,164.454z
	 M170.621,163.548c0.535-0.346,1.41-0.613,1.945-0.593c0.643,0.023,0.531,0.226-0.324,0.593
	C170.459,164.315,169.436,164.315,170.621,163.548z M199.338,163.805c0.217-0.215,0.775-0.238,1.244-0.051
	c0.518,0.207,0.363,0.361-0.393,0.392C199.506,164.174,199.123,164.021,199.338,163.805z M201.758,163.587
	c0-0.378,0.291-0.687,0.648-0.687s0.648,0.128,0.648,0.286c0,0.157-0.291,0.466-0.648,0.687
	C202.049,164.093,201.758,163.965,201.758,163.587z M179.216,163.102c0.624-0.163,1.646-0.163,2.271,0s0.113,0.296-1.135,0.296
	C179.103,163.398,178.592,163.265,179.216,163.102z M187.973,163.119c0.446-0.18,1.176-0.18,1.622,0
	c0.446,0.18,0.081,0.327-0.811,0.327S187.527,163.299,187.973,163.119z M203.879,163.157c0.216-0.216,0.775-0.239,1.244-0.051
	c0.518,0.207,0.363,0.361-0.393,0.392C204.047,163.525,203.664,163.372,203.879,163.157z M175.059,162.214
	c0.836-0.337,3.608-0.749,6.162-0.915c3.729-0.242,4.068-0.196,1.725,0.232C177.475,162.529,173.404,162.882,175.059,162.214z
	 M220.745,162.508c0.216-0.215,0.774-0.238,1.243-0.051c0.518,0.208,0.363,0.361-0.393,0.392
	C220.912,162.877,220.529,162.724,220.745,162.508z M186.365,160.562c0.215-0.216,0.775-0.239,1.243-0.051
	c0.518,0.207,0.364,0.361-0.392,0.392C186.533,160.931,186.149,160.777,186.365,160.562z M217.975,155.765
	c0-0.357,0.292-0.649,0.648-0.649c0.357,0,0.648,0.292,0.648,0.649c0,0.356-0.291,0.648-0.648,0.648
	C218.267,156.413,217.975,156.121,217.975,155.765z"/>
</svg>
