<?xml version="1.0" encoding="utf-8"?>
<!-- Generator: Adobe Illustrator 16.0.0, SVG Export Plug-In . SVG Version: 6.00 Build 0)  -->
<!DOCTYPE svg PUBLIC "-//W3C//DTD SVG 1.1//EN" "http://www.w3.org/Graphics/SVG/1.1/DTD/svg11.dtd">
<svg version="1.1" id="Layer_1" xmlns="http://www.w3.org/2000/svg" xmlns:xlink="http://www.w3.org/1999/xlink" x="0px" y="0px"
	 width="100px" height="100px" viewBox="0 0 100 100" enable-background="new 0 0 100 100" xml:space="preserve">
<g>
	<path fill="#010101" d="M90.824,27.675c1.535,5.833,2.117,10.434,1.75,13.8c-0.332,3.4,1.635,6.25,5.9,8.55
		c-4.267,2.266-6.232,5.1-5.9,8.5c0.367,3.399-0.215,8-1.75,13.799c-1.965,4.367-4.465,6.535-7.5,6.5
		c-3.033-0.033-4.715-0.215-5.049-0.549c0.367,0.334,0.549,2.016,0.549,5.049c0.035,3.035-2.133,5.535-6.5,7.5
		c-5.799,1.535-10.398,2.117-13.799,1.75c-3.4-0.332-6.234,1.635-8.5,5.9c-2.3-4.267-5.15-6.232-8.55-5.9
		c-3.367,0.367-7.967-0.215-13.8-1.75c-4.367-1.965-6.533-4.465-6.5-7.5c0.033-3.033,0.217-4.715,0.55-5.049
		c-0.333,0.367-2.017,0.549-5.05,0.549c-3.033,0.035-5.533-2.133-7.5-6.5c-1.533-5.799-2.117-10.398-1.75-13.799
		c0.333-3.4-1.633-6.234-5.9-8.5c4.267-2.3,6.233-5.15,5.9-8.55c-0.367-3.367,0.217-7.967,1.75-13.8
		c1.967-4.367,4.467-6.533,7.5-6.5c3.033,0.034,4.717,0.217,5.05,0.55c-0.367-0.333-0.55-2.017-0.55-5.05
		c-0.033-3.033,2.133-5.533,6.5-7.5c5.833-1.533,10.434-2.117,13.8-1.75c3.4,0.333,6.25-1.633,8.55-5.9
		c2.266,4.267,5.1,6.233,8.5,5.9c3.399-0.367,8,0.217,13.799,1.75c4.367,1.967,6.535,4.467,6.5,7.5
		c-0.033,3.034-0.215,4.717-0.549,5.05c0.334-0.367,2.016-0.55,5.049-0.55C86.359,21.142,88.859,23.308,90.824,27.675"/>
</g>
</svg>
