<?xml version="1.0" encoding="utf-8"?>
<!-- Generator: Adobe Illustrator 15.1.0, SVG Export Plug-In . SVG Version: 6.00 Build 0)  -->
<!DOCTYPE svg PUBLIC "-//W3C//DTD SVG 1.1//EN" "http://www.w3.org/Graphics/SVG/1.1/DTD/svg11.dtd">
<svg version="1.1" id="Layer_1" xmlns="http://www.w3.org/2000/svg" xmlns:xlink="http://www.w3.org/1999/xlink" x="0px" y="0px"
	 width="100px" height="100px" viewBox="0 0 100 100" enable-background="new 0 0 100 100" xml:space="preserve">
<g>
	<path fill-rule="evenodd" clip-rule="evenodd" d="M82.413,71.264c-0.426-0.368-0.856-0.731-1.279-1.097
		c-1.395-1.413-2.447-2.75-4.39-3.656c-1.938-0.903-4.128-1.177-5.909-2.192c-2.376-1.355-4.271-3.233-6.52-4.633
		c-1.07-0.663-2.183-1.099-3.29-1.765c-0.789-0.476-1.705-1.17-2.256-1.891c-0.663-0.872-1.293-2.253-2.437-2.616
		c-1.995-0.64-4.256,0.348-5.969,0.729c-1.666,0.083-3.329,0.162-4.993,0.245h-0.371c0.219-1.974,1.162-3.674,1.645-5.423
		c0.246-1.22,0.488-2.439,0.734-3.658c0.227-0.608,0.613-1.324,0.789-2.068c0.083-0.632,0.165-1.261,0.245-1.891
		c0.306-0.527,0.611-1.058,0.914-1.582c0.854-1.713,1.712-3.36,2.559-4.935c1.298-2.416,2.083-5.058,3.232-7.683
		c0.462-0.911,0.932-1.825,1.399-2.736c0.1-0.835,0.201-1.668,0.303-2.499c0.744-3.169,1.418-7.371,1.097-11.151
		c0.039-0.977,0.081-1.95,0.12-2.925c-0.3-1.538-1.504-2.242-2.19-3.35c-0.771-1.238-0.27-2.204-0.186-3.29
		c-0.06-0.039-0.117-0.081-0.18-0.123h-0.184c-0.629,0.562-1.193,1.215-2.07,1.522c0.157-0.22,0.365-0.46,0.243-0.791
		c-0.118-0.183-0.011-0.1-0.243-0.183c-3.864,2.365,1.604,5.376,2.193,7.371c0.282,0.963-0.582,4.78-0.854,5.854
		c-0.608,2.089-1.22,4.181-1.825,6.272c-0.204,1.159-0.407,2.315-0.614,3.475c-0.527,1.118-1.493,2.196-2.07,3.41
		c-0.485,1.298-0.974,2.601-1.462,3.901c-0.608,0.465-1.217,0.932-1.825,1.399c-1.065,0.958-2.308,2.483-2.987,3.778
		c-1.702-0.271-2.885-1.46-3.35-3.05v-0.18c0.253,0.094,0.149-0.014,0.24,0.242c0.211-0.086,0.248-0.063,0.368-0.242
		c0.384,0.136,0.616,0.376,0.668,0.854c0.118-0.154,0.133-0.212,0.06-0.429c0.165,0.084,0.329,0.162,0.488,0.243
		c0.183-0.379,0.381-0.345,0.428-0.852c0.227,0.1,0.144,0.023,0.243,0.24c0.188-0.407,0.198-1.691,0.06-2.25h0.245
		c-0.026-0.577,0.36-1.319,0.183-2.011c0.008-0.395-0.005-0.303,0.24-0.306c0.102-0.418,0.094-0.237,0.063-0.729
		c0.102,0.019,0.204,0.039,0.306,0.061c0.154-1.024,0.71-2.343,0.243-3.656c-1.381-3.9-8.617-4.371-11.758-1.827
		c0.086,0.219,0.123,0.365,0.063,0.608c0.12,0.039,0.243,0.081,0.366,0.122c-0.99,2.437-1.71,4.854-1.768,7.491h0.12
		c0.083-0.266,0.094-0.441,0.368-0.548c0.107,0.217-0.037,0.073,0.183,0.186c-0.06,0.264-0.123,0.527-0.183,0.791
		c0.308-0.078,0.264-0.104,0.425-0.306c0.784,0.989,1.232,2.71,1.951,3.898c-0.428,0.245-0.854,0.488-1.279,0.733
		c-1.261-1.058-2.522-2.112-3.778-3.17c-0.53-0.306-1.058-0.608-1.585-0.914c-1.279-1.726-2.559-3.451-3.838-5.178
		c-0.812-0.733-1.624-1.462-2.436-2.193c-0.063-1.036-0.123-2.073-0.186-3.106c-0.428-2.488-0.778-5.449-0.366-8.162
		c0.021-0.674,0.042-1.345,0.06-2.014c0.773-2.546,5.635-1.021,5.549-5.852c-0.186-0.019-0.368-0.039-0.551-0.06
		c-0.282,0.475-0.449,1.465-0.608,2.013c-0.303,0.123-0.608,0.243-0.914,0.363h-0.06l-0.063-0.12
		c0.295-0.371,0.814-0.925,0.977-1.34V6.252c-0.165-0.276-0.392-0.323-0.854-0.303c-0.125-0.658-0.444-0.977-0.671-1.462
		c-0.157-0.078-0.211-0.107-0.488-0.123c-0.06,0.102-0.123,0.204-0.183,0.306C23,5.286,23.3,5.754,23.311,6.558
		C23.274,6.579,23.232,6.6,23.19,6.62c-0.206-0.691-0.41-1.381-0.608-2.073c-0.144-0.018-0.284-0.039-0.428-0.06
		c-0.201,0.431-0.034,1.251,0.123,1.765v0.794c-0.251-0.154-0.149-0.449-0.243-0.729c-0.021-0.065-0.042-0.123-0.063-0.183
		c-0.102,0.019-0.204,0.039-0.306,0.06c-0.06,0.019-0.12,0.04-0.183,0.058c-0.039,0.306-0.081,0.614-0.12,0.917
		c-0.661,1.07-2.823,1.232-3.17,2.559c-0.861,3.282-1.459,7.014-1.459,10.904v4.326c0.405,0.53,0.812,1.055,1.217,1.585
		c1.462,2.282,2.616,4.724,4.264,6.823c0.771,0.893,1.546,1.788,2.316,2.682l1.034,2.07c0.541,0.807,1.259,1.387,1.648,2.376
		c0.386,1.384,0.77,2.765,1.156,4.144c0.71,1.755,1.802,3.512,2.193,5.604c0.395,2.084-0.464,3.223-1.097,4.692
		c-0.12,0.446-0.243,0.893-0.365,1.34c-0.452,0.645-1.193,1.063-1.583,1.83c-1.227,2.413-1.467,7.193,0,9.504
		c0.559,0.886,1.533,1.095,2.191,1.828c0.123,0.326,0.245,0.647,0.365,0.974c0.274,0.46,0.864,0.953,1.22,1.402
		c1.483,1.872,3.671,2.817,5.606,4.264c1.616,1.209,2.663,3.126,4.324,4.327c1.3,0.938,3.261,1.454,4.269,2.682l-0.063,0.122
		c-2.204,0.193-4.467,0.397-5.909,1.4c-1.003,0.697-1.541,1.73-2.439,2.498c-1.637,1.397-3.771,2.656-5.849,3.474
		c-0.551,0.214-1.548,0.574-2.011,0.548c-1.355-0.073-2.368-1.689-3.778-0.611c-1.47,1.128-0.729,3.385-1.705,4.329
		c-1.089,1.048-2.225,0.689-3.35,1.4c-0.404,0.253-0.504,0.841-0.854,1.097c-0.726,0.524-1.332,0.117-1.525,1.217
		c0.144,0.125,0.287,0.245,0.428,0.368c0.535-0.05,0.694-0.324,1.034-0.429h1.95c1.705-0.324,3.413-0.65,5.118-0.974
		c0.407-0.264,0.812-0.527,1.22-0.791c2.01-0.875,4.023-1.747,6.031-2.622c3.115-0.955,6.802-1.154,9.993-2.133
		c1.136-0.468,2.274-0.933,3.413-1.399c2.337-0.995,6.912-0.682,7.494-3.351c0.557-2.554-1.057-4.674-1.827-6.094
		c-1.494-2.747-2.593-5.622-4.51-7.92c-1.953-2.345-5.564-4.228-5.363-7.922c1.82-0.933,3.598-2,5.606-2.802
		c1.747-0.549,3.493-1.097,5.24-1.646c0.724,0.136,1.081,1.123,1.525,1.585c1.188,1.243,2.579,2.633,4.078,3.533
		c0.906,0.543,2.003,1.061,3.173,1.279c0.707,0.042,1.417,0.081,2.13,0.123c1.483,0.404,2.967,0.812,4.447,1.217
		c1.104,0.326,2.783,0.376,3.35,1.222c0.465,0.687,0.465,2.251,0.734,2.982c2.067,1.428,3.114-0.48,4.569-0.546
		c0.269,0.261,1.785,1.376,2.067,1.522l0.734-0.063c0.433,0.128,0.3,0.527,0.607,0.734c0.441,0.292,1.329,0.451,1.831,0.425
		c0.06-0.06,0.12-0.122,0.183-0.183C83.279,74.404,82.58,71.52,82.413,71.264z M52.985,3.756h-0.122V3.391
		c0.039,0.06,0.081,0.123,0.122,0.183V3.756z M53.594,2.902c0.081,0.021,0.162,0.039,0.243,0.06
		C53.657,3.004,53.729,3.03,53.594,2.902z M32.452,28.979v-0.243h0.06c0.021,0.063,0.042,0.123,0.063,0.183
		C32.533,28.94,32.491,28.961,32.452,28.979z M26.724,61.637h0.123v0.73h-0.183C26.684,62.125,26.705,61.879,26.724,61.637z
		 M26.846,63.95v0.308h-0.06c-0.042-0.162-0.081-0.326-0.123-0.485C26.786,63.854,26.763,63.838,26.846,63.95z M26.969,65.292
		h-0.063c-0.039-0.102-0.081-0.204-0.12-0.303h0.183V65.292z M26.906,61.576c-0.285-0.18-0.023-0.883,0.063-1.279
		C27.16,60.519,26.943,61.125,26.906,61.576z M27.152,66.451c-0.021-0.06-0.042-0.123-0.063-0.183
		c0.063,0.039,0.123,0.081,0.183,0.123C27.23,66.409,27.193,66.431,27.152,66.451z M27.457,67.119c0.12,0.11,0.042,0,0.12,0.186
		C27.536,67.242,27.496,67.183,27.457,67.119z M27.152,60.234h-0.183c0.292-0.739,0.575-1.355,0.971-1.948
		C27.935,58.78,27.282,59.498,27.152,60.234z"/>
</g>
</svg>
