<?xml version="1.0" encoding="utf-8"?>
<!-- Generator: Adobe Illustrator 16.0.0, SVG Export Plug-In . SVG Version: 6.00 Build 0)  -->
<!DOCTYPE svg PUBLIC "-//W3C//DTD SVG 1.1//EN" "http://www.w3.org/Graphics/SVG/1.1/DTD/svg11.dtd">
<svg version="1.1" id="Layer_1" xmlns="http://www.w3.org/2000/svg" xmlns:xlink="http://www.w3.org/1999/xlink" x="0px" y="0px"
	 width="100px" height="100px" viewBox="0 0 100 100" enable-background="new 0 0 100 100" xml:space="preserve">
<g>
	<path fill="#010101" d="M46.754,7.58c-0.118-0.144-0.111-0.34-0.118-0.497c-0.008-0.158-0.086-0.134-0.008-0.269
		c0.08-0.133,0.015-0.023,0.118-0.203c0.146-0.251,0.003,0.076,0.08-0.055c0.173-0.301,0,0.131,0.118-0.089
		c0.117-0.221,0.162-0.271,0.118-0.116c-0.041,0.141-0.027,0.063,0.064-0.191c0.112-0.311,0.253-0.225,0.259-0.179
		c0.017,0.102-0.028,0.157,0,0.086c0.032-0.07,0.01-0.159,0.119-0.244c0.486-0.382,0.197-0.149,0.11-0.007
		c-0.087,0.139,0.135,0.104,0.292-0.172c0.131-0.228-0.181-0.193,0.259-0.507c0.347-0.246-0.076,0.176,0.188-0.078
		c0.395-0.378,0.049,0.032,0.192-0.116c0.14-0.15,0.164-0.128,0.258-0.182c0.174-0.104,0.513-0.354,0.261-0.222
		c-0.251,0.135,0.211-0.134,0.355-0.266c0.213-0.2,0.347-0.163,0.597-0.312c0.18-0.106,0.403-0.021,0.537-0.137
		c0.273-0.244,0.581-0.324,0.824-0.4c0.283-0.087,0.264,0.059,0.711-0.176c0.348-0.182,0.372-0.158,0.605-0.198
		c0.24-0.039,0.25,0.135,0.732-0.032c0.485-0.161,1.262,0.285,1.567,0.498c0.308,0.215,0.306,0.267,0.614,0.3
		c1.529,0.173,1.642,0.986,1.68,1.049c0.143,0.226,0.4,0.552,0.488,0.945c0.086,0.39,0.078,0.329,0.313,0.645
		c0.235,0.314,0.394,0.393,0.313,0.866c-0.078,0.472,0.209,0.693,0.136,1.199c-0.071,0.504-0.119,1.378-0.214,1.622
		c-0.094,0.246-0.141,0.708-0.283,0.96c-0.141,0.251-0.3,0.263-0.4,0.743c-0.138,0.635-0.32,1.246-0.66,1.407
		c-0.402,0.194-0.416,0.097-0.416,0.277c0.021,0.26,0.266,1.773,0.359,1.963c0.096,0.185,0.04,0.171,0.197,0.153
		c0.158-0.015,0.678-0.046,0.952,0.128c0.276,0.172,1.009,1.511,1.165,1.661c0.16,0.15,0.171,0.268,0.406,0.365
		c0.233,0.092,3.071,1.156,3.629,1.426c1.16,0.569,1.299,1.035,2.15,2.506c0.788,1.364,0.93,2.5,1.039,3.297
		c0.063,0.479,0.354,3.217,1.712,7.244c0.255,0.753,0.734,2.292,0.78,2.469c0.059,0.229,0.195,0.329-0.131,0.603
		c-0.967,0.821-1.333,1.177-1.865,1.771c-0.307,0.344-0.26,0.239-0.234,0.377c0.049,0.3,0.313,2.642,0.199,3.971
		c-0.173,1.998-1.124,5.996-1.254,6.58c-0.141,0.639-0.225,0.912-0.199,1.22c0.022,0.308-0.084,0.895-0.084,0.895
		c-0.059,0.202-0.048,0.674,0.024,1.007c0.089,0.421,0.521,2.042,0.295,3.272c-0.076,0.408-0.144,0.802-0.202,1.024
		c-0.059,0.228-0.234,0.392-0.436,0.485c-0.2,0.097-0.176,0.097-0.272,0.328c-0.155,0.395-1.021,0.988-1.442,1.175
		c-0.401,0.176-0.436,0.081-0.401,0.378c0.039,0.295,0.106,4.074,0.095,4.395c-0.01,0.319-0.021,0.26,0.118,0.482
		c0.144,0.227,0.853,2.816,0.876,3.134c0.021,0.32-0.116,0.617-0.167,0.825c-0.118,0.484-0.034,1.077,0.097,1.547
		c0.069,0.251,0.084,0.311,0.381,0.664c0.479,0.582,1.414,2.854,1.887,5.092c0.402,1.907,0.476,2.172,1.879,7.076
		c0.605,2.117,0.842,2.366,1.123,2.979c0.307,0.676,0.509,2.188,0.509,2.483s-0.331,2.823-0.378,3.071
		c-0.047,0.249-0.164,0.343-0.061,0.507c0.106,0.168,0.25,0.735,0.235,0.853c-0.022,0.224-0.08,0.164,0.038,0.308
		c0.117,0.141,0.376,0.79,0.52,1.005c0.143,0.211,0.262,0.814,0.367,0.982c0.773,1.215,0.952,1.381,0.707,2.158
		c-0.07,0.225-0.008,0.644-0.459,1.017c-0.91,0.753-3.764,0.821-4.835,0.145c-0.299-0.19-0.59-0.653-0.565-0.911
		c0.021-0.262-0.014-0.318-0.084-0.438c-0.125-0.209-0.146-0.439,0.129-0.934c0.168-0.295-0.033-0.449-0.152-0.695
		c-0.117-0.249-0.212-0.518-0.177-0.76c0.036-0.231,0.024-0.211,0-0.424s-0.007-0.347,0.06-0.471
		c0.092-0.18,0.117-0.191,0.037-0.404c-0.085-0.21-0.061-0.271-0.236-0.21c-0.182,0.058-0.189-0.048-0.309-0.212
		c-0.117-0.167-0.449-0.582-0.648-0.805c-0.334-0.374-0.453-0.296-0.758-1.161c-0.142-0.399-1.396-3.626-1.596-4.017
		c-0.202-0.387-0.924-2.303-1.004-2.445c-0.083-0.145-0.729-1.962-0.934-2.434c-0.824-1.902-1.987-5.801-2.117-6.453
		c-0.104-0.538-1.02-2.773-1.264-5.233c-0.041-0.437-0.056-0.705-0.225-0.968c-0.453-0.711-0.34-0.614-0.225,0.142
		c0.188,1.237,0.295,4.093,0.295,4.621c0,0.554-0.215,8.979-0.215,9.179c0,0.201-0.008,0.401,0.108,0.65
		c0.115,0.249,0.083,3.049,0.095,3.236c0.043,0.66,0.021,0.492,0.227,0.685c0.188,0.183,0.695,1.136,1.001,1.351
		c0.31,0.211,0.403,0.638,0.298,0.885c-0.107,0.249-0.116,1.406-0.107,1.585c0.012,0.176-0.068,0.284-0.047,0.471
		c0.024,0.188,0.071,0.713,0.024,0.864c-0.047,0.152-0.013,0.095,0.062,0.212c0.068,0.119,0.045,0.308-0.048,0.379
		c-0.098,0.071-0.157,0.153-0.061,0.283c0.198,0.271-0.068,0.733-0.522,1.088c-0.27,0.212-2.113,0.942-2.398,1.134
		c-0.185,0.121-0.898,0.459-1.297,0.828c-0.502,0.459-1.849,0.768-2.646,0.768c-0.529,0-2.045-0.063-2.46-0.403
		c-0.257-0.212-0.518-0.4-0.553-0.767c-0.037-0.367-0.037-0.438-0.071-0.58c-0.038-0.141,0.163-0.554,0.39-0.658
		c0.223-0.108,0.377-0.295,0.459-0.486c0.084-0.188,1.016-0.98,1.231-1.184c0.21-0.199,0.732-0.566,0.861-0.722
		c0.129-0.151,0.213-0.198,0.236-0.305c0.025-0.104,0.085-0.237,0.236-0.25c0.155-0.013,0.235-0.024,0.345-0.163
		c0.104-0.143,0.189-0.4,0.309-0.529c0.115-0.131,0.291-0.356,0.15-0.416c-0.142-0.063-0.046-0.179,0.021-0.346
		c0.072-0.163,0.709-1.07,0.781-1.229c0.142-0.293,0.164-0.236-0.199-0.293c-0.686-0.112-1.666-0.281-2.445-2.011
		c-0.167-0.364-0.946-2.765-0.912-3.485c0.037-0.719-0.566-4.892-0.649-5.295c-0.084-0.399-0.556-2.869-0.615-3.34
		c-0.056-0.477-0.152-0.796-0.305-1.186c-0.196-0.491-1.194-4.112-1.704-7.396c-0.08-0.531-0.27-1.467-0.342-2.021
		c-0.071-0.556-0.059-0.613-0.164,0.022c-0.053,0.31-0.759,4.183-0.746,4.443c0.011,0.26-0.106,3.037-0.177,3.295
		c-0.072,0.26-0.127,0.746-0.072,0.945c0.063,0.203-0.21,1.585-0.235,1.834c-0.023,0.249-0.424,2.421-0.506,2.646
		c-0.085,0.224-0.179,1.063-0.167,1.369c0.011,0.309-0.097,0.625-0.118,0.768c-0.036,0.244,0.112,0.861-0.071,1.502
		c-0.054,0.191-0.142,1.121-0.131,1.312c0.013,0.191,0.059,1.55,0.071,1.748c0.014,0.202,0.055,0.17-0.103,0.423
		c-0.144,0.229-0.251,0.37-0.37,0.43c-0.213,0.235-0.176,0.105-0.224,0.522c-0.036,0.281-0.863,4.086-0.839,4.593
		c0.023,0.51-0.009,0.795,0.035,1.076c0.02,0.122,0.346,0.721,0.201,1.809c-0.038,0.283,0.119,1.099,0.247,1.266
		c0.129,0.164,0.095,0.246,0.379,0.292c0.45,0.079,0.652,0.386,0.637,0.545c-0.022,0.261-0.106,0.404,0,0.483
		c0.108,0.084,0.272,0.334,0.451,0.521c0.288,0.307,0.259,0.928,0.083,1.075c-1.106,0.931-4.078,0.751-4.384,0.496
		c-0.213-0.177-0.343-0.826-0.213-1.042c0.13-0.209,0.119-0.225,0.093-0.366c-0.021-0.139-0.059-0.304-0.046-0.446
		c0.012-0.141-0.024-0.117-0.08-0.271c-0.143-0.36-0.056-0.349,0.009-0.665c0.046-0.234-0.085-1.1-0.009-1.452
		c0.067-0.354,0.055-0.472,0.009-0.742c-0.047-0.271-0.073-0.569,0.096-1.017c0.164-0.448,0.481-1.75,0.46-2.329
		c-0.025-0.578-0.234-3.767-0.25-4.147c-0.011-0.271,0.025-0.166-0.295-0.283c-0.28-0.105-0.873-0.317-1.029-0.293
		c-0.152,0.021-0.283,0.094-0.34,0.188c-0.061,0.096-0.131,0.13-0.086,0.26c0.046,0.131,0.046,0.119-0.129,0.176
		c-0.175,0.062-0.605,0.229-0.909,0.356c-0.223,0.093-0.138,0.101-0.2,0.354c-0.089,0.375-0.679,3.896-0.649,4.301
		c0.022,0.329,0.105,1.511,0.213,1.771c0.105,0.262,0.153,0.545,0.068,0.85c-0.082,0.311-0.129,0.674-0.118,0.898
		c0.012,0.226-0.094,0.65-0.164,0.778c-0.072,0.132-0.085,0.132-0.072,0.216c0.012,0.08,0.236,0.53,0.108,0.625
		c-0.131,0.096-0.131,0.131-0.121,0.271c0.039,0.449,0.037,0.359-0.068,0.652c-0.084,0.221-0.106,0.187,0,0.353
		c0.393,0.612,0.121,1.319-0.439,1.417c-0.75,0.13-3.475,0.229-4.134-0.557c-0.191-0.225-0.261-0.84,0.059-1.086
		c0.317-0.246,0.553-0.472,0.626-0.589c0.07-0.122,0.07-0.239,0.023-0.413c-0.057-0.207,0.286-0.529,0.483-0.545
		c0.238-0.025,0.201-0.025,0.367-0.273c0.167-0.247,0.484-0.746,0.581-0.934c0.093-0.188,0.164-0.388,0.093-0.627
		c-0.112-0.367-0.192-0.929,0.152-1.549c0.47-0.837-0.082-4.35-0.082-6.012c0-0.318,0.032-0.266-0.164-0.346
		c-0.535-0.209-0.531-0.094-0.581-0.838c-0.026-0.389,0.106-2.162,0.295-2.774s0.082-2.601,0.107-2.907
		c0.041-0.518-0.601-2.71-0.083-5.918c0.318-1.979,0.583-1.736-0.013-4.064c-0.13-0.511-0.513-1.811-0.545-2.188
		c-0.035-0.426,0.047-0.331-0.246-0.593c-0.194-0.171-0.688-0.529-0.936-0.813c-0.415-0.474-0.702-0.601-0.496-1.799
		c0.058-0.341,0.179-1.134,0.011-1.605c-0.163-0.47-0.105-0.793-0.163-1.24c-0.232-1.771-0.88-6.027-0.685-8.448
		c0.035-0.459,0.42-3.505,0.447-4.597c0.008-0.26,0.096-0.162-0.188-0.033c-0.2,0.092-0.504-0.024-0.449-0.449
		c0.036-0.274-0.037-0.249,0.072-0.484c0.106-0.237,0.092-0.201-0.059-0.25c-0.53-0.161-0.583-0.583-0.308-0.97
		c0.119-0.164,0.106-0.151,0-0.248c-0.151-0.132-0.327-0.47-0.227-0.828c0.083-0.283-0.009-0.495-0.104-0.663
		c-0.095-0.163-0.225-0.459,0.01-0.67c0.238-0.214,0.047-0.13,0.072-0.284c0.022-0.155-0.13-0.046-0.118-0.215
		c0.012-0.166-0.083-0.244,0.012-0.459c0.094-0.21,0.098-0.217,0.227-0.464c0.043-0.081,0.097-0.046,0.009-0.15
		c-0.026-0.034-0.5-0.591,0.119-0.669c0.181-0.021,0.172-0.117,0.213-0.212c0.039-0.096,0.213-0.247,0.361-0.247
		c0.149,0,0.157,0.027,0.182-0.164c0.024-0.19,0.182-0.92,0.322-1.164c0.142-0.248,0.111-0.497,0.104-0.756
		c-0.007-0.26,0.046-3.995,0.064-4.294c0.016-0.298,0.142-4.505,0.219-4.938c0.079-0.435,0.378-1.537,0.851-1.953
		c0.473-0.417,0.292-0.396,0.441-0.538c0.15-0.144,0.992-0.756,1.504-0.834c0.514-0.079,0.772-0.146,0.883-0.251
		c0.112-0.104,0.682-0.563,1.359-0.612c0.677-0.046,1.115,0.009,1.461,0.213c0.347,0.205,0.387,0.229,0.631,0.315
		c0.387,0.137,0.643,0.283,1.103,0.847c0.211,0.26,0.44,0.406,0.55,0.484c0.215,0.153,0.465,0.329,0.518,0.792
		c0.052,0.47,0.053,0.515,0.31,0.661c0.11,0.064,0.174,0.188,0.308,0.214c0.182,0.032,0.717,0.354,0.673,1.285
		c-0.007,0.164-0.003,0.584,0.028,0.741c0.033,0.157,0.052,0.289,0.071,0.349c0.073,0.235,0.042,0.248,0.15,0.103
		c0.1-0.133,1.634-3.099,1.824-3.4c0.755-1.196,1.194-2.804,1.452-3.211c0.538-0.851,0.799-2.099,2.466-2.806
		c0.78-0.333,2.248-0.931,2.591-1.048c0.347-0.118,0.355-0.315,0.459-0.574c0.099-0.262,0.221-0.611,0.321-0.83
		c0.151-0.334,0.149-0.299,0.003-0.368c-0.206-0.102-0.177-0.173-0.558-0.158c-0.328,0.008-0.771-0.218-0.734-0.729
		c0.018-0.244,0.066-0.618-0.155-0.847c-0.157-0.167-0.248-0.276-0.231-0.379c0.014-0.104,0-0.137-0.04-0.208
		c-0.039-0.071-0.263-0.514-0.31-0.632c-0.049-0.12,0.023-0.1-0.187-0.139c-0.257-0.05-0.79-0.163-0.491-0.761
		c0.085-0.174,0.246-0.719,0.262-1.041c0.012-0.178-0.022-0.418-0.055-0.374c-0.066,0.086-0.047,0.034-0.037-0.035
		c0.017-0.08,0.051-0.146-0.039,0.008c-0.062,0.11-0.041,0.044-0.022-0.136c0.008-0.069-0.116-0.311-0.165-0.343
		c-0.047-0.03-0.109-0.112-0.248-0.242c-0.289-0.269-0.083-0.453-0.071-0.655c0.011-0.199-0.328-1.542-0.264-1.807
		c0.046-0.196,0.119-0.241,0.059-0.249C47.067,8.176,46.873,7.722,46.754,7.58z M37.695,82.51c-0.224-1.229-0.165-3.701-0.064-4.453
		c0.042-0.291,0.292-2.605,0.425-3.039c0.136-0.435,0.079-0.48,0.189-0.27c0.11,0.213,0.086,0.412,0.086,0.662
		c0,0.566-0.009,1.304,0.22,1.766c0.126,0.25,0.135,0.44,0.041,0.572c-0.093,0.136-0.236,0.995-0.179,1.236
		c0.055,0.248,0.03,0.363-0.04,0.498c-0.072,0.135-0.215,0.897-0.2,1.394c0.019,0.499-0.099,0.779-0.14,0.883
		c-0.039,0.103-0.01,0.151-0.167,0.664C37.713,82.939,37.758,82.854,37.695,82.51z"/>
</g>
</svg>
