<?xml version="1.0" encoding="utf-8"?>
<!-- Generator: Adobe Illustrator 16.0.0, SVG Export Plug-In . SVG Version: 6.00 Build 0)  -->
<!DOCTYPE svg PUBLIC "-//W3C//DTD SVG 1.1//EN" "http://www.w3.org/Graphics/SVG/1.1/DTD/svg11.dtd">
<svg version="1.1"
	 id="svg2" xmlns:cc="http://web.resource.org/cc/" xmlns:dc="http://purl.org/dc/elements/1.1/" xmlns:rdf="http://www.w3.org/1999/02/22-rdf-syntax-ns#" xmlns:svg="http://www.w3.org/2000/svg"
	 xmlns="http://www.w3.org/2000/svg" xmlns:xlink="http://www.w3.org/1999/xlink" x="0px" y="0px" width="288.131px" height="288px"
	 viewBox="0 0 288.131 288" enable-background="new 0 0 288.131 288" xml:space="preserve">
<path id="path2371" opacity="0.9923" fill="#B3B3B3" enable-background="new    " d="M244.002,128.211
	c9.444,8.425,17.683,17.546,24.498,27.262c2.856-3.625,3.206-11.229,2.065-13.121C265.787,134.406,255.74,129.35,244.002,128.211z"
	/>
<path fill="#979B97" d="M137.419,87.491c-39.438,0.118-64.095,24.462-83.535,40.038c4.249-1.648,8.876-2.552,13.716-2.552
	c20.701,0,37.506,16.589,37.506,37.027c0,4.471-0.805,8.75-2.271,12.719l97.398-0.248c-1.631-4.146-2.522-8.654-2.522-13.369
	c0-20.44,16.806-37.024,37.505-37.024c7.328,0,14.168,2.082,19.942,5.67c-2.288-1.986-4.502-3.688-6.386-4.771
	c-7.787-4.497-24.797-5.459-28.846-6.299c-4.01-0.831-5.22-1.039-6.344-2.104C209.403,112.635,177.286,83.475,137.419,87.491
	L137.419,87.491z M67.813,124.717c-20.701,0-36.928,16.593-36.928,37.036c0.221,5.454,5.862,5.287,10.333,6.953
	c1.745-19.044,12.413-27.626,28.595-27.482c16.569,0.146,28.656,17.279,24.317,33.51l8.638-0.021
	c1.625-4.141,2.545-8.258,2.545-12.963C105.315,141.31,88.513,124.717,67.813,124.717L67.813,124.717z M234.72,123.345
	c20.701,0,25.102,10.505,36.063,24.64c2.877,3.699-4.551,18.714-6.172,22.938l-1.787-0.314c0.979-18.695-8.771-29.405-25.41-30.038
	c-12.436,0.044-27.764,9.463-24.416,33.958l-13.266,0.229c-1.621-4.227-2.512-8.816-2.512-13.617
	C197.219,140.275,214.015,123.345,234.72,123.345z"/>
<path id="path4328" opacity="0.9923" fill="#B3B3B3" enable-background="new    " d="M128.313,92.454l1.192,28.209l79.865,0.93
	C187.634,98.859,158.878,88.038,128.313,92.454L128.313,92.454z M120.881,93.953c-29.289,7.184-43.646,26.104-43.646,26.104
	l42.504,0.492L120.881,93.953z"/>
<path d="M262.908,163.859c0,14.021-11.364,25.391-25.384,25.391s-25.383-11.368-25.383-25.391c0-14.023,11.363-25.393,25.383-25.393
	C251.544,138.469,262.908,149.837,262.908,163.859z M94.356,163.859c0,14.021-11.365,25.391-25.382,25.391
	s-25.381-11.368-25.381-25.391c0-14.023,11.364-25.393,25.381-25.393C82.991,138.468,94.356,149.837,94.356,163.859z
	 M211.354,118.059c0.049,2.788-2.547,5.081-5.799,5.122c-3.25,0.041-5.924-2.185-5.973-4.972c0-0.05,0-0.1,0-0.15
	c-0.049-2.786,2.548-5.08,5.799-5.122c3.25-0.04,5.924,2.186,5.973,4.973C211.354,117.958,211.354,118.009,211.354,118.059z
	 M124.822,92.223c-0.488,0-1.237,46.803,0,75.552"/>
</svg>
