<?xml version="1.0" encoding="utf-8"?>
<!-- Generator: Adobe Illustrator 16.0.0, SVG Export Plug-In . SVG Version: 6.00 Build 0)  -->
<!DOCTYPE svg PUBLIC "-//W3C//DTD SVG 1.1//EN" "http://www.w3.org/Graphics/SVG/1.1/DTD/svg11.dtd">
<svg version="1.1" id="Layer_1" xmlns="http://www.w3.org/2000/svg" xmlns:xlink="http://www.w3.org/1999/xlink" x="0px" y="0px"
	 width="100px" height="100px" viewBox="0 0 100 100" enable-background="new 0 0 100 100" xml:space="preserve">
<path d="M6.973,28.494c-0.53-1.745,0.531-2.732,1.291-2.845c0.91-0.114,1.29,1.328,1.29,1.328s1.138,1.024,3.148,1.518
	c0.38,0.076,0.797,0.151,1.214,0.189c0.646,0.076,1.594-0.038,2.656-0.189c3.376-0.569,7.891-1.935,8.271-2.048
	c0.531-0.152,0.911-0.266,0.645-0.911c-0.228-0.683-1.442-0.948-1.442-0.948c-1.707,0-7.17,2.39-11.457,0.683
	c-3.945-1.593-4.477-2.39-4.856-3.983c-0.417-1.631,0.114-3.528,1.556-3.528c1.479,0,0.531,1.024,1.062,1.821
	c2.352,3.528,11.343,3.718,13.164,3.718c1.859,0,2.921-0.418,2.77-1.214c-0.114-0.797-2.77-1.29-8.271-2.239
	c-5.539-0.91-10.812-5.008-10.698-8.536c0.152-3.566,4.212-3.035,4.212-3.035c-0.759,9.066,13.582,10.773,14.377,10.508
	c0.797-0.227-0.266-1.176-0.266-1.176c1.442,0.531,6.981,1.441,9.598,2.238c2.656,0.797,0.797,3.832,0.797,3.832
	c-0.531,0,0.151,2.238,1.707,3.035c1.593,0.797,7.398-0.911,3.718-6.714c-3.718-5.805-5.956-5.539-7.664-5.805
	s-2.503,0.379-5.008,0.266c-2.503-0.152-1.821-1.859-1.821-1.859s0.645,1.594,1.972,0.266c1.291-1.29-0.682-2.769-1.593-2.769
	c-0.911,0-2.352,0.948-2.352,0.948c-0.266-3.035,4.21-2.921,4.21-2.921c1.025-1.29,2.77-1.29,3.529-1.176
	c0.796,0.114,2.655,0.797,3.452,0.797s2.504-0.797,2.504-0.797c-1.329,1.328-0.532,2.503,0.265,2.883
	c0.76,0.417,3.263,0.948,3.263,0.948c-0.759,0.797,0.797,2.086,1.479,2.239c0.645,0.113,2.504,1.555,2.504,1.555l-0.949,0.683
	c2.125,1.707,4.477,6.829,4.477,6.829h0.532c0,0,2.542-5.235,4.476-6.829l-0.91-0.683c0,0,1.859-1.441,2.505-1.555
	c0.646-0.152,2.237-1.442,1.44-2.239c0,0,2.504-0.531,3.301-0.948c0.797-0.38,1.594-1.555,0.266-2.883c0,0,1.707,0.797,2.504,0.797
	s2.617-0.683,3.415-0.797c0.797-0.114,2.504-0.114,3.563,1.176c0,0,4.479-0.113,4.213,2.921c0,0-1.441-0.948-2.352-0.948
	c-0.949,0-2.922,1.479-1.596,2.769c1.329,1.328,1.975-0.266,1.975-0.266s0.645,1.707-1.858,1.859
	c-2.505,0.113-3.265-0.531-5.009-0.266c-1.707,0.266-3.945,0-7.625,5.805c-3.68,5.804,2.123,7.511,3.68,6.714
	c1.594-0.796,2.238-3.035,1.707-3.035c0,0-1.82-3.035,0.797-3.832c2.656-0.797,8.157-1.707,9.637-2.238c0,0-1.063,0.949-0.266,1.176
	c0.797,0.266,15.138-1.441,14.34-10.508c0,0,4.098-0.531,4.212,3.035c0.15,3.528-5.122,7.625-10.659,8.536
	c-5.541,0.949-8.158,1.442-8.311,2.239c-0.113,0.796,0.949,1.214,2.77,1.214c1.859,0,10.51,0.151,12.861-3.376
	c0.529-0.797-0.075-2.163,1.366-2.163c1.44,0,2.01,1.897,1.592,3.528c-0.416,1.593-0.946,2.352-4.894,3.983
	c-3.225,1.291-9.75-0.683-11.457-0.683c0,0-1.176,0.266-1.441,0.948c-0.266,0.646,0.152,0.759,0.645,0.911
	c0.418,0.114,4.934,1.479,8.271,2.048c1.063,0.151,2.465,0.569,4.211,0.455c2.503-0.189,2.809-1.973,2.809-1.973
	s0.416-1.442,1.328-1.328c0.721,0.113,1.781,1.1,1.288,2.845c-0.151,0.455-0.379,0.949-0.76,1.518
	c-1.856,2.618-3.831,2.162-4.476,2.238c-2.504,0.266-9.901-2.998-11.875-3.566c-0.303-0.076-0.492-0.152-0.605-0.189h-0.191
	c-0.074,0.038-0.149,0.189-0.227,0.455c-0.266,0.645,0.645,1.708,1.289,1.821c0.684,0.152,4.288,2.125,6.261,4.098
	c1.138,1.138,4.173,1.63,4.665,1.593c1.215-0.152,2.997-0.266,3.188-1.177c0.15-0.796,0.529-1.859,1.441-1.745
	c0.91,0.151,3.338,2.542-0.266,5.007c-1.707,1.215-3.148,1.063-3.682,1.063c-1.063,0-4.741-0.798-6.98-3.036
	c-2.236-2.238-5.159-3.945-5.917-3.793c-0.797,0.114-0.151,1.973-0.151,1.973s5.008,2.504,5.879,3.415
	c0.986,1.062,4.934,4.742,6.262,4.855c2.957,0.266,3.679-1.291,4.06-1.555c0.416-0.266,3.034-0.418,1.593,3.035
	c-1.177,2.731-3.414,2.503-4.742,2.503c-2.274,0-3.832-1.214-6.068-4.362c-2.238-3.149-6.337-5.008-7.247-5.122
	c-0.91-0.152-2.503,0.91-1.974,1.289c0.531,0.418,0.381-0.53,1.859,0.418c1.441,0.911,5.122,6.032,6.032,7.36
	c0.567,0.797,2.238,2.39,3.946,3.414l0.113,0.076c0.985,0.607,1.896,0.721,3.451,0.873c1.1,0.076,1.783-0.531,2.353-0.949
	c0.567-0.378,1.67-0.721,2.125,0.417c0.454,1.099,0.149,2.771-0.38,3.302c-0.797,0.758-2.354,1.743-4.098,1.707
	c-2.429-0.076-5.652-2.392-7.777-5.351c-2.123-2.958-4.627-7.321-5.766-7.966c-1.215-0.645-2.922-1.594-3.188-0.266
	c-0.266,1.328,0.266,0.645,1.479,1.972c0.455,0.532,2.428,3.225,4.629,6.26c2.2,3.036,8.004,9.826,10.355,9.826
	c2.921,0,1.859-0.759,3.036-0.685c0.87,0.078,1.176,0.685,1.327,2.012c0.113,1.289-2.125,3.11-3.566,2.998
	c-3.301-0.267-6.563-3.528-10.279-8.688c-1.216-1.67-3.492-5.5-3.492-5.539c-2.352-3.527-4.816-6.259-7.283-4.59
	c0,0-0.266,0.797,0.381,1.593c0.342,0.38,1.365,1.556,2.504,2.997c0,0,2.162,3.072,2.883,4.478c0.948,1.858,1.973,2.655,2.503,2.77
	c0.531,0.15,1.063-0.455,1.595,0.531c0.379,0.759-0.91,2.578-2.617,1.326c-1.896-1.364-4.25-6.258-5.538-7.776
	c-0.343-0.378-0.798-0.796-1.14-1.327c-0.873-1.175-1.668-2.883-2.808-2.997c-1.328-0.151-1.403,1.442-1.063,2.619
	c0.304,1.175,3.946,4.134,3.946,4.854c0,0.759-0.114,0.607-0.646,0.607c-0.607,0-2.656-1.896-3.035-2.429
	c-0.266-0.341-1.973-2.617-2.01-2.655c-0.418-0.417-0.799-0.682-1.025-0.493c-0.075,0.037-0.113,0.568-0.113,0.568
	c0.113,2.39,2.238,9.067,9.446,10.888c0.531,0.113-0.494,1.82-1.024,3.149c-0.529,1.327,0.266,1.176,0.266,1.176
	s8.803,5.651,9.865,6.601c1.061,0.91,0.797-0.416,0.91-0.949c0,0,0.416-1.819,1.479-1.555c0,0,0.911-3.187,2.354-2.654l0.266,0.416
	c0,0,0.531-0.795,1.328-0.265c0.797,0.529,1.82,2.353,1.707,3.3c0,0-0.685-1.063-1.441-1.063c-0.797,0-1.594,1.176-2.125,1.328
	c-0.531,0.113-0.796,0.379-0.531,0.758c0.418,0.531,1.328,0.418,1.707,0.152c0.418-0.266,2.77-0.152,3.301,1.328
	c0.532,1.479,0,2.237,0,2.237s-0.113-0.53-0.645-0.797c-0.532-0.266-0.684,0.531-1.063,0.38c-0.379-0.113-0.797-1.177-1.328-1.063
	c-0.531,0.152-1.176,0.267-0.91,0.949c0.266,0.646,1.176,1.063,0.91,1.974c0,0,0.455,1.1,0.151,1.592
	c-0.53,0.761-0.53,0.761-1.063,1.024c-0.531,0.266-0.797,0.418-1.326,0.531l0.529-0.91c0,0,0.531-0.266,0.418-0.912
	c-0.151-0.682-1.063-1.061-1.479-1.479c-0.38-0.379-0.76-1.023-1.707-1.176c-0.91-0.114-1.441,0-1.822,0.266
	c0,0-0.985,0.303-1.213,0.646C77.914,76.37,77.8,76.9,77.8,76.9s-0.379,0.455-1.063,0.795c-0.797,0.382-1.176,0.382-1.176,0.382
	s-1.707-0.115-0.91,1.858c0,0-2.504-0.722-1.973-2.656c0.379-1.44,1.023-0.909,1.441-1.327c0.342-0.304,0.113-0.986,0.645-1.365
	c0,0,1.631,1.177,2.885-1.253c0.873-1.631-2.731-2.504-4.325-3.301c-1.593-0.797-4.476-3.147-5.388-3.034
	c-1.403,0.228-1.328,0.683-1.858,2.237c0,0-0.267-0.113-0.91-0.379c-0.685-0.267-4.894-6.449-5.425-7.513
	c-0.531-1.063-2.012-3.794-3.414-3.413c-0.532,0.113,0.758,5.387,1.707,6.715c2.693,3.756,6.828,8.043,10.016,8.043
	c0.797,0,1.707,0.53,0.91,1.44c-0.797,0.911-2.505,2.353-4.324,0.797c-1.859-1.594-6.186-5.957-6.451-5.69
	c-0.682,0.684,0.115,3.565,1.974,5.69c2.087,2.39,5.464,3.339,3.87,4.78c-1.176,1.102-3.604-1.746-4.553-2.693
	c-0.91-0.91-2.77-4.212-3.527-3.945c-0.797,0.266-0.152,4.478,0.646,5.918c0.797,1.441,2.768,3.947,4.209,4.098
	c1.441,0.115,0.266,1.063-0.265,1.441c-0.531,0.418-1.897,1.707-3.832-0.91c-2.163-2.959-2.657-5.956-2.808-6.45
	c-0.189-0.683-1.859-1.517-2.049,0c-0.113,0.912-0.531,4.515,4.211,11.914c0,0-5.463,2.958-5.996,4.021h-0.113
	c-0.531-1.063-5.994-4.021-5.994-4.021c4.742-7.399,4.326-11.002,4.211-11.914c-0.228-1.517-1.859-0.683-2.049,0
	c-0.152,0.494-0.683,3.491-2.845,6.45c-1.935,2.617-3.301,1.328-3.794,0.91c-0.531-0.379-1.745-1.326-0.266-1.441
	c1.442-0.15,3.415-2.654,4.211-4.098c0.796-1.44,1.442-5.652,0.645-5.918c-0.797-0.267-2.618,3.035-3.566,3.945
	c-0.91,0.947-3.376,3.795-4.552,2.693c-1.555-1.441,1.783-2.391,3.908-4.78c1.859-2.125,2.618-5.008,1.972-5.69
	c-0.265-0.267-4.628,4.098-6.449,5.69c-1.859,1.556-3.566,0.114-4.362-0.797c-0.797-0.91,0.151-1.44,0.948-1.44
	c3.149,0,7.284-4.287,9.978-8.043c0.948-1.328,2.276-6.602,1.745-6.715c-1.441-0.381-2.921,2.352-3.453,3.413
	c-0.53,1.063-4.742,7.246-5.387,7.513c-0.646,0.266-0.911,0.379-0.911,0.379c-0.53-1.557-0.455-2.012-1.859-2.237
	c-0.91-0.113-3.831,2.237-5.387,3.034c-1.593,0.797-5.197,1.67-4.363,3.301c1.252,2.43,2.921,1.253,2.921,1.253
	c0.493,0.379,0.304,1.063,0.645,1.365c0.38,0.418,1.063-0.113,1.442,1.327c0.531,1.936-1.973,2.656-1.973,2.656
	c0.797-1.975-0.91-1.858-0.91-1.858s-0.417,0-1.214-0.382c-0.683-0.34-1.023-0.795-1.023-0.795s-0.152-0.53-0.418-0.948
	c-0.228-0.343-1.176-0.646-1.176-0.646c-0.379-0.266-0.91-0.38-1.859-0.266c-0.91,0.15-1.29,0.797-1.707,1.176
	c-0.379,0.418-1.29,0.797-1.442,1.479c-0.113,0.646,0.38,0.912,0.38,0.912l0.531,0.91c-0.531-0.113-0.759-0.266-1.29-0.531
	c-0.531-0.264-0.531-0.266-1.063-1.024c-0.341-0.491,0.114-1.592,0.114-1.592c-0.266-0.91,0.683-1.328,0.948-1.974
	c0.266-0.684-0.417-0.797-0.948-0.949c-0.531-0.113-0.911,0.949-1.291,1.063c-0.417,0.151-0.531-0.646-1.062-0.38
	c-0.531,0.267-0.683,0.797-0.683,0.797s-0.532-0.759,0-2.237c0.531-1.48,2.921-1.594,3.301-1.328
	c0.417,0.266,1.327,0.379,1.707-0.152c0.303-0.379,0-0.645-0.493-0.758c-0.531-0.152-1.328-1.328-2.125-1.328
	s-1.441,1.063-1.441,1.063c-0.152-0.947,0.91-2.771,1.707-3.3c0.797-0.53,1.328,0.265,1.328,0.265l0.266-0.416
	c1.442-0.531,2.352,2.654,2.352,2.654c1.062-0.266,1.442,1.555,1.442,1.555c0.151,0.533-0.114,1.859,0.948,0.949
	c1.024-0.949,9.864-6.601,9.864-6.601s0.796,0.151,0.265-1.176c-0.531-1.329-1.593-3.036-1.062-3.149
	c7.208-1.82,9.484-10.583,9.484-10.623c0.076-0.379-0.038-0.797-0.113-0.834c-0.228-0.189-0.646,0.075-1.063,0.493
	c0,0-1.745,2.313-1.973,2.655c-0.417,0.531-2.39,2.313-3.035,2.238c-0.607-0.076-0.532-0.151-0.645-0.418
	c-0.228-0.418,3.528-2.693,3.945-4.854c0.266-1.48,0.266-2.77-1.062-2.619c-1.176,0.114-3.642,3.946-3.946,4.324
	c-1.328,1.519-3.642,6.412-5.539,7.776c-1.707,1.252-3.035-0.567-2.618-1.326c0.493-0.986,1.024-0.381,1.556-0.531
	c0.531-0.113,1.555-0.91,2.504-2.77c1.934-3.604,5.083-7.095,5.425-7.475c0.645-0.796,0.379-1.593,0.379-1.593
	c-2.504-1.669-4.932,1.063-7.322,4.59c0,0-2.277,3.869-3.491,5.539c-3.68,5.159-6.98,8.422-10.28,8.688
	c-1.442,0.112-3.681-1.709-3.529-2.998c0.114-1.328,0.114-2.049,1.101-2.049c0.872,0,0.721,0.836,3.224,0.721
	c2.39-0.112,6.905-5.271,10.357-9.825c0,0,4.21-5.728,4.666-6.26c1.176-1.327,1.707-0.644,1.441-1.972
	c-0.266-1.328-1.972-0.379-3.149,0.266c-1.138,0.645-4.097,5.918-5.804,7.966c-2.883,3.567-5.312,5.274-7.778,5.35
	c-1.707,0.037-3.3-0.948-4.059-1.707c-0.531-0.53-1.213-2.505-0.228-3.719c0.532-0.644,1.138-0.569,1.973,0
	c0,0,1.251,1.024,2.314,0.949c1.594-0.152,2.466-0.267,3.491-0.873l0,0c0.037,0,2.694-1.82,4.021-3.49
	c1.023-1.251,4.628-6.449,6.069-7.36c1.442-0.948,1.328,0,1.859-0.418c0.494-0.379-1.062-1.441-2.01-1.289
	c-0.911,0.114-4.97,1.973-7.246,5.122c-2.239,3.148-3.794,4.362-6.032,4.362c-1.328,0-3.566,0.228-4.743-2.503
	c-1.48-3.453,1.177-3.3,1.556-3.035c0.417,0.265,0.759,1.821,4.097,1.555c1.328-0.076,4.362-2.694,6.335-4.478
	c0.91-0.834,5.805-3.793,5.805-3.793s0.645-1.858-0.151-1.973c-0.797-0.151-3.681,1.555-5.919,3.793
	c-2.238,2.238-5.918,3.036-6.98,3.036c-0.531,0-1.973,0.151-3.68-1.063c-3.643-2.465-1.214-4.855-0.266-5.007
	c0.91-0.114,1.327,0.948,1.441,1.745c0.114,0.911,1.973,1.024,3.149,1.177c0.531,0.037,3.415-0.418,4.628-1.518
	c2.011-1.935,5.653-4.021,6.298-4.174c0.683-0.113,1.555-1.138,1.329-1.821c-0.19-0.607-0.721-0.341-1.063-0.266
	c-1.973,0.569-9.333,3.832-11.836,3.566c-0.683-0.076-2.656,0.38-4.477-2.238C7.353,29.442,7.087,28.949,6.973,28.494L6.973,28.494z
	 M68.055,10.246c0,0-0.531,0.644-0.531,1.062c0,0-1.596-0.266-1.975-0.683C65.549,10.625,66.459,10.094,68.055,10.246L68.055,10.246
	z M78.068,9.297c0,0,1.177,0.152,1.441,0.949c0.342,0.987-0.266,1.555-0.645,1.821c-0.418,0.266-1.708,1.062-3.303,0.683
	c-1.819-0.455-1.328-0.417-1.707-0.531c-0.416-0.151-3.83,0-3.83,0s2.654-0.417,3.943-0.417c1.328,0,1.859,0.417,2.656,0.266
	C77.387,11.954,79.13,11.156,78.068,9.297L78.068,9.297z M31.975,10.246c0,0,0.493,0.644,0.493,1.062c0,0,1.593-0.266,2.01-0.683
	C34.478,10.625,33.53,10.094,31.975,10.246L31.975,10.246z M21.959,9.297c0,0-1.214,0.152-1.441,0.949
	c-0.342,0.987,0.228,1.555,0.645,1.821c0.38,0.266,1.708,1.062,3.301,0.683c1.821-0.455,1.29-0.417,1.707-0.531
	c0.38-0.151,3.832,0,3.832,0s-2.656-0.417-3.983-0.417c-1.29,0-1.897,0.417-2.618,0.266C22.642,11.954,20.896,11.156,21.959,9.297
	L21.959,9.297z"/>
</svg>
