<?xml version="1.0" encoding="utf-8"?>
<!-- Generator: Adobe Illustrator 16.0.0, SVG Export Plug-In . SVG Version: 6.00 Build 0)  -->
<!DOCTYPE svg PUBLIC "-//W3C//DTD SVG 1.1//EN" "http://www.w3.org/Graphics/SVG/1.1/DTD/svg11.dtd">
<svg version="1.1" id="Layer_1" xmlns="http://www.w3.org/2000/svg" xmlns:xlink="http://www.w3.org/1999/xlink" x="0px" y="0px"
	 width="100px" height="100px" viewBox="0 0 100 100" enable-background="new 0 0 100 100" xml:space="preserve">
<g id="Shape_11">
	<g>
		<path fill="#010101" d="M47.815,91.137l2.976-0.176l0.613-15.491l-4.639,0.089L47.815,91.137z M38.976,73.72l-0.525,0.524
			l3.501,15.229l2.363,0.963l-1.226-15.229L38.976,73.72z M32.499,42.474c-6.739-1.926-6.914,1.313-6.914,1.313
			s-0.963,3.238-0.613,7.177c0.35,3.938,4.026,5.952,9.102,6.04c5.077,0.087,5.952-1.663,7.089-2.451
			c0.525-2.625,3.676-2.625,4.289-3.15c0.612-0.525-0.263-2.363-0.788-3.238C44.14,47.288,32.499,42.474,32.499,42.474z
			 M97.926,48.226C94.619,0.982,49.028,2.164,49.028,2.164C40.524,0.273-0.342,9.25,2.02,53.188
			C4.382,97.126,49.737,98.07,49.737,98.07S101.232,95.473,97.926,48.226z M65.758,86.76c0,0-1.051,2.275-4.9,4.377
			c-3.852,2.1-5.688,4.813-8.489,4.9c-2.802,0.088-5.952,0.088-5.952,0.088s-1.05-0.613-3.151-1.838
			c-2.101-1.227-8.665-5.252-8.665-5.252s-0.613-0.699-2.625-5.076c-2.013-4.376-6.739-16.191-6.739-16.191l2.45,0.176l5.077,9.716
			c0,0,0.612,0.875,1.313-0.351c0.701-1.227,4.201-9.103,4.201-9.103l22.056-0.176l4.289,10.151c0,0,0.788,0.264,1.487-0.875
			c0.699-1.138,4.464-9.188,4.464-9.188l2.538,0.175L65.758,86.76z M79.762,57.09l-3.916,4.563H54.602l-3.207-6.814h-4.209
			l-2.806,7.016H22.933l-0.801-1.402c0,0-1.002-1.403-3.006-3.207c-2.004-1.805-0.802-2.205,1.403-4.409
			c2.205-2.206-0.2-6.214-2.205-20.645C15.919,4.53,48.788,5.532,48.788,5.532c6.827-0.438,13.03,1.496,20.995,5.171
			c7.965,3.675,10.854,12.34,10.939,20.217c0.088,7.877-2.449,12.078-2.449,12.078h-5.34c0,0-1.926-0.962-2.713-1.05
			c-0.787-0.087-2.625-0.438-7.789,1.838c-5.164,2.276-9.102,5.164-9.102,5.164s0.087,0.613,0.175,2.714
			c1.138,0,3.063,1.488,3.063,1.488s0.438,1.75,2.274,2.537c3.15,2.014,5.603,1.226,9.978,0.612
			c4.377-0.612,4.813-5.339,4.813-5.339s4.288-0.438,4.288,0.176c0,0.611-0.175,0.611,1.926,2.625
			C81.949,55.777,79.762,57.09,79.762,57.09z M54.292,90.438l2.538-1.14l2.714-15.315l-4.201,1.838L54.292,90.438z"/>
	</g>
</g>
</svg>
