<?xml version="1.0" encoding="utf-8"?>
<!-- Generator: Adobe Illustrator 16.0.0, SVG Export Plug-In . SVG Version: 6.00 Build 0)  -->
<!DOCTYPE svg PUBLIC "-//W3C//DTD SVG 1.1//EN" "http://www.w3.org/Graphics/SVG/1.1/DTD/svg11.dtd">
<svg version="1.1" id="Layer_1" xmlns="http://www.w3.org/2000/svg" xmlns:xlink="http://www.w3.org/1999/xlink" x="0px" y="0px"
	 width="100px" height="100px" viewBox="0 0 100 100" enable-background="new 0 0 100 100" xml:space="preserve">
<path fill="#010101" d="M11.299,51.169c0.056-0.06-0.028-0.037-0.028-0.037l-0.039,0.022C11.217,51.193,11.243,51.232,11.299,51.169
	z M94.711,50.85c-0.093-0.222-0.206-0.518-0.18-0.548c0.01-0.012,0.078,0.047,0.164,0.131c0.005-0.272,0.021-0.542,0.05-0.813
	c0.083,0.012,0.169,0.022,0.25,0.037c-0.058-0.229-0.111-0.459-0.167-0.689c0.035-0.197,0.072-0.395,0.122-0.59
	c-0.063-0.084-0.126-0.166-0.19-0.245c0.077-0.598,0.153-1.193,0.23-1.791c-0.252-0.753-0.502-1.511-0.75-2.27
	c-0.031-0.141-0.063-0.284-0.094-0.427c-0.164-3.75-1.687-14.669-1.687-14.669c-0.567-3.246-1.099-6.751-2.271-9.413
	c-0.151-0.348-0.306-0.697-0.459-1.045c-0.465-0.556-0.932-1.111-1.396-1.667c-0.301-0.205-0.603-0.412-0.903-0.615
	c-0.218-0.158-0.432-0.318-0.646-0.474c-0.532-0.156-1.062-0.306-1.595-0.461c-0.18-0.156-0.356-0.316-0.535-0.475
	c-0.361-0.301-0.727-0.603-1.088-0.904c-0.246-0.353-0.49-0.704-0.736-1.06c-0.21-0.17-0.419-0.346-0.629-0.521
	c-0.84-0.663-1.721-1.347-2.729-1.838c0.068-0.921,0.586-1.381,0.856-2.07c0.052-0.266,0.101-0.531,0.155-0.795
	c0.105-0.459,0.121-0.973,0.215-1.504c0.02-0.209,0.037-0.42,0.058-0.63c-0.085-0.356-0.173-0.714-0.258-1.072
	c-0.036-0.172-0.071-0.349-0.108-0.521c-0.269-0.629-0.767-1.21-1.147-1.746c-0.119-0.163-0.235-0.326-0.354-0.489
	c-0.402-0.202-0.807-0.4-1.211-0.6c-0.336-0.029-0.674-0.062-1.012-0.092c-1.701-0.293-3.291,0.193-4.582,0.599
	c-0.236,0.066-0.47,0.133-0.705,0.2c-0.261,0.192-0.521,0.387-0.783,0.58c-0.142,0.099-0.285,0.195-0.428,0.292
	c-0.26,0.351-0.145,1.03-0.23,1.549c-0.106,0.662-0.076,1.396,0.031,2.055c0.045,0.521,0.092,1.042,0.137,1.563
	c0.082,0.499-0.051,1.055,0.092,1.501c0.152,0.475,0.607,0.781,0.783,1.29c0.074,0.417,0.152,0.837,0.229,1.254
	c0.016,0.153,0.032,0.306,0.046,0.459c0.132,0.156,0.267,0.309,0.4,0.462c0.163,0.099,0.597,0.079,0.551,0.383
	c-0.044,0.277-0.521,0.968-0.677,1.228c-0.354,0.603-0.774,1.072-1.194,1.593c-0.11,0.134-0.226,0.267-0.337,0.397
	c-0.711,0.349-1.419,0.695-2.129,1.045c-0.48,0.335-0.962,0.672-1.443,1.011c-0.312,0.464-0.623,0.928-0.934,1.396
	c-0.123,0.514-0.246,1.03-0.367,1.545c-0.217,0.707-0.43,1.414-0.645,2.117c-0.146,0.652-0.287,1.309-0.43,1.961
	c-0.129,0.563-0.256,1.124-0.383,1.687c-0.345,1-0.686,2.003-1.029,3.006c-0.173,1.455-0.347,2.912-0.521,4.367
	c0.174,1.344,0.348,2.688,0.521,4.034c-0.111,0.561-0.225,1.124-0.338,1.687c-0.029,0.753-0.061,1.511-0.092,2.267
	c-0.089,0.551,0.292,0.89,0.216,1.379c-0.046,0.945-0.093,1.892-0.138,2.838c-0.007,0.316-0.012,0.632-0.016,0.948
	c-0.153,0.887-0.121,1.924-0.275,2.882c0.029,0.557,0.061,1.114,0.091,1.674c-0.077,0.556-0.153,1.113-0.229,1.67
	c-0.112,0-0.221-0.004-0.33-0.008c0.179,0.403,0.349,0.813,0.509,1.229c0.347,0.313,0.677,0.648,0.993,0.996
	c-0.965,0.511-2.691,0.656-3.316,1.003c-0.081,0.43,0.055,1.041,0.051,1.496c-0.014,1.401-0.537,2.912-1.695,4.338
	c-0.039-0.063-0.08-0.129-0.12-0.192c-0.447-0.232-0.341-2.229-0.662-2.742c-0.253-0.215-0.509-0.43-0.763-0.646
	c-0.041-0.064-0.16-0.195-0.219-0.259c-0.065-0.071-0.344-0.3-0.4-0.347c-0.023-0.021-0.073-0.058-0.123-0.088
	c-0.061-0.064-0.122-0.121-0.182-0.187c-0.113,0.045-0.244,0.071-0.367,0.106c-0.02-0.027-0.043-0.061-0.082-0.09
	c-0.055-0.02-0.203-0.139-0.256-0.16c-0.051-0.022-0.095-0.055-0.176-0.066c-0.063-0.032-0.146-0.061-0.16-0.098
	c-0.009-0.03-0.072-0.26-0.142-0.336c-0.071-0.078-0.208-0.158-0.313-0.252C54,57.504,53.877,57.393,53.83,57.32
	c-0.055-0.073-0.087-0.27-0.12-0.327c-0.032-0.063-0.205-0.323-0.233-0.363c-0.025-0.039-0.129-0.203-0.225-0.289
	c-0.094-0.089-0.145-0.149-0.215-0.146c-0.012-0.063,0.029-0.194,0.045-0.239c0.01-0.045,0.021-0.111,0.025-0.187
	c0.037-0.01,0.086,0,0.104,0.045c0.016,0.047,0.025,0.131,0.161,0.226c0.099,0.065,0.155,0.074,0.211,0.036
	c0.054-0.031,0.14-0.184,0.173-0.215c0.034-0.034,0.318-0.396,0.355-0.457c0.041-0.063,0.224-0.297,0.303-0.407
	c0.074-0.111,0.188-0.286,0.193-0.456c0.008-0.174,0-0.471-0.033-0.591c-0.031-0.123-0.072-0.257-0.16-0.313
	c-0.09-0.055-0.219-0.062-0.291-0.021c-0.077,0.02-0.146,0.027-0.132-0.042c0.009-0.074,0.083-0.229,0.142-0.31
	c0.063-0.078,0.125-0.248,0.151-0.315s0.067-0.229,0.073-0.274c0.008-0.045,0.008-0.189,0.039-0.244c0.022-0.097,0-0.225,0.01-0.254
	c0.014-0.037,0.035-0.305,0.035-0.344c0-0.037,0.027-0.355,0.019-0.41c-0.015-0.059,0-0.27-0.026-0.314
	c-0.02-0.043-0.004-0.336-0.011-0.434c-0.003-0.094-0.017-0.245-0.024-0.277c-0.014-0.035-0.039-0.086-0.045-0.237
	c-0.028-0.077-0.063-0.178-0.063-0.232c-0.012-0.057-0.09-0.073-0.09-0.098c0-0.03,0.035-0.126-0.018-0.193
	c-0.052-0.064-0.088-0.185-0.094-0.222c-0.006-0.04-0.023-0.094-0.066-0.111c-0.051-0.067-0.103-0.183-0.123-0.235
	c-0.022-0.049-0.114-0.197-0.146-0.205c-0.046,0.01-0.062-0.057-0.097-0.079c-0.031-0.022-0.049-0.062-0.051-0.108
	c-0.008-0.055-0.082-0.118-0.078-0.141c0.008-0.022-0.014-0.062-0.08-0.102c-0.073-0.012-0.066-0.039-0.078-0.061
	c-0.012-0.02-0.051-0.028-0.085-0.028c-0.035,0-0.035-0.079-0.082-0.088c-0.052-0.013-0.103-0.082-0.113-0.106
	c-0.01-0.022-0.11-0.101-0.11-0.101s-0.156-0.071-0.166-0.094c-0.01-0.022-0.066-0.106-0.133-0.111
	c-0.068-0.005-0.043-0.021-0.106-0.037c-0.068-0.02-0.107-0.052-0.158-0.081c-0.05-0.025-0.05-0.064-0.133-0.047
	c-0.084,0-0.118-0.069-0.177-0.091c-0.063-0.022-0.203-0.101-0.33-0.121c-0.129-0.022-0.156-0.074-0.223-0.101
	c-0.068-0.027-0.187-0.027-0.218-0.027c-0.035,0-0.157-0.035-0.26-0.079c-0.099-0.044-0.22-0.055-0.281-0.067
	c-0.063-0.01-0.162-0.027-0.233-0.017c-0.072,0.012-0.229-0.022-0.278-0.01c-0.051,0.01-0.388-0.015-0.424-0.002
	c-0.044-0.013-0.276,0.015-0.328,0.022c-0.067,0.007-0.186-0.044-0.26,0.022c-0.072,0.06-0.14,0.052-0.217,0.06
	c-0.071,0.007-0.222,0.022-0.244,0.051c-0.066,0.06-0.187,0.052-0.275,0.097c-0.088,0.044-0.26,0.119-0.327,0.173
	c-0.073,0.035-0.124,0.027-0.185,0.086c-0.06,0.06-0.172,0.104-0.23,0.151c-0.059,0.044-0.299,0.192-0.386,0.299
	c-0.09,0.101-0.276,0.282-0.343,0.353c-0.06,0.062-0.318,0.351-0.394,0.503c-0.072,0.159-0.187,0.381-0.237,0.524
	c-0.052,0.138-0.104,0.326-0.129,0.41c-0.03,0.082-0.159,0.484-0.173,0.526c-0.029,0.04-0.137,0.475-0.147,0.61
	c-0.01,0.132-0.055,0.339-0.045,0.572c0.018,0.201,0.041,0.437,0.066,0.558c0.012,0.078,0.042,0.213,0.057,0.27
	c0.017,0.055,0.011,0.111,0.047,0.163c0.026,0.054,0.022,0.112,0.005,0.159c-0.027,0.027-0.13-0.013-0.175-0.033
	c-0.044-0.025-0.178-0.057-0.227,0.004c-0.056,0.045-0.124,0.115-0.152,0.245c-0.027,0.134-0.049,0.337-0.06,0.42
	c-0.022,0.081-0.074,0.231-0.039,0.372c0.033,0.14,0.152,0.552,0.179,0.625c0.027,0.074,0.217,0.607,0.224,0.631
	c0.014,0.037,0.01,0.115,0.075,0.176c0.066,0.063,0.103,0.104,0.2,0.057c0.103-0.043,0.168-0.102,0.176-0.121
	c0.021-0.018,0.049,0.033,0.049,0.104c0,0.074,0.011,0.229,0.032,0.324c0.024,0.096,0.058,0.185,0.044,0.219
	c-0.038,0.037-0.177,0.179-0.222,0.228c-0.043,0.051-0.129,0.201-0.14,0.229c-0.037,0.057-0.128,0.128-0.161,0.155
	c-0.061,0.024-0.109,0.017-0.162,0.079c-0.05,0.062-0.16,0.129-0.25,0.162c-0.087,0.033-0.201,0.064-0.302,0.121
	c-0.104,0.041-0.172,0.041-0.271,0.09c-0.102,0.039-0.139,0.057-0.196,0.084c-0.049,0.01-0.15,0.074-0.216,0.146
	c-0.052,0.076-0.084,0.07-0.135,0.076c-0.051,0.004-0.096,0-0.141,0.062c-0.025,0.039-0.094,0.058-0.117,0.034
	c-0.022-0.021-0.027-0.061-0.167,0.005c-0.139,0.066-0.268,0.11-0.294,0.106c-0.047,0.045-0.225,0.166-0.252,0.187
	c-0.049,0.024-0.127,0.063-0.173,0.061c-0.049-0.023-0.134-0.051-0.29-0.02c-0.144,0.012-0.2,0.02-0.243,0.053
	c-0.052,0.023-0.136,0.004-0.189,0.059c-0.056,0.057-0.162,0.23-0.191,0.27c-0.051,0.037-0.076,0.121-0.076,0.121
	c-0.029,0.037-0.078,0.111-0.146,0.123c-0.067,0.014-0.156,0.135-0.189,0.174c-0.036,0.039-0.113,0.186-0.128,0.229
	c-0.039,0.056-0.09,0.154-0.128,0.188c-0.041,0.033-0.074,0.043-0.129,0.173c-0.049,0.057-0.15,0.231-0.154,0.312
	c-0.026,0.073-0.073,0.225-0.084,0.303c-0.019,0.078-0.066,0.18-0.091,0.217c-0.011,0.049-0.09,0.158-0.1,0.195
	c-0.034,0.084-0.066,0.114-0.066,0.201c-0.046,0.037-0.262,0.172-0.313,0.206c-0.05,0.031-0.102,0.095-0.188,0.154
	c-0.12,0.069-0.369,0.174-0.47,0.239c-0.102,0.068-0.542,0.352-0.638,0.396c-0.1,0.055-0.501,0.307-0.566,0.335
	c-0.068,0.027-0.273,0.05-0.376,0.082c-0.098,0.034-0.206,0.084-0.287,0.197c-0.084,0.11-0.18,0.338-0.189,0.366
	c-0.012,0.146-0.063,0.357-0.079,0.441s-0.062,0.262-0.078,0.49c-0.011,0.05-0.062,0.258-0.075,0.3
	c-0.007,0.011-0.012,0.034-0.018,0.077c-0.045,0.164-0.063,0.523-0.066,0.648c-0.006,0.152-0.013,0.228-0.037,0.295
	c-0.023,0.065-0.071,0.207-0.071,0.279s-0.006,0.324-0.011,0.381c-0.007,0.059-0.039,0.476-0.039,0.526
	c-0.017,0.05-0.078,0.16-0.101,0.195c-0.022,0.03-0.072,0.126-0.096,0.289c-0.022,0.159-0.06,0.315-0.065,0.373
	c-0.044,0.012-0.14-0.035-0.228-0.063c-0.101-0.044-0.213-0.094-0.408-0.102c-0.194-0.002-0.468,0.047-0.512,0.068
	c-0.068,0.025-0.224,0.065-0.369-0.123c-0.146-0.189-0.312-0.509-0.401-0.595c-0.09-0.09-0.289-0.239-0.322-0.354
	c-0.058-0.172-0.335-0.412-0.491-0.502c-0.217-0.088-0.513-0.272-0.657-0.34c-0.145-0.063-0.407-0.179-0.72-0.205
	c-0.139,0.018-0.285-0.162-0.335-0.2c-0.049-0.039-0.213-0.062-0.244-0.062c-0.032,0-0.145-0.145-0.135-0.283
	c0.014-0.143,0-0.485-0.026-0.592c-0.027-0.105-0.251-0.502-0.317-0.576c-0.065-0.069-0.268-0.231-0.419-0.324
	c-0.15-0.098-0.53-0.262-0.659-0.338c-0.126-0.07-0.707-0.412-0.763-0.474c-0.054-0.062-0.549-0.396-0.619-0.457
	c-0.066-0.062-0.216-0.233-0.25-0.311c-0.033-0.079-0.045-0.218-0.122-0.279c-0.077-0.06-0.246-0.166-0.351-0.179
	c-0.108-0.012-0.286-0.039-0.317-0.039c-0.057-0.01-0.307-0.104-0.391-0.172c-0.084-0.067-0.429-0.303-0.507-0.374
	c-0.079-0.074-0.349-0.318-0.469-0.4c-0.119-0.083-0.54-0.39-0.54-0.39c-0.052-0.039-0.225-0.124-0.352-0.131
	c-0.123-0.049-0.184-0.082-0.284-0.104c-0.083-0.056-0.341-0.306-0.424-0.412s-0.379-0.372-0.396-0.417
	c-0.018-0.045-0.178-0.263-0.26-0.357c-0.085-0.096-0.521-0.424-0.558-0.463c-0.042-0.039-0.364-0.328-0.392-0.373
	c-0.041-0.051-0.041-0.114-0.236-0.17c-0.099-0.024-0.064-0.092-0.032-0.176c0.032-0.084,0.152-0.324,0.152-0.354
	c0.04-0.052,0.105-0.052,0.135-0.029c0.03,0.029,0.155,0.113,0.208,0.104c0.057-0.008,0.192-0.018,0.256-0.082
	c0.058-0.065,0.208-0.174,0.243-0.186c0.032-0.01,0.166-0.113,0.239-0.211c0.073-0.102,0.177-0.3,0.2-0.391
	c0.021-0.09,0.094-0.316,0.123-0.368c0.028-0.05,0.099-0.155,0.14-0.155c0.038,0,0.121-0.145,0.121-0.145
	c0.03,0,0.092,0.045,0.095,0.074c0.005,0.024,0.023,0.088,0.067,0.082c0.043-0.008,0.156,0.075,0.228,0.012
	c0.073-0.068,0.095-0.086,0.18-0.094c0.084-0.015,0.141-0.066,0.212-0.121c0.167-0.117,0.088,0.095,0.239,0.069
	c0.101-0.02,0.178-0.102,0.207-0.118c0.026-0.019,0.141-0.103,0.161-0.188c0.023-0.093,0.09-0.084,0.162-0.097
	c0.072-0.014,0.199,0,0.278-0.045c0.077-0.047,0.168-0.086,0.223-0.062c0.062,0.026,0.21,0.058,0.238-0.042
	c0.048-0.146,0.228-0.127,0.202-0.213c-0.04-0.141-0.103-0.086,0-0.163c0.089,0,0.238,0.067,0.313-0.022
	c0.06-0.07-0.04-0.149-0.019-0.193c0.032-0.065,0.081-0.01,0.065-0.09c-0.058-0.073-0.042-0.102-0.025-0.186
	c0.016-0.082,0.041-0.094,0.072-0.094c0.034,0,0.1,0.004,0.146-0.01c0.043-0.019,0.119-0.023,0.177-0.03
	c0.057-0.005,0.118,0,0.189-0.138c0.095-0.143,0.084-0.284,0.044-0.332c-0.04-0.041-0.128-0.081-0.14-0.144
	c-0.015-0.081-0.268,0.013-0.283-0.01c-0.018-0.024-0.051-0.099-0.054-0.181c-0.009-0.076-0.028-0.111-0.036-0.233
	c-0.005-0.121-0.214-0.166-0.227-0.264c-0.012-0.093,0.049-0.152,0.089-0.199c0.037-0.045,0.047-0.076,0-0.147
	c-0.051-0.074,0.11-0.106,0.11-0.226c0-0.116,0.041-0.212-0.048-0.272c-0.079-0.052-0.007-0.154,0.021-0.207
	c0.026-0.049-0.021-0.146-0.063-0.095c-0.04,0.05-0.11,0.055-0.146,0.114c-0.033,0.051-0.079,0.107-0.11,0.107
	c-0.034,0-0.15,0-0.145-0.047c0.004-0.041-0.045-0.114,0.036-0.188c0.086-0.071,0.137-0.125,0.203-0.138
	c0.065-0.012,0.161-0.012,0.185-0.052c0.021-0.037,0.12-0.081,0.154-0.098c0.035-0.018,0.14-0.023,0.189-0.023
	c0.049,0,0.134-0.004,0.063-0.096c-0.074-0.089-0.14-0.082-0.063-0.166c0.079-0.084,0.189-0.143,0.028-0.167
	c-0.161-0.022-0.252,0.035-0.271-0.005c-0.025-0.037-0.039-0.099-0.057-0.163c-0.018-0.06-0.067-0.069-0.042-0.139
	c0.031-0.066,0.037-0.138-0.054-0.084c-0.087,0.057-0.143,0.057-0.21,0.084c-0.068,0.03-0.162,0.032-0.19,0.058
	c-0.029,0.021-0.05-0.018-0.045-0.04c0.006-0.025,0.051-0.134-0.073-0.2c-0.122-0.067-0.154-0.074-0.228-0.097
	c-0.072-0.022-0.141-0.071-0.127-0.098c0.009-0.027,0.009-0.134-0.063-0.176c-0.072-0.037-0.116-0.059-0.128-0.099
	c-0.012-0.037-0.111-0.097-0.144-0.059c-0.036,0.029-0.09,0.029-0.09,0.029s-0.013-0.049-0.013-0.077S27,48.499,26.92,48.516
	c-0.078,0.018-0.167,0.055-0.185,0.018c-0.016-0.042-0.115-0.092-0.158-0.079c-0.047,0.012-0.054-0.077-0.098-0.013
	c-0.044,0.07-0.104,0.038-0.11-0.004c-0.005-0.037-0.067-0.06-0.083-0.099c-0.018-0.042-0.067-0.022-0.1-0.062
	c-0.035-0.04-0.053-0.082-0.118-0.089c-0.067-0.005-0.162-0.005-0.201-0.032c-0.039-0.029-0.196-0.074-0.323-0.078
	c-0.134-0.018-0.379-0.013-0.492,0.071c-0.111,0.084-0.217,0.173-0.217,0.173c-0.051,0.017-0.123,0.012-0.148,0.062
	c-0.03,0.049-0.057,0.109-0.1,0.146c-0.047,0.032-0.085,0.037-0.156,0.032c-0.074-0.004-0.113-0.062-0.119,0.035
	c-0.046,0.024-0.095,0.05-0.145-0.024c-0.049-0.072-0.122-0.151-0.169-0.161c-0.044-0.01-0.109-0.114-0.12-0.163
	c-0.016-0.042-0.123-0.074-0.168-0.121c-0.055-0.035-0.066-0.013-0.145-0.057c-0.078-0.042-0.225-0.148-0.29-0.153
	c-0.066-0.01-0.233,0.005-0.295-0.029c-0.062-0.035-0.271-0.146-0.356-0.146c-0.084,0-0.225-0.042-0.284-0.064
	c-0.063-0.024-0.302-0.081-0.441-0.091c-0.138-0.01-0.451-0.072-0.544-0.094c-0.098-0.025-0.269,0.01-0.348,0.044
	c-0.078,0.035-0.121,0.066-0.178,0.044c-0.056-0.022-0.19-0.044-0.295-0.035c-0.106,0.012-0.267,0.067-0.33,0.074
	c-0.059,0.005-0.301,0.022-0.417,0.032c-0.119,0.009-0.208,0.072-0.285,0.072s-0.369,0.029-0.422,0.044
	c-0.112,0.083-0.273,0.158-0.337,0.208c-0.064,0.035-0.312,0.156-0.377,0.2c-0.067,0.044-0.429,0.279-0.429,0.279
	c-0.023-0.023-0.03-0.151-0.023-0.245c-0.007-0.102-0.038-0.279-0.117-0.374c-0.112-0.15-0.24-0.261-0.491-0.296
	c-0.233,0-0.483,0.005-0.638,0.274c-0.098,0.117-0.152,0.317-0.146,0.423c0.002,0.105,0.017,0.274,0.104,0.395
	c0.062,0.08,0.019,0.096-0.013,0.089c-0.026-0.005-0.036-0.037-0.188,0.017c-0.149,0.057-0.178-0.032-0.307-0.01
	c-0.122-0.017-0.144-0.079-0.195-0.03c-0.051,0.049-0.172,0.089-0.269,0.134c-0.138,0.013-0.488,0.047-0.572,0.091
	c-0.085,0.044-0.207,0.141-0.257,0.094c-0.05-0.044-0.147-0.054-0.147-0.054l-0.048,0.054c-0.05,0.004-0.206-0.044-0.327,0.057
	c-0.123,0.098-0.152,0.119-0.235,0.111c-0.082-0.005-0.256,0.077-0.313,0.111c-0.26,0.064-0.316,0.102-0.406,0.183
	c-0.086,0.084-0.188,0.244-0.231,0.331c-0.058,0.055-0.092,0.072-0.236,0.109c-0.145,0.04-0.255,0.129-0.345,0.235
	c-0.09,0.105-0.229,0.229-0.285,0.247c-0.057,0.015-0.202,0.161-0.244,0.237c-0.044,0.079-0.113,0.166-0.094,0.198
	c0.014,0.032,0.07,0.089,0.116,0.108c0.026,0.057,0,0.125-0.017,0.156c-0.096,0.174-0.033,0.313-0.012,0.303
	c0.022-0.012,0.037,0.035,0.09,0.06c0.05,0.027,0.006,0.179,0.006,0.179s-0.09,0.051-0.113,0.09
	c-0.021,0.041-0.057,0.154-0.066,0.22c-0.011,0.062-0.096,0.088-0.112,0.11c-0.018,0.02-0.06,0.076-0.065,0.115
	c-0.007,0.04-0.039,0.066-0.073,0.074c-0.033,0.005-0.065-0.025-0.116,0.041c-0.051,0.07-0.11,0.129-0.11,0.23
	c0,0.101,0,0.004,0.048-0.056c0.05-0.063,0.073-0.112,0.146-0.139c0.073-0.029,0.078-0.037,0.1,0.003
	c0.023,0.04,0.033,0.102,0.046,0.126c0.009,0.021,0.072,0.056,0.057,0.106c-0.019,0.047-0.103,0.099-0.146,0.17
	c-0.044,0.072-0.079,0.283-0.085,0.412c-0.004,0.125-0.031,0.338-0.016,0.379c0.015,0.039,0.049,0.107,0.122,0.154
	c0.074,0.051,0.183,0.096,0.1,0.022c-0.083-0.069-0.09-0.116-0.095-0.138c-0.005-0.023-0.05-0.017-0.058-0.041
	c-0.003-0.021-0.025-0.06,0.019-0.183c0.044-0.124,0.072-0.225,0.122-0.247c0.052-0.021,0.107,0.079,0.107,0.079
	s0,0.034-0.063,0.044c-0.059,0.014-0.065,0.111-0.059,0.135c0.002,0.024,0.044,0.073,0.065,0.092
	c0.021,0.014-0.007,0.023,0.021,0.076c0.029,0.051,0.062,0.028,0.091,0.088c0.026,0.063,0.017,0.151,0.044,0.156
	c0.026,0.008,0.084,0.012,0.084,0.012s0.015,0.055,0.054,0.072c0.04,0.018,0.089,0.034,0.112,0.038
	c0.023,0.007,0.072,0.007,0.101-0.03c0.029-0.039,0.161-0.029,0.134-0.08c-0.028-0.049-0.063-0.127-0.012-0.135
	c0.051-0.006,0.072,0.073,0.105,0.077c0.034,0.009,0.068-0.038,0.073-0.077c0.006-0.037,0.094,0.051,0.085,0.086
	c-0.015,0.032,0,0.129,0.009,0.159c0.013,0.033,0.045,0.022,0.124,0.019c0.076-0.004,0.051-0.074,0.112,0.045
	c0.061,0.119-0.013,0.189,0.009,0.217c0.023,0.029-0.009,0.111,0.068,0.117c0.078,0.004,0.217,0.021,0.296,0.012
	c0.077-0.012,0.134,0.027,0.134,0.055c0,0.029,0.017,0.062,0.044,0.08c0.026,0.016,0.023,0.049,0.023,0.092
	c0,0.047,0.009,0.062,0.063,0.054c0.059-0.013,0.146,0.015,0.146,0.015s0.084,0.057,0.124,0.044c0.037-0.01,0.032-0.004,0.037-0.039
	c0.007-0.03,0.118-0.049,0.118-0.049s0.044-0.045,0.09-0.022c0.043,0.022,0.14,0.035,0.199,0.008
	c0.063-0.029,0.019,0.039,0.052,0.063c0.032,0.029,0.086,0.064,0.134,0.085c0.045,0.021,0.066,0,0.098,0.038
	c0.037,0.04,0.096,0.121,0.131,0.091c0.033-0.033,0.137-0.156,0.177-0.226c0.04-0.063,0.04-0.101,0.056-0.188
	c0.017-0.09,0.063-0.027,0.069-0.071c0.005-0.046-0.019-0.084-0.019-0.106c0-0.02-0.043-0.123-0.018-0.146
	c0.029-0.03,0.086-0.064,0.113-0.098c0.026-0.031,0.038-0.021,0.026-0.123c-0.011-0.103-0.011-0.111-0.026-0.15
	c-0.019-0.037,0.048-0.145,0.048-0.145s0.059,0.021,0.096,0.032c0.041,0.013,0.102,0.095,0.102,0.095s0.045,0.057,0.076,0.021
	c0.035-0.032,0.063-0.089,0.104-0.1c0.047-0.013,0.025,0.032,0.091,0.032c0.067,0,0.123,0.052,0.151,0.034
	c0.025-0.018,0.09-0.089,0.107-0.129c0.015-0.039,0.042-0.12,0.077-0.139c0.032-0.018,0.078,0.043,0.109,0.019
	c0.035-0.028,0.058-0.052,0.03-0.092c-0.03-0.039-0.04-0.021-0.03-0.067c0.013-0.044,0.038-0.08,0.064-0.061
	c0.06,0.029,0.015,0.176,0.026,0.234c0.012,0.062,0.122,0.479,0.167,0.598c0.046,0.115,0.101,0.32,0.118,0.377
	c0.01,0.066,0.069,0.402,0.115,0.523c0.045,0.125,0.13,0.308,0.213,0.381c0.082,0.071,0.306,0.263,0.361,0.285
	c0.071,0.012,0.229,0.055,0.313-0.007c0.083-0.063,0.16-0.135,0.178-0.108c0.024,0.022,0.007,0.176,0.027,0.281
	c0.024,0.104,0.039,0.268,0.085,0.327C17.76,56.169,17.76,56.2,17.715,56.2s-0.259,0.052-0.346,0.116
	c-0.106,0.021-0.163,0.021-0.225,0.063c-0.085,0.036-0.268,0.06-0.282,0.081c-0.018,0.021-0.058,0.079-0.058,0.079
	c-0.068,0.022-0.137,0.05-0.149,0.089c-0.018,0.102-0.097,0.053-0.146,0.094c-0.051,0.045-0.038,0.063-0.034,0.084
	c-0.044,0.049-0.084,0.041-0.117,0.103c-0.032,0.059-0.104,0.139-0.151,0.178c-0.047,0.052-0.088,0.16-0.155,0.224
	c-0.049,0.088-0.104,0.102-0.128,0.166c-0.024,0.067-0.109,0.19-0.128,0.229c-0.016,0.045-0.052,0.134-0.052,0.134
	c-0.026,0.019-0.058,0.097-0.076,0.106c-0.018,0.012-0.056,0.017-0.08,0.035c0,0-0.371,0.088-0.584,0.16
	c-0.211,0.073-0.691,0.373-0.853,0.465c-0.161,0.086-0.596,0.34-0.713,0.354c-0.116,0.017-0.589,0.267-0.746,0.347
	c-0.158,0.077-0.781,0.463-0.927,0.518c-0.205,0.076-0.389,0.23-0.46,0.307c-0.074,0.079-0.103,0.219-0.108,0.25
	c-0.005,0.035,0.04,0.141,0.016,0.178c-0.068,0.123-0.264,0.347-0.316,0.416c-0.093,0.121-0.399,0.455-0.563,0.603
	c-0.161,0.144-0.469,0.479-0.558,0.553c-0.231,0.21-0.6,0.61-0.68,0.695C9.018,62.908,8.7,63.323,8.595,63.46
	c-0.173,0.217-0.423,0.608-0.52,0.863c-0.111,0.297-0.177,0.601-0.215,0.712c-0.04,0.109-0.1,0.27-0.1,0.494
	c0,0.224,0.021,0.396-0.038,0.541c-0.063,0.144-0.202,0.441-0.25,0.546c-0.054,0.106-0.248,0.547-0.363,0.67
	c-0.119,0.123-0.356,0.412-0.44,0.578c-0.085,0.168-0.273,0.548-0.317,0.763c-0.044,0.217-0.074,0.412-0.111,0.548
	C6.2,69.309,6.022,69.723,5.972,69.82c-0.051,0.104-0.172,0.631-0.194,0.807c-0.023,0.17-0.063,0.561-0.116,0.66
	c-0.08,0.1-0.359,0.201-0.464,0.246c-0.102,0.012-0.165,0.057-0.291,0.162c-0.2,0.104-0.227,0.111-0.283,0.315
	c-0.058,0.207-0.053,0.368-0.096,0.56c-0.044,0.188-0.166,0.705-0.195,0.777c-0.027,0.073-0.039,0.207-0.044,0.397
	c-0.006,0.19-0.006,0.356,0.056,0.462c0.061,0.105,0.033,0.079,0.134,0.118c0.103,0.039,0.078,0.127,0.082,0.159
	c0.006,0.035,0.081,0.298,0.196,0.38c0.045,0.034,0.072,0.063,0.138,0.051c0.041,0.065,0.13,0.211,0.304,0.24
	c0.14,0.005,0.167,0.005,0.222,0.096c0.09,0.056,0.18,0.108,0.373,0.056c0.156-0.063,0.267-0.097,0.309-0.084
	c0.011,0.055,0.051,0.278,0.14,0.365c0.111,0.113,0.197,0.079,0.266,0.023c0.065-0.057,0.206-0.213,0.308-0.317
	c0.1-0.106,0.427-0.463,0.445-0.496c0.018-0.032,0.012-0.08,0.022-0.127c0.01-0.052,0.038-0.062,0.11-0.084
	c0.072-0.024,0.167-0.163,0.235-0.239c0.066-0.078,0.439-0.63,0.484-0.693c0.045-0.06,0.251-0.432,0.283-0.473
	c0.034-0.035,0.38-0.427,0.408-0.479c0.027-0.049,0.239-0.528,0.273-0.77c0.032-0.238,0.105-0.824,0.102-0.886
	c0.017-0.063,0.07-0.077,0.158-0.124c0.09-0.042,0.334-0.128,0.436-0.173c0.101-0.045,0.497-0.235,0.665-0.381
	c0.167-0.136,0.489-0.427,0.546-0.511c0.057-0.082,0.222-0.422,0.272-0.686c0.052-0.264,0.137-0.592,0.321-0.842
	c0.184-0.252,0.463-0.652,0.542-0.725c0.077-0.073,0.396-0.383,0.44-0.508c0.039,0.057,0.033,0.129,0.043,0.174
	c0.04,0.197,0.187,0.494,0.219,0.59c0.083,0.15,0.023,0.363-0.055,0.607c-0.076,0.245-0.174,0.633-0.222,0.858
	c-0.052,0.228-0.182,0.774-0.196,0.887c-0.018,0.111-0.055,0.612-0.066,0.636c-0.059,0.045-0.086,0.149-0.102,0.22
	c-0.017,0.077-0.004,0.2-0.025,0.336c-0.025,0.144-0.063,0.647-0.074,0.743c-0.011,0.094-0.018,0.572-0.041,0.656
	c-0.021,0.082-0.099,0.629-0.121,0.704c-0.023,0.069-0.122,0.466-0.158,0.578c-0.031,0.11-0.104,0.612-0.121,0.696
	c-0.016,0.083,0.021,0.329,0.056,0.457c0.056,0.099,0.094,0.223,0.174,0.302c0.066,0.049,0.076,0.146,0.149,0.138
	c0.063,0.028-0.004,0.072,0.063,0.082c0.065,0.016,0.088,0.043,0.139,0.086c0.05,0.043,0.074,0.032,0.101,0.051
	c0.028,0.02,0.094-0.022,0.11,0.026c0.051,0.095,0.096,0.128,0.146,0.15c0.022,0.069-0.05,0.563-0.079,0.719
	c-0.056,0.199-0.232,1.063-0.25,1.166s-0.172,0.769-0.189,0.869c-0.018,0.099-0.129,0.612-0.154,0.741
	c-0.029,0.128-0.225,0.927-0.246,0.976c-0.022,0.05-0.111,0.457-0.139,0.568c-0.029,0.11-0.157,0.614-0.185,0.7
	c-0.026,0.09-0.186,0.644-0.217,0.769c-0.034,0.129-0.134,0.426-0.19,0.651c-0.057,0.23-0.151,0.55-0.177,0.599
	c-0.058,0.111-0.081,0.284-0.081,0.386c-0.048,0.1-0.122,0.219-0.114,0.295c-0.035,0.141-0.139,0.51-0.17,0.563
	c-0.025,0.066-0.049,0.139-0.01,0.178c0.028,0.045,0.028,0.221,0.044,0.262c0.019,0.045,0.186,0.313,0.229,0.363
	c0.038,0.085,0.29,0.623,0.336,0.652c0.044,0.027,0.104,0.082,0.109,0.127c0.006,0.096,0.224,0.229,0.38,0.346
	c0.195,0.083,0.285,0.096,0.442,0.107c0.11,0.045,0.178,0.129,0.329,0.131c0.148,0.008,0.32,0.085,0.411,0.085
	c0.09,0,0.335,0.069,0.428,0.079c0.094,0.012,0.341,0.096,0.436,0.115c0.095,0.024,0.407,0.129,0.47,0.146
	c0.059,0.019,0.271,0.128,0.311,0.133c0.039,0.009,0.067,0.082,0.067,0.124c0.072,0.032,0.168,0.123,0.224,0.135
	c0.054,0.012,0.126,0.073,0.122,0.133c0.056,0.074,0.022,0.16,0.022,0.195c-0.022,0.065,0.083,0.133,0.149,0.186
	c0.067,0.049,0.229,0.205,0.308,0.236c0.076,0.037,0.234,0.141,0.234,0.141c0.01,0.105,0.221,0.908,0.249,1.004
	c0.028,0.096,0.303,0.811,0.34,0.908c0.039,0.102,0.289,0.67,0.369,0.843c0.077,0.17,0.312,0.622,0.312,0.622
	c0.023,0.068,0.006,0.252,0.033,0.334c0.027,0.086,0.051,0.246,0.096,0.304c0.045,0.054,0.155,0.239,0.162,0.281
	c-0.007,0.074-0.072,0.149-0.085,0.19c-0.011,0.041-0.022,0.287-0.028,0.322c-0.004,0.037-0.004,0.182,0.101,0.362
	c0.101,0.095,0.157,0.248,0.261,0.362c0.063,0.043,0.108,0.13,0.108,0.166c0,0.039,0.06,0.226,0.133,0.258
	c0.056,0.063,0.021,0.115,0.063,0.168c0.037,0.05-0.017,0.111-0.017,0.165c0,0.058-0.024,0.153,0.044,0.192
	c0.062,0.037,0.045,0.103,0.016,0.103c-0.027,0-0.21,0.021-0.244,0.091c0,0.096-0.148,0.118-0.186,0.135
	c-0.032,0.018-0.231-0.033-0.237,0.073c-0.007,0.104,0,0.194,0.006,0.217c0.026,0.037,0.05,0.017,0.142,0.017
	c0.074,0.041,0.008,0.099-0.002,0.133c-0.035,0.047-0.323,0.286-0.341,0.297c-0.018,0.033,0,0.088-0.023,0.105
	c-0.022,0.015-0.006,0.08,0.033,0.059c0.039-0.014,0.391-0.298,0.391-0.298c0.069-0.013,0.062,0.05,0.032,0.079
	c-0.026,0.027-0.099,0.111-0.115,0.175c-0.03,0.075-0.163,0.304-0.242,0.376c-0.075,0.072-0.254,0.293-0.338,0.451
	c-0.085,0.154-0.206,0.344-0.225,0.502c-0.015,0.156-0.031,0.244-0.01,0.283c0.016,0.059-0.039,0.168-0.101,0.24
	c-0.005,0.133-0.042,0.372-0.05,0.402c-0.011,0.023-0.023,0.057,0.057,0.084c0.078,0.021,0.183,0.025,0.328,0.039
	c0.143,0.021,1.092,0.072,1.204,0.081c0.11,0.01,0.773,0.026,0.887,0.026c0.111,0,0.624,0.004,0.873-0.004
	c0.25-0.014,0.57,0,0.669-0.063c0.066-0.078,0.183-0.184,0.189-0.25c0.006-0.068-0.007-0.283-0.028-0.367s-0.051-0.133-0.038-0.197
	c0.012-0.06,0.052-0.127,0.096-0.106c0.045,0.024,0.184-0.086,0.317-0.17c0.133-0.084,0.351-0.222,0.44-0.365
	c0.033-0.058,0.051-0.317,0.044-0.447c-0.006-0.131,0.016-0.401,0-0.473c-0.017-0.065-0.062-0.104-0.057-0.138
	c0.006-0.032,0.079-0.313,0.079-0.373c0-0.062,0-0.291-0.073-0.489c-0.073-0.202-0.149-0.425-0.155-0.49
	c-0.005-0.067-0.096-0.223-0.096-0.307s0.013-0.386-0.011-0.453c-0.021-0.065-0.073-0.065-0.073-0.065
	c0.018-0.078,0.102-0.179,0.107-0.341c0.006-0.159,0.049-0.276,0.006-0.36c-0.047-0.084-0.084-0.058-0.09-0.123
	c-0.006-0.066,0.028-0.125-0.045-0.246c-0.072-0.119-0.163-0.256-0.183-0.357c-0.022-0.098,0-0.266-0.053-0.365
	c-0.048-0.104-0.261-0.352-0.312-0.402c-0.049-0.049-0.229-0.155-0.229-0.155c-0.004-0.033-0.059-0.125-0.055-0.183
	c0.008-0.055-0.028-0.203-0.044-0.268c-0.018-0.068-0.039-0.068-0.063-0.141c-0.022-0.072-0.049-0.129-0.049-0.258
	s0.017-0.607,0.012-0.734c-0.006-0.129-0.021-0.361-0.067-0.539c-0.046-0.18-0.146-0.486-0.168-0.553
	c-0.021-0.067-0.094-0.424-0.094-0.424c0.028-0.023,0.078-0.028,0.15-0.028c0.071,0,0.841-0.019,0.918-0.019
	c0.081,0,0.731-0.021,0.849-0.021c0.115,0,1.066-0.018,1.066-0.018c0.032,0.008,0.203,0.137,0.281,0.176
	c0.079,0.037,0.408,0.146,0.47,0.156c0.062,0.004,0.479,0.021,0.479,0.021c0.046,0.035,0.136,0.11,0.136,0.207
	c0.025,0.087,0.044,0.16,0.07,0.196c0.028,0.074,0.067,0.259,0.079,0.421c0.011,0.161-0.021,0.396,0.11,0.696
	c0.096,0.312,0.083,0.299,0.072,0.392c-0.011,0.088-0.066,0.34-0.079,0.469c-0.01,0.127-0.031,0.531-0.013,0.752
	c0.013,0.218,0.087,0.763,0.087,0.816c0,0.057,0.028,0.252,0.046,0.403c0.016,0.149,0.083,0.406,0.099,0.5
	c0.018,0.094,0.086,0.289,0.158,0.392c0.072,0.102,0.212,0.249,0.457,0.315c0.245,0.068,0.594,0.096,0.673,0.088
	c0.077-0.002,0.613-0.051,0.946-0.182c0.335-0.127,0.652-0.279,0.81-0.494c0.156-0.221,0.347-0.588,0.408-0.85
	c0.076-0.268,0.187-0.838,0.215-1.092c0.026-0.258,0.042-0.662,0.036-0.844c-0.01-0.179-0.064-0.567-0.084-0.729
	c-0.024-0.163-0.106-0.439-0.123-0.523c-0.018-0.086-0.137-0.563-0.146-0.625c-0.009-0.064-0.09-0.512-0.111-0.595
	c-0.023-0.082-0.052-0.453-0.039-0.491c0.013-0.037,0.039-0.061,0.065-0.098c0.005-0.068-0.037-0.53-0.037-0.609
	c0-0.078-0.035-0.47-0.016-0.492c0.016-0.021,0.142-0.16,0.165-0.185c0.021-0.022,0.033-0.272,0.039-0.391
	c0.006-0.116,0.062-0.773,0.057-0.912c-0.007-0.142,0.022-0.735,0.005-0.927c-0.017-0.189-0.101-0.549-0.079-0.567
	c0.029-0.021,0.214-0.013,0.347-0.031c0.134-0.022,0.563-0.097,0.686-0.097c0.122,0,0.604-0.042,0.687-0.063
	c0.084-0.018,0.501-0.05,0.624-0.06c0.122-0.013,0.302-0.008,0.355-0.129c0.095-0.073,0.241-0.123,0.307-0.183
	c0.068-0.058,0.223-0.136,0.285-0.187c0.06-0.049,0.268-0.194,0.288-0.291c0.011-0.11-0.044-0.481-0.059-0.627
	c-0.019-0.146-0.108-0.741-0.124-0.842c-0.02-0.103-0.13-0.765-0.134-0.826c-0.006-0.062-0.126-0.908-0.163-1.037
	c-0.031-0.127-0.121-0.435-0.133-0.612c-0.013-0.181-0.117-0.746-0.173-0.972c-0.028-0.11-0.157-0.577-0.23-0.739
	c-0.068-0.162-0.293-0.857-0.343-0.986c-0.048-0.127-0.223-0.596-0.186-0.629c0.039-0.032,0.248-0.146,0.342-0.178
	c0.093-0.033,0.479-0.23,0.596-0.296c0.116-0.067,0.603-0.362,0.72-0.469c0.115-0.104,0.329-0.252,0.339-0.281
	c-0.044-0.104-0.685-1.233-0.791-1.475c-0.104-0.24-0.58-1.114-0.652-1.261c-0.073-0.146-0.274-0.664-0.378-0.83
	s-0.268-0.487-0.285-0.563c-0.015-0.07-0.257-0.664-0.324-0.808c-0.065-0.146-0.213-0.909-0.233-0.992
	c-0.021-0.084-0.194-0.802-0.194-0.949c0-0.144,0.006-0.205,0.049-0.183c0.043,0.023,0.263,0.218,0.402,0.257
	c0.139,0.039,0.329,0.103,0.419,0.178c0.139,0.072,0.271,0.168,0.435,0.269c0.159,0.102,0.507,0.303,0.896,0.42
	c0.234,0.07,0.245,0.103,0.324,0.137c0.115,0.008,0.409,0.111,0.567,0.129c0.155,0.018,0.452,0.066,0.63,0.08
	c0.178,0.01,0.751,0.071,0.904,0.094c0.148,0.022,0.383,0.051,0.417,0.105c0.032,0.057,0.044,0.205,0.121,0.324
	c0.096,0.154,0.168,0.173,0.269,0.201c0.057,0.043,0.071,0.094,0.168,0.082c0.088,0.006,0.121,0.029,0.163,0.039
	c0.044,0.006,0.098-0.018,0.136-0.007c0.039,0.013,0.103,0.125,0.19,0.211c0.09,0.091,0.292,0.29,0.317,0.343
	c0.027,0.084,0.041,0.17,0.114,0.155c0.084,0.015,0.182,0.07,0.268,0.021c0.081-0.049,0.087-0.098,0.122-0.129
	c0.049-0.01,0.166,0.056,0.232,0.111c0.067,0.057,0.173,0.164,0.286,0.225c0.11,0.061,0.32,0.185,0.354,0.209
	c0.034,0.029,0.089,0.037,0.162,0.097c0.073,0.063,0.272,0.233,0.328,0.239c0.062,0.005,0.14-0.036,0.189-0.032
	c0.051,0.006,0.095,0.026,0.151,0.099c0.056,0.077,0.066,0.163,0.457,0.153c0.277,0,0.469,0.045,0.623-0.158
	c0.157-0.196,0.247-0.366,0.272-0.487c0.04-0.101,0.119-0.164,0.113-0.19c-0.005-0.028-0.045-0.056-0.073-0.111
	c-0.027-0.054,0.04-0.05,0.062-0.151c0.021-0.101,0.018-0.146-0.027-0.146c-0.029-0.034,0.006,0.005,0.006-0.079
	c0.081,0.008,0.398-0.015,0.601-0.076c0.203-0.061,0.62-0.183,0.71-0.223c0.088-0.039,0.223-0.089,0.331-0.352
	c0.123-0.162,0.236-0.248,0.299-0.346c0.061-0.097,0.098-0.173,0.098-0.201c0.035-0.033,0.114-0.033,0.164-0.082
	c0.05-0.051,0.216-0.283,0.272-0.336c0.057-0.047,0.122-0.082,0.205-0.199c0.084-0.117,0.206-0.329,0.252-0.383
	c0.043-0.059,0.163-0.235,0.194-0.306c0.034-0.063,0.146-0.104,0.219-0.178c0.072-0.071,0.21-0.205,0.244-0.257
	c0.034-0.049,0.35-0.366,0.373-0.412c0.022-0.045,0.151-0.145,0.155-0.21c0.018-0.062,0.074-0.019,0.074,0.012
	c0,0.027,0.045,0.14,0.071,0.228c0.03,0.09,0.063,0.279,0.063,0.373c0,0.098,0.032,0.444,0.044,0.508
	c0.006,0.102,0.021,0.511,0.021,0.548c-0.007,0.116-0.016,0.284-0.016,0.284c-0.029,0.014-0.106,0.027-0.083,0.049
	c0.021,0.02,0.033,0.066,0.035,0.099c-0.015,0.054-0.059,0.058-0.042,0.093c0.017,0.031,0,0.133-0.006,0.178
	c-0.007,0.045-0.039,0.154-0.044,0.207c-0.007,0.05-0.057,0.281-0.105,0.344c-0.052,0.064-0.135,0.148-0.157,0.163
	c0.011,0.032,0.044,0.071,0.032,0.121c-0.01,0.053-0.049,0.171-0.076,0.188c-0.029,0.023-0.038,0.063,0.009,0.067
	c0.023,0.054-0.009,0.237-0.009,0.339c0,0.105-0.018,0.309-0.023,0.357c-0.006,0.05-0.063,0.402-0.066,0.447
	c-0.006,0.045-0.028,0.31-0.045,0.36c-0.018,0.065-0.043,0.457-0.043,0.528c0,0.074-0.041,0.133-0.051,0.225
	c-0.013,0.089,0,0.439-0.008,0.466c-0.015,0.065-0.077,0.169-0.081,0.382c-0.007,0.213,0.02,0.409,0.02,0.444
	c-0.009,0.058-0.05,0.242-0.05,0.336c0,0.095,0.018,0.25,0.063,0.326c0.018,0.104-0.013,0.192-0.039,0.262
	c-0.026,0.074-0.078,0.304-0.104,0.585c-0.018,0.186-0.051,0.331-0.051,0.331c-0.052,0.117-0.063,0.328-0.081,0.439
	c-0.015,0.114-0.07,0.561-0.088,0.598c-0.017,0.058-0.072,0.379-0.041,0.472c0.037,0.09,0.077,0.248,0.077,0.248
	c-0.019,0.031-0.091,0.104-0.07,0.149c0.03,0.069,0.034,0.194,0.034,0.267c0,0.086-0.041,0.185-0.055,0.213
	c-0.018,0.027-0.023,0.1-0.055,0.133c-0.037-0.006-0.068,0.051-0.024,0.084s-0.022,0.238-0.039,0.375
	c-0.015,0.133-0.071,0.753-0.071,0.824c-0.012,0.084-0.044,0.166-0.044,0.217s0.064,0.072,0.088,0.096
	c0.022,0.049,0,0.15-0.019,0.193c-0.01,0.067-0.018,0.586-0.021,0.658c-0.005,0.071-0.056,0.784-0.063,0.842
	c-0.005,0.058-0.031,0.483-0.041,0.576c-0.015,0.088-0.053,0.354-0.062,0.512c-0.013,0.154-0.019,0.828-0.019,0.869
	c0,0.039-0.007,0.262,0.012,0.365c-0.012,0.068-0.028,0.354-0.012,0.465c0.022,0.084,0.006,0.16,0,0.205
	c-0.007,0.047-0.026,0.146-0.039,0.207c-0.01,0.063-0.01,0.354-0.01,0.424c0,0.064-0.026,0.205,0.049,0.355
	c0.08,0.148,0.151,0.446,0.162,0.514c0.022,0.096,0.145,0.36,0.345,0.641c0.101,0.115,0.484,0.635,0.573,0.675
	c0.058,0.034,0.023,0.106,0.023,0.178c0,0.073,0,0.647,0.044,0.785c0.046,0.142,0.102,0.47,0.102,0.563
	c0,0.093,0.045,0.398,0.122,0.519c0.051,0.134,0.084,0.222,0.141,0.302c0.054,0.076,0.161,0.207,0.268,0.289
	c0.104,0.083,0.484,0.391,0.513,0.412c0.029,0.021,0.115,0.063,0.115,0.16c0.041,0.129,0.111,0.297,0.119,0.368
	c0.005,0.071,0.083,0.321,0.145,0.421c0.06,0.098,0.156,0.266,0.2,0.359c0.045,0.098,0.166,0.242,0.212,0.278
	c0.021,0.063-0.016,0.19-0.016,0.23c0,0.036-0.007,0.192-0.019,0.247c-0.022,0.063-0.133,0.353-0.145,0.437
	c-0.012,0.084-0.067,0.509-0.095,0.613c-0.028,0.108-0.205,0.713-0.228,0.752c-0.024,0.041-0.235,0.596-0.252,0.666
	c-0.018,0.063-0.167,0.437-0.19,0.685c-0.021,0.246-0.043,0.451-0.021,0.572s0.056,0.446,0.09,0.572
	c0.072,0.279,0.18,0.499,0.288,0.656c0.119,0.177,0.335,0.324,0.475,0.397c0.14,0.074,0.407,0.179,0.545,0.195
	c0.141,0.015,0.648,0.063,0.676,0.063c0.029,0,0.73,0.025,0.969-0.049c0.241-0.07,0.575-0.242,0.671-0.334
	c0.093-0.088,0.256-0.266,0.317-0.383c0.056-0.066,0.188-0.313,0.206-0.385c0.015-0.071,0.068-0.307,0.076-0.418
	c0.012-0.113,0.029-0.525,0.023-0.59c-0.005-0.066-0.089-0.531-0.085-0.554c0-0.032-0.015-0.12-0.032-0.174
	c-0.017-0.049,0.028-0.364,0.032-0.444c0.007-0.076,0.136-0.852,0.136-0.908c0-0.055,0.122-0.808,0.133-0.937
	c0.012-0.129,0.062-0.519,0.073-0.567c0.012-0.052,0.078-0.483,0.072-0.554c0-0.071,0.006-0.155-0.022-0.204
	c-0.011-0.058-0.022-0.051,0.05-0.072c0.071-0.023,0.234-0.105,0.313-0.154c0.077-0.051,0.213-0.124,0.29-0.235
	c0.078-0.114,0.213-0.267,0.256-0.291c0.047-0.022,0.11-0.095,0.121-0.192c0.014-0.103,0.042-0.297,0.042-0.297
	c-0.018-0.047-0.012-0.146,0.015-0.207c0.029-0.061,0.029-0.188,0.052-0.246c0.021-0.053,0.166-0.354,0.16-0.411
	c-0.006-0.054-0.065-0.228-0.144-0.355c-0.039-0.149-0.125-0.194-0.173-0.25c-0.05-0.059-0.212-0.272-0.212-0.272
	c-0.027-0.066-0.008-0.24,0.007-0.301c0.009-0.064,0.065-0.443,0.071-0.476c0.005-0.033,0.206-0.408,0.238-0.476
	c0.035-0.065,0.186-0.373,0.206-0.428c0.022-0.057,0.034-0.313,0.047-0.416c0.013-0.106,0.015-0.326,0.015-0.354
	c0.024,0.012,0.066,0.123,0.107,0.225c0.038,0.063,0.105,0.244,0.114,0.276c0.015,0.034,0.053,0.168,0.058,0.286
	c0.006,0.115,0.026,0.441,0.026,0.521c0,0.078-0.037,0.186,0.082,0.362c0.114,0.178,0.147,0.31,0.154,0.447
	c0.011,0.145,0.106,0.409,0.122,0.485c0.018,0.069,0.208,0.627,0.261,0.76c0.058,0.138,0.166,0.388,0.179,0.406
	c0.035,0.049,0.129,0.195,0.129,0.195c-0.005,0.049-0.011,0.152-0.032,0.191c-0.023,0.041-0.046,0.166-0.046,0.205
	c0.03,0.063,0.034,0.139,0,0.178c-0.032,0.041-0.161,0.275-0.188,0.316c-0.028,0.047-0.154,0.213-0.16,0.27
	c-0.008,0.063,0.188,0.266,0.21,0.291s0.252,0.256,0.252,0.256c0.026-0.006,0.11,0.025,0.116,0.057
	c0.005,0.029,0.134,0.183,0.15,0.211c0.016,0.027,0.123,0.172,0.162,0.207c0.036,0.031,0.032,0.172,0.07,0.233
	c0.037,0.062,0.277,0.14,0.345,0.14s0.202,0.006,0.271,0.021c0.088-0.016,0.219-0.051,0.271-0.135c0.057-0.084,0.078-0.039,0.09,0
	s0.028,0.246,0.02,0.297c-0.016,0.047-0.016,0.406-0.008,0.453c0.018,0.055,0.018,0.236,0.045,0.264
	c0.031,0.039,0.045,0.129-0.027,0.22c-0.063,0.089-0.137,0.276-0.105,0.556c0.018,0.146,0.105,0.67,0.115,0.765
	c0.023,0.104,0.014,0.229,0.151,0.397c0.14,0.168,0.362,0.375,0.458,0.427c0.078,0.006,0.021,0.021,0.122,0.077
	c0.101,0.063,0.141,0.101,0.184,0.101c0.05,0.017,0.022,0.047,0.078,0.08c0.054,0.03,0.083,0.071,0.173,0.03
	c0.088-0.038,0.219-0.125,0.251-0.146c0.044-0.021,0.091,0.026,0.146,0.083c0.057,0.056,0.281,0.285,0.318,0.345
	c0.031,0.063,0.283,0.53,0.299,0.58c0.02,0.051,0.196,0.497,0.306,0.625c0.214,0.243,0.438,0.334,0.627,0.379
	c0.19,0.043,0.239,0.07,0.295,0.062c0.073,0,0.185,0.062,0.249,0.065c0.068,0.006,0.12-0.021,0.158,0
	c0.039,0.022,0.025,0.055,0.148,0.055c0.122,0,0.258,0.018,0.279-0.002c0.021-0.029,0.055-0.047,0.105-0.008
	c0.067,0.022,0.229,0.008,0.285,0c0.053-0.004,0.237-0.029,0.366-0.049c0.128-0.025,0.585-0.146,0.755-0.207
	c0.164-0.063,0.738-0.32,0.896-0.436c0.153-0.116,0.396-0.3,0.411-0.418c0.018-0.116,0.018-0.352,0-0.475
	c-0.018-0.121-0.073-0.412-0.104-0.479c-0.036-0.068-0.146-0.257-0.213-0.334c-0.067-0.079-0.207-0.212-0.284-0.239
	c-0.05-0.073-0.186-0.309-0.283-0.43c-0.194-0.224-0.354-0.386-0.435-0.465c-0.078-0.074-0.368-0.36-0.401-0.402
	c-0.035-0.047-0.023-0.108-0.013-0.136c0.013-0.04-0.062-0.051-0.093-0.071c-0.029-0.043-0.018-0.073-0.113-0.084
	c-0.061-0.045-0.221-0.19-0.221-0.218s-0.118-0.105-0.118-0.134c0-0.029-0.034-0.074,0.007-0.123c0.031-0.06,0.025-0.195,0.01-0.234
	c-0.017-0.037-0.089-0.2-0.113-0.239c-0.021-0.039-0.098-0.214-0.108-0.244c-0.022-0.045-0.056-0.063-0.123-0.072
	c-0.067-0.012-0.212-0.027-0.244-0.078c-0.034-0.05-0.085-0.021,0-0.117c0.081-0.096,0.149-0.172,0.165-0.207
	c0.02-0.031,0.02-0.294,0.006-0.39c-0.012-0.095-0.054-0.351-0.054-0.351c-0.006-0.072-0.006-0.537,0-0.574
	c0.006-0.039,0.065-0.268,0.069-0.357c0.008-0.089,0.02-0.41,0.029-0.494c0.017-0.086,0.166-0.168,0.207-0.189
	c0.037-0.022,0.28-0.2,0.321-0.342c0.042-0.138,0.103-0.428,0.117-0.551c0.017-0.121,0.101-0.469,0.112-0.558
	c0.018-0.196-0.006-0.444-0.006-0.667c-0.006-0.123,0.026-0.502,0.032-0.586c0.007-0.086,0.011-0.437,0.046-0.512
	c0.018-0.097,0.045-0.521,0.045-0.556c0-0.03,0.004-0.255-0.019-0.418c-0.005-0.081,0.067-0.562,0.093-0.647
	c0.029-0.082,0.092-0.537,0.092-0.586c0-0.054-0.006-0.543-0.006-0.543c0-0.062-0.089-0.425-0.089-0.463
	c0-0.037,0.017-0.199-0.022-0.326c-0.039-0.131-0.027-0.447-0.039-0.506c-0.01-0.064-0.094-0.382-0.116-0.455
	c-0.022-0.071-0.067-0.232-0.173-0.328c-0.108-0.098-0.268-0.166-0.33-0.2c-0.059-0.032-0.295-0.146-0.35-0.222
	c-0.058-0.08-0.392-0.5-0.457-0.574c-0.066-0.078-0.406-0.465-0.449-0.479c-0.068-0.012-0.051-0.207-0.047-0.375
	c0.006-0.166-0.051-0.317-0.028-0.413c0.024-0.094,0.084-0.222,0.13-0.289c0.042-0.066,0.07-0.223,0.093-0.25
	c0.035-0.029,0.077,0.006,0.103-0.056c0.021-0.063-0.02-0.138,0.006-0.213c0.02-0.076,0.076-0.396,0.1-0.519
	c0.021-0.125,0.063-0.599,0.063-0.641c0-0.045,0.017-0.281,0.006-0.307c-0.014-0.029-0.053-0.039-0.035-0.105
	s0.059-0.324,0.063-0.359c0.002-0.03,0.049-0.17,0.049-0.17c-0.006-0.028-0.047-0.078-0.039-0.112
	c0.006-0.032,0.066-0.063,0.101-0.134c0.033-0.071,0.097-0.162,0.104-0.347c0.002-0.183,0-0.366-0.025-0.452
	c-0.021-0.08-0.096-0.506-0.102-0.584c-0.004-0.078-0.047-0.396-0.104-0.619s-0.167-0.674-0.208-0.803
	c-0.039-0.128-0.183-0.674-0.198-0.74c-0.018-0.065-0.052-0.328-0.072-0.43c-0.039-0.205-0.224-0.539-0.234-0.605
	c-0.012-0.068-0.044-0.189-0.082-0.278c-0.04-0.089-0.085-0.233-0.12-0.324c-0.03-0.088-0.237-0.59-0.255-0.612
	c-0.016-0.023-0.044-0.401-0.063-0.429c-0.016-0.026-0.021-0.278-0.021-0.302c-0.013-0.027-0.046-0.081-0.067-0.146
	c-0.021-0.07-0.074-0.164-0.111-0.238c-0.027-0.076-0.057-0.188-0.105-0.244c-0.05-0.055-0.089-0.102-0.129-0.289
	c-0.037-0.193-0.132-0.408-0.172-0.452c-0.033-0.058-0.084-0.226-0.076-0.262c0.006-0.04,0.043-0.035,0.139-0.052
	c0.051-0.008,0.133-0.037,0.205-0.064c0.717,0.82,1.532,1.51,2.389,1.807c1.5,0.168,2.906-1.765,3.529-3.774
	c0.687-2.197,0.487-4.44,1.174-6.523c0.235-0.721,1.459-1.368,2.191-2.11c0.023,0.03,0.051,0.065,0.074,0.102
	c0.039-0.104,0.075-0.205,0.111-0.309c0.043-0.051,0.082-0.103,0.121-0.154c0.229-0.055,0.463-0.111,0.694-0.165
	c0.339-0.343,0.675-0.685,1.013-1.027c0.22,0.04,0.44,0.081,0.66,0.121c0.102-0.315,0.202-0.632,0.305-0.948
	c-0.021-0.545-0.037-1.094-0.06-1.641c-0.194-0.635-0.389-1.268-0.585-1.902c-0.045-0.688-0.091-1.38-0.136-2.068
	c-0.036-0.475-0.073-0.951-0.108-1.425c0.168-1.453,0.34-2.902,0.508-4.352c0.418-1.738,0.836-3.475,1.254-5.214
	c0.082,0.21-0.031,1.694-0.074,1.979c-0.053,1.258-0.104,2.515-0.154,3.771c-0.02,0.689-0.041,1.378-0.063,2.07
	c0.149,0.632,0.299,1.267,0.445,1.899c0.041,0.373,0.082,0.746,0.123,1.122v1.991c0.154,0.612,0.309,1.226,0.461,1.84
	c0.144,0.753,0.284,1.513,0.43,2.271c0.152,1.092,0.308,2.186,0.459,3.279c-0.068,2.025-0.133,4.057-0.198,6.083
	c0.212,1.81,0.429,3.619,0.644,5.429c-0.02,2.953-0.041,5.908-0.061,8.86c0.148,1.552,0.294,3.107,0.443,4.659
	c0.412,1.982,0.828,3.966,1.24,5.95c0.178,0.709-0.203,1.526-0.076,2.344c0.018,0.492,0.031,0.979,0.047,1.472
	c0.154,0.682,0.306,1.359,0.459,2.039c0.16,0.84-0.231,2.024,0.107,2.682c0.092,0.117,0.436,0.035,0.614,0.063
	c0.562,0.027,1.122,0.053,1.685,0.076c0.859,0.139,1.733,0.055,2.424-0.121c0.377-0.088,0.754-0.175,1.134-0.262
	c0.317,0.197,0.635,0.4,0.95,0.598c0.396,0.121,0.938,0.006,1.334,0c-0.021-0.044-0.039-0.091-0.063-0.138v-0.015
	c1.043-0.108,2.085-0.215,3.128-0.321c0.041-0.286,0.083-0.573,0.123-0.859c-0.134-0.383-0.267-0.767-0.399-1.149
	c-0.144-0.571-0.285-1.143-0.429-1.715c-0.032-1.061-0.061-2.117-0.093-3.175c-0.009-0.808-0.021-1.612-0.029-2.423
	c0.161-0.523,0.326-1.053,0.489-1.578c0.347-1.221,0.694-2.443,1.043-3.664c0.204-1.217,0.408-2.433,0.61-3.648
	c0.023-0.067,0.064-0.025,0.08-0.047c0.199-1.135,0.396-2.27,0.597-3.401c-0.032-1.327-0.06-2.656-0.092-3.987
	c0.181-1.232,0.36-2.465,0.545-3.697c-0.009-0.215-0.009-0.428,0.002-0.643c0.044-1.249,0.188-2.52,0.485-3.744
	c0.018-0.312,0.037-0.619,0.056-0.929c0.021-0.431,0.042-0.856,0.062-1.287c0.098-1.201,0.193-2.403,0.295-3.604
	c0.028-0.418,0.059-0.838,0.09-1.254c0.317-1.59,0.886-2.951,1.334-4.446c0.235-0.794,0.26-1.813,0.516-2.596
	c-0.007,0-0.014,0-0.014,0s-0.773-9.685-0.26-12.654c0.521-2.969,0.904,0.128,0.904,0.775c0,0.472,0.564,5.807,0.862,8.912
	c-0.04-0.008-0.084-0.01-0.124-0.018c0.052,0.077,0.101,0.153,0.145,0.223c0.021,0.218,0.039,0.418,0.059,0.603
	c-0.133,0.25-0.073,0.354,0.021,0.435c0.005,0.006,0.015,0.02,0.021,0.032c0.043,0.475,0.065,0.795,0.063,0.899
	c0.243,0.289,0.378,0.958,0.507,1.366c0.025,0.082,0.062,0.158,0.09,0.24c0.006-0.008,0.016-0.019,0.021-0.024
	c-0.109,0.258-0.229,0.627-0.283,1.088c-0.07,1.099,0.366,1.262,0.569,2.385c0.047,0.305,0.077,1.058,0.085,1.254
	c0.004,0.193,0.132,0.723,0.191,1.068c0.185,0.157,0.412,0.121,0.787-0.168c0.244-0.203,0.363-0.851,0.321-1.271
	c0.029-0.237-0.151-1.087-0.146-1.162c0.061-0.016,0.681-0.104,0.918-0.285c0.064,0.969,0.285,0.859,0.305,0.893
	c0.046,0.08,0.018,0.441,0.025,0.734c0.009,0.295,0.102,0.329,0.188,0.396c0.091,0.066-0.241,0.341-0.329,0.414
	c-0.084,0.072-0.466,0.253-0.578,0.339c-0.115,0.082-0.098,0.313-0.104,0.373c-0.011,0.063-0.443,0.229-0.589,0.366
	c-0.143,0.136-0.336,0.656-0.186,0.73c0.143,0.172,0.512-0.003,0.62-0.055c0.108-0.053,0.479,0.092,0.966-0.066
	c0.209-0.09,0.479-0.215,0.984-0.633c0.359-0.371,0.727-0.568,0.768-0.617c0.06-0.074,0.111-0.262,0.135-0.761
	c0.01-0.043,0.017-0.085,0.023-0.126C95.2,54.296,94.759,52.566,94.711,50.85z M78.389,69.566c-0.054,0.177-0.103,0.35-0.154,0.521
	v0.03c-0.021-0.25-0.039-0.499-0.063-0.749C78.245,69.436,78.316,69.501,78.389,69.566z M77.76,94.802v0.015
	c0.02,0.027,0.04,0.053,0.061,0.076h-0.166c0.027-0.023,0.059-0.049,0.091-0.076c-0.228-0.293-0.236-0.871-0.229-1.379
	c0.321,0.256,0.645,0.511,0.967,0.768c0.015,0.018,0.029,0.039,0.045,0.059C78.27,94.439,78.016,94.622,77.76,94.802z
	 M78.709,77.999c-0.005,0.449-0.009,0.897-0.016,1.351l-0.014,1.349c-0.021,2.86-0.043,5.724-0.063,8.583
	c-0.245,0.172-0.491,0.34-0.736,0.508c-0.01,0.01-0.021,0.021-0.031,0.029c-0.164-1.476-0.326-2.954-0.49-4.43
	c-0.174-1.539-0.346-3.078-0.521-4.613c-0.009-0.73-0.021-1.463-0.029-2.193c-0.023-1.124-0.051-2.248-0.076-3.371
	c0.494-1.68,0.992-3.361,1.488-5.044c0.106,1.536,0.213,3.075,0.321,4.614c0.04,0.592,0.08,1.185,0.121,1.777
	C78.729,76.975,78.777,77.546,78.709,77.999z"/>
</svg>
