<svg xmlns="http://www.w3.org/2000/svg" xmlns:se="http://svg-edit.googlecode.com" xmlns:xlink="http://www.w3.org/1999/xlink" id="svgcontent" width="205.65" height="395.85" x="0" y="0" viewBox="0 0 205.65 395.85" overflow="hidden"><g mask="" style="pointer-events:all"><title style="pointer-events:inherit">Layer 1</title><g id="svg_1" type="text" text="D NCE" font-size="61.1135542749338" font-family="Amadeus Regular" fill="000000" text-anchor="start" font-weight="normal" font-style="normal" lineHeight="1" shapeId="0" shapeVal="0" fill-opacity="1" display="null" elemBBoxWidth="166.1953125" stroke="null" stroke-dasharray="none" style="pointer-events:inherit"><path id="svg_12" fill="#000000" stroke-width="0" d="M48.07863989776612,105.38533349121094 C54.359749897766115,110.98741349121093 53.85046989776611,118.96612349121094 50.115749897766115,126.60532349121094 C45.53223989776611,135.77235349121094 37.04423989776612,141.37442349121093 22.275139897766113,141.54419349121093 C22.275139897766113,137.63971349121095 22.444889897766114,131.01907349121095 22.444889897766114,121.51252349121094 C22.444889897766114,121.51252349121094 19.898499897766115,121.51252349121094 19.898499897766115,121.51252349121094 C19.898499897766115,121.51252349121094 19.898499897766115,119.81492349121093 19.898499897766115,119.81492349121093 C19.898499897766115,119.81492349121093 22.444889897766114,119.81492349121093 22.444889897766114,119.81492349121093 C22.444889897766114,119.81492349121093 22.444889897766114,115.91044349121094 22.444889897766114,115.91044349121094 C21.935619897766113,115.91044349121094 21.256579897766112,115.74068349121094 20.238019897766115,115.74068349121094 C20.238019897766115,115.74068349121094 19.72873989776611,114.04308349121094 19.72873989776611,114.04308349121094 C19.72873989776611,114.04308349121094 22.444889897766114,114.04308349121094 22.444889897766114,114.04308349121094 C22.444889897766114,114.04308349121094 22.444889897766114,110.81765349121093 22.444889897766114,110.81765349121093 C22.444889897766114,110.81765349121093 19.72873989776611,110.81765349121093 19.72873989776611,110.81765349121093 C19.72873989776611,110.81765349121093 19.898499897766115,109.12005349121094 19.898499897766115,109.12005349121094 C19.898499897766115,109.12005349121094 22.444889897766114,109.12005349121094 22.444889897766114,109.12005349121094 C22.444889897766114,109.12005349121094 22.275139897766113,97.06710349121094 22.275139897766113,97.06710349121094 C35.17688989776612,95.87878349121094 41.28823989776612,99.27398349121094 48.07863989776612,105.38533349121094 C48.07863989776612,105.38533349121094 48.07863989776612,105.38533349121094 48.07863989776612,105.38533349121094 M26.349369897766113,136.96067349121094 C44.17415989776611,138.31874349121094 54.699269897766115,121.51252349121094 44.00439989776611,109.45957349121093 C39.76039989776611,104.53653349121093 33.64904989776611,102.15989349121094 26.858649897766114,101.48085349121094 C26.858649897766114,101.48085349121094 26.858649897766114,108.95029349121094 26.858649897766114,108.95029349121094 C26.858649897766114,108.95029349121094 32.460729897766115,108.61077349121094 32.460729897766115,108.61077349121094 C32.460729897766115,108.61077349121094 32.29096989776612,110.47813349121094 32.29096989776612,110.47813349121094 C32.29096989776612,110.47813349121094 26.858649897766114,110.64789349121094 26.858649897766114,110.64789349121094 C26.858649897766114,111.32693349121094 26.688889897766114,112.51525349121094 26.688889897766114,114.04308349121094 C26.688889897766114,114.04308349121094 35.17688989776612,114.04308349121094 35.17688989776612,114.04308349121094 C35.17688989776612,114.04308349121094 35.00712989776611,115.91044349121094 35.00712989776611,115.91044349121094 C35.00712989776611,115.91044349121094 26.688889897766114,115.91044349121094 26.688889897766114,115.91044349121094 C26.688889897766114,115.91044349121094 26.688889897766114,119.98468349121094 26.688889897766114,119.98468349121094 C26.688889897766114,119.98468349121094 33.64904989776611,119.98468349121094 33.64904989776611,119.98468349121094 C33.64904989776611,119.98468349121094 33.139769897766115,121.85204349121094 33.139769897766115,121.85204349121094 C33.139769897766115,121.85204349121094 26.519129897766113,121.68228349121094 26.519129897766113,121.68228349121094 C26.519129897766113,129.15171349121093 26.349369897766113,134.24451349121094 26.349369897766113,136.96067349121094 C26.349369897766113,136.96067349121094 26.349369897766113,136.96067349121094 26.349369897766113,136.96067349121094 M108.00386989776611,97.74614349121094 C108.00386989776611,97.74614349121094 106.98530989776611,115.91044349121094 106.98530989776611,115.91044349121094 C106.98530989776611,115.91044349121094 102.06227989776612,116.58948349121094 102.06227989776612,116.58948349121094 C102.06227989776612,116.58948349121094 101.55298989776611,97.74614349121094 101.55298989776611,97.74614349121094 C101.55298989776611,97.74614349121094 108.00386989776611,97.74614349121094 108.00386989776611,97.74614349121094 C108.00386989776611,97.74614349121094 108.00386989776611,97.74614349121094 108.00386989776611,97.74614349121094 M108.17362989776612,118.11732349121094 C108.17362989776612,118.11732349121094 100.53443989776612,118.96612349121094 100.53443989776612,118.96612349121094 C100.53443989776612,118.96612349121094 100.53443989776612,118.11732349121094 100.53443989776612,118.11732349121094 C100.53443989776612,118.11732349121094 108.00386989776611,117.09876349121095 108.00386989776611,117.09876349121095 C108.00386989776611,117.09876349121095 108.17362989776612,118.11732349121094 108.17362989776612,118.11732349121094 M108.17362989776612,119.47540349121094 C108.17362989776612,119.47540349121094 108.00386989776611,120.83348349121094 108.00386989776611,120.83348349121094 C108.00386989776611,120.83348349121094 100.36467989776611,121.51252349121094 100.36467989776611,121.51252349121094 C100.36467989776611,121.51252349121094 100.53443989776612,120.32420349121094 100.53443989776612,120.32420349121094 C100.53443989776612,120.32420349121094 108.17362989776612,119.47540349121094 108.17362989776612,119.47540349121094 M107.32482989776611,122.36132349121094 C107.32482989776611,122.36132349121094 106.47602989776611,141.20466349121094 106.47602989776611,141.20466349121094 C106.47602989776611,141.20466349121094 100.02514989776611,141.54419349121093 100.02514989776611,141.54419349121093 C100.02514989776611,141.54419349121093 85.25604989776612,108.78053349121093 85.25604989776612,108.78053349121093 C85.25604989776612,108.78053349121093 85.08628989776611,117.94756349121094 85.08628989776611,117.94756349121094 C85.08628989776611,117.94756349121094 80.33300989776612,117.60804349121094 80.33300989776612,117.60804349121094 C80.33300989776612,117.60804349121094 79.99348989776611,98.25542349121093 79.99348989776611,98.25542349121093 C79.99348989776611,98.25542349121093 83.89796989776612,98.25542349121093 83.89796989776612,98.25542349121093 C83.89796989776612,98.25542349121093 101.8925198977661,136.45139349121092 101.8925198977661,136.45139349121092 C101.8925198977661,136.45139349121092 101.8925198977661,122.87060349121094 101.8925198977661,122.87060349121094 C101.8925198977661,122.87060349121094 107.32482989776611,122.36132349121094 107.32482989776611,122.36132349121094 M86.61412989776612,118.96612349121094 C86.61412989776612,118.96612349121094 86.44436989776611,120.15444349121094 86.44436989776611,120.15444349121094 C86.44436989776611,120.15444349121094 79.31444989776611,120.15444349121094 79.31444989776611,120.15444349121094 C79.31444989776611,120.15444349121094 79.65396989776612,118.79636349121094 79.65396989776612,118.79636349121094 C79.65396989776612,118.79636349121094 86.61412989776612,118.96612349121094 86.61412989776612,118.96612349121094 M86.78388989776612,121.17300349121093 C86.78388989776612,121.17300349121093 86.61412989776612,122.70084349121095 86.61412989776612,122.70084349121095 C86.61412989776612,122.70084349121095 79.14468989776611,122.53108349121094 79.14468989776611,122.53108349121094 C79.14468989776611,122.53108349121094 79.14468989776611,121.17300349121093 79.14468989776611,121.17300349121093 C79.14468989776611,121.17300349121093 86.78388989776612,121.17300349121093 86.78388989776612,121.17300349121093 C86.78388989776612,121.17300349121093 86.78388989776612,121.17300349121093 86.78388989776612,121.17300349121093 M85.25604989776612,140.69539349121095 C85.25604989776612,140.69539349121095 79.31444989776611,141.03490349121094 79.31444989776611,141.03490349121094 C79.31444989776611,141.03490349121094 80.16324989776611,123.54964349121093 80.16324989776611,123.54964349121093 C80.16324989776611,123.54964349121093 85.25604989776612,124.22868349121094 85.25604989776612,124.22868349121094 C85.25604989776612,124.22868349121094 85.25604989776612,140.69539349121095 85.25604989776612,140.69539349121095 C85.25604989776612,140.69539349121095 85.25604989776612,140.69539349121095 85.25604989776612,140.69539349121095 M132.9585698977661,119.13588349121093 C132.9585698977661,115.06164349121093 139.9187198977661,114.72212349121094 139.9187198977661,119.13588349121093 C139.9187198977661,120.83348349121094 138.39087989776613,122.53108349121094 136.5235298977661,122.53108349121094 C134.65616989776612,122.53108349121094 132.9585698977661,121.00324349121094 132.9585698977661,119.13588349121093 C132.9585698977661,119.13588349121093 132.9585698977661,119.13588349121093 132.9585698977661,119.13588349121093 M146.3695998977661,105.38533349121094 C142.1256098977661,102.32965349121093 135.6747298977661,101.65061349121093 129.7331298977661,103.51797349121094 C129.7331298977661,103.51797349121094 130.41216989776612,135.94211349121093 130.41216989776612,135.94211349121093 C137.8816098977661,137.13043349121094 142.2953598977661,136.11187349121093 149.5950498977661,134.58403349121093 C149.5950498977661,134.58403349121093 150.27407989776611,137.97923349121095 150.27407989776611,137.97923349121095 C145.1812898977661,139.67682349121094 141.2768098977661,140.35587349121093 133.8073698977661,140.35587349121093 C120.73585989776612,140.35587349121093 113.26642989776612,131.18883349121094 113.26642989776612,117.94756349121094 C113.26642989776612,102.32965349121093 136.3537698977661,92.82310349121094 148.9159998977661,102.49941349121093 C148.9159998977661,102.49941349121093 146.3695998977661,105.38533349121094 146.3695998977661,105.38533349121094 M129.05408989776612,135.43283349121094 C129.05408989776612,135.43283349121094 128.37504989776613,103.85749349121093 128.37504989776613,103.85749349121093 C128.0355398977661,104.02725349121094 127.5262498977661,104.36677349121094 126.67745989776611,104.70629349121094 C126.67745989776611,104.70629349121094 127.18673989776612,134.58403349121093 127.18673989776612,134.58403349121093 C127.86577989776612,134.92355349121095 128.37504989776613,135.26307349121095 129.05408989776612,135.43283349121094 C129.05408989776612,135.43283349121094 129.05408989776612,135.43283349121094 129.05408989776612,135.43283349121094 M125.99841989776611,133.73523349121092 C125.99841989776611,133.73523349121092 125.31936989776611,105.38533349121094 125.31936989776611,105.38533349121094 C124.64033989776611,105.72485349121094 124.13105989776611,106.23413349121094 123.62177989776612,106.57365349121093 C123.62177989776612,106.57365349121093 124.13105989776611,132.20739349121095 124.13105989776611,132.20739349121095 C124.97985989776612,132.88643349121094 125.48913989776611,133.39571349121093 125.99841989776611,133.73523349121092 C125.99841989776611,133.73523349121092 125.99841989776611,133.73523349121092 125.99841989776611,133.73523349121092 M122.94273989776612,130.84931349121092 C122.94273989776612,130.84931349121092 122.43345989776611,107.59221349121094 122.43345989776611,107.59221349121094 C116.66161989776612,113.19428349121094 117.68017989776611,125.07748349121094 122.94273989776612,130.84931349121092 C122.94273989776612,130.84931349121092 122.94273989776612,130.84931349121092 122.94273989776612,130.84931349121092 M163.5153498977661,100.29253349121093 C159.2713498977661,103.17845349121095 158.9318398977661,107.93173349121093 161.8177498977661,112.17573349121093 C161.8177498977661,112.17573349121093 160.79918989776613,112.68501349121094 160.79918989776613,112.68501349121094 C157.5737598977661,107.76197349121094 158.08303989776613,102.15989349121094 162.8362998977661,99.10422349121093 C162.8362998977661,99.10422349121093 163.5153498977661,100.29253349121093 163.5153498977661,100.29253349121093 M177.77517989776612,123.37988349121093 C181.0006098977661,120.15444349121094 185.92364989776613,123.21012349121094 185.92364989776613,127.62387349121093 C185.92364989776613,133.05619349121093 182.8679798977661,135.94211349121093 179.9820598977661,138.48851349121094 C171.6638198977661,145.61842349121093 155.0273598977661,140.18611349121093 155.0273598977661,127.28436349121094 C155.0273598977661,119.98468349121094 159.78061989776612,115.91044349121094 164.3641498977661,112.85477349121093 C158.08303989776613,106.57365349121093 165.55247989776612,97.06710349121094 173.53118989776613,97.23686349121094 C177.77517989776612,97.40662349121094 185.4143698977661,101.31109349121094 182.3586898977661,106.23413349121094 C181.0006098977661,107.08293349121094 179.9820598977661,110.30837349121094 178.4542198977661,108.78053349121093 C180.49132989776612,104.19701349121094 174.04046989776612,101.65061349121093 170.4755098977661,101.48085349121094 C168.6081398977661,101.65061349121093 165.8919798977661,101.65061349121093 166.2315098977661,103.85749349121093 C166.91054989776612,110.47813349121094 170.98478989776612,110.81765349121093 179.13325989776612,112.51525349121094 C179.13325989776612,112.51525349121094 175.05901989776612,116.58948349121094 175.05901989776612,116.58948349121094 C167.2500598977661,115.23140349121094 166.0617498977661,115.06164349121093 161.13871989776612,117.43828349121094 C154.00878989776612,129.49123349121095 167.5895798977661,142.22322349121094 180.49132989776612,135.94211349121093 C182.5284598977661,132.71667349121094 182.3586898977661,125.92628349121094 177.43564989776613,126.26580349121093 C177.2658998977661,127.79363349121094 177.94492989776612,128.13315349121095 179.47277989776612,129.15171349121093 C179.47277989776612,129.15171349121093 176.58684989776611,132.03763349121095 176.58684989776611,132.03763349121095 C171.6638198977661,129.83075349121094 175.22877989776612,124.90772349121093 177.77517989776612,123.37988349121093 C177.77517989776612,123.37988349121093 177.77517989776612,123.37988349121093 177.77517989776612,123.37988349121093 M166.74077989776612,132.20739349121095 C166.74077989776612,132.20739349121095 165.8919798977661,133.22595349121093 165.8919798977661,133.22595349121093 C161.8177498977661,130.00051349121094 160.96894989776612,124.22868349121094 163.1758298977661,119.13588349121093 C165.21294989776612,119.64516349121094 162.66654989776612,122.70084349121095 163.1758298977661,124.56820349121094 C163.1758298977661,127.62387349121093 164.3641498977661,130.17027349121093 166.74077989776612,132.20739349121095 C166.74077989776612,132.20739349121095 166.74077989776612,132.20739349121095 166.74077989776612,132.20739349121095 " style="pointer-events:inherit"/><rect id="svg_13" x="19.727343559265137" y="96.83203125" width="166.1953125" height="44.8203125" fill="#000000" opacity="0" style="pointer-events:inherit"/></g><g id="svg_17" display="null" fill-opacity="1" style="pointer-events:inherit" clip-id="78"><path d="M60.35513,81.61967C60.84038,81.00338 62.03405,79.5019 62.31796,78.93613C62.53432,78.69383 62.31796,78.54369 62.31796,78.54369S62.64079,77.13913 62.64555,76.97328C62.64966,76.80675 62.44901,76.77673 62.44901,76.77673S62.57936,76.51601 62.38348,76.44913C62.18761,76.38293 62.05657,76.77673 62.05657,76.77673S61.8102,76.57676 61.72966,77.03812S61.34064,78.40855 61.20619,78.28161C61.07174,78.15399 61.45598,77.67761 61.20619,77.62711C60.95572,77.57592 61.00963,78.03114 60.6172,78.80508C60.22477,79.57903 58.92326,80.20214 58.78472,80.83412C58.64549,81.4661 58.86935,82.2496 59.04611,83.32111C59.22288,84.39194 61.5488,89.3939 61.63753,90.12758C61.72624,92.63231 63.07349,97.90795 64.0201,99.09344C64.53674,99.87148 64.87115,100.79556 64.87115,100.79556S65.2049,103.5808 65.19807,103.80603C65.19193,104.03124 63.06461,106.08349 62.64555,106.09646C62.22652,106.1101 62.11049,105.64806 61.66414,104.72192C61.49488,104.49261 61.40207,104.98331 61.40207,104.98331S60.76257,104.36567 60.551,104.19846C60.33943,104.03056 60.09305,104.19846 60.09305,104.19846L59.76614,104.00191C59.76614,104.00191 59.38463,103.8497 59.43923,104.13226C59.49314,104.41549 60.278,105.48973 60.29029,105.70266C60.3019,105.91628 59.90127,105.43513 59.50475,105.31023C59.10822,105.18534 58.75333,105.34299 59.04679,105.57231C59.33958,105.80094 61.01714,107.38294 61.46827,107.53584C61.9194,107.68871 62.79503,108.15279 63.30075,107.86274C63.80647,107.57268 65.06772,106.8158 65.06772,106.8158S65.11481,107.80405 63.56214,109.04071C63.30553,109.26662 60.49367,112.25524 60.22409,113.03328C59.95451,113.81064 56.48951,121.08801 56.36256,124.4213C56.21925,125.28601 56.10595,126.94446 55.97013,127.03864C55.71898,126.97995 56.65194,134.57333 56.82051,134.76169C56.98977,134.95007 56.88262,135.25854 56.82051,135.54655C56.75841,135.83592 57.08259,136.52795 57.08259,136.52795L57.08259,137.9025C57.08259,137.9025 56.4977,138.69078 56.4936,139.01564C56.48951,139.33981 56.62123,139.89946 56.36256,140.39017C56.1039,140.88089 54.58127,142.45538 54.72664,143.07373S57.79921,143.59583 57.93365,143.00819C58.0681,142.42059 58.46872,141.48627 58.65368,141.24124C58.83864,140.99554 58.65368,142.48405 58.65368,142.48405L59.11163,142.48405C59.11163,142.48405 59.10822,140.9075 59.24267,140.58604C59.3778,140.26392 60.02412,139.52274 60.02821,138.95013C60.03231,138.37753 59.70131,137.83766 59.70131,137.83766L59.37439,136.3983C59.37439,136.3983 59.34709,135.66667 59.43991,135.15482C59.53205,134.64294 59.58596,134.01982 59.63578,133.38785C59.68629,132.75516 59.83234,127.36691 59.83234,127.36691L59.63578,127.23587C59.63578,127.23587 60.35581,124.28207 60.9448,123.24332C61.53447,122.20524 63.96004,120.20283 64.21734,117.81138C64.76878,117.31453 65.5905,118.84672 65.85326,118.7928C66.11601,118.73957 68.13756,122.7178 68.66784,123.30817C69.19678,123.8992 70.80199,126.44351 71.15483,127.03864C71.50836,127.63446 72.78872,129.35364 72.72592,129.59116C72.43177,129.98358 74.55841,134.70435 74.68945,134.82721C74.81912,134.95074 74.5823,135.03467 74.62393,135.41618C74.66624,135.7977 74.97472,135.58887 75.1474,135.80862C75.32075,136.02771 75.02864,136.72043 74.88531,136.85556C74.74269,136.99069 74.8819,137.5592 75.08188,137.64043C75.28185,137.72232 75.00544,138.24442 74.95152,138.42596C74.89692,138.6082 75.27843,139.01495 75.27843,139.01495S75.76778,139.76843 75.73639,139.99637C75.70567,140.22501 77.01469,141.67802 77.1116,141.89508C77.20852,142.11142 76.90754,142.32434 76.98125,142.67992C77.16962,143.38153 79.83268,143.27847 79.9255,142.81029C80.05723,141.34088 77.96198,138.68738 77.96198,138.68738L77.63508,138.36044C77.63508,138.36044 77.75519,137.36606 77.63508,137.31351C77.51632,137.25958 77.30816,137.05144 77.30816,137.05144L77.30816,136.52728C77.30816,136.52728 77.01605,128.17157 76.39157,127.69177C76.13019,127.51706 75.80327,127.56143 75.80327,127.56143S75.23816,126.92809 74.95289,125.66411C74.66692,124.39877 72.82079,120.09295 72.85833,119.51147C72.89655,118.93066 72.51299,117.60596 72.53141,117.28654C72.54916,116.96646 72.74299,113.84817 72.40106,113.0326C72.4345,112.57806 72.62902,112.19382 72.85901,111.46151C73.08901,110.72919 75.06209,107.8525 75.34669,107.07651C75.63128,106.30052 76.06262,102.93313 76.3281,102.03702C76.59359,101.14091 76.68231,98.78427 76.63727,97.97961C76.59359,97.17496 75.74594,95.98129 73.7756,97.06371C73.05079,97.40633 72.49114,96.98318 72.27003,96.86716C72.04958,96.75182 72.15946,95.62093 72.33622,95.16571C72.51231,94.71049 72.87607,94.98144 72.92521,94.90364C72.97366,94.82583 72.72866,94.31465 72.72866,94.31465S73.33812,94.31875 73.25213,94.05257C73.01257,93.90174 72.99005,93.59462 72.99005,93.59462L73.12109,93.13667L73.05148,92.81044C73.05148,92.81044 72.99415,91.71095 73.11699,91.63246C73.23985,91.55466 73.64865,90.96431 73.44391,90.91244S73.24871,90.88719 73.05148,90.58553S71.73222,88.71687 71.35002,88.55649S70.91664,88.48551 70.49896,88.55649C70.08195,88.62747 69.73866,88.10809 69.25547,88.09854C68.77295,88.08897 68.43853,88.56262 68.14301,88.55649C67.84818,88.55103 67.19845,88.61586 66.96504,88.94891C66.73163,89.28197 66.3112,89.73447 66.3112,89.73447S65.56661,89.49355 65.59119,89.73447S65.52567,90.32345 65.52567,90.32345S65.15372,90.24496 64.93668,90.12758C64.84523,90.51454 65.32911,90.97797 65.32911,90.97797S65.26632,91.5567 65.13323,91.63246C64.99947,91.70822 65.06772,92.35249 65.06772,92.35249S64.9046,92.66507 64.74081,92.41801C64.57632,92.17095 65.13323,93.07251 65.13323,93.07251S65.18988,93.58916 65.13323,93.72703C65.07658,93.86489 65.52567,93.92358 65.52567,93.92358S65.68196,94.19043 65.59119,94.3167C65.49973,94.44296 65.91809,94.51325 65.91809,94.51325S66.25934,95.16776 66.24501,95.36432C66.23068,95.56019 66.50708,95.23328 66.50708,95.23328S67.0053,95.76903 66.96504,95.95399C66.92409,96.13826 67.61954,95.95399 67.61954,95.95399S67.68369,96.26247 67.55402,96.41193C67.42503,96.56141 68.01198,96.60849 68.01198,96.60849L68.60096,96.73885C68.60096,96.73885 68.9538,97.31692 68.86304,97.45888C68.77295,97.60152 67.71441,97.79397 67.35815,97.85199S65.71266,95.36159 65.39462,95.0374C64.61386,91.90204 63.74232,90.12689 63.56214,89.80135S63.62698,89.1721 63.56214,88.68889C63.49731,88.20432 59.8692,82.23528 60.35513,81.61967z" id="svg_18" fill="#ffffff" style="pointer-events:inherit"/></g><g id="svg_19" type="text" text="A" font-size="40.968170472447056" font-family="LeviScriptOpti" fill="000000" text-anchor="start" font-weight="normal" font-style="normal" lineHeight="1" shapeId="0" shapeVal="0" fill-opacity="1" display="null" elemBBoxWidth="122.20156860351562" stroke="ffffff" stroke-dasharray="none" stroke-opacity="1" transform="rotate(-13.327, 95.6342, 145.935)" style="pointer-events:inherit"><path id="svg_35" fill="#000000" stroke="#000000" d="M72.19218,158.20716512695313 C72.19218,158.20716512695313 72.64738,157.29676512695312 72.64738,157.29676512695312 C77.7684,159.68656512695313 81.18242000000001,158.43476512695312 86.75864,155.58975512695312 C80.84102,150.92393512695313 81.63762,139.77148512695314 90.17266000000001,139.6576851269531 C93.70047,139.6576851269531 96.88688,142.38889512695312 98.02489,147.0547151269531 C108.26693,137.72307512695312 113.72935,131.69165512695312 117.82616999999999,131.69165512695312 C118.16757,131.69165512695312 118.62277,131.80545512695312 119.07798,131.91925512695312 C112.93275,139.08868512695312 107.12893,148.76172512695314 97.79729,158.66236512695312 C101.6665,158.43476512695312 105.30812,156.61395512695313 108.38073,153.19994512695314 C108.38073,153.19994512695314 108.83592999999999,153.54134512695313 108.83592999999999,153.54134512695313 C105.53572,157.18296512695312 101.4389,159.11756512695314 97.11448,159.23136512695314 C96.77308,160.14177512695312 95.63508,160.25557512695312 94.26947,160.14177512695312 C94.26947,160.14177512695312 95.06607,159.11756512695314 95.06607,159.11756512695314 C92.22106,158.77616512695312 89.60365,157.86576512695314 87.21384,155.93115512695312 C82.20662,158.66236512695312 77.3132,160.4831751269531 72.19218,158.20716512695313 C72.19218,158.20716512695313 72.19218,158.20716512695313 72.19218,158.20716512695313 M96.88688,157.18296512695312 C110.77054,140.79569512695312 117.59857,132.37445512695314 118.16757,132.2606551269531 C113.27414999999999,132.1468551269531 108.49453,138.63348512695313 98.13869,147.62371512695313 C98.70769,151.03773512695312 98.13869,154.33794512695312 96.88688,157.18296512695312 C96.88688,157.18296512695312 96.88688,157.18296512695312 96.88688,157.18296512695312 M87.32764,155.24835512695313 C90.51406,153.31374512695314 93.92807,150.81013512695313 97.56969000000001,147.39611512695313 C96.43168,143.18550512695313 93.47287,140.56809512695312 90.40026,140.56809512695312 C86.87244,140.56809512695312 83.68603,143.52690512695312 83.68603,147.50991512695313 C83.68603,150.2411351269531 84.93783,152.74474512695312 87.32764,155.24835512695313 C87.32764,155.24835512695313 87.32764,155.24835512695313 87.32764,155.24835512695313 M95.52128,158.66236512695312 C97.34209,155.58975512695312 98.36628999999999,152.06193512695313 97.68349,148.07892512695312 C94.04187,151.37913512695312 90.85546,153.88274512695313 87.78284,155.58975512695312 C89.83125,157.29676512695312 92.56247,158.43476512695312 95.52128,158.66236512695312 C95.52128,158.66236512695312 95.52128,158.66236512695312 95.52128,158.66236512695312 " style="pointer-events:inherit"/><rect id="svg_36" x="72.19140625" y="131.69140625" width="46.88671875" height="28.484375" fill="#000000" opacity="0" stroke="#000000" style="pointer-events:inherit"/></g><g display="null" id="svg_26" style="pointer-events:inherit" clip-id="78"><path d="M57.85513,81.61967C58.34038,81.00338 59.53405,79.5019 59.81797,78.93613C60.03431,78.69383 59.81797,78.54369 59.81797,78.54369S60.14079,77.13913 60.14556,76.97328C60.14965,76.80675 59.94901,76.77673 59.94901,76.77673S60.07936,76.51601 59.88348,76.44913C59.68761,76.38293 59.55657,76.77673 59.55657,76.77673S59.3102,76.57676 59.22966,77.03812S58.84064,78.40855 58.70619,78.28161C58.57174,78.15399 58.95598,77.67761 58.70619,77.62711C58.45572,77.57592 58.50963,78.03114 58.1172,78.80508C57.72477,79.57903 56.42326,80.20214 56.28472,80.83412C56.14549,81.4661 56.36935,82.2496 56.54611,83.32111C56.72288,84.39194 59.0488,89.3939 59.13752,90.12758C59.22625,92.63231 60.57348,97.90795 61.52009,99.09344C62.03674,99.87148 62.37116,100.79556 62.37116,100.79556S62.7049,103.5808 62.69807,103.80603C62.69193,104.03124 60.56461,106.08349 60.14556,106.09646C59.72651,106.1101 59.61049,105.64806 59.16414,104.72192C58.99488,104.49261 58.90207,104.98331 58.90207,104.98331S58.26257,104.36567 58.051,104.19846C57.83943,104.03056 57.59305,104.19846 57.59305,104.19846L57.26614,104.00191C57.26614,104.00191 56.88463,103.8497 56.93923,104.13226C56.99314,104.41549 57.778,105.48973 57.79029,105.70266C57.8019,105.91628 57.40127,105.43513 57.00475,105.31023C56.60822,105.18534 56.25333,105.34299 56.54679,105.57231C56.83958,105.80094 58.51714,107.38294 58.96827,107.53584C59.4194,107.68871 60.29503,108.15279 60.80075,107.86274C61.30647,107.57268 62.56771,106.8158 62.56771,106.8158S62.61481,107.80405 61.06214,109.04071C60.80553,109.26662 57.99367,112.25524 57.72409,113.03328C57.45451,113.81064 53.98951,121.08801 53.86256,124.4213C53.71925,125.28601 53.60595,126.94446 53.47013,127.03864C53.21898,126.97995 54.15194,134.57333 54.32051,134.76169C54.48977,134.95007 54.38262,135.25854 54.32051,135.54655C54.25841,135.83592 54.58259,136.52795 54.58259,136.52795L54.58259,137.9025C54.58259,137.9025 53.9977,138.69078 53.9936,139.01564C53.98951,139.33981 54.12123,139.89946 53.86256,140.39017C53.6039,140.88089 52.08127,142.45538 52.22664,143.07373S55.29921,143.59583 55.43365,143.00819C55.5681,142.42059 55.96872,141.48627 56.15368,141.24124C56.33864,140.99554 56.15368,142.48405 56.15368,142.48405L56.61163,142.48405C56.61163,142.48405 56.60822,140.9075 56.74267,140.58604C56.8778,140.26392 57.52412,139.52274 57.52821,138.95013C57.53231,138.37753 57.20131,137.83766 57.20131,137.83766L56.87439,136.3983C56.87439,136.3983 56.84709,135.66667 56.93991,135.15482C57.03205,134.64294 57.08596,134.01982 57.13578,133.38785C57.18629,132.75516 57.33234,127.36691 57.33234,127.36691L57.13578,127.23587C57.13578,127.23587 57.85581,124.28207 58.4448,123.24332C59.03447,122.20524 61.46004,120.20283 61.71734,117.81138C62.26879,117.31453 63.0905,118.84672 63.35326,118.7928C63.61602,118.73957 65.63756,122.7178 66.16784,123.30817C66.69678,123.8992 68.30199,126.44351 68.65483,127.03864C69.00836,127.63446 70.28872,129.35364 70.22592,129.59116C69.93177,129.98358 72.05841,134.70435 72.18945,134.82721C72.31912,134.95074 72.0823,135.03467 72.12393,135.41618C72.16624,135.7977 72.47472,135.58887 72.6474,135.80862C72.82075,136.02771 72.52864,136.72043 72.38531,136.85556C72.24269,136.99069 72.3819,137.5592 72.58188,137.64043C72.78185,137.72232 72.50544,138.24442 72.45152,138.42596C72.39692,138.6082 72.77843,139.01495 72.77843,139.01495S73.26778,139.76843 73.23639,139.99637C73.20567,140.22501 74.51469,141.67802 74.6116,141.89508C74.70852,142.11142 74.40754,142.32434 74.48125,142.67992C74.66962,143.38153 77.33268,143.27847 77.4255,142.81029C77.55723,141.34088 75.46198,138.68738 75.46198,138.68738L75.13508,138.36044C75.13508,138.36044 75.25519,137.36606 75.13508,137.31351C75.01632,137.25958 74.80816,137.05144 74.80816,137.05144L74.80816,136.52728C74.80816,136.52728 74.51605,128.17157 73.89157,127.69177C73.63019,127.51706 73.30327,127.56143 73.30327,127.56143S72.73816,126.92809 72.45289,125.66411C72.16692,124.39877 70.32079,120.09295 70.35833,119.51147C70.39655,118.93066 70.01299,117.60596 70.03141,117.28654C70.04916,116.96646 70.24299,113.84817 69.90106,113.0326C69.9345,112.57806 70.12902,112.19382 70.35901,111.46151C70.58901,110.72919 72.56209,107.8525 72.84669,107.07651C73.13128,106.30052 73.56262,102.93313 73.8281,102.03702C74.09359,101.14091 74.18231,98.78427 74.13727,97.97961C74.09359,97.17496 73.24594,95.98129 71.2756,97.06371C70.55079,97.40633 69.99114,96.98318 69.77003,96.86716C69.54958,96.75182 69.65946,95.62093 69.83622,95.16571C70.01231,94.71049 70.37607,94.98144 70.42521,94.90364C70.47366,94.82583 70.22866,94.31465 70.22866,94.31465S70.83812,94.31875 70.75213,94.05257C70.51257,93.90174 70.49005,93.59462 70.49005,93.59462L70.62109,93.13667L70.55148,92.81044C70.55148,92.81044 70.49415,91.71095 70.61699,91.63246C70.73985,91.55466 71.14865,90.96431 70.94391,90.91244S70.74871,90.88719 70.55148,90.58553S69.23222,88.71687 68.85002,88.55649S68.41664,88.48551 67.99896,88.55649C67.58195,88.62747 67.23866,88.10809 66.75547,88.09854C66.27295,88.08897 65.93853,88.56262 65.64301,88.55649C65.34818,88.55103 64.69845,88.61586 64.46504,88.94891C64.23163,89.28197 63.81121,89.73447 63.81121,89.73447S63.06661,89.49355 63.09119,89.73447S63.02567,90.32345 63.02567,90.32345S62.65371,90.24496 62.43668,90.12758C62.34523,90.51454 62.82911,90.97797 62.82911,90.97797S62.76632,91.5567 62.63323,91.63246C62.49947,91.70822 62.56771,92.35249 62.56771,92.35249S62.40461,92.66507 62.24081,92.41801C62.07632,92.17095 62.63323,93.07251 62.63323,93.07251S62.68988,93.58916 62.63323,93.72703C62.57659,93.86489 63.02567,93.92358 63.02567,93.92358S63.18196,94.19043 63.09119,94.3167C62.99973,94.44296 63.41809,94.51325 63.41809,94.51325S63.75934,95.16776 63.74501,95.36432C63.73068,95.56019 64.00708,95.23328 64.00708,95.23328S64.5053,95.76903 64.46504,95.95399C64.42409,96.13826 65.11954,95.95399 65.11954,95.95399S65.18369,96.26247 65.05402,96.41193C64.92503,96.56141 65.51198,96.60849 65.51198,96.60849L66.10096,96.73885C66.10096,96.73885 66.4538,97.31692 66.36304,97.45888C66.27295,97.60152 65.21441,97.79397 64.85815,97.85199S63.21267,95.36159 62.89463,95.0374C62.11386,91.90204 61.24232,90.12689 61.06214,89.80135S61.12698,89.1721 61.06214,88.68889C60.99731,88.20432 57.3692,82.23528 57.85513,81.61967z" id="svg_27" style="pointer-events:inherit"/></g><g type="text" text="Academy" font-size="40.968170472447056" font-family="LeviScriptOpti" fill="ffffff" text-anchor="start" font-weight="normal" font-style="normal" lineHeight="1" shapeId="0" shapeVal="0" fill-opacity="1" display="null" elemBBoxWidth="116.41796875" stroke="000000" stroke-dasharray="none" stroke-opacity="1" transform="rotate(-13.327, 128.137, 142.902)" id="svg_28" style="pointer-events:inherit"><path fill="#ffffff" stroke="#ffffff" d="M69.92638108642578,150.07222299072265 C69.92638108642578,150.07222299072265 70.38158108642578,149.16182299072267 70.38158108642578,149.16182299072267 C75.50260108642578,151.55163299072265 78.91662108642578,150.29982299072265 84.49284108642578,147.45481299072264 C78.57522108642578,142.78899299072265 79.37182108642578,131.63654299072266 87.90685108642577,131.52274299072266 C91.43467108642578,131.52274299072266 94.62108108642579,134.25395299072267 95.75909108642578,138.91977299072266 C106.00113108642577,129.58813299072267 111.46355108642578,123.55671299072266 115.56037108642579,123.55671299072266 C115.90177108642578,123.55671299072266 116.35697108642577,123.67051299072266 116.81217108642578,123.78431299072265 C110.66695108642578,130.95374299072265 104.86312108642578,140.62678299072266 95.53149108642577,150.52742299072264 C99.40070108642578,150.29982299072265 103.04232108642577,148.47901299072265 106.11493108642578,145.06500299072266 C106.11493108642578,145.06500299072266 106.57013108642579,145.40640299072265 106.57013108642579,145.40640299072265 C103.26992108642578,149.04802299072264 99.17310108642579,150.98262299072266 94.84868108642578,151.09642299072266 C94.50728108642578,152.00683299072267 93.36928108642579,152.12063299072264 92.00367108642578,152.00683299072267 C92.00367108642578,152.00683299072267 92.80027108642578,150.98262299072266 92.80027108642578,150.98262299072266 C89.95526108642578,150.64122299072267 87.33785108642579,149.73082299072266 84.94804108642577,147.79621299072267 C79.94082108642579,150.52742299072264 75.04740108642578,152.34823299072266 69.92638108642578,150.07222299072265 C69.92638108642578,150.07222299072265 69.92638108642578,150.07222299072265 69.92638108642578,150.07222299072265 M94.62108108642579,149.04802299072264 C108.50474108642578,132.66075299072264 115.33277108642578,124.23951299072266 115.90177108642578,124.12571299072266 C111.00835108642579,124.01191299072265 106.22873108642578,130.49854299072265 95.87289108642578,139.48878299072265 C96.44189108642578,142.90279299072265 95.87289108642578,146.20300299072267 94.62108108642579,149.04802299072264 C94.62108108642579,149.04802299072264 94.62108108642579,149.04802299072264 94.62108108642579,149.04802299072264 M85.06184108642579,147.11341299072265 C88.24826108642579,145.17880299072266 91.66227108642579,142.67519299072265 95.30389108642578,139.26117299072266 C94.16588108642578,135.05056299072265 91.20707108642578,132.43315299072265 88.13446108642577,132.43315299072265 C84.60664108642578,132.43315299072265 81.42023108642579,135.39196299072265 81.42023108642579,139.37497299072265 C81.42023108642579,142.10619299072266 82.67203108642578,144.60980299072264 85.06184108642579,147.11341299072265 C85.06184108642579,147.11341299072265 85.06184108642579,147.11341299072265 85.06184108642579,147.11341299072265 M93.25548108642579,150.52742299072264 C95.07629108642578,147.45481299072264 96.10049108642578,143.92699299072265 95.41769108642578,139.94398299072265 C91.77607108642579,143.24419299072267 88.58966108642578,145.74780299072265 85.51704108642578,147.45481299072264 C87.56545108642578,149.16182299072267 90.29666108642579,150.29982299072265 93.25548108642579,150.52742299072264 C93.25548108642579,150.52742299072264 93.25548108642579,150.52742299072264 93.25548108642579,150.52742299072264 M111.91875108642577,142.44759299072265 C110.78075108642578,141.99239299072266 105.31833108642579,147.11341299072265 105.31833108642579,149.50322299072266 C105.31833108642579,150.18602299072265 105.77353108642578,150.52742299072264 106.45633108642579,150.52742299072264 C108.39094108642578,150.52742299072264 111.69115108642578,148.82041299072264 115.21897108642578,145.06500299072266 C115.21897108642578,145.06500299072266 115.67417108642579,145.40640299072265 115.67417108642579,145.40640299072265 C112.03255108642578,149.27562299072267 108.50474108642578,151.09642299072266 106.45633108642579,151.09642299072266 C104.86312108642578,151.09642299072266 103.83892108642578,150.29982299072265 103.83892108642578,149.04802299072264 C103.83892108642578,146.77201299072266 109.30134108642578,141.53718299072267 111.91875108642577,141.99239299072266 C113.85336108642578,141.76478299072267 114.64997108642578,144.26840299072265 112.71536108642579,144.49600299072264 C110.66695108642578,144.26840299072265 113.39816108642577,142.56139299072265 111.91875108642577,142.44759299072265 C111.91875108642577,142.44759299072265 111.91875108642577,142.44759299072265 111.91875108642577,142.44759299072265 M113.05676108642578,149.16182299072267 C113.05676108642578,146.20300299072267 118.29158108642578,141.76478299072267 120.79519108642577,141.99239299072266 C122.16080108642578,142.10619299072266 122.84360108642578,142.67519299072265 122.72980108642578,144.04079299072265 C123.41260108642578,142.90279299072265 123.98160108642578,141.76478299072267 125.80241108642578,141.76478299072267 C122.38840108642577,146.54440299072266 120.45379108642578,149.04802299072264 120.45379108642578,149.73082299072266 C120.45379108642578,150.07222299072265 120.68139108642578,150.29982299072265 121.13659108642578,150.29982299072265 C122.27460108642578,150.29982299072265 125.11960108642577,148.70661299072265 128.5336210864258,145.06500299072266 C128.5336210864258,145.06500299072266 128.8750210864258,145.40640299072265 128.8750210864258,145.40640299072265 C125.34721108642577,149.16182299072267 122.16080108642578,150.98262299072266 120.56759108642578,150.98262299072266 C119.42958108642578,150.98262299072266 119.08818108642578,150.29982299072265 119.20198108642577,149.16182299072267 C117.72258108642578,150.41362299072267 116.47077108642578,151.09642299072266 115.21897108642578,151.09642299072266 C113.85336108642578,151.09642299072266 113.05676108642578,150.41362299072267 113.05676108642578,149.16182299072267 C113.05676108642578,149.16182299072267 113.05676108642578,149.16182299072267 113.05676108642578,149.16182299072267 M121.02279108642578,142.44759299072265 C118.74678108642578,142.33379299072266 113.73956108642578,148.36521299072265 114.19476108642579,149.61702299072266 C114.19476108642579,150.18602299072265 114.76377108642578,150.52742299072264 115.44657108642579,150.52742299072264 C118.74678108642578,150.29982299072265 122.16080108642578,145.17880299072266 122.16080108642578,143.69939299072266 C122.16080108642578,142.90279299072265 121.70560108642579,142.44759299072265 121.02279108642578,142.44759299072265 C121.02279108642578,142.44759299072265 121.02279108642578,142.44759299072265 121.02279108642578,142.44759299072265 M126.03001108642579,149.16182299072267 C125.91621108642579,146.20300299072267 132.0614410864258,141.65098299072267 134.22365108642578,141.99239299072266 C135.81686108642577,142.21999299072266 136.27206108642577,143.47179299072266 135.36166108642578,145.06500299072266 C135.36166108642578,145.06500299072266 144.23809108642578,132.77455299072267 144.23809108642578,132.77455299072267 C144.23809108642578,132.77455299072267 145.83130108642578,132.66075299072264 145.83130108642578,132.66075299072264 C145.83130108642578,132.66075299072264 135.58926108642578,146.77201299072266 135.58926108642578,146.77201299072266 C134.3374510864258,148.93421299072264 132.85804108642577,149.50322299072266 134.22365108642578,150.29982299072265 C135.36166108642578,150.29982299072265 137.52386108642577,148.59281299072265 140.7102710864258,145.06500299072266 C140.7102710864258,145.06500299072266 141.16547108642578,145.40640299072265 141.16547108642578,145.40640299072265 C137.8652610864258,149.16182299072267 135.36166108642578,150.98262299072266 133.99605108642578,150.98262299072266 C132.63044108642578,151.09642299072266 132.28904108642578,149.84462299072266 132.74424108642577,148.59281299072265 C131.03723108642578,150.18602299072265 129.55783108642578,151.09642299072266 128.07842108642578,151.09642299072266 C126.82661108642577,151.09642299072266 126.03001108642579,150.41362299072267 126.03001108642579,149.16182299072267 C126.03001108642579,149.16182299072267 126.03001108642579,149.16182299072267 126.03001108642579,149.16182299072267 M134.45125108642577,142.56139299072265 C133.3132410864258,141.87859299072267 127.05421108642578,147.79621299072267 127.28182108642578,149.73082299072266 C127.28182108642578,150.18602299072265 127.50942108642579,150.52742299072264 128.19222108642577,150.52742299072264 C130.5820310864258,150.75502299072267 135.70306108642578,145.06500299072266 135.24785108642578,143.47179299072266 C135.24785108642578,142.90279299072265 135.0202510864258,142.56139299072265 134.45125108642577,142.56139299072265 C134.45125108642577,142.56139299072265 134.45125108642577,142.56139299072265 134.45125108642577,142.56139299072265 M138.6618610864258,149.27562299072267 C138.6618610864258,146.54440299072266 143.8966910864258,141.42338299072264 146.17270108642577,141.99239299072266 C147.31070108642578,141.99239299072266 147.8797110864258,142.44759299072265 147.8797110864258,143.13039299072267 C147.8797110864258,144.60980299072264 145.26229108642576,146.99961299072265 140.36887108642577,148.02381299072266 C139.5722710864258,149.16182299072267 139.1170610864258,150.52742299072264 140.82407108642576,150.52742299072264 C142.75868108642578,150.52742299072264 146.62790108642577,148.82041299072264 150.15571108642578,145.06500299072266 C150.15571108642578,145.06500299072266 150.49712108642578,145.40640299072265 150.49712108642578,145.40640299072265 C146.85550108642576,149.38942299072266 142.75868108642578,151.09642299072266 140.7102710864258,151.09642299072266 C139.3446610864258,151.09642299072266 138.6618610864258,150.52742299072264 138.6618610864258,149.27562299072267 C138.6618610864258,149.27562299072267 138.6618610864258,149.27562299072267 138.6618610864258,149.27562299072267 M140.82407108642576,147.45481299072264 C145.26229108642576,146.31680299072266 147.31070108642578,144.26840299072265 147.31070108642578,143.13039299072267 C147.31070108642578,142.67519299072265 147.08310108642578,142.56139299072265 146.7417010864258,142.56139299072265 C145.6037010864258,142.56139299072265 143.44148108642577,144.26840299072265 140.82407108642576,147.45481299072264 C140.82407108642576,147.45481299072264 140.82407108642576,147.45481299072264 140.82407108642576,147.45481299072264 M165.9739810864258,142.56139299072265 C164.3807710864258,142.56139299072265 161.08056108642577,145.06500299072266 156.75614108642577,150.64122299072267 C156.75614108642577,150.64122299072267 155.2767310864258,150.64122299072267 155.2767310864258,150.64122299072267 C158.2355510864258,146.77201299072266 160.17016108642576,144.60980299072264 160.17016108642576,143.58559299072266 C160.17016108642576,143.01659299072264 159.7149510864258,142.78899299072265 159.25975108642578,142.78899299072265 C157.78034108642578,142.78899299072265 154.93533108642578,145.40640299072265 150.61092108642578,150.64122299072267 C150.61092108642578,150.64122299072267 149.01771108642578,150.64122299072267 149.01771108642578,150.64122299072267 C152.2041210864258,145.97540299072267 154.93533108642578,144.04079299072265 153.56972108642577,142.90279299072265 C152.8869210864258,142.90279299072265 151.86272108642578,143.81319299072265 150.15571108642578,145.63400299072265 C150.15571108642578,145.63400299072265 149.70051108642576,145.29260299072266 149.70051108642576,145.29260299072266 C151.63512108642578,143.24419299072267 153.11452108642578,142.10619299072266 154.2525310864258,142.10619299072266 C155.8457410864258,142.21999299072266 155.5043310864258,144.15459299072265 154.70773108642578,145.29260299072266 C156.98374108642577,143.01659299072264 158.57695108642577,141.87859299072267 159.7149510864258,141.87859299072267 C161.42196108642577,141.87859299072267 161.64956108642576,143.81319299072265 160.85296108642578,145.17880299072266 C163.24277108642576,142.90279299072265 165.06357108642578,141.87859299072267 166.2015810864258,141.87859299072267 C167.11198108642577,141.87859299072267 167.7947810864258,142.56139299072265 167.7947810864258,143.58559299072266 C167.7947810864258,145.06500299072266 163.92557108642578,149.16182299072267 164.26697108642577,149.84462299072266 C164.26697108642577,150.18602299072265 164.49457108642576,150.29982299072265 164.94977108642578,150.29982299072265 C166.3153810864258,150.29982299072265 168.47759108642578,148.59281299072265 171.6640010864258,145.06500299072266 C171.6640010864258,145.06500299072266 172.00540108642576,145.29260299072266 172.00540108642576,145.29260299072266 C168.70519108642577,148.93421299072264 166.42918108642579,150.98262299072266 164.26697108642577,150.98262299072266 C159.14595108642578,149.50322299072266 169.61559108642578,143.47179299072266 165.9739810864258,142.56139299072265 C165.9739810864258,142.56139299072265 165.9739810864258,142.56139299072265 165.9739810864258,142.56139299072265 M174.96422108642577,152.68963299072266 C168.47759108642578,156.21744299072265 165.6325710864258,159.85906299072266 165.6325710864258,161.22467299072267 C165.6325710864258,161.56607299072266 165.86018108642577,161.67987299072266 166.2015810864258,161.67987299072266 C168.13619108642578,161.67987299072266 170.6398010864258,158.49345299072266 174.96422108642577,152.68963299072266 C174.96422108642577,152.68963299072266 174.96422108642577,152.68963299072266 174.96422108642577,152.68963299072266 M176.4436310864258,143.35799299072266 C176.78503108642576,144.15459299072265 172.57441108642578,148.36521299072265 172.3468110864258,150.07222299072265 C172.3468110864258,150.41362299072267 172.46061108642579,150.41362299072267 172.91581108642578,150.41362299072267 C174.50902108642578,150.41362299072267 178.37823108642579,148.02381299072266 181.79224108642578,142.56139299072265 C181.79224108642578,142.56139299072265 183.49925108642577,142.21999299072266 183.49925108642577,142.21999299072266 C183.49925108642577,142.21999299072266 177.12643108642578,151.09642299072266 177.12643108642578,151.09642299072266 C180.88184108642577,149.50322299072266 183.95445108642576,147.45481299072264 186.00286108642578,145.06500299072266 C186.00286108642578,145.06500299072266 186.34426108642577,145.40640299072265 186.34426108642577,145.40640299072265 C183.95445108642576,148.02381299072266 180.7680410864258,150.29982299072265 176.6712310864258,151.89303299072265 C171.6640010864258,158.72105299072265 168.13619108642578,162.24887299072265 166.08778108642576,162.24887299072265 C165.40497108642577,162.24887299072265 165.06357108642578,161.90747299072265 165.06357108642578,161.33847299072266 C165.06357108642578,159.29006299072265 168.36379108642578,155.53464299072266 175.3056210864258,151.77923299072265 C175.3056210864258,151.77923299072265 177.58163108642577,148.36521299072265 177.58163108642577,148.36521299072265 C175.64702108642578,150.07222299072265 174.05381108642578,151.09642299072266 172.68821108642578,151.09642299072266 C171.6640010864258,151.09642299072266 171.09500108642578,150.64122299072267 171.09500108642578,149.95842299072265 C170.6398010864258,148.47901299072265 176.55743108642577,143.58559299072266 174.8504210864258,143.01659299072264 C174.28142108642578,143.01659299072264 173.2572110864258,143.92699299072265 171.55020108642577,145.74780299072265 C171.55020108642577,145.74780299072265 171.09500108642578,145.40640299072265 171.09500108642578,145.40640299072265 C172.91581108642578,143.35799299072266 174.05381108642578,142.21999299072266 175.19182108642576,142.21999299072266 C175.87462108642578,142.21999299072266 176.4436310864258,142.78899299072265 176.4436310864258,143.35799299072266 C176.4436310864258,143.35799299072266 176.4436310864258,143.35799299072266 176.4436310864258,143.35799299072266 " id="svg_29" style="pointer-events:inherit"/><rect x="69.92578125" y="123.55859375" width="116.41796875" height="38.69140625" fill="#ffffff" opacity="0" stroke="#ffffff" id="svg_30" style="pointer-events:inherit"/></g><g id="svg_37" type="text" text="PREMIERE" font-size="21.608832074385163" font-family="Afta sans" fill="000000" text-anchor="start" font-weight="normal" font-style="normal" lineHeight="1" shapeId="0" shapeVal="0" fill-opacity="1" display="null" elemBBoxWidth="101.4140625" style="pointer-events:inherit"><path id="svg_38" fill="#000000" stroke-width="0" d="M87.00332,78.45277C87.00332,78.45277 87.00332,85.45403 87.00332,85.45403C87.00332,85.45403 90.93613,85.45403 90.93613,85.45403C93.96136,85.45403 94.76089,82.99064 94.76089,82.03985C94.76089,80.52724 93.96136,78.45277 90.93613,78.45277C90.93613,78.45277 87.00332,78.45277 87.00332,78.45277C87.00332,78.45277 87.00332,78.45277 87.00332,78.45277M85.62035,77.5236C85.62035,77.5236 90.93613,77.50198 90.93613,77.50198C95.0202,77.50198 96.40317,79.94376 96.40317,82.03985C96.40317,84.00626 95.10664,86.44804 90.93613,86.44804C90.93613,86.44804 87.00332,86.44804 87.00332,86.44804C87.00332,86.44804 87.00332,92.97394 87.00332,92.97394C87.00332,92.97394 85.62035,92.97394 85.62035,92.97394C85.62035,92.97394 85.62035,77.5236 85.62035,77.5236C85.62035,77.5236 85.62035,77.5236 85.62035,77.5236M100.22792,84.37358C100.22792,84.37358 104.05269,84.37358 104.05269,84.37358C106.92666,84.37358 107.70457,82.66648 107.70457,81.39159C107.70457,80.0302 106.77539,78.45277 104.05269,78.45277C104.05269,78.45277 100.22792,78.45277 100.22792,78.45277C100.22792,78.45277 100.22792,84.37358 100.22792,84.37358C100.22792,84.37358 100.22792,84.37358 100.22792,84.37358M98.86656,77.50198C98.86656,77.50198 104.05269,77.50198 104.05269,77.50198C107.55331,77.50198 109.17398,79.07941 109.17398,81.19711C109.17398,83.61728 107.31562,84.74095 105.82461,84.91383C107.31562,85.25954 107.7478,86.27516 108.20158,87.39884C108.20158,87.39884 110.42729,92.95232 110.42729,92.95232C110.42729,92.95232 109.0011,92.95232 109.0011,92.95232C107.2724,88.58732 106.64576,87.00985 106.5377,86.7722C106.10553,85.84302 105.54369,85.43242 104.57129,85.43242C104.57129,85.43242 100.22792,85.43242 100.22792,85.43242C100.22792,85.43242 100.22792,92.95232 100.22792,92.95232C100.22792,92.95232 98.86656,92.95232 98.86656,92.95232C98.86656,92.95232 98.86656,77.50198 98.86656,77.50198C98.86656,77.50198 98.86656,77.50198 98.86656,77.50198M113.21484,92.95232C113.21484,92.95232 113.21484,77.5236 113.21484,77.5236C113.21484,77.5236 122.1825,77.5236 122.1825,77.5236C122.1825,77.5236 122.1825,78.43117 122.1825,78.43117C122.1825,78.43117 114.57619,78.43117 114.57619,78.43117C114.57619,78.43117 114.57619,84.6329 114.57619,84.6329C114.57619,84.6329 120.21609,84.6329 120.21609,84.6329C120.21609,84.6329 120.21609,85.56208 120.21609,85.56208C120.21609,85.56208 114.57619,85.56208 114.57619,85.56208C114.57619,85.56208 114.57619,92.02314 114.57619,92.02314C114.57619,92.02314 122.70111,92.02314 122.70111,92.02314C122.70111,92.02314 122.70111,92.95232 122.70111,92.95232C122.70111,92.95232 113.21484,92.95232 113.21484,92.95232C113.21484,92.95232 113.21484,92.95232 113.21484,92.95232M134.65079,91.13718C134.65079,91.13718 133.05174,91.13718 133.05174,91.13718C133.05174,91.13718 126.87161,78.38795 126.87161,78.38795C126.87161,82.96902 126.80678,87.96065 126.80678,92.95232C126.80678,92.95232 125.44542,92.95232 125.44542,92.95232C125.44542,92.95232 125.44542,77.50198 125.44542,77.50198C125.44542,77.50198 128.0817,77.50198 128.0817,77.50198C128.0817,77.50198 133.31105,89.08432 133.31105,89.08432C133.70001,89.92706 134.15381,89.58133 134.36987,89.08432C138.86452,78.993 139.25348,78.17184 139.51279,77.50198C139.51279,77.50198 141.95457,77.50198 141.95457,77.50198C141.95457,77.50198 141.95457,92.95232 141.95457,92.95232C141.95457,92.95232 140.57161,92.95232 140.57161,92.95232C140.57161,92.95232 140.55,78.36633 140.55,78.36633C140.55,78.36633 134.65079,91.13718 134.65079,91.13718M145.56326,92.95232C145.56326,92.95232 145.56326,77.50198 145.56326,77.50198C145.56326,77.50198 146.94623,77.50198 146.94623,77.50198C146.94623,77.50198 146.94623,92.95232 146.94623,92.95232C146.94623,92.95232 145.56326,92.95232 145.56326,92.95232C145.56326,92.95232 145.56326,92.95232 145.56326,92.95232M150.96547,92.95232C150.96547,92.95232 150.96547,77.5236 150.96547,77.5236C150.96547,77.5236 159.93315,77.5236 159.93315,77.5236C159.93315,77.5236 159.93315,78.43117 159.93315,78.43117C159.93315,78.43117 152.32683,78.43117 152.32683,78.43117C152.32683,78.43117 152.32683,84.6329 152.32683,84.6329C152.32683,84.6329 157.96672,84.6329 157.96672,84.6329C157.96672,84.6329 157.96672,85.56208 157.96672,85.56208C157.96672,85.56208 152.32683,85.56208 152.32683,85.56208C152.32683,85.56208 152.32683,92.02314 152.32683,92.02314C152.32683,92.02314 160.45174,92.02314 160.45174,92.02314C160.45174,92.02314 160.45174,92.95232 160.45174,92.95232C160.45174,92.95232 150.96547,92.95232 150.96547,92.95232C150.96547,92.95232 150.96547,92.95232 150.96547,92.95232M164.55742,84.37358C164.55742,84.37358 168.38217,84.37358 168.38217,84.37358C171.25616,84.37358 172.03407,82.66648 172.03407,81.39159C172.03407,80.0302 171.10489,78.45277 168.38217,78.45277C168.38217,78.45277 164.55742,78.45277 164.55742,78.45277C164.55742,78.45277 164.55742,84.37358 164.55742,84.37358C164.55742,84.37358 164.55742,84.37358 164.55742,84.37358M163.19606,77.50198C163.19606,77.50198 168.38217,77.50198 168.38217,77.50198C171.8828,77.50198 173.50348,79.07941 173.50348,81.19711C173.50348,83.61728 171.64511,84.74095 170.1541,84.91383C171.64511,85.25954 172.07729,86.27516 172.53108,87.39884C172.53108,87.39884 174.75679,92.95232 174.75679,92.95232C174.75679,92.95232 173.33063,92.95232 173.33063,92.95232C171.6019,88.58732 170.97522,87.00985 170.8672,86.7722C170.43503,85.84302 169.87318,85.43242 168.90082,85.43242C168.90082,85.43242 164.55742,85.43242 164.55742,85.43242C164.55742,85.43242 164.55742,92.95232 164.55742,92.95232C164.55742,92.95232 163.19606,92.95232 163.19606,92.95232C163.19606,92.95232 163.19606,77.50198 163.19606,77.50198C163.19606,77.50198 163.19606,77.50198 163.19606,77.50198M177.54433,92.95232C177.54433,92.95232 177.54433,77.5236 177.54433,77.5236C177.54433,77.5236 186.51201,77.5236 186.51201,77.5236C186.51201,77.5236 186.51201,78.43117 186.51201,78.43117C186.51201,78.43117 178.90569,78.43117 178.90569,78.43117C178.90569,78.43117 178.90569,84.6329 178.90569,84.6329C178.90569,84.6329 184.54559,84.6329 184.54559,84.6329C184.54559,84.6329 184.54559,85.56208 184.54559,85.56208C184.54559,85.56208 178.90569,85.56208 178.90569,85.56208C178.90569,85.56208 178.90569,92.02314 178.90569,92.02314C178.90569,92.02314 187.03059,92.02314 187.03059,92.02314C187.03059,92.02314 187.03059,92.95232 187.03059,92.95232C187.03059,92.95232 177.54433,92.95232 177.54433,92.95232C177.54433,92.95232 177.54433,92.95232 177.54433,92.95232" style="pointer-events:inherit"/><rect id="svg_39" x="85.61719078850001" y="77.50390991801396" width="101.41406495217234" height="15.47177043184638" fill="#000000" opacity="0" style="pointer-events:inherit"/></g></g><defs><mask id="canvasMaskImageDef" maskUnits="objectBoundingBox" x="0" y="0"><image xmlns:xlink="http://www.w3.org/1999/xlink" id="canvasMaskImage" preserveAspectRatio="none" x="-103.65" y="-36.45" width="400" height="440.0580551523948" xlink:href="http://allinonedesigner.designnbuy.in/media/catalog/product/w/h/white-tees-1_-front_1_3.png"/></mask></defs></svg>