<?xml version="1.0" encoding="utf-8"?>
<!-- Generator: Adobe Illustrator 16.0.0, SVG Export Plug-In . SVG Version: 6.00 Build 0)  -->
<!DOCTYPE svg PUBLIC "-//W3C//DTD SVG 1.1//EN" "http://www.w3.org/Graphics/SVG/1.1/DTD/svg11.dtd">
<svg version="1.1"
	 id="svg1" xmlns:cc="http://creativecommons.org/ns#" xmlns:dc="http://purl.org/dc/elements/1.1/" xmlns:rdf="http://www.w3.org/1999/02/22-rdf-syntax-ns#"
	 xmlns="http://www.w3.org/2000/svg" xmlns:xlink="http://www.w3.org/1999/xlink" x="0px" y="0px" width="144.018px" height="108px"
	 viewBox="0 0 144.018 108" enable-background="new 0 0 144.018 108" xml:space="preserve">
<path fill="#000066" d="M0,4.025V12h15.948L0,4.025z M72,0L72,0L72,0z M63.95,0h2.682h0.001H42v10.977L63.95,0z M8.05,0L30,10.977V0
	H0h0.001H8.05z M0,24v7.977L15.951,24H0z M144,108V0H72l0,0v4.025L56.05,12H72v2.4v7.2V24H56.048L72,31.977v1.34V36l0,0h-8.05
	L42,25.025V36h-2.4h-7.2H30V25.025L8.05,36H0v72"/>
<path fill="#CC0000" d="M0,21.6v-7.2H32.4V0h7.2v14.4H72v7.2H39.6V36h-7.2V21.6H0z M29.365,24H24L0,36h5.365L29.365,24z M42.633,12
	H48L72,0l0,0h-5.367l0,0L42.633,12z M24,12L0,0l0,0l0,0v2.684L18.633,12H24z M48,24l24,12v-2.684L53.367,24H48z"/>
<path fill="#CC0000" stroke="#FCFCFC" stroke-miterlimit="10" d="M107.027,35.547l-3.136-2.277h3.875l1.197-3.686l1.197,3.686h3.876
	l-3.137,2.278l1.196,3.687l-3.135-2.278l-3.135,2.278L107.027,35.547z M86.72,56.855l-1.197-3.687l-1.196,3.687H80.45l3.135,2.276
	l-1.197,3.688l3.137-2.278l3.136,2.278l-1.197-3.688l3.135-2.277H86.72L86.72,56.855z M130.055,51.012l-0.998-3.072l-0.998,3.074
	h-3.229l2.611,1.897l-0.998,3.071l2.611-1.897l2.613,1.897l-0.998-3.072l2.612-1.898H130.055z M110.362,93.87l-1.396-4.3l-1.396,4.3
	h-4.521l3.657,2.657l-1.396,4.3l3.657-2.657l3.658,2.657l-1.397-4.3l3.658-2.657H110.362z"/>
</svg>
