<?xml version="1.0" encoding="utf-8"?>
<!-- Generator: Adobe Illustrator 16.0.0, SVG Export Plug-In . SVG Version: 6.00 Build 0)  -->
<!DOCTYPE svg PUBLIC "-//W3C//DTD SVG 1.1//EN" "http://www.w3.org/Graphics/SVG/1.1/DTD/svg11.dtd">
<svg version="1.1"
	 id="svg986" xmlns:cc="http://creativecommons.org/ns#" xmlns:dc="http://purl.org/dc/elements/1.1/" xmlns:rdf="http://www.w3.org/1999/02/22-rdf-syntax-ns#"
	 xmlns="http://www.w3.org/2000/svg" xmlns:xlink="http://www.w3.org/1999/xlink" x="0px" y="0px" width="143.447px"
	 height="71.281px" viewBox="0 0 143.447 71.281" enable-background="new 0 0 143.447 71.281" xml:space="preserve">
<rect id="rect1390" x="0" y="0.362" fill="#6797D6" width="143.444" height="71.16"/>
<path fill="#FFFFFF" d="M71.692,17.456l-4.545,3.085l1.742-4.987l-4.549-3.083l5.62,0.005l1.732-4.992l1.732,4.992l5.621-0.003
	l-4.551,3.082l1.741,4.988l0,0L71.692,17.456z M71.692,54.57l-4.545-3.086l1.742,4.99l-4.549,3.081l5.62-0.007l1.732,4.994
	l1.732-4.994l5.621,0.004l-4.551-3.078l1.741-4.99l0,0L71.692,54.57z M49.849,38.633l-3.438,4.271l0.197-5.275l-5.261-1.63
	l5.378-1.625l0.185-5.277l3.128,4.272l5.374-1.633l-3.444,4.266l3.136,4.268l0,0L49.849,38.633z M93.525,38.633l3.437,4.271
	l-0.194-5.275l5.259-1.63l-5.378-1.625l-0.185-5.277l-3.129,4.272l-5.374-1.633l3.444,4.266L88.27,40.27l0,0L93.525,38.633z"/>
</svg>
