<?xml version="1.0" encoding="utf-8"?>
<!-- Generator: Adobe Illustrator 15.1.0, SVG Export Plug-In . SVG Version: 6.00 Build 0)  -->
<!DOCTYPE svg PUBLIC "-//W3C//DTD SVG 1.1//EN" "http://www.w3.org/Graphics/SVG/1.1/DTD/svg11.dtd">
<svg version="1.1" id="Layer_1" xmlns="http://www.w3.org/2000/svg" xmlns:xlink="http://www.w3.org/1999/xlink" x="0px" y="0px"
	 width="100px" height="100px" viewBox="0 0 100 100" enable-background="new 0 0 100 100" xml:space="preserve">
<path d="M33.198,4.991c-4.28-1.93-4.7,3.861-5.455,5.204c-0.754,1.342-2.937,2.266-3.526,6.211c-0.586,3.944,1.68,5.707,3.357,5.371
	c1.68-0.336,2.687-4.197,3.107-4.028c0.419,0.168,0.335,2.937,0.671,3.776c0.335,0.84,0,3.273,0.504,5.624
	c0.502,2.349,3.775,5.371,4.364,6.546c0.586,1.175,5.034,1.259,6.545,1.343c1.511,0.083,4.029-2.098,4.281-3.189
	c0.252-1.091,1.51-1.006,1.847-1.93c0.335-0.923,2.014-8.309,2.517-8.813c0.504-0.503,1.007-0.419,0.923,0.168
	s-1.174,3.44-1.426,4.448c-0.252,1.007,0.168,6.714-0.335,8.057c-0.504,1.342-0.252,9.147,0,10.071c0.251,0.923,0,5.54,0,6.462
	c0,0.923,1.258,2.937,1.258,2.937s-0.446,1.483-0.587,2.183c-0.14,0.699-0.587,1.986-0.923,2.602s-0.561,2.35-0.503,2.77
	c0.056,0.42-0.783,1.371-0.587,1.176c0.196-0.196,0,0.923,0,0.923s-0.644,1.231-0.839,1.175s0.14,0.616,0.336,1.007
	c0.196,0.728-0.839,0.252-0.839,0.252s-0.084,0.699,0.42,0.924c0.503,0.223-1.231,2.125-0.756,2.266
	c0.308-0.141,1.036-1.035,1.092-0.588c0.056,0.447-0.393,2.742-0.085,3.189c0.309-0.168,0.979-0.447,1.008,0
	c0.027,0.447-0.197,1.398,0.503,1.763c0.7,0.362,1.202,0.866,1.595,1.175c0.391,0.308,0.279-0.644,0.503-0.588
	c0.225,0.057,1.428,1.428,1.428,1.428s1.594,6.518,1.594,7.638c0,1.117,1.398,8.728,1.426,9.567c0.029,0.838,0.673,1.09,0.673,1.09
	s-0.027,0.588,0.252,1.511s3.3,1.707,3.776,1.931c0.476,0.224,0.923,1.622,1.175,2.098c0.252,0.477,1.259,0.42,1.176-0.083
	c-0.085-0.504-0.336-2.015-0.336-2.015s0.083-0.504,0.838-0.251c0.756,0.251,4.113,1.482,4.869,1.846
	c0.755,0.362,1.482-0.195,1.09-0.588c-0.391-0.391-1.789-1.398-1.594-1.427c1.034-0.308,3.944,0.42,5.035,0.756
	s1.595-0.84,1.007-1.091c-0.588-0.253-1.259-0.588-1.259-0.588s1.567-0.167,2.099-0.167c0.532,0,0.699-0.951,0-1.092
	c-0.699-0.14-5.848-0.867-6.044-1.092c-0.194-0.224,0.813-0.279,1.429-0.335c0.614-0.056,0.335-1.007-0.337-1.007
	c-0.671,0-5.482-0.56-6.209-0.504c-0.616-0.673-0.561-2.406-0.924-2.601c-0.364-0.198-0.645-0.421-0.923-1.176
	c-0.281-0.756-0.673-5.68-0.337-5.792c0.337-0.111,1.007,0.504,1.511,0.84s4.197-0.391,4.785-0.336
	c0.587,0.057,1.594,0.111,2.266,0.168c0.671,0.056,0.503-0.672,0.252-0.755c-0.252-0.085-0.504-0.252-0.504-0.252
	s3.775-0.28,4.363-0.252c0.589,0.028,0.531-0.588,0.084-0.755c-0.447-0.169-0.672-0.252-0.672-0.252s0.392-0.644,0.085-0.84
	c-0.308-0.195-2.714-0.251-3.608-0.168c-0.896,0.085-3.694,0.168-3.694,0.168s-1.342-0.532-1.342-0.839
	c0-0.308-0.615-1.818-1.259-2.182c-0.644-0.364-0.531-2.658-0.504-3.021c0.027-0.364-0.503-0.672-0.503-0.672
	s1.202-1.259,1.259-1.595c0.056-0.336-0.561-0.168-0.756-0.419c-0.699-0.42,2.882-0.924,2.854-1.344
	c-0.029-0.419-1.092-0.139-1.344-0.503s0.812-1.035,0.923-1.428c0.112-0.391-0.447-0.391-0.503-0.755
	c-0.057-0.363-0.168-1.818-0.505-2.266c-0.335-0.448-0.418-2.434-0.418-2.434s0.027-0.644,1.006-1.26
	c0.98-0.615,1.932-12.645,2.183-13.511c0.252-0.868,0.476-2.49,0.252-2.853c-0.223-0.365-0.671-2.659-0.42-3.274
	c1.035-2.07,0.084-3.357-0.083-4.028c-0.168-0.671,0.251-4.448,0.251-4.448l0.587-4.868c0,0,0.112-0.475,0.085-2.014
	c-0.027-1.539,0.476-4.728,0.923-5.875c0.447-1.146,1.176-4.895,1.176-6.964c-0.112-6.38-8.841-9.4-9.4-9.317
	c-0.335,0.028-0.728-1.314-2.603-2.013c-1.875-0.7-5.119-0.028-5.706,1.342c-0.141,0.364-1.203,0.364-2.77,0.755
	c-1.902,0.448-7.441,9.959-7.804,10.492c-2.714-2.491-6.799-2.938-6.799-2.938s0.252-0.839,0.252-1.679
	c0-0.839-0.672-1.511-1.344-1.846C33.954,7.006,33.954,5.579,33.198,4.991z"/>
</svg>
