<?xml version="1.0" encoding="utf-8"?>
<!-- Generator: Adobe Illustrator 16.0.0, SVG Export Plug-In . SVG Version: 6.00 Build 0)  -->
<!DOCTYPE svg PUBLIC "-//W3C//DTD SVG 1.1//EN" "http://www.w3.org/Graphics/SVG/1.1/DTD/svg11.dtd">
<svg version="1.1" id="Layer_1" xmlns="http://www.w3.org/2000/svg" xmlns:xlink="http://www.w3.org/1999/xlink" x="0px" y="0px"
	 width="100px" height="100px" viewBox="0 0 100 100" enable-background="new 0 0 100 100" xml:space="preserve">
<path d="M46.443,48.347c6.872,1.29,10.778,6.536,11.999,13.354c0.506,2.822,0.373,5.93,0.697,8.773
	c0.228,1.995,1.661,3.362,1.256,5.215c-7.289-4.42-14.616-8.808-17.161-17.551c-0.141-0.253-0.348-0.445-0.558-0.636
	c0.167-1.271-0.361-1.617,0-2.416c-0.341-0.049-0.523,0.152-0.558-0.637c-1.434,0.877-1.822,2.305-2.651,2.924
	c0.337,0.627,0.933,1.017,1.535,1.399c0.174,1.24,0.921,1.957,1.534,2.797c1.734,3.949,3.893,8.384,3.349,13.607
	c-0.229,2.197-0.246,3.926-0.418,6.23c-0.281,3.752-2.209,6.641-2.93,10.047c-0.111,0.529,0.256,1.209-0.418,1.527
	c-0.642-0.008-0.759-0.494-0.697-1.146c-3.022-5.668-9.934-10.174-9.766-18.06c0.078-3.635,1.408-6.975,2.511-10.301
	c-1.357,1.094-2.288,2.576-3.627,3.688c-0.673,2.912-2.747,5.203-3.209,7.885c-1.29,0.521-1.786,1.765-2.372,2.927
	c-1.538,1.27-2.838,2.752-4.325,4.069c-1.118,0.42-2.113,0.957-2.651,1.906c-2.331,0.803-5.236,2.176-8.23,2.797
	c-0.505,0.135-0.773,0.483-1.117,0.765c-0.251-0.449-1.517-0.519-1.674,0.127c-1.384-0.826-4.372,0.924-5.999,0.256
	c0.93-2.078,2.588-4.17,2.93-6.359c1.602-1.529,2.657-3.686,4.186-5.469c0.425-0.496,0.823-1.031,1.255-1.525
	c0.636-0.73,1.71-1.305,1.814-2.289c1.38-0.363,1.837-1.477,2.929-2.162c0.6-0.377,1.494-0.652,2.232-1.018
	c0.717-0.354,1.438-0.896,2.093-1.145c2-0.755,4.317-0.734,6.696-1.273c1.131-0.254,2.23-1.076,3.488-1.146
	c1.297-1.104,2.727-2.09,3.627-3.561c-0.369-0.244-0.909,0.209-0.977,0.637c-0.61-0.098-1.289-0.043-1.535,0.638
	c-0.769-0.242-1.831,0.256-2.232,0.764c-1.177-0.357-2.64,0.371-4.325,0.508c-2.522,0.201-5.14-0.348-7.394-0.254
	c-0.405,0.109-0.157,0.189-0.139,0.506c-0.263-0.014-0.097-0.42-0.419-0.381C11.539,64.93,6.91,64.934,4.45,66.914
	c0.211-1.975,1.794-3.555,3.209-4.961c2.385-2.369,4.955-4.592,8.371-6.357c1.196-0.619,2.403-1.389,3.349-1.781
	c1.774-0.733,3.74-0.879,5.44-1.778c0.997,0.293,2.083-0.281,3.209-0.384c4.22-0.375,8.323,0.769,11.439,1.908
	c1.755-1.537,2.965-3.571,4.186-5.595c-1.372,0.461-4.71,0.536-5.999,0.254c-0.438-0.061-0.394,0.32-0.558,0.509
	c-0.23-0.385-0.69-0.559-0.977-0.891c-3.133-0.578-6.236-1.183-9.208-1.908c-0.379,0.081-1.107-0.16-1.256,0.128
	C20.37,44.526,13.735,46.5,9.472,48.22c-0.46-3.48,2.701-5.533,5.301-7.376c3.989-2.828,10.464-5.496,16.601-5.214
	c3.287,0.15,6.212,1.323,9.208,2.29c0.569,0.542,1.172,1.051,2.232,1.145c1.099,1.626,2.762,2.739,4.046,4.196
	c1.168-1.393,1.9-3.185,2.93-4.705c-0.92-0.162-2.705-0.34-4.325-0.126c-0.286-0.07-0.333,0.242-0.14,0.254
	c-0.64-0.185-1.611-0.731-3.069-0.891c-0.391-1.074-1.645-0.752-2.511-1.398c-0.778-0.58-1.636-1.436-2.371-2.162
	c-1.864-1.841-3.181-4.299-5.022-6.231c-2.527-2.651-4.922-4.782-8.789-5.85c-0.474-0.036-1.131,0.098-1.395-0.128
	c-0.107-1.226,1.749-1.125,2.79-1.272c2.865-0.405,7.783-0.806,10.742-0.126c5.505,1.265,9.173,3.85,12.138,7.756
	c1.561,2.06,2.456,4.493,4.186,6.615c1.033-0.883,2.006-3.036,3.068-4.579c0.598-0.868,2.781-2.958,2.79-4.196
	c0.011-1.549-2.391-2.243-3.487-3.306c-0.371-1.062-1.162-1.739-1.953-2.417c-1.229,0.823-4.076,1.288-6.277,0.381
	c-1.135-0.466-1.54-1.631-2.512-1.908c-0.125-0.86-0.437-1.551-0.837-2.161c-0.519-4.263,2.32-5.793,4.883-6.867
	c3.265-0.543,4.765,0.862,6.276,2.162c0.349,1.642,1.445,3.718,0.42,5.468c1.219,2.239,2.531,4.39,5.021,5.468
	c3.035-4.61,4.051-11.06,6.697-16.022c0.693,0.102,0.869,1.09,0.416,1.524c0.224,2.37-0.631,5.422-1.395,7.759
	c-0.447,1.374-1.496,2.757-1.674,4.069c-0.191,1.428,0.693,2.87,1.116,4.196c0.954,3.001,1.698,6.6,2.93,9.538
	c1.533-1.528,2.608-3.473,4.324-4.833c3.079-0.966,4.671-3.288,7.114-4.833c0.037,2.051-1.75,4.308-1.115,6.233
	c-1.286,4.73-2.78,9.623-7.952,10.427c0.776,1.732,2.419,3.714,4.046,5.088c2.528-1.579,5.186-4.24,9.348-3.816
	c0.981,0.101,4.451,0.539,4.742,1.4c0.307,0.898-1.643,3.771-2.23,4.45c-1.602,1.845-4.391,2.826-7.534,1.908
	c0.438,0.915,2.467,1.481,3.487,2.289c3.33-0.836,5.648,0.611,7.953,1.652c4.066,2.991,5.092,8.754,7.115,13.606
	c0.883,0.807,1.619,1.746,2.23,2.799c-3.536,1.347-9.253-1.953-12.557-2.926c0.578-0.316-1.461-1.371-1.953-1.779
	c-2.068-1.719-4.225-4.217-5.021-7.121c-0.314-1.151,0.082-2.604,0-3.94c-1.393-1.254-3.008-2.67-4.743-3.944
	c0.816,4.653,0.625,9.209-0.696,13.987c-0.646-0.047-0.551-0.769-0.697-1.271c-2.631-4.666-7.243-8.631-6.557-15.771
	c0.137-1.438,0.319-3.034,0.696-4.323c-1.233-2.711-1.026-5.613-2.231-8.139c0.229-1.783-1.064-3.532-1.535-5.34
	c-0.545-2.104-0.483-4.396-1.952-5.85c-2.358,3.995-4.831,7.889-7.255,11.825c2.423-0.335,4.894,1.558,6.277,3.435
	c1.366,1.852,1.992,4.27,2.791,6.487c1.104,3.074,1.281,7.294,1.953,10.937c0.25,1.355,1.028,2.584,0.418,3.816
	c-2.396-1.381-3.291-4.125-5.721-5.47c-1.195-1.75-2.693-3.227-4.325-4.579c-1.263-2.213-3.187-4.748-4.046-7.375
	c-0.213-0.654-0.492-1.688-0.277-2.289C49.076,42.552,47.684,45.877,46.443,48.347z"/>
</svg>
