<?xml version="1.0" encoding="utf-8"?>
<!-- Generator: Adobe Illustrator 16.0.0, SVG Export Plug-In . SVG Version: 6.00 Build 0)  -->
<!DOCTYPE svg PUBLIC "-//W3C//DTD SVG 1.1//EN" "http://www.w3.org/Graphics/SVG/1.1/DTD/svg11.dtd">
<svg version="1.1" id="Layer_1" xmlns="http://www.w3.org/2000/svg" xmlns:xlink="http://www.w3.org/1999/xlink" x="0px" y="0px"
	 width="100px" height="100px" viewBox="0 0 100 100" enable-background="new 0 0 100 100" xml:space="preserve">
<path d="M79.341,14.704c0.438,0.269-0.315,0.441-0.543,0.649c-0.514,0.468-0.229,0.649-0.229,0.649
	c0.902,0.077,1.178-0.46,1.178-0.46c0.347-0.696,0.902-0.273,0.902-0.273c0.033,0.939-2.08,1.271-2.08,1.271
	c0.246,0.207,0.986,0.029,0.986,0.029c1.322-0.265,1.225,0.236,1.225,0.236c-0.332,0.639-2.725,0.01-2.725,0.01l-0.893,0.436
	c0.201,0.417,1.208,0.342,1.208,0.342s1.573-0.483,1.278,0.158c-1.238,1.131-3.01-0.357-3.01-0.357l-1.088,0.527
	c0.34,0.8,1.194,0.419,1.872,0.557c0.679,0.138,0.252,0.53,0.252,0.53c-1.5,0.835-2.784-0.958-2.784-0.958l-1.197,0.353
	c0.262,0.507,1.086,0.416,1.086,0.416c1.31-0.002,0.738,0.596,0.738,0.596c-0.738,0.53-2.386-0.868-2.386-0.868l-4.017,1.083
	c0.386-0.049,0.779-0.101,1.164-0.133c0.869-0.07,1.886,0.251,2.664,0.478c0.799,0.23,1.58,0.587,1.869,1.227
	c0.026,0.065,0.225,0.528,0.106,0.6c-1.396,0.846-4.412-1.333-4.412-1.333c-1.862-0.985-3.966,0.067-3.966,0.067
	c3.109,0.34,3.572,3.112,3.572,3.112c-3.049,0.438-5.043-2.646-5.043-2.646c-0.969,0.24-0.637,0.563-0.637,0.563
	c0.599,1.523-2.453,2.122-1.802,1.478c0.654-0.639,0.138-0.924,0.138-0.924c-1.485,0.597-2.817,2.201-2.817,2.201
	c4.944-0.923,6.159,0.864,6.159,0.864c-1.717,1.595-6.236-0.658-6.236-0.658s-0.044,0.008-0.102,0.045
	c-0.069-0.107-0.16-0.203-0.248-0.293c0.266-0.551,0.602-0.669,0.602-0.669c-1.343-4.285,1.809-4.877,1.809-4.877
	c1.222,0.45-0.115,3.577-0.115,3.577l2.471-1.29c0.693-4.041,3.58-4.709,3.58-4.709c0.352,1.317-1.314,3.931-1.314,3.931
	l2.109-0.864c0.645-3.587,3.471-4.501,3.471-4.501c0.547,2.136-1.508,4.025-1.508,4.025l2.387-0.66c0,0,0.312-1.632,0.852-1.506
	c0.544,0.125-0.113,0.606-0.113,0.606c-0.417,0.713-0.252,0.756-0.252,0.756l1.135-0.387c0,0-0.125-1.374,0.401-1.545
	c0.522-0.171,0.759-0.097,0.349,0.567c-0.404,0.659-0.123,0.867-0.123,0.867l0.982-0.346l0.537-1.532
	c0.146-0.417,0.688-0.26,0.305,0.43c-0.379,0.688-0.314,0.906-0.314,0.906c0.555-0.112,1.147-0.625,1.147-0.625
	C78.167,14.954,78.837,14.394,79.341,14.704z M20.797,14.704c-0.44,0.269,0.315,0.441,0.546,0.649
	c0.514,0.468,0.226,0.649,0.226,0.649c-0.903,0.077-1.178-0.46-1.178-0.46c-0.346-0.696-0.903-0.273-0.903-0.273
	c-0.034,0.939,2.081,1.271,2.081,1.271c-0.242,0.207-0.983,0.029-0.983,0.029c-1.326-0.265-1.225,0.236-1.225,0.236
	c0.329,0.639,2.72,0.01,2.72,0.01l0.893,0.436c-0.201,0.417-1.208,0.342-1.208,0.342s-1.57-0.483-1.274,0.158
	c1.238,1.131,3.006-0.357,3.006-0.357l1.09,0.527c-0.342,0.8-1.194,0.419-1.875,0.557c-0.677,0.138-0.251,0.53-0.251,0.53
	c1.503,0.835,2.785-0.958,2.785-0.958l1.197,0.353c-0.258,0.507-1.083,0.416-1.083,0.416c-1.308-0.002-0.742,0.596-0.742,0.596
	c0.742,0.53,2.386-0.868,2.386-0.868l4.02,1.083c-0.389-0.049-0.778-0.101-1.165-0.133c-0.872-0.07-1.889,0.251-2.667,0.478
	c-0.798,0.23-1.58,0.587-1.865,1.227c-0.03,0.065-0.225,0.528-0.111,0.6c1.399,0.846,4.416-1.333,4.416-1.333
	c1.859-0.985,3.966,0.067,3.966,0.067c-3.114,0.34-3.577,3.112-3.577,3.112c3.05,0.438,5.046-2.646,5.046-2.646
	c0.966,0.24,0.637,0.563,0.637,0.563c-0.597,1.523,2.45,2.122,1.799,1.478c-0.655-0.639-0.138-0.924-0.138-0.924
	c1.49,0.597,2.818,2.201,2.818,2.201c-4.942-0.923-6.161,0.864-6.161,0.864c1.718,1.595,6.237-0.658,6.237-0.658
	s0.044,0.008,0.101,0.045c0.074-0.107,0.161-0.203,0.249-0.293c-0.265-0.551-0.597-0.669-0.597-0.669
	c1.342-4.285-1.808-4.877-1.808-4.877c-1.222,0.45,0.114,3.577,0.114,3.577l-2.473-1.29c-0.694-4.041-3.576-4.709-3.576-4.709
	c-0.356,1.317,1.312,3.931,1.312,3.931l-2.111-0.864C30.825,15.79,28,14.875,28,14.875c-0.546,2.136,1.507,4.025,1.507,4.025
	l-2.386-0.66c0,0-0.309-1.632-0.852-1.506c-0.543,0.125,0.114,0.606,0.114,0.606c0.419,0.713,0.251,0.756,0.251,0.756L25.5,17.709
	c0,0,0.127-1.374-0.399-1.545c-0.527-0.171-0.758-0.097-0.352,0.567c0.409,0.659,0.127,0.867,0.127,0.867l-0.983-0.346l-0.541-1.532
	c-0.147-0.417-0.684-0.26-0.305,0.43c0.379,0.688,0.315,0.906,0.315,0.906c-0.553-0.112-1.147-0.625-1.147-0.625
	C21.972,14.954,21.3,14.394,20.797,14.704z M41.337,21.673c-0.061,0.379-0.178,0.901-0.369,1.367
	c-0.191,0.468-0.45,0.881-0.567,1.136c-0.117,0.25-0.094,0.347-0.03,0.367c0.067,0.019,0.175-0.037,0.295-0.188
	c0.117-0.153,0.255-0.401,0.416-0.755c0.158-0.349,0.342-0.806,0.48-1.278c0.141-0.472,0.238-0.965,0.332-1.457
	c0.171,0.01,0.339,0.021,0.51,0.025c0.07-0.277,0.137-0.554,0.215-1.159c0.08-0.61,0.164-1.548,0.264-2.147
	c0.098-0.597,0.206-0.852,0.406-1.107c0.205-0.253,0.497-0.503,0.631-0.671c0.141-0.167,0.118-0.251,0.145-0.343
	c0.03-0.094,0.111-0.198,0.231-0.334c0.128-0.139,0.292-0.315,0.466-0.413c0.171-0.094,0.356-0.105,0.537-0.116
	c-0.177-0.156-0.366-0.309-0.57-0.436c-0.201-0.119-0.429-0.205-0.742-0.181c-0.305,0.02-0.698,0.158-0.997,0.408
	c-0.292,0.251-0.49,0.616-0.624,1.046c-0.134,0.425-0.202,0.913-0.208,1.421c0,0.508,0.07,1.035,0.087,1.53
	c0.026,0.495,0.003,0.956-0.037,1.283c-0.041,0.331-0.098,0.525-0.151,0.624C42,20.389,41.95,20.392,41.939,20.27
	c-0.01-0.116,0.023-0.349,0.01-0.653c-0.017-0.302-0.074-0.671-0.151-1.087c-0.073-0.416-0.167-0.879-0.332-1.354
	c-0.164-0.475-0.406-0.968-0.704-1.507c-0.296-0.539-0.654-1.122-0.896-1.565c-0.239-0.439-0.359-0.742-0.49-1.151
	c-0.135-0.409-0.278-0.931-0.366-1.258c-0.081-0.327-0.104-0.456-0.175-0.515c-0.067-0.052-0.188-0.034-0.271-0.012
	c-0.084,0.022-0.138,0.05-0.195,0.009c-0.06-0.044-0.128-0.156-0.182-0.359c-0.05-0.203-0.08-0.501-0.06-0.742
	c0.017-0.24,0.081-0.426,0.175-0.548c0.094-0.122,0.204-0.178,0.319-0.23c-0.168-0.114-0.336-0.226-0.567-0.253
	c-0.228-0.023-0.516,0.042-0.748,0.203c-0.239,0.161-0.416,0.418-0.486,0.784c-0.07,0.362-0.031,0.832,0.144,1.305
	c0.175,0.471,0.484,0.938,0.886,1.417c0.403,0.478,0.902,0.961,1.345,1.461c0.443,0.493,0.826,1.004,1.141,1.54
	c0.315,0.529,0.564,1.081,0.758,1.631c0.185,0.552,0.318,1.105,0.399,1.604c0.07,0.503,0.09,0.949,0.11,1.396
	c-0.043-0.021-0.09-0.04-0.144-0.055c-0.02-0.161-0.044-0.315-0.081-0.561c-0.03-0.257-0.067-0.603-0.141-0.946
	c-0.073-0.341-0.181-0.69-0.366-0.989c-0.178-0.293-0.426-0.546-0.722-0.82c-0.282-0.275-0.604-0.576-0.942-0.762
	c-0.338-0.18-0.694-0.25-1.05-0.243c-0.359,0.005-0.718,0.081-1.037,0.231c-0.315,0.153-0.594,0.381-0.778,0.665
	c-0.178,0.283-0.258,0.612-0.249,0.849c0.013,0.235,0.117,0.377,0.225,0.389c0.108,0.017,0.222-0.101,0.315-0.24
	c0.094-0.127,0.165-0.28,0.289-0.412c0.124-0.13,0.301-0.24,0.486-0.269c0.184-0.021,0.382,0.034,0.473,0.106
	c0.091,0.065,0.074,0.153,0.054,0.26c-0.021,0.118-0.05,0.264,0.006,0.353c0.061,0.086,0.205,0.114,0.379,0.099
	c0.174-0.023,0.373-0.087,0.577-0.138c0.205-0.052,0.413-0.087,0.664-0.041c0.255,0.049,0.557,0.175,0.813,0.438
	c0.254,0.264,0.459,0.665,0.566,1.11c0.101,0.447,0.101,0.94,0.101,1.433c0.124-0.005,0.242-0.003,0.369-0.007
	C41.408,21.069,41.401,21.302,41.337,21.673L41.337,21.673z M50.574,1.805c0.482-0.174,0.144,0.519,0.16,0.831
	c0.037,0.693,0.363,0.587,0.363,0.587c0.625-0.652,0.383-1.206,0.383-1.206c-0.318-0.706,0.354-0.872,0.354-0.872
	c0.755,0.567-0.321,2.414-0.321,2.414c0.315-0.057,0.641-0.743,0.641-0.743c0.628-1.196,0.959-0.804,0.959-0.804
	c0.285,0.663-1.706,2.12-1.706,2.12L51.178,5.1c0.453,0.107,1.026-0.721,1.026-0.721s0.616-1.526,0.93-0.891
	c0.099,1.674-2.175,2.11-2.175,2.11l-0.277,1.174c0.838,0.24,1.08-0.663,1.613-1.104c0.536-0.44,0.57,0.139,0.57,0.139
	c-0.295,1.694-2.5,1.56-2.5,1.56l-0.477,1.151c0.554,0.119,1.002-0.581,1.002-0.581c0.825-1.015,0.93-0.196,0.93-0.196
	c-0.053,0.904-2.177,1.304-2.177,1.304l-1.69,3.801c0.208-0.331,0.412-0.668,0.631-0.988c0.493-0.72,1.386-1.305,2.05-1.768
	c0.685-0.477,1.453-0.855,2.13-0.678c0.07,0.02,0.551,0.158,0.533,0.294c-0.222,1.622-3.814,2.586-3.814,2.586
	c-1.94,0.824-2.45,3.122-2.45,3.122c2.228-2.199,4.671-0.815,4.671-0.815c-1.584,2.644-5.234,2.253-5.234,2.253
	c-0.423,0.899,0.037,0.845,0.037,0.845c1.56,0.498,0.101,3.243,0.013,2.333c-0.084-0.911-0.631-0.689-0.631-0.689
	c-0.473,1.531-0.067,3.57-0.067,3.57c2.399-4.416,4.553-4.236,4.553-4.236c0.154,2.34-4.442,4.429-4.442,4.429
	s-0.021,0.041-0.03,0.107c-0.127-0.012-0.254-0.001-0.382,0.005c-0.262-0.55-0.141-0.884-0.141-0.884
	c-4.174-1.659-2.65-4.479-2.65-4.479c1.121-0.663,2.708,2.342,2.708,2.342l0.553-2.729c-2.698-3.083-1.399-5.748-1.399-5.748
	c1.245,0.556,2.224,3.498,2.224,3.498l0.658-2.181c-2.379-2.763-1.305-5.533-1.305-5.533c2.003,0.921,2.174,3.708,2.174,3.708
	l0.993-2.266c0,0-1.074-1.272-0.634-1.614c0.439-0.34,0.399,0.472,0.399,0.472c0.289,0.773,0.426,0.671,0.426,0.671L49.94,7.35
	c0,0-1.144-0.77-0.946-1.283c0.201-0.517,0.403-0.651,0.661,0.082c0.254,0.735,0.597,0.647,0.597,0.647l0.35-0.981l-0.85-1.386
	c-0.231-0.375,0.229-0.696,0.523,0.034c0.299,0.728,0.51,0.816,0.51,0.816c0.258-0.5,0.234-1.285,0.234-1.285
	C50.027,2.872,50.013,1.998,50.574,1.805z M58.871,21.656c0.061,0.375,0.181,0.896,0.372,1.362c0.19,0.468,0.45,0.877,0.571,1.132
	c0.117,0.253,0.093,0.349,0.025,0.368c-0.063,0.02-0.171-0.034-0.292-0.186c-0.116-0.151-0.255-0.399-0.419-0.752
	c-0.161-0.352-0.343-0.807-0.482-1.276c-0.146-0.473-0.238-0.963-0.334-1.458c-0.174,0.014-0.342,0.022-0.513,0.028
	c-0.069-0.278-0.138-0.553-0.218-1.161c-0.081-0.61-0.168-1.548-0.27-2.147c-0.101-0.599-0.205-0.852-0.408-1.107
	c-0.205-0.252-0.502-0.5-0.631-0.667c-0.142-0.166-0.121-0.253-0.148-0.346c-0.029-0.094-0.109-0.194-0.23-0.331
	c-0.123-0.139-0.291-0.315-0.467-0.413c-0.175-0.09-0.355-0.103-0.537-0.112c0.18-0.16,0.362-0.312,0.567-0.438
	c0.205-0.121,0.431-0.205,0.737-0.183c0.31,0.021,0.701,0.154,1,0.405c0.296,0.25,0.494,0.614,0.628,1.042
	c0.135,0.428,0.204,0.917,0.211,1.422c0.004,0.508-0.066,1.037-0.083,1.53c-0.024,0.495,0,0.956,0.04,1.287
	c0.04,0.327,0.097,0.521,0.149,0.623c0.063,0.092,0.111,0.094,0.121-0.025c0.012-0.116-0.025-0.351-0.014-0.653
	c0.018-0.303,0.074-0.671,0.148-1.088c0.072-0.416,0.166-0.877,0.328-1.354c0.168-0.477,0.405-0.968,0.705-1.508
	c0.295-0.538,0.649-1.127,0.889-1.566c0.238-0.443,0.358-0.743,0.49-1.156c0.131-0.407,0.273-0.933,0.357-1.255
	c0.081-0.329,0.104-0.459,0.175-0.515c0.066-0.054,0.191-0.034,0.275-0.012c0.084,0.02,0.134,0.05,0.19,0.005
	c0.061-0.042,0.127-0.158,0.182-0.359c0.05-0.203,0.076-0.5,0.061-0.743c-0.017-0.238-0.084-0.425-0.178-0.548
	c-0.096-0.12-0.205-0.176-0.318-0.229c0.168-0.114,0.336-0.228,0.563-0.25c0.228-0.027,0.521,0.035,0.751,0.196
	c0.238,0.163,0.416,0.418,0.486,0.783c0.069,0.363,0.03,0.834-0.142,1.305c-0.171,0.472-0.479,0.938-0.879,1.419
	c-0.401,0.481-0.901,0.961-1.347,1.463c-0.441,0.497-0.821,1.011-1.137,1.546c-0.313,0.529-0.561,1.083-0.752,1.633
	c-0.185,0.554-0.318,1.104-0.393,1.602c-0.073,0.503-0.094,0.948-0.109,1.394c0.043-0.021,0.09-0.037,0.141-0.054
	c0.022-0.16,0.047-0.315,0.08-0.561c0.031-0.255,0.066-0.6,0.141-0.946c0.074-0.344,0.182-0.691,0.359-0.985
	c0.181-0.298,0.43-0.553,0.722-0.828c0.282-0.275,0.604-0.574,0.942-0.762c0.338-0.183,0.69-0.25,1.051-0.247
	c0.355,0.005,0.715,0.079,1.037,0.231c0.314,0.152,0.597,0.379,0.777,0.663c0.182,0.282,0.262,0.609,0.248,0.846
	c-0.01,0.235-0.111,0.38-0.222,0.393c-0.106,0.013-0.222-0.103-0.315-0.238c-0.094-0.128-0.164-0.28-0.289-0.418
	c-0.127-0.124-0.302-0.234-0.488-0.26c-0.182-0.025-0.379,0.031-0.471,0.104c-0.091,0.069-0.076,0.152-0.054,0.263
	c0.021,0.113,0.05,0.262-0.007,0.349c-0.061,0.088-0.205,0.118-0.379,0.099c-0.176-0.021-0.376-0.087-0.577-0.137
	c-0.204-0.052-0.412-0.085-0.664-0.037c-0.255,0.047-0.562,0.176-0.813,0.441c-0.25,0.262-0.459,0.664-0.561,1.107
	c-0.102,0.448-0.102,0.943-0.102,1.438c-0.123-0.006-0.24-0.003-0.368-0.006C58.798,21.049,58.809,21.28,58.871,21.656
	L58.871,21.656z M49.584,1.805c-0.483-0.169-0.141,0.522-0.158,0.832c-0.037,0.695-0.359,0.589-0.359,0.589
	c-0.63-0.652-0.389-1.205-0.389-1.205C49,1.312,48.323,1.149,48.323,1.149c-0.751,0.569,0.329,2.413,0.329,2.413
	c-0.315-0.056-0.644-0.744-0.644-0.744c-0.631-1.192-0.959-0.797-0.959-0.797c-0.286,0.658,1.714,2.116,1.714,2.116l0.228,0.966
	c-0.453,0.109-1.03-0.72-1.03-0.72s-0.621-1.525-0.929-0.889c-0.094,1.676,2.177,2.104,2.177,2.104l0.282,1.178
	c-0.838,0.24-1.083-0.661-1.617-1.103c-0.537-0.436-0.571,0.143-0.571,0.143c0.302,1.691,2.503,1.552,2.503,1.552l0.48,1.151
	c-0.554,0.119-1.007-0.579-1.007-0.579c-0.825-1.011-0.926-0.194-0.926-0.194c0.057,0.904,2.176,1.298,2.176,1.298l1.701,3.798
	c-0.207-0.331-0.412-0.668-0.631-0.987c-0.496-0.719-1.389-1.302-2.057-1.763c-0.684-0.473-1.453-0.854-2.13-0.671
	c-0.071,0.017-0.551,0.16-0.534,0.295c0.229,1.615,3.822,2.575,3.822,2.575c1.939,0.818,2.456,3.118,2.456,3.118
	c-2.231-2.197-4.671-0.803-4.671-0.803c1.587,2.641,5.237,2.236,5.237,2.236c0.428,0.902-0.033,0.847-0.033,0.847
	c-1.557,0.501-0.094,3.244-0.01,2.332c0.084-0.909,0.631-0.689,0.631-0.689c0.478,1.528,0.078,3.57,0.078,3.57
	c-2.41-4.414-4.563-4.222-4.563-4.222c-0.151,2.338,4.452,4.416,4.452,4.416s0.021,0.038,0.029,0.105
	c0.129-0.008,0.26-0.001,0.383,0.007c0.263-0.552,0.139-0.888,0.139-0.888c4.17-1.667,2.641-4.484,2.641-4.484
	c-1.123-0.659-2.701,2.351-2.701,2.351l-0.563-2.729c2.689-3.09,1.386-5.749,1.386-5.749c-1.241,0.557-2.215,3.501-2.215,3.501
	l-0.664-2.181c2.372-2.768,1.295-5.534,1.295-5.534c-2,0.927-2.164,3.714-2.164,3.714l-1-2.265c0,0,1.07-1.276,0.63-1.615
	c-0.438-0.343-0.397,0.47-0.397,0.47c-0.289,0.776-0.427,0.676-0.427,0.676L50.232,7.35c0,0,1.145-0.77,0.943-1.287
	c-0.2-0.513-0.407-0.649-0.661,0.087c-0.251,0.733-0.591,0.647-0.591,0.647l-0.355-0.981l0.849-1.384
	c0.228-0.381-0.231-0.7-0.527,0.032c-0.295,0.729-0.503,0.816-0.503,0.816c-0.261-0.498-0.238-1.283-0.238-1.283
	C50.134,2.872,50.148,1.998,49.584,1.805z M24.044,12.193c0.39-0.337,0.319,0.433,0.447,0.718c0.288,0.632,0.55,0.417,0.55,0.417
	c0.349-0.837-0.077-1.265-0.077-1.265c-0.551-0.543,0.02-0.941,0.02-0.941c0.906,0.258,0.566,2.37,0.566,2.37
	c0.275-0.166,0.333-0.926,0.333-0.926c0.158-1.34,0.604-1.094,0.604-1.094c0.507,0.513-0.829,2.595-0.829,2.595l0.134,0.981
	c0.463-0.062,0.698-1.042,0.698-1.042s0.027-1.646,0.55-1.166c0.688,1.526-1.274,2.751-1.274,2.751l0.167,1.198
	c0.866-0.079,0.768-1.006,1.107-1.612c0.343-0.601,0.584-0.074,0.584-0.074c0.332,1.686-1.772,2.352-1.772,2.352l-0.037,1.248
	c0.563-0.091,0.731-0.904,0.731-0.904c0.403-1.243,0.795-0.518,0.795-0.518c0.275,0.866-1.563,1.998-1.563,1.998l-0.211,4.158
	c0.077-0.384,0.148-0.77,0.235-1.149c0.201-0.851,0.822-1.714,1.278-2.386c0.466-0.689,1.047-1.32,1.741-1.396
	c0.074-0.008,0.574-0.054,0.607,0.079c0.372,1.59-2.634,3.786-2.634,3.786c-1.51,1.463-1.161,3.795-1.161,3.795
	c1.289-2.855,4.063-2.439,4.063-2.439c-0.523,3.033-4.073,3.979-4.073,3.979c-0.074,0.993,0.339,0.78,0.339,0.78
	c1.63-0.096,1.258,2.988,0.849,2.169c-0.406-0.818-0.835-0.416-0.835-0.416c0.107,1.599,1.221,3.355,1.221,3.355
	c0.651-4.985,2.725-5.587,2.725-5.587c0.986,2.125-2.554,5.729-2.554,5.729s-0.003,0.042,0.014,0.109
	c-0.124,0.039-0.242,0.09-0.359,0.146c-0.439-0.421-0.446-0.776-0.446-0.776c-4.493-0.047-4.083-3.228-4.083-3.228
	c0.809-1.02,3.368,1.213,3.368,1.213l-0.466-2.746c-3.624-1.909-3.369-4.858-3.369-4.858c1.363,0.067,3.332,2.461,3.332,2.461
	l-0.171-2.271c-3.211-1.721-3.208-4.691-3.208-4.691c2.201,0.14,3.362,2.676,3.362,2.676l0.111-2.471c0,0-1.457-0.8-1.171-1.278
	c0.288-0.476,0.54,0.295,0.54,0.295c0.55,0.62,0.641,0.475,0.641,0.475l-0.013-1.198c0,0-1.349-0.305-1.349-0.859
	c0.004-0.554,0.141-0.753,0.648-0.161c0.503,0.595,0.788,0.391,0.788,0.391l-0.027-1.043l-1.292-0.985
	c-0.349-0.268-0.033-0.733,0.503-0.156c0.541,0.57,0.765,0.577,0.765,0.577c0.063-0.559-0.241-1.283-0.241-1.283
	C23.917,13.388,23.592,12.575,24.044,12.193z M5.954,67.869c0.117,0.502,0.514-0.16,0.785-0.314
	c0.604-0.347,0.688-0.017,0.688-0.017c-0.208,0.88-0.802,0.979-0.802,0.979c-0.769,0.112-0.54,0.772-0.54,0.772
	c0.885,0.321,1.852-1.586,1.852-1.586C8.061,68,7.662,68.65,7.662,68.65C7,69.826,7.507,69.889,7.507,69.889
	c0.712-0.117,0.853-2.584,0.853-2.584l0.688-0.718C9.386,66.909,9,67.842,9,67.842s-0.943,1.346-0.241,1.264
	c1.456-0.826,0.587-2.973,0.587-2.973l0.839-0.871c0.654,0.572,0.03,1.266-0.05,1.954c-0.078,0.688,0.425,0.402,0.425,0.402
	c1.262-1.17-0.05-2.943-0.05-2.943l0.708-1.032c0.399,0.404,0.057,1.164,0.057,1.164c-0.406,1.241,0.339,0.887,0.339,0.887
	c0.731-0.541-0.087-2.537-0.087-2.537l2.271-3.486c-0.164,0.354-0.335,0.709-0.486,1.066c-0.339,0.805-0.345,1.873-0.369,2.681
	c-0.03,0.835,0.07,1.687,0.59,2.156c0.051,0.049,0.43,0.375,0.537,0.29c1.234-1.067,0.094-4.61,0.094-4.61
	c-0.362-2.073,1.292-3.75,1.292-3.75c-0.638,3.063,1.852,4.358,1.852,4.358c1.358-2.762-0.956-5.614-0.956-5.614
	c0.526-0.847,0.731-0.429,0.731-0.429c1.264,1.037,2.778-1.678,1.965-1.258c-0.812,0.426-0.926-0.153-0.926-0.153
	c1.031-1.229,2.966-2,2.966-2c-2.406,4.416-1.08,6.125-1.08,6.125c2.046-1.14,1.301-6.136,1.301-6.136s0.02-0.039,0.07-0.082
	c-0.077-0.103-0.141-0.215-0.201-0.33c-0.604,0.084-0.822,0.365-0.822,0.365c-3.657-2.603-5.198,0.211-5.198,0.211
	c0.054,1.301,3.439,1,3.439,1l-1.993,1.947c-4.056-0.585-5.58,1.953-5.58,1.953c1.14,0.743,4.14-0.035,4.14-0.035l-1.473,1.738
	c-3.61-0.493-5.351,1.909-5.351,1.909c1.862,1.179,4.291-0.191,4.291-0.191l-1.362,2.068c0,0-1.651-0.212-1.698,0.344
	c-0.047,0.554,0.611,0.08,0.611,0.08c0.808-0.181,0.798-0.008,0.798-0.008l-0.718,0.961c0,0-1.269-0.546-1.594-0.099
	c-0.325,0.448-0.329,0.691,0.426,0.51c0.758-0.186,0.869,0.146,0.869,0.146l-0.634,0.827l-1.624,0.041
	c-0.439,0.011-0.46,0.571,0.315,0.424c0.771-0.149,0.959-0.021,0.959-0.021c-0.278,0.49-0.95,0.898-0.95,0.898
	C6.554,66.832,5.813,67.295,5.954,67.869z M18.928,50.488c0.343,0.174,0.803,0.448,1.185,0.778c0.389,0.323,0.701,0.695,0.902,0.889
	c0.205,0.188,0.302,0.195,0.343,0.14c0.04-0.058,0.02-0.175-0.084-0.337c-0.11-0.159-0.305-0.365-0.59-0.628
	s-0.661-0.576-1.067-0.852c-0.406-0.282-0.846-0.522-1.285-0.765c0.064-0.161,0.124-0.315,0.181-0.478
	c-0.238-0.151-0.482-0.304-1.033-0.564c-0.557-0.265-1.423-0.636-1.963-0.916c-0.537-0.277-0.748-0.457-0.926-0.729
	c-0.178-0.27-0.325-0.627-0.443-0.805c-0.118-0.185-0.205-0.193-0.285-0.247c-0.077-0.057-0.151-0.164-0.245-0.324
	c-0.091-0.161-0.208-0.373-0.249-0.569c-0.033-0.191,0.01-0.373,0.057-0.547c-0.205,0.123-0.406,0.253-0.591,0.408
	c-0.178,0.158-0.329,0.349-0.403,0.647c-0.074,0.299-0.067,0.715,0.081,1.076c0.151,0.355,0.433,0.654,0.802,0.917
	c0.362,0.258,0.805,0.475,1.288,0.636c0.483,0.161,1.007,0.255,1.48,0.389c0.479,0.129,0.913,0.294,1.211,0.435
	c0.301,0.136,0.466,0.253,0.546,0.333c0.07,0.084,0.057,0.134-0.06,0.106c-0.114-0.025-0.326-0.131-0.618-0.211
	c-0.292-0.078-0.661-0.138-1.08-0.193c-0.419-0.057-0.889-0.114-1.393-0.103c-0.5,0.01-1.043,0.087-1.647,0.203
	c-0.604,0.119-1.275,0.278-1.768,0.371c-0.49,0.09-0.815,0.11-1.245,0.11c-0.429,0.002-0.973-0.025-1.308-0.043
	c-0.338-0.023-0.466-0.042-0.543,0.006c-0.071,0.051-0.091,0.171-0.097,0.257c-0.003,0.089,0.006,0.146-0.05,0.188
	c-0.064,0.043-0.191,0.074-0.4,0.062c-0.208-0.017-0.5-0.081-0.724-0.173c-0.222-0.089-0.379-0.209-0.467-0.335
	c-0.087-0.127-0.107-0.25-0.121-0.374c-0.158,0.124-0.318,0.247-0.416,0.463c-0.091,0.208-0.121,0.503-0.041,0.773
	c0.084,0.275,0.272,0.521,0.597,0.703c0.323,0.181,0.785,0.285,1.286,0.267c0.503-0.019,1.043-0.166,1.624-0.403
	c0.581-0.234,1.191-0.562,1.805-0.827c0.604-0.271,1.211-0.475,1.818-0.609c0.597-0.136,1.202-0.203,1.785-0.216
	c0.581-0.007,1.148,0.037,1.647,0.116c0.5,0.083,0.93,0.203,1.363,0.324c-0.034,0.037-0.067,0.074-0.098,0.121
	c-0.158-0.028-0.315-0.054-0.557-0.099c-0.255-0.048-0.594-0.117-0.946-0.156c-0.345-0.035-0.712-0.04-1.05,0.042
	c-0.335,0.081-0.654,0.236-1.007,0.429c-0.345,0.185-0.731,0.401-1.013,0.665c-0.275,0.267-0.453,0.583-0.557,0.924
	s-0.145,0.705-0.101,1.058c0.05,0.349,0.181,0.686,0.392,0.947c0.215,0.256,0.5,0.436,0.732,0.495
	c0.229,0.063,0.392,0.007,0.439-0.093c0.047-0.098-0.03-0.242-0.13-0.374c-0.094-0.128-0.218-0.241-0.306-0.401
	c-0.083-0.158-0.134-0.36-0.101-0.547c0.034-0.181,0.148-0.352,0.245-0.416c0.087-0.063,0.168-0.023,0.262,0.033
	c0.107,0.053,0.238,0.127,0.339,0.098s0.171-0.156,0.211-0.328c0.034-0.172,0.034-0.383,0.047-0.596
	c0.013-0.207,0.044-0.414,0.168-0.641c0.124-0.229,0.338-0.479,0.667-0.639c0.326-0.158,0.771-0.23,1.228-0.193
	c0.456,0.043,0.926,0.193,1.396,0.346c0.034-0.119,0.07-0.231,0.107-0.352C18.375,50.235,18.593,50.314,18.928,50.488L18.928,50.488
	z M2.887,35.565c-0.017-0.515,0.538,0.027,0.839,0.104c0.671,0.179,0.671-0.161,0.671-0.161c-0.429-0.802-1.03-0.738-1.03-0.738
	c-0.772,0.083-0.718-0.609-0.718-0.609c0.772-0.542,2.194,1.055,2.194,1.055c0.043-0.319-0.51-0.842-0.51-0.842
	c-0.94-0.965-0.467-1.16-0.467-1.16c0.718-0.068,1.49,2.28,1.49,2.28l0.849,0.513C6.447,35.612,5.84,34.81,5.84,34.81
	s-1.262-1.057-0.56-1.161c1.62,0.426,1.332,2.719,1.332,2.719l1.033,0.629c0.486-0.723-0.299-1.231-0.554-1.875
	c-0.251-0.644,0.312-0.5,0.312-0.5c1.521,0.804,0.708,2.86,0.708,2.86l0.95,0.808c0.286-0.49-0.241-1.134-0.241-1.134
	c-0.713-1.096,0.1-0.944,0.1-0.944c0.842,0.334,0.563,2.473,0.563,2.473l3.093,2.785c-0.248-0.3-0.506-0.601-0.742-0.907
	c-0.533-0.691-0.815-1.718-1.05-2.495c-0.242-0.797-0.366-1.646,0.014-2.235c0.04-0.062,0.318-0.475,0.442-0.417
	c1.473,0.711,1.282,4.429,1.282,4.429c0.185,2.097,2.215,3.292,2.215,3.292c-1.406-2.796,0.667-4.692,0.667-4.692
	c2.026,2.322,0.523,5.674,0.523,5.674c0.728,0.681,0.815,0.23,0.815,0.23c0.956-1.331,3.117,0.904,2.225,0.704
	c-0.893-0.199-0.852,0.388-0.852,0.388c1.312,0.923,3.375,1.168,3.375,1.168c-3.459-3.646-2.62-5.639-2.62-5.639
	c2.271,0.576,2.839,5.593,2.839,5.593s0.033,0.032,0.093,0.062c-0.05,0.116-0.083,0.243-0.114,0.366
	c-0.604,0.077-0.882-0.139-0.882-0.139c-2.869,3.456-5.08,1.134-5.08,1.134c-0.285-1.27,3.063-1.849,3.063-1.849l-2.426-1.371
	c-3.768,1.61-5.895-0.446-5.895-0.446c0.913-1.013,4.013-1.035,4.013-1.035l-1.872-1.3c-3.362,1.409-5.667-0.466-5.667-0.466
	c1.496-1.619,4.2-0.923,4.2-0.923l-1.85-1.646c0,0-1.54,0.629-1.729,0.102c-0.188-0.52,0.571-0.233,0.571-0.233
	c0.826-0.035,0.768-0.198,0.768-0.198L7.963,37.88c0,0-1.084,0.852-1.513,0.505c-0.43-0.352-0.493-0.585,0.282-0.604
	c0.778-0.016,0.802-0.366,0.802-0.366l-0.826-0.637L5.125,37.16c-0.426,0.103-0.591-0.435,0.194-0.491
	c0.789-0.058,0.937-0.23,0.937-0.23c-0.396-0.403-1.151-0.621-1.151-0.621C3.732,36.416,2.897,36.157,2.887,35.565z M24.327,33.808
	c0.379,0.059,0.913,0.104,1.412,0.067c0.504-0.037,0.977-0.158,1.255-0.193c0.275-0.033,0.358,0.02,0.358,0.085
	c-0.003,0.071-0.087,0.154-0.268,0.223c-0.181,0.067-0.459,0.121-0.846,0.165c-0.382,0.045-0.872,0.08-1.362,0.064
	c-0.493-0.008-0.99-0.069-1.49-0.131c-0.044,0.167-0.083,0.327-0.135,0.493c-0.282-0.017-0.566-0.041-1.167-0.149
	c-0.607-0.112-1.527-0.32-2.127-0.409c-0.597-0.089-0.873-0.067-1.178,0.047c-0.302,0.116-0.631,0.319-0.833,0.396
	c-0.201,0.081-0.275,0.037-0.372,0.032c-0.101,0-0.222,0.043-0.386,0.119c-0.172,0.076-0.393,0.178-0.537,0.315
	c-0.141,0.136-0.208,0.307-0.275,0.478c-0.094-0.222-0.182-0.444-0.242-0.678c-0.05-0.229-0.061-0.473,0.057-0.761
	c0.114-0.286,0.362-0.616,0.694-0.824c0.329-0.202,0.735-0.275,1.184-0.273c0.447,0.001,0.933,0.087,1.416,0.239
	c0.487,0.153,0.966,0.381,1.43,0.552c0.462,0.174,0.913,0.293,1.238,0.356c0.322,0.065,0.527,0.07,0.638,0.05
	c0.107-0.025,0.124-0.075,0.013-0.121c-0.107-0.045-0.343-0.084-0.625-0.189c-0.285-0.109-0.617-0.279-0.989-0.477
	c-0.373-0.201-0.785-0.431-1.188-0.731c-0.399-0.305-0.795-0.686-1.218-1.134c-0.419-0.448-0.865-0.968-1.211-1.332
	c-0.346-0.364-0.597-0.571-0.95-0.822c-0.346-0.253-0.802-0.548-1.083-0.731c-0.285-0.177-0.403-0.24-0.436-0.324
	c-0.031-0.084,0.026-0.193,0.073-0.265c0.047-0.072,0.091-0.112,0.068-0.183c-0.024-0.069-0.115-0.169-0.289-0.284
	c-0.178-0.105-0.449-0.226-0.688-0.284c-0.232-0.059-0.429-0.052-0.577,0c-0.141,0.052-0.228,0.14-0.315,0.232
	c-0.054-0.195-0.11-0.388-0.063-0.616c0.047-0.225,0.198-0.481,0.419-0.654c0.228-0.173,0.527-0.263,0.896-0.222
	c0.366,0.049,0.805,0.232,1.197,0.541c0.396,0.309,0.745,0.746,1.081,1.276c0.332,0.53,0.633,1.154,0.973,1.728
	c0.335,0.576,0.708,1.095,1.121,1.562c0.406,0.459,0.855,0.865,1.319,1.218c0.469,0.347,0.952,0.644,1.402,0.872
	c0.456,0.225,0.872,0.379,1.295,0.535c-0.007-0.05-0.01-0.102-0.007-0.154c-0.147-0.07-0.288-0.138-0.51-0.248
	c-0.234-0.107-0.55-0.25-0.859-0.426c-0.301-0.174-0.6-0.384-0.825-0.647c-0.226-0.263-0.393-0.579-0.564-0.938
	c-0.174-0.356-0.363-0.755-0.433-1.134c-0.07-0.377-0.026-0.738,0.087-1.075c0.118-0.337,0.298-0.654,0.541-0.914
	c0.245-0.254,0.546-0.452,0.875-0.534c0.318-0.087,0.658-0.064,0.879,0.023c0.222,0.081,0.326,0.223,0.306,0.334
	c-0.021,0.104-0.168,0.176-0.326,0.223c-0.151,0.051-0.318,0.071-0.486,0.148c-0.158,0.079-0.319,0.213-0.399,0.384
	c-0.081,0.164-0.087,0.371-0.047,0.479c0.037,0.104,0.121,0.117,0.234,0.131c0.114,0.019,0.265,0.032,0.33,0.117
	c0.067,0.083,0.05,0.227-0.021,0.388c-0.074,0.161-0.198,0.332-0.309,0.508c-0.114,0.176-0.208,0.364-0.241,0.619
	c-0.034,0.258-0.006,0.587,0.168,0.911c0.171,0.317,0.49,0.638,0.878,0.876c0.4,0.233,0.866,0.386,1.335,0.537
	c-0.043,0.116-0.074,0.23-0.117,0.347C23.729,33.688,23.951,33.754,24.327,33.808L24.327,33.808z M2.582,36.506
	c-0.312,0.408,0.453,0.292,0.741,0.408c0.651,0.248,0.45,0.521,0.45,0.521c-0.815,0.398-1.269-0.001-1.269-0.001
	c-0.573-0.521-0.939,0.07-0.939,0.07c0.308,0.888,2.399,0.435,2.399,0.435c-0.151,0.28-0.906,0.383-0.906,0.383
	c-1.332,0.229-1.057,0.664-1.057,0.664c0.54,0.477,2.543-0.975,2.543-0.975l0.989,0.082c-0.037,0.465-1.003,0.755-1.003,0.755
	s-1.64,0.117-1.134,0.61c1.563,0.605,2.674-1.422,2.674-1.422l1.208,0.097c-0.031,0.869-0.963,0.824-1.547,1.198
	c-0.581,0.374-0.044,0.583-0.044,0.583c1.701,0.238,2.251-1.899,2.251-1.899l1.245-0.104c-0.061,0.565-0.863,0.78-0.863,0.78
	c-1.221,0.471-0.473,0.823-0.473,0.823c0.879,0.225,1.909-1.674,1.909-1.674l4.137-0.444c-0.379,0.097-0.762,0.191-1.135,0.3
	c-0.838,0.247-1.667,0.915-2.311,1.409c-0.662,0.503-1.262,1.119-1.296,1.819c-0.006,0.072-0.02,0.572,0.114,0.601
	c1.607,0.28,3.63-2.842,3.63-2.842c1.379-1.589,3.724-1.373,3.724-1.373c-2.778,1.444-2.208,4.196-2.208,4.196
	c3.003-0.695,3.748-4.293,3.748-4.293c0.99-0.125,0.795,0.295,0.795,0.295c-0.003,1.637,3.053,1.092,2.214,0.729
	c-0.838-0.36-0.462-0.813-0.462-0.813c1.604,0.019,3.422,1.032,3.422,1.032c-4.945,0.928-5.429,3.037-5.429,3.037
	c2.178,0.865,5.577-2.871,5.577-2.871s0.043-0.01,0.11,0.001c0.03-0.123,0.077-0.243,0.124-0.361
	c-0.446-0.417-0.802-0.406-0.802-0.406c-0.299-4.481-3.449-3.895-3.449-3.895c-0.973,0.862,1.399,3.296,1.399,3.296l-2.768-0.312
	c-2.107-3.515-5.04-3.092-5.04-3.092c0.148,1.354,2.644,3.189,2.644,3.189l-2.278-0.045c-1.898-3.11-4.861-2.94-4.861-2.94
	c0.262,2.189,2.861,3.206,2.861,3.206l-2.462,0.252c0,0-0.882-1.413-1.342-1.099c-0.459,0.313,0.325,0.527,0.325,0.527
	c0.647,0.512,0.51,0.611,0.51,0.611l-1.198,0.052c0,0-0.379-1.329-0.932-1.297c-0.554,0.034-0.742,0.183-0.124,0.654
	c0.62,0.468,0.433,0.765,0.433,0.765L6.39,37.761l-1.056-1.233c-0.289-0.335-0.735,0.003-0.131,0.51s0.625,0.733,0.625,0.733
	C5.269,37.867,4.531,37.6,4.531,37.6C3.766,36.313,2.937,36.031,2.582,36.506z M4.568,64.006c-0.201-0.474,0.51-0.17,0.822-0.203
	c0.691-0.076,0.564-0.393,0.564-0.393c-0.685-0.592-1.225-0.319-1.225-0.319c-0.688,0.357-0.889-0.31-0.889-0.31
	c0.527-0.782,2.429,0.191,2.429,0.191c-0.074-0.311-0.778-0.601-0.778-0.601c-1.229-0.562-0.853-0.909-0.853-0.909
	c0.645-0.324,2.208,1.589,2.208,1.589l0.979,0.173c0.084-0.457-0.774-0.984-0.774-0.984s-1.558-0.534-0.94-0.879
	c1.664-0.188,2.221,2.057,2.221,2.057l1.191,0.213c0.195-0.847-0.721-1.043-1.191-1.552c-0.466-0.511,0.111-0.575,0.111-0.575
	c1.705,0.205,1.691,2.412,1.691,2.412l1.173,0.416c0.087-0.563-0.633-0.975-0.633-0.975c-1.057-0.768-0.245-0.916-0.245-0.916
	c0.906,0.009,1.416,2.104,1.416,2.104l3.889,1.488c-0.343-0.191-0.688-0.379-1.021-0.578c-0.748-0.455-1.378-1.311-1.875-1.953
	c-0.514-0.656-0.933-1.404-0.789-2.089c0.013-0.07,0.128-0.56,0.265-0.55c1.627,0.136,2.785,3.671,2.785,3.671
	c0.926,1.891,3.247,2.274,3.247,2.274c-2.314-2.103-1.063-4.613-1.063-4.613c2.725,1.436,2.527,5.104,2.527,5.104
	c0.922,0.375,0.846-0.081,0.846-0.081c0.412-1.584,3.23-0.276,2.329-0.142c-0.907,0.139-0.655,0.67-0.655,0.67
	c1.553,0.391,3.57-0.125,3.57-0.125c-4.54-2.159-4.472-4.318-4.472-4.318c2.325-0.279,4.657,4.198,4.657,4.198
	s0.04,0.019,0.107,0.022c0,0.129,0.013,0.259,0.03,0.384c-0.537,0.29-0.879,0.188-0.879,0.188c-1.433,4.259-4.329,2.886-4.329,2.886
	c-0.724-1.084,2.195-2.828,2.195-2.828l-2.758-0.406c-2.936,2.859-5.66,1.704-5.66,1.704c0.486-1.275,3.372-2.407,3.372-2.407
	l-2.215-0.54c-2.63,2.522-5.452,1.599-5.452,1.599c0.812-2.047,3.583-2.367,3.583-2.367l-2.318-0.87c0,0-1.211,1.138-1.574,0.718
	c-0.366-0.419,0.447-0.423,0.447-0.423c0.758-0.332,0.647-0.463,0.647-0.463l-1.145-0.354c0,0-0.708,1.186-1.23,1.016
	c-0.527-0.174-0.671-0.367,0.046-0.666c0.718-0.295,0.614-0.629,0.614-0.629l-1-0.297l-1.335,0.924
	c-0.366,0.25-0.708-0.19,0.007-0.526c0.711-0.338,0.785-0.55,0.785-0.55c-0.514-0.233-1.295-0.166-1.295-0.166
	C5.666,64.495,4.79,64.557,4.568,64.006z M51.93,98.417c0.514,0.044,0.008-0.538-0.062-0.847c-0.142-0.68,0.198-0.657,0.198-0.657
	c0.774,0.469,0.685,1.065,0.685,1.065c-0.127,0.766,0.569,0.752,0.569,0.752c0.578-0.741-0.936-2.252-0.936-2.252
	c0.318-0.024,0.813,0.557,0.813,0.557c0.915,0.99,1.13,0.527,1.13,0.527c0.107-0.713-2.198-1.609-2.198-1.609l-0.466-0.876
	c0.41-0.222,1.182,0.434,1.182,0.434s0.985,1.313,1.123,0.622c-0.335-1.643-2.644-1.479-2.644-1.479l-0.57-1.066
	c0.744-0.443,1.216,0.363,1.843,0.653c0.631,0.284,0.516-0.281,0.516-0.281c-0.721-1.562-2.817-0.864-2.817-0.864l-0.761-0.99
	c0.51-0.254,1.125,0.303,1.125,0.303c1.061,0.771,0.949-0.049,0.949-0.049c-0.289-0.858-2.439-0.696-2.439-0.696l-2.618-3.237
	c0.289,0.266,0.574,0.537,0.866,0.792c0.664,0.568,1.674,0.905,2.436,1.181c0.785,0.283,1.625,0.451,2.231,0.104
	c0.063-0.035,0.493-0.293,0.442-0.419c-0.635-1.507-4.355-1.517-4.355-1.517c-2.084-0.297-3.167-2.389-3.167-2.389
	c2.718,1.557,4.718-0.414,4.718-0.414c-2.208-2.146-5.633-0.824-5.633-0.824c-0.645-0.763-0.185-0.83-0.185-0.83
	c1.378-0.881-0.738-3.157-0.587-2.256c0.15,0.902-0.434,0.83-0.434,0.83c-0.852-1.358-0.986-3.438-0.986-3.438
	c3.459,3.652,5.492,2.921,5.492,2.921c-0.453-2.3-5.432-3.134-5.432-3.134s-0.03-0.034-0.057-0.096
	c-0.121,0.043-0.248,0.069-0.373,0.092c-0.111,0.601,0.094,0.893,0.094,0.893c-3.607,2.678-1.409,5.01-1.409,5.01
	c1.254,0.354,2.013-2.959,2.013-2.959l1.238,2.494c-1.811,3.676,0.131,5.911,0.131,5.911c1.06-0.854,1.249-3.95,1.249-3.95
	l1.197,1.938c-1.587,3.282,0.161,5.68,0.161,5.68c1.698-1.405,1.147-4.139,1.147-4.139l1.543,1.935c0,0-0.711,1.504-0.197,1.721
	c0.513,0.218,0.264-0.557,0.264-0.557c0.081-0.824,0.239-0.762,0.239-0.762l0.691,0.979c0,0-0.909,1.041-0.583,1.487
	c0.325,0.445,0.557,0.522,0.617-0.251c0.058-0.775,0.41-0.779,0.41-0.779l0.591,0.86l-0.466,1.554
	c-0.125,0.426,0.401,0.613,0.5-0.168c0.101-0.777,0.278-0.918,0.278-0.918c0.383,0.416,0.561,1.18,0.561,1.18
	C51.124,97.527,51.339,98.372,51.93,98.417z M39.412,80.705c0.268-0.268,0.67-0.621,1.1-0.887c0.429-0.27,0.879-0.448,1.124-0.584
	c0.245-0.137,0.282-0.228,0.238-0.279c-0.041-0.057-0.158-0.075-0.346-0.025c-0.185,0.057-0.439,0.18-0.782,0.366
	c-0.332,0.19-0.748,0.453-1.137,0.755c-0.392,0.297-0.758,0.643-1.124,0.985c-0.135-0.114-0.265-0.218-0.4-0.324
	c-0.217,0.185-0.436,0.367-0.855,0.813c-0.423,0.447-1.043,1.156-1.476,1.582s-0.665,0.569-0.98,0.656
	c-0.312,0.086-0.698,0.115-0.902,0.172c-0.211,0.055-0.245,0.133-0.323,0.192c-0.08,0.062-0.204,0.097-0.382,0.134
	c-0.184,0.038-0.419,0.086-0.617,0.062c-0.194-0.025-0.352-0.124-0.507-0.224c0.057,0.232,0.118,0.467,0.208,0.688
	c0.094,0.217,0.229,0.419,0.49,0.582c0.261,0.162,0.661,0.284,1.046,0.255c0.386-0.03,0.758-0.207,1.121-0.479
	c0.359-0.265,0.701-0.619,1.003-1.026c0.301-0.409,0.553-0.877,0.828-1.29c0.272-0.414,0.561-0.773,0.789-1.016
	c0.222-0.244,0.382-0.366,0.486-0.418c0.101-0.041,0.145-0.013,0.081,0.09c-0.061,0.101-0.225,0.271-0.393,0.523
	c-0.161,0.254-0.332,0.586-0.516,0.969c-0.185,0.381-0.382,0.812-0.527,1.291c-0.148,0.48-0.239,1.02-0.315,1.629
	c-0.078,0.613-0.131,1.297-0.198,1.795c-0.06,0.496-0.145,0.813-0.278,1.22c-0.131,0.409-0.322,0.917-0.443,1.231
	c-0.127,0.313-0.185,0.433-0.161,0.519c0.023,0.082,0.134,0.142,0.214,0.173c0.081,0.029,0.137,0.038,0.161,0.105
	c0.023,0.072,0.01,0.205-0.063,0.397c-0.081,0.193-0.232,0.45-0.39,0.638c-0.154,0.185-0.315,0.297-0.463,0.34
	c-0.147,0.045-0.268,0.021-0.392-0.004c0.067,0.193,0.134,0.381,0.309,0.539c0.171,0.152,0.443,0.271,0.725,0.276
	c0.288,0.009,0.583-0.095,0.852-0.348c0.272-0.255,0.517-0.657,0.651-1.142c0.137-0.482,0.165-1.043,0.121-1.67
	c-0.047-0.621-0.167-1.305-0.231-1.97c-0.071-0.662-0.077-1.301-0.017-1.919c0.054-0.611,0.178-1.205,0.346-1.762
	c0.174-0.561,0.389-1.084,0.62-1.533c0.235-0.448,0.48-0.822,0.728-1.194c0.024,0.04,0.051,0.086,0.084,0.13
	c-0.078,0.143-0.148,0.28-0.265,0.5c-0.128,0.225-0.299,0.525-0.439,0.85c-0.141,0.318-0.262,0.664-0.289,1.011
	c-0.026,0.346,0.027,0.696,0.101,1.09c0.07,0.39,0.154,0.822,0.318,1.173c0.168,0.344,0.413,0.607,0.705,0.813
	c0.295,0.205,0.627,0.354,0.976,0.422c0.346,0.063,0.708,0.042,1.021-0.079c0.312-0.124,0.57-0.343,0.698-0.541
	c0.131-0.197,0.131-0.374,0.047-0.449c-0.078-0.075-0.239-0.047-0.393,0.011c-0.154,0.049-0.298,0.129-0.48,0.166
	c-0.174,0.03-0.382,0.014-0.55-0.071c-0.161-0.089-0.289-0.25-0.319-0.362c-0.034-0.104,0.027-0.166,0.111-0.242
	c0.08-0.083,0.195-0.184,0.198-0.289c0.003-0.104-0.094-0.212-0.249-0.302c-0.151-0.083-0.352-0.149-0.547-0.229
	c-0.198-0.074-0.386-0.168-0.561-0.356c-0.181-0.19-0.349-0.47-0.399-0.833c-0.05-0.359,0.017-0.805,0.195-1.229
	c0.181-0.422,0.469-0.821,0.758-1.22c-0.104-0.069-0.198-0.142-0.302-0.213C38.995,81.154,39.139,80.973,39.412,80.705
	L39.412,80.705z M20.256,91.35c-0.493-0.143,0.192-0.505,0.359-0.766c0.376-0.582,0.054-0.686,0.054-0.686
	c-0.893,0.158-1.023,0.75-1.023,0.75c-0.154,0.76-0.798,0.496-0.798,0.496c-0.275-0.9,1.681-1.766,1.681-1.766
	c-0.289-0.137-0.956,0.225-0.956,0.225c-1.211,0.599-1.249,0.088-1.249,0.088c0.158-0.702,2.631-0.711,2.631-0.711l0.751-0.648
	c-0.306-0.354-1.255-0.021-1.255-0.021s-1.396,0.871-1.278,0.176c0.909-1.411,3-0.43,3-0.43l0.916-0.789
	c-0.537-0.687-1.261-0.097-1.953-0.055c-0.691,0.041-0.379-0.449-0.379-0.449c1.234-1.195,2.939,0.209,2.939,0.209l1.063-0.65
	c-0.379-0.422-1.158-0.121-1.158-0.121c-1.262,0.337-0.865-0.387-0.865-0.387c0.577-0.698,2.526,0.225,2.526,0.225l3.607-2.081
	c-0.366,0.146-0.729,0.299-1.094,0.431c-0.822,0.291-1.885,0.241-2.694,0.225c-0.835-0.018-1.681-0.159-2.124-0.704
	c-0.043-0.056-0.355-0.449-0.258-0.55c1.13-1.184,4.606,0.149,4.606,0.149c2.05,0.47,3.815-1.089,3.815-1.089
	c-3.093,0.473-4.258-2.083-4.258-2.083c2.835-1.214,5.556,1.253,5.556,1.253c0.876-0.479,0.473-0.705,0.473-0.705
	c-0.97-1.318,1.822-2.688,1.356-1.896c-0.463,0.786,0.106,0.93,0.106,0.93c1.282-0.961,2.154-2.851,2.154-2.851
	c-4.536,2.162-6.173,0.75-6.173,0.75c1.249-1.979,6.197-0.971,6.197-0.971s0.041-0.021,0.087-0.068
	c0.098,0.084,0.205,0.154,0.312,0.222c-0.11,0.599-0.406,0.798-0.406,0.798c2.402,3.794-0.49,5.18-0.49,5.18
	c-1.295-0.121-0.812-3.484-0.812-3.484l-2.054,1.884c0.369,4.08-2.245,5.47-2.245,5.47c-0.681-1.182,0.255-4.138,0.255-4.138
	l-1.815,1.379c0.302,3.634-2.194,5.244-2.194,5.244c-1.077-1.924,0.419-4.276,0.419-4.276l-2.134,1.25c0,0,0.121,1.66-0.437,1.678
	c-0.557,0.019-0.046-0.614-0.046-0.614c0.221-0.802,0.05-0.794,0.05-0.794l-0.997,0.664c0,0,0.477,1.297,0.01,1.596
	c-0.463,0.301-0.708,0.29-0.487-0.452c0.228-0.747-0.097-0.878-0.097-0.878l-0.862,0.589l-0.128,1.622
	c-0.033,0.439-0.594,0.428-0.405-0.337c0.188-0.764,0.071-0.96,0.071-0.96c-0.504,0.252-0.946,0.9-0.946,0.9
	C21.327,90.811,20.824,91.523,20.256,91.35z M25.212,70.417c0.172-0.339,0.383-0.834,0.5-1.322c0.121-0.491,0.154-0.976,0.204-1.253
	c0.054-0.271,0.128-0.336,0.191-0.313c0.067,0.022,0.121,0.127,0.131,0.324c0.007,0.191-0.027,0.473-0.104,0.854
	c-0.078,0.377-0.195,0.855-0.359,1.316c-0.161,0.466-0.375,0.92-0.587,1.375c0.147,0.093,0.288,0.184,0.429,0.278
	c-0.104,0.265-0.211,0.529-0.503,1.065c-0.295,0.543-0.775,1.353-1.046,1.898c-0.269,0.539-0.336,0.809-0.319,1.133
	s0.107,0.696,0.117,0.912c0.017,0.217-0.05,0.273-0.084,0.364c-0.03,0.097-0.023,0.224-0.007,0.405
	c0.02,0.188,0.051,0.425,0.135,0.607c0.087,0.176,0.228,0.293,0.369,0.406c-0.239,0.024-0.477,0.039-0.718,0.021
	c-0.235-0.021-0.467-0.085-0.705-0.286c-0.238-0.198-0.477-0.537-0.57-0.912c-0.091-0.376-0.037-0.789,0.106-1.213
	c0.141-0.426,0.369-0.862,0.665-1.275c0.295-0.414,0.661-0.802,0.966-1.188c0.309-0.384,0.56-0.772,0.721-1.063
	c0.161-0.287,0.229-0.48,0.245-0.593c0.007-0.11-0.034-0.142-0.111-0.05c-0.073,0.089-0.185,0.297-0.372,0.535
	c-0.195,0.235-0.456,0.5-0.762,0.793c-0.305,0.295-0.651,0.611-1.063,0.904c-0.413,0.286-0.896,0.543-1.453,0.805
	c-0.554,0.263-1.188,0.527-1.641,0.742c-0.454,0.217-0.729,0.396-1.074,0.648c-0.349,0.253-0.772,0.592-1.03,0.805
	c-0.259,0.219-0.355,0.312-0.443,0.314c-0.091,0.005-0.178-0.084-0.231-0.151c-0.054-0.064-0.081-0.118-0.151-0.118
	c-0.074,0-0.198,0.054-0.359,0.187c-0.158,0.133-0.355,0.358-0.483,0.567c-0.127,0.199-0.185,0.391-0.178,0.547
	c0.003,0.152,0.061,0.261,0.121,0.369c-0.201-0.004-0.403-0.01-0.604-0.129c-0.198-0.112-0.396-0.334-0.494-0.601
	c-0.094-0.271-0.087-0.583,0.067-0.919c0.158-0.334,0.466-0.695,0.882-0.973c0.416-0.28,0.939-0.479,1.55-0.633
	c0.604-0.151,1.292-0.246,1.943-0.396c0.651-0.14,1.261-0.332,1.832-0.58c0.563-0.244,1.087-0.546,1.566-0.88
	c0.473-0.337,0.906-0.704,1.262-1.064c0.353-0.361,0.631-0.713,0.909-1.062c-0.05-0.013-0.101-0.022-0.147-0.042
	c-0.115,0.117-0.222,0.229-0.396,0.406c-0.174,0.191-0.406,0.449-0.67,0.684c-0.259,0.236-0.551,0.456-0.87,0.587
	c-0.322,0.136-0.671,0.194-1.067,0.245c-0.393,0.057-0.829,0.111-1.211,0.063c-0.379-0.051-0.708-0.203-0.993-0.416
	c-0.289-0.215-0.534-0.484-0.705-0.797c-0.164-0.312-0.261-0.66-0.241-0.994s0.148-0.646,0.299-0.83
	c0.144-0.186,0.312-0.241,0.409-0.188c0.094,0.054,0.118,0.214,0.114,0.38c0,0.16-0.033,0.325-0.01,0.508
	c0.023,0.174,0.104,0.367,0.242,0.498c0.13,0.127,0.325,0.198,0.439,0.194c0.114-0.003,0.151-0.08,0.198-0.183
	c0.054-0.104,0.114-0.243,0.215-0.279c0.098-0.036,0.231,0.023,0.362,0.145c0.128,0.116,0.252,0.289,0.386,0.448
	c0.138,0.162,0.282,0.308,0.517,0.42c0.235,0.11,0.554,0.185,0.917,0.12c0.355-0.063,0.758-0.268,1.106-0.566
	c0.343-0.306,0.631-0.703,0.923-1.103c0.097,0.075,0.194,0.146,0.295,0.222C24.914,70.95,25.044,70.758,25.212,70.417L25.212,70.417
	z M21.059,91.932c0.292,0.426,0.419-0.339,0.617-0.58c0.437-0.541,0.634-0.264,0.634-0.264c0.127,0.898-0.392,1.203-0.392,1.203
	c-0.675,0.385-0.226,0.915-0.226,0.915c0.943-0.021,1.155-2.146,1.155-2.146c0.221,0.229,0.083,0.979,0.083,0.979
	c-0.191,1.337,0.305,1.209,0.305,1.209c0.621-0.367-0.141-2.722-0.141-2.722l0.383-0.913c0.429,0.178,0.409,1.186,0.409,1.186
	s-0.396,1.599,0.232,1.269c1.06-1.299-0.527-2.983-0.527-2.983l0.466-1.117c0.819,0.298,0.484,1.171,0.658,1.841
	c0.178,0.668,0.547,0.224,0.547,0.224c0.751-1.546-1.114-2.728-1.114-2.728l0.289-1.216c0.516,0.229,0.473,1.06,0.473,1.06
	c0.074,1.307,0.637,0.705,0.637,0.705c0.487-0.768-1-2.334-1-2.334l0.856-4.069c-0.027,0.387-0.057,0.78-0.068,1.166
	c-0.023,0.878,0.356,1.872,0.628,2.637c0.275,0.787,0.671,1.545,1.329,1.795c0.067,0.028,0.537,0.196,0.604,0.075
	c0.769-1.441-1.58-4.328-1.58-4.328c-1.084-1.806-0.151-3.967-0.151-3.967c0.514,3.088,3.305,3.395,3.305,3.395
	c0.269-3.068-2.922-4.888-2.922-4.888c0.185-0.979,0.527-0.665,0.527-0.665c1.553,0.51,1.983-2.568,1.376-1.882
	c-0.601,0.687-0.913,0.188-0.913,0.188c0.51-1.519,2.036-2.937,2.036-2.937c-0.647,4.987,1.208,6.103,1.208,6.103
	c1.497-1.806-1.006-6.189-1.006-6.189s0.007-0.046,0.037-0.105c-0.108-0.066-0.208-0.148-0.306-0.231
	c-0.533,0.294-0.634,0.639-0.634,0.639c-4.352-1.103-4.767,2.075-4.767,2.075c0.52,1.195,3.563-0.313,3.563-0.313l-1.147,2.537
	c-3.996,0.92-4.503,3.836-4.503,3.836c1.335,0.28,3.852-1.529,3.852-1.529l-0.745,2.156c-3.547,0.844-4.302,3.713-4.302,3.713
	c2.164,0.425,3.935-1.73,3.935-1.73l-0.523,2.419c0,0-1.614,0.403-1.459,0.937c0.158,0.535,0.6-0.146,0.6-0.146
	c0.688-0.459,0.738-0.294,0.738-0.294l-0.322,1.151c0,0-1.379-0.047-1.521,0.49c-0.138,0.533-0.054,0.76,0.584,0.316
	c0.638-0.445,0.862-0.18,0.862-0.18l-0.292,1.005l-1.5,0.622c-0.41,0.173-0.221,0.699,0.446,0.281
	c0.667-0.416,0.889-0.363,0.889-0.363c-0.081,0.557-0.564,1.178-0.564,1.178C21.24,90.744,20.716,91.445,21.059,91.932z
	 M47.826,98.541c-0.513,0.044-0.003-0.538,0.061-0.844c0.141-0.68-0.198-0.661-0.198-0.661c-0.775,0.47-0.685,1.067-0.685,1.067
	c0.127,0.765-0.567,0.752-0.567,0.752c-0.581-0.742,0.933-2.252,0.933-2.252c-0.319-0.024-0.812,0.555-0.812,0.555
	c-0.917,0.992-1.131,0.529-1.131,0.529c-0.107-0.713,2.198-1.609,2.198-1.609l0.466-0.877c-0.41-0.223-1.178,0.435-1.178,0.435
	s-0.989,1.313-1.127,0.621c0.338-1.641,2.644-1.477,2.644-1.477L49,93.713c-0.748-0.447-1.214,0.361-1.842,0.651
	c-0.631,0.284-0.513-0.281-0.513-0.281c0.721-1.563,2.815-0.862,2.815-0.862l0.761-0.99c-0.509-0.254-1.124,0.302-1.124,0.302
	c-1.057,0.771-0.95-0.048-0.95-0.048c0.289-0.86,2.439-0.697,2.439-0.697l2.617-3.238c-0.288,0.266-0.573,0.537-0.865,0.79
	c-0.665,0.571-1.675,0.908-2.436,1.183c-0.786,0.285-1.624,0.451-2.231,0.104c-0.063-0.037-0.493-0.293-0.443-0.423
	c0.634-1.505,4.355-1.516,4.355-1.516c2.083-0.295,3.167-2.388,3.167-2.388c-2.718,1.556-4.721-0.414-4.721-0.414
	c2.211-2.146,5.637-0.823,5.637-0.823c0.645-0.763,0.186-0.83,0.186-0.83c-1.375-0.883,0.733-3.159,0.586-2.256
	c-0.15,0.901,0.435,0.83,0.435,0.83c0.853-1.356,0.985-3.437,0.985-3.437c-3.459,3.651-5.492,2.921-5.492,2.921
	c0.453-2.301,5.433-3.134,5.433-3.134s0.029-0.036,0.058-0.099c0.121,0.045,0.248,0.07,0.371,0.094c0.111,0.6-0.09,0.892-0.09,0.892
	c3.606,2.681,1.401,5.011,1.401,5.011c-1.251,0.354-2.009-2.959-2.009-2.959l-1.238,2.495c1.813,3.675-0.131,5.912-0.131,5.912
	c-1.061-0.858-1.248-3.951-1.248-3.951l-1.198,1.938c1.587,3.28-0.161,5.681-0.161,5.681c-1.697-1.406-1.146-4.14-1.146-4.14
	l-1.544,1.933c0,0,0.711,1.508,0.197,1.723c-0.514,0.217-0.265-0.557-0.265-0.557c-0.081-0.824-0.239-0.761-0.239-0.761
	l-0.689,0.979c0,0,0.908,1.039,0.583,1.484s-0.557,0.523-0.617-0.25c-0.057-0.773-0.41-0.777-0.41-0.777l-0.59,0.858l0.466,1.554
	c0.124,0.426-0.403,0.616-0.5-0.166c-0.102-0.779-0.282-0.92-0.282-0.92c-0.379,0.416-0.557,1.18-0.557,1.18
	C48.627,97.648,48.417,98.498,47.826,98.541z M95.188,64.131c0.201-0.477-0.511-0.169-0.821-0.204
	c-0.688-0.075-0.563-0.392-0.563-0.392c0.686-0.594,1.225-0.32,1.225-0.32c0.688,0.357,0.89-0.309,0.89-0.309
	c-0.526-0.779-2.429,0.193-2.429,0.193c0.074-0.312,0.777-0.602,0.777-0.602c1.226-0.564,0.854-0.912,0.854-0.912
	c-0.645-0.324-2.208,1.589-2.208,1.589l-0.979,0.173c-0.084-0.457,0.777-0.986,0.777-0.986s1.555-0.532,0.939-0.879
	c-1.668-0.186-2.225,2.06-2.225,2.06l-1.191,0.213c-0.193-0.849,0.723-1.042,1.191-1.55c0.467-0.512-0.111-0.577-0.111-0.577
	c-1.707,0.205-1.689,2.41-1.689,2.41l-1.174,0.418c-0.088-0.56,0.634-0.976,0.634-0.976c1.058-0.766,0.244-0.914,0.244-0.914
	c-0.905,0.006-1.416,2.103-1.416,2.103l-3.89,1.488c0.344-0.193,0.688-0.382,1.021-0.578c0.748-0.455,1.379-1.312,1.876-1.951
	c0.515-0.658,0.933-1.408,0.788-2.092c-0.014-0.071-0.128-0.56-0.262-0.55c-1.627,0.137-2.788,3.673-2.788,3.673
	c-0.927,1.889-3.247,2.274-3.247,2.274c2.314-2.103,1.063-4.617,1.063-4.617c-2.725,1.438-2.525,5.105-2.525,5.105
	c-0.922,0.375-0.846-0.08-0.846-0.08c-0.412-1.581-3.23-0.275-2.328-0.14c0.906,0.134,0.653,0.666,0.653,0.666
	c-1.553,0.393-3.569-0.123-3.569-0.123c4.539-2.158,4.477-4.319,4.477-4.319c-2.329-0.281-4.661,4.196-4.661,4.196
	s-0.043,0.019-0.106,0.024c0.004,0.129-0.014,0.258-0.029,0.384c0.54,0.29,0.879,0.188,0.879,0.188
	c1.43,4.259,4.328,2.886,4.328,2.886c0.722-1.084-2.194-2.826-2.194-2.826l2.759-0.409c2.936,2.858,5.662,1.704,5.662,1.704
	c-0.486-1.271-3.371-2.407-3.371-2.407l2.215-0.54c2.631,2.521,5.449,1.6,5.449,1.6c-0.813-2.048-3.584-2.369-3.584-2.369
	l2.318-0.871c0,0,1.211,1.144,1.577,0.721c0.36-0.42-0.45-0.423-0.45-0.423c-0.759-0.333-0.646-0.464-0.646-0.464l1.145-0.354
	c0,0,0.707,1.187,1.23,1.017c0.525-0.172,0.67-0.368-0.047-0.666c-0.719-0.293-0.615-0.629-0.615-0.629l1-0.295l1.336,0.922
	c0.365,0.252,0.709-0.193-0.004-0.528c-0.711-0.332-0.787-0.55-0.787-0.55c0.514-0.232,1.295-0.163,1.295-0.163
	C94.093,64.619,94.963,64.68,95.188,64.131z M74.477,70.566c-0.176-0.342-0.384-0.834-0.504-1.322
	c-0.123-0.493-0.158-0.975-0.207-1.254c-0.055-0.271-0.132-0.336-0.195-0.311c-0.063,0.022-0.117,0.127-0.127,0.32
	c-0.008,0.193,0.029,0.477,0.106,0.857c0.077,0.375,0.198,0.853,0.362,1.313c0.164,0.465,0.376,0.92,0.587,1.373
	c-0.146,0.093-0.285,0.185-0.426,0.28c0.106,0.263,0.211,0.527,0.507,1.063c0.292,0.543,0.777,1.354,1.047,1.896
	c0.273,0.539,0.338,0.807,0.325,1.134c-0.017,0.324-0.106,0.698-0.117,0.913c-0.015,0.216,0.05,0.273,0.084,0.365
	c0.033,0.093,0.026,0.224,0.011,0.402c-0.021,0.187-0.052,0.426-0.136,0.606c-0.083,0.179-0.226,0.296-0.369,0.412
	c0.239,0.021,0.479,0.034,0.72,0.017c0.233-0.023,0.469-0.088,0.707-0.289c0.234-0.197,0.474-0.539,0.563-0.914
	c0.09-0.378,0.037-0.787-0.106-1.215c-0.142-0.423-0.373-0.857-0.668-1.271s-0.664-0.799-0.971-1.186
	c-0.313-0.387-0.563-0.775-0.725-1.063c-0.161-0.29-0.229-0.481-0.244-0.594c-0.008-0.107,0.029-0.141,0.109-0.051
	c0.078,0.088,0.188,0.299,0.377,0.534c0.189,0.235,0.455,0.5,0.761,0.793s0.651,0.611,1.063,0.899
	c0.412,0.287,0.898,0.545,1.452,0.804c0.562,0.259,1.194,0.522,1.647,0.74c0.453,0.215,0.729,0.39,1.072,0.645
	c0.351,0.251,0.772,0.589,1.034,0.802c0.259,0.217,0.353,0.31,0.442,0.313c0.088,0.002,0.175-0.087,0.23-0.149
	c0.055-0.07,0.077-0.121,0.151-0.121c0.077,0,0.194,0.051,0.358,0.185c0.16,0.133,0.354,0.354,0.482,0.565
	c0.129,0.2,0.186,0.393,0.182,0.547c-0.004,0.151-0.061,0.264-0.123,0.369c0.203-0.004,0.406-0.01,0.605-0.127
	c0.198-0.115,0.396-0.339,0.49-0.604c0.095-0.269,0.087-0.581-0.066-0.916c-0.162-0.336-0.47-0.693-0.886-0.974
	c-0.417-0.278-0.942-0.478-1.551-0.627c-0.607-0.149-1.296-0.246-1.946-0.392c-0.65-0.138-1.262-0.327-1.828-0.578
	c-0.566-0.237-1.094-0.54-1.574-0.872c-0.473-0.337-0.904-0.705-1.264-1.062c-0.354-0.362-0.631-0.711-0.908-1.063
	c0.047-0.01,0.096-0.021,0.146-0.041c0.114,0.116,0.223,0.23,0.394,0.406c0.178,0.191,0.412,0.447,0.674,0.684
	c0.26,0.23,0.555,0.451,0.877,0.586c0.317,0.131,0.666,0.19,1.063,0.24c0.393,0.057,0.828,0.107,1.211,0.059
	c0.38-0.053,0.712-0.203,0.993-0.418c0.284-0.215,0.532-0.486,0.7-0.797c0.168-0.312,0.26-0.66,0.242-0.994
	c-0.023-0.334-0.15-0.647-0.299-0.834c-0.147-0.185-0.314-0.238-0.412-0.183c-0.095,0.054-0.117,0.214-0.115,0.378
	c0,0.16,0.035,0.323,0.015,0.508c-0.026,0.176-0.106,0.369-0.241,0.498c-0.132,0.131-0.324,0.199-0.443,0.193
	c-0.109,0-0.146-0.08-0.193-0.181c-0.055-0.104-0.114-0.244-0.215-0.277c-0.102-0.037-0.231,0.026-0.362,0.144
	c-0.127,0.119-0.251,0.287-0.386,0.449s-0.282,0.313-0.514,0.422c-0.238,0.112-0.558,0.188-0.916,0.123
	c-0.359-0.063-0.763-0.266-1.11-0.564c-0.343-0.301-0.634-0.701-0.923-1.1c-0.098,0.076-0.194,0.145-0.295,0.225
	C74.773,71.098,74.645,70.905,74.477,70.566L74.477,70.566z M78.68,92.068c-0.287,0.427-0.42-0.336-0.617-0.576
	c-0.436-0.538-0.638-0.266-0.638-0.266c-0.124,0.897,0.399,1.203,0.399,1.203c0.675,0.385,0.225,0.914,0.225,0.914
	c-0.941-0.016-1.156-2.141-1.156-2.141c-0.223,0.229-0.084,0.979-0.084,0.979c0.193,1.334-0.303,1.213-0.303,1.213
	c-0.621-0.367,0.135-2.721,0.135-2.721l-0.383-0.914c-0.43,0.178-0.406,1.186-0.406,1.186s0.396,1.596-0.23,1.269
	c-1.061-1.301,0.52-2.983,0.52-2.983l-0.466-1.117c-0.817,0.3-0.483,1.173-0.657,1.843c-0.175,0.67-0.543,0.224-0.543,0.224
	c-0.756-1.543,1.105-2.73,1.105-2.73l-0.288-1.215c-0.521,0.231-0.474,1.063-0.474,1.063c-0.069,1.304-0.637,0.705-0.637,0.705
	c-0.486-0.765,0.995-2.337,0.995-2.337L74.313,81.6c0.022,0.391,0.058,0.782,0.066,1.168c0.025,0.875-0.35,1.871-0.617,2.635
	c-0.271,0.789-0.671,1.55-1.326,1.802c-0.065,0.024-0.535,0.196-0.604,0.075c-0.771-1.441,1.566-4.336,1.566-4.336
	c1.084-1.803,0.145-3.963,0.145-3.963c-0.506,3.088-3.298,3.402-3.298,3.402c-0.274-3.068,2.912-4.896,2.912-4.896
	c-0.188-0.979-0.526-0.663-0.526-0.663c-1.554,0.514-1.99-2.565-1.386-1.878c0.606,0.685,0.919,0.187,0.919,0.187
	c-0.521-1.516-2.047-2.929-2.047-2.929c0.658,4.982-1.191,6.104-1.191,6.104c-1.498-1.802,0.99-6.193,0.99-6.193
	s-0.007-0.045-0.037-0.104c0.107-0.067,0.208-0.149,0.307-0.231c0.532,0.293,0.631,0.635,0.631,0.635
	c4.354-1.11,4.777,2.066,4.777,2.066c-0.518,1.194-3.566-0.306-3.566-0.306l1.156,2.534c3.996,0.911,4.508,3.828,4.508,3.828
	c-1.332,0.283-3.855-1.521-3.855-1.521l0.752,2.15c3.549,0.836,4.311,3.708,4.311,3.708c-2.162,0.433-3.938-1.724-3.938-1.724
	l0.527,2.418c0,0,1.615,0.398,1.462,0.934c-0.154,0.535-0.601-0.145-0.601-0.145c-0.69-0.459-0.738-0.293-0.738-0.293l0.326,1.152
	c0,0,1.379-0.052,1.52,0.48c0.141,0.535,0.057,0.764-0.583,0.322c-0.64-0.444-0.862-0.175-0.862-0.175l0.295,0.999l1.504,0.621
	c0.405,0.17,0.222,0.699-0.447,0.283c-0.67-0.416-0.893-0.363-0.893-0.363c0.084,0.557,0.566,1.178,0.566,1.178
	C78.495,90.885,79.02,91.583,78.68,92.068z M60.305,80.889c-0.271-0.269-0.679-0.621-1.104-0.886
	c-0.431-0.267-0.884-0.446-1.128-0.581c-0.245-0.136-0.281-0.225-0.241-0.279c0.043-0.057,0.161-0.074,0.349-0.021
	c0.186,0.052,0.443,0.172,0.781,0.361c0.336,0.19,0.752,0.449,1.143,0.748c0.393,0.3,0.758,0.639,1.127,0.982
	c0.131-0.111,0.262-0.216,0.396-0.318c0.224,0.179,0.44,0.364,0.858,0.807c0.424,0.445,1.048,1.154,1.482,1.58
	c0.432,0.425,0.665,0.568,0.98,0.654c0.313,0.084,0.693,0.11,0.902,0.17c0.211,0.052,0.244,0.134,0.321,0.188
	c0.08,0.062,0.201,0.097,0.384,0.133c0.18,0.039,0.418,0.087,0.616,0.062c0.194-0.027,0.353-0.124,0.503-0.227
	c-0.05,0.235-0.113,0.469-0.205,0.69c-0.09,0.219-0.225,0.418-0.488,0.583c-0.263,0.165-0.657,0.287-1.045,0.258
	c-0.386-0.027-0.761-0.209-1.123-0.477c-0.358-0.264-0.701-0.617-1.004-1.024c-0.302-0.409-0.557-0.877-0.832-1.285
	c-0.271-0.414-0.563-0.774-0.787-1.015c-0.226-0.243-0.387-0.367-0.49-0.416c-0.102-0.042-0.145-0.012-0.08,0.087
	c0.061,0.103,0.225,0.271,0.393,0.521c0.164,0.258,0.336,0.59,0.521,0.969c0.185,0.38,0.383,0.81,0.53,1.291
	c0.145,0.482,0.24,1.021,0.317,1.632c0.078,0.61,0.136,1.294,0.198,1.792c0.066,0.497,0.15,0.813,0.285,1.22
	s0.326,0.915,0.445,1.229c0.129,0.312,0.186,0.431,0.162,0.517c-0.023,0.088-0.136,0.144-0.216,0.174
	c-0.08,0.031-0.138,0.038-0.157,0.107c-0.023,0.071-0.01,0.204,0.063,0.396c0.081,0.193,0.231,0.45,0.389,0.638
	c0.154,0.183,0.319,0.295,0.468,0.338c0.146,0.039,0.269,0.021,0.393-0.004c-0.067,0.189-0.139,0.382-0.313,0.535
	c-0.168,0.155-0.439,0.277-0.722,0.284c-0.288,0.007-0.584-0.097-0.854-0.348c-0.27-0.254-0.515-0.659-0.651-1.142
	c-0.138-0.482-0.164-1.041-0.124-1.666c0.044-0.625,0.165-1.309,0.229-1.975c0.066-0.661,0.07-1.302,0.01-1.917
	c-0.057-0.612-0.18-1.204-0.348-1.766c-0.176-0.556-0.394-1.079-0.625-1.528c-0.234-0.449-0.482-0.818-0.73-1.191
	c-0.024,0.043-0.051,0.086-0.084,0.129c0.076,0.143,0.15,0.281,0.266,0.5c0.127,0.227,0.299,0.526,0.441,0.852
	c0.145,0.316,0.262,0.662,0.289,1.006c0.029,0.348-0.023,0.699-0.094,1.09c-0.067,0.395-0.154,0.824-0.315,1.176
	c-0.168,0.346-0.416,0.607-0.705,0.815c-0.291,0.204-0.627,0.356-0.976,0.422c-0.347,0.062-0.709,0.043-1.021-0.079
	c-0.313-0.121-0.57-0.337-0.697-0.535c-0.131-0.197-0.131-0.375-0.051-0.451c0.077-0.074,0.238-0.047,0.393,0.008
	c0.154,0.05,0.303,0.131,0.483,0.168c0.174,0.029,0.382,0.013,0.547-0.074c0.161-0.089,0.288-0.249,0.322-0.361
	c0.03-0.107-0.03-0.166-0.114-0.244c-0.084-0.08-0.193-0.182-0.197-0.287c-0.004-0.106,0.094-0.215,0.248-0.303
	c0.15-0.082,0.353-0.15,0.547-0.229s0.383-0.173,0.561-0.357c0.18-0.191,0.346-0.473,0.396-0.837
	c0.047-0.36-0.021-0.807-0.197-1.226c-0.182-0.421-0.473-0.82-0.766-1.221c0.104-0.068,0.201-0.141,0.305-0.211
	C60.716,81.336,60.572,81.15,60.305,80.889L60.305,80.889z M79.482,91.488c0.492-0.147-0.195-0.504-0.363-0.769
	c-0.379-0.579-0.055-0.685-0.055-0.685c0.894,0.156,1.021,0.745,1.021,0.745c0.161,0.762,0.805,0.495,0.805,0.495
	c0.272-0.901-1.688-1.76-1.688-1.76c0.289-0.139,0.96,0.221,0.96,0.221c1.211,0.597,1.245,0.086,1.245,0.086
	c-0.158-0.704-2.631-0.706-2.631-0.706l-0.752-0.646c0.303-0.355,1.254-0.024,1.254-0.024s1.396,0.869,1.279,0.172
	c-0.914-1.407-3.004-0.419-3.004-0.419l-0.918-0.79c0.535-0.686,1.264-0.1,1.955-0.059c0.691,0.039,0.379-0.449,0.379-0.449
	c-1.238-1.19-2.938,0.214-2.938,0.214l-1.068-0.646c0.381-0.423,1.158-0.124,1.158-0.124c1.262,0.334,0.865-0.389,0.865-0.389
	c-0.58-0.7-2.529,0.23-2.529,0.23l-3.607-2.071c0.363,0.144,0.729,0.293,1.096,0.424c0.822,0.292,1.885,0.237,2.697,0.219
	c0.832-0.021,1.678-0.163,2.117-0.71c0.047-0.054,0.352-0.451,0.258-0.552c-1.135-1.175-4.606,0.164-4.606,0.164
	c-2.05,0.478-3.817-1.08-3.817-1.08c3.096,0.466,4.252-2.095,4.252-2.095c-2.836-1.203-5.554,1.268-5.554,1.268
	c-0.873-0.479-0.472-0.705-0.472-0.705c0.968-1.318-1.827-2.679-1.361-1.89c0.467,0.782-0.104,0.93-0.104,0.93
	c-1.289-0.959-2.16-2.846-2.16-2.846c4.541,2.153,6.173,0.735,6.173,0.735c-1.251-1.98-6.196-0.959-6.196-0.959
	S63.133,77,63.083,76.952c-0.095,0.082-0.205,0.153-0.313,0.222c0.114,0.596,0.41,0.797,0.41,0.797
	c-2.393,3.803,0.504,5.18,0.504,5.18c1.295-0.125,0.801-3.489,0.801-3.489l2.061,1.877c-0.361,4.083,2.258,5.466,2.258,5.466
	c0.68-1.181-0.265-4.134-0.265-4.134l1.817,1.376c-0.295,3.631,2.205,5.234,2.205,5.234c1.073-1.924-0.431-4.275-0.431-4.275
	l2.142,1.247c0,0-0.121,1.659,0.437,1.676c0.558,0.019,0.048-0.616,0.048-0.616c-0.227-0.797-0.051-0.795-0.051-0.795l0.997,0.662
	c0,0-0.474,1.301-0.009,1.6c0.464,0.297,0.709,0.289,0.483-0.459c-0.225-0.744,0.101-0.871,0.101-0.871l0.859,0.586l0.131,1.617
	c0.037,0.441,0.598,0.432,0.406-0.334c-0.188-0.766-0.07-0.961-0.07-0.961c0.504,0.25,0.945,0.899,0.945,0.899
	C78.408,90.945,78.915,91.661,79.482,91.488z M94.039,68.07c-0.117,0.505-0.516-0.161-0.784-0.315
	c-0.604-0.344-0.688-0.017-0.688-0.017c0.205,0.882,0.804,0.979,0.804,0.979c0.769,0.115,0.54,0.773,0.54,0.773
	c-0.887,0.322-1.854-1.586-1.854-1.586c-0.123,0.298,0.275,0.945,0.275,0.945c0.661,1.178,0.154,1.238,0.154,1.238
	c-0.711-0.119-0.854-2.587-0.854-2.587l-0.691-0.715c-0.334,0.319,0.052,1.253,0.052,1.253s0.942,1.348,0.241,1.266
	c-1.455-0.828-0.588-2.972-0.588-2.972l-0.838-0.873c-0.658,0.573-0.029,1.267,0.051,1.955c0.076,0.687-0.43,0.401-0.43,0.401
	c-1.26-1.168,0.053-2.942,0.053-2.942l-0.707-1.03c-0.399,0.405-0.062,1.16-0.062,1.16c0.406,1.244-0.339,0.887-0.339,0.887
	c-0.729-0.537,0.091-2.535,0.091-2.535l-2.271-3.488c0.164,0.357,0.336,0.711,0.486,1.068c0.336,0.808,0.342,1.871,0.368,2.681
	c0.03,0.834-0.069,1.687-0.591,2.155c-0.055,0.051-0.434,0.379-0.536,0.287c-1.237-1.064-0.095-4.605-0.095-4.605
	c0.361-2.072-1.291-3.75-1.291-3.75c0.637,3.063-1.855,4.359-1.855,4.359c-1.358-2.766,0.959-5.614,0.959-5.614
	c-0.525-0.847-0.729-0.435-0.729-0.435c-1.267,1.039-2.779-1.676-1.968-1.252c0.813,0.424,0.924-0.156,0.924-0.156
	c-1.026-1.229-2.963-2-2.963-2c2.406,4.418,1.08,6.125,1.08,6.125c-2.047-1.139-1.303-6.135-1.303-6.135s-0.021-0.039-0.072-0.082
	c0.08-0.102,0.145-0.218,0.205-0.328c0.604,0.084,0.817,0.363,0.817,0.363c3.66-2.603,5.197,0.213,5.197,0.213
	c-0.052,1.301-3.437,0.995-3.437,0.995l1.994,1.952c4.053-0.589,5.578,1.95,5.578,1.95c-1.141,0.743-4.145-0.034-4.145-0.034
	l1.477,1.738c3.61-0.497,5.354,1.91,5.354,1.91c-1.862,1.18-4.295-0.191-4.295-0.191l1.365,2.066c0,0,1.646-0.211,1.696,0.347
	c0.047,0.552-0.61,0.079-0.61,0.079c-0.809-0.18-0.799-0.008-0.799-0.008l0.719,0.957c0,0,1.269-0.541,1.594-0.094
	c0.322,0.446,0.326,0.69-0.43,0.51c-0.754-0.188-0.865,0.146-0.865,0.146l0.635,0.826l1.624,0.039
	c0.442,0.013,0.459,0.57-0.315,0.422c-0.775-0.146-0.96-0.016-0.96-0.016c0.278,0.49,0.949,0.896,0.949,0.896
	C93.439,67.032,94.182,67.496,94.039,68.07z M75.948,12.394c-0.392-0.335-0.321,0.433-0.449,0.72
	c-0.285,0.632-0.547,0.416-0.547,0.416c-0.353-0.835,0.073-1.265,0.073-1.265c0.554-0.545-0.021-0.943-0.021-0.943
	c-0.901,0.26-0.565,2.372-0.565,2.372c-0.272-0.168-0.33-0.926-0.33-0.926c-0.157-1.34-0.604-1.094-0.604-1.094
	c-0.506,0.515,0.829,2.592,0.829,2.592L74.2,15.251c-0.462-0.063-0.701-1.044-0.701-1.044s-0.026-1.642-0.543-1.164
	c-0.694,1.526,1.269,2.75,1.269,2.75l-0.164,1.198c-0.869-0.077-0.77-1.006-1.107-1.61c-0.342-0.601-0.583-0.072-0.583-0.072
	c-0.332,1.683,1.771,2.351,1.771,2.351l0.033,1.248c-0.561-0.09-0.73-0.902-0.73-0.902c-0.403-1.246-0.795-0.519-0.795-0.519
	c-0.272,0.864,1.563,1.998,1.563,1.998l0.214,4.156c-0.075-0.385-0.146-0.77-0.237-1.147c-0.197-0.851-0.817-1.716-1.274-2.388
	c-0.468-0.691-1.046-1.322-1.745-1.397c-0.07-0.007-0.568-0.052-0.604,0.081c-0.373,1.59,2.631,3.786,2.631,3.786
	c1.513,1.466,1.16,3.794,1.16,3.794c-1.281-2.854-4.061-2.44-4.061-2.44c0.523,3.036,4.074,3.982,4.074,3.982
	c0.07,0.993-0.34,0.778-0.34,0.778c-1.631-0.096-1.262,2.988-0.853,2.171c0.409-0.819,0.839-0.418,0.839-0.418
	c-0.111,1.601-1.222,3.358-1.222,3.358c-0.649-4.985-2.728-5.589-2.728-5.589c-0.986,2.125,2.553,5.729,2.553,5.729
	s0.007,0.044-0.01,0.111c0.123,0.035,0.24,0.089,0.354,0.144c0.442-0.421,0.45-0.777,0.45-0.777
	c4.492-0.047,4.083-3.228,4.083-3.228c-0.81-1.021-3.369,1.215-3.369,1.215l0.468-2.748c3.623-1.909,3.367-4.86,3.367-4.86
	c-1.361,0.069-3.332,2.464-3.332,2.464l0.172-2.273c3.211-1.721,3.204-4.692,3.204-4.692c-2.198,0.141-3.358,2.679-3.358,2.679
	L74.536,19.5c0,0,1.46-0.799,1.175-1.275c-0.289-0.477-0.544,0.293-0.544,0.293c-0.551,0.619-0.642,0.473-0.642,0.473l0.018-1.196
	c0,0,1.35-0.307,1.35-0.859c-0.004-0.552-0.146-0.751-0.647-0.161c-0.504,0.596-0.788,0.391-0.788,0.391l0.025-1.042l1.293-0.985
	c0.349-0.27,0.033-0.733-0.504-0.158c-0.541,0.571-0.766,0.579-0.766,0.579c-0.066-0.562,0.242-1.285,0.242-1.285
	C76.072,13.587,76.4,12.775,75.948,12.394z M75.667,34.082c-0.376,0.059-0.912,0.105-1.413,0.07
	c-0.506-0.037-0.977-0.154-1.254-0.189c-0.277-0.034-0.359,0.019-0.359,0.087c0.004,0.07,0.088,0.154,0.27,0.223
	c0.182,0.064,0.46,0.116,0.846,0.163c0.383,0.042,0.872,0.074,1.365,0.06c0.492-0.012,0.988-0.072,1.486-0.136
	c0.043,0.167,0.086,0.329,0.134,0.493c0.284-0.02,0.571-0.039,1.168-0.153c0.606-0.112,1.526-0.322,2.127-0.412
	c0.598-0.093,0.872-0.071,1.178,0.045c0.306,0.114,0.632,0.317,0.832,0.391c0.205,0.08,0.274,0.037,0.376,0.032
	c0.094,0,0.219,0.045,0.387,0.119c0.17,0.074,0.393,0.178,0.537,0.314c0.141,0.134,0.211,0.306,0.273,0.477
	c0.095-0.22,0.182-0.445,0.238-0.678c0.055-0.231,0.063-0.473-0.055-0.762c-0.117-0.285-0.367-0.617-0.697-0.819
	c-0.332-0.203-0.737-0.278-1.188-0.271c-0.445,0.001-0.934,0.087-1.417,0.241c-0.485,0.153-0.963,0.383-1.425,0.554
	c-0.465,0.178-0.909,0.297-1.235,0.361c-0.325,0.065-0.526,0.072-0.641,0.052c-0.104-0.027-0.124-0.072-0.015-0.121
	c0.108-0.047,0.344-0.087,0.625-0.193c0.281-0.109,0.617-0.276,0.986-0.479c0.375-0.2,0.788-0.433,1.188-0.738
	c0.398-0.303,0.795-0.683,1.215-1.132c0.42-0.45,0.865-0.971,1.211-1.335c0.347-0.364,0.598-0.572,0.945-0.822
	c0.348-0.257,0.799-0.552,1.082-0.736c0.287-0.178,0.401-0.24,0.437-0.324c0.028-0.083-0.026-0.193-0.074-0.265
	c-0.047-0.072-0.091-0.112-0.067-0.181c0.023-0.072,0.11-0.171,0.285-0.286c0.178-0.11,0.453-0.228,0.688-0.285
	c0.231-0.059,0.431-0.056,0.577-0.002c0.145,0.047,0.23,0.138,0.314,0.23c0.059-0.195,0.114-0.388,0.064-0.616
	c-0.048-0.227-0.198-0.481-0.423-0.652c-0.229-0.174-0.527-0.262-0.896-0.219c-0.364,0.049-0.802,0.232-1.194,0.541
	c-0.396,0.312-0.744,0.75-1.075,1.28c-0.33,0.53-0.636,1.156-0.974,1.729c-0.332,0.575-0.701,1.097-1.113,1.562
	c-0.403,0.465-0.854,0.873-1.315,1.227c-0.467,0.347-0.953,0.644-1.401,0.874c-0.453,0.223-0.873,0.382-1.293,0.538
	c0.004-0.048,0.01-0.1,0.006-0.154c0.146-0.071,0.287-0.14,0.512-0.249c0.234-0.111,0.55-0.253,0.855-0.43
	c0.301-0.174,0.601-0.386,0.824-0.649c0.225-0.263,0.391-0.579,0.561-0.939c0.172-0.356,0.359-0.755,0.434-1.136
	c0.063-0.376,0.023-0.736-0.094-1.074c-0.117-0.337-0.299-0.658-0.545-0.914c-0.24-0.252-0.547-0.448-0.867-0.535
	c-0.326-0.083-0.662-0.057-0.887,0.028c-0.221,0.082-0.321,0.225-0.303,0.334c0.021,0.107,0.168,0.18,0.326,0.223
	c0.154,0.05,0.318,0.07,0.486,0.149c0.156,0.077,0.318,0.213,0.398,0.38c0.08,0.166,0.09,0.371,0.047,0.481
	c-0.029,0.104-0.121,0.118-0.23,0.128c-0.113,0.02-0.266,0.037-0.329,0.121s-0.047,0.227,0.022,0.388
	c0.074,0.159,0.199,0.33,0.31,0.508c0.114,0.178,0.208,0.364,0.242,0.617c0.032,0.26,0.006,0.587-0.165,0.911
	c-0.171,0.319-0.49,0.643-0.883,0.879c-0.393,0.233-0.861,0.386-1.331,0.539c0.043,0.117,0.079,0.229,0.124,0.351
	C76.264,33.961,76.043,34.025,75.667,34.082L75.667,34.082z M97.415,36.729c0.317,0.404-0.446,0.292-0.738,0.408
	c-0.647,0.249-0.446,0.522-0.446,0.522c0.815,0.397,1.27-0.003,1.27-0.003c0.57-0.523,0.936,0.067,0.936,0.067
	c-0.305,0.891-2.396,0.439-2.396,0.439c0.151,0.28,0.909,0.381,0.909,0.381c1.326,0.229,1.058,0.661,1.058,0.661
	c-0.54,0.478-2.547-0.967-2.547-0.967l-0.985,0.083c0.037,0.465,1.002,0.751,1.002,0.751s1.642,0.119,1.135,0.61
	c-1.563,0.607-2.678-1.416-2.678-1.416l-1.205,0.101c0.031,0.869,0.963,0.819,1.547,1.191c0.584,0.374,0.043,0.587,0.043,0.587
	c-1.699,0.242-2.254-1.897-2.254-1.897l-1.244-0.099c0.061,0.565,0.865,0.776,0.865,0.776c1.219,0.47,0.474,0.824,0.474,0.824
	c-0.875,0.227-1.912-1.666-1.912-1.666l-4.142-0.437c0.381,0.096,0.767,0.187,1.139,0.295c0.836,0.247,1.667,0.913,2.313,1.401
	c0.668,0.506,1.264,1.117,1.305,1.818c0.004,0.072,0.021,0.572-0.114,0.597c-1.61,0.29-3.64-2.83-3.64-2.83
	c-1.383-1.587-3.726-1.361-3.726-1.361c2.782,1.434,2.218,4.186,2.218,4.186c-3.006-0.685-3.757-4.278-3.757-4.278
	c-0.989-0.126-0.796,0.293-0.796,0.293c0.008,1.637-3.053,1.099-2.214,0.735c0.839-0.362,0.46-0.813,0.46-0.813
	c-1.602,0.022-3.416,1.04-3.416,1.04c4.941,0.916,5.436,3.02,5.436,3.02c-2.174,0.873-5.582-2.855-5.582-2.855
	s-0.047-0.006-0.114,0.003c-0.027-0.122-0.073-0.245-0.121-0.36c0.442-0.419,0.795-0.406,0.795-0.406
	c0.289-4.484,3.442-3.907,3.442-3.907c0.977,0.862-1.393,3.3-1.393,3.3l2.768-0.317c2.102-3.518,5.033-3.105,5.033-3.105
	c-0.141,1.354-2.638,3.198-2.638,3.198l2.278-0.051c1.893-3.117,4.854-2.952,4.854-2.952c-0.259,2.19-2.853,3.212-2.853,3.212
	l2.463,0.243c0,0,0.876-1.413,1.339-1.099c0.459,0.311-0.326,0.524-0.326,0.524c-0.647,0.515-0.506,0.614-0.506,0.614l1.197,0.049
	c0,0,0.376-1.329,0.93-1.299c0.55,0.03,0.741,0.183,0.127,0.653c-0.624,0.471-0.437,0.768-0.437,0.768l1.045,0.03l1.053-1.24
	c0.289-0.334,0.734,0.003,0.131,0.512C94.197,37.772,94.182,38,94.182,38c0.553,0.092,1.291-0.173,1.291-0.173
	C96.234,36.538,97.061,36.254,97.415,36.729z M81.105,50.75c-0.34,0.174-0.799,0.454-1.186,0.775
	c-0.385,0.326-0.697,0.701-0.898,0.893c-0.205,0.191-0.303,0.198-0.342,0.143c-0.041-0.057-0.021-0.174,0.086-0.336
	c0.107-0.16,0.299-0.367,0.588-0.63c0.281-0.262,0.66-0.579,1.063-0.855c0.406-0.282,0.842-0.526,1.281-0.77
	c-0.063-0.161-0.124-0.314-0.183-0.476c0.239-0.154,0.484-0.305,1.034-0.565c0.554-0.267,1.419-0.643,1.959-0.922
	c0.537-0.28,0.749-0.457,0.927-0.73c0.176-0.272,0.321-0.629,0.438-0.805c0.114-0.187,0.205-0.193,0.282-0.249
	c0.084-0.057,0.154-0.164,0.244-0.324c0.095-0.159,0.211-0.372,0.248-0.57c0.033-0.193-0.012-0.371-0.06-0.547
	c0.208,0.121,0.408,0.25,0.595,0.406c0.178,0.156,0.328,0.345,0.401,0.647c0.074,0.3,0.069,0.713-0.077,1.075
	c-0.146,0.357-0.433,0.658-0.799,0.917c-0.361,0.262-0.805,0.479-1.285,0.639c-0.482,0.163-1.006,0.26-1.482,0.395
	c-0.477,0.129-0.908,0.295-1.207,0.436c-0.299,0.14-0.467,0.255-0.547,0.335c-0.07,0.087-0.059,0.134,0.061,0.107
	c0.113-0.028,0.324-0.131,0.617-0.213c0.295-0.079,0.66-0.138,1.08-0.197c0.42-0.057,0.886-0.113,1.393-0.105
	c0.503,0.01,1.044,0.085,1.646,0.201c0.606,0.114,1.271,0.273,1.769,0.366c0.494,0.09,0.817,0.107,1.249,0.105
	c0.43,0,0.973-0.025,1.305-0.045c0.34-0.025,0.471-0.043,0.543,0.005c0.074,0.051,0.096,0.173,0.098,0.259
	c0.008,0.085-0.006,0.143,0.055,0.186c0.061,0.042,0.191,0.072,0.398,0.061c0.209-0.017,0.496-0.081,0.726-0.174
	c0.222-0.089,0.379-0.21,0.467-0.339c0.084-0.125,0.104-0.248,0.117-0.372c0.161,0.124,0.322,0.247,0.413,0.459
	c0.098,0.207,0.127,0.506,0.047,0.775c-0.084,0.275-0.271,0.525-0.594,0.708c-0.326,0.176-0.785,0.284-1.285,0.267
	c-0.504-0.019-1.044-0.164-1.624-0.398c-0.581-0.232-1.194-0.559-1.81-0.825c-0.606-0.268-1.213-0.47-1.821-0.604
	c-0.597-0.134-1.2-0.198-1.784-0.213c-0.581-0.001-1.146,0.041-1.645,0.121c-0.5,0.087-0.931,0.206-1.362,0.325
	c0.034,0.039,0.067,0.079,0.094,0.121c0.161-0.027,0.315-0.054,0.562-0.099c0.254-0.047,0.595-0.121,0.942-0.156
	c0.349-0.038,0.716-0.043,1.05,0.039c0.34,0.077,0.657,0.234,1.008,0.428c0.352,0.184,0.738,0.396,1.02,0.661
	c0.275,0.267,0.449,0.583,0.557,0.924s0.148,0.704,0.102,1.056c-0.047,0.349-0.178,0.688-0.393,0.946
	c-0.207,0.259-0.496,0.438-0.726,0.499c-0.228,0.063-0.396,0.01-0.442-0.091s0.03-0.243,0.131-0.374
	c0.095-0.127,0.215-0.243,0.306-0.404c0.085-0.158,0.135-0.359,0.103-0.543c-0.033-0.184-0.148-0.354-0.246-0.416
	c-0.094-0.063-0.168-0.027-0.269,0.029c-0.101,0.055-0.231,0.131-0.332,0.102c-0.104-0.03-0.175-0.158-0.212-0.33
	c-0.037-0.17-0.037-0.381-0.051-0.592c-0.016-0.207-0.047-0.418-0.168-0.643c-0.127-0.227-0.342-0.477-0.67-0.639
	c-0.328-0.155-0.775-0.226-1.229-0.19c-0.456,0.045-0.926,0.198-1.396,0.353c-0.033-0.121-0.073-0.233-0.107-0.354
	C81.659,50.495,81.441,50.574,81.105,50.75L81.105,50.75z M97.113,35.786c0.013-0.515-0.54,0.029-0.844,0.107
	c-0.67,0.18-0.67-0.16-0.67-0.16c0.43-0.8,1.026-0.745,1.026-0.745c0.774,0.087,0.722-0.609,0.722-0.609
	c-0.774-0.535-2.197,1.061-2.197,1.061c-0.041-0.315,0.51-0.842,0.51-0.842c0.939-0.97,0.463-1.158,0.463-1.158
	c-0.715-0.07-1.482,2.28-1.482,2.28l-0.85,0.517c-0.241-0.396,0.369-1.2,0.369-1.2s1.259-1.064,0.554-1.161
	c-1.621,0.43-1.325,2.723-1.325,2.723l-1.033,0.631c-0.489-0.722,0.297-1.231,0.547-1.877c0.252-0.645-0.309-0.5-0.309-0.5
	c-1.517,0.81-0.705,2.862-0.705,2.862l-0.945,0.813c-0.285-0.493,0.242-1.137,0.242-1.137c0.707-1.097-0.104-0.944-0.104-0.944
	c-0.843,0.335-0.562,2.476-0.562,2.476l-3.086,2.79c0.252-0.299,0.508-0.601,0.741-0.908c0.534-0.691,0.813-1.719,1.044-2.498
	c0.237-0.798,0.362-1.646-0.021-2.233c-0.04-0.063-0.322-0.476-0.446-0.417c-1.466,0.718-1.268,4.434-1.268,4.434
	c-0.182,2.096-2.209,3.296-2.209,3.296c1.402-2.802-0.678-4.69-0.678-4.69c-2.02,2.325-0.51,5.674-0.51,5.674
	c-0.727,0.683-0.816,0.228-0.816,0.228c-0.955-1.326-3.112,0.911-2.221,0.711c0.893-0.198,0.854,0.386,0.854,0.386
	c-1.307,0.929-3.372,1.176-3.372,1.176c3.452-3.652,2.606-5.645,2.606-5.645c-2.271,0.583-2.826,5.6-2.826,5.6
	s-0.028,0.033-0.09,0.063c0.047,0.119,0.08,0.245,0.11,0.366c0.604,0.076,0.888-0.143,0.888-0.143
	c2.873,3.454,5.078,1.124,5.078,1.124c0.281-1.271-3.066-1.844-3.066-1.844l2.42-1.375c3.773,1.602,5.895-0.461,5.895-0.461
	c-0.912-1.008-4.013-1.025-4.013-1.025l1.868-1.304c3.369,1.401,5.664-0.478,5.664-0.478c-1.5-1.617-4.2-0.914-4.2-0.914
	l1.845-1.651c0,0,1.544,0.626,1.732,0.104c0.188-0.525-0.571-0.238-0.571-0.238c-0.829-0.032-0.771-0.194-0.771-0.194l0.937-0.743
	c0,0,1.09,0.85,1.521,0.5c0.426-0.35,0.489-0.584-0.285-0.604c-0.778-0.012-0.803-0.362-0.803-0.362l0.825-0.639l1.577,0.377
	c0.434,0.101,0.594-0.437-0.195-0.49c-0.781-0.056-0.933-0.228-0.933-0.228c0.394-0.403,1.147-0.623,1.147-0.623
	C96.268,36.639,97.104,36.378,97.113,35.786z"/>
<circle cx="50.001" cy="50" r="30.221"/>
<path fill="#FFFFFF" d="M49.547,77.109c0.503,0.354,1.117,0.553,1.778,0.509c0.624-0.036,1.18-0.29,1.622-0.666
	c0.541,0.284,1.18,0.409,1.83,0.284c0.609-0.119,1.135-0.436,1.522-0.865c0.577,0.215,1.226,0.257,1.853,0.053
	c0.595-0.193,1.07-0.574,1.406-1.05c0.598,0.144,1.24,0.101,1.842-0.183c0.563-0.266,0.99-0.703,1.262-1.219
	c0.613,0.07,1.246-0.054,1.806-0.406c0.526-0.34,0.896-0.824,1.101-1.368c0.615-0.011,1.229-0.208,1.742-0.634
	c0.476-0.397,0.78-0.929,0.914-1.492c0.614-0.086,1.198-0.361,1.647-0.846c0.427-0.457,0.662-1.021,0.729-1.597
	c0.59-0.164,1.137-0.511,1.526-1.047c0.36-0.504,0.526-1.094,0.521-1.676c0.565-0.233,1.064-0.646,1.384-1.228
	c0.295-0.551,0.388-1.152,0.307-1.729c0.534-0.307,0.978-0.776,1.22-1.393c0.228-0.582,0.238-1.192,0.086-1.754
	c0.494-0.369,0.869-0.89,1.035-1.535c0.149-0.604,0.086-1.209-0.135-1.75c0.441-0.425,0.753-0.992,0.834-1.646
	c0.077-0.624-0.061-1.218-0.352-1.724c0.386-0.479,0.623-1.08,0.621-1.741c-0.002-0.625-0.215-1.199-0.563-1.662
	c0.318-0.525,0.48-1.149,0.396-1.807c-0.082-0.619-0.362-1.161-0.767-1.577c0.248-0.562,0.333-1.203,0.168-1.844
	c-0.157-0.605-0.509-1.107-0.963-1.471c0.183-0.585,0.183-1.231-0.063-1.847c-0.229-0.583-0.642-1.033-1.135-1.335
	c0.104-0.607,0.022-1.248-0.295-1.827c-0.305-0.548-0.767-0.944-1.295-1.188c0.027-0.611-0.134-1.24-0.523-1.773
	c-0.368-0.505-0.875-0.84-1.433-1.011c-0.047-0.614-0.288-1.213-0.737-1.698c-0.431-0.453-0.979-0.723-1.553-0.826
	c-0.123-0.601-0.435-1.166-0.943-1.59c-0.484-0.395-1.062-0.596-1.644-0.623c-0.198-0.581-0.575-1.104-1.136-1.457
	c-0.533-0.335-1.127-0.461-1.707-0.417c-0.271-0.549-0.712-1.023-1.313-1.302c-0.57-0.265-1.174-0.314-1.744-0.198
	c-0.336-0.514-0.836-0.925-1.463-1.129c-0.599-0.189-1.205-0.164-1.761,0.022c-0.399-0.465-0.94-0.814-1.593-0.935
	c-0.613-0.116-1.216-0.013-1.736,0.242c-0.455-0.413-1.041-0.688-1.705-0.729c-0.621-0.036-1.205,0.139-1.691,0.461
	c-0.503-0.355-1.117-0.555-1.778-0.512c-0.622,0.041-1.181,0.29-1.624,0.665c-0.542-0.284-1.177-0.408-1.827-0.28
	c-0.612,0.119-1.134,0.435-1.529,0.866c-0.572-0.218-1.218-0.258-1.846-0.052c-0.595,0.194-1.072,0.573-1.407,1.048
	c-0.594-0.146-1.245-0.103-1.842,0.181c-0.563,0.269-0.989,0.705-1.261,1.216c-0.612-0.067-1.249,0.056-1.802,0.411
	c-0.528,0.337-0.899,0.824-1.107,1.366c-0.607,0.01-1.226,0.211-1.735,0.632c-0.481,0.403-0.786,0.931-0.921,1.495
	c-0.608,0.087-1.194,0.362-1.646,0.845c-0.428,0.457-0.663,1.02-0.728,1.597c-0.594,0.165-1.138,0.508-1.525,1.043
	c-0.371,0.508-0.53,1.097-0.522,1.678c-0.566,0.236-1.064,0.649-1.384,1.228c-0.297,0.548-0.391,1.154-0.309,1.729
	c-0.528,0.302-0.974,0.773-1.212,1.389c-0.232,0.582-0.242,1.194-0.092,1.753c-0.491,0.371-0.871,0.891-1.035,1.535
	c-0.151,0.606-0.087,1.214,0.134,1.75c-0.439,0.428-0.755,0.994-0.833,1.649c-0.076,0.623,0.061,1.218,0.35,1.723
	c-0.384,0.477-0.62,1.081-0.62,1.741c0.003,0.626,0.216,1.198,0.567,1.662c-0.326,0.527-0.483,1.15-0.402,1.808
	c0.08,0.62,0.366,1.161,0.771,1.577c-0.255,0.563-0.335,1.203-0.169,1.842c0.156,0.606,0.507,1.107,0.959,1.471
	c-0.183,0.589-0.183,1.234,0.063,1.85c0.23,0.582,0.641,1.034,1.136,1.338c-0.104,0.604-0.023,1.246,0.299,1.827
	c0.302,0.544,0.761,0.942,1.292,1.185c-0.028,0.614,0.131,1.237,0.523,1.775c0.366,0.503,0.875,0.838,1.433,1.012
	c0.047,0.609,0.287,1.215,0.74,1.696c0.428,0.454,0.978,0.726,1.548,0.822c0.124,0.603,0.439,1.17,0.948,1.593
	c0.482,0.396,1.058,0.594,1.639,0.622c0.2,0.583,0.581,1.104,1.138,1.458c0.532,0.334,1.127,0.459,1.708,0.414
	c0.27,0.552,0.712,1.023,1.312,1.304c0.567,0.265,1.172,0.315,1.745,0.198c0.335,0.513,0.832,0.927,1.466,1.132
	c0.594,0.19,1.205,0.161,1.755-0.024c0.399,0.467,0.945,0.813,1.594,0.938c0.616,0.11,1.215,0.01,1.738-0.244
	c0.454,0.413,1.04,0.688,1.701,0.729C48.477,77.605,49.061,77.43,49.547,77.109z"/>
<path d="M49.953,23.822c14.456-0.028,26.197,11.669,26.227,26.13l0,0c0.027,14.457-11.668,26.196-26.125,26.229l0,0
	c-14.46,0.024-26.202-11.673-26.23-26.133l0,0C23.796,35.59,35.493,23.847,49.953,23.822L49.953,23.822z M49.953,24.608
	c-14.021,0.054-25.343,11.418-25.338,25.44l0,0c0.05,14.021,11.414,25.343,25.435,25.339l0,0
	c14.023-0.053,25.341-11.414,25.337-25.438l0,0C75.337,35.929,63.975,24.61,49.953,24.608L49.953,24.608L49.953,24.608z"/>
<path d="M49.955,26.03c13.238-0.025,23.992,10.688,24.018,23.923c0.023,13.236-10.688,23.99-23.926,24.016
	C36.81,73.995,26.054,63.282,26.028,50.047C26.004,36.806,36.717,26.055,49.955,26.03z"/>
</svg>
