<?xml version="1.0" encoding="utf-8"?>
<!-- Generator: Adobe Illustrator 16.0.0, SVG Export Plug-In . SVG Version: 6.00 Build 0)  -->
<!DOCTYPE svg PUBLIC "-//W3C//DTD SVG 1.1//EN" "http://www.w3.org/Graphics/SVG/1.1/DTD/svg11.dtd">
<svg version="1.1"
	 id="svg2" xmlns:dc="http://purl.org/dc/elements/1.1/" xmlns:svg="http://www.w3.org/2000/svg" xmlns:cc="http://creativecommons.org/ns#" xmlns:rdf="http://www.w3.org/1999/02/22-rdf-syntax-ns#" xmlns:inkscape="http://www.inkscape.org/namespaces/inkscape" xmlns:sodipodi="http://sodipodi.sourceforge.net/DTD/sodipodi-0.dtd" sodipodi:docname="cn.svg" inkscape:version="0.48.4 r9939"
	 xmlns="http://www.w3.org/2000/svg" xmlns:xlink="http://www.w3.org/1999/xlink" x="0px" y="0px" width="143.447px"
	 height="71.281px" viewBox="0 0 143.447 71.281" enable-background="new 0 0 143.447 71.281" xml:space="preserve">
<title  id="title4">Flag of the People&apos;s Republic of China</title>
<rect id="rect6" x="0" fill="#DE2910" width="143.25" height="71.281"/>
<path fill="#FFDE00" d="M11.536,26.47l6.285-19.342l6.283,19.342L7.652,14.517H27.99L11.536,26.47z M39.19,7.44l-6.606,1.521
	l4.451-5.113l-0.596,6.754l-3.487-5.813L39.19,7.44z M45.919,15.923l-6.679-1.162l6.085-2.986l-3.168,5.994l-0.959-6.711
	L45.919,15.923z M44.965,27.755l-5.624-3.785l6.775-0.244l-5.338,4.179l1.861-6.519L44.965,27.755z M36.584,35.515l-3.728-5.664
	l6.344,2.392l-6.537,1.793l4.233-5.293L36.584,35.515z"/>
</svg>
