<?xml version="1.0" encoding="utf-8"?>
<!-- Generator: Adobe Illustrator 16.0.0, SVG Export Plug-In . SVG Version: 6.00 Build 0)  -->
<!DOCTYPE svg PUBLIC "-//W3C//DTD SVG 1.1//EN" "http://www.w3.org/Graphics/SVG/1.1/DTD/svg11.dtd">
<svg version="1.1" id="Layer_1" xmlns="http://www.w3.org/2000/svg" xmlns:xlink="http://www.w3.org/1999/xlink" x="0px" y="0px"
	 width="100px" height="100px" viewBox="0 0 100 100" enable-background="new 0 0 100 100" xml:space="preserve">
<path fill="#010101" d="M62.956,71.559l-1.49-1.328l-1.437-1.223l-1.543-1.064l-1.49-0.957l-1.49-0.797l-1.543-0.584l-1.542-0.479
	l-1.491-0.212l-1.596-0.055l-1.543,0.16l-1.596,0.426l-1.544,0.638l-1.596,0.903l-1.596,1.224l-1.65,1.437l-1.596,1.752l0.266,0.427
	l0.266,0.426l0.318,0.478l0.321,0.426l0.478,0.371l0.586,0.268l0.744,0.159h0.905l-0.532-0.318l-0.373-0.319l-0.318-0.373
	l-0.267-0.373l-0.159-0.317l-0.107-0.267l-0.106-0.159v-0.054l0.053-0.052l0.16-0.106l0.266-0.215l0.372-0.264l0.479-0.32
	l0.532-0.373l0.586-0.371l0.691-0.424l0.745-0.373l0.799-0.373l0.851-0.319l0.851-0.317l0.904-0.267l0.958-0.212l0.958-0.105h0.958
	l0.586,0.051l0.638,0.107l0.69,0.105l0.694,0.214l0.798,0.212l0.745,0.212l0.744,0.319l0.745,0.267l0.745,0.267l0.692,0.318
	l0.637,0.318l0.64,0.267l0.532,0.319l0.425,0.266l0.374,0.266l0.266,0.211l-0.16,0.321l-0.16,0.265l-0.213,0.267l-0.213,0.212
	l-0.318,0.214l-0.32,0.159l-0.425,0.105l-0.427,0.107l0.906,0.212h0.744l0.639-0.054l0.586-0.212l0.531-0.318l0.479-0.321
	l0.48-0.371L62.956,71.559z M65.564,67.412l-1.383-1.169l-1.49-1.117l-1.649-1.063l-1.703-0.957l-1.862-0.797l-1.916-0.691
	l-1.97-0.532l-2.022-0.317l-2.074-0.16l-2.022,0.106l-2.076,0.371l-2.075,0.585L41.3,62.574l-1.97,1.223l-1.915,1.543l-1.862,1.913
	l0.265,0.478l0.213,0.479l0.213,0.426l0.266,0.372l0.373,0.266l0.585,0.211l0.799,0.108h1.063l-0.585-0.319L38.372,68.9
	l-0.266-0.319L38,68.314v-0.264v-0.213l0.053-0.107V67.68l0.053-0.054l0.161-0.161l0.265-0.266l0.372-0.318l0.48-0.318l0.585-0.427
	l0.691-0.424l0.745-0.479l0.852-0.424l0.958-0.426l1.011-0.373l1.17-0.318l1.171-0.266l1.277-0.16l1.384-0.106l1.436,0.053
	l1.331,0.106l1.223,0.16l1.118,0.16l1.064,0.213l0.904,0.265l0.85,0.267l0.746,0.266l0.693,0.318l0.637,0.318l0.533,0.32
	l0.479,0.318l0.425,0.319l0.374,0.267l0.317,0.318l0.32,0.266l0.266,0.266l0.106,0.479v0.477l-0.159,0.48l-0.533,0.531l1.224-0.106
	l0.903-0.159l0.641-0.16l0.426-0.211l0.319-0.266l0.213-0.267l0.212-0.372L65.564,67.412z M69.074,64.169l-0.797-0.743l-0.852-0.744
	l-0.904-0.692l-0.957-0.69l-0.959-0.691l-1.01-0.586l-1.063-0.584l-1.066-0.584l-1.116-0.479l-1.17-0.478l-1.172-0.426l-1.171-0.373
	l-1.171-0.371l-1.225-0.267l-1.224-0.212l-1.278-0.159l-1.222-0.161l-1.224-0.053l-1.277,0.053l-1.225,0.053l-1.276,0.162
	l-1.224,0.211l-1.224,0.267l-1.224,0.371l-1.17,0.426l-1.171,0.531l-1.171,0.586l-1.117,0.69l-1.118,0.744l-1.064,0.85l-1.011,0.957
	l-1.011,1.064l0.106,0.691l0.213,0.585l0.213,0.479l0.319,0.372l0.373,0.318l0.532,0.214l0.638,0.159l0.852,0.158l-0.692-1.115
	l-0.053-0.745l0.267-0.425l0.159-0.105l0.052-0.055l0.213-0.159l0.32-0.267l0.425-0.371l0.533-0.373l0.638-0.477l0.798-0.426
	l0.905-0.48l0.957-0.477l1.065-0.426l1.224-0.372l1.277-0.319l1.384-0.267l1.436-0.158h1.543l1.65,0.105l1.17,0.159l1.17,0.213
	l1.172,0.213l1.117,0.266l1.117,0.266l1.064,0.266l1.064,0.32l0.959,0.371l0.904,0.32l0.85,0.371l0.799,0.319l0.746,0.372
	l0.637,0.32l0.533,0.371l0.425,0.318l0.373,0.32l0.213,0.211l0.267,0.214l0.266,0.212l0.267,0.267l0.104,0.265v0.267l-0.211,0.373
	l-0.479,0.372l1.118-0.055l0.85-0.158l0.639-0.213l0.428-0.266l0.371-0.32l0.213-0.265l0.214-0.267L69.074,64.169z M50.664,5.102
	l-0.372-0.054l-0.319-0.107l-0.267-0.159L49.44,4.57l-0.212-0.265l-0.16-0.267l-0.053-0.319l-0.053-0.371l0.053-0.373l0.053-0.32
	l0.16-0.265l0.212-0.267l0.266-0.212l0.267-0.159l0.319-0.106l0.372-0.054l0.32,0.054l0.32,0.106l0.317,0.159l0.214,0.212
	l0.213,0.267l0.159,0.265l0.104,0.32l0.055,0.373l-0.055,0.371l-0.104,0.319l-0.159,0.267L51.836,4.57l-0.214,0.212l-0.317,0.159
	l-0.32,0.107L50.664,5.102z M44.013,97.559l-0.372-0.054l-0.32-0.106l-0.266-0.16l-0.266-0.213l-0.213-0.265l-0.159-0.266
	l-0.054-0.32l-0.052-0.37l0.052-0.373l0.054-0.32l0.159-0.264l0.213-0.267l0.266-0.213l0.266-0.16l0.32-0.106l0.372-0.053
	l0.372,0.053l0.319,0.106l0.319,0.16l0.267,0.213l0.213,0.267l0.159,0.264l0.054,0.32l0.053,0.373l-0.053,0.37l-0.054,0.32
	l-0.159,0.266l-0.213,0.265l-0.267,0.213l-0.319,0.16l-0.319,0.106L44.013,97.559z M55.294,97.932l-0.373-0.055l-0.317-0.105
	l-0.268-0.16l-0.266-0.213l-0.213-0.266l-0.159-0.266l-0.054-0.319l-0.054-0.373l0.054-0.37l0.054-0.32l0.159-0.266l0.213-0.266
	l0.266-0.213l0.268-0.159l0.317-0.106l0.373-0.053l0.372,0.053l0.32,0.106l0.318,0.159l0.266,0.213l0.214,0.266l0.159,0.266
	l0.053,0.32l0.054,0.37l-0.054,0.373l-0.053,0.319l-0.159,0.266l-0.214,0.266l-0.266,0.213l-0.318,0.16l-0.32,0.105L55.294,97.932z
	 M43.374,71.188v0.797l-0.159,2.074l-0.213,2.978l-0.48,3.401l-0.691,3.402l-1.011,2.979l-1.331,2.127l-1.808,0.904l-1.171-0.107
	l-0.852-0.477l-0.425-0.64l-0.16-0.744l0.16-0.743l0.425-0.64l0.639-0.426l0.798-0.106l0.479-0.691l-0.106-0.478l-0.532-0.372
	l-0.798-0.158l-1.011,0.051l-1.065,0.16l-1.01,0.373l-0.745,0.584l-0.586,0.746l-0.372,0.849l-0.161,0.905v0.902l0.161,0.904
	l0.319,0.852l0.478,0.85l0.585,0.799l0.693,0.691l0.798,0.53l0.851,0.478l0.958,0.267l0.958,0.106L38,94.208l1.012-0.317
	l1.063-0.533l1.863-1.86l1.383-2.712l1.011-3.189l0.586-3.455l0.159-3.457l-0.159-3.137l-0.586-2.605L43.374,71.188z M57.154,70.441
	v0.799l0.162,2.074l0.213,2.977l0.479,3.402l0.691,3.404l1.011,2.976l1.332,2.128l1.81,0.902l1.17-0.105l0.851-0.479l0.425-0.638
	l0.161-0.743l-0.161-0.693l-0.425-0.637l-0.64-0.479l-0.795-0.105l-0.481-0.692l0.106-0.479l0.533-0.371l0.797-0.16l1.012,0.054
	l1.064,0.159l1.01,0.371l0.746,0.586l0.586,0.744l0.373,0.852l0.158,0.902v0.904l-0.158,0.904l-0.32,0.852l-0.479,0.85l-0.586,0.798
	l-0.692,0.69l-0.795,0.532l-0.853,0.479L64.5,93.464l-0.959,0.106l-1.009-0.106l-1.013-0.319l-1.063-0.531l-1.862-1.86l-1.385-2.659
	l-1.011-3.242l-0.585-3.455l-0.158-3.457l0.158-3.137l0.585-2.605L57.154,70.441z M62.105,56.514l1.223-2.021l1.225-1.914
	l1.172-1.755l1.116-1.595l1.063-1.488l1.066-1.33l1.01-1.169l1.011-1.011l1.012-0.797l0.958-0.69l0.957-0.479l0.957-0.32
	l0.958-0.105l0.958,0.053l1.012,0.265l0.957,0.479l0.745,0.585l0.373,0.586l0.054,0.584l-0.16,0.585l-0.426,0.477l-0.533,0.48
	l-0.637,0.318l-0.744,0.159l0.85,0.214l0.852,0.106l0.852-0.106l0.799-0.214l0.798-0.318l0.744-0.425l0.639-0.585l0.586-0.586
	l0.531-0.689l0.373-0.745l0.319-0.798l0.106-0.852l0.056-0.85l-0.162-0.797l-0.319-0.851l-0.532-0.798l-1.275-1.382l-1.385-1.063
	l-1.437-0.744l-1.544-0.425l-1.543-0.054l-1.543,0.32L73.6,35.354l-1.543,0.957l-1.543,1.329l-1.49,1.647l-1.385,2.021l-1.328,2.339
	l-1.279,2.659l-1.117,3.083l-0.958,3.349L62.105,56.514z M38.639,55.77l-1.278-2.021l-1.276-1.859l-1.172-1.702l-1.17-1.596
	l-1.118-1.435l-1.117-1.275l-1.065-1.117l-1.01-1.01l-1.011-0.798l-1.011-0.639l-1.012-0.424l-0.958-0.266l-0.957-0.106
	l-0.958,0.106l-1.01,0.318l-0.958,0.479l-0.745,0.586l-0.32,0.585l-0.053,0.584l0.161,0.585l0.424,0.531l0.585,0.426l0.639,0.319
	l0.745,0.159l-0.851,0.266l-0.852,0.053l-0.851-0.053l-0.851-0.213l-0.799-0.318l-0.798-0.373l-0.745-0.532l-0.638-0.637
	l-0.533-0.638L15.65,43.01l-0.372-0.798l-0.159-0.799l-0.054-0.796l0.107-0.851l0.319-0.851l0.48-0.798l1.01-1.116l1.171-0.851
	l1.383-0.584l1.49-0.32l1.597-0.054l1.649,0.214l1.703,0.532l1.703,0.85l1.703,1.17l1.703,1.489l1.596,1.808l1.49,2.179l1.384,2.5
	l1.222,2.923l1.012,3.245L38.639,55.77z M44.013,54.6l-0.639-2.445l-0.744-2.445l-0.799-2.5l-0.957-2.498l-1.012-2.499l-1.117-2.394
	l-1.171-2.338l-1.171-2.179l-1.276-2.021l-1.225-1.861l-1.277-1.648l-1.276-1.436l-1.278-1.116l-1.223-0.851l-1.224-0.477
	l-1.171-0.162l-1.862,0.266l-1.065,0.532l-0.425,0.744l0.053,0.797l0.479,0.905l0.638,0.798l0.746,0.638l0.745,0.478h-0.906
	l-0.957-0.159l-0.958-0.213l-0.904-0.371l-0.905-0.426l-0.852-0.479l-0.745-0.585l-0.638-0.638l-0.533-0.745l-0.318-0.744
	l-0.16-0.798v-0.85l0.266-0.85l0.479-0.851l0.798-0.904l1.064-0.904l1.384-0.744l1.543-0.531l1.756-0.159l1.862,0.106l1.969,0.478
	l2.022,0.85l2.023,1.223l1.969,1.595l1.862,2.074l1.756,2.499l1.596,3.03l1.33,3.455l1.118,3.987l0.797,4.575l0.479,5.103
	L44.013,54.6z M57.582,55.45l0.586-2.446l0.689-2.499l0.8-2.498l0.851-2.553l0.958-2.498l1.066-2.393l1.116-2.339l1.117-2.234
	l1.223-2.073l1.226-1.913l1.224-1.649l1.224-1.435l1.276-1.17l1.225-0.851l1.17-0.531l1.172-0.159l1.861,0.212l1.066,0.531
	l0.477,0.745l-0.055,0.798l-0.422,0.903l-0.641,0.798l-0.745,0.691l-0.744,0.478l0.903-0.052l0.959-0.16l0.958-0.266l0.903-0.319
	l0.906-0.479l0.797-0.531l0.746-0.585l0.637-0.638l0.48-0.744l0.372-0.744l0.159-0.797l-0.053-0.852l-0.266-0.849l-0.533-0.906
	l-0.797-0.85l-1.119-0.904l-1.381-0.744l-1.598-0.532l-1.861-0.318L73.6,20.147l-2.078,0.32l-2.073,0.744l-2.022,1.116l-2.021,1.49
	l-1.918,2.019l-1.699,2.499l-1.544,2.978l-1.224,3.561l-0.959,4.2l-0.584,4.786l-0.16,5.423L57.582,55.45z M48.43,53.323
	l0.372-2.818l0.319-3.455l0.319-4.04l0.213-4.413l0.107-4.733l-0.107-4.837l-0.265-4.839l-0.533-4.732l-0.797-4.466l-1.119-3.987
	l-1.543-3.509L43.48,4.729l-2.34-1.966l-2.821-1.011l-3.352,0.053l-3.938,1.329l-1.756,1.011l-1.277,1.168l-0.904,1.331
	l-0.586,1.381l-0.213,1.437l0.054,1.434l0.319,1.436l0.532,1.328l0.745,1.277L28.848,16l1.01,0.852l1.065,0.69l1.171,0.373
	l1.171,0.053l1.117-0.267l1.117-0.69l-2.128,0.052l-1.491-0.478l-1.011-0.956l-0.478-1.171l0.052-1.275l0.534-1.277l1.01-1.063
	l1.437-0.691l0.851-0.16h0.905l0.905,0.266l0.957,0.479l1.011,0.851l0.959,1.17l1.01,1.541l1.011,2.02l1.011,2.499l1.011,2.977
	l0.958,3.563l0.958,4.2l0.904,4.891l0.905,5.53l0.852,6.273L48.43,53.323z M53.218,53.536l-0.424-2.765l-0.427-3.457l-0.428-4.04
	l-0.371-4.413l-0.213-4.679l-0.051-4.89l0.104-4.839l0.372-4.68l0.691-4.464l1.012-4.041l1.384-3.509l1.81-2.819l2.287-2.02
	l2.768-1.064l3.353,0.054l3.938,1.223l1.754,0.957l1.385,1.171l0.958,1.275l0.586,1.383l0.317,1.434v1.436l-0.266,1.382
	l-0.426,1.384l-0.689,1.222l-0.8,1.064l-0.956,0.903l-1.064,0.638l-1.066,0.426l-1.171,0.052l-1.116-0.266l-1.117-0.637h2.127
	l1.492-0.532l0.957-0.958l0.479-1.169L70.3,12.97l-0.586-1.222l-1.011-1.011l-1.436-0.691l-0.852-0.159h-0.958L64.5,10.046
	l-1.014,0.477l-1.008,0.693l-1.065,1.116l-1.011,1.489l-1.01,1.912l-1.012,2.448l-0.958,3.03l-0.903,3.561l-0.854,4.255
	l-0.745,4.944l-0.692,5.689l-0.53,6.539L53.218,53.536z M49.973,98.408l0.425-1.436l0.426-1.435l0.426-1.277l0.479-1.169
	l0.533-1.011l0.637-0.798l0.8-0.53l0.905-0.213l-1.013-1.224l-0.797-2.072l-0.586-2.712l-0.372-2.978l-0.268-3.084l-0.105-2.977
	l0.055-2.553l0.104-1.86l-0.054-0.054l-0.105-0.105l-0.213-0.16l-0.266-0.265l-0.267-0.32l-0.266-0.37l-0.265-0.428L49.973,68.9
	l-0.267,0.584l-0.266,0.48l-0.266,0.372l-0.319,0.267l-0.212,0.211l-0.213,0.16l-0.16,0.106h-0.053l0.106,1.86l0.053,2.553
	l-0.106,2.977l-0.212,3.084l-0.426,2.978l-0.586,2.712l-0.745,2.072L45.29,90.54l0.905,0.213l0.797,0.53l0.64,0.798l0.532,1.011
	l0.479,1.169l0.425,1.277l0.426,1.435L49.973,98.408z"/>
</svg>
