<?xml version="1.0" encoding="utf-8"?>
<!-- Generator: Adobe Illustrator 16.0.0, SVG Export Plug-In . SVG Version: 6.00 Build 0)  -->
<!DOCTYPE svg PUBLIC "-//W3C//DTD SVG 1.1//EN" "http://www.w3.org/Graphics/SVG/1.1/DTD/svg11.dtd">
<svg version="1.1" id="Layer_1" xmlns="http://www.w3.org/2000/svg" xmlns:xlink="http://www.w3.org/1999/xlink" x="0px" y="0px"
	 width="100px" height="100px" viewBox="0 0 100 100" enable-background="new 0 0 100 100" xml:space="preserve">
<path fill="#A85C26" d="M79.486,18.108c0.037,0.023,0.074,0.046,0.111,0.07c-1.086-1.329-1.871-2.639-1.824-4.207
	c0.025-0.806,0.295-1.582,0.58-2.403c0.479-1.377,0.973-2.801,0.244-4.378c-1.17-2.533-4.289-4.415-7.42-4.475
	c-2.396-0.045-4.324,1.023-5.297,2.933c-0.146,0.287-0.292,0.653-0.445,1.041c-0.363,0.916-0.815,2.055-1.404,2.417
	c-0.83,0.509-2.006,0.346-3.145,0.188c-0.541-0.075-1.053-0.146-1.531-0.148c-0.018,0-0.035,0-0.053,0
	c-2.135,0-5.164,0.375-6.76,1.437c-0.311,0.206-0.575,0.444-0.833,0.674c-0.295,0.265-0.575,0.515-0.907,0.709
	c-1.937,1.129-3.71-0.521-5.425-2.119c-0.661-0.615-1.285-1.197-1.905-1.601c-3.41-2.224-6.954-2.14-9.72,0.228
	c-2.011,1.722-3.415,5.062-3.492,8.309c-0.058,2.429,0.652,4.466,2,5.736c0.637,0.6,1.358,1.095,2.057,1.574
	c0.963,0.661,1.874,1.285,2.549,2.148c1.217,1.553,0.841,4.662,0.54,7.159c-0.065,0.543-0.128,1.06-0.172,1.54
	c0.697,0.019,1.396-0.022,2.084-0.093c0.575-0.063,1.144-0.159,1.701-0.287s1.104-0.278,1.626-0.475
	c0.521-0.195,1.018-0.432,1.45-0.72c0.215-0.144,0.414-0.3,0.585-0.468c0.042-0.042,0.083-0.085,0.123-0.127
	c0.04-0.043,0.072-0.081,0.126-0.142c0.051-0.057,0.093-0.107,0.138-0.159l0.134-0.161c0.357-0.434,0.692-0.889,1.009-1.361
	c0.319-0.47,0.623-0.954,0.916-1.45c0.583-0.994,1.136-2.024,1.699-3.071l0.427-0.788c0.146-0.263,0.293-0.525,0.444-0.789
	c0.15-0.263,0.304-0.526,0.461-0.789l0.24-0.394l0.125-0.202c0.041-0.063,0.076-0.122,0.127-0.196l0.068-0.106l0.069-0.101
	c0.045-0.067,0.092-0.133,0.14-0.2c0.092-0.132,0.188-0.264,0.287-0.393c0.198-0.258,0.404-0.51,0.619-0.753
	c0.43-0.488,0.893-0.946,1.378-1.372c0.483-0.427,0.994-0.821,1.521-1.183c0.526-0.362,1.067-0.695,1.617-1.004
	c0.549-0.308,1.104-0.595,1.664-0.858c0.562-0.263,1.127-0.508,1.691-0.741c0.279-0.115,0.568-0.232,0.873-0.344
	c0.297-0.111,0.6-0.215,0.9-0.312c0.605-0.197,1.223-0.356,1.842-0.493c1.238-0.271,2.492-0.438,3.736-0.514
	c0.623-0.036,1.241-0.051,1.856-0.052c0.616,0.006,1.229,0.029,1.837,0.062c0.305,0.015,0.602,0.039,0.914,0.064
	c0.311,0.027,0.625,0.059,0.945,0.1c0.16,0.021,0.322,0.043,0.484,0.071c0.162,0.029,0.326,0.061,0.49,0.097
	c0.328,0.072,0.66,0.159,0.984,0.266c0.326,0.104,0.646,0.232,0.951,0.374c0.306,0.141,0.6,0.294,0.881,0.455
	c0.281,0.16,0.55,0.335,0.812,0.508l0.185,0.125l0.067,0.047l0.075,0.049c0.102,0.064,0.211,0.126,0.324,0.189
	c0.229,0.128,0.486,0.252,0.766,0.389c0.139,0.068,0.282,0.139,0.428,0.218C79.204,17.937,79.355,18.025,79.486,18.108z
	 M73.488,11.924c-0.018,0.179-0.037,0.362-0.055,0.544c-0.195-0.093-0.396-0.238-0.592-0.379c-0.111-0.081-0.217-0.156-0.318-0.222
	c-1.338-0.854-3.196-1.531-5.014-1.831c0.071-0.153,0.119-0.312,0.166-0.466c0.059-0.191,0.112-0.372,0.206-0.533
	c0.272-0.467,0.603-0.885,0.956-1.208c0.531-0.485,1.201-0.752,1.887-0.752c0.73,0,1.43,0.3,1.969,0.845
	C73.802,9.042,73.65,10.442,73.488,11.924z M39.801,24.104c-2.089-2.205-4.728-5.158-4.473-8.766c0.162-2.306,1.658-3.683,4-3.683
	c0.81,0,1.68,0.173,2.516,0.5c1.536,0.603,2.826,1.598,3.99,2.616c-1.317,0.143-2.542,0.969-3.645,2.461
	c-1.236,1.671-1.91,3.648-2.142,4.421C39.82,22.41,39.741,23.197,39.801,24.104z"/>
<path fill="#A85C26" d="M13.959,43.906c0.024,0.416,0.074,0.832,0.154,1.244c0.08,0.412,0.191,0.819,0.331,1.217
	c0.279,0.794,0.681,1.561,1.201,2.242c0.26,0.34,0.545,0.66,0.855,0.949c0.31,0.29,0.639,0.553,0.98,0.79
	c0.685,0.472,1.417,0.837,2.159,1.125c0.744,0.284,1.499,0.487,2.251,0.643c0.753,0.154,1.505,0.26,2.252,0.326
	c0.747,0.068,1.49,0.105,2.227,0.125c0.73,0.015,1.455,0.021,2.18,0.024c0.725,0.007,1.449,0.002,2.171-0.002l1.084-0.006
	l1.083-0.011l2.163-0.016l1.08-0.005h1.081c1.265,0.003,2.53,0.022,3.798,0.058c-0.747,1.44-1.653,3.273-2.385,5.187
	c-0.236,0.615-0.449,1.229-0.635,1.826c-0.913,0.308-1.873,0.459-2.837,0.504c-0.253,0.013-0.506,0.019-0.761,0.017l-0.783-0.007
	c-0.527-0.005-1.062-0.006-1.603,0.019c-0.542,0.023-1.09,0.068-1.646,0.162c-0.554,0.098-1.118,0.238-1.674,0.476
	c-0.278,0.119-0.554,0.263-0.818,0.437c-0.265,0.174-0.519,0.381-0.746,0.619c-0.228,0.236-0.43,0.506-0.596,0.795
	c-0.083,0.144-0.158,0.291-0.223,0.442c-0.016,0.037-0.031,0.075-0.047,0.113l-0.045,0.118l-0.017,0.047l-0.022,0.063
	c-0.013,0.038-0.025,0.077-0.038,0.116c-0.097,0.311-0.163,0.645-0.185,0.988c-0.023,0.345,0.002,0.701,0.081,1.048
	c0.078,0.347,0.206,0.681,0.37,0.985c0.164,0.308,0.362,0.586,0.582,0.834c0.439,0.496,0.949,0.879,1.478,1.19
	c0.532,0.308,1.089,0.54,1.665,0.707c0.288,0.083,0.579,0.152,0.876,0.202c0.148,0.023,0.298,0.046,0.449,0.063
	c0.148,0.015,0.312,0.027,0.45,0.032c0.287,0.013,0.573,0.013,0.857,0.005c0.285-0.011,0.568-0.029,0.849-0.058
	c0.562-0.058,1.116-0.151,1.66-0.271c0.272-0.062,0.542-0.129,0.81-0.199c0.134-0.037,0.267-0.075,0.399-0.115l0.202-0.063
	l0.19-0.062l0.005-0.002c0.107-0.034,0.213-0.07,0.319-0.106c0.262,1.668,0.755,3.297,1.467,4.85l0.383-0.176l0,0l-0.382,0.176
	c0.591,1.287,1.329,2.51,2.193,3.631c0.942,1.225,2.03,2.326,3.234,3.273c1.061,0.834,2.216,1.549,3.44,2.129
	c-0.43,0.275-0.847,0.576-1.25,0.902c-0.139,0.113-0.276,0.229-0.412,0.35c-0.134,0.121-0.266,0.246-0.396,0.373
	c-0.261,0.254-0.507,0.525-0.741,0.813c-0.235,0.287-0.451,0.593-0.649,0.913c-0.1,0.16-0.194,0.324-0.284,0.491
	c-0.088,0.169-0.171,0.34-0.248,0.515c-0.153,0.352-0.289,0.71-0.393,1.081c-0.104,0.369-0.185,0.748-0.241,1.129
	c-0.214,1.526-0.061,3.12,0.573,4.608c0.319,0.74,0.766,1.458,1.386,2.07c0.31,0.306,0.665,0.582,1.059,0.809
	c0.394,0.226,0.828,0.396,1.278,0.504c0.45,0.104,0.914,0.139,1.363,0.115c0.45-0.025,0.884-0.111,1.294-0.235
	c0.818-0.251,1.539-0.655,2.166-1.106l0.119-0.086l0.115-0.086c0.076-0.06,0.151-0.117,0.228-0.178
	c0.149-0.12,0.297-0.244,0.44-0.373c0.287-0.257,0.563-0.533,0.819-0.826c0.517-0.587,0.96-1.248,1.296-1.961
	c0.167-0.354,0.309-0.723,0.42-1.098s0.194-0.755,0.252-1.135c0.055-0.383,0.081-0.764,0.086-1.143
	c0.006-0.378-0.021-0.754-0.061-1.123c-0.042-0.369-0.11-0.731-0.189-1.088c-0.084-0.355-0.185-0.706-0.301-1.047
	c-0.172-0.504-0.377-0.994-0.613-1.463c0.178,0.005,0.355,0.008,0.533,0.008c1.688,0,3.352-0.245,4.952-0.734
	c0.481-0.146,0.961-0.317,1.433-0.508c0,0.068,0,0.139,0.002,0.209c0.012,0.252,0.045,0.506,0.104,0.758
	c0.117,0.504,0.351,0.99,0.653,1.41c0.302,0.424,0.67,0.781,1.058,1.092c0.192,0.153,0.392,0.297,0.59,0.432
	c0.199,0.134,0.397,0.258,0.595,0.379c0.785,0.479,1.527,0.896,2.039,1.413c0.125,0.126,0.241,0.261,0.354,0.407
	c0.111,0.146,0.22,0.307,0.324,0.477c0.211,0.34,0.406,0.725,0.632,1.124c0.224,0.403,0.471,0.83,0.79,1.255
	c0.16,0.211,0.337,0.424,0.539,0.619c0.103,0.102,0.205,0.192,0.322,0.288c0.113,0.095,0.215,0.168,0.32,0.246
	c0.85,0.604,1.781,1.036,2.79,1.294c0.505,0.128,1.029,0.21,1.572,0.227c0.543,0.015,1.106-0.041,1.667-0.196
	c0.559-0.157,1.113-0.425,1.589-0.8c0.119-0.092,0.231-0.191,0.342-0.297c0.026-0.025,0.054-0.053,0.079-0.078
	s0.061-0.063,0.084-0.088l0.066-0.074l0.068-0.075c0.178-0.205,0.346-0.423,0.496-0.649c0.305-0.458,0.551-0.96,0.719-1.488
	s0.263-1.082,0.273-1.635c0.027-1.106-0.275-2.197-0.8-3.125c-0.134-0.232-0.276-0.453-0.437-0.67
	c-0.154-0.205-0.309-0.395-0.472-0.582c-0.162-0.187-0.33-0.367-0.503-0.541c-0.174-0.173-0.354-0.34-0.537-0.5
	c-0.367-0.32-0.753-0.621-1.158-0.89c-0.406-0.271-0.83-0.515-1.271-0.728c-0.111-0.054-0.224-0.104-0.337-0.151
	c-0.114-0.048-0.231-0.095-0.334-0.134l-0.627-0.241c-0.411-0.16-0.813-0.314-1.196-0.493c-0.097-0.044-0.192-0.09-0.288-0.136
	c-0.096-0.048-0.188-0.093-0.284-0.145c-0.194-0.102-0.388-0.206-0.577-0.313c-0.382-0.21-0.752-0.435-1.104-0.677
	c-0.178-0.121-0.348-0.248-0.514-0.383s-0.323-0.275-0.476-0.429c-0.221-0.214-0.422-0.448-0.612-0.698
	c0.998-1.089,1.873-2.297,2.604-3.593c0.384-0.681,0.73-1.394,1.029-2.114c0.273-0.662,0.518-1.354,0.722-2.058
	c0.463-1.588,0.767-3.335,0.899-5.19c0.051-0.713,0.078-1.459,0.082-2.219c0-0.292,0.006-0.594,0.014-0.906
	c0.162,0.086,0.32,0.182,0.474,0.281c0.607,0.395,1.148,0.88,1.63,1.413c0.237,0.269,0.463,0.548,0.668,0.839
	c0.202,0.292,0.391,0.592,0.555,0.9c0.084,0.154,0.16,0.311,0.229,0.468c0.036,0.078,0.07,0.157,0.103,0.235l0.043,0.113
	l0.027,0.066l0.02,0.059c0.113,0.316,0.208,0.674,0.316,1.043c0.217,0.736,0.435,1.545,0.953,2.348
	c0.133,0.199,0.283,0.396,0.465,0.58c0.182,0.183,0.389,0.352,0.619,0.49c0.229,0.142,0.479,0.25,0.731,0.326
	s0.51,0.123,0.772,0.139c0.527,0.031,1.055-0.07,1.517-0.258c0.464-0.185,0.868-0.445,1.223-0.742s0.66-0.629,0.931-0.981
	c0.268-0.354,0.502-0.729,0.691-1.132c0.098-0.2,0.184-0.407,0.259-0.622c0.038-0.106,0.074-0.22,0.104-0.324
	c0.029-0.104,0.058-0.209,0.082-0.313c0.102-0.424,0.171-0.861,0.187-1.309c0.017-0.445-0.017-0.9-0.104-1.345
	c-0.086-0.442-0.227-0.878-0.418-1.283c-0.188-0.405-0.424-0.782-0.688-1.129c-0.132-0.174-0.271-0.339-0.414-0.497
	c-0.146-0.156-0.297-0.307-0.451-0.449c-0.621-0.572-1.306-1.037-2.013-1.427c-1.417-0.78-2.92-1.289-4.437-1.661
	c-1.392-0.335-2.801-0.553-4.215-0.646c-0.139-0.915-0.363-1.69-0.684-2.356c1.198-0.688,2.115-1.338,2.938-2.08
	c1.687-1.521,3.107-3.193,4.224-4.968c1.3-2.066,2.344-4.409,3.103-6.962c0.815-2.747,1.68-5.991,1.906-9.228
	c0.248-3.523-0.281-6.555-1.623-9.266c-0.404-0.82-0.997-1.593-1.634-2.339c-0.313-0.188-0.632-0.371-0.951-0.55
	c-0.517-0.288-1.036-0.571-1.562-0.834c-0.519-0.265-1.078-0.444-1.633-0.682c-0.14-0.06-0.275-0.124-0.412-0.193
	c-0.066-0.034-0.135-0.071-0.201-0.109l-0.191-0.111c-0.256-0.146-0.514-0.286-0.775-0.416c-0.523-0.262-1.065-0.482-1.625-0.639
	c-1.123-0.316-2.309-0.367-3.487-0.408c-1.183-0.039-2.363-0.039-3.541,0.036c-1.177,0.074-2.349,0.223-3.498,0.473
	c-1.151,0.248-2.274,0.599-3.367,1.046c-1.097,0.439-2.176,0.919-3.211,1.481c-1.034,0.562-2.022,1.207-2.922,1.964
	c-0.896,0.754-1.7,1.623-2.367,2.585c-0.663,0.972-1.263,1.994-1.862,3.015c-0.598,1.023-1.193,2.052-1.84,3.05
	c-0.648,0.998-1.351,1.968-2.157,2.854c-0.101,0.11-0.204,0.221-0.307,0.327c-0.102,0.108-0.216,0.218-0.332,0.316
	c-0.234,0.199-0.487,0.372-0.75,0.524c-0.527,0.304-1.091,0.529-1.665,0.706c-0.575,0.177-1.162,0.305-1.753,0.399
	c-0.592,0.093-1.188,0.15-1.787,0.174c-0.598,0.023-1.197,0.016-1.794-0.032c-0.116-0.009-0.232-0.021-0.348-0.033
	c-0.012,0.164-0.02,0.319-0.025,0.462c-0.086,2.532-0.037,5.371,0.744,8.119c-0.111-0.146-0.223-0.29-0.335-0.434
	c-0.898-1.154-1.85-2.276-2.864-3.349c-0.51-0.535-1.032-1.062-1.577-1.57c-0.548-0.506-1.116-0.997-1.708-1.463
	c-0.591-0.47-1.214-0.907-1.863-1.316c-0.651-0.407-1.33-0.785-2.05-1.103c-0.718-0.321-1.475-0.586-2.268-0.77
	c-0.792-0.184-1.623-0.279-2.463-0.258c-0.84,0.023-1.688,0.165-2.493,0.432c-0.8,0.262-1.581,0.65-2.271,1.142
	c-0.694,0.49-1.308,1.077-1.832,1.726c-0.525,0.649-0.962,1.36-1.307,2.11C14.198,40.583,13.868,42.242,13.959,43.906z
	 M77.917,21.405c-0.253-0.153-0.524-0.278-0.808-0.366c-0.101-0.031-0.201-0.058-0.305-0.082l-0.076-0.016l-0.039-0.007
	l-0.039-0.007c-0.058-0.009-0.109-0.016-0.164-0.02c-0.219-0.017-0.437,0.003-0.646,0.052c-0.42,0.098-0.799,0.298-1.14,0.534
	c-0.171,0.119-0.333,0.248-0.488,0.384c-0.039,0.034-0.075,0.068-0.114,0.104s-0.078,0.076-0.115,0.115
	c-0.073,0.079-0.141,0.162-0.203,0.248c-0.248,0.345-0.42,0.729-0.561,1.114c-0.103,0.281-0.188,0.566-0.266,0.852
	c-0.547-0.558-0.857-1.311-0.857-2.103c0-1.65,1.329-2.992,2.965-2.992C76.396,19.214,77.566,20.134,77.917,21.405z M67.576,24.037
	c-0.172-0.099-0.348-0.187-0.526-0.267c-0.331-0.146-0.677-0.26-1.028-0.343c-0.353-0.083-0.713-0.134-1.078-0.144
	c-0.362-0.009-0.732,0.021-1.092,0.124c-0.09,0.026-0.18,0.056-0.267,0.092c-0.087,0.035-0.177,0.081-0.258,0.131
	c-0.165,0.102-0.31,0.232-0.433,0.375c-0.248,0.288-0.416,0.618-0.56,0.947c-0.033,0.076-0.063,0.152-0.095,0.229
	c-0.35-0.501-0.539-1.103-0.539-1.72c0-1.649,1.33-2.991,2.964-2.991c1.635,0,2.965,1.342,2.965,2.991
	C67.631,23.655,67.611,23.848,67.576,24.037z M62.594,25.599c0.102-0.14,0.195-0.278,0.291-0.409
	c0.195-0.274,0.387-0.522,0.578-0.692c0.049-0.042,0.096-0.08,0.143-0.112c0.047-0.034,0.095-0.058,0.141-0.083
	c0.021-0.012,0.046-0.021,0.068-0.032c0.016-0.006,0.047-0.019,0.076-0.028c0.059-0.021,0.118-0.042,0.184-0.058
	c0.128-0.032,0.264-0.062,0.406-0.078c0.071-0.008,0.145-0.014,0.219-0.018c0.072-0.005,0.148-0.008,0.225-0.008
	c0.604-0.001,1.247,0.105,1.863,0.292c0.211,0.063,0.419,0.139,0.623,0.227c-0.45,1.108-1.53,1.855-2.743,1.855
	C63.887,26.454,63.146,26.145,62.594,25.599z M68.305,30.657c-0.656-0.726-1.412-1.365-2.267-1.844
	c-0.108-0.06-0.218-0.117-0.327-0.171c0.051-0.012,0.102-0.025,0.15-0.037c1.787-0.416,3.604-0.711,5.43-0.868
	c0.253-0.022,0.505-0.041,0.758-0.057c-0.347,1.358-0.595,2.739-0.977,4.041c-0.213,0.725-0.467,1.423-0.789,2.072
	c-0.004,0.008-0.01,0.016-0.014,0.024c-0.093-0.241-0.193-0.477-0.306-0.706C69.525,32.205,68.962,31.385,68.305,30.657z
	 M72.43,27.657c0.859-0.047,1.721-0.064,2.582-0.049c0.569,0.654,1.04,1.393,1.446,2.165c0.415,0.793,0.761,1.623,1.033,2.473
	c0.135,0.424,0.251,0.854,0.34,1.285c0.088,0.431,0.149,0.866,0.159,1.285l0.02,0.963c-0.38-0.445-0.794-0.857-1.228-1.241
	l-1.876-1.655l1.066,2.279l0,0c0.112,0.209,0.192,0.453,0.248,0.713c0.055,0.26,0.084,0.536,0.098,0.816
	c0.025,0.563-0.012,1.145-0.069,1.73c-0.06,0.586-0.144,1.176-0.224,1.773c-0.039,0.299-0.078,0.6-0.108,0.906
	c-0.017,0.152-0.028,0.309-0.036,0.464l-0.023,0.453c-0.051,1.205-0.071,2.397-0.198,3.577c-0.013,0.118-0.027,0.235-0.042,0.354
	c-0.085,0.089-0.167,0.179-0.252,0.267c-0.35,0.365-0.707,0.724-1.071,1.072c-0.319,0.305-0.647,0.603-0.981,0.891
	c-0.011-0.109-0.021-0.218-0.033-0.327c-0.047-0.438-0.108-0.88-0.201-1.323c-0.092-0.441-0.217-0.885-0.376-1.315
	c-0.322-0.863-0.769-1.66-1.246-2.415c-0.478-0.756-0.987-1.472-1.458-2.183l-0.501-0.758l-0.7,0.702l0,0
	c-0.413,0.493-0.736,1.043-0.977,1.609c-0.243,0.567-0.407,1.15-0.522,1.73c-0.226,1.164-0.262,2.32-0.229,3.455
	c0.035,1.136,0.144,2.255,0.263,3.365c0.015,0.133,0.028,0.264,0.042,0.393c-0.307,0.062-0.611,0.117-0.919,0.168
	c-0.06,0.01-0.119,0.019-0.179,0.027c-0.025-0.529-0.104-1.06-0.223-1.578c-0.228-0.995-0.599-1.955-1.064-2.864
	c-0.467-0.91-1.028-1.772-1.672-2.577c-0.646-0.805-1.368-1.555-2.196-2.218l0,0l-1.722-1.1l0.442,1.899
	c0.199,0.853,0.313,1.749,0.359,2.646c0.042,0.898,0.013,1.804-0.114,2.694c-0.128,0.889-0.352,1.768-0.734,2.577
	c-0.113,0.241-0.242,0.473-0.388,0.696c-1.528-0.186-3.041-0.517-4.508-0.995c-1.927-0.626-3.772-1.503-5.5-2.572
	c-1.697-1.049-3.281-2.281-4.754-3.634c0.843-1.593,1.866-3.091,3.029-4.469c0.369-0.438,0.754-0.862,1.149-1.277
	c0.331,0.076,0.634,0.248,0.925,0.445c0.309,0.212,0.603,0.457,0.898,0.707c0.295,0.251,0.59,0.51,0.908,0.76
	c0.318,0.249,0.654,0.495,1.059,0.691c0.051,0.024,0.104,0.047,0.156,0.07l0.135,0.058l0.262,0.115l0.527,0.241
	c0.354,0.163,0.716,0.329,1.091,0.484s0.765,0.301,1.183,0.417c0.416,0.114,0.86,0.201,1.349,0.206l0,0l1.06-0.138l-0.313-0.856
	c-0.16-0.439-0.292-0.908-0.411-1.391c-0.119-0.482-0.227-0.979-0.339-1.479c-0.114-0.5-0.234-1.004-0.382-1.504
	c-0.075-0.256-0.158-0.511-0.252-0.762c0.25,0.169,0.498,0.337,0.748,0.504l0.666,0.448c0.229,0.155,0.463,0.302,0.703,0.441
	c0.479,0.278,0.974,0.523,1.476,0.745c1.003,0.445,2.026,0.799,3.019,1.182l0.945,0.366l-0.289-1.004l0,0
	c-0.287-0.796-0.518-1.629-0.75-2.469c-0.234-0.841-0.47-1.691-0.764-2.528c-0.295-0.836-0.646-1.663-1.113-2.428
	c-0.286-0.472-0.619-0.917-0.993-1.321c0.239-0.116,0.479-0.23,0.724-0.342c1.391-0.513,2.807-0.961,4.24-1.334
	c0.291,0.15,0.567,0.328,0.828,0.524c0.709,0.534,1.311,1.202,1.811,1.93c0.496,0.729,0.895,1.523,1.16,2.339
	c0.133,0.407,0.231,0.821,0.289,1.229c0.057,0.408,0.068,0.812,0.025,1.188h0.001l0.229,2.912l1.412-2.368
	c0.437-0.729,0.774-1.508,1.018-2.298c0.242-0.792,0.393-1.593,0.488-2.383c0.099-0.792,0.146-1.573,0.191-2.348
	C72.334,28.937,72.371,28.296,72.43,27.657z M56.255,28.197c0,1.649-1.33,2.992-2.965,2.992c-0.517,0-1.015-0.133-1.458-0.387
	c0.02-0.112,0.039-0.223,0.059-0.333c0.059-0.343,0.113-0.673,0.193-0.979c0.02-0.076,0.043-0.15,0.063-0.223
	c0.013-0.036,0.022-0.072,0.035-0.107c0.014-0.036,0.025-0.071,0.037-0.101c0.057-0.148,0.116-0.285,0.186-0.419
	c0.133-0.269,0.294-0.513,0.48-0.731c0.096-0.11,0.197-0.211,0.305-0.309c0.109-0.096,0.228-0.184,0.35-0.268
	c0.13-0.085,0.236-0.152,0.365-0.21c0.128-0.057,0.263-0.108,0.408-0.146c0.291-0.082,0.621-0.125,0.972-0.172
	c0.174-0.025,0.353-0.049,0.534-0.085c0.015-0.003,0.029-0.006,0.045-0.009C56.121,27.161,56.255,27.671,56.255,28.197z
	 M55.58,26.298c-0.096-0.001-0.191-0.003-0.288-0.005c-0.353-0.005-0.715-0.007-1.078,0.05c-0.182,0.028-0.362,0.072-0.539,0.135
	c-0.176,0.062-0.345,0.147-0.501,0.24c-0.314,0.188-0.604,0.424-0.845,0.701c-0.244,0.276-0.44,0.592-0.589,0.925
	c-0.074,0.167-0.137,0.339-0.189,0.512c-0.052,0.179-0.089,0.356-0.115,0.537c-0.055,0.361-0.068,0.72-0.069,1.077
	c-0.655-0.564-1.04-1.394-1.04-2.272c0-1.649,1.331-2.991,2.964-2.991C54.184,25.206,55.02,25.61,55.58,26.298z M55.928,40.512
	c0.006,0.201,0.014,0.402,0.024,0.606c-0.045-0.005-0.091-0.01-0.136-0.016c-0.346-0.045-0.705-0.123-1.066-0.216
	c-0.363-0.093-0.73-0.203-1.105-0.315l-0.566-0.167l-0.29-0.082l-0.14-0.037c-0.039-0.01-0.078-0.021-0.119-0.034
	c-0.316-0.1-0.646-0.27-0.971-0.458c-0.326-0.19-0.65-0.402-0.983-0.613c-0.333-0.21-0.673-0.421-1.037-0.602
	c-0.183-0.09-0.372-0.172-0.569-0.236c-0.104-0.034-0.213-0.063-0.323-0.084c0.8-0.815,1.647-1.584,2.532-2.309
	c0.697-0.571,1.418-1.113,2.155-1.63c0.321,0.315,0.66,0.613,1.009,0.895c0.442,0.358,0.899,0.694,1.363,1.019
	c0.082,0.41,0.131,0.824,0.16,1.241c0.035,0.496,0.045,0.996,0.049,1.501C55.916,39.48,55.914,39.991,55.928,40.512z M59.535,30.7
	c0.355,0.429,0.662,0.897,0.917,1.391c0.392,0.755,0.673,1.563,0.901,2.389c0.227,0.827,0.399,1.673,0.574,2.528
	c0.112,0.551,0.227,1.106,0.357,1.663c-0.727-0.227-1.445-0.451-2.143-0.714c-0.492-0.186-0.973-0.391-1.437-0.626
	c-0.231-0.118-0.459-0.243-0.685-0.377l-0.692-0.412c-0.923-0.546-1.838-1.09-2.697-1.71c-0.327-0.237-0.649-0.486-0.956-0.75
	c0.664-0.455,1.342-0.89,2.03-1.306C56.95,32.026,58.23,31.338,59.535,30.7z M77.268,36.672c0-0.066,0-0.133-0.002-0.2
	c0.282,0.324,0.541,0.665,0.771,1.023c0.518,0.807,0.873,1.711,0.932,2.636c0.03,0.462-0.012,0.921-0.132,1.375
	c-0.114,0.442-0.306,0.878-0.55,1.281c-0.123,0.203-0.26,0.399-0.406,0.588c-0.037,0.047-0.074,0.094-0.113,0.141l-0.119,0.142
	L77.4,43.95c-0.332,0.387-0.664,0.77-1.004,1.148c-0.067,0.077-0.139,0.152-0.207,0.229c0.156-1.09,0.235-2.185,0.338-3.263
	l0.045-0.444c0.015-0.144,0.033-0.286,0.057-0.431c0.043-0.289,0.098-0.581,0.15-0.874c0.109-0.587,0.227-1.181,0.318-1.785
	C77.189,37.926,77.264,37.31,77.268,36.672z M76.943,29.503c-0.389-0.661-0.827-1.299-1.336-1.88
	c0.394,0.014,0.787,0.032,1.18,0.058c1.124,0.075,2.242,0.205,3.355,0.387c-0.006,0.074-0.014,0.148-0.021,0.223
	c-0.04,0.306-0.116,0.612-0.205,0.917c-0.088,0.305-0.189,0.608-0.295,0.915c-0.104,0.307-0.211,0.613-0.298,0.944
	c-0.159,0.63-0.316,1.249-0.515,1.849c-0.066,0.2-0.14,0.397-0.217,0.592c-0.011-0.048-0.023-0.096-0.035-0.144
	c-0.115-0.458-0.26-0.903-0.422-1.341C77.811,31.148,77.412,30.306,76.943,29.503z M80.49,28.127c0.544,0.094,1.084,0.2,1.623,0.319
	c0.094,2.236-0.028,4.485-0.465,6.679c-0.221,1.115-0.521,2.214-0.91,3.282c-0.238,0.659-0.512,1.306-0.816,1.937
	c0-0.089-0.001-0.178-0.006-0.267c-0.027-0.561-0.145-1.113-0.326-1.634c-0.181-0.522-0.426-1.015-0.711-1.477
	c-0.22-0.355-0.463-0.692-0.725-1.013l0.586-0.946l0,0c0.344-0.613,0.554-1.259,0.723-1.9c0.167-0.641,0.286-1.287,0.402-1.92
	c0.058-0.299,0.144-0.611,0.227-0.923c0.084-0.313,0.168-0.629,0.239-0.951c0.069-0.322,0.131-0.65,0.151-0.988
	C80.488,28.26,80.488,28.193,80.49,28.127z M70.441,43.524c0.535,0.655,1.026,1.333,1.404,2.062
	c0.383,0.729,0.631,1.532,0.824,2.368c0.051,0.212,0.098,0.425,0.143,0.64c-0.271,0.218-0.545,0.43-0.826,0.631
	c-0.812,0.58-1.676,1.088-2.596,1.404c-0.115,0.038-0.229,0.074-0.347,0.105c-0.06,0.017-0.116,0.031-0.176,0.047l-0.187,0.044
	c-0.244,0.059-0.49,0.114-0.736,0.168c-0.002-0.104-0.004-0.207-0.004-0.312c-0.015-1.113-0.017-2.222,0.056-3.313
	c0.069-1.09,0.213-2.17,0.509-3.175c0.148-0.5,0.338-0.98,0.577-1.419c0.093-0.169,0.192-0.332,0.3-0.487
	C69.746,42.702,70.104,43.109,70.441,43.524z M61.538,44.407c0.276,0.236,0.547,0.485,0.808,0.743
	c0.67,0.668,1.279,1.406,1.807,2.201c0.527,0.794,0.975,1.648,1.291,2.551c0.166,0.478,0.295,0.97,0.375,1.472
	c-1.791,0.258-3.606,0.349-5.414,0.239c-0.271-0.018-0.543-0.038-0.814-0.063c0.111-0.147,0.217-0.301,0.314-0.458
	c0.521-0.83,0.875-1.75,1.127-2.688c0.248-0.94,0.396-1.902,0.466-2.872C61.521,45.158,61.536,44.783,61.538,44.407z M78.023,22.112
	c0,0.032,0.002,0.063,0.002,0.095c0,1.649-1.33,2.991-2.965,2.991c-0.601,0-1.185-0.184-1.674-0.523
	c0.064-0.159,0.125-0.317,0.189-0.472c0.037-0.091,0.076-0.18,0.115-0.268c0.041-0.088,0.076-0.176,0.117-0.262
	c0.078-0.172,0.164-0.337,0.256-0.491c0.09-0.154,0.186-0.298,0.287-0.423c0.051-0.063,0.104-0.121,0.156-0.173
	c0.014-0.013,0.027-0.026,0.041-0.038c0.008-0.007,0.014-0.012,0.02-0.017l0.021-0.018l0.104-0.087
	c0.141-0.117,0.285-0.224,0.432-0.322c0.146-0.1,0.293-0.186,0.441-0.257c0.146-0.075,0.295-0.127,0.438-0.168
	c0.072-0.02,0.144-0.034,0.216-0.043c0.069-0.01,0.139-0.016,0.209-0.015l0.051,0.001l0.049,0.002c0.004,0,0.021,0.002,0.031,0.004
	l0.01,0.001h0.006c-0.004,0,0.009,0.002-0.006-0.001h0.002l0.017,0.002l0.063,0.008c0.086,0.012,0.17,0.027,0.255,0.046
	c0.169,0.035,0.335,0.084,0.501,0.144c0.166,0.062,0.33,0.127,0.494,0.218C77.941,22.067,77.982,22.089,78.023,22.112z
	 M72.639,61.195c0,0.014,0,0.027,0,0.041c-0.25,0.115-0.502,0.228-0.75,0.332l-0.113,0.009v0.038
	c-3.459,1.438-7.351,2.035-11.566,1.775c-3.979-0.246-8.585-0.615-12.893-1.888c-0.641-0.188-1.295-0.41-1.947-0.655
	c0.119-0.297,0.235-0.594,0.352-0.89c0.095-0.245,0.193-0.485,0.288-0.735c0.046-0.123,0.092-0.25,0.132-0.381
	c0.042-0.129,0.079-0.261,0.107-0.396c0.057-0.271,0.076-0.562,0.024-0.844c-0.047-0.285-0.167-0.552-0.326-0.783
	c-0.08-0.113-0.162-0.217-0.249-0.322c-0.087-0.104-0.18-0.204-0.279-0.301c-0.199-0.188-0.429-0.357-0.695-0.467
	c-0.264-0.109-0.566-0.147-0.851-0.103c-0.286,0.044-0.549,0.156-0.787,0.294c-0.476,0.279-0.874,0.645-1.25,1.016
	c-0.375,0.373-0.735,0.756-1.108,1.104c-0.094,0.088-0.188,0.17-0.286,0.248c-0.049,0.04-0.099,0.081-0.149,0.116l-0.057,0.044
	c-0.262-0.142-0.526-0.287-0.792-0.438c0.769-1.989,1.729-3.897,2.484-5.343c0.137-0.264,0.275-0.525,0.413-0.786
	c0.102-0.19,0.204-0.382,0.306-0.573c1.166,1.116,2.48,1.832,3.865,2.582c0.286,0.155,0.581,0.315,0.875,0.479
	c3.412,1.901,7.605,3,11.289,3c0.519,0,1.025-0.022,1.521-0.065c0.771-0.07,1.605-0.113,2.492-0.158
	c3.11-0.158,6.617-0.34,9.076-1.737c0.35,0.646,0.586,1.43,0.727,2.392C72.652,58.93,72.657,60.148,72.639,61.195z M39.963,58.645
	c-0.15,0.104-0.305,0.201-0.461,0.293c-0.16,0.096-0.324,0.184-0.49,0.266c0.102-0.299,0.21-0.602,0.324-0.905
	C39.545,58.415,39.755,58.531,39.963,58.645z M71.869,61.577l0.059,0.139h-0.001L71.869,61.577
	C71.868,61.578,71.869,61.578,71.869,61.577z M73.471,61.725c0.004-0.17,0.008-0.343,0.01-0.516
	c0.019-0.979,0.016-2.109-0.114-3.199c1.319,0.338,2.616,0.725,3.877,1.191c0.704,0.264,1.397,0.548,2.065,0.869
	c0.67,0.318,1.315,0.675,1.922,1.07c0.304,0.197,0.593,0.41,0.869,0.633c0.275,0.222,0.535,0.455,0.772,0.705
	c0.119,0.123,0.231,0.25,0.339,0.381s0.208,0.264,0.303,0.399c0.187,0.272,0.342,0.56,0.463,0.853
	c0.119,0.295,0.207,0.597,0.256,0.906c0.049,0.309,0.062,0.623,0.037,0.941c-0.022,0.316-0.076,0.639-0.16,0.957
	c-0.021,0.08-0.045,0.161-0.068,0.24c-0.023,0.078-0.048,0.148-0.075,0.221c-0.055,0.145-0.118,0.29-0.19,0.434
	c-0.289,0.57-0.693,1.109-1.162,1.496c-0.234,0.191-0.481,0.348-0.729,0.449c-0.248,0.102-0.49,0.146-0.729,0.137
	c-0.118-0.004-0.241-0.021-0.356-0.053c-0.114-0.029-0.218-0.072-0.317-0.129s-0.193-0.126-0.284-0.211
	c-0.091-0.086-0.183-0.188-0.267-0.305c-0.17-0.231-0.322-0.521-0.459-0.836c-0.142-0.316-0.268-0.658-0.396-1.019
	c-0.129-0.358-0.266-0.731-0.442-1.123L78.6,66.143l-0.031-0.064c-0.024-0.051-0.049-0.104-0.073-0.146
	c-0.048-0.096-0.099-0.188-0.149-0.281c-0.104-0.184-0.216-0.359-0.332-0.533c-0.232-0.346-0.486-0.672-0.765-0.977
	c-0.274-0.305-0.567-0.591-0.881-0.854c-0.312-0.264-0.64-0.507-0.984-0.723c-0.345-0.217-0.708-0.404-1.081-0.563
	C74.029,61.893,73.752,61.797,73.471,61.725z M71.65,70.512c-0.006,0.022-0.012,0.045-0.02,0.067
	c-4.13,0.971-8.421,0.7-11.322,0.405c-4.766-0.483-9.899-1.209-15.167-3.219c-1.006-0.386-2.274-0.875-3.568-1.408
	c0.112-0.088,0.224-0.176,0.335-0.268l0.158-0.133c0.053-0.045,0.106-0.091,0.158-0.139c0.104-0.092,0.206-0.188,0.306-0.285
	c0.199-0.194,0.39-0.397,0.569-0.608c0.045-0.054,0.089-0.104,0.134-0.159l0.066-0.084l0.059-0.074
	c1.347,0.604,2.617,1.078,3.871,1.449c4.337,1.28,8.964,1.65,12.96,1.897c0.648,0.04,1.291,0.062,1.926,0.062
	c3.767,0,7.244-0.711,10.371-2.115C72.346,67.547,72.064,69.098,71.65,70.512z M62.498,83.2c-0.032-0.156-0.055-0.317-0.066-0.481
	c1.354-0.638,2.639-1.455,3.816-2.435l-0.169-0.202h0.001l0.168,0.202c0.543-0.451,1.066-0.94,1.563-1.456
	c0.121,0.266,0.263,0.523,0.424,0.773c0.129,0.197,0.271,0.389,0.42,0.572c0.15,0.184,0.311,0.358,0.477,0.526
	c0.332,0.337,0.688,0.643,1.051,0.933c0.182,0.145,0.364,0.283,0.549,0.42c0.092,0.068,0.191,0.141,0.289,0.208
	s0.196,0.134,0.295,0.196c0.399,0.256,0.81,0.488,1.211,0.703l0.596,0.316c0.102,0.055,0.189,0.101,0.275,0.15
	c0.088,0.051,0.174,0.104,0.261,0.157c0.346,0.213,0.679,0.454,0.995,0.715s0.621,0.536,0.906,0.831
	c0.141,0.146,0.277,0.299,0.409,0.453c0.134,0.152,0.261,0.31,0.382,0.471c0.121,0.159,0.238,0.326,0.344,0.487
	c0.097,0.151,0.188,0.313,0.267,0.477c0.322,0.649,0.472,1.359,0.433,2.046c-0.037,0.687-0.267,1.348-0.66,1.922
	c-0.096,0.144-0.203,0.281-0.32,0.414l-0.044,0.049L76.322,91.7l-0.033,0.032l-0.04,0.039c-0.054,0.052-0.108,0.1-0.166,0.145
	c-0.229,0.182-0.495,0.314-0.798,0.402c-0.303,0.089-0.639,0.13-0.992,0.127c-0.354-0.002-0.721-0.049-1.087-0.131
	s-0.729-0.205-1.086-0.353c-0.353-0.147-0.695-0.327-1.009-0.53c-0.077-0.052-0.158-0.107-0.221-0.152
	c-0.059-0.045-0.125-0.1-0.186-0.152c-0.123-0.111-0.245-0.234-0.363-0.375c-0.238-0.279-0.465-0.615-0.697-0.982
	c-0.232-0.369-0.479-0.767-0.771-1.17c-0.146-0.201-0.304-0.404-0.479-0.601c-0.174-0.197-0.367-0.39-0.576-0.562
	c-0.411-0.344-0.848-0.606-1.271-0.832c-0.425-0.228-0.842-0.412-1.236-0.601c-0.197-0.094-0.39-0.188-0.574-0.284
	c-0.187-0.096-0.365-0.195-0.536-0.301c-0.343-0.21-0.653-0.449-0.916-0.723c-0.263-0.275-0.47-0.59-0.615-0.941
	C62.593,83.581,62.537,83.395,62.498,83.2z M46.881,84.104c0.34-0.438,0.709-0.867,1.086-1.295c1.978,0.873,4.059,1.379,6.188,1.504
	c0.088,0.563,0.16,1.119,0.203,1.672c0.022,0.338,0.041,0.67,0.041,1.002c0.004,0.33-0.01,0.656-0.035,0.979
	c-0.1,1.293-0.455,2.5-1.09,3.518c-0.315,0.51-0.693,0.977-1.127,1.396c-0.215,0.212-0.445,0.411-0.686,0.602
	c-0.12,0.097-0.243,0.188-0.368,0.276c-0.062,0.046-0.126,0.091-0.188,0.134l-0.096,0.065l-0.094,0.063l-0.099,0.063l-0.095,0.059
	c-0.063,0.039-0.126,0.077-0.19,0.114c-0.127,0.073-0.255,0.142-0.383,0.203c-0.256,0.125-0.513,0.228-0.767,0.3
	c-0.508,0.148-0.996,0.18-1.443,0.079c-0.225-0.047-0.441-0.13-0.651-0.241s-0.411-0.258-0.601-0.432
	c-0.38-0.346-0.708-0.805-0.968-1.318c-0.259-0.516-0.451-1.086-0.574-1.678c-0.06-0.296-0.108-0.598-0.134-0.9
	c-0.028-0.307-0.032-0.611-0.025-0.92c0.007-0.308,0.035-0.615,0.081-0.921c0.047-0.304,0.108-0.608,0.193-0.909
	c0.042-0.149,0.089-0.299,0.141-0.447c0.05-0.147,0.105-0.297,0.166-0.443c0.121-0.293,0.261-0.582,0.415-0.868
	c0.155-0.284,0.328-0.563,0.511-0.841c0.092-0.138,0.188-0.273,0.287-0.409C46.677,84.372,46.777,84.236,46.881,84.104z
	 M42.324,77.663c0.167,0.077,0.33,0.149,0.491,0.222c2.908,1.28,5.783,1.986,8.826,2.733c1.1,0.271,2.233,0.55,3.364,0.856
	c1.354,0.366,3.368,0.818,5.712,1.045c-0.275,0.103-0.555,0.195-0.834,0.281c-1.81,0.553-3.701,0.778-5.621,0.674
	c-2.056-0.113-4.065-0.6-5.974-1.443c-1.317-0.586-2.556-1.33-3.683-2.219C43.786,79.168,43.021,78.448,42.324,77.663z
	 M38.066,68.857c2.329,1.103,4.719,2.045,6.968,2.903c5.302,2.023,10.46,2.753,15.243,3.237c1.808,0.186,3.449,0.275,4.971,0.275
	c1.604,0,3.072-0.104,4.459-0.31c-0.652,1.086-1.412,2.103-2.264,3.025c-0.543,0.587-1.127,1.141-1.733,1.646l0.153,0.184
	c-0.002,0-0.002,0-0.002,0l-0.152-0.184c-0.09,0.075-0.182,0.149-0.273,0.223c-0.906,0.074-1.869,0.094-2.867,0.057
	c-2.393-0.087-5.049-0.5-7.482-1.161c-1.134-0.308-2.271-0.587-3.371-0.856c-3.031-0.744-5.893-1.447-8.777-2.719
	c-1.162-0.51-2.288-1.099-3.38-1.679c-0.045-0.093-0.09-0.187-0.133-0.279l-0.211,0.097l0,0l0.21-0.097
	C38.78,71.822,38.326,70.357,38.066,68.857z M35.245,61.052c1.069-0.159,2.13-0.436,3.122-0.877
	c0.991-0.442,1.904-1.049,2.667-1.815c0.376-0.385,0.708-0.787,1.067-1.161c0.178-0.188,0.359-0.37,0.549-0.54
	s0.388-0.328,0.601-0.455c0.212-0.128,0.438-0.227,0.671-0.266c0.232-0.041,0.469-0.017,0.689,0.071
	c0.22,0.089,0.42,0.234,0.6,0.405s0.342,0.371,0.48,0.578c0.133,0.201,0.228,0.427,0.262,0.66c0.035,0.234,0.01,0.477-0.05,0.715
	c-0.059,0.238-0.152,0.475-0.257,0.709s-0.217,0.474-0.328,0.71c-0.446,0.942-0.917,1.875-1.487,2.722
	c-0.567,0.848-1.245,1.598-2.027,2.191c-0.098,0.074-0.197,0.146-0.297,0.216c-0.05,0.035-0.101,0.067-0.152,0.103l-0.157,0.103
	c-0.21,0.133-0.426,0.264-0.645,0.385l-0.164,0.091l-0.167,0.09c-0.109,0.06-0.221,0.116-0.333,0.172
	c-0.224,0.112-0.45,0.22-0.679,0.32c-0.457,0.202-0.922,0.385-1.393,0.545c-0.237,0.08-0.47,0.154-0.714,0.228
	c-0.232,0.067-0.476,0.133-0.716,0.19l0.005-0.002l-0.188,0.045l-0.178,0.039c-0.121,0.025-0.242,0.049-0.363,0.072
	c-0.242,0.046-0.485,0.084-0.728,0.115c-0.486,0.063-0.973,0.099-1.456,0.105c-0.242,0.004-0.482,0-0.721-0.01
	c-0.239-0.009-0.477-0.023-0.712-0.048c-0.123-0.013-0.221-0.022-0.332-0.041c-0.109-0.017-0.218-0.033-0.327-0.056
	c-0.219-0.043-0.437-0.096-0.652-0.159c-0.43-0.126-0.849-0.287-1.232-0.488c-0.384-0.198-0.731-0.438-1.001-0.715
	c-0.548-0.552-0.754-1.183-0.582-1.963c0.089-0.392,0.243-0.74,0.486-1.045c0.241-0.304,0.567-0.569,0.958-0.783
	c0.39-0.214,0.834-0.38,1.301-0.509c0.468-0.129,0.958-0.225,1.459-0.301c0.501-0.073,1.013-0.129,1.532-0.178l0.786-0.072
	C34.708,61.124,34.978,61.091,35.245,61.052z M17.268,40.191c0.264-0.558,0.591-1.085,0.975-1.558
	c0.385-0.472,0.824-0.892,1.309-1.237c0.486-0.346,1.007-0.616,1.577-0.81c0.563-0.194,1.151-0.307,1.754-0.334
	c1.206-0.062,2.465,0.218,3.685,0.704c0.609,0.245,1.213,0.535,1.803,0.866c0.591,0.331,1.166,0.702,1.734,1.093
	c0.567,0.392,1.122,0.813,1.664,1.253c0.544,0.437,1.078,0.896,1.603,1.37c1.052,0.944,2.066,1.94,3.058,2.968
	c0.991,1.028,1.961,2.087,2.922,3.161l1.152,1.293c0.025,0.033,0.05,0.065,0.075,0.098c0.384,0.504,0.781,1.025,1.115,1.557
	c0.069,0.109,0.135,0.219,0.196,0.326c-0.035,0.064-0.07,0.132-0.105,0.197c-0.305-0.152-0.606-0.326-0.905-0.509
	c-0.416-0.253-0.827-0.526-1.24-0.801c-0.416-0.274-0.827-0.555-1.281-0.814l-1.313-0.711c-0.87-0.475-1.732-0.959-2.572-1.478
	c-0.238-0.149-0.483-0.3-0.729-0.449c-0.573-0.719-1.106-1.472-1.616-2.241c-0.639-0.966-1.242-1.958-1.836-2.955
	c0.551,1.021,1.11,2.039,1.709,3.035c0.373,0.619,0.761,1.231,1.173,1.827c-0.43-0.245-0.865-0.48-1.302-0.707
	c-1.312-0.679-2.651-1.287-3.98-1.912l0.001-0.001c-0.273-0.342-0.516-0.716-0.748-1.097c-0.231-0.381-0.451-0.771-0.673-1.161
	c-0.222-0.39-0.446-0.78-0.685-1.162c-0.24-0.38-0.495-0.752-0.789-1.091c0.275,0.355,0.507,0.739,0.724,1.13
	c0.217,0.392,0.417,0.792,0.617,1.193c0.2,0.401,0.398,0.805,0.61,1.203c0.133,0.25,0.271,0.498,0.422,0.74
	c-0.294-0.14-0.588-0.28-0.881-0.424c-0.891-0.437-1.771-0.895-2.626-1.398c-0.428-0.251-0.854-0.51-1.291-0.748
	c-0.437-0.237-0.886-0.458-1.357-0.616c0.465,0.175,0.904,0.41,1.332,0.662c0.428,0.252,0.842,0.524,1.262,0.791
	c0.84,0.535,1.707,1.026,2.585,1.496c0.416,0.223,0.834,0.44,1.253,0.656c0.002,0.002,0.003,0.005,0.005,0.008l0.003-0.003
	c0.252,0.13,0.505,0.259,0.757,0.388c-0.134,0.015-0.268,0.033-0.401,0.052c-0.313,0.045-0.624,0.101-0.933,0.16
	c-0.618,0.119-1.231,0.253-1.845,0.388c-0.613,0.135-1.225,0.272-1.839,0.398c-0.308,0.063-0.615,0.123-0.924,0.176
	c-0.309,0.052-0.619,0.099-0.932,0.123c0.314-0.012,0.626-0.046,0.938-0.086c0.312-0.041,0.622-0.088,0.932-0.139
	c0.62-0.101,1.237-0.214,1.855-0.325c0.618-0.11,1.235-0.219,1.854-0.313c0.309-0.046,0.618-0.089,0.928-0.122
	c0.293-0.031,0.586-0.054,0.875-0.054c0.926,0.473,1.848,0.95,2.75,1.458c0.431,0.243,0.857,0.492,1.276,0.752
	c0.421,0.26,0.825,0.528,1.241,0.811c0.021,0.013,0.041,0.026,0.061,0.04c-0.562-0.014-1.125-0.03-1.688-0.04
	c-0.821-0.016-1.643-0.023-2.464-0.014c-0.821,0.009-1.643,0.034-2.462,0.095c-0.41,0.031-0.819,0.072-1.226,0.133
	c-0.203,0.031-0.406,0.067-0.606,0.112c-0.2,0.046-0.399,0.1-0.59,0.175c0.193-0.069,0.393-0.117,0.594-0.157
	c0.201-0.039,0.404-0.068,0.607-0.093c0.407-0.049,0.816-0.077,1.225-0.095c0.818-0.037,1.638-0.036,2.458-0.021
	c0.819,0.016,1.639,0.049,2.457,0.089c0.72,0.035,1.439,0.078,2.161,0.118c0.666,0.429,1.34,0.838,2.019,1.24l1.282,0.754
	c0.402,0.247,0.803,0.541,1.207,0.829c0.404,0.291,0.812,0.583,1.235,0.861c0.303,0.199,0.615,0.395,0.942,0.572
	c-0.068,0.129-0.136,0.256-0.203,0.385c-1.301-0.248-2.612-0.439-3.926-0.604l-1.081-0.129l-1.082-0.115
	c-0.722-0.074-1.443-0.141-2.164-0.203l-1.081-0.094l-1.08-0.088l-2.156-0.176c-0.717-0.058-1.436-0.119-2.146-0.185
	c-0.704-0.063-1.401-0.144-2.086-0.25c-0.685-0.109-1.36-0.238-2.014-0.409c-0.654-0.17-1.287-0.381-1.88-0.641
	c-0.594-0.258-1.149-0.568-1.637-0.937c-0.489-0.369-0.91-0.796-1.252-1.274c-0.343-0.478-0.604-1.013-0.787-1.586
	c-0.18-0.571-0.283-1.172-0.307-1.783C16.467,42.56,16.743,41.31,17.268,40.191z"/>
</svg>
