<?xml version="1.0" encoding="utf-8"?>
<!-- Generator: Adobe Illustrator 16.0.0, SVG Export Plug-In . SVG Version: 6.00 Build 0)  -->
<!DOCTYPE svg PUBLIC "-//W3C//DTD SVG 1.1//EN" "http://www.w3.org/Graphics/SVG/1.1/DTD/svg11.dtd">
<svg version="1.1" id="Layer_1" xmlns="http://www.w3.org/2000/svg" xmlns:xlink="http://www.w3.org/1999/xlink" x="0px" y="0px"
	 width="301.324px" height="306.995px" viewBox="-2.153 -3.168 301.324 306.995"
	 enable-background="new -2.153 -3.168 301.324 306.995" xml:space="preserve">
<path fill="none" stroke="#000000" stroke-width="10" d="M5.829,197.434c40.713-0.02,134.414-0.358,180.096-0.394
	c0,16.34,0,32.68,0,49.02c32.583-32.504,65.167-65.009,97.75-97.515c-31.929-31.663-63.856-63.327-95.784-94.99
	c-0.786,15.069-1.572,30.138-2.358,45.208c-59.53-0.365-119.115,1.077-178.596-1.675c0.615-72.07,150.251-122.405,212.678-79.347
	c34.442,24.585,61.9,56.789,72.41,96.543c3.077,22.146,2.452,44.789,0.587,67.024c-6.635,36.331-31.2,67.076-59.568,89.586
	c-20.386,15.812-45.185,26.985-71.369,26.7C86.41,306.879,37.514,262.733,5.829,197.434L5.829,197.434z"/>
</svg>
