<svg xmlns="http://www.w3.org/2000/svg" xmlns:se="http://svg-edit.googlecode.com" xmlns:xlink="http://www.w3.org/1999/xlink" id="svgcontent" width="205.65" height="395.85" x="0" y="0" viewBox="0 0 205.65 395.85" overflow="hidden"><g mask="" style="pointer-events:all"><title style="pointer-events:inherit">Layer 1</title><g id="svg_1" type="text" text="BASEBALL" font-size="22.190008587399063" font-family="Interceptor" fill="ffffff" text-anchor="start" font-weight="normal" font-style="normal" lineHeight="1" shapeId="9" shapeVal="-150" fill-opacity="1" display="null" elemBBoxWidth="129.7351531982422" stroke="null" stroke-dasharray="none" style="pointer-events:inherit"><path id="svg_29" fill="#ffffff" stroke-width="0" d="M46.084908944091794,217.284685859375 C44.856378944091794,217.551595859375 43.7245689440918,216.498595859375 43.207028944091796,215.312155859375 C43.207028944091796,215.312155859375 37.9576489440918,203.278155859375 37.9576489440918,203.278155859375 C37.9576489440918,203.278155859375 39.991568944091796,202.390935859375 39.991568944091796,202.390935859375 C39.991568944091796,202.390935859375 40.6076889440918,203.803375859375 40.6076889440918,203.803375859375 C40.6076889440918,203.803375859375 44.901508944091795,201.930365859375 44.901508944091795,201.930365859375 C44.901508944091795,201.930365859375 44.063578944091795,200.009445859375 44.063578944091795,200.009445859375 C44.063578944091795,200.009445859375 46.8319689440918,198.801845859375 46.8319689440918,198.801845859375 C46.8319689440918,198.801845859375 47.6698989440918,200.722755859375 47.6698989440918,200.722755859375 C47.6698989440918,200.722755859375 51.7377289440918,198.948325859375 51.7377289440918,198.948325859375 C51.7377289440918,198.948325859375 51.121598944091794,197.535885859375 51.121598944091794,197.535885859375 C51.121598944091794,197.535885859375 53.155518944091796,196.648665859375 53.155518944091796,196.648665859375 C53.155518944091796,196.648665859375 58.404888944091795,208.682655859375 58.404888944091795,208.682655859375 C58.809438944091795,209.918395859375 59.0228689440918,211.640995859375 57.8929189440918,212.133895859375 C57.8929189440918,212.133895859375 53.4296089440918,214.080845859375 53.4296089440918,214.080845859375 C52.9283389440918,214.16500585937501 51.7502589440918,213.468435859375 51.3661689440918,212.896255859375 C51.3866289440918,213.559805859375 51.1913189440918,214.65372585937502 50.8307189440918,215.214515859375 C50.8307189440918,215.214515859375 46.084908944091794,217.284685859375 46.084908944091794,217.284685859375 C46.084908944091794,217.284685859375 46.084908944091794,217.284685859375 46.084908944091794,217.284685859375 M51.669578944091796,209.737735859375 C51.669578944091796,209.737735859375 55.2854289440918,208.160465859375 55.2854289440918,208.160465859375 C55.2854289440918,208.160465859375 53.2398989440918,203.471155859375 53.2398989440918,203.471155859375 C53.2398989440918,203.471155859375 49.6240489440918,205.048435859375 49.6240489440918,205.048435859375 C49.6240489440918,205.048435859375 51.669578944091796,209.737735859375 51.669578944091796,209.737735859375 C51.669578944091796,209.737735859375 51.669578944091796,209.737735859375 51.669578944091796,209.737735859375 M48.7882089440918,210.994625859375 C48.7882089440918,210.994625859375 46.644098944091795,206.079335859375 46.644098944091795,206.079335859375 C46.644098944091795,206.079335859375 42.7457589440918,207.779835859375 42.7457589440918,207.779835859375 C42.7457589440918,207.779835859375 44.889868944091795,212.695125859375 44.889868944091795,212.695125859375 C44.889868944091795,212.695125859375 48.7882089440918,210.994625859375 48.7882089440918,210.994625859375 C48.7882089440918,210.994625859375 48.7882089440918,210.994625859375 48.7882089440918,210.994625859375 M62.5392389440918,215.100385859375 C61.7633889440918,214.564565859375 60.5474589440918,214.283065859375 59.8387489440918,214.968895859375 C59.8387489440918,214.968895859375 56.649538944091795,218.055115859375 56.649538944091795,218.055115859375 C56.649538944091795,218.055115859375 55.1064189440918,216.460515859375 55.1064189440918,216.460515859375 C55.1064189440918,216.460515859375 52.84739894409179,218.646595859375 52.84739894409179,218.646595859375 C52.84739894409179,218.646595859375 54.304778944091794,220.152605859375 54.304778944091794,220.152605859375 C54.304778944091794,220.152605859375 50.9826889440918,223.367425859375 50.9826889440918,223.367425859375 C50.9826889440918,223.367425859375 49.911088944091794,222.260065859375 49.911088944091794,222.260065859375 C49.911088944091794,222.260065859375 48.095008944091795,224.017505859375 48.095008944091795,224.017505859375 C48.095008944091795,224.017505859375 53.5816389440918,229.687205859375 53.5816389440918,229.687205859375 C53.5816389440918,229.687205859375 55.3977089440918,227.929775859375 55.3977089440918,227.929775859375 C55.3977089440918,227.929775859375 54.2832389440918,226.778115859375 54.2832389440918,226.778115859375 C54.2832389440918,226.778115859375 57.6053389440918,223.563295859375 57.6053389440918,223.563295859375 C57.6053389440918,223.563295859375 61.463118944091796,227.549805859375 61.463118944091796,227.549805859375 C61.463118944091796,227.549805859375 58.1410289440918,230.764625859375 58.1410289440918,230.764625859375 C58.1410289440918,230.764625859375 57.026558944091796,229.612965859375 57.026558944091796,229.612965859375 C57.026558944091796,229.612965859375 55.2104789440918,231.370395859375 55.2104789440918,231.370395859375 C55.2104789440918,231.370395859375 60.697108944091795,237.040105859375 60.697108944091795,237.040105859375 C60.697108944091795,237.040105859375 62.5131789440918,235.28266585937502 62.5131789440918,235.28266585937502 C62.5131789440918,235.28266585937502 61.3558489440918,234.086715859375 61.3558489440918,234.086715859375 C61.3558489440918,234.086715859375 70.1261789440918,225.599585859375 70.1261789440918,225.599585859375 C70.6634289440918,224.736575859375 70.6834489440918,223.516355859375 69.9118989440918,222.719055859375 C69.9118989440918,222.719055859375 62.5392389440918,215.100385859375 62.5392389440918,215.100385859375 C62.5392389440918,215.100385859375 62.5392389440918,215.100385859375 62.5392389440918,215.100385859375 M59.8643589440918,221.37721585937499 C60.880268944091796,220.565655859375 61.8676289440918,218.838205859375 62.863518944091794,219.246875859375 C62.863518944091794,219.246875859375 65.9497489440918,222.436075859375 65.9497489440918,222.436075859375 C66.3255089440918,223.444845859375 64.5665989440918,224.374985859375 63.7221489440918,225.363725859375 C63.7221489440918,225.363725859375 59.8643589440918,221.37721585937499 59.8643589440918,221.37721585937499 C59.8643589440918,221.37721585937499 59.8643589440918,221.37721585937499 59.8643589440918,221.37721585937499 M66.9173389440918,238.808025859375 C66.37961894409179,242.531395859375 73.27553894409179,243.746685859375 76.86761894409179,246.076675859375 C78.2474089440918,246.485125859375 79.4306089440918,245.901925859375 80.3366589440918,244.906245859375 C80.3366589440918,244.906245859375 82.63525894409179,240.266775859375 82.63525894409179,240.266775859375 C83.5874689440918,236.817555859375 77.4911489440918,235.654475859375 74.17573894409179,233.599125859375 C74.17573894409179,233.599125859375 75.9270589440918,230.064295859375 75.9270589440918,230.064295859375 C75.9270589440918,230.064295859375 81.5054589440918,232.828095859375 81.5054589440918,232.828095859375 C81.5054589440918,232.828095859375 80.4656189440918,234.92690585937498 80.4656189440918,234.92690585937498 C80.4656189440918,234.92690585937498 84.3318489440918,236.842405859375 84.3318489440918,236.842405859375 C84.3318489440918,236.842405859375 85.7547889440918,233.970355859375 85.7547889440918,233.970355859375 C85.9159589440918,232.811995859375 85.2780189440918,231.739245859375 83.8419989440918,231.027775859375 C83.8419989440918,231.027775859375 75.2810689440918,226.786305859375 75.2810689440918,226.786305859375 C74.3699989440918,226.403715859375 73.2405089440918,226.600795859375 72.6638489440918,227.209355859375 C72.6638489440918,227.209355859375 69.9547889440918,232.677295859375 69.9547889440918,232.677295859375 C68.9473389440918,236.099155859375 75.1257489440918,237.096535859375 78.2481089440918,239.125015859375 C78.2481089440918,239.125015859375 76.38732894409179,242.880785859375 76.38732894409179,242.880785859375 C76.38732894409179,242.880785859375 70.8089189440918,240.116985859375 70.8089189440918,240.116985859375 C70.8089189440918,240.116985859375 71.9855889440918,237.742015859375 71.9855889440918,237.742015859375 C71.9855889440918,237.742015859375 68.3402889440918,235.935975859375 68.3402889440918,235.935975859375 C68.3402889440918,235.935975859375 66.9173389440918,238.808025859375 66.9173389440918,238.808025859375 C66.9173389440918,238.808025859375 66.9173389440918,238.808025859375 66.9173389440918,238.808025859375 M86.08673894409179,247.192095859375 C86.08673894409179,247.192095859375 85.7720289440918,249.388665859375 85.7720289440918,249.388665859375 C85.7720289440918,249.388665859375 100.5988689440918,251.513005859375 100.5988689440918,251.513005859375 C100.5988689440918,251.513005859375 101.3506889440918,246.265645859375 101.3506889440918,246.265645859375 C101.3506889440918,246.265645859375 97.32365894409179,245.688665859375 97.32365894409179,245.688665859375 C97.32365894409179,245.688665859375 96.9477389440918,248.312345859375 96.9477389440918,248.312345859375 C96.9477389440918,248.312345859375 92.1274889440918,247.621715859375 92.1274889440918,247.621715859375 C92.1274889440918,247.621715859375 92.7394389440918,243.350605859375 92.7394389440918,243.350605859375 C92.7394389440918,243.350605859375 96.9495289440918,243.953815859375 96.9495289440918,243.953815859375 C96.9495289440918,243.953815859375 97.3691589440918,241.02505585937502 97.3691589440918,241.02505585937502 C97.3691589440918,241.02505585937502 93.1590689440918,240.421845859375 93.1590689440918,240.421845859375 C93.1590689440918,240.421845859375 93.7272989440918,236.455815859375 93.7272989440918,236.455815859375 C93.7272989440918,236.455815859375 98.5475589440918,237.146445859375 98.5475589440918,237.146445859375 C98.5475589440918,237.146445859375 98.2590589440918,239.159975859375 98.2590589440918,239.159975859375 C98.2590589440918,239.159975859375 102.2860989440918,239.736955859375 102.2860989440918,239.736955859375 C102.2860989440918,239.736955859375 102.9505089440918,235.099755859375 102.9505089440918,235.099755859375 C102.9505089440918,235.099755859375 88.1236689440918,232.975405859375 88.1236689440918,232.975405859375 C88.1236689440918,232.975405859375 87.8089489440918,235.171975859375 87.8089489440918,235.171975859375 C87.8089489440918,235.171975859375 89.0902789440918,235.355565859375 89.0902789440918,235.355565859375 C89.0902789440918,235.355565859375 88.4608489440918,239.748705859375 88.4608489440918,239.748705859375 C88.4608489440918,239.748705859375 86.3863089440918,239.451465859375 86.3863089440918,239.451465859375 C86.3863089440918,239.451465859375 85.9666789440918,242.380225859375 85.9666789440918,242.380225859375 C85.9666789440918,242.380225859375 88.0412189440918,242.677465859375 88.0412189440918,242.677465859375 C88.0412189440918,242.677465859375 87.36807894409179,247.375675859375 87.36807894409179,247.375675859375 C87.36807894409179,247.375675859375 86.08673894409179,247.192095859375 86.08673894409179,247.192095859375 C86.08673894409179,247.192095859375 86.08673894409179,247.192095859375 86.08673894409179,247.192095859375 M122.9154389440918,246.610685859375 C122.9081189440918,247.867855859375 121.6337189440918,248.74289585937498 120.36296894409179,248.989345859375 C120.36296894409179,248.989345859375 107.4740589440918,251.489105859375 107.4740589440918,251.489105859375 C107.4740589440918,251.489105859375 107.0515689440918,249.31069585937502 107.0515689440918,249.31069585937502 C107.0515689440918,249.31069585937502 108.56434894409179,249.017295859375 108.56434894409179,249.017295859375 C108.56434894409179,249.017295859375 107.67242894409179,244.418435859375 107.67242894409179,244.418435859375 C107.67242894409179,244.418435859375 105.6150389440918,244.817455859375 105.6150389440918,244.817455859375 C105.6150389440918,244.817455859375 105.0399789440918,241.852395859375 105.0399789440918,241.852395859375 C105.0399789440918,241.852395859375 107.0973589440918,241.453375859375 107.0973589440918,241.453375859375 C107.0973589440918,241.453375859375 106.2523689440918,237.096565859375 106.2523689440918,237.096565859375 C106.2523689440918,237.096565859375 104.73958894409179,237.389955859375 104.73958894409179,237.389955859375 C104.73958894409179,237.389955859375 104.3170989440918,235.211545859375 104.3170989440918,235.211545859375 C104.3170989440918,235.211545859375 117.20600894409179,232.711795859375 117.20600894409179,232.711795859375 C118.5002289440918,232.586365859375 120.2279189440918,232.753585859375 120.4626389440918,233.96381585937502 C120.4626389440918,233.96381585937502 121.3897789440918,238.744205859375 121.3897789440918,238.744205859375 C121.3626389440918,239.25177585937502 120.4259989440918,240.249665859375 119.7838489440918,240.499785859375 C120.4358989440918,240.624465859375 121.46092894409179,241.053545859375 121.9296189440918,241.527735859375 C121.9296189440918,241.527735859375 122.9154389440918,246.610685859375 122.9154389440918,246.610685859375 C122.9154389440918,246.610685859375 122.9154389440918,246.610685859375 122.9154389440918,246.610685859375 M116.7674389440918,239.515115859375 C116.7674389440918,239.515115859375 116.0163389440918,235.642395859375 116.0163389440918,235.642395859375 C116.0163389440918,235.642395859375 110.9938989440918,236.616475859375 110.9938989440918,236.616475859375 C110.9938989440918,236.616475859375 111.7449989440918,240.489195859375 111.7449989440918,240.489195859375 C111.7449989440918,240.489195859375 116.7674389440918,239.515115859375 116.7674389440918,239.515115859375 C116.7674389440918,239.515115859375 116.7674389440918,239.515115859375 116.7674389440918,239.515115859375 M117.36596894409179,242.601195859375 C117.36596894409179,242.601195859375 112.1014889440918,243.622225859375 112.1014889440918,243.622225859375 C112.1014889440918,243.622225859375 112.9112589440918,247.797505859375 112.9112589440918,247.797505859375 C112.9112589440918,247.797505859375 118.1757489440918,246.776485859375 118.1757489440918,246.776485859375 C118.1757489440918,246.776485859375 117.36596894409179,242.601195859375 117.36596894409179,242.601195859375 C117.36596894409179,242.601195859375 117.36596894409179,242.601195859375 117.36596894409179,242.601195859375 M124.3664589440918,230.086165859375 C123.6742489440918,230.726395859375 123.1342089440918,231.851605859375 123.6488589440918,232.692895859375 C123.6488589440918,232.692895859375 125.9648089440918,236.478685859375 125.9648089440918,236.478685859375 C125.9648089440918,236.478685859375 124.0719089440918,237.636665859375 124.0719089440918,237.636665859375 C124.0719089440918,237.636665859375 125.7123789440918,240.318265859375 125.7123789440918,240.318265859375 C125.7123789440918,240.318265859375 127.50010894409179,239.224625859375 127.50010894409179,239.224625859375 C127.50010894409179,239.224625859375 129.9125589440918,243.168165859375 129.9125589440918,243.168165859375 C129.9125589440918,243.168165859375 128.5980389440918,243.972315859375 128.5980389440918,243.972315859375 C128.5980389440918,243.972315859375 129.9168389440918,246.128115859375 129.9168389440918,246.128115859375 C129.9168389440918,246.128115859375 136.64714894409178,242.010875859375 136.64714894409178,242.010875859375 C136.64714894409178,242.010875859375 135.3283389440918,239.855075859375 135.3283389440918,239.855075859375 C135.3283389440918,239.855075859375 133.9612589440918,240.691395859375 133.9612589440918,240.691395859375 C133.9612589440918,240.691395859375 131.5488089440918,236.747855859375 131.5488089440918,236.747855859375 C131.5488089440918,236.747855859375 136.2810589440918,233.852915859375 136.2810589440918,233.852915859375 C136.2810589440918,233.852915859375 138.6934989440918,237.796455859375 138.6934989440918,237.796455859375 C138.6934989440918,237.796455859375 137.32640894409178,238.632765859375 137.32640894409178,238.632765859375 C137.32640894409178,238.632765859375 138.6452089440918,240.788575859375 138.6452089440918,240.788575859375 C138.6452089440918,240.788575859375 145.3755189440918,236.671335859375 145.3755189440918,236.671335859375 C145.3755189440918,236.671335859375 144.05670894409178,234.515535859375 144.05670894409178,234.515535859375 C144.05670894409178,234.515535859375 142.63703894409178,235.38401585937498 142.63703894409178,235.38401585937498 C142.63703894409178,235.38401585937498 136.26818894409178,224.973075859375 136.26818894409178,224.973075859375 C135.54320894409182,224.260445859375 134.35675894409178,223.974645859375 133.4103089440918,224.553625859375 C133.4103089440918,224.553625859375 124.3664589440918,230.086165859375 124.3664589440918,230.086165859375 C124.3664589440918,230.086165859375 124.3664589440918,230.086165859375 124.3664589440918,230.086165859375 M129.9083489440918,234.066245859375 C129.3380289440918,232.897715859375 127.8676589440918,231.557215859375 128.4837789440918,230.67449585937499 C128.4837789440918,230.67449585937499 132.2695789440918,228.358555859375 132.2695789440918,228.358555859375 C133.3360289440918,228.211965859375 133.8599489440918,230.131455859375 134.6405889440918,231.171315859375 C134.6405889440918,231.171315859375 129.9083489440918,234.066245859375 129.9083489440918,234.066245859375 C129.9083489440918,234.066245859375 129.9083489440918,234.066245859375 129.9083489440918,234.066245859375 M148.1031689440918,230.727555859375 C148.1031689440918,230.727555859375 150.06549894409181,232.320025859375 150.06549894409181,232.320025859375 C150.06549894409181,232.320025859375 159.1930489440918,221.072485859375 159.1930489440918,221.072485859375 C159.1930489440918,221.072485859375 154.8854989440918,217.576825859375 154.8854989440918,217.576825859375 C154.8854989440918,217.576825859375 152.3219989440918,220.735705859375 152.3219989440918,220.735705859375 C152.3219989440918,220.735705859375 154.5715189440918,222.561215859375 154.5715189440918,222.561215859375 C154.5715189440918,222.561215859375 151.85266894409182,225.911545859375 151.85266894409182,225.911545859375 C151.85266894409182,225.911545859375 142.7589089440918,218.531825859375 142.7589089440918,218.531825859375 C142.7589089440918,218.531825859375 143.8852889440918,217.143835859375 143.8852889440918,217.143835859375 C143.8852889440918,217.143835859375 142.1622589440918,215.745575859375 142.1622589440918,215.745575859375 C142.1622589440918,215.745575859375 137.1906589440918,221.871895859375 137.1906589440918,221.871895859375 C137.1906589440918,221.871895859375 138.9136889440918,223.270155859375 138.9136889440918,223.270155859375 C138.9136889440918,223.270155859375 139.9235389440918,222.025745859375 139.9235389440918,222.025745859375 C139.9235389440918,222.025745859375 149.1130289440918,229.48314585937499 149.1130289440918,229.48314585937499 C149.1130289440918,229.48314585937499 148.1031689440918,230.727555859375 148.1031689440918,230.727555859375 C148.1031689440918,230.727555859375 148.1031689440918,230.727555859375 148.1031689440918,230.727555859375 M159.99242894409178,215.070585859375 C159.99242894409178,215.070585859375 162.3408889440918,216.004085859375 162.3408889440918,216.004085859375 C162.3408889440918,216.004085859375 167.6914289440918,202.543365859375 167.6914289440918,202.543365859375 C167.6914289440918,202.543365859375 162.5362689440918,200.494215859375 162.5362689440918,200.494215859375 C162.5362689440918,200.494215859375 161.0335689440918,204.274675859375 161.0335689440918,204.274675859375 C161.0335689440918,204.274675859375 163.7257089440918,205.344785859375 163.7257089440918,205.344785859375 C163.7257089440918,205.344785859375 162.1319189440918,209.354355859375 162.1319189440918,209.354355859375 C162.1319189440918,209.354355859375 151.24877894409178,205.028385859375 151.24877894409178,205.028385859375 C151.24877894409178,205.028385859375 151.9090689440918,203.367275859375 151.9090689440918,203.367275859375 C151.9090689440918,203.367275859375 149.8469989440918,202.54761585937501 149.8469989440918,202.54761585937501 C149.8469989440918,202.54761585937501 146.9326589440918,209.879415859375 146.9326589440918,209.879415859375 C146.9326589440918,209.879415859375 148.99472894409178,210.699075859375 148.99472894409178,210.699075859375 C148.99472894409178,210.699075859375 149.5867089440918,209.209795859375 149.5867089440918,209.209795859375 C149.5867089440918,209.209795859375 160.5843889440918,213.581315859375 160.5843889440918,213.581315859375 C160.5843889440918,213.581315859375 159.99242894409178,215.070585859375 159.99242894409178,215.070585859375 C159.99242894409178,215.070585859375 159.99242894409178,215.070585859375 159.99242894409178,215.070585859375 " style="pointer-events:inherit"/><rect id="svg_30" x="37.95707988739014" y="196.6484375" width="129.734375" height="54.86328125" fill="#000000" opacity="0" style="pointer-events:inherit"/></g><g type="text" text="YORKTOWN" font-size="22.190008587399063" font-family="Interceptor" fill="ffffff" text-anchor="start" font-weight="normal" font-style="normal" lineHeight="1" shapeId="9" shapeVal="130" fill-opacity="1" display="null" elemBBoxWidth="145.546875" stroke="null" stroke-dasharray="none" id="svg_20" style="pointer-events:inherit"><path fill="#ffffff" stroke-width="0" d="M37.2956705279541,134.4756734057617 C40.5858305279541,134.8177134057617 41.4158105279541,129.49970340576172 37.9177105279541,129.0251934057617 C37.9177105279541,129.0251934057617 37.1559805279541,130.22086340576172 37.1559805279541,130.22086340576172 C37.1559805279541,130.22086340576172 35.284490527954105,129.02860340576171 35.284490527954105,129.02860340576171 C35.284490527954105,129.02860340576171 39.55679052795411,122.32244340576172 39.55679052795411,122.32244340576172 C39.55679052795411,122.32244340576172 41.4282805279541,123.51471340576171 41.4282805279541,123.51471340576171 C41.4282805279541,123.51471340576171 40.5671905279541,124.86633340576172 40.5671905279541,124.86633340576172 C43.8234305279541,126.86770340576172 42.9615405279541,129.8266834057617 42.9175705279541,132.64896340576172 C42.9175705279541,132.64896340576172 47.9601905279541,135.86147340576173 47.9601905279541,135.86147340576173 C47.9601905279541,135.86147340576173 48.7881505279541,134.56182340576171 48.7881505279541,134.56182340576171 C48.7881505279541,134.56182340576171 50.6596405279541,135.75409340576172 50.6596405279541,135.75409340576172 C50.6596405279541,135.75409340576172 46.420460527954106,142.40826340576172 46.420460527954106,142.40826340576172 C46.420460527954106,142.40826340576172 44.5489705279541,141.2160034057617 44.5489705279541,141.2160034057617 C44.5489705279541,141.2160034057617 45.376940527954105,139.91635340576173 45.376940527954105,139.91635340576173 C45.376940527954105,139.91635340576173 40.334320527954105,136.70385340576172 40.334320527954105,136.70385340576172 C38.0457405279541,137.65765340576172 35.785250527954105,139.1409534057617 32.784330527954104,137.08298340576172 C32.784330527954104,137.08298340576172 31.923250527954103,138.43461340576172 31.923250527954103,138.43461340576172 C31.923250527954103,138.43461340576172 30.0517605279541,137.24234340576172 30.0517605279541,137.24234340576172 C30.0517605279541,137.24234340576172 34.158460527954105,130.79611340576173 34.158460527954105,130.79611340576173 C34.158460527954105,130.79611340576173 36.0299505279541,131.9883834057617 36.0299505279541,131.9883834057617 C36.0299505279541,131.9883834057617 35.2351005279541,133.23604340576173 35.2351005279541,133.23604340576173 C35.9440405279541,133.61459340576172 36.643330527954106,134.3524334057617 37.2956705279541,134.4756734057617 C37.2956705279541,134.4756734057617 37.2956705279541,134.4756734057617 37.2956705279541,134.4756734057617 M48.4086505279541,116.93141340576172 C48.4086505279541,116.93141340576172 53.1014105279541,112.74733340576172 53.1014105279541,112.74733340576172 C53.1014105279541,112.74733340576172 60.6081505279541,121.16668340576172 60.6081505279541,121.16668340576172 C60.6081505279541,121.16668340576172 55.9153905279541,125.35077340576171 55.9153905279541,125.35077340576171 C55.9153905279541,125.35077340576171 48.4086505279541,116.93141340576172 48.4086505279541,116.93141340576172 C48.4086505279541,116.93141340576172 48.4086505279541,116.93141340576172 48.4086505279541,116.93141340576172 M45.2185505279541,116.22473340576173 C44.2884205279541,117.21919340576171 43.8605205279541,118.59169340576172 44.680930527954104,119.51184340576172 C44.680930527954104,119.51184340576172 52.9260405279541,128.75932340576173 52.9260405279541,128.75932340576173 C53.9254905279541,129.60242340576173 55.0457505279541,129.09908340576172 56.1150205279541,128.7237834057617 C56.1150205279541,128.7237834057617 64.3503405279541,121.38112340576171 64.3503405279541,121.38112340576171 C64.8303605279541,120.62281340576172 64.99220052795411,119.32237340576172 64.3358705279541,118.58626340576171 C64.3358705279541,118.58626340576171 56.4599505279541,109.75284340576172 56.4599505279541,109.75284340576172 C55.3014005279541,108.63869340576171 53.862950527954105,108.59992340576171 52.5337205279541,109.70248340576171 C52.5337205279541,109.70248340576171 45.2185505279541,116.22473340576173 45.2185505279541,116.22473340576173 C45.2185505279541,116.22473340576173 45.2185505279541,116.22473340576173 45.2185505279541,116.22473340576173 M81.03258052795411,112.20162340576172 C77.5580005279541,114.07877340576172 76.16612052795409,111.32834340576171 74.4556005279541,107.77359340576172 C74.4556005279541,107.77359340576172 69.4567205279541,110.17900340576172 69.4567205279541,110.17900340576172 C69.4567205279541,110.17900340576172 71.4612405279541,114.34473340576172 71.4612405279541,114.34473340576172 C71.4612405279541,114.34473340576172 73.1275305279541,113.54293340576172 73.1275305279541,113.54293340576172 C73.1275305279541,113.54293340576172 74.08970052795411,115.54248340576171 74.08970052795411,115.54248340576171 C74.08970052795411,115.54248340576171 66.9801805279541,118.96351340576172 66.9801805279541,118.96351340576172 C66.9801805279541,118.96351340576172 66.01802052795409,116.96396340576172 66.01802052795409,116.96396340576172 C66.01802052795409,116.96396340576172 67.40659052795411,116.29579340576171 67.40659052795411,116.29579340576171 C67.40659052795411,116.29579340576171 65.37535052795411,112.07452340576172 65.37535052795411,112.07452340576172 C65.37535052795411,112.07452340576172 63.4868905279541,112.98323340576172 63.4868905279541,112.98323340576172 C63.4868905279541,112.98323340576172 62.1772705279541,110.26163340576171 62.1772705279541,110.26163340576171 C62.1772705279541,110.26163340576171 64.0657405279541,109.35291340576171 64.0657405279541,109.35291340576171 C64.0657405279541,109.35291340576171 62.141400527954104,105.35381340576171 62.141400527954104,105.35381340576171 C62.141400527954104,105.35381340576171 60.7528305279541,106.02198340576172 60.7528305279541,106.02198340576172 C60.7528305279541,106.02198340576172 59.7906605279541,104.02243340576172 59.7906605279541,104.02243340576172 C59.7906605279541,104.02243340576172 71.6213305279541,98.32961340576172 71.6213305279541,98.32961340576172 C72.8411905279541,97.87943340576172 74.33249052795409,97.70906340576173 75.08920052795409,98.71302340576172 C75.8312805279541,100.68166340576173 77.7026005279541,102.72256340576172 76.4393005279541,104.21970340576172 C75.34472052795411,105.49884340576172 76.37122052795411,105.07330340576172 78.6726905279541,106.01797340576172 C78.6726905279541,106.01797340576172 80.5435705279541,109.90598340576172 80.5435705279541,109.90598340576172 C80.5435705279541,109.90598340576172 81.9321405279541,109.23781340576173 81.9321405279541,109.23781340576173 C81.9321405279541,109.23781340576173 82.9477705279541,111.34845340576172 82.9477705279541,111.34845340576172 C82.2257105279541,111.69590340576173 81.5324605279541,111.96108340576171 81.03258052795411,112.20162340576172 C81.03258052795411,112.20162340576172 81.03258052795411,112.20162340576172 81.03258052795411,112.20162340576172 M72.9259005279541,105.02107340576171 C72.9259005279541,105.02107340576171 71.2153805279541,101.46632340576171 71.2153805279541,101.46632340576171 C71.2153805279541,101.46632340576171 66.6053105279541,103.68465340576172 66.6053105279541,103.68465340576172 C66.6053105279541,103.68465340576172 68.3158205279541,107.23940340576172 68.3158205279541,107.23940340576172 C68.3158205279541,107.23940340576172 72.9259005279541,105.02107340576171 72.9259005279541,105.02107340576171 C72.9259005279541,105.02107340576171 72.9259005279541,105.02107340576171 72.9259005279541,105.02107340576171 M99.1314905279541,100.56272340576172 C98.84906052795411,98.67290340576172 96.8800505279541,98.84252340576172 95.0420905279541,99.05488340576171 C95.7014105279541,97.21129340576172 96.9976805279541,95.45947340576171 98.3486305279541,94.07343340576172 C98.3486305279541,94.07343340576172 99.5678705279541,93.89121340576172 99.5678705279541,93.89121340576172 C99.5678705279541,93.89121340576172 99.2489905279541,91.75755340576171 99.2489905279541,91.75755340576171 C99.2489905279541,91.75755340576171 91.68972052795411,92.88729340576172 91.68972052795411,92.88729340576172 C91.68972052795411,92.88729340576172 92.0177005279541,95.08191340576172 92.0177005279541,95.08191340576172 C92.0177005279541,95.08191340576172 93.0540605279541,94.92703340576172 93.0540605279541,94.92703340576172 C93.03450052795411,97.29825340576171 91.6254105279541,99.12925340576172 89.2934505279541,99.78938340576173 C89.2934505279541,99.78938340576173 88.6648005279541,95.58301340576172 88.6648005279541,95.58301340576172 C88.6648005279541,95.58301340576172 90.1888505279541,95.35524340576171 90.1888505279541,95.35524340576171 C90.1888505279541,95.35524340576171 89.8608605279541,93.16061340576172 89.8608605279541,93.16061340576172 C89.8608605279541,93.16061340576172 82.0577405279541,94.32679340576172 82.0577405279541,94.32679340576172 C82.0577405279541,94.32679340576172 82.3857305279541,96.52142340576172 82.3857305279541,96.52142340576172 C82.3857305279541,96.52142340576172 84.0317005279541,96.27543340576172 84.0317005279541,96.27543340576172 C84.0317005279541,96.27543340576172 84.67857052795411,100.60372340576171 84.67857052795411,100.60372340576171 C84.67857052795411,100.60372340576171 82.3620205279541,100.94993340576173 82.3620205279541,100.94993340576173 C82.3620205279541,100.94993340576173 82.79023052795411,103.81514340576172 82.79023052795411,103.81514340576172 C82.79023052795411,103.81514340576172 85.1067805279541,103.46893340576172 85.1067805279541,103.46893340576172 C85.1067805279541,103.46893340576172 85.7809805279541,107.98011340576173 85.7809805279541,107.98011340576173 C85.7809805279541,107.98011340576173 84.13501052795411,108.22610340576172 84.13501052795411,108.22610340576172 C84.13501052795411,108.22610340576172 84.5085505279541,110.72553340576172 84.5085505279541,110.72553340576172 C84.5085505279541,110.72553340576172 92.3116705279541,109.55935340576173 92.3116705279541,109.55935340576173 C92.3116705279541,109.55935340576173 91.9381205279541,107.05992340576172 91.9381205279541,107.05992340576172 C91.9381205279541,107.05992340576172 90.4140805279541,107.28769340576171 90.4140805279541,107.28769340576171 C90.4140805279541,107.28769340576171 89.7307705279541,102.71555340576172 89.7307705279541,102.71555340576172 C89.7307705279541,102.71555340576172 94.4248305279541,102.01401340576172 94.4248305279541,102.01401340576172 C95.2930305279541,102.81911340576173 95.0814805279541,105.15670340576172 95.4921405279541,106.65341340576171 C96.1613705279541,109.04633340576171 99.3222905279541,108.51161340576172 102.0228205279541,108.23266340576171 C102.0228205279541,108.23266340576171 101.5946205279541,105.36745340576172 101.5946205279541,105.36745340576172 C101.5946205279541,105.36745340576172 99.8876805279541,105.62255340576172 99.8876805279541,105.62255340576172 C99.8876805279541,105.62255340576172 99.1314905279541,100.56272340576172 99.1314905279541,100.56272340576172 C99.1314905279541,100.56272340576172 99.1314905279541,100.56272340576172 99.1314905279541,100.56272340576172 M107.5660305279541,106.47387340576172 C107.5660305279541,106.47387340576172 107.2533305279541,108.67073340576172 107.2533305279541,108.67073340576172 C107.2533305279541,108.67073340576172 115.1254005279541,109.79123340576172 115.1254005279541,109.79123340576172 C115.1254005279541,109.79123340576172 115.4381005279541,107.59437340576171 115.4381005279541,107.59437340576171 C115.4381005279541,107.59437340576171 113.8514805279541,107.36854340576171 113.8514805279541,107.36854340576171 C113.8514805279541,107.36854340576171 115.5018305279541,95.77401340576172 115.5018305279541,95.77401340576172 C115.5018305279541,95.77401340576172 118.0038005279541,96.13014340576171 118.0038005279541,96.13014340576171 C118.0038005279541,96.13014340576171 117.6737405279541,98.44904340576171 117.6737405279541,98.44904340576171 C117.6737405279541,98.44904340576171 121.2131205279541,98.95283340576172 121.2131205279541,98.95283340576172 C121.2131205279541,98.95283340576172 121.9166905279541,94.00990340576172 121.9166905279541,94.00990340576172 C121.9166905279541,94.00990340576172 105.4402605279541,91.66467340576172 105.4402605279541,91.66467340576172 C105.4402605279541,91.66467340576172 104.7366805279541,96.60760340576172 104.7366805279541,96.60760340576172 C104.7366805279541,96.60760340576172 108.2760705279541,97.11139340576172 108.2760705279541,97.11139340576172 C108.2760705279541,97.11139340576172 108.6061405279541,94.79248340576171 108.6061405279541,94.79248340576171 C108.6061405279541,94.79248340576171 110.8030005279541,95.10518340576172 110.8030005279541,95.10518340576172 C110.8030005279541,95.10518340576172 109.15265052795411,106.69971340576171 109.15265052795411,106.69971340576171 C109.15265052795411,106.69971340576171 107.5660305279541,106.47387340576172 107.5660305279541,106.47387340576172 C107.5660305279541,106.47387340576172 107.5660305279541,106.47387340576172 107.5660305279541,106.47387340576172 M130.4700405279541,99.73027340576172 C130.4700405279541,99.73027340576172 136.2357505279541,102.23727340576173 136.2357505279541,102.23727340576173 C136.2357505279541,102.23727340576173 131.73790052795408,112.58164340576172 131.73790052795408,112.58164340576172 C131.73790052795408,112.58164340576172 125.9721905279541,110.07464340576172 125.9721905279541,110.07464340576172 C125.9721905279541,110.07464340576172 130.4700405279541,99.73027340576172 130.4700405279541,99.73027340576172 C130.4700405279541,99.73027340576172 130.4700405279541,99.73027340576172 130.4700405279541,99.73027340576172 M129.7745905279541,96.53770340576172 C128.48185052795412,96.11002340576172 127.0563805279541,96.29677340576171 126.56481052795411,97.42731340576172 C126.56481052795411,97.42731340576172 121.6245405279541,108.78915340576172 121.6245405279541,108.78915340576172 C121.2779705279541,110.04994340576172 122.2045005279541,110.85609340576173 122.9934105279541,111.66961340576172 C122.9934105279541,111.66961340576172 133.11167052795412,116.06916340576171 133.11167052795412,116.06916340576171 C134.00135052795412,116.18715340576172 135.2498705279541,115.78903340576171 135.6431305279541,114.88461340576171 C135.6431305279541,114.88461340576171 140.3621905279541,104.03150340576173 140.3621905279541,104.03150340576173 C140.8881805279541,102.51265340576172 140.3204805279541,101.19039340576172 138.7623205279541,100.44567340576172 C138.7623205279541,100.44567340576172 129.7745905279541,96.53770340576172 129.7745905279541,96.53770340576172 C129.7745905279541,96.53770340576172 129.7745905279541,96.53770340576172 129.7745905279541,96.53770340576172 M145.2688105279541,105.98398340576172 C145.2688105279541,105.98398340576172 146.5861605279541,107.09902340576171 146.5861605279541,107.09902340576171 C146.5861605279541,107.09902340576171 137.3074405279541,118.06117340576172 137.3074405279541,118.06117340576172 C137.3074405279541,118.06117340576172 137.5897305279541,118.30011340576172 137.5897305279541,118.30011340576172 C137.5897305279541,118.30011340576172 147.6013505279541,118.77951340576172 147.6013505279541,118.77951340576172 C147.6013505279541,118.77951340576172 149.6810105279541,128.5345734057617 149.6810105279541,128.5345734057617 C149.6810105279541,128.5345734057617 149.9633005279541,128.77351340576172 149.9633005279541,128.77351340576172 C149.9633005279541,128.77351340576172 159.2420205279541,117.81136340576171 159.2420205279541,117.81136340576171 C159.2420205279541,117.81136340576171 160.5593505279541,118.92640340576172 160.5593505279541,118.92640340576172 C160.5593505279541,118.92640340576172 161.9929805279541,117.23268340576172 161.9929805279541,117.23268340576172 C161.9929805279541,117.23268340576172 155.9708505279541,112.13536340576172 155.9708505279541,112.13536340576172 C155.9708505279541,112.13536340576172 154.5372405279541,113.82908340576172 154.5372405279541,113.82908340576172 C154.5372405279541,113.82908340576172 155.7134405279541,114.82465340576172 155.7134405279541,114.82465340576172 C155.7134405279541,114.82465340576172 151.5320405279541,119.76467340576173 151.5320405279541,119.76467340576173 C150.7540705279541,118.29862340576172 150.9787305279541,116.79292340576171 150.5482405279541,115.29797340576172 C149.0027205279541,115.12037340576171 147.5005505279541,115.46398340576172 145.9333505279541,115.02576340576172 C145.9333505279541,115.02576340576172 150.1147405279541,110.08574340576172 150.1147405279541,110.08574340576172 C150.1147405279541,110.08574340576172 151.2909405279541,111.08130340576172 151.2909405279541,111.08130340576172 C151.2909405279541,111.08130340576172 152.7245605279541,109.38758340576172 152.7245605279541,109.38758340576172 C152.7245605279541,109.38758340576172 146.7024305279541,104.29026340576172 146.7024305279541,104.29026340576172 C146.7024305279541,104.29026340576172 145.2688105279541,105.98398340576172 145.2688105279541,105.98398340576172 C145.2688105279541,105.98398340576172 145.2688105279541,105.98398340576172 145.2688105279541,105.98398340576172 M153.7953205279541,129.4068134057617 C153.7953205279541,129.4068134057617 151.9116005279541,130.57966340576172 151.9116005279541,130.57966340576172 C151.9116005279541,130.57966340576172 155.9514005279541,137.06803340576172 155.9514005279541,137.06803340576172 C155.9514005279541,137.06803340576172 157.6258205279541,136.02550340576173 157.6258205279541,136.02550340576173 C157.6258205279541,136.02550340576173 156.81134052795412,134.71736340576172 156.81134052795412,134.71736340576172 C156.81134052795412,134.71736340576172 162.0962205279541,131.4268834057617 162.0962205279541,131.4268834057617 C162.0962205279541,131.4268834057617 160.2518305279541,143.97500340576173 160.2518305279541,143.97500340576173 C160.2518305279541,143.97500340576173 160.6102005279541,144.55058340576173 160.6102005279541,144.55058340576173 C160.6102005279541,144.55058340576173 172.5927405279541,137.0900034057617 172.5927405279541,137.0900034057617 C172.5927405279541,137.0900034057617 173.5049605279541,138.55511340576172 173.5049605279541,138.55511340576172 C173.5049605279541,138.55511340576172 175.5979705279541,137.25195340576172 175.5979705279541,137.25195340576172 C175.5979705279541,137.25195340576172 171.5581805279541,130.76358340576172 171.5581805279541,130.76358340576172 C171.5581805279541,130.76358340576172 169.6744705279541,131.93642340576173 169.6744705279541,131.93642340576173 C169.6744705279541,131.93642340576173 170.5215105279541,133.29689340576172 170.5215105279541,133.29689340576172 C170.5215105279541,133.29689340576172 165.8122205279541,136.22900340576172 165.8122205279541,136.22900340576172 C165.8122205279541,136.22900340576172 167.3555005279541,124.01358340576172 167.3555005279541,124.01358340576172 C167.3555005279541,124.01358340576172 166.8994005279541,123.28103340576172 166.8994005279541,123.28103340576172 C166.8994005279541,123.28103340576172 154.7075305279541,130.87193340576172 154.7075305279541,130.87193340576172 C154.7075305279541,130.87193340576172 153.7953205279541,129.4068134057617 153.7953205279541,129.4068134057617 C153.7953205279541,129.4068134057617 153.7953205279541,129.4068134057617 153.7953205279541,129.4068134057617 " id="svg_21" style="pointer-events:inherit"/><rect x="30.053515434265137" y="91.6640625" width="145.54296875" height="52.88671875" fill="#000000" opacity="0" id="svg_22" style="pointer-events:inherit"/></g><g id="svg_4" display="null" style="pointer-events:inherit" clip-id="858"><path d="M77.85551,157.52017C77.85551,157.52017 76.85389,147.00134 88.54128,139.40482C88.79168,138.56995 92.38156,135.81494 94.8023,136.90041C96.38839,136.31593 102.64961,135.02963 107.24168,135.71471S116.92564,138.98767 118.92906,140.65721C120.09779,140.82414 123.77075,143.4955 123.93788,144.91483C125.44087,146.91824 128.61302,150.00693 128.53069,158.85623C128.44817,167.70532 124.85754,173.0484 123.60516,174.63391S119.68158,179.89334 115.67437,181.64635C115.67437,182.4814 114.33852,183.14914 113.67057,183.31609C113.00285,183.48302 111.33348,184.48483 110.33131,183.31609C108.82849,183.5665 101.56567,185.8205 93.05061,183.06567C84.53558,180.31067 80.61126,173.79942 78.60786,165.53516C78.19051,165.03436 77.27217,164.44951 77.18871,162.11223C77.10524,159.77475 76.93774,157.77115 77.85606,157.52036L77.85551,157.52017z" id="svg_5" style="pointer-events:inherit"/><path fill="#CECECE" d="M78.91177,157.62436C78.91177,157.62436 77.95235,147.55038 89.14552,140.2751C89.38538,139.47566 92.82339,136.83728 95.14183,137.87659C96.66084,137.3168 102.65715,136.08495 107.05495,136.741C111.45236,137.39688 116.32951,139.87547 118.2485,141.47437C119.36769,141.63432 122.88557,144.19263 123.04536,145.55185C124.48466,147.47067 127.52267,150.4288 127.44278,158.9039C127.36288,167.3788 123.92488,172.49579 122.72562,174.01535C121.52635,175.53455 118.96806,179.05225 115.13023,180.73122C115.13023,181.53067 113.85107,182.17033 113.21122,182.33029C112.57156,182.49026 110.97285,183.4493 110.01324,182.33029C108.57394,182.56996 101.61823,184.72882 93.46288,182.09045C85.3092,179.45113 81.55201,173.21497 79.63226,165.30002C79.23243,164.82051 78.35292,164.26053 78.27304,162.02216C78.19352,159.78436 78.03375,157.86554 78.91309,157.62569L78.91177,157.62436z" id="svg_6" style="pointer-events:inherit"/><path fill="#FF0000" d="M94.7942,139.98909C95.02483,139.98909 95.21154,140.17599 95.21154,140.40643C95.21154,140.63686 95.02464,140.82378 94.7942,140.82378C94.56378,140.82378 94.37688,140.63686 94.37688,140.40643C94.37669,140.17599 94.56378,139.98909 94.7942,139.98909zM94.0511,144.3298C94.0511,144.56042 94.23801,144.74713 94.46844,144.74713C94.69907,144.74713 94.88577,144.56023 94.88577,144.3298S94.69886,143.91246 94.46844,143.91246C94.23819,143.91226 94.0511,144.09918 94.0511,144.3298zM93.30836,148.38751C93.30836,148.64111 93.51393,148.84668 93.76753,148.84668C94.02116,148.84668 94.2267,148.64111 94.2267,148.38751C94.2267,148.1339 94.02116,147.92834 93.76753,147.92834C93.51393,147.92834 93.30836,148.13409 93.30836,148.38751zM91.05378,152.34441C91.05378,152.621 91.278,152.84521 91.5546,152.84521C91.83119,152.84521 92.0554,152.621 92.0554,152.34441S91.83119,151.8436 91.5546,151.8436C91.278,151.8436 91.05378,152.06781 91.05378,152.34441zM87.73184,155.56668C87.73184,155.84328 87.95605,156.06749 88.23265,156.06749C88.50925,156.06749 88.73346,155.84328 88.73346,155.56668C88.73346,155.2901 88.50925,155.06589 88.23265,155.06589C87.95605,155.06589 87.73184,155.2901 87.73184,155.56668zM84.48338,158.83983C84.48338,159.11642 84.7076,159.34064 84.98438,159.34064C85.26097,159.34064 85.48518,159.11642 85.48518,158.83983S85.26097,158.33902 84.98438,158.33902C84.7076,158.33902 84.48338,158.56323 84.48338,158.83983zM82.09843,161.27303C82.09843,161.50346 82.28532,161.69037 82.51576,161.69037C82.74638,161.69037 82.93311,161.50346 82.93311,161.27303C82.93311,161.0424 82.7462,160.85568 82.51576,160.85568C82.28532,160.85568 82.09843,161.0424 82.09843,161.27303zM80.8903,154.30656C80.8903,154.60634 81.13336,154.8492 81.43293,154.8492C81.73271,154.8492 81.97557,154.60634 81.97557,154.30656C81.97557,154.00699 81.73271,153.76393 81.43293,153.76393C81.13336,153.76393 80.8903,154.00699 80.8903,154.30656zM83.14846,151.86037C83.14846,152.13696 83.37268,152.36118 83.64926,152.36118S84.15007,152.13696 84.15007,151.86037S83.92585,151.35956 83.64926,151.35956S83.14846,151.58379 83.14846,151.86037zM85.53606,149.42285C85.53606,149.65347 85.72296,149.84018 85.9534,149.84018S86.37074,149.65327 86.37074,149.42285S86.18382,149.00551 85.9534,149.00551S85.53606,149.19241 85.53606,149.42285zM87.51442,147.08084C87.51442,147.32297 87.71075,147.51929 87.95266,147.51929C88.19479,147.51929 88.39111,147.32297 88.39111,147.08084C88.39111,146.83873 88.19479,146.64241 87.95266,146.64241C87.71056,146.64259 87.51442,146.83893 87.51442,147.08084zM88.12393,144.37201C88.12393,144.62561 88.32951,144.83118 88.5831,144.83118C88.83672,144.83118 89.04227,144.62561 89.04227,144.37201C89.04227,144.11839 88.83672,143.91284 88.5831,143.91284C88.32968,143.91284 88.12393,144.11859 88.12393,144.37201zM88.51585,141.49998C88.51585,141.7536 88.72141,141.95915 88.9752,141.95915C89.22881,141.95915 89.43437,141.7536 89.43437,141.49998C89.43437,141.24638 89.22881,141.04082 88.9752,141.04082C88.72141,141.04082 88.51585,141.24638 88.51585,141.49998zM78.85751,156.26778C78.85751,156.4984 79.0444,156.68512 79.27484,156.68512C79.50526,156.68512 79.69218,156.49821 79.69218,156.26778C79.69218,156.03735 79.50526,155.85043 79.27484,155.85043C79.04422,155.85025 78.85751,156.03716 78.85751,156.26778zM114.08641,142.99449C114.08641,143.31726 114.34811,143.57896 114.67086,143.57896S115.25534,143.31726 115.25534,142.99449C115.25534,142.67174 114.99362,142.41003 114.67086,142.41003S114.08641,142.67155 114.08641,142.99449zM110.4971,146.2083C110.4971,146.50787 110.73997,146.75093 111.03973,146.75093S111.58238,146.50787 111.58238,146.2083C111.58238,145.90852 111.3395,145.66566 111.03973,145.66566S110.4971,145.90872 110.4971,146.2083zM107.15744,148.54596C107.15744,148.79956 107.36319,149.00513 107.61681,149.00513S108.07616,148.79956 108.07616,148.54596C108.07616,148.29236 107.8704,148.08679 107.61681,148.08679S107.15744,148.29236 107.15744,148.54596zM105.1544,152.86652C105.1544,153.15479 105.38803,153.38843 105.67632,153.38843S106.19823,153.15479 106.19823,152.86652C106.19823,152.57841 105.96458,152.3446 105.67632,152.3446S105.1544,152.57823 105.1544,152.86652zM104.56974,157.7393C104.56974,158.04472 104.81733,158.29248 105.12294,158.29248S105.67613,158.04491 105.67613,157.7393S105.42854,157.18631 105.12294,157.18631S104.56974,157.43388 104.56974,157.7393zM105.98117,162.93013C105.98117,163.2299 106.22422,163.47296 106.5238,163.47296C106.82357,163.47296 107.06664,163.2299 107.06664,162.93013C107.06664,162.63055 106.82357,162.3877 106.5238,162.3877C106.22422,162.3877 105.98117,162.63055 105.98117,162.93013zM107.61737,166.51587C107.61737,166.82712 107.86984,167.07922 108.18092,167.07922S108.74446,166.82712 108.74446,166.51587C108.74446,166.20479 108.492,165.9525 108.18092,165.9525S107.61737,166.20479 107.61737,166.51587zM109.07777,169.70874C109.07777,169.98534 109.30199,170.20975 109.57877,170.20975S110.07957,169.98534 110.07957,169.70874C110.07957,169.43196 109.85555,169.20775 109.57877,169.20775S109.07777,169.43216 109.07777,169.70874zM110.4971,173.42354C110.4971,173.7235 110.73997,173.96637 111.03973,173.96637S111.58238,173.7235 111.58238,173.42354C111.58238,173.12396 111.3395,172.88109 111.03973,172.88109S110.4971,173.12396 110.4971,173.42354zM111.03955,176.26164C111.03955,176.5614 111.2826,176.80447 111.58218,176.80447C111.88195,176.80447 112.12482,176.5614 112.12482,176.26164C112.12482,175.96207 111.88195,175.71919 111.58218,175.71919C111.28279,175.71919 111.03955,175.96205 111.03955,176.26164zM109.8629,178.83708C109.8629,179.10217 110.07788,179.31717 110.3428,179.31717C110.60788,179.31717 110.82288,179.10217 110.82288,178.83708S110.60788,178.35699 110.3428,178.35699C110.07788,178.35699 109.8629,178.57198 109.8629,178.83708zM118.92848,146.75093C118.92848,147.05051 119.17155,147.29356 119.47113,147.29356C119.7709,147.29356 120.01395,147.05051 120.01395,146.75093S119.7709,146.2083 119.47113,146.2083C119.17155,146.2083 118.92848,146.45135 118.92848,146.75093zM116.09058,148.54596C116.09058,148.79956 116.29594,149.00513 116.54956,149.00513S117.00872,148.79956 117.00872,148.54596S116.80316,148.08679 116.54956,148.08679S116.09058,148.29236 116.09058,148.54596zM114.08641,151.42627C114.08641,151.70285 114.31062,151.92706 114.58723,151.92706C114.86401,151.92706 115.08802,151.70285 115.08802,151.42627C115.08802,151.14967 114.86401,150.92546 114.58723,150.92546C114.31081,150.92546 114.08641,151.14967 114.08641,151.42627zM112.75169,154.8492C112.75169,155.12579 112.97569,155.35001 113.25248,155.35001C113.52888,155.35001 113.7533,155.12579 113.7533,154.8492C113.7533,154.5726 113.52888,154.34839 113.25248,154.34839C112.97589,154.34839 112.75169,154.5726 112.75169,154.8492zM112.75169,158.18867C112.75169,158.46527 112.97569,158.68948 113.25248,158.68948C113.52888,158.68948 113.7533,158.46527 113.7533,158.18867S113.52888,157.68787 113.25248,157.68787C112.97589,157.68787 112.75169,157.91208 112.75169,158.18867zM113.29431,161.44449C113.29431,161.81322 113.59332,162.11241 113.96225,162.11241S114.62999,161.81322 114.62999,161.44449C114.62999,161.07556 114.33116,160.77655 113.96225,160.77655S113.29431,161.07556 113.29431,161.44449zM113.75349,164.7001C113.75349,165.06903 114.05249,165.36804 114.42141,165.36804C114.79013,165.36804 115.08934,165.06903 115.08934,164.7001C115.08934,164.33138 114.79013,164.03218 114.42141,164.03218C114.05249,164.03218 113.75349,164.33138 113.75349,164.7001zM116.09021,167.6424C116.09021,167.95366 116.34251,168.20613 116.65356,168.20613C116.96484,168.20613 117.2173,167.95366 117.2173,167.6424C117.2173,167.33133 116.96484,167.07904 116.65356,167.07904C116.34251,167.07886 116.09021,167.33113 116.09021,167.6424zM117.21786,171.27373C117.21786,171.58499 117.47035,171.83708 117.78141,171.83708S118.34478,171.58499 118.34478,171.27373C118.34478,170.96265 118.09248,170.71036 117.78141,170.71036S117.21786,170.96265 117.21786,171.27373zM117.21786,175.44768C117.21786,175.75876 117.47035,176.01105 117.78141,176.01105S118.34478,175.75876 118.34478,175.44768S118.09248,174.88412 117.78141,174.88412S117.21786,175.13661 117.21786,175.44768zM116.19891,178.4301C116.19891,178.65469 116.3813,178.83708 116.6059,178.83708S117.01289,178.65469 117.01289,178.4301S116.83049,178.02313 116.6059,178.02313S116.19891,178.20552 116.19891,178.4301zM88.05026,144.90503C88.66789,145.52209 89.24124,145.96562 89.80423,146.26312C90.36514,146.56044 90.92435,146.70647 91.45738,146.70534C91.83308,146.70572 92.189,146.63431 92.5144,146.519C93.0037,146.34546 93.42593,146.08055 93.81805,145.79718C94.20974,145.51266 94.57357,145.20593 94.93438,144.92293L94.00325,143.73761C93.48924,144.1427 93.03159,144.53271 92.61029,144.79688C92.4002,144.92972 92.20126,145.03127 92.01245,145.09778C91.82309,145.16429 91.64523,145.19783 91.45757,145.19801C91.19284,145.19707 90.89457,145.13263 90.50758,144.9299C90.12265,144.72736 89.65782,144.38104 89.11613,143.83897L88.05026,144.90503zM88.59554,142.14777C89.18962,142.55473 89.73206,142.85036 90.24511,143.04839C90.75742,143.24603 91.24353,143.34476 91.70496,143.34476C92.14867,143.34552 92.56432,143.25093 92.9304,143.09172C93.48209,142.85205 93.91885,142.48447 94.3032,142.09669C94.68737,141.70706 95.0256,141.28954 95.36604,140.90253L94.23312,139.90826C93.74925,140.46239 93.32946,140.98317 92.92326,141.32495C92.72089,141.49698 92.52644,141.62453 92.33218,141.70837C92.13699,141.79184 91.94255,141.83669 91.70477,141.83763C91.45869,141.83763 91.16064,141.78601 90.7868,141.64206C90.41374,141.49849 89.96833,141.26184 89.44756,140.9046L88.59554,142.14777zM89.62598,140.61105C90.14809,140.71091 90.61932,140.75839 91.05114,140.75858C91.56892,140.75876 92.03073,140.68924 92.44336,140.56149C93.06343,140.37064 93.56065,140.04881 93.97554,139.69572C94.39175,139.34169 94.73561,138.95865 95.08474,138.60254L94.14135,137.68063C93.64658,138.19011 93.24072,138.64117 92.79135,138.94301C92.5662,139.09525 92.33125,139.21509 92.05352,139.30138C91.7758,139.3871 91.45285,139.4393 91.05114,139.43948C90.71653,139.43948 90.32803,139.40236 89.87376,139.31551L89.62598,140.61105zM87.35992,147.46126C87.92102,148.38675 88.48004,149.04018 89.08618,149.47842C89.38858,149.69661 89.70343,149.85809 90.02298,149.9619C90.34233,150.06628 90.66473,150.11188 90.97522,150.11169C91.56439,150.11075 92.10252,149.95531 92.60352,149.76256C93.10526,149.56812 93.5778,149.33185 94.04018,149.12326L93.41917,147.74991C92.92437,147.97412 92.47087,148.19852 92.06012,148.3566C91.6488,148.51639 91.28817,148.60532 90.97504,148.60437C90.80811,148.60419 90.6521,148.58139 90.48949,148.52881C90.24699,148.44931 89.98095,148.2997 89.6712,148.00992C89.36296,147.72089 89.01815,147.29092 88.64943,146.68103L87.35992,147.46126zM85.50987,149.90538C85.71655,150.54448 85.9468,151.07939 86.20834,151.53008C86.40446,151.86772 86.6185,152.15826 86.85345,152.40395C87.20467,152.77267 87.60712,153.03627 88.02615,153.19453C88.44537,153.35394 88.87213,153.40971 89.28137,153.40952C89.69608,153.40933 90.09702,153.35431 90.48761,153.28461C90.87801,153.21451 91.25917,153.12897 91.63034,153.05663L91.34132,151.57718C90.94339,151.65518 90.56825,151.73903 90.22195,151.80083C89.87564,151.86319 89.55891,151.90257 89.28137,151.90221C89.03662,151.90221 88.82428,151.873 88.63304,151.81082C88.48909,151.76372 88.35511,151.69833 88.2189,151.60243C88.01559,151.45848 87.80307,151.24124 87.5847,150.8938C87.36688,150.5475 87.14796,150.07269 86.94445,149.44206L85.50987,149.90538zM82.88506,151.98021C82.99395,153.02722 83.2112,153.84024 83.55487,154.48706C83.81149,154.97073 84.14724,155.3566 84.53313,155.63319C84.82177,155.8412 85.1334,155.98723 85.44675,156.08746C85.91798,156.23763 86.39185,156.29001 86.85535,156.31357C87.31903,156.33618 87.77574,156.32883 88.21608,156.33636L88.24113,154.82922C87.68211,154.82056 87.16246,154.83035 86.71497,154.79456C86.37904,154.76855 86.08662,154.71712 85.84468,154.63121C85.66249,154.56657 85.50798,154.4848 85.36649,154.37459C85.15622,154.20859 84.96196,153.97382 84.78542,153.57098C84.61037,153.16968 84.46436,152.60141 84.38467,151.82552L82.88506,151.98021zM80.68719,154.19785C80.61655,154.68207 80.58189,155.12221 80.58189,155.52655C80.58168,156.29453 80.70792,156.94118 80.96587,157.48268C81.15805,157.88795 81.42503,158.2254 81.7299,158.48882C82.18906,158.8858 82.7151,159.11963 83.23589,159.29599C83.75854,159.47141 84.2863,159.5918 84.78729,159.72783L85.18108,158.27289C84.70401,158.14401 84.25314,158.03737 83.86124,157.91434C83.56712,157.82239 83.30748,157.72141 83.09232,157.60477C82.93066,157.51735 82.79405,157.4222 82.67799,157.3148C82.50483,157.15277 82.37086,156.96642 82.2648,156.68907C82.16003,156.41229 82.089,156.03735 82.089,155.52637C82.089,155.20869 82.11652,154.8396 82.17849,154.41528L80.68719,154.19785zM78.46597,156.25949C78.34481,156.87297 78.28566,157.41768 78.28546,157.91039C78.2851,158.61562 78.40945,159.22176 78.6591,159.7318C78.84506,160.11353 79.10017,160.43288 79.38844,160.68686C79.82256,161.06953 80.3179,161.31033 80.81117,161.50119C81.30613,161.6915 81.80714,161.83356 82.2825,161.98882L82.74921,160.55554C82.29626,160.40839 81.86686,160.28328 81.49155,160.14668C81.21005,160.04456 80.95985,159.93604 80.75125,159.81544C80.59449,159.72519 80.4613,159.62872 80.34898,159.52321C80.18074,159.36363 80.05431,159.18745 79.95596,158.93837C79.85891,158.68948 79.79316,158.36012 79.79298,157.91057C79.79298,157.53996 79.83839,157.09003 79.94502,156.55191L78.46597,156.25949zM110.53893,146.56026C110.77577,147.13548 111.02599,147.6199 111.29636,148.02914C111.70071,148.64168 112.1591,149.09067 112.6716,149.37762C112.92671,149.52083 113.19238,149.62181 113.45767,149.68474C113.72314,149.74786 113.98769,149.77368 114.24543,149.77368C114.72308,149.77312 115.17657,149.68794 115.61407,149.58073C116.05122,149.4726 116.47401,149.34052 116.88626,149.22633L116.48286,147.77402C116.04141,147.89668 115.62953,148.02481 115.25308,148.11731C114.87643,148.21077 114.53729,148.26711 114.24543,148.26654C114.03442,148.26636 113.84882,148.23923 113.6721,148.18025C113.40905,148.09 113.14999,147.93153 112.854,147.5956C112.56044,147.26079 112.24409,146.74396 111.93301,145.98672L110.53893,146.56026L110.53893,146.56026zM113.87086,143.27505C114.02499,144.02475 114.22451,144.64389 114.47755,145.16165C114.66729,145.54959 114.8885,145.88065 115.1423,146.15591C115.52177,146.57005 115.97847,146.84778 116.44499,147.00227C116.91245,147.15866 117.38274,147.20218 117.83775,147.20256C118.44708,147.20161 119.03965,147.12512 119.60867,147.07858L119.48355,145.57635C118.8746,145.62779 118.31407,145.696 117.83775,145.69505C117.52084,145.69524 117.24443,145.66603 117.01042,145.59972C116.83444,145.54959 116.68144,145.48102 116.53581,145.38228C116.31912,145.23363 116.10791,145.01337 115.8999,144.63202C115.69302,144.2518 115.49896,143.71161 115.34709,142.97151L113.87086,143.27505zM117.42173,141.7536C117.50182,142.79082 117.69418,143.59743 118.01807,144.24294C118.2598,144.72546 118.58427,145.11322 118.96202,145.39095C119.24446,145.6001 119.55139,145.74667 119.85983,145.84691C120.32391,145.99747 120.79079,146.05003 121.24749,146.07396C121.70461,146.09714 122.15434,146.09035 122.58752,146.09845L122.61502,144.59132C122.06429,144.58189 121.55217,144.59094 121.11372,144.55476C120.78456,144.52858 120.49968,144.47751 120.26754,144.39348C120.09233,144.33017 119.9463,144.25085 119.81348,144.14439C119.61621,143.98405 119.43457,143.7572 119.27235,143.36153C119.11163,142.96736 118.98275,142.40608 118.92453,141.63867L117.42173,141.7536zM106.97374,149.25478C107.33511,149.87617 107.70063,150.3945 108.07729,150.82559C108.64085,151.47186 109.23586,151.92368 109.85555,152.20386C110.47411,152.48553 111.1053,152.58803 111.7056,152.5871C112.2113,152.5869 112.69836,152.51813 113.17242,152.42902C113.64645,152.33932 114.10846,152.22873 114.56442,152.13301L114.25447,150.65791C113.77194,150.75946 113.31805,150.8678 112.89279,150.94788C112.46736,151.02834 112.07188,151.08014 111.70541,151.07996C111.41412,151.07996 111.14186,151.04849 110.876,150.97539C110.47787,150.86459 110.08485,150.66451 109.653,150.28183C109.22285,149.89954 108.75993,149.32864 108.27663,148.49698L106.97374,149.25478zM105.07338,153.51898C105.91917,154.58655 106.73463,155.31439 107.5597,155.77827C108.38271,156.24347 109.21475,156.42604 109.99704,156.42378C110.61956,156.4236 111.2095,156.31601 111.77625,156.1747C112.34338,156.03282 112.89035,155.85648 113.43336,155.70027L113.0164,154.25174C112.44456,154.4166 111.91191,154.58731 111.41093,154.71222C110.90974,154.83771 110.44284,154.91666 109.99704,154.91647C109.43499,154.91402 108.9035,154.80153 108.29791,154.46408C107.69442,154.12569 107.01556,153.54385 106.25494,152.58331L105.07338,153.51898zM104.73782,158.59244C105.60378,159.28204 106.40115,159.76532 107.16008,160.07829C107.91808,160.39143 108.63989,160.53011 109.31819,160.52954C110.18076,160.52972 110.95702,160.30946 111.66772,160.01611C112.37994,159.72162 113.03712,159.35571 113.69696,159.02298L113.01696,157.67769C112.32455,158.02834 111.69561,158.37502 111.09344,158.62259C110.48956,158.87111 109.92262,159.02184 109.31837,159.02222C108.84149,159.02147 108.33147,158.9299 107.73455,158.68477C107.13879,158.43945 106.45863,158.03624 105.67706,157.41373L104.73782,158.59244zM106.34669,163.72581C107.65392,164.33157 108.75558,164.6059 109.73534,164.60646C110.30699,164.60703 110.83247,164.51038 111.30672,164.34174C112.01968,164.0887 112.60812,163.68192 113.12946,163.23744C113.65155,162.79166 114.11467,162.30478 114.58572,161.84694L113.53491,160.76637C112.87376,161.41226 112.30043,162.0201 111.71106,162.43573C111.41656,162.64488 111.12075,162.80823 110.80273,162.9211C110.48431,163.03377 110.14137,163.09859 109.73553,163.09895C109.04405,163.09952 108.15435,162.90244 106.9809,162.35811L106.34669,163.72581zM107.8054,167.53236C108.9146,167.97156 109.85442,168.17656 110.69003,168.17731C111.28448,168.17787 111.82373,168.06973 112.29892,167.87547C112.65559,167.73039 112.97456,167.53934 113.26039,167.32228C113.6894,166.99632 114.04533,166.61478 114.37129,166.22345C114.69688,165.83154 114.99345,165.42758 115.29527,165.04227L114.10846,164.11301C113.82414,164.47627 113.56355,164.82785 113.30769,165.14326C112.92407,165.61807 112.5527,166.00412 112.15044,166.26056C111.94883,166.38963 111.73875,166.48892 111.50267,166.55901C111.26659,166.62872 111.00262,166.66962 110.69003,166.6698C110.10709,166.67036 109.34832,166.52284 108.36122,166.13094L107.8054,167.53236zM109.52998,170.63086C110.63897,171.07004 111.57898,171.27504 112.4146,171.2756C113.00887,171.27637 113.54829,171.16803 114.02348,170.97395C114.38014,170.82887 114.69912,170.63782 114.98495,170.42078C115.41399,170.09482 115.76989,169.71327 116.09586,169.32193C116.42143,168.92984 116.718,168.52588 117.01984,168.14056L115.83302,167.2113C115.54869,167.57475 115.28812,167.92615 115.03225,168.24156C114.64864,168.71637 114.27726,169.10242 113.875,169.35886C113.67321,169.48793 113.46313,169.5874 113.22723,169.6575C112.99097,169.7272 112.72717,169.76791 112.4146,169.7681C111.83145,169.76886 111.07272,169.62132 110.08578,169.22942L109.52998,170.63086zM111.00055,174.22864C112.10955,174.66783 113.04937,174.87283 113.88517,174.8734C114.47945,174.87415 115.01888,174.76581 115.49387,174.57175C115.85054,174.42667 116.16972,174.23561 116.45554,174.01855C116.88456,173.6926 117.24049,173.31105 117.56625,172.91971C117.89183,172.52782 118.1884,172.12386 118.49023,171.73854L117.30341,170.80928C117.0191,171.17273 116.75851,171.52412 116.50285,171.83954C116.11903,172.31433 115.74786,172.70021 115.34558,172.95665C115.14381,173.08571 114.93391,173.1852 114.69781,173.25528C114.46154,173.325 114.19775,173.36569 113.88517,173.36589C113.30203,173.36664 112.5433,173.21892 111.556,172.82721L111.00055,174.22864zM110.97643,177.11383C111.63757,177.53381 112.24295,177.83659 112.81274,178.03708C113.38192,178.23737 113.91758,178.33383 114.42216,178.33363C114.89716,178.3342 115.34068,178.24696 115.74182,178.09888C116.34532,177.87598 116.84914,177.52646 117.30246,177.14926C117.75616,176.77054 118.16522,176.36018 118.57729,175.97733L117.55061,174.87376C116.96859,175.41772 116.4593,175.93285 115.96114,176.28217C115.71262,176.45796 115.46957,176.59305 115.22105,176.68443C114.97195,176.77563 114.71703,176.82613 114.42216,176.82651C114.1096,176.82632 113.7482,176.76791 113.31242,176.6151C112.87735,176.4623 112.37051,176.21396 111.78455,175.84166L110.97643,177.11383zM109.88211,179.42664C110.52782,179.97511 111.12245,180.36946 111.69467,180.63229C112.26538,180.89496 112.81932,181.02251 113.345,181.02194C113.75198,181.02232 114.13633,180.94563 114.4866,180.81958C115.01323,180.62947 115.46297,180.33705 115.87616,180.02296C116.28955,179.70793 116.66995,179.36746 117.04905,179.05206L116.08456,177.89407C115.54607,178.34418 115.06918,178.77509 114.6217,179.06714C114.39842,179.21391 114.18513,179.32658 113.97712,179.401C113.76855,179.47562 113.56638,179.51443 113.34518,179.5148C113.0603,179.51425 112.73396,179.4498 112.32323,179.26233C111.91417,179.07504 111.42656,178.76134 110.85829,178.27805L109.88211,179.42664zM120.24098,142.16792C116.05252,144.69305 113.32446,147.0733 111.63683,149.38931C109.94862,151.70399 109.3116,153.96082 109.31348,156.17867C109.31366,157.76643 109.63548,159.33197 110.1118,160.89883C110.82739,163.24893 111.89043,165.60582 112.76957,168.05597C113.64948,170.50632 114.3451,173.04596 114.34491,175.7597C114.34454,177.79515 113.95546,179.93045 112.95176,182.2148L113.46916,182.44221C114.50412,180.08853 114.91035,177.86749 114.90997,175.7597C114.90902,172.01042 113.6325,168.62894 112.37466,165.42702C111.74498,163.82587 111.11906,162.26862 110.65216,160.73434C110.18527,159.19971 109.87817,157.68938 109.87834,156.17867C109.88023,154.06841 110.47035,151.95364 112.09335,149.72205C113.71693,147.49216 116.38432,145.15186 120.53247,142.65196L120.24098,142.16792zM91.27197,138.14168C91.27179,141.41162 90.75195,144.12141 89.89938,146.45097C88.6204,149.94438 86.59005,152.58803 84.40916,154.96356C82.22937,157.33873 79.89868,159.43936 78.04768,161.84882L78.49612,162.19287C80.90312,159.0535 84.22694,156.38007 86.96574,152.82167C88.33421,151.0419 89.55438,149.03828 90.43015,146.64523C91.30627,144.25217 91.83723,141.47134 91.83704,138.14168L91.27197,138.14168z" id="svg_7" style="pointer-events:inherit"/></g><g id="svg_16" display="null" fill-opacity="1" style="pointer-events:inherit" clip-id="329"><path d="M143.23212,140.13367C143.23212,138.59222 142.51511,137.64589 141.10233,137.16936L137.31139,136.22415L136.48587,135.99373L135.77777,135.63577C135.06076,135.2778 134.59319,135.2778 134.35605,135.75546L136.84605,140.96031C138.02057,143.20869 139.56311,144.39331 141.45467,144.39331C141.45467,143.20869 141.21419,142.26349 140.74658,141.54869L138.01945,138.71191C138.49934,138.59337 138.85393,138.71191 139.08322,139.06985L140.26897,140.13477C140.38754,140.01619 140.74773,139.89653 141.2153,139.89653L142.28133,140.13477L141.4558,140.48378C142.04976,142.14493 142.28133,144.15503 142.28133,146.52309L145.00623,151.60828C146.07227,153.38013 147.37431,154.32533 148.9079,154.32533L149.26585,157.28963C149.62157,157.17105 149.97394,156.81311 150.32854,156.33546L150.68761,155.98645L151.03772,154.09602L150.79834,150.42479L149.97394,150.78273L150.09138,149.71782C150.09138,147.7077 149.50412,146.16516 148.43698,145.21996C147.49287,144.15503 145.47382,142.61247 142.27795,140.36407L143.23212,140.13367L143.23212,140.13367zM70.34861,169.58977L69.64166,169.47231L69.04544,170.7766L68.69532,172.42987L67.86083,175.98032C67.86083,178.35063 69.04544,181.30598 69.40339,181.89323C70.46719,183.67296 71.89005,184.97609 73.6619,186.04211C71.77147,185.3251 69.76134,183.55325 67.74226,180.71759C65.73217,177.75443 64.43683,176.21971 63.84062,175.86063C63.13366,175.15254 61.8305,174.67715 59.94006,174.43887L56.02942,173.37511C55.20391,172.90529 54.61552,172.90529 54.25757,173.37511L57.45229,181.42343L58.99371,183.43468L60.28905,184.85753C61.59223,185.80276 62.65601,186.50972 63.60235,186.98624L65.38318,187.10368L68.33961,186.86655L70.82737,186.0399C72.12158,186.86655 73.30619,187.21553 74.48968,187.21553L76.49979,186.86655C75.55457,186.3878 75.08588,185.44366 75.08588,184.01971L75.1955,182.01071L75.1955,180.59566C75.1955,178.58665 74.8465,177.0441 74.13059,175.86063L72.47842,172.78447L70.34861,169.58977L70.34861,169.58977zM81.58495,117.89141L78.74817,118.59836L75.1955,120.13197C72.23906,122.03135 71.77036,123.44637 70.82625,126.87936L70.23003,126.75966L67.39327,129.60428C66.44804,130.8996 65.97155,132.08307 65.97155,133.02942L65.38428,125.69475C61.95131,128.65012 59.58212,131.49583 58.75658,133.97462C58.39974,134.80914 58.16037,135.51607 58.16037,136.22301C58.16037,137.52731 58.75658,138.83049 59.82149,139.8954L60.647,137.52731C61.35397,135.99373 61.71191,134.80914 61.71191,134.09433L62.65714,133.2688L60.40875,140.84175L60.7667,141.08002L62.77682,139.30031L64.66726,137.05972L65.97044,133.03055L66.32724,133.86501L70.11035,130.07408L73.42365,129.71613C74.72681,129.48572 75.91142,129.00919 77.0949,128.30223C78.27947,127.35589 79.10612,126.05271 79.57484,124.51127L81.58495,117.89141L81.58495,117.89141zM99.80583,118.95632L91.64452,118.4798L87.74397,119.18676L84.77966,120.02122L82.30084,121.79309C81.23595,122.50003 80.75831,123.21595 80.75831,123.9229L86.79762,122.26179L90.57961,121.19688C91.40625,121.08613 92.47117,120.96645 94.0126,120.96645L92.23179,121.55482L90.1031,121.91277L87.14664,122.73942C87.02805,123.32671 86.67793,123.68462 85.96204,123.68462L83.95078,123.68462L81.35339,124.62986C80.40705,125.10751 79.93166,125.57619 79.93166,125.93301L82.18005,125.81445L88.33123,126.6411L91.05727,127.35589C91.40739,127.47559 92.12217,127.5863 92.94767,127.5863L82.88811,126.29099L80.16993,126.75966C79.34439,126.87936 78.98531,127.23734 78.98531,127.94427C80.51892,128.18254 82.29974,128.65121 84.07162,129.36713C85.96204,130.19266 87.14664,130.55063 87.97215,130.67027L89.99121,130.78104L91.76309,130.55063L95.07751,129.48572L98.27112,128.06395L98.27112,126.64222L87.74284,123.32892L89.27533,123.21816C89.99121,123.68689 90.69818,123.92516 91.40515,123.92516C92.35036,123.92516 93.65465,123.44862 95.19606,122.62197L98.51049,121.08836L99.68616,120.1342C100.04408,119.78295 100.04408,119.425 99.80583,118.95632L99.80583,118.95632zM126.07616,122.73942C125.01012,121.19798 123.58614,120.13197 121.69684,119.66326L112.81963,118.4798L116.61057,124.3916L118.50212,125.93301C118.9697,126.05161 119.91602,126.17128 121.33665,126.17128L123.46648,126.17128L124.8882,126.17128L124.8882,125.69475L122.16106,124.28085C120.74715,123.56494 119.80416,122.97768 119.32653,122.50003L123.70586,124.3916C125.00679,124.9878 126.07278,125.69475 127.13548,126.52029L126.65894,124.74954L126.19137,123.56494L126.07616,122.73942L126.07616,122.73942zM133.05287,122.97768L126.54371,119.18676L126.54371,120.25165L127.13882,123.9229L128.91069,128.3011C129.26865,129.12662 129.73624,129.95326 130.45325,130.66919L133.17256,132.79901C132.22623,131.96342 130.56512,131.37613 128.32564,130.8996C126.07616,130.43092 124.53473,129.95326 123.82778,129.48457L128.79324,130.19153L128.91069,129.83469C128.55498,128.41968 127.96661,127.58521 127.13882,127.35478C126.19473,126.87824 125.12872,126.63997 123.94637,126.63997L120.39366,126.9968L116.8421,127.23619C118.6218,129.60428 120.51224,131.49583 122.64319,132.79901C124.89157,134.09323 127.25965,134.68942 129.61877,134.68942L131.63,133.97353C132.69379,133.62451 133.29114,133.26657 133.29114,132.79787L135.17934,133.1469L136.72076,132.79787C137.42882,132.79787 138.49487,133.50484 139.79916,134.92769C141.21083,136.34161 142.16609,137.05753 142.63367,137.05753C141.80702,134.09323 140.38419,131.61441 138.49487,129.83359L138.0161,130.3101C137.66599,128.53824 137.07088,126.9957 136.36394,125.81223C135.42204,124.3916 134.35605,123.44637 133.05287,122.97768L133.05287,122.97768zM145.47269,131.61551L143.69971,129.48572C143.46144,129.48572 143.23212,129.71613 142.87419,130.07408L142.7567,131.61551L143.23439,138.12355C143.82275,140.72205 145.12257,142.14378 146.89665,142.38315L146.3094,138.35396L145.47493,134.81024C146.19194,135.6369 146.77698,137.40874 147.13492,140.01509C147.7222,142.73216 148.55666,144.51297 149.73232,145.21996L150.09026,142.02632C150.09026,137.64589 148.55666,134.214 145.47269,131.61551L145.47269,131.61551zM76.02998,134.57086L75.43377,133.86391L74.48854,134.09433C69.16401,134.09433 64.19856,137.40764 61.35286,141.66725C61.12354,142.02522 61.12354,142.4939 61.24211,142.85187L62.06764,143.55881L65.84962,140.60236C67.39214,139.53745 68.69532,138.59222 69.87096,138.00385L70.34861,138.00385L65.73217,141.31714L62.8954,143.55769C62.41774,144.27248 62.18845,144.97943 62.18845,145.80608L62.77572,145.80608L70.58687,142.38205C72.35761,141.42786 73.30396,140.48265 73.54221,139.53745L74.96395,136.70068C75.55347,135.87404 75.91029,135.03954 76.02998,134.57086L76.02998,134.57086zM60.6459,148.17415L60.88416,146.40231C60.88416,144.74117 60.28905,142.9693 59.22415,140.9592L56.02942,136.10336C55.20391,136.69955 54.73521,137.28683 54.61552,137.76447L53.5506,140.36299L53.31236,142.38205L53.31236,144.51187C53.31236,147.93701 54.13899,150.78163 56.86502,152.19553L56.86502,153.38013L56.50707,152.43379L56.15024,152.67317L55.20391,153.4987L55.32248,155.27055C55.32248,156.57484 55.56185,157.52005 56.02942,157.87802L60.6459,148.17415L60.6459,148.17415zM64.31713,150.90129L63.3708,150.18541L59.46129,154.20564C57.68943,155.98645 55.91756,158.11626 55.91756,161.42957L56.02831,162.96317C56.02831,166.39615 58.51608,167.81902 59.22304,168.28659C58.63578,168.52596 58.15813,168.52596 57.68943,168.28659L56.02831,166.1579L53.89962,162.96431C53.07409,161.65999 52.72397,160.48436 52.72397,159.53131L53.78776,161.07272C54.25644,161.89935 54.73409,162.13763 55.0831,162.2562C55.43992,161.65999 55.56074,160.95305 55.56074,160.24609C55.56074,159.18118 54.85265,157.87802 53.31123,156.10614L50.94316,153.38013L50.2362,154.09602L50.2362,155.50993L50.11763,157.9977L50.11763,160.36577L50.3559,163.32114C50.59527,164.14775 50.94316,164.85472 51.4208,165.69032C52.00806,167.22282 52.83471,168.28769 53.89962,168.76648L58.27781,170.18037C59.22415,171.96121 60.6459,173.26547 62.8954,174.67828C65.14378,176.10001 66.56664,177.40318 67.27357,178.6985C67.27357,176.80809 65.38318,175.1548 65.38318,174.20845C67.74226,171.95895 68.45818,168.64565 68.45818,165.21265L68.33961,163.32114L68.22104,160.59509L67.63264,159.06259C67.39438,158.23598 67.03754,157.63977 66.56888,157.52119L63.1359,163.5605C62.07099,165.57062 61.47589,167.34138 61.47589,169.11324L61.71415,171.01375L62.53968,172.54732L63.1359,173.84941C60.40986,172.30908 60.29129,168.76309 60.29129,166.27534C63.48489,161.42847 64.66949,158.23483 64.66949,154.0938L64.31713,150.90129L64.31713,150.90129zM155.05348,151.36887L152.69548,153.97632L150.79834,156.57484C149.84976,157.63977 149.38219,158.82324 149.38219,160.00781L149.49965,162.13763L149.61823,164.26744L149.37996,166.27757L153.63959,156.33659C153.63959,158.82437 152.33755,163.08289 150.56345,165.57062L150.56345,166.27757L153.88008,164.14775L155.4137,160.48436L155.53001,158.70467L155.29062,155.04124L155.05348,151.36887L155.05348,151.36887zM144.40666,152.91144L145.00288,152.91144L147.36983,158.23598C148.31841,160.59509 148.78598,162.72491 148.78598,164.50458C148.78598,165.91852 148.43585,167.34138 147.7222,168.76422L146.53647,170.65578L146.18748,164.74286L145.00064,159.29974L145.24113,163.90839L145.47046,169.47231L145.24113,173.14243L144.40443,176.56647L144.40443,178.46698L145.00064,177.40092L145.70871,174.08876C146.4257,171.48245 147.36871,169.82913 148.55443,169.11324L151.7469,166.51584C152.45499,165.80888 153.40132,165.21265 154.58481,164.85585C153.98859,165.92076 153.75928,166.75523 153.75928,167.3425L153.63846,169.59087L153.63846,173.37401C152.69325,175.27449 151.62946,176.56647 150.32516,177.40431C149.26138,178.22983 147.13158,179.17616 144.40443,180.47823L142.27795,182.36864C141.69183,182.95479 140.98264,183.31499 140.14928,183.31499L140.98264,181.42343C141.80817,180.4771 141.92896,180.00281 142.04643,179.53413L143.23325,176.46021C143.9402,174.67938 144.29704,173.37511 144.29704,172.78784L143.46257,170.53944L142.39877,167.93983C142.28133,167.4633 142.16946,165.92076 142.16946,163.44194L142.16946,160.59622L142.28133,157.52119L142.99724,155.27167L144.40666,152.91144L144.40666,152.91144zM139.44119,169.94771C138.85283,170.06627 138.37743,170.29784 138.25435,170.53386L136.72076,172.19611L135.4187,173.96684L133.17032,176.68391L132.46225,178.93344C132.3448,179.41219 132.22398,180.11916 132.22398,180.94577L131.86603,184.73672L131.98349,186.86655C131.98349,187.93034 131.5159,188.75475 130.56174,189.23238L126.90169,191.00426C127.25629,191.24249 127.84689,191.47182 128.67133,191.59264C129.02817,191.35995 129.73511,191.12283 130.80113,191.00426L132.93094,190.76599C134.71063,190.76599 136.00374,191.12283 136.95119,191.82979L138.13579,191.94836C139.55753,191.82979 140.74211,191.4707 141.68959,191.12283L145.59013,188.87331C146.65393,188.04779 147.49065,187.2133 148.19421,186.2681L149.84865,184.37541L150.32629,183.66847L150.08916,183.07559L148.6674,182.95479L147.01411,182.84406L144.05655,183.07559L141.32939,183.79039C139.32037,184.61594 137.90422,185.56224 136.84158,186.86655L134.94106,188.27934C134.35493,188.63618 133.7576,188.75696 133.28777,188.75696C138.37515,186.39113 140.62466,181.54312 140.62466,178.93677L139.91661,175.15254C139.44119,172.66589 139.32263,171.0126 139.44119,169.94771L139.44119,169.94771zM131.16132,177.98935C130.33469,177.7522 129.61877,177.873 129.1512,178.34839L127.25965,179.7612C125.47995,180.71646 124.17677,181.78139 123.35125,183.07672C122.28748,184.85753 122.04696,185.44366 121.57938,187.4538C121.22144,189.34534 120.87133,189.11606 120.39366,189.94383L120.1554,190.41139L121.33888,190.76936C122.76174,189.82076 123.82778,188.87776 124.53473,187.93144L127.96661,182.72772C127.01913,186.04211 125.95422,187.81403 123.00112,190.53107L123.94637,190.88904L126.90392,190.06351C128.43753,189.46841 129.50131,188.28156 129.85928,186.50972C130.68703,184.14275 130.68703,183.91234 130.80672,181.89323L131.16132,177.98935L131.16132,177.98935zM89.0382,186.27036C87.97327,184.61594 85.96314,183.19528 83.12637,182.00958C80.28961,180.71422 78.50991,179.75896 77.68326,179.17392L77.44501,179.41219C77.21458,179.7612 77.21458,180.11916 77.44501,180.47597L78.27947,181.89102L80.52005,188.27934C81.11626,189.58362 81.9418,190.52887 83.0078,191.36218L84.77966,192.31189C85.13763,192.31189 85.73495,192.07138 86.3211,191.59485L87.50571,190.76936L84.3121,187.81175L81.94402,184.25906L82.30197,184.61594L85.8457,188.63618C87.14886,189.94044 88.45204,190.64738 89.63664,190.64738L90.82123,190.40802L90.82123,189.58362L89.0382,186.27036L89.0382,186.27036zM79.93166,188.87555L77.92154,187.81175L76.49868,187.69319L72.59811,188.16972L68.21992,189.70331L68.33848,190.41139L74.13059,194.56027L76.49868,195.02785L78.74817,195.26834L81.9418,194.7896C83.24495,194.20233 83.9519,193.72467 84.30986,193.13631L83.83221,192.77945C81.9418,192.77945 79.93166,192.54121 77.92154,192.07138L72.11935,190.18205L76.49755,191.00761C78.74707,191.47517 79.22359,191.47517 80.05022,191.47517L82.29974,191.59485L80.99546,190.29953L79.93166,188.87555L79.93166,188.87555zM131.40071,192.65868L125.95759,191.83202C123.4687,191.24583 121.69684,191.00761 120.39366,191.00761L118.6218,191.12506C117.08037,191.95056 116.13404,193.13631 115.77608,194.66989L115.30851,193.72243L114.24361,194.20007L112.94156,194.31865C112.46392,194.66879 112.23347,195.50438 112.23347,196.56816L114.7123,196.68448C115.42934,196.32878 116.13404,196.0905 116.96293,196.0905L120.1554,197.15433L122.52236,197.98097L124.41168,198.09729C126.30437,198.09729 127.96661,197.86125 129.26865,197.39146C130.80226,196.68338 131.86603,195.96971 132.22623,195.38135C133.29114,194.31531 133.52827,194.66541 134.9433,193.48976C134.47574,193.01324 133.99808,192.77499 133.40973,192.77499L131.40071,192.65868L131.40071,192.65868zM98.85949,193.37566C96.49254,193.37566 92.23179,191.24583 90.6993,191.24583C89.15677,191.24583 87.86253,191.59599 86.79762,192.43044L84.54812,194.31978C83.24495,195.62405 82.29974,195.26834 81.8221,196.09389C83.24384,197.03911 85.01569,197.51561 87.14664,197.51561L89.87266,197.39705L92.70943,197.04132L95.66589,195.97643C96.49254,195.39029 97.3259,195.03006 98.15366,195.03006L97.67602,195.38916L97.55745,196.09499L99.33826,196.57265C100.40205,196.80193 100.99155,196.80193 101.22868,196.57265L101.58666,195.62518C101.46584,194.55693 99.9244,194.31865 98.85949,193.37566L98.85949,193.37566zM108.91906,192.77835L108.09241,191.83092L107.13937,191.7123L106.31273,192.65977C106.90784,193.25597 107.25907,193.96295 107.25907,194.78847L106.67291,197.15654C106.31496,197.98207 106.07782,198.69913 106.07782,199.40494L106.55323,200.82668L109.39,199.40494C110.4549,198.81769 110.93256,198.34003 110.93256,197.86462L111.51868,196.33102L111.87553,194.90816L111.51868,194.08376L110.69428,193.01996C110.33633,192.66202 109.86877,192.54121 109.50855,192.77945L109.62601,193.8455L109.98397,194.4406L109.98397,195.14757C109.98397,196.33324 109.62601,197.03798 108.91906,197.27625L109.26919,194.4406C109.27032,193.84323 109.15845,193.25487 108.91906,192.77835L108.91906,192.77835zM106.31273,194.78847L105.84293,193.37231C105.60578,193.01659 105.12701,192.89357 104.42118,193.13403C102.17278,194.90482 101.46584,196.44734 101.46584,198.21809L101.70522,199.64095L102.53073,200.58618C102.64929,200.70586 102.99943,200.82555 103.47709,200.82555L103.59341,199.76062L104.06322,198.81429L104.18067,200.4687L105.36749,200.94635L105.00955,199.64317L105.60578,197.39259L106.31273,194.78847L106.31273,194.78847zM143.23212,198.81657C142.39766,197.98318 141.69072,197.63307 141.21083,197.63307L138.73312,197.27512L137.90761,197.75276L137.31139,198.3389C137.90761,198.57941 138.25661,198.92618 138.4982,199.40494L139.32263,200.35014L140.03853,200.70923L141.21419,200.23045C142.04866,200.58618 142.51846,201.056 142.7567,201.77301L143.46368,203.18803L144.40891,202.71822C143.94131,204.13998 143.1158,204.84691 141.93008,204.84691L139.68169,204.60866C138.61678,204.36928 137.79126,204.36928 137.19394,204.48895C136.24759,204.84691 134.59653,205.55499 133.65019,206.15118C132.81349,206.73624 132.34592,207.56509 132.34592,208.3996L133.65019,209.10655L135.88963,209.69492C136.72412,208.86827 138.25661,208.51033 140.50612,208.51033C143.11467,208.16022 144.40666,207.80228 144.52634,207.33246L145.24562,205.08408L145.47493,203.78203L145.1248,202.35918C144.17847,201.89046 144.06102,200.58618 143.4648,199.28415C143.46144,199.16443 143.34399,199.04698 143.23212,198.81657L143.23212,198.81657zM101.10899,198.46194L100.75105,197.39595L91.88278,198.58162C87.38489,199.2886 84.42954,199.64543 83.00668,199.64543L78.1598,199.1678L80.51892,200.94861L84.07162,202.36363L86.43967,201.53922L89.63328,200.71367L94.59875,199.99445L97.08651,199.52682L98.97695,199.40939C100.16267,199.04698 100.86964,198.69797 101.10899,198.46194L101.10899,198.46194zM132.22623,200.4687L131.16132,200.4687L129.03151,200.58618L125.01012,200.34792L120.51224,199.76062L111.8733,198.10063L111.39564,198.57941L111.16522,199.16443L120.03572,201.41391L125.0079,202.83679L128.08295,203.78313L130.68146,202.12199C131.51927,201.41391 132.10988,200.82779 132.22623,200.4687L132.22623,200.4687zM72.12048,198.92952L70.93587,198.81657C69.40339,198.81657 67.97941,199.40494 66.44694,200.46983L65.38205,202.01239L65.38205,203.19029C65.61136,203.78648 65.96931,204.37376 66.44694,204.73172L68.69532,205.91518L70.22892,205.91518C71.77036,205.67694 72.59699,205.31897 72.71669,204.96996L71.17413,203.42741C70.46719,202.95984 69.87096,202.72044 69.52197,202.72044C69.2837,201.89494 69.40339,201.29759 69.87096,200.83L72.12048,198.92952L72.12048,198.92952zM75.79173,200.94635C75.31407,199.88258 74.60712,199.28636 73.7816,199.28636C72.47842,199.28636 71.53208,199.76399 70.93587,200.82779L72.95496,201.89272C73.7816,201.77415 74.25029,202.00903 74.48854,202.3614L75.1955,202.95761L75.79173,203.18803C76.02998,202.83792 76.02998,202.12199 75.79173,200.94635L75.79173,200.94635zM139.08212,201.89272C138.4982,200.35014 138.01833,199.64317 137.55077,199.64317C137.55077,200.4687 137.31139,201.17679 136.72412,201.65443C136.24759,201.77301 135.77777,201.65443 135.30237,201.17679L134.47574,200.23045L133.65019,201.17679L133.29225,202.24057C133.40973,203.07506 133.65019,203.54265 134.11778,203.78313L136.24759,204.25072L137.31139,203.9017C138.4982,203.30772 139.08212,202.59964 139.08212,201.89272L139.08212,201.89272zM100.75105,199.64317C98.86062,200.58841 97.67602,202.00903 97.20731,203.78313C97.44672,204.48895 97.91428,205.08521 98.51163,205.67247L99.92551,206.85704L100.28348,207.21387L100.75105,207.92307L100.99044,208.86827L100.52174,209.93098C100.28348,208.62891 99.80583,207.6848 99.21856,207.09756L82.06149,202.71822L79.34439,203.07506C77.68326,204.13884 76.61837,205.55499 76.15079,207.09756C76.73806,207.6848 77.09601,207.8045 77.44501,207.92307C77.80184,207.56509 78.16092,207.33469 78.6296,207.33469L80.17103,207.44656C80.75831,207.33469 81.23595,207.09756 81.47421,206.61989L82.53911,206.61989C84.77966,207.09979 86.67905,207.68593 89.63551,208.98799C92.71053,210.29225 95.31689,210.87952 97.55745,210.87952L99.80693,210.64012L100.40205,209.69492L100.64143,210.29004L102.05647,209.10431C102.41329,208.51033 102.65155,207.6826 102.65155,206.73624L101.70634,204.96663L100.87074,204.13998C100.87074,202.59853 101.11011,201.41281 101.70634,200.82668C101.11011,200.94524 100.64143,201.29425 100.16379,202.01016L99.21856,203.18916L100.75105,199.64317L100.75105,199.64317zM136.60332,200.23158L135.65919,199.88258L135.53952,200.58841L136.12677,201.17679L136.48474,200.94635L136.60332,200.23158zM110.22224,206.73848C109.86652,206.15231 109.62601,205.08521 109.38775,203.54601C109.15845,202.01239 108.67969,201.17903 107.97162,200.82779L107.97162,203.78648L106.90784,201.4162L106.6718,202.83792L107.13937,204.85031C107.49622,205.43642 107.85527,205.79549 108.20316,206.15231C109.27032,206.73848 109.98397,206.97897 110.22224,206.73848L110.22224,206.73848zM75.1955,203.78313L74.13059,202.5974C73.7816,202.24057 73.42365,202.11978 72.95496,202.35918C72.71669,203.18584 72.83639,203.9017 73.42365,204.36928C74.36997,204.25072 74.96508,204.02139 75.1955,203.78313L75.1955,203.78313zM125.47995,205.91406L121.81765,204.1422C121.10061,203.78648 120.27509,203.54601 119.32988,203.54601C118.26385,203.54601 117.08037,203.78648 116.01659,204.37151L111.87553,207.33469L110.81284,207.44656C109.27032,207.44656 107.85527,206.85817 106.67291,205.67468L106.91116,207.09756L108.3262,208.86827C108.92131,209.46339 109.62826,209.93098 110.33633,210.17145L111.87776,210.40973L114.71453,209.93098L117.90701,207.92307L119.44958,207.92307L120.75383,207.92307L122.16665,208.16135C122.52573,208.51146 122.88479,208.74747 123.35236,208.74747L124.53921,208.39847L125.60298,208.04056L123.94858,209.46225L124.2987,210.87729C124.8949,210.75871 125.24503,210.52718 125.48443,210.17033L126.54821,208.62781L125.48443,207.91972L126.08063,207.44208L125.47995,205.91406L125.47995,205.91406zM72.71669,205.91406L71.05669,206.50133C70.23003,206.85704 69.87096,207.33469 70.11035,208.04277L71.17413,207.92416L72.12048,207.21614C72.71669,206.85704 72.95496,206.38388 72.71669,205.91406L72.71669,205.91406zM69.64166,208.62891L69.28482,206.38052L67.0353,208.27879C66.67736,208.74747 66.44804,209.34367 66.44804,210.17033C67.155,211.35382 67.74226,212.05853 68.10023,212.41985L70.82737,213.83487L73.78383,214.07314L76.97742,214.3114C78.74931,214.3114 80.17103,213.95456 81.23706,213.24763L82.65097,211.59322C83.00892,211.11554 83.00892,210.63791 82.77065,210.17145L81.70576,208.74971L80.75944,208.04277L79.34552,210.17145C77.68439,210.87952 75.91252,211.23526 73.9024,211.23526C71.17413,210.64012 70.11035,209.69606 69.64166,208.62891L69.64166,208.62891zM79.34439,209.22845L79.69341,208.16248L79.34439,207.92416L78.04123,208.40297L76.49868,208.63226L77.32533,209.69606L78.27947,209.93431C78.74817,209.93098 79.10612,209.69606 79.34439,209.22845L79.34439,209.22845zM134.71399,210.87952C134.71399,210.05399 134.23634,209.57635 133.17256,209.57635L131.98683,209.10655L132.3448,210.29225L133.29114,211.47684L134.71399,210.87952L134.71399,210.87952zM124.89157,211.59546L123.70921,210.87952L123.11298,209.46339C122.64319,209.34596 122.16443,209.57635 121.69684,210.17145L120.98206,211.59322C121.21809,212.76883 121.57826,213.72302 122.16443,214.42888C124.29424,215.73203 126.66232,216.44012 129.27199,216.44012C130.92529,216.44012 132.58418,216.08328 134.11778,215.25439L135.30461,214.54852C135.66031,214.1906 135.88963,213.24425 136.13014,211.70395L135.88963,210.87729L135.30461,210.17033C134.71623,211.47238 134.2386,212.05853 133.76207,212.05853L131.40292,212.17709L129.03372,212.17709L127.26187,212.05853L124.89157,211.59546L124.89157,211.59546zM56.26768,140.84061C56.62453,141.42899 56.9836,142.38205 57.21291,143.91678L57.92994,148.17528L56.50595,143.67624C56.38626,143.32727 56.26768,142.38205 56.26768,140.84061L56.26768,140.84061zM70.93587,174.7935L73.42365,182.95479L70.93587,174.7935zM137.90761,175.39307L136.36505,181.78139C135.65697,184.14053 134.71176,185.80276 133.40746,186.74571C134.47348,185.32399 135.4187,183.31499 136.12677,180.59566L137.90761,175.39307L137.90761,175.39307zM57.80913,176.45686L63.01398,180.4771L68.2188,184.26134C64.43683,182.84517 62.18845,181.54312 57.80913,176.45686L57.80913,176.45686zM134.47574,129.83469L135.88963,130.78104L135.06187,130.31235L134.47574,129.83469zM130.09753,124.9878L133.17256,128.54051L130.09753,124.9878zM136.48587,189.46504L146.53647,185.2043L136.48587,189.46504zM149.96945,152.67317L150.32629,151.72684L149.96945,152.67317zM123.82667,129.24745L123.35013,129.00804L123.82667,129.24745zM62.30701,154.80296C61.82937,157.28963 59.22304,161.19133 58.75435,163.44081C58.99261,161.89935 59.57987,160.24609 60.40763,158.58498L62.30701,154.80296L62.30701,154.80296zM66.08901,162.84349L64.54646,171.95786L64.90552,167.22168L66.08901,162.84349zM151.97958,168.76422L149.02425,174.3259L147.84077,175.97809L146.53647,177.39981L148.78598,173.61L150.56679,170.65468L151.97958,168.76422zM86.44078,195.62183C89.27644,194.31978 89.63441,194.20007 92.94767,194.20007L94.71955,194.31865L90.6993,195.0256C89.27644,195.38579 87.86253,195.62183 86.44078,195.62183L86.44078,195.62183zM118.6218,194.78847L120.39366,194.66989L123.23043,194.78847L126.07616,194.90482L127.72945,194.78847L130.21611,194.31865C129.03151,195.0256 127.61198,195.38469 125.95759,195.38469L122.76397,195.14308L118.6218,194.78847L118.6218,194.78847zM78.1598,121.55482L76.9752,124.62986C76.37898,125.69475 75.67204,126.41068 75.08475,126.75966L78.1598,121.55482L78.1598,121.55482z" id="svg_17" fill="#ff0000" style="pointer-events:inherit"/></g></g><defs><mask id="canvasMaskImageDef" maskUnits="objectBoundingBox" x="0" y="0"><image xmlns:xlink="http://www.w3.org/1999/xlink" id="canvasMaskImage" preserveAspectRatio="none" x="-103.65" y="-36.45" width="400" height="440.0580551523948" xlink:href="http://allinonedesigner.designnbuy.in/media/catalog/product/w/h/white-tees-1_-front_1_3.png"/></mask></defs></svg>