<?xml version="1.0" encoding="utf-8"?>
<!-- Generator: Adobe Illustrator 16.0.0, SVG Export Plug-In . SVG Version: 6.00 Build 0)  -->
<!DOCTYPE svg PUBLIC "-//W3C//DTD SVG 1.1//EN" "http://www.w3.org/Graphics/SVG/1.1/DTD/svg11.dtd">
<svg version="1.1"
	 id="svg378" xmlns:cc="http://creativecommons.org/ns#" xmlns:dc="http://purl.org/dc/elements/1.1/" xmlns:rdf="http://www.w3.org/1999/02/22-rdf-syntax-ns#"
	 xmlns="http://www.w3.org/2000/svg" xmlns:xlink="http://www.w3.org/1999/xlink" x="0px" y="0px" width="143.447px"
	 height="71.281px" viewBox="0 0 143.447 71.281" enable-background="new 0 0 143.447 71.281" xml:space="preserve">
<rect id="rect171" x="0" fill="#EB0013" width="143.733" height="72.316"/>
<path id="path401" fill="#0B5035" d="M76.643,43.635L58.719,56.172l4.618-14.145l2.398,1.738l-1.72,5.166l11.69-8.425L76.643,43.635
	L76.643,43.635z M78.482,35.451l6.257,21.027l-11.749-8.77l2.417-1.713l4.182,3.139L75.22,35.333L78.482,35.451L78.482,35.451z
	 M71.065,31.275L93.09,31.3l-12.003,8.657l-0.96-2.803l4.462-2.987l-14.56,0.207L71.065,31.275L71.065,31.275z M64.838,36.895
	l6.976-21.06l4.8,14.479l-2.964,0.038l-1.768-5.546l-4.425,14.039L64.838,36.895L64.838,36.895z M68.411,44.465l-17.768-13.04
	l14.999-0.116l-0.875,2.83L59.2,34.117l11.873,8.456L68.411,44.465L68.411,44.465z"/>
</svg>
