<svg version="1.1"
	 id="Layer_1" xmlns="http://www.w3.org/2000/svg" xmlns:xlink="http://www.w3.org/1999/xlink" x="0px" y="0px" width="272.865px"
	 height="259.548px" viewBox="0 0 272.865 259.548" enable-background="new 0 0 272.865 259.548" xml:space="preserve">
<path d="M3.9,116.771c0,0-5.316-55.828,56.714-96.146c1.329-4.431,20.382-19.053,33.23-13.292
	c8.418-3.102,41.649-9.929,66.021-6.293s51.397,17.371,62.03,26.232c6.203,0.886,25.697,15.064,26.584,22.597
	c7.977,10.633,24.813,27.026,24.376,73.993c-0.438,46.966-19.495,75.324-26.142,83.739s-20.824,27.914-42.092,37.218
	c0,4.432-7.09,7.976-10.635,8.862c-3.544,0.886-12.404,6.203-17.723,0c-7.976,1.329-46.523,13.292-91.716-1.329
	c-45.193-14.622-66.021-49.18-76.654-93.042c-2.215-2.658-7.089-5.762-7.532-18.167c-0.443-12.406-1.332-23.04,3.542-24.371
	L3.9,116.771z"/>
<path fill="#CECECE" d="M9.506,117.324c0,0-5.092-53.467,54.315-92.08c1.273-4.243,19.52-18.246,31.825-12.73
	c8.062-2.971,39.887-9.509,63.228-6.027c23.339,3.481,49.224,16.636,59.409,25.122c5.94,0.849,24.611,14.427,25.459,21.641
	c7.639,10.184,23.763,25.884,23.339,70.865c-0.424,44.98-18.671,72.138-25.036,80.203c-6.365,8.063-19.943,26.733-40.312,35.644
	c0,4.243-6.789,7.638-10.185,8.487c-3.395,0.849-11.88,5.939-16.973,0c-7.639,1.272-44.556,12.73-87.84-1.273
	c-43.275-14.008-63.216-47.106-73.405-89.114c-2.122-2.545-6.79-5.517-7.214-17.397c-0.422-11.877-1.27-22.061,3.397-23.334
	L9.506,117.324z"/>
<path fill="#FF0000" d="M93.801,23.726c1.224,0,2.215,0.992,2.215,2.215c0,1.223-0.992,2.215-2.215,2.215
	c-1.223,0-2.215-0.992-2.215-2.215C91.585,24.718,92.578,23.726,93.801,23.726z M89.857,46.764c0,1.224,0.992,2.215,2.215,2.215
	c1.224,0,2.215-0.992,2.215-2.215s-0.992-2.215-2.215-2.215C90.85,44.548,89.857,45.54,89.857,46.764z M85.915,68.3
	c0,1.346,1.091,2.437,2.437,2.437c1.346,0,2.437-1.091,2.437-2.437c0-1.346-1.091-2.437-2.437-2.437
	C87.006,65.863,85.915,66.955,85.915,68.3z M73.949,89.301c0,1.468,1.19,2.658,2.658,2.658c1.468,0,2.658-1.19,2.658-2.658
	s-1.19-2.658-2.658-2.658C75.139,86.643,73.949,87.833,73.949,89.301z M56.318,106.403c0,1.468,1.19,2.658,2.658,2.658
	c1.468,0,2.658-1.19,2.658-2.658c0-1.468-1.19-2.658-2.658-2.658C57.508,103.745,56.318,104.935,56.318,106.403z M39.077,123.775
	c0,1.468,1.19,2.658,2.659,2.658c1.468,0,2.658-1.19,2.658-2.658s-1.19-2.658-2.658-2.658
	C40.267,121.117,39.077,122.307,39.077,123.775z M26.419,136.689c0,1.223,0.992,2.215,2.215,2.215c1.224,0,2.215-0.992,2.215-2.215
	c0-1.224-0.992-2.215-2.215-2.215C27.411,134.474,26.419,135.465,26.419,136.689z M20.007,99.715c0,1.591,1.29,2.88,2.88,2.88
	c1.591,0,2.88-1.289,2.88-2.88c0-1.59-1.289-2.88-2.88-2.88C21.297,96.835,20.007,98.125,20.007,99.715z M31.992,86.732
	c0,1.468,1.19,2.658,2.658,2.658s2.658-1.19,2.658-2.658s-1.19-2.658-2.658-2.658S31.992,85.264,31.992,86.732z M44.664,73.795
	c0,1.224,0.992,2.215,2.215,2.215s2.215-0.992,2.215-2.215s-0.992-2.215-2.215-2.215S44.664,72.572,44.664,73.795z M55.164,61.365
	c0,1.285,1.042,2.327,2.326,2.327c1.285,0,2.327-1.042,2.327-2.327c0-1.285-1.042-2.327-2.327-2.327
	C56.205,59.039,55.164,60.081,55.164,61.365z M58.399,46.988c0,1.346,1.091,2.437,2.437,2.437c1.346,0,2.437-1.091,2.437-2.437
	c0-1.346-1.091-2.437-2.437-2.437C59.491,44.551,58.399,45.643,58.399,46.988z M60.479,31.745c0,1.346,1.091,2.437,2.438,2.437
	c1.346,0,2.437-1.091,2.437-2.437c0-1.346-1.091-2.437-2.437-2.437C61.57,29.308,60.479,30.399,60.479,31.745z M9.218,110.124
	c0,1.224,0.992,2.215,2.215,2.215c1.223,0,2.215-0.992,2.215-2.215c0-1.223-0.992-2.215-2.215-2.215
	C10.209,107.908,9.218,108.9,9.218,110.124z M196.193,39.677c0,1.713,1.389,3.102,3.102,3.102s3.102-1.389,3.102-3.102
	c0-1.713-1.389-3.102-3.102-3.102S196.193,37.963,196.193,39.677z M177.143,56.734c0,1.59,1.289,2.88,2.88,2.88s2.88-1.29,2.88-2.88
	c0-1.591-1.289-2.88-2.88-2.88S177.143,55.144,177.143,56.734z M159.418,69.141c0,1.346,1.092,2.437,2.438,2.437
	s2.438-1.091,2.438-2.437c0-1.346-1.092-2.437-2.438-2.437S159.418,67.795,159.418,69.141z M148.787,92.072
	c0,1.53,1.24,2.77,2.77,2.77s2.77-1.24,2.77-2.77c0-1.529-1.24-2.77-2.77-2.77S148.787,90.542,148.787,92.072z M145.684,117.934
	c0,1.621,1.314,2.936,2.936,2.936s2.936-1.314,2.936-2.936s-1.314-2.935-2.936-2.935S145.684,116.313,145.684,117.934z
	 M153.175,145.484c0,1.591,1.29,2.881,2.88,2.881c1.591,0,2.881-1.29,2.881-2.881c0-1.59-1.29-2.879-2.881-2.879
	C154.465,142.605,153.175,143.894,153.175,145.484z M161.859,164.515c0,1.652,1.34,2.99,2.991,2.99s2.991-1.338,2.991-2.99
	c0-1.651-1.34-2.99-2.991-2.99S161.859,162.864,161.859,164.515z M169.61,181.461c0,1.468,1.19,2.659,2.659,2.659
	s2.658-1.191,2.658-2.659c0-1.469-1.189-2.659-2.658-2.659S169.61,179.993,169.61,181.461z M177.143,201.177
	c0,1.592,1.289,2.881,2.88,2.881s2.88-1.289,2.88-2.881c0-1.59-1.289-2.879-2.88-2.879S177.143,199.587,177.143,201.177z
	 M180.022,216.24c0,1.591,1.29,2.881,2.88,2.881c1.591,0,2.88-1.29,2.88-2.881c0-1.59-1.289-2.879-2.88-2.879
	C181.313,213.361,180.022,214.65,180.022,216.24z M173.777,229.909c0,1.407,1.141,2.548,2.547,2.548
	c1.407,0,2.548-1.141,2.548-2.548s-1.141-2.548-2.548-2.548C174.918,227.361,173.777,228.502,173.777,229.909z M221.892,59.614
	c0,1.59,1.29,2.88,2.88,2.88c1.591,0,2.881-1.29,2.881-2.88s-1.29-2.88-2.881-2.88C223.182,56.734,221.892,58.024,221.892,59.614z
	 M206.83,69.141c0,1.346,1.09,2.437,2.436,2.437s2.437-1.091,2.437-2.437s-1.091-2.437-2.437-2.437S206.83,67.795,206.83,69.141z
	 M196.193,84.428c0,1.468,1.19,2.658,2.658,2.658c1.469,0,2.658-1.19,2.658-2.658c0-1.468-1.189-2.658-2.658-2.658
	C197.384,81.77,196.193,82.96,196.193,84.428z M189.109,102.595c0,1.468,1.189,2.658,2.658,2.658c1.467,0,2.658-1.19,2.658-2.658
	c0-1.468-1.191-2.658-2.658-2.658C190.299,99.937,189.109,101.127,189.109,102.595z M189.109,120.319
	c0,1.468,1.189,2.658,2.658,2.658c1.467,0,2.658-1.19,2.658-2.658s-1.191-2.658-2.658-2.658
	C190.299,117.661,189.109,118.851,189.109,120.319z M191.989,137.599c0,1.957,1.587,3.545,3.545,3.545s3.544-1.588,3.544-3.545
	c0-1.958-1.586-3.545-3.544-3.545S191.989,135.641,191.989,137.599z M194.426,154.878c0,1.958,1.587,3.545,3.545,3.545
	c1.957,0,3.545-1.587,3.545-3.545c0-1.957-1.588-3.545-3.545-3.545C196.013,151.333,194.426,152.921,194.426,154.878z
	 M206.828,170.494c0,1.652,1.339,2.992,2.99,2.992c1.652,0,2.992-1.34,2.992-2.992c0-1.651-1.34-2.99-2.992-2.99
	C208.167,167.503,206.828,168.842,206.828,170.494z M212.813,189.767c0,1.652,1.34,2.99,2.991,2.99s2.99-1.338,2.99-2.99
	c0-1.651-1.339-2.99-2.99-2.99S212.813,188.116,212.813,189.767z M212.813,211.92c0,1.651,1.34,2.99,2.991,2.99
	s2.99-1.339,2.99-2.99s-1.339-2.991-2.99-2.991S212.813,210.269,212.813,211.92z M207.405,227.749c0,1.192,0.968,2.16,2.16,2.16
	s2.16-0.968,2.16-2.16s-0.968-2.16-2.16-2.16S207.405,226.557,207.405,227.749z M58.008,49.817c3.278,3.275,6.321,5.629,9.309,7.208
	c2.977,1.578,5.945,2.353,8.774,2.347c1.994,0.002,3.883-0.377,5.61-0.989c2.597-0.921,4.838-2.327,6.919-3.831
	c2.079-1.51,4.01-3.138,5.925-4.64l-4.942-6.291c-2.728,2.15-5.157,4.22-7.393,5.622c-1.115,0.705-2.171,1.244-3.173,1.597
	c-1.005,0.353-1.949,0.531-2.945,0.532c-1.405-0.005-2.988-0.347-5.042-1.423c-2.043-1.075-4.51-2.913-7.385-5.79L58.008,49.817z
	 M60.902,35.183c3.153,2.16,6.032,3.729,8.755,4.78c2.719,1.049,5.299,1.573,7.748,1.573c2.355,0.004,4.561-0.498,6.504-1.343
	c2.928-1.272,5.246-3.223,7.286-5.281c2.039-2.068,3.834-4.284,5.641-6.338l-6.013-5.277c-2.568,2.941-4.796,5.705-6.952,7.519
	c-1.074,0.913-2.106,1.59-3.137,2.035c-1.036,0.443-2.068,0.681-3.33,0.686c-1.306,0-2.888-0.274-4.872-1.038
	c-1.98-0.762-4.344-2.018-7.108-3.914L60.902,35.183z M66.371,27.027c2.771,0.53,5.272,0.782,7.564,0.783
	c2.748,0.001,5.199-0.368,7.389-1.046c3.291-1.013,5.93-2.721,8.132-4.595c2.209-1.879,4.034-3.912,5.887-5.802l-5.007-4.893
	c-2.626,2.704-4.78,5.098-7.165,6.7c-1.195,0.808-2.442,1.444-3.916,1.902c-1.474,0.455-3.188,0.732-5.32,0.733
	c-1.776,0-3.838-0.197-6.249-0.658L66.371,27.027z M54.344,63.384c2.978,4.912,5.945,8.38,9.162,10.706
	c1.605,1.158,3.276,2.015,4.972,2.566c1.695,0.554,3.406,0.796,5.054,0.795c3.127-0.005,5.983-0.83,8.642-1.853
	c2.663-1.032,5.171-2.286,7.625-3.393l-3.296-7.289c-2.626,1.19-5.033,2.381-7.213,3.22c-2.183,0.848-4.097,1.32-5.759,1.315
	c-0.886-0.001-1.714-0.122-2.577-0.401c-1.287-0.422-2.699-1.216-4.343-2.754c-1.636-1.534-3.466-3.816-5.423-7.053L54.344,63.384z
	 M44.525,76.356c1.097,3.392,2.319,6.231,3.707,8.623c1.041,1.792,2.177,3.334,3.424,4.638c1.864,1.957,4,3.356,6.224,4.196
	c2.225,0.846,4.49,1.142,6.662,1.141c2.201-0.001,4.329-0.293,6.402-0.663c2.072-0.372,4.095-0.826,6.065-1.21l-1.534-7.852
	c-2.112,0.414-4.103,0.859-5.941,1.187c-1.838,0.331-3.519,0.54-4.992,0.538c-1.299,0-2.426-0.155-3.441-0.485
	c-0.764-0.25-1.475-0.597-2.198-1.106c-1.079-0.764-2.207-1.917-3.366-3.761c-1.156-1.838-2.318-4.358-3.398-7.705L44.525,76.356z
	 M30.594,87.368c0.578,5.557,1.731,9.872,3.555,13.305c1.362,2.567,3.144,4.615,5.192,6.083c1.532,1.104,3.186,1.879,4.849,2.411
	c2.501,0.797,5.016,1.075,7.476,1.2c2.461,0.12,4.885,0.081,7.222,0.121l0.133-7.999c-2.967-0.046-5.725,0.006-8.1-0.184
	c-1.783-0.138-3.335-0.411-4.619-0.867c-0.967-0.343-1.787-0.777-2.538-1.362c-1.116-0.881-2.147-2.127-3.084-4.265
	c-0.929-2.13-1.704-5.146-2.127-9.264L30.594,87.368z M18.929,99.138c-0.375,2.57-0.559,4.906-0.559,7.052
	c-0.001,4.076,0.669,7.508,2.038,10.382c1.02,2.151,2.437,3.942,4.055,5.34c2.437,2.107,5.229,3.348,7.993,4.284
	c2.774,0.931,5.575,1.57,8.234,2.292l2.09-7.722c-2.532-0.684-4.925-1.25-7.005-1.903c-1.561-0.488-2.939-1.024-4.081-1.643
	c-0.858-0.464-1.583-0.969-2.199-1.539c-0.919-0.86-1.63-1.849-2.193-3.321c-0.556-1.469-0.933-3.459-0.933-6.171
	c0-1.686,0.146-3.645,0.475-5.897L18.929,99.138z M7.14,110.08c-0.643,3.256-0.957,6.147-0.958,8.762
	c-0.002,3.743,0.658,6.96,1.983,9.667c0.987,2.026,2.341,3.721,3.871,5.069c2.304,2.031,4.933,3.309,7.551,4.322
	c2.627,1.01,5.286,1.764,7.809,2.588l2.477-7.607c-2.404-0.781-4.683-1.445-6.675-2.17c-1.494-0.542-2.822-1.118-3.929-1.758
	c-0.832-0.479-1.539-0.991-2.135-1.551c-0.893-0.847-1.564-1.782-2.086-3.104c-0.515-1.321-0.864-3.069-0.865-5.455
	c0-1.967,0.241-4.355,0.807-7.211L7.14,110.08z M177.365,58.602c1.257,3.053,2.585,5.624,4.02,7.796
	c2.146,3.251,4.579,5.634,7.299,7.157c1.354,0.76,2.764,1.296,4.172,1.63c1.409,0.335,2.813,0.472,4.181,0.472
	c2.535-0.003,4.942-0.455,7.264-1.024c2.32-0.574,4.564-1.275,6.752-1.881l-2.141-7.708c-2.343,0.651-4.529,1.331-6.527,1.822
	c-1.999,0.496-3.799,0.795-5.348,0.792c-1.12-0.001-2.105-0.145-3.043-0.458c-1.396-0.479-2.771-1.32-4.342-3.103
	c-1.558-1.777-3.237-4.52-4.888-8.539L177.365,58.602L177.365,58.602z M195.049,41.166c0.818,3.979,1.877,7.265,3.22,10.013
	c1.007,2.059,2.181,3.816,3.528,5.277c2.014,2.198,4.438,3.672,6.914,4.492c2.481,0.83,4.977,1.061,7.392,1.063
	c3.234-0.005,6.379-0.411,9.399-0.658l-0.664-7.973c-3.232,0.273-6.207,0.635-8.735,0.63c-1.682,0.001-3.149-0.154-4.391-0.506
	c-0.934-0.266-1.746-0.63-2.519-1.154c-1.15-0.789-2.271-1.958-3.375-3.982c-1.098-2.018-2.128-4.885-2.934-8.813L195.049,41.166z
	 M213.895,33.091c0.425,5.505,1.446,9.786,3.165,13.212c1.283,2.561,3.005,4.619,5.01,6.093c1.499,1.11,3.128,1.888,4.765,2.42
	c2.463,0.799,4.941,1.078,7.365,1.205c2.426,0.123,4.813,0.087,7.112,0.13l0.146-7.999c-2.923-0.05-5.641-0.002-7.968-0.194
	c-1.747-0.139-3.259-0.41-4.491-0.856c-0.93-0.336-1.705-0.757-2.41-1.322c-1.047-0.851-2.011-2.055-2.872-4.155
	c-0.853-2.092-1.537-5.071-1.846-9.144L213.895,33.091z M158.443,72.903c1.918,3.298,3.858,6.049,5.857,8.337
	c2.991,3.43,6.149,5.828,9.438,7.315c3.283,1.495,6.633,2.039,9.819,2.034c2.684-0.001,5.269-0.366,7.785-0.839
	c2.516-0.476,4.968-1.063,7.388-1.571l-1.645-7.829c-2.561,0.539-4.97,1.114-7.227,1.539c-2.258,0.427-4.357,0.702-6.302,0.701
	c-1.546,0-2.991-0.167-4.402-0.555c-2.113-0.588-4.199-1.65-6.491-3.681c-2.283-2.029-4.74-5.059-7.305-9.473L158.443,72.903z
	 M148.357,95.535c4.489,5.666,8.817,9.529,13.196,11.991c4.368,2.469,8.784,3.438,12.936,3.426c3.304-0.001,6.435-0.572,9.443-1.322
	c3.01-0.753,5.913-1.689,8.795-2.518l-2.213-7.688c-3.035,0.875-5.862,1.781-8.521,2.444c-2.66,0.666-5.138,1.085-7.504,1.084
	c-2.983-0.013-5.804-0.61-9.018-2.401c-3.203-1.796-6.806-4.884-10.843-9.982L148.357,95.535z M146.576,122.462
	c4.596,3.66,8.828,6.225,12.856,7.886c4.023,1.662,7.854,2.398,11.454,2.395c4.578,0.001,8.698-1.168,12.47-2.725
	c3.78-1.563,7.268-3.505,10.77-5.271l-3.609-7.14c-3.675,1.861-7.013,3.701-10.209,5.015c-3.205,1.319-6.214,2.119-9.421,2.121
	c-2.531-0.004-5.238-0.49-8.406-1.791c-3.162-1.302-6.772-3.442-10.92-6.746L146.576,122.462z M155.115,149.707
	c6.938,3.215,12.785,4.671,17.985,4.674c3.034,0.003,5.823-0.51,8.34-1.405c3.784-1.343,6.907-3.502,9.674-5.861
	c2.771-2.366,5.229-4.95,7.729-7.38L193.266,134c-3.509,3.428-6.552,6.654-9.68,8.86c-1.563,1.11-3.133,1.977-4.821,2.576
	c-1.69,0.598-3.51,0.942-5.664,0.944c-3.67,0.003-8.392-1.043-14.62-3.932L155.115,149.707z M162.857,169.91
	c5.887,2.331,10.875,3.419,15.31,3.423c3.155,0.003,6.017-0.571,8.539-1.602c1.893-0.77,3.586-1.784,5.103-2.936
	c2.277-1.73,4.166-3.755,5.896-5.832c1.728-2.08,3.302-4.224,4.904-6.269l-6.299-4.932c-1.509,1.928-2.892,3.794-4.25,5.468
	c-2.036,2.52-4.007,4.569-6.142,5.93c-1.07,0.685-2.185,1.212-3.438,1.584c-1.253,0.37-2.654,0.587-4.313,0.588
	c-3.094,0.003-7.121-0.78-12.36-2.86L162.857,169.91z M172.01,186.355c5.886,2.331,10.875,3.419,15.31,3.422
	c3.154,0.004,6.017-0.571,8.539-1.601c1.893-0.77,3.586-1.784,5.103-2.936c2.277-1.73,4.166-3.755,5.896-5.832
	c1.728-2.081,3.302-4.225,4.904-6.27l-6.299-4.932c-1.509,1.929-2.892,3.794-4.25,5.468c-2.036,2.52-4.007,4.569-6.142,5.93
	c-1.071,0.685-2.186,1.213-3.438,1.585c-1.254,0.37-2.654,0.586-4.313,0.587c-3.095,0.004-7.122-0.779-12.36-2.859L172.01,186.355z
	 M179.815,205.45c5.886,2.331,10.874,3.419,15.31,3.422c3.154,0.004,6.017-0.571,8.538-1.601c1.893-0.77,3.587-1.784,5.104-2.936
	c2.277-1.73,4.166-3.755,5.895-5.832c1.728-2.08,3.302-4.224,4.904-6.269l-6.299-4.932c-1.509,1.929-2.892,3.794-4.249,5.468
	c-2.037,2.52-4.007,4.568-6.142,5.929c-1.071,0.685-2.185,1.213-3.438,1.585c-1.254,0.37-2.654,0.586-4.313,0.587
	c-3.095,0.004-7.122-0.78-12.362-2.859L179.815,205.45z M179.687,220.763c3.509,2.229,6.722,3.836,9.746,4.9
	c3.021,1.063,5.864,1.575,8.542,1.574c2.521,0.003,4.875-0.46,7.004-1.246c3.203-1.183,5.877-3.038,8.283-5.04
	c2.408-2.01,4.579-4.188,6.766-6.22l-5.449-5.857c-3.089,2.887-5.792,5.621-8.436,7.475c-1.319,0.933-2.609,1.65-3.928,2.135
	c-1.322,0.484-2.675,0.752-4.24,0.754c-1.659-0.001-3.577-0.311-5.89-1.122c-2.309-0.811-4.999-2.129-8.109-4.105L179.687,220.763z
	 M173.879,233.038c3.427,2.911,6.583,5.004,9.62,6.399c3.029,1.394,5.969,2.071,8.759,2.068c2.16,0.002,4.2-0.405,6.059-1.074
	c2.795-1.009,5.182-2.561,7.375-4.228c2.194-1.672,4.213-3.479,6.225-5.153l-5.119-6.146c-2.858,2.389-5.389,4.676-7.764,6.226
	c-1.185,0.779-2.317,1.377-3.421,1.772c-1.107,0.396-2.18,0.602-3.354,0.604c-1.512-0.003-3.244-0.345-5.424-1.34
	c-2.171-0.994-4.759-2.659-7.775-5.224L173.879,233.038z M228.858,35.29c-22.23,13.402-36.709,26.035-45.666,38.327
	c-8.96,12.285-12.341,24.263-12.331,36.034c0.001,8.427,1.709,16.736,4.237,25.052c3.798,12.473,9.44,24.982,14.106,37.986
	c4.67,13.005,8.362,26.484,8.361,40.887c-0.002,10.803-2.067,22.136-7.394,34.26l2.746,1.207c5.493-12.492,7.649-24.28,7.647-35.467
	c-0.005-19.899-6.78-37.846-13.456-54.84c-3.342-8.498-6.664-16.763-9.142-24.906c-2.478-8.145-4.108-16.161-4.107-24.179
	c0.01-11.2,3.142-22.424,11.756-34.268c8.617-11.835,22.774-24.256,44.79-37.524L228.858,35.29z M75.107,13.921
	c-0.001,17.355-2.76,31.737-7.285,44.101c-6.788,18.541-17.564,32.572-29.139,45.18c-11.569,12.606-23.939,23.755-33.763,36.543
	l2.38,1.826c12.775-16.662,30.416-30.851,44.952-49.737c7.263-9.446,13.739-20.08,18.387-32.781
	c4.65-12.701,7.468-27.46,7.467-45.132H75.107z"/>
</svg>
