<?xml version="1.0" encoding="utf-8"?>
<!-- Generator: Adobe Illustrator 16.0.0, SVG Export Plug-In . SVG Version: 6.00 Build 0)  -->
<!DOCTYPE svg PUBLIC "-//W3C//DTD SVG 1.1//EN" "http://www.w3.org/Graphics/SVG/1.1/DTD/svg11.dtd">
<svg version="1.1" id="Layer_1" xmlns="http://www.w3.org/2000/svg" xmlns:xlink="http://www.w3.org/1999/xlink" x="0px" y="0px"
	 width="100px" height="100px" viewBox="0 0 100 100" enable-background="new 0 0 100 100" xml:space="preserve">
<path fill="#70CDE3" stroke="#CBDB2A" stroke-linecap="round" d="M88.688,24.455c-3.271-1.888-6.842-2.783-10.362-2.781
	c0.003-3.522-0.894-7.092-2.78-10.363C69.818,1.396,57.141-2.002,47.223,3.723c-3.271,1.889-5.832,4.533-7.59,7.584
	c-3.05-1.763-6.589-2.773-10.366-2.774C17.816,8.535,8.534,17.817,8.534,29.267c0,3.776,1.01,7.316,2.773,10.365
	c-3.051,1.76-5.697,4.319-7.584,7.59c-5.725,9.917-2.327,22.596,7.588,28.321c3.271,1.889,6.842,2.783,10.364,2.781
	c-0.003,3.521,0.893,7.093,2.781,10.361c5.726,9.916,18.405,13.315,28.321,7.59c3.271-1.89,5.83-4.532,7.591-7.584
	c3.049,1.763,6.589,2.771,10.364,2.771c11.451,0,20.732-9.281,20.732-20.732c0-3.775-1.01-7.315-2.773-10.364
	c3.053-1.761,5.697-4.32,7.586-7.591C102.002,42.861,98.604,30.181,88.688,24.455z M39.637,47.223
	c3.145-1.819,5.766-4.441,7.587-7.585c3.147,1.813,6.729,2.772,10.362,2.777c0.005,3.632,0.964,7.214,2.777,10.362
	c-3.146,1.82-5.768,4.441-7.588,7.586c-3.147-1.813-6.729-2.772-10.362-2.775C42.41,53.953,41.451,50.371,39.637,47.223z"/>
<path fill="none" stroke="#676767" stroke-linecap="round" d="M42.202,20.966l5.022,18.671 M57.586,42.414l13.65-13.669
	 M60.711,52.874l18.305,4.903 M52.775,60.361l4.986,18.672 M42.414,57.587L28.625,71.357 M39.637,47.223l-18.689-5.002"/>
</svg>
