<?xml version="1.0" encoding="utf-8"?>
<!-- Generator: Adobe Illustrator 16.0.0, SVG Export Plug-In . SVG Version: 6.00 Build 0)  -->
<!DOCTYPE svg PUBLIC "-//W3C//DTD SVG 1.1//EN" "http://www.w3.org/Graphics/SVG/1.1/DTD/svg11.dtd">
<svg version="1.1"
	 id="svg1234" xmlns:cc="http://creativecommons.org/ns#" xmlns:dc="http://purl.org/dc/elements/1.1/" xmlns:rdf="http://www.w3.org/1999/02/22-rdf-syntax-ns#"
	 xmlns="http://www.w3.org/2000/svg" xmlns:xlink="http://www.w3.org/1999/xlink" x="0px" y="0px" width="143.447px"
	 height="71.281px" viewBox="0 0 143.447 71.281" enable-background="new 0 0 143.447 71.281" xml:space="preserve">
<rect id="rect1242" x="0" fill="#009AF4" width="143.447" height="35.902"/>
<rect id="rect1243" x="0" y="53.854" fill="#1C8F31" width="143.447" height="17.953"/>
<path fill="#EFEF00" d="M0,35.903h143.447v17.951H0V35.903z M133.5,24.992l-5.231-2.875l3.11,5.082l-4.307-4.127l1.685,5.714
	l-3.088-5.098l0.144,5.951l-1.659-5.719l-1.407,5.786l-0.116-5.952l-2.863,5.225l1.435-5.779l-4.121,4.31l2.883-5.215l-5.098,3.1
	l4.138-4.291l-5.73,1.679l5.113-3.078l-5.969,0.143l5.736-1.652l-5.804-1.404l5.971-0.116l-5.243-2.852l5.798,1.428l-4.322-4.108
	l5.23,2.874l-3.109-5.081l4.305,4.126l-1.684-5.712l3.089,5.097l-0.145-5.952l1.658,5.719l1.408-5.784l0.116,5.95l2.863-5.225
	l-1.435,5.78l4.122-4.309l-2.884,5.211l5.1-3.097l-4.141,4.29l5.731-1.679l-5.113,3.078l5.971-0.143l-5.738,1.653l5.805,1.404
	l-5.972,0.114l5.244,2.853l-5.799-1.428L133.5,24.992z"/>
<path fill="#0098F6" d="M124.026,13.528c-2.517,0-4.555,2.033-4.555,4.539c0,2.509,2.038,4.541,4.555,4.541s4.557-2.032,4.557-4.541
	C128.583,15.559,126.543,13.528,124.026,13.528z M124.03,21.772c-2.024,0-3.663-1.658-3.663-3.703c0-2.045,1.641-3.704,3.663-3.704
	c2.021,0,3.66,1.657,3.66,3.704C127.69,20.114,126.051,21.772,124.03,21.772z"/>
</svg>
