<?xml version="1.0" encoding="utf-8"?>
<!-- Generator: Adobe Illustrator 16.0.0, SVG Export Plug-In . SVG Version: 6.00 Build 0)  -->
<!DOCTYPE svg PUBLIC "-//W3C//DTD SVG 1.1//EN" "http://www.w3.org/Graphics/SVG/1.1/DTD/svg11.dtd">
<svg version="1.1" id="Layer_1" xmlns="http://www.w3.org/2000/svg" xmlns:xlink="http://www.w3.org/1999/xlink" x="0px" y="0px"
	 width="26.938px" height="22.187px" viewBox="2.187 5.938 26.938 22.187" enable-background="new 2.187 5.938 26.938 22.187"
	 xml:space="preserve">
<path d="M29.124,12.75c-0.004-2.208-1.792-3.997-3.999-4V8.749H12.868c-0.506-1.622-2.012-2.808-3.806-2.811H6.188
	c-2.208,0.002-3.997,1.792-4.001,4v14.188c0.004,2.206,1.793,3.995,4.001,3.999h18.938c2.205-0.004,3.995-1.793,3.999-3.999
	L29.124,12.75L29.124,12.75z M6.188,7.937h2.875c1.046-0.004,1.917,0.834,1.983,1.876l0.058,0.937h14.022
	c1.093,0.002,1.997,0.906,1.999,2v0.495c-0.591-0.345-1.269-0.557-2-0.558H6.187c-0.731,0.001-1.41,0.214-2,0.559V9.937
	C4.19,8.843,5.094,7.939,6.188,7.937z M25.125,26.125H6.188c-1.093-0.002-1.997-0.908-2.001-2v-7.438h0.001
	c0.002-1.096,0.906-1.999,2-2.001h18.938c1.093,0.002,1.991,0.9,2,1.99v7.447C27.122,25.219,26.218,26.123,25.125,26.125z"/>
</svg>
