<?xml version="1.0" encoding="utf-8"?>
<!-- Generator: Adobe Illustrator 16.0.0, SVG Export Plug-In . SVG Version: 6.00 Build 0)  -->
<!DOCTYPE svg PUBLIC "-//W3C//DTD SVG 1.1//EN" "http://www.w3.org/Graphics/SVG/1.1/DTD/svg11.dtd">
<svg version="1.1" id="Layer_1" xmlns="http://www.w3.org/2000/svg" xmlns:xlink="http://www.w3.org/1999/xlink" x="0px" y="0px"
	 width="27.874px" height="29.487px" viewBox="1.562 0.227 27.874 29.487" enable-background="new 1.562 0.227 27.874 29.487"
	 xml:space="preserve">
<path fill="#000000" d="M25.371,7.306c-0.092-3.924-3.301-7.077-7.248-7.079c-2.638,0.001-4.941,1.412-6.208,3.518
	c-0.595-0.327-1.28-0.518-2.01-0.518C7.626,3.229,5.772,5.033,5.689,7.293c-2.393,0.786-4.125,3.024-4.127,5.686
	c0,3.313,2.687,6,6,6v-0.002h15.874c3.312,0,6-2.688,6-6C29.434,10.34,27.732,8.11,25.371,7.306z M23.436,16.979H7.561
	c-2.209-0.006-3.997-1.792-4.001-4.001C3.558,10.996,5.01,9.36,6.91,9.047c0.265-0.043,0.502-0.191,0.657-0.414
	C7.722,8.41,7.779,8.136,7.73,7.87C7.702,7.722,7.685,7.582,7.685,7.446C7.689,6.221,8.68,5.23,9.905,5.228
	c0.647,0,1.217,0.278,1.633,0.731c0.233,0.257,0.587,0.375,0.927,0.309c0.342-0.065,0.626-0.307,0.748-0.63
	c0.749-1.992,2.662-3.412,4.912-3.41c2.898,0.004,5.244,2.351,5.25,5.249c0,0.161-0.008,0.326-0.026,0.497
	c-0.05,0.518,0.305,0.984,0.815,1.079c1.859,0.344,3.273,1.966,3.271,3.923C27.43,15.186,25.645,16.973,23.436,16.979z
	 M9.029,26.682c0-1.115,0.021-5.425,0.021-5.432c0.002-0.409-0.247-0.779-0.628-0.933c-0.38-0.151-0.815-0.059-1.099,0.24
	c-0.006,0.008-1.037,1.099-2.081,2.342c-0.523,0.627-1.048,1.287-1.463,1.896c-0.399,0.647-0.753,1.065-0.811,1.885
	c0.003,1.674,1.356,3.03,3.032,3.033C7.672,29.71,9.029,28.354,9.029,26.682z M4.971,26.727c0.091-0.349,1.081-1.719,1.993-2.764
	c0.025-0.029,0.051-0.062,0.076-0.089c-0.005,1.124-0.01,2.294-0.01,2.808c0,0.567-0.461,1.028-1.029,1.03
	C5.447,27.71,4.997,27.273,4.971,26.727z M16.425,26.682c0-1.115,0.021-5.424,0.021-5.43c0.003-0.41-0.247-0.779-0.628-0.935
	c-0.381-0.151-0.814-0.058-1.1,0.242c-0.006,0.008-1.035,1.094-2.08,2.342c-0.522,0.623-1.047,1.285-1.463,1.895
	c-0.399,0.648-0.753,1.068-0.809,1.888c0,1.672,1.354,3.028,3.029,3.028C15.068,29.711,16.425,28.354,16.425,26.682z M12.365,26.729
	c0.092-0.349,1.081-1.72,1.993-2.765c0.025-0.03,0.05-0.061,0.075-0.089c-0.005,1.123-0.011,2.294-0.011,2.807
	c-0.002,0.568-0.461,1.027-1.028,1.029C12.84,27.709,12.392,27.273,12.365,26.729z M23.271,20.317c-0.38-0.152-0.816-0.06-1.1,0.24
	c-0.008,0.008-1.037,1.097-2.08,2.342c-0.522,0.625-1.049,1.285-1.461,1.896c-0.402,0.648-0.754,1.066-0.813,1.886
	c0,1.672,1.354,3.029,3.03,3.029c1.673,0,3.026-1.357,3.026-3.029c0-1.115,0.022-5.425,0.022-5.431
	C23.9,20.84,23.651,20.47,23.271,20.317z M21.878,26.681c-0.004,0.568-0.463,1.027-1.03,1.029c-0.554-0.002-1.002-0.438-1.028-0.982
	c0.092-0.349,1.081-1.72,1.993-2.765c0.024-0.028,0.05-0.06,0.074-0.088C21.882,24.998,21.878,26.167,21.878,26.681z"/>
</svg>
