<?xml version="1.0" encoding="utf-8"?>
<!-- Generator: Adobe Illustrator 16.0.0, SVG Export Plug-In . SVG Version: 6.00 Build 0)  -->
<!DOCTYPE svg PUBLIC "-//W3C//DTD SVG 1.1//EN" "http://www.w3.org/Graphics/SVG/1.1/DTD/svg11.dtd">
<svg version="1.1" id="Layer_1" xmlns="http://www.w3.org/2000/svg" xmlns:xlink="http://www.w3.org/1999/xlink" x="0px" y="0px"
	 width="100px" height="100px" viewBox="0 0 100 100" enable-background="new 0 0 100 100" xml:space="preserve">
<path d="M54.807,57.764c0,0-0.354,1.08-1.199,1.77c-0.844,0.687-7.789,0.771-7.789,0.771s-1.258-0.281-2.342-0.242
	C42.393,60.1,2.529,60.867,2.529,60.867s-2.708,0.179-1.146-1.684c1.562-1.861,5.47-4.875,5.47-4.875l72.551-14l4.344,0.009
	c0,0,12.374,13.678,14.059,15.26c0,0,2.229,1.563,0.842,2.269c-1.387,0.706-24.76,1.213-31.354,0.463
	C60.7,57.555,55.456,57.247,54.807,57.764z"/>
<path fill="#91642E" d="M89.936,47.531c-5.804-2.731-9.787-9.012-10.574-10.636c-0.785-1.624-6.199-0.329-6.199-0.329
	s-7.508,0.451-13.934-2.806c-6.426-3.258-8.399,4.338-8.399,4.338s-0.285-7.99-14.091-4.03c0,0-10.721,0.694-13.918-0.476
	c0,0-6.719,8.669-10.872,11.584c0,0-2.008,1.54-1.242,2.614c0.767,1.073,25.778,1.466,25.778,1.466l7.533,0.281l5.038,5.143
	l1.936,3.234l1.909-4.289l3.295-2.873l5.945-0.025c0,0,14.479,1.133,14.844,1.121c0.363-0.013,6.166-0.588,11.377-0.773
	C93.573,50.885,89.936,47.531,89.936,47.531z"/>
<path fill="#5F2209" d="M52.73,67.052c-2.65-0.364-4.873-4.862-4.873-4.862l-0.173-4.834c-0.064,1.834,1.288,3.354,1.745,4.062
	c0.458,0.702,2.134,2.935,2.134,2.935L52.73,67.052z"/>
<path fill="#FAAC56" d="M95.706,56.137c0,0-16.062,2.229-21.81,0.965c0,0-7.412-0.285-10.358-1.283c-2.95-1-7.011-0.551-9.942,2.307
	l-2.493,0.52l0.005,0.03l-5.029,0.833c-2.045-3.984-7.833-1.688-10.836-0.845c-4.257,1.196-26.713,0.954-28.237,1.008
	c-2.787,0.099-3.904-0.594-3.904-0.594s0.865-2.97,2.732-5.056c1.866-2.086,4.949-7.519,4.949-7.519
	c-0.662,1.858,7.767,1.361,7.767,1.361c3.592,0.1,9.608,0.1,14.027,0.082l5.225-12.733c0.002,0,9.548-2.818,12.117,2.872
	l-1.032,11.874c0,0-2.864-3.751-10.384-2.795c-3.46,0.44-4.99,0.665-5.646,0.781c3.054-0.013,5.278-0.034,5.278-0.034
	c12.43-1.911,12.701,9.092,12.701,9.092l0.142,0.874c0.173-2.272,1.063-8.659,5.636-8.973c5.568-0.382,14.148,2.122,21.789,1.944
	c8.32-0.191,12.806-1.708,12.806-1.708s1.147,1.611,1.813,3.239C93.686,54.007,95.706,56.137,95.706,56.137z M31.241,47.699
	l5.471-12.447c-0.277-0.128-11.892,0.837-11.892,0.837c-1.71,3.09-9.621,10.943-9.621,10.943s2.915,0.035,4.833,0.241
	C21.95,47.48,31.241,47.699,31.241,47.699z M69.241,48.958l-5.271-12.477c0,0-4.882-1.615-7.729-2.339
	c-2.85-0.725-4.354,3.046-4.354,3.046l1.188,12.76C56.243,44.329,69.241,48.958,69.241,48.958z M80.893,49.229
	c3.991-0.414,6.121-0.704,6.121-0.704s-5.22-4.697-6.426-5.341c-1.206-0.645-3.928-5.503-3.928-5.503s-6.495,1.608-10.938-0.436
	l4.691,11.67C70.414,48.915,76.916,49.644,80.893,49.229z"/>
</svg>
