<svg xmlns="http://www.w3.org/2000/svg" width="173" height="318" x="0" y="0" id="svgcontent" viewBox="0 0 173 318" overflow="hidden"><defs><clipPath class="clippath" id="svg_12"><rect fill="none" stroke="#000" width="300" height="328.00001" id="svg_13" type="photobox" lockTransform="true" lockEdit="true" y="18" x="35"/></clipPath><clipPath class="clippath" id="svg_10"><rect fill="none" stroke="#000" width="420" height="444.00003" id="svg_11" type="photobox" lockTransform="true" lockEdit="true" y="0" x="-4"/></clipPath><clipPath class="clippath" id="svg_8"><path d="M103.877,83.188C160.72501,-89.12399 383.44302,83.188 103.877,304.74002C-175.692,83.188 47.028,-89.12299 103.877,83.188z" id="svg_9" type="photobox" lockTransform="true" lockEdit="true" stroke="#000" fill="none"/></clipPath><clipPath class="clippath" id="svg_6"><path d="M129.56522,208.89536L193.90205,208.89536L213.78262,147.77565L233.66319,208.89536L298,208.89536L245.9505,246.66898L265.83212,307.7887L213.78262,270.01404L161.73312,307.7887L181.61473,246.66898L129.56525,208.89536L129.56522,208.89536z" id="svg_7" type="photobox" lockTransform="true" lockEdit="true" stroke="#000" fill="none"/></clipPath><clipPath class="clippath" id="svg_4"><path d="M98.87698,111.04456C126.45099,27.46495 234.47993,111.04456 98.87698,218.50793C-36.72743,111.04456 71.30248,27.46544 98.87698,111.04456z" id="svg_5" type="photobox" lockTransform="true" lockEdit="true" stroke="#000" fill="none"/></clipPath><clipPath id="svg_2" class="clippath"><path fill="none" stroke="#000" lockEdit="true" lockTransform="true" type="photobox" id="svg_3" d="M-8.31773,264.54233L69.34328,264.54233L93.34114,190.76469L117.339,264.54233L195,264.54233L132.17105,310.13889L156.17014,383.91653L93.34114,338.31873L30.51217,383.91653L54.51126,310.13889L-8.31771,264.54233L-8.31773,264.54233z"/></clipPath><clipPath class="clippath" id="svg_35"><rect fill="none" stroke="#000" width="300" height="328.00001" id="svg_36" type="photobox" lockTransform="true" lockEdit="true" y="18" x="35"/></clipPath><clipPath class="clippath" id="svg_33"><rect fill="none" stroke="#000" width="420" height="444.00003" id="svg_34" type="photobox" lockTransform="true" lockEdit="true" y="0" x="-4"/></clipPath><clipPath class="clippath" id="svg_31"><path d="M103.877,83.188C160.72501,-89.12399 383.44302,83.188 103.877,304.74002C-175.692,83.188 47.028,-89.12299 103.877,83.188z" id="svg_32" type="photobox" lockTransform="true" lockEdit="true" stroke="#000" fill="none"/></clipPath><clipPath class="clippath" id="svg_29"><path d="M129.56522,208.89536L193.90205,208.89536L213.78262,147.77565L233.66319,208.89536L298,208.89536L245.9505,246.66898L265.83212,307.7887L213.78262,270.01404L161.73312,307.7887L181.61473,246.66898L129.56525,208.89536L129.56522,208.89536z" id="svg_30" type="photobox" lockTransform="true" lockEdit="true" stroke="#000" fill="none"/></clipPath><clipPath class="clippath" id="svg_27"><path d="M98.87698,111.04456C126.45099,27.46495 234.47993,111.04456 98.87698,218.50793C-36.72743,111.04456 71.30248,27.46544 98.87698,111.04456z" id="svg_28" type="photobox" lockTransform="true" lockEdit="true" stroke="#000" fill="none"/></clipPath><clipPath id="svg_25" class="clippath"><path fill="none" stroke="#000" lockEdit="true" lockTransform="true" type="photobox" id="svg_26" d="M-8.31773,264.54233L69.34328,264.54233L93.34114,190.76469L117.339,264.54233L195,264.54233L132.17105,310.13889L156.17014,383.91653L93.34114,338.31873L30.51217,383.91653L54.51126,310.13889L-8.31771,264.54233L-8.31773,264.54233z"/></clipPath></defs><g mask="" style="pointer-events:all"><title style="pointer-events:inherit">Layer 1</title><g lockTransform="true" display="null" shapeVal="0" shapeId="0" lineHeight="1" font-style="normal" font-weight="normal" text-anchor="middle" stroke-width="1" stroke="0" fill="00aeff" font-family="Kroftsmann" font-size="52.90582" text="MUSIC DANCE" type="text" id="svg_38" lock="false" transform="matrix(0.500531, 0, 0, 0.500531, -57.103, -110.779)" fill-opacity="1" stroke-dasharray="none" stroke-opacity="1" style="pointer-events:inherit"><path id="svg_1" fill="#00aeff" stroke="#0" d="M184.00397,503.59879C184.00397,503.59879 189.29454,490.0784 189.29454,490.0784C189.29454,490.0784 189.29454,507.2728 189.29454,507.2728C189.29454,507.2728 197.52434,507.2728 197.52434,507.2728C197.52434,507.2728 197.52434,472.00226 197.52434,472.00226C197.52434,472.00226 187.82494,472.00226 187.82494,472.00226C187.82494,472.00226 182.53435,484.78781 182.53435,484.78781C182.53435,484.78781 176.50897,472.00226 176.50897,472.00226C176.50897,472.00226 166.80957,472.00226 166.80957,472.00226C166.80957,472.00226 166.80957,507.2728 166.80957,507.2728C166.80957,507.2728 175.03937,507.2728 175.03937,507.2728C175.03937,507.2728 175.03937,490.0784 175.03937,490.0784C175.03937,490.0784 181.06474,503.59879 181.06474,503.59879C181.06474,503.59879 184.00397,503.59879 184.00397,503.59879C184.00397,503.59879 184.00397,503.59879 184.00397,503.59879M213.54305,472.00226C213.54305,472.00226 221.77284,472.00226 221.77284,472.00226C221.77284,472.00226 221.77284,501.24741 221.77284,501.24741C221.77284,501.24741 217.95186,507.2728 217.95186,507.2728C217.95186,507.2728 203.84364,507.2728 203.84364,507.2728C203.84364,507.2728 199.28786,501.24741 199.28786,501.24741C199.28786,501.24741 199.28786,472.00226 199.28786,472.00226C199.28786,472.00226 207.51765,472.00226 207.51765,472.00226C207.51765,472.00226 207.51765,499.7778 207.51765,499.7778C207.51765,499.7778 213.54305,499.7778 213.54305,499.7778C213.54305,499.7778 213.54305,472.00226 213.54305,472.00226C213.54305,472.00226 213.54305,472.00226 213.54305,472.00226M226.62254,498.3082C226.62254,498.3082 223.53636,507.2728 223.53636,507.2728C223.53636,507.2728 243.81694,507.2728 243.81694,507.2728C243.81694,507.2728 246.75615,496.83859 246.75615,496.83859C246.75615,496.83859 235.58714,479.49722 235.58714,479.49722C235.58714,479.49722 244.55174,479.49722 244.55174,479.49722C244.55174,479.49722 246.75615,472.00226 246.75615,472.00226C246.75615,472.00226 227.35735,472.00226 227.35735,472.00226C227.35735,472.00226 225.00597,480.23203 225.00597,480.23203C225.00597,480.23203 237.79153,498.3082 237.79153,498.3082C237.79153,498.3082 226.62254,498.3082 226.62254,498.3082C226.62254,498.3082 226.62254,498.3082 226.62254,498.3082M256.74948,472.00226C256.74948,472.00226 248.51967,472.00226 248.51967,472.00226C248.51967,472.00226 248.51967,507.2728 248.51967,507.2728C248.51967,507.2728 256.74948,507.2728 256.74948,507.2728C256.74948,507.2728 256.74948,472.00226 256.74948,472.00226C256.74948,472.00226 256.74948,472.00226 256.74948,472.00226M258.36603,478.02762C258.36603,478.02762 262.92181,472.00226 262.92181,472.00226C262.92181,472.00226 279.38141,472.00226 279.38141,472.00226C279.38141,472.00226 279.38141,479.49722 279.38141,479.49722C279.38141,479.49722 268.06543,479.49722 268.06543,479.49722C268.06543,479.49722 268.06543,499.043 268.06543,499.043C268.06543,499.043 279.38141,499.043 279.38141,499.043C279.38141,499.043 279.38141,507.2728 279.38141,507.2728C279.38141,507.2728 262.92181,507.2728 262.92181,507.2728C262.92181,507.2728 258.36603,500.5126 258.36603,500.5126C258.36603,500.5126 258.36603,478.02762 258.36603,478.02762C258.36603,478.02762 258.36603,478.02762 258.36603,478.02762M322,478.02762C322,478.02762 317.44421,472.00226 317.44421,472.00226C317.44421,472.00226 299.51501,472.00226 299.51501,472.00226C299.51501,472.00226 299.51501,507.2728 299.51501,507.2728C299.51501,507.2728 317.44421,507.2728 317.44421,507.2728C317.44421,507.2728 322,500.5126 322,500.5126C322,500.5126 322,478.02762 322,478.02762C322,478.02762 322,478.02762 322,478.02762M312.88843,479.49722C312.88843,479.49722 312.88843,499.043 312.88843,499.043C312.88843,499.043 307.74481,499.043 307.74481,499.043C307.74481,499.043 307.74481,479.49722 307.74481,479.49722C307.74481,479.49722 312.88843,479.49722 312.88843,479.49722C312.88843,479.49722 312.88843,479.49722 312.88843,479.49722M342.42752,472.00226C342.42752,472.00226 328.31931,472.00226 328.31931,472.00226C328.31931,472.00226 323.76352,478.02762 323.76352,478.02762C323.76352,478.02762 323.76352,507.2728 323.76352,507.2728C323.76352,507.2728 331.99332,507.2728 331.99332,507.2728C331.99332,507.2728 331.99332,496.83859 331.99332,496.83859C331.99332,496.83859 338.01868,496.83859 338.01868,496.83859C338.01868,496.83859 338.01868,507.2728 338.01868,507.2728C338.01868,507.2728 346.2485,507.2728 346.2485,507.2728C346.2485,507.2728 346.2485,478.02762 346.2485,478.02762C346.2485,478.02762 342.42752,472.00226 342.42752,472.00226M338.01868,489.3436C338.01868,489.3436 331.99332,489.3436 331.99332,489.3436C331.99332,489.3436 331.99332,479.49722 331.99332,479.49722C331.99332,479.49722 338.01868,479.49722 338.01868,479.49722C338.01868,479.49722 338.01868,489.3436 338.01868,489.3436C338.01868,489.3436 338.01868,489.3436 338.01868,489.3436M348.01202,507.2728C348.01202,507.2728 348.01202,472.00226 348.01202,472.00226C348.01202,472.00226 356.24182,472.00226 356.24182,472.00226C356.24182,472.00226 363.73682,486.25742 363.73682,486.25742C363.73682,486.25742 363.73682,472.00226 363.73682,472.00226C363.73682,472.00226 372.84836,472.00226 372.84836,472.00226C372.84836,472.00226 372.84836,507.2728 372.84836,507.2728C372.84836,507.2728 363.73682,507.2728 363.73682,507.2728C363.73682,507.2728 356.24182,492.28281 356.24182,492.28281C356.24182,492.28281 356.24182,507.2728 356.24182,507.2728C356.24182,507.2728 348.01202,507.2728 348.01202,507.2728C348.01202,507.2728 348.01202,507.2728 348.01202,507.2728M374.4649,478.02762C374.4649,478.02762 379.02069,472.00226 379.02069,472.00226C379.02069,472.00226 395.48029,472.00226 395.48029,472.00226C395.48029,472.00226 395.48029,479.49722 395.48029,479.49722C395.48029,479.49722 384.16434,479.49722 384.16434,479.49722C384.16434,479.49722 384.16434,499.043 384.16434,499.043C384.16434,499.043 395.48029,499.043 395.48029,499.043C395.48029,499.043 395.48029,507.2728 395.48029,507.2728C395.48029,507.2728 379.02069,507.2728 379.02069,507.2728C379.02069,507.2728 374.4649,500.5126 374.4649,500.5126C374.4649,500.5126 374.4649,478.02762 374.4649,478.02762C374.4649,478.02762 374.4649,478.02762 374.4649,478.02762M397.09686,472.00226C397.09686,472.00226 415.76086,472.00226 415.76086,472.00226C415.76086,472.00226 415.76086,479.6442 415.76086,479.6442C415.76086,479.6442 405.32666,479.6442 405.32666,479.6442C405.32666,479.6442 405.32666,484.78781 405.32666,484.78781C405.32666,484.78781 415.76086,484.78781 415.76086,484.78781C415.76086,484.78781 415.76086,492.28281 415.76086,492.28281C415.76086,492.28281 405.32666,492.28281 405.32666,492.28281C405.32666,492.28281 405.32666,499.7778 405.32666,499.7778C405.32666,499.7778 415.76086,499.7778 415.76086,499.7778C415.76086,499.7778 415.76086,507.2728 415.76086,507.2728C415.76086,507.2728 397.09686,507.2728 397.09686,507.2728C397.09686,507.2728 397.09686,472.00226 397.09686,472.00226C397.09686,472.00226 397.09686,472.00226 397.09686,472.00226" style="pointer-events:inherit"/></g><g id="svg_17" display="null" clip-id="51" stroke="null" stroke-opacity="1" fill-opacity="1" transform=""><path d="M 72.7677 85.062 C 72.8981 85.052 73.0304 85.04 73.1614 85.03 C 73.1793 84.67 72.9765 84.555 73.0536 84.312 C 73.1441 84.408 73.1314 84.606 73.2318 84.684 C 73.3103 84.715 73.3888 84.747 73.4706 84.779 C 73.1614 85.11 73.1541 85.803 72.9446 86.141 C 72.8302 86.224 72.7159 86.307 72.6008 86.39 C 72.5849 86.553 72.5676 86.718 72.5523 86.88 C 72.4599 87.011 72.2797 86.93 72.1507 87.017 C 71.6952 87.322 70.9844 87.925 70.8308 88.583 C 71.2178 88.572 71.3268 88.327 71.5995 88.305 C 71.787 88.289 71.7152 88.45 71.8754 88.368 C 71.7411 88.2 71.759 88.23 71.6992 87.996 C 71.7251 87.976 71.7511 87.954 71.7757 87.934 C 71.8761 87.99 71.9771 88.047 72.0782 88.106 C 71.8016 88.59 71.9565 88.932 71.3461 89.057 C 71.2431 90.037 70.1832 90.133 69.6014 90.618 C 69.6107 90.643 69.6193 90.666 69.6293 90.69 C 70.5948 90.801 71.9093 90.953 72.4093 91.177 C 72.6926 91.17 72.9772 91.165 73.2591 91.157 C 73.946 91.109 74.6661 91.369 75.2 91.56 C 77.2087 92.284 79.1317 93.29 81.2116 94.029 C 82.6638 94.546 84.3154 94.581 85.9126 94.744 C 85.8707 94.957 85.7842 95.104 85.6226 95.174 C 84.985 95.449 84.2995 95.297 83.6618 95.334 C 83.7309 95.619 84.0501 95.752 84.1991 95.985 C 84.1432 96.074 84.0873 96.165 84.0308 96.251 C 84.0189 96.25 84.0082 96.25 83.9956 96.249 C 83.4111 96.159 83.2396 95.727 82.7568 95.56 C 82.4058 95.538 82.0527 95.514 81.7023 95.491 C 81.1098 95.292 80.5167 95.091 79.923 94.891 C 79.0632 94.783 78.2008 94.674 77.3397 94.562 C 75.5165 94.075 73.5922 93.711 72.162 93.308 C 71.0383 93.234 69.9139 93.155 68.7895 93.08 C 68.6047 93.173 68.5541 93.447 68.1319 93.298 C 67.947 93.23 67.953 93.087 67.8453 92.986 C 67.4377 92.934 67.0288 92.881 66.6232 92.829 C 66.9104 93.383 66.6378 93.458 66.7648 93.903 C 66.8619 94.199 67.0514 94.194 67.322 94.348 C 67.2402 94.338 67.1578 94.332 67.0773 94.324 C 66.8818 94.282 66.7861 94.213 66.7116 94.076 C 66.6764 94.018 66.4211 92.847 66.4177 92.774 C 66.2455 92.732 66.0726 92.693 65.9004 92.651 C 65.9776 93.059 66.0534 93.468 66.1325 93.877 C 66.1385 94.249 65.808 94.308 65.7122 94.543 C 65.6085 94.8 65.6737 95.072 65.6005 95.308 C 65.4469 95.351 65.3871 95.358 65.2993 95.489 C 65.1617 95.338 65.0447 95.399 64.8419 95.479 C 65.0008 95.272 65.2275 95.348 65.3751 95.106 C 65.3532 95.092 65.3299 95.079 65.308 95.064 C 65.1717 95.117 64.9715 95.185 64.8419 95.125 C 64.8206 95.113 64.8 95.098 64.7754 95.084 C 64.776 95.072 64.7767 95.062 64.778 95.049 C 64.9815 95.022 65.1836 94.994 65.3884 94.969 C 65.419 94.889 65.4516 94.81 65.4815 94.731 C 65.4709 94.717 65.4622 94.706 65.4503 94.693 C 65.3339 94.759 65.3193 94.81 65.1943 94.774 C 65.3618 94.714 65.4011 94.656 65.4403 94.443 C 65.429 94.431 65.419 94.419 65.4071 94.404 C 65.1178 94.4 65.05 94.334 64.7834 94.272 C 64.7561 94.316 64.7282 94.361 64.7002 94.405 C 64.7834 94.862 64.8259 95.486 64.7395 95.786 C 64.6098 95.66 64.528 95.613 64.524 95.836 C 64.4888 95.951 64.4549 96.066 64.4196 96.18 C 64.3605 96.173 64.302 96.167 64.2421 96.163 C 64.2109 96.137 64.1796 96.108 64.145 96.084 C 64.1617 95.906 64.1803 95.732 64.1969 95.556 C 64.2228 95.672 64.2148 95.673 64.2847 95.741 C 64.2946 95.213 63.76 94.592 63.2082 94.469 C 63.2075 94.482 63.2062 94.492 63.2048 94.506 C 63.2474 94.556 63.2899 94.608 63.3318 94.657 C 63.4056 94.867 63.5267 94.952 63.5599 95.212 C 63.5459 95.211 63.5373 95.211 63.5253 95.209 C 63.528 95.185 63.5306 95.163 63.532 95.14 C 63.3365 94.836 63.1443 94.535 62.9495 94.233 C 62.9262 94.231 62.905 94.228 62.8804 94.227 C 62.5585 94.653 62.0193 95.07 61.8231 95.606 C 61.6848 95.99 61.7294 96.354 61.6044 96.752 C 62.0725 96.877 62.012 97.545 62.3165 97.778 C 62.5565 97.961 62.766 97.911 63.0652 98.064 C 63.4176 98.243 63.7401 98.578 64.0214 98.759 C 64.3924 98.938 64.7641 99.116 65.1351 99.294 C 65.564 99.638 65.6524 100.178 66.042 100.479 C 66.4756 100.39 67.4484 100.666 68.0229 100.817 C 69.4804 101.103 70.9359 101.389 72.3934 101.676 C 73.1241 101.87 74.0623 102.158 74.9646 102.108 C 77.0645 101.987 78.4854 101.5 80.7189 101.475 C 83.4763 101.444 85.1851 102.954 87.918 102.682 C 88.1733 102.658 88.285 102.474 88.4745 102.42 C 88.8528 102.397 89.2345 102.377 89.6122 102.355 C 90.5876 102.095 91.4547 100.927 92.73 101.214 C 92.9674 101.269 93.9229 102.251 94.125 102.483 C 94.1031 102.577 94.0824 102.668 94.0612 102.761 C 93.869 103.07 93.617 103.156 93.2992 103.321 C 93.115 103.503 92.9321 103.687 92.7513 103.869 C 92.0445 103.986 91.3356 104.105 90.6295 104.222 C 89.9706 104.407 89.0523 104.637 88.3162 104.736 C 87.9253 104.788 87.6094 104.541 87.3189 104.459 C 86.8488 104.438 86.38 104.414 85.9112 104.39 C 84.6332 104.557 83.3553 104.726 82.0786 104.894 C 81.296 104.946 80.5134 105 79.7295 105.05 C 79.3219 105.021 78.9116 104.993 78.5007 104.964 C 77.2646 105.075 76.1336 105.399 74.9753 105.569 C 73.1973 105.674 71.4186 105.78 69.6419 105.888 C 68.2123 105.924 66.7808 105.959 65.3525 105.993 C 64.8512 105.931 64.3525 105.869 63.8498 105.809 C 63.0579 105.963 62.8019 106.399 62.27 106.784 C 61.3351 107.462 59.0005 107.82 57.5603 107.941 C 56.4619 107.954 55.3647 107.959 54.2683 107.97 C 53.6672 108.011 52.7755 108.04 52.0874 107.861 C 51.201 107.626 50.0135 107.199 48.9263 107.3 C 48.5154 107.399 48.1051 107.501 47.6942 107.601 C 46.7088 107.668 45.7247 107.734 44.7393 107.802 C 44.1834 107.867 43.4766 108.056 42.7552 107.855 C 41.168 107.413 39.8162 106.761 38.3261 106.178 C 37.8181 105.979 37.0189 105.349 36.2356 105.512 C 35.6591 105.631 35.3872 106.285 34.6711 106.312 C 34.4071 106.133 34.1411 105.954 33.8778 105.775 C 33.7681 105.565 33.6604 105.351 33.552 105.141 C 32.9283 104.592 31.4183 104.835 30.9502 104.989 C 30.7607 105.05 29.8989 104.584 29.875 104.421 C 30.4767 104.345 30.8604 103.737 31.3132 103.467 C 31.6337 103.279 33.6271 102.96 34.1245 102.933 C 35.3247 102.864 36.3972 103.397 37.3035 103.672 C 38.8441 104.138 40.9998 104.24 42.7113 104.385 C 43.8191 104.496 44.9295 104.604 46.0379 104.715 C 46.8777 104.614 47.6244 104.13 48.3093 103.914 C 48.6291 103.886 48.9496 103.86 49.2707 103.833 C 50.0414 103.674 50.8114 103.515 51.5813 103.356 C 52.8201 103.012 54.1473 102.233 55.7664 102.497 C 55.6447 102.148 55.6234 101.471 55.3634 101.22 C 55.2112 101.226 55.2151 101.237 55.126 101.124 C 55.3834 100.702 54.1659 97.758 54.2231 96.686 C 54.2962 95.302 54.5063 93.734 54.8488 92.506 C 54.9173 92.054 54.9864 91.601 55.0536 91.149 C 55.3328 90.599 55.6114 90.049 55.89 89.498 C 56.0602 88.715 56.2345 87.93 56.4067 87.146 C 56.6421 86.303 56.5077 85.264 56.4512 84.535 C 56.3648 83.411 57.1441 79.325 57.4739 78.874 C 57.3894 78.54 57.567 77.929 57.6155 77.439 C 57.7405 76.296 57.8655 75.153 57.9912 74.01 C 58.2213 73.191 58.7426 72.303 58.7858 71.332 C 58.827 70.412 56.7471 68.361 57.0856 67.805 C 57.1547 67.813 57.2259 67.819 57.295 67.826 C 57.7398 68.118 57.9081 68.623 58.3143 68.952 C 58.3649 68.922 58.4147 68.891 58.4659 68.861 C 58.5803 68.631 58.6867 68.126 58.8469 67.873 C 58.7359 67.396 58.7086 66.125 58.9839 65.767 C 58.9965 65.768 59.0079 65.769 59.0192 65.77 C 59.1209 65.824 59.0604 65.773 59.1162 65.85 C 59.1701 66.064 59.0989 66.31 59.2712 66.432 C 59.3337 66.181 59.4454 66.031 59.6389 65.939 C 59.6681 65.989 59.7 66.039 59.7306 66.089 C 59.6462 66.321 59.7572 66.505 59.7446 66.656 C 59.6096 67.066 59.4746 67.477 59.339 67.888 C 59.351 67.89 59.3629 67.891 59.3742 67.892 C 59.4387 67.838 59.5032 67.787 59.5677 67.735 C 59.579 67.736 59.5917 67.737 59.603 67.738 C 59.6588 67.754 59.716 67.773 59.7732 67.789 C 59.7725 67.801 59.7712 67.813 59.7699 67.824 C 59.1993 69.198 60.0518 71.066 59.9035 72.893 C 59.7925 74.261 59.8344 75.673 59.9068 77.136 C 59.9507 78.017 59.5338 78.81 59.4234 79.527 C 59.3237 80.168 59.4354 80.828 59.2592 81.526 C 59.2033 81.967 59.1481 82.41 59.0936 82.853 C 59.2293 83.37 59.3982 84.043 59.5218 84.592 C 59.7452 85.587 59.3882 86.343 59.8842 86.997 C 60.341 86.79 60.5791 85.442 60.4441 84.897 C 60.2114 83.946 59.4021 83.324 60.5312 82.608 C 60.5757 82.507 60.6203 82.404 60.6668 82.303 C 60.8125 82.128 61.3923 82.079 61.6808 82.05 C 61.7733 81.82 61.7686 81.605 61.982 81.515 C 62.4382 81.423 62.778 82.056 63.3584 81.898 C 63.7454 81.791 64.0167 81.517 64.5646 81.488 C 64.9808 81.465 65.2063 81.723 65.4503 81.822 C 65.8246 81.859 66.197 81.896 66.5713 81.933 C 67.0933 82.104 67.4677 82.269 68.0182 81.972 C 67.9983 81.933 67.9776 81.896 67.957 81.86 C 67.7908 81.759 67.7635 81.646 67.7921 81.384 C 67.8048 81.385 67.8154 81.387 67.8287 81.388 C 67.8227 81.717 68.1678 81.905 68.3693 81.971 C 68.5422 81.832 68.5588 80.897 68.7576 80.56 C 68.7948 80.563 68.8274 80.566 68.8626 80.57 C 68.6964 80.743 68.5242 81.022 68.6539 81.257 C 68.7217 81.153 68.6951 81.177 68.8068 81.131 C 68.7928 81.282 68.7762 81.434 68.7629 81.586 C 68.9325 81.623 68.9484 81.629 69.0814 81.582 C 69.1452 81.412 69.2091 81.242 69.2736 81.071 C 69.2097 80.994 69.1479 80.917 69.0841 80.84 C 69.1765 80.743 69.2689 80.646 69.3607 80.55 C 69.1399 80.506 69.0688 80.515 68.8673 80.536 C 68.8946 80.503 68.9218 80.469 68.9478 80.437 C 69.1013 80.429 69.2556 80.42 69.4092 80.412 C 69.4524 80.274 69.4996 80.066 69.626 80.01 C 69.6386 80.118 69.6526 80.224 69.6659 80.332 C 69.8361 80.278 70.0063 80.225 70.1765 80.17 C 70.1838 79.987 70.1287 80.015 70.2716 79.932 C 70.2656 79.979 70.2616 80.025 70.2577 80.072 C 70.2962 80.04 70.3341 80.009 70.3747 79.977 C 70.3195 79.666 70.4757 79.55 70.5489 79.288 C 71.265 79.269 71.4153 78.698 71.8854 78.29 C 71.7152 79.256 71.5656 79.679 71.2258 80.31 C 71.2451 80.335 71.2677 80.362 71.2903 80.386 C 71.5416 80.262 71.7544 80.379 72.0376 80.319 C 72.043 80.272 72.0476 80.225 72.0516 80.179 C 71.8608 80.101 71.9053 80.064 71.9399 79.885 C 72.0051 79.822 72.0702 79.756 72.1374 79.693 C 72.1487 79.694 72.1587 79.695 72.1713 79.696 C 72.1374 80.222 72.4466 80.063 72.5596 80.406 C 72.4153 80.38 72.2611 80.435 72.2165 80.655 C 72.2358 80.715 72.2531 80.776 72.271 80.838 C 72.2817 80.839 72.2916 80.84 72.3049 80.841 C 72.3608 80.703 72.3787 80.669 72.5037 80.614 C 72.7298 80.571 72.7558 80.611 72.9572 80.693 C 72.9665 80.706 72.9772 80.72 72.9878 80.732 C 72.9207 80.947 72.8834 80.863 72.922 81.043 C 73.0131 81.075 73.1035 81.109 73.1946 81.14 C 73.2345 81.097 73.2737 81.055 73.3143 81.011 C 73.3362 81.026 73.3568 81.039 73.3808 81.053 C 73.3914 81.183 73.3848 81.16 73.4326 81.235 C 73.5942 81.145 73.7578 81.055 73.92 80.965 C 73.8243 81.175 73.9852 81.305 74.1115 81.515 C 74.1361 81.505 74.1621 81.496 74.1853 81.485 C 74.1907 81.428 74.1973 81.37 74.202 81.31 C 74.2239 81.325 74.2458 81.338 74.2698 81.353 C 74.2545 81.387 74.2399 81.421 74.2246 81.454 C 74.0942 81.806 73.8762 82.221 73.6581 82.529 C 73.6175 82.377 73.672 82.445 73.5317 82.376 C 73.5477 82.447 73.565 82.52 73.5816 82.592 C 73.4878 82.868 73.4034 83.173 73.1507 83.362 C 73.0816 83.356 73.0104 83.348 72.9406 83.342 C 72.9878 83.346 73.0364 83.352 73.0822 83.356 C 73.1122 83.199 73.1368 83.218 73.0709 83.108 C 72.9812 83.168 72.8934 83.231 72.8056 83.293 C 72.7611 83.805 72.5111 84.803 72.5729 85.285 C 72.4206 85.269 72.3502 85.335 72.2371 85.464 C 72.2331 85.499 72.2291 85.533 72.2245 85.569 C 72.3555 85.558 72.4858 85.549 72.6181 85.537 C 72.672 85.34 72.7312 85.323 72.7677 85.062 Z M 71.8907 78.223 C 71.9 78.247 71.91 78.272 71.9166 78.296 C 71.9107 78.272 71.9 78.247 71.8907 78.223 Z M 71.0024 79.336 C 70.9532 79.355 70.9053 79.373 70.8547 79.393 C 70.8494 79.439 70.8441 79.487 70.8408 79.532 C 70.8747 79.547 70.9086 79.563 70.9419 79.578 C 70.9818 79.534 71.0203 79.492 71.0615 79.448 C 71.0416 79.411 71.0236 79.374 71.0024 79.336 Z M 71.2092 79.393 C 71.1812 79.554 71.1533 79.717 71.126 79.879 C 71.138 79.88 71.1486 79.882 71.1613 79.883 C 71.1852 79.873 71.2098 79.864 71.2351 79.854 C 71.249 79.82 71.263 79.786 71.279 79.753 C 71.2557 79.633 71.2331 79.512 71.2092 79.393 Z M 72.5842 79.776 C 72.6321 79.87 72.6188 79.785 72.5736 79.882 C 72.5516 79.855 72.5317 79.83 72.5104 79.803 C 72.5357 79.795 72.5596 79.785 72.5842 79.776 Z M 70.8661 79.641 C 70.8414 79.65 70.8162 79.66 70.7923 79.67 C 70.7843 79.751 70.7769 79.834 70.7683 79.915 C 70.8414 79.886 70.9159 79.858 70.9884 79.831 C 70.9937 79.795 70.9964 79.761 71.0004 79.726 C 70.9551 79.697 70.9106 79.67 70.8661 79.641 Z M 72.666 80.739 C 72.6607 80.856 72.6514 80.807 72.7179 80.921 C 72.7425 80.911 72.7671 80.901 72.791 80.893 C 72.7923 80.881 72.7937 80.869 72.7957 80.858 C 72.7538 80.818 72.7092 80.778 72.666 80.739 Z M 71.9153 80.807 C 71.8335 80.939 71.7504 81.072 71.666 81.205 C 71.6959 81.243 71.7298 81.283 71.7604 81.321 C 71.773 81.322 71.7836 81.323 71.7956 81.324 C 71.8249 81.28 71.8501 81.235 71.8781 81.191 C 71.8714 81.261 71.8641 81.331 71.8588 81.401 C 72.0709 81.298 72.1367 81.201 72.2551 80.98 C 72.2444 80.944 72.2385 80.909 72.2311 80.872 C 72.1267 80.85 72.0223 80.828 71.9153 80.807 Z M 72.5363 80.973 C 72.5543 81.034 72.5742 81.094 72.5902 81.155 C 72.6028 81.156 72.6115 81.157 72.6248 81.159 C 72.6288 81.124 72.6314 81.089 72.6354 81.054 C 72.6161 81.028 72.5935 81.003 72.5716 80.977 C 72.5609 80.976 72.551 80.975 72.5363 80.973 Z M 68.3294 80.628 C 68.3181 80.743 68.3081 80.86 68.2948 80.977 C 68.3081 80.86 68.3181 80.744 68.3294 80.628 Z M 72.908 81.152 C 72.8375 81.375 72.7817 81.291 72.7278 81.557 C 72.7817 81.779 72.7145 81.836 72.9014 81.963 C 72.9127 81.965 72.9233 81.965 72.9346 81.967 C 72.8828 81.548 72.91 81.586 73.0463 81.2 C 72.9985 81.184 72.9539 81.169 72.908 81.152 Z M 68.9803 80.833 C 69.0149 80.837 69.0495 80.84 69.0841 80.844 C 69.0568 80.877 69.0322 80.909 69.0036 80.942 C 68.9677 80.951 68.9325 80.959 68.8959 80.967 C 68.9231 80.921 68.9511 80.878 68.9803 80.833 Z M 68.8227 80.995 C 68.8274 81.065 68.87 81.036 68.7769 81.096 C 68.7935 81.063 68.8081 81.028 68.8227 80.995 Z M 72.2777 81.443 C 72.2298 81.55 72.2112 81.582 72.2192 81.685 C 72.2564 81.664 72.2923 81.644 72.3295 81.625 C 72.3362 81.566 72.3422 81.507 72.3462 81.449 C 72.3262 81.448 72.3016 81.445 72.2777 81.443 Z M 72.5237 81.468 C 72.4978 81.5 72.4718 81.533 72.4432 81.566 C 72.5536 81.788 72.4792 81.709 72.4798 81.922 C 72.4931 81.923 72.5018 81.925 72.5151 81.926 C 72.5643 81.896 72.6148 81.866 72.666 81.835 C 72.6414 81.714 72.6201 81.594 72.5962 81.475 C 72.5702 81.471 72.5483 81.469 72.5237 81.468 Z M 68.0741 81.062 C 68.1033 81.173 68.1219 81.163 67.9504 81.227 C 67.965 81.193 67.9803 81.158 67.9962 81.126 C 68.0701 81.083 68.0189 81.124 68.0741 81.062 Z M 67.9165 81.223 C 67.9264 81.247 67.9357 81.273 67.9444 81.296 C 67.9357 81.273 67.9258 81.247 67.9165 81.223 Z M 73.3834 82.435 C 73.3103 82.582 73.2358 82.729 73.164 82.875 C 73.2079 82.879 73.2558 82.884 73.303 82.889 C 73.3549 82.835 73.408 82.781 73.4599 82.727 C 73.4353 82.63 73.408 82.533 73.3834 82.435 Z M 72.4439 83.333 C 72.4053 83.364 72.3681 83.396 72.3282 83.428 C 72.3269 83.557 72.3256 83.687 72.3242 83.816 C 72.3488 83.807 72.3734 83.798 72.398 83.789 C 72.4459 83.64 72.4978 83.492 72.549 83.344 C 72.5144 83.34 72.4785 83.336 72.4439 83.333 Z M 72.1015 83.935 C 72.0064 83.949 71.912 83.963 71.8169 83.977 C 71.7491 84.205 71.6473 84.26 71.8821 84.374 C 71.9745 84.209 72.0809 84.216 72.1926 84.086 C 72.1587 84.003 72.164 83.995 72.1015 83.935 Z M 72.6055 84.94 C 72.6274 84.942 72.6507 84.944 72.6746 84.946 C 72.6507 84.944 72.6274 84.942 72.6055 84.94 Z M 73.0344 85.23 C 73.0098 85.24 72.9845 85.249 72.9606 85.259 C 73.0164 85.336 72.9585 85.283 73.059 85.339 C 73.0623 85.305 73.0656 85.269 73.0689 85.235 C 73.0583 85.233 73.047 85.231 73.0344 85.23 Z M 72.7744 85.699 C 72.7199 85.787 72.664 85.877 72.6095 85.966 C 72.6195 85.966 72.6314 85.968 72.6434 85.969 C 72.6667 85.958 72.6913 85.951 72.7172 85.94 C 72.7591 85.862 72.803 85.785 72.8448 85.705 C 72.8236 85.704 72.8003 85.701 72.7744 85.699 Z M 72.8675 85.849 C 72.8462 85.93 72.8269 86.009 72.8076 86.091 C 72.8203 86.093 72.8309 86.093 72.8429 86.095 C 72.8548 86.095 72.8661 86.096 72.8774 86.098 C 72.8874 86.015 72.8934 85.935 72.9014 85.852 C 72.8894 85.852 72.8774 85.85 72.8675 85.849 Z M 72.4725 86.269 C 72.426 86.372 72.3801 86.474 72.3349 86.574 C 72.293 86.535 72.2478 86.496 72.2059 86.457 C 72.164 86.736 72.0543 86.801 71.9406 86.995 C 72.1367 86.956 72.3887 86.851 72.5337 86.736 C 72.5284 86.575 72.5257 86.345 72.4725 86.269 Z M 70.5236 88.446 C 70.2377 89.156 69.7064 89.072 69.3274 89.458 C 69.3234 89.493 69.3201 89.528 69.3155 89.562 C 69.4305 89.597 69.5462 89.631 69.6592 89.667 C 69.8248 89.48 69.9199 89.264 70.1393 89.113 C 70.3315 89.218 70.499 89.269 70.7676 89.21 C 70.7809 89.176 70.7962 89.142 70.8102 89.109 C 70.7883 88.869 70.7131 88.56 70.5236 88.446 Z M 71.4326 88.535 C 71.5017 88.621 71.529 88.624 71.6407 88.592 C 71.5722 88.573 71.5024 88.555 71.4326 88.535 Z M 70.9645 88.631 C 70.9146 88.66 70.8654 88.693 70.8148 88.724 C 70.8228 88.77 70.8288 88.819 70.8361 88.867 C 70.9944 88.867 71.0802 88.993 71.1048 88.646 C 71.0569 88.64 71.0117 88.636 70.9645 88.631 Z M 71.5921 88.728 C 71.6487 88.806 71.5895 88.753 71.6892 88.809 C 71.634 88.731 71.6926 88.785 71.5921 88.728 Z M 71.3747 88.777 C 71.3834 88.815 71.3894 88.85 71.3973 88.887 C 71.4392 88.854 71.4764 88.823 71.515 88.791 C 71.4678 88.787 71.4206 88.781 71.3747 88.777 Z M 67.8772 89.102 C 67.8413 89.111 67.8061 89.118 67.7695 89.127 C 67.7881 89.174 67.8061 89.224 67.8267 89.275 C 67.7675 89.257 67.709 89.24 67.6532 89.222 C 67.6465 89.268 67.6425 89.315 67.6392 89.363 C 67.822 89.395 67.8174 89.38 67.9929 89.361 C 68.0089 89.316 68.0262 89.272 68.0428 89.225 C 68.0195 89.21 67.9989 89.196 67.975 89.183 C 67.9437 89.157 67.9091 89.129 67.8772 89.102 Z M 70.0834 89.322 C 70.0668 89.381 70.0475 89.436 70.0316 89.494 C 70.1267 89.491 70.2211 89.49 70.3148 89.486 C 70.36 89.503 70.4073 89.52 70.4511 89.535 C 70.4658 89.5 70.4837 89.467 70.4977 89.434 C 70.499 89.422 70.499 89.412 70.5003 89.398 C 70.3614 89.373 70.2237 89.348 70.0834 89.322 Z M 68.4803 89.446 C 68.4311 89.463 68.3826 89.482 68.3314 89.5 C 68.34 89.537 68.348 89.575 68.3553 89.609 C 68.3686 89.611 68.3799 89.612 68.3919 89.613 C 68.4285 89.605 68.4637 89.599 68.5009 89.59 C 68.5249 89.47 68.5501 89.541 68.4803 89.446 Z M 68.737 89.718 C 68.7224 89.752 68.7051 89.786 68.6918 89.817 C 68.7303 89.787 68.7682 89.756 68.8068 89.724 C 68.7849 89.724 68.7583 89.721 68.737 89.718 Z M 65.2687 92.591 C 65.3665 92.976 65.419 93.437 65.4543 93.919 C 65.5028 93.911 65.5507 93.904 65.5985 93.897 C 65.6271 93.855 65.6557 93.808 65.683 93.766 C 65.5454 93.479 65.6092 92.945 65.4782 92.613 C 65.409 92.605 65.3392 92.597 65.2687 92.591 Z M 64.8352 92.69 C 64.8532 92.738 64.8731 92.788 64.8911 92.837 C 64.8891 92.861 64.8864 92.883 64.8844 92.907 C 64.931 92.912 64.9788 92.917 65.0241 92.921 C 65.0387 92.886 65.054 92.854 65.0699 92.821 C 65.0699 92.807 65.0726 92.796 65.0739 92.786 C 64.9935 92.752 64.915 92.72 64.8352 92.69 Z M 67.9171 92.996 C 67.947 93.045 67.977 93.095 68.0082 93.147 C 68.2429 93.203 68.4903 93.272 68.6446 93.139 C 68.6459 93.127 68.6472 93.114 68.6485 93.103 C 68.4039 93.067 68.1598 93.031 67.9171 92.996 Z M 65.1431 92.792 C 65.0527 92.996 65.0806 93.137 65.2042 93.255 C 65.2308 93.234 65.2541 93.213 65.2807 93.191 C 65.28 93.074 65.28 92.956 65.2807 92.839 C 65.2355 92.824 65.1883 92.806 65.1431 92.792 Z M 64.5274 92.942 C 64.5014 92.952 64.4788 92.961 64.4549 92.969 C 64.4602 93.04 64.4642 93.113 64.4688 93.183 C 64.4788 93.184 64.4908 93.185 64.5034 93.187 C 64.538 93.179 64.5752 93.171 64.6125 93.163 C 64.5832 93.089 64.5546 93.016 64.5274 92.942 Z M 65.7096 93.164 C 65.695 93.391 65.7355 93.482 65.8406 93.603 C 65.8785 93.593 65.9131 93.587 65.9496 93.578 C 65.9536 93.531 65.9576 93.485 65.9629 93.438 C 65.8765 93.346 65.7927 93.256 65.7096 93.164 Z M 64.8851 93.259 C 64.8764 93.342 64.8691 93.423 64.8598 93.504 C 64.8964 93.508 64.9296 93.511 64.9635 93.516 C 64.9695 93.468 64.9748 93.421 64.9775 93.375 C 64.9483 93.338 64.9177 93.299 64.8851 93.259 Z M 64.5992 93.303 C 64.5799 93.372 64.5606 93.441 64.5433 93.511 C 64.5899 93.5 64.6397 93.496 64.6863 93.489 C 64.6929 93.431 64.6996 93.372 64.7036 93.312 C 64.6683 93.31 64.6324 93.306 64.5992 93.303 Z M 65.1584 93.357 C 65.1085 93.508 65.0573 93.653 65.0068 93.804 C 65.0194 93.805 65.03 93.806 65.0413 93.806 C 65.2102 93.757 65.2528 93.737 65.2834 93.513 C 65.2648 93.463 65.2448 93.416 65.2269 93.365 C 65.2042 93.362 65.183 93.361 65.1584 93.357 Z M 66.9084 93.531 C 66.9324 93.535 66.953 93.536 66.9776 93.539 C 66.9636 93.574 66.947 93.608 66.9324 93.64 C 66.9251 93.604 66.9158 93.567 66.9084 93.531 Z M 64.6836 93.524 C 64.6431 93.567 64.6032 93.61 64.5633 93.653 C 64.5706 93.699 64.5779 93.749 64.5845 93.797 C 64.5965 93.798 64.6085 93.8 64.6191 93.801 C 64.6956 93.748 64.7714 93.699 64.8472 93.647 C 64.8385 93.61 64.8319 93.574 64.8226 93.539 C 64.7747 93.534 64.7302 93.528 64.6836 93.524 Z M 63.7334 93.464 C 63.6197 93.81 63.8225 94.348 64.0041 94.66 C 64.028 94.649 64.0539 94.64 64.0779 94.629 C 64.1457 94.214 64.0586 93.743 63.8378 93.475 C 63.8026 93.471 63.768 93.468 63.7334 93.464 Z M 63.4661 93.65 C 63.4761 93.792 63.4848 93.935 63.4961 94.078 C 63.5426 94.082 63.5892 94.087 63.6364 94.092 C 63.6324 93.893 63.6031 93.746 63.4661 93.65 Z M 64.8957 93.863 C 64.8585 93.895 64.8199 93.926 64.7807 93.958 C 64.8013 93.985 64.8226 94.009 64.8445 94.035 C 64.9084 94.004 64.9682 93.976 65.0281 93.945 C 64.9848 93.919 64.9403 93.891 64.8957 93.863 Z M 65.2328 94.036 C 65.1457 94.089 65.0573 94.137 64.9695 94.188 C 65.0021 94.215 65.0347 94.241 65.0673 94.268 C 65.1477 94.276 65.2302 94.284 65.3126 94.292 C 65.314 94.28 65.314 94.27 65.3153 94.258 C 65.304 94.119 65.3086 94.115 65.2328 94.036 Z M 67.3633 94.284 C 67.3879 94.286 67.4091 94.288 67.4344 94.291 C 67.4091 94.288 67.3879 94.286 67.3633 94.284 Z M 64.3818 94.061 C 64.3791 94.094 64.3751 94.13 64.3718 94.165 C 64.3924 94.166 64.4156 94.169 64.4403 94.171 C 64.407 94.061 64.4449 94.13 64.3818 94.061 Z M 64.7674 94.097 C 64.7062 94.201 64.7415 94.096 64.7189 94.233 C 64.7674 94.215 64.8166 94.197 64.8651 94.176 C 64.8332 94.151 64.7986 94.125 64.7674 94.097 Z M 63.0692 94.105 C 63.0499 94.223 63.0273 94.182 63.0865 94.284 C 63.153 94.393 63.151 94.382 63.3212 94.413 C 63.2939 94.23 63.2421 94.17 63.0692 94.105 Z M 63.6596 94.554 C 63.7128 94.682 63.6816 94.651 63.8219 94.71 C 63.8046 94.663 63.784 94.613 63.766 94.564 C 63.7308 94.56 63.6962 94.558 63.6596 94.554 Z M 64.3804 94.764 C 64.3818 94.873 64.3691 94.883 64.4662 94.987 C 64.4708 94.941 64.4762 94.891 64.4801 94.848 C 64.4476 94.818 64.4143 94.793 64.3804 94.764 Z M 65.4961 94.947 C 65.4868 95.041 65.4769 95.133 65.4689 95.225 C 65.4795 95.227 65.4908 95.228 65.5035 95.229 C 65.5148 95.231 65.5254 95.233 65.538 95.233 C 65.5527 95.199 65.568 95.164 65.5826 95.132 C 65.556 95.044 65.5553 95.009 65.4961 94.947 Z M 64.5094 95.272 C 64.5121 95.356 64.5161 95.439 64.5187 95.522 C 64.6371 95.458 64.651 95.469 64.7162 95.33 C 64.6464 95.308 64.5766 95.292 64.5094 95.272 Z M 63.5599 95.215 C 63.5705 95.238 63.5779 95.264 63.5865 95.287 C 63.5779 95.264 63.5705 95.238 63.5599 95.215 Z M 63.5838 95.324 C 63.5932 95.347 63.6025 95.372 63.6118 95.398 C 63.6038 95.372 63.5932 95.347 63.5838 95.324 Z M 64.903 95.594 C 64.9243 95.597 64.9476 95.599 64.9722 95.602 C 64.9064 95.63 64.9602 95.631 64.903 95.594 Z M 64.6005 96.13 C 64.6251 96.133 64.6477 96.136 64.6703 96.139 C 64.6051 96.166 64.6597 96.168 64.6005 96.13 Z" id="svg_18" stroke="null" fill="#ffffff" transform=""/></g><g id="svg_22" display="null" clip-id="53" stroke="null" stroke-opacity="1" transform=""><path d="M 142.579 64.375 C 142.034 64.862 141.267 65.097 140.642 65.503 C 139.934 65.962 139.245 66.482 138.385 66.843 C 137.708 67.128 136.712 67.267 136.131 67.654 C 135.308 68.218 134.486 68.783 133.664 69.346 C 133.64 69.333 133.616 69.322 133.592 69.31 C 133.006 69.638 132.418 69.968 131.832 70.298 C 131.43 70.45 131.103 70.478 130.771 70.685 C 129.75 71.33 129.179 72.283 128.306 73.047 C 127.455 73.789 126.273 74.473 125.275 75.161 C 125.017 75.502 124.759 75.842 124.499 76.184 C 124.171 76.456 123.767 76.405 123.372 76.641 C 122.673 77.055 122.298 77.459 121.505 77.769 C 121.452 77.9 121.445 77.809 121.505 77.909 C 121.505 77.922 121.505 77.933 121.505 77.944 C 121.398 77.896 121.293 77.849 121.188 77.803 C 120.947 77.965 120.191 78.522 119.988 78.577 C 119.786 78.636 119.334 78.272 118.931 78.438 C 118.835 78.478 118.764 78.674 118.507 78.72 C 118.379 78.568 118.249 78.415 118.12 78.261 C 117.935 78.241 117.813 78.261 117.626 78.297 C 117.543 78.12 117.462 77.944 117.379 77.768 C 117.769 77.048 118.593 76.988 118.858 76.57 C 119.166 76.086 118.442 74.197 118.188 73.785 C 118.271 73.537 118.354 73.291 118.436 73.046 C 118.217 72.77 117.948 72.505 117.555 72.41 C 117.531 72.116 117.508 71.823 117.483 71.529 C 117.009 71.384 116.197 70.392 116.252 70.048 C 115.42 69.278 114.348 69.545 113.362 69.873 C 111.612 70.454 111.1 70.38 110.364 72.023 C 110.236 72.313 109.957 72.936 110.014 73.363 C 110.095 74.006 110.208 74.831 110.47 75.334 C 111.016 76.391 112.155 77.166 112.584 78.367 C 112.786 78.923 112.001 80.205 111.912 80.94 C 111.208 81.24 110.855 81.724 110.329 82.032 C 110.329 82.056 110.329 82.078 110.329 82.102 C 110.12 81.933 110.072 81.69 109.8 81.574 C 109.455 81.435 108.868 81.835 108.39 81.926 C 108.279 82.107 108.179 82.361 108.214 82.491 C 107.303 82.58 106.5 82.924 105.677 83.09 C 105.301 83.101 104.924 83.112 104.548 83.124 C 104.383 83.194 104.22 83.265 104.057 83.336 C 103.888 83.343 103.491 83.099 103.174 83.089 C 102.986 83.147 102.797 83.206 102.609 83.265 C 101.757 83.212 100.661 83.148 99.7545 83.123 C 99.6703 83.299 99.7041 83.379 99.7903 83.547 C 99.7903 83.558 99.7903 83.57 99.7903 83.581 C 98.8906 83.535 97.6157 83.194 96.724 83.406 C 95.443 83.724 94.1628 84.041 92.8812 84.359 C 92.317 84.393 91.7535 84.429 91.1873 84.463 C 90.4838 84.604 89.7791 84.745 89.075 84.886 C 88.176 85.027 87.2504 84.652 86.537 84.393 C 85.7494 84.416 84.9624 84.439 84.1761 84.463 C 84.0594 84.58 84.0037 85.159 84.1403 85.344 C 84.5388 86.05 85.2654 85.489 85.8667 85.838 C 86.0564 86.014 86.2433 86.191 86.4323 86.365 C 86.7638 86.573 87.3054 86.511 87.6303 86.648 C 87.9558 86.786 88.4305 87.056 88.7932 87.142 C 89.3316 87.271 90.0794 86.765 90.8743 86.894 C 91.8317 87.051 94.2483 87.351 95.3482 87.107 C 96.8108 86.782 98.3098 86.611 100.001 86.614 C 100.061 87.024 100.119 87.435 100.179 87.845 C 100.819 87.841 101.369 88.059 102.186 88.129 C 102.221 88.047 102.259 87.964 102.294 87.882 C 102.685 87.923 102.961 88.376 103.315 88.516 C 104.321 88.912 106.25 89.568 106.877 89.363 C 107.186 89.26 107.685 89.517 107.827 89.293 C 107.978 89.376 107.886 89.284 107.897 89.468 C 108.084 89.491 108.272 89.515 108.461 89.537 C 108.629 90.607 111.104 91.143 111.527 92.077 C 111.873 92.84 111.528 95.624 111.632 95.743 C 111.633 95.979 112.294 96.204 112.655 96.201 C 112.667 96.211 112.678 96.225 112.69 96.237 C 112.565 96.406 112.418 96.595 112.265 96.8 L 112.267 96.8 C 112.265 96.8 112.265 96.802 112.261 96.806 C 111.806 97.416 111.309 98.142 111.208 98.704 C 111.147 98.661 111.15 98.647 111.104 98.6 C 110.939 98.732 110.621 99.387 110.965 99.48 C 110.965 99.514 110.965 99.55 110.965 99.585 C 110.844 99.66 110.961 99.599 110.823 99.585 C 110.366 100.449 108.757 100.775 107.474 101.242 C 105.936 102.003 104.396 102.769 102.857 103.534 C 102.471 103.762 101.982 104.22 101.658 104.378 C 101.458 104.427 101.258 104.472 101.06 104.52 C 100.93 104.636 100.802 104.754 100.673 104.87 C 99.7784 105.161 98.7527 104.797 97.9233 105.224 C 97.4155 105.484 96.2592 105.993 95.3489 105.964 C 95.3615 105.999 95.3728 106.033 95.386 106.068 C 95.2587 106.093 95.1348 106.137 95.0121 106.181 C 95.0771 106.205 95.0466 106.181 95.1049 106.245 C 95.0081 106.204 95.0439 106.231 95.0042 106.184 C 94.8099 106.249 94.6183 106.316 94.4353 106.35 C 94.3895 106.245 94.2748 106.188 94.1316 106.149 C 94.1383 106.171 94.1449 106.191 94.1522 106.212 C 94.1171 106.221 94.0819 106.233 94.0455 106.245 C 94.0561 106.205 94.0653 106.172 94.0753 106.132 C 93.4779 106.015 92.3356 106.3 91.7555 106.422 C 91.6103 106.453 91.172 106.275 90.9453 106.245 C 90.8021 106.227 90.4573 106.282 90.3095 106.176 C 90.1623 106.091 90.2007 106.047 90.1683 105.929 C 89.484 105.784 88.8642 105.421 88.1594 105.82 C 87.6807 106.092 87.0999 106.906 86.5742 106.808 C 86.4409 106.997 86.7731 107.805 86.8911 108.112 C 87.033 108.486 87.4102 109.208 87.4201 109.664 C 87.3717 109.758 87.3253 109.853 87.2789 109.945 C 87.2922 110.473 87.3021 111.006 87.3141 111.533 C 86.8559 111.813 86.3965 112.096 85.9403 112.377 C 85.4994 112.639 84.9889 112.652 84.4924 112.906 C 84.2782 113.016 84.1801 113.278 83.9984 113.4 C 83.6822 113.53 83.3653 113.658 83.0477 113.788 C 82.4742 114.131 81.8059 114.544 81.2152 114.88 C 80.1312 115.491 79.1155 115.66 78.3961 116.641 C 78.4074 116.701 78.42 116.759 78.4306 116.818 C 78.4896 116.853 78.5479 116.887 78.6083 116.925 C 78.8808 117.045 79.0763 116.843 79.2063 116.712 C 79.2189 116.723 79.2308 116.737 79.2434 116.748 C 79.1944 116.888 79.1479 117.033 79.1009 117.171 C 78.1561 117.589 77.875 118.078 78.3603 118.932 C 78.3729 119.111 78.3835 119.285 78.3968 119.463 C 78.4903 119.513 78.5824 119.557 78.6779 119.606 C 78.8423 119.89 78.5228 120.08 78.9252 120.379 C 79.9754 120.573 80.2366 119.698 80.8989 119.393 C 81.123 119.346 81.3464 119.3 81.5692 119.253 C 81.8046 118.992 82.0393 118.739 82.274 118.477 C 82.9317 117.96 83.5887 117.442 84.249 116.927 C 84.5885 116.563 84.9293 116.199 85.2687 115.835 C 85.52 115.656 85.8542 115.6 86.1147 115.409 C 86.7552 114.95 87.0316 114.041 87.8067 113.683 C 90.1305 112.609 92.7871 111.988 95.4205 111.144 C 96.2844 110.869 97.1682 110.243 98.0984 110.018 C 99.9415 109.57 101.972 109.561 103.703 109.034 C 104.421 108.736 105.135 108.442 105.853 108.151 C 106.384 107.98 106.937 108.047 107.545 107.868 C 108.974 107.451 110.573 106.966 112.162 106.564 C 112.947 106.364 113.738 106.497 114.631 106.352 C 115.393 106.228 116.42 106.193 117.203 106.352 C 117.849 106.634 118.494 106.918 119.14 107.197 C 120.586 107.716 122.032 108.23 123.477 108.749 C 123.553 109.592 123.023 110.365 123.16 111.218 C 122.737 110.916 122.345 110.45 121.786 110.231 C 120.226 109.615 120.106 112.483 119.636 113.227 C 119.239 113.602 118.837 113.978 118.438 114.357 C 117.973 114.704 117.151 114.704 116.711 115.094 C 116.687 115.163 116.666 115.236 116.64 115.306 C 116.176 115.57 115.436 115.151 115.126 115.868 C 115.113 115.987 115.104 116.104 115.09 116.224 C 115.104 116.245 115.113 116.27 115.126 116.293 C 115.789 116.74 116.563 116.274 117.487 116.541 C 118.136 116.725 118.9 116.265 119.533 116.08 C 121.658 115.466 123.313 114.74 125.207 114.002 C 125.83 113.759 126.353 113.485 127.076 113.369 C 127.381 113.316 127.661 113.561 127.85 113.508 C 127.887 113.439 127.92 113.369 127.956 113.295 C 128.078 113.182 130.38 112.904 130.67 112.838 C 130.976 112.851 131.281 112.863 131.586 112.876 C 132.544 112.668 133.807 112.346 134.372 111.712 C 134.503 111.564 135.393 110.266 135.393 110.266 C 135.847 109.341 134.69 107.529 134.23 107.059 C 132.547 105.334 128.668 102.186 125.945 102.442 C 126.048 102.145 125.315 102.169 125.207 101.808 C 125.172 101.691 125.273 101.447 125.171 101.244 C 124.739 100.62 124.302 99.997 123.867 99.375 C 123.724 99.066 124.136 98.746 123.936 98.459 C 123.824 98.297 123.748 98.065 123.833 97.894 C 123.736 97.763 123.79 97.805 123.655 97.789 C 123.676 97.72 123.793 97.653 123.655 97.579 C 123.668 97.496 123.679 97.413 123.693 97.33 C 123.797 96.743 123.903 96.157 124.01 95.568 C 124.351 94.439 124.452 93.09 124.677 91.691 C 124.715 90.785 124.749 89.881 124.785 88.977 C 124.995 88.131 125.207 87.284 125.418 86.439 C 125.441 85.911 125.465 85.382 125.489 84.854 C 125.664 84.104 126.713 83.418 127.18 82.773 C 127.747 81.992 128.041 80.59 128.098 79.354 C 128.367 79.383 128.56 79.093 128.803 79.002 C 128.989 78.966 129.177 78.932 129.368 78.897 C 130.065 78.483 129.764 76.717 129.508 75.971 C 130.059 75.517 130.515 74.9 131.061 74.42 C 131.306 74.303 131.553 74.186 131.8 74.068 C 132.545 73.503 133.5 73.038 134.162 72.376 C 135.148 71.296 136.136 70.214 137.122 69.133 C 137.428 69.051 137.732 68.968 138.039 68.888 C 138.792 68.498 139.543 68.111 140.295 67.724 C 140.4 67.56 140.506 67.396 140.612 67.23 C 141.094 66.831 141.574 66.432 142.057 66.031 C 142.174 65.82 142.293 65.608 142.41 65.398 C 142.651 65.141 143.125 64.607 142.579 64.375 Z" id="svg_23" stroke="null" transform=""/></g></g></svg>