<?xml version="1.0" encoding="utf-8"?>
<!-- Generator: Adobe Illustrator 16.0.0, SVG Export Plug-In . SVG Version: 6.00 Build 0)  -->
<!DOCTYPE svg PUBLIC "-//W3C//DTD SVG 1.1//EN" "http://www.w3.org/Graphics/SVG/1.1/DTD/svg11.dtd">
<svg version="1.1"
	 id="svg378" xmlns:cc="http://creativecommons.org/ns#" xmlns:dc="http://purl.org/dc/elements/1.1/" xmlns:rdf="http://www.w3.org/1999/02/22-rdf-syntax-ns#"
	 xmlns="http://www.w3.org/2000/svg" xmlns:xlink="http://www.w3.org/1999/xlink" x="0px" y="0px" width="143.447px"
	 height="71.281px" viewBox="0 0 143.447 71.281" enable-background="new 0 0 143.447 71.281" xml:space="preserve">
<polygon fill="#38A100" points="95.249,71.375 95.249,20.374 18.203,71.412 "/>
<polygon fill="#C70000" points="95.249,16.721 95.249,0.159 81.66,0.033 0,52.832 0,71.434 13.669,71.414 "/>
<path fill="#3662A2" d="M75.754,0L0,0.032v48.981L76.276,0H75.754z M32.676,25.588l-3.233-1.953l-1.871,3.289l-1.821-3.311
	l-3.265,1.917l0.08-3.781l-3.781,0.03l1.959-3.239l-3.286-1.864l3.313-1.828l-1.911-3.26l3.781,0.071l-0.021-3.78l3.233,1.953
	l1.872-3.291l1.82,3.311l3.265-1.916l-0.08,3.78l3.78-0.03l-1.959,3.237l3.287,1.865l-3.313,1.827l1.911,3.26l-3.781-0.07
	L32.676,25.588z M27.647,9.85c-3.831,0-6.938,3.082-6.938,6.883c0,3.804,3.105,6.885,6.938,6.885s6.938-3.083,6.938-6.885
	C34.585,12.932,31.478,9.85,27.647,9.85z M27.647,22.166c-3,0-5.433-2.434-5.433-5.434s2.433-5.432,5.433-5.432
	s5.433,2.432,5.433,5.432C33.079,19.732,30.646,22.166,27.647,22.166z"/>
<path fill="#FFE700" d="M34.523,18.619l3.313-1.827l-3.287-1.865l1.959-3.237l-3.78,0.03l0.08-3.78l-3.265,1.916l-1.82-3.311
	l-1.872,3.291l-3.233-1.953l0.021,3.78l-3.781-0.071l1.911,3.26l-3.313,1.828l3.286,1.864l-1.959,3.239l3.781-0.03l-0.079,3.781
	l3.264-1.917l1.821,3.311l1.872-3.289l3.232,1.953l-0.021-3.783l3.781,0.072L34.523,18.619z M27.647,23.617
	c-3.831,0-6.938-3.083-6.938-6.885c0-3.801,3.105-6.883,6.938-6.883s6.938,3.082,6.938,6.883
	C34.585,20.536,31.478,23.617,27.647,23.617z M33.079,16.732c0,3-2.433,5.434-5.433,5.434s-5.433-2.434-5.433-5.434
	s2.433-5.432,5.433-5.432S33.079,13.732,33.079,16.732z"/>
</svg>
