<?xml version="1.0" encoding="utf-8"?>
<!-- Generator: Adobe Illustrator 16.0.3, SVG Export Plug-In . SVG Version: 6.00 Build 0)  -->
<!DOCTYPE svg PUBLIC "-//W3C//DTD SVG 1.1//EN" "http://www.w3.org/Graphics/SVG/1.1/DTD/svg11.dtd">
<svg version="1.1" id="Layer_1" xmlns="http://www.w3.org/2000/svg" xmlns:xlink="http://www.w3.org/1999/xlink" x="0px" y="0px"
	 width="95.503px" height="83.05px" viewBox="-0.013 0 95.503 83.05" enable-background="new -0.013 0 95.503 83.05"
	 xml:space="preserve">
<path fill="#B00B00" d="M94.4,20.2c1.133,4.1,1.383,8.55,0.75,13.35c-1.6,7.067-4.867,12.517-9.8,16.35c-4.9,3.833-10.117,7.317-15.65,10.45
	c-2.967,2.033-5.8,4.2-8.5,6.5l-3.1,2.9c-3,2.6-5.633,5.566-7.9,8.9c-1.1,1.233-1.9,2.7-2.4,4.4l-0.9-2l-2.8-4.2
	c-3.8-4.934-8.25-9.217-13.35-12.85l-14.7-9.25c-5-3.033-9.1-6.917-12.3-11.65c-1.333-2.1-2.367-4.517-3.1-7.25
	c-0.867-4.3-0.883-8.667-0.05-13.1C2.133,14.117,5.9,7.733,11.9,3.6c2.033-1.367,4.4-2.4,7.1-3.1l2.6-0.45L22.7,0
	c5.133,0.066,9.333,1.1,12.6,3.1c3.3,2.033,6.017,4.583,8.15,7.65c1.767,2.167,3.167,4.6,4.2,7.3l0.05,0.05
	c3.267-8.034,8.966-13.6,17.1-16.7l4-0.9c4.367-0.434,8.1,0.083,11.2,1.55C87.467,5.383,92.267,11.434,94.4,20.2 M83.15,30.75
	c-0.367-2.066-0.883-3.967-1.55-5.7C79.533,20.017,76,16.467,71,14.4c-4.3-1.533-8.333-1.517-12.1,0.05
	c-3.767,1.566-6.617,3.616-8.55,6.15c-1.067,1.1-1.934,2.35-2.6,3.75H47.7l-0.75-1.25l-2-2.8c-3.1-4.466-8.233-6.883-15.4-7.25
	l-2.9,0.45c-2.033,0.5-3.833,1.267-5.4,2.3c-4.6,3.134-7.533,7.983-8.8,14.55c-0.667,3.133-0.717,6.316-0.15,9.55
	c0.567,2.434,1.434,4.567,2.6,6.4c2.467,3.6,5.583,6.534,9.35,8.8l11.1,7.1c3.733,2.733,6.933,5.966,9.6,9.7l1.2,2.3
	c0.5,1,1.1,1.5,1.8,1.5c0.566-0.2,1.066-0.75,1.5-1.65l1.15-2.2c2.267-3.1,4.883-5.867,7.85-8.3c2-1.667,4.1-3.25,6.3-4.75l9.35-6.1
	c3.033-2.1,5.467-4.817,7.3-8.15C83.367,40.783,83.95,36.184,83.15,30.75 M81.75,39.7c-1.367,4.733-3.8,8.4-7.3,11
	c-3.467,2.6-7.117,5.033-10.95,7.3c-5.533,3.566-10.217,7.95-14.05,13.15l-1.7,3.05l-0.05,0.1c-0.233-0.833-0.583-1.55-1.05-2.15
	l-3.1-4.25l-1.65-1.65c-1.033-1.233-2.183-2.316-3.45-3.25l-5.7-4.3c-6.367-3.167-11.767-7.317-16.2-12.45
	c-2.566-3.233-3.617-7.7-3.15-13.4c0.233-1.767,0.55-3.417,0.95-4.95c0.867-2.9,2.15-5.383,3.85-7.45c1.8-2.233,4.15-3.95,7.05-5.15
	l2.7-0.7l1.5-0.2c7.3,0.4,12.367,3,15.2,7.8c1.3,1.533,2.3,3.283,3,5.25l0.05,0.05c2.333-5.767,6.383-9.767,12.15-12
	C64.183,14.233,68,14.4,71.3,16c3.3,1.6,5.784,3.75,7.45,6.45c1.133,1.9,2,4.066,2.6,6.5C82.283,32.383,82.417,35.967,81.75,39.7
	 M56.7,24.95l6.15-0.15c4.9,1.5,7.933,4.867,9.1,10.1c0.633,2.467,0.7,5.034,0.2,7.7c-0.967,3.3-2.7,5.9-5.2,7.8
	c-2.5,1.867-5.117,3.583-7.85,5.15c-4.7,2.967-8.483,6.85-11.35,11.65v0.1H47.7c-0.967-2.3-2.35-4.233-4.15-5.8
	c-1.867-1.934-3.933-3.65-6.2-5.15c-3.233-1.7-6.567-3.967-10-6.8c-3.4-2.833-4.833-6.833-4.3-12l0.7-3.6
	c0.633-2.034,1.533-3.784,2.7-5.25c1.4-1.867,3.316-3.2,5.75-4l2.15-0.4c5.933,0.3,9.933,2.534,12,6.7l1.35,2.55v0.1l0.65-1.3
	l1.3-2.15C51.317,27.767,53.667,26.017,56.7,24.95 M49.4,28.35c-0.633,0.667-1.167,1.417-1.6,2.25l-0.1,0.1
	c-0.467-0.9-1.034-1.7-1.7-2.4c-2.267-3.366-6.083-5.167-11.45-5.4l-2.35,0.4c-1.5,0.4-2.833,1.017-4,1.85
	c-3.6,2.534-5.733,6.567-6.4,12.1c-0.3,2.033-0.233,3.967,0.2,5.8c0.4,1.634,1,3.1,1.8,4.4c1.8,2.6,4.1,4.716,6.9,6.35
	c2.767,1.634,5.45,3.367,8.05,5.2c2.633,1.934,4.9,4.25,6.8,6.95l0.85,1.75c0.3,0.7,0.817,1.017,1.55,0.95
	c1.033-0.633,1.75-1.6,2.15-2.9c1.667-2.267,3.566-4.267,5.7-6l8.8-6c3.066-1.934,5.55-4.383,7.45-7.35
	c1.6-2.7,2.117-6.117,1.55-10.25c-0.3-1.667-0.733-3.216-1.3-4.65c-1.5-3.566-4.033-6.083-7.6-7.55
	c-3.167-1.134-6.133-1.15-8.9-0.05C53.033,24.967,50.9,26.45,49.4,28.35"/>
</svg>
