<?xml version="1.0" encoding="utf-8"?>
<!-- Generator: Adobe Illustrator 16.0.3, SVG Export Plug-In . SVG Version: 6.00 Build 0)  -->
<!DOCTYPE svg PUBLIC "-//W3C//DTD SVG 1.1//EN" "http://www.w3.org/Graphics/SVG/1.1/DTD/svg11.dtd">
<svg version="1.1"
	 id="svg2" xmlns:dc="http://purl.org/dc/elements/1.1/" xmlns:cc="http://creativecommons.org/ns#" xmlns:rdf="http://www.w3.org/1999/02/22-rdf-syntax-ns#" xmlns:sodipodi="http://sodipodi.sourceforge.net/DTD/sodipodi-0.dtd" xmlns:inkscape="http://www.inkscape.org/namespaces/inkscape" inkscape:version="0.91 r13725" xmlns:ns1="http://sozi.baierouge.fr"
	 xmlns="http://www.w3.org/2000/svg" xmlns:xlink="http://www.w3.org/1999/xlink" x="0px" y="0px" width="288px" height="213.234px"
	 viewBox="0 109.383 288 213.234" enable-background="new 0 109.383 288 213.234" xml:space="preserve">
<path fill="#EAD683" d="M44.277,190.722c0.381,0.613,0.673,1.316,0.875,2.101l0.905,2.101c0.209,0.381,0.381,0.792,0.583,1.204
	c4.411,10.161,7.395,16.523,8.995,19.125v0.292l0.292,0.292l0.299,0.613c1.6,1.608,3.096,2.28,4.494,2.108
	c0.792,0,1.488-0.209,2.071-0.613c0.823-0.792,1.608-2.19,2.4-4.179c0-0.411,0.112-0.905,0.321-1.488
	c0.374-1.405,0.785-2.804,1.196-4.209c8.553-32.681,14.049-53.533,16.441-62.497h1.196c1.376,0,2.692-0.09,3.888-0.292
	c0.404,0.583,0.785,1.398,1.196,2.393c1.375,3.769,7.477,15.746,18.22,35.896l5.697,10.452c0.583,0.995,1.196,1.989,1.779,2.983
	c6.198,11.357,9.877,17.637,11.073,18.833c4.202,3.798,8.179,2.4,11.97-4.172c0.59-0.995,1.495-2.691,2.691-5.084
	c4.994-9.959,15.365-31.395,31.103-64.314h4.5c0.375,1.204,0.988,2.893,1.78,5.084c1.397,4.792,5.779,16.972,13.174,36.508
	c3.559,9.959,6.452,17.525,8.673,22.722c0.785,2.19,1.488,4,2.07,5.375c0.613,1.398,0.995,2.303,1.197,2.684
	c1.195,2.019,2.19,3.095,3.013,3.304c1.368,0.404,3.178-1.084,5.368-4.471c1.196-2.019,3.799-6.804,7.768-14.37
	c0.793-1.779,1.817-3.588,3.014-5.375c0.374-1.196,0.994-2.393,1.779-3.589l6.281-12.561c5.988-11.97,10.279-20.531,12.852-25.727
	c1.018,0.202,2.213,0.292,3.589,0.292v2.393l0.613,5.989c0.179,0.785,0.292,1.689,0.292,2.684v1.488c0,1.817,0.09,3.506,0.291,5.084
	c0.411,5.607,0.703,10.781,0.904,15.566l4.18-11.648c0.814,0.172,1.607,0.292,2.393,0.292l-1.196,35.888
	c2.393-7.387,6.774-21.346,13.174-41.876c0.202,0,0.403,0.112,0.583,0.292l-2.982,16.763c-7.59,24.71-11.971,38.086-13.167,40.067
	c-0.792,1.607-2.19-15.245-4.179-50.549c-1.197-14.138-1.779-20.621-1.779-19.424c0,0.793-5.197,11.447-15.566,31.978
	c-10.169,20.157-16.441,32.217-18.842,36.188c-2.19,3.215-4,4.703-5.368,4.5c-0.822-0.209-1.817-1.405-3.013-3.596
	c-0.994-1.981-4.965-12.262-11.94-30.811c-7.395-19.335-11.776-31.484-13.174-36.479c-1.607-4.785-2.692-7.679-3.305-8.673
	c-0.374-0.785-0.875-0.583-1.487,0.613c-20.531,42.849-32.3,67.088-35.283,72.666c-3.791,6.393-7.769,7.678-11.97,3.887
	c-1.376-0.994-7.566-11.655-18.55-32.014c-10.542-19.918-16.643-31.888-18.22-35.866c-3.006-6.976-4.703-9.488-5.084-7.477
	c-0.403,1.204-6.684,25.122-18.833,71.761c-1.024,4.209-2.602,6.28-4.792,6.28c-1.398,0.202-2.894-0.501-4.494-2.071
	c-0.792-0.822-4.471-8.68-11.073-23.633c-6.161-14.572-10.161-24.329-11.948-29.316c-0.815-1.989-1.518-3.686-2.101-5.084
	c-1.196-2.804-2.281-4.292-3.297-4.501v-4.172c1.196,0,2.393-0.09,3.589-0.292c0.613,1.196,1.196,2.684,1.809,4.463
	C34.991,168.292,38.669,177.375,44.277,190.722L44.277,190.722z M245.533,292.119c9.375-3.005,15.064-5.98,17.054-8.994
	c-1.397,15.163-33.002,23.746-94.804,25.734c-30.108,0.785-55.634-0.904-76.576-5.084l-22.722-6.893l14.954,3.917
	c17.144,2.19,43.574,2.886,79.268,2.071C199.186,301.877,226.781,298.288,245.533,292.119L245.533,292.119z"/>
<path fill="#D8BA25" d="M247.021,152.142c-1.376,0-2.571-0.09-3.589-0.292c-1.787-0.583-3.477-1.697-5.084-3.305
	c-2.393-2.564-3.596-5.578-3.596-8.964c0-3.387,1.203-6.281,3.596-8.673c2.393-2.392,5.286-3.596,8.673-3.596
	s6.399,1.204,8.964,3.596c2.4,2.393,3.598,5.286,3.598,8.673c0,3.387-1.197,6.4-3.598,8.964
	C253.42,150.946,250.408,152.142,247.021,152.142L247.021,152.142z M267.671,168c-0.792-0.209-1.607-0.583-2.399-1.196
	c-0.613-0.411-1.107-0.792-1.488-1.196c-2.191-2.19-3.297-4.792-3.297-7.775c0-0.613,0.111-1.107,0.291-1.488
	c0.202-2.19,1.196-4.202,3.006-5.989c1.988-1.981,4.471-3.005,7.477-3.005c2.983,0,5.578,1.024,7.768,3.005
	c1.989,2.191,2.984,4.673,2.984,7.477c0,2.983-0.995,5.585-2.984,7.775c-2.189,1.981-4.784,3.006-7.768,3.006
	c-1.017,0-2.012-0.12-3.006-0.322C268.074,168.112,267.873,168,267.671,168L267.671,168z M258.385,278.662l-0.291,1.779
	c-2.4,1.988-8.681,4-18.842,5.988h-0.904c-21.323,4-52.628,5.981-93.899,5.981c-21.144,0-39.776-0.695-55.925-2.101
	c-7.365-1.196-16.239-3.186-26.609-5.989c-11.185-2.773-17.346-9.958-18.542-21.518c-2.804-28.307-4.292-42.759-4.501-43.372
	c-2.191-8.964-3.97-17.937-5.376-26.901c-0.785-4.792-1.398-9.578-1.809-14.37L31.103,168c0.583,1.398,1.286,3.095,2.101,5.084
	c1.787,4.987,5.787,14.744,11.948,29.316c6.602,14.954,10.28,22.811,11.073,23.633c1.6,1.57,3.096,2.273,4.494,2.071
	c2.19,0,3.768-2.071,4.792-6.28c12.149-46.639,18.43-70.557,18.833-71.761c0.381-2.011,2.079,0.501,5.084,7.477
	c1.577,3.978,7.678,15.948,18.22,35.866c10.983,20.359,17.174,31.02,18.55,32.014c4.202,3.791,8.179,2.506,11.97-3.887
	c2.983-5.578,14.752-29.817,35.282-72.666c0.613-1.196,1.114-1.398,1.488-0.613c0.612,0.994,1.696,3.888,3.305,8.673
	c1.397,4.994,5.779,17.144,13.174,36.479c6.976,18.549,10.946,28.83,11.94,30.811c1.195,2.191,2.19,3.387,3.013,3.596
	c1.368,0.203,3.178-1.285,5.368-4.5c2.4-3.971,8.673-16.03,18.842-36.188c10.369-20.531,15.565-31.185,15.565-31.978
	c0-1.196,0.583,5.286,1.78,19.424c1.988,35.305,3.387,52.157,4.179,50.549c1.196-1.98,5.607-15.356,13.167-40.067l-2.102,11.948
	c-1.196,6.393-2.07,16.352-2.684,29.906c-0.793,12.381-1.406,27.627-1.779,45.765L258.385,278.662L258.385,278.662z M20.65,182.049
	l1.488,3.88c1.578,4.412,3.769,8.591,6.572,12.591l-0.292-10.19c-0.209-0.209-0.292-0.501-0.292-0.882
	c0.172,0.381,0.374,0.792,0.583,1.204l-0.905-25.151l8.381,115.163l-7.477-3.305c-0.995-20.33-1.899-36.592-2.692-48.74
	c-0.785-11.163-1.488-18.752-2.101-22.722L20.65,182.049L20.65,182.049z M239.252,286.43c10.161-1.988,16.441-4,18.842-5.988
	l0.291-1.779c0.202-0.412,0.322-0.793,0.322-1.204c0-2.393,0.082-4.673,0.291-6.886c0.785,0.403,1.6,0.904,2.393,1.518
	c8.763,6.16,11.155,13.055,7.186,20.621c-8.382,6.975-18.258,12.059-29.615,15.244c-21.145,5.779-53.331,8.673-96.613,8.673
	c-42.669,0-73.652-2.894-92.987-8.673c-2.4-0.793-5.084-1.898-8.09-3.275c-1.406-1.988-2.482-4.492-3.305-7.477v-0.612
	c-0.994-3.769,0.703-6.161,5.114-7.185c0.785-0.173,1.689-0.292,2.684-0.292l0.875,0.292c20.74,4.612,50.063,6.803,87.94,6.602
	c44.658-0.412,76.868-2.894,96.613-7.477C234.168,287.738,236.859,287.043,239.252,286.43z M245.533,292.119
	c-18.752,6.169-46.348,9.758-82.826,10.752c-35.694,0.814-62.124,0.119-79.268-2.071l-14.954-3.917l22.722,6.893
	c20.942,4.18,46.467,5.869,76.576,5.084c61.802-1.988,93.406-10.571,94.804-25.734C260.598,286.139,254.908,289.114,245.533,292.119
	L245.533,292.119z M26.931,275.648c-2.602,2.602-4.209,5.496-4.792,8.673c-0.411,3.798,0.381,7.305,2.393,10.489
	c-1.017-0.612-2.101-1.315-3.297-2.1c-5.375-7.776-3.477-14.662,5.697-20.621V275.648z M176.463,142.266h-4.5
	c-2.805-0.583-5.197-1.892-7.186-3.88c-2.773-2.774-4.18-5.989-4.18-9.548c0-3.798,1.406-6.983,4.18-9.585
	c2.602-2.594,5.697-3.88,9.286-3.88c3.769,0,6.983,1.286,9.556,3.88c2.594,2.602,3.88,5.787,3.88,9.585
	c0,3.559-1.286,6.774-3.88,9.548C181.63,140.374,179.237,141.682,176.463,142.266z M88.232,145.278
	c-1.196,0.202-2.512,0.292-3.888,0.292h-1.196c-3.185-0.381-5.899-1.697-8.089-3.888c-2.774-2.594-4.18-5.779-4.18-9.578
	c0-3.768,1.406-6.983,4.18-9.547c2.602-2.602,5.697-3.918,9.286-3.918c3.769,0,6.983,1.316,9.555,3.918
	c2.595,2.564,3.88,5.75,3.88,9.547c0,3.798-1.286,6.983-3.88,9.578C92.321,143.29,90.422,144.486,88.232,145.278z M31.395,159.036
	c-1.196,0.202-2.393,0.292-3.589,0.292c-2.191,0-4.18-0.583-5.959-1.787c-0.822-0.404-1.607-1.017-2.393-1.809
	c-1.607-1.578-2.721-3.387-3.305-5.376c-0.202-0.987-0.292-1.981-0.292-3.005c0-3.185,1.196-5.959,3.596-8.352
	c2.393-2.393,5.167-3.596,8.352-3.596c3.387,0,6.28,1.204,8.673,3.596c2.393,2.191,3.589,4.964,3.589,8.352
	c0,3.387-1.196,6.19-3.589,8.381C34.901,157.338,33.204,158.422,31.395,159.036z M20.329,171.88c-0.381,0-0.792,0.12-1.196,0.292
	h-2.4c-2.976,0-5.458-0.987-7.477-2.976c-2.19-2.19-3.267-4.792-3.267-7.768c0-3.006,1.077-5.608,3.267-7.769
	c1.81-2.019,4.12-3.095,6.894-3.305c0.583,1.989,1.697,3.798,3.305,5.376c0.785,0.792,1.57,1.406,2.393,1.809
	c1.779,1.204,3.768,1.787,5.959,1.787v2.976c-0.18,2.602-1.286,4.905-3.275,6.894C23.133,170.393,21.727,171.297,20.329,171.88z
	 M28.127,187.447c0,0.381,0.083,0.703,0.292,0.882l0.292,10.19c-2.774-4-4.995-8.179-6.572-12.59l-1.488-3.88l-1.518-9.877
	c0.404-0.172,0.815-0.292,1.196-0.292l1.809,4.501C23.514,180.149,25.525,183.858,28.127,187.447z"/>
<path fill="#5C4A10" d="M255.693,173.989c-0.785,0-1.578-0.12-2.393-0.292c-1.375-0.411-2.684-1.204-3.888-2.4
	c-0.403-0.613-0.785-1.107-1.196-1.518c-0.201-1.577-0.291-3.267-0.291-5.084v-1.488c0-0.995-0.113-1.899-0.292-2.684
	c0.382-0.995,0.994-1.899,1.779-2.691c1.817-1.81,4.007-2.685,6.571-2.685c1.607,0,3.216,0.381,4.793,1.196
	c-0.18,0.381-0.291,0.875-0.291,1.488c0,2.983,1.105,5.585,3.297,7.775c0.381,0.404,0.875,0.785,1.488,1.196
	c-0.404,1.81-1.197,3.297-2.393,4.494c-1.779,1.787-4.09,2.691-6.895,2.691H255.693L255.693,173.989z M243.432,151.851
	c-2.602,5.196-6.863,13.757-12.852,25.727l-6.281,12.561c-0.785,1.196-1.405,2.393-1.779,3.589
	c-1.024-3.798-2.108-8.179-3.305-13.167c-1.398-5.787-2.482-10.28-3.297-13.465c2.19-0.583,4.09-1.697,5.697-3.275
	c2.19-2.19,3.268-4.785,3.268-7.798c0-2.976-1.077-5.458-3.268-7.477c-2.191-2.191-4.793-3.268-7.769-3.268
	c-3.013,0-5.495,1.077-7.477,3.268c-2.221,2.019-3.305,4.501-3.305,7.477c0,3.013,1.084,5.607,3.305,7.798
	c1.569,1.787,3.559,2.894,5.951,3.275L200.09,206.58c-2.221-5.196-5.114-12.763-8.673-22.722
	c-7.395-19.537-11.776-31.716-13.174-36.508c-0.793-2.191-1.405-3.88-1.78-5.084c2.774-0.583,5.167-1.892,7.156-3.88
	c2.594-2.774,3.88-5.989,3.88-9.548c0-3.798-1.286-6.983-3.88-9.585c-2.572-2.594-5.787-3.88-9.556-3.88
	c-3.589,0-6.685,1.286-9.286,3.88c-2.773,2.602-4.18,5.787-4.18,9.585c0,3.559,1.406,6.774,4.18,9.548
	c1.988,1.989,4.381,3.297,7.186,3.88c-15.738,32.919-26.109,54.355-31.103,64.314c-2.191-4.583-5.084-11.858-8.673-21.847
	c-3.387-9.548-5.667-15.738-6.864-18.512c2.774-0.209,5.167-1.204,7.155-3.013c2.011-2.191,3.005-4.785,3.005-7.768
	c0-2.976-0.994-5.578-3.005-7.769c-2.19-2.19-4.792-3.297-7.768-3.297c-2.983,0-5.578,1.106-7.769,3.297
	c-2.19,2.191-3.305,4.792-3.305,7.769c0,2.983,1.114,5.577,3.305,7.768c1.981,1.809,4.381,2.804,7.185,3.013l-9.002,30.781
	c-0.583-0.995-1.196-1.989-1.779-2.983l-5.697-10.452c-10.744-20.149-16.845-32.127-18.22-35.896
	c-0.412-0.994-0.792-1.809-1.196-2.393c2.19-0.792,4.089-1.989,5.667-3.596c2.595-2.594,3.88-5.779,3.88-9.578
	c0-3.768-1.286-6.983-3.88-9.547c-2.602-2.602-5.787-3.918-9.555-3.918c-3.588,0-6.684,1.316-9.286,3.918
	c-2.774,2.564-4.18,5.75-4.18,9.547c0,3.798,1.406,6.983,4.18,9.578c2.19,2.191,4.904,3.477,8.089,3.888
	c-2.392,8.964-7.888,29.816-16.441,62.497c-2.602-3.97-6.4-12.06-11.395-24.209c-2.393-5.607-4.262-10.079-5.66-13.465
	c1.196-0.613,2.273-1.398,3.267-2.393c1.81-1.779,2.714-4.09,2.714-6.863c0-2.804-0.905-5.114-2.714-6.894
	c-1.989-1.989-4.262-2.976-6.863-2.976c-2.602,0-4.875,0.987-6.894,2.976c-1.981,1.989-2.976,4.292-2.976,6.894
	c0,2.773,0.994,5.084,2.976,6.863c1.607,1.607,3.506,2.594,5.697,2.976c-0.202,2.019-0.292,4.411-0.292,7.185
	c-0.202,4.209-0.292,8.381-0.292,12.561c-5.608-13.346-9.286-22.43-11.073-27.223c-0.613-1.779-1.196-3.267-1.809-4.463
	c1.809-0.613,3.506-1.697,5.084-3.305c2.393-2.191,3.589-4.964,3.589-8.381c0-3.387-1.196-6.161-3.589-8.352
	c-2.393-2.393-5.286-3.596-8.673-3.596c-3.185,0-5.959,1.204-8.352,3.596c-2.4,2.393-3.596,5.167-3.596,8.352
	c0,1.024,0.09,2.019,0.292,3.005c-2.804,0.209-5.084,1.286-6.894,3.305c-2.19,2.191-3.267,4.763-3.267,7.769
	c0,2.976,1.077,5.578,3.267,7.768c2.019,1.989,4.501,2.976,7.477,2.976h2.4l1.518,9.877l3.268,21.847
	c0.613,3.97,1.315,11.559,2.101,22.722c0.792,12.149,1.697,28.41,2.692,48.74l7.477,3.305l-8.381-115.163
	c1.017,0.209,2.101,1.697,3.297,4.501l0.583,10.161c0.411,4.792,1.024,9.578,1.809,14.37c1.406,8.964,3.185,17.937,5.376,26.901
	c0.209,0.613,1.697,15.065,4.501,43.372c1.196,11.56,7.357,18.744,18.542,21.518c10.37,2.804,19.245,4.793,26.609,5.989
	c16.149,1.405,34.781,2.101,55.925,2.101c41.271,0,72.576-1.981,93.899-5.981h0.904c-2.393,0.613-5.084,1.309-8.06,2.102
	c-19.745,4.583-51.955,7.064-96.613,7.477c-37.877,0.201-67.2-1.989-87.94-6.602l-0.875-0.292c-0.995,0-1.899,0.119-2.684,0.292
	c-4.412,1.023-6.108,3.387-5.114,7.185v0.612c0.822,2.984,1.899,5.488,3.305,7.477c3.006,1.377,5.69,2.482,8.09,3.275
	c19.334,5.779,50.318,8.673,92.987,8.673c43.282,0,75.469-2.894,96.613-8.673c11.357-3.186,21.233-8.27,29.615-15.244
	c3.97-7.566,1.577-14.461-7.186-20.621c-0.793-0.613-1.607-1.114-2.393-1.518c-0.209,2.213-0.291,4.493-0.291,6.886
	c0,0.382-0.12,0.792-0.322,1.204l0.322-5.989c0.373-18.138,0.986-33.384,1.779-45.765c0.613-13.555,1.487-23.514,2.684-29.906
	l2.102-11.948l2.982-16.763c0.994,0.202,1.989,0.322,3.006,0.322c2.983,0,5.578-1.024,7.768-3.006
	c1.989-2.19,2.984-4.792,2.984-7.775c0-2.804-0.995-5.286-2.984-7.477c-2.189-1.981-4.784-3.005-7.768-3.005
	c-3.006,0-5.488,1.024-7.477,3.005c-1.81,1.787-2.804,3.798-3.006,5.989c-1.577-0.815-3.186-1.196-4.793-1.196
	c-2.564,0-4.754,0.875-6.571,2.685c-0.785,0.792-1.398,1.697-1.779,2.691l-0.613-5.989v-2.393c3.387,0,6.399-1.196,8.964-3.596
	c2.4-2.564,3.597-5.578,3.597-8.965c0-3.387-1.196-6.28-3.597-8.673c-2.564-2.392-5.577-3.596-8.964-3.596s-6.28,1.204-8.673,3.596
	s-3.596,5.286-3.596,8.673c0,3.387,1.203,6.4,3.596,8.965C239.955,150.153,241.645,151.267,243.432,151.851L243.432,151.851z
	 M260.194,126.729c3.589,3.596,5.376,7.888,5.376,12.852l-0.299,2.685c1.787-0.583,3.798-0.875,5.988-0.875
	c4.591,0,8.561,1.578,11.947,4.792c3.186,3.185,4.793,7.065,4.793,11.649c0,4.381-1.406,8.179-4.18,11.364
	c-3.006,3.185-6.602,4.994-10.773,5.375l-3.889,23.626c-1.779,10.37-3.297,33.413-4.5,69.099c5.585,3.769,9.174,8.18,10.781,13.145
	c1.607,4.994,1.106,10.078-1.488,15.274l-1.495,1.779l-0.905,0.583c-8.785,7.186-19.334,12.471-31.715,15.858
	c-21.728,5.786-54.206,8.681-97.488,8.681c-39.664,0-69.48-2.49-89.428-7.477c-11.357-2.805-21.727-7.566-31.073-14.341
	l-3.918-3.013c-0.785-0.202-1.368-0.785-1.779-1.779c-3.387-5.197-4.493-10.281-3.297-15.245c1.196-4.792,4.292-8.995,9.286-12.591
	c-1.196-31.888-2.602-53.032-4.209-63.372l-3.88-26.639c-3.97-0.785-7.357-2.684-10.161-5.667C1.286,169.286,0,165.607,0,161.428
	c0-7.387,3.297-12.561,9.869-15.566c0.411-4.583,2.28-8.471,5.667-11.656c3.387-3.178,7.477-4.785,12.269-4.785
	c4.583,0,8.673,1.488,12.262,4.494c3.387,3.185,5.286,6.983,5.697,11.364h0.292c4.381,0,8.06,1.578,11.073,4.785
	c2.976,2.983,4.463,6.662,4.463,11.073c0,4.583-1.488,8.351-4.463,11.357l7.477,18.549l11.065-41.592
	c-7.185-3.769-10.774-9.578-10.774-17.346c0-5.375,1.899-9.958,5.69-13.757c3.978-3.768,8.561-5.667,13.757-5.667
	c5.376,0,9.959,1.899,13.757,5.667c3.768,3.798,5.667,8.381,5.667,13.757c0,6.774-2.602,12.06-7.768,15.858l17.054,33.211
	l3.275-11.073c-5.787-3.387-8.681-8.292-8.681-14.662c0-4.583,1.697-8.583,5.084-11.97c3.387-3.395,7.387-5.084,11.978-5.084
	c4.583,0,8.583,1.689,11.97,5.084c3.185,3.387,4.792,7.387,4.792,11.97c0,6.19-2.714,10.953-8.089,14.34l2.684,7.477
	c1.809,5.608,3.596,10.482,5.405,14.662l22.43-46.64c-6.19-4-9.285-9.465-9.285-16.441c0-5.406,1.898-9.989,5.689-13.757
	c3.978-3.798,8.561-5.697,13.757-5.697c5.376,0,9.959,1.899,13.757,5.697c3.769,3.768,5.668,8.351,5.668,13.757
	c0,7.559-3.186,13.136-9.549,16.733c2.774,9.577,7.971,23.716,15.537,42.467l5.368-17.645c-5.167-3.185-7.769-7.97-7.769-14.37
	c0-4.583,1.607-8.553,4.793-11.94c3.387-3.185,7.387-4.792,11.978-4.792c4.583,0,8.554,1.608,11.94,4.792
	c3.387,3.387,5.084,7.357,5.084,11.94c0,6.19-2.684,10.983-8.061,14.37l1.78,5.989l11.073-22.43
	c-4.592-3.597-6.864-8.381-6.864-14.37c0-4.965,1.78-9.256,5.368-12.853c3.597-3.589,7.889-5.368,12.853-5.368
	C252.217,121.361,256.598,123.14,260.194,126.729L260.194,126.729z M253.301,173.697l-4.18,11.648
	c-0.201-4.785-0.493-9.959-0.904-15.566c0.411,0.411,0.793,0.905,1.196,1.518C250.617,172.494,251.926,173.286,253.301,173.697
	L253.301,173.697z M265.271,166.804c0.792,0.613,1.607,0.987,2.399,1.196c-6.399,20.531-10.781,34.49-13.174,41.876l1.196-35.888
	h0.291c2.805,0,5.115-0.905,6.895-2.691C264.074,170.101,264.867,168.613,265.271,166.804z M27.806,163.499l0.905,25.151
	c-0.209-0.411-0.381-0.822-0.583-1.204c-2.602-3.589-4.613-7.267-5.989-11.065l-1.809-4.501c1.398-0.583,2.804-1.488,4.202-2.684
	c1.989-1.989,3.095-4.292,3.275-6.894V163.499L27.806,163.499z M26.931,275.648v-3.559c-9.174,5.959-11.073,12.845-5.697,20.621
	c1.196,0.784,2.281,1.487,3.297,2.1c-2.011-3.185-2.804-6.691-2.393-10.489C22.722,281.145,24.329,278.25,26.931,275.648z
	 M215.918,167.095h-3.597c-2.393-0.381-4.382-1.488-5.951-3.275c-2.221-2.19-3.305-4.785-3.305-7.798
	c0-2.976,1.084-5.458,3.305-7.477c1.981-2.191,4.464-3.268,7.477-3.268c2.976,0,5.577,1.077,7.769,3.268
	c2.19,2.019,3.268,4.501,3.268,7.477c0,3.013-1.077,5.607-3.268,7.798C220.008,165.398,218.108,166.512,215.918,167.095z
	 M66.707,208.067c-0.411,1.405-0.822,2.804-1.196,4.209c-0.209,0.583-0.321,1.077-0.321,1.488c-0.792,1.989-1.578,3.387-2.4,4.179
	c-0.583,0.404-1.278,0.613-2.071,0.613c-1.398,0.172-2.894-0.5-4.494-2.108l-0.299-0.613l-0.292-0.292v-0.292
	c-1.6-2.602-4.583-8.964-8.995-19.125c-0.172-0.411-0.374-0.822-0.583-1.204l-0.905-2.101c-0.202-0.785-0.494-1.488-0.875-2.101
	c0-4.18,0.089-8.352,0.292-12.561c0-2.774,0.089-5.166,0.292-7.185h1.196c1.196,0,2.393-0.172,3.596-0.583
	c1.398,3.387,3.267,7.858,5.66,13.465C60.307,196.007,64.104,204.097,66.707,208.067L66.707,208.067z M200.09,206.58l12.231-39.484
	h3.597c0.814,3.185,1.898,7.679,3.297,13.465c1.196,4.987,2.28,9.369,3.305,13.167c-1.196,1.787-2.221,3.596-3.014,5.376
	c-3.969,7.566-6.571,12.351-7.768,14.37c-2.19,3.387-4,4.875-5.368,4.471c-0.822-0.209-1.817-1.285-3.013-3.304
	c-0.202-0.381-0.584-1.286-1.197-2.684C201.578,210.58,200.875,208.77,200.09,206.58z M140.86,206.58
	c-1.196,2.393-2.101,4.089-2.692,5.084c-3.791,6.572-7.768,7.97-11.97,4.172c-1.196-1.196-4.875-7.477-11.073-18.833l9.002-30.781
	h1.196c1.196,2.773,3.477,8.964,6.864,18.512C135.776,194.722,138.669,201.996,140.86,206.58L140.86,206.58z M125.323,166.221
	h-1.196c-2.804-0.209-5.204-1.204-7.185-3.013c-2.19-2.191-3.305-4.785-3.305-7.768c0-2.976,1.114-5.578,3.305-7.769
	c2.191-2.19,4.785-3.297,7.769-3.297c2.976,0,5.577,1.106,7.768,3.297c2.011,2.191,3.005,4.792,3.005,7.769
	c0,2.983-0.994,5.577-3.005,7.768C130.49,165.017,128.097,166.011,125.323,166.221L125.323,166.221z M49.652,170.393
	c-1.204,0.381-2.4,0.583-3.596,0.583H44.86c-2.191-0.381-4.09-1.368-5.697-2.976c-1.981-1.779-2.976-4.09-2.976-6.864
	c0-2.602,0.994-4.904,2.976-6.893c2.019-1.989,4.292-2.976,6.894-2.976c2.602,0,4.875,0.987,6.863,2.976
	c1.81,1.779,2.714,4.089,2.714,6.893c0,2.774-0.905,5.084-2.714,6.864C51.925,168.994,50.849,169.779,49.652,170.393z"/>
</svg>
