<?xml version="1.0" encoding="utf-8"?>
<!-- Generator: Adobe Illustrator 16.0.0, SVG Export Plug-In . SVG Version: 6.00 Build 0)  -->
<!DOCTYPE svg PUBLIC "-//W3C//DTD SVG 1.1//EN" "http://www.w3.org/Graphics/SVG/1.1/DTD/svg11.dtd">
<svg version="1.1" id="Layer_1" xmlns="http://www.w3.org/2000/svg" xmlns:xlink="http://www.w3.org/1999/xlink" x="0px" y="0px"
	 width="84.367px" height="97.458px" viewBox="0 0 84.367 97.458" enable-background="new 0 0 84.367 97.458" xml:space="preserve">
<path d="M81.184,45.476c0.528,0,0.957,0.428,0.957,0.956c0,0.528-0.429,0.956-0.957,0.956c-0.527,0-0.955-0.428-0.955-0.956
	C80.229,45.904,80.656,45.476,81.184,45.476z M83.177,22.605c0.657,0,1.19,0.533,1.19,1.19s-0.533,1.19-1.19,1.19
	s-1.19-0.533-1.19-1.19S82.52,22.605,83.177,22.605z M79.001,31.519c0.725,0,1.312,0.587,1.312,1.312s-0.587,1.312-1.312,1.312
	s-1.312-0.587-1.312-1.312S78.276,31.519,79.001,31.519z M77.048,24.74c0.894,0,1.617,0.724,1.617,1.617s-0.724,1.617-1.617,1.617
	s-1.616-0.724-1.616-1.617S76.154,24.74,77.048,24.74z M80.482,38.322c0.613,0,1.11,0.497,1.11,1.111
	c0,0.613-0.497,1.111-1.11,1.111s-1.111-0.498-1.111-1.111C79.371,38.819,79.869,38.322,80.482,38.322z M76.771,9.915
	c0.859,0,1.556,0.697,1.556,1.556s-0.696,1.556-1.556,1.556s-1.557-0.696-1.557-1.556S75.912,9.915,76.771,9.915z M73.875,38.889
	c0.856,0,1.551,0.694,1.551,1.551s-0.694,1.551-1.551,1.551s-1.551-0.695-1.551-1.551S73.019,38.889,73.875,38.889z M80.341,16.078
	c0.774,0,1.403,0.628,1.403,1.403s-0.629,1.403-1.403,1.403s-1.403-0.628-1.403-1.403S79.566,16.078,80.341,16.078z M74.456,18.746
	c0.978,0,1.769,0.792,1.769,1.769s-0.791,1.769-1.769,1.769s-1.769-0.792-1.769-1.769S73.479,18.746,74.456,18.746z M82.598,6.194
	c0.605,0,1.098,0.492,1.098,1.098S83.203,8.39,82.598,8.39c-0.607,0-1.099-0.492-1.099-1.098S81.99,6.194,82.598,6.194z
	 M67.333,56.624c0.741,0,1.343,0.602,1.343,1.344s-0.602,1.343-1.343,1.343s-1.343-0.601-1.343-1.343S66.592,56.624,67.333,56.624z
	 M66.333,62.801c0.57,0,1.033,0.463,1.033,1.033s-0.463,1.033-1.033,1.033S65.3,64.405,65.3,63.834S65.763,62.801,66.333,62.801z
	 M74.518,45.114c0.842,0,1.524,0.682,1.524,1.524c0,0.841-0.683,1.524-1.524,1.524s-1.523-0.683-1.523-1.524
	C72.994,45.796,73.676,45.114,74.518,45.114z M60.73,60.645c0.872,0,1.58,0.707,1.58,1.58s-0.708,1.58-1.58,1.58
	c-0.873,0-1.58-0.707-1.58-1.58S59.857,60.645,60.73,60.645z M68.393,50.846c0.898,0,1.627,0.729,1.627,1.628
	s-0.729,1.628-1.627,1.628c-0.9,0-1.629-0.729-1.629-1.628S67.492,50.846,68.393,50.846z M64.242,68.137
	c0.561,0,1.014,0.453,1.014,1.014s-0.453,1.014-1.014,1.014s-1.014-0.453-1.014-1.014S63.682,68.137,64.242,68.137z M59.176,65.728
	c0.779,0,1.411,0.632,1.411,1.411s-0.632,1.41-1.411,1.41s-1.41-0.631-1.41-1.41S58.396,65.728,59.176,65.728z M74,51.779
	c0.728,0,1.316,0.59,1.316,1.317c0,0.727-0.589,1.316-1.316,1.316s-1.316-0.59-1.316-1.316C72.684,52.369,73.272,51.779,74,51.779z
	 M70.945,26.326c1.111,0,2.014,0.901,2.014,2.014s-0.902,2.014-2.014,2.014c-1.113,0-2.014-0.902-2.014-2.014
	S69.832,26.326,70.945,26.326z M72.775,32.611c0.977,0,1.769,0.792,1.769,1.769s-0.792,1.769-1.769,1.769
	c-0.978,0-1.77-0.792-1.77-1.769S71.798,32.611,72.775,32.611z M68.291,44.752c1.057,0,1.912,0.856,1.912,1.912
	c0,1.056-0.855,1.912-1.912,1.912s-1.912-0.856-1.912-1.912C66.379,45.608,67.234,44.752,68.291,44.752z M57.796,49.491
	c1.226,0,2.22,0.993,2.22,2.219c0,1.227-0.994,2.221-2.22,2.221s-2.22-0.994-2.22-2.221C55.576,50.484,56.57,49.491,57.796,49.491z
	 M57.123,54.067c1.133,0,2.051,0.918,2.051,2.051s-0.918,2.051-2.051,2.051s-2.051-0.918-2.051-2.051S55.99,54.067,57.123,54.067z
	 M56.096,58.864c1.08,0,1.956,0.877,1.956,1.957c0,1.081-0.876,1.957-1.956,1.957c-1.082,0-1.957-0.876-1.957-1.957
	C54.139,59.741,55.014,58.864,56.096,58.864z M57.958,44.858c1.196,0,2.165,0.969,2.165,2.165s-0.969,2.165-2.165,2.165
	s-2.165-0.969-2.165-2.165S56.762,44.858,57.958,44.858z M52.701,53.364c1.168,0,2.113,0.947,2.113,2.114s-0.945,2.114-2.113,2.114
	s-2.114-0.947-2.114-2.114S51.533,53.364,52.701,53.364z M62.846,39.537c1.141,0,2.066,0.925,2.066,2.067s-0.926,2.067-2.066,2.067
	c-1.143,0-2.068-0.925-2.068-2.067S61.703,39.537,62.846,39.537z M62.984,44.783c1.123,0,2.033,0.91,2.033,2.033
	c0,1.123-0.91,2.033-2.033,2.033s-2.033-0.91-2.033-2.033C60.951,45.693,61.861,44.783,62.984,44.783z M53.111,0.371
	c1.087,0,1.969,0.881,1.969,1.969s-0.882,1.969-1.969,1.969c-1.088,0-1.969-0.882-1.969-1.969S52.023,0.371,53.111,0.371z
	 M53.318,6.616c1.19,0,2.156,0.965,2.156,2.156s-0.966,2.156-2.156,2.156c-1.191,0-2.156-0.965-2.156-2.156
	S52.127,6.616,53.318,6.616z M54.684,63.643c0.967,0,1.75,0.783,1.75,1.751c0,0.967-0.783,1.751-1.75,1.751
	c-0.968,0-1.752-0.784-1.752-1.751C52.932,64.426,53.716,63.643,54.684,63.643z M60.042,6.957c1.214,0,2.196,0.983,2.196,2.197
	s-0.982,2.197-2.196,2.197s-2.196-0.984-2.196-2.197S58.828,6.957,60.042,6.957z M62.559,50.075c1.092,0,1.978,0.885,1.978,1.977
	c0,1.094-0.886,1.979-1.978,1.979c-1.093,0-1.979-0.885-1.979-1.979C60.58,50.959,61.466,50.075,62.559,50.075z M50.41,61.809
	c1.082,0,1.959,0.877,1.959,1.959s-0.877,1.959-1.959,1.959s-1.959-0.877-1.959-1.959S49.328,61.809,50.41,61.809z M51.697,57.573
	c1.135,0,2.057,0.92,2.057,2.055c0,1.136-0.922,2.056-2.057,2.056c-1.133,0-2.053-0.92-2.053-2.056
	C49.645,58.493,50.564,57.573,51.697,57.573z M48.646,65.903c0.998,0,1.808,0.81,1.808,1.809c0,0.998-0.81,1.808-1.808,1.808
	c-0.999,0-1.809-0.81-1.809-1.808C46.838,66.712,47.647,65.903,48.646,65.903z M65.516,28.157c1.213,0,2.196,0.983,2.196,2.197
	s-0.983,2.197-2.196,2.197c-1.214,0-2.197-0.983-2.197-2.197S64.302,28.157,65.516,28.157z M61.669,18.367
	c1.229,0,2.228,0.997,2.228,2.227c0,1.23-0.998,2.227-2.228,2.227s-2.228-0.997-2.228-2.227
	C59.441,19.364,60.439,18.367,61.669,18.367z M59.02,13.986c1.298,0,2.35,1.052,2.35,2.349s-1.052,2.349-2.35,2.349
	c-1.297,0-2.349-1.052-2.349-2.349S57.723,13.986,59.02,13.986z M68.932,21.08c1.145,0,2.073,0.929,2.073,2.074
	c0,1.146-0.929,2.074-2.073,2.074c-1.146,0-2.074-0.929-2.074-2.074C66.857,22.009,67.785,21.08,68.932,21.08z M63.844,23.235
	c1.208,0,2.188,0.979,2.188,2.187c0,1.208-0.979,2.187-2.188,2.187c-1.207,0-2.187-0.979-2.187-2.187
	C61.657,24.214,62.637,23.235,63.844,23.235z M71.402,13.209c1.061,0,1.922,0.86,1.922,1.922s-0.861,1.922-1.922,1.922
	c-1.063,0-1.922-0.86-1.922-1.922S70.34,13.209,71.402,13.209z M67.925,8.208c1.062,0,1.923,0.86,1.923,1.922
	s-0.861,1.922-1.923,1.922s-1.922-0.86-1.922-1.922S66.863,8.208,67.925,8.208z M64.066,3.772c1.044,0,1.891,0.847,1.891,1.891
	s-0.847,1.891-1.891,1.891c-1.045,0-1.892-0.847-1.892-1.891S63.021,3.772,64.066,3.772z M68.063,39.204
	c1.056,0,1.912,0.856,1.912,1.912c0,1.056-0.856,1.912-1.912,1.912c-1.057,0-1.912-0.856-1.912-1.912
	C66.15,40.06,67.006,39.204,68.063,39.204z M72.41,4.303c1.011,0,1.83,0.819,1.83,1.83s-0.819,1.83-1.83,1.83s-1.83-0.819-1.83-1.83
	S71.399,4.303,72.41,4.303z M61.979,34.521c1.264,0,2.289,1.024,2.289,2.288s-1.025,2.288-2.289,2.288s-2.287-1.024-2.287-2.288
	S60.715,34.521,61.979,34.521z M67.05,33.751c1.095,0,1.982,0.887,1.982,1.982s-0.888,1.982-1.982,1.982s-1.981-0.887-1.981-1.982
	S65.955,33.751,67.05,33.751z M62.4,55.474c1.049,0,1.9,0.851,1.9,1.901c0,1.049-0.852,1.9-1.9,1.9c-1.051,0-1.901-0.852-1.901-1.9
	C60.499,56.325,61.35,55.474,62.4,55.474z M63.258,11.32c1.246,0,2.258,1.011,2.258,2.257c0,1.246-1.012,2.257-2.258,2.257
	s-2.257-1.011-2.257-2.257C61.001,12.331,62.012,11.32,63.258,11.32z M66.217,15.773c1.195,0,2.165,0.969,2.165,2.165
	s-0.97,2.165-2.165,2.165s-2.165-0.969-2.165-2.165S65.021,15.773,66.217,15.773z M56.632,3.603c1.16,0,2.101,0.94,2.101,2.1
	c0,1.16-0.94,2.1-2.101,2.1c-1.159,0-2.1-0.94-2.1-2.1C54.532,4.543,55.473,3.603,56.632,3.603z M19.573,88.946
	c0.744,0,1.347,0.604,1.347,1.348s-0.603,1.347-1.347,1.347c-0.744,0-1.347-0.603-1.347-1.347S18.829,88.946,19.573,88.946z
	 M20.887,91.86c0.66,0,1.196,0.535,1.196,1.196s-0.536,1.196-1.196,1.196c-0.661,0-1.196-0.535-1.196-1.196
	S20.227,91.86,20.887,91.86z M17.823,92.997c0.605,0,1.096,0.49,1.096,1.096s-0.491,1.096-1.096,1.096
	c-0.605,0-1.096-0.49-1.096-1.096S17.218,92.997,17.823,92.997z M16.695,90.092c0.711,0,1.288,0.578,1.288,1.289
	s-0.577,1.287-1.288,1.287c-0.711,0-1.288-0.576-1.288-1.287S15.984,90.092,16.695,90.092z M28.142,84.153
	c0.798,0,1.445,0.646,1.445,1.445c0,0.798-0.647,1.445-1.445,1.445c-0.798,0-1.445-0.647-1.445-1.445
	C26.697,84.799,27.344,84.153,28.142,84.153z M14.86,94.01c0.605,0,1.096,0.49,1.096,1.096s-0.491,1.096-1.096,1.096
	c-0.605,0-1.096-0.49-1.096-1.096S14.255,94.01,14.86,94.01z M26.85,89.017c0.751,0,1.36,0.608,1.36,1.36
	c0,0.75-0.609,1.359-1.36,1.359s-1.36-0.609-1.36-1.359C25.49,89.625,26.099,89.017,26.85,89.017z M23.847,90.44
	c0.683,0,1.237,0.554,1.237,1.236c0,0.684-0.554,1.238-1.237,1.238s-1.237-0.555-1.237-1.238
	C22.61,90.994,23.164,90.44,23.847,90.44z M4.453,95.471c0.548,0,0.993,0.444,0.993,0.992c0,0.549-0.444,0.994-0.993,0.994
	S3.46,97.012,3.46,96.463C3.46,95.916,3.905,95.471,4.453,95.471z M22.527,87.53c0.766,0,1.387,0.621,1.387,1.387
	c0,0.767-0.621,1.388-1.387,1.388s-1.387-0.621-1.387-1.388C21.14,88.151,21.761,87.53,22.527,87.53z M6.685,92.431
	c0.634,0,1.149,0.515,1.149,1.149s-0.515,1.148-1.149,1.148c-0.635,0-1.149-0.514-1.149-1.148S6.05,92.431,6.685,92.431z
	 M0.188,11.341c-0.393,4.289-0.059,8.727,0.009,13.028c0.143,9.157,0.281,18.31,0.327,27.467C0.589,64.995,0.865,78.17,0.22,91.307
	h0.633c-0.001,0.02-0.001,0.041-0.001,0.061c0,0.605,0.49,1.096,1.097,1.096c0.479,0,0.885-0.309,1.035-0.735
	c0.169,0.424,0.583,0.724,1.067,0.724c0.628,0,1.139-0.502,1.15-1.129c0.16,0.473,0.608,0.813,1.136,0.813
	c0.614,0,1.12-0.459,1.192-1.053c0.16,0.472,0.604,0.81,1.129,0.81c0.544,0,1.004-0.367,1.146-0.865
	c0.242,0.334,0.635,0.554,1.079,0.554c0.653,0,1.196-0.472,1.307-1.09c0.257,0.282,0.629,0.465,1.043,0.465
	c0.773,0,1.402-0.627,1.402-1.402l-0.001-0.016c0.256,0.332,0.658,0.545,1.108,0.545c0.773,0,1.4-0.627,1.4-1.4
	c0-0.057-0.002-0.109-0.008-0.164c0.275,0.354,0.705,0.58,1.188,0.58c0.833,0,1.508-0.676,1.508-1.508
	c0-0.412-0.166-0.785-0.433-1.057l0.203-0.074c0.063,0.772,0.711,1.383,1.503,1.383c0.832,0,1.508-0.676,1.508-1.508
	c0-0.148-0.022-0.293-0.062-0.428c0.296,0.336,0.731,0.545,1.212,0.545c0.896,0,1.622-0.726,1.622-1.619
	c0-0.359-0.116-0.689-0.313-0.957l0.026-0.017c0.289,0.449,0.792,0.746,1.366,0.746c0.898,0,1.627-0.729,1.627-1.625
	c0-0.201-0.037-0.394-0.102-0.567c0.262,0.164,0.573,0.258,0.906,0.258c0.249,0,0.485-0.053,0.699-0.146
	c-0.221,0.271-0.354,0.619-0.354,0.998c0,0.875,0.709,1.584,1.584,1.584s1.585-0.709,1.585-1.584s-0.709-1.584-1.585-1.584
	c-0.217,0-0.424,0.043-0.612,0.123c0.254-0.303,0.408-0.689,0.408-1.113c0-0.336-0.097-0.648-0.263-0.914
	c0.292,0.229,0.661,0.365,1.061,0.365c0.952,0,1.723-0.773,1.723-1.725c0-0.35-0.104-0.676-0.283-0.947
	c0.263,0.164,0.573,0.258,0.905,0.258c0.943,0,1.709-0.764,1.709-1.707c0-0.662-0.377-1.236-0.929-1.521l0.051-0.055
	c0.322,0.396,0.809,0.646,1.357,0.646c0.968,0,1.753-0.785,1.753-1.755c0-0.391-0.127-0.748-0.342-1.041
	c0.239,0.113,0.506,0.179,0.788,0.179c1.014,0,1.836-0.821,1.836-1.836c0-0.606-0.294-1.146-0.748-1.479
	c0.209,0.084,0.437,0.129,0.675,0.129c0.541,0,1.027-0.234,1.363-0.605c-0.021,0.111-0.032,0.229-0.032,0.348
	c0,1.053,0.852,1.906,1.906,1.906c1.052,0,1.906-0.854,1.906-1.906c0-0.611-0.289-1.152-0.734-1.502
	c0.188,0.061,0.387,0.094,0.594,0.094c1.063,0,1.922-0.86,1.922-1.922c0-1.061-0.859-1.922-1.922-1.922
	c-0.661,0-1.244,0.336-1.592,0.844c0.031-0.133,0.048-0.27,0.048-0.412c0-0.571-0.261-1.084-0.667-1.428
	c0.07,0.01,0.145,0.012,0.217,0.012c0.585,0,1.107-0.27,1.449-0.69c0.057,1.065,0.938,1.912,2.017,1.912
	c1.116,0,2.021-0.903,2.021-2.019c0-0.692-0.348-1.307-0.879-1.668c1.197-0.067,2.146-1.061,2.146-2.274
	c0-0.593-0.227-1.131-0.596-1.537c0.822-0.344,1.4-1.155,1.4-2.103c0-0.709-0.324-1.34-0.828-1.758
	c0.875-0.315,1.502-1.156,1.502-2.143c0-0.783-0.396-1.475-0.998-1.885c0.527-0.26,0.938-0.721,1.13-1.284
	c0.288,0.794,1.014,1.378,1.885,1.461c-1.104,0.081-1.979,1.003-1.979,2.132c0,1.182,0.957,2.141,2.14,2.141
	c1.18,0,2.139-0.959,2.139-2.141c0-1.109-0.848-2.022-1.928-2.128c1.155-0.081,2.069-1.045,2.069-2.224
	c0-1.231-0.998-2.229-2.229-2.229c-0.977,0-1.807,0.629-2.109,1.504c-0.211-0.589-0.662-1.062-1.233-1.303
	c0.621-0.202,1.123-0.666,1.377-1.261c0.414,0.608,1.108,1.008,1.899,1.008c1.113,0,2.043-0.792,2.254-1.842
	c0.289,0.93,1.158,1.605,2.185,1.605c1.261,0,2.283-1.022,2.283-2.284c0-1.263-1.022-2.285-2.283-2.285
	c-1.104,0-2.026,0.785-2.239,1.826c-0.216-0.693-0.748-1.247-1.431-1.488c0.565-0.326,0.979-0.89,1.104-1.555
	c0.381,0.711,1.129,1.195,1.992,1.195c1.246,0,2.256-1.01,2.256-2.258c0-1.233-0.988-2.236-2.217-2.257
	c0.73-0.421,1.221-1.21,1.221-2.114c0-1.205-0.873-2.207-2.021-2.405c0.526-0.425,0.862-1.076,0.862-1.805
	c0-0.112-0.008-0.222-0.022-0.33c0.41,0.616,1.097,1.032,1.882,1.073c-0.572,0.441-0.941,1.133-0.941,1.911
	c0,1.331,1.078,2.409,2.408,2.409c1.332,0,2.41-1.078,2.41-2.409c0-1.289-1.011-2.341-2.283-2.407
	c0.572-0.441,0.942-1.133,0.942-1.911c0-1.332-1.079-2.41-2.409-2.41c-1.332,0-2.41,1.078-2.41,2.41c0,0.123,0.01,0.244,0.026,0.363
	c-0.418-0.615-1.12-1.018-1.92-1.018c-0.071,0-0.144,0.004-0.213,0.01c0.481-0.409,0.791-1.021,0.791-1.703
	c0-0.285-0.054-0.556-0.149-0.806c0.407,0.57,1.08,0.943,1.834,0.943c1.248,0,2.258-1.012,2.258-2.258
	c0-1.246-1.01-2.256-2.258-2.256c-1.246,0-2.256,1.01-2.256,2.256c0,0.291,0.053,0.566,0.153,0.822
	c-0.406-0.561-1.063-0.927-1.81-0.927h-0.021c0.258-0.378,0.403-0.835,0.403-1.327c0-1.314-1.063-2.38-2.379-2.38
	c-0.19,0-0.377,0.023-0.557,0.066c0.383-0.414,0.617-0.968,0.617-1.576c0-0.33-0.068-0.645-0.193-0.929
	c0.414,0.467,1.019,0.76,1.689,0.76c0.254,0,0.496-0.041,0.723-0.117c-0.426,0.4-0.691,0.97-0.691,1.601
	c0,1.212,0.982,2.196,2.195,2.196s2.195-0.984,2.195-2.196c0-1.214-0.982-2.196-2.195-2.196c-0.242,0-0.475,0.039-0.69,0.111
	c0.444-0.413,0.723-1.002,0.723-1.656c0-0.323-0.067-0.631-0.19-0.908c0.369,0.283,0.834,0.451,1.334,0.451
	c1.215,0,2.197-0.984,2.197-2.196c0-1.212-0.982-2.196-2.197-2.196c-1.213,0-2.195,0.984-2.195,2.196c0,0.31,0.064,0.604,0.18,0.87
	c-0.383-0.296-0.863-0.474-1.385-0.474c-0.461,0-0.887,0.138-1.244,0.374c0.256-0.351,0.406-0.783,0.406-1.25
	c0-1.177-0.953-2.13-2.129-2.13c-0.197,0-0.389,0.027-0.568,0.077c0.156-0.311,0.244-0.664,0.244-1.035
	c0-0.445-0.127-0.86-0.344-1.214c0.301,0.155,0.641,0.243,1.002,0.243c1.205,0,2.184-0.979,2.184-2.184
	c0-1.205-0.979-2.184-2.184-2.184c-0.496,0-0.951,0.165-1.317,0.442c0.147-0.295,0.232-0.628,0.232-0.98
	c0-1.207-0.978-2.184-2.185-2.184c-1.205,0-2.184,0.978-2.184,2.184c0,0.275,0.05,0.538,0.143,0.779
	c-0.187-0.051-0.383-0.08-0.586-0.08c-0.283,0-0.553,0.054-0.801,0.152c0.023-0.131,0.037-0.265,0.037-0.403
	c0-1.129-0.857-2.059-1.957-2.171L42.387,0C34.704,0.073,27.151,0.761,19.48,1.183C13.463,1.515,7.432,1.397,1.405,1.301
	C1.128,4.661,0.496,7.978,0.188,11.341z M41.241,58.85c0.238,0.021,0.473-0.088,0.607-0.289c-0.033,0.238,0.066,0.477,0.258,0.621
	c-0.238-0.023-0.472,0.088-0.605,0.289C41.533,59.233,41.433,58.995,41.241,58.85z M41.4,11.514c0-0.2-0.025-0.394-0.073-0.578
	c0.098,0.012,0.198,0.02,0.3,0.02c0.246,0,0.483-0.039,0.704-0.112c-0.056,0.195-0.083,0.401-0.083,0.614
	c0,0.174,0.02,0.343,0.057,0.507c-0.248-0.09-0.516-0.14-0.796-0.14c-0.044,0-0.087,0-0.129,0.003
	C41.393,11.726,41.4,11.62,41.4,11.514z M45.729,16.772c0-0.247-0.039-0.485-0.11-0.709c0.354,0.255,0.789,0.405,1.259,0.405
	c0.025,0,0.051,0,0.076-0.001c-0.137,0.294-0.212,0.622-0.212,0.968c0,0.066,0.004,0.133,0.01,0.199
	c-0.323-0.186-0.692-0.297-1.089-0.308C45.704,17.149,45.729,16.964,45.729,16.772z M46.424,37.398
	c0.154-0.133,0.29-0.287,0.406-0.455c0.218,0.182,0.471,0.325,0.747,0.417c-0.22,0.196-0.401,0.434-0.529,0.703
	C46.884,37.803,46.672,37.578,46.424,37.398z M47.234,40.325c0.176,0.25,0.4,0.462,0.662,0.623
	c-0.256,0.215-0.463,0.485-0.604,0.793c-0.162-0.241-0.37-0.451-0.605-0.618C46.919,40.897,47.105,40.628,47.234,40.325z
	 M47.775,11.876c0,0.174,0.021,0.343,0.062,0.507c-0.289-0.146-0.616-0.227-0.961-0.227c-0.043,0-0.087,0.001-0.13,0.003
	c0.07-0.221,0.109-0.457,0.109-0.702c0-0.136-0.013-0.268-0.035-0.396c0.145,0.028,0.291,0.042,0.441,0.042
	c0.245,0,0.48-0.038,0.702-0.108C47.843,11.265,47.775,11.562,47.775,11.876z M48.057,5.633c0,0.407,0.109,0.786,0.303,1.112
	C48.034,6.57,47.66,6.47,47.264,6.47c-0.324,0-0.633,0.066-0.912,0.188c0.112-0.265,0.178-0.557,0.178-0.864
	c0-0.273-0.051-0.536-0.145-0.778c0.188,0.051,0.385,0.078,0.588,0.078c0.492,0,0.949-0.163,1.313-0.44
	C48.141,4.947,48.057,5.28,48.057,5.633z M53.488,27.1c-0.48,0.396-0.801,0.982-0.842,1.644c-0.4-0.393-0.943-0.641-1.545-0.66
	c0.381-0.415,0.614-0.966,0.614-1.573c0-0.026,0-0.053-0.002-0.079c0.406,0.416,0.972,0.675,1.599,0.675
	C53.371,27.106,53.43,27.104,53.488,27.1z M53.939,36.052c0.262-0.291,0.451-0.648,0.539-1.044c0.416,0.333,0.944,0.531,1.52,0.531
	h0.01c-0.533,0.325-0.924,0.866-1.047,1.502C54.734,36.612,54.375,36.265,53.939,36.052z M52.486,32.2
	c0.486-0.397,0.811-0.988,0.852-1.655c0.318,0.31,0.723,0.53,1.174,0.619c-0.465,0.358-0.799,0.88-0.912,1.48
	C53.283,32.405,52.9,32.248,52.486,32.2z M50.52,40.756c0.344-0.288,0.6-0.676,0.723-1.121c0.25,0.28,0.57,0.496,0.93,0.625
	c-0.441,0.253-0.791,0.648-0.986,1.125C51.007,41.132,50.783,40.918,50.52,40.756z M49.775,36.898
	c0.285-0.254,0.504-0.58,0.629-0.948c0.219,0.274,0.5,0.498,0.82,0.649c-0.229,0.26-0.4,0.572-0.49,0.917
	C50.475,37.235,50.146,37.019,49.775,36.898z M49.714,24.213c0.136-0.29,0.213-0.612,0.222-0.952
	c0.389,0.279,0.866,0.443,1.381,0.443c0.037,0,0.07-0.001,0.104-0.002c-0.213,0.341-0.336,0.745-0.336,1.177
	c0,0.014,0,0.028,0,0.041C50.73,24.543,50.251,24.286,49.714,24.213z M49.059,15.117c-0.062,0-0.123,0.002-0.185,0.007
	c0.103-0.25,0.158-0.525,0.158-0.812c0-0.182-0.022-0.357-0.065-0.525c0.283,0.139,0.604,0.217,0.939,0.217
	c0.426,0,0.82-0.125,1.154-0.34c-0.279,0.377-0.445,0.842-0.445,1.345c0,0.319,0.066,0.621,0.186,0.896
	C50.376,15.422,49.753,15.117,49.059,15.117z M48.938,21.282c-0.383-0.273-0.854-0.435-1.359-0.438
	c0.212-0.351,0.336-0.762,0.336-1.201c0-0.066-0.003-0.133-0.01-0.199c0.342,0.196,0.734,0.309,1.154,0.309
	c0.182,0,0.357-0.021,0.525-0.061C49.191,20.11,48.948,20.668,48.938,21.282z M48.471,44.743c-0.433,0.141-0.807,0.41-1.078,0.76
	c-0.14-0.239-0.322-0.451-0.539-0.622c0.287-0.241,0.516-0.549,0.662-0.899C47.756,44.316,48.086,44.581,48.471,44.743z
	 M47.262,49.158c-0.17-0.264-0.396-0.486-0.662-0.65c0.236-0.14,0.444-0.321,0.613-0.535c0.167,0.294,0.398,0.547,0.676,0.739
	C47.652,48.825,47.441,48.976,47.262,49.158z M46.635,53.008c-0.143-0.279-0.345-0.521-0.592-0.711
	c0.313-0.084,0.594-0.236,0.829-0.441c0.142,0.256,0.328,0.482,0.552,0.668C47.128,52.631,46.859,52.797,46.635,53.008z
	 M45.637,56.856c-0.146-0.336-0.386-0.621-0.685-0.826c0.437-0.035,0.832-0.207,1.151-0.469c0.102,0.236,0.24,0.455,0.412,0.643
	C46.173,56.346,45.871,56.573,45.637,56.856z M43.863,59.575c0.531-0.002,1.014-0.217,1.363-0.566
	c0.166,0.515,0.51,0.947,0.959,1.229c-0.574,0.056-1.08,0.354-1.41,0.789C44.723,60.407,44.371,59.875,43.863,59.575z
	 M43.827,14.143c0-0.178-0.021-0.352-0.06-0.518c0.244,0.088,0.51,0.135,0.783,0.135c0.082,0,0.163-0.003,0.242-0.012
	c-0.049,0.18-0.074,0.369-0.074,0.564c0,0.212,0.03,0.417,0.088,0.61c-0.289-0.219-0.633-0.372-1.006-0.436
	C43.816,14.375,43.827,14.261,43.827,14.143z M43.764,7.897c0.186,0.051,0.381,0.08,0.582,0.08c0.286,0,0.562-0.056,0.813-0.156
	c-0.137,0.294-0.211,0.622-0.211,0.967c0,0.139,0.013,0.274,0.035,0.407c-0.14-0.027-0.282-0.041-0.431-0.041
	c-0.254,0-0.499,0.042-0.728,0.118c0.05-0.189,0.076-0.386,0.076-0.59C43.9,8.406,43.854,8.143,43.764,7.897z M43.158,52.184
	c-0.004-0.203-0.118-0.391-0.297-0.486c0.201-0.014,0.384-0.137,0.471-0.32c0.002,0.203,0.117,0.392,0.296,0.484
	C43.426,51.875,43.244,51.999,43.158,52.184z M42.636,55.807c0.014-0.203-0.087-0.398-0.259-0.506
	c0.203,0.002,0.393-0.107,0.493-0.285c-0.015,0.203,0.088,0.398,0.26,0.508C42.927,55.52,42.734,55.629,42.636,55.807z
	 M41.051,66.272c0.144,0.035,0.295,0.055,0.451,0.055c0.639,0,1.202-0.32,1.538-0.811c-0.032,0.141-0.05,0.287-0.05,0.436
	c0,0.617,0.289,1.166,0.74,1.518c-0.185-0.061-0.381-0.094-0.586-0.094c-0.569,0-1.081,0.25-1.43,0.646
	c0.018-0.104,0.027-0.207,0.027-0.316C41.743,67.125,41.472,66.608,41.051,66.272z M41,5.506c0.129,0.023,0.261,0.036,0.397,0.036
	c0.283,0,0.553-0.053,0.8-0.151c-0.024,0.131-0.036,0.265-0.036,0.402c0,0.25,0.042,0.488,0.117,0.709
	c-0.205-0.06-0.424-0.094-0.651-0.094c-0.166,0-0.329,0.018-0.486,0.052c0.004-0.048,0.005-0.098,0.005-0.148
	C41.146,6.027,41.094,5.757,41,5.506z M40.077,62.008c0.237,0.037,0.478-0.057,0.625-0.248c-0.051,0.236,0.033,0.482,0.214,0.639
	c-0.236-0.039-0.478,0.055-0.625,0.246C40.343,62.411,40.259,62.165,40.077,62.008z M39.353,8.681c0,0.186,0.022,0.366,0.064,0.538
	c-0.108-0.016-0.221-0.023-0.334-0.023c-0.177,0-0.35,0.02-0.516,0.058c-0.008-0.249-0.055-0.487-0.136-0.711
	c0.143,0.029,0.29,0.043,0.441,0.043c0.167,0,0.329-0.018,0.485-0.052C39.355,8.582,39.353,8.631,39.353,8.681z M38.602,65.102
	c0.276,0.066,0.568-0.025,0.757-0.238c-0.079,0.273,0,0.57,0.202,0.768c-0.275-0.063-0.567,0.027-0.757,0.24
	C38.882,65.598,38.804,65.303,38.602,65.102z M38.021,57.749c0.213,0.021,0.422-0.08,0.542-0.258
	c-0.03,0.213,0.059,0.426,0.231,0.553c-0.213-0.018-0.423,0.082-0.542,0.261C38.282,58.09,38.191,57.875,38.021,57.749z
	 M37.117,68.168c0.27,0.088,0.568,0.02,0.773-0.176c-0.101,0.266-0.045,0.565,0.139,0.778c-0.27-0.086-0.567-0.019-0.774,0.181
	C37.356,68.686,37.301,68.383,37.117,68.168z M36.864,60.659c0.212,0.035,0.428-0.049,0.56-0.221
	c-0.045,0.213,0.03,0.432,0.192,0.57c-0.21-0.033-0.427,0.051-0.559,0.221C37.102,61.02,37.027,60.799,36.864,60.659z
	 M35.753,64.288c0.07-0.244,0.001-0.508-0.18-0.688c0.247,0.059,0.507-0.023,0.678-0.213c-0.071,0.244-0.001,0.508,0.179,0.686
	C36.184,64.016,35.923,64.098,35.753,64.288z M35.123,70.854c0.309,0.127,0.667,0.074,0.927-0.139
	c-0.144,0.307-0.108,0.666,0.089,0.934c-0.31-0.127-0.667-0.074-0.927,0.137C35.355,71.483,35.32,71.124,35.123,70.854z
	 M34.254,67.1c0.089-0.238,0.041-0.508-0.125-0.699c0.241,0.076,0.508,0.018,0.692-0.158c-0.09,0.238-0.041,0.506,0.125,0.697
	C34.706,66.864,34.438,66.924,34.254,67.1z M33.03,73.461c0.354,0.174,0.778,0.145,1.103-0.084
	c-0.194,0.348-0.183,0.772,0.026,1.106c-0.353-0.176-0.778-0.146-1.103,0.082C33.251,74.221,33.239,73.795,33.03,73.461z
	 M32.404,68.975c0.276,0.111,0.595,0.066,0.829-0.123c-0.128,0.271-0.096,0.594,0.08,0.834c-0.276-0.113-0.596-0.066-0.829,0.121
	C32.611,69.538,32.579,69.215,32.404,68.975z M30.84,76.918c0.22-0.33,0.241-0.756,0.057-1.105c0.339,0.201,0.765,0.203,1.106,0.002
	c-0.22,0.328-0.239,0.754-0.057,1.104C31.607,76.717,31.182,76.713,30.84,76.918z M30.474,71.438
	c0.316,0.154,0.696,0.129,0.987-0.074c-0.174,0.309-0.164,0.689,0.023,0.988c-0.315-0.156-0.695-0.129-0.986,0.074
	C30.671,72.118,30.661,71.735,30.474,71.438z M29.803,67.586c0.192,0.057,0.403,0.004,0.545-0.139
	c-0.067,0.188-0.023,0.401,0.112,0.551c-0.193-0.058-0.403-0.004-0.545,0.139C29.981,67.948,29.938,67.735,29.803,67.586z
	 M29.477,73.831c-0.196,0.295-0.216,0.676-0.051,0.986c-0.302-0.178-0.685-0.182-0.99,0c0.197-0.295,0.215-0.676,0.051-0.988
	C28.791,74.008,29.172,74.01,29.477,73.831z M28.426,79.104c0.243-0.314,0.292-0.738,0.133-1.098
	c0.325,0.223,0.75,0.254,1.104,0.076c-0.242,0.313-0.292,0.74-0.134,1.098C29.206,78.958,28.78,78.924,28.426,79.104z
	 M28.283,69.936c0.188,0.07,0.401,0.033,0.555-0.096c-0.082,0.184-0.055,0.397,0.067,0.557c-0.187-0.07-0.402-0.035-0.554,0.096
	C28.432,70.309,28.406,70.094,28.283,69.936z M8.788,84.581c-0.26,0.105-0.443,0.346-0.475,0.623
	c-0.118-0.254-0.366-0.426-0.646-0.443c0.26-0.104,0.443-0.346,0.476-0.622C8.26,84.389,8.507,84.563,8.788,84.581z M9.406,86.622
	c-0.329,0.133-0.558,0.439-0.598,0.789c-0.149-0.32-0.464-0.535-0.817-0.559c0.328-0.133,0.558-0.438,0.598-0.787
	C8.738,86.385,9.052,86.6,9.406,86.622z M10.682,84.047c-0.254,0.121-0.421,0.371-0.436,0.652c-0.133-0.246-0.392-0.402-0.673-0.402
	c0.254-0.123,0.421-0.373,0.436-0.652C10.143,83.891,10.402,84.047,10.682,84.047z M12.774,83.184
	c-0.246,0.137-0.397,0.398-0.395,0.676c-0.148-0.236-0.416-0.375-0.696-0.357c0.246-0.137,0.396-0.399,0.394-0.678
	C12.226,83.061,12.494,83.2,12.774,83.184z M14.954,82.19c-0.236,0.152-0.369,0.424-0.347,0.703
	c-0.163-0.227-0.441-0.348-0.72-0.313c0.236-0.152,0.369-0.424,0.347-0.703C14.397,82.104,14.674,82.225,14.954,82.19z
	 M17.091,80.917c-0.226,0.168-0.34,0.449-0.3,0.726c-0.179-0.216-0.462-0.317-0.738-0.263c0.225-0.17,0.339-0.448,0.299-0.727
	C16.53,80.87,16.814,80.971,17.091,80.917z M19.073,79.473c-0.212,0.184-0.307,0.473-0.247,0.746
	c-0.194-0.203-0.484-0.283-0.755-0.211c0.211-0.184,0.306-0.471,0.247-0.744C18.511,79.465,18.801,79.547,19.073,79.473z
	 M21.206,77.637c-0.198,0.199-0.272,0.492-0.193,0.76c-0.207-0.188-0.503-0.246-0.768-0.156c0.198-0.197,0.272-0.49,0.193-0.758
	C20.644,77.67,20.941,77.731,21.206,77.637z M27.266,72.75c-0.213-0.103-0.468-0.078-0.661,0.061
	c0.114-0.209,0.102-0.467-0.027-0.664c0.213,0.102,0.469,0.08,0.661-0.061C27.126,72.295,27.138,72.551,27.266,72.75z M27.436,75.94
	c-0.217,0.279-0.261,0.658-0.12,0.98c-0.289-0.201-0.669-0.229-0.986-0.068c0.216-0.281,0.262-0.66,0.119-0.982
	C26.738,76.071,27.118,76.098,27.436,75.94z M26.027,81.18c0.264-0.295,0.345-0.713,0.213-1.084
	c0.306,0.246,0.728,0.309,1.095,0.158c-0.265,0.295-0.346,0.713-0.213,1.086C26.815,81.09,26.392,81.03,26.027,81.18z
	 M24.609,74.795c0.151-0.238,0.159-0.541,0.025-0.785c0.242,0.139,0.544,0.133,0.783-0.014c-0.151,0.235-0.16,0.537-0.024,0.78
	C25.15,74.643,24.847,74.645,24.609,74.795z M24.13,78.788c0.236-0.264,0.31-0.639,0.19-0.971c0.275,0.223,0.652,0.277,0.979,0.141
	c-0.236,0.267-0.308,0.642-0.19,0.972C24.834,78.708,24.457,78.653,24.13,78.788z M23.562,82.971
	c0.286-0.277,0.396-0.689,0.291-1.07c0.288,0.271,0.705,0.363,1.08,0.236c-0.284,0.277-0.396,0.688-0.289,1.068
	C24.354,82.936,23.938,82.844,23.562,82.971z M23.175,76.583c-0.232-0.158-0.533-0.176-0.782-0.045
	c0.168-0.225,0.2-0.524,0.083-0.779c0.232,0.154,0.534,0.175,0.783,0.046C23.091,76.028,23.06,76.329,23.175,76.583z M21.847,80.545
	c0.255-0.246,0.354-0.615,0.258-0.955c0.258,0.24,0.631,0.322,0.967,0.211c-0.254,0.246-0.353,0.615-0.258,0.955
	C22.556,80.516,22.184,80.434,21.847,80.545z M20.906,84.567c0.304-0.256,0.444-0.658,0.365-1.045
	c0.269,0.289,0.678,0.41,1.062,0.313c-0.304,0.256-0.443,0.658-0.365,1.045C21.699,84.59,21.291,84.469,20.906,84.567z
	 M19.549,82.104c0.272-0.229,0.397-0.588,0.328-0.934c0.24,0.258,0.605,0.367,0.949,0.279c-0.272,0.229-0.397,0.588-0.327,0.934
	C20.258,82.125,19.893,82.016,19.549,82.104z M18.369,85.965c0.319-0.234,0.485-0.627,0.433-1.018
	c0.248,0.305,0.648,0.454,1.039,0.381c-0.32,0.235-0.485,0.627-0.434,1.02C19.158,86.04,18.758,85.893,18.369,85.965z
	 M17.122,83.461c0.287-0.209,0.435-0.563,0.388-0.91c0.222,0.271,0.581,0.404,0.93,0.34c-0.286,0.209-0.435,0.563-0.388,0.91
	C17.828,83.528,17.47,83.395,17.122,83.461z M15.617,87.026c0.335-0.211,0.526-0.592,0.501-0.986
	c0.228,0.322,0.616,0.498,1.011,0.451c-0.335,0.213-0.528,0.594-0.502,0.986C16.399,87.157,16.01,86.981,15.617,87.026z
	 M14.605,84.665c0.299-0.188,0.471-0.531,0.448-0.883c0.205,0.289,0.552,0.445,0.904,0.404c-0.3,0.189-0.472,0.529-0.449,0.881
	C15.305,84.78,14.958,84.624,14.605,84.665z M13.177,87.911c0.348-0.191,0.563-0.559,0.563-0.953
	c0.207,0.336,0.583,0.535,0.979,0.517c-0.347,0.188-0.562,0.558-0.562,0.948C13.949,88.088,13.573,87.887,13.177,87.911z
	 M12.256,85.598c0.311-0.17,0.504-0.498,0.503-0.852c0.185,0.301,0.522,0.479,0.876,0.461c-0.311,0.17-0.503,0.5-0.503,0.852
	C12.948,85.758,12.611,85.581,12.256,85.598z M10.726,88.573c0.358-0.17,0.596-0.521,0.62-0.916c0.185,0.348,0.55,0.57,0.945,0.574
	c-0.358,0.168-0.597,0.523-0.621,0.916C11.486,88.797,11.122,88.577,10.726,88.573z M9.92,86.317
	c0.321-0.152,0.534-0.467,0.554-0.82c0.166,0.312,0.491,0.51,0.846,0.514c-0.32,0.15-0.534,0.468-0.554,0.82
	C10.6,86.518,10.274,86.321,9.92,86.317z M8.569,89.172c0.368-0.148,0.624-0.488,0.669-0.881c0.166,0.356,0.518,0.6,0.914,0.623
	c-0.368,0.149-0.625,0.489-0.669,0.881C9.316,89.438,8.965,89.198,8.569,89.172z M6.51,89.659c0.374-0.133,0.647-0.459,0.71-0.85
	c0.149,0.365,0.489,0.621,0.883,0.666c-0.374,0.131-0.646,0.459-0.709,0.848C7.245,89.959,6.904,89.702,6.51,89.659z M6.148,87.288
	c0.334-0.119,0.578-0.412,0.635-0.76c0.133,0.326,0.437,0.557,0.791,0.596c-0.335,0.117-0.579,0.412-0.634,0.76
	C6.805,87.557,6.501,87.325,6.148,87.288z M5.912,85.045c0.27-0.078,0.476-0.301,0.535-0.574c0.092,0.266,0.322,0.459,0.599,0.506
	c-0.27,0.078-0.476,0.301-0.535,0.572C6.419,85.286,6.189,85.09,5.912,85.045z M4.244,89.885c0.381-0.111,0.671-0.422,0.757-0.807
	c0.128,0.373,0.453,0.647,0.843,0.715c-0.381,0.108-0.671,0.422-0.757,0.807C4.959,90.227,4.634,89.95,4.244,89.885z M4.12,87.491
	c0.341-0.1,0.602-0.379,0.678-0.721c0.115,0.332,0.405,0.58,0.755,0.637c-0.341,0.102-0.602,0.379-0.678,0.723
	C4.76,87.797,4.47,87.549,4.12,87.491z M3.955,85.194c0.273-0.063,0.491-0.271,0.566-0.541c0.077,0.27,0.295,0.479,0.569,0.541
	c-0.273,0.063-0.491,0.271-0.567,0.539C4.448,85.465,4.229,85.256,3.955,85.194z M2.196,89.827c0.386-0.09,0.692-0.387,0.797-0.768
	c0.109,0.379,0.418,0.672,0.806,0.758c-0.386,0.092-0.692,0.387-0.796,0.768C2.893,90.206,2.583,89.913,2.196,89.827z M2.166,87.686
	C2.511,87.606,2.784,87.34,2.877,87c0.098,0.338,0.375,0.602,0.723,0.678c-0.347,0.08-0.62,0.346-0.713,0.686
	C2.789,88.024,2.512,87.764,2.166,87.686z M2.162,85.344c0.276-0.051,0.504-0.248,0.593-0.512c0.063,0.271,0.271,0.49,0.541,0.565
	c-0.276,0.05-0.505,0.246-0.594,0.511C2.64,85.639,2.432,85.418,2.162,85.344z M2.055,92.799c0.519,0,0.952,0.375,1.043,0.869
	c0.093-0.543,0.563-0.955,1.132-0.955c0.634,0,1.148,0.516,1.148,1.147c0,0.636-0.514,1.147-1.148,1.147
	c-0.569,0-1.042-0.411-1.132-0.952c-0.092,0.489-0.524,0.862-1.043,0.862c-0.586,0-1.061-0.475-1.061-1.061
	S1.469,92.799,2.055,92.799z M11.918,94.782c0.616,0,1.115,0.5,1.115,1.115s-0.5,1.115-1.115,1.115s-1.115-0.5-1.115-1.115
	S11.302,94.782,11.918,94.782z M12.832,92.235c0-0.701,0.568-1.27,1.267-1.27c0.701,0,1.269,0.568,1.269,1.27
	c0,0.697-0.568,1.266-1.269,1.266C13.4,93.5,12.832,92.932,12.832,92.235z M7.112,95.065c0.605,0,1.096,0.49,1.096,1.096
	s-0.491,1.096-1.096,1.096c-0.605,0-1.096-0.49-1.096-1.096S6.507,95.065,7.112,95.065z M9.533,94.895
	c0.571,0,1.034,0.463,1.034,1.034s-0.463,1.034-1.034,1.034c-0.571,0-1.034-0.463-1.034-1.034S8.962,94.895,9.533,94.895z
	 M9.158,92.176c0.509,0,0.939,0.33,1.09,0.785c0-0.021,0-0.041,0-0.063c0-0.679,0.549-1.228,1.228-1.228
	c0.678,0,1.228,0.55,1.228,1.228c0,0.681-0.55,1.229-1.228,1.229c-0.546,0-1.01-0.357-1.17-0.853
	c0.002,0.019,0.002,0.033,0.002,0.05c0,0.635-0.515,1.147-1.149,1.147c-0.633,0-1.148-0.515-1.148-1.147
	C8.01,92.692,8.525,92.176,9.158,92.176z M32.3,90.95c0.518,0,0.938,0.42,0.938,0.938s-0.42,0.938-0.938,0.938
	s-0.938-0.42-0.938-0.938S31.782,90.95,32.3,90.95z M46.57,69.872c0.906,0,1.641,0.734,1.641,1.641s-0.734,1.64-1.641,1.64
	c-0.905,0-1.639-0.733-1.639-1.64S45.665,69.872,46.57,69.872z M47.848,76.401c0.701,0,1.271,0.569,1.271,1.271
	c0,0.701-0.569,1.271-1.271,1.271c-0.703,0-1.271-0.569-1.271-1.271C46.576,76.97,47.145,76.401,47.848,76.401z M45.082,79.772
	c0.713,0,1.29,0.578,1.29,1.29s-0.577,1.29-1.29,1.29s-1.29-0.578-1.29-1.29S44.369,79.772,45.082,79.772z M41.155,71.094
	c0.941,0,1.705,0.763,1.705,1.703c0,0.941-0.763,1.705-1.705,1.705c-0.941,0-1.704-0.764-1.704-1.705
	C39.451,71.857,40.214,71.094,41.155,71.094z M44.346,73.471c0.848,0,1.535,0.688,1.535,1.535c0,0.85-0.688,1.537-1.535,1.537
	c-0.85,0-1.537-0.688-1.537-1.537C42.809,74.159,43.496,73.471,44.346,73.471z M52.68,68.185c0.837,0,1.516,0.679,1.516,1.515
	c0,0.837-0.679,1.516-1.516,1.516c-0.836,0-1.515-0.679-1.515-1.516C51.165,68.864,51.844,68.185,52.68,68.185z M25.311,86.053
	c0.788,0,1.425,0.641,1.425,1.426c0,0.789-0.638,1.428-1.425,1.428s-1.426-0.639-1.426-1.428
	C23.884,86.694,24.523,86.053,25.311,86.053z M57.132,70.52c0.7,0,1.267,0.567,1.267,1.268c0,0.699-0.566,1.267-1.267,1.267
	s-1.267-0.567-1.267-1.267C55.865,71.087,56.432,70.52,57.132,70.52z M54.574,75.18c0.63,0,1.141,0.511,1.141,1.141
	c0,0.631-0.511,1.141-1.141,1.141c-0.631,0-1.141-0.51-1.141-1.141C53.434,75.691,53.943,75.18,54.574,75.18z M38.759,74.354
	c0.908,0,1.644,0.736,1.644,1.645c0,0.907-0.736,1.644-1.644,1.644c-0.908,0-1.644-0.736-1.644-1.644
	C37.115,75.09,37.851,74.354,38.759,74.354z M50.43,72.295c0.742,0,1.344,0.602,1.344,1.344s-0.602,1.344-1.344,1.344
	c-0.743,0-1.345-0.602-1.345-1.344S49.687,72.295,50.43,72.295z M35.42,88.6c0.561,0,1.016,0.455,1.016,1.016
	c0,0.562-0.455,1.016-1.016,1.016s-1.016-0.454-1.016-1.016C34.404,89.055,34.859,88.6,35.42,88.6z M36.134,82.749
	c0.706,0,1.278,0.572,1.278,1.277c0,0.706-0.572,1.278-1.278,1.278c-0.706,0-1.278-0.572-1.278-1.278
	C34.856,83.321,35.428,82.749,36.134,82.749z M33.241,85.042c0.739,0,1.339,0.6,1.339,1.34c0,0.739-0.6,1.338-1.339,1.338
	c-0.74,0-1.339-0.599-1.339-1.338C31.902,85.641,32.501,85.042,33.241,85.042z M33.696,79.614c0.875,0,1.585,0.71,1.585,1.586
	c0,0.875-0.709,1.584-1.585,1.584c-0.875,0-1.585-0.709-1.585-1.584C32.111,80.324,32.821,79.614,33.696,79.614z M30.259,87.112
	c0.728,0,1.318,0.59,1.318,1.318c0,0.728-0.59,1.318-1.318,1.318c-0.728,0-1.318-0.591-1.318-1.318
	C28.941,87.702,29.531,87.112,30.259,87.112z M41.701,76.685c0.84,0,1.521,0.681,1.521,1.521s-0.682,1.521-1.521,1.521
	c-0.84,0-1.521-0.682-1.521-1.521S40.861,76.685,41.701,76.685z M36.302,76.952c0.886,0,1.604,0.717,1.604,1.604
	c0,0.886-0.718,1.604-1.604,1.604c-0.886,0-1.604-0.718-1.604-1.604C34.698,77.668,35.416,76.952,36.302,76.952z M39.165,79.809
	c0.807,0,1.461,0.654,1.461,1.461s-0.654,1.461-1.461,1.461c-0.807,0-1.461-0.654-1.461-1.461S38.358,79.809,39.165,79.809z
	 M42.061,83.247c0.604,0,1.093,0.489,1.093,1.094c0,0.604-0.489,1.094-1.093,1.094s-1.094-0.49-1.094-1.094
	C40.967,83.736,41.457,83.247,42.061,83.247z M38.814,86.125c0.54,0,0.978,0.438,0.978,0.979s-0.438,0.979-0.978,0.979
	s-0.978-0.438-0.978-0.979S38.274,86.125,38.814,86.125z M38.732,69.112c0.029,0.023,0.058,0.047,0.088,0.07
	c-0.034-0.014-0.07-0.027-0.106-0.039L38.732,69.112L38.732,69.112z M16.811,87.584v0.004c0,0.07,0.005,0.139,0.014,0.205
	c-0.039-0.047-0.081-0.094-0.125-0.133L16.811,87.584L16.811,87.584z"/>
</svg>
