<?xml version="1.0" encoding="utf-8"?>
<!-- Generator: Adobe Illustrator 16.0.0, SVG Export Plug-In . SVG Version: 6.00 Build 0)  -->
<!DOCTYPE svg PUBLIC "-//W3C//DTD SVG 1.1//EN" "http://www.w3.org/Graphics/SVG/1.1/DTD/svg11.dtd">
<svg version="1.1" id="Layer_1" xmlns="http://www.w3.org/2000/svg" xmlns:xlink="http://www.w3.org/1999/xlink" x="0px" y="0px"
	 width="100px" height="100px" viewBox="0 0 100 100" enable-background="new 0 0 100 100" xml:space="preserve">
<path fill="#010101" d="M81.602,38.787c-0.318-4.662-0.17-7.974-0.186-8.25c-0.131-1.854-1.079-4.684-1.143-4.921
	c-0.521-1.877-1.531-3.256-1.666-3.397c-1.332-1.367-3.488-2.718-3.649-2.843c-1.632-1.273-2.799-2.003-2.968-2.077
	c-0.168-0.08-0.285,0.013-0.417-0.396c-0.685-2.105-0.785-2.018-1.109-2.167c-0.323-0.151-0.321-0.108-0.348-0.327
	c-0.022-0.22,0.057-2.549,0.077-3.009c0.037-0.719-0.004-0.368,0.297-0.469c0.34-0.112,0.615-0.086,0.678-0.831
	c0.03-0.368,0.43-1.358,0.477-1.58c0.203-0.976-0.264-1.146-0.518-1.024c-0.255,0.122-0.169,0.052-0.189-0.226
	c-0.02-0.22,0.098-0.265,0.238-0.465c0.145-0.2,0.162-0.366,0.195-0.532c0.033-0.167-0.174-0.17-0.016-0.316
	c0.08-0.076,0.028-0.125-0.012-0.261C71.146,5,71.284,5.32,71.287,5.075c0.004-0.482-0.105-0.308-0.213-0.69
	c-0.172-0.631-0.289-0.325-0.311-0.76c-0.018-0.342-0.232-0.222-0.396-0.779c-0.059-0.2-0.072-0.06-0.239-0.112
	c-0.489-0.157-0.253-0.125-0.347-0.357c-0.094-0.229-0.086,0.028-0.385-0.241c-0.549-0.5-0.473-0.104-0.535-0.28
	c-0.065-0.174-0.16-0.172-0.313-0.178c-0.457-0.018-0.13,0-0.294-0.136C67.965,1.306,67.91,1.521,67.736,1.4
	c-0.258-0.179-0.115,0.17-0.518-0.099c-0.211-0.146-0.135,0.047-0.416-0.064c-0.129-0.049-0.248,0.248-0.367,0.112
	c-0.115-0.129-0.131-0.144-0.359-0.035c-0.229,0.108-0.21,0.188-0.396,0.061c-0.186-0.129,0.118,0.16-0.457-0.022
	c-0.257-0.079-0.271,0.097-0.476,0.149c-0.205,0.05,0.278,0.041-0.506,0.353c-0.261,0.104-0.122,0.366-0.302,0.347
	c-0.178-0.02-0.076,0.155-0.242,0.12c-0.168-0.032-0.112,0.242-0.219,0.258c-0.112,0.02-0.105,0.129-0.334,0.265
	c-0.229,0.133-0.19,0.396-0.299,0.428c-0.107,0.032-0.218,0.299-0.311,0.426c-0.088,0.129-0.174,0.396-0.323,0.445
	c-0.147,0.047-0.069,0.25-0.164,0.31c-0.092,0.061-0.28,1.059-0.387,1.178c-0.104,0.116,0.013,0.522-0.024,0.622
	c-0.035,0.095-0.019,0.469-0.01,0.633c0.008,0.165,0.102,0.38,0.12,0.546c0.022,0.164,0.052,0.218,0.157,0.431
	c0.109,0.22,0.01,0.465,0.123,0.534c0.283,0.17,0.285,0.229-0.057,0.167c-0.558-0.096-0.369,0.528-0.253,0.978
	c0.069,0.26,0.655,0.917,0.692,1.498c0.043,0.658,0.273,0.484,0.306,0.628c0.21,0.936,0.481,1.203,0.603,1.479
	c0.269,0.603,0.353-0.118,0.209,1.488c-0.041,0.469-0.059,0.376-0.178,0.495c-0.449,0.435-0.85,1.104-1.017,1.466
	c-0.166,0.355-0.14,0.328-0.292,0.418c-0.152,0.086-1.868,0.822-2.088,0.908c-1.941,0.724-3.146,1.422-3.266,1.513
	c-0.471,0.353-1.56,1.297-1.701,1.543c-0.371,0.64-0.791,2.067-0.836,2.352c-0.146,0.982-0.854,3.529-0.938,3.804
	c-0.229,0.745-0.229,1.208-0.265,1.375c-0.038,0.164-0.301,1.779-0.303,1.969c-0.006,0.45-0.301,1.789-0.213,3.475
	c0.033,0.643,0.021,0.628-0.117,0.815c-0.482,0.657-0.051,0.856,0.349,1.144c0.401,0.285,0.437,0.202,0.353,0.393
	c-0.316,0.706,0,0.648-0.416,1.152c-0.563,0.682,0.24,0.812,0.178,1.213c-0.102,0.636,0.193,0.812,0.113,1.024
	c-0.082,0.215-0.379,1.211-0.459,1.41c-0.152,0.395-0.166,0.559-0.093,0.702c0.07,0.146,0.298,0.833,0.392,1.124
	c0.097,0.288,0.207-0.112,0.054,1.11c-0.066,0.526-0.009,0.324-0.244,0.487c-0.626,0.437-0.683,0.905-0.673,1.09
	c0.064,1.172,0.574,1.255,0.771,1.353c0.283,0.131,0.258-0.031,0.303,0.176c0.047,0.209,0.313,0.971,0.512,1.29
	c0.199,0.321-0.08,0.207,0.13,0.604c0.271,0.507,0.368,0.485,0.375,0.707c0.002,0.311,0.276,0.291,0.205,0.458
	c-0.126,0.28,0.015,0.606-0.071,0.833c-0.132,0.337,0.066,1.016,0.001,1.385c-0.063,0.371-0.552,0.883-0.7,1.107
	c-0.396,0.607-0.246,0.892-0.353,1.138c-0.608,1.444-0.524,2.663-0.63,2.779s0.016,0.34-0.122,0.518
	c-0.14,0.185-0.147,0.754-0.224,0.95c-0.381,1.027-0.65,4.645-0.691,4.843c-0.18,0.854-0.268,3.218-0.311,3.392
	c-0.295,1.175-0.324,3.526-0.311,3.75c0.247,3.682,0.074,4.322,0.041,4.545c-0.104,0.685-0.354,4.521-0.356,4.707
	c-0.001,0.74-0.062,1.63-0.143,2.469c0.032,0.002,0.061,0.005,0.091,0.007c-0.285,1.632-1.096,6.64-0.621,8.339
	c-0.052-0.008-0.102-0.014-0.151-0.025c0.122,0.235,0.284,0.377,0.404,0.513c0.274,0.312,0.226,0.229,0.132,0.399
	c-0.23,0.395-0.067,0.489-0.228,0.598c-0.215,0.14-0.082,0.216-0.222,0.369c-0.9,0.988-0.554,0.787-0.712,0.916
	c-1.075,0.914-1.709,0.843-1.878,0.871c-0.447,0.066-0.861-0.077-1.069,0.123c-0.647,0.631-0.431,1.371-0.578,1.563
	c-0.147,0.189-0.239-0.145-0.344,0.523c-0.089,0.556-0.118,0.556-0.061,0.634c0.024,0.036,0.067,0.059,0.19,0.104
	c0.17,0.066,0.24,0.002,0.377,0.041c0.083,0.024-0.107,0.047,0.267,0.133c0.453,0.103,0.378,0.019,0.572,0.054
	c0.079,0.011,0.027,0.071,0.368,0.143c0.616,0.12,0.365,0.005,0.627,0.052c0.048,0.01-0.039,0.082,0.441,0.149
	c0.526,0.074,0.412-0.026,0.604-0.002c0.16,0.022,0.211,0.14,0.615,0.194c0.282,0.043,0.142-0.047,0.251-0.037
	c0.266,0.023,0.087,0.083,0.444,0.089c0.251,0.004,0.188-0.043,0.344-0.035c0.111,0.004,0.012,0.073,0.478,0.085
	c0.34,0.005,0.229-0.07,0.324-0.076c0.092-0.005-0.01,0.047,0.411,0.067c0.313,0.014,0.146-0.047,0.263-0.06
	c0.151-0.014,0.074,0.062,0.342,0.015c0.291-0.058,0.123-0.072,0.207-0.097c0.08-0.021,0.049,0.056,0.244-0.086
	c0.145-0.102,0.174-0.201,0.229-0.203s0.082,0.004,0.186-0.153c0.104-0.164,0.092-0.206,0.157-0.199
	c0.063,0.004,0.056-0.015,0.142-0.119s0.092-0.108,0.057-0.272c-0.035-0.165-0.092-0.11,0.412-0.493
	c0.231-0.175,0.043-0.159,0.795,0.297c0.617,0.376,0.529,0.25,0.808,0.224c0.381-0.035,0.278-0.123,0.335-0.125
	c0.055-0.002,0.023,0.047,0.441-0.021c0.328-0.052,0.152-0.099,0.289-0.106c0.17-0.011,0.094,0.043,0.369,0.008
	c0.326-0.047,0.26-0.109,0.405-0.16c0.123-0.041-0.014,0.063,0.275-0.012c0.343-0.086,0.146-0.111,0.309-0.168
	c0.083-0.035,0.005,0.01,0.163-0.043c0.28-0.096,0.135-0.947,0.096-1.512c-0.067-1.018,0.113-0.559,0.108-0.795
	c-0.005-0.186-0.09-0.352,0.058-0.633c0.1-0.189,0.625-1.373,0.868-1.859c-0.344,0.077-0.69,0.1-1.044,0.064
	c0.639-0.035,1.044-0.064,1.044-0.064l0.72-8.974c0.191-0.986,0.377-1.97,0.414-2.165c0.24-1.313-0.097-3.327-0.097-3.657
	c-0.001-0.332,0.097-3.026,0.063-3.371c-0.17-1.813-0.036-1.805,0.106-2.101c1.121-2.262,1.729-5.61,1.81-5.932
	c1.197-4.729,1.955-6.543,2.123-7.051c0.17-0.501,0.074-0.443,0.244-0.132c0.039,0.075,0.043,0.826,0.063,1.173
	c0.039,0.755,0.018,1.298,0.008,1.496c-0.078,1.84,0.326,3.196,0.372,3.469c0.384,2.271,1.218,4.781,1.321,5.163
	c0.098,0.382,0.188,1.466,0.191,1.714c0.017,1.229,0.432,3.775,0.428,4.103c-0.014,0.896-0.19,2.633-0.264,2.905
	c-0.511,1.982-0.414,2.849-0.336,3.326c0.135,0.848,0.168,0.639,0.024,0.84c-0.142,0.199-1.404,2.955-1.527,3.27
	c-0.428,1.109-0.396,1.111-0.571,1.311c-0.611,0.705-1.271,1.053-1.33,1.303c-0.156,0.701-0.111,1.565,0.184,2.004
	c0.803,1.181,0.654,1.398,0.813,1.604c0.648,0.838,0.553,0.936,0.664,1.126c0.299,0.523,0.438,0.08,0.412,0.243
	c-0.078,0.445-0.07,1.191-0.128,1.426c-0.312,1.271,0.015,1.565-0.149,1.715c-0.359,0.32-0.246,0.979-0.221,1.197
	c0.014,0.122-0.043,0.27,0.108,0.376c0.085,0.063,0.095-0.02,0.181,0.007c0.061,0.018-0.014,0.057,0.202,0.075
	c0.024,0.005,0.259-0.032,0.438-0.026c0.195,0.01-0.065,0.076,0.537,0.099c0.562,0.022,0.359-0.062,0.567-0.062
	c0.265,0.002-0.017,0.034,0.543,0.064c0.474,0.021,0.302-0.045,0.531-0.045c0.258,0.002-0.09,0.082,0.624,0.063
	c0.423-0.013,0.35-0.092,0.486-0.092c0.121-0.002-0.004,0.077,0.463,0.053c0.287-0.019,0.129-0.031,0.279-0.055
	c0.053-0.011-0.024,0.073,0.271,0.038c0.163-0.021,0.095-0.049,0.181-0.067c0.079-0.018,0.041,0.033,0.208,0.033
	c0.222,0,0.084-0.101,0.324-0.099c0.108,0,0.164-0.049,0.306-0.231c0.141-0.188,0.164-0.313,0.149-0.615
	c-0.015-0.303-0.04-0.521-0.05-0.758c-0.012-0.23-0.244-0.207-0.2-0.441c0.045-0.239-0.075-1.004-0.146-1.307
	c-0.066-0.301-0.059-0.267,0.199-0.132c0.319,0.164,0.441-0.548,0.614-0.729c0.433-0.466,0.687-1.171,1.174-1.962
	c0.468-0.754-0.272-2.383-0.302-2.604c-0.066-0.521,0.734-3.282,0.813-3.512c0.146-0.42,0.059-1.619,0.077-1.824
	c0.064-0.679-0.155-1.594-0.003-2.11c0.249-0.828-0.139-1.439-0.035-1.639c0.1-0.195-0.049-0.805,0.045-1.021
	c0.312-0.701,0.24-1.084,0.231-1.25c-0.007-0.166,0.386-2.182,0.409-2.433c0.271-3.018,0.305-2.864,0.373-3.135
	c0.523-2.021,0.705-5.007,0.697-5.313c-0.021-1.361,0.51-5.396,0.528-5.717c0.079-1.257,0.431-2.295,0.472-2.57
	c0.043-0.278,0.012-0.24,0.162-0.303c0.147-0.063,0.362-0.326,0.539-0.602c0.365-0.564,0.154-0.822,0.26-0.963
	c0.102-0.143,0.156-0.465,0.129-0.766c-0.028-0.302,0.037-0.375,0.109-0.281c0.073,0.095,0.19,0.099,0.135,0.229
	c-0.224,0.521-0.011,0.574-0.098,0.818c-0.33,0.897-0.254,1.046-0.344,1.214c-0.086,0.17-0.284,0.716-0.387,0.857
	c-0.104,0.145-0.246,0.281-0.305,0.512c-0.199,0.754,0.402,0.643,0.596,0.469c0.201-0.175,0.138-0.072,0.453-0.145
	c0.75-0.178,0.771-0.233,0.875-0.375c0.104-0.143,0.35-0.446,0.637-0.567c0.486-0.199,0.166-0.519,0.539-0.547
	c0.316-0.028,0.18-0.289,0.531-0.452c0.562-0.27,0.465-0.324,0.496-0.563c0.049-0.387,0.477-1.595,0.533-1.832
	c0.059-0.236-0.048-1.513-0.102-1.801c-0.071-0.396,0.102,0.092,0.099-0.557c0.001-0.229,0.07-1.423,0.157-1.605
	c0.087-0.182,0.17-0.834,0.172-1.041c0.005-0.209,0.134-0.699,0.16-0.987c0.027-0.292,0.48-2.091,0.471-2.546
	c-0.009-0.457,0.202-1.552,0.215-2.188C81.604,44.643,81.617,39.031,81.602,38.787z M74.41,42.97
	c-0.157-0.156-0.004-0.116-0.063-0.477c-0.154-0.916-0.133-0.738,0.071-0.777c0.149-0.026,0.14-0.121,0.545,0.968
	c0.134,0.363-0.047,0.512,0,0.633c0.05,0.123-0.069,0.251-0.149,0.311S74.568,43.133,74.41,42.97z M76.799,49.422
	c0.086,0.247,0.145,0.119-0.417,3.146c-0.101,0.561,0.208-0.037-0.079,0.652c-0.107,0.262-0.287,0.578-0.4,0.82
	c-0.113,0.239-0.094,0.391-0.17-0.048c-0.074-0.438-0.063-2.492-0.146-2.792c-0.082-0.299,0.101-1.356,0.001-1.736
	c-0.102-0.381,0.199-0.465-0.043-1.761c-0.1-0.546-0.309-2.137-0.455-2.391c-0.152-0.254-0.279-1.209-0.301-1.368
	c-0.043-0.285,0.338-0.291,0.304-0.566c-0.067-0.517,0.132-0.262-0.038-0.795c-0.07-0.22-0.308-0.711-0.369-0.822
	c-0.033-0.056,0.014-0.043,0.195-0.216c0.152-0.143,0.573-0.141,0.625-0.487c0.053-0.345,0.163-0.271,0.21,0.074
	c0.106,0.781-0.362,1.05,0.269,1.833c0.17,0.214,0.24,0.154,0.105,0.822c-0.051,0.257-0.121,0.324,0.164,2.874
	c0.018,0.151-0.179,0.138,0.786,1.796C77.391,49.057,76.574,48.799,76.799,49.422z M45.688,59.421
	c0.016-0.188,0.028-0.368,0.039-0.526c2.007-6.765,0.681-12.705-0.792-16.51c0.014-0.014,0.028-0.028,0.042-0.039
	c-0.143-0.317-0.288-0.636-0.432-0.952c-0.029-0.054-0.059-0.107-0.087-0.16c-0.909-2.063-1.746-3.255-1.746-3.255
	c0.378,0.198,0.753,0.396,1.13,0.594c0.12,0.018,0.241,0.033,0.359,0.05c0.033,0.01,0.097,0.041,0.135,0.051h0.339
	c0.212,0.05,0.295,0.08,0.522,0.006c0.053-0.012,0.108-0.022,0.163-0.037c0.32-0.173,0.455-0.523,0.667-0.806
	c0.066-0.092,0.161-0.197,0.214-0.295c0.073-0.136,0.097-0.306,0.165-0.431c0.01,0.004,0.02,0.006,0.029,0.009
	c0.017,0.12-0.025,0.497-0.065,0.614c-0.02,0.059-0.076,0.161-0.065,0.244c0.012,0.073,0.067,0.136,0.13,0.158
	c0.491,0.164,0.768-0.681,0.888-0.988c0.044-0.117,0.064-0.323,0.156-0.395c0.062,0.043,0.128,0.056,0.216,0.081
	c0.042,0.163-0.071,0.264-0.102,0.394c-0.021,0.104-0.043,0.209-0.065,0.314c-0.002,0.088-0.003,0.175-0.005,0.265
	c-0.023,0.08-0.072,0.171-0.065,0.258c0.008,0.092,0.063,0.159,0.085,0.228c0.046,0.013,0.115,0.02,0.152,0.028
	c0.018,0.147-0.052,0.245-0.096,0.353c-0.042,0.122-0.084,0.248-0.126,0.372c-0.107,0.176-0.278,0.339-0.338,0.557
	c-0.025,0.099,0.029,0.178,0.044,0.236c0.048,0.191-0.064,0.282,0.128,0.381c0.194,0.101,0.273-0.125,0.396-0.187
	c0.152-0.078,0.195,0.062,0.371,0.021c0.1-0.021,0.117-0.12,0.235-0.129c-0.019,0.152-0.012,0.338,0.101,0.4
	c0.062,0.039,0.137,0.007,0.213,0c0.007-0.014,0.01-0.033,0.016-0.049c0.052-0.073,0.182-0.088,0.235-0.163
	c0.049,0.008,0.064,0.031,0.101,0.043c0.099,0.025,0.157-0.002,0.244-0.008c0.031-0.109,0.192-0.149,0.277-0.207
	c0.129-0.084,0.676-0.446,0.723-0.552c-0.067-0.878-0.136-1.756-0.207-2.635c0.053-0.312,0.106-0.624,0.158-0.939
	c-0.065-0.337-0.129-0.676-0.193-1.016c0.14-0.771,0.283-1.541,0.422-2.312c0.013-0.872,0.023-1.748,0.036-2.62
	c0.009-0.512,0.02-1.027,0.028-1.54c-0.117-1.308-0.234-2.619-0.351-3.927c-0.03-0.417-0.061-0.835-0.093-1.253
	c-0.054-0.676-0.11-1.348-0.165-2.021c0.161-0.218,0.321-0.439,0.479-0.657c-0.194-0.25-0.397-0.277-0.415-0.73
	c0.261-0.296,0.519-0.596,0.78-0.893c-0.019-0.351-0.038-0.697-0.058-1.046c-0.344-0.544-0.688-1.089-1.031-1.632
	c0.019-0.019,0.037-0.039,0.058-0.058c-0.573-0.322-1.079-0.889-1.482-1.388c-0.171-0.183-0.343-0.366-0.515-0.551
	c-0.06-0.484-0.119-0.969-0.18-1.453c0.607-0.002,1.216-0.004,1.826-0.006v-0.065c0.041-0.025,0.077-0.041,0.093-0.092
	c0.053,0.006,0.075,0.006,0.127,0c-0.002,0.013-0.003,0.028-0.007,0.043c0.005,0.002,0.01,0.005,0.015,0.006
	c0.06-0.063,0.126-0.168,0.173-0.237c-0.005-0.013-0.01-0.03-0.016-0.041c0.157-0.125,0.242-0.267,0.359-0.431
	c0.014-0.021,0.066-0.02,0.085-0.037c0.027-0.037,0.006-0.083,0.021-0.136l0.129-0.187c-0.013-0.034-0.024-0.058-0.021-0.114
	c0.07-0.035,0.022-0.081,0.049-0.157c0.031-0.095,0.281-0.386,0.386-0.359c0.084-0.233,0.006-0.76,0.006-0.943
	c-0.049-0.02-0.042,0.002-0.093-0.009c-0.021-0.109-0.053-0.122-0.064-0.227c0.037-0.022,0.047-0.031,0.094-0.016
	c0.008-0.011,0.016-0.024,0.021-0.036c-0.013-0.022-0.011-0.018-0.035-0.029c0.006-0.028,0.01-0.056,0.014-0.086
	c-0.022-0.024-0.031-0.043-0.078-0.049c-0.008-0.031-0.002-0.032,0.015-0.056c-0.042-0.037-0.085-0.086-0.144-0.101
	c-0.002-0.011-0.004-0.02-0.006-0.028c0.014-0.022,0.023-0.022,0.036-0.052c-0.079-0.016-0.12-0.091-0.151-0.151
	c0.011-0.027,0-0.017,0.029-0.026c-0.01-0.064,0.002-0.146-0.008-0.202c-0.015-0.075-0.104-0.179-0.086-0.286
	c0.016-0.095,0.074-0.189,0.079-0.293h0.044c-0.02-0.028-0.056-0.101-0.087-0.116V8.172c0.016-0.004,0.032-0.008,0.05-0.013
	c0.016-0.097,0.037-0.495-0.063-0.529c0.009-0.086,0.073-0.176-0.029-0.194c-0.023-0.063,0.029-0.086,0.014-0.15
	c-0.019-0.045-0.039-0.091-0.056-0.136c-0.008-0.034,0.015-0.037,0.027-0.052c-0.053-0.034-0.101-0.176-0.08-0.255
	c-0.005-0.043-0.015-0.037-0.049-0.05c-0.001-0.067-0.039-0.134-0.028-0.172c0.02-0.071,0.076-0.224,0.095-0.308h0.027v0.043
	c0.003-0.002,0.01-0.005,0.013-0.009c0.023-0.127,0-0.181,0.038-0.278c-0.049-0.056-0.161-0.247-0.202-0.252
	c0-0.056,0.005-0.077,0.043-0.092c-0.014-0.013-0.013-0.013-0.043-0.016c-0.009-0.058-0.116-0.29-0.107-0.314
	c-0.021-0.03-0.084-0.058-0.151-0.056c-0.012-0.095-0.098-0.089-0.134-0.153c-0.054-0.089-0.019-0.129-0.059-0.228
	c-0.03-0.071-0.123-0.108-0.143-0.186V4.746c-0.092-0.004-0.145-0.039-0.258-0.039c-0.001,0.013-0.004,0.026-0.005,0.039v0.013
	c-0.045-0.004-0.042-0.006-0.066-0.028c-0.014,0.016-0.029,0.028-0.042,0.043c-0.075-0.007-0.139-0.015-0.159-0.077
	c-0.019,0.014-0.009,0.017-0.04,0.028V4.657c-0.036-0.017-0.028-0.014-0.067-0.004c-0.049-0.068-0.043-0.099-0.141-0.123
	c-0.072-0.159-0.091-0.33,0.121-0.388c0.018-0.068,0.006-0.131,0-0.221c-0.046,0.019-0.094,0.049-0.114,0.028
	c-0.029,0.02-0.039,0.028-0.043,0.073c-0.035-0.006-0.023,0.005-0.036-0.023h-0.021c0.006,0.08-0.081,0.041-0.13,0.023
	c-0.018-0.06-0.083-0.133-0.035-0.187c-0.021-0.03-0.071-0.064-0.101-0.086c0.012-0.05,0.023-0.099,0.037-0.151h0.064
	c-0.007-0.03,0-0.039,0.007-0.063c-0.086,0.042-0.202-0.037-0.281-0.073v-0.03c0.02-0.011,0.013-0.004,0.023-0.026
	c0.012-0.005,0.025-0.006,0.035-0.009V3.392h-0.042V3.357c0.017,0,0.033,0.002,0.048,0.004c-0.002-0.016-0.007-0.033-0.013-0.05
	V3.306c0.019-0.002,0.032-0.004,0.049-0.007c0.006,0.009,0.01,0.018,0.016,0.028c0,0.009,0.016-0.013,0.057-0.015
	c0.003-0.004,0.005-0.009,0.006-0.013c-0.02-0.002-0.041-0.004-0.063-0.008c0.006-0.023,0-0.016,0.016-0.028
	c-0.004-0.007-0.005-0.015-0.01-0.022c-0.014-0.01-0.028-0.024-0.042-0.036c-0.057,0.008-0.045,0.031-0.1,0.042
	c-0.016-0.017-0.021-0.022-0.021-0.056C48,3.224,47.924,3.148,47.823,3.126c-0.026,0.005-0.053,0.011-0.08,0.016
	c-0.01-0.017-0.02-0.035-0.027-0.052c-0.02,0.002-0.04,0.007-0.059,0.009c-0.051-0.023-0.065-0.059-0.164-0.067
	c-0.015-0.022-0.024-0.078-0.043-0.099c-0.057-0.05-0.081-0.018-0.156-0.006c-0.006-0.017-0.01-0.035-0.015-0.051
	c-0.042-0.009-0.098,0.015-0.128,0c-0.01-0.014-0.021-0.028-0.028-0.042c-0.045-0.02-0.125-0.017-0.181-0.049
	c-0.023-0.031-0.047-0.06-0.071-0.088c-0.135-0.064-0.218-0.076-0.292-0.2c-0.07-0.012-0.141-0.024-0.209-0.034
	c-0.058-0.026-0.143-0.097-0.207-0.114h-0.071c-0.045-0.045,0.02-0.056-0.065-0.059c-0.014-0.034-0.008-0.034,0-0.071
	c-0.038,0.002-0.029-0.017-0.05-0.043c-0.028-0.028-0.105-0.032-0.158-0.028c-0.002-0.004-0.004-0.006-0.007-0.009
	c0.006-0.031-0.002-0.021,0.021-0.034c-0.035-0.068-0.252-0.039-0.315-0.079c-0.05-0.032-0.129-0.089-0.193-0.108
	c-0.042,0.002-0.082,0.005-0.12,0.007c-0.034-0.078-0.107-0.082-0.173-0.123c-0.021,0.021-0.022,0.03-0.022,0.073
	c-0.03-0.006-0.036-0.006-0.05-0.03c-0.011-0.026-0.003-0.043,0.007-0.063H44.86c-0.016-0.024-0.028-0.043-0.042-0.064
	c-0.074-0.009-0.149-0.02-0.222-0.03c-0.014,0.021-0.004,0.013,0,0.052c-0.014,0.008-0.004,0-0.014,0.013
	c-0.069-0.006-0.079-0.056-0.058-0.099c-0.049,0.021-0.102,0.043-0.151,0.065c-0.03-0.037-0.039-0.021-0.037-0.08h0.014V1.63
	c-0.073,0.002-0.067,0.031-0.128,0.043c-0.033,0.006-0.505,0.004-0.521,0c-0.013-0.008-0.025-0.02-0.037-0.03
	c-0.17,0.057-0.339,0.067-0.545,0.096C42.81,1.78,42.57,1.642,42.252,1.723c-1.014,0.349-2.033,0.698-3.048,1.046v0.007
	c0.025,0.028,0.029,0.023,0.07,0.021v0.064c0.026,0.004,0.047,0.009,0.072,0.014c-0.074,0.066-0.22,0.101-0.335,0.079
	c0.024,0.185-0.208,0.357-0.338,0.443c-0.265,0.181-0.59,0.568-0.778,0.853c-0.078,0.114-0.054,0.267-0.13,0.37
	c-0.1,0.146-0.19,0.368-0.271,0.553c-0.027,0.134-0.053,0.268-0.078,0.401c-0.026,0.042-0.05,0.082-0.073,0.123
	c-0.003,0.152-0.005,0.31-0.007,0.464c0.007,0.035,0.035,0.092,0.042,0.114c0.021,0.056-0.017,0.2,0.006,0.271
	c0.057,0.164,0.199,0.275,0.202,0.479c0.224,0.065,0.109,0.218,0.099,0.409c0.03,0.021,0.06,0.043,0.087,0.064h0.056
	C37.813,7.911,38.05,8.66,38.5,8.702c0.034,0.064,0.108,0.163,0.13,0.228c0.034,0.11-0.081,0.237-0.107,0.308
	c-0.066,0.172-0.231,0.74-0.186,0.979c0.076,0.405,0.206,0.729,0.38,1.024c0.067,0.116,0.192,0.265,0.227,0.403
	c-0.07,0.093-0.206,0.228-0.314,0.277c-0.091,0.041-0.263,0.043-0.281,0.173c-0.07,0.021-0.159,0.006-0.227-0.009
	c-0.013,0.049-0.013,0.084-0.044,0.123c0.102,0.077,0.607,0.11,0.717,0.056c0.04-0.017,0.039-0.058,0.101-0.049
	c-0.004,0.028-0.002,0.021-0.014,0.034c-0.021,0.033-0.041,0.033-0.058,0.067c-0.029-0.005-0.057-0.011-0.085-0.016
	c-0.019,0.026-0.034,0.054-0.052,0.08c0.034,0.121,0.308,0.125,0.394,0.158c0.035-0.026,0.122-0.076,0.17-0.065
	c0.014,0.002,0.02,0.028,0.051,0.021c0.074-0.033,0.148-0.062,0.221-0.093h0.007c0.009,0.015,0.017,0.031,0.029,0.043
	c-0.013,0.082-0.227,0.333-0.3,0.351c-0.007,0.073,0.03,0.071,0.043,0.121c0.018,0.06-0.032,0.101-0.043,0.151
	c0.027,0.013,0.053,0.024,0.079,0.036c0.125,0.031,0.283-0.069,0.374,0c0.024,0.016,0.032,0.032,0.035,0.071
	c-0.014,0.015-0.023,0.022-0.035,0.035c0.05,0.032,0.121,0.079,0.205,0.07c0.043-0.003,0.089-0.012,0.13-0.02
	c0.081,0.016,0.14,0.059,0.2,0.093v0.028c-0.028,0.015-0.085,0.01-0.121,0.027c-0.023,0.021-0.046,0.043-0.07,0.067
	c-0.026-0.004-0.047-0.011-0.071-0.015c-0.032,0.011-0.045,0.052-0.067,0.071c-0.027,0.01-0.056,0.02-0.085,0.028
	c-0.133,0.104-0.365,0.243-0.414,0.424c-0.034,0.116,0.039,0.17,0.063,0.229c-0.002,0.059-0.004,0.115-0.008,0.172
	c-0.039,0.039-0.058,0.077-0.128,0.086H39.34c-0.018-0.062-0.027-0.138-0.057-0.188c-0.008,0.002-0.016,0.004-0.021,0.009
	c-0.186,0.107-0.077,0.639-0.064,0.844c-0.067,0.105-0.138,0.205-0.265,0.25c-0.097-0.087-0.032-0.346-0.028-0.478
	c-0.173,0.028-0.404,0.506-0.465,0.693c-0.1,0.295-0.219,0.614-0.3,0.938c-0.003,0.194-0.006,0.388-0.008,0.579
	c-0.031,0.186-0.081,0.405-0.051,0.646c0.01,0.002,0.02,0.004,0.031,0.007c0.022-0.018,0.044-0.03,0.056-0.058h0.007
	c0.004,0.007,0.01,0.008,0.015,0.015c-0.044,0.135-0.042,0.212-0.07,0.373c0.008,0.047,0.018,0.094,0.028,0.144
	c-0.026,0.035-0.054,0.071-0.079,0.105c-0.003,0.063-0.006,0.121-0.008,0.179c-0.029,0.088-0.09,0.213-0.108,0.301
	c0.003,0.049,0.006,0.095,0.008,0.143c-0.019,0.055-0.06,0.067-0.071,0.151c0.008,0.017,0.015,0.034,0.021,0.049h0.042
	c-0.01,0.021-0.022,0.039-0.034,0.059c0.013,0.005,0.027,0.011,0.042,0.015v0.006c-0.155,0.19-0.071,0.358-0.086,0.625
	c-0.01,0.2-0.091,0.47-0.056,0.7h0.064l0.007,0.017c-0.017,0.028-0.059,0.039-0.071,0.07c-0.057,0.129,0.022,0.293,0.006,0.407
	c-0.017,0.131-0.248,0.218-0.358,0.237c-0.015,0.049-0.026,0.099-0.042,0.151c-0.019,0.002-0.039,0.004-0.058,0.006v-0.037
	c-0.002-0.002-0.004-0.004-0.008-0.005c-0.111,0.037-0.158,0.138-0.22,0.221c-0.35,0.056-0.644,0.146-1.01,0.185
	c-0.222,0.024-0.449-0.095-0.631-0.143c-0.413-0.109-0.798-0.186-1.217-0.292c-0.238-0.034-0.48-0.068-0.722-0.101
	c-0.079-0.023-0.146-0.096-0.214-0.127c-0.054-0.028-0.091,0.002-0.121-0.045c-0.031-0.058,0.32-0.378,0.22-0.526
	c-0.038-0.06-0.114,0.001-0.164-0.03c-0.002-0.014-0.005-0.031-0.007-0.044c-0.043-0.044-0.143-0.02-0.2-0.05
	c-0.018-0.025-0.033-0.054-0.05-0.079c-0.097-0.081-0.283-0.088-0.323-0.221c-0.02,0.013-0.019,0.015-0.05,0.021
	c-0.019-0.088-0.004-0.142-0.008-0.225c0.058-0.075,0.159-0.172,0.18-0.276c-0.028-0.014-0.075-0.014-0.093-0.037
	c-0.058,0.021-0.141,0.091-0.221,0.058c-0.024-0.017-0.043-0.098-0.049-0.129c0.006-0.006,0.15-0.136,0.15-0.136
	c0.04-0.002,0.08-0.004,0.121-0.006c0.082-0.034,0.172-0.143,0.251-0.181c0.024-0.002,0.048-0.004,0.072-0.007
	c0.066-0.025,0.142-0.088,0.199-0.122c-0.04-0.014-0.057,0.004-0.07-0.042c-0.07,0.033-0.146,0.05-0.224,0.006
	c-0.005-0.002-0.013-0.004-0.021-0.006c0.003-0.013,0.006-0.023,0.008-0.035c0.013-0.015,0.02-0.017,0.043-0.021
	c0.003-0.032,0.008-0.064,0.014-0.099c-0.093-0.01-0.148-0.064-0.221-0.093c-0.074-0.03-0.129,0.009-0.201-0.036
	c-0.043-0.034-0.011-0.083-0.056-0.114c-0.059-0.059-0.275-0.007-0.333-0.087c-0.074-0.126,0.179-0.451,0.137-0.708
	c-0.051-0.321-0.064-0.714-0.014-1.07c0.019-0.129-0.015-0.271,0.008-0.413v-0.595c0.037-0.193,0.072-0.565,0.04-0.766
	c-0.005-0.101-0.011-0.205-0.021-0.308c-0.058-0.252-0.157-0.476-0.257-0.701c-0.057-0.127-0.2-0.259-0.235-0.4
	c-0.012-0.046-0.021-0.336,0.014-0.401c0.008-0.015,0.035-0.01,0.042-0.037c0.039-0.15,0.021-0.394-0.013-0.55
	c-0.052-0.224-0.189-0.395-0.273-0.58c-0.063-0.138-0.097-0.33-0.136-0.48c-0.008-0.073-0.017-0.148-0.021-0.222
	c-0.018-0.035-0.055-0.093-0.064-0.136c0.001-0.039,0.004-0.078,0.006-0.114c-0.015-0.057-0.06-0.112-0.077-0.159
	c-0.005-0.039-0.012-0.08-0.017-0.121c-0.019-0.038-0.054-0.032-0.064-0.095c-0.019,0.002-0.04,0.007-0.057,0.009
	c-0.063-0.334-0.232-0.562-0.373-0.823c-0.072-0.136-0.09-0.289-0.151-0.446c-0.054-0.142-0.165-0.277-0.25-0.392
	c-0.062-0.088-0.088-0.194-0.15-0.28C30.23,8.775,30.194,8.737,30.158,8.7c-0.007-0.037-0.014-0.073-0.02-0.107
	c-0.022-0.011-0.043-0.02-0.066-0.031c-0.048-0.08-0.063-0.171-0.121-0.243c-0.019-0.007-0.037-0.013-0.057-0.022
	c-0.008-0.023-0.015-0.047-0.022-0.071c-0.048-0.03-0.097-0.058-0.143-0.085c-0.015-0.026-0.03-0.048-0.043-0.071
	c-0.058-0.052-0.165-0.035-0.179-0.129C29.465,7.92,29.445,7.957,29.4,7.935c-0.12-0.061-0.105-0.158-0.281-0.108
	c-0.022-0.023-0.1-0.073-0.114-0.094c-0.031,0.01-0.039,0.021-0.057,0.043c-0.101-0.02-0.285-0.162-0.366-0.222
	C28.5,7.492,28.381,7.529,28.29,7.483c-0.055-0.028-0.109-0.09-0.187-0.107c-0.104-0.022-0.447-0.063-0.494-0.1
	c-0.033,0.011-0.032,0.018-0.042,0.049c-0.034,0.004-0.071,0.007-0.093-0.021c-0.041,0.004-0.041,0.01-0.057-0.021
	c0.015-0.007,0.029-0.013,0.043-0.021V7.249c-0.021-0.018-0.043-0.037-0.065-0.056c-0.085-0.022-0.198,0.009-0.285,0
	c-0.006,0.01-0.011,0.024-0.017,0.037C27.04,7.26,27,7.225,26.943,7.212c-0.149,0.047-0.302,0.022-0.41,0.037
	c-0.036-0.004-0.071-0.009-0.107-0.015c-0.083,0.023-0.249,0.137-0.301,0.131c0.006,0.01,0.01,0.023,0.017,0.034
	c-0.06,0.024-0.09,0.02-0.152,0.037c0.002,0.02,0.004,0.037,0.007,0.057c-0.019,0.002-0.038,0.006-0.056,0.008V7.464
	c-0.019-0.009-0.059,0.021-0.094,0.036h-0.022c0.007-0.056,0.025-0.073,0.051-0.107c-0.015-0.011-0.024-0.035-0.059-0.022
	c-0.029,0.011-0.072,0.074-0.106,0.086c-0.097,0.035-0.134-0.021-0.23,0c-0.083,0.02-0.205,0.075-0.306,0.059h-0.016
	c-0.009-0.013-0.018-0.026-0.028-0.037c-0.147,0.016-0.156,0.119-0.3,0.135c-0.049-0.036-0.084-0.071-0.159-0.064
	c0.002,0.054,0.017,0.076,0.036,0.107c-0.051,0.05-0.125,0.004-0.163,0.022c-0.292,0.123-0.611,0.187-0.954,0.191V7.836
	c-0.005-0.002-0.01-0.004-0.014-0.006c-0.14,0.06-0.282,0.14-0.396,0.207c-0.035,0.021-0.209,0.008-0.271,0.029
	c-0.147,0.048-0.29,0.14-0.423,0.201h-0.106c-0.114,0.032-0.239,0.131-0.328,0.194c-0.059,0.037-0.139,0.034-0.195,0.077
	c-0.023,0.037-0.049,0.071-0.072,0.107c-0.07,0.047-0.142,0.095-0.213,0.145c-0.166,0.125-0.301,0.409-0.409,0.601
	c-0.072,0.089-0.143,0.18-0.214,0.271c-0.069,0.112-0.095,0.254-0.173,0.366c-0.019,0.025-0.057,0.043-0.071,0.077
	c-0.058,0.129-0.072,0.248-0.121,0.381c-0.096,0.263-0.249,0.575-0.322,0.851c-0.028,0.103-0.022,0.208-0.059,0.33
	c-0.045,0.159-0.112,0.344-0.156,0.486c0.003,0.051,0.005,0.099,0.007,0.15c-0.018,0.054-0.038,0.108-0.057,0.159
	c-0.021,0.244-0.047,0.609-0.122,0.863c-0.019,0.062-0.073,0.157-0.106,0.209c0.016,0.013-0.068,0.265-0.081,0.301
	c-0.027,0.094,0.03,0.213-0.006,0.299c-0.176,0.415-0.587,0.947-0.48,1.532c0.005,0.002,0.009,0.007,0.015,0.009
	c0.002-0.002,0.005-0.007,0.008-0.009c0.041-0.217,0.014-0.647,0.171-0.758c0.01-0.001,0.02-0.004,0.029-0.006
	c-0.006,0.179-0.059,0.312-0.093,0.457c-0.001,0.119-0.005,0.239-0.007,0.359c-0.019,0.435,0.073,0.779,0.17,1.139
	c0.013,0.061,0.026,0.123,0.037,0.185c0.022,0.043,0.072,0.063,0.101,0.1c0.045,0.063,0.061,0.163,0.114,0.224
	c0.031,0.032,0.103,0.036,0.137,0.071c0.006,0.024,0.013,0.047,0.02,0.071c0.042,0.054,0.096,0.066,0.152,0.107
	c0.021-0.021,0.03-0.033,0.034-0.071h0.037c0.003,0.002,0.006,0.002,0.007,0.006c-0.009,0.039-0.019,0.08-0.029,0.121
	c0.012,0.039,0.067,0.086,0.08,0.129c0.013,0.045,0.056,0.206,0.028,0.279c-0.006,0.011-0.031,0.008-0.021,0.042
	c0.011,0.02,0.024,0.039,0.038,0.057c0.044,0.216-0.083,0.351-0.087,0.553c0.04-0.047,0.073-0.056,0.07-0.129
	c0.04-0.003,0.038-0.001,0.051-0.03c0.011,0.002,0.024,0.005,0.036,0.007c0.018,0.095,0.04,0.392,0.114,0.439
	c-0.007,0.07-0.049,0.148-0.108,0.17c0.008,0.025,0,0.015,0.015,0.029c0.032,0.009,0.063,0.019,0.093,0.028
	c0.03,0.052,0.057,0.1,0.086,0.152c-0.001,0.087-0.042,0.148-0.079,0.206v0.03c0.02-0.01,0.039-0.021,0.059-0.03h0.007
	c-0.006,0.077-0.046,0.17-0.086,0.216c0.017,0.012-0.02,0.186-0.029,0.221c-0.018,0.006-0.034,0.015-0.052,0.022H20.3v-0.044
	c-0.008,0.01-0.068,0.179-0.07,0.194h-0.032c-0.013-0.105-0.055-0.239-0.086-0.344c0.004-0.043,0.005-0.086,0.008-0.129
	c-0.039-0.178,0.015-0.341,0.007-0.498c0.021-0.009,0.042-0.016,0.064-0.022c-0.017-0.052-0.035-0.066-0.035-0.129
	c-0.1,0.081-0.058,0.263-0.085,0.423c-0.038,0.208,0.015,0.532,0.063,0.746v0.107c0.028,0.075,0.108,0.098,0.116,0.213h0.008v-0.193
	c0.051-0.057,0.143-0.039,0.212-0.057h0.009c0.034,0.054,0.031,0.152,0.013,0.223c-0.026,0.011-0.015,0.008-0.042,0
	c0.016,0.071,0.027,0.159,0.056,0.213c0,0.045,0,0.037-0.027,0.037c-0.007,0.002-0.012,0.002-0.016,0.007
	c0.01,0.055,0.031,0.049,0.036,0.114c-0.001,0.002-0.005,0.004-0.007,0.006c-0.049-0.008-0.029-0.021-0.086-0.02
	c-0.167,0.257-0.206,0.26-0.543,0.201c-0.004,0.005-0.009,0.012-0.014,0.019c0.054,0.114,0.205,0.224,0.329,0.267
	c0.005,0.029,0.01,0.057,0.014,0.085c0.048,0.086,0.159,0.021,0.259,0.03c-0.012,0.025-0.027,0.025-0.044,0.043
	c0.004,0.042,0.015,0.056,0.03,0.085c-0.002,0.005-0.005,0.008-0.009,0.013c-0.033,0.006-0.062,0-0.084,0.016
	c-0.022,0.015,0.016,0.034,0,0.077c-0.023,0.022-0.043,0.043-0.065,0.063c-0.006,0.007-0.011,0.008-0.015,0.01
	c0.054-0.003,0.109-0.012,0.164-0.017v0.037c0.07-0.019,0.226-0.061,0.259,0.021c0.022-0.01,0.018-0.02,0.021-0.059
	c0.01-0.008,0.02-0.014,0.03-0.021h0.027c0.054,0.11,0.012,0.478-0.064,0.502c-0.032,0.01-0.025,0-0.041-0.022
	c-0.013,0.032-0.038,0.097-0.066,0.115c0.008,0.017,0.019,0.034,0.028,0.049c-0.023,0.028-0.037,0.032-0.07,0.015
	c-0.03,0.048-0.032,0.096-0.03,0.166c-0.031,0.006-0.061,0.013-0.093,0.021v0.029c-0.032,0.042-0.078,0.041-0.114,0.08
	c-0.032,0.03-0.013,0.088-0.078,0.114c-0.004,0.008-0.01,0.013-0.016,0.02c0.024,0,0.047-0.003,0.071-0.006
	c0.009,0.075-0.107,0.2-0.143,0.288c0.053,0.024,0.099,0.056,0.156,0.071c0.105-0.033,0.201-0.005,0.301-0.007
	c0.006,0.002,0.009,0.008,0.015,0.014c-0.008,0.076-0.017,0.119-0.022,0.2c0.003,0.002,0.006,0.004,0.007,0.006
	c0.053-0.008,0.086-0.056,0.131-0.028c0.061,0.041,0.041,0.164,0.069,0.237c0.032,0.074,0.085,0.052,0.13,0.098
	c0.072,0.081,0.026,0.157,0.144,0.201c-0.001-0.056-0.041-0.194-0.08-0.25c-0.014-0.021-0.052-0.025-0.056-0.059
	c-0.012-0.051,0.056-0.08,0.063-0.126c0.007-0.043-0.028-0.047-0.022-0.086c-0.002-0.02-0.004-0.039-0.006-0.058h0.028
	c0.107,0.276,0.711,0.653,0.65,0.959c-0.041,0.078-0.11,0.094-0.056,0.237c0.031,0.025,0.017-0.006,0.044-0.014
	c0.121-0.05,0.125-0.081,0.172-0.204c0.036,0.014,0.041,0.032,0.069,0.053c0.014-0.008,0.025-0.014,0.037-0.022
	c0.064,0.08,0.063,0.405,0.03,0.486c-0.03,0.006-0.021,0-0.043-0.014h-0.007c0.003,0.042,0.042,0.101,0.051,0.159l-0.051,0.256
	c-0.021,0.022-0.042,0.038-0.064,0.058c0.002,0.037,0.005,0.071,0.007,0.108c-0.044,0.061-0.087,0.127-0.128,0.191
	c-0.03-0.001-0.06-0.004-0.085-0.008c0.004,0.027,0.009,0.048,0.014,0.072c0.035,0.017,0.094,0.011,0.142,0.015
	c-0.034,0.088-0.262,0.225-0.343,0.286c-0.251,0.197-0.508,0.399-0.767,0.588c-0.543,0.396-0.739,1.126-0.959,1.847
	c-0.154,0.501-0.246,1.005-0.386,1.518c-0.087,0.32-0.053,0.682-0.093,1.037c-0.036,0.325-0.025,0.704,0.029,0.989
	c0.005,0.143,0.008,0.285,0.015,0.428c0.091,0.506,0.084,1.068,0.186,1.547c0.006,0.089,0.009,0.18,0.014,0.27
	c0.053,0.22,0.04,0.476,0.081,0.703v0.236c0.002,0.116,0.007,0.235,0.011,0.351c-0.022,0.424-0.046,0.852-0.071,1.275
	c-0.025,0.317-0.052,0.639-0.078,0.957v0.374c-0.034,0.213-0.037,0.684,0,0.907c0.004,0.34,0.005,0.678,0.007,1.018
	c0.05,0.657-0.126,1.309,0.036,1.897c0.006,0.068,0.009,0.14,0.014,0.208c0.088,0.337,0.148,0.695,0.22,1.059
	c0.048,0.229,0.038,0.465,0.101,0.672c0.167,0.538,0.548,0.814,0.946,1.118c0.209,0.159,0.407,0.35,0.708,0.415
	c0.258,0.057,0.46-0.125,0.616-0.2c0.44-0.206,0.881-0.415,1.323-0.624c0.251-0.115,0.5-0.229,0.752-0.343
	c0.221-0.179,0.443-0.356,0.666-0.537c0.369-0.287,0.74-0.579,1.109-0.866c0.303-0.321,0.606-0.64,0.91-0.958
	c0.347-0.302,0.696-0.603,1.043-0.902c0.277-0.221,0.565-0.536,0.816-0.71c0,0-1.643,7.697,1.869,20.851
	c0.5-0.021,1.001-0.049,1.503-0.084c0.011,0.039,0.021,0.072,0.027,0.098c0,0,1.644,4.939,1.448,5.465c0,0,0.592-0.132-2.106,2.964
	c0,0-1.976,3.818-1.91,5.073c0,0-0.263,2.695-0.528,6.451c0,0-0.592,4.017-0.854,4.212c0,0-1.646,1.12-1.646,1.778
	c0,0-0.103,1.799-1.737,3.529l0.247,0.297l1.614-2.857c0.107,0.955,0.215,2.32,0.008,2.654c0,0-1.098,2.371-1.186,3.158
	c0,0-0.044,1.581,0.35,2.108c0,0,1.712,0.967,2.328,1.448c0,0,1.491,0.045,1.755,0c0,0,0.659,0.396,0.22-2.502l-0.527-1.801
	l0.791-2.369c0,0,1.535-7.992,2.062-8.736c0,0,4.303-11.106,4.608-11.324c0,0,0.395-0.266,0.221,1.578c0,0-0.307,1.273-0.966,4.347
	c0,0,0.177,4.392,0.132,5.927c0,0,0.218,5.095-0.485,6.584c0,0,0,3.031,0.046,4.522c0,0,0.087,2.414-0.308,3.423
	c0,0,0,2.24,1.492,1.934c0,0,2.195,0.088,2.635-0.09c0,0,0.481-0.481,0.132-2.062l-0.224-0.265
	c-0.442-1.313-0.758-4.346-0.819-4.977l0.56-4.331c0,0,2.282-8.253,2.369-9.569c0,0,0.353-5.094,0.353-8.297
	c0,0,1.667-8.56,2.019-9.131c0,0,0.08-0.306,0.188-0.701c0.39-0.047,0.788-0.09,1.191-0.135
	C45.607,59.421,45.65,59.423,45.688,59.421z M46.413,34.071c0.187-0.131,0.373-0.263,0.557-0.393c0.208-0.32,0.417-0.64,0.622-0.958
	c0.124-0.562,0.245-1.122,0.366-1.684c0.003,0.464,0.005,0.929,0.007,1.389v1.806c-0.119,0.153-0.24,0.304-0.357,0.457
	c-0.143,0.193-0.286,0.387-0.429,0.58c-0.164,0.119-0.331,0.238-0.494,0.358c-0.105,0.078-0.211,0.157-0.316,0.238
	c-0.006,0.004-0.013,0.012-0.021,0.021c-0.002-0.155-0.004-0.31-0.007-0.466c-0.138-0.333-0.277-0.664-0.413-0.996
	C46.089,34.306,46.25,34.187,46.413,34.071z M26.857,37.38c-0.586,0.411-1.17,0.822-1.754,1.238
	c-0.236,0.166-0.52,0.242-0.551,0.621c-0.003,0.002-0.009,0.006-0.013,0.008c-0.004-0.083-0.008-0.167-0.01-0.249
	c-0.257,0.149-0.515,0.3-0.772,0.45H23.75c0.218-1.283,0.435-2.563,0.653-3.844c-0.015-0.425-0.03-0.85-0.043-1.276
	c0.072,0.085,0.144,0.169,0.215,0.253c0.005-0.06,0.013-0.117,0.021-0.174c0.006,0.08,0.013,0.157,0.021,0.236
	c0.747,0.908,1.493,1.817,2.241,2.728L26.857,37.38L26.857,37.38z"/>
</svg>
