<?xml version="1.0" encoding="UTF-8"?>
<!-- Generator: Adobe Illustrator 16.0.0, SVG Export Plug-In . SVG Version: 6.00 Build 0)  -->
<!DOCTYPE svg PUBLIC "-//W3C//DTD SVG 1.1//EN" "http://www.w3.org/Graphics/SVG/1.1/DTD/svg11.dtd">
<svg version="1.1" id="Layer_1" xmlns="http://www.w3.org/2000/svg" xmlns:xlink="http://www.w3.org/1999/xlink" x="0px" y="0px" width="93.701px" height="78.846px" viewBox="0 0 93.701 78.846" enable-background="new 0 0 93.701 78.846" xml:space="preserve">
<g>
	<path fill="#2BA9E1" d="M83.989,21.677l9.712-6.628L79.85,10.994C68.282-9.334,44.675,1.267,36.784,20.6   C27.265,43.903,0,52.403,0,52.403C19.405,75.482,36.907,79.651,48.58,78.73c11.679-0.926,43.2-10.106,36.639-51.083   C84.877,25.517,84.463,23.534,83.989,21.677z"/>
	<g>
		<path fill="#2B3277" d="M79.85,10.994c1.654,2.905,3.059,6.449,4.14,10.683l9.712-6.628L79.85,10.994z"/>
		<path fill="#2B3277" d="M64.41,36.724c0,0-32.4-6.681-36.115,11.348C24.581,66.097,54.495,76.559,64.41,36.724z"/>
		<path fill="#2B3277" d="M70.646,10.493c0.216,1.933-0.78,3.636-2.229,3.805c-1.455,0.163-2.813-1.275-3.028-3.205    c-0.221-1.933,0.775-3.636,2.23-3.805C69.074,7.13,70.425,8.56,70.646,10.493z"/>
	</g>
</g>
</svg>