<?xml version="1.0" encoding="UTF-8"?>
<!-- Generator: Adobe Illustrator 16.0.0, SVG Export Plug-In . SVG Version: 6.00 Build 0)  -->
<!DOCTYPE svg PUBLIC "-//W3C//DTD SVG 1.1//EN" "http://www.w3.org/Graphics/SVG/1.1/DTD/svg11.dtd">
<svg version="1.1" id="svg548" xmlns:cc="http://creativecommons.org/ns#" xmlns:dc="http://purl.org/dc/elements/1.1/" xmlns:rdf="http://www.w3.org/1999/02/22-rdf-syntax-ns#" xmlns="http://www.w3.org/2000/svg" xmlns:xlink="http://www.w3.org/1999/xlink" x="0px" y="0px" width="144.018px" height="108px" viewBox="0 0 144.018 108" enable-background="new 0 0 144.018 108" xml:space="preserve">
<path fill="#F31930" d="M0,0v108h144V0H0z"/>
<path fill="#FFFFFF" d="M87.308,70.111c-4.865,7.537-13.426,12.545-23.181,12.545c-15.156,0-27.443-12.077-27.443-26.975  c0-14.898,12.287-26.976,27.443-26.976c9.75,0,18.306,5.002,23.173,12.533c-4.018-4.382-9.837-7.14-16.312-7.14  c-12.125,0-21.956,9.662-21.956,21.58s9.831,21.579,21.956,21.579C77.467,77.26,83.289,74.5,87.308,70.111z M102.716,51.396  l-5.803-8.317l-0.222,9.972l-3.814,1.036l-5.488,1.49l5.47,1.946l3.7,1.318l-0.222,9.145l5.98-7.142l9.036,3.136l-5.228-7.664  l6.38-7.619L102.716,51.396z"/>
</svg>