<?xml version="1.0" encoding="utf-8"?>
<!-- Generator: Adobe Illustrator 16.0.0, SVG Export Plug-In . SVG Version: 6.00 Build 0)  -->
<!DOCTYPE svg PUBLIC "-//W3C//DTD SVG 1.1//EN" "http://www.w3.org/Graphics/SVG/1.1/DTD/svg11.dtd">
<svg version="1.1" id="Layer_1" xmlns="http://www.w3.org/2000/svg" xmlns:xlink="http://www.w3.org/1999/xlink" x="0px" y="0px"
	 width="100px" height="100px" viewBox="0 0 100 100" enable-background="new 0 0 100 100" xml:space="preserve">
<path d="M72.443,43.17c0.639,2.228,1.199,5.042,1.029,7.994c-0.121,2.156-0.64,3.904,0.938,5.051
	c0.662-0.304,1.289-0.638,2.249-0.673c0.316,1.947-0.646,3.854-0.563,5.386c1.78-0.794,3.125-2.402,5.25-2.607
	c-0.613,3.824-2.268,6.922-6.373,7.826c-0.223-0.11-0.648-0.037-0.845-0.168c-1.239,0.834-2.638,2.252-1.875,4.123
	c1.414,0.617,2.886,0.578,4.312,0.926c1.332,0.324,2.406,1.136,3.844,1.179c2.038,0.062,5.076-0.412,7.404-0.59
	c0.127,0.768-0.857,1.241-1.03,2.021c-1.937-0.168-3.336,0.555-5.062,0.504c-2.367-0.067-4.428-1.289-6.748-1.767
	c-0.642-0.131-1.435-0.127-2.156-0.253c-1.321-0.229-2.883-0.87-3.563,0.337c-0.044,0.24,0.486,0.586,0.281,0.926
	c0.79,1.058,2.343,1.433,2.438,3.114c0.832,0.727,0.942,2.021,0.28,2.945c0.208,0.672,0.638,1.299,0.188,2.188
	c-0.17,0.332-0.851,0.704-1.127,1.263c-0.394,0.795-0.281,1.78-1.219,2.021c-0.168,0.701-0.339,0.877-0.375,1.682
	c-0.281-0.164-0.242,0.092-0.468,0.17c-0.416,0.142-0.997,0.063-1.405,0.336c-0.559,0.369-0.765,1.188-1.313,1.6
	c-0.367,0.119-0.714,0.256-1.126,0.337c-0.762,0.396-0.65,1.071-1.125,1.599c-0.372,0.416-1.059,0.493-1.592,0.842
	c-0.705,0.459-0.826,1.209-1.406,1.769c-0.362,0.349-1.131,0.33-1.313,0.841c-0.111-0.097-0.332-0.096-0.563-0.084
	c-1.632,0.664-1.531,2.455-3.187,3.029c-0.261,0.091-0.586-0.01-0.845,0.084c-0.771,0.279-1.376,0.915-2.155,1.263
	c-0.236-0.131-0.832-0.002-0.938,0.253c-0.674-0.322-2.049-0.013-2.25-0.759c0.479-0.853,1.345-0.97,1.688-1.851
	c0.287-0.742-0.156-1.851,0.467-2.439c-0.237-0.693-0.643-1.716,0-2.273c-0.418-0.838-0.937-2.15-0.279-3.029
	c0.299-1.006-0.486-1.52-0.471-2.523c0.018-0.879,0.881-1.625,0.938-2.441c0.044-0.617-0.442-1.399-0.282-2.02
	c0.162-0.619,1.012-0.982,1.125-1.683c0.094-0.568-0.184-1.054,0-1.517c0.219-0.55,1.147-0.898,1.406-1.515
	c-0.179-1.138,0.564-2.038,1.406-2.524c0.783,0.024,1.087-0.716,1.594-0.674c0.196-0.637,0.544-1.138,0.844-1.683
	c0.358-0.231,1.158-0.349,1.125-0.674c0.229-0.155,0.209,0.213,0.563,0c0.39-0.407,0.986-0.63,1.499-0.925
	c1.432,0.319,2.36-0.506,4.03-0.254c0.604,0.467,1.131,0.489,1.688,1.01c0.306-0.174,0.729-0.242,0.845-0.59
	c-0.166,0.021-0.471-0.082-0.375,0.17c-1.201-0.975-2.738-1.129-4.219-1.853c-0.27,0.013-0.73-0.233-0.938,0
	c-1.297-0.659-2.752,0.144-3.094,1.263c-2.707,1.107-4.998,3.115-8.437,3.282c-0.638,0.031-1.611-0.091-2.25-0.253
	c-0.446-0.111-0.85-0.538-1.406-0.589c-0.323-0.028-0.624,0.142-0.938,0.168c-2.117,0.188-3.79-1.235-5.905-1.009
	c-1.463-0.559-2.123-1.684-3.937-1.768c-0.067-0.004-0.355,0.187-0.47,0.168c-0.375-0.063-1.081-0.332-1.499-0.506
	c-0.449-0.186-0.677-0.623-1.125-0.842c-1.094-0.531-2.384-0.439-3.563-0.589c-0.239-0.215-0.704-0.61-0.75-0.337
	c-0.171-0.247-0.317-0.646-0.75-0.42c-0.028-0.77-1.047-1.355-1.969-1.6c-0.01,0.383,0.35,0.1,0.281,0.42
	c-1.128-0.502-2.799-1.244-3.656-2.271c-1.484-0.479-3.053-1.34-4.217-2.355c-0.848-1.904-2.968-2.666-4.312-4.125
	c-0.983-0.322-2.07-0.554-2.531-1.346c0.748-1.04,2.501-1.178,3.937-1.599c0.854-0.664,1.807-1.24,2.812-1.769
	c1.691,0.36,2.294-1.078,3.656-1.684c0.404-0.182,0.744-0.064,1.125-0.421c0.732-0.016,1.325-0.157,1.593-0.589
	c0.332-0.147,0.23,0.056,0.562,0.084c0.137-0.271,0.162-0.641,0.469-0.757c0.274-0.095,0.706,0.292,0.75,0.673
	c0.77-0.58,1.209-1.246,2.344-1.431c1.398-0.229,3.141,0.608,4.312,0c0.488-0.375,0.754-0.95,1.125-1.431
	c1.832-0.911,3.795,0.551,5.624,0.168c0.563-0.118,1.103-0.555,1.687-0.589c1.085-0.063,1.817,0.937,2.719,1.178
	c0.821-0.29,1.965-0.075,2.437-0.505c0.396,0.401,0.901,0.358,1.406,0.589c1.57,0.716,2.176,2.209,4.967,1.852
	c0.988,0.475,1.305,1.335,2.154,1.851c0.609,0.368,1.443,0.453,2.063,0.844c1.112,0.697,1.424,2.245,2.53,3.28
	c0.682,0.638,1.396,0.89,1.78,1.853c0.38,0.941-0.038,2.047,0.376,2.945c0.215,0.465,0.795,0.846,0.938,1.264
	c0.566,1.662-0.627,2.901-0.563,4.795c0.428,0.437,0.994,0.328,1.594,0.422c2.193,0.346,4.103,1.339,5.717,2.441
	c-0.161-1.97,0.969-2.777,1.688-3.957c-0.845-0.767-1.581-1.593-1.782-2.775c-0.457-2.729,1.428-4.551,2.813-5.807
	c-0.5-1.291-1.181-2.418-2.625-2.863c-6.188,0.117-10.715-3.125-9.842-9.004c0.798-0.291,2.416-0.112,3.188-0.168
	c4.242,1.21,6.823,3.916,8.061,7.829c0.683-2.731,0.404-7.157-1.031-9.26c-0.866,0.224-1.498,0.906-2.719,0.842
	c-0.527-0.028-1.032-0.414-1.594-0.42c-0.351-0.005-0.678,0.229-1.031,0.252c-1.119,0.072-2.053-0.428-2.998-0.589
	c-0.682-1.044-2.152-1.378-2.907-2.356c-1.442-0.238-2.019-1.392-2.812-2.356c-0.521-0.633-1.346-1.011-1.78-1.684
	c-0.345-0.531-0.397-1.16-0.656-1.683c-0.651-1.316-1.744-1.673-1.874-3.198c-0.025-0.306,0.092-0.58,0-0.926
	c-0.313-1.166-1.326-1.86-1.5-3.029c-0.093-0.623,0.109-1.268,0-1.936c-0.175-1.064-0.897-1.936-1.032-3.029
	c-0.082-0.665,0.308-1.176,0.375-1.852c0.104-1.032-0.56-2.343-0.562-3.619c-0.002-0.742,0.366-1.624,0.281-2.272
	c-0.113-0.861-0.929-1.52-1.031-2.356c-0.069-0.562,0.323-1.143,0.281-1.768c-0.064-0.961-0.926-1.838-1.031-2.777
	c-0.093-0.836,0.118-1.61-0.188-2.44c-0.279-0.76-0.656-1.53-0.938-2.272c-0.3-0.792-0.73-1.495-0.843-2.188
	c0.416-0.792,0.834,0.162,1.5,0.336c0.271,0.072,0.61-0.052,0.75,0c0.269,0.101,0.495,0.439,0.843,0.589
	c0.199,0.086,0.527,0.003,0.75,0.084c0.249,0.09,0.538,0.427,0.844,0.589c0.919,0.489,1.821,0.915,2.155,1.767
	c0.77,0.32,1.67,0.582,2.249,1.094c0.351,0.309,0.434,0.838,0.751,1.178c0.787,0.845,2.419,0.844,3.374,1.599
	c0.928,0.734,0.889,1.55,1.875,2.272c0.813,0.364,1.944,0.617,2.812,1.179c1.027,0.666,1.787,2.219,3.094,3.03
	c1.088,0.674,2.248,0.97,2.905,1.767c0.357,0.433,0.438,1.325,1.031,1.347c-0.118,1.415,1.993,2.345,2.812,3.367
	c0.392,0.487,0.469,1.674,0.846,2.44c0.632,1.292,1.887,2.167,2.063,3.451c0.092,0.674-0.102,1.341,0.094,2.02
	c0.302,1.054,0.847,1.958,0.75,2.945c-0.121,1.235-0.813,2.299-0.75,3.619c0.082,1.717-0.922,2.714-1.969,3.787
	C75.445,42.066,74.256,43.035,72.443,43.17z"/>
</svg>
