<svg xmlns="http://www.w3.org/2000/svg" width="211" height="291" id="svgcontent" overflow="hidden" x="0" y="0" viewBox="0 0 211 291"><g style="pointer-events:all" mask=""><title style="pointer-events:inherit">Layer 1</title><g id="svg_10" display=" inline" stroke="null" transform="" clip-id="342"><path fill="#000000" d="M68.65506073804877,79.7216393247063 C68.98821462821923,81.46754336064468 70.10788455751798,82.67651121825169 71.80800378313681,83.12528531444023 C72.16633772369346,83.22031990399967 72.51207525789877,83.2672533228011 72.84408692074558,83.2672533228011 C74.47321576102576,83.2672533228011 75.77720544587574,82.14071726724396 76.58089318180821,80.00327812446426 C80.21695371669313,82.81503978232513 83.4030851657494,85.9290449998773 85.73287156113705,88.93086307454061 C85.26347994269868,89.18844490776132 84.80096083167693,89.4551964653624 84.34301062994977,89.73453804815661 C82.59481575820587,90.80040205123733 80.93592519592842,92.02654798680673 79.40754208182594,93.4118208652247 C79.0251575558903,93.75755839943002 78.65193637317678,94.11476287497948 78.28787215252719,94.48110516911814 C78.1058432327815,94.66428907850394 77.92609876768311,94.84862159637163 77.7486515195485,95.03636803389381 L77.48419079775294,95.32029128829907 L77.21973007595739,95.61452011325011 C76.52364781130275,96.39874531657289 75.87452449008246,97.23219477450262 75.28606684018037,98.11259041355024 C74.10915154037616,99.86994224735807 73.17609858359238,101.81848634413372 72.59451982226511,103.87921758379828 C72.00835300816854,105.93652214149188 71.75991537469527,108.09343019803951 71.86409416400215,110.22629405036639 C71.91904869870207,111.29215805344711 72.05871949009916,112.35115593026946 72.27853762889883,113.39067851216565 L72.36438973176143,113.78107777284156 L72.45597849587521,114.16230730913709 C72.52123860112093,114.42334134896169 72.58993176949582,114.67749011905323 72.66320660948178,114.93281302225958 C72.81089851677737,115.44226555208276 72.97804657552442,115.94485195564758 73.1623599499174,116.44058499527047 C73.25509094135484,116.68900986642728 73.35240998556158,116.93400805561313 73.45201348441563,117.17901262595723 L73.60771374529324,117.54307684660684 L73.7622717788472,117.89111159777592 L73.93285928188166,118.25747303538928 C73.99124687971077,118.3765326856948 74.04734364173433,118.49445010867665 74.1068734668871,118.61122530433487 C74.22479088986894,118.84707929377328 74.34615413829646,119.07948107660782 74.47208629601857,119.3095920236368 C74.97353047225972,120.23235855334947 75.53680169061741,121.11618087436806 76.15044577206393,121.95879367551993 C76.76637430815778,122.80141285783003 77.42810679804585,123.60509421260426 78.14019938870629,124.35955769392977 C78.85001390587767,125.11287894793163 79.60905267765602,125.82726237439762 80.38983843669138,126.48669764732192 C81.16833335992119,127.1449970740808 81.97546692129932,127.76894672607314 82.80777415190538,128.35510715901148 C83.642372218317,128.93782814766237 84.50216309743128,129.48049460608672 85.38141012799701,129.98653959741364 C86.26065715856275,130.49141683678397 87.16051533022008,130.95852400057504 88.07410575439414,131.38784194531212 C88.9888447870501,131.81373320807825 89.92075551651021,132.19953803482662 90.86297181651614,132.55216083876502 C91.80518811652205,132.90591948886882 92.75656137859185,133.2207658360697 93.71595575656016,133.50238549235297 C94.6776345891758,133.77944900165807 95.64503732072613,134.02331772583676 96.61702810504576,134.23854143070886 C98.56212637637576,134.66671076696406 100.52213103333733,134.97697544255385 102.48440100147148,135.1899019304622 C102.72939919065735,135.21508836200667 102.97553960716687,135.24370785668026 103.2205569398274,135.2643317600883 L103.32816879226348,135.27348234099398 C103.28465567427479,135.9042981192447 103.23199835653863,136.57861425316761 103.16102711467465,137.25522122289607 C103.09920007255813,137.87575057407568 103.02478938640675,138.4825221481056 102.93778229390404,139.06066146514544 C102.74659003093622,140.34061970809114 102.494725715492,141.4797394076831 102.16614711577436,142.541028120311 C101.98526680451057,143.12833716173122 101.77804507206223,143.69848088750553 101.54678551655135,144.23885651012432 C101.50213017123897,144.3430416805894 101.45633897976121,144.44720770757982 101.40939917980154,144.54911480455587 L101.39222110183916,144.58688488013516 C100.62975564808985,146.26410212885688 99.53641437765918,147.78447688937734 98.47972009895882,149.2556082518161 L98.38240743591031,149.38956790659498 C97.88095687851093,150.09135492670964 97.36463184127113,150.8114558709521 96.89294938702723,151.54761180930802 L97.12650615950189,151.6975881712509 L97.12650615950189,151.69873677973283 L96.89065217006346,151.54646320082617 C96.57124329472623,152.04218985929083 96.29305032041391,152.50700618727635 96.041166861495,152.9672408436508 C95.70000461774252,153.59461717761405 95.39662521188578,154.22084490309547 95.14132145215413,154.82763562060006 C94.7348927219977,155.80305308689069 94.43264916230639,156.76815860147724 94.24259912666221,157.70465100254842 C93.9048635648807,159.3555268300856 93.90257911023339,160.96405729159068 94.23458439192197,162.4809862266655 C94.61124501892289,164.2074404923106 95.42179888111374,165.82396654508125 96.6433695262303,167.28594732661438 C97.12534478870353,167.86525439561078 97.68060127232096,168.42508616968104 98.29538758109113,168.9562984490777 C98.1740370949801,169.12458235399018 98.05038939190527,169.29518261934112 97.92331500685951,169.46002707996615 C97.50773569579741,169.99466604133377 97.07955359722575,170.52474247456502 96.62849504638992,171.0456364210994 L95.94730640505036,171.82757716977486 L95.77672528317413,172.0256419401593 L95.60270471701047,172.23171506412575 C95.48133508742474,172.3771161356158 95.36457265408298,172.5270924975587 95.25237274887762,172.68278637727806 C94.80474088001272,173.29872129453014 94.43610136891029,173.984497988639 94.17849401105663,174.72062840236197 C93.92662969561239,175.46021102268884 93.79611586627921,176.2501537437881 93.8098544999542,177.05040841659138 C93.82701981560014,177.8472364074237 93.9895862027361,178.66237832238386 94.33534288041612,179.41110514245818 C94.6799381872978,180.15642442403626 95.19855406034313,180.83187002296637 95.83280290172299,181.35966838270852 C96.46705174310287,181.88858344514142 97.20663436342976,182.27211019840072 97.9713906529846,182.5033506104369 C98.73730193217953,182.73003487549494 99.52268212514242,182.82164916424165 100.2885806420209,182.81935194727788 L100.43855700396381,182.81706111147236 L100.57134890678606,182.8136152860267 C100.67666992341658,182.81018860405575 100.76711646020671,182.80560055128643 100.8655777317371,182.79874718734453 C101.05791222202859,182.78500855366957 101.2525375481256,182.76782409454893 101.4471628742226,182.74033406488252 C101.83526491793475,182.6842500651754 102.22338610512158,182.59265491990337 102.60462202257534,182.47015582531046 C103.36593886784276,182.22173095415363 104.09864898075303,181.81302415050814 104.69741858235916,181.26576325815628 C105.29389096700153,180.71511397078285 105.74953757060668,180.0487998092837 106.0838336881008,179.3607450416858 C106.42042702255867,178.66923168632576 106.62763599269053,177.94453630815576 106.77531513766966,177.22786204588422 C107.03062527855953,175.91243094432303 107.07069257110258,174.6004265247328 106.98939661521814,173.313608536687 C109.41764428213618,173.96160877405833 111.97295995294175,174.29245906610677 114.43783546811542,174.29245906610677 C116.26845576075098,174.29245906610677 118.04756096297403,174.11156599252652 119.69501010854026,173.74405594643125 C119.998389514397,173.6776727573366 120.29835500059924,173.60209431922863 120.59486189903937,173.51853305217156 C120.61317582316717,173.82992719276857 120.61775111362002,174.14477992112765 120.6188997221019,174.45619320519936 C120.62577222951852,174.87634780671428 120.62119693906567,175.29877410056005 120.61662164861283,175.72468450680088 C120.61662164861283,176.1494271610851 120.61662164861283,176.57872596234748 120.62347501255474,177.01034112404832 C120.62806944648227,177.22556482892045 120.63378696425876,177.44538296772012 120.64065947167536,177.66061943490874 L120.6429503074809,177.7396373173041 L120.64524114328644,177.78427351914178 L120.6486869687321,177.8277866371305 C120.6532558780267,177.887310081125 120.65783116847955,177.94683990627775 120.66471643821261,178.00409165794144 C120.67386701911828,178.1231449270887 120.68875426127514,178.2410687312288 120.7070745665612,178.36128975233265 C120.85476647385678,179.30350605233858 121.20967373244247,180.21137257757792 121.72485016120038,181.00360613448274 C122.23661267030378,181.79584607254574 122.87772763794204,182.4930641833658 123.59325967288991,183.08609712372075 C124.31680644257806,183.67340616514096 125.11362167109391,184.1588208719016 125.9596739165332,184.54235400631913 C126.38442295197567,184.730119587316 126.82062616644582,184.90184931767413 127.27052972764155,185.03234400353264 S128.1806934698447,185.2647713110001 128.64894924211762,185.3322967274184 C129.58199581774315,185.46738584720444 130.5574260463502,185.47197389997373 131.52369293173513,185.27849080120038 C132.4853462397178,185.0770057300032 133.4344478094568,184.66484671975385 134.23012719180724,184.03290147649597 C135.02693603916487,183.4100940518273 135.65089207231543,182.57549598541567 136.06532277489563,181.70197285378467 L136.1420306780108,181.53481841387938 C136.16606850107334,181.48101248766136 136.18897047797046,181.42490934447954 136.21300191987476,181.3699548097796 C136.2576572651871,181.2611943488617 136.30230622934124,181.15243388794372 136.34353489268264,181.04023398273836 C136.42594755125782,180.81700830544244 136.50151322704932,180.58802682342062 136.56562472381316,180.35677364906797 C136.69498994466446,179.89425453804623 136.7842878729727,179.4122601320983 136.8232129381921,178.91997291792106 C136.8999272224655,177.9388251715375 136.74765364355883,176.92104957689833 136.37214162503977,176.01890056943546 C135.99892044232627,175.112182652678 135.44137312290331,174.32566661354969 134.8151390162637,173.64789189186465 C134.50030543137927,173.3090204839177 134.16944875817262,172.99534826983165 133.82026539852163,172.7068433438153 C133.46993981154702,172.4183192743243 133.11158672751566,172.150438251716 132.7429599787297,171.89971616359543 C132.00338373956106,171.3994142146779 131.23976329617165,170.96208153520058 130.45324725704333,170.58314283471057 C129.66673121791501,170.20190691725682 128.8699223705574,169.8561502395768 128.05820713756822,169.56077280614386 C127.97118728274904,169.5298752379812 127.88190211675726,169.49552546321462 127.79374641577266,169.46460875157723 C128.5699696466716,168.7467794996656 129.27633833839735,167.96370928598296 129.89684216494402,167.13482873734782 C131.36798628969927,165.1713973984153 132.35600654349946,162.9572631148369 132.75784722088656,160.72593160982143 C132.9478908753725,159.65894452289174 133.00398763739605,158.59534583098363 132.9249888984754,157.5604240641732 C132.81736428372284,156.105296646582 132.44873115377865,154.69941900823068 131.8224906659808,153.3771217804111 C131.43324001378676,152.55624320419977 130.9455217089041,151.7663004831005 130.373106290799,151.02786647125552 C129.55338908538602,149.9688749755914 128.54133738968153,148.9877399915243 127.36899738033019,148.109628807124 C127.2190210183873,147.99513168495486 127.05530602276943,147.88409315054784 126.86755958524725,147.76731795488965 L126.86755958524725,147.76731795488965 C126.28596806160353,147.4021178880746 125.65859810879847,147.1044432376779 125.05182015361032,146.8148088466544 C124.13250583050151,146.37860563218425 123.26469383548876,145.96761437389145 122.53199648489496,145.334501378677 C122.31790224503003,145.1524724589313 122.11297772954543,144.94067543603012 121.91491295916101,144.71056448900111 C121.08261210971317,143.73284342458854 120.48384250810705,142.41397925989816 120.13237469380877,140.79057431855273 C119.99614334669909,140.1689155023659 119.89997291097423,139.5071957747943 119.84616698475621,138.82027047220362 C119.74313042277298,137.5059879791243 119.79922718479654,136.159621022451 120.00300947295746,134.91059225345919 C120.02706005833647,134.90829503649542 120.04996203523359,134.90601696300638 120.07514208561977,134.90371974604258 L120.07057317632517,134.80296125754845 C121.76380713221094,134.5625575022901 123.45017496183833,134.27519480359743 125.130818892531,133.9191453176881 C127.04387098721644,133.5150265668119 128.94203583974502,133.00555489351402 130.80243061669432,132.3358140500439 C132.65937956819795,131.66264652460288 134.48314649689158,130.82917792319844 136.1695207076772,129.7049390846051 C137.00639684757792,129.14168062856388 137.81009734582685,128.50512180790372 138.5439369237443,127.78616309098491 C139.27779564513645,127.0683402202315 139.9440970443191,126.26580109278093 140.50737464383502,125.38882575454602 C141.07292393568179,124.51415401443312 141.533152210898,123.56279989583801 141.8731786084851,122.57936769480715 C142.21777391536673,121.59019883252512 142.44217372577748,120.56555711162756 142.56466005805396,119.53519149179529 C142.8108068557217,117.47216303516696 142.63679267071626,115.40340429844568 142.25670536174437,113.42165903538535 C141.5045327162244,109.45244461032998 139.92120782973848,105.66297465037297 137.77230812677286,102.25932866063903 C136.69842938895187,100.5534919172437 135.4688567714115,98.95183396315525 134.1339567560824,97.44748867211531 C132.7967595237895,95.94429837071547 131.3450906939604,94.54414463129888 129.7995295018955,93.25732026209484 C128.31923479623458,92.02430820026706 126.7519266169127,90.89548769006262 125.11134359760484,89.87884156043063 C125.5040400752445,89.29039667284499 125.9265046560397,88.73513380806934 126.38786877742132,88.20621874563645 C127.44571166460356,86.99037838061282 128.76116190963944,85.47916696331451 130.2448960595878,84.35149506159196 C130.91577913038157,83.84088116097043 131.7492349694695,83.45277911725829 132.55865298549494,83.07726709873924 C132.62275810110054,83.04749899558375 132.6845915243753,83.01887950091015 132.74985801077923,82.98796278927276 C133.6703017988952,84.11908051644097 134.90674054269394,85.53756094230187 136.6938668608155,85.63487360535035 C136.76028195570132,85.6383002873213 136.8232320816668,85.64059750428508 136.8862077322652,85.64059750428508 C138.83130600359522,85.64059750428508 140.3459504840227,84.01717980062315 140.86000382893167,82.35828923834572 C141.51714826605044,80.22657399450074 140.74551946907897,77.93227322004508 138.98129512785457,76.77825989713799 C137.30179980564378,75.67576166464339 135.03726713434358,75.831461925521 133.5947488854202,77.14804163556407 C132.09155858402033,78.517297806818 132.15452785346054,80.57000793058405 132.33196233927868,81.99421863653788 C132.3537157076939,82.15793363215576 132.37661768459103,82.33423227180849 132.4063794065883,82.53229704219291 C132.37775991191467,82.54488706738601 132.3479981899174,82.55748347373734 132.32165676873288,82.57122210741232 C131.48705232116305,82.95933691344092 130.62499613087616,83.36002898234617 129.90601827048263,83.90727073122332 C128.37764153753838,85.06929878887067 127.04044430524549,86.60569663771342 125.96771417590638,87.83984454570663 C125.48459030495128,88.39395880200038 125.04381818118652,88.974395336004 124.6328205417355,89.58918164477419 C123.85659731083652,89.12208724329957 123.06093069080255,88.67786929408918 122.25380989174089,88.26343859150896 C121.80388080591223,88.03332126332174 121.35051865695436,87.81121866987478 120.89372344486735,87.5982730384917 C120.4334887884929,87.38648239674876 119.96867884166561,87.18384233591149 119.50158444019101,86.99036561829637 C117.63089047385417,86.21643960436117 115.6972208569189,85.58561744495222 113.71203614957116,85.1265377782179 C111.7314394949927,84.66744534916708 109.71879028261145,84.37665596850346 107.69812633548996,84.23698517710636 C103.65677929777226,83.9610638951249 99.58338608340999,84.2782010781313 95.62905890051147,85.17805924978862 C92.38111955281337,85.93250358763943 89.20757812895022,87.08080577392826 86.2366767659243,88.652689243703 C83.87026252228102,85.58677881575059 80.62116180378459,82.4063648844708 76.91411726471921,79.54079091923367 C77.64796960495313,77.95860187891314 78.34060604416213,75.71582895718643 76.75956561232348,73.72034506045114 C75.34795769387922,71.94009763090442 73.00672350062213,71.53825057235906 71.31462539090178,72.78614349518548 C69.35578210473855,74.23323703456174 68.1903146028038,77.27626462909171 68.65513731194756,79.72167761165569 L68.6551245496311,79.72167761165569 L68.6551245496311,79.72169037397217 L68.65508626268169,79.721658468181 L68.65506073804877,79.7216393247063 zM126.84576154872438,147.8038947538794 L126.71639632787307,148.01796985026965 L126.71639632787307,148.01110372401126 L126.84576154872438,147.80388199156295 L126.84576154872438,147.8038947538794 zM129.51442573321722,166.70888642531582 C125.75357526793381,167.12218766288888 121.74544215881727,166.91268147579322 118.2044034511753,166.7237864297892 L117.9307793861576,166.70888642531582 C111.71879842053374,166.38146281523834 106.62533239456855,165.6624849548448 102.35961107107302,164.50849077541244 C100.05959277884087,163.8891100327147 97.63708177317402,163.15640630096266 94.74975443952164,162.2096147105039 C94.48644232620798,160.90334695216487 94.47957619994959,159.52950910929988 94.73487357852301,158.11561673620832 C97.67486461106976,158.96508290130208 100.42594145413777,159.54437720798205 103.13238209536813,159.8821191509218 C103.75518313887856,159.95997566251884 104.37569334658346,160.0412588560868 104.99391909964106,160.11911536768386 C109.92365736767194,160.74993114593457 114.57979709531804,161.3429640862895 119.5404520749863,161.2662434208579 C120.88908434283218,161.24563866092453 122.23543215603074,161.2570928399522 123.5394346031972,161.26854063782167 C124.32709925080738,161.27539400176357 125.10102526474259,161.28227927149663 125.87035684475025,161.28227927149663 C127.97574342972717,161.28227927149663 130.02962768660805,161.23419724421333 132.13042621881567,161.0052093810333 C131.71254969078979,162.9858187979282 130.81499511725445,164.9492501368607 129.51443849553368,166.70888642531582 L129.51442573321722,166.70888642531582 zM121.39281935487887,175.67770003873358 C121.34016203714273,174.9083493152512 121.28634972976646,174.12871854585597 121.16041757204434,173.35248255264054 C122.61665531116805,172.889969822777 124.01453097709557,172.23050902521976 125.31853342426201,171.38905121370803 C125.96423644466957,170.97460774881137 126.5950586040785,170.50636473885487 127.19494490837535,169.99806081751356 C128.1612117937603,170.40447678535352 129.1114364473482,170.85212141653489 130.02847269696792,171.35585004742333 C130.7669003276547,171.76114931257257 131.48241321912786,172.20534173715006 132.15217320607266,172.7021978606219 C132.8253343503555,173.19907312756845 133.4561565097644,173.74745072261106 134.00110742283604,174.36797369263243 C134.5472005632313,174.98620582684825 135.00284716683646,175.68112672070453 135.29364930981657,176.44131410096477 C135.58672952628575,177.19692619077216 135.700078039973,178.01547564422856 135.62450598302325,178.82260282444844 C135.5523861326774,179.6297427669848 135.30052181723318,180.4254285304935 134.9444659501656,181.1661342346693 C134.59069453774532,181.9034324003489 134.09040535114428,182.55829238282035 133.4504389919879,183.0517090620048 C132.81732599677346,183.54973293743322 132.0571513788297,183.87829239367613 131.26147199647926,184.042007389294 C130.46351454063972,184.20687099339375 129.62891009306986,184.21258851117025 128.81491678659162,184.10153721444675 C127.1800576662185,183.87140712394307 125.60472837099812,183.1879467902727 124.29846061265907,182.17818593037376 C123.64818230179867,181.67330230984518 123.06431270466587,181.07683630636106 122.59721192203304,180.40366239976177 C122.13239559404751,179.73163072048615 121.78664529752574,178.9771800014771 121.6263697461953,178.1838105984069 C121.58630245365224,177.98342308642577 121.55996741362593,177.78882328496167 121.54051126217445,177.57816848938415 L121.48325951051076,176.94734632997523 C121.45120695270798,176.52603035766194 121.42373606651626,176.10244907417606 121.39282573603711,175.67772556336652 L121.39282573603711,175.67770641989182 L121.39281935487887,175.67770003873358 zM106.75814344086548,172.67473973674666 C103.82845159770628,171.8470077965934 101.22849334390483,170.5762192780281 99.21812220501265,168.99401747539113 C99.36123244069715,168.7478898211981 99.4997610047706,168.4994521877248 99.6302748341038,168.24988508924434 C100.55645528347095,168.52005694765816 101.4036497562339,168.7593312379093 102.2142163807412,168.98027884171614 C106.50398190845748,170.14002882587442 111.63522439116022,170.86472420404445 117.90102404531858,171.19902032153854 C118.63258554974695,171.23680954059253 119.3835968244686,171.2768576896609 120.15637422992191,171.31464690871488 C121.71567405566178,171.38792812985906 122.99447730896733,171.42800180356036 124.16565594752034,171.4348615486605 C123.08492384575746,172.04620841314326 121.94463639420887,172.53621755383145 120.7654430209156,172.8899889662517 C120.37619236872158,173.01020360619734 119.97550029981633,173.11552462282788 119.57364047895452,173.20366118033778 C115.67427421191415,174.07033094802688 111.00440223175129,173.87684784925352 106.75814344086548,172.6747461179049 L106.75814344086548,172.67473973674666 zM98.61822313839933,169.93624653771352 C98.72239554654797,169.7839601964904 98.82429626236579,169.62942768756935 98.92389976121981,169.4737146643753 C100.93541312743565,171.04332644181918 103.50674550540528,172.3118177434207 106.39635729370495,173.15215885224174 C106.35171471070906,174.45842022942256 106.22921561611614,175.75898323230157 105.90865813229702,177.00916060977528 C105.73921923774442,177.66400144877204 105.51139274536273,178.30626502489218 105.19884999628385,178.89360597210361 C104.88630724720498,179.48434169549475 104.4844538075014,180.02013564650247 103.98644269438942,180.4494599723978 C103.49071603592476,180.87992652561672 102.90225838602265,181.19590871898302 102.27030676160653,181.3859332299943 C101.63833599371574,181.58058408072424 100.96746568523845,181.65612423188279 100.29313678899905,181.65156808490465 C99.62109872856517,181.64927086794088 98.95022842008791,181.56454184892723 98.31483097022614,181.36991652283024 C97.68058212884625,181.17757565138052 97.08296751688026,180.87075680123638 96.57808389635167,180.45403526285062 C96.07205804849943,180.0384559517885 95.66219625521383,179.50952174588096 95.38400328090152,178.91419796972048 C95.10466169810734,178.32114588589081 94.95468533616445,177.6685958826996 94.93178335926733,177.00686977396975 C94.88255272350213,175.68340479419362 95.33362403665444,174.3576617409284 96.09037197262727,173.2540468057431 C96.18540656218669,173.11666046899327 96.28386145255884,172.98042274072537 96.38804024186572,172.84876668406855 L96.71203716997226,172.44346103776107 L97.36461269779643,171.6248988219882 C97.79735732450447,171.0799351466001 98.22095137030682,170.51896752636443 98.61822313839933,169.93624015655527 L98.61822313839933,169.93624653771352 zM97.74812668873926,167.6808835907937 C98.15455541889568,167.8068093673576 98.54037938911877,167.92473317149768 98.91244558219215,168.0380689228685 C98.81513291914365,168.1937691837461 98.71553580144784,168.3471658465017 98.61479007527014,168.4971613519193 C98.31026844208976,168.23155202164182 98.02061490759155,167.96023155474614 97.74813945105574,167.68087720963547 L97.74812668873926,167.68087720963547 L97.74812668873926,167.6808835907937 zM97.26156337349674,152.0100926333804 C99.22499471242926,152.3627154373188 101.53072414127966,152.74624219057807 103.9040172734978,152.97979896305273 L104.34706747075163,153.02329293756674 C108.39184119044026,153.42514637727032 112.21337008935829,153.80180700427127 116.29478441961905,153.7857711536325 C118.05671154387971,153.77662695388506 119.85985456916531,153.83271095359217 121.60919166823288,153.88652964212667 C123.25319498835347,153.93804473253914 124.9246947192987,153.9895662041099 126.59962113221488,153.9895662041099 C128.20011771550497,153.9895662041099 129.80521511388082,153.94148417682658 131.39197306349598,153.80180700427127 C131.90142559331915,154.9283430598284 132.22199583945473,156.11786114714215 132.3399132624366,157.34627239388416 C129.41595169937034,157.68630517262946 126.57326694871387,157.66340319573234 123.56574411859057,157.63937175382804 C122.25373969900033,157.62676258516024 120.89365325212678,157.61532116844904 119.53241819677136,157.63705539338957 C114.61869663590453,157.71376967766295 109.99233777373037,157.12531202776086 105.09349707386217,156.49907792112123 C104.46612073989887,156.4189560983516 103.83644718897185,156.33651791514347 103.20334695607386,156.25752555738103 C100.80372516498765,155.95527561653148 98.37433527074597,155.4652920004762 95.78582481481395,154.7577555567939 C96.00563657245539,154.25975082484018 96.25522281441053,153.75142776002417 96.53340302640638,153.24082662171912 C96.75092394824227,152.838985944332 96.99134684697529,152.4348480499811 97.26154423002204,152.01010539569685 L97.26155699233851,152.0100926333804 L97.26156337349674,152.0100926333804 zM101.90280309666953,144.81925475717853 L101.91998755579014,144.781478300441 C101.93486841678879,144.7517101972855 101.9474584419819,144.71737956599364 101.96234568413874,144.68760508167992 C105.5159744169738,145.7374332341219 108.57159203669688,146.4003207136501 111.5573742607214,146.76781799742886 C112.43433683663984,146.87542984986493 113.32617389239869,146.99564448981056 114.18939783464215,147.11583360512327 C115.57352210457823,147.304747794602 117.00459893679044,147.50050896686446 118.41506462791105,147.64133474790168 C119.91711270198724,147.79131110984457 121.66186174828549,147.95502610546242 123.38830963277242,148.03401208206662 C123.75465830806931,148.05234514966915 124.15536952044924,148.1061510758872 124.5801121747335,148.15995700210522 C125.14109255728565,148.2343676882566 125.71810240931829,148.31222419985363 126.27334613061925,148.31222419985363 C126.39699383369407,148.31222419985363 126.52064153676888,148.30650668207716 126.64085617671451,148.29733695769676 C126.78166919543526,148.38664126716327 126.90874996163926,148.47364197850774 127.02551877613922,148.56179767949232 C128.00322707823534,149.29449503008615 128.861875730026,150.09704053869496 129.58312528275033,150.9556764281691 C126.9396602921184,151.08389942169674 124.24124076678653,151.0003317734815 121.62295582654079,150.9201844260789 C119.873612346315,150.86639126217733 118.06245458628915,150.8102817378373 116.29021551032444,150.81944508105943 C112.2522951545777,150.83890761366914 108.46627740122457,150.46224698666822 104.45698292130967,150.0661238270576 L103.95782958087406,150.0168931912924 C102.48211016566594,149.8715048821188 100.92740477385362,149.65855925073572 99.09678448121808,149.35632207220266 C100.11913536631009,147.9344085832126 101.1575284831991,146.45983777648638 101.90281585898599,144.81924837602028 L101.90280309666953,144.81924837602028 L101.90280309666953,144.81925475717853 zM103.44493122560523,139.43958102216075 C106.72151559260985,140.16771584461816 109.95801352359675,140.51575059578727 113.37655313664577,140.88324787956606 C114.87287731178722,141.04238758473107 116.5592451414146,141.1935061739976 118.22730542807241,141.1935061739976 C118.69898150115809,141.1935061739976 119.16837311959645,141.17976754032264 119.6343252937474,141.15343888145458 C119.95603138604841,142.5329878609378 120.46205723390064,143.7030306533254 121.13522475934168,144.63723221859107 C119.47863141402802,144.65782421620798 117.76821299902161,144.4883917028136 116.10588299245677,144.32467670719575 C114.710304543493,144.1861481431223 113.26778629456959,144.04532874324332 111.88365564347527,144.01785785705158 C109.12455768450876,143.96747861280454 106.30477491074942,143.4786308429147 102.77862344526432,142.43795965253662 C103.05453834608754,141.51176005969472 103.27205926792344,140.5226103408874 103.444924844447,139.4395682598443 L103.444924844447,139.43958102216075 L103.44493122560523,139.43958102216075 zM103.88456112204632,135.31695079087507 L103.95555150738498,135.32497190677356 C104.45241401201507,135.36389697199294 104.94012593573949,135.39595591095397 105.43241314991674,135.42228456982207 C106.41469674246571,135.47838771300388 107.39697395385645,135.5115824981303 108.37927030872187,135.52760558645258 C110.34041081184884,135.566530651672 112.2981118706884,135.50356776339004 114.24664958630582,135.39710451943586 C114.73436151003024,135.3696272520859 115.2209120629563,135.33871054044852 115.70519730470976,135.30665798264573 L117.1603119599845,135.18759833234023 C117.9159049063172,135.1212023809291 118.66692894335529,135.05478728604328 119.4236768793281,134.98037659989188 C119.24622325003526,136.14125604905735 119.19126871533535,137.38227646446717 119.26684715344331,138.60498933690735 C117.71327122663817,138.75266848188647 115.91125766635976,138.58323596849215 114.31190969155153,138.43555682351302 C113.55631036406061,138.3634242108507 112.84306278376005,138.2981704867632 112.18820280128858,138.26611792896043 C109.38903754977903,138.12301407443414 106.62307346455415,137.7303239779527 103.74261225716016,137.06861063153931 C103.79985762766562,136.46641434796226 103.84679742762526,135.8768144707365 103.88457388436278,135.31696355319153 L103.88456112204632,135.31695079087507 zM75.63983187144241,117.01186456721018 C79.6868964269366,113.6482858700193 83.04360899786911,111.51313756304512 86.50221590346119,110.1003874172772 C96.42009279966852,106.05331648062479 104.7489209104552,106.26968879397879 114.9770561010941,107.93088295437823 C124.38776492212556,109.4638477400918 132.74634837375123,114.27681081246446 140.52565028101344,122.64111178186666 C140.25204535947046,123.38528245496282 139.9085667552795,124.10195671723436 139.49069022725365,124.77740869732271 C138.50039189996443,126.39624472937355 137.11397041306458,127.75404034044156 135.5535347411593,128.8485238381959 C133.99080823344846,129.94758262640306 132.2552161492141,130.8016432254244 130.46808344993434,131.5000035635681 C128.67638184135996,132.19837028287003 126.82173010682008,132.7456120317472 124.9487453046777,133.20584668812165 C123.07461189405343,133.6626419002087 121.17529843304297,134.03357862827488 119.26911884577414,134.35986001102876 L119.27369413622698,134.38389783409127 C117.59647050634703,134.44457626772592 115.91467796717248,134.50297024671326 114.24090016273819,134.51669611807176 C112.30839191660127,134.5327255875523 110.3735864535006,134.49379414117465 108.44449850817641,134.38847950570238 C104.58634814216099,134.17438526583743 100.74076227670572,133.67980083469638 96.99939348750671,132.73758453469048 C93.2625872264441,131.7988140601302 89.63110198201201,130.3963503414334 86.33276424659213,128.41119115871857 C84.6841792548605,127.42202867759475 83.12030413866779,126.2897687231029 81.67321059929154,125.02470410347233 C80.2249684514334,123.7642147742946 78.91639709497235,122.34688933807384 77.80474190041384,120.78644728501033 C76.9552629730036,119.60038140430044 76.2294189863517,118.33874346664082 75.63982549028418,117.01185818605194 L75.63983187144241,117.01186456721018 zM85.44436663512073,91.52738826521286 C85.946965801002,91.21942718774508 86.45985139395437,90.92634059011768 86.97847364815792,90.64470817151795 C88.29505973935922,92.5955367229409 89.22353740569017,94.47882709562907 89.74330188721737,96.24877533578822 C89.72611742809674,96.2567900705285 89.71010072093269,96.26595341375062 89.69407125145219,96.27281954000901 C89.53035625583432,96.34951468080769 89.36091736128172,96.41134172292422 89.18689679511807,96.46285681333671 C88.83541621850333,96.56247307450721 88.46220141694805,96.60253398589205 88.05119739633878,96.57848978167127 C88.3854935138329,96.82348797085713 88.82741424607953,96.9253823055167 89.2578807992985,96.89562058351945 C89.4731172664871,96.88187556868623 89.68719874403557,96.83608437720846 89.89212964067838,96.76395176454614 C89.94363834993264,96.74678006774198 89.99401759417972,96.72617530780862 90.04325461110314,96.70442832055161 C90.09133663838647,96.68381717946004 90.14742063809356,96.65748852059195 90.1886365391185,96.63801960682403 C90.28824641913079,96.58765312489342 90.37982880208632,96.53384719867537 90.47142394735835,96.4743109923644 C90.83206148603699,96.2361789294369 91.13429228341182,95.90989754668306 91.33922318005463,95.53437914700578 C91.54186962205013,95.15887350964496 91.64833286600432,94.72725834794412 91.59108749549887,94.31625432733486 C91.41707969165167,94.68947551004837 91.2167240854617,95.00890352886032 90.97630118672869,95.29053594746004 C90.75878026489278,95.54698193451534 90.51034263141952,95.76794230063865 90.24016439184746,95.9556823570026 C89.70323459467431,94.18917356113087 88.7736083198615,92.31391068549942 87.4742003066226,90.38024744972239 C90.19552180885157,88.9629156323434 93.10916503905555,87.90963527329754 96.0995353158494,87.2078546343411 C99.84894436442158,86.33089205842268 103.7277058715286,85.99773816825221 107.57098813886186,86.23473438501428 C109.49433942293487,86.3537940353198 111.40625567145487,86.61711891094993 113.28151854708632,87.0372798936231 C115.15909140199801,87.45858948477814 116.99772642937383,88.04245908191095 118.78256191168985,88.76600585159908 C120.47350503177007,89.45178892686616 122.11066775026522,90.26233002674053 123.68483567468724,91.1827929583312 C122.5857641241636,93.24125888682316 121.89541213960192,95.42334061259876 121.36993014029822,97.33639270728419 C121.2783349950262,97.28830429884266 121.18903706671796,97.23908004423569 121.10432081002077,97.18525497454296 C120.84214454287252,97.02040413275967 120.6005921791323,96.82463019818078 120.36589317933402,96.60826426598499 C119.89650794205389,96.17436464963686 119.48090948751708,95.65459378695141 119.0046581239786,95.18291771386575 C119.29201444151303,95.78740483324836 119.60570579907377,96.37699194815764 120.04648430399678,96.90936559835265 C120.26400522583268,97.17267771166632 120.5204384505715,97.4188308904923 120.80665892194054,97.62490401445876 C120.95205999343058,97.727940576442 121.10660526466808,97.81723850475024 121.26000830858192,97.90080615296552 L121.3790807212039,97.95919375079463 L121.49126786409279,98.01301243932913 C121.56682715872607,98.04965943105947 121.64581951648852,98.08514505199145 121.7213788111218,98.12063705408166 C121.87822768048129,98.1870330054928 122.0316434867116,98.25114450225661 122.18391068446002,98.31182931704949 C122.33157706712267,98.37134637988578 122.49989287782631,98.44119453790078 122.66933177237888,98.49041879250774 C123.00477649835487,98.59230036485087 123.34936542407833,98.65183657116185 123.69510933944187,98.6701568764479 C124.04085325480541,98.68733495441029 124.3866035513272,98.66672381331871 124.72433911310871,98.5968947987784 C125.05749300327919,98.52475580495785 125.38606522183856,98.41027782626341 125.66998209508559,98.2270939168776 C125.01512849377235,98.36906830639671 124.36714739987573,98.34616632949958 123.74319136672517,98.23510227045963 C123.43294583461008,98.17786966227064 123.1272755929478,98.09773507718454 122.8353376038023,97.98897461626659 C122.68878792383036,97.93516869004856 122.55255657672069,97.87448387525569 122.39685631584308,97.80465486071537 L121.943487785727,97.60888092613648 C121.92173441731175,97.59971758291434 121.90112327622018,97.58941201236854 121.87938905127963,97.5802486691464 C122.39800492432497,95.68436827126513 123.07803857602438,93.50915905290614 124.16450733903845,91.46787758353481 C125.73982387194238,92.41924446444641 127.24873807227692,93.47938456859241 128.67753044984184,94.64025763659964 C131.66216406538447,97.06964753084134 134.30333822021086,99.9352278772367 136.40989255714436,103.15568995758484 C138.51640860712848,106.37274449943672 140.07914787715575,109.95615409774373 140.85994639850756,113.72041848268162 C141.08318483811996,114.79085777621518 141.23888509899757,115.87617793074737 141.29611132602832,116.96379530224333 C134.68458689998113,109.72488177991639 127.20868354205034,105.54616116776536 117.83804201356193,103.83803996972273 C110.93571544453462,102.57869286786864 97.57181528677008,101.15677937887857 85.6218266455718,105.77627211479435 C81.92508129589399,107.20620033852468 78.41954097150048,109.3791314833946 74.30607408343694,112.7976647152854 C74.13548658040247,111.91727545739602 74.02672611948452,111.02543202047895 73.98551659961781,110.12901329310904 C73.89850312595686,108.22167871620009 74.12174794672748,106.30061826793263 74.64952716299496,104.4665649121679 C75.17387331613322,102.63020795828115 76.00160525628647,100.88316169501911 77.06173897927424,99.29296430111657 C77.59180265018901,98.49614269144247 78.17911169160924,97.73824614698778 78.81336691414735,97.02156550355801 C79.44875160169265,96.30602708745192 80.12766216954313,95.62254761030684 80.83747030555627,94.97570236257563 C82.25595073141714,93.68316685675333 83.80493860545299,92.53145075081001 85.44436663512073,91.52740740868758 L85.44436663512073,91.52738826521286 z" id="svg_13" stroke="null" transform=""/><path fill="#ffffff" d="M110.33924305989228,128.73517532450865 C110.41708680917284,129.20457332410524 110.4594576998379,129.68540635925484 110.4445640765228,130.1673943840445 C110.42395293543122,130.64824018151057 110.35298169356724,131.14166324185322 110.14346274415514,131.57899592133055 C110.1194249210926,131.09702065885733 110.07134289380929,130.6459429645468 110.00494694239816,130.18800552513608 C109.94082906447609,129.7334883865381 109.86412116136096,129.2812812272204 109.78971047520956,128.8244732528169 C109.71529340789995,128.36997525769362 109.63744327746114,127.91203143712471 109.57446762686273,127.44836371762106 C109.51265972822091,126.98470237927566 109.45540797655723,126.5164466070027 109.45311714075169,126.03219327104041 C109.68095001429162,126.45921399881374 109.8549578181388,126.89884389525484 110.00150749811074,127.34991520840714 C110.14461135263703,127.80328373852323 110.26138654829522,128.2646542410631 110.33924305989228,128.73518808682513 L110.33924305989228,128.73517532450865 zM118.17005367640873,124.20154745377194 C118.17005367640873,125.26283616639981 119.03555569214127,126.12604096516858 120.09569579628727,126.12604096516858 C121.15811397392234,126.12604096516858 122.0213379161658,125.26283616639981 122.0213379161658,124.20154745377194 C122.0213379161658,123.14025874114405 121.15811397392234,122.27704756121705 120.09569579628727,122.27704756121705 C119.03555569214127,122.27704756121705 118.17005367640873,123.1402715034605 118.17005367640873,124.20154745377194 zM118.72873684199712,124.20154745377194 C118.72873684199712,123.44824534324476 119.34123231496176,122.83573710796365 120.09226273315808,122.83573710796365 C120.84557760600171,122.83573710796365 121.45922168744823,123.44824534324476 121.45922168744823,124.20154745377194 C121.45922168744823,124.95486232661554 120.84557760600171,125.56735779958021 120.09226273315808,125.56735779958021 C119.34123869612,125.56735779958021 118.72873684199712,124.95486232661554 118.72873684199712,124.20154745377194 zM95.61296561944863,123.33718766536305 C95.61296561944863,124.51066352087986 96.56662333616575,125.46547622723709 97.74010557284079,125.46547622723709 S99.86840051587303,124.51066990203807 99.86840051587303,123.33718766536305 C99.86840051587303,122.16484765601169 98.91358142835757,121.2100477119709 97.74010557284079,121.2100477119709 S95.61296561944863,122.16484765601169 95.61296561944863,123.33718766536305 zM96.17050017655512,123.33718766536305 C96.17050017655512,122.4716792684723 96.87459079479179,121.76758226907741 97.74009281052432,121.76758226907741 S99.30968544449351,122.47166650615583 99.30968544449351,123.33718766536305 S98.60560120741508,124.90792890781412 97.74009281052432,124.90792890781412 C96.87572025979898,124.90792890781412 96.17050017655512,124.2026960622538 96.17050017655512,123.33718766536305 z" id="svg_14" stroke="null" transform=""/></g><g display="null" shapeVal="0" shapeId="0" lineHeight="1" font-style="normal" font-weight="normal" text-anchor="start" stroke-width="0" fill="0" font-family="Barrio" font-size="35.73009589327079" text="POO'S SLEEP" type="text" id="svg_1" fill-opacity="1" stroke-opacity="1" elemBBoxWidth="188.67471313476562" stroke="0" transform=""><path d="M11.85739229420206,198.28754113080333 C20.19441381215951,198.58529235509883 27.34043043293497,196.3025350958861 27.34043043293497,205.92980766501853 C27.34043043293497,211.289316940021 23.072667138805002,212.2818167669005 21.583917398485752,212.2818167669005 C20.19441381215951,212.2818167669005 17.911656552946777,212.77808582381496 16.125155588332028,212.67882690750548 C16.125155588332028,212.67882690750548 16.125155588332028,217.14509527193795 16.125155588332028,217.14509527193795 C15.728151828885288,221.01585480662118 17.415406639507026,223.49710437381992 14.43790077771029,223.1001069955314 C13.147649726535292,222.90158916291247 11.162643691618054,223.99334790610143 11.162643691618054,222.10760716865192 C11.162643691618054,222.10760716865192 11.460394915913554,199.18079480368982 11.460394915913554,199.18079480368982 C11.460394915913554,198.38679366595457 11.559647451064794,198.28754113080333 11.857398675360294,198.28754113080333 C11.857398675360294,198.28754113080333 11.857398675360294,198.28754113080333 11.857398675360294,198.28754113080333 M16.422906812627524,200.96729576830458 C16.422906812627524,200.96729576830458 16.224408123483272,209.50281597540626 16.224408123483272,209.50281597540626 C20.0951676581665,209.40355705909678 23.568923433402986,211.09082463203498 24.16442588199398,206.12830635416282 C24.759928330584973,201.26504699260008 19.499665209575504,200.96729576830458 16.422906812627524,200.96729576830458 C16.422906812627524,200.96729576830458 16.422906812627524,200.96729576830458 16.422906812627524,200.96729576830458 M37.26545422636291,197.89054375251482 C45.006973295729374,197.89054375251482 45.403977055176114,205.92981404617677 45.403977055176114,211.19008354834446 C45.403977055176114,216.3510941342027 43.22047233111462,224.1918465952457 37.563205450658415,224.1918465952457 C29.722440227298947,224.1918465952457 29.027685243556707,214.46533425327848 29.027685243556707,210.59457471859525 C29.027685243556707,200.27255354687878 34.089449675421925,197.89054375251482 37.26545422636291,197.89054375251482 C37.26545422636291,197.89054375251482 37.26545422636291,197.89054375251482 37.26545422636291,197.89054375251482 M37.26545422636291,215.0608430830277 C38.654957812689155,215.0608430830277 39.15120772612891,213.27432297493826 39.15120772612891,211.48784115379823 C39.15120772612891,209.70132104570877 38.4564591235449,207.9148392245687 37.463952915507164,207.9148392245687 C35.280448191445686,207.9148392245687 34.68494574285468,215.06084946418596 37.26545422636291,215.06084946418596 C37.26545422636291,215.06084946418596 37.26545422636291,215.06084946418596 37.26545422636291,215.06084946418596 M56.61925189977906,197.89055013367306 C64.3607709691455,197.89055013367306 64.75776834743402,205.92982042733502 64.75776834743402,211.1900899295027 C64.75776834743402,216.3511005153609 62.574257242214294,224.1918529764039 56.91699674291632,224.1918529764039 C49.07622513839862,224.1918529764039 48.38147653581461,214.4653406344367 48.38147653581461,210.59458109975347 C48.38147653581461,200.27255992803703 53.443240967679834,197.89055013367306 56.61924551862082,197.89055013367306 C56.61924551862082,197.89055013367306 56.61924551862082,197.89055013367306 56.61924551862082,197.89055013367306 M56.61924551862082,215.06084946418596 C58.008749104947064,215.06084946418596 58.50499901838681,213.2743293560965 58.50499901838681,211.48784753495644 C58.50499901838681,209.701327426867 57.81024403464457,207.91484560572695 56.817744207765074,207.91484560572695 C54.63423948370358,207.91484560572695 54.03873065395436,215.06085584534418 56.61924551862082,215.06085584534418 C56.61924551862082,215.06085584534418 56.61924551862082,215.06085584534418 56.61924551862082,215.06085584534418 M71.80453243305823,197.49355913654279 C70.71278007102748,201.36430590890956 73.88879100312671,207.91484560572695 69.12477141439877,207.0215855516822 C68.62852150095901,206.9223266353727 68.62852150095901,206.62459455455195 68.62852150095901,206.1283254976375 C68.62852150095901,206.1283254976375 68.62852150095901,197.59281805285224 68.62852150095901,197.59281805285224 C68.52927534696599,196.3025542393608 70.21653015758774,196.79881691511702 71.30828251961849,196.69955799880753 C71.60603374391398,196.69955799880753 71.80453243305823,196.89806306911004 71.80453243305823,197.49355913654279 C71.80453243305823,197.49355913654279 71.80453243305823,197.49355913654279 71.80453243305823,197.49355913654279 M85.60032214232764,217.9391155531479 C85.60032214232764,211.3885949998052 75.27828820829471,212.97660365643392 75.27828820829471,205.2350654435928 C75.27828820829471,200.66956368748376 80.43930517531118,197.79131036083828 83.01980727766117,197.79131036083828 C88.7763203121104,197.79131036083828 91.65456725759766,201.16582636324 92.2500760873469,201.95981473865876 C91.65456725759766,202.75383501986872 90.95982503617189,204.44108344933224 90.06657136328539,204.93733336277197 C89.66956760383864,204.93733336277197 86.39432328006288,201.16583274439822 83.8138211777129,201.16583274439822 C82.92056112366816,201.16583274439822 81.53105753734192,201.265072517233 81.53105753734192,203.64708231159696 C81.53105753734192,206.02909210596096 84.01231348569891,207.02159193284047 85.69956191516242,207.7163341542662 C87.38682310694239,208.51033529200149 92.64707984679362,210.0983439486302 92.64707984679362,217.24437333172213 C92.64707984679362,222.00837377697536 88.7763203121104,224.1918657387204 82.92056112366816,224.1918657387204 C76.6677981757792,224.1918657387204 75.37754712460419,220.71811634464214 74.7820446760132,219.72562289892088 C75.27829458945295,219.13011406917164 75.9730495731952,218.0383617071409 76.76705071093043,217.6413643288524 C77.95805560811242,218.63386415573189 78.65280421069643,220.12261389605115 82.3250650562354,220.42036512034664 C83.61532248856864,220.42036512034664 85.60032852348587,220.12261389605115 85.60032852348587,217.9391155531479 C85.60032852348587,217.9391155531479 85.60032852348587,217.9391155531479 85.60032852348587,217.9391155531479 M116.86414326293072,217.9391155531479 C116.86414326293072,211.3885949998052 106.54212209121427,212.97660365643392 106.54212209121427,205.2350654435928 C106.54212209121427,200.66956368748376 111.70313267707249,197.79131036083828 114.28364116058073,197.79131036083828 C120.04016057618819,197.79131036083828 122.91840752167543,201.16582636324 123.51391635142467,201.95981473865876 C122.91840752167543,202.75383501986872 122.22366530024966,204.44108344933224 121.33040524620493,204.93733336277197 C120.93340148675821,204.93733336277197 117.65815078182419,201.16583274439822 115.07764867947421,201.16583274439822 C114.18439500658772,201.16583274439822 112.79489780141971,201.265072517233 112.79489780141971,203.64708231159696 C112.79489780141971,206.02909210596096 115.27614736861845,207.02159193284047 116.9634021792402,207.7163341542662 C118.65065698986193,208.51033529200149 123.91092649202963,210.0983439486302 123.91092649202963,217.24437333172213 C123.91092649202963,222.00837377697536 120.04016695734641,224.1918657387204 114.18440138774594,224.1918657387204 C107.93163205869874,224.1918657387204 106.64138100752375,220.71811634464214 106.04587217777451,219.72562289892088 C106.54212847237251,219.13011406917164 107.23688983727297,218.0383617071409 108.03087821269175,217.6413643288524 C109.22188310987374,218.63386415573189 109.91662533129951,220.12261389605115 113.58889255799673,220.42036512034664 C114.8791436091717,220.42036512034664 116.8641560252472,220.12261389605115 116.8641560252472,217.9391155531479 C116.8641560252472,217.9391155531479 116.8641560252472,217.9391155531479 116.8641560252472,217.9391155531479 M134.23294766374607,221.41288409070083 C134.23294766374607,221.41288409070083 143.66172154373427,221.6113636363704 143.66172154373427,221.6113636363704 C144.058725303181,221.80988146898935 144.7534675246068,223.99337343073438 142.9669729411503,223.6956413499136 C139.79096200905107,223.10013252016435 131.7516917153891,223.6956413499136 128.47642824813863,223.6956413499136 C126.98767212666115,223.6956413499136 127.98017833469888,221.51213024469385 127.6824334915616,220.22187281236063 C127.6824334915616,218.93162176118562 127.88093218070588,209.40358258372973 127.88093218070588,208.21260321118066 C127.88093218070588,207.0215855516822 127.5831873375686,199.8755816932232 127.5831873375686,198.88306910402724 C128.07942448869187,197.29506044739853 131.25544180194936,199.47856517146002 133.53819906116206,198.4860653445805 C134.92770264748833,198.287560274278 134.33218105542264,199.28006648231573 134.33218105542264,200.1733265363605 C134.33218105542264,200.1733265363605 134.23294128258786,221.4128777095426 134.23294128258786,221.4128777095426 M146.34147618123552,222.90160830638717 C146.34147618123552,222.90160830638717 146.34147618123552,199.1808075660063 146.34147618123552,199.1808075660063 C146.83772609467528,197.49355275538454 147.92947207554778,198.68455765256653 150.41072802390477,198.48605896342227 C153.18974157771547,198.2875538931198 157.35823957437773,198.08905520397553 159.7402621310582,198.38680004711279 C161.12975295506797,198.88305634171078 160.4350107336422,201.26505975491654 160.53424412531874,203.3493119438268 C160.53424412531874,204.2425528543968 159.6410032147487,203.84556185726652 159.24399945530197,203.74632208443177 C159.24399945530197,203.74632208443177 148.62421429697355,203.6470631681223 148.62421429697355,203.6470631681223 C147.83021954039654,204.63956299500177 148.1279643835338,208.70881483767104 148.22722329984327,210.9915657157255 C150.90697793734452,211.289316940021 154.77773747202775,210.79308617005594 157.25899342038474,211.09082463203498 C158.05300732043645,211.19008354834446 157.7552497149827,214.16757664782472 157.35823957437773,215.0608430830277 C154.67847855571827,214.66385208589745 149.81522557531378,215.25934177217198 148.22722329984327,215.0608430830277 C148.22722329984327,215.0608430830277 148.22722329984327,218.6338450122572 148.22722329984327,218.6338450122572 C148.22722329984327,218.6338450122572 159.83949552273475,218.6338450122572 159.83949552273475,218.6338450122572 C161.3282516442122,218.9315962365527 160.43500435248396,220.9165958903117 160.43500435248396,222.6038443197752 C160.43500435248396,223.5963632901294 159.9387544390442,223.39786460098514 158.74774954186222,223.39786460098514 C158.74774954186222,223.39786460098514 146.63922740553102,223.49710437381992 146.63922740553102,223.49710437381992 C146.34147618123552,223.49710437381992 146.34147618123552,223.19935314952443 146.34147618123552,222.9015955440707 C146.34147618123552,222.9015955440707 146.34147618123552,222.9015955440707 146.34147618123552,222.9015955440707 M165.09977140606068,222.9015955440707 C165.09977140606068,222.9015955440707 165.09977140606068,199.18079480368982 165.09977140606068,199.18079480368982 C165.5960021760257,197.49353999306808 166.6877800626894,198.68454489025007 169.16904239220463,198.48604620110584 C171.94802404022414,198.28754113080333 176.11653479920287,198.08904244165907 178.49854459356686,198.38678728479636 C179.88803541757662,198.88304357939433 179.19329319615088,201.26504699260008 179.2925457313021,203.3492991815103 C179.2925457313021,204.24254009208033 178.39930482073208,203.8455490949501 178.0022946801271,203.74630932211528 C178.0022946801271,203.74630932211528 167.38251590295692,203.6470504058058 167.38251590295692,203.6470504058058 C166.58851476522167,204.6395502326853 166.88626598951717,208.70880207535455 166.98552490582665,210.99155295340907 C169.6652667810114,211.28930417770454 173.53602631569464,210.79307340773948 176.01729502636812,211.09081186971852 C176.81127702062867,211.190070786028 176.51352579633317,214.1675638855083 176.11653479920287,215.06083032071123 C173.4367929240181,214.66383932358096 168.5735335624554,215.2593290098555 166.98552490582665,215.06083032071123 C166.98552490582665,215.06083032071123 166.98552490582665,218.63383224994075 166.98552490582665,218.63383224994075 C166.98552490582665,218.63383224994075 178.5977971287181,218.63383224994075 178.5977971287181,218.63383224994075 C180.08654686903736,218.93158347423625 179.19328681499263,220.9165831279952 179.19328681499263,222.60383155745873 C179.19328681499263,223.59635052781292 178.69703690155288,223.39785183866869 177.50602562321268,223.39785183866869 C177.50602562321268,223.39785183866869 165.39752263035618,223.4970916115035 165.39752263035618,223.4970916115035 C165.09977140606068,223.4970916115035 165.09977140606068,223.19934038720797 165.09977140606068,222.90158278175423 C165.09977140606068,222.90158278175423 165.09977140606068,222.90158278175423 165.09977140606068,222.90158278175423 M184.3543037820091,198.2875347496451 C192.69134444344127,198.5852859739406 199.83735468305846,196.30252871472786 199.83735468305846,205.92980128386031 C199.83735468305846,211.28931055886278 195.56958500777026,212.2818103857423 194.08083526745102,212.2818103857423 C192.69134444344127,212.2818103857423 190.40857442191205,212.77807944265675 188.6220734572973,212.67882052634727 C188.6220734572973,212.67882052634727 188.6220734572973,217.14508889077973 188.6220734572973,217.14508889077973 C188.2250633166923,221.01584842546296 189.9123245084723,223.4970979926617 186.93481226551734,223.1001006143732 C185.644580357817,222.90158278175423 183.6595615605833,223.99334152494322 183.6595615605833,222.10760078749368 C183.6595615605833,222.10760078749368 183.9573127848788,199.18078842253158 183.9573127848788,199.18078842253158 C183.9573127848788,198.38678728479636 184.05655255771362,198.2875347496451 184.3543037820091,198.2875347496451 C184.3543037820091,198.2875347496451 184.3543037820091,198.2875347496451 184.3543037820091,198.2875347496451 M188.9198246815928,200.9672893871463 C188.9198246815928,200.9672893871463 188.72132599244856,209.50280959424805 188.72132599244856,209.50280959424805 C192.5920855271318,209.40355067793857 196.06582854005177,211.09081825087677 196.66133736980103,206.12829997300454 C197.25684619955024,201.2650406114418 191.99657669738252,200.9672893871463 188.91981830043457,200.9672893871463 C188.91981830043457,200.9672893871463 188.91981830043457,200.9672893871463 188.91981830043457,200.9672893871463 " stroke-width="0" fill="#000000" id="svg_15" stroke="#000000" transform=""/></g><g id="svg_6" display="null" shapeVal="0" shapeId="0" lineHeight="1" font-style="normal" font-weight="normal" text-anchor="start" stroke-width="0" fill="0" font-family="Barrio" font-size="23.312147069690184" text="LET'S HAVE" type="text" elemBBoxWidth="113.25901794433594" stroke="0" transform=""><path id="svg_12" d="M53.55619384955666,64.14255199225495 C53.55619384955666,64.14255199225495 59.70805154231211,64.27206397974561 59.70805154231211,64.27206397974561 C59.96708189845165,64.40157596723625 60.420373854668945,65.82621421079169 59.25475320493659,65.63194622955571 C57.18254864276966,65.24341664824198 51.93727486244878,65.63194622955571 49.80031430653652,65.63194622955571 C48.828968019198385,65.63194622955571 49.476534337809895,64.20730798600027 49.282266356573906,63.365473686152804 C49.282266356573906,62.52364576746355 49.411778344064565,56.3070193186463 49.411778344064565,55.529941012544136 C49.411778344064565,54.75286908760022 49.217510362828584,50.090405632145504 49.217510362828584,49.442839313534 C49.54129033155522,48.406737032450536 51.61349489372214,49.8313816571642 53.102895512181135,49.18382171971093 C54.00948580577394,49.05430335106204 53.62094346214376,49.70186966967354 53.62094346214376,50.28467999453972 C53.62094346214376,50.28467999453972 53.55618746839842,64.14255837341318 53.55618746839842,64.14255837341318 M61.45647613575241,65.11389827959309 C61.45647613575241,65.11389827959309 61.45647613575241,49.63710729476998 61.45647613575241,49.63710729476998 C61.78025610447905,48.536249019941195 62.492584797994105,49.31332732604335 64.11149102278551,49.1838153385527 C65.9246652288129,49.05429696990381 68.64444249074957,48.92478498241316 70.19859272179565,49.11905296364914 C71.10518301538846,49.44283293237577 70.65189105917116,50.99699592573832 70.7166470529165,52.35687817554842 C70.7166470529165,52.93968850041459 70.13383672805033,52.68065814427505 69.87480637191078,52.61590853168796 C69.87480637191078,52.61590853168796 62.94586399189493,52.5511461567844 62.94586399189493,52.5511461567844 C62.42781604193232,53.198706094237664 62.62208402316829,55.853727362429005 62.68684001691363,57.343121599729756 C64.43526461035391,57.53738958096574 66.96076750989637,57.213609612239104 68.579680115846,57.40788397463332 C69.09772806580862,57.47264634953687 68.90346646573087,59.415332543054916 68.64443610959134,59.998142867921096 C66.89601789730926,59.739112511781556 63.72294867915532,60.12765485541175 62.68684001691363,59.998142867921096 C62.68684001691363,59.998142867921096 62.68684001691363,62.32937778622757 62.68684001691363,62.32937778622757 C62.68684001691363,62.32937778622757 70.26334871554099,62.32937778622757 70.26334871554099,62.32937778622757 C71.23470138403735,62.52364576746355 70.65189105917116,63.818772023528325 70.65189105917116,64.9196302983571 C70.65189105917116,65.56720299812685 70.32810470928631,65.4376910106362 69.55103278434238,65.4376910106362 C69.55103278434238,65.4376910106362 61.65074411698839,65.5024406232233 61.65074411698839,65.5024406232233 C61.45647613575241,65.5024406232233 61.45647613575241,65.30817264198731 61.45647613575241,65.11389827959309 C61.45647613575241,65.11389827959309 61.45647613575241,65.11389827959309 61.45647613575241,65.11389827959309 M73.1126379649683,49.11905934480737 C73.1126379649683,49.11905934480737 83.40891754437408,49.11905934480737 83.40891754437408,49.11905934480737 C85.02783015032372,49.442839313534 84.25074546306332,49.70186966967354 84.25074546306332,51.45029426311384 C84.25074546306332,52.61591491284619 84.76879341302595,53.78152918142031 83.5384231507065,53.84628517516563 C83.5384231507065,53.84628517516563 79.39400764521442,53.84628517516563 79.39400764521442,53.84628517516563 C79.39400764521442,53.84628517516563 79.39400764521442,65.11390466075133 79.39400764521442,65.11390466075133 C79.32925165146908,65.82622697310816 78.03411901424607,65.2434230294002 77.45131507053813,65.43769739179443 C76.99801673316261,65.43769739179443 77.12752872065326,65.30817902314554 77.12752872065326,64.66061908569228 C77.12752872065326,64.66061908569228 77.25704070814392,53.84629155632386 77.25704070814392,53.84629155632386 C75.63812810219429,53.84629155632386 73.43640517137847,53.91104116891096 73.11262520265183,53.91104116891096 C71.94701093407771,53.65202357508788 72.72408285902164,51.38553826936851 72.72408285902164,49.44284569469224 C72.72408285902164,49.05430335106204 72.91835084025762,49.1190657259656 73.11262520265183,49.1190657259656 C73.11262520265183,49.1190657259656 73.11262520265183,49.1190657259656 73.11262520265183,49.1190657259656 M88.39514182508073,48.536255401099424 C87.68281951272388,51.06175830064188 89.75502407489083,55.33569217478285 86.64672361279867,54.752881849916676 C86.32293088175555,54.68811947501312 86.32293088175555,54.493851493777136 86.32293088175555,54.1700715250505 C86.32293088175555,54.1700715250505 86.32293088175555,48.60101777600298 86.32293088175555,48.60101777600298 C86.25818126916847,47.759189857313736 87.35903954399726,48.08296982604037 88.07135547519586,48.01820745113681 C88.26562345643184,48.01820745113681 88.3951354439225,48.14771943862746 88.3951354439225,48.536255401099424 C88.3951354439225,48.536255401099424 88.3951354439225,48.536255401099424 88.3951354439225,48.536255401099424 M97.39628238610527,61.87608583001028 C97.39628238610527,57.60216471818576 90.6616079873254,58.63826061811099 90.6616079873254,53.58726120018433 C90.6616079873254,50.608466344424585 94.02895156787358,48.73052976349364 95.7126137864103,48.73052976349364 C99.46848694827219,48.73052976349364 101.34642991036137,50.932252694309454 101.73496587283336,51.45030064427207 C101.34642352920315,51.96834859423468 100.8931379541441,53.06921325022171 100.31032762927792,53.39299321894835 C100.05129727313837,53.39299321894835 97.91434309838435,50.932252694309454 96.23067449868938,50.932252694309454 C95.64786417382321,50.932252694309454 94.7412738802304,50.99701506921301 94.7412738802304,52.5511653002591 C94.7412738802304,54.10531553130518 96.36018648618003,54.75288823107491 97.46104476100884,55.2061801872922 C98.56190303583762,55.72422813725481 101.99399622897288,56.76034318065474 101.99399622897288,61.422806636109456 C101.99399622897288,64.53111986051807 99.46848694827219,65.95575172291527 95.64786417382321,65.95575172291527 C91.56819828091821,65.95575172291527 90.72637036222896,63.68927917951237 90.33782801859877,63.04171924205909 C90.6616079873254,62.653176898428896 91.11490632470093,61.94086096723031 91.63296065582178,61.68183061109076 C92.41003896192393,62.3294033108605 92.86333091814123,63.300743217040406 95.25932183019302,63.49501119827639 C96.10114974888226,63.49501119827639 97.39628238610527,63.300743217040406 97.39628238610527,61.87609859232674 C97.39628238610527,61.87609859232674 97.39628238610527,61.87609859232674 97.39628238610527,61.87609859232674 M113.84442603942473,65.308191785462 C112.6788053896924,65.17867979797134 110.93038079625211,66.02051409781883 111.44843512737295,63.9483095356519 C111.44843512737295,63.9483095356519 111.44843512737295,49.831400800638896 111.44843512737295,49.831400800638896 C111.38368551478585,48.40676255708347 112.93783574583193,49.31335285067628 114.42723636429092,49.11907848828207 C115.46333864537439,49.896156794384225 114.29771799564203,53.846304318640335 114.55674835178158,56.24229523069213 C114.55674835178158,56.24229523069213 122.91032259419461,56.30704484327922 122.91032259419461,56.30704484327922 C122.78081060670397,54.62337624358426 122.97508496909818,50.47896073809217 122.97508496909818,49.05432249453674 C123.10459695658882,48.66579291322301 124.59399757504782,48.73054252581011 124.46448558755716,49.37811522557984 C123.81692565010391,53.52253073107193 124.07594324392697,60.77524669865618 123.94643763759456,65.11393018538425 C123.88167526269099,65.43772291642736 122.84557936276576,65.50247252901445 122.7160673752751,65.11393018538425 C122.7160673752751,65.11393018538425 122.7160673752751,57.472671874169805 122.7160673752751,57.472671874169805 C122.7160673752751,57.472671874169805 114.55674835178158,57.537421486756905 114.55674835178158,57.537421486756905 C114.55674835178158,57.537421486756905 114.62149796436869,64.85490621040294 114.62149796436869,64.85490621040294 C114.62149796436869,65.43771653526912 114.16820600815139,65.30819816662023 113.84442603942473,65.30819816662023 C113.84442603942473,65.30819816662023 113.84442603942473,65.30819816662023 113.84442603942473,65.30819816662023 M135.73210507314286,65.43771653526912 C134.76076516696295,63.88355354190658 134.8902771544536,61.81135536089788 133.91892448595723,60.06292438629936 C133.3361269234075,59.026822105215885 130.74586164896152,60.192442754948246 128.60890109304927,59.80390679247628 C127.89657878069244,61.35805702352236 127.70231079945643,63.62452956692527 127.11950047459027,65.24344855403314 C127.05473809968672,65.56722852275978 126.73097089327653,65.3729605415238 126.40717816223344,65.43771653526912 C127.11950047459027,60.386704355025984 129.25646103050252,54.55862663099717 130.6163432803126,49.766644806893574 C130.94013601135572,48.342006563338145 131.52294633622188,48.342006563338145 132.0409942861845,49.83140718179713 C132.0409942861845,49.83140718179713 137.35103044140897,65.3729605415238 137.35103044140897,65.3729605415238 C137.02723771036585,65.50247252901445 136.18540979167662,65.3729605415238 135.7321114543011,65.43772291642736 C135.7321114543011,65.43772291642736 135.7321114543011,65.43772291642736 135.7321114543011,65.43772291642736 M130.94013601135572,50.738003856548175 C130.94013601135572,50.738003856548175 128.86792506803056,58.05548219903598 128.86792506803056,58.05548219903598 C129.5154977678003,58.50878053641151 131.84672630494856,58.120244573939544 133.2066149359169,58.05548219903598 C132.36477425491114,56.242307993008595 131.6524519425543,52.551190824892025 130.94013601135572,50.738003856548175 C130.94013601135572,50.738003856548175 130.94013601135572,50.738003856548175 130.94013601135572,50.738003856548175 M146.87022533355437,48.860060894459004 C147.51777888984938,49.05432887569497 150.43183051418026,48.27726333190928 150.04328817055008,49.63713920056115 C148.9424298957213,53.13399476859997 147.58253488359472,61.03427705479572 146.87022533355437,64.85491259156117 C146.6759573523184,65.76150288515399 143.6971561154004,65.11393018538425 142.59630422172984,65.43772291642736 C142.07824350945077,65.43772291642736 142.07824350945077,65.11393018538425 141.9487315219601,64.53113262283455 C141.9487315219601,64.53113262283455 138.19285836009823,49.11909125059853 138.19285836009823,49.11909125059853 C138.6461503163155,48.73054890696834 140.71836125964066,49.11909125059853 141.75446354072412,48.92482326936255 C142.4020234781774,48.860060894459004 142.46678585308098,49.183853625502095 142.5315418468263,49.63714558171938 C142.85532181555294,50.80276623145173 143.17910178427957,54.364371412077645 143.69714973424217,56.566087961735235 C143.69714973424217,56.566087961735235 144.21519768420478,58.83256050513814 144.21519768420478,58.83256050513814 C144.21519768420478,58.83256050513814 146.09314064629396,49.7666511880518 146.09314064629396,49.7666511880518 C146.0283782713904,48.73054890696834 146.4816702276077,48.860060894459004 146.87021895239613,48.860060894459004 C146.87021895239613,48.860060894459004 146.87021895239613,48.860060894459004 146.87021895239613,48.860060894459004 M152.30975433279477,65.11393018538425 C152.30975433279477,65.11393018538425 152.30975433279477,49.63713920056115 152.30975433279477,49.63713920056115 C152.63354706383785,48.536280925732356 153.34585661387823,49.31335923183451 154.96476921982787,49.18384724434386 C156.77796256932996,49.05432887569497 159.4977206877919,48.92481688820432 161.05187091883798,49.1190848694403 C161.95847397474728,49.44286483816693 161.50518201852998,50.99702783152948 161.5699188688006,52.35691008133958 C161.5699188688006,52.93972040620575 160.98712768740913,52.68069005006622 160.7280973312696,52.615940437479125 C160.7280973312696,52.615940437479125 153.79916133241198,52.55117806257556 153.79916133241198,52.55117806257556 C153.28111338244935,53.19873800002883 153.47536860136887,55.853759268220166 153.54013097627242,57.343153505520924 C155.2885491885545,57.537421486756905 157.81405208809696,57.21364151803027 159.4329646940466,57.40791588042448 C159.9510126440092,57.47267825532804 159.75674466277323,59.415364448846084 159.49771430663367,59.998174773712265 C157.74929609435162,59.73914441757272 154.5762332573559,60.12768676120291 153.54013097627242,59.998174773712265 C153.54013097627242,59.998174773712265 153.54013097627242,62.32940969201873 153.54013097627242,62.32940969201873 C153.54013097627242,62.32940969201873 161.1166269125833,62.32940969201873 161.1166269125833,62.32940969201873 C162.08798596223792,62.52367767325471 161.50517563737176,63.818803929319486 161.50517563737176,64.91966220414827 C161.50517563737176,65.567234903918 161.18138290632865,65.43772291642736 160.40431736254294,65.43772291642736 C160.40431736254294,65.43772291642736 152.50402231403075,65.50247252901445 152.50402231403075,65.50247252901445 C152.30975433279477,65.50247252901445 152.30975433279477,65.30820454777847 152.30975433279477,65.11393018538425 C152.30975433279477,65.11393018538425 152.30975433279477,65.11393018538425 152.30975433279477,65.11393018538425 " stroke-width="0" fill="#000000" stroke="#000000" transform=""/></g></g><defs><path id="svg_2" d="M163.45834,35.05Q229.25833,37.05 295.10498,34.8" stroke="#000000" fill="#000000"/><path id="svg_4" d="M32.84953,289.28104Q104.19953,291.28104 175.53406,289.03104" stroke="#000000" fill="#000000"/><path d="M23.45834,37.05Q89.25834,39.05 155.10501,36.8" stroke="#000000" fill="#000000" id="svg_7"/><path fill="#000000" stroke="#000000" d="M-7600.12402,7883.80225A7677.63428,7677.63428 0 0 1 7755.14453,7883.80225A7677.63428,7677.63428 0 0 1 -7600.12402,7883.80225A7677.63428,7677.63428 0 0 1 7755.14453,7883.80225A7677.63428,7677.63428 0 0 1 -7600.12402,7883.80225" id="svg_11"/><path fill="#000000" stroke="#000000" d="M-7560.22363,7716.20215A7677.63428,7677.63428 0 0 1 7795.04492,7716.20215A7677.63428,7677.63428 0 0 1 -7560.22363,7716.20215A7677.63428,7677.63428 0 0 1 7795.04492,7716.20215A7677.63428,7677.63428 0 0 1 -7560.22363,7716.20215" id="svg_17"/></defs></svg>