<?xml version="1.0" encoding="utf-8"?>
<!-- Generator: Adobe Illustrator 16.0.0, SVG Export Plug-In . SVG Version: 6.00 Build 0)  -->
<!DOCTYPE svg PUBLIC "-//W3C//DTD SVG 1.1//EN" "http://www.w3.org/Graphics/SVG/1.1/DTD/svg11.dtd">
<svg version="1.1" id="Layer_1" xmlns="http://www.w3.org/2000/svg" xmlns:xlink="http://www.w3.org/1999/xlink" x="0px" y="0px"
	 width="100px" height="100px" viewBox="0 0 100 100" enable-background="new 0 0 100 100" xml:space="preserve">
<path fill="#6EBE44" d="M52.576,12.699c0.389-0.993-0.891-2.367-1.848-2.522c-0.699,0.806-1.253,1.82-0.896,2.82
	c0.655,0.366,1.393,0.635,1.836,1.942c-0.635-0.554-0.9-1.105-1.634-1.227c-0.536,0.702-1.609,0.933-1.681,2.239
	c-0.071,1.306-0.985,1.454-1.257,1.531c0.717-0.975,1.079-2.033,1.153-2.679c0.074-0.645,0.395-1.066,0.876-1.313
	c-0.154-0.543-1.96-0.436-2.682,0.907c0.337-1.271,2.296-1.752,2.718-1.688c0.007-0.743,0.37-1.652,1.099-2.492
	c-0.022,0.01-0.047,0.021-0.068,0.033c-0.798-1.39-3.938-0.024-3.772,1.472c-1.768-0.014-2.69,2.046-1.806,3.486
	c-1.457,0.56-1.942,2.093-1.459,3.279c0.482,1.186,2.169,2.215,2.845,1.619c0.056,1.234,3.465,0.819,3.402-0.962
	c0.491,1.478,4.987,0.353,4.064-1.738C54.659,16.812,54.443,13.199,52.576,12.699z M60.583,38.008
	c-0.383,0.844-0.627,1.75-2.269,2.665c0.633-0.884,1.312-1.357,1.365-2.208c-0.992-0.367-1.449-1.483-3.162-1.139
	c-1.716,0.344-2.041-0.62-2.181-0.899c1.374,0.48,2.806,0.539,3.658,0.411c0.854-0.126,1.448,0.094,1.84,0.548
	c0.688-0.348,0.287-2.316-1.567-2.682c1.707-0.038,2.615,1.979,2.594,2.467c0.974-0.231,2.214-0.121,3.414,0.42
	c-0.019-0.025-0.035-0.051-0.059-0.073c1.699-1.335-0.537-4.375-2.464-3.707c-0.235-1.965-3.062-2.321-4.812-0.873
	c-0.939-1.436-3.01-1.477-4.485-0.556c-1.479,0.919-2.575,3.123-1.701,3.681c-1.601,0.459-0.568,4.108,1.748,3.46
	c-1.854,1.024,0.263,5.645,2.854,3.944c0.947,1.128,5.629-0.28,6.011-2.515c1.35,0.109,2.957-1.754,3.022-2.864
	C63.238,37.576,61.836,37.289,60.583,38.008z M45.053,51.816c0.615-1.766,2.678-3.091,4.013-2.851
	c1.229-1.67,4.536-1.815,5.057-0.96c1.988-0.332,4.568,1.345,3,1.473c0.029,0.012,0.055,0.024,0.078,0.037
	c-1.244-0.312-2.5-0.338-3.383-0.009c-0.045-0.18-1.357-0.975-3.004-0.326c1.89-0.495,2.662,0.364,2.094,0.661
	c-0.451-0.084-1.064-0.006-1.774,0.412c-0.716,0.41-1.893,1.126-3.035,1.885c0.23,0.049,0.744,0.18,1.946-0.943
	c1.29-1.045,2.028-0.656,2.956-0.835c0.138,0.385-0.347,0.812-0.599,1.488c1.049-1.086,1.15-1.457,1.314-1.927
	c1.092-0.619,2.469-0.512,3.635-0.217c0.021,0.382-1.271,0.95-2.396,1.276c0.021,0.479-0.869,1.192-1.649,2.011
	c-0.818,0.78-1.525,1.666-1.97,1.692c-0.366,1.172-1.026,1.696-1.755,1.702c-0.696,0.005-1.462-0.51-1.266-1.489
	c-0.627,2.094-2.857,1.802-2.492,0.039C45.157,55.577,44.374,53.551,45.053,51.816z M66.803,31.24
	c-0.191-0.254-0.898-1.059-1.672-0.846c0.676,0.011,1.337,0.648,1.421,0.941c-0.31,0.224-0.546,0.331-0.687,0.696
	c-0.098,0.252-0.479,0.168-1.166-0.17c0.64,0.495,1.156,0.605,1.333,0.172c0.108-0.267,0.399-0.38,0.573-0.507
	c0.244,0.054-0.479,0.556-0.564,1.258c0.281-0.6,0.945-1.121,0.913-1.285c0.332-0.016,0.711-0.185,1.088-0.472
	c-0.006,0.008-0.011,0.018-0.017,0.028c0.539,0.236,0.137,1.407-0.496,1.464c0.154,0.656-0.689,1.169-1.396,0.832
	c-0.148,0.596-0.851,0.797-1.393,0.573c-0.529-0.23-1.072-0.859-0.885-1.097c-0.52-0.015-0.864-1.17,0.041-1.273
	c-0.819-0.062-1.123-1.794,0.393-1.663c0.251-0.573,2.531-0.557,2.643,0.247c0.534-0.145,1.104,0.381,1.135,0.718
	C67.689,31.124,67.268,31.367,66.803,31.24z M65.361,47.814c0.439-0.787-0.213-1.343-0.986-1.502
	c-0.348,0.07-0.792,0.147-1.048,0.207c-0.449,0.106-0.134,0.478-0.265,1.109c-0.133,0.635,0.265,0.768,0.104,1.243
	c0-0.185-0.134-0.371-0.291-0.82c-0.159-0.449,0.078-0.923,0.078-1.294c-0.659-0.027-1.608,0.634-2.22,1.11
	c0.369-0.768,1.348-1.189,2.166-1.349c-0.605-0.026-1.188-0.686-1.295-1.161c0.346,0.211,0.848,1.24,1.349,0.898
	c0.438-0.3,1.06-0.319,1.575-0.388c0.496-0.794,0.662-2.088-0.913-2.439c-2.222-0.74-3.277-0.528-4.019,1.374
	c-1.32,0.792-1.162,2.483-0.369,2.8c-0.16,1.743,0.477,2.642,1.955,2.219c1.059,0.898,2.219,1.375,3.17,0.211
	C65.678,50.667,66.154,48.396,65.361,47.814z M62.768,24.905c0.483-0.043,0.774-0.191,0.939-0.471
	c-0.195-0.388-0.645-1.109-1.309-1.242c-0.297-0.059-0.334-0.013-0.445,0.334c-0.112,0.348-0.512,0.569-0.926,0.613
	c0.136-0.082,0.578-0.129,0.631-0.463c0.05-0.334,0.113-0.434,0.369-0.661c-0.074-0.464-0.631-0.851-1.28-0.903
	c0.701-0.196,1.315,0.394,1.51,0.671c0.022-0.269-0.038-0.302,0.525-0.787c-0.642,0.673-0.257,1.074,0.159,1.221
	c0.295,0.104,0.664,0.449,0.912,0.779c0.022-0.153,0.035-0.328,0.033-0.523c0.926-0.614,1.18-1.792-0.137-2.194
	c-0.081-1.577-1.743-1.86-2.557-0.759c-0.735-0.293-1.631,0.068-1.924,0.806c-0.908,0.185-1.105,1.608,0.086,2.039
	c-0.789,0.531,0.103,2.819,1.629,1.977C61.525,25.989,62.717,25.584,62.768,24.905z M51.752,25.262
	c0.15,0.382,0.33,0.526,0.594,0.509c0.252-0.403,0.785-1.083,0.739-1.701c-0.021-0.277-0.076-0.306-0.415-0.262
	c-0.337,0.05-0.615-0.167-0.756-0.498c0.104,0.071,0.248,0.42,0.55,0.308c0.308-0.106,0.413-0.084,0.688,0.067
	c0.412-0.214,0.646-0.761,0.522-1.358c0.375,0.603-0.036,1.239-0.245,1.492c0.26-0.042,0.272-0.121,0.896,0.334
	c-0.83-0.514-1.097-0.003-1.124,0.401c-0.02,0.295-0.241,0.741-0.458,1.113c0.136-0.052,0.289-0.117,0.466-0.192
	c0.775,0.527,2.034,0.695,2.089-0.435c1.563,0.226,1.353-1.11,0.063-2.256c0.084-0.609-0.514-1.596-1.312-1.866
	c-0.435-0.909-1.841-0.759-1.897,0.552c-0.772-0.599-2.093,2.008-1.139,2.622C50.745,25.08,51.251,25.687,51.752,25.262z
	 M42.367,50.96c1.402-1.083,0.152-1.86-1.299-2.074c-0.654,0.099-1.458,0.213-1.906,0.3c-0.786,0.15-0.241,0.647-0.607,1.509
	c-0.354,0.861,0.17,1.048-0.275,1.705c0.083-0.256-0.003-0.519-0.118-1.131c-0.128-0.615,0.315-1.253,0.348-1.756
	c-1.134-0.023-2.678,0.852-3.519,1.502c0.467-1.042,2.025-1.595,3.44-1.825c-1.022-0.029-2.038-0.912-2.311-1.564
	c0.65,0.289,1.56,1.677,2.403,1.202c0.752-0.416,1.861-0.461,2.853-0.56c0.473-0.569,0.656-1.251,0.239-1.91
	c-0.393-0.651-1.388-1.28-2.72-1.58c-1.944-0.561-3.169-0.596-4.193-0.299c-0.996,0.315-1.789,0.962-2.22,2.247
	c-2.298,0.826-1.15,3.575,0.162,3.958c0.366,2.549,1.325,3.606,2.915,3.006c1.176,1.291,1.045,2.119,3.316,0.354
	C39.353,54.764,43.664,51.761,42.367,50.96z M35.38,20.846c1.182-0.698,3.756-0.859,4.769-0.052
	c2.192-0.971,4.744,0.933,4.303,2.046c1.282,1.179,1.732,3.601,0.914,2.87c0.012,0.023,0.022,0.045,0.031,0.066
	c-0.587-0.85-1.286-1.667-2.054-1.914c0.051-0.158-0.264-1.641-1.922-1.994c1.72,0.628,1.645,1.837,1.127,1.732
	c-0.262-0.334-0.738-0.622-1.498-0.682c-0.753-0.07-2.034-0.157-3.299-0.258c0.168,0.15,0.515,0.556,1.989,0.386
	c1.522-0.093,1.865,0.627,2.6,1.029c-0.099,0.396-0.642,0.464-1.126,0.864c1.242-0.262,1.482-0.52,1.84-0.802
	c1.065,0.129,1.783,1.076,2.36,1.844c-0.113,0.276-1.114,0.117-2.021-0.253c-0.174,0.415-1.06,0.538-1.96,0.759
	c-0.908,0.176-1.809,0.434-2.175,0.121c-0.738,0.749-1.489,0.616-2.088,0.027c-0.57-0.571-0.982-1.445-0.418-1.971
	c-1.366,0.95-3.06-0.637-2.037-1.463C33.913,23.221,34.104,21.561,35.38,20.846z M44.125,34.023
	c-0.532,0.388-0.29,1.455,0.534,2.084c-0.727,0.049-1.091-1.018-1.237-1.746c-1.113,0.388-1.332,2.861-2.593,3.2
	c0.388-0.387,0.703-0.872,1.091-1.89c0.389-1.018,1.09-1.357,1.576-1.843c-0.583,0-1.358,0.17-2.037-0.774
	c1.042,0.46,1.935,0.62,3.394,0.071c0.582-0.218,1.21-0.39,1.775-0.504c-0.283-0.228-0.621-0.312-0.981-0.146
	c0.256-1.942-3.687-2.458-3.816-0.067c-1.679-0.377-5.784,1.253-4.008,3.425c-1.357,1.617-0.065,4.654,2.004,3.232
	c-1.293,1.939,3.038,3.231,3.361,1.681c0.97,0.453,2.132-1.034,1.68-2.392c1.487,0.776,1.803-1.604,1.357-2.456
	c1.439-0.174,1.377-1.994,0.709-2.943C46.166,33.032,44.965,33.321,44.125,34.023z M59.23,16.332
	c-0.324,0.191-0.02,0.813,0.643,1.219c-0.504-0.012-0.896-0.641-1.092-1.065c-0.733,0.16-0.57,1.56-1.412,1.684
	c0.223-0.2,0.382-0.458,0.523-1.019c0.141-0.561,0.592-0.715,0.869-0.965c-0.408-0.032-0.933,0.021-1.529-0.556
	c0.791,0.321,1.438,0.461,2.394,0.229c0.382-0.093,0.802-0.158,1.185-0.191c-0.229-0.146-0.477-0.212-0.707-0.137
	c-0.069-1.094-2.908-1.607-2.69-0.25c-1.229-0.306-3.903,0.398-2.376,1.736c-0.747,0.848,0.552,2.653,1.822,1.956
	c-0.659,1.036,2.551,2.013,2.576,1.145c0.74,0.311,1.367-0.475,0.875-1.274c1.146,0.525,1.061-0.816,0.641-1.326
	c0.986-0.022,0.71-1.063,0.117-1.642C60.537,15.877,59.73,15.977,59.23,16.332z M56.604,61.997c-0.772,0.11-0.672,1.325,0.278,2.403
	c-0.96-0.336-1.222-1.614-1.265-2.435c-1.537-0.194-2.319,2.206-4.036,1.884c0.586-0.188,1.094-0.516,1.808-1.347
	c0.711-0.833,1.699-0.805,2.432-1.042c-0.762-0.309-1.812-0.546-2.51-1.869c1.271,1.022,2.407,1.659,4.426,1.873
	c0.807,0.09,1.662,0.244,2.426,0.43c-0.324-0.381-0.748-0.646-1.253-0.668c0.724-1.843-4.329-4.461-4.979-2.096
	c-2.121-1.273-7.819-1.793-5.932,1.362c-2.099,0.925-1.018,4.705,1.973,4.354c-2.082,1.287,3.324,4.903,4.058,3.494
	c1.179,0.977,3,0.079,2.681-1.544c1.788,1.579,2.681-0.678,2.271-1.78c1.916,0.586,2.201-1.301,1.52-2.619
	C59.473,62.068,57.844,61.727,56.604,61.997z M45.076,58.127c0.194-0.493-0.442-1.176-0.917-1.253
	c-0.348,0.399-0.624,0.903-0.446,1.401c0.325,0.183,0.692,0.313,0.913,0.966c-0.316-0.277-0.448-0.55-0.813-0.61
	c-0.267,0.35-0.801,0.464-0.836,1.113c-0.035,0.648-0.49,0.724-0.625,0.761c0.356-0.483,0.536-1.011,0.573-1.331
	c0.037-0.32,0.197-0.529,0.436-0.652c-0.077-0.271-0.974-0.217-1.333,0.451c0.167-0.634,1.142-0.871,1.352-0.84
	c0.003-0.371,0.183-0.82,0.546-1.238c-0.011,0.004-0.024,0.011-0.035,0.018c-0.396-0.691-1.957-0.014-1.875,0.73
	c-0.878-0.008-1.338,1.019-0.897,1.732c-0.725,0.275-0.966,1.04-0.725,1.629c0.239,0.591,1.078,1.104,1.414,0.805
	c0.028,0.614,1.722,0.407,1.691-0.478c0.245,0.733,2.478,0.177,2.021-0.863C46.111,60.172,46.005,58.376,45.076,58.127z
	 M60.958,55.7c-0.315-0.312-0.849-0.173-0.979,0.397c-0.203-0.494,0.275-0.728,0.645-0.82c-0.449-0.646-1.999-0.844-2.516-1.666
	c0.32,0.265,0.699,0.49,1.396,0.754c0.694,0.26,1.057,0.664,1.424,0.949c-0.123-0.346-0.416-0.799,0.006-1.135
	c-0.086,0.538,0.11,1.057,0.607,1.938c0.189,0.354,0.307,0.75,0.318,1.129c0.119-0.215,0.168-0.442,0.07-0.663
	c0.995-0.104,0.889-2.178-0.56-2.201c-0.343-0.834-0.956-2.85-2.394-2.313c-0.646-0.973-3.043-0.764-1.979,0.785
	c-1.548-1.144-1.398,1.775-0.1,2.164c0.14,0.709,1.377,1.64,1.938,1.267c0.032,1.144,1.134,1.319,1.509,0.916
	c0.156,1.083,0.809,0.872,1.34,0.291C61.751,56.948,61.512,56.195,60.958,55.7z M47.625,43.127
	c-0.352,0.023-0.628,0.518-0.404,1.017c-0.422-0.189-0.201-0.723-0.029-1.057c-0.574-0.114-1.792,0.811-2.548,0.406
	c0.353,0.03,0.751-0.012,1.364-0.285c0.597-0.276,1.013-0.246,1.387-0.321c-0.261-0.142-0.656-0.273-0.569-0.816
	c0.206,0.452,0.579,0.714,1.373,0.884c0.312,0.072,0.621,0.194,0.875,0.362c-0.078-0.197-0.2-0.344-0.387-0.389
	c0.375-0.715-0.846-1.885-1.522-1.011c-0.668-0.371-1.573-1.524-2.354-0.166c-0.608-0.199-2.599,0.93-1.337,1.681
	c-1.676-0.451-0.877,1.965,0.652,1.865c0.419,0.61,2.108,0.592,2.341-0.154c0.692,0.843,1.713-0.043,1.672-0.593
	c0.818,0.476,1.115-0.296,1.003-0.977C48.808,43.279,48.223,43.05,47.625,43.127z M59.673,78.391
	c0.476-0.436,0.589-0.783,0.414-1.16c-0.729-0.145-2.019-0.543-2.897-0.127c-0.396,0.188-0.404,0.285-0.15,0.761
	c0.259,0.469,0.1,1-0.311,1.396c0.047-0.191,0.478-0.603,0.145-0.982c-0.322-0.394-0.354-0.563-0.283-1.053
	c-0.544-0.486-1.473-0.521-2.277-0.005c0.676-0.895,1.836-0.646,2.32-0.479c-0.207-0.36-0.331-0.334-0.01-1.51
	c-0.292,1.515,0.604,1.614,1.211,1.428c0.443-0.137,1.218-0.063,1.883,0.047c-0.148-0.171-0.33-0.361-0.539-0.578
	c0.344-1.441-0.109-3.389-1.794-2.83c-0.536-2.43-2.376-1.361-3.337,1.186c-0.938,0.222-2.052,1.658-2.001,2.985
	c-1.091,1.153-0.093,3.142,1.858,2.481c-0.447,1.479,4.102,1.947,4.471,0.195C59.964,79.979,60.57,78.891,59.673,78.391z
	 M49.741,71.551c-0.469-0.111-2.074-0.373-2.773,0.62c0.802-0.638,2.19-0.528,2.571-0.267c-0.147,0.562-0.32,0.914-0.134,1.479
	c0.128,0.387-0.399,0.656-1.529,0.924c1.226-0.037,1.938-0.406,1.728-1.084c-0.129-0.418,0.102-0.832,0.183-1.146
	c0.339-0.175-0.026,1.11,0.55,2.018c-0.248-0.974,0.026-2.228-0.169-2.386c0.375-0.34,0.657-0.902,0.82-1.604
	c0.003,0.016,0.006,0.033,0.008,0.051c0.861-0.243,1.518,1.516,0.829,2.193c0.815,0.616,0.319,2.03-0.832,2.318
	c0.399,0.841-0.229,1.751-1.08,2.014c-0.842,0.237-2.085,0.026-2.094-0.434c-0.622,0.48-2.141-0.539-1.18-1.53
	c-1.019,0.718-3.045-1.021-1.144-2.327c-0.257-0.912,2.433-3.093,3.335-2.258c0.487-0.684,1.658-0.615,2.021-0.255
	C50.67,70.563,50.41,71.253,49.741,71.551z M44.478,66.766c-0.429-0.011-0.948,0.588-0.829,1.392
	c-0.428-0.448-0.012-1.076,0.338-1.531c-0.661-0.181-2.37,0.563-3.164-0.127c0.419,0.123,0.9,0.218,1.715,0.039
	c0.807-0.206,1.302-0.118,1.779-0.165c-0.237-0.248-0.68-0.463-0.307-1.173c0.041,0.6,0.385,1.001,1.223,1.39
	c0.329,0.161,0.613,0.422,0.808,0.793c0.019-0.387-0.029-0.672-0.218-0.771c0.97-1.389,0.294-2.979-1.282-1.625
	c-0.567-0.566-1.639-1.603-3.096-0.201c-0.865-0.113-3.487,0.443-2.038,1.331c-1.929-0.771-1.584,1.114,0.285,1.879
	c0.317,0.705,2.491,2.011,2.868,1.159c0.722,1.642,1.981,1.158,2.017,0.078c0.841,1.351,1.202,0.05,1.413-1.35
	C45.766,67.214,45.22,66.752,44.478,66.766z M59.575,84.482c0.353-0.916-0.367-1.961-1.06-1.877
	c-0.459,0.729-0.74,1.473-0.563,2.203c0.364,0.26,0.784,0.455,0.883,1.566c-0.284-0.498-0.392-0.936-0.799-1.033
	c-0.354,0.531-0.935,0.647-1.121,1.521c-0.214,0.883-0.771,0.798-0.929,0.797c0.59-0.448,0.897-1.152,0.986-1.587
	c0.088-0.437,0.273-0.718,0.56-0.896c-0.079-0.403-1.118-0.228-1.532,0.552c0.2-0.729,1.305-1.133,1.566-1.111
	c0.013-0.532,0.178-1.18,0.633-1.907c-0.016,0.011-0.032,0.022-0.047,0.035c-0.701-0.793-2.713,0.7-2.295,1.401
	c-1.107,0.193-1.246,1.148-0.9,1.938c-0.809,0.207-1.268,0.75-1.4,1.253c-0.121,0.481,0.446,1.396,1.09,1.407
	c-0.446,0.484,1.899,1.752,2.262,0.47c-0.059,1.168,2.854,1.786,2.576-0.485C60.204,88.418,60.637,84.793,59.575,84.482z"/>
<path fill="#00461B" d="M53.834,11.485c5.495-5.284,21.348,12.023,13.422,38.972c-7.927,26.951-7.609,40.586-3.171,48.511
	c1.586-0.634-4.756-18.071,4.122-45.657c8.877-27.583-3.486-47.242-16.012-43.436C53.357,10.667,53.834,11.485,53.834,11.485z
	 M64.891,37.313c0.754,0.555,2.498,3.449,3.729,2.854c-0.057,0.72-0.073,0.622-0.152,1.234c-1.09,0.477-3.07-1.465-3.785-2.694
	C64.957,38.153,64.852,37.829,64.891,37.313z M55.227,47.615c0.588-0.748,1.672-2.224,1.617-3.402
	c0.361,0.088,0.706-0.061,1.006-0.104c-0.104,0.969-0.672,2.671-1.886,3.721C55.797,47.667,55.418,47.625,55.227,47.615z
	 M68.98,31.486c-0.127,0.013-0.254,0.032-0.381,0.053c-0.022,0.29-0.102,0.361-0.271,0.53c0.194-0.016,0.424-0.039,0.669-0.059
	C68.965,31.833,68.959,31.657,68.98,31.486z M65.844,47.06c0.407-0.309,1.331-0.79,1.78,0.413c0.006-0.023,0.129-0.63,0.161-0.79
	c-0.109-0.417-0.954-0.962-2.309-0.297C65.716,46.533,65.834,46.672,65.844,47.06z M67.811,26.679
	c-3.408-0.714-8.957,2.854-9.694,5.072c0.846-0.159,1.108-0.211,1.479-0.053c0.846-0.792,3.91-3.964,8.453-3.805
	C67.996,27.365,67.811,26.679,67.811,26.679z M52.243,43.118c-1.981,3.883-5.852,6.798-10.211,5.213
	c0.286-0.501,0.381-0.739,0.286-1.168c2.099,0.716,6.537,1.319,9.209-4.916C51.75,42.82,51.927,42.879,52.243,43.118z
	 M64.361,23.498c0.344,0.317,1.875,0.846,2.033,2.642c-0.316,0.053-0.526,0.106-0.791,0.133c-0.266-0.688-0.769-1.77-1.351-1.981
	C64.255,23.947,64.229,23.63,64.361,23.498z M52.734,25.902c-0.24,1.255-0.67,2.209-1.195,2.853
	c0.298,0.025,0.585,0.168,0.848,0.311c0.235-0.461,1.023-2.45,0.823-3.058C52.911,25.918,52.734,25.902,52.734,25.902z
	 M59.588,27.406c0.354,0.21,0.383,0.53,0.581,0.718c0.2,0.188,0.746,0.322,0.896,0.346c-0.102,0.071-0.172,0.156-0.23,0.188
	c-0.225,0.062-0.834-0.191-0.98-0.49c-0.148-0.3-0.305-0.488-0.371-0.519C59.514,27.563,59.588,27.406,59.588,27.406z
	 M45.675,26.126c0.347,0.932,1.772,2.141,2.727,2.594c-0.335,0.096-0.62,0.262-0.955,0.381c-0.875-0.268-2.817-1.66-3.03-2.762
	C44.776,26.508,45.54,26.452,45.675,26.126z M45.61,31.035c0.764-0.944,2.633-2.761,6.25-1.813c1.891,0.495,2.314,0.929,3.518,2.204
	c-0.641-0.168-1.249-0.153-1.771-0.058c-0.791-0.891-1.86-1.336-2.959-1.384c-1.205-0.053-3.482,0.5-4.367,1.98
	C46.207,31.464,45.992,31.25,45.61,31.035z M61.301,13.537c-0.404,0.184-1.145,0.72-1.347,1.126
	c0.147,0.111,0.351,0.276,0.351,0.424c0.258-0.277,1.09-1.22,1.237-1.201C61.338,13.72,61.301,13.537,61.301,13.537z M63.934,59.249
	c-1.074-0.202-3.961-0.481-5.019,0.088c0.358,0.429,0.715,0.739,0.668,1.479c0.946-0.213,3.886-0.701,4.135-0.444
	C63.807,59.773,63.934,59.249,63.934,59.249z M44.398,56.831c0.157-0.313,0.49-0.856,0.925-1.617
	c-0.193-0.069-0.447-0.394-0.511-0.64c-0.377,0.627-0.916,1.394-1.026,2.068C44.084,56.643,44.267,56.727,44.398,56.831z
	 M61.547,57.977c0.247-0.229,0.471-0.299,0.596-0.58c0.283,0.736,0.414,1.109,0.414,1.268c-0.363-0.061-0.759-0.043-0.885-0.043
	C61.625,58.369,61.654,58.161,61.547,57.977z M49.419,43.95c0.2-0.079,0.454-0.161,0.8-0.032c0.157-0.345,0.267-0.47,0.267-0.721
	c-0.379-0.12-0.779-0.143-1.176,0C49.366,43.436,49.513,43.66,49.419,43.95z M59.161,73.501c-0.142-1.647-0.519-3.53,0.659-4.378
	c1.177-0.848,2.117-0.071,2.307,0.259c-0.07,0.659,0.234,1.201-0.165,0.824s-1.224-1.154-1.883-0.399
	c-0.659,0.754-0.022,2.563-0.659,4.471C59.303,73.995,59.256,73.712,59.161,73.501z M52.055,70.573
	c0.52-0.345,1.318-0.689,2.118-1.694c0.376,0.111,0.581,0.253,0.831,0.206c-0.831,1.081-2.023,2.272-2.714,2.51
	C52.307,71.124,52.148,70.811,52.055,70.573z M46.187,67.248c1.114-0.03,2.306-0.188,3.106-1.287
	c0.079,0.173,0.157,0.362,0.188,0.456c-0.518,0.863-1.176,1.271-3.357,1.396C46.108,67.625,46.171,67.438,46.187,67.248z
	 M58.032,82.302c0.235-0.753,1.436-2.024,2.657-2.048c0,0.212-0.021,0.612,0,0.871c-0.398,0.143-1.601,0.777-1.717,1.364
	C58.645,82.23,58.361,82.325,58.032,82.302z"/>
<path fill="#B64198" d="M66.625,37.038c1.564-0.362,1.251-1.507,2.074-2.693c0.781-1.128,0.689-1.255-0.247-2.317
	c-0.749-0.85-0.386-1.328-0.079-2.273c0.367-1.138,0.171-1.99-0.163-2.552c-0.167-0.279-0.517-0.701-0.808-0.983
	c-0.353-0.338-0.795-0.332-1.107-0.587c-0.439-0.363-0.275-0.758-0.859-1.046c-0.506-0.248-0.804-0.162-1.179,0.204
	c-0.465,0.451-0.553,1.4-0.981,1.938c-0.377,0.473-0.838,0.278-0.662,1.117c0.084,0.403,0.498,0.699,0.748,0.933
	c0.127,0.118,0.312-0.159,0.498,0.028c0.16,0.158,0.152,0.435,0.257,0.583c1.137,1.63,0.427,2.634-0.788,3.424
	c-0.266,0.17-0.1,0.446-0.12,0.521C62.641,35.285,64.107,37.619,66.625,37.038z M61.161,32.281c-0.517,0.424-1.32,0.673-1.853,1.126
	c-0.785,0.672-0.979,1.179-1.309,1.905c-0.33,0.734,0.643,1.4,0.93,1.678c0.297,0.285,1.17,0.238,1.432,0.764
	c0.213,0.424,2.06,1.176,3.531,0.132c0.484-0.345-0.076-0.597-0.351-0.937c-0.84-1.046-1.383-2.667-0.74-3.666
	c0.192-0.169-0.858-1.158-1.282-1.359c-0.023,0.01-0.047,0.02-0.07,0.028C61.374,32.073,61.277,32.184,61.161,32.281z M57.57,33.467
	c1.777-0.001,1.846-1.02,2.65-1.161c0.762-0.134,0.896-0.799,1.158-0.649c-0.607-0.894-0.958-1.327-0.229-2.266
	c-0.772-1.194-2.18-0.37-2.95-0.443c-0.642-0.06-1.078-1.364-1.981-0.535c-0.955,0.88,0.271,1.603,0.365,2.467
	c0.09,0.833-0.947,0.708-0.716,1.769C56.066,33.567,56.743,33.467,57.57,33.467z M62.621,28.519
	c-0.166-0.152-0.396-0.393-0.469-0.633c-0.066-0.224,0.039-0.485,0.105-0.698c0.104-0.32,0.266-0.532,0.485-0.773
	c0.338-0.368,0.553-0.757,0.694-1.253c0.086-0.297,0.172-0.692,0.078-1.016c-0.099-0.342-0.535-0.426-0.828-0.46
	c-0.693-0.08-1.808,0.278-2.076,0.991c-0.041,0.11-0.088,0.176-0.047,0.302c-0.865-0.392-2.033,0.017-2.709,0.526
	c-0.357,0.27-0.608,0.749-0.588,1.244c0.021,0.406,0.25,0.715,0.459,1.067c0.465,0.782,1.004,0.34,1.691,0.319
	c0.607-0.017,1.279,0.142,1.829,0.463c0.254,0.148,0.224,0.419,0.457,0.549c0.112-0.097,0.192-0.217,0.274-0.311
	c0.062-0.07,0.176-0.086,0.239-0.122C62.354,28.643,62.463,28.482,62.621,28.519z M63.339,32.031
	c0.019-0.188-0.692-0.137-0.522,0.187C62.984,32.54,63.291,32.483,63.339,32.031z M61.843,30.25
	c-0.026-0.312-0.745,0.118-0.392,0.332C61.807,30.794,61.868,30.558,61.843,30.25z M62.896,30.469
	c0.015-0.223-0.649-0.139-0.457,0.222C62.629,31.05,62.863,30.911,62.896,30.469z M63.775,29.655
	c-0.086-0.403-0.739,0.165-0.387,0.304C63.745,30.097,63.85,30.009,63.775,29.655z M61.923,31.871
	c0.24,0.116,0.548-0.525,0.228-0.533C61.827,31.33,61.414,31.625,61.923,31.871z M62.479,29.634
	c0.264,0.255,0.453-0.344,0.158-0.419C62.344,29.141,62.1,29.261,62.479,29.634z M63.729,31.021
	c-0.283-0.124-0.129,0.774,0.17,0.533C64.197,31.313,64.008,31.142,63.729,31.021z"/>
<path fill="#F4CB36" d="M52.184,13.583c-0.226,1.227,0.688,1.356,1.279,2.308c0.563,0.905,0.684,0.879,1.729,0.539
	c0.836-0.272,1.063,0.134,1.646,0.645c0.698,0.613,1.365,0.736,1.868,0.671c0.25-0.034,0.658-0.152,0.949-0.273
	c0.351-0.145,0.48-0.464,0.761-0.607c0.396-0.203,0.625,0.037,1.011-0.292c0.333-0.283,0.362-0.522,0.219-0.903
	c-0.179-0.47-0.826-0.826-1.078-1.297c-0.223-0.414,0.06-0.682-0.592-0.816c-0.313-0.064-0.652,0.139-0.896,0.246
	c-0.123,0.054,0.018,0.27-0.174,0.346c-0.162,0.066-0.356-0.026-0.493,0.002c-1.513,0.308-2.011-0.509-2.197-1.618
	c-0.04-0.24-0.288-0.207-0.334-0.246C54.66,11.284,52.545,11.611,52.184,13.583z M57.258,11.157
	c-0.145-0.499-0.072-1.148-0.23-1.667c-0.236-0.767-0.539-1.063-0.953-1.521c-0.424-0.461-1.196,0.025-1.482,0.146
	c-0.294,0.123-0.529,0.76-0.984,0.785c-0.367,0.02-1.474,1.104-1.184,2.477c0.098,0.451,0.448,0.129,0.775,0.039
	c1.005-0.276,2.324-0.163,2.84,0.603c0.063,0.19,1.091-0.256,1.363-0.497c0-0.02,0-0.038,0.002-0.058
	C57.341,11.372,57.291,11.271,57.258,11.157z M57.52,8.232c-0.547,1.267,0.157,1.629,0.01,2.246
	c-0.139,0.584,0.295,0.886,0.104,1.027c0.824-0.159,1.241-0.274,1.687,0.534c1.091-0.183,0.937-1.439,1.227-1.966
	c0.241-0.439,1.307-0.348,0.992-1.247c-0.333-0.953-1.227-0.301-1.871-0.5c-0.622-0.193-0.213-0.895-1.04-1.056
	C57.911,7.129,57.773,7.643,57.52,8.232z M59.488,13.357c0.16-0.071,0.402-0.162,0.596-0.139c0.182,0.021,0.334,0.177,0.465,0.292
	c0.195,0.173,0.299,0.352,0.401,0.584c0.157,0.354,0.368,0.627,0.679,0.882c0.186,0.152,0.439,0.336,0.7,0.369
	c0.274,0.036,0.47-0.25,0.583-0.448c0.271-0.471,0.359-1.374-0.066-1.787c-0.063-0.063-0.098-0.116-0.201-0.125
	c0.547-0.498,0.617-1.456,0.461-2.094c-0.082-0.338-0.344-0.665-0.703-0.801c-0.297-0.112-0.59-0.042-0.902-0.002
	c-0.7,0.09-0.552,0.611-0.748,1.107c-0.176,0.439-0.496,0.869-0.896,1.161c-0.184,0.135-0.367,0.03-0.53,0.156
	c0.034,0.11,0.096,0.205,0.137,0.292c0.031,0.065,0.007,0.152,0.015,0.209C59.482,13.129,59.563,13.255,59.488,13.357z
	 M56.766,12.785c0.125,0.071,0.312-0.451,0.027-0.431C56.512,12.376,56.457,12.612,56.766,12.785z M58.495,12.269
	c0.229,0.077,0.146-0.567-0.116-0.381C58.118,12.074,58.268,12.191,58.495,12.269z M58.016,12.951
	c0.153,0.08,0.299-0.419-0.019-0.394C57.684,12.582,57.71,12.792,58.016,12.951z M58.322,13.83c0.314,0.063,0.111-0.578-0.098-0.369
	C58.018,13.671,58.047,13.773,58.322,13.83z M57.314,11.826c-0.156,0.135,0.205,0.552,0.311,0.325S57.646,11.539,57.314,11.826z
	 M58.738,12.911c-0.264,0.107,0.104,0.428,0.248,0.242C59.13,12.967,59.121,12.755,58.738,12.911z M57.363,13.375
	c0.176-0.164-0.512-0.331-0.432-0.044C57.012,13.619,57.191,13.537,57.363,13.375z M40.522,63.034
	c1.221-0.804,0.592-1.683,0.919-2.955c0.31-1.211,0.192-1.291-0.943-1.899c-0.908-0.488-0.75-1.013-0.787-1.916
	c-0.045-1.09-0.482-1.755-0.946-2.129c-0.23-0.186-0.662-0.436-1-0.584c-0.406-0.179-0.783-0.033-1.13-0.152
	c-0.492-0.17-0.476-0.559-1.065-0.618c-0.51-0.054-0.736,0.114-0.941,0.547c-0.254,0.53-0.03,1.368-0.227,1.966
	c-0.171,0.521-0.625,0.502-0.211,1.163c0.2,0.315,0.646,0.438,0.934,0.562c0.146,0.061,0.214-0.233,0.434-0.136
	c0.187,0.085,0.267,0.323,0.401,0.417c1.487,1.033,1.198,2.115,0.41,3.174c-0.17,0.229,0.058,0.41,0.063,0.481
	C36.566,62.798,38.557,64.325,40.522,63.034z M34.354,60.699c-0.307,0.525-0.916,0.992-1.225,1.547
	c-0.458,0.822-0.465,1.316-0.515,2.04c-0.05,0.731,0.99,0.993,1.323,1.139c0.343,0.149,1.074-0.166,1.464,0.2
	c0.314,0.295,2.128,0.354,3.057-1.005c0.305-0.446-0.254-0.485-0.595-0.688c-1.048-0.627-2.024-1.84-1.791-2.896
	c0.111-0.205-1.101-0.718-1.526-0.754c-0.017,0.016-0.033,0.03-0.051,0.047C34.468,60.454,34.423,60.579,34.354,60.699z
	 M31.663,62.848c1.517-0.563,1.253-1.453,1.896-1.828c0.609-0.354,0.513-0.967,0.786-0.922c-0.803-0.567-1.238-0.83-0.914-1.861
	c-1.038-0.773-1.978,0.373-2.66,0.557c-0.567,0.15-1.352-0.824-1.86,0.17c-0.539,1.055,0.738,1.282,1.092,1.991
	c0.339,0.685-0.586,0.903-0.053,1.735C30.41,63.408,30.957,63.109,31.663,62.848z M34.411,57.025c-0.19-0.077-0.464-0.211-0.6-0.395
	c-0.128-0.17-0.122-0.426-0.129-0.63c-0.012-0.308,0.057-0.537,0.169-0.813c0.172-0.422,0.232-0.82,0.198-1.291
	c-0.021-0.279-0.072-0.646-0.255-0.893c-0.192-0.261-0.592-0.195-0.852-0.131c-0.619,0.15-1.456,0.809-1.46,1.503
	c0,0.106-0.019,0.179,0.057,0.272c-0.864-0.063-1.733,0.658-2.148,1.306c-0.221,0.344-0.284,0.832-0.108,1.247
	c0.144,0.341,0.44,0.531,0.729,0.767c0.645,0.521,0.966-0.026,1.545-0.263c0.514-0.207,1.138-0.283,1.709-0.184
	c0.263,0.047,0.323,0.287,0.563,0.323c0.065-0.116,0.097-0.245,0.137-0.352c0.03-0.08,0.123-0.13,0.167-0.183
	C34.222,57.216,34.263,57.044,34.411,57.025z M36.134,59.798c-0.043-0.164-0.635,0.103-0.388,0.325
	C35.993,60.344,36.235,60.199,36.134,59.798z M34.293,58.75c-0.121-0.258-0.599,0.336-0.229,0.406
	C34.433,59.227,34.413,59.005,34.293,58.75z M35.261,58.604c-0.058-0.194-0.598,0.086-0.32,0.334
	C35.217,59.186,35.373,58.992,35.261,58.604z M35.755,57.631c-0.201-0.316-0.579,0.375-0.233,0.381
	C35.869,58.018,35.931,57.91,35.755,57.631z M34.874,60.107c0.242,0.022,0.302-0.621,0.025-0.525
	C34.621,59.677,34.362,60.061,34.874,60.107z M34.641,58.023c0.304,0.135,0.277-0.438,0.002-0.408
	C34.37,57.645,34.199,57.825,34.641,58.023z M36.146,58.813c-0.281-0.017,0.134,0.701,0.313,0.401
	C36.64,58.913,36.424,58.826,36.146,58.813z M50.611,39.589c0.781,0.449,1.091-0.142,1.883-0.316
	c0.753-0.166,0.765-0.253,0.783-1.048c0.017-0.636,0.349-0.694,0.836-0.967c0.588-0.328,0.832-0.753,0.908-1.113
	c0.037-0.178,0.057-0.485,0.043-0.713c-0.016-0.273-0.199-0.44-0.23-0.665c-0.043-0.318,0.176-0.417,0.045-0.759
	c-0.111-0.295-0.268-0.373-0.563-0.366c-0.363,0.008-0.765,0.365-1.146,0.422c-0.335,0.051-0.449-0.205-0.699,0.208
	c-0.119,0.198-0.062,0.478-0.048,0.67c0.007,0.097,0.188,0.053,0.194,0.202c0.006,0.126-0.104,0.237-0.117,0.337
	c-0.154,1.106-0.832,1.248-1.634,1.109c-0.173-0.031-0.21,0.146-0.248,0.168C49.641,37.346,49.354,38.867,50.611,39.589z
	 M50.18,35.543c-0.375-0.023-0.801-0.228-1.193-0.244c-0.58-0.023-0.854,0.111-1.266,0.285c-0.417,0.176-0.271,0.821-0.259,1.045
	c0.013,0.23,0.39,0.545,0.298,0.862c-0.075,0.255,0.398,1.27,1.404,1.403c0.331,0.043,0.196-0.275,0.213-0.52
	c0.055-0.751,0.45-1.625,1.096-1.792c0.144,0.004,0.087-0.806-0.01-1.05c-0.013-0.005-0.026-0.01-0.04-0.015
	C50.346,35.539,50.265,35.548,50.18,35.543z M48.248,34.66c0.732,0.679,1.15,0.286,1.535,0.535c0.365,0.236,0.674,0.014,0.726,0.177
	c0.091-0.601,0.112-0.913,0.771-1.021c0.14-0.788-0.756-0.985-1.044-1.31c-0.241-0.27,0.077-0.974-0.611-0.977
	c-0.731-0.003-0.501,0.763-0.792,1.155c-0.281,0.377-0.661-0.071-0.971,0.455C47.591,34.126,47.908,34.344,48.248,34.66z
	 M52.219,34.552c-0.011-0.126-0.014-0.314,0.049-0.439c0.061-0.118,0.201-0.186,0.313-0.247c0.166-0.092,0.313-0.118,0.496-0.133
	c0.277-0.022,0.517-0.101,0.765-0.25c0.147-0.089,0.336-0.219,0.423-0.388c0.09-0.178-0.06-0.38-0.166-0.506
	c-0.257-0.298-0.852-0.576-1.234-0.386c-0.059,0.03-0.104,0.04-0.135,0.107c-0.207-0.492-0.846-0.771-1.315-0.819
	c-0.251-0.026-0.537,0.076-0.718,0.288c-0.147,0.174-0.17,0.391-0.218,0.615c-0.107,0.5,0.285,0.524,0.576,0.777
	c0.256,0.226,0.473,0.548,0.574,0.89c0.049,0.158-0.066,0.258-0.021,0.401c0.084,0.003,0.164-0.016,0.231-0.023
	c0.054-0.005,0.104,0.032,0.146,0.042C52.063,34.501,52.167,34.476,52.219,34.552z M51.172,36.272
	c0.079-0.069-0.232-0.321-0.287-0.123C50.832,36.347,50.979,36.44,51.172,36.272z M51.236,34.968
	c0.106-0.139-0.354-0.236-0.288-0.013C51.014,35.177,51.129,35.104,51.236,34.968z M51.586,35.46
	c0.092-0.086-0.214-0.305-0.271-0.083C51.254,35.597,51.404,35.63,51.586,35.46z M52.26,35.461c0.118-0.199-0.367-0.214-0.275-0.022
	C52.077,35.631,52.154,35.636,52.26,35.461z M50.648,35.666c0.056,0.14,0.428-0.007,0.297-0.133
	C50.816,35.406,50.534,35.37,50.648,35.666z M51.732,34.957c0.012,0.205,0.316,0.032,0.227-0.112
	C51.866,34.702,51.721,34.658,51.732,34.957z M51.719,36.005c-0.07-0.159-0.35,0.27-0.135,0.284
	C51.799,36.305,51.787,36.162,51.719,36.005z"/>
<path fill="#EF3B24" d="M45.508,75.62c0.855-0.082,0.769-0.712,1.289-1.284c0.494-0.543,0.454-0.617,0.031-1.245
	c-0.338-0.503-0.112-0.731,0.117-1.212c0.275-0.578,0.23-1.044,0.093-1.365c-0.07-0.158-0.225-0.406-0.36-0.576
	c-0.163-0.205-0.398-0.23-0.546-0.39c-0.209-0.224-0.094-0.422-0.384-0.614c-0.25-0.168-0.415-0.143-0.639,0.024
	c-0.278,0.207-0.391,0.704-0.657,0.96c-0.232,0.225-0.463,0.089-0.429,0.546c0.018,0.22,0.215,0.405,0.333,0.547
	c0.059,0.072,0.175-0.062,0.262,0.05c0.074,0.098,0.05,0.241,0.094,0.328c0.49,0.943,0.042,1.428-0.657,1.762
	c-0.152,0.072-0.083,0.229-0.1,0.269C43.517,74.412,44.133,75.752,45.508,75.62z M42.942,72.715
	c-0.303,0.188-0.747,0.266-1.061,0.469c-0.464,0.301-0.603,0.558-0.827,0.918c-0.226,0.366,0.242,0.789,0.376,0.955
	c0.137,0.172,0.604,0.209,0.706,0.506c0.083,0.238,1.01,0.769,1.864,0.315c0.281-0.147,0.001-0.321-0.121-0.521
	c-0.372-0.614-0.546-1.514-0.136-1.996c0.114-0.076-0.375-0.676-0.586-0.813c-0.013,0.003-0.025,0.008-0.039,0.012
	C43.07,72.619,43.012,72.672,42.942,72.715z M40.955,73.093c0.943,0.124,1.05-0.411,1.487-0.43c0.414-0.019,0.532-0.361,0.661-0.263
	c-0.26-0.519-0.415-0.771,0.036-1.219c-0.327-0.688-1.13-0.35-1.534-0.44c-0.336-0.077-0.477-0.8-1.014-0.423
	c-0.569,0.398,0.032,0.869,0.021,1.334c-0.01,0.447-0.552,0.311-0.503,0.889C40.151,73.041,40.517,73.035,40.955,73.093z
	 M43.98,70.822c-0.078-0.094-0.183-0.237-0.204-0.369c-0.021-0.124,0.053-0.255,0.105-0.362c0.078-0.163,0.177-0.265,0.311-0.377
	c0.205-0.172,0.346-0.362,0.457-0.616c0.066-0.149,0.14-0.354,0.113-0.533c-0.028-0.188-0.254-0.264-0.407-0.301
	c-0.363-0.092-0.978,0.021-1.171,0.381c-0.029,0.056-0.059,0.086-0.045,0.155c-0.432-0.269-1.081-0.133-1.474,0.091
	c-0.208,0.117-0.376,0.354-0.398,0.617c-0.019,0.217,0.083,0.396,0.168,0.598c0.192,0.449,0.51,0.252,0.875,0.289
	c0.324,0.032,0.669,0.164,0.938,0.373c0.124,0.098,0.089,0.237,0.204,0.323c0.066-0.044,0.118-0.103,0.167-0.146
	c0.037-0.033,0.1-0.034,0.137-0.049C43.83,70.869,43.898,70.791,43.98,70.822z M44.115,72.734c0.023-0.099-0.358-0.12-0.291,0.063
	C43.892,72.979,44.058,72.971,44.115,72.734z M43.446,71.686c0.008-0.168-0.403,0.01-0.23,0.148
	C43.388,71.973,43.438,71.852,43.446,71.686z M43.989,71.875c0.024-0.117-0.334-0.118-0.257,0.086
	C43.807,72.165,43.941,72.105,43.989,71.875z M44.512,71.505c-0.017-0.22-0.403,0.036-0.226,0.136
	C44.466,71.736,44.527,71.698,44.512,71.505z M43.375,72.551c0.119,0.079,0.327-0.24,0.157-0.267
	C43.362,72.258,43.123,72.385,43.375,72.551z M43.826,71.402c0.121,0.154,0.264-0.149,0.113-0.211
	C43.788,71.131,43.651,71.18,43.826,71.402z M44.393,72.227c-0.142-0.084-0.123,0.401,0.052,0.295
	C44.62,72.414,44.532,72.311,44.393,72.227z M51.787,6.815c0.195,0.837,0.809,0.666,1.445,1.104
	c0.604,0.416,0.672,0.366,1.238-0.137c0.451-0.403,0.709-0.209,1.217-0.048c0.607,0.195,1.063,0.088,1.362-0.092
	c0.149-0.091,0.374-0.278,0.524-0.435c0.181-0.188,0.176-0.426,0.313-0.593c0.192-0.237,0.404-0.15,0.559-0.463
	c0.132-0.271,0.084-0.43-0.111-0.63c-0.242-0.248-0.75-0.293-1.04-0.521c-0.254-0.2-0.149-0.447-0.599-0.352
	c-0.215,0.047-0.373,0.268-0.498,0.403c-0.063,0.068,0.087,0.165-0.014,0.267C56.1,5.404,55.952,5.4,55.872,5.456
	c-0.869,0.612-1.409,0.234-1.834-0.414C53.945,4.901,53.8,4.991,53.76,4.979C52.716,4.68,51.471,5.47,51.787,6.815z M54.318,3.881
	c-0.229-0.274-0.361-0.705-0.605-0.988c-0.361-0.419-0.633-0.522-1.021-0.696c-0.395-0.175-0.748,0.346-0.896,0.501
	c-0.151,0.159-0.124,0.626-0.405,0.768c-0.226,0.114-0.623,1.104-0.063,1.89c0.186,0.259,0.318-0.042,0.501-0.189
	c0.558-0.451,1.423-0.746,1.959-0.404c0.091,0.103,0.616-0.463,0.726-0.69c-0.006-0.012-0.012-0.024-0.017-0.037
	C54.432,3.994,54.371,3.944,54.318,3.881z M53.677,1.963c0.005,0.951,0.55,0.985,0.628,1.416c0.072,0.407,0.43,0.478,0.35,0.619
	c0.478-0.328,0.707-0.515,1.213-0.128c0.637-0.416,0.191-1.166,0.229-1.579c0.03-0.344,0.729-0.581,0.281-1.062
	c-0.475-0.51-0.855,0.149-1.318,0.201c-0.445,0.05-0.382-0.505-0.947-0.379C53.62,1.159,53.675,1.521,53.677,1.963z M56.336,4.654
	c0.08-0.089,0.209-0.213,0.337-0.251c0.12-0.037,0.261,0.019,0.374,0.056c0.172,0.055,0.285,0.14,0.415,0.257
	c0.197,0.18,0.405,0.293,0.672,0.37c0.159,0.044,0.371,0.091,0.544,0.04c0.184-0.054,0.227-0.288,0.243-0.444
	c0.042-0.372-0.151-0.966-0.534-1.109c-0.059-0.021-0.094-0.046-0.162-0.023c0.209-0.465-0.014-1.089-0.287-1.449
	c-0.146-0.191-0.399-0.325-0.666-0.311c-0.217,0.01-0.383,0.136-0.568,0.248c-0.417,0.251-0.182,0.539-0.166,0.906
	c0.01,0.326-0.073,0.686-0.244,0.98C56.214,4.06,56.068,4.044,56,4.17c0.055,0.06,0.117,0.103,0.167,0.146
	c0.038,0.032,0.046,0.094,0.063,0.129C56.27,4.511,56.354,4.569,56.336,4.654z M54.458,5.046c0.099,0.009,0.071-0.371-0.103-0.28
	C54.186,4.858,54.216,5.021,54.458,5.046z M55.408,4.241c0.166-0.015-0.065-0.398-0.18-0.208
	C55.115,4.223,55.242,4.256,55.408,4.241z M55.293,4.805c0.119,0.008,0.072-0.347-0.12-0.244S55.057,4.789,55.293,4.805z
	 M55.73,5.273c0.215-0.046-0.092-0.395-0.164-0.206C55.494,5.259,55.54,5.314,55.73,5.273z M54.541,4.288
	c-0.063,0.128,0.281,0.292,0.285,0.12C54.829,4.235,54.671,4.015,54.541,4.288z M55.738,4.58c-0.137,0.141,0.185,0.242,0.225,0.084
	C56.002,4.507,55.938,4.376,55.738,4.58z M55,5.251c0.064-0.152-0.415-0.067-0.285,0.092C54.844,5.503,54.936,5.402,55,5.251z
	 M33.956,45.844c0.839,1.352,1.813,0.692,3.188,1.085c1.307,0.373,1.397,0.247,2.093-0.971c0.558-0.973,1.123-0.785,2.108-0.8
	c1.185-0.018,1.921-0.474,2.341-0.966c0.208-0.246,0.493-0.708,0.664-1.071c0.206-0.437,0.058-0.851,0.198-1.226
	c0.2-0.529,0.623-0.501,0.706-1.141c0.072-0.554-0.104-0.804-0.567-1.04c-0.571-0.292-1.49-0.072-2.132-0.303
	c-0.563-0.202-0.527-0.695-1.258-0.264c-0.351,0.209-0.497,0.689-0.636,1c-0.07,0.157,0.248,0.24,0.133,0.476
	c-0.098,0.202-0.359,0.281-0.465,0.425c-1.167,1.587-2.335,1.241-3.464,0.353c-0.243-0.192-0.449,0.051-0.526,0.055
	C34.328,41.547,32.608,43.669,33.956,45.844z M36.674,39.202c-0.563-0.348-1.053-1.023-1.647-1.377
	c-0.881-0.522-1.418-0.544-2.204-0.619c-0.794-0.075-1.109,1.048-1.277,1.407c-0.173,0.368,0.149,1.172-0.26,1.586
	c-0.329,0.333-0.445,2.305,1.004,3.354c0.477,0.345,0.535-0.262,0.767-0.627c0.713-1.122,2.06-2.148,3.201-1.865
	c0.221,0.127,0.812-1.176,0.865-1.638c-0.017-0.019-0.033-0.037-0.049-0.057C36.937,39.334,36.802,39.281,36.674,39.202z
	 M34.416,36.213c0.568,1.667,1.544,1.405,1.934,2.115c0.368,0.672,1.036,0.586,0.978,0.881c0.645-0.856,0.939-1.322,2.052-0.939
	c0.874-1.106-0.348-2.162-0.526-2.909c-0.148-0.621,0.935-1.447-0.131-2.029c-1.131-0.616-1.416,0.766-2.197,1.13
	c-0.753,0.35-0.967-0.663-1.888-0.106C33.842,34.835,34.152,35.437,34.416,36.213z M40.668,39.371
	c0.089-0.204,0.241-0.499,0.444-0.641c0.188-0.134,0.467-0.12,0.688-0.123c0.333-0.003,0.583,0.077,0.881,0.208
	c0.453,0.199,0.886,0.276,1.397,0.253c0.305-0.015,0.704-0.06,0.978-0.251c0.289-0.202,0.229-0.638,0.167-0.923
	c-0.146-0.677-0.837-1.606-1.593-1.632c-0.116-0.003-0.192-0.026-0.297,0.053c0.09-0.938-0.666-1.903-1.358-2.374
	c-0.367-0.25-0.897-0.333-1.353-0.153c-0.375,0.147-0.591,0.463-0.855,0.771c-0.585,0.686,0.002,1.051,0.241,1.688
	c0.21,0.565,0.275,1.246,0.149,1.864c-0.058,0.285-0.322,0.343-0.37,0.604c0.127,0.074,0.266,0.112,0.379,0.159
	c0.085,0.035,0.137,0.138,0.192,0.187C40.466,39.16,40.651,39.209,40.668,39.371z M37.602,41.164
	c0.181-0.042-0.092-0.693-0.342-0.432C37.013,40.995,37.163,41.263,37.602,41.164z M38.796,39.192
	c0.284-0.124-0.348-0.661-0.436-0.261C38.273,39.331,38.515,39.315,38.796,39.192z M38.926,40.249
	c0.214-0.057-0.077-0.652-0.353-0.357C38.296,40.185,38.501,40.36,38.926,40.249z M39.97,40.815c0.352-0.209-0.39-0.641-0.408-0.265
	C39.545,40.928,39.662,40.998,39.97,40.815z M37.301,39.785c-0.033,0.262,0.667,0.346,0.571,0.042
	C37.778,39.523,37.37,39.229,37.301,39.785z M39.576,39.592c-0.156,0.326,0.467,0.314,0.444,0.015
	C39.996,39.309,39.805,39.117,39.576,39.592z M38.675,41.207c0.024-0.305-0.768,0.125-0.446,0.328
	C38.55,41.74,38.65,41.508,38.675,41.207z M41.875,28.859c0.293,1.434,1.344,1.175,2.405,1.952c1.01,0.738,1.127,0.658,2.117-0.171
	c0.791-0.663,1.218-0.32,2.072-0.02c1.029,0.362,1.809,0.203,2.329-0.088c0.259-0.146,0.651-0.453,0.916-0.712
	c0.315-0.312,0.32-0.716,0.562-0.995c0.342-0.394,0.695-0.234,0.974-0.76c0.235-0.455,0.166-0.727-0.158-1.078
	c-0.397-0.434-1.263-0.536-1.743-0.94c-0.422-0.354-0.232-0.768-1.001-0.628c-0.369,0.068-0.648,0.437-0.867,0.66
	c-0.11,0.113,0.138,0.286-0.037,0.453c-0.147,0.143-0.4,0.128-0.536,0.219c-1.513,0.998-2.411,0.327-3.102-0.798
	c-0.148-0.244-0.404-0.099-0.471-0.121C43.565,25.27,41.405,26.553,41.875,28.859z M46.336,23.993
	c-0.375-0.479-0.582-1.218-0.983-1.713c-0.594-0.731-1.051-0.921-1.704-1.236c-0.661-0.318-1.291,0.551-1.55,0.808
	c-0.266,0.263-0.244,1.059-0.729,1.286c-0.391,0.184-1.118,1.848-0.202,3.214c0.303,0.45,0.546-0.056,0.861-0.297
	c0.973-0.74,2.462-1.197,3.356-0.589c0.15,0.18,1.075-0.757,1.268-1.138c-0.008-0.021-0.017-0.042-0.024-0.064
	C46.521,24.191,46.422,24.102,46.336,23.993z M45.339,20.694c-0.041,1.619,0.886,1.705,0.996,2.441
	c0.104,0.698,0.708,0.836,0.564,1.072c0.828-0.534,1.231-0.842,2.069-0.157c1.106-0.676,0.388-1.977,0.473-2.678
	c0.07-0.583,1.268-0.951,0.533-1.792c-0.78-0.892-1.466,0.21-2.256,0.275c-0.761,0.062-0.623-0.88-1.595-0.693
	C45.283,19.323,45.359,19.941,45.339,20.694z M49.73,25.411c0.142-0.147,0.367-0.353,0.587-0.412
	c0.207-0.056,0.441,0.045,0.633,0.114c0.288,0.103,0.479,0.252,0.694,0.459c0.326,0.316,0.676,0.521,1.125,0.664
	c0.27,0.084,0.627,0.172,0.924,0.095c0.313-0.083,0.399-0.478,0.438-0.744c0.09-0.631-0.212-1.653-0.854-1.916
	c-0.101-0.04-0.158-0.084-0.273-0.048c0.377-0.781,0.032-1.855-0.416-2.482c-0.236-0.333-0.668-0.572-1.119-0.563
	c-0.369,0.007-0.658,0.211-0.983,0.393c-0.723,0.406-0.333,0.908-0.33,1.534c0.001,0.555-0.159,1.163-0.465,1.656
	c-0.14,0.228-0.387,0.194-0.51,0.404c0.086,0.104,0.193,0.181,0.275,0.257c0.063,0.058,0.075,0.163,0.106,0.223
	C49.623,25.164,49.768,25.267,49.73,25.411z M46.513,25.982c0.169,0.022,0.141-0.627-0.158-0.481
	C46.058,25.648,46.103,25.928,46.513,25.982z M48.171,24.661c0.284-0.016-0.09-0.681-0.293-0.363
	C47.675,24.614,47.889,24.678,48.171,24.661z M47.947,25.614c0.204,0.019,0.142-0.587-0.191-0.42
	C47.424,25.358,47.545,25.575,47.947,25.614z M48.668,26.435c0.37-0.069-0.133-0.677-0.268-0.358
	C48.266,26.397,48.343,26.495,48.668,26.435z M46.692,24.696c-0.111,0.216,0.465,0.511,0.48,0.218
	C47.188,24.622,46.929,24.238,46.692,24.696z M48.717,25.254c-0.239,0.232,0.302,0.42,0.377,0.154
	C49.17,25.143,49.066,24.917,48.717,25.254z M47.425,26.361c0.119-0.256-0.702-0.137-0.49,0.141
	C47.147,26.781,47.308,26.613,47.425,26.361z"/>
<path fill="#4463AE" d="M63.764,44.534c-0.589-2.272-2.25-1.771-4.016-2.928c-1.68-1.1-1.859-0.961-3.376,0.448
	c-1.212,1.126-1.927,0.614-3.319,0.202c-1.677-0.496-2.915-0.176-3.723,0.333c-0.401,0.255-1.005,0.78-1.406,1.218
	c-0.481,0.525-0.455,1.173-0.817,1.64c-0.514,0.658-1.096,0.433-1.495,1.297c-0.344,0.748-0.206,1.179,0.342,1.714
	c0.676,0.662,2.067,0.754,2.871,1.362c0.705,0.532,0.437,1.212,1.658,0.924c0.583-0.139,1.001-0.752,1.333-1.128
	c0.168-0.19-0.243-0.447,0.021-0.729c0.228-0.241,0.629-0.238,0.843-0.395c2.34-1.724,3.834-0.723,5.033,1.023
	c0.26,0.377,0.654,0.125,0.766,0.154C61.352,50.423,64.706,48.19,63.764,44.534z M57.018,52.699
	c0.642,0.736,1.033,1.904,1.717,2.662c1.014,1.123,1.76,1.39,2.832,1.841c1.086,0.454,2.022-0.989,2.416-1.421
	c0.404-0.443,0.307-1.719,1.063-2.122c0.611-0.325,1.64-3.054,0.06-5.167c-0.521-0.695-0.871,0.135-1.354,0.548
	c-1.498,1.267-3.847,2.122-5.329,1.221c-0.255-0.276-1.656,1.302-1.938,1.929c0.017,0.033,0.031,0.066,0.045,0.102
	C56.705,52.396,56.871,52.531,57.018,52.699z M58.887,57.9c-0.068-2.599-1.56-2.657-1.795-3.827
	c-0.226-1.109-1.203-1.281-0.992-1.673c-1.283,0.925-1.9,1.451-3.303,0.423c-1.716,1.176-0.459,3.2-0.535,4.329
	c-0.063,0.939-1.954,1.629-0.707,2.916c1.323,1.363,2.332-0.457,3.592-0.627c1.215-0.164,1.071,1.356,2.611,0.979
	C59.09,60.094,58.918,59.109,58.887,57.9z M51.464,50.708c-0.214,0.248-0.558,0.597-0.907,0.708
	c-0.324,0.105-0.708-0.037-1.021-0.13c-0.471-0.142-0.788-0.365-1.149-0.681c-0.55-0.479-1.128-0.777-1.858-0.971
	c-0.437-0.114-1.018-0.225-1.488-0.076c-0.496,0.157-0.602,0.798-0.641,1.228c-0.091,1.02,0.475,2.631,1.527,2.999
	c0.162,0.056,0.26,0.121,0.443,0.055c-0.54,1.282,0.102,2.976,0.87,3.941c0.408,0.513,1.117,0.86,1.839,0.811
	c0.593-0.042,1.037-0.394,1.542-0.711c1.126-0.709,0.46-1.479,0.401-2.483c-0.049-0.89,0.158-1.875,0.607-2.69
	c0.206-0.376,0.604-0.342,0.784-0.688c-0.146-0.158-0.324-0.272-0.463-0.39c-0.104-0.087-0.134-0.253-0.188-0.347
	C51.656,51.094,51.417,50.941,51.464,50.708z M56.57,49.527c-0.272-0.021-0.174,1.017,0.293,0.757
	C57.328,50.023,57.232,49.58,56.57,49.527z M54.023,51.78c-0.455,0.05,0.199,1.084,0.5,0.559
	C54.822,51.814,54.475,51.73,54.023,51.78z M54.305,50.234c-0.328-0.014-0.179,0.954,0.342,0.659
	C55.163,50.602,54.952,50.264,54.305,50.234z M53.082,48.978c-0.587,0.141,0.27,1.074,0.457,0.552
	C53.729,49.006,53.598,48.855,53.082,48.978z M56.391,51.602c0.16-0.354-0.787-0.781-0.787-0.311
	C55.604,51.761,56.05,52.354,56.391,51.602z M53.1,50.875c0.363-0.392-0.519-0.648-0.617-0.216
	C52.385,51.09,52.568,51.443,53.1,50.875z M55.079,48.995c-0.169,0.419,1.137,0.161,0.772-0.267
	C55.488,48.298,55.245,48.582,55.079,48.995z M36.369,18.334c0.559,0.66,1.029,0.228,1.8,0.329c0.733,0.096,0.772,0.021,1.049-0.689
	c0.222-0.568,0.541-0.512,1.069-0.599c0.636-0.104,0.995-0.408,1.182-0.707c0.092-0.148,0.208-0.419,0.271-0.629
	c0.076-0.251-0.037-0.462,0.009-0.674c0.065-0.301,0.295-0.319,0.289-0.67c-0.005-0.303-0.121-0.424-0.388-0.514
	c-0.331-0.111-0.807,0.081-1.17,0.007c-0.319-0.063-0.339-0.332-0.698-0.041c-0.172,0.14-0.212,0.41-0.262,0.588
	c-0.026,0.09,0.152,0.109,0.109,0.245c-0.036,0.116-0.171,0.18-0.216,0.266c-0.5,0.947-1.156,0.854-1.834,0.466
	c-0.146-0.083-0.237,0.064-0.278,0.072C36.226,15.994,35.471,17.272,36.369,18.334z M37.299,14.545
	c-0.33-0.143-0.647-0.466-0.996-0.609c-0.515-0.21-0.805-0.179-1.234-0.156c-0.433,0.021-0.513,0.652-0.574,0.858
	c-0.063,0.211,0.174,0.618-0.013,0.874c-0.151,0.206-0.056,1.275,0.808,1.724c0.284,0.147,0.267-0.184,0.362-0.399
	c0.294-0.66,0.936-1.319,1.572-1.258c0.128,0.051,0.342-0.697,0.334-0.95c-0.01-0.009-0.021-0.017-0.031-0.026
	C37.451,14.596,37.375,14.578,37.299,14.545z M35.846,13.119c0.438,0.851,0.943,0.632,1.209,0.982
	c0.252,0.332,0.604,0.232,0.597,0.396c0.277-0.512,0.399-0.786,1.028-0.669c0.381-0.665-0.36-1.135-0.515-1.521
	c-0.129-0.322,0.387-0.853-0.232-1.081c-0.657-0.241-0.701,0.525-1.091,0.783c-0.377,0.248-0.573-0.279-1.023,0.093
	C35.428,12.423,35.643,12.723,35.846,13.119z M39.461,14.317c0.032-0.117,0.09-0.287,0.188-0.38c0.09-0.087,0.242-0.102,0.36-0.121
	c0.179-0.029,0.32-0.005,0.49,0.042c0.259,0.071,0.499,0.078,0.771,0.024c0.163-0.032,0.374-0.088,0.506-0.213
	c0.139-0.131,0.072-0.361,0.016-0.51c-0.133-0.353-0.579-0.797-0.987-0.75c-0.063,0.008-0.105,0.001-0.156,0.053
	c-0.026-0.512-0.51-0.97-0.92-1.168c-0.217-0.104-0.509-0.107-0.74,0.026c-0.189,0.108-0.281,0.296-0.398,0.482
	c-0.26,0.416,0.085,0.565,0.265,0.889c0.158,0.287,0.248,0.648,0.229,0.99c-0.008,0.158-0.145,0.21-0.15,0.354
	c0.074,0.029,0.152,0.039,0.216,0.055c0.049,0.012,0.085,0.063,0.118,0.085C39.335,14.22,39.439,14.232,39.461,14.317z
	 M37.955,15.526c0.094-0.037-0.104-0.365-0.218-0.204C37.625,15.482,37.728,15.614,37.955,15.526z M38.44,14.371
	c0.143-0.089-0.24-0.328-0.255-0.105C38.17,14.487,38.298,14.459,38.44,14.371z M38.594,14.929c0.111-0.048-0.093-0.345-0.219-0.164
	C38.251,14.944,38.375,15.022,38.594,14.929z M39.201,15.149c0.172-0.141-0.261-0.313-0.24-0.11
	C38.982,15.244,39.05,15.273,39.201,15.149z M37.684,14.809c0.003,0.144,0.386,0.133,0.311-0.023
	C37.919,14.629,37.676,14.504,37.684,14.809z M38.892,14.523c-0.058,0.188,0.275,0.132,0.239-0.027
	C39.094,14.337,38.977,14.25,38.892,14.523z M38.536,15.464c-0.011-0.167-0.403,0.128-0.213,0.212
	C38.511,15.76,38.547,15.627,38.536,15.464z"/>
</svg>
