<?xml version="1.0" encoding="utf-8"?>
<!-- Generator: Adobe Illustrator 16.0.0, SVG Export Plug-In . SVG Version: 6.00 Build 0)  -->
<!DOCTYPE svg PUBLIC "-//W3C//DTD SVG 1.1//EN" "http://www.w3.org/Graphics/SVG/1.1/DTD/svg11.dtd">
<svg version="1.1"
	 id="svg719" xmlns:cc="http://creativecommons.org/ns#" xmlns:dc="http://purl.org/dc/elements/1.1/" xmlns:rdf="http://www.w3.org/1999/02/22-rdf-syntax-ns#"
	 xmlns="http://www.w3.org/2000/svg" xmlns:xlink="http://www.w3.org/1999/xlink" x="0px" y="0px" width="143.447px"
	 height="71.281px" viewBox="0 0 143.447 71.281" enable-background="new 0 0 143.447 71.281" xml:space="preserve">
<rect id="rect724" x="0" fill="#BE0027" width="143.373" height="71.141"/>
<path fill="#FFFF00" d="M92.7,35.52c-2.232,0.475-4.763-0.625-7.25-0.804c-0.011-0.188-0.024-0.376-0.044-0.563
	c2.591-0.5,5.903,0.104,7.012-1.854c-2.342,0.894-4.592,0.032-7.271,0.246c-0.041-0.185-0.086-0.368-0.135-0.55
	c2.691-0.989,6.287-0.977,6.606-3.024c-1.756,1.218-4.552,0.812-7.113,1.497c-0.063-0.16-0.13-0.318-0.198-0.475
	c2.531-1.449,5.955-1.721,6.03-4.078c-1.582,1.641-4.416,1.47-6.774,2.635c-0.08-0.139-0.164-0.275-0.25-0.41
	c2.22-1.979,5.108-2.3,5.313-5.001c-1.917,2.084-4.232,2.114-6.29,3.659c-0.108-0.133-0.222-0.262-0.334-0.389
	c1.662-2.029,4.354-2.885,4.446-5.805c-1.226,2.143-3.688,2.696-5.564,4.682c-0.123-0.11-0.249-0.219-0.377-0.325
	c1.397-2.539,3.803-3.494,3.421-6.511c-0.62,2.379-3.256,3.086-4.794,5.502c-0.164-0.104-0.331-0.207-0.5-0.305
	c0.836-2.517,3.277-4.091,2.466-6.867c-0.295,2.504-2.479,3.254-3.845,6.164c-0.188-0.084-0.382-0.164-0.574-0.238
	c0.472-2.818,2.729-4.707,1.354-7.166c-0.036,2.719-1.974,3.91-2.798,6.695c-0.223-0.059-0.447-0.111-0.673-0.16
	c0.054-2.543,1.847-4.809,0.15-7.338c0.343,2.974-1.271,4.158-1.652,7.104c-0.196-0.019-0.396-0.034-0.592-0.045
	c-0.437-2.882,0.907-5.054-0.858-7.226c0.502,3.281-0.784,4.312-0.7,7.226c-0.229,0.013-0.461,0.032-0.688,0.056
	c-0.904-2.636-0.21-5.201-2.499-6.912c1.211,2.6,0.437,4.557,0.947,7.168c-0.221,0.049-0.438,0.104-0.655,0.164
	c-1.479-2.601-0.827-5.033-3.562-6.445c1.723,2.432,1.107,4.367,2.074,6.949c-0.198,0.08-0.392,0.164-0.585,0.252
	c-1.982-2.482-1.488-4.84-4.468-5.799c2.07,2.157,1.641,4.088,3.12,6.51c-0.172,0.104-0.341,0.209-0.507,0.32
	c-2.156-1.972-2.304-4.342-5.353-5.058c2.435,1.995,2.204,3.897,4.052,6.032c-0.147,0.127-0.296,0.256-0.438,0.39
	c-2.242-1.56-3.034-4.09-6.046-4.146c2.646,1.455,2.701,3.254,4.986,5.233c-0.142,0.164-0.28,0.331-0.416,0.5
	c-2.595-1.151-2.995-3.235-6.625-3.149c3.357,1.312,2.905,2.781,5.719,4.442c-0.097,0.154-0.188,0.313-0.278,0.47
	c-2.732-0.81-3.151-2.654-7.067-2.063c2.713,0.454,3.536,2.349,6.354,3.517c-0.081,0.193-0.158,0.389-0.23,0.586
	c-2.487-0.38-4.267-2.225-7.268-0.945c3.558,0.25,3.952,1.771,6.81,2.461c-0.042,0.176-0.081,0.352-0.115,0.529
	c-2.6-0.035-4.815-1.404-7.335,0.145c2.504-0.237,4.36,1.135,7.111,1.479c-0.016,0.207-0.025,0.418-0.034,0.629
	c-2.767,0.428-5.684-0.74-7.236,1.148c2.296-0.611,4.337,0.4,7.271,0.398c0.019,0.229,0.042,0.452,0.07,0.678
	c-2.394,0.621-5.407,0.029-6.94,2.256c1.695-1.016,4.788-0.438,7.207-0.807c0.053,0.219,0.109,0.434,0.171,0.646
	c-2.13,0.898-5.551,1.078-6.52,3.332c1.824-1.334,4.775-1.049,7.006-1.947c0.078,0.189,0.16,0.377,0.247,0.563
	c-2.039,1.424-5.599,2.065-5.821,4.397c1.456-1.635,4.527-1.77,6.566-3.012c0.104,0.172,0.214,0.342,0.328,0.51
	c-1.832,1.918-5.22,2.705-5.052,5.289c1.139-1.932,4.041-2.364,5.97-4.082c0.129,0.152,0.261,0.302,0.396,0.447
	c-1.445,1.994-4.524,3.441-4.169,6c0.994-2.027,3.641-2.873,5.331-4.885c0.143,0.121,0.287,0.24,0.436,0.357
	c-1.185,2.313-3.903,3.955-3.194,6.576c0.878-2.412,3.061-3.683,4.438-5.705c0.186,0.114,0.372,0.225,0.563,0.332
	c-0.789,2.342-2.99,4.377-2.143,6.983c0.483-2.405,2.652-4.03,3.577-6.289c0.166,0.068,0.337,0.138,0.508,0.199
	c-0.381,2.528-2.328,5.055-1.006,7.262c-0.179-1.776,1.916-4.125,2.484-6.811c0.192,0.047,0.385,0.09,0.58,0.129
	c0.052,2.588-1.6,5.399,0.025,7.301c-0.315-2.405,1.276-4.479,1.527-7.082c0.245,0.021,0.492,0.033,0.741,0.043
	c0.469,2.429-1.02,4.834,1.045,7.228c-0.541-2.426,0.459-4.699,0.353-7.256c0.185-0.015,0.364-0.029,0.548-0.05
	c0.598,2.492-0.042,6.037,1.95,7.009c-0.915-2.229-0.089-4.828-0.485-7.25c0.188-0.043,0.379-0.09,0.566-0.14
	c1.221,2.529,0.834,5.713,3.089,6.627c-1.141-1.771-0.612-4.664-1.567-7.129c0.178-0.069,0.354-0.146,0.529-0.226
	c1.547,2.183,1.754,5.556,4.041,6.023c-1.498-1.486-1.42-4.588-2.581-6.783c0.159-0.096,0.315-0.194,0.472-0.297
	c1.721,1.93,2.786,5.5,4.931,5.387c-1.474-1.104-2.014-4.166-3.655-6.328c0.146-0.122,0.295-0.25,0.438-0.379
	c1.973,1.666,3.604,4.988,5.708,4.476c-2.122-1.185-2.604-3.599-4.624-5.572c0.132-0.149,0.261-0.303,0.387-0.459
	c2.172,1.351,4.23,4.244,6.317,3.574c-1.786-0.438-3.124-3.104-5.409-4.836c0.104-0.164,0.205-0.328,0.304-0.498
	c2.43,1.041,5.224,3.635,6.798,2.56c-1.521-0.066-3.619-2.56-6.109-3.914c0.08-0.185,0.158-0.367,0.229-0.556
	c2.665,0.617,5.483,2.707,7.143,1.437c-2.06-0.107-4.13-1.978-6.635-3.017c0.042-0.163,0.079-0.329,0.112-0.495
	c2.634,0.379,5.888,1.762,7.264,0.229c-2.582,0.117-4.529-1.313-7.017-1.822c0.021-0.197,0.034-0.395,0.045-0.594
	C88.322,36.074,91.958,37.236,92.7,35.52z M71.717,47.574c-6.619,0-11.986-5.366-11.986-11.985c0-6.62,5.366-11.985,11.985-11.985
	c6.621-0.002,11.986,5.364,11.986,11.985C83.702,42.209,78.337,47.574,71.717,47.574z M64.143,42.537
	c-1.668-1.829-2.694-4.254-2.694-6.924c0-1.37,0.273-2.674,0.759-3.87c2.508-0.011,4.338,0.219,6.442,1.158
	C66.117,35.145,63.952,38.815,64.143,42.537z M63.983,28.864c1.887-2.167,4.659-3.544,7.758-3.544c3.126,0,5.921,1.399,7.809,3.599
	c-2.791-0.142-5.514,0.568-7.835,2.018C69.644,29.279,66.626,28.888,63.983,28.864z M78.237,43.593
	c-0.348,0.282-0.718,0.536-1.101,0.772c0.269-4.174-1.164-7.288-3.54-10.715C76.433,35.825,78.443,39.839,78.237,43.593z
	 M75.793,45.073c-0.274,0.118-0.557,0.221-0.844,0.314c0.818-4.289-0.774-8.444-2.374-10.797
	C75.296,37.107,76.243,41.326,75.793,45.073z M66.463,44.436c-0.376-0.226-0.738-0.471-1.082-0.742
	c-0.241-4.359,1.901-8.358,4.534-10.014C67.619,36.327,66.021,40.833,66.463,44.436z M68.774,45.466
	c-0.344-0.104-0.681-0.222-1.008-0.359c-0.395-4.788,1.387-9.395,3.278-10.487C69.219,36.978,68.156,41.417,68.774,45.466z
	 M73.457,45.75c-0.559,0.094-1.13,0.154-1.716,0.154c-0.532,0-1.051-0.053-1.562-0.131c-0.865-3.703-0.227-7.607,1.59-10.213
	C73.576,38.11,74.306,42.244,73.457,45.75z M81.264,31.716c0.492,1.203,0.769,2.517,0.769,3.896c0,2.587-0.962,4.946-2.539,6.754
	c-0.045-3.834-1.664-7.011-4.797-9.494C77.115,31.896,79.177,31.565,81.264,31.716z"/>
</svg>
