<svg xmlns="http://www.w3.org/2000/svg" width="211" height="291" id="svgcontent" overflow="hidden" x="0" y="0" viewBox="0 0 211 291"><g style="pointer-events:all" mask=""><title style="pointer-events:inherit">Layer 1</title><g id="svg_1" type="text" text="LIKE NO ONE@##@#@EVER WAS" font-size="30.3045" font-family="ElliotSix" fill="0" stroke="0" stroke-width="0" text-anchor="middle" font-weight="normal" font-style="normal" lineHeight="1" shapeId="0" shapeVal="0" display="null" style="pointer-events:inherit"><path d="M12.81348969329834,245.47154366210938 C13.15020969329834,248.08109366210937 15.423039693298339,245.21900366210937 17.44333969329834,245.72408366210936 C17.44333969329834,245.72408366210936 20.30542969329834,244.7981136621094 20.30542969329834,244.7981136621094 C20.89467969329834,245.05065366210937 21.90482969329834,245.38736366210938 22.157369693298342,245.97662366210938 C21.39975969329834,249.42797366210937 16.01228969329834,246.81841366210938 12.98183969329834,248.83871366210937 C11.46661969329834,249.84886366210938 9.446309693298339,248.5861736621094 10.37228969329834,246.90259366210938 C9.44631969329834,237.55870366210937 10.70900969329834,227.87810366210937 11.12989969329834,219.03929366210937 C11.21407969329834,217.43989366210937 13.57109969329834,218.19750366210937 13.48691969329834,219.46019366210936 C13.48691969329834,219.46019366210936 12.64512969329834,244.0405136621094 12.64512969329834,244.0405136621094 C12.64512969329834,244.54558366210938 12.72930969329834,245.05066366210937 12.81348969329834,245.47156366210936 C12.81348969329834,245.47156366210936 12.81348969329834,245.47156366210936 12.81348969329834,245.47156366210936 M23.33588969329834,222.40647366210936 C24.51439969329834,219.46020366210936 30.74365969329834,222.99572366210938 33.85828969329834,220.63871366210938 C36.63619969329834,219.96528366210939 38.90903969329834,223.50080366210938 35.54186969329834,223.92170366210937 C33.77410969329834,224.17424366210938 32.511419693298336,223.24827366210937 30.49111969329834,223.66916366210938 C30.07021969329834,226.78379366210936 29.90186969329834,230.31931366210938 29.22842969329834,233.09723366210937 C28.30245969329834,236.88529366210938 29.81767969329834,239.99992366210938 29.56514969329834,243.78798366210938 C31.33290969329834,245.72410366210937 35.20515969329834,243.45126366210937 37.64634969329834,243.45126366210937 C38.824859693298336,243.45126366210937 39.32992969329834,246.56589366210937 37.81470969329834,246.56589366210937 C36.72037969329834,247.32350366210937 34.78425969329834,246.31335366210936 33.77410969329834,247.07096366210936 C31.16455969329834,246.22917366210936 29.98604969329834,248.08111366210937 27.88156969329834,247.99693366210937 C26.95559969329834,246.98678366210936 23.92514969329834,248.50200366210936 23.92514969329834,246.56588366210937 C23.92514969329834,244.88230366210936 25.44037969329834,244.7981236621094 27.03977969329834,244.88230366210936 C28.13410969329834,242.02021366210937 26.02962969329834,237.3061836621094 26.45052969329834,233.01304366210937 C26.11380969329834,230.15095366210937 27.54485969329834,227.96229366210937 26.95559969329834,224.42677366210938 C27.88156969329834,221.98557366210937 23.42007969329834,224.84767366210937 23.335899693298337,222.40647366210936 C23.335899693298337,222.40647366210936 23.335899693298337,222.40647366210936 23.335899693298337,222.40647366210936 M41.85530969329834,250.01724366210937 C41.93948969329834,240.25245366210936 41.26605969329834,229.47752366210938 42.52874969329834,220.38617366210937 C42.36038969329834,219.62856366210937 43.03381969329834,219.20766366210938 43.53889969329834,219.12348366210938 C46.56934969329834,220.38617366210937 43.37053969329834,225.3527436621094 44.46486969329834,229.56170366210938 C45.72755969329834,225.18438366210938 48.84218969329834,221.98557366210937 50.44158969329834,218.28169366210938 C53.13531969329834,216.26139366210938 55.07143969329834,219.71274366210938 52.46188969329834,220.8912436621094 C49.59979969329834,224.09005366210937 47.66367969329834,228.21483366210938 45.98008969329834,232.67632366210938 C47.24277969329834,236.21184366210937 50.77829969329834,237.13782366210938 52.04098969329834,240.58916366210937 C52.79859969329834,242.52528366210936 54.65053969329834,243.2828936621094 55.07143969329834,245.5557336621094 C55.66069969329834,246.65006366210937 57.51263969329834,248.58618366210936 55.23979969329834,249.34379366210936 C54.22964969329834,249.76468366210938 52.79860969329834,249.93304366210938 52.63024969329834,248.67036366210937 C50.77830969329834,244.12468366210936 48.50546969329834,240.25244366210939 45.55919969329834,236.80110366210937 C45.05412969329834,236.12767366210937 44.54904969329834,236.29602366210938 44.80158969329834,237.05364366210938 C44.54904969329834,241.26260366210937 44.21232969329834,246.22917366210936 45.13830969329834,249.68051366210938 C45.22248969329834,250.85902366210937 41.939499693298345,251.5324536621094 41.85531969329834,250.0172336621094 C41.85531969329834,250.0172336621094 41.85531969329834,250.0172336621094 41.85531969329834,250.0172336621094 M64.24697969329834,242.35692366210938 C67.86668969329834,242.18856366210937 71.40220969329835,241.34677366210937 74.34847969329834,240.75751366210937 C75.19026969329833,240.84169366210938 76.28459969329835,241.34676366210937 75.86370969329835,242.52527366210938 C72.83324969329834,245.63990366210936 66.09891969329834,243.28288366210938 62.73175969329834,245.47154366210938 C60.54309969329834,245.89243366210937 59.70130969329834,243.70378366210937 60.54309969329834,242.10437366210937 C59.19622969329834,237.05362366210937 59.19622969329834,230.65600366210938 59.19622969329834,224.93182366210937 C59.19622969329834,221.48047366210938 63.152649693298336,225.01600366210937 65.84637969329833,223.75331366210938 C68.70846969329834,224.59510366210938 72.66488969329833,222.06973366210937 73.25414969329833,225.18436366210938 C72.32817969329834,227.62556366210939 68.87682969329833,225.4369036621094 65.76219969329834,226.02615366210938 C64.83622969329835,225.77361366210937 61.38487969329834,225.10018366210937 61.55323969329834,226.86794366210938 C61.63741969329834,229.30914366210936 61.04816969329834,232.67630366210938 64.41532969329833,231.58197366210936 C67.02487969329835,231.83451366210937 69.46607969329834,231.16107366210937 71.57055969329835,231.4977936621094 C73.16995969329834,232.67630366210938 71.57055969329835,234.35988366210938 69.71861969329834,234.19152366210938 C67.27742969329833,234.02316366210937 64.58368969329834,233.60227366210938 62.14249969329834,234.10734366210937 C62.90010969329834,236.8010736621094 62.64756969329834,240.4207836621094 64.24697969329834,242.35690366210937 C64.24697969329834,242.35690366210937 64.24697969329834,242.35690366210937 64.24697969329834,242.35690366210937 M98.50790969329834,244.71392366210938 C98.50790969329834,246.73422366210937 99.85476969329834,249.42795366210936 96.57177969329834,249.25960366210938 C95.39327969329834,248.08109366210937 96.74013969329835,245.5557236621094 95.98252969329835,243.87213366210938 C95.98252969329835,243.87213366210938 94.46729969329834,224.84764366210936 94.46729969329834,224.84764366210936 C94.88819969329835,222.5748036621094 93.87803969329833,219.88107366210937 97.32938969329834,220.3019636621094 C97.91864969329833,220.38614366210936 98.08699969329834,221.0595736621094 98.08699969329834,221.73301366210939 C98.76042969329833,224.25838366210937 99.51804969329834,226.78376366210938 100.27565969329834,229.39331366210936 C101.36998969329834,233.18137366210937 102.46431969329834,237.30615366210938 104.14789969329834,240.67332366210937 C105.24222969329834,237.22197366210938 105.24222969329834,230.48764366210938 104.23207969329835,226.86794366210938 C104.23207969329835,225.43689366210938 105.91565969329834,225.10018366210937 107.09416969329834,225.60525366210936 C108.77774969329835,227.45719366210938 107.51505969329834,231.4977936621094 107.51505969329834,235.03332366210938 C107.51505969329834,238.06377366210938 106.84162969329834,241.09422366210939 105.91565969329834,243.70378366210937 C106.92580969329833,245.21900366210937 106.16819969329833,246.73423366210938 104.48460969329834,246.98677366210939 C102.54848969329834,247.23931366210937 103.13774969329835,245.21901366210938 102.29594969329834,244.12468366210936 C102.29594969329834,244.12468366210936 97.83445969329834,231.49781366210937 97.83445969329834,231.49781366210937 C97.49773969329834,235.70677366210938 98.50789969329834,240.42080366210936 98.50789969329834,244.7139436621094 C98.50789969329834,244.7139436621094 98.50789969329834,244.7139436621094 98.50789969329834,244.7139436621094 M117.02731969329834,241.76767366210936 C109.36700969329834,241.76767366210936 108.27267969329834,230.15095366210937 113.15506969329834,226.69960366210938 C116.01715969329834,225.60527366210937 119.38432969329834,226.8679636621094 120.73119969329834,228.71990366210937 C124.68761969329834,231.91871366210938 123.84582969329834,241.76767366210936 117.02731969329834,241.76767366210936 C117.02731969329834,241.76767366210936 117.02731969329834,241.76767366210936 117.02731969329834,241.76767366210936 M115.17537969329834,228.29900366210939 C112.73417969329834,229.22497366210936 115.51209969329834,233.68647366210936 112.64999969329834,234.10736366210938 C112.39745969329834,237.97960366210938 117.53238969329834,242.44110366210938 119.88940969329833,238.0637836621094 C121.99388969329834,234.10736366210938 119.63686969329834,228.13064366210938 115.17536969329834,228.29900366210939 C115.17536969329834,228.29900366210939 115.17536969329834,228.29900366210939 115.17536969329834,228.29900366210939 M149.01538969329835,241.76767366210936 C141.35509969329834,241.76767366210936 140.26076969329833,230.15095366210937 145.14314969329834,226.69960366210938 C148.00523969329834,225.60527366210937 151.37240969329835,226.8679636621094 152.71927969329835,228.71990366210937 C156.67569969329833,231.91871366210938 155.83389969329835,241.76767366210936 149.01538969329835,241.76767366210936 C149.01538969329835,241.76767366210936 149.01538969329835,241.76767366210936 149.01538969329835,241.76767366210936 M147.16344969329833,228.29900366210939 C144.72225969329833,229.22497366210936 147.50017969329835,233.68647366210936 144.63806969329835,234.10736366210938 C144.38553969329834,237.97960366210938 149.52046969329834,242.44110366210938 151.87747969329834,238.0637836621094 C153.98195969329834,234.10736366210938 151.62494969329833,228.13064366210938 147.16343969329833,228.29900366210939 C147.16343969329833,228.29900366210939 147.16343969329833,228.29900366210939 147.16343969329833,228.29900366210939 M162.23151969329834,244.7139436621094 C162.23151969329834,246.73424366210938 163.57837969329833,249.42797366210937 160.29538969329835,249.2596236621094 C159.11687969329833,248.08111366210937 160.46373969329835,245.55574366210936 159.70613969329835,243.87215366210938 C159.70613969329835,243.87215366210938 158.19090969329835,224.84766366210937 158.19090969329835,224.84766366210937 C158.61180969329834,222.57482366210937 157.60164969329833,219.88109366210938 161.05299969329835,220.30198366210936 C161.64224969329834,220.38616366210937 161.81060969329835,221.05959366210936 161.81060969329835,221.73303366210936 C162.48403969329834,224.25840366210937 163.24165969329835,226.78378366210939 163.99926969329834,229.39333366210937 C165.09359969329833,233.18139366210937 166.18792969329834,237.3061736621094 167.87150969329835,240.67334366210937 C168.96583969329834,237.22199366210938 168.96583969329834,230.48766366210938 167.95568969329835,226.8679636621094 C167.95568969329835,225.43691366210936 169.63926969329833,225.10020366210938 170.81777969329835,225.60527366210937 C172.50135969329833,227.45721366210938 171.23865969329833,231.49781366210937 171.23865969329833,235.03334366210936 C171.23865969329833,238.0637936621094 170.56522969329833,241.09424366210936 169.63925969329833,243.70380366210938 C170.64940969329834,245.21902366210938 169.89178969329834,246.73425366210938 168.20820969329833,246.98679366210936 C166.27207969329834,247.23933366210937 166.86134969329834,245.21903366210938 166.01954969329833,244.12470366210937 C166.01954969329833,244.12470366210937 161.55804969329833,231.49783366210937 161.55804969329833,231.49783366210937 C161.22132969329834,235.70679366210936 162.23149969329833,240.42082366210937 162.23149969329833,244.71396366210936 C162.23149969329833,244.71396366210936 162.23149969329833,244.71396366210936 162.23149969329833,244.71396366210936 M179.40404969329833,242.3569436621094 C183.02375969329833,242.18858366210938 186.55927969329835,241.34679366210938 189.50554969329835,240.75753366210938 C190.34732969329835,240.84171366210938 191.44165969329833,241.34678366210937 191.02075969329834,242.5252936621094 C187.99031969329835,245.63992366210937 181.25598969329835,243.2829036621094 177.88881969329833,245.47156366210936 C175.70015969329833,245.89245366210938 174.85835969329835,243.70380366210938 175.70015969329833,242.10439366210937 C174.35329969329834,237.05364366210938 174.35329969329834,230.65602366210936 174.35329969329834,224.93184366210937 C174.35329969329834,221.48049366210938 178.30971969329835,225.01602366210938 181.00344969329834,223.75333366210938 C183.86553969329833,224.5951236621094 187.82195969329834,222.06975366210938 188.41122969329834,225.18438366210938 C187.48524969329833,227.62558366210936 184.03390969329834,225.43692366210936 180.91928969329834,226.0261736621094 C179.99330969329833,225.77363366210938 176.54196969329834,225.10020366210938 176.71031969329835,226.8679636621094 C176.79449969329835,229.30916366210937 176.20524969329833,232.67632366210938 179.57240969329834,231.58199366210937 C182.18196969329833,231.83453366210938 184.62315969329833,231.16109366210938 186.72763969329833,231.49781366210937 C188.32704969329833,232.67632366210938 186.72763969329833,234.3599036621094 184.87570969329835,234.19154366210938 C182.43449969329833,234.02318366210937 179.74077969329835,233.6022936621094 177.29957969329834,234.10736366210938 C178.05718969329834,236.80109366210937 177.80464969329833,240.42080366210936 179.40405969329834,242.35692366210938 C179.40405969329834,242.35692366210938 179.40405969329834,242.35692366210938 179.40405969329834,242.35692366210938 " stroke-width="0" stroke="#0" fill="#0" id="svg_6" style="pointer-events:inherit"/><path d="M25.90529907836914,280.27990255371094 C29.52499907836914,280.11154255371093 33.06052907836914,279.26975255371093 36.00679907836914,278.68049255371096 C36.848589078369145,278.76467255371097 37.942919078369144,279.26974255371096 37.52201907836914,280.4482525537109 C34.49156907836914,283.56288255371095 27.75723907836914,281.2058625537109 24.39006907836914,283.39452255371094 C22.201409078369142,283.8154125537109 21.35961907836914,281.62676255371093 22.201409078369142,280.02735255371095 C20.85453907836914,274.97660255371096 20.85453907836914,268.57898255371094 20.85453907836914,262.85480255371095 C20.85453907836914,259.40345255371096 24.81095907836914,262.93898255371096 27.50468907836914,261.67629255371094 C30.36677907836914,262.51808255371094 34.32319907836914,259.99271255371093 34.91245907836914,263.10734255371096 C33.98648907836914,265.54854255371094 30.53513907836914,263.3598825537109 27.42050907836914,263.9491325537109 C26.49453907836914,263.69659255371096 23.04318907836914,263.02316255371096 23.211549078369142,264.7909225537109 C23.295729078369142,267.23212255371095 22.706479078369142,270.59928255371096 26.07363907836914,269.50495255371095 C28.68318907836914,269.75749255371096 31.12438907836914,269.08405255371093 33.228869078369144,269.42077255371095 C34.82826907836914,270.59928255371096 33.228869078369144,272.2828625537109 31.37692907836914,272.11450255371096 C28.935729078369143,271.94614255371096 26.24199907836914,271.5252525537109 23.800799078369142,272.03032255371096 C24.55840907836914,274.7240525537109 24.305869078369142,278.3437625537109 25.90527907836914,280.27988255371093 C25.90527907836914,280.27988255371093 25.90527907836914,280.27988255371093 25.90527907836914,280.27988255371093 M48.63365907836914,281.71093255371096 C48.71783907836914,283.4786925537109 45.43484907836914,284.3204825537109 45.01394907836914,282.21600255371095 C43.66707907836914,275.90256255371094 41.31006907836914,270.09420255371094 39.03722907836914,264.53838255371096 C39.28976907836914,262.68644255371095 42.572759078369145,263.27569255371094 42.40439907836914,264.95927255371095 C44.003809078369144,268.49480255371094 45.01394907836914,272.5354025537109 46.444999078369136,276.23928255371095 C47.37096907836914,273.1246525537109 47.79186907836914,269.50495255371095 49.22290907836914,266.81121255371096 C50.31723907836914,264.70673255371094 50.064699078369145,261.0870325537109 53.09514907836914,261.0028525537109 C54.35783907836914,260.91867255371096 55.28380907836914,261.67628255371096 54.69454907836914,262.8547925537109 C51.15901907836914,267.3162925537109 49.64379907836914,273.54554255371096 48.46528907836914,280.1115225537109 C48.46528907836914,280.1115225537109 48.633649078369146,281.71093255371096 48.633649078369146,281.71093255371096 M62.69156907836914,280.27988255371093 C66.31127907836914,280.1115225537109 69.84679907836914,279.2697325537109 72.79306907836914,278.68047255371096 C73.63485907836915,278.76465255371096 74.72918907836913,279.26972255371095 74.30828907836914,280.4482325537109 C71.27783907836914,283.56286255371094 64.54349907836914,281.2058425537109 61.17633907836914,283.39450255371094 C58.98767907836914,283.8153925537109 58.14588907836914,281.6267425537109 58.98767907836914,280.02733255371095 C57.64080907836914,274.97658255371095 57.64080907836914,268.57896255371094 57.64080907836914,262.85478255371095 C57.64080907836914,259.40343255371096 61.59722907836914,262.93896255371095 64.29095907836914,261.67627255371093 C67.15304907836915,262.51806255371093 71.10946907836913,259.9926925537109 71.69872907836914,263.10732255371096 C70.77275907836915,265.54852255371094 67.32140907836914,263.3598625537109 64.20677907836914,263.94911255371096 C63.28080907836914,263.69657255371095 59.82945907836914,263.02314255371095 59.99781907836914,264.79090255371096 C60.081999078369144,267.23210255371094 59.492749078369144,270.59926255371096 62.85990907836914,269.50493255371094 C65.46945907836914,269.75747255371095 67.91065907836915,269.0840325537109 70.01513907836915,269.42075255371094 C71.61453907836915,270.59926255371096 70.01513907836915,272.28284255371096 68.16319907836913,272.11448255371096 C65.72199907836914,271.94612255371095 63.02826907836914,271.52523255371096 60.58706907836914,272.03030255371095 C61.34467907836914,274.7240325537109 61.09214907836914,278.34374255371097 62.69154907836914,280.2798625537109 C62.69154907836914,280.2798625537109 62.69154907836914,280.2798625537109 62.69154907836914,280.2798625537109 M78.26469907836915,261.84462255371096 C77.59125907836915,260.75029255371095 78.60141907836913,259.82432255371094 79.10648907836915,258.98253255371094 C80.11663907836913,258.72999255371093 80.62171907836914,259.40343255371096 81.37932907836914,259.65596255371094 C83.48380907836915,258.81417255371093 87.44022907836914,258.89835255371094 86.43007907836915,262.34969255371095 C86.51425907836914,265.46432255371093 84.32559907836914,266.47447255371094 82.72619907836915,267.90552255371097 C86.68261907836914,270.5992525537109 90.55486907836914,273.04045255371096 92.99605907836914,277.24941255371095 C94.42710907836914,278.25956255371096 97.03665907836914,281.29001255371094 93.92202907836914,282.30016255371095 C89.96560907836914,281.12165255371093 89.29217907836914,275.39747255371094 85.92500907836914,273.3771725537109 C83.90470907836914,272.19866255371096 82.64201907836915,270.01000255371093 79.69574907836915,269.67329255371095 C78.76977907836914,272.7037425537109 80.45335907836915,277.24942255371093 79.69574907836915,281.37419255371094 C79.86410907836914,283.31031255371096 80.45335907836915,285.75151255371094 78.09634907836914,285.66733255371093 C76.49693907836914,285.07807255371097 77.59126907836914,282.21598255371094 77.42290907836914,280.1115025537109 C77.08618907836913,273.88224255371097 76.41275907836913,266.81119255371095 78.26469907836915,261.84462255371096 C78.26469907836915,261.84462255371096 78.26469907836915,261.84462255371096 78.26469907836915,261.84462255371096 M82.97873907836913,261.17119255371097 C80.03246907836913,261.08701255371096 79.94828907836914,263.7807425537109 79.61156907836914,266.30612255371096 C81.71604907836914,267.4846325537109 84.15723907836914,264.87507255371094 84.15723907836914,262.1813425537109 C84.24141907836915,261.2553725537109 83.73633907836914,261.2553725537109 82.97873907836913,261.17119255371097 C82.97873907836913,261.17119255371097 82.97873907836913,261.17119255371097 82.97873907836913,261.17119255371097 M124.56323907836914,273.04045255371096 C124.64741907836914,276.15508255371094 124.56323907836914,280.61658255371094 124.56323907836914,283.81538255371095 C124.56323907836914,285.3306125537109 121.95368907836914,286.6774725537109 121.19607907836914,285.07807255371097 C117.99726907836914,277.75448255371094 116.14532907836914,268.9998525537109 112.94651907836914,261.59208255371095 C112.86233907836915,260.2452125537109 114.54591907836914,260.1610325537109 115.47189907836913,260.75029255371095 C118.41816907836915,266.64283255371095 119.76503907836914,274.1347825537109 122.37458907836914,280.44822255371093 C121.53278907836913,272.7037425537109 123.72144907836915,266.89537255371096 124.64741907836914,260.24522255371096 C124.22651907836914,258.30910255371094 127.34114907836914,257.1305925537109 127.93040907836914,258.89835255371094 C128.18293907836915,265.63268255371094 130.20323907836914,271.18851255371095 131.71846907836914,276.66015255371093 C132.13935907836913,271.1043225537109 133.57040907836915,265.3801425537109 135.25398907836916,260.83447255371095 C135.67488907836912,259.74014255371094 138.45279907836914,259.48760255371093 138.45279907836914,261.08701255371096 C138.45279907836914,262.7705925537109 136.68503907836913,263.35985255371094 136.76920907836916,265.21179255371095 C134.66472907836913,270.09418255371094 133.31786907836914,278.4279225537109 135.16980907836916,284.6571825537109 C135.00144907836915,285.83569255371094 133.06532907836913,287.51927255371095 132.22353907836913,286.1724025537109 C132.22353907836913,286.1724025537109 126.07845907836914,266.89537255371096 126.07845907836914,266.89537255371096 C125.32084907836914,268.66313255371097 125.48919907836914,271.27269255371095 124.56322907836915,273.04045255371096 C124.56322907836915,273.04045255371096 124.56322907836915,273.04045255371096 124.56322907836915,273.04045255371096 M156.63549907836915,272.19866255371096 C157.05639907836914,273.88224255371097 158.90833907836915,274.72404255371094 159.41340907836914,276.32344255371095 C160.76026907836913,277.83866255371095 158.82415907836915,279.3538925537109 157.05639907836914,278.5121025537109 C155.28863907836913,277.6703125537109 155.45698907836913,272.7037425537109 153.09997907836913,273.62971255371093 C150.06951907836915,274.80822255371095 146.78653907836915,276.23926255371094 144.59787907836915,278.4279225537109 C143.50354907836913,279.5222525537109 143.75608907836914,282.8052425537109 141.48324907836914,282.46852255371095 C138.95786907836913,281.37419255371094 143.08264907836914,279.3538925537109 142.32504907836915,277.16523255371095 C144.09280907836916,273.2929925537109 146.61818907836914,270.01000255371093 147.96504907836913,265.71686255371094 C148.97519907836914,264.5383525537109 149.39609907836913,260.41357255371094 152.34236907836913,262.68641255371097 C153.18416907836914,265.04343255371094 153.85759907836913,268.41059255371096 155.62535907836914,270.2625325537109 C157.47729907836913,269.84163255371095 158.73997907836915,268.57895255371096 160.59192907836913,268.24223255371095 C161.34953907836913,268.07387255371094 162.44386907836915,268.91566255371094 162.27550907836914,269.6732825537109 C161.85460907836915,272.28283255371093 157.98236907836915,270.5150725537109 156.63550907836915,272.19865255371093 C156.63550907836915,272.19865255371093 156.63550907836915,272.19865255371093 156.63550907836915,272.19865255371093 M150.06952907836913,266.0535725537109 C149.14356907836915,268.99984255371095 147.62833907836915,271.44104255371093 146.70236907836914,274.38731255371096 C148.97519907836914,273.71388255371096 151.07967907836914,272.53537255371094 152.76327907836915,271.2726825537109 C152.76327907836915,271.2726825537109 150.32208907836915,265.9693925537109 150.32208907836915,265.9693925537109 C150.23790907836914,265.9693925537109 150.06953907836913,265.9693925537109 150.06953907836913,266.0535725537109 C150.06953907836913,266.0535725537109 150.06953907836913,266.0535725537109 150.06953907836913,266.0535725537109 M170.77761907836913,280.27985255371095 C174.39732907836915,280.95328255371095 179.70060907836915,276.07089255371096 174.73403907836914,274.63984255371093 C171.28268907836915,272.8720825537109 166.31611907836913,269.50491255371094 168.58895907836913,264.62252255371095 C169.51491907836913,262.68640255371093 172.12447907836915,262.0971425537109 174.56567907836913,261.5920725537109 C176.33343907836914,261.17117255371096 178.35374907836913,263.61237255371094 176.24925907836914,263.78073255371095 C172.88209907836915,264.11745255371096 169.51492907836914,266.7270025537109 172.29283907836913,269.92581255371095 C174.14477907836914,271.2726825537109 175.99672907836913,273.04044255371093 178.52209907836914,273.29298255371094 C179.36389907836914,273.46134255371095 179.70060907836915,273.96641255371094 180.45822907836913,274.30313255371095 C180.45822907836913,281.96344255371093 172.29283907836913,283.0577625537109 164.46417907836914,282.88941255371094 C163.45402907836913,282.80523255371094 162.52806907836913,282.63687255371093 162.61223907836913,281.37418255371097 C163.87493907836915,279.43806255371095 168.08388907836914,281.20582255371096 170.77762907836913,280.27985255371095 C170.77762907836913,280.27985255371095 170.77762907836913,280.27985255371095 170.77762907836913,280.27985255371095 " stroke-width="0" stroke="#0" fill="#0" id="svg_7" style="pointer-events:inherit"/></g><g type="text" text="Pokemon@##@#@taught me@##@#@to be@##@#@best" font-size="30.3045" font-family="ElliotSix" fill="0" stroke="0" stroke-width="0" text-anchor="middle" font-weight="normal" font-style="normal" lineHeight="1" shapeId="0" shapeVal="0" display="null" id="svg_31" style="pointer-events:inherit"><path d="M41.25408901733398,60.13380821166992 C42.93766901733399,59.29201821166992 44.36871901733399,60.72305821166992 45.79975901733398,60.38634821166992 C49.84035901733398,60.55470821166992 53.20752901733398,61.73321821166992 53.20752901733398,66.02634821166993 C53.20752901733398,68.97261821166992 51.86065901733399,71.83470821166992 49.503649017333984,72.67650821166993 C48.15677901733399,74.10755821166993 45.12632901733399,73.51829821166993 42.937679017333984,73.85501821166991 C43.35857901733399,78.06397821166992 43.19021901733399,83.03054821166992 44.11618901733399,86.73442821166992 C44.03200901733398,87.66039821166993 43.02185901733398,87.91293821166992 42.09588901733399,87.99711821166991 C39.991409017333986,87.23950821166991 40.917379017333985,83.11472821166993 40.83319901733398,80.08427821166993 C40.83319901733398,80.08427821166993 40.412299017333986,67.28904821166992 40.412299017333986,67.28904821166992 C40.412299017333986,64.67948821166992 41.169909017333985,62.743368211669925 41.25408901733398,60.13381821166992 C41.25408901733398,60.13381821166992 41.25408901733398,60.13381821166992 41.25408901733398,60.13381821166992 M43.190209017333984,62.911728211669924 C42.76930901733398,65.01620821166992 42.600959017333984,68.38337821166992 42.853489017333985,70.82456821166993 C44.20035901733399,71.07710821166992 45.29468901733399,71.91889821166993 46.809909017333986,71.75053821166992 C49.50363901733398,71.41381821166992 50.261259017333984,69.14098821166992 50.513789017333984,65.94217821166993 C50.850509017333984,61.817398211669925 46.05228901733398,61.56485821166992 43.19019901733398,62.911728211669924 C43.19019901733398,62.911728211669924 43.19019901733398,62.911728211669924 43.19019901733398,62.911728211669924 M61.79379901733398,81.76785821166992 C54.133489017333986,81.76785821166992 53.03916901733398,70.15113821166992 57.92155901733398,66.69978821166993 C60.783649017333985,65.60545821166993 64.15081901733399,66.86814821166992 65.49767901733398,68.72008821166992 C69.45409901733399,71.91889821166993 68.61230901733398,81.76785821166992 61.79379901733398,81.76785821166992 C61.79379901733398,81.76785821166992 61.79379901733398,81.76785821166992 61.79379901733398,81.76785821166992 M59.94185901733398,68.29918821166993 C57.50065901733399,69.22515821166992 60.27857901733398,73.68665821166992 57.416479017333984,74.10754821166992 C57.16393901733399,77.97978821166993 62.298869017333985,82.44128821166993 64.65588901733398,78.06396821166993 C66.76036901733399,74.10754821166992 64.40334901733398,68.13082821166992 59.94185901733398,68.29918821166993 C59.94185901733398,68.29918821166993 59.94185901733398,68.29918821166993 59.94185901733398,68.29918821166993 M71.39022901733398,90.01741821166992 C71.47440901733398,80.25262821166993 70.80097901733399,69.47769821166992 72.06366901733398,60.38634821166992 C71.89530901733399,59.62873821166992 72.56873901733398,59.20783821166992 73.07381901733399,59.12365821166992 C76.10426901733399,60.38634821166992 72.90545901733398,65.35291821166992 73.99978901733398,69.56187821166992 C75.26247901733399,65.18455821166992 78.37710901733399,61.98574821166992 79.97650901733398,58.281868211669924 C82.67023901733398,56.261568211669925 84.60635901733399,59.71291821166992 81.99680901733399,60.89141821166992 C79.13471901733399,64.09022821166992 77.19859901733398,68.21500821166993 75.515009017334,72.67649821166992 C76.77769901733399,76.21201821166991 80.31321901733398,77.13799821166992 81.57590901733398,80.58933821166993 C82.33351901733398,82.52545821166993 84.18545901733398,83.28306821166993 84.60635901733399,85.55590821166993 C85.195609017334,86.65023821166992 87.04755901733398,88.58635821166992 84.77471901733398,89.34396821166992 C83.76456901733398,89.76485821166992 82.33351901733398,89.93321821166992 82.165169017334,88.67053821166992 C80.31322901733398,84.12485821166992 78.04038901733398,80.25261821166993 75.09411901733398,76.80127821166992 C74.58903901733399,76.12784821166991 74.08396901733398,76.29619821166992 74.33650901733398,77.05381821166992 C74.08396901733398,81.26277821166993 73.74725901733399,86.22934821166993 74.673229017334,89.68068821166992 C74.75740901733398,90.85919821166992 71.47441901733399,91.53262821166993 71.39023901733398,90.01740821166993 C71.39023901733398,90.01740821166993 71.39023901733398,90.01740821166993 71.39023901733398,90.01740821166993 M90.24636901733399,63.248428211669925 C92.51920901733399,64.34275821166992 96.05472901733398,63.585148211669924 98.74846901733397,64.00603821166992 C100.26368901733399,63.33260821166992 103.04160901733398,63.16424821166992 103.12577901733398,65.18454821166992 C102.11562901733399,67.62574821166993 98.74846901733397,65.52126821166992 95.63383901733398,66.02633821166992 C94.53950901733398,65.77379821166993 91.25651901733399,65.10036821166992 91.42487901733398,66.86812821166993 C91.67741901733399,69.30932821166992 90.66726901733398,72.67648821166992 94.28696901733399,71.58215821166992 C96.89651901733399,71.83469821166992 99.33771901733398,71.16125821166992 101.44219901733399,71.49797821166992 C102.87324901733399,72.76066821166992 101.44219901733399,74.36006821166993 99.59025901733398,74.19170821166992 C96.89652901733399,74.02334821166993 94.45532901733398,73.60245821166993 92.01413901733397,74.10752821166992 C92.01413901733397,74.10752821166992 93.19264901733399,80.33678821166993 93.19264901733399,80.33678821166993 C92.94010901733398,83.78813821166992 97.40160901733398,81.51529821166991 99.75861901733398,81.76783821166993 C102.03145901733399,81.51529821166991 104.30429901733399,79.83171821166992 105.81952901733399,81.59947821166992 C104.30429901733399,86.31351821166993 96.223099017334,82.94634821166991 92.51921901733398,85.47171821166992 C90.41473901733399,85.89260821166992 89.57294901733398,83.61977821166992 90.33055901733398,82.10454821166992 C89.74130901733398,77.05379821166991 88.56279901733399,71.41379821166993 89.23622901733398,66.19468821166993 C88.89950901733398,65.01617821166992 89.06786901733398,63.41677821166992 90.246379017334,63.24841821166992 C90.246379017334,63.24841821166992 90.246379017334,63.24841821166992 90.246379017334,63.24841821166992 M123.91804901733398,81.93619821166992 C123.66550901733399,84.20903821166992 122.57117901733399,85.38754821166992 122.73953901733398,87.82873821166993 C122.82371901733399,89.25978821166993 120.55088901733399,89.42813821166992 119.70908901733398,88.83888821166992 C117.77296901733398,79.83171821166992 115.33177901733399,70.31946821166991 112.30131901733398,62.32244821166992 C110.61773901733399,69.39349821166992 111.45952901733398,77.22215821166992 111.45952901733398,85.13500821166993 C111.45952901733398,87.49202821166992 113.22728901733399,89.84903821166992 109.77594901733399,89.84903821166992 C107.50310901733398,89.34396821166992 109.43922901733399,86.14515821166992 108.59743901733398,83.78813821166992 C108.59743901733398,83.78813821166992 109.01833901733399,66.86812821166993 109.01833901733399,66.86812821166993 C109.10251901733399,63.500958211669925 110.28102901733398,61.05976821166992 110.53355901733399,57.94513821166992 C111.03862901733399,57.103348211669925 112.80639901733399,57.60841821166992 112.89057901733399,58.618568211669924 C117.77296901733398,64.17439821166992 117.94132901733398,74.44424821166993 121.05595901733399,81.76783821166993 C122.73953901733398,75.95947821166992 124.00222901733399,69.47767821166993 125.01237901733398,62.99588821166992 C124.17057901733398,61.22812821166992 126.02252901733398,59.88125821166992 127.79028901733399,60.80722821166992 C129.30551901733398,62.06991821166992 128.463729017334,64.67946821166993 128.884619017334,67.20484821166993 C128.884619017334,67.20484821166993 132.42014901733398,86.81859821166992 132.42014901733398,86.81859821166992 C132.33596901733398,87.99710821166993 130.98909901733398,88.41799821166993 129.978949017334,88.16546821166992 C128.884619017334,87.49203821166992 129.137159017334,85.30337821166992 128.884619017334,83.70397821166992 C128.884619017334,83.70397821166992 126.52759901733398,70.23530821166992 126.52759901733398,70.23530821166992 C125.34909901733398,73.68665821166992 124.42311901733399,77.89561821166993 123.91804901733398,81.93620821166992 C123.91804901733398,81.93620821166992 123.91804901733398,81.93620821166992 123.91804901733398,81.93620821166992 M141.932389017334,81.76784821166993 C134.27207901733397,81.76784821166993 133.17774901733398,70.15112821166993 138.060139017334,66.69977821166992 C140.922229017334,65.60544821166992 144.28939901733398,66.86813821166993 145.63626901733397,68.72007821166991 C149.59268901733398,71.91888821166992 148.75089901733398,81.76784821166993 141.932389017334,81.76784821166993 C141.932389017334,81.76784821166993 141.932389017334,81.76784821166993 141.932389017334,81.76784821166993 M140.080449017334,68.29917821166993 C137.63925901733398,69.22514821166992 140.417169017334,73.68664821166992 137.55506901733398,74.10753821166992 C137.302529017334,77.97977821166992 142.437459017334,82.44127821166992 144.79447901733397,78.06395821166993 C146.898959017334,74.10753821166992 144.541939017334,68.13081821166992 140.080439017334,68.29917821166993 C140.080439017334,68.29917821166993 140.080439017334,68.29917821166993 140.080439017334,68.29917821166993 M155.148509017334,84.71411821166993 C155.148509017334,86.73441821166992 156.495379017334,89.42814821166992 153.21238901733398,89.25979821166992 C152.033879017334,88.08128821166991 153.38074901733398,85.55591821166992 152.62312901733398,83.87232821166992 C152.62312901733398,83.87232821166992 151.10790901733398,64.84783821166992 151.10790901733398,64.84783821166992 C151.528799017334,62.57499821166992 150.51864901733398,59.88126821166992 153.96999901733398,60.30215821166992 C154.55924901733397,60.38633821166992 154.72760901733398,61.05976821166992 154.72760901733398,61.73320821166992 C155.401049017334,64.25857821166993 156.158659017334,66.78395821166993 156.916269017334,69.39350821166992 C158.010599017334,73.18156821166993 159.10492901733397,77.30634821166993 160.78851901733398,80.67351821166991 C161.88284901733397,77.22216821166992 161.88284901733397,70.48783821166992 160.87269901733399,66.86813821166993 C160.87269901733399,65.43708821166992 162.556289017334,65.10037821166992 163.73478901733398,65.60544821166992 C165.418379017334,67.45738821166992 164.155689017334,71.49798821166992 164.155689017334,75.03351821166993 C164.155689017334,78.06396821166993 163.482259017334,81.09441821166992 162.556289017334,83.70397821166992 C163.566439017334,85.21919821166992 162.80881901733397,86.73442821166992 161.12523901733397,86.98696821166992 C159.18911901733398,87.23950821166991 159.778369017334,85.21920821166992 158.936579017334,84.12487821166992 C158.936579017334,84.12487821166992 154.47508901733397,71.49800821166993 154.47508901733397,71.49800821166993 C154.13836901733399,75.70696821166992 155.14851901733397,80.42099821166993 155.14851901733397,84.71413821166992 C155.14851901733397,84.71413821166992 155.14851901733397,84.71413821166992 155.14851901733397,84.71413821166992 " stroke-width="0" stroke="#0" fill="#0" id="svg_2" style="pointer-events:inherit"/><path d="M13.996880425720216,108.9993966430664 C14.333600425720215,106.8107366430664 17.027330425720216,107.31581664306641 19.131810425720214,107.5683466430664 C19.805240425720214,106.89491664306641 19.552710425720214,104.6220766430664 19.047630425720214,103.52774664306641 C19.384350425720214,101.5916266430664 23.088230425720212,101.67580664306641 22.498980425720212,104.1169966430664 C21.657190425720216,107.4841666430664 24.098380425720215,107.9892366430664 26.623760425720214,107.2316266430664 C27.633910425720217,107.31580664306641 29.317490425720216,107.5683466430664 29.485850425720216,108.91520664306641 C29.149130425720216,110.9355066430664 26.118680425720214,110.9355066430664 24.856000425720215,110.26207664306641 C24.266750425720215,110.59879664306641 22.751520425720216,109.58864664306641 23.004060425720215,110.8513266430664 C23.004060425720215,110.8513266430664 24.856000425720215,120.7002866430664 24.856000425720215,120.7002866430664 C25.024360425720214,121.96297664306641 21.573010425720213,123.3098366430664 21.236300425720216,121.3737166430664 C20.562870425720213,117.58565664306641 20.310330425720217,113.6292366430664 19.552720425720217,109.9253466430664 C17.364060425720215,109.33609664306641 14.501970425720215,110.6829566430664 13.996890425720215,108.99937664306641 C13.996890425720215,108.99937664306641 13.996890425720215,108.99937664306641 13.996890425720215,108.99937664306641 M52.55095042572022,109.67280664306641 C51.96170042572022,112.28235664306641 48.257810425720216,110.43041664306641 46.910950425720216,112.1981766430664 C47.41602042572021,114.3868366430664 50.44648042572022,115.39698664306641 50.10976042572022,117.83818664306641 C49.01543042572021,119.3534066430664 46.321700425720216,118.7641566430664 46.23752042572021,116.91221664306642 C45.39573042572022,115.9020666430664 44.89065042572021,112.8716166430664 43.37543042572021,113.6292266430664 C40.42916042572021,115.0602766430664 37.146170425720214,116.40713664306641 34.789150425720216,118.42743664306641 C33.94736042572022,119.77430664306641 33.94736042572022,122.80475664306641 31.758700425720214,122.4680366430664 C29.233330425720215,121.37370664306641 33.52646042572022,119.2692266430664 32.516310425720214,117.16474664306641 C34.36825042572022,113.2925066430664 36.89363042572022,110.17787664306641 38.15632042572021,105.71637664306641 C39.41901042572022,104.62204664306641 39.33483042572021,100.4130866430664 42.61782042572021,102.68592664306641 C43.54379042572022,105.1271266430664 44.04887042572021,108.5784666430664 45.900810425720216,110.26204664306641 C47.668580425720215,109.84114664306641 49.015440425720215,108.74682664306641 50.78320042572022,108.2417466430664 C51.62499042572021,108.2417466430664 52.55096042572021,108.9151766430664 52.55096042572021,109.6727966430664 C52.55096042572021,109.6727966430664 52.55096042572021,109.6727966430664 52.55096042572021,109.6727966430664 M43.03871042572021,111.27219664306641 C43.03871042572021,111.27219664306641 40.59752042572022,105.9689066430664 40.59752042572022,105.9689066430664 C39.16647042572021,107.9050266430664 38.74558042572021,110.93547664306641 37.39871042572021,113.0399566430664 C37.146170425720214,113.4608566430664 36.977810425720214,113.8817466430664 36.977810425720214,114.3868266430664 C39.25065042572021,113.7133966430664 41.35513042572022,112.53488664306641 43.03871042572021,111.27219664306641 C43.03871042572021,111.27219664306641 43.03871042572021,111.27219664306641 43.03871042572021,111.27219664306641 M69.05007042572021,105.04293664306641 C67.36648042572021,111.69308664306641 70.5652904257202,122.97309664306641 61.13723042572021,122.97309664306641 C54.150360425720216,122.97309664306641 54.82379042572021,113.37666664306641 54.82379042572021,106.13726664306641 C54.82379042572021,103.94860664306641 55.58140042572021,101.1706966430664 57.43334042572022,102.6017366430664 C57.26498042572022,104.4536766430664 57.349160425720214,106.6423366430664 57.349160425720214,108.5784566430664 C57.349160425720214,114.05010664306641 57.349160425720214,120.02682664306641 62.31573042572021,121.03697664306641 C67.11394042572022,119.18503664306641 65.68289042572022,111.5247266430664 65.93543042572021,105.6321866430664 C64.50438042572021,102.77009664306641 67.45066042572022,99.82382664306641 69.05006042572022,102.9384566430664 C68.88170042572021,103.61188664306641 68.88170042572021,104.3695066430664 69.05006042572022,105.04293664306641 C69.05006042572022,105.04293664306641 69.05006042572022,105.04293664306641 69.05006042572022,105.04293664306641 M75.78439042572022,106.6423366430664 C74.94260042572022,112.11398664306641 73.93245042572022,120.9527966430664 78.22559042572021,123.0572766430664 C78.81485042572021,123.1414566430664 79.06738042572022,122.4680166430664 79.48828042572022,122.2996666430664 C80.66678042572022,122.46802664306641 80.33007042572021,121.03697664306641 81.34022042572022,121.03697664306641 C82.35037042572021,120.3635466430664 83.36051042572022,116.15458664306641 80.91932042572022,117.4172766430664 C78.73066042572022,117.8381766430664 74.43752042572021,117.58563664306641 76.87872042572022,114.8077266430664 C79.99335042572021,114.1342966430664 82.77126042572021,113.4608566430664 86.22260042572022,113.4608566430664 C87.48529042572021,112.70324664306641 90.51574042572021,112.9557766430664 90.26320042572021,114.8077266430664 C89.92648042572021,117.58563664306641 84.37066042572022,114.8077266430664 85.29663042572021,118.8483266430664 C84.62319042572021,121.71041664306641 83.78140042572022,124.23579664306641 81.00349042572022,125.16176664306641 C71.49125042572021,128.2763966430664 71.4070704257202,114.63937664306641 73.00647042572021,105.71637664306641 C73.6799004257202,101.6757766430664 78.05722042572022,96.11994664306641 82.09782042572022,100.2447266430664 C82.85543042572021,102.9384566430664 82.93962042572022,107.7366766430664 82.01364042572021,110.26204664306641 C81.42438042572022,110.59876664306641 79.90916042572022,110.51458664306641 79.90916042572022,109.5886166430664 C80.41424042572021,107.6524966430664 81.00349042572022,102.4333866430664 79.06737042572021,101.4232366430664 C77.29961042572022,102.5175666430664 76.12110042572021,104.28532664306641 75.78438042572022,106.6423466430664 C75.78438042572022,106.6423466430664 75.78438042572022,106.6423466430664 75.78438042572022,106.6423466430664 M93.20946042572021,124.5725066430664 C92.28350042572022,117.66981664306641 93.20946042572021,109.50443664306641 92.70439042572022,102.34920664306641 C93.12529042572021,101.0023366430664 95.90320042572021,101.25487664306641 95.39812042572021,103.0226366430664 C94.80887042572022,105.1271166430664 95.39812042572021,107.5683066430664 95.22976042572022,109.9253266430664 C96.99752042572021,110.68293664306641 100.78558042572021,111.01965664306641 102.38499042572022,110.0936866430664 C102.38499042572022,107.31577664306641 103.05843042572022,103.86442664306641 102.55336042572021,101.5074066430664 C102.04828042572022,99.06620664306641 106.34142042572022,97.97187664306641 106.93067042572021,100.6656166430664 C106.76231042572022,103.19098664306641 105.83634042572021,105.9689066430664 106.08888042572022,108.3259166430664 C105.75216042572022,109.50442664306641 105.92052042572021,111.1880066430664 106.42560042572022,111.9456166430664 C106.59396042572021,113.29248664306641 105.24710042572022,112.7874066430664 105.41545042572021,113.96591664306641 C105.41545042572021,113.96591664306641 106.67814042572022,122.97308664306641 106.67814042572022,122.97308664306641 C106.50978042572021,124.06741664306641 105.33127042572022,124.40413664306641 104.15276042572022,124.40413664306641 C102.30082042572022,124.40413664306641 103.64768042572021,121.0369666430664 102.72171042572022,119.8584566430664 C103.05843042572022,117.9223366430664 102.46917042572022,116.40710664306641 102.55335042572021,114.3026266430664 C101.79574042572021,112.2823266430664 98.17603042572021,113.0399366430664 95.81901042572021,112.4506866430664 C94.80886042572021,114.97605664306641 95.48229042572021,121.4578566430664 96.49244042572022,124.15158664306641 C96.49244042572022,125.4984566430664 93.37782042572022,126.17188664306641 93.20945042572022,124.57248664306641 C93.20945042572022,124.57248664306641 93.20945042572022,124.57248664306641 93.20945042572022,124.57248664306641 M109.11932042572022,108.99933664306641 C109.45604042572022,106.8106766430664 112.14977042572022,107.31575664306641 114.25425042572022,107.5682866430664 C114.92769042572021,106.8948566430664 114.67515042572022,104.6220166430664 114.17007042572021,103.5276866430664 C114.50679042572021,101.5915666430664 118.21067042572021,101.6757466430664 117.62142042572022,104.11693664306641 C116.77962042572021,107.48410664306641 119.22082042572022,107.9891766430664 121.74620042572022,107.2315666430664 C122.75635042572021,107.3157466430664 124.43993042572022,107.5682866430664 124.60829042572021,108.91514664306641 C124.27157042572021,110.9354466430664 121.24113042572021,110.9354466430664 119.97844042572021,110.2620166430664 C119.38918042572021,110.5987366430664 117.87396042572021,109.5885866430664 118.12650042572021,110.85126664306641 C118.12650042572021,110.85126664306641 119.97844042572021,120.7002266430664 119.97844042572021,120.7002266430664 C120.14680042572022,121.96291664306641 116.69545042572021,123.30977664306641 116.35873042572021,121.37365664306641 C115.68529042572021,117.58559664306641 115.43276042572022,113.6291766430664 114.67514042572022,109.92528664306641 C112.48648042572022,109.33603664306641 109.62439042572022,110.68289664306641 109.11932042572022,108.99931664306641 C109.11932042572022,108.99931664306641 109.11932042572022,108.99931664306641 109.11932042572022,108.99931664306641 M158.44831042572022,119.85842664306641 C158.19578042572022,122.13126664306641 157.1014504257202,123.30977664306641 157.2698104257202,125.7509666430664 C157.3539804257202,127.1820166430664 155.0811504257202,127.35036664306641 154.2393504257202,126.7611166430664 C152.3032204257202,117.7539466430664 149.8620304257202,108.2416966430664 146.8315904257202,100.24467664306641 C145.14800042572023,107.31572664306641 145.9897904257202,115.14438664306641 145.9897904257202,123.0572366430664 C145.9897904257202,125.41425664306641 147.7575504257202,127.77126664306641 144.30621042572022,127.77126664306641 C142.03337042572022,127.26619664306641 143.9694904257202,124.06738664306641 143.1277004257202,121.71036664306641 C143.1277004257202,121.71036664306641 143.54860042572022,104.7903566430664 143.54860042572022,104.7903566430664 C143.63277042572022,101.4231866430664 144.8112804257202,98.98199664306641 145.06383042572023,95.8673666430664 C145.56890042572022,95.0255766430664 147.33666042572023,95.5306466430664 147.42084042572023,96.5407966430664 C152.30323042572022,102.0966266430664 152.47159042572022,112.3664766430664 155.58621042572022,119.6900666430664 C157.2698004257202,113.88170664306641 158.53248042572022,107.3999066430664 159.5426304257202,100.91811664306641 C158.7008504257202,99.1503566430664 160.55278042572021,97.8034866430664 162.32055042572023,98.72945664306641 C163.83576042572022,99.9921466430664 162.99398042572022,102.6016966430664 163.4148604257202,105.1270766430664 C163.4148604257202,105.1270766430664 166.9504004257202,124.74082664306641 166.9504004257202,124.74082664306641 C166.86622042572023,125.9193366430664 165.5193504257202,126.3402266430664 164.50919042572022,126.08769664306641 C163.4148604257202,125.41426664306641 163.66741042572022,123.22560664306641 163.4148604257202,121.62620664306641 C163.4148604257202,121.62620664306641 161.0578504257202,108.15753664306641 161.0578504257202,108.15753664306641 C159.87934042572022,111.6088866430664 158.9533704257202,115.8178466430664 158.44829042572022,119.8584366430664 C158.44829042572022,119.8584366430664 158.44829042572022,119.8584366430664 158.44829042572022,119.8584366430664 M171.5802504257202,101.17065664306641 C173.8530804257202,102.26498664306641 177.3886104257202,101.50737664306641 180.08234042572022,101.92826664306641 C181.59757042572022,101.25483664306641 184.3754804257202,101.0864766430664 184.45966042572022,103.10677664306641 C183.4495104257202,105.5479766430664 180.08234042572022,103.44349664306641 176.96772042572022,103.94856664306641 C175.8733904257202,103.6960266430664 172.59040042572022,103.02259664306641 172.75875042572022,104.7903566430664 C173.0113004257202,107.23155664306641 172.00115042572023,110.59871664306641 175.62086042572022,109.50438664306641 C178.2304004257202,109.75692664306641 180.67160042572021,109.08348664306641 182.7760904257202,109.42020664306641 C184.2071404257202,110.68289664306641 182.7760904257202,112.2822966430664 180.92415042572023,112.11393664306641 C178.2304104257202,111.9455766430664 175.7892204257202,111.5246866430664 173.34802042572022,112.0297566430664 C173.34802042572022,112.0297566430664 174.5265304257202,118.2590166430664 174.5265304257202,118.2590166430664 C174.27398042572023,121.71036664306641 178.73548042572023,119.4375266430664 181.09249042572023,119.6900666430664 C183.3653304257202,119.4375266430664 185.6381704257202,117.7539466430664 187.1533904257202,119.52170664306641 C185.6381804257202,124.2357466430664 177.5569704257202,120.8685766430664 173.8530804257202,123.39394664306641 C171.7486004257202,123.8148366430664 170.9068204257202,121.5420066430664 171.66444042572022,120.0267766430664 C171.07518042572022,114.9760266430664 169.89666042572023,109.3360266430664 170.5701104257202,104.1169166430664 C170.23339042572022,102.9384066430664 170.40174042572022,101.33900664306641 171.5802604257202,101.1706466430664 C171.5802604257202,101.1706466430664 171.5802604257202,101.1706466430664 171.5802604257202,101.1706466430664 " stroke-width="0" stroke="#0" fill="#0" id="svg_3" style="pointer-events:inherit"/><path d="M59.79038037231445,146.9219048828125 C60.12710037231445,144.7332448828125 62.820830372314454,145.2383248828125 64.92531037231446,145.4908548828125 C65.59874037231445,144.8174248828125 65.34621037231446,142.5445848828125 64.84113037231445,141.4502548828125 C65.17785037231445,139.5141348828125 68.88173037231445,139.5983148828125 68.29248037231446,142.0395048828125 C67.45069037231445,145.4066748828125 69.89188037231446,145.9117448828125 72.41726037231446,145.1541348828125 C73.42741037231445,145.2383148828125 75.11099037231446,145.4908548828125 75.27935037231445,146.8377148828125 C74.94263037231445,148.8580148828125 71.91218037231445,148.8580148828125 70.64950037231445,148.1845848828125 C70.06025037231446,148.5213048828125 68.54502037231445,147.5111548828125 68.79756037231445,148.7738348828125 C68.79756037231445,148.7738348828125 70.64950037231445,158.6227948828125 70.64950037231445,158.6227948828125 C70.81786037231446,159.8854848828125 67.36651037231445,161.2323448828125 67.02980037231445,159.2962248828125 C66.35637037231446,155.5081648828125 66.10383037231445,151.5517448828125 65.34622037231445,147.8478548828125 C63.15756037231445,147.2586048828125 60.295470372314455,148.6054648828125 59.790390372314455,146.9218848828125 C59.790390372314455,146.9218848828125 59.790390372314455,146.9218848828125 59.790390372314455,146.9218848828125 M83.94981037231446,157.6126348828125 C76.28950037231445,157.6126348828125 75.19518037231445,145.99591488281249 80.07757037231445,142.5445648828125 C82.93966037231445,141.4502348828125 86.30683037231445,142.7129248828125 87.65370037231446,144.56486488281251 C91.61012037231446,147.7636748828125 90.76833037231445,157.6126348828125 83.94982037231445,157.6126348828125 C83.94982037231445,157.6126348828125 83.94982037231445,157.6126348828125 83.94982037231445,157.6126348828125 M82.09788037231445,144.1439648828125 C79.65668037231445,145.0699348828125 82.43460037231445,149.5314348828125 79.57250037231445,149.9523248828125 C79.31996037231445,153.8245648828125 84.45489037231445,158.2860648828125 86.81191037231446,153.9087448828125 C88.91639037231445,149.9523248828125 86.55937037231445,143.9756048828125 82.09788037231445,144.1439648828125 C82.09788037231445,144.1439648828125 82.09788037231445,144.1439648828125 82.09788037231445,144.1439648828125 M119.22089037231444,158.2860648828125 C116.94805037231446,159.2962148828125 112.31820037231445,161.73740488281248 109.87700037231446,159.2962148828125 C109.96118037231446,154.24546488281248 110.38207037231444,148.7738148828125 110.38207037231444,144.3123248828125 C110.38207037231444,142.5445648828125 109.87700037231446,140.4400848828125 111.81312037231444,140.4400848828125 C112.57073037231444,140.4400848828125 113.49671037231445,140.5242648828125 113.58089037231446,141.1135148828125 C115.18029037231446,142.2920248828125 119.89433037231446,141.9553048828125 118.54746037231445,146.5009848828125 C117.20059037231445,148.3529248828125 118.46328037231444,149.1105348828125 119.89433037231446,149.8681548828125 C121.49373037231445,151.8884548828125 121.99881037231445,157.0233848828125 119.22089037231444,158.2860748828125 C119.22089037231444,158.2860748828125 119.22089037231444,158.2860748828125 119.22089037231444,158.2860748828125 M115.76954037231445,145.4908448828125 C115.93790037231446,144.1439748828125 113.91760037231445,142.9654748828125 113.24417037231444,144.2281548828125 C112.73909037231445,146.0800948828125 113.07581037231445,147.9320348828125 115.09611037231446,146.5851748828125 C115.60118037231445,146.5851748828125 115.68536037231445,146.1642748828125 115.76954037231445,145.4908448828125 C115.76954037231445,145.4908448828125 115.76954037231445,145.4908448828125 115.76954037231445,145.4908448828125 M115.26447037231446,150.0365248828125 C114.42268037231446,150.7099548828125 112.48656037231444,149.3630948828125 113.15999037231445,151.2992148828125 C113.15999037231445,153.7404148828125 111.64477037231445,158.2860848828125 115.68537037231445,157.2759348828125 C117.03224037231445,156.9392148828125 118.29492037231445,156.4341448828125 118.29492037231445,154.5822048828125 C118.29492037231445,151.8884748828125 117.11641037231445,150.7099648828125 115.26447037231446,150.0365248828125 C115.26447037231446,150.0365248828125 115.26447037231446,150.0365248828125 115.26447037231446,150.0365248828125 M125.78687037231445,139.0932348828125 C128.05970037231447,140.1875648828125 131.59523037231446,139.4299548828125 134.28897037231445,139.8508448828125 C135.80419037231445,139.1774148828125 138.58211037231445,139.0090548828125 138.66628037231445,141.0293548828125 C137.65613037231446,143.4705548828125 134.28897037231445,141.3660748828125 131.17434037231445,141.8711448828125 C130.08001037231446,141.6186048828125 126.79702037231445,140.9451748828125 126.96538037231446,142.7129348828125 C127.21792037231445,145.1541348828125 126.20777037231446,148.5212948828125 129.82748037231445,147.4269648828125 C132.43703037231444,147.6795048828125 134.87822037231444,147.0060648828125 136.98271037231444,147.3427848828125 C138.41376037231447,148.6054748828125 136.98271037231444,150.2048748828125 135.13077037231446,150.0365148828125 C132.43704037231447,149.8681548828125 129.99584037231443,149.4472648828125 127.55464037231445,149.9523348828125 C127.55464037231445,149.9523348828125 128.73315037231447,156.1815948828125 128.73315037231447,156.1815948828125 C128.48061037231446,159.6329448828125 132.94210037231446,157.3601048828125 135.29912037231446,157.6126448828125 C137.57195037231446,157.3601048828125 139.84480037231447,155.6765248828125 141.36002037231447,157.4442848828125 C139.84480037231447,162.1583248828125 131.76360037231444,158.7911548828125 128.05971037231444,161.3165248828125 C125.95523037231445,161.73741488281252 125.11344037231446,159.4645848828125 125.87106037231446,157.9493548828125 C125.28180037231445,152.8986048828125 124.10329037231445,147.2586048828125 124.77673037231445,142.0394948828125 C124.44001037231445,140.8609848828125 124.60837037231445,139.26158488281249 125.78688037231446,139.0932248828125 C125.78688037231446,139.0932248828125 125.78688037231446,139.0932248828125 125.78688037231446,139.0932248828125 " stroke-width="0" stroke="#0" fill="#0" id="svg_4" style="pointer-events:inherit"/><path d="M78.47809377197265,196.208091953125 C76.20525377197265,197.218241953125 71.57540377197266,199.659431953125 69.13420377197265,197.218241953125 C69.21838377197265,192.167491953125 69.63928377197266,186.695841953125 69.63928377197266,182.23435195312499 C69.63928377197266,180.466591953125 69.13420377197265,178.362111953125 71.07033377197266,178.362111953125 C71.82794377197266,178.362111953125 72.75391377197266,178.446291953125 72.83809377197265,179.035541953125 C74.43749377197265,180.214051953125 79.15153377197265,179.877331953125 77.80466377197266,184.423011953125 C76.45779377197266,186.274951953125 77.72048377197265,187.032561953125 79.15153377197265,187.790181953125 C80.75093377197265,189.810481953125 81.25601377197266,194.945411953125 78.47810377197266,196.208101953125 C78.47810377197266,196.208101953125 78.47810377197266,196.208101953125 78.47810377197266,196.208101953125 M75.02675377197265,183.412871953125 C75.19511377197266,182.066001953125 73.17481377197265,180.887501953125 72.50137377197265,182.150181953125 C71.99630377197266,184.002121953125 72.33301377197266,185.854061953125 74.35331377197265,184.507201953125 C74.85838377197265,184.507201953125 74.94256377197266,184.086301953125 75.02674377197266,183.412871953125 C75.02674377197266,183.412871953125 75.02674377197266,183.412871953125 75.02674377197266,183.412871953125 M74.52166377197265,187.958551953125 C73.67987377197265,188.631981953125 71.74375377197265,187.28512195312499 72.41718377197266,189.221241953125 C72.41718377197266,191.662441953125 70.90195377197266,196.208111953125 74.94255377197265,195.197961953125 C76.28942377197265,194.861241953125 77.55210377197265,194.356171953125 77.55210377197265,192.504231953125 C77.55210377197265,189.810501953125 76.37359377197265,188.631991953125 74.52165377197265,187.958551953125 C74.52165377197265,187.958551953125 74.52165377197265,187.958551953125 74.52165377197265,187.958551953125 M85.04405377197266,177.015261953125 C87.31689377197266,178.109591953125 90.85241377197266,177.351981953125 93.54615377197266,177.772871953125 C95.06138377197266,177.099441953125 97.83929377197265,176.931081953125 97.92347377197265,178.951381953125 C96.91332377197266,181.392581953125 93.54615377197266,179.288101953125 90.43152377197265,179.793171953125 C89.33719377197266,179.540631953125 86.05420377197265,178.867201953125 86.22256377197266,180.634961953125 C86.47510377197266,183.076161953125 85.46495377197266,186.443321953125 89.08465377197265,185.348991953125 C91.69420377197265,185.601531953125 94.13540377197265,184.928091953125 96.23988377197266,185.264811953125 C97.67093377197266,186.527501953125 96.23988377197266,188.126901953125 94.38794377197266,187.958541953125 C91.69420377197265,187.790181953125 89.25301377197266,187.369291953125 86.81181377197265,187.874361953125 C86.81181377197265,187.874361953125 87.99032377197265,194.103621953125 87.99032377197265,194.103621953125 C87.73778377197266,197.554971953125 92.19928377197266,195.282131953125 94.55630377197267,195.53467195312498 C96.82914377197265,195.282131953125 99.10197377197265,193.598551953125 100.61720377197265,195.366311953125 C99.10198377197266,200.080351953125 91.02078377197266,196.713181953125 87.31689377197266,199.238551953125 C85.21241377197265,199.659441953125 84.37062377197266,197.386611953125 85.12823377197266,195.871381953125 C84.53898377197265,190.820631953125 83.36047377197266,185.180631953125 84.03390377197266,179.961521953125 C83.69718377197266,178.783011953125 83.86554377197265,177.183611953125 85.04405377197266,177.015251953125 C85.04405377197266,177.015251953125 85.04405377197266,177.015251953125 85.04405377197266,177.015251953125 M110.38198377197266,188.042721953125 C105.33123377197265,184.928091953125 107.51989377197265,176.678531953125 114.25422377197265,177.857041953125 C115.09601377197265,177.688681953125 116.35870377197266,178.698831953125 115.43273377197266,179.203911953125 C110.80287377197266,178.951371953125 107.60407377197265,184.170481953125 112.06556377197265,186.864211953125 C113.66496377197265,187.790181953125 115.34855377197266,189.305411953125 117.36885377197265,189.473761953125 C121.83034377197265,192.588391953125 115.60109377197266,197.470781953125 111.47631377197266,198.060041953125 C108.69840377197266,198.480941953125 105.66795377197266,198.396761953125 102.72168377197266,198.396761953125 C101.79571377197266,198.396761953125 101.37481377197265,196.797351953125 102.46914377197265,196.713181953125 C102.46914377197265,196.713181953125 110.29780377197265,196.544821953125 110.29780377197265,196.544821953125 C113.32825377197265,195.703031953125 116.52706377197265,194.356161953125 116.10616377197266,191.409891953125 C114.25422377197265,190.231381953125 112.23392377197266,189.221231953125 110.38198377197266,188.042721953125 C110.38198377197266,188.042721953125 110.38198377197266,188.042721953125 110.38198377197266,188.042721953125 M120.39930377197265,184.843911953125 C120.73602377197265,182.655251953125 123.42975377197266,183.160331953125 125.53423377197265,183.412861953125 C126.20767377197265,182.739431953125 125.95513377197265,180.466591953125 125.45005377197265,179.372261953125 C125.78677377197266,177.436141953125 129.49065377197266,177.520321953125 128.90140377197264,179.961511953125 C128.05961377197266,183.328681953125 130.50080377197264,183.833751953125 133.02618377197265,183.076141953125 C134.03633377197264,183.160321953125 135.71991377197264,183.412861953125 135.88827377197265,184.759721953125 C135.55155377197264,186.78002195312501 132.52111377197264,186.78002195312501 131.25842377197267,186.106591953125 C130.66916377197265,186.443311953125 129.15394377197265,185.433161953125 129.40648377197266,186.695841953125 C129.40648377197266,186.695841953125 131.25842377197267,196.544801953125 131.25842377197267,196.544801953125 C131.42678377197265,197.807491953125 127.97543377197266,199.154351953125 127.63871377197265,197.21823195312498 C126.96527377197265,193.430171953125 126.71274377197265,189.473751953125 125.95513377197265,185.769861953125 C123.76647377197266,185.180611953125 120.90438377197265,186.527471953125 120.39930377197265,184.843891953125 C120.39930377197265,184.843891953125 120.39930377197265,184.843891953125 120.39930377197265,184.843891953125 " stroke-width="0" stroke="#0" fill="#0" id="svg_5" style="pointer-events:inherit"/></g></g><defs><path fill="#000000" stroke="#000000" d="M28.1712,72.56845Q82.9712,72.51845 137.76411,72.57443" id="svg_8"/><path fill="#000000" stroke="#000000" d="M25.02663,97.17816Q81.82663,96.37816 138.58305,97.27924" id="svg_10"/><path fill="#000000" stroke="#000000" d="M26.08359,129.99112Q86.23359,130.14111 146.40648,129.97235" id="svg_12"/><path fill="#000000" stroke="#000000" d="M32.61988,148.29065Q81.66988,147.94064 130.72032,148.33563" id="svg_14"/><path fill="#000000" stroke="#000000" d="M34.20795,179.21054Q86.50795,179.06055 138.83066,179.22769" id="svg_18"/></defs></svg>