<?xml version="1.0" encoding="utf-8"?>
<!-- Generator: Adobe Illustrator 16.0.0, SVG Export Plug-In . SVG Version: 6.00 Build 0)  -->
<!DOCTYPE svg PUBLIC "-//W3C//DTD SVG 1.1//EN" "http://www.w3.org/Graphics/SVG/1.1/DTD/svg11.dtd">
<svg version="1.1" id="Layer_1" xmlns="http://www.w3.org/2000/svg" xmlns:xlink="http://www.w3.org/1999/xlink" x="0px" y="0px"
	 width="100px" height="100px" viewBox="0 0 100 100" enable-background="new 0 0 100 100" xml:space="preserve">
<path fill="#70CDE3" stroke="#676767" d="M88.253,24.743c-3.233-1.866-6.765-2.751-10.248-2.75
	c0.003-3.482-0.882-7.013-2.749-10.246c-5.66-9.805-18.197-13.164-28.002-7.504c-3.233,1.867-5.766,4.482-7.504,7.5
	C36.734,10,33.234,9.001,29.5,9C18.178,9.001,9,18.178,9,29.5c0,3.733,0.999,7.234,2.743,10.249
	c-3.018,1.739-5.632,4.271-7.499,7.505c-5.662,9.803-2.302,22.342,7.503,28.003c3.233,1.866,6.764,2.75,10.247,2.749
	c-0.003,3.482,0.883,7.014,2.749,10.247c5.661,9.804,18.198,13.163,28.002,7.503c3.233-1.867,5.767-4.482,7.506-7.5
	C63.266,90.001,66.766,91,70.499,91C81.82,91,91,81.822,91,70.5c0-3.732-1-7.232-2.743-10.249c3.019-1.739,5.632-4.271,7.499-7.504
	C101.417,42.941,98.057,30.404,88.253,24.743z M39.754,47.254c3.109-1.799,5.701-4.392,7.5-7.5
	c3.112,1.793,6.653,2.741,10.245,2.745c0.004,3.592,0.953,7.133,2.745,10.247c-3.109,1.8-5.701,4.393-7.499,7.501
	c-3.114-1.793-6.654-2.742-10.247-2.746C42.496,53.909,41.546,50.367,39.754,47.254z"/>
<path fill="#CBDB2A" stroke="#676767" d="M39.754,47.254c1.792,3.113,2.741,6.655,2.745,10.247
	c3.593,0.004,7.133,0.953,10.247,2.746c1.798-3.108,4.391-5.701,7.499-7.501c-1.792-3.114-2.741-6.655-2.745-10.247
	c-3.592-0.004-7.133-0.952-10.245-2.745C45.456,42.863,42.863,45.456,39.754,47.254z"/>
<path fill="#CBDB2A" stroke="#676767" d="M82.852,28.297c-2.776-1.604-5.813-2.365-8.805-2.363c0.003-2.994-0.758-6.026-2.361-8.804
	C66.82,8.704,56.047,5.817,47.622,10.682c-2.779,1.604-4.954,3.852-6.449,6.443c-2.591-1.498-5.599-2.355-8.807-2.355
	c-9.728,0-17.616,7.887-17.616,17.614c0,3.209,0.858,6.217,2.357,8.807c-2.594,1.495-4.841,3.67-6.444,6.449
	C5.8,56.064,8.687,66.839,17.112,71.704c2.778,1.604,5.812,2.364,8.805,2.36c-0.002,2.994,0.758,6.028,2.363,8.807
	c4.864,8.426,15.638,11.313,24.063,6.445c2.778-1.603,4.954-3.85,6.448-6.441c2.591,1.498,5.598,2.355,8.807,2.355
	c9.729,0,17.615-7.888,17.615-17.614c0-3.208-0.857-6.218-2.355-8.808c2.593-1.496,4.84-3.67,6.443-6.449
	C94.163,43.935,91.275,33.161,82.852,28.297z M41.177,47.64c2.671-1.546,4.9-3.774,6.446-6.445c2.675,1.541,5.717,2.356,8.803,2.359
	c0.004,3.087,0.819,6.129,2.359,8.805c-2.67,1.546-4.898,3.773-6.445,6.445c-2.673-1.541-5.717-2.355-8.803-2.359
	C43.533,53.357,42.719,50.316,41.177,47.64z"/>
<path fill="#AED7C7" stroke="#676767" d="M78.686,31.048c-2.426-1.401-5.074-2.065-7.688-2.063c0.002-2.614-0.662-5.262-2.063-7.688
	c-4.248-7.357-13.652-9.879-21.011-5.631c-2.426,1.401-4.327,3.363-5.632,5.628c-2.263-1.309-4.889-2.06-7.69-2.06
	c-8.495,0-15.382,6.888-15.382,15.385c0,2.8,0.75,5.427,2.057,7.689c-2.264,1.305-4.226,3.205-5.627,5.632
	c-4.247,7.358-1.726,16.766,5.631,21.013c2.426,1.4,5.076,2.064,7.689,2.063c-0.002,2.614,0.662,5.265,2.063,7.688
	c4.247,7.356,13.654,9.879,21.012,5.63c2.427-1.4,4.325-3.361,5.632-5.626c2.262,1.31,4.887,2.058,7.689,2.058
	c8.494,0,15.382-6.888,15.382-15.383c0-2.801-0.749-5.428-2.058-7.689c2.264-1.307,4.227-3.205,5.627-5.631
	C88.563,44.704,86.042,35.296,78.686,31.048z M42.293,47.94c2.333-1.351,4.278-3.296,5.628-5.629
	c2.336,1.344,4.993,2.057,7.688,2.061c0.004,2.695,0.715,5.352,2.061,7.688c-2.333,1.351-4.277,3.295-5.628,5.629
	c-2.336-1.346-4.993-2.059-7.688-2.06C44.351,52.934,43.639,50.276,42.293,47.94z"/>
<path fill="none" stroke="#676767" stroke-linecap="square" d="M42.29,21.293l5.631,21.019 M55.609,44.372l15.387-15.388
	 M57.67,52.061l21.02,5.633 M52.042,57.689l5.633,21.019 M44.354,55.63L28.967,71.016 M42.293,47.94l-21.019-5.632"/>
</svg>
