<?xml version="1.0" encoding="utf-8"?>
<!-- Generator: Adobe Illustrator 16.0.0, SVG Export Plug-In . SVG Version: 6.00 Build 0)  -->
<!DOCTYPE svg PUBLIC "-//W3C//DTD SVG 1.1//EN" "http://www.w3.org/Graphics/SVG/1.1/DTD/svg11.dtd">
<svg version="1.1"
	 id="svg977" xmlns:cc="http://creativecommons.org/ns#" xmlns:dc="http://purl.org/dc/elements/1.1/" xmlns:rdf="http://www.w3.org/1999/02/22-rdf-syntax-ns#"
	 xmlns="http://www.w3.org/2000/svg" xmlns:xlink="http://www.w3.org/1999/xlink" x="0px" y="0px" width="144.018px" height="108px"
	 viewBox="0 0 144.018 108" enable-background="new 0 0 144.018 108" xml:space="preserve">
<polygon fill="#DE2110" points="81.357,0 81.357,54 0,54 0,108 144,108 144,0 "/>
<path fill="#08399C" d="M81.357,0H0v54h81.355L81.357,0L81.357,0z"/>
<path fill="#005387" d="M54.008,24.173l0.018-0.521l-0.52-0.875l-1.301-2.188l-1.407-2.635l-0.271-0.508l-0.813-0.457L47.416,15.7
	l-2.463-1.533l-0.566-0.353l-0.865,0.01l-2.706,0.031l-2.8-0.097l-0.769-0.026l-0.729,0.431l-2.346,1.386l-2.404,1.277l-0.746,0.396
	l-0.437,0.773l-1.313,2.33l-1.435,2.291l-0.457,0.73l0.011,0.984l0.029,2.576l-0.093,2.747L27.3,30.467l0.559,0.941l1.263,2.122
	l1.337,2.506l0.34,0.638l1.027,0.576l2.086,1.169l2.492,1.552l0.536,0.334l1.21-0.014l2.358-0.027l3.011,0.104l0.56,0.019
	l1.032-0.611l2.039-1.204l2.695-1.433l0.455-0.242l0.569-1.008l1.181-2.096l1.624-2.595l0.267-0.427l-0.012-1.097l-0.027-2.465
	L54.008,24.173z M40.663,38c-6.042,0-10.94-4.898-10.94-10.939c0-6.043,4.898-10.94,10.94-10.94s10.938,4.897,10.938,10.94
	C51.603,33.102,46.705,38,40.663,38z"/>
<path fill="#FFFFFF" d="M33.912,38.42l2.492,1.553l-6.309,5.688l1.729-8.41L33.912,38.42z M27.861,31.408l-5.68,6.393l8.277-1.765
	l-1.337-2.506L27.861,31.408z M53.506,22.777l5.918-6.664l-8.626,1.84l1.407,2.635L53.506,22.777z M54.008,24.173l-0.104,3.038
	l0.026,2.465l8.422-2.799L54.008,24.173z M45.114,39.775l6.534,5.804l-1.801-8.44l-2.694,1.432L45.114,39.775z M27.393,24.332
	l-8.14,2.706l8.075,2.618l0.093-2.747L27.393,24.332z M50.871,35.889l8.633,1.775l-5.828-6.465l-1.624,2.595L50.871,35.889z
	 M38.153,40.292l2.729,8.216l2.639-8.14l-3.011-0.104L38.153,40.292z M43.521,13.824l-2.798-8.417l-2.708,8.352l2.8,0.097
	L43.521,13.824z M36.519,14.163l-6.56-5.828l1.81,8.49l2.404-1.277L36.519,14.163z M49.713,16.989l1.796-8.734l-6.556,5.912
	l2.463,1.533L49.713,16.989z M30.587,17.996l-8.486-1.744l5.738,6.365l1.435-2.291L30.587,17.996z M40.663,16.119
	c-6.042,0-10.94,4.898-10.94,10.939c0,6.043,4.898,10.94,10.94,10.94s10.938-4.897,10.938-10.94
	C51.603,21.018,46.705,16.119,40.663,16.119z"/>
</svg>
