<svg xmlns="http://www.w3.org/2000/svg" xmlns:se="http://svg-edit.googlecode.com" xmlns:xlink="http://www.w3.org/1999/xlink" id="svgcontent" width="205.65" height="395.85" x="0" y="0" viewBox="0 0 205.65 395.85" overflow="hidden"><g mask="" style="pointer-events:all"><title style="pointer-events:inherit">Layer 1</title><g id="svg_7" display="null" clip-id="885" stroke-opacity="1" stroke="null" transform=""><path fill="#C40000" d="M83.08412833950167,148.58901678835403 C85.85186165749873,149.74359267360424 93.25726640201763,166.34312010607914 93.25726640201763,166.34312010607914 S85.28332050188313,157.3539221423452 85.07339761365573,155.42338129525476 L85.07277284315506,155.42338129525476 C84.64792890269507,155.06851165087042 84.20621615871673,154.73363466250774 83.7488841522215,154.42124941216952 C77.77357908375114,150.32962740323893 70.00518267833911,150.73197960567458 63.28577594356304,152.43885261352293 C59.45218415141176,153.70276333639154 55.89161706805622,155.8788389902479 51.896834486730484,155.68516013503813 C42.90326312949179,154.98604194478108 24.92861582502791,144.84789103030295 23.849637170359557,133.70948254424175 C23.849637170359557,133.70948254424175 32.14721418984462,142.32756683057383 34.87246311379567,144.62047456805672 C36.931706684025485,146.4560502990444 41.35258274681267,146.27299254234623 43.2206465438355,148.20978109444343 C44.75008472949162,149.7517146901131 47.89892805290133,151.89842613043763 49.482096501615686,149.25064874857054 C53.25071216169654,149.59677160594532 57.02869937928756,149.12069648442974 60.75857926832643,148.6096342148763 C67.56795295519996,147.5512729867303 76.20665466805437,142.30257601054672 83.08412833950167,148.58901678835403 zM38.646076937881894,95.83339571122755 C38.744790676988785,98.90164364005005 38.41803570513498,102.09422089850702 39.15963828943797,105.1549715813214 C41.20201305614961,116.01473242408093 49.260302973875554,124.7521478760423 58.62311369701405,130.0939356568266 C65.57056166453707,134.0656017296273 73.3514534799626,136.74524240702902 81.31790213408914,137.55307066440375 C69.61720019741901,133.5020587380171 58.152661510004606,126.33156770175265 52.431013264808925,114.96511798294438 C48.356884829897254,106.94743814776248 49.172210333280134,96.9598569239474 54.178496355201204,89.5407072284136 C56.79565998253523,85.40909990743958 60.20253352272432,81.85040713558612 63.758102442074474,78.51975559647951 C56.140900497826166,82.12405661488239 49.7738643254316,88.34239740811597 46.027115632874484,95.88025349877827 C45.80344779363226,97.1297945001314 46.133951388490146,101.77308886115938 44.10969496629818,99.32961143301344 C44.57389944830081,96.38694237482702 45.22428553950512,93.39241736508436 45.436707509735115,90.33541530527401 C47.28727773273907,80.01483140459845 53.88485421988324,71.14996277049903 61.69511024884059,64.47866336427506 C52.269197705133706,66.98586738348993 44.65761869539148,73.54095947658826 37.39653593652885,79.76617274532919 C34.645046651549414,80.45591937807606 38.456771476176925,76.53423494532947 39.44515840824717,75.86385619810352 C46.015869763862284,70.00975660676437 54.14038535465993,66.38108953883511 61.75446344640481,62.1220290357231 C62.084342270762036,61.759037374830115 64.72587194762241,60.93371554343639 63.887429935714536,60.67568532665695 L63.886180394713136,60.67568532665695 C56.686325144916765,61.9289749510142 50.15934772434905,65.60762365899754 44.04159498172446,69.44496407415281 C40.51663981690744,71.78722868118913 37.20660570432318,74.46187119458543 34.24519353111638,77.48825949986258 C33.57793863639386,77.06653941190584 32.107853648301976,81.04945135371872 29.831189943836705,82.06532818781878 C16.702887413120663,106.6444244549343 10.950000642891155,124.42289382218581 28.865919520291428,93.98032640622102 C30.044236684567366,92.22097267631585 36.17323529620418,94.67069780946849 38.646076937881894,95.83339571122755 zM97.13709121121897,203.48322728929634 C99.23382101148941,203.48322728929634 100.93757016683428,202.3698862570908 100.93757016683428,200.9960159261031 C100.93757016683428,200.5855417071586 100.77887845966245,200.20005830824118 100.50960237387083,199.85830884437115 C99.86421444667201,200.627401330704 98.62217069132707,201.14908469876883 97.18769762177374,201.14908469876883 C95.71573832217986,201.14908469876883 94.44495512380375,200.59866188767273 93.81581122962254,199.79583179430335 C93.5152966187971,200.15195097968905 93.34598381311376,200.56055088713146 93.34598381311376,200.9960159261031 C93.34598381311376,202.3698862570908 95.0409861814492,203.48322728929634 97.13709121121897,203.48322728929634 zM41.547511143023684,214.60226788983658 C44.48143341420071,225.12027926872605 70.79176873869089,233.3516306151394 102.81937891487206,233.3516306151394 C134.84761386155384,233.3516306151394 161.16544643205214,225.12027926872605 164.09936870322912,214.60226788983658 C154.9914643443666,221.96143961730553 130.99277987237963,227.21888338049843 102.81937891487206,227.21888338049843 C74.6466027278651,227.21888338049843 50.65604027238692,221.96143961730553 41.547511143023684,214.60226788983658 zM120.57598131459977,155.42400606575535 C121.00082525505982,155.06913642137116 121.44253799903817,154.73425943300848 121.89924523503265,154.42187418267025 C127.87455030350301,150.33025217373952 135.64294670891505,150.73260437617532 142.36297821419186,152.43947738402352 C146.19719477684373,153.70338810689213 149.75776186019934,155.8794637607485 153.75191967102438,155.68578490553887 C162.74611579876373,154.9866667152818 180.72013833272695,144.84851580080368 181.79974175789602,133.71010731474237 C181.79974175789602,133.71010731474237 173.50216473841098,142.32819160107456 170.77629104395928,144.62109933855746 C168.71704747372937,146.45667506954513 164.29617141094224,146.27361731284682 162.42810761391948,148.21040586494402 C160.8986694282633,149.75233946061383 157.74982610485353,151.89905090093836 156.16728242663987,149.25127351907113 C152.39804199605834,149.59739637644606 148.620679548968,149.12132125493048 144.8901748894284,148.61025898537704 C138.08142597305553,147.5512729867303 129.44209948970047,142.30257601054672 122.56525058875388,148.58901678835403 C119.79751727075683,149.74359267360424 112.39211252623787,166.34312010607914 112.39211252623787,166.34312010607914 S120.36543365587178,157.3545469128458 120.57598131459977,155.42400606575535 L120.57598131459977,155.42400606575535 zM108.51166294653592,203.48322728929634 C110.60839274680637,203.48322728929634 112.3033951151418,202.3698862570908 112.3033951151418,200.9960159261031 C112.3033951151418,200.56055088713146 112.13408230945848,200.15195097968905 111.83356769863303,199.79583179430335 C111.20379903395107,200.59866188767273 109.9336406060757,201.14908469876883 108.46105653598107,201.14908469876883 C107.02720823692843,201.14908469876883 105.78516448158355,200.627401330704 105.13977655438465,199.85830884437115 C104.87050046859304,200.20005830824118 104.71118399092055,200.5855417071586 104.71118399092055,200.9960159261031 C104.71118399092055,202.3698862570908 106.41430837576476,203.48322728929634 108.51166294653592,203.48322728929634 zM158.2971250634462,223.55273008252857 L158.46331401662616,223.34155765330001 C152.01193382664027,235.48834572745318 144.0779732385489,247.09970548252642 133.8361104209585,256.2657134979519 C125.77782050323259,263.5961457823897 115.65278976926868,269.5539572768411 104.47377120066349,269.7089003610089 C93.20228659795815,269.73701503353925 82.86983205776963,263.9847530338105 74.3923211340897,256.95483536019805 C63.43697040472675,247.55203932501632 54.21723212624315,236.0287722105382 47.188563993632116,223.39153929335413 C55.53424834166928,233.65526907846822 63.83057582015297,244.17452999835888 73.85689281500993,252.86883628577363 C79.69974653733692,257.7889039786012 86.2204762528979,262.4603130121597 93.4940544217741,264.92565740782936 C91.87090066101642,253.67354069064493 92.9542527091896,263.5873989953801 91.40857049051581,251.2662999515382 L99.91544562772752,238.66280464139055 L93.78519747508938,265.02062252393233 C95.87255571784964,265.70974438617844 98.01801761717284,266.22580481973716 100.23095473056911,266.5007038400348 C104.21699052488545,267.11235416019724 108.19802815519631,266.75186158130685 112.03037040634612,265.7328608947033 L112.03661811135291,265.75847648523103 L112.03661811135291,265.7597260262325 L112.04099150485763,265.7297370422001 C116.6399271603376,264.5051868608741 121.02456653408555,262.328486436517 124.93750417982264,259.70007694017085 C138.63622217765632,250.3834992340823 148.33703374166083,236.57044823462485 158.2808810304286,223.57584659105362 L158.27963148942726,223.57647136155435 L158.2971250634462,223.55273008252857 zM93.61276081690258,265.7603507967331 L93.61276081690258,265.75847648523103 L93.61276081690258,265.75910125573176 L93.61276081690258,265.7603507967331 zM186.4492838239307,162.08156052096442 C182.8012488704805,162.68071543111327 170.25210859389165,169.70188631771612 166.93332769429787,171.41938042407597 C161.79708940823608,173.8160000646712 157.59613256168709,177.75455330093592 154.17426452948172,182.2154146757665 C152.92847215113272,183.5936584002589 151.1360055846918,184.47458480621282 149.87022055032105,185.77223313611796 C149.46724357738472,187.05988513801225 151.04166523908955,188.25257202380374 152.16062920580129,187.51721714450758 C153.54012247129504,187.22982271419636 162.98790198252556,184.88568379565805 163.0978615906447,181.0046094454554 C163.93755314355388,185.51357814883784 152.07316133570654,189.3740350725181 149.98142969944158,190.82037878158428 C143.46069998388052,194.62960452420924 135.29932293354292,196.74820129200327 127.89204387752196,194.33721192989253 C120.01806125749567,191.61696116994688 114.21956624071674,182.8339374714363 116.20633643286811,174.46388707387266 C117.24470500499251,170.50471641108552 119.87561358334139,166.78233376805477 123.49803294626392,164.83180026494267 C125.00810324639909,164.28824992935398 124.43206484477537,164.74745624735127 123.88226680417998,165.75583583544315 L123.88289157468066,165.75583583544315 C122.66521386886217,166.666126454929 121.67682693679183,167.77634363463102 120.90835922095965,169.0146387669719 C122.0298222696741,167.79508674965135 123.40244305966044,166.7835833090561 124.99998122989032,166.07446879078813 C128.78796477549213,164.39383614396837 132.98642254003838,164.77182229687764 136.4326566217702,166.72235579998974 L133.47936646507222,173.0412846438323 C133.17010506723733,172.7370214100028 132.8058638653429,172.55521319430585 132.41225844991675,172.55521319430585 C131.30766420472057,172.55521319430585 130.41361761825246,173.9403293943058 130.41361761825246,175.64907671365606 S131.30828897522122,178.74294023300627 132.41225844991675,178.74294023300627 C133.5162279246121,178.74294023300627 134.41089928158095,177.35782403300644 134.41089928158095,175.64907671365606 C134.41089928158095,174.7519062746845 134.16099108131033,173.9515752633179 133.76676089538344,173.38678273070633 L138.29072409078222,167.98564175235776 C139.94511637657365,169.3257744763089 141.32710872407014,171.0807548127093 142.2605158520809,173.18310754748578 C142.4260800347602,173.55672030689033 142.56665339741235,173.93345691879827 142.6972304320538,174.31206784220828 C142.93026982880613,174.17711741406217 143.16643307806186,174.05028900242476 143.4082192618237,173.93658077130166 C148.4357474807678,170.6071787731964 153.07654275979306,159.99232796670225 155.71432381364937,164.1657949112213 C152.73104467291893,170.6534117902465 161.15170148103724,167.9406582763091 162.60491766561086,167.6757555840222 C167.58183947400016,167.50019507333204 181.780373872375,159.7305491269186 186.4492838239307,162.08156052096442 zM147.14434685586934,183.03948696615873 C145.71862057332558,182.65962650174743 144.40472821040274,182.41346692448087 143.07209273245968,182.1266972646705 C142.24489658956398,185.47671668929792 140.15191541229765,188.4237591409892 137.07304638496367,190.18123855939223 C138.91674413246002,189.84886065303232 140.7154584039078,189.299062612437 142.36672683719593,188.57932699565754 C144.12295671459762,187.69027857319486 146.0503737091848,187.12236218807988 147.60605225586934,185.9396716302993 C149.32729498523318,184.44522059268098 149.61656372704647,183.96164822515732 147.14434685586934,183.03948696615873 zM175.81818898441892,82.06657772882022 C173.5409005094529,81.05132566522084 172.0714402918617,77.06778895290716 171.40418539713914,77.48950904086391 C168.44339799443304,74.46312073558676 165.13273911134806,71.78847822219046 161.60778394653113,69.44621361515414 C155.49065597440713,65.60887319999887 148.96367855383937,61.930849262516176 141.76319853354244,60.67693486765836 L141.7619489925411,60.67693486765836 C140.92288221013243,60.935589854938456 143.56503665749352,61.76091168633218 143.89491548185075,62.12327857672457 C151.50961834409634,66.38171430933576 159.63350916439325,70.01100614776576 166.2042205200084,75.86510573910485 C167.1926074520786,76.53485971583012 171.00433227670615,80.45654414857671 168.2528429917267,79.76742228633057 C160.99113546236336,73.54220901758958 153.3801812231218,66.9871169244914 143.9536439089143,64.47991290527645 C151.76389993787166,71.15183708200115 158.36147642501587,80.01670571610046 160.21204664801974,90.33666484627548 C160.42384384774908,93.39366690608568 161.07422993895335,96.38756714532775 161.538434420956,99.33086097401491 C159.5141779987641,101.77433840216071 159.84468159362197,97.13104404113272 159.62038898387908,95.8815030397796 C155.87426506182254,88.3436469491173 149.507228889428,82.12530615588372 141.8900269451797,78.52100513748084 C145.44559586452985,81.85165667658745 148.85184463421828,85.40972467794026 151.46900826155232,89.54195676941492 C156.47591905397408,96.96110646494873 157.29061978685624,106.94806291826322 153.2164913519446,114.9663675239457 C147.49484310674896,126.33219247225324 136.03030441933456,133.50330827901843 124.32960248266437,137.55432020540508 C132.29667590729156,136.74649194803035 140.07694295221643,134.06622650012804 147.0250156902402,130.09518519782793 C156.38782641337872,124.75339741704363 164.44611633110455,116.01535719458167 166.4878663273155,105.15622112232273 C167.23009368211922,102.09547043950849 166.9027139397647,98.90289318105138 167.0014276788716,95.83464525222888 C169.47489409105006,94.67194735046996 175.60326793218613,92.22222221731718 176.78158509646207,93.98282548822368 C194.70000305586507,124.42414336318714 188.94649151513485,106.64567399593562 175.81818898441892,82.06657772882022 zM38.718550315960364,171.41938042407597 C35.39914464586597,169.70188631771612 22.850629139777787,162.68071543111327 19.202594186327488,162.08156052096442 C23.871504137883257,159.7305491269186 38.07003853625815,167.50081984383274 43.04758511514808,167.67762989552412 C44.50142607022238,167.94253258781103 52.922082878340674,170.65528610174857 49.93817896710955,164.16766922272336 C52.57720956196724,159.99357750770358 57.216755299991235,170.60905308469847 62.24428351893519,173.93845508280373 C62.48544493219643,174.05216331392683 62.72098341095142,174.1783669550635 62.95277326670242,174.31269261270887 C63.0833503013438,173.93533123030033 63.224548434496754,173.55796984789166 63.38948784667531,173.18498185898784 C64.32289497468608,171.08200435371063 65.70551209268325,169.3257744763089 67.36052914897535,167.98626652285836 L71.88824096737822,173.39115612421105 C71.49588509295333,173.9559486568226 71.24660166318338,174.7556548976886 71.24660166318338,175.65032625465753 C71.24660166318338,177.35907357400777 72.14189779065289,178.7441897740076 73.24586726534827,178.7441897740076 S75.24450809701254,177.35907357400777 75.24450809701254,175.65032625465753 S74.34983674004377,172.55646273530718 73.24586726534827,172.55646273530718 C72.85101230892079,172.55646273530718 72.48489679552426,172.73952049200545 72.17501062718871,173.0456580373369 L69.2204709294894,166.72235579998974 C72.6660802407205,164.77307183787897 76.86391323476609,164.3950856849697 80.65064723936658,166.0757183317896 C82.25193403260059,166.7867071615595 83.62705390458956,167.8007096841574 84.75039126480601,169.02401032448208 C83.98192354897384,167.78321611013854 82.99103753490084,166.669875077933 81.77086074707964,165.75708537644448 L81.77086074707964,165.75708537644448 C81.22168747698497,164.7487057883526 80.64564907536119,164.28887469985457 82.15509460499568,164.833049805944 C85.77751396791822,166.7835833090561 88.4084225462671,170.50596595208685 89.44616634789082,174.46513661487398 C91.43356131054287,182.83456224193685 85.63444152326328,191.61821071094823 77.76045890323692,194.3384614708939 C70.35317984721594,196.74945083300457 62.19180279687842,194.63085406521054 55.67169785181811,190.82162832258575 C53.5799662155531,189.3759093840202 41.715574407705724,185.5148276898392 42.55526596061496,181.0058589864567 C42.66460079823338,184.88693333665935 52.1123803094639,187.23107225519772 53.49187357495768,187.51846668550894 C54.61146231217003,188.25382156480504 56.18525920337423,187.06113467901355 55.78228223043783,185.77348267711932 C54.5171219665679,184.47583434721412 52.724655400126906,183.59490794126026 51.47886302177791,182.2166642167678 C48.05574544857117,177.75392853043533 43.854788602022154,173.8160000646712 38.718550315960364,171.41938042407597 zM58.04582575438894,185.9396716302993 C59.600879530572826,187.12236218807988 61.52892129566065,187.69027857319486 63.28452640256164,188.57932699565754 C64.93454529484835,189.29843784193628 66.73138525479413,189.84823588253175 68.57383346128917,190.1806137888916 C65.49621397495658,188.42313437048858 63.404482338691594,185.47671668929792 62.576661425295214,182.12732203517095 C61.245275488353485,182.4140916949816 59.93200789593138,182.66025127224816 58.50690638388821,183.03948696615873 C56.03468951271117,183.96164822515732 56.32458302502512,184.44522059268098 58.04582575438894,185.9396716302993 zM114.24080843773973,251.2662999515382 L105.73455807102872,238.66280464139055 L112.02974563584547,265.73348566520406 L112.04036673435698,265.73036181270066 C113.83158375979656,253.19184263462347 112.65888953002676,263.8729191141893 114.24080843773973,251.2662999515382 z" id="svg_8" stroke-width="0" stroke="null" transform=""/><path d="M52.65155725154773,221.21608840999835 L50.411755006622386,224.41241429145958 C48.81109298388908,222.00454878185224 47.53531162150762,219.7947355209593 46.670004478070624,217.86856806737347 C48.46809397901767,219.016896247617 50.46361095817852,220.13960883733273 52.65155725154773,221.21608840999835 zM60.10132070161477,237.07213894666813 C61.7469662003967,239.02204767927964 63.47570617576869,240.9900747564106 65.25192870919209,242.96934770255393 L65.11760305154657,231.06559535316393 C65.11760305154657,231.0662201236645 62.27177342096505,234.44247990932064 60.10132070161477,237.07213894666813 zM51.10087686886861,225.43828745357047 C51.895584945729155,226.59723673232537 52.771513187677655,227.7955465526229 53.693049676175505,229.02884352095833 L53.617452445593685,222.44376244382772 C53.617452445593685,222.44376244382772 52.3035600826709,224.00506392501848 51.10087686886861,225.43828745357047 zM61.07221405966604,195.29186125492635 C52.84086271325273,190.37054402109715 47.91204823341559,181.90552850743092 41.785548703781465,174.83437598077384 C37.663937710818374,169.98865597752675 31.87356471054828,165.58277440675576 25.187270812307993,166.0057440357137 C18.907702510008157,166.29001461352166 13.742100010414596,171.7261427399081 13.039233197153486,177.84264594153146 C12.54379019011698,176.1738839342244 13.120453362241427,173.17810938348035 14.090721949792126,171.24069606088253 C16.947797449385888,164.9323883155515 24.642470935718052,161.77042481162755 31.205685045325062,163.60787485411728 C38.72542279146784,165.38409738754052 44.13093716332118,171.361276767513 49.02351495411911,176.935479174549 C49.228439678340976,176.03643442407548 47.3597511108175,173.69604412854116 46.69499529809771,172.34653984707995 C44.91502414167023,168.95278648740498 42.943248441535076,165.63213127630928 40.311090322184825,162.81441631825805 C39.412670342212,161.86601469823106 35.343540071305775,157.6638083106806 38.719175086461064,159.3481895805046 C47.096097959532,164.88927915100476 52.58158295547199,173.389281812709 58.67184579606682,181.19391490716032 C57.76967719308995,177.395310263047 58.047700065890936,173.31305981162657 59.67460244965265,169.73062576074724 C62.30613579850227,163.5341519350375 68.69628847942178,159.09328321622863 75.47129978875816,159.10015569173612 C82.47372756034075,158.88835849200672 89.41992598686244,163.54352349254754 91.48791634410178,170.30853847387309 C91.88402084153068,171.43000152258747 91.52915119714645,170.93768236805437 91.16490999525199,170.19108161974586 C88.59522892596938,165.44407535560566 83.73139057820256,161.87975964924593 78.28089273030047,161.45554047928655 C71.99882534599794,160.80452961758166 65.5643139595303,164.51566639160035 63.03086957928704,170.31041278537515 C60.42057842746043,175.8321344703542 61.76383500391498,182.94077322705186 66.35527341338678,187.00990349795813 C67.75101071189818,188.1907197442368 69.38603511216867,189.41776900756543 71.19224662962456,189.71703407738966 C69.2717021105449,188.28630963084026 67.28493191839351,186.75374759268078 66.22782023124886,184.53206369227502 C64.88893704829903,181.20266169416976 64.74836368564681,176.88424799349355 67.29555301690502,174.0777789044547 C68.04215376521346,173.06627546385928 69.54535158984116,173.37741117319618 68.42701239363016,174.70629802813522 C67.01128243909719,177.70207257887915 68.06589504423918,181.40571210688955 70.51686971839322,183.52805749768788 C69.64593964045011,181.83930283435916 69.57721488537567,179.58513086791828 70.51374586588985,177.47465611663296 C70.72866691812256,176.99045897860853 70.98857144640401,176.5449976116263 71.27784018821723,176.13264908117972 C71.42840987888027,177.61085608578037 72.24810877576789,178.74481454450833 73.2452424948476,178.74481454450833 C74.3492119695431,178.74481454450833 75.24388332651188,177.3596983445084 75.24388332651188,175.65095102515812 C75.24388332651188,174.82063102975894 75.03021181528048,174.07153119944792 74.68658803990837,173.5154854538458 C75.86365566318298,173.12750297292564 77.10569941852799,173.1331259074317 78.23590925425182,173.6341918489742 C81.01301412975897,174.86686404680907 82.05763040689013,178.58424852583437 80.56942707427864,181.9373918029654 C79.76472266940732,183.7511005664294 78.38273032191076,185.08061219186902 76.84454534924515,185.72974874207182 C78.8969164439676,185.64790380648338 80.93616735817574,184.9312920422073 82.56931744694424,183.67925195885152 C83.99379418848673,182.45157792502215 85.05902789214024,180.81155536074635 85.575088325699,179.00221999078698 C87.00268891974488,174.2845779401785 84.38427575140958,169.03400665249296 80.09772534626786,166.81607137509133 C79.59853371622731,166.26252471149175 76.90264900580803,165.80894132800063 77.70110570567265,165.2204075163633 C79.7122419473504,165.2335276968776 81.6002984003949,166.27502012150543 83.17659437360186,167.45708590878544 C84.40176932542852,168.38549487279076 85.383908552492,169.58317992258756 86.10989187427818,170.92081356453608 C84.93282425100357,168.51357282542935 82.88232746778318,166.63363838889364 80.66126833787808,165.18354605682347 C84.07688866507674,166.06322292177603 86.98956873923066,168.6247819745498 88.61834543449444,171.7373886089202 C91.5210291806376,177.14915068578046 90.17902214518438,184.2915270495145 85.72815709836479,188.460620600529 C83.4246282623704,190.76102558402 80.34326015303375,192.1511399480254 77.13381409105837,192.58160682299155 C78.24777989376464,192.6821948736004 79.37049248348036,192.76154072718634 79.94590611460347,193.0014525994461 C82.00452491433263,192.60284902001456 83.99067033598335,191.82188589416893 85.75127360688978,190.66918432042064 C91.11992651920326,187.3235382892978 94.11007813544114,180.89277552583422 93.75520849105686,174.64319620756683 C93.60651311189586,172.63268473638973 94.22253682556293,174.6550668470798 94.20066985803926,175.53474371203222 C95.01474582042074,183.04448513016433 90.39394319741716,190.67230817292398 83.44712000039473,193.57686623056912 C79.67225663530714,195.27624199240938 75.35009431162688,195.48803919213879 71.39092364883966,194.39656512745682 C70.17012209051772,194.218505534764 68.96119117170868,193.96609825249067 67.78849694193879,193.65371300215241 C58.68184212407766,191.15025760594148 52.16860965452476,183.80045743598288 46.00274958334809,177.10604152123383 C44.109070195797514,174.737536553169 47.16107409160236,179.23400984653804 47.52344098199475,180.21989769660559 C52.20797019606741,187.30354563327614 57.60161392840794,192.7684132026937 65.11760305154657,197.02434985330223 C65.3925020718443,197.76782674910737 61.955014777121974,195.83728590201696 61.07221405966604,195.29186125492635 zM82.9941613874043,183.3425006589868 L83.00103386291168,183.33687772448076 L83.00040909241102,183.33687772448076 L82.9941613874043,183.3425006589868 zM55.260598862372944,222.44126336182507 L55.260598862372944,231.090586173191 C56.53762976575578,232.7356069014723 57.8871340472171,234.42248725329898 59.3209823462697,236.1399813596588 L64.84020494924626,226.10679188929436 C61.413963523536154,224.99282608658808 58.20139360905738,223.75703003624983 55.260598862372944,222.44126336182507 zM108.46043176548042,201.44522591608944 C109.93301583557496,201.44522591608944 111.20379903395107,202.71101095046015 111.83294292813235,204.55783255046003 C112.13283276845715,203.73813365357233 112.30277034464115,202.79972836155628 112.30277034464115,201.797596478471 C112.30277034464115,198.63750728604913 110.6077679763057,196.076573003776 108.51103817603527,196.076573003776 S104.71055922041988,198.63750728604913 104.71055922041988,201.797596478471 C104.71055922041988,202.7422494754939 104.86987569809237,203.62942358645472 105.13915178388399,204.4147601058051 C105.78453971108289,202.64541004788907 107.02720823692843,201.44522591608944 108.46043176548042,201.44522591608944 zM113.25741966967493,166.06509723327795 C113.61666270756385,165.39534325655288 114.03338463151513,164.67498286927284 114.52008085154213,163.9277573504636 C115.00552753056778,163.1805318316545 115.56219804667063,162.40644118131632 116.19571533435655,161.6317257604773 C117.03665642826715,160.60335351636377 118.01442226182601,159.57310696074816 119.13151191703568,158.6059622257008 C120.24860157224526,157.63881749065376 121.50501504910577,156.7353993466754 122.88138446209621,155.96130869633726 C124.66885286453177,154.95917681325201 126.62875792515402,154.17883845790695 128.65863728185207,153.60092574478125 S132.7858712093213,152.64565164924673 134.8301202875349,152.4069893179883 C137.1348986645306,152.13521415019403 139.38157338496342,152.02275546007223 141.47830318523387,151.94965731149307 C143.57378344450305,151.87718393341464 145.51806924260836,151.84157201487602 147.22681656195869,151.78471789931453 C148.18771359199917,151.7516050627787 149.0767620144619,151.7128692917367 149.87834256682982,151.6697601271901 C150.6799231191979,151.62665096264337 151.39466057197183,151.5791684045919 152.00818520363615,151.53356015804252 C152.77915200147106,151.47670604248103 153.02656111973894,151.5079445675148 152.92847215113272,151.61540509363127 S152.38367227454285,151.90154998294102 151.75640269186354,152.10522516616157 C151.12913310918427,152.30890034938213 150.32068008130884,152.53444250012643 149.50972797143072,152.74936355235909 C148.6981510910519,152.96490937509247 147.8859494401724,153.1704588698151 147.2574303164918,153.3522670855119 C146.88381755708724,153.46035238212897 146.57393138875167,153.5609404327379 146.36650758252708,153.65028261433463 C145.51681970160695,154.01577335723047 144.37411445586963,154.41062831365804 143.15331289754764,154.8267254671086 C141.93313610972643,155.24282262055914 140.63986117332598,155.68328582353607 139.4846605175751,156.14624076453748 C138.32945986182415,156.60919570553875 137.31608210972684,157.09776623706787 136.61196575546433,157.57196704708122 C135.90784940120196,158.04616785709473 135.51049536277168,158.5016255520879 135.54985590431428,158.8827355575007 C135.56110177332644,158.99269516561966 135.7753980550585,159.00081718212837 136.1208961419326,158.95146031257514 C136.4663942288067,158.90147867252102 136.94309412082293,158.7952676874059 137.48227106290676,158.67343743977395 C138.02082323448994,158.5509824216414 138.62060291513944,158.4129081409919 139.1972660872638,158.29045312285936 C139.77455402988898,158.16799810472668 140.32872546398903,158.05991280810963 140.7641905029606,157.99368713503782 C142.74221390810254,157.69254775371184 144.96889597251362,157.4957450459988 147.33177800607228,157.27082766575512 C149.44787569186371,157.0865203680555 151.68143023178231,156.8559800533059 153.91623431270224,156.47736912989603 C156.15041362312158,156.09875820648602 158.38584247454224,155.56707851041017 160.48444658631468,154.82922454911125 C161.665887603094,154.42124941216952 162.7948478978165,153.93080456913847 163.84071371594908,153.37475882353624 C164.73038690891246,152.90118278402346 165.55508396980545,152.3782498749572 166.30793242312066,151.8259527523592 C166.9077121037701,151.43859504193975 167.63369542555628,150.9337804773931 168.4240301089121,150.2896420911956 C168.98382447751825,149.83293485520096 169.5723582891556,149.30875240513336 170.15901778929089,148.7183442819941 C170.74505251892543,148.12793615885482 171.32921293705797,147.47005282164244 171.8833843711581,146.75094197536373 C172.75743830160454,145.5926174671094 173.5127858369224,144.29309482570216 174.08944900904686,142.94359054424095 C174.66548741067064,141.59408626277963 175.06221667860024,140.19772419376758 175.2840102063404,138.86696302732645 C175.5201734555962,137.46060463030364 175.56078353814013,136.12796915236058 175.4795633730522,134.98151528361922 C175.39709366696286,133.83568618537842 175.1946680247437,132.87666346683994 174.97412403800493,132.17692050608215 C174.75420482176676,131.47717754532448 174.52116542501443,131.0342152603449 174.3537269308331,130.89114281568996 C174.27000768374248,130.8199189786127 174.2019076991687,130.82304283111623 174.1506765181132,130.90738684870752 C174.10007010755842,130.99173086629875 174.06695727102252,131.15667027847743 174.04509030349885,131.4103271017521 C174.03634351648935,131.51153992286177 174.06883158252458,131.77019491014175 174.1150645995747,132.15942693206327 C174.16067284612402,132.54865895398476 174.2200260436883,133.069717551549 174.25563796222687,133.69573759322688 C174.29249942176673,134.32238240540536 174.3031205202783,135.05523820269897 174.25563796222687,135.8599426075703 S174.10319396006182,137.54244956589224 173.91763712136085,138.4502411033753 C173.8520362187898,138.7738722227256 173.77456467670592,139.10125196508017 173.6883463476126,139.42988124843606 C173.75582156168556,139.09125563706942 173.81392521824853,138.75637864870674 173.8576591532959,138.43212275885568 C173.9794894009278,137.5362018608856 174.01322700796436,136.70525709498568 173.9944838929441,135.98927010121037 C173.97511600742308,135.27390787793576 173.90326739984525,134.6741281972863 173.82267200525803,134.22616774830126 C173.74082706966936,133.77883206981681 173.65210965857338,133.48269085249615 173.58588398550165,133.36898262137305 S173.47842345938525,133.32274960432306 173.45905557386425,133.6076449526315 C173.4384381473419,133.91440726846366 173.38783173678715,134.48419796508065 173.24538406263292,135.24641797590596 C173.102311617978,136.0080132162307 172.86489882772094,136.9632873117652 172.4656704777886,138.00977790039838 C172.11017606290363,138.9400611759056 171.624729383878,139.94344259999218 170.9905873256913,140.9305799910612 S169.57173351865495,142.88736119917994 168.65019703015705,143.74267201460623 C167.99731185694998,144.36369389227866 167.27257807616522,144.930985506893 166.4953635733236,145.4376743829416 C165.71689952948066,145.94498802949093 164.8872043045822,146.39169893747479 164.03001917765408,146.7790566478941 C162.3162736942983,147.55377206873297 160.49819153732957,148.08795084681148 158.79756623448802,148.4490681962025 C157.5561472496438,148.70772318348259 156.36283559335158,148.86641489065437 155.27011198766832,148.9732506462701 C154.42917089375777,149.05572035235943 153.65133162041542,149.1075763039156 152.95658682366314,149.14631207495748 C153.6200930953816,148.9982414662972 154.30296725262104,148.82705434911176 154.9483551798199,148.64212228091154 C155.72681922366294,148.41970398267077 156.4409319059362,148.18666458591838 156.99572811053693,148.01110407522833 C157.26937758983325,147.92426097563413 157.82354902393337,147.73870413693334 158.5326635422012,147.4469363131174 C159.1524358788723,147.1864070143352 159.89653754517806,146.84465755046514 160.6687538840143,146.42793562651386 C161.44097022285047,146.0112137025626 162.24192600471778,145.51764500702828 162.9797799660168,144.9728451304383 C163.71700915681512,144.42742048334767 164.38926221554306,143.83076465520162 164.93843548563774,143.2284858925494 C165.4876087557323,142.62620712989715 165.91245269619245,142.01893020323962 166.20734437251173,141.47100647414635 C166.54909383638184,140.88059835100694 166.75214424910172,140.35391681893668 166.8452350537025,139.99904717455235 C166.93770108780268,139.64417753016812 166.9258304482897,139.46049500296925 166.8058745121599,139.5154748070288 C166.75339379010305,139.53921608605447 166.63968555897995,139.69728302272563 166.45787734328306,139.95593801000575 S166.02491138631416,140.57508557617626 165.6825371519435,140.9843102541193 C165.41076198414916,141.33917989850363 165.06588866777574,141.73528439593252 164.62792454680144,142.15013200838175 C164.18933565532657,142.56497962083097 163.65640641824945,142.99857034830052 163.0247634420655,143.43028676426803 C162.39124615437953,143.86200318023538 161.65776558658524,144.29184528470083 160.83369329619285,144.7035690446468 C160.0096210058005,145.1146680340919 159.09433222230933,145.50702390851666 158.11406730674798,145.86751648740704 C156.58650343259382,146.41231636399706 154.86088730972526,146.8209162714395 153.00531892271593,147.13017766927445 S149.16547942555795,147.65061149633794 147.15121933137678,147.83554356453814 C144.9813913825272,148.0179765507357 142.76345610512553,148.16042422488994 140.61299604179695,148.35097922759633 C139.53776601013254,148.4459443436991 138.48002955248722,148.55278009931482 137.4541563903763,148.67648465844883 S135.43427336168912,148.93951303923353 134.4871212826635,149.09570566440277 C133.32254906940238,149.28063773260297 132.2285759227178,149.50305603084374 131.23394128564073,149.74421744410498 C130.2386818780631,149.9853788573661 129.34338575059357,150.2440338446462 128.56742078875328,150.49581635641894 C127.79145582691302,150.7469740976908 127.13607157170341,150.99000982245397 126.61438820363847,151.19618408767732 C126.09270483557358,151.4023583529004 125.70597189565481,151.5710463880832 125.46606002339496,151.67850691419955 C125.28175272569541,151.7609766202889 124.81255007968738,151.9752729020208 124.14654472596615,152.32327007089776 C123.48116414274565,152.6712672397746 122.61898085181204,153.15483960729813 121.66308198577693,153.78960643598546 C121.08704358415324,154.17946322840768 120.48538959200172,154.62367505438863 119.88248605884883,155.11974283192586 S118.67542945154179,156.1631095680556 118.09251857441055,156.75289292069428 C117.50773338577733,157.34205150283222 116.94419039416712,157.9736944790163 116.41688409159613,158.63157781622868 S115.39913294599401,159.97420962218249 114.95492112001301,160.6670801074329 C114.25580292975596,161.7535560081094 113.67351682312548,162.85939979430685 113.21556004612958,163.90089221893453 C112.75760326913363,164.94175987306164 112.42210151027035,165.91640185411697 112.18656303151525,166.7417236855107 C111.95102455276026,167.56704551690441 111.81107596060869,168.2417976576351 111.7336044185248,168.694131500125 C111.65550810594024,169.14584057211403 111.63676499091991,169.37388180486096 111.66675397495243,169.3139038367961 C112.04848875086574,168.5404379569584 112.53893359389684,167.40460518672853 113.25741966967493,166.06509723327795 zM123.82041452461306,139.0475217020221 C138.72806344125576,137.45685600729965 153.68257014544932,131.38658582272632 163.9525476355701,120.2006947786137 C170.7125644528903,112.9196193637294 174.2943737332688,93.97845209471896 174.2943737332688,93.97845209471896 C180.808855743823,102.97389776345972 183.99768437927605,112.19301127144269 188.24362470187376,122.5217171886271 C190.9526295928072,118.96864735127957 190.97324701932945,114.19789980811362 191.95288716439035,109.98632186305312 C194.44947008509374,97.02295874451565 191.2125341210887,82.56077119485533 181.5011014585726,73.24544302976813 C173.7083390036342,63.77517178051329 163.2115698217678,56.66091008930965 151.9363365960584,51.960136842219384 C150.62681762664033,51.399717703112486 143.70436047914436,48.688838500677065 145.94166364206708,51.712102953450824 C150.08701591405583,54.05061893748311 154.20800213651827,56.46723123409993 158.1865406848264,59.090642566440636 C155.27573492217448,57.51559613423507 152.26808973191768,56.122357917726475 149.21796014761478,54.89780773640044 C145.09572438415103,53.07910080893106 147.74037791351478,55.638785550202755 149.51222705343338,57.067010914749375 C159.47419268672067,66.61537847658877 166.7558928721058,75.06477472773824 165.54258855979197,89.2102036335557 C165.5194720512669,92.02229565710067 165.53509131378377,97.101679827601 164.6491667438245,94.25772450852133 C161.59466376601696,85.73210625628943 157.24563631080758,78.55724182652006 149.84710404179606,73.40725858944342 C148.70189971405594,72.67065416914582 143.79807605424585,69.13757698781998 144.6265217381429,71.36300951122982 C148.89120517576094,75.77263970500479 153.11590330133572,80.35408178646577 155.98359989944097,85.83206953639765 C160.99488408536746,94.66507487496244 160.96489510133497,106.08463008632808 155.56750274599037,114.74082537320155 C147.98966134328472,127.31995463382285 134.29094334545107,134.6035291307098 120.546617101068,138.50397136643355 C116.43375289511434,139.4898592165011 122.31721669998527,139.21246111420064 123.82041452461306,139.0475217020221 zM67.62543184126224,226.97084949172995 L67.62543184126224,226.97084949172995 L67.62543184126224,226.97084949172995 zM83.98504740147723,153.7902312064862 C83.02977330594278,153.15483960729813 82.16759001500925,152.6712672397746 81.50158466128802,152.32389484139836 C80.83557930756679,151.9758976725215 80.36637666155875,151.76160139078948 80.1820693638592,151.67913168470028 C79.94278226210008,151.5716711585838 79.55542455168064,151.40298312340113 79.03374118361569,151.19680885817792 C78.51268258605147,150.9906345929547 77.85667356034115,150.74759886819155 77.08070859850093,150.49644112691954 C76.30536840716132,150.24528338564753 75.40944750919115,149.9860036278668 74.4148128721141,149.74484221460557 S72.32620508835244,149.2812625031036 71.16163287509139,149.09633043490336 C70.21385602556505,148.94013780973427 69.2204709294894,148.8001892175827 68.19397299687785,148.67710942894942 C67.16809983476702,148.55402964031614 66.11036337712163,148.44719388470043 65.0351333454573,148.35160399809692 C62.885298052629366,148.16104899539067 60.66673800472698,148.0186013212363 58.49691005587745,147.83616833503874 C56.48264996169628,147.65061149633794 54.49900362204825,147.43943906710928 52.6428104645383,147.13080243977504 C50.78724207752896,146.82216581244083 49.06225072516105,146.41294113449766 47.53406208050629,145.86814125790778 C46.55442193544545,145.5076486790174 45.63913315195431,145.11529280459249 44.814436091061324,144.7041938151474 C43.989739030168295,144.29247005520156 43.25625846237401,143.8626279507361 42.623990715689374,143.43091153476863 C41.99109819850408,142.9991951188011 41.45879373192766,142.56560439133156 41.020829610953385,142.15075677888234 C40.58224071947847,141.73590916643326 40.237367403105,141.33980466900422 39.96559223531072,140.98493502462003 C39.62321800093997,140.57571034667686 39.37206025966803,140.21521776778644 39.19025204397118,139.95656278050635 S38.89473559715114,139.5398408565552 38.842879645595005,139.5160995775294 C38.722923709465086,139.46174454397058 38.71042829945156,139.64480230066886 38.80351910405236,139.99967194505308 C38.896609908653204,140.35454158943742 39.10028509187376,140.88122312150767 39.44140978524311,141.47163124464709 C39.73692623206315,142.0195549737402 40.16177017252317,142.6268319003979 40.71031867211717,143.22911066305014 C41.25949194221183,143.8313894257022 41.93174500093977,144.4280452538484 42.6689741917381,144.973469900939 C43.40682815303707,145.51826977752887 44.207159164403706,146.0112137025626 44.9800002737406,146.4285603970146 C45.75284138307745,146.84528232096588 46.496318278882526,147.18703178483594 47.116090615553674,147.44756108361813 C47.8252051338215,147.73932890743393 48.37937656792161,147.92488574613486 48.65302604721791,148.01172884572892 C49.20844702231936,148.18728935641911 49.92255970459266,148.42032875317136 50.70039897793494,148.64274705141227 C51.34641167563446,148.82767911961247 52.0299106033746,148.9988662367978 52.692167334091735,149.1469368454582 C51.9974225373394,149.1082010744162 51.219583263997166,149.05572035235943 50.37864217008652,148.97387541677082 C49.285918564403275,148.86703966115522 48.091982137610415,148.70772318348259 46.850563152766114,148.44969296670322 C45.15056262042529,148.08857561731222 43.33248046345658,147.5543968392337 41.61811020960016,146.77968141839483 C40.760925082671974,146.39232370797538 39.93060508727283,145.94561279999166 39.15339058443126,145.43829915344233 C38.375551311088984,144.930985506893 37.650817530304174,144.36369389227866 36.997932357097206,143.74329678510682 C36.077020639099985,142.8879859696808 35.29293366075093,141.91834215263066 34.65754206156294,140.9312047615618 C34.02277523287555,139.94406737049292 33.53795332435058,138.9400611759056 33.181834138964945,138.01040267089897 C32.78323055953334,136.9639120822658 32.545192998775555,136.00863798673143 32.40274532462127,135.2470427464067 C32.260297650467024,134.48482273558125 32.20969123991225,133.91503203896437 32.18907381338988,133.60826972313222 C32.16908115736825,133.32337437482366 32.12784630432365,133.25589916075054 32.062245401752584,133.36960739187364 C31.996019728680864,133.48331562299688 31.906677547084108,133.77945684031755 31.82608215249683,134.226792518802 S31.673638150331783,135.2745326484365 31.654270264810812,135.98989487171107 C31.634902379289834,136.70588186548642 31.668639986326397,137.5368266313862 31.790470233958274,138.43274752935642 C31.834204169005673,138.75700341920748 31.892307825568558,139.0900060960681 31.959783039641643,139.42863170743473 C31.87356471054828,139.10062719457957 31.79609316846436,138.7738722227256 31.730492265893368,138.4508658738759 C31.545560197693085,137.54307433639298 31.43997398307875,136.66527178294234 31.392491425027337,135.86056737807104 S31.356254735988117,134.3230071759061 31.392491425027337,133.69636236372747 C31.428103343565887,133.069717551549 31.486831770629507,132.54928372448538 31.533064787679592,132.16005170256386 C31.579297804729613,131.77019491014175 31.611161100264113,131.5121646933624 31.603039083755334,131.4109518722527 C31.58117211623164,131.15729504897817 31.548059279695813,130.9923556367995 31.497452869141007,130.90801161920808 C31.4462216880855,130.82366760161682 31.378746474012445,130.8199189786127 31.29440245642111,130.89176758619055 C31.12633919173914,131.0348400308455 30.89329979498678,131.47780231582522 30.67338057874864,132.17754527658286 S30.251035720291313,133.83568618537842 30.168566014202042,134.9821400541198 C30.086721078613365,136.12796915236058 30.127955931658036,137.46122940080423 30.36411918091379,138.86758779782718 C30.585912708653957,140.19834896426818 30.982641976583565,141.59471103328022 31.559305148707978,142.94421531474157 S32.890691085649664,145.59324223761013 33.765369786596835,146.75156674586444 C34.31891645019621,147.47067759214303 34.90370163882947,148.12856092935542 35.489736368464044,148.71896905249469 S36.66430490973593,149.8335596257017 37.224099278342095,150.29026686169632 C38.015058732198625,150.93503001839443 38.74104205398473,151.43984458294108 39.3408217346342,151.82720229336053 C40.093670187949414,152.37949941595852 40.91774247834178,152.9018075545242 41.80804044180583,153.3753835940371 C42.85328148943769,153.93142933963907 43.982866554660845,154.42187418267025 45.164307571440176,154.82984931961195 C47.26291168321268,155.5677032809109 49.49834053463327,156.09875820648602 51.73251984505258,156.47799390039663 S56.20087846589118,157.08714513855637 58.31697615168255,157.27145243625586 C60.6798581852412,157.4963698164994 62.9059154791517,157.69317252421257 64.88393888429357,157.9943119055387 C65.32002869376586,158.06053757861034 65.87357535736525,158.1686228752274 66.45086329999036,158.29107789335995 C67.0275264721148,158.41353291149264 67.62730615276423,158.55160719214214 68.16648309484806,158.67406221027468 C68.7050352664313,158.79589245790663 69.18235992894812,158.90272821352235 69.52785801582222,158.95208508307573 C69.87335610269639,159.00144195262925 70.08765238442845,158.99269516561966 70.09952302394129,158.8833603280013 C70.1388835654839,158.50225032258862 69.74090475655295,158.04741739809606 69.03678840229051,157.57259181758195 C68.33267204802807,157.09839100756847 67.31866952543008,156.60982047603935 66.1640936401798,156.14686553503807 C65.00889298442891,155.68328582353607 63.715618048028475,155.24282262055914 62.4954412602072,154.8273502376093 C61.27526447238593,154.41125308415866 60.13255922664861,154.01639812773107 59.28224657522783,153.65090738483536 C59.07482276900322,153.56156520323864 58.76556137116826,153.4616019231303 58.39194861176371,153.35289185601263 C57.7628047175825,153.1710836403158 56.949978296202275,152.96553414559318 56.1390261863241,152.74998832285982 C55.328074076446015,152.53506727062702 54.519621048570556,152.30890034938213 53.89235146589134,152.1058499366623 C53.26508188321209,151.90279952394235 52.81899574572907,151.72349039024832 52.72090677712288,151.61602986413186 C52.62219303801592,151.50856933801555 52.869602156283875,151.47733081298165 53.64119372461937,151.53418492854325 C54.25471835628373,151.57979317509265 54.969455809057735,151.62665096264337 55.77103636142567,151.6703848976907 C56.57261691379367,151.71349406223743 57.46166533625639,151.7516050627787 58.42256236629687,151.78534266981526 C60.131934456147874,151.84219678537676 62.07622025425326,151.87780870391538 64.17170051352237,151.9502820819938 C66.2671807727914,152.02338023057297 68.51385549322423,152.13583892069477 70.81925864072068,152.40761408848903 C72.86288294843361,152.64627641974747 74.96086228970545,153.02363780215614 76.99074164640349,153.60155051528184 S80.97990129322314,154.95980158375275 82.76799446615935,155.9619334668377 C84.14498864965046,156.73602411717613 85.4007773560103,157.63944226115422 86.51786701121989,158.60658699620154 C87.63495666642956,159.5737317312489 88.61334727048899,160.6046030573651 89.45303882339827,161.63235053097804 C90.08655611108426,162.40706595181695 90.6432266271871,163.18115660215523 91.12929807671344,163.92838212096433 C91.61599429674042,164.67560763977343 92.03271622069164,165.39596802705347 92.39195925858064,166.06572200377883 C93.1104453343587,167.40522995722927 93.60089017738976,168.54106272745926 93.98200018280248,169.3145286072967 C94.01136439633426,169.37450657536155 93.99262128131392,169.14584057211403 93.91452496872942,168.6947562706256 C93.8364286561448,168.24242242813582 93.69772960499465,167.56767028740515 93.46156635573892,166.74234845601143 C93.22602787698388,165.9170266246177 92.89052611812053,164.94238464356238 92.43256934112465,163.90151698943527 C91.97461256412876,162.86002456480745 91.3923264574982,161.75418077861 90.69320826724122,160.66770487793352 C90.24899644126015,159.9754591631838 89.75792682772844,159.29008592394166 89.23062052515745,158.63220258672942 C88.70331422258644,157.974319249517 88.13977123097622,157.3433010438337 87.55561081284367,156.75351769119501 C86.97207516521172,156.16435910905707 86.36792209105757,155.6164353799637 85.76501855790467,155.12036760242657 S84.56108580310101,154.18008799890828 83.98504740147723,153.7902312064862 zM17.404504685380445,122.5217171886271 C21.65044500797815,112.19301127144269 24.8392736434312,102.97389776345972 31.353755653985395,93.97845209471896 C31.353755653985395,93.97845209471896 34.9349401638633,112.9196193637294 41.69558175168402,120.2006947786137 C51.9655592418049,131.38658582272632 66.9200659459984,137.45685600729965 81.82771486264119,139.0475217020221 C83.3309126872689,139.21246111420064 89.21437649213982,139.4898592165011 85.10276182718756,138.50272182543208 C71.35781081230384,134.6029043602092 57.65971758497082,127.31932986332225 50.08187618226519,114.73957583220022 C44.68448382692057,106.08400531582748 44.65511961338882,94.66445010446185 49.666403799315276,85.83081999539633 C52.533475626919866,80.35283224546444 56.75817375249461,75.77139016400346 61.02285719011259,71.36175997022849 C61.85067810350904,69.1363274468186 56.94685444369888,72.67002939864508 55.8022748864595,73.40600904844209 C48.403742617448,78.55599228551873 44.05471516223865,85.73148148578872 41.000212184431085,94.25647496752 C40.11491238497241,97.10043028659956 40.12990687698867,92.02167088660002 40.106790368463614,89.20895409255431 C38.894110826650476,75.06290041623626 46.17518624153482,66.61412893558744 56.13715187482211,57.065761373748046 C57.90900101474077,55.637536009201426 60.553654544104546,53.077851267929645 56.43141878064078,54.89655819539911 C53.38191396683858,56.12048360622444 50.37551831758317,57.513721822733004 47.46471255493114,59.08814348443798 C51.442626332738655,56.46535692259786 55.5629877847004,54.04874462598099 59.707715286188474,51.710853412449495 C61.94501844911113,48.6882137301764 55.021936531114505,51.39846816211116 53.713042332197205,51.958887301218056 C42.437809106487805,56.659035777807645 31.94041515412067,63.773922239511876 24.148277469682945,73.2441934887668 C14.436220036666235,82.56077119485533 11.1999088431618,97.02358351501638 13.695866993364504,109.98632186305312 C14.674882367924646,114.19789980811362 14.69549979444701,118.9692721217803 17.404504685380445,122.5217171886271 zM93.81581122962254,204.5584573209606 C94.44557989430442,202.71163572096089 95.71573832217986,201.44585068659006 97.18769762177374,201.44585068659006 C98.62217069132707,201.44585068659006 99.86421444667201,202.6460348183898 100.50960237387083,204.4160096468063 C100.77887845966245,203.63004835695529 100.93757016683428,202.74287424599464 100.93757016683428,201.79884601947236 C100.93757016683428,198.63813205654975 99.23382101148941,196.0778225447773 97.13709121121897,196.0778225447773 S93.3453590426131,198.63938159755122 93.3453590426131,201.79884601947236 C93.34598381311376,202.79972836155628 93.5152966187971,203.73875842407307 93.81581122962254,204.5584573209606 zM192.60952096060134,177.84264594153146 C191.9066541473403,171.7261427399081 186.7410516477467,166.29001461352166 180.46210811594756,166.0057440357137 C173.77518944720666,165.58277440675576 167.9848164469365,169.98865597752675 163.86383022447413,174.83437598077384 C157.73733069484004,181.90552850743092 152.8091409855035,190.37054402109715 144.57716486858953,195.29186125492635 C143.69436415113353,195.83728590201696 140.2562520859106,197.76782674910737 140.531775876709,197.02310031230093 C148.04776499984763,192.76653889119177 153.44140873218817,187.30167132177405 158.12593794626073,180.21864815560428 C158.48892960715386,179.23276030553671 161.54093350295875,174.73628701216768 159.64725411540812,177.1047919802325 C153.48139404423142,183.79983266548214 146.9675368041779,191.14900806494018 137.86088198631677,193.652463461151 C136.68818775654688,193.9648487114893 135.47925683773784,194.21725599376265 134.25845527941584,194.39531558645552 C130.29928461662868,195.48678965113731 125.97649752244774,195.27499245140802 122.20225892786084,193.57561668956782 C115.25543573083846,190.67105863192256 110.63400833733408,183.04323558916286 111.4487090702163,175.5334941710309 C111.42746687319331,174.65381730607834 112.04349058686043,172.6314351953884 111.89479520769936,174.6419466665655 C111.53992556331508,180.89152598483287 114.52945240905228,187.32228874829633 119.89873009186644,190.66793477941928 C121.65933336277288,191.8212611236682 123.64485401392287,192.60222424951382 125.7034728136521,193.00020305844475 C126.27951121527587,192.760291186185 127.40159903449086,192.68094533259904 128.5155648371972,192.58035728199008 C125.30611877522182,192.15051517752465 122.22475066588515,190.75977604301863 119.92122182989078,188.45937105952765 C115.4703567830712,184.2902775085132 114.12834974761796,177.14852591527972 117.03103349376113,171.73613906791888 C118.65918541852423,168.62353243354846 121.57311503367956,166.0619733807747 124.9881105903774,165.18229651582215 C122.76642668997172,166.6317640773917 120.71592990675134,168.51294805492876 119.53823751297605,170.92081356453608 C120.26422083476214,169.58255515208697 121.24636006182573,168.38487010229002 122.47215978415304,167.45583636778412 C124.04783098685934,166.27314581000337 125.93713698090514,165.23227815587626 127.94827322258286,165.21915797536198 C128.7461051519468,165.8070670164986 126.05084521202826,166.26127517049042 125.5516535819877,166.81482183409 C121.265103176846,169.03275711149152 118.64606523801001,174.28332839917718 120.07366583205584,179.00097044978565 C120.589101495114,180.81030581974488 121.65371042826675,182.4503283840208 123.07818716980933,183.6773776473496 C124.71071248807709,184.93004250120595 126.75121294328665,185.64665426548203 128.80420880850974,185.72849920107052 C127.26602383584415,185.07936265086772 125.88403148834757,183.74985102542803 125.07932708347627,181.9361422619641 C123.59049898036412,178.58299898483304 124.63574002799587,174.86561450580774 127.41222013300242,173.63294230797288 C128.54492905072897,173.13062682542903 129.79009665857723,173.12562866142358 130.9690385933539,173.5161102243464 C130.6260395884825,174.07153119944792 130.41236807725113,174.82000625925835 130.41236807725113,175.64907671365606 C130.41236807725113,177.35782403300644 131.3070394342199,178.74294023300627 132.41100890891533,178.74294023300627 C133.40626831649305,178.74294023300627 134.22409290187866,177.61397993828376 134.37778644504513,176.14077109768857 C134.66393133435488,176.5499957756316 134.92133678063368,176.99295806061133 135.13438352136438,177.47340657563163 C136.0709145018785,179.58450609741755 136.0021897468041,181.8380532933578 135.131259668861,183.52680795668653 C137.58223434301505,181.40446256588825 138.63622217765632,177.7001982673771 137.22111699362398,174.70504848713378 C136.10215302691233,173.37616163219485 137.60535085154004,173.06502592285796 138.35257637034923,174.07652936345323 C140.89976570160735,176.88299845249222 140.75919233895522,181.2014121531684 139.42030915600537,184.53081415127372 C138.3638222393613,186.75249805167948 136.37642727670934,188.28506008983896 134.45650752813026,189.7157845363883 C136.26271904558615,189.41651946656413 137.89774344585666,188.18947020323543 139.29348074436803,187.00865395695678 C143.88429438333927,182.93889891554994 145.22755095979375,175.83026015885227 142.6172598079672,170.30916324437382 C140.08381542772386,164.5150416210996 133.64930404125622,160.80328007658034 127.36723665695368,161.45429093828523 C121.91673880905165,161.8785101082446 117.05290046128479,165.44345058510493 114.48321939200224,170.18983207874453 C114.11960296060846,170.9358080565523 113.76473331622418,171.4281272110854 114.16083781365313,170.30728893287176 C116.22882817089246,163.5422739515462 123.17440182691348,158.8871089510054 130.17682959849608,159.0989061507348 C136.95184090783238,159.0920336752273 143.34199358875196,163.53290239403603 145.97352693760152,169.72937621974592 C147.60042932136324,173.3111855001245 147.87845219416428,177.39343595154494 146.97628359118733,181.19266536615896 C153.0665464317822,173.38803227170766 158.5520314277222,164.88802961000343 166.92957907129383,159.34694003950327 C170.3045893159485,157.66318354018 166.23608381554297,161.86538992773046 165.33703906506935,162.81316677725673 C162.70488094571905,165.63088173530795 160.73310524558397,168.95216171690436 158.95313408915652,172.34529030607862 C158.28900304693744,173.69479458753983 156.41906493841248,176.03456011257344 156.62398966263441,176.9342296335478 C161.51719222393302,171.36002722651168 166.9227065957864,165.3828478465392 174.44244434192913,163.60662531311596 C181.0056584515361,161.76917527062622 188.69970716736765,164.93113877455016 191.55740743746207,171.2394465198812 C192.5276760250128,173.17810938348035 193.1049639676379,176.1738839342244 192.60952096060134,177.84264594153146 zM122.64772029484314,183.33687772448076 L122.65521754085125,183.3425006589868 L122.64772029484314,183.33687772448076 L122.64772029484314,183.33687772448076 zM75.72870523503688,229.06008204599226 C72.93535632651205,228.44280879132378 70.22635143557861,227.7424410600654 67.62543184126224,226.97084949172995 L69.38728465317,247.49081181595 C70.97982465939457,249.1951857417955 72.59173255113993,250.87956701161954 74.2023909018841,252.5314602154083 L85.4432617500563,230.78757248036288 C82.28942026264113,230.3639780809042 79.0443622821272,229.79231307278513 75.72870523503688,229.06008204599226 zM140.39745021906347,242.96934770255393 C142.17367275248685,240.9900747564106 143.90178795735812,239.02204767927964 145.54805822664085,237.07213894666813 C143.37698073678985,234.44247990932064 140.531775876709,231.0662201236645 140.531775876709,231.0662201236645 L140.39745021906347,242.96934770255393 zM138.02332231649265,226.97084949172995 L138.02332231649265,226.97084949172995 L138.02332231649265,226.97084949172995 L138.02332231649265,226.97084949172995 zM146.32777181148512,236.1399813596588 C147.7616201105378,234.42248725329898 149.1111243919991,232.7356069014723 150.3887800658826,231.090586173191 L150.3887800658826,222.44126336182507 C147.44736054869745,223.75703003624983 144.23479063421874,224.99282608658808 140.80854920850865,226.10679188929436 L146.32777181148512,236.1399813596588 zM151.95820356358206,229.02884352095833 C152.87974005207994,227.7955465526229 153.7556682940285,226.59723673232537 154.55037637088898,225.43828745357047 C153.34769315708667,224.00506392501848 152.03380079416388,222.44376244382772 152.03380079416388,222.44376244382772 L151.95820356358206,229.02884352095833 zM155.23699915113255,224.41241429145958 C156.83766117386574,222.00454878185224 158.11344253624725,219.7947355209593 158.97812490918358,217.86856806737347 C157.1806601787372,219.016896247617 155.18576797007697,220.13960883733273 152.99719690620717,221.21546363949773 L155.23699915113255,224.41241429145958 zM120.20549240769861,230.78757248036288 L131.44636325587078,252.5314602154083 C133.0570216066149,250.87894224111892 134.6689294983604,249.1945609712949 136.26146950458482,247.49081181595 L138.02269754599192,226.97084949172995 C135.42115318117487,227.74181628956484 132.71214829024146,228.4421840208231 129.91942415221735,229.06008204599226 C126.60501664612829,229.79231307278513 123.35870912461303,230.3639780809042 120.20549240769861,230.78757248036288 zM87.06266688780983,230.9974953685902 L87.06266688780983,230.9974953685902 L93.21978017197709,277.1617876635793 L102.82437707887745,235.876952978874 L101.82974244180039,231.60289798374566 C97.3776278539794,231.82031811798112 92.38258770107053,231.6310126562762 87.06266688780983,230.9974953685902 zM101.80037822826863,231.4754448016077 L101.82974244180039,231.60289798374566 C102.16649374166506,231.58665395072813 102.49387348401956,231.56353744220308 102.82437707887745,231.5416704746795 C102.4826276150074,231.51980350715576 102.13525521663122,231.50230993313687 101.80037822826863,231.4754448016077 zM85.6613066547924,237.3982691480212 C85.6613066547924,237.3982691480212 79.04811090513124,247.6282613260987 75.08331730783799,253.42925542488047 C78.94065037901493,257.35843710363514 82.75799813814851,261.0558289266389 86.27420651595605,264.2846428741353 L85.6613066547924,237.3982691480212 L85.6613066547924,237.3982691480212 zM119.98744750296251,237.39764437752063 L119.37517241229949,264.2846428741353 C122.89075601960633,261.0558289266389 126.70872854924065,257.35843710363514 130.56606162041757,253.42925542488047 C126.60064325262357,247.6282613260987 119.98744750296251,237.3982691480212 119.98744750296251,237.39764437752063 L119.98744750296251,237.39764437752063 zM103.84837592948628,231.4754448016077 C103.51349894112367,231.50230993313687 103.1661265427475,231.51980350715576 102.82437707887745,231.5416704746795 C103.1542559032346,231.56291267170246 103.48163564558917,231.5860291802274 103.81838694545377,231.60289798374566 L103.84837592948628,231.4754448016077 zM103.81838694545377,231.60289798374566 L102.82437707887745,235.876952978874 L112.42897398577773,277.1617876635793 L118.58608726994507,230.9974953685902 C113.26616645668435,231.6310126562762 108.27112630377542,231.82031811798112 103.81838694545377,231.60289798374566 z" id="svg_9" stroke="null" transform=""/></g></g><defs><mask id="canvasMaskImageDef" maskUnits="objectBoundingBox" x="0" y="0"><image xmlns:xlink="http://www.w3.org/1999/xlink" id="canvasMaskImage" preserveAspectRatio="none" x="-103.65" y="-36.45" width="400" height="440.0580551523948" xlink:href="http://allinonedesigner.designnbuy.in/media/catalog/product/w/h/white-tees-1_-front_1_3.png"/></mask></defs></svg>