<?xml version="1.0" encoding="utf-8"?>
<!-- Generator: Adobe Illustrator 16.0.0, SVG Export Plug-In . SVG Version: 6.00 Build 0)  -->
<!DOCTYPE svg PUBLIC "-//W3C//DTD SVG 1.1//EN" "http://www.w3.org/Graphics/SVG/1.1/DTD/svg11.dtd">
<svg version="1.1" id="Layer_1" xmlns="http://www.w3.org/2000/svg" xmlns:xlink="http://www.w3.org/1999/xlink" x="0px" y="0px"
	 width="100px" height="100px" viewBox="0 0 100 100" enable-background="new 0 0 100 100" xml:space="preserve">
<path fill="#010101" d="M87.583,39.02v-1.082c-0.063-0.385-0.237-0.907-0.194-1.39c0.025-0.32,0.118-0.584,0.049-0.967
	c-0.049-0.158-0.1-0.315-0.148-0.473c-0.016-0.169-0.031-0.34-0.047-0.508l-0.148-0.296c0.018-0.115,0.033-0.229,0.051-0.343
	c0.035-0.283-0.043-0.568-0.082-0.801c-0.045-0.259,0.08-0.48,0.049-0.688c-0.07-0.247-0.144-0.493-0.213-0.736
	c-0.018-0.208-0.032-0.416-0.049-0.622c-0.035-0.137-0.121-0.282-0.164-0.394c-0.011-0.239-0.021-0.478-0.033-0.72
	c-0.104-0.432-0.502-1.127-0.426-1.537c-0.422-0.193-0.354-1.475-0.441-2.013c-0.071-0.127-0.143-0.252-0.213-0.378
	c-0.022-0.398-0.043-0.797-0.065-1.194c-0.049-0.19-0.172-0.332-0.214-0.557c-0.016-0.327-0.031-0.653-0.048-0.983
	c-0.06-0.08-0.119-0.161-0.181-0.244c-0.088-0.219,0.072-0.632-0.049-0.819c-0.125-0.098-0.25-0.197-0.375-0.294
	c-0.129-0.225-0.146-0.435-0.264-0.654c-0.082-0.104-0.165-0.209-0.245-0.312V20.8c-0.048-0.117-0.139-0.239-0.235-0.355
	c0.156-0.432,0.002-0.838-0.779-1.118c-2.273-0.814-5.627-3.574-6.324-4.162c-0.023-0.181-0.018-0.324-0.076-0.52
	c-0.136-0.221-0.273-0.446-0.408-0.671c-0.082-0.053-0.164-0.108-0.246-0.163v-0.229c-0.06-0.086-0.119-0.173-0.181-0.261
	c-0.021-0.125-0.044-0.252-0.063-0.377l-0.213-0.147c-0.008-0.075-0.013-0.151-0.019-0.229c-0.188-0.32-0.953-0.076-1.047-0.262
	c-0.106-0.286,0.164-0.43,0.213-0.588c0.017-0.175,0.033-0.349,0.05-0.524c0.07-0.125,0.141-0.252,0.211-0.376
	c0.022-0.262,0.045-0.525,0.066-0.786c0.059-0.441-0.047-0.903,0.033-1.343c0.041-0.231,0.182-0.434,0.131-0.737
	c-0.057-0.197-0.109-0.393-0.164-0.589c-0.086-0.448,0.061-0.973-0.098-1.342c-0.104-0.241-0.305-0.554-0.459-0.77l-0.197-0.147
	c-0.016-0.061-0.032-0.119-0.049-0.18c-0.065-0.033-0.131-0.067-0.195-0.099c-0.018-0.061-0.033-0.12-0.05-0.181
	c-0.124-0.109-0.62-0.35-0.786-0.393H73.08c-0.291-0.172-0.348-0.608-0.621-0.787c-0.424-0.275-0.869-0.39-1.359-0.622
	c-0.478-0.224-0.976-0.547-1.586-0.637c-0.203,0.061-0.404,0.12-0.604,0.181c-0.231,0.005-0.459,0.01-0.688,0.016
	c-0.176,0.035-0.265,0.138-0.394,0.197c-0.31,0.139-0.597,0.168-0.867,0.344c-0.147,0.095-0.19,0.325-0.328,0.424
	c-0.059,0.017-0.116,0.033-0.18,0.048c-0.119,0.075-0.281,0.358-0.394,0.442c-0.185,0.141-0.371,0.224-0.556,0.36
	c-0.346,0.253-0.646,0.89-0.901,1.261c-0.059,0.061-0.119,0.12-0.18,0.181c-0.027,0.109-0.055,0.216-0.082,0.327
	c-0.055,0.061-0.109,0.119-0.162,0.181c-0.019,0.163-0.033,0.327-0.05,0.49c-0.071,0.093-0.144,0.187-0.213,0.278
	c-0.011,0.093-0.021,0.186-0.034,0.28C63.816,7.308,63.75,7.4,63.686,7.493c-0.069,0.155-0.107,1.747-0.049,1.979
	c0.047,0.182,0.229,0.304,0.295,0.509c0.303,0.178,0.586-0.07,0.918-0.083c0.016,0.011,0.03,0.022,0.049,0.035
	c0.065,0.213-0.015,0.526-0.213,0.572c-0.117,0.019-0.226-0.171-0.346-0.231c-0.055,0.041-0.109,0.08-0.162,0.117
	c-0.104,0.462,0.258,0.435,0.393,0.703c0.021,0.217,0.043,0.437,0.064,0.655c0.047,0.183,0.266,0.203,0.327,0.344
	c0.011,0.104,0.022,0.208,0.033,0.313c0.082,0.47-0.3,1.233-0.099,1.587s0.86,0.31,1.047,0.688c-0.082,0.271,0.459,1.205,0.605,1.44
	c0.053,0.083,0.196,0.103,0.229,0.213c0.063,0.202-0.129,0.222-0.161,0.327c0.005,0.071,0.01,0.142,0.015,0.212
	c-0.045,0.106-0.208,0.113-0.244,0.263c-0.066,0.262,0.008,0.843,0.049,1.081c0.043,0.257-0.104,0.38-0.131,0.523
	c-0.006,0.027,0.002,0.055,0.014,0.084c-0.077,0.032-0.166,0.07-0.268,0.114c-0.179,0.011-0.393,0.104-0.531,0.237
	c-1.371,0.63-3.537,1.75-3.717,2.642c-0.035,0.037-0.228,0.439-0.244,0.49c-0.006,0.274-0.013,0.544-0.019,0.818
	c-0.031,0.163-0.151,0.805-0.114,0.984c0.023,0.104,0.124,0.221,0.065,0.375c-0.046,0.103-0.154,0.095-0.196,0.181
	c-0.072,0.149-0.027,0.303-0.064,0.491c-0.055,0.22-0.108,0.437-0.164,0.653v0.542c-0.025,0.213-0.055,0.425-0.082,0.637
	c0.127,0.816,0.234,1.84,0.065,2.702c-0.015,0.069-0.06,0.489-0.082,0.522c-0.055,0.093-0.174,0.117-0.213,0.247
	c-0.032,0.241-0.063,0.48-0.098,0.723c-0.056,0.113-0.11,0.228-0.165,0.342c-0.006,0.076-0.01,0.15-0.016,0.229
	c-0.072,0.08-0.144,0.164-0.213,0.246c-0.011,0.081-0.021,0.165-0.033,0.245c-0.061,0.176-0.229,0.369-0.295,0.573
	c-0.011,0.169-0.021,0.339-0.031,0.507c-0.049,0.284-0.096,0.66-0.182,0.965c-0.05,0.087-0.098,0.175-0.146,0.263
	c-0.006,0.121-0.012,0.24-0.016,0.362c-0.072,0.2-0.246,0.378-0.312,0.606c-0.083,0.278-0.017,0.579-0.101,0.834
	c-0.075,0.166-0.151,0.336-0.229,0.505c-0.063,0.225,0.083,0.371,0.049,0.573c-0.06,0.364-0.316,0.773-0.246,1.213
	c0.031,0.174,0.147,0.474,0.084,0.752c-0.056,0.113-0.108,0.229-0.166,0.344v0.491c-0.048,0.142-0.098,0.282-0.146,0.427
	c0.007,0.112,0.012,0.226,0.017,0.341c-0.052,0.225-0.242,0.436-0.294,0.689c-0.038,0.18,0.104,0.307,0.017,0.507
	c-0.032,0.049-0.004,0.027-0.064,0.049c-0.111-0.412-0.404-0.511-0.492-0.769c-0.1-0.296-0.013-0.693-0.131-1.016
	c-0.145-0.396-0.396-0.771-0.541-1.146c-0.068-0.179-0.027-0.483-0.131-0.669c-0.068-0.061-0.141-0.119-0.212-0.181
	c-0.06-0.088-0.021-0.234-0.065-0.344c-0.065-0.092-0.131-0.185-0.197-0.28c-0.123-0.387,0.011-0.848-0.063-1.291
	c-0.019-0.139-0.036-0.276-0.056-0.413c0.104-0.234,0.183-0.601,0.22-1.127c0.026-0.076,0.039-0.156,0.017-0.245
	c0.096-2.579-1.481-5.63-1.996-6.555c-0.01-0.017-0.02-0.029-0.027-0.049c-0.085-0.149-0.139-0.237-0.139-0.237
	c0.004-0.441-1.08-1.022-2.16-1.491l0,0l0,0c-0.623-0.271-1.238-0.502-1.648-0.648l-0.086-0.086
	c-0.131-0.029-0.262-0.056-0.393-0.083c-0.09-0.051-0.243-0.33-0.344-0.41c-0.285-0.228-0.664-0.413-0.654-0.884
	c-0.166-0.121-0.399-0.214-0.524-0.377c-0.162-0.208-0.361-0.485-0.573-0.637c-0.161-0.117-0.379-0.126-0.556-0.247
	c-0.05-0.059-0.099-0.12-0.147-0.181c-0.265-0.19-0.866-0.119-1.064-0.375c0.005-0.071,0.012-0.141,0.017-0.213
	c-0.128-0.172-0.522-0.176-0.784-0.234c-0.01-0.031-0.018-0.063-0.03-0.101c-0.02-0.066-0.027-0.131-0.028-0.197
	c0.024-0.069,0.048-0.138,0.073-0.205c0.04-0.058,0.088-0.058,0.164-0.033c0.005-0.005,0.011-0.01,0.016-0.017v-0.016H45.47
	c-0.006-0.023-0.013-0.048-0.02-0.071c0.02-0.047,0.036-0.093,0.063-0.14l0.181-0.063c-0.031-0.025-0.057-0.053-0.08-0.083
	c0.496-0.676,1.645-1.267,2.219-1.533c0.036,0.024,0.07,0.05,0.095,0.083c0.042-0.019,0.085-0.039,0.128-0.058
	c0.061-0.044,0.09-0.108,0.116-0.173h0.002H48.17c0.029-0.074,0.055-0.149,0.113-0.204c0.122-0.115,0.357-0.144,0.441-0.295
	c0.016-0.07,0.033-0.142,0.048-0.212c0.101-0.12,0.28-0.149,0.344-0.312c0.146-0.372,0.165-1.375,0.033-1.799
	c-0.065-0.089-0.131-0.176-0.197-0.263c-0.026-0.115,0.067-0.21,0-0.328c-0.064-0.054-0.131-0.108-0.196-0.163
	c-0.017-0.081-0.033-0.165-0.049-0.245c-0.125-0.101-0.251-0.198-0.377-0.295c-0.044-0.088-0.087-0.175-0.13-0.263
	c-0.11-0.082-0.219-0.164-0.329-0.245v-0.198c-0.116-0.035-0.128-0.109-0.212-0.164c-0.148-0.041-0.295-0.085-0.441-0.129
	c-0.012-0.07-0.023-0.142-0.034-0.212c-0.388-0.21-0.716-0.075-1.211-0.165c-0.667-0.122-1.154-0.122-1.702,0.13
	c-0.051,0.091-0.014,0.103,0,0.247c-0.126,0.099-0.251,0.196-0.377,0.293c-0.164,0.217-0.104,0.476-0.409,0.558
	c-0.013,0.482-0.34,0.54-0.851,0.442c-0.186-0.053-0.371-0.103-0.556-0.154c-0.351-0.424-1.16-0.522-2.735,0.022
	c-4.765,1.648-4.542,5.196-4.375,6.199c-0.111,0.313,0.105,0.894,0.299,1.036c0.115,0.049,0.229,0.098,0.344,0.146
	c0.148,0.188,0.377,0.515,0.441,0.754c0.063,0.239,0.043,0.483,0.165,0.672c0.146,0.229,0.506,0.185,0.671,0.573
	c0.215,0.512,0.12,1.43,0.441,1.817c0.183,0.22,0.63,0.138,0.883,0.049c0.184,0.082,0.235,0.262,0.393,0.342
	c0.134,0.068,0.405,0.044,0.541,0.066c0.137,0.19,0.288,0.888,0.097,1.179c-0.065,0.048-0.13,0.097-0.195,0.146v0.198
	c-0.077,0.099-0.154,0.198-0.229,0.295c-0.035,0.124,0.016,0.197-0.033,0.309c-0.04,0.094-0.162,0.14-0.197,0.216
	c-0.075,0.161-0.023,0.254-0.114,0.375c-0.077,0.037-0.154,0.076-0.229,0.113c-0.06,0.078-0.122,0.153-0.18,0.229
	c-0.17,0.078-0.339,0.153-0.509,0.231c-0.032,0.069-0.064,0.14-0.097,0.209c-0.065,0.035-0.13,0.066-0.196,0.099
	c-0.146,0.132-0.309,0.422-0.409,0.591c-0.146,0.241-0.06,0.591-0.115,0.932c-0.053,0.695-0.109,1.387-0.162,2.08
	c-0.294,1.408-0.143,3.035-0.492,4.34c-0.028,0.412-0.054,0.826-0.083,1.242c-0.06,0.295-0.195,0.62-0.262,0.868
	c-0.017,0.175-0.032,0.349-0.05,0.525c-0.059,0.085-0.119,0.172-0.18,0.26c-0.087,0.196-0.108,0.668-0.098,0.884
	c-0.135,0.136-0.367,0.325-0.424,0.525c-0.007,0.173-0.012,0.35-0.017,0.522c-0.076,0.076-0.153,0.154-0.229,0.229
	c-0.065,0.256-0.13,0.516-0.195,0.772c-0.059,0.13-0.104,0.338-0.181,0.487c-0.061,0.083-0.121,0.164-0.18,0.249
	c-0.053,0.179,0.031,0.322-0.016,0.488c-0.049,0.173-0.196,0.264-0.246,0.41c-0.01,0.198-0.021,0.393-0.034,0.589
	c-0.102,0.398-0.188,0.867-0.293,1.31c-0.112,0.472-0.252,1.158-0.394,1.653c-0.012,0.153-0.021,0.307-0.033,0.458
	c-0.075,0.282-0.332,0.577-0.425,0.834c-0.044,0.221-0.087,0.438-0.131,0.656c-0.054,0.076-0.109,0.15-0.165,0.229
	c-0.01,0.104-0.021,0.206-0.032,0.312c-0.104,0.377-0.364,0.865-0.507,1.227c-0.163,0.408-0.093,0.914-0.262,1.344
	c-0.056,0.143-0.226,0.174-0.278,0.311v0.591c-0.06,0.283-0.12,0.565-0.179,0.853c-0.034,0.02-0.066,0.043-0.099,0.063
	c-0.177-0.007-0.508-0.191-0.557-0.328c-0.033-0.092,0.015-0.178-0.033-0.245c-0.07-0.101-0.22-0.122-0.261-0.262
	c-0.091-0.302-0.031-0.38-0.312-0.474c-0.056-0.105-0.298-1.053-0.295-1.277c-0.185-0.145-0.484-0.214-0.753-0.276
	c-0.025-0.062-0.006-0.159-0.033-0.215c-0.174-0.374-0.842-0.201-1.244-0.278c-0.049-0.072-0.063-0.103-0.049-0.214l-0.294-0.146
	v-0.018c-0.087-0.137-0.015-0.223-0.066-0.394c-0.043-0.147-0.253-0.163-0.197-0.427c0.03-0.133,0.185-0.244,0.148-0.426
	c-0.083-0.178-0.164-0.357-0.245-0.541c-0.087-0.094-0.201-0.078-0.262-0.209c-0.006-0.027-0.012-0.056-0.018-0.084
	c0.06-0.043,0.12-0.086,0.18-0.129c-0.016-0.07-0.045-0.125-0.017-0.198c0.127-0.094,0.252-0.187,0.377-0.278
	c0.016-0.103,0.032-0.206,0.048-0.31c0.053-0.096,0.208-0.146,0.246-0.23c0.012-0.109,0.022-0.22,0.033-0.329
	c0.084-0.322,0.258-0.896,0.131-1.372c-0.063-0.242-0.294-0.573-0.36-0.82c0.015-0.099,0.033-0.198,0.049-0.295
	c0.023-0.233-0.049-0.408-0.083-0.589c-0.004-0.208-0.01-0.414-0.016-0.622c-0.052-0.196-0.346-0.548-0.457-0.721
	c-0.061-0.095-0.032-0.175-0.066-0.309c-0.008-0.035-0.261-0.56-0.295-0.608c-0.193-0.278-0.929-0.929-1.228-1.113
	c-0.247-0.151-0.693-0.229-0.981-0.344c-0.12-0.065-0.24-0.128-0.361-0.194c-0.235,0.012-0.469,0.021-0.705,0.031
	c-0.238-0.004-0.479-0.01-0.719-0.018c-0.133,0.027-0.2,0.132-0.294,0.181c-0.143,0.018-0.285,0.035-0.427,0.049
	c-0.021,0.007-0.563,0.266-0.604,0.295c-0.164,0.115-0.214,0.359-0.394,0.459c-0.175,0.099-0.485,0.009-0.638,0.115
	c-0.104,0.125-0.208,0.251-0.312,0.376c-0.088,0.054-0.175,0.109-0.262,0.163c-0.022,0.093-0.044,0.188-0.065,0.278
	c-0.049,0.035-0.098,0.066-0.148,0.098c-0.115,0.155-0.229,0.305-0.343,0.459c-0.039,0.158-0.077,0.317-0.114,0.473
	c-0.17,0.369-0.554,0.701-0.688,1.116c-0.098,0.307-0.063,1.964,0.018,2.26c0.053,0.107,0.108,0.217,0.162,0.325
	c0.11,0.423,0.219,0.842,0.328,1.262c0.045,0.258-0.056,0.527,0.049,0.75c0.047,0.104,0.148,0.181,0.246,0.233
	c-0.013,0.313,0.08,0.447,0.083,0.753c0,0-0.593,0.105-1.32,0.395c-0.115,0.021-0.226,0.05-0.333,0.096
	c-0.008,0.025-0.003,0.034-0.003,0.049c-0.288,0.13-0.584,0.296-0.866,0.486c-0.037,0.007-0.08,0.018-0.112,0.021
	c0.009,0.02,0.019,0.025,0.028,0.038c-0.762,0.539-1.393,1.32-1.388,2.436c0,0-1.076,3.668-1.44,6.515c0,0-0.796,2.29-1.257,4.76
	c-0.011,0.033-0.028,0.065-0.036,0.104c-0.011,0.049-0.012,0.1-0.012,0.152c-0.048,0.271-0.089,0.545-0.127,0.815
	c-0.038,0.062-0.07,0.13-0.073,0.241c0.014,0.011,0.027,0.021,0.04,0.031c-0.02,0.172-0.039,0.34-0.053,0.508
	c-0.002,0-0.002,0-0.004,0c0,0.019,0,0.031,0,0.05c-0.035,0.399-0.054,0.792-0.05,1.163c-0.036,0.75-0.056,1.502,0.068,2.078
	c0.088,0.412-0.313,0.69,0.148,0.899c0.194,0.089,0.338-0.044,0.474-0.081c0.335-0.095,0.521,0.039,0.671-0.263
	c0.027-0.099,0.055-0.194,0.083-0.295c0.054-0.045,0.109-0.085,0.164-0.13c0.076-0.11,0.077-0.266,0.179-0.344v-0.02
	c0.122-0.085,0.24-0.079,0.312-0.211c0.197-0.371,0.181-0.799,0.311-1.261c0.077-0.196,0.153-0.396,0.23-0.591
	c0.005-0.088,0.01-0.176,0.016-0.262c0.075-0.168,0.223-0.203,0.246-0.459c0.033-0.004,0.064-0.012,0.098-0.016
	c0.011,0.004,0.021,0.012,0.034,0.016c0.183,0.629,0.264,1.319,0.458,1.914c0.011,0.146,0.022,0.299,0.032,0.444
	c0.044,0.053,0.088,0.11,0.132,0.164c0.005,0.075,0.011,0.153,0.016,0.227c0.131,0.101,0.263,0.197,0.393,0.298v0.211
	c0.046,0.108,0.229,0.209,0.295,0.325c0.116,0.216,0.083,0.449,0.18,0.688c0.093,0.105,0.186,0.208,0.278,0.311
	c0.027,0.264,0.054,0.527,0.082,0.785c0.19,0.422,0.382,0.842,0.573,1.262c0.057,0.279,0,0.61,0.114,0.885
	c0.146,0.207,0.294,0.416,0.442,0.621c0.093,0.244,0.043,0.457,0.097,0.738c0.087,0.387,0.175,0.775,0.263,1.16
	c0.118,0.577,0.087,1.026,0.262,1.541c0.087,0.156,0.175,0.316,0.261,0.477c0.028,0.134,0.056,0.271,0.083,0.408
	c0.065,0.092,0.131,0.185,0.196,0.274c0.044,0.241,0.089,0.481,0.132,0.723c0.064,0.104,0.13,0.208,0.196,0.313
	c0.111,0.283,0.12,0.561,0.278,0.801c0.062,0.064,0.12,0.132,0.18,0.198c0.097,0.198,0.059,0.499,0.147,0.7
	c0.1,0.166,0.198,0.328,0.295,0.492c0.183,0.555-0.274,0.834-0.18,1.373c0.065,0.34,0.13,0.68,0.196,1.016
	c0.01,0.273,0.022,0.548,0.033,0.816c0.131,0.648,0.399,1.352,0.556,1.948c0.107,0.404,0.103,0.589,0.312,0.853
	c0.11,0.139,0.386,0.137,0.524,0.25c-0.054,0.276-0.367,0.263-0.491,0.451c-0.144,0.227,0,0.438-0.082,0.707
	c-0.043,0.145-0.114,0.428-0.196,0.59c-0.088,0.174-0.24,0.242-0.312,0.457c0.049,0.123,0.163,0.205,0.196,0.313v0.375
	c0.048,0.115,0.189,0.146,0.246,0.246c0.08,0.143,0.145,0.33,0.196,0.457c0.057,0.142-0.006,0.32,0.049,0.461
	c0.05,0.05,0.099,0.099,0.147,0.146c0.034,0.104,0.067,0.209,0.1,0.31c0.049,0.032,0.098,0.065,0.147,0.099
	c0.056,0.109,0.018,0.633,0.098,0.817c0.053,0.124,0.201,0.13,0.262,0.249l0.016,0.048c-0.001,0-0.002,0.004-0.005,0.006
	c0.044,0.047,0.065,0.106,0.07,0.171c0.021,0,0.04-0.005,0.066,0.002c0.05,0.288,0.11,0.495,0.311,0.622
	c0.399,0.252,1.697,0.149,2.259,0.067c0.11,0.009,0.219,0.021,0.328,0.033c0.363-0.092,0.695-0.287,1.162-0.364
	c0.375-0.597-0.137-1.464-0.343-1.944c-0.109-0.256-0.141-0.559-0.131-0.9c0.005-0.125,0.011-0.254,0.016-0.377
	c-0.025-0.099-0.053-0.195-0.081-0.293c0.024-0.095,0.142-0.166,0.098-0.346c-0.042-0.172-0.048-0.41-0.098-0.654
	c-0.055-0.266-0.317-0.549-0.18-0.966c0.055-0.059,0.109-0.12,0.164-0.179c0.126-0.296,0.233-0.62,0.31-0.902
	c0.053-0.193-0.051-0.436,0.033-0.588c0.071-0.057,0.143-0.111,0.213-0.166c-0.005-0.08-0.01-0.164-0.016-0.244
	c0.071-0.103,0.142-0.207,0.213-0.311c0.188-0.729-0.094-1.999-0.213-2.602c-0.011-0.59-0.021-1.182-0.033-1.768
	c-0.069-0.384-0.4-0.872-0.294-1.361c0.069-0.156,0.141-0.314,0.212-0.475c0.028-0.227,0.055-0.449,0.082-0.669
	c0.127-0.808-0.634-1.084-0.491-1.869c0.069-0.376,0.352-0.739,0.426-1.131c0.074-0.394-0.141-0.979,0.016-1.354
	c0.1-0.24,0.283-0.391,0.409-0.59c0.166-0.264,0.32-0.662,0.393-1.001c0.077-0.349,0.056-0.823,0.114-1.127
	c0.017-0.213,0.034-0.425,0.049-0.641c0.072-0.069,0.143-0.142,0.213-0.211c0.049-0.093,0.082-0.577,0.099-0.673
	c0.082-0.449-0.197-1.06,0.032-1.342c-0.032-0.082-0.065-0.166-0.098-0.246c0.147-0.104,0.294-0.207,0.442-0.311
	c-0.006-0.053-0.012-0.109-0.017-0.164c0.071-0.097,0.141-0.197,0.212-0.296c0.005-0.092,0.01-0.185,0.016-0.276
	c0.081-0.134,0.349-0.086,0.426-0.229c0.005-0.088,0.011-0.173,0.016-0.265c0.048-0.08,0.099-0.16,0.148-0.242
	c0.005-0.11,0.011-0.221,0.016-0.328c0.065-0.076,0.132-0.154,0.197-0.229V69.85c0.05-0.215,0.132-0.604,0.164-0.832
	c0.043-0.324-0.127-1.023-0.18-1.343c-0.086-0.518,0.121-0.961,0.017-1.505c-0.061-0.23-0.12-0.46-0.18-0.689
	c-0.011-0.772-0.022-1.549-0.033-2.325c-0.066-0.369-0.056-0.779-0.115-1.177c0.011-0.207,0.022-0.414,0.033-0.621
	c-0.047-0.27-0.14-0.518-0.099-0.836c0.01-0.004,0.022-0.012,0.033-0.017c0.281,0.034,0.306,0.271,0.458,0.425
	c0.121,0.125,0.242,0.34,0.376,0.44c0.124,0.099,0.272,0.169,0.361,0.297c0.267,0.385,0.343,0.841,0.916,0.914
	c0.419,0.058,0.788-0.554,1.097-0.62c0.328-0.07,1.169,0.396,1.456,0.293c0.309-0.107,0.266-0.4,0.427-0.556
	c0.287-0.272,0.649-0.53,0.85-0.884c0.039-0.121,0.077-0.239,0.115-0.359c0.055-0.066,0.109-0.13,0.163-0.193
	c0.225-0.695-0.012-1.352-0.261-1.757c-0.071-0.059-0.142-0.118-0.213-0.178c-0.011-0.24-0.022-0.479-0.033-0.724
	c-0.082-0.103-0.163-0.207-0.246-0.31v-0.438c-0.065-0.084-0.131-0.166-0.197-0.25c0.01-0.388,0.331-0.41,0.427-0.719
	c0.044-0.267,0.087-0.535,0.13-0.801c0.061-0.105,0.121-0.205,0.18-0.313v-0.246c0.038-0.123,0.168-0.151,0.23-0.245
	c0.022-0.099,0.043-0.194,0.064-0.294c0.067-0.061,0.131-0.118,0.196-0.18c0.017-0.105,0.034-0.207,0.05-0.313
	c0.065-0.1,0.131-0.196,0.197-0.293c0.005-0.071,0.01-0.143,0.017-0.213c0.049-0.147,0.19-0.188,0.246-0.299
	c0.016-0.116,0.032-0.235,0.049-0.358c0.087-0.187,0.174-0.371,0.262-0.556c0.101-0.07,0.135-0.072,0.279-0.049
	c-0.058-0.256,0.005-0.488,0.229-0.588h0.016c0,0-0.022,0.135-0.051,0.393c-0.011,0.09-0.022,0.199-0.033,0.318
	c-0.033,0.094-0.063,0.182-0.078,0.271c-0.046,0.256-0.029,0.521,0.009,0.767c-0.12,2.725,0.091,8.411,2.927,15.5
	c0,0,0.029,0.008,0.082,0.092c0.012,0.021,0.024,0.039,0.038,0.063c0.201,0.382,0.613,1.691,0.944,6.186
	c-0.164,0.131-0.323,0.304-0.251,0.752c0.054,0.338,0.235,0.524,0.327,0.787c0.017,0.164,0.033,0.326,0.048,0.487
	c0.104,0.204,0.208,0.406,0.311,0.606c0.083,0.267-0.041,0.562,0.018,0.854c0.033,0.165,0.146,0.258,0.195,0.375
	c0.09,0.211,0.024,0.42,0.083,0.676c0.056,0.234,0.214,0.545,0.278,0.783c0.011,0.268,0.022,0.532,0.033,0.799
	c0.104,0.596,0.255,1.189,0.344,1.821c0.106,0.756-0.176,1.181-0.181,1.896c-0.091,0.008-0.104,0.031-0.146,0.084
	c-0.024,0.111-0.014,0.178,0,0.311c0.062-0.031,0.08-0.075,0.098-0.146h0.065c0.179,0.676-0.107,1.361,0.099,2.146
	c0.071,0.27,0.271,0.536,0.36,0.785c0.138,0.373-0.028,1.548-0.13,2.043c-0.111,0.541-0.262,1.064-0.442,1.555
	c-0.099,0.21-0.197,0.417-0.295,0.625c-0.181,0.77,0.329,2.201,0.638,2.553c0.28,0.317,1.269,0.006,1.621,0.213
	c0.018,0.01,0.033,0.021,0.049,0.033c-0.029,0.254-0.175,0.33-0.229,0.508v0.504c-0.07,0.44-0.118,0.771,0.279,0.937
	c0.011,0.023,0.021,0.042,0.033,0.066c-0.092,0.101-0.159,0.098-0.132,0.243c0.906,0.328,2.478,0.213,3.406-0.049
	c0.239-0.026,0.479-0.056,0.72-0.082c0.065-0.06,0.131-0.119,0.197-0.18c0.131-0.02,0.262-0.031,0.392-0.051
	c0.04-0.018,0.372-0.204,0.426-0.243c0.114-0.081,0.141-0.231,0.277-0.295c0.077-0.033,0.125,0.002,0.181,0.033
	c0.011-0.052,0.022-0.101,0.033-0.148c0.239-0.396,0.693-0.096,0.981-0.558c0.157-0.229-0.19-1.09-0.13-1.426
	c0.024-0.131-0.002-0.367,0.065-0.474c0.06-0.09,0.212-0.134,0.246-0.247l0.016-0.31c0.065-0.127,0.132-0.252,0.196-0.376
	c0.062-0.25,0.008-0.432,0.082-0.653c0.099-0.291,0.336-0.657,0.427-0.968c0.021-0.214,0.043-0.426,0.063-0.639
	c0.262-0.873,0.312-1.973,0.491-2.896c0.017-0.363,0.033-0.729,0.049-1.096c0.137-0.85,0.181-2.153,0.05-2.979v-1.311
	c-0.011-0.271-0.041-0.579-0.082-0.803c0.007-0.196,0.011-0.393,0.017-0.59c0.008-0.408-0.024-0.842-0.08-1.195l0.016-0.508
	c-0.038-0.242-0.128-0.524-0.08-0.816c0.004-0.198,0.01-0.395,0.016-0.592c-0.063-0.397-0.115-0.887-0.181-1.258
	c0.017-0.254,0.031-0.504,0.05-0.756c-0.061-0.117-0.119-0.238-0.181-0.357c-0.026-0.176-0.054-0.35-0.083-0.525
	c-0.064-0.437,0.115-0.876,0.182-1.193c0.059-0.293-0.013-0.623,0.032-0.902c-0.011-0.337-0.021-0.676-0.032-1.014
	c0.016-0.241,0.032-0.48,0.049-0.723c-0.115-0.716-0.117-1.513-0.246-2.158c0.006-0.17,0.012-0.338,0.017-0.51
	c-0.026-0.365-0.054-0.729-0.081-1.095v-0.722c0-0.907,0.107-1.528,0.264-2.241c0.01-0.218,0.021-0.438,0.031-0.655
	c0.055-0.32,0.107-0.643,0.165-0.966c-0.036-0.241-0.101-0.577-0.052-0.866c0.107-0.632,0.311-0.974,0.427-1.639
	c0.006-0.037,0.015-0.078,0.019-0.118c0.06-0.245,0.115-0.497,0.168-0.774c0.406-2.102,0.479-4.172,0.375-6.071
	c0.006-0.124,0.002-0.259-0.021-0.4c-0.003-0.012-0.009-0.019-0.009-0.028c-0.146-2.098-0.497-3.958-0.847-5.379
	c0.021-0.085,0.031-0.178,0.021-0.271c-0.062-0.125-0.123-0.247-0.185-0.369c-0.062-0.234-0.121-0.448-0.182-0.648l-0.011-0.21
	c-0.024-0.069-0.063-0.124-0.104-0.176c-0.092-0.295-0.172-0.539-0.236-0.729c-0.028-0.513,0.023-1.189,0.096-1.519
	c0.046-0.212,0.18-0.38,0.229-0.64c0.051-0.249-0.028-0.482,0.019-0.737c0.083-0.266,0.162-0.534,0.244-0.801
	c0.013-0.163,0.022-0.327,0.032-0.49c0.041-0.093,0.158-0.125,0.215-0.213c-0.126-0.344,0.143-0.595,0.244-0.834
	c0.019-0.142,0.033-0.286,0.05-0.427c0.032-0.014,0.065-0.032,0.098-0.049l0.036,0.012c0.033-0.034,0.072-0.063,0.119-0.073
	c0.008-0.122,0.018-0.244,0.025-0.363c0.106-0.079,0.146-0.106,0.312-0.101c0.188,0.208,0.157,0.507,0.278,0.803
	c0.007,0.022,0.016,0.049,0.025,0.074c0.178,0.188,0.307,0.405,0.32,0.658c0.021,0.029,0.041,0.059,0.063,0.086
	c0.022,0.269,0.045,0.537,0.065,0.803c0.043,0.101,0.087,0.198,0.131,0.295c0.044,0.262,0.087,0.523,0.132,0.787
	c0.045,0.138,0.152,0.249,0.194,0.406c0.028,0.242,0.056,0.482,0.084,0.721c0.08,0.292,0.257,0.634,0.425,0.869
	c0.081,0.071,0.164,0.142,0.245,0.212c0.006,0.066,0.013,0.132,0.015,0.198c0.105,0.239,0.211,0.48,0.313,0.717
	c0.231,0.34,0.646,0.897,0.722,1.345c0.295,0.159,0.606,0.486,0.752,0.787c0.016,0.084,0.032,0.173,0.051,0.26
	c0.055,0.032,0.107,0.064,0.162,0.1c0.037,0.099,0.076,0.196,0.115,0.293c0.064,0.049,0.131,0.098,0.195,0.146
	c0.087,0.151,0.175,0.308,0.263,0.459c0.273,0.383,0.748,0.659,0.866,1.193c0.077,0.348,0.002,1.156-0.048,1.425
	c-0.117,0.631,0.094,1.342,0.181,1.819c0.021,0.26,0.043,0.524,0.064,0.782c0.209,0.417,0.502,0.419,0.82,0.689
	c0.047,0.073,0.096,0.151,0.146,0.229c0.08,0.062,0.172,0.064,0.229,0.148c0.313,0.441,0.203,1.178,0.853,1.295
	c0.086,0.014,1.067-0.349,1.178-0.414c0.033-0.063,0.065-0.129,0.099-0.194c0.152-0.114,0.307-0.229,0.459-0.343h0.082
	c0.006,0.037,0.01,0.074,0.017,0.113c-0.044,0.032-0.088,0.064-0.132,0.098c-0.125,0.277,0.138,0.402,0.099,0.623
	c-0.071,0.147-0.144,0.295-0.213,0.442c-0.058,0.253,0.086,0.533,0.033,0.849c-0.065,0.252-0.132,0.504-0.197,0.754
	c-0.11,0.576-0.147,1.104-0.245,1.621c-0.043,0.377-0.086,0.754-0.131,1.127c-0.266,1.121-0.675,2.343-0.98,3.44
	c-0.018,0.267-0.033,0.534-0.051,0.802c0.006,0.19,0.014,0.381,0.018,0.572c-0.073,0.463-0.09,1.329,0.049,1.668
	c0.091,0.229,0.542,0.885,0.475,1.147c-0.07,0.106-0.142,0.218-0.213,0.325v0.215c-0.033,0.212-0.137,0.437-0.18,0.688
	c-0.045,0.268,0.046,0.514,0.082,0.737c0.097,0.601,0.066,1.146,0.179,1.638c-0.005,0.229-0.01,0.457-0.015,0.688
	c0.054,0.394,0.029,1.01,0.113,1.438c-0.006,0.269-0.013,0.537-0.017,0.804c0.004,0.196,0.011,0.393,0.017,0.591v0.866
	c-0.033,0.168-0.064,0.336-0.1,0.508c0.006,0.408,0.012,0.818,0.018,1.229c-0.063,0.37-0.188,0.852-0.115,1.324
	c0.078,0.488,0.037,0.9,0.164,1.376c0.115,0.403,0.229,0.81,0.345,1.211c0.022,0.22,0.044,0.438,0.065,0.654
	c0.104,0.393,0.297,0.829,0.377,1.228c0.021,0.305,0.043,0.61,0.063,0.919c-0.044,0.136-0.28,0.279-0.229,0.521
	c0.135,0.623,1.016,0.596,1.147,1.13c-0.034,0.167-0.067,0.327-0.101,0.49c0.045,0.512-0.166,0.807-0.295,1.212
	c-0.047,0.153-0.03,0.268-0.098,0.393c-0.101,0.187-0.309,0.371-0.427,0.56c-0.037,0.184-0.075,0.371-0.114,0.555
	c-0.06,0.041-0.119,0.078-0.18,0.113c-0.068,0.078-0.161,0.328-0.197,0.41c-0.138,0.34-0.044,0.881-0.195,1.229
	c-0.127,0.291-0.658,1.182-0.588,1.488c0.067,0.305,0.182,0.675,0.393,0.839c0.684,0.528,2.916,0.155,3.617-0.115
	c0.146-0.06,0.332-0.11,0.5-0.147c0.102-0.051,0.207-0.1,0.275-0.185c0.055-0.067,0.1-0.134,0.146-0.198
	c-0.002-0.014-0.004-0.029-0.006-0.043c0.462-0.475,0.731-0.89,1.063-1.509c0.056-0.103,0.161-0.176,0.194-0.312
	c0.152-0.582-0.034-1.168,0.084-1.801c0.059-0.174,0.12-0.346,0.179-0.522c0.066-0.287-0.028-0.567,0.065-0.802
	c0.056-0.084,0.109-0.164,0.164-0.243c0.055-0.165,0.015-0.276,0.1-0.396c0.118-0.168,0.152-0.1,0.245-0.376
	c0.14-0.041,0.453,0.053,0.604-0.046c0.146-0.104,0.517-0.721,0.638-0.901c0.055-0.043,0.11-0.09,0.165-0.129
	c0.037-0.101,0.076-0.197,0.113-0.297c0.061-0.051,0.121-0.099,0.182-0.146c0.016-0.078,0.031-0.151,0.05-0.229
	c0.069-0.108,0.142-0.22,0.211-0.327c0.226-0.695-0.015-1.472-0.327-1.897c-0.104-0.056-0.207-0.11-0.313-0.163
	c-0.242-0.238-0.28-0.623-0.473-0.919c-0.295-0.365-0.591-0.729-0.886-1.097c0.021-0.394,0.367-0.644,0.427-0.979
	c0.012-1.615,0.021-3.23,0.033-4.848c-0.054-0.299-0.21-0.48-0.279-0.803v-0.931c-0.01-0.198-0.021-0.396-0.033-0.591
	c-0.049-0.159-0.098-0.318-0.146-0.477c-0.056-0.277,0.135-0.436,0.083-0.688c-0.09-0.442-0.364-0.84-0.36-1.39
	c0.01-0.018,0.021-0.034,0.033-0.051c0.207-0.104,0.422-0.084,0.605-0.229c0.06-0.099,0.119-0.195,0.18-0.293
	c0.087-0.062,0.176-0.119,0.264-0.181c0.024-0.088,0.053-0.178,0.08-0.263c0.889-1.085,1.156-2.813,1.588-4.354
	c0.012-0.224,0.021-0.448,0.033-0.669c0.068-0.398,0.139-0.713,0.245-1.113c0.07-0.203,0.142-0.406,0.214-0.607
	c0.049-0.285,0.098-0.566,0.146-0.851c0.233-0.569,0.573-1.032,0.752-1.671c0.194-0.692,0.073-1.574,0.296-2.241
	c0.044-0.038,0.088-0.077,0.132-0.117c0.065,0.013,0.048,0,0.081,0.036c0.132,0.176-0.021,0.4,0.033,0.635
	c0.087,0.211,0.174,0.418,0.261,0.625c0.022,0.168,0.044,0.338,0.067,0.51c0.076,0.205,0.15,0.412,0.229,0.619
	c0.006,0.299,0.01,0.603,0.018,0.901c0.076,0.562,0.152,1.123,0.229,1.685c0.012,1.059,0.021,2.115,0.032,3.176
	c0.098,0.586,0.112,1.34,0.214,1.916c0.061,0.347-0.033,0.689,0.016,0.996c0.006,0.435,0.012,0.865,0.017,1.296
	c0.03,0.153,0.135,0.237,0.181,0.36c0.064,0.17,0.004,0.477,0.1,0.655c0.076,0.079,0.151,0.163,0.229,0.244
	c0.229,0.41,0.435,0.948,0.522,1.474c0.135,0.791-0.359,1.098-0.541,1.555c-0.098,0.246,0.018,0.563-0.03,0.834
	c-0.039,0.229-0.166,0.379-0.214,0.57c0.006,0.396,0.011,0.789,0.018,1.183c0.021,0.1,0.122,0.184,0.1,0.327
	c-0.099,0.568-0.447,1.084-0.592,1.586c-0.021,0.225-0.043,0.449-0.063,0.672c-0.177,0.771-0.31,1.828-0.458,2.621
	c-0.176,0.92-0.133,1.962,0.016,2.813c0.01,0.202,0.021,0.405,0.032,0.605c0.153,0.587,0.591,1.204,0.345,1.961
	c-0.432,0.254-1.205,0.43-1.408,0.903v0.475c-0.018,0.098-0.033,0.195-0.05,0.293c-0.071,0.393,0.091,0.834,0.181,1.1
	c0.139,0.394,0.131,0.854,0.263,1.227c0.082,0.236,0.271,0.458,0.344,0.671c0.011,0.202,0.021,0.405,0.032,0.606
	c0.056,0.063,0.109,0.118,0.163,0.18c0.089,0.201-0.019,0.595-0.048,0.783c-0.033,0.207-0.018,0.772-0.025,0.949
	c0.141,0.139,0.27,0.285,0.393,0.434c0.041,0.01,0.082,0.019,0.123,0.027c0.14,0.262,0.463,0.295,0.295,0.688
	c0.672,1.177,2.299,1.046,3.994,1.015v-0.018H76.32v-0.049c0.349-0.032,0.601-0.135,0.885-0.197
	c0.495-0.112,0.896-0.198,1.111-0.571c0.148-0.258,0.035-0.896-0.047-1.098c-0.08-0.187-0.031-0.403-0.101-0.589
	c-0.244-0.354-0.491-0.709-0.735-1.065c-0.193-0.237-0.551-0.371-0.64-0.719c-0.103-0.399,0.599-1.974,0.753-2.323
	c0.563-1.168,1.124-2.338,1.688-3.503c0.136-2.392,0.271-4.78,0.408-7.173c0.383-6.086,0.764-12.18,1.146-18.266
	c0.109-1.6,0.218-3.196,0.327-4.797c0.006-0.539,0.012-1.08,0.017-1.621c0.149-0.271,0.02-0.789,0.114-1.162
	c0.049-0.112,0.099-0.229,0.147-0.344v-1.227c0.228-1.139,0.248-2.521,0.049-3.686c-0.002-0.314-0.367-1.726-0.498-2.219
	c0.014-0.181,0.022-0.368-0.01-0.546c-0.054-0.291-0.195-0.661-0.113-1.032c0.098-0.445,0.209-0.811,0.213-1.392
	c0.021-0.676,0.043-1.353,0.064-2.029c-0.014-0.029-0.096-0.078-0.113-0.114c-0.021-0.317-0.045-0.634-0.066-0.949
	c0.071-0.26,0.143-0.515,0.213-0.77c0.006-0.479,0.012-0.962,0.018-1.44c-0.03-0.14-0.137-0.173-0.164-0.313
	c-0.012-0.388-0.021-0.776-0.032-1.165c-0.024-0.099-0.134-0.236-0.082-0.407c0.017-0.051,0.069-0.117,0.049-0.229
	c-0.028-0.146-0.071-0.207-0.065-0.407c0.021,0.004,0.045,0.006,0.065,0.014c0.087-0.808,0.175-1.616,0.263-2.421
	c0.021,0.015,0.045,0.032,0.064,0.049c-0.027-0.061-0.02-0.059-0.082-0.083c0.068-0.291,0.223-0.656,0.295-0.932h0.082
	c0.104,0.241,0.104,0.552,0.182,0.852c0.107,0.339,0.217,0.676,0.327,1.015c0.037,0.015,0.074,0.031,0.112,0.049
	c0.053,0.091,0.063,0.546,0.1,0.686c0.17,0.659,0.576,1.168,0.736,1.866c0.085,0.367-0.038,0.689-0.018,0.999
	c0.021,0.297,0.123,0.546,0.146,0.787c-0.016,0.189-0.031,0.379-0.049,0.573c0.123,0.734,0.219,1.635,0.345,2.389v0.901
	c0.13,0.854,0.06,1.752,0.296,2.569c0.039,0.142,0.178,0.173,0.213,0.327c0.027,0.171-0.108,0.24-0.133,0.394
	c-0.068,0.482,0.109,1.03,0.164,1.408c0.057,0.394-0.223,0.645-0.295,0.918c0.007,0.09,0.012,0.183,0.018,0.275
	c-0.049,0.088-0.1,0.176-0.146,0.261v0.198c-0.076,0.082-0.152,0.163-0.23,0.246c-0.047,0.12-0.098,0.24-0.146,0.359
	c-0.059,0.066-0.12,0.129-0.18,0.196c-0.032,0.126-0.065,0.25-0.099,0.377c-0.325,0.542-0.626,1.256-0.704,1.997
	c-0.058,0.537-0.221,0.928-0.311,1.474c-0.041,0.245,0.061,0.403,0.064,0.606c0.01,0.318-0.134,0.412,0.1,0.604
	c0.283-0.031,0.73-0.523,0.818-0.751c0.025-0.187,0.053-0.372,0.08-0.56c0.061-0.09,0.121-0.188,0.18-0.275
	c0.068-0.159,0.048-0.32,0.181-0.409c0.179,0.118,0.147,0.927,0.086,1.513c0.065,0.303-0.017,0.578-0.229,0.814
	c-0.021,0.023-0.041,0.033-0.063,0.049c-0.021,0.104-0.048,0.205-0.07,0.309c-0.074,0.187-0.317,0.531-0.262,0.834
	c0.055,0.146,0.109,0.297,0.163,0.441c0.028,0.075,0.054,0.151,0.082,0.229c0.092-0.017,0.187-0.033,0.276-0.052
	c0.063,0.028,0.089,0.138,0.164,0.166c0.336,0.125,0.475-0.213,0.688-0.261c0.231-0.052,0.496,0.043,0.672-0.049
	c0.407-0.224,0.648-0.662,0.998-0.935c0.106-0.084,0.229-0.189,0.327-0.262l0.197-0.052c0.049-0.063,0.098-0.129,0.146-0.194
	c0.137-0.074,0.293-0.106,0.375-0.23c0.143-0.354,0.285-0.706,0.428-1.063V53.25c0.104-0.632,0.021-1.459-0.064-2.078
	c0.005-0.07,0.009-0.143,0.018-0.214c-0.062-0.112-0.121-0.229-0.182-0.343c-0.079-0.328-0.077-1.453-0.018-1.718
	c0.045-0.208,0.193-0.501,0.246-0.787c0.065-0.371-0.064-0.891,0.016-1.23c0.098-0.115,0.197-0.227,0.295-0.342
	c0.1-0.204-0.009-0.482,0.051-0.736c0.059-0.146,0.117-0.295,0.178-0.442c-0.025-0.207-0.053-0.415-0.08-0.623
	c0.01-0.25,0.021-0.5,0.033-0.751c-0.045-0.144-0.09-0.285-0.131-0.427c-0.051-0.305,0.105-0.666,0.064-0.999
	c-0.023-0.151-0.045-0.305-0.064-0.458c0.053-0.383,0.331-0.656,0.408-1.129C88.113,40.438,87.671,39.479,87.583,39.02z
	 M63.932,44.731c-0.051,0.314-0.031,0.526-0.115,0.785c-0.043,0.095-0.086,0.186-0.131,0.278c-0.067,0.278-0.004,0.511-0.099,0.738
	c-0.087,0.102-0.175,0.207-0.262,0.31c-0.005,0.091-0.011,0.175-0.019,0.264c-0.127,0.258-0.4,0.387-0.588,0.587
	c-0.138,0.149-0.117,0.289-0.311,0.394c-0.098,0.529,0.105,0.719,0.195,1.098c0.096,0.4-0.071,0.813,0.016,1.227
	c0.039,0.111,0.076,0.218,0.115,0.328v0.031c-0.459,0.098-0.441-0.303-0.59-0.588c-0.106-0.209-0.291-0.363-0.408-0.539
	c-0.148-0.222-0.209-0.451-0.359-0.674c-0.18-0.259-0.422-0.384-0.477-0.783c0.119-0.268,0.344-0.288,0.574-0.445
	c0.15-0.102,0.159-0.263,0.244-0.441c0.045-0.087,0.088-0.173,0.131-0.261c-0.01-0.168-0.123-0.266-0.131-0.474
	c0.188-0.222,0.389-0.486,0.77-0.509c0.1-0.344,0.369-0.532,0.478-0.867c0.009-0.147,0.021-0.292,0.032-0.442
	c0.063-0.396,0.13-0.794,0.195-1.195c0.005-0.245,0.011-0.49,0.017-0.735c0.021-0.169,0.168-0.271,0.213-0.41
	c0.087-0.271,0.048-0.61,0.163-0.834h0.049c0.104,0.09,0.072,0.18,0.114,0.345c0.168,0.646,0.327,0.583-0.114,1.129
	c0.114,0.388,0.223,0.449,0.458,0.688C64.154,44.067,63.982,44.394,63.932,44.731z"/>
</svg>
