<?xml version="1.0" encoding="utf-8"?>
<!-- Generator: Adobe Illustrator 16.0.0, SVG Export Plug-In . SVG Version: 6.00 Build 0)  -->
<!DOCTYPE svg PUBLIC "-//W3C//DTD SVG 1.1//EN" "http://www.w3.org/Graphics/SVG/1.1/DTD/svg11.dtd">
<svg version="1.1" id="Layer_1" xmlns="http://www.w3.org/2000/svg" xmlns:xlink="http://www.w3.org/1999/xlink" x="0px" y="0px"
	 width="100px" height="100px" viewBox="0 0 100 100" enable-background="new 0 0 100 100" xml:space="preserve">
<path fill="#F09D20" d="M7.32,49.378c0.036,0.476,0.137,0.939,0.286,1.379c0.149,0.438,0.341,0.857,0.567,1.252
	c0.226,0.394,0.48,0.767,0.76,1.114c0.07,0.086,0.141,0.172,0.212,0.257l0.11,0.127l0.11,0.122c0.146,0.164,0.297,0.323,0.448,0.479
	c0.607,0.627,1.249,1.221,1.944,1.742c0.346,0.262,0.702,0.51,1.07,0.74c0.366,0.232,0.742,0.45,1.126,0.649
	c0.766,0.405,1.566,0.741,2.382,1.036l0.055-0.168l0,0l-0.054,0.168c1.802,0.582,3.803,0.875,5.966,0.875
	c0.547,0,1.104-0.02,1.671-0.058c2.116-0.141,4.35-0.54,6.649-1.186c-0.055,0.087-0.112,0.175-0.167,0.263
	c-0.305,0.489-0.596,0.984-0.877,1.486c-0.278,0.504-0.546,1.013-0.806,1.523c-0.52,1.025-1.005,2.064-1.48,3.106
	c-0.237,0.521-0.473,1.044-0.704,1.563c-0.232,0.516-0.477,1.026-0.737,1.526c-0.521,1-1.115,1.957-1.808,2.837
	c-0.344,0.439-0.725,0.855-1.102,1.296c-0.375,0.44-0.749,0.901-1.051,1.427c-0.151,0.26-0.285,0.537-0.39,0.83
	c-0.104,0.291-0.173,0.599-0.202,0.909c-0.015,0.156-0.019,0.313-0.013,0.47l0.006,0.113c0.003,0.04,0.005,0.081,0.009,0.119
	c0.008,0.077,0.018,0.155,0.03,0.232c0.052,0.31,0.15,0.619,0.305,0.901c0.154,0.283,0.367,0.536,0.613,0.737
	c0.247,0.201,0.522,0.357,0.809,0.466c0.287,0.11,0.58,0.183,0.873,0.231c0.273,0.048,0.548,0.07,0.821,0.078
	c0.446,0.379,1.331,0.104,2.278-0.344c-0.928,0.84-1.785,1.717-2.676,2.736l-0.044,0.052l0.001,0.067
	c0.008,0.646,0.202,1.056,0.575,1.216c0.113,0.048,0.236,0.067,0.367,0.067c0.447,0.003,0.975-0.254,1.453-0.564
	c-0.321,0.505-0.522,1.023-0.4,1.46c0.103,0.367,0.416,0.628,0.928,0.775c0.124,0.034,0.247,0.054,0.37,0.054
	c0.537,0,1.058-0.34,1.534-0.99c-0.055,0.314-0.086,0.639-0.085,0.971c0.003,0.219,0.027,0.441,0.083,0.666
	c0.056,0.226,0.147,0.455,0.293,0.662c0.145,0.211,0.35,0.391,0.578,0.508c0.228,0.121,0.473,0.185,0.708,0.212
	c0.236,0.028,0.466,0.024,0.689,0.004c0.22-0.021,0.443-0.058,0.667-0.118c0.224-0.063,0.45-0.148,0.663-0.275
	c0.214-0.127,0.415-0.293,0.577-0.492c0.163-0.196,0.288-0.42,0.377-0.646c0.09-0.229,0.148-0.458,0.187-0.685
	c0.075-0.45,0.078-0.887,0.059-1.311l-0.016-0.303l-0.013-0.292c-0.008-0.194-0.011-0.388-0.01-0.577
	c0.003-0.38,0.03-0.75,0.094-1.105c0.063-0.354,0.167-0.695,0.309-1.023c0.144-0.327,0.32-0.646,0.527-0.958
	c0.103-0.153,0.213-0.308,0.329-0.457l0.181-0.233l0.183-0.231c0.246-0.31,0.498-0.615,0.753-0.921l1.553-1.836
	c0.232-0.273,0.463-0.549,0.694-0.827c1.504,2.114,3.114,3.664,4.791,4.606c1.334,0.752,2.723,1.129,4.15,1.129
	c0.893,0,1.801-0.148,2.722-0.442c0.773,0.517,1.619,0.923,2.437,1.315c0.271,0.129,0.55,0.264,0.816,0.396
	c1.521,0.761,3.016,1.676,4.461,2.561c1.013,0.619,2.061,1.262,3.1,1.838c1.344,0.746,2.783,1.371,4.174,1.976
	c1.21,0.524,2.462,1.069,3.639,1.688l0.146,0.075l0.088-0.139c0.047-0.075,0.093-0.154,0.14-0.238l0.016-0.016l0.008-0.028
	c0.156-0.297,0.283-0.604,0.41-0.898c0.06,0.068,0.121,0.131,0.186,0.188c0.146,0.126,0.301,0.229,0.455,0.327
	s0.313,0.181,0.471,0.265c0.157,0.081,0.315,0.16,0.474,0.236c0.315,0.146,0.633,0.286,0.938,0.432
	c0.307,0.139,0.609,0.277,0.873,0.434c0.133,0.076,0.254,0.16,0.34,0.234c0.035,0.03,0.096,0.09,0.144,0.139
	c0.049,0.05,0.096,0.104,0.141,0.156c0.179,0.215,0.316,0.453,0.421,0.715c0.209,0.521,0.272,1.141,0.297,1.795
	c0.006,0.164,0.01,0.332,0.012,0.498l0.002,0.5l-0.006,0.51c-0.002,0.172,0,0.344,0,0.52c0,0.348,0.004,0.701,0.024,1.065
	c0.007,0.092,0.013,0.183,0.021,0.274c0.011,0.092,0.021,0.187,0.037,0.278c0.027,0.188,0.064,0.377,0.117,0.568
	c0.053,0.19,0.121,0.386,0.215,0.575c0.09,0.189,0.215,0.375,0.365,0.535c0.148,0.162,0.326,0.301,0.514,0.404
	c0.188,0.104,0.384,0.182,0.58,0.227c0.194,0.047,0.389,0.069,0.576,0.08c0.188,0.012,0.375,0.008,0.557-0.01
	c0.182-0.017,0.361-0.039,0.535-0.07c0.177-0.033,0.351-0.07,0.521-0.118l0,0l0.143-0.017l0.013-0.145
	c0.075-0.799,0.274-1.592,0.489-2.381c0.217-0.789,0.455-1.578,0.652-2.383c0.195-0.803,0.355-1.627,0.368-2.473
	c0.004-0.422-0.03-0.849-0.128-1.266c-0.048-0.217-0.133-0.43-0.243-0.619c-0.108-0.193-0.243-0.367-0.391-0.525
	c-0.294-0.317-0.636-0.576-0.986-0.806c-0.353-0.229-0.718-0.429-1.088-0.617c-0.737-0.378-1.495-0.702-2.209-1.084
	c-0.179-0.095-0.353-0.194-0.521-0.304c-0.041-0.025-0.082-0.053-0.123-0.082l-0.131-0.088c-0.086-0.059-0.175-0.114-0.264-0.17
	c-0.354-0.221-0.72-0.422-1.09-0.608c-0.743-0.372-1.508-0.688-2.264-1.004c-0.758-0.315-1.512-0.634-2.231-1.01
	c-0.183-0.095-0.358-0.192-0.534-0.293l-0.529-0.313c-0.354-0.209-0.711-0.414-1.067-0.619c-1.424-0.818-2.851-1.631-4.172-2.588
	c-1.99-1.436-3.673-3.254-5.509-4.92c0.222-0.385,0.42-0.783,0.598-1.191c0.43,0.398,0.872,0.785,1.322,1.16
	c0.637,0.524,1.289,1.028,1.951,1.519c0.332,0.243,0.666,0.483,1.004,0.721c0.336,0.234,0.678,0.466,1.018,0.695
	c0.684,0.458,1.369,0.905,2.059,1.353c0.688,0.447,1.394,0.885,2.125,1.286c0.732,0.401,1.496,0.769,2.297,1.06
	c0.799,0.289,1.641,0.506,2.5,0.598c0.215,0.023,0.432,0.04,0.646,0.05l0.082,0.003l0.082,0.004h0.092l0.086-0.002
	c0.115-0.003,0.227-0.008,0.338-0.018c0.445-0.035,0.868-0.109,1.289-0.203c0.211-0.047,0.418-0.1,0.625-0.158
	c0.104-0.029,0.209-0.062,0.303-0.089c0.09-0.024,0.185-0.053,0.276-0.077c0.376-0.1,0.767-0.181,1.167-0.264
	c0.401-0.083,0.813-0.169,1.229-0.283c0.416-0.115,0.838-0.259,1.248-0.451l0.074-0.037l0.072-0.035l0.139-0.069l0.279-0.142
	l0.551-0.289l1.082-0.574c0.717-0.381,1.432-0.743,2.158-1.049l0.135-0.055l0.06-0.022l0.062-0.022
	c0.082-0.029,0.163-0.055,0.242-0.074c0.159-0.041,0.313-0.063,0.452-0.063c0.278,0.004,0.485,0.086,0.688,0.28
	c0.203,0.195,0.379,0.5,0.526,0.837c0.147,0.338,0.272,0.711,0.394,1.094c0.123,0.383,0.24,0.781,0.381,1.183
	c0.136,0.396,0.281,0.789,0.439,1.18c0.317,0.777,0.674,1.547,1.133,2.287c0.229,0.369,0.486,0.729,0.804,1.07
	c0.157,0.168,0.331,0.332,0.532,0.48c0.199,0.148,0.427,0.281,0.688,0.374c0.261,0.094,0.558,0.139,0.851,0.108
	c0.291-0.025,0.566-0.121,0.801-0.248c0.227-0.121,0.459-0.293,0.643-0.509c0.184-0.213,0.32-0.462,0.407-0.712
	c0.088-0.25,0.133-0.501,0.151-0.74c0.021-0.242,0.015-0.479-0.004-0.707c-0.039-0.455-0.131-0.887-0.246-1.304
	c-0.229-0.834-0.547-1.614-0.879-2.375c-0.166-0.378-0.343-0.756-0.496-1.112l-0.476-1.127c-0.313-0.752-0.619-1.504-0.901-2.262
	c-0.071-0.189-0.141-0.38-0.209-0.568l-0.099-0.281l-0.019-0.057l-0.018-0.063l-0.037-0.139l-0.146-0.598
	c-0.052-0.204-0.109-0.412-0.179-0.623c-0.071-0.212-0.15-0.425-0.277-0.65c-0.064-0.112-0.143-0.23-0.262-0.35
	c-0.063-0.061-0.131-0.117-0.227-0.171c-0.011-0.006-0.074-0.04-0.107-0.054c-0.037-0.018-0.076-0.03-0.115-0.044
	c-0.156-0.05-0.313-0.065-0.454-0.063c-0.144,0.004-0.274,0.023-0.396,0.053c-0.246,0.056-0.459,0.14-0.66,0.224
	c-0.198,0.085-0.387,0.176-0.559,0.249c-0.044,0.018-0.085,0.035-0.124,0.051l-0.137,0.049l-0.287,0.1
	c-0.383,0.132-0.769,0.259-1.157,0.386c-0.775,0.253-1.563,0.505-2.34,0.8c-0.39,0.146-0.775,0.307-1.156,0.482
	c-0.095,0.043-0.191,0.091-0.281,0.136l-0.135,0.063l-0.134,0.062c-0.18,0.081-0.36,0.155-0.547,0.228
	c-0.739,0.28-1.517,0.476-2.312,0.642c-0.809,0.176-1.596,0.362-2.394,0.51c-0.796,0.147-1.597,0.258-2.396,0.286
	c-0.397,0.011-0.797-0.002-1.185-0.061c-0.382-0.061-0.758-0.166-1.075-0.365c-0.291-0.25-0.507-0.432-0.675-0.572
	c-0.528-0.447-0.598-0.504-1.29-1.201c-0.728-0.732-1.586-1.363-2.417-1.974c-0.688-0.507-1.401-1.029-2.028-1.604
	c-1.604-1.472-3.496-2.84-5.926-4.283c-0.014-0.063-0.027-0.125-0.041-0.188c-0.025-0.122-0.058-0.261-0.091-0.39
	c-0.131-0.519-0.297-1.03-0.503-1.527c-0.406-0.996-0.964-1.932-1.628-2.771c-0.621-0.791-1.331-1.5-2.082-2.146
	c0.749-0.268,1.495-0.541,2.239-0.828c1.121-0.441,2.234-0.914,3.331-1.439c0.548-0.261,1.087-0.543,1.62-0.838
	c0.267-0.146,0.531-0.298,0.795-0.453c0.262-0.154,0.525-0.316,0.783-0.483c0.518-0.334,1.022-0.688,1.51-1.075
	c0.484-0.388,0.953-0.803,1.394-1.251c0.441-0.448,0.854-0.933,1.222-1.458c0.369-0.525,0.69-1.093,0.939-1.702
	c0.244-0.609,0.412-1.263,0.477-1.927c0.033-0.333,0.039-0.669,0.021-1.003c-0.02-0.336-0.064-0.674-0.143-1.007
	c-0.152-0.666-0.435-1.307-0.814-1.872c-0.378-0.565-0.852-1.056-1.373-1.461c-0.521-0.409-1.086-0.741-1.668-1.013
	c-0.585-0.273-1.188-0.487-1.801-0.653c-0.613-0.165-1.24-0.283-1.866-0.354c-0.313-0.034-0.619-0.063-0.937-0.078
	c-0.308-0.015-0.623-0.022-0.934-0.02c-1.246,0.007-2.486,0.148-3.701,0.412c-1.213,0.261-2.396,0.662-3.521,1.181
	c-0.563,0.26-1.113,0.552-1.644,0.875c-0.265,0.162-0.525,0.332-0.78,0.51c-0.126,0.09-0.251,0.182-0.378,0.277
	c-0.119,0.091-0.246,0.188-0.366,0.287c-0.972,0.789-1.813,1.727-2.503,2.749c-0.345,0.512-0.657,1.042-0.939,1.584
	c-0.282,0.542-0.538,1.096-0.767,1.658c-0.23,0.562-0.44,1.128-0.635,1.699c-0.001,0.002-0.001,0.004-0.002,0.008
	c-0.576-0.595-1.101-1.235-1.543-1.919c-0.265-0.408-0.5-0.83-0.708-1.271c-0.205-0.436-0.382-0.889-0.526-1.351
	c-0.29-0.925-0.454-1.893-0.526-2.876c-0.072-0.985-0.058-1.986,0.002-2.993c0.06-1.008,0.163-2.022,0.271-3.044l0.081-0.769
	c0.027-0.255,0.055-0.517,0.077-0.785c0.044-0.531,0.066-1.063,0.076-1.59c0.035-2.114-0.15-4.178-0.196-6.207
	c-0.052-2.071-0.163-4.171-0.521-6.262c-0.18-1.043-0.421-2.087-0.752-3.104c-0.172-0.522-0.367-1.024-0.592-1.52
	c-0.006-0.013-0.012-0.025-0.018-0.038c0.318,0.349,0.623,0.712,0.917,1.085c1.051,1.345,1.958,2.813,2.736,4.346
	c0.387,0.767,0.742,1.552,1.05,2.354c0.308,0.803,0.57,1.62,0.748,2.459c0.179,0.84,0.276,1.698,0.334,2.562
	c0.055,0.863,0.075,1.731,0.091,2.599c0.043-0.867,0.086-1.734,0.078-2.605c-0.004-0.87-0.063-1.744-0.203-2.611
	c-0.135-0.868-0.372-1.718-0.651-2.547c-0.281-0.83-0.608-1.643-0.97-2.44c-0.728-1.593-1.589-3.128-2.618-4.563
	c-0.515-0.716-1.075-1.406-1.702-2.043c-0.186-0.189-0.377-0.373-0.575-0.551c0.326,0.264,0.647,0.534,0.963,0.81
	c0.922,0.814,1.799,1.683,2.584,2.627c0.392,0.473,0.759,0.965,1.09,1.479c0.331,0.514,0.613,1.061,0.889,1.616
	c0.275,0.555,0.541,1.118,0.833,1.67c0.292,0.552,0.611,1.095,0.993,1.596c0.047,0.063,0.096,0.125,0.146,0.186
	c0.049,0.061,0.104,0.124,0.159,0.18c0.111,0.116,0.229,0.223,0.353,0.322c0.246,0.2,0.511,0.372,0.788,0.523
	c0.276,0.151,0.566,0.279,0.868,0.373c0.301,0.094,0.615,0.156,0.935,0.153c0.317-0.002,0.645-0.077,0.912-0.261
	c0.269-0.181,0.457-0.458,0.567-0.753c0.058-0.146,0.097-0.304,0.107-0.463c0.012-0.158,0-0.317-0.032-0.472
	c-0.063-0.309-0.2-0.599-0.379-0.855c-0.181-0.254-0.407-0.481-0.678-0.639c-0.136-0.078-0.284-0.138-0.441-0.157
	c-0.156-0.02-0.322,0.01-0.451,0.102c-0.131,0.09-0.221,0.227-0.28,0.37c-0.06,0.144-0.093,0.298-0.114,0.452
	c-0.041,0.309-0.031,0.622-0.003,0.93c-0.026-0.309-0.033-0.621,0.009-0.929c0.022-0.153,0.058-0.306,0.119-0.448
	c0.061-0.141,0.151-0.273,0.279-0.359c0.127-0.088,0.287-0.115,0.438-0.093c0.152,0.021,0.297,0.081,0.429,0.159
	c0.264,0.159,0.484,0.385,0.659,0.639c0.173,0.253,0.302,0.54,0.356,0.842c0.028,0.15,0.037,0.303,0.022,0.455
	c-0.014,0.152-0.054,0.298-0.112,0.439c-0.112,0.283-0.295,0.539-0.549,0.702c-0.251,0.165-0.557,0.229-0.858,0.225
	c-0.303-0.004-0.604-0.068-0.894-0.165c-0.29-0.098-0.568-0.227-0.834-0.379c-0.265-0.153-0.517-0.329-0.748-0.527
	c-0.116-0.099-0.226-0.203-0.327-0.314c-0.051-0.056-0.098-0.112-0.144-0.173c-0.047-0.061-0.093-0.122-0.137-0.184
	c-0.358-0.499-0.656-1.039-0.929-1.592c-0.273-0.554-0.522-1.121-0.783-1.687c-0.261-0.566-0.535-1.131-0.858-1.673
	c-0.322-0.542-0.68-1.061-1.063-1.559c-0.768-0.996-1.63-1.912-2.538-2.776c-0.905-0.867-1.859-1.682-2.841-2.457
	c-0.492-0.388-0.988-0.77-1.492-1.142c-0.17-0.125-0.341-0.248-0.512-0.372c-0.237-0.277-0.487-0.546-0.758-0.797
	c-0.431-0.402-0.907-0.769-1.428-1.066c-0.521-0.297-1.082-0.527-1.659-0.686c-0.132-0.037-0.265-0.069-0.398-0.098
	c0.364-0.068,0.731-0.114,1.1-0.134c0.87-0.048,1.748,0.042,2.595,0.257c0.849,0.215,1.666,0.552,2.437,0.975
	c0.771,0.422,1.498,0.929,2.181,1.488c0.682,0.559,1.322,1.172,1.925,1.819c0.301,0.324,0.593,0.657,0.877,0.996
	c0.286,0.339,0.552,0.69,0.795,1.06c0.489,0.737,0.888,1.532,1.22,2.353c0.333,0.822,0.602,1.668,0.845,2.521
	c-0.229-0.857-0.484-1.709-0.804-2.538c-0.319-0.829-0.707-1.634-1.187-2.385c-0.239-0.375-0.503-0.737-0.784-1.082
	c-0.28-0.346-0.567-0.685-0.865-1.015c-0.596-0.661-1.23-1.29-1.91-1.867c-0.68-0.577-1.407-1.102-2.186-1.545
	c-0.777-0.443-1.607-0.802-2.476-1.038c-0.869-0.237-1.774-0.346-2.678-0.311c-0.67,0.025-1.337,0.129-1.985,0.299l-0.016-0.002
	l-0.217-0.02l-0.218-0.021c-0.574-0.049-1.158-0.076-1.739-0.065c-0.583,0.011-1.164,0.053-1.746,0.135
	c-0.046,0.006-0.09,0.013-0.136,0.02c-1.133-1.983-1.831-4.351-1.793-6.13l0.01-0.459L22.692,2.26
	c-2.038,2.154-2.762,4.838-2.158,7.985c-0.146,0.119-0.288,0.243-0.423,0.375c-0.433,0.421-0.804,0.907-1.093,1.435
	c-0.23,0.415-0.405,0.854-0.535,1.304c-0.941,0.528-1.722,1.246-2.269,2.09c-0.602,0.93-0.865,1.926-0.762,2.88
	c0.096,0.902,0.521,1.715,1.238,2.378c-0.004,0.01-0.009,0.021-0.013,0.031c-0.094,0.232-0.173,0.481-0.224,0.733
	c-0.026,0.125-0.046,0.251-0.061,0.378l-0.01,0.096l-0.008,0.089c-0.006,0.069-0.009,0.128-0.011,0.193
	c-0.011,0.254,0.002,0.514,0.043,0.773c0.079,0.517,0.271,1.037,0.582,1.478c0.307,0.441,0.715,0.803,1.167,1.057
	c0.45,0.258,0.938,0.42,1.43,0.5c0.246,0.041,0.493,0.063,0.739,0.066c0.246,0.002,0.491-0.014,0.734-0.046
	c0.485-0.063,0.956-0.203,1.398-0.401c0.155-0.072,0.308-0.153,0.454-0.241c0.313,0.279,0.66,0.566,1.053,0.87l0.106-0.137
	l0.006-0.006l-0.111,0.144c0.463,0.358,0.944,0.705,1.41,1.04c0.433,0.312,0.88,0.634,1.309,0.962l0.108-0.141v0.001l-0.107,0.14
	c0.778,0.596,1.776,1.418,2.584,2.49c2.311,3.067,3.326,6.942,2.715,10.367c-0.162,0.913-0.375,1.867-0.582,2.789
	c-0.394,1.761-0.802,3.582-0.913,5.333c-0.032,0.499-0.029,1.013,0.006,1.557c-0.43-0.518-0.875-1.026-1.339-1.52
	c-0.298-0.315-0.601-0.625-0.913-0.927c-0.313-0.301-0.634-0.594-0.964-0.879c-1.315-1.143-2.793-2.124-4.4-2.858
	c-0.201-0.092-0.403-0.177-0.61-0.261c-0.108-0.043-0.2-0.079-0.308-0.121c-0.103-0.04-0.208-0.078-0.312-0.115
	c-0.414-0.148-0.835-0.282-1.258-0.402c-0.849-0.238-1.713-0.424-2.591-0.54c-0.878-0.115-1.768-0.169-2.663-0.134
	c-0.893,0.035-1.792,0.153-2.672,0.391c-0.877,0.238-1.737,0.596-2.52,1.093l-0.145,0.096l-0.142,0.096
	c-0.101,0.071-0.192,0.139-0.287,0.213c-0.187,0.146-0.366,0.303-0.537,0.472c-0.341,0.337-0.645,0.722-0.888,1.146
	c-0.245,0.424-0.426,0.887-0.53,1.365C7.311,48.414,7.281,48.902,7.32,49.378z M12.785,44.62c0.516-0.146,1.048-0.25,1.587-0.317
	c0.418,0.884,0.821,1.768,1.103,2.69c0.167,0.549,0.288,1.11,0.317,1.673c0.024,0.475-0.022,0.948-0.163,1.394
	c-0.785-0.354-1.557-0.731-2.298-1.124c-0.436-0.231-0.891-0.461-1.331-0.684c-0.511-0.259-1.036-0.525-1.55-0.802
	c0.286-0.302,0.599-0.582,0.931-0.846c0.396-0.317,0.819-0.607,1.248-0.915c-0.512,0.127-1.002,0.333-1.463,0.599
	c-0.424,0.249-0.82,0.555-1.163,0.918c-0.252-0.142-0.49-0.28-0.714-0.416c0.126-0.17,0.265-0.332,0.417-0.483
	c0.134-0.133,0.277-0.259,0.428-0.379c0.074-0.059,0.155-0.119,0.229-0.172l0.124-0.085l0.123-0.081
	C11.271,45.159,12.01,44.839,12.785,44.62z M21.919,45.282c0.005,0.002,0.009,0.003,0.013,0.004c0.3,0.542,0.6,1.083,0.888,1.628
	c0.37,0.704,0.719,1.417,1.015,2.149c0.302,0.743,0.617,1.473,0.887,2.218c0.135,0.371,0.26,0.746,0.366,1.126
	c0.082,0.293,0.152,0.59,0.199,0.886c-0.526-0.139-1.034-0.279-1.488-0.406c-0.305-0.084-0.592-0.164-0.86-0.236
	c-0.893-0.239-1.785-0.506-2.654-0.789c-1.419-0.467-2.794-0.987-4.098-1.555c0-0.001,0-0.002,0.001-0.003
	c0.025-0.078,0.048-0.156,0.069-0.236c0.042-0.158,0.073-0.317,0.095-0.478c0.046-0.319,0.049-0.641,0.028-0.955
	c-0.022-0.314-0.069-0.622-0.134-0.922c-0.066-0.301-0.154-0.593-0.25-0.879c-0.312-0.914-0.736-1.76-1.195-2.577
	c0.129-0.011,0.257-0.021,0.386-0.028c0.82-0.045,1.65-0.019,2.476,0.071c0.826,0.09,1.649,0.234,2.459,0.436
	c0.405,0.101,0.807,0.214,1.205,0.343c0.099,0.032,0.197,0.064,0.295,0.098C21.718,45.21,21.828,45.248,21.919,45.282z
	 M30.549,51.457c0.027,0.244,0.059,0.494,0.098,0.744c0.089,0.586,0.213,1.219,0.387,1.979c-0.984,0.033-2.148-0.086-3.548-0.367
	c-0.462-0.093-0.952-0.203-1.487-0.336c-0.063-0.436-0.171-0.843-0.294-1.24c-0.125-0.396-0.268-0.779-0.419-1.157
	c-0.303-0.756-0.647-1.485-0.97-2.208c-0.331-0.745-0.711-1.46-1.109-2.158c-0.232-0.407-0.47-0.808-0.708-1.207
	c0.001,0.001,0.002,0.002,0.004,0.002c0.772,0.313,1.522,0.687,2.244,1.115c0.72,0.429,1.417,0.903,2.086,1.42
	c0.335,0.257,0.663,0.525,0.984,0.802c0.323,0.274,0.64,0.557,0.952,0.847C29.377,50.26,29.969,50.854,30.549,51.457z
	 M29.245,71.093l-0.007-0.016c-1.405-3.422,1.074-6.829,3.262-9.836c0.092-0.126,0.183-0.251,0.273-0.376
	c0.443,1.437,0.94,2.855,1.479,4.223c0.303,0.771,0.619,1.521,0.94,2.24c-0.218,0.426-0.435,0.852-0.657,1.27
	c-0.374,0.696-0.775,1.371-1.256,1.975c-0.48,0.603-1.047,1.127-1.695,1.544c-0.563,0.364-1.177,0.649-1.82,0.879
	C29.753,72.326,29.433,71.548,29.245,71.093z M15.815,18.382l0.039,0.031c0.416-0.5,1.009-0.856,1.581-1.201
	c0.273-0.165,0.553-0.333,0.813-0.517c0.076,0.586,0.21,1.163,0.393,1.719c-0.035,0.023-0.065,0.044-0.104,0.073
	c-0.194,0.139-0.378,0.288-0.558,0.449c-0.359,0.32-0.688,0.694-0.955,1.121c-0.063,0.101-0.122,0.205-0.176,0.31
	C16.268,19.802,15.916,19.126,15.815,18.382z M20.642,11.18c0.028-0.026,0.058-0.052,0.088-0.078
	c0.093,0.359,0.205,0.726,0.331,1.096c-0.037,0.045-0.074,0.092-0.109,0.138c-0.673,0.873-1.124,1.881-1.372,2.922
	c-0.212,0.891-0.276,1.805-0.212,2.703c-0.083,0.045-0.165,0.092-0.246,0.141c-0.044,0.025-0.087,0.053-0.131,0.08
	c-0.08-0.344-0.142-0.69-0.186-1.039c-0.066-0.548-0.088-1.1-0.051-1.646c0.004-0.068,0.01-0.137,0.016-0.204l0.01-0.101
	l0.012-0.105c0.016-0.134,0.034-0.27,0.056-0.404c0.043-0.27,0.101-0.536,0.173-0.796c0.146-0.521,0.354-1.019,0.623-1.477
	C19.914,11.953,20.25,11.538,20.642,11.18z M31.285,10.007C30.838,9.84,30.38,9.703,29.913,9.6
	c-0.536-0.119-1.082-0.195-1.629-0.229c-0.547-0.034-1.096-0.02-1.639,0.033c-0.271,0.027-0.541,0.063-0.809,0.11l-0.2,0.037
	l-0.103,0.02l-0.061,0.013c-0.064-0.09-0.128-0.182-0.191-0.275c0.464-0.053,0.935-0.083,1.405-0.089
	c0.552-0.007,1.103,0.008,1.657,0.053l0.206,0.017l0.207,0.021l0.206,0.022c0.065,0.008,0.132,0.017,0.199,0.026
	c0.266,0.04,0.53,0.089,0.789,0.154C30.412,9.629,30.86,9.793,31.285,10.007z M39.847,48.259c-1.016,1.175-2.348,2.077-3.735,2.515
	c-0.341,0.108-0.701,0.237-1.082,0.375c-1.132,0.408-2.414,0.869-3.598,0.884c-0.157,0.002-0.309-0.005-0.454-0.019
	c-0.032-0.222-0.062-0.44-0.084-0.656c-0.078-0.742-0.096-1.419-0.054-2.07c0.109-1.723,0.514-3.53,0.905-5.277
	c0.208-0.926,0.422-1.883,0.585-2.804c0.627-3.521-0.413-7.499-2.781-10.643c-0.615-0.816-1.332-1.487-1.985-2.029
	c0.101,0.023,0.202,0.046,0.305,0.066c0.375,0.076,0.763,0.129,1.167,0.137c0.403,0.006,0.825-0.037,1.238-0.168
	c0.205-0.066,0.408-0.149,0.599-0.258c0.095-0.053,0.189-0.113,0.28-0.177l0.065-0.047l0.067-0.051
	c0.043-0.034,0.085-0.07,0.125-0.105c0.16-0.142,0.302-0.289,0.436-0.439c0.132-0.152,0.255-0.309,0.373-0.468
	c0.117-0.16,0.227-0.324,0.325-0.496c0.049-0.085,0.098-0.171,0.144-0.258c0.044-0.088,0.087-0.178,0.129-0.268
	c0.161-0.361,0.287-0.743,0.345-1.146c0.028-0.2,0.039-0.406,0.019-0.61c-0.021-0.203-0.072-0.411-0.181-0.579
	c-0.028,0.197-0.086,0.368-0.155,0.533c-0.07,0.165-0.151,0.322-0.238,0.476c-0.173,0.307-0.368,0.602-0.568,0.891
	c-0.05,0.072-0.1,0.145-0.152,0.215c-0.05,0.072-0.102,0.143-0.154,0.213c-0.105,0.141-0.21,0.281-0.317,0.418
	c-0.107,0.138-0.219,0.271-0.333,0.398s-0.231,0.25-0.349,0.355c-0.029,0.027-0.059,0.051-0.088,0.076L30.6,27.278l-0.047,0.036
	c-0.06,0.045-0.122,0.088-0.188,0.128c-0.131,0.079-0.268,0.151-0.415,0.208c-0.291,0.116-0.614,0.188-0.955,0.228
	c-0.671,0.084-1.402,0.044-2.149,0.09c-0.418-0.318-0.85-0.629-1.268-0.931c-0.46-0.331-0.936-0.674-1.392-1.026
	c-0.163-0.169-0.358-0.344-0.547-0.512c-0.122-0.108-0.245-0.218-0.362-0.329c0.131-0.098,0.255-0.2,0.375-0.306
	c0.351-0.313,0.657-0.664,0.925-1.032c0.269-0.37,0.5-0.757,0.707-1.153c0.208-0.396,0.389-0.802,0.557-1.213
	c-0.542,0.703-1.074,1.407-1.685,2.004c-0.304,0.299-0.627,0.57-0.968,0.8c-0.171,0.114-0.35,0.22-0.523,0.308
	c-0.18,0.091-0.362,0.165-0.551,0.227c-0.75,0.251-1.568,0.285-2.313,0.114c-0.371-0.088-0.724-0.227-1.03-0.42
	c-0.305-0.195-0.564-0.438-0.752-0.724c-0.187-0.287-0.311-0.612-0.362-0.964c-0.024-0.176-0.036-0.357-0.032-0.543
	c0.001-0.045,0.003-0.095,0.006-0.137l0.005-0.075l0.006-0.068c0.01-0.092,0.023-0.183,0.041-0.273
	c0.035-0.181,0.079-0.355,0.146-0.533c0.062-0.169,0.143-0.34,0.234-0.504c0.182-0.329,0.423-0.637,0.698-0.926
	c0.137-0.144,0.288-0.282,0.438-0.416c0.034-0.03,0.084-0.071,0.12-0.102l0.119-0.098c0.08-0.063,0.163-0.126,0.246-0.188
	c0.165-0.125,0.339-0.247,0.515-0.364c0.176-0.119,0.354-0.233,0.538-0.344c0.183-0.112,0.369-0.222,0.557-0.33
	c0.188-0.109,0.377-0.213,0.568-0.32c0.214-0.118,0.431-0.236,0.647-0.356c0.441,1.347,1.686,2.325,3.199,2.499
	c0.207,0.024,0.415,0.037,0.619,0.037c1.06,0,2.052-0.327,2.794-0.92c0.647-0.519,1.047-1.187,1.148-1.905
	c0.185-0.013,0.374-0.043,0.557-0.104c0.098-0.033,0.195-0.075,0.284-0.129c0.09-0.053,0.172-0.12,0.236-0.202
	c-0.205,0.009-0.382-0.01-0.56-0.035c-0.168-0.024-0.333-0.055-0.501-0.085c-0.027-0.352-0.125-0.697-0.296-1.03V15.33l-0.035-0.037
	c-0.314-0.58-0.832-1.101-1.541-1.549l-0.017,0.026c-0.574-0.323-1.221-0.479-1.958-0.479c-0.477,0-0.988,0.064-1.563,0.195
	c-0.972,0.222-1.71,0.699-2.133,1.379c-0.341,0.549-0.462,1.213-0.35,1.891L22.243,16.8c-0.213,0.063-0.426,0.129-0.638,0.2
	c-0.212,0.07-0.423,0.146-0.634,0.224c-0.209,0.081-0.419,0.165-0.627,0.254c-0.191,0.084-0.38,0.172-0.568,0.266
	c0.042-0.792,0.18-1.572,0.421-2.313c0.153-0.472,0.35-0.925,0.586-1.354c0.237-0.427,0.52-0.829,0.835-1.189
	c0.64-0.731,1.431-1.298,2.311-1.673c0.439-0.19,0.898-0.333,1.369-0.432c0.117-0.024,0.238-0.047,0.352-0.066l0.182-0.028
	l0.181-0.026c0.241-0.031,0.483-0.054,0.725-0.067c0.969-0.053,1.938,0.039,2.869,0.281c0.93,0.242,1.822,0.623,2.643,1.129
	c0.822,0.504,1.576,1.122,2.243,1.826c0.669,0.702,1.256,1.487,1.747,2.328c0.246,0.42,0.472,0.853,0.671,1.297
	c0.2,0.443,0.376,0.903,0.525,1.36c0.304,0.945,0.533,1.912,0.703,2.897c0.342,1.973,0.454,4,0.51,6.045
	c0.059,2.09,0.25,4.136,0.225,6.145c-0.006,0.502-0.026,1-0.063,1.496c-0.018,0.245-0.043,0.496-0.068,0.753l-0.075,0.769
	c-0.1,1.028-0.198,2.064-0.251,3.113c-0.053,1.049-0.065,2.112,0.026,3.182c0.09,1.068,0.282,2.144,0.62,3.183
	c0.168,0.519,0.372,1.026,0.611,1.52C39.73,48.033,39.788,48.146,39.847,48.259z M29.911,16.947c-0.1,0.609-0.451,1.178-1.01,1.625
	c-0.679,0.543-1.592,0.842-2.572,0.842c-0.19,0-0.385-0.012-0.578-0.034c-1.364-0.157-2.487-1.026-2.894-2.229
	c0.259-0.195,0.533-0.36,0.823-0.474c0.058-0.023,0.116-0.044,0.174-0.063c0.478,1.06,1.609,1.639,2.563,1.639
	c0.096,0,0.19-0.005,0.281-0.017c0.852-0.11,1.433-0.677,1.606-1.541c0.252,0.05,0.506,0.101,0.764,0.144
	C29.344,16.885,29.624,16.933,29.911,16.947z M50.846,41.87l-0.051,0.21l-0.132,0.568c-0.086,0.379-0.178,0.759-0.255,1.141
	c-0.157,0.766-0.297,1.54-0.386,2.325c-0.02,0.196-0.037,0.392-0.05,0.592L49.953,47l-0.015,0.292
	c-0.02,0.386-0.042,0.766-0.098,1.131c-0.055,0.365-0.148,0.713-0.294,1.035c-0.07,0.163-0.15,0.32-0.232,0.481
	c-0.083,0.159-0.172,0.316-0.257,0.488c-1.017,0.778-2.028,1.63-3.014,2.534c-0.086-0.063-0.173-0.122-0.258-0.186
	c-0.814-0.594-1.593-1.225-2.305-1.916c0.235-0.62,0.483-1.233,0.756-1.836c0.49-1.083,1.057-2.131,1.748-3.092
	c0.688-0.961,1.502-1.831,2.435-2.554C49.173,42.795,49.989,42.293,50.846,41.87z M58.8,40.145
	c-0.026,0.044-0.053,0.089-0.079,0.134c-0.074,0.123-0.154,0.251-0.229,0.382c-0.15,0.26-0.292,0.528-0.418,0.806
	c-0.128,0.276-0.236,0.56-0.341,0.838c-0.104,0.279-0.203,0.552-0.313,0.82c-0.105,0.268-0.221,0.532-0.342,0.795
	c-0.121,0.263-0.249,0.525-0.378,0.795c-0.127,0.27-0.255,0.551-0.364,0.844s-0.204,0.596-0.279,0.902l0,0l-0.019,0.117
	c-2.543,1-4.44,1.995-6.102,3.195c0.019-0.038,0.038-0.076,0.055-0.114c0.169-0.373,0.27-0.771,0.326-1.167
	c0.058-0.396,0.077-0.791,0.095-1.18c0.016-0.39,0.036-0.771,0.075-1.154c0.144-1.504,0.479-2.988,0.772-4.487
	c0.069-0.032,0.14-0.064,0.209-0.095c1.082-0.479,2.218-0.839,3.378-1.08c1.161-0.241,2.348-0.363,3.531-0.358
	C58.52,40.138,58.659,40.141,58.8,40.145z M63.424,41.128c-0.124,0.274-0.23,0.554-0.322,0.843
	c-0.055,0.168-0.104,0.338-0.144,0.513c-0.04,0.175-0.08,0.351-0.103,0.533c-0.023,0.181-0.039,0.366-0.045,0.555
	c-0.002,0.094,0,0.188,0.006,0.285c0.006,0.063,0.013,0.139,0.021,0.206c-0.139,0.056-0.277,0.111-0.414,0.167
	c-0.796,0.323-1.548,0.629-2.301,0.884C59,45.494,57.9,45.871,56.813,46.28c0.043-0.174,0.09-0.348,0.146-0.518
	c0.09-0.273,0.195-0.543,0.309-0.813c0.228-0.54,0.461-1.09,0.651-1.654c0.196-0.563,0.347-1.133,0.563-1.665
	c0.106-0.268,0.229-0.53,0.361-0.787c0.067-0.129,0.137-0.255,0.208-0.387c0.054-0.097,0.103-0.195,0.15-0.293
	c0.021,0.001,0.042,0.001,0.063,0.002c0.295,0.018,0.59,0.043,0.885,0.078c0.586,0.067,1.166,0.178,1.734,0.333
	C62.412,40.721,62.928,40.903,63.424,41.128z M65.934,42.966c-0.873,0.236-1.723,0.549-2.521,0.866
	c-0.022-0.251-0.017-0.506,0.008-0.762c0.058-0.593,0.197-1.184,0.351-1.774c0.447,0.227,0.875,0.492,1.268,0.8
	C65.366,42.354,65.668,42.645,65.934,42.966z M67.025,46.662c-0.006,0.056-0.012,0.111-0.019,0.166
	c-0.562-0.232-1.116-0.474-1.649-0.75c-0.301-0.156-0.594-0.323-0.869-0.508c-0.139-0.094-0.276-0.191-0.396-0.294
	c-0.118-0.104-0.226-0.221-0.313-0.349c-0.153-0.217-0.254-0.472-0.313-0.736c0.854-0.339,1.767-0.678,2.699-0.92
	c0.021,0.028,0.041,0.058,0.062,0.086c0.324,0.478,0.563,1.014,0.691,1.577C67.052,45.497,67.08,46.084,67.025,46.662z
	 M64.736,51.18l-1.944-1.125c-0.172-0.1-0.344-0.198-0.51-0.3c-0.169-0.103-0.333-0.21-0.498-0.319
	c-0.329-0.217-0.656-0.443-0.983-0.669c-0.654-0.451-1.313-0.906-1.994-1.327c-0.342-0.21-0.689-0.412-1.052-0.595
	c-0.212-0.106-0.429-0.207-0.651-0.293c1.028-0.383,2.07-0.74,3.133-1.1c0.765-0.258,1.521-0.566,2.32-0.892
	c0.116-0.047,0.231-0.093,0.348-0.14c0.002,0.006,0.004,0.012,0.005,0.019c0.024,0.097,0.058,0.192,0.095,0.287
	c0.073,0.19,0.171,0.374,0.29,0.542s0.259,0.323,0.416,0.451c0.158,0.129,0.308,0.227,0.461,0.326
	c0.306,0.197,0.626,0.354,0.945,0.503c0.6,0.269,1.212,0.484,1.833,0.658c-0.075,0.392-0.188,0.776-0.336,1.147
	C66.195,49.406,65.521,50.348,64.736,51.18z M59.295,55.061c-1.695-0.687-3.374-1.418-5.036-2.188
	c-1.601-0.742-3.188-1.518-4.745-2.346c0.204-0.154,0.409-0.308,0.616-0.458c1.604-1.16,3.435-2.127,5.872-3.098l0.438,0.094
	c0.328,0.07,0.68,0.206,1.021,0.362c0.344,0.157,0.688,0.339,1.025,0.531c0.679,0.385,1.345,0.812,2.017,1.239
	c0.336,0.214,0.673,0.429,1.017,0.639c0.172,0.105,0.346,0.209,0.522,0.309c0.087,0.05,0.179,0.1,0.267,0.146l0.266,0.141
	l1.902,1.012c-0.774,0.771-1.643,1.453-2.554,2.065C61.077,54.075,60.195,54.586,59.295,55.061z M55.582,56.8
	c-0.818,0.347-1.645,0.677-2.475,1.001l-0.285-0.229c-0.211-0.166-0.42-0.324-0.631-0.48c-0.422-0.313-0.849-0.611-1.28-0.904
	c-0.862-0.584-1.737-1.138-2.599-1.693c-0.669-0.434-1.33-0.868-1.974-1.32c0.943-0.863,1.909-1.676,2.88-2.422
	c0.354,0.242,0.715,0.468,1.082,0.686c0.201,0.119,0.403,0.237,0.607,0.351c0.204,0.114,0.407,0.229,0.614,0.337l0.621,0.326
	l0.627,0.313l0.313,0.152l0.317,0.148l0.635,0.293c0.848,0.391,1.706,0.758,2.57,1.105c0.742,0.295,1.49,0.573,2.246,0.829
	c-0.006,0.004-0.014,0.007-0.021,0.01C57.771,55.842,56.684,56.335,55.582,56.8z M73.926,79.873
	c-0.068,0.016-0.138,0.031-0.207,0.046c0.199-1.455,0.186-2.974,0.151-4.312c0.377-0.043,0.752-0.099,1.124-0.16
	c0.813-0.135,1.615-0.311,2.414-0.471c0.805-0.154,1.615-0.342,2.396-0.623c0.195-0.069,0.391-0.146,0.58-0.229
	c0.194-0.082,0.379-0.173,0.563-0.253c0.369-0.165,0.744-0.313,1.127-0.453c0.763-0.278,1.542-0.519,2.322-0.762
	c0.392-0.123,0.781-0.246,1.172-0.374l0.293-0.1c0.094-0.031,0.201-0.066,0.298-0.106c0.194-0.081,0.38-0.168,0.563-0.244
	c0.185-0.075,0.369-0.144,0.551-0.183c0.183-0.041,0.363-0.049,0.516,0c0.018,0.007,0.036,0.014,0.055,0.021
	c0.02,0.01,0.026,0.012,0.053,0.026c0.027,0.014,0.057,0.038,0.084,0.065c0.055,0.055,0.104,0.127,0.149,0.206
	c0.091,0.161,0.16,0.347,0.22,0.533c0.123,0.379,0.207,0.772,0.303,1.175c0.025,0.103,0.05,0.201,0.084,0.312l0.101,0.292
	c0.067,0.193,0.136,0.389,0.206,0.582c0.281,0.771,0.582,1.533,0.893,2.293l0.467,1.135c0.162,0.384,0.332,0.752,0.494,1.126
	c0.322,0.746,0.623,1.502,0.832,2.278c0.104,0.387,0.185,0.779,0.215,1.173c0.031,0.391,0.014,0.786-0.111,1.138
	c-0.063,0.176-0.152,0.336-0.271,0.473c-0.117,0.138-0.264,0.246-0.431,0.334c-0.162,0.088-0.337,0.146-0.514,0.162
	c-0.179,0.017-0.356-0.011-0.528-0.072c-0.345-0.123-0.65-0.375-0.918-0.66c-0.268-0.287-0.5-0.614-0.712-0.955
	c-0.422-0.684-0.765-1.419-1.067-2.171c-0.152-0.376-0.293-0.757-0.425-1.142c-0.133-0.383-0.248-0.772-0.37-1.164
	c-0.123-0.393-0.254-0.785-0.422-1.172c-0.084-0.193-0.179-0.385-0.291-0.566c-0.113-0.186-0.242-0.36-0.404-0.518
	c-0.158-0.156-0.352-0.289-0.563-0.375c-0.213-0.088-0.443-0.127-0.666-0.127c-0.448,0.002-0.87,0.137-1.253,0.303
	c-0.763,0.32-1.495,0.697-2.22,1.082c-0.723,0.385-1.439,0.782-2.164,1.138c-0.717,0.342-1.508,0.518-2.307,0.688
	c-0.398,0.086-0.803,0.172-1.203,0.281c-0.101,0.027-0.199,0.057-0.301,0.086c-0.1,0.031-0.193,0.061-0.289,0.09
	C74.316,79.777,74.122,79.827,73.926,79.873z M69.751,86.654L69.587,86.3l-0.071,0.157c0.071-0.503,0.125-1.014,0.178-1.516
	c0.058-0.555,0.113-1.078,0.19-1.58c0.209,0.09,0.418,0.179,0.626,0.266c0.76,0.316,1.516,0.629,2.242,0.994
	c0.363,0.182,0.719,0.377,1.063,0.591c0.084,0.056,0.17,0.108,0.254,0.165l0.125,0.085c0.043,0.029,0.089,0.06,0.134,0.088
	c0.178,0.115,0.36,0.22,0.543,0.318c0.737,0.393,1.491,0.716,2.218,1.087c0.362,0.186,0.719,0.38,1.057,0.598
	c0.336,0.219,0.653,0.463,0.918,0.749c0.266,0.286,0.469,0.616,0.549,0.985c0.09,0.384,0.123,0.781,0.117,1.181
	c-0.011,0.802-0.164,1.603-0.356,2.394c-0.194,0.793-0.433,1.576-0.651,2.373c-0.203,0.75-0.395,1.511-0.482,2.299
	c-0.289,0.033-0.579,0.053-0.866,0.048c-0.331-0.006-0.662-0.041-0.968-0.14c-0.303-0.096-0.574-0.26-0.771-0.498
	c-0.196-0.235-0.317-0.536-0.391-0.854c-0.071-0.318-0.101-0.652-0.11-0.988c-0.012-0.338-0.005-0.681,0.004-1.021
	c0.021-0.686,0.051-1.379,0.024-2.073c-0.011-0.348-0.034-0.698-0.091-1.05c-0.055-0.35-0.144-0.699-0.285-1.033
	c-0.143-0.332-0.34-0.646-0.582-0.915c-0.063-0.067-0.125-0.133-0.189-0.194c-0.066-0.062-0.132-0.121-0.209-0.182
	c-0.15-0.113-0.309-0.203-0.469-0.283c-0.316-0.162-0.643-0.289-0.965-0.412l-0.969-0.359c-0.319-0.119-0.637-0.243-0.938-0.389
	c-0.148-0.072-0.296-0.15-0.425-0.239C69.91,86.859,69.793,86.753,69.751,86.654L69.751,86.654z M24.953,77.734l-0.129,0.119l0,0
	L24.953,77.734c-0.088-0.09-0.12-0.26-0.111-0.438c0.009-0.179,0.045-0.37,0.101-0.545c0.113-0.354,0.32-0.679,0.574-0.964
	c0.255-0.287,0.556-0.538,0.876-0.764c0.321-0.224,0.663-0.422,1.014-0.603c0.705-0.356,1.45-0.646,2.207-0.888
	c0.776-0.24,1.539-0.563,2.235-1c0.698-0.436,1.319-0.994,1.838-1.629c0.521-0.635,0.947-1.332,1.338-2.04
	c0.391-0.707,0.752-1.427,1.127-2.134c0.188-0.354,0.378-0.707,0.574-1.054c0.197-0.346,0.406-0.688,0.615-1.03
	c0.417-0.686,0.84-1.379,1.183-2.121c0.171-0.37,0.321-0.754,0.438-1.149c0.117-0.396,0.198-0.806,0.23-1.217
	c0.067-0.828-0.044-1.649-0.191-2.443c-0.146-0.794-0.323-1.573-0.399-2.358c-0.038-0.392-0.046-0.783-0.001-1.166
	c0.045-0.381,0.143-0.756,0.332-1.07c0.187-0.314,0.475-0.557,0.819-0.655c0.343-0.102,0.726-0.069,1.081,0.048
	c0.357,0.115,0.691,0.313,0.988,0.555c0.296,0.242,0.557,0.531,0.775,0.851c0.219,0.317,0.395,0.666,0.526,1.029
	c0.066,0.183,0.121,0.37,0.164,0.556c0.043,0.193,0.08,0.387,0.111,0.582c0.125,0.779,0.156,1.574,0.116,2.365
	c-0.041,0.792-0.151,1.581-0.311,2.361c-0.081,0.39-0.172,0.775-0.274,1.162c-0.051,0.192-0.105,0.383-0.16,0.578
	c-0.054,0.195-0.104,0.395-0.152,0.59c-0.189,0.787-0.335,1.578-0.523,2.353c-0.187,0.776-0.418,1.53-0.764,2.243
	c-0.337,0.719-0.733,1.41-1.168,2.078c-0.87,1.336-1.892,2.57-2.931,3.795c-0.519,0.611-1.043,1.222-1.558,1.842
	c-0.257,0.311-0.511,0.623-0.761,0.939c-0.125,0.157-0.249,0.318-0.371,0.479c-0.124,0.163-0.243,0.33-0.355,0.501
	c-0.226,0.342-0.428,0.704-0.587,1.089c-0.16,0.382-0.274,0.786-0.34,1.194c-0.134,0.819-0.089,1.646-0.027,2.444
	c0.026,0.394,0.029,0.786-0.026,1.166c-0.055,0.377-0.176,0.738-0.403,1.021c-0.224,0.285-0.549,0.477-0.909,0.584
	c-0.18,0.055-0.368,0.092-0.559,0.115c-0.19,0.022-0.38,0.029-0.563,0.013s-0.362-0.06-0.519-0.136
	c-0.157-0.077-0.292-0.188-0.396-0.327c-0.211-0.281-0.296-0.659-0.319-1.039c-0.022-0.381,0.015-0.771,0.078-1.159
	c0.065-0.385,0.158-0.768,0.269-1.145c0.227-0.536,0.355-0.979,0.4-1.146l-0.335-0.113c-0.102,0.25-0.253,0.647-0.4,1.144
	c-0.385,0.907-1.18,2.374-2.215,2.077c-0.393-0.113-0.617-0.287-0.686-0.532c-0.133-0.476,0.301-1.263,1.29-2.337
	c0.287-0.27,0.534-0.53,0.678-0.721l-0.273-0.227c-0.064,0.071-0.154,0.166-0.258,0.273c-0.119,0.125-0.254,0.267-0.398,0.423
	c-0.929,0.862-2.11,1.629-2.658,1.396c-0.222-0.096-0.343-0.373-0.359-0.828c1.212-1.382,2.364-2.5,3.726-3.623l1.271-1.045
	l-1.464,0.752c-0.093,0.047-0.206,0.106-0.333,0.176C27.122,77.261,25.381,78.193,24.953,77.734z M31.709,56.973
	c0.03,0.129,0.061,0.258,0.092,0.387c0.253,1.031,0.537,2.068,0.842,3.08c-0.142,0.195-0.285,0.394-0.43,0.595
	c-1.072,1.472-2.286,3.142-3.022,4.848c-0.852,1.976-0.943,3.72-0.281,5.331l0.006,0.016c0.19,0.463,0.525,1.278,0.49,1.888
	c-0.752,0.256-1.489,0.552-2.197,0.923c-0.363,0.191-0.72,0.402-1.056,0.646s-0.656,0.519-0.934,0.84
	c-0.275,0.32-0.509,0.695-0.635,1.113c-0.031,0.104-0.057,0.213-0.074,0.317c-0.019,0.106-0.031,0.214-0.034,0.327
	c-0.002,0.111,0.004,0.229,0.034,0.348c0.001,0.006,0.003,0.012,0.004,0.016c-0.447-0.051-0.887-0.146-1.291-0.318
	c-0.25-0.105-0.483-0.241-0.684-0.413c-0.201-0.171-0.368-0.38-0.489-0.614c-0.122-0.232-0.199-0.492-0.239-0.758
	c-0.039-0.268-0.047-0.542-0.019-0.811c0.055-0.539,0.256-1.06,0.537-1.537c0.28-0.479,0.632-0.92,0.999-1.352
	c0.367-0.433,0.754-0.857,1.11-1.313c0.714-0.911,1.321-1.899,1.851-2.923c0.265-0.51,0.511-1.028,0.746-1.556l0.693-1.567
	c0.465-1.043,0.939-2.08,1.446-3.101C29.927,59.859,30.757,58.374,31.709,56.973z M30.915,57.456
	c-2.254,0.659-4.448,1.081-6.529,1.253c0.579-0.645,1.164-1.288,1.723-1.964c0.326-0.394,0.644-0.8,0.941-1.224
	c0.286-0.405,0.555-0.834,0.791-1.28c1.084,0.198,2.025,0.298,2.852,0.298c0.145,0,0.285-0.004,0.423-0.01
	c0.087,0.369,0.179,0.738,0.267,1.1c0.07,0.284,0.139,0.566,0.207,0.848C31.358,56.798,31.132,57.125,30.915,57.456z M16.655,58.005
	c0.264-0.453,0.548-0.894,0.845-1.325c0.336-0.492,0.687-0.975,1.046-1.451c0.715-0.953,1.459-1.888,2.186-2.853
	c0.697,0.22,1.406,0.427,2.115,0.618c0.268,0.072,0.554,0.15,0.857,0.234c0.53,0.148,1.132,0.314,1.751,0.476
	c0.634,0.164,1.206,0.299,1.738,0.41c-0.405,0.823-0.926,1.59-1.482,2.331c-0.586,0.781-1.217,1.535-1.838,2.301
	C21.225,58.913,18.798,58.663,16.655,58.005z M10.315,53.93c0.434-0.173,0.883-0.3,1.345-0.414l0.848-0.211
	c0.285-0.074,0.574-0.156,0.864-0.255s0.577-0.224,0.857-0.373c0.279-0.151,0.552-0.331,0.793-0.551
	c0.243-0.219,0.458-0.47,0.64-0.74c0.161-0.235,0.291-0.485,0.399-0.747c1.24,0.538,2.546,1.037,3.891,1.484
	c-0.622,0.932-1.265,1.852-1.884,2.791c-0.332,0.501-0.656,1.009-0.966,1.525c-0.285,0.476-0.556,0.957-0.804,1.455
	c-1.579-0.475-3.062-1.268-4.33-2.314C11.37,55.08,10.81,54.531,10.315,53.93z M8.482,49.332c0.005-0.763,0.18-1.496,0.544-2.14
	c0.021-0.036,0.042-0.072,0.064-0.108c0.212,0.13,0.437,0.261,0.673,0.394c-0.291,0.36-0.529,0.763-0.696,1.192
	c-0.194,0.501-0.299,1.032-0.292,1.561c0.104-0.243,0.204-0.482,0.311-0.714c0.108-0.232,0.221-0.459,0.344-0.677
	c0.226-0.399,0.484-0.773,0.777-1.119c0.542,0.293,1.096,0.574,1.633,0.846c0.438,0.221,0.892,0.45,1.325,0.68
	c0.754,0.4,1.54,0.784,2.339,1.144c-0.206,0.488-0.5,0.937-0.888,1.289c-0.409,0.375-0.914,0.639-1.446,0.84
	c-0.533,0.203-1.095,0.354-1.656,0.529c-0.488,0.152-0.979,0.327-1.443,0.572c-0.219-0.284-0.423-0.572-0.602-0.874
	c-0.211-0.354-0.395-0.726-0.541-1.104C8.633,50.887,8.478,50.095,8.482,49.332z M47.402,16.117
	c-0.09,0.143-0.202,0.276-0.336,0.388c-0.134,0.112-0.294,0.199-0.464,0.25c-0.169,0.053-0.351,0.068-0.525,0.05
	c-0.175-0.017-0.342-0.064-0.498-0.128c-0.313-0.129-0.583-0.317-0.833-0.521c-0.496-0.412-0.909-0.896-1.292-1.392
	c-0.383-0.498-0.735-1.016-1.076-1.538c-0.17-0.261-0.342-0.521-0.483-0.798c-0.143-0.277-0.267-0.561-0.362-0.873
	c0.135,0.094,0.251,0.206,0.36,0.321c0.108,0.116,0.209,0.236,0.303,0.36c0.191,0.247,0.351,0.512,0.519,0.771
	c0.334,0.52,0.678,1.031,1.049,1.519c0.185,0.244,0.378,0.481,0.58,0.708c0.202,0.227,0.413,0.444,0.64,0.638
	c0.227,0.193,0.47,0.365,0.731,0.478c0.26,0.113,0.538,0.154,0.793,0.083c0.259-0.068,0.479-0.249,0.635-0.485
	c0.157-0.236,0.256-0.517,0.306-0.807c0.049-0.29,0.055-0.59,0.007-0.881c-0.049-0.289-0.151-0.574-0.332-0.794
	c-0.045-0.055-0.096-0.105-0.149-0.149c-0.06-0.048-0.117-0.091-0.18-0.132c-0.124-0.082-0.256-0.148-0.394-0.19
	c-0.138-0.042-0.285-0.058-0.423-0.031c-0.138,0.025-0.267,0.096-0.36,0.202c-0.094,0.106-0.148,0.247-0.162,0.392
	c-0.014,0.147,0.012,0.297,0.065,0.438c0.107,0.285,0.313,0.529,0.553,0.725c-0.252-0.178-0.481-0.407-0.614-0.699
	c-0.065-0.145-0.104-0.306-0.098-0.47c0.004-0.163,0.057-0.331,0.161-0.464c0.104-0.135,0.258-0.229,0.423-0.268
	c0.166-0.041,0.338-0.03,0.498,0.01c0.162,0.04,0.312,0.108,0.452,0.19c0.069,0.041,0.138,0.087,0.201,0.134
	c0.069,0.051,0.131,0.109,0.187,0.172c0.224,0.254,0.348,0.57,0.415,0.888c0.065,0.32,0.075,0.648,0.028,0.971
	C47.68,15.509,47.581,15.829,47.402,16.117z M36.283,48.125c-0.25,0.171-0.612,0.258-0.994,0.258c-0.599,0-1.249-0.214-1.602-0.656
	l0.277-0.221c0.455,0.569,1.616,0.67,2.119,0.326c0.294-0.202,0.317-0.521,0.067-0.954l0.307-0.177
	C36.945,47.545,36.498,47.978,36.283,48.125z"/>
</svg>
