<?xml version="1.0" encoding="utf-8"?>
<!-- Generator: Adobe Illustrator 16.0.0, SVG Export Plug-In . SVG Version: 6.00 Build 0)  -->
<!DOCTYPE svg PUBLIC "-//W3C//DTD SVG 1.1//EN" "http://www.w3.org/Graphics/SVG/1.1/DTD/svg11.dtd">
<svg version="1.1" id="Layer_1" xmlns="http://www.w3.org/2000/svg" xmlns:xlink="http://www.w3.org/1999/xlink" x="0px" y="0px"
	 width="97.17px" height="96.195px" viewBox="0 0 97.17 96.195" enable-background="new 0 0 97.17 96.195" xml:space="preserve">
<path d="M9.225,7.806C9.239,7.721,9.33,7.703,9.399,7.693v0.055L9.34,7.806H9.225z M28.021,3.185c0.05-0.063,0.117-0.013,0.174,0
	C28.144,3.241,28.077,3.19,28.021,3.185z M86.868,2.129c0.046-0.047,0.113-0.026,0.171-0.026c-0.009,0.009-0.044,0.054-0.058,0.056
	C86.961,2.161,86.89,2.135,86.868,2.129z M94.054,3.059c0.02-0.079,0.18-0.047,0.266-0.045C94.299,3.091,94.14,3.059,94.054,3.059z
	 M19.746,10.437c0.023-0.08,0.18-0.048,0.27-0.046C19.994,10.469,19.834,10.439,19.746,10.437z M7.526,8.393
	C7.514,8.484,7.419,8.492,7.357,8.475C7.389,8.415,7.461,8.41,7.526,8.393z M23.16,3.708c-0.022,0.014-0.096,0.063-0.118,0.059
	c-0.039-0.002-0.163,0.049-0.118-0.059H23.16z M26.32,87.559l-0.056-0.061l0.056-0.058l0.059,0.058L26.32,87.559z M10.276,7.104
	c-0.04,0.065-0.125,0.109-0.228,0.083c0.017-0.013,0.07-0.074,0.093-0.082C10.167,7.096,10.251,7.105,10.276,7.104z M7.526,8.393
	C7.54,8.341,7.579,8.3,7.626,8.275c0.02-0.008,0.108,0,0.135,0C7.711,8.344,7.626,8.378,7.526,8.393z M19.053,10.477
	c0.033,0.015,0.076,0.042,0.07,0.082h-0.244C18.91,10.51,18.997,10.454,19.053,10.477z M28.254,3.188
	c0.027-0.019,0.118-0.065,0.146-0.065c0.031,0,0.118,0.047,0.149,0.059C28.437,3.167,28.346,3.237,28.254,3.188z M7.762,8.275
	C7.773,8.18,7.879,8.091,7.989,8.139C7.936,8.201,7.846,8.233,7.762,8.275z M27.248,16.497c0.034-0.039,0.141-0.031,0.211-0.02
	c0.016,0.002,0.078,0.063,0.092,0.093c0.018,0.037-0.059,0.023-0.087,0.019C27.422,16.581,27.298,16.52,27.248,16.497z
	 M27.669,3.181c0.036-0.012,0.14-0.059,0.174-0.059c0.036,0,0.143,0.047,0.177,0.062C27.908,3.231,27.776,3.216,27.669,3.181z
	 M28.549,3.182c0.017-0.012,0.075-0.059,0.095-0.059h0.332c0.02,0,0.079,0.047,0.098,0.062C28.922,3.225,28.698,3.225,28.549,3.182z
	 M7.675,12.373c0.011,0.015,0.051,0.058,0.066,0.062c0.037,0.007,0.156,0,0.195,0v-0.176H7.644
	C7.638,12.299,7.646,12.341,7.675,12.373z M79.606,47.477c0.021-0.006,0.096-0.003,0.106,0.005c0.033,0.025,0.084,0.058,0.067,0.112
	c-0.037,0.108-0.043,0.217-0.104,0.277c-0.056,0.058-0.128-0.019-0.128-0.062v-0.266C79.548,47.532,79.59,47.483,79.606,47.477z
	 M58.087,66.187c0-0.014,0.053-0.056,0.066-0.059c0.027-0.008,0.109,0,0.121,0c0.057,0.185,0.045,0.376,0,0.583
	c-0.051-0.024-0.142-0.102-0.142-0.151C58.136,66.431,58.073,66.324,58.087,66.187z M75.599,82.839
	c0.049-0.016,0.102,0.077,0.143,0.141c0.012,0.016,0.006,0.122-0.006,0.144c-0.039,0.063-0.086,0.128-0.146,0.16
	c-0.018,0.01-0.087,0.006-0.096-0.003c-0.049-0.056-0.09-0.118-0.104-0.191c-0.004-0.022-0.004-0.097,0.002-0.111
	C75.423,82.9,75.5,82.872,75.599,82.839z M81.132,61.774c0.118-0.045,0.186,0.059,0.188,0.137c0.007,0.119-0.049,0.241-0.104,0.352
	c-0.018,0.032-0.07,0.063-0.083,0.052c-0.073-0.048-0.116-0.135-0.123-0.244c-0.003-0.027-0.032-0.065-0.022-0.101
	C81.013,61.891,81.056,61.804,81.132,61.774z M87.628,2.127c0.016-0.006,0.048-0.025,0.049-0.025
	c0.352-0.011,0.727-0.008,1.034,0.036c0.003,0,0.052,0.035,0.054,0.051c0.006,0.023,0.033,0.119-0.027,0.104
	c-0.125-0.025-0.287,0.008-0.387-0.045L87.88,2.199C87.827,2.188,87.677,2.14,87.628,2.127z M97.056,2.334
	c0.034-0.024,0.075-0.038,0.114-0.029v0.175l-0.396,0.059c-0.168,0.1-0.393,0.144-0.599,0.203l-0.431,0.091
	c-0.016,0.002-0.053,0.045-0.066,0.056c-0.023-0.033-0.035-0.073-0.029-0.108c0.203-0.04,0.375-0.115,0.604-0.124
	c0.026,0,0.106-0.109,0.138-0.112c0.231-0.013,0.399-0.121,0.637-0.18C97.005,2.369,97.042,2.344,97.056,2.334z M76.925,75.703
	c0.032-0.017,0.1,0.02,0.137-0.03c0.027,0.063,0.069,0.119,0.114,0.175c0.017,0.021,0.007,0.143-0.003,0.171
	c-0.039,0.115-0.126,0.191-0.225,0.274c-0.041,0.036-0.084-0.057-0.121-0.095c-0.02-0.016-0.057-0.092-0.063-0.118
	c-0.009-0.033-0.002-0.141,0.002-0.164C76.792,75.825,76.842,75.745,76.925,75.703z M72.685,77.604
	c0.017-0.011,0.123-0.011,0.146,0.003c0.102,0.063,0.156,0.187,0.124,0.346c-0.024,0.104-0.104,0.178-0.188,0.237
	c-0.015,0.01-0.121,0.01-0.147,0c-0.028-0.013-0.115-0.089-0.124-0.118c-0.018-0.04-0.01-0.188,0-0.221
	C72.526,77.737,72.601,77.663,72.685,77.604z M76.062,47.625c-0.006,0.015-0.058,0.047-0.058,0.058v0.587
	c0,0.021,0.05,0.092,0.058,0.116c0.014-0.024,0.051-0.113,0.069-0.116l0.272-0.061c0.017-0.002,0.057-0.047,0.072-0.062
	c-0.047-0.103-0.037-0.296-0.027-0.466c-0.034,0-0.12,0.012-0.141,0c-0.045-0.021-0.149-0.14-0.186-0.174
	C76.108,47.53,76.075,47.603,76.062,47.625z M11.858,11.382c0.102,0.035,0.239,0.037,0.337,0.011
	c0.107-0.031,0.225-0.064,0.362-0.044c0.026,0.005,0.099-0.042,0.093-0.041c0.609-0.103,1.213-0.21,1.79-0.345
	c0.005-0.035-0.042-0.054-0.073-0.089c-0.073,0.035-0.171,0.053-0.256,0.04c-0.31,0.067-0.556,0.107-0.848,0.134
	c-0.115,0.012-0.228,0.059-0.318,0.045l-0.792,0.148L11.858,11.382z M82.28,58.063c0.074-0.011,0.132-0.076,0.188-0.053
	c0.053,0.023,0.153,0.152,0.156,0.169c0.125,0.367-0.034,0.75-0.244,0.921c-0.014,0.012-0.084,0.006-0.096-0.003
	c-0.04-0.023-0.084-0.052-0.094-0.081c-0.039-0.199-0.119-0.354-0.133-0.525c-0.004-0.083,0.049-0.241,0.072-0.282
	C82.169,58.145,82.217,58.071,82.28,58.063z M80.875,63.727c0.021-0.021,0.19-0.021,0.215,0l0.241,0.234
	c0.016,0.01-0.006,0.097,0,0.116c0.006,0.015,0.049,0.046,0.049,0.046c0.041,0.291-0.006,0.523-0.1,0.759l-0.305,0.309
	c-0.01,0.013-0.09,0.009-0.102,0c-0.044-0.026-0.163-0.135-0.18-0.177c-0.053-0.104-0.113-0.201-0.148-0.314
	c-0.076-0.246-0.018-0.525,0.074-0.73L80.875,63.727z M77.265,94.848h0.289c0.051,0,0.155,0.081,0.199,0.144
	c0.049,0.077,0.137,0.158,0.135,0.208c-0.007,0.133,0.063,0.24,0.051,0.385c-0.047,0.065-0.076,0.149-0.088,0.245l-0.295,0.309
	c-0.018,0.018-0.094,0.059-0.117,0.059h-0.289c-0.09-0.048-0.188-0.086-0.248-0.128c-0.092-0.14-0.145-0.282-0.186-0.43
	c-0.041-0.144,0.036-0.241,0.053-0.35c0.043-0.092,0.094-0.184,0.146-0.259c0.033-0.049,0.12-0.086,0.145-0.156
	c0.018,0.039,0.055,0.036,0.086,0.028C77.17,94.896,77.242,94.848,77.265,94.848z M80.077,68.616
	c0.029-0.01,0.143-0.013,0.182,0.003c0.299,0.126,0.475,0.439,0.457,0.864l-0.058,0.313c-0.063,0.184-0.175,0.324-0.276,0.45
	c-0.105,0.048-0.197,0.119-0.303,0.134c-0.037-0.062-0.098-0.027-0.105-0.031c-0.188-0.11-0.326-0.238-0.386-0.418
	c-0.063-0.183-0.042-0.447-0.032-0.68c0.065-0.194,0.18-0.357,0.286-0.516C79.871,68.699,80.024,68.629,80.077,68.616z
	 M79.463,70.814c0.118-0.024,0.231-0.061,0.349-0.066c0.047-0.002,0.176,0.065,0.201,0.092l0.239,0.245
	c0.009,0.103,0.042,0.186,0.077,0.236c0.015,0.262,0.025,0.544-0.055,0.721c-0.021,0.047-0.088,0.188-0.117,0.23
	c-0.122,0.164-0.305,0.298-0.555,0.32c-0.031-0.05-0.094-0.015-0.103-0.021c-0.212-0.122-0.356-0.272-0.421-0.493l-0.057-0.465
	c0.022-0.221,0.1-0.422,0.205-0.566L79.463,70.814z M78.979,73.154h0.313c0.038,0,0.163,0.061,0.197,0.087
	c0.038,0.03,0.147,0.143,0.176,0.187c0.008,0.014-0.007,0.081,0,0.097c0.015,0.031,0.09,0.109,0.09,0.107
	c0.093,0.267,0.052,0.584-0.036,0.838c-0.051,0.051-0.09,0.161-0.138,0.26c-0.019,0.042-0.118,0.129-0.155,0.147
	c-0.104,0.059-0.218,0.126-0.33,0.153c-0.06,0.018-0.238-0.031-0.271-0.062l-0.244-0.236c-0.084-0.113-0.128-0.26-0.159-0.41
	c-0.06-0.297,0.021-0.541,0.103-0.759c0.052-0.143,0.168-0.225,0.267-0.317C78.815,73.218,78.944,73.154,78.979,73.154z
	 M77.558,81.624c0.232-0.097,0.521,0.006,0.725,0.129c0.035,0.077,0.092,0.186,0.174,0.241c0.021,0.015,0.016,0.072-0.021,0.088
	l0.119,0.063c-0.035,0.015-0.035,0.055-0.029,0.084c0.009,0.025,0.049,0.095,0.052,0.106c0.022,0.175-0.013,0.325-0.027,0.459
	l-0.202,0.431c-0.096,0.078-0.144,0.217-0.258,0.269l-0.297,0.083h-0.271c-0.117-0.055-0.242-0.104-0.33-0.156l-0.187-0.312
	c-0.058-0.155-0.101-0.325-0.078-0.546c0.019-0.173,0.075-0.303,0.104-0.476c0.091-0.073,0.173-0.183,0.216-0.282L77.558,81.624z
	 M76.71,88.26h0.376c0.054,0,0.205,0.045,0.25,0.068c0.242,0.131,0.435,0.318,0.562,0.562c0.026,0.045,0.064,0.198,0.064,0.25
	c-0.003,0.263,0.029,0.563-0.041,0.78c0,0-0.07,0.058-0.074,0.083c-0.007,0.097-0.035,0.187-0.088,0.247l-0.384,0.389l-0.412,0.17
	h-0.265c-0.11-0.054-0.229-0.061-0.331-0.086l-0.363-0.354l-0.174-0.346l-0.06-0.41c0.051-0.212,0.063-0.389,0.086-0.552
	c0.006-0.022,0.078-0.077,0.09-0.1c0.007-0.021-0.012-0.107,0.006-0.119c0.102-0.081,0.193-0.188,0.232-0.288
	C76.358,88.429,76.517,88.33,76.71,88.26z M5.3,12.726c0.032-0.016,0.07-0.025,0.085-0.062c0.086-0.213,0.278-0.327,0.435-0.471
	c0.177-0.166,0.309-0.38,0.452-0.577l0.225-0.239l0.301-0.406l0.349-0.354c0.017-0.018,0.039-0.099,0.059-0.115l0.469-0.471
	c0.036-0.037,0.039-0.11,0.084-0.14c0.048-0.035,0.116-0.045,0.146-0.086C7.921,9.78,7.947,9.7,7.966,9.682l0.582-0.586
	C8.674,8.929,8.79,8.748,8.914,8.607c0.028-0.033,0.115-0.053,0.127-0.063l0.738-0.673c0.015-0.011,0-0.098,0-0.1
	c-0.141,0.057-0.318,0.093-0.43,0.193C9.215,8.082,9.04,8.159,8.933,8.305C8.919,8.321,8.838,8.329,8.815,8.333l0.118-0.175
	l-0.12-0.002l0.23-0.286c0.041-0.05,0.121-0.046,0.181-0.063v0.06l0.116-0.06l0.059-0.059l0.116-0.057l0.003-0.06
	C9.531,7.576,9.579,7.53,9.632,7.517h0.06L9.81,7.457l0.059-0.058c0.037-0.007,0.149-0.009,0.188-0.032
	c0.461-0.282,0.975-0.531,1.522-0.759c0.009-0.004,0.082,0.005,0.104,0c0.037-0.012,0.141-0.071,0.177-0.088h0.056
	c0.034,0,0.129,0.007,0.144,0c0.34-0.129,0.705-0.242,1.011-0.364c0.042-0.018,0.094-0.097,0.116-0.104
	c0.031-0.01,0.141,0.008,0.177,0c0.039-0.01,0.154-0.073,0.171-0.075c0.18-0.021,0.315-0.07,0.422-0.121l0.361-0.069
	c0.04-0.008,0.152-0.08,0.192-0.085l0.28-0.033c0.036-0.003,0.152-0.074,0.194-0.08c0.314-0.049,0.548-0.121,0.863-0.163
	c0.101-0.058,0.227-0.055,0.362-0.088l1.253-0.276l0.554-0.1c0.062-0.063,0.171-0.03,0.264-0.08l1.228-0.243
	c0.042-0.009,0.158-0.064,0.199-0.072c0.394-0.073,0.773-0.189,1.172-0.258c0.396-0.07,0.722-0.154,1.104-0.244
	c0.177-0.043,0.383-0.071,0.582-0.104c0.073-0.013,0.155-0.003,0.219-0.017c0.049-0.008,0.164-0.079,0.183-0.082l0.66-0.073
	c0.247-0.048,0.424-0.147,0.683-0.236l1.778-0.037l0.994,0.037c0.05,0.001,0.048,0.104,0.015,0.127l0.277-0.004
	c0.042-0.003,0.157-0.071,0.197-0.08c0.19-0.039,0.477-0.061,0.626,0l0.32-0.063c0.025-0.003,0.118,0.094,0.149,0.11l-0.061,0.01
	l0.061-0.007c0.194,0.062,0.362-0.004,0.48-0.049c0.177,0.047,0.295-0.024,0.385-0.037c0.031-0.006,0.107,0.062,0.124,0.06
	c0.349-0.06,0.854,0.074,1.191-0.042c0.076-0.027,0.18-0.005,0.273-0.01c0.022-0.001,0.084-0.069,0.093-0.09
	c0.009-0.02,0.009-0.098,0-0.116c-0.006-0.017-0.057-0.062-0.073-0.062l-2.006-0.131c1.318,0,2.68,0.038,3.942-0.055l1.933-0.109
	c0.256-0.033,0.581-0.016,0.857-0.044l1.23-0.018l1.699,0.04l2.402,0.288c0.712,0.102,1.397,0.252,2.088,0.375
	c0.261-0.006,0.432,0.083,0.646,0.116l0.621,0.07c0.07,0.046,0.177,0.018,0.272,0.036c0.309,0.061,0.582-0.007,0.82-0.07
	l2.382-0.789c0.14-0.042,0.275-0.073,0.46-0.104c0.015-0.003,0.155-0.085,0.183-0.088c0.177-0.021,0.309-0.083,0.433-0.112
	c0.268-0.065,0.512-0.127,0.797-0.168c0.043-0.004,0.154-0.066,0.197-0.076c0.252-0.051,0.485-0.124,0.762-0.179
	c0.045-0.008,0.187,0,0.201-0.005l0.678-0.228l0.641-0.125c0.357-0.097,0.74-0.167,1.13-0.251c-0.006,0.001,0.031-0.039,0.039-0.039
	l0.28-0.034c0.037-0.003,0.15-0.081,0.188-0.083l1.055-0.121c0.037-0.005,0.144-0.049,0.184-0.049
	c0.193,0.011,0.325-0.068,0.449-0.015c0.126-0.049,0.261-0.065,0.385-0.09l1.111-0.11c0.133-0.021,0.26-0.049,0.35-0.117
	c0.295,0.035,0.459-0.028,0.705-0.066l1.874-0.405c0.065-0.049,0.174-0.014,0.267-0.019c0.031-0.003,0.1-0.051,0.104-0.051
	l0.604-0.074c0.146-0.035,0.285-0.071,0.43-0.094l0.878-0.114c0.071-0.044,0.178-0.023,0.272-0.025
	C63,0.155,63.216,0.073,63.522,0.069c0.139-0.049,0.347-0.013,0.508-0.038L65.026,0c0.365,0.023,0.822,0.01,1.111,0.079
	C66.321,0.055,66.481,0.034,66.556,0l1.284,0.11c0.021,0.001,0.087,0.051,0.113,0.055c0.032,0.008,0.146-0.008,0.177,0.009
	c0.031,0.015,0.063,0.066,0.115,0.042c0.126-0.056,0.279,0.003,0.408,0.017c0.283,0.032,0.533,0.106,0.805,0.129l2.439,0.072
	c0.143,0.008,0.396-0.027,0.563,0.033c0.455,0.026,1.05,0.001,1.47,0.097c0.258-0.043,0.432,0.01,0.639,0.021l0.418,0.056
	c0.018,0.001,0.084,0.047,0.102,0.048l0.756,0.061c0.069,0.005,0.143,0.032,0.209,0.035c0.305,0.022,0.559,0.094,0.942,0.14
	c0.163-0.027,0.37,0.045,0.56,0.081c0.387,0.066,0.786,0.103,1.17,0.172c0.146,0.028,0.285,0.062,0.43,0.09l0.527,0.045
	c0.397,0.049,0.772,0.084,1.109,0.174c0.591-0.007,1.05,0.066,1.509,0.135l0.933,0.077l1.289,0.218
	c0.141,0.019,0.256,0.017,0.369,0.047c0.075,0.047,0.183,0.008,0.274,0.021c0.351,0.048,0.739,0.048,1.085,0.094
	c0.023,0.004,0.114,0.128,0.143,0.128c0.268,0.024,0.556,0.092,0.809,0.15l0.797,0.131c0.214,0.032,0.402,0.042,0.555,0.131
	l1.457,0.324c0.236,0.028,0.415,0.1,0.646,0.108c0.154,0.008,0.292,0.034,0.424,0.053l0.414,0.062l1.171,0.113
	c0.022,0.003,0.063-0.083,0.116-0.059c0.029,0.016,0.143,0.039,0.18,0.043l0.581,0.07c0.194,0.043,0.462,0.013,0.642-0.022
	c0.053-0.012,0.071,0.075,0.092,0.103c0.082,0.119,0.154,0.247,0.263,0.33c0.01,0.01-0.006,0.094,0.001,0.101
	c0.113,0.085,0.15,0.246,0.2,0.395l0.003,0.656c0,0.05,0.042,0.138,0.042,0.216c0.003,0.233-0.015,0.513-0.06,0.707l-0.041,0.822
	c-0.022,0.131-0.053,0.258-0.106,0.328l-0.138,1.31l-0.102,0.527c-0.074,0.232-0.16,0.466-0.206,0.718
	c-0.009,0.037-0.104,0.111-0.118,0.146c-0.023,0.06-0.016,0.136-0.063,0.191c-0.02,0.024-0.104,0.09-0.117,0.118l-0.27,0.521
	c-0.146,0.227-0.338,0.398-0.518,0.578c-0.066,0.16-0.177,0.27-0.311,0.328c-0.168,0.165-0.361,0.285-0.538,0.419l-0.302,0.292
	c-0.133,0.042-0.221,0.146-0.282,0.249c-0.033,0.051-0.109,0.083-0.144,0.135c-0.016,0.021-0.016,0.064,0.01,0.075
	c-0.146,0.101-0.246,0.259-0.367,0.387l-0.359,0.715c-0.023,0.048,0.045,0.112,0.034,0.191l-0.062,0.341
	c-0.039,0.253-0.094,0.479-0.074,0.742c0.033,0.505-0.049,1.104-0.088,1.581l0.031,1.172l0.028,0.527l0.024,1.347l0.045,3.277
	c0.022,0.339,0.104,0.676,0.043,1.017c0.048,0.727-0.008,1.479,0.039,2.087l-0.018,0.887c0.08,0.076,0.049,0.195,0.039,0.303
	c-0.035,0.403,0.067,0.926,0.085,1.33c0.072,0.274-0.038,0.625,0.03,0.839l0.033,1.406c-0.01,0.515-0.014,0.974,0.037,1.502
	c-0.025,0.638,0.029,1.23,0.027,1.835l-0.035,0.984c0,0.002,0.049,0.128,0.045,0.185c-0.039,0.522-0.013,1.003,0.006,1.549
	c0.004,0.098-0.061,0.182-0.061,0.185c0.044,0.216,0.016,0.396,0.03,0.534c0.039,0.369,0.042,0.783,0.065,1.132
	c0.035,0.519-0.016,1.073,0.035,1.756c0.036,0.454-0.021,0.888,0.014,1.327c0.007,0.047,0.052,0.188,0.05,0.193l-0.028,0.803
	c0.021,0.69-0.033,1.626,0.021,2.361l-0.03,0.645l0.021,0.526l0.043,1.816c0,0.116-0.049,0.236-0.065,0.27
	c0.015,0.208,0.051,0.311,0.054,0.465c0,0.019-0.063,0.053-0.063,0.066c0.033,1.343,0.043,2.811-0.045,4.176l0.017,0.411
	c0.058,1.03-0.006,2.132,0.037,3.14l0.03,0.585c-0.012,0.239-0.074,0.504-0.053,0.723c0.02,0.177,0.008,0.424,0.002,0.624
	c-0.093,0.142,0.008,0.337-0.002,0.473c-0.021,0.329,0.047,0.722-0.024,1.071c-0.019,0.498-0.013,1.228,0.038,1.831
	c-0.076,0.188-0.094,0.336-0.096,0.57c-0.004,0.111-0.064,0.229-0.045,0.351c0.047,0.318,0.004,0.752-0.029,1.053l-0.021,1.583
	c0.021,0.447-0.006,0.874-0.036,1.287c-0.025,0.396,0,0.892-0.009,1.325c0,0.025-0.054,0.097-0.054,0.109l-0.012,1.708l-0.002,1.463
	c0.078,0.295,0.008,0.57-0.063,0.81c0.022,0.022,0.063,0.06,0.063,0.063c0.02,0.398,0.031,0.634-0.006,1.001
	c-0.052,0.489,0.02,0.963-0.029,1.427l0.021,0.292l-0.006,0.229c-0.064,0.209,0.011,0.331-0.003,0.482
	c-0.013,0.188-0.076,0.372-0.048,0.575c0.039,0.298,0.039,0.729-0.04,0.973c-0.015,0.035,0.099,0.166,0.088,0.215
	c-0.062,0.297-0.009,0.593,0.021,0.921c0.03,0.367-0.043,0.791-0.031,1.153c0.006,0.313,0.009,0.549-0.012,0.827
	c0,0.005,0.055,0.038,0.055,0.05v0.527c0,0.013-0.043,0.051-0.037,0.033c-0.076,0.208-0.034,0.402-0.006,0.628
	c0-0.006,0.039,0.027,0.039,0.04c0.045,0.989-0.008,1.707,0.033,2.713c0.002,0.039,0.043,0.158,0.049,0.197
	c0.031,0.226,0.033,0.342,0,0.563c-0.049,0.074-0.008,0.18-0.022,0.276c-0.051,0.37-0.048,0.749-0.104,1.13
	c-0.027,0.177-0.002,0.418-0.008,0.623c0,0.016-0.057,0.049-0.057,0.061c0.016,0.269-0.051,0.42-0.081,0.644
	c-0.013,0.072-0.022,0.165-0.028,0.255l-0.041,1.054c-0.002,0.041-0.06,0.158-0.06,0.221v0.335
	c-0.161,0.448-0.161,0.962-0.214,1.459c-0.057,0.521-0.032,1.043-0.057,1.48c-0.063,0.1,0.029,0.214,0.002,0.353
	c-0.041,0.215-0.156,0.352-0.266,0.499c-0.14,0.07-0.275,0.147-0.438,0.211c-0.084-0.063-0.182-0.015-0.254-0.002l-0.334-0.069
	c-0.08-0.101-0.156-0.221-0.231-0.344c0.022-0.147-0.011-0.27-0.026-0.345c0.022-0.193,0.079-0.325,0.103-0.49
	c0,0.001,0.05-0.035,0.047-0.047c-0.029-0.193,0.039-0.302,0.06-0.468l0.09-0.369c0.054-0.173,0.018-0.418,0.022-0.609
	c0.071-0.124,0.078-0.248,0.108-0.387l0.035-0.57c0.006-0.063-0.063-0.221-0.045-0.253c0.043-0.08,0.012-0.171,0.027-0.271
	c0.038-0.193,0.012-0.44,0.08-0.572c-0.045-0.122-0.02-0.25-0.023-0.35c0.037-0.106,0.084-0.224,0.074-0.327
	c-0.018-0.396,0.021-0.724-0.029-1.15c-0.016-0.139-0.058-0.252-0.043-0.409c0.03-0.392-0.012-0.774,0.021-1.249
	c0-0.025-0.036-0.064-0.023-0.102c0.006-0.013,0.065-0.049,0.061-0.066c-0.087-0.363-0.063-0.776-0.027-1.18
	c0.021-0.275,0.075-0.59,0.069-0.859c-0.005-0.468-0.03-1.01,0.049-1.48l0.052-0.892c-0.01-0.242-0.064-0.469-0.052-0.753
	c0-0.021,0.026-0.062,0.021-0.095c-0.006-0.024-0.053-0.095-0.053-0.11c-0.031-0.563-0.011-1.094,0.012-1.586
	c0.019-0.415-0.015-0.85,0.021-1.252c0.042-0.495-0.059-1.229,0.057-1.727c-0.029-0.187-0.074-0.357-0.064-0.559
	c0.009-0.213,0-0.511,0.048-0.797c0.036-0.202-0.003-0.461-0.028-0.634c0.047-0.096,0.112-0.184,0.1-0.305
	c-0.018-0.164-0.076-0.312-0.043-0.486l0.029-0.471c-0.013-1.188-0.019-2.473,0.061-3.61l0.051-0.996l-0.016-0.524
	c-0.068-0.229,0.019-0.396,0.016-0.646l0.045-0.393l-0.042-0.311l0.042-0.687c-0.061-0.132,0.01-0.256,0.018-0.367
	c0.01-0.142,0.06-0.253,0.035-0.411c-0.05-0.412-0.025-0.728,0.021-1.053c0.016-0.09,0.021-0.164,0.027-0.249l0.064-1.729
	c0.003-0.109-0.015-0.184,0-0.268c0.023-0.116,0.029-0.245,0.063-0.326c0.023-0.051-0.074-0.139-0.08-0.214
	c0-0.033,0.057-0.14,0.055-0.179c-0.005-0.071-0.046-0.142-0.046-0.223l0.046-1.734c0.002-0.083,0.07-0.169,0.064-0.205l-0.064-0.34
	c-0.055-0.138,0.018-0.267,0.02-0.409c0.004-1.356-0.021-2.941,0.02-4.314l0.044-0.605c-0.026-0.082-0.054-0.191-0.041-0.345
	c0.003-0.047,0.075-0.099,0.054-0.163c-0.007-0.023-0.06-0.096-0.06-0.116v-1.063c0-0.049,0.081-0.102,0.06-0.168
	c-0.007-0.022-0.06-0.093-0.06-0.109l0.057-1.06c-0.03-0.304,0.007-0.679,0.03-0.898c-0.046-0.169-0.033-0.328-0.046-0.449
	l-0.026-1.696l0.039-0.528c-0.064-0.1,0.027-0.215,0.012-0.341c-0.009-0.036-0.067-0.104-0.064-0.131
	c0.064-0.598,0.003-1.118,0.038-1.717c0.003-0.023,0.026-0.063,0.009-0.116c-0.018-0.044-0.031-0.128-0.031-0.187l0.021-1.392
	l-0.009-0.293c0.021-0.396-0.051-0.938-0.049-1.405l-0.016-5.164c-0.003-0.133-0.05-0.268-0.057-0.298l0.021-0.843l-0.024-0.645
	l-0.043-2.106l-0.03-1.18c0-0.016,0.03-0.047,0.022-0.081c-0.012-0.04-0.059-0.165-0.056-0.219c0.032-0.769,0.011-1.535-0.021-2.27
	l-0.023-1.581l-0.055-1.229l-0.035-0.994l0.044-1.215c0-0.085-0.038-0.182-0.048-0.27l-0.039-0.882c0-0.02,0.033-0.062,0.025-0.094
	c-0.008-0.024-0.056-0.095-0.056-0.121c0.013-0.5,0-0.946-0.063-1.293c-0.018-0.077-0.053-0.153-0.047-0.245
	c0.029-0.742,0.023-1.471-0.031-2.224c-0.004-0.024,0.031-0.065,0.021-0.103c-0.002-0.012-0.056-0.043-0.056-0.057l-0.063-0.644
	l-0.058-0.351c-0.058-0.109-0.003-0.293-0.03-0.428c-0.048-0.217-0.015-0.498-0.023-0.75c-0.084-0.079-0.049-0.196-0.029-0.25
	c-0.048-0.167-0.025-0.326-0.045-0.445l-0.049-0.82c-0.021-0.59-0.098-1.126-0.166-1.674c-0.006-0.051-0.096-0.118-0.116-0.202
	c-0.063-0.249-0.224-0.405-0.313-0.594l-0.385-0.294c-0.253-0.081-0.443-0.11-0.712-0.146c-0.075-0.042-0.187-0.093-0.321-0.103
	c-0.148-0.012-0.271-0.045-0.41-0.07l-0.467-0.121c-0.299-0.066-0.603-0.104-0.869-0.191c-1.539-0.016-3.049-0.089-4.576-0.092
	c-0.014,0-0.047,0.057-0.063,0.061c-0.021,0.007-0.095-0.006-0.119,0.006c-0.029,0.017-0.068,0.082-0.107,0.042
	c-0.053-0.052-0.071,0.067-0.071,0.067l-0.429,0.502c-0.08,0.112-0.133,0.254-0.17,0.41c-0.006,0.021-0.004,0.095-0.01,0.116
	c-0.006,0.014-0.054,0.043-0.057,0.057c-0.009,0.021,0.003,0.102-0.006,0.107c-0.08,0.086-0.117,0.2-0.166,0.298l-0.242,0.239
	c-0.016,0.018-0.038,0.1-0.055,0.116l-0.273,0.271c-0.117,0.032-0.218,0.135-0.25,0.251l-0.295,0.295
	c-0.02,0.019-0.01,0.075,0.034,0.093c-0.091,0.03-0.169,0.073-0.212,0.152c-0.01,0.011,0.01,0.093,0,0.108
	c-0.021,0.037-0.125,0.121-0.148,0.158c-0.009,0.014,0.01,0.089-0.003,0.098c-0.108,0.072-0.14,0.218-0.165,0.369
	c-0.031,0.223-0.078,0.426-0.137,0.623l-0.049,0.469c-0.055,0.105-0.02,0.271-0.045,0.394l-0.043,0.82
	c-0.002,0.58-0.094,1.243-0.07,1.893l-0.021,0.525l-0.041,1.757c0,0.228-0.004,0.459-0.013,0.743
	c-0.019,0.556-0.063,1.096-0.042,1.658l-0.021,0.819l-0.034,1.58c-0.056,1.711,0.073,3.418-0.054,5.018
	c-0.027,0.37,0,0.751-0.039,1.191l0.027,0.643l-0.021,0.292l-0.031,0.764l-0.016,1.502c0,0.085-0.047,0.167-0.043,0.253
	l-0.021,0.529c-0.023,0.624,0.021,1.222-0.035,1.794c-0.023,0.224-0.025,0.443,0.039,0.604l-0.045,0.469
	c0.01,1.251,0.038,2.521,0.01,3.611c-0.021,0.838,0.025,1.81-0.033,2.713l0.013,1.17c0,0.048,0.057,0.195,0.053,0.245
	c-0.003,0.074-0.047,0.146-0.044,0.224l0.041,1.23c-0.035,0.541,0.049,1.04-0.064,1.518c-0.03,0.119-0.019,0.25,0.045,0.332
	l-0.058,0.789l0.046,0.271c-0.033,0.203-0.023,0.393-0.037,0.545l-0.026,1.815l-0.019,0.428l-0.037,1.037
	c-0.066,1.519,0.056,3.053,0.015,4.515c-0.063,0.127,0.015,0.226,0.015,0.322c-0.018,1.11,0.049,2.304-0.053,3.438
	c0.02,0.169-0.016,0.375,0.038,0.483c0.009,0.018-0.06,0.098-0.06,0.127c-0.008,0.627,0.004,1.127-0.039,1.711
	c-0.033,0.403-0.024,1.027,0.031,1.503c-0.025,0.771,0,1.34-0.031,2.005c-0.002,0.047-0.006,0.115-0.027,0.163
	c-0.014,0.032-0.064,0.063-0.047,0.116c0.035,0.097,0.08,0.207,0.074,0.313c-0.047,0.582,0.028,0.991,0.037,1.562l-0.049,0.41
	c0.012,0.294,0.085,0.546,0.074,0.819c-0.006,0.186-0.071,0.355-0.037,0.546l0.043,0.527l-0.063,0.353
	c-0.06,0.09-0.018,0.215-0.041,0.33l-0.049,0.646c-0.023,0.168-0.057,0.286-0.07,0.468l-0.039,1.027
	c-0.075,0.189-0.09,0.342-0.106,0.572c-0.005,0.111-0.045,0.227-0.045,0.319c0.065,0.147,0.009,0.274-0.006,0.383
	c-0.003,0.041-0.042,0.157-0.042,0.197c-0.042,0.756,0.006,1.439-0.021,2.146c-0.008,0.22-0.11,0.388-0.267,0.446
	c-0.056,0.023-0.125,0.107-0.179,0.14c-0.026,0.014-0.057,0.057-0.057,0.057c-0.377,0.052-0.623-0.08-0.765-0.276
	c-0.021-0.025-0.104-0.053-0.13-0.063c0.037-0.017,0.037-0.059,0.027-0.086c-0.002-0.024-0.053-0.095-0.053-0.124
	c-0.015-0.263,0.026-0.415,0.072-0.636c0.053-0.261,0.031-0.587,0.118-0.816c0.045-0.119,0.048-0.241,0.065-0.319
	c-0.051-0.229,0.023-0.352,0.035-0.508l0.021-1.336c0.063-0.102,0.025-0.21,0.038-0.304c0.058-0.558,0.028-1.21-0.007-1.746
	c0-0.031,0.06-0.104,0.06-0.122c-0.009-0.439,0.056-0.832,0.078-1.194l0.015-0.438c-0.035-0.07-0.096-0.15-0.088-0.244l0.064-0.363
	c0.003-0.021,0.047-0.057,0.047-0.104c0.005-0.445-0.051-1.1,0.016-1.595c0.004-0.021,0.055-0.054,0.045-0.105
	c-0.029-0.158-0.087-0.312-0.084-0.488c0.028-1.263,0-2.445,0.053-3.7c-0.088-0.231-0.023-0.443-0.014-0.672
	c0.03-0.551-0.011-0.951,0.027-1.481l0.045-0.38l-0.042-0.323c0.021-0.509,0.032-1.022,0.093-1.443l0.021-0.706
	c-0.004-0.521-0.019-1.017-0.061-1.506l0.088-0.295c0.014-0.038-0.094-0.169-0.094-0.221c-0.006-0.534,0.03-1.002-0.02-1.511
	l0.021-1.463c0.036-0.822,0.016-1.712,0.084-2.468c-0.064-0.127,0.018-0.227,0.006-0.322c0.064-0.115-0.016-0.235-0.016-0.352
	c-0.044-0.145-0.012-0.354-0.018-0.54c-0.004-0.072,0.063-0.159,0.053-0.191c-0.063-0.188,0-0.313,0.02-0.458
	c0.064-0.438-0.066-1.016,0.028-1.387c0.032-0.142-0.039-0.277-0.054-0.394c0.031-0.155,0.08-0.286,0.06-0.448l-0.036-0.819
	l0.042-0.732c0.003-0.075-0.063-0.225-0.06-0.271c0.009-0.076,0.064-0.146,0.063-0.163c-0.051-0.174-0.018-0.335-0.033-0.454
	c-0.066-0.411,0.076-0.968-0.018-1.356c-0.016-0.067,0.031-0.155,0.031-0.243l0.033-2.186c0.002-0.533-0.021-0.984,0.021-1.563
	c0.006-0.038,0.075-0.092,0.055-0.154c-0.006-0.017-0.061-0.048-0.061-0.06c0.023-1.217-0.018-2.602,0.018-3.767
	c-0.031-0.436-0.009-0.814,0.059-1.172l0.021-1.348L75.92,32.44c0.013-0.233,0.069-0.442,0.106-0.645l0.007-1.229
	c0.012-0.158-0.035-0.491,0.041-0.683l0.06-1.583l0.049-2.518c-0.004-1.968-0.037-3.743-0.07-5.738l-0.055-3.455l-0.027-0.78
	c-0.025-0.269-0.077-0.494-0.09-0.704c0.072-0.153-0.006-0.274-0.002-0.388c-0.045-0.109-0.013-0.287-0.021-0.428
	c0-0.022-0.075-0.08-0.078-0.09c-0.063-0.453-0.169-0.9-0.363-1.241c-0.01-0.021-0.078-0.071-0.086-0.097
	c-0.01-0.021,0.008-0.102-0.004-0.118c-0.101-0.143-0.234-0.263-0.322-0.427l-0.352-0.356c-0.031-0.036-0.035-0.109-0.076-0.142
	c-0.027-0.019-0.109-0.042-0.126-0.063l-0.235-0.237c-0.164-0.063-0.291-0.166-0.437-0.256c-0.021-0.016-0.047-0.105-0.069-0.121
	c-0.016-0.009-0.078,0.003-0.082,0c-0.177-0.137-0.373-0.23-0.558-0.398c-0.086-0.038-0.212-0.088-0.296-0.187
	c-0.009-0.01-0.082,0.009-0.1,0c-0.037-0.021-0.116-0.125-0.153-0.147c-0.021-0.009-0.093-0.002-0.084,0.001
	c-0.363-0.2-0.703-0.396-1.093-0.507c-0.221-0.063-0.463-0.151-0.694-0.142l-1.819,0.18c-0.431,0.06-0.867,0.117-1.268,0.211
	c-0.282,0.117-0.6,0.203-0.848,0.346c-0.026,0.014-0.11-0.011-0.129,0c-0.033,0.014-0.106,0.104-0.137,0.115
	c-0.029,0.012-0.131-0.009-0.158,0c-0.02,0.008-0.076,0.087-0.098,0.09l-0.938,0.048c-0.297,0.006-0.59-0.054-0.903,0.024
	c-0.043,0.026-0.125,0.06-0.222,0.067c-0.034,0.005-0.109,0.105-0.142,0.122c-0.018,0.008-0.088-0.011-0.099,0l-0.25,0.238
	c-0.012,0.01-0.092-0.009-0.1,0.002c-0.097,0.1-0.189,0.204-0.334,0.267l-0.793,0.79c-0.033,0.035-0.035,0.109-0.082,0.142
	l-0.763,0.527c-0.226,0.134-0.483,0.222-0.707,0.382c-0.272,0.083-0.577,0.161-0.892,0.229c-0.026,0.005-0.076,0.081-0.1,0.091
	c-0.02,0.009-0.097-0.007-0.115,0c-0.016,0.005-0.045,0.054-0.061,0.059c-0.021,0.008-0.098-0.007-0.117,0
	c-0.023,0.009-0.074,0.078-0.097,0.087c-0.019,0.007-0.078,0-0.125,0c-0.103,0.188-0.244,0.376-0.444,0.466
	c-0.021,0.01-0.015,0.075,0.023,0.09c-0.051,0.018-0.094,0.05-0.115,0.091c-0.082,0.164-0.171,0.319-0.266,0.449l-0.125,0.543
	c-0.006,0.042-0.072,0.157-0.078,0.191c-0.049,0.585-0.057,1.255-0.066,1.857c-0.021,0.66-0.037,1.409,0.02,2.188l-0.027,0.819
	l0.027,0.585l0.029,0.586c-0.019,0.901,0.006,1.859-0.033,2.675l0.033,0.524l-0.019,0.498c-0.058,0.16,0.007,0.314,0.007,0.438
	c0.016,1.959,0.041,3.87-0.046,5.76l0.024,0.353l-0.014,1.215c-0.003,0.096,0.024,0.158,0.024,0.25c0,0.57-0.013,0.932,0.01,1.5
	c-0.046,0.028-0.037,0.081-0.032,0.118l0.063,0.273l-0.006,1.562v0.248c0.048,0.137,0.023,0.263,0.031,0.376
	c-0.096,0.106-0.025,0.225-0.021,0.369c0.047,0.106-0.006,0.273,0.032,0.393c0.046,0.153,0.009,0.374,0.033,0.547l0.026,1.112
	l-0.038,0.938c0.049,0.185-0.017,0.399-0.033,0.544c-0.01,0.053,0.045,0.162,0.045,0.185l0.019,1.477l-0.009,0.809
	c-0.061,0.106-0.028,0.229,0,0.296c0.021,0.048-0.075,0.117-0.055,0.184c0.008,0.024,0.051,0.094,0.051,0.109
	c0.027,0.586-0.038,1.024-0.049,1.527l0.043,0.423c-0.037,0.265-0.008,0.477,0.037,0.631c-0.039,0.172-0.021,0.359-0.021,0.525
	c0,0.027-0.072,0.103-0.066,0.144c0.035,0.181,0.069,0.484-0.022,0.707c0,0.002-0.048,0.037-0.023,0.086
	c0.015,0.034,0.044,0.144,0.048,0.182l0.077,0.702l-0.015,1.991c-0.066,0.328,0.009,0.607-0.04,0.954l-0.08,1.145
	c-0.003,0.051,0.021,0.129,0.003,0.183c-0.018,0.061-0.057,0.132-0.057,0.182v0.58c0,0.024,0.06,0.098,0.054,0.122
	c-0.021,0.164,0.024,0.272,0.048,0.422c0.027,0.19,0.012,0.462-0.003,0.668c-0.003,0.021-0.006,0.084-0.015,0.093
	c-0.102,0.096-0.168,0.236-0.232,0.354c-0.038,0.065-0.152,0.093-0.209,0.158c-0.081-0.024-0.132,0.045-0.195,0.021
	c-0.142-0.051-0.293-0.075-0.418-0.137c-0.033-0.021-0.121-0.142-0.142-0.184c-0.013-0.013,0.009-0.093,0-0.113
	c-0.013-0.022-0.099-0.077-0.099-0.105l0.068-1.081c0.021-0.147,0.078-0.271,0.071-0.393c-0.03-0.4-0.017-0.903,0.019-1.289
	c0.049-0.5-0.006-1.05,0.032-1.54l0.042-0.472l-0.051-0.877c-0.032-0.177-0.018-0.417-0.025-0.63c0-0.018,0.051-0.089,0.051-0.102
	c0.012-0.154,0.029-0.291-0.014-0.394c-0.025-0.058,0.036-0.145,0.033-0.224l-0.045-2.049c-0.016-0.542-0.003-1.038,0.021-1.639
	l0.039-1.054c0.026-0.224,0.071-0.42,0.071-0.625l-0.042-0.702c-0.021-0.098-0.048-0.191-0.072-0.292
	c-0.053-0.206,0.024-0.359,0.059-0.54c-0.045-0.032-0.061-0.087-0.033-0.112c0.08-0.073,0.021-0.194,0.012-0.302
	c-0.064-0.529,0.033-0.989-0.029-1.449c-0.029-1.305,0.027-2.803-0.021-4.06c-0.009-0.264,0.03-0.471-0.003-0.802
	c-0.019-0.18-0.05-0.347-0.05-0.544c0-0.024,0.029-0.065,0.021-0.097c-0.01-0.025-0.035-0.096-0.035-0.079l-0.031-2.38l0.012-2.519
	c0.006-0.105,0.068-0.218,0.046-0.352l-0.036-0.354l-0.016-2.928l-0.006-3.214c0-0.029,0.049-0.061,0.037-0.093
	c-0.008-0.042-0.053-0.166-0.055-0.205c-0.039-0.652-0.008-1.271-0.031-1.876c0-0.022-0.06-0.092-0.057-0.118
	c0.074-1.034-0.084-2.071-0.134-3.101l-0.104-1.642c-0.071-0.527-0.275-0.975-0.508-1.277l-0.268-0.212l-0.307-0.088
	c-0.695-0.112-1.31,0.045-1.892,0.187c-0.935,0.224-1.919,0.422-2.823,0.704c-0.283,0.087-0.562,0.208-0.845,0.313
	c-0.206,0.075-0.38,0.206-0.612,0.267l-0.447,0.288c-0.106,0.01-0.222,0.06-0.3,0.149l-0.927,0.521
	c-0.023,0.013-0.076,0.076-0.096,0.08c-0.193,0.039-0.348,0.126-0.472,0.239c-0.174,0.033-0.315,0.104-0.43,0.202
	c-0.039,0.035-0.197,0.085-0.234,0.121l-0.221,0.224c-0.264,0.134-0.435,0.377-0.505,0.685c-0.009,0.042-0.079,0.154-0.088,0.193
	c-0.056,0.279-0.064,0.629-0.095,0.914c0.056,0.039,0.031,0.103,0.028,0.149c-0.009,0.135-0.049,0.255-0.04,0.4l-0.024,2.693
	l0.016,0.705c0.052,0.465-0.038,0.916,0.043,1.384l-0.034,0.528l0.018,0.733c0.047,0.113,0.02,0.233,0.025,0.34
	c0.048,0.594,0.036,1.13-0.031,1.637c0.053,0.128,0.025,0.249,0.031,0.354c0.064,0.889,0.022,1.69,0,2.558l-0.059,0.453
	c-0.008,0.063,0.073,0.218,0.075,0.269l-0.016,0.819c-0.046,0.095-0.018,0.205-0.09,0.275c0.02,0.197-0.021,0.331-0.065,0.46
	c0.034,0.03,0.048,0.062,0.04,0.095c-0.011,0.041-0.054,0.164-0.056,0.206c-0.022,0.485,0.104,0.849,0.123,1.287l-0.115,0.828
	c-0.008,0.054-0.146,0.168-0.188,0.192c-0.138,0.076-0.248,0.188-0.41,0.237c-0.053,0.014-0.076-0.042-0.11-0.058
	c-0.034-0.015-0.146,0.005-0.177-0.004c-0.056-0.018-0.121-0.036-0.14-0.076c-0.079-0.152-0.146-0.296-0.205-0.445
	c-0.023-0.062,0.062-0.15,0.039-0.22c-0.008-0.034-0.036-0.083-0.011-0.108c0.078-0.073,0.042-0.197,0.028-0.3l0.062-0.533
	l0.034-0.938l0.02-0.584l0.101-0.761c-0.009-0.195-0.018-0.421-0.021-0.626c0-0.011,0.068-0.05,0.065-0.065
	c-0.067-0.355-0.042-0.868,0.014-1.184c0.006-0.425-0.008-0.785-0.036-1.216c0-0.023-0.012-0.071-0.009-0.109
	c0.012-0.088,0.057-0.168,0.042-0.255c-0.039-0.236,0.031-0.425-0.02-0.624c-0.011-0.036-0.059-0.145-0.054-0.206
	c0.037-0.755,0.037-1.456-0.036-2.245c0.062-0.142,0.039-0.275-0.022-0.354c-0.014-0.331,0.022-0.542,0.056-0.826
	c0-0.011-0.042-0.049-0.039-0.042c-0.07-0.208-0.039-0.493-0.036-0.746c0-0.019,0.025-0.058,0.017-0.091
	c-0.008-0.025-0.048-0.094-0.048-0.105l-0.044-1.578c0,0.02,0.031-0.049,0.034-0.074c0.01-0.139-0.034-0.246-0.04-0.368
	c-0.033-0.687-0.033-1.416-0.057-2.092l-0.022-0.587c0-0.011-0.048-0.043-0.048-0.049c0.006-0.146-0.083-0.253-0.101-0.388
	c-0.134-0.104-0.23-0.266-0.319-0.396c-0.026-0.042-0.119-0.076-0.155-0.077l-0.539-0.006l-0.267-0.138
	c-0.124-0.091-0.239-0.213-0.335-0.33c0.018-0.007,0.018-0.048,0.006-0.074c-0.03-0.079-0.072-0.156-0.081-0.253
	c0-0.033-0.102-0.11-0.106-0.128l-0.201-0.532c-0.002-0.01-0.075-0.069-0.07-0.085c0.023-0.151-0.072-0.263-0.142-0.317
	c-0.06-0.3-0.242-0.476-0.388-0.675c-0.025-0.031,0.016-0.201-0.008-0.238c-0.042-0.063-0.071-0.151-0.077-0.248
	c-0.003-0.025-0.081-0.08-0.092-0.102c-0.009-0.022,0.011-0.1,0-0.118c-0.015-0.028-0.116-0.087-0.132-0.144
	c-0.062-0.187-0.116-0.425-0.253-0.586c-0.104-0.058-0.171-0.18-0.309-0.208c-0.025-0.005-0.115,0.012-0.144-0.004
	c-0.14-0.076-0.294-0.146-0.48-0.194c-0.037-0.008-0.141,0.001-0.177-0.007c-0.015-0.004-0.045-0.048-0.048-0.048l-0.458-0.098
	c-0.203-0.075-0.408-0.173-0.635-0.247c-0.096-0.096-0.248-0.161-0.431-0.235l-0.612,0.018l-0.762,0.106l-0.292,0.01l-0.626,0.074
	c-0.486,0.012-1.328,0.063-1.832-0.039c-0.104-0.021-0.264-0.003-0.39-0.007c-0.028,0-0.096-0.061-0.121-0.061h-0.418l-0.677,0.406
	c-0.037,0.022-0.129,0.021-0.144,0.03l-0.328,0.236c-0.012,0.007-0.094-0.008-0.11,0.002c-0.425,0.2-0.823,0.423-1.188,0.699
	c-0.003,0.001-0.059,0.005-0.048-0.001c-0.391,0.219-0.733,0.447-1.079,0.658c-0.365,0.228-0.741,0.439-1.121,0.684
	c-0.045,0.064-0.146,0.125-0.245,0.17c-0.056,0.133-0.104,0.257-0.245,0.367l-1.312,0.496c-0.016,0.005-0.089-0.006-0.112,0
	c-0.042,0.011-0.154,0.082-0.193,0.087l-0.529,0.062c-0.343,0.072-0.708-0.016-1.031-0.052c-0.374-0.043-0.778-0.063-1.109-0.175
	c-0.119-0.04-0.241-0.043-0.376-0.077c-0.036-0.011-0.157-0.042-0.197-0.046l-0.739-0.069l-0.508-0.089l-1.584-0.452
	c-0.565-0.096-1.049-0.289-1.638-0.354l-0.298-0.008l-0.312-0.199c-0.025-0.016-0.05-0.1-0.053-0.105l-0.29-0.015
	c-0.031-0.002-0.107-0.106-0.14-0.119c-0.02-0.009-0.107,0-0.132,0c-0.022-0.053,0.02-0.095,0.056-0.11
	c0.09-0.035,0.146-0.136,0.149-0.237c0-0.021-0.076-0.074-0.092-0.092c0.089-0.048,0.188-0.083,0.263-0.138
	c0.02-0.015,0.009-0.149,0-0.185c-0.005-0.024-0.045-0.092-0.059-0.118c-0.014,0.039-0.061,0.045-0.087,0.031l-0.32-0.199
	c-0.045-0.029-0.045-0.113-0.085-0.152c0.02,0,0.107-0.012,0.116,0c0.07,0.103,0.194,0.152,0.312,0.234c0.007,0.006,0.117,0,0.171,0
	l-0.018-0.285c-0.087-0.078-0.163-0.175-0.233-0.272c-0.009-0.017-0.095-0.031-0.036-0.054c0.008-0.036,0.011-0.075-0.02-0.087
	c0.067-0.049,0.145-0.079,0.227-0.059c0.025-0.03,0.107-0.101,0.121-0.131c0.012-0.026-0.017-0.143,0.003-0.157
	c0.081-0.063,0.163-0.179,0.14-0.335c0.091-0.081,0.191-0.163,0.236-0.288l0.06,0.058c0.034-0.104,0.151-0.167,0.28-0.181
	c0.164-0.016,0.268-0.082,0.425-0.124c0.022-0.007,0.107-0.119,0.146-0.134c0.028-0.015,0.141,0.006,0.174,0
	c0.012-0.006,0.045-0.056,0.059-0.055c0.085,0.003,0.163-0.018,0.23-0.064c0.034-0.025,0.121-0.125,0.157-0.146
	c0.017-0.009,0.076-0.007,0.065,0c0.2-0.114,0.382-0.222,0.461-0.405c0.09,0.001,0.163-0.027,0.255-0.048
	c0.287-0.063,0.59,0.025,0.891,0.023c0,0,0.039,0.057,0.057,0.053c0.163-0.037,0.303-0.027,0.457-0.007
	c0.444,0.064,0.939,0.074,1.349,0.173c0.438-0.009,0.882-0.001,1.146,0.059c0.247-0.025,0.356-0.067,0.52-0.056
	c0.191-0.097,0.323-0.224,0.433-0.363c0.048-0.064,0.048-0.164,0.039-0.227l-0.576-0.027c-0.104-0.054-0.27-0.001-0.391-0.035
	c-0.168-0.047-0.413-0.003-0.606-0.021c-0.584-0.053-1.217-0.046-1.795-0.055c-0.686-0.009-1.41,0.011-2.042,0.06
	C20.2,10.24,20,10.164,19.747,10.211c-0.042,0.008-0.157,0.042-0.199,0.046l-0.742,0.062l-6.357,1.21
	c-0.113,0.063-0.239,0.055-0.371,0.088c-0.233,0.056-0.514,0.092-0.759,0.157c-0.059,0.087-0.186,0.127-0.28,0.213l-0.352,0.178
	l-0.231,0.234c-0.02,0.018-0.101,0.042-0.121,0.059l-0.643,0.642c-0.14,0.032-0.168,0.187-0.29,0.239
	c-0.241,0.205-0.491,0.407-0.71,0.638c-0.132,0.081-0.25,0.181-0.413,0.239c-0.015,0.005-0.087,0-0.087,0
	c-0.312,0.159-0.534,0.383-0.852,0.537C7.228,14.889,7.056,15,6.882,15.094c-0.022,0.013-0.075,0.077-0.098,0.087
	c-0.017,0.006-0.086-0.01-0.095,0L6.33,15.534l-0.242,0.344l-0.054-0.111c-0.022,0.03-0.056,0.042-0.089,0.059l-0.057-0.06
	c0.02-0.033,0.042-0.076,0.028-0.118c-0.009-0.014-0.057-0.056-0.07-0.055c-0.248,0.019-0.453-0.086-0.607-0.187
	c-0.219,0.022-0.362,0.142-0.453,0.271c-0.112,0.036-0.185,0.104-0.244,0.182c-0.135-0.025-0.247,0.03-0.303,0.1
	c-0.042,0.051-0.219,0.035-0.247-0.02l-0.166-0.309c-0.141-0.134-0.32-0.263-0.463-0.432c0.011-0.092,0.064-0.173,0.098-0.255
	l0.466-0.466c0.018-0.018,0.04-0.099,0.057-0.117l0.584-0.587l0.239-0.349l0.354-0.356c0.031-0.093,0.092-0.175,0.163-0.229
	C5.351,12.821,5.323,12.76,5.3,12.726z"/>
</svg>
