<svg xmlns="http://www.w3.org/2000/svg" xmlns:se="http://svg-edit.googlecode.com" xmlns:xlink="http://www.w3.org/1999/xlink" id="svgcontent" width="205.65" height="395.85" x="0" y="0" viewBox="0 0 205.65 395.85" overflow="hidden"><g mask="" style="pointer-events:all"><title style="pointer-events:inherit">Layer 1</title><g id="svg_1" type="text" text="HAPPY" font-size="35.35300231096899" font-family="Interceptor" fill="ffffff" text-anchor="start" font-weight="normal" font-style="normal" lineHeight="1" shapeId="0" shapeVal="0" fill-opacity="1" display="null" elemBBoxWidth="161.2421875" stroke="null" stroke-dasharray="none" stroke-opacity="1" style="pointer-events:inherit"><path id="svg_7" fill="#ffffff" stroke-width="1" d="M23.46937,151.89992C23.46937,151.89992 23.46937,155.40727 23.46937,155.40727C23.46937,155.40727 35.5503,155.40727 35.5503,155.40727C35.5503,155.40727 35.5503,151.89992 35.5503,151.89992C35.5503,151.89992 33.0172,151.89992 33.0172,151.89992C33.0172,151.89992 33.0172,144.5929 33.0172,144.5929C33.0172,144.5929 41.78561,144.5929 41.78561,144.5929C41.78561,144.5929 41.78561,151.89992 41.78561,151.89992C41.78561,151.89992 39.25252,151.89992 39.25252,151.89992C39.25252,151.89992 39.25252,155.40727 39.25252,155.40727C39.25252,155.40727 51.72315,155.40727 51.72315,155.40727C51.72315,155.40727 51.72315,151.89992 51.72315,151.89992C51.72315,151.89992 49.28747,151.89992 49.28747,151.89992C49.28747,151.89992 49.28747,132.70682 49.28747,132.70682C49.28747,132.70682 51.72315,132.70682 51.72315,132.70682C51.72315,132.70682 51.72315,129.19946 51.72315,129.19946C51.72315,129.19946 39.25252,129.19946 39.25252,129.19946C39.25252,129.19946 39.25252,132.70682 39.25252,132.70682C39.25252,132.70682 41.78561,132.70682 41.78561,132.70682C41.78561,132.70682 41.78561,139.62413 41.78561,139.62413C41.78561,139.62413 33.0172,139.62413 33.0172,139.62413C33.0172,139.62413 33.0172,132.70682 33.0172,132.70682C33.0172,132.70682 35.5503,132.70682 35.5503,132.70682C35.5503,132.70682 35.5503,129.19946 35.5503,129.19946C35.5503,129.19946 23.46937,129.19946 23.46937,129.19946C23.46937,129.19946 23.46937,132.70682 23.46937,132.70682C23.46937,132.70682 25.51534,132.70682 25.51534,132.70682C25.51534,132.70682 25.51534,139.72154 25.51534,139.72154C25.51534,139.72154 22.20283,139.72154 22.20283,139.72154C22.20283,139.72154 22.20283,144.5929 22.20283,144.5929C22.20283,144.5929 25.51534,144.5929 25.51534,144.5929C25.51534,144.5929 25.51534,151.89992 25.51534,151.89992C25.51534,151.89992 23.46937,151.89992 23.46937,151.89992C23.46937,151.89992 23.46937,151.89992 23.46937,151.89992M63.80407,129.19946C62.34267,129.49173 60.68642,130.56343 60.68642,132.12225C60.68642,132.12225 60.68642,139.13699 60.68642,139.13699C60.68642,139.13699 57.17905,139.13699 57.17905,139.13699C57.17905,139.13699 57.17905,144.10576 57.17905,144.10576C57.17905,144.10576 60.49156,144.10576 60.49156,144.10576C60.49156,144.10576 60.49156,151.41277 60.49156,151.41277C60.49156,151.41277 58.05589,151.41277 58.05589,151.41277C58.05589,151.41277 58.05589,155.40727 58.05589,155.40727C58.05589,155.40727 70.52652,155.40727 70.52652,155.40727C70.52652,155.40727 70.52652,151.41277 70.52652,151.41277C70.52652,151.41277 67.99342,151.41277 67.99342,151.41277C67.99342,151.41277 67.99342,144.10576 67.99342,144.10576C67.99342,144.10576 76.76184,144.10576 76.76184,144.10576C76.76184,144.10576 76.76184,151.41277 76.76184,151.41277C76.76184,151.41277 74.22874,151.41277 74.22874,151.41277C74.22874,151.41277 74.22874,155.40727 74.22874,155.40727C74.22874,155.40727 86.69937,155.40727 86.69937,155.40727C86.69937,155.40727 86.69937,151.41277 86.69937,151.41277C86.69937,151.41277 84.06884,151.41277 84.06884,151.41277C84.06884,151.41277 84.06884,132.12225 84.06884,132.12225C83.67914,130.56343 82.31517,129.19946 80.56148,129.19946C80.56148,129.19946 63.80407,129.19946 63.80407,129.19946C63.80407,129.19946 63.80407,129.19946 63.80407,129.19946M67.99342,139.13699C68.18828,137.09103 67.31143,134.0708 68.87027,133.38881C68.87027,133.38881 75.885,133.38881 75.885,133.38881C77.44383,134.0708 76.56697,137.09103 76.76184,139.13699C76.76184,139.13699 67.99342,139.13699 67.99342,139.13699C67.99342,139.13699 67.99342,139.13699 67.99342,139.13699M118.4605,132.12225C118.0708,130.17372 115.82998,129.19946 113.78402,129.19946C113.78402,129.19946 93.03211,129.19946 93.03211,129.19946C93.03211,129.19946 93.03211,132.70682 93.03211,132.70682C93.03211,132.70682 95.46778,132.70682 95.46778,132.70682C95.46778,132.70682 95.46778,139.72154 95.46778,139.72154C95.46778,139.72154 92.15527,139.72154 92.15527,139.72154C92.15527,139.72154 92.15527,144.49547 92.15527,144.49547C92.15527,144.49547 95.46778,144.49547 95.46778,144.49547C95.46778,144.49547 95.46778,151.89992 95.46778,151.89992C95.46778,151.89992 93.03211,151.89992 93.03211,151.89992C93.03211,151.89992 93.03211,155.40727 93.03211,155.40727C93.03211,155.40727 105.50274,155.40727 105.50274,155.40727C105.50274,155.40727 105.50274,151.89992 105.50274,151.89992C105.50274,151.89992 102.57994,151.89992 102.57994,151.89992C102.57994,151.89992 102.57994,144.5929 102.57994,144.5929C108.42555,144.20319 116.70683,146.15172 118.4605,141.67009C118.4605,141.67009 118.4605,132.12225 118.4605,132.12225C118.4605,132.12225 118.4605,132.12225 118.4605,132.12225M111.05607,139.62413C111.05607,139.62413 102.96965,139.62413 102.96965,139.62413C102.96965,139.62413 102.96965,133.38881 102.96965,133.38881C102.96965,133.38881 111.05607,133.38881 111.05607,133.38881C111.05607,133.38881 111.05607,139.62413 111.05607,139.62413C111.05607,139.62413 111.05607,139.62413 111.05607,139.62413M150.12422,132.12225C149.73452,130.17372 147.49369,129.19946 145.44773,129.19946C145.44773,129.19946 124.69582,129.19946 124.69582,129.19946C124.69582,129.19946 124.69582,132.70682 124.69582,132.70682C124.69582,132.70682 127.1315,132.70682 127.1315,132.70682C127.1315,132.70682 127.1315,139.72154 127.1315,139.72154C127.1315,139.72154 123.81899,139.72154 123.81899,139.72154C123.81899,139.72154 123.81899,144.49547 123.81899,144.49547C123.81899,144.49547 127.1315,144.49547 127.1315,144.49547C127.1315,144.49547 127.1315,151.89992 127.1315,151.89992C127.1315,151.89992 124.69582,151.89992 124.69582,151.89992C124.69582,151.89992 124.69582,155.40727 124.69582,155.40727C124.69582,155.40727 137.16645,155.40727 137.16645,155.40727C137.16645,155.40727 137.16645,151.89992 137.16645,151.89992C137.16645,151.89992 134.24366,151.89992 134.24366,151.89992C134.24366,151.89992 134.24366,144.5929 134.24366,144.5929C140.08927,144.20319 148.37053,146.15172 150.12422,141.67009C150.12422,141.67009 150.12422,132.12225 150.12422,132.12225C150.12422,132.12225 150.12422,132.12225 150.12422,132.12225M142.71978,139.62413C142.71978,139.62413 134.63335,139.62413 134.63335,139.62413C134.63335,139.62413 134.63335,133.38881 134.63335,133.38881C134.63335,133.38881 142.71978,133.38881 142.71978,133.38881C142.71978,133.38881 142.71978,139.62413 142.71978,139.62413C142.71978,139.62413 142.71978,139.62413 142.71978,139.62413M165.32279,136.50647C167.66104,141.18295 175.45519,137.77303 173.11695,132.70682C173.11695,132.70682 170.87613,132.70682 170.87613,132.70682C170.87613,132.70682 170.87613,129.19946 170.87613,129.19946C170.87613,129.19946 183.44419,129.19946 183.44419,129.19946C183.44419,129.19946 183.44419,132.70682 183.44419,132.70682C183.44419,132.70682 180.91109,132.70682 180.91109,132.70682C181.00852,138.74728 176.33202,140.11127 172.53238,142.44951C172.53238,142.44951 172.53238,151.89992 172.53238,151.89992C172.53238,151.89992 174.96805,151.89992 174.96805,151.89992C174.96805,151.89992 174.96805,155.40727 174.96805,155.40727C174.96805,155.40727 162.49742,155.40727 162.49742,155.40727C162.49742,155.40727 162.49742,151.89992 162.49742,151.89992C162.49742,151.89992 164.93309,151.89992 164.93309,151.89992C164.93309,151.89992 164.93309,142.44951 164.93309,142.44951C161.71801,140.20869 157.82094,138.455 158.0158,132.70682C158.0158,132.70682 155.4827,132.70682 155.4827,132.70682C155.4827,132.70682 155.4827,129.19946 155.4827,129.19946C155.4827,129.19946 167.56362,129.19946 167.56362,129.19946C167.56362,129.19946 167.56362,132.70682 167.56362,132.70682C167.56362,132.70682 165.22538,132.70682 165.22538,132.70682C165.32279,133.97337 164.93309,135.5322 165.32279,136.50647C165.32279,136.50647 165.32279,136.50647 165.32279,136.50647" stroke="#000000" style="pointer-events:inherit"/><rect id="svg_8" x="22.203905901944538" y="129.1992205213814" width="161.23920786326784" height="26.209095829744427" fill="#ffffff" opacity="0" stroke="#000000" stroke-width="1" style="pointer-events:inherit"/></g><g id="svg_4" type="text" text="NEW YEAR" font-size="23.263524401119195" font-family="Interceptor" fill="ffffff" text-anchor="start" font-weight="normal" font-style="normal" lineHeight="1" shapeId="0" shapeVal="0" fill-opacity="1" display="null" elemBBoxWidth="161.4226531982422" stroke="null" stroke-dasharray="none" stroke-opacity="1" style="pointer-events:inherit"><path id="svg_9" fill="#ffffff" stroke-width="1" d="M22.11365,241.35083C22.11365,241.35083 22.11365,243.67712 22.11365,243.67712C22.11365,243.67712 30.12645,243.67712 30.12645,243.67712C30.12645,243.67712 30.12645,241.60931 30.12645,241.60931C30.12645,241.60931 28.51097,241.60931 28.51097,241.60931C28.51097,241.60931 28.51097,235.08275 28.51097,235.08275C28.51097,235.08275 38.65621,243.67712 38.65621,243.67712C38.65621,243.67712 39.36702,243.67712 39.36702,243.67712C39.36702,243.67712 39.36702,228.8793 39.36702,228.8793C39.36702,228.8793 41.17636,228.8793 41.17636,228.8793C41.17636,228.8793 41.17636,226.29453 41.17636,226.29453C41.17636,226.29453 33.16356,226.29453 33.16356,226.29453C33.16356,226.29453 33.16356,228.62082 33.16356,228.62082C33.16356,228.62082 34.84366,228.62082 34.84366,228.62082C34.84366,228.62082 34.84366,234.43657 34.84366,234.43657C34.84366,234.43657 24.82766,226.29453 24.82766,226.29453C24.82766,226.29453 23.92299,226.29453 23.92299,226.29453C23.92299,226.29453 23.92299,241.35083 23.92299,241.35083C23.92299,241.35083 22.11365,241.35083 22.11365,241.35083C22.11365,241.35083 22.11365,241.35083 22.11365,241.35083M45.63509,241.35083C45.63509,241.35083 45.63509,243.67712 45.63509,243.67712C45.63509,243.67712 61.3376,243.67712 61.3376,243.67712C61.3376,243.67712 61.3376,238.11987 61.3376,238.11987C61.3376,238.11987 57.07272,238.11987 57.07272,238.11987C57.07272,238.11987 57.07272,240.8985 57.07272,240.8985C57.07272,240.8985 51.96778,240.8985 51.96778,240.8985C51.96778,240.8985 51.96778,236.37514 51.96778,236.37514C51.96778,236.37514 56.42653,236.37514 56.42653,236.37514C56.42653,236.37514 56.42653,233.27341 56.42653,233.27341C56.42653,233.27341 51.96778,233.27341 51.96778,233.27341C51.96778,233.27341 51.96778,229.07315 51.96778,229.07315C51.96778,229.07315 57.07272,229.07315 57.07272,229.07315C57.07272,229.07315 57.07272,231.2056 57.07272,231.2056C57.07272,231.2056 61.3376,231.2056 61.3376,231.2056C61.3376,231.2056 61.3376,226.29453 61.3376,226.29453C61.3376,226.29453 45.63509,226.29453 45.63509,226.29453C45.63509,226.29453 45.63509,228.62082 45.63509,228.62082C45.63509,228.62082 46.9921,228.62082 46.9921,228.62082C46.9921,228.62082 46.9921,233.27341 46.9921,233.27341C46.9921,233.27341 44.79504,233.27341 44.79504,233.27341C44.79504,233.27341 44.79504,236.37514 44.79504,236.37514C44.79504,236.37514 46.9921,236.37514 46.9921,236.37514C46.9921,236.37514 46.9921,241.35083 46.9921,241.35083C46.9921,241.35083 45.63509,241.35083 45.63509,241.35083C45.63509,241.35083 45.63509,241.35083 45.63509,241.35083M64.95627,228.62082C64.95627,228.62082 66.76561,228.62082 66.76561,228.62082C66.76561,228.62082 66.76561,243.67712 66.76561,243.67712C66.76561,243.67712 67.15333,243.67712 67.15333,243.67712C67.15333,243.67712 75.48923,237.27982 75.48923,237.27982C75.48923,237.27982 83.7605,243.67712 83.7605,243.67712C83.7605,243.67712 84.14821,243.67712 84.14821,243.67712C84.14821,243.67712 84.14821,228.62082 84.14821,228.62082C84.14821,228.62082 85.95755,228.62082 85.95755,228.62082C85.95755,228.62082 85.95755,226.29453 85.95755,226.29453C85.95755,226.29453 77.68628,226.29453 77.68628,226.29453C77.68628,226.29453 77.68628,228.62082 77.68628,228.62082C77.68628,228.62082 79.30176,228.62082 79.30176,228.62082C79.30176,228.62082 79.30176,235.40585 79.30176,235.40585C77.68628,234.75966 76.84624,233.40265 75.48923,232.49799C74.13222,233.40265 73.16293,234.69504 71.61206,235.40585C71.61206,235.40585 71.61206,228.62082 71.61206,228.62082C71.61206,228.62082 73.22755,228.62082 73.22755,228.62082C73.22755,228.62082 73.22755,226.29453 73.22755,226.29453C73.22755,226.29453 64.95627,226.29453 64.95627,226.29453C64.95627,226.29453 64.95627,228.62082 64.95627,228.62082C64.95627,228.62082 64.95627,228.62082 64.95627,228.62082M105.4726,231.14098C107.02347,234.24271 112.19301,231.98103 110.64215,228.62082C110.64215,228.62082 109.1559,228.62082 109.1559,228.62082C109.1559,228.62082 109.1559,226.29453 109.1559,226.29453C109.1559,226.29453 117.49179,226.29453 117.49179,226.29453C117.49179,226.29453 117.49179,228.62082 117.49179,228.62082C117.49179,228.62082 115.81169,228.62082 115.81169,228.62082C115.8763,232.62723 112.77458,233.53189 110.25443,235.08275C110.25443,235.08275 110.25443,241.35083 110.25443,241.35083C110.25443,241.35083 111.8699,241.35083 111.8699,241.35083C111.8699,241.35083 111.8699,243.67712 111.8699,243.67712C111.8699,243.67712 103.59863,243.67712 103.59863,243.67712C103.59863,243.67712 103.59863,241.35083 103.59863,241.35083C103.59863,241.35083 105.21413,241.35083 105.21413,241.35083C105.21413,241.35083 105.21413,235.08275 105.21413,235.08275C103.08168,233.59651 100.4969,232.43336 100.62614,228.62082C100.62614,228.62082 98.94604,228.62082 98.94604,228.62082C98.94604,228.62082 98.94604,226.29453 98.94604,226.29453C98.94604,226.29453 106.95885,226.29453 106.95885,226.29453C106.95885,226.29453 106.95885,228.62082 106.95885,228.62082C106.95885,228.62082 105.40797,228.62082 105.40797,228.62082C105.4726,229.46088 105.21413,230.49478 105.4726,231.14098C105.4726,231.14098 105.4726,231.14098 105.4726,231.14098M121.88591,241.35083C121.88591,241.35083 121.88591,243.67712 121.88591,243.67712C121.88591,243.67712 137.58841,243.67712 137.58841,243.67712C137.58841,243.67712 137.58841,238.11987 137.58841,238.11987C137.58841,238.11987 133.32353,238.11987 133.32353,238.11987C133.32353,238.11987 133.32353,240.8985 133.32353,240.8985C133.32353,240.8985 128.2186,240.8985 128.2186,240.8985C128.2186,240.8985 128.2186,236.37514 128.2186,236.37514C128.2186,236.37514 132.67734,236.37514 132.67734,236.37514C132.67734,236.37514 132.67734,233.27341 132.67734,233.27341C132.67734,233.27341 128.2186,233.27341 128.2186,233.27341C128.2186,233.27341 128.2186,229.07315 128.2186,229.07315C128.2186,229.07315 133.32353,229.07315 133.32353,229.07315C133.32353,229.07315 133.32353,231.2056 133.32353,231.2056C133.32353,231.2056 137.58841,231.2056 137.58841,231.2056C137.58841,231.2056 137.58841,226.29453 137.58841,226.29453C137.58841,226.29453 121.88591,226.29453 121.88591,226.29453C121.88591,226.29453 121.88591,228.62082 121.88591,228.62082C121.88591,228.62082 123.2429,228.62082 123.2429,228.62082C123.2429,228.62082 123.2429,233.27341 123.2429,233.27341C123.2429,233.27341 121.04585,233.27341 121.04585,233.27341C121.04585,233.27341 121.04585,236.37514 121.04585,236.37514C121.04585,236.37514 123.2429,236.37514 123.2429,236.37514C123.2429,236.37514 123.2429,241.35083 123.2429,241.35083C123.2429,241.35083 121.88591,241.35083 121.88591,241.35083C121.88591,241.35083 121.88591,241.35083 121.88591,241.35083M145.6012,226.29453C144.63191,226.48839 143.53339,227.1992 143.53339,228.23311C143.53339,228.23311 143.53339,232.8857 143.53339,232.8857C143.53339,232.8857 141.20709,232.8857 141.20709,232.8857C141.20709,232.8857 141.20709,236.18129 141.20709,236.18129C141.20709,236.18129 143.40414,236.18129 143.40414,236.18129C143.40414,236.18129 143.40414,241.02774 143.40414,241.02774C143.40414,241.02774 141.78867,241.02774 141.78867,241.02774C141.78867,241.02774 141.78867,243.67712 141.78867,243.67712C141.78867,243.67712 150.05994,243.67712 150.05994,243.67712C150.05994,243.67712 150.05994,241.02774 150.05994,241.02774C150.05994,241.02774 148.37984,241.02774 148.37984,241.02774C148.37984,241.02774 148.37984,236.18129 148.37984,236.18129C148.37984,236.18129 154.19557,236.18129 154.19557,236.18129C154.19557,236.18129 154.19557,241.02774 154.19557,241.02774C154.19557,241.02774 152.51547,241.02774 152.51547,241.02774C152.51547,241.02774 152.51547,243.67712 152.51547,243.67712C152.51547,243.67712 160.78674,243.67712 160.78674,243.67712C160.78674,243.67712 160.78674,241.02774 160.78674,241.02774C160.78674,241.02774 159.04202,241.02774 159.04202,241.02774C159.04202,241.02774 159.04202,228.23311 159.04202,228.23311C158.78355,227.1992 157.87888,226.29453 156.71573,226.29453C156.71573,226.29453 145.6012,226.29453 145.6012,226.29453C145.6012,226.29453 145.6012,226.29453 145.6012,226.29453M148.37984,232.8857C148.50908,231.52869 147.92751,229.5255 148.96141,229.07315C148.96141,229.07315 153.614,229.07315 153.614,229.07315C154.6479,229.5255 154.06635,231.52869 154.19557,232.8857C154.19557,232.8857 148.37984,232.8857 148.37984,232.8857C148.37984,232.8857 148.37984,232.8857 148.37984,232.8857M181.33569,243.67712C177.20006,243.87097 177.13544,240.64001 177.13544,236.50438C177.13544,236.50438 171.3197,236.50438 171.3197,236.50438C171.3197,236.50438 171.3197,241.35083 171.3197,241.35083C171.3197,241.35083 173.25827,241.35083 173.25827,241.35083C173.25827,241.35083 173.25827,243.67712 173.25827,243.67712C173.25827,243.67712 164.987,243.67712 164.987,243.67712C164.987,243.67712 164.987,241.35083 164.987,241.35083C164.987,241.35083 166.60249,241.35083 166.60249,241.35083C166.60249,241.35083 166.60249,236.43976 166.60249,236.43976C166.60249,236.43976 164.40544,236.43976 164.40544,236.43976C164.40544,236.43976 164.40544,233.27341 164.40544,233.27341C164.40544,233.27341 166.60249,233.27341 166.60249,233.27341C166.60249,233.27341 166.60249,228.62082 166.60249,228.62082C166.60249,228.62082 164.987,228.62082 164.987,228.62082C164.987,228.62082 164.987,226.29453 164.987,226.29453C164.987,226.29453 178.75093,226.29453 178.75093,226.29453C180.10794,226.42377 181.59418,226.94072 181.85265,228.23311C181.6588,230.43016 182.49884,233.2088 180.62488,234.04884C179.0094,234.75966 180.17256,234.82428 181.91727,236.76286C181.91727,236.76286 181.91727,241.28622 181.91727,241.28622C181.91727,241.28622 183.53275,241.28622 183.53275,241.28622C183.53275,241.28622 183.53275,243.74176 183.53275,243.74176C182.6927,243.74176 181.91727,243.67712 181.33569,243.67712C181.33569,243.67712 181.33569,243.67712 181.33569,243.67712M176.94157,233.2088C176.94157,233.2088 176.94157,229.07315 176.94157,229.07315C176.94157,229.07315 171.57817,229.07315 171.57817,229.07315C171.57817,229.07315 171.57817,233.2088 171.57817,233.2088C171.57817,233.2088 176.94157,233.2088 176.94157,233.2088C176.94157,233.2088 176.94157,233.2088 176.94157,233.2088" stroke="#000000" style="pointer-events:inherit"/><rect id="svg_10" x="22.11797062214464" y="226.29297692794353" width="161.41796712297946" height="17.451801071874797" fill="#ffffff" opacity="0" stroke="#000000" stroke-width="1" style="pointer-events:inherit"/></g><g id="svg_11" type="text" text="2016" font-size="70.48298782026806" font-family="Education Pencil" fill="ffffff" text-anchor="start" font-weight="normal" font-style="normal" lineHeight="1" shapeId="0" shapeVal="0" fill-opacity="1" display="null" elemBBoxWidth="161.23605346679688" stroke="null" stroke-dasharray="none" stroke-opacity="1" style="pointer-events:inherit"><path id="svg_14" fill="#ffffff" stroke-width="1" d="M61.0581,219.68825C50.36828,221.8262 34.92742,219.21315 24.00004,221.3511C23.04983,221.11356 20.91187,219.68825 23.28739,219.45068C23.04983,216.83762 23.52494,213.27434 22.57473,211.37393C22.33718,210.66129 22.57473,210.18619 23.52494,210.42372C33.26456,199.25879 49.41807,194.03267 49.89318,173.60321C45.14213,166.95178 29.70128,171.46526 27.32577,176.69139C24.7127,174.79097 19.24901,168.85219 24.95025,166.71422C32.31435,161.25053 47.2801,157.68726 55.35686,165.05135C59.87035,169.32729 62.24586,178.35425 57.49483,185.24324C50.84338,194.98286 44.66704,204.48494 35.16497,211.13638C43.00417,210.66129 51.55604,210.66129 59.87035,210.66129C62.48342,211.61148 58.92014,217.78784 61.0581,219.68825C61.0581,219.68825 61.0581,219.68825 61.0581,219.68825M54.1691,180.72977C49.41807,194.03267 38.4907,201.15923 29.70128,210.42372C39.67845,202.10942 49.65562,194.27022 54.1691,180.72977C54.1691,180.72977 54.1691,180.72977 54.1691,180.72977M52.98135,213.74947C44.42948,213.27434 35.16497,213.74947 28.27597,215.17476C36.35273,214.4621 45.61725,215.17476 52.98135,213.74947C52.98135,213.74947 52.98135,213.74947 52.98135,213.74947M47.99276,219.21315C48.70541,218.97559 52.26869,219.21315 50.36828,218.26292C45.14213,218.73802 38.72825,218.02538 33.97721,218.97559C33.97721,218.97559 47.99276,219.21315 47.99276,219.21315M44.19193,164.3387C36.35273,164.57625 30.65149,166.00156 26.85067,170.2775C31.6017,167.42688 35.87763,164.3387 44.19193,165.05135C43.95438,164.81381 43.95438,164.57625 44.19193,164.3387C44.19193,164.3387 44.19193,164.3387 44.19193,164.3387M45.37968,197.59595C49.89318,194.03267 52.98135,189.51918 55.59441,184.0555C52.74379,189.04408 48.94296,193.32001 45.37968,197.59595C45.37968,197.59595 45.37968,197.59595 45.37968,197.59595M43.00417,202.34697C39.67845,205.43513 35.40252,207.33556 32.5519,210.89882C36.35273,208.28575 40.15356,205.6727 43.00417,202.34697C43.00417,202.34697 43.00417,202.34697 43.00417,202.34697M49.89318,185.9559C51.31849,184.0555 52.50624,180.01712 51.31849,176.69139C51.08093,180.01712 50.84338,183.34283 49.89318,185.9559C49.89318,185.9559 49.89318,185.9559 49.89318,185.9559M35.64007,201.15923C40.62865,197.83348 44.66704,193.32001 47.51766,188.33142C44.66704,193.08246 39.67845,197.35838 35.64007,201.15923C35.64007,201.15923 35.64007,201.15923 35.64007,201.15923M54.40666,171.7028C53.69401,169.08974 47.99276,164.81381 44.66704,165.52646C47.75521,166.23912 52.98135,168.13953 54.40666,171.7028C54.40666,171.7028 54.40666,171.7028 54.40666,171.7028M50.13073,216.60007C48.23031,215.17476 44.42948,216.60007 41.34132,216.36252C41.34132,216.36252 50.13073,216.60007 50.13073,216.60007M27.32577,173.12811C29.22618,172.653 30.17639,170.75259 31.6017,170.03993C29.70128,170.51503 27.80087,171.22771 27.32577,173.12811C27.32577,173.12811 27.32577,173.12811 27.32577,173.12811M54.88176,217.31271C56.30707,217.78784 59.6328,218.02538 58.92014,215.88741C58.20749,216.83762 56.06952,216.83762 54.88176,217.31271C54.88176,217.31271 54.88176,217.31271 54.88176,217.31271M35.40252,164.81381C35.40252,164.81381 45.61725,162.67584 45.61725,162.67584C45.61725,162.43829 46.09235,161.72563 45.37968,161.9632C43.47928,163.3885 38.25314,163.3885 35.40252,164.81381C35.40252,164.81381 35.40252,164.81381 35.40252,164.81381M41.81642,168.37709C41.81642,168.37709 47.99276,169.32729 47.99276,169.32729C46.3299,168.61462 44.42948,168.13953 41.81642,168.37709C41.81642,168.37709 41.81642,168.37709 41.81642,168.37709M55.11932,174.79097C53.69401,174.79097 54.40666,176.92894 54.88176,177.64159C54.88176,177.64159 55.11932,174.79097 55.11932,174.79097M52.26869,164.10115C53.21889,165.28891 53.93156,166.00156 55.11932,166.95178C54.1691,166.00156 53.45646,165.05135 52.26869,164.10115C52.26869,164.10115 52.26869,164.10115 52.26869,164.10115M58.68259,179.30446C59.15769,178.1167 59.87035,176.21628 59.15769,175.02852C59.15769,176.69139 59.15769,178.1167 58.68259,179.30446C58.68259,179.30446 58.68259,179.30446 58.68259,179.30446M52.74379,171.7028C52.26869,171.22771 50.60583,168.37709 50.13073,170.03993C51.08093,170.51503 52.26869,170.99016 52.74379,171.7028C52.74379,171.7028 52.74379,171.7028 52.74379,171.7028M35.64007,170.03993C37.30293,169.32729 38.9658,169.56483 40.62865,168.61462C40.62865,168.61462 35.64007,170.03993 35.64007,170.03993M29.70128,208.52332C28.98863,209.47353 25.90045,211.13638 26.37556,211.84903C26.37556,211.84903 29.70128,208.52332 29.70128,208.52332M52.98135,175.50362C52.98135,174.55344 51.79359,172.1779 51.31849,172.89056C52.03113,173.60321 52.50624,174.31587 52.98135,175.50362C52.98135,175.50362 52.98135,175.50362 52.98135,175.50362M25.42535,169.56483C24.7127,170.51503 23.28739,170.2775 24.2376,171.46526C24.47515,170.99016 24.7127,170.2775 25.42535,169.56483C25.42535,169.56483 25.42535,169.56483 25.42535,169.56483M49.18053,165.05135C49.18053,165.05135 51.55604,166.23912 51.55604,166.23912C51.08093,165.28891 50.36828,165.28891 49.18053,165.05135C49.18053,165.05135 49.18053,165.05135 49.18053,165.05135M44.66704,166.23912C44.90459,166.95178 43.47928,166.47665 43.95438,166.95178C45.14213,166.95178 45.14213,166.95178 44.66704,166.23912C44.66704,166.23912 44.66704,166.23912 44.66704,166.23912M57.73238,214.69966C58.92014,214.4621 59.39524,215.88741 59.15769,214.22456C59.15769,214.22456 57.73238,214.69966 57.73238,214.69966M53.21889,167.66443C52.98135,167.18932 52.50624,166.71422 52.03113,166.47665C52.03113,166.47665 53.21889,167.66443 53.21889,167.66443M25.1878,212.56169C24.95025,213.0368 24.47515,213.0368 25.42535,213.0368C25.42535,213.0368 25.1878,212.79924 25.1878,212.56169C25.1878,212.56169 25.1878,212.56169 25.1878,212.56169M30.65149,213.0368C30.65149,213.0368 30.41394,213.0368 30.41394,213.0368C30.41394,213.0368 30.65149,213.0368 30.65149,213.0368C30.65149,213.0368 30.65149,213.0368 30.65149,213.0368M26.13801,219.21315C25.90045,219.21315 25.6629,218.73802 25.6629,219.21315C25.6629,219.21315 26.13801,219.21315 26.13801,219.21315C26.13801,219.21315 26.13801,219.21315 26.13801,219.21315M25.6629,173.36566C25.6629,173.36566 25.90045,172.89056 25.90045,172.653C25.90045,172.89056 25.1878,173.12811 25.6629,173.36566C25.6629,173.36566 25.6629,173.36566 25.6629,173.36566M31.83925,170.51503C32.0768,170.75259 31.83925,171.22771 32.31435,171.22771C32.31435,171.22771 31.83925,170.51503 31.83925,170.51503M25.6629,214.69966C25.6629,214.69966 25.1878,214.69966 25.1878,214.93721C25.1878,214.93721 25.6629,214.69966 25.6629,214.69966M49.41807,171.22771C49.65562,171.22771 50.13073,171.94035 50.13073,171.46526C50.13073,171.46526 49.41807,171.22771 49.41807,171.22771M42.05397,166.71422C41.81642,166.71422 41.34132,166.95178 41.81642,166.95178C41.81642,166.95178 42.05397,166.71422 42.05397,166.71422M59.39524,212.08659C59.39524,212.08659 59.39524,212.32414 59.39524,212.32414C59.39524,212.32414 59.39524,212.08659 59.39524,212.08659C59.39524,212.08659 59.39524,212.08659 59.39524,212.08659M66.04668,175.02852C76.49895,151.98601 111.89417,165.76401 107.38068,191.65714C108.56844,211.13638 95.74065,226.33971 76.2614,218.50049C63.19607,213.27434 58.92014,189.99429 66.04668,175.02852C66.04668,175.02852 66.04668,175.02852 66.04668,175.02852M73.17324,193.08246C73.17324,204.24738 80.06224,215.17476 90.98961,209.23596C102.15453,203.05963 99.77901,175.74118 86.47612,173.12811C76.49895,173.84077 73.17324,182.15508 73.17324,193.08246C73.17324,193.08246 73.17324,193.08246 73.17324,193.08246M70.79772,202.58452C72.46057,204.00983 74.59854,209.94862 76.02385,208.04822C73.64833,206.1478 72.93569,204.00983 72.22303,200.6841C71.98548,201.39676 71.98548,202.82207 70.79772,202.58452C70.79772,202.58452 70.79772,202.58452 70.79772,202.58452M73.64833,181.91753C71.98548,183.81793 71.98548,190.94449 72.22303,194.50777C72.46057,189.99429 72.22303,185.24324 73.64833,181.91753C73.64833,181.91753 73.64833,181.91753 73.64833,181.91753M81.01244,211.61148C81.01244,211.61148 77.21161,208.99841 77.21161,208.99841C76.97406,211.37393 78.87447,211.84903 81.01244,211.61148C81.01244,211.61148 81.01244,211.61148 81.01244,211.61148M100.49169,213.27434C102.15453,211.61148 103.10474,210.18619 103.10474,207.81065C102.62964,209.94862 99.77901,211.61148 100.49169,213.27434C100.49169,213.27434 100.49169,213.27434 100.49169,213.27434M86.47612,164.81381C85.05081,164.10115 83.15041,163.3885 81.96263,164.81381C82.6753,166.95178 85.05081,163.8636 86.47612,164.81381C86.47612,164.81381 86.47612,164.81381 86.47612,164.81381M100.25412,202.34697C100.25412,200.209 99.77901,197.83348 99.77901,195.45798C99.77901,197.59595 100.49169,200.44656 99.54148,202.10942C99.54148,202.10942 100.25412,202.34697 100.25412,202.34697M101.44188,185.24324C102.15453,186.66855 102.62964,190.23183 102.62964,191.4196C102.62964,189.04408 102.62964,186.66855 101.44188,185.24324C101.44188,185.24324 101.44188,185.24324 101.44188,185.24324M92.89002,211.61148C91.70226,212.08659 90.98961,213.5119 89.08919,213.27434C90.27695,213.5119 92.89002,213.27434 92.89002,211.61148C92.89002,211.61148 92.89002,211.61148 92.89002,211.61148M80.53734,168.85219C80.06224,167.66443 77.44916,168.61462 76.2614,169.08974C76.97406,167.90198 79.82468,167.66443 80.53734,168.85219C80.53734,168.85219 80.53734,168.85219 80.53734,168.85219M65.80913,204.72247C67.47199,207.33556 68.18465,209.94862 70.56015,212.08659C70.56015,212.08659 65.80913,204.72247 65.80913,204.72247M65.09647,194.74532C63.19607,195.22041 65.33402,197.83348 65.09647,199.02126C65.09647,197.59595 64.62137,195.93307 65.09647,194.74532C65.09647,194.74532 65.09647,194.74532 65.09647,194.74532M104.05495,196.40817C103.8174,198.07104 102.86719,199.49635 103.34229,201.15923C103.57985,199.7339 104.29251,198.30859 104.05495,196.40817C104.05495,196.40817 104.05495,196.40817 104.05495,196.40817M70.56015,170.99016C70.56015,170.99016 67.23444,175.26608 67.23444,175.26608C68.65975,173.36566 70.08506,173.12811 70.56015,170.99016C70.56015,170.99016 70.56015,170.99016 70.56015,170.99016M69.37241,181.20486C69.84751,180.25467 70.79772,178.1167 70.79772,177.64159C70.79772,177.64159 69.37241,181.20486 69.37241,181.20486M86.23857,167.42688C85.76346,167.90198 86.23857,168.85219 87.18878,168.61462C87.66388,168.13953 86.47612,167.90198 86.23857,167.42688C86.23857,167.42688 86.23857,167.42688 86.23857,167.42688M70.08506,207.5731C69.60996,206.38535 69.60996,205.43513 68.4222,204.24738C68.8973,205.43513 69.13486,206.86044 70.08506,207.5731C70.08506,207.5731 70.08506,207.5731 70.08506,207.5731M88.37653,168.85219C88.37653,168.85219 90.98961,170.99016 90.98961,170.99016C90.75205,169.8024 89.32675,169.8024 88.37653,168.85219C88.37653,168.85219 88.37653,168.85219 88.37653,168.85219M96.69084,213.0368C96.21575,213.987 95.02799,213.5119 95.02799,214.69966C95.50309,214.22456 95.74065,213.74947 95.97818,214.69966C95.97818,214.69966 96.69084,213.0368 96.69084,213.0368M104.53006,185.24324C104.53006,186.43102 104.05495,187.14366 104.53006,188.33142C104.76761,187.38121 104.76761,186.19345 104.53006,185.24324C104.53006,185.24324 104.53006,185.24324 104.53006,185.24324M81.01244,218.97559C82.2002,219.21315 85.52593,219.45068 85.52593,218.50049C85.52593,218.50049 81.01244,218.97559 81.01244,218.97559M75.07364,171.7028C74.36098,171.94035 73.88588,172.41547 73.64833,173.36566C73.64833,173.36566 75.07364,171.7028 75.07364,171.7028M98.59127,184.29305C98.82881,184.76814 98.82881,187.14366 99.30391,185.9559C99.30391,185.9559 98.59127,184.29305 98.59127,184.29305M85.76346,215.41231C85.05081,215.41231 83.86306,214.93721 83.62551,215.41231C83.62551,215.41231 85.76346,215.41231 85.76346,215.41231C85.76346,215.41231 85.76346,215.41231 85.76346,215.41231M105.95537,196.17064C105.95537,196.17064 105.95537,194.98286 105.95537,194.98286C105.95537,194.98286 105.95537,196.17064 105.95537,196.17064C105.95537,196.17064 105.95537,196.17064 105.95537,196.17064M100.49169,209.23596C100.49169,209.47353 100.01657,209.71106 100.01657,209.71106C100.01657,209.71106 100.49169,209.23596 100.49169,209.23596M69.60996,197.35838C69.37241,197.59595 69.37241,197.59595 69.60996,197.83348C69.60996,197.83348 69.60996,197.35838 69.60996,197.35838C69.60996,197.35838 69.60996,197.35838 69.60996,197.35838M94.55287,208.76086C94.55287,208.76086 92.17736,210.42372 92.17736,210.42372C92.17736,210.42372 94.55287,208.76086 94.55287,208.76086M102.62964,184.0555C102.62964,184.0555 102.62964,183.81793 102.62964,183.81793C102.62964,183.81793 102.62964,184.0555 102.62964,184.0555C102.62964,184.0555 102.62964,184.0555 102.62964,184.0555M95.50309,175.02852C95.74065,175.50362 95.74065,175.97874 95.74065,175.02852C95.74065,175.02852 95.50309,175.02852 95.50309,175.02852C95.50309,175.02852 95.50309,175.02852 95.50309,175.02852M76.49895,217.07518C76.49895,217.07518 76.02385,216.83762 76.02385,216.83762C76.2614,217.07518 76.2614,217.07518 76.49895,217.07518C76.49895,217.07518 76.49895,217.07518 76.49895,217.07518M76.02385,175.74118C76.02385,175.74118 75.31121,176.45384 75.31121,176.45384C75.31121,176.45384 76.02385,175.74118 76.02385,175.74118M67.47199,184.0555C67.47199,184.0555 67.47199,184.53059 67.70954,184.53059C67.70954,184.53059 67.47199,184.0555 67.47199,184.0555M113.31948,221.3511C109.51865,221.8262 111.41907,216.12497 110.70639,213.0368C114.98233,212.56169 122.10889,214.22456 119.73336,206.1478C119.73336,206.1478 120.20848,172.1779 120.20848,172.1779C118.54561,173.36566 116.17009,176.21628 114.03212,174.07831C112.36925,172.89056 110.70639,170.75259 109.7562,168.85219C112.60681,165.28891 117.1203,164.10115 120.20848,160.53787C123.77173,161.01297 128.76033,160.06277 131.13586,161.72563C129.71055,177.16649 129.94809,196.17064 131.13586,212.08659C133.98648,212.56169 138.73751,210.89882 139.68772,213.27434C139.68772,218.02538 140.63792,222.06375 131.13586,220.40089C131.13586,220.40089 113.31948,221.3511 113.31948,221.3511M122.34642,186.90611C123.29663,183.81793 122.82154,179.54199 122.34642,176.21628C122.34642,176.21628 122.34642,186.90611 122.34642,186.90611C122.34642,186.90611 122.34642,186.90611 122.34642,186.90611M122.34642,200.6841C122.10889,198.30859 123.29663,194.74532 122.10889,193.08246C122.10889,195.45798 121.87133,198.54614 122.34642,200.6841C122.34642,200.6841 122.34642,200.6841 122.34642,200.6841M124.24684,181.67996C123.77173,178.35425 124.95951,173.12811 123.5342,170.75259C123.29663,174.55344 124.24684,178.1167 124.24684,181.67996C124.24684,181.67996 124.24684,181.67996 124.24684,181.67996M125.67217,177.64159C125.67217,174.55344 126.14727,170.99016 125.67217,168.13953C124.95951,170.2775 126.14727,174.07831 125.67217,177.64159C125.67217,177.64159 125.67217,177.64159 125.67217,177.64159M128.99789,170.03993C128.52278,171.7028 128.28523,174.79097 128.76033,176.45384C128.76033,176.45384 128.99789,170.03993 128.99789,170.03993M122.58399,212.32414C122.82154,209.71106 123.05909,207.81065 122.34642,205.43513C122.34642,205.43513 122.58399,212.32414 122.58399,212.32414M128.52278,198.78369C128.52278,200.6841 127.57257,203.53473 128.76033,204.48494C128.76033,202.58452 128.76033,200.209 128.52278,198.78369C128.52278,198.78369 128.52278,198.78369 128.52278,198.78369M125.19704,212.32414C126.38481,211.84903 124.95951,209.47353 125.19704,207.5731C125.19704,207.5731 125.19704,212.32414 125.19704,212.32414C125.19704,212.32414 125.19704,212.32414 125.19704,212.32414M125.67217,219.21315C123.5342,219.21315 121.15868,218.97559 120.20848,219.68825C120.20848,219.68825 125.67217,219.21315 125.67217,219.21315M123.77173,162.20073C122.10889,161.9632 122.10889,163.8636 120.92112,164.57625C121.63378,163.3885 122.58399,162.91339 123.77173,162.20073C123.77173,162.20073 123.77173,162.20073 123.77173,162.20073M112.60681,217.78784C112.60681,219.68825 113.08191,219.21315 114.26967,218.50049C113.31948,218.50049 112.84436,218.26292 112.60681,217.78784C112.60681,217.78784 112.60681,217.78784 112.60681,217.78784M117.35785,216.83762C115.93253,217.07518 114.50724,216.36252 114.03212,217.07518C114.03212,217.07518 117.35785,216.83762 117.35785,216.83762M127.81012,189.04408C128.52278,188.09386 127.81012,185.9559 128.04768,184.29305C128.04768,184.29305 127.81012,189.04408 127.81012,189.04408M134.22401,217.55028C133.27383,216.83762 132.3236,217.31271 131.13586,217.55028C131.13586,217.55028 134.22401,217.55028 134.22401,217.55028C134.22401,217.55028 134.22401,217.55028 134.22401,217.55028M131.37341,213.74947C132.08607,213.74947 131.84851,214.69966 133.03627,214.4621C132.56117,213.5119 132.79873,213.5119 131.37341,213.74947C131.37341,213.74947 131.37341,213.74947 131.37341,213.74947M115.93253,171.46526C116.88274,171.22771 117.1203,170.75259 117.35785,169.56483C117.35785,169.56483 115.93253,171.46526 115.93253,171.46526M124.48439,194.74532C124.48439,194.74532 124.72194,200.44656 124.72194,200.44656C124.72194,200.44656 124.48439,194.74532 124.48439,194.74532M112.13172,216.12497C112.60681,217.31271 112.36925,217.31271 113.31948,216.12497C113.31948,216.12497 112.13172,216.12497 112.13172,216.12497C112.13172,216.12497 112.13172,216.12497 112.13172,216.12497M119.97092,168.37709C119.49582,168.61462 119.02071,169.32729 119.02071,169.8024C119.73336,169.56483 119.49582,168.85219 119.97092,168.37709C119.97092,168.37709 119.97092,168.37709 119.97092,168.37709M117.83295,164.57625C117.35785,165.05135 115.45743,165.52646 116.40764,166.00156C116.40764,166.00156 117.83295,164.57625 117.83295,164.57625M118.07051,218.50049C118.54561,218.26292 119.49582,218.50049 119.49582,218.02538C119.49582,218.02538 118.07051,218.50049 118.07051,218.50049M122.58399,168.85219C122.82154,169.32729 121.39623,169.8024 122.10889,170.2775C121.87133,169.32729 123.05909,169.56483 122.58399,168.85219C122.58399,168.85219 122.58399,168.85219 122.58399,168.85219M127.81012,166.00156C127.09748,166.00156 126.38481,165.05135 126.14727,166.00156C126.14727,166.00156 127.81012,166.00156 127.81012,166.00156C127.81012,166.00156 127.81012,166.00156 127.81012,166.00156M121.15868,204.48494C121.87133,204.24738 121.15868,203.05963 121.15868,202.34697C121.15868,202.34697 121.15868,204.48494 121.15868,204.48494C121.15868,204.48494 121.15868,204.48494 121.15868,204.48494M129.23542,212.08659C128.76033,211.61148 128.76033,210.42372 128.76033,212.08659C128.76033,212.08659 129.23542,212.08659 129.23542,212.08659C129.23542,212.08659 129.23542,212.08659 129.23542,212.08659M129.23542,168.37709C128.76033,168.13953 128.76033,168.61462 128.76033,169.08974C128.99789,169.32729 129.23542,169.32729 129.23542,168.85219C129.23542,168.85219 129.23542,168.37709 129.23542,168.37709C129.23542,168.37709 129.23542,168.37709 129.23542,168.37709M123.77173,166.71422C123.77173,166.71422 124.0093,165.28891 124.0093,165.28891C123.77173,165.76401 123.77173,166.23912 123.77173,166.71422C123.77173,166.71422 123.77173,166.71422 123.77173,166.71422M121.15868,213.987C120.92112,214.69966 121.87133,214.4621 122.34642,214.4621C122.34642,213.987 121.39623,214.69966 121.15868,213.987C121.15868,213.987 121.15868,213.987 121.15868,213.987M118.54561,165.76401C118.54561,165.76401 117.5954,166.71422 117.5954,166.71422C118.07051,166.71422 118.30805,166.23912 118.54561,165.76401C118.54561,165.76401 118.54561,165.76401 118.54561,165.76401M129.23542,164.3387C129.23542,164.3387 129.23542,162.91339 129.23542,162.91339C128.99789,163.3885 128.99789,163.8636 129.23542,164.3387C129.23542,164.3387 129.23542,164.3387 129.23542,164.3387M119.73336,214.4621C119.73336,213.5119 119.25826,214.22456 119.02071,214.4621C119.02071,214.4621 119.73336,214.4621 119.73336,214.4621C119.73336,214.4621 119.73336,214.4621 119.73336,214.4621M138.02485,215.88741C137.31219,215.88741 137.07464,216.36252 138.02485,216.36252C138.02485,216.36252 138.02485,215.88741 138.02485,215.88741C138.02485,215.88741 138.02485,215.88741 138.02485,215.88741M114.50724,170.75259C114.50724,170.75259 113.55703,171.22771 114.03212,171.46526C114.03212,171.46526 114.50724,170.75259 114.50724,170.75259M137.78729,218.26292C137.54975,218.50049 136.83709,218.50049 137.78729,218.50049C137.78729,218.50049 137.78729,218.26292 137.78729,218.26292C137.78729,218.26292 137.78729,218.26292 137.78729,218.26292M115.45743,173.60321C115.45743,173.60321 115.21988,173.60321 115.21988,173.60321C115.21988,173.60321 115.45743,173.60321 115.45743,173.60321C115.45743,173.60321 115.45743,173.60321 115.45743,173.60321M123.29663,203.53473C123.29663,203.53473 123.29663,203.29718 123.29663,203.29718C123.29663,203.29718 123.29663,203.53473 123.29663,203.53473C123.29663,203.53473 123.29663,203.53473 123.29663,203.53473M117.5954,172.653C118.30805,172.41547 118.07051,172.1779 118.30805,171.94035C118.30805,171.94035 117.5954,172.653 117.5954,172.653M124.95951,188.09386C124.95951,188.09386 124.95951,188.33142 124.95951,188.33142C124.95951,188.33142 124.95951,188.09386 124.95951,188.09386C124.95951,188.09386 124.95951,188.09386 124.95951,188.09386M125.19704,162.67584C125.19704,162.67584 125.19704,162.43829 125.19704,162.43829C125.19704,162.43829 125.19704,162.67584 125.19704,162.67584C125.19704,162.67584 125.19704,162.67584 125.19704,162.67584M114.74477,169.08974C114.74477,169.08974 114.98233,168.85219 114.98233,168.85219C114.98233,168.85219 114.74477,169.08974 114.74477,169.08974M112.84436,219.9258C112.84436,219.9258 113.08191,219.9258 113.08191,219.9258C113.08191,219.9258 112.84436,219.9258 112.84436,219.9258C112.84436,219.9258 112.84436,219.9258 112.84436,219.9258M182.68457,204.48494C177.93351,227.52745 134.22401,226.33971 140.63792,195.93307C143.96363,180.49222 150.37753,169.8024 158.69186,160.77542C162.96777,161.25053 169.61923,161.25053 172.94496,161.48807C168.90658,167.18932 163.20533,173.36566 159.87962,179.77956C176.98332,178.35425 186.24784,187.85632 182.68457,204.48494C182.68457,204.48494 182.68457,204.48494 182.68457,204.48494M154.4159,192.13223C151.09019,198.78369 151.32775,212.32414 162.01757,209.71106C167.95636,208.28575 172.46986,206.62291 172.46986,199.7339C172.46986,190.94449 162.73022,191.4196 154.4159,192.13223C154.4159,192.13223 154.4159,192.13223 154.4159,192.13223M145.86405,199.7339C146.33915,194.50777 148.00201,189.04408 149.66488,184.76814C146.81425,186.90611 145.86405,195.45798 144.91384,200.209C144.91384,199.7339 145.38894,199.7339 145.86405,199.7339C145.86405,199.7339 145.86405,199.7339 145.86405,199.7339M157.02899,211.13638C151.56529,209.94862 150.37753,203.77228 151.32775,197.12082C149.18978,202.82207 150.61509,211.13638 157.02899,211.13638C157.02899,211.13638 157.02899,211.13638 157.02899,211.13638M143.96363,203.29718C144.91384,209.23596 147.28938,212.79924 151.80285,214.93721C148.23957,212.08659 145.86405,207.5731 143.96363,203.29718C143.96363,203.29718 143.96363,203.29718 143.96363,203.29718M159.64205,217.78784C163.4429,218.73802 170.33187,216.12497 173.42005,213.987C169.61923,215.64987 162.96777,217.31271 159.64205,217.78784C159.64205,217.78784 159.64205,217.78784 159.64205,217.78784M153.22816,185.9559C151.09019,189.51918 147.76448,195.45798 148.71469,199.7339C149.90243,195.22041 151.32775,189.99429 153.22816,185.9559C153.22816,185.9559 153.22816,185.9559 153.22816,185.9559M147.76448,201.87186C146.10162,203.05963 149.66488,211.13638 150.13998,208.52332C148.95222,206.1478 148.00201,204.00983 147.76448,201.87186C147.76448,201.87186 147.76448,201.87186 147.76448,201.87186M166.05595,162.67584C166.29351,165.05135 162.73022,166.00156 162.96777,167.90198C165.10574,166.47665 166.53105,164.3387 168.19392,162.67584C168.19392,162.67584 166.05595,162.67584 166.05595,162.67584C166.05595,162.67584 166.05595,162.67584 166.05595,162.67584M143.48854,207.33556C144.91384,213.27434 149.42733,216.60007 155.12858,218.26292C150.13998,215.88741 145.15139,213.27434 143.48854,207.33556C143.48854,207.33556 143.48854,207.33556 143.48854,207.33556M144.43875,195.45798C144.43875,192.84489 147.28938,188.09386 146.33915,186.43102C144.91384,189.04408 144.67631,191.8947 144.43875,195.45798C144.43875,195.45798 144.43875,195.45798 144.43875,195.45798M179.12129,205.1976C177.22088,205.91025 176.74577,209.47353 177.22088,210.89882C177.93351,209.23596 178.64619,207.33556 179.12129,205.1976C179.12129,205.1976 179.12129,205.1976 179.12129,205.1976M176.5082,185.00571C175.08291,183.34283 170.33187,182.15508 167.24371,181.67996C170.80699,181.67996 173.89517,185.4808 176.5082,185.00571C176.5082,185.00571 176.5082,185.00571 176.5082,185.00571M176.27067,205.1976C178.17108,204.24738 177.93351,201.39676 177.93351,198.78369C176.98332,200.44656 176.74577,202.82207 176.27067,205.1976C176.27067,205.1976 176.27067,205.1976 176.27067,205.1976M158.4543,170.75259C155.84121,174.07831 153.70327,176.21628 152.0404,180.72977C153.70327,177.16649 156.55387,174.31587 158.4543,170.75259C158.4543,170.75259 158.4543,170.75259 158.4543,170.75259M154.65347,181.91753C156.31634,180.49222 158.92939,175.74118 160.35472,173.12811C158.4543,175.97874 156.07878,178.82936 154.65347,181.91753C154.65347,181.91753 154.65347,181.91753 154.65347,181.91753M156.55387,186.90611C156.55387,186.90611 164.86821,187.14366 164.86821,187.14366C162.25512,186.43102 159.40449,186.19345 156.55387,186.90611C156.55387,186.90611 156.55387,186.90611 156.55387,186.90611M146.10162,182.15508C147.05181,179.77956 149.66488,177.87915 149.66488,175.26608C149.66488,175.26608 146.10162,182.15508 146.10162,182.15508M155.84121,169.8024C153.22816,172.653 149.66488,178.35425 148.95222,181.91753C150.61509,177.16649 153.22816,173.84077 155.84121,169.8024C155.84121,169.8024 155.84121,169.8024 155.84121,169.8024M152.0404,185.00571C149.90243,186.19345 149.90243,189.04408 148.95222,191.65714C149.66488,189.28163 150.61509,187.14366 152.0404,185.00571C152.0404,185.00571 152.0404,185.00571 152.0404,185.00571M152.9906,190.46939C154.17837,190.23183 154.17837,187.38121 155.84121,186.43102C153.70327,186.66855 153.70327,188.80652 152.9906,190.46939C152.9906,190.46939 152.9906,190.46939 152.9906,190.46939M157.74163,180.01712C159.40449,178.1167 162.01757,173.84077 162.49267,171.94035C161.06736,174.79097 159.87962,177.64159 157.74163,180.01712C157.74163,180.01712 157.74163,180.01712 157.74163,180.01712M160.35472,165.52646C161.06736,164.10115 162.25512,163.62604 162.96777,161.9632C160.59225,161.72563 161.30493,164.57625 160.35472,165.52646C160.35472,165.52646 160.35472,165.52646 160.35472,165.52646M152.9906,191.8947C151.80285,192.3698 151.09019,194.74532 151.80285,195.45798C151.80285,195.45798 152.9906,191.8947 152.9906,191.8947M158.4543,182.15508C158.4543,182.15508 166.76861,183.10527 166.76861,183.10527C163.91799,183.10527 160.82981,181.67996 158.4543,182.15508C158.4543,182.15508 158.4543,182.15508 158.4543,182.15508M176.5082,191.4196C177.45845,192.60736 177.93351,196.40817 179.12129,196.40817C178.17108,194.74532 177.69598,192.84489 176.5082,191.4196C176.5082,191.4196 176.5082,191.4196 176.5082,191.4196M161.54246,184.76814C159.40449,184.76814 156.55387,183.34283 156.31634,185.24324C157.02899,184.76814 159.40449,184.76814 161.54246,184.76814C161.54246,184.76814 161.54246,184.76814 161.54246,184.76814M180.78416,191.65714C180.30905,190.23183 179.83395,188.80652 179.12129,187.61876C179.59639,189.04408 179.83395,190.70694 180.78416,191.65714C180.78416,191.65714 180.78416,191.65714 180.78416,191.65714M176.03314,197.59595C176.27067,195.45798 175.79557,192.60736 174.6078,192.3698C176.03314,193.55756 175.08291,195.93307 176.03314,197.59595C176.03314,197.59595 176.03314,197.59595 176.03314,197.59595M173.6576,193.7951C173.18249,192.3698 172.46986,191.4196 171.51963,190.94449C171.51963,190.94449 173.6576,193.7951 173.6576,193.7951M174.1327,207.5731C173.42005,208.04822 173.42005,209.47353 172.70741,210.42372C174.1327,210.42372 174.1327,208.99841 174.1327,207.5731C174.1327,207.5731 174.1327,207.5731 174.1327,207.5731M163.68043,190.46939C165.34329,190.94449 167.00614,189.99429 168.43145,191.18204C167.71881,189.99429 165.34329,189.99429 163.68043,190.46939C163.68043,190.46939 163.68043,190.46939 163.68043,190.46939M157.02899,190.70694C156.31634,190.46939 155.36611,188.80652 155.12858,190.70694C155.12858,190.70694 157.02899,190.70694 157.02899,190.70694C157.02899,190.70694 157.02899,190.70694 157.02899,190.70694M161.30493,214.69966C162.25512,215.64987 163.91799,214.69966 164.63064,214.22456C163.4429,214.22456 162.73022,214.93721 161.30493,214.69966C161.30493,214.69966 161.30493,214.69966 161.30493,214.69966M172.2323,184.76814C173.18249,185.24324 173.42005,186.43102 174.84536,186.43102C174.84536,186.43102 172.2323,184.76814 172.2323,184.76814M165.8184,210.89882C166.76861,210.42372 167.95636,211.13638 168.43145,210.42372C168.43145,210.42372 165.8184,210.89882 165.8184,210.89882M163.68043,163.8636C164.15553,163.15094 165.8184,162.43829 164.15553,162.20073C164.86821,162.67584 163.91799,163.15094 163.68043,163.8636C163.68043,163.8636 163.68043,163.8636 163.68043,163.8636M158.21675,163.62604C158.69186,162.91339 160.82981,161.72563 159.87962,161.72563C159.87962,161.72563 158.21675,163.62604 158.21675,163.62604M174.37027,205.91025C174.37027,205.91025 174.6078,205.1976 174.6078,205.1976C174.6078,205.43513 174.37027,205.6727 174.37027,205.91025C174.37027,205.91025 174.37027,205.91025 174.37027,205.91025M160.82981,167.66443C161.06736,167.90198 162.01757,165.76401 162.73022,165.05135C161.78002,166.00156 161.30493,166.95178 160.82981,167.66443C160.82981,167.66443 160.82981,167.66443 160.82981,167.66443M157.97918,218.26292C157.50408,218.26292 156.55387,217.78784 156.31634,218.26292C156.31634,218.26292 157.97918,218.26292 157.97918,218.26292C157.97918,218.26292 157.97918,218.26292 157.97918,218.26292M157.50408,166.00156C158.21675,165.52646 158.92939,165.28891 159.16694,164.57625C159.16694,164.57625 157.50408,166.00156 157.50408,166.00156M155.84121,188.33142C155.84121,188.33142 156.55387,188.33142 156.55387,188.33142C156.55387,188.33142 155.84121,188.33142 155.84121,188.33142C155.84121,188.33142 155.84121,188.33142 155.84121,188.33142M168.90658,211.61148C169.38168,211.61148 169.85678,211.13638 169.85678,210.89882C169.85678,210.89882 168.90658,211.61148 168.90658,211.61148M170.33187,162.67584C169.38168,162.43829 169.85678,162.91339 169.85678,163.3885C169.85678,163.3885 170.33187,162.67584 170.33187,162.67584M143.01344,201.87186C143.01344,201.87186 143.01344,200.6841 143.01344,200.6841C143.01344,200.6841 142.77589,201.87186 142.77589,201.87186C142.77589,201.87186 142.77589,202.10942 143.01344,201.87186C143.01344,201.87186 143.01344,201.87186 143.01344,201.87186M158.21675,216.60007C157.97918,216.60007 157.50408,215.88741 157.50408,216.36252C157.50408,216.36252 158.21675,216.60007 158.21675,216.60007M158.4543,173.60321C158.4543,173.60321 159.40449,171.94035 159.40449,171.94035C159.40449,171.94035 158.4543,173.60321 158.4543,173.60321M166.05595,167.66443C166.05595,167.66443 167.00614,166.71422 167.00614,166.71422C166.53105,166.95178 166.29351,167.18932 166.05595,167.66443C166.05595,167.66443 166.05595,167.66443 166.05595,167.66443M170.80699,207.5731C170.80699,207.5731 170.33187,208.04822 170.33187,208.04822C170.33187,208.04822 170.80699,207.5731 170.80699,207.5731M176.03314,206.86044C175.79557,206.86044 175.79557,206.86044 175.79557,207.09801C175.79557,207.09801 176.03314,206.86044 176.03314,206.86044M151.09019,210.66129C151.09019,210.66129 151.32775,210.89882 151.32775,210.89882C151.32775,210.89882 151.32775,210.66129 151.09019,210.66129C151.09019,210.66129 151.09019,210.66129 151.09019,210.66129M156.31634,212.79924C156.31634,213.27434 157.02899,212.79924 156.55387,212.79924C156.55387,212.79924 156.31634,212.79924 156.31634,212.79924C156.31634,212.79924 156.31634,212.79924 156.31634,212.79924M144.91384,200.44656C144.67631,200.44656 144.67631,200.44656 144.67631,200.6841C144.67631,200.6841 144.91384,200.44656 144.91384,200.44656M181.73436,199.02126C181.73436,199.02126 181.49682,199.02126 181.49682,199.02126C181.49682,199.02126 181.73436,199.02126 181.73436,199.02126C181.73436,199.02126 181.73436,199.02126 181.73436,199.02126" stroke="#000000" style="pointer-events:inherit"/><rect id="svg_15" x="22.208618333971586" y="160.53906358062287" width="161.23446279278153" height="60.84021849724824" fill="#ffffff" opacity="0" stroke="#000000" stroke-width="1" style="pointer-events:inherit"/></g></g><defs><mask id="canvasMaskImageDef" maskUnits="objectBoundingBox" x="0" y="0"><image xmlns:xlink="http://www.w3.org/1999/xlink" id="canvasMaskImage" preserveAspectRatio="none" x="-103.65" y="-36.45" width="400" height="440.0580551523948" xlink:href="http://allinonedesigner.designnbuy.in/media/catalog/product/w/h/white-tees-1_-front_1_3.png"/></mask></defs></svg>