<?xml version="1.0" encoding="utf-8"?>
<!-- Generator: Adobe Illustrator 16.0.0, SVG Export Plug-In . SVG Version: 6.00 Build 0)  -->
<!DOCTYPE svg PUBLIC "-//W3C//DTD SVG 1.1//EN" "http://www.w3.org/Graphics/SVG/1.1/DTD/svg11.dtd">
<svg version="1.1" id="Layer_1" xmlns="http://www.w3.org/2000/svg" xmlns:xlink="http://www.w3.org/1999/xlink" x="0px" y="0px"
	 width="67.561px" height="99.682px" viewBox="0 0 67.561 99.682" enable-background="new 0 0 67.561 99.682" xml:space="preserve">
<path fill="#321651" d="M67.561,21.265c-0.539-0.833-1.005-1.37-1.098-1.019c-0.065,0.239,0.519,1.474,1.098,2.841V21.265
	L67.561,21.265z M67.561,32.09c-0.406-0.122-0.781-0.472-0.805,0.297c-0.016,0.438,0.342,0.792,0.805,1.125V32.09L67.561,32.09z
	 M67.561,48.924c-0.09,0.021-0.148,0.063-0.171,0.128c-0.668,2.016-0.252,2.218-0.252,2.218c0.193,0.873-0.223,0.672-0.639,0.471
	c0,0-0.092,0.031-0.229,0.09c-0.003-0.003-0.005-0.002-0.005,0c-0.367,0.146-1.081,0.446-1.505,0.742
	c-0.032-0.025-0.065-0.051-0.099-0.075c-0.129-0.094-0.163-0.036-0.292-0.13l-0.254-0.188c0,0.016-0.02,0.1-0.146,0.505
	c-0.422-0.478-0.986-0.457-0.977-0.146c0.003,0.086-0.092,0.073-0.221,0.02l-0.026-0.316c-0.104,0.071-0.258,0.05-0.418,0.076
	l-0.035-0.021c-0.075-0.138-0.106-0.216-0.106-0.216s-0.051-0.204-0.141-0.348c-0.278-0.431-0.302-0.397-0.302-0.397
	s-0.23-0.227-0.251-0.195l-0.025,0.03l-0.09-0.144l-0.022,0.031l-0.094-0.144l0.021-0.031l0.022-0.029l-0.092-0.144l0.021-0.03
	l-0.113-0.175c0.072-0.006,0.107-0.574,0.051-0.685c-0.051-0.066-0.317-0.137-0.134-0.312c0,0,0.07-0.199,0.104-0.222
	c0.079-0.153-0.042-0.221-0.139-0.155c-0.064,0.044-0.061-0.111-0.066-0.155c0,0-0.137,0.044-0.171,0.063
	c-0.11,0.178-0.087,0.311-0.155-0.045c-0.051-0.268-0.313,0.063-0.363-0.005c-0.008-0.042-0.097,0.065-0.088,0.11
	c0,0-0.039,0.176-0.086,0.11c0,0-0.174-0.136-0.156-0.047c0.021,0.108,0.063,0.203,0.094,0.308
	c-0.039,0.016-0.113,0.106-0.156,0.135c0,0-0.014-0.001-0.036-0.002c-0.044-0.054-0.178-0.21-0.12-0.063l0.027,0.071
	c-0.061,0.012-0.114,0.037-0.103,0.103c0.016,0.077-0.076,0.151-0.106,0.171c-0.171-0.712-0.307-1.239-0.38-1.497
	c-0.28-0.962-0.543-1.922-0.768-2.841c-0.546-2.217,0.123-5.824-0.256-6.425c-0.068-0.104-0.004-0.774,0-1.397
	c0.002-0.401-0.154-2.811-0.125-0.984c0.002,0.134-0.282-0.223-0.595,0.104c-0.206,0.213-0.467,0.575-0.8,1.134
	c-0.045,0.076-0.349-1.342-0.697-2.975c0.202-0.084,0.444-0.213,0.502-0.319l0.042-0.145c0.009-0.021,1.096-0.914,1.367-1.431
	c0.07-0.135,0.146-0.72,0.104-0.768c-0.06-0.08-0.281-0.108-0.336-0.127c-2.078-0.782-0.826-0.708-2.033,1.138
	c-0.289-1.329-0.558-2.521-0.693-2.887l0.168,0.084l0.188,0.098l0.188-0.002l0.188,0.097l-0.003-0.099l0.188,0.096l-0.007-0.196
	l-0.003-0.102c0,0-0.01-0.297-0.014-0.396l-0.011-0.297l-0.197-0.395l-0.195-0.194l-0.001-0.101l-0.189-0.097l-0.005-0.1
	c-0.189-0.196-0.376-0.097-0.01-0.296c-0.131,0-0.264-0.023-0.396-0.053c-0.003-0.764,0.259-1.549-0.597-0.94
	c-0.098,0.068-0.01,0.516,0.091,0.824c-0.073-0.01-0.147-0.019-0.22-0.018l-0.561,0.008l-0.553,0.205
	c0.007,0.195-0.173,0.398-0.173,0.398l0.005,0.197l0.009,0.197l0.194,0.295l0.378,0.192l0.381,0.194l0.38,0.193l0.186-0.002
	l0.189,0.097l0.188,0.098l0.09-0.001c-0.187,0.948,0.619,8.028,0.617,8.812c-0.002,0.389-1.318-4.336-1.265-3.844
	c0.127,1.195,2.055,7.389,3.633,11.233c1.041,2.541-1.121,0.196-0.9,1.138l0.127,0.201l0.143,0.227l0.043,0.153l0.07,0.111
	l0.069,0.112l0.045,0.154l0.07,0.112l0.07,0.113l0.045,0.152l0.071,0.112l-0.027,0.041l0.069,0.113l-0.053,0.083l-0.024,0.043
	c0,0-0.081,0.123-0.105,0.167l-0.079,0.125l-0.063,0.005c0.131,0.59,0.186,0.908,0.113,0.822c-3.182-3.823-0.953,0.185-2.862-1.117
	c-0.356-0.244-2.993-5.507-3.407-5.755c-0.434-0.254,2.724,6.173,2.759,7.037c0.054,1.263-2.892-2.743-3.163-2.217
	c-0.314,0.616,0.008,3.33,0.648,5.429c0.643,2.099,2.229,2.349,0.643,2.099c-0.501,0.097-2.949-2.235-2.146-0.516
	c0.18,0.388-2.434-2.742-6.24-10.493c-1.729-3.527-4.277-11.676-5.925-14.438c-0.208-0.353-0.011,0.531,0.328,1.828
	c-0.239-0.025-0.479-0.133-0.714-0.131l-0.404,0.006l-0.399,0.146c0.008,0.145-0.124,0.289-0.124,0.289l0.004,0.143l0.005,0.144
	l0.142,0.213l0.275,0.143l0.273,0.138l0.273,0.142l0.135-0.003l0.136,0.069l0.138,0.072l0.136-0.003l0.136,0.068l0.137,0.07
	l0.136-0.001l0.135,0.066c0.495,1.848,1.049,3.864,1.146,4.5l-0.038,0.024l-0.063,0.045c-0.333-0.577-0.675-1.165-1.002-1.747
	c-1.132-1.992-0.908-2.043-1.495-1.992l-0.099-0.067l-0.024,0.039l-0.07-0.111l-0.026,0.042c-0.098-0.071-0.114-0.267-0.078,0.125
	c-0.09-0.308-0.23-0.533-0.317-0.842c-0.153-0.531-0.417-1.247-0.759-2.083L35.62,31.95l-0.003-0.044c0,0-0.006-0.135-0.006-0.18
	l-0.005-0.135l-0.09-0.177l-0.087-0.088V31.29l-0.087-0.044l-0.001-0.045c-0.035-0.035-0.067-0.05-0.087-0.058l-0.008-0.021
	c0.011-0.008,0.036-0.024,0.092-0.056c-0.042,0-0.081-0.004-0.12-0.011c-1.778-4.104-4.906-10.122-6.401-11.975
	c-0.06-0.073,2.281,5.462-0.728-0.09c-0.45-0.834-8.037-10.162-7.528-8.697c0.227,0.654,5.197,6.747,7.212,9.939
	c3.357,5.317,4.371,8.606,4.54,9.368c0.371,1.706-2.16-1.341-1.146,0.705c0.981,1.983,4.62,3.624,5.717,5.704
	c0.219,0.419,0.985,1.872,1.938,3.66l-0.025-0.009L38.73,39.71l-0.069,0.047l-0.069,0.048L38.562,39.9l0.006,0.076l0.006,0.074
	c0,0,0.046,0.089,0.051,0.166l0.119,0.116l0.111,0.042c0.078,0.028,0.146-0.016,0.225,0.013c-0.082-0.104-0.044-0.053-0.011-0.114
	v-0.039l0.032-0.021l-0.002-0.027c2.085,3.899,4.871,9.009,5.033,8.751l0.053-0.084l0.121,0.029l0.144,0.225l0.142,0.228
	l0.141,0.224l0.046,0.155l0.069,0.11l0.071,0.113l0.043,0.153l0.072,0.111l0.067,0.112l0.047,0.154l0.069,0.113l-0.027,0.042
	l0.072,0.11c0.029,0.05,0.373,0.764,0.749,1.564c-0.102-0.052-0.168-0.151-0.273-0.198l-0.161-0.074l-0.205-0.019
	c-0.042,0.056-0.136,0.087-0.136,0.087l-0.041,0.056l-0.043,0.056l-0.004,0.108l0.066,0.105l0.07,0.105l0.064,0.104l0.055,0.023
	l0.035,0.053l0.033,0.055l0.055,0.025l0.033,0.052l0.036,0.052l0.054,0.025l0.034,0.053l0.021-0.028l0.032,0.054l0.041-0.057
	l0.022-0.027c0,0,0.06-0.083,0.082-0.11l0.062-0.084l0.025-0.136l-0.014-0.082l0.021-0.026l-0.035-0.053l0.021-0.027
	c-0.014-0.079-0.086-0.079,0.053-0.084c0.51,1.091,1.082,2.346,1.012,2.336c-0.577-0.082,2.938,2.806,4.49,4.485l-0.007,0.021
	l-0.015,0.07l0.021,0.031l0.021,0.033l0.021,0.029l0.021-0.01l0.01,0.015l0.012,0.019l0.021-0.011l0.01,0.016l0.011,0.015
	l0.021-0.01l0.01,0.015l0.012-0.026l0.01,0.017l0.008-0.014c0.338,0.386,0.541,0.688,0.521,0.849c-0.06,0.5-6.551-3.382-6.233-2.351
	c0.96,3.145,1.596,3.58,1.596,3.58c0.957,1.481,0.321,1.049-0.315,0.615c0,0-2.221,0.98-0.946,1.848
	c0.462,0.313,1.035,0.803,1.666,1.38c-0.045,0.081-0.061,0.167-0.017,0.215c0.179,0.19,0.53,0.823,0.866,0.872
	c0.111,0.016,0.104-0.042,0.151-0.093c0.005-0.014,0.009-0.024,0.017-0.038c0.243,0.229,0.485,0.468,0.732,0.706
	c-0.087,0.016-0.163,0.045-0.23,0.096c-0.294,0.227-0.801,0.813-1.241,1.28l0.002-0.106l-0.025-0.045l-0.028-0.042l0.003-0.114
	l-0.027-0.044l-0.024-0.042l0.002-0.112l-0.057-0.087l-0.054-0.086l-0.055-0.084l-0.087,0.103l-0.06,0.146L47.8,67.927
	c0,0-0.062,0.26-0.12,0.406l-0.063,0.49l-0.003,0.084c-0.368,0.237-1.144,0.538-2.078,0.867c-0.072-0.129-0.145-0.236-0.161-0.27
	c0,0-0.354-0.786-0.37-0.757c-0.09,0.138-0.211-0.114-0.372-0.313c-0.111-0.12-0.579-0.423-0.615-0.366
	c-0.052,0.084-0.304,0.187-0.247,0.391c0.063,0.206-0.003,0.158-0.038,0.214c-0.019,0.027,0.185,0.458,0.229,0.534
	c-0.034,0.055,0.254,0.346,0.303,0.424c0.126,0.2,0.267,0.38,0.327,0.468c-0.427,0.146-0.867,0.291-1.3,0.438
	c-1.201-1.263-2.817-2.82-2.695-2.333c0.053,0.212,1.092,1.35,2.098,2.537c-1.405,0.48-2.654,0.943-3.065,1.291
	c-0.782,0.654,2.249-0.338,3.658-0.576c0.131,0.155,0.253,0.312,0.368,0.461c-0.615,0.664-1.626,1.438-2.714,2.234l-0.002-0.029
	l-0.055-0.005l-0.06-0.091l-0.175-0.104l-0.158-0.015c-0.057-0.004-0.22-0.024-0.22-0.024l-0.052-0.005l-0.104-0.007l0.005,0.085
	l-0.053-0.007l0.011,0.088l-0.049,0.08l0.011,0.087l0.01,0.087l-0.046,0.084l0.008,0.086l0.01,0.085l-0.047,0.082l0.019,0.172
	l0.005,0.037c-1.103,0.797-2.197,1.594-2.986,2.312c-1.829,1.657-1.852,2.875-1.697,2.959c0.257,0.138,0.805,0.009,1.481-0.27
	c-0.015,0.056-0.041,0.122-0.082,0.213c-0.081,0.094,0.196,0.126,0.206,0.132c0.176,0.102,0.292-0.401,0.363-0.555
	c1.909-0.876,4.444-2.534,4.657-2.642c0.105-0.052,0.419-1.451,1.159-2.003c0.084-0.062,0.177-0.104,0.274-0.134
	c0.022,0.082,0.051,0.172,0.084,0.252c0.077,0.177,0.184,0.459,0.307,0.711c0,0,0.258,0.188,0.398,0.414
	c0.189,0.297,0.348,0.494,0.444,0.487c0.103-0.01,0.301-0.475,0.224-0.65c-0.076-0.181,0.029-0.347-0.096-0.599
	c-0.153-0.356-0.373-0.543-0.525-0.671c0.324,0.008,0.605,0.005,0.73-0.188c0.079-0.121,0.143-0.243,0.191-0.355
	c0.852,1.638,1.063,2.735,1.089,3.054c0.003,0.021,0.003,0.042,0.003,0.063c-0.039,0.108-0.11,0.215-0.145,0.265
	c-0.312,0.075-0.985-0.512-0.644,0.25c0.438,0.97,2.574,1.329,3.075,2.333c0.119,0.243,0.589,1.193,1.144,2.281
	c-0.06,0.103-0.12,0.2-0.146,0.163c-0.023-0.036-0.055-0.188-0.052-0.26c0.002-0.066-0.03-0.221-0.079-0.192
	c-0.019,0.009-0.061,0.048-0.084,0.046c-0.033-0.019-0.041,0.005-0.077,0.057c0,0-0.003,0.17-0.013,0.191
	c-0.025,0.098-0.025,0.063-0.02,0.213C49.182,82.752,49.2,83.06,49.2,83.06c0.008,0.041,0.056,0.202,0.051,0.286
	c-0.52,0.151-1.422,0.222-2.405-0.256c-1.355-0.663-2.94-2.744-3.027-2.188c-0.017,0.102,0.642,1.396,0.014,2.866
	c-0.198,0.456-2.357-1.377-2.604-0.842c-0.2,0.439-0.258,2.037-0.462,2.542c-0.417,1.025-5.923,2.11-6.332,3.253
	c-0.433,1.205,4.439-0.854,4.434,0.354c-0.007,1.063-0.541,2.251-1.177,3.463c-0.09-0.013-0.195,0.003-0.283,0.021
	c-0.184,0.033-0.318,0.224-0.257,0.387c-0.027-0.002-0.068-0.007-0.068-0.007c-0.048-0.017,0,0.166,0,0.166
	c0.024,0.006,0.097,0.063,0.097,0.063l-0.005,0.018c-0.006,0.036,0.143-0.066,0.17-0.078c0.013-0.003,0.032-0.011,0.054-0.016
	c-0.611,1.146-1.248,2.301-1.556,3.387c-0.204,0.727-0.237,1.424-0.185,2.044c-0.021-0.01-0.051-0.018-0.059-0.038
	c-0.04-0.058-0.22-0.147-0.21,0.072c0.005,0.021-0.01,0.175-0.01,0.175c0.017,0.053-0.148,0.272-0.175,0.318
	c0,0-0.137,0.308-0.146,0.341c-0.06,0.146-0.048,0.115-0.043,0.202c0.005,0.007-0.008,0.044-0.017,0.085h0.328
	c0.017-0.028,0.03-0.058,0.035-0.075c0.021-0.065,0.123-0.226,0.171-0.271c0.084-0.071,0.215,0.201,0.256,0.257
	c0.002,0.013,0.027,0.006,0.056-0.01c0.008,0.033,0.017,0.066,0.025,0.101h1.063c0.081-0.235,0.164-0.485,0.26-0.74
	c0.447,0.281,1.141,0.255,1.204-0.133c0.075-0.128,0.213-0.178,0.456-0.214c0.353-0.059,0.518-0.271-0.01-0.426
	c-0.074-0.022-0.025-0.319-0.092-0.397c-0.245-0.273-0.745,0.073-0.831-0.357c-0.005-0.019-0.006-0.031-0.011-0.047
	c0.197-0.324,0.407-0.565,0.629-0.662l0.005,0.007l0.172,0.054l0.172,0.05l0.173,0.054l0.084-0.028
	c0.15,0.138,0.302,0.354,0.455,0.672l-0.008,0.017c-0.005,0-0.006,0-0.006,0l-0.005,0.03l0,0l-0.006,0.027l-0.006,0.032l0.084,0.022
	l0.007,0.002c0.031,0.072,0.065,0.151,0.098,0.231c0.311,0.791,0.55,1.382,0.734,1.811l0.506-0.003
	c-0.073-0.833-0.152-1.942,0.217-2.241c0.073-0.063-0.761-2.283-0.399-3.004c0.09-0.183,0.311-0.197,0.563-0.158
	c0.192,0.179,0.507,0.363,0.544,0.409c0.021,0.025,0.142,0.14,0.18,0.146c0.064,0.012,0.295-0.277,0.388-0.391
	c0.049-0.03,0.071-0.086,0.063-0.176c-0.06-0.675-0.328-1.337-0.636-1.915v-0.003l0.036-0.087l0.038-0.226l-0.029-0.188
	l-0.031-0.188l0.003-0.136l-0.063-0.104l-0.137,0.073l-0.132-0.066l-0.068,0.036c-0.045-0.071-0.076,0.021-0.095,0.08
	c-0.354-0.549-0.641-0.928-0.584-1.014c0.443-0.645,0.921-1.722,1.482-2.406l0.018,0.104c0.025,0.164,0.097,0.27,0.123,0.43
	c0.014-0.22,0.005-0.11,0.062-0.085l0.019-0.027l0.037,0.054l0.018-0.027l0.057,0.024l0.096-0.032l0.062-0.083
	c0.021-0.028,0.079-0.11,0.079-0.11l0.022-0.028l0.041-0.054l-0.033-0.055l0.021-0.027l-0.035-0.054l-0.016-0.081l-0.031-0.053
	l-0.033-0.054l-0.015-0.078L42.79,87.83l-0.035-0.054l-0.01-0.062c0.08-0.063,0.163-0.115,0.25-0.154
	c0.192-0.085,1.551-1.599,1.754-1.188c0.343,0.688-0.279,2.674-0.232,3.274c0.222,2.78,1.248-0.604,2.2-2.503
	c0.375-0.75,0.736-1.119,1.041-1.344c0.01,0.012,0.02,0.024,0.028,0.037c0.069,0.082-0.07,0.057,0.084,0.148
	c0.079,0.047,0.274,0.09,0.33,0.107c0.055,0.021,0.584,0.172,0.607,0.199c0.014,0.067-0.105,0.067-0.091,0.135
	c0.015,0.066,0.459,0.068,0.529,0.009c0.017-0.017,0.025-0.064,0.04-0.106c0.665,1.937,1.477,5.658,2.109,6.172
	c0.892,0.724-1.931-4.832-0.694-5.404c0.129-0.059,0.273-0.1,0.433-0.124l0.455,0.232l0.068-0.003
	c0.671,1.176,0.854,2.456,0.889,3.26c-0.014,0.147,0.015,0.113-0.024,0.313c-0.038,0.063-0.017,0.12,0.026,0.238
	c-0.211-0.003-0.331,0.038-0.312,0.142c0.042,0.213,0.084,0.398,0.126,0.566c-0.31,0.479-0.876,0.389-0.684,1.085
	c0.11,0.401,0.59,0.222,1.107-0.003c0.078,0.107,0.127,0.129,0.127,0.129c0.466,0.689,0.104,0.543-0.254,0.397
	c0,0-0.234,0.144-0.473,0.333l-0.002-0.002l-0.031-0.055l-0.034-0.052l-0.05,0.065l-0.035,0.087l-0.036,0.092
	c0,0-0.005,0.016-0.014,0.043c-0.264,0.257-0.438,0.539-0.104,0.682v0.031c-0.003,0.139,0.03,0.193,0.027,0.33
	c0.036-0.228,0.018-0.112,0.054-0.133l0.016-0.042l0.019,0.024l0.02-0.043l0.032-0.021l0.04-0.057
	c1.045,0.518,2.741,1.994,3.79,2.515c0.074,0.153,0.144,0.274,0.2,0.364c-0.017,0.041-0.053,0.125-0.132,0.29l-0.055,0.072
	l0.064,0.178c0.084,0.132-0.016,0.049,0.047,0.153c0.158-0.199,0.313-0.447,0.309-0.65c-0.004,0-0.007,0-0.012,0l0.012-0.032
	c0,0.011,0,0.02,0,0.032c0.029-0.002,0.058-0.005,0.098,0.016c0.043,0.017,0.091,0.039,0.129,0.07l-0.002,0.068l0.023,0.037
	l0.022,0.035L56.58,97.86l0.021,0.036l0.025,0.036l-0.003,0.097l0.022,0.036l-0.022,0.062l0.021,0.035
	c0.005,0.01,0.036,0.13,0.077,0.302l-0.004,0.114l-0.057,0.074l0.02,0.107l0.045,0.07l-0.026,0.035l-0.027,0.038l-0.026,0.037
	l-0.027,0.036l-0.071-0.034L56.5,98.874l-0.071-0.033l-0.091-0.138l-0.007-0.014c0.038-0.075,0.092-0.164,0.098-0.205
	c0.023-0.17-0.112,0.002-0.142-0.048c-0.033-0.064-0.063-0.046-0.079-0.135c-0.041-0.215-0.041,0.003-0.063,0.104l-0.123-0.195
	c-0.008-0.006-0.013-0.017-0.018-0.022c-0.163,0.212-0.334,0.372-0.334,0.372l-0.618,0.255c-0.179,0.279-0.147,0.581-0.017,0.863
	H67.56V68.896c-0.011,0.037-0.022,0.073-0.037,0.104c-0.018-0.014-0.029-0.033-0.02-0.062l0.054-0.088h0.003L67.561,48.924
	L67.561,48.924z M6.89,99.679c0.019-0.019,0.055-0.014,0.093,0H6.89L6.89,99.679z M14.172,99.679
	c0.007-0.014,0.015-0.022,0.02-0.028c0.021-0.01,0.104,0.006,0.118,0.011c0.03,0.011,0.232-0.005,0.366,0.019L14.172,99.679
	L14.172,99.679z M22.792,99.679c-0.035-0.066-0.064-0.117-0.064-0.117c0.021-0.125-0.036-0.337-0.036-0.337l0.021-0.125l0.021-0.127
	l0.108-0.099l0.177,0.056l0.178,0.053l0.177,0.053l0.079,0.093l0.09,0.023l0.089,0.025l0.079,0.09l0.089,0.027l0.088,0.024
	l0.078,0.091l0.089,0.025l-0.01,0.063l0.089,0.027L24.11,99.65l-0.005,0.028L22.792,99.679L22.792,99.679z M24.951,99.679
	c-0.022-0.242-0.09-0.485-0.09-0.485l0.047-0.277l0.046-0.276l0.242-0.216l0.394,0.118l0.396,0.118l0.395,0.116l0.176,0.198
	l0.195,0.06l0.195,0.059l0.176,0.199l0.196,0.061l0.198,0.059l0.172,0.198l0.2,0.061c0,0,0,0.003-0.003,0.011h-2.935V99.679z
	 M49.696,99.679c-0.068-0.051-0.156-0.11-0.156-0.11c-0.103-0.225,0.045-0.276-0.232-0.262c0,0-0.981,0.09-1.097-0.04
	c0,0,0.06-0.37-0.202-0.449c-0.395-0.116,0.238-0.605,0.238-0.605c0.019-0.12,0.882,1.298,0.927,1.203
	c-0.329-0.075-1.595-1.791-1.918-1.891c-0.261-0.077,0.456-0.248,0.456-0.248c0.276-0.014-0.084-0.314-0.084-0.314
	c-0.133-0.042-0.218-0.357-0.087-0.319c0.276-0.013,0.02-0.961,0.809-0.725c1.051,0.314,0.656,0.194,0.453-0.251
	c0.016-0.092,0.208-0.422,0.208-0.422c0.131,0.038,0.51,0.249,0.54,0.064c0.046-0.274,0.486-0.438,0.704-0.079
	c-0.019,0.095,0.332,0.488,0.332,0.488c0.039,0.593,0.803,0.144,1.082,0.129c0.407,0.025,1.792,0.831,1.629,0.978
	c-0.159,0.146-0.539-0.064-0.7,0.077c-0.017,0.094,1.16,1.319,1.275,1.45c0.118,0.133,0.596,0.568,0.695,0.79
	c0.203,0.448-0.159,0.146-0.205,0.423c-0.005,0.035-0.013,0.072-0.021,0.113H49.696L49.696,99.679z M54.759,87.38l0.003,0.069
	l0.005,0.14l0.011,0.279c-0.202,0.006-0.405-0.077-0.729-0.173c0.658,1.012,1.059,1.387,1.015,1.278
	c-0.223-0.547,0.247-0.354,0.693-0.183c0.015-0.354,0.028-0.687,0.047-0.975C55.461,87.664,55.111,87.517,54.759,87.38L54.759,87.38
	z M49.811,61.7l0.006,0.007c0.403,0.515,0.163,0.093-0.021,0.285c-0.188,0.196-0.025,0.255-0.368,0.396
	c0.074,0.153,0.176,0.319,0.205,0.382c0.052,0.102,0.562,1.054,0.542,1.104c-0.107,0.056-0.294-0.144-0.401-0.09
	c-0.107,0.055,0.569,0.797,0.795,0.895c0.154,0.044,0.637-0.072,0.589,0.285c0,0,0.146,0.302,0.127,0.353
	c0.078,0.252,0.342,0.245,0.4,0.091c0.039-0.104,0.226,0.096,0.294,0.144c0,0,0.146-0.157,0.166-0.209
	c-0.06-0.302-0.266-0.448,0.284-0.056c0.412,0.291,0.381-0.319,0.539-0.273c0.067,0.05,0.058-0.153-0.012-0.201
	c0,0-0.166-0.248-0.012-0.204c0,0,0.422,0.039,0.285-0.057c-0.169-0.122-0.669-1.38-0.844-1.487
	c0.035-0.047,0.349,0.955,0.374,0.892c0,0,0.41-0.166,0.205-0.313c-0.138-0.097-0.061-0.304-0.061-0.304
	c-0.049-0.1-0.607-0.235-0.607-0.235c-0.156-0.047-0.067-0.049-0.097-0.201l-0.119-0.148c0.021-0.05,0.01-0.253-0.165-0.247
	l-0.108,0.053c0,0-0.284,0.059-0.246-0.044c0.061-0.154,0.021-0.509,0.08-0.664c0.038-0.102-0.267,0.009-0.267,0.009
	c-0.02,0.053-0.038,0.103-0.088,0.003c0,0,0.019-0.053-0.187-0.197c-0.41-0.293-0.518,0.221-0.733,0.327
	c-0.13,0.104,0,0-0.137-0.101C50.107,61.802,49.911,61.715,49.811,61.7L49.811,61.7z M62.147,53.175
	c-0.012-0.039-0.021-0.081-0.035-0.124l-0.028-0.021l-0.138-0.082l-0.207-0.256l-0.05-0.124c-0.015,0.111,0.002,0.203-0.042,0.354
	C61.86,53.031,62.026,53.115,62.147,53.175L62.147,53.175z M60.849,52.601c-0.006-0.21,0.053-0.533,0.121-0.788
	c-0.032-0.041-0.061-0.078-0.083-0.111c-0.059-0.09-0.162-0.224-0.251-0.345c-0.02,0.049-0.039,0.093-0.055,0.12
	c-0.112,0.177-0.074-0.002-0.171,0.065c-0.063,0.042-0.16,0.107-0.241,0.063c-0.04-0.021-0.102-0.135-0.117-0.223
	c-0.018-0.089,0.089-0.111-0.018-0.089c-0.046,0-0.103,0.021-0.162,0.045l0.123,0.514c0.089-0.191,0.138-0.204,0.149,0.019
	l0.035-0.026c0.007,0.139,0.086,0.217,0.099,0.436c0.008,0.153-0.021,0.313-0.07,0.456l0.141,0.592l0.015,0.005
	C60.697,53.417,60.324,52.574,60.849,52.601L60.849,52.601z M60.42,53.63l0.134,0.552c0.134,0.008,0.245,0.016,0.245,0.016
	c0.411,0.104-0.218-0.432-0.218-0.432C60.525,53.736,60.47,53.688,60.42,53.63L60.42,53.63z M60.683,54.718
	c0.433,1.774,0.9,3.68,1.348,5.393c0.056-0.065,0.119-0.132,0.012,0.036l0.038,0.142c0.584-0.433,0.873-0.649,1.017-0.756
	c0.003-0.009,0.008-0.013,0.014-0.013c0.075-0.057,0.104-0.08,0.112-0.088l0.438-0.099c0.142-0.032,0.277-0.103,0.417-0.16
	l-0.002-0.001c-0.02-0.024-0.012,0.021-0.027-0.002l-0.015-0.025l-0.009,0.021l-0.008-0.014l-0.007-0.013
	c-0.006-0.008-0.011-0.024-0.016-0.033c0.021-0.043,0.06-0.109,0.084-0.14c0.008-0.021,0.025-0.029,0.032-0.051
	c0.034-0.052,0.063-0.048,0.067-0.07c0,0,0.053-0.062,0.061-0.082l0.051-0.027c0,0,0.023,0.004,0.032,0.016l0.023,0.04v0.035
	l0.015,0.023v0.033l-0.017,0.043l-0.003,0.035l-0.017,0.042l-0.017,0.043l-0.01,0.021l-0.007,0.021l-0.006,0.01l0.021-0.004
	c0.22-0.05,0.439-0.101,0.456-0.012l0.053,0.266l0.034,0.176l-0.188,0.227l-0.407,0.277l-0.41,0.275l-0.33,0.311
	c0.373,1.148,0.925,2.919,1.303,3.772c0.354,0.806-0.512-4.001-0.175-3.48c0.076,0.115,0.229,0.61,0.428,1.309l-0.001-0.01
	c-0.014-0.061-0.008-0.079,0.012-0.157c0,0,0.084-0.045,0.094-0.065c0.042-0.073,0.024-0.064,0.101-0.089
	c0.019-0.009,0.174-0.042,0.174-0.042c0.025,0.003,0.142,0.078,0.166,0.013c0,0,0.077-0.092,0.088-0.112
	c0.107-0.177,0.07,0.146,0.044,0.246c-0.019,0.044-0.012,0.124-0.03,0.168c-0.034,0.153-0.249,0.978-0.352,0.963
	c-0.009-0.005-0.02,0.004-0.036,0.017c0.142,0.523,0.295,1.099,0.45,1.681c0.558-0.304,0.91-0.521,0.91-0.521
	c0.862-1.142,0.224-0.672-0.388-1.745l0.026-1.547c-0.403-0.194-1.384-1.398-0.272-2.332c-0.041-0.192-0.615-0.084-0.615-0.084
	l-0.201,0.111c-0.407,0.004-0.626-0.427-0.631-0.536l-0.419-0.32c-0.216-0.322-0.009-0.326-0.425-0.43c0,0-1.438-0.309-1.65-0.523
	c0,0-0.015-0.436-0.428-0.646c-0.626-0.317,0.182-0.652,0.182-0.652c-0.006-0.14,1.691,2.002,1.729,1.902
	C63.187,57.312,61.57,55.545,60.683,54.718L60.683,54.718z M65.805,54.091c-0.095-0.092-0.191-0.183-0.29-0.267l-0.045,0.072
	l-0.068,0.111l0.004,0.048C65.539,54.079,65.676,54.085,65.805,54.091L65.805,54.091z M38.076,32.671l-0.029-0.113
	C37.928,32.624,37.986,32.611,38.076,32.671L38.076,32.671z M58.831,7.942c-0.021-0.046-0.186-0.536-0.186-0.536l0.108-0.028
	c0.482-0.402,1.229,0.37,1.271,0.891c0.028,0.165-0.149,0.316-0.142,0.436c0.007,0.116-0.389,0.518-0.501,0.544
	C58.8,9.402,58.926,8.167,58.831,7.942L58.831,7.942z M61.714,3.317c1.375-1.15,1.735,0.883,1.599,0.995
	c-0.088,0.071-0.61,0.574-0.71,0.532c-0.05-0.021-0.177-0.229-0.198-0.277C62.349,4.438,61.439,3.548,61.714,3.317L61.714,3.317z
	 M62.275,17.928c0.124-0.234,0.49,0.221,0.736,0.014c0.096-0.08,0.486,0.645,0.451,0.883c-0.018,0.129-0.11,0.23-0.144,0.434
	c-0.01,0.074-0.159,0.388-0.279,0.488c-0.452,0.38-0.878-0.64-0.999-0.928C61.9,18.486,62.098,18.185,62.275,17.928L62.275,17.928z
	 M63.888,19.538c0.028-0.196,0.253-0.24,0.341-0.157c0.245,0.242,0.479-0.253,0.521,0.289l-0.128,0.454l-0.03,0.023
	c-0.279,0.236-0.369,0.903-0.604,0.344C63.751,19.932,63.911,19.853,63.888,19.538L63.888,19.538z M57.228,53.857
	c-0.059-0.052-0.106-0.013-0.118-0.188c-0.008-0.175,0.045-0.383,0.12-0.594l-0.053-0.194l-0.221-0.45
	c-0.148-0.302-0.354-0.448-0.499-0.749c0.089,0.456,0.043,0.228-0.088,0.231l-0.03,0.078l-0.104-0.073l-0.027,0.076L56.074,52
	l-0.188,0.155l-0.09,0.231c-0.028,0.077-0.116,0.309-0.116,0.309l-0.029,0.077l-0.06,0.153L55.695,53l-0.029,0.078l0.103,0.071
	l0.074,0.151l0.103,0.073l0.104,0.073l0.074,0.149l0.103,0.075l0.102,0.072l0.074,0.147l0.207,0.148l0.203,0.146l0.205,0.146
	l0.164-0.08l0.058-0.155l0.062-0.152c0,0-0.003-0.029-0.003-0.073C57.272,53.865,57.249,53.86,57.228,53.857L57.228,53.857z
	 M61.788,47.981c-0.123,0.106,0.174-0.02-0.058,0.277c-0.01,0.014,0.172,0.27,0.197,0.249c0,0,0.134-0.218,0.169-0.302
	C62.271,47.746,61.902,47.899,61.788,47.981L61.788,47.981z M51.283,10.337c0,0,0.127-0.237,0.122-0.268
	c0.021-0.134-0.007-0.09,0.123-0.297c0.023-0.047,0.307-0.479,0.307-0.479c0.056-0.064,0.351-0.352,0.346-0.438
	c0,0,0.066-0.231,0.063-0.263c0.061-0.345,0.275-0.15,0.313-0.053c0.004,0.058,0.09,0.061,0.096,0.122
	c0.069,0.137,0.39,0.939,0.178,1.203c-0.08,0.084-0.12,0.324-0.228,0.396c-0.058,0.035-0.139,0.06-0.144,0.032
	c-0.037-0.1-0.127-0.56-0.267-0.47c-0.082,0.055-0.269,0.27-0.315,0.36c-0.053,0.101-0.236,0.314-0.326,0.281
	c-0.03-0.015-0.093-0.063-0.148-0.056C51.319,10.435,51.316,10.406,51.283,10.337L51.283,10.337z M40.961,34.946
	c0,0,0.124-0.237,0.122-0.269c0.02-0.126-0.002-0.09,0.104-0.26l-0.003-0.084l0.082-0.044c0.09-0.144,0.251-0.39,0.251-0.39
	c0.054-0.065,0.345-0.352,0.34-0.438c0,0,0.067-0.23,0.064-0.26c0.062-0.348,0.279-0.151,0.314-0.055
	c0.003,0.058,0.089,0.063,0.094,0.119c0.068,0.142,0.389,0.944,0.181,1.206c-0.071,0.074-0.112,0.272-0.195,0.366l0.129,0.064
	l0.142,0.072l0.144,0.146l0.14,0.071l0.141,0.071l0.142,0.146l0.142,0.071l0.003,0.073l0.141,0.072l0.005,0.146l0.003,0.072
	c0,0,0.009,0.222,0.011,0.295l0.007,0.22l-0.134,0.148l-0.141,0.001l0.003,0.073l-0.14-0.072l0.002,0.074
	c-0.136,0.002-0.281-0.218,0.008,0.22c-0.286-0.29-0.565-0.433-0.851-0.724l-0.43-0.435l-0.434-0.581c0-0.01,0-0.02,0-0.027
	c-0.044,0.029-0.083,0.047-0.115,0.035c-0.03-0.011-0.089-0.063-0.146-0.057C40.996,35.047,40.993,35.015,40.961,34.946
	L40.961,34.946z M42.058,34.637c-0.048-0.134-0.109-0.253-0.188-0.203c-0.019,0.015-0.049,0.038-0.079,0.068l0.088,0.044
	L42.058,34.637L42.058,34.637z M41.691,31.657c-0.077-0.027-0.146,0.021-0.221-0.012l-0.115-0.04l-0.12-0.119
	c-0.007-0.074-0.049-0.163-0.049-0.163l-0.005-0.074l-0.008-0.074l0.029-0.097l0.071-0.051l0.068-0.046l0.07-0.045l0.039,0.016
	l0.034-0.022l0.034-0.022l0.04,0.013l0.032-0.023l0.037-0.021l0.037,0.013l0.035-0.023l0.004,0.036l0.035-0.021l0.005,0.075
	l0.002,0.039c0,0,0.011,0.109,0.013,0.147l0.008,0.111l-0.023,0.137l-0.033,0.06l0.006,0.036l-0.038,0.025v0.037
	C41.65,31.606,41.609,31.553,41.691,31.657L41.691,31.657z M41.368,33.959c-0.122-0.046-0.234,0.027-0.354-0.02l-0.182-0.068
	l-0.193-0.187c-0.008-0.12-0.081-0.262-0.081-0.262L40.552,33.3l-0.009-0.12l0.047-0.157l0.111-0.073l0.113-0.071l0.109-0.078
	l0.063,0.022l0.056-0.033l0.057-0.04l0.063,0.021l0.057-0.038l0.056-0.035l0.06,0.021l0.06-0.036l0.005,0.06l0.056-0.037l0.01,0.121
	l0.005,0.061c0,0,0.013,0.18,0.018,0.242l0.015,0.178l-0.041,0.217l-0.056,0.099l0.009,0.062l-0.06,0.037l0.005,0.063
	C41.303,33.875,41.238,33.792,41.368,33.959L41.368,33.959z M43.633,27.558c-0.118-0.041-0.233,0.032-0.354-0.015l-0.181-0.07
	l-0.192-0.188c-0.009-0.121-0.08-0.266-0.08-0.266l-0.008-0.12l-0.012-0.119l0.048-0.155l0.114-0.078l0.11-0.07l0.113-0.075
	l0.061,0.022l0.056-0.037l0.059-0.037l0.06,0.023l0.057-0.038l0.058-0.037l0.062,0.021l0.059-0.038l0.005,0.062l0.055-0.039
	l0.009,0.12l0.003,0.06c0,0,0.017,0.182,0.022,0.242l0.013,0.182l-0.042,0.215l-0.05,0.1v0.061l-0.057,0.038l0.008,0.063
	C43.571,27.476,43.505,27.394,43.633,27.558L43.633,27.558z M48.223,45.651c-0.171-0.063-0.326,0.044-0.496-0.018l-0.251-0.098
	l-0.266-0.261c-0.012-0.166-0.11-0.366-0.11-0.366l-0.013-0.165l-0.014-0.167l0.063-0.219l0.157-0.104l0.158-0.104l0.152-0.103
	l0.087,0.03l0.076-0.051l0.079-0.053l0.085,0.033l0.077-0.053l0.079-0.053l0.083,0.032l0.079-0.055l0.006,0.082l0.076-0.05
	l0.015,0.167l0.008,0.081c0,0,0.016,0.255,0.026,0.335l0.016,0.25l-0.06,0.303l-0.071,0.134l0.01,0.082l-0.079,0.056l0.006,0.081
	C48.131,45.539,48.039,45.424,48.223,45.651L48.223,45.651z M60.745,36.833c0.112,0.097,0.164,0.252,0.311,0.269
	c0.061,0.006,0.213-0.049,0.224,0.149c0.057,0.22,0.177-0.271,0.171-0.363c0.019-0.146,0.103-0.938-0.008-0.952
	c-0.021,0.007-0.195-0.187-0.188,0.004c-0.008,0.098-0.015,0.479-0.08,0.525C61.062,36.54,60.799,36.442,60.745,36.833
	L60.745,36.833z M53.698,26.854l0.002,0.092c0.186,0.405,0.547-0.792,0.371-0.949C53.853,25.811,53.676,26.395,53.698,26.854
	L53.698,26.854z M57.645,34.505c-0.07,0.181-0.267,0.47-0.313,0.66c-0.153,0.621-0.198,1.151,0.16,0.898
	c0.021-0.016,0.085-0.084,0.105-0.14C58.09,34.658,57.496,35.21,57.645,34.505L57.645,34.505z M61.179,46.487
	c-0.151,0.396-0.309,1.423-0.162,1.318c0.193-0.14,0.347-0.438,0.51-0.555c0.163-0.111,0-0.063,0.032-0.086
	c0.039-0.028,0.047-0.663-0.075-0.769C61.337,46.27,61.395,45.938,61.179,46.487L61.179,46.487z M54.653,25.906
	c-0.018-0.395-0.105-0.439,0.085-0.573c0.381-0.272,0.612-0.515,0.501-0.098l-0.214,0.775C54.93,26.379,54.668,26.152,54.653,25.906
	L54.653,25.906z M53.043,35.867l-0.339-0.034c-0.073-0.129-0.124-0.238-0.138-0.465c-0.045-0.948,0.45-0.069,0.501,0.186
	C53.074,35.601,53.389,36.168,53.043,35.867L53.043,35.867z M53.23,34.497c-0.057-0.205,0-0.45,0.114-0.529
	c0.159-0.119,0.61-0.337,0.591,0.027l-0.047,0.728C53.88,34.871,53.527,35.512,53.23,34.497L53.23,34.497z M59.706,44.215
	c-0.167-0.146-0.641-0.783-0.506-1.403c0.075-0.381,0.248-0.385,0.416-0.503c0.157-0.11,0.46,0.091,0.565,0.015
	c0.025-0.019,0.047,1.026,0.003,1.348C60.106,44.253,59.942,44.423,59.706,44.215L59.706,44.215z M58.563,29.365
	c-0.051-0.305,0.399-0.841,0.501-1.293c0.085-0.379-0.245-0.658-0.191-0.938c0.249-1.268,1.517-0.615,1.903,0.248
	c0.059,0.131-0.421,0.78-0.6,1.346c-0.174,0.529-0.044,0.978-0.044,0.978C59.681,30.025,58.656,29.949,58.563,29.365L58.563,29.365z
	 M52.825,40.797c-0.281-0.244-0.688-1.487-0.458-1.65c0.337-0.239,0.715-0.092,0.936-0.246c0-0.001,0.039,0.849,0.046,1.003
	C53.387,40.687,52.964,40.918,52.825,40.797L52.825,40.797z M58.546,90.539l0.005,0.008l0.015,0.022l0.008,0.036l0.015,0.024
	l-0.008,0.012l0.016,0.022l-0.02,0.026l-0.011,0.014c0,0-0.025,0.036-0.035,0.05l-0.026,0.038l-0.042,0.012l0,0
	C58.488,90.724,58.518,90.631,58.546,90.539L58.546,90.539z M56.125,97.476l-0.047-0.069l0.021-0.026l0.007-0.009l-0.018-0.027
	l-0.028-0.045c0,0-0.024-0.155,0.028,0.045c0.005,0.011,0.008,0.022,0.011,0.036C56.107,97.406,56.115,97.438,56.125,97.476
	L56.125,97.476z M56.216,88.071c0.289,0.843,1.053,0.761,0.15,0.857c-0.016,0.005-0.031,0.01-0.051,0.012
	C56.287,88.629,56.254,88.337,56.216,88.071L56.216,88.071z M58.713,91.737l0.074,0.123l0.026,0.041
	c-0.005-0.044-0.021-0.088-0.052-0.138C58.758,91.758,58.738,91.748,58.713,91.737L58.713,91.737z M58.293,92.351
	c0,0-0.063-0.165-0.127-0.328c-0.125-0.093-0.329-0.292-0.133,0.038c0.026,0.048,0.165,0.283,0.17,0.319
	c0.054,0.307,0.368,0.631,0.483,0.488l0.021,0.023l-0.024,0.06l0.024,0.032l-0.024,0.058l-0.025-0.033l-0.024-0.031l-0.025,0.058
	l-0.023-0.032l-0.049,0.115l-0.054,0.116l0.051,0.064v0.089l0.022,0.034l0.025,0.031l0.024,0.032l0.021,0.031l0.124,0.07v0.09
	l-0.002,0.092l-0.027,0.146v0.27c0,0-0.026,0.149,0.022,0.122l0.1-0.051l0.051-0.025l0.023-0.059l0.022,0.032l0.027,0.032
	l0.024-0.06l0.021,0.034l0.027,0.031l0.021-0.06l0.027-0.057v-0.091l0.027-0.059l0.022-0.06c0.026-0.056,0.053-0.204,0.075-0.265
	c0.027-0.058,0.029-0.236,0.053-0.295c0,0-0.048-0.154-0.021-0.212v-0.09l0.049-0.025l0.026-0.147l-0.023-0.123l-0.023-0.213
	l-0.069-0.095c-0.053-0.063-0.027-0.032-0.075-0.006l-0.073-0.099l-0.061-0.076l-0.011,0.018l0.047,0.073l-0.016,0.029l-0.02,0.025
	l-0.018,0.028l0.028,0.104l-0.003,0.005c0,0.005,0.003,0.011,0.003,0.015c0.002,0.02-0.005,0.042-0.014,0.069l0.024,0.043
	l-0.017,0.025l0.029,0.104l-0.021,0.031c0.064,0.133,0.015,0.16-0.074,0.118l-0.013,0.02c-0.015,0.026-0.032,0.058-0.1,0.01
	l-0.11-0.122l-0.011-0.013c-0.007,0.002-0.014,0.005-0.021,0.008c0,0.002,0,0.002-0.002,0.005l-0.005-0.008
	c-0.007-0.01-0.009-0.026-0.014-0.051l-0.061-0.063l-0.046-0.074l-0.049-0.076l-0.044-0.075
	C58.421,92.448,58.33,92.296,58.293,92.351L58.293,92.351z M49.933,82.564c0.026,0,0.065,0.013,0.111,0.044l-0.074-0.146
	C49.959,82.493,49.947,82.526,49.933,82.564L49.933,82.564z M49.766,82.903c0.079-0.045,0.122-0.087,0.117-0.109
	c-0.008-0.036-0.01-0.067-0.012-0.094C49.837,82.768,49.802,82.839,49.766,82.903L49.766,82.903z M54.428,90.979
	c0.126,0.026,0.255,0.057,0.381,0.079c0.111-0.149,0.142-0.126,0.196,0.041c0.249,0.05,0.474,0.093,0.657,0.12
	c0.008-0.182,0.018-0.376,0.024-0.579c-0.367-0.302-0.905-0.659-1.377-0.975C54.382,90.149,54.423,90.599,54.428,90.979
	L54.428,90.979z M5.357,95.148c-0.069,0.026-0.136,0.009-0.206,0.031l-0.105,0.039l-0.116,0.083
	c-0.007,0.045-0.051,0.104-0.051,0.104L4.871,95.45l-0.009,0.046l0.025,0.052l0.064,0.021l0.062,0.02l0.065,0.02l0.036-0.015
	l0.028,0.01l0.035,0.011l0.036-0.013l0.03,0.01l0.031,0.011l0.035-0.014l0.031,0.011l0.004-0.024l0.034,0.01l0.007-0.043
	l0.002-0.024c0,0,0.014-0.066,0.016-0.087l0.013-0.069l-0.021-0.077l-0.025-0.03l0.003-0.024l-0.031-0.01l0.002-0.021
	C5.319,95.185,5.279,95.219,5.357,95.148L5.357,95.148z M6.403,95.469c-0.113,0.044-0.219,0.013-0.332,0.053L5.9,95.584
	l-0.184,0.135c-0.012,0.071-0.081,0.165-0.081,0.165l-0.013,0.071L5.61,96.027l0.041,0.085l0.101,0.032l0.104,0.033l0.103,0.028
	l0.059-0.021l0.052,0.02l0.051,0.012l0.057-0.018l0.052,0.014l0.053,0.016l0.058-0.021l0.051,0.014l0.008-0.035l0.05,0.02
	l0.013-0.074l0.008-0.034c0,0,0.016-0.108,0.021-0.145l0.021-0.11L6.47,95.717l-0.045-0.051l0.007-0.036L6.38,95.616l0.004-0.037
	C6.338,95.527,6.276,95.584,6.403,95.469L6.403,95.469z M14.002,90.962c-0.156,0.059-0.3,0.016-0.456,0.073l-0.24,0.084
	l-0.254,0.186c-0.018,0.103-0.112,0.228-0.112,0.228l-0.018,0.102l-0.018,0.101l0.057,0.122l0.145,0.041l0.142,0.044l0.144,0.045
	l0.079-0.031l0.069,0.021l0.07,0.022l0.079-0.03l0.072,0.022l0.069,0.021l0.08-0.028l0.07,0.021l0.008-0.051l0.072,0.021l0.016-0.1
	l0.009-0.05c0,0,0.023-0.15,0.034-0.199l0.023-0.152l-0.047-0.17l-0.063-0.07l0.01-0.052l-0.072-0.021l0.008-0.047
	C13.915,91.04,13.83,91.119,14.002,90.962L14.002,90.962z M31.271,98.742l0.111-0.25c0,0,0.164-0.008,0.174-0.064
	c0.009-0.056,0.088-0.032,0.096-0.086l0.179-0.066l0.096-0.085l0.088-0.031l0.168-0.01l0.158,0.049l0.159,0.049l-0.021,0.108
	l-0.01,0.059l-0.01,0.055l-0.008,0.056L32.371,98.5l-0.01,0.055l-0.01,0.056l-0.079-0.024l-0.009,0.059l-0.007,0.055l-0.09,0.032
	l-0.021,0.109l-0.263,0.095c-0.079-0.023-0.168,0.007-0.255,0.038c-0.087,0.034-0.165,0.01-0.244-0.014l-0.158-0.049l0.009-0.057
	l0.012-0.054l0.006-0.056C31.254,98.745,31.262,98.742,31.271,98.742L31.271,98.742z M8.075,96.932
	c-0.093-0.104-0.195-0.137-0.289-0.241l-0.143-0.16l-0.126-0.229c0.013-0.076-0.021-0.202-0.021-0.202l0.013-0.074l0.012-0.073
	l0.064-0.061l0.106,0.032l0.104,0.032l0.106,0.03l0.044,0.053l0.054,0.018l0.054,0.018L8.1,96.125l0.054,0.015l0.054,0.018
	l0.045,0.053l0.053,0.014L8.3,96.262l0.052,0.014l-0.015,0.077l-0.005,0.036c0,0-0.021,0.111-0.024,0.146l-0.019,0.111L8.22,96.742
	l-0.06,0.02L8.153,96.8L8.1,96.784L8.095,96.82C8.035,96.841,7.995,96.752,8.075,96.932L8.075,96.932z M39.604,17.349
	c0.024,0.074,0.066,0.104,0.026,0.198c-0.121,0.283-0.653,0.227-0.835,0.277c-0.104,0.028-0.271-0.391-0.22-0.509
	c0.019-0.046-0.05-0.558,0.09-0.599c0.121-0.032,0.354,0.013,0.483,0.026c0.086,0.009,0.168-0.008,0.253,0.051
	C39.42,16.805,39.486,17.163,39.604,17.349L39.604,17.349z M35.2,16.157c0.106,0.059-0.112-0.146,0.109-0.085
	c0.01,0-0.04-0.289-0.057-0.303c0,0-0.143-0.013-0.188-0.003C34.838,15.84,35.11,16.096,35.2,16.157L35.2,16.157z M54.913,45.942
	c-0.04,0.11,0.139,0.308,0.269,0.305c0.015-0.002,0.129,0.069,0.15,0.085c0.188,0.118,0.003-0.078-0.031-0.145
	c-0.021-0.047,0.196,0.045,0.216,0.055c0.069,0.021-0.065-0.216-0.082-0.234c-0.027-0.042-0.086-0.259-0.106-0.274
	c-0.073-0.05-0.125,0.003-0.155,0.035c-0.068,0.067-0.12-0.111-0.2-0.111c-0.02,0.003-0.049,0.071-0.063,0.063
	c-0.116-0.087-0.111-0.008-0.053,0.081C54.897,45.862,54.915,45.903,54.913,45.942L54.913,45.942z M52.797,55.736
	c0,0-0.078-0.159-0.073-0.177c0.005-0.081,0.021-0.05-0.063-0.191c-0.016-0.033-0.208-0.337-0.208-0.337
	c-0.038-0.048-0.263-0.271-0.242-0.319c0,0-0.028-0.146-0.021-0.161c-0.005-0.212-0.228-0.141-0.274-0.091
	c-0.013,0.033-0.091,0.02-0.104,0.052c-0.08,0.069-0.485,0.47-0.335,0.66c0.062,0.063,0.062,0.211,0.148,0.274
	c0.046,0.029,0.119,0.062,0.123,0.045c0.05-0.051,0.197-0.3,0.308-0.224c0.065,0.05,0.201,0.207,0.232,0.272
	c0.031,0.063,0.166,0.223,0.251,0.221c0.027,0,0.092-0.018,0.14-0.004C52.751,55.786,52.758,55.771,52.797,55.736L52.797,55.736z
	 M59.389,75.38c0.074-0.002,0.128,0.04,0.201,0.04l0.108-0.005l0.122-0.048c0.016-0.039,0.067-0.082,0.067-0.082l0.017-0.044
	l0.019-0.042l-0.012-0.06l-0.059-0.045l-0.057-0.037l-0.058-0.042l-0.034,0.003l-0.029-0.021l-0.026-0.021h-0.038l-0.024-0.02
	l-0.029-0.021l-0.04,0.002l-0.022-0.019l-0.009,0.021l-0.029-0.021l-0.015,0.044l-0.01,0.019c0,0-0.022,0.065-0.03,0.085
	l-0.024,0.064l0.003,0.083l0.021,0.04l-0.011,0.021l0.028,0.021l-0.006,0.02C59.432,75.36,59.475,75.338,59.389,75.38L59.389,75.38z
	 M58.471,74.72c0.113-0.005,0.203,0.061,0.319,0.054l0.176-0.002l0.2-0.072c0.023-0.066,0.106-0.137,0.106-0.137l0.025-0.067
	l0.025-0.066l-0.019-0.101l-0.092-0.065l-0.09-0.063l-0.09-0.064l-0.06,0.003l-0.046-0.031l-0.044-0.032l-0.059,0.003l-0.047-0.034
	l-0.044-0.03h-0.057l-0.048-0.032l-0.011,0.034l-0.046-0.032l-0.026,0.067l-0.012,0.034c0,0-0.039,0.102-0.055,0.136l-0.034,0.104
	l0.006,0.133l0.031,0.063l-0.013,0.035l0.045,0.034l-0.013,0.031C58.539,74.684,58.612,74.647,58.471,74.72L58.471,74.72z
	 M57.159,67.118c0.115-0.003,0.207,0.061,0.321,0.058l0.177-0.005l0.196-0.071c0.027-0.068,0.11-0.141,0.11-0.141l0.026-0.066
	l0.026-0.067l-0.021-0.1l-0.093-0.063l-0.09-0.065l-0.091-0.063l-0.058,0.002l-0.046-0.033l-0.045-0.031l-0.059,0.001L57.47,66.44
	l-0.045-0.031l-0.058,0.004l-0.047-0.033l-0.013,0.034l-0.044-0.032l-0.026,0.066l-0.013,0.034c0,0-0.041,0.103-0.05,0.136
	l-0.04,0.102l0.007,0.135l0.03,0.063l-0.013,0.036l0.047,0.029l-0.013,0.035C57.229,67.083,57.303,67.047,57.159,67.118
	L57.159,67.118z M56.407,62.582c0.16-0.006,0.283,0.084,0.444,0.079l0.241-0.006l0.277-0.104c0.032-0.093,0.149-0.188,0.149-0.188
	l0.036-0.095l0.035-0.092l-0.027-0.14l-0.124-0.089l-0.126-0.09l-0.127-0.09l-0.079,0.003l-0.062-0.042l-0.063-0.047l-0.082,0.002
	L56.84,61.64l-0.063-0.045l-0.08,0.003l-0.063-0.047l-0.016,0.048l-0.064-0.045L56.52,61.65l-0.02,0.046
	c0,0-0.054,0.144-0.071,0.188l-0.054,0.141l0.011,0.188l0.044,0.09l-0.017,0.046l0.063,0.045l-0.021,0.047
	C56.502,62.532,56.603,62.482,56.407,62.582L56.407,62.582z M55.217,48.303c0.161-0.005,0.285,0.085,0.448,0.079l0.237-0.005
	l0.279-0.102c0.033-0.095,0.15-0.19,0.15-0.19l0.036-0.093l0.034-0.096l-0.026-0.138l-0.126-0.091l-0.123-0.089l-0.129-0.089
	l-0.078,0.004l-0.063-0.046l-0.063-0.044l-0.081,0.002l-0.063-0.044l-0.062-0.045l-0.082,0.002l-0.063-0.045l-0.02,0.048
	l-0.063-0.047l-0.032,0.096L55.31,47.42c0,0-0.054,0.14-0.072,0.187l-0.054,0.143l0.009,0.184l0.048,0.091l-0.021,0.047l0.063,0.045
	l-0.02,0.049C55.315,48.255,55.41,48.205,55.217,48.303L55.217,48.303z M59.027,46.634c0.161-0.003,0.287,0.086,0.447,0.08
	l0.241-0.007l0.276-0.1c0.035-0.095,0.152-0.192,0.152-0.192l0.032-0.09l0.037-0.098l-0.027-0.138l-0.123-0.089l-0.126-0.089
	l-0.127-0.089l-0.078,0.001l-0.064-0.043l-0.063-0.048l-0.079,0.006l-0.062-0.046L59.4,45.649l-0.079,0.001l-0.064-0.043
	l-0.018,0.047l-0.063-0.044l-0.035,0.094l-0.018,0.045c0,0-0.054,0.142-0.07,0.189l-0.054,0.141l0.007,0.185l0.049,0.092
	l-0.02,0.048l0.063,0.045l-0.018,0.047C59.125,46.586,59.223,46.536,59.027,46.634L59.027,46.634z M50.412,76.699
	c0.159-0.006,0.284,0.084,0.444,0.078l0.24-0.008l0.278-0.1c0.034-0.093,0.149-0.192,0.149-0.192l0.036-0.093l0.033-0.093
	l-0.025-0.141l-0.124-0.088l-0.126-0.089l-0.124-0.089l-0.084,0.002l-0.06-0.044l-0.063-0.047l-0.08,0.006l-0.063-0.046
	l-0.063-0.045l-0.08,0.003l-0.063-0.047l-0.02,0.052l-0.06-0.05l-0.037,0.097l-0.019,0.046c0,0-0.054,0.144-0.071,0.188
	l-0.054,0.139l0.01,0.188l0.046,0.09l-0.019,0.045l0.062,0.047l-0.017,0.047C50.508,76.649,50.607,76.603,50.412,76.699
	L50.412,76.699z M35.911,28.814c0.057,0.039-0.387,0.004-0.165,0.159c0.04,0.03,0.045,0.152,0.004,0.122
	c-1.868-0.55-0.812,1.121-2.025-1.36c-0.03-0.062-0.158-0.273-0.179-0.365c-0.011-0.062,0.188-0.283,0.271-0.287
	c0.304-0.009,1.22,0.522,1.231,0.521l0.063-0.034c0.107-0.003,0.571,0.448,0.604,0.51c0,0-0.05,0.124,0.034,0.185
	C35.876,28.354,35.369,28.428,35.911,28.814L35.911,28.814z M0.688,4.257C0.65,4.461,0.646,4.5,0.648,4.504c-0.003,0.005,0,0,0,0
	l0,0L0.54,4.509C0.487,4.51,0.475,4.54,0.423,4.543C0.368,4.544,0.315,4.546,0.271,4.516l-0.124-0.09L0.063,4.367L0.034,4.307
	l0.023-0.063L0.083,4.18L0.063,4.089l-0.02-0.09L0.07,3.936l-0.03-0.061L0,3.844l0.01-0.029l0.011-0.032L0.034,3.75l0.01-0.031H0.1
	l0.041,0.029l0.055-0.002l0.084,0.06l0.081,0.061l0.042,0.027c0.046,0.03,0.126,0.089,0.166,0.117
	c0.084,0.063-0.012,0.034,0.074,0.093l0.069,0.09L0.688,4.257l0.044,0.028l-0.01,0.025L0.72,4.317l0.015,0.013l0.024,0.019
	c0,0,0.047,0.089-0.024-0.019L0.722,4.311C0.712,4.296,0.702,4.275,0.688,4.257L0.688,4.257z M35.182,63.582l-0.069,0.003
	l-0.107,0.055l-0.091,0.002l-0.157-0.046l-0.14-0.099l-0.137-0.102l0.038-0.104l0.021-0.051l0.019-0.053l0.02-0.052l0.071,0.048
	l0.021-0.051l0.02-0.053l0.069,0.05l0.019-0.055l0.021-0.053l0.089-0.002l0.038-0.103l0.269-0.009
	c0.069,0.051,0.157,0.049,0.248,0.047c0.034-0.003,0.065,0.004,0.095,0.015l0.087-0.155c0.029-0.053,0.112-0.275,0.182-0.323
	c0.043-0.034,0.382,0.126,0.446,0.216c0.236,0.351,0.468,1.58,0.478,1.593l0.078,0.063c0.082,0.121,0.043,0.805,0.012,0.855
	c0,0-0.144-0.013-0.131,0.104c0.017,0.176-0.429-0.388-0.354,0.362c0.008,0.079-0.291-0.441-0.263-0.141
	c0.007,0.06-0.097,0.104-0.104,0.044C35.179,63.62,34.596,64.58,35.182,63.582L35.182,63.582z M31.961,44.208
	c0,0-0.143,0.004-0.146,0.021c-0.048,0.052-0.02,0.048-0.152,0.036c-0.03,0.001-0.32-0.039-0.32-0.039
	c-0.051-0.015-0.312-0.137-0.33-0.088c0,0-0.104,0.052-0.11,0.068c-0.128,0.117-0.214-0.172-0.212-0.256
	c0.014-0.032-0.039-0.111-0.023-0.145c-0.005-0.085-0.002-0.396,0.052-0.594c-0.185-0.146-0.369-0.273-0.555-0.463l-0.43-0.437
	l-0.434-0.58c-0.005-0.146-0.151-0.438-0.151-0.438l-0.005-0.146l-0.005-0.146l0.137-0.074l0.28,0.143l0.279,0.145l0.278,0.144
	l0.143,0.144l0.141,0.075l0.143,0.068l0.142,0.146l0.143,0.073l0.141,0.069l0.141,0.145l0.144,0.071l0.003,0.074l0.142,0.072
	l0.004,0.146v0.072c0,0,0.009,0.22,0.013,0.292l0.007,0.222l-0.136,0.148l-0.068,0.001c-0.005,0.092-0.063,0.389,0.046,0.466
	c0.068,0.044,0.239,0.105,0.294,0.104c0.059-0.003,0.23,0.059,0.276,0.155c0.017,0.03,0.042,0.111,0.082,0.159
	C31.965,44.126,31.958,44.145,31.961,44.208L31.961,44.208z M44.884,41.311c0,0-0.143,0.004-0.148,0.021
	c-0.045,0.049-0.017,0.049-0.149,0.037c-0.031,0.002-0.321-0.04-0.321-0.04c-0.053-0.016-0.313-0.139-0.331-0.089
	c0,0-0.102,0.052-0.107,0.069c-0.131,0.117-0.214-0.174-0.211-0.256c0.012-0.032-0.042-0.111-0.029-0.146
	c-0.006-0.128,0.002-0.813,0.203-0.755c0.071,0.029,0.16-0.052,0.249,0.011c0.042,0.031,0.104,0.094,0.096,0.108
	c-0.003,0.083-0.064,0.396,0.046,0.473c0.063,0.048,0.237,0.105,0.295,0.104c0.054,0,0.229,0.06,0.274,0.155
	c0.017,0.032,0.044,0.113,0.079,0.162C44.887,41.229,44.879,41.245,44.884,41.311L44.884,41.311z M43.565,42.281
	c0.04,0.081,0.096,0.121,0.137,0.202l0.061,0.124l0.045,0.166c-0.018,0.042-0.013,0.123-0.013,0.123l-0.019,0.045l-0.012,0.041
	l-0.047,0.021l-0.055-0.038l-0.059-0.041l-0.056-0.042l-0.021-0.04L43.5,42.824l-0.027-0.022l-0.02-0.04l-0.029-0.021l-0.028-0.019
	l-0.021-0.042l-0.027-0.02l0.008-0.022l-0.026-0.019l0.015-0.043l0.007-0.021c0,0,0.025-0.063,0.035-0.085l0.023-0.063l0.051-0.041
	l0.037-0.002l0.008-0.021l0.027,0.021l0.008-0.021C43.576,42.343,43.589,42.404,43.565,42.281L43.565,42.281z M47.49,40.312
	c0.039,0.081,0.097,0.121,0.137,0.203l0.062,0.124l0.042,0.165c-0.015,0.045-0.011,0.126-0.011,0.126l-0.014,0.042l-0.019,0.041
	l-0.046,0.023l-0.056-0.039l-0.056-0.04l-0.057-0.039l-0.021-0.044l-0.025-0.021l-0.029-0.019l-0.02-0.042l-0.028-0.021
	l-0.028-0.019L47.3,40.714l-0.025-0.021l0.011-0.021l-0.029-0.022l0.015-0.041l0.01-0.021c0,0,0.021-0.063,0.03-0.085l0.024-0.063
	l0.053-0.043l0.037-0.001l0.006-0.021l0.028,0.02l0.01-0.021C47.502,40.373,47.517,40.435,47.49,40.312L47.49,40.312z
	 M51.228,37.828c0.041,0.084,0.099,0.123,0.14,0.206l0.061,0.122l0.044,0.164c-0.016,0.044-0.011,0.128-0.011,0.128l-0.017,0.042
	l-0.018,0.041l-0.043,0.022l-0.059-0.042l-0.056-0.038l-0.057-0.041l-0.021-0.04l-0.027-0.021l-0.026-0.021l-0.021-0.04
	l-0.028-0.021l-0.025-0.021l-0.021-0.041l-0.029-0.02l0.011-0.022l-0.027-0.017l0.015-0.045l0.009-0.021
	c0,0,0.023-0.063,0.033-0.084l0.022-0.062l0.052-0.043l0.036-0.002l0.009-0.021l0.026,0.021l0.011-0.021
	C51.242,37.891,51.254,37.954,51.228,37.828L51.228,37.828z M46.564,39.661c0.066,0.131,0.156,0.197,0.224,0.328l0.095,0.197
	l0.071,0.268c-0.025,0.066-0.019,0.199-0.019,0.199l-0.024,0.067l-0.025,0.068l-0.072,0.036l-0.092-0.064l-0.088-0.063l-0.09-0.064
	l-0.035-0.066l-0.044-0.031l-0.045-0.03l-0.032-0.066l-0.045-0.031l-0.047-0.033l-0.03-0.065l-0.046-0.032l0.013-0.033l-0.044-0.033
	l0.023-0.067l0.015-0.033c0,0,0.039-0.102,0.05-0.134l0.04-0.102l0.083-0.072l0.059-0.002l0.014-0.032l0.046,0.032l0.013-0.035
	C46.585,39.761,46.606,39.861,46.564,39.661L46.564,39.661z M44.368,41.431c0.064,0.134,0.154,0.196,0.222,0.328l0.095,0.199
	l0.071,0.265c-0.025,0.067-0.019,0.201-0.019,0.201l-0.025,0.067l-0.027,0.068l-0.068,0.034l-0.093-0.063l-0.09-0.065l-0.088-0.064
	l-0.034-0.064l-0.045-0.031l-0.045-0.035l-0.031-0.063l-0.047-0.033l-0.045-0.03l-0.031-0.065l-0.046-0.032l0.014-0.032
	l-0.047-0.033l0.026-0.068l0.015-0.031c0,0,0.038-0.104,0.05-0.137l0.04-0.104l0.084-0.066l0.06-0.003l0.012-0.034l0.045,0.031
	l0.014-0.031C44.388,41.531,44.408,41.63,44.368,41.431L44.368,41.431z M41.271,42.561c0.064,0.132,0.155,0.195,0.223,0.327
	l0.093,0.198l0.072,0.265c-0.022,0.068-0.021,0.202-0.021,0.202l-0.022,0.068l-0.027,0.066l-0.067,0.034l-0.091-0.063l-0.091-0.063
	l-0.092-0.065l-0.031-0.064l-0.046-0.033l-0.044-0.031l-0.035-0.065l-0.042-0.032l-0.047-0.032l-0.032-0.064l-0.046-0.033
	l0.014-0.032l-0.044-0.032l0.025-0.067l0.013-0.035c0,0,0.038-0.103,0.053-0.136l0.035-0.101l0.084-0.069l0.06-0.001l0.016-0.035
	l0.043,0.033l0.012-0.033C41.29,42.659,41.308,42.758,41.271,42.561L41.271,42.561z M28.907,51.19
	c0.091,0.184,0.216,0.272,0.306,0.455l0.135,0.275l0.098,0.368c-0.035,0.094-0.024,0.275-0.024,0.275l-0.037,0.096l-0.035,0.095
	l-0.099,0.049l-0.124-0.09l-0.127-0.089l-0.125-0.09l-0.043-0.091L28.768,52.4l-0.063-0.045l-0.045-0.093l-0.062-0.042l-0.063-0.044
	l-0.044-0.093l-0.063-0.045l0.02-0.046l-0.063-0.047l0.035-0.093l0.019-0.048c0,0,0.054-0.142,0.069-0.187l0.056-0.144l0.115-0.094
	l0.082-0.003l0.018-0.05l0.063,0.048l0.017-0.048C28.935,51.329,28.962,51.465,28.907,51.19L28.907,51.19z M43.119,29.493
	c0.091,0.182,0.216,0.271,0.305,0.454l0.137,0.273l0.099,0.369c-0.034,0.092-0.027,0.278-0.027,0.278l-0.034,0.092l-0.036,0.096
	l-0.098,0.05l-0.128-0.091l-0.125-0.089l-0.123-0.09l-0.044-0.092l-0.064-0.043l-0.063-0.045l-0.045-0.093l-0.063-0.044l-0.06-0.043
	l-0.045-0.092L42.64,30.34l0.021-0.047l-0.064-0.045l0.035-0.096l0.02-0.045c0,0,0.053-0.141,0.069-0.188l0.053-0.141l0.118-0.097
	l0.08-0.002l0.017-0.047l0.063,0.045l0.019-0.048C43.146,29.631,43.176,29.769,43.119,29.493L43.119,29.493z M57.188,72.718
	c0.064,0.135,0.159,0.202,0.227,0.337l0.098,0.202l0.076,0.274c-0.03,0.066-0.022,0.207-0.022,0.207l-0.025,0.066l-0.024,0.069
	l-0.073,0.036l-0.092-0.064l-0.094-0.067l-0.093-0.063l-0.031-0.068l-0.048-0.035l-0.046-0.03l-0.032-0.066l-0.047-0.033
	l-0.047-0.034l-0.035-0.065l-0.044-0.033l0.013-0.037L56.8,73.282l0.026-0.07l0.013-0.033c0,0,0.039-0.104,0.054-0.141l0.039-0.104
	l0.085-0.072h0.062l0.013-0.034l0.048,0.033l0.013-0.035C57.209,72.823,57.228,72.922,57.188,72.718L57.188,72.718z M63.646,69.481
	c0.067,0.138,0.158,0.198,0.226,0.335l0.099,0.202l0.072,0.271c-0.024,0.071-0.018,0.209-0.018,0.209l-0.026,0.065l-0.026,0.071
	l-0.075,0.035l-0.089-0.064l-0.094-0.065l-0.095-0.064l-0.029-0.068l-0.049-0.032l-0.045-0.032l-0.035-0.069l-0.044-0.033
	l-0.049-0.03l-0.031-0.067l-0.046-0.034l0.013-0.033l-0.048-0.032l0.029-0.069l0.013-0.037c0,0,0.037-0.104,0.052-0.139l0.038-0.104
	l0.088-0.069h0.06l0.014-0.037l0.047,0.034l0.013-0.037C63.665,69.581,63.688,69.685,63.646,69.481L63.646,69.481z M66.769,67.315
	c0.064,0.137,0.159,0.202,0.224,0.336l0.104,0.201l0.071,0.274c-0.027,0.067-0.021,0.207-0.021,0.207l-0.024,0.068l-0.024,0.069
	l-0.074,0.035l-0.094-0.066l-0.092-0.064l-0.093-0.065l-0.034-0.067l-0.045-0.033l-0.046-0.032l-0.032-0.065l-0.05-0.034
	l-0.045-0.034l-0.033-0.066l-0.046-0.033l0.016-0.033l-0.049-0.034l0.028-0.069l0.013-0.035c0,0,0.038-0.102,0.05-0.139l0.042-0.104
	l0.085-0.068l0.063-0.004l0.011-0.033l0.048,0.033l0.013-0.036C66.788,67.417,66.809,67.518,66.769,67.315L66.769,67.315z
	 M65.055,67.977c0.052,0.105,0.121,0.167,0.18,0.259c-0.09-0.021-0.179-0.034-0.269-0.032h-0.177l0.008-0.016l0.084-0.069
	l0.063-0.002l0.013-0.034l0.046,0.031l0.014-0.033C65.074,68.078,65.094,68.18,65.055,67.977L65.055,67.977z M62.128,68.411
	c0.104,0.217,0.252,0.322,0.357,0.541l0.159,0.326l0.117,0.438c-0.043,0.109-0.031,0.33-0.031,0.33l-0.042,0.11l-0.041,0.111
	l-0.118,0.058l-0.147-0.104l-0.148-0.104l-0.147-0.105l-0.052-0.107l-0.076-0.056l-0.075-0.053l-0.051-0.106l-0.075-0.054
	l-0.071-0.053l-0.056-0.106l-0.075-0.056l0.022-0.056L61.5,69.311l0.044-0.112l0.021-0.056c0,0,0.065-0.166,0.084-0.223l0.064-0.166
	l0.139-0.114l0.097-0.004l0.021-0.055l0.074,0.052l0.021-0.054C62.157,68.575,62.191,68.74,62.128,68.411L62.128,68.411z
	 M56.122,40.892c0.105,0.218,0.253,0.323,0.361,0.541l0.159,0.326l0.115,0.436c-0.04,0.111-0.032,0.331-0.032,0.331l-0.04,0.11
	l-0.043,0.112l-0.117,0.059l-0.148-0.104l-0.148-0.104l-0.147-0.104l-0.053-0.11l-0.073-0.053l-0.074-0.055l-0.055-0.106
	l-0.073-0.054l-0.075-0.054l-0.053-0.106L55.55,41.9l0.021-0.057l-0.072-0.053l0.044-0.111l0.021-0.055c0,0,0.063-0.167,0.084-0.225
	l0.063-0.167l0.139-0.114l0.097-0.001l0.022-0.058l0.073,0.053l0.019-0.059C56.152,41.056,56.187,41.222,56.122,40.892
	L56.122,40.892z M65.092,65.664c0.146,0.3,0.353,0.447,0.5,0.749l0.22,0.448l0.163,0.606c-0.06,0.153-0.042,0.459-0.042,0.459
	l-0.061,0.152l-0.06,0.154l-0.162,0.082l-0.206-0.146l-0.204-0.148l-0.205-0.146l-0.075-0.149l-0.103-0.074l-0.104-0.071
	l-0.071-0.15l-0.104-0.075l-0.104-0.072l-0.074-0.151L64.3,67.06l0.028-0.077l-0.104-0.071l0.058-0.155l0.031-0.077
	c0,0,0.088-0.231,0.114-0.309l0.089-0.232l0.191-0.157l0.131-0.003l0.028-0.08l0.105,0.074l0.029-0.076
	C65.135,65.892,65.178,66.118,65.092,65.664L65.092,65.664z M58.058,43.948c0.305,0.384,0.277,0.449,0.319,0.646
	c0,0-0.016,0.329-0.04,0.396c-0.024,0.067-0.228,0.01-0.341,0.012c-0.111,0.004-0.111,0.004-0.229,0.006
	c0,0-0.163,0.135-0.251,0.073l-0.268-0.19l-0.038-0.192c0,0-0.2-0.063-0.15-0.192l0.049-0.135l0.141-0.068l-0.063-0.132
	l-0.063-0.128l-0.178-0.125l-0.063-0.13l-0.064-0.13l0.051-0.133l0.025-0.065l0.027-0.067l0.111-0.003l0.115-0.003l0.088,0.063
	l0.023-0.067l0.024-0.064l0.024-0.066l0.089,0.063l0.053-0.133l0.023-0.064c0,0,0.253-0.073,0.314,0.056l0.041,0.195l0.035,0.195
	l0.064,0.129l-0.027,0.067l0.093,0.062l0.086,0.064C58.174,43.943,58.347,44.069,58.058,43.948L58.058,43.948z M63.353,49.049
	c0.481,0.511,0.341,0.581,0.646,0.966c0.063,0.129,0.149,0.19,0.103,0.327c-0.024,0.064-0.115,0.002-0.141,0.069
	c-0.137,0.066-0.252,0.071-0.252,0.071l-0.14,0.068l-0.201-0.061c0,0,0.036,0.196-0.141,0.069l-0.112,0.003l-0.292-0.121
	l-0.229,0.008l-0.176-0.127l-0.065-0.129L62.204,50l-0.153-0.192l-0.039-0.195l0.027-0.067l-0.063-0.125l-0.092-0.065l0.052-0.133
	l0.025-0.064l0.024-0.069l-0.09-0.063l0.025-0.065l0.026-0.066l0.023-0.064l0.025-0.066l0.051-0.132
	c0.114-0.004,0.204,0.061,0.404,0.118l0.315,0.058l0.203,0.061l0.115-0.006l0.085,0.064l0.117-0.004l0.175,0.125
	C63.466,49.045,63.733,49.235,63.353,49.049L63.353,49.049z M32.941,22.607c-0.043-0.148-0.032-0.271-0.125-0.412
	c-0.037-0.057-0.146-0.164-0.1-0.274c0.021-0.158-0.18-0.021-0.201,0.028c-0.053,0.055-0.311,0.371-0.246,0.476
	c0.018,0.017,0.077,0.271,0.119,0.169c0.029-0.038,0.136-0.222,0.189-0.187C32.668,22.468,32.809,22.752,32.941,22.607
	L32.941,22.607z M34.573,32.04c0.053-0.015,0.056,0.087,0.051-0.115c0.038,0.126,0.108,0.175,0.147,0.3l0.059,0.188
	c0.019,0.215-0.057,0.769-0.161,0.698C33.933,32.615,34.39,32.47,34.573,32.04L34.573,32.04z M34.762,33.871l0.021-0.051
	c-0.009-0.364-0.552-0.096-0.478,0.14C34.393,34.246,34.657,34.119,34.762,33.871L34.762,33.871z M34.281,26.547
	c0.095-0.026,0.293,0.003,0.371-0.049c0.259-0.165,0.426-0.392,0.135-0.586c-0.018-0.013-0.077-0.037-0.104-0.028
	C34.045,26.067,34.562,26.329,34.281,26.547L34.281,26.547z M35.191,17.442c0.203-0.059,0.569-0.421,0.449-0.503
	c-0.157-0.106-0.333-0.097-0.464-0.186c-0.131-0.088-0.018,0.031-0.045,0.014c-0.029-0.02-0.201,0.287-0.15,0.446
	C35.038,17.411,34.915,17.522,35.191,17.442L35.191,17.442z M37.434,15.833c0.175-0.048,0.253-0.132,0.396-0.285
	c0.26-0.283-0.395-0.532-0.556-0.159c-0.05,0.117-0.021,0.229-0.05,0.303l0.026,0.021C37.189,15.861,37.259,15.884,37.434,15.833
	L37.434,15.833z M25.884,7.841C25.723,7.73,25.349,7.762,25.3,7.757c-0.071-0.018-0.254-0.255-0.215-0.286
	c0.037-0.028,0.092,0.033,0.129,0.004c0.037-0.088-0.18-0.465-0.184-0.604C25.03,6.757,25.07,6.843,25.1,6.776
	c0.108-0.26,0.243-0.02,0.284-0.063c0.079-0.062,0.144-0.271,0.263-0.19c0.199,0.133,0.286,0.476,0.507,0.625
	C26.188,7.169,26.095,7.98,25.884,7.841L25.884,7.841z M24.153,1.262c0.022,0.013,0.213,0.17,0.213,0.17l-0.05,0.052
	c-0.149,0.352-0.69,0.279-0.827,0.064c-0.051-0.063,0.006-0.194-0.026-0.242c-0.028-0.05,0.081-0.37,0.13-0.424
	C23.848,0.606,24.058,1.198,24.153,1.262L24.153,1.262z M23.74,4.339c-0.433,1.002-1.062,0.235-1.017,0.137
	c0.027-0.063,0.178-0.475,0.235-0.492c0.027-0.009,0.138,0.04,0.158,0.054C23.177,4.073,23.825,4.14,23.74,4.339L23.74,4.339z
	 M29.948,14.345c-0.129,0.036-0.197,0.113-0.344,0.098c-0.06-0.006-0.192-0.059-0.238,0.05c-0.081,0.094-0.102-0.081-0.092-0.137
	c0.035-0.088,0.018-0.626,0.18-0.605c0.01,0,0.221-0.074,0.179,0.026c-0.106,0.617,0.183,0.114,0.267,0.391
	C29.919,14.224,29.951,14.283,29.948,14.345L29.948,14.345z M29.134,15.156c0.018,0.058,0.12,0.21,0.088,0.286
	c-0.03,0.067-0.012,0.118-0.07,0.162c-0.059,0.046-0.049-0.032-0.054-0.036C28.786,15.359,29.139,15.253,29.134,15.156
	L29.134,15.156z M29.741,15.135c-0.096,0.225-0.25-0.169-0.348-0.233c-0.047-0.03,0.175-0.275,0.188-0.303l0.01-0.022l0.021,0.015
	C29.717,14.347,29.823,14.949,29.741,15.135L29.741,15.135z M33.912,33.484c-0.091,0.208-0.044,0.313-0.202,0.206
	c-0.311-0.208-0.521-0.296-0.337-0.4l0.334-0.194C33.865,33.003,33.971,33.352,33.912,33.484L33.912,33.484z M37.532,30.005
	l0.201,0.319c0.014,0.128,0.019,0.229-0.034,0.353c-0.222,0.51-0.303-0.373-0.267-0.542C37.44,30.104,37.393,29.542,37.532,30.005
	L37.532,30.005z M37.052,30.512c-0.013,0.152-0.116,0.224-0.205,0.16c-0.134-0.089-0.477-0.382-0.366-0.544l0.219-0.319
	C36.745,29.744,37.134,29.744,37.052,30.512L37.052,30.512z M35.525,19.888c0.066,0.223,0.196,0.962-0.047,1.152
	c-0.15,0.119-0.256-0.032-0.394-0.125c-0.128-0.085-0.266-0.456-0.354-0.517c-0.021-0.014,0.242-0.55,0.353-0.669
	C35.284,19.511,35.431,19.575,35.525,19.888L35.525,19.888z M36.342,13.012c0.015,0.042-0.028,0.784-0.161,0.695
	c-0.194-0.134-0.341-0.432-0.467-0.518l0.124-0.335C36.045,12.371,36.167,12.428,36.342,13.012L36.342,13.012z M32.362,28.26
	c-0.051,0.196-0.471,0.055-0.652,0.188c-0.153,0.113-0.018,0.548-0.125,0.637c-0.487,0.407-1.111-1.054-1.132-1.827
	c-0.002-0.119,0.467-0.011,0.729-0.13c0.243-0.106,0.283-0.443,0.283-0.443C31.832,26.93,32.455,27.887,32.362,28.26L32.362,28.26z
	 M38.954,27.762c0.116,0.374,0.047,1.353-0.142,1.226c-0.273-0.183-0.475-0.597-0.649-0.715c0,0,0.193-0.458,0.229-0.54
	C38.577,27.31,38.9,27.574,38.954,27.762L38.954,27.762z M37.03,14.61c0.005,0.225-0.416,0.501-0.52,0.434
	c-0.051-0.036-0.24-0.201-0.193-0.311c0.093-0.217-0.179-0.646,0.089-0.721c0.115-0.031,0.074-0.167,0.247-0.193
	c0.463-0.063,0.106-0.093,0.193,0.192C36.938,14.308,37.018,14.188,37.03,14.61L37.03,14.61z M31.2,39.014
	c0.05-0.242,0.283,0.078,0.395,0.105c0.052,0.015-0.12,0.317-0.124,0.348l-0.008,0.024l-0.024-0.008
	C31.384,39.747,31.159,39.217,31.2,39.014L31.2,39.014z M36.5,44.611c0.18,0.051,0.545-0.103,0.597-0.111
	c0.074-0.007,0.301,0.153,0.271,0.195c-0.033,0.043-0.096,0-0.13,0.041c-0.02,0.094,0.271,0.377,0.302,0.507
	c0.026,0.105-0.031,0.041-0.046,0.11c-0.058,0.282-0.238,0.1-0.271,0.153c-0.063,0.083-0.087,0.303-0.224,0.265
	c-0.224-0.059-0.378-0.353-0.629-0.418C36.332,45.343,36.261,44.549,36.5,44.611L36.5,44.611z M39.541,50.234
	c-0.022-0.007-0.243-0.091-0.243-0.091l0.035-0.066c0.082-0.378,0.634-0.489,0.812-0.331c0.063,0.042,0.033,0.185,0.072,0.221
	c0.042,0.037-0.006,0.373-0.041,0.438C39.977,50.747,39.65,50.263,39.541,50.234L39.541,50.234z M39.333,47.201
	c0.226-1.086,1.004-0.57,0.979-0.462c-0.016,0.066-0.08,0.505-0.136,0.539c-0.028,0.018-0.146,0.01-0.169,0.005
	C39.947,47.267,39.289,47.417,39.333,47.201L39.333,47.201z M44.067,51.927c-0.019-0.143,0.276-0.17,0.313-0.365
	c0.017-0.075,0.405-0.024,0.465,0.074c0.03,0.055,0.023,0.136,0.074,0.221c0.016,0.029,0.049,0.213,0.029,0.31
	c-0.073,0.355-0.566,0.223-0.708,0.185C44.081,52.306,44.071,52.104,44.067,51.927L44.067,51.927z M45.243,51.668
	c-0.05-0.082,0.034-0.209,0.095-0.224c0.181-0.042,0.125-0.327,0.313-0.163l0.084,0.219l-0.006,0.023
	c-0.047,0.222,0.121,0.495-0.146,0.421C45.307,51.871,45.35,51.765,45.243,51.668L45.243,51.668z M31.156,39.824
	c0.116-0.074,0.173-0.169,0.32-0.204c0.063-0.015,0.202-0.008,0.229-0.123c0.063-0.116,0.117,0.045,0.117,0.097
	c-0.021,0.096,0.11,0.594-0.056,0.634c-0.009,0-0.206,0.14-0.183,0.028c-0.021-0.612-0.207-0.046-0.348-0.278
	C31.208,39.93,31.164,39.886,31.156,39.824L31.156,39.824z M31.8,38.795c-0.028-0.046-0.16-0.158-0.145-0.24
	c0.016-0.074-0.013-0.113,0.036-0.177s0.054,0.015,0.063,0.016C32.104,38.488,31.778,38.705,31.8,38.795L31.8,38.795z M22.112,0
	c0.06,0.124,0.107,0.271,0.158,0.328c0.057,0.061-0.287,0.312-0.31,0.343L21.942,0.7l-0.025-0.027
	C21.752,0.926,21.729,0.311,21.822,0H22.112L22.112,0z M25.257,11.17c0.185,0.204,0.678,0.298,0.741,0.322
	c0.088,0.051,0.271,0.438,0.217,0.464c-0.06,0.027-0.11-0.075-0.168-0.048c-0.066,0.104,0.129,0.69,0.102,0.881
	c-0.021,0.155-0.057,0.025-0.107,0.104c-0.2,0.313-0.322-0.063-0.388-0.019c-0.109,0.056-0.239,0.316-0.381,0.161
	c-0.227-0.249-0.264-0.744-0.521-1.026C24.714,11.966,25.016,10.901,25.257,11.17L25.257,11.17z M26.042,20.709
	c-0.024-0.025-0.237-0.308-0.237-0.308l0.074-0.055c0.273-0.418,0.963-0.126,1.092,0.215c0.05,0.104-0.05,0.262-0.021,0.339
	c0.027,0.077-0.188,0.471-0.262,0.525C26.293,21.706,26.153,20.83,26.042,20.709L26.042,20.709z M27.262,16.689
	c0.783-1.203,1.429,0.063,1.352,0.183c-0.052,0.076-0.338,0.579-0.419,0.579c-0.035,0-0.17-0.101-0.191-0.126
	C27.938,17.254,27.107,16.928,27.262,16.689L27.262,16.689z M30.424,26.419c0.046-0.197,0.396-0.001,0.536-0.218
	c0.056-0.083,0.476,0.286,0.495,0.458c0.014,0.094-0.039,0.19-0.021,0.339c0.008,0.052-0.042,0.312-0.11,0.418
	c-0.258,0.396-0.758-0.163-0.903-0.321C30.256,26.911,30.345,26.646,30.424,26.419L30.424,26.419z M31.898,27.015
	c-0.018-0.143,0.14-0.241,0.219-0.211c0.226,0.088,0.3-0.32,0.433,0.036l-0.007,0.347l-0.019,0.024
	c-0.158,0.247-0.098,0.728-0.373,0.418C31.874,27.323,31.978,27.221,31.898,27.015L31.898,27.015z M21.431,0.884
	c0.171-0.005,0.279-0.083,0.466-0.01c0.075,0.028,0.235,0.149,0.318,0.021c0.126-0.098,0.116,0.148,0.089,0.216
	c-0.066,0.106-0.158,0.845-0.366,0.763c-0.012-0.007-0.304,0.016-0.225-0.104c0.273-0.796-0.216-0.225-0.263-0.627
	C21.44,1.057,21.408,0.963,21.431,0.884L21.431,0.884z M22.665,0.079C22.663,0.059,22.655,0.032,22.645,0h0.089
	C22.695,0.025,22.667,0.048,22.665,0.079L22.665,0.079z M12.941,1.942c0.051-0.241,0.285,0.076,0.394,0.106
	c0.053,0.014-0.118,0.316-0.125,0.344l-0.005,0.026l-0.026-0.007C13.126,2.676,12.898,2.146,12.941,1.942L12.941,1.942z M18.24,7.54
	c0.182,0.048,0.545-0.104,0.595-0.115c0.075-0.005,0.305,0.156,0.271,0.198c-0.032,0.042-0.097,0-0.129,0.042
	c-0.02,0.092,0.272,0.376,0.302,0.505c0.025,0.107-0.03,0.042-0.047,0.111c-0.058,0.281-0.238,0.099-0.27,0.152
	c-0.065,0.082-0.087,0.302-0.225,0.269c-0.222-0.063-0.38-0.354-0.63-0.421C18.073,8.271,18.001,7.477,18.24,7.54L18.24,7.54z
	 M21.282,13.16c-0.025-0.005-0.245-0.09-0.245-0.09l0.04-0.066c0.078-0.378,0.63-0.489,0.809-0.331
	c0.063,0.042,0.032,0.186,0.073,0.221c0.041,0.037-0.006,0.373-0.043,0.438C21.718,13.676,21.393,13.19,21.282,13.16L21.282,13.16z
	 M21.074,10.129c0.225-1.086,1.002-0.57,0.979-0.462c-0.012,0.068-0.082,0.504-0.136,0.539c-0.027,0.018-0.146,0.01-0.167,0.005
	C21.687,10.193,21.027,10.346,21.074,10.129L21.074,10.129z M25.808,14.855c-0.02-0.145,0.275-0.171,0.316-0.364
	c0.014-0.076,0.402-0.025,0.46,0.071c0.032,0.056,0.024,0.138,0.076,0.222c0.016,0.03,0.051,0.216,0.029,0.309
	c-0.073,0.358-0.565,0.224-0.707,0.185C25.822,15.233,25.813,15.033,25.808,14.855L25.808,14.855z M26.985,14.597
	c-0.049-0.083,0.033-0.21,0.095-0.227c0.178-0.04,0.124-0.325,0.311-0.161l0.083,0.219l-0.005,0.024
	c-0.043,0.221,0.126,0.493-0.149,0.42C27.047,14.8,27.093,14.691,26.985,14.597L26.985,14.597z M12.898,2.753
	c0.115-0.074,0.169-0.17,0.317-0.204c0.063-0.016,0.204-0.007,0.229-0.124c0.063-0.115,0.117,0.045,0.117,0.097
	c-0.019,0.098,0.11,0.595-0.056,0.632c-0.01,0.002-0.205,0.143-0.181,0.03c-0.021-0.613-0.209-0.046-0.346-0.277
	C12.949,2.857,12.903,2.813,12.898,2.753L12.898,2.753z M13.54,1.724c-0.029-0.046-0.16-0.158-0.144-0.241
	c0.015-0.073-0.013-0.113,0.034-0.177c0.051-0.061,0.056,0.015,0.063,0.019C13.846,1.417,13.519,1.633,13.54,1.724L13.54,1.724z
	 M46.709,60.788c0.031,0.138,0.042-0.18,0.154,0.096c0.009,0.011,0.222-0.138,0.216-0.163c0,0-0.093-0.168-0.137-0.215
	C46.709,60.263,46.692,60.66,46.709,60.788L46.709,60.788z M20.09,66.101c0,0-0.109-0.16-0.127-0.164
	c-0.079-0.037-0.059-0.005-0.148-0.164c-0.023-0.032-0.207-0.383-0.207-0.383c-0.024-0.063-0.111-0.403-0.168-0.411
	c0,0-0.125-0.101-0.145-0.104c-0.197-0.109-0.012-0.3,0.063-0.324c0.037,0.004,0.063-0.083,0.104-0.08
	c0.105-0.049,0.703-0.26,0.805-0.009c0.027,0.094,0.165,0.167,0.178,0.287c0.006,0.063-0.007,0.149-0.021,0.149
	c-0.075,0.022-0.388,0.052-0.373,0.202c0.008,0.092,0.089,0.312,0.128,0.375c0.047,0.066,0.124,0.284,0.077,0.367
	c-0.019,0.03-0.066,0.088-0.079,0.145C20.161,66.077,20.146,66.077,20.09,66.101L20.09,66.101z M32.293,80.083
	c0,0-0.11-0.16-0.13-0.16c-0.076-0.04-0.055-0.009-0.146-0.168c-0.021-0.03-0.205-0.383-0.205-0.383
	c-0.026-0.063-0.116-0.402-0.173-0.406c0,0-0.122-0.104-0.142-0.104c-0.198-0.11-0.01-0.305,0.063-0.325
	c0.036,0.005,0.064-0.083,0.104-0.082c0.106-0.047,0.703-0.26,0.804-0.007c0.027,0.094,0.166,0.168,0.177,0.286
	c0.008,0.063-0.001,0.149-0.021,0.147c-0.072,0.024-0.39,0.055-0.374,0.207c0.008,0.088,0.087,0.311,0.131,0.37
	c0.043,0.067,0.12,0.286,0.074,0.372c-0.017,0.03-0.066,0.084-0.082,0.144C32.369,80.062,32.347,80.062,32.293,80.083L32.293,80.083
	z M30.467,78.874c-0.04,0.075-0.033,0.153-0.075,0.222l-0.059,0.114l-0.109,0.104c-0.048-0.008-0.118,0.025-0.118,0.025
	l-0.048-0.007l-0.048-0.002l-0.053-0.045L29.95,79.21l-0.011-0.076l-0.008-0.08l0.021-0.038l-0.004-0.038l-0.003-0.037l0.019-0.037
	l-0.005-0.039l-0.002-0.039l0.02-0.036l-0.002-0.038H30l-0.005-0.037l0.047,0.004l0.026,0.002c0,0,0.071,0.01,0.096,0.01
	l0.071,0.012l0.076,0.042l0.029,0.043l0.024,0.002l0.005,0.037l0.021,0.003C30.422,78.908,30.378,78.945,30.467,78.874
	L30.467,78.874z M35.112,82.771c-0.037,0.075-0.034,0.15-0.073,0.227l-0.061,0.108L34.87,83.21
	c-0.051-0.008-0.119,0.027-0.119,0.027l-0.048-0.008l-0.052-0.002l-0.05-0.047l-0.007-0.078l-0.008-0.076l-0.01-0.075L34.6,82.91
	l-0.004-0.037l-0.006-0.037l0.021-0.038l-0.004-0.039l-0.002-0.04l0.021-0.036l-0.005-0.038l0.022,0.002l-0.005-0.038l0.05,0.006
	l0.024,0.003c0,0,0.072,0.007,0.097,0.009l0.071,0.01l0.077,0.045l0.027,0.041l0.023,0.003l0.005,0.038l0.022,0.004
	C35.066,82.807,35.023,82.839,35.112,82.771L35.112,82.771z M34.979,81.496c-0.067,0.115-0.053,0.24-0.121,0.357l-0.096,0.178
	l-0.174,0.164c-0.079-0.007-0.188,0.047-0.188,0.047l-0.08-0.009l-0.074-0.007l-0.084-0.073l-0.014-0.125l-0.012-0.125l-0.014-0.122
	l0.032-0.06l-0.008-0.063l-0.008-0.062l0.036-0.057l-0.006-0.064l-0.007-0.065l0.031-0.058l-0.007-0.059l0.041,0.002l-0.008-0.063
	l0.079,0.009l0.038,0.003c0,0,0.115,0.015,0.154,0.017l0.117,0.013l0.122,0.071l0.044,0.068l0.038,0.003l0.008,0.063l0.039,0.006
	C34.906,81.551,34.835,81.603,34.979,81.496L34.979,81.496z M31.802,79.531c-0.066,0.116-0.052,0.239-0.118,0.357l-0.097,0.174
	l-0.177,0.171c-0.076-0.01-0.188,0.042-0.188,0.042l-0.078-0.009l-0.077-0.01l-0.084-0.069l-0.011-0.125L30.96,79.94l-0.015-0.124
	l0.032-0.062l-0.006-0.061l-0.006-0.063L31,79.573l-0.008-0.064l-0.009-0.06l0.035-0.063l-0.005-0.062l0.036,0.003l-0.006-0.062
	l0.078,0.005l0.037,0.005c0,0,0.115,0.014,0.157,0.019l0.114,0.011l0.122,0.072l0.046,0.07h0.038l0.007,0.063l0.041,0.005
	C31.73,79.584,31.661,79.638,31.802,79.531L31.802,79.531z M28.502,76.316c-0.063,0.119-0.053,0.244-0.117,0.358l-0.099,0.175
	l-0.175,0.17c-0.077-0.007-0.188,0.046-0.188,0.046l-0.079-0.011l-0.077-0.007l-0.082-0.071l-0.013-0.127l-0.012-0.122l-0.013-0.123
	l0.03-0.062l-0.005-0.063l-0.008-0.063L27.7,76.36l-0.009-0.06l-0.004-0.064l0.033-0.06l-0.007-0.064l0.039,0.006l-0.008-0.063
	l0.079,0.008l0.037,0.004c0,0,0.115,0.013,0.155,0.018l0.116,0.013l0.121,0.07l0.048,0.065l0.036,0.007l0.006,0.063l0.042,0.004
	C28.43,76.371,28.361,76.427,28.502,76.316L28.502,76.316z M11.776,64.829c-0.089,0.165-0.071,0.336-0.163,0.499l-0.136,0.245
	l-0.243,0.229c-0.105-0.009-0.259,0.061-0.259,0.061l-0.108-0.008l-0.106-0.012l-0.117-0.097l-0.018-0.177l-0.016-0.171l-0.02-0.175
	l0.046-0.08l-0.01-0.086l-0.009-0.089l0.048-0.08l-0.014-0.086l-0.008-0.087l0.05-0.082l-0.01-0.086l0.055,0.004l-0.011-0.086
	l0.109,0.013l0.052,0.002c0,0,0.163,0.019,0.215,0.025l0.161,0.015l0.17,0.104l0.063,0.094l0.055,0.004l0.008,0.088l0.055,0.004
	C11.677,64.904,11.577,64.979,11.776,64.829L11.776,64.829z M39.453,60.259c0.093-0.1,0.204-0.128,0.262-0.275
	c0.021-0.062,0.033-0.223,0.16-0.205c0.151-0.024-0.117-0.217-0.176-0.226c-0.086-0.041-0.556-0.237-0.598-0.128
	c-0.002,0.024-0.172,0.173-0.054,0.192c0.057,0.021,0.292,0.084,0.302,0.155C39.365,59.899,39.227,60.15,39.453,60.259
	L39.453,60.259z M32.544,65.188c0.053,0.059-0.033,0.096,0.139,0.021c-0.081,0.084-0.069,0.185-0.147,0.267l-0.118,0.128
	c-0.173,0.091-0.706,0.185-0.725,0.04C31.567,64.633,32.034,65.116,32.544,65.188L32.544,65.188z M31.105,65.998l0.062,0.01
	c0.309-0.131-0.329-0.668-0.482-0.512C30.506,65.691,30.813,65.955,31.105,65.998L31.105,65.998z M37.062,63.078
	c0.092,0.101,0.213,0.337,0.319,0.414c0.342,0.244,0.658,0.365,0.606-0.036c-0.002-0.023-0.024-0.099-0.056-0.127
	C37.292,62.648,37.46,63.331,37.062,63.078L37.062,63.078z M45.594,61.191c0.202,0.211,0.793,0.518,0.773,0.354
	c-0.028-0.219-0.167-0.414-0.191-0.595c-0.019-0.185-0.038-0.013-0.044-0.049c-0.007-0.042-0.397-0.142-0.5-0.032
	C45.509,61.003,45.319,60.896,45.594,61.191L45.594,61.191z M30.805,64.892c-0.249-0.036-0.307,0.047-0.331-0.166
	c-0.055-0.427-0.136-0.694,0.092-0.521l0.418,0.325C31.183,64.681,30.962,64.914,30.805,64.892L30.805,64.892z M36.521,67.945
	l-0.125,0.34c-0.099,0.058-0.184,0.092-0.329,0.071c-0.605-0.087,0.094-0.468,0.266-0.479
	C36.365,67.874,36.813,67.638,36.521,67.945L36.521,67.945z M35.725,67.558c-0.144,0.031-0.283-0.063-0.297-0.187
	c-0.023-0.184-0.023-0.673,0.196-0.6l0.44,0.148C36.154,66.953,36.448,67.402,35.725,67.558L35.725,67.558z M43.734,62.363
	c-0.138,0.151-0.68,0.537-1.025,0.316c-0.213-0.133-0.164-0.307-0.189-0.494c-0.021-0.176,0.197-0.452,0.183-0.574
	c-0.006-0.023,0.652,0.101,0.84,0.19C43.881,61.963,43.936,62.153,43.734,62.363L43.734,62.363z M34.143,61.415
	c-0.203,0.006-0.4-0.528-0.655-0.694c-0.211-0.138-0.481,0.156-0.642,0.063c-0.716-0.434,0.075-1.625,0.73-1.897
	c0.098-0.039,0.357,0.537,0.654,0.802c0.277,0.25,0.598,0.185,0.598,0.185C34.89,60.372,34.533,61.402,34.143,61.415L34.143,61.415z
	 M39.526,68.865c-0.236,0.253-1.136,0.486-1.167,0.232c-0.048-0.378,0.157-0.74,0.13-0.985c-0.002,0,0.538,0.081,0.64,0.097
	C39.625,68.281,39.643,68.742,39.526,68.865L39.526,68.865z M33.279,83.754c-0.119,0.043-0.228,0.01-0.349,0.054l-0.181,0.063
	l-0.193,0.143c-0.013,0.077-0.084,0.175-0.084,0.175l-0.013,0.073l-0.013,0.076l0.042,0.092l0.106,0.033l0.108,0.032l0.105,0.031
	l0.062-0.021l0.053,0.017l0.055,0.016l0.061-0.021l0.054,0.017l0.056,0.018l0.06-0.022l0.055,0.018l0.005-0.038l0.055,0.017
	l0.014-0.076l0.007-0.037c0,0,0.021-0.112,0.025-0.15l0.018-0.116l-0.035-0.128l-0.046-0.056l0.005-0.036l-0.053-0.016l0.005-0.04
	C33.212,83.814,33.146,83.871,33.279,83.754L33.279,83.754z M35.043,84.296c-0.194,0.069-0.366,0.017-0.562,0.088l-0.289,0.104
	l-0.31,0.228c-0.021,0.122-0.136,0.278-0.136,0.278l-0.021,0.121l-0.02,0.119l0.066,0.148l0.173,0.053l0.173,0.055l0.174,0.05
	l0.097-0.035l0.086,0.027l0.086,0.025l0.097-0.036l0.089,0.026l0.086,0.023l0.096-0.032l0.086,0.024l0.01-0.061l0.087,0.023
	l0.021-0.118l0.009-0.063c0,0,0.028-0.183,0.038-0.243l0.031-0.182l-0.059-0.21l-0.074-0.087l0.011-0.061l-0.087-0.025l0.01-0.061
	C34.935,84.391,34.828,84.487,35.043,84.296L35.043,84.296z M37.86,86.76c-0.153-0.179-0.331-0.231-0.488-0.408l-0.234-0.27
	l-0.216-0.391c0.021-0.124-0.035-0.337-0.035-0.337l0.019-0.127l0.021-0.125l0.111-0.098l0.173,0.056l0.179,0.053l0.177,0.053
	l0.078,0.09l0.089,0.028l0.091,0.025l0.077,0.087l0.088,0.027l0.089,0.026l0.078,0.089l0.091,0.025l-0.012,0.063l0.091,0.03
	l-0.022,0.125l-0.009,0.059c0,0-0.031,0.188-0.041,0.25l-0.032,0.188l-0.119,0.16l-0.1,0.036l-0.01,0.063l-0.089-0.03l-0.01,0.064
	C37.795,86.606,37.725,86.457,37.86,86.76L37.86,86.76z M28.158,95.467c-0.159-0.178-0.337-0.23-0.492-0.41l-0.235-0.265
	l-0.213-0.392c0.019-0.126-0.04-0.339-0.04-0.339l0.022-0.125l0.02-0.124l0.109-0.099l0.178,0.054l0.178,0.055l0.177,0.052
	l0.078,0.091l0.09,0.024l0.089,0.026l0.076,0.091l0.091,0.027l0.089,0.026l0.079,0.088l0.089,0.025l-0.013,0.063l0.092,0.023
	l-0.022,0.125l-0.01,0.063c0,0-0.03,0.187-0.041,0.249l-0.03,0.188l-0.119,0.158l-0.101,0.035l-0.011,0.063l-0.089-0.025
	l-0.01,0.061C28.091,95.316,28.021,95.165,28.158,95.467L28.158,95.467z M26.312,98.633c-0.154-0.18-0.334-0.232-0.488-0.409
	l-0.235-0.265l-0.216-0.394c0.022-0.125-0.035-0.338-0.035-0.338l0.019-0.126l0.021-0.123l0.108-0.098l0.181,0.052l0.176,0.052
	l0.175,0.057l0.08,0.089l0.088,0.026l0.09,0.025l0.078,0.089l0.088,0.026l0.089,0.029l0.079,0.088l0.09,0.025l-0.011,0.063
	l0.089,0.026l-0.021,0.124l-0.011,0.063c0,0-0.029,0.187-0.039,0.248l-0.031,0.188l-0.12,0.161l-0.102,0.035l-0.01,0.063
	l-0.089-0.027l-0.009,0.063C26.245,98.482,26.176,98.331,26.312,98.633L26.312,98.633z M31.063,96.321
	c-0.251-0.284-0.533-0.37-0.787-0.654L29.9,95.233l-0.344-0.625c0.033-0.198-0.06-0.545-0.06-0.545l0.029-0.195l0.034-0.202
	l0.177-0.156l0.282,0.084l0.284,0.086l0.286,0.087l0.126,0.145l0.141,0.041l0.146,0.042l0.123,0.145l0.143,0.042l0.145,0.043
	l0.125,0.143l0.144,0.043l-0.018,0.102l0.141,0.043l-0.03,0.198l-0.017,0.101c0,0-0.051,0.299-0.067,0.399l-0.048,0.299
	l-0.192,0.259l-0.159,0.059l-0.018,0.099l-0.142-0.041l-0.017,0.098C30.956,96.08,30.845,95.835,31.063,96.321L31.063,96.321z
	 M48.503,48.714c-0.271,0.004-0.545-0.138-0.813-0.134l-0.404,0.006l-0.399,0.146c0.005,0.144-0.125,0.287-0.125,0.287l0.005,0.145
	l0.005,0.144l0.143,0.212l0.274,0.142l0.271,0.14l0.272,0.14l0.136-0.001l0.14,0.069l0.136,0.068h0.134l0.137,0.069l0.136,0.07
	l0.138-0.002l0.137,0.07l-0.003-0.072l0.138,0.069l-0.004-0.144l-0.003-0.071c0,0-0.009-0.214-0.011-0.286l-0.007-0.215
	l-0.145-0.283l-0.139-0.143l-0.003-0.071l-0.137-0.07l-0.002-0.07C48.371,48.786,48.236,48.859,48.503,48.714L48.503,48.714z
	 M25.763,47.973c-0.286-0.291-0.564-0.433-0.851-0.723l-0.43-0.436l-0.433-0.582c-0.005-0.146-0.15-0.438-0.15-0.438l-0.006-0.147
	l-0.005-0.146l0.135-0.074l0.28,0.143l0.282,0.145l0.28,0.145l0.142,0.145l0.141,0.071l0.142,0.071l0.142,0.146l0.142,0.069
	l0.142,0.071l0.141,0.146l0.144,0.07L26,46.724l0.14,0.07l0.005,0.146l0.001,0.073c0,0,0.008,0.221,0.01,0.295l0.009,0.22
	l-0.131,0.148h-0.14l0.002,0.074l-0.141-0.071l0.005,0.074C25.618,47.756,25.472,47.536,25.763,47.973L25.763,47.973z
	 M29.153,46.627c-0.284-0.288-0.566-0.434-0.853-0.724l-0.425-0.435l-0.434-0.582c-0.006-0.146-0.153-0.438-0.153-0.438
	l-0.005-0.146l-0.006-0.146l0.138-0.074l0.278,0.143l0.28,0.145l0.28,0.142l0.143,0.146l0.144,0.07l0.139,0.07l0.145,0.146
	l0.139,0.073l0.141,0.07l0.143,0.145l0.141,0.071l0.003,0.075l0.141,0.07l0.006,0.146l0.002,0.073c0,0,0.008,0.221,0.011,0.293
	l0.008,0.221l-0.134,0.148h-0.14l0.002,0.073l-0.14-0.07l0.003,0.071C29.008,46.407,28.863,46.19,29.153,46.627L29.153,46.627z
	 M35.604,45.797c-0.457-0.466-0.907-0.695-1.362-1.161l-0.688-0.697l-0.696-0.933c-0.006-0.235-0.24-0.703-0.24-0.703l-0.011-0.234
	l-0.008-0.237l0.218-0.118l0.45,0.229l0.45,0.229l0.45,0.229l0.229,0.232l0.225,0.114l0.225,0.116l0.229,0.231l0.227,0.113
	l0.225,0.116l0.229,0.231l0.226,0.114l0.005,0.119l0.226,0.113l0.008,0.234l0.004,0.118c0,0,0.012,0.353,0.015,0.471l0.014,0.354
	l-0.215,0.236l-0.221,0.005l0.002,0.115l-0.225-0.114l0.005,0.117C35.372,45.446,35.141,45.097,35.604,45.797L35.604,45.797z
	 M31.287,51.541c-0.634-0.646-1.259-0.963-1.894-1.607l-0.952-0.968l-0.963-1.294c-0.01-0.325-0.336-0.972-0.336-0.972l-0.013-0.327
	l-0.01-0.327l0.302-0.165l0.622,0.318l0.625,0.316l0.622,0.318l0.317,0.322l0.313,0.158l0.313,0.16l0.316,0.321l0.313,0.161
	l0.313,0.158l0.317,0.32l0.312,0.16l0.005,0.163l0.313,0.16l0.012,0.325l0.005,0.164c0,0,0.016,0.486,0.021,0.649l0.018,0.49
	l-0.297,0.329l-0.307,0.004l0.005,0.162l-0.312-0.158l0.004,0.163C30.965,51.056,30.642,50.569,31.287,51.541L31.287,51.541z
	 M32.654,91.726c-0.127-0.017-0.22,0.068-0.347,0.053l-0.194-0.024l-0.222-0.126c-0.036-0.102-0.132-0.212-0.132-0.212l-0.034-0.102
	l-0.033-0.104l0.016-0.146l0.095-0.086l0.095-0.084l0.094-0.085l0.064,0.009l0.044-0.046l0.049-0.042l0.063,0.011l0.047-0.044
	l0.047-0.042l0.064,0.008l0.049-0.042l0.017,0.052l0.045-0.042l0.034,0.101l0.016,0.05c0,0,0.052,0.156,0.064,0.207l0.054,0.149
	l0.002,0.197l-0.032,0.092l0.02,0.053l-0.048,0.045l0.017,0.05C32.572,91.664,32.495,91.604,32.654,91.726L32.654,91.726z
	 M4.445,95.561c0.388,0.137,0.311,0.622,0.242,0.921c-0.028,0.119-0.096,0.272-0.176,0.31c-0.192,0.092-0.113-0.105-0.177-0.126
	c-0.064-0.024,0.02-0.092-0.061-0.055c-0.096,0.047-0.153-0.089-0.238-0.087c-0.121,0.006-0.344-0.104-0.204-0.248
	c0.092-0.095-0.056-0.065-0.045-0.111c0.024-0.104,0.144-0.24,0.155-0.299c0.024-0.104,0.003-0.16,0.107-0.171
	c0.125-0.005,0.043-0.032,0.066-0.139c0.01-0.043,0.087,0,0.119,0.01c0.045,0.02,0.099-0.125,0.148-0.044
	C4.461,95.644,4.359,95.561,4.445,95.561L4.445,95.561z M14.632,97.794c0.016,0.006,0.172,0.077,0.172,0.077l-0.026,0.042
	c-0.056,0.235-0.444,0.265-0.568,0.148c-0.047-0.029-0.026-0.121-0.058-0.147c-0.026-0.025,0.003-0.238,0.03-0.279
	C14.32,97.43,14.553,97.766,14.632,97.794L14.632,97.794z M11.424,96.354c0.015,0.097-0.195,0.092-0.222,0.21
	c-0.014,0.049-0.288-0.014-0.329-0.083c-0.023-0.035-0.018-0.088-0.053-0.146c-0.015-0.021-0.037-0.141-0.023-0.2
	c0.051-0.225,0.399-0.101,0.499-0.064C11.413,96.111,11.418,96.242,11.424,96.354L11.424,96.354z M10.589,96.432
	c0.038,0.056-0.022,0.132-0.064,0.136c-0.126,0.016-0.086,0.202-0.218,0.082l-0.062-0.146l0.005-0.016
	c0.028-0.141-0.089-0.328,0.102-0.261C10.547,96.296,10.515,96.361,10.589,96.432L10.589,96.432z M3.437,96.809
	c-0.011,0.092-0.011,0.107-0.011,0.11c0,0.002,0,0,0,0l0,0l-0.038,0.02c-0.019,0.011-0.022,0.024-0.043,0.035
	c-0.019,0.008-0.039,0.018-0.055,0.011l-0.05-0.017l-0.029-0.012l-0.016-0.021l0.008-0.027l0.008-0.031l-0.01-0.036l-0.011-0.037
	l0.008-0.027l-0.013-0.021L3.17,96.749l0.005-0.017l0.003-0.015l0.005-0.015l0.001-0.015l0.021-0.009l0.018,0.006l0.02-0.011
	l0.03,0.011l0.033,0.012l0.015,0.008c0.018,0.005,0.05,0.015,0.065,0.021c0.032,0.013-0.002,0.015,0.027,0.025l0.029,0.028
	L3.437,96.809l0.015,0.008l-0.003,0.011v0.005l0.005,0.002l0.01,0.003c0,0,0.019,0.031-0.01-0.003l-0.005-0.007
	C3.443,96.82,3.438,96.816,3.437,96.809L3.437,96.809z M12.829,97.248c0.083-0.189,0.251,0.162,0.345,0.223
	c0.048,0.028-0.155,0.231-0.165,0.256l-0.01,0.02l-0.021-0.015C12.889,97.939,12.76,97.407,12.829,97.248L12.829,97.248z
	 M12.667,97.93c0.119-0.026,0.184-0.088,0.324-0.069c0.059,0.007,0.187,0.063,0.228-0.03c0.074-0.077,0.102,0.079,0.094,0.125
	c-0.032,0.073,0.014,0.546-0.146,0.521c-0.01-0.003-0.21,0.053-0.173-0.035c0.075-0.531-0.185-0.108-0.275-0.353
	C12.697,98.034,12.664,97.981,12.667,97.93L12.667,97.93z M13.413,97.263c-0.017-0.052-0.125-0.188-0.094-0.258
	c0.023-0.057,0.006-0.1,0.061-0.138c0.052-0.036,0.045,0.029,0.052,0.034C13.741,97.101,13.408,97.176,13.413,97.263L13.413,97.263z
	 M7.26,99.517c-0.025-0.022-0.137-0.078-0.137-0.13c0-0.048-0.022-0.068,0-0.115c0.025-0.045,0.042,0.003,0.047,0.003
	C7.43,99.284,7.231,99.464,7.26,99.517L7.26,99.517z"/>
</svg>
