<?xml version="1.0" encoding="utf-8"?>
<!-- Generator: Adobe Illustrator 16.0.0, SVG Export Plug-In . SVG Version: 6.00 Build 0)  -->
<!DOCTYPE svg PUBLIC "-//W3C//DTD SVG 1.1//EN" "http://www.w3.org/Graphics/SVG/1.1/DTD/svg11.dtd">
<svg version="1.1" id="Layer_1" xmlns="http://www.w3.org/2000/svg" xmlns:xlink="http://www.w3.org/1999/xlink" x="0px" y="0px"
	 width="100px" height="100px" viewBox="0 0 100 100" enable-background="new 0 0 100 100" xml:space="preserve">
<path fill="#54919E" d="M17.879,52.607c1.405,2.487,3.811,3.91,6,4.969c0.107,0.119,0.24,0.215,0.37,0.307
	c0.092,0.064,0.26,0.186,0.294,0.248c0,0.082-0.115,0.248-0.206,0.379c-0.157,0.227-0.352,0.51-0.379,0.863
	c-0.055,0.703,0.417,1.291,0.762,1.721c0.037,0.047,0.073,0.092,0.106,0.135c0.285,0.365,0.643,0.734,1.021,1.125
	c0.448,0.461,0.911,0.939,1.23,1.396l0.382-0.266l-0.144,0.442c0.235,0.076,0.469,0.154,0.705,0.232
	c0.365,1.502,0.864,2.938,1.488,4.271c0.448,0.956,0.963,1.864,1.53,2.692c0.21,0.313,0.434,0.617,0.662,0.91
	c0.982,1.262,2.105,2.338,3.342,3.202c-0.049,0.195-0.097,0.386-0.141,0.578c-0.09,0.404-0.172,0.812-0.248,1.218l-0.11,0.606
	l-0.1,0.604c-0.131,0.807-0.263,1.604-0.41,2.393c-0.038,0.199-0.078,0.416-0.108,0.627c-0.031,0.212-0.056,0.423-0.076,0.634
	c-0.041,0.422-0.065,0.842-0.077,1.258c-0.047,1.668,0.078,3.285-0.048,4.856c0,0.011-0.001,0.017-0.002,0.021
	c-0.882-0.027-1.858,0.004-2.786,0.272c-1.492,0.432-2.894,1.758-3.409,3.229c-0.392,1.116-0.247,2.241,0.406,3.166
	c1.187,1.68,4.172,1.637,6.571,1.604c0.677-0.01,1.317-0.018,1.787,0.021l0.481,0.039l0.021-0.482
	c0.078-1.76,0.104-3.539,0.131-5.258c0.031-2.047,0.063-4.166,0.181-6.242c0.076-1.324,0.202-2.68,0.324-3.99
	c0.112-1.203,0.227-2.44,0.305-3.676c1.509,0.625,3.139,0.99,4.855,1.086c0.734,0.041,1.449,0.061,2.144,0.061
	c0.93,0,1.821-0.036,2.669-0.11c0.005,2.194,0.074,4.56,0.22,7.567c0.085,1.759-0.09,3.47-0.261,5.121
	c-0.098,0.959-0.2,1.951-0.251,2.947c-0.032,0.631,0.029,1.275,0.09,1.896c0.092,0.945,0.179,1.836-0.05,2.633l-0.204,0.711
	l0.73-0.123c0.902-0.154,1.962-0.016,3.083,0.131c0.794,0.104,1.601,0.209,2.378,0.209c0.92,0,1.801-0.148,2.563-0.623
	c1.229-0.766,1.835-1.896,1.708-3.184c-0.151-1.518-1.354-2.986-2.927-3.574c-0.147-0.057-0.31-0.123-0.48-0.191
	c-0.844-0.344-1.911-0.774-2.867-0.649c0.119-1.095-0.133-2.754-0.484-4.783c-0.14-0.812-0.271-1.576-0.271-1.887
	c0.003-1.187-0.115-2.304-0.294-3.617c-0.115-0.842-0.127-1.763-0.139-2.735c-0.001-0.066-0.002-0.136-0.003-0.205
	c0.097-0.019,0.192-0.039,0.29-0.06l-0.1-0.455v-0.002l0.101,0.457c1.615-0.353,3.031-0.881,4.208-1.574
	c0.916-0.538,1.705-1.186,2.344-1.924c0.468-0.537,0.869-1.137,1.191-1.785c0.346-0.692,0.643-1.471,0.883-2.307
	c0.226-0.785,0.404-1.636,0.535-2.527c0.229-1.567,0.309-3.271,0.236-5.061c-0.035-0.908-0.109-1.822-0.221-2.716
	c-0.094-0.768-0.213-1.522-0.355-2.246c-0.205-1.038-0.525-2.079-0.979-3.182c-0.27-0.654-0.586-1.328-0.963-2.057
	c-0.584-1.126-1.243-2.236-1.879-3.311l-0.187-0.312c-0.565-0.955-1.161-1.972-1.688-2.992c-0.303-0.586-0.561-1.131-0.789-1.666
	c-0.262-0.609-0.484-1.229-0.67-1.85c2.17-0.444,4.298-1.213,6.358-1.96c1.075-0.389,2.188-0.792,3.276-1.138
	c0.902-0.285,1.818-0.585,2.705-0.874c2.113-0.69,4.299-1.406,6.465-1.989c0.486-0.132,1.211-0.202,1.912-0.271
	c0.344-0.034,0.695-0.068,1.029-0.11c0.127,0.165,0.354,0.58,0.615,1.435c0.242,0.788,0.4,1.586,0.412,1.902l0.021,0.487
	l0.484-0.043c0.594-0.052,1.062-0.409,1.475-0.722c0.188-0.144,0.365-0.279,0.539-0.375c0.359-0.198,0.748-0.347,1.164-0.503
	c0.232-0.089,0.477-0.181,0.713-0.282l0.396-0.172l-0.142-0.408c-0.157-0.456-0.389-0.905-0.609-1.338
	c-0.251-0.491-0.51-0.994-0.652-1.493c0.256-0.073,0.58-0.219,1.022-0.431c0.187-0.087,0.36-0.17,0.455-0.205
	c0.255-0.094,0.522-0.21,0.808-0.334c0.646-0.282,1.381-0.601,1.924-0.608l0.938-0.014l-0.576-0.739
	c-0.221-0.282-0.476-0.572-0.746-0.878c-0.615-0.698-1.307-1.482-1.57-2.209c0.205-0.258,0.412-0.501,0.627-0.723l0.304-0.315
	l-0.297-0.323c-0.165-0.18-0.287-0.384-0.415-0.601c-0.164-0.273-0.35-0.584-0.643-0.865c-0.258-0.248-0.563-0.5-0.858-0.744
	c-0.125-0.103-0.247-0.205-0.362-0.303l-0.466-0.396l-0.259,0.554c-0.502,1.074-1.325,2.124-2.12,3.139c0,0,0,0-0.001,0.001
	c0.025-0.246,0.05-0.494,0.074-0.739c0.106-1.071,0.24-2.404,0.424-2.715l0.302-0.515l-0.573-0.167
	c-1.006-0.296-2.119-0.61-3.171-0.904l-0.552-0.154l-0.039,0.572c-0.055,0.818-0.014,1.637,0.025,2.428
	c0.045,0.87,0.091,1.77,0.004,2.647c-0.021,0.206-0.031,0.423-0.043,0.634c-0.035,0.741-0.072,1.507-0.523,1.94
	c-0.803,0.771-2.518,1.417-3.65,1.844l-0.121,0.046c-1.049,0.396-2.116,0.815-3.146,1.22c-1.882,0.739-3.828,1.503-5.759,2.165
	c-2.763,0.946-5.188,1.605-7.8,2.114c-0.047-0.673-0.057-1.368-0.025-2.071c0.03-0.694,0.1-1.419,0.206-2.157
	c0.071-0.496,0.16-1.011,0.267-1.535l0.041-0.019c2.435-1.124,4.994-2.355,7.196-3.948c2.611-1.89,4.294-3.981,5.146-6.394
	c0.336-0.952,0.52-1.909,0.541-2.843c0.021-0.791-0.071-1.579-0.274-2.338c-1.034-3.889-4.591-6.35-6.903-7.579
	c0.084-0.138,0.17-0.279,0.256-0.423c0.836-1.384,1.772-2.939,2.215-4.152c0.738-0.122,1.303-0.765,1.303-1.537
	c0-0.859-0.699-1.559-1.559-1.559c-0.858,0-1.558,0.699-1.558,1.559c0,0.605,0.354,1.139,0.869,1.396
	c-0.435,1.101-1.296,2.532-2.069,3.812c-0.1,0.166-0.195,0.327-0.291,0.485c-6.19-2.913-13.431-1.95-18.45-0.613
	c-1.199,0.319-2.252,0.662-3.204,1.044c-0.42-0.672-0.897-1.309-1.362-1.928c-0.195-0.259-0.378-0.504-0.552-0.743
	c-0.159-0.22-0.339-0.475-0.53-0.745c-0.554-0.788-1.229-1.746-1.88-2.512c0.126-0.238,0.195-0.504,0.195-0.778
	c0-0.913-0.743-1.656-1.656-1.656c-0.912,0-1.655,0.743-1.655,1.656s0.743,1.655,1.655,1.655c0.284,0,0.561-0.074,0.805-0.209
	c0.608,0.725,1.247,1.632,1.775,2.381c0.192,0.273,0.374,0.531,0.537,0.755c0.178,0.246,0.363,0.494,0.561,0.756
	c0.424,0.564,0.857,1.144,1.24,1.741c-2.885,1.321-4.783,3.08-5.792,5.366c-0.27,0.612-0.473,1.259-0.603,1.921
	c-0.447,2.277-0.055,4.747,1.133,7.145c0.811,1.637,1.957,3.147,3.316,4.366c1.884,1.688,4.125,2.84,6.84,3.516
	c-0.047,0.193-0.096,0.382-0.144,0.566c-0.129,0.483-0.272,0.966-0.425,1.432l0.442,0.145l0,0l-0.444-0.144
	c-0.24,0.74-0.52,1.488-0.832,2.223c-0.074,0.174-0.149,0.347-0.224,0.516c-4.969,0.179-9.343,1.264-13.738,3.408
	c-1.998,0.974-5.506,3.112-6.557,6.494C16.507,48.71,16.773,50.648,17.879,52.607z M29.921,2.806
	c-0.161-0.15-0.313-0.274-0.458-0.375l-0.531,0.766c0.118,0.082,0.25,0.192,0.394,0.329c-0.042,0.008-0.084,0.012-0.128,0.012
	c-0.398,0-0.723-0.325-0.723-0.723c0-0.399,0.325-0.724,0.723-0.724C29.594,2.091,29.917,2.411,29.921,2.806z M60.311,3.398
	c0,0.132-0.041,0.255-0.111,0.356c0.002-0.19-0.021-0.361-0.074-0.512l-0.879,0.31c0.014,0.041,0.033,0.132,0.016,0.304
	c-0.123-0.115-0.201-0.279-0.201-0.459c0-0.345,0.279-0.626,0.625-0.626C60.027,2.772,60.311,3.053,60.311,3.398z M21.983,49.12
	c-0.381-1.909,0.792-3.511,1.843-4.52c1.454-1.394,3.353-2.327,4.644-2.735c1.845-0.583,3.87-0.719,6.494-0.43
	c-0.258,0.421-0.506,0.817-0.709,1.144l0.395,0.247l0,0l0,0l-0.395-0.248c-0.24,0.382-0.482,0.765-0.725,1.149
	c-0.224,0.354-0.448,0.708-0.671,1.063c-0.487,0.774-1.123,1.797-1.729,2.845c-0.369,0.638-0.692,1.224-0.985,1.788
	c-0.355,0.678-0.667,1.324-0.947,1.954c-0.019-0.01-0.038-0.021-0.056-0.029c-0.722-0.352-1.784,0.314-3.208,1.293
	c-0.194,0.135-0.382,0.264-0.535,0.363C23.938,51.979,22.321,50.813,21.983,49.12z M36.137,41.3
	c0.041-0.068,0.083-0.136,0.125-0.207c0.378-0.633,0.73-1.262,1.05-1.871c2.369,0.095,4.458,0.311,6.379,0.66
	c0.76,0.138,1.583,0.244,2.455,0.356c1.559,0.2,3.169,0.407,4.592,0.821c0.039,0.175,0.082,0.35,0.127,0.524
	c0.218,0.825,0.502,1.652,0.849,2.459c0.124,0.292,0.257,0.584,0.399,0.884c-0.803-0.132-1.616-0.231-2.412-0.327
	c-0.925-0.111-1.798-0.216-2.586-0.366c-1.904-0.362-3.849-0.623-5.73-0.875c-0.943-0.125-1.917-0.256-2.864-0.396
	c-0.356-0.053-0.761-0.125-1.188-0.201c-0.592-0.104-1.241-0.22-1.899-0.311C35.655,42.093,35.897,41.699,36.137,41.3z
	 M38.708,36.202c0.178-0.45,0.346-0.902,0.499-1.353c1.575,0.15,3.14,0.38,4.659,0.687c0.906,0.183,1.857,0.327,2.778,0.467
	c1.217,0.186,2.472,0.377,3.665,0.662c-0.017,0.684,0.002,1.359,0.058,2.014C46.721,37.601,42.812,36.592,38.708,36.202z
	 M39.908,32.457c0.003-0.015,0.007-0.03,0.01-0.044c0.102,0.021,0.204,0.041,0.306,0.06C40.118,32.467,40.013,32.462,39.908,32.457z
	 M50.757,32.717c-0.053,0.274-0.101,0.548-0.146,0.816c-1.238-0.273-2.504-0.467-3.781-0.61c1.066-0.024,2.103-0.081,3.087-0.147
	C50.181,32.759,50.459,32.739,50.757,32.717z M28.607,17.509c1.461-1.339,2.816-2.245,4.255-2.841
	c6.117-2.537,13.821-2.306,17.869-1.942c5.451,0.49,9.517,1.999,12.776,4.743c0.146,0.59,0.218,1.196,0.212,1.806
	c-3.076,4.795-6.604,7.364-11.427,8.32c-5.525,1.096-12.118-0.123-16.596-1.133c-2.384-0.538-4.483-1.697-6.065-2.67
	C28.605,21.67,28.252,19.504,28.607,17.509z M57.941,38.988c-2.045,0.741-4.156,1.506-6.279,1.936
	c-0.025-0.11-0.051-0.22-0.074-0.33c-0.089-0.414-0.16-0.841-0.215-1.27c2.684-0.52,5.172-1.193,8.006-2.164
	c1.951-0.668,3.907-1.437,5.798-2.18c1.028-0.404,2.093-0.822,3.138-1.215l0.119-0.046c1.205-0.454,3.025-1.141,3.967-2.044
	c0.719-0.69,0.768-1.688,0.812-2.567c0.011-0.208,0.021-0.405,0.037-0.587c0.095-0.946,0.047-1.881,0.001-2.786
	c-0.029-0.598-0.061-1.171-0.05-1.741c0.71,0.199,1.435,0.404,2.12,0.604c-0.139,0.559-0.229,1.402-0.344,2.548
	c-0.08,0.791-0.162,1.609-0.272,2.271c-0.163,0.967-0.317,1.146-0.336,1.163c0.019-0.016,0.075-0.048,0.149-0.044l-0.059,0.93
	c0.782,0.048,1.001-1.047,1.104-1.574c0.037-0.188,0.072-0.391,0.104-0.603l0.205,0.154c0.218-0.291,0.447-0.583,0.689-0.893
	c0.701-0.894,1.424-1.813,1.959-2.786c0.258,0.213,0.519,0.431,0.729,0.633c0.202,0.194,0.34,0.425,0.484,0.67
	c0.082,0.137,0.166,0.276,0.263,0.415c-0.429,0.487-0.834,1.039-1.229,1.576c-0.631,0.858-1.283,1.746-1.996,2.313l0.58,0.729
	c0.812-0.644,1.5-1.582,2.168-2.489c0.053-0.073,0.107-0.146,0.16-0.219c0.381,0.705,0.973,1.375,1.512,1.987
	c0.066,0.076,0.134,0.152,0.199,0.226c-0.479,0.136-0.963,0.347-1.41,0.542c-0.271,0.118-0.527,0.229-0.756,0.313
	c-0.136,0.05-0.318,0.138-0.533,0.238c-0.262,0.124-0.806,0.381-0.963,0.395c0.103-0.008,0.314,0.099,0.347,0.325l-0.923,0.129
	c0.009,0.06,0.025,0.116,0.054,0.168l-0.146,0.022c0.121,0.769,0.48,1.472,0.828,2.15c0.143,0.278,0.279,0.545,0.396,0.808
	c-0.083,0.032-0.168,0.064-0.254,0.097c-0.428,0.161-0.867,0.329-1.285,0.56c-0.23,0.128-0.444,0.291-0.65,0.448
	c-0.191,0.146-0.379,0.287-0.561,0.388c-0.082-0.46-0.223-1.038-0.387-1.57c-0.183-0.589-0.354-1.004-0.51-1.298
	c0.393-0.09,0.688-0.197,0.916-0.334l-0.478-0.801c-0.228,0.135-0.625,0.243-1.218,0.331c-0.063-0.018-0.127-0.028-0.19-0.028
	l-0.001,0.055c-0.363,0.048-0.756,0.086-1.139,0.124c-0.772,0.075-1.502,0.146-2.066,0.298c-2.188,0.59-4.386,1.309-6.51,2.002
	c-0.887,0.289-1.801,0.588-2.697,0.872C60.146,38.19,59.025,38.596,57.941,38.988z M55.797,51.475
	c-2.044-0.461-4.12-0.757-6.137-1.047c-0.501-0.072-1.002-0.143-1.5-0.217c-1.915-0.285-3.871-0.647-5.762-0.998
	c-1.9-0.353-3.865-0.718-5.802-1.005c-0.644-0.095-1.285-0.208-1.964-0.327c-0.766-0.134-1.552-0.271-2.343-0.383
	c0.432-0.728,0.862-1.422,1.225-2.001c1.911-0.062,3.62-0.014,5.216,0.146c5.174,0.52,10.566,1.666,15.607,3.317l0.095,0.161
	C54.889,49.89,55.355,50.678,55.797,51.475z M58.143,57.377c0.1,0.502,0.186,1.021,0.262,1.551c-0.527-0.084-1.063-0.16-1.584-0.229
	c-0.875-0.121-1.7-0.234-2.344-0.388c-0.502-0.121-1.004-0.242-1.508-0.365c-1.688-0.409-3.43-0.834-5.142-1.155
	c-3.736-0.711-7.832-1.363-12.888-2.062c-0.836-0.112-1.732-0.141-2.681-0.168c-1.078-0.033-2.187-0.067-3.18-0.242
	c0.188-0.604,0.412-1.227,0.668-1.854c0.307-0.75,0.66-1.514,1.075-2.324c1.113,0.146,2.237,0.393,3.327,0.632
	c0.525,0.113,1.068,0.234,1.595,0.338c2.035,0.402,4.111,0.676,6.119,0.938c1.8,0.236,3.662,0.479,5.475,0.816
	c0.869,0.161,1.753,0.338,2.608,0.512c1.42,0.283,2.887,0.578,4.341,0.813c0.595,0.096,1.2,0.178,1.845,0.26
	c0.389,0.053,0.785,0.105,1.182,0.16C57.689,55.566,57.963,56.473,58.143,57.377z M58.531,66.629
	c-1.635-0.201-3.291-0.35-4.896-0.496c-2.473-0.223-5.028-0.453-7.486-0.867c-3.961-0.666-7.62-1.719-11.991-3.022
	c-0.775-0.229-1.621-0.429-2.438-0.619c-1.131-0.267-2.296-0.539-3.351-0.914c-0.118-1.162-0.096-2.354,0.067-3.547
	c0.021-0.152,0.045-0.306,0.07-0.457c0.921,0.262,1.866,0.603,2.785,0.933c0.942,0.338,1.833,0.657,2.646,0.879
	c4.871,1.323,9.803,2.09,13.984,2.664c0.692,0.094,1.392,0.186,2.067,0.272c1.721,0.226,3.5,0.455,5.221,0.762
	c0.611,0.109,1.292,0.166,2.014,0.226c0.491,0.041,0.995,0.084,1.489,0.143C58.75,64.004,58.689,65.361,58.531,66.629z
	 M50.119,76.402c-0.168-0.027-0.352-0.06-0.568-0.101l-0.237-0.043c-0.449-0.082-0.874-0.161-1.259-0.207h-0.009
	c-0.033-0.004-0.066-0.008-0.1-0.014h-0.009c-1.441-0.166-2.748-0.336-4.152-0.74c-2.099-0.604-4.14-1.248-6.239-1.967
	c-0.719-0.248-1.429-0.498-2.113-0.746c0.042,0.013,0.083,0.022,0.126,0.033c4.259,1.055,8.747,1.903,13.721,2.592
	c1.078,0.147,2.172,0.289,3.309,0.426C51.839,75.947,51.014,76.203,50.119,76.402z M48.04,93.432
	c0.05-0.971,0.151-1.951,0.248-2.897c0.173-1.688,0.353-3.435,0.264-5.263c-0.147-3.039-0.215-5.412-0.219-7.619
	c0.229-0.028,0.454-0.061,0.68-0.096c0.001,0.017,0.001,0.035,0.001,0.051c0.012,0.959,0.023,1.951,0.146,2.853
	c0.174,1.274,0.288,2.354,0.286,3.488c-0.001,0.393,0.126,1.122,0.285,2.047c0.172,1,0.388,2.248,0.468,3.274
	c0.118,1.543-0.132,1.806-0.161,1.828l0,0l0.604,0.711l0,0c0.711-0.606,1.985-0.09,3.008,0.324c0.179,0.072,0.346,0.141,0.504,0.201
	c1.252,0.467,2.211,1.617,2.326,2.793c0.063,0.648-0.104,1.572-1.271,2.299c-1.126,0.699-2.756,0.488-4.331,0.281
	c-0.904-0.115-1.834-0.238-2.699-0.195c0.099-0.766,0.022-1.553-0.053-2.32C48.067,94.576,48.01,93.994,48.04,93.432z M34.991,82.01
	c0.02-0.195,0.044-0.387,0.073-0.58s0.062-0.377,0.1-0.58c0.157-0.813,0.271-1.627,0.394-2.432c0.127-0.869,0.258-1.73,0.422-2.576
	c0.276,0.162,0.559,0.314,0.844,0.457c-0.077,1.338-0.203,2.689-0.324,4.002c-0.123,1.32-0.25,2.684-0.327,4.025
	c-0.12,2.098-0.151,4.225-0.183,6.281c-0.023,1.561-0.048,3.168-0.11,4.762c-0.418-0.012-0.895-0.004-1.391,0.002
	c-2.064,0.029-4.893,0.068-5.797-1.211c-0.607-0.859-0.492-1.734-0.287-2.318c0.415-1.184,1.588-2.295,2.789-2.643
	c0.784-0.227,1.635-0.26,2.418-0.238c-0.012,0.068-0.022,0.139-0.036,0.207c-0.071,0.375-0.177,0.738-0.302,1.084
	c-0.128,0.346-0.282,0.674-0.492,0.979c-0.207,0.312-0.477,0.586-0.814,0.857c0.434,0.004,0.872-0.164,1.238-0.436
	c0.366-0.272,0.655-0.646,0.862-1.041c0.211-0.398,0.338-0.822,0.439-1.242c0.05-0.211,0.091-0.42,0.126-0.631
	c0.035-0.211,0.064-0.42,0.089-0.629c0.097-0.836,0.127-1.67,0.139-2.49l0.016-1.223c0.004-0.406,0.011-0.808,0.029-1.203
	C34.926,82.795,34.949,82.4,34.991,82.01z M29.071,64.512c0.015,0.004,0.03,0.01,0.044,0.014c1.624,0.545,3.302,1.107,4.992,1.562
	c4.968,1.326,9.156,2.188,12.8,2.642c2.027,0.252,4.104,0.428,6.114,0.6c0.313,0.025,0.629,0.051,0.94,0.08
	c0.606,0.051,1.315,0.178,2.063,0.313c0.582,0.104,1.181,0.211,1.774,0.291c-0.192,0.582-0.411,1.127-0.659,1.625
	c-0.256,0.51-0.564,0.986-0.922,1.422c-2.626-0.063-4.979-0.188-7.181-0.391c-4.92-0.441-9.03-1.23-12.566-2.41
	c-2.294-0.766-4.499-1.666-6.197-2.383C29.792,66.814,29.388,65.686,29.071,64.512z M24.886,59.445
	c0.007-0.104,0.114-0.258,0.217-0.404c0.18-0.262,0.403-0.586,0.367-1c-0.04-0.461-0.411-0.725-0.682-0.918
	c-0.032-0.023-0.07-0.051-0.106-0.076l0.045-0.1c-0.038-0.018-0.075-0.035-0.113-0.053c0.089-0.525,0.601-1.759,0.861-2.386
	c0.098-0.235,0.186-0.444,0.252-0.616c0.194-0.113,0.438-0.281,0.732-0.484c0.442-0.303,0.944-0.648,1.408-0.902
	c0.521-0.285,0.754-0.32,0.836-0.32c0.003,0.019,0.007,0.041,0.009,0.076l0.112-0.008c-0.313,0.779-0.578,1.549-0.788,2.293
	c-0.14,0.496-0.259,0.994-0.357,1.482c-0.065,0.334-0.122,0.67-0.169,1.006c-0.177,1.289-0.198,2.58-0.064,3.84
	c0.008,0.076,0.017,0.152,0.025,0.23c0.078,0.672,0.183,1.342,0.312,1.996c-0.012-0.004-0.026-0.011-0.039-0.015
	c-0.35-0.473-0.797-0.937-1.231-1.383c-0.361-0.373-0.701-0.726-0.956-1.049c-0.037-0.048-0.074-0.097-0.113-0.146
	C25.185,60.186,24.86,59.779,24.886,59.445z M17.978,47.123c0.947-3.046,4.213-5.024,6.076-5.933
	c4.132-2.015,8.246-3.069,12.885-3.294c-0.104,0.213-0.21,0.425-0.318,0.635c-0.342,0.666-0.711,1.329-1.126,2.028
	c-1.926-0.241-4.667-0.416-7.305,0.417c-1.803,0.57-3.675,1.673-5.008,2.951c-1.749,1.678-2.479,3.536-2.112,5.375
	c0.404,2.022,2.211,3.351,3.727,4.417c-0.052,0.127-0.113,0.273-0.179,0.432c-0.388,0.935-0.711,1.738-0.858,2.326
	c-1.908-0.965-3.896-2.252-5.068-4.328C17.716,50.424,17.477,48.732,17.978,47.123z M44.519,22.258
	c-0.036,0.075-0.079,0.153-0.15,0.248c-0.114-0.033-0.195-0.084-0.265-0.141c-0.068-0.057-0.123-0.12-0.165-0.188
	c-0.083-0.134-0.113-0.285-0.113-0.433c-0.001-0.149,0.025-0.298,0.088-0.441c0.061-0.143,0.152-0.281,0.309-0.4
	c0.128,0.148,0.205,0.281,0.262,0.409c0.058,0.127,0.093,0.249,0.114,0.369c0.022,0.121,0.029,0.24-0.004,0.37
	C44.579,22.116,44.553,22.185,44.519,22.258z M43.658,24.435c0.705,0.051,1.413,0.119,2.12,0.246
	c0.354,0.062,0.707,0.137,1.058,0.233c0.174,0.049,0.349,0.1,0.522,0.161l0.259,0.094c0.084,0.036,0.169,0.068,0.254,0.109
	c-0.048,0.017-0.095,0.032-0.142,0.045l-0.139,0.042c-0.093,0.025-0.186,0.05-0.276,0.071c-0.091,0.023-0.182,0.041-0.272,0.062
	L46.77,25.55c-0.36,0.066-0.717,0.111-1.072,0.141c-0.178,0.019-0.356,0.024-0.534,0.035c-0.089,0.004-0.178,0.004-0.267,0.006
	c-0.089,0.001-0.179,0.006-0.268,0.003c-0.356-0.003-0.714-0.016-1.071-0.054c-0.716-0.066-1.437-0.191-2.144-0.409
	c-0.353-0.111-0.702-0.244-1.04-0.408c-0.337-0.167-0.666-0.356-0.966-0.608c0.733,0.008,1.435,0.039,2.14,0.064
	C42.252,24.352,42.953,24.384,43.658,24.435z M50.273,17.828c-0.162,0.292-0.2,0.655-0.103,0.993
	c0.157,0.548,0.633,0.931,1.155,0.931c0.1,0,0.198-0.014,0.294-0.042c0.607-0.176,0.947-0.859,0.756-1.522
	c-0.157-0.548-0.632-0.93-1.156-0.93c-0.1,0-0.197,0.014-0.293,0.042C50.65,17.378,50.417,17.566,50.273,17.828z M51.441,18.356
	c-0.031,0.04-0.086,0.066-0.146,0.066c-0.098,0-0.179-0.07-0.179-0.157c0-0.011,0.002-0.022,0.004-0.033
	c0.017-0.016,0.037-0.031,0.062-0.038c0.012-0.004,0.024-0.005,0.036-0.005C51.293,18.189,51.384,18.251,51.441,18.356z
	 M35.356,18.625c0,0.632,0.488,1.146,1.087,1.146c0.599,0,1.087-0.514,1.087-1.146s-0.488-1.147-1.087-1.147
	C35.844,17.478,35.356,17.992,35.356,18.625z M36.308,18.574c0-0.084,0.079-0.154,0.176-0.156c0.064,0.026,0.115,0.111,0.115,0.207
	c0,0.028-0.004,0.055-0.012,0.079c-0.029,0.017-0.062,0.027-0.1,0.027C36.389,18.73,36.308,18.661,36.308,18.574z"/>
</svg>
