<?xml version="1.0" encoding="utf-8"?>
<!-- Generator: Adobe Illustrator 15.1.0, SVG Export Plug-In . SVG Version: 6.00 Build 0)  -->
<!DOCTYPE svg PUBLIC "-//W3C//DTD SVG 1.1//EN" "http://www.w3.org/Graphics/SVG/1.1/DTD/svg11.dtd">
<svg version="1.1" id="Layer_1" xmlns="http://www.w3.org/2000/svg" xmlns:xlink="http://www.w3.org/1999/xlink" x="0px" y="0px"
	 width="100px" height="100px" viewBox="0 0 100 100" enable-background="new 0 0 100 100" xml:space="preserve">
<g>
	<path d="M66.675,15.759c-0.051,0.101-0.104,0.205-0.154,0.305c-0.05,0-0.103,0-0.154,0c0.104,0.052,0.205,0.104,0.309,0.153
		C66.675,16.064,66.675,15.912,66.675,15.759z"/>
	<path d="M67.826,15.912c-0.025,0.228-0.052,0.46-0.077,0.688C67.978,16.384,68.037,16.073,67.826,15.912z"/>
	<path d="M69.436,15.298c-0.052,0-0.101,0-0.152,0c0,0.049,0,0.101,0,0.152C69.428,15.341,69.329,15.445,69.436,15.298z"/>
	<path d="M74.729,17.599c-0.05,0-0.101,0-0.153,0C74.713,17.668,74.596,17.674,74.729,17.599z"/>
	<path d="M66.292,16.139c-0.181,0.36-0.358,0.717-0.539,1.077c0.079,0.023,0.154,0.052,0.23,0.075c0,0.078,0,0.155,0,0.23
		C66.086,17.063,66.188,16.6,66.292,16.139z"/>
	<path d="M97.209,89.18c-3.87-2.896-9.263-4.676-14.499-6.136c-0.105-0.659-0.655-2.997-1.228-3.683
		c0.271-1.203,0.42-2.638,0.689-3.761c-0.151-0.121-0.104-0.104-0.383-0.152c0.025-1.791,0.052-3.582,0.079-5.37
		c0.304-1.843,0.611-3.686,0.918-5.525c0.586-3.573-0.814-8.658-1.457-11.509c-0.675-2.991-2.812-8.387-2.147-12.274
		c0.649-3.815,1.761-7.311,3.069-10.588c0.562-1.356,1.126-2.712,1.686-4.065c0.509-1.877-0.124-4.817,0.309-7.369
		c0.398-2.361,0.903-4.376,1.306-6.444c1.071-0.423,2.733-0.884,3.451-1.688c0.325-0.366,0.32-0.743,0.767-0.999
		c1.014-0.579,2.009-0.446,2.763-1.227c-0.027-0.153-0.053-0.305-0.079-0.458c-0.021-0.052-0.052-0.104-0.074-0.155
		c-1.736,0.043-2.371,1.042-3.913,0.847c-0.307-1.394,1.257-4.576,0-5.756c-0.054-0.078-0.104-0.153-0.154-0.23
		c-0.052,0.101-0.104,0.204-0.152,0.305c-0.307-0.127-0.615-0.256-0.923-0.383c-0.196,1.1-0.096,2.583-0.228,3.683
		c-0.029,0-0.054,0-0.079,0c-0.395-0.354-0.521-1.374-0.534-2.07c-0.052-0.052-0.104-0.104-0.156-0.153c-0.128,0-0.255,0-0.384,0
		c-0.251,0.933-0.213,3.156-0.229,4.141c-0.55-0.175-0.783-0.815-0.921-1.379c-0.152-0.052-0.304-0.104-0.459-0.153
		c-0.218,0.85,0.299,1.987,0.459,2.687c-0.716,0.867-1.433,1.736-2.148,2.606c-0.255,0.947-0.511,1.892-0.767,2.839
		c-0.411,1.238-1.115,2.709-1.61,3.988c-0.283,0.948-0.564,1.895-0.844,2.842c-0.027,0.075-0.053,0.152-0.079,0.23
		c-0.204-0.026-0.41-0.052-0.611-0.078c0.003-0.178,0.052-0.412,0.23-0.613c-0.104-0.052-0.205-0.104-0.309-0.152
		c0.118-0.259,0.134-0.256,0.23-0.691c-0.152-0.052-0.308-0.104-0.459-0.155c-0.121,0.305-0.248,0.536-0.078,0.691
		c-0.146,0.288-0.219,0.279-0.613,0.308c0.026-0.078,0.051-0.152,0.076-0.233c-0.05-0.023-0.102-0.049-0.152-0.075
		c-0.051,0.127-0.105,0.256-0.155,0.383c-0.049,0.026-0.101,0.052-0.152,0.078c-0.173-0.141-0.395-0.233-0.614-0.461
		c-0.296-0.48,1.115-0.697,1.689-0.691c-0.206-0.101-0.41-0.205-0.615-0.305c0.054-0.397,0.121-1.022,0.307-1.229
		c-0.076-0.075-0.151-0.153-0.23-0.23c-0.149,0.346-0.159,0.415,0,0.616c-0.566,0.352-1.243-0.334-1.993-0.539
		c0.101,0.13,0.204,0.256,0.307,0.383c0,0.104,0,0.204,0,0.308c-2.598,0.887-1.345,1.791-2.533,2.914c0,0.052,0,0.104,0,0.156
		c-0.226-0.17-0.181-0.225-0.537-0.308c0.105-0.386,0.228-0.458,0.46-0.691c-0.154-0.499-0.24-1.002-0.46-1.379
		c0.396-0.579,0.605-0.711,1.381-0.539c-0.05-0.51-0.101-1.022-0.152-1.532c-0.34,0.043-0.144-0.15-0.307,0.153
		c-0.154,0-0.307,0-0.462,0c0.077-0.104,0.155-0.205,0.23-0.308c-0.127,0-0.257,0-0.382,0c0.343-0.4,0.534-0.847,0.613-1.535
		c-0.026,0-0.052,0-0.079,0c-0.075,0.282-0.152,0.562-0.228,0.844c-0.155,0-0.307,0-0.461,0c-0.344,0.043-0.376-0.282-0.614-0.536
		c0.128-0.204,0.258-0.409,0.384-0.613c-0.025-0.052-0.052-0.104-0.077-0.155c-1.142,0.006-1.555,0.76-1.84,1.612
		c0.102,0.256,0.203,0.51,0.307,0.766c-0.419,0.55-1.035,0.564-1.305,1.304c-0.052,0.026-0.103,0.052-0.154,0.078
		c-0.027,0-0.049,0-0.076,0c0.136-0.567,0.229-0.452,0.076-0.921c0.24-0.178,0.114-0.126,0.385-0.155
		c-0.082-0.296-0.026-0.23-0.23-0.38c-0.203-0.19-0.024-0.032-0.23,0.149c-0.025,0-0.052,0-0.077,0c0.144-0.486,0.538-0.766,0-1.149
		c0.107-0.291-0.002-0.158,0.231-0.308c0.101-0.049,0.203-0.101,0.307-0.152c0,0.152,0,0.308,0,0.46
		c0.076-0.204,0.152-0.409,0.229-0.613c-0.152-0.23-0.307-0.458-0.459-0.691c-0.154-0.049-0.308-0.104-0.461-0.153
		c-0.407,0.357-0.805,0.562-0.997,1.149c-0.077,0-0.153,0-0.232,0c0.161-0.458,0.145-0.668,0.692-0.763
		c0.024-0.107,0.051-0.208,0.078-0.308c-0.549,0.069-0.38,0.06-0.845-0.156c-0.117,0.208-0.247,1.333-0.078,1.457
		c-0.131,0.167-0.319,0.245-0.766,0.308c-0.099-0.23,0.003-0.092-0.153-0.23c-0.276-0.173-0.545,0.245-0.614,0.613
		c-0.309,0.115-0.163,0.046-0.615,0c0.103,0.59,0.206,1.178,0.307,1.765c-0.319,0.167-0.158,0.3-0.383,0
		c-0.102,0.104-0.204,0.208-0.307,0.308c-0.025,0-0.05,0-0.076,0c0.201-0.653,0.604-1.569-0.076-2.226
		c0.024,0.152,0.051,0.308,0.076,0.46c-0.154,0.026-0.307,0.052-0.459,0.078c-0.294-0.708-0.342-0.867,0-1.46
		c0.201,0,0.407,0,0.611,0c0-0.026,0-0.049,0-0.075c0-0.026,0-0.052,0-0.078c-0.566-0.006-0.756,0.078-0.996,0.383
		c-0.189,1.128,0.385,2.119,0.076,3.147c-0.408,0.38-0.817,0.766-1.228,1.152c-0.073,0.671,0.411,0.907,0.307,1.532
		c0.189,0.996-1.06,0.487-1.381,1.152c-0.076,0.101-0.154,0.207-0.229,0.308c0.074-0.026,0.152-0.055,0.229-0.078
		c-0.076,0.152-0.154,0.308-0.229,0.46c0.101-0.075,0.202-0.153,0.307-0.23c-0.103,0.412-0.258,0.61-0.615,0.766
		c-0.13,0.129-0.256,0.256-0.383,0.383c0.203-0.409,0.409-0.818,0.613-1.227c-0.747,0.432-0.695,1.428-1.382,1.843
		c-0.281,0.023-0.562,0.052-0.844,0.075c-1.688,1.054-3.315,2.816-4.144,4.529c0.161,0.253,0.198,0.904,0,1.302
		c-0.255,0.409-0.511,0.821-0.766,1.229c-0.795,2.525,1.258,9.911,2.606,10.74c0.743,0.458,2.731,0.172,3.684,0.308
		c0.256,0.562,0.512,1.125,0.767,1.69c-0.422,0.32-1.914,1.823-2.302,1.915c-0.357-0.052-0.716-0.104-1.072-0.153
		c-0.794,0.383-1.587,0.766-2.379,1.149c-1.023,0.029-2.047,0.055-3.07,0.081c-1.809,0.349-3.301,0.944-5.216,1.224
		c-1.1-0.075-2.2-0.152-3.3-0.227c-1.252,0.023-2.506,0.052-3.758,0.075c-0.998-0.179-1.995-0.357-2.993-0.539
		c-2.595-0.423-5.042,0.32-7.059,0.691c-1.765,0.133-3.53,0.256-5.295,0.386c-1.611,0.279-3.22,0.562-4.834,0.84
		c-1.792,0.475-3.763,1.995-6.213,1.537c-1.422-0.268-2.474-0.872-3.606-1.46c-0.34,0.306-0.202,0.427-0.232,0.847
		c-0.024,0.049-0.049,0.101-0.075,0.152c-0.228-0.077-0.459-0.152-0.691-0.229c-0.201,0.192-0.211,0.204-0.23,0.613
		c1.955,1.457,5.168,1.966,8.288,1.917c0.179,0.205,0.358,0.409,0.536,0.613c-0.621,0.844-1.641,1.187-2.148,2.151
		c0,0.124,0,0.253,0,0.38c1.866,1.284,5.061-4.478,8.21-3.913c2.413,0.44,5.539,1.305,8.668,0.925
		c2.098-0.029,4.194-0.053,6.293-0.078c2.823,0.853,5.941,0.898,8.9,1.382c2.779,0.452,5.977-0.688,8.438,0.228
		c1.329,0.498,3.127,1.889,4.144,2.839c0.624,0.588,0.649,1.572,1.152,2.304c0.286,0.418,0.805,0.591,0.997,1.152
		c0.267,0.794,0.709,2.456,0.996,2.761c-0.104,0.176-0.204,0.357-0.308,0.539c0.158,0.164,0.104,0.149,0.383,0.227
		c-0.049,0.156-0.101,0.306-0.152,0.461c0.036,0.564,0.104,0.43,0.384,0.691c-0.083,0.44-0.443,1.097-0.923,1.151
		c0.165,1.377-3.729,8.29-5.061,9.05c-0.69,0.106-1.382,0.208-2.072,0.309c-2.013,0.607-4.62,0.953-6.522,1.768
		c-2.18,0.934-4.1,2.67-6.215,3.453c-1.176,0.331-2.354,0.662-3.53,0.993c-1.47,0.878-3.06,2.35-4.909,2.842
		c-2.792,0.743-5.383,0.176-8.362,0.691c-2.788,0.478-6.934,1.063-9.898,0.613c-2.545-0.387-5.721-0.994-8.441-0.691
		c-3.28,0.365-4.953,2.381-7.518,3.375c-0.264,0.771-0.132,1.828,0.689,2.072c0.615,0.127,1.296-0.73,1.994-0.766
		c1.382,0.306,2.763,0.613,4.144,0.919c1.414,0.472,3.376,3.026,5.295,2.608c1.771-0.386,1.962-2.905,4.834-2.456
		c3.247,0.59,6.495,1.178,9.743,1.765c1.114,0.228,2.658,0.654,4.145,0.384c3.893-0.706,7.164-2.442,10.816-3.297
		c1.703-0.4,3.923-0.366,5.602-0.078c1.768,0.306,3.426-0.251,4.834-0.383c1.627,1.281,2.978,3.061,5.371,3.604
		c0.721,0.164,1.12-0.354,1.688-0.457c1.073,0.049,2.148,0.101,3.223,0.152c0.8-0.142,1.937-0.53,3.069-0.309
		c1.424,0.279,3.021,0.075,4.679,0.383c4.86,0.907,10.413,1.44,15.424,2.379c3.051,0.573,10.458-0.927,11.507-2.304
		C99.744,93.007,98.727,90.32,97.209,89.18z M59.386,26.96c0.076-0.127,0.152-0.256,0.23-0.383c0.049,0.026,0.102,0.049,0.153,0.075
		C59.641,26.755,59.514,26.856,59.386,26.96z M60.92,26.116c-0.179,0.126-0.358,0.253-0.538,0.383c-0.026,0-0.052,0-0.075,0
		c0.128-0.152,0.255-0.305,0.382-0.46c0.079,0,0.154,0,0.231,0C60.92,26.064,60.92,26.09,60.92,26.116z M61.227,25.96
		c0.026-0.101,0.052-0.204,0.078-0.305c0.075,0,0.151,0,0.229,0C61.432,25.756,61.329,25.86,61.227,25.96z M61.839,25.655
		c0.025-0.078,0.053-0.152,0.079-0.23c0.051,0,0.103,0,0.152,0C61.966,25.569,61.999,25.552,61.839,25.655z M16.879,57.495
		c0.078,0,0.154,0,0.232,0C17.059,57.72,16.984,57.7,16.879,57.495z M62.762,24.809c0.076-0.331,0.152-0.663,0.23-0.997
		c0.149-0.146,0.513-0.199,0.688-0.308C63.814,23.732,63.163,24.564,62.762,24.809z M59.616,90.18c-0.052,0-0.103,0-0.154,0
		c0.825-0.729,2.013-0.334,3.222-0.767c0.205,0,0.41,0,0.616,0C62.766,90.22,60.934,90.982,59.616,90.18z M69.436,18.287
		c0.078,0,0.154,0,0.23,0C69.616,18.512,69.541,18.495,69.436,18.287z M70.127,19.517c0-0.023,0-0.052,0-0.078
		c0.101-0.176,0.206-0.357,0.307-0.536C70.613,19.111,70.507,19.404,70.127,19.517z M70.51,18.826
		c0.051-0.078,0.104-0.153,0.155-0.23c0.025,0.078,0.05,0.152,0.075,0.23C70.665,18.826,70.586,18.826,70.51,18.826z M71.125,18.673
		c-0.026,0-0.052,0-0.076,0c-0.026-0.026-0.052-0.052-0.076-0.078c0.024-0.049,0.05-0.101,0.076-0.153c0.05,0,0.102,0,0.152,0
		C71.175,18.521,71.15,18.595,71.125,18.673z M73.426,18.287c0.153-0.075,0.307-0.153,0.459-0.23c0.053,0,0.105,0,0.155,0
		c-0.122,0.282-0.217,0.32-0.461,0.464c-0.05-0.052-0.104-0.104-0.153-0.156C73.426,18.339,73.426,18.316,73.426,18.287z
		 M73.196,18.287c0.051,0,0.103,0,0.154,0c-0.14,0.155,0,0.058-0.231,0.155C73.146,18.391,73.171,18.339,73.196,18.287z
		 M72.122,16.217c0.179-0.153,0.359-0.305,0.537-0.458c0,0.101,0,0.205,0,0.305c-0.025,0.052-0.052,0.104-0.077,0.153
		c-0.153,0.029-0.307,0.052-0.46,0.078C72.122,16.269,72.122,16.246,72.122,16.217z M71.663,16.6
		c0.127-0.075,0.254-0.152,0.383-0.228c0.076,0,0.153,0,0.229,0c0,0.026,0,0.049,0,0.075c-0.229,0.207-0.46,0.409-0.691,0.616
		C71.61,16.908,71.636,16.755,71.663,16.6z M72.659,16.678c0.024,0.152,0.051,0.305,0.075,0.46l-0.612-0.46
		C72.301,16.678,72.481,16.678,72.659,16.678z M72.659,19.134c0.075-0.179,0.154-0.357,0.229-0.539
		c0.436,0.078,0.869,0.152,1.304,0.23c-0.46,0.155-0.92,0.308-1.379,0.46c0-0.052,0-0.101,0-0.152
		C72.761,19.134,72.71,19.134,72.659,19.134z M73.119,22.125c-0.026,0.078-0.051,0.155-0.077,0.23l-0.153-0.308
		c0.077,0,0.153,0,0.23,0C73.119,22.076,73.119,22.1,73.119,22.125z M77.263,19.286c0.126,0,0.257,0,0.384,0
		c0.026,0.026,0.051,0.052,0.076,0.078c0,0.026,0,0.052,0,0.075c-0.102,0.055-0.203,0.104-0.308,0.155
		c-0.049-0.026-0.101-0.052-0.152-0.078C77.263,19.439,77.263,19.364,77.263,19.286z M76.648,18.981
		c0.212,0.118,0.182,0.109,0.307,0.305c-0.101,0.104-0.205,0.208-0.307,0.308c-0.025-0.052-0.052-0.101-0.076-0.155
		C76.531,19.174,76.545,19.214,76.648,18.981z M75.651,20.055c0.077,0,0.154,0,0.229,0c-0.107,0.342-0.036,0.276-0.381,0.383
		C75.549,20.312,75.6,20.182,75.651,20.055z M75.651,20.513c0.124,0.115,0.159,0.205,0.307,0.308
		c-0.166,0.354-0.199,0.559-0.612,0.691c-0.01-0.288-0.019-0.193-0.079-0.536C75.395,20.821,75.523,20.668,75.651,20.513z
		 M74.729,20.438c-0.074,0.052-0.153,0.101-0.229,0.153c0.154-0.179,0.307-0.357,0.461-0.536c0.025,0,0.05,0,0.076,0
		C74.926,20.251,74.915,20.309,74.729,20.438z M75.806,23.199c-0.053,0.026-0.103,0.052-0.154,0.078c-0.078,0-0.152,0-0.23,0
		c-0.06-0.273-0.057-0.222-0.154-0.383c0.222-0.334,0.268-0.196,0.539-0.386c0.074,0,0.152,0,0.229,0
		C75.958,22.739,75.88,22.969,75.806,23.199z M76.112,22.586c0.025-0.152,0.052-0.305,0.076-0.46
		c0.123,0.149,0.104,0.104,0.153,0.383C76.265,22.534,76.188,22.56,76.112,22.586z M76.726,21.359c0,0.026,0,0.052,0,0.075
		c-0.103,0.052-0.205,0.104-0.309,0.156c0.024-0.078,0.054-0.156,0.079-0.23c-0.154,0.101-0.31,0.205-0.462,0.305
		c0.104-0.178,0.204-0.36,0.308-0.536c0.281,0.173,0.08,0.058,0.384,0C76.726,21.204,76.726,21.282,76.726,21.359z M78.875,21.895
		c0.319,0.118,0.188-0.015,0.307,0.308c-0.103,0.026-0.205,0.049-0.307,0.078C78.875,22.151,78.875,22.021,78.875,21.895z
		 M77.415,22.586c0.234-0.279,0.499-0.291,0.845-0.46c0.078,0,0.152,0,0.23,0c-0.201,0.564-0.58,1.224-0.691,1.687
		c-0.102,0.026-0.204,0.055-0.305,0.078c-0.029,0-0.054,0-0.079,0C77.415,23.456,77.415,23.021,77.415,22.586z M78.566,24.582
		c-0.161,0.228-0.337,0.276-0.613,0.383c0-0.104,0-0.205,0-0.308c-0.053,0.078-0.101,0.153-0.154,0.23
		c-0.076,0.052-0.152,0.104-0.229,0.155c-0.085-0.331,0.031-0.242-0.076-0.46c0.329-0.245,0.462-0.179,0.766-0.613
		c0.127,0,0.257,0,0.385,0C78.682,24.319,78.711,24.331,78.566,24.582z M78.183,23.891c-0.051-0.023-0.103-0.052-0.153-0.078
		c0.19-0.34,0.363-0.36,0.461-0.844c0.127,0,0.255,0,0.385,0c0.022,0.078,0.049,0.153,0.074,0.23
		C78.76,23.588,78.596,23.721,78.183,23.891z"/>
	<path d="M73.732,17.369c0,0.078,0,0.152,0,0.23c0.025,0,0.052,0,0.077,0C73.784,17.521,73.758,17.446,73.732,17.369z"/>
	<path d="M65.832,16.525c0,0.075,0,0.153,0,0.23c0.022,0,0.05,0,0.075,0C65.882,16.678,65.854,16.6,65.832,16.525z"/>
</g>
</svg>
