<?xml version="1.0" encoding="utf-8"?>
<!-- Generator: Adobe Illustrator 15.0.0, SVG Export Plug-In . SVG Version: 6.00 Build 0)  -->
<!DOCTYPE svg PUBLIC "-//W3C//DTD SVG 1.1//EN" "http://www.w3.org/Graphics/SVG/1.1/DTD/svg11.dtd">
<svg version="1.1" id="Layer_1" xmlns="http://www.w3.org/2000/svg" xmlns:xlink="http://www.w3.org/1999/xlink" x="0px" y="0px"
	 width="100px" height="100px" viewBox="0 0 100 100" enable-background="new 0 0 100 100" xml:space="preserve">
<path fill-rule="evenodd" clip-rule="evenodd" d="M50,0C22.385,0,0,22.386,0,50c0,27.614,22.385,50,50,50c27.614,0,50-22.386,50-50
	C100,22.386,77.613,0,50,0z M80.837,37.517c-1.743,10.895-12.579,24.15-20.542,31.924c-4.262,4.16-7.479,7.788-15.268,7.494
	c-8.344-4.49-9.572-19.557-13.325-30.813c-0.922-2.768-2.227-7.149-4.442-7.496c-2.383-0.372-3.318,2.153-5.273,2.776
	c-1.286-1.027-2.246-2.38-3.054-3.886c2.695-2.377,5.326-4.848,8.327-7.496c3.634-3.204,11.609-9.794,16.379-3.331
	c5.213,7.064,2.279,25.663,9.439,30.813c2.61-1.002,4.623-4.351,6.662-7.772c1.921-3.226,4.126-6.929,3.054-10.549
	c0.006,0.023-0.576,0.455-0.556,0c0.101-2.306-4.171-2.386-8.051-1.388c1.468-4.011,2.6-7.091,4.997-9.716
	c3.438-3.765,13.317-7.399,18.6-3.054C80.316,27.109,81.629,32.573,80.837,37.517z"/>
</svg>
