<?xml version="1.0" encoding="utf-8"?>
<!-- Generator: Adobe Illustrator 16.0.0, SVG Export Plug-In . SVG Version: 6.00 Build 0)  -->
<!DOCTYPE svg PUBLIC "-//W3C//DTD SVG 1.1//EN" "http://www.w3.org/Graphics/SVG/1.1/DTD/svg11.dtd">
<svg version="1.1" id="Layer_1" xmlns="http://www.w3.org/2000/svg" xmlns:xlink="http://www.w3.org/1999/xlink" x="0px" y="0px"
	 width="100px" height="100px" viewBox="0 0 100 100" enable-background="new 0 0 100 100" xml:space="preserve">
<path fill="#010101" d="M36.549,10.708c6.108-2.279,12.813-2.923,19.244-1.849c4.623,0.765,9.09,2.417,13.134,4.779
	c4.982,2.894,9.308,6.844,12.841,11.381c5.373,5.28,9.424,11.888,11.7,19.068c0.08,0.316,0.308,0.562,0.457,0.845
	c0.441,0.763,0.493,1.662,0.681,2.504c1.244,0.783,2.193,2.021,2.607,3.434c0.496,1.655,0.28,3.521-0.619,4.998
	c-0.082,0.13-0.137,0.274-0.148,0.429c0.033,3.667,0.009,7.346,0.016,11.016c-0.47,0-0.939,0-1.408,0
	c-0.234,1.852-0.473,3.701-0.707,5.554c-0.102,1.356-0.781,2.657-1.861,3.487c-0.096,1.246-0.168,2.494-0.252,3.74
	c0,0.248-0.211,0.413-0.338,0.602c-0.893,1.168-1.881,2.291-2.479,3.646c-0.294,0.637-0.302,1.357-0.606,1.989
	c-1.047,2.547-3.15,4.653-5.734,5.626c-1.692,0.658-3.563,0.768-5.34,0.461c-1.393,0.563-3.024,0.518-4.371-0.15
	c-1.704-0.834-2.807-2.74-2.654-4.638c0.795-11.011,1.602-22.022,2.4-33.034c0.097-1.479,0.918-2.888,2.162-3.695
	c0.98-0.667,2.205-0.902,3.373-0.769c0.43,0.01,0.838,0.23,1.269,0.141c1.388-0.169,2.805-0.026,4.136,0.394
	c-1.619-8.32-5.754-16.206-11.982-21.998c-3.114-2.903-6.748-5.264-10.711-6.834c-4.873-1.951-10.233-2.651-15.444-2.027
	c-3.746,0.443-7.407,1.571-10.763,3.29c-6.02,3.064-11.032,7.951-14.538,13.703c-2.596,4.226-4.383,8.931-5.36,13.79
	c1.359-0.402,2.8-0.468,4.202-0.29c1.204-0.293,2.524-0.306,3.663,0.234c1.581,0.706,2.701,2.314,2.817,4.043
	c0.801,11.023,1.604,22.046,2.405,33.068c0.104,1.537-0.587,3.104-1.791,4.065c-1.446,1.179-3.556,1.404-5.26,0.69
	c-1.973,0.392-4.061,0.152-5.891-0.685c-2.645-1.194-4.68-3.59-5.514-6.36c-0.905,0.058-1.808,0.127-2.71,0.201
	c-0.208-3.064-0.384-6.135-0.624-9.194c-0.937-0.761-1.616-1.854-1.791-3.056c-0.259-2-0.511-3.998-0.765-5.996
	c-0.386,0-0.771,0-1.157,0c-0.002-3,0.003-6-0.003-9.002c-0.079-0.763-0.161-1.531-0.301-2.281
	c-0.792-1.271-1.137-2.825-0.894-4.307c0.25-1.743,1.293-3.348,2.789-4.274c0.199-0.831,0.245-1.716,0.667-2.475
	c0.129-0.271,0.348-0.491,0.441-0.778c2.119-6.699,5.76-12.919,10.605-18.011c0.729-0.795,1.538-1.515,2.287-2.288
	C23.212,18.06,29.443,13.333,36.549,10.708z M38.461,13.054c-6.987,2.362-13.122,6.919-17.784,12.594
	c-0.416,0.529-0.953,0.941-1.417,1.426c-5.278,5.159-9.164,11.707-11.258,18.779c-0.235,0.204-0.459,0.448-0.507,0.771
	c-0.191,0.951-0.374,1.905-0.553,2.857c-0.66,0.135-1.276,0.473-1.716,0.986c-1.111,1.24-1.071,3.303,0.079,4.506
	c0.064,0.939,0.303,1.865,0.255,2.811c-0.036,2.229-0.064,4.458-0.1,6.688c0.356,0.071,0.712,0.143,1.067,0.215
	c0.346,2.731,0.693,5.463,1.046,8.194c0.121,0.853,0.869,1.55,1.732,1.595c0.146,2.678,0.353,5.351,0.519,8.026
	c0.811-0.069,1.625-0.112,2.435-0.19c0.035,1.351,0.378,2.698,1.07,3.863c0.873,1.496,2.289,2.684,3.943,3.225
	c1.447,0.482,3.05,0.432,4.486-0.074c0.871,0.904,2.538,0.843,3.312-0.153c0.323-0.397,0.46-0.926,0.417-1.433
	c-0.8-10.94-1.592-21.883-2.392-32.821c-0.002-0.872-0.638-1.687-1.482-1.901c-0.63-0.156-1.318-0.058-1.881,0.265
	c-1.537-0.412-3.209-0.263-4.647,0.415c-0.319,0.16-0.675,0.294-0.906,0.58c-1.19,1.442-1.806,3.332-1.74,5.201
	c0.488,7.33,0.966,14.66,1.455,21.992c0.155,2.36,1.487,4.586,3.477,5.86c-1.708-0.522-2.96-1.944-3.747-3.491
	c-0.743-1.497-1.14-3.158-1.212-4.824c-0.325-4.849-0.642-9.695-0.961-14.543c0.073,0.002,0.221,0.002,0.294,0.002
	c-0.078-2.298-0.307-4.599-0.126-6.896c-0.034-0.876,0.061-1.748,0.132-2.619c0.627-6.989,2.839-13.847,6.535-19.818
	c3.09-5.003,7.227-9.382,12.157-12.601c3.797-2.49,8.066-4.27,12.523-5.147c5.366-1.073,10.987-0.829,16.24,0.7
	c3.812,1.1,7.422,2.859,10.665,5.138c3.602,2.529,6.75,5.682,9.338,9.233c5.289,7.256,8.197,16.156,8.493,25.111
	c-0.011,0.352-0.07,0.703-0.043,1.057c0.202,1.979-0.109,3.959-0.071,5.938c-0.334,4.965-0.654,9.93-0.984,14.894
	c-0.166,2.004-0.773,4.013-1.97,5.646c-0.733,1.006-1.745,1.848-2.954,2.197c1.541-0.97,2.689-2.522,3.187-4.271
	c0.315-1.014,0.305-2.081,0.389-3.126c0.438-6.737,0.896-13.474,1.328-20.21c0.14-2.002-0.517-4.068-1.856-5.572
	c-1.578-1.047-3.608-1.323-5.434-0.852c-0.846-0.5-2.048-0.465-2.764,0.252c-0.42,0.416-0.607,1.013-0.604,1.597
	c-0.783,10.836-1.576,21.673-2.361,32.509c-0.047,0.452,0.012,0.93,0.26,1.319c0.672,1.194,2.545,1.348,3.464,0.362
	c1.144,0.427,2.399,0.521,3.599,0.309c2.457-0.436,4.561-2.313,5.383-4.65c0.123-0.65,0.379-1.268,0.498-1.92
	c0.032-0.016,0.098-0.05,0.131-0.064c0.636-1.393,1.638-2.562,2.523-3.787c0.141-1.57,0.209-3.149,0.329-4.723
	c0.601-0.056,1.175-0.385,1.47-0.918c0.254-0.396,0.276-0.875,0.336-1.328c0.328-2.584,0.66-5.174,0.986-7.761
	c0.357,0,0.719,0,1.08,0c0-1.62,0-3.241-0.001-4.862c-0.154,0-0.308,0-0.459,0c0.175-1.539,0.431-3.071,0.555-4.615
	c0.99-1.038,1.205-2.715,0.492-3.965c-0.419-0.799-1.213-1.344-2.08-1.554c-0.187-0.591-0.248-1.23-0.385-1.841
	c-0.146-0.617-0.114-1.371-0.696-1.772c-2.105-7.062-5.972-13.61-11.244-18.769c-0.383-0.368-0.66-0.825-1.01-1.223
	c-2.684-3.297-5.837-6.22-9.38-8.576c-3.581-2.374-7.563-4.159-11.747-5.15C51.348,10.63,44.608,10.951,38.461,13.054z
	 M9.777,46.307c1.25-5.224,3.494-10.217,6.636-14.577c-3.385,5.764-5.625,12.19-6.624,18.795c-0.184-0.202-0.386-0.39-0.603-0.553
	c0.139-0.948,0.365-1.879,0.528-2.821C9.763,46.871,9.698,46.583,9.777,46.307z M84.734,35.129 M84.846,35.329 M84.961,35.525
	 M85.066,35.917c0.052-0.063,0.101-0.126,0.154-0.189c0.033,0.091,0.104,0.276,0.139,0.367c1.761,3.248,3.086,6.73,3.928,10.327
	c0.013,1.205,0.408,2.365,0.572,3.555c-0.135,0.104-0.267,0.209-0.397,0.314C88.676,45.329,87.225,40.459,85.066,35.917z
	 M5.333,52.098c0.163-0.738,0.719-1.337,1.398-1.643c-0.036,0.792-0.555,1.658-0.073,2.398c0.41,0.68,1.524,0.646,1.889-0.061
	c0.266-0.578,0.28-1.234,0.428-1.848c0.32,0.361,0.692,0.808,0.565,1.328c-0.089,0.547-0.093,1.105-0.202,1.649
	c-0.471,0.849-1.576,1.318-2.504,0.983C5.695,54.561,5.031,53.23,5.333,52.098z M92.292,50.446c0.663,0.298,1.215,0.869,1.396,1.585
	c0.239,0.813-0.019,1.729-0.602,2.334c-0.514,0.518-1.298,0.777-2.01,0.589c-0.432-0.091-0.799-0.354-1.109-0.649
	c-0.097-0.938-0.184-1.879-0.326-2.813c0.133-0.188,0.271-0.372,0.408-0.555c0.121,0.521,0.193,1.054,0.32,1.574
	c0.143,0.598,0.847,1.006,1.431,0.783c0.519-0.164,0.854-0.732,0.787-1.268C92.508,51.496,92.378,50.975,92.292,50.446z"/>
<polygon points="37.604,33.903 43.023,34.613 39.165,38.483 40.164,43.857 35.291,41.383 30.49,43.994 31.336,38.594 27.369,34.834 
	32.767,33.972 35.116,29.037 "/>
<polygon points="49.573,72.418 59.426,73.707 52.41,80.742 54.229,90.512 45.369,86.014 36.641,90.76 38.181,80.943 30.969,74.109 
	40.78,72.543 45.05,63.57 "/>
<polygon points="60.264,48.588 67.068,49.479 62.223,54.339 63.479,61.086 57.357,57.979 51.33,61.259 52.395,54.479 47.413,49.757 
	54.189,48.674 57.141,42.478 "/>
</svg>
