<?xml version="1.0" encoding="utf-8"?>
<!-- Generator: Adobe Illustrator 16.0.0, SVG Export Plug-In . SVG Version: 6.00 Build 0)  -->
<!DOCTYPE svg PUBLIC "-//W3C//DTD SVG 1.1//EN" "http://www.w3.org/Graphics/SVG/1.1/DTD/svg11.dtd">
<svg version="1.1"
	 id="svg548" xmlns:cc="http://creativecommons.org/ns#" xmlns:dc="http://purl.org/dc/elements/1.1/" xmlns:rdf="http://www.w3.org/1999/02/22-rdf-syntax-ns#"
	 xmlns="http://www.w3.org/2000/svg" xmlns:xlink="http://www.w3.org/1999/xlink" x="0px" y="0px" width="143.447px"
	 height="71.281px" viewBox="0 0 143.447 71.281" enable-background="new 0 0 143.447 71.281" xml:space="preserve">
<rect x="0" fill="#FFFFFF" width="143.445" height="71.281"/>
<path fill="#CE0000" stroke="#000063" stroke-width="0.5" d="M1.004,1.214L1.001,70.28l52.425-0.002L19.113,35.479l35.607,0.043
	L1.004,1.214z M21.984,44.408l-1.744,3.449l4.059-0.07l-2.965,2.536l3.78,1.448l-3.736,1.237l2.922,2.75l-3.936-0.253l1.621,3.63
	l-3.538-1.701l0.073,3.958l-2.6-2.892l-1.486,3.685l-1.267-3.641l-2.818,2.848l0.257-3.837l-3.72,1.58l1.743-3.449L4.57,55.758
	l2.965-2.537l-3.777-1.449l3.735-1.236L4.57,47.786l3.936,0.251l-1.619-3.629l3.537,1.7l-0.073-3.96l2.599,2.894l1.486-3.686
	L15.703,45l2.819-2.852l-0.26,3.839L21.984,44.408z M14.573,32.634c-7.562-0.005-10.186-7-9.894-9.727
	c1.389,2.519,2.235,3.748,4.417,5.062l0.667-0.614l-1.478-1.229l1.902-0.495L9.166,23.91l1.992,0.144l-0.251-2.003l1.745,1.022
	l0.547-1.866l1.255,1.502l1.174-1.426l0.641,1.937l1.631-1.135l-0.208,1.969l1.955-0.228l-0.917,1.82l1.894,0.563l0,0l-1.568,1.162
	l0.772,0.637c1.876-1.45,3.211-2.776,4.257-4.976C24.331,25.969,21.638,32.563,14.573,32.634z"/>
</svg>
