<?xml version="1.0" encoding="utf-8"?>
<!-- Generator: Adobe Illustrator 16.0.0, SVG Export Plug-In . SVG Version: 6.00 Build 0)  -->
<!DOCTYPE svg PUBLIC "-//W3C//DTD SVG 1.1//EN" "http://www.w3.org/Graphics/SVG/1.1/DTD/svg11.dtd">
<svg version="1.1" id="Layer_1" xmlns="http://www.w3.org/2000/svg" xmlns:xlink="http://www.w3.org/1999/xlink" x="0px" y="0px"
	 width="100px" height="100px" viewBox="0 0 100 100" enable-background="new 0 0 100 100" xml:space="preserve">
<path fill="#010101" d="M50.305,48.412c0-13.701-11.094-24.805-24.779-24.805c-0.503,0-0.995,0.045-1.492,0.075l0.048,4.097
	c0.304-0.014,0.603-0.047,0.909-0.047c11.09,0,20.08,9,20.08,20.102c0,11.102-8.99,20.102-20.08,20.102
	c-0.169,0-0.334-0.021-0.502-0.024l0.003,5.254c0.346,0.015,0.686,0.051,1.034,0.051C39.211,73.215,50.305,62.111,50.305,48.412z
	 M39.508,47.647c0-8.542-6.87-15.46-15.378-15.565l0.354,30.828v0.268C32.824,62.883,39.508,56.068,39.508,47.647z M59.863,48.721
	c0-18.587-15.051-33.654-33.617-33.654c-0.779,0-1.543,0.065-2.31,0.117l0.048,4.188c0.636-0.042,1.266-0.098,1.911-0.098
	C41.969,19.274,55,32.32,55,48.411c0,16.092-13.031,29.135-29.105,29.135c-0.473,0-0.934-0.047-1.4-0.069l0.003,4.811
	c0.583,0.029,1.158,0.088,1.748,0.088C44.813,82.375,59.863,67.309,59.863,48.721z M68.477,49.547
	c0-22.962-18.594-41.575-41.528-41.575c-1.045,0-2.067,0.081-3.093,0.156l0.041,3.561c0.843-0.056,1.68-0.128,2.535-0.128
	c20.854,0,37.76,16.924,37.76,37.8c0,20.877-16.905,37.799-37.76,37.799c-0.65,0-1.286-0.064-1.929-0.098l0.002,3.936
	c0.813,0.047,1.618,0.123,2.443,0.123C49.883,91.121,68.477,72.508,68.477,49.547z M27.399,1.124c-1.223,0-2.422,0.094-3.623,0.183
	l0.039,3.333c1.002-0.066,1.999-0.153,3.018-0.153c25.081,0,45.413,20.354,45.413,45.462c0,25.107-20.332,45.462-45.413,45.462
	c-0.785,0-1.551-0.076-2.326-0.117l0.003,3.438c0.961,0.057,1.915,0.146,2.89,0.146c26.966,0,48.825-21.885,48.825-48.877
	C76.225,23.006,54.365,1.124,27.399,1.124z"/>
</svg>
