<?xml version="1.0" encoding="utf-8"?>
<!-- Generator: Adobe Illustrator 16.0.0, SVG Export Plug-In . SVG Version: 6.00 Build 0)  -->
<!DOCTYPE svg PUBLIC "-//W3C//DTD SVG 1.1//EN" "http://www.w3.org/Graphics/SVG/1.1/DTD/svg11.dtd">
<svg version="1.1" id="Layer_1" xmlns="http://www.w3.org/2000/svg" xmlns:xlink="http://www.w3.org/1999/xlink" x="0px" y="0px"
	 width="288px" height="288px" viewBox="0 0 288 288" enable-background="new 0 0 288 288" xml:space="preserve">
<path fill="#010101" d="M193.585,64.187c-1.844-2.305-3.227-3.688-4.701-4.425c-1.475-0.738-1.845-1.014-2.488-1.291
	c-0.646-0.276-1.66-0.553-2.397-1.015c-0.737-0.46-2.303-2.303-5.438-2.303c-3.133,0-2.767,0.46-3.41,0.737
	c-0.646,0.276-0.831-0.092-2.028-1.105c-1.199-1.015-0.553-1.384-1.383-3.135c-0.83-1.751-3.594-1.106-2.857,1.015l0.275,0.921
	l-67.292-33.462c0,0-2.306-1.014-4.611,0.737c-2.304,1.752-5.808,6.084-4.058,9.035c1.754,2.95,3.688,0.645,5.532-2.766
	c1.844-3.411-0.276-4.517,1.568-4.886c1.843-0.369,3.688,1.106,6.269,2.581c2.581,1.476,63.885,32.449,63.885,32.449
	s2.303,5.161,3.409,7.559c1.106,2.396,2.858,3.226,2.858,3.226s-0.184,9.218-1.015,11.338c-0.829,2.12-2.856,11.063-4.333,11.247
	c-1.474,0.185-10.323-0.922-12.169-0.922c-1.843,0-4.7-0.553-4.7-0.553s0.437-3.665-0.219-4.529
	c-0.658-0.864-1.902-1.314-1.521-1.763c0.38-0.449,1.416-1.694,0-2.385c-1.417-0.691-2.421-2.904-2.661-4.183
	c-0.242-1.279-0.242-1.763-0.242-1.763s5.841-2.281,5.772-4.84c-0.068-2.558-1.418-2.903-3.284-2.351
	c-1.867,0.554-6.88,2.041-6.88,2.041s-5.807-4.287-13.551-0.691c-7.743,3.595-7.329,13.412-3.18,18.529c0,0,0.552,0.968,1.936,0.968
	c0,0,2.351,3.456,3.041,4.01c0.693,0.553,0.416,0.553-0.967,1.521c-1.384,0.968-2.074,2.489-0.967,4.148
	c1.106,1.659,1.934,2.35,0.137,6.36c-1.798,4.01-0.69,7.19,1.245,11.615c1.936,4.425,5.946,10.786,6.083,14.796
	c0.14,4.01,0.692,17.423-0.137,20.05c0,0-3.182,6.361-3.182,11.339s-1.52,13.689-0.553,16.593c0.968,2.904,3.596,2.904,3.596,5.531
	s0.139,12.307-1.799,14.795c-1.935,2.489-0.275,5.117-2.211,5.67c-1.937,0.554-2.352,0.83-4.424,3.733
	c-2.076,2.904-17.563,24.061-19.085,24.198c-1.52,0.139-4.839,1.245-7.05,1.798c-2.214,0.554-5.394,2.351-5.394,5.808
	s0.139,5.393-1.658,8.988c-1.8,3.595-2.49,9.264,0.414,13.412s8.157,3.181,9.679,1.521s0.138-7.053,2.35-9.126
	c2.214-2.074,2.766-2.903,2.766-2.903s1.522,1.658,3.044,0.829c1.52-0.829,13.274-12.03,17.146-14.657s11.476-12.998,14.242-17.423
	c2.766-4.426,5.67-9.126,6.775-9.126c0,0,0,8.711-0.968,12.583s-1.105,10.647-1.105,16.04s0.414,7.052-0.553,11.754
	c-0.968,4.701-0.416,10.37-0.278,10.785c0.14,0.414,0.554,0.829,0.692,1.659c0.139,0.829-1.107,3.318,3.318,3.733
	c0,0,9.403,0.691,11.615,0c2.213-0.691-2.073-2.628-1.659-4.979c0.414-2.35,0.692-4.148,2.212-5.254
	c1.521-1.106,1.66-4.426,1.66-9.265c0-4.84,1.105-13.136,1.799-14.519c0.689-1.383,2.626-6.223,2.903-16.732
	c0.275-10.509-0.416-16.316,0.552-18.667c0.969-2.351,3.042-7.19,3.319-11.754c0.276-4.563-0.507-21.248-1.477-24.151
	c-0.968-2.904-2.534-8.205-3.64-9.726c-1.105-1.521,0.876-7.052,1.429-12.03c0.553-4.978,0.784-14.242-0.876-18.252
	c-1.658-4.01-4.563-11.339-4.563-11.339l2.352-1.383l-0.141-3.319l4.426-1.106l0.553-3.457c0,0,4.978-1.245,7.882-2.489
	c2.903-1.245,3.642-3.826,6.222-8.619c2.427-4.505,3.182-11.845,3.182-11.845l1.062-0.6v-3.779l0.553-0.83
	C194.232,74.143,195.43,66.492,193.585,64.187z M184.459,78.59c-0.084-0.19-0.137-6.223-0.137-6.223l1.381,0.968
	c0,0,0.208,2.835,0.208,3.595C185.911,77.692,184.735,79.213,184.459,78.59z"/>
</svg>
