<?xml version="1.0" encoding="utf-8"?>
<!-- Generator: Adobe Illustrator 16.0.0, SVG Export Plug-In . SVG Version: 6.00 Build 0)  -->
<!DOCTYPE svg PUBLIC "-//W3C//DTD SVG 1.1//EN" "http://www.w3.org/Graphics/SVG/1.1/DTD/svg11.dtd">
<svg version="1.1" id="Layer_1" xmlns="http://www.w3.org/2000/svg" xmlns:xlink="http://www.w3.org/1999/xlink" x="0px" y="0px"
	 width="24.756px" height="24.753px" viewBox="3.29 2.478 24.756 24.753" enable-background="new 3.29 2.478 24.756 24.753"
	 xml:space="preserve">
<path d="M15.667,4.601c-1.685,1.685-2.34,3.985-2.025,6.173l3.122-3.122c0.004-0.005,0.014-0.008,0.016-0.012
	c0.21-0.403,0.464-0.789,0.802-1.126c1.774-1.776,4.651-1.775,6.428,0c1.775,1.773,1.777,4.652,0.003,6.429
	c-0.341,0.34-0.728,0.594-1.132,0.805c-0.004,0.002-0.006,0.006-0.01,0.01l-3.123,3.123c2.188,0.315,4.492-0.34,6.176-2.023
	c2.832-2.832,2.83-7.423,0-10.255C23.089,1.77,18.5,1.77,15.667,4.601z M14.557,22.067c-0.209,0.405-0.462,0.791-0.802,1.132
	c-1.774,1.773-4.655,1.773-6.43,0c-1.775-1.775-1.775-4.654,0-6.431c0.339-0.338,0.725-0.591,1.128-0.8
	c0.004-0.006,0.005-0.012,0.011-0.016l3.121-3.124c-2.187-0.316-4.489,0.342-6.172,2.024c-2.831,2.831-2.83,7.423,0,10.255
	c2.833,2.831,7.424,2.831,10.256,0c1.685-1.685,2.343-3.985,2.023-6.175l-3.125,3.123C14.565,22.063,14.561,22.065,14.557,22.067z
	 M9.441,18.884l2.197,2.197c0.537,0.537,1.417,0.537,1.953,0l8.302-8.301c0.539-0.536,0.539-1.417,0.002-1.952l-2.199-2.197
	c-0.536-0.539-1.416-0.539-1.952-0.002l-8.302,8.303C8.904,17.468,8.904,18.349,9.441,18.884z"/>
</svg>
