<svg xmlns="http://www.w3.org/2000/svg" xmlns:se="http://svg-edit.googlecode.com" xmlns:xlink="http://www.w3.org/1999/xlink" id="svgcontent" width="205.65" height="395.85" x="0" y="0" viewBox="0 0 205.65 395.85" overflow="hidden"><g mask="" style="pointer-events:all"><title style="pointer-events:inherit">Layer 1</title><path fill="#ffffff" stroke="#ffffff" id="svg_15" d="M27.87086,170.79625C29.06749,170.79625 30.26412,170.79625 32.65739,170.79625C33.85402,170.79625 35.05065,170.79625 38.64054,170.79625C41.03381,170.79625 43.42707,170.79625 44.6237,170.79625C48.2136,170.79625 49.41023,170.79625 50.60686,170.79625C54.19676,170.79625 54.54724,171.14674 55.39339,171.99289C57.08568,173.68518 61.37654,173.18951 63.76981,173.18951C64.96644,173.18951 67.3597,173.18951 68.55634,173.18951C72.14622,173.18951 73.34286,173.18951 74.53948,173.18951C76.93275,173.18951 78.12938,173.18951 80.52264,173.18951C81.71928,173.18951 86.50581,173.18951 87.70244,173.18951C88.89906,173.18951 90.0957,173.18951 91.29232,173.18951C94.88222,173.18951 99.66875,173.18951 100.86538,173.18951C103.25864,173.18951 104.45528,173.18951 105.65191,173.18951C108.04517,173.18951 110.43843,173.18951 114.02833,173.18951C115.22496,173.18951 117.61823,173.18951 120.01148,173.18951C127.19127,173.18951 130.78117,173.18951 133.17444,173.18951C135.56769,173.18951 137.96095,173.18951 140.35422,173.18951C141.55086,173.18951 142.77838,173.57286 145.14075,173.18951C148.87598,172.58336 149.92728,170.79625 151.12392,170.79625C152.32054,170.79625 153.51718,169.59962 155.91043,169.59962C157.10706,169.59962 159.50032,169.59962 160.69695,169.59962C161.89359,169.59962 163.09021,169.59962 164.28685,169.59962C165.48347,169.59962 166.68011,169.59962 167.87674,169.59962C171.46664,169.59962 173.36424,170.09529 175.05653,168.40298C175.90268,167.55684 176.60365,168.05251 177.4498,167.20636C178.29594,166.36021 178.27959,165.46071 179.84306,164.8131C182.05415,163.89723 183.43297,164.8131 184.62959,164.8131C188.2195,164.8131 190.98372,164.02031 194.20264,166.00972C195.64218,166.89941 196.8185,168.0351 198.98917,169.59962C200.36201,170.58913 200.18579,173.18951 200.18579,174.38615C200.18579,175.58278 198.98917,176.77942 198.98917,177.97604C198.98917,179.17268 197.79253,179.17268 197.79253,181.56595C197.79253,182.76257 196.5959,182.76257 195.39926,182.76257C193.00601,182.76257 191.80939,182.76257 189.41612,182.76257C188.2195,182.76257 187.02286,182.76257 185.82623,182.76257C184.62959,182.76257 183.43297,182.76257 182.23633,182.76257C181.0397,182.76257 179.84306,183.95921 178.64644,183.95921C177.4498,183.95921 176.98686,185.05724 173.85991,186.35248C172.75436,186.81041 171.46664,186.35248 170.27,186.35248C169.07338,186.35248 166.68011,186.35248 165.48347,186.35248C164.28685,186.35248 163.05821,186.07753 161.89359,186.35248C159.28941,186.96722 157.9532,189.09621 157.10706,189.94235C156.26091,190.78851 154.50667,193.35603 153.51718,194.72888C151.95262,196.89957 151.58185,197.21324 151.12392,198.31877C150.47629,199.88225 149.7047,200.34415 147.53401,201.90868C146.16116,202.89818 145.35085,203.22244 143.94412,205.49857C142.68591,207.53441 145.14075,207.89183 143.94412,207.89183C142.74748,207.89183 140.35422,207.89183 136.76433,207.89183C134.37106,207.89183 132.82394,207.54135 131.9778,206.69521C131.13165,205.84906 128.03743,204.65242 127.19127,205.49857C125.49898,207.19086 122.40475,205.49857 121.20811,205.49857C118.81486,205.49857 116.42159,204.30194 115.22496,204.30194C111.63506,204.30194 108.04517,204.30194 105.65191,204.30194C104.45528,204.30194 103.25864,204.30194 102.06201,204.30194C100.86538,204.30194 97.27548,204.30194 96.07885,204.30194C93.68559,204.30194 92.48895,204.30194 91.29232,204.30194C88.89906,204.30194 87.70244,204.30194 86.50581,204.30194C85.30917,204.30194 82.91591,204.30194 81.71928,204.30194C80.52264,204.30194 74.53948,204.30194 73.34286,204.30194C72.14622,204.30194 69.40248,205.14809 68.55634,204.30194C67.71018,203.4558 69.40248,201.55818 68.55634,200.71204C67.71018,199.86589 65.81258,199.16492 64.96644,198.31877C64.12029,197.47263 62.57317,197.12215 61.37654,195.92551C60.17991,194.72888 58.98328,194.72888 57.78665,194.72888C53.00013,194.72888 50.25637,195.57503 49.41023,194.72888C48.56408,193.88274 48.2136,193.53224 47.01696,193.53224C45.82033,193.53224 43.42707,193.53224 42.23044,193.53224C41.03381,193.53224 40.20402,192.98323 38.64054,192.33562C37.535,191.87769 35.50858,191.0479 35.05065,189.94235C34.40304,188.37888 32.65739,188.74574 31.46075,187.5491C30.26412,186.35248 29.06749,185.15584 29.06749,182.76257C29.06749,181.56595 29.52542,179.08159 29.06749,177.97604C27.77227,174.84909 26.49205,175.302 24.28096,174.38615C22.71749,173.73853 24.77663,171.29192 23.08433,169.59962C22.23819,168.75348 22.25454,167.85397 20.69107,167.20636C19.58553,166.74843 18.29781,167.20636 18.29781,166.00972C18.29781,164.8131 18.29781,163.61647 17.10117,162.41983L15.90454,162.41983" fill-opacity="1" stroke-opacity="1" display="null" style="pointer-events:inherit"/><g id="svg_21" type="text" text="VACATION" font-size="35.30308163085309" font-family="Bebas Neue" fill="ffffff" text-anchor="start" font-weight="normal" font-style="normal" lineHeight="1" shapeId="0" shapeVal="0" fill-opacity="1" display="null" elemBBoxWidth="102.7734375" stroke="null" stroke-dasharray="none" style="pointer-events:inherit"><path id="svg_31" fill="#ffffff" stroke-width="0" d="M93.55347,141.04219C93.55347,141.04219 96.49538,161.24341 96.49538,161.24341C96.49538,161.24341 99.43731,141.04219 99.43731,141.04219C99.43731,141.04219 103.06568,141.04219 103.06568,141.04219C103.06568,141.04219 99.24118,165.75433 99.24118,165.75433C99.24118,165.75433 93.4554,165.75433 93.4554,165.75433C93.4554,165.75433 89.6309,141.04219 89.6309,141.04219C89.6309,141.04219 93.55347,141.04219 93.55347,141.04219C93.55347,141.04219 93.55347,141.04219 93.55347,141.04219M113.36241,141.04219C113.36241,141.04219 117.38304,165.75433 117.38304,165.75433C117.38304,165.75433 113.46048,165.75433 113.46048,165.75433C113.46048,165.75433 112.77403,161.24341 112.77403,161.24341C112.77403,161.24341 107.96889,161.24341 107.96889,161.24341C107.96889,161.24341 107.28244,165.75433 107.28244,165.75433C107.28244,165.75433 103.75214,165.75433 103.75214,165.75433C103.75214,165.75433 107.6747,141.04219 107.6747,141.04219C107.6747,141.04219 113.36241,141.04219 113.36241,141.04219C113.36241,141.04219 113.36241,141.04219 113.36241,141.04219M110.32243,145.45508C110.32243,145.45508 108.45921,157.90924 108.45921,157.90924C108.45921,157.90924 112.18565,157.90924 112.18565,157.90924C112.18565,157.90924 110.32243,145.45508 110.32243,145.45508M126.69913,156.53632C126.69913,156.53632 130.32751,156.53632 130.32751,156.53632C130.71976,161.92987 129.64106,166.04852 124.54173,166.04852C116.10821,166.04852 118.75594,154.57504 118.75594,146.92604C118.75594,143.00348 120.71722,140.748 124.54173,140.748C129.2488,140.64993 130.71976,144.18025 130.32751,149.37764C130.32751,149.37764 126.69913,149.37764 126.69913,149.37764C126.7972,147.02411 126.89526,144.27831 124.63979,144.27831C123.36496,144.27831 122.6785,144.96475 122.6785,146.7299C122.6785,146.7299 122.6785,160.06665 122.6785,160.06665C122.6785,161.83179 123.36496,162.51825 124.63979,162.51825C127.18945,162.51825 126.69913,158.98792 126.69913,156.53632C126.69913,156.53632 126.69913,156.53632 126.69913,156.53632M141.21263,141.04219C141.21263,141.04219 145.23326,165.75433 145.23326,165.75433C145.23326,165.75433 141.31068,165.75433 141.31068,165.75433C141.31068,165.75433 140.62424,161.24341 140.62424,161.24341C140.62424,161.24341 135.81909,161.24341 135.81909,161.24341C135.81909,161.24341 135.13266,165.75433 135.13266,165.75433C135.13266,165.75433 131.60234,165.75433 131.60234,165.75433C131.60234,165.75433 135.5249,141.04219 135.5249,141.04219C135.5249,141.04219 141.21263,141.04219 141.21263,141.04219C141.21263,141.04219 141.21263,141.04219 141.21263,141.04219M138.17264,145.45508C138.17264,145.45508 136.30942,157.90924 136.30942,157.90924C136.30942,157.90924 140.03586,157.90924 140.03586,157.90924C140.03586,157.90924 138.17264,145.45508 138.17264,145.45508M145.82164,144.57249C145.82164,144.57249 145.82164,141.04219 145.82164,141.04219C145.82164,141.04219 157.78546,141.04219 157.78546,141.04219C157.78546,141.04219 157.78546,144.57249 157.78546,144.57249C157.78546,144.57249 153.76483,144.57249 153.76483,144.57249C153.76483,144.57249 153.76483,165.75433 153.76483,165.75433C153.76483,165.75433 149.84227,165.75433 149.84227,165.75433C149.84227,165.75433 149.84227,144.57249 149.84227,144.57249C149.84227,144.57249 145.82164,144.57249 145.82164,144.57249C145.82164,144.57249 145.82164,144.57249 145.82164,144.57249M159.45255,165.75433C159.45255,165.75433 159.45255,141.04219 159.45255,141.04219C159.45255,141.04219 163.37512,141.04219 163.37512,141.04219C163.37512,141.04219 163.37512,165.75433 163.37512,165.75433C163.37512,165.75433 159.45255,165.75433 159.45255,165.75433C159.45255,165.75433 159.45255,165.75433 159.45255,165.75433M169.74928,146.7299C169.74928,146.7299 169.74928,160.06665 169.74928,160.06665C169.74928,161.83179 170.43573,162.51825 171.71057,162.51825C172.9854,162.51825 173.76991,161.83179 173.76991,160.06665C173.76991,160.06665 173.76991,146.7299 173.76991,146.7299C173.76991,144.96475 172.9854,144.27831 171.71057,144.27831C170.43573,144.27831 169.74928,144.96475 169.74928,146.7299C169.74928,146.7299 169.74928,146.7299 169.74928,146.7299M171.71057,166.04852C163.17899,166.04852 165.82672,154.57504 165.82672,146.92604C165.82672,143.00348 167.88606,140.748 171.71057,140.748C180.24214,140.748 177.59441,152.2215 177.59441,159.87048C177.59441,163.79306 175.53506,166.04852 171.71057,166.04852C171.71057,166.04852 171.71057,166.04852 171.71057,166.04852M188.38147,165.75433C188.38147,165.75433 183.57632,147.80861 183.57632,147.80861C183.57632,147.80861 183.57632,165.75433 183.57632,165.75433C183.57632,165.75433 180.04602,165.75433 180.04602,165.75433C180.04602,165.75433 180.04602,141.04219 180.04602,141.04219C180.04602,141.04219 184.94922,141.04219 184.94922,141.04219C184.94922,141.04219 188.87178,155.84987 188.87178,155.84987C188.87178,155.84987 188.87178,141.04219 188.87178,141.04219C188.87178,141.04219 192.40208,141.04219 192.40208,141.04219C192.40208,141.04219 192.40208,165.75433 192.40208,165.75433C192.40208,165.75433 188.38147,165.75433 188.38147,165.75433C188.38147,165.75433 188.38147,165.75433 188.38147,165.75433" style="pointer-events:inherit"/><rect id="svg_32" x="89.62890540342778" y="140.75000244379044" width="102.77343814261258" height="25.3007497144863" fill="#000000" opacity="0" style="pointer-events:inherit"/></g><g type="text" text="Gomes Family" font-size="19.845403927036003" font-family="Amadeus Regular" fill="ffffff" text-anchor="start" font-weight="normal" font-style="normal" lineHeight="1" shapeId="0" shapeVal="0" fill-opacity="1" display="null" elemBBoxWidth="105.83984375" stroke="null" stroke-dasharray="none" id="svg_26" style="pointer-events:inherit"><path fill="#ffffff" stroke-width="0" d="M92.80337,127.02998C92.96874,127.30562 92.91361,127.52612 92.63799,127.6915C92.36235,127.85689 92.14185,127.85689 91.97647,127.58124C91.8111,127.30562 91.8111,127.02998 92.08672,126.86461C92.36235,126.69923 92.63799,126.75436 92.80337,127.02998C92.80337,127.02998 92.80337,127.02998 92.80337,127.02998M92.08672,122.67502C86.40874,122.67502 87.01512,133.25923 91.86622,133.25923C93.96101,133.25923 95.55967,132.70798 96.05581,130.88881C96.05581,130.88881 91.70084,130.61317 91.70084,130.61317C91.70084,130.61317 91.70084,130.00681 91.70084,130.00681C91.70084,130.00681 96.38656,130.39268 96.38656,130.39268C96.38656,130.39268 97.15833,129.51067 97.15833,129.51067C97.15833,129.51067 91.53547,129.29016 91.53547,129.29016C91.53547,129.29016 91.53547,128.57352 91.53547,128.57352C91.53547,128.57352 97.54421,129.06964 97.54421,129.06964C97.81984,131.16444 97.76472,134.74765 96.44169,135.85017C94.18152,137.66933 90.04706,137.55907 87.51126,136.29118C87.51126,136.29118 88.77916,135.02327 88.77916,135.02327C91.09445,136.12579 93.52,136.01553 96.00068,135.24377C96.27631,134.52713 96.27631,133.31436 96.27631,132.15672C95.11866,133.59 93.52,134.91301 90.87395,134.63739C84.31394,133.92075 85.74722,121.51738 92.58286,121.35199C94.18152,121.29688 96.22118,122.34427 97.04808,123.39166C97.04808,123.39166 95.72505,124.65956 95.72505,124.65956C95.06354,123.94292 93.35463,122.67502 92.08672,122.67502C92.08672,122.67502 92.08672,122.67502 92.08672,122.67502M103.60809,125.76208C108.34893,125.87233 109.61684,134.80278 103.71834,134.80278C101.07229,134.80278 98.97749,132.98361 98.97749,130.83369C98.97749,127.63637 101.01716,126.20309 103.60809,125.76208C103.60809,125.76208 103.60809,125.76208 103.60809,125.76208M106.41952,131.27469C107.13615,128.13251 103.60809,125.98259 101.45817,128.02225C101.45817,128.02225 106.41952,131.27469 106.41952,131.27469M106.30927,131.66058C106.30927,131.66058 101.18253,128.29788 101.18253,128.29788C101.07229,128.40814 100.96203,128.57352 100.90691,128.68376C100.90691,128.68376 106.08876,132.10159 106.08876,132.10159C106.14389,131.99133 106.25414,131.88109 106.30927,131.66058C106.30927,131.66058 106.30927,131.66058 106.30927,131.66058M105.92338,132.43234C105.92338,132.43234 100.74152,129.01453 100.74152,129.01453C100.6864,129.06964 100.63127,129.23503 100.57615,129.40041C100.57615,129.40041 105.64775,132.76309 105.64775,132.76309C105.64775,132.76309 105.92338,132.43234 105.92338,132.43234M105.37212,132.98361C105.37212,132.98361 100.52103,129.78629 100.52103,129.78629C99.96976,132.65286 103.05682,134.52713 105.37212,132.98361C105.37212,132.98361 105.37212,132.98361 105.37212,132.98361M117.27937,133.31436C117.55499,132.15672 119.20878,132.3221 119.20878,133.53487C119.20878,134.52713 118.38189,135.62965 117.38961,135.62965C116.23197,135.62965 115.46021,134.47202 115.79095,133.09386C115.79095,133.09386 111.76675,133.03874 111.76675,133.03874C111.71162,134.69252 111.05011,135.51941 109.83734,135.51941C108.23868,135.51941 108.12843,133.59 109.06557,132.98361C109.28608,132.87335 109.61684,132.81822 110.05784,132.81822C109.3412,133.09386 109.28608,134.41689 110.11297,134.47202C110.44373,134.47202 110.6091,134.08614 110.6091,133.31436C110.55398,131.49521 107.96305,128.68376 109.89246,126.91972C110.82961,125.32108 113.64104,124.9352 114.1923,127.41586C114.68843,126.20309 115.18457,125.37621 116.61785,125.37621C117.83063,125.32108 118.65752,126.53384 118.65752,127.80176C118.65752,129.23503 116.83835,131.88109 116.89348,133.20412C116.94861,133.86562 117.44474,134.58226 118.27164,134.47202C118.65752,133.70026 118.27164,132.87335 117.27937,133.31436C117.27937,133.31436 117.27937,133.31436 117.27937,133.31436M116.12171,131.88109C116.12171,131.7157 117.55499,129.34529 117.44474,128.51839C117.55499,126.4236 115.68071,125.70697 115.07432,127.74663C114.74356,128.79402 114.74356,128.79402 114.35768,129.84142C114.35768,129.84142 113.20003,130.99907 113.20003,130.99907C113.53078,128.73889 113.03465,127.08511 111.38087,126.75436C109.06557,127.25049 111.38087,131.10933 111.71162,131.77083C111.71162,131.77083 116.12171,131.88109 116.12171,131.88109M116.01146,132.26697C112.81415,132.48747 111.54624,131.55034 111.76675,132.65286C111.76675,132.65286 115.90121,132.70798 115.90121,132.70798C115.90121,132.59773 115.95634,132.43234 116.01146,132.26697C116.01146,132.26697 116.01146,132.26697 116.01146,132.26697M121.08307,129.78629C120.91769,133.47974 124.11501,134.85789 127.80846,133.64513C127.80846,133.64513 127.97383,134.36176 127.97383,134.36176C124.33551,135.62965 119.42928,134.52713 119.92542,130.06194C119.48441,126.03772 127.42258,123.77754 127.97383,128.62865C127.97383,128.62865 121.30357,128.79402 121.30357,128.79402C121.24844,129.01453 121.13818,129.1799 121.13818,129.29016C121.13818,129.29016 127.9187,129.06964 127.9187,129.06964C127.9187,129.06964 127.86359,129.56578 127.86359,129.56578C127.86359,129.56578 121.08307,129.78629 121.08307,129.78629M126.98157,127.912C126.09955,125.92746 122.4061,126.6441 121.57921,128.24277C121.57921,128.24277 126.98157,127.912 126.98157,127.912M132.71468,129.40041C135.52611,129.40041 138.66829,129.1799 138.66829,131.88109C138.66829,136.18092 132.76981,134.47202 128.96609,134.80278C128.96609,134.80278 129.02122,133.70026 129.02122,133.70026C129.07635,133.70026 129.62761,133.70026 130.675,133.75537C130.675,133.75537 132.49417,130.50293 132.49417,130.50293C130.50963,130.28242 129.57248,129.56578 129.57248,128.46326C129.07635,126.14796 133.98257,125.8172 136.40813,125.92746C136.40813,125.92746 136.353,127.08511 136.353,127.08511C133.8172,127.02998 130.61989,126.6441 130.61989,128.57352C130.61989,129.01453 131.33653,129.40041 132.71468,129.40041C132.71468,129.40041 132.71468,129.40041 132.71468,129.40041M137.1799,132.10159C137.29015,130.61317 136.07738,130.50293 134.58897,130.55806C134.58897,130.55806 132.82492,133.75537 132.82492,133.75537C135.25049,133.64513 137.06964,134.14125 137.1799,132.10159C137.1799,132.10159 137.1799,132.10159 137.1799,132.10159M134.20308,130.55806C134.20308,130.55806 133.76207,130.55806 133.76207,130.55806C133.76207,130.55806 131.99805,133.75537 131.99805,133.75537C131.99805,133.75537 132.43904,133.75537 132.43904,133.75537C132.43904,133.75537 134.20308,130.55806 134.20308,130.55806M133.32106,130.55806C133.32106,130.55806 132.88005,130.55806 132.88005,130.55806C132.88005,130.55806 131.06088,133.75537 131.06088,133.75537C131.06088,133.75537 131.55702,133.75537 131.55702,133.75537C131.55702,133.75537 133.32106,130.55806 133.32106,130.55806M153.49722,122.89552C153.49722,122.89552 150.35504,122.95065 150.35504,122.95065C150.35504,122.95065 150.07941,129.89655 150.07941,129.89655C150.07941,129.89655 152.78058,129.89655 152.78058,129.89655C152.78058,129.89655 152.78058,130.72343 152.78058,130.72343C152.78058,130.72343 150.18967,130.77856 150.18967,130.77856C150.18967,130.77856 150.02428,134.85789 150.02428,134.85789C150.02428,134.85789 149.41789,134.85789 149.41789,134.85789C149.41789,134.85789 149.6384,128.90428 149.6384,128.90428C149.6384,128.90428 149.08714,128.90428 149.08714,128.90428C149.08714,128.90428 148.97688,134.91301 148.97688,134.91301C148.97688,134.91301 147.26797,135.02327 147.26797,135.02327C147.26797,135.02327 147.65385,121.29688 147.65385,121.29688C147.65385,121.29688 149.25252,121.24174 149.25252,121.24174C149.25252,121.24174 149.14227,125.10057 149.14227,125.10057C149.14227,125.10057 149.74866,125.10057 149.74866,125.10057C149.74866,125.10057 149.91403,121.24174 149.91403,121.24174C149.91403,121.24174 153.44209,121.18661 153.44209,121.18661C153.44209,121.18661 153.49722,122.89552 153.49722,122.89552M149.74866,125.48645C149.74866,125.48645 149.14227,125.48645 149.14227,125.48645C149.14227,125.48645 149.14227,126.09285 149.14227,126.09285C149.14227,126.09285 149.74866,126.09285 149.74866,126.09285C149.74866,126.09285 149.74866,125.48645 149.74866,125.48645C149.74866,125.48645 149.74866,125.48645 149.74866,125.48645M149.74866,126.47873C149.74866,126.47873 149.14227,126.47873 149.14227,126.47873C149.14227,126.47873 149.08714,127.41586 149.08714,127.41586C149.08714,127.41586 149.69353,127.41586 149.69353,127.41586C149.69353,127.41586 149.74866,126.47873 149.74866,126.47873M149.69353,127.80176C149.69353,127.80176 149.08714,127.80176 149.08714,127.80176C149.08714,127.80176 149.08714,128.51839 149.08714,128.51839C149.08714,128.51839 149.6384,128.51839 149.6384,128.51839C149.6384,128.51839 149.69353,127.80176 149.69353,127.80176M156.36378,126.6441C156.74966,125.98259 158.18294,125.21083 159.23033,125.32108C162.15202,125.54158 162.5379,129.67604 162.20715,133.31436C162.15202,134.25151 162.5379,134.08614 162.86867,133.70026C162.86867,133.70026 162.75842,134.74765 162.75842,134.74765C161.76614,135.62965 160.77388,135.18866 160.66362,133.53487C159.50597,135.24377 154.71001,135.96042 154.71001,132.48747C154.71001,129.84142 158.2932,128.07738 160.60849,129.78629C160.27774,126.58897 158.73421,125.54158 156.80479,127.19536C156.80479,127.19536 156.36378,126.6441 156.36378,126.6441M160.66362,131.55034C160.1675,130.88881 159.61623,130.50293 159.06497,130.33755C159.06497,130.33755 158.95471,133.75537 158.95471,133.75537C159.89185,133.09386 160.82899,133.53487 160.66362,131.55034C160.66362,131.55034 160.66362,131.55034 160.66362,131.55034M158.67909,130.28242C158.5137,130.28242 158.40344,130.22729 158.2932,130.22729C158.2932,130.22729 158.12782,133.92075 158.12782,133.92075C158.23807,133.92075 158.34833,133.86562 158.5137,133.86562C158.5137,133.86562 158.67909,130.28242 158.67909,130.28242M157.74193,133.92075C157.74193,132.70798 157.96245,131.27469 157.85219,130.17216C157.74193,130.17216 157.63168,130.22729 157.46631,130.28242C157.46631,130.28242 157.30093,133.86562 157.30093,133.86562C157.41118,133.86562 157.52144,133.92075 157.74193,133.92075C157.74193,133.92075 157.74193,133.92075 157.74193,133.92075M157.0253,130.44781C155.42665,131.16444 155.26126,133.31436 156.91505,133.81049C156.97017,132.70798 157.0253,131.55034 157.0253,130.44781C157.0253,130.44781 157.0253,130.44781 157.0253,130.44781M172.29523,133.31436C172.57088,132.15672 174.22466,132.3221 174.22466,133.53487C174.22466,134.52713 173.39775,135.62965 172.40549,135.62965C171.24783,135.62965 170.47607,134.47202 170.80682,133.09386C170.80682,133.09386 166.78262,133.03874 166.78262,133.03874C166.72751,134.69252 166.06598,135.51941 164.85321,135.51941C163.25455,135.51941 163.1443,133.59 164.08144,132.98361C164.30194,132.87335 164.63269,132.81822 165.07372,132.81822C164.35707,133.09386 164.30194,134.41689 165.12883,134.47202C165.45959,134.47202 165.62498,134.08614 165.62498,133.31436C165.56985,131.49521 162.97891,128.68376 164.90834,126.91972C165.84547,125.32108 168.65691,124.9352 169.20818,127.41586C169.70432,126.20309 170.20044,125.37621 171.63371,125.37621C172.8465,125.32108 173.6734,126.53384 173.6734,127.80176C173.6734,129.23503 171.85423,131.88109 171.90935,133.20412C171.96448,133.86562 172.46062,134.58226 173.28751,134.47202C173.6734,133.70026 173.28751,132.87335 172.29523,133.31436C172.29523,133.31436 172.29523,133.31436 172.29523,133.31436M171.13759,131.88109C171.13759,131.7157 172.57088,129.34529 172.46062,128.51839C172.57088,126.4236 170.69658,125.70697 170.09019,127.74663C169.75943,128.79402 169.75943,128.79402 169.37355,129.84142C169.37355,129.84142 168.21591,130.99907 168.21591,130.99907C168.54666,128.73889 168.05052,127.08511 166.39674,126.75436C164.08144,127.25049 166.39674,131.10933 166.72751,131.77083C166.72751,131.77083 171.13759,131.88109 171.13759,131.88109M171.02733,132.26697C167.83002,132.48747 166.56212,131.55034 166.78262,132.65286C166.78262,132.65286 170.91708,132.70798 170.91708,132.70798C170.91708,132.59773 170.97221,132.43234 171.02733,132.26697C171.02733,132.26697 171.02733,132.26697 171.02733,132.26697M176.65019,121.40712C177.64247,121.40712 178.41425,122.12375 178.41425,123.11604C178.41425,124.10831 177.58734,124.88007 176.65019,124.88007C175.71306,124.88007 174.94128,124.05318 174.94128,123.11604C174.94128,122.17888 175.71306,121.40712 176.65019,121.40712C176.65019,121.40712 176.65019,121.40712 176.65019,121.40712M177.6976,125.65184C177.6976,125.65184 177.64247,134.96814 177.64247,134.96814C177.64247,134.96814 177.36684,134.91301 177.36684,134.91301C177.36684,134.91301 177.31172,125.65184 177.31172,125.65184C177.31172,125.65184 177.6976,125.65184 177.6976,125.65184C177.6976,125.65184 177.6976,125.65184 177.6976,125.65184M176.92583,135.02327C176.92583,135.02327 175.71306,134.85789 175.71306,134.85789C175.71306,134.85789 175.54768,125.70697 175.54768,125.70697C175.54768,125.70697 176.92583,125.70697 176.92583,125.70697C176.92583,125.70697 176.92583,135.02327 176.92583,135.02327C176.92583,135.02327 176.92583,135.02327 176.92583,135.02327M176.65019,123.8878C177.03607,123.94292 177.47708,123.50192 177.42197,123.11604C177.42197,122.73015 177.03607,122.3994 176.65019,122.3994C176.26431,122.3994 175.93356,122.73015 175.93356,123.11604C175.93356,123.50192 176.26431,123.8878 176.65019,123.8878C176.65019,123.8878 176.65019,123.8878 176.65019,123.8878M180.12315,127.30562C180.06802,124.99033 180.67441,120.80074 182.32819,120.74561C183.15509,120.69048 183.09996,122.12375 183.15509,123.00578C183.15509,125.87233 182.60382,128.51839 181.61156,130.88881C182.05257,132.5426 182.71408,133.59 183.59608,133.97588C183.70634,134.03101 183.87173,133.97588 183.98196,133.75537C184.64349,134.30664 183.43071,135.0784 183.04483,135.18866C182.1077,135.18866 181.17055,133.31436 180.83978,132.3221C180.83978,132.3221 179.29625,134.74765 179.29625,134.74765C179.29625,134.74765 178.85524,134.41689 178.85524,134.41689C179.40651,133.59 180.01289,132.48747 180.56416,131.16444C180.28853,129.89655 180.12315,128.62865 180.12315,127.30562C180.12315,127.30562 180.12315,127.30562 180.12315,127.30562M181.28079,129.06964C181.94231,126.69923 182.27307,124.65956 181.99744,122.23401C181.28079,123.55704 181.00517,126.58897 181.28079,129.06964C181.28079,129.06964 181.28079,129.06964 181.28079,129.06964M189.16382,133.14899C189.5497,131.99133 190.76248,126.91972 191.09323,125.70697C191.09323,125.70697 192.47139,125.98259 192.47139,125.98259C190.70735,130.77856 190.59709,138.88211 185.19475,139.48849C184.14735,139.59874 183.48584,138.49623 183.48584,137.33858C183.48584,135.46428 186.3524,133.64513 186.90366,136.01553C186.90366,136.73218 186.1319,137.88983 185.63576,137.28345C186.24214,136.18092 184.75374,135.51941 184.64349,136.62193C184.4781,138.49623 186.24214,138.77185 187.12416,137.6142C187.56517,137.00781 188.11642,136.12579 188.55743,134.85789C188.55743,134.85789 186.46266,131.10933 186.46266,131.10933C186.1319,131.27469 185.74602,131.77083 185.63576,131.21957C185.91139,130.99907 186.40753,130.88881 186.07677,130.50293C185.74602,130.6683 185.41525,131.0542 185.24988,130.55806C185.58063,130.28242 186.1319,130.22729 185.69089,129.78629C185.36014,129.95168 184.97424,130.39268 184.864,129.84142C184.864,129.84142 185.47038,129.45554 185.47038,129.45554C185.47038,129.45554 183.92685,126.6441 183.92685,126.6441C183.92685,126.6441 185.63576,125.70697 185.63576,125.70697C185.63576,125.70697 186.95879,128.51839 186.95879,128.51839C186.95879,128.51839 188.28181,127.63637 188.28181,127.63637C188.88818,128.46326 186.68315,128.35301 187.28954,129.23503C187.84079,129.06964 188.55743,127.96712 188.88818,128.68376C188.5023,129.12477 187.17929,129.23503 187.6203,129.95168C188.17155,129.78629 188.83307,128.73889 189.21895,129.34529C189.21895,129.34529 187.78568,130.28242 187.78568,130.28242C187.78568,130.28242 189.16382,133.14899 189.16382,133.14899" id="svg_27" style="pointer-events:inherit"/><rect x="86.63281501299869" y="120.74219501062913" width="105.83984448865525" height="18.751116841395973" fill="#000000" opacity="0" id="svg_28" style="pointer-events:inherit"/></g><g type="text" text="BAHAMAS, 2016" font-size="16.472087803130087" font-family="Bebas Neue" fill="ffffff" text-anchor="start" font-weight="normal" font-style="normal" lineHeight="1" shapeId="0" shapeVal="0" fill-opacity="1" display="null" elemBBoxWidth="79.15702819824219" stroke="null" stroke-dasharray="none" id="svg_33" style="pointer-events:inherit"><path id="svg_40" fill="#ffffff" stroke-width="0" d="M68.47232862060547,213.88503219726562 C71.44644862060547,213.79352219726562 73.91726862060547,213.61049219726561 73.91726862060547,216.95067219726562 C73.91726862060547,218.14032219726562 73.55121862060547,218.91817219726562 72.72760862060547,219.28421219726562 C74.96964862060547,220.15357219726562 74.69510862060547,225.96456219726562 71.35493862060547,225.41549219726562 C71.35493862060547,225.41549219726562 68.47232862060547,225.41549219726562 68.47232862060547,225.41549219726562 C68.47232862060547,225.41549219726562 68.47232862060547,213.88503219726562 68.47232862060547,213.88503219726562 C68.47232862060547,213.88503219726562 68.47232862060547,213.88503219726562 68.47232862060547,213.88503219726562 M72.27005862060547,222.62439219726562 C72.27005862060547,220.83991219726562 72.04127862060547,219.92479219726562 70.30255862060547,220.24509219726562 C70.30255862060547,220.24509219726562 70.30255862060547,223.76828219726562 70.30255862060547,223.76828219726562 C71.40069862060547,223.76828219726562 72.27005862060547,223.99706219726562 72.27005862060547,222.62439219726562 C72.27005862060547,222.62439219726562 72.27005862060547,222.62439219726562 72.27005862060547,222.62439219726562 M72.08702862060547,217.36247219726562 C72.08702862060547,215.85253219726562 71.72098862060547,215.30346219726562 70.30255862060547,215.53224219726562 C70.30255862060547,215.53224219726562 70.30255862060547,218.59788219726562 70.30255862060547,218.59788219726562 C71.40069862060547,218.64363219726562 72.08702862060547,218.59788219726562 72.08702862060547,217.36247219726562 C72.08702862060547,217.36247219726562 72.08702862060547,217.36247219726562 72.08702862060547,217.36247219726562 M79.17917862060547,213.88503219726562 C79.17917862060547,213.88503219726562 81.05516862060547,225.41549219726562 81.05516862060547,225.41549219726562 C81.05516862060547,225.41549219726562 79.22493862060547,225.41549219726562 79.22493862060547,225.41549219726562 C79.22493862060547,225.41549219726562 78.90464862060547,223.31072219726562 78.90464862060547,223.31072219726562 C78.90464862060547,223.31072219726562 76.66260862060547,223.31072219726562 76.66260862060547,223.31072219726562 C76.66260862060547,223.31072219726562 76.34231862060547,225.41549219726562 76.34231862060547,225.41549219726562 C76.34231862060547,225.41549219726562 74.69510862060547,225.41549219726562 74.69510862060547,225.41549219726562 C74.69510862060547,225.41549219726562 76.52534862060547,213.88503219726562 76.52534862060547,213.88503219726562 C76.52534862060547,213.88503219726562 79.17917862060547,213.88503219726562 79.17917862060547,213.88503219726562 C79.17917862060547,213.88503219726562 79.17917862060547,213.88503219726562 79.17917862060547,213.88503219726562 M77.76074862060547,215.94404219726562 C77.76074862060547,215.94404219726562 76.89138862060547,221.75503219726562 76.89138862060547,221.75503219726562 C76.89138862060547,221.75503219726562 78.63010862060547,221.75503219726562 78.63010862060547,221.75503219726562 C78.63010862060547,221.75503219726562 77.76074862060547,215.94404219726562 77.76074862060547,215.94404219726562 M83.66324862060547,220.47386219726562 C83.66324862060547,220.47386219726562 83.66324862060547,225.41549219726562 83.66324862060547,225.41549219726562 C83.66324862060547,225.41549219726562 81.83301862060547,225.41549219726562 81.83301862060547,225.41549219726562 C81.83301862060547,225.41549219726562 81.83301862060547,213.88503219726562 81.83301862060547,213.88503219726562 C81.83301862060547,213.88503219726562 83.66324862060547,213.88503219726562 83.66324862060547,213.88503219726562 C83.66324862060547,213.88503219726562 83.66324862060547,218.82666219726562 83.66324862060547,218.82666219726562 C83.66324862060547,218.82666219726562 85.72225862060547,218.82666219726562 85.72225862060547,218.82666219726562 C85.72225862060547,218.82666219726562 85.72225862060547,213.88503219726562 85.72225862060547,213.88503219726562 C85.72225862060547,213.88503219726562 87.55249862060546,213.88503219726562 87.55249862060546,213.88503219726562 C87.55249862060546,213.88503219726562 87.55249862060546,225.41549219726562 87.55249862060546,225.41549219726562 C87.55249862060546,225.41549219726562 85.72225862060547,225.41549219726562 85.72225862060547,225.41549219726562 C85.72225862060547,225.41549219726562 85.72225862060547,220.47386219726562 85.72225862060547,220.47386219726562 C85.72225862060547,220.47386219726562 83.66324862060547,220.47386219726562 83.66324862060547,220.47386219726562 C83.66324862060547,220.47386219726562 83.66324862060547,220.47386219726562 83.66324862060547,220.47386219726562 M92.86016862060546,213.88503219726562 C92.86016862060546,213.88503219726562 94.73614862060546,225.41549219726562 94.73614862060546,225.41549219726562 C94.73614862060546,225.41549219726562 92.90591862060546,225.41549219726562 92.90591862060546,225.41549219726562 C92.90591862060546,225.41549219726562 92.58562862060546,223.31072219726562 92.58562862060546,223.31072219726562 C92.58562862060546,223.31072219726562 90.34359862060546,223.31072219726562 90.34359862060546,223.31072219726562 C90.34359862060546,223.31072219726562 90.02330862060546,225.41549219726562 90.02330862060546,225.41549219726562 C90.02330862060546,225.41549219726562 88.37609862060546,225.41549219726562 88.37609862060546,225.41549219726562 C88.37609862060546,225.41549219726562 90.20632862060546,213.88503219726562 90.20632862060546,213.88503219726562 C90.20632862060546,213.88503219726562 92.86016862060546,213.88503219726562 92.86016862060546,213.88503219726562 C92.86016862060546,213.88503219726562 92.86016862060546,213.88503219726562 92.86016862060546,213.88503219726562 M91.44173862060546,215.94404219726562 C91.44173862060546,215.94404219726562 90.57237862060546,221.75503219726562 90.57237862060546,221.75503219726562 C90.57237862060546,221.75503219726562 92.31109862060546,221.75503219726562 92.31109862060546,221.75503219726562 C92.31109862060546,221.75503219726562 91.44173862060546,215.94404219726562 91.44173862060546,215.94404219726562 M98.03056862060546,213.88503219726562 C98.03056862060546,213.88503219726562 99.35748862060547,222.07532219726562 99.35748862060547,222.07532219726562 C99.35748862060547,222.07532219726562 100.59289862060547,213.88503219726562 100.59289862060547,213.88503219726562 C100.59289862060547,213.88503219726562 103.10946862060547,213.88503219726562 103.10946862060547,213.88503219726562 C103.10946862060547,213.88503219726562 103.10946862060547,225.41549219726562 103.10946862060547,225.41549219726562 C103.10946862060547,225.41549219726562 101.41649862060547,225.41549219726562 101.41649862060547,225.41549219726562 C101.41649862060547,225.41549219726562 101.41649862060547,217.13369219726562 101.41649862060547,217.13369219726562 C101.41649862060547,217.13369219726562 100.18109862060547,225.41549219726562 100.18109862060547,225.41549219726562 C100.18109862060547,225.41549219726562 98.44237862060547,225.41549219726562 98.44237862060547,225.41549219726562 C98.44237862060547,225.41549219726562 97.11545862060547,217.27096219726562 97.11545862060547,217.27096219726562 C97.11545862060547,217.27096219726562 97.11545862060547,225.41549219726562 97.11545862060547,225.41549219726562 C97.11545862060547,225.41549219726562 95.51400862060547,225.41549219726562 95.51400862060547,225.41549219726562 C95.51400862060547,225.41549219726562 95.51400862060547,213.88503219726562 95.51400862060547,213.88503219726562 C95.51400862060547,213.88503219726562 98.03056862060546,213.88503219726562 98.03056862060546,213.88503219726562 C98.03056862060546,213.88503219726562 98.03056862060546,213.88503219726562 98.03056862060546,213.88503219726562 M108.41713862060547,213.88503219726562 C108.41713862060547,213.88503219726562 110.29312862060547,225.41549219726562 110.29312862060547,225.41549219726562 C110.29312862060547,225.41549219726562 108.46289862060547,225.41549219726562 108.46289862060547,225.41549219726562 C108.46289862060547,225.41549219726562 108.14260862060547,223.31072219726562 108.14260862060547,223.31072219726562 C108.14260862060547,223.31072219726562 105.90056862060547,223.31072219726562 105.90056862060547,223.31072219726562 C105.90056862060547,223.31072219726562 105.58027862060547,225.41549219726562 105.58027862060547,225.41549219726562 C105.58027862060547,225.41549219726562 103.93306862060547,225.41549219726562 103.93306862060547,225.41549219726562 C103.93306862060547,225.41549219726562 105.76329862060547,213.88503219726562 105.76329862060547,213.88503219726562 C105.76329862060547,213.88503219726562 108.41713862060547,213.88503219726562 108.41713862060547,213.88503219726562 C108.41713862060547,213.88503219726562 108.41713862060547,213.88503219726562 108.41713862060547,213.88503219726562 M106.99870862060547,215.94404219726562 C106.99870862060547,215.94404219726562 106.12934862060547,221.75503219726562 106.12934862060547,221.75503219726562 C106.12934862060547,221.75503219726562 107.86806862060547,221.75503219726562 107.86806862060547,221.75503219726562 C107.86806862060547,221.75503219726562 106.99870862060547,215.94404219726562 106.99870862060547,215.94404219726562 M110.84219862060547,216.63038219726562 C110.84219862060547,214.80015219726562 111.75730862060547,213.74776219726562 113.54178862060547,213.74776219726562 C115.46352862060547,213.74776219726562 116.28713862060548,214.93741219726562 116.19562862060548,216.99642219726562 C116.19562862060548,216.99642219726562 114.50265862060547,216.99642219726562 114.50265862060547,216.99642219726562 C114.54841862060547,216.08131219726562 114.36538862060547,215.39497219726562 113.58753862060547,215.39497219726562 C112.99271862060547,215.39497219726562 112.67242862060547,215.71526219726562 112.67242862060547,216.53887219726562 C112.67242862060547,218.91817219726562 116.19562862060548,219.37573219726562 116.19562862060548,222.67014219726562 C116.19562862060548,224.50038219726562 115.28050862060547,225.55276219726562 113.49602862060547,225.55276219726562 C111.43701862060547,225.55276219726562 110.61341862060547,224.18008219726562 110.79643862060547,221.93805219726562 C110.79643862060547,221.93805219726562 112.53515862060547,221.93805219726562 112.53515862060547,221.93805219726562 C112.48939862060547,222.94468219726562 112.53515862060547,223.90555219726562 113.45027862060547,223.90555219726562 C114.04509862060547,223.90555219726562 114.41114862060547,223.58526219726562 114.41114862060547,222.76165219726562 C114.41114862060547,220.38235219726562 110.84219862060547,219.92479219726562 110.84219862060547,216.63038219726562 C110.84219862060547,216.63038219726562 110.84219862060547,216.63038219726562 110.84219862060547,216.63038219726562 M117.93434862060548,225.41549219726562 C117.93434862060548,225.41549219726562 117.20224862060547,225.41549219726562 117.20224862060547,225.41549219726562 C117.20224862060547,225.41549219726562 117.20224862060547,223.67677219726562 117.20224862060547,223.67677219726562 C117.20224862060547,223.67677219726562 118.98672862060548,223.67677219726562 118.98672862060548,223.67677219726562 C119.16974862060547,225.23247219726562 118.62067862060547,226.10183219726562 118.16312862060548,227.06270219726562 C118.16312862060548,227.06270219726562 117.43102862060547,227.06270219726562 117.43102862060547,227.06270219726562 C117.43102862060547,227.06270219726562 117.93434862060548,225.41549219726562 117.93434862060548,225.41549219726562 M126.35340862060546,216.72189219726562 C126.44491862060546,214.89166219726562 124.38591862060547,214.98317219726562 124.47742862060547,216.53887219726562 C124.47742862060547,216.53887219726562 124.47742862060547,217.77427219726562 124.47742862060547,217.77427219726562 C124.47742862060547,217.77427219726562 122.73870862060546,217.77427219726562 122.73870862060546,217.77427219726562 C122.55567862060546,215.39497219726562 123.19625862060546,213.70201219726562 125.43829862060547,213.74776219726562 C127.22276862060546,213.74776219726562 128.13788862060545,214.80015219726562 128.13788862060545,216.63038219726562 C128.13788862060545,220.42811219726562 124.20288862060546,221.75503219726562 124.56893862060546,223.76828219726562 C124.56893862060546,223.76828219726562 128.00061862060545,223.76828219726562 128.00061862060545,223.76828219726562 C128.00061862060545,223.76828219726562 128.00061862060545,225.41549219726562 128.00061862060545,225.41549219726562 C128.00061862060545,225.41549219726562 122.73870862060546,225.41549219726562 122.73870862060546,225.41549219726562 C122.05236862060548,220.79415219726562 126.12463862060547,220.42811219726562 126.35340862060546,216.72189219726562 C126.35340862060546,216.72189219726562 126.35340862060546,216.72189219726562 126.35340862060546,216.72189219726562 M130.92898862060548,216.53887219726562 C130.92898862060548,216.53887219726562 130.92898862060548,222.76165219726562 130.92898862060548,222.76165219726562 C130.92898862060548,223.58526219726562 131.24927862060548,223.90555219726562 131.84409862060545,223.90555219726562 C132.43892862060545,223.90555219726562 132.80497862060548,223.58526219726562 132.80497862060548,222.76165219726562 C132.80497862060548,222.76165219726562 132.80497862060548,216.53887219726562 132.80497862060548,216.53887219726562 C132.80497862060548,215.71526219726562 132.43892862060545,215.39497219726562 131.84409862060545,215.39497219726562 C131.24927862060548,215.39497219726562 130.92898862060548,215.71526219726562 130.92898862060548,216.53887219726562 C130.92898862060548,216.53887219726562 130.92898862060548,216.53887219726562 130.92898862060548,216.53887219726562 M131.84409862060545,225.55276219726562 C127.86334862060546,225.55276219726562 129.09875862060545,220.19933219726562 129.09875862060545,216.63038219726562 C129.09875862060545,214.80015219726562 130.05962862060545,213.74776219726562 131.84409862060545,213.74776219726562 C135.82485862060548,213.74776219726562 134.58945862060546,219.10119219726562 134.58945862060546,222.67014219726562 C134.58945862060546,224.50038219726562 133.62857862060548,225.55276219726562 131.84409862060545,225.55276219726562 C131.84409862060545,225.55276219726562 131.84409862060545,225.55276219726562 131.84409862060545,225.55276219726562 M136.87723862060545,216.63038219726562 C136.87723862060545,216.63038219726562 136.87723862060545,215.34922219726562 136.87723862060545,215.34922219726562 C138.29566862060545,215.34922219726562 138.57020862060546,214.66288219726562 138.84473862060548,213.88503219726562 C138.84473862060548,213.88503219726562 140.08014862060548,213.88503219726562 140.08014862060548,213.88503219726562 C140.08014862060548,213.88503219726562 140.08014862060548,225.41549219726562 140.08014862060548,225.41549219726562 C140.08014862060548,225.41549219726562 138.24991862060546,225.41549219726562 138.24991862060546,225.41549219726562 C138.24991862060546,225.41549219726562 138.24991862060546,216.63038219726562 138.24991862060546,216.63038219726562 C138.24991862060546,216.63038219726562 136.87723862060545,216.63038219726562 136.87723862060545,216.63038219726562 C136.87723862060545,216.63038219726562 136.87723862060545,216.63038219726562 136.87723862060545,216.63038219726562 M144.88450862060546,225.55276219726562 C140.94950862060546,225.55276219726562 142.13915862060549,220.33660219726562 142.13915862060549,216.76764219726562 C142.13915862060549,214.84590219726562 143.00851862060546,213.74776219726562 144.88450862060546,213.74776219726562 C146.76049862060546,213.74776219726562 147.6756086206055,214.93741219726562 147.58409862060546,216.95067219726562 C147.58409862060546,216.95067219726562 145.8911386206055,216.95067219726562 145.8911386206055,216.95067219726562 C145.98263862060548,216.03555219726562 145.66234862060548,215.30346219726562 144.93025862060546,215.39497219726562 C143.60334862060546,215.21195219726562 143.96938862060546,217.59125219726562 143.92363862060546,218.91817219726562 C144.88450862060546,217.08794219726562 147.62984862060546,217.82003219726562 147.62984862060546,220.51962219726562 C147.62984862060546,223.21921219726562 147.53834862060546,225.55276219726562 144.88450862060546,225.55276219726562 C144.88450862060546,225.55276219726562 144.88450862060546,225.55276219726562 144.88450862060546,225.55276219726562 M144.88450862060546,219.55875219726562 C143.5575886206055,219.55875219726562 143.96938862060546,221.52625219726562 143.92363862060546,222.76165219726562 C143.92363862060546,223.58526219726562 144.28967862060546,223.90555219726562 144.88450862060546,223.90555219726562 C146.2114286206055,223.90555219726562 145.7996186206055,221.93805219726562 145.84537862060546,220.70264219726562 C145.84537862060546,219.87904219726562 145.4793286206055,219.55875219726562 144.88450862060546,219.55875219726562 C144.88450862060546,219.55875219726562 144.88450862060546,219.55875219726562 144.88450862060546,219.55875219726562 " style="pointer-events:inherit"/><rect id="svg_41" x="68.47304821014404" y="213.74609375" width="79.15625" height="13.31640625" fill="#000000" opacity="0" style="pointer-events:inherit"/></g><line x1="165.870834329122" y1="218.9255339944674" x2="199.1953081225327" y2="218.9255339944674" stroke="#ffffff" stroke-width="2" id="svg_42" fill="none" display="null" fill-opacity="1" stroke-opacity="1" style="pointer-events:inherit"/><line x1="16.906249978536056" y1="218.9255339944674" x2="50.23072377194676" y2="218.9255339944674" stroke="#ffffff" stroke-width="2" fill="none" display="null" fill-opacity="1" stroke-opacity="1" id="svg_43" style="pointer-events:inherit"/><g id="svg_10" display="null" clip-id="346" fill-opacity="1" transform=""><g id="svg_9" transform="matrix(0.64088 0 0 0.64088 0 2.10039)"><g id="svg_11" transform=""><path fill="#ffffff" d="M90.25618351936339,242.9399838256836 C88.73218351936339,242.9399838256836 87.50418351936341,242.1669838256836 86.80918351936339,241.6009838256836 C85.9731835193634,245.2049838256836 84.8071835193634,248.53098382568362 83.61218351936341,251.39898382568362 C84.3001835193634,252.03798382568357 85.6201835193634,252.99998382568361 87.3831835193634,252.99998382568361 C89.1741835193634,252.99998382568361 91.27918351936341,252.3399838256836 92.4501835193634,251.91498382568358 C92.7521835193634,248.7119838256836 93.0191835193634,245.0889838256836 93.1511835193634,241.33398382568362 C92.65518351936339,242.03298382568357 91.72618351936342,242.9399838256836 90.25618351936339,242.9399838256836 zM83.47618351936342,251.71298382568358 C80.93418351936339,257.71098382568357 78.29018351936341,261.6209838256836 78.29018351936341,261.6209838256836 S80.92118351936341,265.9339838256836 84.51118351936341,266.1719838256836 C88.09918351936341,266.4109838256836 90.97018351936339,263.7769838256836 90.97018351936339,263.7769838256836 S91.7691835193634,258.9689838256836 92.4191835193634,252.2139838256836 C91.3371835193634,252.88698382568361 89.4311835193634,253.83598382568357 87.2631835193634,253.83598382568357 C85.10118351936342,253.83798382568358 83.9961835193634,252.59798382568363 83.47618351936342,251.71298382568358 zM90.97018351936339,231.56398382568358 C92.0151835193634,231.33098382568357 92.66018351936339,230.7339838256836 93.05218351936341,230.1779838256836 C92.7351835193634,225.03998382568358 91.9661835193634,220.2239838256836 90.5011835193634,216.46598382568357 C90.24218351936341,217.1279838256836 89.7051835193634,217.9889838256836 88.57718351936342,218.2719838256836 C87.1321835193634,218.6309838256836 86.2161835193634,218.35798382568362 85.8521835193634,218.20098382568358 C87.1561835193634,222.1129838256836 88.0981835193634,226.50898382568357 88.0981835193634,231.20598382568357 C88.0981835193634,231.3179838256836 88.0861835193634,231.43198382568357 88.08418351936342,231.54298382568356 C88.47618351936342,231.68898382568358 89.39818351936339,231.9139838256836 90.97018351936339,231.56398382568358 zM113.60518351936341,202.58598382568357 C105.0011835193634,195.6299838256836 89.95118351936341,195.1349838256836 88.13118351936339,195.1349838256836 C87.5861835193634,195.1349838256836 85.77418351936342,195.2189838256836 83.1821835193634,195.60798382568362 C85.19718351936342,194.96598382568357 88.1041835193634,194.30698382568357 91.6041835193634,194.30698382568357 C98.38718351936342,194.30698382568357 106.32618351936338,194.30698382568357 106.32618351936338,194.30698382568357 S105.9961835193634,193.3129838256836 104.50718351936342,192.81698382568356 C103.0191835193634,192.31898382568357 102.02818351936341,192.31898382568357 102.02818351936341,192.31898382568357 S102.52318351936339,191.6569838256836 104.01118351936341,191.6569838256836 C105.50018351936342,191.6569838256836 108.14818351936339,192.1549838256836 108.14818351936339,192.1549838256836 S107.32018351936341,190.66498382568358 105.99818351936341,190.49898382568358 C104.6741835193634,190.33298382568358 103.0191835193634,190.33298382568358 103.0191835193634,190.33298382568358 S105.33418351936342,189.3389838256836 107.32018351936341,189.3389838256836 C109.3061835193634,189.3389838256836 114.26918351936342,189.8369838256836 114.26918351936342,189.8369838256836 S113.77318351936339,188.67698382568358 112.6151835193634,188.3469838256836 C111.45718351936341,188.01598382568358 110.46518351936339,188.01598382568358 110.46518351936339,188.01598382568358 S112.11918351936339,187.0219838256836 115.7581835193634,187.0219838256836 S124.3601835193634,189.00898382568357 124.3601835193634,189.00898382568357 S115.7581835193634,179.7359838256836 100.7061835193634,185.0339838256836 C86.7271835193634,189.9549838256836 83.16718351936339,193.15798382568357 82.7291835193634,193.5899838256836 C83.0151835193634,193.29798382568362 87.15518351936339,189.09298382568358 92.1041835193634,186.85798382568362 C97.2331835193634,184.53998382568358 104.84018351936339,181.7219838256836 104.84018351936339,181.7219838256836 L100.54018351936341,181.55898382568358 C100.54018351936341,181.55898382568358 101.69618351936339,180.56398382568358 103.51618351936341,180.06898382568357 C105.3361835193634,179.5699838256836 106.99218351936341,178.74198382568358 106.99218351936341,178.74198382568358 S106.3301835193634,178.2459838256836 104.67718351936341,178.4119838256836 C103.02318351936339,178.57598382568358 101.8641835193634,178.90798382568357 101.8641835193634,178.90798382568357 S103.68418351936339,177.41798382568362 106.00018351936342,176.92198382568358 C108.3131835193634,176.4239838256836 110.46818351936341,176.4239838256836 110.46818351936341,176.4239838256836 S109.97018351936339,174.93498382568362 107.98618351936341,174.93498382568362 S104.67718351936341,174.93498382568362 104.67718351936341,174.93498382568362 S105.66818351936342,173.6109838256836 109.47418351936341,172.4529838256836 C113.27918351936341,171.29298382568362 118.5741835193634,170.79698382568358 118.5741835193634,170.79698382568358 S104.3471835193634,166.8199838256836 96.2391835193634,174.10698382568359 C88.13518351936341,181.3949838256836 81.84918351936341,190.9979838256836 81.84918351936341,190.9979838256836 S83.3371835193634,186.8589838256836 83.17118351936341,183.71298382568358 S81.68318351936341,177.9159838256836 81.68318351936341,177.9159838256836 L80.3591835193634,182.38898382568357 C80.3591835193634,182.38898382568357 80.5251835193634,181.0629838256836 79.86318351936342,179.9049838256836 C79.20118351936341,178.74498382568362 77.87918351936341,175.9289838256836 77.87918351936341,175.9289838256836 S79.20118351936341,179.24198382568358 77.87918351936341,181.0629838256836 C76.5551835193634,182.8849838256836 76.7211835193634,183.54698382568358 76.7211835193634,183.54698382568358 L74.57118351936339,174.6059838256836 L75.2331835193634,181.56198382568357 C75.2331835193634,181.56198382568357 74.57118351936339,177.75198382568357 72.08818351936341,174.93698382568357 C69.6081835193634,172.1229838256836 66.1331835193634,170.79698382568358 66.1331835193634,170.79698382568358 S69.11218351936341,172.61698382568358 70.43418351936342,177.08798382568358 C71.7581835193634,181.56198382568357 72.4201835193634,183.8799838256836 72.4201835193634,183.8799838256836 L66.1331835193634,179.9049838256836 L71.0961835193634,184.5419838256836 L63.32118351936339,182.0579838256836 L74.07118351936339,188.5099838256836 L66.79218351936339,187.35298382568362 L76.2041835193634,193.98498382568357 C72.98618351936341,192.5889838256836 67.59918351936341,191.3849838256836 59.017183519363414,192.3199838256836 C42.3091835193634,194.14098382568358 40.4911835193634,207.22298382568357 40.4911835193634,207.22298382568357 S40.9871835193634,206.5609838256836 43.8001835193634,204.5729838256836 C46.6101835193634,202.5869838256836 49.5891835193634,201.92498382568363 49.5891835193634,201.92498382568363 S49.4221835193634,202.48698382568358 49.4221835193634,203.74698382568357 C49.4221835193634,204.9049838256836 50.251183519363394,206.2289838256836 50.251183519363394,206.2289838256836 S51.5731835193634,203.74698382568357 52.071183519363416,202.7509838256836 C52.5671835193634,201.75698382568362 55.04818351936339,200.2679838256836 55.04818351936339,200.2679838256836 S54.55218351936341,200.9289838256836 54.2221835193634,201.75698382568362 C53.890183519363404,202.5849838256836 54.882183519363394,203.57898382568362 54.882183519363394,203.57898382568362 S56.3721835193634,201.42698382568358 58.190183519363416,200.09998382568358 C60.01018351936341,198.77598382568357 62.6571835193634,197.78098382568362 62.6571835193634,197.78098382568362 S61.83118351936341,198.94198382568356 61.003183519363404,200.09998382568358 C60.17718351936341,201.25898382568357 61.1691835193634,202.4169838256836 61.1691835193634,202.4169838256836 S63.98218351936339,200.59798382568357 67.4561835193634,199.27098382568357 C68.9721835193634,198.6929838256836 71.6271835193634,198.1449838256836 74.13518351936341,197.71298382568358 C68.97618351936342,199.35698382568359 63.09518351936339,202.02598382568362 57.69518351936341,206.3919838256836 C44.7911835193634,216.8269838256836 52.07018351936341,229.0819838256836 52.07018351936341,229.0819838256836 S52.400183519363395,226.10298382568362 53.0621835193634,223.94898382568357 C53.72418351936341,221.7959838256836 54.88018351936341,220.63598382568358 54.88018351936341,220.63598382568358 S55.21218351936341,221.29798382568362 55.87418351936341,222.1259838256836 C56.53418351936341,222.95398382568362 58.188183519363406,223.28598382568362 58.188183519363406,223.28598382568362 S57.52818351936341,221.29798382568362 58.188183519363406,219.14398382568356 C58.85018351936341,216.99198382568358 60.174183519363396,215.1689838256836 60.174183519363396,215.1689838256836 S60.174183519363396,216.16298382568357 60.34018351936339,217.1569838256836 C60.50418351936341,218.1519838256836 61.82818351936339,218.64798382568358 61.82818351936339,218.64798382568358 S61.4961835193634,215.5009838256836 62.158183519363405,213.8439838256836 S64.1441835193634,211.03098382568362 64.1441835193634,211.03098382568362 L65.4661835193634,213.0169838256836 L67.1201835193634,207.5539838256836 L68.77418351936342,209.04298382568356 C68.77418351936342,209.04298382568356 69.6021835193634,205.0679838256836 71.5861835193634,203.2459838256836 C73.2751835193634,201.6979838256836 74.0321835193634,200.3899838256836 77.5691835193634,199.01398382568357 C75.8311835193634,200.8439838256836 73.16518351936341,204.1419838256836 69.76618351936341,209.86898382568359 C63.48118351936341,220.47098382568362 66.1271835193634,231.3969838256836 66.1271835193634,231.3969838256836 L71.09018351936339,220.46798382568358 L72.91018351936339,225.1039838256836 L74.0681835193634,213.01598382568358 L76.21818351936341,215.66498382568358 L77.2101835193634,211.02798382568358 L79.1941835193634,213.67498382568363 L80.2531835193634,206.3829838256836 C82.0151835193634,209.1829838256836 84.20218351936342,213.2699838256836 85.82818351936339,218.12198382568357 C86.1761835193634,218.15598382568362 87.2771835193634,218.21298382568358 88.70318351936339,217.6399838256836 C89.6221835193634,217.27098382568357 90.1221835193634,216.6929838256836 90.40918351936341,216.24398382568359 C90.00618351936339,215.24398382568359 89.56618351936339,214.3039838256836 89.0551835193634,213.4769838256836 C86.0791835193634,208.6569838256836 84.1021835193634,205.35498382568358 82.78418351936341,203.0889838256836 L83.16618351936341,200.9239838256836 L90.61118351936341,213.1789838256836 L91.43518351936342,209.0389838256836 L97.5561835193634,216.48998382568357 L96.39918351936342,211.52098382568357 L103.51118351936341,220.6279838256836 C103.51118351936341,220.6279838256836 104.17318351936342,219.7989838256836 104.33918351936342,218.80898382568358 C104.5031835193634,217.81398382568358 103.84318351936341,216.15798382568357 103.84318351936341,216.15798382568357 L110.2941835193634,223.94198382568356 C110.2941835193634,223.94198382568356 110.9551835193634,214.99998382568361 100.36818351936341,205.39398382568356 C95.86218351936341,201.30698382568357 87.3951835193634,198.7669838256836 82.88118351936339,197.63898382568357 C86.69018351936342,197.2579838256836 89.94718351936342,198.4959838256836 95.57118351936339,200.5939838256836 C102.68418351936339,203.2409838256836 108.14118351936341,210.1979838256836 108.14118351936341,210.1979838256836 S108.14118351936341,208.3759838256836 108.14118351936341,207.38398382568357 C108.14118351936341,206.39098382568358 106.32218351936342,205.06698382568356 106.32218351936342,205.06698382568356 S108.14118351936341,205.7289838256836 109.79818351936342,206.72298382568357 C111.45118351936338,207.7139838256836 113.2711835193634,209.20398382568362 113.2711835193634,209.20398382568362 L111.61718351936341,205.3949838256836 C111.61718351936341,205.3949838256836 114.59618351936342,207.7119838256836 116.5801835193634,208.87398382568358 C118.56618351936339,210.0319838256836 122.2041835193634,210.53098382568362 122.2041835193634,210.53098382568362 S122.2061835193634,209.5419838256836 113.60518351936341,202.58598382568357 zM90.73118351936341,232.40298382568358 C89.13018351936341,232.56198382568357 88.3961835193634,232.08398382568362 88.0811835193634,231.74698382568357 C88.03518351936339,235.07098382568358 87.5621835193634,238.30698382568357 86.8661835193634,241.36198382568358 C87.63518351936341,241.71598382568357 88.92218351936339,242.2219838256836 90.0151835193634,242.2219838256836 C91.2041835193634,242.2219838256836 92.50518351936341,241.3799838256836 93.1621835193634,240.89098382568358 C93.27218351936341,237.48198382568359 93.27218351936341,233.9839838256836 93.07818351936339,230.59998382568358 C92.66618351936341,231.4189838256836 91.9481835193634,232.2799838256836 90.73118351936341,232.40298382568358 z" id="svg_12" stroke-width="0" transform=""/></g></g></g><g display="null" clip-id="346" fill-opacity="1" id="svg_13" stroke-opacity="1" stroke="null" transform=""><g transform="matrix(0.42626 0 0 0.42626 -0.0167471 38.5731)" id="svg_14" stroke="null"><g id="svg_20" stroke="null" transform=""><path fill="#ffffff" d="M82.53080254425049,295.32642869750975 C81.00680254425049,295.32642869750975 79.77880254425048,294.55342869750973 79.08380254425049,293.98742869750976 C78.24780254425049,297.59142869750974 77.0818025442505,300.91742869750976 75.88680254425049,303.78542869750976 C76.57480254425049,304.42442869750977 77.89480254425048,305.38642869750976 79.65780254425049,305.38642869750976 C81.44880254425048,305.38642869750976 83.55380254425049,304.72642869750973 84.7248025442505,304.3014286975098 C85.02680254425049,301.0984286975098 85.29380254425048,297.47542869750976 85.42580254425049,293.72042869750976 C84.92980254425049,294.4194286975098 84.00080254425049,295.32642869750975 82.53080254425049,295.32642869750975 zM75.75080254425049,304.0994286975098 C73.20880254425049,310.09742869750977 70.56480254425048,314.00742869750974 70.56480254425048,314.00742869750974 S73.19580254425048,318.3204286975098 76.78580254425049,318.5584286975098 C80.3738025442505,318.79742869750976 83.24480254425049,316.16342869750974 83.24480254425049,316.16342869750974 S84.04380254425048,311.35542869750975 84.69380254425049,304.60042869750976 C83.6118025442505,305.27342869750976 81.70580254425049,306.22242869750977 79.53780254425048,306.22242869750977 C77.37580254425049,306.2244286975098 76.27080254425049,304.98442869750977 75.75080254425049,304.0994286975098 zM83.24480254425049,283.9504286975098 C84.28980254425049,283.7174286975098 84.93480254425049,283.12042869750974 85.32680254425048,282.56442869750975 C85.00980254425049,277.4264286975098 84.24080254425049,272.61042869750975 82.77580254425048,268.85242869750977 C82.51680254425048,269.51442869750974 81.97980254425049,270.37542869750973 80.85180254425049,270.65842869750975 C79.40680254425048,271.0174286975098 78.49080254425049,270.74442869750976 78.1268025442505,270.5874286975098 C79.43080254425048,274.49942869750976 80.37280254425049,278.8954286975098 80.37280254425049,283.5924286975098 C80.37280254425049,283.7044286975098 80.36080254425049,283.8184286975098 80.3588025442505,283.92942869750976 C80.75080254425049,284.0754286975098 81.67280254425049,284.3004286975098 83.24480254425049,283.9504286975098 zM105.8798025442505,254.97242869750977 C97.27580254425048,248.01642869750975 82.22580254425048,247.5214286975098 80.40580254425049,247.5214286975098 C79.86080254425049,247.5214286975098 78.04880254425049,247.60542869750975 75.4568025442505,247.99442869750976 C77.4718025442505,247.35242869750977 80.37880254425049,246.69342869750977 83.87880254425049,246.69342869750977 C90.66180254425049,246.69342869750977 98.60080254425048,246.69342869750977 98.60080254425048,246.69342869750977 S98.27080254425049,245.6994286975098 96.78180254425048,245.20342869750976 C95.29380254425048,244.70542869750977 94.30280254425048,244.70542869750977 94.30280254425048,244.70542869750977 S94.79780254425049,244.04342869750974 96.28580254425049,244.04342869750974 C97.77480254425049,244.04342869750974 100.42280254425049,244.5414286975098 100.42280254425049,244.5414286975098 S99.59480254425048,243.05142869750978 98.27280254425048,242.88542869750972 C96.94880254425048,242.71942869750978 95.29380254425048,242.71942869750978 95.29380254425048,242.71942869750978 S97.6088025442505,241.72542869750976 99.59480254425048,241.72542869750976 C101.58080254425049,241.72542869750976 106.54380254425048,242.2234286975098 106.54380254425048,242.2234286975098 S106.04780254425049,241.06342869750978 104.88980254425049,240.7334286975098 C103.73180254425048,240.40242869750978 102.7398025442505,240.40242869750978 102.7398025442505,240.40242869750978 S104.39380254425049,239.40842869750975 108.03280254425049,239.40842869750975 S116.63480254425049,241.39542869750977 116.63480254425049,241.39542869750977 S108.03280254425049,232.1224286975098 92.9808025442505,237.4204286975098 C79.0018025442505,242.34142869750974 75.44180254425049,245.54442869750977 75.00380254425049,245.97642869750973 C75.28980254425049,245.68442869750976 79.42980254425049,241.47942869750977 84.37880254425049,239.24442869750976 C89.5078025442505,236.92642869750978 97.1148025442505,234.1084286975098 97.1148025442505,234.1084286975098 L92.81480254425048,233.94542869750978 C92.81480254425048,233.94542869750978 93.97080254425049,232.95042869750978 95.79080254425048,232.45542869750977 C97.61080254425049,231.95642869750975 99.26680254425048,231.12842869750978 99.26680254425048,231.12842869750978 S98.60480254425049,230.6324286975098 96.95180254425048,230.79842869750973 C95.29780254425049,230.96242869750978 94.1388025442505,231.29442869750977 94.1388025442505,231.29442869750977 S95.95880254425049,229.80442869750976 98.27480254425049,229.30842869750973 C100.5878025442505,228.8104286975098 102.7428025442505,228.8104286975098 102.7428025442505,228.8104286975098 S102.24480254425049,227.32142869750976 100.2608025442505,227.32142869750976 S96.95180254425048,227.32142869750976 96.95180254425048,227.32142869750976 S97.94280254425048,225.9974286975098 101.7488025442505,224.8394286975098 C105.55380254425049,223.67942869750976 110.84880254425049,223.18342869750973 110.84880254425049,223.18342869750973 S96.62180254425049,219.20642869750975 88.5138025442505,226.49342869750978 C80.40980254425048,233.7814286975098 74.1238025442505,243.38442869750975 74.1238025442505,243.38442869750975 S75.6118025442505,239.24542869750974 75.44580254425048,236.09942869750978 S73.95780254425048,230.30242869750975 73.95780254425048,230.30242869750975 L72.63380254425049,234.77542869750977 C72.63380254425049,234.77542869750977 72.79980254425048,233.4494286975098 72.13780254425049,232.2914286975098 C71.47580254425048,231.13142869750976 70.15380254425048,228.3154286975098 70.15380254425048,228.3154286975098 S71.47580254425048,231.62842869750978 70.15380254425048,233.4494286975098 C68.82980254425048,235.2714286975098 68.9958025442505,235.93342869750973 68.9958025442505,235.93342869750973 L66.84580254425049,226.99242869750978 L67.5078025442505,233.94842869750977 C67.5078025442505,233.94842869750977 66.84580254425049,230.13842869750977 64.36280254425048,227.32342869750977 C61.882802544250495,224.50942869750975 58.40780254425049,223.18342869750973 58.40780254425049,223.18342869750973 S61.386802544250486,225.00342869750978 62.70880254425049,229.47442869750978 C64.03280254425049,233.94842869750977 64.69480254425049,236.26642869750975 64.69480254425049,236.26642869750975 L58.40780254425049,232.2914286975098 L63.370802544250495,236.92842869750973 L55.59580254425049,234.4444286975098 L66.34580254425049,240.8964286975098 L59.0668025442505,239.73942869750977 L68.47880254425048,246.37142869750977 C65.2608025442505,244.97542869750976 59.873802544250495,243.7714286975098 51.29180254425049,244.70642869750975 C34.58380254425049,246.52742869750978 32.76580254425049,259.60942869750977 32.76580254425049,259.60942869750977 S33.261802544250486,258.94742869750974 36.07480254425049,256.9594286975098 C38.88480254425049,254.9734286975098 41.86380254425049,254.31142869750977 41.86380254425049,254.31142869750977 S41.69680254425049,254.87342869750978 41.69680254425049,256.13342869750977 C41.69680254425049,257.2914286975098 42.52580254425049,258.61542869750974 42.52580254425049,258.61542869750974 S43.84780254425049,256.13342869750977 44.34580254425049,255.1374286975098 C44.84180254425049,254.14342869750976 47.322802544250486,252.65442869750973 47.322802544250486,252.65442869750973 S46.82680254425049,253.3154286975098 46.496802544250485,254.14342869750976 C46.16480254425049,254.97142869750974 47.15680254425049,255.96542869750976 47.15680254425049,255.96542869750976 S48.64680254425049,253.81342869750978 50.46480254425049,252.48642869750978 C52.28480254425049,251.16242869750977 54.93180254425049,250.16742869750976 54.93180254425049,250.16742869750976 S54.105802544250494,251.32842869750976 53.27780254425049,252.48642869750978 C52.45180254425049,253.64542869750977 53.44380254425049,254.80342869750973 53.44380254425049,254.80342869750973 S56.25680254425049,252.98442869750977 59.730802544250494,251.65742869750977 C61.246802544250485,251.0794286975098 63.90180254425049,250.5314286975098 66.40980254425048,250.09942869750978 C61.25080254425049,251.74342869750978 55.36980254425049,254.41242869750977 49.96980254425049,258.77842869750975 C37.06580254425049,269.21342869750976 44.34480254425049,281.4684286975098 44.34480254425049,281.4684286975098 S44.67480254425049,278.48942869750977 45.33680254425049,276.33542869750977 C45.99880254425049,274.18242869750975 47.15480254425049,273.0224286975098 47.15480254425049,273.0224286975098 S47.48680254425049,273.68442869750976 48.148802544250486,274.5124286975098 C48.80880254425049,275.34042869750976 50.462802544250486,275.67242869750976 50.462802544250486,275.67242869750976 S49.80280254425049,273.68442869750976 50.462802544250486,271.53042869750976 C51.124802544250485,269.3784286975098 52.44880254425049,267.5554286975098 52.44880254425049,267.5554286975098 S52.44880254425049,268.54942869750977 52.61480254425049,269.54342869750974 C52.77880254425049,270.53842869750974 54.102802544250494,271.0344286975097 54.102802544250494,271.0344286975097 S53.770802544250486,267.8874286975098 54.43280254425049,266.23042869750975 S56.41880254425048,263.41742869750976 56.41880254425048,263.41742869750976 L57.740802544250485,265.40342869750975 L59.39480254425048,259.9404286975098 L61.04880254425049,261.42942869750976 C61.04880254425049,261.42942869750976 61.876802544250495,257.4544286975098 63.86080254425049,255.6324286975098 C65.54980254425048,254.0844286975098 66.30680254425049,252.7764286975098 69.8438025442505,251.40042869750977 C68.1058025442505,253.23042869750975 65.43980254425048,256.52842869750975 62.04080254425048,262.2554286975097 C55.755802544250486,272.85742869750976 58.40180254425049,283.78342869750975 58.40180254425049,283.78342869750975 L63.364802544250495,272.8544286975098 L65.18480254425049,277.49042869750974 L66.34280254425049,265.4024286975098 L68.4928025442505,268.0514286975098 L69.48480254425048,263.4144286975098 L71.4688025442505,266.06142869750977 L72.52780254425049,258.76942869750974 C74.28980254425049,261.5694286975098 76.47680254425049,265.6564286975098 78.1028025442505,270.50842869750977 C78.4508025442505,270.54242869750976 79.55180254425049,270.5994286975098 80.9778025442505,270.0264286975098 C81.89680254425049,269.6574286975098 82.39680254425049,269.0794286975098 82.68380254425048,268.6304286975097 C82.28080254425049,267.6304286975097 81.8408025442505,266.6904286975098 81.32980254425048,265.8634286975098 C78.35380254425048,261.04342869750974 76.3768025442505,257.7414286975098 75.05880254425048,255.47542869750976 L75.44080254425049,253.3104286975098 L82.8858025442505,265.5654286975098 L83.7098025442505,261.4254286975098 L89.83080254425049,268.87642869750977 L88.67380254425049,263.9074286975098 L95.78580254425049,273.01442869750974 C95.78580254425049,273.01442869750974 96.4478025442505,272.1854286975098 96.61380254425049,271.1954286975098 C96.77780254425049,270.2004286975098 96.1178025442505,268.5444286975098 96.1178025442505,268.5444286975098 L102.56880254425049,276.32842869750976 C102.56880254425049,276.32842869750976 103.22980254425049,267.38642869750976 92.64280254425049,257.78042869750976 C88.13680254425049,253.69342869750977 79.66980254425049,251.15342869750975 75.15580254425049,250.02542869750977 C78.96480254425049,249.64442869750974 82.2218025442505,250.8824286975098 87.84580254425049,252.98042869750975 C94.95880254425049,255.6274286975098 100.41580254425048,262.5844286975098 100.41580254425048,262.5844286975098 S100.41580254425048,260.7624286975098 100.41580254425048,259.7704286975098 C100.41580254425048,258.7774286975098 98.5968025442505,257.45342869750976 98.5968025442505,257.45342869750976 S100.41580254425048,258.11542869750974 102.0728025442505,259.10942869750977 C103.72580254425048,260.10042869750976 105.54580254425049,261.59042869750976 105.54580254425049,261.59042869750976 L103.89180254425048,257.7814286975098 C103.89180254425048,257.7814286975098 106.8708025442505,260.0984286975098 108.85480254425049,261.2604286975097 C110.8408025442505,262.41842869750974 114.47880254425048,262.91742869750976 114.47880254425048,262.91742869750976 S114.4808025442505,261.92842869750973 105.8798025442505,254.97242869750977 zM83.00580254425049,284.7894286975098 C81.40480254425049,284.94842869750977 80.67080254425049,284.47042869750976 80.3558025442505,284.13342869750977 C80.30980254425049,287.4574286975097 79.83680254425049,290.6934286975098 79.14080254425049,293.7484286975098 C79.90980254425048,294.10242869750977 81.19680254425049,294.6084286975098 82.28980254425049,294.6084286975098 C83.47880254425048,294.6084286975098 84.77980254425049,293.76642869750975 85.43680254425048,293.2774286975098 C85.54680254425048,289.8684286975098 85.54680254425048,286.37042869750974 85.3528025442505,282.9864286975098 C84.94080254425049,283.8054286975098 84.22280254425048,284.6664286975098 83.00580254425049,284.7894286975098 z" stroke-width="0" id="svg_22" stroke="null" transform=""/></g></g></g></g><defs><mask id="canvasMaskImageDef" maskUnits="objectBoundingBox" x="0" y="0"><image xmlns:xlink="http://www.w3.org/1999/xlink" id="canvasMaskImage" preserveAspectRatio="none" x="-103.65" y="-36.45" width="400" height="440.0580551523948" xlink:href="http://allinonedesigner.designnbuy.in/media/catalog/product/w/h/white-tees-1_-front_1_3.png"/></mask></defs></svg>