<?xml version="1.0" encoding="utf-8"?>
<!-- Generator: Adobe Illustrator 16.0.3, SVG Export Plug-In . SVG Version: 6.00 Build 0)  -->
<!DOCTYPE svg PUBLIC "-//W3C//DTD SVG 1.1 Tiny//EN" "http://www.w3.org/Graphics/SVG/1.1/DTD/svg11-tiny.dtd">
<svg version="1.1" baseProfile="tiny" id="Layer_1" xmlns="http://www.w3.org/2000/svg" xmlns:xlink="http://www.w3.org/1999/xlink"
	 x="0px" y="0px" width="155.465px" height="42.006px" viewBox="0 0 155.465 42.006" xml:space="preserve">
<path fill-rule="evenodd" d="M6.638,7.247C5.886,4.143,4.812,2.603,2.65,0.155c3.749,1.803,5.468,2.352,6.662,6.292
	c1.576,5.229,3.116,7.247,7.701,8.44c3.271,0.86,5.54,0.717,6.936,1.397c2.328,1.134,2.639,3.355,3.534,9.336
	c0.919-0.608,1.791-0.632,2.877-0.871l-1.265-4.871c-1.779-6.865,7.318-8.453,11.425-7.951c13.18,1.647,22.492,5.086,36.771,5.181
	c13.121,0.096,25.907-4.238,38.861-5.336c6.255-0.525,11.162,3.247,10.207,7.008c-0.501,1.982-0.931,3.94-1.456,5.922
	c1.254,0.263,2.185,0.549,3.318,1.146c0.311-1.373,0.824-4.907,1.241-6.721c1.374-5.886,12.739-1.576,15.39-9.085
	c2.017-6.077,0.824-6.865,7.425-10.041l-1.457,3.2c-2.781,3.355-2.674,8.5-4.117,12.547c2.506-2.901,5.336-3.271,8.762-2.865
	c-6.457,3.056-7.078,5.611-9.98,11.962c-2.113,4-7.043,3.737-11.138,4.322c-0.537,2.018-1.026,6.913-2.161,10.53
	c-0.525,1.647-2.865,2.698-5.813,1.624c-3.033-1.086-6.006-2.507-9.026-2.806c-4.572-0.454-7.426,0.704-12.858,0.441
	c-4.357-0.203-1.659-4.799-0.872-7.378c-16.643,4.381-34.264,4.728-51.026,0.525c0.537,1.851,1.886,6.328-1.54,6.889
	c-2.782,0.465-9.539-1.6-15.019-0.274c-4.405,1.063-12.058,6.351-12.906,0.776c-0.561-3.749-1.707-8.536-2.316-10.554
	c-4.107-0.49-8.966,0.048-11.007-4.489C7.104,18.481,5.468,15.293,0,13.658c3.164-0.513,4.692-1.624,8.381,1.707
	C7.39,12.536,7.33,10.136,6.638,7.247z M131.516,38.896c-0.071-1.11-1.253-2.244-2.495-2.901c-1.157-0.609-1.861-1.528-1.743-2.507
	l0.932-6.626c-1.277-0.74-2.447-1.182-3.844-1.456l-1.97,7.963c-0.382,1.576-0.931,3.354-4.035,3.247
	c-1.337-0.06-3.665-0.705-5.862-1.767c-2.411-1.17-4.477-1.779-6.041-1.839c-1.934-0.083-2.984,1.027-3.342,2.232
	c-1.696,5.719,7.832,0.979,15.472,2.412c5.265,0.991,7.498,3.152,9.921,3.235C130.43,40.949,131.29,40.066,131.516,38.896z
	 M128.543,40.245c-2.424-0.083-4.656-2.232-9.909-3.223c-6.208-1.17-13.669,1.743-15.329-0.191c0.907,2.34,9.121-0.657,15.329,0.501
	c5.253,0.991,7.485,3.151,9.909,3.235c1.206,0.036,2.197-0.262,2.472-1.146C130.538,39.958,129.75,40.293,128.543,40.245z
	 M117.322,29.596c-4.048-1.755-9.181,0.203-12.811,1.146l-0.8,2.662c2.603-1.97,5.814-0.645,9.205,1.003
	c3.295,1.612,7.617,2.925,8.429-0.048C121.727,32.915,119.482,30.539,117.322,29.596z M77.637,18.362
	c-11.938-0.299-31.781-5.241-37.881-5.468c-5.695-0.227-10.792,2.794-9.85,6.34l3.713,14.016c0.991-2.173,3.666-5.969,10.077-4.811
	c8.094,1.445,14.947,5.002,33.941,5.695c18.97-0.692,25.823-4.25,33.918-5.695c6.411-1.158,10.386,3.092,10.076,4.811l3.713-14.016
	c0.943-3.546-4.155-6.567-9.849-6.34C109.394,13.121,89.552,18.063,77.637,18.362z M150.488,1.981
	c-4.145,1.839-3.678,6.125-5.517,10.112c-1.838,3.988-9.503,4.143-11.808,4.764c-2.304,0.608-3.127,2.005-3.378,3.677l-1.684,11.342
	c0.466-1.684,1.838-2.914,4.143-3.522c2.292-0.621,10.733-0.311,12.571-4.298c1.838-3.987,3.045-8.226,7.188-10.064
	c-3.869-0.036-5.66,2.973-8.071,6.662c1.67-3.856,2.866-6.853,3.377-9.575C147.955,7.701,147.896,4.812,150.488,1.981z
	 M128.281,32.64c-0.788,3.582,3.021,1.875,3.57,5.373c0.43-2.28,0.932-6.746,1.981-9.169
	C132.292,28.844,129.535,29.858,128.281,32.64z M130.179,19.985l-0.251,1.242c1.325-3.367,4.382-4.023,5.672-4.143
	C134.12,17.12,131.768,17.263,130.179,19.985z M128.758,29.453l-0.25,1.242c1.325-3.367,4.381-4.023,5.671-4.143
	C132.699,26.587,130.346,26.731,128.758,29.453z M128.925,28.402c1.576-2.722,3.929-2.865,5.409-2.901
	c-1.29,0.119-4.346,0.776-5.659,4.143L128.925,28.402z M129.081,27.352c1.576-2.722,3.929-2.877,5.421-2.901
	c-1.302,0.12-4.347,0.776-5.671,4.143L129.081,27.352z M129.236,26.301c1.589-2.722,3.94-2.877,5.421-2.901
	c-1.29,0.119-4.347,0.776-5.672,4.143L129.236,26.301z M129.391,25.238l-0.251,1.254c1.325-3.367,4.382-4.023,5.672-4.155
	C133.332,22.373,130.979,22.528,129.391,25.238z M129.546,24.188l-0.251,1.254c1.325-3.379,4.382-4.023,5.672-4.155
	C133.487,21.322,131.134,21.466,129.546,24.188z M129.714,23.137c1.575-2.722,3.928-2.865,5.408-2.901
	c-1.29,0.131-4.347,0.776-5.66,4.155L129.714,23.137z M129.869,22.087c1.589-2.722,3.94-2.866,5.421-2.901
	c-1.302,0.131-4.347,0.776-5.672,4.155L129.869,22.087z M135.445,18.135c-1.29,0.12-4.347,0.776-5.672,4.143l0.251-1.241
	C131.612,18.314,133.964,18.17,135.445,18.135z M125.093,18.588c-0.394-2.603-3.642-4.704-7.008-4.955
	c3.892,0.776,6.173,2.483,6.912,5.349L125.093,18.588z M121.834,31.422l-0.131,0.609c-1.003-3.069-3.629-3.904-7.044-4.466
	C118.766,27.817,120.963,28.975,121.834,31.422z M122.049,30.575c-0.836-2.459-3.104-3.688-7.164-3.939
	c3.439,0.584,6.053,1.468,7.044,4.525C121.966,30.969,122.001,30.766,122.049,30.575z M122.264,29.715
	c-0.799-2.471-3.14-3.761-7.151-4.011c3.474,0.597,6.053,1.552,7.032,4.584C122.181,30.097,122.228,29.906,122.264,29.715z
	 M122.479,28.855c-0.764-2.483-3.175-3.82-7.139-4.071c3.51,0.597,6.064,1.611,7.02,4.644
	C122.407,29.238,122.443,29.047,122.479,28.855z M122.694,27.996c-0.728-2.483-3.211-3.892-7.127-4.143
	c3.545,0.621,6.077,1.683,7.02,4.704C122.623,28.366,122.658,28.187,122.694,27.996z M122.92,27.148
	c-0.716-2.507-3.259-3.976-7.115-4.226c3.57,0.632,6.077,1.755,6.996,4.763C122.837,27.507,122.873,27.328,122.92,27.148z
	 M123.136,26.289c-0.036,0.179-0.072,0.346-0.12,0.525c-0.895-2.997-3.39-4.179-6.984-4.823
	C119.84,22.242,122.455,23.782,123.136,26.289z M123.351,25.429c-0.036,0.179-0.072,0.347-0.108,0.513
	c-0.883-2.972-3.354-4.214-6.984-4.883C120.02,21.322,122.706,22.91,123.351,25.429z M123.565,24.582
	c-0.036,0.155-0.072,0.322-0.107,0.49c-0.86-2.961-3.307-4.262-6.973-4.943C120.199,20.391,122.957,22.051,123.565,24.582z
	 M123.78,23.722c-0.036,0.155-0.071,0.322-0.107,0.478c-0.836-2.949-3.259-4.31-6.96-4.99
	C120.378,19.46,123.207,21.179,123.78,23.722z M124.007,22.863c-0.549-2.555-3.451-4.334-7.068-4.585
	c3.737,0.705,6.125,2.113,6.96,5.063C123.935,23.173,123.971,23.018,124.007,22.863z M124.222,22.003
	c-0.513-2.555-3.486-4.394-7.043-4.656c3.749,0.716,6.125,2.197,6.937,5.122C124.15,22.313,124.186,22.158,124.222,22.003z
	 M124.437,21.155c-0.478-2.579-3.522-4.477-7.032-4.74c3.785,0.729,6.137,2.269,6.937,5.181
	C124.365,21.442,124.401,21.299,124.437,21.155z M124.652,20.296c-0.442-2.579-3.558-4.549-7.021-4.812
	c3.82,0.752,6.148,2.34,6.925,5.241C124.592,20.582,124.628,20.439,124.652,20.296z M117.859,14.553
	c3.856,0.764,6.16,2.412,6.912,5.301c0.036-0.131,0.071-0.275,0.107-0.417C124.448,16.845,121.273,14.816,117.859,14.553z
	 M124.473,27.053c-0.036,0.132-0.072,0.263-0.119,0.394c1.075,0.358,2.148,0.717,3.235,1.075c0.024-0.12,0.048-0.239,0.071-0.358
	C126.598,27.793,125.536,27.423,124.473,27.053z M124.258,27.996c1.073,0.37,2.148,0.74,3.224,1.099
	c-0.024,0.119-0.049,0.227-0.072,0.346c-1.087-0.358-2.173-0.716-3.271-1.075C124.174,28.247,124.21,28.115,124.258,27.996z
	 M124.031,28.939c-0.036,0.107-0.071,0.227-0.107,0.334c1.11,0.358,2.221,0.716,3.319,1.075c0.023-0.096,0.048-0.203,0.071-0.311
	C126.216,29.667,125.118,29.31,124.031,28.939z M123.804,29.883c1.11,0.358,2.22,0.728,3.331,1.086
	c-0.024,0.107-0.036,0.203-0.06,0.298c-1.123-0.358-2.245-0.716-3.367-1.074C123.732,30.085,123.768,29.99,123.804,29.883z
	 M123.577,30.826c-0.036,0.095-0.06,0.191-0.095,0.274c1.146,0.358,2.292,0.716,3.426,1.075l0.048-0.263
	C125.833,31.554,124.699,31.184,123.577,30.826z M123.351,31.769c1.146,0.358,2.292,0.717,3.438,1.075l-0.048,0.25
	c-1.157-0.358-2.315-0.716-3.474-1.074L123.351,31.769z M123.124,32.712l-0.072,0.227l3.522,1.062l0.036-0.214L123.124,32.712z
	 M127.839,27.22l-0.084,0.395l-3.175-1.075l0.119-0.43L127.839,27.22z M26.969,40.89c2.424-0.083,4.656-2.245,9.909-3.235
	c7.641-1.433,17.168,3.307,15.473-2.412c-0.358-1.206-1.409-2.316-3.343-2.232c-1.564,0.06-3.629,0.669-6.041,1.839
	c-2.197,1.062-4.525,1.707-5.862,1.767c-3.104,0.107-3.641-1.671-4.035-3.247l-1.97-7.963c-1.385,0.274-2.567,0.716-3.844,1.456
	l0.943,6.626c0.107,0.979-0.597,1.898-1.755,2.507c-1.229,0.657-2.423,1.791-2.495,2.901C24.188,40.066,25.047,40.949,26.969,40.89z
	 M24.45,39.421c0.287,0.884,1.266,1.182,2.472,1.146c2.423-0.083,4.656-2.244,9.909-3.235c6.22-1.158,14.422,1.838,15.341-0.501
	c-1.671,1.934-9.121-0.979-15.341,0.191c-5.253,0.991-7.486,3.14-9.909,3.223C25.716,40.293,24.928,39.958,24.45,39.421z
	 M34.133,34.359c0.8,2.973,5.122,1.66,8.417,0.048c3.391-1.647,6.603-2.973,9.205-1.003l-0.8-2.662
	c-3.629-0.943-8.763-2.901-12.81-1.146C35.983,30.539,33.739,32.915,34.133,34.359z M8.154,11.079
	c0.525,2.722,1.708,5.718,3.379,9.575c-2.412-3.689-4.203-6.698-8.071-6.662c4.143,1.838,5.349,6.077,7.188,10.064
	c1.838,3.988,10.279,3.677,12.571,4.298c2.304,0.608,3.689,1.838,4.143,3.522L25.68,20.535c-0.251-1.672-1.075-3.069-3.379-3.677
	c-2.292-0.621-9.957-0.776-11.807-4.764C8.655,8.106,9.121,3.82,4.979,1.981C7.569,4.812,7.521,7.701,8.154,11.079z M21.633,28.844
	c1.051,2.423,1.552,6.889,1.982,9.169c0.561-3.498,4.357-1.791,3.57-5.373C25.931,29.858,23.173,28.844,21.633,28.844z
	 M25.286,19.985c-1.588-2.722-3.939-2.866-5.42-2.901c1.289,0.119,4.345,0.776,5.67,4.143L25.286,19.985z M26.707,29.453
	l0.251,1.242c-1.325-3.367-4.381-4.023-5.671-4.143C22.767,26.587,25.119,26.731,26.707,29.453z M26.552,28.402
	c-1.588-2.722-3.94-2.865-5.42-2.901c1.29,0.119,4.346,0.776,5.671,4.143L26.552,28.402z M26.384,27.352
	c-1.576-2.722-3.928-2.877-5.408-2.901c1.29,0.12,4.346,0.776,5.659,4.143L26.384,27.352z M26.229,26.301
	c-1.576-2.722-3.94-2.877-5.42-2.901c1.301,0.119,4.346,0.776,5.671,4.143L26.229,26.301z M26.074,25.238l0.25,1.254
	c-1.325-3.367-4.381-4.023-5.671-4.155C22.134,22.373,24.486,22.528,26.074,25.238z M25.919,24.188l0.25,1.254
	c-1.325-3.379-4.381-4.023-5.671-4.155C21.979,21.322,24.331,21.466,25.919,24.188z M25.764,23.137
	c-1.588-2.722-3.94-2.865-5.42-2.901c1.29,0.131,4.346,0.776,5.671,4.155L25.764,23.137z M25.597,22.087
	c-1.576-2.722-3.928-2.866-5.409-2.901c1.29,0.131,4.346,0.776,5.659,4.155L25.597,22.087z M20.021,18.135
	c1.301,0.12,4.345,0.776,5.67,4.143l-0.25-1.241C23.854,18.314,21.501,18.17,20.021,18.135z M30.277,18.684l0.095,0.406
	c0.729-2.877,3.021-4.584,6.901-5.36C33.917,13.992,30.659,16.082,30.277,18.684z M33.536,31.53l0.119,0.609
	c1.015-3.068,3.642-3.904,7.056-4.465C36.592,27.925,34.395,29.083,33.536,31.53z M33.321,30.67
	c0.824-2.459,3.092-3.677,7.151-3.928c-3.438,0.573-6.041,1.469-7.032,4.524C33.393,31.076,33.357,30.874,33.321,30.67z
	 M33.094,29.823c0.812-2.471,3.152-3.761,7.151-4.012c-3.474,0.597-6.053,1.541-7.032,4.585
	C33.177,30.205,33.142,30.014,33.094,29.823z M32.879,28.963c0.776-2.483,3.188-3.82,7.14-4.083c-3.51,0.609-6.065,1.624-7.02,4.644
	C32.963,29.345,32.915,29.154,32.879,28.963z M32.664,28.104c0.74-2.483,3.224-3.892,7.127-4.143
	c-3.534,0.609-6.077,1.683-7.008,4.704C32.736,28.474,32.7,28.295,32.664,28.104z M32.449,27.256
	c0.705-2.507,3.259-3.976,7.116-4.226c-3.57,0.633-6.089,1.755-7.008,4.763C32.521,27.614,32.485,27.435,32.449,27.256z
	 M32.234,26.396c0.036,0.167,0.072,0.347,0.107,0.526c0.896-2.997,3.391-4.179,6.996-4.823
	C35.529,22.349,32.903,23.889,32.234,26.396z M32.007,25.537c0.036,0.167,0.072,0.346,0.12,0.514
	c0.884-2.985,3.343-4.215,6.972-4.883C35.351,21.418,32.652,23.018,32.007,25.537z M31.793,24.677
	c0.036,0.167,0.071,0.334,0.107,0.501c0.872-2.961,3.307-4.262,6.972-4.943C35.171,20.499,32.401,22.146,31.793,24.677z
	 M31.578,23.83c0.036,0.155,0.072,0.322,0.108,0.478c0.847-2.949,3.271-4.31,6.96-5.002C34.992,19.567,32.151,21.287,31.578,23.83z
	 M31.363,22.97c0.537-2.555,3.45-4.334,7.056-4.584c-3.725,0.704-6.125,2.113-6.948,5.05C31.435,23.28,31.398,23.125,31.363,22.97z
	 M31.136,22.11c0.525-2.555,3.498-4.405,7.056-4.656c-3.761,0.716-6.137,2.185-6.948,5.122
	C31.208,22.421,31.172,22.266,31.136,22.11z M30.921,21.263c0.49-2.579,3.534-4.477,7.044-4.74
	c-3.796,0.729-6.148,2.268-6.937,5.182C30.993,21.549,30.957,21.406,30.921,21.263z M30.707,20.403
	c0.453-2.579,3.569-4.549,7.02-4.812c-3.82,0.752-6.148,2.34-6.913,5.241C30.778,20.69,30.742,20.546,30.707,20.403z M37.5,14.661
	c-3.845,0.764-6.161,2.412-6.913,5.301c-0.036-0.143-0.06-0.275-0.096-0.417C30.909,16.953,34.097,14.923,37.5,14.661z
	 M30.993,27.053c-1.063,0.371-2.125,0.74-3.188,1.111c0.024,0.119,0.048,0.238,0.083,0.358c1.075-0.358,2.149-0.716,3.223-1.075
	C31.064,27.316,31.028,27.185,30.993,27.053z M31.22,27.996c-1.086,0.37-2.161,0.74-3.235,1.099
	c0.024,0.119,0.047,0.227,0.072,0.346c1.086-0.358,2.185-0.716,3.271-1.075C31.292,28.247,31.255,28.115,31.22,27.996z
	 M31.435,28.939c0.036,0.107,0.071,0.227,0.107,0.334c-1.11,0.358-2.208,0.716-3.319,1.075c-0.024-0.096-0.048-0.203-0.06-0.311
	C29.25,29.667,30.348,29.31,31.435,28.939z M31.661,29.883c-1.11,0.358-2.22,0.728-3.331,1.086c0.024,0.107,0.036,0.203,0.06,0.298
	c1.122-0.358,2.245-0.716,3.367-1.074C31.733,30.085,31.697,29.99,31.661,29.883z M31.888,30.826
	c0.036,0.095,0.06,0.191,0.096,0.274c-1.146,0.358-2.281,0.716-3.427,1.075l-0.048-0.263C29.632,31.554,30.766,31.184,31.888,30.826
	z M32.115,31.769c-1.146,0.358-2.292,0.717-3.427,1.075l0.036,0.25c1.158-0.358,2.316-0.716,3.474-1.074L32.115,31.769z
	 M32.342,32.712l0.072,0.227l-3.522,1.062l-0.036-0.214L32.342,32.712z M27.626,27.22l0.095,0.395l3.176-1.075l-0.132-0.43
	L27.626,27.22z"/>
</svg>
