<?xml version="1.0" encoding="utf-8"?>
<!-- Generator: Adobe Illustrator 16.0.0, SVG Export Plug-In . SVG Version: 6.00 Build 0)  -->
<!DOCTYPE svg PUBLIC "-//W3C//DTD SVG 1.1//EN" "http://www.w3.org/Graphics/SVG/1.1/DTD/svg11.dtd">
<svg version="1.1" id="Layer_1" xmlns="http://www.w3.org/2000/svg" xmlns:xlink="http://www.w3.org/1999/xlink" x="0px" y="0px"
	 width="100px" height="100px" viewBox="0 0 100 100" enable-background="new 0 0 100 100" xml:space="preserve">
<path fill="#B19BCA" d="M70.921,56.053c-2.489-1.426-0.173-7.068-0.173-7.068c-2.193-0.745-0.364-6.578-0.364-6.578
	c-1.577-4.341,1.122-10.964,1.122-10.964S61.782,39.643,59.492,42c-0.012-4.529,0.517-9.65,2.068-14.982
	c1.942-6.679,0.789-11.867-1.838-15.256c1.637-1.581,3.245-1.758,3.795-2.072c0.48-0.275-0.168-0.476-0.168-0.476
	c-3.776-0.781-3.771-3.26-3.578-3.882c0.084-0.271-0.289-0.227-0.289-0.227c-3.196,0.146-4.241-0.577-5.207-2.359
	c0,0-0.346-0.564-0.619-0.334c-2.789,2.337-6.311-2.113-5.738-0.083c0.65,2.303,0.516,4.506,0.466,5.076
	c-2.038,0.391-3.917,1.026-5.167,1.929c-2.853,2.06-4.052,3.358-6.45,11.834c-0.868,2.084-3.292,2.498-5.167,2.57
	c-2.526,0.096-3.03,0.648-3.03,0.648s-2.079,5.866,4.272,7.532c0,0,2.1-2.81,5.231-4.414c0.648-0.333,1.231-0.397,1.677-0.644
	c2.045,2.744,5.88,3.968,11.543,1.826c0,0-1.699,0.859-7.83,6.416c-6.839,6.2-15.015,24.126,6.802,34.395
	c0,0,8.471,2.438,3.85,16.685c-4.62,14.244-17.485,7.078-14.758,1.797c1.894-3.672,2.862,1.078,4.332-0.599
	c0.282-0.345,0.161-0.659,0.109-0.901c0,0-1.702-4.936-6.624-1.58c-4.711,3.209-1.154,14.5,8.855,13.218
	c10.011-1.283,21.432-16.042,16.17-38.886c0,0-0.083-0.221-0.219-0.635l9.219,3.766C69.148,61.088,70.921,56.053,70.921,56.053z
	 M71.202,62.361c0.159,0.1,0.344,0.178,0.553,0.227L71.202,62.361z"/>
<path fill="#7D52A1" d="M43.996,15.965c0.044,1.066,0.671,1.908,1.398,1.877c0.726-0.032,1.279-0.92,1.235-1.987
	c-0.046-1.066-0.671-1.906-1.398-1.875C44.503,14.01,43.951,14.899,43.996,15.965z M51.395,15.647
	c0.379-0.659,2.506-0.396,3.379-2.373c0,0,0.228,0.922,0.76,1.23c0,0,0.189,2.241,0.455,2.328c0,0-0.569,1.318-0.569,1.626
	c0,0-0.987,0.922-0.874,1.318c0,0-1.48-2.329-3.227-2.417C51.316,17.36,51.061,16.225,51.395,15.647z M52.426,45.594
	c0,0-2.875-3.102-6.492-0.824c0,0,0.693,4.507-4.56,6.107c0,0,2.23,1.6,2.528,2.278c0,0,3.816,1.064,4.064,1.551
	c0,0,3.173-0.291,4.114,0c0,0,2.182-1.601,3.222-1.601C55.301,53.105,51.584,50.295,52.426,45.594z"/>
</svg>
