<?xml version="1.0" encoding="utf-8"?>
<!-- Generator: Adobe Illustrator 15.1.0, SVG Export Plug-In . SVG Version: 6.00 Build 0)  -->
<!DOCTYPE svg PUBLIC "-//W3C//DTD SVG 1.1//EN" "http://www.w3.org/Graphics/SVG/1.1/DTD/svg11.dtd">
<svg version="1.1" id="Layer_1" xmlns="http://www.w3.org/2000/svg" xmlns:xlink="http://www.w3.org/1999/xlink" x="0px" y="0px"
	 width="100px" height="100px" viewBox="0 0 100 100" enable-background="new 0 0 100 100" xml:space="preserve">
<path fill-rule="evenodd" clip-rule="evenodd" d="M93.225,66.469c-0.55-0.251-1.656-0.794-1.87-0.732
	c-0.365-0.244-0.783-0.398-1.181-0.569c-0.506-0.216-2.779-0.502-3.13-0.08c-0.545-0.054-0.933-0.656-1.588-0.896
	c-0.98-0.36-2.135-1.458-3.374-2.195c-0.752-0.448-2.144-1.925-2.561-1.872c0.081-0.111-0.039-0.042,0.081-0.122
	c-1.542-1.046-2.573-1.717-3.74-2.845c0.038,0.014,0.079,0.026,0.119,0.04c-1.02-1.113-3.272-0.8-5.042-1.139
	c-0.632-0.121-2.474-1.268-3.088-1.789c0.039,0.013,0.08,0.026,0.122,0.04c-0.105-0.377-0.974-0.941-1.303-1.139
	c0,0-0.476-0.604-0.691-0.772c-0.822-0.642-2.055-1.783-2.683-2.603c-1.409-1.837-2.53-2.112-4.23-3.089
	c0.078-0.057-0.068-0.187-0.162-0.163c-0.019,0.004-1.115-0.732-1.464-0.935c-0.633-0.368-1.8-0.795-2.114-0.935
	c-0.353-0.157-1.122-0.155-1.381-0.407c-0.042,0.063-0.624,0.113-0.938,0c0,0-2.318-0.186-2.602-0.123
	c-0.259,0.042-0.512,0.082-0.771,0.123c-0.228-0.129-0.643-0.266-1.06-0.203c-0.317,0.047-0.756,0.279-1.177,0.039
	c-0.511-0.29-1.703-1.073-2.238-1.342c-0.558-0.278-1.583-0.245-2.277-0.69c-0.122,0-0.244,0-0.365,0
	c-0.267-0.162-0.526-0.524-0.977-0.691c-0.695-0.256-1.847-0.282-2.235-0.447c-1.663-0.705-3.742-1.342-5.451-2.196
	c-0.107,0-0.216,0-0.324,0l-1.87-0.692c-0.893-0.843-1.5-2.331-2.4-3.536c-1.599-1.545-3.198-3.091-4.798-4.636
	c-0.392-0.285-0.786-0.569-1.179-0.854c-0.488-0.479-1.037-1.325-1.586-1.586c-0.502,0.054-1.003,0.109-1.503,0.163
	c-1.54,0.281-3.012,0.379-4.392,0.691c-2.069,0.468-3.696,0.917-5.409,1.464c-0.773,0.163-1.543,0.326-2.317,0.489
	C7.5,30.572,6.851,30.98,6.408,31.456c-0.094,0.177-0.189,0.354-0.286,0.53c-0.819,0.563-1.158,0.678-1.707,1.544
	c-0.47,0.743-0.707,1.578-1.179,2.278c-0.338,0.499-0.838,0.762-1.139,1.342c0.423,0.298,0.83,0.167,1.139,0.569
	c1.004-0.271,1.202-1.636,1.666-2.359c0.381-0.041,0.762-0.083,1.139-0.122c0.028,0.039,0.054,0.081,0.082,0.122
	c0.027-0.014,0.055-0.027,0.082-0.041c-0.013,0.257-0.024,0.086,0.082,0.244c-0.2,0.348-0.593,1.793-0.202,2.277
	c0.307,0.205,0.71-0.333,0.853-0.569c0.123-0.488,0.245-0.976,0.367-1.464c0.407-0.651,0.813-1.301,1.22-1.951
	c0.168-0.517-0.053-1.11,0.327-1.383c1.459-1.054,6.85-0.76,8.822-0.447c0.855,0.04,1.709,0.081,2.562,0.123
	c1.052,0.282,1.187,1.732,1.789,2.479c0.964,0.99,1.928,1.98,2.889,2.97c0.149,0.5,0.297,1.003,0.447,1.503
	c0.473,0.855,0.95,1.709,1.423,2.563c0.438,0.601,1.448,0.822,1.789,1.464c-0.068,0.963-1.977,1.488-2.968,1.058
	c-0.55-0.239-1.497-0.742-1.831-1.221c-0.927-1.328-2.314-3.351-4.919-2.276c-1.57,0.646-3.004,2.532-3.417,4.35
	c-0.447,1.98,0.936,4.419,2.441,4.596c0.182,0.32,0.283,1.201,0.608,1.381c0.365,0.148,0.599-0.084,0.935-0.122
	c0.204,0.259,0.407,0.517,0.611,0.773c0.612,0.021,2.581,0.644,3.171,0.204c0.479-0.359,0.728-2.141,1.138-2.278
	c0.34,0.094,0.679,0.19,1.018,0.285c0.42,0.122,0.839,0.244,1.259,0.367c0.424,0.272,0.741,2.065,0.489,2.927
	c-0.164,0.231-0.325,0.461-0.489,0.691c-0.079,0.476-0.162,0.949-0.243,1.425c-0.109,0.407-0.354,0.762-0.445,1.26
	c0.024,1.138,0.052,2.277,0.08,3.416c0.136,0.595,0.271,1.193,0.406,1.789c-0.135,0.217-0.27,0.433-0.406,0.65
	c-0.463,1.498-0.004,7.263,0.53,8.092c0.447,0.34,0.895,0.677,1.342,1.017c1.396,0,2.791,0,4.187,0
	c0.896-0.23,1.791-0.461,2.683-0.691c0.959,0.212,1.372,0.958,2.48,1.139c0.64-0.095,1.275-0.189,1.913-0.284
	c0.38,0.135,0.758,0.271,1.137,0.406c0.407-0.055,0.813-0.108,1.219-0.162c0.491,0.013,0.979,0.026,1.464,0.04
	c0.407-0.04,0.816-0.082,1.221-0.121c0.083-0.095,0.164-0.19,0.245-0.285c-1.254-0.961-2.566-2.364-4.31-2.767
	c-0.922-0.013-1.845-0.025-2.765-0.039c-0.688-0.104-1.424,0.092-2.155-0.041c-0.49-0.108-0.976-0.217-1.466-0.326
	c-0.487,0.055-0.975,0.109-1.462,0.163c-0.387-0.093-1.756-0.933-2.237-1.179c-0.214-0.823-0.056-2.438,0.121-3.456
	c0.463-2.665-0.151-5.89,2.075-6.791c1.536-0.623,3.497-0.308,5.286-0.61c0.46,0,0.921,0,1.383,0
	c0.777-0.176,1.963-0.642,2.805-0.447c0.623,0.055,1.249,0.108,1.869,0.162c0.624-0.014,1.25-0.026,1.87-0.041
	c0.657,0.187,0.842,0.896,1.344,1.221c0.328,0.212,0.663,0.338,0.854,0.528c0.592,0.164,1.585,0.669,2.356,1.017
	c0.653,0.217,1.304,0.434,1.954,0.65c1.221,0.75,3.509,1.626,4.431,2.156c0.378,0.216,0.873,0.187,1.221,0.324
	c0,0.027,0,0.055,0,0.083c0.814,0.216,1.626,0.434,2.439,0.649c1.34,0.325,3.279,0.614,4.637,0.936
	c0.727,0.172,1.361,0.076,2.113,0.326c1.438,0.42,2.874,0.84,4.312,1.26c0.835,0.521,1.296,1.593,2.317,1.952
	c0.468-0.229,2.281,0.243,3.131,0.243c2.924,0,5.506,0.226,8.539,0.204c0.768,0.591,1.427,1.348,2.278,1.87
	c1.07,0.5,2.141,1.004,3.212,1.505c0.807,0.487,1.556,1.009,2.563,1.342c1.187,0.392,2.646-0.22,3.008-0.854
	c0.027-0.218,0.054-0.435,0.082-0.651c0.212-0.341,0.357-0.141,0.324-0.772c0.148,0.068,0.298,0.135,0.447,0.204
	c0.042-0.218,0.082-0.434,0.123-0.652c0.258-0.041,0.515-0.08,0.773-0.121C97.922,67.064,94.815,67.194,93.225,66.469z"/>
</svg>
