<?xml version="1.0" encoding="utf-8"?>
<!-- Generator: Adobe Illustrator 16.0.0, SVG Export Plug-In . SVG Version: 6.00 Build 0)  -->
<!DOCTYPE svg PUBLIC "-//W3C//DTD SVG 1.1//EN" "http://www.w3.org/Graphics/SVG/1.1/DTD/svg11.dtd">
<svg version="1.1" id="Layer_1" xmlns="http://www.w3.org/2000/svg" xmlns:xlink="http://www.w3.org/1999/xlink" x="0px" y="0px"
	 width="100px" height="100px" viewBox="0 0 100 100" enable-background="new 0 0 100 100" xml:space="preserve">
<path fill="#F79320" d="M81.958,86.458c0.021-0.181,0.035-0.358,0.056-0.539l0.002,0.001c0.029-0.283,0.055-0.559,0.082-0.839
	c0.029-0.283,0.059-0.567,0.084-0.849c0.036-0.381,0.069-0.756,0.102-1.133c0.023-0.265,0.047-0.529,0.068-0.789
	c0.004-0.039,0.006-0.082,0.01-0.121h-0.002c0.076-0.953,0.14-1.887,0.193-2.803c0.002,0,0.002,0.002,0.004,0.002
	c0.008-0.152,0.016-0.302,0.023-0.451c0.01-0.174,0.02-0.351,0.027-0.522c0.026-0.522,0.053-1.041,0.072-1.551
	c0-0.017,0.002-0.033,0.002-0.052c0.021-0.529,0.036-1.053,0.049-1.569c0.004-0.148,0.008-0.296,0.012-0.443
	c0.003-0.159,0.007-0.321,0.009-0.479c0,0-0.001,0-0.002,0.002c0.021-1.182,0.021-2.327,0.003-3.438
	c0.001,0.001,0.003,0.001,0.003,0.001c-0.001-0.106-0.006-0.208-0.007-0.313c-0.008-0.419-0.02-0.831-0.031-1.239
	c-0.006-0.189-0.012-0.381-0.019-0.566c-0.019-0.496-0.041-0.983-0.068-1.467c-0.003-0.066-0.004-0.138-0.008-0.203
	c-0.001,0-0.001,0-0.001,0c-0.049-0.848-0.107-1.669-0.178-2.471h0.002c-0.01-0.124-0.022-0.244-0.033-0.365
	c-0.01-0.111-0.021-0.22-0.029-0.328c-0.039-0.399-0.078-0.797-0.121-1.187c-0.008-0.062-0.015-0.119-0.021-0.181
	c-0.039-0.353-0.082-0.699-0.127-1.043c-0.01-0.086-0.021-0.174-0.032-0.262c-0.011-0.076-0.021-0.154-0.03-0.23
	c-0.001,0.001-0.002,0.001-0.002,0.002c-0.138-1.008-0.293-1.973-0.462-2.899c0.001,0,0.002,0,0.003,0
	c-0.017-0.09-0.033-0.177-0.051-0.265c-0.025-0.145-0.055-0.286-0.082-0.43c-0.044-0.229-0.091-0.457-0.137-0.683
	c-0.026-0.12-0.051-0.241-0.076-0.362c-0.071-0.328-0.143-0.653-0.217-0.973c-0.021-0.091-0.043-0.178-0.064-0.266
	c-0.044-0.184-0.088-0.368-0.132-0.547c-0.001,0-0.002,0-0.002,0.002c-0.313-1.246-0.653-2.409-1.017-3.493h0.002
	c-0.076-0.228-0.153-0.453-0.23-0.673c-0.02-0.05-0.036-0.099-0.053-0.148c-0.084-0.228-0.166-0.454-0.249-0.675
	c-0.036-0.095-0.073-0.188-0.109-0.281c-0.065-0.169-0.13-0.336-0.196-0.5c-0.037-0.091-0.074-0.183-0.111-0.273
	c-0.02-0.045-0.036-0.093-0.057-0.138c0,0,0,0-0.002,0.001c-0.586-1.41-1.211-2.658-1.849-3.764c0.001,0,0.001,0,0.002,0
	c-0.036-0.064-0.073-0.125-0.108-0.188c-0.041-0.07-0.082-0.139-0.123-0.207c-0.084-0.14-0.168-0.276-0.252-0.411
	c-0.029-0.047-0.058-0.094-0.086-0.141c-0.111-0.176-0.223-0.348-0.334-0.517c-0.033-0.051-0.066-0.1-0.101-0.149
	c-0.08-0.119-0.16-0.237-0.24-0.352c-0.043-0.062-0.086-0.123-0.13-0.184c-0.07-0.101-0.145-0.202-0.215-0.299
	c-0.044-0.06-0.088-0.119-0.13-0.177c-0.08-0.107-0.161-0.212-0.241-0.315c-0.032-0.042-0.064-0.086-0.098-0.128
	C74.8,41.47,74.7,41.344,74.6,41.221l0,0c-1.576-1.923-3.068-3.101-4.154-3.793c3.168-1.813,5.242-4.593,5.4-7.673
	c0.002-0.049,0-0.098,0.002-0.147c0,0,0.002,0,0.004,0c0.004-0.128,0.004-0.258,0-0.386c0-0.014,0-0.027-0.002-0.041
	c-0.002-0.146-0.014-0.291-0.024-0.436c-0.005-0.047-0.009-0.094-0.015-0.142c-0.014-0.125-0.029-0.25-0.049-0.375
	c-0.007-0.034-0.011-0.068-0.017-0.102c-0.026-0.153-0.058-0.305-0.095-0.457c-0.008-0.04-0.021-0.08-0.03-0.12
	c-0.029-0.12-0.063-0.239-0.099-0.357c-0.014-0.042-0.025-0.083-0.037-0.124c-0.049-0.146-0.098-0.291-0.152-0.434h-0.001
	c-0.133-0.344-0.29-0.683-0.47-1.015c0.113-0.703,0.189-1.422,0.228-2.155c0.021-0.375,0.024-0.747,0.021-1.117
	c0.002,0,0.004-0.001,0.004-0.001c0-0.103-0.006-0.204-0.008-0.307c-0.002-0.126-0.004-0.251-0.008-0.377
	c-0.007-0.146-0.017-0.29-0.025-0.434c-0.008-0.124-0.014-0.247-0.022-0.371c-0.013-0.149-0.028-0.297-0.044-0.445
	c-0.013-0.115-0.023-0.232-0.037-0.347c-0.021-0.171-0.047-0.341-0.072-0.512c-0.014-0.089-0.022-0.179-0.039-0.268
	c0-0.002,0-0.005,0-0.008l0,0c-0.239-1.446-0.643-2.822-1.182-4.105c1.026-0.791,2.164-3.405,2.695-5.661l0.001,0.002
	c0.026-0.113,0.052-0.225,0.073-0.337c0.002-0.002,0.002-0.005,0.002-0.008c0.029-0.132,0.054-0.262,0.078-0.39
	c0.006-0.037,0.012-0.074,0.019-0.109c0.017-0.102,0.032-0.201,0.047-0.299c0.005-0.031,0.009-0.062,0.013-0.093
	c0.018-0.125,0.031-0.247,0.043-0.366c0.002-0.016,0.002-0.031,0.004-0.047c0.008-0.102,0.015-0.2,0.02-0.297
	c0.001-0.031,0.002-0.061,0.003-0.092c0.002-0.088,0.003-0.172,0.001-0.255c0-0.021,0-0.042-0.001-0.063
	c-0.003-0.099-0.011-0.194-0.021-0.284c-0.004-0.02-0.006-0.037-0.008-0.056c-0.01-0.07-0.021-0.136-0.035-0.199
	c-0.006-0.023-0.012-0.046-0.018-0.068c-0.017-0.065-0.035-0.126-0.061-0.183c-0.004-0.009-0.006-0.02-0.01-0.03
	c-0.027-0.063-0.06-0.119-0.095-0.169c-0.01-0.014-0.021-0.025-0.028-0.038c-0.029-0.036-0.061-0.067-0.094-0.096
	c-0.014-0.01-0.025-0.021-0.039-0.031c-0.046-0.032-0.096-0.059-0.15-0.076c-0.18-0.056-0.359-0.104-0.537-0.148
	c-0.055-0.014-0.109-0.024-0.164-0.037C75.292,5.72,75.17,5.693,75.049,5.67c-0.063-0.012-0.125-0.022-0.188-0.033
	c-0.112-0.019-0.223-0.037-0.334-0.051c-0.063-0.008-0.125-0.016-0.187-0.023c-0.11-0.012-0.219-0.022-0.327-0.031
	c-0.059-0.004-0.117-0.009-0.174-0.012c-0.115-0.008-0.229-0.011-0.343-0.013C73.45,5.506,73.4,5.504,73.354,5.503
	c-0.146,0-0.287,0.001-0.429,0.007c-0.014,0.001-0.028,0-0.042,0.001c-0.156,0.008-0.313,0.02-0.466,0.033
	c-0.034,0.003-0.065,0.008-0.099,0.011c-0.115,0.012-0.23,0.025-0.344,0.042c-0.014,0.001-0.029,0.002-0.043,0.004
	c0,0,0.006,0,0.008,0.001c-2.491,0.368-4.229,1.65-4.758,2.086c-1.578-0.865-3.324-1.39-5.18-1.483
	c-1.294-0.066-2.557,0.085-3.764,0.417c-0.367-0.685-1.233-2.203-2.319-3.472h0.001c-0.281-0.33-0.577-0.642-0.884-0.919
	c-0.005-0.005-0.011-0.01-0.017-0.016C54.98,2.18,54.939,2.146,54.9,2.111c-0.014-0.011-0.024-0.022-0.039-0.034
	c-0.035-0.03-0.071-0.06-0.107-0.089c-0.018-0.014-0.033-0.027-0.051-0.041c-0.033-0.027-0.066-0.053-0.1-0.078
	c-0.021-0.016-0.041-0.031-0.061-0.046C54.512,1.8,54.48,1.777,54.447,1.755c-0.022-0.015-0.045-0.031-0.066-0.046
	c-0.029-0.022-0.063-0.042-0.093-0.062c-0.022-0.015-0.047-0.031-0.07-0.045c-0.028-0.02-0.06-0.037-0.09-0.055
	c-0.024-0.015-0.049-0.03-0.073-0.044c-0.029-0.016-0.058-0.032-0.088-0.047c-0.025-0.014-0.051-0.028-0.076-0.041
	c-0.029-0.015-0.058-0.028-0.086-0.042c-0.025-0.012-0.053-0.025-0.078-0.037c-0.029-0.012-0.059-0.024-0.086-0.036
	c-0.027-0.011-0.055-0.022-0.08-0.031c-0.027-0.011-0.057-0.021-0.084-0.03c-0.027-0.01-0.056-0.02-0.082-0.027
	c-0.028-0.008-0.057-0.016-0.084-0.023c-0.026-0.008-0.056-0.014-0.084-0.021c-0.025-0.005-0.054-0.012-0.08-0.017
	c-0.028-0.005-0.058-0.01-0.086-0.015c-0.026-0.003-0.054-0.007-0.08-0.011c-0.028-0.003-0.058-0.006-0.086-0.007
	c-0.025-0.002-0.054-0.004-0.08-0.005c-0.028-0.001-0.059-0.001-0.086-0.001c-0.026,0-0.054,0-0.078,0.002
	c-0.029,0.001-0.06,0.004-0.088,0.006c-0.025,0.002-0.051,0.006-0.078,0.009c-0.029,0.004-0.06,0.009-0.088,0.016
	c-0.024,0.004-0.051,0.009-0.076,0.015c-0.029,0.006-0.059,0.015-0.088,0.023c-0.024,0.007-0.051,0.014-0.076,0.022
	C52.13,1.217,52.102,1.229,52.07,1.24c-0.024,0.009-0.051,0.018-0.074,0.029c-0.029,0.012-0.059,0.027-0.089,0.042
	c-0.024,0.012-0.05,0.023-0.073,0.036c-0.029,0.017-0.061,0.034-0.09,0.052c-0.023,0.014-0.049,0.028-0.071,0.043
	c-0.03,0.02-0.06,0.042-0.09,0.063c-0.024,0.016-0.047,0.032-0.069,0.05c-0.031,0.023-0.062,0.049-0.093,0.075
	c-0.022,0.019-0.044,0.036-0.065,0.055c-0.031,0.028-0.063,0.06-0.094,0.09c-0.021,0.02-0.043,0.039-0.064,0.06
	c-0.031,0.033-0.063,0.069-0.096,0.106c-0.021,0.021-0.039,0.041-0.059,0.062c-0.036,0.041-0.07,0.086-0.105,0.13
	c-0.017,0.02-0.033,0.038-0.049,0.059c-0.05,0.066-0.101,0.135-0.15,0.208c-0.039,0.056-0.077,0.117-0.114,0.182
	c-0.013,0.021-0.024,0.044-0.036,0.066c-0.025,0.046-0.051,0.092-0.076,0.143c-0.014,0.029-0.028,0.06-0.042,0.089
	c-0.022,0.047-0.044,0.094-0.067,0.144c-0.015,0.035-0.03,0.071-0.045,0.108c-0.02,0.048-0.04,0.098-0.06,0.148
	c-0.015,0.041-0.031,0.082-0.046,0.124c-0.019,0.05-0.037,0.101-0.055,0.153c-0.016,0.045-0.031,0.09-0.046,0.137
	c-0.018,0.053-0.035,0.106-0.052,0.16C50.084,3.902,50.069,3.95,50.055,4c-0.017,0.058-0.034,0.116-0.05,0.174
	c-0.014,0.049-0.027,0.096-0.041,0.146c-0.003,0.014-0.007,0.028-0.011,0.042l0.001-0.003c-0.679,2.585-0.821,6.478,0.853,7.529
	c-1.3,1.737-2.308,3.792-2.919,6.063l0,0c-0.067,0.25-0.129,0.502-0.187,0.758c-0.019,0.085-0.035,0.172-0.054,0.258
	c-0.037,0.172-0.073,0.344-0.104,0.518c-0.02,0.108-0.037,0.216-0.055,0.325c-0.026,0.156-0.052,0.311-0.074,0.468
	c-0.016,0.114-0.029,0.23-0.044,0.345c-0.013,0.11-0.029,0.219-0.041,0.33c0.001,0,0.002,0,0.003,0
	c-0.039,0.365-0.072,0.732-0.09,1.104c-0.023,0.449-0.03,0.894-0.023,1.335c-0.949,1.116-1.592,2.376-1.865,3.732
	c-0.002,0-0.004-0.001-0.007-0.001c-0.017,0.091-0.03,0.183-0.044,0.274c-0.011,0.067-0.024,0.134-0.033,0.201
	c-0.027,0.2-0.048,0.402-0.059,0.606c-0.014,0.281-0.016,0.558-0.011,0.832c0.001,0.044,0.001,0.088,0.002,0.132
	c0.007,0.264,0.026,0.525,0.052,0.782c0.002,0.02,0.002,0.04,0.004,0.06c0,0,0.002,0,0.003,0c0.345,3.111,2.114,5.704,5.938,7.433
	c-1.787,0.737-3.889,2.081-5.706,4.531l-0.001-0.001c-0.123,0.166-0.244,0.339-0.365,0.516c-0.034,0.05-0.067,0.101-0.101,0.151
	c-0.113,0.17-0.225,0.345-0.335,0.524c-0.026,0.043-0.054,0.085-0.08,0.129c-0.128,0.212-0.252,0.432-0.375,0.658
	c-0.032,0.06-0.063,0.12-0.096,0.18c-0.105,0.199-0.208,0.402-0.31,0.611c-0.022,0.046-0.045,0.091-0.068,0.138
	c-0.116,0.244-0.228,0.497-0.339,0.755c-0.029,0.069-0.059,0.14-0.087,0.209c-0.036,0.086-0.072,0.169-0.107,0.257
	c0.002,0.001,0.004,0.001,0.005,0.001c-0.074,0.186-0.149,0.366-0.22,0.558c-0.005,0-0.009-0.001-0.015-0.001
	c0,0-0.006,0.033-0.019,0.095c-0.426,1.175-0.789,2.491-1.078,3.951c-0.001,0-0.002-0.001-0.004-0.001
	c-0.025,0.128-0.05,0.254-0.074,0.384c-0.069,0.212-0.143,0.43-0.219,0.648c-0.01,0.029-0.02,0.057-0.029,0.086
	c-0.076,0.215-0.154,0.435-0.236,0.656c-0.011,0.028-0.022,0.06-0.033,0.088c-0.085,0.23-0.173,0.463-0.265,0.697
	c-0.005,0.012-0.01,0.022-0.015,0.035c-0.098,0.247-0.198,0.495-0.303,0.745l0,0c-0.767,1.823-1.756,3.738-3.004,5.435
	c-0.146,0.198-0.296,0.393-0.449,0.584c-0.022,0.027-0.043,0.056-0.065,0.082c-0.156,0.193-0.314,0.383-0.478,0.566
	c-0.026,0.028-0.051,0.059-0.078,0.086c-0.157,0.176-0.318,0.35-0.483,0.518c-0.012,0.014-0.023,0.024-0.036,0.037
	c-0.17,0.172-0.344,0.338-0.521,0.5c-0.828,0.758-1.738,1.404-2.737,1.888c-0.329,0.159-0.651,0.339-0.967,0.53l-0.001-0.002
	c-0.018,0.01-0.035,0.022-0.053,0.033c-0.12,0.074-0.24,0.153-0.358,0.233c-0.064,0.042-0.129,0.083-0.192,0.128
	c-0.138,0.096-0.273,0.195-0.407,0.298c-0.043,0.032-0.086,0.062-0.128,0.095c-0.124,0.096-0.246,0.196-0.367,0.299
	c0.017-0.016,0.033-0.03,0.05-0.045c-1.629-0.029-2.886,1.803-2.886,1.803s-1.861,2.152-4.098,5.332v-0.004
	c-0.006,0.011-0.013,0.021-0.019,0.028c-0.183,0.261-0.369,0.527-0.555,0.802c-0.006,0.008-0.011,0.016-0.016,0.022
	c-0.558,0.813-1.129,1.685-1.693,2.591l0,0c-0.005,0.008-0.01,0.016-0.015,0.022c-0.089,0.143-0.177,0.288-0.266,0.432
	c-0.008,0.013-0.015,0.024-0.022,0.036c0,0,0,0,0,0.001c-0.525,0.86-1.041,1.753-1.53,2.664c-0.003,0.006-0.006,0.011-0.009,0.017
	l0,0c-0.321,0.6-0.631,1.205-0.923,1.815l0,0c-0.003,0.005-0.006,0.012-0.009,0.019c-0.188,0.391-0.369,0.782-0.541,1.176
	c-0.004,0.01-0.007,0.018-0.011,0.024c-0.173,0.396-0.338,0.79-0.494,1.187c-0.001,0.002-0.002,0.007-0.004,0.01l0,0
	c-0.276,0.703-0.522,1.404-0.73,2.101c0,0,0,0-0.001,0c-0.004,0.015-0.008,0.031-0.014,0.048c-0.061,0.205-0.118,0.408-0.172,0.611
	c-0.009,0.029-0.016,0.059-0.024,0.088c-0.055,0.211-0.106,0.422-0.153,0.631c-0.004,0.017-0.008,0.032-0.012,0.051
	c-0.099,0.44-0.18,0.877-0.242,1.31c0,0.008-0.002,0.017-0.004,0.024c0.001,0,0.001,0,0.001-0.002
	c-0.04,0.287-0.071,0.569-0.094,0.851l0,0c0,0.006,0,0.012,0,0.017c-0.018,0.229-0.03,0.457-0.035,0.682c0,0.008,0,0.016,0,0.021
	c-0.004,0.227-0.003,0.448,0.006,0.669c0,0.003,0,0.005,0,0.005l0,0c0.043,1.012,0.233,1.969,0.6,2.846c0,0.002,0,0.002,0,0.002
	c0.002,0.005,0.005,0.01,0.007,0.015c0.091,0.218,0.193,0.431,0.306,0.638c0,0.002,0.001,0.002,0.001,0.002
	c0.116,0.209,0.242,0.412,0.381,0.61c0.001,0.003,0.003,0.005,0.004,0.007c0,0,0,0,0.001,0c0.192,0.274,0.41,0.54,0.651,0.791V95.3
	c0.005,0.007,0.013,0.013,0.018,0.019c0.148,0.154,0.305,0.304,0.472,0.449c0.005,0.004,0.011,0.008,0.016,0.013
	c0.52,0.446,1.13,0.85,1.842,1.2c0.005,0.002,0.01,0.004,0.015,0.008v-0.002c0.412,0.203,0.858,0.388,1.34,0.555h-0.001
	c0.011,0.003,0.024,0.007,0.036,0.011c0.261,0.089,0.532,0.175,0.815,0.253c0.001,0,0.002,0,0.004,0.002
	c0.828,0.229,1.749,0.406,2.768,0.533c0,0-0.001,0-0.001,0.001c0.017,0.002,0.034,0.003,0.051,0.005
	c0.292,0.036,0.59,0.067,0.898,0.096c0.009,0,0.018,0,0.027,0.002c0.305,0.025,0.621,0.046,0.942,0.063
	c0.026,0.001,0.05,0.004,0.077,0.005c0-0.001,0-0.001,0-0.001c0.474,0.023,0.966,0.037,1.476,0.041v0.001c0.019,0,0.038,0,0.058,0
	c0.239,0.002,0.482,0,0.729-0.003c0.026,0,0.051,0,0.078-0.001c0.278-0.004,0.562-0.011,0.85-0.021c0.007,0,0.014,0,0.021,0l0,0
	c0.407-0.014,0.826-0.035,1.254-0.062c0,0.001,0,0.001,0,0.001c0.019-0.001,0.038-0.003,0.056-0.005
	c0.764-0.046,1.562-0.112,2.393-0.198l0,0c0.03-0.003,0.06-0.007,0.089-0.01c0.291-0.029,0.585-0.063,0.884-0.099
	c0.039-0.005,0.077-0.009,0.116-0.013l0,0c0.038-0.006,0.075-0.01,0.113-0.015c0,0,0.427-0.04,1.112-0.155l0,0
	c0.012-0.003,0.027-0.006,0.04-0.008c0.059-0.01,0.119-0.021,0.181-0.031c0.032-0.006,0.064-0.012,0.097-0.019
	c0.074-0.013,0.149-0.026,0.227-0.043c0.021-0.004,0.042-0.008,0.063-0.013c0.088-0.018,0.179-0.035,0.271-0.055
	c0.024-0.006,0.048-0.013,0.072-0.017c0.094-0.021,0.188-0.041,0.286-0.063c0.006-0.002,0.012-0.004,0.018-0.004l0,0
	c0.521-0.119,1.097-0.271,1.699-0.462v0.001c0.01-0.003,0.02-0.008,0.029-0.01c0.175-0.057,0.352-0.115,0.53-0.178
	c0.026-0.01,0.052-0.02,0.079-0.027c0.176-0.063,0.355-0.13,0.533-0.2c0.014-0.005,0.026-0.009,0.039-0.015l0,0
	c0.566-0.225,1.136-0.484,1.686-0.786l0,0c0.006-0.003,0.011-0.006,0.016-0.009c0.173-0.096,0.344-0.196,0.513-0.301
	c0.022-0.015,0.044-0.026,0.065-0.041c0.165-0.104,0.328-0.211,0.486-0.323c0.012-0.009,0.025-0.017,0.038-0.024
	c-0.001,0-0.001,0-0.001,0c0.035-0.025,0.07-0.05,0.104-0.074c1.531,1.069,4.32,1.027,7.508,1.027c4.834,0,8.753,0.098,8.753-3.734
	c0-0.863-0.2-1.69-0.563-2.453c2.316,0.339,5.468,0.527,8.694-0.104c-0.185,0.562-0.284,1.149-0.284,1.757
	c0,3.832,3.92,3.735,8.754,3.735c4.836,0,8.756,0.097,8.756-3.735C85.072,89.636,83.861,87.73,81.958,86.458z M29.058,66.63
	c-0.009,0.011-0.018,0.021-0.027,0.029c0.028-0.03,0.055-0.062,0.083-0.091C29.095,66.589,29.076,66.609,29.058,66.63z
	 M23.012,80.895c-0.198,1.291-0.342,2.621-0.422,3.98c-0.59,0.173-1.147,0.396-1.67,0.66C21.466,84.063,22.193,82.482,23.012,80.895
	z M34.775,95.268c-0.012,0-0.024,0.002-0.036,0.004c-2.2,0.207-4.549,0.134-6.712-0.16c3.629-0.071,6.296-0.547,6.345-3.639
	c2.504,0.233,5.205,0.368,7.896,0.301c-0.036,0.25-0.055,0.502-0.057,0.76C40.655,94.114,37.865,94.97,34.775,95.268z"/>
<path fill="#010101" d="M71.936,5.602c1.228-0.182,2.641-0.142,4.182,0.332c0.716,0.221,0.681,1.787,0.257,3.585l-0.215-0.913
	l-0.38,0.457l0.094-1.083l-0.387,0.593l-0.014-0.992l-0.69,0.463l0.37-0.834l-1.176,0.371l0.569-0.806c0,0-1.424,0.117-1.412,0.071
	C73.146,6.8,73.868,6.19,73.868,6.19l-1.22,0.064c0,0,0.904-0.542,0.871-0.542C73.484,5.713,71.936,5.602,71.936,5.602z
	 M72.402,14.605c0,0-2.053-3.876-3.733-4.802c0,0,2.49-2.289,6.026-1.202C75.991,8.999,73.618,15.882,72.402,14.605z M49.951,4.361
	c0.22-0.839,0.496-1.54,0.785-1.961c1.631-2.375,3.633-1.066,5.187,0.752l-0.79-0.297l0.071,0.727L54.191,2.86l0.199,0.879
	l-1.041-0.87l0.058,0.785l-1.041-1.098l-0.087,1.196l-0.454-0.898L51.313,4.28L51.07,3.524l-0.657,1.497L50.37,3.61L49.951,4.361z
	 M51.896,11.375c0,0,2.723-2.749,4.67-3.286c0,0-3.066-6.915-5.244-3.111C50.439,6.519,49.837,10.915,51.896,11.375z M48.542,89.576
	 M64.354,16.34c-0.808,0.034-1.504-0.906-1.553-2.1c-0.051-1.193,0.563-2.188,1.371-2.222c0.809-0.034,1.504,0.906,1.554,2.099
	C65.775,15.312,65.162,16.307,64.354,16.34z M58.323,16.066c-0.813,0.244-1.757-0.509-2.108-1.681
	c-0.353-1.172,0.021-2.32,0.834-2.564c0.814-0.244,1.758,0.508,2.109,1.681S59.137,15.822,58.323,16.066z M43.492,89.063
	c-0.069-1.022-0.443-2.188-1.187-3.508c0,0-0.649-0.972,0.44-1.666c1.088-0.693,1.904,0.387,1.904,0.387
	c1.046,1.843,1.574,3.44,1.714,4.83l-0.63-0.135l-0.289-0.822l-0.023,0.802L45,88.993l-0.311-0.978v0.955l-0.467,0.09l-0.288-1.267
	l-0.066,1.31L43.492,89.063 M64.281,23.465c0,0,0.244-3.199-0.333-4.865c0,0,0.377,5.242-0.067,5.332 M82.117,89.547
	c2.002,2.402,1.583,4.684,1.879,4.204C84.45,91.352,82.66,89.508,82.117,89.547z M72.801,94.938c0.404,0.39-1.042-2.49,0.783-4.541
	C73.049,90.495,71.133,92.674,72.801,94.938z M78.504,90.457c0,0,1.092,2.029,0.538,4.575c0,0,0.772,0.452,0.606-2.069
	C79.477,90.344,78.193,89.674,78.504,90.457z M56.539,90.643c1.802,2.557,1.199,4.795,1.531,4.344
	C58.665,92.63,57.084,90.648,56.539,90.643z M47.835,95.424c0.414,0.418-1.165-2.551,1.315-4.471
	C48.541,91.01,46.191,93.041,47.835,95.424z M52.984,91.136c0,0,0.925,2.113,0.168,4.604c0,0,0.658,0.451,0.695-2.075
	C53.889,91.041,52.738,90.33,52.984,91.136z M31.49,89.501c2.002,2.403,1.583,4.683,1.879,4.206
	C33.771,91.313,32.034,89.464,31.49,89.501z M24.97,94.618c0.404,0.389-1.256-2.466,0.783-4.542
	C25.217,90.174,23.301,92.354,24.97,94.618z M28.69,90.161c0,0,1.092,2.03,0.537,4.575c0,0,0.656,0.433,0.49-2.09
	C29.544,90.027,28.38,89.376,28.69,90.161z M68.865,32.159c-0.061,0.564-0.586,1.354-1.702,1.625
	c-1.17,0.282-5.331,0.382-6.404-1.927c0,0-0.485-3.141-0.282-4.576c0.611-0.176,2.787-1.127,3.518-2.735
	c0.814-1.791,0.163-1.872-3.985-2.359c-4.149-0.489-0.731,4.312-0.731,4.312s0.592,0.592,0.918,0.766
	c-0.043,0.513-0.104,2.01,0.262,4.593c0,0-0.671,2.492-2.771,2.509c-5.27,0.044-5.17-2.952-5.229-3.314
	c-0.062-0.363-0.36-0.008-0.36-0.008s-0.783,3.771,5.69,3.723c2.216-0.017,2.854-2.185,2.854-2.185s1.205,1.438,3.176,1.652
	c6.271,0.68,5.433-2.332,5.433-2.332S68.925,31.595,68.865,32.159z M57.973,23.132c0,0,0.133-2.532,0.865-4.354
	c0,0-0.82,3.798-0.466,4.109 M75.852,29.611c0.031-1.022-0.15-2.02-0.519-2.973c-2.151,0.672-5.211,1.403-7.935,1.228
	C67.398,27.866,72.145,29.786,75.852,29.611z M35.551,61.902c4.271,1.505,9.65,1.505,9.65,1.505
	c-3.475-1.058-5.891-2.567-7.47-3.949C37.078,60.35,36.353,61.18,35.551,61.902z M53.527,45.673
	c-4.167,0.321-6.667-1.761-8.039-3.702c-0.834,1.125-1.608,2.485-2.263,4.127C49.821,48.818,53.527,45.673,53.527,45.673z
	 M41.896,50.701c-0.025,0.128-0.05,0.254-0.074,0.384c-0.3,0.919-0.665,1.923-1.1,2.957c5.18-0.021,10.752-2.382,10.752-2.382
	C48.96,52.311,45.178,51.611,41.896,50.701z M31.903,64.266c-1.545,0.94-2.925,2.274-4.121,3.918
	c6.966,6.411,12.664,3.698,12.664,3.698C35.674,71.111,33.083,66.913,31.903,64.266z M24.375,75.085
	c-0.592,1.812-1.05,3.758-1.364,5.804c6.199,0.995,13.672-1.363,13.672-1.363C31.972,80.215,27.471,77.587,24.375,75.085z
	 M47.326,20.951c2.992,0.173,5.867-0.132,5.867-0.132c-2.33-1.028-4.045-1.997-5.31-2.87C47.624,18.915,47.437,19.917,47.326,20.951
	z M51.303,27.711c-2.386,0.477-4.376,0.102-5.958-0.59c-0.071,0.354-0.117,0.714-0.136,1.082c-0.032,0.619-0.017,1.221,0.048,1.806
	C49.612,29.683,51.303,27.711,51.303,27.711z M67.623,22.948c0,0,4.18,0.2,7.492-0.598c-0.006-1.047-0.094-2.074-0.258-3.067
	C72.703,20.7,69.454,22.667,67.623,22.948z M51.998,73.663c-2.061-0.062-4.378-0.377-6.052-1.829l0.085,2.708
	C49.963,75.527,51.998,73.663,51.998,73.663z M53.199,59.139c-3.607-0.231-7.761-3.406-7.761-3.406l0.165,3.396l0.038,0.949
	C48.53,60.182,53.199,59.139,53.199,59.139z M45.716,65.334l0.07,3.109c5.546,0.389,7.167-1.59,7.167-1.59
	C49.69,67.34,47.453,66.656,45.716,65.334z M46.003,79.443l0.244,3.47c3.797,0.91,5.923-0.297,5.923-0.297
	C49.642,82.336,47.786,80.768,46.003,79.443z M74.667,58.361c-0.04,0.002-0.08,0.003-0.12,0.003
	C74.547,58.364,74.588,58.363,74.667,58.361z M75.402,63.325c0,0,3.19,0.924,7.045,1.301c-0.108-1.252-0.242-2.45-0.396-3.596
	C79.852,62.297,77.348,63.4,75.402,63.325z M80.831,54.609c-1.781,1.893-4.021,3.687-6.164,3.752
	c0.657-0.012,3.885-0.071,6.923-0.229C81.361,56.891,81.107,55.716,80.831,54.609z M75.915,83.34c0,0,3.044,1.709,6.101,2.58
	c0.135-1.275,0.25-2.52,0.346-3.73C79.932,83.096,77.279,83.82,75.915,83.34z M75.23,69.143c0,0,3.799,1.094,7.524,1.743
	c-0.019-1.312-0.065-2.575-0.133-3.79C80.018,68.232,77.001,69.311,75.23,69.143z M75.061,75.984c0,0,3.746,2.252,7.496,3.404
	c0.104-1.76,0.168-3.447,0.195-5.07C79.975,75.546,76.889,76.542,75.061,75.984z M79.814,51.118
	c-0.318-0.956-0.656-1.851-1.006-2.688c-1.17,1.112-3.125,1.987-6.315,2.235C72.493,50.666,75.764,51.506,79.814,51.118z
	 M76.96,44.667c-0.778-1.352-1.58-2.489-2.36-3.443c-1.496,1.292-4.154,3.239-6.813,3.466C67.786,44.689,73.208,45.503,76.96,44.667
	z M23.169,94.133c-0.925,1.281-1.396,2.465-1.631,3.407c0.545,0.188,1.135,0.353,1.773,0.489
	C22.931,96.218,23.169,94.133,23.169,94.133z M28.632,98.552c0.557,0.005,1.135-0.004,1.736-0.024
	c-0.41-1.422-0.64-2.797-0.64-2.797C28.967,96.77,28.696,97.729,28.632,98.552z M36.885,94.965c-0.537,0.646-0.589,1.891-0.5,3.008
	c0.356-0.061,0.782-0.142,1.255-0.25c-0.288-1.111-0.407-2.349-0.445-2.822C37.093,94.923,36.989,94.943,36.885,94.965z
	 M22.292,74.157c0.808,0.782,1.362,1.467,1.362,1.467c0.167-1.129,0.04-2.233-0.19-3.185C23.082,72.984,22.688,73.559,22.292,74.157
	z M21.181,75.884c-0.102,0.163-0.202,0.325-0.302,0.49c0.705,0.776,1.207,1.39,1.207,1.39C22.125,77.53,21.726,76.777,21.181,75.884
	z M34.647,95.279c-0.593,1.008-0.675,2.053-0.576,2.984c0.357-0.037,0.72-0.078,1.089-0.121c-0.283-1.137-0.359-2.401-0.378-2.877
	C34.737,95.271,34.692,95.273,34.647,95.279z M42.234,96.046c0.385-0.211,0.76-0.444,1.118-0.698
	c-1.228-0.703-2.358-1.529-2.358-1.529C41.139,94.673,41.673,95.443,42.234,96.046z M38.854,94.702
	c0.104,1.108,0.28,1.938,0.484,2.56c0.396-0.125,0.802-0.268,1.209-0.43C39.551,95.908,38.854,94.702,38.854,94.702z M31.8,95.387
	c-0.185,0.971-0.213,2.075-0.178,3.08c0.348-0.021,0.703-0.046,1.064-0.074c-0.455-1.346-0.791-2.711-0.862-3.006
	C31.816,95.387,31.808,95.387,31.8,95.387z M17.835,95.3c0.618,0.646,1.398,1.216,2.363,1.688c0.018-1.957,1.545-3.54,1.545-3.54
	C19.793,93.354,18.554,94.37,17.835,95.3z M25.161,98.34c0.628,0.078,1.292,0.137,1.996,0.171c-0.284-1.557-0.393-3.182-0.393-3.182
	C25.847,96.084,25.39,97.284,25.161,98.34z M15.913,88.996c-0.037,0.474-0.047,0.939-0.029,1.395
	c1.519-0.947,3.464-1.178,3.464-1.178C18.414,88.745,16.933,88.846,15.913,88.996z M42.818,93.02
	c0.749,0.564,1.391,0.904,1.934,1.096c0.306-0.34,0.581-0.706,0.814-1.104C44.047,93.032,42.818,93.02,42.818,93.02z M16.626,85.386
	c-0.281,0.938-0.494,1.862-0.621,2.763c1.433-0.93,3.114-1.26,3.114-1.26C18.227,86.143,17.328,85.673,16.626,85.386z
	 M21.715,81.386c-0.109-0.956-0.814-2.292-1.668-3.604c-0.241,0.421-0.478,0.846-0.708,1.275
	C20.563,80.188,21.715,81.386,21.715,81.386z M19.804,85.42c-0.177-1.292-0.771-3.01-1.389-4.549
	c-0.385,0.8-0.742,1.607-1.058,2.414C18.66,84.22,19.804,85.42,19.804,85.42z M19.519,91.451c-1.675-0.073-2.598,1.019-3.036,1.785
	c0.187,0.445,0.418,0.871,0.7,1.271C17.929,92.939,19.519,91.451,19.519,91.451z"/>
</svg>
