<?xml version="1.0" encoding="utf-8"?>
<!-- Generator: Adobe Illustrator 16.0.0, SVG Export Plug-In . SVG Version: 6.00 Build 0)  -->
<!DOCTYPE svg PUBLIC "-//W3C//DTD SVG 1.1//EN" "http://www.w3.org/Graphics/SVG/1.1/DTD/svg11.dtd">
<svg version="1.1" id="Layer_1" xmlns="http://www.w3.org/2000/svg" xmlns:xlink="http://www.w3.org/1999/xlink" x="0px" y="0px"
	 width="288px" height="288px" viewBox="0 0 288 288" enable-background="new 0 0 288 288" xml:space="preserve">
<path fill="#356F36" d="M132.954,211.993c-23.572-3.636-43.6,1.591-59.853-40.724c-4.878-12.732-15.999-32.459-31.23-37.208
	C95.607,132.814,133.996,151.979,132.954,211.993z M144.973,206.301c28.4-12.208,55.226-12.154,61.895-70.529
	c1.986-17.557,9.541-45.92,27.115-56.824C166.139,94.825,124.186,131.333,144.973,206.301z"/>
<path fill="#7DE000" d="M130.025,209.377c-0.326,1.296-5.474,1.656-11.527,0.811c-6.031-0.847-10.683-2.573-10.349-3.86
	c0.316-1.284,5.484-1.647,11.526-0.813C125.706,206.361,130.36,208.086,130.025,209.377z M147.798,202.063
	c0.829,1.523,7.407,0.307,14.728-2.724c7.295-3.019,12.57-6.694,11.732-8.2c-0.813-1.514-7.417-0.289-14.729,2.721
	C152.241,196.879,146.961,200.561,147.798,202.063z"/>
<path fill="#A6CE39" d="M214.669,90.442c-1.267,1.068-2.532,2.136-3.771,3.225c-2.879,2.484-5.676,5.026-8.355,7.604
	c-2.768,2.665-5.464,5.356-8.07,8.09c-5.146,5.444-9.939,11.061-14.406,16.857c-3.451,4.486-6.68,9.09-9.729,13.808
	c-6.896,10.717-12.763,22.021-17.521,33.929c-2.352,5.9-4.445,11.943-6.305,18.12c-2.572,8.597-5.833,16.709-7.608,25.721
	c-2.943-5.703-6.571-10.713-9.845-16.131c-2.583-4.256-5.316-8.365-8.216-12.319c-5.848-7.974-12.417-15.283-19.634-21.955
	c-3.191-2.936-6.493-5.75-9.938-8.434c-4.457-3.466-9.12-6.736-14.019-9.807c-2.475-1.541-5.005-3.031-7.59-4.488
	c-2.499-1.405-5.079-2.764-7.706-4.065c-1.137-0.573-2.289-1.125-3.444-1.679c-0.481-0.228-0.973-0.466-1.477-0.692
	c0.563,0.293,1.097,0.6,1.651,0.907c0.936,0.513,1.867,1.039,2.807,1.573c2.551,1.466,5.072,2.946,7.533,4.478
	c7.429,4.641,14.482,9.604,21.06,15.03c8.33,6.849,15.968,14.356,22.794,22.611c4.669,5.635,8.972,11.595,12.906,17.921
	c1.105,1.764,4.627,8.9,7.779,16.025c2.401,5.432,1.4,10.61,4.44,13.78c0.797,5.24,3.822,4.249,5.609,2.188
	c4.506-5.202,0.76-11.862,2.143-20.242c1.64-9.964,3.743-20.066,4.56-22.639c2.886-9.217,6.352-18.084,10.379-26.676
	c5.887-12.572,13.033-24.476,21.266-35.771c6.496-8.943,13.734-17.466,21.553-25.697c2.594-2.72,5.272-5.395,8.004-8.063
	c0.998-0.977,2-1.938,3.01-2.886c0.593-0.565,1.164-1.122,1.773-1.674C215.745,89.541,215.202,90.001,214.669,90.442z"/>
</svg>
