<?xml version="1.0" encoding="utf-8"?>
<!-- Generator: Adobe Illustrator 16.0.0, SVG Export Plug-In . SVG Version: 6.00 Build 0)  -->
<!DOCTYPE svg PUBLIC "-//W3C//DTD SVG 1.1//EN" "http://www.w3.org/Graphics/SVG/1.1/DTD/svg11.dtd">
<svg version="1.1" id="Layer_1" xmlns="http://www.w3.org/2000/svg" xmlns:xlink="http://www.w3.org/1999/xlink" x="0px" y="0px"
	 width="100px" height="100px" viewBox="0 0 100 100" enable-background="new 0 0 100 100" xml:space="preserve">
<path fill="#F09D20" d="M1.663,58.533c1.532,3.095,3.288,7.615,6.103,9.615c0.052,0.037,0.084,0.096,0.106,0.156
	c0.039,0.107,0.148,0.188,0.257,0.146c1.864-0.692,3.757-1.358,5.662-2.015c5.218-1.811,10.502-3.586,15.448-5.818
	c3.25-1.219,6.585-2.934,9.951-4.34c0.777-0.323,1.63-0.437,2.467-0.338c5.919,0.695,11.934,1.043,17.87,1.258
	c0.812,0.029,1.638,0.375,1.939,1.128c1.758,4.342,4.012,20.02,5.689,27.684c0.002,0.011,0.008,0.025-0.004,0.025
	c-0.021,0.001-0.01,0.032-0.01,0.054c0,1.121,0,2.157,0.059,3.219c0.076,1.405,1.423,2.284,2.826,2.409
	c2.14,0.189,4.399,0.849,6.558,0.58c0.099-0.011,0.188-0.06,0.257-0.129c0.061-0.06,0.072-0.155,0.016-0.216
	c-2.035-2.176-4.319-3.727-6.467-5.523c-0.633-0.527-1.113-1.22-1.389-1.994c-0.618-1.74-1.011-3.537-1.271-5.437
	c-0.354-2.548-0.319-5.147-0.828-7.672c-0.283-5.507-0.385-10.615,0.039-12.808c0.146-0.75,0.951-1.092,1.715-1.076
	c0.408,0.01,0.816,0.018,1.224,0.025c1.677,0.036,3.351,0.116,5.022,0.221c1.808,0.113,3.654,0.209,4.951-1.086
	c2.229-1.783,1.56-5.797,0.892-8.249c-0.915-3.497-2.447-7.096-4.038-10.446c-0.313-0.655-0.063-1.437,0.555-1.816
	c5.655-3.482,13.698-7.104,15.969,1.784c1.562,5.351-1.113,11.593-1.113,17.168c0,3.121,1.113,8.025,4.46,4.014
	c1.56-2.229,1.336-7.358,1.56-9.812c0.67-5.128,0-12.709-4.014-16.722c-4.391-4.17-14.396-2.075-18.111,2.245
	c-0.109,0.13-0.253,0.233-0.414,0.283c-0.138,0.043-0.287-0.014-0.352-0.142c-0.248-0.508-0.498-1.007-0.744-1.494
	C71.604,27.618,63.354,7.997,55.549,8.888c-0.926,0.154-1.637,0.628-2.135,1.348c-0.012,0.017-0.03,0.031-0.047,0.02
	c-0.025-0.015-0.061-0.011-0.077,0.014c-4.892,7.343-8.673,14.688-12.234,22.922c-0.443,1.021-1.258,2.594-2.175,4.451
	c-0.333,0.674-1.032,1.114-1.78,1.041c-5.057-0.492-12.385-2.977-12.768-7.721c-0.669-6.244,8.919-12.041,11.372-17.169
	c1.338-3.121,0.892-6.911-3.567-6.02c-2.676,0.669-4.683,4.014-5.798,6.243c-2.898,4.905-5.797,12.486-5.575,18.506
	c0.34,7.624,8.399,7.782,15.187,8.492c0.623,0.065,0.984,0.728,0.735,1.302c-1.378,3.172-2.54,6.506-2.602,9.09
	c-0.019,0.788,0.411,1.518,0.454,2.306c0.004,0.089,0.003,0.176-0.003,0.264C34.26,58.423,20.11,63.225,14.309,64.84
	c-0.728,0.202-1.498-0.068-2.009-0.625c-2.658-2.895-6.778-4.678-10.318-5.988c-0.096-0.037-0.207-0.022-0.28,0.049
	C1.635,58.343,1.621,58.447,1.663,58.533z M51.313,34.753c-3.122-0.446-6.02,0.223-4.904-3.345c0.348-1.559,2.305-3.921,3.789-5.632
	c0.424-0.489,1.202-0.458,1.543,0.092C54.199,29.812,59.079,36.432,51.313,34.753z M67.605,31.886
	c-2.864,1.656-9.092,4.432-10.051,3.09c-1.246-1.872,4.691-7.826,6.215-10.061c0.096-0.14,0.279-0.192,0.431-0.113
	c0.187,0.099,0.351,0.234,0.487,0.396c1.207,1.428,2.401,3.225,3.379,4.876C68.439,30.703,68.24,31.52,67.605,31.886z
	 M41.501,40.215c0-0.188,0.148-0.344,0.337-0.354c1.943-0.107,3.899-0.082,5.864,0.036c0.699,0.042,1.219,0.639,1.267,1.337
	c0.131,1.943,1.102,3.542,2.776,3.925c1.333,0.305,2.241-1.09,2.241-2.458c0-0.287,0-0.574,0-0.847c0-0.68,0.574-1.232,1.248-1.136
	c1.356,0.196,2.715,0.411,4.068,0.63c0.051,0.008,0.075,0.063,0.068,0.115c-0.023,0.135-0.018,0.274,0.003,0.41
	c0.074,0.488,0.067,0.976,0.019,1.463c-0.094,0.954,0.416,1.93,1.362,2.079c2.136,0.336,3.993-0.207,2.89-2.917
	c-0.039-0.099-0.064-0.205-0.049-0.31c0.012-0.077,0.078-0.137,0.153-0.125c2.745,0.435,5.478,0.823,8.179,1.053
	c0.215,0.018,0.391,0.189,0.373,0.404c-0.021,0.249-0.102,0.492-0.244,0.697c-3.06,4.46-10.836,6.588-16.063,6.588
	c-7.243,0-11.678-3.673-14.367-9.956C41.542,40.65,41.501,40.434,41.501,40.215z"/>
</svg>
