<?xml version="1.0" encoding="utf-8"?>
<!-- Generator: Adobe Illustrator 15.0.0, SVG Export Plug-In . SVG Version: 6.00 Build 0)  -->
<!DOCTYPE svg PUBLIC "-//W3C//DTD SVG 1.1//EN" "http://www.w3.org/Graphics/SVG/1.1/DTD/svg11.dtd">
<svg version="1.1" id="Layer_1" xmlns="http://www.w3.org/2000/svg" xmlns:xlink="http://www.w3.org/1999/xlink" x="0px" y="0px"
	 width="100px" height="100px" viewBox="0 0 100 100" enable-background="new 0 0 100 100" xml:space="preserve">
<path fill-rule="evenodd" clip-rule="evenodd" d="M50,0C22.386,0,0,22.386,0,50c0,27.614,22.386,50,50,50s50-22.386,50-50
	C100,22.386,77.614,0,50,0z M74.02,50.219c-1.279,3.558-3.204,7.037-5.791,9.522c-2.938,2.823-7.671,5.725-14.283,5.147
	c-3.75-0.327-6.074-2.022-8.235-4.633c-1.33,4.501-1.914,9.231-3.603,13.254c-1.222,2.909-2.836,5.475-4.633,7.979
	c-0.548,0.763-1.025,1.873-2.059,2.059c-2.537-10.063,1.135-20.195,3.217-29.081c0.261-1.116,0.49-2.315,0.772-3.475
	c0.278-1.145,0.79-2.417,0.772-3.346c-0.02-1.075-0.7-2.052-0.901-3.088c-0.903-4.668,0.339-9.462,3.088-11.71
	c1.319-1.079,3.978-1.955,6.176-1.158c4.626,1.674,2.901,8.44,1.544,12.868c-0.773,2.523-2.132,5.568-2.059,7.978
	c0.105,3.419,3.377,6.25,7.593,5.662c2.105-0.293,3.507-1.195,4.761-2.316c3.896-3.481,6.705-11.427,6.177-19.302
	c-0.531-7.911-6.046-12.916-13.769-13.511c-11.976-0.923-20.49,6.664-21.232,16.856c-0.268,3.681,0.64,6.459,2.188,8.622
	c0.273,0.381,0.934,0.973,1.029,1.673c0.128,0.943-0.87,4.897-1.801,5.147c-1.874,0.505-5.163-2.826-5.919-3.86
	c-1.91-2.611-3.069-6.767-3.088-10.809c-0.036-7.69,3.63-13.254,7.849-17.243c4.484-4.239,10.256-6.491,18.144-6.949
	c10.875-0.631,19.216,4.614,23.162,11.324c1.381,2.348,2.596,5.645,2.831,8.879C76.333,41.986,75.425,46.308,74.02,50.219z"/>
</svg>
