<?xml version="1.0" encoding="utf-8"?>
<!-- Generator: Adobe Illustrator 16.0.0, SVG Export Plug-In . SVG Version: 6.00 Build 0)  -->
<!DOCTYPE svg PUBLIC "-//W3C//DTD SVG 1.1//EN" "http://www.w3.org/Graphics/SVG/1.1/DTD/svg11.dtd">
<svg version="1.1" id="Layer_1" xmlns="http://www.w3.org/2000/svg" xmlns:xlink="http://www.w3.org/1999/xlink" x="0px" y="0px"
	 width="29.068px" height="29.068px" viewBox="1.466 1.466 29.068 29.068" enable-background="new 1.466 1.466 29.068 29.068"
	 xml:space="preserve">
<path fill="#000000" d="M16,1.466C7.973,1.466,1.466,7.973,1.466,16c0,8.027,6.508,14.534,14.534,14.534
	c8.027,0,14.534-6.507,14.534-14.534C30.534,7.973,24.027,1.466,16,1.466z M16,29.534C8.539,29.534,2.466,23.462,2.466,16
	C2.466,8.539,8.539,2.466,16,2.466c7.462,0,13.535,6.072,13.535,13.533C29.534,23.462,23.462,29.534,16,29.534z M11.104,14
	c0.932,0,1.688-1.482,1.688-3.312s-0.755-3.313-1.688-3.313c-0.934,0-1.688,1.483-1.688,3.313S10.172,14,11.104,14z M20.729,14
	c0.934,0,1.688-1.482,1.688-3.312s-0.756-3.313-1.688-3.313c-0.933,0-1.688,1.483-1.688,3.313S19.798,14,20.729,14z M8.143,21.189
	C10.458,24.243,13.148,26,16.021,26c2.969,0,5.745-1.868,8.109-5.108c-2.515,1.754-5.292,2.733-8.215,2.733
	C13.164,23.625,10.54,22.756,8.143,21.189z"/>
</svg>
