<?xml version="1.0" encoding="utf-8"?>
<!-- Generator: Adobe Illustrator 16.0.0, SVG Export Plug-In . SVG Version: 6.00 Build 0)  -->
<!DOCTYPE svg PUBLIC "-//W3C//DTD SVG 1.1//EN" "http://www.w3.org/Graphics/SVG/1.1/DTD/svg11.dtd">
<svg version="1.1" id="Layer_1" xmlns="http://www.w3.org/2000/svg" xmlns:xlink="http://www.w3.org/1999/xlink" x="0px" y="0px"
	 width="100px" height="100px" viewBox="0 0 100 100" enable-background="new 0 0 100 100" xml:space="preserve">
<g>
	<path fill="none" stroke="#000000" stroke-width="2" stroke-linecap="round" stroke-linejoin="round" d="M92.475,38.85
		c0.334-12.066-3.566-24.667-11.699-37.8c-3.435,1.533-8.066,2.417-13.9,2.65c-5.833,0.233-11.466-0.65-16.899-2.65
		c-5.434,2-11.05,2.883-16.85,2.65c-5.833-0.233-10.467-1.117-13.9-2.65c-8.133,13.167-12.034,25.767-11.7,37.8
		c-0.167,4.3,0.717,10.4,2.65,18.3c1.934,7.899,5.95,15.783,12.05,23.649c6.133,7.9,15.383,13.95,27.75,18.15
		c12.399-4.2,21.649-10.25,27.75-18.15c6.133-7.866,10.166-15.75,12.1-23.649C91.758,49.25,92.643,43.15,92.475,38.85"/>
</g>
</svg>
