<?xml version="1.0" encoding="utf-8"?>
<!-- Generator: Adobe Illustrator 16.0.3, SVG Export Plug-In . SVG Version: 6.00 Build 0)  -->
<!DOCTYPE svg PUBLIC "-//W3C//DTD SVG 1.1//EN" "http://www.w3.org/Graphics/SVG/1.1/DTD/svg11.dtd">
<svg version="1.1"
	 id="Layer_1" xmlns:inkscape="http://www.inkscape.org/namespaces/inkscape" xmlns:rdf="http://www.w3.org/1999/02/22-rdf-syntax-ns#" xmlns:cc="http://web.resource.org/cc/" xmlns:dc="http://purl.org/dc/elements/1.1/" xmlns:sodipodi="http://sodipodi.sourceforge.net/DTD/sodipodi-0.dtd" xmlns:svg="http://www.w3.org/2000/svg" xmlns:ns1="http://sozi.baierouge.fr"
	 xmlns="http://www.w3.org/2000/svg" xmlns:xlink="http://www.w3.org/1999/xlink" x="0px" y="0px" width="288px" height="200.324px"
	 viewBox="0 0 288 200.324" enable-background="new 0 0 288 200.324" xml:space="preserve">
<path d="M110.492,2.067c-1.299-0.564-0.043-2.579,1.458-1.944c-1.533,1.06,0.882,6.067-1.458,6.319
	C110.899,5.008,110.899,1.885,110.492,2.067z M172.233,48.737c-1.957,0.312-5.17-0.633-6.32,0.486
	C167.872,48.913,171.086,49.854,172.233,48.737z M142.091,56.516c-1.681-0.102-2.292-0.691-3.403,0.485
	c0.425,1.093,0.401,2.39,0,3.89c1.007-0.289,3.193,0.601,3.403-0.486C141.667,59.311,141.692,58.018,142.091,56.516z
	 M142.578,60.891c3.007,0.127,1.713-2.937,1.458-4.375h-1.458C142.014,58.319,142.377,58.319,142.578,60.891z M145.009,60.891
	c3.678,0.336,2.504-2.271,2.916-4.375c-0.854,0.279-2.855-0.588-2.916,0.485C145.704,57.114,144.558,59.422,145.009,60.891z
	 M148.411,60.891c0.848-0.037,1.512,0.107,1.945,0.485c0.83-1.36-0.476-2.202,0.485-4.375c-1.526-0.55-1.284,0.14-2.432-0.485
	L148.411,60.891L148.411,60.891z M151.813,61.376h1.944c0.673-1.821-0.551-2.718,0.486-4.375c-0.847,0.037-1.513-0.108-1.944-0.485
	C150.901,56.866,151.056,60.375,151.813,61.376z M154.731,61.863h2.431c0.296-1.162-0.61-3.527,0.485-3.89v3.89
	c1.172-0.199,1.059,0.888,2.432,0.485c0.76-1.912-0.273-2.949,0.486-4.86c-2.299,0.192-4.059-0.156-5.834-0.486
	C155.042,59.354,154.09,60.438,154.731,61.863z M171.747,64.78c0.727-0.01,1.988,1.806,2.432,0.486
	c-0.969-0.9,1.254-5.449-2.432-4.375C172.442,61.002,171.295,63.311,171.747,64.78z M176.608,66.725
	c-0.242-2.367,1.83-5.019-1.945-5.349C174.731,63.745,174.065,66.836,176.608,66.725z M182.442,69.641
	c0.918-0.108,1.072,0.549,1.943,0.486c0.596-1.613-0.029-1.521,0.486-3.889c-1.252-0.393-3.114-2.688-4.376-1.458
	c0.788-0.177-1.14,5.868,1.944,3.889c-0.68-1.006-0.602-2.509,0.486-2.917C182.155,67.346,183.22,68.051,182.442,69.641z
	 M130.91,67.697c-1.168-0.412-1.288-0.313-3.403-0.486v3.403c1.002-0.294,3.377,0.785,2.917-0.973c-0.143-1.715-1.315,1.715-1.458,0
	C129.432,68.809,130.58,68.665,130.91,67.697z M146.953,71.585c1.481-2.231-0.495-4.271-1.944-3.889V71.1
	C146.001,71.951,145.962,70.741,146.953,71.585z M148.411,71.585h1.945c0.373-1.747,0.961-3.229-1.945-3.403
	C148.104,69.121,148.104,70.647,148.411,71.585z M151.329,71.585c1.373-0.401,1.259,0.685,2.43,0.486
	c0.639-1.509-0.131-1.388,0-3.403c-0.669,0.021-1.066-0.229-1.458-0.486C150.853,69.618,152.106,70.152,151.329,71.585z
	 M155.704,72.559c0.104-0.588,0.539-0.299,0.973,0c0.67-0.627,0.48-2.112,0.485-3.403c-1.171,0.198-1.058-0.888-2.431-0.486
	C154.882,70.141,154.192,72.452,155.704,72.559z M163.968,73.531c-0.154-1.127,0.079-1.866,0.486-2.431
	c-0.484-0.535-2.65-1.826-3.402-0.486C161.679,71.309,160.381,73.938,163.968,73.531z M173.69,76.934
	c0.777-1.054-0.104-2.65,0.486-3.89c-0.847,0.037-1.513-0.108-1.943-0.485c-0.777,1.592,0.289,2.295-0.486,3.889
	C172.593,76.414,173.259,76.559,173.69,76.934z M157.647,78.878c2.039,0.341,3.356,1.996,4.377,0.486
	C160.647,79.151,158.146,77.012,157.647,78.878z M109.52,82.768c0.007-0.804,1.349-0.272,1.458-0.973
	c-1.436-0.423,1.128-0.729,0.486-1.945c-0.377-0.108-0.959-0.013-0.972-0.485c0.511-0.027,0.383-0.624-0.486-0.486
	C109.515,80.837,107.501,81.616,109.52,82.768z M121.187,86.17c0.587,0.104,0.299,0.54,0,0.973h2.431
	c-0.145-0.955,0.656-0.963,0.973-1.457c-1.409-0.272,0.746-0.758,0.486-1.459c-0.991-0.849-0.953,0.362-1.944-0.485
	C122.645,84.708,121.916,85.442,121.187,86.17z M185.845,90.059c0.67-0.021,1.068,0.229,1.459,0.486
	c0.068-2.023,1.613-5.025-1.459-5.833V90.059z M193.138,89.087h1.459c-0.781-2.296,0.659-2.763-0.973-3.889
	C192.875,85.909,193.196,87.688,193.138,89.087z M188.276,86.17c0.271,2.159-0.848,5.708,1.457,5.834
	C189.804,89.981,191.349,86.983,188.276,86.17z M138.688,92.004c1.013,0.143-0.721,1.315,0.972,1.458
	c0.672-0.786,1.72-1.196,1.458-2.917h-1.458C139.807,91.503,139.003,91.514,138.688,92.004z M174.663,95.408
	c-0.186-2.005,1.396-3.123-0.484-4.375C173.001,91.747,172.485,95.417,174.663,95.408z M143.549,95.408
	c0.519-0.454,0.151-1.793,1.458-1.458c0.136-1.107-0.116-1.828-0.973-1.945C143.043,93.346,141.818,94.479,143.549,95.408z
	 M175.636,95.893c0.848,0.037,1.512-0.107,1.945-0.485c0.289-1.552-0.913-1.504,0-2.431c-0.621-0.026-0.674-0.623-1.459-0.486
	C175.461,94.372,176.336,94.412,175.636,95.893z M147.438,96.867c1.26-0.244,3.404-2.39,1.459-2.917
	C148.659,95.227,146.22,95.587,147.438,96.867z M182.929,99.296c-0.955-0.368,1.318-1.552,0.486-3.403
	C180.03,95.344,181.222,100.682,182.929,99.296z M152.787,99.296c2.233-0.551,1.755-0.808,2.431-2.917
	C153.739,96.686,152.733,97.458,152.787,99.296z M157.647,100.755c0.15-1.145,1.688-0.903,1.459-2.43
	c-0.621-0.026-0.674-0.623-1.459-0.486C157.536,98.708,156.72,99.745,157.647,100.755z M190.222,104.645
	c1.986-0.814,1.605-3.017,0.485-3.891C190.624,103.029,189.458,102.369,190.222,104.645z M256.337,103.672
	c1.527-0.246,1.986,1.145,2.432-0.486c-1.278-0.504-1.638-1.928-2.918-2.431C254.325,102.077,257.646,102.572,256.337,103.672z
	 M164.94,103.672c1.367,0.07,1.401-1.191,1.459-2.432h-1.459C165.231,102.791,164.032,102.743,164.94,103.672z M193.138,101.727
	c-1.666-0.494-1.158,3.651-0.486,3.89C192.841,103.342,192.948,104.002,193.138,101.727z M193.138,106.588h1.459v-3.402h-0.973
	c-0.297,0.027-0.576,0.072-0.486,0.486C193.59,104.439,193.526,105.412,193.138,106.588z M197.026,107.074
	c0.805-1.279-0.317-1.637,0.486-2.916h-1.459C196.063,105.446,195.787,107.021,197.026,107.074z M179.524,110.477
	c0.664-1.879-0.211-1.916,0.486-3.402c-0.572,0.076-1.38-0.083-1.457,0.486C179.117,108.178,176.21,110.26,179.524,110.477z
	 M204.319,112.422c-0.533-1.851,1.285-3.033-0.486-3.402C203.172,109.676,202.909,112.412,204.319,112.422z M183.901,113.395
	c0.959-1.5,1.369-2.797,0-3.89C183.226,110.877,182.632,112.286,183.901,113.395z M186.331,114.367h0.973
	c0.297-0.027,0.576-0.072,0.486-0.486c-0.262-0.344-0.342-2.281,0-2.917C185.33,111.641,187.356,113.2,186.331,114.367z
	 M266.062,113.881c0.151-0.658,0.691-0.929,0.484-1.945c-0.57-0.074-1.379,0.084-1.457-0.484c0.296-0.028,0.574-0.073,0.485-0.486
	h-1.458C264.028,112.676,265.263,113.059,266.062,113.881z M209.667,114.854c0.381-0.338,1.082-2.713,0-2.918
	C208.87,113.117,208.208,114.09,209.667,114.854z M216.474,118.256c-1.07-1.07,1.176-2.682-0.973-2.916
	C215.798,116.342,214.718,118.719,216.474,118.256z M220.362,121.659c-0.037-1.138,0.394-5.203-0.973-3.403
	C220.435,119.098,218.539,120.823,220.362,121.659z M221.821,122.145c-0.914-1.549,1.051-2.963-0.973-3.402
	C221.203,119.846,219.974,122.534,221.821,122.145z M203.833,122.145c0.379,0.107,0.564,0.408,0.486,0.973
	c1.859-0.016,1.543-1.875,0.973-2.916C205.149,121.191,203.979,121.154,203.833,122.145z M208.694,125.063
	c2.092-0.199,0.646-1.664,1.459-2.433c-0.572,0.076-1.381-0.083-1.459,0.486C209.233,123.561,209.034,124.207,208.694,125.063z
	 M213.556,124.576c-1.727,0.911-0.404,4.568,0.973,2.432C212.165,126.506,215.919,125.082,213.556,124.576z M233.976,128.951
	c1.528-0.557,1.181,0.764,1.943,0.973c-0.291-0.865,1.426-2.02,0-2.431c-0.996,2.53-0.223-0.931-1.943-0.972
	C233.065,127.449,234.267,127.4,233.976,128.951z M216.474,129.924h0.973c0.296-0.027,0.574-0.072,0.484-0.486
	c-1.033-0.502,0.821-1.928-0.972-2.43C216.157,128.285,217.28,128.645,216.474,129.924z M225.71,133.813
	c-0.533-1.852,1.286-3.034-0.486-3.402C225.354,131.859,223.862,133.371,225.71,133.813z M239.808,141.592h1.459
	c-0.621-1.586,0.609-2.34-0.973-2.432C239.745,140.688,240.437,140.444,239.808,141.592z M245.642,146.939
	c-0.759,2.238-1.412,4.742,0,5.834C245.403,151.145,247.446,148.219,245.642,146.939z M230.085,151.314h0.973
	c0.297-0.027,0.576-0.072,0.486-0.486c-0.449-0.768-0.391-1.738,0-2.916h-0.973c-0.297,0.027-0.576,0.072-0.486,0.484
	C230.537,149.166,230.474,150.139,230.085,151.314z M232.03,149.37c0.693,0.116,0.82,0.8,1.457,0.972
	c0.154-0.656,0.693-0.928,0.486-1.943C232.866,148.262,232.146,148.514,232.03,149.37z M106.116,174.65
	c0.067,0.904,0.32,1.623,0.973,1.943c1.076-1.13,0.429-1.302,0.972-2.431C107.214,174.13,106.548,174.275,106.116,174.65z
	 M72.084,178.053c-1.957,0.313-5.169-0.632-6.32,0.486C68.278,178.461,70.656,179.492,72.084,178.053z M34.652,186.316
	c2.875,0.025,3.398-0.418,4.375-1.457C36.323,185.166,35.629,184.461,34.652,186.316z M83.267,185.832
	c1.788,0.297,2.421,0.846,3.403-0.973C84.701,185.355,84.434,184.533,83.267,185.832z M43.89,186.805
	c-1.271-0.139-2.091,0.176-1.944,1.457c0.92,0.721,3.222,0.021,1.944-0.972C43.701,188.039,43.307,187.363,43.89,186.805z
	 M212.583,191.18h2.918C215.71,188.826,212.671,189.773,212.583,191.18z M203.347,191.665c0.338,0.381,2.713,1.083,2.918,0
	C205.087,190.867,204.114,190.207,203.347,191.665z M85.211,195.068c1.289-0.008,2.862,0.27,2.917-0.973
	C87.126,194.393,84.754,193.313,85.211,195.068z M175.149,194.582c-1.022-1.184-2.16,0.432-2.916-0.486
	C172.218,195.477,175.257,195.919,175.149,194.582z M78.892,196.527c1.28,0.804,1.638-0.318,2.917,0.484v-1.457
	c-0.847,0.035-1.512-0.109-1.944-0.486C79.748,195.764,79.066,195.891,78.892,196.527z M114.38,197.985
	c0.497,0.353,3.463,0.229,4.375-0.486C117.175,197.184,116.262,196.773,114.38,197.985z M109.033,9.846
	c-1.157-1.123,0.993-4.607-0.486-5.834c-1.321,1.996-1.318,3.197-0.972,6.319c-1.108-0.136-1.827,0.117-1.944,0.972
	c0.857-0.139,1.505,2.289,1.944,0.973C105.274,11.399,108.779,9.782,109.033,9.846z M102.227,7.416
	c-3.947,2.623-3.588,6.847-7.292,9.722c-3.206,5.854-9.434,18.545-14.099,25.767c-3.345,5.178-6.096,8.463-7.292,11.182
	c0.052-0.118-0.466,0.486-0.486,1.458c-0.037,1.805,1.892-1.71,0.486-0.486c3.622-3.154,2.236-4.033,5.348-7.291
	C86.474,33.791,94.002,21.402,102.227,7.416L102.227,7.416z M110.978,7.901c-1.961,2.757-0.975,7.814-0.973,9.236
	C111.785,14.163,110.079,11.75,110.978,7.901z M110.492,16.653c-1.92,10.631-1.794,17.453-1.945,24.307
	c-0.045,2.102-0.784,5.037,0.973,7.778C109.501,34.032,110.037,25.092,110.492,16.653L110.492,16.653z M103.686,47.766
	c-0.841,1.875-11.187,0.676-7.292,2.916c-1.865,1.283-1.351-0.871-2.431-0.972c-1.598-0.149-6.902,2.647-9.723,1.944
	c2.68-6.143,7.455-14.105,10.696-24.794c0.572-0.076,1.379,0.084,1.458-0.486c1.391-5.455,4.679-10.667,7.778-17.501
	c-4.534,2.4-5.207,13.028-8.265,16.043c-0.44,0.434-0.558-0.868-0.972,0c-0.417,0.872-0.66,3.717-1.458,5.348
	c-2,4.084-5.184,9.248-7.292,14.099c-1.813,4.171-1.975,8.128-5.834,10.696c0.572,0.076,1.38-0.084,1.458,0.485
	c-2.43,1.003-0.461,2.886-1.458,3.89C63.306,53.02,46.888,48.045,36.598,44.363c0.419,0.149,0.216,0.62,0,0.485
	c-5.489-3.41-14.26-4.035-19.932-5.348l-0.486-0.972c-1.529-2.29,1.902-5.423,0-9.237c-1.468,2.987-0.688,6.54-0.486,9.723
	c-4.995-1.025-11.1,1.348-14.098,3.403c-6.188,7.095,7.531,13.64,8.75,20.418c1.984,0.114,2.11,2.455,3.889,3.89
	c-0.545,0.049-0.757-0.707-0.972,0c4.233,3.455,5.178,7.429,7.778,10.694c-0.587,0.103-0.299,0.54,0,0.972
	c-0.857,0.916-1.505-0.664-1.944,0.974c1.242,0.054,0.965,1.628,0.972,2.917c1.892,0.902,2.149,0.521,2.431,2.431
	c0.919,0.109,1.073-0.548,1.945-0.485c6.584,11.496,11.672,28.033,15.554,39.378c3.464,10.121,3.408,16.945,4.862,25.766
	c2.981,11.677,4.292,24.283,4.861,35.488c-0.927-0.912-0.88,0.289-2.431,0c0.544-0.699,0.524-1.187-0.486-1.459
	c-0.09,0.721-1.175,0.447-1.944,0.486c-0.579,1.354-0.557,2.959,0.486,3.891c3.723-0.199,7.824-1.305,12.64-4.377
	c-1.319,0.303-3.858-0.616-4.375,0.486c0.7,1.075,1.187-0.611,1.458,0.486c-1.167,0.412-1.287,0.313-3.403,0.484
	c0.319-3.244-0.642-7.771,0.486-10.209c2.907,0.386,4.77,0.214,9.723,0.486c0.721-0.574,0.756-1.836,1.458-2.431
	c0.809,1.526-1.808,1.987-0.486,2.431c2.458,0.256,6.726-0.084,11.182,0.973c0.286,0.189-2.027,0.386-0.972,0.486
	c1.667,0.16,6.447-2.097,10.209,0c-2.974,2.037-6.373-1.979-7.778,0.973c3.732-0.746,2.539,2.479,5.348,0.485
	c-0.572-0.075-1.38,0.085-1.458-0.485c3.461,0.918,3.619-0.719,5.834-1.944c-1.698-1.174-0.448-4.625,0.972-7.292
	c-0.484,2.271-1.205,4.305-0.972,7.292c1.985-0.121,2.957-1.256,4.375-1.944c0.049,0.547-0.707,0.758,0,0.973
	c2.176-2.709,6.644-3.814,8.75-4.375c-1.327,1.761-5.896,2.844-5.348,4.86c4.002-3.555,7.596-7.009,11.182-6.806
	c-3.428,1.759-6.66,3.711-9.237,6.318c4.458-1.682,7.715-7.143,10.695-3.889c-1.146,1.189-0.904-0.727-2.431-0.486
	c-1.591,2.138-4.746,2.709-5.833,5.349c2.33-0.587,2.895-2.938,5.348-3.402c0.259,0.699-1.895,1.187-0.486,1.458
	c1.316-1.113,2.552-2.31,4.375-2.917c0.353,1.486-0.839,1.431-0.486,2.917c1.961,0.942,2.244-2.23,3.403-0.486
	c-1.922-0.082,0.155,0.748-0.973,1.459c0.748,0.763,2.832-0.813,3.403,0.973c0.726-0.57,0.573-2.02,1.945-1.943
	c-0.407,4.012,6.516,2.428,9.237,2.43c5.52-2.871,10.17-1.057,16.043,0.974c-0.297,0.026-0.576,0.071-0.486,0.485
	c1.587,0.129,1.031-1.887,2.431-1.944c0.465,1.51,4.024-0.424,3.891,0.485c-0.363,1.611-1.492,2.109-1.459,2.918
	c-0.117-0.855-0.837-1.108-1.945-0.974c0.016,2.611-2.302,3.776-1.945,0.974c-0.329,0.541-1.615-0.098-1.944,1.457
	c2.039,1.109,3.357,1.418,4.375,0.486c-0.805,0.208,0.043-1.813,0.486-1.943c1.294,0.488,2.161,1.404,2.431,2.916
	c-1.007,0.289-3.194-0.602-3.403,0.486c4.299,2.053,3.095-3.775,6.319-0.486c-2.243,0.213,0.744,2.146-0.485,0.974
	c0.518-1.252,1.646,0.89,2.432,0.972c-0.829,0.199,0.102,0.627,0,1.458c-4.607,1.704-8.912-1.475-14.584-1.458
	c-2.705,0.008-6.35,1.217-9.237-1.943c-1.074,1.543-1.966,2.313-3.89,0.973c-1.315,1.178-0.016,2.148-1.944,2.916
	c-10.209-3.15-20.386-6.616-31.114-4.861c-3.961,0.648-8.738,3.4-12.64,2.432c1.681,0.061,2.292-0.95,3.403-1.459
	c-3.097-0.299-5.485,3.227-8.265,1.459c0.572-0.075,1.379,0.084,1.458-0.485c-1.498-0.118-7.283,1.047-4.862,0.485
	c0.139,0.856-2.289,1.506-0.972,1.943c1.352-1.234,3.554-2.254,4.375-0.972c-2.292,0.626-4.59,1.244-6.806,1.944
	c-0.26-2.818-3.705,1.602-3.889-0.974c1.546,0.511,3.605-0.646,4.375-1.458c-4.55,1.113-7.319,2.574-12.154,4.377
	c1.785-0.742,8.878-0.57,5.833-1.945c2.746,0.664,2.573,0.86,5.348,0c-0.544,0.699-0.524,1.187,0.486,1.459
	c0.842-1.121,4.28-2.178,5.348-1.459c-1.203,0.125-4.015,1.127-2.917,1.945c6.134-1.658,13.001-3.236,21.391-4.863
	c5.04-0.976,8.915-1.773,15.071-0.971c5.421,0.705,10.783,2.711,17.988,3.889c0.677-0.619,0.211-2.381,1.458-2.432
	c8.844,0.264,14.835,2.252,28.198,2.432c-1.242-0.055-0.965-1.629-0.973-2.918c0.756,0.801,1.895-0.166,2.916-0.484
	c-1.627,3.408,0.938-0.262,1.459-0.486c-0.006,0.002,13.25,2.688,13.611,2.916c1.354,0.854,0.734,2.908,2.432,0
	c-7.979-0.779-11.299-2.955-19.445-4.375c0.143-0.99,1.314-0.953,1.458-1.943c-3.173,0.084-2.067-1.045-3.403-1.944
	c18.172,6.293,29.436,10.131,46.186,6.806c-1.34-1.686-2.475-0.061-3.403-0.486c0.912-0.115-0.274-0.799,0.485-0.971
	c1.525-1.396,2.851,1.713,3.89,1.943c2.709,0.604,9.938-4.354,12.642-1.458c0.098,0.104,6.521,3.41,2.43,0.485
	c9.871,3.177,13.384-0.033,24.795,0.486c-1.246,1.437-4.668,0.816-8.266,0.971c2.428,3.178,8.336-1.024,12.153-1.457
	c2.46-0.278,7.779,2.642,10.695-0.973c4.475,5.241,10.329,5.098,16.528,2.916c-0.207,1.344,1.813,0.457,1.945,1.459
	c-1.13,0.543-1.302-0.104-2.432,0.973c0.563-1.024-3.346,0.009-4.861,0c-4.186-0.021-8.771-2.029-13.611-0.973
	c1.289-1.246-0.85-0.781-1.459-1.459c-0.668,1.108,1.254,1.828,0,1.945c-9.113-2.598-11.053,2.736-19.445-0.973
	c-0.192,0.836,0.722,1.246,0,1.459c-2.809,0.213-3-1.613-5.348-0.486c1.73,0.77,4.781,1.006,6.805,1.943
	c0.084-0.728-0.172-1.793,0.486-1.943c2.549,1.598,4.48,0.768,7.779,1.943c1.002-0.855,0.426-1.504,0.973-1.943
	c2.813-0.165,7.737,0.895,10.694,0.486c-0.03,0.004,0.7-1.43,0.974-1.459c0.478-0.053,1.272,1.227,2.431,1.459
	c2.489,0.496,9.247,0.045,13.612,0c1.572-0.018,3.127-0.875,4.375-0.973c1.963-0.156,4.263,2.09,5.834,0
	c-0.563-0.888-4.461,1.192-4.861-0.974c2.841,1.127,2.877-0.623,5.834-0.485c-0.426,0.856-1.628,1.506,0,1.944
	c3.306-1.774,7.52-1.121,10.695-1.459c0.354-1.326-0.967-0.979-0.974-1.944c-2.333-0.049-2.026,1.627-2.431,0
	c-2.072,1.512-5.717-0.594-9.723,0.486c3.176-6.368,4.188-19.008,4.375-27.225c2.129-0.354-0.393,0.966,0.973,0.972
	c0.027-0.296,0.072-0.575,0.486-0.485c-0.002-0.486,0.394-0.578,0.485-0.973c-2.079,0.134-2.479-1.411-3.403-2.432
	c0.854-0.116,1.107-0.836,0.973-1.943c-2.95-0.291-4.637-1.848-6.807-2.917c1.239-0.996,2.836,0.764,3.891,1.459
	c2.314-3.935-1.834-3.521-2.432-6.808c-0.968,0.33,0.479,1.615-0.486,1.944c-0.115-0.745-0.801-0.071-0.973,0.486
	c1.873,0.071,2.797,1.092,3.403,2.431c-4.432-2.148-5.228-3.719-10.209-6.32c2.075-0.354,1.341-3.52,1.457-5.834
	c-1.328,0.355-3.8-1.188-4.375-2.916c-1.342-0.33-1.108-0.088-1.944-1.459c-0.379,0.338-1.082,2.713,0,2.918
	c0.104-0.547,0.539-0.758,0.973-0.973c-1.479,0.856,1.326,1.506,0,1.943c-0.643-0.006-0.443-0.852-0.973-0.973
	c-0.379,0.338-1.082,2.713,0,2.918c0.828,0.805,6.297,2.639,4.377,4.375c-1.572-3.303-5.848-2.068-6.32-4.861
	c-0.121-0.709,1.213-1.805,0.973-2.917c-0.08-0.366-3.085-1.222-0.486-1.944c-0.545,0.7-0.523,1.186,0.486,1.459
	c0.563-2.65-0.449-3.172-1.459-1.945c-0.326-3.172-4.789-3.989-7.293-6.319c0.512-0.026,0.383-0.623-0.484-0.486
	c-0.869,0.604,0.377,1.414-0.486,2.433c1.343-0.77,2.181,1.262,0.972,1.457c0.146-0.789-0.655-1.312-0.972-0.484
	c-0.194,1.502,1.908,4.947,4.376,3.889c-0.938,1.34,1.272,2.486,0.972,0.973c1.045,2.072,2.987,2.248,3.891,3.402
	c-0.488-0.001-0.58,0.395-0.974,0.486c-28.299-16.479-53.136-33.479-79.241-48.615c0.27-0.001,0.551,0.395,0,0.486
	c-2.914-3.78-6.888-2.852-7.779-6.807c-3.193-1.527-4.629-1.83-7.778-3.402c0.546-0.104,0.757-0.54,0.972-0.973
	c-0.727-0.569-1.988-0.604-2.43-1.459c1.381-0.229,2.445,0.217,4.375,0.974c-0.329,1.817-1.615-0.36-1.945,1.458
	c2.454,0.109,5.563,3.746,6.807,1.943c-0.504-1.617-5.483-1.299-4.375-2.916c3.523,0.926,7.103,3.635,10.695,5.834
	c1.348-1.037-0.898-2.648,0.973-2.918c-0.559,1.135-0.463,5.012,1.945,3.403c-0.387-1.331,0.355-3.53-0.486-4.862
	c0.207,1.365-1.813-1.218-1.944,0.486c0.271-0.001,0.552,0.395,0,0.486c-0.812-0.967,0.044-0.618,0-1.944
	c-1.128,0.155-1.867-0.078-2.433-0.485c-0.799,1.338,0.314,2.473-0.485,3.402c-2.185-1.718,1.366-4.339-2.916-4.861
	c0.251,1.83,0.614,2.213-0.974,2.916c-0.059-1.886,0.591-4.479-1.943-3.889c-0.915,0.857,0.665,1.506-0.973,1.945
	c-0.885-1.037-0.438-2.648-0.973-2.918c-0.271,1.408-0.759-0.745-1.459-0.485c-0.674,0.298-0.072,1.872-0.973,1.945
	c-0.152-0.657-0.691-0.929-0.486-1.945c-1.244,0.526-2.316-1.478-2.916,0c0.215,0.672,0.91,2.245-0.486,2.917
	c-3.094-1.68-9.955-2.355-3.402,0c-1.316,0.428-4.422-1.209-5.348,0c2.229,0.039,3.373,1.163,5.348,1.458
	c0.915-0.856-0.665-1.506,0.973-1.944c3.44,1.938,4.795,1.205,4.861,4.375c-4.116-1.183-9.477-3.82-13.126-2.432
	c1.246,0.051,2.317,0.275,2.917,0.973c-4.042,0.019-6.585-0.57-0.973,0.971c-3.264,0.373-5.074,0.275-7.779,1.945
	c1.29,0.008,2.863-0.27,2.917,0.973c-0.964,0.092-6.017,0.669-6.32-1.459c2.078-0.104,2.478,1.133,3.403-0.485
	c-0.852-0.92-1.689,0.849-1.458-1.458c0.855,0.736,4.1,2.132,4.375,0.486c-1.841-0.994-4.937-0.512-6.32-0.486
	c1.81-0.674-1.431-0.072-0.973-0.972c0.546-0.104,0.757-0.54,0.973-0.974c-1.724-0.896-3.271,0.78-1.458,0v1.459
	c-3.163-0.402-3.082,0.23-3.403,1.944c-0.073-0.899-1.646-0.299-1.944-0.974c-1.076,0.701,0.612,1.188-0.486,1.459
	c-0.132-1.704-2.153,0.878-1.944-0.486c2.177-0.367,1.116-1.154,2.431-1.945c0.748-0.142-1.303,0.264-3.889,0
	c1.328-1.343-0.712-0.455-0.973-1.457c1.319-0.302,3.858,0.617,4.375-0.486c-2.525-0.196-3.74-0.732-5.348,0.972
	c-0.342-1.44-2.794-0.771-2.917-2.431c0.982,0.4,6.056,1.019,8.265,0c1.958,0.882,0.208-0.344-0.486-0.486
	c-1.538-0.316-7.458,0.412-9.723,0.973c-0.205-1.154-4.228-3.269-5.348-1.945c0.298,0.675,1.872,0.074,1.944,0.973
	c-1.017,1.326-1.827-1.72-2.431,0.486c2.702-0.129-1.015,1.886,0.486,1.943c0.665-0.475,4.01,0.508,4.375,1.945
	c-3.675-2.376-7.608-1.545-9.723-4.861c1.973,0.995,3.505,2.604,5.348,1.457c-1.989-0.604-4.117-1.068-5.348-2.431
	c1.952-0.308,3.317,2.483,4.861,0.972c1.479-2.671-3.616-2.127-4.861-3.889c1.704-0.132-0.878-2.152,0.486-1.943
	c6.045,2.387,18.115,1.688,24.308,3.402c-1.894,0.672-6.258,0.216-8.75,0c-4.583-0.398,3.616-1.943-6.32,0
	c-1.727,0.338-0.668,0.343,0.486,0.486c6.138,0.764,10.621-0.283,15.071,0.972c-4.122,0.897-9.234-0.569-14.099,0.485
	c4.779,0.795,10.22-0.178,14.584,0.973v0.973c-0.867-0.111-1.904-0.93-2.917,0c1.485,0.697,1.523-0.178,3.403,0.485
	c8.769,0.228-0.061-0.698,0-0.972c0.471-2.117,2.559,0.797,3.889-0.974c-1.458-0.715-3.274,0.642-4.375-0.972
	c2.118-0.313,5.496,0.634,6.808-0.486c-1.109,0.137-1.829-0.117-1.946-0.972c3.559,0.397,5.762,0.173,8.266,1.458
	c-1.24,0.591-2.837-0.291-3.89,0.486c-4.518-2.092,2.257,1.826,5.832,0.485c-0.297-0.674-1.871-0.073-1.942-0.972
	c1.308-1.02,5.517,1.681,5.833-0.973c-4.643-1.196-11.091-0.08-14.584-2.916c0.299,0.142,1.872,1.209,1.946,0
	c-1.983-0.123,0.742-2.575-1.459-2.918c-0.904,0.199-1.259,0.555-1.458,1.459c-0.207-0.928-1.389-0.881-0.972-2.432
	c7.027-0.134,8.618-0.002,3.403-0.486c-1.447-0.133-3.287,0.058-3.889-0.972c0.497-0.969,3.463,1.023,4.375-0.485
	c-2.032-0.465-2.908,0.084-4.862-0.973c6.653-0.248,10.373,0.689,4.375-1.458c3.68-0.372,9.561,2.136,15.557,0.972
	c-8.584-1.299-13.264-1.24-21.391-1.943v-4.862c-1.017-0.563-1.827,0.228-2.431-1.458c14.697,0.375,22.494,0.54,35.49,4.375
	c-1.785,0.912-4.351-0.996-6.808-0.972v4.375c1.531-0.235,1.103,1.491,2.918,0.972c0.149-1.47-0.54-3.781,0.972-3.889
	c-0.354,0.496-0.229,3.463,0.486,4.375c0.271-1.409,0.76,0.746,1.458,0.486c2.035-1.627-0.946-4.559,1.944-5.834
	c0.851,1.273,4.359,2.426,5.349,1.944c-0.174-2.459-16.453-4.45-16.528-4.86c-0.059-0.307,2.457-1.346,1.457-1.459
	c-0.705,0.267-2.513-0.567-2.431,0.486c0.572,0.076,1.381-0.084,1.459,0.486c-11.317-0.573-15.183-0.668-30.628-1.458
	c2.401-2.093,13.341-1.606,18.96-2.431c-0.379-0.107-0.563-0.407-0.485-0.973c-0.707-0.266-2.514,0.568-2.432-0.486
	c2.417,0.496,2.081-1.006,2.432-1.457c1.793,0.476,2.407,2.129,3.889,2.916c-1.275-3.119,8.721-0.289,8.752-1.943
	c-0.729-0.083-1.795,0.173-1.945-0.486c1.129-0.328,1.303-1.615,2.432-1.945c0.14,0.857-2.289,1.507-0.973,1.945
	c1.092-0.185,2.477-0.527,2.43-0.486c-0.584,0.533-1.574-0.599-1.457-0.971c0.1-0.314,6.275-0.111,3.402-0.973
	c-1.748-0.523-3.469,0.188-4.861,0.486c-1.52,0.324-4.992,0.974-8.75,0.973c2.238,1.118,5.203-0.406,7.777,0.973
	c-3.947,1.325-5.174-0.857-7.777,0.971c-1.295-1.621-3.334-2.5-5.834-2.916c1.307-0.68,6.844,0.358,10.694,0
	c-3.265,0.305,2.864-0.075,1.944-0.486c-0.434-0.193-3.309-0.191-2.916-0.486c2.111-1.591,9.871,0.682,14.584,0.486
	c0.31-0.014,0.126-1.352,0.486-1.458c1.381-0.41,8.289,4.226,10.694,1.944c2.942,0.652-1.543-0.416-2.917-0.973
	c-0.604,0.868-1.413-0.377-2.432,0.486c-0.622-0.835-2.313-0.604-2.43-1.945c-1.853,0.231-3.035-0.205-3.404-1.457
	c1.125,0.35,2.771,0.897,4.375,1.944c0.188-3.104-2.771-1.042-3.889-3.403c1.291-0.404,3.351,1.988,4.861,0.973
	c-1.752-1.668-4.816-1.717-5.834-2.918c2.539,0.113,3.407,1.438,4.861,1.459c0.521-2.305-2.439-1.125-2.43-2.918
	c4.428,2.728,11.389,5.431,12.639,9.724c2.316-0.183,3.637,1.157,4.861-0.485c-0.543,0.699-0.523,1.186,0.486,1.457
	c-0.382-8.646,3.368-14.589-1.458-21.391c3.228,0.427,4.918,6.715,8.75,9.236c-1.8-3.568-6.901-10.873-8.75-9.723
	c-0.117-0.693-0.801-0.82-0.974-1.458c0.699,0.544,1.187,0.524,1.459-0.485c-1.791,0.055-0.936-1.821-3.891-2.432
	c1.941,0.451-1.484-3.75-2.43-1.943c0.997-0.558,2.316,0.763,0.973,0.972c-1.365-0.279-2.259-3.543-3.891-1.945
	c0.912,0.116-0.275,0.8,0.486,0.974c4.531,1.441,7.567,6.949,9.724,10.209c-0.709,2.369,1.575,7.732-1.458,7.777
	c1.285-1.541-0.641-1.453-0.973-1.943c-2.271-3.357-9.905-13.391-15.07-11.183c1.409-1.714-1.844-1.726-2.432-0.485
	c1.117-1.918-2.017-1.088-2.432-1.945c1.502-0.678,2.797,1.623,3.891-0.973c-3.578,0.064-4.588-0.153-7.293-0.485
	c3.793-0.562,3.139-0.474,8.266,0c-0.145,0.991-1.316,0.953-1.459,1.944c2.426,0.092,3.139,0.813,5.834,1.459
	c-0.371-2.176-4.432-1.75-4.861-2.432c1.709-1.398,2.519-0.015,4.861,0.486c-2.24-3.977-11.738-2.907-14.585-2.432
	c5.718-3.344,12.048,0.396,14.585,0.486c0.207-1.343-1.813-0.455-1.945-1.458c0.67-0.804,2.883,0.319,1.945-0.485
	c-0.492-0.621-3.281-1.465-4.375-2.918c2.166-0.84,7.369,5.072,7.291,1.944c-5.283-3.167-14.373-4.7-19.445-1.458
	c1.812,0.674-1.432,0.073-0.973,0.973c-1.987,13.605-1.953,17.466-2.432,27.709c-8.112,1.111-14.438,1.293-21.391,0
	c7.977-1.205,13.219,1.136,19.934-0.485c-5.164-0.336-9.344-8.677-13.127-5.349c0.857,0.916,1.506-0.664,1.945,0.973
	c-1.017-0.262-1.827-0.852-2.431,0.486c2.458-0.625,3.095,0.418,3.404-0.974c2.547,1.181,4.416,3.039,6.807,4.375
	c-2.262-0.128-5.938,1.599-8.266-1.458c0.711-0.008,1.541,2.051,1.459,0c-1.469-1.048-1.469-0.41,0-1.458
	c-6.04,0.386-6.916-0.241-9.724,0.972c0.7,1.076,1.186-0.611,1.458,0.486c-2.419-0.996-3.757-0.248-7.778-0.972
	c0.528-0.116,1.167-0.8,0.486-0.972c0.001,0.27-0.394,0.552-0.486,0c0.337-0.381,2.712-1.084,2.917,0
	c-0.572,0.076-1.379-0.084-1.458,0.485c7.214,0.001,9.436-0.706,3.889-0.972c1.476-1.441,6.302,0.469,7.778-0.973
	c-2.832-1.515-8.019-4.428-12.154-1.944c-0.862-1.204,0.692-2.892-1.458-3.403c0.687,5.42-1.275,2.239-2.431,1.944
	c0.637,0.008,0.619,1.349,0,1.458c-1.72,0.854-2.505-1.633-2.917-0.486c0.375,0.329,0.74,1.616-0.486,1.945
	c1.222-1.432-1.219-1.587-1.458-0.973c0.746,0.16-0.201,2.67-0.972,2.918c0.497,0.969,3.463-1.023,4.375,0.485
	c-6.587,1.212-3.929-2.257-9.723,0c0.497,0.97,3.463-1.022,4.375,0.486c-2.167,0.938-3.32-0.722-5.834,0.972
	c0.946,2.316-1.815,3.947-4.375,4.375c1.987-0.053,2.263-0.297,1.945,1.458c0.922-0.075,3.734-1.821,4.375,0
	c-1.529,2.015-4.894-0.391-6.32,1.458c4.697,0.174,6.027-0.756,7.779,0c-2.499,1.684-3.993,0.372-7.779,0.973
	c-0.55,1.525,0.14,1.283-0.486,2.431c4.138-0.252,7.905-1.597,12.64-1.944c-0.857,0.915-1.505-0.665-1.944,0.973
	c1.247,0.795,1.873-1.349,2.917-1.459l-0.973,1.459c1.614,1.33,6.266-2.687,7.779,0c-5.604,0.635-12.068,0.067-19.446,1.944
	c0.967,0.329-0.481,1.615,0.486,1.944c1.79-1.895,5.46,0.398,8.265-1.944c-3.206,0.003-5.581,1.168-8.265,0.486
	c8.669-1.175,9.831-1.824,19.446-0.972c-6.27,0.779-6.321-0.666-10.695,0.972c6.512-0.483,7.899,0.106,15.557-0.486
	c0.08,1.589,1.125,3.144-0.973,3.403c0.555-1.426,0.287-1.807-0.972-2.432c-1.873,0.957-5.029,0.051-7.292,0.973
	c0.595,0.009-0.123,2.747-0.486,3.402c0.846,1.398,3.834-0.267,2.431-0.973c-0.116,0.747-0.801,0.072-0.972-0.486
	c2.04,1.223,0.343-1.219,1.944-1.457c0.29,1.007-0.601,3.192,0.486,3.402c0.329-0.967,1.615,0.481,1.945-0.486
	c-1.085-0.071,0.631-1.225,0-2.431c-0.836-0.192-1.246,0.722-1.458,0c0.657-0.151,0.928-0.69,1.944-0.485
	c0.252,2.132,0.152,1.597,0.486,3.402c1.327,0.045,0.979-0.81,1.944,0c1.479-0.857-1.327-1.505,0-1.943h0.973
	c-0.849,0.99,0.362,0.953-0.486,1.943c0.854,0.28,2.856-0.587,2.917,0.486c-2.874,0.238-7.737-1.023-7.778,0.972
	c2.043-0.184,3.991-0.918,6.806,0.486c-5.221-0.468-9.227,0.269-13.126,0.485c-1.007,0.291-3.193-0.601-3.403,0.486
	c7.053,0.398,13.546-0.822,18.96,0.486c-5.435,0.722-14.243-1.928-16.043,2.431c5.012,0.894,13.055-3.696,11.667,3.89
	c0.572,0.076,1.38-0.084,1.458,0.485c-3.246-0.319-7.771,0.642-10.209-0.485c1.762,0.396,1.175-3.67,0-3.403
	c-6.574,0.944-8.335,0.125-17.015,1.458c-0.76-1.912,0.274-2.949-0.486-4.861c2.03,0.153,2.382-1.037,3.89,0
	c-0.867,0.713-1.904-0.305-2.917,0.973c2.618-0.474,5.542-0.635,5.348-0.973c0.208-1.365-1.813,1.219-1.945-0.486
	c1.928-1.603-1.869-0.476-4.375,0c0.343-4.063,0.569-7.639,0-13.125c2.438-1.439,2.438-1.195,0-1.459
	c-1.103,11.052-0.366,16.676-0.972,21.392c-0.979-1.683-5.79-1.386-7.292-3.89c4.129-0.594,0.651-0.824,2.917-1.943
	c-0.486-0.639-5.232,0.348-4.375,0.972c1.425-0.13,1.805-0.671,2.431,0c-0.857,0.915-1.506-0.665-1.945,0.972
	c0.27,0,0.552,0.395,0,0.486c-1.205-0.484-3.7-2.953-4.375-0.972c1.09,0.206,1.55,1.043,2.431,1.458
	c-1.485-0.073-3.986-0.362-4.862-1.944c1.527-0.245,1.987,1.146,2.431-0.485c-0.619-0.678-2.381-0.211-2.431-1.459
	c2.202,1.385-0.524-2.086,1.458-1.943c-0.231,1.852,0.206,3.035,1.458,3.402c1.112-1.092,6.629-1.367,7.778-0.972
	c0.915-0.856-0.665-1.505,0.973-1.944c-0.409,2.395-0.409,3.925,0,6.319h1.944c1.942-16.399-0.192-26.392,2.917-51.532
	c-1.435-1.435-1.968-0.881-3.403-1.944c0.566,16.073-0.507,29.688-1.458,38.893c-1.037-1.347-2.648,0.899-2.917-0.973
	c1.177-1.005,2.15,0.804,2.917-0.972c-2.322,0.295-4.272,0.082-4.862,1.457c0.836,0.192,1.246-0.722,1.458,0
	c-2.383,1.201-3.629,1.068-2.917-0.485c-0.579,1.847-5.528,3.422-6.32,1.944c2.528-0.549,7.019-0.381,3.889-1.944
	c0.057-0.81,3.975-0.162,2.431-0.972c-0.727-0.084-1.794,0.174-1.944-0.486c2.294-0.503,0.648-0.574,2.917-1.458
	c-0.106,0.61-0.758,0.994,0.486,0.972c0.049-0.152,0.632-2.57,1.945-0.972c-1.238,0.048-2.101,1.104-1.945,2.431
	c0.143-1.693,1.316,0.041,1.458-0.973c-0.746-0.116-0.071-0.801,0.486-0.973c0.727,0.084,1.794-0.172,1.944,0.486
	c-0.706,0.266-2.512-0.568-2.431,0.486c1.129,0.438,2.055,0.545,3.403-0.486c-0.2-0.904-0.554-1.259-1.458-1.458
	C103.144,49.08,105.184,48.25,103.686,47.766L103.686,47.766z M86.669,56.03c-0.646-2.113-2.921,1.137-3.889-0.973
	c-0.208-1.343,1.812-0.455,1.944-1.457c-1.906,2.582,6.247,0.688,5.348-1.459c1.01,0.272,1.03,0.758,0.486,1.459
	c1.694-0.144-0.041-1.316,0.972-1.459c0.786,0.363,1.475,1.795,3.403,0.486c0.089-0.414-0.19-0.458-0.486-0.486
	c-1.389-0.563,0.785-0.563,0.972,0c-0.299,0.434-0.587,0.871,0,0.973c-0.585,0.527-4.558,0.189-4.861,2.431
	c0.257-1.454-2.084-0.829-3.889-0.485c0.092,0.394,0.487,0.483,0.486,0.972c0.927-0.207,0.88-1.39,2.431-0.972
	c-2.316,1.81-5.297,1.719-7.292,2.431c-0.458-0.899,2.782-0.3,0.972-0.974C83.637,56.083,84.823,56.102,86.669,56.03z
	 M93.477,50.682c1.681,0.783-3.202,1.582-2.917,0.972C87.929,51.995,93.117,50.93,93.477,50.682z M88.615,52.141
	c0.896-1.322,0.059,1.295-1.458,0.485c0.079,0.57,0.886,0.41,1.458,0.486c-0.623,1.261-2.314,0.218-2.431,0.972
	c-1.716-0.143,1.716-1.314,0-1.458C86.102,51.572,87.91,52.408,88.615,52.141z M97.366,68.668c-2.117,0.512-5.362-1.279-6.806-1.943
	C92.431,65.844,95.431,67.998,97.366,68.668z M96.393,69.641c-1.771,1.572-3.989-0.797-6.32-1.457
	C92.14,67.036,95.007,69.85,96.393,69.641z M126.535,66.239c-0.384-2.553,5.989-0.684,7.292-1.458
	C133.524,66.934,128.459,64.333,126.535,66.239z M117.784,51.167c0.563-1.868,4.259-0.603,6.32-0.972
	c1.347-0.149,7.097,0.076,3.403,0.486C121.469,50.919,121.876,50.779,117.784,51.167z M125.076,48.252
	c-1.186,0.271-1.035,1.881-2.917,1.458c-1.133-3.163-4.687,1.527-5.833,0c0.299-0.433,0.587-0.87,0-0.973
	c0.079-0.57,0.886-0.41,1.458-0.486c-5.862-1.067-0.036-0.996,0.972-1.458c0.681,0.172,0.042,0.855-0.486,0.973
	c0.172,0.762,0.856-0.426,0.973,0.485c1.013-0.144-0.722-1.315,0.972-1.458c-0.079-0.57-0.886-0.41-1.458-0.486v-1.944
	c1.562-0.103,1.183,1.733,1.944,2.431c1.036-0.537,3.95-0.503,6.806-0.486c-0.767,1.776-1.739-0.033-2.917,0.973
	c0.213,0.541,2.146-0.098,0.972,1.458c0.857,0.139,1.505-2.289,1.944-0.972c1.656,0.543-2.142-0.104-0.486,0.972
	c-0.11,0.7-1.451,0.17-1.458,0.973C124.552,49.438,124.532,48.952,125.076,48.252L125.076,48.252z M114.38,44.848
	c0.439-0.537,1.087-0.336,1.945,0c-0.299,0.434-0.587,0.871,0,0.973c-0.143,1.693-1.316-0.041-1.458,0.973
	C113.637,46.464,116.626,45.178,114.38,44.848z M126.535,42.417c-1.159,1.435,0.787,1.968,0,3.403
	c-1.226-0.329-0.861-1.615-0.486-1.944c-3.769-1.306-6.305,0.085-8.264,0C118.901,42.344,122.46,42.903,126.535,42.417z
	 M139.661,39.014c-0.767,1.461-1.739,0.797-2.917,0C137.016,37.342,138.625,38.733,139.661,39.014z M131.881,46.793
	c0.771-1.845,3.698-0.582,4.375-0.486C134.989,47.104,134.152,46.401,131.881,46.793z M144.036,46.793
	c0.416,1.59-4.048,1.014-6.806,0.973c-1.225-0.02-7.651,0.369-2.917-0.486C138.45,46.533,140.808,47.565,144.036,46.793z
	 M130.423,53.113c0.108-1.513,2.42-0.821,3.889-0.972C133.753,53.205,131.648,53.404,130.423,53.113z M112.437,74.016
	c0.391-1.834,2.5-0.035,3.403,0.486C115.396,75.534,113.885,73.583,112.437,74.016z M139.174,80.823
	c-0.124-0.898,1.666,2.736,1.944,3.402c-1.049,1.33-3.365-0.166-4.375-0.485c1.348-1.151,2.273,0.766,3.403,0.485
	c-0.423-0.711-0.728-1.541-1.945-1.457C138.635,81.913,140.36,81.965,139.174,80.823z M154.731,81.309
	c-0.924,1.619-1.324,0.381-3.402,0.485C151.698,80.026,152.884,81.844,154.731,81.309z M155.704,81.309
	c2.182,2.408,7.904,1.489,10.209,4.86c-4.082-1.94-6.961-2.403-11.182-3.889C154.946,81.848,155.158,81.412,155.704,81.309
	c-0.6-0.697-1.672-0.922-2.917-0.973c1.758-1.854,5.44,1.454,7.778,0.973C159.991,83.559,156.54,80.284,155.704,81.309z
	 M166.399,83.253c-1.566,1.661-3.59-0.808-5.834-0.973C161.757,80.059,163.442,84.178,166.399,83.253z M247.101,153.745
	c2.078-1.769-0.764-3.839,1.944-6.319c-14.433-6.91-30.866-16.688-43.753-22.363c-0.811-0.356-1.895-0.748-2.918-0.485
	c-31.988-17.781-66.58-31.651-101.12-43.268C90.565,77.714,80.359,75.553,70.141,71.1c-0.394,1.668-7.767-1.89-11.667-2.916
	c-14.847-3.91-32.066-10.717-46.185-5.834c-0.458-0.899,2.782-0.299,0.972-0.973c4.4-2.425,9.005-1.425,15.557-1.945
	c-3.576-1.816-14.091-1.012-16.529,1.459c2.992-4.018,10.566-3.179,16.043-2.918c-4.735-1.955-11.03-2.203-17.015,1.945
	c1.961-4.088,10.162-4.443,15.557-3.402c-6.782-3.07-11.79-0.725-17.501,1.944c3.956-4.028,10.305-4.44,15.557-3.403
	c0.7-0.109,0.17-1.451,0.973-1.457c-0.05-1.248-1.812-0.781-2.431-1.459c0.703-0.769,1.086,0.049,2.917,0
	c-0.073-0.898-1.646-0.299-1.944-0.973c0.74-3.564,5.41,0.307,7.292-0.486c-1.555-2.199-6.041-0.59-8.75-2.916
	c0.272-1.099,0.758,0.588,1.458-0.486c-0.703-1.438-1.086-0.419-2.917-0.973c0.439-1.637,1.087-0.058,1.945-0.972
	c0.082-1.054-1.725-0.22-2.431-0.485c0.423-1.414,0.728-0.547,1.945-0.486c-5.303-3.909-15.86-3.18-19.932,2.431
	c0.949-6.026,14.535-6.04,19.446-4.375c-0.073-0.899-1.646-0.298-1.944-0.972c10.56,1.529,21.969,5.636,32.086,9.723
	c-1.194,1.692,0.979,2.469,0.972,5.348c-1.006-0.494-3.221-1.194-5.833-1.457c3.033,1.686,6.831,3.309,10.695,2.916
	c-1.349-1.346-2.274-0.094-3.403-1.457c2.539-0.873,7.614,1.826,9.237,1.945c-1.507,2.633-5.012-1.89-6.32,0
	c3.036,1.479,8.955,3.459,12.64,3.889c-1.157-1.437-3.308-1.879-5.834-1.944v-2.431c2.448,2.926,7.363,1.408,8.265,4.375
	c3.081-1.235,5.022,1.94,7.778,1.457c-1.411-1.83-4.793-1.688-6.806-2.916c2.284-1.295,4.637,1.509,7.292,1.457
	c-0.698,2.215,2.269,1.797,2.917,3.89c-4.577-0.972-9.509-4.048-13.612-3.89c9.271,4.482,20.26,6.524,30.141,11.183
	c0.927-0.207,0.88-1.39,2.431-0.972c0.896-1.322,0.059,1.295-1.458,0.486c18.794,8.135,42.391,16.709,65.631,26.737
	c2.238,0.61,1.37-3.349,2.916-1.944c0.021-2.215-1.713-0.863-3.402-2.431c1.049-1.168,2.396,1.476,3.402-0.485
	c-3.219,0.102-5.477-3.361-7.777-3.404c-0.729-0.012-1.135,1.093-1.945,0.974c-1.028-0.151,0.479-0.813,0.974-0.485
	c-2.312-1.533-7.39-0.727-10.694-4.375c3.842,0.658,7.334,2.074,11.668,1.457c-0.931,1.954-2.064-0.947-3.404,0.486
	c2.662,1.489,7.353,3.846,11.182,4.375c-2.043-1.846-5.197-2.581-7.777-3.889c2.241-0.607,4.463,1.576,7.777,2.916
	c-0.299-0.432-0.588-0.869,0-0.971c-1.119-0.099-2.841-2.27-5.348-2.432c2.302-1.939,4.926,3.305,5.348,0.486
	c-0.648-0.812-2.162-0.756-2.916-1.459c0.441-1.75,2.782,2.418,2.916-0.485c-0.559-0.306-2.663-0.954-3.889-1.944
	c0.646-1.082,2.172,1.03,3.402,0.973c0.547-0.737-1.469-3.049-3.89-2.432c0.444-1.632,0.904-0.24,2.431-0.486
	c12.987,9.873,26.721,15.271,39.379,25.281c6.313,2.657,12.131,6.01,17.502,10.694c8.525,3.332,18.002,10.871,27.225,16.529
	c3.909,2.397,9.998,2.491,6.807,7.776c1.242-0.053,0.965-1.627,0.973-2.916c1.107-0.668,1.826,1.254,1.943,0
	c0.412,1.553,4.52,2.688,5.834,4.861c-0.99,0.977-0.953-0.215-1.943-0.486c0.38,0.338,1.082,2.713,0,2.918
	c1.349,0.597,2.273,1.614,3.402,2.431c-0.312-1.938,2.299,1.151,3.402,1.944c1.1-0.272-0.59-0.758,0.486-1.459
	c1.731,2.545,3.266,2.191,4.861,3.402c-0.3,0.434-0.589,0.87,0,0.973c-0.353,1.775-5.992-0.229-4.861-1.457
	c-9.525-1.539,1.461,4.273,4.861,5.348c-3.886-0.163-7.853-2.444-11.669-4.862c-0.415-1.551,0.767-1.503,0.974-2.43
	c-1.654-1.035-1.656,1.082-1.944,1.944c-4.101-1.248-7.079-3.617-11.183-4.862c1.054-1.41,0.651-1.261,0.974-3.402
	c-1.776,0.767,0.032,1.738-0.974,2.917c-2.781-0.349-2.078-1.744-4.86-1.458c0.092-0.396,0.487-0.485,0.485-0.973
	c-1.231,1.916-2.258,5.896-0.485,7.292c0.299-1.5,0.571-3.102,0-5.348c2.276-1.213,0.442,3.664,0.972,6.318
	c1.094-0.203,0.014-2.579,0.973-2.916c0.586,1.533-0.436,3.174,1.945,3.889c0.668-2.017-1.818-3.104-0.486-6.319
	c1.916,0.844-0.666,2.45,0.486,4.376c1.053-0.568-0.066-3.307,1.459-3.403c0.215,1.847-0.256,5.261-0.486,6.32
	c2.83,0.237,0.785-4.4,1.943-5.834c0.934,3.336,0.096,4.922,0,6.807c0.434-0.299,0.87-0.588,0.973,0
	c0.4-0.92,0.386-2.269,0.486-5.348c1.527,1.371,0.479,4.292,0.486,6.319c1.857-2.104,0.717-3.631,1.943,0
	c1.354,0.219-0.381-2.649,0.973-2.432c0.795-1.42-0.434,1.664,0,2.917c1.736,1.905,3.563-0.884,3.891,2.431
	c3.12-1.008,9.074,3.576,12.639,3.89c-1.965,1.627-6.774-3.111-9.235-1.458c-0.57-0.078-0.41-0.887-0.485-1.458
	c-3.648,0.655-2.783,0.479-6.32-2.433c-1.693,0.145,0.041,1.316-0.973,1.459c-0.805,0.938,0.318-1.273-0.486-1.943
	c-1.939,4.724-1.42,11.839-3.89,17.986c0.913,0.929-0.288,0.881,0,2.433c-0.758-1.312-0.366-2.579,0.486-3.89
	c-0.233-5.506,2.319-10.805,1.944-17.017c-2.608,5.343-1.498,10.896-3.89,18.474c-0.649-4.992,2.688-14.381,1.944-19.444
	c-2.034,5.592-1.348,10.638-2.916,15.557c-0.78-7.005,1.883-10.077,0.972-16.528c-0.487,0.324-0.315,2.908-1.458,3.889
	c-0.561,2.018,0.719-3.143,0-4.375c-0.053-0.09-2.265,2.09-0.973-0.486c-2.186,0.514-1.409,1.44-1.945-0.486
	c-2.301,8.998-2.324,17.828-4.375,26.738c-1.341-2.27,0.982-3.807,0-6.806c-2.102,2.284-0.347,4.222-1.943,6.806
	c-0.494-2.234,0.695-6.799,1.457-11.182c1.654,1.256-0.83,2.714,0.486,4.376c2.473-8.791,1.838-10.935,2.917-19.933
	c-0.556-0.443-2.558,1.235-1.458-1.459c-2.324,1.926-1.715,7.052-1.459,8.752c1.592-1.164-0.142-5.652,1.945-6.32
	c-0.424,2.461-1.027,10.688-1.945,14.098c-1.098-2.018,0.735-4.863,0-7.777c-2.385,5.783-1.081,10.076-2.916,15.558
	c0.236-7.656,1.856-17.72,2.916-25.28c-3.225,1.665-1.416,6.309-1.943,9.237c-0.553,3.063-1.928,5.944-1.459,11.183
	c-2.398-5.595,1.744-10.71,0-16.529c0.078-0.57,0.887-0.41,1.459-0.486c-0.412-1.752-0.412-2.623,0-4.375h-0.973
	c-1.419,6.093-2.26,21.834-4.376,29.654c-0.202-6.037,1.7-13.934,1.944-19.445c1.02-4.5,0.582-12.939,2.917-17.502
	c-0.837,2.986-1.267,4.484,0,6.807c1.81-1.506-0.169-3.148,1.458-6.32C248.71,147.24,245.914,151.791,247.101,153.745z
	 M164.454,89.087c-3.188-1.543-6.51-1.231-9.236-3.889C159.462,86.393,161.591,87.006,164.454,89.087z M152.301,85.684
	c2.521,0.722,4.353,2.131,7.292,2.432c-1.748,1.234-4.889-0.686-7.777-1.458c-1.276,1.842-3.307,1.384-3.403-1.458
	C150.213,84.916,151.229,86.698,152.301,85.684c-0.401-1.625-3.606-0.174-4.86-1.944c0.314-0.825,1.117-0.304,0.972,0.485
	c3.096-0.578,3.834,0.119,6.319,0.973C154.14,86.682,152.88,84.489,152.301,85.684z M150.843,83.253
	c0.992-1.517,4.27-0.099,3.889,0.972C154.581,84.659,151.985,83.438,150.843,83.253z M161.538,92.491
	c1.803,0.304,2.846,1.367,4.375,1.943c-0.527-0.063-1.986,1.664-3.402,0.486c0.116-1.253,0.836,0.667,1.943,0
	c-0.904-2.5-4.664-1.74-2.916,0c-0.625,0.245-1.006,0.514-2.432,0.973c0.459-1.476,2.18-1.336,0.973-2.432
	C160.226,92.452,161.396,94.188,161.538,92.491z M74.029,58.947c2.218-1.483,4.352,1.759,7.778,1.944
	C79.902,61.708,77.461,60.284,74.029,58.947z M73.058,59.918c-2.079,0.447-6.103-1.344-8.265-2.431
	C67.283,56.579,70.772,59.587,73.058,59.918z M64.792,55.542c0.971-0.854,4.617,1.129,6.806,1.945
	c-1.66,1.776-3.896-1.358-6.806-0.974C65.095,56.083,65.381,55.645,64.792,55.542z M16.178,42.904
	c-0.975,0.866-10.14,1.233-11.667,3.89C6.748,42.904,11.146,43.264,16.178,42.904z M20.554,43.391
	c1.425,0.918-2.048,2.155,0.972,1.944c-5.704,0.908-13.378-0.776-17.015,3.89c3.159-5.439,11.037-4.953,15.557-4.375
	c-0.687-1.381-1.571-0.629-3.889-0.973C16.489,42.122,18.508,44.008,20.554,43.391L20.554,43.391z M24.442,50.196
	c-5.883,0.476-13.396,0.308-17.988,3.402C12.772,49.413,16.536,48.883,24.442,50.196z M20.554,48.25
	c-3.566,0.91-11.588,1.139-14.585,4.375C9.669,47.657,15.891,47.633,20.554,48.25z M20.066,46.794
	c-3.961,1.343-11.627-0.489-15.071,4.86C5.902,47.124,14.78,45.147,20.066,46.794L20.066,46.794z M254.394,184.859
	c1.111-1.178,1.723-0.586,3.402-0.485c-0.299,0.433-0.588,0.869,0,0.972C256.872,186.43,256.474,184.831,254.394,184.859z
	 M224.251,183.889c-0.143,1.013-1.314-0.723-1.458,0.972c-0.991-0.849-0.954,0.362-1.944-0.485c0.144-1.693,1.314,0.04,1.459-0.973
	c0.414-0.09,0.457,0.189,0.485,0.486C223.435,183.305,223.562,183.698,224.251,183.889z M20.066,41.446
	c-6.758-1.068-9.41-1.848-16.043,1.943C7.735,39.449,14.901,38.956,20.066,41.446z M129.452,42.417
	c0.082,1.054-1.725,0.22-2.431,0.486c-0.089-0.414,0.189-0.458,0.486-0.486c-2.837-1.144,0.606-0.971,0.973-1.458
	C130.175,41.102,128.439,42.274,129.452,42.417z M122.645,43.876c0.57,0.079,0.41,0.886,0.486,1.458
	c0.638-0.583,0.765-0.189,1.458,0c0.082,1.055-1.725,0.221-2.431,0.486C121.955,44.805,122.495,44.534,122.645,43.876z
	 M128.964,47.764c-0.082-1.054,1.725-0.22,2.431-0.485c-0.544,0.7-0.524,1.187,0.486,1.458c0.917-0.481-0.597,0.603-1.944,0.486
	C130.2,48.498,131.265,47.969,128.964,47.764z M129.452,50.196c0.93-0.283,2.064-1.297,3.403-0.486
	C132.845,51.124,130.107,50.862,129.452,50.196z M134.798,48.737c0.171,0.681,0.856,0.042,0.972-0.486
	c-0.405,1.92,4.119,0.587,7.292,0.486c6.173-0.196,5.915,0.906-0.486,0.973c-0.082,1.055,1.725,0.221,2.431,0.486
	c-2.309,2.089-7.174-2.364-10.696,0c-0.051,0.035,0.632,1.175,0.973,0.972c-0.172,0.763-0.856-0.425-0.973,0.486
	c-1.013-0.144,0.722-1.315-0.972-1.458C133.346,49.378,135.99,47.713,134.798,48.737z M20.554,51.654
	c-0.414-0.089-0.458,0.188-0.486,0.485c-1.804-0.564-1.805-0.201-4.375,0C16.762,50.458,22.57,51.786,20.554,51.654z M8.399,54.571
	c-0.089,0.414,0.189,0.458,0.486,0.486c-0.172,0.762-0.856-0.427-0.972,0.485c0.322-2.815,10.543-5.47,4.861-2.917
	C11.646,53.137,10.615,54.337,8.399,54.571z M64.306,57.001c-2.965,0.042-8.729-1.313-10.695-3.889
	C56.799,54.79,61.15,55.299,64.306,57.001z M53.124,52.141c2.671-1.381,7.449,2.211,11.181,2.916
	C59.458,55.33,56.983,53.18,53.124,52.141z M17.635,53.113c-2.838,1.167-7.944,2.622-8.751,3.889
	C10.417,54.596,12.872,53.214,17.635,53.113z M103.684,56.03c-0.31-1.766-2.273,1.128-2.431-0.486
	c-1.915,1.223-6.782,2.357-6.806,1.458c2.829-0.978,6.424-1.167,9.237-2.917c1.835,0.393,0.036,2.5-0.486,3.403
	c-1.854-0.345-2.341-0.323-3.889,0.485c0.205,0.43,3.549,0.513,4.375-0.972c0.762,0.172-0.425,0.856,0.486,0.972
	c-2.025-0.443-1.863,1.646-2.431,1.945c-0.873,0.459-1.411-1.775-2.431-0.486c-0.242,0.308-0.315,6.371-0.486,2.432
	c-0.088-2.024,0.258-2.139-1.945-2.432c0.073-0.898,1.646-0.297,1.945-0.972c-0.403-0.618-3.606-0.169-4.862,0.972
	c0.767,1.242,1.74-0.933,2.917,0c-2.313,2.217-6.848,0.17-5.348,3.403c-1.815,1.548,0.589-2.397-2.431-1.458
	c1.7,3.024-2.575-0.761-3.403,0c0.401-2.566,4.352-2.585,7.292-4.375C96.503,58.975,99.711,56.613,103.684,56.03z M84.724,58.459
	c0.739-1.771,3.151-0.59,3.889-0.486C87.685,59.151,86.081,57.274,84.724,58.459z M139.172,62.835
	c0.517-1.104,3.056-0.187,4.375-0.485C142.707,63.823,141.099,62.729,139.172,62.835z M134.797,65.266
	c0.092-0.552,0.488-0.27,0.486,0c1.752-0.412,2.623-0.412,4.375,0C138.146,65.981,136.09,65.612,134.797,65.266z M138.201,67.697
	v2.431c1.302,1.055,2.208,0.658,3.889,0.486c-0.299,0.433-0.587,0.869,0,0.972c-1.586,1.375-2.995-1.903-3.889,0.486
	c-0.639-0.173-0.765-0.856-1.458-0.972c1.315-1.069,0.133-1.615,0.972-2.918c-0.073-0.898-1.646-0.299-1.945-0.972
	c0.978-1.782,1.67-0.114,4.375-0.485c-0.299,0.433-0.587,0.869,0,0.972C139.708,68.237,139.062,68.033,138.201,67.697z
	 M98.335,68.184c-0.414,0.088-0.458-0.189-0.486-0.486v-0.973C103.888,70.005,101.17,68.596,98.335,68.184z M122.158,70.127v-1.458
	c0.433,0.216,0.87,0.427,0.973,0.974c1.098-0.272-0.589-0.758,0.486-1.459c1.793,0.504-0.061,1.929,0.973,2.432
	C124.146,71.936,123.685,69.321,122.158,70.127z M137.714,73.044c1.996-0.106,4.007-1.354,4.861,0.974
	C140.437,73.395,140.067,74.298,137.714,73.044z M49.234,81.795c12.595,4.125,33.333,7.77,48.129,13.126
	c8.651,3.132,18.643,5.809,27.225,8.75c-2.081,1.668-3.898-0.859-5.834-1.459c-1.678-0.52-3.992-0.283-6.32-0.973
	c-0.027-0.008,0.626-0.927,0.486-0.972c-6.171-1.942-14.634-2.323-19.446-5.834c-0.552,0.094-0.27,0.488,0,0.486
	c-13.71-3.494-27.766-8.462-39.378-9.723c-0.57-0.079-0.41-0.887-0.486-1.458c-0.433,0.299-0.87,0.587-0.972,0
	c-1.694,0.25-0.713,3.177-0.972,4.862c-2.106-1.551,0.527-3.764-0.486-5.349c-0.492-0.769-1.967,1.376-2.917,0.486
	c-0.654-0.612-0.179-1.741,0.486-3.403c-1.91-0.73-1.496,3.148-1.458,3.889c-2.747-1.644-3.357-1.926-6.806-3.402
	c0.604-1.537,1.414-0.092,2.431-1.458c-0.376-2.593,0.714-4.254,0.972-4.862c2.956,1.719-0.869,4.48-0.972,6.32
	c0.202,1.095,2.666-0.073,2.431,1.458c1.653-1.242,1.634-1.827,1.945-4.861h1.944C48.307,78.542,50.021,81.12,49.234,81.795z
	 M124.103,105.13c1.645-1.776,6.451,0.341,9.723,1.458c5.982,2.047,8.49,4.105,14.098,4.862c-6.057,1.247-11.89-4.618-17.987-4.376
	c0.016-1.473-2.446-0.471-2.431-1.944C126.693,105.99,125.876,104.697,124.103,105.13z M163.481,117.283
	c-5.265,1.629-9.486-3.631-16.043-4.375C151.876,111.717,156.976,116.6,163.481,117.283z M171.745,120.201
	c0.148,1.795,3.146,0.398,3.891,2.916c0.568-0.078,0.409-0.887,0.484-1.458c1.121-0.147,0.541,1.405,1.459,1.458
	c1.693-0.143-0.041-1.314,0.973-1.458c0.391-1.047,0.449,1.794,0,1.944c3.258,1.662,7.404,2.699,11.668,5.348
	c2.204-0.484-0.844-2.529,1.459-2.916c-0.354,1.592-0.693,2.296,0.485,3.889c1.202-0.418-0.144-3.385,0.972-3.889
	c0.932,1.416-0.707,3.037,0.973,4.861c2.259-0.558-0.104-7.311,1.945-5.349c-1.209,0.736,0.297,4.188-0.973,4.861
	c3.412,3.834,1.633-2.058,2.432-3.403c2.187,0.982-0.763,3.467,1.457,5.834c1.315-0.953-0.297-4.834,0.973-5.834
	c0.75,1.903-0.264,4.012,0.486,6.32c2.362-0.827,1.135-0.027,2.432,0.973c2.084-2.762,0.923-5.414,0.972-7.777
	c2.115,0.681,0.317,6.098,0.485,7.777c3.957,0.67,1.314,2.803,1.945,5.348c-1.18,0.647-0.84-1.951-0.486-2.916
	c-0.119-0.528-0.967-0.33-0.973-0.973c-1.494,3.985-0.272,8-1.943,16.043c0.543,1.01,0.523,1.029-0.486,0.485
	c0.578-7.039,1.518-10.463,0.486-17.502c-1.942,1.69,0.324,4.146-1.459,7.293c-1.34-0.429,1.586-5.706-0.973-7.779
	c-0.229,1.332-1.123,6.257-0.973,10.695c-1.422-4.097,0.182-6.985,0-11.667c-2.979,1.301-1.53-0.021-3.889-0.973
	c-0.887,2.525,0.645,4.229-0.973,8.265c-0.302,1.319,0.616,3.858-0.486,4.375v-4.375c-0.252-2.136,1.707-5.812-0.486-9.235
	c-0.605,0.924,0.025,1.323-0.486,3.401c-1.578-0.365,0.863-4.752-1.457-4.375c-0.543,0.444-0.154,0.903-0.486,2.431
	c-1.073-0.062-0.207-2.063-0.485-2.917c-0.619,0.425-3.433-2.36-3.89-0.485c-0.291-2.729-4.231-1.702-5.35-3.402
	c-2.224,0.861,0.092,4.295-1.943,5.348c-0.52-2.549,2.021-5.184,0-6.32c-0.7,0.271-1.187,0.759-1.459,1.459
	c-0.867-0.604,0.377-1.414-0.485-2.432c-1.556,0.329-0.917,1.615-1.459,1.945c0.761-3.475-8.25-5.215-13.125-7.293
	C165.147,116.783,168.562,121.305,171.745,120.201z M206.749,137.217c2.661-2.832,0.426-6.186,1.458-9.236
	c2.151,2.556-0.679,6.356,1.458,9.723c1.693-0.143-0.041-1.314,0.973-1.458c0.428-1.063,0.428,0.921,0,1.458
	c4.689-0.646,0.887-5.281,2.432-7.292c1.988,1.007-0.195,4.928,0.486,8.75c2.87-0.26-0.029-5.313,2.916-7.291
	c-0.783,2.201-0.027,8.178,0,7.776c-0.16,2.295-1.623,5.912-1.459,9.238c-1.045-3.338,0.006-6.174,0-8.752
	c-2.839,1.063-2.492,7.664-2.916,11.668c-0.703,6.646-1.3,13.547-0.973,17.502c2.505-4.945,2.212-11.428,2.432-17.502
	c0.092-0.552,0.486-0.271,0.484,0c0.414,0.09,0.459-0.188,0.486-0.486c0.016,6.892-0.885,15.894-2.916,24.795
	c-0.096,2.756-0.103-4.418,0.486-5.348c-0.111-0.701-1.451-0.17-1.459-0.974c-1.313,2.161-0.24,3.495-0.974,4.862
	c-0.983-1.313,0.021-1.889,0-3.404c-3.041-0.018-1.244,3.59-2.431,4.376c-0.881,0.495,0.636-2.282-0.973-3.403
	c-1.871,0.271,0.374,1.881-0.973,2.918c-0.801-0.065-0.801-3.338,0-3.404c-0.503-1.793-1.928,0.063-2.432-0.971
	c3.896-1.19,3.559-14.09,3.891-16.529C207.458,149.006,207.949,143.662,206.749,137.217z M220.847,142.078
	c2.072-1.799-0.248-4.52,1.459-7.293c0.912,1.115-0.828,5.092,0.486,8.266c1.438-0.703,0.419-1.086,0.973-2.918
	c0.813-1.4,0.387,2.484,0.485,3.403h0.972c0.799-1.259,0.019-4.159,0.973-6.319c0.449,2.676,0.378,4.604,0,7.291
	c3.445-0.705,0.009-5.535,2.918-6.318c-0.354,2.402-0.256,5.254-0.973,7.291c3.146-0.877,1.146-4.873,2.43-6.319
	c1.382,1.563-0.215,6.353,0.486,7.293c2.48-2.126,0.428-4.356,1.459-5.834c2.525,0.788-0.998,5.442,0.973,7.293
	c2.074-1.903-0.59-4.011,1.459-6.319c1.1,2.313-0.039,4.645,0,6.805c2.879,0.287,0.484-4.699,1.943-5.832
	c1.854,2.125-1.488,4.908,0.973,6.806c1.229,0.013-0.883-5.994,1.945-5.834c0.113,4.237-1.942,4.358,0,6.806
	c1.271-0.674-0.236-4.125,0.973-4.861c0.937,2.151-0.178,4.384,0.484,6.808c-3.787,0.924-7.891-3.344-11.182,1.944
	c-0.689,0.041-1.376,0.08-1.457-0.486c-1.451,2.386-1.508,5.857-1.459,8.266c0.078,3.868-1.295,6.989-1.945,10.209
	c0.004-0.021,0.189,6.336,0,2.918c0.106-7.211,0.579-16.8,2.432-20.906c-1.268-0.676-2.104-1.783-4.375-1.457
	c-5.266,8.869-2.157,19.568-4.861,24.307c0.557-8.656,0.699-12.943,2.432-20.904c-1.078-1.602-1.229,0.096-1.459-1.943
	c-1.804,7.32-0.959,12.015-2.431,17.986c-0.769-6.871,1.929-16.627,2.431-28.683c2.104,4.464-1.455,6.587,0.485,11.183
	c1.551-1.691,0.718-5.766,1.459-8.266c1.883,1.43-0.744,3.695,0.485,5.834c0.615-0.843,1.644-1.273,1.459-2.917
	c0.898,0.073,0.298,1.646,0.973,1.944c1.688-1.229,0.525-3.286,0.973-6.32c-2.412,0.457-0.224,2.627-1.459,3.891
	c-1.111-1.235,0.977-3.306-0.972-4.861c-1.056-0.084-0.221,1.724-0.485,2.431c-0.812-1.342-1.017-3.937-3.891-4.375
	c-1.553,4.894-0.018,6.519-1.458,10.209c-1.528-2.396,0.317-7.506,0.485-10.209c0.022-0.366-0.973-0.974-0.973-0.974
	c0.454-3.252,1.127-6.029,2.432-8.264c-1.182,2.226-0.237,6.037-0.973,8.264c3.947-0.819,0.164-4.148,2.43-7.293
	C221.382,134.561,219.417,138.879,220.847,142.078z M25.414,83.74c-0.034-4.871,9.923-4.505,13.612-3.403
	c-1.322,2.317-6.56-1.082-7.778,1.458C30.656,80.633,26.651,81.494,25.414,83.74z M78.889,82.768
	c0.061-1.371-0.479,2.076,1.945,1.457c-0.172,0.639-0.855,0.766-0.972,1.459C78.782,85.339,78.247,83.405,78.889,82.768z
	 M160.562,85.199c-1.112,1.55-4.14-1.646-4.86-0.486C154.681,83.044,159.278,84.746,160.562,85.199z M142.575,84.712
	c2.006-0.54,5.567-0.614,5.348,1.944C145.481,86.671,145.021,84.698,142.575,84.712z M137.712,85.684
	c1.829-1.228,2.053,0.424,4.375,0.486C140.96,87.585,139.473,85.256,137.712,85.684z M143.061,86.17
	c0.982-0.429,1.616,0.596,3.403,0.973c-2.04,1.09,0.766,0.929,1.459,1.944c-0.468,0.749-2.831-0.702-3.89-0.972
	c0.272-1.098,0.759,0.589,1.458-0.486C144.89,86.092,144.082,87.537,143.061,86.17z M97.849,88.602
	c1.143-1.322,1.037,2.654,0.486,2.431c0.151,1.167-1.028-1.872-1.944-0.486c-0.87,0.144-0.03-1.886,0.972-1.458
	c-0.079,0.565,0.107,0.865,0.486,0.973c0.762-0.172-0.425-0.855,0.486-0.973C98.427,88.674,98.145,88.63,97.849,88.602z
	 M101.737,92.004c-0.702-0.58-0.738-2.395-1.458-0.486c-0.552-0.092-0.27-0.486,0-0.485c0.089-0.414-0.19-0.458-0.486-0.486
	c0.092-0.552,0.488-0.27,0.486,0c0.57-0.079,0.41-0.886,0.486-1.458h1.458c-0.377,0.434-0.522,1.098-0.486,1.945
	c0.414,0.089,0.458-0.189,0.486-0.486C103.633,90.819,101.479,91.305,101.737,92.004z M52.149,107.074
	c-0.235-3.424,0.863-8.142,0.973-12.153c0.123-4.5,0.396-6.438,0.486-0.485C52.554,96.405,54.348,102.957,52.149,107.074z
	 M56.04,91.033c-0.077,0.521,0.083,7.622-0.486,10.208C55.066,96.395,54.838,95.086,56.04,91.033z M111.46,92.977
	c0.555,2.172,0.287,0.619-0.972,1.457c0.013,0.474,0.595,0.377,0.972,0.486c-0.356,0.866-0.884,0.07-1.458,0
	c-0.259-0.699,1.895-1.186,0.486-1.458c0.316-0.495,1.118-0.502,0.972-1.458c0.639,0.172,0.765,0.856,1.458,0.973
	C112.709,93.702,112.296,92.788,111.46,92.977z M45.831,95.893c-0.092,0.02-0.469-1.521-0.486-1.457
	C46.646,89.624,45.831,95.772,45.831,95.893c0.001,1.552,0.641,3.809,0,2.918c-0.336-0.857-0.537-1.506,0-1.944
	c0.089-0.414-0.189-0.458-0.486-0.486C45.254,95.967,45.534,95.922,45.831,95.893z M122.156,96.379
	c1.856-1.32-0.024,2.655,0.486,2.432c-0.439,1.316-1.087-1.111-1.944-0.973c-0.09-0.414,0.189-0.458,0.486-0.486
	c0.379-0.902,0.161,1.57,1.458-0.485C122.734,96.453,122.453,96.41,122.156,96.379z M124.101,99.783
	c-0.296-0.767,0.273-1.739,0.972-2.917c0.66,0.15,0.404,1.217,0.486,1.943c1.497,0.362,0.935-1.334,2.431-0.972
	C127.99,100.77,124.728,97.737,124.101,99.783z M57.012,99.296c1.701,1.907,0.466,3.828,0.486,5.833
	C56.385,104.139,57.323,101.096,57.012,99.296z M48.263,99.783c0.305,2.631,0.739,6.12-0.486,8.75
	C47.246,107.852,47.416,103.221,48.263,99.783z M61.874,100.755c0.543,0.329,0.117,3.554-0.486,5.349
	C60.853,105.125,61.052,103.244,61.874,100.755z M66.249,104.158c1.07,1.76-0.264,4.775-0.486,6.318
	C65.311,110.176,65.617,106.102,66.249,104.158z M55.066,104.645c0.379,7.966-1.265,19.194-0.972,25.766
	C52.5,126.924,54.425,109.612,55.066,104.645z M63.817,104.645c0.543,0.328,0.117,3.554-0.486,5.348
	C62.666,108.412,63.195,106.633,63.817,104.645z M70.624,109.506c1.049,4.154-0.111,4.98-0.486,8.264
	C69.224,115.98,70.595,113.239,70.624,109.506z M65.276,110.964c0.393,7.12-0.338,10.579-1.458,16.529
	c-0.199,1.056,1.139,2.706-0.486,0.485C64.455,120.844,64.819,114.527,65.276,110.964z M50.206,112.422
	c0.552,0.094,0.27,0.488,0,0.486c0.439,2.652-0.733,10.506-0.486,11.182C49.194,122.646,49.023,116.408,50.206,112.422z
	 M62.846,112.422c0.467,2.188,0.328,3.418,0,6.807C61.353,118.616,62.777,113.215,62.846,112.422z M73.055,113.881
	c-1.043,16.691-4.075,33.076-4.862,48.615C67.678,148.752,70.652,131.859,73.055,113.881z M68.192,116.311
	c-0.389,1.18-0.449,2.15,0,2.918c0.09,0.414-0.189,0.459-0.486,0.485h-0.972C67.761,118.548,65.732,116.987,68.192,116.311z
	 M75.485,119.229v-0.974c-0.138,7.688-2.61,16.127-3.403,26.738C71.503,138.577,73.526,127.906,75.485,119.229z M69.651,120.201
	c0.472,3.209-0.97,11.35-1.458,15.07C67.552,131.426,68.558,126.92,69.651,120.201z M189.731,121.174
	c-0.391,1.178-0.449,2.149,0,2.916c0.09,0.414-0.189,0.459-0.486,0.486h-0.973C189.299,123.409,187.271,121.85,189.731,121.174z
	 M193.136,121.174c0.83,1.16,0.754,4.789-0.486,4.375C193.368,123.574,192.673,123.2,193.136,121.174z M201.886,125.549
	c2.162-0.42,0.229,6.104,0.486,6.32C200.544,133.146,202.634,126.914,201.886,125.549z M62.359,126.035
	c-0.471,1.18-0.779,6.424-0.486,8.264C60.639,133.04,60.556,129.501,62.359,126.035z M66.249,128.465
	c0.437,0.867,0.643,3.199,0,4.862C65.105,131.854,66.126,129.17,66.249,128.465z M210.636,129.438
	c1.484-1.019,0.852,3.61,0.486,3.89C209.367,132.744,211.794,130.482,210.636,129.438z M55.554,130.41
	c0.557,2.452,0.541,5.059,0,7.777C54.533,134.484,55.484,132.238,55.554,130.41z M63.332,131.383c0.552,0.092,0.27,0.487,0,0.486
	c0.985,1.457-0.214,3.469,0.486,4.375c0.089,0.414-0.19,0.458-0.486,0.486C62.923,136.594,62.923,133.137,63.332,131.383z
	 M53.123,133.327c0.995-0.646,0.262,4.58,0.486,6.319C52.617,140.293,53.347,135.066,53.123,133.327z M65.763,133.813
	c0.094-0.006,0.808,5.422-0.972,6.32C65.374,138.396,64.956,135.549,65.763,133.813z M58.957,134.785
	c0.552,0.093,0.27,0.488,0,0.486c0.39,1.178,0.449,2.149,0,2.916c0.544,1.012,0.524,1.031-0.486,0.486
	C59.331,138.023,57.678,135.859,58.957,134.785z M74.999,135.758c0.755-0.313,0.461,3.391,0,4.375
	C73.512,139.078,75.465,137.396,74.999,135.758z M67.707,136.73c0.219,2.58,0.866,4.521-0.486,8.264
	C66.899,141.572,66.442,140.531,67.707,136.73z M76.943,137.217c1.719,0.646-0.195,2.92,0,3.889c-0.552-0.092-0.27-0.487,0-0.485
	C76.272,139.209,76.886,139.359,76.943,137.217z M62.846,139.646c0.552,0.093,0.27,0.488,0,0.485c1.157,1.828-0.951,10.101,0,1.945
	C62.961,141.076,62.067,141.032,62.846,139.646z M196.538,147.912c-0.477-3.303-0.08-7.098,0-7.293
	C197.563,138.096,197.11,146.249,196.538,147.912z M205.774,140.619c-0.115,3.396,0.332,8.461-0.974,11.182
	c1.479,1.629-1.325,0.424,0,0C204.812,145.952,205.046,144.241,205.774,140.619z M74.514,142.078
	c0.906-1.813-0.837,5.77-0.486,3.402C73.93,143.805,73.336,143.191,74.514,142.078z M76.458,141.592
	c0.223,1.578,0.87,3.361-0.486,5.348C75.369,145.719,75.953,143.035,76.458,141.592z M64.791,145.48c0.552,0.093,0.27,0.488,0,0.486
	c0.427,1.129,0.427,1.301,0,2.43C64.731,153.195,63.58,146.205,64.791,145.48z M71.597,145.48c0.649,1.645,0.164,3.42-0.486,7.293
	C69.929,151.967,71.318,148.495,71.597,145.48z M198.97,145.48c0.123,1.52,0.027,5.816-0.486,7.293
	C198.167,151.081,197.826,148.631,198.97,145.48z M73.541,146.453c0.372,0.979,0.943,3.842-0.486,5.348
	C72.835,151.548,72.87,147.426,73.541,146.453z M191.677,146.453c1.523,0.032,0.617,1.111,0.486,1.943
	C192.308,154.708,191.302,150.309,191.677,146.453z M52.637,147.912c1.337,2.423-0.151,7.896,0.486,9.723
	C51.558,154.936,52.587,152.225,52.637,147.912z M54.582,148.885c1.434,0.688-0.293,4.827,0.486,4.86
	C53.813,154.436,54.502,150.041,54.582,148.885z M193.621,148.885c1.354,3.211-0.131,5.84-0.485,6.805
	c-0.604,1.644,0.483-0.366,0.485-1.457C193.626,152.574,192.916,150.994,193.621,148.885z M74.999,152.287
	c0.566-0.658,0.566,2.45,0,3.402C73.691,155.116,75.003,153.157,74.999,152.287z M233.972,152.287
	c-0.162,3.657,0.469,9.586-0.973,15.557l-0.973-0.486c-0.055,0.58,0.967,1.423,0.973,1.945c0.023,2.235-1.792,4.566-0.486,6.319
	c-0.215,0.706-0.426-0.05-0.973,0c0.129,3.47-0.249,4.524-0.484,6.806C230.528,175.194,232.562,161.407,233.972,152.287z
	 M200.427,152.773c0.689,1.205,0.396,3.699,0,4.375C200.019,157.328,200.019,154.207,200.427,152.773z M236.401,152.773
	c0.51,1.375-0.801,3.334,0,3.402C235.104,156.832,233.995,152.924,236.401,152.773z M204.802,153.26
	c-0.15,0.037,0.869,5.385-0.972,5.348C204.511,157.809,203.854,154.961,204.802,153.26z M216.47,153.26
	c0.934,3.191-0.693,10.774-1.457,17.016C214.039,166.848,215.542,159.594,216.47,153.26z M232.026,153.26
	c-0.383,6.867-1.346,20.27-3.889,28.684C229.927,173.984,229.319,162.044,232.026,153.26z M222.79,154.23
	c2.066,1.709-0.609,9.181-0.973,16.043C221.259,165.434,222.921,158.145,222.79,154.23z M225.222,154.23
	c0.096,4.225,0.639,9.545-1.945,16.043C223.995,165.914,224.239,158.096,225.222,154.23z M202.372,158.121
	c-0.416-1.436-0.416-1.969,0-3.402c1.004,0.416,0.512,3.383,0,3.889C201.822,158.516,202.104,158.121,202.372,158.121z
	 M66.249,155.689c0.676,2.986-0.859,13.959-0.972,18.961C64.455,167.299,65.291,164.344,66.249,155.689z M229.11,156.176
	c0.348,8.168-0.707,18.797-3.403,25.768C227.7,175.477,227.56,161.266,229.11,156.176z M61.874,157.148
	c0.135,1.893,0.444,8.033-0.486,12.154C61.153,166.867,60.925,162.186,61.874,157.148z M72.568,157.148
	c-0.105,0.978,0.191,3.479-0.486,5.348C71.704,161.043,71.451,159.691,72.568,157.148z M76.458,158.121
	c0.288,1.254,0.786,2.713-0.486,4.375c-1.129-0.407,0.803-1.91-0.486-2.917C75.661,158.941,76.34,158.816,76.458,158.121z
	 M234.944,159.579c1.254-1.144,0.965,1.151,0.972,1.458c0.089,4.125-1.056,7.746-1.458,11.182
	C232.824,168.077,235.104,163.629,234.944,159.579z M237.374,159.094c1.02,5.426-1.018,15.498-2.43,23.334
	C234.667,178.126,236.388,164.708,237.374,159.094z M238.833,161.523c1.678-1.273,0.971,3.017,0.973,2.916
	c-0.086,5.425-2.363,12.184-2.918,17.988C236.407,177.042,239.401,167.537,238.833,161.523z M250.501,161.523
	c1.033-0.004-0.385,2.551,0,5.348c1.289,0.154-0.455-2.725,1.458-1.943c-0.962,1.67,0.749,2.736-0.972,4.375
	c0,5.517-0.98,0.158,0-1.945c-1.853,1.623-0.801,2.937-1.459,4.375C248.856,167.27,249.979,165.764,250.501,161.523z M89.098,162.01
	c0.853,1.803-1.175,6.385-1.458,10.209C86.677,170.08,88.314,166.225,89.098,162.01z M167.854,162.01
	c1.08,1.125,1.896-0.164,3.402,0c-1.65,1.268-4.177,1.657-5.348,3.403c-1.327,0.354-0.979-0.966-1.944-0.974
	c0.329-0.637,1.615,0.537,1.944,0.486C167.291,163.614,167.048,163.697,167.854,162.01z M73.541,163.469
	c0.553,0.017,0.553,3.717,0,5.348C72.073,167.279,73.784,165.441,73.541,163.469z M253.417,162.982
	c0.669,2.838-0.73,7.234-1.458,12.154C251.147,173.119,252.883,166.492,253.417,162.982z M54.095,164.928
	c0.575,1.795,0.536,3.772,0,5.834C53.687,169.561,53.798,166.701,54.095,164.928z M75.485,165.413c0.783,0.331,0.088,2.288,0,4.375
	C74.353,168.125,75.524,166.867,75.485,165.413z M84.236,164.928c0.015,1.461,0.044,7.646-2.431,10.209
	C83.269,172.453,82.764,167.401,84.236,164.928z M259.737,164.928c1.822-0.262,0.686,3.563-0.486,3.402
	C259.923,167.703,259.733,166.221,259.737,164.928z M79.375,165.898c0.552,0.094,0.27,0.488,0,0.486
	c1.501,0.842-0.435,3.12-0.486,3.402C77.887,175.238,78.996,171.102,79.375,165.898z M66.734,167.357
	c0.092-0.553,0.487-0.271,0.486,0c0.414,0.09,0.458-0.189,0.486-0.486c0.534,0.895,0.267,3.532-0.486,6.32
	C66.468,171.533,67.494,169.016,66.734,167.357z M76.943,168.33c0.75,1.574,0.187,4.316-0.486,6.807h-0.972
	C77.216,172.463,76.39,171.801,76.943,168.33z M81.319,168.816c0.6,1.433-0.75,5.479-0.486,5.834
	C79.778,174.985,80.463,170.639,81.319,168.816z M259.251,169.303c1.102,1.365-1.076,8.227-0.972,9.236
	C257.55,174.406,258.979,173.697,259.251,169.303z M221.331,170.762c0.664,2.146,0.307,3.316-0.486,6.318
	C220.276,181.471,220.364,173.273,221.331,170.762z M224.249,170.762c-1.029,1.705-0.678,6.301-1.459,5.834
	C222.965,174.339,222.187,171.125,224.249,170.762z M264.112,171.732c0.305,4.481-0.604,8.426,0,3.404
	C264.249,173.998,263.325,173.08,264.112,171.732z M214.524,172.705c0.57,0.945-0.215,3.412-0.485,5.348
	C213.038,175.967,213.89,174.611,214.524,172.705z M233.972,172.705c0.604,2.611,0.197,4.744-0.973,9.723
	C231.556,180.926,233.378,174.324,233.972,172.705z M216.47,174.65c0.598,1.271-0.381,3.525-0.486,6.318
	C214.56,178.85,216.582,175.768,216.47,174.65z M241.265,174.65c1.506,0.554,0.039,6.063-0.486,7.777
	C239.692,179.657,241.804,177.61,241.265,174.65z M251.474,175.622c0.604,1.126,0.156,1.593,0,3.89
	C249.878,179.361,251.19,176.766,251.474,175.622z M254.39,178.539c0.604,1.127,0.158,1.594,0,3.889
	C253.019,181.334,253.433,180.041,254.39,178.539z M265.085,178.539c0.779,0.559,0.029,2.664-0.973,3.889
	C263.39,181.373,265.31,179.59,265.085,178.539z M184.87,181.456c0.092-0.552,0.488-0.271,0.486,0c2.881-0.585,4.85-0.187,7.291,0
	C188.628,182.292,187.291,181.598,184.87,181.456z M187.787,182.914c-0.774-1.211,2.753,0.314,3.403-0.486
	c0.887,0.379-0.291,0.523-0.974,0.486c-0.09,0.414,0.189,0.459,0.486,0.486c-0.444,0.543-0.904,0.152-2.433,0.486
	C189.444,183.133,190.354,182.865,187.787,182.914z M217.442,182.914c0.832-1.111,3.711-0.178,5.348-0.486
	C221.958,183.541,219.081,182.607,217.442,182.914z M258.278,184.373c3.68,0.221,4.021,0.451,7.293,0
	C265.522,186.225,258.163,187.042,258.278,184.373z M268.002,184.859c1.674-0.674,2.481,0.15,5.349-0.486
	C272.494,186.309,268.62,184.967,268.002,184.859z M272.378,148.396c-0.77,1.996-2.83-1.205-4.376-1.457
	C269.753,145.223,270.297,148.835,272.378,148.396z M169.8,18.596c2.16-1.813,3.797,1.045,6.319,0.485
	C175.03,21.206,172.601,17.83,169.8,18.596z M189.245,48.25c-3.211-6.521-12.357-14.637-19.932-15.07
	c-0.547-2.05,4.211,0.189,5.834,0.485c-1.262-1.168-3.438-1.423-4.861-2.431c-1.787,2.154-2.758,1.359-4.862,1.945
	c-1.19-1.066,2.009-1.854,3.89-1.459c-1.393-1.093-6.174-0.334-6.319,0c-1.438-0.703,1.515-1.021,1.944-1.457
	c-0.071-1.084-1.226,0.631-2.432,0c-1.734,0.371,0.473,2.304-2.431,1.943c0.079-0.568,0.886-0.41,1.458-0.486
	c-0.078-0.569-0.887-0.41-1.458-0.485c4.384-4.278,14.728-1.947,19.446,1.944C183.995,36.869,192.153,42.473,189.245,48.25z
	 M160.076,34.153c0.274-1.6,3.521-1.958,4.376-1.458c-0.18-0.827,0.379-0.917,0.972-0.972
	C164.627,33.516,161.903,33.389,160.076,34.153z M168.827,38.528c-3.58-1.227-5.703,0.016-8.751,0.486
	C159.522,38.944,167.185,35.448,168.827,38.528z M170.286,45.333c-3.719,1.173-5.641-0.239-9.237,0.486
	C163.587,44.221,166.581,45.254,170.286,45.333z M251.474,129.438c0.328-1.655,1.615,2.142,1.943,0.485
	c0.266,0.144,0.301,1.958,1.459,0.486c0,0.604,1.21,1.414,0.486,2.431C256.378,133.123,253.019,130.672,251.474,129.438z
	 M170.774,188.748c1.25-0.586,1.33-2.255,2.432-2.432c0.256-0.039,3.066,1.21,2.43,1.459c4.197-1.646-10.197-3.071-4.375,0
	c-9.063-0.529-10.154,0.507-15.07-1.459c1.011,0.272,1.029,0.76,0.486,1.459C161.786,186.779,167.761,190.163,170.774,188.748z
	 M185.845,187.29c0.504,1.033,1.93-0.821,2.432,0.972c-5.809,1.213-10.844-1.017-17.016,0.486
	c6.321,0.637,14.178,0.945,18.961,0.486c2.953-0.283,7.119-0.445,6.805-2.432C193.521,189.404,187.872,186.955,185.845,187.29z
	 M221.821,188.748c-0.762-0.042,0.93-2.898-1.459-2.432c0.061,1.218,0.928,1.522-0.486,1.945c-5.804-2.24-16.551-3.441-22.363-0.486
	C204.192,185.33,213.862,188.398,221.821,188.748z M275.784,182.428c5.324-0.139,8.541,1.528,12.152,0
	C285.011,181.771,277.228,181.396,275.784,182.428z M281.132,158.121c0.115-0.754,1.807,0.289,2.43-0.973
	C282.755,155.792,279.906,157.596,281.132,158.121z M266.062,134.785c1.25-2.379-1.623-3.869-1.459-6.32
	c0.054-0.804,2.353-1.285,1.943-2.916c-0.348-1.395-1.714-2.117-4.375-2.918c1.023-1.016-0.641-1.826-1.458-2.43
	c-1.231,1.188,1.024,1.035,0.485,2.916c-0.846-0.036-1.512,0.109-1.943,0.486c1.225-2.359-3.26-3.892-3.404-1.944
	c-0.07,0.981,3.5,1.646,2.433,2.917c-0.839-1.594-2.564-2.297-3.403-3.889c2.27-0.426,1.047-1.322,2.917-1.945
	c1.179,0.248,2.149,3.184,2.917,0.973c-3.643-0.9-5.477-6.187-8.751-5.834c1.367,1.186,5.638,3.453,2.431,4.861
	c0.909-1.823-2.754,0.176-2.916-2.432c0.856-0.14,1.506,2.291,1.944,0.973c-1.146-0.148-0.903-1.688-2.433-1.458
	c0.09,1.062-0.396,1.548-1.457,1.458c-0.547-0.104-0.758-0.539-0.973-0.973c2.15,0.047,2.508-1.703,2.916-3.402
	c-1.141-1.285-3.625-5.324-4.86-3.402c2.444,1.508,3.29,2.104,4.375,4.375c-1.5,2.064-2.798,0.875-3.89-0.973
	c0.545-0.049,0.758,0.707,0.974,0c-1.13-0.917-2.056-1.994-3.403-0.486c1.339,0.93,2.475,2.064,3.403,3.403
	c-1.705-1.537-3.675-2.81-5.349-4.375c0.424-0.503,0.424-1.929,0-2.431c-0.133,1.145-2.152,0.297-1.945-0.486
	c0.164-0.917,3.115,0.697,1.945-0.486c-1.313,0.141-2.203-2.607-2.918-1.459c1.555,0.678-1.986,0.213-1.457,1.459
	c1.178,1.553,2.149-2.527,2.916,0c-2.041,0.23-0.342,0.381-1.943,1.459c-2.166-3.344-6.516-4.505-8.266-8.266
	c0.875-1.556,2.072-2.789,2.918-4.375c-2.627-0.881-2.553-3.338-5.834-4.375c2.109,2.859,6.895,5.343,1.943,7.777
	c0.335-1.918-1.248-1.18-2.432-3.889c0.08,0.624,2.969,0.624,1.459,0c-1.813-0.369-3-2.472-1.459,0
	c-1.525,0.246-1.985-1.146-2.43,0.486c1.129,0.814,2.055,1.834,3.402,2.431c-1.507,0.319,2.712,1.391,0.973,1.944
	c-1.765-1.476-3.43-3.052-5.349-4.375c0.537-0.439,0.337-1.088,0-1.945c2.017,0.07,2.283-1.605,3.403-2.431
	c-1.397-2.175-3.752-5.963-6.319-5.349c1.937,1.629,4.205,2.924,5.349,5.349c-0.695,0.116-0.82,0.8-1.459,0.972
	c-1.945-0.82-3.893-4.195-5.349-3.889c1.909,0.721,0.094,0.756-0.485,1.458c1.01,0.272,1.029,0.758,0.485,1.458
	c1.383,0.953,3.394,1.652,3.401,3.889c-1.146-2.75-6.24-2.557-5.348-6.806c-2.912-1.316-3.268-4.212-5.348-2.431
	c1.9,0.223,4.298,2.486,3.891,3.402c-2.27-1.458-4.214-3.24-6.32-4.861c1.209-0.072,0.143-1.646,0-1.944
	c2.207-0.548,2.943-2.567,4.375-3.89c-0.428,2.332,4.418,3.272,5.349,5.834c-0.541,0.33,0.097,1.615-1.459,1.944
	c-0.117-0.854-0.836-1.108-1.942-0.972c-5.865-7.012-1.017,1.042,1.457,0.972c-0.699,1.076-1.187-0.612-1.457,0.486
	c2.039,0.229,0.342,0.381,1.942,1.458c1.792-2.072,3.438-3.275,0.974-5.348c0.571-0.076,1.381,0.082,1.459-0.486
	c-0.572-0.076-1.382,0.084-1.459-0.486c0.164-0.917,3.114,0.697,1.944-0.486c-1.217,0.082-1.522-0.746-1.944-1.457
	c2.524,1.691,1.682-0.468,2.916-0.486c2.896-0.043,4.717,6.002,8.266,8.751c-0.454,0.143-0.454,1.315,0,1.458
	c0.811-2.137,0.162,3.595,0.973,1.458c0.206-7.726-1.943-8.3-5.348-12.154c-0.192,0.836,0.721,1.246,0,1.458
	c-0.104-0.587-0.539-0.299-0.973,0c0.151-0.656,0.691-0.929,0.485-1.945c-1.019-1.326-1.828,1.721-2.433-0.486
	c0.701,0.545,1.188,0.525,1.459-0.485c-1.129-0.329-1.301-1.616-2.43-1.944c-0.117,0.527-0.801,1.166-0.973,0.485
	c0.576-0.67-1.725-2.565,0-3.403c-3.084-2.225,0.135,0.696-2.432,1.459c-0.328-1.556-1.615-0.918-1.944-1.459
	c0.856-1.479,1.506,1.327,1.944,0c-1.25-0.814-0.363-1.834-2.43-2.431c1.719,0.048,2.129,0.935,2.916-0.485
	c4.145,4.061,6.989,6.782,9.723,8.75c0.555,1.901,1.055,3.703,1.945,2.916c0.069,1.852,0.051,3.035,0.485,3.403
	c1.342-4.94,1.545-8.114-1.459-13.612c-3.767-6.896-12.549-16.015-20.904-8.265c-0.745,4.247,0.972,6.161-1.459,9.724
	c0.13-1.422-1.886-1.867-1.944-0.486c2.717,1.843,5.353,2.801,7.293,7.291c-2.703,0.601-1.459,2.605-4.375,1.459
	c1.106,0.136,1.828-0.117,1.945-0.973c-2.029-1.859-3.685-4.096-6.32-5.348c1.084,1.992,4.254,3.088,5.834,5.834h-2.433
	c0.656-2.214-3.856-5.3-4.86-3.402c1.334,0.629,2.651,3.805,4.375,2.43c-0.67-0.502-2.883-1.926-1.943-2.43
	c0.635,1.592,3.531,2.297,1.458,3.889c0.757,0.572,3.846,1.296,2.431,2.431c-4.668-3.019-6.505-4.66-8.751-9.237
	c-1.479,0.857,1.327,1.506,0,1.945c-2.226-1.527-6.632-4.296-4.86-6.807c-0.145,1.279,1.886,0.384,1.457,1.945
	c-2.525-1.035,1.555,1.084,0,1.944c2.078-0.653,2.479,2.854,3.403,0.485c-0.575-0.721-1.836-0.756-2.431-1.457
	c1.436-1.191,1.969,1.631,3.402,1.943c0.429-1.562-1.603-0.666-1.457-1.943c1.017-1.627,1.826,1.875,2.43,0.486
	c-0.296-0.029-0.575-0.074-0.486-0.486c-0.486-0.264-4.436-4.334-6.806-5.834c1.034-0.504-0.82-1.928,0.973-2.432
	c2.886,2.786,6.716,4.627,8.265,8.752c-1.531-0.359-3.235,1.572-2.432,1.943c1.061-0.561,1.771-1.471,2.918-1.943
	c-1.498-5.947-6.478-8.727-9.724-9.238c0.401-4.203-0.034-4.816,0.485-6.805c1.808,0.334,1.271,0.233,3.403,0.485
	c1.918-2.072,1.729-5.28,0.974-6.806c-1.209,0.736,0.297,4.188-0.974,4.861c-0.483-1.572-3.847-0.328-4.86-2.432
	c1.037,0.281,2.646,1.673,2.916,0c-0.297-0.674-1.871-0.073-1.944-0.973c0.571-0.075,1.38,0.084,1.458-0.485
	c-0.297-0.674-1.871-0.073-1.943-0.972c1.387-0.336,2.582-0.385,0.485-1.459c1.702-0.977,3.356,1.302,4.376,0.486
	c-1.986-0.916-3.77-2.017-5.348-1.457c1.436,0.672,0.271,2.244-0.486,2.916c-4.307-2.904-10.852-0.815-12.641-1.945
	c-0.984-0.62,0.064-1.539-0.973-1.943c-1.585-0.619-6.874-0.854-9.236-0.486c-0.072,0.473,5.854,0.26,8.75,1.459
	c-1.72,0.633-1.192,0.101-2.916,0c-7.5-0.438,0.035,1.01,5.348,1.457c-3.014,1.256-9.944-0.897-13.126-0.972
	c-0.038-0.001-3.877,0.812-1.458,0.485c3.559,1.678,4.219-0.217,7.777,1.459c-1.692,0.236-8.99,0.429-10.695-0.973
	c0.701-1.076,1.188,0.612,1.459-0.486c-1.729-0.684-3.896-0.107-1.459,0.486c-4.721,1.487-9.275-1.176-12.153,0.973
	c-0.716,0.535,0.288,2.881-1.944,1.945c0.144-0.992,1.315-0.955,1.459-1.945c-2.221-0.686-1.084,1.465-2.432,1.945
	c-3.08,1.096-10.554-2.375-14.098,0c5.026,0.129,16.698,0.518,23.334,0.971c-2.35-1.934-3.615,0.47-6.319-1.457
	c4.103-0.248,10.036,0.314,12.153,1.457c-0.856,0.916-1.506-0.664-1.943,0.973c5.342-0.105,11.504,4.234,15.07,2.917
	c-1.631-1.044-7.021-1.877-9.723-3.403c6.74,0.772,11.713,2.91,18.959,5.834c-0.021-0.67,0.229-1.068,0.485-1.459
	c-1.539-0.525-2.471,0.272-3.401-1.457c1.719-0.429,2.504,1.248,2.916-0.486c-1.006-0.291-3.193,0.601-3.402-0.486
	c1.561-0.585,4.697,0.467,3.402-1.943c-1.019,1.743-2.336-0.111-4.375,1.457c0.326-1.56,1.696-3.527,4.375-1.943
	c-1.006,0.289-3.193-0.602-3.402,0.486c3.045,0.881,4.406-1.373,7.292,0c6.47,3.075,2.851,16.754,3.89,24.307
	c0.164,1.203,1.617,1.641,0.485,2.918c2.177,1.451,2.884,3.191,2.917,3.889c1.475,0,2.254,1.417,3.889,2.432
	c2.1-2.996-1.604-8.793-2.43-10.209c3.174,2.01,4.516,5.854,3.889,11.668c2.651,1.236,4.609,3.168,6.807,4.86
	c1.892-4.329-0.893-7.032-2.432-10.209c3.643,3.824,5.375,6.707,7.293,10.695c-0.834,0.083-1.912-2.757-1.945-0.486
	c2.164,0.917,3.594,2.565,4.861,4.375c-2.131-1.108-4.133-2.348-5.348-4.375c-1.037-1.739,1.633-3.604-0.973-4.375
	c-0.959,7.549,3.195,7.08,6.807,9.724c1.078-2.004-0.092-5.326-0.486-6.32c0.836,2.252,5.107,3.632,4.862,5.348
	c-0.913-0.87-1.829-1.736-2.917-2.431c-1.811,3.776,2.65,8.332,5.834,8.263c-1.453-1.464-3.754-2.079-4.861-3.89
	c1.107-0.667,1.827,1.254,1.944,0c-0.856-1.001-1.506-0.426-1.944-0.972c0.047-0.764-0.064-1.686,0.973-1.457
	c-0.346,2.386,2.229,1.852,0.973,3.888c1.707-0.086,1.6,1.643,2.917,1.945c1.162-1.722,0.385-1.781,0.974-3.404h-1.459
	c1.627-1.017-1.875-1.826-0.486-2.429c4.179,1.084,0.906,6.164,2.432,8.75c1.129,1.916,3.238,1.25,4.861,3.402
	c0.006-1.363,1.326,1.157,0.972-0.972c-1.267-0.05-6.069-2.783-4.375-4.376h0.972c-0.896,1.501,1.863,2.797,2.918,3.89
	c0.898-1.146,0.344-3.735,0.973-3.89c0.145,0.988,0.974,1.295,1.457,1.943c-1.521,2.207-0.149,3.002-0.971,4.861
	c1.869,0.885,3.402,2.107,4.86,3.403c0.308-2.789,0.761-3.787-0.485-6.319c1.24,2.52,1.25,9.818,4.861,8.264
	c-0.619-0.677-2.382-0.211-2.432-1.457c1.593-0.898,2.297,1.998,3.89,1.457c0.833-1.851-1.44-3.033-0.485-3.401h0.972
	c-0.698,0.854-0.445,1.106,0.973,0.973c-1.051,0.877,1.297,2.767,1.945,1.943c-1.076,0.7,0.61,1.188-0.486,1.459
	c-0.438-0.857-1.088-1.507-1.944-1.944v4.376c1.535,0.109,2.973,2.828,4.375,1.457c-0.588-0.103-0.299-0.539,0-0.972
	c-0.617-0.207-4.096-0.021-2.916-1.458c0.764,0.209,0.414,1.528,1.943,0.973c1.646-1.038-1.054-2.647,0-2.918
	c3.18,1.312-0.018,7.849,4.862,8.267c-0.513,0.024-0.384,0.623,0.485,0.484c0.767-1.33-0.281-3.531,0.485-4.861
	c1.497,3.351-0.401,6.978,4.861,8.752c0.468-2.947-1.173-3.312-0.485-4.861c2.131,3.057,1.316,6.559,4.861,8.264
	c1.047-0.41-0.184-3.099,0.973-3.402c0.316,2.049,0.486,2.238,0,3.89c1.105,0.676,1.883,1.683,2.916,2.433
	c-1.275,1.62-0.803,1.684,0,3.401c-0.545,0.05-0.757-0.707-0.973,0c0.537,0.438,0.337,1.088,0,1.944
	c3.214,1.066,3.023,2.949,5.348,2.431c-0.588-0.103-0.299-0.539,0-0.972c-1.396-1.032-3.455-2.332-4.375-2.432
	c0.541-0.33-0.096-1.615,1.459-1.945c-0.979,0.771,0.359,2.765,1.458,1.459c-0.136,1.107,0.117,1.828,0.972,1.945
	c0.42-0.486,1.804-0.668,2.433,0.485c0.483-1.187,0.161-1.036,0.485-2.917C270.884,138.732,269.644,137.096,266.062,134.785z
	 M268.005,137.702c2.766,0.638,4.887,1.919,5.834,4.376C271.224,140.439,269.872,140.309,268.005,137.702z M200.431,72.559
	c-1.473,2.03-3.521-2.668-5.349-3.403C196.502,68.723,198.511,71.877,200.431,72.559z M231.544,79.85
	c-2.625-3.97-4.465-6.125-7.779-9.723c-1.953-0.17,0.254,3.818-2.43,2.917c0.379-1.2,0.16-1.438,1.458-2.431
	c-2.259-1.943-4.101-2.942-8.265-3.403c3.356-1.194,4.82,1.224,8.265,1.945c0.69-1.54-1.667-4.163-3.403-5.349
	C223.937,65.377,231.845,71.342,231.544,79.85z M216.474,71.1c0.899-1.316-0.125,1.111-0.973,0.973
	c0.443,0.542,0.902,0.152,2.43,0.486c-0.443,1.631-0.902,0.239-2.43,0.485c0.078,0.57,0.887,0.41,1.458,0.486
	c-4.166,1.565-4.185-0.394-5.349,0c0.258-0.086,3.412-0.013,3.404,0c0.182-0.243-0.998-1.36-1.459-0.972
	C214.31,71.926,215.573,71.655,216.474,71.1z M221.821,80.336c-1.102,1.508-7.242,0.08-7.293-2.917c-0.967,0.81-0.617-0.044-1.945,0
	C214.358,76.184,218.743,79.18,221.821,80.336z M220.849,90.545c0.558,0.172,1.231,0.856,0.486,0.973
	c0.539,0.396,3.064,0.937,3.402,2.916c-0.699-0.271-1.187-0.758-1.459-1.457c-0.68,0.172-0.041,0.855,0.486,0.973
	c-1.923,0.844-0.525-2.715-2.916-1.945V90.545L220.849,90.545z M265.574,126.035c-0.788,1.477-3.738-1.348-5.834-0.486
	c1.034-0.75,1.811-1.755,2.917-2.432C264.286,123.434,264.792,124.873,265.574,126.035z M235.919,112.422
	c0.494-0.314,0.503-1.117,1.459-0.972c-1.326,1.317,1.258,1.21,0.973,2.917c-1.881-0.064-1.918-1.973-3.403-2.432
	C235.122,111.256,235.802,111.896,235.919,112.422z M203.833,88.602c1.674-0.912,2.48,2.102,5.348,2.431
	c-1.264,1.278,0.785,0.382,0.486,1.944C207.062,91.266,205.194,90.75,203.833,88.602z M207.722,87.143
	c0.947,1.136-1.486-1.392-2.43-1.459c-0.494,0.684,1.721,2.795,2.916,3.403c-1.629,1.755-2.109-1.751-3.889-1.458
	C203.901,81.376,204.878,84.211,207.722,87.143z M201.888,86.17c-0.119,0.528-0.966,0.33-0.972,0.973
	c-0.246-1.705-3.784-2.785-3.89-4.375C198.146,82.481,200.167,85.452,201.888,86.17z M164.454,55.057
	c0.926-1.619,1.324-0.381,3.404-0.485C167.415,56.417,165.903,54.926,164.454,55.057z M175.149,52.141
	c1.813-1.959,4.66,0.604,8.752,0C182.067,54.027,178.271,51.902,175.149,52.141z M183.901,53.113c1.367-1.521,4.002,0.813,6.806,0
	c-1.767-1.167-5.265-1.538-8.751-1.458c2.645-2.827,6.909,1.625,10.695,0.486c2.379,1.196,1.75,1.895-0.973,0.485
	C190.901,55.208,186.892,52.821,183.901,53.113z M199.944,81.309c-0.918-1.076-1.752-0.834-2.432-1.459
	C194.343,76.938,198.358,77.702,199.944,81.309z M215.015,93.462c-0.414,0.089-0.459-0.188-0.486-0.485v-0.973
	c1.318,0.604,1.211,1.876,2.918,0.973c0.887,0.377-0.293,0.522-0.973,0.485c-0.09,0.414,0.189,0.458,0.485,0.486
	C216.634,95.606,215.345,91.809,215.015,93.462z M228.627,103.186c-0.229-0.336,2.455,1.248,3.89,2.431
	C231.388,106.555,229.347,104.27,228.627,103.186z M236.892,104.645c0.572-0.076,1.381,0.082,1.459-0.486
	c-1.23-0.1-2.156-2.986-3.403-1.459c1.09,0.207,1.551,1.043,2.432,1.459c-2.496-0.098-3.062-2.127-4.376-3.403
	c1.018,0.302,1.827,2.493,2.432,0.485c-2.297-0.617-2.764-1.208-3.89,0.973c3.372,0.58,4.158,4.893,6.32,4.861
	c1.122-0.016,1.034-3.307,2.43-3.402c1.752-0.121,3.483,5.355,5.349,4.375c-1.17-3.58-4.574-2.637-6.807-6.32
	c0.169,0.279-3.074-4.166-3.89-1.943c2.165,0.427,3.073,2.111,4.376,3.402C239.39,103.438,237.767,106.943,236.892,104.645z
	 M185.845,49.223c0.647,0.395,7.455,2.36,8.266,0.973C190.989,49.835,186.765,48.457,185.845,49.223z M204.319,43.391
	c-0.385,0.985,0.502,4.158,2.916,3.889c-1.338-4.48-4.676-4.327-4.861-7.292c-2.063,0.007-1.54-2.634-3.889-3.403
	C198.709,38.727,201.003,42.746,204.319,43.391z M120.701,18.596c-0.689-0.731-1.799-2.097-0.972-2.916h-0.972
	c-0.296,0.026-0.576,0.071-0.486,0.485C119.51,16.256,119.578,20.002,120.701,18.596z M121.187,23.945
	c3.896,3.139,2.783,9.044,6.32,11.181c-2.861-4.71-3.117-9.599-6.32-13.126C121.727,22.438,121.526,23.086,121.187,23.945z
	 M123.131,35.612c0.956-0.146,0.964,0.656,1.458,0.972c-1.768-3.849-2.597-9.721-5.834-14.584
	C120.423,27.516,122.573,30.891,123.131,35.612z M175.149,32.695c-0.935-2.187-5.918-3.112-6.807-2.431
	C170.624,31.065,173.415,31.352,175.149,32.695z M36.598,50.196c0.572,0.076,1.379-0.083,1.458,0.486v0.972
	c-3.281,0.397-4.972-2.868-6.32-0.486c2.004,0.981,5.874,1.104,8.751,2.431c1.075-0.699-0.612-1.187,0.486-1.457
	c1.596,0.556,4.547,0.403,5.833,2.431c-1.779-0.257-4.984-2.854-5.833-0.972c1.686,1.067,4.634,0.875,6.32,1.943
	c0.869-1.177,1.898-2.15,0.972-2.917C46.397,52.309,37.511,48.742,36.598,50.196z M181.956,77.419c-0.143-1.134-1.314-1.134-1.459,0
	c2.182,4.669-2.5,8.794,2.432,9.237c-0.881-1.557,0.635-3.023-0.973-5.348c1.529-0.698,0.584-3.277,0.486-4.375
	C182.418,77.231,182.369,77.512,181.956,77.419z M179.039,75.961c-2.216,0.662-1.082,4.664,0.974,2.917
	c-2.213-0.767,0.723-1.739,0.971-2.917c-1.525,0.809-1.985-1.808-2.43-0.486C178.851,75.504,179.132,75.548,179.039,75.961z
	 M156.677,74.99c2.039,0.341,3.356,1.996,4.375,0.485c-2.738-1.778,1.564-6.047-2.917-6.319c-0.67,0.626-0.481,2.112-0.485,3.403
	c0.728,0.082,1.793-0.174,1.943,0.485C158.228,73.141,157.784,73.676,156.677,74.99z M148.897,63.807
	c0.334-0.14,3.896,1.897,4.375,0C151.522,63.555,148.401,63.141,148.897,63.807z M153.272,64.78
	c0.707,0.266,2.514-0.568,2.432,0.486c-1.378,1.318-4.607-1.268-6.32,0.485c5.963,0.396,9.236,1.028,14.584,2.431
	c-1.848-2.873-5.848-0.61-8.264-2.916c0.699-1.076,1.186,0.611,1.458-0.486C156.021,64.498,153.429,63.186,153.272,64.78z
	 M122.645,59.432c0.857,0.916,1.506-0.664,1.945,0.974c-0.572,0.075-1.38-0.084-1.458,0.485h1.944c-0.262-2.426,1.068-2.754,0-4.375
	c-0.329,0.967-1.615-0.479-1.944,0.486C124.06,57.051,122.748,58.815,122.645,59.432z M109.52,58.459
	c0.344,2.318-0.408,3.203,0.972,3.889c0.643-1.662,0.437-3.994,0-4.86C110.39,58.033,109.952,58.246,109.52,58.459z M121.187,61.376
	c1.32-0.272,1.597-4.636,0-4.862C119.87,56.788,119.591,61.154,121.187,61.376z M161.538,62.835c0.07-1.085,1.225,0.632,2.43,0
	V58.46c-3.645-1.421-2.779,1.894-2.43,3.89C161.271,62.35,160.987,62.744,161.538,62.835z M116.812,57.488
	c-0.847,0.036-1.512-0.108-1.944-0.486c-0.385,1.124-0.408,1.611-0.486,3.89c-0.57-1.203-2.02,1.18-1.944-0.973
	c0.7,0.544,1.186,0.523,1.458-0.486c-1.253-0.117,0.668-0.836,0-1.943c-1.551-0.289-1.503,0.913-2.431,0
	c0.26,1.685-0.722,4.611,0.973,4.861c1.497-1.004,4.895-1.138,6.806-0.973c-0.054-2.41,0.477-2.389,0-4.375
	C117.481,56.35,115.937,59.854,116.812,57.488z M177.095,67.21c0.639,0.496,1.793,0.478,2.432,0.974
	c0.525-1.974-0.189-2.668,0-5.349c-0.848,0.036-1.514-0.108-1.944-0.485C177.931,64.143,177.839,65.465,177.095,67.21z
	 M170.288,67.21c-3.621-0.88-7.807-2.334-11.668-1.944c4.355,1.451,10.867,1.379,15.07,4.375c-3.236-1.104-7.471-2.489-9.236-1.457
	c0.854,0.597,3.313-0.045,4.376,1.457c-6.558-0.607-15.407-3.588-20.419-2.916c9.566,1.072,19.105,3.918,28.197,5.834
	c-2.332-1.234-5.277-1.854-7.778-2.918c3.108-0.98,5.056,2.662,8.265,1.459c-1.178-1.315-2.15-0.017-2.916-1.945
	c1.037,0.281,2.646,1.673,2.916,0c-0.588-0.104-0.299-0.54,0-0.973c-4.849-2.932-12.625-4.19-17.016-4.375
	C162.583,65.227,167.526,64.463,170.288,67.21z M170.774,67.21c1.189-0.841,4.01,0.833,5.348,1.458
	C175.388,69.059,172.253,67.697,170.774,67.21z M131.396,67.697c0.064,1.198,0.073,2.342-0.486,2.917h2.917
	c-0.509-1.375,0.802-3.335,0-3.403C133.233,68.694,131.975,66.5,131.396,67.697z M150.843,76.934
	c-1.074-0.797-2.619-1.47-4.376-0.486c1.245,0.051,2.318,0.275,2.917,0.972c-1.299,0.502-3.902,0.208-4.861-0.972
	c0.701-1.076,1.187,0.611,1.459-0.486c-1.018-1.023-1.828,0.641-2.431,1.458c1.039,1.479,3.61,0.343,5.833,1.458
	c0.916-0.857-0.664-1.506,0.973-1.945C150.356,77.206,150.75,77.488,150.843,76.934z M147.438,79.365
	c-1.717-0.921-4.539-0.843-6.32-0.486C142.743,79.024,145.845,80.274,147.438,79.365z M247.587,92.977
	c2.245-8.588,0.957-13.617,1.458-20.904c-4.248,0.273-1.978,2.654-1.944,4.375c0.17,8.945-1.615,20.604-1.944,29.168
	c2.975-1.738,0.223-13.613,2.918-18.473C247.324,89.379,248.341,90.746,247.587,92.977z M242.726,86.657
	c-2.707-3.789-6.879-8.467-8.75-10.209c0.271,0.001,0.551-0.395,0-0.486C235.181,79.331,240.839,85.145,242.726,86.657z
	 M184.873,89.087c0.603-4.807-0.884-4.858,0.485-10.209c-0.668,0.021-1.066-0.229-1.457-0.485
	C184.235,80.206,181.858,85.534,184.873,89.087z M219.876,79.85c-1.952,0.308-3.316-2.483-4.861-0.972
	C216.419,79.122,218.681,81.018,219.876,79.85z M190.222,86.17c-0.318-2.047-0.488-2.238,0-3.889
	c-2.061-0.208-2.646-1.891-4.377-2.432c-0.295,1.941-0.01,5.812,1.945,3.89c-0.805,0.208,0.043-1.812,0.486-1.944
	C188.646,84.533,187.692,85.598,190.222,86.17z M212.099,84.225c-0.662,0.619-0.752,2.381,0.484,2.432
	c0.117-0.694,0.801-0.82,0.973-1.458C212.866,85.082,212.739,84.395,212.099,84.225z M191.679,87.628
	c-1.762,0.345-0.67,3.543-0.972,5.349c2.353-0.965,1.651,2.998,3.89,1.457c-1.228-0.559,1.201-4.301-1.459-4.86
	c-0.916,0.856,0.664,1.505-0.973,1.944c0.297-1.537,0.955-2.559-0.973-3.403c2.082-0.729,1.469-3.666,0-5.349
	C190.435,83.774,190.278,87.284,191.679,87.628z M196.056,96.379c0.754-2.849,1.43-6.092,0-9.723
	C195.149,90.104,194.786,93.342,196.056,96.379z M133.34,91.518c0.657,0.152,0.929,0.691,1.945,0.485
	c0.069-1.339,1.337-2.473,0.486-3.403C134.911,88.553,133.681,89.739,133.34,91.518z M209.667,96.379
	c-2.887-2.537-7.852-3.359-9.723-7.292c-2.137,0.813-2.521,3.017-0.486,3.89c0.674-0.299,0.072-1.873,0.973-1.944
	c-0.268,1.938-0.268,1.464,0,3.403c0.846,0.037,1.512-0.108,1.943-0.486c-1.316,1.375,1.203,1.654,1.945,2.431
	c-0.693,0.116-0.82,0.8-1.459,0.972c0.756-1.211-1.607-2.347-2.916-1.943c0.9-0.857-0.127-1.506-0.973-1.945
	c-0.994,1.986-1.605,3.77,0.485,5.348c0.103-0.545,0.539-0.756,0.972-0.972c1.248,4.881,7.768,5.061,3.403-0.972
	c0.847,0.036,1.513-0.109,1.944-0.486c-0.93,1.284,1.589,2.371,3.402,2.432c-1.326,1.017,1.721,1.828-0.486,2.429
	c-0.346-1.597-1.844-2.043-2.916-2.917c-0.801,1.829-0.625,6.208,3.402,5.347c-1.316,1.375,1.202,1.654,1.944,2.431
	c-0.296,0.027-0.575,0.072-0.485,0.485h1.459c-0.479-1.985,0.053-1.965,0-4.375c-0.848-0.036-1.514,0.109-1.945,0.486
	c1.326-1.019-1.721-1.827,0.486-2.43c0.271,0.699,0.758,1.186,1.459,1.457C212.987,98.815,210.679,97.27,209.667,96.379z
	 M249.531,93.462c1.534,3.089,2.745,6.236,5.834,6.32C253.304,97.635,253.265,96.919,249.531,93.462z M180.013,94.921
	c-0.029-0.296-0.074-0.575-0.486-0.485c0.345,1.854,0.322,2.341-0.486,3.889c0.299,0.143,1.872,1.209,1.943,0
	c-0.786-1.003,0.304-2.887-0.485-3.889C180.474,94.731,180.425,95.014,180.013,94.921z M187.79,102.699
	c0.518-1.758,1.922-3.526-0.486-3.888c-0.279,0.854,0.588,2.855-0.486,2.916c-0.351-1.21-0.244-2.384,0-3.888
	c-2.145-0.554-1.944,4.286-0.485,4.375C186.603,100.809,187.09,102.962,187.79,102.699z M161.538,102.699
	c0.521-0.903,2.32-3.011,0.486-3.403c-0.922,1.279-1.027,1.637-0.486,2.917C161.271,102.213,160.987,102.607,161.538,102.699z
	 M230.085,111.45c-0.053-1.117-3.178-1.386-4.861-2.917c-1.252-1.139-5.656-5.936-9.723-6.32c0.635-1.502-1.38-2.757-1.945-1.458
	c1.144,2.948-0.072,3.659,0,7.778c6.984,2.788,10.219,6.117,15.071,8.75c0.101-2.043,0.175-4.063-1.458-4.375
	c-0.104,0.546-0.54,0.758-0.973,0.973c0.115-0.693,0.8-0.82,0.973-1.459c-2.432-2.061-4.65,0.477-3.404-2.43
	c-2.514-0.617-2.832-0.992-3.889-2.432c-0.104,0.545-0.539,0.758-0.973,0.973c0.136-1.107-0.117-1.828-0.973-1.945
	c-1.076,0.701,0.612,1.188-0.486,1.459h-0.973c1.254-1.752-0.822-2.623-1.943-4.375c0.955,0.145,0.964-0.656,1.459-0.973
	c-0.103,1.396,0.123,2.47,0.972,2.917c0.103-0.546,0.539-0.757,0.972-0.972c1.178,3.981,11.269,7.078,13.127,10.694
	c1.551-0.417,1.504,0.765,2.432,0.972c0.626-1.146-0.063-0.903,0.486-2.431C232.015,112.699,230.163,113.055,230.085,111.45z
	 M229.112,118.256c1.801-0.104,2.908,2.204,4.376,1.459c0.745-2.684-4.069-4.033-3.403-5.834
	C229.089,114.664,228.958,116.321,229.112,118.256z M247.587,107.561c-1.408,0.545,0.746,0.523,0.486-0.486
	c-0.588-0.104-0.299-0.539,0-0.973c-0.76-1.578,0.271-3.361-0.486-5.348c0.27,0.001,0.553-0.393,0-0.486
	C246.97,102.15,247.097,105.893,247.587,107.561z M175.149,105.616c-0.027-0.296-0.072-0.575-0.486-0.486
	c0.418,1.552-0.766,1.505-0.973,2.431c0.695,0.117,0.82,0.802,1.459,0.974c1.115-1.339,0.895-2.474,0.485-3.403
	C175.612,105.428,175.563,105.709,175.149,105.616z M198.972,109.02c0.154-1.328,0.026-4.836-0.973-3.403
	C199.146,105.961,196.881,108.314,198.972,109.02z M200.431,109.02c-0.297-0.027-0.576-0.072-0.486-0.486h0.973
	c0.643-1.217-1.922-1.521-0.486-1.945c0,0.271,0.395,0.553,0.486,0C199.194,104.152,198.821,111.086,200.431,109.02z
	 M256.337,108.533c0.588,0.104,0.299,0.539,0,0.973c1.214-0.246,1.624-1.293,2.918-1.459c1.465,1.676,1.121,1.182,0.485,3.403
	c2.544-0.604,2.72-1.274,3.403-2.917c0.86-0.23,2.979,1.732,1.944,0c0.574,0.143,1.836,1.957,2.431,0.486
	c-0.588-0.104-0.299-0.539,0-0.974c-1.578,0.282-2.263-0.331-3.402-0.485c-1.449,0.436-1.777,0.756-1.945,1.459
	C259.935,107.823,258.204,107.07,256.337,108.533z M202.374,111.45c0.826-0.274,0.748-4.851-0.486-2.917
	C202.726,109.204,201.543,110.779,202.374,111.45z M206.265,112.908c-0.76-0.707,0.732-3.059-0.973-3.402
	C205.136,110.832,205.267,114.344,206.265,112.908z M211.125,113.881c-0.868,0.604,0.378,1.414-0.485,2.432
	c1.762,0.466,0.494-2.1,1.459-2.432c-0.701,0.26-1.188-1.895-1.459-0.486C210.937,113.424,211.218,113.469,211.125,113.881z
	 M214.042,114.854c-0.337,0.619-0.951,3.432,0.486,3.889c0.492-1.044,0.582-4.465-0.973-4.375
	C213.853,114.396,214.134,114.439,214.042,114.854z M238.836,118.742c0.899-0.857-0.126-1.506-0.972-1.944
	c-0.485,1.188-0.162,1.036-0.486,2.917c1.021,0.32,2.16,1.286,2.916,0.486c-1.023,0.818,0.641,2.482,1.459,1.458
	c-0.428,2.265,1.602-0.328,1.459,0.972c-2.148,1.518-2.904-0.58-3.89-1.457c-0.433,3.989-0.853-3.279-2.431,0.485
	c0.039-1.812,0.729-1.569-0.486-2.431c1.447-1.436,0.197-1.969,0.973-3.403c-1.551,0.417-1.504-0.765-2.432-0.972
	c-0.496,0.638-0.477,1.791-0.973,2.43c1.108,0.668,1.828-1.252,1.944,0c-2.188,1.59-1.744,4.68,0,5.348
	c0.67,0.021,1.067-0.229,1.459-0.484c-0.668,2.22,2.578,1.714,3.89,3.89c0.916-0.856-0.664-1.506,0.973-1.944
	c-0.801,1.45-0.104,2.289,0.973,2.432c-0.297,0.027-0.576,0.072-0.486,0.484c2.599,0.055,1.318-0.951,1.944-2.431
	c-0.728-0.083-1.794,0.174-1.944-0.485c0.588-0.104,0.299-0.539,0-0.974c1.551,0.417,1.504-0.765,2.431-0.972
	c0.14,0.855-2.289,1.505-0.972,1.943c0.862-0.674,2.489,2.026,3.89,2.432c-0.298,0.027-0.576,0.072-0.486,0.486h0.974
	c0.295-0.029,0.574-0.072,0.484-0.486C247.868,122.477,241.699,119.721,238.836,118.742z M198.485,119.715
	c-0.449-0.767-0.391-1.738,0-2.917c-1.881,0.423-1.73-1.188-2.918-1.458c-0.862,1.018,0.383,1.827-0.485,2.43
	c-0.026-0.295-0.072-0.574-0.485-0.485c-0.334,1.308,1.004,0.94,1.459,1.459c0.914-0.856-0.666-1.506,0.971-1.944
	C197.586,117.766,196.755,120.361,198.485,119.715z M199.458,121.174c3.02,0.022,0.238-4.453,0.973-2.918
	C199.608,118.727,199.181,119.604,199.458,121.174z M238.836,131.869c0.847-0.037,1.513,0.107,1.944,0.484
	c0.143-0.297,1.209-1.871,0-1.943c-1.047,2.693-1.788-2.146-1.458-0.486C239.171,130.58,238.632,130.852,238.836,131.869z
	 M244.185,133.327c-0.271-0.001-0.553,0.394,0,0.485c0.027-0.297,0.071-0.575,0.485-0.485c1.196,0.575-0.995,1.836,0.485,2.431
	c1.367-2.008-0.078,0.184,1.459,0.486c-0.266-0.707,0.568-2.514-0.486-2.432c-0.205,1.25-2.021-2.426-2.431-0.973
	C243.994,132.87,244.276,132.914,244.185,133.327z M229.112,151.801c-0.146-2.535,1.336-3.44-0.485-5.348
	c-0.731,1.367,0.341,2.7-0.974,4.861c-1.646-1.529,0.418-3.896-0.971-5.834c-1.283,2.041-0.896,4.572-0.974,5.834
	C226.419,150.805,228.296,151.771,229.112,151.801z M252.935,139.646c1.076-0.699-0.611-1.187,0.486-1.459
	c0.912,0.928-0.289,0.881,0,2.432c0.572,0.076,1.38-0.084,1.458,0.486c-0.296,0.027-0.575,0.072-0.485,0.486
	c1.633,0.497,0.756-1.513,0.973-2.433c-0.379-0.108-0.96-0.013-0.973-0.485c0.297-0.027,0.574-0.072,0.485-0.486
	c-0.847,0.037-1.512-0.107-1.944-0.485C252.794,137.999,251.728,139.574,252.935,139.646z M256.337,142.564
	c1.13,0.543,1.303-0.105,2.432,0.972c-0.266-0.706,0.568-2.513-0.485-2.431c-0.116,0.746-0.802,0.07-0.974-0.486
	c0.271,0.002,0.553-0.395,0-0.486C256.813,140.77,256.833,141.928,256.337,142.564z M250.989,145.967
	c-0.297-0.027-0.575-0.072-0.486-0.486c0.271,0.002,0.553-0.394,0-0.485c-0.271,1.156-1.463-0.539-0.484-0.972
	c-1.801,0.716-0.84,1.039-1.944-0.486c-0.337,0.855-0.537,1.505,0,1.943C248.743,144.742,250.319,146.706,250.989,145.967z
	 M41.945,180.971c-5.789,0.433-6.481,0.664-16.043,0.973v1.458c5.074,1.834,11.542,0.143,15.071,1.944
	c2.879-0.709,2.417-0.869,2.431-2.918c1.013,0.145-0.722,1.316,0.972,1.459c1.927-2.127,0.418-2.819,2.431-4.86
	c-1.108-0.668-1.827,1.253-1.944,0c0.099-1.847,1.401-2.488,1.944-3.89c-0.576-1.197-1.836,0.996-2.431-0.485
	c0.572-0.076,1.38,0.083,1.458-0.486C43.023,174.975,38.945,177.135,41.945,180.971z M69.654,176.107
	c0.001,0.271-0.394,0.553-0.486,0c-2.911-1.682-14.49,2.041-16.043,0.486c2.508,2.51,14.447-1.811,16.043,0
	C68.911,178.004,71.064,175.85,69.654,176.107z M54.098,180.971c2.853,2.67,5.238,0.191,8.265,1.457
	c0.667-1.106-1.253-1.826,0-1.942c1.219-0.11,5.652,0.51,3.889-0.974c-2.835,1.008-9.445-1.072-13.126,0
	c2.78,1.783,5.187-0.314,8.264,1.459C58.672,182.428,56.814,180.78,54.098,180.971z M94.935,186.805
	c-0.26-1.1,1.895,0.59,0.486-0.486c-0.143-1.014-1.315,0.722-1.458-0.973c0.297-0.027,0.576-0.072,0.486-0.485
	c-0.707,0.266-2.513-0.568-2.431,0.485C93.3,185.578,93.656,185.729,94.935,186.805z M92.018,186.805
	c-0.604-0.199-1.414-0.556-2.431-1.459c-0.007,0.803-1.348,0.271-1.458,0.973C89.787,186.215,91.955,187.878,92.018,186.805z
	 M105.629,187.775c0.117-0.745,0.8-0.07,0.972,0.486c-2.701,1.383-6.898-1.438-4.861,1.944c-3.134,1.58-12.285-0.69-14.585,0
	c0.912,0.115-0.275,0.8,0.486,0.974c4.754,0.227,8.53,0.266,10.695,0.971c1.349-1.029,2.274-0.924,3.403-0.485
	c0.985-0.636,0.668-2.573,1.944-2.917c0.066,0.801,3.337,0.801,3.403,0c-1.716-0.143,1.715-1.314,0-1.458
	C107.088,188.01,104.443,186.107,105.629,187.775z M116.326,188.262c-3.969-0.529-6.86-1.582-8.265-0.485
	C110.852,188.307,114.498,188.563,116.326,188.262z M155.218,187.775c-0.799-0.85-6.77,0.896-7.777,0
	c-0.545,1.011-0.524,1.031,0.484,0.486c0.195-0.135,9.02,0.992,7.779-0.973C155.681,187.586,155.631,187.868,155.218,187.775z
	 M134.313,189.721c-6.097,1.688-11.731-1.537-17.501-0.973c1.399,0.182,2.334,1.165,3.889,1.459
	c4.139,0.781,15.448,3.174,14.099-2.432c-0.117,0.912-0.801-0.275-0.972,0.486C134.925,188.534,133.239,189.02,134.313,189.721z
	 M140.146,188.748c-1.435-0.416-1.968-0.416-3.403,0c0.001-0.27-0.394-0.552-0.486,0
	C137.628,189.26,139.039,189.391,140.146,188.748z M86.669,189.721c-16.887-1.238-24.59,0.703-42.295,4.375
	c1.378,1.319,4.607-1.266,6.32,0.486c-0.7-0.544-1.186-0.523-1.458,0.486c5.774,1.514,5.58-1.273,13.126-0.973
	c-1.686-3.008-8.076,1.442-10.695-0.486C61.016,190.586,75.07,190.104,86.669,189.721z M44.375,195.068
	c-1.893-2.807-3.413-0.277-7.292-1.459c0.021-0.67-0.229-1.067-0.486-1.459c2.131-1.889,4.134-0.705,5.348-2.43
	c-3.419,0.149-6.015,0.241-6.32,4.375C39.694,194.402,40.826,195.102,44.375,195.068z M195.567,190.693
	c1.533,0.632,3.236-0.027,2.432-0.973C198.015,190.605,195.554,188.792,195.567,190.693z M162.511,191.665
	c-2.238-0.735-5.91-0.386-8.752,2.431c-4.994,1.355-10.13-0.026-15.07-0.485c-0.674,0.784-0.411,2.506-1.458,2.918
	c-8.166,1.563-16.389-2.177-26.252-2.918c-1.146,0.149-0.904,1.688-2.431,1.459c-0.487-0.003-0.578,0.394-0.972,0.485
	c-0.444-0.543-0.904-0.151-2.431-0.485c1.132,2.381,3.784-0.566,6.32-0.974c7.506-1.201,19.319,6.287,26.738,2.918
	c1.315-1.179,0.016-2.149,1.945-2.918C147.755,197.844,154.558,193.25,162.511,191.665z M180.983,191.665
	c-6.812,1.53-12.31-2.053-17.987,0.485C173.069,191.184,174.878,194.368,180.983,191.665z M74.029,194.096
	c-0.063,0.873,0.483,1.139,1.458,0.974c-0.021-0.671,0.229-1.068,0.486-1.46C74.118,192.852,71.93,195.166,74.029,194.096z
	 M91.044,196.041c1.688-0.805,2.573,0.406,3.89-0.973c-0.545-0.305-3.559-0.135-3.89,0C91.633,195.17,91.347,195.607,91.044,196.041
	z M117.297,198.471c-0.143,1.015-1.315-0.721-1.458,0.974c0.662,0.588,7.797,1.645,2.917,0c0.432-0.849,2.128,0.362,0.972-0.486
	C118.853,198.705,117.234,200.674,117.297,198.471z M190.707,74.502c0.476-1.83,0.522-3.908-0.485-5.348
	c-0.271,1.594-1.882,0.742-1.459-0.973c-1.529-0.557-1.182,0.764-1.945,0.973c0.072-1.206,0.093-2.359-0.973-2.432
	c-0.441,0.687-1.381,4.981,0.486,4.861c1.32,0.348-0.348-2.292,0.973-1.943c0.006,1.291-0.184,2.775,0.486,3.402
	C190.833,72.125,188.417,73.627,190.707,74.502z M167.372,74.502V71.1c-0.848,0.035-1.514-0.108-1.945-0.486
	c-0.508,1.369-0.639,2.779,0,3.889C165.544,73.249,166.263,75.168,167.372,74.502z M168.83,75.475h2.431
	c-0.603-1.342-0.059-3.83-1.945-3.889C168.509,73.137,168.485,73.623,168.83,75.475z M177.581,74.502
	c-1.374,0.402-1.26-0.686-2.432-0.486c-0.006,1.291,0.184,2.776-0.486,3.403c1.882-0.539,1.73,1.72,2.918,0.486
	C177.313,75.967,177.313,76.442,177.581,74.502z M245.155,125.063c-1.709,2.815,0.787,3.69,3.404,5.348
	c-0.064-1.199-0.074-2.342,0.484-2.917C245.924,127.026,246.444,126.589,245.155,125.063z M209.181,138.188
	c-2.031,5.547-1.145,9.479-1.459,14.586c-0.379,6.173-3.25,14.756-0.486,18.959c1.104-3.614-0.174-8.074,1.945-10.695
	c0.199,2.949-1.231,5.467-0.486,9.236c0.273-0.699,0.759-1.187,1.46-1.457c-0.255-10.008,2.622-15.575,1.944-26.252
	c-0.055-0.848,2.015-4.197-1.459-2.918c0.404,0.541,0.238,4.807-0.973,5.348C209.706,144.445,211.335,139.078,209.181,138.188z
	 M209.667,145.48c1.73,5.216-1.334,10.363,0,12.154c-1.964,1.407-0.102-5.894,0-9.238C209.7,147.313,208.972,146.326,209.667,145.48
	z M131.396,178.053c-1.054-0.082-0.22,1.726-0.486,2.433c1.854-0.337,2.341,1.976,3.889,0.485c0.282-2.404-2.579-1.955-2.917-2.432
	C132.393,178.516,132.267,177.917,131.396,178.053z"/>
</svg>
