<?xml version="1.0" encoding="utf-8"?>
<!-- Generator: Adobe Illustrator 16.0.0, SVG Export Plug-In . SVG Version: 6.00 Build 0)  -->
<!DOCTYPE svg PUBLIC "-//W3C//DTD SVG 1.1//EN" "http://www.w3.org/Graphics/SVG/1.1/DTD/svg11.dtd">
<svg version="1.1" id="Layer_1" xmlns="http://www.w3.org/2000/svg" xmlns:xlink="http://www.w3.org/1999/xlink" x="0px" y="0px"
	 width="29.196px" height="17.928px" viewBox="0.593 6.266 29.196 17.928" enable-background="new 0.593 6.266 29.196 17.928"
	 xml:space="preserve">
<path fill="#000000" d="M9.089,13.133c0.346,0.326,0.689,0.75,1.043,1.228c0.051-0.072,0.099-0.144,0.15-0.219
	c0.511-0.75,1.09-1.599,1.738-2.42c0.104-0.134,0.211-0.246,0.316-0.371c-0.487-0.572-1.024-1.121-1.672-1.593
	C9.663,9.02,8.354,8.506,6.899,8.517H0.593v3.604H6.9C7.777,12.138,8.333,12.422,9.089,13.133z M22.753,16.082v2.256
	c-0.922-0.002-2.45-0.002-2.883-0.002c-1.28-0.03-2.12-0.438-2.994-1.147c-0.378-0.312-0.74-0.701-1.098-1.133
	c-0.268,0.375-0.537,0.764-0.813,1.168c-0.334,0.487-0.678,0.989-1.037,1.483c-0.089,0.121-0.188,0.246-0.283,0.369
	c1.455,1.528,3.474,2.846,6.202,2.862h2.905v2.256l3.515-2.026l3.521-2.03l-3.521-2.027L22.753,16.082z M16.876,13.271
	c0.874-0.713,1.714-1.119,2.994-1.148c0.433,0,1.961,0,2.883-0.002v2.256l3.515-2.025l3.521-2.028l-3.521-2.029l-3.515-2.027V8.52
	h-2.905c-3.293,0.02-5.563,1.93-7.041,3.822c-1.506,1.912-2.598,3.929-3.718,4.982c-0.757,0.709-1.313,0.995-2.189,1.012H0.593
	v3.604H6.9c1.455,0.011,2.765-0.502,3.767-1.242c1.012-0.735,1.771-1.651,2.454-2.573C14.461,16.267,15.574,14.34,16.876,13.271z"/>
</svg>
