<?xml version="1.0" encoding="utf-8"?>
<!-- Generator: Adobe Illustrator 15.1.0, SVG Export Plug-In . SVG Version: 6.00 Build 0)  -->
<!DOCTYPE svg PUBLIC "-//W3C//DTD SVG 1.1//EN" "http://www.w3.org/Graphics/SVG/1.1/DTD/svg11.dtd">
<svg version="1.1" id="Layer_1" xmlns="http://www.w3.org/2000/svg" xmlns:xlink="http://www.w3.org/1999/xlink" x="0px" y="0px"
	 width="100px" height="100px" viewBox="0 0 100 100" enable-background="new 0 0 100 100" xml:space="preserve">
<path fill-rule="evenodd" clip-rule="evenodd" d="M53.004,67.107c0.026-0.03,0.056-0.056,0.081-0.085
	c-0.071,0.296-0.235,0.44-0.368,0.741c-0.108,0.018-0.021-0.04-0.124,0.04c0.216-0.034,0.235-0.074,0.369-0.165
	c-0.04,0.068-0.079,0.14-0.121,0.206c0.055,0,0.108,0,0.163,0c0.286-0.453,0.436-0.94,0.41-1.724
	c0.471-0.253,1.021-0.504,1.684-0.741c0.24,0.264,0.241,0.5,0.7,0.454c0.268-0.617,0.88-0.78,1.438-1.108
	c1.269-0.752,3.079-1.573,3.365-3.163c0.054-0.261,0.111-0.521,0.163-0.78c-0.074-0.301-0.082-1.136-0.201-1.601
	c-0.222-0.41-1.187-3.07-3.718-2.996c-1.394,0.039-2.631,0.66-3.841,1.188c-0.102,0.168-0.195,0.101-0.042,0.204
	c-0.178,0.15-1.99,0.875-2.175,1.234c-0.181,0.21-0.091,0.449,0.041,0.655c-0.083,0.028-0.163,0.055-0.246,0.083
	c0.027,0.013,0.052,0.027,0.083,0.043c-0.03,0-0.056,0-0.083,0c-0.166,0.032-0.22,0.287-0.412,0.368
	c-0.369,0.066-0.74,0.138-1.11,0.205c-0.013,0.014-0.025,0.027-0.04,0.039c-0.028-0.012-0.055-0.025-0.083-0.039
	c-0.39-2.033,1.143-2.252,0.781-3.983c-0.302-1.446-0.915-1.762-1.397-2.834c-0.096-0.097-0.192-0.19-0.285-0.285
	c0.965-0.395,2.205,0.345,3.201,0.038c0.786-0.236,1.322-0.747,1.93-1.148c0.706-0.464,1.459-0.515,2.343-0.821
	c0.298-0.164,0.6-0.328,0.899-0.494c1.328-0.531,2.579,0.352,3.862,0.287c0.671,0.043,1.342,0.082,2.013,0.125
	c0.836-0.043,1.669-0.082,2.503-0.125c0.932-0.041,1.863-0.08,2.794-0.121c1.286-0.178,2.57-0.357,3.857-0.535
	c0.146-0.273,0.128-0.415,0.126-0.781c0.013,0,0.025,0,0.041,0c0.705,0.423,0.313,1.436,1.435,1.562c0.017,0,0.027,0,0.043,0
	c0.492-0.841-0.871-1.655-1.192-2.176c0.831-0.395,1.358,0.614,2.096,0.696c0.187,0.023,0.269-0.144,0.369-0.162
	c0.26,0.094,0.521,0.19,0.779,0.284c0.016-0.025,0.029-0.052,0.039-0.082c-0.135-0.054-0.271-0.108-0.406-0.162
	c-0.016-0.028-0.03-0.054-0.04-0.082c0.873,0,1.218-0.188,1.969,0.122c0.623,0.258,1.397,1.169,2.341,0.863
	c0.369-0.312,0.739-0.627,1.108-0.942c-0.01-1.714-2.418-4.498-3.694-4.68c-0.261,0.188-0.521,0.38-0.781,0.573
	c-1.197-0.224-1.479-0.778-2.381-1.07c0.026-0.562,0.479-1.104,0.287-1.683c-0.402-1.215-2.498-3.165-3.778-2.422
	c-0.733,0.424-1.121,1.645-1.889,2.136c-0.067-0.015-0.138-0.028-0.204-0.042c-0.336,0.113-0.158,0.303-0.372,0.495
	c-0.595,0.526-1.374,0.413-1.724,1.313c-0.481-0.003-0.745-0.19-1.272,0c-0.528,0.189-0.789,0.445-1.52,0.534
	c0.027-0.124,0.055-0.247,0.082-0.369c-0.04-0.027-0.082-0.055-0.123-0.083c-0.279-0.155-2.694,0.411-3.613,0.205
	c-0.521-0.116-0.903-0.602-1.477-0.779c-0.647-0.2-1.886,0.248-2.509,0.329c-0.044-0.958-0.888-0.947-1.928-0.906
	c-0.273,0.249-0.548,0.493-0.819,0.74c-0.438-0.013-0.879-0.029-1.315-0.042c-1.767,0.188-4.175-0.236-6.201,0.082
	c-1.635,0.26-3.586-0.392-4.107,0.945c-0.967-0.135-1.942-0.272-2.915-0.409c-2.139-0.479-6.59-1.126-8.171-0.247
	c-0.096,0-0.191,0-0.289,0c0.059-0.335,0.136-0.403,0.126-0.78c-0.166-0.123-0.33-0.247-0.494-0.369
	c-0.138-0.671-0.274-1.341-0.41-2.012c-0.14-0.5-0.401-1.103-0.536-1.56c0.029-0.41,0.057-0.824,0.083-1.231
	c-0.153-0.707-0.502-1.885-0.33-2.794c0.216-1.126,0.66-2.268,0.411-3.529c-0.461-2.35-2.532-5.536-2.134-8.093
	c0.948-0.389,1.281-1.652,1.559-2.75c0.598-2.342,0.829-4.952,0.947-7.841c-0.016-0.698-0.028-1.398-0.041-2.095
	c-0.063-0.142-0.095-0.116-0.163-0.245c-0.448-0.175-1.446-0.348-2.013-0.29c-0.029-0.013-0.056-0.026-0.085-0.041
	c0.037-0.438,0.2-0.8,0.412-1.066c0.81,0.195,1.654,0.644,2.545,0.862c-0.186-0.403-1.685-0.849-2.259-0.988
	c-0.013-0.024-0.025-0.054-0.041-0.08c0.497-0.08,0.511-0.119,0.782-0.372c-0.014-0.025-0.028-0.054-0.041-0.082
	c-0.258-0.049-0.413-0.004-0.616,0.082c-0.016,0-0.027,0-0.041,0c0-0.025,0-0.054,0-0.082c0.542-0.14,0.847-0.582,1.313-0.697
	c0.014-0.055,0.028-0.109,0.044-0.163c-0.358,0.151-0.714,0.298-1.071,0.451c-0.01,0-0.026,0-0.042,0
	c0.058-0.543,0.296-0.766,0.577-1.067c0.165-0.383,0.328-0.766,0.492-1.149c0.418-0.901,1.378-2.59,0.943-3.736
	c-0.118-0.321-1.201-1.189-1.763-0.823c-0.14,0.093-0.187,0.238-0.413,0.29c-0.312,0.011-0.63,0.025-0.942,0.041
	c-1.064,0.328-2.516,1.463-2.919,2.463c-0.143,0.36,0.128,0.695,0,1.107c-0.129,0.437-0.4,1.271-0.655,1.683
	c-0.237,0.385-0.732,0.156-1.067,0.454c-0.454,0.397-0.893,1.219-1.026,1.848c-0.266,1.225,0.565,2.435,0.247,3.364
	c-0.241,0.7-1.049,1.473-0.825,2.63c0.178,0.896,0.037,2.143,0.249,2.997c0,0,0.377,0.796,0.329,1.067
	c-0.562,3.097-1.4,7.847,0.287,9.979c-0.095,0.097-0.193,0.193-0.287,0.288c0.108,0.601,0.399,0.729,0.616,1.11
	c0,0.272,0,0.545,0,0.819c0.047,0.19,0.232,0.319,0.288,0.455c0.203,0.491-0.308,1.322-0.124,2.051
	c0.109,0.383,0.218,0.767,0.329,1.149c-0.125,0.507-0.25,1.014-0.372,1.521c0.013,0.559,0.028,1.121,0.042,1.68
	c-0.226,1.043-0.295,2.223-0.575,3.082c0.015,0.258,0.026,0.519,0.042,0.781c-0.016,0.655-0.027,1.311-0.042,1.969
	c0.096,0.424,0.19,0.849,0.285,1.274c-0.054,0.107-0.106,0.217-0.163,0.326c-0.163,0.534,0.19,0.94,0.289,1.233
	c0,0.315,0,0.63,0,0.945c0.176,0.867,0.176,2.457,0.574,3.162c0.04,0.274,0.083,0.547,0.124,0.822
	c0.097,0.368,0.193,0.74,0.285,1.107c0.081,0.134,0.346,0.209,0.374,0.411c0.147,1.282,0.356,2.972,2.052,2.75
	c0.246,0.752,0.789,1.4,1.149,2.055c1.388,2.532,2.915,4.76,4.927,6.652c0.596,0.56,1.376,0.774,2.055,1.271
	c0.847,0.658,1.696,1.313,2.543,1.972c1.066,0.66,2.47,0.96,3.533,1.684c0.792,0.602,1.588,1.205,2.38,1.809
	c0.359,0.327,0.713,0.655,1.067,0.984c0.556,0.973,0.109,3.002,0.578,4.27c0.355,0.821,0.712,1.642,1.067,2.463
	c0.244,0.655,0.116,1.384,0.369,2.054c0.206,0.438,0.412,0.877,0.616,1.313c-0.067,0.371-0.138,0.738-0.204,1.109
	c0,0,0.059,1.923,0.082,2.013c0.109,0.233,0.218,0.466,0.328,0.696c0.095,1.055,0.19,2.107,0.287,3.164
	c0.261,0.82,0.522,1.64,0.782,2.464c0.534,2.176-0.339,3.127,0.819,4.926c0.082,0,0.165,0,0.248,0
	c0.04,0.573,0.432,0.685,0.328,1.027c0.465,0.04,0.933,0.08,1.396,0.122c-0.041,0-0.081,0-0.122,0c0.229,0.122,0.543,0.003,0.985,0
	c-0.111,0.015-0.218,0.026-0.328,0.042c0.382,0,0.766,0,1.149,0c0.374,0.186,1.655,0.18,2.134-0.042
	c0.507,0.015,1.015,0.026,1.521,0.042c0.623-0.063,1.943,0.026,2.051,0.164c0.015,0,0.03,0,0.043,0
	c-0.028-0.066-0.054-0.135-0.084-0.206c0.191-0.014,0.384-0.025,0.576-0.042c0.055-0.08,0.11-0.163,0.165-0.244
	c-0.027-0.163,0.002-0.122-0.083-0.205c-1.314-0.831-3.088-0.316-4.435-0.903c-0.712-0.313-2.037-1.094-2.792-0.946
	c-0.051-0.257,0.011-0.45-0.329-0.492c-0.586-1.253-0.714-5.028-0.369-7.021c0.159-0.925,0.442-2.155,0.246-3.285
	c-0.244-1.416-0.792-2.313-1.23-3.448c-0.514-1.337-0.716-3.006-0.905-4.601c-0.004-0.057,0.689-1.848,0.78-2.134
	c0.569-1.793-0.018-4.439-0.533-5.749c0.255-0.543,0.518-1.857,0.985-2.216c0.603-0.232,1.205-0.466,1.808-0.7
	c-0.069,0.13-0.115,0.236-0.041,0.412c0,0.024,0,0.056,0,0.082c0.014,0,0.025,0,0.041,0c0.068-0.082,0.056-0.058,0.082-0.208
	c0.015,0,0.029,0,0.039,0c0.167,0.14,0.063,0.186-0.039,0.372c0.33-0.096,0.225,0.045,0.534,0.083
	c-0.1,0.079-0.018,0.022-0.122,0.04c0.042,0.164,0.08,0.329,0.122,0.492c-0.193,0.026-0.382,0.055-0.575,0.083
	c0.138,0.132,0.531,0.043,0.861,0.04c0,0.014,0,0.028,0,0.041c-0.537,0.109-0.879,0.285-1.313,0.126
	c0.308,0.534,1.252,0.156,1.724,0.079c-0.069,0.067-0.135,0.14-0.203,0.206c0.634-0.154,0.904-0.686,1.312-1.067
	c0-0.026,0-0.056,0-0.081c0.015,0,0.029,0,0.043,0c-0.053,0.521-0.212,0.573-0.289,1.148c0.028,0,0.057,0,0.085,0
	c0.163-0.421,0.305-0.689,0.451-0.986c-0.042-0.043-0.173-0.129,0.039-0.247c-0.102-0.079-0.017-0.022-0.121-0.039 M25.575,1.982
	c-0.015,0.039,0.033,0.028-0.041,0.081C25.547,2.036,25.563,2.007,25.575,1.982z M24.632,2.639c0.026,0,0.052,0,0.082,0
	C24.684,2.639,24.658,2.639,24.632,2.639z M22.208,7.401c0,0.028,0,0.054,0,0.082C22.208,7.455,22.208,7.429,22.208,7.401z
	 M27.752,8.345c0.013,0.03,0.027,0.056,0.041,0.083C27.779,8.4,27.765,8.375,27.752,8.345z M27.709,9.249c0.029,0,0.056,0,0.084,0
	c-0.014,0.042-0.028,0.083-0.041,0.125C27.738,9.332,27.724,9.291,27.709,9.249z M67.582,42.427
	c-0.016,0.041-0.029,0.081-0.039,0.124C67.597,42.462,67.615,42.526,67.582,42.427z M31.939,43.7
	c0.041,0.014,0.082,0.027,0.124,0.04C32.021,43.727,31.98,43.714,31.939,43.7z M39.084,44.358c0.041,0,0.083,0,0.122,0
	C39.168,44.358,39.125,44.358,39.084,44.358z M73.537,49.081c0.13,0.139,0.265,0.19,0.492,0.246
	C73.866,49.242,73.7,49.162,73.537,49.081z M71.688,49.162c0.111,0.168,0.313,0.24,0.412,0.41c0.095,0.288,0.192,0.574,0.284,0.863
	c0.132,0.186,0.377,0.244,0.494,0.451c0.015,0,0.027,0,0.043,0c0-0.054,0-0.11,0-0.161C72.674,50.094,72.27,49.447,71.688,49.162z
	 M74.522,49.203c0.053,0.14,0.022,0.083,0.123,0.165C74.604,49.313,74.563,49.258,74.522,49.203z M36.581,51.833
	c-0.042,0.052-0.083,0.107-0.124,0.163c0.124,0.179,0.246,0.354,0.367,0.533c-0.012,0.11-0.025,0.219-0.041,0.329
	c0.123,0.214,0.544,0.363,0.7,0.612c0.931,0.013,1.565,0.475,2.299,0.661c0.793,0.053,1.588,0.105,2.381,0.163
	c0.013-0.155,0.024-0.163,0.331-0.206c-0.301-0.534-0.604-1.066-0.905-1.601c0.014,0.081,0.027,0.163,0.042,0.245
	c-0.724-0.026-1.452-0.053-2.178-0.082C38.712,52.449,37.377,51.866,36.581,51.833z M22.702,53.967
	c-0.182,0.686,0.497,1.594,0.778,2.053c0.041-0.013,0.085-0.028,0.126-0.042c0-0.014,0-0.025,0-0.04
	C23.349,55.534,23.01,54.21,22.702,53.967z M48.653,58.813c-0.016,0.04-0.029,0.081-0.042,0.122c0.08-0.057,0.067-0.039,0.124-0.122
	C48.705,58.813,48.68,58.813,48.653,58.813z M60.725,60.618c0.013,0.028,0.027,0.055,0.039,0.082
	C60.752,60.673,60.737,60.646,60.725,60.618z M60.479,61.563c-0.012,0.028-0.028,0.054-0.044,0.081c0.044,0,0.085,0,0.128,0
	c-0.017-0.027-0.029-0.053-0.043-0.081C60.504,61.563,60.493,61.563,60.479,61.563z M32.351,65.916
	c0.041,0.053,0.08,0.108,0.122,0.163C32.431,66.024,32.392,65.969,32.351,65.916z M50.375,66.367c0,0.04,0,0.082,0,0.123
	c0.029,0,0.055,0,0.083,0C50.406,66.364,50.46,66.441,50.375,66.367z M50.542,66.654c0,0.054,0,0.109,0,0.165
	c0.027-0.041,0.052-0.081,0.082-0.126C50.594,66.683,50.568,66.669,50.542,66.654z M50.624,66.901
	c0.042,0.026,0.084,0.054,0.122,0.082C50.672,66.901,50.745,66.952,50.624,66.901z M53.127,66.901c0,0.039,0,0.082,0,0.121
	c0.017-0.039,0.025-0.082,0.041-0.121C53.152,66.901,53.144,66.901,53.127,66.901z M50.13,66.983c0.025,0,0.057,0,0.082,0
	C50.187,66.983,50.155,66.983,50.13,66.983z M52.636,66.983c0,0.028,0,0.055,0,0.082C52.636,67.038,52.636,67.012,52.636,66.983z
	 M50.787,67.353c0.028,0.082,0.057,0.165,0.082,0.247c0.15-0.065,0.197-0.082,0.285-0.206c0-0.013,0-0.026,0-0.041
	c-0.01,0-0.023,0-0.038,0C51.006,67.353,50.896,67.353,50.787,67.353z M52.02,67.353c0,0.028,0,0.055,0,0.082
	C52.059,67.364,52.058,67.426,52.02,67.353z M51.402,67.518c-0.095,0.093-0.189,0.189-0.286,0.286
	c0.122-0.097,0.246-0.193,0.368-0.286C51.457,67.518,51.43,67.518,51.402,67.518z M51.895,67.557
	c-0.082,0.082-0.163,0.164-0.245,0.247c0.109-0.083,0.219-0.165,0.33-0.247C51.952,67.557,51.924,67.557,51.895,67.557z
	 M52.717,67.887c0.012,0.081,0.062,0.042-0.04,0.124C52.688,67.971,52.703,67.929,52.717,67.887z M51.526,67.971
	c0.026,0.009,0.056,0.024,0.084,0.04C51.582,67.995,51.553,67.979,51.526,67.971z M51.154,68.213
	c0.017,0.043,0.033,0.084,0.043,0.124c-0.053,0-0.109,0-0.163,0c0-0.013,0-0.025,0-0.04c0.026,0,0.054,0,0.082,0
	C51.131,68.269,51.145,68.244,51.154,68.213z M52.185,68.297c0.028,0,0.054,0,0.079,0C52.238,68.297,52.213,68.297,52.185,68.297z
	 M47.255,69.16c0,0.025,0,0.054,0,0.082C47.255,69.214,47.255,69.186,47.255,69.16z M46.188,95.274
	c0.013,0.026,0.028,0.056,0.04,0.081C46.216,95.33,46.201,95.301,46.188,95.274z M49.761,95.728c0,0.053,0,0.107,0,0.164
	C49.761,95.835,49.761,95.78,49.761,95.728z M51.281,96.344c0.053,0,0.107,0,0.161,0c0,0.013,0,0.027,0,0.039
	C51.389,96.371,51.334,96.356,51.281,96.344z M45.492,96.383c0.01,0.028,0.026,0.057,0.039,0.081
	C45.518,96.439,45.502,96.411,45.492,96.383z M51.895,96.588c0.029,0,0.058,0,0.085,0C51.952,96.588,51.924,96.588,51.895,96.588z
	 M46.519,96.673c0,0.052,0,0.108,0,0.163C46.519,96.781,46.519,96.725,46.519,96.673z M52.222,96.673c0.031,0,0.058,0,0.084,0
	C52.279,96.673,52.253,96.673,52.222,96.673z M46.639,96.836c0.028,0.026,0.056,0.055,0.083,0.08
	C46.645,96.86,46.697,96.912,46.639,96.836z M53.454,96.876c0.029,0,0.058,0,0.085,0C53.512,96.876,53.483,96.876,53.454,96.876z
	 M46.475,96.916c0.014,0.028,0.028,0.054,0.044,0.084C46.503,96.97,46.488,96.944,46.475,96.916z M52.553,96.916
	c0.027,0,0.055,0,0.083,0C52.607,96.916,52.58,96.916,52.553,96.916z M54.399,97.245c0.029,0,0.055,0,0.081,0
	C54.454,97.245,54.429,97.245,54.399,97.245z M45.862,97.491c0.012,0.029,0.026,0.056,0.037,0.083
	C45.888,97.547,45.874,97.521,45.862,97.491z M47.008,97.534c0.028,0,0.055,0,0.083,0C47.063,97.534,47.036,97.534,47.008,97.534z
	 M47.174,97.861c0.041,0,0.081,0,0.122,0C47.255,97.861,47.215,97.861,47.174,97.861z M50.787,98.313c0.067,0,0.138,0,0.206,0
	C50.925,98.313,50.854,98.313,50.787,98.313z M56.41,98.395c0.069,0,0.138,0,0.206,0c-0.025,0.026-0.053,0.054-0.079,0.082
	C56.496,98.448,56.453,98.421,56.41,98.395z M49.309,98.437c0.029,0,0.055,0,0.082,0C49.364,98.437,49.338,98.437,49.309,98.437z
	 M53.004,98.437c0.026,0,0.056,0,0.081,0C53.06,98.437,53.03,98.437,53.004,98.437z M53.332,98.477c0.03,0,0.055,0,0.082,0
	C53.387,98.477,53.362,98.477,53.332,98.477z"/>
</svg>
