<?xml version="1.0" encoding="utf-8"?>
<!-- Generator: Adobe Illustrator 16.0.0, SVG Export Plug-In . SVG Version: 6.00 Build 0)  -->
<!DOCTYPE svg PUBLIC "-//W3C//DTD SVG 1.1//EN" "http://www.w3.org/Graphics/SVG/1.1/DTD/svg11.dtd">
<svg version="1.1" id="Layer_1" xmlns="http://www.w3.org/2000/svg" xmlns:xlink="http://www.w3.org/1999/xlink" x="0px" y="0px"
	 width="28.375px" height="26.75px" viewBox="1.5 1.75 28.375 26.75" enable-background="new 1.5 1.75 28.375 26.75"
	 xml:space="preserve">
<path d="M6.812,17.202l7.396-3.665v-2.164h-0.834c-0.414,0-0.808-0.084-1.167-0.237v1.159l-7.396,3.667v2.912h2L6.812,17.202
	L6.812,17.202z M26.561,18.875v-2.913l-7.396-3.666v-1.158c-0.358,0.152-0.753,0.236-1.166,0.236h-0.832l-0.001,2.164l7.396,3.666
	v1.672L26.561,18.875L26.561,18.875z M16.688,18.875v-7.501h-2v7.501H16.688z M27.875,19.875H23.25c-1.104,0-2,0.896-2,2V26.5
	c0,1.104,0.896,2,2,2h4.625c1.104,0,2-0.896,2-2v-4.625C29.875,20.771,28.979,19.875,27.875,19.875z M8.125,19.875H3.5
	c-1.104,0-2,0.896-2,2V26.5c0,1.104,0.896,2,2,2h4.625c1.104,0,2-0.896,2-2v-4.625C10.125,20.771,9.229,19.875,8.125,19.875z
	 M13.375,10.375H18c1.104,0,2-0.896,2-2V3.75c0-1.104-0.896-2-2-2h-4.625c-1.104,0-2,0.896-2,2v4.625
	C11.375,9.479,12.271,10.375,13.375,10.375z M18,19.875h-4.625c-1.104,0-2,0.896-2,2V26.5c0,1.104,0.896,2,2,2H18
	c1.104,0,2-0.896,2-2v-4.625C20,20.771,19.104,19.875,18,19.875z"/>
</svg>
