<?xml version="1.0" encoding="utf-8"?>
<!-- Generator: Adobe Illustrator 16.0.3, SVG Export Plug-In . SVG Version: 6.00 Build 0)  -->
<!DOCTYPE svg PUBLIC "-//W3C//DTD SVG 1.1 Tiny//EN" "http://www.w3.org/Graphics/SVG/1.1/DTD/svg11-tiny.dtd">
<svg version="1.1" baseProfile="tiny" id="Layer_1" xmlns="http://www.w3.org/2000/svg" xmlns:xlink="http://www.w3.org/1999/xlink"
	 x="0px" y="0px" width="15px" height="15px" viewBox="0 0 15 15" xml:space="preserve">
<path d="M7,4.5C7,5.329,6.328,6,5.5,6S4,5.329,4,4.5S4.672,3,5.5,3S7,3.671,7,4.5z M9.5,3.5c-0.553,0-1,0.447-1,1s0.447,1,1,1
	s1-0.447,1-1S10.053,3.5,9.5,3.5z M10.5,4.5H10C9.999,4.777,9.776,5,9.5,5C9.224,5,9,4.776,9,4.5S9.224,4,9.5,4
	C9.776,4,9.999,4.223,10,4.5H10.5H11C11,3.671,10.329,3,9.5,3C8.672,3,8,3.671,8,4.5S8.672,6,9.5,6C10.329,6,11,5.329,11,4.5H10.5z
	 M8.5,10.499c0-0.552-0.448-0.999-1-0.999s-1,0.447-1,1v0.001c0,0.552,0.448,0.999,1,0.999S8.5,11.053,8.5,10.499L8.5,10.499z
	 M8.5,10.5H7.764c0,0.146-0.118,0.264-0.264,0.265c-0.146-0.001-0.265-0.119-0.265-0.264V10.5c0-0.146,0.118-0.264,0.264-0.265
	c0.146,0.001,0.265,0.119,0.265,0.264V10.5H8.5h0.735v-0.001C9.234,9.54,8.457,8.765,7.5,8.765c-0.958,0-1.735,0.776-1.735,1.735
	v0.001c0.001,0.959,0.778,1.734,1.736,1.734c0.958,0,1.735-0.776,1.735-1.735H8.5z M14.5,7.5H14c0,1.797-0.727,3.418-1.903,4.597
	C10.918,13.273,9.297,14,7.5,14s-3.418-0.727-4.596-1.903C1.727,10.918,1,9.297,1,7.5s0.727-3.418,1.904-4.596
	C4.082,1.727,5.703,1,7.5,1s3.418,0.727,4.597,1.904C13.273,4.082,14,5.703,14,7.5H14.5H15C15,3.357,11.643,0,7.5,0
	C3.357,0,0,3.357,0,7.5C0,11.643,3.357,15,7.5,15S15,11.643,15,7.5H14.5z"/>
</svg>
