<?xml version="1.0" encoding="utf-8"?>
<!-- Generator: Adobe Illustrator 16.0.0, SVG Export Plug-In . SVG Version: 6.00 Build 0)  -->
<!DOCTYPE svg PUBLIC "-//W3C//DTD SVG 1.1//EN" "http://www.w3.org/Graphics/SVG/1.1/DTD/svg11.dtd">
<svg version="1.1" id="Layer_1" xmlns="http://www.w3.org/2000/svg" xmlns:xlink="http://www.w3.org/1999/xlink" x="0px" y="0px"
	 width="25.33px" height="25.331px" viewBox="3.335 2.939 25.33 25.331" enable-background="new 3.335 2.939 25.33 25.331"
	 xml:space="preserve">
<path d="M16,2.939C9.006,2.942,3.338,8.61,3.335,15.605C3.335,22.6,9.005,28.268,16,28.27c6.994-0.002,12.662-5.67,12.664-12.664
	C28.663,8.61,22.995,2.939,16,2.939z M25.663,15.605c-0.002,1.943-0.582,3.748-1.568,5.264L10.736,7.513
	C12.251,6.525,14.056,5.944,16,5.94C21.336,5.951,25.654,10.269,25.663,15.605z M6.335,15.605c0.004-1.943,0.584-3.75,1.573-5.266
	l13.355,13.357c-1.517,0.986-3.32,1.566-5.265,1.569C10.664,25.259,6.346,20.941,6.335,15.605z"/>
</svg>
