<?xml version="1.0" encoding="utf-8"?>
<!-- Generator: Adobe Illustrator 16.0.0, SVG Export Plug-In . SVG Version: 6.00 Build 0)  -->
<!DOCTYPE svg PUBLIC "-//W3C//DTD SVG 1.1//EN" "http://www.w3.org/Graphics/SVG/1.1/DTD/svg11.dtd">
<svg version="1.1"
	 id="svg378" xmlns:cc="http://creativecommons.org/ns#" xmlns:dc="http://purl.org/dc/elements/1.1/" xmlns:rdf="http://www.w3.org/1999/02/22-rdf-syntax-ns#"
	 xmlns="http://www.w3.org/2000/svg" xmlns:xlink="http://www.w3.org/1999/xlink" x="0px" y="0px" width="143.447px"
	 height="71.281px" viewBox="0 0 143.447 71.281" enable-background="new 0 0 143.447 71.281" xml:space="preserve">
<rect id="rect186" x="0" y="-0.001" fill="#00BF13" width="71.246" height="71.282"/>
<rect id="rect186_1_" x="71.432" y="-0.001" fill="#FFFFFF" width="72.014" height="71.282"/>
<path fill="#F21930" d="M89.942,45.836C83.955,56.604,70.751,60.43,60.258,54.65c-10.49-5.779-14.315-18.984-8.536-29.478
	c5.777-10.492,18.981-14.316,29.475-8.537c3.879,2.135,6.641,4.944,8.813,8.944c-0.793-1.09-1.678-1.989-2.839-2.903
	c-7.156-5.625-17.529-4.385-23.156,2.772c-5.626,7.155-4.386,17.529,2.771,23.156S84.315,52.993,89.942,45.836L89.942,45.836z
	 M84.814,47.758l-5.225-7.406l-8.616,2.812l5.428-7.26l-5.335-7.324l8.581,2.919l5.319-7.338l-0.127,9.063l8.623,2.791l-8.657,2.679
	L84.814,47.758z"/>
</svg>
