<?xml version="1.0" encoding="utf-8"?>
<!-- Generator: Adobe Illustrator 16.0.0, SVG Export Plug-In . SVG Version: 6.00 Build 0)  -->
<!DOCTYPE svg PUBLIC "-//W3C//DTD SVG 1.1//EN" "http://www.w3.org/Graphics/SVG/1.1/DTD/svg11.dtd">
<svg version="1.1" id="Layer_1" xmlns="http://www.w3.org/2000/svg" xmlns:xlink="http://www.w3.org/1999/xlink" x="0px" y="0px"
	 width="100px" height="100px" viewBox="0 0 100 100" enable-background="new 0 0 100 100" xml:space="preserve">
<path d="M41.718,30.792c2.714-5.858,11.349-15.373,27.523-14.892c23.174,0.689,19.827,40.81-3.657,43.948
	c0,0,0.674,1.68,0.689,4.582c0.015,2.401-1.09,13.477-15.94,21.644c-11.114-6.492-16.231-16.612-16.064-26.384
	c0,0-19.521-2.111-19.651-25.125c-0.127-23.011,37.051-27.69,46.514,1.012c0,0,1.818-1.163,6.914-1.018
	c3.751,0.109,14.341,3.9,21.527,15.698c-6.839,9.714-19.034,17.177-28.698,13.685l-0.082,0.496
	C58.952,76.663,44.62,82.886,35.317,82.618c-9.303-0.269-21.462-6.427-21.538-20.035c-0.076-13.607,7.522-20.966,21.025-22.124
	c0,0-1.787-2.817-1.807-6.247c-0.031-5.545,5.537-14.801,16.552-20.253c8.206,4.106,17.086,11.066,17.145,21.696
	c0.015,2.157-0.809,3.709-0.809,3.709s18.946,2.04,19.082,26.27c0.049,8.88-6.124,18.906-20.492,18.49
	c-7.393-0.214-18.875-4.526-23.367-20.419c0,0-1.436,1.107-7.384,1.527C29.423,65.539,16.682,60.602,9.76,49.37
	c6.196-10.135,18.467-16.241,30.608-13.813C40.368,35.558,40.569,33.407,41.718,30.792l0.48,0.325
	c-0.775,1.92-1.454,3.857-1.321,6.364l-0.581,0.148l-0.003-0.581c-12.656-3.152-24.87,4.354-29.6,12.486
	c6.944,10.711,18.324,15.063,22.696,15.19c5.73,0.164,9.04-2.229,9.04-2.229l0.417,0.594l-0.497,0.152
	c1.967,10.177,12.57,20.022,22.952,20.323c10.383,0.301,19.479-6.654,18.904-20.275C83.602,48.93,73.532,40.498,65.061,40.254
	l-0.75-0.104c0,0,1.246,0.036,1.228-3.614c-0.063-11.047-8.078-17.722-15.98-21.647C41.512,18.626,33.596,27.3,33.636,34.452
	c0.024,4.48,2.449,7.453,2.449,7.453l-0.417-0.427c-7.892-0.227-21.234,4.613-21.142,21.209
	c0.08,14.188,12.897,19.205,20.787,19.433c11.38,0.328,25.285-8.063,25.219-19.681l0.331-0.405l0.17,1.001
	c9.011,2.298,20.313-3.741,27.301-13.266c-4.453-8.736-15.357-14.735-20.232-14.875c-6.754-0.196-8.847,2.067-8.847,2.067
	l0.882-0.971c-5.076-16.74-19.708-19.485-24.692-19.629c-4.984-0.144-20.246,3.177-20.162,18.223
	c0.134,23.677,20.733,24.604,20.733,24.604l0.226,0.559l-0.888-0.023c0.582,13.326,8.212,20.909,15.44,25.157
	c12.283-6.961,15.004-16.354,14.983-20.13c-0.026-4.98-1.611-6.021-1.611-6.021l0.41-0.9l1.001,0.691
	c25.546-5.566,23.2-42.033,3.582-42.206c-11.718-0.104-22.958,5.63-26.961,14.804L41.718,30.792z M50.159,92.342
	c-16.936-8.229-22.556-22.646-22.586-28.199c-0.042-7.303,3.757-11.341,3.757-11.341c-8.502-5.389-9.867-11.898-9.909-19.45
	c-0.023-4.314,1.048-5.777,1.353-10.663c0.423-6.775-9.814-2.439-9.843-7.668c-0.028-5.063,5.219-2.338,5.232,0.151
	c0.009,1.494-0.893,3.625-0.886,4.787c0.006,1.161,1.271,4.599,5.091,4.71c3.822,0.109,5.302-2.502,11.531-2.323
	c15.034,0.435,20.74,10.97,20.74,10.97c6.2-4.882,10.602-5.086,14.09-4.985c3.489,0.101,14.129,2.151,24.002,15.047
	c2.213,2.891,4.111,5.121,5.854,6.928c-6.817,7.813-14,20.793-30.284,20.325c-10.715-0.313-14.141-4.35-14.141-4.35
	c-5.71,11.199-21.2,10.546-21.2,10.546l-0.253-0.466c5.067,0.146,18.094-1.924,21.939-12.102l0.334,0.426l-0.162,0.494
	c0,0,4.258,4.021,12.729,4.266c16.398,0.474,23.411-11.555,30.115-19.422c-7.453-8.247-16.244-20.829-28.932-21.195
	c-10.465-0.303-15.41,6.606-15.41,6.606l-0.248-0.256l0.906-0.97c0,0-5.705-10.203-19.244-10.593
	c-8.555-0.248-8.292,2.082-12.195,1.969c-3.905-0.111-5.751-3.566-5.761-5.393c-0.01-1.824,1.955-6.83-1.7-6.935
	c-2.326-0.067-2.301,4.247,2.434,4.384c4.733,0.137,5.911,2.661,5.924,4.901c0.013,2.239-6.762,23.448,10.136,30.573l-0.082,0.245
	l-1.165-0.53c0,0-3.546,4.543-3.51,10.851c0.028,5.031,3.658,18.701,21.941,27.676c11.193-5.556,27.718-22.476,17.204-37
	l-0.748,0.063l-0.51-2.088l0.249-0.076l0.255,0.919c0,0,9.615-3.207,9.52-20.383c-0.033-5.975-1.447-6.513-1.471-10.33
	c-0.021-3.816,3.625-5.453,5.201-5.408c1.579,0.046,5.984,1.004,5.968-2.15c-0.008-1.577-3.327-1.341-3.315,0.983
	c0.006,1.244,0.846,2.679,0.849,3.26c0.009,1.41-1.049,5.279-4.456,5.181c-3.404-0.097-7.98-1.558-12.633-1.692
	c-4.648-0.134-15.186,2.051-19.453,10.971l-1.236,1.706l0.075-1.242c0,0-4.841-4.371-13.313-4.615
	c-13.784-0.4-22.26,13.113-30.402,20.949c6.917,8.185,15.463,20.1,30.801,20.542c11.213,0.324,15.076-6.864,15.076-6.864
	l0.334,0.342l-0.246,0.656c0,0,5.899,11.494,21.072,10.897l6.64-0.89c11.129,0.322,4.961,11.095,10.775,11.263
	c1.744,0.051,1.976-3.261-0.684-3.338c-1.164-0.033-2.152,1.182-4.812,1.106c-2.657-0.079-5.579-2.9-5.606-7.878
	c-0.007-0.997,1.685-4.766,1.51-11.82c-0.106-4.4-0.825-14.378-10.819-19.062v-0.333l0.998,0.195c0,0,3.471-3.136,3.433-10.023
	c-0.031-5.451-4.796-18.916-20.637-26.901c-10.18,4.183-21.929,12.171-22.688,26.979c-0.299,5.854,6.266,11.574,6.266,11.574
	l-0.108,0.33l-0.889-0.47c0,0-11.493,4.093-11.426,15.932c0.053,9.515,4.598,10.311,4.635,16.947
	c0.014,2.434-1.433,4.932-7.511,3.544c-2.771-0.634-3.746,3.101-0.313,3.199c2.104,0.062,1.075-5.722,1.075-5.722
	s-0.794-5.816,6.062-5.135c1.512,0.149,3.954,0.594,6.852,0.791l0.214,0.297c-5.066-0.146-7.063-0.616-7.063-0.616
	c-2.99-0.087-5.284,0.118-4.616,6.254c0.701,6.436-5.506,5.37-5.853,2.817c-0.776-5.728,10.861,1.724,10.821-5.44
	c-0.029-5.312-5.256-9.112-5.302-17.409C20.463,50.11,32.12,45.856,32.12,45.856s-4.675-4.449-4.707-10.34
	c-0.081-14.28,11.74-23.152,23.059-27.858c15.494,7.369,21.577,20.374,21.621,27.987c0.037,6.472-3.599,9.934-3.599,9.934
	c6.837,4.927,9.449,11.557,9.488,18.526c0.037,6.97-1.205,7.432-1.178,12.328c0.026,4.895,2.775,6.469,4.688,6.521
	c1.91,0.057,1.244-0.461,4.732-0.36c3.486,0.101,3.348,4.825,0.607,4.746c-5.98-0.173-0.646-11.384-9.201-11.634
	c-3.572-0.102-5.984,1.679-12.949,1.039c-12.054-1.11-17.084-10.781-17.084-10.781s-4.785,5.669-14.172,5.398
	C17.267,70.896,8.505,58.111,1.414,49.99c8.548-7.823,17.868-22.009,31.688-21.61c8.058,0.232,13.814,4.879,13.814,4.879
	c5.098-9.311,15.55-11.166,19.87-11.041c4.317,0.125,8.728,1.413,12.631,1.525c3.903,0.113,3.212-4.636,3.194-7.706
	c-0.018-3.069,4.877-3.924,4.893-1.352c0.027,4.813-5.881,2.733-6.961,2.703c-1.078-0.031-4.395,1.035-4.377,4.353
	c0.027,4.98,1.777,5.693,1.811,11.585c0.09,16.098-9.517,20.881-9.517,20.881s3.425,3.749,3.455,9.061
	C72.001,78.689,58.982,87.938,50.159,92.342z"/>
</svg>
