<?xml version="1.0" encoding="utf-8"?>
<!-- Generator: Adobe Illustrator 16.0.0, SVG Export Plug-In . SVG Version: 6.00 Build 0)  -->
<!DOCTYPE svg PUBLIC "-//W3C//DTD SVG 1.1//EN" "http://www.w3.org/Graphics/SVG/1.1/DTD/svg11.dtd">
<svg version="1.1" id="Layer_1" xmlns="http://www.w3.org/2000/svg" xmlns:xlink="http://www.w3.org/1999/xlink" x="0px" y="0px"
	 width="100px" height="100px" viewBox="0 0 100 100" enable-background="new 0 0 100 100" xml:space="preserve">
<path fill="#AD4B9C" d="M61.715,92.686c3.904-3.631-1.238-28.858-4.549-36.933c-1.234-3.517-2.006-5.183-2.578-6.312
	c1.146,0.363,2.669,0.858,6.012,1.567c7.142,2.217,34.795,3.416,35.623-1.285c-0.394-4.757-28.039-6.113-35.354-4.566
	c-3.393,0.397-4.955,0.751-6.131,1.007c0.674-1.072,1.596-2.661,3.15-6.047c4.037-7.734,11.49-32.381,7.938-36.355
	C61.941,0.04,52.637,26.845,52.051,36.883c-0.556,4.116-0.605,6.244-0.641,7.748c-1.061-1.318-2.81-3.349-6.261-6.653
	C36.072,28.833,17.52,16.43,13.04,18.522C6.867,19.59,25.477,36.428,39.11,43.141c4.822,2.594,7.698,3.72,9.538,4.384
	c-1.893,0.489-4.861,1.346-9.9,3.483c-14.195,5.426-34.279,20.477-28.231,22.11c4.269,2.496,23.886-8.144,33.768-16.41
	c3.741-2.972,5.669-4.833,6.846-6.046c-0.104,1.5-0.249,3.624-0.074,7.773C50.711,68.482,57.507,96.031,61.715,92.686z"/>
<path fill="#A776B3" d="M86.752,79.007c0.991-5.237-18.111-22.499-25.566-27.037c-3.08-2.098-4.688-2.982-5.818-3.552
	c1.138-0.387,2.658-0.892,5.77-2.304c7.064-2.451,30.04-17.886,27.918-22.161c-3.138-3.599-26.199,11.706-31.171,17.291
	c-2.495,2.332-3.543,3.544-4.339,4.447c-0.093-1.264-0.292-3.089-1.05-6.737c-1.336-8.624-9.956-32.888-15.173-33.98
	c-5.334-0.694,3.071,26.408,8.554,34.835c1.992,3.645,3.213,5.387,4.077,6.619c-1.635-0.432-4.248-1.03-8.986-1.645
	c-12.731-1.976-35.024-0.959-37.391,3.382c-4.336,4.521,20.633,7.041,35.591,4.358c5.421-0.771,8.405-1.569,10.279-2.125
	c-1.233,1.516-3.115,3.966-5.905,8.677c-8.209,12.786-15.454,36.815-9.616,34.545c4.917-0.522,14.4-20.724,17.455-33.24
	c1.25-4.61,1.698-7.253,1.925-8.929c0.807,1.27,1.95,3.064,4.551,6.304C63.539,66.048,85.35,84.197,86.752,79.007z"/>
<path fill="#894B9D" d="M74.21,88.439c2.704-4.594-9.435-27.299-14.911-34.092c-2.188-3.017-3.404-4.394-4.275-5.312
	c1.203,0.021,2.805,0.06,6.209-0.216c7.478,0.084,34.319-6.667,33.771-11.409c-1.735-4.447-28.616,2.151-35.185,5.725
	c-3.137,1.35-4.532,2.135-5.586,2.716c0.338-1.22,0.769-3.005,1.291-6.695c1.66-8.565,1.758-34.314-2.782-37.106
	c-4.784-2.458-6.043,25.889-3.737,35.675c0.643,4.104,1.202,6.157,1.6,7.608c-1.395-0.959-3.649-2.407-7.899-4.587
	c-11.311-6.168-32.634-12.754-36.33-9.47c-5.61,2.788,17.035,13.607,32.018,16.144c5.363,1.109,8.441,1.367,10.393,1.476
	c-1.674,1.01-4.274,2.679-8.493,6.167c-12.053,9.254-27,29.416-20.738,29.254c4.804,1.174,20.564-14.629,27.671-25.375
	c2.735-3.914,4.052-6.25,4.833-7.75c0.33,1.469,0.797,3.543,2.148,7.472C56.75,68.393,71.134,92.852,74.21,88.439z"/>
<path fill="#6658A6" d="M96.898,61.82c-1.338-5.161-25.978-12.633-34.653-13.563c-3.681-0.586-5.513-0.7-6.777-0.733
	c0.863-0.835,2.025-1.94,4.236-4.542C65.051,37.754,79.258,14,75.518,11.035c-4.371-1.918-18.715,21.756-20.83,28.927
	c-1.266,3.173-1.696,4.716-2.03,5.871c-0.621-1.103-1.58-2.669-3.822-5.647c-4.881-7.23-23.019-25.507-28.206-24.271
	c-5.122,1.645,14.033,22.58,22.585,27.868c3.355,2.447,5.202,3.504,6.508,4.25c-1.663,0.306-4.28,0.878-8.829,2.342
	C28.534,54.01,8.799,64.43,8.509,69.367c-1.996,5.938,21.667-2.426,34.057-11.225c4.575-3.009,6.933-5.002,8.392-6.307
	c-0.47,1.896-1.128,4.917-1.645,10.367c-1.978,15.066,1.71,39.892,6.022,35.349c4.228-2.567,4.197-24.884,1.626-37.509
	c-0.836-4.704-1.557-7.286-2.064-8.898c1.271,0.807,3.069,1.942,6.805,3.764C70.375,59.989,97.841,67.113,96.898,61.82z"/>
<circle display="none" fill="#262262" cx="53.382" cy="49.811" r="9.299"/>
</svg>
