<svg xmlns="http://www.w3.org/2000/svg" width="173" height="318" x="0" y="0" id="svgcontent" viewBox="0 0 173 318" overflow="hidden"><defs><path id="svg_10" d="M54.4375,304.96292Q93.88748,306.96292 133.36533,304.71292" stroke="#000000" fill="#000000"/><path id="svg_9" d="M77.83501,147.51692Q121.88501,149.51692 165.93929,147.26692" stroke="#000000" fill="#000000"/><path id="svg_8" d="M60.71927,83.08518Q115.71928,85.08518 170.7317,82.83518" stroke="#000000" fill="#000000"/><path id="svg_7" d="M32.01179,258.87158Q64.91179,260.87158 97.80238,258.62158" stroke="#000000" fill="#000000"/><path d="M58.61927,116.98518Q113.61927,118.98518 168.6317,116.73518" stroke="#000000" fill="#000000" id="svg_6"/><path fill="#000000" stroke="#000000" d="M-6038.24609,6316.8125A6187.94434,6187.94434 0 0 1 6337.64258,6316.8125A6187.94434,6187.94434 0 0 1 -6038.24609,6316.8125A6187.94434,6187.94434 0 0 1 6337.64258,6316.8125A6187.94434,6187.94434 0 0 1 -6038.24609,6316.8125" id="svg_5"/><path fill="#000000" stroke="#000000" d="M-6110.146,6246.6123A6187.94434,6187.94434 0 0 1 6265.74268,6246.6123A6187.94434,6187.94434 0 0 1 -6110.146,6246.6123A6187.94434,6187.94434 0 0 1 6265.74268,6246.6123A6187.94434,6187.94434 0 0 1 -6110.146,6246.6123" id="svg_4"/><path fill="#000000" stroke="#000000" d="M-6120.64648,6361.91211A6187.94434,6187.94434 0 0 1 6255.24219,6361.91211A6187.94434,6187.94434 0 0 1 -6120.64648,6361.91211A6187.94434,6187.94434 0 0 1 6255.24219,6361.91211A6187.94434,6187.94434 0 0 1 -6120.64648,6361.91211" id="svg_3"/><path fill="#000000" stroke="#000000" d="M-6087.44629,6272.3623A6187.94434,6187.94434 0 0 1 6288.44238,6272.3623A6187.94434,6187.94434 0 0 1 -6087.44629,6272.3623A6187.94434,6187.94434 0 0 1 6288.44238,6272.3623A6187.94434,6187.94434 0 0 1 -6087.44629,6272.3623" id="svg_2"/><path fill="#000000" stroke="#000000" d="M-6120.64648,6339.26221A6187.94434,6187.94434 0 0 1 6255.24219,6339.26221A6187.94434,6187.94434 0 0 1 -6120.64648,6339.26221A6187.94434,6187.94434 0 0 1 6255.24219,6339.26221A6187.94434,6187.94434 0 0 1 -6120.64648,6339.26221" id="svg_1"/></defs><g mask="" style="pointer-events:all"><title style="pointer-events:inherit">Layer 1</title><g id="svg_14" display="null" clip-id="315" stroke-opacity="1" stroke="null" transform=""><path fill="#D6DBDD" d="M 48.2801 88.229 C 73.9048 88.229 94.6822 109.006 94.6822 134.634 S 73.9048 181.04 48.2801 181.04 C 22.6494 181.04 1.87602 160.263 1.87602 134.636 C 1.875 109.006 22.6494 88.229 48.2801 88.229 Z" id="svg_15" stroke-width="0" stroke="null" transform=""/><path fill="#FFFFFF" d="M 69.6218 99.4018 C 75.8586 100.691 78.3816 101.191 81.2128 101.855 C 76.1299 96.7359 69.7972 92.7487 62.5361 90.4164 C 63.8574 92.2111 65.4081 94.424 68.4669 97.2256 C 68.879 97.6286 67.7914 98.959 67.5282 99.5211 L 62.5433 110.179 C 62.1668 110.981 61.4587 110.814 61.0363 110.852 C 54.5067 111.541 54.5067 111.541 47.7057 112.485 C 40.8517 113.668 40.8517 113.668 34.1354 115.052 C 33.6446 115.156 33.0723 115.587 32.4244 114.992 L 22.7667 106.166 C 22.3647 105.801 21.2261 104.668 21.4904 104.19 C 21.5281 104.121 21.5659 104.045 21.5965 103.969 C 24.0124 99.3232 23.8074 97.0103 24.1451 94.9351 C 16.7421 99.4334 10.5829 106.002 6.61305 114.067 C 10.589 111.368 13.3222 110.182 20.6742 106.423 C 21.1782 106.183 21.6587 106.103 22.1341 106.536 L 31.8796 115.435 C 32.5458 116.049 32.15 116.688 32.0622 117.112 C 30.7818 123.738 30.7818 123.738 29.6208 130.664 C 28.6587 137.679 28.6587 137.679 27.9037 144.559 C 27.8843 144.757 27.8843 144.934 27.9098 145.126 C 27.9669 145.615 27.7272 146.075 27.2844 146.301 L 14.7108 152.818 C 14.2639 153.046 13.7456 152.981 13.3773 152.639 C 13.3304 152.59 13.2824 152.553 13.2386 152.513 C 9.31264 148.821 5.95601 147.041 3.0279 145.185 C 5.32346 154.985 10.7655 163.831 18.5041 170.308 C 16.8054 164.809 15.6545 160 15.0689 154.998 C 15.0658 154.937 15.0597 154.886 15.0495 154.822 C 14.974 154.319 15.226 153.854 15.6658 153.609 L 27.719 146.856 C 28.122 146.638 28.5934 146.686 28.9647 146.962 C 29.0657 147.032 29.1729 147.111 29.2851 147.166 C 35.3944 150.418 35.3944 150.418 41.7179 153.565 C 48.0843 156.513 48.0843 156.513 54.2649 159.164 C 54.6741 159.334 55.4423 159.364 55.5647 160.275 C 56.0116 163.628 56.9135 170.329 57.3339 173.389 C 57.4114 173.96 57.1308 174.346 56.6646 174.623 C 49.33 178.582 48.1353 179.235 43.6523 180.853 C 53.4885 181.851 63.1044 179.644 71.2991 174.976 C 67.8435 175.082 66.2213 174.9 59.2642 174.1 C 59.1979 174.086 59.1173 174.075 59.0438 174.069 C 58.4959 174.008 58.0746 173.601 58.0031 173.06 C 57.5563 169.894 56.6789 163.262 56.2442 160.032 C 56.131 159.181 56.7697 158.953 57.1196 158.618 C 62.0454 153.875 62.0454 153.875 66.8957 148.889 C 71.5266 143.821 71.5266 143.821 75.7729 138.817 C 76.0443 138.498 76.3014 137.892 77.14 138.034 L 88.526 139.874 C 89.13 139.974 89.4065 140.401 89.5208 140.965 C 90.5267 147.958 90.7675 149.931 90.7338 153.523 C 91.8163 151.088 92.6968 148.534 93.363 145.873 C 94.4894 141.375 94.9067 136.863 94.7087 132.461 C 92.8856 133.999 91.0165 135.867 89.8452 138.443 C 89.5993 138.966 89.1433 139.262 88.5699 139.168 L 77.241 137.335 C 76.3411 137.189 76.335 136.442 76.134 135.995 C 73.3722 129.98 73.3722 129.98 70.2931 123.858 C 67.0028 117.856 67.067 118.033 63.6431 112.307 C 63.4044 111.911 62.831 111.483 63.2044 110.684 L 68.2301 100.014 C 68.4597 99.5364 68.9596 99.2722 69.4871 99.3538 C 69.5269 99.3967 69.5738 99.4018 69.6218 99.4018 Z" id="svg_16" stroke-width="0" stroke="null" transform=""/><path fill="#CDCECF" d="M 69.4881 97.6888 C 74.824 98.7917 76.9502 99.2324 79.1948 99.9497 L 79.1775 99.9374 C 78.9397 99.7201 78.6898 99.5028 78.4378 99.2957 L 78.3827 99.2457 C 78.1388 99.0406 77.8899 98.8304 77.646 98.6284 L 77.5399 98.5437 C 77.2706 98.3254 76.9941 98.1071 76.7166 97.8898 L 76.5156 97.7388 C 76.3003 97.5684 76.0626 97.4072 75.8494 97.2399 L 75.6035 97.0552 C 75.3964 96.9052 75.1832 96.7563 74.9822 96.6073 C 74.8567 96.5206 74.7292 96.4349 74.6118 96.3502 C 74.4424 96.2319 74.2731 96.1125 74.0915 95.9992 C 73.9425 95.9033 73.8079 95.8054 73.6609 95.7126 C 73.5048 95.6085 73.3416 95.5136 73.1886 95.4136 C 73.0151 95.2973 72.8356 95.1902 72.6529 95.077 C 72.5131 94.9872 72.3662 94.8974 72.2203 94.8096 C 72.0275 94.6954 71.8357 94.578 71.6367 94.4679 C 71.5103 94.3944 71.3848 94.3199 71.2593 94.2464 C 71.0522 94.1271 70.8318 94.0128 70.6236 93.8894 C 70.5155 93.8312 70.4104 93.769 70.291 93.7118 C 70.0391 93.5762 69.7983 93.4476 69.5473 93.3191 C 69.4677 93.2782 69.38 93.2354 69.3055 93.1956 C 69.0474 93.064 68.7821 92.9313 68.525 92.8079 L 68.3077 92.7038 C 68.0169 92.5681 67.7394 92.4396 67.4507 92.307 L 67.2497 92.2172 C 66.9406 92.0825 66.6437 91.9499 66.3427 91.8244 L 66.1896 91.7601 C 65.8764 91.6315 65.5693 91.505 65.251 91.3826 L 65.1316 91.3357 C 64.8021 91.2102 64.4797 91.0837 64.141 90.9653 L 64.0532 90.9327 C 63.7063 90.8062 63.3493 90.6807 62.9932 90.5684 L 62.9493 90.546 C 62.5882 90.4297 62.228 90.3144 61.874 90.2083 L 61.8097 90.192 C 61.4506 90.0828 61.0863 89.9746 60.7272 89.8757 L 60.6599 89.8563 C 60.2865 89.7522 59.912 89.6533 59.5223 89.5594 C 59.1509 89.4666 58.7847 89.3768 58.4041 89.2921 L 58.2949 89.2696 C 57.9756 89.2023 57.6593 89.1309 57.3379 89.0666 C 57.2257 89.0442 57.1186 89.0238 57.0053 89.0023 C 56.7544 88.9503 56.5034 88.9075 56.2483 88.8636 C 59.1632 90.8776 61.4587 92.7742 66.5875 97.4705 C 67.0028 97.8735 67.1987 98.3438 66.9344 98.9049 L 62.5321 108.581 C 62.1647 109.389 61.4485 109.217 61.0261 109.257 C 54.4976 109.947 54.4976 109.947 47.6894 110.894 C 40.8354 112.073 40.8354 112.073 34.1191 113.458 C 33.6283 113.568 33.056 113.989 32.404 113.395 L 23.3166 105.064 C 22.9136 104.696 22.8198 104.114 23.0799 103.64 C 23.1177 103.567 23.3564 103.218 23.3891 103.146 C 26.8018 96.5828 27.6915 95.0269 29.9513 91.9407 C 29.5136 92.1264 29.08 92.3202 28.6525 92.5233 L 28.626 92.5365 C 28.3587 92.661 28.0914 92.7865 27.8272 92.9191 L 27.7017 92.9803 C 27.4405 93.1129 27.1793 93.2415 26.9212 93.3802 L 26.8334 93.4292 C 26.4468 93.6292 26.0601 93.8343 25.6795 94.0444 L 25.6255 94.0771 C 25.3867 94.2128 25.151 94.3454 24.9143 94.4832 L 24.7103 94.5974 C 24.4838 94.7321 24.2604 94.8647 24.0339 95.0025 C 23.9573 95.0514 23.8757 95.0994 23.8002 95.1494 C 23.586 95.281 23.3686 95.4167 23.1524 95.5544 C 23.0075 95.6473 22.8626 95.7401 22.7188 95.838 C 22.5239 95.9666 22.3321 96.0951 22.1433 96.2217 C 22.0393 96.288 21.9393 96.3635 21.8383 96.4308 C 21.6465 96.5624 21.4547 96.693 21.272 96.8308 C 21.1527 96.9114 21.0394 96.9909 20.9262 97.0776 C 20.7629 97.198 20.5925 97.3205 20.4293 97.446 C 20.2722 97.5612 20.1151 97.6796 19.958 97.8 C 19.8263 97.902 19.6876 98.0061 19.556 98.1163 C 19.405 98.2326 19.2591 98.3479 19.1122 98.4652 C 18.9612 98.5917 18.8102 98.708 18.6622 98.8304 C 18.5174 98.9498 18.3725 99.0722 18.2286 99.1896 C 18.096 99.3018 17.9705 99.4099 17.8379 99.5232 C 17.6746 99.6681 17.5042 99.813 17.341 99.9629 C 17.24 100.048 17.1461 100.136 17.0482 100.221 C 16.8758 100.381 16.7023 100.539 16.5299 100.7 C 16.4197 100.804 16.3157 100.901 16.1963 101.008 C 16.03 101.172 15.8596 101.335 15.6933 101.498 C 15.5953 101.596 15.4954 101.699 15.4035 101.785 C 15.2281 101.965 15.0546 102.137 14.8812 102.314 C 14.8026 102.386 14.7241 102.474 14.6516 102.552 C 14.4721 102.738 14.2956 102.921 14.1231 103.112 C 14.0507 103.184 13.9782 103.27 13.9058 103.345 C 13.714 103.55 13.5222 103.767 13.3365 103.971 C 13.2702 104.054 13.1978 104.129 13.1314 104.207 C 12.956 104.415 12.7764 104.625 12.5968 104.834 L 12.4214 105.047 C 12.2418 105.252 12.0694 105.48 11.8929 105.701 C 11.8429 105.761 11.799 105.811 11.748 105.877 C 11.5531 106.129 11.3583 106.381 11.1664 106.632 L 11.0399 106.803 C 10.8542 107.048 10.6788 107.283 10.5023 107.538 L 10.3798 107.715 C 10.2043 107.954 10.0309 108.205 9.85745 108.46 L 9.75339 108.608 C 9.56465 108.887 9.38305 109.168 9.20041 109.451 L 9.13512 109.557 C 8.95556 109.837 8.77905 110.124 8.60663 110.407 L 8.51481 110.552 C 8.35462 110.829 8.19138 111.099 8.03019 111.37 L 7.94959 111.513 C 7.7792 111.818 7.6129 112.12 7.44251 112.419 L 7.41396 112.479 C 11.7368 109.394 12.7744 108.866 20.6548 104.839 C 21.1649 104.593 21.6424 104.511 22.1209 104.951 L 31.2899 113.602 C 31.95 114.228 31.5613 114.86 31.4756 115.281 C 30.1921 121.899 30.1921 122.221 29.0341 129.154 C 28.0679 136.176 28.0679 136.332 27.3099 143.21 C 27.2976 143.408 27.2976 143.585 27.317 143.775 C 27.3762 144.268 27.1375 144.725 26.6936 144.95 L 14.0231 152.267 C 13.5855 152.52 12.8091 152.186 12.4377 151.847 C 12.3969 151.801 12.3458 151.765 12.2989 151.727 C 6.82526 146.578 4.99187 144.919 2.34636 141.733 C 3.67064 150.299 7.38233 158.295 12.9407 164.809 L 13.0345 164.914 L 13.0345 164.92 C 13.9915 161.739 15.2301 158.208 14.4445 153.225 C 14.4384 153.162 14.4323 153.113 14.419 153.039 C 14.3496 152.539 14.8342 152.299 15.2872 152.074 L 27.9516 145.582 C 28.3607 145.377 28.826 145.405 29.1973 145.689 C 29.2984 145.763 29.4055 145.839 29.5177 145.897 C 35.627 149.149 35.3821 148.814 41.7107 151.972 C 48.0741 154.922 48.0741 154.922 54.2558 157.571 C 54.6639 157.745 55.4311 157.771 55.5525 158.681 C 56.0004 162.039 56.9053 168.735 57.3247 171.796 C 57.4063 172.37 57.1247 172.753 56.6564 173.029 C 48.7515 177.302 46.9059 178.574 41.4261 180.532 C 41.7567 180.586 41.9668 180.647 42.2974 180.691 L 42.4331 180.716 C 51.094 181.818 59.9273 180.424 67.8067 176.765 L 67.8424 176.751 C 68.1465 176.608 68.4485 176.454 68.7372 176.309 L 68.8015 176.285 C 69.0963 176.137 69.38 175.991 69.6728 175.838 L 69.7442 175.794 C 70.0268 175.645 70.3288 175.485 70.6155 175.326 L 70.6318 175.313 C 71.699 174.732 72.7295 174.104 73.7579 173.445 L 73.7579 173.436 C 69.9625 173.53 66.6069 173.278 59.6651 172.476 C 59.5917 172.466 59.51 172.455 59.4427 172.441 C 58.8969 172.383 58.4755 171.975 58.401 171.435 C 57.9633 168.282 56.99 161.571 56.5605 158.343 C 56.4483 157.492 57.0839 157.26 57.4369 156.927 C 62.3719 152.19 62.0393 152.271 66.8906 147.289 C 71.5144 142.212 71.5144 142.704 75.7606 137.706 C 76.032 137.38 76.2912 136.782 77.1247 136.914 L 88.5128 138.761 C 89.1229 138.858 89.4004 139.289 89.5085 139.852 C 90.6114 147.491 90.792 148.289 90.7104 152.605 C 91.801 150.161 92.6876 147.604 93.3528 144.923 C 94.2568 141.292 94.7118 137.663 94.7434 134.08 C 94.7434 133.807 94.7373 133.532 94.7291 133.262 C 94.722 133.152 94.722 133.038 94.7159 132.925 C 94.7087 132.655 94.6965 132.378 94.6842 132.107 C 94.6751 132.001 94.6689 131.9 94.6628 131.793 C 94.6465 131.516 94.6302 131.234 94.6016 130.95 L 94.5731 130.686 C 94.5516 130.397 94.5169 130.104 94.4976 129.812 L 94.4771 129.582 C 94.4465 129.274 94.4047 128.975 94.367 128.676 L 94.3414 128.468 C 94.3037 128.163 94.2568 127.858 94.2098 127.553 L 94.1843 127.358 C 94.1241 127.047 94.0782 126.748 94.0293 126.439 C 93.1998 129.425 92.4826 131.475 89.8401 137.364 C 89.5952 137.878 89.1382 138.176 88.5627 138.088 L 77.2349 136.25 C 76.336 136.105 76.3279 134.86 76.1269 134.426 C 73.3671 128.405 73.3671 128.405 70.288 122.286 C 66.9956 116.284 66.9956 116.284 63.5748 110.55 C 63.338 110.153 62.7636 109.732 63.1309 108.933 L 68.0934 98.3244 C 68.3179 97.8438 68.8209 97.5806 69.3432 97.6633 C 69.4045 97.6765 69.4483 97.6857 69.4881 97.6888 Z M 69.4881 98.6284 C 76.0381 99.9782 77.7562 100.339 80.7752 101.422 C 74.4333 95.2096 66.3202 90.8133 57.1063 89.0187 C 60.4293 91.2551 61.5985 92.3192 67.1793 97.4307 C 67.5945 97.8337 67.7833 98.3019 67.519 98.8621 L 62.529 109.523 C 62.1556 110.329 61.4414 110.161 61.02 110.2 C 54.4945 110.889 54.4945 110.889 47.6894 111.833 C 40.8354 113.016 40.8354 113.016 34.1191 114.399 C 33.6283 114.504 33.056 114.931 32.404 114.333 L 22.7504 105.513 C 22.3474 105.145 22.2474 104.566 22.5116 104.091 C 22.5494 104.026 22.5841 103.943 22.6188 103.878 C 26.2927 96.8022 26.8396 95.7554 29.53 92.1254 C 19.759 96.4379 11.5511 104.067 6.64468 113.97 C 11.6398 110.384 12.3255 110.023 20.6548 105.776 C 21.1578 105.54 21.6393 105.455 22.1148 105.896 L 31.8561 114.791 C 32.5264 115.395 32.1306 116.049 32.0418 116.471 C 30.7614 123.089 30.7614 123.089 29.6003 130.015 C 28.6342 137.033 28.6342 137.033 27.8822 143.907 C 27.8629 144.101 27.8629 144.288 27.8884 144.47 C 27.9445 144.964 27.7027 145.417 27.2619 145.65 L 14.6883 152.162 C 14.2415 152.39 13.7222 152.331 13.3539 151.982 C 13.3069 151.939 13.26 151.898 13.2131 151.865 C 6.42431 145.476 6.21005 145.272 2.11375 140.052 C 3.47272 151.628 9.17287 162.266 17.9185 169.818 C 15.9239 163.596 15.8739 163.28 14.4394 154.169 C 14.4333 154.105 14.4231 154.043 14.4149 153.98 C 14.3455 153.483 14.5843 153.004 15.0373 152.768 L 27.6986 146.203 C 28.1108 145.996 28.576 146.029 28.9474 146.308 C 29.0484 146.379 29.1555 146.457 29.2677 146.512 C 35.377 149.77 35.377 149.77 41.6995 152.912 C 48.0669 155.86 48.0669 155.86 54.2476 158.514 C 54.6557 158.679 55.4209 158.713 55.5464 159.624 C 55.9933 162.974 56.8901 169.678 57.3155 172.736 C 57.393 173.307 57.1104 173.694 56.6452 173.969 C 48.6138 178.314 47.9414 178.672 42.2566 180.689 C 53.0396 182.109 63.637 179.661 72.455 174.281 C 68.1046 174.469 66.9446 174.34 59.2336 173.438 C 59.1693 173.426 59.0867 173.417 59.0173 173.413 C 58.4776 173.351 58.048 172.944 57.9766 172.404 C 57.5348 169.242 56.6513 162.615 56.2136 159.386 C 56.1055 158.53 56.7431 158.302 57.091 157.976 C 62.0189 153.233 62.0189 153.233 66.8712 148.25 C 71.4939 143.172 71.4939 143.172 75.7422 138.172 C 76.0096 137.85 76.2708 137.247 77.1074 137.386 L 88.4913 139.234 C 89.1055 139.328 89.38 139.757 89.4891 140.323 C 90.593 147.967 90.7685 149.25 90.691 153.559 C 91.7775 151.123 92.6672 148.562 93.3406 145.883 C 94.925 139.507 95.1199 133.106 94.1017 127.016 C 93.2314 130.211 92.5672 131.697 89.8238 137.811 C 89.581 138.334 89.1218 138.628 88.5464 138.537 L 77.2175 136.708 C 76.3289 136.56 76.3156 135.808 76.1177 135.369 C 73.36 129.348 73.36 129.348 70.2747 123.224 C 66.9865 117.221 66.9865 117.221 63.5686 111.487 C 63.3248 111.091 62.7504 110.668 63.1217 109.871 L 68.0853 99.263 C 68.3128 98.7815 68.8086 98.5182 69.3391 98.6029 C 69.4045 98.6152 69.4483 98.6223 69.4881 98.6284 Z" id="svg_17" stroke-width="0" stroke="null" transform=""/><path d="M 63.2697 112.136 C 66.5988 117.706 66.5988 117.706 69.7983 123.542 C 72.7825 129.487 72.7825 129.487 75.4739 135.341 C 75.8688 136.259 75.728 137.332 75.1128 138.087 C 70.9797 142.954 70.9797 142.954 66.4886 147.882 C 61.773 152.73 61.773 152.73 56.9757 157.342 C 56.2085 158.048 55.1383 158.252 54.2068 157.873 C 48.1924 155.287 48.1924 155.287 42.0056 152.438 C 35.8494 149.367 35.8494 149.367 29.9105 146.199 C 29.0015 145.708 28.473 144.694 28.5638 143.647 C 29.2994 136.96 29.2994 136.96 30.2411 130.149 C 31.3705 123.402 31.3705 123.402 32.6162 116.982 C 32.8366 115.975 33.6161 115.198 34.6384 114.975 C 41.1659 113.628 41.1659 113.628 47.8343 112.48 C 54.4445 111.559 54.4445 111.559 60.7976 110.892 C 61.7658 110.787 62.7443 111.287 63.2697 112.136 Z M 69.4279 98.1836 C 75.88 99.516 76.9737 99.7415 80.3671 101.026 C 74.723 95.633 67.6608 91.5856 59.5427 89.5574 C 58.901 89.3972 58.2653 89.2554 57.6134 89.1227 C 61.3322 91.5734 62.0117 92.1968 67.4099 97.1338 C 67.9271 97.6826 68.7464 98.1122 69.4279 98.1836 Z M 22.0423 103.749 C 25.5877 96.9328 25.8009 96.5145 28.8688 92.4263 C 19.5917 96.7012 11.7776 103.989 6.9528 113.375 C 12.3918 109.461 12.4581 109.418 20.3242 105.401 C 21.07 105.087 21.7373 104.441 22.0423 103.749 Z M 90.086 140.312 C 91.0481 147.452 91.1777 148.419 91.0919 152.677 C 92.0051 150.514 92.7713 148.248 93.3498 145.902 C 94.9016 139.693 95.125 133.467 94.2007 127.518 C 93.3498 131.009 92.9151 132.057 90.3747 138.056 C 90.0421 138.7 89.937 139.569 90.086 140.312 Z M 12.9672 152.111 C 6.51205 146.044 6.51205 146.044 2.36575 140.761 C 2.30249 140.667 2.24026 140.591 2.18721 140.557 C 3.63085 151.771 9.15144 162.095 17.5665 169.514 C 17.5593 169.445 17.5348 169.382 17.5002 169.296 C 15.4617 162.941 15.4617 162.941 14.0905 154.241 C 14.0303 153.457 13.5712 152.597 12.9672 152.111 Z M 56.737 174.365 C 49.0667 178.51 48.9362 178.586 42.7412 180.763 C 53.1722 182.034 63.3921 179.68 71.9796 174.583 C 67.0987 174.817 66.5508 174.755 59.0509 173.89 C 58.299 173.76 57.39 173.945 56.737 174.365 Z" id="svg_18" stroke="null" transform=""/><path fill="#D3D3D3" d="M 74.5241 134.757 L 74.7822 135.317 C 75.1658 136.2 75.0271 137.245 74.4333 137.98 C 70.4237 142.694 70.4237 142.694 66.0621 147.481 C 61.4832 152.186 61.4832 152.186 56.8299 156.659 C 56.0861 157.343 55.0485 157.534 54.1415 157.173 C 48.3026 154.666 48.3026 154.666 42.3025 151.885 C 36.332 148.907 36.332 148.907 30.5625 145.845 C 30.2605 145.665 30.0023 145.446 29.7973 145.188 C 35.3556 148.143 35.4597 148.197 41.421 151.16 C 47.518 153.98 47.518 153.98 53.4406 156.525 C 54.3588 156.893 55.4148 156.701 56.1687 156 C 60.8935 151.466 60.8935 151.466 65.5408 146.69 C 69.9646 141.816 69.9646 141.816 74.0374 137.042 C 74.5516 136.421 74.723 135.555 74.5241 134.757 Z" id="svg_19" stroke-width="0" stroke="null" transform=""/></g><g stroke-width="2" display="null" shapeVal="0" shapeId="0" lineHeight="1" font-style="normal" font-weight="normal" text-anchor="start" stroke="ffffff" fill="0" font-family="Pacifico" font-size="27.29913" text="Brad's" type="text" id="svg_37" transform="matrix(0.829746, 0, 0, 0.829746, 1.82975, 0)" style="pointer-events:inherit"><path d="M130.22595,164.61047C128.57312,160.0276 117.3789,160.7789 114.52402,163.70892C113.62247,165.13635 113.02144,166.33844 111.8945,166.86433C111.51886,166.86433 111.29347,166.41354 111.29347,165.51199C111.44372,155.3696 129.32442,157.47321 133.08086,162.88251C134.88396,167.23997 130.52647,170.32027 125.79334,170.17001C129.09901,170.24513 130.97723,172.12337 131.05237,175.42903C131.12749,183.24245 120.83483,183.69321 114.82451,180.83832C114.14835,175.12852 115.0499,167.69075 117.67941,164.00943C118.9566,163.03276 120.23379,163.03276 120.98509,164.46021C118.73121,167.76588 118.05505,173.62595 118.50583,178.9601C122.11202,180.83832 128.12233,179.63625 128.12233,174.828C128.12233,170.54565 121.13535,173.17517 121.43585,169.04308C121.51098,167.99127 123.46434,168.51717 124.6664,168.51717C127.67156,168.51717 129.92543,167.31509 130.22594,164.61047C130.22594,164.61047 130.22594,164.61047 130.22594,164.61047M141.19476,168.21666C144.50044,168.21666 140.06783,173.92645 142.99786,174.52748C144.50044,174.37723 145.70251,173.62593 146.60406,172.79951C146.97971,175.87981 145.47713,177.38239 142.62222,177.4575C139.99272,177.53262 139.61707,175.12852 139.24142,172.94977C139.24142,172.94977 139.01604,172.94977 139.01604,172.94977C139.01604,172.94977 136.01086,180.91342 136.01086,180.91342C133.98241,182.19061 133.00571,179.71136 133.53162,177.15698C134.20778,174.15182 133.98241,169.94461 135.93575,168.21664C138.49013,167.54048 136.8373,171.07153 137.43832,172.34872C138.33987,170.84616 138.86577,168.21664 141.19476,168.21664C141.19476,168.21664 141.19476,168.21664 141.19476,168.21664M154.34235,178.35904C156.14543,177.83315 156.97185,176.48082 158.02367,175.12851C158.02367,175.12851 158.62469,178.05853 158.62469,178.05853C157.57288,179.48598 156.14543,181.3642 153.89157,181.3642C152.46411,181.3642 152.01335,180.31239 151.41231,179.18546C150.43564,180.16212 149.23357,181.28906 147.28023,181.28906C145.10149,181.28906 144.1248,179.71136 143.97455,177.60776C144.57558,172.79948 146.75432,168.3669 151.78795,168.29176C152.01335,169.71922 154.71799,168.44203 154.71799,170.39539C154.71799,172.72437 153.81644,174.75285 153.74132,177.00671C153.74132,177.758 153.74132,178.28391 154.34235,178.35902C154.34235,178.35902 154.34235,178.35902 154.34235,178.35902M151.6377,170.69588C148.78281,171.37204 147.35535,174.3772 147.4305,177.68286C147.50562,178.28391 147.731,178.73468 148.40717,178.73468C151.18694,177.83313 150.66104,173.40053 151.63771,170.69588C151.63771,170.69588 151.63771,170.69588 151.63771,170.69588M159.82677,177.00671C159.67651,179.41083 162.45628,178.35902 162.98218,177.15697C163.95886,175.80464 163.35783,172.94975 163.43295,170.62076C161.25423,171.59743 160.05215,174.22694 159.82677,177.00671C159.82677,177.00671 159.82677,177.00671 159.82677,177.00671M167.56505,173.85129C166.96402,175.35387 166.81375,179.18544 169.29301,177.68286C170.34482,177.00671 171.17123,176.40567 172.1479,175.65439C172.1479,175.65439 172.52357,178.73468 172.52357,178.73468C171.021,179.78648 169.59354,180.91341 167.48991,181.28906C165.98734,181.06367 165.08578,180.23726 164.55991,178.96007C163.43295,180.01187 162.00552,181.28906 159.97704,181.28906C157.57291,181.28906 156.59624,179.26057 156.59624,176.93158C156.59624,172.5741 159.1506,169.34357 163.35783,168.6674C163.65836,163.33325 165.01067,158.75038 168.16608,156.42139C170.64534,154.61829 172.44843,157.47318 172.07278,160.77885C171.54688,165.73737 169.14278,170.24509 167.56505,173.85127C167.56505,173.85127 167.56505,173.85127 167.56505,173.85127M166.58836,171.37202C167.79044,167.84097 170.64536,162.88248 169.2179,158.97575C166.58836,161.22961 166.8889,166.63892 166.58836,171.37202C166.58836,171.37202 166.58836,171.37202 166.58836,171.37202M174.77744,164.38506C174.40179,166.41351 171.77226,165.81248 172.22305,163.70889C172.82408,161.07938 171.62202,156.57164 174.85257,156.79703C178.45876,157.09753 175.22821,162.20631 174.77744,164.38506C174.77744,164.38506 174.77744,164.38506 174.77744,164.38506M179.8862,178.80978C177.18156,179.26057 178.3085,176.93156 179.43542,176.18027C182.66597,174.07666 183.49239,170.39536 186.64781,168.29173C190.62964,167.6907 188.37578,170.92126 187.32397,171.97305C187.54935,174.00156 188.30064,175.42899 187.925,177.90823C189.27731,176.93156 191.23067,176.4808 192.50787,175.35387C192.50787,175.35387 192.58299,178.35902 192.58299,178.35902C190.254,179.8616 187.32397,181.43932 183.71777,181.43932C181.61417,181.43932 180.11159,180.76315 179.8862,178.80978C179.8862,178.80978 179.8862,178.80978 179.8862,178.80978M183.267,179.18542C185.67113,179.26056 184.99496,175.9549 184.76958,174.07668C184.76958,174.07668 181.08829,177.90823 181.08829,177.90823C181.83955,178.20876 182.21519,179.18542 183.26701,179.18542C183.26701,179.18542 183.26701,179.18542 183.26701,179.18542" stroke-width="2" stroke="#ffffff" fill="#000000" id="svg_38" style="pointer-events:inherit"/></g><g id="svg_35" stroke-width="2" display="null" shapeVal="0" shapeId="0" lineHeight="1" font-style="normal" font-weight="normal" text-anchor="start" stroke="aaffff" fill="0000bf" font-family="Pacifico" font-size="44.01508" text="I survived" type="text" transform="matrix(0.829746, 0, 0, 0.829746, 1.82975, 0)" style="pointer-events:inherit"><path id="svg_36" stroke-width="2" d="M12.48846,94.77631C13.46656,93.30918 16.64538,93.06464 18.8461,92.69785C18.8461,92.69785 26.3041,64.33302 26.3041,64.33302C23.85885,64.6998 21.29134,65.18884 19.82419,66.16695C19.82419,66.16695 19.57967,63.35491 19.57967,63.35491C21.29134,59.56479 26.54862,59.07575 32.05042,59.07575C34.9847,59.07575 38.04127,58.83122 38.04127,61.52099C38.04127,64.21076 34.9847,63.84396 32.17268,63.96623C32.17268,63.96623 25.08147,92.82011 25.08147,92.82011C28.01576,92.82011 33.02851,94.77632 28.99386,96.97705C28.99386,96.97705 11.02131,96.85477 11.02131,96.85477C11.63262,96.24346 12.48846,95.87669 12.48846,94.77632C12.48846,94.77632 12.48846,94.77632 12.48846,94.77632M46.11058,92.20882C41.70914,92.94239 43.54307,89.15227 45.377,87.92966C50.63428,84.5063 51.97916,78.51546 57.11419,75.09212C63.59408,74.114 59.92621,79.37128 58.21453,81.08296C58.58132,84.38403 59.80395,86.70701 59.19263,90.74166C61.39336,89.15227 64.57218,88.41868 66.65063,86.58477C66.65063,86.58477 66.7729,91.47523 66.7729,91.47523C62.98276,93.92047 58.21454,96.48799 52.34594,96.48799C48.92261,96.48799 46.47736,95.38761 46.11058,92.20881C46.11058,92.20881 46.11058,92.20881 46.11058,92.20881M51.61238,92.82011C55.52476,92.94239 54.42441,87.56285 54.05762,84.5063C54.05762,84.5063 48.06678,90.74166 48.06678,90.74166C49.28939,91.2307 49.90071,92.82011 51.61239,92.82011C51.61239,92.82011 51.61239,92.82011 51.61239,92.82011M75.82031,76.07019C76.30937,74.4808 80.83307,74.23627 80.83307,76.19246C80.83307,80.96069 78.87688,84.99535 78.75461,89.76358C78.75461,90.74166 79.12139,91.47523 79.97723,91.47523C83.27831,90.74166 85.96808,88.78546 87.80202,86.46249C87.80202,86.46249 87.92428,91.23069 87.92428,91.23069C85.35677,93.43143 82.17794,95.75442 77.77651,95.99895C75.20901,96.12119 74.71996,93.67595 74.10864,91.59749C72.39699,95.38761 63.71635,99.3 63.71635,91.47522C63.71635,86.46248 64.69445,85.85117 65.30577,80.71614C65.67255,77.6596 67.01742,73.99171 70.80756,75.0921C72.15244,79.12675 68.7291,85.48437 69.09588,90.13034C70.56304,92.8201 73.00828,90.00807 73.49733,87.80737C73.49733,87.80737 75.82031,76.07017 75.82031,76.07017M97.82752,74.96983C103.20706,74.96983 95.99358,84.26175 100.76181,85.23986C103.20706,84.99532 105.16325,83.77271 106.63039,82.42782C107.2417,87.44056 104.79647,89.8858 100.15049,90.00807C95.87132,90.13034 95.26,86.21795 94.64868,82.67234C94.64868,82.67234 94.2819,82.67234 94.2819,82.67234C94.2819,82.67234 89.39141,95.63214 89.39141,95.63214C86.09033,97.7106 84.50093,93.67595 85.35676,89.51903C86.45712,84.62853 86.09033,77.78187 89.26915,74.96984C93.42606,73.86946 90.73631,79.6158 91.71439,81.69426C93.18155,79.249 94.03739,74.96984 97.82752,74.96984C97.82752,74.96984 97.82752,74.96984 97.82752,74.96984M107.36397,96.48799C101.37313,95.26535 103.57383,84.38402 103.57383,76.80376C103.57383,74.7253 109.07564,73.99172 109.07564,76.43698C109.07564,80.96068 107.97528,86.58475 108.46434,90.61941C110.78731,85.60665 112.49898,79.86033 115.18874,75.21434C116.53365,74.23625 119.83472,74.7253 119.59021,76.55922C119.22342,80.2271 116.6559,82.1833 116.6559,85.48438C116.6559,90.00808 122.64676,87.80738 124.48068,86.09569C124.48068,86.09569 124.48068,91.10845 124.48068,91.10845C121.42412,93.67595 113.96612,94.28727 113.72162,88.90772C112.13219,91.71976 110.66506,95.50989 107.36397,96.48799C107.36397,96.48799 107.36397,96.48799 107.36397,96.48799M127.0482,90.00808C126.80366,93.67596 130.47154,91.47523 131.81639,90.25261C131.81639,90.25261 135.23975,87.31831 135.23975,87.31831C135.23975,87.31831 135.23975,91.71977 135.23975,91.71977C132.91678,93.79823 129.61571,95.75442 125.58104,96.24347C119.71245,96.97705 121.79091,87.68512 122.64676,84.87308C124.11389,82.30558 123.50259,74.114 128.6376,75.09212C129.73796,74.96985 130.22699,75.45889 130.22699,76.31473C129.49342,80.71616 127.29271,84.99535 127.0482,90.00809C127.0482,90.00809 127.0482,90.00809 127.0482,90.00809M133.52809,68.61221C133.52809,72.15782 129.00439,73.38044 126.55914,71.54651C124.60295,69.10127 126.3146,65.55566 129.86023,65.55566C132.06094,65.55566 133.52809,66.41151 133.52809,68.61221C133.52809,68.61221 133.52809,68.61221 133.52809,68.61221M137.31822,96.488C131.32736,95.26536 133.52809,84.38404 133.52809,76.80377C133.52809,74.72531 139.02989,73.99173 139.02989,76.43699C139.02989,80.96069 137.92953,86.58476 138.41859,90.61942C140.74158,85.60666 142.45325,79.86034 145.14301,75.21435C146.48785,74.23626 149.78897,74.72531 149.54443,76.55923C149.17763,80.22711 146.61014,82.18331 146.61014,85.48439C146.61014,90.00809 152.60098,87.80739 154.43491,86.0957C154.43491,86.0957 154.43491,91.10846 154.43491,91.10846C151.37836,93.67596 143.92036,94.28728 143.67586,88.90773C142.08643,91.71977 140.61929,95.5099 137.31821,96.488C137.31821,96.488 137.31821,96.488 137.31821,96.488M158.9586,91.5975C163.84914,92.08654 167.15021,88.6632 169.83997,86.46249C169.83997,86.46249 172.65199,89.39677 172.65199,89.39677C169.22864,92.69786 165.68304,96.24346 159.44768,96.24346C154.06815,96.24346 151.37836,92.69785 151.37836,87.3183C151.37836,81.20522 153.94585,74.96984 160.548,74.96984C163.97137,74.96984 166.17209,76.80376 166.17209,80.34937C166.17209,85.48438 161.64838,88.41868 157.12469,89.76357C157.61374,90.61941 157.98053,91.35296 158.9586,91.59749C158.9586,91.59749 158.9586,91.59749 158.9586,91.59749M161.03709,79.12676C157.61375,79.12676 156.88017,82.67235 156.63564,86.09569C159.44768,85.85118 161.64839,83.77273 162.2597,81.32746C162.2597,80.22711 161.89291,79.12676 161.03709,79.12676C161.03709,79.12676 161.03709,79.12676 161.03709,79.12676M171.91841,89.27453C171.67392,93.18691 176.19762,91.47523 177.05344,89.51904C178.64284,87.31831 177.66475,82.67235 177.78703,78.88223C174.24142,80.47165 172.28522,84.75081 171.91843,89.27453C171.91843,89.27453 171.91843,89.27453 171.91843,89.27453M184.51144,84.1395C183.53337,86.58477 183.28883,92.82011 187.32349,90.37489C189.03516,89.27453 190.38004,88.29643 191.96947,87.0738C191.96947,87.0738 192.58076,92.08654 192.58076,92.08654C190.13551,93.79823 187.81252,95.63215 184.38919,96.24346C181.94397,95.87668 180.47681,94.53181 179.62096,92.45334C177.78705,94.165 175.46405,96.24346 172.16298,96.24346C168.25058,96.24346 166.66118,92.94238 166.66118,89.15226C166.66118,82.06104 170.81807,76.80376 177.66476,75.70342C178.15381,67.0228 180.35452,59.5648 185.48955,55.77468C189.5242,52.84037 192.45851,57.48634 191.84718,62.86588C190.99136,70.93519 187.07896,78.27092 184.51144,84.1395C184.51144,84.1395 184.51144,84.1395 184.51144,84.1395M182.92206,80.10485C184.87825,74.35853 189.5242,66.28923 187.20123,59.93159C182.92206,63.59947 183.4111,72.40235 182.92206,80.10485C182.92206,80.10485 182.92206,80.10485 182.92206,80.10485" stroke="#aaffff" fill="#0000bf" style="pointer-events:inherit"/></g><g id="svg_33" stroke-width="2" display="null" shapeVal="0" shapeId="0" lineHeight="1" font-style="normal" font-weight="normal" text-anchor="start" stroke="aaffff" fill="ff00ff" font-family="Pacifico" font-size="44.01508" text="coach" type="text" transform="matrix(0.829746, 0, 0, 0.829746, 1.82975, 0)" style="pointer-events:inherit"><path id="svg_34" d="M115.67785,136.99852C112.86578,140.78871 110.17597,145.19022 104.18502,145.19022C98.92767,145.19022 96.11559,141.52229 96.11559,136.26494C96.11559,130.02946 98.8054,123.79401 105.2854,123.79401C108.58653,123.79401 110.90955,125.5057 110.90955,128.80684C110.90955,131.00758 109.93144,133.45287 107.73069,133.45287C105.16314,133.45287 106.26352,131.25212 106.50805,129.17363C106.50805,128.5623 106.50805,127.82872 105.89673,127.95097C102.22881,128.31778 101.86202,132.597 101.61749,136.26492C101.49522,138.83247 102.47334,141.03323 105.04088,141.03323C109.19786,141.03323 111.88767,137.12077 114.21069,134.55322C114.21069,134.55322 115.67786,136.9985 115.67786,136.9985M112.25447,135.77588C111.15409,123.54945 126.68163,120.9819 132.67258,129.05135C133.89522,130.76305 134.01747,130.64078 135.11786,132.10794C135.11786,132.10794 134.75107,135.16455 134.75107,135.16455C132.30579,132.96379 129.98276,129.54039 126.8039,128.56229C129.98276,135.16455 126.92617,145.1902 119.34579,145.1902C114.2107,145.1902 112.74353,140.7887 112.25447,135.77588C112.25447,135.77588 112.25447,135.77588 112.25447,135.77588M121.42428,128.1955C117.51183,129.05135 116.28919,135.40907 117.75636,139.81058C122.0356,143.47852 123.86956,137.12077 123.99183,132.84152C123.99183,130.51851 123.62504,128.31775 121.42429,128.19548C121.42429,128.19548 121.42429,128.19548 121.42429,128.19548M147.58879,140.42189C150.52313,139.56604 151.86804,137.36528 153.57974,135.16455C153.57974,135.16455 154.55786,139.93285 154.55786,139.93285C152.84616,142.25586 150.52315,145.31247 146.85522,145.31247C144.53221,145.31247 143.7986,143.60077 142.82051,141.76682C141.23108,143.35625 139.27484,145.1902 136.09598,145.1902C132.55032,145.1902 130.96089,142.62265 130.71637,139.19926C131.69447,131.37436 135.24013,124.16079 143.43182,124.03851C143.7986,126.36153 148.20013,124.28304 148.20013,127.46191C148.20013,131.25211 146.73294,134.55322 146.61067,138.22116C146.61067,139.4438 146.61067,140.29965 147.58879,140.42191C147.58879,140.42191 147.58879,140.42191 147.58879,140.42191M143.1873,127.95096C138.54126,129.05135 136.21825,133.94191 136.34052,139.32153C136.46277,140.29962 136.82956,141.03323 137.92993,141.03323C142.4537,139.56604 141.59787,132.35246 143.18729,127.95094C143.18729,127.95094 143.18729,127.95094 143.18729,127.95094M171.06349,136.99849C168.25143,140.78868 165.56161,145.1902 159.57068,145.1902C154.31334,145.1902 151.50125,141.52228 151.50125,136.26492C151.50125,130.02945 154.19107,123.79398 160.67107,123.79398C163.9722,123.79398 166.29523,125.50568 166.29523,128.80682C166.29523,131.00755 165.31711,133.45285 163.11635,133.45285C160.5488,133.45285 161.64917,131.25211 161.89371,129.1736C161.89371,128.56227 161.89371,127.8287 161.28238,127.95094C157.61447,128.31775 157.24768,132.59698 157.00314,136.26491C156.88089,138.83246 157.85898,141.03322 160.42654,141.03322C164.58353,141.03322 167.27333,137.12076 169.59634,134.55321C169.59634,134.55321 171.06349,136.99849 171.06349,136.99849M177.05444,105.20982C179.98878,102.76455 185.36839,103.49812 184.87936,108.63322C183.90125,118.16982 179.13295,124.6498 176.07635,131.49661C176.07635,131.49661 176.44315,131.8634 176.44315,131.8634C178.88841,128.68454 182.18954,124.16076 186.59106,122.93812C187.81369,123.06038 188.425,123.91623 188.425,125.3834C188.425,130.39621 184.51256,132.96376 184.51256,137.97659C184.63481,138.83244 184.87935,139.68829 185.49066,139.93282C188.79179,139.3215 190.25896,136.99847 192.21519,134.91998C192.21519,134.91998 192.58199,140.66641 192.58199,140.66641C190.25894,142.37811 187.69142,145.19017 183.77898,145.19017C177.17671,145.19017 179.01067,134.30867 181.82272,130.76303C177.05443,133.08603 174.85367,140.54414 171.79707,144.94566C168.00688,146.29057 168.86273,140.54414 168.86273,136.6317C168.86273,124.28303 170.08537,111.20077 177.05444,105.20982C177.05444,105.20982 177.05444,105.20982 177.05444,105.20982M173.50877,129.90718C175.95406,123.42718 179.98878,117.31396 180.72237,109.61133C180.72237,108.51095 180.60008,108.0219 180.35558,108.0219C175.70953,111.81207 174.36462,121.83774 173.50877,129.90718C173.50877,129.90718 173.50877,129.90718 173.50877,129.90718" stroke-width="2" stroke="#aaffff" fill="#ff00ff" style="pointer-events:inherit"/></g><g stroke-width="2" display="null" shapeVal="0" shapeId="0" lineHeight="1" font-style="normal" font-weight="normal" text-anchor="start" stroke="ffffff" fill="ff00ff" font-family="SF Collegiate" font-size="64.00228" text="boot" type="text" id="svg_31" transform="matrix(0.829746, 0, 0, 0.829746, 1.82975, 0)" style="pointer-events:inherit"><path stroke-width="2" d="M62.05166,260.02905C62.05166,260.02905 53.84747,268.23325 53.84747,268.23325C53.84747,268.23325 31.91016,268.23325 31.91016,268.23325C31.91016,268.23325 31.91016,221.32664 31.91016,221.32664C31.91016,221.32664 53.84747,221.32664 53.84747,221.32664C53.84747,221.32664 61.51661,228.99577 61.51661,228.99577C61.51661,228.99577 61.51661,242.01546 61.51661,242.01546C61.51661,242.01546 58.66298,244.86913 58.66298,244.86913C58.66298,244.86913 62.05167,248.07944 62.05167,248.07944C62.05167,248.07944 62.05167,260.02905 62.05167,260.02905C62.05167,260.02905 62.05167,260.02905 62.05167,260.02905M60.8032,259.49399C60.8032,259.49399 60.8032,248.6145 60.8032,248.6145C60.8032,248.6145 56.87946,244.86914 56.87946,244.86914C56.87946,244.86914 60.08979,241.48044 60.08979,241.48044C60.08979,241.48044 60.08979,229.53085 60.08979,229.53085C60.08979,229.53085 53.13406,222.5751 53.13406,222.5751C53.13406,222.5751 33.15863,222.5751 33.15863,222.5751C33.15863,222.5751 33.15863,266.9848 33.15863,266.9848C33.15863,266.9848 53.13406,266.9848 53.13406,266.9848C53.13406,266.9848 60.8032,259.49402 60.8032,259.49402M58.84133,258.60226C58.84133,258.60226 52.42065,265.02292 52.42065,265.02292C52.42065,265.02292 35.1205,265.02292 35.1205,265.02292C35.1205,265.02292 35.1205,224.537 35.1205,224.537C35.1205,224.537 52.42065,224.537 52.42065,224.537C52.42065,224.537 58.30627,230.42262 58.30627,230.42262C58.30627,230.42262 58.30627,240.76704 58.30627,240.76704C58.30627,240.76704 54.20417,244.86916 54.20417,244.86916C54.20417,244.86916 58.84132,249.5063 58.84132,249.5063C58.84132,249.5063 58.84132,258.60226 58.84132,258.60226C58.84132,258.60226 58.84132,258.60226 58.84132,258.60226M49.56701,240.41032C49.56701,240.41032 49.56701,233.27626 49.56701,233.27626C49.56701,233.27626 43.85974,233.27626 43.85974,233.27626C43.85974,233.27626 43.85974,240.41032 43.85974,240.41032C43.85974,240.41032 49.56701,240.41032 49.56701,240.41032C49.56701,240.41032 49.56701,240.41032 49.56701,240.41032M49.56701,256.28366C49.56701,256.28366 49.56701,249.14958 49.56701,249.14958C49.56701,249.14958 43.85974,249.14958 43.85974,249.14958C43.85974,249.14958 43.85974,256.28366 43.85974,256.28366C43.85974,256.28366 49.56701,256.28366 49.56701,256.28366C49.56701,256.28366 49.56701,256.28366 49.56701,256.28366M97.90041,260.56412C97.90041,260.56412 90.23127,268.23325 90.23127,268.23325C90.23127,268.23325 75.9631,268.23325 75.9631,268.23325C75.9631,268.23325 68.29396,260.56412 68.29396,260.56412C68.29396,260.56412 68.29396,228.9958 68.29396,228.9958C68.29396,228.9958 75.9631,221.32668 75.9631,221.32668C75.9631,221.32668 90.23127,221.32668 90.23127,221.32668C90.23127,221.32668 97.90041,228.9958 97.90041,228.9958C97.90041,228.9958 97.90041,260.56412 97.90041,260.56412C97.90041,260.56412 97.90041,260.56412 97.90041,260.56412M96.4736,260.02908C96.4736,260.02908 96.4736,229.53087 96.4736,229.53087C96.4736,229.53087 89.51787,222.57512 89.51787,222.57512C89.51787,222.57512 76.49817,222.57512 76.49817,222.57512C76.49817,222.57512 69.54244,229.53087 69.54244,229.53087C69.54244,229.53087 69.54244,260.02908 69.54244,260.02908C69.54244,260.02908 76.49817,266.9848 76.49817,266.9848C76.49817,266.9848 89.51787,266.9848 89.51787,266.9848C89.51787,266.9848 96.4736,260.02908 96.4736,260.02908M94.69008,259.31564C94.69008,259.31564 88.80446,265.02292 88.80446,265.02292C88.80446,265.02292 77.21158,265.02292 77.21158,265.02292C77.21158,265.02292 71.50431,259.31564 71.50431,259.31564C71.50431,259.31564 71.50431,230.42262 71.50431,230.42262C71.50431,230.42262 77.21158,224.537 77.21158,224.537C77.21158,224.537 88.80446,224.537 88.80446,224.537C88.80446,224.537 94.69008,230.42262 94.69008,230.42262C94.69008,230.42262 94.69008,259.31564 94.69008,259.31564C94.69008,259.31564 94.69008,259.31564 94.69008,259.31564M85.95083,256.28369C85.95083,256.28369 85.95083,233.27626 85.95083,233.27626C85.95083,233.27626 80.24356,233.27626 80.24356,233.27626C80.24356,233.27626 80.24356,256.28369 80.24356,256.28369C80.24356,256.28369 85.95083,256.28369 85.95083,256.28369C85.95083,256.28369 85.95083,256.28369 85.95083,256.28369M133.74919,260.56415C133.74919,260.56415 126.08005,268.23328 126.08005,268.23328C126.08005,268.23328 111.81189,268.23328 111.81189,268.23328C111.81189,268.23328 104.14275,260.56415 104.14275,260.56415C104.14275,260.56415 104.14275,228.9958 104.14275,228.9958C104.14275,228.9958 111.81189,221.32668 111.81189,221.32668C111.81189,221.32668 126.08005,221.32668 126.08005,221.32668C126.08005,221.32668 133.74919,228.9958 133.74919,228.9958C133.74919,228.9958 133.74919,260.56415 133.74919,260.56415C133.74919,260.56415 133.74919,260.56415 133.74919,260.56415M132.32237,260.02908C132.32237,260.02908 132.32237,229.53088 132.32237,229.53088C132.32237,229.53088 125.36664,222.57513 125.36664,222.57513C125.36664,222.57513 112.34694,222.57513 112.34694,222.57513C112.34694,222.57513 105.39121,229.53088 105.39121,229.53088C105.39121,229.53088 105.39121,260.02908 105.39121,260.02908C105.39121,260.02908 112.34694,266.9848 112.34694,266.9848C112.34694,266.9848 125.36664,266.9848 125.36664,266.9848C125.36664,266.9848 132.32237,260.02908 132.32237,260.02908M130.53885,259.31564C130.53885,259.31564 124.65325,265.02292 124.65325,265.02292C124.65325,265.02292 113.06035,265.02292 113.06035,265.02292C113.06035,265.02292 107.35308,259.31564 107.35308,259.31564C107.35308,259.31564 107.35308,230.42262 107.35308,230.42262C107.35308,230.42262 113.06035,224.537 113.06035,224.537C113.06035,224.537 124.65325,224.537 124.65325,224.537C124.65325,224.537 130.53885,230.42262 130.53885,230.42262C130.53885,230.42262 130.53885,259.31564 130.53885,259.31564C130.53885,259.31564 130.53885,259.31564 130.53885,259.31564M121.79961,256.28369C121.79961,256.28369 121.79961,233.27628 121.79961,233.27628C121.79961,233.27628 116.09233,233.27628 116.09233,233.27628C116.09233,233.27628 116.09233,256.28369 116.09233,256.28369C116.09233,256.28369 121.79961,256.28369 121.79961,256.28369C121.79961,256.28369 121.79961,256.28369 121.79961,256.28369M169.24126,236.4866C169.24126,236.4866 160.502,236.4866 160.502,236.4866C160.502,236.4866 160.502,268.23328 160.502,268.23328C160.502,268.23328 145.52043,268.23328 145.52043,268.23328C145.52043,268.23328 145.52043,236.4866 145.52043,236.4866C145.52043,236.4866 136.78117,236.4866 136.78117,236.4866C136.78117,236.4866 136.78117,221.32669 136.78117,221.32669C136.78117,221.32669 169.24126,221.32669 169.24126,221.32669C169.24126,221.32669 169.24126,236.4866 169.24126,236.4866C169.24126,236.4866 169.24126,236.4866 169.24126,236.4866M167.99278,235.23816C167.99278,235.23816 167.99278,222.57513 167.99278,222.57513C167.99278,222.57513 138.02963,222.57513 138.02963,222.57513C138.02963,222.57513 138.02963,235.23816 138.02963,235.23816C138.02963,235.23816 146.76889,235.23816 146.76889,235.23816C146.76889,235.23816 146.76889,266.9848 146.76889,266.9848C146.76889,266.9848 159.25354,266.9848 159.25354,266.9848C159.25354,266.9848 159.25354,235.23816 159.25354,235.23816C159.25354,235.23816 167.99278,235.23816 167.99278,235.23816C167.99278,235.23816 167.99278,235.23816 167.99278,235.23816M166.03091,233.27628C166.03091,233.27628 157.29167,233.27628 157.29167,233.27628C157.29167,233.27628 157.29167,265.02292 157.29167,265.02292C157.29167,265.02292 148.73076,265.02292 148.73076,265.02292C148.73076,265.02292 148.73076,233.27628 148.73076,233.27628C148.73076,233.27628 139.99152,233.27628 139.99152,233.27628C139.99152,233.27628 139.99152,224.53702 139.99152,224.53702C139.99152,224.53702 166.03091,224.53702 166.03091,224.53702C166.03091,224.53702 166.03091,233.27628 166.03091,233.27628C166.03091,233.27628 166.03091,233.27628 166.03091,233.27628" stroke="#ffffff" fill="#ff00ff" id="svg_32" style="pointer-events:inherit"/></g><g stroke-width="2" display="null" shapeVal="0" shapeId="0" lineHeight="1" font-style="normal" font-weight="normal" text-anchor="start" stroke="0" fill="b5b5b5" font-family="ElliotSix" font-size="66.6731" text="camp" type="text" id="svg_29" transform="matrix(0.829746, 0, 0, 0.829746, 1.82975, 0)" style="pointer-events:inherit"><path stroke-width="2" d="M27.0737,337.30194C15.40625,335.07959 14.10987,321.56015 15.03586,308.22595C15.77665,296.92889 19.851,285.44666 33.00002,288.78021C40.22273,290.63217 38.55595,301.55884 40.77832,308.59634C40.96352,311.9299 33.74081,314.33746 33.74081,309.70752C33.92601,303.78119 34.4816,293.78055 28.55528,293.22495C19.851,295.81772 21.33257,310.26312 21.14738,320.81937C22.99935,325.2641 22.99935,331.56082 28.92568,332.11642C33.18522,332.48682 31.70364,326.93088 35.22239,326.93088C37.07436,326.93088 39.85233,327.48648 39.29673,329.70886C38.00035,334.70917 32.62962,336.93155 27.0737,337.30194C27.0737,337.30194 27.0737,337.30194 27.0737,337.30194M93.74479,306.92957C92.4484,312.67068 84.29971,308.59634 81.33656,312.48547C82.44774,317.30063 89.11485,319.52298 88.37407,324.89371C85.9665,328.22726 80.04018,326.93088 79.85498,322.85654C78.00301,320.63419 76.89182,313.96707 73.55827,315.63385C67.07636,318.7822 59.85367,321.74536 54.66813,326.19009C52.81616,329.15326 52.81616,335.82037 48.00102,335.07959C42.44509,332.672 51.89016,328.04208 49.66779,323.41214C53.74214,314.89304 59.29806,308.04074 62.07603,298.22528C64.85399,295.81772 64.66878,286.55783 71.89149,291.55817C73.92866,296.92889 75.03984,304.522 79.11418,308.22595C83.00333,307.29996 85.96649,304.8924 89.85564,303.78119C91.70761,303.78119 93.74479,305.26279 93.74479,306.92957C93.74479,306.92957 93.74479,306.92957 93.74479,306.92957M72.81747,310.4483C72.81747,310.4483 67.44674,298.78088 67.44674,298.78088C64.29839,303.04041 63.3724,309.70752 60.40925,314.33746C59.85366,315.26346 59.48326,316.18942 59.48326,317.30063C64.48359,315.81903 69.11354,313.22629 72.81748,310.4483C72.81748,310.4483 72.81748,310.4483 72.81748,310.4483M132.45108,329.33847C131.89548,334.33878 129.48792,336.93155 129.85831,342.30228C130.04352,345.45068 125.04319,345.82104 123.19121,344.52466C118.93167,324.70853 113.56094,303.78119 106.89382,286.18744C103.18987,301.74402 105.04185,318.96741 105.04185,336.37598C105.04185,341.56152 108.93099,346.74701 101.33789,346.74701C96.33756,345.63583 100.5971,338.59833 98.74512,333.41281C98.74512,333.41281 99.67111,296.18811 99.67111,296.18811C99.85631,288.78021 102.44907,283.40948 103.00467,276.55716C104.11585,274.7052 108.00501,275.81638 108.19019,278.03876C118.93166,290.26178 119.30205,312.85587 126.15436,328.96805C129.85829,316.18942 132.63626,301.92923 134.85863,287.66901C133.00665,283.77988 137.08099,280.81674 140.97014,282.85391C144.30371,285.63184 142.45172,291.37296 143.37772,296.92892C143.37772,296.92892 151.15601,340.0799 151.15601,340.0799C150.97081,342.67267 148.00764,343.59869 145.78529,343.04309C143.37772,341.56152 143.9333,336.7464 143.37772,333.22763C143.37772,333.22763 138.19218,303.59604 138.19218,303.59604C135.59943,311.18912 133.56226,320.44901 132.45107,329.3385C132.45107,329.3385 132.45107,329.3385 132.45107,329.3385M160.04549,281.37234C163.93465,279.52032 166.8978,282.66873 170.23135,281.92789C178.93564,282.29828 186.71393,284.70587 186.34354,294.33612C186.15833,300.81805 183.38037,307.11475 178.19484,308.96674C175.23167,312.11511 168.56458,310.8187 163.74944,311.55951C164.67543,321.00458 164.30504,331.74603 166.34221,339.89474C166.157,341.93188 163.93465,342.48749 161.89746,342.67267C157.26753,341.00589 160.04549,331.74603 159.3047,325.2641C157.45271,310.63354 157.63792,295.44733 160.04549,281.37234C160.04549,281.37234 160.04549,281.37234 160.04549,281.37234M173.00932,286.00223C162.45306,283.96506 162.45306,295.07693 163.56424,304.8924C166.52739,305.44797 168.93497,307.29996 172.26852,306.92957C178.19484,306.37399 180.04683,301.18845 180.41722,294.15094C180.6024,288.595 177.63925,286.92822 173.00932,286.00223C173.00932,286.00223 173.00932,286.00223 173.00932,286.00223" stroke="#000000" fill="#b5b5b5" id="svg_30" style="pointer-events:inherit"/></g></g></svg>