<?xml version="1.0" encoding="utf-8"?>
<!-- Generator: Adobe Illustrator 16.0.0, SVG Export Plug-In . SVG Version: 6.00 Build 0)  -->
<!DOCTYPE svg PUBLIC "-//W3C//DTD SVG 1.1//EN" "http://www.w3.org/Graphics/SVG/1.1/DTD/svg11.dtd">
<svg version="1.1" id="Layer_1" xmlns="http://www.w3.org/2000/svg" xmlns:xlink="http://www.w3.org/1999/xlink" x="0px" y="0px"
	 width="100px" height="100px" viewBox="0 0 100 100" enable-background="new 0 0 100 100" xml:space="preserve">
<path fill="#EE3625" d="M50,5.088c4.868,19.449,9.43,20.714,23.542,6.137C67.266,30.22,70.54,33.373,90.275,27.333
	C75.13,40.917,76.443,45.308,96.652,49.995c-20.209,4.687-21.522,9.08-6.375,22.667C70.54,66.617,67.266,69.77,73.545,88.771
	C59.43,74.188,54.868,75.455,50,94.912c-4.869-19.457-9.431-20.725-23.544-6.141C32.734,69.77,29.46,66.617,9.723,72.662
	c15.146-13.588,13.831-17.98-6.376-22.667c20.207-4.687,21.522-9.077,6.377-22.661c19.736,6.04,23.011,2.887,16.735-16.108
	C40.569,25.803,45.131,24.538,50,5.088z"/>
<path fill="#FEE39D" d="M71.617,29.192c-5.889,5.667-5.889,9.03,5.922,8.042c-11.811,9.963-11.811,15.569,0,25.53
	c-11.811-0.988-11.811,2.377-5.922,8.045c-5.889-5.668-9.383-5.668-8.357,5.703c-10.348-11.371-16.171-11.371-26.518,0
	c1.024-11.371-2.471-11.371-8.356-5.703c5.886-5.668,5.886-9.033-5.924-8.045c11.81-9.961,11.81-15.565,0-25.53
	c11.81,0.988,11.81-2.375,5.924-8.044c5.886,5.669,9.381,5.669,8.356-5.7c10.347,11.369,16.17,11.369,26.518,0
	C62.234,34.858,65.729,34.858,71.617,29.192z"/>
<path fill="#F491AF" d="M50,32.232c1.925,7.694,3.73,8.194,9.313,2.427c-2.481,7.517-1.187,8.763,6.621,6.373
	c-5.994,5.375-5.472,7.112,2.522,8.967c-7.994,1.853-8.517,3.591-2.521,8.966c-7.812-2.391-9.106-1.145-6.623,6.375
	c-5.582-5.771-7.391-5.27-9.313,2.428c-1.928-7.697-3.73-8.199-9.314-2.428c2.482-7.52,1.188-8.766-6.621-6.375
	c5.993-5.375,5.472-7.113-2.522-8.966c7.994-1.855,8.516-3.593,2.523-8.967c7.809,2.391,9.103,1.144,6.622-6.373
	C46.27,40.426,48.072,39.926,50,32.232z"/>
<linearGradient id="SVGID_1_" gradientUnits="userSpaceOnUse" x1="-1407.2852" y1="473.2705" x2="-1385.7822" y2="473.2705" gradientTransform="matrix(0 -1 1 0 -423.2695 -1346.5332)">
	<stop  offset="0" style="stop-color:#FEE39D"/>
	<stop  offset="1" style="stop-color:#FCBB30"/>
</linearGradient>
<path fill="url(#SVGID_1_)" d="M58.768,41.561c-2.39,2.299-2.39,3.662,2.401,3.262c-4.791,4.041-4.791,6.313,0,10.354
	c-4.791-0.401-4.791,0.964-2.401,3.263c-2.39-2.299-3.805-2.299-3.39,2.313c-4.196-4.609-6.557-4.609-10.755,0
	c0.416-4.609-1-4.609-3.389-2.313c2.389-2.299,2.389-3.664-2.401-3.263c4.79-4.041,4.79-6.313,0-10.354
	c4.79,0.4,4.79-0.962,2.401-3.262c2.389,2.3,3.805,2.3,3.389-2.312c4.198,4.611,6.559,4.611,10.755,0
	C54.963,43.86,56.378,43.86,58.768,41.561z"/>
</svg>
