<?xml version="1.0" encoding="utf-8"?>
<!-- Generator: Adobe Illustrator 16.0.0, SVG Export Plug-In . SVG Version: 6.00 Build 0)  -->
<!DOCTYPE svg PUBLIC "-//W3C//DTD SVG 1.1//EN" "http://www.w3.org/Graphics/SVG/1.1/DTD/svg11.dtd">
<svg version="1.1"
	 id="svg3446" xmlns:cc="http://creativecommons.org/ns#" xmlns:dc="http://purl.org/dc/elements/1.1/" xmlns:rdf="http://www.w3.org/1999/02/22-rdf-syntax-ns#"
	 xmlns="http://www.w3.org/2000/svg" xmlns:xlink="http://www.w3.org/1999/xlink" x="0px" y="0px" width="144px" height="108px"
	 viewBox="0 0 144 108" enable-background="new 0 0 144 108" xml:space="preserve">
<rect id="rect3450" y="0.45" fill="#FFFFFF" width="143.979" height="107.801"/>
<rect id="rect3449" y="80.412" fill="#239F40" width="143.863" height="27.846"/>
<rect id="rect3452" y="0.45" fill="#CD1738" width="143.863" height="29.495"/>
<path fill="#FFFF00" d="M50.84,45.452l0.781,2.569l2.525-0.057l-2.095,1.57l0.833,2.496l-2.074-1.597l-2.013,1.597l0.813-2.557
	l-2.075-1.509l2.575,0.017L50.84,45.452z M48.33,56.46l0.779,2.57l2.528-0.058l-2.096,1.569l0.832,2.498l-2.074-1.599l-2.012,1.599
	l0.813-2.56l-2.077-1.508l2.578,0.019L48.33,56.46z M59.338,36.469l0.78,2.569l2.526-0.057l-2.095,1.571l0.833,2.496l-2.074-1.598
	l-2.013,1.598l0.812-2.557l-2.076-1.51l2.576,0.018L59.338,36.469z M70.782,33.476l0.781,2.568l2.526-0.057l-2.096,1.572
	l0.833,2.496l-2.074-1.599l-2.013,1.599l0.814-2.558l-2.076-1.51l2.576,0.02L70.782,33.476z M82.323,36.469l0.78,2.569l2.525-0.057
	l-2.095,1.571l0.831,2.496l-2.073-1.598l-2.013,1.598l0.813-2.557l-2.075-1.51l2.575,0.018L82.323,36.469z M90.82,45.499
	l0.781,2.569l2.525-0.056l-2.096,1.569l0.834,2.498l-2.074-1.599l-2.014,1.599l0.813-2.558l-2.075-1.509l2.575,0.017L90.82,45.499z
	 M93.284,56.46l0.778,2.57l2.528-0.058l-2.096,1.569l0.832,2.498l-2.073-1.599L91.24,63.04l0.814-2.56l-2.076-1.508l2.576,0.019
	L93.284,56.46z M75.188,50.454c0,1.824-1.961,3.305-4.378,3.305c-2.418,0-4.379-1.479-4.379-3.305c0-1.824,1.96-3.303,4.379-3.303
	C73.229,47.151,75.188,48.63,75.188,50.454z M69.547,52.786h2.5V64.43h-2.5V52.786z M92.756,63.551
	c-1.089,2.309-2.554,3.129-4.943,3.063c-4.186,0.1-5.129-2.974-5.676-4.33c-1.479,1.946-2.318,2.725-4.775,2.678
	c-3.498,0.078-5.263-1.914-6.565-5.678c-1.304,3.739-3.07,5.729-6.568,5.651c-2.455,0.049-3.295-0.729-4.774-2.678
	c-0.546,1.357-1.49,4.432-5.676,4.33c-2.391,0.064-3.854-0.756-4.835-3.098c1.137,3.271,2.264,5.103,5.756,5.215
	c3.163,0.039,4.613-1.793,5.297-3.045c2.279,1.209,2.514,1.479,5.745,1.4c2.412-0.076,3.797-1.65,5.045-3.15
	c1.248,1.5,2.634,3.074,5.046,3.15c3.229,0.076,3.465-0.191,5.743-1.4c0.687,1.252,2.134,3.084,5.298,3.045
	C90.365,68.595,91.49,66.764,92.756,63.551L92.756,63.551z M60.23,66.919l1.141,1.584l2.189-0.063l-1.689,1.914l-3.308,0.086
	l-1.035-1.387l1.911-0.31l0.803-1.817 M81.314,66.919l-1.142,1.584l-2.188-0.063l1.688,1.914l3.309,0.086l1.035-1.387l-1.91-0.31
	l-0.803-1.817 M68.043,67.938c0-0.01,1.503,0.008,1.503,0.008l1.263-1.006l1.233,0.994l1.487,0.021l-1.339,1.979h-2.816
	L68.043,67.938L68.043,67.938z M87.048,74.991c-5.843-1.205-9.752-1.8-16.261-1.8c-6.51,0-10.419,0.595-16.224,1.785l-0.008-2.521
	c5.813-1.201,9.722-1.795,16.23-1.795c6.51,0,10.419,0.594,16.232,1.795L87.048,74.991L87.048,74.991z M73.09,50.466
	c0,0.717-1.024,1.298-2.288,1.298c-1.265,0-2.288-0.581-2.288-1.298c0-0.717,1.023-1.297,2.288-1.297
	C72.065,49.169,73.09,49.749,73.09,50.466z"/>
</svg>
