<?xml version="1.0" encoding="utf-8"?>
<!-- Generator: Adobe Illustrator 16.0.0, SVG Export Plug-In . SVG Version: 6.00 Build 0)  -->
<!DOCTYPE svg PUBLIC "-//W3C//DTD SVG 1.1//EN" "http://www.w3.org/Graphics/SVG/1.1/DTD/svg11.dtd">
<svg version="1.1" id="Layer_1" xmlns="http://www.w3.org/2000/svg" xmlns:xlink="http://www.w3.org/1999/xlink" x="0px" y="0px"
	 width="84.572px" height="96.826px" viewBox="0 0 84.572 96.826" enable-background="new 0 0 84.572 96.826" xml:space="preserve">
<path fill="#321651" d="M46.905,82.923C46.743,82.741,46.743,82.741,46.905,82.923L46.905,82.923z M75.947,61.828
	c-0.271-0.272-0.544-0.431-0.822-0.431c-0.274,0-0.431,0.039-0.431,0.117c-0.076,0-0.076,0.039,0,0.078
	c0,0.273,0.276,0.43,0.822,0.43C75.79,62.022,75.947,61.942,75.947,61.828L75.947,61.828z M18.294,60.956
	c0.067-0.051,0.136-0.078,0.187-0.091c0.063-0.015,0.101-0.054,0.152-0.118c0-0.079-0.104-0.104-0.31-0.094
	c-0.21,0.015-0.314-0.024-0.314-0.115c0-0.053,0.024-0.105,0.077-0.155c0.037-0.054,0.066-0.12,0.066-0.196
	c0-0.105-0.053-0.158-0.171-0.134c-0.119,0.027-0.173-0.024-0.173-0.143c0-0.039,0-0.104,0.027-0.185
	c0.025-0.076,0.039-0.156,0.039-0.226c-0.022-0.021-0.066-0.073-0.12-0.14c-0.064-0.066-0.128-0.146-0.193-0.223
	c-0.066-0.08-0.135-0.16-0.171-0.225c-0.054-0.078-0.063-0.105-0.063-0.105c-0.118,0-0.21,0.016-0.291,0.066
	c-0.065,0.055-0.156,0.066-0.277,0.066c-0.155-0.252-0.337-0.406-0.546-0.485c-0.053,0.052-0.145,0.079-0.271,0.079
	c-0.187,0-0.3-0.016-0.357-0.039c-0.038-0.029-0.077-0.053-0.092-0.094c-0.022-0.024-0.052-0.09-0.075-0.168
	c-0.028-0.078-0.081-0.17-0.172-0.262c-0.053,0.079-0.08,0.155-0.09,0.246c0,0.094-0.028,0.17-0.067,0.236
	c-0.037,0.079-0.08,0.129-0.134,0.197c-0.062,0.05-0.166,0.078-0.338,0.078c-0.066,0-0.118-0.015-0.142-0.063
	c-0.045-0.042-0.081-0.067-0.136-0.067h0.146c0,0.025-0.076,0.067-0.249,0.117c-0.157,0.055-0.337,0.157-0.548,0.301
	c-0.209,0.133-0.396,0.314-0.546,0.551c-0.173,0.223-0.254,0.511-0.254,0.822c0,0.055,0.027,0.094,0.081,0.146
	c0.037,0.042,0.065,0.091,0.065,0.13c0,0.079-0.028,0.144-0.065,0.21c-0.054,0.078-0.081,0.17-0.081,0.275
	c0,0.091,0.053,0.193,0.146,0.285c-0.053,0.041-0.119,0.082-0.199,0.094c-0.077,0.027-0.153,0.062-0.219,0.105
	c0.023,0.09,0.064,0.143,0.142,0.157c0.067,0.01,0.13,0.024,0.211,0.024c0.065,0,0.128,0.013,0.181,0.063
	c0.066,0.039,0.095,0.146,0.095,0.315c0,0.065-0.013,0.117-0.041,0.17c-0.024,0.039-0.04,0.101-0.04,0.17
	c0.196,0,0.315,0.063,0.382,0.195c0.076,0.119,0.104,0.252,0.104,0.354c0.053,0,0.09,0,0.104-0.028
	c0.025-0.022,0.063-0.037,0.105-0.037h-0.067c0,0.023,0.067,0.065,0.196,0.115c0.119,0.068,0.247,0.133,0.39,0.199
	c0.135,0.063,0.277,0.146,0.396,0.219c0.127,0.079,0.195,0.158,0.195,0.225c0.091-0.092,0.21-0.131,0.342-0.131
	c0.113,0,0.194,0.024,0.224,0.104c0.038,0.063,0.129,0.108,0.258,0.108c0.054,0,0.096-0.055,0.148-0.147
	c0.037-0.089,0.15-0.144,0.338-0.144c0,0.117,0.076,0.209,0.209,0.291c0.024-0.055,0.076-0.147,0.166-0.291
	c0.097-0.131,0.211-0.275,0.358-0.406c0.128-0.143,0.301-0.271,0.48-0.381c0.187-0.116,0.409-0.184,0.657-0.184
	c-0.145-0.193-0.21-0.402-0.21-0.613c0-0.145,0.052-0.352,0.144-0.627C18.176,61.087,18.242,60.956,18.294,60.956L18.294,60.956z
	 M31.712,20.523c0,0.117,0.038,0.196,0.12,0.196h0.118l0.077-0.118c0-0.04,0.037-0.115,0.075-0.156
	c0.039-0.039,0.039-0.078,0.039-0.157c-0.114-0.117-0.191-0.313-0.191-0.587c0-0.273,0-0.508,0-0.625
	c-0.434,0-0.628,0.194-0.628,0.625C31.322,19.976,31.441,20.25,31.712,20.523L31.712,20.523z M32.142,24.44
	c0-0.118-0.039-0.353-0.114-0.629c-0.039-0.273-0.077-0.468-0.077-0.625h-0.824c0,0.234-0.081,0.43-0.236,0.625
	c-0.114,0.236-0.195,0.432-0.195,0.629c0,0.193,0.081,0.468,0.195,0.779c0.155,0.314,0.236,0.55,0.236,0.667
	c0.196-0.196,0.431-0.391,0.662-0.549C32.027,25.144,32.142,24.868,32.142,24.44L32.142,24.44z M40.829,45.952
	c0.628,0,0.978-0.51,1.058-1.488c0.118-1.017,0.156-1.876,0.156-2.662c-0.586,0.626-0.898,1.253-0.898,1.878
	c0,0.626-0.12,1.292-0.314,2.076L40.829,45.952L40.829,45.952z M31.126,26.708c-0.236,0-0.395,0.118-0.472,0.315
	c-0.114,0.235-0.156,0.39-0.156,0.509c0,0.234,0.118,0.388,0.354,0.544c0.236,0.119,0.547,0.353,0.86,0.707c0-0.12,0-0.469,0-1.017
	c0-0.549-0.119-0.821-0.39-0.821L31.126,26.708L31.126,26.708z M23.238,41.062c0.077,0,0.153,0,0.153,0.038
	c0.037,0.038,0.118,0.078,0.155,0.078c0.436,0,0.629-0.272,0.629-0.861c0-0.272-0.193-0.391-0.629-0.391
	c-0.118,0-0.271,0.08-0.39,0.235c-0.156,0.196-0.233,0.39-0.233,0.586c0.156,0,0.233,0.041,0.233,0.12v0.079L23.238,41.062
	L23.238,41.062z M52.878,33.342c0-0.272-0.112-0.431-0.389-0.431c0,0.352,0.042,0.746,0.157,1.252
	c0.079,0.47,0.313,0.902,0.665,1.214c-0.157-0.39-0.231-0.744-0.312-1.058C52.923,34.008,52.878,33.657,52.878,33.342L52.878,33.342
	z M51.785,24.543c0.547-0.745,0.94-1.686,1.138-2.741c0.194-1.059,0.586-2.075,1.133-3.055c0-0.155-0.157-0.194-0.429-0.194
	c-0.118,0-0.314,0.194-0.552,0.626c-0.233,0.39-0.507,0.902-0.783,1.526c-0.271,0.625-0.507,1.252-0.743,1.88
	c-0.193,0.625-0.313,1.134-0.389,1.526c0,0.158,0,0.274,0,0.431c0,0.156,0.076,0.195,0.194,0.195
	C51.512,24.738,51.628,24.699,51.785,24.543L51.785,24.543z M56.633,33.348c-0.044,0.077-0.081,0.154-0.081,0.196
	c-0.08,0.078-0.117,0.234-0.117,0.428c0,0.119,0.037,0.196,0.117,0.196h0.081c0.349,0,0.623-0.196,0.78-0.546
	c0.197-0.393,0.349-0.706,0.468-0.902c-0.392,0-0.706,0.08-0.818,0.197C56.903,33.073,56.783,33.191,56.633,33.348L56.633,33.348z
	 M1.948,50.697c0,0.118,0.038,0.274,0.08,0.394c0.04,0.153,0.154,0.192,0.354,0.192h0.113c0.039,0,0.159-0.039,0.315-0.192
	l-0.238-0.394c-0.114-0.273-0.271-0.431-0.39-0.431v0.119C2.183,50.424,2.104,50.54,1.948,50.697L1.948,50.697z M64.477,19.162
	c0-0.394-0.081-0.744-0.233-1.02c-0.199-0.272-0.591-0.431-1.214-0.431C63.224,18.418,63.736,18.886,64.477,19.162L64.477,19.162z
	 M59.078,23.622c0.236,0,0.389-0.12,0.465-0.392c0.118-0.276,0.155-0.511,0.155-0.625c0-0.239-0.074-0.394-0.308-0.473
	c-0.194-0.117-0.354-0.156-0.511-0.156c-0.196,0-0.429,0.117-0.667,0.39c-0.233,0.277-0.353,0.512-0.353,0.628
	C57.861,23.425,58.25,23.622,59.078,23.622L59.078,23.622z M56.832,45.114c-0.389,0-0.662,0.079-0.818,0.197
	c-0.118,0.157-0.194,0.508-0.194,1.057c0.428,0,0.704-0.08,0.817-0.236C56.793,46.016,56.832,45.665,56.832,45.114L56.832,45.114z
	 M47.127,25.438c0.275-0.117,0.628-0.393,1.055-0.822c-0.351,0-0.741,0.08-1.134,0.158c-0.428,0.116-0.742,0.354-0.938,0.665
	c0,0.432,0.076,0.628,0.194,0.628c0.196,0,0.354-0.041,0.468-0.196C46.891,25.712,47.011,25.597,47.127,25.438L47.127,25.438z
	 M57.489,38.515c0.195-0.117,0.429-0.275,0.741-0.471c0.314-0.155,0.473-0.43,0.473-0.782c0-0.273-0.194-0.389-0.628-0.389
	c-0.115,0-0.313,0.038-0.586,0.154c-0.314,0.079-0.428,0.314-0.428,0.667C57.062,37.967,57.175,38.239,57.489,38.515L57.489,38.515z
	 M66.907,46.349c0.113,0.155,0.271,0.198,0.389,0.198c0.354,0,0.702-0.159,1.1-0.472c0.389-0.313,0.586-0.626,0.586-0.979
	c0-0.039-0.04-0.116-0.116-0.195h-0.12c-0.39,0-0.816,0.079-1.212,0.195c-0.436,0.157-0.706,0.509-0.822,1.056
	C66.71,46.271,66.749,46.349,66.907,46.349L66.907,46.349z M58.091,19.184c0.353,0,0.667-0.156,0.978-0.431
	c0.318-0.273,0.471-0.625,0.471-1.016c-0.549,0-0.9,0.076-1.057,0.313c-0.115,0.196-0.314,0.43-0.586,0.703
	C57.896,19.028,57.931,19.184,58.091,19.184L58.091,19.184z M55.705,33.122c0.351,0,0.664-0.077,0.898-0.272
	c0.237-0.158,0.352-0.433,0.352-0.785c-0.157,0-0.428,0.079-0.938,0.157c-0.472,0.116-0.704,0.351-0.704,0.703
	C55.313,33.044,55.432,33.122,55.705,33.122L55.705,33.122z M63.342,13.21c0.118-0.156,0.197-0.352,0.197-0.626
	c0-0.157-0.079-0.195-0.197-0.195c-0.622,0-1.251,0.195-1.876,0.587v0.234c0.157,0,0.271,0.041,0.43,0.079
	c0.118,0.078,0.274,0.118,0.392,0.118c0.238,0,0.396-0.041,0.51-0.118C62.953,13.25,63.11,13.21,63.342,13.21L63.342,13.21z
	 M50.539,45.71c0,0.275,0.079,0.435,0.234,0.435c0.313,0,0.586-0.277,0.743-0.786c0.198-0.51,0.275-0.939,0.275-1.292
	c0-0.156-0.037-0.236-0.118-0.311c-0.04-0.08-0.076-0.198-0.076-0.313c-0.196,0.35-0.429,0.702-0.667,1.092
	C50.655,44.89,50.539,45.281,50.539,45.71L50.539,45.71z M77.622,12.359c-0.39,0.628-0.816,1.215-1.246,1.763
	c-0.396,0.548-0.591,1.136-0.591,1.764c0,0.545-0.157,0.82-0.429,0.82c-0.12,0-0.241-0.196-0.314-0.626
	c-0.076-0.392-0.158-0.665-0.314-0.821c-0.076,0-0.076,0.041-0.076,0.117c-0.081,0.079-0.121,0.157-0.121,0.313
	c0,0.198,0.04,0.354,0.121,0.511c0.039,0.116,0.157,0.312,0.272,0.507h-1.447c0-0.196,0.037-0.392,0.117-0.626
	c0.074-0.193,0.118-0.392,0.118-0.625c-0.433,0-0.785-0.079-1.056-0.235c-0.278-0.197-0.471-0.587-0.631-1.215l0.864,0.862
	c0-0.234,0.036-0.43,0.157-0.706c0.073-0.234,0.231-0.351,0.429-0.351c0.434,0,0.623,0.194,0.589,0.508
	c-0.042,0.352,0.115,0.586,0.465,0.744c0.354-0.43,0.746-0.783,1.177-1.096C76.174,13.653,76.805,13.144,77.622,12.359
	L77.622,12.359z M54.513,30.558c0,0.118-0.044,0.273-0.081,0.393c-0.076,0.156-0.12,0.272-0.157,0.351
	c-0.037,0.118-0.081,0.197-0.155,0.273c-0.157,0-0.272,0-0.431,0c-0.118,0-0.194-0.076-0.194-0.194
	C53.494,30.831,53.846,30.558,54.513,30.558L54.513,30.558z M55.32,29.515c0.158,0,0.392,0.04,0.749,0.157
	c0.354,0.08,0.51,0.235,0.51,0.471c0-0.08-0.042-0.119-0.118-0.119c-0.037,0-0.082,0.197-0.082,0.587
	c0,0.354-0.075,0.549-0.23,0.549h0.23c-0.271-0.078-0.507-0.158-0.742-0.314c-0.472-0.273-0.704-0.507-0.704-0.703
	C54.932,29.985,55.05,29.791,55.32,29.515L55.32,29.515z M12.04,87.392c0-0.322-0.175-0.471-0.47-0.471
	c-0.325,0-0.472-0.206-0.472-0.617c0-0.147,0.057-0.324,0.146-0.473c0.119-0.148,0.149-0.325,0.149-0.473c0-0.058,0-0.09-0.03-0.116
	c-0.028-0.029-0.028-0.06-0.028-0.115l-0.091-0.063c-0.767,0-1.563,0.207-2.386,0.649c-0.795,0.442-1.183,1.208-1.183,2.3
	c0,0.471,0.147,0.881,0.507,1.209c0.321,0.321,0.795,0.5,1.353,0.5c0.471,0,0.796-0.092,1.004-0.297
	c0.205-0.203,0.382-0.439,0.501-0.706c0.144-0.266,0.262-0.532,0.41-0.795C11.57,87.687,11.774,87.479,12.04,87.392L12.04,87.392z
	 M59.132,39.454c0,0,0.081,0.04,0.202,0.117c0.541,0,0.817-0.273,0.817-0.859c0-0.277-0.118-0.392-0.39-0.392
	c-0.157,0-0.275,0.078-0.314,0.194c-0.234,0.079-0.315,0.351-0.315,0.823V39.454L59.132,39.454z M68.02,42.235
	c0.429-0.393,0.631-0.822,0.631-1.215c-0.081,0-0.158-0.04-0.202-0.118v-0.117c-0.231,0-0.505,0.393-0.896,1.1
	c-0.351,0.742-0.625,1.406-0.782,2.034v0.079c0,0,0.078,0.04,0.235,0.116c0.311-0.158,0.625-0.354,0.856-0.587
	c0.241-0.235,0.354-0.51,0.354-0.859c-0.038,0-0.078-0.04-0.078-0.12C68.06,42.469,68.02,42.392,68.02,42.235L68.02,42.235z
	 M50.835,33.586c0,0.117,0,0.274,0,0.432c0,0.117,0.084,0.194,0.238,0.194c0.195,0,0.311-0.234,0.353-0.665
	c0.039-0.469,0.113-0.862,0.233-1.215c-0.313,0.159-0.51,0.354-0.549,0.587C51.073,33.155,50.997,33.389,50.835,33.586
	L50.835,33.586z M49.769,14.706c0.057-0.045,0.115-0.069,0.163-0.081c0.057-0.011,0.091-0.048,0.138-0.105
	c0-0.07-0.097-0.092-0.278-0.081c-0.185,0.011-0.28-0.022-0.28-0.104c0-0.044,0.024-0.091,0.073-0.138
	c0.037-0.046,0.056-0.104,0.056-0.173c0-0.094-0.045-0.141-0.146-0.116c-0.105,0.022-0.153-0.025-0.153-0.127
	c0-0.034,0-0.093,0.022-0.164c0.024-0.068,0.034-0.137,0.034-0.194c-0.024-0.025-0.058-0.073-0.104-0.128
	c-0.06-0.059-0.115-0.126-0.173-0.197c-0.059-0.069-0.113-0.139-0.151-0.196c-0.046-0.07-0.058-0.092-0.058-0.092
	c-0.105,0-0.185,0.01-0.254,0.057c-0.062,0.047-0.143,0.057-0.246,0.057c-0.138-0.218-0.296-0.357-0.481-0.426
	c-0.048,0.043-0.128,0.069-0.241,0.069c-0.168,0-0.268-0.012-0.315-0.035c-0.034-0.024-0.07-0.045-0.081-0.081
	c-0.023-0.023-0.047-0.08-0.07-0.151c-0.024-0.07-0.066-0.149-0.148-0.233c-0.049,0.073-0.071,0.142-0.081,0.221
	c0,0.083-0.021,0.152-0.057,0.21c-0.034,0.069-0.071,0.116-0.118,0.173c-0.06,0.047-0.147,0.069-0.3,0.069
	c-0.061,0-0.106-0.012-0.123-0.058c-0.04-0.037-0.074-0.059-0.121-0.059H46.4c0,0.022-0.066,0.059-0.219,0.104
	c-0.139,0.044-0.302,0.139-0.485,0.265c-0.187,0.118-0.349,0.278-0.486,0.489c-0.151,0.196-0.219,0.449-0.219,0.728
	c0,0.047,0.021,0.083,0.066,0.127c0.032,0.037,0.058,0.083,0.058,0.116c0,0.07-0.024,0.126-0.058,0.187
	c-0.048,0.069-0.066,0.149-0.066,0.241c0,0.083,0.043,0.175,0.124,0.255c-0.043,0.036-0.104,0.07-0.172,0.083
	c-0.071,0.023-0.138,0.055-0.2,0.092c0.023,0.08,0.063,0.127,0.129,0.139c0.059,0.01,0.119,0.022,0.187,0.022
	c0.058,0,0.113,0.011,0.162,0.059c0.057,0.033,0.081,0.125,0.081,0.278c0,0.055-0.011,0.102-0.033,0.148
	c-0.024,0.037-0.033,0.092-0.033,0.152c0.172,0,0.276,0.057,0.333,0.174c0.066,0.104,0.097,0.219,0.097,0.31
	c0.042,0,0.079,0,0.089-0.022c0.024-0.025,0.061-0.035,0.092-0.035h-0.058c0,0.024,0.058,0.057,0.178,0.104
	c0.1,0.058,0.218,0.115,0.346,0.172c0.114,0.059,0.244,0.128,0.35,0.197c0.113,0.069,0.172,0.14,0.172,0.195
	c0.079-0.081,0.186-0.113,0.298-0.113c0.106,0,0.174,0.022,0.195,0.091c0.039,0.057,0.115,0.094,0.236,0.094
	c0.044,0,0.078-0.047,0.128-0.127c0.032-0.083,0.138-0.129,0.3-0.129c0,0.104,0.064,0.185,0.185,0.256
	c0.022-0.047,0.072-0.127,0.148-0.256c0.081-0.116,0.185-0.244,0.313-0.359c0.114-0.125,0.269-0.241,0.429-0.333
	c0.157-0.104,0.358-0.163,0.576-0.163c-0.129-0.172-0.184-0.357-0.184-0.544c0-0.128,0.047-0.312,0.128-0.555
	C49.663,14.821,49.722,14.706,49.769,14.706L49.769,14.706z M17.608,38.32c-0.548-0.274-0.9-0.392-1.059-0.392
	c-0.309,0-0.623,0.041-0.817,0.117c-0.196,0.04-0.392,0.079-0.629,0.079c0,0.548,0.156,0.9,0.433,1.058
	c0.354,0,0.782-0.08,1.291-0.235c0.511-0.118,0.781-0.274,0.781-0.39V38.32L17.608,38.32z M21.372,44.115
	c0.434,0,0.786-0.118,1.058-0.393c0-0.076-0.038-0.117-0.114-0.117c-0.08-0.079-0.156-0.079-0.313-0.079
	c-0.195,0-0.353,0.041-0.472,0.196C21.453,43.84,21.372,43.997,21.372,44.115L21.372,44.115z M14.561,84.713
	c0,0.157,0.113,0.236,0.31,0.315c0.201,0.078,0.435,0.115,0.628,0.115c0.629,0,0.939-0.273,0.939-0.861
	c0-0.194-0.114-0.313-0.312-0.354c-0.198-0.039-0.395-0.039-0.509-0.039C15.108,83.892,14.756,84.166,14.561,84.713L14.561,84.713z
	 M27.945,27.924c-0.272,0-0.662-0.119-1.134-0.432c-0.511-0.273-0.743-0.586-0.743-1.017c0-0.079,0.038-0.117,0.114-0.197h0.081
	c0.429,0,0.779,0.197,1.057,0.548C27.593,27.219,27.791,27.57,27.945,27.924L27.945,27.924z M27.588,46.706
	c0.553,0,1.02,0.155,1.37,0.469c0.393,0.313,0.668,0.666,0.901,0.978c0,0.157-0.156,0.237-0.43,0.237
	c-0.547,0-0.979-0.197-1.333-0.587C27.75,47.409,27.588,47.058,27.588,46.706L27.588,46.706z M16.899,59.245
	c-0.157-0.191-0.392-0.469-0.744-0.782c-0.313-0.313-0.508-0.744-0.508-1.293c0-0.076,0.037-0.116,0.08-0.155
	c0-0.037,0.039-0.078,0.039-0.154l0.117-0.118c0.194,0,0.43,0.272,0.744,0.782c0.31,0.55,0.467,0.979,0.467,1.293
	c0,0.154-0.039,0.236-0.076,0.236C16.938,59.054,16.899,59.09,16.899,59.245L16.899,59.245z M7.259,38.419
	c0.195,0,0.435-0.038,0.666-0.196c0.239-0.117,0.354-0.274,0.354-0.43c0-0.276-0.038-0.471-0.195-0.588
	c-0.354,0-0.586,0-0.786,0.079c-0.152,0.079-0.229,0.391-0.229,0.939L7.259,38.419L7.259,38.419z M64.172,33.672
	c-0.291,0.292-0.607,0.554-0.929,0.729c-0.29,0.176-0.438,0.495-0.438,0.961c0,0.728,0.146,1.338,0.493,1.835
	c0.32,0.524,0.872,0.785,1.662,0.785c0.697,0,1.283-0.261,1.689-0.785c0.408-0.498,0.609-0.904,0.609-1.224
	c0-0.612-0.201-1.166-0.609-1.69c-0.406-0.522-1.079-0.757-2.016-0.757C64.436,33.527,64.292,33.558,64.172,33.672L64.172,33.672z
	 M81.687,9.711c0,0.155,0.037,0.193,0.076,0.193h0.117c0.276,0,0.43-0.193,0.43-0.587c-0.152-0.234-0.312-0.43-0.547-0.626
	c-0.196-0.234-0.314-0.506-0.314-0.82c0-0.238,0.039-0.43,0.118-0.629c0.081-0.234,0.12-0.429,0.12-0.624
	c-0.16-0.431-0.314-0.862-0.474-1.37c-0.193-0.473-0.429-0.707-0.779-0.707c-0.202,0-0.315,0.12-0.354,0.315
	c-0.037,0.195-0.074,0.392-0.074,0.51c0,0.351,0.074,0.779,0.158,1.292c0.113,0.508,0.228,1.018,0.384,1.448
	c0.118,0.47,0.315,0.822,0.516,1.136C81.251,9.553,81.448,9.711,81.687,9.711L81.687,9.711z M7.635,30.978
	c-0.195-0.43-0.472-0.625-0.823-0.625c-0.271,0-0.391,0.158-0.391,0.43c0,0.118,0.119,0.196,0.353,0.196
	C7.007,30.978,7.32,30.978,7.635,30.978L7.635,30.978z M18.833,27.653c-0.081,0-0.119,0.037-0.157,0.077
	c-0.037,0.041-0.08,0.041-0.156,0.041c0-0.394,0.076-0.94,0.232-1.566c0.195-0.587,0.435-1.176,0.704-1.724
	c0.278-0.587,0.549-1.057,0.825-1.45c0.271-0.43,0.504-0.625,0.705-0.625c0.156,0,0.231,0.037,0.231,0.195c0,0.117,0,0.273,0,0.43
	c0,0.471-0.118,0.979-0.313,1.489c-0.233,0.508-0.467,0.98-0.743,1.408c-0.271,0.393-0.546,0.746-0.78,1.058
	c-0.231,0.315-0.396,0.508-0.472,0.587L18.833,27.653L18.833,27.653z M31.437,45.888c0-0.548,0.037-1.057,0.08-1.488
	c0.07-0.468,0.113-0.859,0.113-1.214c0-0.351,0-0.744-0.043-1.211c-0.031-0.51-0.07-0.98-0.15-1.412
	c-0.076-0.468-0.195-0.859-0.315-1.212c-0.156-0.314-0.313-0.51-0.51-0.51c-0.156,0-0.232,0.08-0.232,0.236
	c0,1.214,0.037,2.388,0.119,3.444c0.077,1.058,0.311,2.115,0.743,3.171L31.437,45.888L31.437,45.888z M42.901,43.391
	c0.548-0.277,0.861-0.706,0.861-1.256c-0.158,0-0.313,0.078-0.435,0.235c-0.157,0.119-0.271,0.197-0.428,0.197L42.901,43.391
	L42.901,43.391z M26.978,37.482c-0.35,0-0.586,0.041-0.78,0.118c-0.157,0.08-0.234,0.315-0.234,0.706
	c0,0.35,0.077,0.625,0.234,0.783c0.194,0.196,0.391,0.352,0.586,0.468l0.822,0.431c0.194,0,0.43-0.079,0.662-0.273
	c0.238-0.158,0.396-0.352,0.396-0.548c0-0.548-0.193-0.979-0.547-1.25C27.801,37.638,27.411,37.482,26.978,37.482L26.978,37.482z
	 M19.791,29.706c-0.157,0-0.233-0.079-0.233-0.194c0-0.156,0.039-0.276,0.076-0.431c0-0.118,0.157-0.197,0.353-0.197
	c0.275,0,0.392,0.079,0.392,0.197c0,0.155-0.039,0.233-0.151,0.275C20.143,29.393,19.985,29.511,19.791,29.706L19.791,29.706z
	 M21.51,15.975c-0.198,0-0.314,0-0.353,0.039c-0.043,0.039-0.081,0.235-0.081,0.587c0,0.276,0.081,0.47,0.234,0.628
	c0.118-0.234,0.313-0.273,0.509-0.234c0.195,0.076,0.313-0.04,0.313-0.394C22.134,16.406,21.939,16.169,21.51,15.975L21.51,15.975z
	 M59.679,51.981c-0.155,0.113-0.197,0.312-0.197,0.508c0,0.191-0.079,0.313-0.229,0.313c-0.121,0-0.199-0.154-0.199-0.509
	c0-0.353-0.078-0.51-0.196-0.51c0.118-0.158,0.196-0.273,0.196-0.433c0-0.115,0.078-0.193,0.199-0.193
	c0.229,0.117,0.348,0.273,0.392,0.392C59.679,51.707,59.679,51.822,59.679,51.981L59.679,51.981z M53.282,55.592
	c-0.379,0-0.719-0.099-0.98-0.278c-0.261-0.198-0.397-0.459-0.397-0.779c0-0.281,0.138-0.518,0.379-0.739
	c0.239-0.201,0.482-0.319,0.683-0.319c0.22,0,0.458,0.1,0.738,0.28c0.28,0.183,0.421,0.399,0.421,0.681
	c0,0.219-0.059,0.438-0.196,0.68C53.784,55.375,53.565,55.532,53.282,55.592L53.282,55.592z M65.307,26.675
	c0-0.118,0.037-0.196,0.117-0.196h0.118l0.076,0.117c0,0.038,0.04,0.117,0.081,0.156c0.04,0.038,0.04,0.08,0.04,0.156
	c-0.121,0.118-0.197,0.312-0.197,0.586c0,0.276,0,0.511,0,0.628c-0.429,0-0.63-0.196-0.63-0.628
	C64.913,27.22,65.033,26.948,65.307,26.675L65.307,26.675z M66.021,22.9c0,0.117-0.039,0.352-0.115,0.628
	c-0.037,0.272-0.082,0.468-0.082,0.625h-0.817c0-0.236-0.083-0.431-0.237-0.625c-0.116-0.235-0.194-0.432-0.194-0.628
	c0-0.194,0.078-0.471,0.194-0.783c0.154-0.314,0.237-0.549,0.237-0.665c0.195,0.196,0.43,0.391,0.663,0.549
	C65.905,22.196,66.021,22.47,66.021,22.9L66.021,22.9z M44.392,47.967c0.624,0,0.977,0.51,1.051,1.489
	c0.12,1.016,0.158,1.876,0.158,2.659c-0.585-0.625-0.9-1.251-0.9-1.88c0-0.625-0.114-1.291-0.309-2.073V47.967L44.392,47.967z
	 M53.255,40.653c-0.232,0-0.392-0.117-0.47-0.313c-0.118-0.236-0.158-0.391-0.158-0.511c0-0.235,0.118-0.39,0.354-0.548
	c0.237-0.118,0.549-0.351,0.86-0.704c0,0.117,0,0.469,0,1.017c0,0.549-0.119,0.826-0.392,0.826L53.255,40.653L53.255,40.653z
	 M80.276,13.576c0.076,0,0.113-0.038,0.194-0.116c0.075,0,0.156,0,0.193-0.041c0.079-0.039,0.157-0.079,0.236-0.079
	c0.274,0,0.547,0.158,0.822,0.432c0,0.548-0.157,0.82-0.435,0.82c-0.188,0-0.389-0.114-0.546-0.352
	C80.547,14.005,80.39,13.772,80.276,13.576L80.276,13.576z M53.76,36.682c0.076,0,0.157,0,0.157-0.039
	c0.04-0.041,0.113-0.077,0.158-0.077c0.428,0,0.625,0.273,0.625,0.86c0,0.273-0.197,0.392-0.625,0.392
	c-0.118,0-0.276-0.078-0.392-0.235c-0.155-0.198-0.239-0.392-0.239-0.587c0.158,0,0.239-0.039,0.239-0.118v-0.079L53.76,36.682
	L53.76,36.682z M24.744,22.505c0,0.276-0.114,0.433-0.391,0.433c0-0.355,0.038-0.745,0.156-1.255c0.075-0.47,0.313-0.9,0.666-1.211
	c-0.155,0.388-0.236,0.741-0.313,1.056C24.786,21.841,24.744,22.194,24.744,22.505L24.744,22.505z M54.545,41.949
	c0.16,0,0.194,0.079,0.194,0.198v0.196c-0.194,0.548-0.47,1.174-0.782,1.88c-0.272,0.702-0.513,1.017-0.665,1.017
	c-0.118,0-0.199-0.038-0.199-0.079v-0.118c0-0.546,0.199-1.018,0.592-1.448c0.352-0.43,0.662-0.901,0.86-1.448V41.949L54.545,41.949
	z M59.127,31.592c0.547,0.743,0.94,1.683,1.133,2.74c0.196,1.059,0.587,2.075,1.144,3.053c0,0.158-0.16,0.196-0.438,0.196
	c-0.119,0-0.313-0.196-0.546-0.625c-0.238-0.39-0.51-0.901-0.78-1.528c-0.275-0.624-0.513-1.253-0.748-1.878
	c-0.197-0.626-0.312-1.135-0.393-1.528c0-0.156,0-0.274,0-0.429c0-0.157,0.081-0.195,0.194-0.195
	C58.852,31.397,58.97,31.435,59.127,31.592L59.127,31.592z M31.641,16.597c-0.033-0.079-0.076-0.158-0.076-0.195
	c-0.076-0.083-0.113-0.235-0.113-0.433c0-0.117,0.037-0.193,0.113-0.193h0.076c0.353,0,0.628,0.193,0.787,0.544
	c0.193,0.393,0.352,0.707,0.472,0.902c-0.396,0-0.706-0.078-0.825-0.196C31.917,16.871,31.804,16.753,31.641,16.597L31.641,16.597z
	 M65.779,31.916c0,0.118-0.039,0.275-0.12,0.391c-0.04,0.157-0.077,0.273-0.077,0.43l-0.238-0.821H65.779L65.779,31.916z
	 M33.213,24.338c0-0.117,0.038-0.274,0.076-0.392c0.042-0.157,0.156-0.196,0.357-0.196h0.113c0.037,0,0.156,0.039,0.315,0.196
	l-0.234,0.392c-0.118,0.272-0.276,0.428-0.396,0.428V24.65C33.445,24.61,33.37,24.494,33.213,24.338L33.213,24.338z M32.236,37.225
	c0,0.393-0.082,0.745-0.238,1.017c-0.193,0.273-0.586,0.431-1.214,0.431C30.983,37.97,31.493,37.498,32.236,37.225L32.236,37.225z
	 M39.066,26.301c0.239,0,0.396,0.117,0.472,0.389c0.119,0.276,0.157,0.512,0.157,0.628c0,0.235-0.081,0.392-0.315,0.468
	c-0.193,0.118-0.351,0.16-0.509,0.16c-0.195,0-0.428-0.117-0.666-0.393c-0.233-0.274-0.348-0.51-0.348-0.627
	C37.857,26.498,38.248,26.301,39.066,26.301L39.066,26.301z M64.62,44.942c0.194,0.117,0.434,0.272,0.743,0.468
	c0.313,0.158,0.471,0.435,0.471,0.786c0,0.273-0.194,0.389-0.628,0.389c-0.116,0-0.308-0.036-0.586-0.155
	c-0.313-0.079-0.429-0.313-0.429-0.664C64.191,45.491,64.307,45.214,64.62,44.942L64.62,44.942z M46.797,24.839
	c0.354,0,0.662,0.154,0.976,0.428c0.314,0.276,0.474,0.628,0.474,1.021c-0.547,0-0.9-0.079-1.06-0.315
	c-0.118-0.196-0.313-0.43-0.591-0.706C46.595,24.993,46.64,24.839,46.797,24.839L46.797,24.839z M32.369,61.882
	c0.354,0,0.666,0.082,0.9,0.276c0.236,0.155,0.352,0.428,0.352,0.782c-0.156,0-0.427-0.078-0.938-0.157
	c-0.473-0.118-0.705-0.353-0.705-0.706C31.979,61.964,32.098,61.882,32.369,61.882L32.369,61.882z M22.153,18.805
	c0-0.277,0.081-0.432,0.237-0.432c0.314,0,0.591,0.273,0.741,0.783c0.196,0.508,0.272,0.938,0.272,1.292
	c0,0.157-0.038,0.236-0.113,0.314c-0.039,0.077-0.081,0.197-0.081,0.313c-0.195-0.352-0.43-0.705-0.662-1.097
	C22.271,19.625,22.153,19.233,22.153,18.805L22.153,18.805z M42.119,36.81c-0.39-0.628-0.818-1.215-1.252-1.762
	c-0.39-0.549-0.586-1.136-0.586-1.762c0-0.55-0.157-0.823-0.43-0.823c-0.119,0-0.237,0.198-0.313,0.625
	c-0.081,0.393-0.158,0.667-0.313,0.824c-0.076,0-0.076-0.038-0.076-0.12c-0.081-0.075-0.118-0.156-0.118-0.311
	c0-0.195,0.037-0.351,0.118-0.509c0.038-0.118,0.158-0.312,0.271-0.509h-1.448c0,0.198,0.043,0.391,0.118,0.625
	c0.075,0.198,0.115,0.393,0.115,0.629c-0.43,0-0.782,0.075-1.053,0.234c-0.277,0.195-0.472,0.587-0.629,1.213l0.86-0.86
	c0,0.234,0.038,0.43,0.157,0.704c0.077,0.234,0.233,0.352,0.43,0.352c0.434,0,0.629-0.196,0.586-0.511
	c-0.038-0.351,0.118-0.586,0.473-0.742c0.351,0.431,0.742,0.784,1.175,1.096C40.672,35.518,41.301,36.026,42.119,36.81L42.119,36.81
	z M31.894,42.415c0-0.118-0.042-0.274-0.082-0.391c-0.074-0.156-0.119-0.273-0.156-0.354c-0.038-0.116-0.077-0.194-0.152-0.272
	c-0.156,0-0.276,0-0.434,0c-0.119,0-0.195,0.078-0.195,0.196C30.874,42.14,31.226,42.415,31.894,42.415L31.894,42.415z
	 M30.44,42.772c0.156,0,0.396-0.041,0.742-0.157c0.357-0.08,0.51-0.235,0.51-0.47c0,0.078-0.037,0.117-0.114,0.117
	c-0.037,0-0.075-0.194-0.075-0.587c0-0.351-0.081-0.546-0.236-0.546h0.236c-0.276,0.076-0.511,0.155-0.748,0.31
	c-0.467,0.277-0.704,0.511-0.704,0.707C30.051,42.302,30.169,42.497,30.44,42.772L30.44,42.772z M26.083,51.974
	c0,0.428-0.233,0.625-0.624,0.625c-0.434,0-0.63,0.275-0.63,0.821c0,0.197,0.082,0.435,0.196,0.628
	c0.156,0.194,0.194,0.432,0.194,0.625c0,0.079,0,0.119-0.038,0.158c-0.037,0.039-0.037,0.076-0.037,0.154l-0.119,0.078
	c-1.017,0-2.073-0.271-3.173-0.858c-1.053-0.588-1.566-1.606-1.566-3.056c0-0.625,0.2-1.172,0.667-1.604
	c0.435-0.429,1.057-0.665,1.8-0.665c0.629,0,1.059,0.116,1.334,0.395c0.271,0.271,0.51,0.586,0.666,0.938
	c0.196,0.353,0.349,0.704,0.548,1.058C25.459,51.581,25.73,51.854,26.083,51.974L26.083,51.974z M45.539,26.52
	c0.435,0.392,0.628,0.825,0.628,1.216c-0.074,0-0.154,0.04-0.193,0.116v0.118c-0.234,0-0.511-0.393-0.9-1.095
	c-0.352-0.745-0.624-1.41-0.781-2.035v-0.08c0,0,0.076-0.038,0.233-0.117c0.314,0.157,0.623,0.351,0.861,0.588
	c0.233,0.234,0.353,0.507,0.353,0.86c-0.042,0-0.079,0.038-0.079,0.118C45.581,26.289,45.539,26.366,45.539,26.52L45.539,26.52z
	 M58.492,44.065c0-0.117,0-0.274,0-0.432c0-0.116,0.073-0.194,0.231-0.194c0.193,0,0.31,0.234,0.354,0.665
	c0.034,0.471,0.113,0.864,0.231,1.215c-0.312-0.158-0.511-0.351-0.547-0.59C58.724,44.497,58.642,44.261,58.492,44.065
	L58.492,44.065z M42.448,50.963c0.072,0.06,0.139,0.086,0.199,0.099c0.07,0.021,0.114,0.06,0.167,0.133
	c0,0.084-0.114,0.113-0.338,0.1c-0.229-0.016-0.344,0.029-0.344,0.128c0,0.056,0.028,0.113,0.088,0.173
	c0.041,0.055,0.07,0.125,0.07,0.211c0,0.113-0.059,0.17-0.187,0.145c-0.129-0.03-0.187,0.025-0.187,0.154
	c0,0.045,0,0.115,0.027,0.199c0.029,0.084,0.044,0.172,0.044,0.241c-0.029,0.029-0.071,0.086-0.129,0.157
	c-0.066,0.068-0.138,0.156-0.211,0.24c-0.07,0.086-0.143,0.174-0.186,0.242c-0.057,0.086-0.07,0.112-0.07,0.112
	c-0.129,0-0.229-0.012-0.315-0.067c-0.071-0.058-0.171-0.072-0.3-0.072c-0.166,0.273-0.366,0.443-0.594,0.523
	c-0.059-0.054-0.159-0.08-0.301-0.08c-0.2,0-0.329,0.012-0.387,0.039c-0.043,0.029-0.085,0.058-0.1,0.102
	c-0.028,0.029-0.06,0.099-0.085,0.188c-0.03,0.084-0.088,0.182-0.188,0.283c-0.057-0.084-0.086-0.17-0.099-0.273
	c0-0.099-0.024-0.183-0.072-0.256c-0.038-0.082-0.081-0.139-0.138-0.211c-0.073-0.056-0.188-0.088-0.371-0.088
	c-0.072,0-0.129,0.016-0.158,0.072c-0.042,0.044-0.085,0.072-0.142,0.072H38.3c0-0.028-0.087-0.072-0.268-0.129
	c-0.171-0.058-0.37-0.17-0.6-0.328c-0.229-0.144-0.431-0.34-0.602-0.596c-0.186-0.242-0.266-0.558-0.266-0.898
	c0-0.057,0.027-0.102,0.08-0.155c0.044-0.044,0.07-0.099,0.07-0.144c0-0.084-0.026-0.157-0.07-0.229
	c-0.053-0.086-0.08-0.185-0.08-0.3c0-0.099,0.052-0.215,0.15-0.312c-0.052-0.043-0.123-0.086-0.209-0.101
	c-0.087-0.028-0.172-0.071-0.242-0.112c0.027-0.1,0.07-0.158,0.155-0.174c0.073-0.012,0.146-0.025,0.226-0.025
	c0.07,0,0.144-0.017,0.205-0.072c0.065-0.041,0.095-0.154,0.095-0.339c0-0.072-0.015-0.132-0.043-0.188
	c-0.023-0.042-0.042-0.113-0.042-0.188c0.215,0,0.343-0.066,0.415-0.211c0.085-0.129,0.113-0.271,0.113-0.385
	c0.058,0,0.1,0,0.113,0.029c0.028,0.028,0.07,0.041,0.115,0.041h-0.072c0-0.025,0.072-0.07,0.215-0.124
	c0.123-0.073,0.271-0.146,0.424-0.217c0.144-0.07,0.301-0.156,0.43-0.243c0.142-0.085,0.215-0.171,0.215-0.24
	c0.1,0.1,0.229,0.14,0.37,0.14c0.123,0,0.211-0.026,0.237-0.112c0.045-0.072,0.145-0.114,0.287-0.114c0.057,0,0.1,0.057,0.157,0.155
	c0.041,0.103,0.171,0.159,0.37,0.159c0-0.128,0.086-0.228,0.229-0.314c0.028,0.057,0.088,0.155,0.183,0.314
	c0.102,0.142,0.229,0.299,0.387,0.439c0.143,0.156,0.327,0.299,0.527,0.414c0.2,0.129,0.438,0.201,0.711,0.201
	c-0.158,0.212-0.229,0.441-0.229,0.668c0,0.157,0.058,0.385,0.158,0.684C42.32,50.822,42.392,50.963,42.448,50.963L42.448,50.963z
	 M22.848,42.097c0.153,0.116,0.232,0.194,0.311,0.194h0.119c0.119,0,0.194-0.079,0.194-0.194c-0.271-0.274-0.548-0.432-0.819-0.432
	h-0.118c0,0-0.039,0.079-0.119,0.235c0,0.038,0.042,0.077,0.119,0.077C22.615,42.057,22.729,42.097,22.848,42.097L22.848,42.097z
	 M23.216,46.62c-0.549,0.274-0.9,0.393-1.053,0.393c-0.32,0-0.629-0.041-0.825-0.118c-0.194-0.041-0.395-0.079-0.629-0.079
	c0-0.548,0.158-0.9,0.435-1.057c0.348,0,0.781,0.079,1.291,0.235c0.509,0.117,0.781,0.273,0.781,0.392V46.62L23.216,46.62z
	 M6.691,86.644c0.43,0,0.782,0.118,1.058,0.392c0,0.077-0.042,0.116-0.119,0.116c-0.08,0.078-0.155,0.078-0.313,0.078
	c-0.196,0-0.354-0.039-0.468-0.194C6.768,86.916,6.691,86.763,6.691,86.644L6.691,86.644z M80.409,11.795
	c0-0.156,0.118-0.235,0.314-0.315c0.194-0.078,0.429-0.116,0.623-0.116c0.628,0,0.942,0.274,0.942,0.86
	c0,0.197-0.118,0.314-0.314,0.352c-0.194,0.041-0.39,0.041-0.508,0.041C80.955,12.618,80.605,12.343,80.409,11.795L80.409,11.795z
	 M20.5,56.644c0.277,0,0.667,0.121,1.134,0.432c0.511,0.275,0.747,0.588,0.747,1.021c0,0.075-0.042,0.112-0.118,0.193h-0.076
	c-0.434,0-0.785-0.193-1.058-0.549C20.853,57.351,20.657,56.995,20.5,56.644L20.5,56.644z M20.505,18.795
	c-0.548,0-1.02-0.156-1.371-0.469c-0.392-0.313-0.661-0.666-0.9-0.979c0-0.157,0.157-0.235,0.435-0.235
	c0.547,0,0.978,0.194,1.328,0.586C20.348,18.088,20.505,18.443,20.505,18.795L20.505,18.795z M24.109,43.078
	c0.154,0.193,0.392,0.468,0.745,0.781c0.309,0.313,0.508,0.745,0.508,1.293c0,0.075-0.042,0.116-0.081,0.155
	c0,0.04-0.037,0.079-0.037,0.158l-0.119,0.117c-0.194,0-0.43-0.274-0.742-0.783c-0.311-0.549-0.468-0.978-0.468-1.292
	c0-0.156,0.038-0.235,0.076-0.235C24.072,43.271,24.109,43.233,24.109,43.078L24.109,43.078z M21.354,21.329
	c0.313,0.158,0.509,0.274,0.551,0.393c0.04,0.079,0.04,0.234,0.04,0.428c-0.277,0-0.511-0.155-0.706-0.506
	c-0.157-0.119-0.233-0.315-0.314-0.51c0.157,0,0.195,0.039,0.195,0.117C21.119,21.291,21.199,21.329,21.354,21.329L21.354,21.329z
	 M40.462,21.142c-0.156,0.156-0.237,0.232-0.313,0.232h-0.12c-0.194,0-0.427-0.116-0.665-0.39c-0.234-0.234-0.354-0.43-0.354-0.664
	c0-0.667,0.396-1.018,1.139-1.018c0.625,0,0.938,0.273,0.938,0.82C41.085,20.592,40.891,20.946,40.462,21.142L40.462,21.142z
	 M42.553,56.062c0-0.153,0.033-0.19,0.075-0.19h0.119c0.271,0,0.429,0.19,0.429,0.586c-0.156,0.235-0.313,0.431-0.548,0.628
	c-0.194,0.232-0.313,0.507-0.313,0.822c0,0.232,0.038,0.428,0.118,0.623c0.077,0.238,0.119,0.436,0.119,0.628
	c-0.156,0.431-0.315,0.86-0.473,1.37c-0.194,0.471-0.434,0.707-0.78,0.707c-0.2,0-0.314-0.12-0.353-0.314
	c-0.044-0.197-0.081-0.393-0.081-0.51c0-0.354,0.081-0.785,0.156-1.293c0.12-0.51,0.232-1.02,0.392-1.447
	c0.118-0.471,0.314-0.822,0.51-1.136C42.119,56.222,42.315,56.062,42.553,56.062L42.553,56.062z M43.367,35.456
	c0,0.548,0.042,1.058,0.082,1.489c0.075,0.469,0.119,0.86,0.119,1.212c0,0.353,0,0.745-0.044,1.215
	c-0.037,0.507-0.075,0.976-0.157,1.408c-0.076,0.468-0.195,0.862-0.31,1.214c-0.156,0.313-0.314,0.508-0.511,0.508
	c-0.155,0-0.231-0.08-0.231-0.235c0-1.214,0.038-2.388,0.113-3.447c0.081-1.055,0.313-2.114,0.742-3.169L43.367,35.456
	L43.367,35.456z M24.129,39.893c0.55,0.273,0.862,0.704,0.862,1.25c-0.162,0-0.313-0.076-0.433-0.234
	c-0.158-0.117-0.276-0.194-0.431-0.194L24.129,39.893L24.129,39.893z M28.636,54.991c-0.358,0-0.592-0.04-0.786-0.118
	c-0.158-0.076-0.234-0.313-0.234-0.704c0-0.354,0.076-0.626,0.234-0.783c0.194-0.193,0.392-0.353,0.586-0.468l0.822-0.435
	c0.195,0,0.431,0.082,0.667,0.276c0.234,0.157,0.392,0.351,0.392,0.552c0,0.541-0.196,0.976-0.548,1.248
	C29.454,54.833,29.063,54.991,28.636,54.991L28.636,54.991z M70.73,53.862c-0.194,0-0.313,0-0.353-0.038
	c-0.04-0.04-0.077-0.231-0.077-0.587c0-0.275,0.077-0.467,0.234-0.625c0.118,0.234,0.315,0.271,0.507,0.234
	c0.197-0.076,0.312,0.036,0.312,0.391C71.354,53.435,71.159,53.666,70.73,53.862L70.73,53.862z M32.95,34.279
	c-0.275,0.274-0.547,0.434-0.823,0.434c-0.274,0-0.435-0.041-0.435-0.118c-0.075,0-0.075-0.041,0-0.078
	c0-0.274,0.277-0.432,0.825-0.432C32.793,34.084,32.95,34.163,32.95,34.279L32.95,34.279z M69.891,12.774
	c0,0.157-0.078,0.196-0.194,0.196c-0.238,0-0.396-0.235-0.591-0.704c-0.155-0.47-0.465-0.938-0.861-1.331
	c0,0,0.044-0.079,0.081-0.234c0-0.08,0.039-0.118,0.113-0.2c0,0.082,0.241,0.354,0.743,0.826
	C69.654,11.795,69.891,12.305,69.891,12.774L69.891,12.774z M67.247,9.028c0.16-0.118,0.196-0.312,0.196-0.51
	c0-0.195,0.084-0.314,0.239-0.314c0.114,0,0.193,0.159,0.193,0.512c0,0.352,0.076,0.508,0.197,0.508
	c-0.121,0.155-0.197,0.274-0.197,0.43c0,0.118-0.079,0.197-0.193,0.197c-0.239-0.117-0.357-0.274-0.396-0.393
	C67.247,9.303,67.247,9.185,67.247,9.028L67.247,9.028z M33.432,42.14c-0.311,0-0.592,0.082-0.801,0.229
	c-0.214,0.164-0.328,0.377-0.328,0.639c0,0.23,0.114,0.427,0.311,0.605c0.194,0.165,0.396,0.262,0.557,0.262
	c0.182,0,0.377-0.08,0.605-0.229c0.231-0.146,0.342-0.326,0.342-0.558c0-0.179-0.046-0.358-0.161-0.556
	C33.842,42.321,33.661,42.191,33.432,42.14L33.432,42.14z M47.841,33.088c-0.196-0.352-0.473-0.665-0.787-0.976
	c-0.271-0.316-0.659-0.472-1.057-0.472c-0.272,0-0.43,0.155-0.43,0.431c0,0.822,0.393,1.564,1.215,2.271
	c0.78,0.665,1.29,1.018,1.492,1.018c0.113,0,0.188-0.079,0.188-0.197c-0.121-0.43-0.233-0.821-0.311-1.174
	C48.072,33.598,47.998,33.284,47.841,33.088L47.841,33.088z M47.993,51.495c-0.029-0.025-0.059-0.035-0.083-0.04
	c-0.027-0.007-0.042-0.024-0.063-0.052c0-0.034,0.045-0.047,0.133-0.041c0.094,0.007,0.138-0.012,0.138-0.051
	c0-0.023-0.01-0.043-0.034-0.067c-0.02-0.025-0.028-0.05-0.028-0.087c0-0.045,0.023-0.066,0.078-0.057
	c0.047,0.012,0.068-0.011,0.068-0.063c0-0.015,0-0.045-0.01-0.079c-0.013-0.032-0.019-0.066-0.019-0.096
	c0.009-0.014,0.027-0.035,0.053-0.063c0.029-0.029,0.06-0.064,0.087-0.099c0.025-0.034,0.057-0.069,0.07-0.097
	c0.024-0.031,0.029-0.045,0.029-0.045c0.052,0,0.089,0.006,0.123,0.027c0.029,0.023,0.071,0.029,0.123,0.029
	c0.069-0.108,0.147-0.178,0.239-0.213c0.021,0.025,0.062,0.035,0.118,0.035c0.081,0,0.13-0.004,0.153-0.018
	c0.019-0.013,0.032-0.021,0.04-0.037c0.011-0.015,0.024-0.044,0.034-0.076c0.01-0.033,0.034-0.074,0.071-0.115
	c0.023,0.035,0.032,0.068,0.042,0.107c0,0.04,0.01,0.074,0.023,0.104c0.021,0.035,0.04,0.058,0.061,0.088
	c0.032,0.021,0.073,0.031,0.151,0.031c0.027,0,0.046-0.006,0.061-0.024c0.015-0.022,0.034-0.029,0.059-0.029h-0.067
	c0,0.007,0.039,0.029,0.109,0.05c0.071,0.024,0.147,0.068,0.244,0.131c0.088,0.059,0.167,0.138,0.236,0.24
	c0.073,0.096,0.104,0.223,0.104,0.357c0,0.023-0.008,0.039-0.031,0.063c-0.021,0.016-0.029,0.039-0.029,0.058
	c0,0.034,0.01,0.062,0.029,0.091c0.023,0.035,0.031,0.074,0.031,0.118c0,0.04-0.021,0.087-0.062,0.129
	c0.023,0.015,0.054,0.03,0.086,0.039c0.032,0.01,0.071,0.026,0.097,0.044c-0.011,0.04-0.024,0.064-0.063,0.068
	c-0.029,0.002-0.058,0.011-0.089,0.011c-0.029,0-0.06,0.005-0.083,0.028c-0.022,0.016-0.037,0.064-0.037,0.133
	c0,0.033,0.005,0.056,0.015,0.074c0.015,0.021,0.021,0.049,0.021,0.08c-0.087,0-0.137,0.023-0.162,0.082
	c-0.037,0.053-0.047,0.108-0.047,0.153c-0.024,0-0.04,0-0.051-0.01c-0.01-0.013-0.028-0.021-0.042-0.021h0.027
	c0,0.012-0.027,0.029-0.084,0.055c-0.054,0.026-0.11,0.054-0.172,0.084c-0.058,0.029-0.118,0.063-0.172,0.098
	c-0.058,0.032-0.084,0.066-0.084,0.094c-0.04-0.039-0.093-0.054-0.147-0.054c-0.05,0-0.087,0.01-0.097,0.044
	c-0.021,0.027-0.058,0.05-0.115,0.05c-0.021,0-0.037-0.024-0.062-0.065c-0.019-0.041-0.066-0.063-0.146-0.063
	c0,0.05-0.034,0.089-0.094,0.129c-0.012-0.024-0.032-0.065-0.074-0.129c-0.039-0.057-0.091-0.118-0.152-0.177
	c-0.059-0.064-0.128-0.118-0.212-0.167c-0.078-0.048-0.175-0.079-0.285-0.079c0.063-0.084,0.095-0.178,0.095-0.264
	c0-0.063-0.025-0.155-0.064-0.275C48.043,51.552,48.016,51.495,47.993,51.495L47.993,51.495z M14.612,67.396
	c0,0.112-0.042,0.191-0.118,0.191h-0.115L14.3,67.472c0-0.041-0.04-0.119-0.077-0.16c-0.042-0.037-0.042-0.073-0.042-0.152
	c0.119-0.118,0.198-0.314,0.198-0.592c0-0.271,0-0.506,0-0.625c0.43,0,0.625,0.197,0.625,0.625
	C15.004,66.844,14.886,67.119,14.612,67.396L14.612,67.396z M7.153,68.084c0-0.118,0.039-0.354,0.119-0.628
	c0.04-0.273,0.076-0.471,0.076-0.628h0.824c0,0.235,0.076,0.435,0.232,0.628c0.119,0.236,0.194,0.432,0.194,0.628
	c0,0.197-0.075,0.468-0.194,0.783c-0.156,0.313-0.232,0.549-0.232,0.665c-0.194-0.197-0.43-0.391-0.667-0.547
	C7.272,68.788,7.153,68.515,7.153,68.084L7.153,68.084z M60.176,70.071c-0.628,0-0.979-0.51-1.059-1.487
	c-0.118-1.021-0.155-1.879-0.155-2.664c0.586,0.625,0.898,1.253,0.898,1.879c0,0.628,0.118,1.29,0.314,2.075L60.176,70.071
	L60.176,70.071z M9.708,52.615c0.237,0,0.396,0.118,0.471,0.313c0.118,0.236,0.158,0.395,0.158,0.507
	c0,0.236-0.12,0.396-0.354,0.553c-0.232,0.115-0.548,0.35-0.861,0.703c0-0.117,0-0.473,0-1.02c0-0.546,0.119-0.822,0.391-0.822
	L9.708,52.615L9.708,52.615z M73.653,10.014c-0.276,0-0.542,0-0.542,0.04c-0.138,0.039-0.408,0.078-0.542,0.078
	c-1.491,0-2.166-0.273-2.166-0.861c0-0.276,0.675-0.394,2.166-0.394c0.404,0,0.948,0.079,1.354,0.238
	c0.542,0.196,0.813,0.392,0.813,0.587c-0.542,0-0.813,0.037-0.813,0.118v0.076L73.653,10.014L73.653,10.014z M45.511,67.043
	c0-0.276,0.113-0.431,0.39-0.431c0,0.35-0.039,0.742-0.157,1.25c-0.079,0.473-0.313,0.9-0.666,1.217
	c0.157-0.393,0.239-0.744,0.314-1.059C45.473,67.707,45.511,67.354,45.511,67.043L45.511,67.043z M29.926,71.435
	c-0.548-0.744-0.938-1.684-1.139-2.74c-0.189-1.055-0.586-2.076-1.133-3.053c0-0.156,0.157-0.197,0.428-0.197
	c0.119,0,0.315,0.197,0.555,0.627c0.231,0.389,0.509,0.9,0.779,1.525c0.272,0.625,0.51,1.256,0.744,1.879
	c0.194,0.627,0.313,1.135,0.39,1.528c0,0.158,0,0.271,0,0.431c0,0.155-0.075,0.195-0.194,0.195
	C30.203,71.63,30.084,71.59,29.926,71.435L29.926,71.435z M36.275,66.051c0.038,0.078,0.075,0.152,0.075,0.194
	c0.081,0.079,0.119,0.236,0.119,0.431c0,0.118-0.038,0.197-0.119,0.197h-0.075c-0.353,0-0.629-0.197-0.786-0.549
	c-0.194-0.392-0.353-0.707-0.467-0.901c0.391,0,0.705,0.076,0.817,0.194C35.999,65.774,36.118,65.894,36.275,66.051L36.275,66.051z
	 M10.54,76.662c0,0.118-0.042,0.274-0.08,0.389c-0.038,0.158-0.158,0.199-0.353,0.199H9.988c-0.039,0-0.152-0.041-0.312-0.199
	l0.234-0.389c0.119-0.276,0.271-0.431,0.39-0.431v0.115C10.302,76.386,10.384,76.507,10.54,76.662L10.54,76.662z M24.109,79.519
	c0-0.395,0.082-0.746,0.239-1.021c0.194-0.273,0.586-0.43,1.21-0.43C25.362,78.771,24.859,79.242,24.109,79.519L24.109,79.519z
	 M34.823,67.592c0.39,0,0.666,0.076,0.823,0.197c0.113,0.153,0.188,0.504,0.188,1.054c-0.427,0-0.698-0.078-0.817-0.23
	C34.86,68.49,34.823,68.14,34.823,67.592L34.823,67.592z M19.881,77.923c-0.271-0.117-0.624-0.39-1.058-0.822
	c0.353,0,0.742,0.078,1.139,0.157c0.43,0.118,0.742,0.353,0.938,0.665c0,0.434-0.079,0.628-0.194,0.628
	c-0.199,0-0.352-0.04-0.471-0.194C20.12,78.198,20,78.08,19.881,77.923L19.881,77.923z M39.405,67.476
	c-0.196-0.115-0.435-0.271-0.744-0.47c-0.313-0.157-0.472-0.431-0.472-0.782c0-0.273,0.195-0.39,0.63-0.39
	c0.113,0,0.309,0.037,0.586,0.151c0.313,0.08,0.428,0.315,0.428,0.668C39.833,66.927,39.719,67.203,39.405,67.476L39.405,67.476z
	 M30.23,73.624c-0.115,0.157-0.271,0.195-0.392,0.195c-0.353,0-0.704-0.156-1.095-0.469c-0.39-0.313-0.586-0.625-0.586-0.979
	c0-0.042,0.037-0.118,0.113-0.199h0.12c0.39,0,0.818,0.081,1.215,0.199c0.428,0.154,0.704,0.507,0.817,1.054
	C30.426,73.545,30.389,73.624,30.23,73.624L30.23,73.624z M27.755,80.537c-0.354,0-0.668-0.157-0.98-0.431
	c-0.312-0.273-0.467-0.625-0.467-1.021c0.547,0,0.897,0.079,1.058,0.313c0.114,0.197,0.309,0.434,0.586,0.707
	C27.95,80.38,27.911,80.537,27.755,80.537L27.755,80.537z M20.052,73.987c-0.352,0-0.667-0.078-0.897-0.275
	c-0.234-0.156-0.354-0.428-0.354-0.781c0.158,0,0.435,0.08,0.938,0.156c0.474,0.118,0.706,0.354,0.706,0.704
	C20.442,73.909,20.328,73.987,20.052,73.987L20.052,73.987z M23.002,69.576c-0.121-0.16-0.201-0.353-0.201-0.63
	c0-0.158,0.08-0.192,0.201-0.192c0.622,0,1.252,0.192,1.876,0.586v0.236c-0.157,0-0.271,0.039-0.429,0.075
	c-0.119,0.076-0.277,0.117-0.396,0.117c-0.233,0-0.392-0.041-0.506-0.117C23.392,69.615,23.233,69.576,23.002,69.576L23.002,69.576z
	 M51.094,76.918c0,0.272-0.077,0.431-0.234,0.431c-0.315,0-0.591-0.272-0.743-0.785c-0.195-0.506-0.276-0.938-0.276-1.289
	c0-0.157,0.04-0.236,0.118-0.313c0.04-0.081,0.079-0.196,0.079-0.315c0.192,0.354,0.435,0.707,0.665,1.102
	C50.973,76.097,51.094,76.489,51.094,76.918L51.094,76.918z M18.462,30.216c0.392,0.627,0.818,1.214,1.253,1.762
	c0.386,0.548,0.586,1.135,0.586,1.76c0,0.549,0.156,0.821,0.428,0.821c0.12,0,0.238-0.193,0.314-0.625
	c0.081-0.39,0.156-0.665,0.315-0.821c0.075,0,0.075,0.038,0.075,0.117c0.081,0.079,0.118,0.155,0.118,0.314
	c0,0.194-0.037,0.352-0.118,0.51c-0.039,0.114-0.157,0.313-0.271,0.506h1.448c0-0.193-0.038-0.392-0.12-0.625
	c-0.075-0.196-0.119-0.39-0.119-0.625c0.436,0,0.787-0.079,1.059-0.236c0.276-0.195,0.473-0.587,0.629-1.211l-0.861,0.86
	c0-0.236-0.038-0.43-0.158-0.704c-0.076-0.235-0.231-0.354-0.428-0.354c-0.435,0-0.629,0.197-0.586,0.51
	c0.038,0.352-0.12,0.586-0.472,0.742c-0.354-0.431-0.744-0.783-1.177-1.095C19.909,31.509,19.28,30.997,18.462,30.216L18.462,30.216
	z M24.487,80.401c0,0.117,0.042,0.275,0.081,0.392c0.075,0.158,0.114,0.276,0.156,0.353c0.038,0.121,0.075,0.199,0.155,0.275
	c0.154,0,0.273,0,0.431,0c0.12,0,0.194-0.076,0.194-0.193C25.506,80.678,25.154,80.401,24.487,80.401L24.487,80.401z M19.434,66.14
	c-0.158,0-0.392,0.039-0.744,0.157c-0.353,0.078-0.509,0.236-0.509,0.47c0-0.078,0.042-0.117,0.117-0.117
	c0.039,0,0.078,0.194,0.078,0.588c0,0.353,0.079,0.548,0.237,0.548h-0.237c0.275-0.079,0.508-0.158,0.747-0.312
	c0.466-0.274,0.7-0.512,0.7-0.707C19.824,66.608,19.71,66.415,19.434,66.14L19.434,66.14z M73.778,29.604
	c0-0.228,0.131-0.33,0.335-0.33c0.234,0,0.333-0.146,0.333-0.438c0-0.105-0.042-0.228-0.099-0.331
	c-0.09-0.104-0.108-0.228-0.108-0.333c0-0.041,0-0.063,0.02-0.083c0.021-0.022,0.021-0.044,0.021-0.084l0.069-0.043
	c0.535,0,1.098,0.146,1.679,0.458c0.562,0.31,0.83,0.853,0.83,1.623c0,0.331-0.103,0.623-0.354,0.852
	c-0.229,0.229-0.557,0.354-0.952,0.354c-0.333,0-0.562-0.065-0.712-0.208c-0.146-0.146-0.271-0.313-0.354-0.5
	c-0.102-0.188-0.183-0.373-0.286-0.562C74.113,29.813,73.968,29.669,73.778,29.604L73.778,29.604z M29.117,75.746
	c-0.43-0.394-0.63-0.822-0.63-1.216c0.081,0,0.158-0.04,0.2-0.116v-0.118c0.233,0,0.505,0.393,0.896,1.096
	c0.352,0.743,0.628,1.411,0.785,2.036v0.079c0,0-0.081,0.039-0.239,0.115c-0.309-0.157-0.622-0.35-0.855-0.586
	c-0.237-0.233-0.353-0.512-0.353-0.861c0.036,0,0.076-0.04,0.076-0.117C29.073,75.981,29.117,75.903,29.117,75.746L29.117,75.746z
	 M47.556,70.278c0,0.119,0,0.277,0,0.431c0,0.118-0.079,0.196-0.236,0.196c-0.197,0-0.313-0.233-0.35-0.664
	c-0.046-0.471-0.121-0.862-0.241-1.215c0.313,0.156,0.512,0.353,0.549,0.589C47.319,69.847,47.397,70.083,47.556,70.278
	L47.556,70.278z M11.855,33.529c-0.044-0.035-0.081-0.048-0.114-0.057c-0.044-0.009-0.066-0.035-0.101-0.078
	c0-0.047,0.065-0.066,0.199-0.055c0.136,0.008,0.199-0.02,0.199-0.077c0-0.034-0.019-0.067-0.048-0.101
	c-0.026-0.032-0.042-0.074-0.042-0.126c0-0.066,0.03-0.1,0.105-0.081c0.075,0.015,0.108-0.019,0.108-0.094
	c0-0.026,0-0.066-0.019-0.117c-0.016-0.049-0.024-0.101-0.024-0.141c0.021-0.017,0.043-0.051,0.076-0.095
	c0.043-0.038,0.085-0.091,0.129-0.14c0.038-0.05,0.08-0.099,0.104-0.143c0.032-0.049,0.042-0.067,0.042-0.067
	c0.077,0,0.135,0.008,0.188,0.045c0.037,0.032,0.094,0.041,0.171,0.041c0.101-0.159,0.219-0.26,0.353-0.312
	c0.033,0.035,0.09,0.052,0.177,0.052c0.114,0,0.189-0.007,0.224-0.026c0.024-0.015,0.052-0.033,0.058-0.057
	c0.02-0.017,0.033-0.059,0.053-0.109c0.021-0.052,0.052-0.107,0.11-0.166c0.032,0.049,0.046,0.101,0.057,0.157
	c0,0.059,0.02,0.11,0.044,0.149c0.021,0.052,0.047,0.086,0.08,0.127c0.042,0.033,0.108,0.052,0.219,0.052
	c0.043,0,0.076-0.011,0.092-0.043c0.021-0.026,0.052-0.043,0.084-0.043h-0.09c0,0.017,0.047,0.043,0.152,0.075
	c0.104,0.033,0.22,0.104,0.355,0.193c0.129,0.084,0.249,0.202,0.35,0.35c0.108,0.146,0.157,0.326,0.157,0.527
	c0,0.033-0.016,0.058-0.049,0.092c-0.027,0.023-0.043,0.057-0.043,0.085c0,0.047,0.016,0.09,0.043,0.133
	c0.033,0.048,0.049,0.107,0.049,0.176c0,0.057-0.033,0.123-0.092,0.184c0.033,0.024,0.076,0.047,0.124,0.058
	c0.053,0.016,0.101,0.042,0.144,0.065c-0.014,0.059-0.043,0.092-0.091,0.1c-0.042,0.009-0.085,0.016-0.134,0.016
	c-0.043,0-0.085,0.008-0.118,0.043c-0.038,0.024-0.058,0.094-0.058,0.201c0,0.043,0.009,0.075,0.023,0.108
	c0.02,0.026,0.028,0.068,0.028,0.109c-0.129,0-0.206,0.041-0.243,0.123c-0.053,0.078-0.071,0.162-0.071,0.228
	c-0.028,0-0.058,0-0.063-0.018c-0.02-0.017-0.043-0.025-0.065-0.025h0.037c0,0.017-0.037,0.043-0.123,0.076
	c-0.076,0.04-0.162,0.083-0.253,0.124c-0.081,0.043-0.171,0.091-0.247,0.142c-0.085,0.052-0.129,0.1-0.129,0.143
	c-0.058-0.059-0.128-0.086-0.216-0.086c-0.075,0-0.124,0.021-0.143,0.069c-0.023,0.042-0.081,0.067-0.167,0.067
	c-0.032,0-0.057-0.034-0.09-0.093c-0.024-0.057-0.101-0.091-0.218-0.091c0,0.075-0.051,0.134-0.136,0.185
	c-0.015-0.034-0.048-0.093-0.108-0.185c-0.058-0.081-0.134-0.175-0.225-0.26c-0.082-0.091-0.19-0.175-0.31-0.241
	c-0.114-0.075-0.259-0.117-0.415-0.117c0.09-0.124,0.134-0.258,0.134-0.39c0-0.095-0.034-0.228-0.092-0.404
	C11.931,33.613,11.888,33.529,11.855,33.529L11.855,33.529z M73.798,0.388C74.348,0.115,74.699,0,74.854,0
	c0.311,0,0.625,0.038,0.821,0.115c0.192,0.041,0.396,0.079,0.625,0.079c0,0.545-0.153,0.898-0.433,1.058
	c-0.353,0-0.778-0.079-1.29-0.235c-0.51-0.118-0.781-0.277-0.781-0.393L73.798,0.388L73.798,0.388z M53.464,7.776
	c-0.433,0-0.779-0.118-1.056-0.394c0-0.078,0.037-0.118,0.118-0.118c0.076-0.077,0.157-0.077,0.31-0.077
	c0.195,0,0.354,0.039,0.472,0.195C53.388,7.503,53.464,7.658,53.464,7.776L53.464,7.776z M60.095,62.574
	c0,0.155-0.121,0.235-0.315,0.311c-0.194,0.083-0.426,0.12-0.623,0.12c-0.63,0-0.942-0.275-0.942-0.861
	c0-0.194,0.118-0.313,0.313-0.353c0.197-0.039,0.392-0.039,0.512-0.039C59.543,61.752,59.896,62.024,60.095,62.574L60.095,62.574z
	 M61.557,6.207c0.271,0,0.668-0.118,1.136-0.433c0.507-0.272,0.743-0.586,0.743-1.016c0-0.079-0.039-0.116-0.116-0.197h-0.076
	c-0.433,0-0.785,0.197-1.063,0.549C61.909,5.501,61.715,5.854,61.557,6.207L61.557,6.207z M34.885,9
	c-0.543,0-1.015,0.155-1.367,0.47c-0.391,0.313-0.667,0.662-0.898,0.978c0,0.158,0.156,0.237,0.428,0.237
	c0.55,0,0.98-0.196,1.333-0.589C34.732,9.705,34.885,9.351,34.885,9L34.885,9z M36.1,16.054c0.155-0.196,0.391-0.47,0.741-0.783
	c0.315-0.313,0.511-0.743,0.511-1.291c0-0.08-0.038-0.118-0.075-0.158c0-0.038-0.044-0.079-0.044-0.156l-0.115-0.117
	c-0.199,0-0.432,0.273-0.747,0.782c-0.31,0.549-0.466,0.98-0.466,1.294c0,0.156,0.038,0.234,0.076,0.234
	C36.061,15.858,36.1,15.896,36.1,16.054L36.1,16.054z M51.965,86.896c-0.193,0-0.434-0.041-0.667-0.192
	c-0.233-0.118-0.353-0.275-0.353-0.431c0-0.273,0.037-0.472,0.194-0.59c0.354,0,0.586,0,0.785,0.08
	c0.154,0.075,0.233,0.391,0.233,0.939L51.965,86.896L51.965,86.896z M29.307,30.011c0.291,0.291,0.613,0.554,0.934,0.729
	c0.29,0.176,0.439,0.495,0.439,0.961c0,0.73-0.149,1.338-0.496,1.835c-0.319,0.523-0.877,0.784-1.662,0.784
	c-0.695,0-1.281-0.261-1.688-0.784c-0.409-0.497-0.613-0.903-0.613-1.224c0-0.612,0.204-1.166,0.613-1.688
	c0.405-0.526,1.076-0.758,2.011-0.758C29.045,29.866,29.192,29.894,29.307,30.011L29.307,30.011z M14.165,54.153
	c0,0.158-0.038,0.197-0.076,0.197H13.97c-0.276,0-0.435-0.197-0.435-0.586c0.157-0.236,0.313-0.435,0.553-0.625
	c0.195-0.236,0.312-0.514,0.312-0.826c0-0.232-0.038-0.431-0.115-0.625c-0.081-0.235-0.119-0.431-0.119-0.627
	c0.156-0.43,0.315-0.861,0.467-1.369c0.2-0.471,0.436-0.705,0.786-0.705c0.195,0,0.314,0.119,0.354,0.312
	c0.038,0.199,0.076,0.394,0.076,0.513c0,0.35-0.076,0.782-0.157,1.289c-0.115,0.514-0.233,1.021-0.392,1.45
	c-0.113,0.472-0.313,0.822-0.51,1.136C14.595,53.999,14.399,54.153,14.165,54.153L14.165,54.153z M27.893,12.778
	c0.193-0.432,0.472-0.626,0.822-0.626c0.272,0,0.393,0.156,0.393,0.431c0,0.117-0.119,0.196-0.354,0.196
	C28.521,12.779,28.206,12.778,27.893,12.778L27.893,12.778z M63.576,60.087c0.076,0,0.115,0.04,0.16,0.079
	c0.034,0.037,0.073,0.037,0.154,0.037c0-0.39-0.081-0.938-0.238-1.563c-0.194-0.586-0.429-1.175-0.704-1.724
	c-0.276-0.586-0.547-1.06-0.82-1.447c-0.274-0.431-0.51-0.628-0.706-0.628c-0.154,0-0.235,0.042-0.235,0.197
	c0,0.115,0,0.271,0,0.431c0,0.47,0.118,0.979,0.313,1.487c0.231,0.509,0.474,0.977,0.749,1.41c0.271,0.39,0.541,0.74,0.78,1.057
	c0.234,0.313,0.392,0.508,0.466,0.586L63.576,60.087L63.576,60.087z M69.283,66.603c0-0.547-0.042-1.055-0.081-1.486
	c-0.077-0.469-0.113-0.859-0.113-1.213s0-0.745,0.036-1.215c0.04-0.508,0.077-0.979,0.158-1.408
	c0.076-0.471,0.194-0.862,0.313-1.213c0.151-0.313,0.311-0.512,0.507-0.512c0.158,0,0.235,0.079,0.235,0.236
	c0,1.214-0.037,2.389-0.117,3.443c-0.078,1.06-0.314,2.115-0.743,3.17L69.283,66.603L69.283,66.603z M55.741,75.591
	c-0.549-0.273-0.861-0.701-0.861-1.248c0.155,0,0.313,0.074,0.43,0.231c0.156,0.118,0.274,0.196,0.433,0.196L55.741,75.591
	L55.741,75.591z M28.646,58.339c0.348,0,0.586,0.04,0.779,0.118c0.158,0.079,0.233,0.313,0.233,0.705
	c0,0.353-0.075,0.625-0.233,0.782c-0.193,0.193-0.39,0.353-0.586,0.468l-0.823,0.431c-0.194,0-0.434-0.076-0.666-0.271
	c-0.234-0.158-0.392-0.354-0.392-0.547c0-0.549,0.194-0.979,0.547-1.254C27.821,58.497,28.211,58.339,28.646,58.339L28.646,58.339z
	 M62.724,4.994c0.159,0,0.238-0.078,0.238-0.195c0-0.155-0.039-0.275-0.079-0.432c0-0.117-0.159-0.196-0.35-0.196
	c-0.275,0-0.392,0.079-0.392,0.196c0,0.156,0.037,0.237,0.152,0.277C62.377,4.681,62.534,4.799,62.724,4.994L62.724,4.994z
	 M72.483,21.223c0.193,0,0.313,0,0.353,0.04c0.039,0.039,0.076,0.234,0.076,0.586c0,0.274-0.076,0.471-0.233,0.628
	c-0.118-0.235-0.313-0.273-0.508-0.235c-0.196,0.079-0.314-0.038-0.314-0.393C71.855,21.653,72.056,21.419,72.483,21.223
	L72.483,21.223z M6.535,61.548c0-0.154-0.081-0.195-0.2-0.195c-0.233,0-0.386,0.236-0.586,0.705
	c-0.152,0.467-0.467,0.939-0.856,1.332c0,0,0.038,0.076,0.075,0.233c0,0.079,0.037,0.118,0.12,0.196
	c0-0.078,0.232-0.354,0.742-0.822C6.297,62.524,6.535,62.019,6.535,61.548L6.535,61.548z M66.38,55.317
	c0.16,0.117,0.197,0.313,0.197,0.511c0,0.196,0.081,0.312,0.239,0.312c0.115,0,0.193-0.156,0.193-0.509
	c0-0.35,0.076-0.51,0.191-0.51c-0.115-0.154-0.191-0.272-0.191-0.431c0-0.115-0.078-0.191-0.193-0.191
	c-0.239,0.111-0.354,0.271-0.396,0.389C66.38,55.043,66.38,55.163,66.38,55.317L66.38,55.317z M83.191,47.554
	c0.379,0,0.719-0.098,0.979-0.278c0.265-0.2,0.401-0.46,0.401-0.781c0-0.28-0.138-0.519-0.382-0.739
	c-0.236-0.202-0.479-0.32-0.681-0.32c-0.222,0-0.458,0.098-0.737,0.278c-0.28,0.182-0.419,0.403-0.419,0.68
	c0,0.222,0.055,0.443,0.199,0.682C82.688,47.336,82.91,47.494,83.191,47.554L83.191,47.554z M14.656,73.896
	c0-0.119-0.039-0.197-0.119-0.197h-0.114l-0.076,0.117c0,0.041-0.041,0.119-0.081,0.158c-0.038,0.034-0.038,0.078-0.038,0.152
	c0.119,0.118,0.195,0.314,0.195,0.589c0,0.275,0,0.509,0,0.627c0.429,0,0.629-0.196,0.629-0.627
	C15.052,74.44,14.932,74.168,14.656,73.896L14.656,73.896z M13.693,70.866c0,0.117,0.042,0.354,0.12,0.63
	c0.036,0.271,0.076,0.468,0.076,0.626h0.822c0-0.236,0.076-0.434,0.234-0.626c0.119-0.236,0.194-0.433,0.194-0.63
	c0-0.192-0.075-0.469-0.194-0.78c-0.158-0.313-0.234-0.549-0.234-0.667c-0.194,0.196-0.434,0.395-0.667,0.546
	C13.813,70.162,13.693,70.438,13.693,70.866L13.693,70.866z M8.826,68.335c-0.629,0-0.98,0.51-1.058,1.49
	c-0.119,1.017-0.157,1.878-0.157,2.66c0.586-0.625,0.898-1.25,0.898-1.875c0-0.631,0.12-1.295,0.315-2.078L8.826,68.335
	L8.826,68.335z M45.386,72.854c0.233,0,0.392-0.117,0.471-0.313c0.116-0.234,0.155-0.393,0.155-0.51
	c0-0.233-0.116-0.389-0.349-0.547c-0.238-0.118-0.554-0.353-0.864-0.704c0,0.116,0,0.468,0,1.018s0.116,0.819,0.393,0.819
	L45.386,72.854L45.386,72.854z M9.175,64.489c-0.083,0-0.113-0.042-0.195-0.118c-0.077,0-0.157,0-0.195-0.042
	c-0.081-0.036-0.157-0.078-0.234-0.078c-0.274,0-0.551,0.155-0.822,0.432c0,0.551,0.151,0.821,0.429,0.821
	c0.195,0,0.395-0.118,0.548-0.353C8.901,64.915,9.061,64.683,9.175,64.489L9.175,64.489z M44.877,68.885c-0.077,0-0.15,0-0.15-0.036
	c-0.044-0.041-0.12-0.08-0.159-0.08c-0.434,0-0.628,0.275-0.628,0.861c0,0.273,0.194,0.395,0.628,0.395
	c0.115,0,0.272-0.084,0.392-0.235c0.157-0.197,0.233-0.396,0.233-0.591c-0.157,0-0.233-0.035-0.233-0.118V69L44.877,68.885
	L44.877,68.885z M16.757,10.073c0,0.273,0.119,0.428,0.391,0.428c0-0.352-0.037-0.742-0.156-1.25c-0.076-0.47-0.311-0.9-0.662-1.215
	c0.151,0.393,0.232,0.745,0.31,1.057C16.719,9.406,16.757,9.759,16.757,10.073L16.757,10.073z M39.429,85.569
	c-0.158,0-0.196,0.078-0.196,0.193v0.195c0.196,0.549,0.468,1.177,0.782,1.881c0.271,0.704,0.509,1.018,0.666,1.018
	c0.118,0,0.194-0.037,0.194-0.08v-0.114c0-0.55-0.194-1.017-0.59-1.448c-0.349-0.433-0.663-0.9-0.856-1.449V85.569L39.429,85.569z
	 M9.035,75.851c-0.548,0.74-0.938,1.682-1.137,2.736c-0.196,1.057-0.586,2.073-1.136,3.057c0,0.154,0.157,0.193,0.43,0.193
	c0.12,0,0.313-0.193,0.552-0.625c0.234-0.393,0.506-0.9,0.781-1.529c0.271-0.625,0.51-1.252,0.743-1.877
	c0.194-0.627,0.313-1.139,0.39-1.527c0-0.157,0-0.275,0-0.428c0-0.158-0.075-0.199-0.194-0.199
	C9.307,75.649,9.191,75.69,9.035,75.851L9.035,75.851z M24.405,72.944c0.044-0.082,0.082-0.157,0.082-0.197
	c0.081-0.078,0.118-0.236,0.118-0.428c0-0.121-0.037-0.197-0.118-0.197h-0.082c-0.354,0-0.623,0.197-0.781,0.547
	c-0.194,0.395-0.352,0.704-0.466,0.9c0.39,0,0.7-0.078,0.819-0.196C24.134,73.215,24.254,73.101,24.405,72.944L24.405,72.944z
	 M13.146,72.42c0,0.118,0.044,0.272,0.118,0.392c0.04,0.157,0.082,0.271,0.082,0.429l0.232-0.819L13.146,72.42L13.146,72.42z
	 M67.351,67.912c0-0.118-0.045-0.272-0.084-0.396c-0.034-0.154-0.15-0.193-0.351-0.193h-0.121c-0.036,0-0.148,0.039-0.31,0.193
	l0.233,0.396c0.117,0.272,0.275,0.431,0.396,0.431v-0.115C67.116,68.187,67.192,68.069,67.351,67.912L67.351,67.912z M66.404,69.429
	c0,0.393,0.077,0.743,0.237,1.018c0.19,0.272,0.586,0.431,1.211,0.431C67.658,70.172,67.148,69.702,66.404,69.429L66.404,69.429z
	 M23.059,73.082c-0.234,0-0.393,0.112-0.47,0.39c-0.117,0.271-0.155,0.508-0.155,0.625c0,0.236,0.077,0.393,0.313,0.471
	c0.194,0.117,0.35,0.154,0.505,0.154c0.195,0,0.436-0.117,0.667-0.389c0.238-0.271,0.354-0.514,0.354-0.628
	C24.273,73.274,23.882,73.082,23.059,73.082L23.059,73.082z M33.536,78.794c-0.195,0.118-0.428,0.275-0.743,0.469
	c-0.313,0.156-0.47,0.434-0.47,0.782c0,0.274,0.194,0.394,0.627,0.394c0.115,0,0.314-0.039,0.586-0.154
	c0.314-0.081,0.429-0.314,0.429-0.667C33.965,79.341,33.851,79.069,33.536,78.794L33.536,78.794z M61.495,71.653
	c-0.35,0-0.662,0.158-0.975,0.432c-0.315,0.273-0.474,0.628-0.474,1.018c0.548,0,0.898-0.078,1.06-0.311
	c0.118-0.197,0.313-0.434,0.586-0.707C61.692,71.812,61.653,71.653,61.495,71.653L61.495,71.653z M66.843,49.265
	c-0.352,0-0.658,0.078-0.897,0.271c-0.233,0.156-0.353,0.434-0.353,0.788c0.157,0,0.434-0.079,0.942-0.158
	c0.471-0.118,0.702-0.354,0.702-0.704C67.237,49.343,67.121,49.265,66.843,49.265L66.843,49.265z M25.815,6.969
	c0-0.271-0.076-0.43-0.233-0.43c-0.313,0-0.591,0.273-0.742,0.784c-0.195,0.508-0.275,0.939-0.275,1.291
	c0,0.157,0.042,0.235,0.119,0.313c0.037,0.079,0.074,0.195,0.074,0.313c0.196-0.354,0.435-0.706,0.668-1.097
	C25.701,7.791,25.815,7.401,25.815,6.969L25.815,6.969z M70.883,43.769c0.393-0.625,0.82-1.214,1.255-1.762
	c0.389-0.549,0.586-1.136,0.586-1.76c0-0.55,0.156-0.822,0.433-0.822c0.113,0,0.231,0.194,0.311,0.624
	c0.079,0.393,0.157,0.668,0.313,0.822c0.076,0,0.076-0.037,0.076-0.117c0.082-0.079,0.118-0.155,0.118-0.313
	c0-0.194-0.036-0.353-0.118-0.51c-0.036-0.116-0.152-0.313-0.271-0.507h1.448c0,0.194-0.04,0.391-0.118,0.624
	c-0.079,0.198-0.113,0.393-0.113,0.626c0.427,0,0.777,0.079,1.052,0.236c0.274,0.194,0.471,0.587,0.628,1.212l-0.861-0.86
	c0,0.235-0.04,0.43-0.158,0.704c-0.075,0.235-0.232,0.354-0.428,0.354c-0.434,0-0.628-0.197-0.586-0.51
	c0.039-0.353-0.118-0.587-0.474-0.745c-0.351,0.432-0.74,0.783-1.178,1.098C72.331,42.477,71.703,42.986,70.883,43.769
	L70.883,43.769z M66.749,74.618c0-0.118,0.037-0.273,0.077-0.389c0.081-0.157,0.12-0.278,0.154-0.354
	c0.045-0.118,0.084-0.197,0.158-0.272c0.156,0,0.272,0,0.434,0c0.115,0,0.196,0.075,0.196,0.193
	C67.769,74.345,67.412,74.618,66.749,74.618L66.749,74.618z M66.449,76.47c-0.152,0-0.389-0.039-0.744-0.152
	c-0.352-0.08-0.504-0.235-0.504-0.473c0,0.078,0.036,0.118,0.115,0.118c0.037,0,0.074-0.196,0.074-0.586
	c0-0.354,0.083-0.552,0.237-0.552H65.39c0.277,0.078,0.51,0.156,0.748,0.314c0.468,0.275,0.703,0.508,0.703,0.704
	C66.843,76.002,66.725,76.199,66.449,76.47L66.449,76.47z M0,77.642c0,0.137,0.071,0.197,0.195,0.197
	c0.133,0,0.194,0.084,0.194,0.256c0,0.061-0.023,0.133-0.063,0.192c-0.048,0.063-0.062,0.135-0.062,0.196
	c0,0.024,0,0.037,0.014,0.05c0.01,0.01,0.01,0.022,0.01,0.047l0.038,0.026c0.314,0,0.644-0.086,0.987-0.271
	c0.328-0.183,0.484-0.497,0.484-0.95c0-0.193-0.058-0.367-0.203-0.5c-0.136-0.135-0.33-0.203-0.564-0.203
	c-0.194,0-0.327,0.031-0.413,0.117c-0.085,0.086-0.158,0.184-0.204,0.297c-0.063,0.106-0.109,0.215-0.172,0.323
	C0.195,77.519,0.104,77.604,0,77.642L0,77.642z M50.524,68.849c-0.429,0.394-0.623,0.821-0.623,1.215
	c0.081,0,0.158,0.039,0.194,0.117v0.117c0.235,0,0.513-0.392,0.9-1.096c0.354-0.744,0.626-1.411,0.783-2.039v-0.076
	c0,0-0.079-0.039-0.236-0.118c-0.308,0.155-0.623,0.354-0.861,0.587c-0.231,0.235-0.351,0.51-0.351,0.863
	c0.035,0,0.079,0.039,0.079,0.116C50.487,68.612,50.524,68.688,50.524,68.849L50.524,68.849z M40.152,76.269
	c0-0.119,0-0.275,0-0.432c0-0.115-0.075-0.193-0.234-0.193c-0.193,0-0.313,0.233-0.352,0.664c-0.038,0.471-0.12,0.861-0.234,1.211
	c0.312-0.151,0.511-0.35,0.549-0.586C39.918,76.701,39.996,76.463,40.152,76.269L40.152,76.269z M34.093,71.229
	c-0.036,0.035-0.075,0.051-0.104,0.061c-0.043,0.005-0.067,0.029-0.096,0.068c0,0.045,0.063,0.062,0.186,0.052
	c0.123-0.007,0.188,0.018,0.188,0.071c0,0.029-0.016,0.062-0.049,0.094c-0.024,0.031-0.036,0.068-0.036,0.115
	c0,0.063,0.031,0.097,0.099,0.076c0.072-0.015,0.104,0.021,0.104,0.09c0,0.021,0,0.062-0.018,0.106
	c-0.015,0.045-0.024,0.095-0.024,0.134c0.021,0.016,0.042,0.045,0.071,0.084c0.038,0.036,0.075,0.084,0.114,0.133
	c0.038,0.045,0.08,0.094,0.104,0.131c0.028,0.047,0.037,0.062,0.037,0.062c0.073,0,0.125-0.005,0.173-0.037
	c0.038-0.03,0.092-0.036,0.162-0.036c0.096,0.144,0.199,0.236,0.324,0.285c0.031-0.029,0.085-0.049,0.166-0.049
	c0.104,0,0.176,0.01,0.21,0.025c0.02,0.014,0.047,0.031,0.052,0.053c0.015,0.018,0.033,0.055,0.049,0.104
	c0.016,0.047,0.047,0.1,0.101,0.152c0.033-0.047,0.046-0.093,0.057-0.146c0-0.055,0.016-0.1,0.038-0.139
	c0.023-0.049,0.043-0.078,0.076-0.117c0.039-0.029,0.1-0.048,0.2-0.048c0.038,0,0.07,0.011,0.085,0.042
	c0.023,0.021,0.048,0.039,0.081,0.039h-0.086c0-0.02,0.045-0.039,0.148-0.07c0.09-0.032,0.199-0.095,0.322-0.181
	c0.124-0.079,0.234-0.188,0.33-0.325c0.1-0.133,0.146-0.305,0.146-0.488c0-0.032-0.019-0.057-0.047-0.088
	c-0.023-0.023-0.038-0.054-0.038-0.078c0-0.045,0.015-0.084,0.038-0.122c0.028-0.05,0.047-0.099,0.047-0.163
	c0-0.055-0.031-0.118-0.085-0.17c0.028-0.024,0.066-0.047,0.114-0.057c0.047-0.016,0.095-0.039,0.133-0.063
	c-0.014-0.053-0.038-0.086-0.086-0.094c-0.042-0.008-0.076-0.018-0.123-0.018c-0.038,0-0.075-0.005-0.108-0.035
	c-0.04-0.023-0.054-0.088-0.054-0.187c0-0.039,0.006-0.071,0.022-0.104c0.016-0.02,0.021-0.062,0.021-0.099
	c-0.115,0-0.188-0.039-0.226-0.118c-0.047-0.068-0.062-0.146-0.062-0.212c-0.029,0-0.054,0-0.063,0.019
	c-0.015,0.018-0.038,0.021-0.063,0.021h0.038c0-0.015-0.038-0.04-0.114-0.068c-0.071-0.037-0.146-0.076-0.234-0.115
	c-0.08-0.037-0.166-0.084-0.231-0.131c-0.075-0.049-0.119-0.095-0.119-0.133c-0.052,0.053-0.123,0.075-0.2,0.075
	c-0.071,0-0.114-0.013-0.133-0.062c-0.024-0.039-0.077-0.063-0.152-0.063c-0.034,0-0.057,0.032-0.086,0.086
	c-0.023,0.053-0.095,0.084-0.204,0.084c0-0.068-0.049-0.123-0.125-0.17c-0.014,0.032-0.047,0.086-0.1,0.17
	c-0.054,0.079-0.123,0.162-0.209,0.241c-0.078,0.084-0.184,0.162-0.291,0.228c-0.104,0.067-0.238,0.107-0.385,0.107
	c0.085,0.118,0.122,0.241,0.122,0.364c0,0.084-0.027,0.209-0.086,0.372C34.166,71.157,34.128,71.229,34.093,71.229L34.093,71.229z
	 M48.234,5.015c-0.541,0.118-0.813,0.197-1.085,0.197h-0.406c-0.409,0-0.68-0.079-0.68-0.197c0.952-0.272,1.899-0.43,2.849-0.43
	h0.403c0,0,0.141,0.078,0.411,0.234c0,0.039-0.139,0.079-0.411,0.079C49.045,4.978,48.639,5.015,48.234,5.015L48.234,5.015z
	 M72.304,72.972c0.552,0.275,0.897,0.391,1.057,0.391c0.313,0,0.628-0.038,0.824-0.114c0.193-0.039,0.39-0.076,0.623-0.076
	c0-0.552-0.157-0.903-0.43-1.057c-0.352,0-0.779,0.075-1.292,0.233c-0.507,0.113-0.782,0.271-0.782,0.39V72.972L72.304,72.972z
	 M22.415,85.663c-0.429,0-0.781,0.118-1.052,0.389c0,0.079,0.037,0.121,0.114,0.121c0.074,0.076,0.155,0.076,0.313,0.076
	c0.196,0,0.354-0.039,0.467-0.197C22.339,85.937,22.415,85.781,22.415,85.663L22.415,85.663z M16.675,26.141
	c0-0.158-0.118-0.235-0.31-0.315c-0.194-0.078-0.433-0.116-0.628-0.116c-0.624,0-0.939,0.273-0.939,0.86
	c0,0.196,0.114,0.313,0.315,0.351c0.194,0.042,0.39,0.042,0.51,0.042C16.127,26.963,16.479,26.689,16.675,26.141L16.675,26.141z
	 M17.857,80.417c-0.277,0-0.668,0.115-1.14,0.432c-0.51,0.272-0.743,0.586-0.743,1.02c0,0.076,0.038,0.117,0.118,0.191h0.077
	c0.434,0,0.785-0.191,1.058-0.547C17.505,81.121,17.699,80.769,17.857,80.417L17.857,80.417z M40.929,10.668
	c0.548,0,1.019-0.159,1.37-0.47c0.393-0.314,0.668-0.665,0.9-0.979c0-0.157-0.156-0.236-0.429-0.236
	c-0.546,0-0.977,0.198-1.333,0.588C41.085,9.962,40.929,10.316,40.929,10.668L40.929,10.668z M61.225,81.308
	c-0.157,0.194-0.393,0.471-0.743,0.783c-0.315,0.313-0.51,0.743-0.51,1.293c0,0.076,0.036,0.118,0.075,0.157
	c0,0.039,0.042,0.076,0.042,0.151l0.115,0.119c0.194,0,0.435-0.271,0.741-0.783c0.315-0.547,0.473-0.978,0.473-1.291
	c0-0.156-0.037-0.235-0.076-0.235C61.262,81.502,61.225,81.463,61.225,81.308L61.225,81.308z M20.146,8.896
	c-0.313,0.156-0.508,0.272-0.546,0.392c-0.044,0.076-0.044,0.235-0.044,0.431c0.276,0,0.51-0.159,0.71-0.511
	c0.152-0.116,0.232-0.312,0.31-0.507c-0.156,0-0.195,0.038-0.195,0.116C20.381,8.857,20.306,8.896,20.146,8.896L20.146,8.896z
	 M24.491,66.572c0.157,0.157,0.238,0.235,0.315,0.235h0.117c0.195,0,0.43-0.115,0.667-0.392c0.233-0.233,0.353-0.431,0.353-0.662
	c0-0.667-0.395-1.021-1.137-1.021c-0.625,0-0.938,0.273-0.938,0.822C23.868,66.028,24.063,66.378,24.491,66.572L24.491,66.572z
	 M51.241,63.921c0.261-0.261,0.549-0.495,0.834-0.652c0.262-0.154,0.39-0.439,0.39-0.856c0-0.649-0.128-1.196-0.442-1.64
	c-0.285-0.469-0.78-0.699-1.482-0.699c-0.623,0-1.146,0.23-1.509,0.699c-0.362,0.442-0.549,0.808-0.549,1.094
	c0,0.546,0.187,1.041,0.549,1.509c0.361,0.472,0.968,0.675,1.795,0.675C51.007,64.049,51.14,64.021,51.241,63.921L51.241,63.921z
	 M11.697,91.661c0-0.158-0.037-0.197-0.075-0.197h-0.119c-0.276,0-0.429,0.197-0.429,0.592c0.151,0.23,0.311,0.428,0.548,0.625
	c0.194,0.23,0.31,0.508,0.31,0.819c0,0.235-0.038,0.431-0.114,0.628c-0.08,0.23-0.119,0.428-0.119,0.625
	c0.158,0.432,0.314,0.862,0.473,1.369c0.195,0.47,0.429,0.704,0.78,0.704c0.195,0,0.313-0.116,0.354-0.313
	c0.036-0.193,0.079-0.392,0.079-0.505c0-0.354-0.079-0.784-0.16-1.295c-0.115-0.508-0.234-1.021-0.392-1.448
	c-0.113-0.468-0.311-0.822-0.505-1.135C12.127,91.817,11.931,91.661,11.697,91.661L11.697,91.661z M19.596,67.72
	c0,0.547-0.039,1.057-0.082,1.487c-0.075,0.468-0.114,0.86-0.114,1.211c0,0.354,0,0.746,0.039,1.217
	c0.037,0.507,0.075,0.978,0.157,1.408c0.075,0.474,0.194,0.86,0.313,1.211c0.157,0.315,0.315,0.513,0.511,0.513
	c0.151,0,0.232-0.078,0.232-0.235c0-1.212-0.042-2.39-0.119-3.442c-0.076-1.059-0.309-2.117-0.742-3.176L19.596,67.72L19.596,67.72z
	 M49.85,6.304c-1.9,0.274-2.981,0.704-2.981,1.253c0.544,0,1.081-0.079,1.49-0.234c0.544-0.121,0.95-0.197,1.491-0.197V6.304
	L49.85,6.304z M82.999,18.357c0.354,0,0.586-0.038,0.783-0.117c0.157-0.078,0.231-0.313,0.231-0.705
	c0-0.351-0.074-0.625-0.231-0.782c-0.197-0.195-0.392-0.351-0.586-0.47l-0.825-0.431c-0.194,0-0.429,0.078-0.667,0.274
	c-0.23,0.157-0.389,0.351-0.389,0.548c0,0.548,0.193,0.98,0.546,1.254C82.177,18.201,82.565,18.357,82.999,18.357L82.999,18.357z
	 M37.223,12.55c0.194,0,0.313,0,0.352-0.037c0.04-0.042,0.078-0.236,0.078-0.588c0-0.276-0.078-0.47-0.234-0.629
	c-0.119,0.236-0.313,0.277-0.51,0.236c-0.195-0.078-0.313,0.041-0.313,0.393C36.595,12.121,36.795,12.354,37.223,12.55L37.223,12.55
	z M65.69,66.483c0.275,0.272,0.55,0.432,0.825,0.432c0.271,0,0.431-0.037,0.431-0.118c0.079,0,0.079-0.04,0-0.077
	c0-0.275-0.275-0.431-0.822-0.431C65.849,66.289,65.69,66.368,65.69,66.483L65.69,66.483z M73.422,86.767
	c0,0.154,0.076,0.196,0.196,0.196c0.231,0,0.39-0.235,0.586-0.704c0.155-0.473,0.471-0.939,0.862-1.332c0,0-0.039-0.08-0.081-0.238
	c0-0.073-0.04-0.115-0.116-0.191c0,0.076-0.236,0.35-0.743,0.822C73.653,85.786,73.422,86.299,73.422,86.767L73.422,86.767z
	 M68.354,83.384c-0.157-0.117-0.196-0.314-0.196-0.513c0-0.192-0.079-0.312-0.231-0.312c-0.117,0-0.201,0.155-0.201,0.508
	s-0.076,0.513-0.192,0.513c0.116,0.153,0.192,0.271,0.192,0.429c0,0.118,0.084,0.197,0.201,0.197
	c0.231-0.118,0.348-0.275,0.39-0.395C68.354,83.656,68.354,83.538,68.354,83.384L68.354,83.384z M60.971,75.342
	c0.311,0,0.586,0.082,0.801,0.229c0.212,0.164,0.33,0.377,0.33,0.638c0,0.231-0.118,0.429-0.315,0.604
	c-0.197,0.166-0.39,0.267-0.557,0.267c-0.184,0-0.379-0.083-0.605-0.231c-0.229-0.146-0.345-0.328-0.345-0.556
	c0-0.181,0.049-0.362,0.162-0.558C60.555,75.522,60.737,75.392,60.971,75.342L60.971,75.342z M44.634,76.097
	c0.196-0.354,0.473-0.671,0.787-0.979c0.271-0.315,0.662-0.474,1.052-0.474c0.275,0,0.434,0.157,0.434,0.429
	c0,0.825-0.394,1.567-1.214,2.271c-0.785,0.667-1.291,1.021-1.485,1.021c-0.12,0-0.201-0.076-0.201-0.194
	c0.119-0.435,0.239-0.825,0.315-1.177C44.4,76.603,44.477,76.288,44.634,76.097L44.634,76.097z"/>
</svg>
