<?xml version="1.0" encoding="utf-8"?>
<!-- Generator: Adobe Illustrator 16.0.0, SVG Export Plug-In . SVG Version: 6.00 Build 0)  -->
<!DOCTYPE svg PUBLIC "-//W3C//DTD SVG 1.1//EN" "http://www.w3.org/Graphics/SVG/1.1/DTD/svg11.dtd">
<svg version="1.1" id="Layer_1" xmlns="http://www.w3.org/2000/svg" xmlns:xlink="http://www.w3.org/1999/xlink" x="0px" y="0px"
	 width="100px" height="100px" viewBox="0 0 100 100" enable-background="new 0 0 100 100" xml:space="preserve">
<path fill="#016699" d="M39.759,58.787c-14.565,3.521-41.474,2.836-37.77-8.429c4.569-13.889,8.325-28.502,40.737-5.931
	C12.546,18.949,24.371,9.755,36.608,1.753c9.925-6.49,21.992,23.245,17.673,38.858C56.846,24.616,83.975,10.914,90.3,20.943
	c7.802,12.367,9.498,18.375-28.544,28.994l-4.177,1.208c38.497-8.825,41.594,0.983,40.642,15.574
	c-0.771,11.833-24.892,4.781-37.494-6.5c13.95,8.232,21.023,34.521,9.375,36.743c-14.361,2.742-22.86,9.373-18.843-29.92
	c-5.799,39.069-23.755,31.59-33.918,21.409C8.964,80.059,24.445,65.178,39.759,58.787z"/>
<path fill="#CBDB2A" d="M54.198,55.516c-0.546-4.271-4.251-7.671-7.037-7.314c-2.786,0.356-5.973,6.704-3.18,8.865
	C46.774,59.225,55.023,61.977,54.198,55.516z"/>
<path fill="#5590CC" d="M51.714,41.782c0.355-3.87,0.447-8.696-1.376-12.996c-1.823-4.298-2.986-16.317-3.592-13.704
	c-0.456,1.97,0.79,15.053,1.164,17.979c0.374,2.927-0.942-0.73-4.703-5.772c-3.76-5.043-9.646-10.099-7.603-8.518
	c2.043,1.58,7.194,11.97,8.265,14.807c1.072,2.837,1.538,4.832-2.23,0.286c-3.767-4.547-7.353-5.815-5.991-4.302
	c1.173,1.301,4.581,10.997,7.65,11.737c3.069,0.742,5.039,1.198,5.189,2.382C48.638,44.866,51.714,41.782,51.714,41.782z
	 M40.359,47.598c-0.187-1.46-15.553-10.869-13.142-8.038c1.587,1.864,5.018,6.541,6.016,7.313c0.999,0.772-4.908,0.749-7.216,0.294
	c-2.308-0.456-6.816,2.324-6.067,2.902c0.749,0.58,12.13-0.049,14.309,0.572c2.179,0.623-0.097,2.909-1.713,2.592
	c-1.615-0.319-14.979-1.02-16.602-0.813c-1.624,0.208-4.164,4.213-0.01,5.031c4.153,0.818,5.758,0.464,8.91-0.688
	c3.151-1.152,6.659-0.701,9.609-1.078c2.951-0.377,4.688-2.623,4.688-2.623S40.7,50.268,40.359,47.598z M58.713,47.131
	c4.005-1.255,15.983-4.124,19.564-6.366c3.582-2.243,7.621-4.395,7.621-4.395s-11.287,1.294-14.341,3.021
	c-3.05,1.729-11.886,3.601-11.886,3.601s0.575-0.743,2.107-2.723c1.531-1.982,0.431-5.076,1.035-5.859
	c0.606-0.784-3.397,1.921-4.803,3.737c-1.403,1.815-0.914,6.811-0.914,6.811L58.713,47.131z M60.833,53.994
	c4.575-0.584,7.444-3.95,10.771-1.376c3.33,2.573,7.854,3.944,7.854,3.944s-1.025,2.531-5.313,0.68
	c-4.285-1.854-10.742-1.928-10.742-1.928s0.688,1.861,3.66,2.832c2.973,0.97,5.557,4.764,7.549,4.509s3.967,6.393,0.722,3.883
	c-3.245-2.511-6.87-2.122-8.2-3.152c-1.331-1.028-4.746-1.942-5.74-4.438C60.396,56.449,60.833,53.994,60.833,53.994z M61.4,65.468
	c3.826,2.96,6.125,6.866,6.408,9.079c0.281,2.213,3.483,6.153,3.483,6.153s-1.082-0.837-3.827-2.961
	c-2.744-2.123-4.477-4.526-4.703-6.298c-0.226-1.771-0.447,4.705-0.24,6.33c0.207,1.623-0.615,4.576-0.615,4.576
	s-1.672,2.764-2.246-1.736c-0.575-4.5-1.045-7.59-1.232-9.064c-0.189-1.477-1.673,9.211-1.521,10.391
	c0.149,1.182-1.431-0.041-1.431-0.041s-2.226-0.392-2.033-4.766c0.19-4.373-0.129-6.881-0.563-10.273
	c-0.433-3.395,2.694-2.969,3.403-3.885C56.991,62.059,61.4,65.468,61.4,65.468z M47.088,67.296
	c-0.323,3.341-0.321,7.464-2.059,9.711c-1.738,2.246-3.048,5.487-3.934,5.601c-0.885,0.112-0.697-5.459,0.461-6.957
	c1.158-1.498,2.163-5.375,2.163-5.375s-6.63,4.447-6.517,5.332c0.113,0.886-3.482,2.095-3.482,2.095s2.473-6.464,3.503-7.796
	c1.029-1.331,5.21-3.813,5.21-3.813L38.452,66.6c0,0-1.673,2.164-2.06,2.662c-0.387,0.499-2.069-0.935-0.782-2.6
	c1.288-1.663,3.411-4.409,3.411-4.409l2.94-1.051l3.99,1.891c0,0,3.389,1.292,2.81,2.041C48.183,65.882,47.088,67.296,47.088,67.296
	z"/>
</svg>
