<svg xmlns="http://www.w3.org/2000/svg" width="173" height="318" x="0" y="0" id="svgcontent" viewBox="0 0 173 318" overflow="hidden"><defs><path fill="#000000" stroke="#000000" d="M82.78973,65.05Q109.88972,63.55 137.00849,65.24063" id="svg_6"/><path fill="#000000" stroke="#000000" d="M77.35995,151.05Q110.30995,149.55 143.23495,151.2375" id="svg_5"/><path fill="#000000" stroke="#000000" d="M33.01698,230.07478Q86.81698,229.77478 140.57541,230.11485" id="svg_4"/><path id="svg_3" d="M-1917.40527,2257.03711A2005.35229,2005.35229 0 0 1 2093.29932,2257.03711A2005.35229,2005.35229 0 0 1 -1917.40527,2257.03711A2005.35229,2005.35229 0 0 1 2093.29932,2257.03711A2005.35229,2005.35229 0 0 1 -1917.40527,2257.03711" stroke="#000000" fill="#000000"/><path id="svg_2" d="M-1908.20532,2313.83716A2005.35229,2005.35229 0 0 1 2102.49927,2313.83716A2005.35229,2005.35229 0 0 1 -1908.20532,2313.83716A2005.35229,2005.35229 0 0 1 2102.49927,2313.83716A2005.35229,2005.35229 0 0 1 -1908.20532,2313.83716" stroke="#000000" fill="#000000"/><path id="svg_1" d="M-1917.05518,2208.13721A2005.35229,2005.35229 0 0 1 2093.64941,2208.13721A2005.35229,2005.35229 0 0 1 -1917.05518,2208.13721A2005.35229,2005.35229 0 0 1 2093.64941,2208.13721A2005.35229,2005.35229 0 0 1 -1917.05518,2208.13721" stroke="#000000" fill="#000000"/></defs><g mask="" style="pointer-events:all"><title style="pointer-events:inherit">Layer 1</title><g id="svg_45" type="text" text="I'M" font-size="57.00387" font-family="Bebas Neue" fill="0" stroke="0" stroke-width="0" text-anchor="start" font-weight="normal" font-style="normal" lineHeight="1" shapeId="0" shapeVal="0" display="null" transform="matrix(0.829746, 0, 0, 0.829746, 1.82975, 0)"><path id="svg_46" fill="#000000" stroke="#000000" stroke-width="0" d="M74.85237,62.24744C74.85237,62.24744 74.85237,22.34409 74.85237,22.34409C74.85237,22.34409 81.18624,22.34409 81.18624,22.34409C81.18624,22.34409 81.18624,62.24744 81.18624,62.24744C81.18624,62.24744 74.85237,62.24744 74.85237,62.24744C74.85237,62.24744 74.85237,62.24744 74.85237,62.24744M86.41168,34.06174C86.41168,34.06174 85.4616,22.34409 85.4616,22.34409C85.4616,22.34409 91.47877,22.34409 91.47877,22.34409C91.47877,22.34409 90.68703,34.06174 90.68703,34.06174C90.68703,34.06174 86.41169,34.06174 86.41169,34.06174C86.41169,34.06174 86.41169,34.06174 86.41169,34.06174M104.46321,22.34409C104.46321,22.34409 109.05526,50.68815 109.05526,50.68815C109.05526,50.68815 113.33062,22.34409 113.33062,22.34409C113.33062,22.34409 122.03968,22.34409 122.03968,22.34409C122.03968,22.34409 122.03968,62.24744 122.03968,62.24744C122.03968,62.24744 116.18085,62.24744 116.18085,62.24744C116.18085,62.24744 116.18085,33.5867 116.18085,33.5867C116.18085,33.5867 111.90549,62.24744 111.90549,62.24744C111.90549,62.24744 105.88832,62.24744 105.88832,62.24744C105.88832,62.24744 101.29626,34.06174 101.29626,34.06174C101.29626,34.06174 101.29626,62.24744 101.29626,62.24744C101.29626,62.24744 95.75413,62.24744 95.75413,62.24744C95.75413,62.24744 95.75413,22.34409 95.75413,22.34409C95.75413,22.34409 104.46321,22.34409 104.46321,22.34409C104.46321,22.34409 104.46321,22.34409 104.46321,22.34409"/></g><g type="text" text="FROM TIME@##@#@TO TIME@##@#@I'M" font-size="22.24496" font-family="Bebas Neue" fill="0" stroke="0" stroke-width="0" text-anchor="middle" font-weight="normal" font-style="normal" lineHeight="1" shapeId="0" shapeVal="0" display="null" id="svg_41" transform="matrix(0.829746, 0, 0, 0.829746, 1.82975, 0)"><path d="M65.20440173149109,177.75818729400635 C65.20440173149109,177.75818729400635 65.20440173149109,182.45434713363647 65.20440173149109,182.45434713363647 C65.20440173149109,182.45434713363647 68.35577154159546,182.45434713363647 68.35577154159546,182.45434713363647 C68.35577154159546,182.45434713363647 68.35577154159546,184.67884731292725 68.35577154159546,184.67884731292725 C68.35577154159546,184.67884731292725 65.20440173149109,184.67884731292725 65.20440173149109,184.67884731292725 C65.20440173149109,184.67884731292725 65.20440173149109,191.10516738891602 65.20440173149109,191.10516738891602 C65.20440173149109,191.10516738891602 62.73274170293007,191.10516738891602 62.73274170293007,191.10516738891602 C62.73274170293007,191.10516738891602 62.73274170293007,175.5336972028017 62.73274170293007,175.5336972028017 C62.73274170293007,175.5336972028017 69.22085189819336,175.5336972028017 69.22085189819336,175.5336972028017 C69.22085189819336,175.5336972028017 69.22085189819336,177.75819730758667 69.22085189819336,177.75819730758667 C69.22085189819336,177.75819730758667 65.20440173149109,177.75819730758667 65.20440173149109,177.75819730758667 C65.20440173149109,177.75819730758667 65.20440173149109,177.75819730758667 65.20440173149109,177.75819730758667 M77.99525165557861,191.10517692565918 C77.99525165557861,191.10517692565918 75.46180152893066,191.10517692565918 75.46180152893066,191.10517692565918 C74.65851211547852,189.3750171661377 76.75942134857178,183.7519769668579 72.80476188659668,184.740647315979 C72.80476188659668,184.740647315979 72.80476188659668,191.10517692565918 72.80476188659668,191.10517692565918 C72.80476188659668,191.10517692565918 70.33310174942017,191.10517692565918 70.33310174942017,191.10517692565918 C70.33310174942017,191.10517692565918 70.33310174942017,175.53370720148087 70.33310174942017,175.53370720148087 C74.65851211547852,175.3483372021583 77.68630123138428,175.28653720393777 77.68630123138428,180.35344743728638 C77.68630123138428,181.960027217865 77.19197177886963,183.01048707962036 76.07972145080566,183.50481700897217 C78.61317157745361,184.30810737609863 77.13018131256104,188.57172679901123 77.9952621459961,191.10517692565918 C77.9952621459961,191.10517692565918 77.9952621459961,191.10517692565918 77.9952621459961,191.10517692565918 M75.21464157104492,180.90956735610962 C75.21464157104492,178.68506717681885 75.02927207946777,177.26386725902557 72.80477142333984,177.75819730758667 C72.80477142333984,177.75819730758667 72.80477142333984,182.51614713668823 72.80477142333984,182.51614713668823 C74.22598171234131,182.57793712615967 75.21464157104492,182.57793712615967 75.21464157104492,180.90956735610962 C75.21464157104492,180.90956735610962 75.21464157104492,180.90956735610962 75.21464157104492,180.90956735610962 M81.51738166809082,179.11761713027954 C81.51738166809082,179.11761713027954 81.51738166809082,187.52126693725586 81.51738166809082,187.52126693725586 C81.51738166809082,188.63351726531982 81.94992256164551,189.0660572052002 82.75321197509766,189.0660572052002 C83.5565013885498,189.0660572052002 84.05083084106445,188.63351726531982 84.05083084106445,187.52126693725586 C84.05083084106445,187.52126693725586 84.05083084106445,179.11761713027954 84.05083084106445,179.11761713027954 C84.05083084106445,178.00536727905273 83.5565013885498,177.57282710075378 82.75321197509766,177.57282710075378 C81.94992256164551,177.57282710075378 81.51738166809082,178.00536727905273 81.51738166809082,179.11761713027954 C81.51738166809082,179.11761713027954 81.51738166809082,179.11761713027954 81.51738166809082,179.11761713027954 M82.75321197509766,191.2905569076538 C77.37734127044678,191.2905569076538 79.04572105407715,184.0609474182129 79.04572105407715,179.24120712280273 C79.04572105407715,176.7695472240448 80.34334182739258,175.3483372021583 82.75321197509766,175.3483372021583 C88.12908172607422,175.3483372021583 86.46070098876953,182.57794713974 86.46070098876953,187.397686958313 C86.46070098876953,189.86934757232666 85.16308212280273,191.2905569076538 82.75321197509766,191.2905569076538 C82.75321197509766,191.2905569076538 82.75321197509766,191.2905569076538 82.75321197509766,191.2905569076538 M91.40403175354004,175.53370720148087 C91.40403175354004,175.53370720148087 93.19599151611328,186.59439754486084 93.19599151611328,186.59439754486084 C93.19599151611328,186.59439754486084 94.86436080932617,175.53370720148087 94.86436080932617,175.53370720148087 C94.86436080932617,175.53370720148087 98.26290130615234,175.53370720148087 98.26290130615234,175.53370720148087 C98.26290130615234,175.53370720148087 98.26290130615234,191.10517692565918 98.26290130615234,191.10517692565918 C98.26290130615234,191.10517692565918 95.97661209106445,191.10517692565918 95.97661209106445,191.10517692565918 C95.97661209106445,191.10517692565918 95.97661209106445,179.92090702056885 95.97661209106445,179.92090702056885 C95.97661209106445,179.92090702056885 94.30824089050293,191.10517692565918 94.30824089050293,191.10517692565918 C94.30824089050293,191.10517692565918 91.96016120910645,191.10517692565918 91.96016120910645,191.10517692565918 C91.96016120910645,191.10517692565918 90.16821098327637,180.10627698898315 90.16821098327637,180.10627698898315 C90.16821098327637,180.10627698898315 90.16821098327637,191.10517692565918 90.16821098327637,191.10517692565918 C90.16821098327637,191.10517692565918 88.00551223754883,191.10517692565918 88.00551223754883,191.10517692565918 C88.00551223754883,191.10517692565918 88.00551223754883,175.53370720148087 88.00551223754883,175.53370720148087 C88.00551223754883,175.53370720148087 91.4040412902832,175.53370720148087 91.4040412902832,175.53370720148087 C91.4040412902832,175.53370720148087 91.4040412902832,175.53370720148087 91.4040412902832,175.53370720148087 M102.7119026184082,177.758207321167 C102.7119026184082,177.758207321167 102.7119026184082,175.53370720148087 102.7119026184082,175.53370720148087 C102.7119026184082,175.53370720148087 110.25047302246094,175.53370720148087 110.25047302246094,175.53370720148087 C110.25047302246094,175.53370720148087 110.25047302246094,177.758207321167 110.25047302246094,177.758207321167 C110.25047302246094,177.758207321167 107.71702194213867,177.758207321167 107.71702194213867,177.758207321167 C107.71702194213867,177.758207321167 107.71702194213867,191.10518741607666 107.71702194213867,191.10518741607666 C107.71702194213867,191.10518741607666 105.245361328125,191.10518741607666 105.245361328125,191.10518741607666 C105.245361328125,191.10518741607666 105.245361328125,177.758207321167 105.245361328125,177.758207321167 C105.245361328125,177.758207321167 102.71191024780273,177.758207321167 102.71191024780273,177.758207321167 C102.71191024780273,177.758207321167 102.71191024780273,177.758207321167 102.71191024780273,177.758207321167 M111.30093002319336,191.10518741607666 C111.30093002319336,191.10518741607666 111.30093002319336,175.53371720016003 111.30093002319336,175.53371720016003 C111.30093002319336,175.53371720016003 113.77259063720703,175.53371720016003 113.77259063720703,175.53371720016003 C113.77259063720703,175.53371720016003 113.77259063720703,191.10518741607666 113.77259063720703,191.10518741607666 C113.77259063720703,191.10518741607666 111.30093002319336,191.10518741607666 111.30093002319336,191.10518741607666 C111.30093002319336,191.10518741607666 111.30093002319336,191.10518741607666 111.30093002319336,191.10518741607666 M118.90129089355469,175.53371720016003 C118.90129089355469,175.53371720016003 120.69324111938477,186.594407081604 120.69324111938477,186.594407081604 C120.69324111938477,186.594407081604 122.36161041259766,175.53371720016003 122.36161041259766,175.53371720016003 C122.36161041259766,175.53371720016003 125.76015090942383,175.53371720016003 125.76015090942383,175.53371720016003 C125.76015090942383,175.53371720016003 125.76015090942383,191.10518741607666 125.76015090942383,191.10518741607666 C125.76015090942383,191.10518741607666 123.47386169433594,191.10518741607666 123.47386169433594,191.10518741607666 C123.47386169433594,191.10518741607666 123.47386169433594,179.92091703414917 123.47386169433594,179.92091703414917 C123.47386169433594,179.92091703414917 121.80549240112305,191.10518741607666 121.80549240112305,191.10518741607666 C121.80549240112305,191.10518741607666 119.45741271972656,191.10518741607666 119.45741271972656,191.10518741607666 C119.45741271972656,191.10518741607666 117.66546249389648,180.10628700256348 117.66546249389648,180.10628700256348 C117.66546249389648,180.10628700256348 117.66546249389648,191.10518741607666 117.66546249389648,191.10518741607666 C117.66546249389648,191.10518741607666 115.50276184082031,191.10518741607666 115.50276184082031,191.10518741607666 C115.50276184082031,191.10518741607666 115.50276184082031,175.53371720016003 115.50276184082031,175.53371720016003 C115.50276184082031,175.53371720016003 118.90130233764648,175.53371720016003 118.90130233764648,175.53371720016003 C118.90130233764648,175.53371720016003 118.90130233764648,175.53371720016003 118.90130233764648,175.53371720016003 M129.96197891235352,177.75821709632874 C129.96197891235352,177.75821709632874 129.96197891235352,182.0836272239685 129.96197891235352,182.0836272239685 C129.96197891235352,182.0836272239685 133.29873275756836,182.0836272239685 133.29873275756836,182.0836272239685 C133.29873275756836,182.0836272239685 133.29873275756836,184.30812740325928 133.29873275756836,184.30812740325928 C133.29873275756836,184.30812740325928 129.96197891235352,184.30812740325928 129.96197891235352,184.30812740325928 C129.96197891235352,184.30812740325928 129.96197891235352,188.8806972503662 129.96197891235352,188.8806972503662 C129.96197891235352,188.8806972503662 134.16381454467773,188.8806972503662 134.16381454467773,188.8806972503662 C134.16381454467773,188.8806972503662 134.16381454467773,191.10519695281982 134.16381454467773,191.10519695281982 C134.16381454467773,191.10519695281982 127.49032974243164,191.10519695281982 127.49032974243164,191.10519695281982 C127.49032974243164,191.10519695281982 127.49032974243164,175.5337271988392 127.49032974243164,175.5337271988392 C127.49032974243164,175.5337271988392 134.16381454467773,175.5337271988392 134.16381454467773,175.5337271988392 C134.16381454467773,175.5337271988392 134.16381454467773,177.75822710990906 134.16381454467773,177.75822710990906 C134.16381454467773,177.75822710990906 129.96197891235352,177.75822710990906 129.96197891235352,177.75822710990906 C129.96197891235352,177.75822710990906 129.96197891235352,177.75822710990906 129.96197891235352,177.75822710990906 " stroke-width="0" stroke="#0" fill="#0" id="svg_44"/><path d="M72.00143027305603,201.6311731338501 C72.00143027305603,201.6311731338501 72.00143027305603,199.4066730439663 72.00143027305603,199.4066730439663 C72.00143027305603,199.4066730439663 79.54000043869019,199.4066730439663 79.54000043869019,199.4066730439663 C79.54000043869019,199.4066730439663 79.54000043869019,201.6311731338501 79.54000043869019,201.6311731338501 C79.54000043869019,201.6311731338501 77.00655031204224,201.6311731338501 77.00655031204224,201.6311731338501 C77.00655031204224,201.6311731338501 77.00655031204224,214.97815322875977 77.00655031204224,214.97815322875977 C77.00655031204224,214.97815322875977 74.53489029407501,214.97815322875977 74.53489029407501,214.97815322875977 C74.53489029407501,214.97815322875977 74.53489029407501,201.6311731338501 74.53489029407501,201.6311731338501 C74.53489029407501,201.6311731338501 72.00144028663635,201.6311731338501 72.00144028663635,201.6311731338501 C72.00144028663635,201.6311731338501 72.00144028663635,201.6311731338501 72.00144028663635,201.6311731338501 M82.8767499923706,202.99058294296265 C82.8767499923706,202.99058294296265 82.8767499923706,211.39423274993896 82.8767499923706,211.39423274993896 C82.8767499923706,212.50648307800293 83.30928993225098,212.9390230178833 84.11258029937744,212.9390230178833 C84.9158706665039,212.9390230178833 85.41020011901855,212.50648307800293 85.41020011901855,211.39423274993896 C85.41020011901855,211.39423274993896 85.41020011901855,202.99058294296265 85.41020011901855,202.99058294296265 C85.41020011901855,201.87833309173584 84.9158706665039,201.44579315185547 84.11258029937744,201.44579315185547 C83.30928993225098,201.44579315185547 82.8767499923706,201.87833309173584 82.8767499923706,202.99058294296265 C82.8767499923706,202.99058294296265 82.8767499923706,202.99058294296265 82.8767499923706,202.99058294296265 M84.11258029937744,215.1635227203369 C78.73672008514404,215.1635227203369 80.40509033203125,207.933913230896 80.40509033203125,203.11417293548584 C80.40509033203125,200.6425130367279 81.70271015167236,199.22130304199527 84.11258029937744,199.22130304199527 C89.48843955993652,199.22130304199527 87.82007026672363,206.4509129524231 87.82007026672363,211.2706527709961 C87.82007026672363,213.74231338500977 86.52245044708252,215.1635227203369 84.11258029937744,215.1635227203369 C84.11258029937744,215.1635227203369 84.11258029937744,215.1635227203369 84.11258029937744,215.1635227203369 M92.08369064331055,201.6311731338501 C92.08369064331055,201.6311731338501 92.08369064331055,199.4066730439663 92.08369064331055,199.4066730439663 C92.08369064331055,199.4066730439663 99.62226104736328,199.4066730439663 99.62226104736328,199.4066730439663 C99.62226104736328,199.4066730439663 99.62226104736328,201.6311731338501 99.62226104736328,201.6311731338501 C99.62226104736328,201.6311731338501 97.08880996704102,201.6311731338501 97.08880996704102,201.6311731338501 C97.08880996704102,201.6311731338501 97.08880996704102,214.97815322875977 97.08880996704102,214.97815322875977 C97.08880996704102,214.97815322875977 94.61714935302734,214.97815322875977 94.61714935302734,214.97815322875977 C94.61714935302734,214.97815322875977 94.61714935302734,201.6311731338501 94.61714935302734,201.6311731338501 C94.61714935302734,201.6311731338501 92.08370018005371,201.6311731338501 92.08370018005371,201.6311731338501 C92.08370018005371,201.6311731338501 92.08370018005371,201.6311731338501 92.08370018005371,201.6311731338501 M100.6727294921875,214.97815322875977 C100.6727294921875,214.97815322875977 100.6727294921875,199.40668304264545 100.6727294921875,199.40668304264545 C100.6727294921875,199.40668304264545 103.14439010620117,199.40668304264545 103.14439010620117,199.40668304264545 C103.14439010620117,199.40668304264545 103.14439010620117,214.97815322875977 103.14439010620117,214.97815322875977 C103.14439010620117,214.97815322875977 100.6727294921875,214.97815322875977 100.6727294921875,214.97815322875977 C100.6727294921875,214.97815322875977 100.6727294921875,214.97815322875977 100.6727294921875,214.97815322875977 M108.27309036254883,199.40668304264545 C108.27309036254883,199.40668304264545 110.0650520324707,210.4673728942871 110.0650520324707,210.4673728942871 C110.0650520324707,210.4673728942871 111.7334213256836,199.40668304264545 111.7334213256836,199.40668304264545 C111.7334213256836,199.40668304264545 115.13196182250977,199.40668304264545 115.13196182250977,199.40668304264545 C115.13196182250977,199.40668304264545 115.13196182250977,214.97815322875977 115.13196182250977,214.97815322875977 C115.13196182250977,214.97815322875977 112.84566879272461,214.97815322875977 112.84566879272461,214.97815322875977 C112.84566879272461,214.97815322875977 112.84566879272461,203.79388284683228 112.84566879272461,203.79388284683228 C112.84566879272461,203.79388284683228 111.17729949951172,214.97815322875977 111.17729949951172,214.97815322875977 C111.17729949951172,214.97815322875977 108.82921981811523,214.97815322875977 108.82921981811523,214.97815322875977 C108.82921981811523,214.97815322875977 107.03726959228516,203.97925281524658 107.03726959228516,203.97925281524658 C107.03726959228516,203.97925281524658 107.03726959228516,214.97815322875977 107.03726959228516,214.97815322875977 C107.03726959228516,214.97815322875977 104.87456893920898,214.97815322875977 104.87456893920898,214.97815322875977 C104.87456893920898,214.97815322875977 104.87456893920898,199.40668304264545 104.87456893920898,199.40668304264545 C104.87456893920898,199.40668304264545 108.27310180664062,199.40668304264545 108.27310180664062,199.40668304264545 C108.27310180664062,199.40668304264545 108.27310180664062,199.40668304264545 108.27310180664062,199.40668304264545 M119.33378982543945,201.63118314743042 C119.33378982543945,201.63118314743042 119.33378982543945,205.9565930366516 119.33378982543945,205.9565930366516 C119.33378982543945,205.9565930366516 122.67052841186523,205.9565930366516 122.67052841186523,205.9565930366516 C122.67052841186523,205.9565930366516 122.67052841186523,208.18109321594238 122.67052841186523,208.18109321594238 C122.67052841186523,208.18109321594238 119.33378982543945,208.18109321594238 119.33378982543945,208.18109321594238 C119.33378982543945,208.18109321594238 119.33378982543945,212.75366306304932 119.33378982543945,212.75366306304932 C119.33378982543945,212.75366306304932 123.53561019897461,212.75366306304932 123.53561019897461,212.75366306304932 C123.53561019897461,212.75366306304932 123.53561019897461,214.97816276550293 123.53561019897461,214.97816276550293 C123.53561019897461,214.97816276550293 116.86212158203125,214.97816276550293 116.86212158203125,214.97816276550293 C116.86212158203125,214.97816276550293 116.86212158203125,199.40669304132462 116.86212158203125,199.40669304132462 C116.86212158203125,199.40669304132462 123.53561019897461,199.40669304132462 123.53561019897461,199.40669304132462 C123.53561019897461,199.40669304132462 123.53561019897461,201.63119316101074 123.53561019897461,201.63119316101074 C123.53561019897461,201.63119316101074 119.33378982543945,201.63119316101074 119.33378982543945,201.63119316101074 C119.33378982543945,201.63119316101074 119.33378982543945,201.63119316101074 119.33378982543945,201.63119316101074 " stroke-width="0" stroke="#0" fill="#0" id="svg_43"/><path d="M89.24133621586952,238.85115432739258 C89.24133621586952,238.85115432739258 89.24133621586952,223.27968414127827 89.24133621586952,223.27968414127827 C89.24133621586952,223.27968414127827 91.71299624443054,223.27968414127827 91.71299624443054,223.27968414127827 C91.71299624443054,223.27968414127827 91.71299624443054,238.85115432739258 91.71299624443054,238.85115432739258 C91.71299624443054,238.85115432739258 89.24133621586952,238.85115432739258 89.24133621586952,238.85115432739258 C89.24133621586952,238.85115432739258 89.24133621586952,238.85115432739258 89.24133621586952,238.85115432739258 M93.7521162033081,227.8522539138794 C93.7521162033081,227.8522539138794 93.38136625289917,223.27968414127827 93.38136625289917,223.27968414127827 C93.38136625289917,223.27968414127827 95.72944641113281,223.27968414127827 95.72944641113281,223.27968414127827 C95.72944641113281,223.27968414127827 95.42048645019531,227.8522539138794 95.42048645019531,227.8522539138794 C95.42048645019531,227.8522539138794 93.7521162033081,227.8522539138794 93.7521162033081,227.8522539138794 C93.7521162033081,227.8522539138794 93.7521162033081,227.8522539138794 93.7521162033081,227.8522539138794 M100.79635620117188,223.27968414127827 C100.79635620117188,223.27968414127827 102.58830642700195,234.34037399291992 102.58830642700195,234.34037399291992 C102.58830642700195,234.34037399291992 104.25667667388916,223.27968414127827 104.25667667388916,223.27968414127827 C104.25667667388916,223.27968414127827 107.65520668029785,223.27968414127827 107.65520668029785,223.27968414127827 C107.65520668029785,223.27968414127827 107.65520668029785,238.85115432739258 107.65520668029785,238.85115432739258 C107.65520668029785,238.85115432739258 105.36891555786133,238.85115432739258 105.36891555786133,238.85115432739258 C105.36891555786133,238.85115432739258 105.36891555786133,227.6668839454651 105.36891555786133,227.6668839454651 C105.36891555786133,227.6668839454651 103.70054626464844,238.85115432739258 103.70054626464844,238.85115432739258 C103.70054626464844,238.85115432739258 101.35246658325195,238.85115432739258 101.35246658325195,238.85115432739258 C101.35246658325195,238.85115432739258 99.56051635742188,227.8522539138794 99.56051635742188,227.8522539138794 C99.56051635742188,227.8522539138794 99.56051635742188,238.85115432739258 99.56051635742188,238.85115432739258 C99.56051635742188,238.85115432739258 97.39781665802002,238.85115432739258 97.39781665802002,238.85115432739258 C97.39781665802002,238.85115432739258 97.39781665802002,223.27968414127827 97.39781665802002,223.27968414127827 C97.39781665802002,223.27968414127827 100.79635620117188,223.27968414127827 100.79635620117188,223.27968414127827 C100.79635620117188,223.27968414127827 100.79635620117188,223.27968414127827 100.79635620117188,223.27968414127827 " stroke-width="0" stroke="#0" fill="#0" id="svg_42"/></g><g type="text" text="I'M" font-size="57.00387" font-family="Bebas Neue" fill="0" stroke="0" stroke-width="0" text-anchor="start" font-weight="normal" font-style="normal" lineHeight="1" shapeId="0" shapeVal="0" display="null" id="svg_39" transform="matrix(0.829746, 0, 0, 0.829746, 1.82975, 0)"><path fill="#000000" stroke="#000000" stroke-width="0" d="M74.85237,62.24744C74.85237,62.24744 74.85237,22.34409 74.85237,22.34409C74.85237,22.34409 81.18624,22.34409 81.18624,22.34409C81.18624,22.34409 81.18624,62.24744 81.18624,62.24744C81.18624,62.24744 74.85237,62.24744 74.85237,62.24744C74.85237,62.24744 74.85237,62.24744 74.85237,62.24744M86.41168,34.06174C86.41168,34.06174 85.4616,22.34409 85.4616,22.34409C85.4616,22.34409 91.47877,22.34409 91.47877,22.34409C91.47877,22.34409 90.68703,34.06174 90.68703,34.06174C90.68703,34.06174 86.41169,34.06174 86.41169,34.06174C86.41169,34.06174 86.41169,34.06174 86.41169,34.06174M104.46321,22.34409C104.46321,22.34409 109.05526,50.68815 109.05526,50.68815C109.05526,50.68815 113.33062,22.34409 113.33062,22.34409C113.33062,22.34409 122.03968,22.34409 122.03968,22.34409C122.03968,22.34409 122.03968,62.24744 122.03968,62.24744C122.03968,62.24744 116.18085,62.24744 116.18085,62.24744C116.18085,62.24744 116.18085,33.5867 116.18085,33.5867C116.18085,33.5867 111.90549,62.24744 111.90549,62.24744C111.90549,62.24744 105.88832,62.24744 105.88832,62.24744C105.88832,62.24744 101.29626,34.06174 101.29626,34.06174C101.29626,34.06174 101.29626,62.24744 101.29626,62.24744C101.29626,62.24744 95.75413,62.24744 95.75413,62.24744C95.75413,62.24744 95.75413,22.34409 95.75413,22.34409C95.75413,22.34409 104.46321,22.34409 104.46321,22.34409C104.46321,22.34409 104.46321,22.34409 104.46321,22.34409" id="svg_40"/></g><g type="text" text="I'M" font-size="57.00387" font-family="Bebas Neue" fill="0" stroke="0" stroke-width="0" text-anchor="start" font-weight="normal" font-style="normal" lineHeight="1" shapeId="0" shapeVal="0" display="null" id="svg_37" transform="matrix(0.829746, 0, 0, 0.829746, 1.82975, 0)"><path fill="#000000" stroke="#000000" stroke-width="0" d="M74.85237,62.24744C74.85237,62.24744 74.85237,22.34409 74.85237,22.34409C74.85237,22.34409 81.18624,22.34409 81.18624,22.34409C81.18624,22.34409 81.18624,62.24744 81.18624,62.24744C81.18624,62.24744 74.85237,62.24744 74.85237,62.24744C74.85237,62.24744 74.85237,62.24744 74.85237,62.24744M86.41168,34.06174C86.41168,34.06174 85.4616,22.34409 85.4616,22.34409C85.4616,22.34409 91.47877,22.34409 91.47877,22.34409C91.47877,22.34409 90.68703,34.06174 90.68703,34.06174C90.68703,34.06174 86.41169,34.06174 86.41169,34.06174C86.41169,34.06174 86.41169,34.06174 86.41169,34.06174M104.46321,22.34409C104.46321,22.34409 109.05526,50.68815 109.05526,50.68815C109.05526,50.68815 113.33062,22.34409 113.33062,22.34409C113.33062,22.34409 122.03968,22.34409 122.03968,22.34409C122.03968,22.34409 122.03968,62.24744 122.03968,62.24744C122.03968,62.24744 116.18085,62.24744 116.18085,62.24744C116.18085,62.24744 116.18085,33.5867 116.18085,33.5867C116.18085,33.5867 111.90549,62.24744 111.90549,62.24744C111.90549,62.24744 105.88832,62.24744 105.88832,62.24744C105.88832,62.24744 101.29626,34.06174 101.29626,34.06174C101.29626,34.06174 101.29626,62.24744 101.29626,62.24744C101.29626,62.24744 95.75413,62.24744 95.75413,62.24744C95.75413,62.24744 95.75413,22.34409 95.75413,22.34409C95.75413,22.34409 104.46321,22.34409 104.46321,22.34409C104.46321,22.34409 104.46321,22.34409 104.46321,22.34409" id="svg_38"/></g><g type="text" text="INTERACTIVE,@##@#@HYPERACTIVE," font-size="22.24496" font-family="Bebas Neue" fill="0" stroke="0" stroke-width="0" text-anchor="middle" font-weight="normal" font-style="normal" lineHeight="1" shapeId="0" shapeVal="0" display="null" id="svg_34" transform="matrix(0.829746, 0, 0, 0.829746, 1.82975, 0)"><path d="M54.551638950244524,89.10486221313477 C54.551638950244524,89.10486221313477 54.551638950244524,73.53339202702045 54.551638950244524,73.53339202702045 C54.551638950244524,73.53339202702045 57.02329897880554,73.53339202702045 57.02329897880554,73.53339202702045 C57.02329897880554,73.53339202702045 57.02329897880554,89.10486221313477 57.02329897880554,89.10486221313477 C57.02329897880554,89.10486221313477 54.551638950244524,89.10486221313477 54.551638950244524,89.10486221313477 C54.551638950244524,89.10486221313477 54.551638950244524,89.10486221313477 54.551638950244524,89.10486221313477 M64.0057487487793,89.10486221313477 C64.0057487487793,89.10486221313477 60.97795915603638,77.79700183868408 60.97795915603638,77.79700183868408 C60.97795915603638,77.79700183868408 60.97795915603638,89.10486221313477 60.97795915603638,89.10486221313477 C60.97795915603638,89.10486221313477 58.753458976745605,89.10486221313477 58.753458976745605,89.10486221313477 C58.753458976745605,89.10486221313477 58.753458976745605,73.53339202702045 58.753458976745605,73.53339202702045 C58.753458976745605,73.53339202702045 61.84303903579712,73.53339202702045 61.84303903579712,73.53339202702045 C61.84303903579712,73.53339202702045 64.31469917297363,82.86391162872314 64.31469917297363,82.86391162872314 C64.31469917297363,82.86391162872314 64.31469917297363,73.53339202702045 64.31469917297363,73.53339202702045 C64.31469917297363,73.53339202702045 66.53919887542725,73.53339202702045 66.53919887542725,73.53339202702045 C66.53919887542725,73.53339202702045 66.53919887542725,89.10486221313477 66.53919887542725,89.10486221313477 C66.53919887542725,89.10486221313477 64.0057487487793,89.10486221313477 64.0057487487793,89.10486221313477 C64.0057487487793,89.10486221313477 64.0057487487793,89.10486221313477 64.0057487487793,89.10486221313477 M67.52786922454834,75.7578821182251 C67.52786922454834,75.7578821182251 67.52786922454834,73.5333820283413 67.52786922454834,73.5333820283413 C67.52786922454834,73.5333820283413 75.06643867492676,73.5333820283413 75.06643867492676,73.5333820283413 C75.06643867492676,73.5333820283413 75.06643867492676,75.7578821182251 75.06643867492676,75.7578821182251 C75.06643867492676,75.7578821182251 72.53298950195312,75.7578821182251 72.53298950195312,75.7578821182251 C72.53298950195312,75.7578821182251 72.53298950195312,89.10486221313477 72.53298950195312,89.10486221313477 C72.53298950195312,89.10486221313477 70.06132888793945,89.10486221313477 70.06132888793945,89.10486221313477 C70.06132888793945,89.10486221313477 70.06132888793945,75.7578821182251 70.06132888793945,75.7578821182251 C70.06132888793945,75.7578821182251 67.5278787612915,75.7578821182251 67.5278787612915,75.7578821182251 C67.5278787612915,75.7578821182251 67.5278787612915,75.7578821182251 67.5278787612915,75.7578821182251 M78.58856964111328,75.7578821182251 C78.58856964111328,75.7578821182251 78.58856964111328,80.08329200744629 78.58856964111328,80.08329200744629 C78.58856964111328,80.08329200744629 81.92530822753906,80.08329200744629 81.92530822753906,80.08329200744629 C81.92530822753906,80.08329200744629 81.92530822753906,82.3077917098999 81.92530822753906,82.3077917098999 C81.92530822753906,82.3077917098999 78.58856964111328,82.3077917098999 78.58856964111328,82.3077917098999 C78.58856964111328,82.3077917098999 78.58856964111328,86.88036155700684 78.58856964111328,86.88036155700684 C78.58856964111328,86.88036155700684 82.7903881072998,86.88036155700684 82.7903881072998,86.88036155700684 C82.7903881072998,86.88036155700684 82.7903881072998,89.10486221313477 82.7903881072998,89.10486221313477 C82.7903881072998,89.10486221313477 76.11689949035645,89.10486221313477 76.11689949035645,89.10486221313477 C76.11689949035645,89.10486221313477 76.11689949035645,73.53339202702045 76.11689949035645,73.53339202702045 C76.11689949035645,73.53339202702045 82.7903881072998,73.53339202702045 82.7903881072998,73.53339202702045 C82.7903881072998,73.53339202702045 82.7903881072998,75.75789213180542 82.7903881072998,75.75789213180542 C82.7903881072998,75.75789213180542 78.58856964111328,75.75789213180542 78.58856964111328,75.75789213180542 C78.58856964111328,75.75789213180542 78.58856964111328,75.75789213180542 78.58856964111328,75.75789213180542 M91.93555068969727,89.10487174987793 C91.93555068969727,89.10487174987793 89.402099609375,89.10487174987793 89.402099609375,89.10487174987793 C88.59880828857422,87.37471199035645 90.6997184753418,81.75167179107666 86.74505996704102,82.74034214019775 C86.74505996704102,82.74034214019775 86.74505996704102,89.10487174987793 86.74505996704102,89.10487174987793 C86.74505996704102,89.10487174987793 84.27339935302734,89.10487174987793 84.27339935302734,89.10487174987793 C84.27339935302734,89.10487174987793 84.27339935302734,73.53340202569962 84.27339935302734,73.53340202569962 C88.59880828857422,73.34803202637704 91.6265983581543,73.28623202815652 91.6265983581543,78.35314226150513 C91.6265983581543,79.95972204208374 91.13227081298828,81.01018190383911 90.02001953125,81.50451183319092 C92.55347061157227,82.30780220031738 91.07048034667969,86.57142162322998 91.9355583190918,89.10487174987793 C91.9355583190918,89.10487174987793 91.9355583190918,89.10487174987793 91.9355583190918,89.10487174987793 M89.15493774414062,78.90926218032837 C89.15493774414062,76.6847620010376 88.96955871582031,75.26356208324432 86.74506759643555,75.75789213180542 C86.74506759643555,75.75789213180542 86.74506759643555,80.51584196090698 86.74506759643555,80.51584196090698 C88.16626739501953,80.57763195037842 89.15493774414062,80.57763195037842 89.15493774414062,78.90926218032837 C89.15493774414062,78.90926218032837 89.15493774414062,78.90926218032837 89.15493774414062,78.90926218032837 M98.60905075073242,73.53340202569962 C98.60905075073242,73.53340202569962 101.14249801635742,89.10487174987793 101.14249801635742,89.10487174987793 C101.14249801635742,89.10487174987793 98.67083740234375,89.10487174987793 98.67083740234375,89.10487174987793 C98.67083740234375,89.10487174987793 98.23830032348633,86.26246166229248 98.23830032348633,86.26246166229248 C98.23830032348633,86.26246166229248 95.21051025390625,86.26246166229248 95.21051025390625,86.26246166229248 C95.21051025390625,86.26246166229248 94.77796936035156,89.10487174987793 94.77796936035156,89.10487174987793 C94.77796936035156,89.10487174987793 92.5534782409668,89.10487174987793 92.5534782409668,89.10487174987793 C92.5534782409668,89.10487174987793 95.02513885498047,73.53340202569962 95.02513885498047,73.53340202569962 C95.02513885498047,73.53340202569962 98.60905075073242,73.53340202569962 98.60905075073242,73.53340202569962 C98.60905075073242,73.53340202569962 98.60905075073242,73.53340202569962 98.60905075073242,73.53340202569962 M96.69350814819336,76.31402206420898 C96.69350814819336,76.31402206420898 95.51947021484375,84.16155242919922 95.51947021484375,84.16155242919922 C95.51947021484375,84.16155242919922 97.86754989624023,84.16155242919922 97.86754989624023,84.16155242919922 C97.86754989624023,84.16155242919922 96.69350814819336,76.31402206420898 96.69350814819336,76.31402206420898 M107.01269912719727,83.29647159576416 C107.01269912719727,83.29647159576416 109.29898834228516,83.29647159576416 109.29898834228516,83.29647159576416 C109.54615783691406,86.69501209259033 108.86644744873047,89.29025173187256 105.65328979492188,89.29025173187256 C100.33921813964844,89.29025173187256 102.00758743286133,82.06064224243164 102.00758743286133,77.24090194702148 C102.00758743286133,74.76924204826355 103.2434196472168,73.34803202637704 105.65328979492188,73.34803202637704 C108.61928939819336,73.28624202683568 109.54615783691406,75.5107319355011 109.29898834228516,78.78569221496582 C109.29898834228516,78.78569221496582 107.01269912719727,78.78569221496582 107.01269912719727,78.78569221496582 C107.07448959350586,77.30269193649292 107.13628005981445,75.57253193855286 105.71508026123047,75.57253193855286 C104.91178894042969,75.57253193855286 104.479248046875,76.0050721168518 104.479248046875,77.11732196807861 C104.479248046875,77.11732196807861 104.479248046875,85.52097225189209 104.479248046875,85.52097225189209 C104.479248046875,86.63322162628174 104.91178894042969,87.06576156616211 105.71508026123047,87.06576156616211 C107.32165908813477,87.06576156616211 107.01269912719727,84.8412618637085 107.01269912719727,83.29647159576416 C107.01269912719727,83.29647159576416 107.01269912719727,83.29647159576416 107.01269912719727,83.29647159576416 M110.04048919677734,75.75790214538574 C110.04048919677734,75.75790214538574 110.04048919677734,73.53340202569962 110.04048919677734,73.53340202569962 C110.04048919677734,73.53340202569962 117.57905960083008,73.53340202569962 117.57905960083008,73.53340202569962 C117.57905960083008,73.53340202569962 117.57905960083008,75.75790214538574 117.57905960083008,75.75790214538574 C117.57905960083008,75.75790214538574 115.04560852050781,75.75790214538574 115.04560852050781,75.75790214538574 C115.04560852050781,75.75790214538574 115.04560852050781,89.10488224029541 115.04560852050781,89.10488224029541 C115.04560852050781,89.10488224029541 112.57394790649414,89.10488224029541 112.57394790649414,89.10488224029541 C112.57394790649414,89.10488224029541 112.57394790649414,75.75790214538574 112.57394790649414,75.75790214538574 C112.57394790649414,75.75790214538574 110.04050064086914,75.75790214538574 110.04050064086914,75.75790214538574 C110.04050064086914,75.75790214538574 110.04050064086914,75.75790214538574 110.04050064086914,75.75790214538574 M118.62953186035156,89.10488224029541 C118.62953186035156,89.10488224029541 118.62953186035156,73.53341202437878 118.62953186035156,73.53341202437878 C118.62953186035156,73.53341202437878 121.10118865966797,73.53341202437878 121.10118865966797,73.53341202437878 C121.10118865966797,73.53341202437878 121.10118865966797,89.10488224029541 121.10118865966797,89.10488224029541 C121.10118865966797,89.10488224029541 118.62953186035156,89.10488224029541 118.62953186035156,89.10488224029541 C118.62953186035156,89.10488224029541 118.62953186035156,89.10488224029541 118.62953186035156,89.10488224029541 M124.68509674072266,73.53341202437878 C124.68509674072266,73.53341202437878 126.5388412475586,86.26247215270996 126.5388412475586,86.26247215270996 C126.5388412475586,86.26247215270996 128.39258575439453,73.53341202437878 128.39258575439453,73.53341202437878 C128.39258575439453,73.53341202437878 130.6788787841797,73.53341202437878 130.6788787841797,73.53341202437878 C130.6788787841797,73.53341202437878 128.26901245117188,89.10488224029541 128.26901245117188,89.10488224029541 C128.26901245117188,89.10488224029541 124.62330627441406,89.10488224029541 124.62330627441406,89.10488224029541 C124.62330627441406,89.10488224029541 122.21343994140625,73.53341202437878 122.21343994140625,73.53341202437878 C122.21343994140625,73.53341202437878 124.68509674072266,73.53341202437878 124.68509674072266,73.53341202437878 C124.68509674072266,73.53341202437878 124.68509674072266,73.53341202437878 124.68509674072266,73.53341202437878 M134.20099639892578,75.75791192054749 C134.20099639892578,75.75791192054749 134.20099639892578,80.08332204818726 134.20099639892578,80.08332204818726 C134.20099639892578,80.08332204818726 137.53775024414062,80.08332204818726 137.53775024414062,80.08332204818726 C137.53775024414062,80.08332204818726 137.53775024414062,82.30782222747803 137.53775024414062,82.30782222747803 C137.53775024414062,82.30782222747803 134.20099639892578,82.30782222747803 134.20099639892578,82.30782222747803 C134.20099639892578,82.30782222747803 134.20099639892578,86.88039207458496 134.20099639892578,86.88039207458496 C134.20099639892578,86.88039207458496 138.40283203125,86.88039207458496 138.40283203125,86.88039207458496 C138.40283203125,86.88039207458496 138.40283203125,89.10489177703857 138.40283203125,89.10489177703857 C138.40283203125,89.10489177703857 131.72933959960938,89.10489177703857 131.72933959960938,89.10489177703857 C131.72933959960938,89.10489177703857 131.72933959960938,73.53342202305794 131.72933959960938,73.53342202305794 C131.72933959960938,73.53342202305794 138.40283203125,73.53342202305794 138.40283203125,73.53342202305794 C138.40283203125,73.53342202305794 138.40283203125,75.75792193412781 138.40283203125,75.75792193412781 C138.40283203125,75.75792193412781 134.20099639892578,75.75792193412781 134.20099639892578,75.75792193412781 C134.20099639892578,75.75792193412781 134.20099639892578,75.75792193412781 134.20099639892578,75.75792193412781 M140.87448120117188,89.10490226745605 C140.87448120117188,89.10490226745605 139.8858184814453,89.10490226745605 139.8858184814453,89.10490226745605 C139.8858184814453,89.10490226745605 139.8858184814453,86.75682163238525 139.8858184814453,86.75682163238525 C139.8858184814453,86.75682163238525 142.29569244384766,86.75682163238525 142.29569244384766,86.75682163238525 C142.5428466796875,88.85773181915283 141.80136108398438,90.03177261352539 141.18344116210938,91.32939147949219 C141.18344116210938,91.32939147949219 140.1947784423828,91.32939147949219 140.1947784423828,91.32939147949219 C140.1947784423828,91.32939147949219 140.87448120117188,89.10490226745605 140.87448120117188,89.10490226745605 " stroke-width="0" stroke="#0" fill="#0" id="svg_36"/><path d="M54.52080035209656,106.30447196960449 C54.52080035209656,106.30447196960449 54.52080035209656,112.97796249389648 54.52080035209656,112.97796249389648 C54.52080035209656,112.97796249389648 52.04914032353554,112.97796249389648 52.04914032353554,112.97796249389648 C52.04914032353554,112.97796249389648 52.04914032353554,97.40649230778217 52.04914032353554,97.40649230778217 C52.04914032353554,97.40649230778217 54.52080035209656,97.40649230778217 54.52080035209656,97.40649230778217 C54.52080035209656,97.40649230778217 54.52080035209656,104.0799822807312 54.52080035209656,104.0799822807312 C54.52080035209656,104.0799822807312 57.30142021179199,104.0799822807312 57.30142021179199,104.0799822807312 C57.30142021179199,104.0799822807312 57.30142021179199,97.40649230778217 57.30142021179199,97.40649230778217 C57.30142021179199,97.40649230778217 59.773080348968506,97.40649230778217 59.773080348968506,97.40649230778217 C59.773080348968506,97.40649230778217 59.773080348968506,112.97796249389648 59.773080348968506,112.97796249389648 C59.773080348968506,112.97796249389648 57.30142021179199,112.97796249389648 57.30142021179199,112.97796249389648 C57.30142021179199,112.97796249389648 57.30142021179199,106.30447196960449 57.30142021179199,106.30447196960449 C57.30142021179199,106.30447196960449 54.52080035209656,106.30447196960449 54.52080035209656,106.30447196960449 C54.52080035209656,106.30447196960449 54.52080035209656,106.30447196960449 54.52080035209656,106.30447196960449 M63.789530754089355,112.97796249389648 C63.789530754089355,112.97796249389648 63.789530754089355,107.78747272491455 63.789530754089355,107.78747272491455 C63.789530754089355,107.78747272491455 60.699950218200684,97.40649230778217 60.699950218200684,97.40649230778217 C60.699950218200684,97.40649230778217 63.29520034790039,97.40649230778217 63.29520034790039,97.40649230778217 C63.29520034790039,97.40649230778217 65.14895057678223,104.51252222061157 65.14895057678223,104.51252222061157 C65.14895057678223,104.51252222061157 67.00269985198975,97.40649230778217 67.00269985198975,97.40649230778217 C67.00269985198975,97.40649230778217 69.35078048706055,97.40649230778217 69.35078048706055,97.40649230778217 C69.35078048706055,97.40649230778217 66.26119995117188,107.78747272491455 66.26119995117188,107.78747272491455 C66.26119995117188,107.78747272491455 66.26119995117188,112.97796249389648 66.26119995117188,112.97796249389648 C66.26119995117188,112.97796249389648 63.78954029083252,112.97796249389648 63.78954029083252,112.97796249389648 C63.78954029083252,112.97796249389648 63.78954029083252,112.97796249389648 63.78954029083252,112.97796249389648 M70.27765083312988,97.40649230778217 C74.1705207824707,97.22112230712082 77.56904983520508,97.22112230712082 77.56904983520508,101.23757219314575 C77.56904983520508,105.13044214248657 76.88933944702148,107.60210227966309 72.74930953979492,107.10777187347412 C72.74930953979492,107.10777187347412 72.74930953979492,112.97797203063965 72.74930953979492,112.97797203063965 C72.74930953979492,112.97797203063965 70.27765083312988,112.97797203063965 70.27765083312988,112.97797203063965 C70.27765083312988,112.97797203063965 70.27765083312988,97.40650230646133 70.27765083312988,97.40650230646133 C70.27765083312988,97.40650230646133 70.27765083312988,97.40650230646133 70.27765083312988,97.40650230646133 M75.09739112854004,101.11399221420288 C75.1591796875,99.44562220573425 74.1705207824707,99.63099241256714 72.74930953979492,99.63099241256714 C72.74930953979492,99.63099241256714 72.74930953979492,104.88327217102051 72.74930953979492,104.88327217102051 C74.10873031616211,104.88327217102051 75.09739112854004,105.13044214248657 75.09739112854004,103.4620623588562 C75.09739112854004,103.4620623588562 75.09739112854004,101.11398220062256 75.09739112854004,101.11398220062256 C75.09739112854004,101.11398220062256 75.09739112854004,101.11398220062256 75.09739112854004,101.11398220062256 M81.09117126464844,99.63098239898682 C81.09117126464844,99.63098239898682 81.09117126464844,103.95639228820801 81.09117126464844,103.95639228820801 C81.09117126464844,103.95639228820801 84.42792129516602,103.95639228820801 84.42792129516602,103.95639228820801 C84.42792129516602,103.95639228820801 84.42792129516602,106.18089199066162 84.42792129516602,106.18089199066162 C84.42792129516602,106.18089199066162 81.09117126464844,106.18089199066162 81.09117126464844,106.18089199066162 C81.09117126464844,106.18089199066162 81.09117126464844,110.75346183776855 81.09117126464844,110.75346183776855 C81.09117126464844,110.75346183776855 85.29299926757812,110.75346183776855 85.29299926757812,110.75346183776855 C85.29299926757812,110.75346183776855 85.29299926757812,112.97796249389648 85.29299926757812,112.97796249389648 C85.29299926757812,112.97796249389648 78.61951065063477,112.97796249389648 78.61951065063477,112.97796249389648 C78.61951065063477,112.97796249389648 78.61951065063477,97.40649230778217 78.61951065063477,97.40649230778217 C78.61951065063477,97.40649230778217 85.29299926757812,97.40649230778217 85.29299926757812,97.40649230778217 C85.29299926757812,97.40649230778217 85.29299926757812,99.63099241256714 85.29299926757812,99.63099241256714 C85.29299926757812,99.63099241256714 81.09117126464844,99.63099241256714 81.09117126464844,99.63099241256714 C81.09117126464844,99.63099241256714 81.09117126464844,99.63099241256714 81.09117126464844,99.63099241256714 M94.43814849853516,112.97797203063965 C94.43814849853516,112.97797203063965 91.90470123291016,112.97797203063965 91.90470123291016,112.97797203063965 C91.10140991210938,111.24781227111816 93.20232009887695,105.62477207183838 89.24766159057617,106.61344242095947 C89.24766159057617,106.61344242095947 89.24766159057617,112.97797203063965 89.24766159057617,112.97797203063965 C89.24766159057617,112.97797203063965 86.7760009765625,112.97797203063965 86.7760009765625,112.97797203063965 C86.7760009765625,112.97797203063965 86.7760009765625,97.40650230646133 86.7760009765625,97.40650230646133 C91.10140991210938,97.22113230713876 94.12919998168945,97.15933230891824 94.12919998168945,102.22624254226685 C94.12919998168945,103.83282232284546 93.63486862182617,104.88328218460083 92.52262115478516,105.37761211395264 C95.05606842041016,106.1809024810791 93.57308197021484,110.4445219039917 94.43815994262695,112.97797203063965 C94.43815994262695,112.97797203063965 94.43815994262695,112.97797203063965 94.43815994262695,112.97797203063965 M91.65753936767578,102.78236246109009 C91.65753936767578,100.55786228179932 91.47216033935547,99.13666236400604 89.2476692199707,99.63099241256714 C89.2476692199707,99.63099241256714 89.2476692199707,104.3889422416687 89.2476692199707,104.3889422416687 C90.66886901855469,104.45073223114014 91.65753936767578,104.45073223114014 91.65753936767578,102.78236246109009 C91.65753936767578,102.78236246109009 91.65753936767578,102.78236246109009 91.65753936767578,102.78236246109009 M101.11164855957031,97.40650230646133 C101.11164855957031,97.40650230646133 103.64509963989258,112.97797203063965 103.64509963989258,112.97797203063965 C103.64509963989258,112.97797203063965 101.1734390258789,112.97797203063965 101.1734390258789,112.97797203063965 C101.1734390258789,112.97797203063965 100.74090194702148,110.1355619430542 100.74090194702148,110.1355619430542 C100.74090194702148,110.1355619430542 97.7131118774414,110.1355619430542 97.7131118774414,110.1355619430542 C97.7131118774414,110.1355619430542 97.28057098388672,112.97797203063965 97.28057098388672,112.97797203063965 C97.28057098388672,112.97797203063965 95.05607986450195,112.97797203063965 95.05607986450195,112.97797203063965 C95.05607986450195,112.97797203063965 97.52774047851562,97.40650230646133 97.52774047851562,97.40650230646133 C97.52774047851562,97.40650230646133 101.11164855957031,97.40650230646133 101.11164855957031,97.40650230646133 C101.11164855957031,97.40650230646133 101.11164855957031,97.40650230646133 101.11164855957031,97.40650230646133 M99.19610977172852,100.1871223449707 C99.19610977172852,100.1871223449707 98.0220718383789,108.03465270996094 98.0220718383789,108.03465270996094 C98.0220718383789,108.03465270996094 100.37015151977539,108.03465270996094 100.37015151977539,108.03465270996094 C100.37015151977539,108.03465270996094 99.19610977172852,100.1871223449707 99.19610977172852,100.1871223449707 M109.51530075073242,107.16957187652588 C109.51530075073242,107.16957187652588 111.80158996582031,107.16957187652588 111.80158996582031,107.16957187652588 C112.04875946044922,110.56811237335205 111.36904907226562,113.16335201263428 108.15589141845703,113.16335201263428 C102.8418197631836,113.16335201263428 104.51018905639648,105.93374252319336 104.51018905639648,101.1140022277832 C104.51018905639648,98.64234232902527 105.74602127075195,97.22113230713876 108.15589141845703,97.22113230713876 C111.12189102172852,97.1593423075974 112.04875946044922,99.38383221626282 111.80158996582031,102.65879249572754 C111.80158996582031,102.65879249572754 109.51530075073242,102.65879249572754 109.51530075073242,102.65879249572754 C109.57709121704102,101.17579221725464 109.63888168334961,99.44563221931458 108.21768188476562,99.44563221931458 C107.41439056396484,99.44563221931458 106.98184967041016,99.87817239761353 106.98184967041016,100.99042224884033 C106.98184967041016,100.99042224884033 106.98184967041016,109.39407253265381 106.98184967041016,109.39407253265381 C106.98184967041016,110.50632190704346 107.41439056396484,110.93886184692383 108.21768188476562,110.93886184692383 C109.82426071166992,110.93886184692383 109.51530075073242,108.71436214447021 109.51530075073242,107.16957187652588 C109.51530075073242,107.16957187652588 109.51530075073242,107.16957187652588 109.51530075073242,107.16957187652588 M112.5430908203125,99.63100242614746 C112.5430908203125,99.63100242614746 112.5430908203125,97.40650230646133 112.5430908203125,97.40650230646133 C112.5430908203125,97.40650230646133 120.08166122436523,97.40650230646133 120.08166122436523,97.40650230646133 C120.08166122436523,97.40650230646133 120.08166122436523,99.63100242614746 120.08166122436523,99.63100242614746 C120.08166122436523,99.63100242614746 117.54821395874023,99.63100242614746 117.54821395874023,99.63100242614746 C117.54821395874023,99.63100242614746 117.54821395874023,112.97798252105713 117.54821395874023,112.97798252105713 C117.54821395874023,112.97798252105713 115.0765495300293,112.97798252105713 115.0765495300293,112.97798252105713 C115.0765495300293,112.97798252105713 115.0765495300293,99.63100242614746 115.0765495300293,99.63100242614746 C115.0765495300293,99.63100242614746 112.54309844970703,99.63100242614746 112.54309844970703,99.63100242614746 C112.54309844970703,99.63100242614746 112.54309844970703,99.63100242614746 112.54309844970703,99.63100242614746 M121.13212966918945,112.97798252105713 C121.13212966918945,112.97798252105713 121.13212966918945,97.4065123051405 121.13212966918945,97.4065123051405 C121.13212966918945,97.4065123051405 123.60379409790039,97.4065123051405 123.60379409790039,97.4065123051405 C123.60379409790039,97.4065123051405 123.60379409790039,112.97798252105713 123.60379409790039,112.97798252105713 C123.60379409790039,112.97798252105713 121.13212966918945,112.97798252105713 121.13212966918945,112.97798252105713 C121.13212966918945,112.97798252105713 121.13212966918945,112.97798252105713 121.13212966918945,112.97798252105713 M127.18770217895508,97.4065123051405 C127.18770217895508,97.4065123051405 129.04143905639648,110.13557243347168 129.04143905639648,110.13557243347168 C129.04143905639648,110.13557243347168 130.89518356323242,97.4065123051405 130.89518356323242,97.4065123051405 C130.89518356323242,97.4065123051405 133.18146896362305,97.4065123051405 133.18146896362305,97.4065123051405 C133.18146896362305,97.4065123051405 130.77160263061523,112.97798252105713 130.77160263061523,112.97798252105713 C130.77160263061523,112.97798252105713 127.12588882446289,112.97798252105713 127.12588882446289,112.97798252105713 C127.12588882446289,112.97798252105713 124.71602249145508,97.4065123051405 124.71602249145508,97.4065123051405 C124.71602249145508,97.4065123051405 127.18767929077148,97.4065123051405 127.18767929077148,97.4065123051405 C127.18767929077148,97.4065123051405 127.18767929077148,97.4065123051405 127.18767929077148,97.4065123051405 M136.7035789489746,99.6310122013092 C136.7035789489746,99.6310122013092 136.7035789489746,103.95642232894897 136.7035789489746,103.95642232894897 C136.7035789489746,103.95642232894897 140.0403175354004,103.95642232894897 140.0403175354004,103.95642232894897 C140.0403175354004,103.95642232894897 140.0403175354004,106.18092250823975 140.0403175354004,106.18092250823975 C140.0403175354004,106.18092250823975 136.7035789489746,106.18092250823975 136.7035789489746,106.18092250823975 C136.7035789489746,106.18092250823975 136.7035789489746,110.75349235534668 136.7035789489746,110.75349235534668 C136.7035789489746,110.75349235534668 140.90539932250977,110.75349235534668 140.90539932250977,110.75349235534668 C140.90539932250977,110.75349235534668 140.90539932250977,112.9779920578003 140.90539932250977,112.9779920578003 C140.90539932250977,112.9779920578003 134.2319221496582,112.9779920578003 134.2319221496582,112.9779920578003 C134.2319221496582,112.9779920578003 134.2319221496582,97.40652230381966 134.2319221496582,97.40652230381966 C134.2319221496582,97.40652230381966 140.90539932250977,97.40652230381966 140.90539932250977,97.40652230381966 C140.90539932250977,97.40652230381966 140.90539932250977,99.63102221488953 140.90539932250977,99.63102221488953 C140.90539932250977,99.63102221488953 136.7035789489746,99.63102221488953 136.7035789489746,99.63102221488953 C136.7035789489746,99.63102221488953 136.7035789489746,99.63102221488953 136.7035789489746,99.63102221488953 M143.3770637512207,112.97800254821777 C143.3770637512207,112.97800254821777 142.38840103149414,112.97800254821777 142.38840103149414,112.97800254821777 C142.38840103149414,112.97800254821777 142.38840103149414,110.62992191314697 142.38840103149414,110.62992191314697 C142.38840103149414,110.62992191314697 144.79826736450195,110.62992191314697 144.79826736450195,110.62992191314697 C145.04543685913086,112.73083209991455 144.3039436340332,113.90487289428711 143.68603134155273,115.2024917602539 C143.68603134155273,115.2024917602539 142.69736099243164,115.2024917602539 142.69736099243164,115.2024917602539 C142.69736099243164,115.2024917602539 143.37707138061523,112.97800254821777 143.37707138061523,112.97800254821777 " stroke-width="0" stroke="#0" fill="#0" id="svg_35"/></g><g type="text" text="RADIOACTIVE." font-size="43.05153" font-family="Bebas Neue" fill="0" stroke="0" stroke-width="0" text-anchor="start" font-weight="normal" font-style="normal" lineHeight="1" shapeId="0" shapeVal="0" display="null" id="svg_32" transform="matrix(0.829746, 0, 0, 0.829746, 1.82975, 0)"><path id="svg_33" fill="#000000" stroke="#000000" stroke-width="0" d="M27.1133,286.83951C27.1133,286.83951 22.21024,286.83951 22.21024,286.83951C20.65561,283.49109 24.72156,272.60868 17.068,274.52207C17.068,274.52207 17.068,286.83951 17.068,286.83951C17.068,286.83951 12.28452,286.83951 12.28452,286.83951C12.28452,286.83951 12.28452,256.70362 12.28452,256.70362C20.65561,256.34486 26.51537,256.22526 26.51537,266.03141C26.51537,269.14066 25.55867,271.17362 23.40611,272.13032C28.30917,273.68498 25.43908,281.93647 27.1133,286.83952C27.1133,286.83952 27.1133,286.83952 27.1133,286.83952M21.73189,267.10768C21.73189,262.8026 21.37313,260.05208 17.068,261.00874C17.068,261.00874 17.068,270.21693 17.068,270.21693C19.8185,270.33653 21.73189,270.33653 21.73189,267.10768C21.73189,267.10768 21.73189,267.10768 21.73189,267.10768M40.0287,256.70366C40.0287,256.70366 44.93176,286.83952 44.93176,286.83952C44.93176,286.83952 40.14828,286.83952 40.14828,286.83952C40.14828,286.83952 39.31118,281.33854 39.31118,281.33854C39.31118,281.33854 33.45142,281.33854 33.45142,281.33854C33.45142,281.33854 32.61432,286.83952 32.61432,286.83952C32.61432,286.83952 28.30918,286.83952 28.30918,286.83952C28.30918,286.83952 33.09266,256.70366 33.09266,256.70366C33.09266,256.70366 40.02871,256.70366 40.02871,256.70366C40.02871,256.70366 40.02871,256.70366 40.02871,256.70366M36.32151,262.08507C36.32151,262.08507 34.04935,277.2726 34.04935,277.2726C34.04935,277.2726 38.59365,277.2726 38.59365,277.2726C38.59365,277.2726 36.3215,262.08507 36.3215,262.08507M46.96474,286.83956C46.96474,286.83956 46.96474,256.70367 46.96474,256.70367C54.6183,256.4645 62.15228,256.10574 61.55435,264.11807C60.83683,273.32626 64.90278,287.31793 54.49872,286.83957C54.49872,286.83957 46.96475,286.83957 46.96475,286.83957C46.96475,286.83957 46.96475,286.83957 46.96475,286.83957M56.77088,263.87888C56.89046,260.53046 54.61831,261.00879 51.74823,261.00879C51.74823,261.00879 51.74823,282.53446 51.74823,282.53446C54.49873,282.53446 56.77088,283.01279 56.77088,279.66437C56.77088,279.66437 56.77088,263.87888 56.77088,263.87888C56.77088,263.87888 56.77088,263.87888 56.77088,263.87888M64.42444,286.83957C64.42444,286.83957 64.42444,256.70368 64.42444,256.70368C64.42444,256.70368 69.20792,256.70368 69.20792,256.70368C69.20792,256.70368 69.20792,286.83957 69.20792,286.83957C69.20792,286.83957 64.42444,286.83957 64.42444,286.83957C64.42444,286.83957 64.42444,286.83957 64.42444,286.83957M76.98107,263.63971C76.98107,263.63971 76.98107,279.90353 76.98107,279.90353C76.98107,282.05609 77.81817,282.89322 79.37281,282.89322C80.92744,282.89322 81.88413,282.05609 81.88413,279.90353C81.88413,279.90353 81.88413,263.63971 81.88413,263.63971C81.88413,261.48715 80.92743,260.65002 79.37281,260.65002C77.81818,260.65002 76.98107,261.48715 76.98107,263.63971C76.98107,263.63971 76.98107,263.63971 76.98107,263.63971M79.37281,287.19833C68.96874,287.19833 72.19759,273.20666 72.19759,263.87887C72.19759,259.09539 74.7089,256.3449 79.37281,256.3449C89.77688,256.3449 86.54803,270.33657 86.54803,279.66436C86.54803,284.44784 84.03672,287.19833 79.37281,287.19833C79.37281,287.19833 79.37281,287.19833 79.37281,287.19833M100.06135,256.70367C100.06135,256.70367 104.96441,286.83956 104.96441,286.83956C104.96441,286.83956 100.18093,286.83956 100.18093,286.83956C100.18093,286.83956 99.34383,281.33858 99.34383,281.33858C99.34383,281.33858 93.48407,281.33858 93.48407,281.33858C93.48407,281.33858 92.64696,286.83956 92.64696,286.83956C92.64696,286.83956 88.34183,286.83956 88.34183,286.83956C88.34183,286.83956 93.12532,256.70367 93.12532,256.70367C93.12532,256.70367 100.06136,256.70367 100.06136,256.70367C100.06136,256.70367 100.06136,256.70367 100.06136,256.70367M96.35418,262.08508C96.35418,262.08508 94.08202,277.27261 94.08202,277.27261C94.08202,277.27261 98.62632,277.27261 98.62632,277.27261C98.62632,277.27261 96.35418,262.08508 96.35418,262.08508M116.3252,275.59842C116.3252,275.59842 120.74991,275.59842 120.74991,275.59842C121.22826,282.17569 119.9128,287.19833 113.69428,287.19833C103.4098,287.19833 106.63865,273.20666 106.63865,263.87887C106.63865,259.09539 109.03039,256.3449 113.69428,256.3449C119.43445,256.2253 121.22826,260.53045 120.74991,266.86855C120.74991,266.86855 116.3252,266.86855 116.3252,266.86855C116.44478,263.99846 116.56437,260.65001 113.81386,260.65001C112.25923,260.65001 111.42212,261.48714 111.42212,263.6397C111.42212,263.6397 111.42212,279.90352 111.42212,279.90352C111.42212,282.05608 112.25922,282.89321 113.81386,282.89321C116.92313,282.89321 116.3252,278.58806 116.3252,275.59841C116.3252,275.59841 116.3252,275.59841 116.3252,275.59841M122.18494,261.00878C122.18494,261.00878 122.18494,256.70367 122.18494,256.70367C122.18494,256.70367 136.77458,256.70367 136.77458,256.70367C136.77458,256.70367 136.77458,261.00878 136.77458,261.00878C136.77458,261.00878 131.87149,261.00878 131.87149,261.00878C131.87149,261.00878 131.87149,286.83956 131.87149,286.83956C131.87149,286.83956 127.08801,286.83956 127.08801,286.83956C127.08801,286.83956 127.08801,261.00878 127.08801,261.00878C127.08801,261.00878 122.18493,261.00878 122.18493,261.00878C122.18493,261.00878 122.18493,261.00878 122.18493,261.00878M138.80753,286.83956C138.80753,286.83956 138.80753,256.70367 138.80753,256.70367C138.80753,256.70367 143.59098,256.70367 143.59098,256.70367C143.59098,256.70367 143.59098,286.83956 143.59098,286.83956C143.59098,286.83956 138.80753,286.83956 138.80753,286.83956C138.80753,286.83956 138.80753,286.83956 138.80753,286.83956M150.52703,256.70367C150.52703,256.70367 154.11463,281.33859 154.11463,281.33859C154.11463,281.33859 157.70226,256.70367 157.70226,256.70367C157.70226,256.70367 162.12696,256.70367 162.12696,256.70367C162.12696,256.70367 157.46308,286.83956 157.46308,286.83956C157.46308,286.83956 150.40746,286.83956 150.40746,286.83956C150.40746,286.83956 145.74357,256.70367 145.74357,256.70367C145.74357,256.70367 150.52705,256.70367 150.52705,256.70367C150.52705,256.70367 150.52705,256.70367 150.52705,256.70367M168.94343,261.00878C168.94343,261.00878 168.94343,269.37987 168.94343,269.37987C168.94343,269.37987 175.40113,269.37987 175.40113,269.37987C175.40113,269.37987 175.40113,273.68502 175.40113,273.68502C175.40113,273.68502 168.94343,273.68502 168.94343,273.68502C168.94343,273.68502 168.94343,282.53445 168.94343,282.53445C168.94343,282.53445 177.07536,282.53445 177.07536,282.53445C177.07536,282.53445 177.07536,286.83956 177.07536,286.83956C177.07536,286.83956 164.15997,286.83956 164.15997,286.83956C164.15997,286.83956 164.15997,256.70367 164.15997,256.70367C164.15997,256.70367 177.07536,256.70367 177.07536,256.70367C177.07536,256.70367 177.07536,261.00878 177.07536,261.00878C177.07536,261.00878 168.94343,261.00878 168.94343,261.00878C168.94343,261.00878 168.94343,261.00878 168.94343,261.00878M179.94543,282.29528C179.94543,282.29528 184.60934,282.29528 184.60934,282.29528C184.60934,282.29528 184.60934,286.83956 184.60934,286.83956C184.60934,286.83956 179.94543,286.83956 179.94543,286.83956C179.94543,286.83956 179.94543,282.29528 179.94543,282.29528C179.94543,282.29528 179.94543,282.29528 179.94543,282.29528"/></g><g type="text" text="I'M" font-size="57.00387" font-family="Bebas Neue" fill="0" stroke="0" stroke-width="0" text-anchor="start" font-weight="normal" font-style="normal" lineHeight="1" shapeId="0" shapeVal="0" display="null" id="svg_30" transform="matrix(0.829746, 0, 0, 0.829746, 1.82975, 0)"><path fill="#000000" stroke="#000000" stroke-width="0" d="M74.85237,62.24744C74.85237,62.24744 74.85237,22.34409 74.85237,22.34409C74.85237,22.34409 81.18624,22.34409 81.18624,22.34409C81.18624,22.34409 81.18624,62.24744 81.18624,62.24744C81.18624,62.24744 74.85237,62.24744 74.85237,62.24744C74.85237,62.24744 74.85237,62.24744 74.85237,62.24744M86.41168,34.06174C86.41168,34.06174 85.4616,22.34409 85.4616,22.34409C85.4616,22.34409 91.47877,22.34409 91.47877,22.34409C91.47877,22.34409 90.68703,34.06174 90.68703,34.06174C90.68703,34.06174 86.41169,34.06174 86.41169,34.06174C86.41169,34.06174 86.41169,34.06174 86.41169,34.06174M104.46321,22.34409C104.46321,22.34409 109.05526,50.68815 109.05526,50.68815C109.05526,50.68815 113.33062,22.34409 113.33062,22.34409C113.33062,22.34409 122.03968,22.34409 122.03968,22.34409C122.03968,22.34409 122.03968,62.24744 122.03968,62.24744C122.03968,62.24744 116.18085,62.24744 116.18085,62.24744C116.18085,62.24744 116.18085,33.5867 116.18085,33.5867C116.18085,33.5867 111.90549,62.24744 111.90549,62.24744C111.90549,62.24744 105.88832,62.24744 105.88832,62.24744C105.88832,62.24744 101.29626,34.06174 101.29626,34.06174C101.29626,34.06174 101.29626,62.24744 101.29626,62.24744C101.29626,62.24744 95.75413,62.24744 95.75413,62.24744C95.75413,62.24744 95.75413,22.34409 95.75413,22.34409C95.75413,22.34409 104.46321,22.34409 104.46321,22.34409C104.46321,22.34409 104.46321,22.34409 104.46321,22.34409" id="svg_31"/></g><g type="text" text="AND," font-size="57.00387" font-family="Bebas Neue" fill="0" stroke="0" stroke-width="0" text-anchor="start" font-weight="normal" font-style="normal" lineHeight="1" shapeId="0" shapeVal="0" display="null" id="svg_28" transform="matrix(0.829746, 0, 0, 0.829746, 1.82975, 0)"><path fill="#000000" stroke="#000000" stroke-width="0" d="M74.79262,121.46494C74.79262,121.46494 81.28472,161.36765 81.28472,161.36765C81.28472,161.36765 74.95096,161.36765 74.95096,161.36765C74.95096,161.36765 73.84255,154.08381 73.84255,154.08381C73.84255,154.08381 66.08369,154.08381 66.08369,154.08381C66.08369,154.08381 64.97528,161.36765 64.97528,161.36765C64.97528,161.36765 59.27489,161.36765 59.27489,161.36765C59.27489,161.36765 65.60865,121.46494 65.60865,121.46494C65.60865,121.46494 74.79261,121.46494 74.79261,121.46494C74.79261,121.46494 74.79261,121.46494 74.79261,121.46494M69.88393,128.59043C69.88393,128.59043 66.87539,148.70011 66.87539,148.70011C66.87539,148.70011 72.89246,148.70011 72.89246,148.70011C72.89246,148.70011 69.88392,128.59043 69.88392,128.59043M97.43579,161.36765C97.43579,161.36765 89.67692,132.39068 89.67692,132.39068C89.67692,132.39068 89.67692,161.36765 89.67692,161.36765C89.67692,161.36765 83.97653,161.36765 83.97653,161.36765C83.97653,161.36765 83.97653,121.46494 83.97653,121.46494C83.97653,121.46494 91.89373,121.46494 91.89373,121.46494C91.89373,121.46494 98.22749,145.37489 98.22749,145.37489C98.22749,145.37489 98.22749,121.46494 98.22749,121.46494C98.22749,121.46494 103.92788,121.46494 103.92788,121.46494C103.92788,121.46494 103.92788,161.36765 103.92788,161.36765C103.92788,161.36765 97.43577,161.36765 97.43577,161.36765C97.43577,161.36765 97.43577,161.36765 97.43577,161.36765M108.20317,161.36765C108.20317,161.36765 108.20317,121.46494 108.20317,121.46494C118.3372,121.14824 128.31287,120.67322 127.52115,131.28226C126.57108,143.47475 131.95478,162.00101 118.17885,161.36765C118.17885,161.36765 108.20317,161.36765 108.20317,161.36765C108.20317,161.36765 108.20317,161.36765 108.20317,161.36765M121.18738,130.96559C121.34573,126.53195 118.33719,127.16533 114.53694,127.16533C114.53694,127.16533 114.53694,155.66727 114.53694,155.66727C118.17885,155.66727 121.18738,156.30065 121.18738,151.86701C121.18738,151.86701 121.18738,130.96561 121.18738,130.96561C121.18738,130.96561 121.18738,130.96561 121.18738,130.96561M133.85491,161.36766C133.85491,161.36766 131.32142,161.36766 131.32142,161.36766C131.32142,161.36766 131.32142,155.35059 131.32142,155.35059C131.32142,155.35059 137.49684,155.35059 137.49684,155.35059C138.13022,160.7343 136.23009,163.74282 134.64665,167.06804C134.64665,167.06804 132.11314,167.06804 132.11314,167.06804C132.11314,167.06804 133.85492,161.36766 133.85492,161.36766" id="svg_29"/></g></g></svg>