<?xml version="1.0" encoding="utf-8"?>
<!-- Generator: Adobe Illustrator 16.0.0, SVG Export Plug-In . SVG Version: 6.00 Build 0)  -->
<!DOCTYPE svg PUBLIC "-//W3C//DTD SVG 1.1//EN" "http://www.w3.org/Graphics/SVG/1.1/DTD/svg11.dtd">
<svg version="1.1" id="Layer_1" xmlns="http://www.w3.org/2000/svg" xmlns:xlink="http://www.w3.org/1999/xlink" x="0px" y="0px"
	 width="100px" height="100px" viewBox="0 0 100 100" enable-background="new 0 0 100 100" xml:space="preserve">
<path d="M98.712,87.723c-0.178-0.437-0.846-0.565-0.846-0.565l-0.847-1.306l-0.205,0.176c0,0-0.178-0.33-0.258-0.434
	c-0.078-0.104-0.641-0.641-0.641-0.641l-11.459-9.229c0,0-0.025-0.951-0.025-1.412s-0.514-0.59-0.514-0.59h-0.82v-0.744
	c0,0,0.539,0,0.846-0.076c0.309-0.076,1.076-0.256,1.076-0.256s0.334,0.103,0.541,0.103c0.203,0,0.229-0.334,0.152-0.771
	c-0.077-0.436-0.589-0.613-0.589-0.613l-0.437-0.743l-0.154,0.077l0.281,0.869l-0.103,0.386c0,0-0.231,0.076-0.487,0.051
	c-0.256-0.024-0.976-0.28-0.976-0.28V70.7l-0.435-0.027v-4.589l0.819-0.152l0.204,0.284l9.229,15.151l0.896-0.641L84.329,65.03
	l-0.486-0.052l-0.795-0.513v-20.46l0.847,3.18c0,0,0.18,0.154,0.408,0.051c0.231-0.102,0.231-0.307,0.231-0.307l-1.437-6.256v-6.87
	H84.2v-0.412c0,0,1.437-0.204,3.13-0.384c1.689-0.179,4.922-0.692,4.845-1.333c-0.077-0.642-7.358-0.975-7.358-0.975
	s-1.025-0.512-1.795-0.512c-0.769,0-1.819,0.537-1.819,0.537s-0.123,0.006-0.33,0.018l-2.046-7.47l0.513-1.059
	c0,0,1.481-0.181,3.453-0.48v8.035h0.341v-8.087c4.035-0.625,9.793-1.712,9.436-2.784c-0.547-1.641-11.655-1.128-11.655-1.128
	s-0.615-0.239-1.403-0.17c-0.785,0.068-1.503,0.17-2.119,0.376c-0.613,0.204-1.229,0.273-2.632,0.479
	c-1.403,0.206-9.024,1.676-8.853,3.042c0.171,1.368,11.076,0.752,11.076,0.752v1.299h0.922l2.185,7.238
	c-1.118,0.057-2.749,0.147-3.271,0.197c-0.82,0.075-3.717,0.307-3.463,1.512c0.258,1.204,4.668,1.075,4.668,1.075v0.898h-5.152
	v-0.46h0.896v-0.616v-0.078h-2.359l-0.075,0.309c0,0-0.179-0.769-0.462-1.436c-0.281-0.667-0.641-0.924-0.641-0.924
	s-0.051-0.178-0.154-0.615c-0.104-0.435-1.076-2.794-1.538-3.564c-0.46-0.77-1.642-1.589-2.153-1.845
	c-0.513-0.256-3.051-1-3.357-1.052c-0.31-0.051-0.693-0.103-1.025-0.384c-0.334-0.282-0.693-0.129-0.693-0.129l-0.203-0.076
	c0,0,0.485-1.667,0.64-2.437c0.155-0.768-0.203-1.333-0.229-1.588c-0.025-0.257,0.051-0.951,0.025-1.283s-0.438-0.974-0.438-0.974
	l0.283,0.206c0,0,0-0.231,0.025-0.59c0.023-0.359-0.258-1.616-0.746-2.385c-0.484-0.77-2.589-1.948-4.896-1.384
	c-2.308,0.563-3.102,2.486-3.076,3.92c0.025,1.437,0.229,2.208,0.229,2.208s-0.179-0.104-0.051,0.717
	c0.129,0.821,1.179,1.512,1.179,1.512s0.053,0.283,0.154,0.975c0.104,0.692,0.257,1.538,0.257,1.538s-0.718,0.564-1.129,0.846
	c-0.41,0.283-1.257,0.512-1.537,0.745c-0.28,0.23-1.359,0.408-2.565,1.024c-1.205,0.615-1.999,1.769-2.152,1.795
	c-0.154,0.025-0.795,1.744-1.309,3.127c-0.511,1.384-1.049,4.05-1.153,4.359c-0.102,0.308-0.231,0.513-0.384,0.898
	c-0.154,0.385,0.206,0.512,0.206,0.512s-0.052,0.258-0.181,0.923c-0.13,0.668-0.208,2.18-0.258,3.718
	c-0.052,1.54,0.923,3.026,1.59,4.411c0.666,1.385,1.127,2.641,1.05,2.897c-0.077,0.256-0.512,1-0.666,1.386
	c-0.154,0.383-0.41,0.409-0.846,1.153c-0.437,0.743,0.103,1.485,0.103,1.485l-0.021,1.073c-0.315,0.114-0.627,0.235-0.936,0.366
	l0.675-1.156l-0.103-0.617l-0.479-0.408l-0.614,1.367c0,0,0,0-0.069-0.172c-0.068-0.17-0.547-0.955-0.547-0.955s0,0,0.41-0.41
	c0.41-0.411,0.308-1.267,0.308-1.267l1.094-0.444l0.272,0.343c0,0,0.375-0.547,0.65-0.683c0.275-0.137,0.307-0.375,0.307-0.375
	s-0.41-0.411-1.058-0.958c-0.649-0.546-1.88-0.923-1.88-0.923L43.273,47l-0.239-0.172l0.034-0.753c0,0-3.215-0.612-9.368-1.195
	c-2.579-0.244-4.882-0.349-6.687-0.391l-0.116-2.378c0,0,0,0,1.281-0.461c4.154,1.743,11.999,2.41,12.717,0.461
	c0.719-1.949-5.845-5.538-11.587-7.897c-3.798-1.559-8.646-2.647-11.896-2.687v-3.159c0,0,0.581-0.324,0.496-0.907
	c2.307,0.48,3.914,0.804,6.033,1.231c2.12,0.429,3.949,0.753,4.12,0.512c0.17-0.237,0.342-0.888-2.121-1.896
	c-2.46-1.008-6.513-2.273-6.513-2.273s-0.512-0.479-0.854-0.837c-0.341-0.359-1.35-0.889-2.409-1.094
	c-1.061-0.206-2.104,0.016-2.497,0.152c-0.392,0.139-0.667,0.241-1.179,0.154c-0.512-0.084-3.248-0.769-5.367-0.906
	c-2.12-0.135-4.223-0.204-4.325,0.344c-0.103,0.547,2.563,1.538,6.017,2.427c3.452,0.888,6.854,1.762,6.854,1.762
	s-0.206,0.495,0.121,0.921c0.324,0.428,0.888,0.547,0.888,0.547v3.03c-1.295,0.056-2.251,0.317-2.649,0.832
	c-0.792,1.027,0.985,2.508,2.649,3.586v10.642L0.953,61.186c0,0-0.102,0.461,0.258,0.82c0.357,0.357,0.767,0.461,0.767,0.461
	l5.281-4.923l0.412,0.41v1.539v18.616c-3.239,0.054-5.795,0.687-5.795,1.457c0,0.656,1.831,1.207,4.354,1.396l-1.242,2.12
	c0,0-0.259,0.323-0.464,0.836c-0.204,0.514-0.801,1.452-0.41,1.762c0.395,0.307,1.265,0.204,1.659-0.054
	c0.393-0.256,0.563-0.854,0.65-1.47c0.085-0.613-0.121-1.127-0.121-1.127l1.313-2.004c0.163,0.004,0.328,0.006,0.492,0.006
	c3.441,0,6.23-0.657,6.23-1.465c0-0.692-2.066-1.274-4.836-1.424l1.502-2.293l4.82,3.727l-1.897,2.888c0,0-0.291,0.154-0.46,0.531
	c-0.172,0.375-0.753,1.846-0.753,1.846s0.598,0.496,1.316,0.359c0.719-0.136,1.265-0.718,1.265-0.718l-0.052-1.353l-0.274-0.374
	l2.359-3.471l0.667-0.018c0,0,0.496,0.188,0.667,0.051c0.171-0.137,0.307-0.494,0.307-0.494l1.932-1.471l2.734,4.119l-0.358,0.614
	l-0.155,0.035l-0.495,1.28c0,0,0.223,0.308,0.82,0.377c0.599,0.068,0.803-0.223,0.803-0.223l-0.033-0.992
	c0,0,0.188,0.291,0.461,0.291c0.273,0,0.546-0.086,0.546-0.086l0.086,0.205l0.718,0.086l0.958-0.357l0.58-0.273
	c0,0,0.394-0.104,0.429-0.272c0.033-0.173,0-0.411,0-0.411l0.7-0.821l0.258-0.478c0,0,0.322,0.271,0.461,0.443
	c0.135,0.172,0.256,0.582,0.256,0.582l-0.155,0.151l0.204,1.744c0,0,0.633,0.856,1.471,0.616c0.838-0.239,0.667-0.838,0.667-0.838
	l-1.094-2.104L30.59,81.08l-0.222-0.307l-0.224-0.615l-0.7-0.65l2.155-3.913l0.256-0.155l1.845,2.854l0.121,0.771l0.256,1.709
	l0.428,0.152l1.256,0.028c0.191,0.317,0.392,0.633,0.602,0.938l-2.07,6.742l0.131,0.038l-0.655-0.155l-0.539,1.308h2.385
	l0.076-0.847l-0.727-0.174l1.906-6.209c3.334,4.383,8.605,7.211,14.538,7.211c5.249,0,9.98-2.216,13.31-5.765l0.98,3.788
	l-0.166,0.072l-0.537,1.461l2.307-0.154l0.077-0.615l-0.939-0.662l-1.166-4.508c0.521-0.611,1.006-1.255,1.444-1.932l0.431,0.102
	l0.896-1.599c0.439,0.544,1.145,1.291,1.924,1.187c0.508-0.065,1.191-0.478,1.752-0.875l-0.06,0.389l-0.692,1.437
	c0,0-0.818-0.18-1.102,0.513c-0.282,0.693,0.257,1.129,0.922,1.334c0.668,0.205,0.975-0.153,1.025-0.512
	c0.052-0.361-0.205-0.977-0.205-0.977l0.539-1.332l2.795,1.896l0.514,0.075l0.486-0.075l1-0.18l1.383-0.104l0.053-0.282l1.385-0.769
	l-0.025,1.82l2.922,0.152l2.104-0.871l-0.152-3.538l1.641-0.769c0,0,8,6.484,8.818,7.178c0.822,0.691,0.796,0.871,0.796,0.871
	l-0.257,0.182l0.847,1.23c0,0-0.077,0.408,0.255,0.871c0.334,0.461,0.949,0.639,1.516,0.358
	C98.789,88.926,98.893,88.157,98.712,87.723z M16.455,78.313l-0.034,0.289l-4.786-3.689c0,0,2.973-5.418,3.28-5.693
	c0.309-0.273,1.455-0.871,1.455-0.871l0.085,0.309V78.313z M16.677,49.58h-0.256v17.74c0,0-1.196,0.357-1.966,1.248
	c-0.477,0.553-3.518,5.173-5.76,8.604V59.338l0.308-0.204l0.206-1.024c0,0,0.307-0.311,0.513-1.025
	c0.204-0.719-0.667-1.641-0.667-1.641l7.623-7.306v1.443H16.677z M25.72,40.418l-0.022,1.966l-1.517-1.3l-0.564,0.052l-1.488-2.156
	L25.72,40.418z M17.413,36.454V36.41c0.938,0.56,1.691,0.931,1.691,0.931l3.18,4.052l-4.872,4.52L17.413,36.454L17.413,36.454z
	 M17.874,76.875v-8.477l0.496-0.035l1.589,0.957l1.71,2.188L17.874,76.875z M18.37,78.396l-0.325,0.052l1.794-2.665l0.667,0.854
	L18.37,78.396z M20.319,75.133l2.119-2.804l1.35,1.659l-2.717,2.103L20.319,75.133z M22.967,71.577l1.676-2.597l0.478,0.051
	l0.188,0.256l0.101,5.195L22.967,71.577z M24.881,81.559l-0.512-0.733l1.077-1.591l0.017,2.07L24.881,81.559z M25.463,78.277
	l-1.282,2.051l-0.025-0.032l-2.693-3.54l2.804-2.188l1.196,1.42V78.277z M25.873,67.783h-1.571l-2.052,2.923
	c0,0-1.436-1.675-1.761-2.052c-0.325-0.377-1.026-0.7-1.026-0.7l0.018-0.224l-0.068-0.119l0.068-0.172l-0.393-0.066l-0.342,0.188
	l-1.076-0.428V49.58h0.239v-0.975h0.837v-1.281h-1.219l5.065-4.855l1.44,2.008c-0.686,0.009-1.063,0.027-1.063,0.027l-0.24,0.308
	l-0.136,2.632l-0.548,0.239l-0.033,1.436l0.99,1.195l-0.443,8.889c0,0-1.13,0.923-1.643,1.266c-0.512,0.342,0.103,1.504,0.103,1.504
	l0.308,0.135l-0.24,1.85l-0.205,0.376l0.103,0.717c0,0,2.215,0.703,4.889,1.156L25.873,67.783L25.873,67.783z M27.958,80.705
	l-0.598,0.633L26.863,81.2v-3.401l1.659,1.948L27.958,80.705z M28.951,78.809l-2.07-2.444v-7.179l0.53-0.104l0.375,0.325
	l0.035,0.205l0.718,0.599l2.854,4.376L28.951,78.809z M33.717,76.637l-4.92-7.656l0.239-0.395l-0.035-0.393L28.095,67.8h-0.974
	v-1.407c0.267,0.034,0.536,0.065,0.802,0.092c2.699,0.265,4.965,0.324,5.855,0.339c-0.404,1.509-0.621,3.096-0.621,4.733
	c0,1.777,0.254,3.493,0.729,5.117L33.717,76.637z M70.621,62.277c-0.171,0.344-0.855,1.779-0.889,1.882
	c-0.022,0.067-0.871,0.302-1.44,0.45c-1.44-3.5-3.94-6.452-7.097-8.461c2.619,0.162,4.466,0.07,5.965-0.179l-0.163,0.464
	c0,0,0.582,1.127,1.196,1.366c0.615,0.238,0.615,0.238,0.615,0.238s0.854,0.104,1.127,0.444c0.275,0.342,0.65,0.547,0.65,0.547
	s-0.889,1.162-0.615,1.574C70.245,61.014,70.791,61.938,70.621,62.277z M75.074,71.467l-1.311,1.385l-0.388,0.367
	c-0.071-0.294-0.188-0.658-0.328-0.72c-0.239-0.103-0.444-0.272-0.444-0.272l0.172-1.23l2.343-0.413L75.074,71.467z"/>
</svg>
