<svg xmlns="http://www.w3.org/2000/svg" xmlns:se="http://svg-edit.googlecode.com" xmlns:xlink="http://www.w3.org/1999/xlink" id="svgcontent" width="107.1" height="340.95" x="0" y="0" viewBox="0 0 107.1 340.95" overflow="hidden"><g mask="" style="pointer-events:all"><title style="pointer-events:inherit">Layer 1</title><g id="svg_1" type="text" text="COMPANY NAME" font-size="6.36519875313826" font-family="Afta sans" fill="32c3f1" text-anchor="start" font-weight="normal" font-style="normal" lineHeight="1" shapeId="0" shapeVal="0" fill-opacity="1" display="null" stroke-opacity="1" transform="rotate(-90.9146 48.0495 138.123)" stroke="null" style="pointer-events:inherit"><path id="svg_2" fill="#32c3f1" d="M-50.3675,138.911C-50.4402,131.112 -43.4649,128.254 -36.8287,130.579C-36.8287,130.579 -36.8287,132.056 -36.8287,132.056C-38.3061,131.354 -39.8077,130.797 -41.4789,130.797C-41.8664,130.797 -48.3815,130.942 -48.3815,138.886C-48.3815,146.903 -42.1328,146.758 -41.4789,146.758C-39.5171,146.758 -37.9428,145.91 -36.6591,144.869C-36.6591,144.869 -36.6591,146.54 -36.6591,146.54C-37.4099,147.048 -39.1295,147.993 -41.4789,147.993C-47.219,147.993 -50.2949,143.9 -50.3675,138.911C-50.3675,138.911 -50.3675,138.911 -50.3675,138.911M-32.2996,138.838C-32.2996,147.145 -26.2204,146.879 -25.0578,146.879C-24.0649,146.879 -17.5982,146.855 -17.5982,138.838C-17.5982,130.7 -24.0891,130.845 -25.0821,130.845C-26.2446,130.845 -32.2996,130.894 -32.2996,138.838C-32.2996,138.838 -32.2996,138.838 -32.2996,138.838M-25.0578,129.78C-18.7365,129.78 -15.9755,132.928 -15.9755,138.862C-15.9755,143.997 -18.5185,147.969 -25.0578,147.969C-31.7183,147.969 -34.1887,144.312 -34.1887,138.862C-34.1887,132.928 -30.8464,129.78 -25.0578,129.78C-25.0578,129.78 -25.0578,129.78 -25.0578,129.78M-2.8241,145.45C-2.8241,145.45 -4.61637,145.45 -4.61637,145.45C-4.61637,145.45 -11.5432,131.16 -11.5432,131.16C-11.5432,136.295 -11.6159,141.89 -11.6159,147.484C-11.6159,147.484 -13.1417,147.484 -13.1417,147.484C-13.1417,147.484 -13.1417,130.167 -13.1417,130.167C-13.1417,130.167 -10.1869,130.167 -10.1869,130.167C-10.1869,130.167 -4.32573,143.149 -4.32573,143.149C-3.88979,144.094 -3.38115,143.706 -3.13895,143.149C1.89874,131.839 2.3347,130.918 2.62533,130.167C2.62533,130.167 5.36217,130.167 5.36217,130.167C5.36217,130.167 5.36217,147.484 5.36217,147.484C5.36217,147.484 3.81211,147.484 3.81211,147.484C3.81211,147.484 3.78789,131.136 3.78789,131.136C3.78789,131.136 -2.8241,145.45 -2.8241,145.45M10.7632,131.233C10.7632,131.233 10.7632,139.08 10.7632,139.08C10.7632,139.08 15.1712,139.08 15.1712,139.08C18.5619,139.08 19.4581,136.319 19.4581,135.253C19.4581,133.558 18.5619,131.233 15.1712,131.233C15.1712,131.233 10.7632,131.233 10.7632,131.233C10.7632,131.233 10.7632,131.233 10.7632,131.233M9.21312,130.192C9.21312,130.192 15.1712,130.167 15.1712,130.167C19.7487,130.167 21.2988,132.904 21.2988,135.253C21.2988,137.458 19.8456,140.194 15.1712,140.194C15.1712,140.194 10.7632,140.194 10.7632,140.194C10.7632,140.194 10.7632,147.509 10.7632,147.509C10.7632,147.509 9.21312,147.509 9.21312,147.509C9.21312,147.509 9.21312,130.192 9.21312,130.192C9.21312,130.192 9.21312,130.192 9.21312,130.192M33.2149,139.879C33.2149,139.879 30.139,130.967 30.139,130.967C30.139,130.967 26.6998,139.879 26.6998,139.879C26.6998,139.879 33.2149,139.879 33.2149,139.879C33.2149,139.879 33.2149,139.879 33.2149,139.879M22.098,147.484C22.098,147.484 28.928,130.167 28.928,130.167C28.928,130.167 31.4227,130.167 31.4227,130.167C31.4227,130.167 37.5018,147.484 37.5018,147.484C37.5018,147.484 35.7095,147.484 35.7095,147.484C35.7095,147.484 33.5298,140.897 33.5298,140.897C33.5298,140.897 26.4576,140.897 26.4576,140.897C26.4576,140.897 23.7692,147.484 23.7692,147.484C23.7692,147.484 22.098,147.484 22.098,147.484C22.098,147.484 22.098,147.484 22.098,147.484M39.8027,147.484C39.8027,147.484 39.8027,130.192 39.8027,130.192C39.8027,130.192 42.1036,130.192 42.1036,130.192C42.1036,130.192 51.7188,145.644 51.7188,145.644C51.7188,145.644 51.7188,130.192 51.7188,130.192C51.7188,130.192 53.3173,130.192 53.3173,130.192C53.3173,130.192 53.3173,147.484 53.3173,147.484C53.3173,147.484 51.5008,147.484 51.5008,147.484C51.5008,147.484 41.3528,131.184 41.3528,131.184C41.3528,131.184 41.3528,147.484 41.3528,147.484C41.3528,147.484 39.8027,147.484 39.8027,147.484C39.8027,147.484 39.8027,147.484 39.8027,147.484M62.5208,140.994C62.5208,140.994 55.5213,130.167 55.5213,130.167C55.5213,130.167 57.2894,130.167 57.2894,130.167C57.2894,130.167 63.3443,139.758 63.3443,139.758C63.3443,139.758 69.4719,130.167 69.4719,130.167C69.4719,130.167 71.2642,130.167 71.2642,130.167C71.2642,130.167 64.2647,140.994 64.2647,140.994C64.2647,140.994 64.2647,147.509 64.2647,147.509C64.2647,147.509 62.5208,147.509 62.5208,147.509C62.5208,147.509 62.5208,140.994 62.5208,140.994C62.5208,140.994 62.5208,140.994 62.5208,140.994M80.5646,147.484C80.5646,147.484 80.5646,130.192 80.5646,130.192C80.5646,130.192 82.8655,130.192 82.8655,130.192C82.8655,130.192 92.4807,145.644 92.4807,145.644C92.4807,145.644 92.4807,130.192 92.4807,130.192C92.4807,130.192 94.0792,130.192 94.0792,130.192C94.0792,130.192 94.0792,147.484 94.0792,147.484C94.0792,147.484 92.2627,147.484 92.2627,147.484C92.2627,147.484 82.1146,131.184 82.1146,131.184C82.1146,131.184 82.1146,147.484 82.1146,147.484C82.1146,147.484 80.5646,147.484 80.5646,147.484C80.5646,147.484 80.5646,147.484 80.5646,147.484M106.964,139.879C106.964,139.879 103.888,130.967 103.888,130.967C103.888,130.967 100.449,139.879 100.449,139.879C100.449,139.879 106.964,139.879 106.964,139.879C106.964,139.879 106.964,139.879 106.964,139.879M95.8472,147.484C95.8472,147.484 102.677,130.167 102.677,130.167C102.677,130.167 105.172,130.167 105.172,130.167C105.172,130.167 111.251,147.484 111.251,147.484C111.251,147.484 109.459,147.484 109.459,147.484C109.459,147.484 107.279,140.897 107.279,140.897C107.279,140.897 100.207,140.897 100.207,140.897C100.207,140.897 97.5184,147.484 97.5184,147.484C97.5184,147.484 95.8472,147.484 95.8472,147.484C95.8472,147.484 95.8472,147.484 95.8472,147.484M123.894,145.45C123.894,145.45 122.101,145.45 122.101,145.45C122.101,145.45 115.175,131.16 115.175,131.16C115.175,136.295 115.102,141.89 115.102,147.484C115.102,147.484 113.576,147.484 113.576,147.484C113.576,147.484 113.576,130.167 113.576,130.167C113.576,130.167 116.531,130.167 116.531,130.167C116.531,130.167 122.392,143.149 122.392,143.149C122.828,144.094 123.337,143.706 123.579,143.149C128.617,131.839 129.053,130.918 129.343,130.167C129.343,130.167 132.08,130.167 132.08,130.167C132.08,130.167 132.08,147.484 132.08,147.484C132.08,147.484 130.53,147.484 130.53,147.484C130.53,147.484 130.506,131.136 130.506,131.136C130.506,131.136 123.894,145.45 123.894,145.45M135.907,147.484C135.907,147.484 135.907,130.192 135.907,130.192C135.907,130.192 145.958,130.192 145.958,130.192C145.958,130.192 145.958,131.209 145.958,131.209C145.958,131.209 137.433,131.209 137.433,131.209C137.433,131.209 137.433,138.16 137.433,138.16C137.433,138.16 143.754,138.16 143.754,138.16C143.754,138.16 143.754,139.201 143.754,139.201C143.754,139.201 137.433,139.201 137.433,139.201C137.433,139.201 137.433,146.443 137.433,146.443C137.433,146.443 146.539,146.443 146.539,146.443C146.539,146.443 146.539,147.484 146.539,147.484C146.539,147.484 135.907,147.484 135.907,147.484C135.907,147.484 135.907,147.484 135.907,147.484" stroke="null" style="pointer-events:inherit"/></g><g type="text" text="WWW.YOURWEBSITE.COM" font-size="6.365134422479667" font-family="Afta sans" fill="32c3f1" text-anchor="start" font-weight="normal" font-style="normal" lineHeight="1" shapeId="0" shapeVal="0" fill-opacity="1" display="null" stroke-opacity="1" transform="rotate(-90.9146 71.592 138.123)" id="svg_3" stroke-width="1" stroke-dasharray="none" stroke="ull" style="pointer-events:inherit"><path id="svg_12" fill="#32c3f1" d="M-12.3462,133.977C-12.3462,133.977 -11.4122,133.977 -11.4122,133.977C-11.4122,133.977 -8.35785,142.383 -8.35785,142.383C-8.35785,142.383 -6.18697,133.977 -6.18697,133.977C-6.18697,133.977 -5.15203,133.977 -5.15203,133.977C-5.15203,133.977 -3.03165,142.408 -3.03165,142.408C-3.03165,142.408 -0.04039,133.977 -0.04039,133.977C-0.04039,133.977 0.91883,133.977 0.91883,133.977C0.91883,133.977 -2.36272,143.002 -2.36272,143.002C-2.36272,143.002 -3.58698,143.002 -3.58698,143.002C-3.58698,143.002 -5.6695,134.432 -5.6695,134.432C-5.6695,134.432 -7.77727,143.002 -7.77727,143.002C-7.77727,143.002 -9.00153,143.002 -9.00153,143.002C-9.00153,143.002 -12.3462,133.977 -12.3462,133.977M1.03243,133.977C1.03243,133.977 1.96641,133.977 1.96641,133.977C1.96641,133.977 5.02077,142.383 5.02077,142.383C5.02077,142.383 7.19164,133.977 7.19164,133.977C7.19164,133.977 8.22659,133.977 8.22659,133.977C8.22659,133.977 10.347,142.408 10.347,142.408C10.347,142.408 13.3382,133.977 13.3382,133.977C13.3382,133.977 14.2974,133.977 14.2974,133.977C14.2974,133.977 11.0159,143.002 11.0159,143.002C11.0159,143.002 9.79164,143.002 9.79164,143.002C9.79164,143.002 7.70911,134.432 7.70911,134.432C7.70911,134.432 5.60135,143.002 5.60135,143.002C5.60135,143.002 4.37708,143.002 4.37708,143.002C4.37708,143.002 1.03243,133.977 1.03243,133.977M14.411,133.977C14.411,133.977 15.345,133.977 15.345,133.977C15.345,133.977 18.3994,142.383 18.3994,142.383C18.3994,142.383 20.5703,133.977 20.5703,133.977C20.5703,133.977 21.6052,133.977 21.6052,133.977C21.6052,133.977 23.7256,142.408 23.7256,142.408C23.7256,142.408 26.7169,133.977 26.7169,133.977C26.7169,133.977 27.6761,133.977 27.6761,133.977C27.6761,133.977 24.3945,143.002 24.3945,143.002C24.3945,143.002 23.1703,143.002 23.1703,143.002C23.1703,143.002 21.0877,134.432 21.0877,134.432C21.0877,134.432 18.98,143.002 18.98,143.002C18.98,143.002 17.7557,143.002 17.7557,143.002C17.7557,143.002 14.411,133.977 14.411,133.977M28.9003,143.014C28.9003,143.014 28.9003,141.954 28.9003,141.954C28.9003,141.954 29.9732,141.954 29.9732,141.954C29.9732,141.954 29.9732,143.014 29.9732,143.014C29.9732,143.014 28.9003,143.014 28.9003,143.014C28.9003,143.014 28.9003,143.014 28.9003,143.014M34.9964,139.619C34.9964,139.619 31.3489,133.977 31.3489,133.977C31.3489,133.977 32.2702,133.977 32.2702,133.977C32.2702,133.977 35.4256,138.975 35.4256,138.975C35.4256,138.975 38.6188,133.977 38.6188,133.977C38.6188,133.977 39.5527,133.977 39.5527,133.977C39.5527,133.977 35.9052,139.619 35.9052,139.619C35.9052,139.619 35.9052,143.014 35.9052,143.014C35.9052,143.014 34.9964,143.014 34.9964,143.014C34.9964,143.014 34.9964,139.619 34.9964,139.619C34.9964,139.619 34.9964,139.619 34.9964,139.619M41.2692,138.496C41.2692,142.825 44.4372,142.686 45.043,142.686C45.5605,142.686 48.9304,142.673 48.9304,138.496C48.9304,134.255 45.5479,134.331 45.0304,134.331C44.4246,134.331 41.2692,134.356 41.2692,138.496C41.2692,138.496 41.2692,138.496 41.2692,138.496M45.043,133.775C48.3372,133.775 49.776,135.416 49.776,138.508C49.776,141.184 48.4508,143.254 45.043,143.254C41.5722,143.254 40.2848,141.348 40.2848,138.508C40.2848,135.416 42.0265,133.775 45.043,133.775C45.043,133.775 45.043,133.775 45.043,133.775M57.4119,133.977C57.4119,133.977 58.2071,133.977 58.2071,133.977C58.2071,133.977 58.2071,139.139 58.2071,139.139C58.2071,140.503 58.2449,143.166 54.7488,143.166C51.2022,143.166 51.1896,140.49 51.1896,139.039C51.1896,139.039 51.1896,133.977 51.1896,133.977C51.1896,133.977 52.01,133.977 52.01,133.977C52.01,133.977 52.01,139.139 52.01,139.139C52.01,139.935 52.0226,142.572 54.7488,142.572C57.4119,142.572 57.4119,139.96 57.4119,139.139C57.4119,139.139 57.4119,133.977 57.4119,133.977C57.4119,133.977 57.4119,133.977 57.4119,133.977M61.0974,137.991C61.0974,137.991 63.3313,137.991 63.3313,137.991C65.01,137.991 65.4644,136.994 65.4644,136.249C65.4644,135.454 64.9216,134.533 63.3313,134.533C63.3313,134.533 61.0974,134.533 61.0974,134.533C61.0974,134.533 61.0974,137.991 61.0974,137.991C61.0974,137.991 61.0974,137.991 61.0974,137.991M60.3022,133.977C60.3022,133.977 63.3313,133.977 63.3313,133.977C65.376,133.977 66.3226,134.899 66.3226,136.136C66.3226,137.549 65.2372,138.205 64.3663,138.306C65.2372,138.508 65.4896,139.102 65.7546,139.758C65.7546,139.758 67.0546,143.002 67.0546,143.002C67.0546,143.002 66.2216,143.002 66.2216,143.002C65.2119,140.452 64.8459,139.531 64.7828,139.392C64.5304,138.849 64.2022,138.609 63.6343,138.609C63.6343,138.609 61.0974,138.609 61.0974,138.609C61.0974,138.609 61.0974,143.002 61.0974,143.002C61.0974,143.002 60.3022,143.002 60.3022,143.002C60.3022,143.002 60.3022,133.977 60.3022,133.977C60.3022,133.977 60.3022,133.977 60.3022,133.977M67.7236,133.977C67.7236,133.977 68.6575,133.977 68.6575,133.977C68.6575,133.977 71.7119,142.383 71.7119,142.383C71.7119,142.383 73.8828,133.977 73.8828,133.977C73.8828,133.977 74.9177,133.977 74.9177,133.977C74.9177,133.977 77.0381,142.408 77.0381,142.408C77.0381,142.408 80.0294,133.977 80.0294,133.977C80.0294,133.977 80.9886,133.977 80.9886,133.977C80.9886,133.977 77.707,143.002 77.707,143.002C77.707,143.002 76.4828,143.002 76.4828,143.002C76.4828,143.002 74.4003,134.432 74.4003,134.432C74.4003,134.432 72.2925,143.002 72.2925,143.002C72.2925,143.002 71.0682,143.002 71.0682,143.002C71.0682,143.002 67.7236,133.977 67.7236,133.977M82.0614,143.002C82.0614,143.002 82.0614,133.99 82.0614,133.99C82.0614,133.99 87.2993,133.99 87.2993,133.99C87.2993,133.99 87.2993,134.52 87.2993,134.52C87.2993,134.52 82.8566,134.52 82.8566,134.52C82.8566,134.52 82.8566,138.142 82.8566,138.142C82.8566,138.142 86.1507,138.142 86.1507,138.142C86.1507,138.142 86.1507,138.685 86.1507,138.685C86.1507,138.685 82.8566,138.685 82.8566,138.685C82.8566,138.685 82.8566,142.459 82.8566,142.459C82.8566,142.459 87.6022,142.459 87.6022,142.459C87.6022,142.459 87.6022,143.002 87.6022,143.002C87.6022,143.002 82.0614,143.002 82.0614,143.002C82.0614,143.002 82.0614,143.002 82.0614,143.002M90.0381,138.37C90.0381,138.37 90.0381,142.585 90.0381,142.585C90.0381,142.585 91.9313,142.673 91.9313,142.673C94.6196,142.737 95.2759,141.815 95.2759,140.439C95.2759,139.127 94.1905,138.37 92.6128,138.37C92.6128,138.37 90.0381,138.37 90.0381,138.37C90.0381,138.37 90.0381,138.37 90.0381,138.37M90.0381,137.802C90.0381,137.802 92.0449,137.802 92.0449,137.802C93.7614,137.802 94.4682,137.347 94.4682,136.199C94.4682,135.176 93.8119,134.533 92.1332,134.533C92.1332,134.533 90.0381,134.533 90.0381,134.533C90.0381,134.533 90.0381,137.802 90.0381,137.802C90.0381,137.802 90.0381,137.802 90.0381,137.802M89.2177,133.99C89.2177,133.99 92.1206,133.99 92.1206,133.99C94.607,133.99 95.4148,134.974 95.4148,136.199C95.4148,137.284 94.6323,137.877 93.5847,138.016C95.0488,138.256 96.273,139.001 96.273,140.54C96.273,141.904 95.5789,143.229 92.6128,143.166C90.341,143.128 89.5459,143.052 89.243,143.014C89.243,139.935 89.2177,137.07 89.2177,133.99C89.2177,133.99 89.2177,133.99 89.2177,133.99M103.391,134.306C103.391,134.306 103.391,134.949 103.391,134.949C102.218,134.406 101.448,134.318 100.526,134.318C99.3779,134.318 98.3934,134.949 98.3934,136.06C98.3934,137.12 99.1128,137.549 100.362,137.915C101.763,138.319 103.669,138.938 103.669,140.856C103.669,142.838 101.473,143.254 100.261,143.254C98.7847,143.254 97.8381,142.825 97.3963,142.522C97.3963,142.522 97.3963,141.689 97.3963,141.689C98.0274,142.156 99.1002,142.648 100.261,142.648C101.637,142.648 102.71,141.853 102.71,140.856C102.71,140.275 102.596,139.291 100.413,138.698C98.4944,138.168 97.3963,137.499 97.3963,136.047C97.3963,134.873 98.4818,133.775 100.539,133.775C102.18,133.775 102.912,134.066 103.391,134.306C103.391,134.306 103.391,134.306 103.391,134.306M105.411,143.002C105.411,143.002 105.411,133.977 105.411,133.977C105.411,133.977 106.219,133.977 106.219,133.977C106.219,133.977 106.219,143.002 106.219,143.002C106.219,143.002 105.411,143.002 105.411,143.002C105.411,143.002 105.411,143.002 105.411,143.002M115.218,133.965C115.218,133.965 115.218,134.507 115.218,134.507C115.218,134.507 111.848,134.507 111.848,134.507C111.848,134.507 111.848,143.002 111.848,143.002C111.848,143.002 111.002,143.002 111.002,143.002C111.002,143.002 111.002,134.507 111.002,134.507C111.002,134.507 107.531,134.507 107.531,134.507C107.531,134.507 107.531,133.965 107.531,133.965C107.531,133.965 115.218,133.965 115.218,133.965C115.218,133.965 115.218,133.965 115.218,133.965M116.341,143.002C116.341,143.002 116.341,133.99 116.341,133.99C116.341,133.99 121.579,133.99 121.579,133.99C121.579,133.99 121.579,134.52 121.579,134.52C121.579,134.52 117.136,134.52 117.136,134.52C117.136,134.52 117.136,138.142 117.136,138.142C117.136,138.142 120.43,138.142 120.43,138.142C120.43,138.142 120.43,138.685 120.43,138.685C120.43,138.685 117.136,138.685 117.136,138.685C117.136,138.685 117.136,142.459 117.136,142.459C117.136,142.459 121.882,142.459 121.882,142.459C121.882,142.459 121.882,143.002 121.882,143.002C121.882,143.002 116.341,143.002 116.341,143.002C116.341,143.002 116.341,143.002 116.341,143.002M123.661,143.014C123.661,143.014 123.661,141.954 123.661,141.954C123.661,141.954 124.734,141.954 124.734,141.954C124.734,141.954 124.734,143.014 124.734,143.014C124.734,143.014 123.661,143.014 123.661,143.014C123.661,143.014 123.661,143.014 123.661,143.014M126.489,138.534C126.451,134.47 130.086,132.98 133.544,134.192C133.544,134.192 133.544,134.962 133.544,134.962C132.774,134.596 131.991,134.306 131.121,134.306C130.919,134.306 127.523,134.381 127.523,138.521C127.523,142.699 130.78,142.623 131.121,142.623C132.143,142.623 132.963,142.181 133.632,141.639C133.632,141.639 133.632,142.509 133.632,142.509C133.241,142.774 132.345,143.267 131.121,143.267C128.129,143.267 126.526,141.134 126.489,138.534C126.489,138.534 126.489,138.534 126.489,138.534M135.904,138.496C135.904,142.825 139.072,142.686 139.678,142.686C140.195,142.686 143.565,142.673 143.565,138.496C143.565,134.255 140.183,134.331 139.665,134.331C139.059,134.331 135.904,134.356 135.904,138.496C135.904,138.496 135.904,138.496 135.904,138.496M139.678,133.775C142.972,133.775 144.411,135.416 144.411,138.508C144.411,141.184 143.086,143.254 139.678,143.254C136.207,143.254 134.92,141.348 134.92,138.508C134.92,135.416 136.661,133.775 139.678,133.775C139.678,133.775 139.678,133.775 139.678,133.775M151.264,141.941C151.264,141.941 150.33,141.941 150.33,141.941C150.33,141.941 146.721,134.495 146.721,134.495C146.721,137.171 146.683,140.086 146.683,143.002C146.683,143.002 145.888,143.002 145.888,143.002C145.888,143.002 145.888,133.977 145.888,133.977C145.888,133.977 147.427,133.977 147.427,133.977C147.427,133.977 150.482,140.742 150.482,140.742C150.709,141.235 150.974,141.033 151.1,140.742C153.725,134.848 153.953,134.369 154.104,133.977C154.104,133.977 155.53,133.977 155.53,133.977C155.53,133.977 155.53,143.002 155.53,143.002C155.53,143.002 154.722,143.002 154.722,143.002C154.722,143.002 154.71,134.482 154.71,134.482C154.71,134.482 151.264,141.941 151.264,141.941" stroke="#ull" style="pointer-events:inherit"/></g><g id="svg_13" display="null" clip-id="196" transform=""><path fill="#EC5724" d="M32.35258289888634,276.62852379209494 C32.44125289572787,277.324366999016 32.544521001805506,278.2532392830022 32.665090570681485,278.9415130999489 C33.24036420872652,281.5361918489885 33.2625317079369,281.6362159307914 33.77562821405037,283.0776440501787 C34.23411697820656,284.20548315634596 34.90076396665536,285.6858395670295 35.4425160205286,286.76988434548844 L36.25298141848866,288.1464319793819 C44.826937576494416,299.84384284320174 76.4431981576235,288.34539880156285 81.6990581533338,284.89916368041713 C81.97804424095713,284.21197120489535 82.35435105682117,283.29607501800785 82.60143757241008,282.59590644538724 C83.29025206006926,280.2721037232843 83.34810382630123,280.08395031535224 83.62817125534946,278.4559908001703 C83.72927667857729,277.63849668294847 83.86444435668939,276.5463418438028 83.9249994764836,275.7218190073191 C54.21081846174779,288.95906006019175 33.27010109791118,286.8769371465532 32.35258289888634,276.62852379209494 " id="svg_14" stroke-width="0" transform=""/><path fill="#04A54F" d="M42.38959400477731,294.8685909472521 C42.91458526656464,295.24057239741654 43.605021766361176,295.75096554996776 44.14515180809707,296.10023883020943 C46.36730843625975,297.4054179300597 46.453815750251465,297.45515963560496 47.86983234615367,298.07639028420806 C50.144434033423835,298.95227683837436 50.32826207565627,299.0274300674047 51.90377653173073,299.4291484067538 C52.52176315605918,299.55890937774143 53.3419606268433,299.7443594321112 53.964813287583794,299.8503308917511 C62.23437183448114,300.87544256255313 70.38011678822781,297.1464366587969 71.95563124430228,296.16674132784055 L72.21785653983972,296.0012960898314 C72.89747962538728,295.54659202066233 72.89747962538728,295.54659202066233 73.26783906341439,295.27896001800036 C74.03775415794084,294.70530839209266 74.05127092575204,294.6950356485562 74.44974524082647,294.3673891968125 C75.32671313641768,293.6261296500458 76.65189705262856,292.50153456815326 78.17064108389593,290.64108664661853 C75.03258826884576,292.9784061365327 52.47905016977576,301.6891519847879 42.38959400477731,294.8685909472521 " id="svg_15" stroke-width="0" transform=""/><path fill="#32C3F1" d="M46.16077222410448,252.55407897890774 C42.08357438153155,254.08796179012367 38.76764090208589,258.45171511029423 42.55990527919853,260.2110576086011 C44.84261702715543,261.2686095221501 49.41615058375592,261.1723701353343 54.796905514041796,259.94991365448857 C62.378730914704846,258.2278774353406 70.43093983519796,254.5432065300052 72.71797694885444,253.45375504442177 C72.97587687869229,253.33102279269602 73.08130766761971,253.2818217578632 73.11753260535374,253.27317102646404 L72.08809556885211,252.57678714883056 C69.86702028211434,251.2683640247056 69.77889095598526,251.21862231916035 68.36611838435775,250.6006356948319 C66.05853578362824,249.70528499501745 65.9217460933788,249.65067725306017 64.41219346422305,249.26085366938491 C60.53017774884398,251.95285314666518 44.88695202557618,257.020019063731 45.51304871059136,253.55431979693716 C45.589283281046576,253.13151529980257 46.004518388206904,252.71195482694264 46.16077222410448,252.55407897890774 " id="svg_16" stroke-width="0" transform=""/><path fill="#FFCB0A" d="M43.414165004866916,253.27911840430096 C42.80807313621233,253.55053510195003 42.25875169236481,253.8922389922174 41.76457866118703,254.2939573315665 C40.6826965655779,255.2130975427287 39.458077401882406,256.2538886641917 37.72360575634815,258.4263035868091 C36.99261895311798,259.4200563562892 36.08429215620478,260.6614363120706 35.201917553489096,262.3450849106347 C34.25790648955429,264.31637032822135 34.11192539719323,264.6202272686173 33.52529767418679,266.3379381220657 C31.175002087173866,274.723200201427 38.34970244136332,276.6777248269277 44.77989922451141,276.8383040285249 C59.65537253610256,277.21028547868934 75.54676611638413,270.63789229816734 81.53253157389969,268.1648644594286 C82.79337567532923,267.64095453906623 82.79337567532923,267.64095453906623 83.06695505582809,267.57715539499725 L82.54628915974033,265.894588137858 C81.55578041453498,263.3626271914625 81.51685212323869,263.26476579250937 80.77018586934754,261.89254352431544 C80.13057241652115,260.8312069157794 79.22440830245773,259.4460085504867 78.50207223062677,258.4376576717706 C78.11927736621334,258.54471047283533 78.11927736621334,258.54471047283533 76.74489241516966,259.1372855736787 C71.6998939973142,261.3199732398327 58.29071965788296,267.119747972266 47.03882146112058,267.2846525395627 C38.25616640810975,267.41333216912545 34.78668244632877,264.32988709603256 37.7555053283826,259.0356394797384 C38.93200479867018,256.9389184568638 41.04602728434318,254.78704902131938 43.414165004866916,253.27911840430096 " id="svg_17" stroke-width="0" transform=""/></g></g><defs><mask id="canvasMaskImageDef" maskUnits="objectBoundingBox" x="0" y="0"><image xmlns:xlink="http://www.w3.org/1999/xlink" id="canvasMaskImage" preserveAspectRatio="none" x="-25.05" y="-110.4" width="400" height="440.0580551523948" xlink:href="http://html5designer.designnbuy.in/media/catalog/product/w/h/white-tees-1_-front_1_3.png"/></mask></defs></svg>