<?xml version="1.0" encoding="utf-8"?>
<!-- Generator: Adobe Illustrator 16.0.0, SVG Export Plug-In . SVG Version: 6.00 Build 0)  -->
<!DOCTYPE svg PUBLIC "-//W3C//DTD SVG 1.1//EN" "http://www.w3.org/Graphics/SVG/1.1/DTD/svg11.dtd">
<svg version="1.1" id="Layer_1" xmlns="http://www.w3.org/2000/svg" xmlns:xlink="http://www.w3.org/1999/xlink" x="0px" y="0px"
	 width="100px" height="100px" viewBox="0 0 100 100" enable-background="new 0 0 100 100" xml:space="preserve">
<path fill="#010101" d="M88.094,57.357c0,0-0.695-0.695-0.658-1.685c0.037-0.987,0.402-4.319,1.172-5.602
	c0.77-1.281,1.793-6.406,0.256-10.031c-1.024-3.404-1.244-3.441-2.051-4.612c-0.805-1.171-3.074-4.1-3.403-4.759
	s-1.281-4.54-0.329-7.102c0.952-2.563,0.622-2.49,0.622-2.49s-2.854,2.453-3.259,5.125c-0.401,2.673-0.33,6.224,0.404,9.226
	c1.023,3.075,1.756,4.393,1.756,4.393s1.063,3.368-0.513,3.332c-1.573-0.037-2.782-1.208-3.147-3.368
	c-0.366-2.16,0.183-4.576,0.183-5.418c0-0.843,0.769-6.187,0.33-8.823c-0.438-2.635-1.317-6.296-2.894-8.457
	c-1.572-2.16-4.539-5.564-4.539-5.564s1.429,5.052,1.574,5.564c0.146,0.513,0.623,4.833,0.33,5.345
	c-0.294,0.512-2.271,4.832-2.197,6.993c0.074,2.16,0.551,5.527,0.551,5.527s0.183,2.709-1.355,2.709
	c-1.537,0-2.195-0.879-2.195-2.855s1.721-4.979,1.574-7.871s-1.465-6.662-3.552-9.225s-3.844-6.846-3.917-8.457
	c-0.072-1.611,0.622-5.601,0.622-5.601s-3.258,1.684-3.222,6.37c0.037,4.686,0.951,5.601,1.611,7.175
	c0.657,1.575,1.902,3.991,1.793,5.089c-0.109,1.098-0.293,4.283-2.525,4.319c-2.233,0.037-2.381-3.697-2.782-4.978
	c-0.403-1.282-0.731-6.26-0.108-9.152c0.621-2.892-0.623-5.088-0.623-5.088l-3.223-5.601c0,0,0.477,4.43,0.074,6.517
	c-0.403,2.086-1.355,5.93-2.197,7.688c-0.842,1.757-1.355,7.249-0.622,9.188c0.732,1.94,1.062,4.649,0.658,5.381
	c-0.401,0.732-1.867,1.721-2.782,1.647c-0.916-0.073-2.417,0.366-1.647-4.1c0.769-4.466,2.05-6.077,1.062-7.981
	c-0.989-1.903-4.503-7.541-4.979-10.03c-0.476-2.489-0.073-7.944-0.073-7.944s-3.295,3.661-3.405,7.761
	c-0.109,4.1,0.659,7.102,1.025,8.31c0.366,1.208,0.805,3.844-0.037,4.906c-0.842,1.062-2.013,4.063-3.917,3.917
	c-1.904-0.146-1.904-2.745-1.245-3.99c0.659-1.244,2.343-6.443,2.233-9.152c-0.11-2.709,0.074-7.065-2.489-8.09
	c0.183,1.537,0.842,6.26-0.476,7.761s-5.931,9.445-5.967,11.276c-0.037,1.83,0.183,7.175,1.171,8.932
	c0.988,1.757,0.659,4.356,0.183,4.686c-0.476,0.329-3.404,1.063-2.892-2.38c0.512-3.441,0.696-6.333-0.256-7.834
	c-0.953-1.501-3.258-3.954-3.186-7.102c0.073-3.148,2.16-8.017,3.039-8.53c-2.379,0.366-7.724,5.199-7.724,10.946
	c0,5.747,0.549,11.934,0.732,12.593c0.183,0.659,0.439,5.638,0.11,6.224c-0.329,0.585-2.708,2.489-3.587,0.402
	c0.073-2.672,1.793-5.491,1.903-8.676s0.806-5.418-0.952-8.419c-1.757-3.002-2.892-3.808-2.892-3.808s1.574,6.333,1.024,7.871
	c-0.549,1.538-5.271,9.226-5.491,11.02c-0.22,1.793-1.025,5.417,0.329,8.53c1.354,3.111,2.709,5.784,2.563,7.102
	s-0.512,1.867-0.512,1.867l-1.465,2.051c0,0-0.292,0.22,0,0.878c0.293,0.659,4.979,11.129,15.339,15.119
	c3.441,1.831,5.857,3.44,5.857,3.44s1.208,0.221,0.293,1.574s-2.343,4.576-2.453,8.641c-0.11,4.063,0,2.965,0.878,3.733
	c0.879,0.769,3.075,1.537,3.075,1.537l0.842,0.293l1.501-5.198l1.757,0.842l-1.062,4.504c0,0-0.256,0.621,0,0.806
	c0.256,0.183,2.782,1.793,6.333,1.464c0.22-0.622,0.256-3.732,0.256-3.732s0.256-1.576,0.732-1.539
	c0.477,0.037,1.575,0.184,1.575,0.184l-0.476,5.016c0,0-0.22,0.146,1.647,0.293c1.867,0.146,6.407-0.146,8.054-0.513
	c-0.109-3.844-0.22-4.796-0.22-4.796l1.721-0.768l0.476,4.574c0,0,0.367,0.659,0.695,0.659c0.33,0,6.113-2.233,6.113-2.233
	l-0.986-4.539l1.793-1.099l1.391,4.906c0,0,4.357-1.574,4.65-3.808c0.256-3.295-0.257-7.871-2.855-11.532
	c0.183-0.843,0.035-0.843,0.328-0.987c0.293-0.146,9.593-4.688,14.389-9.336c4.246-4.686,4.648-7.65,4.648-7.65
	s0.914-0.477,0.658-0.916c0.549-0.512,1.245-0.806,0.916-1.134C89.229,58.676,88.094,57.357,88.094,57.357z M29.715,68.4
	c-4.981-2.42-9.031-9.496-9.031-9.496s10.102-1.77,16.898,1.535c6.797,3.307,10.458,9.791,10.458,9.791
	C40.963,72.279,34.696,70.822,29.715,68.4z M56.128,84.677c0,0-3.328-3.096-5.458-3.129c-2.13-0.032-4.561,3.461-4.561,3.461
	c-1.098-4.626,2.597-9.784,2.597-9.784s1.697-2.863,3.96-0.8C56.461,79.218,56.128,84.677,56.128,84.677z M70.075,67.938
	c-6.703,3.815-16.479,2.047-16.479,2.047s2.746-5.911,10.66-10.986c7.914-5.073,16.014-1.35,16.014-1.35
	S76.779,64.118,70.075,67.938z"/>
</svg>
