<?xml version="1.0" encoding="utf-8"?>
<!-- Generator: Adobe Illustrator 16.0.0, SVG Export Plug-In . SVG Version: 6.00 Build 0)  -->
<!DOCTYPE svg PUBLIC "-//W3C//DTD SVG 1.1//EN" "http://www.w3.org/Graphics/SVG/1.1/DTD/svg11.dtd">
<svg version="1.1"
	 id="islenskifaninn" xmlns:cc="http://creativecommons.org/ns#" xmlns:dc="http://purl.org/dc/elements/1.1/" xmlns:rdf="http://www.w3.org/1999/02/22-rdf-syntax-ns#"
	 xmlns="http://www.w3.org/2000/svg" xmlns:xlink="http://www.w3.org/1999/xlink" x="0px" y="0px" width="144.018px" height="108px"
	 viewBox="0 0 144.018 108" enable-background="new 0 0 144.018 108" xml:space="preserve">
<path fill="#FFFFFF" d="M144.001,37.904v6.667H59.037V0.001h7.155v37.904L144.001,37.904L144.001,37.904z M42.774,44.57V0h-7.806
	v37.904H0v6.667L42.774,44.57L42.774,44.57z M59.037,60.585v47.414h7.806V69.548h77.158v-8.963H59.037z M0.001,60.585v8.429h34.226
	v38.985h8.547V60.585H0.001z"/>
<path fill="#D72828" d="M0.001,37.904V0h34.968v37.904H0.001L0.001,37.904z M66.193,0v37.904h77.809V0H66.193z M0.001,69.014v38.985
	h34.226V69.014H0.001z M66.843,69.548v38.451h77.158V69.548H66.843z"/>
<polygon fill="#003897" points="59.037,44.57 59.037,0 42.774,0 42.774,44.57 0.001,44.57 0.001,60.585 42.774,60.585 
	42.774,107.999 59.037,107.999 59.037,60.585 144.001,60.585 144.001,44.57 "/>
</svg>
