<?xml version="1.0" encoding="utf-8"?>
<!-- Generator: Adobe Illustrator 16.0.0, SVG Export Plug-In . SVG Version: 6.00 Build 0)  -->
<!DOCTYPE svg PUBLIC "-//W3C//DTD SVG 1.1//EN" "http://www.w3.org/Graphics/SVG/1.1/DTD/svg11.dtd">
<svg version="1.1" id="Layer_1" xmlns="http://www.w3.org/2000/svg" xmlns:xlink="http://www.w3.org/1999/xlink" x="0px" y="0px"
	 width="100px" height="100px" viewBox="0 0 100 100" enable-background="new 0 0 100 100" xml:space="preserve">
<g>
	<path d="M8.413,14.041L18.767,2.187c6.055,5.677,11.421,8.374,16.099,8.092c4.677-0.264,8.355-1.537,11.034-3.82
		c2.678-2.263,4.045-3.555,4.102-3.876c0.056,0.321,1.423,1.613,4.102,3.876c2.68,2.283,6.356,3.556,11.035,3.82
		c4.678,0.282,10.043-2.415,16.098-8.092l10.326,11.854c-0.244,0.038-1.442,1.009-3.592,2.914c-2.15,1.905-3.756,4.603-4.812,8.092
		c-1.036,3.489-0.028,7.601,3.028,12.335c4.939,6.884,7.535,12.722,7.779,17.513c0.227,4.771-1.594,9.646-5.461,14.627
		c-2.867,3.451-6.8,6.215-11.798,8.289c-4.979,2.058-9.968,4.479-14.966,7.271c-4.98,2.813-8.895,7.055-11.742,12.732
		c-2.867-5.679-6.818-9.902-11.854-12.676c-5.036-2.753-10.053-5.158-15.051-7.215c-4.999-2.056-8.875-4.855-11.628-8.402
		C7.6,64.223,5.79,59.252,6.035,54.611c0.246-4.639,2.829-10.382,7.752-17.229c3.074-4.734,4.083-8.847,3.027-12.335
		c-1.037-3.489-2.631-6.187-4.781-8.092C9.883,15.051,8.676,14.079,8.413,14.041"/>
</g>
</svg>
