<?xml version="1.0" encoding="utf-8"?>
<!-- Generator: Adobe Illustrator 16.0.0, SVG Export Plug-In . SVG Version: 6.00 Build 0)  -->
<!DOCTYPE svg PUBLIC "-//W3C//DTD SVG 1.1//EN" "http://www.w3.org/Graphics/SVG/1.1/DTD/svg11.dtd">
<svg version="1.1" id="Layer_1" xmlns="http://www.w3.org/2000/svg" xmlns:xlink="http://www.w3.org/1999/xlink" x="0px" y="0px"
	 width="100px" height="100px" viewBox="0 0 100 100" enable-background="new 0 0 100 100" xml:space="preserve">
<path d="M49,0.652c-4.199,1.897-5.861,5.625-4.852,10.047c0.471,2.064,1.328,4.028,2.28,5.912c0.579,1.147,1.16,1.671,0.646,2.895
	c-0.51,1.216-0.813,2.464-0.872,3.785c-0.617-0.49-2.26-2.433-2.975-1.337c-1.012,1.551,1.207,1.696,2.127,2.468
	c1.192,1,1.874,2.519,1.865,4.072c-0.008,1.215-0.495,1.792-1.738,1.792c-0.56,0-2.077,0.2-2.077-0.763
	c1.46,0.225,2.606-0.325,2.498-1.89c-0.051-0.739-0.047-1.63-0.836-1.84c-0.846-0.225-1.738-0.164-2.576,0.061
	c-1.379,0.37-2.641,1.143-3.738,2.039c-0.471,0.384-0.918,0.799-1.326,1.249c0.019,0.829,0.308,1.602,0.781,2.276
	c0.693,0.989,1.691,1.709,2.398,2.685c0.761,1.049,1.387,2.202,1.982,3.351c0.487,0.94,3.57,6.359,2.724,7.205
	c-3.251-0.229-6.308-2.129-8.927-3.927c-1.063-0.729-2.024-1.44-2.869-2.418c-0.391-0.452-0.798-0.904-1.313-1.221
	c-0.893-0.552-1.277-0.509-1.943,0.189c-1.827,1.917-3.901,3.328-4.025,6.232c0.47,1.044,1.619,1.755,2.772,1.506
	c1.772-0.383,1.44-1.827,1.043-3.16c1.738,0,1.433,2.991,1.144,3.943c-1.282,1.069-3.293,0.589-4.663-0.309
	c-0.598-0.393-1.09-0.932-1.402-1.578c-0.386-0.799-0.125-1.648-0.425-2.442c-0.381-1.008-1.705-0.599-1.618,0.405
	c0.103,1.177,0.438,2.314,0.857,3.415c-2.692-0.358-5.967,0.571-5.574,3.945c0.32,2.743,3.738,3.423,5.956,2.796
	c0,0.529-1.451,1.658-1.832,2.061c-0.945,0.998-0.035,1.979,1.133,1.275c1.161-0.701,1.451-2.273,2.734-2.828
	c-0.203,1.965,2.277,7.645,4.515,7.441c1.613-0.146,3.321-2.074,4.651-3.006c1.525-1.068,3.12-2.043,4.822-2.808
	c0.8-0.356,5.057-2.198,5.471-1.375c0.209,1.103,0.273,2.229,0.301,3.349c0.083,3.172-0.151,6.356-0.503,9.508
	c-0.316,2.836-0.723,5.688-1.418,8.459c-0.708,2.818-2.274,4.41-4,6.709c-1.155,1.539-2.028,2.988-0.614,4.596
	c1.03,1.17,1.591,1.959,1.565,3.535c-0.023,1.451,0.891,1.822,2.253,1.875c0.821-0.389,2.079-0.893,1.737-1.92
	c-0.298-0.896-0.653-1.746-1.355-2.404c1.015-0.777,1.609-0.719,2.737-0.318c0.685,0.246,1.248,0.652,1.332,1.412
	c0.157,1.404-0.773,2.91-1.493,4.037c-0.779,1.219-1.684,2.43-2.755,3.41c-0.558,0.51-0.676,1.693,0.244,1.824
	c1,0.143,2.538-2.125,3.243-2.861c-0.323,1.744,0.097,2.963,0.938,4.459c0.164,0.289,0.318,0.584,0.462,0.883
	c0.699-0.063,1.399-0.127,2.098-0.188c1.223-0.111,1.973,0.168,2.368-1.058c0.442-1.373,0.655-2.637,0.55-4.088
	c-0.095-1.315,0.93-0.768,1.74-0.396c1.124,0.514,2.322,0.957,3.568,1.024c1.313,0.072,0.82-1.098,0.358-1.781
	c-0.728-0.1-1.452-0.225-2.153-0.436c-1.187-0.354-2.287-1.004-2.847-2.152c-0.579-1.196-0.809-4.243,1.063-4.448
	c2.267-0.248,0.554,2.711,1.683,3.852c0.578,0.585,2.229,0.339,2.89,0.007c0.045-0.841,0.224-1.67,0.594-2.429
	c0.574-1.172,1.554-2.094,1.91-3.377c0.494-1.771-1.357-3.854-2.317-5.25c-1.292-1.881-2.56-3.752-3.292-5.932
	c-1.295-3.847-1.457-8.025-2.203-11.996c-0.406-2.16-1.551-5.621-0.796-7.773c2.472,0.746,5.013,1.339,7.38,2.396
	c2.09,0.934,3.617,2.689,5.67,3.615c2.569,1.158,3.362-0.478,4.264-2.533c0.797-1.816,2.48-2.478,2.527-4.623
	c1.208,0.945,1.766,2.879,3.434,3.182c1.598-1.275-0.596-2.695-1.397-3.816c2.462,0.226,5.681-0.862,6.056-3.683
	c0.145-1.083-0.305-2.125-1.134-2.823c-1.498-1.26-3.271-0.839-5.049-0.616c0.31-0.904,0.621-1.809,0.933-2.713
	c0.262-0.762,0.857-1.712-0.416-1.836c-0.935-0.091-1.102,0.872-1.355,1.522c-0.272,0.697-0.949,2.873-1.449,1.062
	c-0.271-0.985-0.871-1.285-1.525-1.956c-0.824-0.845-0.884-2.156-1.379-3.177c-1.576-3.255-5.328,0.609-6.889,1.858
	c-2.924,2.34-6.521,3.867-9.922,5.367c0-1.539,1.585-3.698,2.252-5.095c0.857-1.796,1.717-3.591,2.574-5.387
	c0.908-1.901,4.154-4.14,1.957-6.212c-1.426-1.346-3.902-2.779-5.94-2.54c-1.224,0.143-1.86,1.152-1.86,2.318
	c0.438,1.524,1.441,2.178,3.055,1.908c-0.74,1.611-3.317,1.681-3.668-0.2c-0.288-1.545,0.313-2.927,1.363-4.039
	c0.75-0.792,1.885-1.412,2.444-2.36c0.367-0.621,0.036-1.244-0.737-1.09c-0.965,0.191-1.619,0.881-2.457,1.33
	c0.113-1.092-0.134-2.002-0.559-2.99c-0.572-1.333-0.329-1.795,0.434-2.982c1.457-2.271,3.127-4.673,3.768-7.333
	C57.205,4.78,53.775,0.666,49,0.652"/>
</svg>
