<?xml version="1.0" encoding="utf-8"?>
<!-- Generator: Adobe Illustrator 16.0.3, SVG Export Plug-In . SVG Version: 6.00 Build 0)  -->
<!DOCTYPE svg PUBLIC "-//W3C//DTD SVG 1.1//EN" "http://www.w3.org/Graphics/SVG/1.1/DTD/svg11.dtd">
<svg version="1.1" id="Instagram" xmlns="http://www.w3.org/2000/svg" xmlns:xlink="http://www.w3.org/1999/xlink" x="0px" y="0px"
	 width="100px" height="100px" viewBox="0 0 100 100" enable-background="new 0 0 100 100" xml:space="preserve">
<path d="M71.331,26.602h-6.263c-0.902,0-1.635,0.733-1.635,1.636V34.5c0,0.904,0.731,1.636,1.635,1.636h6.263
	c0.903,0,1.636-0.732,1.636-1.636v-6.262C72.967,27.335,72.234,26.602,71.331,26.602z M50.132,58.385
	c4.069-0.031,7.806-3.428,8.044-7.634c0.319-5.626-4.508-9.123-9.271-8.453c-3.505,0.494-6.051,2.882-6.817,6.408
	C40.906,54.152,45.567,58.421,50.132,58.385z M50,0C22.386,0,0,22.386,0,50s22.386,50,50,50c27.613,0,50-22.386,50-50S77.613,0,50,0
	z M78.08,65.201c0,3.822-0.693,6.685-2.727,8.998c-1.799,2.047-4.19,3.686-7.636,3.953c-5.606,0.438-11.616,0-17.587,0
	c-5.743,0-11.81,0.421-17.586,0c-5.7-0.414-10.064-4.604-10.498-10.497c-0.574-7.808,0.429-17.009,0-25.357
	c-0.005-0.233,0.101-0.353,0.273-0.409c5.271,0,10.543,0,15.814,0c0.475,0.346-0.418,1.018-0.682,1.499
	c-1.071,1.96-1.884,5.036-1.635,8.317c0.497,6.557,6.108,12.306,13.224,12.814c5.244,0.375,9.381-2.098,11.997-5.316
	c2.36-2.905,4.362-7.998,2.591-13.36c-0.234-0.714-0.611-1.375-0.954-2.045c-0.317-0.621-0.778-1.235-0.817-1.909
	c5.361,0,10.725,0,16.086,0C78.193,50.065,78.08,57.593,78.08,65.201z M38.953,50.478c-0.072-3.576,1.569-6.52,3.272-8.18
	c1.705-1.662,3.81-2.773,7.089-2.999c6.052-0.416,11.139,3.876,11.724,9.543c0.642,6.203-3.739,11.704-9.271,12.406
	c-1.033,0.131-2.373,0.116-3.409,0C43.457,60.697,39.068,56.242,38.953,50.478z M78.08,40.253c-4.51,0-8.639,0-13.225,0
	c-1.428,0-3.146,0.293-4.362,0c-0.804-0.194-1.216-0.981-1.908-1.499c-2.16-1.613-5.552-3.032-9.816-2.727
	c-3.131,0.225-5.207,1.35-7.226,2.863c-0.532,0.4-1.306,1.211-1.908,1.363c-1.198,0.304-2.981,0-4.499,0c-4.338,0-8.484,0-13.088,0
	c0.229-3.328-0.364-6.511,0.137-9.271c0.607-3.347,2.593-5.633,4.635-6.953c0,3.863-0.025,11.719-0.025,11.719l2.207,0.005
	c0,0-0.182-8.998,0.136-13.087c0.326-0.31,1.05-0.223,1.363-0.545c0.318,4.227,0.287,13.628,0.287,13.628l2.167,0.005
	c0,0,0-8.998,0-13.497c-0.011-0.193-0.022-0.386,0.136-0.409c0.455,0,0.91,0,1.364,0c0,4.589,0.004,13.9,0.004,13.9l2.313,0.005
	c0,0,0-9.271,0-13.905c9.374,0.463,21.483-0.617,30.675,0c3.623,0.243,6.558,2.02,8.314,4.227
	C78.341,29.31,78.203,33.967,78.08,40.253z"/>
</svg>
