<?xml version="1.0" encoding="utf-8"?>
<!-- Generator: Adobe Illustrator 16.0.0, SVG Export Plug-In . SVG Version: 6.00 Build 0)  -->
<!DOCTYPE svg PUBLIC "-//W3C//DTD SVG 1.1//EN" "http://www.w3.org/Graphics/SVG/1.1/DTD/svg11.dtd">
<svg version="1.1" id="Layer_1" xmlns="http://www.w3.org/2000/svg" xmlns:xlink="http://www.w3.org/1999/xlink" x="0px" y="0px"
	 width="100px" height="100px" viewBox="0 0 100 100" enable-background="new 0 0 100 100" xml:space="preserve">
<path fill="#2AACE3" d="M25.861,76.034c3.271-5.8,13.236-23.458-2.517-55.938c2.008,1.386,3.925,2.866,5.711,4.417
	c7.054,19.181,6.717,34.85-1.022,47.906L25.861,76.034 M39.362,80.587c0.932-6.598,3.774-26.673,36.037-42.862
	c-2.437-0.123-4.856-0.113-7.221,0.03c-17.263,10.929-26.534,23.563-28.34,38.638L39.362,80.587"/>
<path fill="#2E358F" d="M29.905,69.303c2.965-5.252,9.9-17.548,3.434-40.68c1.534,1.655,2.907,3.358,4.086,5.087
	c1.29,9.532,1.539,20.004-5.346,31.976C31.356,66.891,30.631,68.098,29.905,69.303 M40.249,72.78
	c0.846-5.972,2.824-19.948,22.028-34.372c-2.221,0.382-4.352,0.899-6.336,1.552c-6.83,6.776-13.395,14.938-15.214,28.626
	C40.569,69.982,40.408,71.381,40.249,72.78"/>
<path fill="#EBE212" d="M22.128,82.249c14.984-26.565-1.874-56.615-9.814-68.3c2.236,0.979,4.437,2.096,6.567,3.328
	c7.58,13.521,18.362,39.473,5.422,61.354C23.577,79.838,22.851,81.045,22.128,82.249 M33.641,63.091
	c2.17-3.852,6.687-11.86,6.009-25.632c0.295,0.584,0.564,1.17,0.81,1.758c0.485,1.164,0.853,2.287,1.107,3.368
	c-0.899,6.036-2.087,10.517-5.756,16.892L33.641,63.091 M38.548,87.784C42.82,57.586,74.479,43.996,87.893,39.56
	c-2.371-0.584-4.797-1.038-7.234-1.357c-14.243,6.12-38.591,20.15-41.634,45.392C38.865,84.99,38.704,86.391,38.548,87.784
	 M41.067,65.58c0.622-4.376,1.907-13.48,10.828-23.998c-0.592,0.282-1.16,0.585-1.709,0.901c-1.096,0.626-2.071,1.296-2.928,2.001
	c-2.959,5.336-4.748,9.614-5.708,16.905L41.067,65.58"/>
<path fill="#9A2481" d="M22.246,80.095c8.331-27.549-9.604-56.792-21.521-69.728l0.041-0.065c2.222,0.421,4.461,1.018,6.688,1.771
	c5.129,6.689,29.892,41.61,13.675,71.813C21.729,82.751,22.105,81.48,22.246,80.095 M37.369,56.878
	c1.502-2.662,3.206-5.681,4.623-10.971c0.022,1.462-0.202,2.817-0.655,4.038c-0.52,1.003-1.227,2.335-1.791,3.315L37.369,56.878
	 M39.766,86.005c10.146-26.93,42.177-39.221,59.503-42.238l0.006-0.078c-2.014-1.015-4.155-1.904-6.383-2.666
	c-8.142,2.195-49.04,14.838-54.552,48.676C38.557,88.43,39.032,87.189,39.766,86.005 M41.889,58.38
	c0.426-3.028,0.914-6.461,3.006-11.521c-0.907,1.149-1.553,2.361-1.938,3.604c-0.2,1.113-0.444,2.6-0.594,3.723L41.889,58.38"/>
</svg>
