<?xml version="1.0" encoding="utf-8"?>
<!-- Generator: Adobe Illustrator 16.0.0, SVG Export Plug-In . SVG Version: 6.00 Build 0)  -->
<!DOCTYPE svg PUBLIC "-//W3C//DTD SVG 1.1//EN" "http://www.w3.org/Graphics/SVG/1.1/DTD/svg11.dtd">
<svg version="1.1" id="Layer_1" xmlns="http://www.w3.org/2000/svg" xmlns:xlink="http://www.w3.org/1999/xlink" x="0px" y="0px"
	 width="100px" height="100px" viewBox="0 0 100 100" enable-background="new 0 0 100 100" xml:space="preserve">
<g>
	<path d="M90.336,83.371c0,0,1.428-1.061,1.657-2.165s-1.474-4.649-1.474-4.649s0.69-0.369,0.506-0.875
		c-0.184-0.508,0.094-2.718,0.094-2.718s0.598-2.303,0.229-3.224c-0.369-0.922-3.224-4.006-3.224-4.006s1.396-2.289,0.967-3.041
		c-1.104-1.934-7.735-2.416-7.735-2.416l-0.414-1.174c0,0,7.806-10.361,2.349-17.82c-5.456-7.46-17.198,0.552-17.198,0.552
		S65.4,31.269,63.398,26.641c-2.004-4.628-3.385-5.042-3.385-5.042s-1.336-3.224-2.211-6.631c-0.742-2.885-0.666-6.061-4.213-5.871
		c-4.284,0.229-4.708,3.781-4.56,6.907c0.12,2.521,0.483,4.766,0.483,4.766s-4.028-0.529-6.193,2.694
		C41.157,26.687,42.769,44,42.769,44s-0.736,3.269-0.875,3.868c-0.138,0.599,0.875,3.271,0.875,3.271s0.67,3.813,1.427,7.78
		c0.75,3.924,1.588,7.995,1.428,8.888c-0.323,1.797-3.454,9.578-4.145,11.327c-0.69,1.75-1.243,4.743-1.243,4.743
		s-0.801,2.375-0.598,4.421c0.157,1.578,1.164,2.961,2.026,2.9c1.98-0.138,2.164-3.822,2.164-3.822s0.46,0.14,0.875,0.047
		c0.215-0.048,1.937-4.774,3.868-9.071c1.799-4.002,3.822-7.598,3.822-7.598l0.553,12.202c0,0-3.269,9.67,1.197,12.709
		c6.451,4.39,7.045-6.263,7.045-6.263l12.479,0.229c0,0,0.876,5.343,4.146,5.804c3.271,0.459,3.638-0.369,3.638-0.369
		s3.086,5.248,7.138,3.177c4.053-2.072,2.35-10.406,2.35-10.406s0.506-1.335,0.045-1.979c-0.461-0.646-1.104-1.565-1.104-1.565
		l0.415-0.229L90.336,83.371z M58.932,81.667l0.276-2.81h0.229l0.047,3.224L58.932,81.667z M61.05,69.811l-0.553,7.459l-1.174,0.139
		l0.206-8.221c0,0,0.484-0.274,1.037,0C61.118,69.464,61.05,69.811,61.05,69.811z M62.5,71.053l3.661,3.453c0,0-0.69-0.138-2.072,0
		c-1.382,0.139-1.935,0.346-1.935,0.346L62.5,71.053z M62.154,78.305c0,0,1.451-0.275,4.904-0.414
		c3.453-0.138,4.696,0.139,4.696,0.139s0.276,0.968,0.207,2.486c-0.069,1.521-0.346,2.693-0.346,2.693l-9.878,0.068L62.154,78.305z
		 M71.641,87.744l-8.058,0.277l-0.968-1.98l10.269-0.184L71.641,87.744z M73.759,85.12l-11.558,0.276l-0.368-1.151l11.972-0.046
		L73.759,85.12z M84.994,85.902l-1.564,0.275c0,0-0.14-0.598-0.322-1.289c-0.186-0.689-0.6-1.474-0.6-1.474s0.922-0.368,2.395,0
		c1.474,0.369,1.703,1.06,1.703,1.06L84.994,85.902z M90.014,87.652c0,0-0.6-0.875-1.289-1.242c-0.69-0.369-1.244-0.783-1.244-0.783
		s0.783-0.645,1.611-0.368C89.921,85.535,90.014,87.652,90.014,87.652z"/>
	<path d="M37.197,62.145c-0.594-6.922-2.763-16.717-2.763-16.717l0.598-0.875c0,0,0.663,0.024,0.737-0.737
		c0.184-1.887-0.129-6.23-0.322-10.407c-0.313-6.748-1.622-14.236-2.164-14.827c-1.013-1.105-6.631-4.006-6.631-4.006v-1.059
		l1.589-1.243c0,0,0.494-1.559,0.662-3.474c0.33-0.167,0.606-0.34,0.606-0.458c0-0.136-0.27-0.542-0.556-0.935
		c-0.011-0.664-0.076-1.334-0.229-1.972c-0.693-2.88-3.251-5.019-6.078-4.145c-5.802,1.796-2.97,10.292-2.97,10.292
		s0.069,0.967-0.069,1.451c-0.139,0.483-0.553,1.313-0.553,1.313s-4.618,2.426-7.505,7.874c-1.106,2.086-3.16,13.637-2.579,14.735
		c2.118,4.006,6.723,7.966,6.723,7.966s2.118,10.361,3.131,16.808c1.013,6.445,1.612,11.418,1.612,11.418s0.138,8.611,0.69,14
		c0.552,5.388,2.67,6.769,2.67,6.769s2.763,2.071,5.25,1.381c1.161-0.321,1.136-1.175,1.059-1.888
		c-0.088-0.813-0.322-1.475-0.322-1.475s0.553-2.717,0.553-3.406c0-0.69-0.645-5.203-0.645-5.203s6.17-12.895,6.769-14.598
		C36.655,68.174,37.483,65.475,37.197,62.145z"/>
</g>
</svg>
