<?xml version="1.0" encoding="utf-8"?>
<!-- Generator: Adobe Illustrator 16.0.0, SVG Export Plug-In . SVG Version: 6.00 Build 0)  -->
<!DOCTYPE svg PUBLIC "-//W3C//DTD SVG 1.1//EN" "http://www.w3.org/Graphics/SVG/1.1/DTD/svg11.dtd">
<svg version="1.1" id="Layer_1" xmlns="http://www.w3.org/2000/svg" xmlns:xlink="http://www.w3.org/1999/xlink" x="0px" y="0px"
	 width="19.597px" height="26.98px" viewBox="6.822 2.416 19.597 26.98" enable-background="new 6.822 2.416 19.597 26.98"
	 xml:space="preserve">
<path fill="#000000" d="M23.024,5.673c-1.744-1.694-3.625-3.051-5.168-3.236c-0.084-0.012-0.171-0.019-0.263-0.021H7.438
	c-0.162,0-0.321,0.063-0.436,0.18C6.889,2.71,6.822,2.87,6.822,3.033v25.75c0,0.161,0.063,0.316,0.181,0.435
	c0.117,0.116,0.271,0.179,0.436,0.179h18.364c0.162,0,0.317-0.062,0.434-0.179c0.117-0.117,0.183-0.272,0.183-0.435V11.648
	C26.382,9.659,24.824,7.49,23.024,5.673z M25.184,28.164H8.052V3.646h9.542v0.002c0.416-0.024,0.775,0.387,1.05,1.326
	c0.25,0.896,0.313,2.063,0.313,2.871c0.002,0.593-0.027,0.991-0.027,0.991L18.88,9.488l0.656,0.008c0.003,0,1.516,0.018,3,0.354
	c1.426,0.309,2.541,0.922,2.645,1.617c0.004,0.062,0.005,0.124,0.004,0.182L25.184,28.164L25.184,28.164z"/>
</svg>
