<?xml version="1.0" encoding="utf-8"?>
<!-- Generator: Adobe Illustrator 16.0.0, SVG Export Plug-In . SVG Version: 6.00 Build 0)  -->
<!DOCTYPE svg PUBLIC "-//W3C//DTD SVG 1.1//EN" "http://www.w3.org/Graphics/SVG/1.1/DTD/svg11.dtd">
<svg version="1.1" id="Layer_1" xmlns="http://www.w3.org/2000/svg" xmlns:xlink="http://www.w3.org/1999/xlink" x="0px" y="0px"
	 width="100px" height="100px" viewBox="0 0 100 100" enable-background="new 0 0 100 100" xml:space="preserve">
<path d="M87.813,56.729c-0.453,1.108-0.832,2.219-1.146,3.33c-0.597,0.159-1.161,0.402-1.67,0.752c-0.896,0.616-1.519,1.5-1.882,2.5
	c-1.092,0.192-2.072,0.688-2.82,1.448c-0.432,0.439-0.764,0.955-1.021,1.511c-1.166,0.119-2.351,0.31-3.588,0.578
	c-2.828,0.707-6.076,2.631-7.83,5.457c-1.123-0.414-2.358-0.639-3.707-0.639c-2.041,0-4.254,0.511-6.172,1.445
	c-1.065,0.563-2.072,1.17-3.035,1.824c-0.555-0.26-1.141-0.447-1.746-0.509c-0.153-0.012-0.309-0.018-0.467-0.018
	c-0.931,0-1.815,0.258-2.604,0.707c-0.791-0.451-1.676-0.707-2.607-0.707c-0.157,0-0.311,0.006-0.464,0.018
	c-0.606,0.062-1.194,0.249-1.75,0.509c-0.979-0.664-2.016-1.289-3.122-1.873c-1.827-0.887-4.041-1.396-6.081-1.396
	c-1.434,0-2.748,0.243-3.915,0.704c-1.753-2.869-5.037-4.815-7.968-5.546c-1.186-0.256-2.346-0.438-3.5-0.559
	c-0.259-0.555-0.585-1.074-1.011-1.508c-0.749-0.761-1.73-1.256-2.823-1.447c-0.364-1.002-0.991-1.885-1.887-2.502
	c-0.505-0.349-1.07-0.594-1.666-0.75c-0.322-1.138-0.714-2.276-1.187-3.427c-1.145-2.565-3.458-5.332-6.38-6.639
	c2.933-1.314,5.245-4.086,6.421-6.724c0.453-1.109,0.833-2.218,1.147-3.331c0.598-0.159,1.164-0.403,1.674-0.753
	c0.89-0.616,1.516-1.497,1.879-2.498c1.089-0.19,2.07-0.687,2.821-1.447c0.426-0.435,0.752-0.953,1.011-1.507
	c1.169-0.123,2.358-0.313,3.6-0.583c2.829-0.708,6.075-2.63,7.828-5.456c1.123,0.412,2.357,0.637,3.707,0.637
	c2.038,0,4.254-0.509,6.175-1.449c1.063-0.558,2.072-1.164,3.031-1.817c0.557,0.261,1.141,0.445,1.747,0.505
	c0.154,0.013,0.31,0.021,0.466,0.021c0.929,0,1.815-0.259,2.604-0.711c0.791,0.453,1.677,0.711,2.604,0.711
	c0.158,0,0.313-0.009,0.467-0.021c0.605-0.06,1.193-0.246,1.753-0.508c0.979,0.667,2.016,1.29,3.122,1.871
	c1.826,0.889,4.045,1.398,6.082,1.398c1.433,0,2.746-0.243,3.912-0.704c1.754,2.87,5.037,4.814,7.97,5.545
	c1.185,0.257,2.344,0.442,3.501,0.562c0.259,0.553,0.586,1.074,1.012,1.507c0.749,0.759,1.729,1.254,2.818,1.446
	c0.365,1.003,0.992,1.885,1.888,2.503c0.504,0.347,1.07,0.592,1.667,0.749c0.322,1.139,0.713,2.274,1.186,3.426
	c1.145,2.565,3.457,5.331,6.381,6.637C91.303,51.314,88.99,54.089,87.813,56.729z M51.627,18.657
	c-0.186-0.209-0.2-0.526-0.036-0.681c0.062-0.053,0.283-0.199,0.623,0.164c3.401,3.695,7.17,7.056,11.716,6.651
	c2.877-0.495,3.877-1.726,4.211-2.671c0.348-0.997,0.086-2.188-0.668-3.037c-0.588-0.667-1.63-1.213-2.617-0.556
	c-0.483,0.362-0.767,0.76-0.808,1.153c-0.032,0.297,0.077,0.588,0.313,0.854c0.252,0.282,0.644,0.533,1.137,0.724
	c0.051,0.012,0.123,0.054,0.176,0.12c0.1,0.105,0.156,0.28,0.081,0.414c-0.055,0.101-0.19,0.201-0.526,0.143
	c-0.275-0.057-0.748-0.313-1.14-0.753c-0.271-0.308-0.588-0.806-0.53-1.421c0.045-0.558,0.381-1.091,1-1.588
	c1.207-0.805,2.534-0.266,3.323,0.625c0.711,0.803,1.039,1.884,0.88,2.895c-0.123,0.767-0.588,1.868-2.095,2.748
	c-2.282,1.361-5.644,0.854-7.796-0.195c-2.596-1.366-4.807-3.023-6.771-5.081l-0.217-0.229c-0.076-0.078-0.152-0.155-0.227-0.245
	l-0.028-0.03C51.627,18.657,51.627,18.657,51.627,18.657L51.627,18.657z M31.65,19.978c3.402-5.04,9.638-5.242,14.816-3.998
	c2.852,0.683,4.586,2.789,7.255,3.782c2.176,0.808,5.153,0.026,6.829-1.193c0.493-0.361,1.127-1.086,1.354-1.615
	c-2.157,2.681-4.338,0.199-4.377,0.294c-0.234,0.622-0.818,1.234-1.361,1.463c-0.573,0.25-1.292,0.322-1.884,0.194
	c-1.7-0.341-3.345-2.023-6.165-3.147C43.101,13.753,35.9,14.093,32.3,18.623c-0.648,0.813-1.042,1.702-1.335,2.686L31.65,19.978z
	 M49.77,19.997c-0.151,1.604-1.416,2.741-2.528,2.635c-1.115-0.105-1.993-1.23-1.908-2.102c0.078-0.84,0.616-1.282,1.345-1.211
	c0.736,0.07,0.96,0.581,0.922,0.991c-0.042,0.405-0.574,1.12-1.045,0.915c-0.317-0.142-0.533,0.086-0.282,0.357
	c0.891,0.993,2.713,0.613,2.915-1.529c0.108-1.145-0.672-3.604-3.632-3.886c-2.959-0.287-4.056,0.27-5.777,1.338
	c-0.225,0.034-0.413,0.018-0.549,0.002c1.462-1.259,3.711-2.084,6.482-1.818C48.458,15.95,49.921,18.422,49.77,19.997L49.77,19.997z
	 M48.136,18.657c0.187-0.209,0.201-0.526,0.039-0.681c-0.063-0.053-0.283-0.199-0.623,0.164c-3.401,3.695-7.171,7.056-11.715,6.651
	c-2.877-0.495-3.878-1.726-4.213-2.671c-0.346-0.997-0.085-2.188,0.668-3.037c0.588-0.667,1.628-1.213,2.62-0.556
	c0.485,0.362,0.763,0.76,0.805,1.153c0.032,0.297-0.076,0.588-0.313,0.854c-0.253,0.282-0.645,0.533-1.137,0.724
	c-0.05,0.012-0.122,0.054-0.177,0.12c-0.097,0.105-0.156,0.28-0.08,0.414c0.054,0.101,0.19,0.201,0.527,0.143
	c0.276-0.057,0.747-0.313,1.137-0.753c0.272-0.308,0.59-0.806,0.533-1.421c-0.044-0.558-0.38-1.091-0.998-1.588
	c-1.208-0.805-2.537-0.266-3.326,0.625c-0.709,0.803-1.038,1.884-0.88,2.895c0.125,0.767,0.589,1.868,2.096,2.748
	c2.283,1.361,5.642,0.854,7.796-0.195c2.594-1.366,4.805-3.023,6.77-5.081l0.218-0.229c0.074-0.078,0.151-0.155,0.224-0.245
	l0.028-0.03C48.136,18.657,48.136,18.657,48.136,18.657L48.136,18.657z M68.113,19.978c-3.401-5.04-9.637-5.242-14.815-3.998
	c-2.852,0.683-4.588,2.789-7.255,3.782c-2.174,0.808-5.154,0.026-6.828-1.193c-0.495-0.361-1.128-1.086-1.356-1.615
	c2.157,2.681,4.338,0.199,4.375,0.294c0.238,0.622,0.821,1.234,1.364,1.463c0.574,0.25,1.292,0.322,1.883,0.194
	c1.702-0.341,3.346-2.023,6.167-3.147c5.016-2.003,12.218-1.664,15.816,2.866c0.648,0.813,1.045,1.702,1.337,2.686L68.113,19.978z
	 M49.995,19.997c0.153,1.604,1.415,2.741,2.528,2.635c1.115-0.105,1.992-1.23,1.908-2.102c-0.078-0.84-0.617-1.282-1.346-1.211
	c-0.736,0.07-0.962,0.581-0.923,0.991c0.041,0.405,0.573,1.12,1.045,0.915c0.317-0.142,0.528,0.086,0.282,0.357
	c-0.891,0.993-2.711,0.613-2.915-1.529c-0.109-1.145,0.671-3.604,3.632-3.886c2.959-0.287,4.057,0.27,5.775,1.338
	c0.227,0.034,0.412,0.018,0.55,0.002c-1.464-1.259-3.712-2.084-6.483-1.818C51.305,15.95,49.844,18.422,49.995,19.997L49.995,19.997
	z M84.492,30.347c0.275-0.041,0.49-0.275,0.464-0.497c-0.013-0.08-0.086-0.336-0.581-0.278c-4.979,0.647-10.029,0.797-13.25-2.435
	c-1.887-2.227-1.859-3.813-1.512-4.751c0.377-0.988,1.342-1.734,2.466-1.898c0.88-0.132,2.026,0.118,2.362,1.257
	c0.139,0.59,0.099,1.076-0.123,1.401c-0.168,0.25-0.438,0.402-0.789,0.455c-0.373,0.053-0.836-0.007-1.336-0.178
	c-0.047-0.022-0.129-0.035-0.215-0.021c-0.141,0.019-0.295,0.113-0.324,0.264c-0.022,0.113,0.018,0.276,0.312,0.447
	c0.246,0.137,0.774,0.243,1.354,0.157c0.41-0.062,0.972-0.242,1.322-0.747c0.324-0.456,0.41-1.083,0.256-1.859
	c-0.408-1.393-1.771-1.835-2.951-1.657c-1.057,0.157-2.006,0.774-2.532,1.649c-0.396,0.667-0.749,1.808-0.16,3.451
	c0.873,2.51,3.774,4.281,6.099,4.864c2.862,0.621,5.625,0.771,8.451,0.458l0.313-0.035c0.108-0.012,0.216-0.023,0.331-0.044
	l0.041-0.003C84.492,30.347,84.492,30.347,84.492,30.347L84.492,30.347z M98.945,44.202c0.635-6.049-4.014-10.211-8.779-12.589
	c-2.624-1.308-5.307-0.813-7.986-1.768c-2.187-0.778-3.968-3.291-4.466-5.304c-0.146-0.592-0.165-1.555-0.002-2.104
	c-0.069,3.436,3.197,2.936,3.162,3.033c-0.215,0.632-0.162,1.474,0.104,2c0.281,0.558,0.783,1.076,1.317,1.357
	c1.524,0.834,3.865,0.602,6.746,1.553c5.133,1.69,10.429,6.579,10.276,12.362c-0.027,1.041-0.295,1.975-0.703,2.918L98.945,44.202z
	 M85.055,32.567c-0.914,1.329-0.68,3.012,0.241,3.644c0.923,0.637,2.315,0.34,2.813-0.382c0.479-0.694,0.352-1.38-0.254-1.794
	c-0.606-0.419-1.108-0.172-1.344,0.169c-0.229,0.334-0.279,1.226,0.213,1.37c0.336,0.097,0.352,0.407-0.015,0.458
	c-1.319,0.183-2.472-1.275-1.25-3.047c0.656-0.946,2.831-2.328,5.282-0.643c2.451,1.685,2.934,2.815,3.563,4.741
	c0.151,0.169,0.307,0.276,0.418,0.354c-0.31-1.905-1.498-3.984-3.795-5.563C88.659,30.308,85.951,31.264,85.055,32.567
	L85.055,32.567z M87.166,32.59c-0.009-0.28,0.184-0.533,0.406-0.544c0.08-0.002,0.348,0.028,0.375,0.523
	c0.229,5.019,0.957,10.015,4.699,12.628c2.521,1.47,4.078,1.17,4.94,0.662c0.908-0.542,1.474-1.622,1.442-2.756
	c-0.021-0.889-0.469-1.977-1.65-2.109c-0.602-0.033-1.074,0.09-1.357,0.366c-0.215,0.208-0.317,0.5-0.308,0.854
	c0.011,0.38,0.147,0.822,0.405,1.285c0.027,0.042,0.056,0.12,0.058,0.206c0.005,0.144-0.058,0.312-0.206,0.368
	c-0.103,0.039-0.271,0.032-0.492-0.23c-0.178-0.22-0.373-0.722-0.388-1.31c-0.011-0.409,0.066-0.995,0.505-1.43
	c0.391-0.398,0.991-0.59,1.783-0.574c1.443,0.16,2.116,1.426,2.146,2.618c0.029,1.068-0.414,2.109-1.186,2.782
	c-0.588,0.507-1.65,1.051-3.374,0.756c-2.62-0.422-4.868-2.973-5.845-5.158c-1.109-2.717-1.739-5.41-1.921-8.248l-0.019-0.312
	c-0.009-0.109-0.019-0.218-0.017-0.333l-0.002-0.041C87.166,32.59,87.166,32.59,87.166,32.59L87.166,32.59z M71.012,20.763
	c5.848-1.674,10.754,2.178,13.922,6.459c1.746,2.357,1.723,5.086,3.127,7.56c1.147,2.017,3.93,3.334,6,3.475
	c0.608,0.042,1.561-0.107,2.073-0.363c-3.376,0.664-3.45-2.639-3.538-2.588c-0.584,0.322-1.423,0.417-1.986,0.243
	c-0.603-0.179-1.196-0.584-1.565-1.061c-1.085-1.355-1.265-3.703-2.701-6.375c-2.555-4.758-8.29-9.126-13.961-7.975
	c-1.017,0.209-1.891,0.635-2.749,1.202L71.012,20.763z M84.881,32.424c-1.148,1.13-2.847,1.188-3.63,0.395
	c-0.787-0.799-0.735-2.226-0.112-2.84c0.603-0.593,1.297-0.583,1.813-0.062c0.518,0.526,0.361,1.062,0.066,1.35
	c-0.291,0.285-1.158,0.491-1.391,0.03c-0.15-0.312-0.461-0.274-0.445,0.094c0.049,1.333,1.687,2.214,3.217,0.702
	c0.82-0.808,1.804-3.193-0.283-5.313c-2.082-2.118-3.279-2.401-5.286-2.688c-0.192-0.118-0.325-0.251-0.423-0.352
	c1.934-0.025,4.185,0.789,6.138,2.773C86.479,28.479,86.012,31.312,84.881,32.424L84.881,32.424z M15.509,30.347
	c-0.276-0.041-0.494-0.275-0.466-0.497c0.013-0.08,0.088-0.336,0.581-0.278c4.981,0.647,10.029,0.797,13.252-2.435
	c1.886-2.227,1.859-3.813,1.509-4.751c-0.377-0.988-1.343-1.734-2.463-1.898c-0.879-0.132-2.027,0.118-2.364,1.257
	c-0.139,0.59-0.096,1.076,0.125,1.401c0.167,0.25,0.435,0.402,0.789,0.455c0.374,0.053,0.834-0.007,1.334-0.178
	c0.047-0.022,0.128-0.035,0.213-0.021c0.144,0.019,0.298,0.113,0.327,0.264c0.021,0.113-0.018,0.276-0.313,0.447
	c-0.246,0.137-0.773,0.243-1.356,0.157c-0.406-0.062-0.967-0.242-1.321-0.747c-0.323-0.456-0.408-1.083-0.255-1.859
	c0.409-1.393,1.772-1.835,2.95-1.657c1.059,0.157,2.005,0.774,2.533,1.649c0.399,0.667,0.75,1.808,0.161,3.451
	c-0.873,2.51-3.774,4.281-6.096,4.864c-2.865,0.621-5.626,0.771-8.453,0.458l-0.313-0.035c-0.109-0.012-0.216-0.023-0.33-0.044
	l-0.041-0.003C15.509,30.347,15.509,30.347,15.509,30.347L15.509,30.347z M1.056,44.202C0.421,38.153,5.07,33.991,9.834,31.613
	c2.623-1.308,5.307-0.813,7.988-1.768c2.187-0.778,3.966-3.291,4.463-5.304c0.148-0.592,0.166-1.555,0.002-2.104
	c0.071,3.436-3.196,2.936-3.162,3.033c0.217,0.632,0.164,1.474-0.105,2c-0.281,0.558-0.783,1.076-1.317,1.357
	c-1.523,0.834-3.865,0.602-6.747,1.553c-5.131,1.69-10.43,6.579-10.278,12.362c0.027,1.041,0.297,1.975,0.706,2.918L1.056,44.202z
	 M14.946,32.567c0.915,1.329,0.678,3.012-0.241,3.644c-0.923,0.637-2.32,0.34-2.815-0.382c-0.48-0.694-0.351-1.38,0.252-1.794
	c0.608-0.419,1.112-0.172,1.343,0.169c0.231,0.334,0.282,1.226-0.211,1.37c-0.335,0.097-0.351,0.407,0.013,0.458
	c1.321,0.183,2.472-1.275,1.25-3.047c-0.654-0.946-2.83-2.328-5.28-0.643c-2.45,1.685-2.934,2.815-3.564,4.741
	c-0.149,0.169-0.305,0.276-0.42,0.354c0.313-1.905,1.502-3.984,3.799-5.563C11.341,30.308,14.051,31.264,14.946,32.567
	L14.946,32.567z M12.835,32.59c0.009-0.28-0.184-0.533-0.407-0.544c-0.082-0.002-0.348,0.028-0.375,0.523
	c-0.227,5.019-0.956,10.015-4.698,12.628c-2.521,1.47-4.08,1.17-4.943,0.662c-0.906-0.542-1.473-1.622-1.441-2.756
	c0.022-0.889,0.469-1.977,1.648-2.109c0.605-0.033,1.076,0.09,1.359,0.366c0.216,0.208,0.319,0.5,0.309,0.854
	c-0.012,0.38-0.149,0.822-0.405,1.285c-0.03,0.042-0.059,0.12-0.059,0.206c-0.005,0.144,0.059,0.312,0.204,0.368
	c0.106,0.039,0.275,0.032,0.495-0.23c0.177-0.22,0.373-0.722,0.388-1.31c0.011-0.409-0.066-0.995-0.505-1.43
	c-0.391-0.398-0.993-0.59-1.785-0.574c-1.443,0.16-2.113,1.426-2.145,2.618c-0.03,1.068,0.416,2.109,1.185,2.782
	c0.59,0.507,1.652,1.051,3.374,0.756c2.623-0.422,4.87-2.973,5.846-5.158c1.11-2.717,1.738-5.41,1.919-8.248l0.021-0.312
	c0.007-0.109,0.016-0.218,0.015-0.333l0.002-0.041C12.835,32.59,12.835,32.59,12.835,32.59L12.835,32.59z M28.988,20.763
	c-5.846-1.674-10.754,2.178-13.921,6.459c-1.746,2.357-1.722,5.086-3.127,7.56c-1.147,2.017-3.93,3.334-5.998,3.475
	c-0.61,0.042-1.561-0.107-2.074-0.363c3.374,0.664,3.447-2.639,3.538-2.588c0.583,0.322,1.421,0.417,1.987,0.243
	c0.599-0.179,1.195-0.584,1.566-1.061c1.083-1.355,1.263-3.703,2.7-6.375c2.554-4.758,8.289-9.126,13.959-7.975
	c1.021,0.209,1.893,0.635,2.751,1.202L28.988,20.763z M15.12,32.424c1.148,1.13,2.847,1.188,3.63,0.395
	c0.788-0.799,0.737-2.226,0.112-2.84c-0.6-0.593-1.298-0.583-1.811-0.062c-0.518,0.526-0.363,1.062-0.069,1.35
	c0.292,0.285,1.16,0.491,1.39,0.03c0.152-0.312,0.461-0.274,0.446,0.094c-0.047,1.333-1.685,2.214-3.218,0.702
	c-0.819-0.808-1.802-3.193,0.284-5.313c2.084-2.118,3.281-2.401,5.287-2.688c0.193-0.118,0.325-0.251,0.422-0.352
	c-1.931-0.025-4.185,0.789-6.137,2.773C13.522,28.479,13.991,31.312,15.12,32.424L15.12,32.424z M48.372,81.343
	c0.187,0.21,0.202,0.529,0.039,0.681c-0.064,0.053-0.286,0.201-0.624-0.162c-3.4-3.696-7.17-7.057-11.717-6.65
	c-2.875,0.493-3.876,1.727-4.21,2.668c-0.347,1.001-0.085,2.188,0.667,3.038c0.588,0.669,1.628,1.212,2.619,0.556
	c0.485-0.361,0.765-0.761,0.807-1.152c0.032-0.299-0.077-0.588-0.314-0.854c-0.252-0.278-0.642-0.532-1.136-0.723
	c-0.05-0.013-0.122-0.056-0.177-0.12c-0.097-0.105-0.156-0.275-0.08-0.412c0.056-0.098,0.191-0.2,0.527-0.143
	c0.277,0.055,0.748,0.313,1.139,0.752c0.272,0.309,0.588,0.807,0.531,1.423c-0.043,0.556-0.38,1.09-0.998,1.588
	c-1.208,0.803-2.537,0.264-3.325-0.627c-0.711-0.802-1.038-1.884-0.881-2.896c0.125-0.767,0.588-1.865,2.096-2.746
	c2.282-1.361,5.642-0.854,7.796,0.194c2.594,1.365,4.805,3.026,6.77,5.084l0.218,0.226c0.074,0.08,0.151,0.156,0.224,0.246
	L48.372,81.343L48.372,81.343L48.372,81.343z M68.352,80.021c-3.401,5.041-9.639,5.242-14.816,3.998
	c-2.854-0.684-4.588-2.787-7.255-3.777c-2.174-0.811-5.154-0.03-6.828,1.189c-0.495,0.36-1.126,1.086-1.355,1.614
	c2.156-2.681,4.337-0.196,4.372-0.294c0.24-0.622,0.822-1.232,1.367-1.463c0.573-0.247,1.292-0.322,1.883-0.193
	c1.701,0.344,3.345,2.024,6.166,3.147c5.018,2.005,12.219,1.663,15.819-2.865c0.647-0.813,1.04-1.702,1.334-2.688L68.352,80.021z
	 M50.231,80.002c0.15-1.604,1.416-2.742,2.527-2.636c1.115,0.106,1.993,1.231,1.908,2.103c-0.077,0.842-0.615,1.283-1.346,1.213
	c-0.735-0.072-0.963-0.582-0.922-0.992c0.041-0.405,0.574-1.121,1.047-0.914c0.316,0.141,0.527-0.088,0.281-0.357
	c-0.894-0.994-2.713-0.613-2.916,1.53c-0.108,1.143,0.672,3.602,3.629,3.886c2.963,0.285,4.058-0.271,5.778-1.34
	c0.226-0.034,0.412-0.016,0.55-0.002c-1.461,1.258-3.711,2.084-6.481,1.818C51.541,84.05,50.08,81.579,50.231,80.002L50.231,80.002z
	 M51.863,81.343c-0.186,0.21-0.201,0.529-0.037,0.681c0.063,0.053,0.283,0.201,0.623-0.162c3.4-3.696,7.17-7.057,11.716-6.65
	c2.877,0.493,3.875,1.727,4.212,2.668c0.346,1.001,0.085,2.188-0.668,3.038c-0.588,0.669-1.63,1.212-2.618,0.556
	c-0.485-0.361-0.765-0.761-0.808-1.152c-0.03-0.299,0.078-0.588,0.313-0.854c0.254-0.278,0.646-0.532,1.137-0.723
	c0.053-0.013,0.123-0.056,0.18-0.12c0.097-0.105,0.156-0.275,0.079-0.412c-0.054-0.098-0.19-0.2-0.526-0.143
	c-0.275,0.055-0.749,0.313-1.139,0.752c-0.271,0.309-0.59,0.807-0.532,1.423c0.046,0.556,0.38,1.09,1,1.588
	c1.206,0.803,2.535,0.264,3.323-0.627c0.712-0.802,1.039-1.884,0.88-2.896c-0.123-0.767-0.588-1.865-2.095-2.746
	c-2.281-1.361-5.645-0.854-7.795,0.194c-2.596,1.365-4.808,3.026-6.771,5.084l-0.219,0.226c-0.073,0.08-0.151,0.156-0.225,0.246
	L51.863,81.343L51.863,81.343L51.863,81.343z M31.886,80.021c3.401,5.041,9.637,5.242,14.816,3.998
	c2.852-0.684,4.586-2.787,7.255-3.777c2.174-0.811,5.152-0.03,6.829,1.189c0.491,0.36,1.124,1.086,1.354,1.614
	c-2.158-2.681-4.338-0.196-4.375-0.294c-0.238-0.622-0.82-1.232-1.363-1.463c-0.574-0.247-1.293-0.322-1.883-0.193
	c-1.701,0.344-3.347,2.024-6.167,3.147c-5.017,2.005-12.218,1.663-15.818-2.865c-0.649-0.813-1.043-1.702-1.337-2.688L31.886,80.021
	z M50.006,80.002c-0.153-1.604-1.416-2.742-2.528-2.636c-1.116,0.106-1.993,1.231-1.908,2.103c0.078,0.842,0.616,1.283,1.345,1.213
	c0.736-0.072,0.963-0.582,0.922-0.992c-0.041-0.405-0.574-1.121-1.045-0.914c-0.317,0.141-0.529-0.088-0.282-0.357
	c0.891-0.994,2.714-0.613,2.915,1.53c0.109,1.143-0.672,3.602-3.629,3.886c-2.961,0.285-4.058-0.271-5.779-1.34
	c-0.223-0.034-0.412-0.016-0.549-0.002c1.463,1.258,3.711,2.084,6.484,1.818C48.696,84.05,50.157,81.579,50.006,80.002
	L50.006,80.002z M15.509,69.652c-0.276,0.039-0.494,0.272-0.466,0.496c0.013,0.078,0.088,0.336,0.581,0.277
	c4.981-0.648,10.029-0.798,13.252,2.434c1.886,2.229,1.859,3.814,1.509,4.755c-0.377,0.985-1.343,1.731-2.463,1.896
	c-0.879,0.135-2.027-0.117-2.364-1.258c-0.139-0.589-0.096-1.075,0.125-1.4c0.167-0.246,0.435-0.401,0.789-0.455
	c0.374-0.053,0.834,0.009,1.334,0.18c0.047,0.021,0.128,0.037,0.213,0.021c0.144-0.02,0.298-0.113,0.327-0.265
	c0.021-0.11-0.018-0.276-0.313-0.447c-0.246-0.137-0.773-0.243-1.356-0.155c-0.406,0.062-0.967,0.239-1.321,0.748
	c-0.323,0.453-0.408,1.08-0.255,1.858c0.409,1.394,1.772,1.832,2.95,1.654c1.059-0.153,2.005-0.773,2.533-1.648
	c0.399-0.667,0.75-1.809,0.161-3.452c-0.873-2.51-3.774-4.279-6.096-4.863c-2.865-0.619-5.626-0.771-8.453-0.455l-0.313,0.035
	c-0.109,0.011-0.216,0.021-0.33,0.041l-0.041,0.004C15.509,69.652,15.509,69.652,15.509,69.652L15.509,69.652z M1.056,55.799
	c-0.635,6.049,4.014,10.213,8.779,12.59c2.623,1.307,5.307,0.812,7.988,1.766c2.187,0.781,3.966,3.291,4.463,5.304
	c0.148,0.594,0.166,1.558,0.002,2.104c0.071-3.438-3.196-2.937-3.162-3.032c0.217-0.632,0.164-1.474-0.105-2.001
	c-0.281-0.559-0.783-1.075-1.317-1.357c-1.523-0.83-3.865-0.602-6.747-1.553C5.826,67.93,0.527,63.04,0.679,57.257
	c0.027-1.041,0.297-1.975,0.706-2.918L1.056,55.799z M14.946,67.432c0.915-1.324,0.678-3.012-0.241-3.644
	c-0.923-0.638-2.32-0.34-2.815,0.384c-0.48,0.692-0.351,1.38,0.252,1.794c0.608,0.419,1.112,0.17,1.343-0.171
	c0.231-0.334,0.282-1.225-0.211-1.369c-0.335-0.097-0.351-0.406,0.013-0.457c1.321-0.185,2.472,1.275,1.25,3.047
	c-0.654,0.946-2.83,2.328-5.28,0.643c-2.45-1.684-2.934-2.813-3.564-4.741c-0.149-0.167-0.305-0.276-0.42-0.354
	c0.313,1.907,1.502,3.983,3.799,5.563C11.341,69.689,14.051,68.736,14.946,67.432L14.946,67.432z M12.835,67.408
	c0.009,0.279-0.184,0.533-0.407,0.545c-0.082,0.002-0.348-0.028-0.375-0.521c-0.227-5.021-0.956-10.017-4.698-12.63
	c-2.521-1.47-4.08-1.167-4.943-0.661c-0.906,0.541-1.473,1.623-1.441,2.758c0.022,0.887,0.469,1.975,1.648,2.106
	c0.605,0.037,1.076-0.091,1.359-0.364c0.216-0.207,0.319-0.5,0.309-0.855c-0.012-0.378-0.149-0.822-0.405-1.285
	c-0.03-0.042-0.059-0.12-0.059-0.206c-0.005-0.142,0.059-0.312,0.204-0.366c0.106-0.039,0.275-0.031,0.495,0.229
	c0.177,0.22,0.373,0.721,0.388,1.31c0.011,0.409-0.066,0.994-0.505,1.43c-0.391,0.399-0.993,0.593-1.785,0.574
	c-1.443-0.16-2.113-1.427-2.145-2.619c-0.03-1.066,0.416-2.105,1.185-2.779c0.59-0.508,1.652-1.053,3.374-0.758
	c2.623,0.425,4.87,2.974,5.846,5.162c1.11,2.713,1.738,5.405,1.919,8.243l0.021,0.314c0.007,0.11,0.016,0.216,0.015,0.331V67.408
	L12.835,67.408L12.835,67.408z M28.988,79.239c-5.846,1.675-10.754-2.183-13.921-6.464c-1.746-2.355-1.722-5.084-3.127-7.559
	c-1.147-2.019-3.93-3.335-5.998-3.476c-0.61-0.042-1.561,0.106-2.074,0.364c3.374-0.666,3.447,2.637,3.538,2.586
	c0.583-0.319,1.421-0.416,1.987-0.243c0.599,0.18,1.195,0.585,1.566,1.063c1.083,1.354,1.263,3.702,2.7,6.374
	c2.554,4.762,8.289,9.129,13.959,7.977c1.021-0.211,1.893-0.637,2.751-1.202L28.988,79.239z M15.12,67.574
	c1.148-1.131,2.847-1.188,3.63-0.395c0.788,0.799,0.737,2.228,0.112,2.84c-0.6,0.595-1.298,0.586-1.811,0.063
	c-0.518-0.527-0.363-1.063-0.069-1.354c0.292-0.283,1.16-0.487,1.39-0.028c0.152,0.312,0.461,0.274,0.446-0.093
	c-0.047-1.334-1.685-2.213-3.218-0.699c-0.819,0.804-1.802,3.189,0.284,5.309c2.084,2.122,3.281,2.402,5.287,2.689
	c0.193,0.115,0.325,0.252,0.422,0.35c-1.931,0.025-4.185-0.788-6.137-2.771C13.522,71.521,13.991,68.688,15.12,67.574L15.12,67.574z
	 M84.492,69.652c0.275,0.039,0.49,0.272,0.464,0.496c-0.013,0.078-0.086,0.336-0.581,0.277c-4.979-0.648-10.029-0.798-13.25,2.434
	c-1.887,2.229-1.859,3.814-1.512,4.755c0.377,0.985,1.342,1.731,2.466,1.896c0.88,0.135,2.026-0.117,2.362-1.258
	c0.139-0.589,0.099-1.075-0.123-1.4c-0.168-0.246-0.438-0.401-0.789-0.455c-0.373-0.053-0.836,0.009-1.336,0.18
	c-0.047,0.021-0.129,0.037-0.215,0.021c-0.141-0.02-0.295-0.113-0.324-0.265c-0.022-0.11,0.018-0.276,0.312-0.447
	c0.246-0.137,0.774-0.243,1.354-0.155c0.41,0.062,0.972,0.239,1.322,0.748c0.324,0.453,0.41,1.08,0.256,1.858
	c-0.408,1.394-1.771,1.832-2.951,1.654c-1.057-0.153-2.006-0.773-2.532-1.648c-0.396-0.667-0.749-1.809-0.16-3.452
	c0.873-2.51,3.774-4.279,6.099-4.863c2.862-0.619,5.625-0.771,8.451-0.455l0.313,0.035c0.108,0.011,0.216,0.021,0.331,0.041
	l0.041,0.004C84.492,69.652,84.492,69.652,84.492,69.652L84.492,69.652z M98.945,55.799c0.635,6.049-4.014,10.213-8.779,12.59
	c-2.624,1.307-5.307,0.812-7.986,1.766c-2.187,0.781-3.968,3.291-4.466,5.304c-0.146,0.594-0.165,1.558-0.002,2.104
	c-0.069-3.438,3.197-2.937,3.162-3.032c-0.215-0.632-0.162-1.474,0.104-2.001c0.281-0.559,0.783-1.075,1.317-1.357
	c1.524-0.83,3.865-0.602,6.746-1.553c5.133-1.688,10.429-6.578,10.276-12.361c-0.027-1.041-0.295-1.975-0.703-2.918L98.945,55.799z
	 M85.055,67.432c-0.914-1.324-0.68-3.012,0.241-3.644c0.923-0.638,2.315-0.34,2.813,0.384c0.479,0.692,0.352,1.38-0.254,1.794
	c-0.606,0.419-1.108,0.17-1.344-0.171c-0.229-0.334-0.279-1.225,0.213-1.369c0.336-0.097,0.352-0.406-0.015-0.457
	c-1.319-0.185-2.472,1.275-1.25,3.047c0.656,0.946,2.831,2.328,5.282,0.643c2.451-1.684,2.934-2.813,3.563-4.741
	c0.151-0.167,0.307-0.276,0.418-0.354c-0.31,1.907-1.498,3.983-3.795,5.563C88.659,69.689,85.951,68.736,85.055,67.432
	L85.055,67.432z M87.166,67.408c-0.009,0.279,0.184,0.533,0.406,0.545c0.08,0.002,0.348-0.028,0.375-0.521
	c0.229-5.021,0.957-10.017,4.699-12.63c2.521-1.47,4.078-1.167,4.94-0.661c0.908,0.541,1.474,1.623,1.442,2.758
	c-0.021,0.887-0.469,1.975-1.65,2.106c-0.602,0.037-1.074-0.091-1.357-0.364c-0.215-0.207-0.317-0.5-0.308-0.855
	c0.011-0.378,0.147-0.822,0.405-1.285c0.027-0.042,0.056-0.12,0.058-0.206c0.005-0.142-0.058-0.312-0.206-0.366
	c-0.103-0.039-0.271-0.031-0.492,0.229c-0.178,0.22-0.373,0.721-0.388,1.31c-0.011,0.409,0.066,0.994,0.505,1.43
	c0.391,0.399,0.991,0.593,1.783,0.574c1.443-0.16,2.116-1.427,2.146-2.619c0.029-1.066-0.414-2.105-1.186-2.779
	c-0.588-0.508-1.65-1.053-3.374-0.758c-2.62,0.425-4.868,2.974-5.845,5.162c-1.109,2.713-1.739,5.405-1.921,8.243l-0.019,0.314
	c-0.009,0.11-0.019,0.216-0.017,0.331L87.166,67.408L87.166,67.408L87.166,67.408z M71.012,79.239
	c5.848,1.675,10.754-2.183,13.922-6.464c1.746-2.355,1.723-5.084,3.127-7.559c1.147-2.019,3.93-3.335,6-3.476
	c0.608-0.042,1.561,0.106,2.073,0.364c-3.376-0.666-3.45,2.637-3.538,2.586c-0.584-0.319-1.423-0.416-1.986-0.243
	c-0.603,0.18-1.196,0.585-1.565,1.063c-1.085,1.354-1.265,3.702-2.701,6.374c-2.555,4.762-8.29,9.129-13.961,7.977
	c-1.017-0.211-1.891-0.637-2.749-1.202L71.012,79.239z M84.881,67.574c-1.148-1.131-2.847-1.188-3.63-0.395
	c-0.787,0.799-0.735,2.228-0.112,2.84c0.603,0.595,1.297,0.586,1.813,0.063c0.518-0.527,0.361-1.063,0.066-1.354
	c-0.291-0.283-1.158-0.487-1.391-0.028c-0.15,0.312-0.461,0.274-0.445-0.093c0.049-1.334,1.687-2.213,3.217-0.699
	c0.82,0.804,1.804,3.189-0.283,5.309c-2.082,2.122-3.279,2.402-5.286,2.689c-0.192,0.115-0.325,0.252-0.423,0.35
	c1.934,0.025,4.185-0.788,6.138-2.771C86.479,71.521,86.012,68.688,84.881,67.574L84.881,67.574z"/>
<path fill="#FFFFFF" d="M50.125,72.943c-0.799-0.367-1.633-0.551-2.5-0.551c-0.18,0-0.349,0.002-0.524,0.015
	c-0.497,0.051-0.993,0.169-1.492,0.36c-0.846-0.557-1.728-1.074-2.637-1.557c-1.917-0.928-4.193-1.449-6.278-1.449
	c-1.183,0-2.306,0.16-3.353,0.479c-2.027-2.812-5.289-4.461-7.784-5.085c-1.004-0.217-1.993-0.383-2.959-0.499
	c-0.264-0.47-0.563-0.873-0.905-1.218c-0.728-0.735-1.647-1.269-2.685-1.541c-0.449-0.969-1.12-1.774-1.959-2.357
	c-0.41-0.283-0.866-0.514-1.36-0.689c-0.3-0.99-0.637-1.938-1.024-2.875c-0.876-1.965-2.589-4.377-5-5.981
	c2.422-1.616,4.15-4.062,5.033-6.037c0.386-0.938,0.716-1.877,0.995-2.808c0.487-0.176,0.947-0.407,1.361-0.69
	c0.839-0.583,1.506-1.387,1.956-2.352c1.038-0.276,1.962-0.803,2.689-1.545c0.342-0.349,0.639-0.752,0.9-1.218
	c1.013-0.124,2.005-0.292,3.025-0.51c2.464-0.617,5.668-2.245,7.684-5.02c1,0.282,2.054,0.426,3.15,0.426
	c2.134,0,4.384-0.53,6.339-1.489c0.896-0.466,1.758-0.974,2.579-1.508c0.498,0.188,0.993,0.303,1.472,0.352
	c0.195,0.015,0.364,0.023,0.541,0.023c0.862,0,1.696-0.187,2.494-0.56c0.799,0.368,1.648,0.56,2.495,0.56
	c0.179,0,0.354-0.009,0.522-0.023c0.492-0.049,0.992-0.168,1.492-0.355c0.856,0.56,1.741,1.08,2.646,1.551
	c1.897,0.928,4.176,1.45,6.271,1.45c1.185,0,2.307-0.162,3.354-0.48c2.026,2.813,5.289,4.46,7.782,5.085
	c1.005,0.218,1.971,0.384,2.959,0.502c0.266,0.468,0.568,0.875,0.9,1.215c0.729,0.739,1.647,1.266,2.688,1.541
	c0.451,0.97,1.119,1.78,1.96,2.357c0.409,0.284,0.866,0.514,1.36,0.69c0.285,0.954,0.623,1.899,1.021,2.875
	c0.877,1.967,2.59,4.377,5.001,5.982c-2.422,1.615-4.149,4.06-5.032,6.037c-0.386,0.938-0.717,1.877-0.994,2.81
	c-0.5,0.182-0.955,0.416-1.363,0.694c-0.838,0.577-1.504,1.384-1.953,2.353c-1.035,0.272-1.958,0.802-2.688,1.541
	c-0.345,0.356-0.65,0.762-0.912,1.218c-1.004,0.123-1.996,0.291-3.016,0.521c-2.459,0.609-5.663,2.236-7.686,5.014
	c-0.996-0.282-2.049-0.428-3.15-0.428c-2.118,0-4.368,0.524-6.334,1.479c-0.896,0.479-1.76,0.987-2.579,1.524
	c-0.501-0.191-0.983-0.307-1.471-0.357c-0.196-0.016-0.365-0.018-0.546-0.018C51.766,72.393,50.914,72.58,50.125,72.943
	L50.125,72.943z"/>
</svg>
