<?xml version="1.0" encoding="utf-8"?>
<!-- Generator: Adobe Illustrator 16.0.0, SVG Export Plug-In . SVG Version: 6.00 Build 0)  -->
<!DOCTYPE svg PUBLIC "-//W3C//DTD SVG 1.1//EN" "http://www.w3.org/Graphics/SVG/1.1/DTD/svg11.dtd">
<svg version="1.1" id="Layer_1" xmlns="http://www.w3.org/2000/svg" xmlns:xlink="http://www.w3.org/1999/xlink" x="0px" y="0px"
	 width="100px" height="100px" viewBox="0 0 100 100" enable-background="new 0 0 100 100" xml:space="preserve">
<path fill="#010101" d="M46.349,70.254c0,0-0.619,0.471-2.075,1.662c-1.521,1.245-3.042,1.938-3.042,1.938s0.415,1.248,5.117,1.662
	c4.704,0.416,7.053-1.801,7.053-1.801s-2.074-0.415-4.287-1.66C46.902,70.809,46.349,70.254,46.349,70.254z M39.041,41.522
	l0.856,1.441l4.671-2.563l9.071,14.554l-3.747,2.164l1.865,2.627l12.974-6.84l-1.865-2.627l-4.09,1.891L45.893,32.073l-4.204,2.428
	c0,0,0.103,2.14-0.686,3.743C40.258,39.763,39.041,41.522,39.041,41.522z M46.488,68.73l30.29-15.369L52.711,23.87L22.006,36.747
	L46.488,68.73z M73.184,52.572L47.204,65.975L24.946,37.183l27.193-11.095L73.184,52.572z M89.854,57.063l8.777-4.532
	c0,0-1.936,0.415-6.5-0.83c-4.564-1.246-37.76-39.045-37.76-39.045l-2.119,0.841c-0.307-0.651-0.771-1.298-1.479-1.927
	c-3.474-3.083-6.716-1.286-7.663,0.692c-0.637,1.333-0.287,2.705-0.021,3.411l-3.578,1.398c-0.206-0.243-0.42-0.483-0.688-0.72
	c-3.541-3.146-6.85-1.313-7.814,0.705c-0.616,1.29-0.326,2.614-0.063,3.363l-3.254,1.271c-0.227-0.273-0.475-0.544-0.776-0.812
	c-3.664-3.254-7.086-1.358-8.083,0.729c-0.661,1.383-0.315,2.804-0.037,3.561l-1.459,0.57c-0.231-0.278-0.487-0.557-0.794-0.83
	c-3.664-3.254-7.086-1.358-8.083,0.729c-0.667,1.397-0.309,2.833-0.029,3.583l-7.062,2.76l39.163,58.11l51.605-27.192L89.09,59.28
	L89.854,57.063z M52.631,14.726l1.543-0.617c0,0,32.084,37.645,36.393,39.005c2.377,0.751,3.224,0.245,3.224,0.245L54.115,73.967
	c0,0-7.621,4.477-13.156,0.822C35.424,71.134,8.521,32.374,8.521,32.374l7.617-3.047c-0.149,0.869-0.655,1.623-1.229,2.227
	c-0.722-0.39-1.53-0.481-2.205-0.096c-0.681,0.389-1.014,1.144-1.04,1.975c-0.119,0.671,0.003,1.436,0.401,2.132
	c0.789,1.387,2.356,1.981,3.499,1.329c0.682-0.389,1.015-1.143,1.04-1.975c0.061-0.346,0.053-0.714-0.019-1.087
	c1.092-1.376,2.219-3.366,1.941-5.461l8.001-3.201c-0.114,0.885-0.602,1.655-1.172,2.275c-0.741-0.428-1.582-0.539-2.279-0.14
	c-1.143,0.653-1.429,2.305-0.639,3.691c0.79,1.387,2.356,1.982,3.5,1.329c0.834-0.477,1.198-1.489,1.033-2.538
	c1.108-1.4,2.243-3.431,1.91-5.558l9.556-3.824c-0.08,0.806-0.458,1.524-0.956,2.111c-0.761-0.476-1.645-0.611-2.37-0.195
	c-1.143,0.652-1.429,2.304-0.64,3.691c0.791,1.386,2.357,1.981,3.499,1.329c0.835-0.477,1.2-1.49,1.034-2.539
	c1.046-1.369,2.058-3.297,1.703-5.306l9.689-3.876c-0.09,0.725-0.44,1.367-0.884,1.911c-0.76-0.477-1.642-0.61-2.369-0.195
	c-1.142,0.653-1.428,2.305-0.639,3.691c0.791,1.387,2.356,1.982,3.499,1.329c0.855-0.487,1.23-1.536,1.035-2.613
	C52.02,18.426,52.936,16.611,52.631,14.726z M52.035,16.09c-0.035,1.421-2.714,4.908-3.199,4.908c-0.487,0-1.014-1.461-1.014-1.461
	s1.005-0.352,1.377-0.811c0.527-0.648,1.884-2.034,1.865-3.163c-0.043-2.271-2.553-4.502-2.553-4.502S52.117,12.764,52.035,16.09z
	 M44.935,12.806c0.561-1.142,3.1-1.631,4.657,0.325l-4.334,1.695C44.968,14.366,44.572,13.547,44.935,12.806z M49.719,14.294
	l0.13,0.156l-9.545,3.788c-0.04-0.08-0.087-0.159-0.132-0.239L49.719,14.294z M40.113,21.081c-0.036,1.45-2.769,5.005-3.265,5.005
	s-1.033-1.488-1.033-1.488s1.026-0.36,1.405-0.827c0.538-0.663,1.921-2.075,1.9-3.227c-0.041-2.317-2.603-4.591-2.603-4.591
	S40.195,17.689,40.113,21.081z M32.87,17.612c0.562-1.144,3.067-1.638,4.661,0.233l-4.393,1.717
	C32.853,19.077,32.526,18.316,32.87,17.612z M38.102,18.804c0.039,0.085,0.095,0.174,0.126,0.26l-9.741,3.867
	c-0.052-0.111-0.104-0.221-0.167-0.332L38.102,18.804z M28.25,25.648c-0.037,1.5-2.864,5.178-3.376,5.178
	c-0.513,0-1.069-1.54-1.069-1.54s1.061-0.372,1.454-0.856c0.556-0.684,1.986-2.146,1.965-3.337c-0.042-2.396-2.692-4.75-2.692-4.75
	S28.335,22.14,28.25,25.648z M20.757,22.184c0.587-1.198,3.239-1.712,4.884,0.31l-4.564,1.783
	C20.773,23.785,20.383,22.947,20.757,22.184z M26.236,23.409c0.057,0.123,0.094,0.241,0.134,0.362l-8.226,3.266
	c-0.061-0.138-0.122-0.274-0.199-0.41L26.236,23.409z M17.876,29.678c-0.037,1.5-2.863,5.178-3.376,5.178s-1.069-1.541-1.069-1.541
	s1.061-0.373,1.454-0.856c0.556-0.684,1.988-2.146,1.966-3.337c-0.043-2.397-2.693-4.751-2.693-4.751S17.962,26.168,17.876,29.678z
	 M10.384,26.212c0.589-1.201,3.257-1.716,4.9,0.33l-4.569,1.785C10.41,27.839,10.004,26.986,10.384,26.212z M90.428,62.732
	L40.831,88.348L3.29,32.313l12.572-4.879c0.069,0.15,0.117,0.296,0.163,0.443l-9.786,3.885c0,0,0.082,0.119,0.202,0.296
	l-0.202,3.649l35.062,50.469L87.98,62.5l0.653-1.898L90.428,62.732z"/>
</svg>
