<?xml version="1.0" encoding="utf-8"?>
<!-- Generator: Adobe Illustrator 16.0.0, SVG Export Plug-In . SVG Version: 6.00 Build 0)  -->
<!DOCTYPE svg PUBLIC "-//W3C//DTD SVG 1.1//EN" "http://www.w3.org/Graphics/SVG/1.1/DTD/svg11.dtd">
<svg version="1.1" id="Layer_1" xmlns="http://www.w3.org/2000/svg" xmlns:xlink="http://www.w3.org/1999/xlink" x="0px" y="0px"
	 width="100px" height="100px" viewBox="0 0 100 100" enable-background="new 0 0 100 100" xml:space="preserve">
<path fill="#010101" d="M50,3.063c-25.895,0-46.886,21.016-46.886,46.938S24.105,96.938,50,96.938
	c25.895,0,46.887-21.014,46.887-46.937S75.895,3.063,50,3.063z M14.853,56.889c0,0-8.712-22.746,15.184-38.375
	c17.865-11.684,38.084,0.748,38.084,0.748s-18.422-10.303-36.84,0.498C9.681,32.427,14.853,56.889,14.853,56.889z M17.179,50.001
	c0-18.146,14.695-32.856,32.821-32.856c7.607,0,14.592,2.616,20.159,6.965L24.137,70.182C19.792,64.609,17.179,57.617,17.179,50.001
	z M30.783,77.82L77.58,31.969l0.748,1.994L32.775,78.816L30.783,77.82z M79.262,35.176c2.258,4.457,3.559,9.484,3.559,14.825
	c0,18.146-14.692,32.854-32.82,32.854c-5.334,0-10.355-1.301-14.808-3.563L79.262,35.176z M82.809,79.066
	c-19.401,23.359-45.553,13.955-45.553,13.955s24.268,8.481,44.059-14.703c18.349-21.496,10.953-42.112,10.953-42.112
	S101.229,56.889,82.809,79.066z"/>
</svg>
