<?xml version="1.0" encoding="utf-8"?>
<!-- Generator: Adobe Illustrator 16.0.0, SVG Export Plug-In . SVG Version: 6.00 Build 0)  -->
<!DOCTYPE svg PUBLIC "-//W3C//DTD SVG 1.1//EN" "http://www.w3.org/Graphics/SVG/1.1/DTD/svg11.dtd">
<svg version="1.1" id="Layer_1" xmlns="http://www.w3.org/2000/svg" xmlns:xlink="http://www.w3.org/1999/xlink" x="0px" y="0px"
	 width="100px" height="100px" viewBox="0 0 100 100" enable-background="new 0 0 100 100" xml:space="preserve">
<path fill="#010101" d="M50,2.545C23.82,2.545,2.597,23.791,2.597,50S23.82,97.455,50,97.455c26.18,0,47.402-21.246,47.402-47.455
	S76.18,2.545,50,2.545z M70.232,67.701C55.814,72.633,42.38,66.26,42.38,66.26s1.414,3.367,8.351,7.76
	c9.076,5.748,25.785,5.047,32.17,4.529c-0.539,0.623-1.062,1.258-1.633,1.848c-5.756,0.715-17.726,1.31-28.871-3.864
	c-13.82-6.416-19.133-20.688-19.133-20.688s-1.238,3.396,0.674,11.387c2.18,9.123,14.194,22.045,18.355,26.313
	c-0.765,0.039-1.519,0.115-2.293,0.115c-0.246,0-0.484-0.033-0.729-0.037c-1.858-2.136-5.807-6.879-13.154-16.549
	c-8.645-11.373-2.979-33.102-2.979-33.102S24.27,53.787,22.31,62.475c-1.863,8.265-1.901,15.748-1.74,19.633
	c-0.681-0.625-1.375-1.237-2.014-1.905c-0.309-3.97-0.436-12.867,3.172-22.49c5.014-13.381,20.334-23.86,20.334-23.86
	s-7.634-1.11-15.514,3.029C18.94,40.879,10.256,49.377,6.551,53.2C6.474,52.139,6.39,51.08,6.39,50c0-0.082,0.012-0.162,0.012-0.245
	c3.042-3.058,9.502-8.943,19.225-14.712c12.856-7.627,34.193,0.519,34.193,0.519s-4.896-7.577-14.506-11.67
	c-10.013-4.266-23.157-3.621-27.52-3.257c0.635-0.697,1.328-1.337,2.006-1.993c4.221-0.263,12.619-0.259,23.433,2.415
	c14.507,3.588,23.496,24.115,23.496,24.115s1.698-7.403-1.133-17.465C63.311,19.582,52.659,9.861,48.641,6.416
	C49.096,6.401,49.54,6.342,50,6.342c0.475,0,0.934,0.055,1.4,0.071c4.09,3.343,12.481,11.089,15.812,20.716
	c4.113,11.898-0.288,29.637-0.288,29.637s3.096-1.615,7.654-8.451c6.096-9.137,5.713-25.307,5.466-29.91
	c0.869,0.828,1.683,1.713,2.481,2.609c0.188,5.452-0.086,17.691-5.48,26.529C70.486,58.286,56.859,66.68,56.859,66.68
	s0.908,1.33,9.051,0.283c9.816-1.26,23.09-13.289,27.663-17.694c0.004,0.246,0.036,0.484,0.036,0.731
	c0,0.523-0.058,1.033-0.076,1.552C90.122,55.533,82.068,63.652,70.232,67.701z"/>
</svg>
