<svg xmlns="http://www.w3.org/2000/svg" width="211" height="291" id="svgcontent" overflow="hidden" x="0" y="0" viewBox="0 0 211 291"><g style="pointer-events:all" mask=""><title style="pointer-events:inherit">Layer 1</title><path d="M10,331.25058L129.15256,195.67563L10,60.10065L10,331.25058z" fill="#96f2c2" id="svg_18" display="inline" style="pointer-events:inherit"/><ellipse stroke-width="0" ry="11" rx="11" id="svg_17" cy="272.75" cx="179.29933" stroke="#000000" fill="#aaffd4" display="inline" style="pointer-events:inherit"/><g display="null" shapeVal="0" shapeId="0" lineHeight="1" font-style="normal" font-weight="normal" text-anchor="start" stroke-width="0" stroke="0" fill="0" font-family="Quicksand" font-size="67.35525" text="WITH" type="text" id="svg_21" style="pointer-events:inherit"><path d="M68.92541,151.07837C68.55122,152.57514 66.30606,152.38805 65.74476,151.07837C65.74476,151.07837 53.77059,122.6397 53.77059,122.6397C53.77059,122.6397 41.23512,152.01386 41.23512,152.01386C40.29964,152.57514 38.61577,152.01386 38.61577,150.89127C38.61577,150.89127 20.4674,107.67197 20.4674,107.67197C19.53192,105.801 22.52546,104.30423 23.46094,106.17519C23.46094,106.17519 40.29963,146.40096 40.29963,146.40096C40.29963,146.40096 52.27381,117.96229 52.27381,117.96229C53.0222,116.65261 54.70606,116.8397 55.45445,117.96229C55.45445,117.96229 67.42863,146.40096 67.42863,146.40096C67.42863,146.40096 84.26731,106.17519 84.26731,106.17519C84.64151,105.42681 85.57699,105.05262 86.51247,105.42681C87.26086,105.801 87.63505,106.92359 87.26086,107.67197C87.26086,107.67197 68.9254,151.07837 68.9254,151.07837M97.55117,106.73648C97.55117,105.80099 98.29956,105.05261 99.23504,105.05261C100.17053,105.05261 100.91891,105.80099 100.91891,106.73648C100.91891,106.73648 100.91891,150.51709 100.91891,150.51709C100.91891,151.45256 100.17053,152.20094 99.23504,152.20094C98.29956,152.20094 97.55117,151.45256 97.55117,150.51709C97.55117,150.51709 97.55117,106.73648 97.55117,106.73648C97.55117,106.73648 97.55117,106.73648 97.55117,106.73648M129.73177,150.51709C129.73177,150.51709 129.73177,108.42035 129.73177,108.42035C129.73177,108.42035 115.51243,108.42035 115.51243,108.42035C114.57695,108.42035 113.82857,107.67197 113.82857,106.73648C113.82857,105.80099 114.57695,105.05261 115.51243,105.05261C115.51243,105.05261 147.13176,105.05261 147.13176,105.05261C148.06723,105.05261 148.62853,105.80099 148.62853,106.73648C148.62853,107.67197 148.06724,108.42035 147.13176,108.42035C147.13176,108.42035 132.91241,108.42035 132.91241,108.42035C132.91241,108.42035 132.91241,150.51709 132.91241,150.51709C132.91241,151.45256 132.16403,152.20094 131.22854,152.20094C130.29305,152.20094 129.73176,151.45256 129.73176,150.51709C129.73176,150.51709 129.73176,150.51709 129.73176,150.51709M188.66718,150.51709C188.66718,150.51709 188.66718,130.31065 188.66718,130.31065C188.66718,130.31065 164.34462,130.31065 164.34462,130.31065C164.34462,130.31065 164.34462,150.51709 164.34462,150.51709C164.34462,151.45256 163.59624,152.20094 162.66075,152.20094C161.72526,152.20094 160.97688,151.45256 160.97688,150.51709C160.97688,150.51709 160.97688,106.73648 160.97688,106.73648C160.97688,105.80099 161.72526,105.05261 162.66075,105.05261C163.59624,105.05261 164.34462,105.80099 164.34462,106.73648C164.34462,106.73648 164.34462,126.94292 164.34462,126.94292C164.34462,126.94292 188.66718,126.94292 188.66718,126.94292C188.66718,126.94292 188.66718,106.73648 188.66718,106.73648C188.66718,105.80099 189.22846,105.05261 190.16395,105.05261C191.09944,105.05261 191.84783,105.80099 191.84783,106.73648C191.84783,106.73648 191.84783,150.51709 191.84783,150.51709C191.84783,151.45256 191.09943,152.20094 190.16395,152.20094C189.22846,152.20094 188.66718,151.45256 188.66718,150.51709C188.66718,150.51709 188.66718,150.51709 188.66718,150.51709" stroke-width="0" stroke="#000000" fill="#000000" id="svg_26" style="pointer-events:inherit"/></g><g id="svg_24" display="null" shapeVal="0" shapeId="0" lineHeight="1" font-style="normal" font-weight="normal" text-anchor="start" stroke-width="0" stroke="0" fill="0" font-family="Quicksand" font-size="53.67784" text="MUSIC" type="text" style="pointer-events:inherit"><path d="M49.36243,290.88138C49.36243,290.88138 49.36243,260.01685 49.36243,260.01685C49.36243,260.01685 37.285,276.7165 37.285,276.7165C36.83769,277.61112 35.64486,277.61112 35.04844,276.7165C35.04844,276.7165 22.97101,260.01685 22.97101,260.01685C22.97101,260.01685 22.97101,290.88138 22.97101,290.88138C22.97101,291.62689 22.37459,292.22333 21.62907,292.22333C20.88355,292.22333 20.28713,291.62689 20.28713,290.88138C20.28713,290.88138 20.28713,256.14014 20.28713,256.14014C20.28713,254.94731 22.07638,254.35089 22.8219,255.39463C22.8219,255.39463 36.24126,273.88352 36.24126,273.88352C36.24126,273.88352 49.51152,255.39463 49.51152,255.39463C50.25704,254.3509 52.04629,254.94732 51.89719,256.14014C51.89719,256.14014 51.89719,290.88138 51.89719,290.88138C51.89719,291.62689 51.30077,292.22333 50.55525,292.22333C49.80973,292.22333 49.36242,291.62689 49.36242,290.88138C49.36242,290.88138 49.36242,290.88138 49.36242,290.88138M65.61475,255.99104C65.61475,255.24551 66.06207,254.64911 66.80759,254.64911C67.5531,254.64911 68.14952,255.24552 68.14952,255.99104C68.14952,255.99104 68.14952,277.01471 68.14952,277.01471C68.14952,283.87351 73.81547,289.53946 80.67425,289.53946C87.68214,289.53946 93.34809,283.87351 93.34809,277.01471C93.34809,277.01471 93.34809,255.99104 93.34809,255.99104C93.34809,255.24551 93.94451,254.64911 94.69003,254.64911C95.43554,254.64911 96.03196,255.24552 96.03196,255.99104C96.03196,255.99104 96.03196,277.01471 96.03196,277.01471C96.03196,285.36453 89.17317,292.22333 80.67424,292.22333C72.32442,292.22333 65.61473,285.36453 65.61473,277.01471C65.61473,277.01471 65.61473,255.99104 65.61473,255.99104C65.61473,255.99104 65.61473,255.99104 65.61473,255.99104M113.77534,258.67492C106.76746,264.04266 113.92444,270.45413 121.67786,271.34875C128.23844,272.09426 135.39544,274.92724 135.39544,281.78604C135.39544,288.19751 128.53664,292.37244 121.52876,292.22333C115.7137,292.22333 110.79327,289.39035 107.66208,286.85556C107.21477,286.40826 107.06567,285.66275 107.51298,285.21542C107.96029,284.61901 108.70581,284.61901 109.15312,285.06631C114.52087,291.03048 132.26424,292.22332 133.00976,281.78604C131.51873,270.30502 108.4076,277.01471 108.4076,263.89355C108.4076,257.92938 114.81908,254.05268 121.37965,254.05268C126.30009,254.05268 130.02769,256.58745 133.00976,258.52581C133.6062,258.97311 133.75529,259.56951 133.30798,260.16595C133.00976,260.76239 132.26425,260.91146 131.66784,260.46417C127.34382,256.73657 118.84489,254.7982 113.77535,258.67492C113.77535,258.67492 113.77535,258.67492 113.77535,258.67492M145.3854,255.99104C145.3854,255.24551 145.98182,254.64911 146.72733,254.64911C147.47286,254.64911 148.06926,255.24552 148.06926,255.99104C148.06926,255.99104 148.06926,290.88138 148.06926,290.88138C148.06926,291.62689 147.47285,292.22333 146.72733,292.22333C145.98182,292.22333 145.3854,291.62689 145.3854,290.88138C145.3854,290.88138 145.3854,255.99104 145.3854,255.99104C145.3854,255.99104 145.3854,255.99104 145.3854,255.99104M159.55029,273.28711C159.55029,257.63117 179.23202,248.23763 191.30945,258.2276C192.6514,259.27133 190.86214,261.50787 189.66931,260.46417C179.53024,251.81613 162.23418,259.56952 162.23418,273.28711C162.23418,286.40826 179.38114,294.60898 189.52021,285.96094C190.86214,284.91724 192.80051,287.00467 191.30946,288.19751C179.38115,297.88928 159.5503,288.64484 159.5503,273.28711C159.5503,273.28711 159.5503,273.28711 159.5503,273.28711" stroke-width="0" stroke="#000000" fill="#000000" id="svg_44" style="pointer-events:inherit"/></g><g id="svg_27" display="null" shapeVal="0" shapeId="0" lineHeight="1" font-style="normal" font-weight="normal" text-anchor="start" stroke-width="0" stroke="0" fill="0" font-family="Quicksand" font-size="25.24018" text="THE TROUBLE" type="text" style="pointer-events:inherit"><path id="svg_28" d="M26.24657,101.36944C26.24657,101.36944 26.24657,85.59449 26.24657,85.59449C26.24657,85.59449 20.91815,85.59449 20.91815,85.59449C20.56759,85.59449 20.28715,85.31406 20.28715,84.96349C20.28715,84.61293 20.56759,84.33251 20.91815,84.33251C20.91815,84.33251 32.76687,84.33251 32.76687,84.33251C33.11743,84.33251 33.32776,84.61294 33.32776,84.96349C33.32776,85.31407 33.11743,85.59449 32.76687,85.59449C32.76687,85.59449 27.43845,85.59449 27.43845,85.59449C27.43845,85.59449 27.43845,101.36944 27.43845,101.36944C27.43845,101.71999 27.15801,102.00045 26.80745,102.00045C26.4569,102.00045 26.24656,101.71999 26.24656,101.36944C26.24656,101.36944 26.24656,101.36944 26.24656,101.36944M48.33146,101.36944C48.33146,101.36944 48.33146,93.79746 48.33146,93.79746C48.33146,93.79746 39.21705,93.79746 39.21705,93.79746C39.21705,93.79746 39.21705,101.36944 39.21705,101.36944C39.21705,101.71999 38.93661,102.00045 38.58606,102.00045C38.2355,102.00045 37.95506,101.71999 37.95506,101.36944C37.95506,101.36944 37.95506,84.96349 37.95506,84.96349C37.95506,84.61293 38.2355,84.33251 38.58606,84.33251C38.93661,84.33251 39.21705,84.61294 39.21705,84.96349C39.21705,84.96349 39.21705,92.53547 39.21705,92.53547C39.21705,92.53547 48.33146,92.53547 48.33146,92.53547C48.33146,92.53547 48.33146,84.96349 48.33146,84.96349C48.33146,84.61293 48.54179,84.33251 48.89235,84.33251C49.24291,84.33251 49.52335,84.61294 49.52335,84.96349C49.52335,84.96349 49.52335,101.36944 49.52335,101.36944C49.52335,101.71999 49.24291,102.00045 48.89235,102.00045C48.5418,102.00045 48.33146,101.71999 48.33146,101.36944C48.33146,101.36944 48.33146,101.36944 48.33146,101.36944M55.83331,101.36944C55.83331,101.36944 55.83331,84.96349 55.83331,84.96349C55.83331,84.61293 56.11375,84.33251 56.53442,84.33251C56.53442,84.33251 65.57872,84.33251 65.57872,84.33251C65.92927,84.33251 66.13959,84.61294 66.13959,84.96349C66.13959,85.31407 65.92926,85.59449 65.57872,85.59449C65.57872,85.59449 57.09531,85.59449 57.09531,85.59449C57.09531,85.59449 57.09531,92.53547 57.09531,92.53547C57.09531,92.53547 64.52706,92.53547 64.52706,92.53547C64.87762,92.53547 65.08794,92.81593 65.08794,93.16647C65.08794,93.51703 64.87761,93.79745 64.52706,93.79745C64.52706,93.79745 57.09531,93.79745 57.09531,93.79745C57.09531,93.79745 57.09531,100.73842 57.09531,100.73842C57.09531,100.73842 65.57872,100.73842 65.57872,100.73842C65.92927,100.73842 66.13959,101.01885 66.13959,101.36943C66.13959,101.71998 65.92926,102.00044 65.57872,102.00044C65.57872,102.00044 56.3942,102.00044 56.3942,102.00044C56.11375,102.00044 55.83331,101.71998 55.83331,101.36943C55.83331,101.36943 55.83331,101.36943 55.83331,101.36943M82.96619,101.36943C82.96619,101.36943 82.96619,85.59448 82.96619,85.59448C82.96619,85.59448 77.63777,85.59448 77.63777,85.59448C77.28722,85.59448 77.00677,85.31405 77.00677,84.96348C77.00677,84.61292 77.28722,84.3325 77.63777,84.3325C77.63777,84.3325 89.4865,84.3325 89.4865,84.3325C89.83705,84.3325 90.04737,84.61293 90.04737,84.96348C90.04737,85.31406 89.83704,85.59448 89.4865,85.59448C89.4865,85.59448 84.15807,85.59448 84.15807,85.59448C84.15807,85.59448 84.15807,101.36943 84.15807,101.36943C84.15807,101.71998 83.87764,102.00044 83.52707,102.00044C83.17651,102.00044 82.96619,101.71998 82.96619,101.36943C82.96619,101.36943 82.96619,101.36943 82.96619,101.36943M105.47176,101.71998C103.71899,101.71998 103.64887,100.24766 103.50866,98.00411C103.29833,94.42846 99.58245,94.14802 95.58614,94.42846C95.58614,94.42846 95.58614,101.36943 95.58614,101.36943C95.58614,101.71998 95.30569,102.00044 94.95515,102.00044C94.60459,102.00044 94.32415,101.71998 94.32415,101.36943C94.32415,101.36943 94.32415,84.96348 94.32415,84.96348C94.32415,84.61292 94.6046,84.26238 95.02526,84.3325C95.02526,84.3325 99.93301,84.3325 99.93301,84.3325C105.26143,84.05204 106.73376,92.11479 102.10645,93.93769C103.36846,94.63879 104.70055,95.90078 104.70055,98.00411C104.70055,99.9672 104.98099,100.24766 105.89243,100.87863C105.96255,101.22919 105.82232,101.57976 105.47178,101.71998C105.47178,101.71998 105.47178,101.71998 105.47178,101.71998M103.78912,89.38048C103.78912,85.59448 99.7227,85.31406 95.58616,85.59448C95.58616,85.59448 95.58616,93.16646 95.58616,93.16646C99.7227,93.44689 103.78912,93.23655 103.78912,89.38047C103.78912,89.38047 103.78912,89.38047 103.78912,89.38047M109.67843,93.02624C109.67843,88.04836 113.46441,84.05203 118.23194,84.05203C122.92937,84.05203 126.71535,88.04836 126.71535,93.02624C126.71535,98.0041 122.92938,102.00043 118.23194,102.00043C113.46441,102.00043 109.67843,98.0041 109.67843,93.02624C109.67843,93.02624 109.67843,93.02624 109.67843,93.02624M110.94042,93.02624C110.94042,97.37309 114.23563,100.73841 118.23194,100.73841C122.08804,100.73841 125.45336,97.37309 125.45336,93.02624C125.45336,88.67933 122.08804,85.31404 118.23194,85.31404C114.23563,85.31404 110.94042,88.67933 110.94042,93.02624C110.94042,93.02624 110.94042,93.02624 110.94042,93.02624M131.97365,84.96347C131.97365,84.61291 132.18398,84.33249 132.53455,84.33249C132.88509,84.33249 133.16555,84.61292 133.16555,84.96347C133.16555,84.96347 133.16555,94.84912 133.16555,94.84912C133.16555,98.07423 135.82975,100.73841 139.05485,100.73841C142.35006,100.73841 145.01426,98.07423 145.01426,94.84912C145.01426,94.84912 145.01426,84.96347 145.01426,84.96347C145.01426,84.61291 145.29472,84.33249 145.64527,84.33249C145.99583,84.33249 146.27625,84.61292 146.27625,84.96347C146.27625,84.96347 146.27625,94.84912 146.27625,94.84912C146.27625,98.77533 143.05117,102.00043 139.05484,102.00043C135.12863,102.00043 131.97365,98.77532 131.97365,94.84912C131.97365,94.84912 131.97365,84.96347 131.97365,84.96347C131.97365,84.96347 131.97365,84.96347 131.97365,84.96347M152.44602,101.36942C152.44602,101.36942 152.44602,84.96347 152.44602,84.96347C152.86669,83.70148 155.53087,84.4727 157.00323,84.33249C161.06964,83.98194 162.96264,89.94135 159.73754,92.1849C161.70063,92.886 163.17296,94.70891 163.17296,96.95242C163.17296,99.75685 160.92941,102.00043 158.12499,102.00043C158.12499,102.00043 153.07702,102.00043 153.07702,102.00043C152.72645,102.00043 152.44602,101.71997 152.44602,101.36942C152.44602,101.36942 152.44602,101.36942 152.44602,101.36942M153.708,100.73841C153.708,100.73841 158.12499,100.73841 158.12499,100.73841C160.22831,100.73841 161.91097,99.05575 161.91097,96.95242C161.91097,93.09633 157.84455,92.886 153.708,93.16646C153.708,93.16646 153.708,100.73841 153.708,100.73841C153.708,100.73841 153.708,100.73841 153.708,100.73841M153.708,91.90444C157.00323,92.1849 160.1582,91.76423 160.1582,88.74946C160.1582,85.73473 157.00323,85.31405 153.708,85.59448C153.708,85.59448 153.708,91.90445 153.708,91.90445C153.708,91.90445 153.708,91.90445 153.708,91.90445M177.12502,102.00044C177.12502,102.00044 168.01061,102.00044 168.01061,102.00044C167.66004,102.00044 167.37961,101.71998 167.37961,101.36943C167.37961,101.36943 167.37961,84.96348 167.37961,84.96348C167.37961,84.61292 167.66004,84.3325 168.01061,84.3325C168.36117,84.3325 168.64162,84.61293 168.64162,84.96348C168.64162,84.96348 168.64162,100.73842 168.64162,100.73842C168.64162,100.73842 177.12502,100.73842 177.12502,100.73842C177.47558,100.73842 177.756,101.01885 177.756,101.36943C177.756,101.71998 177.47557,102.00044 177.12502,102.00044C177.12502,102.00044 177.12502,102.00044 177.12502,102.00044M181.542,101.36943C181.542,101.36943 181.542,84.96348 181.542,84.96348C181.542,84.61292 181.82244,84.3325 182.2431,84.3325C182.2431,84.3325 191.28741,84.3325 191.28741,84.3325C191.63795,84.3325 191.84828,84.61293 191.84828,84.96348C191.84828,85.31406 191.63795,85.59448 191.28741,85.59448C191.28741,85.59448 182.804,85.59448 182.804,85.59448C182.804,85.59448 182.804,92.53546 182.804,92.53546C182.804,92.53546 190.23575,92.53546 190.23575,92.53546C190.58629,92.53546 190.79663,92.81592 190.79663,93.16646C190.79663,93.51702 190.58629,93.79744 190.23575,93.79744C190.23575,93.79744 182.804,93.79744 182.804,93.79744C182.804,93.79744 182.804,100.73841 182.804,100.73841C182.804,100.73841 191.28741,100.73841 191.28741,100.73841C191.63795,100.73841 191.84828,101.01884 191.84828,101.36942C191.84828,101.71997 191.63795,102.00043 191.28741,102.00043C191.28741,102.00043 182.10289,102.00043 182.10289,102.00043C181.82245,102.00043 181.54201,101.71997 181.54201,101.36942C181.54201,101.36942 181.54201,101.36942 181.54201,101.36942" stroke-width="0" stroke="#000000" fill="#000000" style="pointer-events:inherit"/></g><g id="svg_30" display="null" shapeVal="0" shapeId="0" lineHeight="1" font-style="normal" font-weight="normal" text-anchor="start" stroke-width="0" stroke="0" fill="0" font-family="Quicksand" font-size="29.1454" text="REAL LIFE IS" type="text" style="pointer-events:inherit"><path id="svg_31" d="M33.16193,179.45218C31.13791,179.45218 31.05695,177.752 30.89503,175.16126C30.65215,171.03226 26.36123,170.70842 21.74647,171.03226C21.74647,171.03226 21.74647,179.04738 21.74647,179.04738C21.74647,179.45218 21.42263,179.77602 21.01782,179.77602C20.61302,179.77602 20.28917,179.45218 20.28917,179.04738C20.28917,179.04738 20.28917,160.10257 20.28917,160.10257C20.28917,159.69775 20.61301,159.29295 21.09878,159.37392C21.09878,159.37392 26.76603,159.37392 26.76603,159.37392C32.91905,159.05008 34.61922,168.36055 29.27581,170.46553C30.7331,171.27515 32.27135,172.73244 32.27135,175.16125C32.27135,177.42814 32.59519,177.75199 33.64768,178.48065C33.72864,178.88545 33.56672,179.29024 33.16192,179.45218C33.16192,179.45218 33.16192,179.45218 33.16192,179.45218M31.21887,165.2031C31.21887,160.83121 26.52315,160.50738 21.74647,160.83121C21.74647,160.83121 21.74647,169.57497 21.74647,169.57497C26.52315,169.89881 31.21887,169.65595 31.21887,165.2031C31.21887,165.2031 31.21887,165.2031 31.21887,165.2031M38.91014,179.04738C38.91014,179.04738 38.91014,160.10257 38.91014,160.10257C38.91014,159.69775 39.23398,159.37392 39.71974,159.37392C39.71974,159.37392 50.16367,159.37392 50.16367,159.37392C50.56847,159.37392 50.81136,159.69776 50.81136,160.10257C50.81136,160.50737 50.56848,160.83121 50.16367,160.83121C50.16367,160.83121 40.36742,160.83121 40.36742,160.83121C40.36742,160.83121 40.36742,168.84633 40.36742,168.84633C40.36742,168.84633 48.94925,168.84633 48.94925,168.84633C49.35406,168.84633 49.59694,169.17017 49.59694,169.57497C49.59694,169.97979 49.35406,170.30362 48.94925,170.30362C48.94925,170.30362 40.36742,170.30362 40.36742,170.30362C40.36742,170.30362 40.36742,178.31873 40.36742,178.31873C40.36742,178.31873 50.16367,178.31873 50.16367,178.31873C50.56847,178.31873 50.81136,178.64257 50.81136,179.04738C50.81136,179.45218 50.56848,179.77602 50.16367,179.77602C50.16367,179.77602 39.55782,179.77602 39.55782,179.77602C39.23398,179.77602 38.91013,179.45218 38.91013,179.04738C38.91013,179.04738 38.91013,179.04738 38.91013,179.04738M69.18943,179.29024C69.18943,179.29024 67.32733,174.51358 67.32733,174.51358C67.32733,174.51358 58.01685,174.51358 58.01685,174.51358C58.01685,174.51358 56.23571,179.29024 56.23571,179.29024C56.15475,179.69506 55.83091,179.77602 55.34514,179.77602C55.0213,179.61411 54.77842,179.12833 54.94034,178.80449C54.94034,178.80449 61.98392,159.85968 61.98392,159.85968C62.14585,159.37392 63.19833,159.29295 63.36026,159.85968C63.36026,159.85968 70.4848,178.80449 70.4848,178.80449C70.64672,179.12833 70.40384,179.85698 69.83712,179.77602C69.59423,179.77602 69.27039,179.61411 69.18943,179.29024C69.18943,179.29024 69.18943,179.29024 69.18943,179.29024M62.71258,162.12657C62.71258,162.12657 58.58358,173.05629 58.58358,173.05629C58.58358,173.05629 66.84157,173.05629 66.84157,173.05629C66.84157,173.05629 62.71258,162.12657 62.71258,162.12657M86.19118,179.77601C86.19118,179.77601 75.66629,179.77601 75.66629,179.77601C75.26148,179.77601 74.93764,179.45217 74.93764,179.04737C74.93764,179.04737 74.93764,160.10256 74.93764,160.10256C74.93764,159.69774 75.26148,159.37391 75.66629,159.37391C76.07109,159.37391 76.39494,159.69775 76.39494,160.10256C76.39494,160.10256 76.39494,178.31872 76.39494,178.31872C76.39494,178.31872 86.19118,178.31872 86.19118,178.31872C86.59598,178.31872 86.91983,178.64256 86.91983,179.04737C86.91983,179.45217 86.59598,179.77601 86.19118,179.77601C86.19118,179.77601 86.19118,179.77601 86.19118,179.77601M111.289,179.77601C111.289,179.77601 100.76411,179.77601 100.76411,179.77601C100.35931,179.77601 100.03546,179.45217 100.03546,179.04737C100.03546,179.04737 100.03546,160.10256 100.03546,160.10256C100.03546,159.69774 100.35931,159.37391 100.76411,159.37391C101.16891,159.37391 101.49276,159.69775 101.49276,160.10256C101.49276,160.10256 101.49276,178.31872 101.49276,178.31872C101.49276,178.31872 111.289,178.31872 111.289,178.31872C111.69381,178.31872 112.01765,178.64256 112.01765,179.04737C112.01765,179.45217 111.69381,179.77601 111.289,179.77601C111.289,179.77601 111.289,179.77601 111.289,179.77601M116.63241,160.10256C116.63241,159.69774 116.95625,159.37391 117.36105,159.37391C117.76586,159.37391 118.0897,159.69775 118.0897,160.10256C118.0897,160.10256 118.0897,179.04737 118.0897,179.04737C118.0897,179.45217 117.76586,179.77601 117.36105,179.77601C116.95625,179.77601 116.63241,179.45217 116.63241,179.04737C116.63241,179.04737 116.63241,160.10256 116.63241,160.10256C116.63241,160.10256 116.63241,160.10256 116.63241,160.10256M125.21424,179.04737C125.21424,179.04737 125.21424,160.10256 125.21424,160.10256C125.21424,159.69774 125.53808,159.37391 126.02384,159.37391C126.02384,159.37391 136.46776,159.37391 136.46776,159.37391C136.87258,159.37391 137.19641,159.69775 137.19641,160.10256C137.19641,160.50736 136.87257,160.8312 136.46776,160.8312C136.46776,160.8312 126.67153,160.8312 126.67153,160.8312C126.67153,160.8312 126.67153,168.84632 126.67153,168.84632C126.67153,168.84632 135.25336,168.84632 135.25336,168.84632C135.65816,168.84632 135.98201,169.17016 135.98201,169.57496C135.98201,169.97978 135.65816,170.30361 135.25336,170.30361C135.25336,170.30361 126.67153,170.30361 126.67153,170.30361C126.67153,170.30361 126.67153,179.04737 126.67153,179.04737C126.67153,179.45217 126.34768,179.77601 125.94288,179.77601C125.53808,179.77601 125.21424,179.45217 125.21424,179.04737C125.21424,179.04737 125.21424,179.04737 125.21424,179.04737M142.78271,179.04737C142.78271,179.04737 142.78271,160.10256 142.78271,160.10256C142.78271,159.69774 143.10655,159.37391 143.59233,159.37391C143.59233,159.37391 154.03627,159.37391 154.03627,159.37391C154.44106,159.37391 154.68394,159.69775 154.68394,160.10256C154.68394,160.50736 154.44105,160.8312 154.03627,160.8312C154.03627,160.8312 144.24001,160.8312 144.24001,160.8312C144.24001,160.8312 144.24001,168.84632 144.24001,168.84632C144.24001,168.84632 152.82184,168.84632 152.82184,168.84632C153.22666,168.84632 153.46953,169.17016 153.46953,169.57496C153.46953,169.97978 153.22666,170.30361 152.82184,170.30361C152.82184,170.30361 144.24001,170.30361 144.24001,170.30361C144.24001,170.30361 144.24001,178.31872 144.24001,178.31872C144.24001,178.31872 154.03627,178.31872 154.03627,178.31872C154.44106,178.31872 154.68394,178.64256 154.68394,179.04737C154.68394,179.45217 154.44105,179.77601 154.03627,179.77601C154.03627,179.77601 143.4304,179.77601 143.4304,179.77601C143.10655,179.77601 142.78271,179.45217 142.78271,179.04737C142.78271,179.04737 142.78271,179.04737 142.78271,179.04737M169.01397,160.10256C169.01397,159.69774 169.33782,159.37391 169.74264,159.37391C170.14743,159.37391 170.47128,159.69775 170.47128,160.10256C170.47128,160.10256 170.47128,179.04737 170.47128,179.04737C170.47128,179.45217 170.14743,179.77601 169.74264,179.77601C169.33782,179.77601 169.01397,179.45217 169.01397,179.04737C169.01397,179.04737 169.01397,160.10256 169.01397,160.10256C169.01397,160.10256 169.01397,160.10256 169.01397,160.10256M180.1056,161.55985C176.30044,164.47443 180.18655,167.95575 184.39651,168.4415C187.95878,168.84632 191.8449,170.38457 191.8449,174.10875C191.8449,177.59007 188.1207,179.85696 184.31554,179.776C181.15808,179.776 178.48638,178.23775 176.7862,176.8614C176.54331,176.61854 176.46236,176.21373 176.70525,175.97084C176.94812,175.647 177.35292,175.647 177.59581,175.88989C180.51038,179.12831 190.1447,179.776 190.54951,174.10875C189.73991,167.87479 177.19099,171.51802 177.19099,164.39346C177.19099,161.15503 180.67231,159.05006 184.23458,159.05006C186.90629,159.05006 188.93029,160.42639 190.54951,161.47888C190.87336,161.72175 190.95431,162.04561 190.71144,162.36944C190.54951,162.69328 190.1447,162.77426 189.82086,162.53137C187.47302,160.50735 182.85824,159.45488 180.10559,161.55984C180.10559,161.55984 180.10559,161.55984 180.10559,161.55984" stroke-width="0" stroke="#000000" fill="#000000" style="pointer-events:inherit"/></g><g id="svg_33" display="null" shapeVal="0" shapeId="0" lineHeight="1" font-style="normal" font-weight="normal" text-anchor="start" stroke-width="0" stroke="0" fill="0" font-family="Quicksand" font-size="43.09147" text="DANGER" type="text" style="pointer-events:inherit"><path id="svg_34" d="M42.07504,202.40126C42.07504,212.69525 33.45681,219.03923 21.24765,217.48315C20.76886,217.48315 20.29007,217.00436 20.29007,216.40588C20.29007,216.40588 20.29007,188.39663 20.29007,188.39663C20.76886,186.24207 24.71888,187.31934 26.99314,187.31934C35.25228,187.31934 42.07504,194.14211 42.07504,202.40125C42.07504,202.40125 42.07504,202.40125 42.07504,202.40125M22.44463,215.3286C32.73863,216.52558 40.04018,211.25887 40.04018,202.40125C40.04018,193.66332 32.73862,188.27694 22.44463,189.4739C22.44463,189.4739 22.44463,215.32861 22.44463,215.32861C22.44463,215.32861 22.44463,215.32861 22.44463,215.32861M70.44338,216.76498C70.44338,216.76498 67.69034,209.70282 67.69034,209.70282C67.69034,209.70282 53.9251,209.70282 53.9251,209.70282C53.9251,209.70282 51.29175,216.76498 51.29175,216.76498C51.17205,217.36346 50.69326,217.48315 49.97507,217.48315C49.49628,217.24377 49.13719,216.52558 49.37658,216.04678C49.37658,216.04678 59.79028,188.03753 59.79028,188.03753C60.02968,187.31934 61.58574,187.19965 61.82514,188.03753C61.82514,188.03753 72.35853,216.04678 72.35853,216.04678C72.59793,216.52559 72.23883,217.60287 71.40095,217.48315C71.04186,217.48315 70.56307,217.24377 70.44336,216.76498C70.44336,216.76498 70.44336,216.76498 70.44336,216.76498M60.86755,191.38906C60.86755,191.38906 54.76297,207.54825 54.76297,207.54825C54.76297,207.54825 66.97213,207.54825 66.97213,207.54825C66.97213,207.54825 60.86755,191.38906 60.86755,191.38906M101.32535,216.40588C101.44505,217.48315 99.64958,217.96196 99.29049,216.88467C99.29049,216.88467 81.21614,191.74816 81.21614,191.74816C81.21614,191.74816 81.21614,216.40587 81.21614,216.40587C81.21614,217.00435 80.73736,217.48314 80.13887,217.48314C79.54037,217.48314 79.18128,217.00435 79.18128,216.40587C79.18128,216.40587 79.18128,188.75572 79.18128,188.75572C78.82219,187.79814 80.37826,186.96025 80.97674,187.91783C80.97674,187.91783 99.29048,213.17403 99.29048,213.17403C99.29048,213.17403 99.29048,188.63602 99.29048,188.63602C99.29048,188.03752 99.64957,187.67844 100.24806,187.67844C100.84656,187.67844 101.32534,188.03753 101.32534,188.63602C101.32534,188.63602 101.32534,216.40587 101.32534,216.40587C101.32534,216.40587 101.32534,216.40587 101.32534,216.40587M136.63615,213.17403C135.08009,216.64528 130.17248,217.48314 126.46185,217.48314C117.84362,217.48314 110.78146,210.66039 110.78146,202.16185C110.78146,189.83299 126.70124,182.05264 136.27705,190.31178C137.23465,191.02997 135.91796,192.82544 134.9604,191.98755C126.94066,185.04509 112.93602,191.50876 112.93602,202.16185C112.93602,212.57555 125.86337,219.15892 134.4816,212.81494C134.4816,212.81494 134.4816,203.95732 134.4816,203.95732C134.4816,203.95732 126.22246,203.95732 126.22246,203.95732C125.62398,203.95732 125.14519,203.47853 125.14519,202.88003C125.14519,202.28153 125.62398,201.80274 126.22246,201.80274C126.22246,201.80274 135.67858,201.80274 135.67858,201.80274C136.15737,201.80274 136.63616,202.28153 136.63616,202.88003C136.63616,202.88003 136.63616,213.17402 136.63616,213.17402C136.63616,213.17402 136.63616,213.17402 136.63616,213.17402M147.16955,216.40586C147.16955,216.40586 147.16955,188.39661 147.16955,188.39661C147.16955,187.79813 147.64836,187.31932 148.36654,187.31932C148.36654,187.31932 163.80753,187.31932 163.80753,187.31932C164.40603,187.31932 164.76511,187.79813 164.76511,188.39661C164.76511,188.99509 164.40602,189.47388 163.80753,189.47388C163.80753,189.47388 149.32412,189.47388 149.32412,189.47388C149.32412,189.47388 149.32412,201.32395 149.32412,201.32395C149.32412,201.32395 162.01206,201.32395 162.01206,201.32395C162.61056,201.32395 162.96964,201.80274 162.96964,202.40124C162.96964,202.99974 162.61055,203.47853 162.01206,203.47853C162.01206,203.47853 149.32412,203.47853 149.32412,203.47853C149.32412,203.47853 149.32412,215.3286 149.32412,215.3286C149.32412,215.3286 163.80753,215.3286 163.80753,215.3286C164.40603,215.3286 164.76511,215.80739 164.76511,216.40587C164.76511,217.00435 164.40602,217.48314 163.80753,217.48314C163.80753,217.48314 148.12714,217.48314 148.12714,217.48314C147.64835,217.48314 147.16954,217.00435 147.16954,216.40587C147.16954,216.40587 147.16954,216.40587 147.16954,216.40587M191.09859,217.00435C188.10614,217.00435 187.98645,214.49071 187.74706,210.66039C187.38796,204.55581 181.044,204.07702 174.22123,204.55581C174.22123,204.55581 174.22123,216.40588 174.22123,216.40588C174.22123,217.00436 173.74244,217.48315 173.14394,217.48315C172.54544,217.48315 172.06667,217.00436 172.06667,216.40588C172.06667,216.40588 172.06667,188.39663 172.06667,188.39663C172.06667,187.79815 172.54545,187.19965 173.26365,187.31934C173.26365,187.31934 181.64248,187.31934 181.64248,187.31934C190.7395,186.84055 193.25315,200.60579 185.35311,203.71793C187.50767,204.91491 189.78193,207.06946 189.78193,210.66039C189.78193,214.01192 190.26072,214.49071 191.81678,215.56798C191.93647,216.16648 191.69707,216.76497 191.09859,217.00435C191.09859,217.00435 191.09859,217.00435 191.09859,217.00435M188.22585,195.93758C188.22585,189.4739 181.28339,188.99511 174.22123,189.4739C174.22123,189.4739 174.22123,202.40125 174.22123,202.40125C181.28339,202.88004 188.22585,202.52096 188.22585,195.93758C188.22585,195.93758 188.22585,195.93758 188.22585,195.93758" stroke-width="0" stroke="#000000" fill="#000000" style="pointer-events:inherit"/></g><g id="svg_39" display="null" shapeVal="0" shapeId="0" lineHeight="1" font-style="normal" font-weight="normal" text-anchor="start" stroke-width="0" stroke="0" fill="0" font-family="Quicksand" font-size="21.77755" text="THAT THERE NO" type="text" style="pointer-events:inherit"><path id="svg_40" d="M25.43103,243.99207C25.43103,243.99207 25.43103,230.3812 25.43103,230.3812C25.43103,230.3812 20.83358,230.3812 20.83358,230.3812C20.53112,230.3812 20.28915,230.13923 20.28915,229.83677C20.28915,229.53431 20.53112,229.29234 20.83358,229.29234C20.83358,229.29234 31.05685,229.29234 31.05685,229.29234C31.35931,229.29234 31.54079,229.53431 31.54079,229.83677C31.54079,230.13923 31.35931,230.3812 31.05685,230.3812C31.05685,230.3812 26.4594,230.3812 26.4594,230.3812C26.4594,230.3812 26.4594,243.99207 26.4594,243.99207C26.4594,244.29453 26.21743,244.5365 25.91497,244.5365C25.6125,244.5365 25.43103,244.29453 25.43103,243.99207C25.43103,243.99207 25.43103,243.99207 25.43103,243.99207M44.48624,243.99207C44.48624,243.99207 44.48624,237.45887 44.48624,237.45887C44.48624,237.45887 36.62218,237.45887 36.62218,237.45887C36.62218,237.45887 36.62218,243.99207 36.62218,243.99207C36.62218,244.29453 36.38021,244.5365 36.07775,244.5365C35.77528,244.5365 35.53332,244.29453 35.53332,243.99207C35.53332,243.99207 35.53332,229.83677 35.53332,229.83677C35.53332,229.53431 35.77529,229.29234 36.07775,229.29234C36.38021,229.29234 36.62218,229.53431 36.62218,229.83677C36.62218,229.83677 36.62218,236.37 36.62218,236.37C36.62218,236.37 44.48624,236.37 44.48624,236.37C44.48624,236.37 44.48624,229.83677 44.48624,229.83677C44.48624,229.53431 44.66772,229.29234 44.97018,229.29234C45.27264,229.29234 45.51461,229.53431 45.51461,229.83677C45.51461,229.83677 45.51461,243.99207 45.51461,243.99207C45.51461,244.29453 45.27264,244.5365 44.97018,244.5365C44.66772,244.5365 44.48624,244.29453 44.48624,243.99207C44.48624,243.99207 44.48624,243.99207 44.48624,243.99207M60.6983,244.17356C60.6983,244.17356 59.30697,240.60447 59.30697,240.60447C59.30697,240.60447 52.3503,240.60447 52.3503,240.60447C52.3503,240.60447 51.01946,244.17356 51.01946,244.17356C50.95897,244.47602 50.717,244.53651 50.35404,244.53651C50.11207,244.41554 49.93059,244.05256 50.05158,243.81059C50.05158,243.81059 55.31445,229.65529 55.31445,229.65529C55.43544,229.29234 56.22184,229.23186 56.34283,229.65529C56.34283,229.65529 61.66618,243.81059 61.66618,243.81059C61.78717,244.05256 61.60569,244.597 61.18225,244.53651C61.00077,244.53651 60.7588,244.41554 60.6983,244.17356C60.6983,244.17356 60.6983,244.17356 60.6983,244.17356M55.85888,231.3491C55.85888,231.3491 52.77375,239.5156 52.77375,239.5156C52.77375,239.5156 58.94401,239.5156 58.94401,239.5156C58.94401,239.5156 55.85888,231.3491 55.85888,231.3491M68.9858,243.99207C68.9858,243.99207 68.9858,230.3812 68.9858,230.3812C68.9858,230.3812 64.38836,230.3812 64.38836,230.3812C64.08589,230.3812 63.84393,230.13923 63.84393,229.83677C63.84393,229.53431 64.0859,229.29234 64.38836,229.29234C64.38836,229.29234 74.61163,229.29234 74.61163,229.29234C74.91409,229.29234 75.09557,229.53431 75.09557,229.83677C75.09557,230.13923 74.91409,230.3812 74.61163,230.3812C74.61163,230.3812 70.01418,230.3812 70.01418,230.3812C70.01418,230.3812 70.01418,243.99207 70.01418,243.99207C70.01418,244.29453 69.77221,244.5365 69.46975,244.5365C69.16728,244.5365 68.9858,244.29453 68.9858,243.99207C68.9858,243.99207 68.9858,243.99207 68.9858,243.99207M89.61383,243.99207C89.61383,243.99207 89.61383,230.3812 89.61383,230.3812C89.61383,230.3812 85.01638,230.3812 85.01638,230.3812C84.71391,230.3812 84.47195,230.13923 84.47195,229.83677C84.47195,229.53431 84.71392,229.29234 85.01638,229.29234C85.01638,229.29234 95.23965,229.29234 95.23965,229.29234C95.54212,229.29234 95.7236,229.53431 95.7236,229.83677C95.7236,230.13923 95.54212,230.3812 95.23965,230.3812C95.23965,230.3812 90.6422,230.3812 90.6422,230.3812C90.6422,230.3812 90.6422,243.99207 90.6422,243.99207C90.6422,244.29453 90.40023,244.5365 90.09777,244.5365C89.7953,244.5365 89.61383,244.29453 89.61383,243.99207C89.61383,243.99207 89.61383,243.99207 89.61383,243.99207M108.66904,243.99207C108.66904,243.99207 108.66904,237.45887 108.66904,237.45887C108.66904,237.45887 100.80499,237.45887 100.80499,237.45887C100.80499,237.45887 100.80499,243.99207 100.80499,243.99207C100.80499,244.29453 100.56302,244.5365 100.26056,244.5365C99.95809,244.5365 99.71613,244.29453 99.71613,243.99207C99.71613,243.99207 99.71613,229.83677 99.71613,229.83677C99.71613,229.53431 99.9581,229.29234 100.26056,229.29234C100.56302,229.29234 100.80499,229.53431 100.80499,229.83677C100.80499,229.83677 100.80499,236.37 100.80499,236.37C100.80499,236.37 108.66904,236.37 108.66904,236.37C108.66904,236.37 108.66904,229.83677 108.66904,229.83677C108.66904,229.53431 108.85051,229.29234 109.15298,229.29234C109.45545,229.29234 109.69741,229.53431 109.69741,229.83677C109.69741,229.83677 109.69741,243.99207 109.69741,243.99207C109.69741,244.29453 109.45544,244.5365 109.15298,244.5365C108.85051,244.5365 108.66904,244.29453 108.66904,243.99207C108.66904,243.99207 108.66904,243.99207 108.66904,243.99207M115.14176,243.99207C115.14176,243.99207 115.14176,229.83677 115.14176,229.83677C115.14176,229.53431 115.38373,229.29234 115.74669,229.29234C115.74669,229.29234 123.55024,229.29234 123.55024,229.29234C123.85271,229.29234 124.03419,229.53431 124.03419,229.83677C124.03419,230.13923 123.85272,230.3812 123.55024,230.3812C123.55024,230.3812 116.23062,230.3812 116.23062,230.3812C116.23062,230.3812 116.23062,236.37 116.23062,236.37C116.23062,236.37 122.64286,236.37 122.64286,236.37C122.94532,236.37 123.12681,236.61194 123.12681,236.91443C123.12681,237.21689 122.94532,237.45886 122.64286,237.45886C122.64286,237.45886 116.23062,237.45886 116.23062,237.45886C116.23062,237.45886 116.23062,243.44763 116.23062,243.44763C116.23062,243.44763 123.55024,243.44763 123.55024,243.44763C123.85271,243.44763 124.03419,243.6896 124.03419,243.99206C124.03419,244.29452 123.85272,244.53649 123.55024,244.53649C123.55024,244.53649 115.62569,244.53649 115.62569,244.53649C115.38372,244.53649 115.14175,244.29452 115.14175,243.99206C115.14175,243.99206 115.14175,243.99206 115.14175,243.99206M137.34259,244.29452C135.83026,244.29452 135.76978,243.02416 135.64879,241.0884C135.46732,238.00329 132.2612,237.76131 128.81311,238.00329C128.81311,238.00329 128.81311,243.99206 128.81311,243.99206C128.81311,244.29452 128.57114,244.53649 128.26868,244.53649C127.96622,244.53649 127.72425,244.29452 127.72425,243.99206C127.72425,243.99206 127.72425,229.83676 127.72425,229.83676C127.72425,229.5343 127.96622,229.23184 128.32917,229.29233C128.32917,229.29233 132.56367,229.29233 132.56367,229.29233C137.16111,229.05036 138.43147,236.00702 134.43894,237.57984C135.52781,238.18476 136.67718,239.27363 136.67718,241.08842C136.67718,242.78221 136.91914,243.02418 137.70556,243.56861C137.76605,243.8711 137.64506,244.17356 137.3426,244.29453C137.3426,244.29453 137.3426,244.29453 137.3426,244.29453M135.89077,233.6478C135.89077,230.3812 132.38218,230.13922 128.81312,230.3812C128.81312,230.3812 128.81312,236.91443 128.81312,236.91443C132.38218,237.15637 135.89077,236.97492 135.89077,233.6478C135.89077,233.6478 135.89077,233.6478 135.89077,233.6478M141.63758,243.99207C141.63758,243.99207 141.63758,229.83677 141.63758,229.83677C141.63758,229.53431 141.87955,229.29234 142.24251,229.29234C142.24251,229.29234 150.04607,229.29234 150.04607,229.29234C150.34853,229.29234 150.53,229.53431 150.53,229.83677C150.53,230.13923 150.34853,230.3812 150.04607,230.3812C150.04607,230.3812 142.72644,230.3812 142.72644,230.3812C142.72644,230.3812 142.72644,236.37 142.72644,236.37C142.72644,236.37 149.13867,236.37 149.13867,236.37C149.44113,236.37 149.6226,236.61194 149.6226,236.91443C149.6226,237.21689 149.44113,237.45886 149.13867,237.45886C149.13867,237.45886 142.72644,237.45886 142.72644,237.45886C142.72644,237.45886 142.72644,243.44763 142.72644,243.44763C142.72644,243.44763 150.04607,243.44763 150.04607,243.44763C150.34853,243.44763 150.53,243.6896 150.53,243.99206C150.53,244.29452 150.34853,244.53649 150.04607,244.53649C150.04607,244.53649 142.12152,244.53649 142.12152,244.53649C141.87955,244.53649 141.63757,244.29452 141.63757,243.99206C141.63757,243.99206 141.63757,243.99206 141.63757,243.99206M172.36789,243.99206C172.42838,244.53649 171.521,244.77847 171.33951,244.23403C171.33951,244.23403 162.20511,231.53054 162.20511,231.53054C162.20511,231.53054 162.20511,243.99206 162.20511,243.99206C162.20511,244.29452 161.96314,244.53649 161.66068,244.53649C161.35822,244.53649 161.17673,244.29452 161.17673,243.99206C161.17673,243.99206 161.17673,230.01824 161.17673,230.01824C160.99526,229.53429 161.78166,229.11083 162.08412,229.59478C162.08412,229.59478 171.33951,242.35876 171.33951,242.35876C171.33951,242.35876 171.33951,229.95776 171.33951,229.95776C171.33951,229.65527 171.521,229.47381 171.82346,229.47381C172.12592,229.47381 172.36789,229.65527 172.36789,229.95776C172.36789,229.95776 172.36789,243.99206 172.36789,243.99206C172.36789,243.99206 172.36789,243.99206 172.36789,243.99206M177.14682,236.79342C177.14682,232.49844 180.41342,229.05035 184.52693,229.05035C188.57994,229.05035 191.84654,232.49844 191.84654,236.79342C191.84654,241.0884 188.57994,244.53649 184.52693,244.53649C180.41342,244.53649 177.14682,241.0884 177.14682,236.79342C177.14682,236.79342 177.14682,236.79342 177.14682,236.79342M178.23569,236.79342C178.23569,240.54397 181.07884,243.44763 184.52693,243.44763C187.85403,243.44763 190.75767,240.54397 190.75767,236.79342C190.75767,233.04287 187.85403,230.13921 184.52693,230.13921C181.07884,230.13921 178.23569,233.04287 178.23569,236.79342C178.23569,236.79342 178.23569,236.79342 178.23569,236.79342" stroke-width="0" stroke="#000000" fill="#000000" style="pointer-events:inherit"/></g></g><defs><path fill="#000000" stroke="#000000" d="M-9580.34375,9785.66016A9682.98633,9682.98633 0 0 1 9785.62891,9785.66016A9682.98633,9682.98633 0 0 1 -9580.34375,9785.66016A9682.98633,9682.98633 0 0 1 9785.62891,9785.66016A9682.98633,9682.98633 0 0 1 -9580.34375,9785.66016" id="svg_2"/><path fill="#000000" stroke="#000000" d="M-3775.00439,3924.09155A3818.20044,3818.20044 0 0 1 3861.39649,3924.09155A3818.20044,3818.20044 0 0 1 -3775.00439,3924.09155A3818.20044,3818.20044 0 0 1 3861.39649,3924.09155A3818.20044,3818.20044 0 0 1 -3775.00439,3924.09155" id="svg_4"/><path fill="#000000" stroke="#000000" d="M-8218.51465,8481.89941A8312.49707,8312.49707 0 0 1 8406.47949,8481.89941A8312.49707,8312.49707 0 0 1 -8218.51465,8481.89941A8312.49707,8312.49707 0 0 1 8406.47949,8481.89941A8312.49707,8312.49707 0 0 1 -8218.51465,8481.89941" id="svg_12"/><path fill="#000000" stroke="#000000" d="M-3922.17822,4101.71094A3967.99805,3967.99805 0 0 1 4013.81787,4101.71094A3967.99805,3967.99805 0 0 1 -3922.17822,4101.71094A3967.99805,3967.99805 0 0 1 4013.81787,4101.71094A3967.99805,3967.99805 0 0 1 -3922.17822,4101.71094" id="svg_14"/><path fill="#000000" stroke="#000000" d="M-4459.96826,4719.95459A4511.05811,4511.05811 0 0 1 4562.14795,4719.95459A4511.05811,4511.05811 0 0 1 -4459.96826,4719.95459A4511.05811,4511.05811 0 0 1 4562.14795,4719.95459A4511.05811,4511.05811 0 0 1 -4459.96826,4719.95459" id="svg_16"/><path fill="#000000" stroke="#000000" d="M-8664.49121,8993.94238A8763.13477,8763.13477 0 0 1 8861.77832,8993.94238A8763.13477,8763.13477 0 0 1 -8664.49121,8993.94238A8763.13477,8763.13477 0 0 1 8861.77832,8993.94238A8763.13477,8763.13477 0 0 1 -8664.49121,8993.94238" id="svg_20"/><path id="svg_38" fill="#000000" stroke="#000000" d="M-4456.21826,4671.05469A4511.05811,4511.05811 0 0 1 4565.89795,4671.05469A4511.05811,4511.05811 0 0 1 -4456.21826,4671.05469A4511.05811,4511.05811 0 0 1 4565.89795,4671.05469A4511.05811,4511.05811 0 0 1 -4456.21826,4671.05469"/></defs></svg>