<?xml version="1.0" encoding="utf-8"?>
<!-- Generator: Adobe Illustrator 16.0.3, SVG Export Plug-In . SVG Version: 6.00 Build 0)  -->
<!DOCTYPE svg PUBLIC "-//W3C//DTD SVG 1.1//EN" "http://www.w3.org/Graphics/SVG/1.1/DTD/svg11.dtd">
<svg version="1.1" id="Layer_1" xmlns="http://www.w3.org/2000/svg" xmlns:xlink="http://www.w3.org/1999/xlink" x="0px" y="0px"
	 width="15px" height="15px" viewBox="0 0 15 15" enable-background="new 0 0 15 15" xml:space="preserve">
<g>
	<path d="M2.5,7.5H2c-0.004,1.767,0.609,3.175,1.626,4.109C4.64,12.546,6.021,13.001,7.5,13c1.479,0.001,2.859-0.454,3.874-1.391
		C12.391,10.675,13.004,9.267,13,7.5c0-0.132-0.054-0.26-0.146-0.354S12.632,7,12.5,7h-10C2.368,7,2.24,7.053,2.146,7.146
		S2,7.368,2,7.5H2.5V8h10V7.5H12c-0.004,1.546-0.511,2.638-1.305,3.375C9.9,11.61,8.78,11.999,7.5,12
		c-1.28-0.001-2.4-0.39-3.196-1.125C3.511,10.138,3.004,9.046,3,7.5H2.5V8V7.5z M4,5.5c0.004-0.375,0.126-0.591,0.301-0.751
		C4.477,4.591,4.734,4.5,5,4.5c0.266,0,0.523,0.091,0.699,0.249C5.874,4.909,5.996,5.125,6,5.5C6,5.776,6.224,6,6.5,6S7,5.776,7,5.5
		c0.004-0.625-0.249-1.159-0.637-1.499C5.977,3.659,5.484,3.5,5,3.5c-0.484,0-0.977,0.159-1.363,0.501
		C3.249,4.341,2.996,4.875,3,5.5C3,5.776,3.224,6,3.5,6S4,5.776,4,5.5z M9,5.5c0.004-0.375,0.126-0.591,0.301-0.751
		C9.477,4.591,9.734,4.5,10,4.5c0.266,0,0.523,0.091,0.699,0.249C10.874,4.909,10.996,5.125,11,5.5C11,5.776,11.224,6,11.5,6
		S12,5.776,12,5.5c0.004-0.625-0.249-1.159-0.637-1.499C10.977,3.659,10.484,3.5,10,3.5c-0.484,0-0.977,0.159-1.363,0.501
		C8.249,4.341,7.996,4.875,8,5.5C8,5.776,8.224,6,8.5,6S9,5.776,9,5.5z M10,12V7.5C10,7.224,9.776,7,9.5,7S9,7.224,9,7.5V12
		c0,0.276,0.224,0.5,0.5,0.5S10,12.276,10,12z M5,7.5V12c0,0.276,0.224,0.5,0.5,0.5S6,12.276,6,12V7.5C6,7.224,5.776,7,5.5,7
		S5,7.224,5,7.5z M14.5,7.5H14c0,1.797-0.727,3.418-1.903,4.597C10.918,13.273,9.297,14,7.5,14s-3.418-0.727-4.596-1.903
		C1.727,10.918,1,9.297,1,7.5s0.727-3.418,1.904-4.596C4.082,1.727,5.703,1,7.5,1s3.418,0.727,4.597,1.904
		C13.273,4.082,14,5.703,14,7.5H14.5H15C15,3.357,11.643,0,7.5,0C3.357,0,0,3.357,0,7.5C0,11.643,3.357,15,7.5,15S15,11.643,15,7.5
		H14.5z"/>
</g>
</svg>
