<?xml version="1.0" encoding="utf-8"?>
<!-- Generator: Adobe Illustrator 16.0.0, SVG Export Plug-In . SVG Version: 6.00 Build 0)  -->
<!DOCTYPE svg PUBLIC "-//W3C//DTD SVG 1.1//EN" "http://www.w3.org/Graphics/SVG/1.1/DTD/svg11.dtd">
<svg version="1.1" id="Layer_1" xmlns="http://www.w3.org/2000/svg" xmlns:xlink="http://www.w3.org/1999/xlink" x="0px" y="0px"
	 width="308px" height="271px" viewBox="-4 -4 308 271" enable-background="new -4 -4 308 271" xml:space="preserve">
<path fill="none" stroke="#000000" stroke-width="10" d="M12,1C5.906,1,1,5.906,1,12v147c0,6.094,4.906,11,11,11h49.156
	c-2.031,2.325-3.156,4.849-3.156,7.5c0,11.326,20.362,20.5,45.5,20.5s45.5-9.174,45.5-20.5c0-2.651-1.125-5.175-3.156-7.5H288
	c6.094,0,11-4.906,11-11V12c0-6.094-4.906-11-11-11H12z M66,200c-13.812,0-25,5.37-25,12s11.188,12,25,12s25-5.37,25-12
	S79.812,200,66,200z M41,230c-7.735,0-14,4.027-14,9s6.265,9,14,9s14-4.027,14-9S48.735,230,41,230z M17,252c-4.972,0-9,2.237-9,5
	s4.028,5,9,5s9-2.237,9-5S21.972,252,17,252z"/>
</svg>
