<?xml version="1.0" encoding="utf-8"?>
<!-- Generator: Adobe Illustrator 16.0.0, SVG Export Plug-In . SVG Version: 6.00 Build 0)  -->
<!DOCTYPE svg PUBLIC "-//W3C//DTD SVG 1.1//EN" "http://www.w3.org/Graphics/SVG/1.1/DTD/svg11.dtd">
<svg version="1.1"
	 id="svg548" xmlns:cc="http://creativecommons.org/ns#" xmlns:dc="http://purl.org/dc/elements/1.1/" xmlns:rdf="http://www.w3.org/1999/02/22-rdf-syntax-ns#"
	 xmlns="http://www.w3.org/2000/svg" xmlns:xlink="http://www.w3.org/1999/xlink" x="0px" y="0px" width="143.447px"
	 height="71.281px" viewBox="0 0 143.447 71.281" enable-background="new 0 0 143.447 71.281" xml:space="preserve">
<path id="path1338" fill="#0000D6" d="M0,70.764L138.254,0H0V70.764z"/>
<path id="path552" fill="#006000" d="M143.374,0L3.804,71.438h139.568L143.374,0L143.374,0z"/>
<path id="path558" fill="#FFCC00" d="M143.374,0h-7.681L0.001,67.721v3.717h7.682L143.374,3.851V0L143.374,0z"/>
<path fill="#FFFFFF" d="M9.998,1.273l1.659,4.805l5.386-0.002L12.681,9.04l1.67,4.804l0,0l-4.354-2.973L5.64,13.844L7.31,9.04
	L2.95,6.074l5.386,0.003L9.998,1.273z M36.76,1.273l1.659,4.805l5.388-0.002L39.444,9.04l1.669,4.804l0,0l-4.354-2.973l-4.355,2.973
	l1.669-4.804l-4.359-2.966L35.1,6.077L36.76,1.273z M36.76,21.43l1.659,4.807l5.388-0.003l-4.361,2.965l1.669,4.803l0,0
	l-4.354-2.973l-4.355,2.973l1.669-4.803l-4.359-2.967l5.388,0.004L36.76,21.43z M23.455,11.469l1.662,4.805l5.388-0.001l-4.36,2.964
	l1.668,4.805l0,0l-4.356-2.973l-4.354,2.971l1.67-4.803l-4.36-2.965l5.386,0.002L23.455,11.469z M9.998,21.43l1.659,4.807
	l5.386-0.003l-4.36,2.965l1.67,4.803l0,0l-4.354-2.973L5.64,34.002l1.67-4.803l-4.36-2.967l5.386,0.004L9.998,21.43z"/>
</svg>
