<?xml version="1.0" encoding="utf-8"?>
<!-- Generator: Adobe Illustrator 16.0.0, SVG Export Plug-In . SVG Version: 6.00 Build 0)  -->
<!DOCTYPE svg PUBLIC "-//W3C//DTD SVG 1.1//EN" "http://www.w3.org/Graphics/SVG/1.1/DTD/svg11.dtd">
<svg version="1.1" id="Layer_1" xmlns="http://www.w3.org/2000/svg" xmlns:xlink="http://www.w3.org/1999/xlink" x="0px" y="0px"
	 width="100px" height="100px" viewBox="0 0 100 100" enable-background="new 0 0 100 100" xml:space="preserve">
<path fill="#A41E21" d="M50.479,81.234c-3.907,0-7.07,3.164-7.07,7.066c0,3.903,3.164,7.066,7.07,7.066
	c3.902,0,7.064-3.163,7.064-7.066C57.543,84.398,54.381,81.234,50.479,81.234z M50.934,93.641c-2.7,0-4.887-2.188-4.887-4.884
	s2.187-4.885,4.887-4.885c2.693,0,4.883,2.188,4.883,4.885C55.814,91.452,53.627,93.641,50.934,93.641z M50.948,85.907
	c1.687,0,3.054,1.367,3.054,3.054s-1.367,3.055-3.054,3.055c-1.687,0-3.054-1.368-3.054-3.055S49.261,85.907,50.948,85.907z
	 M40.626,5.16c-13.734,0-24.86,11.129-24.86,24.857c0,13.726,11.126,24.856,24.86,24.856c13.726,0,24.853-11.13,24.853-24.856
	C65.479,16.289,54.352,5.16,40.626,5.16z M45.263,49.573c-8.607,0-15.58-6.976-15.58-15.579c0-8.604,6.972-15.581,15.58-15.581
	c8.604,0,15.578,6.977,15.578,15.581C60.841,42.597,53.867,49.573,45.263,49.573z M8.476,45.372c0,1.915-1.552,3.47-3.469,3.47
	c-1.918,0-3.473-1.555-3.473-3.47c0-1.921,1.555-3.473,3.473-3.473C6.924,41.898,8.476,43.451,8.476,45.372z"/>
<path fill="#2AACE3" d="M75.664,68.122c-0.873-1.903-0.04-4.158,1.863-5.034c1.908-0.877,4.164-0.043,5.041,1.861
	c0.873,1.902,0.037,4.16-1.869,5.037C78.795,70.861,76.542,70.027,75.664,68.122z M71.115,57.111
	c0,5.531-4.481,10.021-10.018,10.021c-5.543,0-10.024-4.489-10.024-10.021c0-5.535,4.481-10.022,10.024-10.022
	C66.634,47.089,71.115,51.576,71.115,57.111z M29.958,39.433c-11.575,0-20.955,9.379-20.955,20.956
	c0,11.568,9.379,20.953,20.955,20.953c11.574,0,20.954-9.385,20.954-20.953C50.912,48.812,41.532,39.433,29.958,39.433z
	 M27.059,71.398c-8.003,0-14.486-6.484-14.486-14.479s6.483-14.48,14.486-14.48c7.991,0,14.476,6.486,14.476,14.48
	S35.05,71.398,27.059,71.398z"/>
<path fill="#04A54F" d="M59.557,31.768c-12.806,0-23.182,10.377-23.182,23.179c0,12.801,10.376,23.179,23.182,23.179
	c12.799,0,23.176-10.378,23.176-23.179C82.732,42.145,72.355,31.768,59.557,31.768z M61.044,72.451
	c-8.849,0-16.021-7.171-16.021-16.018c0-8.845,7.172-16.017,16.021-16.017c8.839,0,16.013,7.172,16.013,16.017
	C77.057,65.28,69.883,72.451,61.044,72.451z M35.318,60.93c0,2.344-1.898,4.248-4.246,4.248c-2.351,0-4.256-1.904-4.256-4.248
	c0-2.35,1.906-4.25,4.256-4.25C33.419,56.68,35.318,58.58,35.318,60.93z"/>
<path fill="#FFCB0A" d="M48.243,32.338c0,3.293-2.667,5.963-5.967,5.963c-3.296,0-5.965-2.669-5.965-5.963
	c0-3.296,2.669-5.97,5.965-5.97C45.576,26.368,48.243,29.042,48.243,32.338z M87.297,81.809c7.938-3.649,11.41-13.041,7.762-20.979
	c-3.646-7.938-13.039-11.412-20.975-7.764c-7.938,3.649-11.416,13.041-7.766,20.979C69.971,81.98,79.359,85.458,87.297,81.809z
	 M72.809,57.366c4.979-2.288,10.858-0.109,13.146,4.862c2.289,4.976,0.111,10.859-4.864,13.149
	c-4.978,2.287-10.86,0.104-13.149-4.867C65.654,65.54,67.836,59.65,72.809,57.366z M86.445,24.778c-4.813,0-8.713,3.904-8.713,8.713
	c0,4.813,3.897,8.711,8.713,8.711c4.807,0,8.709-3.898,8.709-8.711C95.154,28.682,91.252,24.778,86.445,24.778z M87.025,36.396
	c-1.155,0-2.096-0.938-2.096-2.09c0-1.157,0.938-2.094,2.096-2.094c1.148,0,2.088,0.937,2.088,2.094
	C89.113,35.459,88.176,36.396,87.025,36.396z"/>
<path fill="#2E358F" d="M96.666,52.311c0,1.918-1.563,3.477-3.484,3.477c-1.92,0-3.479-1.559-3.479-3.477
	c0-1.922,1.557-3.479,3.479-3.479S96.666,50.386,96.666,52.311z M75.891,19.404c0,1.047-0.852,1.896-1.898,1.896
	s-1.896-0.849-1.896-1.896c0-1.052,0.848-1.902,1.896-1.902C75.04,17.502,75.891,18.352,75.891,19.404z M38.758,85.23
	c0,0.59-0.478,1.064-1.071,1.064c-0.59,0-1.066-0.477-1.066-1.064c0-0.59,0.476-1.067,1.066-1.067
	C38.28,84.163,38.758,84.641,38.758,85.23z M68.221,88.379c0,0.589-0.482,1.069-1.074,1.069c-0.59,0-1.064-0.48-1.064-1.069
	c0-0.592,0.477-1.066,1.064-1.066C67.738,87.313,68.221,87.787,68.221,88.379z M6.153,26.618c0,0.589-0.476,1.068-1.068,1.068
	c-0.593,0-1.066-0.479-1.066-1.068c0-0.589,0.473-1.068,1.066-1.068C5.677,25.55,6.153,26.029,6.153,26.618z"/>
<path fill="#FFFFFF" d="M26.344,5.228c3.993,0,7.23,3.237,7.23,7.23s-3.237,7.23-7.23,7.23c-3.993,0-7.23-3.237-7.23-7.23
	S22.351,5.228,26.344,5.228z M25.137,77.083c0,2.412-1.954,4.368-4.37,4.368c-2.409,0-4.368-1.956-4.368-4.368
	c0-2.414,1.959-4.369,4.368-4.369C23.183,72.714,25.137,74.669,25.137,77.083z M67.471,53.432c0,2.413-1.957,4.369-4.371,4.369
	c-2.41,0-4.371-1.956-4.371-4.369c0-2.412,1.961-4.37,4.371-4.37C65.514,49.062,67.471,51.02,67.471,53.432z M77.711,64.128
	c1.33,0,2.409,1.079,2.409,2.409s-1.079,2.408-2.409,2.408s-2.409-1.078-2.409-2.408S76.381,64.128,77.711,64.128z"/>
</svg>
