<?xml version="1.0" encoding="utf-8"?>
<!-- Generator: Adobe Illustrator 16.0.0, SVG Export Plug-In . SVG Version: 6.00 Build 0)  -->
<!DOCTYPE svg PUBLIC "-//W3C//DTD SVG 1.1//EN" "http://www.w3.org/Graphics/SVG/1.1/DTD/svg11.dtd">
<svg version="1.1" id="Layer_1" xmlns="http://www.w3.org/2000/svg" xmlns:xlink="http://www.w3.org/1999/xlink" x="0px" y="0px"
	 width="29.068px" height="29.068px" viewBox="1.466 1.466 29.068 29.068" enable-background="new 1.466 1.466 29.068 29.068"
	 xml:space="preserve">
<path d="M16,1.466C7.973,1.466,1.466,7.973,1.466,16c0,8.027,6.508,14.534,14.534,14.534c8.027,0,14.534-6.507,14.534-14.534
	C30.534,7.973,24.027,1.466,16,1.466z M24.386,14.968c-1.451,1.67-3.706,2.222-5.686,1.587l-7.188,8.266
	c-0.767,0.88-2.1,0.97-2.979,0.205c-0.88-0.766-0.973-2.1-0.208-2.979l7.198-8.274c-0.894-1.865-0.657-4.164,0.787-5.824
	c1.367-1.575,3.453-2.151,5.348-1.674l-2.754,3.212l0.901,2.621l2.722,0.528l2.761-3.22C26.037,11.229,25.762,13.387,24.386,14.968z
	"/>
</svg>
