<?xml version="1.0" encoding="utf-8"?>
<!-- Generator: Adobe Illustrator 16.0.0, SVG Export Plug-In . SVG Version: 6.00 Build 0)  -->
<!DOCTYPE svg PUBLIC "-//W3C//DTD SVG 1.1//EN" "http://www.w3.org/Graphics/SVG/1.1/DTD/svg11.dtd">
<svg version="1.1" id="Layer_1" xmlns="http://www.w3.org/2000/svg" xmlns:xlink="http://www.w3.org/1999/xlink" x="0px" y="0px"
	 width="308.887px" height="294.803px" viewBox="-4.853 2.597 308.887 294.803"
	 enable-background="new -4.853 2.597 308.887 294.803" xml:space="preserve">
<path fill="none" stroke="#000000" stroke-width="10" d="M28.221,93.287c0.007-2.581,2.316-18.402,5.135-35.16
	C42.144,5.875,42.272,5.644,53.43,22.298l6.601,9.854l19.306-9.746c25.535-12.89,56.004-17.658,84.012-13.148
	c11.89,1.915,24.505,5.027,28.034,6.916c7.008,3.75,6.559,6.971-4.61,33.055c-6.121,14.296-6.709,14.704-17.282,11.986
	c-17.997-4.626-47.302-3.169-61.45,3.056l-13.265,5.836l9.312,9.719c5.121,5.345,8.022,10.516,6.447,11.489
	s-20.743,2.871-42.594,4.217C35.155,97.551,28.211,97.158,28.221,93.287z M197.034,237.357l-14.202-18.811l12.931-12.504
	c13.309-12.869,22.907-30.938,27.136-51.082l2.413-11.495l-13.918,2.226c-7.655,1.224-13.966,1.065-14.023-0.354
	c-0.269-6.623,36.128-71.905,39.665-71.146c5.563,1.193,61.999,50.073,61.999,53.697c0,1.618-5.932,3.89-13.181,5.049l-13.18,2.107
	l-1.301,22.476c-1.669,28.827-16.858,62.096-38.008,83.245c-8.47,8.471-16.914,15.4-18.765,15.4S204.845,247.702,197.034,237.357z
	 M68.833,290.08c0-2.08,2.231-8.096,4.958-13.369c4.948-9.568,4.919-9.614-13.526-21.861c-28.859-19.161-50.31-53.171-57.057-90.463
	l-2.212-12.226l15.771-2.162c32.512-4.456,32.809-4.321,39.32,17.837c4.394,14.953,9.798,23.914,21.447,35.563
	c8.565,8.565,16.77,14.833,18.232,13.929c1.463-0.904,3.58-6.246,4.705-11.87c1.125-5.625,3.471-10.226,5.213-10.226
	c4,0,41.662,59.383,42.26,66.632c0.399,4.842-19.96,13.224-73.02,30.064C71.542,293.002,68.833,292.181,68.833,290.08L68.833,290.08
	z"/>
</svg>
