<?xml version="1.0" encoding="utf-8"?>
<!-- Generator: Adobe Illustrator 15.1.0, SVG Export Plug-In . SVG Version: 6.00 Build 0)  -->
<!DOCTYPE svg PUBLIC "-//W3C//DTD SVG 1.1//EN" "http://www.w3.org/Graphics/SVG/1.1/DTD/svg11.dtd">
<svg version="1.1" id="Layer_1" xmlns="http://www.w3.org/2000/svg" xmlns:xlink="http://www.w3.org/1999/xlink" x="0px" y="0px"
	 width="100px" height="100px" viewBox="0 0 100 100" enable-background="new 0 0 100 100" xml:space="preserve">
<path fill-rule="evenodd" clip-rule="evenodd" d="M86.863,97.645c-0.328-0.245-0.654-0.494-0.983-0.74
	c-0.463-0.077-0.928-0.16-1.393-0.24c-1.276-0.468-2.428-1.232-3.604-1.725c-0.436-0.134-0.874-0.271-1.31-0.406
	c-0.341-0.468-0.685-0.931-1.025-1.394c0-0.424,0-0.847,0-1.271c-0.095-2.15,0.396-4.023,0.901-5.652
	c0.233-1.076,0.465-2.157,0.698-3.233c0.027-0.59,0.054-1.179,0.081-1.766c0.038-0.543,0.082-1.091,0.124-1.639
	c-0.21-1.283-0.412-2.44-0.655-3.561c-0.217-0.996-0.186-1.965-0.657-2.705c-1.016-1.6-2.312-1.376-3.768-2.335
	c-2.033-1.34-4.179-2.908-6.514-3.892c-1.133-0.411-2.268-0.818-3.399-1.228c-0.628-0.313-1.257-0.628-1.883-0.942
	c-0.998-0.302-1.994-0.602-2.99-0.9c-0.353-0.241-0.433-1.006-0.737-1.313c-1.108-1.11-2.479-1.985-3.197-3.482
	c-0.272-1.391-0.546-2.783-0.818-4.174c-0.894-2.811-2.601-4.819-3.726-7.376c-0.307-0.694-0.328-1.554-0.616-2.335
	c-0.657-1.797-2.036-3.66-3.441-4.751c-0.026-2.321-0.053-4.642-0.083-6.964c-0.55-2.966-1.425-5.442-2.007-8.313
	c0-0.545,0-1.091,0-1.639c-0.053-1.625-0.107-3.249-0.163-4.875c-0.545-2.021-1.091-4.04-1.639-6.061
	c-0.095-1.038-0.19-2.077-0.287-3.112c0.255-1.622,1.018-4.035,0.329-5.53c-0.136-0.015-0.275-0.029-0.409-0.042
	C43.626,3.516,43.611,3,43.446,2.615c-0.17-0.031-0.243-0.043-0.368,0.042c-0.175,0.115-0.224,0.443-0.246,0.696
	c-0.278-0.38,0.09-1.254,0.083-1.68c-0.151-0.041-0.302-0.083-0.453-0.122c-0.784,0.73-0.882,1.97-1.311,3.073
	c-0.292,0.743-0.733,1.478-0.901,2.372c-0.029,0.017-0.053,0.029-0.083,0.042c0.024-1.016-0.3-2.08-1.269-2.087
	c-0.029,0.015-0.056,0.027-0.083,0.039c-0.285,0.487,0.124,1.098,0.287,1.639c0.129,0.429-0.046,0.669,0.042,1.149
	c0.2,1.081,1.028,1.86,1.802,2.416c0.321,1.678,0.655,3.278,0.901,5.08c0.253,1.851-0.377,3.901-0.083,5.817
	c0.161,1.05,0.823,3.707,0.492,4.873c-0.142,0.495-0.424,0.989-0.534,1.68c0.027,0.614,0.056,1.228,0.083,1.844
	c0.095,1.283,0.19,2.566,0.287,3.847c0.068,0.521,0.137,1.04,0.205,1.561c-0.302,0.911-0.601,1.826-0.901,2.742
	c-0.36,1.113,0.253,4.459-0.287,4.917c-0.663,0.558-2.864-0.458-3.275-0.738c-0.492-0.519-0.986-1.037-1.476-1.556
	c-0.304-0.558-0.217-1.195-0.533-1.68c-0.478-0.733-3.156-2.503-4.588-2.213c-2.321,0.473-5.45,3.887-4.709,6.843
	c0.139,0.553,0.333,1.352,0.655,1.76c0.28,0.351,0.872,0.373,1.022,0.857c0.231,0.76-0.168,1.631,0.205,2.216
	c0.081,0.144,0.192,0.202,0.329,0.288c0.473-0.007,0.584-0.149,0.901-0.288c0.136,0.324,0.272,0.653,0.411,0.981
	c0.18,0.153,0.421,0.063,0.572-0.042c0.068,0.151,0.137,0.302,0.205,0.451c0.258,0.202,0.363,0.239,0.655,0.044
	c0.63,0.019,0.625,0.341,1.105,0.45c0.972,0.217,1.892-1.843,2.459-2.376c1.057,0.122,1.858,1.14,2.374,1.841
	c-0.399,1.485-0.156,3.227-0.942,4.304c-0.246,0.134-0.492,0.272-0.738,0.406c-0.497,0.305-1.105,0.949-1.269,1.561
	c-0.504,1.885-0.506,4.216,0.124,5.859c0.231,0.475,0.463,0.952,0.697,1.427c0,1.001,0,1.997,0,2.993
	c-2.077,0.579-3.918,1.755-5.942,2.293c-2.036,0.544-4.059,0.313-5.162,1.844c-0.707,0.986-0.636,2.786-0.938,4.179
	c-0.368,1.671-0.799,3.212-1.108,4.999c0,0.884,0,1.773,0,2.659c0,3.719,0.667,7.989-0.572,10.775
	c-0.73,1.639-2.778,2.051-4.344,2.866c-0.586,0.329-1.176,0.655-1.76,0.983c-1.127,0.393-2.233-0.204-2.416,1.105
	c0.015,0.054,0.027,0.11,0.039,0.163c1.303,0.368,4.311,0.337,5.654,0.205c2.418,0,4.832,0,7.25,0
	c0.231-0.272,0.465-0.546,0.696-0.82c0.358-0.75-0.351-2.672-0.492-3.604c0.151-1.271,0.299-2.54,0.45-3.809
	c0.458-2.493,0.909-4.872,1.639-7.166c0.341-0.575,0.682-1.149,1.022-1.722c0.11-0.492,0.222-0.984,0.329-1.474
	c0.272-1.429-0.161-3.07-0.288-4.261c0.261-0.137,0.519-0.275,0.779-0.412c1.734,0.479,3.47,0.96,5.201,1.435
	c0.271,0.29,0.332,2.566,0.451,3.117c0.519,2.371,0.229,5.33-0.205,7.614c0,0.465,0,0.93,0,1.397
	c-0.236,0.66-0.854,1.273-1.105,2.004c-0.239,0.689-0.071,1.12-0.163,1.722c-0.093,0.604-0.609,1.619-0.205,2.416
	c0,0.026,0,0.054,0,0.083c0.109-0.029,0.217-0.057,0.329-0.083c0.653-0.393,0.833-1.816,0.94-2.744
	c1.802,1.366,0.236,5.868,2.706,6.266c0.024-0.11,0.053-0.217,0.078-0.327c0.071,0.054,0.139,0.11,0.207,0.163
	c0.012-0.791,0.027-1.585,0.042-2.374c0.246,0.563,0.085,1.322,0.533,1.678c0.095-0.039,0.19-0.082,0.285-0.124
	c0.195-0.835,0.112-2.713,0.041-3.728c0.015,0,0.027,0,0.042,0c0.107,0.659,0.158,2.053,0.779,2.255c0.039,0,0.081,0,0.122,0
	c0.256-1.712-0.226-3.673-0.613-5.243c-0.042-0.341-0.083-0.682-0.125-1.025c-0.178-0.231-0.355-0.463-0.531-0.696
	c-0.112-0.938-0.219-1.885-0.329-2.824c-0.227-1.403,0.638-3.285,0.942-4.304c0.426-1.417,0.294-3.178,0.287-4.952
	c1.432-0.275,2.866-0.546,4.301-0.821c3.358-0.659,6.787-0.506,8.521-2.744c0.462-0.026,0.928-0.056,1.393-0.08
	c1.242,0.328,2.219,1.324,3.358,1.802c1.091,0.382,2.184,0.765,3.274,1.145c1.764,0.521,3.526,1.037,5.284,1.556
	c1.7,0.388,4.187,0.156,5.817-0.08c0.587,0.024,1.177,0.056,1.761,0.08c-0.209,1.456-0.597,3.295-0.204,4.917
	c0.163,0.67,0.688,1.115,0.818,1.843c0.178,2.27,0.357,4.532,0.533,6.799c0.153,0.962-0.068,3.283-0.329,4.055
	c-0.533,1.595-1.356,1.614,0.041,3.236c2.908,0.07,5.818,0.137,8.726,0.204c1.132,0,2.878,0.236,3.728-0.163
	c0.027,0,0.057,0,0.083,0C86.92,98.024,86.891,97.837,86.863,97.645z M44.51,64.917c-1.257-0.095-2.292-0.271-3.278,0.205
	c-0.095-0.042-0.19-0.083-0.285-0.122c0.068-0.631,0.134-1.257,0.204-1.887c-0.124-0.994-0.246-1.992-0.368-2.988
	c0.039-0.241,0.093-0.224,0.205-0.37c0.49,0.574,0.984,1.146,1.474,1.722c0.623,1.064,0.776,2.888,2.293,3.031
	C44.673,64.646,44.593,64.781,44.51,64.917z"/>
</svg>
