<?xml version="1.0" encoding="utf-8"?>
<!-- Generator: Adobe Illustrator 16.0.3, SVG Export Plug-In . SVG Version: 6.00 Build 0)  -->
<!DOCTYPE svg PUBLIC "-//W3C//DTD SVG 1.1 Tiny//EN" "http://www.w3.org/Graphics/SVG/1.1/DTD/svg11-tiny.dtd">
<svg version="1.1" baseProfile="tiny" id="Layer_1" xmlns="http://www.w3.org/2000/svg" xmlns:xlink="http://www.w3.org/1999/xlink"
	 x="0px" y="0px" width="100px" height="108.969px" viewBox="0 0 100 108.969" xml:space="preserve">
<path fill-rule="evenodd" d="M47.792,108.307c-4.45,0.448-8.402-1.063-11.308-4.15c-2.939-3.123-5.289-6.876-4.692-11.604
	c0.239-1.895,1.181-3.133,2.858-4.301c3.174-2.21,5.637-5.172,5.79-9.354c0.058-1.581-0.182-3.17-0.239-4.757
	c-0.173-4.837,1.924-8.295,6.012-10.936c4.771-3.08,10.17-3.909,15.512-4.703c4.586-0.682,10.256,3.242,11.998,7.836
	c1.844,4.865,5.54,6.812,10.345,7.164c4.406,0.323,7.276,2.743,7.691,7.165c0.256,2.731,0.511,5.625-0.11,8.238
	c-0.894,3.762-3.237,6.713-6.803,8.706c-5.945,3.322-12.15,5.853-18.812,7.294c-6.052,1.31-12.084,2.706-18.126,4.064
	C47.87,108.749,47.831,108.528,47.792,108.307z M48.459,0.704c0.672,1.39,1.183,2.892,2.048,4.149
	c1.896,2.756,1.399,4.51-1.699,5.299c-3.435,0.875-5.211,5.636-2.844,8.747c1.933,2.539,2.076,5.17,1.94,8.027
	c-0.067,1.424-0.483,2.908-0.21,4.258c0.573,2.832,1.134,5.856,4.032,7.401c6.68,3.56,16.678-2.021,17.279-9.558
	c0.559-7.012-2.87-12.083-7.855-16.443c-1.568-1.372-3.17-2.739-4.526-4.308c-1.103-1.274-1.707-2.98-2.811-4.252
	C52.529,2.545,50.94,1.33,49.483,0C49.142,0.235,48.8,0.469,48.459,0.704z M23.063,8.108c-0.143,0.532-0.187,1.089-0.312,1.627
	c-1.208,5.228,0.25,10.683-2.186,15.968c-1.374,2.981-0.944,7.06-0.481,10.531c0.332,2.487,1.471,5.502,3.297,7.025
	c4.052,3.376,8.693,5.513,14.285,2.58c5.791-3.037,7.273-8.395,3.289-14.084c-1.55-2.213-2.721-4.738-3.76-7.247
	c-0.674-1.628-0.678-3.519-1.193-5.229c-0.872-2.897-3.488-4.146-6.357-3.218c-0.885,0.286-1.793,0.504-2.547,0.713
	c-2.312-2.787-0.277-6.97-3.443-9.363C23.346,7.764,23.116,7.912,23.063,8.108z M83.393,33.131c-2.185,5.1-4.558,10.15-6.239,15.417
	c-0.729,2.283-0.743,5.478,0.333,7.509c2.121,4.003,8.726,5.375,13.33,4.07c7.41-2.101,8.573-7.027,9.087-12.344
	c0.444-4.599-0.642-9.236-3.459-13.21c-0.357-0.503-0.584-1.111-0.807-1.694c-1.359-3.551-2.677-7.118-4.075-10.654
	c-0.171-0.434-0.734-0.713-1.116-1.063c-0.263,0.064-0.526,0.129-0.79,0.194c0.262,2.77,0.524,5.541,0.804,8.504
	C86.171,30.017,84.396,30.787,83.393,33.131z M0.097,52.749c1.254,5.469,2.458,10.954,3.94,16.363
	c1.346,4.911,4.15,8.607,8.9,11.092c5.132,2.685,14.566-0.085,16.341-6.74c0.377-1.414,1.179-2.96,0.897-4.252
	c-0.513-2.341-1.612-4.551-3.916-5.89c-2.014-1.17-3.98-2.44-5.874-3.797c-1.706-1.223-3.208-2.734-4.938-3.917
	c-2.109-1.441-4.186-3.464-7.044-2.491c-1.47,0.501-2.715,1.662-4.056,2.52c-1.759-1.664-0.658-5.135-4.279-5.932
	C0.069,50.913-0.104,51.874,0.097,52.749z"/>
</svg>
