<?xml version="1.0" encoding="utf-8"?>
<!-- Generator: Adobe Illustrator 16.0.0, SVG Export Plug-In . SVG Version: 6.00 Build 0)  -->
<!DOCTYPE svg PUBLIC "-//W3C//DTD SVG 1.1//EN" "http://www.w3.org/Graphics/SVG/1.1/DTD/svg11.dtd">
<svg version="1.1" id="Layer_1" xmlns="http://www.w3.org/2000/svg" xmlns:xlink="http://www.w3.org/1999/xlink" x="0px" y="0px"
	 width="100px" height="100px" viewBox="0 0 100 100" enable-background="new 0 0 100 100" xml:space="preserve">
<path d="M53.555,1.039l9.219,7.051l9.215,7.048l-3.284,10.635l-2.729-2.071l-10.84,8.224l2.154,2.266l1.046,34.615l-17.856-4.433
	L38.64,26.546l-3.523-11.408l9.215-7.048L53.555,1.039L53.555,1.039z M58.41,71.309l0.836,27.652h-5.691h-1.197l3.785-25.27
	L58.41,71.309L58.41,71.309z M39.637,64.557l-9.979,2.478l-9.979,2.477l3.812,4.009l1.479,9.877l5.938,1.072l6.918,1.247l-2.89,2.21
	l-2.275,11.036h6.977h12.334l3.813-25.442l2.609-2.744l-0.047-1.574l-8.729-2.166L39.637,64.557L39.637,64.557z M24.768,83.745
	l6.071,1.096l6.071,1.095l-2.318,1.773l-2.319,11.252h-7.504h-7.501l-2.319-11.252l-2.319-1.773l4.136-0.746l-0.2-3.754l-0.412-1.22
	l1.077-0.752l1.077-0.754l1.078,0.754l1.077,0.752l-0.412,1.22l-0.169,3.192L24.768,83.745L24.768,83.745z M65.975,24.18
	l-10.271,7.791l1.961,2.063l0.771,25.469l8.295-4.993c-0.363-0.39-0.662-0.765-0.881-1.121c0.153-0.222,0.309-0.44,0.461-0.66
	c0.215,0.412,0.584,0.877,1.084,1.383l0.812-0.488c-1.081-0.896-1.892-1.73-2.354-2.49c0.152-0.223,0.308-0.441,0.461-0.661
	c0.391,0.758,1.299,1.68,2.595,2.73l0.942-0.567c-1.916-1.388-3.322-2.653-3.998-3.759c0.152-0.222,0.308-0.441,0.461-0.66
	c0.539,1.048,2.067,2.412,4.248,3.991l1.032-0.622c-2.804-1.865-4.875-3.547-5.741-4.965c0.152-0.223,0.308-0.442,0.461-0.661
	c0.674,1.307,2.883,3.107,5.983,5.202l0.64-0.384l0.828,0.498l0.016-0.543c-3.903-2.43-6.85-4.604-7.928-6.37
	c0.152-0.222,0.308-0.442,0.461-0.661c0.778,1.511,3.606,3.679,7.492,6.201l0.043-1.386c-3.938-2.445-6.912-4.636-7.996-6.411
	c0.152-0.222,0.308-0.442,0.461-0.661c0.783,1.52,3.641,3.704,7.56,6.245l0.042-1.388c-3.973-2.462-6.973-4.667-8.063-6.453
	c0.152-0.222,0.308-0.442,0.461-0.661c0.787,1.528,3.672,3.729,7.627,6.289l0.041-1.391c-4.004-2.479-7.031-4.698-8.129-6.494
	c0.152-0.222,0.308-0.441,0.461-0.661c0.791,1.537,3.705,3.754,7.692,6.332l0.042-1.393c-4.038-2.495-7.093-4.729-8.195-6.535
	c0.152-0.222,0.308-0.441,0.461-0.66c0.797,1.545,3.736,3.777,7.76,6.375l0.041-1.395c-4.069-2.513-7.152-4.761-8.262-6.577
	c0.152-0.222,0.308-0.441,0.461-0.66c0.801,1.554,3.77,3.803,7.826,6.418l0.043-1.396c-4.104-2.528-7.216-4.792-8.33-6.618
	c0.152-0.222,0.308-0.441,0.461-0.66c0.806,1.563,3.801,3.827,7.894,6.462l0.043-1.399c-4.138-2.545-7.274-4.823-8.397-6.658
	c0.153-0.222,0.309-0.442,0.461-0.661c0.811,1.571,3.834,3.853,7.961,6.505l0.013-0.375l1.961-2.063L65.975,24.18L65.975,24.18z
	 M63.628,98.961l-2.75-31.936l-2.399-6.121l1.148,38.057H63.628L63.628,98.961z M72.934,51.22l-7.22,4.345l-7.218,4.346l2.756,7.029
	l2.76,32.021h8.922h8.924l2.757-32.021l2.758-7.029l-7.22-4.346L72.934,51.22z"/>
</svg>
