<?xml version="1.0" encoding="utf-8"?>
<!-- Generator: Adobe Illustrator 15.0.0, SVG Export Plug-In . SVG Version: 6.00 Build 0)  -->
<!DOCTYPE svg PUBLIC "-//W3C//DTD SVG 1.1//EN" "http://www.w3.org/Graphics/SVG/1.1/DTD/svg11.dtd">
<svg version="1.1" id="Layer_1" xmlns="http://www.w3.org/2000/svg" xmlns:xlink="http://www.w3.org/1999/xlink" x="0px" y="0px"
	 width="100px" height="100px" viewBox="0 0 100 100" enable-background="new 0 0 100 100" xml:space="preserve">
<path fill-rule="evenodd" clip-rule="evenodd" d="M50,0C22.386,0,0,22.386,0,50s22.386,50,50,50s50-22.386,50-50S77.614,0,50,0z
	 M36.015,75.297c-3.516,0-7.032,0-10.547,0c0-11.204,0-22.408,0-33.612c-0.007-0.111-0.013-0.222,0.079-0.235
	c3.489,0,6.98,0,10.469,0C36.015,52.731,36.015,64.014,36.015,75.297z M27.278,35.86c-1.638-1.117-2.936-3.391-2.597-6.061
	c0.25-1.976,1.698-3.695,3.227-4.487c0.522-0.27,1.218-0.456,1.968-0.55c3.992-0.507,7.038,2.304,7.005,6.061
	C36.841,35.478,31.5,38.739,27.278,35.86z M75.373,75.297c-3.516,0-7.032,0-10.548,0c0-3.786,0-7.798,0-12.123
	c0-5.125,0.65-11.008-2.755-12.751c-1.68-0.859-4.045-0.646-5.511,0c-3.838,1.694-3.463,7.074-3.463,12.988c0,4.11,0,8.373,0,11.887
	c-3.49,0-6.979,0-10.469,0c0-11.283,0-22.565,0-33.848c3.359,0,6.717,0,10.076,0c0,1.548,0,3.096,0,4.644
	c0.373-0.29,0.526-0.747,0.787-1.102c1.764-2.398,4.986-4.378,9.131-4.408c5.217-0.038,8.87,1.764,10.784,5.117
	c1.988,3.484,1.968,8.443,1.968,13.854C75.373,64.742,75.373,70.313,75.373,75.297z"/>
</svg>
