<svg xmlns="http://www.w3.org/2000/svg" width="389" height="397" x="0" y="0" id="svgcontent" viewBox="0 0 389 397" overflow="hidden"><defs><mask id="canvasMaskImageDef" maskUnits="objectBoundingBox" x="0" y="0"><image xmlns:xlink="http://www.w3.org/1999/xlink" id="canvasMaskImage" preserveAspectRatio="none" x="-7" y="-3" width="400" height="400.8" xlink:href="http://pc-oc.designnbuy.in/designnbuy/uploads/productimage/55d5db001603f.png"/></mask></defs><g mask="url(#canvasMaskImageDef)" style="pointer-events:all"><title style="pointer-events:inherit">Layer 1</title><circle cx="201.7500023702296" cy="195.2999993463842" r="195.89999389648438" id="svg_27" fill="#ff025f" display="null" fill-opacity="1" stroke-opacity="1" stroke="#000000" lockTransform="true" lockEdit="true" lock="false" style="pointer-events:inherit"/><g id="svg_20" type="text" text="Company Name" font-size="40.27592456083162" font-family="Bebas Neue" fill="000000" text-anchor="start" font-weight="normal" font-style="normal" lineHeight="1" shapeId="0" shapeVal="0" fill-opacity="1" display="null" stroke-opacity="1" stroke-width="null" stroke-dasharray="none" stroke="ull" style="pointer-events:inherit"><path id="svg_21" fill="#000000" stroke-width="null" d="M114.223,112.642C114.223,112.642 118.363,112.642 118.363,112.642C118.81,118.795 117.579,123.494 111.762,123.494C102.14,123.494 105.161,110.405 105.161,101.678C105.161,97.2031 107.399,94.6299 111.762,94.6299C117.132,94.518 118.81,98.5456 118.363,104.475C118.363,104.475 114.223,104.475 114.223,104.475C114.335,101.79 114.447,98.6575 111.874,98.6575C110.419,98.6575 109.636,99.4406 109.636,101.454C109.636,101.454 109.636,116.67 109.636,116.67C109.636,118.684 110.419,119.467 111.874,119.467C114.782,119.467 114.223,115.439 114.223,112.642C114.223,112.642 114.223,112.642 114.223,112.642M125.075,101.454C125.075,101.454 125.075,116.67 125.075,116.67C125.075,118.684 125.858,119.467 127.313,119.467C128.767,119.467 129.662,118.684 129.662,116.67C129.662,116.67 129.662,101.454 129.662,101.454C129.662,99.4406 128.767,98.6575 127.313,98.6575C125.858,98.6575 125.075,99.4406 125.075,101.454C125.075,101.454 125.075,101.454 125.075,101.454M127.313,123.494C117.579,123.494 120.6,110.405 120.6,101.678C120.6,97.2031 122.95,94.6299 127.313,94.6299C137.04601,94.6299 134.02499,107.72 134.02499,116.446C134.02499,120.921 131.67599,123.494 127.313,123.494C127.313,123.494 127.313,123.494 127.313,123.494M142.976,94.9655C142.976,94.9655 146.22,114.992 146.22,114.992C146.22,114.992 149.241,94.9655 149.241,94.9655C149.241,94.9655 155.394,94.9655 155.394,94.9655C155.394,94.9655 155.394,123.159 155.394,123.159C155.394,123.159 151.255,123.159 151.255,123.159C151.255,123.159 151.255,102.909 151.255,102.909C151.255,102.909 148.23399,123.159 148.23399,123.159C148.23399,123.159 143.98199,123.159 143.98199,123.159C143.98199,123.159 140.73801,103.244 140.73801,103.244C140.73801,103.244 140.73801,123.159 140.73801,123.159C140.73801,123.159 136.82201,123.159 136.82201,123.159C136.82201,123.159 136.82201,94.9655 136.82201,94.9655C136.82201,94.9655 142.976,94.9655 142.976,94.9655C142.976,94.9655 142.976,94.9655 142.976,94.9655M158.52699,94.9655C165.575,94.6299 171.728,94.6299 171.728,101.902C171.728,108.95 170.49699,113.425 163.002,112.53C163.002,112.53 163.002,123.159 163.002,123.159C163.002,123.159 158.52699,123.159 158.52699,123.159C158.52699,123.159 158.52699,94.9655 158.52699,94.9655C158.52699,94.9655 158.52699,94.9655 158.52699,94.9655M167.25301,101.678C167.36501,98.6575 165.575,98.9931 163.002,98.9931C163.002,98.9931 163.002,108.503 163.002,108.503C165.463,108.503 167.25301,108.95 167.25301,105.93C167.25301,105.93 167.25301,101.678 167.25301,101.678C167.25301,101.678 167.25301,101.678 167.25301,101.678M183.47501,94.9655C183.47501,94.9655 188.062,123.159 188.062,123.159C188.062,123.159 183.58701,123.159 183.58701,123.159C183.58701,123.159 182.804,118.012 182.804,118.012C182.804,118.012 177.32201,118.012 177.32201,118.012C177.32201,118.012 176.539,123.159 176.539,123.159C176.539,123.159 172.511,123.159 172.511,123.159C172.511,123.159 176.98599,94.9655 176.98599,94.9655C176.98599,94.9655 183.47501,94.9655 183.47501,94.9655C183.47501,94.9655 183.47501,94.9655 183.47501,94.9655M180.007,100C180.007,100 177.881,114.208 177.881,114.208C177.881,114.208 182.133,114.208 182.133,114.208C182.133,114.208 180.007,100 180.007,100M199.474,123.159C199.474,123.159 193.992,102.685 193.992,102.685C193.992,102.685 193.992,123.159 193.992,123.159C193.992,123.159 189.964,123.159 189.964,123.159C189.964,123.159 189.964,94.9655 189.964,94.9655C189.964,94.9655 195.558,94.9655 195.558,94.9655C195.558,94.9655 200.033,111.859 200.033,111.859C200.033,111.859 200.033,94.9655 200.033,94.9655C200.033,94.9655 204.061,94.9655 204.061,94.9655C204.061,94.9655 204.061,123.159 204.061,123.159C204.061,123.159 199.474,123.159 199.474,123.159C199.474,123.159 199.474,123.159 199.474,123.159M211.22099,123.159C211.22099,123.159 211.22099,113.761 211.22099,113.761C211.22099,113.761 205.627,94.9655 205.627,94.9655C205.627,94.9655 210.326,94.9655 210.326,94.9655C210.326,94.9655 213.68201,107.831 213.68201,107.831C213.68201,107.831 217.039,94.9655 217.039,94.9655C217.039,94.9655 221.28999,94.9655 221.28999,94.9655C221.28999,94.9655 215.696,113.761 215.696,113.761C215.696,113.761 215.696,123.159 215.696,123.159C215.696,123.159 211.22099,123.159 211.22099,123.159C211.22099,123.159 211.22099,123.159 211.22099,123.159M238.631,123.159C238.631,123.159 233.149,102.685 233.149,102.685C233.149,102.685 233.149,123.159 233.149,123.159C233.149,123.159 229.121,123.159 229.121,123.159C229.121,123.159 229.121,94.9655 229.121,94.9655C229.121,94.9655 234.715,94.9655 234.715,94.9655C234.715,94.9655 239.19,111.859 239.19,111.859C239.19,111.859 239.19,94.9655 239.19,94.9655C239.19,94.9655 243.218,94.9655 243.218,94.9655C243.218,94.9655 243.218,123.159 243.218,123.159C243.218,123.159 238.631,123.159 238.631,123.159C238.631,123.159 238.631,123.159 238.631,123.159M256.08398,94.9655C256.08398,94.9655 260.67099,123.159 260.67099,123.159C260.67099,123.159 256.19598,123.159 256.19598,123.159C256.19598,123.159 255.41299,118.012 255.41299,118.012C255.41299,118.012 249.931,118.012 249.931,118.012C249.931,118.012 249.147,123.159 249.147,123.159C249.147,123.159 245.12,123.159 245.12,123.159C245.12,123.159 249.595,94.9655 249.595,94.9655C249.595,94.9655 256.08398,94.9655 256.08398,94.9655C256.08398,94.9655 256.08398,94.9655 256.08398,94.9655M252.616,100C252.616,100 250.49001,114.208 250.49001,114.208C250.49001,114.208 254.741,114.208 254.741,114.208C254.741,114.208 252.616,100 252.616,100M268.72601,94.9655C268.72601,94.9655 271.97,114.992 271.97,114.992C271.97,114.992 274.991,94.9655 274.991,94.9655C274.991,94.9655 281.14401,94.9655 281.14401,94.9655C281.14401,94.9655 281.14401,123.159 281.14401,123.159C281.14401,123.159 277.005,123.159 277.005,123.159C277.005,123.159 277.005,102.909 277.005,102.909C277.005,102.909 273.98401,123.159 273.98401,123.159C273.98401,123.159 269.733,123.159 269.733,123.159C269.733,123.159 266.48801,103.244 266.48801,103.244C266.48801,103.244 266.48801,123.159 266.48801,123.159C266.48801,123.159 262.573,123.159 262.573,123.159C262.573,123.159 262.573,94.9655 262.573,94.9655C262.573,94.9655 268.72601,94.9655 268.72601,94.9655C268.72601,94.9655 268.72601,94.9655 268.72601,94.9655M288.75201,98.9931C288.75201,98.9931 288.75201,106.825 288.75201,106.825C288.75201,106.825 294.793,106.825 294.793,106.825C294.793,106.825 294.793,110.852 294.793,110.852C294.793,110.852 288.75201,110.852 288.75201,110.852C288.75201,110.852 288.75201,119.131 288.75201,119.131C288.75201,119.131 296.35999,119.131 296.35999,119.131C296.35999,119.131 296.35999,123.159 296.35999,123.159C296.35999,123.159 284.27701,123.159 284.27701,123.159C284.27701,123.159 284.27701,94.9655 284.27701,94.9655C284.27701,94.9655 296.35999,94.9655 296.35999,94.9655C296.35999,94.9655 296.35999,98.9931 296.35999,98.9931C296.35999,98.9931 288.75201,98.9931 288.75201,98.9931C288.75201,98.9931 288.75201,98.9931 288.75201,98.9931" stroke="#ull" style="pointer-events:inherit"/></g><g id="svg_17" type="text" text="© 2015@##@#@Website URL" font-size="15.725811582357931" font-family="Calibri" fill="000000" text-anchor="middle" font-weight="normal" font-style="normal" lineHeight="1" shapeId="0" shapeVal="0" fill-opacity="1" display="null" stroke-width="null" stroke-dasharray="none" stroke="null" stroke-opacity="1" style="pointer-events:inherit"><path id="svg_19" fill="#000000" stroke-width="null" d="M275.185,287.01999C275.185,289.94699 276.452,291.47501 279.466,291.47501C282.436,291.47501 283.52802,289.64099 283.57199,286.80099C283.57199,283.875 282.26099,282.34601 279.33499,282.34601C276.40799,282.34601 275.185,284.09299 275.185,287.01999C275.185,287.01999 275.185,287.01999 275.185,287.01999M279.37799,281.47198C282.87299,281.47198 284.62,283.21899 284.62,286.71399C284.62,290.34 283.004,292.39301 279.37799,292.349C275.884,292.349 274.17999,290.60199 274.17999,287.10699C274.17999,283.43799 275.79599,281.51599 279.37799,281.47198C279.37799,281.47198 279.37799,281.47198 279.37799,281.47198M279.59698,289.33499C280.55801,289.55301 280.82001,288.418 281.47501,288.67999C281.737,289.98999 280.60101,290.29599 279.466,290.29599C277.5,290.29599 276.67001,289.02899 276.67001,286.97601C276.67001,284.00601 279.90201,282.34601 281.51901,284.53C281.51901,284.836 281.51901,285.229 281.29999,285.185C280.689,285.05399 280.383,284.44299 279.509,284.48599C278.242,284.53 277.806,285.535 277.806,286.93201C277.806,288.28699 278.19901,289.33499 279.59698,289.33499C279.59698,289.33499 279.59698,289.33499 279.59698,289.33499M294.57999,285.62201C295.32199,282.914 291.87201,283.00101 290.73599,284.13699C289.94901,282.73901 291.87201,282.215 293.22601,282.12701C296.54599,281.953 296.633,286.01501 294.88599,287.89301C294.88599,287.89301 291.95901,291.082 291.95901,291.082C291.95901,291.082 296.371,291.12601 296.371,291.12601C296.633,291.25699 296.677,292.21799 296.284,292.21799C296.284,292.21799 290.60501,292.17401 290.60501,292.17401C290.168,292 290.34299,290.995 290.64801,290.82001C291.95901,289.117 293.96799,287.93701 294.57999,285.62201C294.57999,285.62201 294.57999,285.62201 294.57999,285.62201M301.52499,282.12701C304.27701,282.12701 304.845,284.39899 304.845,287.23801C304.802,290.078 304.146,292.349 301.30701,292.349C298.51099,292.349 297.94299,290.16501 297.987,287.28201C297.987,284.39899 298.73001,282.12701 301.52499,282.12701C301.52499,282.12701 301.52499,282.12701 301.52499,282.12701M301.39401,291.30099C303.27301,291.30099 303.491,289.29099 303.491,287.32599C303.491,285.27301 303.40399,283.21899 301.43799,283.21899C299.51599,283.21899 299.38501,285.185 299.341,287.19501C299.341,289.33499 299.47198,291.30099 301.39401,291.30099C301.39401,291.30099 301.39401,291.30099 301.39401,291.30099M310.39301,291.17001C311.31,291.12601 313.189,290.995 312.228,292.21799C312.228,292.21799 306.94199,292.17401 306.94199,292.17401C306.63599,292.043 306.63599,291.17001 307.02899,291.17001C307.02899,291.17001 309.08301,291.17001 309.08301,291.17001C309.08301,291.17001 309.08301,283.61301 309.08301,283.61301C309.08301,283.61301 306.94199,284.836 306.94199,284.836C306.59299,284.836 306.63599,283.875 306.94199,283.78699C307.94699,283.39401 309.039,281.647 310.39301,282.43301C310.39301,282.43301 310.39301,291.17001 310.39301,291.17001C310.39301,291.17001 310.39301,291.17001 310.39301,291.17001M315.76599,286.23401C318.21201,285.884 320.353,286.62701 320.353,289.02899C320.353,292.21799 316.203,293.22299 314.14999,291.60699C314.14999,291.60699 313.97501,290.733 314.32501,290.646C315.67899,291.56299 318.95499,291.694 318.95499,289.16C318.95499,287.151 316.90201,287.10699 314.98001,287.32599C314.67401,287.32599 314.58701,287.151 314.58701,286.845C314.58701,286.845 314.58701,282.78299 314.58701,282.78299C314.58701,282.47699 314.76099,282.258 315.06699,282.302C315.06699,282.302 319.56601,282.302 319.56601,282.302C319.82901,282.43301 319.82901,283.39401 319.479,283.43799C319.479,283.43799 315.76599,283.43799 315.76599,283.43799C315.76599,283.43799 315.76599,286.23401 315.76599,286.23401C315.76599,286.23401 315.76599,286.23401 315.76599,286.23401" stroke="null" style="pointer-events:inherit"/><path id="svg_18" fill="#000000" stroke-width="null" d="M267.64499,301.33099C267.73199,300.85101 269.30399,300.89401 268.91101,301.54999C268.91101,301.54999 266.29001,310.72299 266.29001,310.72299C266.203,311.24701 264.63,311.29099 264.45599,310.72299C264.45599,310.72299 262.35901,303.25299 262.35901,303.25299C262.35901,303.25299 260.43701,310.72299 260.43701,310.72299C260.39301,311.24701 258.77701,311.24701 258.60199,310.72299C258.60199,310.72299 255.938,301.28799 255.938,301.28799C255.938,300.85101 257.03,301.02499 257.29199,301.20001C257.29199,301.20001 259.56299,309.63101 259.56299,309.63101C259.56299,309.63101 261.83499,301.11301 261.83499,301.11301C262.272,301.069 263.05801,300.89401 263.14499,301.33099C263.14499,301.33099 265.45999,309.63101 265.45999,309.63101C265.45999,309.63101 267.64499,301.33099 267.64499,301.33099M273.45401,303.55899C275.55099,303.55899 276.556,304.91299 276.51199,307.09698C276.51199,307.44699 276.29401,307.578 276.03201,307.62201C276.03201,307.62201 271.48901,307.62201 271.48901,307.62201C271.18301,310.41699 274.241,310.505 276.11899,309.63101C276.599,311.02899 274.85199,311.116 273.58499,311.16C271.18301,311.16 270.134,309.76199 270.134,307.40302C270.134,305.13199 271.26999,303.55899 273.45401,303.55899C273.45401,303.55899 273.45401,303.55899 273.45401,303.55899M275.245,306.70401C275.638,304.345 272.23099,303.86499 271.62,305.87399C271.53201,306.13599 271.48901,306.44199 271.48901,306.70401C271.48901,306.70401 275.245,306.70401 275.245,306.70401C275.245,306.70401 275.245,306.70401 275.245,306.70401M281.97198,303.55899C284.026,303.55899 284.76801,305.17499 284.76801,307.272C284.76801,309.54401 283.98199,311.073 281.798,311.16C280.61801,311.16 280.181,310.59201 279.57001,309.98001C279.87601,310.72299 279.133,311.55301 278.43399,310.854C278.43399,310.854 278.565,300.414 278.565,300.414C278.784,300.28299 279.65701,300.23901 279.70099,300.58899C279.70099,300.58899 279.70099,304.73901 279.70099,304.73901C280.31299,304.08301 280.83701,303.55899 281.97198,303.55899C281.97198,303.55899 281.97198,303.55899 281.97198,303.55899M281.66699,310.06799C284.15701,310.112 284.11301,304.651 281.754,304.651C280.70599,304.651 280.26901,305.35001 279.70099,306.005C279.70099,306.005 279.70099,308.75699 279.70099,308.75699C280.26901,309.41299 280.66199,310.06799 281.66699,310.06799C281.66699,310.06799 281.66699,310.06799 281.66699,310.06799M290.534,305.08801C289.74799,304.47601 286.909,304.17099 287.651,306.04901C288.569,307.185 291.05899,306.79199 291.01501,308.97601C291.01501,310.548 289.879,311.073 288.306,311.16C287.08301,311.20401 285.55399,310.63599 286.341,309.5C287.12701,310.112 289.66101,310.767 289.79199,309.06299C289.311,307.272 286.297,308.01501 286.297,305.612C286.297,303.55899 289.70401,302.81601 290.66501,304.38901C290.66501,304.651 290.70901,304.957 290.534,305.08801C290.534,305.08801 290.534,305.08801 290.534,305.08801M293.94199,303.73401C294.24701,305.74301 294.073,308.93201 293.94199,311.02899C293.548,310.98499 292.93701,311.24701 292.806,310.854C292.806,310.854 292.93701,303.73401 292.93701,303.73401C293.24301,303.73401 293.67899,303.646 293.94199,303.73401C293.94199,303.73401 293.94199,303.73401 293.94199,303.73401M293.41699,300.85101C294.02899,300.85101 294.20401,300.98199 294.20401,301.59299C294.20401,302.24899 294.02899,302.38 293.41699,302.38C292.806,302.38 292.63101,302.24899 292.63101,301.59299C292.63101,300.98199 292.806,300.85101 293.41699,300.85101C293.41699,300.85101 293.41699,300.85101 293.41699,300.85101M297.95999,308.62601C297.742,310.155 299.052,310.06799 299.92599,309.93701C300.14499,310.89801 299.577,311.16 298.703,311.16C295.776,311.16 296.91199,307.40302 296.694,304.78201C295.86401,304.957 295.077,304.651 295.60199,303.73401C295.60199,303.73401 296.694,303.73401 296.694,303.73401C296.56299,302.77301 296.60599,301.15701 297.95999,302.07401C297.95999,302.07401 297.95999,303.73401 297.95999,303.73401C297.95999,303.73401 299.83899,303.73401 299.83899,303.73401C300.013,303.909 300.10101,304.78201 299.70801,304.78201C299.70801,304.78201 297.95999,304.78201 297.95999,304.78201C297.95999,304.78201 297.95999,308.62601 297.95999,308.62601C297.95999,308.62601 297.95999,308.62601 297.95999,308.62601M304.46899,303.55899C306.56601,303.55899 307.57101,304.91299 307.52701,307.09698C307.52701,307.44699 307.30899,307.578 307.04599,307.62201C307.04599,307.62201 302.50299,307.62201 302.50299,307.62201C302.198,310.41699 305.255,310.505 307.134,309.63101C307.61401,311.02899 305.867,311.116 304.60001,311.16C302.198,311.16 301.14899,309.76199 301.14899,307.40302C301.14899,305.13199 302.285,303.55899 304.46899,303.55899C304.46899,303.55899 304.46899,303.55899 304.46899,303.55899M306.26001,306.70401C306.65302,304.345 303.246,303.86499 302.634,305.87399C302.547,306.13599 302.50299,306.44199 302.50299,306.70401C302.50299,306.70401 306.26001,306.70401 306.26001,306.70401C306.26001,306.70401 306.26001,306.70401 306.26001,306.70401M319.27802,301.28799C319.409,300.93799 320.457,300.93799 320.58801,301.28799C320.58801,301.28799 320.58801,307.35901 320.58801,307.35901C320.54401,309.806 319.27802,311.16 316.78799,311.16C314.341,311.16 313.11801,309.849 313.11801,307.44699C313.11801,305.39401 312.987,302.991 313.24899,301.11301C313.64301,301.02499 314.298,300.93799 314.42899,301.28799C314.73499,304.69501 313.16199,310.06799 316.875,310.06799C320.58801,310.06799 318.92801,304.651 319.27802,301.28799C319.27802,301.28799 319.27802,301.28799 319.27802,301.28799M329.194,303.69C329.194,305.17499 328.36401,305.83099 327.272,306.224C328.75699,307.05399 329.28101,309.23801 329.76099,310.94101C329.543,311.20401 328.40701,311.16 328.36401,310.767C327.44601,309.01901 327.577,306.17999 324.47601,306.617C324.47601,306.617 324.47601,310.81 324.47601,310.81C324.51999,311.20401 323.69,311.073 323.29599,311.02899C323.20901,311.02899 323.20901,310.89801 323.16501,310.81C323.16501,310.81 323.16501,301.63699 323.16501,301.63699C323.427,300.54501 325.48099,301.28799 326.83499,301.15701C328.233,301.41901 329.194,302.07401 329.194,303.69C329.194,303.69 329.194,303.69 329.194,303.69M324.47601,305.52499C326.17899,305.569 327.79599,305.569 327.79599,303.86499C327.79599,302.20499 326.267,302.11801 324.47601,302.20499C324.47601,302.20499 324.47601,305.52499 324.47601,305.52499C324.47601,305.52499 324.47601,305.52499 324.47601,305.52499M336.57599,309.89301C336.92499,309.89301 336.83801,310.37399 336.83801,310.72299C336.83801,310.89801 336.707,311.02899 336.57599,311.02899C336.57599,311.02899 332.164,311.02899 332.164,311.02899C331.90201,310.98499 331.68399,310.854 331.68399,310.505C331.68399,310.505 331.815,301.11301 331.815,301.11301C332.164,301.069 332.90701,300.89401 332.99399,301.28799C332.99399,301.28799 332.99399,309.89301 332.99399,309.89301C332.99399,309.89301 336.57599,309.89301 336.57599,309.89301C336.57599,309.89301 336.57599,309.89301 336.57599,309.89301" stroke="null" style="pointer-events:inherit"/></g><g id="svg_4" display="null" clip-id="195" stroke-opacity="1" stroke="null" transform=""><path fill="#2AACE3" d="M 184.414 86.0726 C 187.543 80.5257 197.073 63.6381 182.007 32.5753 C 183.927 33.9009 185.761 35.3163 187.469 36.7996 C 194.215 55.1437 193.893 70.129 186.491 82.6153 L 184.414 86.0726 M 197.326 90.4269 C 198.217 84.1168 200.936 64.9178 231.791 49.4351 C 229.46 49.3175 227.147 49.3271 224.885 49.4638 C 208.375 59.916 199.509 71.9987 197.781 86.4159 L 197.326 90.4269" id="svg_5" stroke-width="0" stroke="null" transform=""/><path fill="#2E358F" d="M 188.282 79.6353 C 191.117 74.6125 197.75 62.853 191.566 40.7303 C 193.033 42.3131 194.346 43.9418 195.474 45.5953 C 196.707 54.7114 196.946 64.7265 190.361 76.1761 C 189.669 77.3285 188.976 78.4829 188.282 79.6353 M 198.174 82.9606 C 198.984 77.2492 200.875 63.883 219.241 50.0883 C 217.117 50.4537 215.079 50.9481 213.182 51.5726 C 206.65 58.053 200.371 65.8588 198.632 78.9496 C 198.48 80.2847 198.327 81.6226 198.174 82.9606" id="svg_6" stroke-width="0" stroke="null" transform=""/><path fill="#EBE212" d="M 180.844 92.0164 C 195.174 66.6105 179.052 37.8717 171.458 26.6965 C 173.597 27.6328 175.702 28.7011 177.739 29.8793 C 184.988 42.8104 195.3 67.63 182.924 88.5563 C 182.23 89.7106 181.536 90.865 180.844 92.0164 M 191.855 73.6943 C 193.93 70.0104 198.25 62.3518 197.602 49.1807 C 197.884 49.7393 198.141 50.2997 198.376 50.862 C 198.84 51.9752 199.192 53.0492 199.435 54.0831 C 198.575 59.8557 197.439 64.1412 193.93 70.238 L 191.855 73.6943 M 196.548 97.3099 C 200.633 68.4295 230.911 55.4325 243.74 51.1901 C 241.472 50.6315 239.152 50.1974 236.821 49.8923 C 223.2 55.7452 199.914 69.1631 197.004 93.3037 C 196.851 94.6378 196.697 95.9777 196.548 97.3099 M 198.957 76.0747 C 199.552 71.8897 200.781 63.1829 209.312 53.1238 C 208.746 53.3935 208.203 53.6833 207.678 53.9855 C 206.63 54.5842 205.697 55.225 204.878 55.8992 C 202.048 61.0024 200.337 65.0937 199.419 72.0666 L 198.957 76.0747" id="svg_7" stroke-width="0" stroke="null" transform=""/><path fill="#9A2481" d="M 180.957 89.9564 C 188.924 63.6095 171.772 35.6424 160.375 23.2708 L 160.414 23.2087 C 162.539 23.6113 164.681 24.1823 166.81 24.9024 C 171.716 31.2995 195.398 64.6968 179.889 93.582 C 180.463 92.4965 180.822 91.281 180.957 89.9564 M 195.42 67.7524 C 196.857 65.2066 198.486 62.3193 199.841 57.2601 C 199.862 58.6583 199.648 59.9542 199.215 61.1219 C 198.718 62.0812 198.042 63.3551 197.502 64.2923 L 195.42 67.7524 M 197.713 95.6085 C 207.416 69.8536 238.049 58.0989 254.619 55.2135 L 254.625 55.1389 C 252.699 54.1682 250.651 53.318 248.52 52.5892 C 240.734 54.6885 201.62 66.7798 196.349 99.1414 C 196.556 97.9277 197.011 96.7409 197.713 95.6085 M 199.743 69.1889 C 200.15 66.293 200.617 63.0098 202.618 58.1706 C 201.75 59.2695 201.133 60.4286 200.764 61.6173 C 200.573 62.6818 200.34 64.1039 200.196 65.1779 L 199.743 69.1889" id="svg_8" stroke-width="0" stroke="null" transform=""/></g></g></svg>