<svg xmlns="http://www.w3.org/2000/svg" xmlns:se="http://svg-edit.googlecode.com" xmlns:xlink="http://www.w3.org/1999/xlink" id="svgcontent" width="205.65" height="395.85" x="0" y="0" viewBox="0 0 205.65 395.85" overflow="hidden"><g mask="" style="pointer-events:all"><title style="pointer-events:inherit">Layer 1</title><g id="svg_4" display="null" stroke="null" style="pointer-events:inherit" clip-id="166"><g id="svg_5" transform="matrix(1.23819 0 0 2.89788 -111.958 -904.965)" stroke="null" style="pointer-events:inherit"><path fill="#651a9b" d="M206.69403,334.36218C211.22803,334.21618 215.00603,335.70818 218.02103,338.83318C221.03903,341.97718 222.60103,345.83418 222.70903,350.40418C222.60103,354.97418 221.03803,358.82318 218.02103,361.94818C215.00303,365.09418 211.22803,366.59218 206.69403,366.44718C199.01503,365.83418 192.14203,365.88618 186.07203,366.60918S176.24403,369.34518 174.79903,372.65218C173.33603,369.34518 169.56903,367.33218 163.49803,366.60918C157.42803,365.88618 150.56303,365.83418 142.90303,366.44718C138.36803,366.59218 134.59203,365.09318 131.57503,361.94818C128.54003,358.82318 126.96903,354.97418 126.86003,350.40418C126.96803,345.83418 128.54003,341.97618 131.57503,338.83318C134.59203,335.70818 138.36803,334.21718 142.90303,334.36218C150.56303,334.95818 157.42803,334.90418 163.49803,334.19918C169.56803,333.47618 173.33503,331.46218 174.79903,328.15618C176.24403,331.46218 180.00203,333.47618 186.07203,334.19918C192.14203,334.90418 199.01503,334.95818 206.69403,334.36218" id="svg_6" stroke="#651a9b" style="pointer-events:inherit"/></g></g><g id="svg_7" type="text" text="BRIDE" font-size="39.09835448524584" font-family="Belligerent Madness" fill="ffffff" text-anchor="start" font-weight="normal" font-style="normal" lineHeight="1" shapeId="0" shapeVal="0" display="null" elemBBoxWidth="98.83195495605469" stroke="null" style="pointer-events:inherit"><path id="svg_10" fill="#ffffff" stroke-width="0" d="M60.20069,102.77118C59.00602,96.79782 58.78881,90.28143 57.91995,84.19946C56.29086,84.09086 56.07364,86.26299 54.55315,85.71996C54.33594,83.33061 57.15971,82.46176 59.00602,81.70151C59.00602,81.70151 61.50397,79.42078 61.50397,79.42078C61.50397,79.42078 61.82979,80.94127 61.82979,80.94127C66.06545,80.39823 72.36463,79.96381 74.75397,82.35315C73.88512,86.04577 70.62692,87.56627 67.80315,89.30397C72.14741,88.54373 76.60028,90.06422 74.42815,94.51709C72.14741,99.18717 67.04291,101.79372 62.48143,104.07446C61.9384,104.61749 60.96094,106.24659 60.09209,105.48635C60.20069,105.37774 60.20069,105.16053 60.20069,104.94331C58.6802,105.48635 55.85643,106.68102 54.11873,105.48635C54.44455,103.31422 55.96504,101.57651 58.35438,101.90233C58.35438,101.90233 57.26832,103.097 57.26832,103.097C58.02856,103.20561 59.00602,103.097 60.20069,102.77118C60.20069,102.77118 60.20069,102.77118 60.20069,102.77118M63.24168,92.45356C63.35028,95.27733 64.54495,98.75274 63.89332,101.57651C67.15151,99.62159 71.71299,98.75274 72.25602,94.08266C71.49577,91.3675 66.06545,92.12774 63.24168,92.45356C63.24168,92.45356 63.24168,92.45356 63.24168,92.45356M71.82159,84.7425C69.75807,83.222 65.63102,83.1134 62.37282,83.54782C62.37282,83.54782 63.02446,89.847 63.02446,89.847C66.06545,88.32651 69.43225,86.91463 71.82159,84.7425C71.82159,84.7425 71.82159,84.7425 71.82159,84.7425M89.09003,89.95561C92.13102,92.45356 94.62897,95.38594 94.30315,101.03348C95.49782,103.64004 94.73758,106.68102 92.45684,107.33266C91.58799,107.00684 92.02241,105.48635 91.91381,104.29168C91.91381,104.29168 90.61053,100.05602 90.61053,100.05602C90.61053,100.05602 91.58799,99.18717 91.58799,99.18717C90.50192,96.14618 88.65561,93.32241 85.61463,92.34495C85.50602,92.34495 85.50602,92.23635 85.50602,92.01914C85.50602,92.01914 80.94454,93.53963 80.94454,93.53963C80.2929,98.64413 84.52856,104.50889 80.40151,107.00684C79.42405,107.54987 79.74987,106.02938 79.53266,105.37774C78.66381,106.46381 77.90356,105.59495 77.90356,104.29168C77.90356,104.29168 77.46913,83.87364 77.46913,83.87364C77.14331,83.98225 76.81749,84.09086 76.60028,84.09086C75.51422,83.98225 76.27446,83.54782 76.70889,83.00479C77.79495,82.13594 78.5552,80.94127 80.07569,80.50684C80.07569,80.50684 79.85848,80.94127 79.85848,80.94127C83.5511,79.31217 91.69659,78.00889 91.69659,83.87364C93.32569,86.26299 90.71913,88.76094 89.09003,89.95561C89.09003,89.95561 89.09003,89.95561 89.09003,89.95561M81.27036,83.54782C82.03061,85.39414 81.27036,88.86955 81.05315,91.04168C84.20274,89.847 86.9179,88.43512 88.65561,85.93717C89.41585,82.89618 83.98553,83.00479 81.27036,83.54782C81.27036,83.54782 81.27036,83.54782 81.27036,83.54782M86.04905,89.95561C87.35233,89.19536 90.39331,88.76094 89.41585,87.02323C88.4384,88.21791 87.35233,89.08676 86.04905,89.95561C86.04905,89.95561 86.04905,89.95561 86.04905,89.95561M107.55315,105.92077C103.20889,105.81217 100.81954,107.76708 97.77856,108.96176C97.66995,107.11545 99.62487,106.13799 100.81954,105.26913C100.49372,97.55807 100.38512,89.52118 101.25397,82.24455C99.51626,82.46176 97.88717,83.00479 96.04085,83.222C96.58389,79.63799 103.64331,79.31217 107.87897,79.74659C107.77036,79.8552 107.33594,80.07241 107.77036,80.07241C107.77036,80.07241 109.72528,79.63799 109.72528,79.63799C109.72528,79.63799 109.61667,79.74659 109.61667,79.74659C110.0511,79.74659 110.70274,79.31217 110.91995,79.52938C109.39946,80.72405 108.96503,82.35315 106.6843,82.46176C106.46708,89.19536 105.38102,96.90643 106.03266,102.9884C106.03266,103.31422 105.70684,103.53143 105.59823,103.74864C105.59823,103.74864 109.83389,103.31422 109.83389,103.31422C110.37692,104.40028 108.53061,105.48635 107.55315,105.92077C107.55315,105.92077 107.55315,105.92077 107.55315,105.92077M99.95069,106.57241C99.51626,106.3552 98.86462,107.22405 98.64741,107.65848C99.29905,107.54987 99.51626,106.89823 99.95069,106.57241C99.95069,106.57241 99.95069,106.57241 99.95069,106.57241M116.56749,102.66258C116.24167,96.3634 116.6761,89.7384 115.59003,83.76504C114.17815,83.76504 113.52651,84.63389 112.22323,84.7425C114.39536,78.1175 129.9261,81.15848 132.20684,85.71996C138.07159,97.34086 122.32364,103.097 112.54905,106.24659C111.89741,106.46381 111.6802,106.3552 112.00602,105.70356C112.76626,103.96586 114.72118,103.31422 116.56749,102.66258C116.56749,102.66258 116.56749,102.66258 116.56749,102.66258M127.53675,98.20971C128.297,93.64823 126.88511,89.62979 125.79905,86.15438C125.79905,86.15438 126.45069,85.50274 126.45069,85.50274C124.60438,84.52528 122.43225,83.87364 120.0429,83.65643C120.47733,88.32651 120.26011,93.32241 121.12897,97.55807C121.45479,98.96995 121.56339,99.94741 121.34618,101.25069C123.4097,100.59905 125.79905,99.40438 127.53675,98.20971C127.53675,98.20971 127.53675,98.20971 127.53675,98.20971M141.11257,91.04168C143.1761,90.06422 145.99987,89.08676 148.82364,88.86955C149.8011,90.06422 146.86872,91.25889 146.43429,92.23635C144.58798,92.56217 142.52446,92.77938 141.32979,93.86545C141.32979,93.86545 141.65561,101.79372 141.65561,101.79372C144.8052,101.14209 148.82364,99.62159 152.73347,100.49045C152.51626,102.22815 151.43019,102.55397 150.77856,103.74864C150.77856,103.74864 150.77856,103.42282 150.77856,103.42282C150.45274,103.74864 149.69249,104.61749 149.25806,104.61749C146.5429,102.55397 140.46093,105.81217 137.20274,106.3552C136.33388,106.46381 136.11667,108.0929 135.03061,107.44127C135.03061,107.44127 134.922,85.06832 134.922,85.06832C135.13921,84.8511 136.00806,84.7425 135.68225,84.30807C135.68225,84.30807 135.03061,84.52528 135.03061,84.52528C136.11667,83.43922 139.26626,80.18102 140.78675,81.59291C144.26216,80.61545 148.60642,80.94127 152.95069,80.94127C152.73347,81.37569 151.5388,82.02733 152.73347,82.02733C151.75601,86.4802 144.69659,83.87364 141.32979,86.26299C141.32979,86.26299 141.65561,85.82856 141.65561,85.82856C141.65561,85.82856 140.56954,86.04577 140.56954,86.04577C140.56954,86.04577 141.11257,91.04168 141.11257,91.04168M152.62487,82.02733C152.62487,82.02733 152.62487,82.02733 152.62487,82.02733C152.62487,82.02733 152.62487,82.02733 152.62487,82.02733C152.62487,82.02733 152.62487,82.02733 152.62487,82.02733" stroke="null" style="pointer-events:inherit"/><rect id="svg_11" x="54.11872876504822" y="78.00804138183594" width="98.83196429110467" height="30.952855066256536" fill="#ffffff" opacity="0" stroke="null" style="pointer-events:inherit"/></g><g type="text" text="TO  BE" font-size="39.09835448524584" font-family="Belligerent Madness" fill="ffffff" text-anchor="start" font-weight="normal" font-style="normal" lineHeight="1" shapeId="0" shapeVal="0" display="null" elemBBoxWidth="112.19055938720703" stroke="ull" id="svg_12" style="pointer-events:inherit"><path id="svg_32" fill="#9b9393" stroke="#ull" stroke-width="0" d="M47.22735,118.63298C49.18226,116.46085 51.24579,114.28872 55.26423,114.18011C55.26423,114.18011 54.8298,114.83175 54.8298,114.83175C54.8298,114.83175 66.88513,114.83175 66.88513,114.83175C66.3421,116.89528 73.83595,113.9629 71.4466,117.54692C70.14333,119.50183 68.18841,118.74159 66.3421,119.50183C66.3421,119.50183 66.4507,119.50183 66.4507,119.39323C65.47324,119.17601 63.51833,118.74159 61.67202,118.9588C60.15152,125.36659 61.88923,133.18626 62.64947,139.26822C61.56341,140.5715 60.47734,144.15552 58.63103,143.72109C57.00193,137.42191 57.65357,129.16782 57.65357,121.56536C57.65357,120.5879 58.84825,119.71905 59.28267,118.9588C59.28267,118.9588 48.31341,120.15347 48.31341,120.15347C48.31341,119.39323 48.96505,118.9588 49.29087,118.52437C48.74784,118.63298 48.42202,118.9588 47.66177,118.9588C47.22735,118.9588 47.11874,118.85019 47.22735,118.63298C47.22735,118.63298 47.22735,118.63298 47.22735,118.63298M87.84619,113.74569C94.6884,115.15757 96.2089,126.23544 93.38513,132.64322C90.56136,139.05101 78.61464,143.39527 74.7048,135.03257C72.20685,129.71085 72.9671,120.5879 76.76832,117.76413C78.83185,115.37478 83.28472,112.00798 87.62898,113.9629C87.62898,113.9629 87.84619,113.74569 87.84619,113.74569M89.47529,132.75183C91.64742,127.64732 89.90972,119.28462 85.89127,117.76413C79.26627,115.37478 76.76832,125.5838 79.91791,132.10019C80.78677,136.22724 87.52037,135.35839 89.47529,132.75183C89.47529,132.75183 89.47529,132.75183 89.47529,132.75183M83.39332,137.31331C88.60644,137.74773 91.53881,134.81536 92.29906,130.36249C90.66996,134.05511 87.84619,136.33585 83.39332,137.31331C83.39332,137.31331 83.39332,137.31331 83.39332,137.31331M82.9589,115.80921C79.48349,116.24364 77.09414,118.08995 76.3339,121.23954C77.85439,118.63298 80.13513,117.11249 82.9589,115.80921C82.9589,115.80921 82.9589,115.80921 82.9589,115.80921M125.42405,137.31331C124.22938,131.33995 124.01217,124.82355 123.14332,118.74159C121.51422,118.63298 121.29701,120.80511 119.77651,120.26208C119.5593,117.87274 122.38307,117.00388 124.22938,116.24364C124.22938,116.24364 126.72733,113.9629 126.72733,113.9629C126.72733,113.9629 127.05315,115.48339 127.05315,115.48339C131.28881,114.94036 137.58799,114.50593 139.97733,116.89528C139.10848,120.5879 135.85028,122.10839 133.02651,123.84609C137.37077,123.08585 141.82364,124.60634 139.65151,129.05921C137.37077,133.72929 132.26627,136.33585 127.70479,138.61658C127.16176,139.15962 126.1843,140.78872 125.31545,140.02847C125.42405,139.91986 125.42405,139.70265 125.42405,139.48544C123.90356,140.02847 121.07979,141.22314 119.34209,140.02847C119.66791,137.85634 121.1884,136.11863 123.57774,136.44445C123.57774,136.44445 122.49168,137.63913 122.49168,137.63913C123.25192,137.74773 124.22938,137.63913 125.42405,137.31331C125.42405,137.31331 125.42405,137.31331 125.42405,137.31331M128.46504,126.99568C128.57364,129.81945 129.76832,133.29486 129.11668,136.11863C132.37487,134.16372 136.93635,133.29486 137.47938,128.62478C136.71913,125.90962 131.28881,126.66986 128.46504,126.99568C128.46504,126.99568 128.46504,126.99568 128.46504,126.99568M137.04495,119.28462C134.98143,117.76413 130.85438,117.65552 127.59619,118.08995C127.59619,118.08995 128.24782,124.38913 128.24782,124.38913C131.28881,122.86864 134.65561,121.45675 137.04495,119.28462C137.04495,119.28462 137.04495,119.28462 137.04495,119.28462M147.47118,125.5838C149.53471,124.60634 152.35848,123.62888 155.18225,123.41167C156.15971,124.60634 153.22733,125.80101 152.7929,126.77847C150.94659,127.10429 148.88307,127.3215 147.6884,128.40757C147.6884,128.40757 148.01421,136.33585 148.01421,136.33585C151.1638,135.68421 155.18225,134.16372 159.09208,135.03257C158.87487,136.77027 157.7888,137.09609 157.13716,138.29076C157.13716,138.29076 157.13716,137.96495 157.13716,137.96495C156.81134,138.29076 156.0511,139.15962 155.61667,139.15962C152.90151,137.09609 146.81954,140.35429 143.56135,140.89732C142.69249,141.00593 142.47528,142.63503 141.38922,141.98339C141.38922,141.98339 141.28061,119.61044 141.28061,119.61044C141.49782,119.39323 142.36667,119.28462 142.04086,118.85019C142.04086,118.85019 141.38922,119.06741 141.38922,119.06741C142.47528,117.98134 145.62487,114.72315 147.14536,116.13503C150.62077,115.15757 154.96503,115.48339 159.3093,115.48339C159.09208,115.91782 157.89741,116.56946 159.09208,116.56946C158.11462,121.02232 151.0552,118.41577 147.6884,120.80511C147.6884,120.80511 148.01421,120.37069 148.01421,120.37069C148.01421,120.37069 146.92815,120.5879 146.92815,120.5879C146.92815,120.5879 147.47118,125.5838 147.47118,125.5838M158.98348,116.56946C158.98348,116.56946 158.98348,116.56946 158.98348,116.56946C158.98348,116.56946 158.98348,116.56946 158.98348,116.56946C158.98348,116.56946 158.98348,116.56946 158.98348,116.56946" style="pointer-events:inherit"/><rect id="svg_33" x="47.118736267089844" y="112.00798797607422" width="112.19055938720703" height="32.14752960205078" fill="#000000" opacity="0" style="pointer-events:inherit"/></g><g id="svg_30" display="null" stroke="null" style="pointer-events:inherit" fill-opacity="1" stroke-opacity="1" clip-id="870"><path fill-rule="evenodd" d="M108.04899,115.18469L108.15019,115.18745C108.237,115.45852 108.3461,115.71994 108.43291,115.93445C108.50626,115.97653 108.53272,116.10689 108.64042,116.17035C108.65388,116.25656 108.71005,116.30623 108.70819,116.41452C108.70727,116.5235 108.6367,116.67938 108.57775,116.8194C108.49047,117.02357 108.35585,117.22359 108.25047,117.38982C108.24304,117.46983 108.24211,117.59744 108.237,117.69952C108.19894,117.70504 108.15437,117.69124 108.1177,117.78781C107.99143,117.71952 108.00489,117.50501 107.9529,117.38362L107.86098,117.32706C107.80341,117.20221 107.85169,116.96218 107.68782,116.99115C107.67761,116.77939 107.58105,116.59937 107.51977,116.54626L107.52163,116.38969C107.65347,116.32692 107.61122,116.12275 107.64558,115.97446C107.69339,115.84409 107.9464,115.70752 107.87119,115.44818C108.02253,115.37092 108.01417,115.31368 108.04899,115.18469zM111.8343,134.31905L111.82455,134.31905L111.4281,134.3087C111.35754,134.30663 111.44064,134.39561 111.37008,134.39423L110.74708,134.37698C110.67652,134.37561 110.75962,134.46458 110.68905,134.4632L110.34924,134.45355C110.27868,134.45148 110.3627,134.54115 110.29214,134.53839L109.3855,134.51424C109.31494,134.51218 109.39804,134.60184 109.32747,134.59977S109.34279,134.51287 109.27223,134.51149C109.20167,134.50873 109.28476,134.59839 109.2142,134.59633L108.53457,134.57839C108.46355,134.57632 108.54757,134.6653 108.47701,134.66392L105.70046,134.58943C105.6299,134.58736 105.71578,134.50252 105.64476,134.50114L105.0213,134.4839C104.95074,134.48252 105.03662,134.39768 104.96559,134.39561L104.27482,134.37767C104.20426,134.37561 104.26321,134.32939 104.23907,134.29904C104.15783,134.28732 104.04456,134.28456 103.93315,134.26249C103.93315,134.26249 103.97261,134.19558 103.90158,134.19351L103.49445,134.18179C103.42389,134.18041 103.50977,134.09557 103.43875,134.0935C103.36772,134.09143 103.45174,134.18041 103.38118,134.17903C103.31016,134.17696 103.39604,134.09281 103.32547,134.09005L102.97498,134.08039L102.95827,134.07901C102.91463,134.07005 102.96106,134.02935 102.93877,134.00245C102.85753,133.99003 102.74426,133.98797 102.63285,133.96589L102.59942,133.90589C102.51865,133.89416 102.43277,133.8914 102.34781,133.86864C102.33713,133.83208 102.37845,133.8038 102.30789,133.80104C102.23686,133.79966 102.32089,133.88864 102.24986,133.88726C102.1793,133.8845 102.22804,133.83898 102.20344,133.80794C102.03771,133.79415 101.89055,133.74586 101.73178,133.68172L101.62315,133.6086L101.62315,133.6086C101.56884,133.56446 101.51313,133.51963 101.47181,133.51825L100.95141,133.50445C100.88039,133.50169 100.96627,133.41754 100.89571,133.41547C100.82468,133.41271 100.86693,133.43617 100.85811,133.49893C100.74205,133.35753 100.6427,133.22441 100.64363,133.1044L100.65013,133.06094C100.6817,132.92989 100.81911,132.68227 100.81911,132.68917C100.79265,132.61743 100.76851,132.58157 100.71605,132.51328L100.71512,132.36567C100.71698,132.26566 100.71977,132.15254 100.70259,132.04632C100.68077,131.91458 100.59814,131.80491 100.56239,131.66765L100.5545,131.63523C100.53454,131.52625 100.57539,131.33726 100.54243,131.17379C100.52943,131.10619 100.50158,131.04066 100.47883,130.96962L100.77501,130.9779L100.47883,130.96962L100.45005,130.84822C100.41848,130.62888 100.44262,130.43713 100.36556,130.27021L100.28896,130.15434C100.28711,129.93775 100.23836,129.7529 100.18544,129.57081L101.06051,129.59357L100.18544,129.57012C100.12509,129.36043 100.05963,129.15213 100.05778,128.89899L100.04431,128.87071L100.04431,128.87071L99.96447,128.75138C99.99882,128.43686 99.8758,128.20165 99.80338,127.96576C99.77274,127.8623 99.79781,127.71538 99.78945,127.58847L99.69614,127.53122C99.68825,127.36292 99.66643,127.18289 99.62651,126.97459C99.61305,126.89872 99.53877,126.82215 99.53274,126.73524C99.51324,126.52349 99.46217,126.29863 99.41343,126.07102L99.41343,126.07102C99.35911,125.81788 99.30758,125.56198 99.30619,125.31781C99.20221,125.20883 99.20499,125.06191 99.19663,124.87706L99.1024,124.81843L99.10472,124.67289L99.10472,124.67289C99.09775,124.46597 99.05087,124.22042 98.93342,124.13696L98.98866,124.03625C98.90139,123.7976 98.90835,123.6224 98.874,123.30512L98.86007,123.27546L98.86007,123.27546L98.78161,123.16027C98.74819,122.97611 98.71755,122.77608 98.68598,122.57605L99.17946,122.58916L98.68598,122.57536C98.65999,122.40775 98.63353,122.24083 98.60521,122.08219C98.5885,122.04081 98.56389,122.00287 98.51051,121.93252L98.51422,121.87527C98.52118,121.60282 98.39816,121.46969 98.34756,121.2338C98.31414,121.06964 98.32342,120.7827 98.17858,120.64061L98.2394,120.48542L98.34385,120.48818C98.38377,120.77167 98.50122,120.9172 98.66695,121.02894C98.72498,121.19379 98.75237,121.41175 98.88885,121.46969C98.9311,121.66213 99.04855,121.78422 99.1465,121.89458L98.51376,121.87803L99.1465,121.89458C99.20592,121.96149 99.25838,122.02425 99.28159,122.09461C99.33869,122.26636 99.40275,122.43879 99.47471,122.59881L99.47471,122.59881C99.59262,122.86299 99.73096,123.09474 99.89112,123.23821L99.90737,123.30581L99.30851,123.28994L99.90737,123.3065C99.92826,123.37271 99.96029,123.44652 99.964,123.53894L100.05453,123.58585C100.09491,123.66724 100.10652,123.72587 100.13066,123.80243C100.16176,123.90658 100.29128,123.93417 100.33678,124.03418C100.34745,124.06867 100.34745,124.16317 100.35303,124.24456L100.44309,124.29146C100.51272,124.41286 100.57539,124.56322 100.63435,124.71635L99.71657,124.69152L100.63435,124.71635L100.7012,124.8943L100.78986,124.8136C100.79265,124.95914 100.86321,125.09157 100.90824,125.21297C100.94259,125.3116 101.0294,125.42265 101.11064,125.43989C101.12921,125.49783 101.1761,125.59095 101.22299,125.61785C101.23645,125.65855 101.23691,125.75166 101.24202,125.83374L101.33301,125.88202C101.36411,125.95928 101.40218,126.04205 101.44164,126.12827L100.20215,126.09585L101.44164,126.12964C101.4876,126.23035 101.53541,126.33864 101.57441,126.44762C101.60876,126.54763 101.7471,126.57315 101.78099,126.68351C101.80142,126.74904 101.84784,126.85595 101.85062,126.97459C102.06927,127.09323 102.20483,127.50432 102.33017,127.71883C102.35013,127.56088 102.32135,127.36706 102.36174,127.22221C102.38402,127.14082 102.46851,127.09185 102.4699,126.98218C102.47083,126.87388 102.4128,127.00218 102.41373,126.89458C102.41512,126.7856 102.4699,126.96079 102.4713,126.85181L102.47919,126.15654L102.47965,126.08067C102.48058,125.97238 102.51215,126.07653 102.53768,126.04136L102.54975,124.95224C102.55021,124.84326 102.58178,124.94879 102.60685,124.91293L102.60824,124.76946L102.61335,124.34595C102.61381,124.23697 102.66859,124.40182 102.66999,124.29284C102.67138,124.18455 102.61289,124.31284 102.61428,124.20455C102.61521,124.09557 102.67138,124.18455 102.67231,124.07557C102.6737,123.96728 102.65884,123.98866 102.62078,123.98107C102.61706,123.92244 102.67277,124.01073 102.67416,123.90244L102.6802,123.38099L102.68113,123.30512C102.68206,123.19683 102.71362,123.30167 102.73916,123.2658L102.74519,122.68779L102.75215,122.09599C102.75262,121.9877 102.78186,122.09047 102.79904,122.05184L102.80368,121.99459L102.80368,121.99459L102.80368,121.99459C102.81111,121.88699 102.81343,121.77732 102.82225,121.66903C102.82225,121.66903 102.86914,121.74146 102.87239,121.63247L102.88399,120.60958L102.97638,120.61233C102.99959,120.57164 102.99494,120.63027 102.99634,120.52198C102.99727,120.41369 102.98287,120.43507 102.94156,120.42058C102.97405,120.35437 102.99819,120.32678 102.99959,120.21849C103.00098,120.10951 102.98705,120.08744 102.94852,120.08054C102.94527,120.02191 103.00191,120.02329 103.00284,119.91431C103.00423,119.80602 102.98984,119.8274 102.94945,119.81567C103.00748,119.62254 103.06597,119.31285 103.06969,119.20456L103.0799,118.26787L103.17692,118.27063C103.24748,118.26925 103.24099,118.40376 103.28973,118.46652C103.29994,118.63827 103.35565,118.7707 103.35843,118.93555C103.4666,119.05626 103.52695,119.24939 103.5237,119.46528L103.62676,119.50391C103.60633,119.7598 103.66622,119.90396 103.78042,120.04122C103.79249,120.07778 103.78135,120.17779 103.79852,120.25435C103.83195,120.39092 103.90483,120.51646 103.94568,120.65855C104.01067,120.86685 104.00325,121.26967 104.21818,121.44348C104.25439,121.62558 104.27296,121.72973 104.32913,121.79801C104.33099,121.88423 104.34399,121.96355 104.36256,122.03736L104.10259,122.03046L104.36256,122.03736C104.42291,122.27532 104.54454,122.46776 104.56078,122.73814L104.56311,122.79539C104.66431,122.96507 104.71909,123.18441 104.82168,123.37685L104.83189,123.44031L102.67973,123.38306L104.83189,123.441C104.876,123.65896 104.99577,123.85485 105.0018,124.11144C105.02083,124.15006 105.07097,124.17627 105.09511,124.25352C105.15128,124.43631 105.20885,124.63978 105.25852,124.84257L102.60824,124.77153L105.25898,124.84119C105.28544,124.9481 105.30912,125.05501 105.33001,125.15917L105.43307,125.19986L105.37922,125.30263C105.51106,125.59854 105.60762,125.91789 105.70046,126.24414C105.76917,126.48487 105.83602,126.72835 105.91447,126.96769C105.93536,127.03391 105.86759,127.20496 105.93861,127.2091L106.07324,127.21186C106.13684,127.01252 106.10666,126.80836 106.16608,126.54349C106.18512,126.45728 106.24593,126.38692 106.2645,126.31726L106.27843,126.26001L106.27843,126.26001C106.31185,126.11654 106.33599,125.95238 106.34667,125.75925L106.44323,125.62337C106.45344,125.39437 106.50404,125.15848 106.51843,124.87637L106.56068,124.87706L106.51936,124.87568L106.52261,124.79498L106.60246,124.87775L106.60292,124.87775L106.60896,124.88051L106.60989,124.87775L107.70175,124.90672L106.60989,124.87775C106.63263,124.80119 106.61406,124.70186 106.64285,124.63841C106.67581,124.56322 106.71805,124.48528 106.73987,124.41562C106.77654,124.3025 106.73523,124.14592 106.76122,124.03832C106.80486,123.84588 106.86567,123.67758 106.91442,123.4948C106.96177,123.31822 106.99798,123.12923 106.99752,122.89403L107.08386,122.89679L107.09454,122.80505L108.14091,122.83333L107.09454,122.80505C107.12332,122.5864 107.16974,122.35947 107.17578,122.11668L107.26305,122.11875L107.26352,122.11461L108.86742,122.15737L108.87114,122.20083C108.87021,122.30981 108.83864,122.23739 108.81404,122.26773C108.8405,122.34223 108.86371,122.37878 108.91292,122.44017C108.93102,122.58916 108.95284,122.72435 108.97884,122.8554C108.99184,122.923 109.00576,122.98921 109.02108,123.05543C109.05079,123.19476 109.07911,123.36513 109.08747,123.55343L106.91488,123.49549L109.08747,123.55412L109.08932,123.61206C109.10836,123.65068 109.13296,123.69 109.18171,123.75208C109.22906,124.11902 109.24716,124.33629 109.34233,124.62668C109.36043,124.68186 109.32887,124.82809 109.34047,124.95224L109.34047,124.95224C109.3479,125.03846 109.37668,125.11364 109.45931,125.1364C109.4621,125.19365 109.405,125.19296 109.40407,125.30125C109.40314,125.40955 109.48299,125.47645 109.50295,125.59095C109.54566,125.83443 109.57444,126.10343 109.59905,126.34967C109.6074,126.43038 109.61437,126.50763 109.62272,126.58074L109.72532,126.62075L109.67193,126.7249C109.72532,126.8863 109.77963,127.10702 109.82141,127.31188C109.83766,127.23807 109.83673,127.15668 109.84694,127.07253C110.04842,126.88699 110.0526,126.56626 110.15519,126.36554L113.30219,126.44969L110.15519,126.36485L110.24572,126.24759L110.18954,126.18L110.52704,125.47576C110.53772,125.39368 110.53864,125.26401 110.54979,125.17779L110.62963,125.14951L110.68952,124.9888C110.73315,124.86602 110.77494,124.72393 110.78376,124.57564C110.89331,124.52805 111.01308,124.31974 111.00937,124.04798C111.04837,124.04246 111.118,124.10868 111.11893,124.00039C111.12078,123.89141 111.10547,123.95693 111.06461,123.94245C111.12543,123.83347 111.20806,123.77415 111.22709,123.67207L111.23777,123.61206C111.27119,123.42513 111.29116,123.23821 111.36636,123.11268C111.40257,123.04991 111.44157,122.98714 111.48056,122.92369C111.53766,122.82919 111.5929,122.73263 111.63654,122.63399C111.68389,122.52639 111.67739,122.36568 111.71453,122.25808L111.72428,122.23532L113.06543,122.27118L111.72335,122.23394C111.75956,122.16772 111.85009,122.12841 111.8668,122.03598C112.00189,121.36071 112.37977,120.81581 112.53343,120.09985L112.62674,120.0564C112.63835,119.84464 112.69916,119.66393 112.76276,119.48873L112.97862,119.49425C112.89135,119.63496 112.88253,119.77774 112.97677,119.84257C112.9777,119.89775 112.92152,119.89637 112.9206,120.00467C112.91967,120.11365 112.97584,120.11502 112.97491,120.22332C112.97305,120.33161 112.91688,120.28677 112.91595,120.39575C112.91502,120.50404 112.93499,120.44128 112.95773,120.45783C112.97398,120.54336 112.90713,120.79926 113.02319,120.88686L113.01158,121.88699C113.01158,121.99597 113.06961,121.85664 113.06776,121.96493L113.06497,122.26842L113.06126,122.5864C113.08586,122.62296 113.11836,122.59606 113.11743,122.70435C113.11557,122.81333 113.0594,122.76849 113.05847,122.87678L113.07286,122.96438L113.16896,123.07198C113.13646,123.13337 113.11093,123.20442 113.11,123.31271C113.10814,123.42169 113.10072,123.44514 113.16339,123.49894L113.16153,123.66241L113.1541,124.32526C113.1541,124.43355 113.21213,124.29422 113.21027,124.40251L113.20377,125.05432L113.20006,125.28263C113.19913,125.39161 113.25716,125.25159 113.25623,125.36057L113.24973,125.89789C113.2488,126.00618 113.3059,125.94755 113.30498,126.05653C113.30405,126.16482 113.24788,126.11999 113.24695,126.22897C113.24509,126.33726 113.30312,126.20897 113.30219,126.31726L113.30033,126.44693L113.29476,126.93596C113.29383,127.04425 113.35186,126.90492 113.35093,127.01321L113.34351,127.63192C113.34258,127.7409 113.40061,127.60088 113.39968,127.70986C113.39782,127.81815 113.34258,127.68641 113.34165,127.7947C113.34072,127.90368 113.39504,127.93886 113.41221,128.01404C113.67404,127.56157 114.00782,127.02977 114.26546,126.47314L116.13398,126.5228C116.12748,126.63178 116.13955,126.75318 116.11773,126.8394C116.05413,127.09805 115.98635,127.22428 115.939,127.53329C115.86008,127.63951 115.77745,127.83884 115.77652,127.94783S115.78999,127.99128 115.83177,128.00645C115.77095,128.11543 115.69482,128.22855 115.66511,128.36443C115.63865,128.48928 115.66882,128.63758 115.64236,128.73966C115.61312,128.85278 115.56994,128.95555 115.54348,129.05763C115.52538,129.12937 115.53002,129.21145 115.53095,129.2887L115.53095,129.28939L115.52166,129.43079C115.48824,129.57701 115.39121,129.69289 115.36475,129.8336L115.33829,129.97914C115.31647,130.10329 115.29558,130.24124 115.29094,130.40609C115.25288,130.41161 115.18324,130.34402 115.18138,130.453C115.18046,130.56129 115.19485,130.49645 115.2357,130.50956L115.18603,130.66958L114.63824,130.65509L115.18603,130.66958C115.14146,130.87995 115.13868,131.14895 115.10339,131.33105L115.09597,131.36209L114.58903,131.34829C114.70323,131.27449 114.71855,131.24966 114.72133,131.0048C114.72226,130.89582 114.72226,130.84753 114.71159,130.76476L114.63824,130.6544L114.61271,130.59233C114.63731,130.56129 114.66981,130.5468 114.67073,130.43713C114.67166,130.36195 114.56303,130.06674 114.5129,130.04535L114.48365,130.2171L114.39916,130.12812C114.31467,130.26745 114.21765,130.49645 114.11737,130.48059L114.08302,130.62474L114.03938,130.63854C113.9795,130.66682 113.93261,130.72338 113.8769,130.72683L113.87226,131.05515C113.92751,131.15516 113.91404,131.25035 113.92101,131.33105L113.11836,131.30967L113.92101,131.33105L113.93447,131.39589C113.95814,131.41658 113.97903,131.39795 113.97811,131.50625C113.97718,131.61523 113.92008,131.61385 113.92379,131.67248C113.99018,131.68075 114.03242,131.70351 114.03335,131.73869L113.97811,131.84767L114.03335,131.93734L114.13687,131.9401C114.17122,131.84698 114.22322,131.85802 114.24364,131.83733C114.28635,131.67523 114.35227,131.51452 114.45208,131.44141C114.50825,131.40002 114.55375,131.37243 114.5881,131.34967L115.09504,131.36347C115.06579,131.46624 114.99801,131.55039 114.99709,131.64902L114.99244,132.05598L114.99059,132.20289C114.98966,132.31118 114.8736,132.50914 114.87267,132.61881L114.90331,132.74849C114.95159,132.88437 115.03747,133.06646 115.03654,133.1444C115.03469,133.25338 114.97295,133.3534 114.91074,133.44513L114.54075,133.43479L114.52822,133.43548L114.52543,133.43548C114.46554,133.44996 114.43676,133.54722 114.39034,133.58653C114.23993,133.71345 114.05378,133.79139 113.87273,133.83553C113.78545,133.85829 113.66522,133.89209 113.53988,133.92934L113.53895,133.92934C113.37043,133.979 113.19356,134.03349 113.0775,134.07487C113.00694,134.09971 112.88717,134.0866 112.77993,134.09143L112.75347,134.16661L112.33288,134.1542C112.26232,134.15557 112.34542,134.24455 112.27485,134.24317L111.8784,134.23214C111.81202,134.23076 111.88119,134.3087 111.83198,134.31698L111.8343,134.31698L111.8343,134.31905zM117.12186,122.37947C117.09214,122.44983 117.05129,122.51329 117.03458,122.58019C116.99837,122.72159 116.97284,122.88506 116.95752,123.0706L116.95288,123.13061C116.93013,123.15337 116.90042,123.24028 116.84843,123.27408L116.90367,123.33823C116.87442,123.48721 116.84657,123.62378 116.81732,123.76173C116.7839,123.91762 116.75001,124.0735 116.71473,124.2487C116.69941,124.33492 116.64695,124.41631 116.61399,124.48597C116.58149,124.55564 116.60656,124.69565 116.5931,124.7736C116.57128,124.79498 116.54157,124.8812 116.49608,124.91568C116.49422,124.99501 116.48679,125.07019 116.47797,125.1433L115.05465,125.10537C115.19717,124.83912 115.34108,124.56046 115.49149,124.26249L115.56762,124.23973C115.59408,124.1342 115.65397,124.00108 115.71107,123.89485L115.65768,123.82381L115.74496,123.91003L115.77235,123.73414L116.81779,123.76173L115.77235,123.73345L115.77884,123.66724C115.85869,123.58654 115.90465,123.62171 115.95386,123.4072L116.03278,123.38099C116.08338,123.26304 116.1363,123.15406 116.19061,123.04922C116.31503,122.81057 116.4464,122.59606 116.56803,122.3643C116.66134,122.18565 116.74954,121.99666 116.82289,121.7787L116.90274,121.75249C117.04433,121.47314 117.21656,121.21862 117.33819,120.91031L117.43985,121.00273L117.43799,121.16482C117.399,121.16896 117.37625,121.25311 117.32565,121.2876L117.38089,121.35313C117.32287,121.54626 117.20867,121.79457 117.20681,121.90286C117.20542,122.01184 117.21981,121.94769 117.26159,121.96149C117.18267,122.10771 117.18731,122.19531 117.133,122.35119L117.12186,122.37947zM116.47936,125.1433C116.45197,125.34057 116.4023,125.51991 116.35867,125.71786C116.29971,125.97721 116.17994,126.19931 116.14187,126.46486L116.13537,126.52487L114.26686,126.47521L114.33835,126.31726C114.4869,126.34002 114.44605,126.07446 114.50779,125.9779C114.57557,125.87168 114.68002,125.70476 114.77704,125.66958C114.7854,125.6344 114.7854,125.55508 114.78958,125.45369L114.87685,125.43714C114.93674,125.32953 114.99569,125.21917 115.05558,125.10675L116.47936,125.1433zM107.26352,122.11323C107.28905,121.9539 107.36426,121.78767 107.39397,121.65386C107.42043,121.5297 107.39675,121.38899 107.41578,121.27587C107.46871,120.97307 107.53045,120.85513 107.59451,120.49853C107.60983,120.41162 107.64558,120.31712 107.65672,120.23021C107.68457,120.21435 107.71103,120.12951 107.75328,120.09502C107.76396,119.88741 107.82291,119.67359 107.82988,119.43976L107.91715,119.44183C107.94129,119.3225 107.99793,119.24387 107.99885,119.13489C107.99978,119.0266 107.98539,119.09144 107.94454,119.07833C108.0035,118.92728 108.09449,118.87003 108.06524,118.57826L108.17062,118.58102C108.22772,118.94038 108.30107,119.32526 108.37859,119.64806C108.40598,119.75773 108.36559,119.90879 108.39206,120.0295C108.44219,120.25918 108.54571,120.5006 108.59399,120.69717C108.67848,121.06343 108.68359,121.48211 108.76808,121.86492C108.78897,121.95528 108.85257,122.06012 108.86789,122.15737L107.26352,122.11323zM97.25245,117.67469C97.37872,117.76367 97.53284,117.83609 97.62383,117.95818C97.72875,118.10233 97.8397,118.2458 97.94136,118.37341C97.98314,118.42928 98.08388,118.39548 98.1433,118.49135L98.13587,119.13972C98.13541,119.2487 98.15027,119.17352 98.18833,119.18041C98.19205,119.23904 98.13587,119.19421 98.13309,119.3025L98.12613,119.94466C98.06253,119.99432 98.02724,120.03915 97.95622,120.03708C97.88566,120.03501 97.87962,120.03294 97.85409,120.01087C97.80395,119.83568 97.60201,119.73152 97.51752,119.65358L97.50128,119.53908C97.45903,119.49908 97.43907,119.41424 97.36851,119.41286C97.29701,119.41079 97.32487,119.49839 97.28819,119.49356C97.23945,119.26939 97.19349,119.25491 97.11875,119.22387L97.12943,118.28167C97.16796,118.27753 97.18189,118.2996 97.18374,118.19062C97.18467,118.08233 97.17028,118.10302 97.12896,118.08854C97.161,118.02232 97.19442,117.93197 97.24549,117.89886L97.19164,117.83678L97.25245,117.67469zM118.16451,118.06578L118.32235,118.06992C118.3242,118.21752 118.31585,118.34995 118.32792,118.4748C118.3632,118.82312 118.4268,119.17076 118.48483,119.52529L118.53125,119.62875L118.46487,119.54667C118.24436,119.79705 117.93425,120.14468 117.72396,120.47921L117.56705,120.47507C117.51088,120.06881 117.40457,119.36596 117.4055,119.25698C117.40736,119.14869 117.40736,119.10178 117.4171,119.01763C117.67243,118.74794 117.93008,118.40858 118.16451,118.06578zM113.36393,116.54212L113.45446,116.54419C113.52502,116.54488 113.46699,116.69249 113.47256,116.77457C113.4916,116.81388 113.51713,116.8532 113.56587,116.91596C113.57562,117.08771 113.64108,117.20842 113.6745,117.35603C113.71164,117.50363 113.69818,117.66779 113.79149,117.78091L113.78917,118.02439C113.60069,118.01405 113.61787,118.27408 113.55427,118.45549C113.51806,118.45756 113.46374,118.45618 113.41268,118.46238C113.35093,118.62723 113.16246,118.8652 113.03387,119.05212C112.83611,118.97073 113.06822,118.58102 112.82914,118.6093C112.76926,118.33547 112.66156,117.84782 112.66248,117.73884C112.66573,117.45121 113.29383,116.66628 113.36393,116.54212zM102.60221,115.38679L102.7619,115.39162C102.8631,115.58682 103.02141,115.88893 103.20245,116.0255C103.21406,116.15517 103.29298,116.2745 103.36958,116.37934C103.38072,116.4628 103.38025,116.51039 103.37933,116.61937C103.377,116.84768 103.28137,116.97459 103.36726,117.22083L103.22195,117.21739C103.19781,117.26015 103.20245,117.20152 103.20153,117.3105C103.20013,117.41879 103.21452,117.39741 103.25584,117.41189C103.19503,117.52088 103.16903,117.6402 103.13375,117.82781L102.92624,117.82161C102.85568,117.82161 102.85753,117.674 102.84918,117.59261C102.78883,117.4988 102.60917,117.37189 102.62588,117.23808C102.54372,117.16427 102.3,116.79112 102.30092,116.72008C102.30185,116.61179 102.43277,116.39175 102.46619,116.21932C102.48894,116.09447 102.47594,115.96135 102.48801,115.84202C102.50797,115.67441 102.64724,115.62337 102.60221,115.38679zM104.21633,128.98521L107.69339,129.07971C107.66229,129.14592 107.63119,129.208 107.60983,129.27421C107.56991,129.39768 107.57826,129.63082 107.43296,129.59909C107.42739,129.6591 107.48449,129.61702 107.4831,129.726L107.47846,129.76877L104.6982,129.69496L107.47846,129.76945C107.46453,129.82395 107.42553,129.80808 107.4246,129.89844C107.42228,130.09157 107.54855,130.27435 107.64651,130.46955L105.28359,130.40609L107.64651,130.46955C107.71382,130.60405 107.76767,130.74476 107.75746,130.89996C107.82477,130.90892 107.87073,130.94686 107.91251,130.9979L108.00628,130.55922L108.09588,130.56129L108.08799,130.48197C108.09216,130.36471 108.15251,130.22676 108.19894,130.20331L108.237,130.06053L108.3266,130.04811L108.32938,129.80325L108.31778,129.79222L108.31731,129.79222C108.26625,129.74531 108.24629,129.71083 108.22168,129.64116L108.27507,129.53701C108.237,129.52942 108.15808,129.52942 108.10656,129.49356L108.10888,129.27215C108.01232,129.2687 107.984,129.18455 107.97332,129.08729C107.96218,128.98935 107.96914,128.8783 107.93897,128.82933L107.78252,128.8245C107.76349,128.92382 107.72867,129.00452 107.69386,129.07971L104.21633,128.98521zM100.92263,130.98273L100.92263,130.98273L100.95049,131.04549L100.89571,131.14827C100.9607,131.17379 100.98762,131.22966 101.00991,131.32898L101.09672,131.24483C101.119,131.32415 101.11668,131.4014 101.11993,131.50349C101.158,131.51107 101.13107,131.42348 101.20163,131.42417L101.26709,131.42623L101.29634,131.57936C101.34369,131.60902 101.38036,131.64902 101.411,131.69179L100.56332,131.66972L101.411,131.69248L101.51731,131.86492L101.78935,131.87319L101.79074,131.7449L101.78517,131.70282L114.99662,132.05805L101.78424,131.70144L101.76288,131.70144L101.76242,131.70144L101.74478,131.70075L101.74432,131.70075L101.73689,131.6573C101.73782,131.54832 101.79492,131.50625 101.79631,131.39795S101.74153,131.24414 101.74246,131.13585L101.77217,131.00618L104.56682,131.08136L104.62717,131.16551L104.61649,131.08274L104.61649,131.08205C104.61324,130.91306 104.73348,130.82132 104.74926,130.74752C104.70934,130.73648 104.69495,130.75856 104.69587,130.64958S104.7488,130.51576 104.798,130.45369L104.81054,130.39161C104.82725,130.27435 104.80961,130.14537 104.87321,129.97845C104.81611,129.87292 104.76133,129.78256 104.69866,129.69358C104.63924,129.60874 104.57285,129.52528 104.49115,129.42941C104.48233,129.49218 104.45355,129.51287 104.45355,129.51287C104.42337,129.43355 104.48279,129.40527 104.48279,129.35354C104.4243,129.25766 104.34028,129.16799 104.26693,129.07695C104.2906,129.2549 104.17873,129.32457 104.15273,129.35216C104.14298,129.43631 104.14855,129.56874 104.12998,129.64944L104.12348,129.6791C104.08495,129.84257 104.02042,130.01018 103.96425,130.26814C104.00418,130.30953 104.06035,130.33988 104.1128,130.37299L101.51406,130.30263C101.34322,130.12468 101.15057,130.03225 100.96766,129.85636L100.96302,130.28884L100.95884,130.61923C100.95374,130.72821 100.8971,130.74338 100.89571,130.85098C100.89478,130.92134 100.90685,130.951 100.92263,130.98273zM111.21038,131.26069L111.21224,131.34415L111.31576,131.26276L111.31669,131.26276C111.39282,131.19172 111.45828,131.11654 111.53348,131.07377C111.59708,130.89582 111.69132,130.74614 111.76931,130.5806L111.80459,130.50128L111.89233,130.49024L111.89697,130.07088C111.83059,130.03501 111.81156,129.96534 111.80366,129.88602L115.34061,129.98121L111.80366,129.88533C111.79624,129.80532 111.80088,129.71634 111.77999,129.64668C111.74935,129.54322 111.68111,129.42596 111.67925,129.28042L111.57294,129.27766L111.51491,129.43631C111.55298,129.44389 111.56737,129.42182 111.56552,129.5308C111.56459,129.63978 111.56923,129.58046 111.54834,129.61771C111.50099,129.57495 111.49495,129.52942 111.42393,129.52666C111.35336,129.52528 111.29626,129.61081 111.22895,129.61564L111.28234,129.75083C111.24056,129.77842 111.19785,129.83774 111.15282,129.86809L111.15235,129.86809L111.11986,129.88395C111.10732,130.0157 111.05347,130.13157 110.99637,130.22262L110.99544,130.32746L111.0934,130.41782L111.12264,130.56198C111.16674,130.79097 111.20202,131.01997 111.21038,131.26069zM104.11234,130.37299C104.21076,130.43644 104.29803,130.51163 104.24975,130.69441C104.36767,130.79511 104.46283,130.93306 104.56728,131.08136L101.77263,131.00618L101.80234,130.8765C101.80467,130.64268 101.70161,130.44541 101.58973,130.39437C101.55305,130.49093 101.53077,130.52404 101.48435,130.56474C101.46485,130.48817 101.52241,130.55922 101.52288,130.45024L101.52427,130.31574L101.51359,130.30401L104.11234,130.37299zM100.71512,132.36705L105.34254,132.49259L105.3263,132.49397L104.85418,132.48017C104.76365,132.59053 104.57518,132.52363 104.5139,132.57674C104.50368,132.61605 104.55568,132.6464 104.48512,132.64502L104.00185,132.63123C103.91133,132.74159 103.72285,132.67468 103.66158,132.72779C103.65183,132.76711 103.69268,132.79677 103.62212,132.7947C103.55109,132.79332 103.63744,132.70848 103.56594,132.70641C103.49538,132.70434 103.52277,132.79194 103.49445,132.79125C103.4095,132.78918 103.29484,132.78642 103.20942,132.79953L103.17599,132.8554C102.98287,132.86505 102.80647,132.89885 102.64631,132.95403C102.57157,132.97955 102.49404,133.01542 102.4193,133.03473L102.17512,133.10371L102.11663,133.12095C102.28932,133.27338 102.43926,133.25131 102.66163,133.30028C102.6867,133.33132 102.63749,133.37685 102.70898,133.37892C102.77954,133.38099 102.69552,133.29201 102.76654,133.29339C102.83711,133.29615 102.75123,133.3803 102.82225,133.38237L103.17321,133.39202C103.24377,133.3934 103.20431,133.461 103.20431,133.461C103.28694,133.48169 103.37236,133.48445 103.4536,133.49617C103.47821,133.52652 103.41878,133.57274 103.48981,133.57412L103.8403,133.58377C103.90622,133.58653 103.83659,133.65895 103.88348,133.67137L103.8844,133.67137L103.89601,133.67275L104.2465,133.68241C104.31706,133.68379 104.27807,133.75138 104.27807,133.75138C104.3607,133.77207 104.44612,133.77414 104.52736,133.78656L104.59792,133.85898C104.60303,133.80104 104.61742,133.77966 104.68798,133.78104C104.75855,133.7838 104.71862,133.86933 104.78965,133.8714L105.36668,133.88657C105.43771,133.88864 105.35136,133.97279 105.42286,133.97486L106.21576,133.99624C106.28678,133.99762 106.25754,134.08384 106.29607,134.07901C106.30071,134.02038 106.258,133.99762 106.32949,133.999L106.73523,134.00935C106.75797,134.04866 106.7394,134.09764 106.81043,134.09971S106.91024,134.01556 106.98173,134.01694C107.05229,134.019 107.09825,134.05763 107.14189,134.10729C107.15117,134.04384 107.16557,134.02245 107.23659,134.02452S107.30623,134.11281 107.37725,134.11488C107.44782,134.11695 107.39257,134.02866 107.46314,134.03073C107.53416,134.03211 107.53323,134.11971 107.60426,134.12109C107.67482,134.12385 107.66554,134.03625 107.7361,134.03832L108.82332,134.06729C108.89389,134.06936 108.80986,133.97969 108.88089,133.98245L109.73089,134.00521C109.80145,134.00659 109.71742,133.91761 109.78799,133.91899C109.85948,133.92175 109.7736,134.00659 109.84416,134.00797C109.91472,134.01004 109.8307,133.92037 109.90219,133.92313L110.35574,133.93554C110.42537,133.93692 110.34228,133.84795 110.41284,133.85002L110.75265,133.85898L110.76426,133.85898L110.81579,133.85967L110.76426,133.85829C110.813,133.85002 110.74337,133.77138 110.80975,133.77414C110.87614,133.77552 110.80604,133.84864 110.85339,133.86036L110.85432,133.86036L110.86592,133.86243L110.87753,133.86174L111.54416,133.87899L110.87753,133.86174C110.92627,133.85346 110.85664,133.77552 110.92302,133.7769L111.31994,133.78794C111.3905,133.79001 111.30648,133.70034 111.37797,133.70172L111.90672,133.7162C111.99121,133.60446 112.18712,133.67206 112.24329,133.6155C112.25582,133.58515 112.24422,133.55204 112.31478,133.55342C112.38534,133.55618 112.38441,133.6424 112.4183,133.6424C112.50186,133.53204 112.69498,133.57894 112.7493,133.54791C112.83889,133.4941 112.93174,133.40858 113.00044,133.39823L113.57516,133.41409L113.00044,133.39823L113.01391,133.39823L113.44099,133.40927C113.53152,133.28787 113.6304,133.34374 113.73578,133.17199C113.35697,133.06025 112.99069,132.96369 112.62488,132.85195C112.59935,132.82574 112.65924,132.78021 112.58867,132.77883L112.23865,132.76918C112.16808,132.76711 112.25304,132.68296 112.18247,132.68089S112.19594,132.7678 112.12537,132.76642C112.05481,132.76435 112.09613,132.734 112.08081,132.69262C112.03624,132.68296 111.99028,132.67882 111.94479,132.67399L111.942,132.67399L111.83337,132.65675C111.80784,132.63123 111.86866,132.58639 111.79809,132.58432L111.16442,132.56777C111.09293,132.5657 111.17881,132.48086 111.10825,132.47948L110.1914,132.45465C110.11991,132.45258 110.17051,132.36774 110.09995,132.36498L107.19945,132.28704C107.12843,132.28566 107.21245,132.37464 107.14189,132.37257L106.23525,132.34774C106.16469,132.34636 106.24825,132.43534 106.17723,132.43396C106.10666,132.4312 106.19254,132.34705 106.12152,132.34498C106.05096,132.3436 106.13498,132.43258 106.06395,132.43051L105.38386,132.41258C105.3198,132.41051 105.38247,132.48431 105.34254,132.49604L100.71512,132.36705z" id="svg_31" fill="#9b9393" stroke="null" style="pointer-events:inherit"/></g><g id="svg_34" type="text" text="12.06.16" font-size="NaN" font-family="Cherryswash" fill="000000" text-anchor="start" font-weight="normal" font-style="normal" lineHeight="1" shapeId="0" shapeVal="0" display="null" elemBBoxWidth="0" stroke="null" style="pointer-events:inherit"/><g id="svg_1" type="text" text="12.06.16" font-size="21.737342665767926" font-family="Enigmatic" fill="651a9c" text-anchor="start" font-weight="normal" font-style="normal" lineHeight="1" shapeId="0" shapeVal="0" display="null" elemBBoxWidth="81.81694793701172" stroke="null" fill-opacity="1" style="pointer-events:inherit"><path id="svg_8" fill="#651a9c" stroke-width="0" d="M63.11876,183.07437C63.11876,183.07437 63.11876,184.88582 63.11876,184.88582C63.11876,184.88582 65.71516,184.88582 65.71516,184.88582C65.71516,184.88582 65.71516,198.04898 65.71516,198.04898C65.71516,198.04898 67.94928,198.04898 67.94928,198.04898C67.94928,198.04898 67.94928,181.74598 67.94928,181.74598C67.94928,181.74598 65.71516,181.74598 65.71516,181.74598C65.71516,182.6517 64.86982,183.07437 63.11876,183.07437C63.11876,183.07437 63.11876,183.07437 63.11876,183.07437M79.301,188.44833C81.47473,188.2068 81.41435,186.99917 81.35397,184.88582C81.35397,183.79895 80.32748,183.3159 78.21413,183.3159C75.13467,183.3159 74.89315,184.16124 75.07429,186.69726C75.07429,186.69726 72.7798,186.69726 72.7798,186.69726C72.41751,182.77246 73.44399,181.50445 78.21413,181.50445C83.2258,181.50445 84.01076,182.95361 83.64847,187.18031C84.01076,189.23328 79.9652,190.19939 77.12726,190.44091C74.04781,190.62206 75.31582,193.58075 75.07429,196.23754C75.07429,196.23754 83.64847,196.23754 83.64847,196.23754C83.64847,196.23754 83.64847,198.04898 83.64847,198.04898C83.64847,198.04898 72.7798,198.04898 72.7798,198.04898C72.7798,198.04898 72.7798,191.70893 72.7798,191.70893C72.41751,189.65596 76.46307,188.75023 79.301,188.44833C79.301,188.44833 79.301,188.44833 79.301,188.44833M87.93555,198.10937C88.66013,198.10937 89.02242,197.74708 89.02242,196.96212C89.02242,196.17716 88.66013,195.75449 87.93555,195.75449C87.21098,195.75449 86.78831,196.17716 86.78831,196.96212C86.78831,197.74708 87.21098,198.10937 87.93555,198.10937C87.93555,198.10937 87.93555,198.10937 87.93555,198.10937M98.44194,194.90915C98.44194,195.99601 97.53621,196.47907 95.78515,196.47907C94.03409,196.47907 93.12836,195.99601 93.12836,194.90915C93.12836,194.90915 93.12836,184.88582 93.12836,184.88582C93.12836,183.79895 94.03409,183.3159 95.78515,183.3159C97.53621,183.3159 98.44194,183.79895 98.44194,184.88582C98.44194,184.88582 98.44194,194.90915 98.44194,194.90915C98.44194,194.90915 98.44194,194.90915 98.44194,194.90915M100.67605,184.46315C100.67605,182.53094 99.04575,181.50445 95.78515,181.50445C92.52455,181.50445 90.89425,182.53094 90.89425,184.46315C90.89425,184.46315 90.89425,195.33182 90.89425,195.33182C90.89425,197.26402 92.52455,198.29051 95.78515,198.29051C99.04575,198.29051 100.67605,197.26402 100.67605,195.33182C100.67605,195.33182 100.67605,184.46315 100.67605,184.46315C100.67605,184.46315 100.67605,184.46315 100.67605,184.46315M103.03093,195.33182C103.03093,195.33182 103.03093,184.46315 103.03093,184.46315C103.03093,182.53094 104.84238,181.50445 108.46527,181.50445C113.2354,181.50445 114.32227,182.71208 113.8996,186.69726C113.8996,186.69726 111.6051,186.69726 111.6051,186.69726C111.78625,184.22162 111.6051,183.3159 108.46527,183.3159C103.93665,183.3159 105.62733,186.39535 105.32543,189.65596C105.32543,188.44833 106.7142,187.84451 109.61251,187.84451C114.68456,187.84451 113.8996,191.10511 113.8996,195.33182C113.8996,197.26402 112.08816,198.29051 108.46527,198.29051C104.84238,198.29051 103.03093,197.26402 103.03093,195.33182C103.03093,195.33182 103.03093,195.33182 103.03093,195.33182M108.46527,189.65596C104.48009,189.65596 105.38581,191.82969 105.32543,194.90915C105.32543,195.99601 106.35191,196.47907 108.46527,196.47907C112.51083,196.47907 111.48434,194.36571 111.6051,191.28626C111.6051,190.19939 110.57862,189.65596 108.46527,189.65596C108.46527,189.65596 108.46527,189.65596 108.46527,189.65596M118.18669,198.10937C118.91127,198.10937 119.27355,197.74708 119.27355,196.96212C119.27355,196.17716 118.91127,195.75449 118.18669,195.75449C117.46211,195.75449 117.03944,196.17716 117.03944,196.96212C117.03944,197.74708 117.46211,198.10937 118.18669,198.10937C118.18669,198.10937 118.18669,198.10937 118.18669,198.10937M123.62102,183.07437C123.62102,183.07437 123.62102,184.88582 123.62102,184.88582C123.62102,184.88582 126.21743,184.88582 126.21743,184.88582C126.21743,184.88582 126.21743,198.04898 126.21743,198.04898C126.21743,198.04898 128.45154,198.04898 128.45154,198.04898C128.45154,198.04898 128.45154,181.74598 128.45154,181.74598C128.45154,181.74598 126.21743,181.74598 126.21743,181.74598C126.21743,182.6517 125.37209,183.07437 123.62102,183.07437C123.62102,183.07437 123.62102,183.07437 123.62102,183.07437M133.28206,195.33182C133.28206,195.33182 133.28206,184.46315 133.28206,184.46315C133.28206,182.53094 135.09351,181.50445 138.7164,181.50445C143.48654,181.50445 144.57341,182.71208 144.15073,186.69726C144.15073,186.69726 141.85624,186.69726 141.85624,186.69726C142.03738,184.22162 141.85624,183.3159 138.7164,183.3159C134.18779,183.3159 135.87847,186.39535 135.57656,189.65596C135.57656,188.44833 136.96534,187.84451 139.86365,187.84451C144.93569,187.84451 144.15073,191.10511 144.15073,195.33182C144.15073,197.26402 142.33929,198.29051 138.7164,198.29051C135.09351,198.29051 133.28206,197.26402 133.28206,195.33182C133.28206,195.33182 133.28206,195.33182 133.28206,195.33182M138.7164,189.65596C134.73122,189.65596 135.63694,191.82969 135.57656,194.90915C135.57656,195.99601 136.60305,196.47907 138.7164,196.47907C142.76196,196.47907 141.73547,194.36571 141.85624,191.28626C141.85624,190.19939 140.82975,189.65596 138.7164,189.65596C138.7164,189.65596 138.7164,189.65596 138.7164,189.65596" stroke="null" style="pointer-events:inherit"/><rect id="svg_9" x="63.118751525878906" y="181.50396728515625" width="81.81694429153609" height="16.786044533888045" fill="#651a9c" opacity="0" stroke="null" style="pointer-events:inherit"/></g></g><defs><mask id="canvasMaskImageDef" maskUnits="objectBoundingBox" x="0" y="0"><image xmlns:xlink="http://www.w3.org/1999/xlink" id="canvasMaskImage" preserveAspectRatio="none" x="-103.65" y="-36.45" width="400" height="440.0580551523948" xlink:href="http://allinonedesigner.designnbuy.in/media/catalog/product/w/h/white-tees-1_-front_1_3.png"/></mask></defs></svg>