<?xml version="1.0" encoding="utf-8"?>
<!-- Generator: Adobe Illustrator 16.0.0, SVG Export Plug-In . SVG Version: 6.00 Build 0)  -->
<!DOCTYPE svg PUBLIC "-//W3C//DTD SVG 1.1//EN" "http://www.w3.org/Graphics/SVG/1.1/DTD/svg11.dtd">
<svg version="1.1" id="Layer_1" xmlns="http://www.w3.org/2000/svg" xmlns:xlink="http://www.w3.org/1999/xlink" x="0px" y="0px"
	 width="217.111px" height="307.716px" viewBox="41.443 -3.997 217.111 307.716"
	 enable-background="new 41.443 -3.997 217.111 307.716" xml:space="preserve">
<path fill="none" stroke="#000000" stroke-width="10" d="M59.549,298.463c-11.185,2.513-19.808-14.3-5.94-16.129
	c12.203,0.23-3.035-11.95,7.98-16.053c12.67-12.365,25.237-25.261,33.357-41.176c-4.091-5.426-10.843-10.608-9.961-18.031
	c7.964-2.712,19.828-0.874,20.3-13.445c7.242-22.689,9.174-46.68,10.762-70.313c-7.993-6.336-24.451-0.333-35.621-3.561
	c-16.945-4.574,6.319-13.333,13.781-12.611c6.705,0.01,16.633-4.122,5.411-7.28c9.467-0.437,23.083-12.445,7.515-16.774
	c11.542-8.286,2.648-26.319-2.171-36.689C97.696,33.876,85.75,24.807,72.247,19.971c-2.187-12.77,18.634-8.996,27.079-9.658
	c12.787,0.487,25.826-0.153,36.967-7.115c15.052-6.965,27.849,4.659,41.62,7.116c13.928,0.897,28.416-2.506,41.978,1.44
	c4.202,2.989,11.188,7.71,2.774,9.976c-16.067,8.944-31.073,22.157-35.101,40.926c-6.077,10.441,4.695,19.5-5.154,26.988
	c-0.103,8.81,22.856,10.041,10.004,14.378c8.809,4.775,27.699,1.764,29.626,12.37c-7.996,6.291-19.209,3.808-28.79,4.396
	c-3.248,1.107-11.413-2.702-10.17,2.897c-0.637,25.088,5.879,49.755,12.181,73.833c0.008,11.796,29.095,5.108,12.927,18.496
	c-11.942,10.282,5.567,24.685,11.633,33.83c8.251,10.032,22.897,15.11,21.675,29.836c8.405,0.605,18.402,13.691,6.781,16.952
	C185.387,297.95,122.449,298.858,59.549,298.463L59.549,298.463z"/>
</svg>
