<?xml version="1.0" encoding="utf-8"?>
<!-- Generator: Adobe Illustrator 15.1.0, SVG Export Plug-In . SVG Version: 6.00 Build 0)  -->
<!DOCTYPE svg PUBLIC "-//W3C//DTD SVG 1.1//EN" "http://www.w3.org/Graphics/SVG/1.1/DTD/svg11.dtd">
<svg version="1.1" id="Layer_1" xmlns="http://www.w3.org/2000/svg" xmlns:xlink="http://www.w3.org/1999/xlink" x="0px" y="0px"
	 width="100px" height="100px" viewBox="0 0 100 100" enable-background="new 0 0 100 100" xml:space="preserve">
<path d="M55.113,39.038c-0.194,0.265-0.542-0.01-1.365-0.31c-0.823-0.301-4.355-0.271-6.021,0.869
	c-0.539,0.037-5.45-0.237-6.331-0.311c-0.883-0.074-2.532-1.1-3.353-1.054c-3.268,0.164-8.135-0.6-9.251-0.746
	c-1.114-0.147-5.27,0.228-5.834,0.372c-0.564,0.146-3.408,1.631-3.662,1.725c-0.255,0.096-0.233,0.57,0.496,0.386
	c0.729-0.184,1.893-0.813,2.111-0.559c0.219,0.254-1.595,1.481-1.986,1.925c-0.393,0.444-0.025,1.277,0.682,0.558
	c0.707-0.719,1.695-1.522,1.985-1.8c0.293-0.278,1.308-0.109,1.056,0.123c-0.25,0.233-1.316,1.242-1.614,1.553
	c-0.298,0.311,0.117,0.699,0.615,0.249c0.499-0.45,1.537-1.667,1.807-1.738c0.27-0.072,2.272-0.049,2.917-0.559
	c0.645-0.509,11.851,2.966,12.726,2.979c0.875,0.015,8.474-0.06,10.368,0.25c1.891,0.309,2.526,6.167,3.76,8.125
	c0.095,0.331-0.002,2.124-0.284,2.305c-0.284,0.179-5.358,1.84-6.208,4.159c-0.207,0.43-13.073,4.071-15.519,3.91
	c-2.446-0.159-3.672-1.439-5.897-1.676c-2.226-0.235-13.113,2.259-13.906,2.235c-0.792-0.023-2.385-1.509-2.917-1.551
	c-0.533-0.044-0.746,0.753-1.863,0.868c-1.117,0.113-5.707-0.43-6.891,0.994c-0.326,0.539-0.512,1.134,0.124,1.985
	c0.637,0.85,9.703,1.129,10.243,0.869c0.541-0.261,0.839-0.467,1.49-0.622c0.652-0.152,14.068-0.041,14.774,0.312
	c0.706,0.352,3.042,0.669,3.972,0.993c0.932,0.324,16.244,0.053,18.811,0.186c1.509,1.8,4.145,2.217,7.946,3.354
	c3.8,1.136,11.128,1.677,11.918,1.738c0.791,0.061,4.674,3.156,6.147,3.661c1.47,0.506,10.299,1.16,11.607,1.738
	c1.308,0.581,1.322,2.33,1.737,2.979c0.416,0.651,1.587-0.541,3.537-0.807c1.953-0.265,3.598,1.007,4.287,0.794
	c0.925-0.394,2.589,0.03,2.171-1.229c-1.214-0.191-2.709-1.119-6.687-3.076c-1.716-0.831-3.55-0.785-4.55-0.958
	c-1.001-0.174-11.358-4.16-14.525-7.016c-0.518-0.468-4.715-1.252-6.643-2.67c-0.821-0.636-3.6-2.325-6.705-2.67
	c-0.156-0.29,2.898-8.118,3.228-9.248c0.332-1.13,1.9-2.972,2.112-4.347c0.211-1.375-1.475-4.275-1.553-4.532
	c-0.079-0.254,0.584-1.952,0.993-2.296c0.408-0.344,3.549-5.116,4.364-7.505c0.183-0.328,5.226-8.061,5.693-10.249
	c0.106-0.59,0.322-0.706,0.682-1.056c0.36-0.35,1.905,0.467,2.236,0.497c0.329,0.029,1.256,0.457,1.427,0.62
	c0.171,0.165,0.407-0.311,0.062-0.496c-0.344-0.185-1.602-0.899-1.365-1.056c0.235-0.156,1.236,0.234,1.551,0.31
	c0.315,0.077,0.383-0.217,0.063-0.372c-0.322-0.155-1.135-0.483-1.241-0.622c-0.107-0.137,0.256-0.59,0.992-0.806
	c0.17-0.086,0.352-0.598-0.434-0.373c-0.787,0.225-3.135,0.278-3.787,0.373c-0.653,0.095-1.279,1.039-1.676,1.987
	c-0.396,0.947-4.067,4.942-4.519,5.531c-0.452,0.588-1.041,2.463-1.193,2.911c-0.15,0.448-2.361,4.533-2.918,4.966
	c-0.555,0.434-2.488,1.039-2.979,2.42c-0.205,0.671-0.318,1.012-0.684,1.491c-0.366,0.479-1.416,0.47-1.675,0.248
	c-0.263-0.222-1.138-0.977-1.057-2.421c0.039-0.761,0.058-1.49,0.621-1.925c0.563-0.434,1.407-0.402,1.676-0.745
	c0.477-0.58-0.223-1.069,0.063-1.799c0.013-0.339-0.187-0.374-0.187-0.374s0.067-0.329,0-0.496c-0.068-0.166-0.587-0.36-0.497-0.744
	c0.043-0.18,0.32-0.657,0.187-0.745c-0.133-0.09-1.663-0.592-1.924-0.932c-0.262-0.339-0.25-0.807-0.25-0.807
	s-0.635-1.226-1.489-1.615c-0.853-0.388-1.998-0.238-3.234,0.175c-1.237,0.412-2.845,1.537-3.345,2.991
	c-0.5,1.456,0.469,3.327,0.56,3.54c0.089,0.211-0.69-0.416-1.119,0.124c-0.427,0.54,0.578,1.921,0.685,2.049
	c0.106,0.126-0.059,1.303,0.806,1.428c0.864,0.125,1.22-1.068,1.738-0.994C54.877,37.064,55.31,38.773,55.113,39.038z"/>
</svg>
