<?xml version="1.0" encoding="utf-8"?>
<!-- Generator: Adobe Illustrator 16.0.0, SVG Export Plug-In . SVG Version: 6.00 Build 0)  -->
<!DOCTYPE svg PUBLIC "-//W3C//DTD SVG 1.1//EN" "http://www.w3.org/Graphics/SVG/1.1/DTD/svg11.dtd">
<svg version="1.1" id="Layer_1" xmlns="http://www.w3.org/2000/svg" xmlns:xlink="http://www.w3.org/1999/xlink" x="0px" y="0px"
	 width="100px" height="100px" viewBox="0 0 100 100" enable-background="new 0 0 100 100" xml:space="preserve">
<path fill="#010101" d="M98.041,57.189c-0.311-1.299-1.074-2.358-1.35-3.602c-0.125-0.566,0.646-1.581,0.5-2.227
	c-0.105-0.469-0.467-0.703-0.674-1.055c-0.264,0.021-0.529,0.039-0.791,0.059c-0.057,0.094-0.111,0.162-0.06,0.293
	c0.091,0.152,0.465,0.326,0.646,0.38c0.104,0.637-1.219,1.496-1.496,1.963c0.088,0.239,0.338,0.505,0.472,0.731
	c0.407,0.703,0.595,1.611,0.438,2.668c-0.039-0.021-0.078-0.041-0.117-0.062c-0.293,0.019-0.832-1.012-1.144-1.171
	c-0.282-0.049-0.565-0.098-0.848-0.146c-0.706-0.162-1.468-0.412-1.847-0.906c-0.354,0.033-0.519,0.218-0.938,0.232
	c-0.128-0.125-0.461-0.438-0.352-0.762c0,0,1.311-1.488,1.317-1.492c0.245-0.14,0.478-0.216,0.556-0.499
	c-0.019-0.265-0.039-0.526-0.06-0.79c0.17-0.813,0.188-1.305,0.558-1.875c-0.004-0.511-0.268-0.446-0.41-0.732
	c-0.211-0.425-0.121-0.834-0.379-1.172c-0.34-0.441-0.828-0.506-1.438-0.702c-0.339-0.206-0.684-0.41-1.021-0.615
	c-1.026-0.227-3.004,0.834-3.371,1.317c-1.271,1.68-0.795,3.287,0,5.07c0.316,0.708,0.578,0.468,0.646,1.64
	c-0.067,0.06-0.136,0.115-0.206,0.177c-0.398-0.039-0.8-0.079-1.199-0.117c-0.187,0.056-0.442,0.113-0.732,0.117
	c-0.268,0.003-0.506-0.097-0.73,0c-0.229,0.094-0.308,0.337-0.469,0.497c-0.275,0.215-0.547,0.429-0.82,0.645
	c-0.293,0.352-0.589,0.701-0.879,1.055c-0.527,0.353-1.055,0.703-1.582,1.054c-0.34,0.122-0.671-0.271-0.879-0.408
	c-0.748-0.5-1.49-1.099-2.08-1.758c0.404-0.828,0.948-2.142,0.527-3.485c-0.255-0.586-0.507-1.171-0.762-1.757
	c-0.193-1.044-0.391-2.09-0.586-3.135c0.029-0.938,0.06-1.874,0.088-2.812c-0.066-0.8-0.135-1.601-0.207-2.401
	c-0.135-0.86-0.271-1.718-0.406-2.579c-0.034-0.373,0.354-0.472,0.232-1.111c-0.188-0.999-0.709-1.605-0.965-2.461
	c-0.346-1.14-0.318-2.362-0.645-3.427c-0.158-0.389-0.314-0.78-0.471-1.172c-0.028-0.263-0.06-0.528-0.088-0.791
	c-0.391-0.682-0.781-1.366-1.17-2.05c-0.35-0.788-0.692-1.562-1.205-2.197c-0.857-1.067-1.619-0.661-2.896-1.171
	c-0.432-0.225-0.859-0.449-1.289-0.673c-0.35-0.089-0.704-0.175-1.054-0.264c-0.216-0.166-0.013-0.353-0.089-0.616
	c-0.07-0.241-0.316-0.5-0.498-0.643c0.003-1.693,0.548-2.025,1.171-3.019c0.155-0.243,0.167-0.521,0.321-0.731
	c-0.102-0.412-0.141-0.62-0.467-0.791c-0.281-0.417,0.236-2.147-0.059-3.017c-0.242-0.711-1.186-1.38-1.814-1.7
	c-1.267-0.636-3.945,0.305-4.484,1.144c-0.295,0.463-0.491,2.457-0.291,3.015c-0.021,0.05-0.04,0.097-0.059,0.147
	c-0.127,0.021-0.255,0.039-0.383,0.058c-0.193,0.134-0.171,1.071-0.057,1.377c0.164,0.313,0.332,0.626,0.496,0.938
	c0.1,0.079,0.195,0.156,0.293,0.234c0.103,0.206,0.191,2.329,0.117,2.519c-0.217,0.342-0.734,0.485-0.906,0.909v1.201
	c-0.059,0.191-0.329,0.327-0.411,0.586c-0.653,0.242-1.419,0.247-2.14,0.469c-0.524,0.161-1.112,0.617-1.553,0.937
	c-0.718,0.524-0.75,1.224-1.141,2.107c-0.766,1.722-1.061,3.322-1.406,5.478v2.461c-0.197,0.816-1.707,2.886-0.849,3.485
	c-0.021,0.609-0.212,1.364-0.382,1.815c-0.021,0.868-0.039,1.738-0.06,2.607c0,1.677,0.159,3.674-0.089,5.213v1.845
	c-0.102,0.427-0.395,1.141-0.438,1.582c0.059,0.156,0.115,0.314,0.176,0.469c0.051,0.209,0.045,2.01,0.027,2.078
	c-0.037,0.088-0.078,0.178-0.117,0.266c0.043,0.461,0.752,0.844,0.967,1.2c0.466,0.771,0.706,1.812,0.703,3.019
	c-0.887-0.118-1.775-0.235-2.664-0.354c-0.582-0.018-1.041,0.457-1.465,0.322h-0.058c0.051-0.928,1.43-1.872,1.201-2.489
	l-0.438-0.353c-0.428-0.998,0.206-1.916-0.645-2.693c-0.156-0.136-0.312-0.273-0.469-0.41c-0.361-0.197-1.678-0.273-1.788-0.615
	c-1.032,0.103-2.166,0.895-2.488,1.729c-0.06,0.343-0.118,0.686-0.177,1.025c-0.087,0.371,0.098,1.123-0.029,1.404
	c-0.019,0.03-0.04,0.061-0.06,0.09c0.198,0.43,0.394,0.857,0.587,1.287v0.117c-0.655,0.17-1.046-0.061-1.728-0.117
	c-0.233-0.496-0.362-1.177-0.557-1.728c0.765-1.099,0.972-2.413,1.435-3.837c0.041-0.12,0.094-0.25,0.15-0.387
	c-0.041,0.021-0.088,0.039-0.132,0.06c0.008-0.022,0.014-0.044,0.021-0.066c0.143-0.436,0.441-0.97,0.542-1.478
	c-0.111-0.944-0.222-1.888-0.332-2.832V46.69c-0.34-1.903-0.869-3.712-1.385-5.483c-0.363-1.536-0.723-3.071-1.085-4.606
	c-0.563-2.214-0.303-4.853-1.385-6.536c-0.438-0.789-1.925-1.394-2.512-1.608c-0.006-0.006-0.014-0.012-0.021-0.018
	c-0.069-0.018-0.131-0.041-0.198-0.059c-0.013-0.005-0.022-0.008-0.022-0.008l-0.001,0.001c-0.85-0.239-1.655-0.594-2.395-1.054
	c-0.448-0.704,0.054-1.556,0.188-1.758c0.016-0.002,0.031-0.005,0.045-0.008c-0.018-0.023-0.013-0.037-0.013-0.037
	c0.334-0.14,1.427-1.6,1.688-1.954c0.027-0.061,0.056-0.128,0.089-0.205c0.635-1.459,0.444-2.157,0.444-2.157
	c0.127-0.634,0.444-2.92,0.444-2.92c-0.317-1.967-3.871-2.475-3.871-2.475c-2.634,0.223-3.619,2.413-3.619,2.413
	c-0.697,0.697-2.251,3.964-2.251,3.964s-0.794,3.175-1.27,3.523c0,0-0.012,0.015-0.03,0.035c0.184,0.497,0.22,1.074,0.051,1.717
	c-0.817,0.506-2.043,1.677-2.527,4.293c-0.093,0.477-0.191,1.288-0.36,1.809c-0.219,0.674-0.604,1.454-0.814,2.138
	c-0.217,0.701-0.332,1.364-0.602,2.018c-0.371,0.521-0.743,1.044-1.115,1.566c-0.464,0.67-0.812,1.466-1.233,2.138
	c-0.463,0.737-0.647,1.54-0.994,2.41c-0.096,0.237-0.229,0.473-0.37,0.709c-0.191,0.476-0.462,0.912-0.723,1.355
	c0,0.041-0.004,0.08-0.017,0.125c-0.177,0.647-0.412,1.277-0.707,1.879c-0.075,0.249-0.15,0.503-0.233,0.782
	c-0.1,0.333-0.392,0.539-0.542,0.781v0.393c-0.033,0.1-0.163,0.158-0.211,0.3c0.176,0.344,0.04,0.382,0.151,0.693
	c0.036,0.102,0.577,0.754,1.006,1.252c0.122,0.01,0.236,0.019,0.34,0.023c0.35,0.417,0.73,0.852,0.826,0.939
	c0.141,0.969-0.682,1.877-0.938,2.637c-0.048,0.021-0.098,0.041-0.145,0.058c-0.437-0.192-0.93-0.663-1.259-0.995
	c0.058-0.126,0.116-0.253,0.174-0.381c0.03-0.084-0.001-0.188-0.058-0.262c-0.126-0.16-1.936-1.526-2.109-1.583
	c-0.361-0.011-0.723-0.019-1.083-0.029c-0.138-0.049-0.276-0.098-0.412-0.146c-0.314,0.021-0.562,0.192-0.876,0.06
	c-0.01-0.041-0.02-0.08-0.031-0.117c0.108-0.155,0.206-0.347,0.438-0.383c0.217-0.385-0.272-0.629-0.144-1.2
	c0.108-0.483,0.771-0.743,0.614-1.464c-0.126-0.205-0.253-0.409-0.381-0.615c-0.103-0.5,0.01-0.926-0.115-1.435
	c-0.069-0.28-0.271-0.463-0.354-0.673c-0.02-0.127-0.037-0.255-0.058-0.381c-0.579-0.915-2.747-1.727-3.982-0.877
	c-1.815,1.249-2.429,4.06-2.87,6.646c-0.074,0.423,0.353,0.801,0.292,1.085c-0.08,0.376-1.208,1.351-1.377,1.757
	c-0.337,0.813,0.085,1.945-0.323,2.578c0.033,0.383,0.27,0.325,0.352,0.559c0.115,0.326-0.24,0.946-0.32,1.172
	c-0.345,0.938-0.635,1.91-0.881,3.017c-0.01,0.351-0.018,0.701-0.027,1.054c-0.07,0.288-0.172,0.604-0.235,0.994v1.172
	c-0.244,0.51-0.49,1.017-0.732,1.524c-0.08,0.412,0.912,1.876,1.142,2.108c0.175-0.027,0.214-0.117,0.323-0.146h0.703
	c0.597-1.053-0.671-1.114-0.82-1.729c0.73-1.092,1.248-2.679,1.67-4.07c0.224-0.857,0.451-1.719,0.673-2.576v-0.061
	c0.087,0.061,0.177,0.119,0.264,0.178c0.351,0.766-0.154,1.432-0.294,2.02c0.009,0.861,0.019,1.719,0.03,2.58
	c-0.185,0.817-0.371,1.639-0.557,2.458c-0.245,1.442-0.359,3.464-0.086,5.009c-0.031,0.068-0.061,0.138-0.089,0.207
	c0.292,0.853,0.155,2.015,0.322,3.016c0.039,0.391,0.08,0.781,0.117,1.173c-0.38,2.098-0.761,4.196-1.142,6.296
	c0.45,0.053,0.781,0.071,0.936,0.439c-0.208,0.412-0.711,0.569-1.17,0.73C3.81,84.665,3.769,84.87,3.73,85.075
	c0.966-0.039,1.933-0.079,2.898-0.116c0.254-0.285,0.51-0.566,0.763-0.852c0.077-0.226,0.155-0.448,0.234-0.674
	c0.495-0.438,1.402-0.186,2.108-0.115c0.229,0.3,0.373,1.137,0.439,1.552c0.836,0.265,2.084,0.188,3.165,0.174
	c0.127-0.116,0.252-0.233,0.38-0.351c-0.01-0.166-0.02-0.332-0.029-0.498c-1.137,0.025-1.298-0.444-1.7-1.112
	c0.461-0.156,0.918-0.313,1.378-0.469c-0.04-1.063-0.311-2.009-0.47-2.987c-0.183-1.131,0.013-2.304,0.031-3.339
	c-0.021-0.567-0.039-1.132-0.059-1.698c0.137-0.794,0.414-1.607,0.555-2.374c0.1-0.545-0.071-1.028,0.088-1.61
	c0.139-0.502,0.549-1.137,0.411-1.933c-0.059-0.254-0.118-0.508-0.177-0.761v-0.646c-0.074-0.248-0.357-0.649-0.439-0.937
	c0.031-0.187,0.06-0.371,0.088-0.558c0.033-0.363-0.275-0.332-0.206-0.674c0.092-0.438,0.352-0.942,0.323-1.406
	c-0.092-1.531-0.006-2.746,0.233-4.217v-1.553c0.095-0.48,0.208-1.087,0.323-1.492c0.281,0.049,0.385,0.318,0.615,0.438
	c1.252,0.654,2.312,1.597,4.13,1.553c0.285-0.211,0.661-0.563,0.791-0.908c0.009-0.164,0.021-0.332,0.031-0.498
	c0.094-0.214,0.193-0.43,0.29-0.645c0.01-0.193,0.02-0.391,0.031-0.586c0.059-0.118,0.195-0.182,0.234-0.352
	c0.05-1.035,0.099-2.07,0.148-3.104c-0.061-0.284-0.119-0.567-0.177-0.85c-0.068-0.078-0.137-0.156-0.205-0.234
	c0.04-0.139,0.078-0.273,0.117-0.411c-0.014-0.052-0.05-0.125-0.092-0.203c-0.257-0.202-0.495-0.422-0.724-0.652
	c-0.038-0.069-0.069-0.135-0.083-0.188c0.049-0.341,0.1-0.683,0.149-1.023c-0.059-0.182-0.12-0.363-0.179-0.542
	c0.072-0.468,0.452-0.833,0.693-1.145c0.148-0.193,0.298-0.375,0.444-0.555c-0.005-0.017-0.005-0.035,0.003-0.059
	c0.116-0.35,4.042-5.714,4.042-5.714c0.223-0.596,2.94-7.239,3.165-7.793c0.004-0.029,0.006-0.059,0.007-0.087
	c0.003,0.016,0.01,0.03,0.01,0.047c0.002,0.018,0.004,0.036,0.004,0.054l-0.021-0.014c0,0,0.544,2.801-2.01,7.448
	c-0.015,0.011-0.029,0.021-0.043,0.032c0,0-0.041,0.058-0.112,0.17c-0.056,0.086-0.13,0.208-0.219,0.358
	c-0.002-0.002-0.005-0.002-0.007-0.002c-0.003,0.008-0.016,0.033-0.03,0.065c-1.061,1.785-3.986,7.382-3.068,13.512
	c0.061-0.013,0.214-0.024,0.55-0.024c0.364,0.73,0.722,1.407,0.722,1.407c0.132,0.233,0.565,1.897,0.565,1.897
	c0.267,0.434,1.533,6.926,1.533,6.926c0,2.432,0.266,6.293,0.266,6.293c0.066,1,1.798,7.26,1.798,7.26l0.424,3.283
	c-0.047,0.479-0.286,2.783-0.622,3.777l-0.169,0.199c-0.266,1.196,0.101,1.563,0.101,1.563c0.333,0.134,1.997,0.068,1.997,0.068
	c1.132,0.231,1.132-1.467,1.132-1.467c-0.3-0.767-0.232-2.596-0.232-2.596c0.033-1.134,0.032-3.432,0.032-3.432
	c-0.532-1.133-0.366-4.995-0.366-4.995c-0.034-1.164,0.101-4.495,0.101-4.495c-0.5-2.331-0.733-3.296-0.733-3.296
	c-0.133-1.397,0.167-1.199,0.167-1.199c0.234,0.167,3.495,8.593,3.495,8.593c0.399,0.564,1.565,6.627,1.565,6.627l0.6,1.797
	l-0.399,1.365c-0.333,2.196,0.166,1.897,0.166,1.897c0.201,0.032,1.332,0,1.332,0c0.467-0.366,1.766-1.101,1.766-1.101
	c0.299-0.399,0.265-1.598,0.265-1.598c-0.065-0.6-0.898-2.398-0.898-2.398c-0.144-0.226-0.091-1.086-0.02-1.783l1.536,2.404
	l0.097-0.176c-0.817-0.699-1.555-3.4-1.555-3.4l-0.008,0.021c-0.227-0.5-1.2-1.16-1.2-1.16c-0.2-0.149-0.649-3.196-0.649-3.196
	c-0.2-2.847-0.4-4.896-0.4-4.896c0.05-0.948-1.447-3.847-1.447-3.847c-2.05-2.348-1.599-2.247-1.599-2.247
	c-0.148-0.399,1.099-4.146,1.099-4.146c0.074-0.297,0.614-1.966,1.139-3.574c0.032,0.008,0.062,0.015,0.092,0.02
	c0.081,0.02,0.143,0.052,0.189,0.095c0.192,0.028,0.354,0.062,0.478,0.095c0,0,1.439-3.681,0.873-12.244
	c0.087-3.387,2.398-9.089,2.398-9.089l-0.125-0.125c0.045-0.029,0.098-0.043,0.151-0.049c-0.01,0.059-0.018,0.116-0.026,0.174
	c0.022,0.001,0.045,0.004,0.066,0.011l0.03-0.192c0,0,0.014,0.084,0.04,0.23c0.045,0.037,0.074,0.091,0.071,0.168
	c-0.003,0.054-0.008,0.105-0.015,0.16c0.311,1.8,1.284,7.385,1.381,7.807c0,0,2.527,6.724,2.294,8.979h-0.022
	c0.008,0.361-0.221,0.664-0.356,0.844c-0.267,0.356-1.087,0.591-1.445,0.902c-0.142,0.172-0.281,0.342-0.423,0.514
	c-0.18,0.02-0.36,0.037-0.541,0.061c-0.363,0.135-0.308,0.506-0.903,0.512v0.029c0.04,0.239,0.077,0.403,0.18,0.602
	c-0.096,0.125-0.237,0.307-0.06,0.451c0.052,0.012,0.106,0.027,0.158,0.038c-0.006,0.106-0.01,0.214-0.018,0.318
	c0.151,0.037,0.304,0.071,0.456,0.108c0.003,0.006,0.004,0.013,0.006,0.019c0.016,0.028,0.037,0.051,0.059,0.069
	c0.027,0.082-0.023,0.16,0.03,0.264c0.074,0.152,0.271,0.111,0.41,0.205c0.155,0.107,0.727,1.066,0.79,1.261
	c-0.03,0.187-0.059,0.371-0.087,0.558c-0.044,0.705,0.042,1.552,0.291,2.049c0.21,0.421,0.598,0.52,0.998,0.763
	c0.722,0.537,1.444,1.073,2.166,1.61c0.174,0.914-0.09,1.742-0.231,2.519c-0.061,0.321,0.123,0.442,0.172,0.617
	c0.069,0.231-0.151,0.438-0.172,0.556c-0.13,0.652-0.059,2.119,0.172,2.46c-0.047,0.039-0.097,0.079-0.146,0.117
	c0.012,0.22,0.042,0.207,0.176,0.293c-0.099,0.144-0.153,0.321-0.235,0.408c0.014,0.549,0.41,0.882,0.499,1.319
	c-0.028,0.078-0.06,0.156-0.088,0.233c-0.105,0.751-0.052,1.804-0.262,2.55c0.019,0.195,0.038,0.389,0.056,0.586l-0.32,0.645
	c0.04,0.32,0.077,0.645,0.116,0.966c-0.141,0.697-0.478,1.769-0.322,2.665c0.083,0.491,0.165,0.984,0.248,1.479l-0.033-0.004
	c0,0-0.193,1.342-0.044,1.758c-0.075,0.057-0.117,0.104-0.151,0.203c-0.035,0.098-0.06,0.242-0.046,0.281
	c0.008,0.094,0.081,0.241,0.116,0.307c0.034,0.065,0.078,0.154,0.159,0.199c0.065,0.047,0.103,0.066,0.155,0.063
	c0.055-0.004,0.115,0.004,0.137-0.021c0.021-0.024,0.032-0.011,0.044-0.004c0.004,0.021-0.002,0.066,0.012,0.104
	c0.016,0.038,0.062,0.061,0.053,0.079c-0.01,0.02-0.062,0.147-0.088,0.207c-0.024,0.061-0.069,0.166-0.085,0.209
	c-0.017,0.043-0.073,0.158-0.111,0.201c-0.036,0.045-0.117,0.144-0.138,0.232c-0.018,0.092-0.057,0.284-0.063,0.361
	c-0.005,0.072-0.005,0.169-0.016,0.193c-0.019,0.032-0.042,0.082-0.029,0.131c0.006,0.055,0.036,0.146,0.036,0.18
	c0,0.029-0.007,0.279,0.006,0.351c0.011,0.066,0.053,0.214,0.079,0.259c0.024,0.043,0.073,0.105,0.191,0.16
	c0.117,0.053,0.335,0.105,0.43,0.12c0.095,0.013,0.403,0.03,0.474,0.03c0.068,0,0.462,0.01,0.495,0.01c0.031,0,0.506,0,0.606-0.01
	c0.102-0.01,0.301-0.02,0.325-0.028c0.041-0.017,0.168-0.073,0.229-0.129c0.06-0.057,0.154-0.175,0.17-0.229
	c0.016-0.059,0.013-0.226,0.006-0.297c-0.007-0.07-0.01-0.242-0.006-0.274c0-0.041-0.026-0.103-0.049-0.167
	c-0.026-0.063-0.051-0.055-0.033-0.132c0.02-0.078,0.02-0.101,0.02-0.155c0-0.054-0.009-0.172,0.009-0.201
	c0.02-0.031,0.011-0.137,0.011-0.199c0-0.062,0.015-0.42,0.033-0.425c0.02-0.006,0.049,0.009,0.049,0.043
	c0,0.037,0.015,0.072,0.046,0.072c0.033,0,0.072-0.003,0.113-0.097c0.044-0.096,0.092-0.287,0.099-0.315
	c0.025-0.036,0.01-0.149,0.016-0.194c0.016-0.045,0.038-0.076,0.038-0.127c0-0.052,0.018-0.084,0.057-0.067
	c0.038,0.017,0.1,0.053,0.154,0.053c0.053,0,0.142-0.015,0.199-0.038c0.057-0.023,0.141-0.089,0.152-0.154
	c0.015-0.065,0.052-0.099,0.07-0.123c0.018-0.025,0.022-0.133,0.026-0.158c0.002-0.024,0.015-0.162,0.015-0.195
	c0-0.031-0.009-0.361-0.019-0.398c-0.01-0.039-0.011-0.283-0.019-0.326c-0.005-0.045-0.022-0.111-0.012-0.168
	c0.001-0.008,0.006-0.021,0.011-0.037c-0.089-0.021-0.164-0.061-0.231-0.103l-0.049-0.411v-1.154
	c0.186-0.813,0.371-1.623,0.557-2.433c0.206-0.011,0.409-0.02,0.614-0.028c0.214,1.123,0.685,2.257,0.909,3.455v0.278l-0.2,1.212
	c-0.011,0.029-0.018,0.053-0.012,0.079c-0.002,0.042-0.025,0.089-0.035,0.115c-0.009,0.024-0.009,0.112-0.012,0.146
	c-0.004,0.029,0.009,0.149,0.003,0.188c0.004,0.035,0.056,0.169,0.081,0.214c0.03,0.075,0.181,0.278,0.212,0.319
	c0.035,0.053,0.104,0.121,0.171,0.193c0.041,0.053,0.059,0.145,0.088,0.176c0.017,0.039,0.023,0.145,0.028,0.164
	c0.018,0.041,0.026,0.098,0.022,0.123c-0.004,0.023-0.014,0.17,0.004,0.186c0.025,0.036,0.005,0.082,0,0.115
	c-0.008,0.041,0.002,0.404,0.011,0.449c0,0.084,0.108,0.17,0.162,0.207c0.053,0.039,0.412,0.236,0.472,0.26
	c0.059,0.021,0.366,0.134,0.586,0.134c0.133-0.029,0.221-0.056,0.269-0.074s0.151-0.037,0.19-0.009
	c0.035,0.027,0.137,0.132,0.149,0.18c0.015,0.049,0.094,0.174,0.17,0.268c0.075,0.096,0.187,0.151,0.313,0.205
	c0.131,0.055,0.433,0.151,0.631,0.172c0.195,0.02,0.391,0.047,0.572,0.027c0.183-0.019,0.502-0.063,0.604-0.08
	c0.102-0.016,0.523-0.119,0.604-0.151c0.076-0.035,0.152-0.06,0.235-0.136c0.082-0.08,0.071-0.049,0.085-0.153
	c0.012-0.103,0.006-0.193-0.025-0.251c-0.018-0.066,0.021-0.107,0.021-0.172c0-0.063-0.026-0.195-0.028-0.217
	c-0.009-0.049-0.082-0.099-0.082-0.099c-0.025-0.05-0.24-0.294-0.24-0.294c-0.041-0.037-0.114-0.033-0.16-0.097
	c-0.047-0.063-0.053-0.089-0.063-0.119c-0.018-0.037-0.036-0.05-0.103-0.079c-0.066-0.031-0.205-0.131-0.205-0.131
	c0.006-0.012-0.021-0.063,0.02-0.059c0.035,0.006,0.092,0.025,0.104-0.014c0.017-0.038,0.021-0.066-0.001-0.085
	c-0.023-0.021-0.073-0.101-0.098-0.13c-0.021-0.025-0.06-0.109-0.107-0.125c-0.045-0.016-0.07,0.003-0.118-0.007
	c-0.047-0.009-0.187-0.039-0.216-0.041c-0.037-0.017-0.053-0.063-0.043-0.085s0.063-0.042,0.078-0.045
	c0.022,0.003,0.058-0.002,0.068-0.021c0.014-0.02,0.053-0.034,0.051-0.063c-0.004-0.027-0.01-0.119-0.031-0.157
	c-0.023-0.04-0.067-0.117-0.107-0.127c-0.042-0.011-0.104-0.007-0.162,0c-0.059,0.004-0.205-0.015-0.23-0.031
	c-0.021-0.015-0.059-0.073-0.065-0.116c-0.006-0.041-0.028-0.164-0.046-0.201c0.001-0.035,0.008-0.158,0.012-0.233
	c-0.041-0.039-0.078-0.084-0.109-0.13c-0.11-0.15-0.199-0.313-0.282-0.48l-0.103-0.967c-0.319-1.24-0.687-3.521-0.522-4.331
	c0.118-0.752,0.235-1.503,0.353-2.253c-0.039-0.178-0.076-0.354-0.117-0.527c0.01-0.265,0.02-0.529,0.029-0.793
	c-0.254-0.565-0.508-1.132-0.763-1.697c0.115-0.28-0.165-0.916-0.231-1.26V63.93c-0.08,0.038-0.156,0.078-0.234,0.115
	c-0.364-0.708,0.252-1.234,0.498-1.697c1.005-0.188,2.545-0.066,3.25-0.586c1.291-0.949-0.314-4.527-0.73-5.447
	c0.24-0.313,0.385-0.61,0.702-0.851c-0.004-0.487-0.336-0.864-0.614-1.084c0.239-1.634,0.334-3.442-0.529-4.509
	c0.432-1.339,0.861-2.677,1.289-4.013c0.316-1.016,0.55-1.977,0.791-3.077c0.099-0.576,0.197-1.15,0.293-1.728
	c0.195-0.408,0.613-0.751,0.793-1.201c0.115-0.615,0.231-1.231,0.351-1.845c0.175-0.264,0.353-0.527,0.526-0.792
	c0.031-0.019,0.059-0.038,0.089-0.058c-0.292,0.938-0.216,1.945-0.382,2.959c-0.084,0.518,0.27,0.757,0.146,1.228
	c-0.171,0.648-0.232,1.67-0.232,2.492v1.375c-0.211,1.212-0.075,2.572,0.115,3.75c-0.019,0.771-0.037,1.541-0.059,2.314
	c-0.137,0.842,0.082,1.697,0.205,2.373c0.199,1.088,0.292,3.947,0.88,4.422c-0.257,0.753-0.032,1.951,0.146,2.813
	c-0.008,0.203-0.02,0.408-0.028,0.614c0.139,0.927,0.284,2.262,0.47,3.163c-0.04,1.182-0.079,2.361-0.117,3.544
	c0.146,0.565,0.293,1.132,0.438,1.698c0.196,0.216,0.39,0.431,0.586,0.646c0.01,0.292,0.019,0.586,0.028,0.879
	c0.078,0.117,0.156,0.234,0.233,0.354v0.847c0.046,0.23,0.054,0.506,0.066,0.795c-0.007,0.209-0.011,0.416,0.014,0.604
	c0.021,0.158-0.014,1.067,0.106,1.384c0.019,0.048,0.082,0.239,0.166,0.498c0.078,0.827,0.146,1.649,0.293,2.286
	c0.006,0.244,0.012,0.486,0.018,0.731c-0.082,0.402-0.113,0.845,0.068,1.117c0.389,0.59,0.604,1.118,0.943,1.459
	c0.135,0.134,0.246,0.673,0.483,0.538c0.192-0.107,0.199-0.133,0.155,0.098c-0.045,0.229-0.117,0.815-0.076,0.995
	c0.04,0.179-0.141,0.165-0.141,0.343c-0.002,0.178-0.018,0.346-0.02,0.575c-0.003,0.23,0.018,0.324,0.13,0.462
	c0.114,0.139,0.154,0.174,0.237,0.172c0.183-0.01,0.078,0.072,0.249,0.063c0.128-0.002,0.097-0.04,0.155-0.03
	c0.066,0.014,0.015,0.035,0.141,0.047c0.229,0.02,0.164-0.043,0.206-0.035c0.114,0.015-0.005,0.027,0.212,0.033
	c0.357,0.008,0.26-0.049,0.352-0.051c0.104-0.003,0.049,0.061,0.373,0.057c0.543-0.004,0.275-0.057,0.471-0.064
	c0.177-0.006,0.048,0.051,0.406,0.021c0.426-0.035,0.211-0.055,0.41-0.062c0.159-0.008,0.008,0.062,0.436,0.03
	c0.457-0.033,0.257-0.075,0.406-0.09c0.135-0.01,0.312,0.014,0.33,0.012c0.162-0.022,0.106-0.051,0.152-0.063
	c0.063-0.021,0.073,0.039,0.137-0.012c0.113-0.085,0.066-0.194,0.073-0.288c0.013-0.168,0.083-0.669-0.198-0.904
	c-0.129-0.105,0.11-0.343-0.16-1.301c-0.049-0.173-0.062-0.742-0.131-1.079c-0.021-0.122,0.092,0.212,0.307-0.192
	c0.078-0.147,0.005-0.221,0.475-0.873c0.055-0.073,0.059-0.151,0.104-0.301c0.035,0.015,0.07,0.026,0.104,0.041
	c-0.011-0.078-0.022-0.156-0.034-0.234c0.071-0.17,0.189-0.406,0.402-0.744c0.215-0.34,0.227-0.999,0.089-1.527
	c-0.049-0.182-0.521-0.42-0.985-0.898c-0.049-0.309-0.121-0.594-0.246-0.827v-0.177c0.047,0.031,0.097,0.06,0.146,0.09
	c0.137-0.539-0.171-0.57-0.292-0.82c-0.021-0.468-0.039-0.936-0.06-1.404c-0.039-0.121-0.19-0.11-0.234-0.207
	c-0.01-0.252-0.02-0.507-0.028-0.762c-0.678-1.539-0.966-3.189-1.229-5.154c0.038-0.281,0.075-0.563,0.116-0.85
	c0.002-0.838-0.205-2.676,0.146-3.251c0.011-0.019,0.021-0.037,0.03-0.06c-0.02,0.099-0.04,0.195-0.061,0.293
	c0.145,0.568,0.822,0.73,0.819,1.554c0.062-0.03,0.118-0.058,0.178-0.088c0.007,1.319,0.332,2.069,0.614,2.959
	c0.119,0.374-0.076,0.842,0.089,1.2c0.552,1.203,0.817,2.641,1.229,4.013c0.263,0.839,0.526,1.679,0.789,2.517
	c-0.013,0-0.023-0.002-0.035-0.004c0.022,0.104,0.048,0.203,0.07,0.301c0.066,0.566,0.135,1.131,0.199,1.696
	c0.023,0.087,0.051,0.177,0.074,0.263c-0.001,0.453-0.01,1.117-0.016,2.138c-0.002,0.233-0.041,0.594,0.254,1.055
	c0.123,0.194,0.598,1.154,0.676,1.291c0.104,0.181,0.052,0.29,0.053,0.411c0.006,0.154,0.112-0.146,0.094,0.518
	c-0.01,0.368-0.082,0.93,0.103,0.983c0.104,0.03,0.054,0.003,0.108,0.022c0.105,0.033-0.021,0.056,0.205,0.103
	c0.191,0.04,0.102-0.022,0.18,0.001c0.099,0.029,0.055,0.07,0.271,0.092c0.181,0.02,0.13-0.015,0.241-0.013
	c0.089,0.002-0.025,0.035,0.189,0.062c0.276,0.031,0.256,0.002,0.291,0.002c0.037,0-0.028,0.06,0.223,0.073
	c0.18,0.011,0.127,0.095,0.521-0.166c0.479-0.319,0.354-0.325,0.508-0.216c0.343,0.234,0.306,0.201,0.285,0.309
	c-0.02,0.107-0.015,0.11,0.045,0.178c0.059,0.067,0.055,0.08,0.095,0.074c0.043-0.007,0.036,0.022,0.108,0.127
	c0.069,0.103,0.088,0.096,0.125,0.096c0.036,0,0.06,0.064,0.153,0.128c0.132,0.085,0.108,0.034,0.162,0.049
	c0.054,0.013-0.054,0.028,0.14,0.056c0.174,0.025,0.121-0.022,0.219-0.017c0.08,0.004-0.028,0.049,0.176,0.03
	c0.273-0.024,0.205-0.055,0.267-0.055s-0.009,0.053,0.214,0.039c0.305-0.019,0.235-0.06,0.309-0.065
	c0.104-0.011,0.063,0.021,0.225,0.012c0.234-0.015,0.116-0.047,0.291-0.069c0.07-0.008-0.02,0.053,0.164,0.021
	c0.264-0.051,0.291-0.128,0.396-0.145c0.125-0.022,0.054,0.047,0.394-0.017c0.313-0.06,0.254-0.101,0.284-0.11
	c0.172-0.035,0.009,0.045,0.41-0.05c0.221-0.055,0.184-0.094,0.233-0.104c0.126-0.024,0.08,0.031,0.374-0.049
	c0.24-0.064,0.117-0.073,0.17-0.092c0.088-0.031,0.135,0.01,0.244-0.037c0.081-0.035,0.105-0.05,0.122-0.074
	c0.033-0.055,0.017-0.053-0.058-0.412c-0.086-0.434-0.139-0.213-0.238-0.334c-0.1-0.119,0.021-0.608-0.418-1.004
	c-0.143-0.127-0.408-0.021-0.703-0.053c-0.109-0.013-0.521,0.051-1.25-0.52c-0.104-0.081,0.127,0.044-0.488-0.577
	c-0.096-0.097-0.01-0.149-0.154-0.235c-0.107-0.064-0.004-0.133-0.166-0.386c-0.066-0.106-0.094-0.055,0.074-0.264
	c0.17-0.208,0.479-0.406,0.291-1.334c-0.024-0.128-0.3-1.894-0.41-2.56c-0.006-0.041-0.043-0.246-0.092-0.545c0,0,0-0.002,0-0.003
	c0-0.003-0.002-0.005-0.002-0.01c-0.043-0.243-0.092-0.548-0.143-0.884c-0.043,0.029-0.09,0.053-0.133,0.082l-0.355-1.035
	c-0.02-1.271-0.042-2.539-0.059-3.809c-0.217-0.92-0.533-1.896-0.762-2.726c-0.127-0.849-0.256-1.699-0.383-2.547
	c-0.057-2.244-0.117-4.49-0.175-6.737c-0.05-0.634-0.099-1.271-0.146-1.902c-0.113-0.537-0.271-1.015-0.267-1.61
	c-0.058,0.01-0.116,0.021-0.175,0.028h-0.027c-0.168-1.287-0.334-2.577-0.5-3.865c-0.236-0.889-0.469-1.777-0.703-2.667
	c-0.144-0.781,0.359-1.635,0.528-2.519c0.086-1.289,0.175-2.579,0.263-3.867c-0.067-0.321-0.136-0.644-0.205-0.965
	c-0.193-0.767-0.41-1.505-0.41-2.403c1.791,0.996,1.463,2.096,2.08,4.13c0.574,1.889,1.357,3.816,0.879,6.15
	c-0.129,0.302-0.256,0.605-0.383,0.909c-0.123,0.492-0.205,0.958-0.289,1.377c0.027,0.596,0.057,1.189,0.084,1.786
	c-0.076,0.269-0.487,0.779-0.351,1.142c0.028,0.039,0.06,0.08,0.089,0.117c0.282-0.06,0.404-0.272,0.645-0.38
	c0.021-0.019,0.039-0.04,0.059-0.06c0.124,0.23-0.015,0.346,0.03,0.615c0.075,0.459,0.526,1.035,0.819,1.315
	c0.223,0.021,0.447,0.039,0.672,0.06c0.479,0.439,0.959,0.88,1.437,1.319c0.206,0.359,0.411,0.722,0.615,1.085
	c0.303,0.254,0.604,0.506,0.909,0.76c0.184,0.177,0.369,0.352,0.556,0.526h1.905c0.354-0.079,0.762-0.364,1.053-0.526
	c0.531-0.297,0.781-0.547,1.111-1.024c0.156,0.03,0.314,0.06,0.473,0.088c0.072,0.233,0.223,2.574,0.057,2.958
	c-0.105,0.251-0.373,0.395-0.439,0.703c-0.071,0.332,0.09,0.561,0.146,0.73c-0.068,0.616-0.137,1.23-0.203,1.848
	c0.009,0.214,0.018,0.428,0.027,0.644c-0.172,1.315-0.521,2.546-0.763,3.722c-0.095,0.461,0.146,0.806,0.06,1.201
	c-0.123,0.563-0.222,1.637-0.123,2.426c-0.011,0.015-0.019,0.026-0.019,0.031c0,0.014-0.013,0.063,0.003,0.099
	c0.018,0.036,0.016,0.069,0.032,0.084c0.011,0.005,0.017,0.016,0.022,0.026c0,0.004,0,0.01,0.002,0.014
	c0.002,0.012,0.002,0.022-0.002,0.031c-0.012,0.023-0.014,0.139-0.014,0.184c0,0.044-0.014,0.121-0.014,0.14
	c0,0.017-0.004,0.085-0.021,0.093c-0.007,0.021,0,0.133-0.002,0.179c-0.005,0.047-0.014,0.401-0.014,0.401
	c-0.012,0.025-0.002,0.096-0.014,0.119c-0.01,0.022-0.01,0.256-0.006,0.276c0.002,0.024,0.02,0.146,0.018,0.229
	c-0.004,0.084,0.006,0.399,0,0.428c-0.01,0.025-0.021,0.385-0.021,0.418c0,0.031,0.012,0.355,0.026,0.475
	c0.012,0.115,0.026,0.24,0.022,0.311c-0.004,0.069-0.014,0.203-0.043,0.239c-0.031,0.035-0.076,0.148-0.078,0.169
	c-0.006,0.02-0.013,0.165,0.013,0.209c0.022,0.043,0.038,0.111,0.032,0.129c-0.008,0.017-0.051,0.068-0.058,0.09
	c-0.006,0.02-0.01,0.091,0.005,0.103c0.014,0.015,0.055,0.093,0.053,0.114c-0.01,0.023-0.01,0.111-0.01,0.124
	c-0.007,0.03-0.082,0.131-0.097,0.167c-0.026,0.063-0.03,0.109-0.037,0.197c-0.006,0.088-0.022,0.266-0.017,0.282
	c0.007,0.017,0.029,0.05,0.037,0.065c-0.01,0.031-0.026,0.063-0.047,0.082c-0.02,0.02-0.045,0.097-0.047,0.13
	c-0.01,0.04-0.037,0.079-0.057,0.096c-0.02,0.019-0.141,0.14-0.152,0.159c-0.013,0.021,0.01,0.084,0.026,0.1
	c0.017,0.018,0.062,0.008,0.083-0.01c0.023-0.017,0.08-0.08,0.098-0.086c0.016-0.007,0.038-0.01,0.038,0.018
	c0,0.026,0,0.072,0.043,0.155c0.044,0.082,0.062,0.146,0.05,0.169c-0.011,0.022-0.115,0.174-0.141,0.231
	c-0.037,0.094-0.042,0.212-0.045,0.271c-0.003,0.062-0.046,0.282-0.063,0.324c-0.03,0.073-0.072,0.238-0.09,0.293
	c-0.018,0.057-0.051,0.215-0.068,0.239c-0.01,0.045-0.021,0.146-0.028,0.171c-0.01,0.029-0.045,0.111-0.042,0.169
	c0.002,0.058,0,0.195-0.003,0.213c-0.013,0.026-0.038,0.058-0.041,0.104c-0.002,0.051-0.009,0.136,0,0.162
	c0.007,0.033,0.011,0.117,0.021,0.162c0.01,0.047,0.043,0.17,0.064,0.209c0.027,0.045,0.145,0.326,0.167,0.354
	c0.022,0.025,0.128,0.146,0.142,0.174c0.019,0.028,0.043,0.141,0.232,0.217c0.118,0.035,0.129,0.047,0.242,0.043
	c0.113-0.002,0.27,0.016,0.285,0.016c0.017,0,0.045,0.011,0.025,0.066c-0.02,0.058-0.066,0.174-0.102,0.23
	c-0.038,0.061-0.078,0.134-0.174,0.178c-0.096,0.042-0.201,0.088-0.268,0.152c-0.08,0.06-0.123,0.109-0.16,0.212
	s-0.063,0.256-0.05,0.298c0.011,0.098,0.087,0.252,0.122,0.321c0.037,0.069,0.084,0.161,0.167,0.209
	c0.068,0.049,0.108,0.069,0.164,0.065c0.058-0.003,0.119,0.004,0.146-0.022c0.021-0.026,0.031-0.011,0.045-0.003
	c0.004,0.02-0.004,0.068,0.014,0.109s0.064,0.063,0.057,0.082c-0.012,0.021-0.066,0.154-0.093,0.219
	c-0.024,0.063-0.071,0.175-0.09,0.22c-0.019,0.047-0.077,0.166-0.116,0.212c-0.039,0.047-0.125,0.148-0.145,0.244
	c-0.021,0.097-0.061,0.298-0.067,0.378c-0.006,0.079-0.006,0.18-0.017,0.206c-0.021,0.031-0.045,0.088-0.028,0.137
	c0.006,0.059,0.036,0.155,0.036,0.188c0,0.033-0.008,0.295,0.005,0.367c0.015,0.072,0.058,0.226,0.083,0.272
	c0.025,0.046,0.079,0.11,0.203,0.168c0.122,0.058,0.351,0.112,0.451,0.127c0.097,0.013,0.423,0.031,0.496,0.031
	c0.07,0,0.486,0.012,0.521,0.012c0.032,0,0.533,0,0.64-0.012c0.106-0.009,0.315-0.019,0.342-0.029
	c0.043-0.017,0.176-0.075,0.236-0.135c0.064-0.06,0.164-0.183,0.182-0.242c0.017-0.06,0.013-0.235,0.006-0.312
	c-0.006-0.076-0.01-0.254-0.006-0.289c0-0.041-0.026-0.107-0.053-0.176c-0.027-0.064-0.055-0.057-0.035-0.14
	c0.021-0.082,0.021-0.104,0.021-0.161c0-0.058-0.01-0.182,0.01-0.214c0.021-0.03,0.012-0.142,0.012-0.209
	c0-0.063,0.015-0.438,0.035-0.444c0.021-0.009,0.049,0.008,0.049,0.045s0.017,0.075,0.051,0.075c0.031,0,0.072-0.003,0.117-0.102
	c0.048-0.101,0.097-0.304,0.104-0.332c0.024-0.037,0.009-0.159,0.017-0.205c0.018-0.046,0.039-0.08,0.039-0.134
	c0-0.053,0.021-0.086,0.062-0.069c0.039,0.019,0.104,0.056,0.161,0.056c0.056,0,0.146-0.015,0.21-0.039
	c0.058-0.027,0.146-0.097,0.159-0.164c0.014-0.068,0.053-0.104,0.074-0.129c0.019-0.027,0.022-0.14,0.025-0.164
	c0.004-0.028,0.018-0.176,0.018-0.207c0-0.035-0.011-0.383-0.021-0.422c-0.011-0.039-0.013-0.295-0.021-0.341
	c-0.006-0.048-0.024-0.12-0.015-0.177c0.011-0.057,0.16-0.395,0.173-0.42c0.016-0.027,0.159-0.289,0.172-0.375
	c0.008-0.087,0.049-0.229,0.064-0.271s0.068-0.209,0.068-0.248c0-0.041,0.033-0.304,0.021-0.425c0-0.036,0.011-0.263-0.017-0.319
	c-0.026-0.063-0.1-0.152-0.176-0.193c-0.076-0.044-0.07-0.061-0.101-0.112c-0.028-0.054-0.079-0.085-0.091-0.102
	c-0.008-0.017-0.057-0.151-0.066-0.191c-0.015-0.039-0.084-0.248-0.104-0.269c-0.021-0.021-0.053-0.047-0.057-0.063
	c-0.004-0.016-0.006-0.151,0.019-0.28c0.006-0.088-0.007-0.352-0.034-0.429c-0.027-0.075-0.054-0.165-0.08-0.2
	c-0.025-0.037-0.015-0.08-0.01-0.102c0.006-0.02-0.014-0.124-0.027-0.162c-0.011-0.035-0.002-0.23-0.002-0.271
	c0-0.039-0.009-0.139-0.029-0.168c-0.02-0.029-0.066-0.105-0.063-0.153c0.002-0.045,0.044-0.081,0.084-0.119
	c0.038-0.034,0.074-0.118,0.087-0.175c0.014-0.057,0.055-0.239,0.047-0.281c0.021-0.057,0.104-0.189,0.122-0.229
	c0.021-0.041,0.084-0.235,0.088-0.271c0.003-0.03-0.011-0.092,0.013-0.14c0.022-0.047,0.084-0.12,0.084-0.201
	c0-0.078,0.006-0.248,0.019-0.282c0.015-0.032,0.076-0.14,0.124-0.298c0.014-0.046,0.092-0.303,0.118-0.555
	c0.022-0.193,0.077-0.439,0.084-0.516c0.005-0.076,0.054-0.354,0.059-0.443c0.007-0.09,0.044-0.508,0.039-0.551
	c-0.002-0.043,0.045-0.293,0.052-0.33c0.006-0.037,0.029-0.08,0.051-0.071c0.035,0.011,0.027,0.063,0.024,0.11
	c-0.003,0.045,0.027,0.297,0.036,0.313c0,0.041,0.027,0.259,0.031,0.342c0.003,0.085,0.058,0.461,0.068,0.509
	c0.01,0.047,0.039,0.18,0.066,0.236c-0.004,0.078-0.007,0.43,0.004,0.523c0.01,0.099,0.028,0.379,0.047,0.466
	c0.016,0.087,0.065,0.323,0.077,0.394c0.015,0.07,0.078,0.487,0.078,0.527c0.006,0.046,0.056,0.158,0.06,0.193
	c0.002,0.037,0.014,0.137,0.022,0.207c0.013,0.068,0.052,0.291,0.06,0.313s0.061,0.173,0.073,0.232
	c0.013,0.061,0.05,0.185,0.075,0.211c0.008,0.045-0.003,0.053-0.01,0.065c-0.006,0.013-0.021,0.101-0.049,0.144
	c-0.028,0.041-0.047,0.113-0.053,0.162c-0.009,0.047-0.027,0.219-0.035,0.248c-0.014,0.037-0.045,0.108-0.045,0.136
	c0,0.026,0.012,0.034,0.022,0.051c0.009,0.022,0.004,0.076,0.006,0.093c0.006,0.026,0.022,0.073,0.058,0.077
	c0.019,0.028,0.008,0.168,0.008,0.201c0,0.032,0.021,0.08,0.011,0.103c-0.011,0.023-0.028,0.069-0.022,0.105
	c0.008,0.037,0.027,0.134,0.027,0.163c0,0.028,0.018,0.146,0.023,0.186c0.006,0.036,0.028,0.149,0.028,0.175
	c0,0.027,0.003,0.129,0.019,0.18c0.021,0.055,0.08,0.172,0.295,0.453c0.012,0.021,0.042,0.088,0.074,0.102
	c0.015,0.032,0.018,0.284,0.015,0.32c-0.004,0.037-0.004,0.378,0,0.422c0.003,0.043,0.03,0.146,0.037,0.208
	c0.008,0.063,0.045,0.263,0.11,0.325c0.023,0.029,0.084,0.086,0.146,0.086c0.048,0.035,0.09,0.115,0.102,0.134
	c0.018,0.039,0.063,0.071,0.074,0.082c0.004,0.037,0.01,0.092,0.03,0.119c0.01,0.04,0.008,0.099,0.004,0.122
	c-0.004,0.022-0.008,0.065,0.006,0.094c0.013,0.023,0.046,0.059,0.039,0.074c-0.032,0.035-0.153,0.113-0.179,0.152
	c-0.023,0.041-0.029,0.069-0.023,0.106c-0.005,0.043-0.027,0.094-0.035,0.119c-0.01,0.026-0.01,0.118-0.016,0.153
	c-0.002,0.03,0.012,0.156,0.006,0.196c0.003,0.038,0.059,0.179,0.085,0.228c0.029,0.078,0.188,0.291,0.222,0.334
	c0.037,0.056,0.11,0.127,0.182,0.205c0.042,0.054,0.063,0.149,0.093,0.184c0.017,0.042,0.024,0.15,0.026,0.172
	c0.021,0.044,0.029,0.104,0.025,0.129c-0.005,0.026-0.015,0.18,0.004,0.194c0.025,0.037,0.006,0.088,0,0.125
	c-0.009,0.042,0.004,0.422,0.014,0.47c0,0.089,0.111,0.18,0.166,0.219c0.06,0.041,0.436,0.248,0.498,0.272
	c0.063,0.022,0.386,0.138,0.617,0.138c0.14-0.027,0.23-0.057,0.281-0.074c0.049-0.021,0.159-0.041,0.199-0.012
	c0.039,0.029,0.146,0.141,0.158,0.188c0.012,0.052,0.1,0.183,0.179,0.283c0.08,0.099,0.196,0.158,0.331,0.215
	c0.137,0.058,0.455,0.158,0.661,0.18c0.204,0.021,0.409,0.049,0.603,0.029c0.191-0.021,0.526-0.066,0.633-0.084
	c0.106-0.017,0.551-0.125,0.635-0.162c0.082-0.034,0.16-0.059,0.246-0.141c0.087-0.084,0.076-0.052,0.089-0.16
	c0.015-0.108,0.009-0.205-0.024-0.267c-0.02-0.067,0.02-0.11,0.02-0.177c0-0.068-0.024-0.207-0.028-0.23
	c-0.01-0.049-0.086-0.104-0.086-0.104c-0.026-0.053-0.253-0.309-0.253-0.309c-0.041-0.039-0.12-0.035-0.169-0.103
	c-0.052-0.063-0.056-0.093-0.065-0.124c-0.021-0.041-0.039-0.05-0.109-0.083c-0.069-0.032-0.215-0.138-0.215-0.138
	c0.006-0.014-0.021-0.069,0.02-0.063c0.04,0.007,0.098,0.027,0.113-0.012c0.017-0.043,0.019-0.07-0.004-0.093
	c-0.025-0.021-0.075-0.104-0.1-0.135c-0.023-0.028-0.063-0.115-0.111-0.133c-0.051-0.016-0.076,0.004-0.127-0.006
	s-0.195-0.042-0.229-0.043c-0.036-0.016-0.052-0.066-0.042-0.09c0.011-0.021,0.063-0.045,0.082-0.047
	c0.023,0.002,0.061-0.004,0.072-0.022c0.015-0.021,0.054-0.036,0.051-0.067c-0.004-0.028-0.012-0.125-0.033-0.163
	c-0.023-0.042-0.068-0.123-0.111-0.134c-0.045-0.011-0.11-0.008-0.17,0c-0.063,0.004-0.217-0.017-0.244-0.032
	c-0.023-0.019-0.063-0.079-0.068-0.123c-0.006-0.042-0.032-0.173-0.049-0.208c0.002-0.055,0.014-0.282,0.014-0.307
	c0-0.023,0.016-0.146,0.035-0.195c0.021-0.051,0.105-0.057,0.148-0.068c0.037-0.014,0.137-0.033,0.229-0.126
	c0.095-0.093,0.15-0.146,0.154-0.2c0.01-0.053,0.031-0.228,0.031-0.304c0-0.077-0.01-0.231-0.039-0.302
	c-0.031-0.07-0.061-0.17-0.092-0.211c-0.039-0.038-0.117-0.244-0.117-0.244c-0.023-0.049-0.104-0.158-0.129-0.193
	c-0.021-0.035-0.076-0.154-0.166-0.199c-0.111-0.028-0.256-0.033-0.256-0.033c-0.096,0.005-0.295-0.017-0.367,0.011
	c-0.088,0.017-0.18-0.011-0.234,0.017c-0.036,0.01-0.135,0.026-0.176-0.051c-0.045-0.076-0.062-0.118-0.064-0.146
	c-0.012-0.039-0.029-0.053-0.034-0.117c-0.007-0.067-0.007-0.163-0.021-0.196c-0.014-0.032-0.023-0.036,0.022-0.076
	s0.097-0.101,0.097-0.129c0-0.026,0.045-0.083,0.068-0.144c0.021-0.06,0.012-0.066,0.037-0.116c0.023-0.05,0.034-0.118,0.046-0.181
	c0.026-0.064,0.03-0.393,0.032-0.434c0.004-0.038,0.023-0.121,0.016-0.191c-0.012-0.068,0-0.154-0.023-0.201
	s-0.108-0.157-0.108-0.157c0-0.041,0.019-0.104,0.039-0.118c0.019-0.025,0.007-0.1-0.01-0.143c-0.019-0.041-0.058-0.106-0.062-0.152
	c-0.002-0.046-0.022-0.111-0.05-0.137c-0.014-0.045-0.006-0.127-0.026-0.182c-0.025-0.053-0.064-0.093-0.059-0.113
	c0.005-0.019,0.079-0.131,0.088-0.178c0.012-0.045,0.021-0.145,0.036-0.197c0.017-0.059,0.104-0.353,0.115-0.448
	c0.016-0.099,0.042-0.452,0.034-0.527c-0.006-0.073-0.02-0.311-0.034-0.352c-0.011-0.039-0.011-0.167-0.001-0.251
	c0.01-0.082,0.061-0.479,0.068-0.582c0.01-0.107,0.056-0.551,0.078-0.628c0.023-0.077,0.066-0.214,0.062-0.308
	c-0.007-0.094,0-0.324-0.009-0.34c-0.012-0.018-0.012-0.072,0.002-0.085c0.013-0.015,0.109-0.116,0.119-0.146
	c0.01-0.024,0.026-0.117,0.053-0.145c0.025-0.027,0.063-0.053,0.066-0.085c0.002-0.034-0.021-0.061-0.027-0.085
	c-0.01-0.021-0.035-0.14-0.035-0.205c0-0.066-0.029-0.258-0.047-0.299c-0.008-0.02-0.018-0.055-0.029-0.089
	c-0.009-0.224-0.018-0.447-0.023-0.672c0.037-0.392,0.078-0.781,0.117-1.171c-0.08-0.598-0.158-1.191-0.234-1.786
	c-0.064-0.25-0.186-0.365-0.24-0.634c0.01-0.086,0.014-0.17,0.006-0.248c-0.007-0.035-0.014-0.07-0.018-0.104
	c0.045-0.307,0.205-0.712,0.164-1.034c-0.063-0.468-0.198-0.966-0.119-1.465c0.095-0.592-0.454-1.396-0.293-1.846
	c0.129-0.352,0.455-0.41,0.645-0.673c0.217-0.394,0.43-0.783,0.645-1.175c0.185-0.519-0.104-0.975-0.174-1.463
	c-0.055-0.367,0.237-0.763,0.321-1.112c0.069-0.021,0.138-0.039,0.206-0.058c0.729,0.561,2.746,1.709,4.1,1.434
	C98.195,59.758,98.323,58.379,98.041,57.189z M8.826,82.409c-0.189-0.484-0.146-2.074-0.058-2.664v-2.343
	c0.039-0.754,0.08-1.506,0.117-2.258c0.161,0.074,0.258,0.287,0.38,0.322C9.12,77.781,8.974,80.096,8.826,82.409z M28.569,55.193
	c-0.039-0.076-0.094-0.467-0.156-0.984c0.074,0.001,0.147,0.003,0.222,0.005C28.599,54.781,28.569,55.193,28.569,55.193z
	 M54.254,55.55v0.03c-0.107-0.061-0.064-0.001-0.088-0.146C54.193,55.473,54.223,55.514,54.254,55.55z M74.988,52.241h-0.027
	c-0.068-0.203-0.251-0.013-0.439,0.089c0.043-0.318,0.137-0.377,0.295-0.559c0.072,0.065,0.082,0.123,0.086,0.267
	c0.068-0.019,0.035-0.008,0.119-0.06C75.01,52.064,75,52.154,74.988,52.241z M76.775,54.146h-0.028
	c-0.117-0.068-0.233-0.138-0.353-0.205c0.032-0.393,0.211-0.621,0.353-0.909C77.037,53.395,76.842,53.678,76.775,54.146z
	 M82.079,78.03c-0.04-0.019-0.044-0.034-0.032-0.069c0.014-0.034,0.063-0.088,0.083-0.084c0.022,0.005,0.045,0.044,0.036,0.079
	C82.158,77.991,82.118,78.049,82.079,78.03z"/>
</svg>
