<?xml version="1.0" encoding="utf-8"?>
<!-- Generator: Adobe Illustrator 16.0.0, SVG Export Plug-In . SVG Version: 6.00 Build 0)  -->
<!DOCTYPE svg PUBLIC "-//W3C//DTD SVG 1.1//EN" "http://www.w3.org/Graphics/SVG/1.1/DTD/svg11.dtd">
<svg version="1.1" id="Layer_1" xmlns="http://www.w3.org/2000/svg" xmlns:xlink="http://www.w3.org/1999/xlink" x="0px" y="0px"
	 width="100px" height="100px" viewBox="0 0 100 100" enable-background="new 0 0 100 100" xml:space="preserve">
<g>
	<path fill="none" stroke="#000000" d="M91.65,22.902c-0.25,0.187-1.197,1.99-2.846,5.41c-1.647,3.421-2.598,7.261-2.845,11.521
		c0.217,3.638,1.071,7.369,2.563,11.192c1.492,3.855,2.472,8.069,2.938,12.642c0.497,4.571-0.669,9.81-3.498,15.718
		c-2.799,5.658-6.544,9.563-11.239,11.707s-11.271,3.156-19.729,3.032c-2.301,0.124-4.042,0.604-5.225,1.444
		C50.59,96.407,50,96.889,50,97.014l-1.772-1.445c-1.181-0.84-2.923-1.32-5.224-1.444c-8.457,0.124-15.034-0.888-19.729-3.032
		c-4.694-2.146-8.441-6.049-11.24-11.707C9.206,73.477,8.04,68.239,8.537,63.667c0.467-4.571,1.446-8.785,2.938-12.642
		c1.523-3.823,2.379-7.554,2.565-11.192c-0.249-4.26-1.197-8.1-2.846-11.521c-1.647-3.42-2.596-5.224-2.845-5.41L25.747,2.986
		c4.757,4.167,9.018,6.032,12.779,5.597C42.258,8.179,46.082,6.313,50,2.986c3.918,3.327,7.743,5.193,11.475,5.597
		c3.762,0.435,8.021-1.43,12.778-5.597L91.65,22.902"/>
</g>
</svg>
