<?xml version="1.0" encoding="utf-8"?>
<!-- Generator: Adobe Illustrator 16.0.0, SVG Export Plug-In . SVG Version: 6.00 Build 0)  -->
<!DOCTYPE svg PUBLIC "-//W3C//DTD SVG 1.1//EN" "http://www.w3.org/Graphics/SVG/1.1/DTD/svg11.dtd">
<svg version="1.1" id="Layer_1" xmlns="http://www.w3.org/2000/svg" xmlns:xlink="http://www.w3.org/1999/xlink" x="0px" y="0px"
	 width="309.813px" height="241.411px" viewBox="-4.999 29.296 309.813 241.411"
	 enable-background="new -4.999 29.296 309.813 241.411" xml:space="preserve">
<path fill="none" stroke="#000000" stroke-width="10" d="M182.051,34.31c-0.647,0.021-1.273,0.075-1.923,0.14
	c-10.401,1.036-19.582,7.637-24.246,17.474l-2.473,7.443c0.533-2.58,1.353-5.081,2.473-7.443
	c-8.317-8.618-19.992-12.595-31.527-10.729s-21.553,9.351-27.028,20.199c-15.455-9.519-34.721-8.942-49.625,1.503
	s-22.848,28.939-20.434,47.598l1.58,7.583c-0.714-2.484-1.247-5.012-1.58-7.583l-0.24,0.699
	c-12.956,1.412-23.581,11.464-26.341,24.917c-2.76,13.453,2.979,27.256,14.218,34.213l17.549,4.263
	c-6.128,0.504-12.246-0.981-17.549-4.263c-8.669,9.71-10.664,24.087-4.945,35.96c5.718,11.873,17.931,18.709,30.531,17.159
	l7.658-2.027c-2.464,1.031-5.023,1.703-7.658,2.027c7.152,13.167,19.012,22.772,32.935,26.595c13.922,3.821,28.71,1.563,41.04-6.256
	c10.059,15.862,27.911,24.194,45.813,21.388c17.902-2.807,32.67-16.266,37.915-34.527l1.819-10.205
	c-0.272,3.467-0.863,6.875-1.819,10.205c12.313,8.074,27.802,8.529,40.524,1.188c12.722-7.342,20.66-21.341,20.777-36.589
	l-4.562-22.782l-17.968-15.415c13.894,8.704,22.652,21.963,22.529,38.197c16.52,0.173,30.553-13.983,36.85-30.229
	c6.297-16.247,3.915-34.768-6.251-48.681c4.217-10.358,3.967-22.142-0.687-32.291c-4.653-10.149-13.236-17.693-23.56-20.654
	c-2.31-13.451-11.832-24.271-24.417-27.817c-12.585-3.546-25.986,0.826-34.412,11.252l-5.116,8.632
	c1.307-3.122,3.015-6.031,5.116-8.632C201.078,38.627,191.763,34.003,182.051,34.31z"/>
</svg>
