<svg xmlns="http://www.w3.org/2000/svg" width="211" height="291" id="svgcontent" overflow="hidden" x="0" y="0" viewBox="0 0 211 291"><g style="pointer-events:all" mask=""><title style="pointer-events:inherit">Layer 1</title><g display="null" id="svg_6" style="pointer-events:inherit" clip-id="284"><g id="svg_5" transform="matrix(0.798095, 0, 0, 0.798095, 0.129656, 19.3929)" style="pointer-events:inherit"><g id="svg_7" style="pointer-events:inherit"><path fill-rule="evenodd" clip-rule="evenodd" fill="#ffffff" d="M63.63259,162.89871C45.84459,162.89871 31.42358,177.33673 31.42358,195.14471C31.42358,212.95172 45.84459,227.38873 63.63259,227.38873C81.42159,227.38873 95.84157,212.95172 95.84157,195.14471C95.84157,177.33673 81.42159,162.89871 63.63259,162.89871zM109.48458,199.28872L112.96258,195.03671L109.48559,190.30673L112.02358,185.50973L107.73559,181.49572L109.24859,176.34573L104.30158,173.19671L104.73958,167.90272L99.31559,165.7277L98.67058,160.50172L92.96958,159.37472L91.2786,154.42672L85.50858,154.38473L82.84258,149.90971L77.21958,150.94671L73.69158,147.13171L68.41958,149.19471L64.16958,146.19169L59.44559,149.19369L54.64959,147.1307L50.64359,150.94669L45.49759,149.90969L42.35259,154.3847L37.06259,154.42469L34.89159,159.37569L29.66658,160.50069L28.54558,165.72968L23.59958,167.90268L23.56158,173.19666L19.09158,176.34366L20.12758,181.49567L16.31558,185.50666L18.37658,190.30669L15.37758,195.03469L18.37658,199.28869L16.31358,204.56667L20.12758,208.09969L19.09058,213.72768L23.56058,216.39768L23.59958,222.17267L28.54458,223.86768L29.66758,229.57468L34.89159,230.22068L37.06159,235.64971L42.35259,235.20971L45.49759,240.16271L50.64359,238.64867L54.64959,242.9417L59.44459,240.4027L64.16858,243.88169L68.41758,240.4027L73.68758,242.94469L77.22058,238.64867L82.84259,240.16271L85.51059,235.20971L91.27759,235.64971L92.97159,230.22068L98.6706,229.57671L99.3166,223.8677L104.7386,222.17468L104.3016,216.3977L109.2476,213.73068L107.73561,208.09971L112.0236,204.56669L109.4846,199.28872L109.48459,199.28872L109.48458,199.28872zM96.79659,198.09872L98.62359,201.89871L95.53658,204.44272L96.62458,208.49573L93.06258,210.41873L93.37758,214.57672L89.47458,215.79672L89.00858,219.90674L84.90458,220.36972L83.68558,224.27872L79.53357,223.96372L77.61258,227.52973L73.56557,226.43674L71.02257,229.52973L67.22857,227.70072L64.16758,230.20475L60.76758,227.70072L57.31559,229.52872L54.43059,226.43674L50.72459,227.52872L48.46159,223.96274L44.65159,224.27774L43.08859,220.36871L39.32759,219.90371L38.51959,215.79571L34.95759,214.57473L34.93059,210.41772L31.71158,208.49371L32.45859,204.44171L29.71258,201.89773L31.19558,198.09771L29.03758,195.03471L31.19558,191.63073L29.71258,188.17373L32.45859,185.28671L31.71158,181.57672L34.93159,179.31174L34.95859,175.49674L38.52059,173.93372L39.32859,170.16773L43.09059,169.35874L44.65259,165.79471L48.46358,165.76673L50.72758,162.54572L54.43158,163.29172L57.31759,160.54373L60.76958,162.03171L64.16957,159.86774L67.22957,162.03171L71.02558,160.54373L73.56558,163.29172L77.61457,162.54572L79.53557,165.76673L83.68759,165.79572L84.90657,169.35874L89.01159,170.17072L89.47557,173.93372L93.38057,175.49872L93.06357,179.31174L96.62658,181.57874L95.53758,185.28672L98.62458,188.17673L96.79759,191.63074L99.30058,195.03672L96.79657,198.09873L96.79659,198.09873L96.79659,198.09872z" id="svg_8" stroke="#7f3f00" style="pointer-events:inherit"/></g></g></g><g display="null" id="svg_12" style="pointer-events:inherit" clip-id="346"><g transform="matrix(0.716053, 0, 0, 0.716053, 2.6603, 29.7471)" id="svg_11" style="pointer-events:inherit"><g id="svg_13" style="pointer-events:inherit"><path id="svg_14" d="M75.37682,226.81198C73.85282,226.81198 72.62481,226.03897 71.93081,225.47296C71.09381,229.07696 69.92883,232.40298 68.73281,235.27096C69.42081,235.90997 70.74081,236.87196 72.50381,236.87196C74.29581,236.87196 76.39982,236.21197 77.57181,235.78698C77.87382,232.58398 78.14081,228.96095 78.27281,225.20596C77.77682,225.90497 76.84881,226.81198 75.37681,226.81198L75.37683,226.81198L75.37682,226.81198zM68.59781,235.58496C66.05682,241.58298 63.41281,245.49298 63.41281,245.49298S66.04381,249.80496 69.63281,250.04397S76.09182,247.64898 76.09182,247.64898S76.89182,242.84196 77.54081,236.08697C76.45881,236.75996 74.55381,237.70898 72.38481,237.70898C70.22381,237.70996 69.11781,236.46997 68.59781,235.58496zM76.09182,215.43596C77.13783,215.20296 77.78281,214.60596 78.17482,214.05097C77.85682,208.91297 77.08781,204.09597 75.62381,200.33896C75.36481,201.00096 74.82782,201.86197 73.69981,202.14397C72.25481,202.50397 71.33883,202.22997 70.97581,202.07297C72.2788,205.98497 73.22081,210.38097 73.22081,215.07797C73.22081,215.18997 73.20982,215.30296 73.20681,215.41496C73.59882,215.56096 74.51982,215.78596 76.09182,215.43596zM98.72681,186.45796C90.12282,179.50197 75.07281,179.00696 73.25181,179.00696C72.7078,179.00696 70.89482,179.09097 68.30382,179.47898C70.31782,178.83797 73.22481,178.17797 76.72481,178.17797C83.50781,178.17797 91.44681,178.17797 91.44681,178.17797S91.11682,177.18398 89.62681,176.68796C88.1398,176.18997 87.14781,176.18997 87.14781,176.18997S87.6438,175.52797 89.13081,175.52797C90.62081,175.52797 93.2678,176.02597 93.2678,176.02597S92.4398,174.53596 91.1178,174.36996C89.7938,174.20396 88.1398,174.20396 88.1398,174.20396S90.4548,173.20996 92.43981,173.20996C94.42581,173.20996 99.3888,173.70796 99.3888,173.70796S98.89281,172.54797 97.7348,172.21795C96.5768,171.88595 95.58481,171.88595 95.58481,171.88595S97.23881,170.89195 100.87781,170.89195C104.51581,170.89195 109.47882,172.87997 109.47882,172.87997S100.87781,163.60595 85.82483,168.90495C71.84682,173.82594 68.28584,177.02894 67.84782,177.46095C68.13282,177.16897 72.27382,172.96394 77.22282,170.72796C82.35183,168.40997 89.95983,165.59295 89.95983,165.59295L85.65983,165.42895C85.65983,165.42895 86.81583,164.43394 88.63584,163.93893C90.45584,163.43995 92.11082,162.61193 92.11082,162.61193S91.44883,162.11593 89.79483,162.28193C88.14183,162.44593 86.98283,162.77793 86.98283,162.77793S88.80284,161.28791 91.11882,160.79194C93.43283,160.29394 95.58582,160.29394 95.58582,160.29394S95.08782,158.80393 93.10383,158.80393S89.79482,158.80393 89.79482,158.80393S90.78682,157.47991 94.59182,156.32194C98.39682,155.16195 103.69184,154.66593 103.69184,154.66593S89.46483,150.68891 81.35683,157.97494C73.25283,165.26293 66.96682,174.86593 66.96682,174.86593S68.45482,170.72692 68.28882,167.58093C68.12282,164.43394 66.80082,161.78393 66.80082,161.78393L65.47681,166.25692C65.47681,166.25692 65.64281,164.92992 64.98082,163.77193C64.31884,162.61193 62.99682,159.79691 62.99682,159.79691S64.31884,163.10991 62.99682,164.92992C61.67283,166.75292 61.83883,167.41492 61.83883,167.41492L59.68882,158.47292L60.35082,165.42893C60.35082,165.42893 59.68882,161.61991 57.20582,158.80393C54.72582,155.98992 51.25083,154.66492 51.25083,154.66492S54.22984,156.48493 55.55182,160.95591C56.87583,165.42893 57.53782,167.74793 57.53782,167.74793L51.25083,163.77291L56.21382,168.40992L48.43882,165.92591L59.19283,172.3819L51.91382,171.22391L61.32582,177.8559C58.10782,176.4599 52.72082,175.2569 44.13882,176.19091C27.43082,178.01293 25.61282,191.09493 25.61282,191.09493S26.10882,190.43293 28.92182,188.44492C31.73182,186.45893 34.71082,185.79693 34.71082,185.79693S34.54382,186.35793 34.54382,187.61892C34.54382,188.77694 35.37283,190.10093 35.37283,190.10093S36.69482,187.61892 37.19283,186.62392C37.68882,185.62992 40.16982,184.13993 40.16982,184.13993S39.67382,184.80193 39.34382,185.62994C39.01183,186.45794 40.00382,187.45193 40.00382,187.45193S41.49382,185.29992 43.31182,183.97294C45.13182,182.64892 47.77882,181.65394 47.77882,181.65394S46.95282,182.81495 46.12482,183.97294C45.29883,185.13293 46.29082,186.29095 46.29082,186.29095S49.10382,184.47094 52.57782,183.14494C54.09382,182.56695 56.74882,182.01896 59.25683,181.58796C54.09783,183.23095 48.21682,185.90095 42.81682,190.26594C29.91282,200.69894 37.19183,212.95393 37.19183,212.95393S37.52182,209.97393 38.18382,207.82093S40.00182,204.50793 40.00182,204.50793S40.33383,205.16993 40.99582,205.99795C41.65582,206.82594 43.30982,207.15794 43.30982,207.15794S42.64982,205.16995 43.30982,203.01594C43.97182,200.86395 45.29582,199.04194 45.29582,199.04194S45.29582,200.03593 45.46182,201.02995C45.62582,202.02496 46.94982,202.52096 46.94982,202.52096S46.61782,199.37396 47.27982,197.71797C47.94182,196.06097 49.26582,194.90396 49.26582,194.90396L50.58782,196.88997L52.24182,191.42697L53.89582,192.91696C53.89582,192.91696 54.72382,188.94197 56.70782,187.11996C58.39682,185.57196 59.15382,184.26297 62.69082,182.88696C60.95282,184.71795 58.28682,188.01497 54.88782,193.74296C48.60282,204.34396 51.24882,215.27096 51.24882,215.27096L56.21182,204.34297L58.03182,208.97796L59.18982,196.88995L61.33983,199.53994L62.33183,194.90295L64.31582,197.55093L65.37483,190.25895C67.13682,193.05795 69.32382,197.14494 70.94982,201.99795C71.29783,202.03196 72.39883,202.08894 73.82482,201.51495C74.74383,201.14596 75.24383,200.56794 75.53082,200.11895C75.12782,199.11895 74.68783,198.17796 74.17682,197.35194C71.20082,192.53196 69.22283,189.22996 67.90582,186.96496L68.28782,184.79995L75.73283,197.05395L76.55783,192.91494L82.67884,200.36593L81.52084,195.39695L88.63284,204.50494C88.63284,204.50494 89.29483,203.67593 89.46183,202.68493C89.62484,201.68993 88.96584,200.03393 88.96584,200.03393L95.41584,207.81794C95.41584,207.81794 96.07783,198.87594 85.49083,189.26994C80.98484,185.18295 72.51783,182.64297 68.00383,181.51495C71.81283,181.13496 75.06984,182.37295 80.69384,184.46995C87.80684,187.11793 93.26484,194.07394 93.26484,194.07394S93.26484,192.25193 93.26484,191.25993C93.26484,190.26594 91.44484,188.94195 91.44484,188.94195S93.26484,189.60394 94.91983,190.59794C96.57383,191.58993 98.39283,193.07995 98.39283,193.07995L96.73883,189.27093C96.73883,189.27093 99.71783,191.58892 101.70183,192.74993C103.68783,193.90792 107.32583,194.40693 107.32583,194.40693S107.32783,193.41393 98.72683,186.45792L98.72681,186.45794L98.72681,186.45796zM75.85283,216.27496C74.25182,216.43396 73.51882,215.95596 73.20282,215.61895C73.15682,218.94296 72.68482,222.17796 71.98782,225.23396C72.75682,225.58798 74.04382,226.09396 75.13681,226.09396C76.32681,226.09396 77.6278,225.25296 78.2848,224.76297C78.3948,221.35397 78.3948,217.85597 78.2008,214.47197C77.78781,215.29097 77.0698,216.15196 75.8528,216.27496L75.85282,216.27496L75.85283,216.27496z" fill="#7f3f00" clip-rule="evenodd" fill-rule="evenodd" style="pointer-events:inherit"/></g></g></g><g display="null" shapeVal="0" shapeId="0" lineHeight="1" font-style="normal" font-weight="normal" text-anchor="start" stroke="ffffff" fill="1f5600" font-family="Molot" font-size="25.41854" text="ADVENTURE" type="text" id="svg_18" style="pointer-events:inherit"><path d="M78.57045,191.16852C78.57045,191.16852 80.26504,191.16852 80.26504,191.16852C80.26504,191.16852 79.70018,185.87293 79.70018,185.87293C79.70018,185.87293 79.13531,185.87293 79.13531,185.87293C79.13531,185.87293 78.57044,191.16852 78.57044,191.16852M74.75762,181.42462C74.75762,181.42462 84.07786,181.42462 84.07786,181.42462C84.85454,187.4263 86.33731,192.72186 86.54913,199.2178C86.54913,199.2178 80.97112,199.2178 80.97112,199.2178C80.97112,199.2178 80.61808,195.61679 80.61808,195.61679C80.61808,195.61679 78.21741,195.61679 78.21741,195.61679C78.21741,195.61679 77.86437,199.2178 77.86437,199.2178C77.86437,199.2178 72.28636,199.2178 72.28636,199.2178C72.49818,192.65127 74.05155,187.4263 74.75763,181.42462C74.75763,181.42462 74.75763,181.42462 74.75763,181.42462M93.60992,185.87292C93.60992,185.87292 93.60992,194.7695 93.60992,194.7695C93.60992,194.7695 95.86937,194.7695 95.86937,194.7695C95.86937,194.7695 95.86937,185.87292 95.86937,185.87292C95.86937,185.87292 93.60992,185.87292 93.60992,185.87292C93.60992,185.87292 93.60992,185.87292 93.60992,185.87292M99.18794,199.2178C99.18794,199.2178 88.0319,199.2178 88.0319,199.2178C88.0319,199.2178 88.0319,181.42462 88.0319,181.42462C88.0319,181.42462 99.18794,181.42462 99.18794,181.42462C100.45888,181.42462 101.37678,182.34253 101.37678,183.61346C101.37678,183.61346 101.37678,197.02896 101.37678,197.02896C101.37678,198.2999 100.45889,199.2178 99.18794,199.2178C99.18794,199.2178 99.18794,199.2178 99.18794,199.2178M105.47203,199.2178C105.47203,199.2178 102.64772,182.90738 102.64772,182.90738C102.64772,182.90738 102.64772,181.42462 102.64772,181.42462C102.64772,181.42462 108.15513,181.42462 108.15513,181.42462C108.15513,181.42462 109.28486,194.7695 109.28486,194.7695C109.28486,194.7695 109.92033,194.7695 109.92033,194.7695C109.92033,194.7695 111.05005,181.42462 111.05005,181.42462C111.05005,181.42462 116.62806,181.42462 116.62806,181.42462C116.20441,187.84994 114.65105,193.14554 113.80376,199.2178C113.80376,199.2178 105.47203,199.2178 105.47203,199.2178C105.47203,199.2178 105.47203,199.2178 105.47203,199.2178M129.76112,199.2178C129.76112,199.2178 117.82841,199.2178 117.82841,199.2178C117.82841,199.2178 117.82841,181.42462 117.82841,181.42462C117.82841,181.42462 129.76112,181.42462 129.76112,181.42462C129.97294,183.40164 129.40809,184.67258 128.84321,185.87292C128.84321,185.87292 123.40641,185.87292 123.40641,185.87292C123.40641,185.87292 123.40641,187.84994 123.40641,187.84994C123.40641,187.84994 128.84321,187.84994 128.84321,187.84994C128.84321,187.84994 128.84321,192.29821 128.84321,192.29821C128.84321,192.29821 123.40641,192.29821 123.40641,192.29821C123.40641,192.29821 123.40641,194.76949 123.40641,194.76949C123.40641,194.76949 129.76112,194.76949 129.76112,194.76949C129.76112,194.76949 129.76112,199.21779 129.76112,199.21779C129.76112,199.21779 129.76112,199.21779 129.76112,199.21779M139.78743,189.68572C139.78743,189.68572 140.21109,189.68572 140.21109,189.68572C139.92865,186.93203 139.4344,184.53136 139.505,181.42461C139.505,181.42461 144.58877,181.42461 144.58877,181.42461C144.58877,181.42461 144.58877,199.21779 144.58877,199.21779C144.58877,199.21779 138.72831,199.21779 138.72831,199.21779C138.72831,199.21779 136.11582,191.02727 136.11582,191.02727C136.11582,191.02727 135.69217,191.02727 135.69217,191.02727C135.97461,193.71038 136.46886,196.18166 136.39826,199.21779C136.39826,199.21779 131.24389,199.21779 131.24389,199.21779C131.24389,199.21779 131.24389,181.42461 131.24389,181.42461C131.24389,181.42461 137.17494,181.42461 137.17494,181.42461C137.17494,181.42461 139.78743,189.68572 139.78743,189.68572M149.17827,185.87291C149.17827,185.87291 145.85971,185.87291 145.85971,185.87291C145.85971,185.87291 145.85971,181.42461 145.85971,181.42461C145.85971,181.42461 158.28668,181.42461 158.28668,181.42461C158.4985,183.40163 157.93364,184.67257 157.36877,185.87291C157.36877,185.87291 154.75628,185.87291 154.75628,185.87291C154.75628,185.87291 154.75628,199.21779 154.75628,199.21779C154.75628,199.21779 149.17826,199.21779 149.17826,199.21779C149.17826,199.21779 149.17826,185.87291 149.17826,185.87291C149.17826,185.87291 149.17826,185.87291 149.17826,185.87291M167.32447,181.42461C167.32447,181.42461 172.83189,181.42461 172.83189,181.42461C172.83189,181.42461 172.83189,199.21779 172.83189,199.21779C172.83189,199.21779 161.74646,199.21779 161.74646,199.21779C160.40491,199.21779 159.48701,198.29988 159.48701,197.02895C159.48701,197.02895 159.48701,181.42461 159.48701,181.42461C159.48701,181.42461 165.06503,181.42461 165.06503,181.42461C165.06503,181.42461 165.06503,194.76949 165.06503,194.76949C165.06503,194.76949 167.32448,194.76949 167.32448,194.76949C167.32448,194.76949 167.32448,181.42461 167.32448,181.42461C167.32448,181.42461 167.32448,181.42461 167.32448,181.42461M182.64638,185.87291C182.64638,185.87291 180.38693,185.87291 180.38693,185.87291C180.38693,185.87291 180.38693,189.26207 180.38693,189.26207C180.38693,189.26207 182.64638,189.26207 182.64638,189.26207C182.64638,189.26207 182.64638,185.87291 182.64638,185.87291C182.64638,185.87291 182.64638,185.87291 182.64638,185.87291M174.80892,181.42461C174.80892,181.42461 185.96494,181.42461 185.96494,181.42461C189.56594,181.56585 188.15378,187.21447 188.15378,190.60363C188.15378,191.45092 187.58893,192.43945 186.74162,192.65127C187.3771,194.7695 188.71864,196.18167 188.43622,199.2178C188.43622,199.2178 182.99941,199.2178 182.99941,199.2178C182.99941,199.2178 181.51665,193.71038 181.51665,193.71038C181.51665,193.71038 180.38694,193.71038 180.38694,193.71038C180.38694,193.71038 180.38694,199.2178 180.38694,199.2178C180.38694,199.2178 174.80892,199.2178 174.80892,199.2178C174.80892,199.2178 174.80892,181.42462 174.80892,181.42462C174.80892,181.42462 174.80892,181.42462 174.80892,181.42462M201.85171,199.2178C201.85171,199.2178 189.91899,199.2178 189.91899,199.2178C189.91899,199.2178 189.91899,181.42462 189.91899,181.42462C189.91899,181.42462 201.85171,181.42462 201.85171,181.42462C202.06353,183.40164 201.49867,184.67258 200.9338,185.87292C200.9338,185.87292 195.497,185.87292 195.497,185.87292C195.497,185.87292 195.497,187.84994 195.497,187.84994C195.497,187.84994 200.9338,187.84994 200.9338,187.84994C200.9338,187.84994 200.9338,192.29821 200.9338,192.29821C200.9338,192.29821 195.497,192.29821 195.497,192.29821C195.497,192.29821 195.497,194.76949 195.497,194.76949C195.497,194.76949 201.85171,194.76949 201.85171,194.76949C201.85171,194.76949 201.85171,199.21779 201.85171,199.21779C201.85171,199.21779 201.85171,199.21779 201.85171,199.21779" stroke="#ffffff" fill="#1f5600" id="svg_24" style="pointer-events:inherit"/></g><g id="svg_22" display="null" shapeVal="0" shapeId="0" lineHeight="1" font-style="normal" font-weight="normal" text-anchor="start" stroke="ffffff" fill="7f3f00" font-family="Molot" font-size="28.60572" text="WORLD" type="text" style="pointer-events:inherit"><path id="svg_23" d="M90.46972,149.42545C90.46972,149.42545 95.71431,149.42545 95.71431,149.42545C95.71431,149.42545 97.22412,159.04056 97.22412,159.04056C97.22412,159.04056 97.78036,159.04056 97.78036,159.04056C97.78036,159.04056 97.78036,149.42545 97.78036,149.42545C97.78036,149.42545 103.81959,149.42545 103.81959,149.42545C103.66067,156.57718 102.38925,162.69587 101.833,169.45029C101.833,169.45029 94.8402,169.45029 94.8402,169.45029C94.8402,169.45029 93.25094,161.58338 93.25094,161.58338C93.25094,161.58338 92.85362,161.58338 92.85362,161.58338C92.85362,161.58338 91.34382,169.45029 91.34382,169.45029C91.34382,169.45029 84.35102,169.45029 84.35102,169.45029C84.35102,169.45029 82.28497,151.88883 82.28497,151.88883C82.28497,151.88883 82.28497,149.42545 82.28497,149.42545C82.28497,149.42545 88.40366,149.42545 88.40366,149.42545C88.40366,149.42545 88.40366,159.04056 88.40366,159.04056C88.40366,159.04056 88.88044,159.04056 88.88044,159.04056C88.88044,159.04056 90.46971,149.42545 90.46971,149.42545M114.30878,154.43166C114.30878,154.43166 111.76595,154.43166 111.76595,154.43166C111.76595,154.43166 111.76595,164.44407 111.76595,164.44407C111.76595,164.44407 114.30878,164.44407 114.30878,164.44407C114.30878,164.44407 114.30878,154.43166 114.30878,154.43166C114.30878,154.43166 114.30878,154.43166 114.30878,154.43166M118.04357,169.45029C118.04357,169.45029 108.03116,169.45029 108.03116,169.45029C106.52136,169.45029 105.48833,168.41725 105.48833,166.98691C105.48833,166.98691 105.48833,151.88883 105.48833,151.88883C105.48833,150.45849 106.52136,149.42545 108.03116,149.42545C108.03116,149.42545 118.04357,149.42545 118.04357,149.42545C119.55338,149.42545 120.50695,150.45849 120.50695,151.88883C120.50695,151.88883 120.50695,166.98691 120.50695,166.98691C120.50695,168.41725 119.55338,169.45029 118.04357,169.45029C118.04357,169.45029 118.04357,169.45029 118.04357,169.45029M131.55237,154.43166C131.55237,154.43166 129.00954,154.43166 129.00954,154.43166C129.00954,154.43166 129.00954,158.24591 129.00954,158.24591C129.00954,158.24591 131.55237,158.24591 131.55237,158.24591C131.55237,158.24591 131.55237,154.43166 131.55237,154.43166C131.55237,154.43166 131.55237,154.43166 131.55237,154.43166M122.73192,149.42545C122.73192,149.42545 135.28716,149.42545 135.28716,149.42545C139.3398,149.58439 137.75054,155.94147 137.75054,159.75573C137.75054,160.7093 137.11483,161.82179 136.16128,162.06017C136.87644,164.44407 138.38626,166.03335 138.0684,169.45029C138.0684,169.45029 131.9497,169.45029 131.9497,169.45029C131.9497,169.45029 130.28097,163.25211 130.28097,163.25211C130.28097,163.25211 129.00955,163.25211 129.00955,163.25211C129.00955,163.25211 129.00955,169.45029 129.00955,169.45029C129.00955,169.45029 122.73193,169.45029 122.73193,169.45029C122.73193,169.45029 122.73193,149.42545 122.73193,149.42545C122.73193,149.42545 122.73193,149.42545 122.73193,149.42545M139.73713,169.45029C139.73713,169.45029 139.73713,149.42545 139.73713,149.42545C139.73713,149.42545 146.01476,149.42545 146.01476,149.42545C146.01476,149.42545 146.01476,164.44407 146.01476,164.44407C146.01476,164.44407 152.29238,164.44407 152.29238,164.44407C152.29238,164.44407 152.29238,169.4503 152.29238,169.4503C152.29238,169.4503 139.73713,169.4503 139.73713,169.4503C139.73713,169.4503 139.73713,169.4503 139.73713,169.4503M159.92089,154.43167C159.92089,154.43167 159.92089,164.44408 159.92089,164.44408C159.92089,164.44408 162.46372,164.44408 162.46372,164.44408C162.46372,164.44408 162.46372,154.43167 162.46372,154.43167C162.46372,154.43167 159.92089,154.43167 159.92089,154.43167C159.92089,154.43167 159.92089,154.43167 159.92089,154.43167M166.19851,169.4503C166.19851,169.4503 153.64326,169.4503 153.64326,169.4503C153.64326,169.4503 153.64326,149.42546 153.64326,149.42546C153.64326,149.42546 166.19851,149.42546 166.19851,149.42546C167.62884,149.42546 168.66187,150.4585 168.66187,151.88884C168.66187,151.88884 168.66187,166.98692 168.66187,166.98692C168.66187,168.41726 167.62883,169.4503 166.19851,169.4503C166.19851,169.4503 166.19851,169.4503 166.19851,169.4503" stroke="#ffffff" fill="#7f3f00" style="pointer-events:inherit"/></g></g><defs><path fill="#000000" stroke="#000000" d="M63.4709,296.16129Q98.9709,298.16129 134.50809,295.91129" id="svg_2"/><path fill="#000000" stroke="#000000" d="M70.58727,200.60025Q124.98729,202.60025 179.42886,200.35025" id="svg_4"/><path id="svg_17" d="M-5327.31641,5566.26221A5443.09912,5443.09912 0 0 1 5558.88183,5566.26221A5443.09912,5443.09912 0 0 1 -5327.31641,5566.26221A5443.09912,5443.09912 0 0 1 5558.88183,5566.26221A5443.09912,5443.09912 0 0 1 -5327.31641,5566.26221" stroke="#000000" fill="#000000"/><path id="svg_20" d="M-8289.14941,8626.30664A8422.47949,8422.47949 0 0 1 8555.80957,8626.30664A8422.47949,8422.47949 0 0 1 -8289.14941,8626.30664A8422.47949,8422.47949 0 0 1 8555.80957,8626.30664A8422.47949,8422.47949 0 0 1 -8289.14941,8626.30664" stroke="#000000" fill="#000000"/><path fill="#000000" stroke="#000000" d="M-5319.12646,5611.94922A5443.09912,5443.09912 0 0 1 5567.07178,5611.94922A5443.09912,5443.09912 0 0 1 -5319.12646,5611.94922A5443.09912,5443.09912 0 0 1 5567.07178,5611.94922A5443.09912,5443.09912 0 0 1 -5319.12646,5611.94922" id="svg_9"/><path fill="#000000" stroke="#000000" d="M-5308.82666,5642.94922A5443.09912,5443.09912 0 0 1 5577.37158,5642.94922A5443.09912,5443.09912 0 0 1 -5308.82666,5642.94922A5443.09912,5443.09912 0 0 1 5577.37158,5642.94922A5443.09912,5443.09912 0 0 1 -5308.82666,5642.94922" id="svg_16"/></defs></svg>