<svg xmlns="http://www.w3.org/2000/svg" xmlns:se="http://svg-edit.googlecode.com" xmlns:xlink="http://www.w3.org/1999/xlink" id="svgcontent" width="205.65" height="395.85" x="0" y="0" viewBox="0 0 205.65 395.85" overflow="hidden"><g mask="" style="pointer-events:all"><title style="pointer-events:inherit">Layer 1</title><g id="svg_1" type="text" text="LITTLE" font-size="26.987667610477537" font-family="Janda Curlygirl Pop" fill="000000" text-anchor="start" font-weight="normal" font-style="normal" lineHeight="1" shapeId="0" shapeVal="0" fill-opacity="1" display="null" elemBBoxWidth="102.328125" stroke="null" stroke-dasharray="none" style="pointer-events:inherit"><path id="svg_11" fill="#000000" stroke-width="0" d="M89.67339,139.4068C89.67339,139.4068 90.94781,139.4068 90.94781,139.4068C90.94781,139.4068 90.94781,136.10831 90.94781,136.10831C90.94781,136.10831 89.67339,136.10831 89.67339,136.10831C89.67339,136.10831 89.67339,137.45769 89.67339,137.45769C89.67339,137.45769 80.52757,137.45769 80.52757,137.45769C80.52757,137.45769 80.52757,118.94115 80.52757,118.94115C80.52757,118.94115 81.87695,118.94115 81.87695,118.94115C81.87695,118.94115 81.87695,117.51681 81.87695,117.51681C81.87695,117.51681 74.9801,117.51681 74.9801,117.51681C74.9801,117.51681 74.9801,118.94115 74.9801,118.94115C74.9801,118.94115 76.55438,118.94115 76.55438,118.94115C76.55438,118.94115 76.32948,138.88203 76.32948,138.88203C76.32948,138.88203 89.67339,138.88203 89.67339,138.88203C89.67339,138.88203 89.67339,139.4068 89.67339,139.4068C89.67339,139.4068 89.67339,139.4068 89.67339,139.4068M82.02688,120.44048C82.02688,120.44048 82.02688,137.15784 82.02688,137.15784C82.02688,137.15784 89.44849,137.15784 89.44849,137.15784C89.44849,137.15784 89.44849,135.80844 89.44849,135.80844C91.02277,135.50858 91.69746,136.40817 92.44712,137.2328C92.44712,137.2328 92.44712,140.90611 92.44712,140.90611C91.54753,140.90611 90.57298,140.98108 90.27311,140.38136C90.27311,140.38136 77.45397,140.38136 77.45397,140.38136C76.92921,140.00653 76.70432,139.33183 76.02962,139.10695C76.02962,139.10695 76.32948,120.44048 76.32948,120.44048C75.50486,120.29053 75.4299,119.39095 74.68024,119.16605C74.68024,119.16605 74.68024,117.21693 74.68024,117.21693C77.07914,117.36687 80.07777,116.91708 82.17681,117.36687C82.17681,117.36687 83.37627,118.64129 83.37627,118.64129C83.37627,118.64129 83.37627,120.44048 83.37627,120.44048C83.37627,120.44048 82.02688,120.44048 82.02688,120.44048C82.02688,120.44048 82.02688,120.44048 82.02688,120.44048M92.89691,138.20735C92.89691,138.20735 92.89691,139.33183 92.89691,139.33183C92.89691,139.33183 107.29034,139.1819 107.29034,139.1819C107.29034,139.1819 107.29034,137.90749 107.29034,137.90749C107.29034,137.90749 101.21811,138.05742 101.21811,138.05742C101.21811,138.05742 101.21811,118.79122 101.21811,118.79122C101.21811,118.79122 107.21537,118.86619 107.21537,118.86619C107.21537,118.86619 107.29034,117.7417 107.29034,117.7417C107.29034,117.7417 92.82195,117.81667 92.82195,117.81667C92.82195,117.81667 92.82195,118.86619 92.82195,118.86619C92.82195,118.86619 97.61976,118.86619 97.61976,118.86619C97.61976,118.86619 97.69473,138.13239 97.69473,138.13239C97.69473,138.13239 92.89691,138.20735 92.89691,138.20735M97.39486,137.90749C97.39486,137.90749 97.39486,120.36549 97.39486,120.36549C97.39486,120.36549 93.94643,120.36549 93.94643,120.36549C93.49664,119.99067 93.19678,119.31597 92.59705,119.09108C92.59705,119.09108 92.59705,117.51681 92.59705,117.51681C92.59705,117.51681 107.5902,117.44184 107.5902,117.44184C107.51524,118.11652 108.48979,118.34143 108.78965,118.86619C108.78965,118.86619 108.63972,120.36549 108.63972,120.36549C108.63972,120.36549 102.71742,120.29053 102.71742,120.29053C102.71742,120.29053 102.71742,137.75755 102.71742,137.75755C104.21674,137.83252 106.31579,137.38272 107.5902,137.75755C107.5902,137.75755 108.78965,139.03198 108.78965,139.03198C108.78965,139.03198 108.78965,140.75618 108.78965,140.75618C108.78965,140.75618 94.09637,140.83115 94.09637,140.83115C93.57161,140.45631 93.3467,139.78163 92.67201,139.55673C92.67201,139.55673 92.67201,137.98245 92.67201,137.98245C92.67201,137.98245 97.39486,137.90749 97.39486,137.90749M126.48156,121.78986C126.48156,121.78986 128.05585,121.78986 128.05585,121.78986C128.05585,121.78986 128.05585,117.89163 128.05585,117.89163C128.05585,117.89163 126.48156,117.89163 126.48156,117.89163C126.48156,117.89163 126.48156,119.31597 126.48156,119.31597C126.48156,119.31597 110.13904,119.31597 110.13904,119.31597C110.13904,119.31597 110.13904,117.9666 110.13904,117.9666C110.13904,117.9666 108.56475,117.9666 108.56475,117.9666C108.56475,117.9666 108.56475,121.86481 108.56475,121.86481C108.56475,121.86481 110.13904,121.86481 110.13904,121.86481C110.13904,121.86481 110.13904,120.74033 110.13904,120.74033C110.13904,120.74033 115.4616,120.74033 115.4616,120.74033C115.4616,120.74033 115.4616,138.20735 115.4616,138.20735C115.4616,138.20735 113.58746,138.20735 113.58746,138.20735C113.58746,138.20735 113.58746,139.55673 113.58746,139.55673C113.58746,139.55673 121.45886,139.55673 121.45886,139.55673C121.45886,139.55673 121.45886,138.20735 121.45886,138.20735C121.45886,138.20735 120.10947,138.20735 120.10947,138.20735C120.10947,138.20735 120.18444,120.74033 120.18444,120.74033C120.18444,120.74033 126.48156,120.74033 126.48156,120.74033C126.48156,120.74033 126.48156,121.78986 126.48156,121.78986C126.48156,121.78986 126.48156,121.78986 126.48156,121.78986M109.68924,123.36414C109.16448,122.9893 108.93958,122.38957 108.26488,122.16467C108.26488,122.16467 108.26488,117.7417 108.26488,117.7417C109.91413,117.51681 110.81372,118.11652 111.56339,119.09108C111.56339,119.09108 126.25667,119.09108 126.25667,119.09108C126.25667,119.09108 126.25667,117.66673 126.25667,117.66673C127.90591,117.36687 128.80551,118.04156 129.55516,119.09108C129.55516,119.09108 129.55516,123.28915 129.55516,123.28915C129.55516,123.28915 127.60605,123.28915 127.60605,123.28915C127.60605,123.28915 126.55653,122.23964 126.55653,122.23964C126.55653,122.23964 121.68375,122.23964 121.68375,122.23964C121.68375,122.23964 121.6088,137.98245 121.6088,137.98245C122.05859,138.35728 122.50838,138.88203 123.03314,139.33183C123.03314,139.33183 123.03314,141.05605 123.03314,141.05605C123.03314,141.05605 114.71194,141.05605 114.71194,141.05605C114.26215,140.68121 113.96229,140.0815 113.36256,139.85658C113.36256,139.85658 113.36256,137.98245 113.36256,137.98245C113.36256,137.98245 115.16174,137.98245 115.16174,137.98245C115.16174,137.98245 115.23671,122.23964 115.23671,122.23964C115.23671,122.23964 111.63835,122.23964 111.63835,122.23964C111.63835,122.23964 111.63835,123.36414 111.63835,123.36414C111.63835,123.36414 109.68924,123.36414 109.68924,123.36414C109.68924,123.36414 109.68924,123.36414 109.68924,123.36414M144.32341,121.78986C144.32341,121.78986 145.89771,121.78986 145.89771,121.78986C145.89771,121.78986 145.89771,117.89163 145.89771,117.89163C145.89771,117.89163 144.32341,117.89163 144.32341,117.89163C144.32341,117.89163 144.32341,119.31597 144.32341,119.31597C144.32341,119.31597 127.98088,119.31597 127.98088,119.31597C127.98088,119.31597 127.98088,117.9666 127.98088,117.9666C127.98088,117.9666 126.40659,117.9666 126.40659,117.9666C126.40659,117.9666 126.40659,121.86481 126.40659,121.86481C126.40659,121.86481 127.98088,121.86481 127.98088,121.86481C127.98088,121.86481 127.98088,120.74033 127.98088,120.74033C127.98088,120.74033 133.30345,120.74033 133.30345,120.74033C133.30345,120.74033 133.30345,138.20735 133.30345,138.20735C133.30345,138.20735 131.42931,138.20735 131.42931,138.20735C131.42931,138.20735 131.42931,139.55673 131.42931,139.55673C131.42931,139.55673 139.3007,139.55673 139.3007,139.55673C139.3007,139.55673 139.3007,138.20735 139.3007,138.20735C139.3007,138.20735 137.95132,138.20735 137.95132,138.20735C137.95132,138.20735 138.02629,120.74033 138.02629,120.74033C138.02629,120.74033 144.32341,120.74033 144.32341,120.74033C144.32341,120.74033 144.32341,121.78986 144.32341,121.78986C144.32341,121.78986 144.32341,121.78986 144.32341,121.78986M127.53108,123.36414C127.00633,122.9893 126.78143,122.38957 126.10674,122.16467C126.10674,122.16467 126.10674,117.7417 126.10674,117.7417C127.75598,117.51681 128.65556,118.11652 129.40523,119.09108C129.40523,119.09108 144.09851,119.09108 144.09851,119.09108C144.09851,119.09108 144.09851,117.66673 144.09851,117.66673C145.74776,117.36687 146.64734,118.04156 147.397,119.09108C147.397,119.09108 147.397,123.28915 147.397,123.28915C147.397,123.28915 145.44789,123.28915 145.44789,123.28915C145.44789,123.28915 144.39838,122.23964 144.39838,122.23964C144.39838,122.23964 139.5256,122.23964 139.5256,122.23964C139.5256,122.23964 139.45064,137.98245 139.45064,137.98245C139.90042,138.35728 140.35022,138.88203 140.87498,139.33183C140.87498,139.33183 140.87498,141.05605 140.87498,141.05605C140.87498,141.05605 132.55379,141.05605 132.55379,141.05605C132.104,140.68121 131.80414,140.0815 131.20441,139.85658C131.20441,139.85658 131.20441,137.98245 131.20441,137.98245C131.20441,137.98245 133.00359,137.98245 133.00359,137.98245C133.00359,137.98245 133.07855,122.23964 133.07855,122.23964C133.07855,122.23964 129.48019,122.23964 129.48019,122.23964C129.48019,122.23964 129.48019,123.36414 129.48019,123.36414C129.48019,123.36414 127.53108,123.36414 127.53108,123.36414C127.53108,123.36414 127.53108,123.36414 127.53108,123.36414M159.09166,139.4068C159.09166,139.4068 160.36609,139.4068 160.36609,139.4068C160.36609,139.4068 160.36609,136.10831 160.36609,136.10831C160.36609,136.10831 159.09166,136.10831 159.09166,136.10831C159.09166,136.10831 159.09166,137.45769 159.09166,137.45769C159.09166,137.45769 149.94585,137.45769 149.94585,137.45769C149.94585,137.45769 149.94585,118.94115 149.94585,118.94115C149.94585,118.94115 151.29523,118.94115 151.29523,118.94115C151.29523,118.94115 151.29523,117.51681 151.29523,117.51681C151.29523,117.51681 144.39838,117.51681 144.39838,117.51681C144.39838,117.51681 144.39838,118.94115 144.39838,118.94115C144.39838,118.94115 145.97266,118.94115 145.97266,118.94115C145.97266,118.94115 145.74776,138.88203 145.74776,138.88203C145.74776,138.88203 159.09166,138.88203 159.09166,138.88203C159.09166,138.88203 159.09166,139.4068 159.09166,139.4068C159.09166,139.4068 159.09166,139.4068 159.09166,139.4068M151.44516,120.44048C151.44516,120.44048 151.44516,137.15784 151.44516,137.15784C151.44516,137.15784 158.86676,137.15784 158.86676,137.15784C158.86676,137.15784 158.86676,135.80844 158.86676,135.80844C160.44106,135.50858 161.11574,136.40817 161.8654,137.2328C161.8654,137.2328 161.8654,140.90611 161.8654,140.90611C160.96581,140.90611 159.99124,140.98108 159.69139,140.38136C159.69139,140.38136 146.87224,140.38136 146.87224,140.38136C146.34749,140.00653 146.12259,139.33183 145.44789,139.10695C145.44789,139.10695 145.74776,120.44048 145.74776,120.44048C144.92314,120.29053 144.84816,119.39095 144.09851,119.16605C144.09851,119.16605 144.09851,117.21693 144.09851,117.21693C146.49742,117.36687 149.49605,116.91708 151.59509,117.36687C151.59509,117.36687 152.79454,118.64129 152.79454,118.64129C152.79454,118.64129 152.79454,120.44048 152.79454,120.44048C152.79454,120.44048 151.44516,120.44048 151.44516,120.44048C151.44516,120.44048 151.44516,120.44048 151.44516,120.44048M168.53734,130.26097C168.53734,130.26097 169.5119,130.26097 169.5119,130.26097C169.5119,130.26097 169.5119,127.11241 169.5119,127.11241C169.5119,127.11241 168.53734,127.11241 168.53734,127.11241C168.53734,127.11241 168.53734,128.08698 168.53734,128.08698C168.53734,128.08698 166.13844,128.16194 166.13844,128.16194C166.13844,128.16194 166.21341,119.39095 166.21341,119.39095C166.21341,119.39095 173.56004,119.39095 173.56004,119.39095C173.56004,119.39095 173.63501,121.19012 173.63501,121.19012C173.63501,121.19012 174.75949,121.19012 174.75949,121.19012C174.75949,121.19012 174.68452,117.36687 174.68452,117.36687C174.68452,117.36687 173.48508,117.36687 173.48508,117.36687C173.48508,117.36687 173.56004,118.19149 173.56004,118.19149C173.56004,118.19149 162.24022,118.19149 162.24022,118.19149C162.24022,118.19149 162.09029,138.95702 162.09029,138.95702C162.09029,138.95702 174.30971,138.88203 174.30971,138.88203C174.30971,138.88203 174.30971,139.4068 174.30971,139.4068C174.30971,139.4068 175.43419,139.48177 175.43419,139.48177C175.43419,139.48177 175.43419,136.03334 175.43419,136.03334C175.43419,136.03334 174.23474,135.95837 174.23474,135.95837C174.23474,135.95837 174.30971,137.68259 174.30971,137.68259C174.30971,137.68259 165.91354,137.68259 165.91354,137.68259C165.91354,137.68259 166.06348,129.36139 166.06348,129.36139C166.06348,129.36139 168.53734,129.21146 168.53734,129.21146C168.53734,129.21146 168.53734,130.26097 168.53734,130.26097C168.53734,130.26097 168.53734,130.26097 168.53734,130.26097M167.71272,120.89026C167.71272,120.89026 167.63776,127.86208 167.63776,127.86208C167.63776,127.86208 168.31244,127.86208 168.31244,127.86208C168.31244,127.86208 168.31244,126.88753 168.31244,126.88753C169.7368,126.58765 170.26155,127.48724 171.01122,128.31187C171.01122,128.31187 171.01122,131.7603 171.01122,131.7603C169.13707,132.13513 169.36197,130.48587 167.56281,130.8607C167.56281,130.8607 167.41287,137.38272 167.41287,137.38272C167.41287,137.38272 174.00984,137.38272 174.00984,137.38272C174.00984,136.78299 174.08481,136.10831 173.93489,135.65851C175.50916,135.43361 176.18385,136.33321 176.9335,137.15784C176.9335,137.15784 177.00847,140.98108 177.00847,140.98108C176.10889,140.98108 175.2093,140.98108 174.90942,140.38136C174.90942,140.38136 163.21477,140.45631 163.21477,140.45631C162.69002,140.0815 162.46513,139.48177 161.79044,139.25687C161.79044,139.25687 161.94035,117.9666 161.94035,117.9666C161.94035,117.9666 173.26019,117.89163 173.26019,117.89163C173.26019,117.89163 173.26019,117.14197 173.26019,117.14197C174.83446,116.84211 175.43419,117.7417 176.18385,118.56633C176.18385,118.56633 176.25882,122.68945 176.25882,122.68945C174.53461,122.9893 174.23474,121.93978 173.33516,121.48999C173.33516,121.48999 173.33516,120.89026 173.33516,120.89026C173.33516,120.89026 167.71272,120.89026 167.71272,120.89026C167.71272,120.89026 167.71272,120.89026 167.71272,120.89026" style="pointer-events:inherit"/><rect id="svg_12" x="74.67968962850244" y="117.08203404097304" width="102.32812132859544" height="23.973511580059096" fill="#000000" opacity="0" style="pointer-events:inherit"/></g><g type="text" text="weetheart" font-size="31.4015519820441" font-family="Brush-Script" fill="000000" text-anchor="start" font-weight="normal" font-style="normal" lineHeight="1" shapeId="3" shapeVal="2.5" fill-opacity="1" display="null" elemBBoxWidth="118.1171875" stroke="null" stroke-dasharray="none" id="svg_6" stroke-opacity="1" style="pointer-events:inherit"><path id="svg_31" fill="#ffffff" stroke-width="0" d="M82.48758137939453,162.92387573730468 C81.26271137939453,164.1218657373047 78.90745137939453,165.23394573730468 77.65186137939453,164.3940157373047 C77.65186137939453,164.3940157373047 75.07690137939453,167.3764257373047 75.07690137939453,167.3764257373047 C74.25953137939453,168.2318657373047 73.41263137939453,169.2882357373047 72.15586137939454,169.65227573730468 C70.42898137939453,170.1680657373047 70.24000137939453,168.0274057373047 70.55419137939452,166.0164257373047 C69.10961137939454,167.71666573730468 68.04183137939454,170.50267573730468 65.71846137939453,171.25865573730468 C63.14351137939453,172.13465573730468 62.01312137939453,169.14035573730467 62.95570137939453,166.17083573730469 C63.74000137939453,163.7635657373047 65.43616137939453,161.6181457373047 67.00594137939453,159.71934573730468 C67.53983137939453,159.07590573730468 68.19893137939454,158.42583573730468 68.95252137939453,158.1569157373047 C69.80060137939454,157.86233573730468 70.80578137939453,157.8700857373047 70.86838137939453,158.51064573730469 C70.14668137939454,161.5243957373047 67.32014137939453,163.8256157373047 65.53066137939453,166.1712357373047 C65.37356137939453,166.8831457373047 64.74518137939454,168.4448557373047 65.59326137939453,168.4741257373047 C69.14150137939453,165.3517357373047 71.74835137939453,161.4509757373047 74.29142137939454,157.7662157373047 C74.88791137939452,156.8776257373047 76.05019137939453,157.0308357373047 76.36438137939453,157.6057757373047 C75.48441137939453,160.1677157373047 73.22364137939454,162.81085573730468 72.84685137939454,165.7768557373047 C73.19175137939453,167.1533157373047 74.66822137939454,165.26000573730468 75.20211137939452,164.6098657373047 C75.20211137939452,164.6098657373047 76.39509137939453,163.1243857373047 76.39509137939453,163.1243857373047 C76.05019137939453,160.5164757373047 78.15386137939453,158.48619573730468 79.62914137939453,156.73161573730468 C80.60361137939454,155.55057573730468 81.48240137939453,156.18781573730467 81.45051137939453,157.41992573730468 C81.38791137939452,159.31899573730468 80.16303137939454,160.87056573730467 79.34684137939453,162.29733573730468 C80.00594137939453,163.07589573730468 81.63950137939453,162.49371573730468 82.51829137939453,161.5664657373047 C82.48758137939453,162.04455573730468 82.45569137939452,162.46003573730468 82.48758137939453,162.92387573730468 C82.48758137939453,162.92387573730468 82.48758137939453,162.92387573730468 82.48758137939453,162.92387573730468 M93.79141137939453,159.34937573730468 C93.79141137939453,159.34937573730468 93.72881137939453,160.67844573730468 93.72881137939453,160.67844573730468 C91.49994137939453,162.65809573730468 89.55218137939454,165.36842573730468 86.03583137939452,166.06766573730468 C83.58607137939453,166.59901573730468 82.58089137939453,165.3828957373047 82.45569137939452,162.9312457373047 C82.23599137939453,158.6172157373047 86.85202137939453,153.68334573730468 91.06054137939454,152.87606573730469 C92.15903137939453,152.68298573730468 93.00711137939453,152.97846573730467 93.00711137939453,153.9833457373047 C93.00711137939453,157.6259857373047 88.51629137939453,159.4432457373047 85.53265137939454,161.2123257373047 C85.21964137939453,162.7235857373047 86.03583137939452,163.4613457373047 87.44851137939453,163.13999573730467 C90.11796137939453,162.59370573730467 92.03383137939453,160.74344573730468 93.79141137939453,159.34937573730468 C93.79141137939453,159.34937573730468 93.79141137939453,159.34937573730468 93.79141137939453,159.34937573730468 M90.40026137939454,155.1936157373047 C90.36955137939452,154.60269573730469 89.64667137939453,154.98807573730468 89.20728137939453,155.2593457373047 C87.73081137939454,156.23779573730468 86.53783137939453,157.92422573730468 85.84684137939453,159.6070857373047 C87.41780137939453,158.68709573730467 88.95569137939452,157.41150573730468 89.96087137939453,156.15397573730468 C90.24317137939454,155.75633573730468 90.40026137939454,155.4449457373047 90.40026137939454,155.1936157373047 C90.40026137939454,155.1936157373047 90.40026137939454,155.1936157373047 90.40026137939454,155.1936157373047 M105.06571137939453,157.90102573730468 C105.06571137939453,157.90102573730468 105.00193137939453,159.2259357373047 105.00193137939453,159.2259357373047 C102.77305137939453,161.0535757373047 100.82648137939452,163.6309157373047 97.30895137939453,164.0904757373047 C94.85919137939453,164.45475573730468 93.85520137939453,163.1698857373047 93.72881137939453,160.7098857373047 C93.50911137939454,156.38087573730468 98.12514137939453,151.7618257373047 102.33366137939453,151.2415757373047 C103.43215137939453,151.1234157373047 104.28023137939454,151.4767357373047 104.28023137939454,152.48161573730468 C104.28023137939454,156.12425573730468 99.78941137939452,157.6352357373047 96.80695137939453,159.2006557373047 C96.49275137939453,160.6907357373047 97.30895137939453,161.4841657373047 98.72163137939452,161.2591657373047 C101.39108137939454,160.89492573730467 103.30694137939453,159.1753357373047 105.06571137939453,157.90102573730468 C105.06571137939453,157.90102573730468 105.06571137939453,157.90102573730468 105.06571137939453,157.90102573730468 M101.67338137939453,153.5140957373047 C101.64267137939453,152.92107573730468 100.91979137939452,153.2571657373047 100.48039137939453,153.49845573730468 C99.00511137939453,154.37605573730468 97.81095137939454,155.98127573730468 97.11996137939454,157.61701573730468 C98.69092137939452,156.8041657373047 100.22881137939453,155.6334557373047 101.23398137939452,154.4444857373047 C101.51629137939453,154.0661057373047 101.67338137939453,153.7654257373047 101.67338137939453,153.5140957373047 C101.67338137939453,153.5140957373047 101.67338137939453,153.5140957373047 101.67338137939453,153.5140957373047 M115.55335137939454,157.2441357373047 C115.49075137939454,157.6541957373047 115.49075137939454,158.0939657373047 115.49075137939454,158.5649557373047 C113.07289137939453,160.3226157373047 111.28223137939453,163.2405257373047 107.67138137939453,163.4848757373047 C104.56253137939453,163.75846573730468 106.00711137939453,159.2593157373047 107.07489137939453,157.4723257373047 C107.07489137939453,157.4723257373047 105.00193137939453,159.25738573730467 105.00193137939453,159.25738573730467 C105.03382137939454,158.8145957373047 104.97122137939454,158.2866457373047 105.06571137939453,157.90102573730468 C105.06571137939453,157.90102573730468 106.60360137939453,156.5697457373047 106.60360137939453,156.5697457373047 C107.76588137939453,155.5329757373047 108.58206137939453,154.5291057373047 109.39826137939454,153.2154757373047 C108.23716137939454,153.2357957373047 107.48357137939453,153.3256057373047 106.41579137939453,153.6655157373047 C107.73398137939452,151.5788357373047 108.48757137939452,149.4804057373047 112.03581137939453,149.4141357373047 C113.13549137939452,148.01007573730467 113.35519137939454,146.5872257373047 115.42814137939453,146.50858573730468 C117.49992137939452,146.4559557373047 115.67855137939453,148.4162757373047 115.23916137939453,149.1209957373047 C115.93014137939454,149.1312057373047 116.49592137939453,149.1786457373047 117.12313137939452,149.2583557373047 C116.33883137939453,150.4388857373047 115.89825137939454,152.2094357373047 114.58006137939452,152.8180057373047 C114.10877137939454,153.0244657373047 113.26069137939453,153.1229357373047 112.03581137939453,153.1823257373047 C110.71763137939453,155.04625573730468 109.11595137939453,156.9717057373047 109.11595137939453,159.1384657373047 C109.11595137939453,161.99610573730467 112.60160137939454,159.40271573730467 113.60678137939453,158.66608573730468 C113.60678137939453,158.66608573730468 115.55335137939454,157.2441357373047 115.55335137939454,157.2441357373047 M124.62831137939453,152.8163457373047 C126.13548137939453,151.8544957373047 127.73715137939453,152.0096157373047 128.05134137939453,153.6562457373047 C127.67455137939453,155.7122557373047 124.97439137939453,156.5305357373047 124.56570137939454,158.56157573730468 C124.56570137939454,159.06380573730468 124.78540137939453,159.28902573730468 125.28740137939454,159.3023057373047 C127.04616137939453,159.3608757373047 127.70644137939453,158.3828157373047 129.40143137939452,157.39618573730468 C129.40143137939452,157.39618573730468 129.37072137939452,158.71344573730468 129.37072137939452,158.71344573730468 C126.66937137939453,160.57151573730468 125.31929137939453,161.87828573730468 122.61913137939453,162.38938573730468 C120.35836137939452,162.09552573730468 121.64584137939454,158.8324157373047 122.43014137939454,157.80261573730468 C122.43014137939454,157.80261573730468 124.56570137939454,154.98161573730468 124.56570137939454,154.98161573730468 C121.77105137939452,156.8548857373047 119.38389137939453,159.3054357373047 117.02982137939453,161.7268357373047 C116.87272137939453,161.8873657373047 116.71562137939453,161.8910457373047 116.58924137939454,161.8941057373047 C115.42814137939453,161.6442457373047 115.49075137939454,160.41750573730468 115.49075137939454,158.59640573730468 C115.49075137939454,153.88599573730468 118.88190137939453,151.14548573730468 121.11195137939453,148.24763573730468 C122.52463137939453,146.4361957373047 124.50310137939454,144.58611573730468 126.07288137939453,143.3740557373047 C127.20326137939453,142.47292573730468 128.01945137939452,142.0360257373047 128.49074137939454,142.0576757373047 C129.05652137939452,142.0854357373047 129.6530113793945,142.43101573730468 129.6530113793945,142.99613573730468 C129.6530113793945,143.5300157373047 129.11912137939453,144.47527573730468 128.08324137939454,145.77584573730468 C125.06770137939452,149.5302757373047 121.14266137939453,153.4289057373047 117.62631137939454,157.00461573730468 C117.62631137939454,157.00461573730468 117.59442137939453,158.1985257373047 117.59442137939453,158.1985257373047 C119.85519137939454,156.38193573730467 122.21044137939452,154.37766573730468 124.62831137939453,152.8163457373047 C124.62831137939453,152.8163457373047 124.62831137939453,152.8163457373047 124.62831137939453,152.8163457373047 M140.70643137939453,158.3804857373047 C140.70643137939453,158.3804857373047 140.64384137939453,159.69178573730468 140.64384137939453,159.69178573730468 C138.41378137939455,161.0386757373047 136.46721137939454,163.1962957373047 132.94967137939454,162.89737573730469 C130.50110137939453,162.73349573730468 129.49592137939453,161.23207573730468 129.37072137939452,158.74488573730468 C129.14984137939453,154.36843573730468 133.76704137939453,150.7448157373047 137.97438137939452,151.1319257373047 C139.07287137939454,151.2506257373047 139.92096137939453,151.7868257373047 139.92096137939453,152.79170573730468 C139.92096137939453,156.43433573730468 135.43132137939455,156.9770957373047 132.44768137939454,157.8993057373047 C132.13348137939454,159.3216457373047 132.94967137939454,160.29106573730468 134.36354137939452,160.37077573730468 C137.03181137939453,160.5820457373047 138.94767137939454,159.2755557373047 140.70643137939453,158.3804857373047 C140.70643137939453,158.3804857373047 140.70643137939453,158.3804857373047 140.70643137939453,158.3804857373047 M137.31529137939452,153.2622057373047 C137.28340137939455,152.6624357373047 136.56170137939455,152.8427657373047 136.12112137939454,152.9892057373047 C134.64583137939454,153.54869573730468 133.45285137939453,154.8965157373047 132.76186137939453,156.3832457373047 C134.3316413793945,155.9090557373047 135.87071137939455,155.07006573730467 136.8747113793945,154.0977257373047 C137.15819137939454,153.78032573730468 137.31529137939452,153.5135257373047 137.31529137939452,153.2622057373047 C137.31529137939452,153.2622057373047 137.31529137939452,153.2622057373047 137.31529137939452,153.2622057373047 M156.43848137939455,161.0369057373047 C156.43848137939455,161.4764657373047 156.34399137939454,161.9270357373047 156.40777137939455,162.3491457373047 C154.67972137939455,163.30334573730468 153.04734137939454,164.5140157373047 151.10076137939453,165.2432957373047 C149.81328137939454,165.73332573730468 148.36871137939454,165.0767657373047 148.36871137939454,163.66355573730468 C148.36871137939454,162.1876757373047 148.93331137939452,161.5611657373047 149.56169137939452,160.2251957373047 C147.96002137939453,161.24056573730468 146.35835137939455,162.45969573730468 144.63148137939453,163.2992457373047 C142.11912137939453,164.5554557373047 140.42414137939454,161.17269573730468 140.70643137939453,158.3804857373047 C142.2455013793945,155.2456457373047 146.32764137939455,154.1647657373047 149.97038137939452,153.5145357373047 C151.88506137939453,153.2056757373047 153.76903137939453,153.5722857373047 154.27222137939452,155.3693857373047 C154.24032137939452,155.9282257373047 153.58123137939452,155.8585357373047 153.17254137939454,155.96587573730469 C154.14583137939454,156.47417573730468 154.27222137939452,157.56758573730468 153.61194137939452,158.2825257373047 C152.76504137939452,159.24631573730468 151.2578613793945,159.80834573730468 151.2578613793945,161.50410573730468 C151.2578613793945,162.1006557373047 151.75986137939452,162.6338957373047 152.4189513793945,162.63365573730468 C154.14583137939454,162.62901573730468 154.49191137939454,161.9144857373047 156.43848137939455,161.0369057373047 C156.43848137939455,161.0369057373047 156.43848137939455,161.0369057373047 156.43848137939455,161.0369057373047 M143.18690137939453,159.3907757373047 C143.06170137939455,159.8447557373047 142.71561137939455,161.2426557373047 143.53299137939453,161.2908457373047 C146.67255137939452,160.7189557373047 149.21679137939452,158.09281573730468 151.2885713793945,156.32839573730467 C148.49391137939455,156.68208573730467 145.82446137939453,157.19615573730468 143.78339137939452,158.59381573730468 C143.50109137939455,158.83711573730469 143.28139137939453,159.0894657373047 143.18690137939453,159.3907757373047 C143.18690137939453,159.3907757373047 143.18690137939453,159.3907757373047 143.18690137939453,159.3907757373047 M168.65418137939452,164.13231573730468 C168.65418137939452,164.13231573730468 168.62229137939454,165.47337573730468 168.62229137939454,165.47337573730468 C168.62229137939454,165.47337573730468 165.79692137939452,166.9700457373047 165.79692137939452,166.9700457373047 C164.88624137939453,167.35187573730468 163.84917137939453,167.92554573730467 162.4683713793945,167.57053573730468 C160.23832137939453,167.02154573730468 159.92412137939453,163.9319757373047 161.08640137939454,162.5478257373047 C161.80810137939454,161.6895757373047 162.4990813793945,160.8269157373047 163.34717137939452,160.1329857373047 C163.34717137939452,160.1329857373047 159.82963137939453,159.9843657373047 159.82963137939453,159.9843657373047 C159.82963137939453,159.9843657373047 158.25986137939452,161.2212857373047 158.25986137939452,161.2212857373047 C157.72597137939454,161.6660357373047 157.00426137939453,162.03944573730467 156.3758813793945,162.4049257373047 C156.40777137939455,161.9408157373047 156.34399137939454,161.42459573730468 156.43848137939455,161.0369057373047 C157.0668713793945,160.6402257373047 157.66336137939453,160.3016857373047 158.19725137939452,159.7940657373047 C157.00426137939453,159.49601573730467 157.44366137939454,157.9917757373047 157.82046137939454,157.44784573730468 C158.60594137939455,156.2761757373047 159.64183137939455,155.16689573730469 161.30610137939453,155.1279857373047 C161.96519137939453,155.3228057373047 162.05969137939454,156.1628857373047 161.71361137939454,156.61045573730468 C161.71361137939454,156.61045573730468 166.01662137939454,157.16982573730468 166.01662137939454,157.16982573730468 C166.92731137939452,157.4222157373047 167.71160137939455,159.18236573730468 167.20961137939452,159.98223573730468 C166.29892137939453,161.4869357373047 163.88106137939454,161.55915573730468 163.69207137939452,163.9279357373047 C164.00626137939452,165.92546573730468 166.67571137939453,164.9200357373047 167.39741137939453,164.6200757373047 C167.39741137939453,164.6200757373047 168.65418137939452,164.13231573730468 168.65418137939452,164.13231573730468 M179.17371137939455,167.52138573730468 C179.11111137939452,167.9073457373047 179.11111137939452,168.34711573730468 179.11111137939452,168.81811573730468 C176.69324137939452,169.64513573730468 174.90259137939455,171.87381573730468 171.29174137939452,170.7283557373047 C168.18289137939453,169.8053357373047 169.62746137939453,165.8622057373047 170.69525137939453,164.4862057373047 C170.69525137939453,164.4862057373047 168.62229137939454,165.47337573730468 168.62229137939454,165.47337573730468 C168.65418137939452,165.04286573730468 168.59157137939454,164.4908257373047 168.68489137939451,164.1412357373047 C168.68489137939451,164.1412357373047 170.22396137939455,163.4022257373047 170.22396137939455,163.4022257373047 C171.38624137939453,162.81282573730468 172.20242137939454,162.12309573730468 173.01861137939454,161.12362573730468 C171.85752137939454,160.6970357373047 171.10275137939453,160.4964257373047 170.03615137939454,160.4257057373047 C171.35435137939453,158.84640573730468 172.10793137939453,157.03803573730468 175.65617137939455,158.3374857373047 C176.75585137939453,157.35669573730468 176.97555137939452,156.01840573730468 179.04851137939454,156.7376457373047 C181.12028137939453,157.4824457373047 179.29891137939453,158.74171573730467 178.85952137939455,159.2773057373047 C179.55051137939455,159.5534857373047 180.11510137939453,159.8182757373047 180.74349137939453,160.13981573730467 C179.95919137939453,161.0184757373047 179.51861137939454,162.61943573730468 178.20042137939453,162.7206357373047 C177.72913137939452,162.7456957373047 176.88105137939453,162.5177457373047 175.65617137939455,162.1056757373047 C174.33799137939454,163.4622357373047 172.73631137939452,164.77119573730468 172.73631137939452,166.9379557373047 C172.73631137939452,169.7955957373047 176.22196137939454,168.54383573730468 177.22713137939454,168.19409573730468 C177.22713137939454,168.19409573730468 179.17371137939455,167.52138573730468 179.17371137939455,167.52138573730468 " stroke="#000000" style="pointer-events:inherit"/><rect id="svg_32" x="62.625" y="142.05859375" width="118.1171875" height="29.35546875" fill="#ffffff" opacity="0" stroke="#000000" stroke-width="0" style="pointer-events:inherit"/></g><g type="text" text="MOMMY'S" font-size="51.25143106909591" font-family="Bebas Neue" fill="000000" text-anchor="start" font-weight="normal" font-style="normal" lineHeight="1" shapeId="0" shapeVal="0" fill-opacity="1" display="null" elemBBoxWidth="148.3644561767578" stroke="null" stroke-dasharray="none" id="svg_13" stroke-opacity="1" style="pointer-events:inherit"><path fill="#ffffff" stroke-width="0" d="M36.47436,78.50297C36.47436,78.50297 40.60295,103.98632 40.60295,103.98632C40.60295,103.98632 44.44681,78.50297 44.44681,78.50297C44.44681,78.50297 52.27689,78.50297 52.27689,78.50297C52.27689,78.50297 52.27689,114.37897 52.27689,114.37897C52.27689,114.37897 47.00938,114.37897 47.00938,114.37897C47.00938,114.37897 47.00938,88.61089 47.00938,88.61089C47.00938,88.61089 43.16552,114.37897 43.16552,114.37897C43.16552,114.37897 37.75564,114.37897 37.75564,114.37897C37.75564,114.37897 33.62706,89.03799 33.62706,89.03799C33.62706,89.03799 33.62706,114.37897 33.62706,114.37897C33.62706,114.37897 28.64428,114.37897 28.64428,114.37897C28.64428,114.37897 28.64428,78.50297 28.64428,78.50297C28.64428,78.50297 36.47436,78.50297 36.47436,78.50297C36.47436,78.50297 36.47436,78.50297 36.47436,78.50297M61.53062,86.76015C61.53062,86.76015 61.53062,106.1218 61.53062,106.1218C61.53062,108.68437 62.52717,109.68092 64.37791,109.68092C66.22866,109.68092 67.36758,108.68437 67.36758,106.1218C67.36758,106.1218 67.36758,86.76015 67.36758,86.76015C67.36758,84.19757 66.22866,83.20102 64.37791,83.20102C62.52717,83.20102 61.53062,84.19757 61.53062,86.76015C61.53062,86.76015 61.53062,86.76015 61.53062,86.76015M64.37791,114.80606C51.99216,114.80606 55.83601,98.14935 55.83601,87.04488C55.83601,81.35027 58.82568,78.07587 64.37791,78.07587C76.76367,78.07587 72.91983,94.73259 72.91983,105.83707C72.91983,111.53167 69.93016,114.80606 64.37791,114.80606C64.37791,114.80606 64.37791,114.80606 64.37791,114.80606M84.30903,78.50297C84.30903,78.50297 88.43762,103.98632 88.43762,103.98632C88.43762,103.98632 92.28147,78.50297 92.28147,78.50297C92.28147,78.50297 100.11155,78.50297 100.11155,78.50297C100.11155,78.50297 100.11155,114.37897 100.11155,114.37897C100.11155,114.37897 94.84404,114.37897 94.84404,114.37897C94.84404,114.37897 94.84404,88.61089 94.84404,88.61089C94.84404,88.61089 91.00019,114.37897 91.00019,114.37897C91.00019,114.37897 85.59031,114.37897 85.59031,114.37897C85.59031,114.37897 81.46173,89.03799 81.46173,89.03799C81.46173,89.03799 81.46173,114.37897 81.46173,114.37897C81.46173,114.37897 76.47895,114.37897 76.47895,114.37897C76.47895,114.37897 76.47895,78.50297 76.47895,78.50297C76.47895,78.50297 84.30903,78.50297 84.30903,78.50297C84.30903,78.50297 84.30903,78.50297 84.30903,78.50297M111.92785,78.50297C111.92785,78.50297 116.05645,103.98632 116.05645,103.98632C116.05645,103.98632 119.9003,78.50297 119.9003,78.50297C119.9003,78.50297 127.73038,78.50297 127.73038,78.50297C127.73038,78.50297 127.73038,114.37897 127.73038,114.37897C127.73038,114.37897 122.46287,114.37897 122.46287,114.37897C122.46287,114.37897 122.46287,88.61089 122.46287,88.61089C122.46287,88.61089 118.61901,114.37897 118.61901,114.37897C118.61901,114.37897 113.20914,114.37897 113.20914,114.37897C113.20914,114.37897 109.08055,89.03799 109.08055,89.03799C109.08055,89.03799 109.08055,114.37897 109.08055,114.37897C109.08055,114.37897 104.09777,114.37897 104.09777,114.37897C104.09777,114.37897 104.09777,78.50297 104.09777,78.50297C104.09777,78.50297 111.92785,78.50297 111.92785,78.50297C111.92785,78.50297 111.92785,78.50297 111.92785,78.50297M136.98412,114.37897C136.98412,114.37897 136.98412,102.4203 136.98412,102.4203C136.98412,102.4203 129.86586,78.50297 129.86586,78.50297C129.86586,78.50297 135.84519,78.50297 135.84519,78.50297C135.84519,78.50297 140.11614,94.87495 140.11614,94.87495C140.11614,94.87495 144.3871,78.50297 144.3871,78.50297C144.3871,78.50297 149.79697,78.50297 149.79697,78.50297C149.79697,78.50297 142.67871,102.4203 142.67871,102.4203C142.67871,102.4203 142.67871,114.37897 142.67871,114.37897C142.67871,114.37897 136.98412,114.37897 136.98412,114.37897C136.98412,114.37897 136.98412,114.37897 136.98412,114.37897M152.64427,89.03799C152.64427,89.03799 151.79007,78.50297 151.79007,78.50297C151.79007,78.50297 157.19995,78.50297 157.19995,78.50297C157.19995,78.50297 156.48813,89.03799 156.48813,89.03799C156.48813,89.03799 152.64427,89.03799 152.64427,89.03799C152.64427,89.03799 152.64427,89.03799 152.64427,89.03799M160.33197,87.04488C160.33197,81.35027 163.17929,78.07587 168.73152,78.07587C174.71086,78.07587 177.27343,81.77737 176.9887,88.1838C176.9887,88.1838 171.72119,88.1838 171.72119,88.1838C171.86356,85.33649 171.2941,83.20102 168.87389,83.20102C167.02314,83.20102 166.02658,84.19757 166.02658,86.76015C166.02658,94.16313 176.9887,95.58678 176.9887,105.83707C176.9887,111.53167 174.14141,114.80606 168.58916,114.80606C162.18273,114.80606 159.62015,110.53511 160.18961,103.55923C160.18961,103.55923 165.59949,103.55923 165.59949,103.55923C165.45713,106.69126 165.59949,109.68092 168.4468,109.68092C170.29753,109.68092 171.43647,108.68437 171.43647,106.1218C171.43647,98.71881 160.33197,97.29517 160.33197,87.04488C160.33197,87.04488 160.33197,87.04488 160.33197,87.04488" id="svg_14" stroke="#000000" style="pointer-events:inherit"/><rect x="28.643359012901783" y="78.07421834114939" width="148.36328006442636" height="36.73400978464633" fill="#ffffff" opacity="0" id="svg_15" stroke="#000000" stroke-width="0" style="pointer-events:inherit"/></g><g type="text" text="S" font-size="80.50918443547691" font-family="Brush-Script" fill="000000" text-anchor="start" font-weight="normal" font-style="normal" lineHeight="1" shapeId="0" shapeVal="0" fill-opacity="1" display="inline" elemBBoxWidth="60.046875" stroke="null" stroke-dasharray="none" id="svg_20" stroke-opacity="1" style="pointer-events:inherit"><path fill="#ffffff" stroke-width="0" d="M54.770840204467774,140.7841429296875 C53.16065020446777,140.7841429296875 53.241160204467775,138.6909029296875 54.44880020446777,138.1273429296875 C54.44880020446777,138.1273429296875 59.279350204467775,133.8603529296875 59.279350204467775,133.8603529296875 C59.279350204467775,133.8603529296875 55.33440020446777,134.2629029296875 55.33440020446777,134.2629029296875 C45.35126020446778,135.3900329296875 35.609650204467776,137.16123292968751 30.135030204467775,143.0384029296875 C29.168920204467774,146.2587729296875 34.16049020446778,146.6613129296875 36.978310204467775,147.3053829296875 C36.978310204467775,147.3053829296875 48.65214020446777,149.9621929296875 48.65214020446777,149.9621929296875 C54.52931020446778,151.7333929296875 62.580230204467775,153.7461229296875 62.580230204467775,160.66991292968748 C62.580230204467775,166.3860629296875 58.95732020446778,170.7335629296875 51.71149020446777,173.9539229296875 C44.465660204467774,177.1742929296875 34.40201020446777,178.7844729296875 21.440030204467774,178.7844729296875 C14.677260204467773,178.7844729296875 8.236530204467773,177.1742929296875 11.537400204467772,171.2166129296875 C13.469630204467773,167.7547229296875 16.851010204467773,164.9368929296875 21.279020204467773,164.9368929296875 C21.842580204467772,164.9368929296875 21.923090204467773,165.0174129296875 21.923090204467773,165.5809729296875 C21.68156020446777,166.8691129296875 20.071380204467772,167.3521729296875 19.185780204467775,168.0767629296875 C33.355390204467774,168.4793029296875 45.270750204467774,167.2716629296875 53.965750204467774,161.6360229296875 C56.78357020446777,158.5766729296875 51.22843020446777,156.80547292968748 48.49112020446778,155.9198729296875 C42.694460204467774,154.0681629296875 35.93169020446777,153.3435729296875 29.651970204467773,152.0554329296875 C19.668830204467774,152.2969629296875 19.990870204467775,140.7841429296875 24.096840204467775,134.9069729296875 C29.893500204467774,126.6145229296875 45.10974020446777,123.0721229296875 58.635280204467776,123.0721229296875 C63.14379020446778,123.0721229296875 66.20314020446777,123.4746729296875 67.97434020446778,123.8772129296875 C71.83878020446778,124.6823029296875 70.87267020446777,130.6399829296875 69.42351020446777,132.5722029296875 C67.00823020446776,135.7925729296875 60.084440204467775,137.4027529296875 56.46153020446778,139.9790529296875 C55.575930204467774,140.6231229296875 55.01237020446777,140.7841429296875 54.770840204467774,140.7841429296875 C54.770840204467774,140.7841429296875 54.770840204467774,140.7841429296875 54.770840204467774,140.7841429296875 " id="svg_21" stroke="#000000" style="pointer-events:inherit"/><rect x="10.6484375" y="123.0703125" width="60.046875" height="55.71484375" fill="#ffffff" opacity="0" id="svg_22" stroke="#000000" stroke-width="0" style="pointer-events:inherit"/></g><g id="svg_36" fill-opacity="1" display="inline" clip-id="609"><path fill="#000000" d="M123.40411,223.87778L122.11656,223.87778L121.92342,223.45932L123.59725,223.52371L123.40411,223.87778M122.11656,222.52585L121.92342,222.10739L123.59725,222.17175L123.40411,222.52585L122.11656,222.52585M123.40411,220.94858L122.11656,220.94858L121.92342,220.53015L123.59725,220.59451L123.40411,220.94858M126.01142,219.27478L126.84834,219.30695L126.62301,219.50009L126.46207,219.69324L120.95776,219.7254C119.99208,219.87543 119.28392,219.74664 118.83328,219.33914L118.83328,219.30695L126.01142,219.27478M126.01142,217.92282L126.84834,217.95502L126.62301,218.14813L126.46207,218.34128L120.95776,218.37347C119.99208,218.52344 119.28392,218.39471 118.83328,217.98718L126.01142,217.92282M118.83328,216.44214L118.83328,216.40994L126.01142,216.34555L126.84834,216.37775L126.62301,216.57086L126.46207,216.76401L120.95776,216.7962C119.99208,216.94623 119.28392,216.8284 118.83328,216.44214M112.0414,210.13307C110.56071,210.15498 109.57379,209.99403 109.08001,209.65025L134.05867,209.52148L136.37627,209.52148L136.34409,209.55368L135.79689,209.93994L129.58441,209.97214L115.61439,210.00432L112.0414,210.13307M116.35473,212.64381C115.47469,212.66507 114.86309,212.50414 114.51996,212.16098L131.00072,212.22539L130.96853,212.25757L130.51788,212.64381L118.67233,212.57945L116.35473,212.64381M116.35473,214.22108C115.47469,214.24297 114.86309,214.08202 114.51996,213.73825L131.00072,213.77043L130.96853,213.83481L130.51788,214.22108L118.67233,214.15669L116.35473,214.22108M116.35473,215.57303C115.47469,215.57303 114.86309,215.41208 114.51996,215.09021L131.00072,215.12238L130.96853,215.18677L130.51788,215.54083L118.67233,215.50867L116.35473,215.57303M115.61439,211.35625L112.0414,211.45284C110.56071,211.49532 109.57379,211.34532 109.08001,211.00218L134.05867,210.87343L136.37627,210.87343L136.34409,210.90561L135.79689,211.29189L129.58441,211.32407L115.61439,211.35625M110.23882,207.10732L104.47699,207.07513C103.40381,207.18263 102.57784,207.04294 101.99843,206.65668L142.62094,206.88199C142.02031,207.24637 141.1615,207.36484 140.04584,207.23608L133.64021,207.20387L110.23882,207.10732M110.23882,205.75539L104.47699,205.72318C103.40381,205.8307 102.57784,205.69099 101.99843,205.30473L142.62094,205.53006C142.02031,205.89508 141.1615,206.01291 140.04584,205.88414L133.64021,205.85194L110.23882,205.75539M110.23882,204.17812L104.47699,204.14594C103.40381,204.25343 102.57784,204.11375 101.99843,203.72748L142.62094,203.9528C142.02031,204.31718 141.1615,204.43564 140.04584,204.30687L133.64021,204.27469L110.23882,204.17812M115.61439,208.45926L112.0414,208.55583C110.56071,208.57707 109.57379,208.41612 109.08001,208.07298L134.05867,207.94424L136.37627,207.94424L136.34409,208.00861L135.79689,208.36269L129.58441,208.39488L115.61439,208.45926M111.65513,170.28311C112.38454,170.24062 113.28647,170.22968 114.35901,170.25093C115.43218,170.25093 116.15065,170.41187 116.51567,170.73375L97.55635,170.605L97.65292,170.50842L98.03919,170.18654L111.65513,170.28311M111.65513,173.18011L114.35901,173.14792C115.43218,173.14792 116.15065,173.30887 116.51567,173.63075L97.55635,173.53419L97.65292,173.40544L98.03919,173.11574L111.65513,173.18011M111.65513,171.86038L114.35901,171.79599C115.43218,171.79599 116.15065,171.95694 116.51567,172.27882L97.55635,172.18227L97.65292,172.08569L98.03919,171.76381L111.65513,171.86038M122.53501,181.67801L122.66377,182.06427L92.21298,181.83896L92.30956,181.45268L113.97275,181.61365L120.12084,181.61365L122.53501,181.67801M122.53501,178.74881L122.66377,179.13509L92.21298,178.94194L92.30956,178.5235L113.97275,178.68445L120.12084,178.71663C121.00089,178.631 121.80562,178.64131 122.53501,178.74881M122.53501,180.32608L122.66377,180.71234L92.21298,180.48703L92.30956,180.10075L113.97275,180.26169L120.12084,180.26169L122.53501,180.32608M118.7689,174.53204L120.15303,174.62862L120.41055,174.9505L93.82243,175.17584L93.85461,175.07927L94.04775,174.72519L117.22384,174.56425L118.7689,174.53204M118.7689,176.10931L120.15303,176.20589L120.41055,176.52777L93.82243,176.7209L93.85461,176.65652L94.04775,176.30246L117.22384,176.14149L118.7689,176.10931M118.7689,177.46124L120.15303,177.55782L120.41055,177.87971L93.82243,178.07283L93.85461,178.00847L94.04775,177.65439L117.22384,177.49345L118.7689,177.46124M148.57591,202.43991C147.80338,202.86932 146.74113,203.00836 145.38921,202.85837L135.66812,202.89055L97.26665,203.11589L96.88039,202.69742L146.38705,202.43991L148.57591,202.43991M151.89137,198.54504L151.66605,198.93132L107.30962,198.6738L96.75163,198.64162L94.98124,198.6738L93.43616,198.57722L93.21085,198.22316L151.89137,198.54504M151.89137,197.19312L151.66605,197.57939L107.30962,197.35405L96.75163,197.28969L94.98124,197.32187L93.43616,197.2253L93.21085,196.87122L151.89137,197.19312M151.89137,195.61584L151.66605,196.0343L107.30962,195.77679L96.75163,195.71242L94.98124,195.7446L93.43616,195.64803L93.21085,195.29396L151.89137,195.61584M146.38705,199.51073L148.57591,199.51073C147.80338,199.94011 146.74113,200.07982 145.38921,199.92917L135.66812,199.99356L97.26665,200.18668L96.88039,199.80043L146.38705,199.51073M146.38705,201.08797L148.57591,201.08797C147.80338,201.51738 146.74113,201.65643 145.38921,201.50644L135.66812,201.5708L97.26665,201.76395L96.88039,201.34549L146.38705,201.08797M154.43431,188.85616L154.40211,189.24243L91.02199,188.88835L91.02199,188.46989L154.43431,188.85616M154.43431,187.2789L154.40211,187.66516L91.02199,187.31108L91.02199,186.89262L154.43431,187.2789M154.43431,190.2081L154.40211,190.59436L91.02199,190.24028L91.02199,189.82182L154.43431,190.2081M151.66605,192.68665L153.88708,192.68665L153.79051,193.1051L91.69795,193.39481L91.60139,193.04073L151.66605,192.68665M151.66605,191.10939L153.88708,191.10939L153.79051,191.52783L91.69795,191.81754L91.60139,191.46347L151.66605,191.10939M151.66605,194.03857L153.88708,194.03857L153.79051,194.45703L91.69795,194.74673L91.60139,194.39267L151.66605,194.03857M151.60168,180.48703C152.50296,180.2939 153.10362,180.43358 153.40427,180.90549L122.76034,180.71234L122.92127,180.2939L146.12955,180.45483L151.60168,180.48703M151.60168,181.83896C152.50296,181.62457 153.10362,181.76364 153.40427,182.25742L122.76034,182.06427L122.92127,181.64583L146.12955,181.80678L151.60168,181.83896M151.60168,178.90976C152.50296,178.71663 153.10362,178.85634 153.40427,179.32822L122.76034,179.13509L122.92127,178.71663L146.12955,178.87758L151.60168,178.90976M154.14461,185.63727L154.20898,186.05573L91.21513,186.44199L91.2795,186.05573L154.14461,185.63727M154.14461,184.28531L154.20898,184.70377L91.21513,185.09004L91.2795,184.70377L154.14461,184.28531M154.14461,182.70807L154.20898,183.15871L91.21513,183.51279L91.2795,183.12653L154.14461,182.70807M145.9686,172.02132C147.04178,172.02132 147.76024,172.18227 148.12526,172.50415L129.005,172.3754L129.03719,172.311L129.48784,171.98912L143.26472,172.08569L145.9686,172.02132M145.9686,173.37326C147.04178,173.37326 147.76024,173.53419 148.12526,173.85609L129.005,173.72733L129.03719,173.66296L129.48784,173.34105L143.26472,173.40544L145.9686,173.37326M145.9686,170.44406C147.04178,170.44406 147.76024,170.61595 148.12526,170.95908L129.005,170.79813L129.03719,170.73375L129.48784,170.41187L143.26472,170.50842L145.9686,170.44406M151.15103,177.30031L151.37634,177.65439L151.37634,177.68658L125.07795,177.84752L125.11013,177.78316L125.36765,177.46124L146.96646,177.30031L151.15103,177.30031M151.15103,174.37112L151.37634,174.72519L151.37634,174.75737L125.07795,174.9505L125.11013,174.85394L125.36765,174.53204L146.96646,174.37112L151.15103,174.37112M151.37634,176.30246L151.37634,176.33464L125.07795,176.49559L125.11013,176.4312L125.36765,176.10931L146.96646,175.94836L151.15103,175.94836L151.37634,176.30246" id="svg_37"/></g><g id="svg_41" fill-opacity="1" display="inline" transform="" clip-id="608"><path fill="#B00B00" d="M141.40013,188.50076C141.85352,190.14137 141.95355,191.92204 141.70024,193.8428C141.06,196.67067 139.7527,198.85152 137.77875,200.3853C135.81799,201.91908 133.73039,203.31322 131.51636,204.56689C130.3291,205.3804 129.19547,206.24754 128.11505,207.16788L126.87458,208.32832C125.67412,209.36874 124.62051,210.5556 123.71337,211.88969C123.2732,212.3831 122.95308,212.97009 122.75301,213.65034L122.39287,212.85007L121.27244,211.16942C119.75185,209.19505 117.97118,207.48122 115.9304,206.02745L110.04815,202.32602C108.04738,201.11238 106.40675,199.55818 105.12626,197.66425C104.59286,196.82393 104.1791,195.85677 103.8858,194.76315C103.53886,193.04248 103.53246,191.29501 103.86578,189.52115C104.47922,186.06662 105.9866,183.51204 108.38751,181.85823C109.20103,181.3112 110.14819,180.89784 111.22859,180.61774L112.269,180.43767L112.70916,180.41766C114.76315,180.44406 116.44379,180.85783 117.75109,181.65814C119.07159,182.47165 120.15881,183.49203 121.01234,184.7193C121.71941,185.58644 122.27962,186.56003 122.69298,187.64044L122.71299,187.66045C124.02029,184.44562 126.30076,182.21834 129.5556,180.97789L131.15621,180.61774C132.90368,180.44406 134.39745,180.65096 135.63792,181.23798C138.62587,182.57167 140.5466,184.993 141.40013,188.50076M136.89841,192.72237C136.75155,191.89565 136.54507,191.13496 136.27817,190.4415C135.45106,188.42752 134.03731,187.00699 132.03654,186.17986C130.3159,185.56642 128.70207,185.57283 127.1947,186.19987C125.68732,186.82651 124.54688,187.64684 123.77339,188.6608C123.34643,189.10098 122.9995,189.60118 122.73299,190.16139L122.71299,190.16139L122.41287,189.66119L121.61256,188.54076C120.37209,186.75368 118.3181,185.78651 115.45021,185.63966L114.28976,185.81972C113.47625,186.01981 112.75598,186.32674 112.12894,186.74008C110.28824,187.99416 109.11459,189.93449 108.6076,192.5623C108.3407,193.81598 108.32069,195.08969 108.54757,196.38376C108.77447,197.35774 109.12139,198.21126 109.58797,198.94475C110.57515,200.3853 111.82202,201.55934 113.3294,202.46609L117.7711,205.30717C119.26488,206.40079 120.54536,207.6945 121.61256,209.18867L122.09275,210.10899C122.29282,210.50917 122.53291,210.70924 122.81303,210.70924C123.03951,210.62921 123.23959,210.40913 123.41325,210.049L123.87343,209.16866C124.78058,207.92818 125.82738,206.82095 127.01463,205.8474C127.81494,205.18033 128.65526,204.54688 129.53559,203.94664L133.27702,201.50572C134.49068,200.66541 135.46466,199.57817 136.19814,198.24448C136.98524,196.73711 137.21854,194.89679 136.89841,192.72237M136.3382,196.30374C135.79119,198.19766 134.81761,199.66502 133.41708,200.70541C132.02975,201.7458 130.56918,202.71939 129.03541,203.62656C126.82136,205.0535 124.94704,206.80772 123.41325,208.88855L122.73299,210.10899L122.71299,210.14903C122.61975,209.81572 122.4797,209.52879 122.29282,209.28871L121.05235,207.58806L120.39211,206.9278C119.97874,206.43439 119.51856,206.00105 119.01157,205.6273L116.73071,203.90663C114.18292,202.63934 112.02209,200.97873 110.24822,198.92473C109.22144,197.63104 108.80087,195.84357 108.98775,193.5627C109.08097,192.85562 109.20782,192.19536 109.36789,191.58192C109.71482,190.42148 110.22821,189.42789 110.90848,188.60078C111.62875,187.70724 112.56911,187.02019 113.72955,186.54001L114.80997,186.25989L115.4102,186.17986C118.33131,186.3399 120.35889,187.38034 121.49252,189.30106C122.01272,189.91449 122.41287,190.61475 122.69298,191.40186L122.71299,191.42188C123.64655,189.1142 125.26717,187.5136 127.57484,186.62004C129.30871,186.11304 130.8361,186.17986 132.1566,186.82011C133.4771,187.46034 134.47108,188.32068 135.13773,189.40111C135.59112,190.16139 135.93804,191.02812 136.17813,192.00208C136.55147,193.37581 136.6051,194.80997 136.3382,196.30374M126.31437,190.40146L128.77531,190.34146C130.73605,190.9417 131.94971,192.28899 132.41669,194.383C132.67,195.37018 132.6968,196.39735 132.49673,197.46419C132.10979,198.78468 131.41631,199.82509 130.41593,200.58537C129.41554,201.33244 128.36835,202.0191 127.27473,202.64615C125.39401,203.83342 123.88023,205.38721 122.73299,207.30792L122.73299,207.34795L122.71299,207.34795C122.32604,206.4276 121.77263,205.6541 121.05235,205.02705C120.30527,204.25317 119.47855,203.56651 118.5714,202.96629C117.27771,202.28603 115.9436,201.37886 114.56988,200.24525C113.20935,199.1116 112.63593,197.51099 112.84922,195.44341L113.12933,194.00287C113.38261,193.18893 113.74276,192.48868 114.20973,191.90205C114.76995,191.15497 115.53664,190.62157 116.51062,190.30144L117.37095,190.14137C119.74506,190.26143 121.34566,191.15536 122.17278,192.82242L122.71299,193.8428L122.71299,193.88281L122.97308,193.36261L123.49329,192.50227C124.16034,191.5287 125.1007,190.82845 126.31437,190.40146M123.39325,191.76199C123.13995,192.0289 122.92627,192.32903 122.75301,192.66234L122.71299,192.70235C122.52612,192.34221 122.29922,192.02208 122.03273,191.74199C121.12558,190.39508 119.59859,189.67441 117.45097,189.58116L116.51062,189.74123C115.91039,189.90131 115.37698,190.14818 114.91,190.48151C113.46945,191.49548 112.61593,193.10933 112.34902,195.32336C112.22898,196.13687 112.25579,196.91077 112.42906,197.64424C112.58912,198.2981 112.82921,198.8847 113.14933,199.40492C113.86961,200.44531 114.78996,201.29205 115.91039,201.94591C117.01761,202.59973 118.09122,203.29321 119.13161,204.0267C120.18522,204.8006 121.09237,205.72733 121.85266,206.80772L122.19279,207.50803C122.31283,207.78813 122.51971,207.91498 122.81303,207.88815C123.22639,207.63486 123.51329,207.24791 123.67336,206.72772C124.34041,205.82057 125.1003,205.02028 125.95422,204.3268L129.47557,201.92589C130.70244,201.15199 131.69642,200.172 132.45671,198.98477C133.09695,197.90436 133.30384,196.53702 133.07694,194.88318C132.95691,194.21614 132.78364,193.5963 132.55675,193.02248C131.95652,191.59555 130.94293,190.58835 129.51558,190.00133C128.2483,189.54755 127.06145,189.54115 125.95422,189.98131C124.847,190.40828 123.99347,191.00171 123.39325,191.76199" id="svg_42"/></g></g><defs><mask id="canvasMaskImageDef" maskUnits="objectBoundingBox" x="0" y="0"><image xmlns:xlink="http://www.w3.org/1999/xlink" id="canvasMaskImage" preserveAspectRatio="none" x="-103.65" y="-36.45" width="400" height="440.0580551523948" xlink:href="http://allinonedesigner.designnbuy.in/media/catalog/product/w/h/white-tees-1_-front_1_3.png"/></mask></defs></svg>