<?xml version="1.0" encoding="utf-8"?>
<!-- Generator: Adobe Illustrator 16.0.0, SVG Export Plug-In . SVG Version: 6.00 Build 0)  -->
<!DOCTYPE svg PUBLIC "-//W3C//DTD SVG 1.1//EN" "http://www.w3.org/Graphics/SVG/1.1/DTD/svg11.dtd">
<svg version="1.1" id="Layer_1" xmlns="http://www.w3.org/2000/svg" xmlns:xlink="http://www.w3.org/1999/xlink" x="0px" y="0px"
	 width="100px" height="100px" viewBox="0 0 100 100" enable-background="new 0 0 100 100" xml:space="preserve">
<path d="M48.706,10.873c-0.038-0.354,1.417-0.438,1.083,0.216C49.537,10.908,49.209,10.804,48.706,10.873z M42.429,19.748
	C41.733,19.238,43.19,18.874,42.429,19.748L42.429,19.748z M57.798,19.748c-0.265-0.095-0.444-0.277-0.433-0.649
	C57.631,19.193,57.811,19.375,57.798,19.748z M42.645,19.531c0.35,0.213,0.498,0.578,0.217,0.867
	C42.36,20.337,42.365,19.819,42.645,19.531z M23.163,46.158c0.349-0.676,0.686,0.444,1.082,0.434
	C23.895,47.268,23.56,46.146,23.163,46.158z M76.85,45.942c-0.279,0.37-0.449,0.85-1.082,0.865
	C76.044,46.437,76.213,45.956,76.85,45.942z M33.121,51.137c0.083-0.412,0.275,0.137,0.216,0.434
	C33.254,51.982,33.063,51.432,33.121,51.137z M66.674,51.137c0.082-0.412,0.275,0.137,0.217,0.434
	C66.809,51.982,66.615,51.432,66.674,51.137z M18.833,81.227c0.082-0.412,0.275,0.14,0.215,0.433
	C18.967,82.07,18.774,81.521,18.833,81.227z M80.961,81.227c0.083-0.412,0.275,0.14,0.217,0.433
	C81.096,82.07,80.9,81.521,80.961,81.227z M9.741,81.227C9.266,81.889,8.355,80.977,9.741,81.227L9.741,81.227z M9.958,81.443
	c0.026-0.479,0.918-0.094,1.298-0.217C11.229,81.705,10.339,81.318,9.958,81.443z M88.754,81.443
	c0.025-0.479,0.919-0.094,1.299-0.217C90.025,81.705,89.135,81.318,88.754,81.443z M91.135,81.227
	C90.659,81.889,89.749,80.977,91.135,81.227L91.135,81.227z M22.946,82.957c0.141-0.607,0.251,0.5,0.217,0.65
	C23.062,84.043,22.755,83.781,22.946,82.957z M76.85,82.957c0.139-0.607,0.25,0.5,0.215,0.65
	C76.964,84.043,76.658,83.781,76.85,82.957z M8.659,85.555c0.093-0.481,1.066-0.086,1.515-0.215
	C10.081,85.822,9.107,85.426,8.659,85.555z M89.836,85.555c0.094-0.481,1.066-0.086,1.516-0.215
	C91.259,85.822,90.285,85.426,89.836,85.555z M46.108,90.752C45.633,91.412,44.723,90.502,46.108,90.752L46.108,90.752z
	 M54.768,90.752C54.292,91.412,53.381,90.502,54.768,90.752L54.768,90.752z M49.139,8.275C49.993,8.424,49.294,10.123,49.139,8.275
	L49.139,8.275z M34.636,72.135c0.284,0.076,0.34,0.381,0.649,0.432v0.218V73c-0.192,0.168-0.489,0.232-0.866,0.217l0.108-0.326
	L34.202,73c0-0.217,0-0.434,0-0.65l0.217-0.106L34.636,72.135z M64.727,72.566c0.283-0.076,0.34-0.381,0.649-0.433l0.215,0.107
	l0.218,0.106c0,0.217,0,0.435,0,0.65l-0.324-0.109l0.106,0.326c-0.45,0.092-0.571-0.148-0.864-0.217v-0.217V72.566z M23.379,73.434
	c-0.278-0.406,0.543,0.492,0.65,0.648C24.177,74.301,23.743,73.965,23.379,73.434z M27.059,77.113
	c-0.278-0.406,0.542,0.492,0.649,0.65C27.858,77.98,27.423,77.645,27.059,77.113z M21.863,78.629
	C21.539,78.174,22.97,80.178,21.863,78.629L21.863,78.629z M78.146,78.629C78.602,78.305,76.598,79.734,78.146,78.629L78.146,78.629
	z M23.596,80.576c-0.278-0.406,0.542,0.494,0.649,0.65C24.395,81.443,23.959,81.107,23.596,80.576z M76.415,80.576
	c0.405-0.277-0.493,0.545-0.647,0.65C75.548,81.375,75.884,80.939,76.415,80.576z M25.543,82.309
	c-0.277-0.406,0.542,0.492,0.649,0.648C26.342,83.176,25.907,82.84,25.543,82.309z M74.467,82.309
	c0.406-0.278-0.492,0.541-0.648,0.648C73.6,83.107,73.936,82.672,74.467,82.309z M21.214,87.287c0.62,0.182,0.029-0.057-0.649-0.648
	C20.325,86.428,20.89,86.6,21.214,87.287z M79.445,86.422c0.529,0.268-0.648,0.629-0.649,1.082
	C77.771,86.988,79.333,87.348,79.445,86.422z"/>
<path fill="none" stroke="#000000" stroke-width="0.5" stroke-linecap="round" d="M60.396,32.52c0.342-0.251,0.186-0.639,0-0.865
	 M60.396,31.654c-0.073,0-0.146,0-0.219,0 M60.18,31.654c-0.266,0.226-0.576-0.007-0.865,0 M59.313,31.654
	c-0.565,0.142-1.33,0.254-1.84-0.108 M57.475,31.546c-0.896,0.332-2.143,0.362-3.031,0 M54.441,31.546
	c-0.867,0.375-2.004,0.254-2.922,0.108 M51.521,31.654c-0.352,0.044-0.75,0.23-1.083,0 M50.438,31.654c-0.253,0-0.639,0-0.867,0
	 M49.572,31.654c-0.335,0.232-0.726,0.027-1.082,0 M60.396,32.52c0.547,0.175,1.217,0.149,1.772,0.042
	c0.022-0.463,0.115-0.948,0.606-1.125 M62.775,31.438c0.086,0.06,0.205,0.084,0.326,0.108 M63.102,31.546
	c0.119-0.026,0.17-0.12,0.217-0.216 M63.318,31.33c0.306,0.107,0.559,0.208,0.757,0.325 M64.075,31.654
	c0.036-0.037,0.073-0.072,0.108-0.108 M63.102,31.546c-0.025,0.357-0.244,0.753-0.146,1.018c0.069,0.071,0.134,0.152,0.198,0.234
	c0.242,0.04,0.373-0.118,0.582-0.186c0.041-0.031,0.082-0.061,0.123-0.092 M63.859,32.52c0.108-0.251,0.082-0.639,0.216-0.865
	 M42.537,31.546c0.016-0.255,0.188-0.407,0.325-0.649 M49.572,31.654c-0.205-0.447-0.764-0.604-1.19-0.758 M54.441,31.546
	c-0.012-0.223,0.101-0.384,0.219-0.542 M45.568,31.546c0.868,0.375,2.004,0.254,2.922,0.108 M42.862,30.896
	c0.827,0.055,1.687-0.118,2.489,0.108 M42.537,31.546c0.897,0.332,2.142,0.362,3.031,0 M45.568,31.546
	c0.013-0.223-0.1-0.384-0.217-0.542 M57.475,31.546c-0.018-0.255-0.189-0.407-0.326-0.649 M57.148,30.896
	c-0.826,0.055-1.687-0.118-2.488,0.108 M63.859,32.52c0.047,0.097,0.105,0.185,0.166,0.273c0.277,0.034,0.473-0.15,0.701-0.273
	 M64.727,32.52c0.229-0.189,0.297-0.486,0.254-0.76c-0.228-0.191-0.517-0.184-0.797-0.213 M43.078,72.135
	c0.432,0.152,0.869,0.273,1.3,0.432 M43.944,75.383c-0.025,0.301,0.182,0.527,0.434,0.646 M43.403,74.189
	c-0.051,0.022-0.103,0.045-0.154,0.067c-0.056,0.095-0.085,0.177-0.112,0.257c0.105,0.397,0.481,0.657,0.807,0.868 M43.403,74.189
	c0.891,0.276,1.986-0.148,2.056-1.189 M45.459,73c-0.318-0.246-0.673-0.4-1.082-0.434 M43.078,72.135
	c-0.026,0.047-0.053,0.094-0.079,0.141c-0.028,0.269,0.126,0.563,0.239,0.767c0.311,0.106,0.669,0.174,0.966,0.002
	c0.037-0.18,0.099-0.332,0.173-0.478 M44.377,76.029c0.083,0.207,0.274,0.303,0.432,0.436 M42.753,77.871
	c0.348,0.176,0.539,0.393,0.65,0.65 M48.382,85.881c1.083,0,2.165,0,3.247,0 M48.815,91.076c0.793,0,1.587,0,2.38,0 M47.083,91.725
	c1.949,0,3.897,0,5.845,0 M45.459,73c0.229,0.033,0.575,0.059,0.649,0.326 M46.108,73.326c1.539,0.273,2.643,1.572,3.893,2.43
	c1.265-0.852,2.358-2.164,3.899-2.43 M53.9,73.326c0.076-0.248,0.424-0.297,0.649-0.326 M54.551,73
	c0.319-0.246,0.674-0.4,1.083-0.434 M55.634,72.566c0.431-0.15,0.868-0.273,1.3-0.433 M50.221,85.123
	c-1.081-0.578-1.685-1.447-2.705-2.057 M53.036,82.957c0.144,0.074,0.26,0.174,0.372,0.279c0.941,0.084,2.125-0.109,2.767-0.818
	 M57.257,77.871c0.233,0.551,0.377,1.131,0.433,1.732 M57.475,81.01c-0.125,0.164-0.139,0.398-0.306,0.549
	c0.062,0.152,0.086,0.515,0.088,0.859 M44.377,76.029c1.018-1.096,3.683-0.312,2.705,1.41 M47.083,77.871
	c0.435,0.074,0.582-0.139,0.711-0.375c0.305-0.021,0.492-0.014,0.804-0.057 M46.542,79.494c-0.064,0.154-0.097,0.336-0.171,0.48
	c-0.192,0.11-0.321,0.153-0.443,0.205 M50.221,85.123c0.073,0,0.145,0,0.217,0 M50.438,85.123c0.857-0.736,1.649-1.457,2.598-2.166
	 M53.036,82.957c0.19-0.43,0.421-0.879,0.864-1.082 M53.9,81.875c0.285-0.492,0.925-0.93,0.688-1.557
	c-0.188-0.111-0.228-0.246-0.292-0.354 M54.298,79.965c-0.265-0.127-0.218-0.488-0.396-0.686 M53.9,79.279
	c-0.035-0.006-0.072-0.012-0.109-0.019c-0.1-0.102,0.012-0.389,0.002-0.85 M53.793,78.412c-0.174-0.078-0.27-0.369-0.324-0.541
	 M53.469,77.871c-0.035-0.072-0.07-0.145-0.107-0.217 M54.551,73c0.055,1.051,1.174,1.455,2.057,1.189 M55.634,72.566
	c0.063,0.153,0.097,0.338,0.175,0.477c0.308,0.111,0.657,0.164,0.953,0c0.241-0.299,0.279-0.676,0.172-0.908 M53.9,73.326
	c0.099,1.143,1.063,1.975,2.166,2.057 M56.066,75.383c0.375-0.195,1.203-0.877,0.541-1.193 M43.944,75.383
	c1.111-0.063,2.056-0.93,2.165-2.057 M44.81,76.465c0.348-0.182,0.875-0.518,1.222-0.205c-0.027,0.229-0.063,0.617,0.036,0.965
	c0.29,0.23,0.662,0.191,1.016,0.215 M46.649,78.305c0.26-0.065,0.364-0.213,0.433-0.434 M47.083,77.871c0-0.145,0-0.289,0-0.432
	 M46.649,78.521c0-0.072,0-0.146,0-0.217 M46.649,78.305c-0.624-0.604-1.482-1.002-1.84-1.84 M56.066,75.383
	c0.024,0.301-0.182,0.527-0.434,0.646 M55.634,76.029c-0.084,0.207-0.274,0.303-0.434,0.436 M53.469,77.871
	c0.788-0.006,1.375-0.771,1.731-1.406 M55.2,76.465c-0.349-0.182-0.875-0.518-1.222-0.205c0.16,0.594-0.021,1.158-0.619,1.395
	 M55.634,76.029c-0.722-0.533-1.61-0.658-2.427-0.26c-0.52,0.362-0.609,1.094-0.387,1.655c0.117,0.111,0.352,0.177,0.539,0.229
	 M46.542,79.494c0.155-0.063,0.339-0.096,0.478-0.172c-0.035-0.232-0.171-0.521-0.37-0.801 M56.607,78.521
	c0.096-0.215,0.315-0.541,0.648-0.65 M53.9,81.875c0.049,0.025,0.096,0.051,0.143,0.076c1.872,0.359,3.063-1.795,2.564-3.43
	 M56.607,78.521c-0.816,0.403-1.431,1.119-2.311,1.442 M46.649,81.984c-0.42-0.537-0.798-1.055-0.722-1.805 M45.928,80.18
	c-0.75-0.572-1.712-1.094-2.524-1.658 M47.516,83.066c-0.113-0.451-0.448-0.904-0.867-1.082 M46.649,81.984
	c-2.086,0.555-3.868-1.461-3.246-3.463 M57.689,79.604c-0.109,0.465-0.283,0.912-0.217,1.406 M50.221,80.576
	c0.255,0.033,0.433,0.143,0.589,0.283c0.551,0.049,0.916-0.455,1.358-0.715 M52.17,80.145c0.098-0.19,0.094-0.483,0.107-0.758
	 M52.17,80.145c0.139,0.365,0.489,0.515,0.758,0.756 M50.221,80.576c0,0.686,0,1.371,0,2.057 M50.221,82.633
	c0.421,0.092,0.634,0.229,0.757,0.434 M50.221,82.633c-0.018,0.037-0.036,0.072-0.054,0.109 M50.167,82.742
	c0.048,0.191,0.048,0.482,0.054,0.756 M50.167,82.742c-0.177,0.027-0.435,0.131-0.703,0.324 M47.516,80.9
	c0.289-0.219,0.605-0.412,0.757-0.756 M48.273,80.145c0-0.19,0-0.483,0-0.758 M48.273,80.145c0.337,0.271,0.765,0.338,1.025,0.713
	c0.353,0.119,0.556-0.34,0.922-0.28 M50.221,80.576L50.221,80.576 M50.221,80.576c0-0.504,0-1.01,0-1.514 M50.221,79.063
	c-0.295-0.127-0.472-0.396-0.712-0.594c-0.171-0.295,0.569-0.766-0.045-0.813 M50.221,79.063c0.248-0.088,0.677-0.432,0.792-0.643
	c-0.062-0.217-0.279-0.453-0.181-0.703c0.336-0.016,0.522-0.193,0.796-0.277 M17.643,27.433c0.05-0.022,0.099-0.046,0.148-0.068
	c0.064-0.226,0.224-0.354,0.284-0.582 M17.859,35.442c1.572,0.511,2.738,2.13,4.33,2.598 M18.075,76.572
	c-0.024,0.393-0.138,0.576-0.072,0.756c0.129,0.064,0.223,0.184,0.289,0.326 M21.106,88.045c2.325-0.99,2.315-3.986,2.813-6.061
	 M23.92,81.984c-0.101-0.334-0.403-0.558-0.584-0.563c-0.032,0.101-0.049,0.224-0.064,0.347 M23.92,81.984
	c6.37,5.617,14.695,9.16,23.163,9.74 M37.233,31.438c0.547,0.158,0.515,0.687,0.607,1.125c7.48-0.078,15.042-0.03,22.557-0.043
	 M36.909,31.546c0.026,0.357,0.245,0.753,0.147,1.018c-0.07,0.071-0.135,0.152-0.201,0.234c-0.24,0.04-0.372-0.118-0.58-0.186
	c-0.042-0.031-0.083-0.061-0.124-0.092 M36.151,32.52c-0.047,0.097-0.107,0.185-0.167,0.273c-0.66-0.318-1.494-0.028-2.215-0.273
	 M33.77,32.52c-0.208,0.081-0.465,0.112-0.649,0.217 M33.121,32.736c0.027,0.649-0.662,0.962-0.541,1.624 M32.58,34.36
	c0.238,0.072,0.365,0.215,0.463,0.319c-0.019,0.089-0.025,0.209-0.031,0.331 M33.77,32.52c-0.14-0.153-0.35-0.251-0.541-0.324
	 M35.826,31.546c-0.216,0-0.433,0-0.649,0 M27.384,36.092c0.304,0.461,0.768,0.832,1.191,1.189 M28.575,37.282
	c0.533-0.702,1.449-1.314,1.406-2.272 M28.575,37.282c0.821,1.262,1.159,2.841,2.056,4.005 M30.631,41.287
	c0.241-0.283,0.194-0.956,0.749-0.806c0.189-0.351,0.259-0.759,0.117-1.142 M30.631,41.287c0,0.144,0,0.289,0,0.434 M30.631,41.721
	c1.246,0.667,1.911,1.945,2.164,3.246 M32.795,44.967L32.795,44.967 M32.795,44.967c0.516-1.589,0.02-3.409,0.271-5.077
	c-0.265-0.156-0.694-0.216-0.798-0.55c0.191-0.578,0.104-1.193-0.122-1.732 M32.795,44.967c0.41,0.757,0.166,1.728,0.187,2.566
	c-0.082,0.057-0.243,0.023-0.402,0.032 M32.58,47.565c-0.15,0.066-0.256,0.178-0.386,0.266c-0.055,0.262,0.142,0.516,0.278,0.708
	 M32.471,48.54c0.141,0,0.351,0,0.541,0 M32.471,48.54c-1.175,0.31-1.995-1.06-2.922-1.624 M32.146,46.916
	c-2.076-0.982-4.202-2.251-5.845-3.897 M30.631,41.721c-1.218-0.294-2.063-1.466-3.032-2.165 M26.301,35.659
	c-0.819-0.124-1.525-0.632-2.381-0.649 M12.123,24.511c-3.485,3.452-3.995,7.891-3.205,12.381c-0.3,0.138-0.679-0.1-0.9-0.188
	c-0.488,0.284-0.351,1.025-0.268,1.485c0.149,0.246,0.455,0.484,0.632,0.665c0.187,0.033,0.305,0.131,0.43,0.224
	c0.373,0.112,0.804-0.067,1.146,0.154 M9.958,39.231c0.126-0.002,0.307-0.083,0.541-0.109 M9.958,39.231
	C9.5,39.808,8.679,40.374,8.84,41.219c0.315,0.725,0.755,1.586,1.443,2.016 M12.123,24.511c-0.001-0.037-0.002-0.073-0.002-0.109
	c0.723-0.4,1.613-0.867,2.492-1.082 M14.613,23.32c0.167-0.493,0.281-1.596,1.019-1.444c0.366,0.356,0.784,0.673,1.037,1.12
	 M16.668,22.995c0.843-0.53,1.055,0.603,1.884,0.924c1.122,0.437,2.163-0.473,2.554,1.133 M21.106,25.052
	c0.717,0.089,2.836,0.786,2.057,1.623 M23.163,26.675c0.333,0.697-0.16,1.425-0.641,1.906c-0.145,0.029-0.381,0.033-0.604,0.042
	 M21.918,28.624c-0.029,0.085-0.042,0.204-0.055,0.325 M18.942,31.33c-0.058,0.688,0.402,1.263,0.911,1.681
	c2.318,0.099,5.452,0.155,6.448,2.648 M26.301,35.659c0.37,0.147,0.663,0.441,1.083,0.434 M36.692,31.33
	c0.027,0.118,0.12,0.169,0.217,0.216 M36.909,31.546c0.132-0.013,0.229-0.06,0.325-0.108 M35.935,31.654
	c0.109,0.252,0.083,0.639,0.217,0.865 M36.692,31.33c-0.306,0.107-0.559,0.208-0.757,0.325 M35.826,31.546
	c0.036,0.036,0.072,0.072,0.108,0.108 M12.123,24.511c0.287,0.284,0.684,0.268,0.974,0.541 M13.097,25.052c0.145,0,0.289,0,0.433,0
	 M13.097,25.052c-0.083,0.539,0.517,0.675,0.865,0.865 M13.962,25.917c0.289,0,0.578,0,0.867,0 M13.962,25.917
	c0.197,1.02,1.396,1.278,2.264,0.995c-0.45,1.908,0.547,4.228,2.716,4.417 M18.942,31.33c0.753-0.029,1.516,0.062,2.262-0.055
	c0.136,0.173,0.056,0.389-0.058,0.536c-0.033,0.132-0.002,0.229,0.031,0.323c0.111,0.035,0.238,0.045,0.368,0.054
	c0.176-0.102,0.366-0.201,0.53-0.324c0.16-0.49,0.242-1.179-0.102-1.617 M21.973,30.247L21.973,30.247 M21.973,30.247
	c-0.558,0.283-1.368,0.313-1.949,0.216 M23.163,26.675c-0.532-0.116-0.997-0.404-1.407-0.758 M21.106,25.052
	c-0.217,0-0.433,0-0.65,0 M21.863,28.948c-1.112-0.139-2.509-0.594-3.464,0.325 M18.399,29.273c0.101,0.726,0.896,1.288,1.625,1.19
	 M21.973,30.247c-0.053-0.136-0.092-0.224-0.129-0.311c-0.456-0.312-1.09-0.5-1.616-0.278c-0.182,0.235-0.177,0.524-0.204,0.805
	 M21.918,28.624c-0.76-0.641-1.913-1.386-2.911-1.554c-0.539,0.394-0.83,1.043-0.926,1.666c0.103,0.177,0.204,0.366,0.318,0.538
	 M18.184,25.377c0.024,0.047,0.049,0.094,0.074,0.142c0.619,0.565,2.204,0.792,2.198-0.467 M16.668,22.995
	c-0.235,0.496-0.774,0.751-1.299,0.757 M15.369,23.752c0.368,1.178,1.668,1.694,2.815,1.625 M18.184,25.377
	c0.744-0.192,1.472-0.547,2.272-0.325 M14.613,23.32c0.208,0.236,0.643,0.105,0.756,0.432 M39.832,31.654
	c0.251,0.199,0.568,0.049,0.829-0.037 M40.661,31.618c0.561,0.204,1.357,0.284,1.876-0.072 M32.795,44.967
	c-0.357,0.607-0.122,1.396-0.649,1.949 M32.146,46.916c0.128,0.164,0.354,0.387,0.434,0.649 M33.121,32.736
	c-0.471-0.677-1.497-0.122-1.604,0.543c0.105,0.354,0.51,0.754,0.847,1.016c0.072,0.021,0.144,0.042,0.216,0.064 M33.012,35.009
	c-0.334,0.102-0.553,0.4-0.562,0.586c0.076,0.125,0.205,0.216,0.366,0.264C33.027,35.751,32.991,35.346,33.012,35.009 M14.9,76.861
	c1.455,1.479,3.626,2.205,5.556,1.225 M20.457,78.086c-0.089-0.32-0.227-0.539-0.433-0.646 M20.457,78.086
	c0.436,0.262,0.933,0.74,0.995,1.234c-0.098,0.033-0.221,0.051-0.345,0.065 M12.772,77.764c0,0.072,0,0.144,0,0.215 M12.772,77.979
	c2.06,1.515,5.081,2.101,7.469,0.976 M7.144,75.922C5.862,76.197,5.188,77.49,4.7,78.564c-0.047,0.258-0.053,0.557,0.021,0.756
	c4.571-3.182,8.647,3.238,13.571,1.475 M18.292,80.795c0.103-0.039,0.266-0.086,0.434-0.109 M18.292,80.795
	c-0.008,0.898-0.141,1.895-0.758,2.596 M17.534,83.391c0.609,0.721,1.41,1.336,2.057,2.058 M17.534,83.391
	c-2.89-2.258-8.588-4.668-11.073-1.188c0.178,0.137,0.276,0.264,0.358,0.432 M10.933,49.513c-0.297-0.132-0.591-0.205-0.801-0.146
	c-0.05,0.234-0.047,0.525-0.13,0.731c-0.073,0.071-0.137,0.151-0.202,0.231c-0.253,0.052-0.543,0.053-0.751-0.015
	c-0.072-0.073-0.151-0.138-0.231-0.201c-0.05-0.305-0.062-0.693-0.017-1c0.025-0.047,0.051-0.094,0.075-0.14 M8.875,48.972
	c-0.209-0.151-0.442-0.28-0.696-0.385c-0.07-0.076-0.148-0.141-0.228-0.206c-0.082-0.519-0.161-1.083,0.06-1.574 M8.01,46.807
	c-0.591-0.328-1.025-0.936-0.975-1.624 M10.933,49.513c-0.341,4.225-7.345,5.161-6.561,10.108c-0.184,0.059-0.366,0.035-0.521,0
	c-0.069-0.07-0.149-0.137-0.228-0.203c-0.039-0.189-0.077-0.338-0.103-0.479c-0.01-0.265,0.206-0.652,0.306-0.865
	c-0.284-0.186-0.737-0.154-1.053-0.053c-0.727,0.287-0.854,1.146-0.652,1.813c0.645,0.854,1.895,0.533,1.516,1.951
	c0.221,0.26,0.583,0.594,0.95,0.43c0.262-0.116,0.522-0.487,0.426-0.729c-0.435,0-0.419-0.594-0.289-0.869
	c1.09,1.236,2.917,2.342,4.524,1.275c0.134-0.033,0.23-0.002,0.325,0.03c-0.305,1.32-0.037,2.824-0.221,4.193
	c-2.988,1.223-2.524,5.041-5.38,5.813c0.074,0.508,0.728,0.494,1.112,0.627c0.166-0.072,0.524-0.098,0.87-0.1 M5.953,72.459
	c0.175-0.32,0.528-0.531,0.649-0.867 M5.953,72.459c-0.014,0.23,0.013,0.42,0.066,0.584c0.125,0.033,0.299,0.049,0.475,0.066
	 M6.494,73.109c0.072-0.148,0.219-0.301,0.325-0.435 M6.494,73.109c0.202,0.291,0.669,0.014,0.908,0.08
	c0.038,0.104,0.049,0.229,0.06,0.356c-0.253,0.74-0.599,1.558-0.317,2.375 M7.144,75.922c0.086,0.156,0.07,0.553,0.174,0.803
	c0.096,0.058,0.175,0.086,0.253,0.113c0.146-0.023,0.354-0.135,0.546-0.266 M8.117,76.572c0.092-0.371,0.165-0.549,0.217-0.865
	 M8.117,76.572c0.028,1.908,2.323,0.871,3.355,1.623 M11.472,78.195c0.124-0.24,0.063-0.656,0.175-0.908
	c0.114-0.076,0.242-0.152,0.372-0.23c0.375,0.064,0.592,0.389,0.753,0.707 M12.772,77.764c0.147-0.07,0.301-0.133,0.433-0.217
	 M13.205,77.547c-0.025-0.855-0.436-2.611-1.624-1.84 M13.205,77.547c0.073,0,0.145,0,0.216,0 M13.421,77.547
	c0.09-0.201,0.08-0.494,0.173-0.693c0.111-0.076,0.243-0.151,0.374-0.229c0.294,0.06,0.561,0.172,0.789,0.312 M14.757,76.934
	c0.047-0.024,0.096-0.049,0.144-0.072 M14.9,76.861c0.025-0.123,0.028-0.275,0.036-0.396 M14.937,76.465
	c-0.149-0.523-0.385-1.037-0.649-1.518 M14.287,74.947c-0.914-0.779-2.108,0.377-3.021-0.652c-2.654-6.291,4.832-5.826,6.116-10.539
	c0.146-0.535,0.167-1.262,0.261-1.904 M17.643,61.852c0.083-0.612,0.155-1.248,0.325-1.84 M17.967,60.012
	c-0.212-1.676,0.297-3.656,1.407-4.869 M17.967,60.012c0.149,0.002,0.285-0.018,0.397-0.035 M18.365,59.977
	c1.037-1.516,1.995-3.045,2.742-4.727 M21.106,55.25c-0.733,0.1-1.195,0.729-1.732,1.189 M21.106,55.25
	c0.024-0.012,0.047-0.025,0.072-0.037 M21.179,55.213c1.889-1.461,4.497-2.117,6.205-4.076 M27.384,51.137
	c0.293-0.427,0.401-0.967,0.649-1.407 M28.033,49.73c-0.021-0.05-0.043-0.102-0.064-0.153c-0.579-0.221-1.149-0.271-1.767-0.37
	c-0.466,0-0.3,0.615-0.549,0.847 M25.653,50.054c-0.151,1.202-1.352,1.92-2.166,2.706 M25.653,50.054
	c-0.915,0.652-2.045,0.51-3.129,0.594c-0.267-0.263,0.056-0.61-0.01-0.918 M22.514,49.73c0.496-0.632-1.331-1.122-0.167-1.579
	c-0.295-0.777-1.555-1.055-1.531-1.993c0.262-0.058,0.503-0.218,0.557-0.427c-0.249-0.786-1.036-1.286-1.674-1.738 M19.699,43.993
	c-0.154,1.75-0.289,4.083-2.381,4.546 M17.318,48.54c0.025,0.046,0.052,0.093,0.078,0.14c-0.14,1.554-1.562,2.569-2.567,3.647
	 M17.318,48.54c-0.21-1.004-0.502-1.978-1.034-2.862c-0.127-0.168-0.319-0.276-0.476-0.327c-0.208,0.438-0.06,0.988-0.222,1.457
	 M15.586,46.807c0.047,0.025,0.094,0.049,0.141,0.075c0.678,4.7-4.408,6.642-5.401,10.251c-0.129,0.471-2.138,6.088-4.107,2.512
	c-1.847-3.356,7.62-6.205,5.794-10.998 M12.014,48.647c-1.577-2.642-8.061-5.154-4.175-8.789
	C7.21,43.591,11.547,45.278,12.014,48.647 M15.586,46.807c-0.278,0.376-0.475,0.807-0.809,1.144
	c-0.132,0.036-0.228,0.008-0.321-0.024c-0.265-1.002-0.655-2.07-1.251-2.851 M13.205,45.076c-0.225,0.383-0.323,0.961-0.854,1.022
	c-0.604-1.094-1.251-2.101-1.518-3.293c0.225-0.52,0.443-1.056,0.748-1.518 M13.205,45.076c0-0.505,0-1.011,0-1.516 M19.699,43.993
	c0.193-0.503,0.112-1.223,0.649-1.515 M20.348,42.478c-0.515-0.424-1.053-1.012-1.622-1.408 M20.348,42.478
	c0.972,0.273,1.636,1.099,2.326,1.794c1.694-0.356,1.419-2.737,0.381-3.634 M22.514,49.73c0.613,0.002,1.082-0.447,1.623-0.649
	 M28.033,49.73c0.864,0.03,1.577,0.591,2.309,1.009 M30.342,50.739c0.548-0.234,0.152-1.077,0.397-1.55 M30.306,50.92
	c0.331,1.673,0.444,4.248,2.165,4.871 M32.471,55.791c-0.008-0.484,0.413-0.666,0.541-1.082 M32.471,55.791
	c0.024,0.102,0.189,0.178,0.341,0.271c0.525,6.93-0.959,12.16,5.008,14.621c1.372,0.563,3.335,0.799,5.258,1.45 M15.478,74.625
	c0.289-0.287,0.578-0.414,0.866-0.65 M16.344,73.975c-0.191-0.604-0.52-1.641,0.108-2.057 M16.452,71.918
	c0.084-0.1,0.209-0.186,0.336-0.27c0.278,0.078,0.568,0.143,0.854,0.16 M16.452,71.918c0.06,0.084,0.085,0.203,0.109,0.324
	 M17.859,74.189c0.293,0.328,0.472,0.703,0.649,1.084 M13.421,77.547c0.351,0.115,0.479,0.543,0.857,0.59
	c0.31-0.336,0.309-0.801,0.479-1.203 M14.937,76.465c0.308-0.262,0.661-0.412,1.073-0.271c0.257-0.34-0.18-0.69-0.162-1.071
	c-0.141-0.147-0.295-0.283-0.37-0.496 M15.478,74.625c-0.423-0.02-0.9-0.057-1.19,0.322 M16.993,73.975
	c0.288,0.125,0.577,0.189,0.866,0.215 M17.859,74.189c-0.255-0.64-0.533-1.799-1.298-1.947 M16.344,73.975c0.217,0,0.433,0,0.649,0
	 M16.993,73.975c0.021-0.619-0.572-1.086-0.433-1.731 M18.365,59.977c0.728,0.181,1.448,0.42,2.092,0.793 M17.643,61.852
	c1.396-0.106,2.835,0.344,3.631,1.562c0.272,0.817-0.462,1.44-0.985,1.951c-0.248,1.204,1.226,1.647,1.729,2.436
	c-0.024,0.093-0.034,0.218-0.042,0.341c-0.327,0.815-0.969,1.547-1.131,2.407c0.207,0.019,0.577-0.026,0.803-0.146 M21.648,70.402
	c0.382-0.256,0.661-0.646,1.076-0.84c0.129,0.176,0.066,0.647,0.179,0.881c0.956-1.049,1.39,0.287,2.144-0.738
	c1.478,0.01,2.088,1.707,2.012,2.971 M27.059,72.676c0.192,0.432,0.042,1.029,0.339,1.389c0.773-0.43,1.442-0.147,2.258,0.019
	 M27.059,72.676c-0.833,0.078-1.329-0.713-1.938-1.115c-0.319,0.584,0.119,1.273,0.208,1.873 M25.621,74.469
	c0.157,0.18,0.352,0.357,0.464,0.479 M26.085,74.947c1.757,1.123,3.799,1.104,5.628,0.109 M31.713,75.057
	c0.348-0.426,0.99-0.647,1.082-1.299 M32.795,73.758c-0.061-0.371-0.14-0.545-0.273-0.877c-0.316-0.344-0.854-0.191-1.176,0.061
	c-0.261,0.416,0.292,0.789,0.078,1.187c-0.168,0.045-0.286-0.041-0.409-0.106c-0.242-0.041-0.37-0.203-0.6-0.263 M32.795,73.758
	c0.375,0.072,0.682-0.133,0.975-0.324 M33.77,73.434c-0.149-0.315-0.558-0.432-0.433-0.867 M33.336,72.566
	c-0.458-0.51-0.838-1.238-1.623-1.406 M21.648,70.402c1.3,0.817,1.715,2.666,3.139,3.354 M24.787,73.758
	c0.022-0.051,0.043-0.1,0.066-0.15c0.178-0.037,0.332-0.102,0.476-0.174 M42.321,79.604c-0.866-0.444-2.234-1.227-2.967,0.004
	c-0.086,0.351-0.097,0.752,0.175,1.015c0.275,0.088,0.575-0.144,0.777-0.375c-0.424-1.438,1.143-0.515,1.582,0.006 M42.321,79.604
	c0.081-0.588,0.16-1.19,0.432-1.731 M26.085,74.947c5.772,6.801,15.26,10.549,24.136,10.176 M47.516,83.066
	c-1.651,0.754-3.17-0.685-4.697-0.517c0.03-1.012-0.303-1.918-0.498-2.946 M24.787,73.758c-0.013,0.156,0.026,0.264,0.066,0.367
	c0.194,0.121,0.455,0.225,0.768,0.344 M25.621,74.469c0.142-0.396-0.088-0.729-0.293-1.035 M21.179,55.213
	c3.797,0.076,6.624,2.68,5.921,6.57c-0.243,1.344-1.51,2.277-1.167,3.898c2.129,2.756,4.125,4.901,7.62,4.721 M33.553,70.402
	c0.748-0.49,1.088,0.516,1.624,0.758 M35.177,71.16c3.137-0.529,5.967,1.77,8.227,3.029 M30.306,50.92
	c0.005-0.068,0.021-0.123,0.036-0.182 M27.384,51.137c-0.234,1.053,0.401,2.18,1.515,2.254c0.19-0.09,0.381-0.188,0.468-0.311
	c-0.202-0.83,0.266-1.709,0.939-2.16 M11.472,78.195c0.096,0.193,0.246,0.336,0.375,0.494c0.446-0.021,0.53-0.58,0.925-0.711
	 M8.875,48.972c0.67-0.648,1.759-0.452,2.274,0.325 M11.149,49.297c0.049-0.073,0.099-0.145,0.149-0.216
	c-0.24-1.552-1.9-2.217-3.288-2.273 M10.933,49.513c0.072-0.072,0.144-0.145,0.216-0.216 M35.177,71.16
	c-0.129,0.561,0.456,1.088,0.108,1.623 M35.285,72.783c5.061-1.52,7.538,4.094,11.364,5.738 M33.553,70.402
	c0.41,0.574,0.812,1.117,0.866,1.84 M31.713,75.057c-0.213,1.152,0.838,2.228,1.949,2.162c0.482-0.217,0.919-0.514,1.406-0.754
	 M35.068,76.465c2.684-6.58,8.143,1.146,11.474,3.029 M34.419,72.242c-0.394-0.008-0.682-0.012-0.906,0.066
	c-0.048,0.098-0.111,0.18-0.176,0.258 M33.77,73.434c0.155,0.09,0.337,0.068,0.476,0.039c0.033-0.17,0.15-0.379,0.282-0.582
	 M35.068,76.465c-0.067,1.795,2.634,2.375,3.307,0.713c0.202-0.732-0.045-1.42-0.435-2.008c0.016-0.102,0.063-0.188,0.111-0.271
	c2.064-0.866,3.643,1.566,4.701,2.974 M30.198,44.751c-0.599-1.184-2.027-1.608-2.814-2.598 M32.688,52.977
	c0.072,0.051,0.167,0.148,0.264,0.248c0.004,0.142-0.087,0.24-0.184,0.34c-0.063,0.021-0.125,0.041-0.188,0.063 M31.604,52.219
	c-0.418,0.656-0.035,1.48,0.326,2.057 M31.604,52.219c0.102-0.191,0.257-0.484,0.326-0.758 M31.604,52.219
	c0.423,0.174,0.527,0.801,1.083,0.758 M32.688,52.977c-0.189-0.313-0.124-0.836,0.324-0.865 M12.664,33.061
	c-2.089-1.025-1.897-3.613-0.649-5.195 M14.829,29.381c0.363,1.636,1.683,2.889,3.246,3.464 M15.911,37.607
	c-0.695-0.863-1.976-1.209-2.598-2.165 M25.869,47.781c1.154,0.231,2.218,0.792,3.248,1.299 M24.137,57.307
	c1.196,0.48,1.641,1.701,1.949,2.813 M15.694,64.666c0.556-1.186,0.167-2.621,0.434-3.896 M23.92,67.48
	c-0.777-0.271-1.354-0.978-1.814-1.617c-0.098-0.393,0.403-0.582,0.3-0.98 M8.117,68.996c0.431-0.57,1.062-1.057,1.732-1.299
	 M9.85,67.697c0.22-0.416,0.688-0.664,0.866-1.082 M9.85,67.697c-0.891,1.459-1.565,3.082-1.083,4.762 M7.251,84.365
	c0.287,0.891-0.494,1.93,0,2.598 M17.643,84.582c0.432,0.432,0.866,0.865,1.299,1.299 M10.391,86.205
	c2.681-0.186,4.522,4.209,6.819,2.922 M10.391,86.205c-0.076,0.141-0.082,0.352-0.107,0.541 M8.334,86.746
	c-0.022-0.988,1.437-0.652,2.056-0.541 M8.334,86.746c0.12,0.424,0.563,0.654,0.8,0.578c0.066-0.232,0.071-0.527-0.005-0.73
	C8.875,86.557,8.684,86.746,8.334,86.746 M39.832,28.407c-0.208-0.429-0.065-0.944-0.108-1.406 M39.723,27
	c-0.026-0.119-0.12-0.169-0.217-0.217 M39.506,26.783c-0.835,0.584-2.042,0.009-1.731-1.082 M37.775,25.701
	c-0.706-0.621-2.598-1.391-2.165-2.381 M35.61,23.32c-0.874-1.312-2.667-2.66-2.274-4.438 M33.336,18.882
	c-0.01-0.277-0.052-0.559,0.037-0.83 M33.374,18.052c-0.313-0.371-0.057-0.804,0.179-1.119 M33.553,16.934
	c0.09-0.19,0.082-0.486,0.174-0.76c0.172-0.149,0.382-0.164,0.584-0.214 M34.311,15.959c-0.141-0.542,0.452-0.713,0.866-0.649
	 M35.177,15.311c-0.14-0.542,0.451-0.713,0.866-0.65 M36.042,14.661c0.145-0.161,0.289-0.265,0.433-0.365
	c0.217,0.033,0.434,0.116,0.649,0.149 M37.125,14.444c0.317-0.351,0.76-0.182,1.083,0 M39.182,14.553
	c0.243-0.136,0.624-0.126,0.973,0.107 M41.238,14.877c0.144,0,0.289,0,0.433,0 M41.671,14.877c-0.09-0.492,0.392-0.918,0.866-0.866
	 M42.537,14.011c-0.141-0.542,0.451-0.713,0.866-0.649 M43.403,13.362c0.021-0.072,0.042-0.146,0.064-0.218
	c0.173-0.152,0.385-0.166,0.585-0.208c0.138,0.073,0.264,0.163,0.432,0.209 M44.485,13.146c0.145-0.162,0.29-0.266,0.435-0.367
	c0.222,0.027,0.382,0.166,0.54,0.258 M45.459,13.037c0.354-0.313,0.912-0.238,1.083,0.216 M46.542,13.253
	c0.322-0.209,0.936-0.152,0.974,0.325 M47.516,13.578c0.288-0.124,0.577-0.19,0.866-0.216 M48.382,13.362
	c0.119-0.145,0.168-0.289,0.216-0.434 M48.598,12.929c0.125-0.378,0.528-0.75,0.866-0.866 M49.464,12.063
	c0.367-0.05,0.713-0.026,1.083,0 M50.547,12.063c0.156-0.443-0.328-0.817-0.146-1.232c0.479-0.277,0.926,0.242,1.378,0.08
	c0.068-0.374,0.139-0.806,0-1.166c-0.451-0.093-0.926,0.353-1.386,0.088c-0.037-0.29,0.155-0.662,0.154-1.017 M50.547,12.063
	c0.036,0.037,0.071,0.072,0.107,0.109 M48.598,14.011c0.938,0,1.876,0,2.814,0 M62.775,31.438c-0.44-0.79,0.549-1.323,0.976-1.84
	 M27.384,36.092c0.477-0.958,1.506-1.545,2.115-2.425c-0.068-2.022,2.328-2.87,3.514-4.239c0.369-0.028,0.736,0.155,0.974,0.277
	 M33.986,29.706c0.024-0.045,0.049-0.092,0.075-0.138c0.087-0.129,0.295-0.235,0.472-0.355c0.807,0.503,1.828,1.211,2.159,2.118
	 M37.233,31.438c0.442-0.79-0.547-1.323-0.974-1.84 M33.986,29.706c0.426,0.795,1.957,0.669,1.84,1.84 M21.973,30.247
	c1.654,0.021,4.774,0.92,5.177-1.747c-0.258-0.364-0.133-1.044-0.735-1.117c-0.173,0.457,0.074,1.014-0.178,1.5
	c-1.051,1.225-3.238,0.824-4.374,0.064 M50.654,12.172c-0.105,0.199-0.106,0.497-0.043,0.692c0.238,0.065,0.537,0.07,0.736-0.001
	C51.281,12.513,50.863,12.322,50.654,12.172 M48.598,12.929c0.296,0.008,0.59,0.014,0.8-0.066c0.058-0.23,0.057-0.52,0.066-0.8
	 M51.412,14.011c0,0.073,0,0.146,0,0.217 M52.495,13.578c-0.343-0.157-0.769-0.335-1.032,0.051c-0.023,0.12-0.037,0.251-0.051,0.382
	 M53.469,13.253c0.006,0.125-0.068,0.309-0.166,0.555c-0.236,0.182-0.527,0.175-0.808,0.203 M52.495,14.011
	c-0.292,0.337-0.705,0.229-1.083,0.217 M51.412,14.228c-0.196,0.349-0.512,0.538-0.865,0.649 M51.088,23.645
	c0.407-0.761,1.275-1.118,1.712-1.829c-1.303-1.341-2.434-3.642-1.278-5.369 M51.521,16.447c0.057-0.498,0.388-1.138,0.975-1.137
	 M52.495,15.311c0.146-0.073,0.288-0.144,0.433-0.217 M52.928,15.094c0.826-0.676,2.854-0.955,3.247,0.217 M56.175,15.311
	c0.308,0.001,0.479,0.077,0.64,0.11c0.084,0.061,0.104,0.191,0.119,0.326c-0.146,0.146-0.259,0.253-0.373,0.38
	c-0.246,0.043-0.537,0.043-0.818,0.049 M51.521,16.447c1.953,0.673,4.15,0.456,6.147,0.403c0.089,0.092,0.099,0.197,0.129,0.299
	 M55.525,27c-0.035-0.037-0.072-0.073-0.107-0.109 M55.418,26.891c-0.238,0.142-0.663,0.347-0.906,0.255
	c-0.513-0.734-0.188-1.472,0.408-2.029c0.188-0.044,0.398-0.051,0.605-0.065 M55.525,25.052c0.029-0.504-0.09-1.034,0.115-1.512
	c0.248-0.207,0.688-0.279,0.75-0.653 M56.391,22.887c-0.037-0.43,0.319-0.615,0.649-0.649 M57.04,22.238
	c-0.153-0.479,0.231-0.711,0.542-0.975 M57.582,21.263c0.107-0.283,0.173-0.699,0.541-0.758 M58.123,20.505
	c-0.068-0.378,0.107-0.75,0.434-0.866 M58.557,19.64c-0.061-0.371,0.12-0.735,0.324-0.974 M59.639,16.609
	c-0.371,0.138-0.547,0.062-0.877-0.058c-0.185-0.237-0.177-0.526-0.205-0.808 M58.557,15.743c-0.291,0.003-0.427-0.151-0.6-0.267
	c-0.023-0.121-0.038-0.251-0.051-0.383 M57.906,15.094c-0.323-0.094-0.54-0.39-0.649-0.649 M57.257,14.444
	c-0.373,0.079-0.599-0.274-0.758-0.541 M56.499,13.904c-0.33-0.116-0.679-0.126-0.974-0.326 M55.525,13.578
	c-0.146,0.04-0.289,0.106-0.436,0.173c-0.396,0.022-0.604-0.37-0.54-0.714 M54.551,13.037c-0.353-0.313-0.91-0.238-1.082,0.216
	 M40.372,16.609c-0.194,0.289-0.187,0.577-0.217,0.867 M40.155,17.476c0.119,0.025,0.169,0.12,0.217,0.216 M43.62,22.887
	c0.104,0.256,0.329,0.391,0.541,0.541 M44.161,23.428c0.248-0.383,1.02-0.682,0.822-1.223c-0.544-0.494-1.19-0.823-1.689-1.375
	 M44.269,27c0.515,0.902,1.783,1.241,2.38,0.216 M46.649,27.216c-0.132-0.288-0.204-0.58-0.145-0.868
	c0.226-0.201,0.516-0.198,0.795-0.148c0.072,0.05,0.144,0.1,0.216,0.149 M47.516,26.35c0.071-0.072,0.144-0.144,0.216-0.216
	 M47.732,26.134c0.167-0.416,0.6-0.592,0.709-1.02c0.252-0.038,0.506-0.073,0.697-0.17 M49.139,24.944
	c-0.216-0.383-0.48-0.873-0.216-1.299 M48.923,23.645c-0.407-0.761-1.276-1.118-1.712-1.829c1.203-1.374,2.466-3.559,1.279-5.369
	 M48.49,16.447c-1.858,0.504-3.922,0.727-5.845,0.27 M42.645,16.717c-0.297,0.098-0.412,0.256-0.433,0.433 M42.212,17.15
	c0.135,0.425,0.219,1.065-0.013,1.44C41.704,18.462,41.728,17.35,42.212,17.15 M42.645,16.717c-0.075-0.143-0.176-0.261-0.28-0.375
	c0.057-0.242,0.352-0.37,0.604-0.6 M42.969,15.743c0.116-0.364,0.534-0.455,0.867-0.433 M43.836,15.311c0-0.073,0-0.144,0-0.216
	c0.786-0.85,2.384-0.687,3.246,0 M47.083,15.094c0.09,0.073,0.181,0.146,0.272,0.217c0.044,0.223-0.034,0.399-0.056,0.648
	 M47.083,15.094c-0.306,0.181-0.559,0.369-0.757,0.542 M48.49,16.447c0.013-0.216-0.1-0.391-0.217-0.596 M49.789,22.778
	c-0.073-0.143-0.174-0.26-0.281-0.371c-0.052-0.266,0.144-0.519,0.281-0.711 M49.789,21.696c-0.073-0.142-0.174-0.261-0.281-0.375
	c-0.025-0.287,0.157-0.479,0.281-0.708 M49.789,20.614c-0.101-0.083-0.186-0.209-0.269-0.336c0.041-0.208,0.125-0.424,0.16-0.638
	 M49.68,19.64c-0.215-0.36-0.074-0.721,0-1.082 M49.68,18.558c-0.036-0.108-0.104-0.185-0.175-0.261
	c-0.048-0.268,0.146-0.52,0.284-0.713 M49.789,17.583c-0.073-0.143-0.174-0.261-0.281-0.375c-0.025-0.287,0.157-0.479,0.281-0.708
	 M49.789,16.501c-0.101-0.083-0.186-0.209-0.269-0.336c0.041-0.208,0.125-0.424,0.16-0.638 M47.516,14.011
	c0.252,0.271,0.926,0.419,1.082,0 M48.598,14.011c-0.003-0.285-0.164-0.414-0.216-0.649 M46.542,13.471
	c0.091,0.47,0.557,0.588,0.974,0.541 M47.516,14.011c0-0.144,0-0.289,0-0.433 M45.459,13.471c0.253,0.415,0.813,0.365,1.083,0
	 M46.542,13.471c0-0.073,0-0.145,0-0.217 M44.485,13.578c0.145,0.04,0.29,0.106,0.435,0.173c0.222-0.044,0.382-0.184,0.54-0.281
	 M45.459,13.471c0-0.147,0-0.301,0-0.434 M42.104,15.094c0.323-0.094,0.541-0.39,0.649-0.649 M42.753,14.444
	c-0.077-0.139-0.169-0.264-0.216-0.433 M42.753,14.444c0.375,0.079,0.599-0.274,0.758-0.541 M43.511,13.904
	c-0.075-0.142-0.083-0.351-0.108-0.542 M43.511,13.904c0.332-0.116,0.679-0.126,0.974-0.326 M44.485,13.578c0-0.144,0-0.288,0-0.432
	 M40.481,16.068c0.006,0.141-0.05,0.35-0.109,0.541 M40.372,16.609c0.37,0.138,0.545,0.062,0.878-0.058
	c0.183-0.237,0.177-0.526,0.205-0.808 M41.13,18.666c-0.141,0.076-0.35,0.083-0.541,0.109 M41.455,19.64
	c0.06-0.371-0.121-0.735-0.325-0.974 M40.589,27.216c0.623-0.015,0.216-0.82,0.67-1.02c0.268-0.052,0.559,0.109,0.844,0.153
	 M42.104,26.35c0.036-0.036,0.072-0.072,0.108-0.108 M42.212,26.242c0.111-0.392,0.175-0.775,0.387-1.128
	c0.114-0.031,0.241-0.047,0.37-0.063 M42.969,25.052c0.152-0.491-0.602-0.749-0.361-1.231c0.135-0.155,0.289-0.45,0.361-0.717
	 M42.969,23.104c-0.05-0.021-0.1-0.043-0.151-0.065c-0.043-0.173-0.051-0.382-0.065-0.585 M42.753,22.454
	c-0.542,0.141-0.713-0.451-0.649-0.866 M42.104,21.588c-0.542,0.141-0.714-0.451-0.649-0.866 M41.455,20.722
	c-0.15-0.066-0.256-0.177-0.383-0.266c-0.044-0.246-0.044-0.534-0.05-0.816 M41.021,19.64c-0.399-0.125-0.403-0.528-0.432-0.865
	 M40.589,18.774c-0.235-0.362-0.194-0.722-0.217-1.083 M40.155,17.476c-0.05,0.021-0.1,0.043-0.151,0.064
	c-0.058,0.231-0.056,0.521-0.065,0.801 M41.13,18.666c0.201-0.299,0.123-0.707-0.158-0.924c-0.185-0.033-0.395-0.04-0.6-0.05
	 M35.393,18.991c0.05-0.022,0.101-0.043,0.152-0.065c-0.181-1.252,0.915-1.961,1.58-2.75 M38.207,14.444
	c0.003,0.291-0.151,0.426-0.266,0.6c-0.183,0.047-0.394,0.024-0.601-0.017c-0.072-0.05-0.144-0.1-0.216-0.15 M34.311,18.991
	c0.15,0.066,0.254,0.178,0.383,0.266c0.032,0.184,0.039,0.394,0.049,0.6 M34.744,19.856c0.251,0.38,0.299,0.563,0.325,0.758
	 M38.099,23.752c0.014-0.646-0.114-1.262-0.013-1.903c-0.064-0.104-0.161-0.208-0.236-0.307c-1.205-0.222-2.363-1.315-2.458-2.552
	 M35.393,18.991c-0.051-0.022-0.101-0.043-0.151-0.065c-0.369-1.227,0.598-2.655,1.883-2.75 M37.125,16.176
	c0.022-0.05,0.044-0.101,0.065-0.151c1.077,0.002,2.233-0.015,3.291,0.043 M40.481,16.068c0.069-0.146,0.131-0.301,0.215-0.433
	 M40.696,15.635c-0.187-0.101-0.319-0.257-0.541-0.325 M40.155,15.311c-0.487,0.12-1.102-0.189-0.973-0.757 M39.182,14.553
	c-0.244-0.3-0.625-0.335-0.975-0.109 M40.155,15.311c0-0.217,0-0.433,0-0.65 M41.238,14.877c-0.361-0.235-0.722-0.193-1.083-0.217
	 M40.696,15.635c0.073,0,0.145,0,0.217,0 M40.914,15.635c0.063-0.191,0.13-0.484,0.325-0.758 M40.914,15.635
	c0.141,0.075,0.35,0.082,0.542,0.108 M41.455,15.743c0.291,0.003,0.425-0.151,0.599-0.267c0.024-0.121,0.037-0.251,0.05-0.383
	 M42.104,15.094c-0.139-0.078-0.264-0.169-0.433-0.216 M37.125,14.444c0,0.144,0,0.289,0,0.433 M36.042,14.661
	c-0.006,0.223,0.049,0.384,0.109,0.542 M36.151,15.203c0.243,0.187,0.625-0.011,0.973-0.325 M33.374,18.052
	c0.175-0.033,0.434-0.031,0.613-0.036 M33.986,18.016c0.291-0.252,0.321-0.639,0.216-0.866 M33.336,18.882
	c0.147,0.07,0.301,0.132,0.433,0.217 M33.77,19.099c0.141-0.076,0.351-0.083,0.542-0.108 M34.311,18.991
	c0.06-0.37-0.122-0.737-0.325-0.975 M34.202,19.964c-0.201,0.3-0.122,0.707,0.16,0.924c0.12,0.024,0.25,0.038,0.382,0.051
	 M34.744,20.939c0.146-0.071,0.215-0.219,0.325-0.325 M35.393,21.805c0.132-0.131,0.229-0.229,0.326-0.325 M35.719,21.48
	c0.016-0.419-0.293-0.713-0.65-0.866 M36.151,22.562c0.07-0.147,0.132-0.301,0.217-0.433 M36.368,22.129
	c-0.063-0.154-0.097-0.337-0.173-0.477c-0.179-0.038-0.333-0.101-0.476-0.173 M35.61,23.32c0.334,0,0.619,0,0.865,0 M36.475,23.32
	c-0.177-0.306-0.205-0.559-0.324-0.758 M36.151,22.562c-0.419,0.01-0.835-0.296-0.758-0.757 M35.393,21.805
	c-0.071,0-0.143-0.001-0.214-0.002c-0.15-0.066-0.257-0.176-0.385-0.264c-0.033-0.184-0.039-0.394-0.05-0.599 M34.202,19.964
	c0.142-0.075,0.351-0.083,0.542-0.108 M33.77,19.099c-0.09,0.141-0.067,0.353-0.037,0.544c0.174,0.142,0.328,0.212,0.47,0.321
	 M33.553,16.934c0.209,0.081,0.467,0.112,0.649,0.216 M34.202,17.15c0.226-0.292,0.393-0.581,0.325-0.974 M34.311,15.959
	c0.026,0.119,0.12,0.169,0.216,0.216 M34.527,16.176c0.23,0.014,0.419-0.014,0.583-0.067c0.038-0.177,0.101-0.331,0.175-0.474
	 M35.177,15.311c0.014,0.131,0.06,0.229,0.108,0.325 M35.285,15.635c0.368,0.295,0.717-0.134,0.866-0.433 M36.475,23.32
	L36.475,23.32 M36.475,23.32c0.23-0.139,0.42-0.178,0.584-0.276c0.06-0.177,0.037-0.39-0.001-0.593
	c-0.246-0.173-0.5-0.202-0.689-0.321 M38.099,23.752c-0.595,0.103-1.199,0.042-1.624-0.432 M37.775,25.701
	c0.289-0.32,0.578-0.377,0.865-0.433 M38.64,25.268c-0.189-0.507-0.443-0.979-0.541-1.516 M39.506,26.783
	c0.082-0.542,0.073-1.159-0.433-1.515 M39.073,25.268c-0.145,0-0.288,0-0.433,0 M39.723,27c0.229-0.013,0.333,0.099,0.432,0.216
	 M40.155,27.216c0.145,0,0.289,0,0.434,0 M40.589,27.216c0.202-0.797-0.747-2.455-1.516-1.948 M40.155,27.216
	c0.124,0.423,0.532,0.654,0.865,0.578c0.305-0.53,1.004-0.775,1.083-1.444 M60.18,28.407c0.205-0.429,0.063-0.944,0.108-1.406
	 M60.288,27c-0.229-0.013-0.335,0.099-0.435,0.216 M59.854,27.216c-0.123,0.423-0.531,0.654-0.865,0.578
	c-0.137-0.168-0.264-0.376-0.434-0.578 M58.557,27.216c-0.14-0.077-0.265-0.169-0.434-0.216 M58.123,27
	c-0.246,0.93-1.473,1.18-1.883,0.214c-0.022-0.071-0.045-0.143-0.065-0.214 M56.175,27c-0.217,0-0.434,0-0.649,0 M55.525,27
	c-0.235,1.059-1.678,1.131-2.166,0.216 M53.359,27.216c-0.215,0-0.433,0-0.648,0 M52.711,27.216
	c-0.514,0.93-2.125,0.895-2.381-0.216 M50.33,27c-0.216,0-0.433,0-0.649,0 M49.68,27c-0.266,1.105-1.858,1.148-2.381,0.216
	 M43.836,27c-0.131,0.621-0.977,1.183-1.515,0.649 M59.529,16.068c-0.006,0.141,0.05,0.35,0.107,0.541 M59.639,16.609
	c0.194,0.289,0.188,0.577,0.217,0.867 M59.854,17.476c0.051,0.021,0.103,0.043,0.152,0.064c-0.018,1.927-0.304,4.507-2.102,5.563
	 M59.854,17.476c-0.117,0.025-0.168,0.12-0.217,0.216 M59.639,17.691c0.02,0.361,0.028,0.721-0.217,1.083 M57.04,25.052
	c-0.021-0.361,0.349-0.722,0.435-1.083 M59.854,27.216c-0.158,0.013-0.263-0.025-0.367-0.066c-0.323-0.765,0.744-2.397,1.449-1.882
	 M60.938,25.268c0.146,0,0.289,0,0.434,0 M61.37,25.268c0.188-0.507,0.442-0.979,0.541-1.516 M61.911,23.752
	c-0.015-0.646,0.114-1.262,0.014-1.903c0.063-0.104,0.159-0.208,0.236-0.307c0.294-0.156,0.817-0.016,0.94-0.387 M63.102,21.155
	c0.172-0.469,0.592-0.938,1.082-1.083 M64.184,20.072c0.051-0.021,0.101-0.045,0.148-0.067c0.135-0.339,0.375-0.608,0.285-1.014
	 M64.617,18.991c-0.051-0.022-0.102-0.043-0.151-0.065c0.245-1.051-0.901-1.708-0.932-2.533 M63.534,16.393
	c-1.165-0.742-2.702-0.233-4.005-0.325 M60.288,27c0.024-0.119,0.119-0.169,0.216-0.217 M60.504,26.783
	c-0.08-0.542-0.07-1.159,0.434-1.515 M60.504,26.783c0.837,0.584,2.043,0.009,1.73-1.082 M62.234,25.701
	c-0.287-0.32-0.576-0.377-0.864-0.433 M39.614,29.273c0.072,0,0.145,0,0.217,0 M39.832,29.273c0.265-0.226,0.576,0.007,0.865,0
	 M40.696,29.273c0.567-0.143,1.332-0.255,1.841,0.108 M42.537,29.381c0.897-0.333,2.142-0.361,3.031,0 M45.568,29.381
	c0.868-0.375,2.004-0.254,2.922-0.108 M60.396,29.273c0.17-0.141,0.229-0.354,0.236-0.545c-0.162-0.142-0.316-0.212-0.455-0.321
	 M60.18,28.407c-6.781,0-13.566,0-20.348,0 M39.832,28.407c-0.155,0.06-0.34,0.188-0.479,0.345c0.029,0.208,0.168,0.368,0.261,0.521
	 M60.396,29.273c-0.073,0-0.146,0-0.219,0 M60.396,31.654c0.153-0.432,0.588-0.713,0.643-1.191c-0.1-0.456-0.461-0.772-0.643-1.19
	 M60.18,31.654c-0.201-0.526-0.796-0.633-1.144-1.026c-0.088-0.697,0.931-0.773,1.144-1.355 M60.18,29.273
	c-0.266-0.226-0.576,0.007-0.865,0 M59.313,29.273c-0.565-0.143-1.33-0.255-1.84,0.108 M57.475,29.381
	c-0.018,0.255-0.189,0.408-0.326,0.649 M59.313,31.654c-0.184-0.515-0.701-0.748-1.129-1.026c-0.045-0.128-0.02-0.226,0.012-0.321
	c0.453-0.25,0.869-0.585,1.117-1.035 M39.614,29.273c-0.231,0.386-0.574,0.72-0.644,1.191c0.181,0.429,0.353,1.096,0.861,1.19
	 M39.832,31.654c0.224-0.483,0.73-0.703,1.128-1.023c0.132-0.716-0.97-0.721-1.128-1.358 M40.661,31.618
	c0.14-0.606,1.148-0.66,1.14-1.307c-0.44-0.265-0.857-0.588-1.104-1.038 M42.862,30.896c-0.156-0.339-0.092-0.72-0.108-1.083
	 M42.537,29.381c0.01,0.207,0.116,0.317,0.216,0.433 M42.753,29.814c0.766,0.375,1.771,0.246,2.598,0.108 M49.572,29.273
	c-0.335-0.232-0.726-0.027-1.082,0 M50.438,31.654c0.313-0.68,1.348-0.611,1.708-1.208c-0.465-0.533-1.367-0.524-1.708-1.174
	 M50.438,29.273c-0.253,0-0.639,0-0.867,0 M49.572,29.273c-0.31,0.603-1.112,0.65-1.623,0.974 M51.521,29.273
	c-0.352-0.044-0.75-0.232-1.083,0 M51.521,31.654c0.326-0.718,1.461-0.646,1.819-1.213c-0.104-0.145-0.325-0.216-0.462-0.362
	c-0.473-0.227-1.063-0.345-1.357-0.806 M54.66,31.004c0-0.369,0-0.689,0-1.082 M54.441,29.381c-0.867-0.375-2.004-0.254-2.922-0.108
	 M45.568,29.381c0.013,0.223-0.1,0.384-0.217,0.542 M48.49,31.654c-0.251-0.586-1.02-0.569-1.454-0.926
	c-0.203-0.017-0.295-0.145-0.368-0.288c0.105-0.144,0.326-0.215,0.463-0.361c0.472-0.227,1.06-0.345,1.358-0.806 M54.441,29.381
	c-0.012,0.223,0.101,0.384,0.219,0.542 M57.475,29.381c-0.896-0.333-2.143-0.361-3.031,0 M45.351,31.004c0-0.369,0-0.689,0-1.082
	 M57.148,30.896c0.151-0.278,0.097-0.583,0-0.866 M57.148,30.03c-0.826-0.054-1.687,0.119-2.488-0.108 M64.4,23.32
	c-0.336,0-0.619,0-0.866,0 M63.534,23.32L63.534,23.32 M62.234,25.701c0.707-0.621,2.601-1.391,2.166-2.381 M63.102,21.155
	c0.471-0.17,0.938-0.592,1.082-1.083 M61.911,23.752c0.595,0.103,1.198,0.042,1.623-0.432 M63.534,23.32
	c-0.229-0.139-0.419-0.178-0.582-0.276c-0.06-0.177-0.038-0.39,0.001-0.593c0.246-0.173,0.5-0.202,0.689-0.321 M63.643,22.129
	c0.344-0.546,0.752-1.058,1.301-1.516 M64.943,20.614c-0.006-0.146,0.076-0.415,0.322-0.758 M64.727,15.635
	c-0.369,0.295-0.718-0.134-0.867-0.433 M63.859,15.203c-0.243,0.187-0.625-0.011-0.976-0.325 M62.885,14.877
	c-0.314,0.352-0.759,0.182-1.08,0 M61.805,14.877c-0.371,0.244-0.738,0.208-0.976,0.108 M63.534,23.32
	c0.179-0.306,0.204-0.559,0.325-0.758 M63.859,22.562c-0.069-0.147-0.133-0.301-0.217-0.433 M63.859,22.562
	c0.717-0.001,0.746-0.797,1.357-1.023c0.031-0.184,0.038-0.394,0.049-0.6 M65.268,20.939c-0.146-0.071-0.216-0.219-0.324-0.325
	 M63.967,14.661c0.008,0.223-0.048,0.384-0.107,0.542 M64.833,15.311c0.142-0.542-0.45-0.713-0.866-0.65 M64.833,15.311
	c-0.013,0.131-0.06,0.229-0.106,0.325 M62.885,14.444c0,0.144,0,0.289,0,0.433 M63.967,14.661c-0.143-0.161-0.287-0.265-0.433-0.365
	c-0.216,0.033-0.433,0.116-0.649,0.149 M62.885,14.444c-0.283-0.293-0.787-0.281-1.031,0.05c-0.024,0.121-0.037,0.252-0.049,0.383
	 M59.854,15.311c0.369,0.06,0.736-0.121,0.976-0.325 M60.829,14.986c0.007-0.149-0.005-0.3-0.032-0.426
	c-0.209-0.144-0.595-0.132-0.941,0.101 M59.313,15.635c0.188-0.101,0.32-0.257,0.541-0.325 M59.854,15.311c0-0.217,0-0.433,0-0.65
	 M59.854,14.661c-0.359-0.018-0.721-0.028-1.082,0.217 M58.771,14.877c-0.146,0-0.287,0-0.433,0 M58.557,15.743
	c0.223,0.007,0.383-0.049,0.541-0.108 M59.098,15.635c-0.063-0.191-0.131-0.484-0.324-0.758 M59.639,17.691
	c-0.406-0.046-0.615,0.107-0.815,0.267c-0.039,0.19-0.032,0.387-0.017,0.568c0.025,0.047,0.049,0.093,0.074,0.139 M58.881,18.666
	c0.141,0.076,0.352,0.083,0.541,0.109 M58.988,19.64c0.398-0.125,0.402-0.528,0.434-0.865 M59.529,16.068
	c-0.069-0.146-0.133-0.301-0.217-0.433 M59.313,15.635c-0.071,0-0.145,0-0.217,0 M57.906,15.094c0.14-0.078,0.265-0.169,0.434-0.216
	 M58.34,14.877c0.09-0.492-0.393-0.918-0.865-0.866 M56.499,13.904c0.076-0.142,0.083-0.351,0.108-0.542 M56.607,13.362
	c-0.021-0.072-0.043-0.146-0.065-0.218c-0.174-0.152-0.384-0.166-0.584-0.208c-0.138,0.073-0.265,0.163-0.433,0.209 M57.257,14.444
	c0.078-0.139,0.169-0.264,0.218-0.433 M57.475,14.011c0.139-0.542-0.451-0.713-0.867-0.649 M55.525,13.578c0-0.144,0-0.288,0-0.432
	 M55.525,13.146c-0.146-0.162-0.289-0.266-0.436-0.367c-0.221,0.027-0.383,0.166-0.54,0.258 M52.495,13.578c0,0.145,0,0.289,0,0.433
	 M53.469,13.253c-0.322-0.209-0.936-0.152-0.974,0.325 M41.455,19.64c-0.145,0-0.289,0-0.434,0 M41.888,20.505
	c0.069-0.378-0.106-0.75-0.433-0.866 M42.104,21.588c0.051-0.021,0.103-0.044,0.154-0.065c0.237-0.34,0.04-0.927-0.37-1.018
	 M41.888,20.505c-0.14,0.078-0.264,0.169-0.433,0.216 M58.557,20.722c-0.14-0.077-0.265-0.168-0.434-0.216 M57.906,21.588
	c0.542,0.141,0.714-0.451,0.648-0.866 M57.257,22.454c0.541,0.141,0.714-0.451,0.649-0.866 M57.906,21.588
	c-0.145-0.071-0.215-0.219-0.324-0.325 M58.557,20.722c0.15-0.066,0.254-0.177,0.383-0.266c0.043-0.246,0.043-0.534,0.049-0.816
	 M58.988,19.64c-0.143,0-0.288,0-0.434,0 M57.04,25.052c-0.118,0.026-0.167,0.12-0.215,0.216 M57.04,26.783
	c0.901-0.1,0.834-1.726,0-1.731 M56.825,25.268c-0.435,0-0.867,0-1.3,0 M56.175,27c0.326,0.024,0.544,0.25,0.804,0.146
	c0.031-0.109,0.049-0.235,0.063-0.363 M57.04,26.783c0.045-0.527-0.011-1.033-0.215-1.515 M55.525,25.268c0-0.072,0-0.145,0-0.216
	 M55.418,26.891c-0.244-0.519-0.079-1.117,0.107-1.623 M56.391,22.887c0.326,0.024,0.543,0.25,0.805,0.146
	c0.043-0.169,0.049-0.378,0.063-0.58 M57.257,22.454c-0.024-0.118-0.118-0.168-0.217-0.216 M50.33,15.527
	c0.078-0.216,0.169-0.433,0.217-0.649 M50.547,14.877c-0.145-0.161-0.289-0.266-0.433-0.369c-0.613-0.032-0.655,0.612-0.434,1.018
	 M50.33,15.527c-0.216,0-0.433,0-0.649,0 M50.221,16.501c0.158-0.142,0.249-0.353,0.306-0.543c-0.064-0.137-0.154-0.263-0.197-0.431
	 M50.221,16.501c-0.146,0-0.299,0-0.432,0 M50.221,17.583c0.416-0.253,0.365-0.813,0-1.083 M50.33,18.558
	c0.037-0.108,0.105-0.185,0.177-0.261c0.048-0.268-0.148-0.52-0.286-0.713 M50.221,17.583c-0.146,0-0.299,0-0.432,0 M50.33,18.558
	c-0.216,0-0.433,0-0.649,0 M50.33,19.64c0.215-0.36,0.075-0.721,0-1.082 M50.33,19.64c-0.216,0-0.433,0-0.649,0 M50.221,20.614
	c0.158-0.141,0.249-0.354,0.306-0.543c-0.064-0.137-0.154-0.263-0.197-0.431 M50.221,20.614c-0.146,0-0.299,0-0.432,0
	 M50.221,21.696c0.416-0.253,0.365-0.813,0-1.083 M50.221,22.778c0.074-0.143,0.174-0.26,0.282-0.371
	c0.052-0.266-0.144-0.519-0.282-0.711 M50.221,21.696c-0.146,0-0.299,0-0.432,0 M51.088,23.645c-0.367-0.198-0.66-0.513-0.867-0.866
	 M50.221,22.778c-0.146,0-0.299,0-0.432,0 M49.789,22.778c-0.198,0.368-0.514,0.66-0.866,0.866 M50.979,25.052
	c-0.025-0.471,0.429-0.946,0.108-1.407 M57.798,17.15c-0.134,0.425-0.218,1.065,0.015,1.44C58.307,18.462,58.284,17.35,57.798,17.15
	 M54.66,16.176c0.371,0.215,0.738,0.24,1.081,0 M52.928,15.094c0.307,0.181,0.561,0.369,0.758,0.542 M53.686,15.635
	c0.244-0.217,0.625-0.202,0.976,0.108 M54.66,15.743c0.135-0.079,0.27-0.257,0.449-0.372c0.203,0.037,0.418,0.121,0.632,0.155
	 M55.741,15.527c0,0.216,0,0.433,0,0.649 M56.175,15.311c-0.146,0.026-0.288,0.12-0.434,0.216 M52.495,15.311
	c0.114,0.258,0.165,0.543,0.452,0.806c0.287,0.066,0.543-0.129,0.736-0.265 M53.686,15.852c0-0.072,0-0.145,0-0.216 M53.686,15.852
	c0.076,0.457,0.64,0.72,0.976,0.324 M54.66,16.176c0-0.144,0-0.289,0-0.433 M64.617,18.991c0.051-0.022,0.102-0.043,0.15-0.065
	c0.285-1-0.256-2.158-1.233-2.533 M43.836,15.311c0.144,0.026,0.288,0.12,0.433,0.216 M44.269,15.527
	c0.218-0.094,0.435-0.15,0.647-0.131c0.14,0.17,0.266,0.267,0.435,0.347 M42.969,15.743c0.355,0.369,0.791,0.502,1.3,0.433
	 M44.269,16.176c0-0.216,0-0.433,0-0.649 M44.269,16.176c0.107,0.036,0.184,0.105,0.26,0.177c0.251,0.031,0.538-0.128,0.822-0.177
	 M45.351,16.176c0-0.144,0-0.289,0-0.433 M45.351,16.176c0.217,0.168,0.436,0.151,0.65,0.144c0.249-0.302,0.3-0.496,0.324-0.684
	 M46.325,15.635c-0.243-0.217-0.625-0.202-0.974,0.108 M50.979,25.052c-0.145,0.071-0.215,0.218-0.324,0.325 M52.277,26.134
	c-0.166-0.416-0.6-0.592-0.709-1.02c-0.176-0.042-0.387-0.048-0.59-0.063 M50.654,25.377c-0.389-0.154-0.911-0.181-1.298,0
	 M50.33,27c0.132-0.014,0.229-0.061,0.324-0.109 M50.654,26.891c0.382-0.459,0.353-1.049,0-1.514 M52.495,26.35
	c-0.073-0.072-0.146-0.144-0.218-0.216 M52.277,26.134c-0.203,0.383-0.615,0.596-0.711,1.024c-0.305,0.041-0.68-0.145-0.912-0.267
	 M49.68,27c-0.144,0-0.289,0-0.433,0 M49.248,27c-0.297,0.133-0.591,0.204-0.797,0.143c-0.107-0.417-0.524-0.637-0.718-1.009
	 M49.248,27c-0.161-0.533-0.395-1.156,0.108-1.624 M49.356,25.377c-0.07-0.147-0.132-0.301-0.217-0.433 M44.485,25.268
	c0.248,0.469,0.224,0.998,0.217,1.515 M44.702,26.783c0.12,0.26,0.564,0.444,0.797,0.363c0.511-0.734,0.189-1.472-0.408-2.029
	c-0.188-0.044-0.398-0.051-0.606-0.065 M42.969,26.783c-0.014,0.158,0.026,0.265,0.07,0.37c0.255,0.037,0.448-0.155,0.797-0.153
	 M43.836,27c0.144,0,0.288,0,0.433,0 M44.269,27c0.144-0.119,0.289-0.169,0.433-0.217 M42.212,26.242
	c0.19,0.226,0.484,0.447,0.757,0.541 M42.969,26.783c-0.042-0.527,0.011-1.033,0.217-1.515 M42.969,25.052
	c0.119,0.026,0.17,0.12,0.217,0.216 M43.187,25.268c0.433,0,0.866,0,1.298,0 M44.485,25.268c0-0.072,0-0.145,0-0.216 M44.485,25.052
	c-0.005-0.571,0.11-1.184-0.324-1.624 M42.969,23.104c0.164-0.125,0.388-0.19,0.65-0.216 M43.62,22.887
	c0.212-0.504-0.682-0.936-0.866-0.434 M46.649,27.216c0.217,0,0.433,0,0.649,0 M47.299,27.216c0.125-0.289,0.19-0.577,0.217-0.866
	 M52.495,26.35c0.003,0.289,0.163,0.578,0.216,0.866 M53.359,27.216c0.134-0.288,0.205-0.58,0.146-0.868
	c-0.227-0.201-0.516-0.198-0.797-0.148c-0.072,0.05-0.145,0.1-0.215,0.149 M58.557,27.216c0.157-0.107,0.264-0.185,0.366-0.261
	c0.097-0.257,0.022-0.551-0.174-0.759c-0.283-0.087-0.58,0.145-0.71,0.376c0.05,0.141,0.068,0.284,0.084,0.427 M48.165,10.548
	c-0.007-0.296-0.013-0.59,0.065-0.803c0.291-0.036,0.662,0.155,1.017,0.154 M42.104,23.104c-1.034-0.395-1.439-1.358-1.515-2.382
	 M57.04,20.072c-0.231,1.001-1.243,1.515-2.021,2.093 M52.928,91.725c8.471-0.576,16.801-4.131,23.163-9.74 M76.091,81.984
	c0.093-0.322,0.392-0.541,0.647-0.648 M76.738,81.336c0.027-0.146,0.121-0.289,0.219-0.436 M76.738,81.336c0,0.143,0,0.287,0,0.432
	 M76.091,81.984c0.498,2.065,0.486,5.078,2.813,6.061 M85.725,74.947c-0.279,0.486-0.48,0.998-0.65,1.518 M85.073,76.465
	c-0.001,0.148,0.018,0.283,0.036,0.396 M85.109,76.861c0.049,0.022,0.098,0.047,0.146,0.072 M85.255,76.934
	c0.165-0.102,0.377-0.203,0.578-0.313c0.229,0.033,0.418,0.139,0.581,0.219c0.043,0.262,0.076,0.516,0.175,0.707 M86.589,77.547
	c0.072,0,0.146,0,0.218,0 M86.807,77.547c0.023-0.855,0.437-2.611,1.623-1.84 M86.807,77.547c0.146,0.07,0.301,0.131,0.432,0.217
	 M87.236,77.764c0.104-0.289,0.42-0.522,0.589-0.707c0.2,0.033,0.385,0.137,0.538,0.217c0.062,0.314,0.045,0.688,0.174,0.922
	 M88.537,78.195c1.033-0.754,3.341,0.291,3.355-1.623 M91.893,76.572c-0.092-0.371-0.164-0.549-0.217-0.865 M91.893,76.572
	c0.366,0.27,0.58,0.266,0.812,0.156c0.073-0.304,0.03-0.685,0.271-0.914 M92.975,75.814c0.186-0.953-0.459-1.763-0.365-2.642
	c0.281,0.113,0.759,0.181,0.908-0.063 M93.518,73.109c-0.072-0.148-0.22-0.301-0.326-0.435 M93.518,73.109
	c0.217,0.012,0.342-0.025,0.463-0.066c0.054-0.172,0.062-0.381,0.078-0.584 M94.059,72.459c-0.177-0.32-0.529-0.531-0.649-0.867
	 M92.975,75.814c1.521,0.299,2.355,1.854,2.771,3.184c0.038,0.209-0.018,0.332-0.08,0.424c-4.58-3.434-9.174,3.51-14.164,1.264
	 M81.502,80.686c0.387,0.881,0.258,1.976,0.975,2.705 M82.477,83.391c2.89-2.258,8.588-4.668,11.073-1.188
	c-0.179,0.137-0.276,0.264-0.358,0.432 M82.477,83.391c-0.688,0.785-1.551,1.484-2.272,2.273 M81.502,80.686
	c-0.064-0.151-0.268-0.166-0.434-0.217 M79.229,78.412c-0.451,0.193-0.494,0.789-0.975,0.975 M79.771,77.871
	c-0.014-0.229,0.1-0.334,0.217-0.432 M84.643,74.516c-0.176-0.346-0.601-0.514-0.976-0.541 M83.667,73.975c-0.217,0-0.433,0-0.649,0
	 M83.018,73.975c-0.102,0.115-0.266,0.166-0.433,0.215 M83.018,73.975c-0.021-0.619,0.571-1.086,0.434-1.731 M83.45,72.242
	c-0.144,0-0.288,0-0.435,0 M83.559,71.918c-0.084-0.1-0.209-0.186-0.336-0.27c-0.277,0.078-0.566,0.143-0.854,0.16 M50.438,85.123
	c8.658,0.223,18.162-3.465,23.595-10.283 M74.033,74.84c-1.774,1.225-3.863,1.248-5.735,0.217 M68.298,75.057
	c0.212,1.152-0.84,2.228-1.948,2.162c-0.482-0.217-0.92-0.514-1.406-0.754 M64.943,76.465c0.065,1.795-2.635,2.375-3.31,0.713
	c-0.2-0.732,0.044-1.42,0.437-2.008c-0.019-0.102-0.063-0.188-0.11-0.271c-2.065-0.866-3.646,1.566-4.703,2.974 M57.689,79.604
	c0.459,0.004,0.735-0.436,1.127-0.604c0.389-0.031,0.816-0.121,1.187,0.021c0.162,0.104,0.463,0.33,0.653,0.59
	c0.086,0.35,0.097,0.752-0.174,1.014c-0.275,0.088-0.574-0.143-0.777-0.375c0.049-0.213,0.1-0.432,0.068-0.646
	c-0.987-0.588-1.578,1-2.301,1.41 M75.55,73.648c1.206-0.813,1.759-2.267,2.813-3.246 M78.363,70.402
	c-0.385-0.256-0.661-0.646-1.077-0.84c-0.128,0.176-0.065,0.647-0.179,0.881c-0.957-1.049-1.391,0.287-2.145-0.738
	c-1.479,0.01-2.088,1.707-2.013,2.971 M75.007,74.189c0.304-0.109,0.396-0.371,0.543-0.541 M75.55,73.648
	c-0.192-0.101-0.485-0.256-0.76-0.322 M75.007,74.189c-0.222,0.008-0.383-0.049-0.54-0.107 M74.033,74.84
	c0.427,0.039,0.863-0.318,0.974-0.65 M66.674,72.566c0.46-0.51,0.84-1.238,1.624-1.406 M68.514,74.189
	c0.416,0.018,0.715-0.313,1.082-0.433 M74.033,74.84L74.033,74.84 M74.033,74.84c0.021-0.455,0.227-0.594,0.434-0.758
	 M74.467,74.082c0.083-0.25-0.001-0.684,0.323-0.756 M74.79,73.326c-0.117-0.59,0.497-1.238,0.101-1.766
	c-0.608,0.424-1.106,1.19-1.938,1.114 M72.951,72.676c-0.192,0.432-0.041,1.029-0.34,1.389c-0.772-0.43-1.441-0.147-2.258,0.019
	 M84.643,74.516c-0.375,0.504-0.857,1.094-0.649,1.732 M85.725,74.947c-0.259-0.326-0.707-0.355-1.082-0.432 M83.559,71.918
	c-0.06,0.084-0.084,0.203-0.107,0.324 M83.667,73.975c0.188-0.604,0.521-1.641-0.108-2.057 M85.255,76.934
	c0.171,0.387,0.149,0.898,0.478,1.188c0.367-0.052,0.521-0.453,0.856-0.574 M85.109,76.861c-0.379,0.141-0.45,0.625-0.866,0.721
	 M84.243,77.582c-0.007,0.027-0.015,0.057-0.022,0.086c-1.121,1.096-3.215,1.195-4.449,0.203 M79.771,77.871
	c-0.304,0.111-0.396,0.371-0.541,0.541 M79.229,78.412c2.301,1.611,5.979,1.533,8.008-0.434 M87.236,77.979c0-0.071,0-0.143,0-0.215
	 M85.073,76.465c-0.304-0.24-0.702-0.479-1.081-0.217 M83.992,76.248c-0.215,0.432-0.153,1.025,0.251,1.334 M87.236,77.979
	c0.398,0.095,0.449,0.771,0.914,0.672c0.162-0.104,0.262-0.293,0.387-0.455 M56.607,74.189c0-0.072,0-0.144,0-0.217
	c2.639-0.968,5.025-3.425,8.226-2.813 M64.833,71.16c0.521-0.246,0.747-1.104,1.483-0.832c0.047,0.025,0.095,0.049,0.141,0.074
	 M65.591,72.242c0.046-0.713,0.468-1.271,0.866-1.84 M53.793,78.412c3.473-2.09,6.104-6.998,10.934-5.629 M64.727,72.783
	c-0.334-0.533,0.237-1.057,0.106-1.623 M67.973,74.732c0.188-0.228,0.321-0.447,0.541-0.543 M68.514,74.189
	c-0.063-0.424,0.398-0.813,0.148-1.232c-0.286-0.229-0.663-0.305-1.016-0.213c-0.254,0.27-0.398,0.646-0.434,1.014 M68.298,75.057
	c-0.071-0.145-0.22-0.215-0.325-0.324 M67.973,74.732c-0.421-0.168-0.613-0.574-0.759-0.976 M67.214,73.758
	c-0.374,0.072-0.68-0.133-0.973-0.324 M66.241,73.434c-0.155,0.09-0.337,0.068-0.476,0.039c-0.033-0.17-0.15-0.379-0.283-0.582
	 M66.241,73.434c0.147-0.315,0.558-0.432,0.433-0.867 M66.674,72.566c-0.047-0.097-0.104-0.183-0.162-0.271
	c-0.225-0.047-0.549-0.047-0.921-0.055 M64.943,76.465c0.07-1.254-1.355-2.232-1.887-2.445c-3.562-1.424-6.361,4.063-9.156,5.261
	 M81.936,26.783c0.146,0.214,0.183,0.541,0.434,0.65 M77.822,38.04c1.597-0.472,2.763-2.091,4.328-2.598 M68.514,40.421
	c-0.013-0.377-0.164-0.713,0-1.082 M89.943,67.48c-0.104-0.367-0.567-0.5-0.648-0.865 M63.318,31.33c0-0.072,0-0.144,0-0.214
	c0.57-0.709,1.27-1.275,1.949-1.888c0.418,0.038,0.601,0.273,0.756,0.479 M66.023,29.706c0.142-0.073,0.352-0.173,0.545-0.28
	c1.556,0.82,3.818,2.297,3.957,4.218c0.549,0.928,1.654,1.468,2.102,2.449 M72.627,36.092c0.414,0.015,0.713-0.314,1.082-0.434
	 M73.709,35.659c0.001-0.071,0.002-0.143,0.002-0.214c1.303-2.279,4.117-2.319,6.424-2.448c0.549-0.376,0.98-0.98,0.936-1.667
	 M81.068,31.33c-0.752-0.029-1.517,0.062-2.262-0.055c-0.138,0.173-0.057,0.389,0.059,0.536c0.031,0.132,0.002,0.229-0.03,0.323
	c-0.11,0.035-0.239,0.045-0.368,0.054c-0.177-0.102-0.367-0.201-0.529-0.324c-0.162-0.49-0.244-1.179,0.102-1.617 M78.038,30.247
	c-1.656,0.021-4.772,0.92-5.179-1.747c0.259-0.364,0.134-1.044,0.736-1.117c0.174,0.457-0.074,1.014,0.176,1.5
	c1.054,1.225,3.238,0.824,4.375,0.064 M78.146,28.948c-0.006-0.132-0.029-0.229-0.055-0.325 M78.093,28.624
	c-0.263,0.007-0.421-0.005-0.586-0.032c-0.489-0.485-1.003-1.205-0.657-1.917 M76.85,26.675c-0.099-0.047-0.187-0.104-0.273-0.163
	c-0.039-0.12-0.012-0.25,0.02-0.382c0.733-0.457,1.422-1.07,2.311-1.078 M73.709,35.659c0.82-0.124,1.525-0.632,2.382-0.649
	 M72.627,36.092c-0.305,0.461-0.768,0.832-1.191,1.189 M71.436,37.282c-0.763,1.441-1.475,2.919-2.056,4.439 M69.38,41.721
	c1.22-0.294,2.062-1.466,3.03-2.165 M69.38,41.721c-1.246,0.667-1.912,1.945-2.166,3.246 M67.214,44.967
	c0.328,0.35,0.177,0.87,0.218,1.299 M67.214,44.967L67.214,44.967 M67.214,44.967c-0.407,0.757-0.164,1.728-0.185,2.566
	c0.08,0.057,0.242,0.023,0.402,0.032 M67.432,47.565c1.846-1.717,4.574-2.577,6.277-4.546 M67.432,47.565
	c0.149,0.066,0.256,0.178,0.387,0.266c0.054,0.262-0.143,0.516-0.277,0.708 M67.54,48.54c1.174,0.31,1.995-1.06,2.922-1.624
	 M67.54,48.54c-0.142,0-0.351,0-0.541,0 M67.214,44.967c-0.515-1.589-0.019-3.409-0.271-5.077c0.267-0.156,0.693-0.216,0.8-0.55
	c-0.192-0.578-0.104-1.193,0.12-1.732 M71.436,37.282c-0.531-0.702-1.447-1.314-1.406-2.272 M66.023,29.706
	c-0.424,0.795-1.957,0.669-1.84,1.84 M64.727,32.52c0.459,0.156,1.058,0.185,1.516,0 M66.241,32.52
	c0.141-0.153,0.35-0.251,0.54-0.324 M66.241,32.52c0.208,0.081,0.466,0.112,0.647,0.217 M66.891,32.736
	c0.471-0.677,1.498-0.122,1.604,0.543c-0.104,0.354-0.511,0.754-0.849,1.016c-0.071,0.021-0.144,0.042-0.215,0.064 M67.432,34.36
	c-0.238,0.072-0.365,0.215-0.464,0.319c0.019,0.089,0.024,0.209,0.031,0.331 M85.398,23.32c-0.209,0.236-0.646,0.105-0.758,0.432
	 M84.643,23.752c-0.369,1.178-1.668,1.694-2.814,1.625 M81.827,25.377c-0.025,0.047-0.05,0.094-0.075,0.142
	c-0.619,0.565-2.204,0.792-2.197-0.467 M76.85,26.675c0.531-0.116,0.994-0.404,1.405-0.758 M81.068,31.33
	c2.052-0.211,3.291-2.397,2.632-4.353c0.893,0.119,2.147,0.043,2.348-1.06 M86.048,25.917c-0.288,0-0.577,0-0.866,0 M83.343,22.995
	c0.234,0.496,0.774,0.751,1.3,0.757 M85.398,23.32c-0.168-0.493-0.281-1.596-1.021-1.444c-0.366,0.356-0.784,0.673-1.036,1.12
	 M83.343,22.995c-0.844-0.53-1.056,0.603-1.885,0.924c-1.122,0.437-2.163-0.473-2.554,1.133 M78.904,25.052c0.217,0,0.432,0,0.65,0
	 M81.827,25.377c-0.745-0.192-1.472-0.547-2.272-0.325 M78.146,28.948c1.111-0.139,2.508-0.594,3.463,0.325 M81.609,29.273
	c0.074-0.143,0.174-0.26,0.279-0.372c0.084-0.697-0.365-1.376-0.869-1.856c-1.022,0.234-2.156,0.905-2.928,1.579 M78.038,30.247
	L78.038,30.247 M78.038,30.247c0.053-0.136,0.091-0.224,0.13-0.311c0.453-0.312,1.09-0.5,1.615-0.278
	c0.183,0.235,0.176,0.524,0.203,0.805 M79.986,30.463c0.722,0.101,1.527-0.473,1.623-1.19 M78.038,30.247
	c0.558,0.283,1.366,0.313,1.948,0.216 M66.023,18.016c-0.291-0.252-0.32-0.639-0.217-0.866 M65.809,17.15
	c-0.226-0.292-0.393-0.581-0.324-0.974 M65.482,16.176c-0.229,0.014-0.418-0.014-0.582-0.067c-0.039-0.177-0.103-0.331-0.174-0.474
	 M66.674,18.882c-0.146,0.07-0.301,0.132-0.433,0.217 M66.241,19.099c0.091,0.141,0.067,0.353,0.036,0.544
	c-0.174,0.142-0.327,0.212-0.471,0.321 M64.4,23.32c0.873-1.312,2.668-2.66,2.272-4.438 M65.699,15.959
	c0.142-0.542-0.45-0.713-0.866-0.649 M65.699,15.959c-0.025,0.119-0.119,0.169-0.217,0.216 M66.457,16.934
	c-0.09-0.19-0.08-0.486-0.173-0.76c-0.173-0.149-0.384-0.164-0.585-0.214 M66.241,19.099c-0.142-0.076-0.351-0.083-0.542-0.108
	 M65.699,18.991c-0.149,0.066-0.256,0.178-0.383,0.266c-0.033,0.184-0.039,0.394-0.051,0.6 M65.268,20.939
	c0.291,0.002,0.426-0.152,0.6-0.267c0.06-0.262,0.023-0.515-0.059-0.708 M65.809,19.964c-0.142-0.075-0.351-0.083-0.541-0.108
	 M66.674,18.882c0.01-0.277,0.053-0.559-0.035-0.83 M66.639,18.052c-0.178-0.033-0.436-0.031-0.613-0.036 M66.023,18.016
	c-0.281,0.244-0.306,0.625-0.324,0.975 M66.639,18.052c0.313-0.371,0.055-0.804-0.182-1.119 M66.457,16.934
	c-0.208,0.081-0.466,0.112-0.648,0.216 M66.891,32.736c-0.027,0.649,0.662,0.962,0.541,1.624 M66.999,35.009
	c-0.009,0.295-0.015,0.59,0.067,0.803c0.229,0.058,0.369-0.097,0.533-0.204C67.547,35.329,67.251,35.112,66.999,35.009
	 M56.934,72.135c0.266-0.096,0.627-0.094,0.801-0.281c2.951-0.768,5.953-1.209,7.699-3.342c2.527-3.094,1.118-7.805,1.633-12.289
	c0.262-0.178,0.398-0.285,0.475-0.432 M67.54,55.791c-0.054-0.377-0.197-0.639-0.481-0.881c0.974-0.414,1.951-1.609,1.348-2.691
	 M68.404,52.219c-0.422,0.174-0.525,0.801-1.081,0.758 M67.323,52.977c-0.072,0.051-0.169,0.148-0.267,0.248
	c-0.004,0.142,0.09,0.24,0.187,0.34c0.063,0.021,0.125,0.041,0.188,0.063 M67.323,52.977c0.188-0.313,0.122-0.836-0.324-0.865
	 M68.404,52.219c-0.102-0.191-0.256-0.484-0.322-0.758 M67.54,55.791c0.099,0,0.194,0,0.292,0.002
	c1.329-1.068,1.624-3.176,1.872-4.873 M69.704,50.92c-0.004-0.068-0.021-0.123-0.036-0.182 M69.668,50.739
	c-0.548-0.234-0.152-1.077-0.396-1.55 M69.668,50.739c0.738-0.414,1.438-0.983,2.311-1.009 M71.979,49.73
	c0.021-0.05,0.043-0.102,0.063-0.153c0.578-0.221,1.147-0.271,1.767-0.37c0.465,0,0.299,0.615,0.551,0.847 M74.357,50.054
	c0.916,0.652,2.045,0.51,3.129,0.594c0.268-0.263-0.055-0.61,0.011-0.918 M77.497,49.73c-0.613,0.002-1.082-0.447-1.623-0.649
	 M77.497,49.73c-0.496-0.632,1.331-1.122,0.167-1.579c0.294-0.777,1.555-1.055,1.529-1.993c-0.262-0.058-0.502-0.218-0.557-0.427
	c0.25-0.786,1.036-1.286,1.674-1.738 M80.313,43.993c-0.193-0.503-0.111-1.223-0.649-1.515 M79.662,42.478
	c-0.971,0.273-1.637,1.099-2.324,1.794c-1.693-0.356-1.419-2.737-0.381-3.634 M79.662,42.478c0.516-0.424,1.056-1.012,1.624-1.408
	 M80.313,43.993c0.152,1.75,0.289,4.083,2.381,4.546 M82.693,48.54c0.207-1.004,0.502-1.978,1.033-2.862
	c0.127-0.168,0.317-0.276,0.476-0.327c0.208,0.438,0.06,0.988,0.223,1.457 M82.693,48.54c-0.027,0.046-0.055,0.093-0.08,0.14
	c0.142,1.554,1.563,2.569,2.568,3.647 M74.357,50.054c0.15,1.202,1.353,1.92,2.166,2.706 M78.904,55.25
	c0.732,0.1,1.195,0.729,1.729,1.189 M82.044,60.012c0.211-1.676-0.298-3.656-1.409-4.869 M82.368,61.852
	c-0.022,0.383-0.003,0.726,0.173,0.91c-0.445,5.158,9.338,5.049,6.204,11.523c-0.89,1.027-2.108-0.141-3.021,0.662 M94.059,72.459
	c0.395-0.025,0.67,0.074,0.86,0.1c0.401-0.125,1.036-0.117,1.136-0.635c-2.902-0.748-2.377-4.607-5.41-5.791
	c-0.127-1.396,0.059-2.908-0.194-4.221c0.171-0.043,0.286,0.045,0.407,0.113c1.678,0.852,3.367-0.256,4.438-1.385
	c0.124,0.346,0.123,0.778-0.314,0.838c-0.076,0.344,0.27,0.559,0.422,0.76c0.388,0.106,0.727-0.193,0.986-0.437
	c0.07-0.372,0.072-0.76-0.005-1.131c0.548-0.151,1.188-0.262,1.521-0.813c0.047-0.412,0.117-0.856-0.016-1.258
	c-0.26-0.287-0.473-0.422-0.629-0.596c-0.25-0.045-0.537-0.045-0.82-0.051 M78.904,55.25c-0.023-0.012-0.049-0.025-0.072-0.037
	 M78.363,70.402c0.048,0.022,0.094,0.049,0.142,0.072c0.201,0.028,0.401,0.112,0.586,0.174c0.126-0.804-0.709-1.594-1.005-2.349
	c-0.036-0.192-0.074-0.344-0.102-0.487c0.482-0.789,2.011-1.244,1.72-2.433c-0.476-0.539-1.265-1.133-0.952-1.944
	c0.749-1.256,2.223-1.679,3.616-1.584 M82.368,61.852c-0.084-0.612-0.155-1.248-0.324-1.84 M82.044,60.012
	c-0.149,0.002-0.284-0.018-0.397-0.035 M81.646,59.977c-0.729,0.181-1.449,0.42-2.092,0.793 M81.646,59.977
	c-1.039-1.516-1.996-3.045-2.742-4.727 M66.457,70.402c3.199,0.229,5.542-1.918,7.636-4.699c0.357-1.578-0.969-2.598-1.204-3.895
	c-0.752-4.134,1.987-6.347,5.943-6.597 M78.832,55.213c-1.889-1.461-4.496-2.117-6.205-4.076 M72.627,51.137
	c-0.293-0.427-0.402-0.967-0.648-1.407 M69.704,50.92c0.672,0.443,1.147,1.328,0.923,2.15c0.104,0.084,0.216,0.186,0.316,0.295
	c1.188,0.096,1.943-1.129,1.684-2.229 M69.813,44.751c0.6-1.184,2.027-1.608,2.814-2.598 M81.936,32.845
	c1.574-0.576,2.883-1.835,3.246-3.464 M87.889,24.511c3.484,3.452,3.993,7.891,3.204,12.381c0.3,0.138,0.679-0.1,0.899-0.188
	c0.486,0.284,0.352,1.025,0.27,1.485c-0.148,0.246-0.455,0.484-0.634,0.665c-0.188,0.033-0.305,0.131-0.429,0.224
	c-0.374,0.112-0.805-0.067-1.146,0.154 M90.053,39.231c0.459,0.577,1.279,1.143,1.119,1.988c-0.316,0.725-0.756,1.586-1.443,2.016
	 M90.053,39.231c-0.127-0.002-0.308-0.083-0.541-0.109 M86.048,25.917c0.271-0.183,0.599-0.211,0.815-0.482
	c0.023-0.121,0.037-0.252,0.051-0.383 M86.914,25.052c-0.145,0-0.289,0-0.434,0 M86.914,25.052c0.285-0.25,0.689-0.267,0.975-0.541
	 M87.889,24.511c0.002-0.037,0.002-0.073,0.002-0.109c-0.723-0.4-1.613-0.867-2.492-1.082 M84.425,46.807
	c0.278,0.376,0.474,0.807,0.81,1.144c0.132,0.036,0.228,0.008,0.32-0.024c0.266-1.002,0.654-2.07,1.252-2.851 M86.807,45.076
	c0-0.505,0-1.011,0-1.516 M86.807,45.076c0.225,0.383,0.321,0.961,0.854,1.022c0.605-1.094,1.252-2.101,1.517-3.293
	c-0.224-0.52-0.442-1.056-0.745-1.518 M84.425,46.807c-0.047,0.025-0.095,0.049-0.142,0.075c-0.678,4.7,4.406,6.642,5.4,10.251
	c0.129,0.469,2.139,6.088,4.106,2.512c1.847-3.356-7.619-6.205-5.795-10.998 M87.996,48.647c0.484-3.373,4.811-5.087,4.184-8.812
	C96.055,43.56,89.555,45.985,87.996,48.647 M88.861,48.647c0.425-1.312,1.902-1.754,3.14-1.84 M92.001,46.807
	c0.59-0.328,1.024-0.936,0.974-1.624 M92.001,46.807c0.179,0.486,0.19,1.063,0.044,1.559c-0.072,0.073-0.139,0.15-0.205,0.229
	c-0.283,0.077-0.477,0.245-0.705,0.377 M91.135,48.972c0.152,0.333,0.157,0.779,0.045,1.126c-0.072,0.071-0.139,0.151-0.201,0.231
	c-0.254,0.052-0.545,0.053-0.754-0.015c-0.07-0.073-0.149-0.138-0.229-0.201c-0.036-0.253-0.031-0.546-0.116-0.754
	c-0.229-0.051-0.521,0.109-0.8,0.154 M89.079,49.513c0.34,4.225,7.344,5.161,6.562,10.108c0.183,0.059,0.365,0.035,0.52,0
	c0.07-0.07,0.148-0.137,0.229-0.203c0.028-0.188,0.09-0.342,0.159-0.488 M91.135,48.972c-0.142-0.075-0.261-0.173-0.371-0.276
	c-0.644-0.296-1.742-0.068-1.685,0.817 M87.348,33.061c2.088-1.025,1.896-3.613,0.648-5.195 M86.697,35.442
	c-0.633,0.964-1.911,1.302-2.598,2.165 M70.895,49.081c1.035-0.512,2.09-1.067,3.248-1.299 M73.926,60.119
	c0.292-1.113,0.771-2.344,1.948-2.813 M83.884,60.77c0.267,1.277-0.122,2.713,0.433,3.896 M76.091,67.48
	c0.777-0.271,1.354-0.976,1.813-1.617c0.1-0.393-0.402-0.582-0.299-0.98 M91.243,72.459c0.299-1.324,0.157-2.721-0.649-3.896
	 M91.027,68.129c0.41,0.332,0.586,0.51,0.865,0.867 M75.225,75.057c0.217-0.217,0.435-0.432,0.649-0.647 M82.15,76.787
	c0.136-0.342-0.412-0.537-0.215-0.865 M81.502,77.654c0.145,0,0.289,0,0.434,0 M81.936,77.654c-0.035-0.289,0.037-0.578,0.217-0.867
	 M81.936,77.654c0.229-0.066,0.42-0.178,0.586-0.266c0.06-0.197-0.056-0.382-0.178-0.537c-0.063-0.021-0.128-0.043-0.191-0.064
	 M73.492,76.787c0.145-0.143,0.289-0.287,0.434-0.432 M92.759,86.963c0.05-0.021,0.101-0.043,0.152-0.064
	c0.073-0.832-0.308-1.639-0.152-2.532 M81.068,85.881c0.434-0.434,0.867-0.867,1.3-1.299 M89.62,86.205
	c0.075,0.141,0.082,0.352,0.108,0.541 M89.62,86.205c-2.683-0.186-4.522,4.209-6.819,2.922 M89.62,86.205
	c0.569-0.182,1.254-0.141,1.841-0.043c0.148,0.172,0.165,0.383,0.215,0.584 M91.676,86.746c-0.326-0.025-0.543-0.25-0.805-0.146
	c-0.063,0.236-0.066,0.529,0.007,0.734C91.184,87.439,91.568,87.072,91.676,86.746"/>
</svg>
