<?xml version="1.0" encoding="utf-8"?>
<!-- Generator: Adobe Illustrator 16.0.0, SVG Export Plug-In . SVG Version: 6.00 Build 0)  -->
<!DOCTYPE svg PUBLIC "-//W3C//DTD SVG 1.1//EN" "http://www.w3.org/Graphics/SVG/1.1/DTD/svg11.dtd">
<svg version="1.1" id="Layer_1" xmlns="http://www.w3.org/2000/svg" xmlns:xlink="http://www.w3.org/1999/xlink" x="0px" y="0px"
	 width="28.991px" height="16.672px" viewBox="1.505 4.656 28.991 16.672" enable-background="new 1.505 4.656 28.991 16.672"
	 xml:space="preserve">
<path fill="#000000" d="M26.919,10.928l-3.573-2.063v2.297h-6.414c-1.123,0.084-3.062-1.189-5.218-2.881
	C9.543,6.676,7.062,4.709,3.74,4.656H1.505v3.662H3.74c1.627-0.047,3.633,1.232,5.769,2.883c0.796,0.576,1.599,1.213,2.45,1.788
	c-0.851,0.575-1.653,1.212-2.45,1.788c-2.136,1.646-4.142,2.93-5.767,2.883H1.505v3.668h2.236c3.315-0.047,5.797-2.02,7.975-3.621
	c2.156-1.691,4.094-2.966,5.218-2.883h6.412v2.297l3.573-2.063l3.576-2.063L26.919,10.928z"/>
</svg>
