<?xml version="1.0" encoding="utf-8"?>
<!-- Generator: Adobe Illustrator 16.0.0, SVG Export Plug-In . SVG Version: 6.00 Build 0)  -->
<!DOCTYPE svg PUBLIC "-//W3C//DTD SVG 1.1//EN" "http://www.w3.org/Graphics/SVG/1.1/DTD/svg11.dtd">
<svg version="1.1"
	 id="svg378" xmlns:cc="http://creativecommons.org/ns#" xmlns:dc="http://purl.org/dc/elements/1.1/" xmlns:rdf="http://www.w3.org/1999/02/22-rdf-syntax-ns#"
	 xmlns="http://www.w3.org/2000/svg" xmlns:xlink="http://www.w3.org/1999/xlink" x="0px" y="0px" width="143.447px"
	 height="71.281px" viewBox="0 0 143.447 71.281" enable-background="new 0 0 143.447 71.281" xml:space="preserve">
<rect id="rect171" x="0" fill="#D61517" width="143.887" height="71.307"/>
<rect id="rect403" x="47.961" fill="#018EDF" width="47.961" height="71.307"/>
<path fill="#FFD700" fill-opacity="0.8667" d="M21.81,35.457c1.43,0.041,1.648-0.453,1.648-0.949v-1.694
	c0-0.207,0.549-0.413,0.549-0.785c0-0.372-0.272-0.784-0.384-1.032c-0.165,0.619-0.439,1.239-0.936,1.445
	c-0.221-0.496-0.274-0.66-0.165-0.908c0.108-0.248,0-0.621-0.22-0.992c-0.165,0.785-0.66,0.992-0.716,1.24
	c-0.055,0.247-0.22,0.949-0.549,0.577c-0.33-0.372-0.55-0.825-0.715-1.321c-0.33,0.99-0.165,1.197-0.056,1.362
	s0.221,0.661,0.221,0.868s-0.221,1.033-0.11,1.281C20.492,34.797,20.547,35.541,21.81,35.457L21.81,35.457z M25.788,39.035
	c0.001,1.496-1.612,2.709-3.604,2.709c-1.99,0.002-3.604-1.211-3.605-2.707v-0.002c0-1.496,1.614-2.709,3.604-2.709
	C24.175,36.326,25.788,37.539,25.788,39.035z M27.211,40.105c-1.901,2.655-5.566,3.395-8.284,1.612
	c-0.716-0.471-1.239-0.993-1.737-1.668c0.449,1.91,1.812,3.265,3.697,3.746C23.66,44.507,26.494,42.854,27.211,40.105L27.211,40.105
	z M16.669,61.05h10.725v2.23H16.669V61.05z M17.192,45.283l4.783,2.902l4.837-2.902H17.192z M17.192,48.425h9.675v2.23h-9.675
	V48.425z M17.192,64.708l4.783,2.272l4.837-2.272H17.192z M9.956,45.316h4.668v21.569H9.956V45.316z M29.16,45.316h4.668v21.569
	H29.16V45.316z M18.726,52.895c1.428-1.06,3.561-1.851,4.325-0.992c0.771,0.885,0.954,1.676,0.785,2.389
	c-0.229,0.617-1.252,1.355-2.01,0.965c-0.87-0.41-2.258,1.014-2.418,1.799c-0.208,0.838-0.229,1.836,0.011,2.76
	C17.141,57.154,16.987,54.078,18.726,52.895L18.726,52.895z M22.602,54.207c-0.394,0.23-0.965-0.004-1.275-0.525
	c-0.313-0.521-0.073-0.715,0.319-0.942c0.394-0.232,0.792-0.414,1.104,0.104C23.062,53.365,22.997,53.977,22.602,54.207
	L22.602,54.207z M24.805,58.927c-1.41,1.082-3.731,1.5-4.507,0.652c-0.778-0.877-0.134-1.981,0.026-2.699
	c0.219-0.623,1.233-1.17,1.994-0.789c0.871,0.398,2.271-1.161,2.104-2.164c0.197-0.844-0.073-0.987-0.483-2.227
	C26.245,54.332,26.524,57.708,24.805,58.927L24.805,58.927z M21.665,57.261c0.39-0.237,0.856-0.114,1.174,0.4
	c0.317,0.519,0.295,0.924-0.094,1.162c-0.39,0.237-0.999,0.219-1.315-0.3C21.112,58.005,21.275,57.5,21.665,57.261z"/>
</svg>
