<svg xmlns="http://www.w3.org/2000/svg" xmlns:se="http://svg-edit.googlecode.com" xmlns:xlink="http://www.w3.org/1999/xlink" id="svgcontent" width="205.65" height="395.85" x="0" y="0" viewBox="0 0 205.65 395.85" overflow="hidden"><g mask="" style="pointer-events:all"><title style="pointer-events:inherit">Layer 1</title><g id="svg_7" fill-opacity="1" display="null" clip-id="597" stroke-opacity="1" stroke="null" transform=""><path fill="#FF0000" d="M142.82500047785058,113.58400023323722 C160.38895006829037,60.34685150135577 229.20000221215938,113.58400023323722 142.82500047785058,182.03407916377637 C56.44999874354173,113.58400023323722 125.26105088741079,60.345998136785155 142.82500047785058,113.58400023323722 z" id="svg_8" stroke-width="0" stroke="null" transform=""/></g><g id="svg_12" type="text" text="I" font-size="140.7630388075636" font-family="Verdana" fill="000000" text-anchor="start" font-weight="normal" font-style="normal" lineHeight="1" shapeId="0" shapeVal="0" fill-opacity="1" display="null" elemBBoxWidth="40.27790069580078" stroke="null" stroke-dasharray="none" style="pointer-events:inherit"><path id="svg_15" fill="#ffffff" stroke-width="0" d="M49.95562,192.04349C49.95562,192.04349 9.68016,192.04349 9.68016,192.04349C9.68016,192.04349 9.68016,181.48584 9.68016,181.48584C9.68016,181.48584 22.97498,181.48584 22.97498,181.48584C22.97498,181.48584 22.97498,100.15288 22.97498,100.15288C22.97498,100.15288 9.68016,100.15288 9.68016,100.15288C9.68016,100.15288 9.68016,89.59524 9.68016,89.59524C9.68016,89.59524 49.95562,89.59524 49.95562,89.59524C49.95562,89.59524 49.95562,100.15288 49.95562,100.15288C49.95562,100.15288 36.66081,100.15288 36.66081,100.15288C36.66081,100.15288 36.66081,181.48584 36.66081,181.48584C36.66081,181.48584 49.95562,181.48584 49.95562,181.48584C49.95562,181.48584 49.95562,192.04349 49.95562,192.04349C49.95562,192.04349 49.95562,192.04349 49.95562,192.04349" style="pointer-events:inherit"/><rect id="svg_16" x="9.679132569034337" y="89.59563561442887" width="40.27702693768243" height="102.44857897435556" fill="#ffffff" opacity="0" style="pointer-events:inherit"/></g><g id="svg_17" type="text" text="HALLOWEEN" font-size="30.374031074364243" font-family="Verdana" fill="000000" text-anchor="start" font-weight="normal" font-style="normal" lineHeight="1" shapeId="0" shapeVal="0" fill-opacity="1" display="null" elemBBoxWidth="186.2892608642578" stroke="null" stroke-dasharray="none" style="pointer-events:inherit"><path id="svg_22" fill="#ffffff" stroke-width="0" d="M26.55351,232.43933C26.55351,232.43933 23.68491,232.43933 23.68491,232.43933C23.68491,232.43933 23.68491,221.63991 23.68491,221.63991C23.68491,221.63991 12.63237,221.63991 12.63237,221.63991C12.63237,221.63991 12.63237,232.43933 12.63237,232.43933C12.63237,232.43933 9.6794,232.43933 9.6794,232.43933C9.6794,232.43933 9.6794,210.33426 9.6794,210.33426C9.6794,210.33426 12.63237,210.33426 12.63237,210.33426C12.63237,210.33426 12.63237,219.02441 12.63237,219.02441C12.63237,219.02441 23.68491,219.02441 23.68491,219.02441C23.68491,219.02441 23.68491,210.33426 23.68491,210.33426C23.68491,210.33426 26.55351,210.33426 26.55351,210.33426C26.55351,210.33426 26.55351,232.43933 26.55351,232.43933C26.55351,232.43933 26.55351,232.43933 26.55351,232.43933M49.92415,232.43933C49.92415,232.43933 46.71807,232.43933 46.71807,232.43933C46.71807,232.43933 44.60881,226.28029 44.60881,226.28029C44.60881,226.28029 35.07494,226.28029 35.07494,226.28029C35.07494,226.28029 32.8813,232.43933 32.8813,232.43933C32.8813,232.43933 29.92833,232.43933 29.92833,232.43933C29.92833,232.43933 37.94353,210.33426 37.94353,210.33426C37.94353,210.33426 41.82458,210.33426 41.82458,210.33426C41.82458,210.33426 49.92415,232.43933 49.92415,232.43933M43.68073,223.74916C43.68073,223.74916 39.79969,212.94974 39.79969,212.94974C39.79969,212.94974 35.91864,223.74916 35.91864,223.74916C35.91864,223.74916 43.68073,223.74916 43.68073,223.74916C43.68073,223.74916 43.68073,223.74916 43.68073,223.74916M67.22011,232.43933C67.22011,232.43933 53.2146,232.43933 53.2146,232.43933C53.2146,232.43933 53.2146,210.33426 53.2146,210.33426C53.2146,210.33426 56.16757,210.33426 56.16757,210.33426C56.16757,210.33426 56.16757,229.82384 56.16757,229.82384C56.16757,229.82384 67.22011,229.82384 67.22011,229.82384C67.22011,229.82384 67.22011,232.43933 67.22011,232.43933C67.22011,232.43933 67.22011,232.43933 67.22011,232.43933M84.09422,232.43933C84.09422,232.43933 70.08871,232.43933 70.08871,232.43933C70.08871,232.43933 70.08871,210.33426 70.08871,210.33426C70.08871,210.33426 73.04168,210.33426 73.04168,210.33426C73.04168,210.33426 73.04168,229.82384 73.04168,229.82384C73.04168,229.82384 84.09422,229.82384 84.09422,229.82384C84.09422,229.82384 84.09422,232.43933 84.09422,232.43933C84.09422,232.43933 84.09422,232.43933 84.09422,232.43933M95.99047,209.9124C102.90885,209.9124 106.19931,214.29967 106.19931,221.3868C106.19931,228.47391 102.82447,232.86119 95.99047,232.86119C89.07209,232.86119 85.69725,228.38954 85.69725,221.3868C85.69725,214.4684 89.07209,209.9124 95.99047,209.9124C95.99047,209.9124 95.99047,209.9124 95.99047,209.9124M95.99047,230.33006C100.79958,230.33006 103.16196,226.61777 103.16196,221.3868C103.16196,216.15581 100.79958,212.44351 95.99047,212.44351C91.09697,212.44351 88.7346,216.07144 88.7346,221.3868C88.7346,226.61777 91.09697,230.33006 95.99047,230.33006C95.99047,230.33006 95.99047,230.33006 95.99047,230.33006M136.5727,210.33426C136.5727,210.33426 130.8355,232.43933 130.8355,232.43933C130.8355,232.43933 127.54505,232.43933 127.54505,232.43933C127.54505,232.43933 122.90467,214.13092 122.90467,214.13092C122.90467,214.13092 118.34865,232.43933 118.34865,232.43933C118.34865,232.43933 115.0582,232.43933 115.0582,232.43933C115.0582,232.43933 109.23664,210.33426 109.23664,210.33426C109.23664,210.33426 112.27398,210.33426 112.27398,210.33426C112.27398,210.33426 116.91436,228.72702 116.91436,228.72702C116.91436,228.72702 121.47037,210.33426 121.47037,210.33426C121.47037,210.33426 124.42333,210.33426 124.42333,210.33426C124.42333,210.33426 129.06371,228.89578 129.06371,228.89578C129.06371,228.89578 133.70407,210.33426 133.70407,210.33426C133.70407,210.33426 136.5727,210.33426 136.5727,210.33426C136.5727,210.33426 136.5727,210.33426 136.5727,210.33426M155.38732,232.43933C155.38732,232.43933 140.79123,232.43933 140.79123,232.43933C140.79123,232.43933 140.79123,210.33426 140.79123,210.33426C140.79123,210.33426 155.38732,210.33426 155.38732,210.33426C155.38732,210.33426 155.38732,212.94974 155.38732,212.94974C155.38732,212.94974 143.74419,212.94974 143.74419,212.94974C143.74419,212.94974 143.74419,219.02441 143.74419,219.02441C143.74419,219.02441 155.38732,219.02441 155.38732,219.02441C155.38732,219.02441 155.38732,221.63991 155.38732,221.63991C155.38732,221.63991 143.74419,221.63991 143.74419,221.63991C143.74419,221.63991 143.74419,229.82384 143.74419,229.82384C143.74419,229.82384 155.38732,229.82384 155.38732,229.82384C155.38732,229.82384 155.38732,232.43933 155.38732,232.43933C155.38732,232.43933 155.38732,232.43933 155.38732,232.43933M174.53945,232.43933C174.53945,232.43933 159.94333,232.43933 159.94333,232.43933C159.94333,232.43933 159.94333,210.33426 159.94333,210.33426C159.94333,210.33426 174.53945,210.33426 174.53945,210.33426C174.53945,210.33426 174.53945,212.94974 174.53945,212.94974C174.53945,212.94974 162.89631,212.94974 162.89631,212.94974C162.89631,212.94974 162.89631,219.02441 162.89631,219.02441C162.89631,219.02441 174.53945,219.02441 174.53945,219.02441C174.53945,219.02441 174.53945,221.63991 174.53945,221.63991C174.53945,221.63991 162.89631,221.63991 162.89631,221.63991C162.89631,221.63991 162.89631,229.82384 162.89631,229.82384C162.89631,229.82384 174.53945,229.82384 174.53945,229.82384C174.53945,229.82384 174.53945,232.43933 174.53945,232.43933C174.53945,232.43933 174.53945,232.43933 174.53945,232.43933M195.96956,232.43933C195.96956,232.43933 192.34165,232.43933 192.34165,232.43933C192.34165,232.43933 181.87967,212.69662 181.87967,212.69662C181.87967,212.69662 181.87967,232.43933 181.87967,232.43933C181.87967,232.43933 179.09543,232.43933 179.09543,232.43933C179.09543,232.43933 179.09543,210.33426 179.09543,210.33426C179.09543,210.33426 183.65145,210.33426 183.65145,210.33426C183.65145,210.33426 193.18534,228.38954 193.18534,228.38954C193.18534,228.38954 193.18534,210.33426 193.18534,210.33426C193.18534,210.33426 195.96956,210.33426 195.96956,210.33426C195.96956,210.33426 195.96956,232.43933 195.96956,232.43933C195.96956,232.43933 195.96956,232.43933 195.96956,232.43933" style="pointer-events:inherit"/><rect id="svg_23" x="9.679882082608373" y="209.91204005568136" width="186.28906848978522" height="22.948110552030922" fill="#ffffff" opacity="0" style="pointer-events:inherit"/></g><g id="svg_13" display="null" clip-id="886" stroke="null" transform=""><path fill="#fdf3ed" d="M115.07661124218609,137.15769286227973 C115.07661124218609,137.15814359685257 115.07661124218609,137.15859433142543 115.07661124218609,137.15859433142543 S115.07661124218609,137.15859433142543 115.07661124218609,137.15769286227973 L115.07661124218609,137.15769286227973 zM174.22110042253794,141.71867600495816 C172.6602065967552,160.29660289415446 160.04685031009507,174.78005692357303 144.71826895658103,174.78005692357303 C128.334517968023,174.78005692357303 115.05407451354355,158.2376473653715 115.05407451354355,137.8301888449733 C115.05407451354355,137.604370823975 115.07390683474895,137.3839616178509 115.07706197675893,137.15859433142543 C115.08427372992455,137.18563840579648 115.0928376868087,137.21133027644896 115.10004943997433,137.23792361624717 C115.40925335695007,138.39495926475547 115.76037558920092,139.5254015734656 116.16198009361108,140.63060274609606 S117.01206549800793,142.81621468985014 117.50111250955115,143.86327110258284 C117.98970878652156,144.90987678074265 118.52337852077704,145.9366501376971 119.0940084900063,146.9197022410849 C119.66463845923559,147.90230360989995 120.27087645972006,148.83983152142983 120.91768057176114,149.75166756230723 C121.56493541837506,150.66440507233034 122.2541085802641,151.54063308195254 122.97212875481563,152.3758442454453 C123.69059966393999,153.21195687808373 124.43881905487251,154.0075033991656 125.2230972116331,154.7606808703995 C126.0073753683937,155.51340760706054 126.82590935269096,156.2246667630193 127.67013520764075,156.88904952340155 S129.3905890722127,158.17634746346377 130.29025527962312,158.7451744944016 C131.19037222160642,159.31400152533948 132.11077221936802,159.82964187668094 133.06046996436487,160.2970536287273 S134.98645879415687,161.1854514718165 135.980779261866,161.5455883955244 C136.97509972957508,161.9057253192323 137.98294223446976,162.21222482877087 139.01647661001692,162.45742443640177 C140.04956025099122,162.70397624775123 141.10022254030673,162.89148183005722 142.1675620088177,163.01768751045543 C143.23490147732866,163.14389319085373 144.3265806127736,163.21015117306283 145.42276709394702,163.21015117306283 S147.59891361167126,163.1443439254266 148.6658023456094,163.01768751045543 C149.73359254869322,162.89148183005722 150.78380410343587,162.70397624775123 151.81733847898298,162.45742443640177 C152.8504221199573,162.21177409419803 153.87043445831895,161.90527458465942 154.86430419145523,161.5455883955244 C155.85862465916435,161.18590220638933 156.82364737963815,160.76491611534658 157.77289439006216,160.2970536287273 C158.72259213505907,159.82964187668094 159.65516196628764,159.3135507907666 160.55482817369807,158.7451744944016 S162.33027165615783,157.55298154921095 163.17494824568044,156.88904952340155 S164.8259889860334,155.51340760706054 165.61026714279396,154.7606808703995 C166.3940945649817,154.0075033991656 167.15448378938123,153.21195687808373 167.87295469850557,152.3758442454453 C168.59142560762993,151.54018234737967 169.2688796706249,150.66440507233034 169.91613451723876,149.75166756230723 C170.56338936385268,148.83983152142983 171.18044499408563,147.90185287532705 171.75062422874205,146.9197022410849 C172.32170493254418,145.9361994031242 172.8436555679055,144.90987678074265 173.33270257944875,143.86327110258284 C173.65678073732857,143.16868912581955 173.93488396877757,142.43985132151963 174.22110042253794,141.71867600495816 zM172.41004890882292,145.96730008865092 C172.13915743053954,146.5654248668241 171.87637917456746,147.16985992901718 171.56987966502882,147.74634944769352 C171.10742599328375,148.6149149695772 170.613871636012,149.46590184311975 170.0743423523095,150.2817314199799 C169.53481306860692,151.0971102622672 168.95066106219213,151.87417666586222 168.33856351226058,152.6309600136789 S167.08552139973503,154.1147782275041 166.4062643984487,154.807557265976 C165.72700739716237,155.50123777359357 165.00808575346514,156.16066245367443 164.26662738112537,156.78583130621868 C163.52471827421277,157.41054942419004 162.76207537694899,158.00011024547905 161.9633737138572,158.55090789350285 C161.1651227853382,159.10215627609952 160.33667264043822,159.61869809658668 159.48523503232283,160.0906171943616 C158.63424815878028,160.56253629213649 157.7526113342839,160.99073413634488 156.85429733059203,161.37836586899667 C155.95598332690014,161.7655468670756 156.64786089622632,165.31868750485944 155.70762857725927,165.6170737920867 S150.19334181300115,166.92330258420867 149.21614925906036,167.127936080283 C148.2385059705467,167.33211884178448 149.25040508659703,163.53017271978698 148.24121037798383,163.63474314068839 S146.21020039271755,163.7943031794776 145.17351087516047,163.7943031794776 S143.10463918577474,163.73976429616266 142.09499374258868,163.63474314068839 S140.09238003541205,163.37421855758055 139.11473674689842,163.1704865306519 C138.13754419295765,162.9663037691505 137.1837898368051,162.71208947006252 136.24355751783807,162.41370318283523 C135.30332519887105,162.11531689560795 136.3855389082861,166.8543401945625 135.48722490459426,166.46670846191068 C134.58891090090233,166.07862599468606 130.30873539711,163.76635763596084 129.4577485235675,163.29443853818594 C128.60676165002494,162.822519440411 129.18234969955557,159.10170554152668 128.38364803646374,158.55090789350285 C127.58494637337193,158.00011024547905 126.81103511178691,157.41054942419004 126.06957673944714,156.78583130621868 C125.32766763253451,156.16066245367443 124.62001435315858,155.50123777359357 123.94075735187226,154.807557265976 C123.26150035058589,154.1147782275041 122.60973815824349,153.38774336149555 121.99764060831191,152.6309600136789 C121.38599379295323,151.87417666586222 120.81265941628686,151.0971102622672 120.27267939801146,150.2817314199799 C119.73315011430893,149.46590184311975 119.22832739271587,148.6149149695772 118.7663244555437,147.74634944769352 C118.30387078379866,146.87733319123694 117.87972955074594,145.98127286040932 117.49976030583261,145.06492947380337 S116.788050415301,143.21105817566752 116.49552367752077,142.2509935354951 C116.48876265892801,142.22845680685253 116.48064943661669,142.20727228192854 116.4738884180239,142.18518628785884 L116.4738884180239,142.184735553286 L116.4738884180239,142.184735553286 L116.4738884180239,142.18518628785884 C116.47073327601396,142.37179040101913 116.45225315852707,142.5547886375966 116.45225315852707,142.74184348532975 C116.45225315852707,157.05897645736633 125.43719613373727,169.08232118816457 137.58359140292384,172.4506606510795 C137.89820413477378,172.53765242363974 138.4922723017913,169.47175585910776 138.74648660087922,169.16615781871485 C138.80237768791272,169.0994491019329 138.84384526861498,169.0462624223365 138.87855183072452,169.00118896505143 L147.06524387741578,169.52809768071413 C147.06524387741578,169.52809768071413 147.20136571841675,170.13343421205292 148.43412477516404,173.09340815196492 C148.50984818340297,173.27640638854237 148.84789911304114,173.0402214723685 149.05388481283404,173.00912078684178 C161.48784873949947,171.15389728498738 171.09165028323397,159.73363541266363 172.41004890882292,145.96730008865092 z" id="svg_14" stroke-width="0" stroke="null" transform=""/><path stroke-width="0.2752" d="M114.02324454543347,123.76862237574318 C111.45000086902758,121.8516482374082 120.04686137701316,101.24676797410132 124.37661768381906,100.47105377422488 C127.44296498292388,99.87923928007164 140.37318767429818,116.76420711363988 138.63785956882217,119.59752463858078 C137.46640041398263,123.35169289585608 116.41844806556327,126.4279563555636 114.02324454543347,123.76862237574318 L114.02324454543347,123.76862237574318 zM174.62676153810375,124.05348662578493 C177.20000521450962,122.13651248745 168.60314470652406,101.5316322241431 164.27338839971813,100.75591802426668 C161.20659036604047,100.16410353011344 148.27636767466618,117.04907136368169 150.01214651471508,119.88238888862256 C151.18315493498176,123.63655714589788 172.2320087525468,126.71282060560537 174.62676153810375,124.05348662578493 L174.62676153810375,124.05348662578493 z" id="svg_18" stroke="#000000" transform="" fill="#fef6f6"/></g></g><defs><mask id="canvasMaskImageDef" maskUnits="objectBoundingBox" x="0" y="0"><image xmlns:xlink="http://www.w3.org/1999/xlink" id="canvasMaskImage" preserveAspectRatio="none" x="-103.65" y="-36.45" width="400" height="440.0580551523948" xlink:href="http://allinonedesigner.designnbuy.in/media/catalog/product/w/h/white-tees-1_-front_1_3.png"/></mask></defs></svg>