<?xml version="1.0" encoding="utf-8"?>
<!-- Generator: Adobe Illustrator 16.0.0, SVG Export Plug-In . SVG Version: 6.00 Build 0)  -->
<!DOCTYPE svg PUBLIC "-//W3C//DTD SVG 1.1//EN" "http://www.w3.org/Graphics/SVG/1.1/DTD/svg11.dtd">
<svg version="1.1" id="Layer_1" xmlns="http://www.w3.org/2000/svg" xmlns:xlink="http://www.w3.org/1999/xlink" x="0px" y="0px"
	 width="100px" height="100px" viewBox="0 0 100 100" enable-background="new 0 0 100 100" xml:space="preserve">
<path d="M47.708,2.633c-0.793,2.433-1.315,4.953-2.036,7.408c-0.308,1.05-0.607,2.148-1.109,3.126
	c-0.428,0.832-1.369,1.357-2.036,1.984c-0.938,0.88-1.697,1.935-1.832,3.248c-0.086,0.838,0.066,1.684,0.323,2.48
	c-1.026,0.513-1.082,0.722-0.931,1.868c0.443,3.357,2.494,6.167,1.661,9.688c1.542,0,1.146-2.079,1.581-3.163
	c0.648,0.431,1.015,1.613,1.151,2.384c0.201,1.135-0.043,1.773-0.991,2.372c-1.53,0.967-3.361,1.277-5.015,1.962
	c-4.189,1.735-4.383,6.604-4.68,10.56c-0.17,2.273-0.269,4.564-0.676,6.812c-0.411,2.264-0.827,3.594,0.188,5.777
	c0.732,1.578,1.243,2.422,0.536,4.07c-1.704,0.229-3.391,0.785-4.93,1.544c-1.435,0.707-2.892,1.665-3.75,3.054
	c-1.226,1.981-0.194,3.799,0.551,5.764c0.344,0.906-0.804,1.373-1.166,2.313c-0.328,0.854-0.347,1.795-0.278,2.696
	c0.08,1.048,0.278,2.084,0.45,3.119c-0.875,0.596-1.719,1.243-2.483,1.979c-1.261,1.214-2.261,2.671-2.832,4.331
	c-0.317,0.924-0.503,1.889-0.589,2.86c-0.048,0.55-0.065,1.104-0.056,1.655c0.434,0.26,0.878,0.5,1.33,0.727
	c3.272,1.634,6.899,2.518,10.491,3.105c8.573,1.404,17.441,1.221,26.061,0.354c4.101-0.412,8.142-1.091,12.188-1.851
	c4.088-0.769,8.627-1.43,11.767-4.422c1.438-1.369,0.172-3.866-0.787-5.301c-1.164-1.74-2.82-3.164-4.645-4.176
	c-0.38-0.21-0.77-0.402-1.168-0.572c-0.65-0.274-0.348-0.882-0.318-1.521c0.063-1.368,0.122-2.737,0.184-4.104
	c-0.405-0.486-0.812-0.974-1.217-1.459c0.25-0.523,0.469-1.063,0.635-1.619c0.3-0.99,0.433-2.054,0.203-3.074
	c-0.35-1.549-1.502-2.696-2.789-3.539c-0.733-0.48-1.52-0.881-2.315-1.247c-0.815-0.375-1.272-0.992-2.003-1.384
	c-0.691-0.371-0.92,0.185-0.953-0.834c-0.018-0.559,0.03-1.113,0.143-1.659c0.203-1.003,0.61-1.942,0.936-2.908
	c0.551-1.646,0.625-3.237,0.466-4.95c-0.434-4.651-1.567-10.275-3.969-14.352c-1.877-3.188-13.246-2.417-9.382-8.18
	c0.607-0.907,0.552,0.084,0.699,0.605c0.181,0.64,0.543,1.318,1.197,1.576c1.352,0.532,0.655-0.774,0.514-1.501
	c-0.17-0.864-0.146-1.749-0.014-2.615c0.229-1.513,0.772-2.96,0.963-4.48c0.104-0.832,0.266-1.793-0.426-2.346
	c-0.953-0.762-0.673-1.001-0.74-2.147c-0.078-1.272-0.605-2.407-1.474-3.333c-0.515-0.549-1.106-1.018-1.719-1.454
	c-0.64-0.456-0.399-1.31-0.798-2.02c-0.313-0.555-0.771-1.007-1.102-1.549c-0.463-0.759-0.332-1.576-0.332-2.433
	c-0.38-1.089-0.76-2.179-1.141-3.269c-0.152-0.436-0.304-0.872-0.456-1.308C48.491,2.436,48.495,2.633,47.708,2.633"/>
</svg>
