<?xml version="1.0" encoding="utf-8"?>
<!-- Generator: Adobe Illustrator 16.0.0, SVG Export Plug-In . SVG Version: 6.00 Build 0)  -->
<!DOCTYPE svg PUBLIC "-//W3C//DTD SVG 1.1//EN" "http://www.w3.org/Graphics/SVG/1.1/DTD/svg11.dtd">
<svg version="1.1" id="Layer_1" xmlns="http://www.w3.org/2000/svg" xmlns:xlink="http://www.w3.org/1999/xlink" x="0px" y="0px"
	 width="100px" height="100px" viewBox="0 0 100 100" enable-background="new 0 0 100 100" xml:space="preserve">
<path fill="#ED5628" d="M78.584,59.799c0.236,0.379,0.741,1.566,0.59,3.063c-0.049,1.645-1.17,2.406-1.578,2.604
	c0.077,0.024,0.161,0.043,0.254,0.054c0.463-0.226,1.52-0.896,1.737-2.392c0.24-1.424-0.011-2.644-0.127-3.106
	C79.174,59.941,78.87,59.864,78.584,59.799z M80.344,63.266c0.325-1.382,0.061-2.572-0.051-2.998
	c-0.264-0.076-0.535-0.164-0.811-0.233c0.133,0.452,0.447,1.659,0.203,3.104c-0.227,1.522-1.328,2.172-1.809,2.389
	c0.227,0.039,0.439,0.082,0.667,0.107C78.909,65.421,79.973,64.721,80.344,63.266z M79.262,66.922
	c-0.006-0.474-0.236-0.816-0.359-0.999c-0.207-0.028-0.424-0.065-0.633-0.09c0.131,0.159,0.414,0.521,0.33,1.069
	c-0.121,0.492-0.426,0.758-0.615,0.889c0.297,0.027,0.594,0.057,0.908,0.063C79.039,67.691,79.262,67.377,79.262,66.922z
	 M78.507,66.887c0.077-0.509-0.149-0.895-0.266-1.054c-0.568-0.092-1.138-0.198-1.728-0.324c0.076,0.197,0.223,0.597,0.123,1.093
	c-0.096,0.465-0.343,0.795-0.502,0.949c0.59,0.1,1.201,0.178,1.809,0.24C78.104,67.65,78.4,67.354,78.507,66.887z M71.027,58.959
	c0.158,0.109,1.356,0.84,1.73,2.427c0.332,1.448,0.021,2.646-0.07,2.962c0.48,0.135,0.992,0.268,1.506,0.392
	c0.158-0.392,0.564-1.591,0.359-3.023c-0.215-1.516-1.128-2.444-1.404-2.725c-0.588-0.031-1.166-0.043-1.719-0.043
	C71.305,58.947,71.166,58.959,71.027,58.959z M78.38,59.736c0.236,0.414,0.724,1.609,0.552,3.134
	c-0.062,1.494-0.986,2.293-1.478,2.579c0.03,0.006,0.065,0.006,0.104,0.017c0.406-0.198,1.479-0.991,1.526-2.604
	c0.138-1.479-0.313-2.69-0.509-3.072C78.5,59.771,78.439,59.758,78.38,59.736z M81.021,63.452c0.385-1.265,0.363-2.397,0.346-2.841
	c-0.141-0.034-0.275-0.088-0.432-0.127c-0.199-0.07-0.416-0.148-0.631-0.219c0.137,0.436,0.459,1.617,0.127,3.03
	c-0.383,1.47-1.49,2.142-1.877,2.338c0.275,0.048,0.547,0.091,0.827,0.117C79.734,65.525,80.661,64.798,81.021,63.452z
	 M81.12,63.484c-0.384,1.353-1.347,2.041-1.716,2.279c0.441,0.06,0.883,0.104,1.313,0.158c0.453-0.182,1.406-0.654,2.119-1.664
	c0.938-1.294,0.919-2.682,0.947-2.813c-0.788-0.313-1.563-0.56-2.398-0.823C81.424,61.055,81.502,62.193,81.12,63.484z
	 M91.048,66.057c-0.008,0-0.019-0.011-0.028-0.018c-0.254-0.198-0.513-0.396-0.787-0.59c-0.498-0.449-1.021-0.874-1.563-1.266
	c-1.836-1.322-3.351-2.058-4.885-2.738c-0.021,0.143,0.099,1.537-0.845,2.873c-0.75,1.014-1.713,1.445-2.184,1.604
	c0.141,0.018,0.296,0.026,0.436,0.034c0.451-0.124,1.451-0.502,2.24-1.451c1.06-1.278,0.924-2.757,0.973-2.703
	c-0.049-0.06,0.199,1.435-0.893,2.759c-0.806,0.957-1.799,1.291-2.275,1.406c0.854,0.078,1.662,0.116,2.406,0.159
	c0.398-0.188,1.047-0.584,1.555-1.269c0.83-1.053,0.787-2.211,0.83-2.184c-0.043-0.027,0.096,1.141-0.731,2.242
	c-0.528,0.679-1.176,1.031-1.571,1.198c0.452,0.018,0.883,0.028,1.301,0.028c0.313-0.117,0.625-0.275,0.942-0.48
	c1.325-0.827,1.593-2.169,1.61-2.141c-0.018-0.039-0.193,1.365-1.551,2.218c-0.258,0.17-0.517,0.298-0.768,0.403
	c0.389,0,0.768,0,1.117-0.019c0.275-0.11,0.73-0.322,1.111-0.745c0.63-0.672,0.777-1.438,0.806-1.421
	c-0.028-0.026-0.088,0.776-0.728,1.487c-0.364,0.385-0.777,0.578-1.07,0.679c2.134-0.071,3.439-0.274,3.424-0.274
	c0.018,0-1.135,0.229-3.049,0.354c0.105,0.049,0.331,0.148,0.475,0.439c0.094,0.299-0.023,0.514-0.104,0.619
	c1.258-0.262,2.536-0.625,3.798-1.078c-0.043-0.031-0.063-0.06-0.104-0.088C90.977,66.084,91.02,66.066,91.048,66.057z
	 M67.043,63.368c0.309-0.194,0.518-0.435,0.584-0.526c-0.294-0.117-0.591-0.232-0.867-0.35c-0.059,0.07-0.285,0.314-0.652,0.431
	c-0.336,0.106-0.633,0.07-0.76,0.042c0.314,0.233,0.641,0.471,1.004,0.703C66.475,63.641,66.76,63.552,67.043,63.368z
	 M65.326,62.951c0.105,0,0.412-0.012,0.749-0.128c0.343-0.105,0.597-0.286,0.685-0.343c-2.453-1.043-3.91-1.885-3.893-1.875
	c-0.018,0,1.486,0.779,3.975,1.775c0.031-0.158,0.135-0.794-0.027-1.525c-0.151-0.679-0.463-1.185-0.563-1.363
	c-2.398,0.46-3.744,1.061-3.734,1.042c0-0.011,0.021,0.008,0.039,0.028C62.771,60.74,63.677,61.723,65.326,62.951z M62.811,60.673
	h0.012H62.811z M76.354,59.334c0.236,0.357,0.885,1.447,1.021,2.952c0.139,1.541-0.578,2.632-0.833,2.981
	c0.294,0.063,0.59,0.123,0.872,0.17c0.475-0.287,1.357-1.103,1.417-2.576c0.178-1.496-0.254-2.723-0.474-3.125
	C77.68,59.574,77.005,59.432,76.354,59.334z M72.639,65.857c-0.402,0.418-0.883,0.483-1.088,0.496
	c0.424,0.166,0.873,0.313,1.336,0.451c0.204-0.105,0.568-0.32,0.9-0.679c0.423-0.444,0.501-0.964,0.533-1.108
	c-0.375-0.09-0.735-0.191-1.092-0.285C73.189,64.891,73.083,65.41,72.639,65.857z M73.953,59.04c0.24,0.313,1.056,1.308,1.262,2.81
	c0.197,1.494-0.376,2.625-0.607,2.987c0.47,0.116,0.942,0.216,1.435,0.326c0.166,0.041,0.325,0.069,0.49,0.104
	c0.237-0.359,0.897-1.47,0.745-2.975c-0.137-1.475-0.734-2.604-0.942-2.967C75.512,59.199,74.713,59.102,73.953,59.04z
	 M71.166,61.302c0.363,1.218-0.012,2.222-0.182,2.543c0.553,0.181,1.113,0.347,1.703,0.503c0.07-0.314,0.308-1.523-0.027-2.93
	c-0.357-1.564-1.494-2.342-1.633-2.459c-0.463,0.011-0.903,0.042-1.334,0.07C69.781,59.129,70.73,59.905,71.166,61.302z
	 M76.553,66.582c0.096-0.479,0-0.887-0.06-1.073c-0.028-0.011-0.06-0.011-0.082-0.019c0.022,0.223,0.032,0.644-0.173,1.1
	c-0.188,0.441-0.484,0.717-0.672,0.852c0.182,0.043,0.365,0.07,0.553,0.1C76.238,67.377,76.45,67.031,76.553,66.582z M81.318,66.188
	c0.164,0.109,0.479,0.324,0.656,0.734c0.166,0.439,0.039,0.807-0.06,0.992c1.162-0.042,2.349-0.146,3.539-0.325
	c0-0.01,0.139-0.312,0.043-0.784c-0.011-0.236-0.259-0.335-0.396-0.521C83.982,66.303,82.707,66.282,81.318,66.188z M80.611,66.116
	c0.174,0.127,0.453,0.368,0.615,0.771c0.19,0.477,0.021,0.868-0.078,1.037c0.25,0,0.494,0,0.748-0.01
	c0.059-0.188,0.146-0.553-0.021-0.954c-0.163-0.401-0.459-0.657-0.599-0.772C81.064,66.162,80.834,66.146,80.611,66.116z
	 M74.516,65.073c-0.059-0.028-0.123-0.038-0.195-0.05c0,0.156-0.021,0.701-0.463,1.174c-0.336,0.343-0.709,0.529-0.922,0.617
	c0.233,0.076,0.49,0.146,0.756,0.217c0.132-0.141,0.402-0.463,0.591-0.904C74.469,65.672,74.508,65.251,74.516,65.073z
	 M76.158,66.548c0.186-0.432,0.215-0.842,0.236-1.058c-0.14-0.035-0.275-0.063-0.414-0.092c-0.49-0.1-0.973-0.205-1.457-0.325
	c0.022,0.188,0.039,0.622-0.154,1.089c-0.197,0.467-0.512,0.74-0.667,0.869c0.586,0.146,1.198,0.297,1.827,0.402
	C75.686,67.289,75.962,66.992,76.158,66.548z M74.605,64.837c0.185-0.374,0.707-1.521,0.51-2.978
	c-0.194-1.471-0.961-2.506-1.178-2.819c-0.258-0.021-0.513-0.039-0.775-0.05c0.303,0.279,1.27,1.17,1.482,2.703
	c0.217,1.479-0.254,2.652-0.451,3.045C74.331,64.768,74.469,64.811,74.605,64.837z M68.215,62.905
	c0.771,0.286,1.605,0.564,2.495,0.852c0.06-0.36,0.22-1.389-0.112-2.544c-0.356-1.227-1.185-1.936-1.428-2.137
	c-0.602,0.053-1.18,0.123-1.71,0.212c-0.028,0,0.7,0.628,0.86,1.737C68.452,61.919,68.282,62.654,68.215,62.905z M91.137,66.282
	c0-0.007-0.009-0.007-0.021-0.021c-0.627,0.226-1.272,0.438-1.905,0.625C89.846,66.699,90.488,66.512,91.137,66.282z M88.307,67.119
	c-0.082,0.02-0.156,0.039-0.236,0.058C88.15,67.158,88.225,67.139,88.307,67.119z M70.438,64.93
	c0.271-0.367,0.414-0.738,0.471-0.896c-0.057-0.008-0.106-0.028-0.167-0.047c-0.021,0.1-0.116,0.549-0.49,0.951
	c-0.286,0.304-0.597,0.455-0.778,0.519c0.09,0.054,0.182,0.088,0.276,0.142C69.895,65.49,70.18,65.262,70.438,64.93z M62.518,60.534
	c-0.01,0.008,0.155-0.056,0.461-0.181C62.766,60.436,62.605,60.496,62.518,60.534z M87.227,67.277
	c0.037-0.119,0.119-0.346,0.017-0.601c-0.104-0.255-0.325-0.401-0.409-0.463c-0.491,0.028-1.043,0.062-1.645,0.067
	c0.149,0.096,0.354,0.335,0.365,0.502c0.077,0.515-0.1,0.795-0.1,0.805C86.045,67.491,86.635,67.396,87.227,67.277z M68.241,61.043
	c-0.159-1.08-0.8-1.744-0.781-1.755c-0.424,0.046-0.823,0.127-1.187,0.19c0.115,0.17,0.485,0.66,0.629,1.358
	c0.176,0.761,0,1.386-0.062,1.544c0.435,0.166,0.884,0.344,1.367,0.523C68.256,62.654,68.354,61.912,68.241,61.043z M71.516,66.342
	c0.197-0.027,0.66-0.145,1.063-0.548c0.416-0.435,0.569-0.918,0.639-1.062c-0.794-0.217-1.561-0.457-2.296-0.69
	c-0.031,0.17-0.12,0.562-0.406,0.947c-0.254,0.343-0.572,0.536-0.744,0.618c0.056,0.026,0.115,0.057,0.187,0.074
	C70.445,65.923,70.968,66.134,71.516,66.342z M69.926,64.732c0.396-0.326,0.611-0.709,0.66-0.799
	c-0.709-0.244-1.385-0.481-2.018-0.719c-0.021,0.128-0.077,0.452-0.293,0.758c-0.236,0.295-0.502,0.454-0.629,0.5
	c0.436,0.266,0.9,0.526,1.398,0.777C69.158,65.204,69.555,65.045,69.926,64.732z M70.671,61.195
	c0.347,1.187,0.142,2.212,0.039,2.562c0.103,0.042,0.19,0.06,0.274,0.088c0.143-0.331,0.438-1.346,0.082-2.526
	c-0.42-1.354-1.307-2.183-1.373-2.288c-0.17,0.011-0.348,0.028-0.514,0.047C69.445,59.27,70.328,59.934,70.671,61.195z
	 M68.491,63.191c-0.293-0.123-0.568-0.228-0.845-0.351c-0.06,0.109-0.215,0.396-0.551,0.601c-0.294,0.188-0.591,0.227-0.725,0.248
	c0.281,0.184,0.586,0.371,0.904,0.568c0.115-0.058,0.41-0.188,0.686-0.443C68.248,63.568,68.425,63.287,68.491,63.191z
	 M70.163,64.865c0.374-0.385,0.528-0.795,0.578-0.881c-0.05-0.012-0.108-0.041-0.144-0.051c-0.041,0.099-0.199,0.521-0.613,0.875
	c-0.369,0.325-0.783,0.424-0.924,0.441c0.131,0.07,0.256,0.131,0.373,0.198C69.604,65.359,69.895,65.169,70.163,64.865z
	 M78.932,65.93c0.166,0.176,0.412,0.493,0.434,0.992c-0.021,0.475-0.262,0.777-0.434,0.943c0.707,0.042,1.451,0.07,2.203,0.059
	c0.075-0.176,0.184-0.57,0.008-1.002c-0.17-0.393-0.425-0.66-0.58-0.806C80.029,66.066,79.499,66.011,78.932,65.93z M68.182,63.916
	c0.223-0.286,0.332-0.584,0.366-0.707c-0.019-0.011-0.034-0.011-0.057-0.018c-0.027,0.115-0.158,0.438-0.474,0.705
	c-0.274,0.252-0.586,0.344-0.725,0.371c0.105,0.061,0.212,0.131,0.333,0.194C67.743,64.389,67.982,64.201,68.182,63.916z
	 M62.771,60.793c0,0.007,0.019,0.018,0.031,0.027c0.063,0.061,0.184,0.162,0.36,0.339c-0.313-0.314-0.521-0.525-0.606-0.597
	c-0.019-0.028-0.039-0.039-0.039-0.028c0,0,0.021,0.008,0.039,0.028C62.65,60.65,62.92,60.898,62.771,60.793z M81.859,68.034
	L81.859,68.034h-0.01H81.859z M62.518,60.534c0-0.011,0.021,0,0.039,0.028C62.539,60.542,62.518,60.523,62.518,60.534z"/>
<path fill="#F9F39F" d="M87.146,49.428c-0.061-0.354-0.22-1.049-0.59-1.797c-0.396-0.799-0.887-1.308-1.121-1.534
	c-0.025,0.018-0.06,0.028-0.08,0.046c0.237,0.312,0.672,0.93,0.946,1.771c0.283,0.826,0.294,1.505,0.283,1.878
	C86.771,49.676,86.956,49.559,87.146,49.428z M86.535,49.811c-0.01-0.375-0.069-1.071-0.342-1.863
	c-0.266-0.819-0.661-1.459-0.854-1.793c-0.159,0.077-0.297,0.169-0.444,0.235c-0.52,0.298-1.051,0.583-1.572,0.834
	c0.207,0.269,0.648,0.887,0.953,1.763c0.285,0.852,0.314,1.562,0.298,1.879C85.24,50.559,85.887,50.205,86.535,49.811z
	 M76.797,38.883c0.521,0.223,2.212,0.965,3.893,2.989c1.649,2.024,2.289,4.214,2.467,4.948c0.509-0.261,1.027-0.536,1.551-0.822
	c0.182-0.1,0.355-0.188,0.534-0.297c-0.171-0.725-0.71-2.963-2.343-5.049c-1.59-2.056-3.223-3.164-3.764-3.508
	C78.298,37.682,77.514,38.271,76.797,38.883z M76.068,39.508c0.533,0.143,2.25,0.594,3.98,2.65c1.664,1.979,2.42,4.144,2.657,4.893
	c0.151-0.078,0.289-0.148,0.438-0.23c-0.207-0.713-0.912-2.875-2.526-4.842c-1.649-2.004-3.321-2.83-3.83-3.096
	C76.542,39.088,76.295,39.303,76.068,39.508z M84.551,50.884c-0.021-0.336-0.105-1.046-0.393-1.88
	c-0.282-0.822-0.667-1.482-0.844-1.77c-0.082,0.043-0.16,0.07-0.221,0.105c0.148,0.233,0.668,1.057,0.771,2.158
	c0.056,0.813-0.082,1.425-0.184,1.75C83.982,51.135,84.258,51.011,84.551,50.884z M88.963,48.129
	c0.012-0.351-0.047-1.057-0.424-1.827c-0.428-0.815-1.021-1.181-1.275-1.325c-0.57,0.385-1.184,0.746-1.809,1.109
	c0.266,0.198,0.788,0.661,1.197,1.487c0.396,0.784,0.494,1.47,0.522,1.845C87.771,49.025,88.366,48.594,88.963,48.129z
	 M81.523,35.785c0.588,0.367,2.199,1.646,3.578,4.002c1.59,2.445,1.416,4.6,1.239,5.264c0.097-0.045,0.185-0.116,0.271-0.173
	c0.172-0.749,0.406-2.702-0.893-5.101c-1.229-2.318-2.664-3.883-3.212-4.451C82.174,35.471,81.837,35.615,81.523,35.785z
	 M79.146,37.135c0.562,0.314,2.222,1.324,3.832,3.408c1.664,2.142,2.131,4.416,2.263,5.151c0.313-0.169,0.628-0.356,0.932-0.53
	c0.11-0.858,0.071-2.861-1.366-5.09c-1.354-2.363-2.937-3.767-3.519-4.18C80.529,36.275,79.813,36.689,79.146,37.135z
	 M86.497,39.303c-1.103-2.327-2.504-3.84-3.026-4.369c-0.314,0.127-0.634,0.244-0.939,0.379c0.564,0.561,2.042,2.048,3.277,4.404
	c1.317,2.448,1.041,4.384,0.838,5.15c0.232-0.148,0.463-0.304,0.678-0.445C87.419,43.786,87.639,41.773,86.497,39.303z
	 M81.287,35.884c0.621,0.392,2.242,1.728,3.605,4.116c1.448,2.264,1.448,4.277,1.308,5.146c0.043-0.035,0.082-0.053,0.12-0.081
	c0.138-0.65,0.266-2.802-1.307-5.2c-1.357-2.342-2.943-3.695-3.513-4.08C81.438,35.828,81.367,35.855,81.287,35.884z M89.582,43.268
	c0.296,0.027,0.747,0.127,1.299,0.572c0.65,0.526,0.885,1.254,0.982,1.6c0.197-0.229,0.414-0.463,0.621-0.695
	c-0.131-0.322-0.424-0.958-0.976-1.402c-0.552-0.432-1.063-0.548-1.3-0.594C90.018,42.922,89.8,43.098,89.582,43.268z
	 M90.252,42.713c0.255,0,0.738,0.053,1.318,0.502c0.568,0.49,0.822,1.151,0.936,1.504c0.951-1.109,1.854-2.338,2.699-3.695
	c-0.018-0.027-0.198-0.59-0.749-1.187c-0.233-0.329-0.562-0.258-0.862-0.406C92.658,40.494,91.549,41.604,90.252,42.713z
	 M87.952,44.492c0.313,0.111,0.846,0.375,1.354,1.074c0.473,0.729,0.571,1.382,0.571,1.784c0.668-0.575,1.313-1.208,1.956-1.89
	c-0.107-0.328-0.402-1.018-0.992-1.494c-0.533-0.435-1.035-0.594-1.299-0.664C89.034,43.716,88.512,44.107,87.952,44.492z
	 M95.846,38.078c-0.365-0.286-0.688-0.314-0.839-0.326c-0.388,0.514-0.848,1.043-1.335,1.604c0.236,0.019,0.646,0.188,0.816,0.421
	c0.558,0.65,0.699,1.219,0.717,1.246c0.413-0.656,0.827-1.334,1.197-2.052C96.332,38.768,96.169,38.354,95.846,38.078z
	 M89.843,47.394c-0.043-0.403-0.173-1.07-0.612-1.728c-0.472-0.678-1.013-0.992-1.307-1.145c-0.208,0.159-0.417,0.297-0.639,0.438
	c0.275,0.106,0.884,0.402,1.357,1.272c0.392,0.83,0.392,1.515,0.353,1.868C89.281,47.877,89.563,47.631,89.843,47.394z
	 M97.307,37.488c-0.095,0.223-0.203,0.451-0.311,0.678C97.104,37.951,97.212,37.711,97.307,37.488z M74.932,52.583
	c0.438,0.021,0.887,0.028,1.344,0.028c0.06-0.195,0.176-0.661,0.158-1.27c0-0.636-0.139-1.201-0.178-1.413
	c-0.374,0.096-0.706,0.188-1.061,0.275c0.058,0.188,0.199,0.76,0.117,1.379C75.253,52.109,75.057,52.436,74.932,52.583z
	 M98.779,33.97c-0.018,0-0.018-0.011-0.035-0.011c-0.335,0.965-0.706,1.896-1.087,2.791C98.057,35.855,98.43,34.941,98.779,33.97z
	 M68.523,51.432h0.006c0.337,0.07,2.104,0.709,4.779,1.018c0.088-0.104,0.344-0.385,0.514-0.858
	c0.193-0.473,0.229-0.965,0.242-1.119c-3.137,0.688-5.23,0.745-5.222,0.734c0,0.021,2.064-0.166,5.19-0.972
	c-0.135-0.254-0.668-1.289-1.54-2.211c-0.798-0.873-1.572-1.347-1.861-1.505c-1.579,2.861-2.128,4.977-2.151,4.923
	C68.471,51.432,68.491,51.432,68.523,51.432z M68.887,51.367c-0.014,0-0.021,0-0.021,0.008
	C68.866,51.367,68.873,51.367,68.887,51.367z M82.488,50.117c0.06,0.953-0.266,1.49-0.437,1.717c0.521-0.162,1.054-0.35,1.591-0.564
	c0.061-0.34,0.158-0.985,0.104-1.81c-0.09-1.035-0.531-1.868-0.668-2.12c-0.414,0.198-0.807,0.396-1.219,0.573
	C81.977,48.17,82.41,49.032,82.488,50.117z M71.475,45.111c-0.013,0.035,1.226,0.297,2.479,1.781
	c1.007,1.207,1.597,2.458,1.795,2.871c0.929-0.275,1.945-0.621,2.984-0.992c-0.305-0.602-1.198-2.244-2.652-3.65
	c-1.518-1.49-2.939-1.779-3.344-1.865C72.268,43.885,71.854,44.514,71.475,45.111z M78.063,43.543
	c-1.862-1.968-3.621-2.084-3.853-2.127c-0.37,0.435-0.733,0.865-1.084,1.297c0.185,0.081,1.774,0.367,3.522,2.006
	c1.543,1.467,2.23,3.282,2.416,3.911c0.649-0.244,1.293-0.509,1.949-0.794C80.757,47.316,79.758,45.31,78.063,43.543z
	 M76.137,44.995c1.487,1.459,2.331,3.157,2.606,3.765c0.106-0.041,0.216-0.088,0.313-0.13c-0.216-0.607-0.976-2.374-2.447-3.784
	c-1.717-1.61-3.324-2.034-3.483-2.133c-0.123,0.18-0.251,0.356-0.39,0.537C73.162,43.295,74.586,43.482,76.137,44.995z
	 M82.357,50.067c-0.058-1.01-0.418-1.886-0.498-2.144c-0.905,0.402-1.799,0.748-2.676,1.069c0.159,0.269,0.471,0.927,0.608,1.749
	c0.116,0.752,0.042,1.304-0.019,1.586c0.082-0.011,0.154-0.021,0.236-0.027c0.649-0.108,1.316-0.255,1.996-0.456
	C82.135,51.618,82.427,51.011,82.357,50.067z M78.8,52.459c0.05-0.17,0.239-0.752,0.226-1.564c0.025-0.827-0.184-1.586-0.226-1.771
	c-0.854,0.304-1.668,0.552-2.444,0.767c0.117,0.227,0.381,0.746,0.49,1.406c0.106,0.625,0.029,1.092-0.031,1.297
	C77.454,52.583,78.125,52.54,78.8,52.459z M76.268,49.92c0.076,0.205,0.293,0.794,0.303,1.477c0,0.625-0.176,1.039-0.264,1.207
	c0.166,0,0.323,0,0.49,0c0.018-0.226,0.039-0.717-0.07-1.316c-0.103-0.629-0.305-1.161-0.393-1.384
	C76.314,49.908,76.295,49.92,76.268,49.92z M79.654,50.725c-0.116-0.788-0.37-1.451-0.471-1.73c-0.066,0.021-0.127,0.05-0.197,0.075
	c0.078,0.162,0.435,0.911,0.513,1.844c0.077,0.694-0.039,1.219-0.131,1.478c0.12-0.012,0.247-0.035,0.366-0.054
	C79.758,52.046,79.785,51.449,79.654,50.725z M79.383,50.884c-0.078-0.884-0.332-1.643-0.396-1.815
	c-0.055,0.018-0.115,0.035-0.176,0.056c0.061,0.184,0.344,0.943,0.354,1.827c0,0.836-0.263,1.354-0.354,1.508
	c0.176-0.024,0.344-0.043,0.533-0.063C79.383,52.109,79.449,51.563,79.383,50.884z M73.898,47.008
	c-1.221-1.441-2.438-1.861-2.426-1.896c-0.308,0.473-0.584,0.947-0.826,1.389c0.281,0.134,1.088,0.502,1.914,1.413
	c0.883,0.956,1.367,2.048,1.483,2.32c0.541-0.138,1.093-0.286,1.692-0.459C75.521,49.361,74.871,48.17,73.898,47.008z
	 M87.385,38.918c1.041,2.354,0.9,4.243,0.805,4.922c0.441-0.318,0.861-0.644,1.275-0.969c0.219-0.668,0.572-2.229,0.176-4.384
	c-0.49-2.737-1.896-4.759-1.992-4.991c-0.994,0.266-1.918,0.6-2.89,0.965C85.229,35.068,86.438,36.68,87.385,38.918z M98.477,33.729
	c-0.066-0.014-0.127-0.027-0.205-0.045c-0.353-0.047-0.729-0.1-1.102-0.145c-0.587-0.143-1.188-0.248-1.768-0.347
	c-3.342-0.413-5.582-0.099-7.754,0.304c0.105,0.229,1.601,2.183,2.119,5.002c0.385,2.166-0.006,3.678-0.265,4.346
	c0.147-0.121,0.296-0.236,0.435-0.343c0.233-0.593,0.725-2.054,0.449-4.158c-0.361-2.851-1.955-4.893-1.865-4.886
	c-0.097-0.018,1.61,1.953,1.996,4.896c0.265,2.119-0.254,3.519-0.541,4.119c0.806-0.664,1.555-1.317,2.223-1.972
	c0.138-0.614,0.314-1.763,0.078-3.268c-0.354-2.271-1.545-3.942-1.495-3.952c-0.058-0.012,1.235,1.6,1.61,3.97
	c0.236,1.474,0.039,2.586-0.135,3.196c0.41-0.395,0.784-0.779,1.135-1.15c0.151-0.441,0.269-0.965,0.328-1.555
	c0.313-2.441-0.795-4.648-0.757-4.609c-0.06-0.061,1.194,2.161,0.888,4.677c-0.039,0.473-0.142,0.894-0.25,1.278
	c0.336-0.363,0.64-0.707,0.936-1.045c0.138-0.406,0.314-1.139,0.215-2.105c-0.133-1.548-0.775-2.816-0.727-2.816
	c-0.051-0.007,0.709,1.229,0.848,2.844c0.089,0.901-0.081,1.559-0.227,1.975c1.756-2.038,2.66-3.521,2.66-3.511
	c0.014-0.021-0.746,1.367-2.281,3.292c0.162-0.039,0.455-0.084,0.856,0.219c0.386,0.343,0.503,0.764,0.541,0.99
	c0.81-1.533,1.533-3.215,2.162-5.01c-0.062-0.021-0.108-0.042-0.155-0.049C98.441,33.824,98.462,33.771,98.477,33.729z
	 M87.285,38.972c-0.943-2.212-2.096-3.882-2.559-4.504c-0.154,0.07-0.322,0.127-0.49,0.19c-0.254,0.088-0.514,0.174-0.745,0.275
	c0.53,0.502,1.983,1.943,3.11,4.324c1.152,2.525,0.855,4.501,0.744,5.157c0.271-0.187,0.547-0.374,0.822-0.571
	C88.234,43.179,88.307,41.271,87.285,38.972z M75.195,51.494c0.078-0.564,0-1.094-0.021-1.289c-0.375,0.096-0.745,0.177-1.103,0.258
	c0.021,0.174,0.08,0.714-0.127,1.236c-0.178,0.474-0.481,0.679-0.608,0.76c0.492,0.053,1.015,0.092,1.563,0.124
	C74.979,52.416,75.137,52.031,75.195,51.494z M74.547,41.023c-0.115,0.143-0.216,0.258-0.337,0.382
	c0.237,0.021,2.008,0.011,3.915,2.018c1.73,1.806,2.66,3.864,2.889,4.413c0.557-0.244,1.121-0.514,1.68-0.785
	c-0.267-0.728-1.088-2.852-2.702-4.787c-1.692-2.023-3.421-2.567-3.933-2.738C75.521,40.023,75.018,40.522,74.547,41.023z"/>
<path fill="#F5AFCE" d="M45.18,30.409c0.547-0.262,1.031-0.332,1.247-0.343c-0.244-0.431-0.537-0.84-0.852-1.261
	c-0.25,0.042-0.72,0.135-1.244,0.375c-0.53,0.237-0.922,0.544-1.137,0.717c0.057,0.082,0.116,0.181,0.198,0.269
	c0.223,0.332,0.452,0.668,0.665,1.003C44.215,31.013,44.607,30.667,45.18,30.409z M43.078,36.182
	c0.866-1.104,1.958-1.803,2.346-2.025c-0.028-0.07-0.067-0.141-0.106-0.208c-0.396,0.19-1.537,0.827-2.381,1.925
	c-0.96,1.279-1.137,2.393-1.187,2.508c0.127,0.078,0.265,0.16,0.392,0.227C42.131,38.322,42.152,37.35,43.078,36.182z
	 M45.318,33.941c-0.22-0.417-0.435-0.827-0.682-1.262c-0.343,0.216-1.611,1.046-2.688,2.311c-1.19,1.406-1.155,2.593-1.162,2.752
	c0.325,0.236,0.639,0.441,0.964,0.639c0.039-0.127,0.106-1.218,1.099-2.525C43.728,34.715,44.901,34.114,45.318,33.941z
	 M43.057,27.72c-0.53,0.342-0.728,0.763-0.806,0.951c0.297,0.363,0.597,0.738,0.887,1.141c0.113-0.201,0.381-0.579,0.911-0.915
	c0.505-0.325,0.964-0.441,1.208-0.48c-0.314-0.382-0.639-0.756-1.003-1.124C44.018,27.328,43.547,27.402,43.057,27.72z
	 M38.892,36.188c0.155,0.152,0.311,0.309,0.491,0.445c0.035-0.374,0.223-1.572,1.48-2.879c1.229-1.271,2.624-1.936,3.119-2.154
	c-0.061-0.1-0.121-0.185-0.181-0.276c-0.47,0.185-1.886,0.815-3.095,2.056C39.478,34.637,39.047,35.828,38.892,36.188z
	 M47.261,31.715c-0.155-0.066-0.587-0.215-1.215-0.098c-0.682,0.112-1.24,0.416-1.417,0.49c0.336,0.583,0.65,1.162,0.926,1.734
	c0.166-0.116,0.589-0.385,1.141-0.544c0.491-0.134,0.873-0.116,1.06-0.099c-0.01-0.057-0.018-0.105-0.028-0.162
	C47.596,32.603,47.452,32.168,47.261,31.715z M38.895,30.507c1.537-1.247,3.01-1.282,3.476-1.219
	c-0.042-0.056-0.092-0.116-0.138-0.177c-0.516-0.056-1.861-0.067-3.38,0.982c-1.477,0.986-2.431,2.074-2.773,2.487
	c0.116,0.216,0.254,0.421,0.374,0.64C36.656,32.789,37.416,31.605,38.895,30.507z M45.279,28.427
	c-0.244,0.067-0.71,0.226-1.183,0.53c-0.509,0.314-0.813,0.689-0.958,0.876c0.021,0.007,0.039,0.029,0.039,0.046
	c0.194-0.187,0.576-0.53,1.127-0.773c0.541-0.247,0.993-0.308,1.251-0.329C45.466,28.66,45.374,28.543,45.279,28.427z
	 M45.555,30.638c0.547-0.099,0.96-0.042,1.197-0.01c-0.106-0.177-0.205-0.364-0.311-0.551c-0.219,0.035-0.7,0.159-1.244,0.402
	c-0.54,0.247-0.95,0.562-1.141,0.707c0.039,0.043,0.06,0.089,0.098,0.127C44.293,31.197,44.805,30.783,45.555,30.638z M38.8,30.027
	c1.561-1.06,2.9-1.014,3.419-0.936c-0.117-0.145-0.243-0.286-0.342-0.42c-0.445-0.018-1.831-0.018-3.402,0.932
	c-1.491,0.894-2.417,1.967-2.731,2.36c0.099,0.205,0.215,0.402,0.325,0.601C36.395,32.139,37.298,31.041,38.8,30.027z
	 M46.063,31.524c0.646-0.109,1.042,0.075,1.198,0.17c-0.145-0.339-0.312-0.682-0.491-1.039c-0.237-0.007-0.685-0.028-1.236,0.07
	c-0.689,0.135-1.219,0.502-1.378,0.597c0.159,0.266,0.336,0.521,0.474,0.777C44.788,32.008,45.356,31.648,46.063,31.524z
	 M37.535,22.933c-0.141,0.057-0.396,0.205-0.572,0.439c-0.159,0.268-0.159,0.49-0.159,0.589c0.375,0.226,0.767,0.495,1.184,0.788
	c0-0.159,0.078-0.453,0.233-0.583c0.392-0.421,0.756-0.555,0.788-0.579C38.535,23.361,38.044,23.138,37.535,22.933z M44.59,37.559
	c-0.883,0.922-1.081,1.777-1.103,1.777c0.336,0.166,0.682,0.314,1.003,0.451c0.063-0.197,0.258-0.77,0.806-1.388
	c0.593-0.688,1.29-1.081,1.473-1.181c-0.138-0.353-0.286-0.717-0.449-1.108C46.063,36.287,45.307,36.816,44.59,37.559z M41.7,25.152
	c-0.827-0.572-1.72-1.092-2.692-1.564c-0.021,0.024-0.396,0.187-0.746,0.589c-0.198,0.188-0.141,0.396-0.208,0.611
	c0.777,0.562,1.611,1.229,2.444,2.028c0-0.169-0.007-0.501,0.258-0.915C41.033,25.466,41.467,25.25,41.7,25.152z M46.32,36.11
	c-0.257-0.618-0.55-1.265-0.883-1.943c-0.396,0.241-1.438,0.972-2.271,2.038c-0.909,1.145-0.997,2.127-1.025,2.402
	c0.462,0.275,0.915,0.52,1.346,0.729c0.021,0.01,0.106-0.865,1.025-1.823C45.257,36.76,46.052,36.27,46.32,36.11z M36.454,22.421
	c0.163,0.056,0.329,0.117,0.509,0.177C36.783,22.538,36.617,22.478,36.454,22.421z M33.975,21.693c0,0,0,0.011,0,0.021
	c0.678,0.152,1.335,0.332,1.963,0.537C35.303,22.047,34.663,21.849,33.975,21.693z M47.833,33.467
	c-0.032-0.08-0.042-0.169-0.056-0.239c-0.208,0-0.611,0.024-1.081,0.159c-0.53,0.152-0.968,0.367-1.141,0.455
	c0.021,0.036,0.039,0.078,0.056,0.117c0.099-0.061,0.59-0.357,1.208-0.484C47.292,33.387,47.646,33.429,47.833,33.467z
	 M47.271,35.248c0.428-0.117,0.742-0.088,0.887-0.07c-0.07-0.432-0.138-0.877-0.236-1.324c-0.121-0.029-0.52-0.11-1.071-0.053
	c-0.569,0.059-1.063,0.246-1.184,0.285c0.269,0.551,0.498,1.092,0.696,1.593C46.504,35.591,46.83,35.364,47.271,35.248z
	 M47.363,35.436c0.424-0.053,0.714,0.035,0.844,0.088c-0.021-0.113-0.032-0.223-0.049-0.328c-0.145,0-0.48,0.028-0.876,0.141
	c-0.42,0.117-0.767,0.279-0.912,0.35c0.011,0.021,0.011,0.043,0.032,0.064C46.525,35.679,46.911,35.492,47.363,35.436z
	 M47.575,36.259c0.377,0.011,0.6,0.126,0.709,0.198c-0.018-0.305-0.039-0.602-0.078-0.916c-0.141-0.018-0.452-0.07-0.866-0.018
	c-0.431,0.057-0.809,0.174-0.939,0.234c0.092,0.235,0.173,0.458,0.251,0.688C46.77,36.396,47.154,36.259,47.575,36.259z
	 M46.869,33.726c0.572-0.081,0.946,0.063,1.053,0.116c-0.029-0.116-0.061-0.24-0.089-0.346c-0.197-0.021-0.562-0.021-1.021,0.07
	c-0.589,0.117-1.091,0.354-1.201,0.403c0.021,0.034,0.039,0.077,0.056,0.106C45.788,34.025,46.282,33.781,46.869,33.726z
	 M41.22,26.314c0.314-0.474,0.784-0.689,1.014-0.777c-0.159-0.127-0.339-0.248-0.516-0.375c-0.212,0.106-0.619,0.35-0.873,0.752
	c-0.265,0.402-0.304,0.76-0.304,0.929c0.12,0.117,0.25,0.25,0.392,0.375C40.934,27.039,40.965,26.707,41.22,26.314z M42.506,27.236
	c0.452-0.357,0.886-0.474,1.162-0.501c-0.435-0.417-0.908-0.806-1.417-1.191c-0.215,0.11-0.661,0.357-0.943,0.788
	c-0.258,0.385-0.314,0.735-0.353,0.926c0.314,0.311,0.629,0.639,0.922,0.981C41.933,28.013,42.064,27.639,42.506,27.236z
	 M39.068,30.638c1.413-1.152,2.783-1.29,3.366-1.261c-0.007-0.029-0.028-0.046-0.046-0.078c-0.456-0.05-1.925,0.021-3.422,1.257
	c-1.48,1.092-2.286,2.25-2.512,2.664c0.039,0.049,0.057,0.104,0.096,0.138C36.765,32.92,37.549,31.729,39.068,30.638z
	 M33.699,24.043c-0.029,2.274,0.342,3.758,0.766,5.2c0.156-0.088,1.357-1.24,3.226-1.791c1.434-0.42,2.498-0.258,2.95-0.148
	c-0.082-0.085-0.169-0.167-0.254-0.255c-0.417-0.127-1.438-0.342-2.851,0c-1.886,0.445-3.158,1.671-3.158,1.604
	c-0.01,0.067,1.208-1.219,3.162-1.703c1.409-0.321,2.402-0.078,2.822,0.071c-0.498-0.491-1-0.947-1.49-1.357
	c-0.435-0.049-1.219-0.092-2.201,0.187c-1.537,0.403-2.568,1.325-2.568,1.286c-0.01,0.049,0.992-0.954,2.568-1.374
	c0.961-0.261,1.738-0.219,2.162-0.138c-0.297-0.247-0.583-0.474-0.866-0.689c-0.307-0.071-0.667-0.099-1.073-0.105
	c-1.657-0.036-3.077,0.869-3.056,0.84c-0.039,0.053,1.377-0.965,3.098-0.933c0.325,0,0.615,0.028,0.873,0.081
	c-0.269-0.198-0.53-0.392-0.767-0.562c-0.286-0.071-0.788-0.127-1.43,0.01c-1.046,0.195-1.852,0.725-1.852,0.696
	c-0.006,0.028,0.767-0.573,1.855-0.788c0.601-0.117,1.057-0.056,1.35,0.025c-1.501-1.046-2.579-1.555-2.564-1.548
	c-0.014-0.007,0.971,0.406,2.384,1.29c-0.028-0.088-0.078-0.297,0.082-0.59c0.218-0.275,0.491-0.392,0.65-0.431
	c-1.099-0.445-2.29-0.806-3.558-1.102c-0.01,0.039-0.021,0.074-0.021,0.12c-0.028-0.011-0.056-0.021-0.098-0.035
	c0,0.035,0,0.052,0,0.081c-0.021,0.265-0.021,0.541-0.029,0.819C33.758,23.227,33.72,23.64,33.699,24.043z M40.626,33.341
	c1.25-1.269,2.684-1.858,3.165-2.028c-0.205-0.332-0.431-0.657-0.664-0.989c-0.071-0.106-0.152-0.219-0.237-0.336
	c-0.484,0.167-1.957,0.686-3.243,1.947c-1.271,1.218-1.907,2.398-2.098,2.802c0.417,0.52,0.88,1.003,1.342,1.451
	C39.008,35.813,39.383,34.615,40.626,33.341z M48.285,36.475c-0.116-0.043-0.392-0.117-0.749-0.117
	c-0.389-0.011-0.745,0.066-0.883,0.1c0.099,0.25,0.177,0.49,0.258,0.724c0.116-0.018,0.491-0.095,0.844,0
	c0.333,0.092,0.491,0.269,0.551,0.356C48.306,37.202,48.306,36.849,48.285,36.475z M38.161,29.027
	c1.505-0.866,2.794-0.919,3.243-0.894c-0.233-0.28-0.491-0.544-0.735-0.798c-0.463-0.099-1.544-0.227-2.971,0.194
	c-1.812,0.533-3.076,1.632-3.232,1.713c0.258,0.646,0.551,1.248,0.866,1.886C35.705,30.765,36.705,29.833,38.161,29.027z
	 M40.786,37.742c-0.007-0.159-0.138-1.346,1.07-2.78c1.102-1.296,2.42-2.084,2.78-2.282c-0.201-0.35-0.431-0.706-0.653-1.08
	c-0.474,0.236-1.851,0.953-3.039,2.189c-1.247,1.289-1.483,2.486-1.561,2.854c0.371,0.314,0.742,0.629,1.116,0.904
	C40.598,37.611,40.7,37.682,40.786,37.742z M35.331,31.14c0.057,0.106,0.117,0.216,0.167,0.321c0.088,0.17,0.169,0.336,0.247,0.494
	c0.297-0.405,1.159-1.494,2.692-2.426c1.622-0.957,2.978-0.904,3.419-0.869c-0.138-0.177-0.283-0.356-0.431-0.519
	c-0.459,0.011-1.749,0.099-3.232,0.95C36.765,29.889,35.727,30.783,35.331,31.14z M39.566,31.893
	c1.329-1.283,2.822-1.767,3.313-1.905c-0.138-0.208-0.276-0.402-0.434-0.6c-0.569-0.01-1.926,0.169-3.321,1.296
	c-1.515,1.091-2.342,2.265-2.575,2.685c0.314,0.484,0.65,0.932,0.989,1.355C37.708,34.326,38.28,33.133,39.566,31.893z
	 M42.565,27.292c-0.413,0.375-0.589,0.76-0.671,0.965c0.12,0.127,0.237,0.269,0.346,0.402c0.05-0.205,0.205-0.625,0.777-1.01
	c0.509-0.322,0.982-0.375,1.219-0.375c-0.18-0.181-0.353-0.354-0.54-0.52C43.431,26.816,42.986,26.943,42.565,27.292z
	 M47.974,40.852c0,0.027,0,0.045,0,0.045s0.025-0.173,0.046-0.285c0.007-0.089,0.032-0.139,0.021-0.047
	c0.01-0.07,0.035-0.258,0.085-0.541C48.052,40.466,47.992,40.738,47.974,40.852z M47.44,40.78c0.258,0.057,0.431,0.099,0.534,0.116
	l0,0C47.992,40.887,47.791,40.857,47.44,40.78z M47.974,40.852c0.018-0.252,0.311-1.484,0.332-3.293
	c-0.067-0.053-0.279-0.209-0.607-0.286c-0.336-0.092-0.672-0.081-0.781-0.081c0.689,2.066,0.897,3.479,0.873,3.473
	c0.01,0.006-0.254-1.389-1.021-3.431c-0.177,0.099-0.827,0.537-1.396,1.194c-0.53,0.614-0.784,1.162-0.883,1.359
	c2.056,0.865,3.522,1.092,3.483,1.109C47.974,40.896,47.974,40.879,47.974,40.852z M47.893,40.621
	c0.011,0.008,0.011,0.021,0.018,0.008C47.904,40.643,47.904,40.629,47.893,40.621z M47.974,40.896c0,0,0-0.018,0-0.045
	C47.974,40.879,47.974,40.896,47.974,40.896z"/>
<path fill="#D32C5E" d="M60.652,35.598c-1.637,0.018-2.601,0.445-2.815,0.526c-0.026,0.007-0.039,0.019-0.039,0.019
	c0.22,0.42,0.456,0.815,0.692,1.189c0.251-0.123,0.988-0.416,2.18-0.466c1.275-0.077,2.406,0.18,2.691,0.243
	c0.178-0.392,0.354-0.813,0.531-1.254C63.457,35.775,62.122,35.591,60.652,35.598z M67.982,26.353
	c-0.904-0.138-1.517,0.035-1.784,0.124c0.012,0.544-0.007,1.092-0.066,1.646c0.313-0.06,0.976-0.148,1.872,0.011
	c0.84,0.151,1.469,0.427,1.787,0.597c0.008-0.562-0.021-1.134-0.081-1.734C69.413,26.833,68.813,26.512,67.982,26.353z
	 M66.143,28.141c-0.011,0.028-0.011,0.046-0.011,0.081c0.386,0,1.119,0.046,1.968,0.293c0.826,0.237,1.385,0.569,1.683,0.764
	c0.01-0.173,0.01-0.339,0.01-0.52c-0.328-0.148-0.981-0.392-1.787-0.537C67.135,28.063,66.457,28.108,66.143,28.141z M67.823,25.615
	c-0.796-0.042-1.349,0.127-1.632,0.236c0.019,0.205,0.019,0.403,0.019,0.597c0.235-0.116,0.798-0.332,1.772-0.188
	c0.891,0.18,1.451,0.513,1.717,0.707c-0.028-0.283-0.067-0.58-0.123-0.858C69.229,25.94,68.607,25.682,67.823,25.615z
	 M55.398,27.529c0,0.774,0.062,1.534,0.17,2.282c0.471-0.208,1.981-0.872,4.547-0.883c2.535,0,4.682,0.699,5.388,0.95
	c0.063-0.431,0.116-0.883,0.159-1.335c0.018-0.17,0.027-0.314,0.046-0.474c-0.683-0.275-2.819-1.049-5.396-1.092
	C57.76,26.922,55.993,27.363,55.398,27.529z M69.576,31.023c0.095-0.544,0.173-1.127,0.193-1.717
	c-0.308-0.173-0.903-0.477-1.711-0.717c-0.809-0.233-1.531-0.322-1.928-0.35c-0.018,0.117-0.018,0.244-0.039,0.371
	c-0.039,0.473-0.096,0.925-0.177,1.377c0.336,0.007,1.081,0.039,1.954,0.293C68.738,30.529,69.316,30.861,69.576,31.023z
	 M59.999,29.458c2.526-0.028,4.698,0.59,5.446,0.806c0.021-0.117,0.039-0.247,0.051-0.375c-0.699-0.233-2.852-0.876-5.338-0.862
	c-2.516,0.007-4.098,0.618-4.6,0.795c0.045,0.243,0.088,0.501,0.137,0.746C56.1,30.302,57.385,29.486,59.999,29.458z M67.314,23.795
	c-0.644,0.106-1.041,0.346-1.239,0.463c0.057,0.508,0.096,1.031,0.116,1.565c0.254-0.142,0.757-0.339,1.61-0.297
	c0.837,0.067,1.438,0.343,1.773,0.53c-0.12-0.689-0.287-1.396-0.507-2.112C68.75,23.845,68.02,23.675,67.314,23.795z M63.068,14.087
	c-0.053,0.029-0.104,0.057-0.142,0.089c-0.233,0.201-0.491,0.402-0.725,0.604c-0.435,0.296-0.849,0.604-1.24,0.904
	c-2.14,1.834-3.095,3.346-3.938,4.879c0.256,0.032,2.66,0.099,5.24,1.179c1.98,0.834,3.006,1.827,3.416,2.317
	c-0.019-0.148-0.039-0.293-0.051-0.431c-0.35-0.445-1.285-1.466-3.165-2.353c-2.522-1.183-5.06-1.226-4.999-1.286
	c-0.07,0.05,2.463,0,5.092,1.233c1.867,0.894,2.73,1.897,3.063,2.356c-0.096-0.816-0.232-1.593-0.398-2.321
	c-0.436-0.392-1.289-1.06-2.646-1.664c-2.042-0.922-4.056-1.028-4.031-1.067c-0.038,0.039,1.989,0.046,4.12,1.003
	c1.328,0.59,2.134,1.248,2.546,1.657c-0.119-0.431-0.215-0.852-0.335-1.265c-0.275-0.304-0.646-0.636-1.104-0.964
	c-1.808-1.385-4.225-1.816-4.164-1.816c-0.078,0,2.41,0.34,4.295,1.781c0.365,0.261,0.658,0.527,0.912,0.784
	c-0.116-0.381-0.227-0.749-0.351-1.091c-0.257-0.283-0.76-0.749-1.614-1.169c-1.334-0.689-2.709-0.922-2.69-0.95
	c-0.019,0.028,1.396,0.169,2.791,0.89c0.784,0.396,1.239,0.827,1.483,1.113c-0.718-2.074-1.445-3.363-1.425-3.353
	c-0.011-0.021,0.707,1.127,1.466,3.017c0.047-0.12,0.174-0.325,0.637-0.413c0.479-0.06,0.887,0.081,1.1,0.169
	c-0.816-1.262-1.795-2.537-2.939-3.805c-0.039,0.017-0.084,0.046-0.123,0.067C63.118,14.155,63.087,14.127,63.068,14.087z
	 M65.75,37.752c-0.088-0.115-0.324-0.412-0.725-0.706c-0.428-0.328-0.896-0.562-1.066-0.643c-0.127,0.276-0.255,0.544-0.381,0.799
	c0.146,0.077,0.629,0.321,0.932,0.695c0.287,0.339,0.305,0.618,0.297,0.742C65.111,38.361,65.426,38.078,65.75,37.752z
	 M61.323,23.389c2.479,0.544,3.946,1.568,4.448,1.96c-0.012-0.424-0.051-0.844-0.092-1.261c-0.432-0.449-1.513-1.441-3.498-2.275
	c-2.508-1.063-4.918-1.208-5.158-1.25c-0.316,0.707-0.543,1.44-0.767,2.218C57.012,22.792,58.979,22.863,61.323,23.389z
	 M65.896,30.172c0.269,0.036,1.222,0.109,2.187,0.6c0.688,0.375,1.119,0.759,1.331,0.986c0.061-0.233,0.109-0.473,0.163-0.717
	c-0.279-0.142-0.918-0.445-1.741-0.678c-0.838-0.251-1.583-0.325-1.919-0.357C65.916,30.065,65.896,30.111,65.896,30.172z
	 M56.244,32.635c0.138-0.143,1.084-1.209,3.755-1.379c2.42-0.148,4.61,0.294,5.168,0.421c0.103-0.448,0.198-0.922,0.278-1.396
	c-0.748-0.216-2.928-0.752-5.387-0.724c-2.567,0.018-3.949,0.784-4.363,1.021c0.117,0.568,0.256,1.127,0.414,1.66
	C56.146,32.365,56.193,32.504,56.244,32.635z M56.244,22.792c-0.023,0.141-0.067,0.276-0.116,0.417
	c-0.058,0.18-0.116,0.378-0.177,0.576c0.71-0.074,2.67-0.243,5.229,0.258c2.695,0.547,4.146,1.71,4.609,2.102
	c0-0.266-0.007-0.52-0.007-0.778c-0.523-0.374-2.05-1.363-4.483-1.883C58.979,22.951,57.012,22.835,56.244,22.792z M63.423,14.028
	l-0.021,0.007c0.943,1.063,1.779,2.123,2.504,3.175C65.188,16.158,64.365,15.098,63.423,14.028z M65.708,28.052
	c0.021-0.276,0.054-0.541,0.074-0.823c-0.653-0.494-2.313-1.459-4.914-1.685c-2.656-0.354-4.663-0.088-5.32,0.064
	c-0.088,0.646-0.138,1.282-0.147,1.915c0.572-0.187,2.285-0.689,4.875-0.643C62.928,26.932,65.033,27.776,65.708,28.052z
	 M67.178,23.085c-0.672,0.124-1.035,0.367-1.205,0.495c0.043,0.205,0.07,0.424,0.104,0.632c0.154-0.152,0.513-0.385,1.158-0.501
	c0.785-0.124,1.494,0.084,1.826,0.215c-0.058-0.251-0.146-0.491-0.227-0.728C68.491,23.106,67.823,22.969,67.178,23.085z
	 M66.23,17.949c-0.194-0.07-0.641-0.166-1.043-0.099c-0.412,0.071-0.613,0.258-0.705,0.343c0.197,0.48,0.401,1.024,0.59,1.607
	c0.137-0.141,0.494-0.311,0.783-0.286c0.846-0.024,1.396,0.188,1.42,0.188C66.958,19.119,66.616,18.528,66.23,17.949z
	 M65.762,35.938c0.567,0.244,0.9,0.52,1.041,0.652c0.332-0.392,0.657-0.814,0.961-1.264c-0.105-0.12-0.486-0.516-1.158-0.918
	c-0.672-0.41-1.396-0.665-1.571-0.736c-0.22,0.661-0.456,1.29-0.688,1.869C64.577,35.58,65.148,35.668,65.762,35.938z
	 M60.346,32.885c-2.242,0.236-3.451,0.993-3.607,1.042c0.062,0.177,0.139,0.347,0.217,0.516c0.254-0.239,1.18-1.003,3.261-1.2
	c1.988-0.178,3.837,0.154,4.482,0.282c0.021-0.085,0.038-0.166,0.067-0.255C64.156,33.101,62.303,32.68,60.346,32.885z
	 M57.837,36.124c0.216-0.112,1.103-0.601,2.763-0.614c1.512-0.018,2.857,0.248,3.303,0.336c0.287-0.707,0.553-1.484,0.796-2.307
	c-0.646-0.11-2.474-0.387-4.401-0.213c-2.042,0.191-3.049,0.908-3.342,1.123c0.266,0.59,0.551,1.159,0.834,1.693l0,0V36.13
	C57.788,36.143,57.811,36.131,57.837,36.124z M61.377,41.057c-0.021,0.018-0.039,0.027-0.021,0.027l0,0
	c0.028-0.018,0.552-0.36,0.375-0.215c0.07-0.054,0.297-0.178,0.607-0.386C61.825,40.798,61.477,40.984,61.377,41.057L61.377,41.057z
	 M65.033,33.672c0.197,0.054,0.964,0.248,1.688,0.689c0.688,0.414,0.965,0.826,1.043,0.951c0.082-0.106,0.158-0.223,0.219-0.34
	c-0.2-0.17-0.602-0.484-1.201-0.787c-0.768-0.396-1.532-0.602-1.691-0.661C65.072,33.574,65.051,33.612,65.033,33.672z M67.096,23
	c0.707-0.12,1.385,0.05,1.729,0.167c-0.389-1.13-0.9-2.293-1.547-3.465c0,0-0.594-0.181-1.389-0.142
	c-0.386-0.021-0.522,0.205-0.789,0.314c0.354,1.092,0.684,2.332,0.873,3.656C66.113,23.382,66.407,23.121,67.096,23z M63.971,36.396
	c0.18,0.061,0.728,0.258,1.18,0.598c0.416,0.313,0.572,0.6,0.621,0.74c0.244-0.257,0.502-0.525,0.756-0.805
	c-0.137-0.123-0.451-0.428-0.961-0.725c-0.516-0.311-1.057-0.52-1.26-0.59C64.195,35.884,64.076,36.152,63.971,36.396z M61.13,24.75
	c2.702,0.402,4.14,1.54,4.652,2.042c0.007-0.215,0.018-0.42,0.018-0.636c-0.491-0.364-2.007-1.495-4.642-2.024
	c-2.494-0.491-4.497-0.385-5.207-0.335c-0.074,0.258-0.139,0.509-0.195,0.767C56.502,24.484,58.529,24.336,61.13,24.75z
	 M55.559,25.594c0.646-0.173,2.604-0.499,5.311-0.145c2.621,0.244,4.261,1.236,4.902,1.756c0.012-0.039,0.012-0.074,0.012-0.116
	c-0.475-0.403-2.162-1.551-4.979-1.792c-2.632-0.322-4.6-0.035-5.214,0.124C55.576,25.477,55.559,25.537,55.559,25.594z
	 M55.598,25.41c0.607-0.187,2.516-0.533,5.2-0.198c2.856,0.244,4.511,1.435,4.974,1.855c0.012-0.078,0.012-0.167,0.012-0.241
	c-0.514-0.473-1.999-1.593-4.663-1.989c-2.556-0.402-4.597-0.304-5.363-0.265C55.684,24.848,55.637,25.134,55.598,25.41z
	 M68.004,34.941c0.057-0.078,0.096-0.159,0.156-0.248c-0.219-0.162-0.689-0.467-1.357-0.745c-0.695-0.325-1.389-0.498-1.674-0.569
	c-0.018,0.05-0.029,0.096-0.039,0.146c0.169,0.042,0.985,0.19,1.791,0.604C67.479,34.429,67.846,34.754,68.004,34.941z
	 M64.314,35.608c0.207,0.06,0.807,0.205,1.365,0.552c0.512,0.307,0.766,0.611,0.857,0.756c0.084-0.109,0.163-0.198,0.255-0.305
	c-0.171-0.115-0.563-0.37-1.124-0.611c-0.559-0.242-1.109-0.392-1.336-0.447C64.323,35.569,64.323,35.591,64.314,35.608z
	 M67.725,31.98c-0.852-0.456-1.77-0.686-2.023-0.767c-0.165,0.76-0.354,1.466-0.571,2.155c0.304,0.039,1.015,0.177,1.772,0.502
	c0.664,0.296,1.08,0.625,1.279,0.794c0.027-0.05,0.061-0.105,0.096-0.159c0.271-0.448,0.512-0.932,0.709-1.434
	C68.873,32.885,68.529,32.404,67.725,31.98z M67.835,31.928c0.815,0.431,1.08,0.897,1.168,1.109c0.155-0.396,0.294-0.807,0.39-1.251
	c-0.233-0.197-0.725-0.583-1.41-0.954c-0.903-0.463-1.83-0.597-2.094-0.65c-0.058,0.346-0.105,0.688-0.188,1.021
	C65.973,31.268,66.912,31.433,67.835,31.928z M60.068,31.355c-2.623,0.152-3.666,1.155-3.824,1.279
	c0.152,0.447,0.316,0.883,0.494,1.292c0.154-0.056,1.236-0.883,3.535-1.138c2.028-0.208,3.875,0.283,4.502,0.48
	c0.141-0.508,0.274-1.031,0.392-1.593C64.6,31.578,62.426,31.203,60.068,31.355z M61.377,41.057L61.377,41.057
	c0.197-0.16,1.691-0.916,3.398-2.399c-0.028-0.099-0.116-0.403-0.41-0.738c-0.297-0.343-0.672-0.618-0.795-0.71
	c-1.135,2.254-2.215,3.561-2.204,3.543c-0.011,0.018,0.972-1.35,1.995-3.643c-0.274-0.045-1.416-0.232-2.635-0.145
	c-1.158,0.049-1.947,0.286-2.236,0.375c1.49,2.377,2.904,3.762,2.865,3.744C61.338,41.084,61.355,41.074,61.377,41.057z
	 M61.516,40.809c0,0-0.012,0.007,0,0.007C61.504,40.815,61.516,40.809,61.516,40.809z M60.921,40.629
	c0.138,0.141,0.237,0.25,0.317,0.338c0.039,0.047,0.078,0.09,0.117,0.117C61.377,41.095,61.2,40.926,60.921,40.629z M61.377,41.057
	L61.377,41.057L61.377,41.057z M61.377,41.057c-0.021,0.018-0.039,0.027-0.021,0.027C61.338,41.084,61.355,41.074,61.377,41.057z
	 M57.788,36.131v0.012c0,0,0.021-0.012,0.049-0.019C57.811,36.131,57.788,36.143,57.788,36.131z"/>
<path fill="#69AFA9" d="M50.175,71.373c1.982,0.402,3.829,0.304,4.458,0.257c0.021-0.401,0.012-0.788,0-1.18
	c-0.47,0.019-2.307,0.043-4.243-0.462c-2.123-0.549-2.723-1.563-2.815-1.692c-0.057,0.088-0.117,0.19-0.173,0.3
	c-0.205,0.402-0.414,0.823-0.59,1.272C47.105,70.119,48.098,70.963,50.175,71.373z M50.231,76.475c2.044-0.045,3.44-0.602,3.9-0.813
	c0.049-0.208,0.1-0.423,0.139-0.64c-0.433,0.254-1.799,0.961-4.061,0.979c-2.133,0.016-3.695-0.438-4.267-0.605
	c0.031,0.168,0.042,0.334,0.064,0.504c0.018,0.117,0.028,0.227,0.039,0.332C46.653,76.329,48.267,76.534,50.231,76.475z
	 M54.564,67.146c0,0.021,0,0.029,0.009,0.055c0.19-0.016,0.649-0.043,1.145-0.163c0.487-0.095,0.845-0.239,0.999-0.321
	c-0.056-0.088-0.109-0.177-0.165-0.275c-0.092,0.1-0.347,0.314-0.796,0.48C55.244,67.109,54.732,67.139,54.564,67.146z
	 M53.611,62.795c-0.17-0.146-0.285-0.258-0.32-0.296c0.123,0.147-0.27-0.237-0.27-0.237c-0.01,0,0,0.012,0.019,0.032
	C53.104,62.361,53.318,62.527,53.611,62.795z M50.288,75.354c2.226,0.088,3.578-0.58,4.091-0.875c0-0.063,0.021-0.136,0.031-0.207
	c-0.444,0.275-1.967,0.977-4.316,0.729c-2.223-0.147-3.713-0.729-4.19-0.972c0,0.227,0,0.459,0.014,0.699
	C46.525,74.881,48.168,75.283,50.288,75.354z M53.994,65.784c-0.283,0.021-1.205,0.028-2.191-0.22
	c-0.941-0.227-1.494-0.586-1.688-0.717c-0.241,0.264-0.491,0.563-0.75,0.857l0,0l0,0l0.021,0.007
	c0.088,0.039,0.806,0.584,2.211,0.869c1.189,0.244,2.299,0.294,2.659,0.305c-0.067-0.386-0.147-0.753-0.233-1.103l0,0l0,0
	C54.025,65.784,54.004,65.784,53.994,65.784z M48.434,66.932c0.194,0.217,0.896,0.967,2.526,1.426
	c1.526,0.455,3.044,0.511,3.585,0.533c-0.066-0.707-0.166-1.379-0.286-2c-0.37,0.014-1.491,0.014-2.713-0.244
	c-1.491-0.305-2.113-0.904-2.159-0.934l-0.021-0.007C49.051,66.084,48.741,66.501,48.434,66.932z M50.85,68.798
	c-1.819-0.56-2.564-1.401-2.681-1.479c-0.194,0.313-0.403,0.636-0.593,0.975c0.102,0.124,0.798,1.1,2.893,1.629
	c1.878,0.49,3.695,0.52,4.165,0.529c0-0.462-0.028-0.903-0.067-1.335C54.025,69.172,52.45,69.285,50.85,68.798z M50.468,84.457
	c0.589-0.463,1.12-0.925,1.64-1.395c-0.521,0.461-1.07,0.922-1.662,1.369C50.447,84.434,50.458,84.447,50.468,84.457z
	 M52.943,82.281c-0.115,0.109-0.235,0.22-0.354,0.339C52.708,82.501,52.828,82.391,52.943,82.281z M45.918,74.02
	c0.484,0.215,2.014,0.756,4.197,0.914c2.307,0.243,3.863-0.414,4.295-0.678c0.008-0.027,0.008-0.051,0.008-0.09
	c-0.591,0.313-2.07,0.866-4.225,0.65c-2.24-0.127-3.777-0.709-4.275-0.946C45.918,73.919,45.918,73.97,45.918,74.02z M57.564,74.969
	c-0.258,0.124-0.76,0.297-1.494,0.309c-0.826-0.038-1.239-0.309-1.416-0.432c-0.028,0.155-0.062,0.314-0.1,0.48
	c0.215,0.127,0.629,0.354,1.278,0.441c0.646,0.076,1.177-0.029,1.494-0.117C57.406,75.424,57.486,75.195,57.564,74.969z
	 M54.85,68.945L54.85,68.945c0.014,0.053,0.021,0.1,0.021,0.128c0.231-0.011,0.825-0.048,1.444-0.185
	c0.578-0.131,0.992-0.304,1.211-0.393c-0.021-0.089-0.061-0.158-0.092-0.229c-0.17,0.115-0.502,0.328-1.031,0.48
	c-0.695,0.195-1.355,0.195-1.532,0.195l-0.009,0.013L54.85,68.945z M54.87,68.945c0.155-0.018,0.806-0.078,1.455-0.264
	c0.528-0.149,0.922-0.344,1.099-0.443c-0.039-0.104-0.078-0.204-0.127-0.314c-0.078,0.09-0.371,0.387-0.992,0.608
	c-0.65,0.243-1.308,0.278-1.474,0.286c0.011,0.049,0.019,0.092,0.019,0.127H54.87z M45.918,73.859
	c0.498,0.227,2.074,0.76,4.292,0.887c2.123,0.216,3.617-0.305,4.229-0.602c0.021-0.227,0.039-0.451,0.066-0.678
	c-0.597,0.131-2.423,0.475-4.579,0.1c-2.095-0.36-3.412-1.031-3.836-1.278C46.007,72.811,45.943,73.323,45.918,73.859z
	 M50.369,84.359c1.119-0.859,2.102-1.729,2.968-2.615c-0.194,0.027-0.548,0.081-0.926-0.042c-0.351-0.146-0.429-0.332-0.449-0.431
	c-0.903,1.404-1.674,2.211-1.653,2.199c-0.021,0.012,0.767-0.91,1.673-2.486c-0.25,0.207-0.682,0.474-1.381,0.672
	c-1.235,0.359-2.417,0.265-2.376,0.283c-0.018-0.02,1.131,0,2.311-0.344c0.756-0.22,1.229-0.513,1.505-0.699
	c0.139-0.254,0.286-0.529,0.432-0.823c-0.236,0.166-0.522,0.339-0.854,0.491c-1.749,0.865-3.815,0.752-3.755,0.767
	c-0.039-0.015,1.975,0.021,3.667-0.819c0.402-0.191,0.761-0.402,1.041-0.604c0.15-0.318,0.306-0.633,0.453-0.977
	c-0.393,0.262-1.141,0.676-2.311,0.943c-1.879,0.443-3.504,0.134-3.479,0.169c-0.017-0.035,1.625,0.188,3.431-0.228
	c1.181-0.273,1.967-0.688,2.377-0.936c0.251-0.568,0.483-1.166,0.688-1.809c-0.332,0.328-1.19,0.992-2.84,1.423
	c-2.308,0.58-4.355,0.144-4.303,0.188c-0.032-0.047,2.013,0.316,4.246-0.254c1.652-0.426,2.564-1.094,2.918-1.396
	c0.039-0.106,0.07-0.223,0.096-0.331c-0.402,0.323-1.375,0.96-3.104,1.323c-2.257,0.47-4.208,0.146-4.42,0.139
	c0.41,1.289,0.905,2.575,2.169,4.234c0.343,0.418,0.7,0.824,1.113,1.24c0.155,0.205,0.332,0.42,0.499,0.618
	c0.035,0.028,0.053,0.062,0.074,0.077c0.035-0.018,0.057-0.038,0.096-0.066C50.299,84.299,50.331,84.331,50.369,84.359z
	 M57.307,67.914c-0.176-0.409-0.381-0.805-0.582-1.182c-0.135,0.101-0.449,0.271-0.949,0.377c-0.53,0.119-1.004,0.107-1.201,0.098
	c0.103,0.513,0.197,1.043,0.258,1.611c0.158-0.021,0.773-0.116,1.393-0.346C56.816,68.257,57.188,67.991,57.307,67.914z
	 M54.626,71.955c0-0.107,0.007-0.208,0.007-0.314c-0.629,0.071-2.476,0.217-4.518-0.195c-2.102-0.432-3.028-1.29-3.304-1.566
	c-0.081,0.188-0.159,0.387-0.226,0.584c0.363,0.211,1.561,0.964,3.596,1.355C52.186,72.221,54.025,72.032,54.626,71.955z
	 M55.146,77.15c0.551,0.209,1.158,0.199,1.435,0.17c0.286-0.551,0.528-1.098,0.728-1.643c-0.297,0.106-0.826,0.237-1.506,0.166
	c-0.699-0.096-1.068-0.339-1.257-0.49c-0.096,0.432-0.216,0.834-0.343,1.235C54.361,76.73,54.633,76.968,55.146,77.15z
	 M54.908,77.717c0.509,0.188,1.085,0.188,1.357,0.174c0.108-0.188,0.215-0.371,0.313-0.558c-0.294,0.045-0.912,0.104-1.522-0.11
	c-0.502-0.193-0.748-0.445-0.865-0.59c-0.047,0.166-0.109,0.335-0.166,0.494C54.146,77.251,54.4,77.52,54.908,77.717z
	 M46.102,72.288c0.431,0.218,1.808,0.854,3.875,1.208c2.106,0.363,3.932,0.07,4.529-0.039c0.012-0.124,0.028-0.251,0.028-0.378
	c0.039-0.39,0.077-0.749,0.099-1.116c-0.607,0.1-2.455,0.325-4.511-0.063c-2.063-0.418-3.189-1.19-3.536-1.432
	C46.381,71.052,46.222,71.659,46.102,72.288z M45.904,74.734c0.021,0.216,0.021,0.426,0.039,0.647
	c0.572,0.158,2.184,0.554,4.267,0.544c2.201-0.011,3.617-0.679,4.069-0.915c0.029-0.166,0.061-0.347,0.089-0.517
	c-0.491,0.329-1.837,1.027-4.08,0.939C48.126,75.354,46.515,74.916,45.904,74.734z M48.168,67.316
	c0.116,0.07,0.979,0.865,2.759,1.414c1.544,0.474,3.116,0.425,3.638,0.373c-0.01-0.069-0.01-0.138-0.021-0.215
	c-0.541,0.012-2.085-0.015-3.657-0.474c-1.66-0.474-2.289-1.239-2.455-1.474C48.342,67.061,48.257,67.188,48.168,67.316z
	 M57.525,68.516c-0.18,0.108-0.571,0.303-1.162,0.441c-0.646,0.146-1.25,0.141-1.493,0.127c0.067,0.59,0.108,1.196,0.118,1.829
	c0.228-0.019,1.005-0.06,1.757-0.304c0.721-0.213,1.071-0.545,1.19-0.678c-0.078-0.445-0.197-0.877-0.354-1.272
	C57.572,68.614,57.551,68.561,57.525,68.516z M50.684,77.96c1.729-0.354,2.752-0.992,3.184-1.288c0.1-0.324,0.188-0.656,0.266-1.003
	c-0.471,0.247-1.816,0.827-3.9,0.876c-1.985,0.057-3.579-0.188-4.186-0.298c0.057,0.657,0.138,1.29,0.275,1.919
	C46.515,78.166,48.483,78.424,50.684,77.96z M53.291,80.395c-0.23-0.035-0.495-0.226-0.583-0.35
	c-0.248,0.438-0.491,0.841-0.726,1.209c0.058,0.077,0.175,0.257,0.506,0.385c0.318,0.117,0.683,0.096,0.869,0.078
	c1.216-1.262,2.168-2.54,2.899-3.806c-0.286,0.039-0.858,0.067-1.427-0.138c-0.534-0.209-0.729-0.474-0.827-0.611
	c-0.36,1.047-0.815,1.986-1.278,2.818c0.219,0.143,0.275,0.34,0.594,0.387c0.568,0.127,1.021,0.105,1.119,0.099
	c0.021,0,0.021,0,0.021,0s0,0-0.021,0C54.34,80.475,53.898,80.525,53.291,80.395z M55.676,66.854
	c0.444-0.154,0.745-0.343,0.864-0.424c-0.144-0.275-0.317-0.529-0.47-0.767c-0.077,0.101-0.236,0.304-0.61,0.491
	c-0.435,0.215-0.896,0.275-1.06,0.303c0.06,0.22,0.104,0.445,0.154,0.68C54.732,67.109,55.193,67.031,55.676,66.854z M55.35,66.104
	c0.387-0.182,0.611-0.369,0.699-0.47c-0.193-0.303-0.412-0.59-0.632-0.868c0,0.109-0.056,0.34-0.332,0.565
	c-0.313,0.25-0.745,0.381-0.872,0.409c0.066,0.227,0.127,0.464,0.188,0.707C54.545,66.413,54.969,66.297,55.35,66.104z
	 M56.777,71.577c0.617-0.194,1.07-0.421,1.293-0.547c-0.019-0.374-0.063-0.726-0.135-1.07c-0.1,0.159-0.386,0.49-1.119,0.713
	c-0.807,0.251-1.594,0.24-1.828,0.251c0,0.275,0,0.559,0,0.852C55.206,71.775,55.973,71.809,56.777,71.577z M58.091,71.677
	c-0.231,0.093-0.763,0.269-1.489,0.339c-0.746,0.063-1.356-0.018-1.621-0.07c-0.012,0.375-0.043,0.76-0.071,1.135
	c-0.007,0.104-0.021,0.201-0.038,0.307c0.336,0.035,0.925,0.082,1.609,0.016c0.688-0.061,1.22-0.219,1.517-0.309
	C58.053,72.605,58.091,72.133,58.091,71.677z M57.907,73.566c-0.286,0.089-0.826,0.205-1.532,0.205
	c-0.76-0.013-1.271-0.197-1.505-0.279c-0.05,0.449-0.117,0.887-0.205,1.332c0.196,0.109,0.657,0.343,1.413,0.371
	c0.699,0.014,1.229-0.155,1.486-0.256C57.71,74.479,57.83,74.011,57.907,73.566z M57.975,73.109
	c-0.25,0.125-0.767,0.302-1.473,0.365c-0.707,0.063-1.316-0.019-1.632-0.063c0,0.019,0,0.034,0,0.057
	c0.254,0.077,0.784,0.228,1.512,0.228c0.671,0.01,1.239-0.09,1.533-0.149C57.936,73.4,57.957,73.264,57.975,73.109z M58.07,71.059
	c-0.202,0.146-0.604,0.387-1.233,0.582c-0.844,0.244-1.631,0.168-1.849,0.146c0,0.043-0.01,0.1,0,0.144
	c0.267,0.026,0.871,0.077,1.592,0.006c0.706-0.06,1.268-0.205,1.511-0.274C58.091,71.454,58.091,71.256,58.07,71.059z
	 M53.021,62.262l-0.021,0.012c-0.019,0.014-0.039,0.031-0.058,0.037c-0.076,0.059-0.176,0.14-0.324,0.252
	C52.889,62.361,53.04,62.252,53.021,62.262z M50.122,64.85c0.216,0.104,0.827,0.431,1.741,0.648
	c0.955,0.243,1.865,0.279,2.132,0.286c0.01,0,0.03,0,0.03,0c-0.474-2.015-1.041-3.257-1.041-3.247c0-0.018,0.668,1.209,1.229,3.204
	c0.105-0.06,0.463-0.216,0.745-0.447c0.286-0.229,0.413-0.457,0.459-0.535c-1.158-1.45-2.239-2.299-2.377-2.465
	c-0.019-0.021-0.028-0.032-0.019-0.032C53.061,62.252,51.693,63.156,50.122,64.85z M53.104,62.499c0,0,0,0,0,0.01
	C53.104,62.499,53.104,62.499,53.104,62.499z M50.034,64.811c0,0,0.01,0,0.021,0l0,0C50.044,64.811,50.034,64.811,50.034,64.811z
	 M53.04,62.294c-0.019-0.021-0.028-0.032-0.019-0.032C53.012,62.262,53.021,62.271,53.04,62.294z M54.85,68.957l0.021-0.012h-0.009
	L54.85,68.957z M49.366,65.706l0.021,0.007L49.366,65.706z M54.438,80.466c0.021,0,0.021,0,0.021,0S54.46,80.466,54.438,80.466z
	 M54.025,65.784L54.025,65.784c0,0-0.021,0-0.031,0C54.004,65.784,54.025,65.784,54.025,65.784z"/>
<path fill="#5D5D5D" d="M68.523,51.432c-0.032,0-0.053,0-0.043,0.01c0,0,0.76,0.178,0.483,0.144
	c0.081,0.017,0.293,0.077,0.591,0.149c-0.533-0.149-0.888-0.268-1.025-0.303H68.523z M68.48,51.441
	c0.011,0.024,0.066-0.244,0.227-0.717c-0.057,0.205-0.12,0.375-0.159,0.502c-0.024,0.076-0.043,0.147-0.057,0.196
	C68.48,51.432,68.48,51.432,68.48,51.441z M68.523,51.432h0.006H68.523z M68.48,51.441c-0.01-0.01,0.011-0.01,0.043-0.01
	C68.491,51.432,68.471,51.432,68.48,51.441z M68.48,51.441c0.023,0.053,0.572-2.063,2.151-4.924
	c0.289,0.158,1.063,0.632,1.861,1.505c0.872,0.922,1.405,1.957,1.54,2.211c-3.126,0.806-5.19,0.994-5.19,0.972
	c-0.01,0.011,2.085-0.047,5.222-0.734c-0.015,0.154-0.049,0.646-0.242,1.119c-0.17,0.475-0.426,0.756-0.514,0.858
	c-2.677-0.308-4.442-0.946-4.779-1.017c0.139,0.034,0.492,0.151,1.025,0.303c1.799,0.537,5.697,1.488,10.537,0.771
	c2.059-0.287,4.282-1.092,6.465-2.4c1.112-0.678,2.219-1.493,3.301-2.437c0,0.039,0.01,0.067,0.01,0.077
	c0-0.01,0.011-0.038,0.011-0.084c0.925-0.799,1.819-1.711,2.681-2.703c1.645-1.906,3.148-4.179,4.438-6.793
	c0.106-0.227,0.216-0.455,0.312-0.678c0.119-0.252,0.235-0.494,0.351-0.738c0.381-0.895,0.752-1.826,1.087-2.791
	c0.027-0.081,0.057-0.148,0.079-0.23c-10.948-3.295-19.96,2-24.394,7.123c-1.714,1.949-2.957,3.921-3.873,5.609
	c0,0-0.031-0.007-0.021-0.021c0,0,0.01,0.021,0.021,0.021c-0.98,1.865-1.555,3.412-1.851,4.265
	C68.548,51.197,68.491,51.467,68.48,51.441z M74.045,50.233c-0.115-0.272-0.602-1.364-1.484-2.32
	c-0.824-0.911-1.631-1.279-1.914-1.413c0.244-0.441,0.521-0.916,0.828-1.389c-0.013,0.035,1.205,0.455,2.426,1.896
	c0.972,1.162,1.621,2.354,1.838,2.767C75.137,49.947,74.586,50.096,74.045,50.233z M95.205,41.023
	c-0.018-0.027-0.159-0.596-0.717-1.246c-0.17-0.233-0.58-0.402-0.816-0.421c0.487-0.562,0.947-1.091,1.335-1.604
	c0.151,0.012,0.474,0.04,0.839,0.326c0.323,0.275,0.486,0.689,0.557,0.894C96.032,39.689,95.618,40.367,95.205,41.023z
	 M94.456,39.837c0.551,0.597,0.731,1.159,0.749,1.187c-0.846,1.357-1.748,2.586-2.699,3.695c-0.111-0.353-0.367-1.014-0.936-1.504
	c-0.58-0.449-1.063-0.502-1.318-0.502c1.297-1.109,2.406-2.219,3.342-3.282C93.895,39.579,94.223,39.508,94.456,39.837z
	 M91.51,43.342c0.551,0.444,0.846,1.08,0.977,1.402c-0.209,0.232-0.426,0.467-0.623,0.695c-0.098-0.346-0.331-1.073-0.981-1.6
	c-0.552-0.445-1.003-0.545-1.299-0.572c0.218-0.17,0.435-0.346,0.628-0.52C90.447,42.794,90.958,42.91,91.51,43.342z M90.842,43.967
	c0.59,0.477,0.885,1.166,0.992,1.494c-0.643,0.682-1.288,1.314-1.956,1.89c0-0.402-0.099-1.056-0.571-1.784
	c-0.509-0.699-1.039-0.963-1.354-1.074c0.56-0.385,1.082-0.776,1.591-1.189C89.807,43.373,90.309,43.532,90.842,43.967z
	 M75.195,50.205c0.354-0.088,0.687-0.18,1.061-0.275c0.039,0.212,0.178,0.777,0.178,1.413c0.018,0.607-0.1,1.073-0.158,1.269
	c-0.457,0-0.904-0.008-1.344-0.027c0.125-0.148,0.321-0.475,0.381-0.999C75.395,50.965,75.253,50.393,75.195,50.205z M76.846,51.297
	c-0.109-0.66-0.373-1.18-0.49-1.406c0.776-0.215,1.59-0.463,2.444-0.767c0.042,0.184,0.251,0.943,0.226,1.771
	c0.015,0.813-0.176,1.396-0.226,1.564c-0.675,0.081-1.346,0.124-1.985,0.135C76.875,52.389,76.952,51.922,76.846,51.297z
	 M76.797,52.604c-0.167,0-0.324,0-0.49,0c0.088-0.168,0.264-0.582,0.264-1.207c-0.01-0.683-0.227-1.271-0.303-1.477
	c0.027,0,0.049-0.012,0.066-0.018c0.088,0.223,0.29,0.755,0.393,1.384C76.836,51.887,76.813,52.378,76.797,52.604z M79.164,50.951
	c-0.012-0.884-0.294-1.644-0.354-1.827c0.06-0.021,0.119-0.038,0.176-0.056c0.063,0.173,0.318,0.932,0.396,1.815
	c0.066,0.68,0,1.227-0.039,1.512c-0.19,0.021-0.356,0.039-0.532,0.063C78.902,52.307,79.164,51.787,79.164,50.951z M79.499,50.912
	c-0.078-0.933-0.435-1.682-0.513-1.844c0.07-0.025,0.131-0.054,0.197-0.075c0.101,0.28,0.354,0.943,0.471,1.731
	c0.131,0.725,0.104,1.32,0.08,1.61c-0.119,0.019-0.246,0.042-0.366,0.054C79.46,52.131,79.576,51.607,79.499,50.912z M79.064,48.63
	c-0.186-0.629-0.873-2.444-2.416-3.911c-1.748-1.639-3.34-1.925-3.522-2.006c0.159,0.099,1.767,0.522,3.483,2.133
	c1.473,1.41,2.231,3.177,2.447,3.784c-0.099,0.042-0.207,0.089-0.313,0.13c-0.275-0.607-1.119-2.306-2.606-3.765
	c-1.551-1.513-2.975-1.7-3.398-1.745c0.138-0.181,0.266-0.357,0.389-0.537c0.352-0.432,0.714-0.862,1.084-1.297
	c0.23,0.043,1.989,0.159,3.852,2.127c1.696,1.767,2.695,3.773,2.953,4.293C80.357,48.121,79.715,48.386,79.064,48.63z M76.08,45.121
	c1.454,1.406,2.35,3.049,2.652,3.65c-1.039,0.371-2.057,0.717-2.984,0.992c-0.198-0.413-0.788-1.664-1.795-2.871
	c-1.254-1.484-2.491-1.746-2.479-1.781c0.379-0.598,0.793-1.227,1.264-1.855C73.141,43.342,74.563,43.631,76.08,45.121z
	 M79.773,52.328c0.062-0.282,0.136-0.834,0.02-1.586c-0.139-0.822-0.449-1.48-0.607-1.749c0.875-0.321,1.77-0.667,2.674-1.069
	c0.082,0.258,0.441,1.134,0.498,2.144c0.069,0.943-0.223,1.551-0.35,1.777c-0.68,0.201-1.347,0.347-1.996,0.456
	C79.93,52.307,79.855,52.316,79.773,52.328z M88.643,46.231c-0.474-0.87-1.082-1.166-1.356-1.272
	c0.222-0.141,0.431-0.278,0.639-0.438c0.294,0.152,0.835,0.467,1.308,1.145c0.438,0.657,0.568,1.324,0.611,1.728
	c-0.279,0.237-0.562,0.483-0.848,0.706C89.034,47.746,89.034,47.062,88.643,46.231z M86.303,47.913
	c-0.275-0.841-0.709-1.459-0.945-1.771c0.021-0.018,0.054-0.028,0.08-0.046c0.233,0.227,0.725,0.735,1.121,1.534
	c0.369,0.748,0.528,1.443,0.59,1.797c-0.191,0.131-0.375,0.248-0.563,0.363C86.598,49.418,86.586,48.739,86.303,47.913z
	 M83.866,49.498c-0.104-1.102-0.623-1.925-0.771-2.158c0.061-0.035,0.139-0.063,0.219-0.105c0.178,0.287,0.563,0.947,0.845,1.77
	c0.286,0.834,0.372,1.544,0.393,1.88c-0.293,0.127-0.567,0.251-0.868,0.364C83.784,50.923,83.922,50.311,83.866,49.498z
	 M84.275,48.986c-0.305-0.876-0.746-1.494-0.955-1.763c0.522-0.251,1.055-0.536,1.572-0.834c0.148-0.066,0.287-0.158,0.445-0.235
	c0.193,0.334,0.59,0.974,0.855,1.793c0.271,0.792,0.33,1.488,0.341,1.863c-0.649,0.395-1.296,0.749-1.964,1.055
	C84.59,50.548,84.561,49.838,84.275,48.986z M86.652,47.573c-0.409-0.826-0.932-1.289-1.197-1.487
	c0.625-0.363,1.236-0.725,1.809-1.109c0.254,0.145,0.848,0.51,1.275,1.325c0.377,0.771,0.436,1.477,0.424,1.827
	c-0.597,0.465-1.189,0.896-1.787,1.289C87.146,49.043,87.048,48.357,86.652,47.573z M86.646,44.867
	c0.203-0.767,0.479-2.702-0.838-5.15c-1.235-2.356-2.713-3.844-3.277-4.404c0.307-0.135,0.625-0.252,0.939-0.379
	c0.522,0.529,1.926,2.042,3.026,4.369c1.142,2.471,0.922,4.483,0.826,5.119C87.107,44.563,86.879,44.719,86.646,44.867z
	 M85.721,39.777c1.299,2.398,1.063,4.352,0.893,5.101c-0.088,0.057-0.176,0.128-0.271,0.173c0.177-0.664,0.351-2.818-1.239-5.264
	c-1.379-2.355-2.99-3.635-3.578-4.002c0.313-0.17,0.649-0.314,0.984-0.459C83.057,35.895,84.491,37.459,85.721,39.777z
	 M85.014,39.865c1.572,2.398,1.444,4.55,1.307,5.2c-0.037,0.028-0.076,0.046-0.119,0.081c0.142-0.869,0.142-2.883-1.307-5.146
	c-1.365-2.389-2.985-3.725-3.606-4.116c0.08-0.028,0.151-0.056,0.215-0.099C82.07,36.17,83.656,37.523,85.014,39.865z
	 M84.807,40.074c1.438,2.229,1.477,4.231,1.365,5.09c-0.304,0.174-0.617,0.361-0.932,0.53c-0.131-0.735-0.598-3.01-2.262-5.151
	c-1.611-2.084-3.271-3.094-3.834-3.408c0.668-0.445,1.385-0.859,2.143-1.24C81.869,36.308,83.452,37.711,84.807,40.074z
	 M82.898,40.652c1.631,2.086,2.17,4.324,2.342,5.049c-0.178,0.109-0.354,0.197-0.534,0.297c-0.522,0.286-1.042,0.562-1.552,0.822
	c-0.176-0.734-0.815-2.924-2.465-4.948c-1.682-2.024-3.371-2.767-3.894-2.989c0.718-0.611,1.501-1.201,2.338-1.738
	C79.676,37.488,81.309,38.597,82.898,40.652z M80.619,41.979c1.613,1.967,2.32,4.129,2.525,4.842
	c-0.148,0.082-0.287,0.152-0.438,0.23c-0.236-0.749-0.993-2.914-2.657-4.893c-1.731-2.057-3.446-2.508-3.981-2.65
	c0.228-0.205,0.475-0.42,0.722-0.625C77.298,39.148,78.971,39.975,80.619,41.979z M83.078,47.34c0.137,0.252,0.578,1.085,0.668,2.12
	c0.056,0.823-0.043,1.47-0.104,1.81c-0.537,0.215-1.07,0.402-1.591,0.564c0.171-0.227,0.495-0.764,0.437-1.717
	c-0.078-1.085-0.514-1.947-0.629-2.204C82.271,47.736,82.664,47.538,83.078,47.34z M87.346,44.415
	c0.112-0.656,0.409-2.632-0.742-5.157c-1.127-2.381-2.582-3.822-3.111-4.324c0.232-0.102,0.49-0.188,0.744-0.275
	c0.17-0.063,0.337-0.12,0.492-0.19c0.461,0.622,1.613,2.292,2.558,4.504c1.021,2.3,0.95,4.207,0.884,4.872
	C87.893,44.041,87.617,44.229,87.346,44.415z M79.99,42.264c1.613,1.936,2.437,4.06,2.701,4.787
	c-0.558,0.271-1.123,0.541-1.678,0.785c-0.229-0.549-1.158-2.607-2.89-4.413c-1.907-2.007-3.679-1.996-3.915-2.018
	c0.121-0.124,0.221-0.239,0.337-0.382c0.47-0.501,0.976-1,1.513-1.498C76.57,39.696,78.298,40.24,79.99,42.264z M73.945,51.699
	c0.209-0.522,0.147-1.063,0.128-1.236c0.356-0.081,0.728-0.162,1.103-0.258c0.021,0.195,0.1,0.725,0.021,1.289
	c-0.061,0.537-0.219,0.922-0.297,1.089c-0.547-0.032-1.069-0.071-1.563-0.124C73.465,52.378,73.77,52.173,73.945,51.699z
	 M98.586,33.92c-0.629,1.795-1.354,3.477-2.162,5.01c-0.037-0.227-0.154-0.647-0.541-0.99c-0.402-0.303-0.695-0.258-0.857-0.219
	c1.537-1.925,2.297-3.313,2.281-3.292c0-0.011-0.904,1.473-2.658,3.511c0.145-0.416,0.313-1.073,0.226-1.975
	c-0.138-1.614-0.897-2.851-0.849-2.844c-0.049,0,0.595,1.269,0.728,2.816c0.101,0.967-0.077,1.699-0.215,2.105
	c-0.296,0.338-0.601,0.682-0.937,1.045c0.109-0.385,0.211-0.806,0.25-1.278c0.309-2.516-0.944-4.737-0.887-4.677
	c-0.038-0.039,1.07,2.168,0.756,4.609c-0.06,0.59-0.176,1.113-0.328,1.555c-0.35,0.371-0.724,0.756-1.134,1.15
	c0.175-0.61,0.371-1.723,0.136-3.196c-0.375-2.37-1.668-3.981-1.611-3.97c-0.049,0.01,1.142,1.681,1.494,3.952
	c0.236,1.505,0.061,2.653-0.077,3.268c-0.668,0.654-1.417,1.308-2.224,1.972c0.287-0.601,0.807-2,0.541-4.119
	c-0.385-2.943-2.092-4.914-1.996-4.896c-0.088-0.007,1.506,2.035,1.865,4.886c0.275,2.104-0.215,3.565-0.449,4.158
	c-0.138,0.106-0.285,0.222-0.434,0.343c0.258-0.668,0.648-2.18,0.264-4.346c-0.519-2.819-2.013-4.772-2.119-5.002
	c0.097,0.232,1.502,2.254,1.992,4.991c0.396,2.155,0.043,3.716-0.176,4.384c-0.414,0.325-0.834,0.65-1.275,0.969
	c0.097-0.679,0.236-2.568-0.805-4.922c-0.947-2.238-2.156-3.85-2.626-4.457c0.972-0.365,1.896-0.699,2.89-0.965
	c2.174-0.402,4.412-0.717,7.756-0.304c0.865,0.105,1.828,0.274,2.867,0.491c0.078,0.018,0.139,0.031,0.205,0.045
	c0.049,0.015,0.109,0.025,0.17,0.033C98.628,33.811,98.607,33.859,98.586,33.92z M66.813,60.855
	c0.162,0.731,0.061,1.367,0.028,1.525c-2.487-0.996-3.991-1.775-3.975-1.775c-0.019-0.011,1.438,0.832,3.893,1.875
	c-0.088,0.057-0.342,0.236-0.685,0.343c-0.336,0.116-0.645,0.128-0.749,0.128c-1.649-1.229-2.554-2.211-2.771-2.389
	c0.088,0.07,0.293,0.281,0.607,0.597c1.004,0.976,3.193,2.944,6.74,4.646c1.533,0.754,3.404,1.364,5.49,1.756l0,0l0.006-0.01
	c1.072,0.204,2.201,0.356,3.371,0.432c-0.019,0.023-0.028,0.023-0.028,0.023c0,0.008,0.011,0,0.049-0.023
	c0.981,0.061,2.003,0.08,3.067,0.053l0,0c2.017-0.071,4.107-0.344,6.209-0.857c0.082-0.019,0.156-0.039,0.236-0.058
	c0.295-0.081,0.598-0.159,0.904-0.231c0.633-0.188,1.277-0.4,1.904-0.625c0.063-0.02,0.099-0.029,0.158-0.048
	c-5.916-5.889-14.465-7.56-19.843-7.383c-2.056,0.063-3.812,0.304-5.221,0.601c-1.552,0.34-2.653,0.707-3.231,0.922
	c-0.306,0.125-0.471,0.188-0.461,0.181c-0.01,0.019,1.336-0.582,3.734-1.042C66.352,59.672,66.662,60.178,66.813,60.855z
	 M66.902,60.838c-0.144-0.699-0.514-1.189-0.629-1.359c0.363-0.063,0.763-0.145,1.187-0.189c0.53-0.089,1.108-0.159,1.71-0.212
	c0.243,0.2,1.07,0.909,1.428,2.137c0.332,1.155,0.172,2.185,0.112,2.544c-0.89-0.285-1.724-0.564-2.495-0.852
	c0.067-0.251,0.237-0.986,0.105-1.879c-0.16-1.11-0.889-1.738-0.86-1.738c-0.019,0.011,0.622,0.675,0.781,1.755
	c0.112,0.869,0.015,1.611-0.032,1.862c-0.484-0.182-0.934-0.357-1.367-0.523C66.902,62.223,67.078,61.598,66.902,60.838z
	 M85.555,66.784c-0.012-0.167-0.216-0.406-0.365-0.502c0.602-0.007,1.152-0.039,1.645-0.067c0.084,0.061,0.305,0.208,0.409,0.463
	c0.104,0.254,0.021,0.48-0.017,0.602c-0.592,0.117-1.182,0.213-1.771,0.311C85.455,67.579,85.632,67.299,85.555,66.784z
	 M85.498,66.805c0.096,0.475-0.043,0.774-0.043,0.784c-1.189,0.179-2.377,0.283-3.539,0.325c0.1-0.188,0.227-0.553,0.061-0.992
	c-0.179-0.41-0.492-0.625-0.658-0.734c1.39,0.096,2.664,0.115,3.783,0.096C85.24,66.47,85.486,66.568,85.498,66.805z M81.877,66.96
	c0.166,0.401,0.078,0.769,0.021,0.954c-0.256,0.01-0.498,0.01-0.75,0.01c0.101-0.169,0.271-0.563,0.078-1.037
	c-0.162-0.402-0.44-0.644-0.615-0.771c0.224,0.028,0.453,0.046,0.668,0.069C81.418,66.303,81.714,66.559,81.877,66.96z
	 M81.143,66.922c0.176,0.432,0.067,0.826-0.008,1.002c-0.752,0.012-1.496-0.017-2.203-0.059c0.172-0.166,0.412-0.471,0.434-0.943
	c-0.021-0.499-0.268-0.816-0.434-0.992c0.567,0.081,1.098,0.137,1.631,0.188C80.718,66.262,80.973,66.529,81.143,66.922z
	 M68.02,63.896c0.313-0.268,0.444-0.59,0.473-0.705c0.021,0.007,0.037,0.007,0.057,0.018c-0.035,0.123-0.145,0.421-0.367,0.707
	c-0.197,0.285-0.438,0.473-0.554,0.547c-0.121-0.063-0.228-0.135-0.333-0.193C67.432,64.24,67.743,64.148,68.02,63.896z
	 M67.275,64.259c-0.317-0.198-0.621-0.386-0.903-0.569c0.134-0.021,0.431-0.06,0.724-0.246c0.336-0.205,0.492-0.491,0.553-0.602
	c0.274,0.123,0.551,0.227,0.844,0.35c-0.066,0.097-0.243,0.377-0.529,0.625C67.688,64.07,67.393,64.201,67.275,64.259z
	 M68.275,63.973c0.216-0.305,0.271-0.629,0.293-0.757c0.633,0.236,1.309,0.474,2.018,0.718c-0.049,0.092-0.264,0.474-0.66,0.799
	c-0.371,0.313-0.768,0.473-0.88,0.52c-0.498-0.251-0.964-0.513-1.397-0.777C67.773,64.428,68.039,64.27,68.275,63.973z
	 M69.984,64.811c0.414-0.354,0.572-0.777,0.613-0.877c0.034,0.012,0.094,0.039,0.144,0.053c-0.05,0.086-0.204,0.496-0.578,0.88
	c-0.271,0.304-0.56,0.493-0.729,0.584c-0.117-0.067-0.242-0.128-0.373-0.198C69.201,65.232,69.615,65.135,69.984,64.811z
	 M71.066,61.318c0.355,1.181,0.061,2.193-0.082,2.525c-0.084-0.029-0.172-0.046-0.274-0.088c0.103-0.35,0.308-1.375-0.039-2.563
	c-0.343-1.262-1.226-1.926-1.489-2.118c0.166-0.019,0.342-0.036,0.512-0.048c0.432-0.027,0.873-0.06,1.336-0.069
	c0.138,0.117,1.273,0.894,1.632,2.459c0.335,1.405,0.099,2.614,0.028,2.929c-0.59-0.154-1.151-0.322-1.703-0.502
	c0.17-0.32,0.543-1.324,0.181-2.543c-0.437-1.396-1.385-2.173-1.474-2.271C69.762,59.136,70.646,59.963,71.066,61.318z
	 M70.251,64.938c0.374-0.402,0.47-0.853,0.49-0.951c0.061,0.019,0.11,0.039,0.167,0.047c-0.057,0.158-0.198,0.529-0.471,0.896
	c-0.258,0.332-0.545,0.562-0.688,0.668c-0.095-0.055-0.187-0.089-0.276-0.143C69.654,65.393,69.965,65.24,70.251,64.938z
	 M70.516,64.989c0.286-0.386,0.375-0.777,0.406-0.947c0.735,0.233,1.502,0.474,2.296,0.69c-0.069,0.144-0.223,0.627-0.639,1.062
	c-0.403,0.403-0.866,0.521-1.063,0.548c-0.548-0.208-1.07-0.419-1.559-0.66c-0.07-0.018-0.131-0.047-0.188-0.072
	C69.941,65.525,70.262,65.332,70.516,64.989z M74.646,61.693c-0.215-1.533-1.182-2.424-1.483-2.703
	c0.264,0.011,0.519,0.029,0.776,0.05c0.215,0.313,0.981,1.351,1.177,2.819c0.196,1.455-0.325,2.604-0.509,2.978
	c-0.139-0.026-0.275-0.069-0.414-0.099C74.393,64.348,74.861,63.174,74.646,61.693z M74.369,66.162
	c0.193-0.467,0.178-0.9,0.154-1.089c0.484,0.12,0.967,0.227,1.457,0.325c0.139,0.027,0.274,0.057,0.414,0.092
	c-0.021,0.216-0.052,0.626-0.236,1.058c-0.196,0.444-0.475,0.741-0.629,0.886c-0.629-0.104-1.241-0.257-1.827-0.401
	C73.857,66.902,74.172,66.629,74.369,66.162z M73.691,67.031c-0.267-0.071-0.522-0.141-0.756-0.217
	c0.213-0.088,0.586-0.274,0.922-0.617c0.441-0.473,0.463-1.018,0.463-1.174c0.07,0.012,0.137,0.021,0.193,0.05
	c-0.007,0.178-0.046,0.599-0.232,1.054C74.094,66.568,73.822,66.891,73.691,67.031z M76.238,66.59
	c0.205-0.456,0.195-0.877,0.173-1.1c0.022,0.008,0.054,0.008,0.082,0.019c0.06,0.188,0.155,0.597,0.06,1.073
	c-0.103,0.449-0.314,0.795-0.434,0.958c-0.188-0.028-0.371-0.058-0.553-0.101C75.754,67.307,76.052,67.031,76.238,66.59z
	 M76.639,66.602c0.098-0.496-0.048-0.896-0.125-1.093c0.59,0.126,1.159,0.232,1.729,0.324c0.115,0.159,0.343,0.545,0.266,1.054
	c-0.105,0.467-0.402,0.764-0.563,0.904c-0.607-0.063-1.219-0.141-1.809-0.24C76.295,67.396,76.542,67.066,76.639,66.602z
	 M78.6,66.902c0.084-0.549-0.199-0.91-0.33-1.069c0.209,0.024,0.426,0.062,0.633,0.09c0.123,0.183,0.354,0.525,0.359,0.999
	c0,0.455-0.223,0.77-0.369,0.934c-0.314-0.008-0.611-0.035-0.908-0.063C78.174,67.66,78.479,67.396,78.6,66.902z M77.878,65.525
	c0.479-0.215,1.582-0.864,1.81-2.389c0.242-1.443-0.071-2.652-0.205-3.104c0.275,0.07,0.547,0.158,0.812,0.232
	c0.11,0.428,0.376,1.617,0.052,3c-0.371,1.454-1.436,2.154-1.8,2.368C78.318,65.607,78.104,65.564,77.878,65.525z M79.587,63.128
	c-0.219,1.494-1.274,2.166-1.737,2.392c-0.093-0.011-0.177-0.028-0.254-0.054c0.408-0.198,1.529-0.96,1.578-2.604
	c0.151-1.496-0.354-2.685-0.59-3.063c0.286,0.065,0.59,0.143,0.876,0.223C79.576,60.484,79.827,61.704,79.587,63.128z
	 M79.086,62.861c-0.047,1.611-1.12,2.406-1.525,2.604c-0.039-0.011-0.074-0.011-0.105-0.017c0.49-0.286,1.416-1.085,1.477-2.579
	c0.172-1.522-0.313-2.72-0.551-3.134c0.061,0.021,0.12,0.035,0.197,0.053C78.771,60.171,79.225,61.382,79.086,62.861z
	 M78.831,62.861c-0.06,1.475-0.942,2.289-1.417,2.576c-0.282-0.047-0.578-0.105-0.872-0.17c0.255-0.351,0.972-1.44,0.833-2.981
	c-0.137-1.505-0.784-2.595-1.021-2.952c0.65,0.098,1.326,0.24,2.004,0.402C78.577,60.139,79.009,61.365,78.831,62.861z
	 M77.277,62.294c0.15,1.505-0.51,2.614-0.746,2.974c-0.165-0.035-0.324-0.063-0.49-0.104c-0.491-0.109-0.965-0.21-1.436-0.326
	c0.232-0.363,0.807-1.492,0.608-2.988c-0.206-1.5-1.021-2.494-1.262-2.809c0.76,0.061,1.558,0.159,2.381,0.287
	C76.542,59.691,77.141,60.82,77.277,62.294z M74.32,65.018c-0.032,0.146-0.11,0.664-0.533,1.109c-0.332,0.357-0.696,0.572-0.9,0.678
	c-0.463-0.137-0.912-0.285-1.336-0.451c0.205-0.012,0.686-0.078,1.088-0.496c0.444-0.446,0.551-0.967,0.59-1.125
	C73.585,64.826,73.945,64.93,74.32,65.018z M78.557,65.635c0.385-0.195,1.493-0.867,1.875-2.338
	c0.334-1.413,0.012-2.596-0.127-3.029c0.215,0.068,0.432,0.146,0.633,0.219c0.154,0.037,0.289,0.092,0.431,0.125
	c0.019,0.443,0.039,1.578-0.347,2.842c-0.359,1.346-1.285,2.074-1.639,2.3C79.104,65.725,78.831,65.682,78.557,65.635z
	 M74.555,61.715c0.204,1.434-0.201,2.633-0.361,3.023c-0.512-0.124-1.023-0.258-1.504-0.393c0.092-0.313,0.401-1.513,0.069-2.961
	c-0.374-1.587-1.571-2.316-1.729-2.427c0.138,0,0.275-0.013,0.402-0.013c0.551,0,1.129,0.013,1.717,0.044
	C73.426,59.27,74.339,60.199,74.555,61.715z M66.105,62.923c0.369-0.116,0.596-0.36,0.653-0.431c0.276,0.115,0.573,0.232,0.867,0.35
	c-0.067,0.092-0.276,0.332-0.584,0.526c-0.283,0.184-0.567,0.271-0.692,0.3c-0.363-0.232-0.688-0.47-1.002-0.703
	C65.475,62.993,65.771,63.029,66.105,62.923z M91.04,66.188c-1.261,0.453-2.54,0.815-3.798,1.078
	c0.081-0.106,0.197-0.322,0.104-0.619c-0.143-0.293-0.367-0.393-0.474-0.44c1.914-0.125,3.065-0.354,3.049-0.354
	c0.017,0-1.29,0.205-3.424,0.275c0.293-0.1,0.706-0.294,1.071-0.678c0.639-0.711,0.697-1.516,0.727-1.488
	c-0.027-0.018-0.176,0.749-0.805,1.421c-0.383,0.423-0.838,0.636-1.112,0.745c-0.351,0.02-0.729,0.02-1.116,0.02
	c0.25-0.106,0.508-0.234,0.766-0.404c1.357-0.852,1.533-2.258,1.552-2.219c-0.019-0.027-0.285,1.313-1.61,2.142
	c-0.318,0.205-0.629,0.362-0.943,0.481c-0.416,0-0.848-0.013-1.301-0.029c0.396-0.167,1.043-0.52,1.572-1.198
	c0.827-1.103,0.689-2.271,0.73-2.242c-0.041-0.028,0,1.13-0.829,2.183c-0.509,0.686-1.155,1.082-1.554,1.27
	c-0.746-0.043-1.553-0.081-2.408-0.158c0.479-0.117,1.472-0.449,2.277-1.406c1.09-1.324,0.844-2.818,0.893-2.76
	c-0.049-0.054,0.086,1.426-0.975,2.703c-0.787,0.949-1.789,1.327-2.24,1.451c-0.139-0.008-0.293-0.018-0.435-0.034
	c0.47-0.159,1.435-0.591,2.183-1.604c0.943-1.337,0.824-2.73,0.846-2.872c-0.028,0.131-0.01,1.519-0.947,2.813
	c-0.713,1.01-1.666,1.482-2.119,1.664c-0.431-0.054-0.871-0.1-1.313-0.158c0.369-0.237,1.332-0.928,1.716-2.279
	c0.382-1.29,0.304-2.43,0.267-2.861c0.836,0.266,1.609,0.512,2.397,0.823c1.534,0.681,3.049,1.416,4.885,2.737
	c0.729,0.509,1.503,1.115,2.351,1.854c0.011,0.007,0.021,0.017,0.028,0.017c0.031,0.028,0.067,0.062,0.103,0.09
	C91.107,66.155,91.079,66.162,91.04,66.188z M47.974,40.896c0.039-0.018-1.427-0.244-3.483-1.109
	c0.099-0.197,0.354-0.745,0.883-1.359c0.569-0.657,1.219-1.096,1.396-1.194c0.767,2.042,1.031,3.437,1.021,3.431
	c0.024,0.006-0.184-1.406-0.873-3.473c0.109,0,0.445-0.011,0.781,0.081c0.329,0.077,0.54,0.233,0.607,0.286
	c-0.021,1.809-0.314,3.041-0.332,3.293c0.018-0.113,0.078-0.386,0.152-0.828c0.229-1.299,0.543-3.934-0.272-7.051
	c-0.336-1.373-1.042-2.818-2.084-4.186c-0.53-0.717-1.163-1.406-1.887-2.07c0.028,0,0.049,0,0.049,0c-0.011-0.01-0.032,0-0.049,0
	c-0.611-0.562-1.29-1.109-2.028-1.622c-1.413-0.964-3.042-1.822-4.893-2.497c-0.18-0.06-0.346-0.121-0.509-0.177
	c-0.18-0.06-0.346-0.12-0.516-0.169c-0.628-0.205-1.285-0.385-1.963-0.537c-0.057-0.011-0.096-0.032-0.159-0.042
	c-1.431,7.634,2.794,13.35,6.577,15.968c1.446,1.017,2.858,1.727,4.081,2.207c1.307,0.529,2.377,0.795,2.967,0.933
	C47.791,40.857,47.992,40.887,47.974,40.896z M45.296,38.399c-0.547,0.618-0.742,1.19-0.806,1.388
	c-0.321-0.137-0.667-0.285-1.003-0.451c-0.431-0.209-0.883-0.453-1.346-0.729c0.028-0.275,0.116-1.258,1.025-2.402
	c0.833-1.066,1.875-1.797,2.271-2.038c0.333,0.679,0.625,1.325,0.883,1.943c-0.269,0.159-1.063,0.649-1.808,1.402
	c-0.919,0.958-1.003,1.833-1.025,1.823c0.021,0,0.219-0.855,1.103-1.777c0.717-0.742,1.473-1.271,1.73-1.448
	c0.163,0.392,0.312,0.756,0.449,1.108C46.586,37.318,45.89,37.711,45.296,38.399z M40.499,26.816
	c-0.833-0.798-1.667-1.466-2.444-2.028c0.067-0.215,0.01-0.424,0.208-0.611c0.35-0.402,0.724-0.565,0.746-0.589
	c0.972,0.473,1.865,0.992,2.692,1.564c-0.233,0.099-0.667,0.314-0.943,0.749C40.492,26.314,40.499,26.646,40.499,26.816z
	 M37.987,24.75c-0.417-0.293-0.809-0.562-1.184-0.788c0-0.099,0-0.322,0.159-0.589c0.177-0.234,0.431-0.382,0.572-0.439
	c0.509,0.205,1,0.428,1.473,0.654c-0.032,0.024-0.396,0.158-0.788,0.579C38.065,24.297,37.987,24.59,37.987,24.75z M40.845,25.915
	c0.254-0.403,0.66-0.646,0.873-0.752c0.177,0.127,0.356,0.247,0.516,0.375c-0.229,0.088-0.699,0.304-1.014,0.777
	c-0.254,0.392-0.286,0.724-0.286,0.904c-0.142-0.124-0.272-0.258-0.392-0.375C40.542,26.675,40.581,26.317,40.845,25.915z
	 M41.308,26.332c0.282-0.431,0.728-0.678,0.943-0.788c0.509,0.385,0.982,0.773,1.417,1.191c-0.276,0.028-0.71,0.145-1.162,0.501
	c-0.442,0.402-0.573,0.777-0.629,1.003c-0.293-0.342-0.607-0.671-0.922-0.981C40.994,27.067,41.05,26.717,41.308,26.332z
	 M46.812,33.566c0.459-0.092,0.824-0.092,1.021-0.07c0.028,0.105,0.06,0.229,0.089,0.346c-0.106-0.053-0.481-0.197-1.053-0.116
	c-0.587,0.056-1.081,0.3-1.202,0.351c-0.018-0.029-0.035-0.072-0.056-0.106C45.72,33.92,46.222,33.684,46.812,33.566z
	 M45.611,33.959c-0.018-0.039-0.036-0.081-0.056-0.117c0.172-0.088,0.61-0.303,1.141-0.455c0.47-0.135,0.873-0.159,1.081-0.159
	c0.014,0.07,0.024,0.159,0.056,0.239c-0.187-0.038-0.54-0.08-1.014,0.008C46.201,33.602,45.71,33.898,45.611,33.959z M46.851,33.801
	c0.551-0.058,0.95,0.023,1.071,0.053c0.099,0.447,0.166,0.893,0.236,1.324c-0.145-0.018-0.459-0.047-0.887,0.07
	c-0.441,0.116-0.767,0.343-0.908,0.431c-0.198-0.501-0.428-1.042-0.696-1.593C45.788,34.047,46.282,33.859,46.851,33.801z
	 M47.282,35.336c0.396-0.112,0.731-0.141,0.876-0.141c0.018,0.105,0.028,0.215,0.049,0.328c-0.13-0.053-0.42-0.141-0.844-0.088
	c-0.452,0.057-0.837,0.243-0.961,0.314c-0.021-0.021-0.021-0.043-0.032-0.064C46.515,35.615,46.861,35.453,47.282,35.336z
	 M47.341,35.523c0.414-0.053,0.725,0,0.866,0.018c0.039,0.314,0.06,0.611,0.078,0.916c-0.109-0.072-0.332-0.188-0.709-0.198
	c-0.421,0-0.806,0.138-0.922,0.187c-0.078-0.229-0.159-0.452-0.251-0.688C46.533,35.697,46.911,35.58,47.341,35.523z M46.695,33.298
	c-0.551,0.159-0.975,0.428-1.141,0.544c-0.276-0.572-0.59-1.151-0.926-1.734c0.177-0.074,0.735-0.378,1.417-0.49
	c0.628-0.117,1.06,0.031,1.215,0.098c0.191,0.453,0.335,0.888,0.466,1.322c0.01,0.057,0.018,0.105,0.028,0.162
	C47.568,33.182,47.186,33.164,46.695,33.298z M42.937,35.873c0.845-1.098,1.985-1.734,2.381-1.925
	c0.039,0.067,0.078,0.138,0.106,0.208c-0.389,0.223-1.48,0.922-2.346,2.025c-0.925,1.168-0.946,2.141-0.936,2.426
	c-0.127-0.066-0.265-0.148-0.392-0.227c-0.325-0.197-0.639-0.402-0.964-0.639c0.006-0.159-0.029-1.346,1.162-2.752
	c1.078-1.265,2.346-2.095,2.688-2.312c0.247,0.435,0.462,0.845,0.682,1.262c-0.417,0.173-1.59,0.773-2.47,1.914
	c-0.993,1.308-1.06,2.398-1.099,2.525C41.799,38.266,41.976,37.152,42.937,35.873z M43.392,30.165
	c-0.082-0.088-0.141-0.187-0.198-0.269c0.215-0.173,0.607-0.48,1.137-0.717c0.523-0.24,0.993-0.332,1.244-0.375
	c0.314,0.42,0.608,0.83,0.852,1.261c-0.216,0.011-0.7,0.082-1.247,0.343c-0.572,0.258-0.964,0.604-1.123,0.759
	C43.844,30.833,43.615,30.497,43.392,30.165z M43.982,31.6c-0.495,0.219-1.89,0.883-3.119,2.154
	c-1.258,1.307-1.445,2.505-1.48,2.879c-0.181-0.137-0.336-0.293-0.491-0.445c0.155-0.359,0.586-1.551,1.815-2.809
	c1.209-1.24,2.625-1.871,3.095-2.056C43.862,31.415,43.922,31.5,43.982,31.6z M43.177,29.878c0-0.017-0.018-0.039-0.039-0.046
	c0.145-0.187,0.448-0.562,0.958-0.876c0.473-0.304,0.939-0.462,1.183-0.53c0.095,0.117,0.187,0.233,0.276,0.35
	c-0.258,0.021-0.71,0.082-1.251,0.329C43.752,29.349,43.371,29.692,43.177,29.878z M45.197,30.479
	c0.544-0.244,1.025-0.368,1.244-0.402c0.106,0.187,0.205,0.374,0.311,0.551c-0.237-0.032-0.65-0.089-1.197,0.01
	c-0.75,0.145-1.262,0.559-1.4,0.674c-0.039-0.038-0.059-0.084-0.098-0.127C44.247,31.041,44.657,30.726,45.197,30.479z
	 M45.533,30.726c0.551-0.098,1-0.078,1.236-0.07c0.18,0.357,0.346,0.7,0.491,1.039c-0.155-0.095-0.551-0.279-1.198-0.17
	c-0.707,0.124-1.275,0.483-1.435,0.576c-0.138-0.255-0.314-0.512-0.474-0.777C44.314,31.229,44.844,30.861,45.533,30.726z
	 M44.049,28.896c-0.53,0.336-0.798,0.714-0.911,0.915c-0.29-0.403-0.59-0.777-0.887-1.141c0.078-0.188,0.275-0.608,0.806-0.951
	c0.491-0.318,0.961-0.392,1.197-0.428c0.364,0.368,0.689,0.742,1.003,1.124C45.014,28.455,44.554,28.572,44.049,28.896z
	 M38.853,30.094c1.519-1.05,2.865-1.039,3.38-0.982c0.046,0.061,0.096,0.121,0.138,0.177c-0.466-0.063-1.939-0.028-3.476,1.219
	c-1.479,1.098-2.239,2.282-2.441,2.713c-0.12-0.219-0.258-0.424-0.374-0.64C36.422,32.168,37.376,31.08,38.853,30.094z
	 M36.069,32.563c-0.109-0.198-0.226-0.396-0.325-0.601c0.314-0.393,1.24-1.466,2.731-2.36c1.571-0.95,2.957-0.95,3.402-0.932
	c0.099,0.134,0.226,0.275,0.342,0.42c-0.519-0.078-1.858-0.124-3.419,0.936C37.298,31.041,36.395,32.139,36.069,32.563z
	 M38.966,30.557c1.498-1.236,2.967-1.307,3.422-1.257c0.018,0.031,0.039,0.049,0.046,0.078c-0.583-0.029-1.953,0.109-3.366,1.261
	c-1.519,1.091-2.303,2.282-2.519,2.72c-0.039-0.035-0.057-0.089-0.096-0.138C36.68,32.807,37.486,31.648,38.966,30.557z
	 M39.125,30.684c1.396-1.127,2.752-1.307,3.321-1.296c0.158,0.198,0.296,0.392,0.434,0.6c-0.491,0.138-1.985,0.622-3.313,1.905
	c-1.286,1.24-1.858,2.434-2.027,2.832c-0.339-0.424-0.675-0.871-0.989-1.355C36.783,32.949,37.609,31.775,39.125,30.684z
	 M43.018,27.65c-0.572,0.385-0.727,0.805-0.777,1.01c-0.109-0.134-0.226-0.275-0.346-0.402c0.082-0.205,0.258-0.59,0.671-0.965
	c0.42-0.349,0.866-0.477,1.131-0.537c0.187,0.166,0.36,0.339,0.54,0.52C44,27.275,43.527,27.328,43.018,27.65z M41.855,28.66
	c-0.442-0.035-1.798-0.088-3.419,0.869c-1.533,0.933-2.395,2.021-2.692,2.426c-0.078-0.158-0.159-0.324-0.247-0.494
	c-0.05-0.105-0.109-0.215-0.167-0.321c0.396-0.356,1.435-1.25,2.862-2.049c1.483-0.852,2.773-0.939,3.232-0.95
	C41.573,28.303,41.718,28.483,41.855,28.66z M39.647,31.935c1.286-1.261,2.759-1.78,3.243-1.947c0.085,0.117,0.166,0.23,0.237,0.336
	c0.233,0.332,0.459,0.657,0.664,0.989c-0.481,0.17-1.915,0.76-3.165,2.028c-1.244,1.274-1.618,2.473-1.735,2.847
	c-0.462-0.448-0.926-0.932-1.342-1.451C37.74,34.333,38.376,33.152,39.647,31.935z M40.944,33.789
	c1.188-1.236,2.565-1.953,3.039-2.189c0.223,0.374,0.452,0.73,0.653,1.08c-0.36,0.198-1.678,0.986-2.78,2.282
	c-1.208,1.435-1.077,2.621-1.07,2.78c-0.085-0.061-0.188-0.131-0.287-0.194c-0.374-0.275-0.746-0.59-1.116-0.904
	C39.46,36.275,39.697,35.078,40.944,33.789z M47.755,37.181c-0.353-0.095-0.728-0.018-0.844,0c-0.081-0.233-0.159-0.474-0.258-0.724
	c0.138-0.033,0.495-0.11,0.883-0.1c0.356,0,0.632,0.074,0.749,0.117c0.021,0.374,0.021,0.728,0.021,1.063
	C48.246,37.449,48.087,37.272,47.755,37.181z M33.837,21.987c0-0.029,0-0.046,0-0.081c0-0.039,0.01-0.074,0.01-0.113
	c0.036,0.01,0.07,0.021,0.109,0.028c1.268,0.296,2.458,0.657,3.558,1.102c-0.159,0.039-0.432,0.155-0.65,0.431
	c-0.159,0.293-0.109,0.502-0.082,0.59c-1.413-0.883-2.398-1.296-2.384-1.29c-0.014-0.007,1.063,0.501,2.564,1.548
	c-0.293-0.082-0.749-0.142-1.35-0.025c-1.088,0.215-1.861,0.816-1.855,0.788c0,0.028,0.806-0.501,1.852-0.696
	c0.642-0.138,1.145-0.081,1.43-0.01c0.237,0.169,0.499,0.364,0.767,0.562c-0.258-0.053-0.548-0.081-0.873-0.081
	c-1.72-0.032-3.137,0.985-3.098,0.933c-0.021,0.028,1.398-0.876,3.056-0.84c0.406,0.006,0.766,0.035,1.073,0.105
	c0.283,0.215,0.569,0.442,0.866,0.689c-0.424-0.082-1.201-0.124-2.162,0.138c-1.576,0.42-2.579,1.423-2.568,1.374
	c0,0.039,1.031-0.883,2.568-1.286c0.981-0.279,1.766-0.236,2.201-0.187c0.491,0.41,0.992,0.866,1.49,1.357
	c-0.419-0.149-1.413-0.392-2.822-0.071c-1.954,0.484-3.172,1.77-3.162,1.703c0,0.067,1.272-1.159,3.158-1.604
	c1.413-0.342,2.434-0.127,2.851,0c0.085,0.088,0.173,0.17,0.254,0.255c-0.452-0.11-1.516-0.272-2.95,0.148
	c-1.869,0.551-3.07,1.703-3.226,1.791c0.156-0.081,1.42-1.18,3.232-1.713c1.427-0.42,2.508-0.293,2.971-0.194
	c0.244,0.254,0.502,0.519,0.735,0.798c-0.448-0.025-1.738,0.028-3.243,0.895c-1.456,0.805-2.456,1.738-2.83,2.102
	c-0.314-0.639-0.607-1.24-0.866-1.886c-0.424-1.441-0.794-2.925-0.766-5.2C33.72,23.424,33.758,22.746,33.837,21.987z
	 M61.355,41.084c0.039,0.018-1.375-1.367-2.865-3.744c0.289-0.089,1.078-0.326,2.236-0.375c1.219-0.088,2.359,0.1,2.635,0.145
	c-1.023,2.293-2.006,3.66-1.995,3.643c-0.011,0.018,1.069-1.289,2.204-3.543c0.123,0.092,0.498,0.367,0.795,0.71
	c0.294,0.335,0.382,0.64,0.41,0.738c-1.707,1.483-3.201,2.239-3.398,2.399c0.1-0.072,0.448-0.259,0.961-0.573
	c1.455-0.876,4.207-2.749,6.153-5.917c0.872-1.395,1.413-3.141,1.532-5.119c0.039-1.011-0.017-2.095-0.203-3.215
	c0.029,0.021,0.057,0.028,0.057,0.028s-0.025-0.018-0.057-0.036c-0.159-0.964-0.413-1.957-0.774-2.981h0.015c0,0,0,0-0.015,0
	c-0.674-1.933-1.703-3.971-3.142-6.034c-0.723-1.053-1.561-2.112-2.504-3.175c-0.049-0.046-0.096-0.106-0.137-0.159
	c-8.632,5.016-9.16,13.113-7.363,18.354c0.68,2.004,1.604,3.734,2.498,5.13c-0.012,0-0.027,0-0.027,0s0.018,0,0.038,0
	c1.018,1.569,1.985,2.692,2.512,3.269C61.2,40.926,61.377,41.095,61.355,41.084z M63.361,37.109
	c-0.285-0.063-1.416-0.32-2.691-0.243c-1.189,0.05-1.929,0.343-2.18,0.466c-0.236-0.374-0.473-0.77-0.702-1.189l0,0
	c-0.283-0.534-0.569-1.104-0.834-1.693c0.293-0.215,1.3-0.932,3.342-1.123c1.929-0.174,3.756,0.103,4.401,0.213
	c-0.243,0.822-0.51,1.6-0.795,2.307c-0.445-0.088-1.791-0.354-3.303-0.336c-1.66,0.014-2.548,0.502-2.764,0.614
	c0.216-0.081,1.18-0.509,2.814-0.526c1.471-0.007,2.806,0.178,3.24,0.258C63.716,36.297,63.539,36.718,63.361,37.109z M65.889,19.56
	c0.795-0.039,1.362,0.142,1.362,0.142c0.672,1.172,1.185,2.335,1.572,3.465C68.48,23.05,67.803,22.881,67.096,23
	c-0.688,0.12-0.98,0.382-1.123,0.53c-0.189-1.324-0.52-2.564-0.873-3.656C65.365,19.765,65.503,19.539,65.889,19.56z M65.072,19.8
	c-0.188-0.583-0.393-1.126-0.59-1.607c0.092-0.085,0.293-0.272,0.705-0.343c0.402-0.066,0.849,0.029,1.043,0.099
	c0.386,0.58,0.728,1.17,1.045,1.753c-0.024,0-0.574-0.212-1.42-0.188C65.566,19.489,65.209,19.659,65.072,19.8z M65.033,33.672
	c0.176,0.071,0.9,0.326,1.57,0.736c0.672,0.402,1.054,0.798,1.16,0.918c-0.305,0.449-0.63,0.872-0.962,1.264
	c-0.141-0.133-0.474-0.408-1.042-0.652c-0.611-0.27-1.184-0.357-1.416-0.396C64.577,34.962,64.814,34.333,65.033,33.672z
	 M64.697,33.524c-0.646-0.128-2.494-0.46-4.482-0.282c-2.081,0.197-3.007,0.961-3.261,1.2c-0.078-0.169-0.155-0.339-0.216-0.516
	c0.154-0.049,1.363-0.806,3.607-1.042c1.956-0.205,3.811,0.216,4.418,0.385C64.736,33.358,64.719,33.439,64.697,33.524z
	 M66.781,34.186c0.601,0.303,1.001,0.617,1.201,0.787c-0.061,0.117-0.137,0.233-0.219,0.34c-0.078-0.125-0.354-0.537-1.043-0.951
	c-0.725-0.441-1.49-0.636-1.688-0.689c0.018-0.06,0.039-0.098,0.057-0.147C65.249,33.584,66.016,33.789,66.781,34.186z
	 M65.09,33.524c0.01-0.05,0.021-0.096,0.039-0.146c0.285,0.071,0.979,0.244,1.674,0.569c0.668,0.278,1.139,0.583,1.357,0.745
	c-0.063,0.089-0.102,0.17-0.156,0.248c-0.158-0.188-0.525-0.513-1.123-0.813C66.075,33.715,65.259,33.566,65.09,33.524z M65.669,36
	c0.562,0.241,0.953,0.496,1.124,0.611c-0.092,0.106-0.171,0.195-0.255,0.305c-0.093-0.145-0.347-0.449-0.858-0.756
	c-0.559-0.347-1.158-0.492-1.363-0.552c0.008-0.018,0.008-0.039,0.018-0.056C64.561,35.608,65.111,35.758,65.669,36z M65.566,36.205
	c0.509,0.297,0.822,0.602,0.961,0.725c-0.254,0.279-0.514,0.548-0.756,0.805c-0.051-0.141-0.205-0.427-0.623-0.74
	c-0.451-0.34-1-0.537-1.18-0.598c0.106-0.244,0.227-0.513,0.336-0.781C64.51,35.686,65.051,35.895,65.566,36.205z M68.182,34.665
	c-0.199-0.169-0.615-0.498-1.279-0.794c-0.76-0.325-1.471-0.463-1.772-0.502c0.22-0.689,0.406-1.396,0.571-2.155
	c0.255,0.081,1.173,0.311,2.023,0.767c0.805,0.424,1.148,0.904,1.262,1.092c-0.197,0.502-0.438,0.985-0.709,1.434
	C68.241,34.56,68.209,34.615,68.182,34.665z M61.119,24.837c2.664,0.396,4.15,1.516,4.663,1.989c0,0.074,0,0.163-0.011,0.241
	c-0.463-0.42-2.117-1.611-4.975-1.855c-2.686-0.335-4.593,0.011-5.199,0.198c0.039-0.275,0.084-0.562,0.157-0.837
	C56.521,24.534,58.564,24.435,61.119,24.837z M55.756,24.563c0.059-0.258,0.121-0.509,0.195-0.767
	c0.71-0.05,2.713-0.156,5.207,0.335c2.635,0.53,4.15,1.661,4.642,2.024c0,0.215-0.011,0.42-0.018,0.636
	c-0.513-0.501-1.95-1.639-4.652-2.042C58.529,24.336,56.502,24.484,55.756,24.563z M60.805,25.297
	c2.815,0.24,4.504,1.388,4.979,1.792c0,0.042,0,0.078-0.012,0.116c-0.643-0.52-2.281-1.512-4.902-1.756
	c-2.706-0.354-4.663-0.028-5.311,0.145c0-0.057,0.019-0.117,0.032-0.173C56.205,25.262,58.173,24.975,60.805,25.297z M65.889,30.183
	c0.264,0.053,1.189,0.187,2.094,0.65c0.687,0.371,1.177,0.756,1.41,0.954c-0.096,0.444-0.233,0.854-0.39,1.251
	c-0.088-0.212-0.353-0.679-1.168-1.109c-0.923-0.495-1.862-0.66-2.135-0.725C65.782,30.871,65.831,30.529,65.889,30.183z
	 M67.835,30.363c0.823,0.233,1.462,0.537,1.741,0.678c-0.053,0.244-0.104,0.483-0.163,0.717c-0.212-0.227-0.644-0.611-1.331-0.986
	c-0.965-0.491-1.918-0.564-2.188-0.6c0-0.061,0.021-0.106,0.021-0.166C66.252,30.038,66.997,30.111,67.835,30.363z M65.916,29.988
	c0.081-0.452,0.139-0.904,0.177-1.377c0.021-0.127,0.021-0.254,0.039-0.371c0.396,0.028,1.119,0.117,1.929,0.35
	c0.807,0.24,1.402,0.544,1.711,0.717c-0.021,0.59-0.101,1.173-0.194,1.717c-0.259-0.163-0.837-0.495-1.706-0.742
	C66.997,30.027,66.252,29.995,65.916,29.988z M65.662,28.543c-0.043,0.452-0.096,0.904-0.159,1.335
	c-0.706-0.251-2.853-0.95-5.388-0.95c-2.564,0.011-4.076,0.675-4.547,0.883c-0.108-0.749-0.17-1.508-0.17-2.282
	c0.595-0.166,2.36-0.607,4.914-0.551c2.576,0.043,4.713,0.817,5.396,1.092C65.689,28.229,65.68,28.374,65.662,28.543z
	 M60.158,29.027c2.486-0.014,4.639,0.629,5.338,0.862c-0.012,0.127-0.028,0.258-0.051,0.375c-0.748-0.215-2.92-0.833-5.446-0.806
	c-2.614,0.028-3.899,0.844-4.304,1.11c-0.049-0.244-0.092-0.502-0.137-0.746C56.061,29.646,57.643,29.034,60.158,29.027z
	 M69.781,29.278c-0.297-0.195-0.855-0.527-1.684-0.764c-0.848-0.247-1.582-0.293-1.967-0.293c0-0.035,0-0.053,0.012-0.081
	c0.313-0.032,0.991-0.078,1.86,0.081c0.806,0.145,1.459,0.389,1.787,0.537C69.791,28.939,69.791,29.105,69.781,29.278z
	 M68.004,28.134c-0.896-0.159-1.559-0.071-1.872-0.011c0.06-0.554,0.078-1.102,0.066-1.646c0.269-0.088,0.88-0.261,1.784-0.124
	c0.83,0.159,1.431,0.48,1.728,0.643c0.062,0.601,0.089,1.172,0.081,1.734C69.473,28.561,68.844,28.285,68.004,28.134z
	 M67.982,26.261c-0.976-0.145-1.537,0.071-1.772,0.188c0-0.194,0-0.392-0.019-0.597c0.283-0.109,0.836-0.279,1.632-0.236
	c0.784,0.067,1.405,0.325,1.753,0.495c0.056,0.279,0.095,0.576,0.123,0.858C69.436,26.774,68.873,26.441,67.982,26.261z
	 M67.803,25.526c-0.854-0.042-1.357,0.155-1.611,0.297c-0.021-0.534-0.06-1.057-0.115-1.565c0.197-0.117,0.597-0.356,1.238-0.463
	c0.705-0.12,1.437,0.049,1.756,0.148c0.22,0.717,0.387,1.423,0.507,2.112C69.24,25.869,68.641,25.594,67.803,25.526z M67.234,23.711
	c-0.646,0.116-1.004,0.349-1.159,0.501c-0.032-0.208-0.062-0.428-0.103-0.632c0.17-0.127,0.532-0.371,1.205-0.495
	c0.646-0.117,1.313,0.021,1.655,0.113c0.081,0.237,0.169,0.477,0.228,0.728C68.729,23.795,68.02,23.587,67.234,23.711z
	 M65.789,26.145c-0.463-0.392-1.914-1.555-4.609-2.102c-2.559-0.501-4.519-0.332-5.229-0.258c0.061-0.197,0.119-0.396,0.177-0.576
	c0.049-0.141,0.093-0.276,0.116-0.417c0.768,0.043,2.734,0.159,5.055,0.692c2.436,0.52,3.96,1.509,4.483,1.883
	C65.782,25.625,65.789,25.879,65.789,26.145z M55.548,25.608c0.657-0.152,2.664-0.417,5.32-0.064
	c2.601,0.226,4.261,1.191,4.914,1.685c-0.021,0.283-0.054,0.547-0.074,0.823c-0.675-0.276-2.78-1.12-5.435-1.173
	c-2.588-0.046-4.303,0.456-4.875,0.643C55.41,26.89,55.46,26.254,55.548,25.608z M60.061,29.557
	c2.457-0.028,4.638,0.508,5.387,0.724c-0.081,0.474-0.178,0.947-0.279,1.396c-0.116,0.563-0.251,1.085-0.393,1.593
	c-0.625-0.197-2.473-0.688-4.5-0.48c-2.301,0.255-3.381,1.082-3.537,1.138c-0.176-0.409-0.342-0.845-0.493-1.292
	c0.157-0.124,1.2-1.127,3.825-1.279c2.355-0.152,4.529,0.223,5.098,0.321c-0.559-0.127-2.748-0.569-5.168-0.421
	c-2.671,0.17-3.617,1.236-3.755,1.379c-0.05-0.131-0.099-0.27-0.136-0.396c-0.157-0.533-0.295-1.092-0.412-1.66
	C56.109,30.341,57.491,29.575,60.061,29.557z M64.51,37.897c-0.303-0.374-0.783-0.618-0.932-0.695
	c0.126-0.255,0.254-0.522,0.381-0.799c0.17,0.081,0.641,0.314,1.066,0.643c0.399,0.294,0.637,0.591,0.725,0.706
	c-0.324,0.326-0.639,0.609-0.943,0.888C64.814,38.516,64.797,38.236,64.51,37.897z M63.271,14.116
	c1.145,1.268,2.123,2.543,2.938,3.805c-0.213-0.088-0.619-0.229-1.099-0.169c-0.465,0.088-0.59,0.293-0.637,0.413
	c-0.76-1.89-1.478-3.038-1.467-3.017c-0.021-0.011,0.707,1.279,1.424,3.353c-0.244-0.286-0.699-0.717-1.482-1.113
	c-1.396-0.721-2.809-0.862-2.791-0.89c-0.018,0.028,1.355,0.261,2.691,0.95c0.854,0.42,1.356,0.886,1.613,1.169
	c0.124,0.343,0.232,0.71,0.352,1.091c-0.256-0.257-0.549-0.523-0.912-0.784c-1.887-1.441-4.373-1.781-4.295-1.781
	c-0.062,0,2.355,0.432,4.164,1.816c0.455,0.329,0.826,0.661,1.103,0.964c0.12,0.413,0.216,0.833,0.335,1.265
	c-0.412-0.41-1.218-1.067-2.546-1.657c-2.131-0.957-4.158-0.964-4.12-1.003c-0.023,0.039,1.989,0.145,4.031,1.067
	c1.355,0.604,2.211,1.271,2.646,1.664c0.164,0.728,0.303,1.505,0.397,2.321c-0.331-0.459-1.194-1.463-3.063-2.356
	c-2.628-1.233-5.16-1.183-5.091-1.233c-0.06,0.06,2.478,0.103,4.999,1.286c1.88,0.886,2.814,1.907,3.165,2.353
	c0.011,0.138,0.032,0.283,0.05,0.431c-0.41-0.491-1.435-1.483-3.416-2.317c-2.578-1.081-4.984-1.147-5.238-1.179
	c0.24,0.042,2.649,0.187,5.156,1.25c1.986,0.833,3.067,1.826,3.498,2.275c0.043,0.417,0.081,0.837,0.092,1.261
	c-0.502-0.392-1.968-1.416-4.447-1.96c-2.346-0.526-4.313-0.597-5.065-0.607c0.224-0.778,0.449-1.512,0.767-2.218
	c0.845-1.534,1.8-3.045,3.938-4.879c0.569-0.477,1.22-0.978,1.965-1.508c0.038-0.032,0.089-0.06,0.142-0.089
	c0.039-0.032,0.066-0.052,0.117-0.081C63.214,14.035,63.242,14.074,63.271,14.116z M50.447,84.434
	c0.59-0.449,1.141-0.908,1.661-1.371c0.17-0.147,0.324-0.297,0.483-0.441c0.117-0.119,0.237-0.229,0.354-0.339
	c1.494-1.448,2.652-2.935,3.498-4.401c0.451-0.773,0.805-1.533,1.102-2.281c0.021-0.02,0.051-0.029,0.051-0.029
	s-0.021,0-0.051,0.021c0.332-0.888,0.547-1.749,0.668-2.572c0.215-1.612,0.061-3.107-0.451-4.375
	c-1.113-2.979-3.148-4.969-4.148-5.849c-0.293-0.269-0.508-0.435-0.571-0.501c0.138,0.166,1.22,1.014,2.377,2.465
	c-0.046,0.078-0.173,0.305-0.459,0.535c-0.282,0.232-0.64,0.389-0.745,0.447c-0.563-1.995-1.229-3.223-1.229-3.204
	c0-0.011,0.568,1.233,1.041,3.247l0,0c0.086,0.35,0.166,0.717,0.234,1.104c-0.361-0.012-1.471-0.062-2.66-0.306
	c-1.407-0.285-2.125-0.83-2.211-0.869c0.046,0.028,0.667,0.629,2.159,0.933c1.223,0.259,2.342,0.259,2.713,0.246
	c0.12,0.621,0.219,1.291,0.286,1.998c-0.541-0.021-2.06-0.078-3.585-0.533c-1.629-0.459-2.332-1.209-2.526-1.424
	c0.307-0.432,0.618-0.849,0.932-1.227l0,0c0.258-0.296,0.509-0.594,0.75-0.857c0.194,0.131,0.744,0.49,1.688,0.717
	c0.986,0.248,1.908,0.24,2.191,0.22c-0.266-0.007-1.178-0.043-2.131-0.286c-0.915-0.219-1.525-0.545-1.742-0.648
	c1.572-1.692,2.939-2.598,2.9-2.588c0.019-0.01-0.135,0.101-0.402,0.301c-0.52,0.377-1.482,1.138-2.564,2.259c0-0.011,0,0,0-0.011
	c-0.943,0.994-1.957,2.237-2.809,3.75c-2.282,3.957-3.119,10.588,3.063,15.976C50.358,84.504,50.408,84.464,50.447,84.434z
	 M53.318,80.367c-0.317-0.047-0.375-0.244-0.594-0.387c0.463-0.832,0.918-1.771,1.278-2.818c0.101,0.139,0.293,0.402,0.827,0.611
	c0.568,0.205,1.141,0.177,1.427,0.138c-0.731,1.266-1.685,2.544-2.899,3.806c-0.188,0.018-0.551,0.039-0.869-0.078
	c-0.331-0.128-0.448-0.308-0.506-0.385c0.233-0.368,0.478-0.771,0.726-1.209c0.088,0.124,0.353,0.314,0.583,0.35
	c0.607,0.131,1.049,0.08,1.146,0.071C54.34,80.475,53.889,80.494,53.318,80.367z M54.545,75.354c0.188,0.151,0.559,0.396,1.257,0.49
	c0.679,0.071,1.21-0.06,1.505-0.166c-0.197,0.545-0.439,1.092-0.727,1.643c-0.275,0.029-0.885,0.039-1.436-0.17
	c-0.513-0.184-0.783-0.42-0.942-0.562C54.329,76.188,54.449,75.785,54.545,75.354z M54.279,75.012
	c-0.452,0.236-1.868,0.904-4.069,0.915c-2.083,0.011-3.695-0.386-4.267-0.544c-0.018-0.223-0.018-0.433-0.039-0.646
	c0.611,0.181,2.223,0.619,4.384,0.699c2.243,0.088,3.589-0.61,4.08-0.939C54.34,74.665,54.309,74.846,54.279,75.012z M50.122,71.898
	c2.056,0.39,3.903,0.162,4.511,0.063c-0.021,0.367-0.06,0.728-0.099,1.116c0,0.127-0.019,0.254-0.028,0.378
	c-0.597,0.108-2.423,0.401-4.529,0.039c-2.067-0.354-3.444-0.99-3.875-1.208c0.12-0.629,0.279-1.236,0.484-1.819
	C46.932,70.709,48.059,71.482,50.122,71.898z M46.586,70.462c0.067-0.198,0.145-0.396,0.226-0.584
	c0.276,0.276,1.202,1.136,3.304,1.565c2.042,0.412,3.889,0.269,4.518,0.197c0,0.105-0.007,0.205-0.007,0.313
	c-0.602,0.077-2.441,0.266-4.444-0.138C48.147,71.426,46.949,70.673,46.586,70.462z M49.927,73.566
	c2.156,0.375,3.982,0.031,4.579-0.1c-0.027,0.227-0.046,0.451-0.066,0.678c-0.611,0.297-2.105,0.816-4.229,0.602
	c-2.218-0.127-3.794-0.66-4.292-0.887c0.025-0.536,0.089-1.049,0.173-1.571C46.515,72.535,47.833,73.206,49.927,73.566z
	 M50.193,74.816c2.155,0.216,3.634-0.338,4.225-0.65c0,0.039,0,0.063-0.008,0.09c-0.432,0.264-1.988,0.921-4.295,0.678
	c-2.184-0.158-3.713-0.699-4.197-0.914c0-0.05,0-0.101,0-0.148C46.416,74.107,47.953,74.689,50.193,74.816z M55.834,75.768
	c-0.648-0.088-1.063-0.313-1.277-0.44c0.037-0.166,0.069-0.325,0.098-0.479c0.178,0.122,0.591,0.393,1.416,0.43
	c0.736-0.012,1.236-0.184,1.496-0.308c-0.078,0.228-0.159,0.455-0.237,0.683C57.012,75.738,56.48,75.845,55.834,75.768z
	 M56.305,68.532c0.621-0.224,0.914-0.519,0.992-0.608c0.049,0.11,0.088,0.21,0.127,0.314c-0.177,0.101-0.568,0.294-1.099,0.443
	c-0.649,0.186-1.3,0.246-1.455,0.264c0.177,0,0.837,0,1.532-0.196c0.529-0.153,0.861-0.365,1.031-0.481
	c0.031,0.071,0.07,0.142,0.092,0.229c-0.219,0.089-0.633,0.262-1.211,0.394c-0.619,0.137-1.213,0.174-1.444,0.184
	c0-0.028-0.009-0.075-0.021-0.129l0,0c0-0.034-0.008-0.077-0.019-0.127c-0.062-0.567-0.155-1.099-0.258-1.61
	c0.196,0.011,0.671,0.022,1.2-0.099c0.502-0.105,0.815-0.275,0.949-0.375c0.202,0.375,0.407,0.771,0.584,1.181
	c-0.119,0.077-0.49,0.343-1.084,0.56c-0.619,0.229-1.234,0.324-1.393,0.346C54.997,68.813,55.654,68.775,56.305,68.532z
	 M56.078,75.195c-0.756-0.028-1.217-0.262-1.413-0.371c0.088-0.445,0.155-0.883,0.205-1.332c0.231,0.082,0.745,0.268,1.505,0.279
	c0.706,0,1.246-0.116,1.532-0.205c-0.077,0.443-0.197,0.912-0.343,1.373C57.307,75.04,56.777,75.209,56.078,75.195z M56.382,73.693
	c-0.728,0-1.258-0.148-1.512-0.227c0-0.021,0-0.039,0-0.057c0.313,0.046,0.925,0.127,1.632,0.063
	c0.706-0.063,1.223-0.24,1.473-0.363c-0.018,0.152-0.039,0.289-0.06,0.435C57.621,73.604,57.053,73.704,56.382,73.693z M56.48,73.4
	c-0.687,0.066-1.274,0.021-1.61-0.016c0.019-0.104,0.03-0.203,0.038-0.307c0.029-0.375,0.061-0.76,0.07-1.135
	c0.266,0.054,0.877,0.135,1.621,0.07c0.729-0.07,1.258-0.246,1.49-0.339c0,0.456-0.038,0.929-0.095,1.416
	C57.699,73.182,57.169,73.341,56.48,73.4z M56.58,71.936c-0.721,0.07-1.325,0.021-1.592-0.008c-0.01-0.043,0-0.1,0-0.143
	c0.218,0.021,1.005,0.1,1.849-0.145c0.629-0.197,1.031-0.438,1.233-0.582c0.021,0.196,0.021,0.396,0.021,0.601
	C57.848,71.729,57.286,71.875,56.58,71.936z M54.988,71.775c0-0.293,0-0.576,0-0.853c0.234-0.011,1.021,0,1.828-0.251
	c0.733-0.223,1.021-0.554,1.119-0.713c0.07,0.346,0.116,0.696,0.135,1.07c-0.223,0.126-0.676,0.353-1.293,0.547
	C55.973,71.809,55.206,71.775,54.988,71.775z M56.745,70.609c-0.752,0.244-1.529,0.285-1.757,0.304
	c-0.01-0.633-0.051-1.239-0.118-1.829c0.243,0.014,0.848,0.021,1.493-0.127c0.591-0.139,0.982-0.333,1.162-0.441
	c0.024,0.045,0.047,0.1,0.058,0.145c0.155,0.396,0.274,0.826,0.353,1.271C57.816,70.064,57.466,70.396,56.745,70.609z
	 M56.717,66.717c-0.154,0.082-0.512,0.227-0.999,0.321c-0.495,0.12-0.954,0.147-1.145,0.163c-0.009-0.024-0.009-0.032-0.009-0.055
	c0.168-0.01,0.68-0.037,1.19-0.226c0.449-0.166,0.704-0.382,0.796-0.479C56.607,66.54,56.661,66.629,56.717,66.717z M54.633,70.45
	c-0.47-0.011-2.285-0.039-4.165-0.529c-2.095-0.53-2.791-1.505-2.893-1.629c0.19-0.339,0.399-0.66,0.593-0.976
	c0.116,0.078,0.862,0.922,2.682,1.48c1.601,0.487,3.176,0.374,3.715,0.317C54.604,69.547,54.633,69.988,54.633,70.45z
	 M47.575,68.296c0.092,0.131,0.692,1.146,2.815,1.692c1.936,0.505,3.773,0.479,4.243,0.462c0.012,0.392,0.021,0.776,0,1.18
	c-0.629,0.047-2.476,0.146-4.458-0.257c-2.077-0.41-3.069-1.254-3.363-1.505c0.177-0.449,0.386-0.87,0.59-1.272
	C47.458,68.486,47.518,68.384,47.575,68.296z M50.094,75.001c2.349,0.247,3.872-0.453,4.316-0.729
	c-0.01,0.071-0.031,0.144-0.031,0.207c-0.513,0.295-1.865,0.963-4.091,0.875c-2.12-0.07-3.763-0.474-4.37-0.625
	c-0.014-0.24-0.014-0.474-0.014-0.699C46.381,74.271,47.871,74.854,50.094,75.001z M46.007,75.896
	c-0.021-0.168-0.033-0.334-0.064-0.504c0.572,0.17,2.134,0.621,4.267,0.606c2.261-0.017,3.628-0.724,4.06-0.979
	c-0.039,0.217-0.088,0.433-0.138,0.641c-0.46,0.212-1.854,0.768-3.9,0.813c-1.964,0.062-3.579-0.145-4.186-0.242
	C46.035,76.124,46.024,76.016,46.007,75.896z M54.191,76.633c0.117,0.145,0.363,0.396,0.865,0.59c0.61,0.215,1.229,0.155,1.522,0.11
	c-0.101,0.187-0.205,0.37-0.313,0.558c-0.272,0.016-0.85,0.016-1.357-0.174c-0.508-0.197-0.764-0.466-0.883-0.59
	C54.082,76.968,54.146,76.799,54.191,76.633z M54.213,65.741c0.127-0.028,0.559-0.159,0.872-0.409
	c0.276-0.227,0.332-0.456,0.332-0.564c0.22,0.277,0.438,0.564,0.632,0.867c-0.088,0.102-0.313,0.288-0.699,0.471
	c-0.381,0.191-0.805,0.309-0.949,0.344C54.34,66.205,54.279,65.968,54.213,65.741z M54.4,66.458c0.164-0.026,0.625-0.088,1.06-0.303
	c0.374-0.188,0.533-0.392,0.61-0.491c0.152,0.236,0.326,0.491,0.47,0.768c-0.119,0.08-0.42,0.269-0.864,0.424
	c-0.48,0.177-0.943,0.254-1.119,0.283C54.506,66.902,54.46,66.678,54.4,66.458z M50.889,68.416c1.571,0.459,3.115,0.484,3.656,0.475
	c0.012,0.076,0.012,0.145,0.021,0.215c-0.522,0.051-2.096,0.1-3.639-0.375c-1.78-0.547-2.643-1.342-2.759-1.412
	c0.088-0.131,0.173-0.258,0.265-0.375C48.599,67.177,49.228,67.941,50.889,68.416z M50.175,84.337
	c-0.021-0.017-0.039-0.049-0.074-0.077c-0.646-0.672-1.17-1.289-1.611-1.857c-1.265-1.66-1.759-2.946-2.169-4.235
	c-0.137-0.629-0.218-1.263-0.275-1.919c0.607,0.109,2.201,0.354,4.186,0.298c2.084-0.049,3.43-0.629,3.9-0.876
	c-0.077,0.346-0.166,0.678-0.266,1.003c-0.431,0.296-1.455,0.933-3.183,1.288c-2.202,0.464-4.168,0.206-4.364,0.206
	c0.212,0.007,2.163,0.331,4.42-0.14c1.73-0.362,2.701-0.998,3.104-1.322c-0.023,0.107-0.056,0.225-0.095,0.331
	c-0.354,0.304-1.265,0.972-2.918,1.396c-2.233,0.571-4.278,0.209-4.246,0.254c-0.053-0.045,1.996,0.393,4.302-0.188
	c1.65-0.432,2.508-1.096,2.84-1.423c-0.203,0.643-0.438,1.239-0.688,1.809c-0.41,0.247-1.197,0.661-2.377,0.937
	c-1.805,0.414-3.448,0.19-3.431,0.227c-0.024-0.035,1.601,0.275,3.479-0.169c1.17-0.269,1.918-0.683,2.312-0.942
	c-0.148,0.342-0.305,0.656-0.453,0.976c-0.281,0.2-0.639,0.412-1.041,0.604c-1.693,0.84-3.707,0.805-3.667,0.818
	c-0.06-0.014,2.006,0.1,3.755-0.766c0.332-0.153,0.617-0.326,0.854-0.492c-0.145,0.294-0.293,0.568-0.431,0.822
	c-0.274,0.188-0.749,0.48-1.505,0.701c-1.18,0.342-2.328,0.323-2.311,0.342c-0.039-0.019,1.141,0.078,2.377-0.282
	c0.699-0.198,1.129-0.464,1.381-0.673c-0.907,1.576-1.695,2.5-1.674,2.488c-0.021,0.012,0.749-0.795,1.653-2.201
	c0.021,0.1,0.1,0.287,0.449,0.432c0.378,0.123,0.73,0.07,0.926,0.042c-0.866,0.888-1.848,1.756-2.968,2.614
	c-0.039,0.018-0.07,0.05-0.099,0.074C50.231,84.395,50.21,84.365,50.175,84.337z M62.805,60.82c-0.015-0.01-0.031-0.021-0.031-0.027
	c0.146,0.105-0.121-0.143-0.217-0.23c-3.639-1.102-8.591-2.975-12.883-7.842c-0.032,0.008-0.049,0.027-0.082,0.049
	C53.453,57.408,59.232,59.746,62.805,60.82z M68.491,51.424c0.014-0.049,0.032-0.119,0.057-0.197
	c-5.069,0.314-10.414-0.146-14.798-1.253c-0.061,0.035-0.139,0.088-0.198,0.133C60.225,51.541,65.23,51.654,68.491,51.424z
	 M48.02,40.611c-0.021,0.112-0.046,0.285-0.046,0.285l0,0c0.823,3.265,1.236,7.758-1.48,13.488c0.039-0.024,0.082-0.043,0.131-0.069
	C49.426,48.807,48.818,43.6,48.02,40.611z M46.695,54.385c1.042-0.544,1.993-1.085,2.896-1.615c0.032-0.021,0.05-0.041,0.082-0.049
	c1.462-0.876,2.738-1.748,3.878-2.615c0.061-0.045,0.139-0.098,0.198-0.133c4.412-3.395,6.563-6.6,7.604-8.889l0,0
	c-0.039-0.027-0.078-0.07-0.115-0.117c-2.141,4.483-6.801,8.698-12.029,11.902c2.434-1.445,3.85-2.505,4.045-2.594
	C52.99,50.393,50.684,52.219,46.695,54.385z M44.876,55.324c-0.053,0.031-0.088,0.053-0.148,0.07
	c4.522,0.53,7.004,4.264,8.217,6.916c0.018-0.006,0.039-0.024,0.057-0.039C50.281,55.952,45.417,55.441,44.876,55.324z
	 M46.695,54.385c3.989-2.166,6.295-3.992,6.561-4.109c-0.195,0.089-1.611,1.148-4.045,2.594c-0.77,0.452-1.635,0.942-2.586,1.444
	c-0.049,0.027-0.092,0.045-0.131,0.07c-6.818,3.585-18.355,8.083-32.743,7.149c-4.406-0.275-8.581-1.05-12.407-2.147
	c-0.029,0.074-0.057,0.146-0.099,0.223c3.857,1.119,8.05,1.918,12.495,2.193c13.258,0.846,24.05-2.943,30.988-6.408
	c0.06-0.018,0.095-0.039,0.148-0.069C45.516,55.01,46.123,54.688,46.695,54.385z"/>
</svg>
