<?xml version="1.0" encoding="utf-8"?>
<!-- Generator: Adobe Illustrator 16.0.0, SVG Export Plug-In . SVG Version: 6.00 Build 0)  -->
<!DOCTYPE svg PUBLIC "-//W3C//DTD SVG 1.1//EN" "http://www.w3.org/Graphics/SVG/1.1/DTD/svg11.dtd">
<svg version="1.1"
	 id="svg548" xmlns:cc="http://creativecommons.org/ns#" xmlns:dc="http://purl.org/dc/elements/1.1/" xmlns:rdf="http://www.w3.org/1999/02/22-rdf-syntax-ns#"
	 xmlns="http://www.w3.org/2000/svg" xmlns:xlink="http://www.w3.org/1999/xlink" x="0px" y="0px" width="143.447px"
	 height="71.281px" viewBox="0 0 143.447 71.281" enable-background="new 0 0 143.447 71.281" xml:space="preserve">
<rect id="rect672" x="0.357" fill="#399408" width="142.879" height="70.643"/>
<path id="path555" fill="#FFFFFF" d="M0.024,0c-0.123,0.012,91.188,35.538,91.188,35.538L0,70.609L0.024,0L0.024,0z"/>
<path id="path671" fill="#FFDE08" d="M0.042,2.972c0.509,0,82.274,32.066,81.811,32.382L0.275,68.18L0.042,2.972L0.042,2.972z"/>
<path id="path556" d="M0.274,0.115c0.271,0,42.816,35.456,42.816,35.456L0.274,70.199V0.115L0.274,0.115z"/>
<path id="path670" fill="#DE2110" d="M0.042,4.99c0.244-2.205,38.396,30.669,38.396,30.669L0.041,66.477L0.042,4.99L0.042,4.99z"/>
</svg>
