<?xml version="1.0" encoding="utf-8"?>
<!-- Generator: Adobe Illustrator 16.0.0, SVG Export Plug-In . SVG Version: 6.00 Build 0)  -->
<!DOCTYPE svg PUBLIC "-//W3C//DTD SVG 1.1//EN" "http://www.w3.org/Graphics/SVG/1.1/DTD/svg11.dtd">
<svg version="1.1" id="Layer_1" xmlns="http://www.w3.org/2000/svg" xmlns:xlink="http://www.w3.org/1999/xlink" x="0px" y="0px"
	 width="100px" height="100px" viewBox="0 0 100 100" enable-background="new 0 0 100 100" xml:space="preserve">
<path fill="#6D6027" d="M40.919,85.773c0,0-0.021-0.11-0.064-0.284c0.249-1.931-0.989-4.198-3.754-5.146
	c-0.264-0.091-0.531-0.147-0.797-0.19c-2.042-0.59-3.887-0.01-4.96,1.136c-0.25,0.146-0.399,0.246-0.399,0.246
	s-4.875,3.708-12.263,3.455c-0.726-0.027-1.413-0.117-2.08-0.24l0.01,0.077c0.645,0.139,1.312,0.26,2.014,0.333
	c4.663,0.477,9.336-0.7,11.577-1.396c-0.335,1.854,0.134,4.19,2.651,5.7c0,0,1.028,0.656,2.524,0.577
	c2.062,0.068,3.558-0.98,4.466-2.209c1.08,2.059,3.564,6.23,7.22,9.211c0.55,0.451,1.104,0.834,1.659,1.189l0.059-0.043
	c-0.556-0.39-1.104-0.811-1.637-1.307C41.742,91.844,40.919,85.773,40.919,85.773z M37.898,86.798
	c-0.245,0.802-1.375,2.296-3.316,2.16c-0.709-0.049-1.289-0.364-1.75-0.765c-1.169-1.258-0.921-2.922-0.552-3.614
	c0.396-0.739,1.649-2.298,3.722-1.457c0.643,0.26,1.156,0.628,1.583,1.03C38.221,85.086,38.068,86.232,37.898,86.798z
	 M45.925,93.564c1.014,2.185,1.982,2.861,2.577,3.063c0.188,0.057,0.383,0.085,0.586,0.063c0.018-0.205-0.014-0.398-0.071-0.59
	C48.814,95.51,48.123,94.552,45.925,93.564z M40.27,94.113c0.986-0.783,3.642,0.518,5.534,2.046c0,0-4.298-4.194-6.554-2.938
	c-2.254,1.25,0.292,3.704,1.368,3.889c0,0,0.211,0.137,0.363-0.027c0.155-0.159-0.301-0.523-0.301-0.523S39.277,94.902,40.27,94.113
	z M56.895,85.504c-2.002-2.66-4.672,1.03-4.715,2.438c0,0-0.138,0.291,0.096,0.461c0.236,0.164,0.621-0.475,0.621-0.475
	s1.858-2.092,3.043-0.97c1.177,1.126-0.008,4.74-1.615,7.424C54.323,94.382,58.895,88.152,56.895,85.504z M46.846,87.923
	c0,0,0.383,0.644,0.618,0.479c0.232-0.17,0.097-0.461,0.097-0.461c-0.042-1.407-2.716-5.09-4.715-2.438
	c-2,2.647,2.576,8.878,2.576,8.878c-1.609-2.684-2.795-6.298-1.618-7.424C44.986,85.836,46.846,87.923,46.846,87.923z
	 M60.492,93.218c-2.256-1.253-6.553,2.944-6.553,2.944c1.89-1.531,4.545-2.832,5.533-2.049c0.988,0.789-0.414,2.445-0.414,2.445
	s-0.453,0.363-0.297,0.522c0.15,0.164,0.364,0.026,0.364,0.026C60.201,96.926,62.743,94.473,60.492,93.218z M49.366,96.408
	c0.104,0.188,0.236,0.355,0.409,0.492c0.171-0.146,0.296-0.322,0.396-0.51c0.284-0.617,0.476-1.886-0.49-4.326
	C48.814,94.541,49.054,95.801,49.366,96.408z M53.441,93.359c-2.142,1.104-2.776,2.102-2.95,2.701
	c-0.045,0.19-0.066,0.39-0.037,0.592c0.205,0.011,0.401-0.031,0.585-0.094C51.623,96.326,52.551,95.596,53.441,93.359z
	 M59.081,14.227c0,0,0.021,0.108,0.063,0.28c-0.25,1.934,0.988,4.204,3.754,5.149c0.271,0.094,0.539,0.15,0.809,0.195
	c2.036,0.583,3.88,0.004,4.947-1.138c0.255-0.146,0.402-0.248,0.402-0.248s4.873-3.708,12.262-3.454
	c0.729,0.026,1.414,0.118,2.078,0.237l-0.008-0.076c-0.645-0.138-1.312-0.259-2.016-0.331c-4.663-0.475-9.336,0.7-11.577,1.395
	c0.334-1.854-0.135-4.188-2.651-5.702c0,0-1.024-0.656-2.521-0.572c-2.063-0.069-3.563,0.978-4.471,2.207
	c-1.077-2.061-3.559-6.233-7.217-9.214c-0.552-0.449-1.104-0.831-1.662-1.189l-0.059,0.046c0.557,0.387,1.104,0.81,1.641,1.306
	C58.258,8.158,59.081,14.227,59.081,14.227z M62.104,13.204c0.242-0.804,1.371-2.296,3.313-2.161
	c0.713,0.049,1.292,0.365,1.751,0.765c1.17,1.257,0.922,2.923,0.551,3.613c-0.397,0.741-1.646,2.299-3.72,1.457
	c-0.643-0.26-1.154-0.627-1.583-1.028C61.777,14.914,61.932,13.768,62.104,13.204z M79.855,14.572
	c-2.42-0.254-5.219-1.209-5.361-2.464c-0.141-1.259,2.018-1.437,2.018-1.437s0.578,0.064,0.586-0.159
	c0.006-0.224-0.24-0.278-0.24-0.278c-0.891-0.629-4.42-0.692-3.713,1.786C73.852,14.501,79.855,14.572,79.855,14.572z M59.732,5.888
	C58.744,6.67,56.087,5.369,54.2,3.841c0,0,4.293,4.193,6.55,2.939c2.253-1.252-0.288-3.704-1.366-3.89c0,0-0.214-0.137-0.364,0.027
	C58.868,3.078,59.32,3.44,59.32,3.44S60.723,5.098,59.732,5.888z M46.558,6.642c2.14-1.104,2.775-2.101,2.949-2.702
	c0.047-0.193,0.066-0.389,0.039-0.591c-0.204-0.011-0.398,0.03-0.587,0.093C48.379,3.675,47.449,4.403,46.558,6.642z M47.722,11.6
	c-0.234-0.165-0.618,0.475-0.618,0.475s-1.859,2.088-3.043,0.968c-1.177-1.124,0.009-4.741,1.616-7.424c0,0-4.574,6.229-2.571,8.881
	c2,2.654,4.67-1.031,4.715-2.438C47.821,12.061,47.957,11.769,47.722,11.6z M83.684,22.077c0.828-2.263,0.627-3.426,0.349-3.986
	c-0.095-0.172-0.214-0.332-0.373-0.461c-0.156,0.132-0.272,0.292-0.368,0.469C83.018,18.658,82.828,19.825,83.684,22.077z
	 M54.577,5.618c1.61,2.683,2.796,6.302,1.62,7.424c-1.184,1.12-3.045-0.966-3.045-0.966s-0.383-0.642-0.617-0.477
	c-0.232,0.167-0.096,0.461-0.096,0.461c0.039,1.407,2.713,5.092,4.715,2.438C59.154,11.848,54.577,5.618,54.577,5.618z M39.507,6.78
	c2.257,1.254,6.552-2.94,6.552-2.94c-1.888,1.529-4.545,2.832-5.533,2.045c-0.99-0.787,0.413-2.443,0.413-2.443
	s0.451-0.362,0.299-0.523c-0.153-0.164-0.365-0.029-0.365-0.029C39.799,3.076,37.256,5.528,39.507,6.78z M50.634,3.593
	c-0.106-0.187-0.237-0.356-0.41-0.497c-0.168,0.146-0.295,0.324-0.393,0.513c-0.288,0.618-0.479,1.886,0.486,4.326
	C51.186,5.461,50.945,4.199,50.634,3.593z M54.072,6.438c-1.012-2.188-1.981-2.864-2.57-3.063c-0.189-0.055-0.389-0.084-0.59-0.063
	c-0.018,0.204,0.014,0.398,0.072,0.59C51.186,4.49,51.877,5.45,54.072,6.438z M78.327,15.562c0,0-7.64,1.171-8.099,4.463
	c-0.463,3.29,4.028,2.57,5.059,1.607c0,0,0.3-0.112,0.257-0.396c-0.052-0.281-0.774-0.103-0.774-0.103s-2.789,0.164-2.834-1.467
	C71.895,18.042,75.29,16.321,78.327,15.562z M79.969,20.479c2.363-1.133,3.086-2.195,3.295-2.846
	c0.059-0.207,0.086-0.419,0.062-0.642c-0.224-0.015-0.438,0.021-0.644,0.086C82.044,17.31,81.014,18.072,79.969,20.479z
	 M85.498,43.106c-2.65,1.998,1.034,4.669,2.443,4.716c0,0,0.291,0.133,0.459-0.1c0.164-0.234-0.476-0.619-0.476-0.619
	s-2.091-1.858-0.968-3.043c1.124-1.176,4.74,0.008,7.425,1.616C94.383,45.677,88.152,41.104,85.498,43.106z M85.498,57.152
	c2.65,2.002,8.885-2.573,8.885-2.573c-2.685,1.606-6.304,2.792-7.425,1.616c-1.123-1.182,0.965-3.043,0.965-3.043
	s0.644-0.383,0.478-0.615c-0.168-0.234-0.459-0.1-0.459-0.1C86.532,52.48,82.85,55.154,85.498,57.152z M81.717,31.128
	c0,0-0.063,0.09-0.152,0.241c-1.543,1.188-2.271,3.67-0.989,6.297c0.126,0.253,0.274,0.483,0.437,0.704
	c1.024,1.855,2.739,2.751,4.307,2.699c0.279,0.075,0.453,0.106,0.453,0.106S91.843,42,96.887,47.404
	c0.495,0.533,0.914,1.081,1.303,1.638l0.047-0.061c-0.357-0.555-0.744-1.108-1.19-1.66c-2.961-3.631-7.095-6.104-9.17-7.196
	c1.546-1.074,2.865-3.057,2.158-5.907c0,0-0.265-1.191-1.382-2.191c-1.407-1.508-3.209-1.826-4.721-1.597
	c0.694-2.22,1.889-6.927,1.411-11.62c-0.069-0.708-0.192-1.37-0.334-2.017l-0.073-0.009c0.119,0.667,0.211,1.354,0.235,2.082
	C85.425,26.253,81.717,31.128,81.717,31.128z M84.576,32.539c0.74-0.395,2.597-0.653,3.869,0.816
	c0.47,0.535,0.656,1.168,0.701,1.775c-0.062,1.718-1.414,2.721-2.168,2.947c-0.805,0.243-2.789,0.46-3.662-1.602
	c-0.26-0.62-0.373-1.228-0.396-1.799C83.111,33.54,84.05,32.82,84.576,32.539z M96.627,51.499c0.053-0.188,0.083-0.386,0.063-0.588
	c-0.205-0.017-0.398,0.014-0.592,0.071c-0.588,0.203-1.546,0.895-2.535,3.088C95.749,53.059,96.43,52.093,96.627,51.499z
	 M94.113,40.527c0.789-0.992,2.443,0.41,2.443,0.41s0.363,0.455,0.522,0.302c0.166-0.153,0.03-0.366,0.03-0.366
	c-0.188-1.074-2.639-3.616-3.892-1.367c-1.256,2.258,2.942,6.553,2.942,6.553C94.631,44.171,93.33,41.515,94.113,40.527z
	 M88.165,27.04c2.478,0.707,2.412-2.824,1.78-3.717c0,0-0.051-0.245-0.274-0.237c-0.224,0.005-0.159,0.583-0.159,0.583
	s-0.178,2.163-1.438,2.02c-1.254-0.144-2.211-2.942-2.465-5.359C85.607,20.329,85.682,26.331,88.165,27.04z M96.059,49.507
	c0.192,0.047,0.393,0.066,0.594,0.039c0.01-0.205-0.03-0.399-0.096-0.585c-0.231-0.582-0.961-1.511-3.199-2.402
	C94.463,48.697,95.461,49.334,96.059,49.507z M71.751,80.514c0.046-1.628,2.835-1.465,2.835-1.465s0.727,0.182,0.773-0.1
	c0.047-0.285-0.256-0.396-0.256-0.396c-1.023-0.965-5.521-1.682-5.063,1.607c0.463,3.291,8.1,4.461,8.1,4.461
	C75.109,83.861,71.714,82.143,71.751,80.514z M78.227,16.907c2.293,0.731,3.447,0.478,3.992,0.176
	c0.172-0.105,0.324-0.228,0.447-0.394c-0.139-0.149-0.305-0.26-0.479-0.344C81.609,16.096,80.439,15.957,78.227,16.907z
	 M82.369,83.266c0.201,0.055,0.416,0.086,0.64,0.058c0.017-0.222-0.021-0.433-0.083-0.638c-0.238-0.64-0.998-1.675-3.404-2.717
	C80.654,82.334,81.717,83.057,82.369,83.266z M81.909,84.031c0.172-0.094,0.331-0.217,0.46-0.372
	c-0.133-0.156-0.291-0.273-0.467-0.367c-0.563-0.271-1.729-0.462-3.979,0.392C80.186,84.514,81.35,84.309,81.909,84.031z
	 M80.514,28.246c-1.625-0.041-1.467-2.833-1.467-2.833s0.182-0.725-0.102-0.773c-0.281-0.046-0.393,0.257-0.393,0.257
	c-0.971,1.024-1.684,5.521,1.607,5.059c3.288-0.458,4.458-8.099,4.458-8.099C83.859,24.89,82.143,28.286,80.514,28.246z
	 M20.33,14.392c0,0,6.003-0.073,6.711-2.556c0.708-2.478-2.825-2.415-3.719-1.782c0,0-0.245,0.052-0.236,0.277
	c0.003,0.22,0.582,0.157,0.582,0.157s2.165,0.179,2.02,1.438C25.545,13.18,22.745,14.137,20.33,14.392z M96.393,49.83
	c-0.619-0.287-1.887-0.479-4.326,0.487c2.474,0.869,3.734,0.628,4.342,0.315c0.188-0.104,0.357-0.236,0.496-0.41
	C96.759,50.054,96.578,49.929,96.393,49.83z M6.642,53.441c-1.105-2.142-2.101-2.775-2.701-2.95
	c-0.192-0.046-0.391-0.065-0.592-0.036c-0.011,0.205,0.031,0.398,0.094,0.583C3.675,51.621,4.404,52.549,6.642,53.441z
	 M16.317,77.925c-0.83,2.263-0.625,3.423-0.348,3.984c0.094,0.17,0.213,0.334,0.372,0.46c0.156-0.129,0.272-0.29,0.366-0.467
	C16.979,81.34,17.172,80.174,16.317,77.925z M79.671,85.607c0,0-6.004,0.072-6.711,2.556c-0.707,2.479,2.826,2.416,3.714,1.785
	c0,0,0.248-0.054,0.242-0.278c-0.007-0.219-0.585-0.156-0.585-0.156s-2.162-0.181-2.021-1.438
	C74.457,86.822,77.256,85.864,79.671,85.607z M20.146,85.428c2.417,0.252,5.215,1.211,5.357,2.465
	c0.146,1.26-2.018,1.438-2.018,1.438s-0.578-0.065-0.583,0.159c-0.007,0.222,0.24,0.273,0.24,0.273
	c0.891,0.633,4.423,0.694,3.717-1.783C26.149,85.499,20.146,85.428,20.146,85.428z M19.486,71.754
	c1.626,0.041,1.469,2.834,1.469,2.834s-0.184,0.727,0.101,0.771c0.282,0.047,0.393-0.256,0.393-0.256
	c0.965-1.022,1.68-5.521-1.61-5.06c-3.289,0.458-4.459,8.103-4.459,8.103C16.142,75.111,17.858,71.716,19.486,71.754z
	 M18.282,68.871c0,0,0.063-0.09,0.154-0.242c1.543-1.189,2.273-3.671,0.986-6.295c-0.124-0.254-0.273-0.482-0.43-0.702
	c-1.027-1.856-2.741-2.754-4.307-2.702c-0.282-0.072-0.458-0.106-0.458-0.106S8.16,57.997,3.114,52.594
	c-0.494-0.533-0.914-1.08-1.303-1.639l-0.045,0.063c0.357,0.553,0.743,1.107,1.191,1.66c2.959,3.631,7.097,6.104,9.171,7.196
	c-1.547,1.075-2.87,3.058-2.158,5.908c0,0,0.264,1.192,1.382,2.192c1.41,1.504,3.206,1.823,4.716,1.594
	c-0.692,2.221-1.887,6.925-1.409,11.623c0.071,0.703,0.193,1.367,0.333,2.017l0.075,0.008c-0.12-0.668-0.212-1.354-0.237-2.081
	C14.577,73.747,18.282,68.871,18.282,68.871z M15.423,67.458c-0.738,0.396-2.596,0.657-3.872-0.812
	c-0.467-0.539-0.655-1.172-0.696-1.774c0.059-1.72,1.413-2.724,2.163-2.951c0.807-0.243,2.792-0.462,3.664,1.601
	c0.263,0.621,0.374,1.229,0.398,1.804C16.886,66.458,15.949,67.178,15.423,67.458z M5.887,59.473
	c-0.788,0.989-2.444-0.412-2.444-0.412S3.08,58.609,2.919,58.76c-0.164,0.153-0.028,0.364-0.028,0.364
	c0.185,1.078,2.639,3.619,3.892,1.365c1.25-2.253-2.944-6.55-2.944-6.55C5.37,55.829,6.671,58.484,5.887,59.473z M14.499,56.893
	c2.654-1.998-1.033-4.668-2.439-4.716c0,0-0.292-0.133-0.46,0.103c-0.166,0.231,0.474,0.617,0.474,0.617s2.09,1.856,0.967,3.043
	c-1.123,1.176-4.739-0.008-7.421-1.617C5.62,54.32,11.848,58.895,14.499,56.893z M11.837,72.959
	c-2.479-0.709-2.414,2.825-1.784,3.715c0,0,0.054,0.25,0.278,0.24c0.22-0.004,0.158-0.58,0.158-0.58s0.179-2.166,1.439-2.021
	c1.252,0.144,2.208,2.94,2.465,5.356C14.393,79.67,14.318,73.671,11.837,72.959z M96.557,59.318c0,0-1.656,1.404-2.443,0.412
	c-0.782-0.987,0.519-3.645,2.047-5.533c0,0-4.195,4.298-2.939,6.553c1.252,2.253,3.704-0.288,3.889-1.367
	c0,0,0.139-0.211-0.027-0.363C96.921,58.865,96.557,59.318,96.557,59.318z M96.882,52.855c-5.04,5.399-11.11,6.228-11.11,6.228
	s-0.104,0.021-0.278,0.062c-1.931-0.25-4.204,0.988-5.15,3.756c-0.092,0.268-0.146,0.535-0.192,0.802
	c-0.584,2.039-0.006,3.883,1.137,4.956c0.146,0.249,0.248,0.398,0.248,0.398s3.707,4.875,3.453,12.264
	c-0.024,0.729-0.116,1.414-0.235,2.08l0.073-0.012c0.141-0.646,0.261-1.31,0.334-2.014c0.479-4.663-0.698-9.337-1.396-11.576
	c1.854,0.334,4.191-0.135,5.704-2.652c0,0,0.655-1.027,0.572-2.524c0.069-2.062-0.978-3.558-2.207-4.465
	c2.062-1.08,6.229-3.563,9.213-7.222c0.45-0.552,0.833-1.104,1.19-1.662l-0.047-0.058C97.8,51.771,97.381,52.32,96.882,52.855z
	 M88.958,65.417c-0.05,0.708-0.364,1.288-0.767,1.75c-1.256,1.17-2.92,0.924-3.612,0.552c-0.741-0.398-2.3-1.648-1.457-3.722
	c0.26-0.644,0.631-1.156,1.028-1.583c0.938-0.633,2.082-0.479,2.646-0.311C87.6,62.344,89.093,63.477,88.958,65.417z M87.979,73.143
	c-2.479,0.709-2.551,6.713-2.551,6.713c0.252-2.418,1.209-5.215,2.465-5.36c1.258-0.144,1.437,2.021,1.437,2.021
	s-0.063,0.576,0.159,0.584c0.223,0.006,0.275-0.235,0.275-0.235C90.395,75.97,90.458,72.434,87.979,73.143z M79.979,70.229
	c-3.291-0.465-2.572,4.033-1.61,5.061c0,0,0.11,0.302,0.396,0.258c0.281-0.052,0.104-0.773,0.104-0.773s-0.165-2.793,1.467-2.838
	c1.625-0.037,3.346,3.357,4.105,6.394C84.438,78.327,83.266,70.688,79.979,70.229z M82.917,82.223
	c0.104,0.17,0.229,0.322,0.392,0.444c0.153-0.14,0.262-0.306,0.346-0.479c0.248-0.576,0.391-1.75-0.559-3.961
	C82.359,80.521,82.617,81.674,82.917,82.223z M68.872,81.718c0,0-0.093-0.061-0.244-0.155c-1.187-1.541-3.668-2.271-6.295-0.985
	c-0.252,0.126-0.483,0.274-0.705,0.435c-1.853,1.024-2.749,2.739-2.696,4.303c-0.076,0.285-0.111,0.461-0.111,0.461
	s-0.822,6.069-6.223,11.11c-0.537,0.496-1.086,0.917-1.641,1.306l0.061,0.045c0.553-0.356,1.11-0.742,1.658-1.19
	c3.635-2.958,6.105-7.093,7.198-9.169c1.074,1.545,3.06,2.868,5.909,2.156c0,0,1.188-0.264,2.189-1.378
	c1.506-1.41,1.823-3.21,1.598-4.724c2.217,0.694,6.923,1.889,11.619,1.413c0.707-0.071,1.369-0.194,2.015-0.337l0.01-0.072
	c-0.668,0.121-1.351,0.211-2.082,0.235C73.747,85.423,68.872,81.718,68.872,81.718z M66.646,88.448
	c-0.539,0.468-1.174,0.655-1.778,0.698c-1.718-0.062-2.72-1.414-2.946-2.168c-0.244-0.802-0.462-2.789,1.602-3.66
	c0.619-0.262,1.229-0.375,1.802-0.398c1.136,0.194,1.853,1.133,2.137,1.656C67.855,85.314,68.116,87.173,66.646,88.448z
	 M12.077,46.845c0,0-0.643,0.385-0.477,0.619c0.168,0.232,0.46,0.098,0.46,0.098c1.408-0.041,5.093-2.716,2.439-4.715
	C11.848,40.846,5.62,45.42,5.62,45.42c2.682-1.607,6.298-2.794,7.421-1.615C14.164,44.985,12.077,46.845,12.077,46.845z
	 M18.091,15.971c-0.17,0.092-0.332,0.213-0.46,0.37c0.132,0.158,0.292,0.274,0.467,0.367c0.56,0.272,1.729,0.466,3.979-0.392
	C19.813,15.486,18.65,15.691,18.091,15.971z M17.632,16.737c-0.205-0.059-0.42-0.086-0.641-0.062
	c-0.015,0.224,0.022,0.438,0.085,0.642c0.234,0.639,0.997,1.67,3.402,2.713C19.346,17.667,18.283,16.945,17.632,16.737z
	 M29.955,19.839c-0.458-3.288-8.098-4.458-8.098-4.458c3.036,0.758,6.432,2.479,6.394,4.104c-0.045,1.629-2.837,1.468-2.837,1.468
	s-0.724-0.182-0.772,0.102c-0.048,0.284,0.255,0.394,0.255,0.394C25.92,22.414,30.416,23.129,29.955,19.839z M17.082,17.78
	c-0.103-0.17-0.227-0.323-0.39-0.446c-0.153,0.137-0.261,0.304-0.348,0.481c-0.247,0.575-0.389,1.746,0.563,3.96
	C17.64,19.48,17.386,18.326,17.082,17.78z M21.776,83.095c-2.296-0.733-3.449-0.479-3.998-0.178
	c-0.17,0.104-0.321,0.229-0.444,0.392c0.139,0.153,0.304,0.266,0.479,0.349C18.39,83.902,19.562,84.045,21.776,83.095z
	 M20.031,79.521c-2.364,1.135-3.086,2.192-3.293,2.848c-0.057,0.203-0.087,0.419-0.061,0.642c0.223,0.015,0.438-0.024,0.639-0.088
	C17.957,82.689,18.988,81.928,20.031,79.521z M29.77,79.979c0.465-3.291-4.031-2.571-5.058-1.609c0,0-0.298,0.109-0.254,0.395
	c0.049,0.281,0.773,0.102,0.773,0.102s2.79-0.162,2.834,1.47c0.038,1.625-3.357,3.347-6.392,4.104
	C21.674,84.438,29.313,83.268,29.77,79.979z M3.443,40.681c0,0,1.656-1.404,2.445-0.412c0.783,0.987-0.519,3.644-2.046,5.534
	c0,0,4.19-4.297,2.938-6.554c-1.25-2.252-3.705,0.289-3.887,1.367c0,0-0.138,0.211,0.026,0.364
	C3.078,41.134,3.443,40.681,3.443,40.681z M3.116,47.146c5.043-5.402,11.11-6.228,11.11-6.228s0.108-0.021,0.281-0.063
	c1.932,0.251,4.201-0.987,5.148-3.754c0.093-0.268,0.149-0.535,0.194-0.803c0.583-2.04,0.007-3.885-1.138-4.954
	c-0.145-0.253-0.247-0.401-0.247-0.401s-3.708-4.873-3.455-12.261c0.028-0.726,0.118-1.413,0.238-2.079l-0.075,0.01
	c-0.138,0.644-0.26,1.309-0.333,2.014c-0.475,4.663,0.701,9.336,1.396,11.575c-1.852-0.333-4.187,0.135-5.703,2.651
	c0,0-0.657,1.03-0.572,2.529c-0.068,2.06,0.978,3.555,2.208,4.463c-2.061,1.079-6.232,3.563-9.213,7.22
	c-0.45,0.551-0.833,1.104-1.191,1.66l0.045,0.059C2.2,48.228,2.62,47.68,3.116,47.146z M11.043,34.583
	c0.05-0.711,0.364-1.291,0.764-1.75c1.257-1.171,2.923-0.922,3.614-0.551c0.742,0.396,2.299,1.646,1.459,3.72
	c-0.261,0.645-0.631,1.157-1.032,1.584c-0.934,0.634-2.08,0.481-2.642,0.312C12.4,37.653,10.907,36.524,11.043,34.583z
	 M31.128,18.283c0,0,0.09,0.062,0.244,0.155c1.188,1.541,3.669,2.27,6.294,0.984c0.253-0.124,0.483-0.271,0.701-0.429
	c1.858-1.029,2.753-2.743,2.701-4.31c0.077-0.282,0.109-0.458,0.109-0.458s0.825-6.068,6.227-11.112
	c0.535-0.495,1.084-0.916,1.639-1.303l-0.061-0.046c-0.554,0.358-1.109,0.742-1.659,1.189c-3.634,2.961-6.106,7.097-7.199,9.173
	c-1.073-1.548-3.056-2.869-5.906-2.158c0,0-1.191,0.263-2.191,1.379c-1.507,1.408-1.825,3.207-1.595,4.72
	c-2.222-0.693-6.929-1.889-11.623-1.41c-0.707,0.072-1.37,0.193-2.016,0.334l-0.008,0.075c0.667-0.121,1.354-0.212,2.083-0.237
	C26.254,14.576,31.128,18.283,31.128,18.283z M33.354,11.553c0.538-0.469,1.173-0.655,1.78-0.698
	c1.715,0.061,2.716,1.414,2.943,2.166c0.245,0.805,0.462,2.791-1.6,3.662c-0.62,0.262-1.228,0.375-1.8,0.399
	c-1.136-0.194-1.854-1.133-2.136-1.658C32.145,14.683,31.887,12.827,33.354,11.553z M20.023,29.771
	c3.29,0.464,2.571-4.031,1.609-5.059c0,0-0.111-0.301-0.396-0.255c-0.281,0.049-0.101,0.772-0.101,0.772s0.162,2.791-1.469,2.835
	c-1.625,0.037-3.345-3.356-4.106-6.391C15.561,21.675,16.733,29.313,20.023,29.771z M3.373,48.5
	c-0.052,0.188-0.083,0.386-0.061,0.588c0.204,0.019,0.398-0.014,0.588-0.07c0.59-0.204,1.551-0.895,2.537-3.091
	C4.251,46.94,3.575,47.906,3.373,48.5z M3.609,50.169c0.619,0.287,1.885,0.479,4.326-0.487c-2.474-0.868-3.736-0.629-4.343-0.315
	c-0.185,0.104-0.358,0.236-0.497,0.412C3.243,49.945,3.421,50.07,3.609,50.169z M12.022,26.858c2.48-0.709,2.552-6.712,2.552-6.712
	c-0.253,2.416-1.211,5.216-2.467,5.358s-1.436-2.018-1.436-2.018s0.066-0.579-0.158-0.585c-0.224-0.006-0.278,0.237-0.278,0.237
	C9.605,24.032,9.542,27.565,12.022,26.858z"/>
</svg>
