<?xml version="1.0" encoding="utf-8"?>
<!-- Generator: Adobe Illustrator 16.0.0, SVG Export Plug-In . SVG Version: 6.00 Build 0)  -->
<!DOCTYPE svg PUBLIC "-//W3C//DTD SVG 1.1//EN" "http://www.w3.org/Graphics/SVG/1.1/DTD/svg11.dtd">
<svg version="1.1" id="Layer_1" xmlns="http://www.w3.org/2000/svg" xmlns:xlink="http://www.w3.org/1999/xlink" x="0px" y="0px"
	 width="100px" height="100px" viewBox="0 0 100 100" enable-background="new 0 0 100 100" xml:space="preserve">
<path fill="#E30782" d="M74.034,63.838c1.67,7.941,2.373,16.098,2.058,24.289L56.77,99.285c3.154-16.65,0.94-33.75-6-48.875
	L74.034,63.838z M74.034,36.162c1.67-7.942,2.373-16.101,2.058-24.289L56.77,0.714c3.154,16.649,0.94,33.753-6,48.878L74.034,36.162
	z M25.966,36.162C18.249,38.683,10.83,42.155,3.9,46.521L3.897,68.84C16.74,57.777,32.66,51.148,49.223,49.592L25.966,36.162z"/>
<path fill="#0769B3" d="M49.998,22.212c6.041-5.422,12.757-10.115,20.006-13.934L89.332,19.44
	c-15.999,5.589-29.705,16.063-39.334,29.629V22.212z M49.998,77.789c6.041,5.422,12.757,10.113,20.006,13.932l19.328-11.16
	C73.333,74.971,59.627,64.5,49.998,50.932V77.789z"/>
<path fill="#E75C25" d="M25.966,63.838C18.249,61.316,10.83,57.85,3.899,53.48L3.897,31.162
	C16.74,42.223,32.66,48.852,49.223,50.411L25.966,63.838z M49.998,22.212C43.955,16.79,37.242,12.097,29.996,8.278L10.667,19.44
	c15.996,5.589,29.704,16.063,39.331,29.629V22.212z M49.998,77.789c-6.043,5.422-12.756,10.113-20.002,13.932l-19.329-11.16
	c15.996-5.59,29.704-16.061,39.331-29.627V77.789z M74.034,36.162c7.714,2.521,15.132,5.993,22.063,10.359l0.006,22.319
	C83.256,57.777,67.34,51.148,50.77,49.592L74.034,36.162z"/>
<path fill="#05AB88" d="M25.966,63.838c-1.677,7.941-2.38,16.098-2.061,24.289l19.321,11.158c-3.15-16.65-0.938-33.75,5.996-48.875
	L25.966,63.838z M25.966,36.162c-1.677-7.942-2.38-16.101-2.061-24.289L43.227,0.714c-3.15,16.649-0.938,33.753,5.996,48.878
	L25.966,36.162z"/>
<path fill="#7B9D3E" d="M74.034,63.838c7.714-2.521,15.132-5.988,22.063-10.357l0.006-22.317
	C83.256,42.223,67.34,48.852,50.77,50.411L74.034,63.838z M54.091,50.001c0,2.257-1.829,4.093-4.09,4.093s-4.095-1.836-4.095-4.093
	c0-2.261,1.834-4.093,4.095-4.093S54.091,47.74,54.091,50.001z"/>
</svg>
