<?xml version="1.0" encoding="utf-8"?>
<!-- Generator: Adobe Illustrator 15.1.0, SVG Export Plug-In . SVG Version: 6.00 Build 0)  -->
<!DOCTYPE svg PUBLIC "-//W3C//DTD SVG 1.1//EN" "http://www.w3.org/Graphics/SVG/1.1/DTD/svg11.dtd">
<svg version="1.1" id="Layer_1" xmlns="http://www.w3.org/2000/svg" xmlns:xlink="http://www.w3.org/1999/xlink" x="0px" y="0px"
	 width="100px" height="100px" viewBox="0 0 100 100" enable-background="new 0 0 100 100" xml:space="preserve">
<g>
	<path d="M51.041,13.637c-0.029-0.029-0.059-0.058-0.088-0.087C51.016,13.635,50.957,13.577,51.041,13.637z"/>
	<path d="M97.22,45.768c0,0.073,0,0.147,0,0.222c-0.192-0.323-0.333-0.354-0.664-0.532c-0.076,0.091-0.149,0.178-0.224,0.267
		c-0.014,0-0.029,0-0.044,0c0.044-0.074,0.09-0.149,0.133-0.223c-0.201,0.014-0.416-0.164-0.709-0.22
		c-0.395-0.077-4.032,0.309-4.032,0.309c-0.207-0.077-0.1,0.012-0.132-0.178c-0.569-0.052-1.902-0.422-2.395,0
		c0.045,0,0.089,0,0.135,0c-0.144,0.11-0.348,0.085-0.58,0.089c0.008,0.114-0.002,0.054,0.046,0.18
		c-0.251,0.077-1.024,0.273-0.84,0.931c-1.695-0.236-3.472-0.017-5.408-0.356c-0.814-0.145-1.728-0.341-2.526-0.223
		c-1.109,0.167-2.334-0.54-3.057-0.265c-0.492,0.188-0.964,0.238-1.419,0.488c-0.502,0.339-1.005,0.679-1.507,1.019
		c-0.354,0.072-0.709,0.146-1.062,0.221c-0.344,0.112-0.571,0.346-0.843,0.488c-0.085-0.13-0.041-0.043-0.046-0.224
		c-0.402,0.128-1.447,0.346-2.215,0.534c-0.862,0.207-2.137-0.304-2.881-0.445c-0.754-0.058-1.507-0.118-2.26-0.176
		c-1.819-0.416-4.697-0.575-6.516-0.267c-0.003-0.244-0.925-0.528-1.329-0.53c0.06-0.079,0.102-0.081,0.178-0.132
		c-0.549-0.108-0.723-0.439-1.109-0.667c-1.084-0.64-2.465-1.072-3.856-1.242c-0.955-0.114-2.561,0.087-2.834,0.665
		c-0.284-0.118-0.155-0.095-0.62-0.089c-0.015-0.174-0.03-0.352-0.046-0.53c-0.042-0.031-0.086-0.058-0.13-0.089
		c0.015,0.089,0.028,0.176,0.044,0.267c-0.104,0-0.208,0-0.31,0c-0.088-1.343-1.225-2.37-1.464-3.723
		c0.191-0.962,0.384-1.923,0.574-2.881c0.212-1.163-0.135-2.233-0.175-3.236c0.836-1.09,2.189-1.767,3.191-2.705
		c0.972-0.906,1.61-2.001,2.438-3.057c0.914-1.167,2.141-2.274,2.792-3.679c0.621-1.334-0.516-4.964-0.931-5.894
		c-0.636-1.256-1.271-2.51-1.906-3.766c-0.331-0.774-0.435-1.755-1.109-2.171c-0.959-0.598-3.019-1.395-4.873-1.641
		c0.061-0.083,0.005-0.024,0.09-0.089c-0.174-0.19-2.214-1.179-2.527-1.285c-0.226,0.197-0.165,0.307-0.089,0.621
		c-0.207-0.043-0.414-0.089-0.62-0.132c-0.151-0.033-0.165,0.004-0.265,0.132c0.322,2.367,3.698,1.173,4.032,2.613
		c-0.625-0.095-0.884-0.405-1.64-0.399c-0.059,0.166-0.118,0.325-0.177,0.489c0.438,0.799,1.202,0.637,2.127,0.977
		c0.451,0.166,0.686,0.633,1.287,0.753c0.665,0.132,1.045-0.174,1.461-0.265c1.21,1.006,0.476,3.222,0.886,5.006
		c0.093,0.387,0.67,4.242,0.665,4.254c-0.415,1.263-1.924,1.302-2.879,1.95c-0.576,0.457-1.152,0.917-1.729,1.374
		c-0.179,0.25-0.353,0.503-0.53,0.753c-0.338,0.242-0.791,0.16-1.154,0.267c-0.756,0.224-1.586,0.708-2.171,1.153
		c-0.706,0.534-1.028,1.479-1.728,1.995c0,0.029,0,0.058,0,0.087c-1.827-1.525,0.369-3.29,0.708-4.652
		c0.825-3.315-1.743-5.465-4.432-5.01c0.03-0.043,0.06-0.089,0.089-0.133c-1.873,0.081-3.696,0.938-4.387,2.749
		c0,0.37,0,0.739,0,1.109c-0.182,0.354-2.474,1.678-0.887,2.171c0.133,0.348-0.222,0.53-0.289,0.819c0,0-0.147,0.259,0.308,0.486
		c-0.235,0.209-0.108,0.555-0.108,0.555c0.148,0.089,0.295,0.043,0.42,0.199c0.126,0.157,0.016,0.412-0.007,0.592
		c-0.027,0.213,0.163,0.656,0.659,0.796c0.599,0.176,1.082-0.242,1.655-0.109c0.241,0.095,0.281,0.426,0.449,0.867
		c0.085,0.225,0.338,0.49,0.382,0.745c0.08,0.435,0.004,0.909,0.054,1.21c0.085,0.507,0.382,0.938,0.244,1.418
		c-0.182,0.612-1.141,1.492-1.731,1.682c-0.155-0.393-2.3-0.832-2.392-0.751c-0.563,0.01-1.048,0.401-1.507,0.354
		c0.016,0.06,0.029,0.118,0.045,0.176c-0.276-0.104-1.59-0.29-1.772,0.267c-1.138-0.368-2.274-0.739-3.413-1.109
		c-0.592-0.133-1.182-0.265-1.772-0.397c-0.163,0.06-0.325,0.118-0.487,0.176c-0.563-0.068-1.601-0.571-2.218-0.794
		c-0.662-0.242-2.234-0.518-2.215-0.623c-0.177,0.029-0.354,0.062-0.531,0.089c-1.417-0.258-2.797,0.307-4.122-0.308
		c-0.029,0-0.058,0-0.089,0c0.044-0.118-0.022-0.037,0.089-0.089c-0.298-0.422-1.888-0.429-2.082-0.311c0-0.06,0-0.118,0-0.178
		c-0.77,0.203-1.63-0.344-2.483-0.311c0.03-0.043,0.059-0.089,0.088-0.132c-1.417,0.01-3.623,0.084-4.785,0.488
		c-0.856,0.294-2.86,1.008-3.724,0.84c-0.114,0.139-0.136,0.147-0.089,0.354c0.139,0.292,0.51,0.401,0.93,0.399
		c0,0.015,0,0.029,0,0.045c-0.202,0.207-0.594,0.331-0.975,0.354c-0.088,0.139-0.12,0.151-0.132,0.397
		c0.937,0.612,2.68-0.277,3.633-0.53c0.03,0.027,0.059,0.06,0.089,0.087c-0.313,0.231-0.549,0.329-0.798,0.621
		c0.018,0.302,0.091,0.396,0.311,0.488c0.845,0.323,1.647-0.691,2.215-0.888c1.358,0.513,2.797-0.811,3.898-0.486
		c1.657,0.797,3.311,1.596,4.964,2.392c1.117,0.439,2.54,0.601,3.813,0.845c0.415-0.015,0.828-0.031,1.241-0.048
		c0.5,0.143,1.335,0.199,1.952,0.404c2.009,0.66,3.649,1.839,5.76,2.566c1.004,0.178,2.009,0.356,3.013,0.534
		c1.005,0.043,2.009,0.087,3.014,0.132c0.624,0.25,0.224,0.648,0.443,1.021c0.103,0.029,0.207,0.058,0.31,0.089
		c0.162,0.426,0.325,0.854,0.489,1.283c0.465,1.31,0.983,2.841,1.683,3.992c1.266,2.073,3.673,2.926,6.116,3.853
		c0.281,0.108,0.376,0.321,0.575,0.486c0.522,0.439,1.145,0.65,1.816,0.886c-0.054,0.627-0.381,0.346-0.664,0.667
		c-0.108,0.124-0.111,0.623-0.222,0.755c-0.044,0.054-0.753,0.53-0.753,0.53c-0.55,0.724-1.01,1.611-1.506,2.349
		c-0.692,1.026-1.165,2.229-1.642,3.458c-0.101,0.428-0.206,0.856-0.307,1.284c-0.757,1.894-1.898,3.607-2.705,5.449
		c-0.614,1.405,1.631,3.667,2.172,4.478c1.218,1.823,2.308,3.622,3.766,5.185c1.497,1.605,4.07,3.596,4.652,5.984
		c0.572,2.328-4.276,1.986-4.696,3.188c-0.117,0.34,0.152,0.518,0.222,0.71c1.62-0.004,3.306-0.226,4.919,0.046
		c1.285,0.087,2.568,0.176,3.855,0.265c0.369-0.248,0.739-0.503,1.108-0.754c1.042-1.2-1.396-3.683-1.908-4.476
		c-1.314-2.049-2.609-4.627-3.5-7.003c-0.912-2.441-1.453-4.248-3.279-5.715c-0.443-0.358-0.92-0.961-1.506-1.153
		c1.623-2.565,3.974-3.194,6.16-5.14c1.124-1,1.652-2.602,2.483-3.901c1.149-1.796,2.319-3.466,3.277-5.539
		c2.093,0.145,4.158,0.15,5.852-0.354c0.871-0.267,1.743-0.531,2.612-0.799c0.859,0.029,1.716,0.061,2.572,0.09
		c1.351-0.257,2.652-0.845,3.589-1.375c0.724-0.072,1.448-0.148,2.173-0.219c0.915-0.373,1.831-0.743,2.747-1.109
		c1.518-0.464,3.313-0.507,4.875-0.842c1.94-0.414,3.834-1.01,5.85-1.461c1.406-0.316,2.441,0.257,3.412,0.443
		c0.931-0.06,1.862-0.12,2.792-0.176c0.664-0.089,1.329-0.18,1.994-0.267c0.76-0.157,1.289,0.209,2.038,0.042
		c0.252-0.145,0.502-0.294,0.755-0.443c0.294-0.029,0.589-0.058,0.887-0.089c0.31-0.354,0.62-0.708,0.93-1.064
		C98.697,46.43,98.238,46.259,97.22,45.768z"/>
</g>
</svg>
