<?xml version="1.0" encoding="utf-8"?>
<!-- Generator: Adobe Illustrator 16.0.0, SVG Export Plug-In . SVG Version: 6.00 Build 0)  -->
<!DOCTYPE svg PUBLIC "-//W3C//DTD SVG 1.1//EN" "http://www.w3.org/Graphics/SVG/1.1/DTD/svg11.dtd">
<svg version="1.1"
	 id="svg2" xmlns:cc="http://creativecommons.org/ns#" xmlns:dc="http://purl.org/dc/elements/1.1/" xmlns:rdf="http://www.w3.org/1999/02/22-rdf-syntax-ns#"
	 xmlns="http://www.w3.org/2000/svg" xmlns:xlink="http://www.w3.org/1999/xlink" x="0px" y="0px" width="143.447px"
	 height="71.281px" viewBox="0 0 143.447 71.281" enable-background="new 0 0 143.447 71.281" xml:space="preserve">
<rect id="rect3009" x="0" fill="#FFFFFF" width="142.922" height="71.376"/>
<path fill="#FF0000" d="M65.78,5.719v23.188H28.099v11.594H65.78v23.188h11.594V40.501h37.68V28.907h-37.68V5.719H65.78L65.78,5.719
	z M98.357,46.611c-0.651,0.082-1.313,0.137-1.985,0.137s-1.332-0.055-1.982-0.137c0.347,1.83,0.534,3.713,0.534,5.643
	c0,1.932-0.188,3.816-0.534,5.646c0.649-0.082,1.311-0.137,1.982-0.137c0.674,0,1.334,0.055,1.985,0.137
	c-0.348-1.83-0.535-3.715-0.535-5.646C97.822,50.324,98.01,48.441,98.357,46.611z M96.372,11.646c-0.673,0-1.332-0.056-1.982-0.137
	c0.347,1.83,0.534,3.715,0.534,5.645c0,1.93-0.188,3.815-0.534,5.645c0.65-0.081,1.311-0.137,1.982-0.137
	c0.674,0,1.334,0.056,1.985,0.137c-0.348-1.829-0.535-3.715-0.535-5.645c0-1.93,0.188-3.815,0.535-5.645
	C97.706,11.59,97.046,11.646,96.372,11.646z M50.547,46.611c-0.65,0.082-1.312,0.137-1.984,0.137s-1.332-0.055-1.983-0.137
	c0.347,1.83,0.535,3.713,0.535,5.643c0,1.932-0.188,3.816-0.535,5.646c0.65-0.082,1.312-0.137,1.983-0.137
	c0.674,0,1.334,0.055,1.984,0.137c-0.347-1.83-0.534-3.715-0.534-5.646C50.011,50.324,50.2,48.441,50.547,46.611z M48.561,11.646
	c-0.673,0-1.332-0.056-1.983-0.137c0.347,1.83,0.535,3.715,0.535,5.645c0,1.93-0.188,3.815-0.535,5.645
	c0.651-0.081,1.312-0.137,1.983-0.137c0.674,0,1.334,0.056,1.984,0.137c-0.347-1.829-0.534-3.715-0.534-5.645
	c0-1.93,0.188-3.815,0.534-5.645C49.895,11.59,49.235,11.646,48.561,11.646z"/>
</svg>
