<?xml version="1.0" encoding="utf-8"?>
<!-- Generator: Adobe Illustrator 16.0.0, SVG Export Plug-In . SVG Version: 6.00 Build 0)  -->
<!DOCTYPE svg PUBLIC "-//W3C//DTD SVG 1.1//EN" "http://www.w3.org/Graphics/SVG/1.1/DTD/svg11.dtd">
<svg version="1.1" id="Layer_1" xmlns="http://www.w3.org/2000/svg" xmlns:xlink="http://www.w3.org/1999/xlink" x="0px" y="0px"
	 width="100px" height="100px" viewBox="0 0 100 100" enable-background="new 0 0 100 100" xml:space="preserve">
<path fill="#010101" d="M82.893,60.17c-0.365-0.761-0.73-1.52-1.096-2.277v-1.752c-0.093-0.582-0.249-1.057-0.352-1.488
	c-0.014-0.525-0.027-1.051-0.043-1.574c-0.315-1.426-0.686-2.701-1.11-3.924c0.253-0.061,0.301-0.279,0.301-0.279
	c0.159-0.147,0.123-0.312,0.123-0.312c-0.118-0.228-0.438-0.131-0.438-0.131c-0.113,0.079-0.2-0.015-0.2-0.015v-0.329
	c0.403,0.033,0.481-0.083,0.481-0.083c0.375-0.215,0.125-0.646,0.125-0.646c-0.121-0.248-0.601-0.161-0.601-0.161l0.015-0.332
	l0.313-0.092c0.562-0.213,0.476-0.574,0.476-0.574c0.051-0.265-0.236-0.392-0.236-0.392c-0.252,0.007-0.101-0.147-0.101-0.147
	c0.261-0.271,0.005-0.579,0.005-0.579c-0.171-0.155-0.471-0.061-0.471-0.061l0.001-0.354c-0.08-0.039-0.16-0.083-0.235-0.13
	c0.006-0.799,0.104-1.688-0.195-2.406c-0.235-0.568-1.719-1.874-2.014-2.502c-0.056,0.019-0.113,0.037-0.17,0.054
	c0.034,0.063,0.063,0.128,0.098,0.191c-0.066-0.053-0.119-0.102-0.119-0.102c-0.09-0.202-0.582-0.453-0.582-0.453
	c-0.865-0.88-1.906-1.076-1.906-1.076c-0.264-0.044-0.88-0.299-0.88-0.299c-1.418-0.509-1.829-0.577-1.829-0.577l-0.115-0.292
	c0.068-0.336-0.318-0.692-0.318-0.692c-0.521-1.146-0.795-1.173-0.795-1.173l-0.004-0.568c0.668-0.879,0.754-2.274,0.754-2.274
	c0.535-0.025,0.586-0.455,0.586-0.455c0.141-0.117,0.209-0.4,0.209-0.4c0.209-0.193,0.149-0.704,0.149-0.704
	c-0.034-0.115,0.035-0.261,0.035-0.261c0.279-0.348,0.183-0.466,0.183-0.466c0.08-0.785-0.183-0.691-0.183-0.691
	c-0.2,0.014-0.14-0.486-0.14-0.486c0.447-2.88-1.279-3.777-1.279-3.777c-0.173-0.069-0.384-0.465-0.384-0.465
	c-0.542-2.233-3.527-1.239-3.527-1.239c-2.114-0.079-2.258,1.412-2.258,1.412c-1.237,0.619-1.522,2.391-1.542,2.456
	c-0.021,0.067-0.068,0.139-0.068,0.139c-0.484-1.063-1.283-3.771-1.283-3.771c-0.392-2.27-0.754-3.005-0.754-3.005
	c-0.022-0.342-0.14-0.476-0.14-0.476c0.005-0.187-0.249-0.475-0.249-0.475c-0.395-0.628-0.826-0.974-0.826-0.974
	c-0.678-0.71-1.645-1.124-1.645-1.124c-0.277-0.146-2.707-1.285-2.707-1.285c-0.438-0.186-2.604-0.78-2.604-0.78
	c-0.566-1.16-1.188-1.742-1.188-1.742l0.002-0.574c0.227-0.33,0.354-1.425,0.354-1.425c0.051-0.425,0.203-0.2,0.203-0.2
	c0.486,0.515,0.748-0.457,0.748-0.457c0.424-0.488,0.504-1.158,0.504-1.158c0.293-0.712,0.146-0.854,0.146-0.854
	c0.052-0.291-0.055-0.461-0.055-0.461c-0.078-0.521-0.41-0.349-0.41-0.349c-0.199,0.065-0.088-0.207-0.088-0.207
	c0.226-0.354,0.176-0.688,0.224-0.901c0.022-0.094,0.142-0.405,0.335-0.591c0.43-0.755,0.236-1.189,0.195-1.496
	c-0.041-0.302-0.264-1.053-0.422-1.307c-0.158-0.251-0.33-0.779-0.582-1.124c-0.248-0.342-1.062-0.387-1.307-0.294
	c-0.246,0.092-0.232,0.033-0.305,0c-0.098-0.309-0.911-0.895-1.124-1.078c-0.21-0.186-0.477-0.251-0.739-0.199
	c-0.266,0.054-0.608,0.054-0.807-0.025c-0.197-0.083-0.582-0.027-0.738,0.092c-0.16,0.118-0.714-0.041-1.15-0.081
	c-0.436-0.038-1.176,0.294-1.573,0.951C45.178,2.722,45.08,2.978,44.88,3.3c-0.321,0.526-0.644,1.287-0.644,1.287
	c-0.794,1.514-0.053,2.076-0.053,2.076c0.114,0.16,0.114,0.414,0.114,0.414c-0.07,0.468,0.072,0.591,0.072,0.591
	c0.077,0.405-0.013,0.395-0.013,0.395c-0.326-0.186-0.321,0.403-0.321,0.403c-0.148,0.308,0.048,0.861,0.048,0.861
	c0.062,0.161,0.118,0.56,0.118,0.56c-0.018,0.729,0.22,1.024,0.22,1.024c0.221,0.749,0.551,0.255,0.551,0.255
	c0.114-0.223,0.185-0.017,0.185-0.017c0.012,0.086,0.08,0.453,0.08,0.453c-0.02,0.53,0.099,0.82,0.099,0.82l-0.004,1.496
	c-0.643,0.642-1.079,1.504-1.079,1.504c-0.051,0.025-0.38,0.262-0.38,0.262c-0.272,0.028-0.528,0.13-0.528,0.13
	c-1.003,0.355-1.923,0.757-2.72,1.065c-0.965,0.367-1.464,0.657-1.464,0.657c-0.487,0.179-0.702,0.468-0.702,0.468
	c-0.582,0.396-0.837,0.815-0.837,0.815c-0.158,0.319-0.497,0.603-0.497,0.603c-0.186,0.114-0.167,0.33-0.167,0.33
	c-0.152,0.237-0.172,0.701-0.172,0.701c-0.308,0.8-0.674,1.749-1.04,2.68c-0.792,1.905-1.511,4.078-1.511,4.078
	c-0.245,0.45-0.397,0.776-0.397,0.776c-0.341,0.634-0.276,0.803-0.276,0.803c-0.236,0.307-0.617,1.059-0.617,1.059
	c-0.357,0.672-0.333,0.971-0.333,0.971c-0.227,0.344-0.127,0.604-0.127,0.604c0.042,0.142,0.024,0.455,0.024,0.455
	c0.007,0.256-0.27,0.092-0.27,0.092c-0.089-0.035-0.399-0.329-0.399-0.329c-0.084-0.149-0.218-0.23-0.342-0.277
	c-0.388-0.004-0.435-0.408-0.435-0.772c0.123-0.174,0.286-0.512,0.411-0.603c0.068-0.104,0.077-0.188,0.097-0.36
	c0.053-0.063,0.218-0.337,0.34-0.662c0.112-0.299,0.175-0.635,0.259-0.888c-0.007,0.038,0.232-0.771,0.263-1.251
	c0.018-0.281,0.159-0.825,0.159-0.825c0.407-0.415,0.412-0.629,0.412-0.629c0.131-0.523-0.152-0.439-0.152-0.439
	c-0.165,0.008-0.079-0.116-0.079-0.116c0.226-0.634,0.066-1.557,0.066-1.557c-0.672-3.696-3.754-4.093-3.967-4.118
	c-0.208-0.027-1.138,0.038-1.138,0.038c-3.584,0.115-4.3,6.219-4.3,6.219c0.029,2.985-1.346,6.578-1.346,6.578
	c-0.159,1.082-0.42,1.221-0.461,1.233c0-0.006,0-0.013,0.001-0.022c-0.235,0.059-0.471,0.119-0.705,0.175
	c-0.747,0.282-1.101,1.166-1.374,1.907c-0.13,0.355-0.155,0.652-0.266,1.024c-0.061,0.143-0.122,0.289-0.182,0.433
	c-0.006,0.135-0.01,0.272-0.015,0.407c-0.066,0.209-0.129,0.419-0.195,0.63c-0.051,0.294-0.104,0.588-0.155,0.882
	c-0.176,0.6-0.323,1.327-0.488,1.933c-0.146,0.526-0.125,1.036-0.296,1.527c-0.06,0.118-0.121,0.233-0.183,0.351
	c-0.089,0.263-0.128,0.542-0.197,0.783c-0.027,0.239-0.054,0.476-0.082,0.715c-0.066,0.129-0.132,0.262-0.197,0.393
	c-0.01,0.138-0.018,0.279-0.027,0.419c-0.043,0.165-0.207,0.294-0.154,0.562c0.032,0.093,0.066,0.186,0.098,0.277
	c-0.007,0.12-0.013,0.236-0.019,0.353c-0.007,0.011-0.012,0.027-0.021,0.04c-0.008,0.139-0.021,0.275-0.04,0.412
	c0.009,0.006,0.016,0.007,0.023,0.013c0.036,0.033,0.064,0.072,0.092,0.117c0.083,0.491,0.188,1.007,0.272,1.435
	c0.023,0.187,0.046,0.374,0.071,0.56c0.049,0.198,0.101,0.39,0.153,0.583c0.149,0.688,0.325,1.388,0.547,2.131
	c0.017,0.031,0.033,0.062,0.05,0.093c0.016,0.069,0.035,0.137,0.05,0.207c0.015-0.01,0.028-0.021,0.04-0.033
	c0.14,0.266,0.279,0.53,0.417,0.795c0.093,0.326,0.166,0.699,0.321,1.121l0.651,1.162c0.04,0.639,0.079,1.279,0.12,1.92
	c0.078,0.242,0.633,0.613,1.185,0.924c-0.154,1.32-0.423,2.521-0.779,3.451c-0.018,0.047-0.038,0.09-0.056,0.135
	c-0.035,0.707-0.028,1.229-0.028,1.229c0.051,4.227,0.404,6.467,0.404,6.467c-0.047,1.03,0.142,2.861,0.142,2.861
	c0.142,1.23,0,2.234,0,2.234c-0.209,0.238-0.062,0.74-0.062,0.74c0,0.371-0.048,1.02-0.048,1.02
	c-0.353,0.514-0.225,0.609-0.225,0.609c0.08,0.237-0.028,0.524-0.028,0.524c-0.177,0.293-0.12,0.709-0.12,0.709
	c-0.107,0.21-0.099,0.513-0.099,0.513c-0.403,0.36-0.21,0.799-0.21,0.799c0.132,0.336,0.017,0.531,0.017,0.531
	c-0.13,0.28-0.08,3.387-0.08,3.387c0.078,0.638,0.002,2.246-0.058,3.683c0.009,0.976-0.066,1.594-0.066,1.594
	c0,0.134-0.078,0.862-0.078,0.862c0.054,0.238,0.717,0.979,0.717,0.979c-0.01,0.186-0.077,0.463-0.102,0.766
	c-0.025,0.372-0.008,0.756-0.008,0.756c-0.014,0.127-0.125,0.223-0.146,0.298c-0.051,0.188-0.048,0.229-0.048,0.229
	c-0.285,0.25-0.49,0.521-0.621,0.719c-0.128,0.193-0.208,0.34-0.208,0.34c-0.183,0.318-0.151,0.805-0.151,0.805
	c-0.141,0.404-0.909,1.317-0.909,1.317c-0.152,0.235-0.18,0.347-0.18,0.347l-0.156,0.239c-0.273,0.558,0.1,0.999,0.1,0.999
	c-0.334,0.458-0.208,0.668-0.208,0.668c1.626,0.363,3.098,0.284,3.098,0.284c1.022,0.09,1.231-0.773,1.231-0.773
	c0.065-0.592,0.32-0.767,0.32-0.767c0.791-0.624,0.924-0.84,0.924-0.84c0.113-0.245-0.165-0.719-0.165-0.719
	c-0.113-0.115,0.01-0.75,0.01-0.75c0.14-0.39-0.178-1.164-0.178-1.164c0.042-0.166-0.016-0.427-0.016-0.427
	c-0.132-0.185,0.065-0.778,0.065-0.778c0.263-0.659-0.078-1.229-0.078-1.229c0.212,0.026,0.937-0.168,0.937-0.168
	c0.542,0.011,1.533-0.226,1.533-0.226c0.344-0.028,0.265-0.229,0.265-0.229c-0.041-0.289-0.041-0.816-0.041-0.816
	c0.068-1.375-0.193-6.049-0.193-6.049c-0.025-2.642-0.002-3.937-0.002-3.937c0.093-0.146,0.096-3.158,0.096-3.158
	c0.052-0.356,0.06-1.229,0.06-1.229c0.107-0.286,0.08-0.617,0.08-0.617c0.172-0.188,0.142-1.363,0.142-1.363
	c0.022-3.063,0.307-4.82,0.307-4.82c0.065-0.143,0.05-0.517,0.05-0.517c0.184-0.629,0.895-4.938,0.895-4.938
	c0-0.146,0.282-0.093,0.282-0.093c0.184,0.134,0.15,0.292,0.15,0.292c-0.007,0.34,0.22,1.063,0.22,1.063
	c0.12,0.409,0.777,4.67,0.777,4.67c0.078,0.592,0.188,2.704,0.188,2.704c-0.005,1.455,0.105,2.695,0.105,2.695
	c-0.013,0.373,0.095,0.715,0.095,0.715c-0.055,0.461,0.102,1.319,0.102,1.319c-0.052,0.597,0.054,1.136,0.054,1.136
	c0.052,0.188,0.133,1.467,0.133,1.467c-0.107,0.514,0.171,2.527,0.171,2.527c0.027,0.352,0.127,1.582,0.127,1.582
	c0.096,1.924-0.013,4.493-0.1,5.932c-0.039,0.671-0.101,1.094-0.101,1.094c-0.104,0.252,0.022,0.385,0.022,0.385
	c0.461,0.54,1.604,1.188,1.604,1.188c-0.165,0.146-0.113,0.581-0.113,0.581c0.04,0.41-0.002,0.99-0.002,0.99l-0.183,0.187
	c-0.341,0.601-0.32,1.327-0.32,1.327c0.039,0.185-0.182,0.687-0.182,0.687c-0.204,0.312-0.405,0.927-0.405,0.927
	c-0.265,0.739,0.095,1.381,0.095,1.381c-0.13,0.396-0.046,0.527-0.046,0.527c0.714,0.477,2.855,0.329,2.855,0.329
	c1.07,0.146,1.321-0.516,1.321-0.516c0.131-0.173,0.094-0.792,0.094-0.792c0.257-0.335,0.18-1.161,0.18-1.161
	c-0.05-0.291,0.041-0.527,0.041-0.527c0.128-0.146,0.146-0.442,0.146-0.442c-0.039-0.715,0.266,0.013,0.266,0.013
	c0.25,0.342,0.33-0.046,0.33-0.046c0.077-0.359-0.239-0.604-0.239-0.604c-0.197-0.023-0.322-0.533-0.322-0.533
	c-0.053-0.252-0.195-0.088-0.195-0.088c0.067-0.09-0.178-0.283-0.178-0.283c0.132-0.266-0.178-0.592-0.178-0.592
	c0.073-0.49-0.026-0.781-0.026-0.781c0.041-0.146,0.026-0.527,0.026-0.527c0.688-0.238,0.477-0.383,0.477-0.383
	c0.105-0.066,0.105-0.702,0.105-0.702c-0.027-0.342,0-0.634,0-0.634c0.094-0.223,0.226-2.456,0.226-2.456
	c0.264-2.522,0.037-4.308,0.037-4.308c0-0.737,0-2.391,0-2.391c0.159-0.947-0.05-1.055-0.05-1.055c0-0.963-0.159-1.02-0.159-1.02
	c0-0.434-0.093-0.701-0.093-0.701c-0.065-0.053-0.052-0.236-0.052-0.236c0.025-0.463-0.067-0.818-0.067-0.818
	c-0.067-0.119-0.067-0.173-0.067-0.173c0.106-0.765-0.131-1.017-0.131-1.017c0.082-0.262-0.051-0.477-0.051-0.477
	c0.143-0.328-0.042-0.632-0.042-0.632c0.237-0.505-0.065-0.739-0.065-0.739c0.027-0.135-0.041-0.515-0.041-0.515
	c0.187-0.636-0.079-0.874-0.079-0.874c0.107-0.092,0.052-0.525,0.052-0.525c0.241-0.32,0.022-0.736,0.022-0.736
	c0.501-4.004,0.506-5.369,0.506-5.369c0.129-0.21,0.02-0.409,0.02-0.409c0.066-0.437,0.171-2.868,0.171-2.868
	c0.17-0.234,0.031-0.543,0.031-0.543c0.065-1.309-0.045-1.337-0.045-1.337c0.053-0.67-0.163-1.403-0.163-1.403
	c0.013-0.514-0.168-0.912-0.168-0.912c-0.078-0.133-0.095-0.427-0.095-0.427c0.857-0.261,0.844-0.368,0.844-0.368
	c0.435-0.25,0.337-1.057,0.337-1.057c0-0.255,0.18-0.518,0.18-0.518c0.091-0.012,3.632-0.223,3.632-0.223
	c-0.055,0.5-0.042,1.428-0.042,1.428c0.106,0.422,0.014,1.213,0.014,1.213c-0.052,0.238-0.079,0.488-0.079,0.488
	c0.027,0.871-0.051,2.16,0.024,3.858c0.145,3.326,0.465,7.41,0.465,7.41c0.094,1.003,0.186,3.078,0.186,3.078
	c-0.186,0.485-0.161,1.729-0.161,1.729c-0.13,0.792-0.078,1.438-0.078,1.438c-0.144,1.438-0.069,1.586-0.069,1.586
	c-0.074,0.251-0.036,1.268-0.036,1.268c-0.304,4.148-0.145,4.493-0.145,4.493c0.106,0.459,0.275,1.582,0.275,1.582
	C39.669,85.99,40,86.639,40,86.639c0.303,0.579,1.663,1.398,1.663,1.398c0.502,0.333,0.159,0.346,0.159,0.346
	c-0.991-0.133-1.255,0.169-1.255,0.169c-0.753,0.255-0.698,0.622-0.698,0.622c0.025,0.723,1.188,1.381,1.188,1.381l0.117,0.086
	l0.106,0.387c-0.264,0.643-0.106,1.226-0.106,1.226c0.133,0.054,0.101,0.146,0.101,0.146l-1.119,1.11
	c-1.327,1.313-1.225,2.451-1.225,2.451c0,0.331-0.028,0.331-0.028,0.331l-0.167,0.295C38.473,97.26,38.97,97.3,38.97,97.3
	c2.575,0.369,4.081,0.396,4.081,0.396c1.282-0.106,1.652-0.875,1.652-0.875c0.288-0.182,0.302-1.424,0.302-1.424
	c0.529-0.056,1.731-0.778,1.731-0.778c0.484-0.329,0.37-0.821,0.37-0.821c-0.084-0.449-0.227-1.005-0.227-1.005
	c0.308-0.171,0.516-0.593,0.516-0.593c0.094-0.143,0.387-0.674,0.387-0.674c0.302-0.076,0.275-0.766,0.275-0.766
	c-0.168-0.754,0.066-1.506,0.066-1.506c0.623-0.688,0.897-1.363,0.897-1.363c0.555-0.789,0-2.295,0-2.295
	c-0.183-0.594-0.645-2.481-0.645-2.481c-0.226-0.716-1.03-1.944-1.03-1.944c-0.528-0.46-0.399-0.885-0.399-0.885
	c0.266-1.861,0.107-2.219,0.107-2.219c-0.014-0.25,0-0.678,0-0.678c0.198-1.063-0.092-2.257-0.092-2.257
	c-0.082-0.366-0.068-0.792-0.068-0.792c0.2-1.043-0.014-1.492-0.014-1.492c-0.354-1.41,0.106-2.838,0.106-2.838
	c0.397-0.673,0.503-1.376,0.503-1.376c0.105-0.696,0.279-1.067,0.279-1.067c0.448-1.146,0.329-1.467,0.329-1.467
	c0.119-1.188-0.119-2.563-0.119-2.563c-0.081-0.528-0.041-0.688-0.041-0.688c0.078-0.144,0.437-1.138,0.437-1.138
	c0.763-1.599,0.827-2.556,0.827-2.556c0.145-0.926,0.258,0.445,0.258,0.445c-0.017,0.726,0.314,1.346,0.314,1.346
	c0.132,0.121,0.16,0.304,0.173,0.304c0.063,1.004,1.018,5.179,1.018,5.179c0.128,0.213,0.17,0.846,0.17,0.846
	c0.119,2.43,0.86,3.408,0.86,3.408c0.396,0.674,0.528,1.493,0.528,1.493c0.104,0.566-0.146,2.112-0.146,2.112
	c-0.254,0.688-0.066,1.439-0.066,1.439c-0.041,0.33,0.133,0.725,0.133,0.725c-0.409,1.586-0.266,2.063-0.266,2.063
	c0.024,0.45-0.316,1.283-0.316,1.283c-0.396,0.816-0.284,0.962-0.284,0.962c-0.034,3.496,0.276,4.783,0.276,4.783
	c0.043,0.673,0.498,1.303,0.498,1.303c0.043,0.265,0.196,0.56,0.196,0.56c0.13,0.305,0.353,0.347,0.353,0.347l0.42,0.16
	c0.334,0.131,0.047,0.219,0.047,0.219c-0.227,0.175-0.676,0.438-0.676,0.438c-0.685,0.486-0.672,0.673-0.672,0.673
	c-0.146,0.805,0.104,1.56,0.104,1.56c0.015,1.016,0.739,1.91,0.739,1.91c0.32,0.225,0.482,0.584,0.482,0.584
	c-0.119,0.199-0.179,0.583-0.179,0.583c-0.382,1.138,0.83,1.579,0.83,1.579c0.409,0.068,0.346,0.402,0.346,0.402
	c-0.222,0.593-0.126,1.067-0.126,1.067c0.146,1.468,1.778,1.265,1.778,1.265c2.284-0.227,3.522-0.154,3.522-0.154
	c0.047-0.032,0.32-0.03,0.32-0.03c0.723-0.423,0.15-1.551,0.15-1.551c0.186-1.39-0.441-2.075-0.441-2.075
	c-0.311-0.584-0.958-1.357-0.958-1.357c-0.216-0.299,0.296,0.045,0.296,0.045l0.549,0.44c0.098,0.024,0.07-0.034,0.07-0.034
	l-0.574-0.479c-0.025-0.053-0.205-0.157-0.205-0.157c-0.133-0.086,0-0.176,0-0.176c0.299-0.271,0.434-0.89,0.434-0.89
	c-0.029-0.147,0.016-0.123,0.016-0.123c0.107-0.229,0.291-0.528,0.291-0.528c0.334-0.334,0.415-0.677,0.415-0.677
	c0.114-0.09,0.065-0.934,0.065-0.934c-0.106-0.275-0.461-0.328-0.461-0.328c-0.246-0.035-0.438-0.123-0.438-0.123
	c-0.246,0.037-0.082-0.184-0.082-0.184c0.079-0.055,0.323-0.759,0.323-0.759c0.019-0.142,0.478-1.259,0.478-1.259
	c0.649-1.418,0.67-2.447,0.67-2.447c0.034-0.271,0.103-1.895,0.103-1.895c0.046-1.516-0.166-2.078-0.166-2.078
	c-0.009-0.238-0.195-1.463-0.195-1.463c0-0.228-0.052-0.377-0.052-0.377c0.011-0.186-0.025-0.316-0.025-0.316
	c0.019-0.202-0.053-0.352-0.053-0.352c0.035-0.371-0.091-0.66-0.091-0.66c0.021-0.205,0-0.397,0-0.397
	c-0.007-0.537-0.062-1.146-0.062-1.146c-0.041-0.323-0.117-1.427-0.117-1.427c-0.127-2.069-0.131-2.184-0.131-2.184
	c-0.086-1.076,0-2.288,0-2.288c0.088-0.911,0.043-2.688,0.043-2.688c0.019-0.601-0.117-2.845-0.117-2.845
	c0.016-1.557,0.025-2.836,0.025-2.836c0.088-0.704,0.051-2.315,0.051-2.315c0-0.213,0.06-1.982,0.06-1.982l0.692-0.01
	c0,0.886,0.187,3.479,0.187,3.479c0.056,0.201,0.073,1.05,0.073,1.05c-0.125,0.182-0.01,0.555-0.01,0.555s0.01,0.359,0.01,0.472
	c0.008,0.287,0.015,0.244,0.109,0.269c0.053,0.012,0.162,0.037,0.162,0.037c-0.008,0.156,0.094,1.194,0.094,1.194
	c-0.088,0.229,0.098,1.31,0.098,1.31c0.1,0.283,0.104,1.42,0.104,1.42c-0.213,1.108,0.061,1.899,0.061,1.899
	c0.15,0.205,0.096,0.667,0.096,0.667c-0.074,0.109-0.044,0.688-0.01,1.217c0,0.586,0.105,1.1,0.105,1.1
	c0,0.394,0.193,0.346,0.193,0.346c0.184,0.072,0.191,0.197,0.191,0.197c0.002,0.262,0.166,1.398,0.166,1.398
	c0,1.198,0.193,2.516,0.193,2.516c-0.015,0.186,0.047,0.699,0.047,0.699c-0.008,1.287,0.015,1.34,0.015,1.34
	c0.067,0.115,0.1,0.396,0.1,0.396c-0.069,0.167,0.007,0.403,0.007,0.403c-0.068,0.148-0.102,0.305-0.102,0.305
	c-0.212,0.424-0.245,0.625-0.245,0.625c-0.149,0.378-0.073,0.379-0.073,0.379c0.08,0.061,0.07,0.232,0.07,0.232
	c-0.053,0.174-0.021,0.271-0.021,0.271c-0.056,0.528,0.09,0.354,0.09,0.354c0.105-0.104,0.117,0.015,0.117,0.015
	c-0.1,0.609,0.082,1.469,0.082,1.469c0.159,0.282,0.053,0.657,0.053,0.657c-0.168,0.892-0.18,1.901-0.18,1.901
	c0.096,0.16,0,0.277,0,0.277c-0.094,0.229-0.135,1-0.135,1c-0.098,0.711-0.123,1.373-0.152,1.965
	c-0.086,1.852,0.088,2.986,0.088,2.986c0.024,0.061,0.093,0.211,0.16,0.396c0.156,0.418,0.373,1.016,0.373,1.016
	c0.018,0.482,0.1,1.183,0.1,1.183c0.166,0.011,0.088,0.141,0.088,0.141c-0.104,0.088-0.053,0.127-0.053,0.127
	s-0.215,0.202-0.369,0.354c-0.103,0.095-0.188,0.172-0.188,0.172c-0.149,0.158-0.059,0.162-0.059,0.162
	c0.147,0.08-0.026,0.156-0.026,0.156c-0.457,0.557-1.049,1.499-1.049,1.499c-0.053,0.123-0.114,0.693-0.114,0.693
	c-0.059,0.757,0.442,0.751,0.442,0.751c0.604,0.121,2.404,0.369,2.404,0.369c1.194,0.142,1.537,0.078,1.537,0.078
	c0.908-0.025,1.015-0.739,1.015-0.739c0.088-0.713,0.274-0.724,0.274-0.724c0.016,0.176,0.223,0.039,0.223,0.039
	c0.31-0.069,1.16-0.653,1.16-0.653c0.388-0.188,0.275-0.611,0.275-0.611c0.051-0.378-0.059-1.035-0.059-1.035
	c0.061-0.266-0.047-0.252-0.047-0.252c-0.062-0.058-0.032-0.202-0.032-0.202c-0.114-0.134-0.052-0.238-0.052-0.238
	c0.035-0.101,0.224-1.078,0.224-1.078c0.095-0.141,0.164-0.483,0.164-0.483c-0.034-1.312-0.3-2.688-0.3-2.688
	c-0.068-0.15,0.014-0.303,0.014-0.303c0.061-0.054,0.527-0.766,0.527-0.766c0.193-0.52,0.301,0.093,0.301,0.093
	c0.346,1.205,0.938,2.593,0.938,2.593c0.291,0.528,0.299,0.789,0.299,0.789c0.027,0.494,0.105,0.57,0.105,0.57
	c0.135,0.141,0.104,0.215,0.104,0.215c-0.021,0.245,0.231,0.987,0.231,0.987c0.106,0.095,0.005,0.13,0.005,0.13
	c-0.103,0.113-0.078,0.311-0.078,0.311c-0.1,0.104,0.008,0.313,0.008,0.313c-0.061,0.113-0.051,0.883-0.051,0.883
	c-0.045,0.278,0.096,0.493,0.096,0.493c0.197,0.35,0.89,0.773,0.89,0.773c0.272,0.229,0.54,0.168,0.54,0.168
	c-0.027,0.423,0.061,0.845,0.061,0.845c0.15,0.937,1.399,0.845,1.399,0.845c1.337,0.092,3.196-0.185,3.196-0.185
	c0.59-0.017,0.644-0.634,0.644-0.634c0.036-0.918-0.144-1.188-0.144-1.188c-0.1-0.235-0.781-1.297-0.781-1.297
	c-0.282-0.449-0.286-0.33-0.286-0.33c0-0.211-0.204-0.34-0.204-0.34c-0.291-0.468-0.412-1.007-0.412-1.007l0.102-0.06l0.013-0.959
	c0.192-0.442,0.065-0.711,0.065-0.711c-0.254-0.397-0.362-1.262-0.362-1.262c0.187-0.026,0.362-0.582,0.362-0.582
	c0.188-0.222,0.18-0.419,0.18-0.419c0.01-0.125,0.164-1.313,0.164-1.313c0.081-0.273,0.104-0.896,0.104-0.896
	c0.017-0.554-0.346-2.312-0.346-2.312c-0.068-0.162-0.113-0.685-0.113-0.685c0.103-2.024-0.031-2.458-0.031-2.458
	c0.07-0.268,0.078-0.697,0.078-0.697c0.32-0.437,0.094-1.225,0.094-1.225c-0.053-0.125-0.028-0.323-0.028-0.323
	c0.071-0.13,0.083-0.858,0.083-0.858c0.247-0.529,0.16-1.289,0.16-1.289c-0.063-0.297,0.025-0.724,0.025-0.724
	c0.063-0.087,0.24-1.292,0.24-1.292c0.043-0.545-0.052-2.396-0.052-2.396c0.192-0.461,0.276-1.407,0.276-1.407
	c0.244-0.185,0.113-1.183,0.113-1.183c0.014-0.883-0.088-0.987-0.088-0.987c-0.096-0.181-0.115-0.632-0.115-0.632
	c0.025-0.254,0.025-0.691,0.025-0.691c-0.088-0.291,0.02-0.707,0.02-0.707c0.022-2.255-0.115-3.345-0.115-3.345
	c-0.061-0.292-0.105-0.908-0.105-0.908c0.059-0.905-0.058-1.149-0.058-1.149c-0.079-0.121,0.041-0.203,0.041-0.203l0.401-0.188
	c0.797-0.023,0.619-0.152,0.619-0.152c0.271,0.026,0.316-0.054,0.316-0.054c0.063-0.896-0.115-0.961-0.115-0.961
	c0.034-0.177-0.043-0.476-0.043-0.476c0.035-0.396-0.074-0.73-0.074-0.73c-0.078-0.97-0.49-2.395-0.49-2.395
	c-0.024-0.105-0.004-0.154,0.022-0.18c-0.052-0.451-0.03-0.918,0.087-1.379c0-0.008,0.002-0.012,0.004-0.02
	c0-0.066,0.006-0.135,0.004-0.201c-0.002-0.016-0.002-0.023-0.002-0.038c-0.052-0.219-0.105-0.438-0.182-0.649
	c-0.007-0.019-0.01-0.029-0.016-0.045c-0.651-1.414-0.559-3.023,0.398-4.16c0,0.002,0,0.006,0.002,0.008
	c0.079-0.053,0.156-0.104,0.237-0.158v0.089c0.335,1.284,0.669,2.567,1.006,3.853c0.632,2.082,1.406,4.45,2.495,6.082
	c-0.223,0.92-2.117,1.01-1.227,2.586h1.051c0.162,0.043,0.22,0.178,0.484,0.219C81.527,62.973,83.014,60.784,82.893,60.17z
	 M19.338,93.259c-0.028,0.075-0.082,0.05-0.099,0.03c-0.021-0.145,0.049-0.223,0.077-0.254c0.032-0.034,0.087,0.038,0.085,0.083
	C19.398,93.163,19.366,93.18,19.338,93.259z M20.202,48.731c0.004-0.032,0.01-0.066,0.015-0.099
	c0.515,1.292,0.824,2.782,0.963,4.302c-0.11-0.646-0.245-1.293-0.378-1.903C20.602,50.265,20.401,49.498,20.202,48.731z
	 M40.047,34.234c0,0-0.15,0.569-0.313,1.843c-0.134,0.751-0.32,1.708-0.539,2.757c0,0-0.18,0.061-0.17-0.122l0.008-0.423
	l-0.361-0.009c0,0-0.169-1.771-0.518-1.96c0,0-0.323-1.335-0.448-1.484c0,0,0.458-0.151,0.744-1.239c0,0,0.022-0.083,0.201-0.243
	c0,0,0.543-0.355,1.439-1.53c0,0,0.232-0.354,0.213,0.048C40.305,31.871,40.449,32.203,40.047,34.234z M59.729,40.621l-0.559-0.009
	c0,0-0.133-1.14-0.32-1.435c0,0,0.099-0.673-0.313-2.139c0,0-0.368-1.907-0.446-2.32c0,0-0.099-1.147-0.099-1.266
	c0,0,0.01-0.522,0.206-0.057c0,0,0.116,0.575,0.465,1.312c0,0,0.13,0.082,0.085,0.343l-0.072,0.55c0,0-0.031,0.194,0.075,0.446
	c0,0,0.267,0.637,0.356,0.754c0,0,0.27,0.653,0.484,0.963c0,0,0.327,0.608,0.676,0.856c0,0,0.078,0.112,0.193,0.347
	c0,0-0.182,0.145-0.118,0.241l0.166,0.238C60.51,39.445,59.951,40.072,59.729,40.621z M65.452,35.259c0,0-0.118-0.373-0.289-0.716
	c0,0-0.06-0.103-0.077-0.256c0,0,0.098-0.209-0.396-0.353c0,0-0.164-0.249-0.037-0.497c0,0,0.104-0.226,0.092-0.712
	c0,0,0.229,0.041,0.281-0.017c0,0,0.125-0.011,0.131,0.194c0,0,0.128,0.899,0.556,1.457c0,0,0.093,0.783,0.103,0.889L65.452,35.259z
	"/>
</svg>
