<?xml version="1.0" encoding="utf-8"?>
<!-- Generator: Adobe Illustrator 16.0.0, SVG Export Plug-In . SVG Version: 6.00 Build 0)  -->
<!DOCTYPE svg PUBLIC "-//W3C//DTD SVG 1.1//EN" "http://www.w3.org/Graphics/SVG/1.1/DTD/svg11.dtd">
<svg version="1.1" id="Layer_1" xmlns="http://www.w3.org/2000/svg" xmlns:xlink="http://www.w3.org/1999/xlink" x="0px" y="0px"
	 width="100px" height="100px" viewBox="0 0 100 100" enable-background="new 0 0 100 100" xml:space="preserve">
<path fill="#FFD54F" d="M76.48,9.049c-0.615-0.411-1.246-0.755-1.879-1.037c2.797-1.209,2.176-4.584,2.176-4.584
	c-2.543-0.676-4.137,2.104-4.853,3.782c-0.151-0.024-0.303-0.043-0.452-0.06l0.696-4.602c0,0,0.252-0.045,0.517-0.943
	c0.293-0.995-1.318-1.44-2.261-0.687c-0.94,0.753,0.455,1.728,0.455,1.728l-0.246,4.456c-0.637-0.004-1.239,0.071-1.795,0.222
	l-0.603-4.442c0,0,0.23-0.117,0.23-1.054c0-1.039-1.668-0.996-2.359,0c-0.688,0.996,0.92,1.523,0.92,1.523l0.998,4.267
	c-0.047,0.022-0.094,0.044-0.141,0.067c-0.779-1.459-2.428-3.699-5.007-3.132c0,0-0.403,1.804,0.853,3.083l-0.203,0.932l1.275,0.786
	l-1.472-0.196l0.099,1.474h1.373l-1.373,0.589l-0.099,1.67l1.472-0.295L63.43,13.48v1.572l0.834-0.245l-0.933,0.933l-0.099,1.572
	l0.885,0.099l-0.786,0.393l-0.099,1.572l0.785-0.099l-0.785,0.59l-0.246,1.769l0.64,0.196l-0.591,0.246l-0.098,2.457l0.736-0.147
	l-0.785,0.688v1.965l0.393,0.147l-0.246,0.246l-0.294,2.259l0.59,0.197l-0.491,0.147c0,0-0.244,4.865-0.525,8.485
	c-0.974,5.466-2.145,10.514-3.496,13.691L40.93,53.125c-0.184-0.027-0.366-0.049-0.547-0.066c-0.055-0.006-0.109-0.008-0.164-0.012
	c-0.128-0.01-0.257-0.017-0.384-0.021c-0.056,0-0.112-0.002-0.168-0.002c-0.144-0.002-0.288,0.002-0.429,0.009
	c-0.03,0.003-0.06,0.003-0.089,0.004c-0.171,0.012-0.34,0.026-0.506,0.05c-0.039,0.005-0.077,0.012-0.116,0.018
	c-0.129,0.021-0.256,0.043-0.382,0.067c-0.047,0.011-0.093,0.021-0.14,0.031c-0.128,0.028-0.254,0.062-0.378,0.099
	c-0.032,0.01-0.064,0.018-0.096,0.027c-0.159,0.049-0.314,0.104-0.467,0.163c-0.011,0.004-0.02,0.009-0.03,0.013
	c-0.14,0.057-0.277,0.116-0.413,0.184c-0.032,0.016-0.063,0.031-0.095,0.047c-0.12,0.062-0.238,0.125-0.353,0.192
	c-0.025,0.015-0.049,0.028-0.074,0.043c-0.282,0.171-0.55,0.361-0.804,0.574c-0.016,0.013-0.031,0.026-0.046,0.04
	c-0.113,0.096-0.221,0.195-0.328,0.3c-0.017,0.017-0.034,0.032-0.05,0.048c-0.242,0.24-0.469,0.502-0.679,0.781
	c-0.001,0.001-0.002,0.003-0.004,0.004c-0.101,0.137-0.198,0.276-0.292,0.42c-0.011,0.02-0.022,0.035-0.034,0.055
	c-0.092,0.145-0.181,0.293-0.265,0.445c-0.001,0.002-0.002,0.004-0.003,0.004c-3.245,5.014-6.144,10.369-12.06,12.711l-0.052-0.117
	l-2.204-0.599l-0.062,0.958l0.76,0.148l-1.017,0.365l0.025,0.295l0.143,0.39l0.986-0.308l-1.02,0.451l0.826,0.867l0.85-0.965
	l-0.39,0.62l0.872,0.528l0.681-1.405c0.032-0.011,0.063-0.021,0.095-0.036c4.959-2.031,7.424-4.912,10.215-9.111
	c0.067,0.006,0.136,0.02,0.139,0.436c0,3.318,1.539,6.275,3.939,8.201c-0.345,8.584-1.161,26.666-1.188,27.253h-0.001l-0.05,0.981
	l4.373-0.017l-0.196-0.966h-0.005c-1.263-3.54-0.794-18.146-0.45-25.768c0.712,0.301,1.466,0.523,2.249,0.661
	c0.517,8.593,0.78,24.953,0.789,25.498l0,0v0.001c0,0.01,0,0.016,0,0.016h0.001l0.069,0.886l3.635-0.263c0,0-0.131-1-0.196-1.031
	h-0.006c-1.483-3.219-1.918-17.078-2.046-24.94h17.675c0.545,0,1.063-0.041,1.549-0.122c-0.321,8.594-1.033,25.682-1.057,26.241
	h-0.001l-0.172,0.958l4.103-0.113l-0.199-0.844h-0.004c-1.238-3.768-0.635-20.318-0.327-27.02c0.489-0.264,0.938-0.575,1.348-0.938
	c0.494,7.908,0.746,26.576,0.754,27.17l0,0l-0.073,1.009l3.315-0.051l-0.295-1.352H69.91c-1.557-4.021-1.74-24.641-1.76-29.438
	c0.795-1.705,1.176-3.776,1.176-6.015c-0.002-0.004-0.002-0.008-0.002-0.014l0.002,0.002c-0.002-0.014-0.006-0.025-0.008-0.041
	c-0.107-0.731-0.226-1.42-0.351-2.064c-1.643-11.929,0.818-33.994,1.691-41.073c3.774,2.313,8.051,2.229,9.713-0.26
	C82.1,15.836,80.355,11.641,76.48,9.049z"/>
<path fill="#3C2517" d="M62.842,30.036c0,0-0.244,4.865-0.523,8.485c2.099-11.799,3.279-25.553,3.373-26.687
	c-0.098-1.026,0.104-1.992,0.644-2.8c0.052-0.075,0.104-0.147,0.158-0.218c-1.353-0.163-2.214-0.622-2.761-1.18l-0.203,0.932
	l1.275,0.786l-1.472-0.196l0.099,1.474h1.373l-1.373,0.589l-0.099,1.67l1.472-0.295l-1.373,0.885v1.572l0.834-0.246l-0.933,0.933
	l-0.099,1.572l0.885,0.099l-0.786,0.393l-0.099,1.572l0.785-0.098l-0.785,0.589l-0.246,1.769l0.64,0.197l-0.591,0.245l-0.098,2.457
	l0.736-0.147l-0.785,0.688v1.965l0.393,0.147l-0.246,0.246l-0.294,2.26l0.59,0.196L62.842,30.036z M54.578,58.195
	c-2.003,2.256-2.383,5.188-0.85,6.55s4.401,0.638,6.403-1.617c2.005-2.256,2.384-5.188,0.851-6.551S56.582,55.939,54.578,58.195z
	 M68.152,68.423c-0.002-0.196-0.002-0.379-0.002-0.54c0.795-1.705,1.176-3.777,1.176-6.015c-0.002-0.004-0.002-0.009-0.002-0.013
	h0.002c-0.002-0.013-0.006-0.024-0.008-0.039c-0.107-0.732-0.226-1.422-0.351-2.065c-0.021-0.166-0.045-0.336-0.063-0.506
	c-0.164-0.015-0.33-0.019-0.496,0.001c-1.887,0.211-3.182,2.48-2.893,5.068C65.736,66.289,66.816,67.874,68.152,68.423z
	 M68.473,45.78c0.051-1.914,0.135-3.856,0.24-5.784c-0.184-0.043-0.373-0.059-0.566-0.038c-1.201,0.135-2.028,1.546-1.85,3.154
	C66.461,44.574,67.4,45.689,68.473,45.78z M62.736,49.317c1.635-1.839,1.906-4.266,0.606-5.419c-0.52-0.461-1.213-0.645-1.961-0.586
	c-0.649,3.02-1.364,5.737-2.146,7.847C60.396,51.12,61.713,50.471,62.736,49.317z M46.335,57.055c2.659,0,4.813-1.23,4.813-2.75
	c0-0.621-0.363-1.19-0.969-1.65l-8.142,0.414c-0.328,0.371-0.517,0.791-0.517,1.236C41.521,55.823,43.676,57.055,46.335,57.055z
	 M50.307,66.971c-1.866-1.815-4.452-2.188-5.777-0.826c-1.326,1.358-0.887,3.937,0.978,5.752c0.181,0.178,0.371,0.336,0.564,0.485
	h5.489C52.529,70.964,52.025,68.646,50.307,66.971z M36.148,69.923c1.615-0.515,2.667-2.603,2.404-4.959
	c-0.29-2.589-2.055-4.515-3.942-4.304c-0.917,0.104-1.692,0.693-2.216,1.568C32.498,65.318,33.935,68.064,36.148,69.923z
	 M64.293,25.113c-0.246,1.996-0.523,4.104-0.832,6.243c0.344,0.34,0.73,0.52,1.125,0.476c1.031-0.116,1.699-1.726,1.49-3.596
	C65.9,26.649,65.146,25.389,64.293,25.113z M75.264,19.765c-0.096-0.001-0.9-0.017-1.766-0.431l0,0
	c-0.891-0.422-1.846-1.302-2.063-2.979l0,0c-0.015-0.107,0.061-0.206,0.17-0.22l0,0c0.106-0.014,0.205,0.061,0.221,0.168l0,0
	c0.207,1.544,1.039,2.284,1.842,2.675l0,0c0.805,0.388,1.584,0.394,1.604,0.393l0,0c0.013,0,0.021,0.001,0.025,0.002l0,0l0,0
	c0.107,0.014,0.186,0.112,0.17,0.219l0,0c-0.012,0.1-0.098,0.172-0.193,0.172l0,0C75.27,19.766,75.268,19.766,75.264,19.765
	L75.264,19.765z M18.96,70.105l1.018-0.364l-0.761-0.148l0.062-0.959l2.204,0.599l0.528,1.192l-0.758,1.562l-0.872-0.527l0.39-0.619
	l-0.85,0.965l-0.826-0.867l1.02-0.451l-0.986,0.307l-0.143-0.389L18.96,70.105z M73.494,9.785c0.1,0.478,0.443,0.811,0.766,0.743
	c0.324-0.068,0.506-0.51,0.406-0.987S74.225,8.73,73.9,8.798C73.576,8.865,73.395,9.307,73.494,9.785z M70.85,10.28
	c0.221,0.45,0.652,0.689,0.963,0.538c0.312-0.153,0.388-0.641,0.166-1.089c-0.221-0.45-0.649-0.69-0.961-0.538
	C70.705,9.344,70.631,9.832,70.85,10.28z M79.889,15.911c0.062,0.294,0.281,0.497,0.492,0.453c0.211-0.044,0.332-0.318,0.271-0.612
	c-0.062-0.293-0.281-0.497-0.492-0.453C79.949,15.344,79.826,15.618,79.889,15.911z M78.195,16.292
	c0.135,0.273,0.383,0.426,0.555,0.342c0.172-0.085,0.203-0.375,0.07-0.647c-0.135-0.273-0.383-0.426-0.555-0.342
	S78.063,16.018,78.195,16.292z M66.967,97.715l-0.074,1.008l3.316-0.05l-0.295-1.351L66.967,97.715z M61.466,98.501l-0.172,0.958
	l4.103-0.113l-0.198-0.844L61.466,98.501L61.466,98.501z M41.843,97.715l0.07,0.901l3.635-0.263c0,0-0.13-1-0.196-1.031
	L41.843,97.715z M39.261,97.322h-4.127l-0.049,0.982l4.372-0.018L39.261,97.322z"/>
</svg>
