<?xml version="1.0" encoding="utf-8"?>
<!-- Generator: Adobe Illustrator 16.0.0, SVG Export Plug-In . SVG Version: 6.00 Build 0)  -->
<!DOCTYPE svg PUBLIC "-//W3C//DTD SVG 1.1//EN" "http://www.w3.org/Graphics/SVG/1.1/DTD/svg11.dtd">
<svg version="1.1" id="Layer_1" xmlns="http://www.w3.org/2000/svg" xmlns:xlink="http://www.w3.org/1999/xlink" x="0px" y="0px"
	 width="24.651px" height="24.749px" viewBox="4.131 3.611 24.651 24.749" enable-background="new 4.131 3.611 24.651 24.749"
	 xml:space="preserve">
<path d="M4.135,16.762c3.078,0,5.972,1.204,8.146,3.391c2.179,2.187,3.377,5.101,3.377,8.202h4.744
	c0-9.008-7.299-16.335-16.269-16.335L4.135,16.762L4.135,16.762z M4.141,8.354c10.973,0,19.898,8.976,19.898,20.006h4.743
	c0-13.646-11.055-24.749-24.643-24.749L4.141,8.354L4.141,8.354z M10.701,25.044c0,1.815-1.472,3.287-3.285,3.287
	c-1.814,0-3.285-1.472-3.285-3.287c0-1.813,1.471-3.285,3.285-3.285C9.23,21.759,10.701,23.231,10.701,25.044z"/>
</svg>
