<?xml version="1.0" encoding="utf-8"?>
<!-- Generator: Adobe Illustrator 16.0.0, SVG Export Plug-In . SVG Version: 6.00 Build 0)  -->
<!DOCTYPE svg PUBLIC "-//W3C//DTD SVG 1.1//EN" "http://www.w3.org/Graphics/SVG/1.1/DTD/svg11.dtd">
<svg version="1.1" id="Layer_1" xmlns="http://www.w3.org/2000/svg" xmlns:xlink="http://www.w3.org/1999/xlink" x="0px" y="0px"
	 width="100px" height="100px" viewBox="0 0 100 100" enable-background="new 0 0 100 100" xml:space="preserve">
<g>
	<path fill="none" stroke="#000000" d="M81.909,33.958c4.534-0.146,8.312,1.346,11.327,4.471c3.018,3.144,4.58,7.001,4.688,11.571
		c-0.108,4.57-1.671,8.419-4.688,11.544c-3.018,3.146-6.793,4.644-11.327,4.499c-7.679-0.613-14.552-0.561-20.622,0.162
		s-9.828,2.736-11.273,6.043c-1.463-3.307-5.23-5.32-11.301-6.043c-6.07-0.723-12.935-0.775-20.595-0.162
		c-4.535,0.145-8.311-1.354-11.328-4.499C3.755,58.419,2.184,54.57,2.075,50c0.108-4.57,1.68-8.428,4.715-11.571
		c3.017-3.125,6.793-4.616,11.328-4.471c7.66,0.596,14.525,0.542,20.595-0.163c6.07-0.723,9.837-2.737,11.301-6.043
		c1.445,3.306,5.203,5.32,11.273,6.043C67.357,34.5,74.23,34.554,81.909,33.958"/>
</g>
</svg>
