<?xml version="1.0" encoding="utf-8"?>
<!-- Generator: Adobe Illustrator 15.1.0, SVG Export Plug-In . SVG Version: 6.00 Build 0)  -->
<!DOCTYPE svg PUBLIC "-//W3C//DTD SVG 1.1//EN" "http://www.w3.org/Graphics/SVG/1.1/DTD/svg11.dtd">
<svg version="1.1" id="Layer_1" xmlns="http://www.w3.org/2000/svg" xmlns:xlink="http://www.w3.org/1999/xlink" x="0px" y="0px"
	 width="100px" height="100px" viewBox="0 0 100 100" enable-background="new 0 0 100 100" xml:space="preserve">
<path d="M32.875,8.894c0.023,0.08,0.043,0.161,0.063,0.241c-0.039-0.021-0.082-0.04-0.119-0.06
	C32.835,9.012,32.855,8.954,32.875,8.894z M36.264,4.659c-0.08,0-0.159,0-0.239,0c0.08,0.02,0.159,0.04,0.239,0.06
	C36.264,4.699,36.264,4.679,36.264,4.659z M52.842,12.401c-0.242,0.98-0.705,1.667-1.027,2.48
	C52.242,14.551,53.054,13.069,52.842,12.401z M28.824,17.242c0.04,0.021,0.08,0.042,0.12,0.064c-0.043-0.223-0.023-0.186-0.12-0.305
	C28.824,17.08,28.824,17.162,28.824,17.242z M92.351,24.806c-0.319-0.243-0.645-0.652-1.027-0.785
	c0.331,0.64,0.879,1.052,1.088,1.814c-0.061,0.042-0.117,0.08-0.183,0.121c-0.371-0.042-0.72,0.054-1.028-0.061
	c-0.616-0.234-0.762-0.924-1.57-1.028c0,0.121,0,0.241,0,0.361c-0.941-0.027-1.315-0.705-1.998-0.968
	c-0.794-0.307-1.736,0.117-2.541-0.06c-0.565-0.221-1.131-0.445-1.695-0.665c-0.886,0-1.773,0-2.661,0
	c-1.896-0.121-3.791-0.243-5.687-0.364c-1.536-0.29-4.411-1.139-5.99-0.847c-3.243,0.6-6.478,1.867-9.498,2.784
	c-1.573,0.263-3.148,0.525-4.719,0.787c-0.589,0.041-1.171,0.081-1.756,0.121c0,0-0.76,0.819-0.849,0.908
	c-0.005,1.193,0.169,2.128,0.184,3.146c-0.38-0.05-0.303-0.094-0.485-0.302c-0.16,0.08-0.322,0.16-0.485,0.241
	c-0.037-0.062-0.08-0.122-0.117-0.181c0.117-0.423-0.396-1.202-0.726-1.573c-1.604,1.222-4.279,4.75-5.204,6.656
	c-0.356,0.732-1.247,1.51-0.725,2.782c0.273,0.528,0.928,0.805,1.268,1.271c1.11,1.518,2.412,3.331,2.966,5.145
	c1.276,0.114,2.401,0.63,3.448,0.968c2.909,0.94,5.69,1.708,8.288,2.964c1.021,0.494,2.978,1.838,4.356,1.39
	c0.226-2.746,3.269-3.269,5.567-3.871c-0.083-0.635,0.291-1.215,0.725-1.514c0.868-0.597,1.97-0.411,3.086-0.848
	c1.285-0.497,2.484-2.341,3.935-2.175c0.517,0.589,1.25,0.75,1.51,1.633c0.537,1.819-2.201,4.029-3.206,4.66
	c-0.725,0.24-1.453,0.482-2.178,0.725c-0.021-0.1-0.04-0.203-0.061-0.303c-0.816,0.28-1.25,1.861-1.633,2.601
	c-0.402,0.565-0.808,1.13-1.21,1.695c-0.988,1.71-1.316,3.774-3.267,4.477c-2.4,0.862-5.547-0.146-7.625-0.668
	c-1.177-0.292-4.522-1.088-5.747-0.905c-1.502,0.223-3.674,0.465-5.387,0.18c-1.57-0.279-3.144-0.563-4.72-0.845
	c-0.971,2.843-4.15,3.811-6.895,4.901c-2.98,1.182-6.489,2.821-9.621,3.566c-0.99,0.103-1.978,0.202-2.963,0.305
	c-2.461,0.448-5.09,1.1-7.021,2.179c0.083,2.198,0.16,4.396,0.243,6.595c-0.303,0.763-0.608,1.533-0.908,2.298
	c-0.18,0.865-0.362,1.733-0.545,2.602c-0.603,2.135-1.211,4.276-1.813,6.414c-0.196,0.945-0.236,2.45,0.12,3.206
	c0.312,0.657,1.419,1.116,1.028,2.302c-0.488,1.481-2.438,1.867-3.206,3.083c-0.183,0.426-0.363,0.845-0.546,1.271
	c-0.563,0.968-1.39,1.947-1.938,2.906c-0.23,0.411,0.018,0.825-0.359,1.085c-0.188,0.034-0.229-0.021-0.426-0.117
	c-0.193,0.668-1.639,2.213-2.538,1.876c-0.082-0.063-0.162-0.123-0.242-0.183c0.203-0.677,0.043-1.56,0.242-2.602
	c0.266-1.41,0.583-3.303,1.028-4.781c0.953-3.175,2.066-6.213,2.724-9.559c0.316-1.624-0.031-3.806,0.239-5.564
	c0.021-1.676,0.04-3.349,0.061-5.024c0.205-1.361,0.462-3.203,0.12-4.539c-0.309-1.222-1.53-3.506-0.785-4.839
	c0.708-1.262,4.45-3.181,5.93-3.932c4.59-2.335,9.215-5.219,14.762-6.534c0,0-0.316-3.917-0.239-4.296
	c0.143-0.728,0.383-1.513,0.18-2.599c-0.12-0.345-0.239-0.688-0.362-1.032c-0.399-1.446,0.083-4.057-0.183-5.566
	c0-1.07,0-2.138,0-3.206c-0.571-3.326-0.426-7.463-1.211-10.709c-0.448,0.156-0.671,0.691-1.027,0.968
	c0.226-0.645,0.876-0.968,0.785-1.693c-0.283-0.306-0.531-0.504-0.905-0.728c-0.02,0-0.04,0-0.06,0
	c0.003,0.482-0.009,1.447-0.246,1.753c0.043-0.685,0.086-1.369,0.123-2.057c-0.1-0.408-0.371-1.357-0.183-1.996
	c0.202-0.322,0.405-0.645,0.605-0.966c-0.08-0.041-0.16-0.08-0.24-0.123c0.06,0.02,0.12,0.043,0.18,0.062
	c0.696-0.28,1.217-1.149,1.573-1.756c-0.183,0.001-0.479,0.03-0.665-0.119c0-0.023,0-0.043,0-0.063
	c0.61-0.231,1.271-0.654,1.636-1.148c-0.942,0.206-2.198,1.19-3.029,1.029c0.043,0,0.086,0,0.123,0
	c0.163-0.124,0.322-0.244,0.485-0.365c-0.359,0.041-0.729,0.183-0.668,0.484c-0.848,1.129-2.021,1.379-2.841,2.361
	c-0.939,1.116-1.23,2.418-2.361,3.326c0.329-1.01,1.143-1.7,1.573-2.599c-0.022,0-0.04,0-0.06,0c-0.197,0.201-2.11,2.12-2.358,2.237
	c0-0.02,0-0.04,0-0.06c0.431-0.824,0.974-1.499,1.539-2.138c-0.117,0.158-0.229,0.322-0.331,0.505
	c0.925-0.443,1.336-1.42,2.058-2.059c-0.06,0.143-0.122,0.283-0.183,0.425c0.626-0.585,1.254-1.17,1.876-1.753
	c-0.04,0-0.08,0-0.12,0c-0.828,0.842-1.813,1.374-2.644,2.156c0.365-0.403,0.729-0.811,1.07-1.253
	c-1.612,0.535-2.317,1.665-3.571,2.424c0.183-0.263,0.362-0.527,0.546-0.788c-0.263,0.14-0.522,0.284-0.785,0.424
	c0-0.081,0-0.163,0-0.243c1.986-1.254,3.488-2.982,5.504-4.175c0.04,0.043,0.08,0.082,0.12,0.123
	c-0.18,0.14-0.363,0.281-0.543,0.422c0,0.023,0,0.042,0,0.06c0.7-0.167,2.016-0.799,2.418-1.331c0-0.02,0-0.039,0-0.06
	c-0.522,0.22-1.047,0.442-1.572,0.665c0.04-0.06,0.079-0.122,0.122-0.181c0.611-0.199,1.662-0.692,1.996-1.21
	c0-0.021,0-0.042,0-0.06c-1.673,0.33-3.555,2.033-4.962,2.902c-0.477,0.297-1.656,1.119-2.358,0.728
	c0.843-0.03,2.062-0.421,2.418-0.966c-0.382,0.2-1.104,0.672-1.633,0.481c2.01-0.328,3.357-1.964,4.842-2.902
	c0.617-0.393,1.821-0.695,2.176-1.332c0.022-0.141,0.04-0.283,0.06-0.422c-0.02,0-0.037,0-0.06,0
	c-2.267,1.002-4.882,2.267-6.895,3.75c-0.625,0.563-1.254,1.129-1.876,1.691c0.402-0.502,0.806-1.005,1.208-1.51
	c-0.32,0.223-0.646,0.444-0.965,0.665c0.159-0.201,0.319-0.402,0.482-0.605c-0.104,0.04-0.2,0.083-0.303,0.123
	c0.52-0.756,1.756-1.07,2.601-1.515c0.928-0.624,1.855-1.249,2.783-1.874c0.769-0.363,1.533-0.728,2.299-1.09
	c0.043-0.283,0.08-0.564,0.122-0.848c-2.403,0.493-3.985,2.334-5.749,3.512c0.202-0.533,0.819-0.677,1.09-1.151
	c-0.402,0.241-0.805,0.484-1.207,0.728c0-0.061,0-0.121,0-0.183c1.147-0.687,2.298-1.37,3.445-2.058
	c0.141-0.229,0.263-0.451,0.38-0.668c-0.094,0.177-0.205,0.347-0.26,0.548c0.021,0,0.04,0,0.063,0
	c0.809-0.424,1.613-0.848,2.422-1.271c0.082-0.588,0.103-1.158,0.359-1.633c-0.058,0-0.117,0-0.18,0
	c-0.7,0.541-1.576,1.122-2.153,1.898c0.271-0.477,0.557-0.919,1.003-1.295c0.465-0.284,0.928-0.563,1.39-0.846
	c0.266-0.386,0.528-0.765,0.791-1.149c0.463-0.424,0.925-0.849,1.391-1.271c-0.977,0.439-1.842,1.006-2.724,1.576
	c-0.24,0.26-0.485,0.522-0.726,0.785c0.274-0.618,0.688-0.822,1.091-1.271c0.117-0.323,0.237-0.648,0.362-0.971
	c0.948-1.45,2.678-2.427,4.959-2.358c-0.02,0.042-0.04,0.081-0.06,0.123c-0.183,0-0.365,0-0.543,0c0,0.019,0,0.04,0,0.06
	c1.445,0.046,2.271,0.27,3.506,0c0,0.02,0,0.04,0,0.06c-0.119,0.08-0.239,0.161-0.359,0.24c3.748-0.28,4.91-3.008,8.953-2.844
	c-0.061-0.08-0.123-0.16-0.183-0.241c-0.405-0.174-1.017-0.41-1.453-0.664c0.962,0.046,1.19,0.615,1.818,0.847
	c0.343,0.039,0.683,0.081,1.027,0.121c0.403,0.157,0.865,0.651,1.211,0.785c0.077,0.031,0.619-0.206,0.907-0.12
	c0.466,0.14,0.531,0.584,0.846,0.848c0.536,0.442,1.943,0.954,2.724,1.268c-0.046,0.571,1.059,2.14,1.995,2.118
	c-0.02,0.08-0.04,0.163-0.06,0.243c-0.403-0.04-0.745-0.154-0.908,0.122c-0.274,0.215-0.217,0.684-0.362,1.029
	c-0.28,0.363-0.565,0.726-0.846,1.088c-0.122,0.705-0.242,1.412-0.365,2.118c-0.02,0-0.04,0-0.06,0c0-0.161,0-0.322,0-0.482
	c-0.04,0.019-0.08,0.04-0.12,0.06c-0.191,1.142-1.433,4.503-2.118,5.021c-0.04-0.02-0.08-0.039-0.123-0.062c0-0.019,0-0.04,0-0.06
	c0.515-0.268,0.54-0.682,0.726-1.271c-0.058,0.02-0.117,0.043-0.18,0.063c-0.123,0.511-0.46,1.133-0.846,1.389
	c0.021-0.08,0.037-0.162,0.058-0.242c-0.254,0.093-0.146-0.011-0.24,0.242c0.24,0.384,0.482,0.766,0.726,1.152
	c0.103-0.021,0.202-0.04,0.303-0.063c0.04-0.444,0.034-0.588-0.12-0.906c0.117,0.084,0.037,0.007,0.12,0.121
	c0.273,0.303,0.128,0.922,0.18,1.331c0.163,0.02,0.325,0.04,0.485,0.06c-0.021,0.04-0.04,0.081-0.061,0.12
	c-0.708,0.019-0.354,0.128-0.665-0.3c-0.291,0.134-0.371,0.053-0.545,0.3c0,0.023,0,0.042,0,0.06
	c0.06,0.023,0.123,0.043,0.183,0.064c0.16,0,0.322,0,0.485,0c-0.063,0.118-0.123,0.241-0.183,0.361c0.1,0,0.2,0,0.3,0
	c-0.021,0.04-0.037,0.083-0.058,0.122c-0.242-0.019-0.485-0.039-0.728-0.06c0.049,0.441-0.103,0.387-0.423,0.485
	c0.052,0.438,0.098,0.698,0,1.028c0.871-0.14,1.624-0.801,2.783-0.668c1.896,0.183,3.792,0.366,5.688,0.547
	c2.943-0.504,5.89-1.009,8.833-1.515c0.646,0.062,1.29,0.123,1.936,0.183c1.07,0.041,2.139,0.081,3.206,0.121
	c2.804,0.513,5.247,1.138,8.23,1.633c2.179,0.363,3.892,0.511,5.927,0.848c0.768,0,1.533,0,2.301,0
	c1.065,0.251,3.435,2.247,3.691,3.326c-0.06,0.021-0.122,0.042-0.183,0.063C92.554,24.764,92.454,24.784,92.351,24.806z
	 M53.388,5.263c0.048,0.505,0.796,1.412,1.087,1.452c-0.017-0.06-0.039-0.12-0.06-0.182C54.075,6.109,53.729,5.687,53.388,5.263z
	 M54.232,7.137c0-0.019,0-0.039,0-0.06c-0.132-0.188-0.177-0.217-0.423-0.303c0.018,0.146-0.011,0.077,0.061,0.246
	C53.992,7.057,54.112,7.098,54.232,7.137z M53.388,7.319c0.06,0.646,0.122,1.291,0.183,1.938c0.04-0.02,0.08-0.043,0.12-0.063
	c0.217-0.528,0.514-0.862,0.725-1.513C54.192,7.485,53.759,7.354,53.388,7.319z M53.024,7.562c0.069,0.77,0.12,1.408,0.061,2.178
	c0.08-0.061,0.162-0.121,0.242-0.183C53.355,8.913,53.367,7.868,53.024,7.562z M53.145,10.828c-0.02-0.04-0.04-0.079-0.06-0.12
	c0.094-0.231,0.202-0.617,0.12-0.846c-0.061,0.079-0.12,0.161-0.181,0.241C52.987,10.491,52.894,10.672,53.145,10.828z
	 M52.057,13.006c0.061-0.04,0.12-0.08,0.18-0.12c0.109-0.317,0.335-0.773,0.184-1.15C52.3,12.161,52.177,12.585,52.057,13.006z
	 M30.212,16.88c-0.08,0.04-0.157,0.08-0.237,0.12c0,0.04,0,0.08,0,0.123C30.243,17.035,30.217,17.062,30.212,16.88z M37.597,17.666
	c0.018,0,0.038,0,0.061,0c0.02,0,0.04,0,0.06,0c-0.025-0.266-0.011-0.368-0.12-0.485C37.597,17.343,37.597,17.503,37.597,17.666z
	 M34.631,7.02c0.585,0,1.171,0,1.756,0c-0.426-0.348-1.398-0.414-2.118-0.425c-0.12,0.04-0.243,0.08-0.365,0.12
	c-0.32,0.214-0.571,0.845-0.663,1.271c0.061,0,0.12,0,0.181,0c0.639-0.198,3.006-0.488,3.392-0.849
	C36.201,7.177,35.07,7.345,34.631,7.02z M34.631,9.74c0-0.022,0-0.042,0-0.061c-0.12,0-0.239,0-0.362,0
	c-0.848,0.475-1.214,0.821-1.815,1.514c0.103-0.304,0.202-0.608,0.302-0.908c-0.485,0.364-0.713,0.851-1.087,1.329
	c0.131-0.646,0.567-0.955,0.907-1.389c-0.02-0.02-0.04-0.042-0.063-0.063c-0.528,0.2-1.645,0.575-1.936,1.03
	c-0.061,0.321-0.123,0.644-0.18,0.968C32.272,11.933,33.743,11.142,34.631,9.74z M34.208,12.524
	c-0.285,0.301-0.564,0.605-0.848,0.905c0.1,0,0.203,0,0.303,0C33.892,13.189,34.414,12.813,34.208,12.524z M32.818,13.492
	c0.017,0,0.037,0,0.057,0c0-0.042,0-0.08,0-0.121c0.129-0.145,0.148-0.147,0.123-0.303C32.938,13.209,32.875,13.349,32.818,13.492z
	 M32.333,14.459c0,0.08,0,0.163,0,0.243c0.02,0,0.04,0,0.06,0C32.373,14.622,32.353,14.54,32.333,14.459z M31.848,14.157
	c-0.086,0.08-0.105,0.076-0.18,0.182c0.02,0,0.04,0,0.06,0c0.12-0.042,0.242-0.082,0.362-0.122
	C32.007,14.198,31.928,14.177,31.848,14.157z M31.97,12.524c-0.042,0-0.079,0-0.122,0c-0.061,0.08-0.12,0.16-0.18,0.243
	C31.851,12.672,31.861,12.695,31.97,12.524z M31.425,13.553c-0.063,0-0.12,0-0.18,0c-0.439,0.235-0.551,0.29-0.791,0.725
	c0.135,0.11,0.135-0.004,0.123,0.12c-0.1,0.102-0.203,0.203-0.303,0.304c0,0.019,0,0.04,0,0.06
	C30.862,14.639,31.156,13.986,31.425,13.553z M30.274,15.245c-0.04,0.08-0.08,0.164-0.123,0.244
	C30.277,15.362,30.328,15.404,30.274,15.245z M31.484,12.524c-0.18,0-0.362,0-0.542,0c-0.223,0.062-0.445,0.12-0.668,0.183
	c-0.018,0.2-0.04,0.403-0.063,0.604C30.657,13.132,31.331,13.011,31.484,12.524z M33.48,9.922c-0.08,0-0.16,0-0.24,0
	c-0.103,0.121-0.202,0.241-0.303,0.364c0.018,0,0.04,0,0.061,0C33.161,10.163,33.32,10.043,33.48,9.922z M33.783,8.29
	c-1.328,0.79-2.489,0.717-3.146,2.357C31.688,10.484,33.954,9.378,33.783,8.29z M30.7,7.319c-0.123,0.122-0.246,0.243-0.363,0.363
	C30.534,7.591,30.771,7.519,30.7,7.319z M31.362,7.02c-0.037,0-0.08,0-0.117,0c-0.06,0.079-0.123,0.159-0.183,0.238
	C31.162,7.178,31.262,7.098,31.362,7.02z M35.719,5.203c-0.469-0.355-1.49-0.318-2.298-0.304c-1.251,0.625-2.599,1.13-3.084,2.484
	C31.87,6.566,33.611,5.241,35.719,5.203z M32.03,8.29c0.322-0.083,0.646-0.163,0.968-0.246c0.151-0.328,0.497-1.01,0.362-1.21
	c-0.485,0.38-0.928,0.742-1.33,1.392C32.03,8.247,32.03,8.27,32.03,8.29z M31.787,8.711c0.021,0,0.043,0,0.061,0
	C32.03,8.59,32.213,8.47,32.393,8.35c-0.04,0-0.083,0-0.12,0c-0.159,0.1-0.322,0.2-0.485,0.3C31.787,8.67,31.787,8.69,31.787,8.711z
	 M30.819,8.711c0.141-0.042,0.28-0.08,0.426-0.122c0.091-0.26,0.451-0.691,0.3-0.785C31.305,8.107,31.063,8.41,30.819,8.711z
	 M29.912,10.406c0.02,0,0.04,0,0.063,0c0.037-0.02,0.08-0.04,0.117-0.06c0.148-0.303,1.165-1.259,0.851-1.513
	c-0.263,0.16-0.525,0.323-0.791,0.485C30.071,9.679,29.992,10.043,29.912,10.406z M30.151,12.221c0.086-0.226,0.22-0.808,0-1.028
	c-0.097,0.36-0.199,0.724-0.3,1.088C29.952,12.261,30.055,12.241,30.151,12.221z M29.609,14.581
	c0.202-0.042,0.402-0.082,0.603-0.122c0.082-0.203,0.162-0.402,0.242-0.605c-0.037,0-0.08,0-0.117,0
	C30.049,14.098,29.809,14.235,29.609,14.581z M29.124,15.245c0.411-0.067,0.779-0.24,0.968-0.542
	c-0.037-0.023-0.08-0.042-0.117-0.06c-0.325,0.231-0.605,0.128-0.851,0.542C29.124,15.205,29.124,15.225,29.124,15.245z
	 M29.792,15.489c-0.06,0.042-0.123,0.079-0.183,0.12c0,0.039,0,0.08,0,0.122c0.143-0.083,0.285-0.163,0.425-0.241
	C29.952,15.489,29.872,15.489,29.792,15.489z M27.916,16.942c-0.122,0.158-0.242,0.321-0.362,0.481
	C27.791,17.302,27.962,17.173,27.916,16.942z M28.521,15.67c-0.885,0.643-2.338,1.021-3.246,1.746
	c0.043-0.041,0.068-0.09,0.04-0.174c-0.103,0.101-0.203,0.204-0.306,0.304c0.095-0.031,0.16-0.058,0.217-0.091
	c-0.205,0.171-0.391,0.355-0.52,0.574C25.338,17.803,29.053,16.178,28.521,15.67z M29.732,15.245c-0.083,0-0.163,0-0.243,0
	c-0.24,0.141-0.485,0.286-0.728,0.425c-0.021,0.1-0.04,0.203-0.061,0.303C29.044,15.73,29.39,15.489,29.732,15.245z M30.577,15.85
	c-0.061,0-0.123,0-0.18,0c-0.326,0.159-0.674,0.188-0.908,0.424c0,0.019,0,0.042,0,0.06C29.897,16.274,30.34,16.095,30.577,15.85z
	 M31.668,15.306c-0.021-0.039-0.04-0.082-0.061-0.122c-0.162,0.02-0.325,0.04-0.485,0.06c0-0.02,0-0.04,0-0.06
	c0.26-0.188,0.731-0.062,1.028-0.12c0-0.163,0-0.323,0-0.484c-0.083-0.019-0.163-0.042-0.243-0.06
	c-0.662,0.37-0.959,0.368-1.33,1.028C30.942,15.467,31.305,15.386,31.668,15.306z M30.397,17c0.02,0.02,0.04,0.04,0.057,0.06
	c0.169-0.123,0.585-0.541,0.426-0.605C30.72,16.638,30.557,16.818,30.397,17z M32.213,17.787c-0.043-0.082-0.08-0.162-0.123-0.242
	c-0.083-0.02-0.162-0.042-0.242-0.06c0.068-0.31,0.231-1.374,0.06-1.573c-0.705,0.759-1.707,1.306-2.175,2.295
	C30.472,17.565,31.031,17.64,32.213,17.787z M33.843,17.848c0.114-0.869,0.503-1.539,0.911-2.118c0-0.02,0-0.042,0-0.06
	c-0.203,0-0.405,0-0.605,0c-0.143,0.12-0.285,0.243-0.426,0.363c-0.456-0.312-0.642-0.244-1.27-0.12
	c-0.109,0.497-0.3,1.248-0.181,1.753C32.784,17.73,33.181,17.848,33.843,17.848z M35.236,15.67c-0.061,0-0.12,0-0.183,0
	c-0.594,0.588-0.797,1.256-1.085,2.178c0.22,0.06,0.439,0.12,0.662,0.18C35.051,17.508,35.064,16.438,35.236,15.67z M35.356,8.044
	c-0.021,0-0.04,0-0.061,0c-0.425,0.083-0.848,0.163-1.271,0.246c-0.242,0.38-0.482,0.765-0.725,1.148
	c0.585-0.2,1.17-0.404,1.753-0.605C35.182,8.542,35.367,8.283,35.356,8.044z M35.661,8.65c0.34-0.16,0.683-0.321,1.028-0.482
	c-0.023-0.04-0.043-0.082-0.061-0.123c-0.079,0-0.162,0-0.242,0c-0.103,0.042-0.203,0.083-0.303,0.123
	C35.867,8.286,35.762,8.416,35.661,8.65z M36.872,19.116c0.208-0.501,0.605-0.791,0.725-1.389c-0.14-0.164-0.146-0.261-0.365-0.364
	c-0.419,0.321-0.845,0.646-1.268,0.971c0,0.16,0,0.32,0,0.482c0.24,0.06,0.482,0.12,0.726,0.182
	C36.807,19.182,36.709,19.059,36.872,19.116z M37.657,18.272c-0.14,0.299-0.283,0.604-0.426,0.908
	c0.021,0.019,0.04,0.039,0.061,0.06C37.5,19.139,38.229,18.705,37.657,18.272z M38.625,17.486c-0.06,0-0.123,0-0.183,0
	c-0.16,0.198-0.323,0.402-0.482,0.605c0,0.182,0,0.363,0,0.542c0.04-0.02,0.08-0.04,0.12-0.062c0.094-0.41,0.331-0.566,0.545-0.845
	C38.625,17.646,38.625,17.565,38.625,17.486z M34.571,7.077c0-0.02,0-0.039,0-0.057c-0.143-0.042-0.283-0.083-0.423-0.123
	C34.279,7.016,34.34,7.038,34.571,7.077z M22.771,22.988c0.111-0.08,0.034-0.064,0.061-0.118
	C22.814,22.909,22.792,22.95,22.771,22.988z"/>
</svg>
