<?xml version="1.0" encoding="utf-8"?>
<!-- Generator: Adobe Illustrator 16.0.0, SVG Export Plug-In . SVG Version: 6.00 Build 0)  -->
<!DOCTYPE svg PUBLIC "-//W3C//DTD SVG 1.1//EN" "http://www.w3.org/Graphics/SVG/1.1/DTD/svg11.dtd">
<svg version="1.1" id="Layer_1" xmlns="http://www.w3.org/2000/svg" xmlns:xlink="http://www.w3.org/1999/xlink" x="0px" y="0px"
	 width="100px" height="100px" viewBox="0 0 100 100" enable-background="new 0 0 100 100" xml:space="preserve">
<path fill="#010101" d="M25.579,5.599c-0.75-1.742-2.563-0.579-2.563-0.579c-1.967,1.236-3.984,0.575-4.604,0.156
	c-0.1-0.067-0.269-0.196-0.5-0.354c0.473-0.004,1.006-0.203,1.204-0.997c0,0,0.065-1.046-0.664-1.079c0,0-0.731-0.065-0.781,0.637
	c0,0-0.013,0.333,0.298,0.446c0.038,0.025,0.083,0.039,0.129,0.035c0.004,0,0.01-0.001,0.014-0.002
	c0.022,0.002,0.045,0.005,0.069,0.005c0,0-0.013-0.005-0.033-0.014c0.093-0.033,0.156-0.133,0.146-0.246
	c-0.013-0.133-0.119-0.234-0.24-0.224c-0.119,0.008-0.206,0.122-0.194,0.254c-0.053-0.07-0.09-0.155-0.085-0.258
	c0,0,0.059-0.53,0.663-0.484c0,0,0.554,0.069,0.466,0.842c0,0-0.209,0.768-1.081,0.758c0,0-0.372-0.045-0.665-0.159l-0.007,0.022
	c-1.461-0.786-3.99-1.539-7.052,0.494c-0.004,0.003-0.008,0.005-0.013,0.008c-0.087,0.055-0.671,0.383-1.39-0.168
	C8.67,4.672,8.648,4.656,8.627,4.641C8.479,4.513,8.332,4.4,8.187,4.3c0.388-0.077,0.765-0.33,0.924-0.969
	c0,0,0.066-1.047-0.664-1.079c0,0-0.731-0.066-0.781,0.636c0,0-0.012,0.333,0.298,0.447C8.001,3.36,8.047,3.374,8.094,3.37
	c0.004,0,0.009-0.001,0.015-0.002C8.131,3.37,8.153,3.372,8.178,3.374c0,0-0.013-0.005-0.034-0.015
	C8.238,3.327,8.3,3.227,8.29,3.114C8.278,2.981,8.169,2.88,8.05,2.89C7.931,2.898,7.845,3.013,7.855,3.144
	C7.803,3.075,7.766,2.99,7.771,2.887c0,0,0.059-0.531,0.663-0.485c0,0,0.553,0.07,0.465,0.843c0,0-0.208,0.768-1.08,0.758
	c0,0-0.079-0.009-0.191-0.031C7.413,3.866,7.211,3.787,7.037,3.736L6.979,3.72c-0.338-0.094-0.56-0.107-0.56-0.107
	c-0.76-0.042-1.413,0.192-1.935,0.618C4.622,3.51,4.363,2.99,4.065,2.647c-0.138-0.173-0.29-0.302-0.444-0.396L3.62,2.25
	C3.577,2.222,3.54,2.199,3.509,2.181V2.19c-0.5-0.255-0.978-0.179-0.978-0.179C3.73,2.098,4.022,2.985,4.093,3.354
	C4.174,4.162,3.508,4.87,3.508,4.87v0.012c-0.005,0.007-0.009,0.013-0.014,0.02C3.222,5.093,2.739,5.359,2.209,5.306
	C1.84,5.236,0.953,4.943,0.867,3.744c0,0-0.077,0.477,0.178,0.979H1.037c0.018,0.031,0.041,0.068,0.07,0.112
	c0,0,0.001,0.001,0.001,0.002C1.202,4.99,1.331,5.143,1.503,5.282c0.342,0.295,0.858,0.551,1.572,0.419
	c-0.003,0.01-0.007,0.02-0.01,0.029C2.655,6.246,2.43,6.888,2.47,7.634c0,0,0.013,0.222,0.107,0.56L2.593,8.25
	c0.051,0.175,0.129,0.377,0.236,0.592C2.85,8.955,2.86,9.033,2.86,9.033c0.01,0.872-0.758,1.08-0.758,1.08
	C1.33,10.202,1.26,9.648,1.26,9.648C1.214,9.043,1.744,8.984,1.744,8.984C1.846,8.979,1.932,9.016,2,9.069
	C1.869,9.058,1.755,9.145,1.747,9.264c-0.01,0.12,0.091,0.227,0.224,0.24c0.113,0.01,0.213-0.052,0.245-0.146
	C2.226,9.379,2.23,9.391,2.23,9.391C2.229,9.367,2.228,9.345,2.225,9.323c0.001-0.005,0.002-0.01,0.002-0.015
	c0.004-0.046-0.01-0.092-0.035-0.129C2.078,8.868,1.746,8.88,1.746,8.88C1.043,8.931,1.11,9.661,1.11,9.661
	c0.032,0.729,1.08,0.664,1.08,0.664c0.639-0.159,0.892-0.536,0.968-0.923c0.1,0.145,0.213,0.293,0.341,0.441
	C3.514,9.864,3.531,9.887,3.55,9.912c0.551,0.718,0.224,1.302,0.168,1.39c-0.002,0.004-0.005,0.008-0.007,0.013
	c-2.034,3.062-1.28,5.59-0.495,7.052l-0.024,0.008c0.114,0.293,0.159,0.665,0.159,0.665c0.01,0.872-0.758,1.081-0.758,1.081
	c-0.772,0.088-0.842-0.465-0.842-0.465c-0.046-0.604,0.485-0.663,0.485-0.663c0.103-0.005,0.188,0.031,0.257,0.084
	c-0.132-0.012-0.246,0.075-0.254,0.194c-0.01,0.12,0.091,0.227,0.224,0.24c0.114,0.01,0.213-0.052,0.246-0.146
	c0.009,0.021,0.015,0.034,0.015,0.034c-0.001-0.024-0.003-0.047-0.006-0.069c0-0.005,0.002-0.01,0.002-0.015
	c0.004-0.046-0.01-0.091-0.035-0.129c-0.114-0.311-0.447-0.299-0.447-0.299c-0.702,0.051-0.636,0.781-0.636,0.781
	c0.032,0.729,1.079,0.664,1.079,0.664c0.794-0.197,0.991-0.73,0.997-1.203c0.157,0.231,0.286,0.4,0.354,0.499
	c0.418,0.62,1.079,2.637-0.156,4.604c0,0-1.163,1.813,0.579,2.563c0,0,1.215,0.279,1.393-0.57c0,0,0.218-0.843-0.595-1.038
	c0,0-0.387-0.079-0.581,0.264c-0.037,0.04-0.061,0.089-0.066,0.145c0,0.006,0.001,0.012,0.001,0.018
	c-0.008,0.025-0.015,0.051-0.02,0.08c0,0,0.008-0.015,0.023-0.037c0.02,0.116,0.125,0.209,0.26,0.218
	c0.158,0.011,0.296-0.095,0.309-0.238c0.013-0.14-0.104-0.265-0.261-0.277c0.091-0.049,0.199-0.076,0.318-0.05
	c0,0,0.611,0.171,0.44,0.871c0,0-0.188,0.636-1.077,0.383c0,0-0.859-0.392-0.681-1.413c0,0,0.125-0.428,0.314-0.749
	c0,0,1.737-2.807,0.228-4.866c0,0-1.898-2.675-1.192-5.361c0,0,0.337-1.357,1.121-2.471c0,0,0.292-0.418,0.267-0.804
	c0.283,0.188,1.139,0.823,1.586,1.927c0.184,0.483,0.276,1.044,0.194,1.678c0,0-0.317,1.945-1.835,2.032c0,0-1.124-0.099-1.1-1.285
	c0,0-0.054-0.898,0.705-0.809c0,0,0.629,0.113,0.57,0.806c0,0-0.052,0.428-0.395,0.461l-0.038,0.069
	c0.43,0.059,0.545-0.465,0.545-0.465c0.052-0.357,0.019-0.89-0.663-1.002c-0.681-0.113-0.825,0.63-0.825,0.63
	c-0.153,1.567,1.152,1.687,1.152,1.687s1.818,0.113,2.17-2.322c0.253-1.759-0.907-3.131-1.572-3.759c0,0-0.669-0.529-1.211-1.258
	c0.283,0.093,0.627,0.076,1.037-0.162c0,0,0.799-0.682,0.315-1.228c0,0-0.46-0.571-1.001-0.118c0,0-0.247,0.222-0.112,0.524
	c0.008,0.045,0.029,0.086,0.064,0.117C4.245,8.427,4.25,8.429,4.253,8.432C4.267,8.45,4.281,8.468,4.298,8.486
	c0,0-0.006-0.014-0.014-0.034c0.088,0.045,0.203,0.02,0.277-0.066c0.087-0.101,0.085-0.248-0.005-0.328
	c-0.089-0.08-0.231-0.063-0.318,0.037C4.25,8.008,4.286,7.923,4.363,7.856c0,0,0.422-0.327,0.81,0.139c0,0,0.334,0.447-0.282,0.92
	c0,0-0.697,0.384-1.296-0.25c0,0-0.068-0.09-0.149-0.218C3.32,8.143,3.248,7.828,3.271,7.517c0.058-0.782,0.353-1.425,0.667-1.904
	c0.002,0,0.003,0,0.003,0S4.063,5.42,4.272,5.171c0.081-0.058,0.13-0.089,0.13-0.089s0-0.001,0-0.002
	c0.479-0.315,1.123-0.61,1.905-0.667c0.312-0.023,0.626,0.049,0.93,0.175c0.128,0.081,0.218,0.149,0.218,0.149
	c0.633,0.599,0.249,1.296,0.249,1.296C7.23,6.65,6.784,6.314,6.784,6.314c-0.466-0.387-0.14-0.809-0.14-0.809
	C6.71,5.427,6.797,5.392,6.883,5.379C6.784,5.466,6.767,5.608,6.846,5.697c0.08,0.091,0.227,0.093,0.328,0.006
	C7.26,5.629,7.285,5.514,7.24,5.425c0.021,0.008,0.034,0.014,0.034,0.014C7.256,5.422,7.238,5.409,7.22,5.396
	c-0.002-0.005-0.005-0.01-0.008-0.013C7.181,5.347,7.14,5.326,7.094,5.319C6.792,5.185,6.57,5.431,6.57,5.431
	C6.117,5.972,6.688,6.432,6.688,6.432c0.546,0.483,1.227-0.314,1.227-0.314c0.236-0.409,0.253-0.753,0.161-1.035
	c0.729,0.541,1.258,1.21,1.258,1.21c0.627,0.665,2,1.825,3.759,1.572c2.436-0.353,2.322-2.171,2.322-2.171s-0.119-1.305-1.687-1.152
	c0,0-0.743,0.144-0.63,0.826c0.112,0.681,0.645,0.714,1.002,0.663c0,0,0.524-0.116,0.464-0.544l-0.069,0.038
	c-0.034,0.343-0.461,0.395-0.461,0.395c-0.694,0.059-0.807-0.569-0.807-0.569c-0.088-0.759,0.81-0.705,0.81-0.705
	c1.185-0.024,1.284,1.1,1.284,1.1c-0.086,1.517-2.032,1.835-2.032,1.835c-0.634,0.083-1.194-0.01-1.678-0.194
	C10.508,6.94,9.873,6.084,9.685,5.801c0.386,0.026,0.804-0.267,0.804-0.267c1.114-0.785,2.471-1.122,2.471-1.122
	c2.686-0.706,5.36,1.192,5.36,1.192c2.06,1.511,4.867-0.227,4.867-0.227c0.321-0.19,0.749-0.315,0.749-0.315
	c1.021-0.179,1.412,0.681,1.412,0.681c0.253,0.889-0.383,1.077-0.383,1.077c-0.7,0.17-0.871-0.44-0.871-0.44
	c-0.025-0.119,0.002-0.227,0.05-0.318c0.013,0.157,0.136,0.274,0.277,0.261c0.143-0.012,0.249-0.151,0.238-0.309
	c-0.009-0.135-0.102-0.239-0.218-0.259c0.022-0.015,0.037-0.023,0.037-0.023c-0.029,0.005-0.055,0.012-0.08,0.02
	c-0.006,0-0.012-0.001-0.019-0.001c-0.056,0.004-0.104,0.029-0.144,0.066c-0.343,0.193-0.264,0.581-0.264,0.581
	c0.194,0.813,1.039,0.595,1.039,0.595C25.858,6.814,25.579,5.599,25.579,5.599z M95.547,26.76c1.74-0.75,0.578-2.563,0.578-2.563
	c-1.234-1.967-0.574-3.985-0.156-4.604c0.066-0.1,0.195-0.269,0.354-0.5c0.006,0.473,0.202,1.006,0.995,1.204
	c0,0,1.048,0.065,1.078-0.664c0,0,0.066-0.731-0.635-0.781c0,0-0.332-0.012-0.447,0.299c-0.022,0.038-0.037,0.082-0.035,0.129
	c0,0.005,0.003,0.01,0.003,0.015c-0.003,0.022-0.005,0.044-0.005,0.069c0,0,0.005-0.013,0.015-0.034
	c0.033,0.094,0.133,0.156,0.246,0.146c0.133-0.013,0.231-0.12,0.226-0.24c-0.009-0.119-0.123-0.206-0.255-0.194
	c0.068-0.053,0.154-0.09,0.257-0.085c0,0,0.53,0.059,0.483,0.664c0,0-0.067,0.554-0.842,0.465c0,0-0.769-0.208-0.759-1.081
	c0,0,0.045-0.372,0.158-0.664l-0.021-0.006c0.784-1.462,1.539-3.99-0.494-7.053c-0.004-0.004-0.006-0.008-0.008-0.013
	c-0.058-0.087-0.384-0.672,0.166-1.39c0.021-0.024,0.036-0.047,0.053-0.069c0.129-0.147,0.24-0.295,0.343-0.44
	c0.075,0.388,0.327,0.764,0.969,0.923c0,0,1.047,0.066,1.078-0.664c0,0,0.065-0.73-0.636-0.781c0,0-0.334-0.012-0.446,0.298
	c-0.025,0.038-0.039,0.083-0.035,0.129c0,0.005,0.002,0.01,0.002,0.015c-0.002,0.022-0.004,0.044-0.006,0.068
	c0,0,0.006-0.013,0.014-0.033c0.033,0.093,0.135,0.156,0.248,0.146c0.133-0.012,0.232-0.119,0.225-0.24
	C98.246,9.112,98.133,9.025,98,9.037c0.068-0.053,0.154-0.09,0.258-0.085c0,0,0.531,0.059,0.484,0.663c0,0-0.068,0.554-0.842,0.465
	c0,0-0.771-0.208-0.758-1.081c0,0,0.008-0.078,0.028-0.191c0.104-0.216,0.187-0.417,0.233-0.592l0.019-0.057
	c0.095-0.338,0.104-0.56,0.104-0.56c0.043-0.761-0.19-1.413-0.614-1.935c0.719,0.137,1.239-0.121,1.584-0.418
	c0.172-0.138,0.301-0.291,0.396-0.445c0,0,0-0.001,0.002-0.002c0.026-0.043,0.051-0.081,0.069-0.112h-0.01
	c0.254-0.5,0.178-0.978,0.178-0.978C99.047,4.907,98.158,5.2,97.791,5.27c-0.809,0.081-1.518-0.585-1.518-0.585h-0.012
	c-0.007-0.005-0.015-0.009-0.021-0.014c-0.189-0.272-0.457-0.755-0.402-1.285c0.068-0.368,0.361-1.255,1.563-1.342
	c0,0-0.479-0.076-0.979,0.178v-0.01c-0.033,0.019-0.07,0.042-0.113,0.071l-0.002,0.001C96.154,2.378,96,2.507,95.861,2.68
	c-0.295,0.341-0.551,0.858-0.42,1.572c-0.008-0.004-0.021-0.007-0.027-0.011c-0.518-0.41-1.158-0.636-1.904-0.595
	c0,0-0.221,0.013-0.561,0.107l-0.057,0.015C92.716,3.82,92.516,3.897,92.3,4.004c-0.112,0.021-0.192,0.031-0.192,0.031
	c-0.871,0.01-1.078-0.759-1.078-0.759c-0.088-0.771,0.465-0.841,0.465-0.841c0.605-0.046,0.664,0.484,0.664,0.484
	c0.006,0.102-0.031,0.188-0.086,0.258c0.012-0.133-0.074-0.247-0.193-0.255c-0.121-0.009-0.229,0.091-0.24,0.224
	c-0.01,0.113,0.053,0.213,0.146,0.245c-0.021,0.01-0.033,0.015-0.033,0.015c0.021-0.001,0.045-0.003,0.066-0.006
	c0.006,0.001,0.012,0.003,0.016,0.003c0.047,0.003,0.092-0.01,0.131-0.036c0.311-0.114,0.299-0.446,0.299-0.446
	c-0.051-0.702-0.783-0.636-0.783-0.636c-0.727,0.032-0.662,1.079-0.662,1.079c0.158,0.639,0.535,0.892,0.925,0.968
	c-0.146,0.101-0.295,0.214-0.44,0.342c-0.021,0.014-0.044,0.031-0.068,0.05c-0.719,0.552-1.303,0.224-1.389,0.169
	c-0.007-0.003-0.011-0.005-0.015-0.008c-3.063-2.033-5.593-1.28-7.054-0.496l-0.006-0.022c-0.293,0.114-0.664,0.16-0.664,0.16
	c-0.873,0.01-1.082-0.758-1.082-0.758c-0.088-0.772,0.468-0.842,0.468-0.842c0.604-0.046,0.661,0.485,0.661,0.485
	c0.007,0.102-0.03,0.187-0.086,0.257c0.015-0.132-0.073-0.246-0.192-0.255s-0.229,0.091-0.237,0.225
	c-0.013,0.113,0.051,0.213,0.145,0.245c-0.02,0.01-0.031,0.015-0.031,0.015c0.023-0.001,0.045-0.003,0.066-0.006
	c0.006,0,0.012,0.002,0.016,0.002c0.047,0.003,0.092-0.01,0.129-0.035c0.311-0.114,0.299-0.447,0.299-0.447
	c-0.051-0.702-0.779-0.636-0.779-0.636c-0.729,0.032-0.666,1.08-0.666,1.08c0.199,0.793,0.732,0.991,1.203,0.996
	c-0.229,0.157-0.397,0.286-0.498,0.353c-0.619,0.419-2.637,1.08-4.604-0.156c0,0-1.813-1.163-2.563,0.578
	c0,0-0.277,1.215,0.567,1.393c0,0,0.845,0.218,1.039-0.595c0,0,0.078-0.387-0.267-0.581c-0.038-0.037-0.088-0.061-0.145-0.066
	c-0.006,0-0.012,0-0.02,0c-0.023-0.007-0.049-0.014-0.078-0.02c0,0,0.016,0.008,0.037,0.023c-0.115,0.02-0.209,0.125-0.219,0.26
	C75.26,6.2,75.369,6.338,75.51,6.351s0.264-0.104,0.275-0.261c0.049,0.091,0.076,0.199,0.053,0.318c0,0-0.172,0.611-0.873,0.44
	c0,0-0.635-0.188-0.381-1.076c0,0,0.391-0.86,1.41-0.681c0,0,0.428,0.125,0.748,0.315c0,0,2.809,1.736,4.867,0.227
	c0,0,2.676-1.897,5.358-1.192c0,0,1.359,0.336,2.474,1.121c0,0,0.418,0.292,0.805,0.267c-0.189,0.283-0.824,1.139-1.928,1.586
	c-0.484,0.184-1.045,0.276-1.68,0.194c0,0-1.943-0.318-2.031-1.835c0,0,0.1-1.124,1.285-1.099c0,0,0.897-0.054,0.811,0.705
	c0,0-0.113,0.628-0.809,0.569c0,0-0.429-0.051-0.461-0.395l-0.07-0.038c-0.059,0.43,0.467,0.545,0.467,0.545
	c0.355,0.052,0.891,0.019,1.002-0.663s-0.631-0.825-0.631-0.825c-1.566-0.153-1.688,1.151-1.688,1.151S84.4,7.543,86.836,7.895
	c1.76,0.254,3.133-0.907,3.76-1.572c0,0,0.527-0.67,1.256-1.21c-0.09,0.283-0.074,0.626,0.164,1.037c0,0,0.68,0.798,1.228,0.314
	c0,0,0.569-0.46,0.118-1.001c0,0-0.223-0.247-0.524-0.113c-0.045,0.008-0.086,0.03-0.114,0.065
	c-0.005,0.002-0.009,0.008-0.011,0.011c-0.019,0.014-0.035,0.028-0.055,0.044c0,0,0.014-0.005,0.032-0.014
	c-0.045,0.088-0.02,0.204,0.066,0.277c0.104,0.088,0.248,0.085,0.33-0.005c0.078-0.089,0.061-0.231-0.037-0.318
	c0.086,0.013,0.17,0.048,0.238,0.126c0,0,0.326,0.422-0.141,0.81c0,0-0.443,0.334-0.92-0.282c0,0-0.384-0.697,0.25-1.296
	c0,0,0.09-0.068,0.217-0.148c0.305-0.126,0.619-0.199,0.93-0.176c0.781,0.058,1.426,0.353,1.904,0.667c0,0.001,0,0.002,0,0.002
	s0.193,0.122,0.44,0.332c0.058,0.081,0.091,0.13,0.091,0.13s0,0,0.002,0c0.313,0.479,0.608,1.123,0.668,1.905
	c0.022,0.31-0.049,0.625-0.177,0.929c-0.079,0.127-0.147,0.218-0.147,0.218c-0.6,0.633-1.297,0.249-1.297,0.249
	c-0.615-0.474-0.279-0.92-0.279-0.92c0.387-0.466,0.809-0.139,0.809-0.139c0.078,0.067,0.113,0.153,0.125,0.239
	c-0.086-0.099-0.229-0.116-0.316-0.037c-0.092,0.08-0.094,0.227-0.006,0.328c0.074,0.086,0.189,0.111,0.277,0.066
	c-0.008,0.021-0.014,0.035-0.014,0.035c0.018-0.019,0.029-0.036,0.045-0.054c0.004-0.002,0.008-0.005,0.012-0.008
	c0.035-0.031,0.057-0.073,0.063-0.117c0.135-0.304-0.111-0.525-0.111-0.525c-0.539-0.452-1.002,0.119-1.002,0.119
	c-0.481,0.546,0.313,1.228,0.313,1.228c0.41,0.238,0.756,0.254,1.037,0.161c-0.541,0.73-1.211,1.258-1.211,1.258
	c-0.664,0.627-1.824,2-1.572,3.759c0.354,2.435,2.173,2.322,2.173,2.322s1.307-0.119,1.151-1.687c0,0-0.145-0.743-0.826-0.63
	c-0.682,0.113-0.715,0.645-0.662,1.002c0,0,0.115,0.524,0.546,0.465l-0.037-0.069c-0.345-0.034-0.396-0.461-0.396-0.461
	c-0.06-0.693,0.569-0.806,0.569-0.806c0.759-0.088,0.705,0.81,0.705,0.81c0.021,1.186-1.103,1.284-1.103,1.284
	c-1.518-0.086-1.836-2.032-1.836-2.032c-0.082-0.634,0.013-1.195,0.195-1.678c0.447-1.104,1.303-1.74,1.586-1.926
	c-0.025,0.386,0.266,0.803,0.266,0.803c0.785,1.113,1.123,2.471,1.123,2.471c0.705,2.686-1.192,5.361-1.192,5.361
	c-1.511,2.059,0.229,4.867,0.229,4.867c0.188,0.321,0.313,0.749,0.313,0.749c0.179,1.02-0.683,1.412-0.683,1.412
	c-0.889,0.253-1.077-0.383-1.077-0.383c-0.171-0.7,0.44-0.872,0.44-0.872c0.119-0.025,0.228,0.002,0.316,0.051
	c-0.156,0.012-0.273,0.136-0.262,0.276c0.014,0.143,0.152,0.25,0.311,0.238c0.135-0.009,0.24-0.101,0.26-0.217
	c0.016,0.022,0.023,0.037,0.023,0.037c-0.006-0.028-0.014-0.054-0.021-0.079c0-0.006,0.002-0.012,0.002-0.018
	c-0.006-0.056-0.029-0.104-0.065-0.145c-0.193-0.342-0.58-0.264-0.58-0.264c-0.813,0.194-0.597,1.039-0.597,1.039
	C94.332,27.038,95.547,26.76,95.547,26.76z M74.42,95.545c0.752,1.741,2.563,0.578,2.563,0.578c1.97-1.234,3.986-0.575,4.605-0.156
	c0.1,0.067,0.27,0.196,0.5,0.354c-0.475,0.007-1.006,0.203-1.203,0.998c0,0-0.064,1.047,0.662,1.078c0,0,0.73,0.064,0.783-0.637
	c0,0,0.012-0.332-0.301-0.445c-0.037-0.024-0.082-0.039-0.129-0.034c-0.006,0-0.01,0.002-0.017,0.002
	c-0.021-0.002-0.043-0.005-0.067-0.007c0,0,0.014,0.007,0.033,0.016c-0.095,0.032-0.154,0.133-0.146,0.246
	c0.012,0.133,0.116,0.232,0.237,0.224c0.119-0.009,0.205-0.12,0.195-0.255c0.053,0.07,0.09,0.155,0.084,0.26
	c0,0-0.057,0.528-0.662,0.482c0,0-0.555-0.068-0.467-0.843c0,0,0.209-0.769,1.08-0.759c0,0,0.373,0.045,0.666,0.16l0.006-0.022
	c1.463,0.784,3.99,1.539,7.053-0.494c0.004-0.003,0.008-0.005,0.015-0.008c0.086-0.056,0.672-0.384,1.389,0.168
	c0.025,0.02,0.05,0.036,0.07,0.052c0.146,0.128,0.295,0.241,0.438,0.341c-0.389,0.076-0.766,0.329-0.924,0.97
	c0,0-0.066,1.047,0.664,1.08c0,0,0.729,0.064,0.781-0.639c0,0,0.012-0.332-0.301-0.445c-0.037-0.024-0.082-0.037-0.129-0.035
	c-0.004,0-0.01,0.002-0.014,0.004c-0.023-0.004-0.046-0.006-0.07-0.006c0,0,0.016,0.004,0.033,0.014
	c-0.093,0.033-0.154,0.133-0.146,0.246c0.014,0.133,0.119,0.232,0.237,0.225c0.119-0.009,0.207-0.123,0.195-0.255
	c0.053,0.069,0.09,0.155,0.084,0.257c0,0-0.059,0.531-0.662,0.485c0,0-0.555-0.07-0.465-0.843c0,0,0.207-0.77,1.08-0.758
	c0,0,0.078,0.008,0.189,0.029c0.217,0.105,0.418,0.186,0.594,0.235l0.057,0.017c0.338,0.094,0.562,0.106,0.562,0.106
	c0.76,0.04,1.411-0.191,1.937-0.618c-0.14,0.721,0.12,1.24,0.418,1.584c0.139,0.174,0.291,0.302,0.442,0.396
	c0,0.002,0.002,0.002,0.002,0.002c0.045,0.027,0.082,0.053,0.11,0.069v-0.011c0.502,0.256,0.98,0.18,0.98,0.18
	c-1.199-0.087-1.492-0.974-1.563-1.343c-0.082-0.81,0.586-1.519,0.586-1.519V96.26c0.004-0.007,0.008-0.014,0.014-0.02
	c0.271-0.191,0.754-0.457,1.285-0.404c0.367,0.07,1.254,0.362,1.342,1.563c0,0,0.076-0.479-0.18-0.979l0.01-0.001
	c-0.02-0.03-0.041-0.069-0.07-0.112c0,0,0,0,0-0.002c-0.096-0.152-0.223-0.306-0.396-0.443c-0.343-0.297-0.856-0.551-1.57-0.42
	c0.002-0.01,0.009-0.021,0.011-0.028c0.409-0.517,0.637-1.157,0.596-1.904c0,0-0.014-0.222-0.107-0.56l-0.016-0.059
	c-0.051-0.175-0.131-0.377-0.236-0.592c-0.021-0.113-0.029-0.191-0.029-0.191c-0.012-0.871,0.758-1.077,0.758-1.077
	c0.771-0.091,0.843,0.464,0.843,0.464c0.047,0.604-0.484,0.664-0.484,0.664c-0.104,0.005-0.188-0.032-0.258-0.085
	c0.133,0.011,0.248-0.076,0.256-0.194c0.011-0.121-0.092-0.229-0.226-0.24c-0.112-0.011-0.215,0.053-0.245,0.146
	c-0.011-0.021-0.017-0.033-0.017-0.033c0.002,0.022,0.004,0.046,0.006,0.067c0,0.006-0.002,0.011-0.002,0.016
	c-0.004,0.046,0.011,0.092,0.035,0.13c0.113,0.312,0.447,0.3,0.447,0.3c0.701-0.052,0.635-0.781,0.635-0.781
	c-0.031-0.729-1.078-0.664-1.078-0.664c-0.641,0.16-0.893,0.535-0.969,0.925c-0.102-0.146-0.213-0.293-0.342-0.441
	c-0.016-0.021-0.031-0.044-0.053-0.067c-0.549-0.719-0.223-1.303-0.166-1.392c0.004-0.004,0.004-0.008,0.008-0.013
	c2.033-3.063,1.279-5.59,0.494-7.053l0.021-0.006c-0.113-0.293-0.158-0.664-0.158-0.664c-0.01-0.873,0.758-1.082,0.758-1.082
	c0.773-0.088,0.842,0.467,0.842,0.467c0.047,0.604-0.484,0.662-0.484,0.662c-0.102,0.007-0.186-0.03-0.256-0.084
	c0.131,0.012,0.246-0.075,0.254-0.194c0.01-0.12-0.092-0.228-0.225-0.239c-0.113-0.012-0.213,0.053-0.244,0.146
	c-0.012-0.021-0.016-0.034-0.016-0.034c0,0.024,0.004,0.047,0.006,0.069c-0.002,0.004-0.002,0.01-0.002,0.015
	c-0.004,0.047,0.01,0.091,0.035,0.129c0.113,0.312,0.444,0.3,0.444,0.3c0.703-0.052,0.638-0.781,0.638-0.781
	c-0.033-0.729-1.08-0.664-1.08-0.664c-0.793,0.197-0.99,0.73-0.996,1.203c-0.156-0.229-0.285-0.398-0.354-0.5
	c-0.418-0.619-1.077-2.637,0.156-4.604c0,0,1.162-1.813-0.578-2.563c0,0-1.215-0.277-1.396,0.568c0,0-0.217,0.846,0.597,1.038
	c0,0,0.387,0.078,0.582-0.264c0.034-0.039,0.062-0.091,0.063-0.146c0-0.006,0-0.013,0-0.019c0.008-0.025,0.014-0.051,0.021-0.079
	c0,0-0.01,0.014-0.023,0.036c-0.021-0.114-0.125-0.208-0.26-0.219c-0.158-0.012-0.297,0.098-0.311,0.238s0.104,0.266,0.262,0.276
	c-0.092,0.049-0.197,0.073-0.316,0.05c0,0-0.611-0.171-0.438-0.871c0,0,0.188-0.636,1.073-0.383c0,0,0.861,0.395,0.683,1.412
	c0,0-0.125,0.428-0.313,0.749c0,0-1.736,2.807-0.228,4.864c0,0,1.896,2.677,1.19,5.361c0,0-0.338,1.356-1.121,2.471
	c0,0-0.293,0.418-0.268,0.806c-0.283-0.188-1.137-0.823-1.586-1.929c-0.184-0.482-0.275-1.045-0.193-1.678
	c0,0,0.318-1.945,1.836-2.031c0,0,1.123,0.099,1.101,1.283c0,0,0.056,0.897-0.705,0.812c0,0-0.627-0.114-0.567-0.808
	c0,0,0.051-0.429,0.395-0.461l0.039-0.069c-0.432-0.06-0.545,0.465-0.545,0.465c-0.053,0.356-0.02,0.89,0.662,1.003
	c0.682,0.111,0.826-0.631,0.826-0.631c0.151-1.567-1.152-1.688-1.152-1.688s-1.818-0.113-2.172,2.321
	c-0.254,1.759,0.906,3.131,1.572,3.759c0,0,0.67,0.528,1.211,1.258c-0.283-0.093-0.627-0.076-1.037,0.162
	c0,0-0.799,0.682-0.314,1.229c0,0,0.461,0.57,1.002,0.117c0,0,0.246-0.221,0.111-0.523c-0.008-0.045-0.029-0.086-0.064-0.116
	c-0.002-0.004-0.006-0.007-0.012-0.01c-0.014-0.019-0.027-0.035-0.043-0.053c0,0,0.006,0.013,0.014,0.032
	c-0.088-0.045-0.205-0.021-0.277,0.065c-0.088,0.103-0.086,0.248,0.004,0.328c0.091,0.08,0.232,0.063,0.318-0.036
	c-0.014,0.086-0.049,0.172-0.125,0.238c0,0-0.422,0.326-0.811-0.141c0,0-0.334-0.444,0.281-0.918c0,0,0.697-0.387,1.295,0.248
	c0,0,0.07,0.09,0.15,0.219c0.125,0.304,0.196,0.619,0.174,0.93c-0.058,0.781-0.353,1.425-0.666,1.902c-0.002,0-0.004,0-0.004,0
	s-0.121,0.192-0.332,0.442c-0.08,0.058-0.129,0.089-0.129,0.089s0,0.002,0,0.004c-0.479,0.313-1.123,0.606-1.904,0.666
	c-0.312,0.021-0.625-0.05-0.93-0.177c-0.127-0.08-0.22-0.147-0.22-0.147c-0.633-0.599-0.248-1.295-0.248-1.295
	c0.474-0.616,0.92-0.281,0.92-0.281c0.468,0.387,0.14,0.811,0.14,0.811c-0.066,0.076-0.15,0.11-0.238,0.125
	c0.102-0.087,0.115-0.229,0.037-0.318c-0.08-0.09-0.228-0.094-0.328-0.006c-0.086,0.074-0.109,0.189-0.064,0.277
	c-0.023-0.008-0.035-0.013-0.035-0.013c0.021,0.017,0.035,0.03,0.053,0.043c0.005,0.005,0.009,0.009,0.011,0.013
	c0.03,0.035,0.071,0.057,0.117,0.064c0.303,0.135,0.522-0.113,0.522-0.113c0.453-0.54-0.119-1.001-0.119-1.001
	c-0.545-0.483-1.227,0.313-1.227,0.313c-0.236,0.412-0.254,0.756-0.16,1.037c-0.73-0.541-1.258-1.209-1.258-1.209
	c-0.629-0.666-2-1.826-3.762-1.572c-2.434,0.353-2.32,2.171-2.32,2.171s0.119,1.306,1.688,1.151c0,0,0.742-0.146,0.629-0.826
	c-0.11-0.681-0.645-0.713-1.002-0.662c0,0-0.522,0.115-0.465,0.545l0.07-0.037c0.033-0.344,0.459-0.395,0.459-0.395
	c0.693-0.061,0.809,0.566,0.809,0.566c0.088,0.759-0.811,0.706-0.811,0.706c-1.186,0.022-1.283-1.101-1.283-1.101
	c0.086-1.519,2.031-1.836,2.031-1.836c0.635-0.082,1.195,0.012,1.68,0.193c1.104,0.447,1.738,1.303,1.926,1.586
	c-0.387-0.025-0.803,0.268-0.803,0.268c-1.115,0.783-2.473,1.121-2.473,1.121c-2.686,0.705-5.359-1.191-5.359-1.191
	c-2.061-1.512-4.867,0.229-4.867,0.229c-0.319,0.188-0.748,0.313-0.748,0.313c-1.021,0.18-1.414-0.683-1.414-0.683
	c-0.252-0.889,0.386-1.076,0.386-1.076c0.698-0.172,0.868,0.439,0.868,0.439c0.027,0.119,0,0.227-0.049,0.317
	c-0.012-0.157-0.135-0.274-0.274-0.261c-0.146,0.013-0.25,0.149-0.238,0.31c0.011,0.134,0.103,0.239,0.218,0.259
	c-0.021,0.016-0.035,0.023-0.035,0.023c0.026-0.006,0.055-0.012,0.08-0.02c0.004,0,0.012,0,0.018,0
	c0.055-0.007,0.105-0.029,0.145-0.065c0.342-0.194,0.265-0.582,0.265-0.582c-0.193-0.813-1.039-0.595-1.039-0.595
	C74.141,94.33,74.42,95.545,74.42,95.545z M4.453,74.383c-1.742,0.75-0.579,2.563-0.579,2.563c1.235,1.969,0.575,3.984,0.156,4.604
	c-0.067,0.099-0.196,0.269-0.353,0.5c-0.005-0.474-0.203-1.007-0.997-1.204c0,0-1.046-0.063-1.079,0.664c0,0-0.066,0.73,0.636,0.781
	c0,0,0.333,0.012,0.446-0.299c0.026-0.038,0.04-0.082,0.035-0.129c0-0.006-0.001-0.01-0.002-0.016
	c0.002-0.021,0.005-0.043,0.006-0.068c0,0-0.005,0.013-0.015,0.033c-0.032-0.095-0.132-0.155-0.245-0.146
	c-0.133,0.014-0.233,0.118-0.224,0.24c0.008,0.117,0.122,0.203,0.254,0.191c-0.069,0.055-0.155,0.09-0.257,0.086
	c0,0-0.531-0.06-0.485-0.664c0,0,0.07-0.554,0.842-0.465c0,0,0.768,0.209,0.758,1.08c0,0-0.045,0.373-0.159,0.665l0.022,0.007
	c-0.785,1.461-1.538,3.989,0.496,7.053c0.002,0.005,0.005,0.009,0.007,0.013c0.055,0.088,0.383,0.673-0.168,1.392
	c-0.019,0.024-0.036,0.047-0.051,0.067c-0.127,0.147-0.24,0.298-0.34,0.44c-0.077-0.388-0.329-0.765-0.968-0.924
	c0,0-1.047-0.063-1.079,0.664c0,0-0.066,0.73,0.636,0.78c0,0,0.333,0.013,0.446-0.299c0.025-0.037,0.039-0.082,0.035-0.129
	c0-0.005-0.001-0.011-0.002-0.015c0.002-0.021,0.005-0.045,0.006-0.068c0,0-0.005,0.013-0.015,0.033
	c-0.032-0.095-0.133-0.156-0.245-0.146c-0.133,0.012-0.234,0.119-0.225,0.239c0.009,0.12,0.123,0.208,0.254,0.196
	c-0.07,0.056-0.155,0.09-0.257,0.086c0,0-0.53-0.06-0.484-0.664c0,0,0.069-0.555,0.841-0.467c0,0,0.768,0.209,0.759,1.082
	c0,0-0.01,0.077-0.031,0.19c-0.106,0.216-0.185,0.417-0.235,0.592L2.577,92.98c-0.094,0.338-0.107,0.561-0.107,0.561
	c-0.042,0.761,0.192,1.413,0.618,1.936c-0.72-0.138-1.241,0.121-1.584,0.418c-0.173,0.14-0.302,0.291-0.396,0.444
	c0,0,0,0.002-0.001,0.002c-0.029,0.043-0.052,0.08-0.07,0.111h0.01c-0.255,0.502-0.179,0.979-0.179,0.979
	c0.087-1.199,0.974-1.492,1.342-1.563c0.808-0.082,1.517,0.584,1.517,0.584h0.01c0.006,0.005,0.013,0.01,0.02,0.015
	c0.191,0.271,0.458,0.757,0.405,1.284C4.091,98.12,3.799,99.008,2.6,99.094c0,0,0.477,0.077,0.979-0.178v0.01
	c0.032-0.019,0.069-0.043,0.112-0.068c0-0.002,0.001-0.002,0.002-0.002c0.153-0.097,0.306-0.225,0.445-0.396
	c0.295-0.342,0.551-0.857,0.419-1.572c0.01,0.004,0.02,0.008,0.03,0.012c0.516,0.41,1.158,0.637,1.903,0.596
	c0,0,0.222-0.016,0.561-0.107l0.056-0.016c0.175-0.053,0.376-0.129,0.592-0.236c0.113-0.021,0.192-0.029,0.192-0.029
	c0.872-0.011,1.08,0.76,1.08,0.76c0.089,0.771-0.465,0.841-0.465,0.841c-0.607,0.046-0.665-0.483-0.665-0.483
	c-0.005-0.103,0.032-0.188,0.085-0.258C7.914,98.098,8.002,98.21,8.12,98.22c0.121,0.009,0.228-0.092,0.24-0.225
	c0.01-0.113-0.053-0.214-0.146-0.245c0.021-0.01,0.034-0.016,0.034-0.016c-0.024,0.002-0.046,0.004-0.068,0.006
	c-0.005,0-0.01-0.002-0.015-0.002c-0.046-0.004-0.091,0.01-0.129,0.035c-0.311,0.112-0.298,0.445-0.298,0.445
	c0.05,0.701,0.781,0.637,0.781,0.637c0.729-0.031,0.663-1.078,0.663-1.078c-0.159-0.642-0.536-0.894-0.923-0.969
	c0.145-0.103,0.293-0.216,0.441-0.344c0.021-0.015,0.043-0.029,0.068-0.05c0.718-0.554,1.303-0.226,1.39-0.17
	c0.004,0.004,0.008,0.007,0.012,0.009c3.063,2.033,5.591,1.279,7.052,0.495l0.006,0.021c0.293-0.112,0.665-0.16,0.665-0.16
	c0.873-0.01,1.081,0.76,1.081,0.76c0.088,0.771-0.465,0.843-0.465,0.843c-0.604,0.046-0.664-0.483-0.664-0.483
	c-0.005-0.104,0.032-0.188,0.085-0.259c-0.012,0.134,0.076,0.246,0.194,0.257c0.121,0.01,0.228-0.093,0.24-0.227
	c0.011-0.111-0.052-0.213-0.146-0.244c0.021-0.011,0.033-0.017,0.033-0.017c-0.024,0.003-0.046,0.005-0.068,0.007
	c-0.004-0.001-0.01-0.002-0.015-0.002c-0.047-0.005-0.091,0.01-0.129,0.033c-0.311,0.115-0.298,0.447-0.298,0.447
	c0.05,0.702,0.781,0.637,0.781,0.637c0.729-0.031,0.664-1.079,0.664-1.079c-0.197-0.796-0.73-0.991-1.203-0.996
	c0.23-0.157,0.4-0.286,0.5-0.354c0.619-0.42,2.636-1.08,4.604,0.155c0,0,1.813,1.163,2.563-0.579c0,0,0.278-1.215-0.569-1.393
	c0,0-0.845-0.219-1.04,0.595c0,0-0.078,0.388,0.265,0.581c0.04,0.037,0.089,0.063,0.145,0.066c0.006,0,0.012-0.002,0.018-0.002
	c0.025,0.009,0.051,0.017,0.08,0.021c0,0-0.015-0.008-0.037-0.021c0.116-0.021,0.208-0.127,0.217-0.263
	c0.012-0.157-0.095-0.296-0.238-0.309c-0.14-0.015-0.264,0.104-0.276,0.262c-0.049-0.092-0.076-0.198-0.05-0.317
	c0,0,0.171-0.61,0.871-0.438c0,0,0.636,0.188,0.383,1.076c0,0-0.392,0.858-1.412,0.681c0,0-0.428-0.126-0.749-0.314
	c0,0-2.808-1.735-4.867-0.228c0,0-2.675,1.897-5.36,1.192c0,0-1.358-0.336-2.472-1.121c0,0-0.417-0.293-0.803-0.268
	c0.188-0.283,0.823-1.14,1.927-1.586c0.483-0.186,1.043-0.277,1.678-0.193c0,0,1.945,0.315,2.032,1.834c0,0-0.098,1.125-1.284,1.101
	c0,0-0.898,0.056-0.81-0.704c0,0,0.114-0.629,0.807-0.568c0,0,0.428,0.053,0.461,0.395l0.069,0.039
	c0.059-0.432-0.464-0.545-0.464-0.545c-0.357-0.053-0.89-0.02-1.002,0.663c-0.113,0.681,0.63,0.823,0.63,0.823
	c1.568,0.153,1.687-1.15,1.687-1.15s0.113-1.816-2.322-2.17c-1.76-0.255-3.132,0.904-3.759,1.57c0,0-0.529,0.67-1.258,1.209
	c0.093-0.28,0.076-0.625-0.162-1.034c0,0-0.682-0.8-1.227-0.314c0,0-0.571,0.46-0.119,1.001c0,0,0.222,0.247,0.525,0.112
	c0.045-0.008,0.086-0.029,0.117-0.063c0.003-0.002,0.006-0.01,0.009-0.013c0.017-0.014,0.035-0.026,0.053-0.044
	c0,0-0.013,0.005-0.034,0.016c0.044-0.092,0.02-0.205-0.066-0.279c-0.102-0.086-0.248-0.084-0.328,0.006
	c-0.079,0.09-0.063,0.23,0.037,0.318c-0.087-0.015-0.172-0.049-0.24-0.127c0,0-0.327-0.422,0.14-0.81c0,0,0.446-0.335,0.92,0.281
	c0,0,0.384,0.694-0.249,1.295c0,0-0.09,0.067-0.218,0.147c-0.304,0.127-0.619,0.198-0.93,0.176
	c-0.782-0.058-1.425-0.353-1.904-0.666c0-0.002,0-0.004,0-0.004s-0.195-0.121-0.443-0.332c-0.057-0.08-0.089-0.131-0.089-0.131
	s-0.001,0-0.003,0.002c-0.314-0.479-0.608-1.123-0.667-1.904c-0.022-0.313,0.049-0.625,0.176-0.93
	C3.527,92.6,3.595,92.51,3.595,92.51c0.599-0.633,1.296-0.249,1.296-0.249c0.616,0.474,0.282,0.921,0.282,0.921
	c-0.388,0.467-0.81,0.139-0.81,0.139c-0.077-0.065-0.112-0.151-0.125-0.238c0.087,0.102,0.229,0.117,0.318,0.038
	c0.091-0.081,0.093-0.229,0.005-0.329c-0.074-0.086-0.189-0.109-0.277-0.064c0.007-0.021,0.013-0.035,0.013-0.035
	c-0.017,0.021-0.031,0.037-0.044,0.055c-0.004,0.004-0.009,0.006-0.012,0.01c-0.035,0.03-0.057,0.072-0.064,0.117
	c-0.134,0.303,0.112,0.523,0.112,0.523C4.83,93.85,5.29,93.279,5.29,93.279c0.483-0.547-0.315-1.229-0.315-1.229
	c-0.41-0.237-0.753-0.255-1.037-0.161c0.542-0.729,1.21-1.259,1.21-1.259c0.665-0.627,1.826-1.999,1.572-3.759
	c-0.352-2.438-2.171-2.322-2.171-2.322s-1.305,0.12-1.152,1.688c0,0,0.144,0.744,0.826,0.632c0.681-0.112,0.714-0.646,0.663-1.003
	c0,0-0.115-0.523-0.545-0.465l0.038,0.067c0.343,0.034,0.395,0.464,0.395,0.464c0.059,0.691-0.569,0.805-0.569,0.805
	C3.446,86.826,3.5,85.926,3.5,85.926c-0.023-1.185,1.1-1.281,1.1-1.281c1.517,0.086,1.835,2.029,1.835,2.029
	c0.082,0.635-0.01,1.195-0.194,1.68c-0.447,1.104-1.303,1.738-1.586,1.926c0.025-0.385-0.267-0.803-0.267-0.803
	c-0.785-1.113-1.122-2.473-1.122-2.473c-0.705-2.688,1.192-5.359,1.192-5.359c1.51-2.061-0.227-4.865-0.227-4.865
	c-0.189-0.321-0.315-0.75-0.315-0.75c-0.179-1.021,0.681-1.412,0.681-1.412c0.889-0.254,1.077,0.384,1.077,0.384
	c0.171,0.699-0.44,0.871-0.44,0.871c-0.119,0.024-0.227-0.002-0.317-0.052c0.156-0.012,0.273-0.135,0.26-0.275
	c-0.012-0.145-0.151-0.249-0.309-0.238c-0.135,0.01-0.24,0.104-0.26,0.219c-0.015-0.022-0.023-0.039-0.023-0.039
	c0.005,0.029,0.012,0.057,0.02,0.08c0,0.007-0.002,0.014-0.001,0.02c0.006,0.057,0.03,0.104,0.066,0.146
	c0.194,0.342,0.582,0.265,0.582,0.265c0.813-0.194,0.595-1.039,0.595-1.039C5.667,74.105,4.453,74.383,4.453,74.383z"/>
</svg>
