<?xml version="1.0" encoding="utf-8"?>
<!-- Generator: Adobe Illustrator 16.0.0, SVG Export Plug-In . SVG Version: 6.00 Build 0)  -->
<!DOCTYPE svg PUBLIC "-//W3C//DTD SVG 1.1//EN" "http://www.w3.org/Graphics/SVG/1.1/DTD/svg11.dtd">
<svg version="1.1" id="Layer_1" xmlns="http://www.w3.org/2000/svg" xmlns:xlink="http://www.w3.org/1999/xlink" x="0px" y="0px"
	 width="28.938px" height="30.195px" viewBox="1.532 0.99 28.938 30.195" enable-background="new 1.532 0.99 28.938 30.195"
	 xml:space="preserve">
<path fill="#000000" d="M15.999,4.308c1.229,0.001,2.402,0.214,3.515,0.569L18.634,6.4h6.247l-1.563-2.706L21.758,0.99l-0.822,1.425
	c-1.54-0.563-3.2-0.878-4.936-0.878c-7.991,0-14.468,6.478-14.468,14.468c0,3.317,1.128,6.364,3.005,8.806l2.199-1.689
	c-1.518-1.973-2.431-4.435-2.436-7.115C4.312,9.545,9.539,4.318,15.999,4.308z M27.463,7.203l-2.2,1.69
	c1.519,1.972,2.431,4.433,2.436,7.113C27.687,22.467,22.46,27.694,16,27.705c-1.146-0.002-2.24-0.188-3.284-0.499l0.828-1.432H7.297
	l1.561,2.704l1.563,2.707l0.871-1.512c1.477,0.515,3.058,0.802,4.709,0.803c7.992-0.002,14.468-6.479,14.47-14.471
	C30.468,12.689,29.339,9.643,27.463,7.203z"/>
</svg>
