<?xml version="1.0" encoding="utf-8"?>
<!-- Generator: Adobe Illustrator 16.0.0, SVG Export Plug-In . SVG Version: 6.00 Build 0)  -->
<!DOCTYPE svg PUBLIC "-//W3C//DTD SVG 1.1//EN" "http://www.w3.org/Graphics/SVG/1.1/DTD/svg11.dtd">
<svg version="1.1" id="Layer_1" xmlns="http://www.w3.org/2000/svg" xmlns:xlink="http://www.w3.org/1999/xlink" x="0px" y="0px"
	 width="100px" height="100px" viewBox="0 0 100 100" enable-background="new 0 0 100 100" xml:space="preserve">
<path fill="#010101" d="M14.751,47.877L37.34,58.729l0.952-0.947L15.703,46.929L14.751,47.877z M19.163,43.151l34.019,16.166
	l0.971-0.938L20.136,42.213L19.163,43.151z M91.438,31.089c3.73-2.567,5.855-3.921,5.855-3.921L57.798,13.721
	c0,0-2.233-1.662-9.757,2.63C39.356,21.305,0.676,54.339,0.676,54.339l6.049,3.192c-2.491,2.109-4.019,3.412-4.019,3.412
	L51.3,86.596c0,0,14.358-28.65,30.761-40.757c10.778-7.955,17.265-12.066,17.265-12.066L91.438,31.089z M77.964,38.851
	c-15.712,11.691-29.467,39.36-29.467,39.36L3.468,53.945c0,0,37.137-31.764,45.374-36.687c6.367-3.804,8.84-2.033,8.84-2.033
	l36.313,12.479C93.995,27.706,88.289,31.168,77.964,38.851z M22.976,39.367l34.016,16.166l1.627-0.938L24.603,38.429L22.976,39.367z
	"/>
</svg>
