<svg xmlns="http://www.w3.org/2000/svg" width="173" height="318" x="0" y="0" id="svgcontent" viewBox="0 0 173 318" overflow="hidden"><defs><path id="svg_4" d="M-130.44174,-1630.04956A7361.81982,7361.81982 0 0 1 14593.19824,-1630.04956A7361.81982,7361.81982 0 0 1 -130.44174,-1630.04956A7361.81982,7361.81982 0 0 1 14593.19824,-1630.04956A7361.81982,7361.81982 0 0 1 -130.44174,-1630.04956" stroke="#000000" fill="#000000"/><path id="svg_3" d="M21.51204,347.71469Q135.31204,349.71469 249.10088,347.46469" stroke="#000000" fill="#000000"/><path fill="#000000" stroke="#000000" d="M-7891.59277,8347.52539A8021.40918,8021.40918 0 0 1 8151.22559,8347.52539A8021.40918,8021.40918 0 0 1 -7891.59277,8347.52539A8021.40918,8021.40918 0 0 1 8151.22559,8347.52539A8021.40918,8021.40918 0 0 1 -7891.59277,8347.52539" id="svg_2"/><path fill="#000000" stroke="#000000" d="M-7888.24316,8158.07471A8021.40918,8021.40918 0 0 1 8154.5752,8158.07471A8021.40918,8021.40918 0 0 1 -7888.24316,8158.07471A8021.40918,8021.40918 0 0 1 8154.5752,8158.07471A8021.40918,8021.40918 0 0 1 -7888.24316,8158.07471" id="svg_1"/></defs><g mask="" style="pointer-events:all"><title style="pointer-events:inherit">Layer 1</title><line stroke-width="4" id="svg_26" y2="265.31128603219986" x2="160.37281290566204" y1="265.31128603219986" x1="10.188785472266675" stroke="#ff0000" fill="none" display="null" style="pointer-events:inherit"/><g id="svg_24" fill-opacity="1" display="null" clip-id="288" stroke-opacity="1" stroke="null" transform=""><path fill="#010101" d="M 86.5568 95.6705 C 55.3409 95.6705 30.0338 121.007 30.0338 152.258 C 30.0338 183.508 55.3409 208.843 86.5568 208.843 C 117.774 208.843 143.08 183.508 143.08 152.258 C 143.08 121.007 117.774 95.6705 86.5568 95.6705 Z M 167.02 159.531 L 173.125 152.069 L 167.023 143.768 L 171.475 135.35 L 163.952 128.306 L 166.607 119.268 L 157.926 113.742 L 158.695 104.452 L 149.176 100.635 L 148.042 91.4641 L 138.04 89.4864 L 135.074 80.8032 L 124.947 80.7295 L 120.268 72.8764 L 110.4 74.6962 L 104.209 68.0013 L 94.9574 71.6217 L 87.4991 66.3517 L 79.2091 71.6199 L 70.7926 67.9996 L 63.7626 74.6962 L 54.732 72.8764 L 49.2129 80.7295 L 39.9296 80.7997 L 36.1197 89.4881 L 26.9505 91.4624 L 24.9833 100.639 L 16.3036 104.452 L 16.2369 113.742 L 8.39262 119.265 L 10.2107 128.306 L 3.52108 135.345 L 7.13787 143.768 L 1.875 152.065 L 7.13787 159.531 L 3.51755 168.793 L 10.2107 174.991 L 8.39087 184.869 L 16.2352 189.555 L 16.3036 199.688 L 24.9815 202.662 L 26.9522 212.677 L 36.1197 213.811 L 39.9278 223.34 L 49.2129 222.568 L 54.732 231.26 L 63.7626 228.601 L 70.7926 236.136 L 79.2073 231.681 L 87.4974 237.786 L 94.9539 231.681 L 104.202 236.142 L 110.402 228.601 L 120.268 231.26 L 124.95 222.568 L 135.07 223.34 L 138.043 213.811 L 148.044 212.681 L 149.178 202.662 L 158.693 199.693 L 157.926 189.555 L 166.606 184.873 L 163.952 174.991 L 171.475 168.793 L 167.02 159.531 Z M 144.756 157.444 L 147.962 164.111 L 142.544 168.577 L 144.454 175.69 L 138.201 179.064 L 138.754 186.361 L 131.905 188.502 L 131.087 195.715 L 123.885 196.527 L 121.746 203.387 L 114.459 202.834 L 111.09 209.092 L 103.988 207.172 L 99.5253 212.6 L 92.8656 209.39 L 87.4939 213.785 L 81.5273 209.39 L 75.4694 212.598 L 70.4083 207.172 L 63.9048 209.089 L 59.9335 202.831 L 53.2474 203.383 L 50.5045 196.524 L 43.9044 195.708 L 42.4864 188.498 L 36.2355 186.356 L 36.1882 179.061 L 30.5392 175.684 L 31.8501 168.574 L 27.0312 164.109 L 29.6337 157.439 L 25.8467 152.064 L 29.6337 146.09 L 27.0312 140.023 L 31.8501 134.957 L 30.5392 128.446 L 36.1899 124.472 L 36.2373 117.777 L 42.4882 115.034 L 43.9061 108.425 L 50.508 107.005 L 53.2491 100.751 L 59.937 100.702 L 63.91 95.0493 L 70.4101 96.3584 L 75.4747 91.536 L 81.5325 94.1473 L 87.4991 90.3497 L 92.8708 94.1473 L 99.5306 91.536 L 103.99 96.3584 L 111.095 95.0493 L 114.466 100.702 L 121.751 100.753 L 123.89 107.005 L 131.094 108.43 L 131.91 115.034 L 138.761 117.78 L 138.206 124.472 L 144.459 128.45 L 142.548 134.957 L 147.965 140.029 L 144.759 146.09 L 149.15 152.069 L 144.756 157.444 Z" id="svg_25" stroke-width="0" stroke="null" transform=""/></g><g display="null" shapeVal="0" shapeId="0" lineHeight="1" font-style="normal" font-weight="normal" text-anchor="start" stroke-width="0" stroke="0" fill="ff0000" font-family="Quicksand" font-size="25.84358" text="!!! BEE ROCK'S !!!" type="text" id="svg_20" transform="matrix(0.829746 0 0 0.829746 1.82975 0)" fill-opacity="1" stroke-opacity="1"><path id="svg_21" fill="#ff0000" stroke="#000000" stroke-width="0" d="M-0.5469,294.3374C-0.5469,293.97845 -0.25975,293.69131 0.09918,293.69131C0.45812,293.69131 0.74526,293.97845 0.74526,294.3374C0.74526,294.3374 0.74526,307.25906 0.74526,307.25906C0.74526,307.61798 0.45811,307.90515 0.09918,307.90515C-0.25975,307.90515 -0.5469,307.61798 -0.5469,307.25906C-0.5469,307.25906 -0.5469,294.3374 -0.5469,294.3374C-0.5469,294.3374 -0.5469,294.3374 -0.5469,294.3374M-0.5469,311.13556C-0.90583,309.91519 0.60169,309.48447 0.74527,310.56125C1.10421,311.78165 -0.40332,312.21237 -0.5469,311.13556C-0.5469,311.13556 -0.5469,311.13556 -0.5469,311.13556M5.91394,294.3374C5.91394,293.97845 6.20109,293.69131 6.56002,293.69131C6.91896,293.69131 7.20611,293.97845 7.20611,294.3374C7.20611,294.3374 7.20611,307.25906 7.20611,307.25906C7.20611,307.61798 6.91896,307.90515 6.56002,307.90515C6.20109,307.90515 5.91394,307.61798 5.91394,307.25906C5.91394,307.25906 5.91394,294.3374 5.91394,294.3374C5.91394,294.3374 5.91394,294.3374 5.91394,294.3374M5.91394,311.13556C5.555,309.91519 7.06253,309.48447 7.20611,310.56125C7.56504,311.78165 6.05752,312.21237 5.91394,311.13556C5.91394,311.13556 5.91394,311.13556 5.91394,311.13556M12.37477,294.3374C12.37477,293.97845 12.66192,293.69131 13.02085,293.69131C13.37979,293.69131 13.66693,293.97845 13.66693,294.3374C13.66693,294.3374 13.66693,307.25906 13.66693,307.25906C13.66693,307.61798 13.37978,307.90515 13.02085,307.90515C12.66191,307.90515 12.37477,307.61798 12.37477,307.25906C12.37477,307.25906 12.37477,294.3374 12.37477,294.3374C12.37477,294.3374 12.37477,294.3374 12.37477,294.3374M12.37477,311.13556C12.01583,309.91519 13.52336,309.48447 13.66694,310.56125C14.02587,311.78165 12.51835,312.21237 12.37477,311.13556C12.37477,311.13556 12.37477,311.13556 12.37477,311.13556M26.87576,311.13556C26.87576,311.13556 26.87576,294.3374 26.87576,294.3374C27.30649,293.04523 30.03439,293.83487 31.54192,293.69131C35.70557,293.33237 37.64382,299.43427 34.34161,301.73145C36.35165,302.44931 37.85917,304.3158 37.85917,306.61298C37.85917,309.48447 35.56199,311.78165 32.69051,311.78165C32.69051,311.78165 27.52184,311.78165 27.52184,311.78165C27.1629,311.78165 26.87575,311.49451 26.87575,311.13556C26.87575,311.13556 26.87575,311.13556 26.87575,311.13556M28.16792,310.48947C28.16792,310.48947 32.69051,310.48947 32.69051,310.48947C34.84412,310.48947 36.56701,308.7666 36.56701,306.61292C36.56701,302.66467 32.40336,302.44925 28.16792,302.73642C28.16792,302.73642 28.16792,310.48941 28.16792,310.48941C28.16792,310.48941 28.16792,310.48941 28.16792,310.48941M28.16792,301.44424C31.54191,301.73138 34.77233,301.30066 34.77233,298.21384C34.77233,295.12698 31.54191,294.69626 28.16792,294.9834C28.16792,294.9834 28.16792,301.44424 28.16792,301.44424C28.16792,301.44424 28.16792,301.44424 28.16792,301.44424M42.1664,311.1355C42.1664,311.1355 42.1664,294.33734 42.1664,294.33734C42.1664,293.97839 42.45355,293.69125 42.88427,293.69125C42.88427,293.69125 52.1448,293.69125 52.1448,293.69125C52.50373,293.69125 52.7191,293.97839 52.7191,294.33734C52.7191,294.69626 52.50373,294.9834 52.1448,294.9834C52.1448,294.9834 43.45857,294.9834 43.45857,294.9834C43.45857,294.9834 43.45857,302.09033 43.45857,302.09033C43.45857,302.09033 51.068,302.09033 51.068,302.09033C51.42693,302.09033 51.6423,302.37747 51.6423,302.73642C51.6423,303.09534 51.42694,303.38251 51.068,303.38251C51.068,303.38251 43.45857,303.38251 43.45857,303.38251C43.45857,303.38251 43.45857,310.48941 43.45857,310.48941C43.45857,310.48941 52.1448,310.48941 52.1448,310.48941C52.50373,310.48941 52.7191,310.77655 52.7191,311.1355C52.7191,311.49445 52.50373,311.78159 52.1448,311.78159C52.1448,311.78159 42.74069,311.78159 42.74069,311.78159C42.45354,311.78159 42.16639,311.49445 42.16639,311.1355C42.16639,311.1355 42.16639,311.1355 42.16639,311.1355M57.45703,311.1355C57.45703,311.1355 57.45703,294.33734 57.45703,294.33734C57.45703,293.97839 57.74419,293.69125 58.1749,293.69125C58.1749,293.69125 67.43542,293.69125 67.43542,293.69125C67.79436,293.69125 68.00972,293.97839 68.00972,294.33734C68.00972,294.69626 67.79437,294.9834 67.43542,294.9834C67.43542,294.9834 58.74919,294.9834 58.74919,294.9834C58.74919,294.9834 58.74919,302.09033 58.74919,302.09033C58.74919,302.09033 66.35861,302.09033 66.35861,302.09033C66.71755,302.09033 66.93291,302.37747 66.93291,302.73642C66.93291,303.09534 66.71756,303.38251 66.35861,303.38251C66.35861,303.38251 58.74919,303.38251 58.74919,303.38251C58.74919,303.38251 58.74919,310.48941 58.74919,310.48941C58.74919,310.48941 67.43542,310.48941 67.43542,310.48941C67.79436,310.48941 68.00972,310.77655 68.00972,311.1355C68.00972,311.49445 67.79437,311.78159 67.43542,311.78159C67.43542,311.78159 58.03133,311.78159 58.03133,311.78159C57.74418,311.78159 57.45703,311.49445 57.45703,311.1355C57.45703,311.1355 57.45703,311.1355 57.45703,311.1355M91.55588,311.49445C89.76121,311.49445 89.68942,309.98691 89.54585,307.68973C89.33049,304.02859 85.52577,303.74142 81.4339,304.02859C81.4339,304.02859 81.4339,311.1355 81.4339,311.1355C81.4339,311.49445 81.14675,311.78159 80.78781,311.78159C80.42887,311.78159 80.14173,311.49445 80.14173,311.1355C80.14173,311.1355 80.14173,294.33734 80.14173,294.33734C80.14173,293.97839 80.42887,293.61945 80.8596,293.69125C80.8596,293.69125 85.88469,293.69125 85.88469,293.69125C91.34052,293.40408 92.84805,301.65961 88.1101,303.52606C89.40226,304.24393 90.76621,305.5361 90.76621,307.68973C90.76621,309.69977 91.05337,309.98691 91.98659,310.633C92.05837,310.99191 91.91481,311.35086 91.55586,311.49445C91.55586,311.49445 91.55586,311.49445 91.55586,311.49445M89.83297,298.85992C89.83297,294.9834 85.66933,294.69626 81.43389,294.9834C81.43389,294.9834 81.43389,302.73642 81.43389,302.73642C85.66933,303.02356 89.83297,302.8082 89.83297,298.85992C89.83297,298.85992 89.83297,298.85992 89.83297,298.85992M95.86309,302.59283C95.86309,297.49597 99.73959,293.40408 104.62111,293.40408C109.43086,293.40408 113.30734,297.49597 113.30734,302.59283C113.30734,307.68973 109.43084,311.78159 104.62111,311.78159C99.73959,311.78159 95.86309,307.68973 95.86309,302.59283C95.86309,302.59283 95.86309,302.59283 95.86309,302.59283M97.15527,302.59283C97.15527,307.04364 100.52926,310.48941 104.62111,310.48941C108.56941,310.48941 112.01518,307.04364 112.01518,302.59283C112.01518,298.14203 108.56939,294.69626 104.62111,294.69626C100.52925,294.69626 97.15527,298.14203 97.15527,302.59283C97.15527,302.59283 97.15527,302.59283 97.15527,302.59283M117.82994,302.66461C117.82994,295.12698 127.30585,290.6044 133.12059,295.41412C133.76666,295.91666 132.90523,296.99344 132.33093,296.49094C127.4494,292.3273 119.12211,296.06021 119.12211,302.66461C119.12211,308.98187 127.37762,312.93018 132.25912,308.76654C132.90521,308.26401 133.83846,309.26904 133.12057,309.84332C127.37761,314.50949 117.82994,310.05869 117.82994,302.66461C117.82994,302.66461 117.82994,302.66461 117.82994,302.66461M138.50461,311.1355C138.50461,311.1355 138.50461,294.40912 138.50461,294.40912C138.50461,294.05017 138.79176,293.76303 139.1507,293.76303C139.50963,293.76303 139.79677,294.05017 139.79677,294.40912C139.79677,294.40912 139.79677,304.89001 139.79677,304.89001C139.79677,304.89001 150.7084,293.90662 150.7084,293.90662C151.35451,293.40408 152.28773,294.19376 151.64165,294.83984C151.64165,294.83984 144.67831,301.73138 144.67831,301.73138C144.67831,301.73138 151.78523,310.77655 151.78523,310.77655C152.14417,311.1355 151.71346,311.78159 151.28275,311.78159C151.06737,311.78159 150.9238,311.78159 150.78021,311.56628C150.78021,311.56628 143.81688,302.66467 143.81688,302.66467C143.81688,302.66467 139.7968,306.61292 139.7968,306.61292C139.7968,306.61292 139.7968,311.1355 139.7968,311.1355C139.7968,311.49445 139.50966,311.78159 139.15074,311.78159C138.79181,311.78159 138.50464,311.49445 138.50464,311.1355C138.50464,311.1355 138.50464,311.1355 138.50464,311.1355M156.09247,299.86493C156.09247,299.86493 156.88214,294.33734 156.88214,294.33734C156.81035,293.54767 158.31787,293.26053 158.53322,294.05017C158.53322,294.05017 156.88214,299.86493 156.88214,299.86493C156.81035,300.22388 156.66678,300.36743 156.4514,300.36743C156.23604,300.36743 156.02069,300.22388 156.09247,299.86493C156.09247,299.86493 156.09247,299.86493 156.09247,299.86493M165.06587,295.62949C161.69185,298.21384 165.13765,301.30066 168.87056,301.73141C172.02919,302.09039 175.47499,303.45432 175.47499,306.75656C175.47499,309.84338 172.17279,311.85342 168.79878,311.78165C165.9991,311.78165 163.63011,310.41769 162.12259,309.1973C161.90724,308.98193 161.83542,308.62302 162.05081,308.40765C162.26616,308.12051 162.62509,308.12051 162.84047,308.33588C165.4248,311.20734 173.96744,311.78165 174.32639,306.75656C173.60854,301.22894 162.48154,304.45935 162.48154,298.14209C162.48154,295.27063 165.56837,293.40414 168.72701,293.40414C171.09598,293.40414 172.89066,294.62454 174.32639,295.55777C174.61356,295.77313 174.68533,296.06027 174.46999,296.34741C174.32639,296.63458 173.96745,296.70636 173.68031,296.491C171.5985,294.69632 167.50662,293.76309 165.06589,295.62955C165.06589,295.62955 165.06589,295.62955 165.06589,295.62955M187.53523,294.3374C187.53523,293.97845 187.8224,293.69131 188.1813,293.69131C188.54024,293.69131 188.82739,293.97845 188.82739,294.3374C188.82739,294.3374 188.82739,307.25906 188.82739,307.25906C188.82739,307.61798 188.54024,307.90515 188.1813,307.90515C187.82237,307.90515 187.53523,307.61798 187.53523,307.25906C187.53523,307.25906 187.53523,294.3374 187.53523,294.3374C187.53523,294.3374 187.53523,294.3374 187.53523,294.3374M187.53523,311.13556C187.17632,309.91519 188.68382,309.48447 188.82739,310.56125C189.18633,311.78165 187.6788,312.21237 187.53523,311.13556C187.53523,311.13556 187.53523,311.13556 187.53523,311.13556M193.99606,294.3374C193.99606,293.97845 194.28323,293.69131 194.64217,293.69131C195.00108,293.69131 195.28825,293.97845 195.28825,294.3374C195.28825,294.3374 195.28825,307.25906 195.28825,307.25906C195.28825,307.61798 195.00108,307.90515 194.64217,307.90515C194.28323,307.90515 193.99606,307.61798 193.99606,307.25906C193.99606,307.25906 193.99606,294.3374 193.99606,294.3374C193.99606,294.3374 193.99606,294.3374 193.99606,294.3374M193.99606,311.13556C193.63715,309.91519 195.14465,309.48447 195.28825,310.56125C195.64717,311.78165 194.13966,312.21237 193.99606,311.13556C193.99606,311.13556 193.99606,311.13556 193.99606,311.13556M200.45692,294.3374C200.45692,293.97845 200.74406,293.69131 201.103,293.69131C201.46191,293.69131 201.74908,293.97845 201.74908,294.3374C201.74908,294.3374 201.74908,307.25906 201.74908,307.25906C201.74908,307.61798 201.46191,307.90515 201.103,307.90515C200.74406,307.90515 200.45692,307.61798 200.45692,307.25906C200.45692,307.25906 200.45692,294.3374 200.45692,294.3374C200.45692,294.3374 200.45692,294.3374 200.45692,294.3374M200.45692,311.13556C200.09798,309.91519 201.60551,309.48447 201.74908,310.56125C202.10802,311.78165 200.60049,312.21237 200.45692,311.13556C200.45692,311.13556 200.45692,311.13556 200.45692,311.13556"/></g><g display="null" shapeVal="0" shapeId="0" lineHeight="1" font-style="normal" font-weight="normal" text-anchor="start" stroke-width="0" stroke="0" fill="ffffff" font-family="Quicksand" font-size="23.53521" text="Ogden's Old" type="text" id="svg_18" transform="matrix(0.829746 0 0 0.829746 1.82975 0)" fill-opacity="1" stroke-opacity="1"><path d="M 31.8621 128.156 C 31.8621 123.515 35.3925 119.788 39.8381 119.788 C 44.2183 119.788 47.7486 123.515 47.7486 128.156 C 47.7486 132.798 44.2183 136.525 39.8381 136.525 C 35.3925 136.525 31.8621 132.798 31.8621 128.156 C 31.8621 128.156 31.8621 128.156 31.8621 128.156 M 33.0389 128.156 C 33.0389 132.21 36.1116 135.348 39.8381 135.348 C 43.4338 135.348 46.5718 132.21 46.5718 128.156 C 46.5718 124.103 43.4338 120.965 39.8381 120.965 C 36.1116 120.965 33.0389 124.103 33.0389 128.156 C 33.0389 128.156 33.0389 128.156 33.0389 128.156 M 62.4583 125.541 C 62.4583 125.541 62.4583 135.609 62.4583 135.609 C 62.5237 139.401 58.2742 142.278 54.6131 140.447 C 54.3516 140.251 54.2209 139.99 54.3516 139.728 C 54.94 138.878 55.9207 140.12 56.9667 139.859 C 59.9086 139.728 61.6738 137.505 61.2815 134.171 C 58.6011 138.421 51.6058 136.132 51.6058 130.706 C 51.6058 125.411 58.5357 122.992 61.2815 127.241 C 61.02 126.064 61.543 124.038 62.4583 125.541 C 62.4583 125.541 62.4583 125.541 62.4583 125.541 M 56.9667 135.348 C 59.3202 135.348 61.2815 133.321 61.2815 130.706 C 61.2815 128.156 59.3202 126.13 56.9667 126.13 C 54.6131 126.13 52.7172 128.156 52.7172 130.706 C 52.7172 133.321 54.6131 135.348 56.9667 135.348 C 56.9667 135.348 56.9667 135.348 56.9667 135.348 M 77.691 136.525 C 76.7757 136.525 77.168 135.152 77.1026 134.302 C 74.3568 138.486 67.1 136.132 67.1 130.772 C 67.1 125.411 74.2914 122.992 77.1026 127.241 C 77.1026 127.241 77.1026 120.638 77.1026 120.638 C 77.1026 120.311 77.3641 120.05 77.691 120.05 C 78.0179 120.05 78.214 120.311 78.214 120.638 C 78.214 120.638 78.214 135.936 78.214 135.936 C 78.214 136.263 78.0179 136.525 77.691 136.525 C 77.691 136.525 77.691 136.525 77.691 136.525 M 72.657 135.348 C 75.1413 135.283 77.2334 133.321 77.1026 130.575 C 77.0372 128.091 75.0106 126.13 72.657 126.13 C 70.2381 126.13 68.2114 128.222 68.2114 130.772 C 68.2114 133.321 70.2381 135.348 72.657 135.348 C 72.657 135.348 72.657 135.348 72.657 135.348 M 88.1512 136.525 C 85.0132 136.525 82.5289 133.91 82.5289 130.772 C 82.5289 127.568 85.0132 125.018 88.1512 125.018 C 91.0932 125.018 93.5121 127.372 93.7082 130.445 C 93.7082 130.772 93.4467 130.968 93.1199 130.968 C 93.1199 130.968 83.6403 130.968 83.6403 130.968 C 83.6403 135.348 89.7856 137.048 91.8123 133.321 C 92.2046 132.667 93.1852 133.321 92.7929 133.91 C 91.8123 135.479 90.1125 136.525 88.1512 136.525 C 88.1512 136.525 88.1512 136.525 88.1512 136.525 M 92.4661 129.856 C 91.8123 125.018 84.3594 125.084 83.7056 129.856 C 83.7056 129.856 92.4661 129.856 92.4661 129.856 C 92.4661 129.856 92.4661 129.856 92.4661 129.856 M 98.7422 135.936 C 98.9384 136.655 97.8269 136.655 97.6962 136.198 C 97.5001 132.994 97.6962 129.137 97.6308 125.607 C 97.6308 125.28 97.8923 125.018 98.2192 125.018 C 98.9384 125.018 98.6768 125.999 98.7422 126.718 C 101.161 123.449 107.045 125.411 107.045 129.726 C 107.045 129.726 107.045 135.936 107.045 135.936 C 107.045 136.263 106.784 136.525 106.457 136.525 C 106.13 136.525 105.868 136.263 105.868 135.936 C 105.868 135.936 105.868 129.726 105.868 129.726 C 105.868 127.764 104.299 126.13 102.338 126.13 C 100.377 126.13 98.7422 127.764 98.7422 129.726 C 98.7422 129.726 98.7422 135.936 98.7422 135.936 C 98.7422 135.936 98.7422 135.936 98.7422 135.936 M 111.491 125.672 C 111.491 125.672 112.21 120.638 112.21 120.638 C 112.144 119.919 113.517 119.658 113.713 120.377 C 113.713 120.377 112.21 125.672 112.21 125.672 C 112.144 125.999 112.014 126.13 111.817 126.13 C 111.621 126.13 111.425 125.999 111.491 125.672 C 111.491 125.672 111.491 125.672 111.491 125.672 M 118.682 126.718 C 115.544 131.229 125.154 128.483 125.154 133.256 C 125.154 134.237 124.566 134.956 123.781 135.609 C 121.82 137.244 117.963 136.329 116.655 134.89 C 116.394 134.694 116.394 134.367 116.59 134.106 C 117.963 133.583 119.009 135.74 120.905 135.413 C 123.062 135.479 125.22 133.321 123.193 131.883 C 121.362 130.575 116.851 131.098 116.786 128.026 C 116.786 124.692 122.343 124.299 124.304 126.261 C 124.566 126.457 124.697 126.784 124.501 127.045 C 123.324 127.699 122.343 125.738 120.905 126.064 C 119.99 126.064 119.205 126.326 118.682 126.718 C 118.682 126.718 118.682 126.718 118.682 126.718 M 135.549 128.156 C 135.549 123.515 139.079 119.788 143.525 119.788 C 147.905 119.788 151.436 123.515 151.436 128.156 C 151.436 132.798 147.905 136.525 143.525 136.525 C 139.08 136.525 135.549 132.798 135.549 128.156 C 135.549 128.156 135.549 128.156 135.549 128.156 M 136.726 128.156 C 136.726 132.21 139.799 135.348 143.525 135.348 C 147.121 135.348 150.259 132.21 150.259 128.156 C 150.259 124.103 147.121 120.965 143.525 120.965 C 139.799 120.965 136.726 124.103 136.726 128.156 C 136.726 128.156 136.726 128.156 136.726 128.156 M 156.208 120.638 C 156.208 120.311 156.47 120.05 156.797 120.05 C 157.123 120.05 157.385 120.311 157.385 120.638 C 157.385 120.638 157.385 135.936 157.385 135.936 C 157.385 136.263 157.123 136.525 156.797 136.525 C 156.47 136.525 156.208 136.263 156.208 135.936 C 156.208 135.936 156.208 120.638 156.208 120.638 C 156.208 120.638 156.208 120.638 156.208 120.638 M 171.702 136.525 C 170.787 136.525 171.179 135.152 171.114 134.302 C 168.368 138.486 161.111 136.132 161.111 130.772 C 161.111 125.411 168.303 122.992 171.114 127.241 C 171.114 127.241 171.114 120.638 171.114 120.638 C 171.114 120.311 171.375 120.05 171.702 120.05 C 172.029 120.05 172.225 120.311 172.225 120.638 C 172.225 120.638 172.225 135.936 172.225 135.936 C 172.225 136.263 172.029 136.525 171.702 136.525 C 171.702 136.525 171.702 136.525 171.702 136.525 M 166.668 135.348 C 169.153 135.283 171.245 133.321 171.114 130.575 C 171.049 128.091 169.022 126.13 166.668 126.13 C 164.249 126.13 162.223 128.222 162.223 130.772 C 162.223 133.321 164.249 135.348 166.668 135.348 C 166.668 135.348 166.668 135.348 166.668 135.348" stroke-width="0" stroke="#000000" fill="#ffffff" id="svg_19" transform=""/></g><g id="svg_14" fill-opacity="1" display="null" clip-id="346" stroke-opacity="1" stroke="null" transform=""><path fill="#ffffff" d="M 60.1942 130.603 C 60.423 131.802 61.192 132.632 62.3597 132.94 C 62.6058 133.005 62.8433 133.038 63.0713 133.038 C 64.1902 133.038 65.0858 132.264 65.6378 130.796 C 68.135 132.727 70.3233 134.866 71.9234 136.927 C 71.601 137.104 71.2834 137.288 70.9689 137.479 C 69.7682 138.212 68.6288 139.054 67.5791 140.005 C 67.3165 140.242 67.0602 140.488 66.8101 140.739 C 66.6851 140.865 66.5617 140.992 66.4398 141.121 L 66.2581 141.316 L 66.0765 141.518 C 65.5984 142.056 65.1526 142.629 64.7485 143.234 C 63.9402 144.441 63.2993 145.779 62.8999 147.194 C 62.4973 148.607 62.3267 150.088 62.3982 151.553 C 62.436 152.285 62.5319 153.013 62.6829 153.727 L 62.7418 153.995 L 62.8047 154.257 C 62.8496 154.436 62.8967 154.61 62.9471 154.786 C 63.0485 155.136 63.1633 155.481 63.2899 155.821 C 63.3536 155.992 63.4204 156.16 63.4888 156.329 L 63.5957 156.579 L 63.7019 156.818 L 63.8191 157.069 C 63.8592 157.151 63.8977 157.232 63.9386 157.312 C 64.0196 157.474 64.1029 157.634 64.1894 157.792 C 64.5338 158.426 64.9207 159.033 65.3421 159.611 C 65.7652 160.19 66.2196 160.742 66.7087 161.26 C 67.1962 161.778 67.7175 162.268 68.2538 162.721 C 68.7885 163.173 69.3428 163.602 69.9144 164.004 C 70.4876 164.405 71.0781 164.777 71.682 165.125 C 72.2859 165.472 72.9039 165.792 73.5314 166.087 C 74.1596 166.38 74.7997 166.645 75.4468 166.887 C 76.0939 167.13 76.7474 167.346 77.4063 167.54 C 78.0667 167.73 78.7312 167.897 79.3987 168.045 C 80.7347 168.339 82.0808 168.552 83.4285 168.699 C 83.5968 168.716 83.7658 168.736 83.9341 168.75 L 84.008 168.756 C 83.9781 169.189 83.942 169.652 83.8932 170.117 C 83.8507 170.543 83.7996 170.96 83.7399 171.357 C 83.6086 172.236 83.4356 173.018 83.2099 173.747 C 83.0857 174.151 82.9434 174.542 82.7845 174.913 C 82.7539 174.985 82.7224 175.057 82.6902 175.127 L 82.6784 175.152 C 82.1547 176.304 81.4038 177.349 80.678 178.359 L 80.6112 178.451 C 80.2668 178.933 79.9122 179.428 79.5882 179.933 L 79.7486 180.036 L 79.7486 180.037 L 79.5867 179.932 C 79.3673 180.273 79.1762 180.592 79.0032 180.908 C 78.7689 181.339 78.5605 181.769 78.3852 182.186 C 78.1061 182.856 77.8985 183.519 77.768 184.162 C 77.536 185.296 77.5344 186.4 77.7625 187.442 C 78.0211 188.628 78.5778 189.738 79.4168 190.742 C 79.7479 191.14 80.1292 191.525 80.5515 191.89 C 80.4681 192.005 80.3832 192.122 80.2959 192.236 C 80.0105 192.603 79.7164 192.967 79.4066 193.325 L 78.9388 193.862 L 78.8216 193.998 L 78.7021 194.139 C 78.6187 194.239 78.5385 194.342 78.4615 194.449 C 78.154 194.872 77.9008 195.343 77.7239 195.849 C 77.5509 196.357 77.4613 196.899 77.4707 197.449 C 77.4825 197.996 77.5942 198.556 77.8317 199.07 C 78.0683 199.582 78.4245 200.046 78.8601 200.408 C 79.2957 200.772 79.8037 201.035 80.3289 201.194 C 80.8549 201.35 81.3943 201.412 81.9204 201.411 L 82.0234 201.409 L 82.1146 201.407 C 82.1869 201.405 82.2491 201.401 82.3167 201.397 C 82.4488 201.387 82.5825 201.375 82.7161 201.357 C 82.9827 201.318 83.2492 201.255 83.5111 201.171 C 84.034 201 84.5372 200.72 84.9484 200.344 C 85.3581 199.966 85.671 199.508 85.9006 199.035 C 86.1318 198.561 86.2741 198.063 86.3755 197.571 C 86.5509 196.667 86.5784 195.766 86.5226 194.882 C 88.1903 195.327 89.9453 195.555 91.6382 195.555 C 92.8955 195.555 94.1174 195.43 95.2489 195.178 C 95.4573 195.132 95.6633 195.08 95.8669 195.023 C 95.8795 195.237 95.8826 195.453 95.8834 195.667 C 95.8882 195.956 95.885 196.246 95.8819 196.538 C 95.8819 196.83 95.8819 197.125 95.8866 197.421 C 95.8897 197.569 95.8937 197.72 95.8984 197.868 L 95.8999 197.922 L 95.9015 197.953 L 95.9039 197.983 C 95.907 198.023 95.9102 198.064 95.9149 198.104 C 95.9212 198.185 95.9314 198.266 95.944 198.349 C 96.0454 198.996 96.2892 199.62 96.643 200.164 C 96.9945 200.708 97.4348 201.187 97.9262 201.594 C 98.4232 201.997 98.9704 202.331 99.5515 202.594 C 99.8432 202.723 100.143 202.841 100.452 202.931 S 101.077 203.09 101.399 203.137 C 102.039 203.23 102.709 203.233 103.373 203.1 C 104.033 202.961 104.685 202.678 105.232 202.244 C 105.779 201.817 106.208 201.243 106.492 200.643 L 106.545 200.529 C 106.561 200.492 106.577 200.453 106.594 200.415 C 106.624 200.341 106.655 200.266 106.683 200.189 C 106.74 200.036 106.792 199.878 106.836 199.72 C 106.925 199.402 106.986 199.071 107.013 198.733 C 107.065 198.059 106.961 197.36 106.703 196.74 C 106.447 196.117 106.064 195.577 105.634 195.112 C 105.417 194.879 105.19 194.664 104.95 194.465 C 104.71 194.267 104.464 194.083 104.21 193.911 C 103.702 193.568 103.178 193.267 102.638 193.007 C 102.098 192.745 101.55 192.508 100.993 192.305 C 100.933 192.284 100.872 192.26 100.811 192.239 C 101.344 191.746 101.829 191.208 102.256 190.639 C 103.266 189.29 103.945 187.769 104.221 186.237 C 104.351 185.504 104.39 184.774 104.335 184.063 C 104.261 183.063 104.008 182.098 103.578 181.19 C 103.311 180.626 102.976 180.083 102.583 179.576 C 102.02 178.849 101.325 178.175 100.519 177.572 C 100.416 177.493 100.304 177.417 100.175 177.337 L 100.175 177.337 C 99.7756 177.086 99.3447 176.882 98.928 176.683 C 98.2966 176.383 97.7006 176.101 97.1973 175.666 C 97.0503 175.541 96.9096 175.395 96.7735 175.237 C 96.2019 174.566 95.7907 173.66 95.5493 172.545 C 95.4557 172.118 95.3896 171.664 95.3527 171.192 C 95.2819 170.289 95.3204 169.365 95.4604 168.507 C 95.4769 168.505 95.4927 168.504 95.5099 168.502 L 95.5068 168.433 C 96.6697 168.268 97.8279 168.07 98.9822 167.826 C 100.296 167.548 101.6 167.198 102.878 166.738 C 104.153 166.276 105.405 165.704 106.564 164.931 C 107.138 164.545 107.69 164.107 108.194 163.614 C 108.698 163.121 109.156 162.569 109.543 161.967 C 109.931 161.366 110.247 160.713 110.481 160.038 C 110.718 159.358 110.872 158.654 110.956 157.947 C 111.125 156.53 111.005 155.109 110.744 153.748 C 110.228 151.022 109.14 148.419 107.665 146.082 C 106.927 144.91 106.082 143.81 105.166 142.777 C 104.247 141.744 103.25 140.783 102.189 139.899 C 101.172 139.052 100.096 138.277 98.9689 137.579 C 99.2386 137.174 99.5287 136.793 99.8456 136.43 C 100.572 135.595 101.476 134.557 102.495 133.782 C 102.955 133.432 103.528 133.165 104.084 132.907 C 104.128 132.887 104.17 132.867 104.215 132.846 C 104.847 133.623 105.696 134.597 106.924 134.664 C 106.969 134.666 107.013 134.668 107.056 134.668 C 108.392 134.668 109.432 133.553 109.785 132.413 C 110.236 130.949 109.707 129.374 108.495 128.581 C 107.341 127.824 105.786 127.931 104.795 128.835 C 103.763 129.775 103.806 131.185 103.928 132.163 C 103.943 132.276 103.959 132.397 103.979 132.533 C 103.959 132.542 103.939 132.55 103.921 132.56 C 103.348 132.826 102.756 133.101 102.262 133.477 C 101.212 134.275 100.294 135.331 99.557 136.178 C 99.2252 136.559 98.9225 136.957 98.6402 137.38 C 98.1071 137.059 97.5606 136.754 97.0063 136.469 C 96.6973 136.311 96.3859 136.158 96.0721 136.012 C 95.7561 135.867 95.4368 135.728 95.116 135.595 C 93.8312 135.063 92.5032 134.63 91.1397 134.315 C 89.7794 133.999 88.3971 133.8 87.0093 133.704 C 84.2337 133.514 81.436 133.732 78.7202 134.35 C 76.4894 134.868 74.3098 135.657 72.2694 136.736 C 70.6441 134.631 68.4126 132.446 65.8666 130.478 C 66.3706 129.392 66.8463 127.851 65.7604 126.481 C 64.7909 125.258 63.183 124.982 62.0208 125.839 C 60.6755 126.833 59.875 128.923 60.1942 130.603 Z M 100.16 177.362 L 100.071 177.509 L 100.071 177.504 L 100.16 177.362 Z M 101.993 190.346 C 99.41 190.63 96.6572 190.486 94.2251 190.356 L 94.0372 190.346 C 89.7708 190.121 86.2725 189.627 83.3428 188.835 C 81.7631 188.409 80.0993 187.906 78.1163 187.256 C 77.9354 186.359 77.9307 185.415 78.1061 184.444 C 80.1253 185.028 82.0147 185.425 83.8735 185.657 C 84.3013 185.711 84.7275 185.767 85.1521 185.82 C 88.5379 186.253 91.7357 186.661 95.1428 186.608 C 96.069 186.594 96.9937 186.602 97.8893 186.61 C 98.4302 186.614 98.9618 186.619 99.4902 186.619 C 100.936 186.619 102.347 186.586 103.79 186.429 C 103.503 187.789 102.886 189.138 101.993 190.346 Z M 96.415 196.506 C 96.3788 195.978 96.3419 195.442 96.2553 194.909 C 97.2555 194.591 98.2156 194.138 99.1112 193.56 C 99.5546 193.276 99.9879 192.954 100.4 192.605 C 101.064 192.884 101.716 193.192 102.346 193.538 C 102.853 193.816 103.345 194.121 103.805 194.462 C 104.267 194.804 104.7 195.18 105.074 195.606 C 105.45 196.031 105.762 196.508 105.962 197.03 C 106.163 197.549 106.241 198.112 106.189 198.666 C 106.14 199.22 105.967 199.767 105.722 200.275 C 105.479 200.782 105.136 201.232 104.696 201.57 C 104.261 201.912 103.739 202.138 103.193 202.251 C 102.645 202.364 102.072 202.368 101.513 202.292 C 100.39 202.133 99.3078 201.664 98.4106 200.971 C 97.964 200.624 97.563 200.214 97.2422 199.752 C 96.9229 199.29 96.6855 198.772 96.5754 198.227 C 96.5479 198.09 96.5298 197.956 96.5164 197.811 L 96.4771 197.378 C 96.4551 197.089 96.4362 196.798 96.415 196.506 Z M 86.3637 194.443 C 84.3516 193.875 82.5659 193.002 81.1852 191.916 C 81.2835 191.746 81.3786 191.576 81.4683 191.404 C 82.1044 191.59 82.6862 191.754 83.2429 191.906 C 86.1892 192.703 89.7134 193.2 94.0168 193.43 C 94.5192 193.456 95.035 193.483 95.5658 193.509 C 96.6367 193.56 97.515 193.587 98.3194 193.592 C 97.5771 194.012 96.794 194.348 95.9841 194.591 C 95.7168 194.674 95.4415 194.746 95.1656 194.807 C 92.4874 195.402 89.2801 195.269 86.3637 194.443 Z M 80.7732 192.563 C 80.8447 192.458 80.9147 192.352 80.9831 192.245 C 82.3646 193.323 84.1307 194.194 86.1153 194.771 C 86.0846 195.669 86.0005 196.562 85.7803 197.42 C 85.6639 197.87 85.5075 198.311 85.2928 198.715 C 85.0782 199.12 84.8022 199.488 84.4601 199.783 C 84.1197 200.079 83.7155 200.296 83.2815 200.426 C 82.8474 200.56 82.3867 200.612 81.9235 200.609 C 81.462 200.607 81.0012 200.549 80.5648 200.415 C 80.1292 200.283 79.7188 200.073 79.372 199.786 C 79.0245 199.501 78.743 199.138 78.5519 198.729 C 78.36 198.321 78.257 197.873 78.2413 197.419 C 78.2075 196.51 78.5173 195.599 79.037 194.841 C 79.1023 194.747 79.1699 194.653 79.2415 194.563 L 79.464 194.285 L 79.9122 193.722 C 80.2094 193.348 80.5003 192.963 80.7732 192.563 Z M 80.1756 191.014 C 80.4547 191.1 80.7197 191.181 80.9753 191.259 C 80.9084 191.366 80.84 191.471 80.7708 191.574 C 80.5617 191.392 80.3627 191.205 80.1756 191.014 Z M 79.8414 180.251 C 81.1899 180.493 82.7735 180.756 84.4035 180.917 L 84.7078 180.947 C 87.4858 181.223 90.1105 181.481 92.9136 181.47 C 94.1237 181.464 95.3621 181.503 96.5636 181.54 C 97.6927 181.575 98.8407 181.61 99.9911 181.61 C 101.09 181.61 102.193 181.577 103.282 181.481 C 103.632 182.255 103.853 183.072 103.934 183.916 C 101.925 184.149 99.973 184.134 97.9074 184.117 C 97.0063 184.108 96.0721 184.101 95.1372 184.115 C 91.7625 184.168 88.585 183.764 85.2205 183.334 C 84.7896 183.279 84.3571 183.222 83.9223 183.168 C 82.2742 182.96 80.6057 182.624 78.8279 182.138 C 78.9789 181.796 79.1503 181.447 79.3413 181.096 C 79.4907 180.82 79.6559 180.543 79.8414 180.251 Z M 83.0291 175.312 L 83.0409 175.286 C 83.0511 175.266 83.0597 175.242 83.07 175.222 C 85.5106 175.943 87.6092 176.398 89.6599 176.65 C 90.2622 176.724 90.8747 176.807 91.4676 176.889 C 92.4182 177.019 93.4011 177.154 94.3698 177.25 C 95.4014 177.353 96.5998 177.466 97.7855 177.52 C 98.0371 177.533 98.3123 177.57 98.604 177.607 C 98.9893 177.658 99.3856 177.711 99.767 177.711 C 99.8519 177.711 99.9368 177.707 100.019 177.701 C 100.116 177.762 100.203 177.822 100.284 177.882 C 100.955 178.386 101.545 178.937 102.04 179.527 C 100.225 179.615 98.3713 179.557 96.573 179.502 C 95.3716 179.465 94.1276 179.427 92.9104 179.433 C 90.1372 179.446 87.5369 179.188 84.7833 178.916 L 84.4405 178.882 C 83.4269 178.782 82.3591 178.636 81.1019 178.428 C 81.804 177.452 82.5172 176.439 83.0291 175.312 Z M 84.0882 171.617 C 86.3386 172.117 88.5615 172.356 90.9093 172.609 C 91.937 172.718 93.0952 172.822 94.2409 172.822 C 94.5648 172.822 94.8872 172.812 95.2072 172.794 C 95.4282 173.742 95.7757 174.545 96.2381 175.187 C 95.1003 175.201 93.9256 175.085 92.7839 174.972 C 91.8254 174.877 90.8346 174.781 89.884 174.762 C 87.989 174.727 86.0524 174.391 83.6306 173.677 C 83.8201 173.04 83.9695 172.361 84.0882 171.617 Z M 84.3902 168.786 L 84.4389 168.791 C 84.7801 168.818 85.1151 168.84 85.4532 168.858 C 86.1279 168.897 86.8025 168.92 87.4771 168.931 C 88.8241 168.957 90.1686 168.914 91.5069 168.841 C 91.8419 168.822 92.176 168.801 92.5087 168.779 L 93.508 168.697 C 94.027 168.651 94.5428 168.606 95.0625 168.555 C 94.9407 169.352 94.9029 170.204 94.9548 171.044 C 93.8878 171.146 92.6502 171.029 91.5517 170.928 C 91.0328 170.878 90.5429 170.833 90.0932 170.811 C 88.1707 170.713 86.271 170.443 84.2926 169.989 C 84.332 169.575 84.3642 169.17 84.3902 168.786 Z M 64.9914 156.214 C 67.771 153.904 70.0764 152.437 72.4518 151.467 C 79.2635 148.687 84.9838 148.836 92.0086 149.977 C 98.4719 151.03 104.213 154.335 109.556 160.08 C 109.368 160.591 109.132 161.083 108.845 161.547 C 108.165 162.659 107.212 163.592 106.141 164.343 C 105.067 165.098 103.875 165.685 102.648 166.164 C 101.417 166.644 100.144 167.02 98.8572 167.336 C 97.57 167.65 96.2656 167.904 94.9564 168.128 L 94.9595 168.145 C 93.8076 168.187 92.6526 168.227 91.503 168.236 C 90.1757 168.247 88.8469 168.22 87.522 168.148 C 84.8721 168.001 82.231 167.661 79.6614 167.014 C 77.0949 166.37 74.6008 165.406 72.3354 164.043 C 71.2032 163.364 70.1291 162.586 69.1352 161.717 C 68.1406 160.851 67.2418 159.878 66.4783 158.806 C 65.8949 157.992 65.3964 157.125 64.9914 156.214 Z M 71.7253 138.711 C 72.0705 138.499 72.4227 138.298 72.7789 138.105 C 73.6832 139.444 74.3208 140.738 74.6778 141.953 C 74.666 141.959 74.655 141.965 74.644 141.97 C 74.5316 142.023 74.4152 142.065 74.2957 142.1 C 74.0543 142.169 73.798 142.196 73.5157 142.18 C 73.7453 142.348 74.0488 142.418 74.3444 142.398 C 74.4922 142.388 74.6393 142.357 74.78 142.307 C 74.8154 142.296 74.85 142.281 74.8838 142.266 C 74.9169 142.252 74.9554 142.234 74.9837 142.221 C 75.0521 142.186 75.115 142.149 75.1779 142.108 C 75.4256 141.945 75.6332 141.721 75.7739 141.463 C 75.9131 141.205 75.9862 140.908 75.9469 140.626 C 75.8274 140.883 75.6898 141.102 75.5247 141.295 C 75.3753 141.471 75.2046 141.623 75.0191 141.752 C 74.6503 140.539 74.0118 139.251 73.1194 137.923 C 74.9884 136.949 76.9895 136.226 79.0433 135.744 C 81.6184 135.142 84.2824 134.913 86.922 135.076 C 88.243 135.158 89.5561 135.338 90.8441 135.627 C 92.1336 135.916 93.3964 136.317 94.6222 136.814 C 95.7836 137.285 96.908 137.842 97.9891 138.474 C 97.2343 139.888 96.7602 141.387 96.3993 142.7 C 96.3363 142.667 96.275 142.634 96.2168 142.597 C 96.0368 142.483 95.8709 142.349 95.7097 142.2 C 95.3873 141.902 95.1019 141.545 94.7748 141.221 C 94.9721 141.637 95.1876 142.042 95.4903 142.407 C 95.6397 142.588 95.8158 142.757 96.0124 142.899 C 96.1123 142.969 96.2184 143.031 96.3238 143.088 L 96.4055 143.128 L 96.4826 143.165 C 96.5345 143.19 96.5887 143.215 96.6406 143.239 C 96.7484 143.285 96.8537 143.329 96.9583 143.37 C 97.0597 143.411 97.1753 143.459 97.2917 143.493 C 97.5221 143.563 97.7588 143.604 97.9962 143.616 C 98.2337 143.628 98.4711 143.614 98.7031 143.566 C 98.9319 143.517 99.1576 143.438 99.3526 143.312 C 98.9028 143.41 98.4578 143.394 98.0292 143.318 C 97.8162 143.278 97.6062 143.223 97.4057 143.149 C 97.3051 143.112 97.2115 143.07 97.1046 143.022 L 96.7932 142.888 C 96.7782 142.881 96.7641 142.874 96.7492 142.868 C 97.1054 141.566 97.5724 140.072 98.3186 138.67 C 99.4005 139.323 100.437 140.051 101.418 140.849 C 103.468 142.517 105.282 144.485 106.729 146.697 C 108.176 148.907 109.249 151.368 109.785 153.953 C 109.938 154.688 110.045 155.434 110.085 156.181 C 105.544 151.209 100.409 148.339 93.9735 147.166 C 89.2329 146.301 80.0545 145.324 71.8471 148.497 C 69.3082 149.479 66.9006 150.971 64.0754 153.319 C 63.9582 152.715 63.8835 152.102 63.8552 151.487 C 63.7955 150.177 63.9488 148.857 64.3113 147.598 C 64.6714 146.336 65.2399 145.136 65.968 144.044 C 66.3321 143.497 66.7354 142.976 67.1711 142.484 C 67.6074 141.993 68.0737 141.523 68.5612 141.079 C 69.5354 140.191 70.5993 139.4 71.7253 138.711 Z" id="svg_15" stroke-width="0" stroke="null" transform=""/><path fill="#ffffff" d="M 88.8233 164.265 C 88.8768 164.588 88.9059 164.918 88.8956 165.249 C 88.8815 165.579 88.8327 165.918 88.6888 166.219 C 88.6723 165.888 88.6393 165.578 88.5937 165.263 C 88.5497 164.951 88.497 164.64 88.4459 164.327 C 88.3947 164.015 88.3413 163.7 88.298 163.382 C 88.2556 163.063 88.2163 162.742 88.2147 162.409 C 88.3712 162.702 88.4907 163.004 88.5913 163.314 C 88.6896 163.625 88.7698 163.942 88.8233 164.265 Z M 94.2016 161.152 C 94.2016 161.881 94.796 162.473 95.5241 162.473 C 96.2538 162.473 96.8467 161.881 96.8467 161.152 C 96.8467 160.423 96.2538 159.83 95.5241 159.83 C 94.796 159.83 94.2016 160.423 94.2016 161.152 Z M 94.5853 161.152 C 94.5853 160.634 95.0059 160.214 95.5217 160.214 C 96.0391 160.214 96.4606 160.634 96.4606 161.152 C 96.4606 161.669 96.0391 162.09 95.5217 162.09 C 95.0059 162.09 94.5853 161.669 94.5853 161.152 Z M 78.7092 160.558 C 78.7092 161.364 79.3641 162.02 80.1701 162.02 S 81.6318 161.364 81.6318 160.558 C 81.6318 159.753 80.976 159.097 80.1701 159.097 S 78.7092 159.753 78.7092 160.558 Z M 79.0921 160.558 C 79.0921 159.964 79.5757 159.48 80.1701 159.48 S 81.2481 159.964 81.2481 160.558 S 80.7645 161.637 80.1701 161.637 C 79.5764 161.637 79.0921 161.152 79.0921 160.558 Z" id="svg_16" stroke-width="0" stroke="null" transform=""/></g></g></svg>