<svg xmlns="http://www.w3.org/2000/svg" xmlns:se="http://svg-edit.googlecode.com" xmlns:xlink="http://www.w3.org/1999/xlink" id="svgcontent" width="394.5" height="393.6" x="0" y="0" viewBox="0 0 394.5 393.6" overflow="hidden"><g mask="" style="pointer-events:all"><title style="pointer-events:inherit">Layer 1</title><circle cx="198.7500023702296" cy="196.2999993463842" r="195.89998870710042" id="svg_2" fill="#ff025f" display="null" fill-opacity="1" stroke-opacity="1" stroke="#000000" lockTransform="true" lockEdit="true" lock="true" transform=""/><g id="svg_11" type="text" text="Company Name" font-size="40.27592456083162" font-family="Bebas Neue" fill="000000" text-anchor="start" font-weight="normal" font-style="normal" lineHeight="1" shapeId="0" shapeVal="0" fill-opacity="1" display="null" stroke-opacity="1" stroke-width="null" stroke-dasharray="none" stroke="ull" style="pointer-events:inherit"><path id="svg_1" fill="#000000" stroke-width="null" d="M112.223,112.642C112.223,112.642 116.363,112.642 116.363,112.642C116.81,118.795 115.579,123.494 109.762,123.494C100.14,123.494 103.161,110.405 103.161,101.678C103.161,97.2031 105.399,94.6299 109.762,94.6299C115.132,94.518 116.81,98.5456 116.363,104.475C116.363,104.475 112.223,104.475 112.223,104.475C112.335,101.79 112.447,98.6575 109.874,98.6575C108.419,98.6575 107.636,99.4406 107.636,101.454C107.636,101.454 107.636,116.67 107.636,116.67C107.636,118.684 108.419,119.467 109.874,119.467C112.782,119.467 112.223,115.439 112.223,112.642C112.223,112.642 112.223,112.642 112.223,112.642M123.075,101.454C123.075,101.454 123.075,116.67 123.075,116.67C123.075,118.684 123.858,119.467 125.313,119.467C126.767,119.467 127.662,118.684 127.662,116.67C127.662,116.67 127.662,101.454 127.662,101.454C127.662,99.4406 126.767,98.6575 125.313,98.6575C123.858,98.6575 123.075,99.4406 123.075,101.454C123.075,101.454 123.075,101.454 123.075,101.454M125.313,123.494C115.579,123.494 118.6,110.405 118.6,101.678C118.6,97.2031 120.95,94.6299 125.313,94.6299C135.04601,94.6299 132.02499,107.72 132.02499,116.446C132.02499,120.921 129.67599,123.494 125.313,123.494C125.313,123.494 125.313,123.494 125.313,123.494M140.976,94.9655C140.976,94.9655 144.22,114.992 144.22,114.992C144.22,114.992 147.241,94.9655 147.241,94.9655C147.241,94.9655 153.394,94.9655 153.394,94.9655C153.394,94.9655 153.394,123.159 153.394,123.159C153.394,123.159 149.255,123.159 149.255,123.159C149.255,123.159 149.255,102.909 149.255,102.909C149.255,102.909 146.23399,123.159 146.23399,123.159C146.23399,123.159 141.98199,123.159 141.98199,123.159C141.98199,123.159 138.73801,103.244 138.73801,103.244C138.73801,103.244 138.73801,123.159 138.73801,123.159C138.73801,123.159 134.82201,123.159 134.82201,123.159C134.82201,123.159 134.82201,94.9655 134.82201,94.9655C134.82201,94.9655 140.976,94.9655 140.976,94.9655C140.976,94.9655 140.976,94.9655 140.976,94.9655M156.52699,94.9655C163.575,94.6299 169.728,94.6299 169.728,101.902C169.728,108.95 168.49699,113.425 161.002,112.53C161.002,112.53 161.002,123.159 161.002,123.159C161.002,123.159 156.52699,123.159 156.52699,123.159C156.52699,123.159 156.52699,94.9655 156.52699,94.9655C156.52699,94.9655 156.52699,94.9655 156.52699,94.9655M165.25301,101.678C165.36501,98.6575 163.575,98.9931 161.002,98.9931C161.002,98.9931 161.002,108.503 161.002,108.503C163.463,108.503 165.25301,108.95 165.25301,105.93C165.25301,105.93 165.25301,101.678 165.25301,101.678C165.25301,101.678 165.25301,101.678 165.25301,101.678M181.47501,94.9655C181.47501,94.9655 186.062,123.159 186.062,123.159C186.062,123.159 181.58701,123.159 181.58701,123.159C181.58701,123.159 180.804,118.012 180.804,118.012C180.804,118.012 175.32201,118.012 175.32201,118.012C175.32201,118.012 174.539,123.159 174.539,123.159C174.539,123.159 170.511,123.159 170.511,123.159C170.511,123.159 174.98599,94.9655 174.98599,94.9655C174.98599,94.9655 181.47501,94.9655 181.47501,94.9655C181.47501,94.9655 181.47501,94.9655 181.47501,94.9655M178.007,100C178.007,100 175.881,114.208 175.881,114.208C175.881,114.208 180.133,114.208 180.133,114.208C180.133,114.208 178.007,100 178.007,100M197.474,123.159C197.474,123.159 191.992,102.685 191.992,102.685C191.992,102.685 191.992,123.159 191.992,123.159C191.992,123.159 187.964,123.159 187.964,123.159C187.964,123.159 187.964,94.9655 187.964,94.9655C187.964,94.9655 193.558,94.9655 193.558,94.9655C193.558,94.9655 198.033,111.859 198.033,111.859C198.033,111.859 198.033,94.9655 198.033,94.9655C198.033,94.9655 202.061,94.9655 202.061,94.9655C202.061,94.9655 202.061,123.159 202.061,123.159C202.061,123.159 197.474,123.159 197.474,123.159C197.474,123.159 197.474,123.159 197.474,123.159M209.22099,123.159C209.22099,123.159 209.22099,113.761 209.22099,113.761C209.22099,113.761 203.627,94.9655 203.627,94.9655C203.627,94.9655 208.326,94.9655 208.326,94.9655C208.326,94.9655 211.68201,107.831 211.68201,107.831C211.68201,107.831 215.039,94.9655 215.039,94.9655C215.039,94.9655 219.28999,94.9655 219.28999,94.9655C219.28999,94.9655 213.696,113.761 213.696,113.761C213.696,113.761 213.696,123.159 213.696,123.159C213.696,123.159 209.22099,123.159 209.22099,123.159C209.22099,123.159 209.22099,123.159 209.22099,123.159M236.631,123.159C236.631,123.159 231.149,102.685 231.149,102.685C231.149,102.685 231.149,123.159 231.149,123.159C231.149,123.159 227.121,123.159 227.121,123.159C227.121,123.159 227.121,94.9655 227.121,94.9655C227.121,94.9655 232.715,94.9655 232.715,94.9655C232.715,94.9655 237.19,111.859 237.19,111.859C237.19,111.859 237.19,94.9655 237.19,94.9655C237.19,94.9655 241.218,94.9655 241.218,94.9655C241.218,94.9655 241.218,123.159 241.218,123.159C241.218,123.159 236.631,123.159 236.631,123.159C236.631,123.159 236.631,123.159 236.631,123.159M254.084,94.9655C254.084,94.9655 258.67099,123.159 258.67099,123.159C258.67099,123.159 254.196,123.159 254.196,123.159C254.196,123.159 253.41299,118.012 253.41299,118.012C253.41299,118.012 247.931,118.012 247.931,118.012C247.931,118.012 247.147,123.159 247.147,123.159C247.147,123.159 243.12,123.159 243.12,123.159C243.12,123.159 247.595,94.9655 247.595,94.9655C247.595,94.9655 254.084,94.9655 254.084,94.9655C254.084,94.9655 254.084,94.9655 254.084,94.9655M250.616,100C250.616,100 248.49001,114.208 248.49001,114.208C248.49001,114.208 252.741,114.208 252.741,114.208C252.741,114.208 250.616,100 250.616,100M266.72601,94.9655C266.72601,94.9655 269.97,114.992 269.97,114.992C269.97,114.992 272.991,94.9655 272.991,94.9655C272.991,94.9655 279.14401,94.9655 279.14401,94.9655C279.14401,94.9655 279.14401,123.159 279.14401,123.159C279.14401,123.159 275.005,123.159 275.005,123.159C275.005,123.159 275.005,102.909 275.005,102.909C275.005,102.909 271.98401,123.159 271.98401,123.159C271.98401,123.159 267.733,123.159 267.733,123.159C267.733,123.159 264.48801,103.244 264.48801,103.244C264.48801,103.244 264.48801,123.159 264.48801,123.159C264.48801,123.159 260.573,123.159 260.573,123.159C260.573,123.159 260.573,94.9655 260.573,94.9655C260.573,94.9655 266.72601,94.9655 266.72601,94.9655C266.72601,94.9655 266.72601,94.9655 266.72601,94.9655M286.75201,98.9931C286.75201,98.9931 286.75201,106.825 286.75201,106.825C286.75201,106.825 292.793,106.825 292.793,106.825C292.793,106.825 292.793,110.852 292.793,110.852C292.793,110.852 286.75201,110.852 286.75201,110.852C286.75201,110.852 286.75201,119.131 286.75201,119.131C286.75201,119.131 294.35999,119.131 294.35999,119.131C294.35999,119.131 294.35999,123.159 294.35999,123.159C294.35999,123.159 282.27701,123.159 282.27701,123.159C282.27701,123.159 282.27701,94.9655 282.27701,94.9655C282.27701,94.9655 294.35999,94.9655 294.35999,94.9655C294.35999,94.9655 294.35999,98.9931 294.35999,98.9931C294.35999,98.9931 286.75201,98.9931 286.75201,98.9931C286.75201,98.9931 286.75201,98.9931 286.75201,98.9931" stroke="#ull" style="pointer-events:inherit"/></g><g id="svg_3" type="text" text="© 2015@##@#@Website URL" font-size="15.725811582357931" font-family="Calibri" fill="000000" text-anchor="middle" font-weight="normal" font-style="normal" lineHeight="1" shapeId="0" shapeVal="0" fill-opacity="1" display="null" stroke-width="null" stroke-dasharray="none" stroke="null" stroke-opacity="1" style="pointer-events:inherit"><path id="svg_26" fill="#000000" stroke-width="null" d="M273.185,287.01999C273.185,289.94699 274.452,291.47501 277.466,291.47501C280.436,291.47501 281.52802,289.64099 281.57199,286.80099C281.57199,283.875 280.26099,282.34601 277.33499,282.34601C274.40799,282.34601 273.185,284.09299 273.185,287.01999C273.185,287.01999 273.185,287.01999 273.185,287.01999M277.37799,281.47198C280.87299,281.47198 282.62,283.21899 282.62,286.71399C282.62,290.34 281.004,292.39301 277.37799,292.349C273.884,292.349 272.17999,290.60199 272.17999,287.10699C272.17999,283.43799 273.79599,281.51599 277.37799,281.47198C277.37799,281.47198 277.37799,281.47198 277.37799,281.47198M277.59698,289.33499C278.55801,289.55301 278.82001,288.418 279.47501,288.67999C279.737,289.98999 278.60101,290.29599 277.466,290.29599C275.5,290.29599 274.67001,289.02899 274.67001,286.97601C274.67001,284.00601 277.90201,282.34601 279.51901,284.53C279.51901,284.836 279.51901,285.229 279.29999,285.185C278.689,285.05399 278.383,284.44299 277.509,284.48599C276.242,284.53 275.806,285.535 275.806,286.93201C275.806,288.28699 276.19901,289.33499 277.59698,289.33499C277.59698,289.33499 277.59698,289.33499 277.59698,289.33499M292.57999,285.62201C293.32199,282.914 289.87201,283.00101 288.73599,284.13699C287.94901,282.73901 289.87201,282.215 291.22601,282.12701C294.54599,281.953 294.633,286.01501 292.88599,287.89301C292.88599,287.89301 289.95901,291.082 289.95901,291.082C289.95901,291.082 294.371,291.12601 294.371,291.12601C294.633,291.25699 294.677,292.21799 294.284,292.21799C294.284,292.21799 288.60501,292.17401 288.60501,292.17401C288.168,292 288.34299,290.995 288.64801,290.82001C289.95901,289.117 291.96799,287.93701 292.57999,285.62201C292.57999,285.62201 292.57999,285.62201 292.57999,285.62201M299.52499,282.12701C302.27701,282.12701 302.845,284.39899 302.845,287.23801C302.802,290.078 302.146,292.349 299.30701,292.349C296.51099,292.349 295.94299,290.16501 295.987,287.28201C295.987,284.39899 296.73001,282.12701 299.52499,282.12701C299.52499,282.12701 299.52499,282.12701 299.52499,282.12701M299.39401,291.30099C301.27301,291.30099 301.491,289.29099 301.491,287.32599C301.491,285.27301 301.40399,283.21899 299.43799,283.21899C297.51599,283.21899 297.38501,285.185 297.341,287.19501C297.341,289.33499 297.47198,291.30099 299.39401,291.30099C299.39401,291.30099 299.39401,291.30099 299.39401,291.30099M308.39301,291.17001C309.31,291.12601 311.189,290.995 310.228,292.21799C310.228,292.21799 304.94199,292.17401 304.94199,292.17401C304.63599,292.043 304.63599,291.17001 305.02899,291.17001C305.02899,291.17001 307.08301,291.17001 307.08301,291.17001C307.08301,291.17001 307.08301,283.61301 307.08301,283.61301C307.08301,283.61301 304.94199,284.836 304.94199,284.836C304.59299,284.836 304.63599,283.875 304.94199,283.78699C305.94699,283.39401 307.039,281.647 308.39301,282.43301C308.39301,282.43301 308.39301,291.17001 308.39301,291.17001C308.39301,291.17001 308.39301,291.17001 308.39301,291.17001M313.76599,286.23401C316.21201,285.884 318.353,286.62701 318.353,289.02899C318.353,292.21799 314.203,293.22299 312.14999,291.60699C312.14999,291.60699 311.97501,290.733 312.32501,290.646C313.67899,291.56299 316.95499,291.694 316.95499,289.16C316.95499,287.151 314.90201,287.10699 312.98001,287.32599C312.67401,287.32599 312.58701,287.151 312.58701,286.845C312.58701,286.845 312.58701,282.78299 312.58701,282.78299C312.58701,282.47699 312.76099,282.258 313.06699,282.302C313.06699,282.302 317.56601,282.302 317.56601,282.302C317.82901,282.43301 317.82901,283.39401 317.479,283.43799C317.479,283.43799 313.76599,283.43799 313.76599,283.43799C313.76599,283.43799 313.76599,286.23401 313.76599,286.23401C313.76599,286.23401 313.76599,286.23401 313.76599,286.23401" stroke="null" style="pointer-events:inherit"/><path id="svg_27" fill="#000000" stroke-width="null" d="M265.64499,301.33099C265.73199,300.85101 267.30399,300.89401 266.91101,301.54999C266.91101,301.54999 264.29001,310.72299 264.29001,310.72299C264.203,311.24701 262.63,311.29099 262.45599,310.72299C262.45599,310.72299 260.35901,303.25299 260.35901,303.25299C260.35901,303.25299 258.43701,310.72299 258.43701,310.72299C258.39301,311.24701 256.77701,311.24701 256.60199,310.72299C256.60199,310.72299 253.938,301.28799 253.938,301.28799C253.938,300.85101 255.03,301.02499 255.29201,301.20001C255.29201,301.20001 257.56299,309.63101 257.56299,309.63101C257.56299,309.63101 259.83499,301.11301 259.83499,301.11301C260.272,301.069 261.05801,300.89401 261.14499,301.33099C261.14499,301.33099 263.45999,309.63101 263.45999,309.63101C263.45999,309.63101 265.64499,301.33099 265.64499,301.33099M271.45401,303.55899C273.55099,303.55899 274.556,304.91299 274.51199,307.09698C274.51199,307.44699 274.29401,307.578 274.03201,307.62201C274.03201,307.62201 269.48901,307.62201 269.48901,307.62201C269.18301,310.41699 272.241,310.505 274.11899,309.63101C274.599,311.02899 272.85199,311.116 271.58499,311.16C269.18301,311.16 268.134,309.76199 268.134,307.40302C268.134,305.13199 269.26999,303.55899 271.45401,303.55899C271.45401,303.55899 271.45401,303.55899 271.45401,303.55899M273.245,306.70401C273.638,304.345 270.23099,303.86499 269.62,305.87399C269.53201,306.13599 269.48901,306.44199 269.48901,306.70401C269.48901,306.70401 273.245,306.70401 273.245,306.70401C273.245,306.70401 273.245,306.70401 273.245,306.70401M279.97198,303.55899C282.026,303.55899 282.76801,305.17499 282.76801,307.272C282.76801,309.54401 281.98199,311.073 279.798,311.16C278.61801,311.16 278.181,310.59201 277.57001,309.98001C277.87601,310.72299 277.133,311.55301 276.43399,310.854C276.43399,310.854 276.565,300.414 276.565,300.414C276.784,300.28299 277.65701,300.23901 277.70099,300.58899C277.70099,300.58899 277.70099,304.73901 277.70099,304.73901C278.31299,304.08301 278.83701,303.55899 279.97198,303.55899C279.97198,303.55899 279.97198,303.55899 279.97198,303.55899M279.66699,310.06799C282.15701,310.112 282.11301,304.651 279.754,304.651C278.70599,304.651 278.26901,305.35001 277.70099,306.005C277.70099,306.005 277.70099,308.75699 277.70099,308.75699C278.26901,309.41299 278.66199,310.06799 279.66699,310.06799C279.66699,310.06799 279.66699,310.06799 279.66699,310.06799M288.534,305.08801C287.74799,304.47601 284.909,304.17099 285.651,306.04901C286.569,307.185 289.05899,306.79199 289.01501,308.97601C289.01501,310.548 287.879,311.073 286.306,311.16C285.08301,311.20401 283.55399,310.63599 284.341,309.5C285.12701,310.112 287.66101,310.767 287.79199,309.06299C287.311,307.272 284.297,308.01501 284.297,305.612C284.297,303.55899 287.70401,302.81601 288.66501,304.38901C288.66501,304.651 288.70901,304.957 288.534,305.08801C288.534,305.08801 288.534,305.08801 288.534,305.08801M291.94199,303.73401C292.24701,305.74301 292.073,308.93201 291.94199,311.02899C291.548,310.98499 290.93701,311.24701 290.806,310.854C290.806,310.854 290.93701,303.73401 290.93701,303.73401C291.24301,303.73401 291.67899,303.646 291.94199,303.73401C291.94199,303.73401 291.94199,303.73401 291.94199,303.73401M291.41699,300.85101C292.02899,300.85101 292.20401,300.98199 292.20401,301.59299C292.20401,302.24899 292.02899,302.38 291.41699,302.38C290.806,302.38 290.63101,302.24899 290.63101,301.59299C290.63101,300.98199 290.806,300.85101 291.41699,300.85101C291.41699,300.85101 291.41699,300.85101 291.41699,300.85101M295.95999,308.62601C295.742,310.155 297.052,310.06799 297.92599,309.93701C298.14499,310.89801 297.577,311.16 296.703,311.16C293.776,311.16 294.91199,307.40302 294.694,304.78201C293.86401,304.957 293.077,304.651 293.60199,303.73401C293.60199,303.73401 294.694,303.73401 294.694,303.73401C294.56299,302.77301 294.60599,301.15701 295.95999,302.07401C295.95999,302.07401 295.95999,303.73401 295.95999,303.73401C295.95999,303.73401 297.83899,303.73401 297.83899,303.73401C298.013,303.909 298.10101,304.78201 297.70801,304.78201C297.70801,304.78201 295.95999,304.78201 295.95999,304.78201C295.95999,304.78201 295.95999,308.62601 295.95999,308.62601C295.95999,308.62601 295.95999,308.62601 295.95999,308.62601M302.46899,303.55899C304.56601,303.55899 305.57101,304.91299 305.52701,307.09698C305.52701,307.44699 305.30899,307.578 305.04599,307.62201C305.04599,307.62201 300.50299,307.62201 300.50299,307.62201C300.198,310.41699 303.255,310.505 305.134,309.63101C305.61401,311.02899 303.867,311.116 302.60001,311.16C300.198,311.16 299.14899,309.76199 299.14899,307.40302C299.14899,305.13199 300.285,303.55899 302.46899,303.55899C302.46899,303.55899 302.46899,303.55899 302.46899,303.55899M304.26001,306.70401C304.65302,304.345 301.246,303.86499 300.634,305.87399C300.547,306.13599 300.50299,306.44199 300.50299,306.70401C300.50299,306.70401 304.26001,306.70401 304.26001,306.70401C304.26001,306.70401 304.26001,306.70401 304.26001,306.70401M317.27802,301.28799C317.409,300.93799 318.457,300.93799 318.58801,301.28799C318.58801,301.28799 318.58801,307.35901 318.58801,307.35901C318.54401,309.806 317.27802,311.16 314.78799,311.16C312.341,311.16 311.11801,309.849 311.11801,307.44699C311.11801,305.39401 310.987,302.991 311.24899,301.11301C311.64301,301.02499 312.298,300.93799 312.42899,301.28799C312.73499,304.69501 311.16199,310.06799 314.875,310.06799C318.58801,310.06799 316.92801,304.651 317.27802,301.28799C317.27802,301.28799 317.27802,301.28799 317.27802,301.28799M327.194,303.69C327.194,305.17499 326.36401,305.83099 325.272,306.224C326.75699,307.05399 327.28101,309.23801 327.76099,310.94101C327.543,311.20401 326.40701,311.16 326.36401,310.767C325.44601,309.01901 325.577,306.17999 322.47601,306.617C322.47601,306.617 322.47601,310.81 322.47601,310.81C322.51999,311.20401 321.69,311.073 321.29599,311.02899C321.20901,311.02899 321.20901,310.89801 321.16501,310.81C321.16501,310.81 321.16501,301.63699 321.16501,301.63699C321.427,300.54501 323.48099,301.28799 324.83499,301.15701C326.233,301.41901 327.194,302.07401 327.194,303.69C327.194,303.69 327.194,303.69 327.194,303.69M322.47601,305.52499C324.17899,305.569 325.79599,305.569 325.79599,303.86499C325.79599,302.20499 324.267,302.11801 322.47601,302.20499C322.47601,302.20499 322.47601,305.52499 322.47601,305.52499C322.47601,305.52499 322.47601,305.52499 322.47601,305.52499M334.57599,309.89301C334.92499,309.89301 334.83801,310.37399 334.83801,310.72299C334.83801,310.89801 334.707,311.02899 334.57599,311.02899C334.57599,311.02899 330.164,311.02899 330.164,311.02899C329.90201,310.98499 329.68399,310.854 329.68399,310.505C329.68399,310.505 329.815,301.11301 329.815,301.11301C330.164,301.069 330.90701,300.89401 330.99399,301.28799C330.99399,301.28799 330.99399,309.89301 330.99399,309.89301C330.99399,309.89301 334.57599,309.89301 334.57599,309.89301C334.57599,309.89301 334.57599,309.89301 334.57599,309.89301" stroke="null" style="pointer-events:inherit"/></g><g id="svg_13" display="null" clip-id="191" stroke-opacity="1" stroke="null" transform=""><path fill="#2AACE3" d="M173.30695222506046,77.74933351322258 C176.55139283545614,71.9964159957143 186.43550993370891,54.48175817339978 170.81038689720393,22.265427338511586 C172.8020780014503,23.64017368992768 174.70352436651586,25.108154780602092 176.4750207282138,26.646564294154274 C183.47175406742932,45.671862155617106 183.1374914271879,61.21366466364705 175.46131385983824,74.1636818413528 L173.30695222506046,77.74933351322258 M186.69835151946785,82.26537152499282 C187.62278206974028,75.7209271448668 190.44171056384565,55.8088945235821 222.44280981420874,39.751310949554096 C220.02559448840856,39.62931410428726 217.626234426229,39.63922831507051 215.2804280496478,39.78107779243075 C198.15756918485522,50.62135333651503 188.96182999917866,63.15279471389974 187.17049311065077,78.10542194350327 L186.69835151946785,82.26537152499282 " id="svg_14" stroke-width="0" stroke="null" transform=""/><path fill="#2E358F" d="M177.318128118484,71.07297807704649 C180.25905345785617,65.86361109994016 187.13776047822356,53.66742499440156 180.72424662780642,30.723205452432268 C182.24579350934266,32.36476391602599 183.60764775516154,34.05394448611699 184.77707673283578,35.768909267402506 C186.05660308178423,45.223531617682795 186.3035867723954,55.61052557107294 179.47447501647113,67.48532903670394 C178.75734710314987,68.68055433083617 178.0382339266193,69.87775278291426 177.318128118484,71.07297807704649 M187.5781499633205,74.52174342957937 C188.41728682717203,68.59822643396578 190.37922319380522,54.73567817998014 209.427339476912,40.42876991447889 C207.22436310403228,40.80766466114008 205.11066304925563,41.32046783232414 203.1427708929944,41.96817205963572 C196.3682175595367,48.68917170749506 189.8565058118379,56.78490560150706 188.0522768177128,70.3617938480898 C187.89554997154593,71.74645441028918 187.73585733582854,73.134104972566 187.5781499633205,74.52174342957937 " id="svg_15" stroke-width="0" stroke="null" transform=""/><path fill="#EBE212" d="M169.60425476068377,83.91387840981923 C184.46661304057955,57.56453299013219 167.74546734409213,27.758469059811432 159.86992819262863,16.168320864715213 C162.0877698290515,17.13938088988027 164.2709056751013,18.247303023855324 166.38361309827326,19.469305160786718 C173.9020832931149,32.88054498202405 184.59655093868372,58.62187933332288 171.76159429027555,80.32524884313545 C171.0414884821403,81.52244729521357 170.321382674005,82.71965785255514 169.60425476068377,83.91387840981923 M181.02379137241127,64.91139897000036 C183.17617984924314,61.09067518677554 187.65650733377217,53.147673401984775 186.98401152687072,39.48747673219049 C187.27661995550633,40.066737799833646 187.54343206768394,40.64797202542266 187.78743786348105,41.23120361948452 C188.26850103384257,42.38575522835217 188.6335110433018,43.49963315195524 188.8854578919363,44.571868969215956 C187.9937478688276,50.55886596647463 186.81539731197478,55.00348292376242 183.17617984924314,61.32673992973528 L181.02379137241127,64.91139897000036 M185.8909667617023,89.40394223630511 C190.12828108203888,59.45108988112773 221.53027873792888,45.97140690022195 234.83539171431065,41.57142204935394 C232.4836416533649,40.99216098171078 230.07733316995265,40.54184518056712 227.66011784415244,40.225437803946335 C213.53273063593508,46.29575532968005 189.3823910627091,60.2118572692641 186.36408887922647,85.24895581283891 C186.20538887511373,86.63262374343361 186.04569623939634,88.02225956891976 185.8909667617023,89.40394223630511 M188.3895173527682,67.38019482345305 C189.00646210559844,63.03971944781148 190.28103740178705,54.009616582216836 199.1296097363615,43.577009996065726 C198.54241972114443,43.856714213840576 197.97902865391254,44.157251590050095 197.43448548190594,44.470693177120324 C196.34738440110206,45.091608456369244 195.38029490235564,45.75617531569682 194.5302511961162,46.45544796539747 C191.5952695411086,51.74813547097884 189.8207952845967,55.99140558094345 188.86859525992037,63.22321103151404 L188.3895173527682,67.38019482345305 " id="svg_16" stroke-width="0" stroke="null" transform=""/><path fill="#9A2481" d="M169.72130055319073,81.7773599333986 C177.98466813575746,54.452003435786594 160.19525714842794,25.44638794726214 148.375,12.615401825272642 L148.4156615800011,12.550929192022892 C150.61963058448555,12.96851236073934 152.84045011572243,13.560665533979773 155.04937017296672,14.307548184914225 C160.1367403048062,20.942249409484475 184.69871936238408,55.579766096591555 168.6133663139522,85.53759371505578 C169.20849738200667,84.41180421219673 169.5814363390398,83.15112575847348 169.72130055319073,81.7773599333986 M184.72152567876458,58.74883933661303 C186.21134466474177,56.10843926818691 187.90150576117398,53.11394813795289 189.30699948180794,47.86689747565947 C189.32882527184725,49.31702330271327 189.10664526608943,50.661022284911496 188.65732209655047,51.872117579454994 C188.1415410305524,52.86697655260525 187.4402831176424,54.18815711315952 186.8808625768292,55.16020976992928 L184.72152567876458,58.74883933661303 M187.09907205616832,87.6393942958399 C197.16271021170496,60.928004656244156 228.93368840347293,48.7367817087289 246.11904674356936,45.74426373644076 L246.12499042793394,45.66689899759376 C244.1273435340595,44.660140550450905 242.00371716323616,43.778356843388906 239.79380447438717,43.02254050801238 C231.71789900194167,45.19972056443416 191.15190216119765,57.74009562626088 185.6846446510923,91.30340333816133 C185.89988834088086,90.04469804238403 186.37103730045914,88.81377432627403 187.09907205616832,87.6393942958399 M189.2048431633711,60.23864621732676 C189.6273773848474,57.23522140265072 190.11141845002294,53.83009552493294 192.18644218800782,48.8111685527619 C191.2868032173252,49.950842792822925 190.6460474112463,51.15300440292441 190.26417476977107,52.38591338224373 C190.06579371199848,53.48987709506355 189.8237731794107,54.964806606970654 189.67498738608123,56.078684530573724 L189.2048431633711,60.23864621732676 " id="svg_17" stroke-width="0" stroke="null" transform=""/></g></g><defs><mask id="canvasMaskImageDef" maskUnits="objectBoundingBox" x="0" y="0"><image xmlns:xlink="http://www.w3.org/1999/xlink" id="canvasMaskImage" preserveAspectRatio="none" x="-1.2" y="-3" width="400" height="400.8" xlink:href="http://html5designer.designnbuy.in/media/catalog/product/c/d/cd_mask.png"/></mask></defs></svg>