<?xml version="1.0" encoding="utf-8"?>
<!-- Generator: Adobe Illustrator 16.0.0, SVG Export Plug-In . SVG Version: 6.00 Build 0)  -->
<!DOCTYPE svg PUBLIC "-//W3C//DTD SVG 1.1//EN" "http://www.w3.org/Graphics/SVG/1.1/DTD/svg11.dtd">
<svg version="1.1" id="Layer_1" xmlns="http://www.w3.org/2000/svg" xmlns:xlink="http://www.w3.org/1999/xlink" x="0px" y="0px"
	 width="31.474px" height="31.082px" viewBox="0.323 0.249 31.474 31.082" enable-background="new 0.323 0.249 31.474 31.082"
	 xml:space="preserve">
<path d="M17.047,27.945c-0.34,0.031-0.688,0.054-1.046,0.054l0,0c-0.319,0-0.631-0.017-0.934-0.043l0,0l-2.626,3.375l-0.646-0.183
	c-0.758-0.213-1.494-0.48-2.202-0.801l0,0L8.979,30.07l0.158-4.24c-0.559-0.391-1.079-0.825-1.562-1.303l0,0L3.424,25.42
	l-0.379-0.557c-0.444-0.654-0.823-1.34-1.16-2.032l0,0l-0.292-0.604l2.819-3.121c-0.176-0.66-0.293-1.342-0.353-2.037l0,0
	l-3.736-1.976l0.068-0.669c0.08-0.801,0.234-1.567,0.42-2.303l0,0l0.165-0.653l4.167-0.577C5.44,10.264,5.79,9.67,6.184,9.111l0,0
	L4.594,5.197l0.48-0.47c0.564-0.55,1.168-1.048,1.798-1.503l0,0L7.418,2.83l3.598,2.259c0.605-0.279,1.239-0.509,1.896-0.685l0,0
	l1.304-4.046l0.673-0.051c0.361-0.027,0.751-0.058,1.174-0.058l0,0c0.422,0,0.81,0.031,1.172,0.058l0,0l0.672,0.051l1.318,4.088
	c0.632,0.176,1.243,0.401,1.831,0.674l0,0l3.646-2.291l0.548,0.394c0.63,0.455,1.235,0.954,1.798,1.501l0,0l0.482,0.47l-1.639,4.031
	c0.356,0.519,0.679,1.068,0.954,1.646l0,0l4.297,0.595l0.167,0.653c0.188,0.735,0.342,1.501,0.42,2.303l0,0l0.067,0.669
	l-3.865,2.044c-0.059,0.635-0.161,1.258-0.315,1.866l0,0l2.913,3.218l-0.293,0.608c-0.335,0.694-0.712,1.382-1.159,2.034l0,0
	l-0.379,0.555l-4.255-0.912c-0.451,0.451-0.939,0.866-1.461,1.241l0,0l0.162,4.323l-0.615,0.277
	c-0.709,0.319-1.444,0.588-2.202,0.801l0,0l-0.647,0.183L17.047,27.945L17.047,27.945z M20.424,29.027
	c0.228-0.075,0.45-0.156,0.672-0.243l0,0l-0.152-4.083l0.479-0.307c0.718-0.467,1.37-1.024,1.95-1.658l0,0l0.386-0.424l4.026,0.862
	c0.121-0.202,0.238-0.409,0.351-0.62l0,0l-2.754-3.045l0.171-0.544c0.243-0.782,0.382-1.623,0.423-2.5l0,0l0.024-0.571l3.658-1.933
	c-0.038-0.234-0.082-0.467-0.132-0.7l0,0l-4.07-0.563l-0.219-0.527c-0.327-0.787-0.76-1.524-1.277-2.204l0,0l-0.342-0.453
	l1.548-3.808c-0.179-0.157-0.363-0.31-0.552-0.458l0,0l-3.455,2.169L20.649,7.15c-0.754-0.397-1.569-0.698-2.429-0.894l0,0
	l-0.557-0.127l-1.248-3.87c-0.121-0.006-0.239-0.009-0.354-0.009l0,0c-0.117,0-0.235,0.003-0.357,0.009l0,0l-1.239,3.845
	l-0.563,0.12c-0.875,0.188-1.709,0.494-2.486,0.896l0,0l-0.508,0.264L7.509,5.249C7.321,5.397,7.137,5.55,6.959,5.707l0,0
	l1.507,3.708L8.112,9.869c-0.552,0.709-1.011,1.485-1.355,2.319l0,0l-0.218,0.529L2.6,13.262c-0.051,0.233-0.095,0.466-0.132,0.7
	l0,0L6,15.829l0.022,0.575c0.037,0.929,0.191,1.82,0.459,2.652l0,0l0.175,0.549l-2.667,2.949c0.112,0.213,0.229,0.42,0.351,0.621
	l0,0l3.916-0.843l0.391,0.423c0.601,0.657,1.287,1.229,2.043,1.703l0,0l0.487,0.305l-0.148,4.021
	c0.221,0.087,0.445,0.168,0.672,0.243l0,0l2.479-3.188l0.565,0.07c0.427,0.054,0.843,0.089,1.257,0.089l0,0
	c0.445,0,0.895-0.039,1.354-0.104l0,0l0.57-0.08L20.424,29.027L20.424,29.027z M21.554,20.75l0.546,0.839l-3.463,2.253l-1.229-1.891
	l0,0c-0.447,0.109-0.917,0.173-1.406,0.173l0,0c-3.384,0-6.126-2.743-6.126-6.123l0,0c0-3.384,2.742-6.126,6.126-6.126l0,0
	c3.38,0,6.123,2.742,6.123,6.126l0,0c0,1.39-0.467,2.676-1.25,3.704l0,0L21.554,20.75 M19.224,21.073l0.107-0.069l-0.986-1.52
	l0.571-0.571c0.748-0.75,1.207-1.772,1.207-2.912l0,0c-0.004-2.278-1.848-4.122-4.123-4.126l0,0
	c-2.279,0.004-4.122,1.846-4.126,4.126l0,0c0.004,2.274,1.849,4.119,4.126,4.123l0,0c0.509,0,0.999-0.104,1.474-0.286l0,0
	l0.756-0.29L19.224,21.073L19.224,21.073z"/>
</svg>
