<?xml version="1.0" encoding="utf-8"?>
<!-- Generator: Adobe Illustrator 16.0.0, SVG Export Plug-In . SVG Version: 6.00 Build 0)  -->
<!DOCTYPE svg PUBLIC "-//W3C//DTD SVG 1.1//EN" "http://www.w3.org/Graphics/SVG/1.1/DTD/svg11.dtd">
<svg version="1.1" id="Layer_1" xmlns="http://www.w3.org/2000/svg" xmlns:xlink="http://www.w3.org/1999/xlink" x="0px" y="0px"
	 width="27.391px" height="22.779px" viewBox="2.29 5.972 27.391 22.779" enable-background="new 2.29 5.972 27.391 22.779"
	 xml:space="preserve">
<path fill="#000000" d="M15.985,5.972c-7.563,0-13.695,4.077-13.695,9.105c0,2.877,2.014,5.44,5.147,7.108
	c-0.446,1.479-1.336,3.116-3.057,4.565c0,0,4.016-0.266,6.852-3.143c0.163,0.04,0.332,0.07,0.497,0.107
	c-0.155-0.463-0.246-0.943-0.246-1.443c0-3.393,3.775-6.05,8.599-6.05c3.464,0,6.379,1.376,7.751,3.405
	c1.168-1.34,1.848-2.892,1.848-4.551C29.68,10.049,23.548,5.972,15.985,5.972z M27.68,22.274c0-2.79-3.401-5.053-7.6-5.053
	c-4.196,0-7.599,2.263-7.599,5.053c0,2.791,3.402,5.054,7.599,5.054c0.929,0,1.814-0.117,2.637-0.32
	c1.573,1.598,3.802,1.744,3.802,1.744c-0.954-0.803-1.447-1.713-1.695-2.533C26.562,25.292,27.68,23.871,27.68,22.274z"/>
</svg>
