<?xml version="1.0" encoding="utf-8"?>
<!-- Generator: Adobe Illustrator 16.0.0, SVG Export Plug-In . SVG Version: 6.00 Build 0)  -->
<!DOCTYPE svg PUBLIC "-//W3C//DTD SVG 1.1//EN" "http://www.w3.org/Graphics/SVG/1.1/DTD/svg11.dtd">
<svg version="1.1" id="Layer_1" xmlns="http://www.w3.org/2000/svg" xmlns:xlink="http://www.w3.org/1999/xlink" x="0px" y="0px"
	 width="100px" height="100px" viewBox="0 0 100 100" enable-background="new 0 0 100 100" xml:space="preserve">
<path d="M81.197,4.001c-0.174-0.54-0.598-0.897-0.711-1.567c-0.086-0.017-0.168-0.035-0.25-0.052
	c-0.475-0.085-0.717,0.506-1.42,0.306c-0.531,0.083-1.86,1.559-2.022,2.024c-0.067,0.978-0.136,1.953-0.203,2.931
	c-0.063,0.608-0.135,1.217-0.202,1.822c-0.17,0.288-0.334,0.575-0.505,0.862c-0.353,1.095-0.161,1.941-0.659,2.833
	c-1.621,2.908-3.899,5.272-5.563,8.145c-0.517,0.889-0.415,2.159-0.608,3.39c0,0.406,0,0.811,0,1.216
	c-0.859,1.043-1.72,2.091-2.582,3.135c-1.339,1.71-2.666,2.935-4.349,4.303c-0.623,0.741-1.25,1.481-1.873,2.226
	c-0.437,0.098-0.875,0.201-1.313,0.304c-0.418,0.23-0.654,0.626-1.213,0.808c-0.32,0.671-0.242,1.615-0.814,2.023
	c-0.756,0.543-2.692,0.201-3.537,0.557c-1.652,0.697-2.521,1.847-4.501,2.225c-1.011,0.193-2.976-0.186-3.596-0.504
	c-0.337-0.354-0.672-0.709-1.01-1.063c-1.172-0.886-3.098-1.736-3.39-3.442c-0.11-0.645,1.502-4.155,1.769-5.008
	c1.311-4.176,2.598-8.449,3.442-13.104c0.067-1.823,0.135-3.644,0.203-5.464c-0.132-0.814-0.188-2,0.101-2.731
	c0.265-0.67,1.176-0.766,1.72-1.163c0.811-0.596,1.336-1.387,2.227-1.974c0.355-0.234,1.324-1.063,0.354-1.266
	c0.026-0.176,0.144-0.328,0.153-0.709c0.132-0.048,0.271-0.101,0.402-0.149c0-0.168,0-0.338,0-0.508
	c-0.657-0.017-1.314-0.032-1.971-0.05c0.144-0.746,0.811-0.841,1.213-1.315c0.018-0.167,0.035-0.338,0.052-0.507
	c-0.537,0.057-1.719,0.652-2.023,1.013c-0.203,0.422-0.405,0.842-0.608,1.265c-0.338,0.186-0.675,0.371-1.014,0.557
	c-0.319,0.607-0.639,1.214-0.958,1.823c-0.593,0.944-1.477,1.722-1.975,2.729c-0.034,0.574-0.067,1.146-0.102,1.72
	c-0.188,0.793-0.372,1.588-0.556,2.381c-0.464,1.67-1.194,3.322-1.622,4.907c-0.203,1.467-0.402,2.936-0.607,4.403
	c-0.455,1.583-0.909,3.169-1.364,4.755c-1.161,2.872-3.881,4.626-4.453,8.197c-0.034,0.012-0.068,0.03-0.102,0.046
	c-0.052-0.065-0.101-0.135-0.15-0.2c0.393-0.928,0.636-1.543,0.608-2.833c-0.279-0.385-0.534-0.605-1.114-0.708
	c0.034-0.086,0.067-0.169,0.101-0.254c-0.208,0.088-0.5,0.214-0.759,0.101c-0.034,0-0.07,0-0.101,0
	c0.031-0.101,0.067-0.203,0.101-0.301c-0.288,0.193-0.43,0.377-0.912,0.402c-0.019-0.289-0.034-0.571-0.052-0.86
	c-0.083,0.289-0.166,0.571-0.252,0.86c-0.168,0.034-0.334,0.066-0.507,0.102c-0.015,0-0.034,0-0.049,0
	c-0.068-0.083-0.135-0.171-0.203-0.255c0.203-0.03,0.405-0.064,0.608-0.098c-0.286-0.019-0.574-0.037-0.86-0.053
	c-0.037,0-0.067,0-0.104,0c-0.016-0.034-0.034-0.067-0.049-0.098c0.254-0.154,0.506-0.306,0.758-0.458c0.034,0,0.071,0,0.104,0
	c0-0.015,0-0.034,0-0.052c-0.356,0.084-0.709,0.171-1.066,0.256c-0.298-0.214-0.491-0.412-0.657-0.759
	c0.218-0.035,0.439-0.071,0.657-0.103c-0.27-0.034-0.54-0.067-0.807-0.103c0-0.051,0-0.1,0-0.151c0.2-0.219,0.402-0.44,0.604-0.657
	c-0.353,0.118-0.709,0.235-1.059,0.352c-0.255-0.657-1.151-1.198-1.824-1.416c-0.019-0.034-0.034-0.064-0.053-0.101
	c0.442-0.034,0.66,0.003,1.013,0.101c-0.249-0.328-1.836-0.614-2.278-0.758c0-0.016,0-0.034,0-0.051s0-0.036,0-0.051
	c0.375-0.016,0.746-0.034,1.115-0.049c-1.323-0.642-3.147-0.12-4.655-0.101c-0.255,0.184-0.485,0.436-0.604,0.758
	c-0.203-0.019-0.409-0.034-0.608-0.051c0,0.134,0,0.269,0,0.404c-0.304-0.049-0.608-0.102-0.912-0.153
	c0.015,0.758-0.301,0.946-0.808,1.165c0.15-0.136,0.304-0.271,0.455-0.404c-1.167,0.178-1.499,0.891-2.227,1.468
	c0,0.032,0,0.067,0,0.101c-0.018,0-0.034,0-0.052,0c0.052-0.12,0.104-0.236,0.153-0.356c-0.538,0.455-0.672,1.428-0.556,2.38
	c0.188,0.184,0.368,0.368,0.556,0.556c0.354,0,0.709,0,1.063,0c0.037,1.05,0.034,2.254,0.458,2.985
	c0.163,0.282,0.578,0.401,0.707,0.758c0.19,0.538-0.12,1.194,0.052,1.67c0.175,0.316,0.639,0.33,1.063,0.253
	c0.672,0.924,1.33,1.936,2.429,2.428c1.118-0.525,1.579-1.21,2.832-1.619c0.607,0.875,1.216,1.753,1.82,2.632
	c0.154,0.519-1.504,4.087-1.771,4.452c-0.451,0.621-1.569,1.165-1.314,2.48c0.406,2.097,2.023,2.408,3.541,3.389
	c0.939,0.604,1.793,2.114,2.583,2.58c0.334,0.101,0.672,0.202,1.01,0.304c1.459,0.596,2.826,1.253,4.858,0.859
	c0.329-0.522,0.491-1.16,0.507-2.023c3.436,0.276,8.223,1.893,11.89,0.706c0.703,0.583-0.482,2.982-0.709,3.646
	c-0.251,0.826-0.506,1.652-0.758,2.479c-0.034,1.617-0.067,3.238-0.098,4.857c-0.351,1.956-0.7,3.954-0.712,6.225
	c-0.009,1.86-0.62,4.422,0,6.019c0.657,0.793,1.317,1.586,1.975,2.377c1.182,2.224,1.943,5.348,2.579,7.996
	c0.213,0.886,0.402,2.385,0.102,3.392c-0.401,1.354-2.397,2.25-3.488,2.983c-1.126,0.759-2.502,1.526-4.354,1.518
	c-0.049,0.12-0.098,0.24-0.15,0.355c0.393,1.018,1.207,0.375,2.328,0.557c1.815,0.295,3.562-0.206,5.11-0.454
	c1.028-0.166,1.983,0.221,2.781,0.401c0.425,0.1,2.646,0.164,2.783-0.049c0.521-0.808-0.574-5.582-0.76-6.729
	c-0.102-2.159-0.203-4.32-0.303-6.479c0.221-1.271,0.692-3.16,0.354-4.804c-0.322-1.047-0.642-2.091-0.961-3.138
	c-0.169-0.406-0.337-0.813-0.507-1.217c-0.02-0.273,0.267-0.276,0.203-0.707c-0.103-0.742-0.203-1.485-0.305-2.226
	c0.607,0.218,1.213,0.438,1.82,0.656c0.033,0.289,0.066,0.574,0.102,0.858c0.932,0.011,0.899,0.306,1.418,0.558
	c0.857,0.153,1.721,0.304,2.58,0.455c0.034,0.135,0.067,0.271,0.102,0.403c1.637,0.022,2.885,0.084,4.25,0.356
	c0.474,0.083,0.943,0.169,1.42,0.252c0.475-0.228,0.611-2.54,0.755-3.289c0.396-2.048,0.894-7.849,2.022-8.804
	c-0.115-0.488-0.235-0.977-0.353-1.465c0.506-0.643,1.013-1.283,1.519-1.926c0.266-0.412,0.201-0.844,0.353-1.416
	c0.288-0.758,0.577-1.517,0.862-2.278c0.404,0.067,0.812,0.139,1.213,0.204c-0.168-0.286-0.338-0.575-0.508-0.857
	c0.392-0.593,0.777-1.186,1.164-1.771c0.041-0.182-0.102-0.367-0.203-0.559c0.188-0.199,0.373-0.406,0.561-0.605
	c-0.593-0.236-1.182-0.473-1.771-0.709c0.021-1.467,0.979-4.247,1.619-5.11c0.168-0.1,0.338-0.203,0.506-0.305
	c0.033-0.335,0.067-0.671,0.102-1.009c0.236-1.141,0.826-1.69,1.668-2.229c-0.049-0.184-0.1-0.368-0.15-0.554
	c-0.643-0.389-1.281-0.777-1.922-1.162c-0.162-0.228,0.159-0.894,0.202-1.318c-0.438-0.034-0.875-0.067-1.313-0.101
	c-0.938-1.714-2.65-4.51-3.037-6.575c1.252-1.689,1.9-3.854,2.781-5.92c0.271-0.475,0.541-0.946,0.812-1.418
	c0-0.911,0-1.824,0-2.733c0.252-0.455,0.507-0.909,0.759-1.365c0.408-0.798,0.732-1.771,1.014-2.682
	c0.729-2.402,0.865-5.124,2.125-6.98c0.455-0.458,0.908-0.912,1.362-1.367c0.425-1.047,0.845-2.092,1.267-3.137
	c0.305-1.133,0.123-2.216,0.912-2.833C81.43,5.352,81.313,4.677,81.197,4.001z"/>
</svg>
