<?xml version="1.0" encoding="utf-8"?>
<!-- Generator: Adobe Illustrator 16.0.0, SVG Export Plug-In . SVG Version: 6.00 Build 0)  -->
<!DOCTYPE svg PUBLIC "-//W3C//DTD SVG 1.1//EN" "http://www.w3.org/Graphics/SVG/1.1/DTD/svg11.dtd">
<svg version="1.1" id="Layer_1" xmlns="http://www.w3.org/2000/svg" xmlns:xlink="http://www.w3.org/1999/xlink" x="0px" y="0px"
	 width="100px" height="100px" viewBox="0 0 100 100" enable-background="new 0 0 100 100" xml:space="preserve">
<path d="M62.68,34.795c1.275-3.827,4.82-9.356,4.82-9.356s6.52-8.365,7.088-10.349c0.566-1.984,0.85-2.551-1.843-5.529
	c-2.693-2.977-2.835-5.53-3.687-4.253c-0.045,0.067-0.095,0.14-0.145,0.213c-0.184-0.253-0.316-0.46-0.383-0.611
	c-0.383-0.86-0.096-1.433-0.956-2.389c0,0,0.19-0.382-0.765-0.956c-0.957-0.573-0.668-0.382-1.338-0.191
	c-0.668,0.191-2.104,0.574-2.39,0.955c-0.286,0.383-0.765,1.147-0.383,1.912c0.383,0.765,1.911,2.771,2.677,3.345
	c0.313,0.235,0.707,0.585,1.114,0.999c-0.38,0.399-0.724,0.708-0.978,0.834c-0.853,0.425,1.699,3.261,2.268,3.686
	c0.539,0.404,1.459,1.833,0.816,2.459c-0.205,0.139-0.422,0.277-0.644,0.411c-0.213,0.122-0.478,0.268-0.767,0.429
	c-0.362,0.185-0.722,0.342-1.047,0.451c-1.566,0.523-3.053,1.372-4.459,2.673c-1.015,0.424-1.83,1.028-3.271,0.669
	c-0.498-0.125-0.938-0.249-1.338-0.367c-0.371-0.558-0.698-1.046-0.871-1.254c-0.479-0.573-0.097-0.86,0-1.72
	c0.096-0.86,0.955-0.382,0.764-2.771c-0.19-2.388-1.146-5.446-3.534-6.402c-2.391-0.956-5.733,1.72-6.595,4.014
	c-0.86,2.293,0.478,2.388,1.051,4.205c0.573,1.815,1.815,3.63,2.103,4.109c0.286,0.477,0.573,1.433-0.095,1.433
	c-0.652,0-5.458,0.458-6.771,2.51c-0.427,0.372-0.863,0.891-1.288,1.628c-2.126,3.686-4.537,6.947-5.812,7.229
	c-1.275,0.284-4.962,2.127-6.096,2.411c-0.453,0.113-0.497,0.398-0.391,0.781c-0.4-0.028-0.783-0.145-1.145-0.417
	c-1.147-0.86-1.624-1.528-2.294-2.388c-0.668-0.861-0.191-1.051-0.955-1.911c-0.764-0.86-1.047-0.714-0.669,0.573
	c0.478,1.625,0.478,2.103,0.86,3.632c0.382,1.529,0.096,2.961,1.816,3.058c0,0,1.123-0.125,2.259-0.273
	c-0.031,0.904-0.041,1.926,0.019,2.766c0.133,1.862,0.019,0.256,0.635,0.251c0.043,0.015,0.091,0.025,0.147,0.025
	c0.024,0.008,0.059,0.008,0.101-0.001c1.1-0.01,6.632-0.203,8.972-2.267c0.511-0.45,1.046-0.945,1.566-1.43
	c0.556-0.294,0.842-0.647,1.323-1.224c0.894-0.815,1.598-1.407,1.82-1.376c-0.064,0.28-0.131,0.586-0.199,0.924
	c-0.796,2.198-2.414,8.127-2.809,8.918c-0.314,0.626-2.542,2.401-3.189,3.297c-0.433,0.401-0.398,0.66-0.162,0.822
	c-0.088,0.131-0.077,0.247,0.074,0.341c0.949,0.593,0.719,2.854,1.511,4.096c-1.398,2.45-3.61,6.593-4.806,9.116
	c-1.72,3.632-1.72,9.938-1.815,11.277c-0.095,1.336-1.337,10.225-1.242,11.943c0.095,1.719-1.433,2.102-1.433,4.587
	c0,2.484-0.287,2.677-0.191,3.345c0.096,0.668-1.72,1.91-2.389,2.103c-0.668,0.19-2.771,0.956-2.771,2.196
	c0,1.244,0.191,1.625,2.198,1.529c2.006-0.095,5.16,0,5.924-0.955c0.765-0.957,2.294-1.051,2.58-1.051
	c0.287,0,2.485,0.955,2.389-0.765c-0.095-1.72-0.572-4.492,0-5.256c0.573-0.765,0-3.822,0.573-6.498
	c0.574-2.677,2.39-5.829,2.485-6.978c0.095-1.146,0.573-6.402,0.669-7.166c0.095-0.765,0.191-1.529,1.815-3.345
	c1.625-1.815,3.249-6.116,4.874-9.364c1.624-3.25,2.389-3.728,3.536-2.391c1.146,1.339,6.498,10.036,7.931,13.855
	c1.435,3.823,3.44,8.696,3.632,10.896s2.484,8.218,3.059,9.651c0.572,1.433,1.242,3.631,2.007,4.014s1.435,3.345,2.676,4.013
	c1.243,0.671,3.345-0.382,3.153-3.151c-0.191-2.772,0.574-5.733-0.859-7.742c-1.434-2.006-2.197-7.452-2.294-8.694
	c-0.095-1.241-2.866-8.409-4.108-12.041c-1.07-3.133-2.5-8.747-4.098-12.012c0.572,0.179,0.495-0.177,1.409-0.36
	c1.429-0.283,0-1.855,0-2.855c0-0.998-0.285-4.995-1.714-10.563c-0.309-1.206-0.402-2.472-0.362-3.717
	C62.216,36.329,62.415,35.588,62.68,34.795z"/>
</svg>
