<?xml version="1.0" encoding="utf-8"?>
<!-- Generator: Adobe Illustrator 16.0.0, SVG Export Plug-In . SVG Version: 6.00 Build 0)  -->
<!DOCTYPE svg PUBLIC "-//W3C//DTD SVG 1.1//EN" "http://www.w3.org/Graphics/SVG/1.1/DTD/svg11.dtd">
<svg version="1.1" id="Layer_1" xmlns="http://www.w3.org/2000/svg" xmlns:xlink="http://www.w3.org/1999/xlink" x="0px" y="0px"
	 width="22.67px" height="29.712px" viewBox="4.196 1.048 22.67 29.712" enable-background="new 4.196 1.048 22.67 29.712"
	 xml:space="preserve">
<path fill="#000000" d="M13.586,12.074c-0.049-0.074-0.109-0.147-0.188-0.202c-0.333-0.243-0.803-0.169-1.047,0.166
	c-0.244,0.336-0.167,0.805,0.167,1.048c0.303,0.22,0.708,0.167,0.966-0.091l-7.086,9.768L4.196,30.76l6.917-4.577L26.866,4.468
	l-4.717-3.42l-1.52,2.096c-0.088-0.349-0.281-0.676-0.596-0.907c-0.73-0.529-1.752-0.369-2.281,0.363
	C14.721,6.782,16.402,7.896,13.586,12.074z M10.118,25.148L6.56,27.502l1.133-4.117L10.118,25.148z M14.309,11.861
	c2.184-3.225,1.975-4.099,3.843-6.962c0.31,0.212,0.664,0.287,1.013,0.269L14.309,11.861z"/>
</svg>
