<?xml version="1.0" encoding="utf-8"?>
<!-- Generator: Adobe Illustrator 16.0.0, SVG Export Plug-In . SVG Version: 6.00 Build 0)  -->
<!DOCTYPE svg PUBLIC "-//W3C//DTD SVG 1.1//EN" "http://www.w3.org/Graphics/SVG/1.1/DTD/svg11.dtd">
<svg version="1.1" id="Layer_1" xmlns="http://www.w3.org/2000/svg" xmlns:xlink="http://www.w3.org/1999/xlink" x="0px" y="0px"
	 width="100px" height="100px" viewBox="0 0 100 100" enable-background="new 0 0 100 100" xml:space="preserve">
<path fill="#70BEEA" d="M93.604,56.455c-0.371-0.033-0.684-0.428-0.914-0.696c-0.323-0.382-0.604-0.811-0.892-1.221
	c-0.618-0.894-1.178-1.838-1.715-2.781c-1.149-2.03-1.86-4.29-2.702-6.46c-0.561-1.442-1.119-2.883-1.68-4.324
	c-0.107-0.277-0.215-0.554-0.321-0.83c0.021,0.051,0.606-0.801,0.624-0.835c1.662,4.051,3.4,8.104,5.268,12.065
	c0.238,0.511,0.482,1.021,0.727,1.531C90.1,48.306,88.2,43.709,86.3,39.112c-0.151-0.371-0.011-0.521,0.037-0.929
	c0.065-0.584-0.082-1.19-0.19-1.762c1.477,3.862,3.139,7.649,4.631,11.5C91.087,48.728,94.688,56.161,93.604,56.455 M65.164,9.475
	c0.344-0.341,0.723-0.838,1.13-1.092c0.405-0.253,1.004-0.287,1.466-0.248c0.606,0.053,1.063,0.215,1.479,0.666
	c0.365,0.399,0.688,0.804,0.986,1.256c0.502,0.761,1.071,1.791,0.902,2.736c-0.068,0.382-0.451,0.92-0.898,0.902
	c-0.455-0.019-0.844-0.279-1.168-0.595c-0.479-0.463-0.902-1.045-1.42-1.463c0.559,0.452,0.836,1.412,1.144,2.037
	c0.353,0.719,0.637,1.577,0.682,2.379c0.044,0.828-0.368,1.483-1.291,1.241c-0.612-0.161-0.827-0.951-1.305-1.303
	c0.304,0.591,0.381,1.298,0.502,1.942c0.101,0.528,0.181,1.445-0.124,1.918c-0.324,0.507-0.896,0.369-1.268-0.025
	c-0.403-0.435-0.563-1.184-1.022-1.548c0.203,0.982,0.424,2.083,0.125,3.072c-0.386,1.269-1.581,0.834-2.435,0.296
	c0.543,0.628,1.543,1.215,2.375,0.799c0.902-0.452,0.848-1.62,0.65-2.45c0.628,0.62,1.627,0.665,2.094-0.164
	c0.428-0.762,0.26-1.653,0.01-2.445c0.896,0.46,1.687,0.027,2.086-0.809c0.384-0.794-0.075-1.896-0.366-2.65
	c0.646,0.118,1.397,0.126,1.815-0.472c0.365-0.523,0.315-1.333,0.131-1.917c-0.418-1.326-1.062-2.427-2.061-3.401
	c1.783,1.252,3.235,2.801,4.028,4.858c0.325,0.843,0.812,1.999,0.584,2.916c-0.313,1.263-1.634-0.262-2.017-0.68
	c-0.334-0.364-0.68-0.714-1-1.088c0.472,1.262,1.106,2.819,1.051,4.189c-0.023,0.595-0.325,0.926-0.9,0.618
	c-0.554-0.297-0.925-1.056-1.359-1.502c0.371,1.05,0.395,2.587,0.131,3.665c-0.149,0.623-0.479,1.238-1.192,0.805
	c-0.531-0.321-0.817-0.96-1.168-1.45c-0.035,1.008,0.198,2.369-0.354,3.272c-0.313,0.511-0.886,0.429-1.295,0.056
	c-0.354-0.324-0.438-0.906-0.807-1.195c0.072,0.908,0.25,2.104-0.213,2.939c-0.59,1.06-1.744,0.081-2.275-0.521
	c0.198,0.7,1.242,1.609,2.016,1.333c0.968-0.343,1.014-1.492,0.986-2.371c0.612,0.421,1.543,0.895,2.09,0.077
	c0.476-0.708,0.403-1.626,0.31-2.432c0.301,0.399,0.696,0.774,1.217,0.795c0.499,0.02,0.864-0.438,1.062-0.849
	c0.438-0.925,0.338-2.028,0.063-2.983c0.57,0.635,1.671,1.413,2.084,0.192c0.314-0.931-0.066-2.111-0.324-3.013
	c0.363,0.443,0.76,0.799,1.313,0.985c0.655,0.222,1.051-0.34,1.146-0.909c0.188-1.15-0.394-2.352-0.875-3.364
	c1.271,1.695,2.229,3.565,2.51,5.689c0.057,0.405,0.228,2.708-0.752,2.163c-0.783-0.435-1.295-1.445-1.734-2.191
	c-0.188-0.317-0.354-0.644-0.523-0.971c0.252,0.885,0.534,1.801,0.656,2.713c0.104,0.772,0.34,1.72,0.008,2.477
	c-0.136,0.308-0.234,0.687-0.643,0.686c-0.385,0-0.717-0.409-0.907-0.698c-0.255-0.391-0.444-0.802-0.638-1.228
	c-0.162-0.365-0.301-0.838-0.563-1.143c0.438,1.604,0.941,3.394,0.502,5.053c-0.281,1.066-1.351-0.007-1.724-0.407
	c-0.487-0.527-0.526-1.299-0.892-1.904c0.104,0.786,0.141,1.518,0.104,2.313c-0.026,0.614-0.174,1.489-0.587,1.969
	c-0.467,0.539-1.154,0.376-1.443-0.286c-0.254-0.582-0.227-1.309-0.507-1.86c-0.032,0.867-0.005,1.773-0.347,2.594
	c-0.424,1.02-1.313,0.627-1.84-0.076c0.201,0.521,0.824,1.211,1.426,1.108c0.693-0.118,0.914-1.089,1.057-1.666
	c0.473,0.863,1.518,1.246,2.178,0.341c0.545-0.748,0.713-1.839,0.354-2.713c0.549,0.87,1.395,2.217,2.462,1.248
	c0.351-0.318,0.425-1.055,0.461-1.499c0.052-0.57-0.059-1.166-0.19-1.717c0.297,0.393,0.631,0.821,1.117,0.977
	c0.564,0.182,0.938-0.335,1.076-0.82c0.282-0.988,0.315-2.065-0.082-3.029c0.327,0.342,0.576,0.733,1.018,0.944
	c0.459,0.221,1.014,0.279,1.295-0.249c0.479-0.898,0.223-2.034-0.004-2.969c0.938,1.987,1.601,4.063,2.229,6.162
	c0.315,1.048,0.406,2.093,0.426,3.187c0.016,0.941,0.01,2.169-0.511,2.995c-0.729,1.161-1.562-0.394-1.864-1.065
	c-0.422-0.933-0.697-2.04-0.904-3.042c0.091,0.824,0.063,1.651,0.031,2.479c-0.031,0.8-0.113,1.724-0.379,2.482
	c-0.107,0.309-0.279,0.999-0.742,0.756c-0.308-0.161-0.559-0.769-0.658-1.077c-0.273-0.844-0.286-1.771-0.569-2.609
	c-0.026,0.656,0.011,1.313-0.017,1.968c-0.027,0.688-0.17,1.286-0.407,1.936c-0.196,0.546-0.438,0.843-0.845,0.288
	c-0.366-0.5-0.523-1.237-0.713-1.82c0.09,0.772,0.283,2.204,1.051,2.63c0.892,0.493,1.216-1.697,1.318-2.203
	c0.356,0.647,1.188,2.171,1.885,0.92c0.49-0.88,0.459-1.953,0.5-2.927c0.246,0.635,0.563,1.281,0.988,1.815
	c0.352,0.443,1.139,0.936,1.557,0.266c0.77-1.229,0.769-2.728,0.826-4.134c0.205,1.037,0.57,2.061,0.797,3.102
	c0.23,1.073,0.447,2.15,0.658,3.226c0.197,1.027,0.461,2.071,0.519,3.117c0.022,0.41,0.125,3.083-0.835,2.552
	c-1.116-0.618-1.817-2.22-2.295-3.354c-0.547-1.297-0.572-2.793-0.848-4.166c-0.113,0.376-0.021,0.894-0.021,1.289
	c-0.002,0.488-0.003,0.978-0.008,1.465c-0.004,0.461-0.039,0.918-0.096,1.375c-0.043,0.361-0.035,0.929-0.25,1.237
	c-0.565,0.81-1.369-1.06-1.515-1.521c-0.271-0.871-0.206-1.849-0.437-2.736c-0.066,0.726-0.104,1.453-0.17,2.179
	c-0.025,0.307-0.047,1.735-0.526,1.717c-0.44-0.018-0.913-1.258-1.021-1.599c-0.195-0.62-0.065-1.313-0.25-1.94
	c-0.082,0.72-0.229,1.445-0.449,2.136c-0.098,0.299-0.687,1.784-1.176,1.122c-0.869-1.178-0.894-2.996-1.064-4.398
	c0.038,0.982-0.079,2.142,0.183,3.091c0.14,0.498,0.28,1.001,0.472,1.482c0.104,0.267,0.429,0.694,0.715,0.798
	c0.293,0.106,0.215,0.248,0.226,0.566c0.011,0.292,0.003,0.585,0.007,0.875c0.006,0.522,0.004,1.045-0.018,1.565
	c-0.014,0.354-0.152,2.121-0.684,1.147c-0.502-0.921-0.734-2.022-1.012-3.026c-0.292-1.067-0.314-2.277-0.46-3.372
	c-0.032-0.271-0.526-3.375-0.403-3.399c0.898-0.177,1.016-1.195,1.045-1.966c0.015-0.299,0.002-0.595-0.008-0.896
	c0.326,0.611,1.161,1.467,1.604,0.45c0.324-0.746,0.367-1.7,0.213-2.501c0.316,0.644,1.063,1.83,1.729,0.828
	c0.494-0.746,0.301-1.969,0.147-2.789c0.271,0.542,0.538,1.054,1.095,1.356c0.53,0.288,1.159,0.064,1.356-0.514
	c0.397-1.158-0.14-2.421-0.634-3.463c0.181,0.962,0.424,2.275,0.106,3.226c-0.444,1.344-1.891-0.915-2.181-1.361
	c0.027,0.6,0.039,1.198,0.014,1.797c-0.021,0.501-0.027,1.146-0.281,1.59c-0.494,0.866-1.451-1.683-1.606-1.951
	c-0.022,0.579,0.04,1.155,0.016,1.734c-0.022,0.581,0.017,1.419-0.276,1.937c-0.36,0.641-0.762,0.172-1.045-0.331
	c-0.185-0.323-0.306-0.629-0.4-0.991c-0.085-0.325-0.143-0.771-0.319-1.053c0.169,1.273,0.22,2.749-0.194,3.984
	c-0.058,0.166-0.156,0.552-0.404,0.483c-0.227-0.063-0.338-0.62-0.398-0.806c-0.223-0.672-0.348-1.399-0.445-2.1
	c0.119,1.472,0.412,3.144-0.775,4.255c-0.669,0.624-0.788-1.128-0.803-1.428c-0.028-0.792-0.078-1.642-0.016-2.431
	c-0.197,1.186-0.218,2.405-0.802,3.495c-0.325,0.607-0.548-0.213-0.604-0.536c-0.113-0.674-0.184-1.359-0.231-2.041
	c-0.104,0.504-0.198,1.004-0.349,1.497c-0.104,0.361-0.271,1.156-0.668,1.333c-0.735,0.328-1.004-2.026-1.082-2.434
	c0.015,0.438,0.142,1.14-0.158,1.506c-0.299,0.362-0.784-0.395-0.938-0.591c-0.301-0.377-0.388-1.067-0.457-1.528
	c-0.09-0.56-0.188-1.115-0.313-1.667c-0.489-2.168-1.246-4.309-2.07-6.368c-0.317-0.793-0.631-1.586-0.973-2.371
	c-0.134-0.304-0.707-1.826-1.095-1.787c1.074,0.301,2.147,0.626,3.254,0.787c1.037,0.151,2.164,0.292,3.158-0.148
	c2.231-0.99,1.215-4.027,0.982-5.813C64.871,10.635,64.898,10.065,65.164,9.475 M85.324,56.377c-0.303-0.077-0.54-0.581-0.67-0.831
	c-0.246-0.478-0.497-0.954-0.729-1.44c-0.47-0.99-0.899-2.008-1.313-3.021c-0.153-0.373-0.405-0.778-0.471-1.17
	c-0.058-0.34-0.113-0.68-0.168-1.02c-0.25-1.5-0.498-2.999-0.746-4.5c-0.313-1.89-0.627-3.778-0.939-5.668
	c0.095,0.075,0.23,0.27,0.361,0.275c0.037,0.001,0.272,0.04,0.306,0.058c0.151,0.088,0.146,0.276,0.19,0.494
	c0.246,1.156,0.492,2.313,0.735,3.469c0.459,2.167,0.92,4.332,1.382,6.499c-0.443-2.408-0.888-4.814-1.328-7.222
	c-0.19-1.04-0.383-2.079-0.574-3.118c-0.024-0.141,0.254-0.19,0.365-0.287c0.351-0.297,0.465-0.816,0.49-1.25
	c0.822,4.518,1.617,9.043,2.465,13.557c0.178,0.938,0.344,1.88,0.53,2.814c0.085,0.436,0.124,0.866,0.19,1.301
	C85.447,55.595,85.563,56.171,85.324,56.377 M89.499,54.466c-0.328-0.028-0.552-0.592-0.688-0.841
	c-0.244-0.447-0.494-0.909-0.701-1.374c-0.445-0.997-0.887-2-1.348-2.99c-1.035-2.218-1.773-4.581-2.611-6.877
	c-0.426-1.17-0.854-2.341-1.281-3.512c0.199,0.337,0.584,0.64,0.729,0.985c0.229,0.536,0.459,1.073,0.674,1.615
	c0.422,1.068,0.867,2.127,1.291,3.193c0.84,2.098,1.707,4.182,2.588,6.265c0.338,0.803,0.701,1.596,1.07,2.385
	c-1.736-4.405-3.477-8.813-5.214-13.22c-0.002-0.004-0.004-0.01-0.007-0.015c0.211,0.077,0.422,0.193,0.648,0.202
	c0.117,0.005,0.326-0.05,0.373,0.075c0.136,0.351,0.271,0.704,0.404,1.055c0.561,1.458,1.12,2.914,1.682,4.37
	c0.771,2.007,1.677,4.019,2.26,6.093c0.148,0.525,0.25,1.07,0.306,1.611C89.702,53.771,89.775,54.284,89.499,54.466 M81.68,53.816
	c-0.318-0.053-0.478-0.664-0.578-0.928c-0.191-0.5-0.357-1-0.522-1.511c-0.341-1.044-0.72-2.095-0.935-3.17
	c-0.43-2.151-0.85-4.313-1.22-6.475c-0.192-1.134-0.403-2.265-0.62-3.394c-0.051-0.257-0.102-0.515-0.152-0.772
	c-0.032-0.159-0.064-0.319-0.1-0.477c-0.007-0.032,0.172-0.167,0.2-0.206c0.308-0.406,0.349-0.967,0.369-1.453
	c0.767,4.122,1.53,8.245,2.296,12.367c-0.625-4.014-1.249-8.028-1.873-12.043c0.376,0.945,0.842,1.787,1.35,2.668
	c0.09,0.156,0.08,0.441,0.107,0.615c0.089,0.548,0.18,1.096,0.27,1.642c0.498,3.053,0.996,6.104,1.496,9.158
	c0.094,0.58,0.168,1.105,0.183,1.695c0.01,0.421-0.009,0.838-0.025,1.26C81.911,53.073,81.951,53.662,81.68,53.816 M86.503,51.689
	c-0.259-0.013-0.465-0.504-0.563-0.703c-0.201-0.406-0.426-0.841-0.569-1.272c-0.3-0.894-0.729-1.791-0.911-2.719
	c-0.415-2.118-0.832-4.237-1.246-6.355c0.755,2.159,1.514,4.317,2.27,6.476c0.27,0.77,0.539,1.538,0.81,2.306
	C86.415,49.787,86.863,51.462,86.503,51.689 M79.059,51.012c-0.293-0.027-0.459-0.645-0.545-0.872
	c-0.188-0.499-0.382-0.988-0.541-1.496c-0.33-1.053-0.627-2.115-0.92-3.179c-0.275-1.023-0.359-2.083-0.566-3.118
	c-0.215-1.095-0.403-2.203-0.596-3.304c-0.08-0.466-0.188-0.926-0.308-1.384c-0.092-0.355-0.153-0.943-0.285-1.201
	c0.224-0.339,0.345-0.811,0.375-1.213c0.343,0.414,0.435,1.028,0.529,1.542c0.22,1.188,0.442,2.377,0.661,3.563
	c0.396,2.131,0.793,4.261,1.188,6.391c-0.514-3.345-1.025-6.691-1.537-10.036c0.116,0.129,0.219,0.283,0.381,0.333
	c0.291,0.094,0.254,0.411,0.317,0.708c0.106,0.498,0.218,0.995,0.323,1.491c0.227,1.067,0.449,2.128,0.645,3.2
	c0.387,2.139,0.799,4.287,0.969,6.456c0.031,0.381,0.063,0.759,0.078,1.141C79.234,50.277,79.285,50.869,79.059,51.012
	 M75.936,45.93c-0.631,0.146-1.181-1.795-1.354-2.216c-0.42-1.001-0.699-2.103-0.957-3.156c-0.256-1.047-0.498-2.098-0.75-3.146
	c-0.065-0.272-0.125-0.543-0.183-0.816c-0.055-0.278,0.088-0.454,0.271-0.675c0.285-0.349,0.424-0.902,0.498-1.336
	c0.004-0.014,0.007-0.03,0.01-0.046c0.631,3.154,1.26,6.306,1.889,9.459c-0.432-2.802-0.863-5.602-1.295-8.402
	c0.182,0.295,0.315,0.654,0.608,0.857c0.188,0.131,0.175,0.208,0.235,0.476c0.055,0.235,0.113,0.468,0.165,0.703
	c0.216,0.977,0.396,1.963,0.608,2.941c0.207,0.95,0.336,1.921,0.442,2.887C76.18,43.936,76.504,45.665,75.936,45.93 M84.611,39.601
	c-1.125,0.327-1.821-1.296-2.002-2.128c-0.452-2.09-0.903-4.181-1.355-6.272c0.348,0.443,1.405,1.823,2.094,1.346
	c0.707-0.488,0.543-1.832,0.522-2.576c0.47,1.765,1.022,3.516,1.524,5.272c0.242,0.847,0.442,1.724,0.342,2.606
	C85.661,38.487,85.391,39.497,84.611,39.601 M84.716,39.167c-0.069-2.087-0.878-4.186-1.563-6.134
	C83.525,35.121,84.102,37.141,84.716,39.167 M80.844,37.453c-0.224-2.272-0.724-4.678-1.582-6.794
	C79.729,32.921,79.973,35.298,80.844,37.453 M76.956,35.54c0.119-0.729-0.009-1.461-0.093-2.184
	c-0.086-0.726-0.213-1.489-0.385-2.199C76.548,32.629,76.898,34.071,76.956,35.54 M74.71,35.271c-0.082-1.263-0.135-2.5-0.481-3.724
	C74.283,32.807,74.414,34.049,74.71,35.271 M72.098,35.405c0.129-1.041,0.217-2.298-0.173-3.294
	c0.075,0.507,0.019,1.065,0.048,1.581C72.005,34.263,72.063,34.833,72.098,35.405 M82.91,31.969
	c-0.512,0.136-1.055-0.452-1.348-0.799c-0.441-0.525-0.524-1.187-0.701-1.836c-0.529-1.955-1.062-3.909-1.59-5.864
	c0.291,0.499,0.961,1.535,1.652,1.362c0.807-0.202,0.706-1.378,0.762-2.008c0.508,1.749,1.109,3.486,1.525,5.258
	c0.207,0.89,0.335,1.682,0.297,2.599C83.491,31.131,83.398,31.826,82.91,31.969 M82.723,31.217c-0.205-2.035-0.976-3.937-1.58-5.874
	C81.413,27.326,81.996,29.357,82.723,31.217 M72.734,31.573c0.314-0.777,0.125-1.949-0.31-2.643
	C72.529,29.811,72.632,30.691,72.734,31.573 M75.057,30.53c0.232-1.241,0.084-2.521-0.328-3.696
	C74.936,28.048,74.896,29.306,75.057,30.53 M78.191,29.497c-0.027-0.835-0.082-1.643-0.209-2.47
	c-0.119-0.779-0.26-1.768-0.709-2.434C77.65,26.218,77.816,27.879,78.191,29.497 M68.212,28.626c-0.065,0.91-0.133,1.821-0.2,2.73
	C68.29,30.464,68.264,29.552,68.212,28.626 M66.465,28.971c-0.029,0.733-0.047,1.478-0.091,2.21
	C66.537,30.536,66.661,29.618,66.465,28.971 M64.619,29.113c-0.154,0.728-0.107,1.455-0.023,2.189
	C64.626,30.566,64.646,29.854,64.619,29.113 M69.6,27.346c0.118,0.896,0.234,1.792,0.354,2.688
	C69.986,29.161,69.968,28.159,69.6,27.346 M71.465,26.261c0.087,0.691,0.176,1.381,0.264,2.072
	C71.755,27.671,71.762,26.867,71.465,26.261 M73.721,26.333c0.027-0.848-0.205-1.758-0.646-2.483
	C73.382,24.651,73.532,25.499,73.721,26.333 M65.443,26.08c0.164,0.504,0.205,1.042,0.242,1.565
	C65.779,26.993,65.754,26.671,65.443,26.08 M68.171,26.892c-0.187-0.804-0.371-1.608-0.558-2.411
	C68.055,25.1,68.245,26.148,68.171,26.892 M80.756,24.166c-0.599,0.169-1.497-0.901-1.678-1.386
	c-0.439-1.187-0.879-2.372-1.32-3.558c0.43,0.338,1.317,1.02,1.742,0.312c0.395-0.659,0.134-1.628,0.118-2.34
	c0.612,1.254,1.134,2.583,1.459,3.94c0.159,0.663,0.229,1.317,0.202,2C81.266,23.476,81.148,24.074,80.756,24.166 M80.641,23.768
	c-0.035-1.328-0.629-2.59-1.248-3.733C79.809,21.278,80.225,22.523,80.641,23.768 M76.107,24.654
	c-0.354-0.971-0.707-1.943-1.063-2.915C75.573,22.64,75.938,23.627,76.107,24.654 M70.275,22.158
	c0.304,0.969,0.604,1.938,0.908,2.908C70.994,24.04,70.662,23.12,70.275,22.158 M64.199,25.48c0.137-0.6-0.182-1.4-0.559-1.865
	C63.828,24.236,64.014,24.859,64.199,25.48 M66.977,23.534c0.151-0.792-0.113-1.5-0.617-2.108
	C66.695,22.114,66.913,22.77,66.977,23.534 M73.288,22.413c-0.296-0.962-0.593-1.923-0.89-2.886
	C72.846,20.381,73.277,21.435,73.288,22.413 M69.398,21.639c0.065-1.087-0.231-2.245-1.037-3.046
	C68.988,19.452,69.214,20.614,69.398,21.639 M78.703,19.194c-0.705,0.239-1.249-0.779-1.482-1.262
	c-0.547-1.12-1.093-2.24-1.638-3.359c0.461,0.268,1.315,0.865,1.743,0.226c0.361-0.542,0.061-1.454-0.203-1.981
	c0.428,0.512,0.764,1.125,1.111,1.695c0.348,0.572,0.744,1.199,0.912,1.851C79.293,16.935,79.738,19.089,78.703,19.194
	 M75.719,19.794c-0.395-1.032-0.792-2.064-1.188-3.096c0.33,0.419,0.49,0.972,0.705,1.455
	C75.456,18.645,75.652,19.259,75.719,19.794 M64.688,21.576c-0.02-0.935-0.563-1.601-1.108-2.303
	C63.948,20.041,64.316,20.808,64.688,21.576 M78.835,18.631c-0.175-1.351-0.676-2.372-1.526-3.417
	C77.818,16.353,78.327,17.492,78.835,18.631 M67.001,19.657c-0.082-0.419-0.021-0.885-0.254-1.273
	c-0.115-0.189-0.171-0.399-0.302-0.58c-0.127-0.169-0.281-0.314-0.401-0.489C66.596,17.951,66.764,18.877,67.001,19.657
	 M71.667,18.664c-0.159-1.123-0.585-2.23-1.319-3.102C70.742,16.615,71.23,17.628,71.667,18.664 M73.622,15.939
	c-0.235-1.131-0.644-2.086-1.552-2.826c0.23,0.46,0.576,0.911,0.834,1.37C73.17,14.954,73.4,15.446,73.622,15.939 M68.859,16.576
	c-0.237-0.542-0.455-1.087-0.696-1.627c-0.22-0.486-0.638-0.873-0.958-1.29C67.758,14.631,68.309,15.604,68.859,16.576
	 M76.589,14.614c-0.541-0.021-1.151-0.315-1.468-0.763c-0.592-0.834-1.182-1.67-1.771-2.504c0.406,0.272,1.368,0.762,1.767,0.238
	c0.487-0.645-0.019-1.33-0.228-1.972c0.377,0.553,0.756,1.107,1.133,1.66c0.316,0.469,0.677,0.901,0.846,1.447
	C77.023,13.238,77.324,14.391,76.589,14.614 M76.697,14.137c-0.231-0.941-0.801-1.612-1.531-2.232
	C75.677,12.65,76.188,13.393,76.697,14.137 M72.07,13.113c-0.034-0.04-0.038-0.074-0.084-0.09
	C72.004,13.063,72.052,13.091,72.07,13.113 M71.986,13.023c-0.045-0.059-0.084-0.121-0.123-0.18
	C71.91,12.899,71.947,12.959,71.986,13.023 M70.616,12.769c-0.325-1.125-1.119-1.95-2.019-2.647
	C69.271,11.004,69.943,11.887,70.616,12.769 M74.57,11.441c-0.363,0.075-0.783-0.079-1.105-0.242
	c-0.507-0.257-0.75-0.68-1.139-1.079c-0.737-0.754-1.575-1.451-2.458-2.028c1.127-0.758,3.019-0.078,3.979,0.688
	c0.564,0.451,0.935,1.062,1.077,1.775C74.994,10.882,74.992,11.386,74.57,11.441 M74.441,10.911c-0.375-0.558-0.66-1.091-1.18-1.54
	c-0.572-0.49-1.217-0.759-1.939-0.934C72.438,9.147,73.538,9.939,74.441,10.911 M69.831,38.248
	c-0.327-0.672-0.728-1.342-0.983-2.043c-0.254-0.69-0.473-1.39-0.72-2.082c-0.118-0.322-0.249-0.604-0.235-0.952
	c0.012-0.307,0.314-0.63,0.494-0.856c0.437-0.547,0.799-1.038,0.949-1.736c0.163,1.505,0.332,3.011,0.489,4.517
	c0.075,0.715,0.165,1.429,0.223,2.145c0.028,0.354,0.027,0.714,0.062,1.067C70.148,38.739,69.907,38.518,69.831,38.248
	 M5.142,67.157c-1.325-0.343,2.957-9.48,3.325-10.47c1.764-4.731,3.734-9.386,5.478-14.125c-0.126,0.701-0.297,1.443-0.206,2.156
	c0.063,0.498,0.238,0.679,0.057,1.135C11.548,51.501,9.3,57.146,7.053,62.792c0.288-0.627,0.576-1.255,0.861-1.882
	c2.218-4.868,4.278-9.848,6.246-14.823c0.023,0.041,0.753,1.074,0.777,1.011c-0.127,0.338-0.254,0.678-0.381,1.019
	c-0.661,1.769-1.322,3.539-1.984,5.309c-0.996,2.667-1.826,5.438-3.202,7.938c-0.64,1.159-1.308,2.321-2.051,3.424
	c-0.341,0.507-0.678,1.032-1.07,1.505C5.972,66.624,5.597,67.109,5.142,67.157 M39.158,9.314c0.333,0.716,0.376,1.413,0.286,2.187
	c-0.254,2.182-1.451,5.909,1.292,7.083c1.221,0.522,2.595,0.332,3.861,0.131c1.347-0.213,2.656-0.629,3.961-1.012
	c-0.47-0.041-1.15,1.826-1.307,2.2c-0.404,0.962-0.775,1.937-1.15,2.911c-0.975,2.53-1.866,5.158-2.431,7.814
	c-0.144,0.676-0.254,1.356-0.354,2.041c-0.083,0.565-0.177,1.409-0.536,1.875c-0.186,0.242-0.769,1.174-1.138,0.736
	c-0.371-0.442-0.229-1.302-0.217-1.836c-0.091,0.499-0.382,3.379-1.287,2.99c-0.488-0.209-0.701-1.179-0.837-1.617
	c-0.188-0.6-0.313-1.21-0.447-1.825c-0.05,0.834-0.124,1.672-0.255,2.498c-0.063,0.395-0.322,1.4-0.727,0.663
	c-0.731-1.323-0.775-2.813-1.035-4.257c0.088,0.963,0.042,2.004,0.018,2.97c-0.009,0.368-0.127,2.509-0.954,1.757
	c-1.473-1.338-1.139-3.386-1.018-5.185c-0.109,0.854-0.25,1.745-0.511,2.57C34.3,34.237,34.171,34.92,33.898,35
	c-0.302,0.088-0.431-0.382-0.5-0.584c-0.528-1.502-0.49-3.306-0.304-4.865c-0.212,0.347-0.274,0.895-0.375,1.292
	c-0.111,0.443-0.256,0.819-0.473,1.217c-0.34,0.618-0.821,1.197-1.272,0.419c-0.367-0.628-0.333-1.652-0.369-2.361
	c-0.04-0.708,0.029-1.413-0.008-2.12c-0.187,0.331-1.316,3.459-1.933,2.409c-0.316-0.539-0.339-1.327-0.372-1.938
	c-0.041-0.732-0.037-1.462-0.011-2.195c-0.348,0.548-2.079,3.332-2.643,1.697c-0.4-1.158-0.124-2.765,0.082-3.943
	c-0.588,1.281-1.222,2.832-0.72,4.241c0.25,0.704,1.023,0.966,1.666,0.607c0.676-0.377,0.995-1.008,1.317-1.674
	c-0.174,1.005-0.392,2.502,0.224,3.406c0.83,1.214,1.723-0.246,2.102-1.038c-0.179,0.981-0.111,2.146,0.298,3.052
	c0.556,1.235,1.562,0.177,1.951-0.574c-0.007,0.366-0.016,0.728,0.005,1.093c0.05,0.942,0.206,2.184,1.31,2.385
	c0.15,0.028-0.403,3.827-0.444,4.159c-0.16,1.339-0.167,2.818-0.51,4.127c-0.32,1.231-0.586,2.579-1.185,3.713
	c-0.633,1.197-0.829-0.958-0.853-1.391c-0.035-0.636-0.044-1.276-0.046-1.914c0-0.354-0.015-0.714-0.006-1.069
	c0.011-0.389-0.088-0.561,0.269-0.695c0.346-0.132,0.737-0.659,0.861-0.987c0.222-0.591,0.39-1.208,0.55-1.819
	c0.305-1.162,0.144-2.577,0.174-3.778c-0.19,1.715-0.191,3.937-1.235,5.39c-0.586,0.817-1.329-0.988-1.451-1.353
	c-0.281-0.841-0.47-1.724-0.583-2.602c-0.214,0.767-0.047,1.614-0.275,2.373c-0.125,0.418-0.681,1.941-1.218,1.97
	c-0.589,0.03-0.636-1.715-0.673-2.089c-0.089-0.884-0.147-1.773-0.242-2.659c-0.265,1.088-0.17,2.282-0.49,3.349
	c-0.168,0.566-1.121,2.863-1.823,1.883c-0.269-0.374-0.267-1.067-0.326-1.508c-0.076-0.558-0.126-1.115-0.138-1.678
	c-0.012-0.595-0.021-1.193-0.031-1.79c-0.009-0.482,0.096-1.115-0.048-1.574c-0.313,1.681-0.321,3.51-0.97,5.104
	c-0.567,1.394-1.398,3.361-2.751,4.133c-1.166,0.665-1.082-2.604-1.059-3.104c0.054-1.279,0.356-2.559,0.584-3.817
	c0.24-1.319,0.486-2.639,0.752-3.953c0.259-1.274,0.69-2.53,0.925-3.802c0.095,1.717,0.116,3.547,1.074,5.039
	c0.521,0.812,1.477,0.197,1.899-0.35c0.51-0.659,0.889-1.454,1.177-2.232c0.064,1.189,0.044,2.5,0.658,3.568
	c0.87,1.516,1.86-0.357,2.288-1.154c0.133,0.615,0.563,3.287,1.643,2.67c0.932-0.532,1.146-2.284,1.246-3.23
	c-0.222,0.716-0.404,1.618-0.844,2.235c-0.487,0.684-0.787,0.326-1.037-0.338c-0.297-0.791-0.481-1.519-0.527-2.359
	c-0.042-0.8-0.008-1.604-0.05-2.405c-0.333,1.028-0.336,2.162-0.657,3.197c-0.117,0.378-0.416,1.125-0.787,1.327
	c-0.559,0.303-0.782-0.537-0.919-0.913c-0.334-0.923-0.45-2.05-0.5-3.027c-0.053-1.012-0.099-2.022,0-3.03
	c-0.24,1.227-0.556,2.583-1.06,3.729c-0.362,0.826-1.35,2.737-2.26,1.332c-0.648-1-0.675-2.501-0.67-3.651
	c0.005-1.337,0.1-2.615,0.468-3.9c0.737-2.576,1.511-5.121,2.628-7.563c-0.262,1.145-0.557,2.537,0.043,3.627
	c0.352,0.64,1.028,0.559,1.585,0.284c0.534-0.266,0.832-0.747,1.228-1.17c-0.471,1.183-0.414,2.5-0.054,3.702
	c0.176,0.59,0.64,1.216,1.33,0.985c0.593-0.198,0.996-0.727,1.35-1.211c-0.154,0.676-0.277,1.405-0.208,2.101
	c0.054,0.542,0.154,1.44,0.588,1.824c1.32,1.168,2.332-0.491,2.989-1.562c-0.428,1.072-0.207,2.403,0.472,3.308
	c0.82,1.095,2.091,0.611,2.656-0.451c0.183,0.703,0.466,1.886,1.315,2.02c0.738,0.116,1.488-0.738,1.724-1.377
	c-0.633,0.867-1.713,1.361-2.247,0.122c-0.43-0.998-0.408-2.106-0.464-3.164c-0.332,0.677-0.286,1.565-0.588,2.28
	c-0.342,0.813-1.182,1.023-1.758,0.371c-0.515-0.58-0.708-1.647-0.75-2.397c-0.054-0.971-0.021-1.864,0.092-2.827
	c-0.435,0.746-0.468,1.689-1.059,2.34c-0.449,0.494-1.736,1.823-2.098,0.524c-0.563-2.02,0.026-4.214,0.535-6.18
	c-0.315,0.375-0.477,0.956-0.671,1.405c-0.227,0.522-0.453,1.028-0.759,1.509c-0.229,0.357-0.627,0.861-1.096,0.868
	c-0.499,0.007-0.625-0.455-0.794-0.828c-0.419-0.92-0.146-2.082-0.032-3.026c0.137-1.116,0.466-2.24,0.761-3.324
	c-0.202,0.402-0.4,0.804-0.625,1.194c-0.527,0.917-1.135,2.161-2.084,2.704c-1.189,0.68-1.015-2.136-0.955-2.632
	c0.31-2.599,1.448-4.899,2.979-6.99c-0.575,1.244-1.263,2.722-1.016,4.125c0.122,0.693,0.614,1.372,1.412,1.092
	c0.67-0.235,1.149-0.677,1.588-1.224c-0.302,1.105-0.749,2.554-0.35,3.685c0.524,1.485,1.856,0.518,2.543-0.267
	c-0.322,1.171-0.428,2.521,0.122,3.643c0.247,0.5,0.699,1.054,1.309,1.022c0.633-0.034,1.114-0.498,1.475-0.99
	c-0.104,0.986-0.176,2.108,0.414,2.967c0.684,0.991,1.811,0.398,2.551-0.127c-0.017,1.075,0.058,2.476,1.243,2.882
	c0.95,0.326,2.21-0.8,2.442-1.66c-0.639,0.743-2.036,1.957-2.771,0.672c-0.58-1.014-0.38-2.477-0.306-3.587
	c-0.446,0.357-0.538,1.071-0.968,1.472C38,27.283,37.3,27.392,36.911,26.773c-0.688-1.095-0.422-2.762-0.482-3.993
	c-0.419,0.604-0.761,1.39-1.404,1.791c-0.868,0.541-1.277-0.206-1.472-0.965c-0.337-1.312-0.333-3.192,0.105-4.479
	c-0.526,0.552-0.968,1.483-1.641,1.856c-0.696,0.386-1.072-0.013-1.111-0.74c-0.089-1.673,0.666-3.585,1.221-5.135
	c-0.387,0.462-0.804,0.896-1.207,1.346c-0.46,0.516-2.05,2.4-2.452,0.862c-0.292-1.118,0.285-2.537,0.667-3.572
	c0.938-2.525,2.688-4.44,4.847-5.998c-1.207,1.206-1.973,2.56-2.464,4.188c-0.216,0.717-0.264,1.706,0.191,2.34
	c0.521,0.726,1.436,0.703,2.226,0.549c-0.342,0.925-0.889,2.278-0.408,3.243c0.505,1.015,1.474,1.532,2.563,0.955
	c-0.294,0.972-0.485,2.064,0.05,2.987c0.581,1.005,1.801,0.935,2.559,0.167c-0.228,1.018-0.277,2.446,0.833,2.983
	c1.025,0.496,2.237-0.236,2.89-1.012c-1.032,0.669-2.487,1.22-2.976-0.324c-0.381-1.205-0.127-2.553,0.104-3.757
	c-0.557,0.453-0.739,1.369-1.228,1.907c-0.443,0.487-1.141,0.665-1.546,0.051c-0.378-0.575-0.294-1.696-0.181-2.343
	c0.137-0.789,0.222-1.654,0.583-2.381c-0.576,0.438-0.828,1.407-1.576,1.613c-1.121,0.311-1.638-0.483-1.594-1.495
	c0.042-0.981,0.376-2.034,0.795-2.917c0.363-0.768,0.69-1.945,1.363-2.506c-0.624,0.518-1.133,1.236-1.71,1.809
	c-0.394,0.392-0.863,0.715-1.42,0.746c-0.546,0.031-1.021-0.622-1.111-1.087c-0.221-1.153,0.458-2.42,1.061-3.358
	c0.358-0.557,0.744-1.056,1.187-1.55c0.5-0.558,1.054-0.762,1.793-0.836c0.564-0.057,1.297-0.023,1.794,0.279
	C38.262,8.301,38.733,8.903,39.158,9.314 M15.259,66.934c-0.293-0.248-0.163-0.953-0.114-1.297c0.076-0.533,0.116-1.063,0.215-1.591
	c0.212-1.147,0.402-2.301,0.603-3.451c0.967-5.526,1.866-11.068,2.801-16.603c0.04,0.529,0.187,1.162,0.619,1.521
	c0.138,0.116,0.48,0.173,0.45,0.344c-0.217,1.274-0.434,2.546-0.65,3.819c-0.504,2.948-1.007,5.896-1.509,8.844
	c0.528-2.652,1.056-5.307,1.584-7.961c0.281-1.417,0.563-2.833,0.845-4.25c0.052-0.266,0.041-0.495,0.227-0.605
	c0.036-0.022,0.325-0.074,0.373-0.076c0.159-0.007,0.321-0.248,0.437-0.343c-0.354,2.314-0.708,4.627-1.06,6.941
	c-0.281,1.836-0.561,3.672-0.841,5.51c-0.064,0.416-0.128,0.832-0.191,1.248c-0.074,0.479-0.376,0.979-0.557,1.438
	c-0.49,1.247-1.002,2.495-1.559,3.714c-0.275,0.601-0.575,1.185-0.87,1.772C15.909,66.215,15.627,66.834,15.259,66.934
	 M10.128,64.661c-0.34-0.218-0.26-0.843-0.227-1.192c0.06-0.66,0.175-1.328,0.347-1.974c0.681-2.543,1.757-5.015,2.668-7.479
	c0.66-1.787,1.321-3.576,1.981-5.365c0.161-0.432,0.32-0.864,0.48-1.296c0.057-0.152,0.311-0.089,0.454-0.096
	c0.278-0.016,0.535-0.161,0.791-0.258c-0.003,0.007-0.005,0.013-0.008,0.018c-2.055,5.413-4.109,10.822-6.164,16.234
	c0.439-0.971,0.87-1.946,1.272-2.933c1.041-2.557,2.07-5.117,3.063-7.694c0.502-1.31,1.03-2.609,1.529-3.922
	c0.254-0.664,0.528-1.323,0.798-1.982c0.172-0.424,0.635-0.8,0.875-1.214c-0.504,1.437-1.008,2.874-1.512,4.31
	c-0.989,2.819-1.853,5.717-3.083,8.443c-0.548,1.218-1.07,2.448-1.599,3.673c-0.248,0.574-0.544,1.143-0.838,1.692
	C10.792,63.93,10.531,64.624,10.128,64.661 M19.671,63.747c-0.333-0.185-0.293-0.904-0.312-1.244
	c-0.029-0.515-0.056-1.024-0.05-1.539c0.007-0.719,0.087-1.364,0.194-2.075c0.562-3.736,1.124-7.473,1.686-11.208
	c0.101-0.67,0.202-1.341,0.301-2.01c0.032-0.212,0.016-0.562,0.123-0.753c0.604-1.085,1.163-2.12,1.607-3.282
	c-0.7,4.915-1.401,9.83-2.102,14.743c0.871-5.049,1.743-10.096,2.612-15.145c0.034,0.592,0.093,1.277,0.474,1.769
	c0.037,0.047,0.257,0.21,0.25,0.249c-0.038,0.194-0.076,0.389-0.113,0.583c-0.06,0.315-0.119,0.63-0.175,0.946
	c-0.246,1.383-0.486,2.768-0.706,4.155c-0.418,2.648-0.897,5.294-1.389,7.93c-0.245,1.315-0.692,2.606-1.09,3.89
	c-0.195,0.623-0.391,1.236-0.617,1.852C20.246,62.928,20.06,63.68,19.671,63.747 M13.746,61.225
	c-0.444-0.272,0.077-2.326,0.228-2.771c0.317-0.943,0.635-1.887,0.951-2.829c0.891-2.647,1.782-5.298,2.672-7.948
	c-0.475,2.594-0.951,5.188-1.426,7.783c-0.208,1.139-0.718,2.24-1.07,3.338c-0.169,0.526-0.438,1.063-0.678,1.563
	C14.305,60.602,14.062,61.207,13.746,61.225 M22.831,60.277c-0.279-0.17-0.227-0.895-0.219-1.189
	c0.013-0.468,0.043-0.929,0.076-1.396c0.174-2.651,0.643-5.283,1.084-7.902c0.221-1.312,0.473-2.613,0.736-3.918
	c0.121-0.608,0.248-1.217,0.371-1.827c0.074-0.364,0.025-0.752,0.378-0.871c0.196-0.064,0.319-0.254,0.461-0.414
	c-0.573,4.096-1.149,8.19-1.723,12.286c0.449-2.607,0.9-5.216,1.351-7.826c0.25-1.455,0.501-2.91,0.752-4.364
	c0.109-0.629,0.213-1.381,0.623-1.892c0.045,0.491,0.198,1.064,0.479,1.476c-0.158,0.317-0.225,1.037-0.331,1.472
	c-0.136,0.561-0.264,1.125-0.355,1.695c-0.216,1.347-0.428,2.705-0.676,4.045c-0.236,1.269-0.323,2.565-0.646,3.82
	c-0.336,1.305-0.686,2.605-1.072,3.897c-0.187,0.623-0.414,1.224-0.636,1.836C23.382,59.484,23.188,60.243,22.831,60.277
	 M26.566,54.021c-0.699-0.314-0.329-2.435-0.27-3.017c0.117-1.182,0.26-2.37,0.498-3.535c0.243-1.197,0.449-2.404,0.696-3.603
	c0.059-0.287,0.129-0.574,0.19-0.861c0.071-0.329,0.055-0.422,0.283-0.585c0.354-0.252,0.513-0.693,0.73-1.057
	c-0.484,3.429-0.969,6.855-1.454,10.284c0.722-3.86,1.44-7.723,2.162-11.583c0.002,0.018,0.006,0.037,0.01,0.056
	c0.099,0.528,0.278,1.203,0.63,1.624c0.226,0.267,0.404,0.48,0.34,0.82c-0.061,0.335-0.13,0.667-0.206,1.001
	c-0.293,1.284-0.571,2.571-0.868,3.854c-0.299,1.29-0.623,2.642-1.12,3.87C27.981,51.811,27.342,54.189,26.566,54.021
	 M15.868,46.424c-0.955-0.114-1.3-1.344-1.402-2.122c-0.139-1.077,0.094-2.151,0.376-3.189c0.586-2.155,1.234-4.302,1.783-6.466
	c-0.015,0.91-0.194,2.553,0.677,3.14c0.849,0.572,2.122-1.13,2.538-1.678c-0.52,2.562-1.039,5.124-1.558,7.684
	C18.075,44.813,17.249,46.806,15.868,46.424 M15.733,45.896c0.72-2.484,1.392-4.962,1.817-7.52
	C16.741,40.768,15.785,43.345,15.733,45.896 M20.437,43.74c1.033-2.646,1.293-5.554,1.83-8.326
	C21.248,38.015,20.676,40.962,20.437,43.74 M25.157,41.343c0.048-1.795,0.453-3.563,0.517-5.362
	c-0.198,0.871-0.345,1.805-0.436,2.692C25.146,39.559,25,40.455,25.157,41.343 M27.898,40.981c0.343-1.499,0.484-3.019,0.532-4.559
	C28.023,37.924,27.98,39.436,27.898,40.981 M31.093,41.103c0.033-0.699,0.094-1.396,0.125-2.095c0.027-0.631-0.05-1.311,0.035-1.933
	C30.792,38.299,30.919,39.834,31.093,41.103 M17.829,37.074c-0.601-0.167-0.724-1.015-0.753-1.566
	c-0.061-1.121,0.082-2.089,0.323-3.179c0.479-2.172,1.189-4.303,1.783-6.449c0.076,0.77-0.029,2.209,0.96,2.442
	c0.851,0.2,1.651-1.075,1.999-1.689c-0.617,2.396-1.234,4.792-1.851,7.188c-0.206,0.797-0.295,1.607-0.829,2.254
	C19.109,36.505,18.454,37.232,17.829,37.074 M18.045,36.152c0.859-2.283,1.539-4.775,1.839-7.2
	C19.175,31.328,18.263,33.663,18.045,36.152 M30.252,36.431c0.112-1.078,0.224-2.156,0.336-3.234
	C30.068,34.051,29.854,35.486,30.252,36.431 M27.4,35.192c0.177-1.498,0.109-3.034,0.344-4.521
	C27.26,32.116,27.096,33.679,27.4,35.192 M23.554,33.979c0.434-1.982,0.609-4.015,1.044-6.005c-0.54,0.82-0.695,2.03-0.829,2.984
	C23.628,31.97,23.574,32.958,23.554,33.979 M35.732,32.759c-0.047,1.132-0.066,2.248,0.288,3.333
	C35.925,34.981,35.829,33.871,35.732,32.759 M37.873,33.153c-0.23,0.794-0.065,1.914,0.146,2.699
	C37.954,34.958,37.92,34.049,37.873,33.153 M40.13,33.299c-0.022,0.905,0.016,1.775,0.064,2.675
	C40.285,35.074,40.331,34.187,40.13,33.299 M34.018,31.218c-0.436,0.999-0.447,2.224-0.388,3.29
	C33.759,33.411,33.889,32.314,34.018,31.218 M31.723,29.921c-0.354,0.745-0.332,1.727-0.29,2.535
	C31.529,31.611,31.625,30.766,31.723,29.921 M28.968,30.043c0.216-1.021,0.387-2.06,0.75-3.043
	C29.19,27.893,28.921,29.008,28.968,30.043 M39.073,29.605c-0.366,0.727-0.394,1.121-0.27,1.916
	C38.84,30.881,38.882,30.224,39.073,29.605 M35.755,30.641c-0.102-0.908,0.117-2.191,0.644-2.955
	C36.184,28.67,35.971,29.656,35.755,30.641 M20.338,27.507c-0.483-0.107-0.635-0.835-0.656-1.253
	c-0.044-0.834,0.03-1.634,0.214-2.448c0.377-1.664,0.992-3.294,1.723-4.836c-0.008,0.87-0.312,2.059,0.18,2.857
	c0.53,0.858,1.604,0.011,2.123-0.408c-0.519,1.455-1.037,2.912-1.556,4.368C22.155,26.382,21.072,27.704,20.338,27.507
	 M20.474,27.018c0.489-1.528,0.977-3.054,1.466-4.582C21.201,23.843,20.497,25.395,20.474,27.018 M26.021,28.03
	c0.194-1.257,0.626-2.47,1.254-3.578C26.858,25.645,26.439,26.838,26.021,28.03 M33.111,24.888
	c-0.456,1.183-0.848,2.311-1.065,3.568C32.401,27.267,32.756,26.078,33.111,24.888 M40.587,28.854
	c0.218-0.762,0.436-1.525,0.654-2.288C40.787,27.14,40.41,28.123,40.587,28.854 M37.165,26.519c0.064-0.935,0.319-1.739,0.719-2.585
	C37.278,24.686,36.966,25.554,37.165,26.519 M29.434,25.248c-0.003-1.193,0.51-2.489,1.042-3.539
	C30.127,22.889,29.782,24.068,29.434,25.248 M34.175,24.241c0.208-1.254,0.465-2.679,1.218-3.737
	C34.422,21.496,34.074,22.914,34.175,24.241 M22.768,21.4c-1.266-0.114-0.756-2.752-0.586-3.451
	c0.194-0.799,0.669-1.572,1.086-2.276c0.415-0.702,0.816-1.457,1.331-2.089c-0.314,0.649-0.668,1.769-0.219,2.424
	c0.534,0.775,1.568,0.031,2.127-0.303c-0.648,1.376-1.297,2.753-1.946,4.13C24.28,20.429,23.634,21.682,22.768,21.4 M26.423,22.087
	c0.074-0.656,0.303-1.41,0.563-2.014c0.255-0.592,0.444-1.272,0.841-1.788C27.359,19.552,26.891,20.819,26.423,22.087
	 M39.929,24.091c0.44-0.944,0.88-1.886,1.32-2.831C40.592,22.127,39.938,22.949,39.929,24.091 M22.597,20.714
	c0.604-1.399,1.208-2.799,1.813-4.199C23.387,17.807,22.79,19.062,22.597,20.714 M37.072,21.783c0.28-0.957,0.469-2.091,1.132-2.876
	c-0.143,0.215-0.331,0.394-0.48,0.603c-0.16,0.225-0.223,0.481-0.361,0.714C37.082,20.7,37.167,21.269,37.072,21.783 M31.357,20.642
	c0.517-1.272,1.098-2.517,1.563-3.81C32.037,17.909,31.532,19.269,31.357,20.642 M28.926,17.343c0.262-0.605,0.536-1.21,0.853-1.789
	c0.31-0.566,0.722-1.122,0.998-1.686C29.678,14.784,29.195,15.958,28.926,17.343 M34.753,18.047c0.659-1.197,1.317-2.393,1.975-3.59
	c-0.383,0.515-0.89,0.994-1.148,1.59C35.292,16.712,35.036,17.383,34.753,18.047 M25.279,15.771c-0.9-0.26-0.552-1.674-0.365-2.31
	c0.196-0.671,0.628-1.204,1.009-1.781c0.453-0.682,0.905-1.365,1.355-2.047c-0.244,0.787-0.852,1.632-0.246,2.414
	c0.494,0.635,1.661,0.02,2.153-0.319c-0.707,1.028-1.417,2.059-2.125,3.087C26.68,15.368,25.941,15.737,25.279,15.771 M25.14,15.19
	c0.612-0.917,1.224-1.833,1.835-2.751C26.094,13.208,25.408,14.036,25.14,15.19 M30.777,13.868c0.023-0.028,0.081-0.064,0.101-0.114
	C30.821,13.775,30.818,13.819,30.777,13.868 M30.877,13.754c0.047-0.077,0.092-0.151,0.149-0.221
	C30.977,13.607,30.93,13.683,30.877,13.754 M32.547,13.424c0.808-1.088,1.616-2.178,2.423-3.266
	C33.885,11.023,32.927,12.043,32.547,13.424 M27.695,11.863c-0.514-0.061-0.525-0.677-0.448-1.076
	c0.166-0.874,0.605-1.625,1.291-2.185c1.163-0.953,3.464-1.812,4.852-0.904c-1.069,0.72-2.083,1.584-2.971,2.517
	c-0.47,0.492-0.76,1.014-1.376,1.335C28.652,11.754,28.142,11.95,27.695,11.863 M27.845,11.212c1.09-1.2,2.422-2.185,3.773-3.072
	c-0.881,0.227-1.664,0.565-2.354,1.173C28.634,9.869,28.295,10.526,27.845,11.212 M33.906,44.541c-0.09,0.33-0.38,0.605-0.337,0.077
	c0.035-0.431,0.028-0.871,0.057-1.305c0.059-0.875,0.157-1.748,0.238-2.623c0.169-1.843,0.351-3.685,0.527-5.527
	c0.195,0.851,0.648,1.445,1.187,2.107c0.221,0.272,0.598,0.663,0.617,1.038c0.022,0.423-0.136,0.771-0.272,1.167
	c-0.292,0.848-0.547,1.706-0.847,2.554C34.772,42.89,34.295,43.714,33.906,44.541"/>
<path fill="#010101" d="M50.913,4.438c0,0,3.931-2.006,5.294,0.401c1.363,2.407,1.766,4.894,1.766,4.894s-3.123,3.944-3.045,4.7
	c0.077,0.755,2.322,4.284,2.322,4.284l-1.363,6.899l-1.766,1.443l-5.854-1.765l-0.321-9.064c0,0,2.487-1.845,2.326-4.412
	C50.112,9.25,50.913,4.438,50.913,4.438z"/>
<path fill="#70BEEA" d="M51.457,20.462c0.396-0.395,2.341,4.099,3.088,4.799c0.195,0.251,1.577-3.063,1.01-3.553
	c-1.13-0.975-1.186-1.887-0.701-2.37c0.229-0.454,0.801-1.07,0.613-1.886c-0.351-1.535-0.547-3.128-0.539-3.021
	c0.012,0.169,1.426,1.441,1.426,1.441s1.222,0.482,2.359,0.571c1.143,0.087,3.771,0.131,4.168,2.105
	c0.395,1.974,1.359,4.256,1.053,5.44c-0.308,1.185-0.813,1.505-0.822,2.046c-0.012,0.542,0.342,1.463-0.098,1.64
	c-0.438,0.174-3.25,1.113-3.25,1.113s-0.83,1.781-1.095,4.72s-0.353,3.685-0.043,4.957c0.308,1.272,1.754,1.667,1.797,4.957
	c0.045,3.291,1.187,5.045,1.187,5.045l1.666,3.114l-0.477,0.743c0,0-1.059,0.659-1.63,0.792c-0.567,0.131-2.368,0.746-2.368,0.746
	l-5.22-0.482l-4.256-0.525l-7.72-2.063l-1.141-1.623c0,0-0.922-1.623,1.008-7.194c1.93-5.572,3.114-7.019,3.377-6.667
	c0.263,0.35,0.352,0.35,0.79-0.044c0.439-0.395,1.207-1.181,1.415-1.951c0.209-0.769-0.01-3.139-1.547-4.937
	c-0.002,0.282,0.22,1.755,0.22,1.755l-2.149,0.307l-2.5-0.703c0,0,0.394-0.877,0.394-1.316s-0.658-4.782-0.526-5.922
	c0.133-1.14,0.834-2.896,2.061-3.246c1.229-0.351,3.028-1.229,3.028-1.229l2.325-2.281c0,0-0.003,2.415,0.351,3.027
	C49.193,19.602,51.457,20.462,51.457,20.462z"/>
<path fill="#010101" d="M53.484,0.803c3.515-0.063,4.992,3.915,5.16,7.333c-0.021,0-0.041,0-0.062,0
	c-0.166-0.348-0.331-0.698-0.495-1.048c-0.021,0-0.043,0-0.063,0c0.244,1.402,1.244,2.079,0.684,3.935
	c-0.311,0.392-0.619,0.786-0.932,1.179c-0.104-0.064-0.204-0.131-0.312-0.196c0,0.109,0,0.218,0,0.328
	c0.267,0.511,0.589,0.811,0.622,1.572c-0.406,0.6-0.646,1.801,0.123,2.295c1.219,0.264,2.438,0.525,3.657,0.788
	c1.429,0.875,3.353,7.616,1.302,9.244c0.042,0.131,0.082,0.262,0.122,0.393c0.181-0.029,0.22-0.048,0.373-0.262
	c0.041,0.021,0.083,0.043,0.124,0.065c0.082,0.262,0.164,0.525,0.247,0.786c-0.187-0.021-0.371-0.043-0.56-0.065
	c0.047,0.831-0.258,0.431-0.494,0.917c-0.104,1.093-0.207,2.187-0.31,3.277c-0.166,2.886-0.332,5.771-0.497,8.656
	c-0.289,1.683-0.578,3.366-0.867,5.048c-0.388,2.469,0.635,3.596,1.299,4.981c0.229,0.468,0.936,1.504,0.685,1.967
	c-0.122,0.295-0.258,0.412-0.56,0.523c0.945,2.662,1.533,5.537,2.355,8.392c0.451,1.565,1.059,2.976,1.303,4.723
	c0.248,1.767-0.621,3.396-0.867,4.918c0.041,1.332,0.082,2.666,0.125,3.999c-0.683,4.215-1.363,8.436-2.047,12.65
	c-0.498,3.06,0.899,5.441,1.239,7.935c0.412-0.135,0.583-0.026,0.931,0.197c0.183,0.918,0.908,1.56,1.363,2.229
	c-0.328,0.451-0.695,0.672-0.869,1.312c-1.002,0.093-3.445,0.44-4.09-0.263c-0.853-2.176,0.018-3.719-1.734-5.113
	c-0.021,0-0.043,0-0.063,0c-0.172,1.361-0.012,2.807,0,4.262c-0.021,0-0.041,0-0.063,0c-0.207-0.045-0.412-0.087-0.618-0.131
	c0.009-1.723-0.216-3.141-0.683-4.393c-0.279-0.746-0.994-1.518-0.744-2.756c0.289-1.433,1.515-2.018,1.858-3.407
	c0.832-3.365,0.228-7.198-0.205-10.218c-0.377-2.631,1.304-6.142,0.949-7.813c-1.353-6.386-5.44-10.062-7.5-15.539
	c-1.074-0.131-2.147-0.262-3.225-0.394c0.042,5.691-0.888,10.357-1.672,15.146c-0.46,2.792,0.468,5.289,0.371,7.804
	c-0.109,2.84-0.98,7.004-0.495,9.967c0.639,2.839,1.28,5.682,1.92,8.521c0.543,1.406,2.05,2.909,1.301,5.047
	c-1.452,0.042-4.132,0.331-4.71-0.721c-0.227-0.524-1.743-7.563-1.674-7.866c0.228-0.992,0.843-1.919,0.557-3.476
	c-0.831-4.55-2.164-8.562-2.912-13.44c-0.405-2.648-0.425-5.51-0.067-7.736c0.47-2.912-0.013-6.537-0.358-9.066
	c-1.865-0.098-1.674-4.537-1.992-6.602c-0.562-3.66,0.241-6.945,0.805-10.358c0.341-2.061,0.057-4.112,0.31-6.36
	c0.127-1.125,0.203-2.856-0.062-3.934c-0.186-0.087-0.372-0.174-0.557-0.261c0.123-0.263,0.248-0.525,0.372-0.788
	c-0.206-0.087-0.413-0.174-0.62-0.261c0.021-0.175,0.041-0.351,0.063-0.527c0.02,0,0.042,0,0.063,0
	c0.298,0.137,0.408,0.143,0.495,0.527c0.021,0,0.042,0,0.061,0c-0.006-2.627-1.284-5.939,0.125-8.262
	c0.985-1.624,3.404-1.655,4.896-2.753c0.517-0.633,1.034-1.268,1.551-1.9c-0.089-0.234-0.14-0.441-0.31-0.591
	c-0.022,0-0.042,0-0.063,0c0,0.131,0,0.263,0,0.393c-0.103-0.108-0.207-0.218-0.311-0.327c0.021,0.132,0.043,0.263,0.063,0.394
	c-0.063-0.044-0.123-0.088-0.186-0.131c-0.248-0.743-0.496-1.487-0.744-2.229c-0.207-1.122,0.415-2.14,0.558-3.016
	c0.123-0.744-0.382-0.999-0.31-1.573c0.098-0.762,2.006-4.975,2.523-5.426C50.048,2.512,51.408,1.166,53.484,0.803z M50.589,8.988
	c-0.063-0.392-0.125-0.786-0.185-1.181c-0.277,1.705,0.667,2.943,0.31,4.656c-0.252,1.213-0.916,1.666-1.488,2.492
	c0.114,0.681,0.614,1.489,0.247,2.294c-0.041-0.771-0.48-1.353-0.929-1.704c-0.018,2.449,0.047,3.602,1.673,4.327
	c0.414,0.197,0.828,0.394,1.241,0.59c1.168,1.161,2.248,3.148,3.035,4.655c0.044-0.021,0.085-0.043,0.125-0.064
	c0.278-0.938,0.684-1.956,0.866-3.082c-0.486-0.614-0.942-1.313-0.981-2.401c0.104-0.175,0.136-0.144,0.238-0.318
	c-0.203,1.971,0.858,1.756,0.933,2.589c0.118,1.375-1.018,3.055-0.933,3.672c0.557,2.494,0.518,5.66,0.062,8.719
	c-0.211,1.437,0.118,3.568-0.681,4.393c-0.083,0.022-0.165,0.043-0.247,0.065c0-0.022,0-0.043,0-0.065
	c0.625-1.628,1.461-10.564,0.866-12.392c-0.276-0.856-2.896-5.317-3.47-5.77c-0.817-0.644-2.307-0.53-2.791-1.506
	c-0.445-0.896,0.06-2.063-0.249-3.017c-1.602,1-2.928,3.167-4.029,4.721c1.361-0.071,2.06-0.695,2.913-1.245
	c0.021,0,0.042,0,0.063,0c0.082,0.305,0.164,0.611,0.247,0.916c0.32-0.226,0.881-0.496,1.301-0.13
	c-0.573-0.036-0.788,0.058-1.177,0.329c-0.062-0.044-0.124-0.088-0.187-0.132c-0.169-0.178-0.179-0.568-0.309-0.787
	c-0.881,0.657-1.674,1.31-3.099,1.246c0.343-0.976,1.461-1.562,1.736-2.688c-1.273,0.637-3.434,1.266-4.154,2.492
	c-1.025,1.749-0.292,5.317,0,7.081c0.138,0.832-0.235,1.379-0.31,2.032c1.397,0.154,2.704,0.301,4.34,0.261
	c-0.224-1.723-0.84-3.08-0.683-4.982c0.022,0,0.042,0,0.063,0c-0.007,0.815-0.039,1.633,0.185,2.229
	c0.411,1.089,2.826,4.342,2.046,6.164c-0.745,0.961-1.488,1.923-2.231,2.883c1.182,0.226,2.074,0.94,3.099,1.312
	c2.876,1.044,7.205,1.676,10.537,0.655c-0.065-3.842,0.095-6.708,1.179-9.507c0.314-0.818,0.932-1.415,1.178-2.359
	c0.226-0.872-0.097-3.47,0.31-4.064c0.176,1.972-0.082,3.572-0.558,5.048c1.002-0.023,1.682,0.056,2.541,0.197
	c0.02-0.527-0.303-1.065-0.123-1.574c0.154-0.447,0.621-0.871,0.744-1.509c0.326-1.688-1.021-6.547-1.674-7.081
	c-1.166-0.95-2.951-0.605-4.714-0.982c-1.118-0.241-1.604-1.081-2.479-1.508c0,0.022,0,0.043,0,0.065
	c0.336,0.817,0.535,1.697,0.744,2.688c0.205-0.09,0.441-0.174,0.684-0.065c1.063,0.546,1.447,1.611,2.912,1.901
	c-0.145-0.175-0.29-0.351-0.436-0.525c0.207,0.198,0.412,0.395,0.621,0.59c0,0.023,0,0.043,0,0.067c-0.125,0-0.25,0-0.373,0
	c-1.301-0.465-1.857-1.363-2.912-1.968c-0.584,0.492-0.781,1.163-1.49,1.574c0.103-0.148,0.604-0.69,0.81-0.853
	c-0.046-1.18-0.646-3.372-0.774-3.893c0.641-1.005,1.248-2.118,1.893-3.123c1.511-2.909,0.081-5.359-3.1-5.312
	c-1.34,1.982-1.91,3.259-1.117,6.427c-0.742-2.458-0.805-3.901,0.557-6.491C53.188,6.039,51.868,5.284,50.589,8.988z M48.482,8.596
	c-0.093,0.463-0.127,0.958-0.063,1.441c0.021,0,0.042,0,0.063,0C48.482,9.558,48.482,9.076,48.482,8.596z M48.792,9.645
	c-0.002,0.99,0.29,1.59,0.433,2.426c0.041-0.021,0.082-0.044,0.124-0.065C49.384,11.025,49.246,10.114,48.792,9.645z M47.303,9.71
	c-0.123,0.852-0.248,1.704-0.373,2.556c0.146-0.13,0.29-0.261,0.433-0.392c0.244-0.622,0.438-1.153,0.25-1.968
	C47.511,9.841,47.407,9.776,47.303,9.71z M57.529,10.76c-0.063,0.326-0.123,0.654-0.188,0.982c0.021,0,0.041,0,0.063,0
	c0-0.043,0-0.085,0-0.131C57.538,11.398,57.65,11.048,57.529,10.76z M48.295,11.218c-0.324,1-1.101,1.348-0.932,2.754
	c0.692-0.513,1.572-1.58,1.055-2.754C48.378,11.218,48.336,11.218,48.295,11.218z M48.853,11.875
	c-0.038,0.844-0.391,1.211-0.745,1.703c0.413-0.145,0.701-0.45,0.929-0.786C49.057,12.361,49.03,12.083,48.853,11.875z
	 M49.472,12.201c-0.165,0.59-0.329,1.18-0.496,1.771c0.125-0.087,0.249-0.174,0.372-0.262
	C49.431,13.292,49.781,12.551,49.472,12.201z M56.725,12.398c0.049,0.763,0.313,1.773,0.743,2.165
	C57.508,13.601,57.309,12.705,56.725,12.398z M56.005,12.652c-0.249,0.732-0.59,1.189-1.077,1.779
	c0.407,0.584,0.969,0.923,1.426,1.441c0.041-0.022,0.082-0.043,0.125-0.065c0.123-0.373,0.246-0.744,0.371-1.115
	C56.336,14.252,56.559,13.188,56.005,12.652z M56.538,13.053c0.021,0.198,0.043,0.396,0.063,0.591
	c0.103,0.11,0.207,0.218,0.311,0.328c0-0.11,0-0.218,0-0.328C56.813,13.367,56.771,13.196,56.538,13.053z M48.667,13.447
	c-0.342,0.423-0.695,0.613-0.931,1.18c0.042,0.175,0.083,0.351,0.125,0.525c0.123-0.131,0.247-0.262,0.372-0.393
	c0.186-0.088,0.372-0.176,0.559-0.263C48.75,14.147,48.708,13.797,48.667,13.447z M56.911,15.086
	c-0.083,0.306-0.166,0.612-0.247,0.918c0.369,0.043,0.742,0.087,1.113,0.131c0-0.022,0-0.043,0-0.065
	C57.598,15.562,57.416,15.257,56.911,15.086z M57.777,17.774c0.063,0.087,0.125,0.175,0.188,0.262
	C57.902,17.949,57.84,17.861,57.777,17.774z M57.966,18.036c0.228,0.241,0.453,0.481,0.681,0.721
	C58.35,18.619,58.098,18.349,57.966,18.036z M55.484,19.086c0.104,0.021,0.207,0.043,0.31,0.065
	c0.022,0.043,0.043,0.087,0.063,0.131c-0.021,0.065-0.041,0.132-0.063,0.196c-0.041,0.066-0.082,0.131-0.121,0.198
	c-0.063-0.023-0.125-0.044-0.188-0.067c-0.061-0.044-0.123-0.088-0.185-0.131c0-0.064,0-0.131,0-0.196
	C55.359,19.217,55.424,19.151,55.484,19.086z M48.728,20.2c0.195,0.106,0.146,0.06,0.249,0.262
	C48.896,20.375,48.811,20.288,48.728,20.2z M56.104,21.905c0.146,0.043,0.289,0.087,0.436,0.13c-0.04,0.131-0.083,0.262-0.122,0.393
	c-0.021,0-0.043,0-0.063,0c-0.084,0-0.166,0-0.25,0c-0.041-0.063-0.084-0.13-0.121-0.195C56.021,22.123,56.063,22.014,56.104,21.905
	z M53.874,26.035c0.103,0.021,0.206,0.044,0.31,0.065c0.021,0.044,0.043,0.088,0.063,0.131c-0.021,0.109-0.042,0.219-0.063,0.328
	c-0.041,0.065-0.082,0.131-0.125,0.197c-0.061-0.022-0.121-0.044-0.185-0.066c-0.063-0.043-0.124-0.087-0.187-0.131
	c0-0.109,0-0.218,0-0.328C53.75,26.167,53.813,26.101,53.874,26.035z M45.506,28.657c0.102,0.547,0.207,1.093,0.309,1.64
	c-0.123,0.021-0.247,0.044-0.372,0.066c-0.042,1.66-0.083,3.322-0.125,4.982c0.675-0.424,1.206-1.428,1.736-2.032
	C47.067,31.711,46.507,29.233,45.506,28.657z M59.887,28.985c-0.328,1.115-0.66,2.229-0.992,3.343c-0.496,1.913-0.177,4.631,0,6.556
	c0.021,0,0.041,0,0.063,0c0.164-2.25,0.33-4.501,0.495-6.752C59.593,31.306,60.113,29.761,59.887,28.985z M54.059,30.231
	c0.276,0.051,0.231,0.039,0.373,0.197c0,0.087,0,0.175,0,0.262c-0.041,0.044-0.08,0.087-0.123,0.131
	c-0.125-0.043-0.25-0.087-0.371-0.131c0-0.087,0-0.175,0-0.262C53.977,30.363,54.02,30.297,54.059,30.231z M53.874,34.623
	c0.283,0.044,0.271,0.071,0.435,0.198c-0.021,0.087-0.041,0.174-0.063,0.262c-0.042,0.065-0.083,0.131-0.125,0.196
	c-0.083-0.022-0.165-0.043-0.247-0.065c-0.129-0.089-0.101-0.073-0.187-0.197c0-0.065,0-0.132,0-0.196
	C53.75,34.754,53.813,34.69,53.874,34.623z M56.725,52.72c-0.011-3.088,1.568-4.733,2.107-7.146c0.434-1.94,0.324-4.22,0.25-6.229
	c-2.068,0.131-4.135,0.263-6.201,0.393c-1.842-0.38-3.931-0.938-5.454-1.638c-0.456-0.211-2.971-1.255-3.1-1.116
	c-1.399,1.428-4.813,9.628-3.656,12.26c1.344,0.7,2.687,1.4,4.028,2.097c3.61,1.575,8.279,2.153,13.203,2.165
	c0.195-0.957,0.591-1.829,0.683-3.081c-0.166-0.045-0.331-0.087-0.495-0.131c-0.26,0.866-0.502,1.7-0.807,2.425
	C57.098,52.72,56.911,52.72,56.725,52.72z M61.684,48.654c0.229,1.224,0.455,2.448,0.685,3.671c0.146,0,0.286,0,0.433,0
	c0.146-0.175,0.29-0.351,0.436-0.523C62.768,50.729,62.389,49.482,61.684,48.654z M61.313,51.539c0,0.393,0,0.786,0,1.181
	c0.16-0.056,0.324-0.101,0.436-0.196c-0.043-0.328-0.084-0.653-0.124-0.982C61.52,51.539,61.415,51.539,61.313,51.539z
	 M59.516,53.177c0.028-0.442,0.137-0.901-0.063-1.179c-0.021,0-0.042,0-0.063,0c-0.123,0.395-0.246,0.786-0.371,1.179
	C59.186,53.177,59.35,53.177,59.516,53.177z"/>
</svg>
