<?xml version="1.0" encoding="utf-8"?>
<!-- Generator: Adobe Illustrator 16.0.0, SVG Export Plug-In . SVG Version: 6.00 Build 0)  -->
<!DOCTYPE svg PUBLIC "-//W3C//DTD SVG 1.1//EN" "http://www.w3.org/Graphics/SVG/1.1/DTD/svg11.dtd">
<svg version="1.1"
	 id="svg548" xmlns:cc="http://creativecommons.org/ns#" xmlns:dc="http://purl.org/dc/elements/1.1/" xmlns:rdf="http://www.w3.org/1999/02/22-rdf-syntax-ns#"
	 xmlns="http://www.w3.org/2000/svg" xmlns:xlink="http://www.w3.org/1999/xlink" x="0px" y="0px" width="144.018px" height="108px"
	 viewBox="0 0 144.018 108" enable-background="new 0 0 144.018 108" xml:space="preserve">
<path fill="#CB000F" d="M0,0c0.683,0,108,54.15,108,54.15L0,107.999h144V0H0z"/>
<path fill="#F8C00C" d="M0,0c0.454,0,71.849,54.15,71.849,54.15L0,108l108-53.848C108,54.152,0.683,0,0,0z"/>
<path d="M0,0v108l71.849-53.848C71.849,54.152,0.454,0,0,0z"/>
<polygon fill="#FFFFFF" points="31.326,53.225 37.407,41.855 25.733,47.178 17.246,38.025 17.94,50.552 6.373,55.787 19.188,58.607 
	20.213,71.195 26.767,60.05 39.595,62.895 "/>
</svg>
