<?xml version="1.0" encoding="utf-8"?>
<!-- Generator: Adobe Illustrator 16.0.0, SVG Export Plug-In . SVG Version: 6.00 Build 0)  -->
<!DOCTYPE svg PUBLIC "-//W3C//DTD SVG 1.1//EN" "http://www.w3.org/Graphics/SVG/1.1/DTD/svg11.dtd">
<svg version="1.1" id="Layer_1" xmlns="http://www.w3.org/2000/svg" xmlns:xlink="http://www.w3.org/1999/xlink" x="0px" y="0px"
	 width="73.968px" height="95.756px" viewBox="0 0 73.968 95.756" enable-background="new 0 0 73.968 95.756" xml:space="preserve">
<path d="M42.679,85.799l0.068,0.054l-0.053,0.068l-0.068-0.053L42.679,85.799z M40.68,78.009l-0.052,0.07l-0.078-0.116L40.68,78.009
	z M9.817,64.978l0.072,0.051l-0.054,0.072l-0.072-0.056L9.817,64.978z M58.035,85.909l0.069,0.052l-0.056,0.071l-0.067-0.053
	L58.035,85.909z M37.567,60.487c-0.01-0.021-0.014-0.098-0.019-0.122c0.076,0.026,0.094,0.104,0.117,0.169
	C37.632,60.521,37.585,60.521,37.567,60.487z M30.173,78.956l0.071,0.053l-0.053,0.07l-0.072-0.053L30.173,78.956z M56.792,75.099
	c0.025-0.004,0.101-0.022,0.123-0.018c0.016,0.002,0.055,0.041,0.071,0.052c-0.024,0.005-0.101,0.022-0.123,0.017
	C56.847,75.147,56.806,75.108,56.792,75.099z M42.697,58.496l0.07,0.054l-0.053,0.069l-0.07-0.052L42.697,58.496z M23.782,93.962
	c-0.002-0.025-0.021-0.1-0.015-0.121c0.002-0.017,0.042-0.057,0.051-0.072c0.004,0.024,0.022,0.101,0.017,0.123
	C23.833,93.909,23.794,93.949,23.782,93.962z M54.887,75.341l0.054-0.07l-0.072-0.052l-0.053,0.07L54.887,75.341z M44.688,57.959
	l0.069,0.054l-0.053,0.068l-0.07-0.053L44.688,57.959z M35.536,77.935l0.072,0.053l-0.053,0.07l-0.07-0.053L35.536,77.935z
	 M25.603,79.392c0.047-0.035,0.104-0.062,0.142-0.108c0.027,0.03,0.047,0.069,0.045,0.116l-0.182,0.024L25.603,79.392z
	 M57.155,74.565l0.025,0.193c-0.042,0.016-0.083,0.006-0.118-0.012C57.1,74.697,57.102,74.601,57.155,74.565z M22.23,90.993
	c-0.004-0.024-0.023-0.1-0.019-0.123c0.004-0.016,0.043-0.057,0.053-0.07c0.004,0.025,0.022,0.102,0.019,0.123
	C22.278,90.937,22.239,90.979,22.23,90.993z M42.905,56.024l0.072,0.054l-0.056,0.069l-0.067-0.053L42.905,56.024z M47.828,79.362
	l0.068,0.052l-0.055,0.069l-0.069-0.051L47.828,79.362z M57.554,74.3c0.025-0.005,0.104-0.021,0.123-0.019
	c0.015,0.004,0.057,0.042,0.07,0.054c-0.024,0.003-0.099,0.021-0.121,0.018C57.61,74.349,57.569,74.312,57.554,74.3z M42.556,55.763
	l0.07,0.051l-0.055,0.07l-0.068-0.053L42.556,55.763z M43.736,54.841l0.188-0.027c0.013,0.043-0.028,0.074-0.057,0.099
	C43.813,54.96,43.755,54.883,43.736,54.841z M42.041,55.213c-0.008-0.065-0.041-0.166-0.011-0.194
	c0.052,0.03,0.104,0.061,0.083,0.112C42.1,55.164,42.082,55.213,42.041,55.213z M50.617,53.667
	c-0.048-0.063,0.027-0.122,0.066-0.141c0.008,0.065,0.042,0.164,0.008,0.197C50.669,53.707,50.625,53.677,50.617,53.667z
	 M57.119,52.542l0.07,0.053l-0.053,0.07l-0.07-0.053L57.119,52.542z M49.853,90.842l0.068,0.052l-0.053,0.07L49.8,90.912
	L49.853,90.842z M32.109,77.174l0.069,0.054l-0.054,0.069l-0.069-0.053L32.109,77.174z M53.457,50.375
	c-0.002-0.024-0.02-0.101-0.016-0.123c0.002-0.017,0.04-0.056,0.053-0.069c0.002,0.024,0.021,0.1,0.019,0.123
	C53.507,50.322,53.47,50.36,53.457,50.375z M54.41,49.8l0.069,0.053l-0.056,0.071l-0.068-0.054L54.41,49.8z M48.08,79.19
	c0.041,0.056,0.066,0.115,0.115,0.148c-0.029,0.027-0.068,0.049-0.113,0.047C48.076,79.325,48.041,79.226,48.08,79.19z
	 M55.687,73.505c-0.016-0.012-0.053-0.051-0.07-0.055c-0.021-0.004-0.098,0.015-0.119,0.019c0.012,0.011,0.053,0.05,0.068,0.052
	C55.587,73.526,55.662,73.507,55.687,73.505z M58.146,79.697c-0.009-0.065-0.041-0.166-0.012-0.193
	c0.05,0.029,0.109,0.062,0.086,0.112C58.205,79.647,58.186,79.698,58.146,79.697z M72.349,44.373
	c0.013-0.014,0.041-0.063,0.054-0.07c0.021-0.011,0.101-0.014,0.121-0.018c-0.009,0.015-0.037,0.063-0.051,0.069
	C72.453,44.365,72.375,44.368,72.349,44.373z M46.931,86.188l0.07,0.056l-0.055,0.069l-0.07-0.055L46.931,86.188z M56.808,73.002
	c-0.008-0.065-0.042-0.167-0.014-0.192c0.053,0.028,0.11,0.058,0.086,0.11C56.867,72.953,56.85,73.002,56.808,73.002z M55.664,83.37
	l0.071,0.053l-0.053,0.068l-0.07-0.053L55.664,83.37z M57.794,72.481l0.072,0.054l-0.057,0.069l-0.068-0.054L57.794,72.481z
	 M48.175,88.765l0.072,0.055l-0.055,0.07l-0.07-0.054L48.175,88.765z M32.823,32.053l0.052-0.07l-0.069-0.052L32.752,32
	L32.823,32.053z M20.45,33.518l0.07,0.052l-0.054,0.07l-0.07-0.053L20.45,33.518z M53.689,80.084l0.072,0.052l-0.055,0.07
	l-0.068-0.055L53.689,80.084z M63.05,15.376c-0.008-0.066-0.041-0.167-0.01-0.193c0.049,0.028,0.105,0.059,0.082,0.111
	C63.11,15.328,63.091,15.375,63.05,15.376z M59.73,71.576l0.068,0.054l-0.051,0.069l-0.07-0.054L59.73,71.576z M49.642,80.634
	c0.027-0.027,0.068-0.049,0.111-0.047c0.008,0.063,0.039,0.162,0.004,0.196C49.714,80.728,49.689,80.668,49.642,80.634z
	 M58.328,71.401l0.069,0.055l-0.052,0.068l-0.068-0.053L58.328,71.401z M32.431,75.062l0.07,0.054l-0.051,0.069l-0.072-0.052
	L32.431,75.062z M58.509,71.178c0.044,0.058,0.068,0.116,0.117,0.149c-0.028,0.029-0.069,0.049-0.109,0.047
	C58.507,71.313,58.473,71.212,58.509,71.178z M52.646,78.042l0.068,0.053l-0.053,0.069l-0.07-0.052L52.646,78.042z M61.804,70.717
	c-0.01-0.063-0.045-0.165-0.014-0.192c0.053,0.029,0.106,0.06,0.086,0.113C61.86,70.67,61.843,70.719,61.804,70.717z M54.23,77.751
	l0.07,0.053l-0.053,0.07l-0.069-0.053L54.23,77.751z M54.699,79.688l0.069,0.053l-0.054,0.07l-0.069-0.053L54.699,79.688z
	 M58.019,70.132l0.188-0.027c0.014,0.043-0.028,0.073-0.058,0.099C58.098,70.251,58.037,70.176,58.019,70.132z M58.453,69.662
	c0.024-0.003,0.098-0.021,0.123-0.017c0.018,0.002,0.057,0.041,0.071,0.053c-0.024,0.002-0.103,0.021-0.125,0.017
	C58.507,69.712,58.468,69.673,58.453,69.662z M34.471,72.704l0.07,0.052l-0.053,0.07l-0.07-0.054L34.471,72.704z M57.671,69.024
	c0.027-0.004,0.102-0.021,0.125-0.02c0.015,0.003,0.056,0.043,0.07,0.055c-0.023,0.002-0.102,0.021-0.123,0.018
	C57.727,69.074,57.686,69.035,57.671,69.024z M49.149,80.297l0.071,0.054l-0.053,0.069l-0.072-0.053L49.149,80.297z M52.781,82.468
	l0.068,0.053l-0.051,0.07l-0.072-0.053L52.781,82.468z M43.972,78.919c0.053,0.038,0.146,0.039,0.183,0.094l-0.192,0.026
	C43.946,78.997,43.955,78.954,43.972,78.919z M57.852,68.088l0.069,0.054l-0.053,0.07l-0.07-0.053L57.852,68.088z M57.393,68.086
	c0.036,0.021,0.034,0.126,0.045,0.192c-0.042,0-0.079-0.043-0.129-0.049C57.318,68.178,57.35,68.135,57.393,68.086z M72.421,79.269
	l0.07,0.054l-0.054,0.069l-0.069-0.053L72.421,79.269z M42.132,79.178c-0.004-0.024-0.021-0.1-0.018-0.122
	c0.004-0.017,0.043-0.058,0.053-0.07c0.004,0.023,0.021,0.1,0.018,0.121C42.182,79.123,42.145,79.164,42.132,79.178z M57.912,66.769
	c0.014,0.039,0.006,0.084-0.013,0.119c-0.043-0.037-0.108-0.021-0.162-0.033C57.785,66.804,57.837,66.759,57.912,66.769z
	 M51.395,77.628c-0.013-0.013-0.054-0.051-0.069-0.054c-0.021-0.007-0.097,0.014-0.121,0.018c0.014,0.011,0.055,0.05,0.069,0.054
	C51.296,77.649,51.373,77.63,51.395,77.628z M60.976,64.133l0.189-0.026c0.01,0.043-0.031,0.072-0.058,0.099
	C61.055,64.252,60.994,64.177,60.976,64.133z M43.88,78.737c-0.043,0.021-0.035-0.057-0.035-0.086
	c0.002-0.021,0.035-0.082,0.045-0.102C43.951,78.593,43.953,78.699,43.88,78.737z M60.707,63.985l0.069,0.053l-0.053,0.07
	l-0.07-0.053L60.707,63.985z M47.705,80.255l0.069,0.053l-0.053,0.068l-0.069-0.051L47.705,80.255z M37.379,79.421l-0.072-0.051
	l0.113-0.08L37.379,79.421z M70.598,61.373l0.069,0.054l-0.051,0.07l-0.07-0.053L70.598,61.373z M63.937,59.89l0.07,0.053
	l-0.053,0.07l-0.07-0.054L63.937,59.89z M47.236,82.258c-0.023,0.042-0.049,0.097-0.107,0.082l-0.027-0.187
	c0.041-0.012,0.072,0.031,0.1,0.054C47.21,82.216,47.232,82.252,47.236,82.258z M51.787,81.116c0.002-0.045,0.041-0.096,0.096-0.083
	c0.008,0.062,0.041,0.161,0.01,0.192C51.837,81.19,51.783,81.158,51.787,81.116z M34.228,94.528l-0.026-0.184
	c0.053-0.029,0.094,0.014,0.128,0.049l-0.041,0.125L34.228,94.528z M54.271,76.049c-0.009,0.027,0.014,0.104,0.018,0.129
	l0.127-0.172C54.369,76.017,54.285,75.996,54.271,76.049z M31.248,62.386c-0.053-0.011,0.017,0.133,0.022,0.199
	c0.037,0,0.049-0.051,0.074-0.078C31.392,62.454,31.344,62.405,31.248,62.386z M55.765,75.417c0.043,0.023-0.006,0.078-0.041,0.114
	l-0.127-0.042C55.644,75.44,55.708,75.383,55.765,75.417z M37.453,60.622c0.052,0.035,0.106,0.066,0.104,0.109
	s-0.041,0.096-0.096,0.082C37.453,60.751,37.42,60.651,37.453,60.622z M43.755,58.789c0.002-0.042,0.041-0.095,0.098-0.082
	c0.007,0.062,0.041,0.163,0.009,0.192C43.809,58.864,43.755,58.833,43.755,58.789z M45.875,57.842
	c-0.054-0.012,0.016,0.132,0.021,0.198c0.036,0,0.048-0.051,0.072-0.079C46.017,57.909,45.969,57.862,45.875,57.842z M55.309,54.709
	c-0.044-0.008-0.046-0.053-0.044-0.082c0.004-0.045,0.051-0.046,0.081-0.043c0.05,0.009,0.063,0.095,0.015,0.119
	C55.354,54.708,55.315,54.712,55.309,54.709z M60.141,53.921c-0.043-0.025-0.097-0.053-0.083-0.111l0.186-0.026
	c0.012,0.041-0.027,0.073-0.052,0.101C60.183,53.894,60.146,53.916,60.141,53.921z M46.069,79.769l0.13-0.168
	c0.002,0.047,0.047,0.123,0,0.151C46.173,79.767,46.091,79.767,46.069,79.769z M51.142,78.885c0.038-0.011,0.117-0.03,0.132,0.009
	c-0.03,0.02-0.096,0.07-0.116,0.08c-0.048,0.021-0.092,0.01-0.134-0.002C51.048,78.948,51.113,78.894,51.142,78.885z M21.43,56.892
	c0.032-0.031,0.071-0.053,0.11-0.051c0.013,0.073,0.07,0.236-0.016,0.271c-0.008-0.047-0.012-0.137-0.024-0.162
	C21.493,56.937,21.442,56.901,21.43,56.892z M40.474,52.569c0.051-0.017,0.113,0.039,0.139,0.091l-0.188,0.026
	C40.396,52.634,40.434,52.582,40.474,52.569z M55.664,73.787l-0.025-0.188c-0.053,0.024-0.104,0.088-0.092,0.141
	C55.56,73.778,55.612,73.817,55.664,73.787z M28.25,50.86c0-0.043-0.053-0.074-0.107-0.107c-0.033,0.029,0.002,0.129,0.011,0.191
	C28.208,50.957,28.248,50.906,28.25,50.86z M14.72,48.549l0.027,0.187c-0.054,0.033-0.105-0.008-0.119-0.047
	C14.611,48.638,14.667,48.573,14.72,48.549z M49.908,80.786c0.026-0.045,0.063-0.1,0.105-0.098c0.044,0.002,0.096,0.041,0.08,0.099
	l-0.182,0.028C49.912,80.808,49.905,80.79,49.908,80.786z M57.856,41.92c-0.009-0.067-0.078-0.209-0.024-0.198
	c0.094,0.02,0.144,0.067,0.096,0.119C57.906,41.87,57.889,41.921,57.856,41.92z M67.128,39.8c0.035-0.045,0.043-0.109,0.063-0.166
	c0.016,0.011,0.063,0.04,0.066,0.05c0.017,0.033,0.025,0.082-0.016,0.101C67.223,39.793,67.146,39.798,67.128,39.8z M56.361,72.937
	l-0.188,0.027c-0.012,0.059,0.039,0.087,0.082,0.11c0.01-0.005,0.043-0.026,0.052-0.037C56.33,73.009,56.373,72.979,56.361,72.937z
	 M49.808,37.244c0.054,0.034,0.107,0.067,0.105,0.109c-0.002,0.044-0.043,0.097-0.098,0.082
	C49.81,37.374,49.775,37.273,49.808,37.244z M56.966,72.731c0.004-0.043,0.043-0.096,0.099-0.082
	c0.009,0.063,0.039,0.162,0.009,0.19C57.02,72.806,56.966,72.774,56.966,72.731z M46.205,81.153l0.026,0.188
	c-0.051,0.03-0.104-0.011-0.116-0.049C46.098,81.242,46.153,81.178,46.205,81.153z M53.136,78.351
	c-0.006-0.065-0.076-0.207-0.022-0.197c0.095,0.02,0.142,0.068,0.097,0.119C53.185,78.3,53.171,78.353,53.136,78.351z
	 M33.676,31.476c-0.091,0.033-0.012,0.239-0.004,0.347C33.759,31.788,33.684,31.583,33.676,31.476z M56.96,72.351
	c0.012-0.06-0.041-0.099-0.082-0.101c-0.043-0.001-0.078,0.052-0.104,0.099c0,0.002,0.005,0.021,0.005,0.028L56.96,72.351z
	 M0.046,24.396c-0.045-0.008-0.049-0.053-0.045-0.083c0.006-0.043,0.053-0.045,0.082-0.041c0.051,0.006,0.064,0.093,0.017,0.118
	C0.091,24.394,0.052,24.398,0.046,24.396z M33.149,15.157l0.026,0.187c-0.05,0.032-0.104-0.009-0.117-0.048
	C33.042,15.246,33.098,15.18,33.149,15.157z M54.294,72.483l-0.125-0.17l-0.071,0.199L54.294,72.483z M58.656,77.173l0.025,0.186
	c-0.051,0.033-0.104-0.006-0.116-0.045C58.55,77.26,58.604,77.196,58.656,77.173z M12.429,16.071l-0.026-0.186
	c-0.051,0.023-0.106,0.087-0.09,0.138C12.325,16.063,12.378,16.102,12.429,16.071z M12.329,15.727
	c0.011-0.054-0.131,0.016-0.199,0.022c0,0.037,0.051,0.049,0.078,0.073C12.261,15.87,12.309,15.821,12.329,15.727z M12.923,15.493
	c-0.053-0.012,0.017,0.13,0.025,0.199c0.035-0.001,0.047-0.053,0.072-0.08C13.067,15.56,13.018,15.511,12.923,15.493z
	 M55.152,77.614l0.025,0.188c-0.053,0.03-0.104-0.01-0.117-0.048C55.042,77.703,55.098,77.638,55.152,77.614z M13.697,14.936
	c0.02,0.041,0.043,0.13,0.008,0.149c-0.063-0.077-0.109-0.153-0.135-0.24C13.627,14.854,13.673,14.89,13.697,14.936z M11.421,89.601
	c-0.043-0.023-0.097-0.053-0.082-0.109l0.187-0.026c0.013,0.04-0.031,0.07-0.054,0.101C11.464,89.574,11.427,89.595,11.421,89.601z
	 M58.603,71.081c-0.048-0.009-0.048-0.055-0.046-0.083c0.004-0.045,0.052-0.045,0.081-0.042c0.051,0.008,0.063,0.093,0.017,0.119
	C58.646,71.079,58.606,71.081,58.603,71.081z M48.184,78.808l-0.026-0.188c-0.054,0.023-0.105,0.087-0.091,0.138
	C48.082,78.798,48.132,78.836,48.184,78.808z M58.052,70.33c0.053-0.017,0.117,0.038,0.141,0.091l-0.188,0.027
	C57.975,70.396,58.014,70.342,58.052,70.33z M46.229,79.093c-0.007-0.064-0.076-0.209-0.022-0.197
	c0.096,0.021,0.145,0.067,0.098,0.119C46.278,79.042,46.267,79.093,46.229,79.093z M56.595,70.455
	c-0.008,0.026,0.015,0.104,0.02,0.13l0.129-0.172C56.695,70.422,56.609,70.401,56.595,70.455z M50.641,80.392
	c-0.036-0.093-0.017-0.222,0.051-0.258c0.007,0.033,0.028,0.121,0.021,0.147C50.708,80.308,50.65,80.374,50.641,80.392z
	 M35.465,73.531c0.019-0.021,0.07-0.099,0.086-0.104c0.049-0.017,0.137-0.037,0.158,0.004c-0.031,0.02-0.097,0.073-0.119,0.082
	C35.568,73.522,35.49,73.526,35.465,73.531z M34.836,90.49l0.027,0.187c-0.051,0.031-0.105-0.008-0.117-0.049
	C34.73,90.579,34.785,90.513,34.836,90.49z M65.369,68.072c-0.043-0.024-0.097-0.054-0.084-0.111l0.188-0.026
	c0.013,0.041-0.03,0.072-0.053,0.101C65.41,68.044,65.373,68.067,65.369,68.072z M55.05,77.571c-0.016-0.01-0.062-0.04-0.065-0.049
	c-0.014-0.033-0.021-0.078,0.021-0.096c0.024-0.009,0.147-0.051,0.092,0.014C55.078,77.458,55.059,77.545,55.05,77.571z
	 M60.103,68.526c0.066-0.008,0.21-0.077,0.197-0.023c-0.018,0.096-0.067,0.143-0.119,0.096
	C60.155,68.574,60.103,68.562,60.103,68.526z M26.08,83.585c0.027-0.047,0.06-0.1,0.105-0.098c0.043,0,0.094,0.039,0.082,0.1
	l-0.183,0.025C26.082,83.608,26.078,83.587,26.08,83.585z M53.666,77.213c0.002-0.043,0.041-0.096,0.099-0.083
	c0.009,0.063,0.04,0.163,0.011,0.192C53.718,77.29,53.664,77.256,53.666,77.213z M51.739,79.979
	c-0.067,0.009-0.211,0.078-0.198,0.023c0.019-0.094,0.064-0.143,0.117-0.096C51.687,79.933,51.739,79.944,51.739,79.979z
	 M13.049,95.726c0.026-0.047,0.06-0.099,0.104-0.098c0.043,0.002,0.095,0.043,0.082,0.1l-0.185,0.028
	C13.05,95.75,13.047,95.729,13.049,95.726z M58.775,66.202c-0.044-0.024-0.096-0.053-0.083-0.112l0.187-0.026
	c0.014,0.043-0.029,0.072-0.053,0.102C58.817,66.174,58.781,66.196,58.775,66.202z M25.03,85.774
	c0.002-0.043,0.041-0.094,0.096-0.082c0.009,0.063,0.043,0.164,0.011,0.192C25.083,85.851,25.028,85.819,25.03,85.774z
	 M52.035,77.317c0.026-0.117-0.134-0.032-0.188-0.027c-0.003,0.036,0.02,0.075,0.05,0.107c0.009-0.039,0.054-0.041,0.09-0.041
	C52.022,77.417,52.028,77.341,52.035,77.317z M55.729,62.042c0.028-0.047,0.062-0.1,0.104-0.098c0.045,0.002,0.097,0.041,0.08,0.1
	l-0.181,0.025C55.734,62.063,55.729,62.043,55.729,62.042z M27.02,85.239c0.002-0.042,0.041-0.096,0.096-0.082
	c0.008,0.061,0.041,0.162,0.011,0.191C27.073,85.313,27.018,85.283,27.02,85.239z M37.968,64.254c0-0.043,0.041-0.096,0.094-0.081
	c0.01,0.063,0.043,0.161,0.01,0.189C38.019,64.329,37.964,64.298,37.968,64.254z M37.211,63.8c0.002-0.045,0.043-0.096,0.098-0.083
	c0.008,0.062,0.041,0.162,0.008,0.193C37.264,63.875,37.211,63.842,37.211,63.8z M53.662,79.384
	c-0.043-0.023,0.006-0.078,0.041-0.113l0.125,0.041C53.783,79.362,53.72,79.419,53.662,79.384z M17.521,81.556
	c-0.059,0.043-0.119-0.029-0.133-0.066c0.09-0.006,0.295-0.086,0.332,0.009c-0.047,0.006-0.133,0.015-0.162,0.022
	C17.55,81.522,17.529,81.55,17.521,81.556z M66.598,77.472c-0.052-0.016-0.095-0.056-0.063-0.107
	c0.024-0.041,0.063-0.047,0.094-0.045c0.054,0.008,0.063,0.091,0.018,0.117C66.634,77.444,66.6,77.472,66.598,77.472z
	 M55.623,75.672L55.5,75.69c-0.002-0.019-0.019-0.078-0.013-0.09c0.013-0.028,0.089-0.091,0.109-0.11L55.623,75.672z M51.216,79.438
	l-0.051,0.068c-0.064-0.029-0.094-0.096-0.138-0.138c0.019-0.002,0.095-0.021,0.115-0.017C51.18,79.362,51.195,79.408,51.216,79.438
	z M41.567,58.47l0.121-0.017l0.026,0.185l-0.119,0.018L41.567,58.47z M55.739,78.224l0.185-0.025l0.018,0.121l-0.182,0.027
	L55.739,78.224z M43.141,55.953c0.021,0.144,0.083,0.354,0.013,0.45C43.132,56.258,43.07,56.048,43.141,55.953z M40.553,80.526
	c-0.054-0.014-0.099-0.055-0.065-0.107c0.024-0.04,0.065-0.047,0.096-0.043c0.049,0.007,0.062,0.091,0.017,0.116
	C40.585,80.499,40.555,80.526,40.553,80.526z M35.89,45.324c0.021,0.019,0.095,0.07,0.096,0.083c0.021,0.076,0.076,0.22-0.019,0.233
	c-0.016-0.051-0.051-0.156-0.061-0.193C35.9,45.422,35.892,45.349,35.89,45.324z M19.34,47.577l0.051-0.069
	c0.063,0.031,0.09,0.096,0.137,0.136c-0.018,0.003-0.094,0.021-0.114,0.017C19.377,47.652,19.36,47.609,19.34,47.577z
	 M20.136,35.691l-0.029-0.184l-0.121,0.018l0.025,0.183L20.136,35.691z M24.45,34.571c-0.016-0.023-0.063-0.091-0.078-0.114
	c-0.03-0.052,0.013-0.094,0.043-0.125c0.03,0.051,0.104,0.099,0.09,0.167C24.499,34.518,24.46,34.557,24.45,34.571z M53.727,72.905
	c-0.063-0.032-0.104,0.008-0.106,0.059c-0.002,0.023,0.024,0.063,0.062,0.075c0.011,0.005,0.049-0.002,0.056-0.005
	C53.785,73.009,53.77,72.929,53.727,72.905z M47.046,79.161l-0.019-0.124l-0.185,0.026l0.018,0.125L47.046,79.161z M38.056,74.972
	c-0.039-0.013-0.063-0.052-0.063-0.074c0-0.051,0.047-0.09,0.105-0.06c0.045,0.022,0.063,0.104,0.013,0.127
	C38.105,74.97,38.066,74.974,38.056,74.972z M16.264,20.025c-0.053-0.014-0.096-0.054-0.063-0.108
	c0.024-0.039,0.062-0.045,0.092-0.041c0.051,0.006,0.063,0.089,0.019,0.114C16.299,19.999,16.266,20.026,16.264,20.025z
	 M47.718,86.013l0.183-0.025l0.019,0.123l-0.185,0.025L47.718,86.013z M47.001,80.854c0.056,0.041,0.131,0.043,0.174,0.08
	c0.019,0.017,0.016,0.116,0.021,0.146c-0.042,0.023-0.048-0.038-0.067-0.059C47.082,80.976,46.938,80.946,47.001,80.854z
	 M53.623,82.903l0.119,0.174c-0.023,0.042-0.053,0.096-0.107,0.083C53.628,83.087,53.58,82.95,53.623,82.903z M53.22,77.677
	l0.171-0.123l0.024,0.188c-0.041,0.015-0.088,0.009-0.127-0.013C53.274,77.72,53.233,77.688,53.22,77.677z M60.253,66.245
	c0.002-0.044,0.051-0.045,0.088-0.038c0.031,0.006,0.056,0.045,0.054,0.069c0,0.05-0.047,0.094-0.103,0.06
	C60.257,66.313,60.25,66.274,60.253,66.245z M22.478,70.7c-0.04-0.014-0.064-0.053-0.064-0.075c0.002-0.05,0.046-0.092,0.107-0.06
	c0.043,0.022,0.06,0.104,0.01,0.129C22.524,70.699,22.485,70.703,22.478,70.7z M57.421,65.533l-0.034-0.253
	c0.051-0.031,0.092,0.012,0.125,0.044C57.489,65.39,57.477,65.487,57.421,65.533z M50.026,79.858l0.122-0.018l0.027,0.186
	l-0.125,0.018L50.026,79.858z M38.53,79.103c0.029-0.055,0.04-0.123,0.091-0.172l0.07,0.053c-0.011,0.035-0.016,0.082-0.047,0.102
	C38.623,79.095,38.546,79.099,38.53,79.103z M58.809,62.499c-0.052-0.016-0.093-0.055-0.062-0.107
	c0.025-0.041,0.062-0.047,0.094-0.043c0.051,0.006,0.063,0.09,0.018,0.116C58.845,62.472,58.813,62.499,58.809,62.499z
	 M34.18,90.278c-0.014-0.012-0.065-0.041-0.067-0.051c-0.014-0.1,0.095-0.121,0.16-0.115c-0.022,0.02-0.024,0.063-0.039,0.092
	C34.226,90.224,34.19,90.263,34.18,90.278z M47.38,80.176l0.123-0.017l0.025,0.185l-0.125,0.017L47.38,80.176z M37.321,64.408
	c0.004-0.044,0.054-0.048,0.089-0.039c0.031,0.006,0.055,0.044,0.055,0.069c0,0.049-0.047,0.094-0.103,0.06
	C37.326,64.474,37.319,64.435,37.321,64.408z M53.492,76.542l-0.066-0.051c-0.03,0.021-0.072,0.037-0.075,0.068
	c-0.009,0.039-0.005,0.084,0.039,0.092c0.011,0,0.049-0.002,0.057-0.006C53.478,76.622,53.481,76.578,53.492,76.542z M18.594,66.317
	c0.014-0.012,0.096-0.027,0.112-0.021c0.035,0.013,0.082,0.038,0.082,0.083l-0.252,0.036C18.523,66.374,18.565,66.342,18.594,66.317
	z M40.141,78.399c-0.002-0.024-0.021-0.101-0.017-0.121c0.008-0.039,0.053-0.055,0.084-0.075l0.067,0.051
	c-0.026,0.045-0.062,0.083-0.104,0.108C40.162,78.368,40.149,78.392,40.141,78.399z M56.466,59.301
	c-0.051-0.026-0.096-0.079-0.084-0.142l0.18-0.026c0.027,0.058,0.003,0.123-0.038,0.162C56.518,59.301,56.474,59.306,56.466,59.301z
	 M44.335,59.021c-0.055-0.025-0.133-0.108-0.117-0.179c0.006-0.03,0.085-0.112,0.105-0.142l0.049,0.122L44.335,59.021z
	 M45.953,57.61c0.012,0.022,0.084,0.082,0.114,0.087c0.035,0.007,0.019-0.087,0-0.125c-0.01-0.025-0.108-0.083-0.135-0.104
	C45.937,57.497,45.938,57.587,45.953,57.61z M51.246,80.933l-0.027-0.179c0.044-0.017,0.087-0.003,0.127,0.011
	c0.05,0.016,0.063,0.096,0.02,0.125C51.33,80.913,51.291,80.935,51.246,80.933z M33.169,78.46l-0.024-0.182
	c0.041-0.014,0.084-0.002,0.125,0.011c0.049,0.019,0.061,0.097,0.019,0.125C33.253,78.438,33.214,78.462,33.169,78.46z
	 M57.701,74.875c-0.016-0.011-0.068-0.042-0.068-0.051c-0.006-0.062,0.045-0.13,0.104-0.142c0.011,0,0.054,0.041,0.067,0.051
	c-0.012,0.035-0.018,0.076-0.047,0.102C57.746,74.844,57.71,74.866,57.701,74.875z M50.089,79.412l-0.187,0.026
	c-0.022-0.076,0.019-0.172,0.099-0.2C50.03,79.292,50.096,79.338,50.089,79.412z M42.155,86.083
	c-0.005,0.025-0.058,0.098-0.087,0.118c-0.033,0.021-0.027-0.062-0.025-0.087c0.014-0.081,0.011-0.18,0.084-0.234
	C42.132,85.919,42.162,86.043,42.155,86.083z M57.436,73.91c-0.015-0.011-0.065-0.042-0.065-0.05
	c-0.006-0.063,0.045-0.129,0.104-0.142c0.009-0.002,0.054,0.04,0.065,0.048c-0.013,0.037-0.017,0.077-0.049,0.104
	C57.48,73.879,57.449,73.901,57.436,73.91z M53.477,78.135c-0.022-0.045-0.039-0.138,0.003-0.159
	c0.047,0.067,0.094,0.127,0.152,0.174c0.016,0.013,0.016,0.101,0.018,0.123C53.613,78.246,53.492,78.167,53.477,78.135z
	 M5.187,41.909l-0.026-0.181c0.042-0.016,0.085-0.004,0.126,0.011c0.047,0.015,0.06,0.094,0.019,0.124
	C5.271,41.887,5.232,41.912,5.187,41.909z M34.1,76.011c-0.026,0.008-0.106,0.033-0.093-0.009c0.006-0.032,0.066-0.106,0.084-0.11
	c0.068-0.021,0.181-0.043,0.222-0.009C34.262,75.914,34.146,75.996,34.1,76.011z M49.408,84.267l-0.023-0.182
	c0.039-0.016,0.082-0.002,0.125,0.012c0.049,0.016,0.06,0.096,0.018,0.125C49.49,84.245,49.453,84.271,49.408,84.267z M70.08,7.259
	c0.006-0.029,0.09-0.092,0.112-0.114l0.034,0.246C70.158,7.384,70.067,7.32,70.08,7.259z M56.312,71.755l-0.025-0.182
	c-0.058-0.016-0.088,0.035-0.107,0.078c-0.018,0.043-0.053,0.082-0.057,0.13L56.312,71.755z M57.771,71.295
	c-0.029-0.004-0.113,0.017-0.143,0.021c-0.028-0.053,0.013-0.094,0.047-0.131c0.021,0.008,0.102,0.035,0.125,0.047
	c0.046,0.021,0.096,0.063,0.046,0.111C57.833,71.336,57.787,71.298,57.771,71.295z M57.809,70.853
	c0.039,0.024,0.093,0.054,0.078,0.111l-0.169,0.023c-0.012-0.049-0.088-0.238,0.021-0.17C57.757,70.831,57.796,70.847,57.809,70.853
	z M58.142,69.642c-0.051-0.023-0.096-0.08-0.087-0.142l0.183-0.026c0.027,0.059,0,0.125-0.039,0.164
	C58.192,69.644,58.149,69.647,58.142,69.642z M22.293,73.578c-0.015-0.011-0.063-0.038-0.069-0.056
	c-0.011-0.02-0.019-0.098-0.019-0.114c0.006-0.046,0.057-0.048,0.085-0.045c0.043,0.004,0.045,0.054,0.043,0.081
	S22.301,73.55,22.293,73.578z M60.699,63.045c0.008-0.012,0.038-0.063,0.049-0.065c0.062-0.004,0.127,0.047,0.127,0.098
	c0,0.048-0.047,0.094-0.104,0.056C60.737,63.11,60.719,63.077,60.699,63.045z M56.255,81.155c0.015-0.039,0.057-0.047,0.088-0.035
	c0.048,0.018,0.092,0.074,0.08,0.137l-0.182,0.024C56.229,81.24,56.237,81.194,56.255,81.155z M66.186,59.847
	c0.013-0.021,0.065-0.094,0.088-0.105s0.113-0.016,0.142-0.021l0.02,0.123l-0.244,0.035C66.188,59.872,66.181,59.853,66.186,59.847z
	 M32.017,63.878c-0.052-0.093-0.147-0.096-0.209-0.127l0.026,0.188C31.896,63.921,32.056,63.946,32.017,63.878z M38.302,62.757
	l-0.026-0.182l0.183-0.025c0.026,0.057-0.004,0.12-0.039,0.158C38.388,62.742,38.347,62.761,38.302,62.757z M43.121,82.354
	c-0.004-0.029-0.024-0.117-0.019-0.135c0.017-0.051,0.047-0.115,0.11-0.096c0.037,0.013,0.053,0.051,0.074,0.079
	c-0.029,0.044-0.063,0.083-0.108,0.116C43.162,82.331,43.151,82.36,43.121,82.354z M56.148,75.156
	c-0.002-0.009,0.038-0.052,0.049-0.066c0.022,0.035,0.112,0.138,0.112,0.165c0,0.051-0.056,0.094-0.114,0.059
	C56.14,75.28,56.152,75.208,56.148,75.156z M40.083,77.345c0.012-0.017,0.041-0.068,0.054-0.07c0.055-0.004,0.104,0.043,0.127,0.088
	c0.021,0.041,0.045,0.132,0.011,0.146C40.203,77.455,40.123,77.418,40.083,77.345z M56.589,56.687l-0.027-0.184l0.184-0.025
	c0.026,0.056-0.004,0.121-0.039,0.16C56.673,56.668,56.634,56.688,56.589,56.687z M13.974,84.729
	c-0.016-0.013-0.07-0.041-0.071-0.053c-0.004-0.058,0.043-0.105,0.09-0.128c0.041-0.021,0.129-0.044,0.147-0.011
	C14.083,84.612,14.048,84.692,13.974,84.729z M35.695,59.002c0.004-0.082,0.086-0.149,0.166-0.147l0.026,0.183l-0.184,0.026
	C35.702,59.051,35.695,59.013,35.695,59.002z M55.289,80.295c-0.035-0.095-0.069-0.19-0.078-0.306
	c0.028,0.021,0.121,0.078,0.143,0.104c0.01,0.019,0.023,0.104,0.016,0.119C55.354,80.25,55.33,80.295,55.289,80.295z M39.304,56.667
	c0.002-0.08-0.066-0.162-0.155-0.168c-0.099-0.008-0.026,0.131-0.021,0.191L39.304,56.667z M39.389,54.653
	c0.013-0.016,0.042-0.069,0.053-0.07c0.058-0.005,0.106,0.043,0.127,0.089c0.021,0.041,0.046,0.13,0.011,0.147
	C39.509,54.763,39.427,54.729,39.389,54.653z M56.975,45.045c0.09,0.007,0.157,0.088,0.155,0.169l-0.176,0.025
	C56.949,45.177,56.878,45.038,56.975,45.045z M50.789,78.623l0.184-0.024l0.025,0.183c-0.041,0.015-0.088,0.006-0.125-0.015
	C50.826,78.735,50.778,78.685,50.789,78.623z M23.259,48.683c-0.056,0-0.133-0.014-0.146,0.031
	c-0.012,0.045-0.005,0.092,0.039,0.098c0.021,0.002,0.097-0.006,0.115-0.015C23.316,48.774,23.302,48.683,23.259,48.683z
	 M21.098,39.405l-0.068-0.173c-0.043,0-0.092,0-0.09,0.037c0.002,0.053-0.016,0.139,0.038,0.152
	C21.005,39.429,21.083,39.407,21.098,39.405z M29.4,34.419c0.088,0.007,0.158,0.087,0.156,0.17l-0.176,0.024
	C29.371,34.55,29.302,34.412,29.4,34.419z M56.109,72.093c-0.044,0.004-0.059,0.063-0.088,0.078
	c-0.027,0.016-0.119,0.018-0.162,0.023c0.073,0.062,0.2,0.08,0.262,0.158C56.162,72.308,56.112,72.171,56.109,72.093z
	 M52.178,78.297c0.007,0.073,0.053,0.209,0.021,0.251c-0.064-0.04-0.135-0.051-0.182-0.102c0.025-0.043,0.061-0.084,0.107-0.114
	C52.14,78.321,52.151,78.29,52.178,78.297z M54.355,7.604l-0.027-0.182l0.185-0.026c0.022,0.056-0.003,0.12-0.041,0.161
	C54.442,7.587,54.399,7.607,54.355,7.604z M47.195,78.89l-0.025-0.187c-0.084,0.051-0.172,0.112-0.225,0.187
	c-0.007,0.006,0.004,0.027,0.004,0.033L47.195,78.89z M54.271,77.181c0.085,0.006,0.154,0.088,0.152,0.168l-0.174,0.024
	C54.24,77.31,54.171,77.172,54.271,77.181z M58.108,67.737c0.088,0.007,0.156,0.087,0.153,0.17l-0.174,0.023
	C58.082,67.869,58.009,67.729,58.108,67.737z M52.337,77.647l-0.025-0.188c-0.045,0.005-0.059,0.063-0.09,0.079
	c-0.026,0.017-0.118,0.017-0.154,0.021c0.021,0.051,0.08,0.088,0.131,0.107C52.22,77.677,52.31,77.651,52.337,77.647z
	 M72.498,60.636c0.084-0.056,0.168-0.133,0.291-0.145l0.019,0.125L72.5,60.663L72.498,60.636z M56.162,76.356l-0.048-0.314
	l0.12-0.018c0.018,0.063,0.016,0.125-0.004,0.188C56.212,76.259,56.208,76.333,56.162,76.356z M38.238,64.05
	c-0.017-0.008-0.068-0.047-0.068-0.058c-0.02-0.069-0.043-0.181-0.006-0.224c0.047,0.071,0.088,0.137,0.143,0.183
	c0.021,0.022,0.029,0.071-0.01,0.092C38.289,64.048,38.25,64.053,38.238,64.05z M31.104,63.651c0.014-0.047,0.043-0.098,0.086-0.12
	c0.024-0.011,0.114-0.015,0.184-0.025c-0.104,0.085-0.208,0.188-0.248,0.286C31.119,63.763,31.096,63.673,31.104,63.651z
	 M55.703,57.065l0.186-0.026l0.025,0.185l-0.182,0.026L55.703,57.065z M58.634,78.494c0-0.036,0.048-0.041,0.084-0.034
	c0.014,0.002,0.063,0.04,0.07,0.059c0.008,0.024,0.015,0.113,0.019,0.141c-0.042,0.016-0.087,0.007-0.127-0.012
	C58.623,78.621,58.634,78.547,58.634,78.494z M39.123,78.917c-0.039-0.023-0.09-0.051-0.076-0.109l0.242-0.035
	c0.025,0.057,0,0.123-0.043,0.155C39.21,78.954,39.162,78.94,39.123,78.917z M35.665,76.252c-0.051-0.019-0.042-0.099-0.033-0.146
	c0.008-0.047,0.07-0.09,0.129-0.08c0.006,0.025,0.025,0.113,0.021,0.141c0,0.018-0.035,0.068-0.049,0.081
	C35.724,76.253,35.681,76.259,35.665,76.252z M62.718,40.957l0.037,0.256l-0.191,0.027C62.548,41.121,62.644,41.017,62.718,40.957z
	 M52.619,78.296l0.182-0.025l0.029,0.186l-0.184,0.025L52.619,78.296z M56.697,72.261l-0.07-0.052
	c-0.088,0.047-0.121,0.157-0.11,0.263c0.002,0.026,0.053,0.068,0.101,0.057C56.628,72.427,56.632,72.327,56.697,72.261z
	 M58.061,26.429c-0.024-0.134,0.015-0.239,0.052-0.325c0.01,0.007,0.059,0.036,0.067,0.05c0.008,0.021,0.024,0.103,0.017,0.119
	C58.167,26.333,58.121,26.399,58.061,26.429z M12.807,16.521l0.185-0.026l0.026,0.184l-0.184,0.027L12.807,16.521z M34.457,75.208
	c-0.006-0.025-0.027-0.114-0.021-0.132c0.017-0.052,0.049-0.121,0.123-0.087c0.04,0.02,0.058,0.123,0.013,0.17
	C34.541,75.19,34.5,75.209,34.457,75.208z M41.844,93.058l0.182-0.025l0.027,0.184l-0.183,0.026L41.844,93.058z M25.744,83.879
	c-0.029,0.032-0.072,0.052-0.117,0.05l-0.024-0.183c0.074-0.004,0.209-0.054,0.254-0.015C25.83,83.771,25.769,83.854,25.744,83.879z
	 M24.182,72.117c0.061-0.017,0.125-0.011,0.19,0.004c0.064,0.015,0.199-0.035,0.205,0.063l-0.379,0.053L24.182,72.117z
	 M52.053,79.567c0.024-0.036,0.053-0.09,0.112-0.076l0.035,0.242c-0.045,0.016-0.089,0.004-0.127-0.012
	C52.017,79.696,52.024,79.614,52.053,79.567z M43.393,78.871c-0.024,0.013-0.114,0.017-0.154,0.022
	c0.038-0.084,0.118-0.17,0.128-0.271c0.016,0.013,0.067,0.04,0.072,0.054c0.01,0.021,0.021,0.102,0.02,0.123
	C43.453,78.815,43.408,78.865,43.393,78.871z M58.598,76.058c0-0.037,0.048-0.041,0.082-0.033c0.013,0.002,0.063,0.039,0.069,0.055
	c0.014,0.025,0.018,0.117,0.021,0.143c-0.043,0.016-0.089,0.008-0.129-0.011C58.587,76.185,58.598,76.11,58.598,76.058z
	 M45.666,85.646c-0.052-0.021-0.097-0.076-0.088-0.139c0.03-0.003,0.116-0.023,0.144-0.021c0.019,0.002,0.071,0.039,0.077,0.05
	c0.018,0.032,0.023,0.081-0.019,0.1C45.762,85.644,45.685,85.655,45.666,85.646z M38.425,64.362
	c-0.043,0.006-0.166,0.082-0.156-0.031c0.01-0.098,0.104-0.119,0.176-0.115c0.043,0.006,0.051,0.055,0.043,0.087
	C38.484,64.313,38.44,64.36,38.425,64.362z M46.201,80.252c0.03-0.026,0.032-0.065,0.053-0.101c0.022-0.039,0.053-0.092,0.109-0.077
	l0.042,0.307c-0.04,0.024-0.049-0.037-0.067-0.055C46.296,80.293,46.253,80.261,46.201,80.252z M59.433,57.278
	c-0.064-0.031-0.133-0.092-0.117-0.166c0.008-0.038,0.051-0.055,0.081-0.075c0.013,0.01,0.054,0.041,0.067,0.053
	c0.039,0.036,0.07,0.112,0.021,0.152C59.476,57.251,59.44,57.274,59.433,57.278z M39.524,77.8c-0.011,0.002-0.056-0.043-0.071-0.053
	c0.023-0.086,0.08-0.18,0.152-0.191c0.048-0.011,0.1,0.045,0.055,0.098C39.617,77.705,39.591,77.786,39.524,77.8z M40.902,52.083
	c-0.02-0.007-0.066-0.045-0.072-0.061c-0.011-0.017-0.022-0.084-0.017-0.102c0.006-0.025,0.063-0.094,0.071-0.109
	c0.06,0.055,0.132,0.17,0.08,0.265C40.96,52.086,40.91,52.087,40.902,52.083z M47.417,51.244l-0.047-0.324
	c-0.008-0.04,0.055-0.11,0.107-0.132c0.025,0.174,0.006,0.306-0.005,0.447L47.417,51.244z M60.921,45.67
	c-0.019,0.031-0.039,0.078-0.082,0.079c-0.006-0.044-0.039-0.171-0.028-0.205c0.015-0.054,0.052-0.112,0.106-0.123
	c0.013-0.002,0.057,0.041,0.069,0.051C60.976,45.513,60.941,45.636,60.921,45.67z M13.014,14.863
	c-0.022-0.103-0.098-0.168-0.191-0.227c-0.037-0.021-0.004,0.179,0.006,0.253L13.014,14.863z M23.925,75.849
	c-0.027,0.01-0.117,0.014-0.144,0.019l-0.029-0.185c0.031-0.004,0.119-0.023,0.136-0.019c0.051,0.017,0.121,0.048,0.094,0.112
	C23.979,75.792,23.94,75.84,23.925,75.849z M57.425,71.03c-0.008,0.055-0.038,0.096-0.071,0.136l-0.065-0.052
	c0.047-0.08-0.006-0.172-0.039-0.24C57.332,70.881,57.439,70.927,57.425,71.03z M54.091,77.647l-0.073-0.057
	c0.049-0.053,0.021-0.146-0.041-0.179l0.202-0.029c0.005,0.029,0.025,0.116,0.021,0.144c-0.002,0.018-0.041,0.067-0.052,0.08
	C54.141,77.617,54.104,77.64,54.091,77.647z M33.009,66.024c0.008-0.061-0.035-0.119-0.086-0.133
	c-0.068-0.017-0.171,0.012-0.165,0.107c0,0.012,0.004,0.049,0.006,0.061L33.009,66.024z M37.738,64.935
	c-0.07-0.009-0.201,0.039-0.209-0.061c0.045-0.006,0.145-0.016,0.176-0.025c0.029-0.01,0.106-0.064,0.135-0.082l0.068,0.053
	c-0.013,0.035-0.015,0.084-0.047,0.103C37.839,64.933,37.763,64.938,37.738,64.935z M37.492,61.204c0-0.083-0.047-0.219,0.051-0.225
	l0.125,0.367c-0.051,0.018-0.094,0.008-0.133-0.011C37.478,61.312,37.492,61.237,37.492,61.204z M55.992,75.183l-0.07-0.052
	c0.037-0.082,0.02-0.17,0.023-0.256l0.125-0.019c0.006,0.041,0.032,0.164,0.028,0.203c-0.002,0.02-0.037,0.068-0.052,0.082
	C56.039,75.151,56.001,75.173,55.992,75.183z M35.771,56.487c-0.074,0.027-0.158-0.018-0.199-0.086
	c-0.011-0.014-0.017-0.105-0.021-0.133l0.187-0.028L35.771,56.487z M56.796,73.384l-0.021-0.152
	c0.086-0.054,0.144-0.138,0.214-0.203l0.074,0.058c-0.025,0.045-0.063,0.08-0.104,0.116C56.903,73.252,56.864,73.342,56.796,73.384z
	 M62.813,38.159c-0.051-0.024-0.065-0.134-0.024-0.164c0.067-0.049,0.158,0,0.187,0.06c0.013,0.023,0,0.074-0.036,0.094
	C62.919,38.159,62.837,38.171,62.813,38.159z M59.375,33.807l-0.037-0.245l0.185-0.026c0.006,0.029,0.026,0.116,0.021,0.143
	c-0.002,0.017-0.041,0.065-0.053,0.079C59.46,33.791,59.419,33.809,59.375,33.807z M33.27,10.762
	c0.073-0.027,0.157,0.016,0.201,0.086c0.008,0.015,0.014,0.104,0.019,0.134l-0.185,0.026L33.27,10.762z M50.38,78.403
	c-0.063-0.021-0.096,0.044-0.111,0.095c-0.005,0.017,0.016,0.106,0.02,0.135c0.028-0.004,0.125-0.006,0.144-0.022
	c0.021-0.014,0.041-0.104,0.047-0.112C50.537,78.425,50.417,78.417,50.38,78.403z M63.227,70.165
	c-0.021-0.007-0.069-0.044-0.076-0.061c-0.013-0.025-0.017-0.115-0.021-0.145c0.029-0.004,0.117-0.025,0.135-0.02
	c0.049,0.018,0.119,0.052,0.092,0.103C63.324,70.097,63.3,70.192,63.227,70.165z M57.429,70.59c0.015,0.017,0.013,0.101,0.015,0.112
	c-0.069-0.049-0.135,0.047-0.211,0.052c-0.006-0.037-0.026-0.126-0.021-0.147c0.017-0.054,0.054-0.102,0.105-0.125
	C57.343,70.531,57.397,70.553,57.429,70.59z M50.738,78.286l-0.134-0.046c0.021-0.03,0.065-0.058,0.054-0.101l-0.187,0.026
	c0.004,0.028,0.008,0.117,0.021,0.144c0.008,0.017,0.057,0.055,0.072,0.06c0.023,0.006,0.102-0.004,0.123-0.013
	C50.701,78.349,50.728,78.299,50.738,78.286z M46.763,78.931c0.002-0.019,0.041-0.064,0.051-0.082
	c-0.023,0.006-0.111,0.004-0.125,0.019c-0.047,0.062-0.105,0.104-0.168,0.147c0.027,0.018,0.093,0.073,0.119,0.078
	c0.025,0.008,0.113-0.017,0.145-0.021C46.778,79.044,46.759,78.958,46.763,78.931z M31.58,64.351l-0.035-0.244l0.183-0.026
	c0.006,0.03,0.024,0.117,0.022,0.146c-0.002,0.017-0.041,0.063-0.053,0.077C31.666,64.334,31.625,64.353,31.58,64.351z
	 M37.703,62.558c-0.054-0.015-0.041-0.095-0.035-0.152c0.004-0.049,0.09-0.043,0.146-0.029c0.045,0.014,0.068,0.132,0.025,0.17
	C37.82,62.563,37.732,62.565,37.703,62.558z M36.63,62.435c-0.066-0.033-0.131-0.094-0.117-0.168
	c0.002-0.017,0.042-0.064,0.058-0.07c0.026-0.014,0.115-0.019,0.143-0.021c0.004,0.027,0.025,0.115,0.021,0.145
	c-0.002,0.016-0.039,0.064-0.051,0.08C36.673,62.408,36.638,62.428,36.63,62.435z M36.723,61.824
	c-0.053-0.017-0.045-0.095-0.037-0.155c0.006-0.048,0.092-0.042,0.146-0.027c0.045,0.012,0.067,0.131,0.026,0.168
	C36.838,61.828,36.75,61.831,36.723,61.824z M56.962,58.824c-0.063-0.033-0.131-0.095-0.117-0.167
	c0.002-0.018,0.042-0.066,0.061-0.074c0.023-0.01,0.112-0.016,0.141-0.02c0.004,0.027,0.024,0.114,0.021,0.143
	c-0.002,0.018-0.038,0.068-0.051,0.081C57.007,58.796,56.97,58.817,56.962,58.824z M31.145,61.327
	c-0.021-0.03-0.11-0.098-0.139-0.107c-0.033-0.012-0.08-0.006-0.089,0.036c-0.02,0.079,0.084,0.097,0.114,0.144
	c0.016,0.027,0.018,0.121,0.022,0.156c0.052-0.021,0.083-0.08,0.107-0.129C31.166,61.414,31.158,61.341,31.145,61.327z
	 M49.433,79.444c0.042,0.07-0.053,0.117-0.066,0.168c-0.01,0.033,0.018,0.121,0.021,0.15l-0.13,0.019
	c-0.012-0.144,0.048-0.269,0.078-0.386C49.369,79.407,49.41,79.413,49.433,79.444z M56.564,75.038
	c-0.029-0.047-0.132-0.18-0.154-0.235c-0.005-0.013-0.062-0.125,0.016-0.104c0.088,0.022,0.207,0.067,0.181,0.207
	C56.602,74.933,56.574,75.01,56.564,75.038z M50.755,81.015c-0.029-0.135,0.015-0.24,0.047-0.32c0.054,0.031,0.136,0.037,0.16,0.098
	c0.01,0.025-0.006,0.072-0.037,0.098C50.893,80.916,50.791,80.987,50.755,81.015z M44.283,85.64
	c-0.009-0.049-0.044-0.18-0.029-0.209c0.031-0.078,0.092-0.158,0.156-0.203c0.01,0.049,0.045,0.182,0.031,0.211
	C44.41,85.515,44.349,85.595,44.283,85.64z M42.322,50.222c-0.072-0.046-0.141-0.123-0.16-0.227l0.25-0.036
	c0.024,0.065-0.02,0.131-0.039,0.19C42.369,50.168,42.333,50.209,42.322,50.222z M26.4,45.336c-0.053-0.015-0.043-0.095-0.037-0.153
	c0.006-0.049,0.092-0.043,0.146-0.029c0.045,0.013,0.067,0.132,0.029,0.168C26.517,45.34,26.427,45.345,26.4,45.336z M38.395,75.458
	c-0.024,0.014-0.112,0.018-0.144,0.02c-0.027-0.074,0.017-0.16,0.084-0.185c0.069-0.024,0.215-0.067,0.271-0.026
	c-0.03,0.021-0.104,0.066-0.123,0.084C38.464,75.369,38.417,75.444,38.395,75.458z M73.523,69.119
	c-0.052-0.017-0.045-0.095-0.038-0.153c0.007-0.048,0.093-0.043,0.147-0.029c0.045,0.015,0.068,0.133,0.025,0.168
	C73.64,69.124,73.55,69.126,73.523,69.119z M57.772,67.099l-0.244,0.036c-0.026-0.057,0-0.122,0.038-0.161
	c0.031-0.029,0.137-0.096,0.171-0.119L57.772,67.099z M52.981,63.403l-0.077-0.06c-0.091,0.08-0.105,0.22-0.201,0.313
	c-0.043,0.044,0.129,0.009,0.199,0C52.91,63.569,52.916,63.468,52.981,63.403z M56.628,61.284c-0.021-0.008-0.07-0.047-0.076-0.063
	c-0.014-0.024-0.016-0.113-0.02-0.143l0.24-0.035c0.016,0.042,0.014,0.089-0.018,0.123C56.722,61.211,56.705,61.31,56.628,61.284z
	 M54.029,76.338l-0.055-0.378c-0.063,0.048-0.055,0.165-0.122,0.218c0.011,0.05-0.011,0.123,0.049,0.148
	C53.941,76.347,53.984,76.354,54.029,76.338z M47.529,79.969c0.053-0.059,0.025-0.153-0.033-0.185l0.207-0.03
	c-0.004,0.047-0.047,0.084-0.051,0.134c0.055,0.035,0.105,0.081,0.135,0.141c0.014,0.023,0.028,0.111,0.004,0.092
	C47.716,80.047,47.613,80.026,47.529,79.969z M37.067,62.019c-0.014-0.037-0.022-0.162-0.028-0.203
	c0.076-0.027,0.162,0.014,0.199,0.084c0.017,0.026,0.022,0.153,0.028,0.193c-0.041,0.016-0.088,0.01-0.125-0.014
	C37.125,62.069,37.073,62.036,37.067,62.019z M40.375,78.054l-0.035-0.244l0.246-0.037c0.026,0.067-0.022,0.129-0.035,0.19
	C40.494,77.998,40.446,78.063,40.375,78.054z M50.443,79.739l-0.218-0.217l0.053-0.074c0.065,0.064,0.163,0.085,0.257,0.097
	c0.037,0.004,0.004,0.11-0.031,0.151C50.496,79.706,50.458,79.729,50.443,79.739z M49.221,79.349
	c-0.038-0.002-0.161,0.022-0.205,0.029c-0.026-0.066,0.022-0.131,0.04-0.191c0.09-0.002,0.188,0.014,0.258,0.069
	c0.016,0.011,0.018,0.11,0.021,0.14C49.312,79.386,49.246,79.351,49.221,79.349z M42.653,57.753l-0.034-0.247
	c0.027-0.005,0.116-0.026,0.139-0.021c0.055,0.017,0.106,0.053,0.117,0.109c0.002,0.01-0.033,0.057-0.047,0.066
	C42.774,57.699,42.728,57.76,42.653,57.753z M55.313,74.97c0.019-0.01,0.089-0.025,0.103-0.02c0.022,0.013,0.076,0.089,0.088,0.113
	c0.012,0.021,0.016,0.099,0.021,0.121c-0.021-0.015-0.081-0.074-0.114-0.084c-0.076-0.021-0.096,0.107-0.158,0.133
	c-0.008-0.068-0.047-0.144-0.002-0.196C55.261,75.021,55.298,74.978,55.313,74.97z M54.694,74.871
	c-0.06-0.015-0.092,0.036-0.112,0.077c-0.013,0.027-0.043,0.119-0.045,0.15c-0.002,0.032,0.021,0.131,0.025,0.172
	c0.068-0.045,0.13-0.125,0.16-0.201C54.734,75.039,54.701,74.909,54.694,74.871z M48.191,81.045
	c0.018-0.055,0.074-0.131,0.104-0.112c0.074,0.045,0.146,0.11,0.168,0.215l-0.248,0.035C48.208,81.156,48.187,81.067,48.191,81.045z
	 M14.24,79.233c-0.069,0.02-0.148-0.08-0.142-0.157c0.033-0.007,0.131-0.027,0.162-0.022c0.045,0.004,0.174,0.049,0.216,0.062
	C14.402,79.157,14.32,79.212,14.24,79.233z M19.917,36.159c-0.004-0.011-0.06-0.047-0.076-0.049
	c-0.033-0.004-0.136,0.011-0.165,0.023c-0.017,0.008-0.053,0.057-0.055,0.069c-0.006,0.035-0.004,0.082,0.041,0.085
	c0.045,0.002,0.196-0.015,0.238-0.029C19.943,36.243,19.933,36.191,19.917,36.159z M12.766,16.454
	c-0.042,0.007-0.214,0.094-0.138-0.06c0.01-0.021-0.029-0.182,0.006-0.124l0.188-0.067c0.005,0.064,0.047,0.137,0.001,0.192
	C12.811,16.409,12.772,16.453,12.766,16.454z M24.436,76.11c-0.051-0.014-0.039-0.092-0.037-0.146
	c-0.002-0.011,0.037-0.062,0.053-0.067c0.025-0.011,0.115-0.018,0.144-0.021c0.004,0.029,0.024,0.116,0.021,0.145
	c-0.002,0.016-0.037,0.071-0.051,0.08C24.544,76.11,24.465,76.119,24.436,76.11z M33.746,71.869
	c-0.025,0.011-0.115,0.016-0.144,0.019c-0.004-0.027-0.022-0.113-0.02-0.142c0.001-0.017,0.037-0.072,0.051-0.08
	c0.021-0.013,0.101-0.028,0.131-0.021c0.054,0.016,0.041,0.101,0.041,0.153C33.807,71.81,33.762,71.86,33.746,71.869z
	 M22.364,80.833l-0.026-0.188l0.372-0.054c0.012,0.041-0.026,0.076-0.056,0.097C22.574,80.742,22.487,80.819,22.364,80.833z
	 M55.474,58.065c-0.018-0.004-0.063-0.043-0.073-0.06c-0.009-0.017-0.015-0.084-0.013-0.092c0.021-0.052,0.044-0.106,0.109-0.097
	c0.08,0.017,0.164,0.142,0.1,0.232C55.585,58.065,55.496,58.069,55.474,58.065z M48.582,81.538
	c-0.021-0.008-0.067-0.047-0.076-0.063c-0.008-0.017-0.019-0.082-0.017-0.102c0.007-0.02,0.038-0.072,0.054-0.081
	c0.021-0.013,0.104-0.026,0.129-0.019c0.054,0.015,0.043,0.103,0.031,0.144C48.687,81.468,48.656,81.565,48.582,81.538z
	 M55.854,74.451c0.017,0.021,0.097,0.065,0.106,0.089c0.021,0.049,0.029,0.212,0.041,0.282c-0.08-0.058-0.129-0.191-0.207-0.231
	c-0.071-0.035-0.01-0.181,0.013-0.258C55.815,74.354,55.837,74.431,55.854,74.451z M38.548,76.656
	c-0.019-0.009-0.065-0.048-0.074-0.063c-0.01-0.018-0.018-0.083-0.014-0.104c0.004-0.017,0.035-0.07,0.051-0.079
	c0.021-0.014,0.101-0.026,0.132-0.02c0.051,0.016,0.04,0.104,0.028,0.144C38.655,76.585,38.625,76.683,38.548,76.656z
	 M30.901,61.459c-0.07,0.009-0.109,0.104-0.15,0.176c-0.008,0.013,0.008,0.082,0.016,0.095c0.035,0.045,0.08,0.096,0.136,0.088
	c0.012,0,0.043-0.053,0.055-0.07c-0.065-0.043-0.062-0.137-0.002-0.189C31.006,61.51,30.954,61.454,30.901,61.459z M63.138,56.37
	c-0.018,0.009-0.083,0.021-0.102,0.018c-0.018-0.005-0.072-0.035-0.08-0.052c-0.012-0.021-0.024-0.101-0.02-0.122
	c0.003-0.018,0.048-0.064,0.063-0.072c0.018-0.009,0.082-0.011,0.1-0.014c0.038,0.057,0.121,0.102,0.104,0.171
	C63.197,56.317,63.152,56.36,63.138,56.37z M40.099,56.094c0.008-0.049,0.049-0.089,0.089-0.116
	c0.021-0.015,0.114-0.018,0.144-0.021l0.033,0.246l-0.244,0.036C40.114,56.208,40.095,56.122,40.099,56.094z M56.107,73
	c-0.029-0.024-0.074-0.074-0.13-0.024c-0.037,0.033-0.037,0.121-0.099,0.145c-0.039,0.017-0.082-0.036-0.127-0.038
	c0.004,0.03,0.006,0.108,0.02,0.129c0.018,0.026,0.111,0.083,0.141,0.104C55.964,73.205,56.011,73.078,56.107,73z M52.477,80.133
	c-0.009,0.026-0.028,0.106-0.046,0.13c-0.02,0.032-0.036,0.078-0.081,0.079c-0.005-0.045-0.038-0.17-0.029-0.208
	c0.005-0.031,0.081-0.121,0.104-0.148c0.027-0.032,0.074-0.051,0.113-0.049c0.008,0.072,0.058,0.209,0.019,0.254L52.477,80.133z
	 M57.044,67.705l-0.026-0.192c0.075,0.025,0.149,0.088,0.209,0.148c0.015,0.015,0.017,0.111,0.022,0.146l-0.381-0.015L57.044,67.705
	z M37.867,63.511c-0.025,0.012-0.115,0.018-0.144,0.021l-0.034-0.246l0.242-0.034c0.006,0.062,0.047,0.136,0.002,0.188
	C37.917,63.457,37.882,63.504,37.867,63.511z M54.321,75.756c0.003-0.026-0.021-0.114-0.022-0.149
	c-0.119,0.012-0.207,0.098-0.307,0.053c0.006,0.027,0.008,0.121,0.023,0.142c0.014,0.021,0.104,0.048,0.132,0.052
	c0.022,0.002,0.103-0.004,0.123-0.015C54.285,75.829,54.319,75.774,54.321,75.756z M42.755,59.353
	c-0.029-0.043-0.067-0.09-0.114-0.098c-0.029-0.005-0.114,0.018-0.146,0.021c0.004,0.023,0.006,0.104,0.019,0.121
	c0.021,0.027,0.112,0.086,0.142,0.106l0.061-0.011C42.733,59.446,42.791,59.397,42.755,59.353z M42.712,54.108
	c-0.018,0.01-0.082,0.021-0.102,0.018c-0.016-0.005-0.07-0.037-0.078-0.052c-0.012-0.019-0.023-0.101-0.02-0.122
	c0.004-0.016,0.046-0.063,0.063-0.071c0.018-0.01,0.084-0.019,0.104-0.016c0.015,0.004,0.071,0.036,0.079,0.053
	c0.01,0.019,0.021,0.101,0.019,0.122C42.774,54.056,42.729,54.099,42.712,54.108z M15.259,85.825
	c-0.104,0.023-0.172,0.074-0.256,0.07c-0.025-0.002-0.08-0.035-0.09-0.053c-0.037-0.062,0.022-0.127,0.041-0.188
	c0.026,0.019,0.117,0.106,0.155,0.106c0.076,0,0.158-0.077,0.25-0.073C15.342,85.715,15.282,85.819,15.259,85.825z M73.739,65.994
	c-0.01-0.022-0.028-0.103-0.021-0.13c0.014-0.053,0.101-0.037,0.152-0.037c0.012,0,0.063,0.039,0.067,0.056
	c0.017,0.038,0.022,0.163,0.028,0.203c-0.028,0.004-0.116,0.029-0.141,0.021C73.8,66.099,73.751,66.019,73.739,65.994z
	 M35.037,62.256c-0.031-0.017-0.123-0.084-0.141-0.112c-0.013-0.017-0.021-0.084-0.015-0.1c0.019-0.052,0.053-0.111,0.106-0.107
	c0.089,0.006,0.104,0.114,0.15,0.183c0.039,0.053-0.018,0.096-0.045,0.132C35.09,62.254,35.047,62.26,35.037,62.256z M31.588,62.224
	l-0.029-0.186c-0.051,0.007-0.217,0.018-0.254,0.036c-0.072,0.036-0.112,0.126-0.084,0.2L31.588,62.224z M29.476,79.178
	c-0.105,0.036-0.201,0.099-0.317,0.116c-0.029-0.079,0.018-0.189,0.084-0.191c0.139-0.006,0.251-0.086,0.381-0.108
	C29.588,79.04,29.511,79.167,29.476,79.178z M45.896,57.222c-0.021,0.004-0.079,0.006-0.089,0.016
	c-0.081,0.058-0.138,0.137-0.188,0.216c0.019,0.028,0.036,0.078,0.086,0.073c0.063-0.004,0.137-0.06,0.229-0.058L45.896,57.222z
	 M55.898,73.444c0.01,0.013,0.063,0.048,0.079,0.05c0.037,0.003,0.149-0.015,0.185-0.026c0.043-0.018,0.151-0.098,0.191-0.121
	l-0.176-0.132c-0.014,0.025-0.035,0.119-0.053,0.129c-0.067,0.043-0.147,0.007-0.215-0.028
	C55.892,73.356,55.876,73.403,55.898,73.444z M56.714,71.54c-0.037-0.008-0.071-0.071-0.125-0.042
	c-0.045,0.024-0.033,0.104,0.019,0.119c0.026,0.009,0.116,0.036,0.132,0.057s0.016,0.113,0.02,0.144l0.123-0.019
	c-0.004-0.028-0.027-0.118-0.02-0.144c0.008-0.032,0.081-0.12,0.104-0.15C56.916,71.511,56.764,71.552,56.714,71.54z M70.039,53.153
	c-0.063,0.039-0.125-0.022-0.188-0.045c-0.002-0.019-0.019-0.082-0.015-0.1c0.011-0.048,0.054-0.082,0.093-0.113
	c0.012-0.008,0.079-0.021,0.096-0.018c0.021,0.002,0.074,0.036,0.08,0.051c0.015,0.021,0.026,0.1,0.021,0.123
	C70.117,53.076,70.063,53.142,70.039,53.153z M57.214,73.25c-0.014-0.079-0.012-0.174-0.069-0.272
	c-0.022-0.041,0.058-0.146,0.132-0.139c0.021,0.002,0.071,0.045,0.077,0.061c0.015,0.041,0.044,0.185,0.033,0.226
	c-0.007,0.021-0.097,0.065-0.119,0.093C57.257,73.229,57.248,73.259,57.214,73.25z M35.653,73.979
	c0.004-0.097-0.037-0.172-0.07-0.238c0.018-0.023,0.053-0.072,0.07-0.081c0.018-0.009,0.082-0.019,0.101-0.017
	c0.049,0.013,0.087,0.053,0.119,0.09c0.01,0.014,0.012,0.082,0.012,0.1C35.812,73.884,35.749,73.964,35.653,73.979z M53.705,77.543
	c0.055,0.03,0.045,0.103,0.035,0.149c-0.004,0.031-0.025,0.08-0.064,0.08c-0.051-0.138-0.108-0.258-0.133-0.428
	c0.047-0.011,0.08,0.041,0.117,0.045c0.078,0.01,0.223-0.049,0.277-0.009L53.705,77.543z M49.498,79.698l0.03-0.348l0.194,0.146
	l-0.114,0.079c0.026,0.011,0.119,0.033,0.134,0.054c0.018,0.021,0.018,0.113,0.021,0.144c-0.028,0.004-0.116,0.025-0.143,0.021
	C49.571,79.785,49.494,79.729,49.498,79.698z M38.871,55.233c-0.024-0.061-0.111-0.022-0.143,0.02
	c-0.098-0.09-0.216-0.13-0.33-0.213c-0.027,0.016-0.014,0.113,0.014,0.141c0.07,0.077,0.151,0.146,0.274,0.166
	c0.024,0.004,0.147-0.037,0.175-0.021C38.937,55.374,38.878,55.254,38.871,55.233z M52.953,53.087
	c-0.066-0.186-0.035-0.347,0.055-0.445c0.021-0.025,0.093,0.037,0.129,0.082c0.009,0.012,0.023,0.082,0.017,0.096
	C53.089,52.903,53.023,53.017,52.953,53.087z M57.958,73.772c-0.049-0.031-0.071-0.104-0.121-0.141
	c0.02-0.017,0.101-0.064,0.111-0.088c0.006-0.021-0.02-0.113-0.021-0.145l0.189-0.026l-0.015,0.378
	C58.074,73.755,57.977,73.785,57.958,73.772z M43.604,79.563l0.019-0.196c-0.045-0.007-0.088-0.039-0.125-0.074
	c0.03-0.071,0.115-0.104,0.164-0.149c0.004,0.037,0.012,0.14,0.022,0.17c0.048,0.086,0.106,0.166,0.164,0.244l-0.056,0.07
	L43.604,79.563z M13.959,89.013c-0.047,0.012-0.119,0.049-0.148,0c-0.043-0.068,0.021-0.135,0.041-0.197l0.323-0.047
	c0.03,0.054-0.009,0.098-0.043,0.131C14.101,88.926,13.997,89,13.959,89.013z M19.043,89.381c-0.017,0.009-0.08,0.021-0.101,0.017
	c-0.049-0.011-0.082-0.053-0.113-0.09c-0.01-0.015-0.022-0.078-0.019-0.1c0.004-0.018,0.037-0.072,0.051-0.079
	c0.021-0.011,0.099-0.021,0.121-0.019c0.029,0.002,0.109,0.043,0.132,0.052c0.002,0.049,0.043,0.108-0.009,0.149
	C19.092,89.324,19.059,89.373,19.043,89.381z M42.951,58.392c-0.014,0.014-0.084,0.027-0.099,0.021
	c-0.022-0.011-0.072-0.09-0.074-0.095c-0.053-0.127-0.009-0.272,0.048-0.262c0.088,0.021,0.166,0.101,0.188,0.203
	C43.016,58.287,42.969,58.375,42.951,58.392z M25.607,79.015c-0.064,0.038-0.127-0.024-0.191-0.047
	c-0.002-0.017-0.02-0.084-0.014-0.096c0.041-0.073,0.082-0.172,0.151-0.174c0.082-0.004,0.147,0.098,0.127,0.223
	C25.681,78.935,25.629,79.001,25.607,79.015z M32.076,56.91l-0.029-0.2c0.041-0.007,0.166-0.035,0.205-0.029
	c0.047,0.006,0.082,0.053,0.113,0.094c0.009,0.013,0.024,0.08,0.018,0.096c-0.012,0.023-0.086,0.078-0.119,0.094
	C32.204,56.996,32.14,56.931,32.076,56.91z M36.739,74.094c-0.025-0.006-0.095-0.053-0.107-0.075
	c-0.012-0.018-0.022-0.1-0.016-0.121c0.002-0.017,0.045-0.065,0.062-0.069c0.037-0.015,0.164-0.025,0.205-0.031
	c0.006,0.042,0.033,0.164,0.029,0.205c0,0.017-0.035,0.072-0.051,0.08C36.839,74.092,36.762,74.099,36.739,74.094z M56.893,75.782
	c0.004-0.031,0.079-0.121,0.104-0.148c0.029-0.031,0.071-0.05,0.117-0.047c0,0.016,0.016,0.072,0.012,0.088
	c-0.021,0.065-0.056,0.122-0.102,0.176c0.031,0.071,0.127,0.097,0.158,0.164l-0.254,0.035
	C56.919,75.996,56.882,75.833,56.893,75.782z M42.044,77.911c-0.022-0.005-0.104,0.021-0.123,0.015
	c-0.033-0.013-0.123-0.086-0.143-0.114c-0.015-0.022-0.017-0.117-0.021-0.149c0.115-0.019,0.205,0.063,0.271,0.12
	c0.053,0.05,0.182,0.043,0.188,0.121c0.002,0.053-0.047,0.1-0.104,0.057C42.102,77.949,42.06,77.913,42.044,77.911z M43.899,56.63
	c-0.022-0.037-0.103-0.154-0.123-0.199c-0.03-0.064,0.041-0.125,0.093-0.166c0.008-0.008,0.073-0.02,0.079-0.015
	c0.074,0.054,0.138,0.159,0.099,0.257C44.019,56.567,43.935,56.582,43.899,56.63z M44.9,55.528c0.002-0.016,0.037-0.07,0.051-0.079
	c0.021-0.011,0.104-0.025,0.123-0.019c0.034,0.014,0.123,0.088,0.143,0.116c0.015,0.022,0.018,0.114,0.021,0.142l-0.306,0.045
	C44.925,55.694,44.898,55.569,44.9,55.528z M62.962,47.63c-0.014-0.02-0.024-0.097-0.023-0.12c0.005-0.029,0.036-0.116,0.057-0.133
	c0.012-0.012,0.082-0.019,0.102-0.015c0.047,0.011,0.092,0.049,0.115,0.089c0.021,0.031,0.025,0.162,0.031,0.203
	c-0.041,0.006-0.166,0.032-0.205,0.029C63.021,47.682,62.969,47.644,62.962,47.63z M51.589,80.449
	c-0.039-0.05,0.015-0.091,0.031-0.128c0.01-0.025-0.02-0.105-0.014-0.127c0.014-0.03,0.087-0.11,0.105-0.139
	c0.007,0.049,0.007,0.209,0.037,0.254c0.049,0.075,0.127,0.16,0.14,0.281c-0.048,0.016-0.095,0.01-0.132-0.012
	C51.722,80.556,51.614,80.479,51.589,80.449z M57.791,0.142c0.008-0.05,0.054-0.086,0.092-0.112
	c0.023-0.017,0.127-0.034,0.158-0.029c0.051,0.008,0.09,0.05,0.119,0.09c0.012,0.02,0.014,0.113,0.019,0.141l-0.367,0.053
	C57.807,0.256,57.787,0.167,57.791,0.142z M63.603,68.761c-0.014,0.012-0.083,0.025-0.102,0.02c-0.03-0.012-0.127-0.076-0.149-0.104
	c-0.013-0.018-0.022-0.1-0.017-0.123c0.002-0.015,0.047-0.063,0.063-0.071c0.025-0.013,0.13-0.018,0.158-0.021
	c0.041,0.055,0.119,0.098,0.104,0.168C63.655,68.661,63.621,68.744,63.603,68.761z M52.46,78.946l0.026,0.182
	c-0.042,0.016-0.086,0.006-0.12-0.011c0.041-0.043,0.012-0.108-0.007-0.159c-0.011-0.031-0.058-0.03-0.089-0.049
	c-0.047-0.026-0.096-0.063-0.05-0.11c0.106,0.086,0.342,0.063,0.465-0.028c0.033,0.098,0.043,0.188,0.099,0.256l-0.052,0.068
	c-0.012-0.012-0.063-0.037-0.073-0.056C52.625,78.968,52.539,78.92,52.46,78.946z M29.355,84.17
	c-0.013-0.002-0.062-0.041-0.068-0.058c-0.012-0.029-0.035-0.135-0.024-0.163c0.008-0.023,0.088-0.076,0.113-0.089
	c0.021-0.012,0.101-0.023,0.123-0.02c0.014,0.006,0.065,0.049,0.072,0.063c0.015,0.039,0.022,0.164,0.029,0.205
	c-0.029,0.005-0.125,0.005-0.144,0.021C29.425,84.155,29.394,84.178,29.355,84.17z M39.8,78.636
	c-0.057-0.066-0.102-0.146-0.088-0.24c0.002-0.011,0.039-0.06,0.056-0.067c0.019-0.009,0.083-0.019,0.101-0.015
	c0.051,0.011,0.086,0.053,0.112,0.094c0.017,0.023,0.033,0.126,0.028,0.158c-0.002,0.017-0.037,0.072-0.049,0.076
	C39.91,78.656,39.841,78.685,39.8,78.636z M47.076,79.375c-0.011,0.017-0.05,0.063-0.052,0.08c-0.002,0.04,0.024,0.163,0.032,0.204
	l0.193-0.028c-0.049,0.054-0.035,0.134-0.011,0.195c0.007,0.015,0.078,0.06,0.108,0.081c-0.021,0.041-0.127,0.037-0.188,0.046
	l-0.027-0.181l-0.182,0.025l-0.005-0.438L47.076,79.375z M25.293,73.802c-0.144,0.078-0.269,0.125-0.365,0.031
	c-0.01-0.011-0.014-0.104-0.021-0.136c0.063-0.013,0.144,0.005,0.193-0.062c0.062,0.024,0.205,0.016,0.326-0.002
	C25.377,73.696,25.291,73.803,25.293,73.802z M63.309,66.847c0.005-0.05,0.055-0.084,0.092-0.115
	c0.013-0.01,0.079-0.021,0.097-0.017c0.051,0.011,0.096,0.048,0.119,0.089c0.018,0.029,0.022,0.162,0.028,0.203l-0.308,0.043
	C63.332,67.009,63.305,66.884,63.309,66.847z M41.553,78.638c-0.005,0.031,0.049,0.141,0.061,0.176l-0.196,0.029
	c0.015-0.093,0.031-0.197-0.008-0.312c0.079-0.083,0.123-0.185,0.178-0.282l0.076,0.057c-0.035,0.066-0.013,0.146-0.029,0.211
	C41.626,78.545,41.555,78.61,41.553,78.638z M35.45,60.101c-0.011-0.021-0.021-0.098-0.017-0.121
	c0.008-0.086,0.057-0.209,0.203-0.172c0,0,0.051,0.034,0.058,0.051c0.017,0.05,0.031,0.213,0.037,0.267
	c-0.042,0.005-0.162,0.031-0.203,0.028C35.511,60.151,35.458,60.114,35.45,60.101z M33.235,87.469
	c-0.033,0.021-0.164,0.023-0.207,0.029c-0.004-0.026-0.029-0.118-0.021-0.146c0.025-0.069,0.082-0.139,0.144-0.185
	c0.029-0.021,0.162-0.022,0.203-0.028c0.004,0.028,0.029,0.119,0.021,0.144C33.358,87.325,33.27,87.446,33.235,87.469z
	 M22.795,31.732c-0.01-0.013-0.024-0.09-0.021-0.114c0.011-0.07,0.009-0.254,0.058-0.209l0.215,0.217
	c0.04,0.041,0.07,0.281-0.014,0.246C22.945,31.833,22.853,31.806,22.795,31.732z M26.197,72.666
	c-0.019,0.013-0.097,0.026-0.119,0.022c-0.022-0.006-0.092-0.058-0.104-0.078c-0.012-0.021-0.023-0.103-0.019-0.123
	c0.008-0.023,0.058-0.094,0.08-0.105c0.019-0.013,0.099-0.021,0.121-0.018c0.029,0.003,0.118,0.035,0.134,0.054
	c0.012,0.013,0.022,0.085,0.016,0.103C26.292,72.553,26.226,72.644,26.197,72.666z M46.863,56.396
	c-0.027,0.011-0.113,0.017-0.146,0.021c-0.004-0.165-0.062-0.283-0.102-0.423c0.051-0.051,0.153-0.072,0.186-0.03
	c0.023,0.032,0.021,0.152,0.035,0.187c0.006,0.014,0.063,0.039,0.072,0.053c0.01,0.021,0.022,0.101,0.018,0.122
	C46.921,56.34,46.876,56.388,46.863,56.396z M56.869,73.562c0.043,0.129,0.121,0.252,0.021,0.364
	c-0.012,0.015-0.107,0.015-0.139,0.019c-0.006-0.045-0.053-0.195-0.032-0.228l0.18-0.294c0.013-0.02,0.122-0.018,0.149-0.021
	l0.037,0.246c-0.045,0.024-0.049-0.035-0.07-0.051C56.979,73.565,56.935,73.522,56.869,73.562z M35.34,87.729
	c-0.018,0.019-0.117,0.018-0.147,0.021c-0.002-0.027-0.028-0.119-0.021-0.146c0.025-0.069,0.09-0.125,0.146-0.181
	c0.013-0.011,0.084-0.006,0.099-0.017c0.039-0.036,0.133-0.172,0.164-0.208c0.005,0.057,0.041,0.125-0.006,0.182
	C35.49,87.494,35.437,87.628,35.34,87.729z M53.085,78.938l-0.101-0.277c-0.008-0.018-0.104-0.042-0.129-0.053
	c0.022-0.039,0.054-0.098,0.117-0.07c0.046,0.02,0.058,0.105,0.12,0.141c0.13,0.069,0.27,0.192,0.33,0.379
	c-0.033,0.006-0.125,0.031-0.152,0.023C53.201,79.058,53.11,79.001,53.085,78.938z M63.844,52.448
	c-0.028-0.016-0.044-0.192-0.041-0.241c0-0.015,0.048-0.063,0.063-0.071c0.027-0.013,0.131-0.027,0.161-0.023
	c0.05,0.009,0.085,0.055,0.112,0.094c0.011,0.013,0.023,0.078,0.021,0.097c-0.006,0.019-0.043,0.065-0.055,0.079
	C64.048,52.437,63.94,52.499,63.844,52.448z M44.134,49.3c-0.033-0.011-0.127-0.081-0.143-0.109
	c-0.019-0.025-0.029-0.133-0.025-0.164c0.004-0.018,0.037-0.071,0.051-0.08c0.021-0.012,0.102-0.021,0.124-0.019
	c0.028,0.005,0.12,0.033,0.132,0.054c0.023,0.037,0.036,0.181,0.034,0.226c-0.002,0.017-0.038,0.071-0.052,0.081
	C44.234,49.297,44.154,49.306,44.134,49.3z M56.503,52.594c-0.115,0.025-0.217,0.021-0.318,0.015
	c-0.002-0.123,0.053-0.24,0.125-0.321c0.02-0.021,0.132-0.031,0.164-0.027c0.018,0.001,0.078,0.033,0.088,0.056
	c0.029,0.062-0.031,0.123-0.01,0.205C56.556,52.532,56.516,52.592,56.503,52.594z M39.778,76.511l-0.073-0.055l-0.162,0.152
	c-0.08-0.051-0.142-0.144-0.164-0.248c-0.006-0.031,0.104-0.15,0.131-0.188l0.168,0.227l0.109-0.017
	c0.029,0.103,0.174,0.167,0.313,0.205l-0.372,0.056C39.729,76.599,39.772,76.56,39.778,76.511z M63.826,82.942
	c-0.029,0.013-0.131,0.033-0.16,0.027c-0.049-0.008-0.086-0.053-0.112-0.094c-0.017-0.021-0.033-0.126-0.029-0.157
	c0.009-0.05,0.056-0.086,0.093-0.112c0.024-0.016,0.127-0.032,0.157-0.027c0.05,0.008,0.093,0.053,0.104,0.091
	c0.026,0.063,0.061,0.146,0.015,0.207C63.882,82.892,63.841,82.937,63.826,82.942z M46.361,56.12
	c-0.061,0.058-0.171,0.131-0.287,0.07c0.049-0.094,0.032-0.221-0.037-0.293c0.024-0.025,0.06-0.076,0.073-0.084
	c0.031-0.013,0.138-0.03,0.158-0.021c0.069,0.035,0.176,0.076,0.164,0.141C46.417,56.011,46.405,56.077,46.361,56.12z
	 M50.906,79.233c-0.021-0.019-0.082-0.073-0.104-0.08c-0.023-0.008-0.107,0.008-0.116,0.019c-0.074,0.103-0.197,0.187-0.367,0.21
	c0.05-0.056,0.041-0.142-0.004-0.199c-0.028-0.039,0.209-0.031,0.22-0.055c0.068-0.146,0.316-0.206,0.489-0.154
	C50.988,79.051,50.925,79.13,50.906,79.233z M33.081,31.139c-0.031-0.098-0.142-0.187-0.137-0.321
	c0.004-0.082-0.15-0.074-0.224-0.12c-0.014,0.074-0.082,0.129-0.131,0.201l0.215,0.212c0.027,0.027,0.14,0.038,0.171,0.042
	C32.995,31.155,33.048,31.144,33.081,31.139z M44.671,56.397c-0.028,0.012-0.131,0.019-0.166,0.023
	c-0.047-0.059-0.09-0.123-0.151-0.171c-0.015-0.013-0.03-0.095-0.022-0.118c0.002-0.015,0.047-0.064,0.063-0.07
	c0.042-0.015,0.182-0.037,0.227-0.033c0.049,0.007,0.088,0.054,0.104,0.092c0.027,0.063,0.059,0.146,0.016,0.207
	C44.725,56.342,44.688,56.392,44.671,56.397z M33.602,30.938l0.185-0.026c-0.009-0.055-0.017-0.219-0.039-0.266
	c-0.015-0.03-0.116-0.116-0.146-0.113c-0.112,0.012-0.213,0.069-0.34,0.076c-0.067,0.004-0.139-0.053-0.213-0.032l0.028,0.191
	c0.07-0.06,0.189-0.06,0.301-0.067c0.073-0.006,0.163,0.025,0.205,0.098C33.594,30.82,33.598,30.91,33.602,30.938z M28.396,19.848
	c-0.029,0.012-0.136,0.038-0.158,0.027c-0.097-0.043-0.181-0.145-0.174-0.297c0-0.017,0.028-0.104,0.047-0.122
	c0.012-0.012,0.082-0.014,0.086-0.013c0.131,0.062,0.256,0.145,0.262,0.339C28.458,19.795,28.412,19.842,28.396,19.848z
	 M25.037,66.608l-0.408,0.059c-0.029,0.004-0.125-0.094-0.16-0.102c-0.026-0.008-0.114,0.017-0.144,0.021l-0.026-0.185
	c0.045-0.006,0.183-0.035,0.209-0.029c0.139,0.025,0.267,0.05,0.356,0.132c0.043,0.038,0.14,0,0.205,0.039
	c0.043,0.026,0.094,0.063,0.045,0.114C25.102,66.647,25.053,66.606,25.037,66.608z M48.47,79.499c0.05,0.078,0.143,0.12,0.222,0.18
	c0.067-0.062,0.05-0.195,0.146-0.215c0.018-0.003,0.063,0.044,0.076,0.057c-0.041,0.168-0.086,0.336-0.113,0.527
	c-0.098,0.023-0.068-0.127-0.081-0.199c-0.089,0.025-0.156,0.086-0.245,0.075c0.008-0.013,0.045-0.061,0.047-0.077
	c0.006-0.02-0.016-0.082-0.012-0.104c0.002-0.016,0.041-0.064,0.049-0.079c-0.027-0.013-0.12-0.036-0.129-0.054
	c-0.049-0.103-0.002-0.198,0.021-0.275C48.453,79.367,48.457,79.474,48.47,79.499z M10.945,86.222
	c-0.023,0.014-0.125,0.032-0.155,0.028c-0.049-0.009-0.086-0.054-0.113-0.094c-0.014-0.023-0.039-0.13-0.029-0.161
	c0.022-0.069,0.088-0.127,0.146-0.178c0.01-0.014,0.08-0.026,0.096-0.021c0.035,0.012,0.131,0.075,0.152,0.105
	c0.012,0.016,0.019,0.097,0.016,0.111C11.04,86.097,11.021,86.183,10.945,86.222z M26.472,68.774
	c-0.022,0.018-0.127,0.033-0.158,0.028c-0.049-0.008-0.086-0.053-0.114-0.092c-0.014-0.024-0.039-0.131-0.028-0.163
	c0.023-0.068,0.088-0.125,0.146-0.18c0.01-0.012,0.082-0.025,0.101-0.018c0.069,0.025,0.127,0.088,0.178,0.145
	c0.012,0.012,0.027,0.081,0.018,0.098C26.6,68.634,26.509,68.75,26.472,68.774z M20.384,36.634c-0.133-0.081-0.256-0.179-0.41-0.26
	c-0.013-0.007-0.097,0.003-0.111,0.016c-0.041,0.028-0.136,0.143-0.166,0.177c0.049,0.069,0.086,0.155,0.148,0.188
	c0.032,0.017,0.08,0.007,0.092-0.033c0.008-0.026,0.036-0.117,0.056-0.131c0.019-0.016,0.114-0.017,0.144-0.021l0.026,0.183
	c0.029-0.004,0.115-0.025,0.142-0.021c0.019,0.003,0.066,0.059,0.091,0.058C20.429,36.788,20.419,36.654,20.384,36.634z
	 M8.847,75.661c-0.071,0.023-0.158-0.01-0.182-0.069c-0.019-0.044,0.031-0.116,0.08-0.123c0.238-0.034,0.453-0.028,0.676-0.045
	c0.168-0.011,0.454-0.075,0.579-0.042C9.618,75.494,9.198,75.547,8.847,75.661z M41.902,58.11c-0.057,0.018-0.129-0.055-0.17-0.109
	c-0.046-0.07-0.037-0.172-0.01-0.26c0.006-0.021,0.078-0.078,0.102-0.09c0.021-0.01,0.104-0.024,0.123-0.019
	c0.034,0.013,0.129,0.089,0.135,0.108c0.024,0.113,0.064,0.229-0.01,0.285C42.042,58.048,41.951,58.095,41.902,58.11z
	 M17.281,18.885c-0.006-0.01-0.037-0.134-0.02-0.145c0.065-0.06,0.154-0.106,0.252-0.13c0.057-0.015,0.13,0.075,0.176,0.137
	c0.025,0.032,0.043,0.173,0.041,0.218c-0.002,0.017-0.039,0.075-0.049,0.079C17.491,19.093,17.378,18.997,17.281,18.885z
	 M22.297,51.989c-0.021-0.032-0.047-0.176-0.039-0.217c0.006-0.035,0.078-0.139,0.1-0.146c0.14-0.049,0.26,0.009,0.331,0.087
	l0.045,0.323l-0.328,0.049C22.364,52.089,22.321,52.031,22.297,51.989z M50.912,84.661c-0.01,0.04,0.03,0.18,0.025,0.224
	c-0.006,0.048-0.053,0.085-0.096,0.108c-0.033,0.021-0.18,0.051-0.223,0.041c-0.07-0.02-0.125-0.09-0.179-0.146
	c-0.013-0.012-0.026-0.082-0.021-0.102c0.025-0.069,0.088-0.129,0.147-0.178c0.021-0.018,0.147-0.015,0.156-0.029l0.106-0.266
	c0.004-0.011,0.084-0.02,0.104-0.016c0.02,0.003,0.072,0.036,0.082,0.053c0.011,0.019,0.021,0.102,0.016,0.121
	C51.018,84.515,50.921,84.62,50.912,84.661z M49.953,56.701l-0.045-0.31c-0.066-0.137-0.133-0.271-0.188-0.437
	c-0.091-0.062-0.192-0.136-0.269-0.246c0.071,0.287,0.061,0.632,0.125,0.983c0.039,0,0.151-0.002,0.196,0.006
	C49.828,56.708,49.892,56.717,49.953,56.701z M48.652,50.126l-0.385,0.057c-0.048-0.143-0.094-0.276-0.118-0.442
	c-0.011-0.063,0.077-0.167,0.134-0.175c0.104-0.012,0.191,0.022,0.288,0.059c0.06,0.021,0.099,0.126,0.138,0.205
	c0.024,0.052,0.017,0.109-0.002,0.164C48.699,50.021,48.667,50.125,48.652,50.126z M29.195,70.269l-0.286,0.039
	c-0.051,0.01-0.094-0.123-0.128-0.195c-0.013-0.028-0.047-0.153-0.031-0.182c0.056-0.089,0.129-0.168,0.195-0.254
	c0.014-0.018,0.129-0.018,0.164-0.021c0.053,0.078,0.115,0.154,0.188,0.203c0.027,0.021,0.049,0.183,0.039,0.224
	C29.325,70.123,29.228,70.263,29.195,70.269z M45.969,79.424c0.053,0.152,0.006,0.267-0.073,0.337
	c-0.02,0.016-0.139,0.008-0.15,0.025c-0.078,0.074-0.174-0.033-0.213-0.025c-0.136,0.026-0.255,0.098-0.386,0.117l-0.022-0.13
	c0.145-0.034,0.227-0.172,0.342-0.226c0.045,0.084,0.057,0.002,0.057,0.002c0.07-0.082,0.122-0.258,0.229-0.217
	c0.174-0.029,0.258,0.021,0.439-0.024c0.012,0.043-0.029,0.077-0.063,0.098C46.089,79.401,45.958,79.396,45.969,79.424z
	 M31.248,64.015c0.07-0.146,0.133-0.3,0.22-0.451c0.014-0.029-0.029-0.201-0.037-0.261L31.2,63.469l-0.213-0.221
	c-0.029-0.065-0.047-0.142-0.121-0.168c0.004,0.022,0.007,0.101,0.018,0.118c0.019,0.035,0.065,0.037,0.103,0.05
	c-0.019,0.101-0.058,0.213-0.027,0.333c0.01,0.043-0.045,0.1-0.096,0.121c-0.062-0.04-0.06-0.137-0.011-0.186
	c-0.045,0.008-0.136,0.012-0.162,0.022c-0.015,0.008-0.06,0.06-0.058,0.067c0,0.057-0.011,0.137,0.036,0.143
	c0.071,0.007,0.146,0.011,0.194-0.048c0.022,0.052,0.026,0.127,0.074,0.134c0.067,0.012,0.143,0.012,0.19-0.045
	C31.151,63.876,31.196,63.954,31.248,64.015z M51.509,78.219c0.037,0.13,0.035,0.253,0.013,0.361
	c0.039-0.007,0.13-0.032,0.153-0.022c0.052,0.019,0.181,0.137,0.23,0.153c0.025,0.009,0.116-0.017,0.143-0.021l0.039,0.267
	c-0.034,0.024-0.137,0.101-0.168,0.128c-0.037,0.037-0.065,0.084-0.074,0.139c-0.031-0.048-0.126-0.186-0.161-0.238
	c-0.015-0.02-0.185-0.065-0.052-0.12c0.039-0.017,0.078-0.068,0.046-0.119c-0.036,0.004-0.161,0.036-0.201,0.026
	c-0.032-0.006-0.133-0.073-0.149-0.103c-0.017-0.028-0.021-0.147-0.027-0.187c-0.012,0.016-0.045,0.063-0.063,0.074
	c-0.017,0.01-0.08,0.012-0.113,0.016c-0.012,0.035-0.072,0.104-0.084,0.007c0-0.007,0.033-0.056,0.049-0.063L51.509,78.219z
	 M59.746,75.172c-0.091,0.103-0.248,0.126-0.367,0.052c-0.07-0.049-0.111-0.138-0.15-0.22c-0.016-0.028-0.05-0.157-0.032-0.185
	c0.056-0.086,0.132-0.163,0.196-0.25c0.011-0.014,0.095-0.021,0.119-0.02c0.045,0.006,0.197,0.028,0.232,0.066
	c0.094,0.098,0.127,0.25,0.08,0.441C59.826,75.052,59.768,75.146,59.746,75.172z M59.884,63.791
	c-0.012,0.017-0.114,0.021-0.143,0.021c-0.137-0.008-0.357,0.023-0.467-0.024c0.059-0.136,0.1-0.249,0.092-0.39l0.26-0.258
	c0.019-0.018,0.131-0.027,0.162-0.022c0.018,0.003,0.07,0.036,0.078,0.049c0.072,0.12,0.161,0.231,0.219,0.356L59.884,63.791z
	 M31.824,62.67c-0.037-0.058-0.099-0.122-0.168-0.146c-0.029-0.01-0.119,0.019-0.164,0.022c0.061,0.033,0.086,0.125,0.041,0.183
	c-0.011,0.014-0.04,0.057-0.052,0.07c-0.049-0.045-0.109-0.089-0.174-0.087c-0.063,0.005-0.123,0.079-0.201,0.081
	c-0.006-0.045-0.039-0.172-0.031-0.208c0.006-0.021,0.09-0.069,0.113-0.089c-0.026-0.023-0.123-0.085-0.138-0.111
	c-0.049-0.082-0.08-0.175-0.06-0.271c0.01-0.05,0.078-0.072,0.127-0.106c-0.041-0.035-0.082-0.066-0.142-0.074
	c-0.056,0.104-0.154,0.191-0.274,0.254c0.033,0.025,0.129,0.088,0.145,0.119c0.017,0.024,0.027,0.131,0.022,0.164
	c0,0.016-0.041,0.063-0.049,0.079c0.053,0.009,0.094,0.041,0.135,0.076c-0.015,0.067-0.055,0.144-0.029,0.2
	c0.025,0.046,0.063,0.09,0.113,0.098c0.027,0.006,0.115-0.017,0.15-0.021c-0.011,0.063-0.07,0.117-0.124,0.19
	c0.1,0.021,0.249-0.028,0.322-0.065c0.112-0.055,0.231-0.116,0.373-0.146c0.019-0.005,0.051-0.061,0.063-0.071
	C31.877,62.772,31.849,62.708,31.824,62.67z M65.222,64.338L64.099,64.5c-0.028-0.074,0.018-0.162,0.079-0.19
	c0.169-0.069,0.313-0.16,0.528-0.211c0.056-0.131,0.213-0.274,0.406-0.256c0.112,0.012,0.227,0.021,0.282,0.096
	c0.039,0.052,0.065,0.129,0.024,0.186C65.361,64.202,65.277,64.256,65.222,64.338z M35.622,82.252l-0.624,0.672
	c-0.113,0.103-0.211,0.202-0.369,0.265c-0.053,0.021-0.183-0.033-0.215,0.014l-0.422,0.563c-0.027,0.033-0.134-0.003-0.177,0.055
	c-0.014-0.012-0.069-0.043-0.069-0.053c-0.006-0.093,0.106-0.125,0.16-0.18l0.384-0.373l0.213-0.275
	c0.125-0.066,0.195-0.188,0.262-0.285c0.027-0.043,0.158-0.109,0.201-0.127c0.033-0.012,0.164-0.008,0.183-0.031
	c0.086-0.116,0.17-0.239,0.308-0.322c0.032-0.02,0.145-0.045,0.18-0.057C35.634,82.142,35.642,82.231,35.622,82.252z M31.633,63.824
	c-0.035-0.013-0.072-0.002-0.092,0.032c-0.042,0.076-0.055,0.172-0.051,0.273c0.002,0.028-0.066,0.098-0.086,0.13
	c-0.041-0.021-0.039-0.127-0.051-0.208c-0.09,0.039-0.029,0.217-0.019,0.293c-0.066,0.051-0.174,0.103-0.158,0.174
	c0.023,0.103,0.072,0.193,0.158,0.252c0.085-0.113,0.217-0.201,0.344-0.299c0.103,0.063,0.248,0.108,0.371,0.188
	c0.008,0.007,0.078-0.019,0.099-0.007c0.07,0.033,0.146,0.107,0.24,0.088c-0.008-0.059-0.045-0.219-0.039-0.271
	c0.002-0.023,0.072-0.093,0.072-0.111c-0.006-0.196-0.127-0.28-0.269-0.347c-0.104-0.003-0.19,0.095-0.289,0.124l-0.029-0.199
	C31.75,63.925,31.697,63.851,31.633,63.824z M48.312,79.26c0.012-0.015,0.04-0.063,0.051-0.067c0.032-0.014,0.076-0.021,0.1,0.021
	c0.025-0.073,0.047-0.147,0.082-0.208c0.021-0.031-0.004-0.07-0.033-0.105c-0.024-0.027,0.021-0.181-0.08-0.131
	c0.005,0.035,0.027,0.125,0.021,0.149c-0.013,0.04-0.104,0.147-0.133,0.188c-0.041-0.067-0.078-0.156-0.156-0.152
	s-0.138-0.045-0.188-0.023c-0.066,0.029-0.055,0.114-0.012,0.125c-0.045,0.006-0.152,0.029-0.146-0.004
	c0.025-0.092,0.012-0.271-0.053-0.406c-0.029,0.113-0.047,0.211-0.135,0.246c-0.021-0.074-0.055-0.178-0.135-0.158
	c-0.05,0.016-0.084,0.08-0.021,0.11c0.065,0.031-0.007,0.056-0.002,0.054c-0.052,0.056-0.093,0.098-0.065,0.149l0.143-0.021
	c0.019-0.053,0.051-0.096,0.082-0.137c0.041,0.088,0.099,0.18,0.111,0.297c-0.021,0.004-0.082,0.018-0.094,0.014
	c-0.066-0.021-0.124-0.057-0.179-0.106c-0.065,0.066-0.06,0.185-0.151,0.224l-0.025-0.19c-0.021,0.002-0.084,0.002-0.094,0.013
	l-0.252,0.225c-0.07-0.006-0.115-0.065-0.169-0.104l-0.044,0.136c-0.016-0.023-0.066-0.09-0.081-0.113
	c-0.022-0.037-0.067-0.029-0.093-0.01c-0.057,0.047-0.096,0.137-0.167,0.182c-0.03-0.219,0.021-0.382,0.051-0.549
	c0.015-0.072-0.075-0.146-0.132-0.141l-0.286,0.023c0.015,0.135,0.015,0.252,0.078,0.32l-0.201,0.029
	c0.063-0.115,0.003-0.256-0.1-0.293c-0.019-0.005-0.101,0.064-0.128,0.074c-0.034,0.014-0.15,0.021-0.154,0.021
	c-0.182,0.152-0.354,0.283-0.48,0.463c0.027,0.06,0.069,0.134,0.064,0.227c-0.162,0.025-0.293,0.005-0.457-0.006
	c0.119-0.081,0.17-0.241,0.203-0.373c-0.037-0.006-0.09-0.034-0.107-0.077c-0.016-0.042,0.029-0.089,0.063-0.128
	c0.017,0.021,0.065,0.088,0.08,0.111c0.022,0.033,0.065,0.029,0.09,0.012c0.101-0.077,0.233-0.104,0.317-0.188
	c0.016-0.018-0.004-0.11-0.016-0.129c-0.01-0.018-0.064-0.051-0.078-0.05l-0.328,0.011c-0.035,0-0.022,0.097-0.067,0.127
	c-0.138,0.094-0.302,0.226-0.367,0.403c-0.017,0.043-0.052,0.095-0.108,0.08c-0.006-0.028-0.008-0.118-0.021-0.146
	c-0.019-0.031-0.076-0.047-0.08-0.09c0.032-0.004,0.138-0.002,0.153-0.021c0.103-0.122,0.15-0.283,0.205-0.438
	c-0.021,0.004-0.133,0.027-0.172,0.025c-0.076-0.007-0.131-0.111-0.209-0.125c-0.094-0.015-0.188-0.07-0.234-0.156
	c-0.018,0.035-0.051,0.053-0.082,0.075c-0.021-0.03-0.037-0.071-0.075-0.075c-0.093-0.017-0.2,0.08-0.243,0.053
	c-0.143-0.096-0.295-0.168-0.389-0.311l-0.042,0.128c-0.026-0.021-0.146-0.075-0.154-0.114c-0.021-0.08-0.114-0.168-0.227-0.139
	c-0.009-0.019-0.034-0.051-0.041-0.063c-0.022-0.036-0.07-0.031-0.099-0.014c-0.017,0.008-0.063,0.079-0.076,0.101
	c-0.006-0.05-0.012-0.208-0.034-0.249c-0.03-0.049-0.146-0.021-0.188-0.085c-0.104-0.15-0.307-0.269-0.578-0.23l-0.021-0.155
	c-0.109-0.024-0.189-0.093-0.275-0.151c-0.035-0.022-0.082-0.029-0.125-0.015l0.027,0.183l0.176-0.025
	c0.006,0.063,0.074,0.212-0.02,0.183c-0.166-0.051-0.354-0.252-0.237-0.457c-0.163,0.008-0.271,0.061-0.392,0.074
	c-0.057,0.01-0.104-0.127-0.155-0.185l0.266-0.039c-0.09-0.146-0.27-0.177-0.346-0.323l-0.524-0.396
	c-0.021-0.018-0.125-0.021-0.146-0.051c-0.151-0.211-0.359-0.385-0.539-0.571c-0.019-0.022-0.177,0.024-0.214,0.03
	c-0.008-0.039-0.012-0.172-0.032-0.205c-0.021-0.036-0.149-0.104-0.176-0.141l-0.243-0.351c-0.081-0.033-0.165-0.084-0.23-0.147
	c-0.023-0.021-0.063-0.111-0.086-0.132c-0.021-0.018-0.107-0.038-0.133-0.053c-0.054-0.029-0.074-0.099-0.115-0.14
	c-0.207-0.217-0.459-0.367-0.638-0.599l-0.164,0.022c-0.018-0.036-0.06-0.158-0.088-0.176c-0.189-0.119-0.343-0.266-0.601-0.396
	c-0.073-0.086-0.193-0.208-0.377-0.256c-0.045-0.012-0.062-0.092-0.107-0.13c-0.111-0.103-0.277-0.16-0.545-0.112l0.17-0.115
	c-0.054-0.061-0.16-0.053-0.195-0.102c-0.164-0.236-0.433-0.359-0.697-0.467c-0.133-0.108-0.322-0.149-0.456-0.275
	c-0.049-0.1-0.137-0.184-0.275-0.225c-0.205-0.248-0.453-0.496-0.795-0.697c-0.135-0.161-0.304-0.373-0.509-0.543
	c-0.041-0.036-0.123-0.184-0.16-0.225c-0.024-0.023-0.119-0.08-0.142-0.104c-0.037-0.042-0.121-0.187-0.157-0.228
	c-0.022-0.024-0.121-0.078-0.142-0.104l-0.394-0.567l-0.507-0.494c-0.039-0.039-0.119-0.196-0.157-0.224
	c-0.099-0.063-0.173-0.173-0.203-0.301c-0.004-0.028-0.091-0.074-0.105-0.097c-0.354-0.473-0.665-1.006-1-1.51l-0.229-0.688
	c-0.138-0.208-0.273-0.443-0.355-0.746c-0.209-0.312-0.357-0.704-0.529-1.092c-0.01-0.023-0.02-0.162-0.033-0.206
	c-0.088-0.319-0.201-0.604-0.318-0.893l-0.162-0.271l-0.158-0.457c-0.073-0.292-0.213-0.499-0.295-0.772l-0.173-0.852
	c-0.032-0.1-0.004-0.225-0.067-0.295c-0.041-0.048-0.051-0.165-0.082-0.239c-0.097-0.231-0.162-0.517-0.244-0.786l-0.101-0.471
	c-0.1-0.137-0.188-0.305-0.246-0.482c-0.154-0.479-0.299-0.955-0.416-1.461c-0.009-0.035-0.017-0.115-0.021-0.145
	c-0.045-0.27-0.133-0.482-0.228-0.704c-0.006-0.017-0.078-0.063-0.097-0.085c-0.19-0.23-0.311-0.547-0.463-0.784
	c-0.269-0.198-0.511-0.381-0.759-0.552c-0.107-0.074-0.174-0.199-0.297-0.264c-0.093-0.17-0.221-0.31-0.351-0.439
	c-0.078-0.08-0.156-0.18-0.187-0.314c-0.107-0.063-0.193-0.162-0.234-0.279l-0.423-1.633c-0.008-0.032-0.151-0.104-0.174-0.141
	l-0.268-0.4c-0.295-0.961-0.529-2.01-0.732-3.03l-0.195-0.299l-0.059-0.43c-0.004-0.145,0.003-0.292,0.031-0.438l-0.121-0.471
	c-0.015-0.053,0.033-0.097,0.029-0.123c-0.024-0.178-0.093-0.29-0.158-0.431c-0.006-0.266,0-0.54,0.014-0.839
	c-0.112-0.153-0.223-0.38-0.305-0.6c-0.033-0.086-0.107-0.156-0.095-0.245c0.004-0.045,0.063-0.178,0.058-0.219l-0.099-0.671
	c-0.009-0.076-0.164-0.062-0.208-0.119c-0.086-0.114-0.174-0.252-0.299-0.341c-0.061-0.374-0.181-0.69-0.328-0.97
	c-0.026-0.347-0.043-0.69-0.014-1l-0.103-0.275l-0.219-1.096l-0.226-0.698l-0.193-0.912c-0.099-0.329-0.246-0.632-0.386-0.925
	l-0.051-0.368L19.205,36.2l-0.051-0.368c-0.008-0.052,0.004-0.224,0.022-0.274c0.019-0.049,0.115-0.193,0.156-0.221l0.306-0.2
	l0.449-0.065c0.041-0.004,0.203,0.029,0.234,0.07c0.057,0.072,0.117,0.168,0.197,0.215c0.151,0.322,0.279,0.667,0.401,1.017
	c0.012,0.038,0.01,0.169,0.033,0.21c0.133,0.253,0.244,0.543,0.31,0.888c0.129,0.289,0.292,0.527,0.385,0.861
	c0.383,0.67,0.702,1.44,0.974,2.261c0.211,0.375,0.383,0.805,0.478,1.326c0.004,0.023,0.088,0.072,0.104,0.093
	c0.203,0.266,0.359,0.606,0.48,0.975c0.049,0.386,0.141,0.83,0.162,1.189c0.013,0.204-0.004,0.336,0.02,0.534l0.62,0.809l0.224,0.64
	c0.107,0.323,0.213,0.6,0.271,0.997c0.116,0.221,0.217,0.497,0.295,0.78l0.055,0.368c0.211,0.354,0.353,0.766,0.547,1.096
	c0.203,0.349,0.334,0.752,0.578,1.047c0.212,0.104,0.393,0.268,0.591,0.418c0.014,0.009,0.053,0.089,0.076,0.104
	c0.047,0.033,0.108,0.127,0.146,0.077c0.208-0.266,0.488-0.456,0.784-0.594c0.119-0.124,0.157-0.259,0.196-0.396
	c0.021-0.078,0.142-0.117,0.228-0.145c0.067-0.02,0.164,0.002,0.224,0.051l0.283,0.219c0.028,0.111,0.052,0.223,0.102,0.33
	c0.029,0.063-0.026,0.163-0.062,0.252c-0.021,0.047-0.139,0.065-0.146,0.133c-0.042,0.357-0.208,0.662-0.417,0.92
	c0.01,0.162,0.035,0.324,0.013,0.479c-0.009,0.064,0.059,0.164,0.127,0.207c0.094,0.063,0.158,0.18,0.186,0.307
	c0.183,0.14,0.329,0.308,0.439,0.479c0.054,0.191,0.147,0.313,0.252,0.388c0.082,0.335,0.221,0.601,0.321,0.896l0.166,0.703
	c0.14,0.162,0.306,0.344,0.396,0.615c0.063,0.194,0.094,0.418,0.155,0.625l0.203,0.555l0.045,0.308l0.165,0.269
	c0.021,0.039,0.045,0.18,0.063,0.22c0.137,0.301,0.289,0.593,0.363,0.973c0.006,0.028,0.115,0.099,0.119,0.11
	c0.271,0.631,0.447,1.337,0.691,1.98c0.043,0.118,0.115,0.223,0.215,0.284c0.099,0.334,0.216,0.632,0.328,0.954l0.159,0.271
	c0.055,0.225,0.157,0.375,0.223,0.601c0.004,0.014,0.083,0.06,0.107,0.093c0.129,0.194,0.24,0.436,0.313,0.715
	c0.008,0.023,0.086,0.071,0.107,0.092c0.199,0.224,0.371,0.471,0.594,0.668l0.538,0.672c0.037,0.046,0.119,0.035,0.162,0.066
	l0.496,0.371c0.021,0.018,0.103,0.038,0.131,0.043c0.214,0.036,0.413,0.081,0.697,0.031c0.037-0.007,0.197,0.074,0.222,0.055
	c0.072-0.05,0.164-0.058,0.269-0.064c0.185-0.141,0.361-0.29,0.478-0.477c0.008-0.014,0.085-0.008,0.102-0.019
	c0.031-0.021,0.101-0.148,0.131-0.148l0.545-0.004c0.072-0.127,0.142-0.257,0.254-0.354c0.017-0.012,0.101-0.01,0.121-0.02
	c0.046-0.021,0.067-0.074,0.079-0.124c0.011-0.06-0.031-0.17,0.005-0.213c0.028,0.062,0.069,0.104,0.114,0.106
	c0.052,0.005,0.085-0.059,0.104-0.11c0.008-0.015-0.015-0.081-0.011-0.091c0.073-0.127,0.161-0.235,0.272-0.335
	c-0.076-0.045-0.144-0.11-0.166-0.188c0.103-0.063,0.188-0.15,0.222-0.259l-0.142-0.106c0.047-0.117,0.043-0.274,0.062-0.436
	c-0.058-0.093-0.123-0.225-0.12-0.388c0-0.03-0.132-0.099-0.141-0.128l-0.129-0.465c-0.012-0.028-0.125-0.094-0.145-0.125
	c-0.013-0.019-0.002-0.105-0.021-0.129c-0.104-0.148-0.205-0.316-0.262-0.539L37.9,61.252c-0.018-0.043-0.008-0.086,0.014-0.128
	c0.03,0.021,0.057,0.064,0.098,0.054c-0.008-0.058-0.016-0.223-0.037-0.27c-0.016-0.032-0.123-0.097-0.143-0.126
	c-0.011-0.016-0.002-0.09-0.017-0.106c-0.04-0.051-0.116-0.075-0.147-0.143c0.056-0.022,0.11-0.083,0.101-0.118
	c-0.097-0.271-0.17-0.573-0.31-0.796c-0.127-0.203-0.269-0.386-0.33-0.653c-0.008-0.033-0.133-0.1-0.144-0.131
	c-0.035-0.129-0.104-0.23-0.167-0.318c-0.024-0.225-0.127-0.348-0.246-0.437c-0.037-0.027-0.052-0.211-0.074-0.259l-0.581-1.17
	c0.01-0.15-0.056-0.34-0.179-0.412c0.002-0.012,0.035-0.057,0.024-0.082c-0.254-0.713-0.387-1.598-0.629-2.395l0.011-0.339
	c-0.022-0.421-0.134-0.81-0.185-1.331c-0.049-0.06-0.041-0.27,0.001-0.404c-0.078-0.186-0.135-0.369-0.205-0.582
	c-0.012-0.03,0.042-0.198,0.021-0.248c-0.248-0.651-0.377-1.476-0.572-2.226l-0.187-0.416c-0.017-0.223-0.082-0.394-0.151-0.582
	c-0.004-0.074,0.031-0.169-0.006-0.268c-0.09-0.234-0.203-0.453-0.342-0.696c0.004,0.007-0.103-0.063-0.113-0.097
	c-0.032-0.129-0.104-0.232-0.168-0.319l-0.156-1.093c-0.01-0.054-0.072-0.21-0.101-0.256c-0.021-0.031-0.123-0.096-0.144-0.126
	c-0.01-0.016-0.002-0.096-0.016-0.108l-0.32-0.243c-0.084-0.111-0.146-0.261-0.211-0.411L32.31,43.7
	c-0.058-0.261-0.096-0.576-0.035-0.836c-0.033-0.057-0.078-0.166-0.076-0.303c0-0.045-0.101-0.157-0.119-0.198
	c-0.01-0.021-0.024-0.103-0.018-0.124c0.147-0.405,0.224-0.872,0.268-1.354c-0.051-0.54-0.018-1.017-0.028-1.541l-0.097-0.256
	l0.029-0.443c0.014-0.216-0.025-0.462-0.136-0.641c-0.086-0.051-0.149-0.157-0.215-0.283l-0.051-0.358
	c0.054-0.088,0.136-0.162,0.202-0.248c0.018-0.026,0.18-0.015,0.217-0.038c0.041-0.027,0.14-0.166,0.164-0.212
	c0.103-0.209,0.193-0.44,0.247-0.682l0.024-0.292c-0.065-0.173-0.123-0.348-0.201-0.516c0.043-0.174,0.061-0.343,0.045-0.55
	l-0.254-1.879c-0.095-0.094-0.185-0.163-0.271-0.184c-0.147-0.248-0.299-0.514-0.382-0.791l-0.168-1.15
	c0.058-0.238,0.142-0.469,0.25-0.676l0.217-0.284c0.021-0.026,0.189-0.01,0.226-0.032c0.045-0.027,0.136-0.207,0.179-0.212
	l0.449-0.066c0.054-0.007,0.226,0.006,0.25,0.021c0.17,0.095,0.336,0.15,0.474,0.242c0.102,0.181,0.26,0.289,0.353,0.457
	l0.244,0.635c0.014,0.038,0.01,0.169,0.031,0.209l0.351,0.696l0.356,1.202l0.181,0.788l0.183,0.411
	c0.014,0.034,0.033,0.149,0.029,0.186c-0.029,0.293-0.119,0.564-0.154,0.837c-0.039,0.293-0.082,0.563-0.209,0.783
	c-0.132,0.418-0.162,0.899-0.316,1.294c-0.017,0.041-0.14,0.155-0.133,0.19c0.024,0.126,0.08,0.241,0.119,0.35l0.017,0.565
	l0.137,0.941l0.195,0.434c0.043,0.624,0,1.209,0.002,1.816c0.068,0.202,0.099,0.433,0.164,0.639
	c0.074,0.233,0.199,0.424,0.327,0.592c0.032,0.121,0.051,0.231,0.102,0.323c0.019,0.029-0.033,0.176-0.024,0.22
	c0.088,0.498,0.101,0.952,0.147,1.417c0.015,0.127,0.015,0.271,0.08,0.403c-0.026,0.13-0.028,0.335-0.006,0.543
	c0.006,0.043,0.197,0.138,0.209,0.184c0.035,0.128,0.115,0.229,0.16,0.333c0.168,0.385,0.292,0.802,0.443,1.206
	c0.043,0.117,0.135,0.203,0.19,0.309l0.402,0.819l0.051,0.348l0.162,0.269l0.076,0.531l0.179,0.603
	c0.02,0.076,0.025,0.186,0.048,0.246c0.096,0.251,0.118,0.582,0.215,0.86c0.172,0.481,0.343,0.979,0.466,1.563l0.205,0.555
	c0.094,0.33,0.202,0.654,0.275,0.98c0.021-0.002,0.111-0.025,0.135-0.018c0.051,0.018,0.186,0.117,0.222,0.154
	c0.03,0.031,0.104,0.15,0.12,0.19c0.014,0.034,0.012,0.155,0.027,0.187c0.019,0.03,0.129,0.094,0.144,0.125
	c0.021,0.037,0.007,0.205,0.032,0.225l0.355,0.285l0.129,0.847l0.108,0.37c0.085,0.184,0.247,0.293,0.351,0.471
	c0.035,0.059,0.117,0.006,0.149-0.037c0.023,0.131-0.005,0.234-0.021,0.346c0.049,0.117,0.132,0.232,0.22,0.322
	c0.084,0.088,0.188,0.172,0.3,0.221c0.038-0.059,0.079-0.11,0.135-0.143c0.072-0.043,0.146,0.002,0.225,0
	c0.017-0.078,0.055-0.005,0.057,0.021c0,0.009-0.029,0.056-0.046,0.066c-0.062,0.045-0.17,0.139-0.123,0.197
	c0.125,0.157,0.259,0.303,0.39,0.446c0.182,0.008,0.354,0.026,0.584-0.019c0.16,0.028,0.326,0.061,0.522,0.049
	c0.202,0.104,0.335,0.291,0.507,0.433c0.064,0.092,0.145,0.169,0.256,0.201c0.032,0.01,0.055-0.109,0.103-0.142l0.036,0.256
	l0.123-0.019c-0.01-0.087-0.045-0.244-0.037-0.312c0.125,0.021,0.113,0.151,0.087,0.211c0.022-0.004,0.1-0.006,0.12-0.018
	c0.022-0.014,0.066-0.093,0.084-0.103c0.084-0.046,0.175-0.073,0.271-0.068c0.022,0.002,0.112,0.029,0.13,0.048
	c0.01,0.014,0.004,0.086,0.016,0.104c0.008,0.016,0.057,0.051,0.07,0.063c-0.048,0.022-0.093,0.064-0.096,0.109
	c-0.002,0.051,0.057,0.096,0.111,0.107c0.044,0.009,0.207-0.031,0.26-0.039c-0.004-0.028-0.035-0.131-0.021-0.149
	c0.072-0.087,0.147-0.187,0.178-0.337c-0.012-0.094-0.08-0.199-0.088-0.337l0.19-0.027c-0.006-0.108-0.129-0.157-0.177-0.226
	l0.195-0.027c-0.027-0.183-0.043-0.393-0.103-0.604c0.021-0.11-0.013-0.344-0.002-0.561c-0.042-0.113-0.099-0.23-0.118-0.391
	c0.067-0.061,0.154-0.104,0.25-0.127c0.055-0.014,0.15,0.068,0.197,0.143c0.025,0.039,0.076,0.034,0.122,0.025
	c0.116-0.021,0.228,0.004,0.347-0.024l0.282-0.173c0.229,0.021,0.49,0.021,0.729,0.053c0.09,0.01,0.097-0.107,0.162-0.104
	c0.051,0.005,0.086,0.059,0.127,0.098c0.058,0.057,0.172,0.114,0.252,0.092l0.297-0.109l0.266-0.352
	c0.023-0.031,0.064-0.174,0.061-0.216l-0.024-0.413c0.017-0.203-0.041-0.4-0.149-0.566c-0.005-0.082,0.041-0.176,0.063-0.27
	c-0.074-0.14-0.165-0.262-0.25-0.395c-0.04-0.245-0.021-0.461-0.036-0.688c-0.015-0.209-0.125-0.331-0.238-0.42
	c-0.028-0.021-0.018-0.185-0.038-0.221c-0.021-0.035-0.143-0.112-0.188-0.147c0.021-0.107,0.05-0.24,0.048-0.38
	c-0.044-0.092-0.08-0.198-0.11-0.31c-0.01-0.033-0.121-0.098-0.141-0.129c-0.018-0.025-0.006-0.142-0.023-0.168
	c-0.041-0.062-0.121-0.097-0.19-0.131c-0.013-0.008-0.101,0.024-0.109,0.01c-0.174-0.217-0.288-0.521-0.454-0.785
	c-0.011-0.018-0.033-0.135-0.025-0.166c0.007-0.033,0.078-0.128,0.104-0.15c0.076-0.074,0.193-0.102,0.328-0.177
	c0.076,0.001,0.185,0.06,0.283,0.091l0.325,0.24c0.102,0.146,0.19,0.318,0.334,0.434c0.007,0.006,0.009,0.076,0.014,0.08
	c0.125,0.123,0.229,0.254,0.37,0.411c0.224,0.142,0.452,0.341,0.671,0.563c0.165,0.164,0.248,0.424,0.348,0.714
	c0.094,0.118,0.202,0.338,0.258,0.603l0.207-0.289c0.022-0.033-0.019-0.219-0.037-0.269c-0.069-0.164-0.146-0.315-0.227-0.466
	c-0.033-0.068-0.104-0.119-0.175-0.133c0.009-0.017,0.048-0.063,0.051-0.08c0.005-0.021-0.014-0.09-0.021-0.112
	c-0.067-0.248-0.139-0.49-0.252-0.685c-0.047-0.08-0.115-0.143-0.174-0.205c-0.021-0.021-0.012-0.148-0.035-0.168l-0.326-0.237
	c-0.01-0.009-0.084,0.021-0.102,0.015c-0.049-0.021-0.185-0.117-0.221-0.156c-0.031-0.031-0.125-0.153-0.128-0.199l0.022-0.315
	c0.056-0.085,0.133-0.16,0.197-0.245c0.016-0.019,0.141-0.045,0.164-0.027l0.426,0.313c0.033,0.024,0.103,0.149,0.123,0.19
	c0.01,0.022,0.002,0.115,0.017,0.127c0.075,0.05,0.141,0.117,0.192,0.199l0.137-0.021c0.259,0.601,0.555,1.139,0.849,1.692
	l0.278,0.42c0.017,0.021-0.002,0.127,0.023,0.164c0.205,0.302,0.439,0.612,0.594,0.955c0.109,0.104,0.22,0.164,0.313,0.211
	c0.213,0.199,0.33,0.488,0.482,0.726c0.072,0.12,0.094,0.287,0.146,0.433c0.024,0.072,0.06,0.168,0.142,0.176
	c0.029,0.004,0.067-0.024,0.084-0.062l0.092,0.117c0.221-0.036,0.386-0.125,0.543-0.202c0.058-0.029,0.227-0.059,0.279-0.046
	c0.069,0.017,0.162,0.085,0.176,0.147c0.021,0.104,0.088,0.183,0.152,0.242c0.014,0.01,0.108-0.016,0.141-0.02l-0.027-0.186
	l0.121-0.018c0.006,0.042,0.018,0.168,0.031,0.205c0.007,0.016,0.056,0.061,0.068,0.061c0.092,0.008,0.182-0.029,0.262-0.07
	c0.045-0.022,0.095-0.077,0.09-0.113l-0.049-0.333l-0.227,0.171c-0.029-0.136,0.016-0.242,0.063-0.329
	c0.011-0.019,0.156-0.021,0.199-0.028c-0.014-0.201-0.025-0.401-0.02-0.588l-0.137-0.494l-0.12-0.84
	c0.079-0.088,0.11-0.209,0.139-0.353c-0.016-0.099-0.053-0.203-0.11-0.31c-0.025-0.05,0.074-0.121,0.08-0.158
	c0.037-0.236,0.104-0.422,0.119-0.633c0.002-0.043-0.048-0.192-0.031-0.221c0.174-0.262,0.271-0.57,0.447-0.834l-0.016-0.316
	c-0.008-0.146,0.031-0.271,0.079-0.396c0.008-0.02,0.077-0.134,0.108-0.136c0.133-0.013,0.267,0.006,0.394,0.012l0.06,0.408
	l-0.082,0.312c0.016,0.637,0.071,1.305,0.035,1.924c-0.002,0.028,0.079,0.15,0.083,0.192c0.009,0.045-0.034,0.181-0.032,0.226
	l0.094,1.51l-0.039,0.591l0.132,0.92c0.036,0.606,0.024,1.2,0.075,1.826c-0.031,0.28-0.094,0.551-0.129,0.833
	c-0.01,0.064,0.031,0.126,0.09,0.129c0.076,0.002,0.164,0.009,0.242,0.045c0.152,0.068,0.209,0.257,0.328,0.352
	c0.024,0.019,0.106-0.021,0.121-0.012c0.068,0.041,0.103,0.129,0.119,0.205c0.016,0.07-0.016,0.15-0.063,0.23
	c-0.032,0.06-0.118,0.093-0.178,0.146c-0.041,0.037-0.154,0.159-0.177,0.229c-0.038,0.111,0.05,0.234,0.08,0.347
	c-0.042,0.006-0.134,0.012-0.157,0.022c-0.043,0.021-0.084,0.078-0.082,0.123c0.004,0.103,0.008,0.207-0.018,0.303
	c-0.01,0.033,0.092,0.156,0.104,0.246l0.147,1.067c-0.054,0.108-0.032,0.276,0.026,0.419c-0.004-0.012,0.082,0.016,0.095,0.035
	c0.021,0.031,0.022,0.163,0.03,0.203c0.039-0.005,0.181-0.012,0.188-0.027c0.153-0.279,0.306-0.56,0.431-0.89
	c-0.002,0.003-0.024-0.097-0.021-0.128c0.006-0.025,0.083-0.091,0.086-0.127c0.008-0.132,0.116-0.248,0.313-0.245
	c0.013,0,0.106,0.026,0.117,0.048c0.021,0.035,0.014,0.186,0.032,0.223c0.036,0.074,0.136,0.072,0.2,0.11
	c0.107,0.06,0.162,0.169,0.264,0.263l-0.059,1.573c0.057,0.13,0.113,0.281,0.123,0.485c0,0.015-0.098,0.063-0.115,0.095
	c-0.079,0.17-0.129,0.382-0.148,0.61c-0.002,0.04,0.03,0.164,0.028,0.203c-0.003,0.018-0.034,0.072-0.058,0.092
	c-0.053,0.043-0.162,0.078-0.156,0.169c0,0.012,0.057,0.043,0.068,0.053c0.047-0.056,0.119-0.052,0.187-0.054
	c0.011-0.001,0.052,0.04,0.065,0.051c-0.102,0.049-0.166,0.139-0.215,0.233c0.024,0.129,0.016,0.278,0.076,0.382
	c0.033,0.052-0.018,0.091-0.029,0.125c-0.012,0.025-0.006,0.115,0.01,0.131c0.047,0.044,0.123,0.089,0.119,0.166l-0.246,0.035
	c0.007,0.041,0.051,0.188,0.029,0.21l-0.32,0.37c-0.014,0.012,0.025,0.098,0.014,0.107c-0.078,0.09-0.107,0.215-0.131,0.342
	c-0.004,0.029-0.008,0.111,0.029,0.091c0.025-0.021,0.078-0.093,0.086-0.117c0.006-0.019-0.02-0.082-0.018-0.103
	c0.004-0.02,0.037-0.072,0.055-0.08c0.019-0.014,0.101-0.027,0.129-0.02c0.053,0.016,0.035,0.1,0.035,0.153
	c-0.002,0.02-0.063,0.086-0.068,0.11c-0.004,0.026,0.02,0.115,0.021,0.15c0.043-0.016,0.068-0.066,0.112-0.085
	c0.046,0.101,0.138,0.144,0.21,0.19c0.026,0.018,0.02,0.141,0.031,0.17c0.005,0.017,0.055,0.057,0.07,0.063
	c0.023,0.009,0.104,0.011,0.128,0.013c0.004,0.027,0.034,0.121,0.022,0.153c-0.014,0.033-0.08,0.084,0.012,0.101
	c0.045,0.012,0.088,0.052,0.055,0.106c-0.023,0.04-0.061,0.048-0.107,0.038c-0.099-0.013-0.046-0.174-0.104-0.201l-0.13,0.217
	l-0.141-0.105c-0.052,0.046-0.063,0.115-0.098,0.171c0.087,0.013,0.166,0.089,0.248,0.101l0.089-0.119
	c0.005,0.024,0.022,0.103,0.019,0.123c-0.008,0.023-0.06,0.09-0.073,0.099c-0.099,0.065-0.185-0.046-0.244-0.021
	c-0.067,0.028-0.033,0.108-0.015,0.159c0.006,0.017,0.072,0.067,0.092,0.074c0.06,0.022,0.087-0.047,0.111-0.062
	c0.056-0.026,0.267-0.072,0.242-0.029c-0.037,0.066,0.029,0.097,0.055,0.129c0.018,0.02,0.027,0.1,0.024,0.123
	c-0.004,0.016-0.041,0.057-0.054,0.07c-0.018-0.022-0.063-0.104-0.088-0.113c-0.022-0.008-0.114,0.018-0.143,0.021l0.021,0.146
	c-0.077,0.049-0.164,0.109-0.18,0.21c-0.008,0.055,0.055,0.133,0.047,0.226c0.051-0.003,0.065-0.063,0.096-0.078
	c0.025-0.017,0.119-0.019,0.146-0.021c0.004,0.041,0.049,0.188,0.028,0.206c-0.065,0.062-0.087,0.188-0.147,0.264
	c-0.014-0.049-0.049-0.159-0.053-0.166c-0.033-0.057-0.072-0.174-0.121-0.116c-0.02,0.022-0.143,0.021-0.177,0.037
	c-0.014,0.008-0.047,0.063-0.051,0.079c-0.004,0.021,0.002,0.091,0.017,0.105c0.043,0.06,0.123,0.124,0.182,0.124
	c0.174-0.004,0.305-0.051,0.433-0.088l0.278,0.104c0.007,0.049,0.039,0.135-0.002,0.157c-0.028-0.058-0.071-0.089-0.116-0.117
	c-0.031,0.069-0.104,0.104-0.165,0.146c-0.021-0.008-0.083-0.056-0.109-0.053c-0.06,0.01-0.123,0.055-0.199,0.064
	c-0.016,0.003-0.043,0.059-0.053,0.072c0.025,0.012,0.113,0.035,0.133,0.055c0.013,0.012,0.002,0.088,0.015,0.105
	c0.039,0.051,0.116,0.075,0.146,0.146c-0.019,0.009-0.072,0.063-0.092,0.07c-0.027,0.012-0.115,0.018-0.15,0.021
	c-0.004,0.131,0.006,0.262-0.063,0.374c-0.025,0.041,0.098,0.097,0.141,0.155c0.014,0.017,0.023,0.085,0.021,0.1
	c-0.021,0.084-0.101,0.12-0.16,0.157c0.054,0.069,0.114,0.146,0.172,0.157c0.052,0.186,0.027,0.352-0.096,0.4
	c0.022,0.008,0.103,0.039,0.125,0.041c0.051,0.008,0.091-0.019,0.121-0.047l0.073,0.053l-0.078,0.199
	c-0.021,0.004-0.082,0.02-0.096,0.016c-0.084-0.021-0.123-0.103-0.16-0.168c-0.026,0.031-0.092,0.123-0.114,0.141
	c-0.078,0.052-0.151-0.016-0.218-0.038l-0.076,0.369c0.033,0.106,0.097,0.207,0.119,0.337c-0.114-0.023-0.235-0.025-0.381,0.016
	l0.275,0.143c-0.025,0.018-0.094,0.082-0.121,0.085c-0.135,0.008-0.254,0.04-0.365,0.085c0.014,0.087,0.088,0.15,0.137,0.229
	c0.037-0.041,0.058-0.141,0.146-0.109c0.05,0.017,0.036,0.094,0.032,0.144c-0.003,0.056-0.018,0.127-0.063,0.158
	c-0.056,0.035-0.123,0.008-0.185,0.004c-0.043-0.096-0.159-0.104-0.242-0.142c0.005,0.013,0.007,0.093,0.017,0.111
	c0.011,0.015,0.064,0.049,0.08,0.051c0.028,0.004,0.115-0.017,0.146-0.021c0.004,0.045,0.032,0.18,0.03,0.227
	c0,0.029-0.032,0.121-0.043,0.154c0.068,0.041,0.164,0.104,0.162,0.223c-0.075,0.028-0.192-0.013-0.203-0.084l-0.041-0.291
	c-0.088-0.069-0.221-0.082-0.305-0.164c0.004,0.066,0.016,0.142,0.061,0.203l-0.047,0.103c-0.012-0.022-0.03-0.106-0.051-0.126
	c-0.059-0.051-0.16-0.055-0.238-0.094l0.123,0.439c0,0.001-0.031,0.049-0.055,0.069c-0.01,0.011-0.082,0.028-0.019,0.062
	c0,0.025,0.06,0.143-0.019,0.116c-0.076-0.024-0.166-0.019-0.235-0.041c-0.042-0.014-0.088-0.008-0.097,0.028
	c-0.032-0.08-0.008-0.167,0.016-0.24c0.021-0.079-0.051-0.128-0.078-0.175c-0.042,0.04-0.136,0.053-0.186,0.026
	c0.002,0.016,0,0.099,0.017,0.117c0.035,0.045,0.11,0.045,0.165,0.065c-0.038,0.046-0.055,0.108-0.063,0.169
	c-0.008,0.034,0.031,0.15,0.02,0.186c-0.018,0.053-0.098,0.075-0.132,0.123c-0.011,0.014-0.003,0.086,0.01,0.104
	c0.044,0.06,0.117,0.104,0.187,0.138c0.021,0.009,0.112-0.018,0.143-0.021l0.025,0.187c-0.041,0.011-0.072-0.038-0.097-0.038
	c-0.084,0.002-0.247-0.011-0.214,0.057c0.034,0.074,0.125,0.08,0.159,0.131l-0.538,0.041c0,0.008-0.018-0.067-0.016-0.092
	c0.002-0.015,0.049-0.056,0.051-0.069c0.007-0.024-0.01-0.099-0.014-0.104c-0.153,0.074-0.258,0.219-0.276,0.405
	c0,0.004,0.047,0.029,0.04,0.03l0.406-0.045c0.023-0.002,0.095,0.066,0.119,0.08l-0.121,0.098c0.067,0.109,0.045,0.242,0.07,0.406
	c0.066-0.08,0.1-0.151,0.158-0.182l0.035,0.252c-0.026,0.004-0.124,0.008-0.141,0.021c-0.043,0.033-0.09,0.084-0.095,0.145
	c0.109-0.016,0.195-0.074,0.308-0.078c0.018,0,0.074,0.047,0.076,0.063c0.014,0.102-0.027,0.191-0.06,0.273
	c-0.022-0.027-0.067-0.047-0.095-0.033c-0.069,0.029-0.067,0.119-0.104,0.188c-0.021,0.041-0.049,0.094-0.11,0.079
	c-0.004-0.039-0.031-0.164-0.028-0.198c0.017-0.084,0.103-0.121,0.177-0.166c-0.099-0.02-0.191-0.051-0.249-0.125
	c-0.015-0.023-0.017-0.144-0.024-0.19c-0.061,0.104-0.104,0.209-0.18,0.284c0.023,0.033,0.039,0.068,0.068,0.085
	c-0.057,0.006-0.123,0.038-0.182-0.003l-0.025-0.184l-0.123,0.018c0.002,0.02,0.002,0.082,0.012,0.093
	c0.021,0.021,0.111,0.06,0.139,0.073c-0.012,0.027-0.026,0.115-0.047,0.132c-0.033,0.028-0.066,0.069-0.111,0.086
	c-0.004-0.035-0.01-0.126-0.021-0.149c-0.012-0.022-0.085-0.07-0.119-0.102c0.021-0.086,0.092-0.191,0.121-0.301
	c0.098,0.005,0.2,0.068,0.327,0.022c0.048-0.018-0.007-0.1,0.009-0.149c0.021-0.065,0.133-0.125,0.098-0.195
	c-0.01-0.021-0.069-0.046-0.104-0.064c-0.085,0.062-0.201,0.146-0.34,0.182c-0.068,0.085-0.141,0.179-0.254,0.227
	c-0.029,0.014-0.131,0.021-0.165,0.025l0.026,0.191c0.045-0.017,0.07-0.066,0.115-0.088l0.067,0.053
	c-0.026,0.043-0.06,0.086-0.108,0.11c0.027,0.011,0.121,0.034,0.135,0.054c0.017,0.023,0.027,0.133,0.022,0.164
	c-0.003,0.019-0.04,0.082-0.054,0.084c-0.205,0.033-0.359-0.059-0.462-0.181c-0.017-0.021-0.019-0.128-0.024-0.17
	c-0.08,0.022-0.152,0.097-0.25,0.06c-0.066-0.023-0.084-0.156-0.182-0.175c-0.029-0.006-0.117,0.017-0.146,0.021
	c-0.007,0.086,0.012,0.175-0.024,0.261c0.057,0.063,0.167,0.047,0.206,0.127c0.014,0.028,0.018,0.119,0.021,0.147l0.314-0.045
	c0,0.125-0.053,0.242-0.117,0.334c-0.044-0.065-0.077-0.138-0.139-0.168c-0.094,0.133-0.146,0.297-0.193,0.461
	c-0.012,0.037-0.053,0.053-0.083,0.074c-0.042-0.029-0.085-0.062-0.108-0.111l-0.045,0.137c-0.021-0.038-0.063-0.025-0.101-0.016
	c-0.015,0.066-0.067-0.021-0.056-0.039c0.065-0.102,0.215-0.117,0.313-0.207c-0.045-0.139-0.011-0.242-0.013-0.34l-0.146-0.059
	c0.016-0.021,0.078-0.083,0.084-0.109c0.006-0.076-0.057-0.177-0.008-0.246c-0.029,0.004-0.127,0.006-0.145,0.021
	c-0.021,0.017-0.057,0.106-0.063,0.146c-0.005,0.063,0.082,0.104,0.064,0.188c-0.01,0.048-0.053,0.083-0.088,0.113
	c-0.017,0.012-0.082,0.01-0.1,0.019c-0.044,0.023-0.093,0.081-0.089,0.118l0.052,0.346c0.006,0.041-0.123,0.178-0.156,0.221
	c-0.027,0.033-0.072,0.051-0.117,0.049c-0.012-0.034-0.038-0.147-0.057-0.18c-0.057-0.098-0.17-0.121-0.246-0.181
	c-0.023-0.021-0.019-0.128-0.021-0.159c-0.045,0-0.094,0.061-0.087,0.082l0.085,0.32c0.002,0.014,0.054,0.048,0.061,0.057
	c-0.137,0.08-0.164,0.238-0.285,0.329c-0.07-0.073-0.113-0.174-0.141-0.304l-0.29,0.15c-0.019-0.018-0.069-0.053-0.077-0.066
	c-0.011-0.025-0.016-0.115-0.02-0.152c-0.051,0.045-0.137,0.08-0.174,0.141c-0.041,0.07-0.047,0.169-0.084,0.258
	c-0.022,0.061,0.076,0.079,0.091,0.136c-0.05,0.009-0.175,0.038-0.216,0.031c-0.034-0.006-0.063-0.06-0.092-0.056
	c-0.028,0.162,0.006,0.281,0.056,0.47c-0.084-0.06-0.214-0.173-0.257-0.181c-0.051-0.012-0.144,0.002-0.151,0.045
	c0.035,0.012,0.112,0.043,0.14,0.049c0.049,0.014,0.063,0.094,0.018,0.119c-0.053,0.029-0.09-0.026-0.123-0.043
	c-0.024-0.012-0.105,0.015-0.133,0.02c0.041,0.014,0.047,0.055,0.039,0.091c-0.006,0.032-0.047,0.05-0.084,0.074
	c-0.078-0.076-0.146-0.167-0.239-0.222c-0.015-0.006-0.038-0.11-0.022-0.133c0.061-0.086-0.016-0.191-0.09-0.209
	c-0.004-0.066-0.041-0.131-0.004-0.172c-0.018,0.004-0.1,0.004-0.117,0.018c-0.045,0.037-0.035,0.131-0.076,0.168
	c-0.027,0.025-0.18,0.025-0.222,0.031c-0.043,0.117-0.125,0.211-0.157,0.332l-0.209-0.154c-0.011,0.046-0.068,0.185-0.063,0.244
	c0.002,0.049,0.09,0.123,0.037,0.201c-0.072,0.035-0.135,0.098-0.166,0.164c-0.033-0.098-0.043-0.188-0.088-0.244
	c0.061-0.135,0.086-0.291,0.182-0.395c0.008-0.01-0.002-0.089-0.014-0.099c-0.035-0.041-0.084-0.091-0.137-0.095
	c0.006,0.049,0.049,0.188,0.028,0.213l-0.181,0.252c-0.025,0.033,0.019,0.086,0.049,0.121c-0.047,0.066-0.109,0.125-0.141,0.219
	c-0.012,0.044-0.095,0.037-0.143,0.01C48.41,79.301,48.364,79.269,48.312,79.26z"/>
</svg>
