<svg xmlns="http://www.w3.org/2000/svg" xmlns:se="http://svg-edit.googlecode.com" xmlns:xlink="http://www.w3.org/1999/xlink" id="svgcontent" width="205.65" height="395.85" x="0" y="0" viewBox="0 0 205.65 395.85" overflow="hidden"><g mask="" style="pointer-events:all"><title style="pointer-events:inherit">Layer 1</title><g id="svg_1" type="text" text="Family" font-size="44.89128543557012" font-family="Euphoria Script" fill="ffffff" text-anchor="start" font-weight="normal" font-style="normal" lineHeight="1" shapeId="0" shapeVal="0" fill-opacity="1" display="null" elemBBoxWidth="101.00135040283203" stroke="null" stroke-dasharray="none" style="pointer-events:inherit"><path id="svg_11" fill="#ffffff" stroke-width="0" d="M119.50826,185.72226C118.7601,185.72226 117.76257,185.97165 116.64033,186.09634C114.76993,195.07423 112.65015,206.54599 104.66979,206.54599C95.69189,206.54599 98.80922,191.20876 105.66734,191.20876C106.78957,191.20876 106.91427,192.0816 106.91427,192.0816C100.05615,192.0816 97.3129,205.29906 104.29572,205.29906C110.40567,205.29906 112.27607,195.19893 114.27116,186.59511C113.14892,186.7198 112.15137,186.8445 111.27853,186.8445C109.7822,186.8445 109.7822,185.0988 110.40567,185.0988C111.15383,185.47287 113.14892,185.34818 114.64523,185.22348C115.64278,181.23331 116.64033,177.74191 118.26134,176.1209C118.26134,176.1209 116.51563,176.1209 116.51563,176.1209C104.04633,176.1209 104.29572,186.8445 106.91427,186.8445C106.91427,186.8445 106.91427,187.34326 106.16611,187.34326C102.17593,187.34326 102.05124,175.24805 116.51563,175.24805C122.99966,175.24805 122.75029,172.50481 124.62068,172.50481C126.11699,172.50481 125.11945,174.99866 120.50581,175.87151C118.7601,176.61967 117.88725,180.36046 116.88971,185.0988C118.01195,184.97411 119.13419,184.84941 120.00703,184.84941C120.38112,184.84941 120.38112,185.72226 119.50826,185.72226C119.50826,185.72226 119.50826,185.72226 119.50826,185.72226M121.25397,191.45813C121.25397,191.83221 120.00703,191.58282 120.00703,191.08406C120.00703,186.22102 121.12927,182.85432 122.99966,182.85432C125.61823,184.35063 120.87989,184.84941 121.25397,191.45813C121.25397,191.45813 121.25397,191.45813 121.25397,191.45813M134.72081,187.21858C133.2245,186.96919 134.47142,185.72226 132.35164,185.72226C127.48862,185.72226 124.37129,201.18419 126.86514,201.18419C128.86024,201.18419 134.09735,191.20876 135.21959,188.96428C135.96774,187.21858 137.58875,185.0988 138.46161,187.21858C138.46161,187.21858 135.46896,193.32854 135.46896,201.43358C135.46896,204.30151 135.84305,205.17438 136.5912,205.17438C138.21222,204.80029 137.46407,203.55336 138.46161,203.30397C138.83568,203.30397 138.71098,203.67805 138.71098,203.67805C138.71098,203.67805 137.96283,206.4213 136.46651,206.4213C133.2245,206.4213 132.97511,198.81502 133.72327,194.70015C133.72327,194.70015 133.34918,194.70015 133.34918,194.70015C131.10472,198.44095 128.23677,202.43112 126.49107,202.43112C120.25642,202.43112 124.74536,184.72472 132.60103,184.72472C134.8455,184.72472 135.96774,186.7198 134.72081,187.21858C134.72081,187.21858 134.72081,187.21858 134.72081,187.21858M149.43459,198.06686C149.43459,193.20384 150.68152,188.4655 151.05559,186.8445C151.1803,186.47041 150.68152,186.34572 150.30743,186.7198C146.19257,190.21121 143.19994,201.05949 142.0777,202.18173C141.20485,202.18173 140.95546,201.30888 140.95546,199.3138C140.95546,192.45569 142.57648,185.22348 144.69624,185.22348C147.19011,185.72226 142.70117,190.83467 143.32463,196.69525C145.31972,191.70752 148.68643,184.84941 152.05313,184.84941C153.17537,184.84941 153.79884,185.59756 153.79884,186.59511C153.79884,186.59511 152.05313,191.58282 151.30498,196.44586C151.30498,196.44586 151.67906,196.44586 151.67906,196.44586C153.67415,192.33099 157.04086,186.22102 159.7841,186.22102C160.90634,186.22102 161.5298,186.8445 161.5298,187.96674C161.5298,187.96674 159.65942,194.20139 159.65942,200.06195C159.65942,204.17683 160.53226,204.17683 162.15327,203.17928C162.52736,203.17928 162.27797,203.55336 162.27797,203.55336C162.27797,203.55336 161.65451,205.04968 160.53226,205.04968C156.16801,205.29906 157.66432,190.58528 158.66187,188.34081C158.78656,187.96674 158.41248,188.09143 158.03841,188.34081C154.17291,191.58282 151.67906,199.93726 150.43213,200.9348C149.55928,200.9348 149.43459,200.06195 149.43459,198.06686C149.43459,198.06686 149.43459,198.06686 149.43459,198.06686M165.2706,199.43849C165.2706,192.70506 166.8916,185.72226 169.26077,185.72226C169.88425,185.72226 170.00893,186.09634 170.00893,186.59511C170.00893,186.59511 166.8916,194.82484 166.8916,201.93236C166.8916,202.30643 166.51753,202.43112 166.26814,202.43112C165.64468,202.43112 165.2706,201.43358 165.2706,199.43849C165.2706,199.43849 165.2706,199.43849 165.2706,199.43849M171.13118,178.11598C171.62994,178.11598 171.87933,178.49007 171.87933,178.98883C171.87933,179.86169 170.13364,182.35555 170.13364,182.35555C168.88669,182.35555 169.26077,178.11598 171.13118,178.11598C171.13118,178.11598 171.13118,178.11598 171.13118,178.11598M177.49052,206.54599C179.23622,206.54599 179.85968,203.55336 180.98192,204.17683C180.85722,204.42621 179.48561,207.66823 177.36581,207.66823C174.37318,207.66823 173.37564,204.30151 173.37564,199.68788C173.37564,188.96428 178.11398,174.62459 180.73253,174.62459C181.10661,174.62459 181.356,174.87396 181.356,175.37274C181.356,175.37274 175.49542,189.21367 175.49542,201.18419C175.49542,204.17683 176.1189,206.54599 177.49052,206.54599C177.49052,206.54599 177.49052,206.54599 177.49052,206.54599M184.7227,201.05949C188.71289,199.56319 192.70306,185.97165 195.82039,184.97411C196.31917,184.97411 196.56854,185.34818 196.56854,185.84695C196.56854,185.84695 194.82285,189.33836 193.32652,197.81747C193.07713,199.43849 192.70306,201.18419 192.32898,202.9299C196.69324,203.67805 195.69569,207.54353 194.32408,207.54353C194.32408,207.54353 195.07224,204.80029 192.07961,204.05212C190.58328,209.41394 188.08942,214.52635 182.47824,214.52635C180.10907,214.52635 178.98683,213.52879 178.48807,212.40657C178.23868,211.90779 179.23622,211.6584 179.48561,212.15718C179.85968,212.90533 180.60785,213.65349 182.47824,213.65349C186.96719,213.65349 188.83757,208.91516 189.95981,203.92744C184.84741,204.05212 181.97946,206.17191 179.98438,208.91516C179.73499,209.28925 178.86214,209.03986 179.11153,208.66577C180.85722,205.92253 184.47333,203.05458 190.2092,202.80521C190.45859,199.93726 191.83022,196.32117 191.45613,193.952C189.21165,197.94217 186.34372,202.30643 184.34863,202.30643C178.23868,202.30643 183.60046,184.97411 186.8425,184.97411C187.34126,184.97411 187.46596,185.34818 187.46596,185.84695C187.46596,185.84695 183.84985,194.32608 183.84985,199.1891C183.84985,200.18665 184.09924,201.05949 184.7227,201.05949C184.7227,201.05949 184.7227,201.05949 184.7227,201.05949" style="pointer-events:inherit"/><rect id="svg_12" x="99.13281551655382" y="172.5078114187345" width="97.43359343381599" height="42.0223273774609" fill="#000000" opacity="0" style="pointer-events:inherit"/></g><g type="text" text="christmas 2016" font-size="18.698759776736694" font-family="Flux Architect" fill="ffffff" text-anchor="start" font-weight="normal" font-style="normal" lineHeight="1" shapeId="0" shapeVal="0" fill-opacity="1" display="null" elemBBoxWidth="174.31640625" stroke="null" stroke-dasharray="none" id="svg_6" style="pointer-events:inherit"><path id="svg_20" fill="#ffffff" stroke-width="0" d="M24.20811,233.18764C18.96206,234.74586 15.06649,232.30463 15.11843,227.578C15.11843,225.65619 16.10531,223.52661 18.54654,221.96837C22.28629,219.52715 23.48093,219.73491 27.89592,221.29314C28.51921,221.91643 28.20756,223.21497 27.27262,223.31885C22.44211,221.81255 17.35189,223.11108 16.88442,228.09741C16.67666,230.27893 18.28683,231.26581 20.83194,231.26581C23.16929,231.26581 25.40275,230.53864 27.58427,229.03235C28.20756,228.25323 29.50609,228.7207 29.50609,229.65564C29.50609,230.38281 28.98668,230.85028 28.15562,231.36969C27.1168,231.99298 25.81828,232.72017 24.20811,233.18764C24.20811,233.18764 24.20811,233.18764 24.20811,233.18764M41.97193,220.04655C42.85493,220.15044 42.75104,220.66985 42.75104,221.5009C42.75104,221.5009 42.80298,227.3183 42.80298,227.3183C43.8418,227.68188 43.3224,229.34399 42.80298,229.34399C42.80298,229.34399 42.85493,233.23958 42.85493,233.23958C42.85493,233.65511 42.54328,233.91481 41.97193,233.96675C40.51758,233.75899 41.45252,231.42163 41.19281,229.65564C41.19281,229.65564 33.34972,229.70758 33.34972,229.70758C33.14196,231.0061 33.97301,233.29152 32.51867,233.29152C31.11626,233.29152 32.0512,231.05804 31.73955,229.70758C30.38909,229.44788 30.85655,227.88965 31.73955,227.37024C31.73955,227.37024 31.63567,220.98149 31.63567,220.98149C31.73955,220.20238 33.14196,220.15044 33.29778,220.92955C33.29778,220.92955 33.34972,227.26636 33.34972,227.26636C33.34972,227.26636 41.14087,227.3183 41.14087,227.3183C41.14087,227.3183 41.14087,220.66985 41.14087,220.66985C41.14087,220.30626 41.45252,220.15044 41.97193,220.04655C41.97193,220.04655 41.97193,220.04655 41.97193,220.04655M45.91945,222.95526C45.14033,222.48778 44.15345,220.56596 45.97139,220.46208C45.97139,220.0985 47.01021,219.89073 47.37379,220.30626C50.74996,219.94267 53.0873,219.73491 54.38583,219.73491C56.51541,219.73491 59.37216,220.98149 59.52799,223.52661C59.57993,225.24066 57.96976,227.16248 55.26882,227.16248C54.23001,227.16248 52.93148,226.85083 51.99654,226.95471C51.99654,226.95471 59.4241,230.85028 59.4241,230.85028C59.89157,231.21387 59.83963,233.1357 58.90469,232.92793C58.90469,232.92793 47.52961,227.42218 47.52961,227.42218C47.52961,227.42218 47.58155,233.49928 47.58155,233.49928C47.58155,234.22646 45.91945,234.33034 45.91945,233.55122C45.91945,233.55122 45.91945,226.48724 45.91945,226.48724C44.88062,226.33142 44.41315,223.99408 45.91945,223.8902C45.91945,223.8902 45.91945,222.95526 45.91945,222.95526C45.91945,222.95526 45.91945,222.95526 45.91945,222.95526M47.52961,222.7475C47.52961,222.7475 47.52961,224.09796 47.52961,224.09796C47.52961,224.20184 48.93202,224.46155 51.78878,224.77319C54.69748,225.08484 57.19064,225.50037 57.81393,223.26691C57.45034,222.43584 56.61929,222.02031 55.32077,222.02031C53.65865,222.02031 51.0616,222.22807 47.52961,222.7475C47.52961,222.7475 47.52961,222.7475 47.52961,222.7475M61.39786,222.7475C61.39786,221.70866 61.03428,219.99461 62.17698,220.0985C63.37162,220.20238 62.90415,221.2412 62.90415,222.17613C62.90415,222.17613 62.95609,232.87599 62.95609,232.87599C62.95609,233.23958 62.69638,233.49928 62.17698,233.60316C61.34592,233.55122 61.39786,232.87599 61.39786,232.09686C61.39786,232.09686 61.39786,222.7475 61.39786,222.7475C61.39786,222.7475 61.39786,222.7475 61.39786,222.7475M68.09825,227.94159C66.69585,228.14935 65.5012,226.69501 65.5012,225.08484C65.44926,223.0072 67.47496,220.66985 70.6953,219.94267C71.88995,219.73491 75.73358,222.28001 73.24041,223.63049C72.61712,223.99408 71.88995,223.11108 72.30547,222.43584C70.1759,221.29314 67.63078,222.59166 67.11137,225.2926C70.02007,226.1756 76.25299,222.59166 76.56463,227.99353C76.72046,230.38281 73.24041,234.17451 70.38365,233.81093C68.56572,234.07063 65.60509,231.78522 65.24149,230.17505C65.65703,228.77264 66.43614,229.24011 67.21526,230.33087C70.1759,232.51241 73.55206,231.99298 74.85059,228.20129C74.85059,227.83771 74.38311,227.21442 73.55206,227.21442C72.98071,227.21442 71.16277,227.52606 68.09825,227.94159C68.09825,227.94159 68.09825,227.94159 68.09825,227.94159M81.9665,220.56596C82.07038,219.42326 83.47279,219.4752 83.52473,220.56596C85.55043,220.66985 87.62807,219.99461 87.83583,222.12419C87.57613,223.31885 84.92714,222.6436 83.57667,222.79944C83.62862,229.65564 83.68055,233.03181 83.73249,233.03181C83.73249,233.3954 83.42085,233.70705 82.84949,233.75899C82.01844,233.60316 82.07038,233.1357 82.07038,232.35658C82.07038,232.35658 81.9665,222.79944 81.9665,222.79944C80.04468,222.7475 77.70734,223.21497 78.01898,221.34508C78.22675,220.0985 80.61604,220.72179 81.9665,220.56596C81.9665,220.56596 81.9665,220.56596 81.9665,220.56596M103.15842,219.68297C103.57395,219.68297 103.72978,220.04655 103.83366,220.66985C104.56083,220.66985 104.82054,222.48778 103.8856,222.85136C103.8856,222.85136 104.09336,232.87599 104.09336,232.87599C104.09336,233.18764 103.83366,233.44734 103.26231,233.60316C102.43125,233.49928 102.43125,232.97987 102.43125,232.1488C102.43125,229.44788 102.53513,226.27948 102.17155,223.78632C102.17155,223.78632 99.10703,225.60425 99.10703,225.60425C98.89927,227.05859 98.06821,227.21442 97.13327,226.69501C96.19833,227.26636 96.09445,226.74695 95.10757,225.55231C95.10757,225.55231 91.93917,223.94214 91.93917,223.94214C91.93917,223.94214 92.09499,232.87599 92.09499,232.87599C92.09499,233.34346 91.83529,233.60316 91.26394,233.60316C90.79647,233.60316 90.48482,233.29152 90.48482,232.72017C90.48482,232.72017 90.329,223.11108 90.329,223.11108C89.34212,222.17613 89.03047,220.92955 90.17318,220.6179C90.329,219.63103 91.99111,219.78685 91.93917,220.56596C91.93917,220.56596 91.88723,221.44896 91.88723,221.44896C94.32845,222.7475 96.04251,223.57855 96.92551,223.99408C97.60074,223.68243 99.41868,222.7475 102.27543,221.2412C102.11961,220.41014 102.32737,219.63103 103.15842,219.68297C103.15842,219.68297 103.15842,219.68297 103.15842,219.68297M106.01518,232.66821C105.85935,232.51241 107.054,231.05804 107.00206,230.95416C106.32683,230.07117 107.10594,228.56488 108.35252,228.87653C111.67675,223.68243 113.49468,221.65672 113.33887,220.87761C113.23498,220.3582 113.91022,219.73491 114.68933,219.52715C115.31262,219.37132 116.14368,220.72179 115.67621,221.60478C117.49414,226.01978 118.53296,228.40906 118.74073,228.77264C119.98731,229.03235 120.3509,229.96729 119.57178,230.90222C119.72761,231.83716 120.14314,232.35658 120.3509,233.08376C120.14314,234.43422 118.37714,234.22646 118.37714,232.77211C118.37714,232.77211 117.70191,231.21387 117.70191,231.21387C117.70191,231.21387 109.0797,231.26581 109.0797,231.26581C108.92387,231.26581 108.50835,231.99298 107.6773,233.23958C107.15788,234.01869 106.11906,233.65511 106.01518,232.66821C106.01518,232.66821 106.01518,232.66821 106.01518,232.66821M114.37769,223.11108C113.80634,223.42273 112.66363,225.50037 110.58599,228.87653C112.55975,228.77264 114.89709,229.03235 116.66309,228.7207C116.66309,228.7207 114.37769,223.11108 114.37769,223.11108M124.50618,227.94159C123.10377,228.14935 121.90913,226.69501 121.90913,225.08484C121.85719,223.0072 123.88289,220.66985 127.10323,219.94267C128.29787,219.73491 132.14149,222.28001 129.64833,223.63049C129.02505,223.99408 128.29787,223.11108 128.71339,222.43584C126.58382,221.29314 124.03871,222.59166 123.51929,225.2926C126.428,226.1756 132.66092,222.59166 132.97256,227.99353C133.12837,230.38281 129.64833,234.17451 126.79158,233.81093C124.97365,234.07063 122.01302,231.78522 121.64942,230.17505C122.06496,228.77264 122.84407,229.24011 123.62318,230.33087C126.58382,232.51241 129.95999,231.99298 131.2585,228.20129C131.2585,227.83771 130.79105,227.21442 129.95999,227.21442C129.38863,227.21442 127.57069,227.52606 124.50618,227.94159C124.50618,227.94159 124.50618,227.94159 124.50618,227.94159M145.64616,220.56596C147.98351,219.73491 150.63249,220.92955 150.63249,223.42273C150.63249,224.51349 150.1131,226.01978 148.91844,227.68188C148.03545,228.98041 146.73692,229.91534 145.85393,231.21387C147.36021,231.36969 149.64561,230.01923 149.95728,231.78522C149.85339,232.72017 149.54173,233.18764 148.91844,233.18764C147.93156,233.18764 146.06169,233.91481 143.36076,233.91481C142.84135,233.91481 142.63358,233.60316 142.63358,233.03181C142.63358,232.40851 144.45152,230.53864 147.4641,227.00665C148.65874,225.65619 148.9704,224.51349 148.9704,223.26691C148.76262,222.3839 148.39903,222.22807 147.51604,222.22807C146.42528,222.22807 145.1787,222.79944 143.88017,223.94214C143.20494,224.1499 142.73746,223.73438 142.73746,222.85136C142.73746,222.22807 143.62045,221.29314 145.64616,220.56596C145.64616,220.56596 145.64616,220.56596 145.64616,220.56596M162.16341,233.03181C157.90425,234.69392 155.15137,233.65511 153.59314,230.27893C152.91791,230.64252 152.39848,230.07117 152.45044,229.24011C152.45044,228.92847 152.76208,228.7207 153.38538,228.56488C153.33344,224.56543 157.74843,220.41014 162.7867,220.3582C165.27986,220.30626 167.25362,221.70866 168.18857,224.1499C169.27933,223.94214 169.53902,225.39648 168.55214,225.70813C168.39633,225.70813 168.29245,225.96783 168.29245,226.53918C168.29245,227.21442 167.82497,228.25323 166.99391,229.29205C165.27986,231.36969 163.56581,232.46045 162.16341,233.03181C162.16341,233.03181 162.16341,233.03181 162.16341,233.03181M162.47505,222.69554C160.1377,222.69554 154.83972,225.44843 155.15137,228.14935C155.15137,228.14935 166.42258,224.61737 166.42258,224.61737C165.53958,223.31885 164.1891,222.69554 162.47505,222.69554C162.47505,222.69554 162.47505,222.69554 162.47505,222.69554M155.41107,229.70758C156.13824,231.05804 157.33289,231.52551 158.995,231.47357C160.70906,231.47357 162.89056,230.64252 165.3318,228.66876C166.26674,227.94159 166.57838,227.05859 166.57838,226.33142C166.57838,226.33142 155.41107,229.70758 155.41107,229.70758M171.66861,220.41014C172.65549,220.46208 172.60355,220.98149 172.60355,221.91643C172.60355,221.91643 172.75937,232.97987 172.75937,232.97987C172.60355,233.96675 171.1492,233.91481 171.1492,232.92793C171.1492,232.92793 171.04532,223.37079 171.04532,223.37079C169.17545,222.90331 171.25308,220.15044 171.66861,220.41014C171.66861,220.41014 171.66861,220.41014 171.66861,220.41014M185.79655,225.50037C187.09508,225.50037 189.32855,226.27948 189.43243,228.09741C189.43243,229.08429 188.4975,230.59058 186.26402,232.2527C183.35533,234.38228 181.1738,234.33034 178.42093,232.35658C177.7457,233.3954 176.75882,233.29152 176.603,232.35658C176.49911,231.62939 177.01854,231.26581 177.33017,230.69446C175.51224,226.33142 180.3947,221.60478 184.03056,220.72179C185.48491,220.66985 184.34221,222.95526 184.13445,222.85136C180.55052,224.87708 178.57675,225.55231 178.52481,229.29205C181.01799,226.95471 183.30339,225.39648 185.79655,225.50037C185.79655,225.50037 185.79655,225.50037 185.79655,225.50037M179.82335,230.90222C182.47234,232.20074 184.34221,231.10999 186.83537,229.55176C187.09508,228.98041 187.71838,228.7207 187.87419,227.99353C185.74463,226.07172 181.01799,229.13623 179.82335,230.90222C179.82335,230.90222 179.82335,230.90222 179.82335,230.90222" style="pointer-events:inherit"/><rect id="svg_21" x="15.117187598254532" y="219.51562353689224" width="174.31640968029387" height="14.576345040695742" fill="#000000" opacity="0" style="pointer-events:inherit"/></g><g type="text" text="SMITH" font-size="22.774984653108557" font-family="Freshman" fill="ffffff" text-anchor="start" font-weight="normal" font-style="normal" lineHeight="1" shapeId="0" shapeVal="0" fill-opacity="1" display="null" elemBBoxWidth="80.08984375" stroke="null" stroke-dasharray="none" id="svg_13" style="pointer-events:inherit"><path fill="#ffffff" stroke-width="0" d="M23.72075,196.14674C23.72075,196.14674 18.15375,196.14674 18.15375,196.14674C18.15375,196.14674 15.11721,193.17346 15.11721,193.17346C15.11721,193.17346 15.11721,187.54321 15.11721,187.54321C15.11721,187.54321 18.15375,184.50667 18.15375,184.50667C18.15375,184.50667 26.50425,184.50667 26.50425,184.50667C26.50425,184.50667 29.5408,187.54321 29.5408,187.54321C29.5408,187.54321 29.5408,191.27562 29.5408,191.27562C29.5408,191.27562 24.35337,191.27562 24.35337,191.27562C24.41663,190.2002 24.47989,189.06148 23.72075,188.74518C22.45553,188.80844 20.74747,188.42886 20.3679,189.37779C20.3679,190.45323 20.24138,191.52867 20.93726,191.90823C20.93726,191.90823 26.50425,191.90823 26.50425,191.90823C26.50425,191.90823 29.5408,194.94478 29.5408,194.94478C29.5408,194.94478 29.5408,200.44852 29.5408,200.44852C29.5408,200.44852 26.50425,203.48508 26.50425,203.48508C26.50425,203.48508 18.15375,203.48508 18.15375,203.48508C18.15375,203.48508 15.11721,200.44852 15.11721,200.44852C15.11721,200.44852 15.11721,196.84264 15.11721,196.84264C15.11721,196.84264 20.3679,196.84264 20.3679,196.84264C20.3679,197.85481 20.24138,198.86699 20.93726,199.1833C22.20248,199.12004 23.91054,199.4996 24.35337,198.61394C24.41663,197.53851 24.41663,196.46306 23.72075,196.14674C23.72075,196.14674 23.72075,196.14674 23.72075,196.14674M41.30742,201.14441C41.30742,201.14441 37.19543,194.31218 37.19543,194.31218C37.19543,194.31218 37.19543,199.1833 37.19543,199.1833C37.19543,199.1833 38.33413,199.1833 38.33413,199.1833C38.33413,199.1833 38.33413,203.48508 38.33413,203.48508C38.33413,203.48508 30.80603,203.48508 30.80603,203.48508C30.80603,203.48508 30.80603,199.1833 30.80603,199.1833C30.80603,199.1833 31.94473,199.1833 31.94473,199.1833C31.94473,199.1833 31.94473,188.74518 31.94473,188.74518C31.94473,188.74518 30.80603,188.74518 30.80603,188.74518C30.80603,188.74518 30.80603,184.50667 30.80603,184.50667C30.80603,184.50667 36.94238,184.50667 36.94238,184.50667C36.94238,184.50667 41.30742,191.84499 41.30742,191.84499C41.30742,191.84499 45.73571,184.50667 45.73571,184.50667C45.73571,184.50667 51.80881,184.50667 51.80881,184.50667C51.80881,184.50667 51.80881,188.74518 51.80881,188.74518C51.80881,188.74518 50.6701,188.74518 50.6701,188.74518C50.6701,188.74518 50.6701,199.1833 50.6701,199.1833C50.6701,199.1833 51.80881,199.1833 51.80881,199.1833C51.80881,199.1833 51.80881,203.48508 51.80881,203.48508C51.80881,203.48508 44.34397,203.48508 44.34397,203.48508C44.34397,203.48508 44.34397,199.1833 44.34397,199.1833C44.34397,199.1833 45.48267,199.1833 45.48267,199.1833C45.48267,199.1833 45.48267,194.31218 45.48267,194.31218C45.48267,194.31218 41.30742,201.14441 41.30742,201.14441M60.60213,203.48508C60.60213,203.48508 53.07403,203.48508 53.07403,203.48508C53.07403,203.48508 53.07403,199.1833 53.07403,199.1833C53.07403,199.1833 54.21274,199.1833 54.21274,199.1833C54.21274,199.1833 54.21274,188.74518 54.21274,188.74518C54.21274,188.74518 53.07403,188.74518 53.07403,188.74518C53.07403,188.74518 53.07403,184.50667 53.07403,184.50667C53.07403,184.50667 60.60213,184.50667 60.60213,184.50667C60.60213,184.50667 60.60213,188.74518 60.60213,188.74518C60.60213,188.74518 59.46343,188.74518 59.46343,188.74518C59.46343,188.74518 59.46343,199.1833 59.46343,199.1833C59.46343,199.1833 60.60213,199.1833 60.60213,199.1833C60.60213,199.1833 60.60213,203.48508 60.60213,203.48508C60.60213,203.48508 60.60213,203.48508 60.60213,203.48508M77.87249,189.88388C77.87249,189.88388 73.57072,189.88388 73.57072,189.88388C73.57072,189.88388 73.57072,188.74518 73.57072,188.74518C73.57072,188.74518 72.43201,188.74518 72.43201,188.74518C72.43201,188.74518 72.43201,199.1833 72.43201,199.1833C72.43201,199.1833 73.57072,199.1833 73.57072,199.1833C73.57072,199.1833 73.57072,203.48508 73.57072,203.48508C73.57072,203.48508 66.10587,203.48508 66.10587,203.48508C66.10587,203.48508 66.10587,199.1833 66.10587,199.1833C66.10587,199.1833 67.24458,199.1833 67.24458,199.1833C67.24458,199.1833 67.24458,188.74518 67.24458,188.74518C67.24458,188.74518 66.10587,188.74518 66.10587,188.74518C66.10587,188.74518 66.10587,189.88388 66.10587,189.88388C66.10587,189.88388 61.8041,189.88388 61.8041,189.88388C61.8041,189.88388 61.8041,184.50667 61.8041,184.50667C61.8041,184.50667 77.87249,184.50667 77.87249,184.50667C77.87249,184.50667 77.87249,189.88388 77.87249,189.88388C77.87249,189.88388 77.87249,189.88388 77.87249,189.88388M88.81672,199.1833C88.81672,199.1833 88.81672,196.0835 88.81672,196.0835C88.81672,196.0835 85.14755,196.0835 85.14755,196.0835C85.14755,196.0835 85.14755,199.1833 85.14755,199.1833C85.14755,199.1833 86.28625,199.1833 86.28625,199.1833C86.28625,199.1833 86.28625,203.48508 86.28625,203.48508C86.28625,203.48508 78.75815,203.48508 78.75815,203.48508C78.75815,203.48508 78.75815,199.1833 78.75815,199.1833C78.75815,199.1833 79.89686,199.1833 79.89686,199.1833C79.89686,199.1833 79.89686,188.74518 79.89686,188.74518C79.89686,188.74518 78.75815,188.74518 78.75815,188.74518C78.75815,188.74518 78.75815,184.50667 78.75815,184.50667C78.75815,184.50667 86.28625,184.50667 86.28625,184.50667C86.28625,184.50667 86.28625,188.74518 86.28625,188.74518C86.28625,188.74518 85.14755,188.74518 85.14755,188.74518C85.14755,188.74518 85.14755,191.33888 85.14755,191.33888C85.14755,191.33888 88.81672,191.33888 88.81672,191.33888C88.81672,191.33888 88.81672,188.74518 88.81672,188.74518C88.81672,188.74518 87.678,188.74518 87.678,188.74518C87.678,188.74518 87.678,184.50667 87.678,184.50667C87.678,184.50667 95.20612,184.50667 95.20612,184.50667C95.20612,184.50667 95.20612,188.74518 95.20612,188.74518C95.20612,188.74518 94.06741,188.74518 94.06741,188.74518C94.06741,188.74518 94.06741,199.1833 94.06741,199.1833C94.06741,199.1833 95.20612,199.1833 95.20612,199.1833C95.20612,199.1833 95.20612,203.48508 95.20612,203.48508C95.20612,203.48508 87.678,203.48508 87.678,203.48508C87.678,203.48508 87.678,199.1833 87.678,199.1833C87.678,199.1833 88.81672,199.1833 88.81672,199.1833C88.81672,199.1833 88.81672,199.1833 88.81672,199.1833" id="svg_14" style="pointer-events:inherit"/><rect x="15.11718748243429" y="184.5078086560408" width="80.08672049206614" height="18.977772473903332" fill="#ffffff" opacity="0" id="svg_15" style="pointer-events:inherit"/></g><g id="svg_54" display="null" clip-id="882" stroke="null" stroke-opacity="1"><path id="svg_25" fill="#008000" d="M121.32455827115183,85.3535984837449 C120.99321332845548,85.35542407571566 120.66643236568609,85.39649989505818 120.36931727244186,85.48253091668113 C119.56902339225172,85.71438109697004 118.99282092647465,86.3001679205937 118.43966655932869,87.44412948928294 C117.75826435623551,88.85303009273143 117.87761243132516,89.64373961507498 118.93896596333667,90.75666612026102 C119.58180253604715,91.43076595547107 119.7796510658803,91.56859814926484 120.27073530601979,91.68726162736547 C120.71983093083136,91.79565615063048 120.74653021340401,91.79542795163414 121.63696269715135,91.6715158966175 C122.08172254103232,91.60967396860737 122.61205700854356,91.47321096879169 122.81538231428905,91.36801123147555 C123.34777057276742,91.09280324188063 124.00909126418202,90.35024370776638 124.209449982975,89.80302251452544 C124.55927904437547,88.84732511782278 124.32446227713405,87.06303716538287 123.74050104548118,86.2433463705032 C123.35142175670896,85.69589697826592 122.31790850225184,85.34812170783255 121.32455827115183,85.3535984837449 zM124.87213986836767,98.24364699142109 C124.32674426709752,98.23634462353797 123.791617620663,98.30594531742393 123.3838260141903,98.45838224698396 C122.44524354221366,98.80958050236252 122.07099718820402,99.21874130281331 121.83983160490413,100.14614202396893 C121.54180371567452,101.3428175608144 121.74421622543463,102.3496315326989 122.43314899540724,103.09698324573645 C122.88407021218958,103.58601369490881 123.28935162970248,103.84296576479595 123.81010173936713,103.96961620776871 C124.24596182239057,104.07572874107025 124.23865945450746,104.07618513906291 125.13662250513426,103.9159894436271 C126.08068175302324,103.74757858432275 126.49075534945942,103.51915138897905 127.13496111614796,102.80237834145204 C127.71161997991771,102.16113916171598 127.862915914496,101.66138335971532 127.77688489287306,100.68400705835961 C127.69290766221721,99.73150444760579 127.28716984671163,98.90473948383935 126.77326570693745,98.63911585209105 C126.28994023267376,98.38900975209434 125.57293898615038,98.25300315027134 124.87213986836767,98.24364699142109 zM116.60083904676176,110.05408604737801 C116.14238726309995,110.04724007748757 114.75904494724233,110.20834856890883 114.38959077215597,110.32518645503865 C113.40833508786238,110.63530889107469 112.42228722464549,111.58279112390889 112.19249083532372,112.43557077325895 C112.001488275381,113.14481325390645 112.11604417154737,114.75407257614793 112.39901092701808,115.33689281281909 C112.67878289653993,115.91263888060345 112.83030703011457,116.01144904602182 113.8170394903205,116.25995775304409 C114.77364968300859,116.50093589318692 115.54313669869182,116.45894727785898 116.267896711091,116.12600494218822 C117.08051333708389,115.75267138416396 117.53964971773476,115.31064992823912 117.92964180249237,114.52655817678968 C118.24592561142978,113.89033937497325 118.26395333214123,113.79540859249278 118.22013912484255,112.99123532936468 C118.19047325531739,112.4490345140434 118.10421403469809,112.00062348622086 117.98532235760112,111.76991430091374 C117.73202147165557,111.27951465776326 116.88403400122883,110.12505593524205 116.73502005661402,110.0680061861552 C116.71288475396832,110.05956282329035 116.66633215871346,110.05522704235975 116.60083904676176,110.05408604737801 zM131.46184228589001,112.04215570355609 L130.49838612331152,112.17588031541564 C128.81975430618044,112.4088714906863 128.0904303138543,112.85751071750516 127.54686030455494,113.99211612734416 C127.12195377335618,114.87889742714998 127.08133435200634,115.53382854666685 127.40994090674653,116.21226416280749 C127.7848718577452,116.98677155641039 128.5707892011655,117.37219966124107 129.795076816569,117.3824686160767 C130.34914397970036,117.38703259600365 130.58487354292717,117.33089564290219 131.09626749374158,117.0721179810443 C132.50699368916085,116.35831152046981 132.7616637690845,115.99319312631405 132.7616637690845,114.68766666821088 C132.7616637690845,114.0302253597342 132.71328558185886,113.8081877362882 132.46226668587678,113.31299591421447 C132.29750701051398,112.98804054341585 132.00518409619303,112.56906718612214 131.8121277452832,112.38194400911729 L131.46184228589001,112.04215570355609 zM123.01779482404916,125.31420933111778 C122.84048420388726,125.31420933111778 122.63510510717464,125.32265269398263 122.3934423700428,125.3365728327598 C121.78255365682097,125.3712590802046 121.15934219779635,125.45637730584215 121.00781806422171,125.52552160173539 C120.68788307134275,125.67134076040134 120.01948821104136,126.61060782936701 119.62995252427643,127.46179008574265 C119.38851798614095,127.98961436429406 119.36546988750987,128.1409102988723 119.41932485064783,128.84056842167328 C119.51379923513565,130.06394324109144 119.6644105727249,130.4121749095175 120.21893413384896,130.68669830212332 C121.15614741184751,131.15085506069386 122.62825913728423,131.21703276963459 123.48149518462697,130.8341148537637 C124.04377751162681,130.58172676380357 124.81349272630641,129.89279399383094 125.02777158387659,129.45054433890976 C125.64002949107652,128.1879192921199 125.49055914846898,127.17152096238883 124.52778758287954,126.04649991039642 C124.03875713370718,125.47508962354266 123.78705364073605,125.31466572911046 123.01779482404916,125.31420933111778 zM106.78052343795005,130.52399241772767 C106.69243862535998,130.5233078207386 106.60207182280644,130.52673080568383 106.50919483129306,130.53426137256332 C104.97318738687908,130.65748883059086 104.08412409710982,131.91052951953415 104.08412409710982,133.9515413428648 C104.08412409710982,134.83170487177657 104.0937084549564,134.86844491018846 104.39356193615683,135.12083300014862 C105.0788435221879,135.69726366492202 106.22280509087716,135.84810320150763 107.32591903922022,135.50694570196833 C108.15884537588803,135.2495372340885 108.95023949522064,134.75297621803668 109.08282311209845,134.4045163506143 C109.13873186620353,134.25709979897388 109.18459986446936,133.71603997863437 109.18459986446936,133.20213583886016 C109.18459986446936,132.13690292391075 109.00979943326729,131.6663565934425 108.43428156447928,131.1800645322263 C107.90326249997901,130.73096890741473 107.39780172306965,130.52764360166924 106.78052343795005,130.52399241772767 zM137.41760789155938,131.36627491324575 C136.83296206291752,131.36467752027133 136.19902525106457,131.6672693894279 135.43159202634845,132.27427871971184 C134.62878795719848,132.90844373056112 134.37548707125293,133.5442061343848 134.37548707125293,134.92275627131914 L134.37548707125293,135.98205601236353 L134.90559333976782,136.57697079584105 C135.19700345810338,136.90420815660318 135.53679176366458,137.2284789304127 135.6602474206885,137.2978514253023 C136.16890298354673,137.58332836973284 138.30918137028848,137.59816130449545 138.8513821856098,137.31998672794802 C139.64893767784378,136.91082592749723 140.27169273887566,135.60986344932098 140.1758491604098,134.55307389723646 C140.10442287455308,133.76601555883443 139.70963861087213,132.92624325227618 139.10879065348956,132.28409127655476 C138.53783676462854,131.67388716032195 138.00248191919766,131.36787230622016 137.41760789155938,131.36627491324575 zM119.59709186880244,149.19363690589313 C119.41270707975377,149.07953740771944 118.95881927601891,149.47706005935655 117.64462125605453,150.90330378652746 C116.9292174025056,151.67940857310478 116.20331639512472,152.40462498349663 116.0312543518788,152.51461689973607 C115.81674729531227,152.65199269553716 115.46646183591912,152.7293521552989 114.91764324970376,152.76107181579118 C113.95076410218005,152.81720876889264 113.52220638703972,152.63944175073806 112.84011958695748,151.89939240558363 C112.3446995658874,151.36175557018927 112.08272711808067,150.83986446554286 111.84288997291961,149.9140611373617 C111.68451986945453,149.30157503116544 111.42779599856377,148.47412547040994 111.2548211593325,148.01886847269697 C111.12702972137797,147.68181855509195 110.69367982731436,147.54877854022146 109.94381792531698,147.6158690451476 C109.2373138326256,147.6790801671358 108.966898021954,147.79683084925102 107.25289536038906,148.78561710042408 C105.8433101599515,149.59869012440967 103.90498788497716,150.27096436764893 102.71766850698191,150.35836458324997 C101.70606235617413,150.43298565505555 100.73553202470886,150.15732126746798 99.79945974169205,149.5297740275128 C98.8261910222706,148.87780949494842 98.74061639864036,148.48644821621272 99.2700380701662,147.10995187024554 C99.5530048256369,146.37355370903262 100.0908698600276,145.57577001780228 100.95369026521692,144.61162925823476 C101.72523107186728,143.74972164903085 101.9011724980511,143.40879234848788 101.7001291822691,143.16621681537066 C101.41990081475454,142.82871049977294 99.21983429096977,142.47751224439438 97.3855707583298,142.47774044339073 C96.55424181463643,142.47774044339073 93.58948045409171,142.84902021044786 91.97200596798172,143.155263263546 C89.80662569164174,143.5657932579749 88.99104247869633,143.2011312618118 88.99104247869633,141.8225811248775 C88.99104247869633,140.1695075953373 90.19273839346145,138.59082693860637 93.15476136605001,136.35287938142795 C95.0647869654773,134.90974892852734 95.84089175205462,134.31392134906443 96.31029708754112,133.93054703520087 C96.7511775484842,133.57090541695746 97.28174021499177,132.60220067746297 97.18133265659894,132.34045642865257 C97.09826822192849,132.12389558111892 96.3064177046032,132.11910340219563 94.87218701256015,132.32699268786806 C92.78279700200383,132.629812756021 91.82162282938882,132.4940343531943 91.17467867474407,131.80555798121438 C90.64480060522554,131.24145006224376 90.85588467684684,129.5187758388176 91.59045724608895,128.40950051757315 C92.23968339069715,127.42961402725766 93.45484304624676,126.42941782626724 96.33608357412837,124.50410289408467 C97.87825239144374,123.47332802758373 99.42110580574814,122.5025694971221 99.7645452952509,122.3469377816132 C100.84073176202497,121.85836373043355 101.85074051985833,121.16372598555222 102.51092021629123,120.45790648984988 C102.86097747668805,120.08366013584023 103.1475954161003,119.6872784791849 103.1475954161003,119.57683016495275 C103.1475954161003,119.16835396149102 102.80803530953546,119.1359497040097 101.6129571656644,119.43009821030142 C100.01989997216357,119.82282868301525 99.02632154206724,119.82488247398234 98.18723383249805,119.43717237918821 C97.83489458213772,119.27446649479253 97.41820321480748,119.00701727107347 97.26074590732782,118.8429421926997 C96.98918910167447,118.55929084023998 96.97800735085346,118.5079460660618 97.03596989592569,117.81490571415492 C97.13158527539522,116.67413893141455 97.37279161453436,116.2642935339747 98.75065715447963,114.89852254083584 C100.4489140852966,113.21532674377781 102.0698115563518,111.8536633325732 104.1071721957409,110.3991229298552 C106.03568191387234,109.02194198689898 107.61778555554847,107.62901531319476 108.37426522843992,106.64159825599978 C109.32129106328142,105.40544429278621 110.03509752385591,104.28681281269152 109.99653189347322,104.09877683970132 C109.94861010424026,103.86441647045258 109.71151134703538,103.88244419116403 108.2859522168535,104.22770927263755 C106.4813545537387,104.66493854963906 105.15369279298983,104.53577791770648 104.47457257986014,103.85688590357312 C104.10466200678108,103.48720352949043 104.08435229610616,103.43197937237436 104.08435229610616,102.79849895851414 C104.08435229610616,101.65932956874819 104.52660195102732,100.99207570342855 107.22596787882009,98.06245698832127 C108.9650724299832,96.17502308953242 111.5209011890735,93.24449157843978 111.88989896616715,92.71529810591029 C112.0275029609646,92.51790597406983 112.33579980502986,92.12220891440353 112.57518055219825,91.8358191739876 C114.01260603019017,90.11679613450303 113.66346156577873,88.80465190550579 111.99372950950519,89.65058558496541 C110.95633687211014,90.17612787355334 109.89452694210595,90.33632356898922 109.16771313873966,90.07686131014225 C108.44865810124915,89.8201374392515 107.7273210737952,89.05133502055727 107.7273210737952,88.54176666171365 C107.7273210737952,87.94365709228727 109.46163344603505,85.70068915718922 111.6114961906234,83.51842215511954 C113.4425649373145,81.65951313087403 115.26153913719921,79.39988666904263 115.89319395908865,78.19933174925923 C116.16429436674929,77.68405841550691 116.44657652523097,77.19206137938204 116.52074119904387,77.10625855675544 C116.90251811993295,76.66446529982697 118.29863957958602,74.2793293900045 118.90450791488823,73.03359106894435 C119.74154183349029,71.31251423849265 120.3031395635011,70.5227175121345 120.89280577006264,70.2374687667003 C121.35992911558566,70.01132356132007 121.92289603957457,69.96865034900313 122.34095660088292,70.12747685046088 C122.89844674895949,70.3394737180676 123.84387519082654,71.85882263574823 124.93443819437053,74.29575971774153 C125.45632929901689,75.46162839008012 126.82643607308637,77.46841036395867 127.7129891738958,78.3650042206074 C128.1429160830142,78.79972330864909 129.056624864389,79.56966672232504 129.74327564439815,80.07649669321252 C131.20032623607597,81.15085756801581 133.0302539877853,82.92807135156893 133.5989258866829,83.8205576262834 C133.81776872418,84.16399711578617 134.15116745784348,84.67927044953849 134.33943162983005,84.96566018995439 C134.76456636002516,85.6114633496174 134.96880446175604,86.18447102944558 135.0596276623023,86.98727509859553 L135.12991295317727,87.60843276665301 L134.62422397727153,87.92905235652103 C133.8629521254568,88.41192143279203 133.4542477229987,88.4860861066049 132.00723788716016,88.40439086591257 C130.8762836612627,88.34072334593165 130.72453132869174,88.35213329574903 130.66588418663045,88.50457022530907 C130.55406667842027,88.79620854264094 130.80417277841696,89.40093588296142 131.44084797822606,90.3783121843171 C132.26578735002172,91.64458841504852 133.06471203623377,92.47683015472731 135.91195091365964,95.0369946947482 C137.24349205734637,96.2343548285827 138.46412848880834,97.40912326177884 138.62432418424416,97.64759121296183 C139.022987830863,98.24113680246127 139.47619103760883,99.29746995655314 139.47619103760883,99.63292248118374 C139.47619103760883,100.05737261438979 139.21170840084224,100.59546584777685 138.90363975577333,100.79719376054791 C138.63641873105058,100.97222239074631 138.5700128231135,100.96857120680475 137.15129966282205,100.7002091871003 C135.2798396937775,100.34627254376554 134.83416705391107,100.33851377788974 134.75977418110188,100.65753597478331 C134.64932586686976,101.13059249421137 134.85881254551663,101.87680321226718 135.27002713693454,102.47491278169358 C136.3991557708612,104.11726095840544 140.01314327601415,107.67556790844961 142.5988661036259,109.69102144418937 C143.31449815617117,110.2487397912623 144.02100224886257,110.83931879380924 144.16887519849564,111.00316567318663 C145.07482521399464,112.00655666012591 145.56317106617794,113.77920646375208 145.15309746974174,114.57265437405184 C144.81924233808562,115.21822933471847 142.95348734394966,116.14152247393983 141.98295701248443,116.14152247393983 C141.70409783894794,116.14152247393983 141.11420343339006,116.0666732031379 140.67218197746527,115.97516540560261 C139.64734028486933,115.76316853799591 139.55149670640344,115.83413842585995 139.49718534527275,116.84437538268963 C139.46272729682434,117.4885811493782 139.4862317934481,117.58670671780754 139.7835750856887,118.03123836269222 C140.19159489115776,118.64212707591403 140.81549094717138,119.15511841970289 141.84444022170157,119.72584410956759 C143.6294127711305,120.7159995547187 147.78856767855726,123.70358081489817 148.53523479460577,124.5317149726427 C148.73719090637317,124.75557818805945 149.07675101293802,125.25054181113686 149.28988887552643,125.63163413503693 C149.61530064431778,126.21331337672629 149.67691437333156,126.42188725938777 149.67508878136076,126.93214021522044 C149.6723503934046,127.69204287305712 149.42475448236775,128.25409700106061 148.87456670217426,128.75020161911976 C148.28992087353237,129.2773413006821 147.89992878877476,129.37866165506034 146.6007919025693,129.3412370196594 C145.28819127557938,129.30358418526208 145.15743325067237,129.3823128390019 145.46253530878877,130.02492121271604 C145.80460560431342,130.74603004117367 146.73246272346174,131.5522570952688 148.22077657763913,132.42192347034856 C148.99345837927126,132.87352928411997 149.88115247506244,133.43238862617463 150.19401329905463,133.66401060746716 C151.7872986915518,134.84562501055373 153.94469200301964,137.07056522494037 154.51838427983688,138.12507278706144 C154.79222307545368,138.62825157400735 154.8120763881359,138.74554585812987 154.81276098512492,139.86828492015883 C154.81413017910302,141.9266398672119 154.75069085811845,142.3118397730462 154.30479001925573,142.95924032568362 C154.08937016670384,143.27210114967582 153.81872615703588,143.57857240177034 153.7037138628768,143.63995793178776 C153.40545777465084,143.79946903023455 152.23570971937437,143.6883361190134 151.5173392788729,143.43252504410802 C151.18394054520942,143.31363336701108 150.55297032030902,143.00328273197866 150.1152846453148,142.74267947815 C149.18605833218842,142.18998150899674 148.52747602872995,142.09687631848703 148.31776115108676,142.48892219421174 C148.2200919806501,142.67102499329692 148.25728841705472,142.8211799328935 148.53591939159483,143.3697703201125 C149.12581379715272,144.53221600750587 149.0694486450549,146.151744284583 148.39489241185217,147.42258449524138 C148.02566643576216,148.11813503610807 147.48962699334223,148.48507902223463 147.0167986729105,148.36664374313037 C146.87440249918978,148.33104469970016 146.3780696821343,147.96318791758821 145.91368472456747,147.54969133620685 C144.14673989584995,145.97557465940287 143.80056201839102,145.77407494562814 142.6248807892095,145.63578635384167 C142.18034914432488,145.58352878367813 142.03521458264797,145.6070332803019 141.86840111631804,145.7578728168875 C141.629248568146,145.97443366442113 141.606885066504,146.19829687983787 141.79606203447594,146.48788140620266 C141.99094397735658,146.7865938924213 142.3850436440484,147.79774364523644 142.5541391003418,148.43327785006377 C142.79260705152478,149.32964350771616 142.7449134612882,149.7328711342619 142.3033484033561,150.5445749642694 C141.82367411303397,151.4265640851519 141.29174225254832,151.86288056616806 140.3365012538383,152.1579418684452 C139.72606893860916,152.34643423942802 139.5512685074071,152.35898518422718 138.85754355851117,152.2631416057613 C137.92033028051262,152.13375277483232 136.83068007295404,151.6476889126125 135.8409810257956,150.91722392530463 C134.82640828803528,150.168503018289 133.04942270347848,149.0354950014244 132.52730339983577,148.80455761712093 C131.8406526198266,148.50105295197892 131.77287751791147,148.57088184486122 131.77287751791147,149.58408538864347 C131.77287751791147,150.6703126112568 131.5481015065093,151.1657326323269 130.56798681719746,152.2396371091375 C129.7204557447634,153.16795062627853 129.4730880327229,153.30304443211614 128.61939558738746,153.30304443211614 C123.58532572796497,152.03790919636646 125.21101537794348,146.559079493063 119.59709186880244,149.19363690589313 L119.59709186880244,149.19363690589313 z" stroke-width="0" stroke="null" transform=""/><path id="svg_24" fill="#803300" d="M127.13108173321007,164.4574113735744 C127.19954143211427,164.34650666134962 127.02656659288297,162.170172833185 126.82346948613383,160.5898947834796 C126.7390358574853,159.9315406790175 126.66989156159207,158.87771771388546 126.67034795958477,158.2478884839668 C126.67057615858113,157.61805925404812 126.62425176232261,156.70457867166965 126.56743021223213,156.21783021246077 C126.51038046314531,155.73130995224827 126.41955726259906,154.7213011944149 126.36501770247202,153.97394948137733 C126.31070634134136,153.2268259673361 126.21463456387912,152.4771922643351 126.15119524289457,152.30855320603442 S125.78858703769865,151.74444528706377 125.48599516854205,151.4293024731081 C125.18363149838183,151.1146160571451 124.66493517968428,150.52905743251782 124.33359023698796,150.12833999493182 C123.319245698224,148.9008575935795 121.93270859641751,147.90727916348314 121.41560967069444,148.0371243924048 C120.99481072142993,148.1427805277136 120.94894272316412,148.59598373445942 120.93844556933212,152.73049315028064 C120.93319699241616,154.84863623437673 120.89006738210648,156.98001486026092 120.84283018986258,157.4667633194698 C120.44964331915611,161.50862394277405 120.29789098658514,164.03478683233917 120.43983076231316,164.18083419000143 C120.49916250136349,164.2422197200189 121.69606623720532,164.30976662293767 123.34548858280394,164.34513746737153 C124.88811379811199,164.3782263218419 126.18177390840509,164.43664526490684 126.22033953878781,164.47521089528954 C126.32188809216237,164.57675944866412 127.06650141724376,164.56169831490516 127.13108173321007,164.4574113735744 L127.13108173321007,164.4574113735744 z" stroke-width="0" stroke="null" transform=""/><path id="svg_23" fill="#D40000" d="M121.32455827115183,85.3535984837449 C120.99321332845548,85.35542407571566 120.66643236568609,85.39649989505818 120.36931727244186,85.48253091668113 C119.56902339225172,85.71438109697004 118.99282092647465,86.3001679205937 118.43966655932869,87.44412948928294 C117.75826435623551,88.85303009273143 117.87761243132516,89.64373961507498 118.93896596333667,90.75666612026102 C119.58180253604715,91.43076595547107 119.7796510658803,91.56859814926484 120.27073530601979,91.68726162736547 C120.71983093083136,91.79565615063048 120.74653021340401,91.79542795163414 121.63696269715135,91.6715158966175 C122.08172254103232,91.60967396860737 122.61205700854356,91.47321096879169 122.81538231428905,91.36801123147555 C123.34777057276742,91.09280324188063 124.00909126418202,90.35024370776638 124.209449982975,89.80302251452544 C124.55927904437547,88.84732511782278 124.32446227713405,87.06303716538287 123.74050104548118,86.2433463705032 C123.35142175670896,85.69589697826592 122.31790850225184,85.34812170783255 121.32455827115183,85.3535984837449 zM124.87213986836767,98.24364699142109 C124.32674426709752,98.23634462353797 123.791617620663,98.30594531742393 123.3838260141903,98.45838224698396 C122.44524354221366,98.80958050236252 122.07099718820402,99.21874130281331 121.83983160490413,100.14614202396893 C121.54180371567452,101.3428175608144 121.74421622543463,102.3496315326989 122.43314899540724,103.09698324573645 C122.88407021218958,103.58601369490881 123.28935162970248,103.84296576479595 123.81010173936713,103.96961620776871 C124.24596182239057,104.07572874107025 124.23865945450746,104.07618513906291 125.13662250513426,103.9159894436271 C126.08068175302324,103.74757858432275 126.49075534945942,103.51915138897905 127.13496111614796,102.80237834145204 C127.71161997991771,102.16113916171598 127.862915914496,101.66138335971532 127.77688489287306,100.68400705835961 C127.69290766221721,99.73150444760579 127.28716984671163,98.90473948383935 126.77326570693745,98.63911585209105 C126.28994023267376,98.38900975209434 125.57293898615038,98.25300315027134 124.87213986836767,98.24364699142109 zM116.60083904676176,110.05408604737801 C116.14238726309995,110.04724007748757 114.75904494724233,110.20834856890883 114.38959077215597,110.32518645503865 C113.40833508786238,110.63530889107469 112.42228722464549,111.58279112390889 112.19249083532372,112.43557077325895 C112.001488275381,113.14481325390645 112.11604417154737,114.75407257614793 112.39901092701808,115.33689281281909 C112.67878289653993,115.91263888060345 112.83030703011457,116.01144904602182 113.8170394903205,116.25995775304409 C114.77364968300859,116.50093589318692 115.54313669869182,116.45894727785898 116.267896711091,116.12600494218822 C117.08051333708389,115.75267138416396 117.53964971773476,115.31064992823912 117.92964180249237,114.52655817678968 C118.24592561142978,113.89033937497325 118.26395333214123,113.79540859249278 118.22013912484255,112.99123532936468 C118.19047325531739,112.4490345140434 118.10421403469809,112.00062348622086 117.98532235760112,111.76991430091374 C117.73202147165557,111.27951465776326 116.88403400122883,110.12505593524205 116.73502005661402,110.0680061861552 C116.71288475396832,110.05956282329035 116.66633215871346,110.05522704235975 116.60083904676176,110.05408604737801 zM131.46184228589001,112.04215570355609 L130.49838612331152,112.17588031541564 C128.81975430618044,112.4088714906863 128.0904303138543,112.85751071750516 127.54686030455494,113.99211612734416 C127.12195377335618,114.87889742714998 127.08133435200634,115.53382854666685 127.40994090674653,116.21226416280749 C127.7848718577452,116.98677155641039 128.5707892011655,117.37219966124107 129.795076816569,117.3824686160767 C130.34914397970036,117.38703259600365 130.58487354292717,117.33089564290219 131.09626749374158,117.0721179810443 C132.50699368916085,116.35831152046981 132.7616637690845,115.99319312631405 132.7616637690845,114.68766666821088 C132.7616637690845,114.0302253597342 132.71328558185886,113.8081877362882 132.46226668587678,113.31299591421447 C132.29750701051398,112.98804054341585 132.00518409619303,112.56906718612214 131.8121277452832,112.38194400911729 L131.46184228589001,112.04215570355609 zM123.01779482404916,125.31420933111778 C122.84048420388726,125.31420933111778 122.63510510717464,125.32265269398263 122.3934423700428,125.3365728327598 C121.78255365682097,125.3712590802046 121.15934219779635,125.45637730584215 121.00781806422171,125.52552160173539 C120.68788307134275,125.67134076040134 120.01948821104136,126.61060782936701 119.62995252427643,127.46179008574265 C119.38851798614095,127.98961436429406 119.36546988750987,128.1409102988723 119.41932485064783,128.84056842167328 C119.51379923513565,130.06394324109144 119.6644105727249,130.4121749095175 120.21893413384896,130.68669830212332 C121.15614741184751,131.15085506069386 122.62825913728423,131.21703276963459 123.48149518462697,130.8341148537637 C124.04377751162681,130.58172676380357 124.81349272630641,129.89279399383094 125.02777158387659,129.45054433890976 C125.64002949107652,128.1879192921199 125.49055914846898,127.17152096238883 124.52778758287954,126.04649991039642 C124.03875713370718,125.47508962354266 123.78705364073605,125.31466572911046 123.01779482404916,125.31420933111778 zM106.78052343795005,130.52399241772767 C106.69243862535998,130.5233078207386 106.60207182280644,130.52673080568383 106.50919483129306,130.53426137256332 C104.97318738687908,130.65748883059086 104.08412409710982,131.91052951953415 104.08412409710982,133.9515413428648 C104.08412409710982,134.83170487177657 104.0937084549564,134.86844491018846 104.39356193615683,135.12083300014862 C105.0788435221879,135.69726366492202 106.22280509087716,135.84810320150763 107.32591903922022,135.50694570196833 C108.15884537588803,135.2495372340885 108.95023949522064,134.75297621803668 109.08282311209845,134.4045163506143 C109.13873186620353,134.25709979897388 109.18459986446936,133.71603997863437 109.18459986446936,133.20213583886016 C109.18459986446936,132.13690292391075 109.00979943326729,131.6663565934425 108.43428156447928,131.1800645322263 C107.90326249997901,130.73096890741473 107.39780172306965,130.52764360166924 106.78052343795005,130.52399241772767 zM137.41760789155938,131.36627491324575 C136.83296206291752,131.36467752027133 136.19902525106457,131.6672693894279 135.43159202634845,132.27427871971184 C134.62878795719848,132.90844373056112 134.37548707125293,133.5442061343848 134.37548707125293,134.92275627131914 L134.37548707125293,135.98205601236353 L134.90559333976782,136.57697079584105 C135.19700345810338,136.90420815660318 135.53679176366458,137.2284789304127 135.6602474206885,137.2978514253023 C136.16890298354673,137.58332836973284 138.30918137028848,137.59816130449545 138.8513821856098,137.31998672794802 C139.64893767784378,136.91082592749723 140.27169273887566,135.60986344932098 140.1758491604098,134.55307389723646 C140.10442287455308,133.76601555883443 139.70963861087213,132.92624325227618 139.10879065348956,132.28409127655476 C138.53783676462854,131.67388716032195 138.00248191919766,131.36787230622016 137.41760789155938,131.36627491324575 z" stroke-width="0" stroke="null" transform=""/><path id="svg_22" fill="#24221C" d="M119.59709186880244,149.19363690589313 C119.41270707975377,149.07953740771944 118.95881927601891,149.47706005935655 117.64462125605453,150.90330378652746 C116.9292174025056,151.67940857310478 116.20331639512472,152.4043967845003 116.0312543518788,152.51461689973607 C115.81674729531227,152.65199269553716 115.46646183591912,152.7293521552989 114.91764324970376,152.76107181579118 C113.95076410218005,152.81720876889264 113.52220638703972,152.63944175073806 112.84011958695748,151.89939240558363 C112.3446995658874,151.36175557018927 112.08272711808067,150.83986446554286 111.84288997291961,149.9140611373617 C111.68451986945453,149.30157503116544 111.42779599856377,148.47412547040994 111.2548211593325,148.01886847269697 C111.12702972137797,147.68181855509195 110.69367982731436,147.54877854022146 109.94381792531698,147.6158690451476 C109.2373138326256,147.6790801671358 108.966898021954,147.79683084925102 107.25289536038906,148.78561710042408 C105.8433101599515,149.59869012440967 103.90498788497716,150.27096436764893 102.71766850698191,150.35836458324997 C101.70606235617413,150.43298565505555 100.73553202470886,150.15732126746798 99.79945974169205,149.5297740275128 C98.8261910222706,148.87780949494842 98.74061639864036,148.48644821621272 99.2700380701662,147.10995187024554 C99.5530048256369,146.37355370903262 100.0908698600276,145.57577001780228 100.95369026521692,144.61162925823476 C101.72523107186728,143.74972164903085 101.9011724980511,143.40879234848788 101.7001291822691,143.16621681537066 C101.41990081475454,142.82871049977294 99.21983429096977,142.47751224439438 97.3855707583298,142.47774044339073 C96.55424181463643,142.47774044339073 93.58948045409171,142.84902021044786 91.97200596798172,143.155263263546 C89.80662569164174,143.5657932579749 88.99104247869633,143.2011312618118 88.99104247869633,141.8225811248775 C88.99104247869633,140.1695075953373 90.19273839346145,138.59082693860637 93.15476136605001,136.35287938142795 C95.0647869654773,134.90974892852734 95.84089175205462,134.31392134906443 96.31029708754112,133.93054703520087 C96.7511775484842,133.57090541695746 97.28174021499177,132.60220067746297 97.18133265659894,132.34045642865257 C97.09826822192849,132.12389558111892 96.3064177046032,132.11910340219563 94.87218701256015,132.32699268786806 C92.78279700200383,132.629812756021 91.82162282938882,132.4940343531943 91.17467867474407,131.80555798121438 C90.64480060522554,131.24145006224376 90.85588467684684,129.5187758388176 91.59045724608895,128.40950051757315 C92.23968339069715,127.42961402725766 93.45484304624676,126.42941782626724 96.33608357412837,124.50410289408467 C97.87825239144374,123.47332802758373 99.42110580574814,122.5025694971221 99.7645452952509,122.3469377816132 C100.84073176202497,121.85836373043355 101.85074051985833,121.16372598555222 102.51092021629123,120.45790648984988 C102.86097747668805,120.08366013584023 103.1475954161003,119.6872784791849 103.1475954161003,119.57683016495275 C103.1475954161003,119.16835396149102 102.80803530953546,119.1359497040097 101.6129571656644,119.43009821030142 C100.01989997216357,119.82282868301525 99.02632154206724,119.82488247398234 98.18723383249805,119.43717237918821 C97.83489458213772,119.27446649479253 97.41820321480748,119.00701727107347 97.26074590732782,118.8429421926997 C96.98918910167447,118.55929084023998 96.97800735085346,118.5079460660618 97.03596989592569,117.81490571415492 C97.13158527539522,116.67413893141455 97.37279161453436,116.2642935339747 98.75065715447963,114.89852254083584 C100.4489140852966,113.21532674377781 102.0698115563518,111.8536633325732 104.1071721957409,110.3991229298552 C106.03568191387234,109.02194198689898 107.61778555554847,107.62901531319476 108.37426522843992,106.64159825599978 C109.32129106328142,105.40544429278621 110.03509752385591,104.28681281269152 109.99653189347322,104.09877683970132 C109.94861010424026,103.86441647045258 109.71151134703538,103.88244419116403 108.2859522168535,104.22770927263755 C106.4813545537387,104.66493854963906 105.15369279298983,104.53577791770648 104.47457257986014,103.85688590357312 C104.10466200678108,103.48720352949043 104.08435229610616,103.43197937237436 104.08435229610616,102.79849895851414 C104.08435229610616,101.65932956874819 104.52660195102732,100.99207570342855 107.22596787882009,98.06245698832127 C108.9650724299832,96.17502308953242 111.5209011890735,93.24449157843978 111.88989896616715,92.71529810591029 C112.0275029609646,92.51790597406983 112.33579980502986,92.12220891440353 112.57518055219825,91.8358191739876 C114.01260603019017,90.11679613450303 113.66346156577873,88.80465190550579 111.99372950950519,89.65058558496541 C110.95633687211014,90.17612787355334 109.89452694210595,90.33632356898922 109.16771313873966,90.07686131014225 C108.44865810124915,89.8201374392515 107.7273210737952,89.05133502055727 107.7273210737952,88.54176666171365 C107.7273210737952,87.94365709228727 109.46163344603505,85.70068915718922 111.6114961906234,83.51842215511954 C113.4425649373145,81.65951313087403 115.26153913719921,79.39988666904263 115.89319395908865,78.19933174925923 C116.16429436674929,77.68405841550691 116.44657652523097,77.19206137938204 116.52074119904387,77.10625855675544 C116.90251811993295,76.66446529982697 118.29863957958602,74.2793293900045 118.90450791488823,73.03359106894435 C119.74154183349029,71.31251423849265 120.3031395635011,70.5227175121345 120.89280577006264,70.2374687667003 C121.35992911558566,70.01132356132007 121.92289603957457,69.96865034900313 122.34095660088292,70.12747685046088 C122.89844674895949,70.3394737180676 123.84387519082654,71.85882263574823 124.93443819437053,74.29575971774153 C125.45632929901689,75.46162839008012 126.82643607308637,77.46841036395867 127.7129891738958,78.3650042206074 C128.1429160830142,78.79972330864909 129.056624864389,79.56966672232504 129.74327564439815,80.07649669321252 C131.20032623607597,81.15085756801581 133.0302539877853,82.92807135156893 133.5989258866829,83.8205576262834 C133.81776872418,84.16399711578617 134.15116745784348,84.67927044953849 134.33943162983005,84.96566018995439 C134.76456636002516,85.6114633496174 134.96880446175604,86.18447102944558 135.0596276623023,86.98727509859553 L135.12991295317727,87.60843276665301 L134.62422397727153,87.92905235652103 C133.8629521254568,88.41192143279203 133.4542477229987,88.4860861066049 132.00723788716016,88.40439086591257 C130.8762836612627,88.34072334593165 130.72453132869174,88.35213329574903 130.66588418663045,88.50457022530907 C130.55406667842027,88.79620854264094 130.80417277841696,89.40093588296142 131.44084797822606,90.3783121843171 C132.26578735002172,91.64458841504852 133.06471203623377,92.47683015472731 135.91195091365964,95.0369946947482 C137.24349205734637,96.2343548285827 138.46412848880834,97.40912326177884 138.62432418424416,97.64759121296183 C139.022987830863,98.24113680246127 139.47619103760883,99.29746995655314 139.47619103760883,99.63292248118374 C139.47619103760883,100.05737261438979 139.21170840084224,100.59546584777685 138.90363975577333,100.79719376054791 C138.63641873105058,100.97222239074631 138.5700128231135,100.96857120680475 137.15129966282205,100.7002091871003 C135.2798396937775,100.34627254376554 134.83416705391107,100.33851377788974 134.75977418110188,100.65753597478331 C134.64932586686976,101.13059249421137 134.85881254551663,101.87680321226718 135.27002713693454,102.47491278169358 C136.3991557708612,104.11726095840544 140.01314327601415,107.67556790844961 142.5988661036259,109.69102144418937 C143.31449815617117,110.2487397912623 144.02100224886257,110.83931879380924 144.16887519849564,111.00316567318663 C145.07482521399464,112.00655666012591 145.56317106617794,113.77920646375208 145.15309746974174,114.57265437405184 C144.81924233808562,115.21822933471847 142.95348734394966,116.14152247393983 141.98295701248443,116.14152247393983 C141.70409783894794,116.14152247393983 141.11420343339006,116.0666732031379 140.67218197746527,115.97516540560261 C139.64734028486933,115.76316853799591 139.55149670640344,115.83413842585995 139.49718534527275,116.84437538268963 C139.46272729682434,117.4885811493782 139.4862317934481,117.58670671780754 139.7835750856887,118.03123836269222 C140.19159489115776,118.64212707591403 140.81549094717138,119.15511841970289 141.84444022170157,119.72584410956759 C143.6294127711305,120.7159995547187 147.78856767855726,123.70358081489817 148.53523479460577,124.5317149726427 C148.73719090637317,124.75557818805945 149.07675101293802,125.25054181113686 149.28988887552643,125.63163413503693 C149.61530064431778,126.21331337672629 149.67691437333156,126.42188725938777 149.67508878136076,126.93214021522044 C149.6723503934046,127.69204287305712 149.42475448236775,128.25409700106061 148.87456670217426,128.75020161911976 C148.28992087353237,129.2773413006821 147.89992878877476,129.37866165506034 146.6007919025693,129.3412370196594 C145.28819127557938,129.30358418526208 145.15743325067237,129.3823128390019 145.46253530878877,130.02492121271604 C145.80460560431342,130.74603004117367 146.73246272346174,131.5522570952688 148.22077657763913,132.42192347034856 C148.99345837927126,132.87352928411997 149.88115247506244,133.43238862617463 150.19401329905463,133.66401060746716 C151.7872986915518,134.84562501055373 153.94469200301964,137.07056522494037 154.51838427983688,138.12507278706144 C154.79222307545368,138.62825157400735 154.8120763881359,138.74554585812987 154.81276098512492,139.86828492015883 C154.81413017910302,141.9266398672119 154.75069085811845,142.3118397730462 154.30479001925573,142.95924032568362 C154.08937016670384,143.27210114967582 153.81872615703588,143.57857240177034 153.7037138628768,143.63995793178776 C153.40545777465084,143.79946903023455 152.23570971937437,143.6883361190134 151.5173392788729,143.43252504410802 C151.18394054520942,143.31363336701108 150.55297032030902,143.00328273197866 150.1152846453148,142.74267947815 C149.18605833218842,142.18998150899674 148.52747602872995,142.09687631848703 148.31776115108676,142.48892219421174 C148.2200919806501,142.67102499329692 148.25728841705472,142.8211799328935 148.53591939159483,143.3697703201125 C149.12581379715272,144.53221600750587 149.0694486450549,146.151744284583 148.39489241185217,147.42258449524138 C148.02566643576216,148.11813503610807 147.48962699334223,148.48507902223463 147.0167986729105,148.36664374313037 C146.87440249918978,148.33104469970016 146.3780696821343,147.96318791758821 145.91368472456747,147.54969133620685 C144.14673989584995,145.97557465940287 143.80056201839102,145.77407494562814 142.6248807892095,145.63578635384167 C142.18034914432488,145.58352878367813 142.03521458264797,145.6070332803019 141.86840111631804,145.7578728168875 C141.629248568146,145.97443366442113 141.606885066504,146.19829687983787 141.79606203447594,146.48788140620266 C141.99094397735658,146.7865938924213 142.3850436440484,147.79774364523644 142.5541391003418,148.43327785006377 C142.79260705152478,149.32964350771616 142.7449134612882,149.7328711342619 142.3033484033561,150.5445749642694 C141.82367411303397,151.4265640851519 141.29174225254832,151.86288056616806 140.3365012538383,152.1579418684452 C139.72606893860916,152.34643423942802 139.5512685074071,152.35898518422718 138.85754355851117,152.2631416057613 C137.92033028051262,152.13375277483232 136.83068007295404,151.6476889126125 135.8409810257956,150.91722392530463 C134.82640828803528,150.168503018289 133.04942270347848,149.0354950014244 132.52730339983577,148.80455761712093 C131.8406526198266,148.50105295197892 131.77287751791147,148.57088184486122 131.77287751791147,149.58408538864347 C131.77287751791147,150.6703126112568 131.5481015065093,151.1657326323269 130.56798681719746,152.2396371091375 C129.7204557447634,153.16795062627853 129.4730880327229,153.30304443211614 128.61939558738746,153.30304443211614 C123.58532572796497,152.03790919636646 125.21101537794348,146.559079493063 119.59709186880244,149.19363690589313 zM121.75380058328119,69.19665314436008 C120.20661138804618,69.17155125476187 119.1660239647023,70.58090825620307 118.57430396717362,71.84878187990891 C117.21127136199092,74.5949286019529 115.57942033911104,77.22286824388891 113.83940299196254,79.74925933245039 C111.67105612867005,82.57299371325247 108.71907391192076,84.8009005145916 107.01648120017322,87.97309476281609 C106.58815168402924,89.33019419409376 107.84073597497985,90.59076544991649 109.07597714220802,90.90841845283198 C110.25006097841512,91.23634041058313 111.48119456370904,90.85501988768671 112.52794335995432,90.33449797701842 C111.83262101808396,91.71533010391622 110.67314191764311,92.78923458072683 109.7414054155569,94.0055352312582 C107.77478646503545,96.30966049737734 105.56810217035661,98.42004481559759 103.78974739182173,100.87934539923296 C103.12477551646556,101.97492878069654 102.90593267896847,103.65926557273633 104.00995942329693,104.5533492404252 C105.27851764399182,105.58777529086775 107.06485938739885,105.39403434296885 108.54746826666755,105.0236673718971 C106.44256072435965,108.21000995789511 102.91483243982601,109.96622943378429 100.13650965929708,112.4686596277293 C98.8700052295693,113.58295532689337 97.55306882164876,114.71505054777256 96.64209842823016,116.14882484182294 C96.08529287714263,117.20356060294037 95.83701236911672,118.77471069279187 96.8842175633547,119.6149393973428 C98.12265351653174,120.69614624203652 99.91629762782188,120.7041332069087 101.43290815754635,120.329886852899 C99.96307842207308,121.51104485799289 98.13839924727971,122.15068664475447 96.64438041819363,123.31450152612598 C94.5915022470529,124.68164171324293 92.36975681861514,125.9810067984447 90.87756358149983,127.9950911402064 C90.07407491536082,129.2510984161022 89.64323521025703,131.05250129326814 90.56721294646745,132.35528936341515 C91.63381505539495,133.5446625323775 93.4174184108458,133.38583603091976 94.84754152095462,133.17087257636058 C95.228177446862,133.11427922526642 95.597403422952,133.0487861133147 95.97895214484477,133.02596621368 C95.07596871629832,134.0886889396696 93.7663346762609,134.6826909271617 92.75153373950424,135.6244681850872 C90.83101098624499,137.0678268369842 88.70533733526945,138.73961268422488 88.18732561356097,141.22310236147302 C87.94999865735973,142.35770777131202 88.47919212988923,143.8213761338839 89.7374813957485,144.03702418543216 C91.36476843870142,144.40853215148562 92.9623896121292,143.6689392043239 94.57210533236338,143.58473377467172 C96.55195982467295,143.31021038206586 98.73764981168785,143.13586634885647 100.64379602817722,143.67373138324717 C99.44734869032808,145.0730476288491 98.05875779755448,146.6752327822038 98.14958099810072,148.63546216082753 C98.40835865995862,149.98183623927687 99.83848177006743,150.59728893242564 100.99316869158501,151.00576513588743 C103.34316195596999,151.62372801799603 105.70593436415041,150.53065482549223 107.74922817744454,149.46587830853554 C108.59082607597355,148.98141183929013 109.48468154466613,148.30115063117867 110.51728200313786,148.47777665435152 C111.02456837201802,149.87663650196072 111.19959700221642,151.49662117703056 112.32302066123441,152.58718418057452 C113.55369784853565,153.96870090446134 115.90369111292063,153.9593447456111 117.17384672658997,152.64081094471615 C118.00471927229066,151.82933531370497 118.70551839007334,150.76866637868252 119.66760535867374,150.1059764932898 C119.71917833184827,151.82340213979992 119.69567383522448,155.49261380206895 119.59754826679512,156.84263906445983 C119.54529069663158,157.55827111700512 119.45013171515475,158.94001603988832 119.38555139918842,159.91328475930973 C119.27533128395265,161.57868103465265 119.06607280430214,162.80228405306713 118.69570583323042,163.94921220870893 C118.49511891544111,164.57014167777 118.3645890895304,164.6399705706523 116.50841845324109,165.12352424391236 C115.71497054294136,165.3300443356067 114.98404915764081,165.57307626671658 114.88409799724067,165.6632148702738 C114.61938716147776,165.90145462246045 114.65612719988968,166.28049315539337 114.96373944696592,166.48199286916807 C115.28846661876818,166.69490253276015 115.64468525206638,166.64561154954913 117.33381422302944,166.15475550840603 C120.74881220336746,165.16208987429505 123.47350821975479,164.99345081599435 127.1920108652348,165.54386679518413 C128.93796138628835,165.8024162580457 131.9780284156277,166.4039488124173 132.6580614247428,166.62553003787056 C133.39628517792647,166.86627997901698 133.9444191671528,166.8573802181595 134.10461486258865,166.6015691432541 C134.2750795128601,166.32932774061172 134.0865871418772,166.09747756032283 133.4334816143311,165.77548877647672 C132.5943939047619,165.36176399609897 131.94539595915003,165.1860507689115 130.78454766473106,165.05825933095701 C130.2119963828956,164.99550460696145 129.57691857606093,164.9017148194627 129.37313687232273,164.85014184628824 C128.41447288866755,164.607566313171 128.0644156282707,162.81072741593198 127.77163631595707,156.63452157979106 C127.70317661705286,155.18979373391602 127.65730861878706,154.37626431193772 127.70021003010035,153.91165115537453 C128.64632306895646,154.2277067653156 129.71680456082186,154.21150463657494 130.47898920862198,153.50203395693106 C131.28521626271717,152.78275072044423 132.0652004322324,151.92791728012705 132.4291778314064,150.89645781663702 C132.53209557875908,150.53316501445204 132.58070196498105,150.1570930684716 132.6103678345062,149.78124932148754 C134.74562584332833,150.98910660915405 136.63808012003688,152.9842504342189 139.22083636069613,153.14946650757437 C141.6333561500803,153.3171927698897 143.9854032054324,150.92931847211102 143.4327052362791,148.49238139011774 C143.30902138025886,147.7966026502547 142.93545962323827,147.08964215957062 142.746739053259,146.4741894664218 C144.456862331886,146.7667405797391 145.2651431769483,148.61446785316355 146.85546198249295,149.14845350461638 C147.9998799491749,149.45560935369988 148.91792451148027,148.37873828993676 149.3275417099238,147.43833022598935 C149.88183707205147,146.151744284583 149.9078517576351,144.65932284847136 149.4427822030792,143.34147364456544 C150.75515463107277,144.06463626399017 152.28865188652696,144.85146640339582 153.82808231588612,144.4459567868866 C155.07838461687325,143.98818960021381 155.55509232024286,142.51904446172958 155.63610296394614,141.3025156122019 C155.65686907261377,140.3283340967951 155.69999868292345,139.32631230383387 155.50602953602817,138.37791727501428 C154.93256545820728,136.68741911007317 153.4394594251066,135.5678748339931 152.27290615577894,134.29977301129088 C150.63945773992467,132.74916083111066 148.571518435025,131.77201272875132 146.8045736063075,130.41354410349558 C146.41754810850242,130.1458666807801 146.7616721949942,130.1771299432797 147.04829013440647,130.18831169410075 C148.1685190074756,130.21341358369895 149.3432874406717,129.78782245551113 149.95440435288995,128.79949260233076 C150.8783820891003,127.45517231484857 150.57054164302775,125.54446211843225 149.47016608264084,124.39525197282697 C148.0740446229878,122.67508793836072 146.06771904710192,121.62879554010811 144.34230643571965,120.29725439642132 C143.05640509130234,119.41252688758271 141.541848352545,118.79159741852158 140.5003481332157,117.61317780138384 C140.3643415313927,117.36170250740909 140.25001383422267,117.06458741416483 140.3136813542036,116.7752310867964 C141.71048741084567,117.11912697429185 143.23759509440214,116.97673080057109 144.47352085861937,116.21066676983307 C145.5004163421824,115.73030788252191 146.34452442967122,114.63472450105829 146.10674107547732,113.45653308291696 C145.98054703049723,111.55175606040564 144.59788931162865,110.0246483768492 143.07876859294439,109.01235762905239 C140.4647490897855,106.81731148318723 137.82425850305037,104.56156440429372 135.83208126493804,101.7658985000424 C135.6732547634803,101.52332296692514 135.50393110819056,101.15706357778767 135.9336298183126,101.31566188024908 C137.05248949740366,101.45942724794791 138.30461739036153,102.05776501637065 139.3844550410772,101.46741421282005 C140.46725927874533,100.72531107669847 140.52271163485773,99.1030444116652 139.8260200990093,98.07614892810214 C138.80049380942432,96.08967666489849 136.81516254120243,94.89619591400186 135.28303447972633,93.34604013181436 C133.94031158521855,92.13681365016976 132.59530670074727,90.85775827564287 131.74321164838628,89.24051198852922 C132.997849730304,89.3493629097869 134.33600864488486,89.23822999856579 135.3937109929548,88.492703877499 C136.26634395498704,87.89208411911278 135.92815304240028,86.67190408564352 135.6570526347396,85.83943414696839 C134.9421051791834,83.84269292892911 133.47181904571744,82.20810351809305 131.92417345248975,80.80559248654228 C129.90004835488875,79.07972347716728 127.56374703028462,77.53778285884829 126.31960610219889,75.101530373844 C125.21580755686679,73.27183082113099 124.63024893223951,71.05761595957269 123.01688202806378,69.57751726926378 C122.65176363390799,69.31691401543512 122.20084241712567,69.18638418952443 121.75380058328119,69.19665314436008 zM121.92700362150882,149.32895891072712 C122.51393144011419,149.30933379704123 123.08716731893875,149.49600057605335 123.43151960442688,150.03226821746964 C124.33655682394047,151.12191842502818 125.09509028779905,152.41420934134322 126.29313501862259,153.20377786870503 C126.31983430119524,153.44612520282593 126.34562078778251,153.70535926267652 126.36501770247202,153.9741776803737 C126.41932906360267,154.72152939341126 126.51038046314531,155.73130995224827 126.56720201323577,156.2180584114571 C126.62425176232261,156.70457867166965 126.67057615858113,157.61805925404812 126.67034795958477,158.2478884839668 C126.66989156159207,158.87771771388546 126.7390358574853,159.9315406790175 126.82369768513018,160.59012298247595 C127.02656659288297,162.170172833185 127.19931323311795,164.34650666134962 127.13108173321007,164.4574113735744 C127.06650141724376,164.56169831490516 126.32188809216237,164.57653124966777 126.22079593678052,164.4754390942859 C126.1822303063978,164.43687346390317 124.8885701961047,164.3782263218419 123.34594498079662,164.34536566636788 C121.69629443620167,164.30999482193408 120.4996188993562,164.2424479190152 120.44028716030587,164.18129058799414 C120.29857558357418,164.0350150313355 120.45009971714882,161.50908034076673 120.84328658785529,157.46699151846616 C120.89075197909554,156.9804712582536 120.93365339040884,154.8490926323694 120.9389019673248,152.73094954827332 C120.94278135026275,151.2289437543151 120.95168111112028,150.21710940451098 120.98111878164909,149.52680744056025 C121.2766364819189,149.4145335343574 121.60341744468829,149.34014066154813 121.92700362150882,149.32895891072712 z" stroke-width="0" stroke="null" transform=""/></g><g id="svg_65" display="null" clip-id="287" fill-opacity="1" stroke-opacity="1" stroke="null" transform=""><g id="svg_64" transform="matrix(0.313349 0 0 0.313349 61.4293 59.6816)" stroke="null"><g id="svg_66" stroke="null" transform=""><path fill="#0000ff" d="M340.3090945892334,356.163414970398 L342.3360945892334,344.65741497039795 L330.9200945892334,342.64341497039794 C331.0350945892334,338.02941497039797 330.2700945892334,333.5454149703979 328.7640945892334,329.37441497039794 L338.62909458923343,323.67441497039795 L332.7900945892334,313.55641497039795 L323.03709458923345,319.19141497039794 C320.8620945892334,316.43141497039795 318.3360945892334,313.94141497039794 315.4280945892334,311.89341497039794 L320.0820945892334,301.90541497039794 L309.50209458923337,296.96841497039793 L304.91609458923347,306.8124149703979 C303.58909458923347,306.41941497039795 302.23909458923345,306.07041497039796 300.8430945892334,305.82341497039795 C298.6360945892334,305.43541497039797 296.44509458923346,305.2884149703979 294.2800945892334,305.30141497039796 L292.4150945892334,294.71741497039795 L280.9180945892334,296.74641497039795 L282.7640945892334,307.22641497039797 C279.3170945892334,308.41041497039794 276.07409458923337,310.09541497039794 273.1450945892334,312.22241497039795 L265.63809458923345,304.70841497039794 L257.38209458923336,312.97041497039794 L264.93509458923336,320.52941497039797 C262.8620945892334,323.42341497039797 261.16709458923344,326.63341497039795 259.9950945892334,330.12941497039793 L249.42109458923343,328.264414970398 L247.39409458923345,339.77041497039795 L258.08409458923336,341.6564149703979 C258.06509458923347,346.39741497039796 258.9860945892334,350.98641497039796 260.67609458923346,355.2234149703979 L251.0830945892334,360.76641497039793 L256.9190945892334,370.884414970398 L266.72309458923337,365.221414970398 C268.95509458923345,367.870414970398 271.52209458923346,370.24941497039794 274.45109458923343,372.18941497039793 L269.62909458923343,382.53741497039795 L280.2110945892334,387.47541497039794 L285.0930945892334,376.99941497039794 C286.10409458923345,377.269414970398 287.1300945892334,377.50441497039793 288.18009458923336,377.687414970398 C290.5680945892334,378.1084149703979 292.9380945892334,378.26841497039794 295.2740945892334,378.221414970398 L297.2990945892334,389.72641497039797 L308.7990945892334,387.69841497039795 L306.7550945892334,376.09241497039795 C309.9660945892334,374.937414970398 312.99709458923337,373.35741497039794 315.74709458923337,371.37641497039795 L324.09909458923346,379.73041497039793 L332.35509458923343,371.46941497039796 L324.0110945892334,363.11841497039796 C325.97809458923336,360.39741497039796 327.60509458923343,357.39041497039796 328.7790945892334,354.12841497039796 L340.3090945892334,356.163414970398 zM311.6100945892334,344.77541497039795 C309.94509458923346,354.22441497039796 300.94009458923347,360.53541497039794 291.4960945892334,358.86741497039793 C282.0540945892334,357.20141497039793 275.74709458923337,348.19141497039794 277.4130945892334,338.74241497039793 C279.0780945892334,329.29241497039794 288.0830945892334,322.98241497039794 297.52609458923337,324.64841497039794 S313.2740945892334,335.32541497039796 311.6100945892334,344.77541497039795 z" id="svg_67" stroke-width="0" stroke="null" transform=""/></g></g></g><g display="null" clip-id="287" fill-opacity="1" stroke-opacity="1" id="svg_68" stroke="null" transform=""><g transform="matrix(0.165891 0 0 0.165891 57.9331 57.9491)" id="svg_69" stroke="null"><g id="svg_70" stroke="null" transform=""><path fill="#0000ff" d="M219.9074138220215,333.01609634765623 L221.9344138220215,321.51009634765626 L210.5184138220215,319.49609634765625 C210.6334138220215,314.8820963476563 209.86841382202147,310.39809634765624 208.3624138220215,306.22709634765624 L218.2274138220215,300.52709634765625 L212.3884138220215,290.40909634765626 L202.63541382202146,296.04409634765625 C200.4604138220215,293.28409634765626 197.9344138220215,290.79409634765625 195.02641382202148,288.74609634765625 L199.68041382202148,278.75809634765625 L189.1004138220215,273.82109634765624 L184.51441382202148,283.66509634765623 C183.18741382202148,283.27209634765626 181.83741382202146,282.92309634765627 180.4414138220215,282.67609634765626 C178.2344138220215,282.2880963476563 176.04341382202148,282.14109634765623 173.87841382202146,282.15409634765626 L172.0134138220215,271.57009634765626 L160.5164138220215,273.59909634765626 L162.3624138220215,284.0790963476563 C158.9154138220215,285.26309634765624 155.6724138220215,286.94809634765625 152.74341382202147,289.07509634765626 L145.23641382202146,281.56109634765625 L136.9804138220215,289.82309634765625 L144.5334138220215,297.3820963476563 C142.4604138220215,300.2760963476563 140.76541382202146,303.48609634765626 139.5934138220215,306.98209634765624 L129.01941382202148,305.11709634765623 L126.99241382202149,316.62309634765626 L137.6824138220215,318.5090963476562 C137.66341382202148,323.25009634765627 138.58441382202147,327.83909634765627 140.27441382202147,332.07609634765623 L130.68141382202148,337.61909634765624 L136.51741382202147,347.73709634765623 L146.3214138220215,342.0740963476562 C148.55341382202147,344.7230963476562 151.12041382202148,347.10209634765624 154.0494138220215,349.04209634765624 L149.2274138220215,359.39009634765625 L159.8094138220215,364.32809634765624 L164.6914138220215,353.85209634765624 C165.70241382202147,354.1220963476562 166.72841382202148,354.35709634765624 167.7784138220215,354.54009634765623 C170.16641382202147,354.9610963476562 172.53641382202147,355.12109634765625 174.87241382202149,355.0740963476562 L176.89741382202146,366.5790963476563 L188.39741382202146,364.55109634765626 L186.35341382202148,352.94509634765626 C189.5644138220215,351.79009634765623 192.5954138220215,350.21009634765625 195.3454138220215,348.22909634765625 L203.69741382202147,356.58309634765624 L211.9534138220215,348.32209634765627 L203.6094138220215,339.97109634765627 C205.5764138220215,337.25009634765627 207.2034138220215,334.24309634765626 208.37741382202148,330.98109634765626 L219.9074138220215,333.01609634765623 zM191.2084138220215,321.62809634765625 C189.54341382202148,331.07709634765627 180.53841382202148,337.38809634765624 171.09441382202147,335.72009634765624 C161.65241382202146,334.05409634765624 155.3454138220215,325.04409634765625 157.0114138220215,315.59509634765624 C158.67641382202146,306.14509634765625 167.6814138220215,299.83509634765625 177.1244138220215,301.50109634765624 S192.87241382202149,312.17809634765626 191.2084138220215,321.62809634765625 z" stroke-width="0" id="svg_71" stroke="null" transform=""/></g></g></g><g display="null" clip-id="287" fill-opacity="1" stroke-opacity="1" stroke="null" id="svg_76" transform=""><g transform="matrix(0.165891 0 0 0.165891 57.9331 57.9491)" stroke="null" id="svg_77"><g stroke="null" id="svg_78" transform=""><path fill="#0000ff" d="M183.73910535946698,616.3338547001752 L185.76610535946696,604.8278547001753 L174.35010535946697,602.8138547001752 C174.46510535946697,598.1998547001753 173.700105359467,593.7158547001752 172.19410535946696,589.5448547001752 L182.05910535946697,583.8448547001752 L176.22010535946697,573.7268547001752 L166.46710535946698,579.3618547001752 C164.29210535946697,576.6018547001752 161.76610535946696,574.1118547001752 158.85810535946695,572.0638547001752 L163.51210535946694,562.0758547001752 L152.93210535946696,557.1388547001752 L148.34610535946695,566.9828547001753 C147.01910535946695,566.5898547001752 145.66910535946698,566.2408547001753 144.27310535946697,565.9938547001752 C142.06610535946697,565.6058547001752 139.87510535946694,565.4588547001752 137.71010535946698,565.4718547001753 L135.84510535946697,554.8878547001752 L124.34810535946696,556.9168547001752 L126.19410535946696,567.3968547001753 C122.74710535946696,568.5808547001752 119.50410535946696,570.2658547001752 116.57510535946699,572.3928547001752 L109.06810535946698,564.8788547001752 L100.81210535946695,573.1408547001752 L108.36510535946695,580.6998547001753 C106.29210535946697,583.5938547001751 104.59710535946698,586.8038547001752 103.42510535946695,590.2998547001753 L92.85110535946694,588.4348547001753 L90.82410535946696,599.9408547001752 L101.51410535946695,601.8268547001752 C101.49510535946695,606.5678547001753 102.416105359467,611.1568547001752 104.106105359467,615.3938547001752 L94.51310535946698,620.9368547001752 L100.34910535946699,631.0548547001752 L110.15310535946696,625.3918547001751 C112.38510535946699,628.0408547001753 114.952105359467,630.4198547001752 117.88110535946697,632.3598547001752 L113.05910535946697,642.7078547001752 L123.64110535946696,647.6458547001753 L128.52310535946697,637.1698547001752 C129.534105359467,637.4398547001751 130.56010535946695,637.6748547001753 131.61010535946696,637.8578547001753 C133.998105359467,638.2788547001752 136.368105359467,638.4388547001752 138.70410535946695,638.3918547001751 L140.72910535946698,649.8968547001753 L152.22910535946698,647.8688547001752 L150.18510535946695,636.2628547001752 C153.39610535946696,635.1078547001753 156.42710535946696,633.5278547001752 159.17710535946696,631.5468547001752 L167.529105359467,639.9008547001752 L175.78510535946697,631.6398547001752 L167.44110535946697,623.2888547001753 C169.40810535946696,620.5678547001753 171.03510535946697,617.5608547001752 172.20910535946695,614.2988547001753 L183.73910535946698,616.3338547001752 zM155.04010535946696,604.9458547001752 C153.37510535946694,614.3948547001753 144.37010535946695,620.7058547001752 134.926105359467,619.0378547001752 C125.48410535946698,617.3718547001752 119.17710535946696,608.3618547001752 120.84310535946696,598.9128547001752 C122.50810535946698,589.4628547001753 131.51310535946698,583.1528547001752 140.95610535946696,584.8188547001753 S156.70410535946695,595.4958547001752 155.04010535946696,604.9458547001752 z" stroke-width="0" stroke="null" id="svg_79" transform=""/></g></g></g><g display="null" clip-id="287" fill-opacity="1" stroke-opacity="1" stroke="null" id="svg_80" transform=""><g transform="matrix(0.165891 0 0 0.165891 57.9331 57.9491)" stroke="null" id="svg_81"><g stroke="null" id="svg_82" transform=""><path fill="#0000ff" d="M726.2639518945313,543.9979641015625 L728.2909518945312,532.4919641015625 L716.8749518945313,530.4779641015625 C716.9899518945313,525.8639641015625 716.2249518945313,521.3799641015626 714.7189518945313,517.2089641015625 L724.5839518945313,511.50896410156247 L718.7449518945313,501.39096410156253 L708.9919518945312,507.0259641015625 C706.8169518945313,504.26596410156253 704.2909518945312,501.7759641015625 701.3829518945313,499.7279641015625 L706.0369518945313,489.73996410156246 L695.4569518945312,484.8029641015625 L690.8709518945312,494.6469641015625 C689.5439518945312,494.2539641015625 688.1939518945312,493.90496410156254 686.7979518945313,493.65796410156247 C684.5909518945313,493.2699641015625 682.3999518945312,493.1229641015625 680.2349518945313,493.13596410156254 L678.3699518945313,482.5519641015625 L666.8729518945313,484.5809641015625 L668.7189518945313,495.0609641015625 C665.2719518945312,496.24496410156246 662.0289518945312,497.9299641015625 659.0999518945313,500.05696410156247 L651.5929518945313,492.54296410156246 L643.3369518945312,500.8049641015625 L650.8899518945312,508.3639641015625 C648.8169518945313,511.2579641015625 647.1219518945313,514.4679641015625 645.9499518945313,517.9639641015625 L635.3759518945312,516.0989641015625 L633.3489518945312,527.6049641015625 L644.0389518945312,529.4909641015624 C644.0199518945312,534.2319641015625 644.9409518945313,538.8209641015625 646.6309518945312,543.0579641015624 L637.0379518945313,548.6009641015626 L642.8739518945313,558.7189641015625 L652.6779518945312,553.0559641015625 C654.9099518945312,555.7049641015625 657.4769518945312,558.0839641015625 660.4059518945312,560.0239641015626 L655.5839518945313,570.3719641015625 L666.1659518945312,575.3099641015625 L671.0479518945313,564.8339641015625 C672.0589518945312,565.1039641015625 673.0849518945313,565.3389641015625 674.1349518945312,565.5219641015625 C676.5229518945313,565.9429641015624 678.8929518945313,566.1029641015625 681.2289518945313,566.0559641015625 L683.2539518945313,577.5609641015625 L694.7539518945313,575.5329641015626 L692.7099518945313,563.9269641015625 C695.9209518945313,562.7719641015625 698.9519518945312,561.1919641015625 701.7019518945312,559.2109641015625 L710.0539518945312,567.5649641015625 L718.3099518945312,559.3039641015625 L709.9659518945313,550.9529641015624 C711.9329518945312,548.2319641015625 713.5599518945312,545.2249641015625 714.7339518945313,541.9629641015625 L726.2639518945313,543.9979641015625 zM697.5649518945313,532.6099641015625 C695.8999518945312,542.0589641015625 686.8949518945312,548.3699641015625 677.4509518945313,546.7019641015625 C668.0089518945313,545.0359641015625 661.7019518945312,536.0259641015625 663.3679518945312,526.5769641015625 C665.0329518945313,517.1269641015625 674.0379518945313,510.81696410156246 683.4809518945312,512.4829641015625 S699.2289518945313,523.1599641015625 697.5649518945313,532.6099641015625 z" stroke-width="0" stroke="null" id="svg_83" transform=""/></g></g></g><g display="null" clip-id="287" fill-opacity="1" stroke-opacity="1" stroke="null" id="svg_84" transform=""><g transform="matrix(0.313349 0 0 0.313349 61.4293 59.6816)" stroke="null" id="svg_85"><g stroke="null" id="svg_86" transform=""><path fill="#0000ff" d="M362.8079608496094,148.62791805664062 L364.8349608496094,137.12191805664065 L353.4189608496094,135.10791805664064 C353.5339608496094,130.4939180566406 352.76896084960936,126.00991805664063 351.2629608496094,121.83891805664064 L361.1279608496094,116.13891805664065 L355.2889608496094,106.02091805664065 L345.53596084960935,111.65591805664064 C343.3609608496094,108.89591805664065 340.8349608496094,106.40591805664064 337.9269608496094,104.35791805664064 L342.58096084960937,94.36991805664064 L332.0009608496094,89.43291805664063 L327.4149608496094,99.27691805664062 C326.0879608496094,98.88391805664065 324.73796084960935,98.5349180566406 323.3419608496094,98.28791805664065 C321.1349608496094,97.89991805664062 318.94396084960937,97.75291805664062 316.77896084960935,97.7659180566406 L314.9139608496094,87.1819180566406 L303.4169608496094,89.21091805664065 L305.2629608496094,99.69091805664061 C301.8159608496094,100.87491805664064 298.5729608496094,102.55991805664064 295.64396084960936,104.68691805664065 L288.13696084960935,97.17291805664064 L279.8809608496094,105.43491805664064 L287.4339608496094,112.99391805664061 C285.3609608496094,115.88791805664061 283.66596084960935,119.09791805664065 282.4939608496094,122.59391805664063 L271.91996084960937,120.72891805664062 L269.8929608496094,132.23491805664065 L280.5829608496094,134.12091805664062 C280.5639608496094,138.8619180566406 281.48496084960937,143.4509180566406 283.17496084960936,147.68791805664063 L273.58196084960935,153.23091805664063 L279.41796084960936,163.34891805664063 L289.2219608496094,157.68591805664062 C291.45396084960936,160.33491805664062 294.02096084960937,162.71391805664064 296.9499608496094,164.65391805664063 L292.1279608496094,175.00191805664065 L302.7099608496094,179.93991805664064 L307.5919608496094,169.46391805664064 C308.60296084960936,169.73391805664062 309.62896084960937,169.96891805664063 310.6789608496094,170.15191805664062 C313.06696084960936,170.57291805664062 315.43696084960936,170.73291805664064 317.7729608496094,170.68591805664062 L319.79796084960935,182.1909180566406 L331.29796084960935,180.16291805664065 L329.25396084960937,168.5569180566406 C332.4649608496094,167.40191805664062 335.4959608496094,165.82191805664064 338.2459608496094,163.84091805664065 L346.59796084960936,172.19491805664063 L354.8539608496094,163.9339180566406 L346.5099608496094,155.5829180566406 C348.4769608496094,152.8619180566406 350.1039608496094,149.8549180566406 351.27796084960937,146.5929180566406 L362.8079608496094,148.62791805664062 zM334.1089608496094,137.23991805664065 C332.44396084960937,146.6889180566406 323.4389608496094,152.99991805664064 313.99496084960936,151.33191805664063 C304.55296084960935,149.66591805664063 298.2459608496094,140.65591805664064 299.9119608496094,131.20691805664063 C301.57696084960935,121.75691805664064 310.5819608496094,115.44691805664064 320.0249608496094,117.11291805664064 S335.7729608496094,127.7899180566406 334.1089608496094,137.23991805664065 z" stroke-width="0" stroke="null" id="svg_87" transform=""/></g></g></g><g display="null" clip-id="287" fill-opacity="1" stroke-opacity="1" stroke="null" id="svg_88" transform=""><g transform="matrix(0.313349 0 0 0.313349 61.4293 59.6816)" stroke="null" id="svg_89"><g stroke="null" id="svg_90" transform=""><path fill="#0000ff" d="M37.29233499999998,231.60262092773436 L39.319335000000024,220.09662092773436 L27.903335000000027,218.08262092773438 C28.01833499999998,213.46862092773438 27.253334999999993,208.98462092773437 25.74733500000002,204.81362092773438 L35.61233499999997,199.11362092773436 L29.773334999999975,188.99562092773436 L20.02033499999999,194.63062092773436 C17.845334999999977,191.87062092773436 15.319335000000024,189.38062092773436 12.411335000000008,187.33262092773438 L17.065335000000005,177.34462092773435 L6.4853350000000205,172.40762092773437 L1.8993350000000078,182.2516209277344 C0.5723350000000096,181.85862092773434 -0.7776650000000132,181.50962092773437 -2.173665000000028,181.26262092773436 C-4.380665000000022,180.87462092773438 -6.571664999999996,180.7276209277344 -8.736665000000016,180.74062092773437 L-10.601665000000025,170.15662092773437 L-22.098664999999983,172.18562092773436 L-20.25266499999998,182.66562092773438 C-23.69966499999998,183.84962092773438 -26.942664999999977,185.53462092773438 -29.871665000000007,187.66162092773436 L-37.37866500000001,180.14762092773438 L-45.634664999999984,188.40962092773438 L-38.08166499999999,195.96862092773438 C-40.15466500000002,198.86262092773438 -41.849665000000016,202.07262092773436 -43.021664999999985,205.56862092773437 L-53.595665,203.7036209277344 L-55.622664999999984,215.20962092773436 L-44.932664999999986,217.0956209277344 C-44.95166499999999,221.83662092773437 -44.030665,226.42562092773437 -42.340665,230.66262092773437 L-51.93366500000002,236.20562092773437 L-46.097665000000006,246.32362092773437 L-36.293664999999976,240.66062092773439 C-34.061665000000005,243.3096209277344 -31.494664999999998,245.68862092773438 -28.565665000000024,247.62862092773437 L-33.38766500000003,257.9766209277344 L-22.805664999999976,262.9146209277344 L-17.923665000000028,252.43862092773438 C-16.912665000000004,252.7086209277344 -15.886664999999994,252.94362092773437 -14.836664999999982,253.12662092773436 C-12.448665000000005,253.54762092773439 -10.078665,253.70762092773438 -7.742664999999988,253.66062092773439 L-5.717665000000011,265.1656209277344 L5.782334999999989,263.13762092773436 L3.7383350000000064,251.53162092773437 C6.949335000000019,250.37662092773436 9.980335000000025,248.79662092773438 12.730335000000025,246.8156209277344 L21.082335,255.16962092773437 L29.338334999999972,246.90862092773438 L20.994334999999978,238.55762092773438 C22.96133500000002,235.83662092773437 24.588334999999972,232.82962092773437 25.762335000000007,229.56762092773437 L37.29233499999998,231.60262092773436 zM8.593335000000025,220.2146209277344 C6.928335000000004,229.66362092773437 -2.0766649999999913,235.97462092773438 -11.520665000000008,234.30662092773437 C-20.962665000000015,232.64062092773437 -27.269664999999975,223.63062092773438 -25.603664999999978,214.18162092773437 C-23.938665000000015,204.73162092773435 -14.933665000000019,198.42162092773438 -5.490664999999979,200.08762092773438 S10.257335000000012,210.76462092773437 8.593335000000025,220.2146209277344 z" stroke-width="0" stroke="null" id="svg_91" transform=""/></g></g></g></g><defs><mask id="canvasMaskImageDef" maskUnits="objectBoundingBox" x="0" y="0"><image xmlns:xlink="http://www.w3.org/1999/xlink" id="canvasMaskImage" preserveAspectRatio="none" x="-103.65" y="-36.45" width="400" height="440.0580551523948" xlink:href="http://allinonedesigner.designnbuy.in/media/catalog/product/w/h/white-tees-1_-front_1_3.png"/></mask></defs></svg>