<?xml version="1.0" encoding="utf-8"?>
<!-- Generator: Adobe Illustrator 16.0.0, SVG Export Plug-In . SVG Version: 6.00 Build 0)  -->
<!DOCTYPE svg PUBLIC "-//W3C//DTD SVG 1.1//EN" "http://www.w3.org/Graphics/SVG/1.1/DTD/svg11.dtd">
<svg version="1.1" id="Layer_1" xmlns="http://www.w3.org/2000/svg" xmlns:xlink="http://www.w3.org/1999/xlink" x="0px" y="0px"
	 width="100px" height="100px" viewBox="0 0 100 100" enable-background="new 0 0 100 100" xml:space="preserve">
<path d="M97.273,50.885c-0.195-0.854-1.934-0.561-2.416-0.598c-0.518-0.041-0.959,0.251-1.485,0.352
	c-1.819,0.346-2.963,0.602-4.558,1.576c-1.527,0.932-2.842,2.305-4.355,3.18c-1.921,1.107-4.133,1.527-6.082,2.521
	c-1.391,0.707-3.604,1.993-5.136,2.111c-1.128,0.086-2.253-0.09-3.354,0.098c-1.468,0.251-2.916,0.964-4.414,1.168
	c-0.699-0.057-1.398-0.109-2.098-0.168c-1.719,0.135-3.139,0.564-4.664,1.195c-0.337,0.138-0.675-0.037-0.992,0.203
	c-0.195-0.187-0.305-0.224-0.563-0.213c-0.2-0.597,0.642-4.24,0.898-5.207c0.241-0.521,0.481-1.037,0.723-1.559
	c0.531-2.257,1.916-4.24,2.468-6.653c0.149-0.651,0.239-2.78,0.651-3.244c0.779-0.458,1.559-0.917,2.338-1.374
	c1.713-1.313,3.127-2.886,4.805-4.248c0.4-0.329,0.918-0.441,1.281-0.729c0.897-0.719,1.582-1.688,2.338-2.699
	c1.103-1.476,1.955-2.894,3.093-4.333c0.446-0.566,1.179-0.799,1.687-1.392c0.449-0.53,1.273-2,1.146-2.682
	c-0.015-0.208-0.081-0.233-0.237-0.301c-0.082-0.187,0.073-0.385,0.096-0.615c-0.045-0.211-0.444-0.595-0.599-0.75
	c-0.169,0.046-0.235,0.062-0.377,0.204c-0.048-0.102-0.096-0.203-0.146-0.302c-0.076-0.037-0.153-0.073-0.232-0.108
	c-0.523,0.331-1.336,1.1-1.715,1.662c-0.051,0.007-0.104,0.018-0.15,0.022c-0.611-0.462-0.068-1.227-1.207-1.785
	c-0.164,0.051-0.197,0.057-0.316,0.278c0.33,0.487,1.037,3.291,0.539,3.936c-0.285,0.246-0.573,0.491-0.859,0.736
	c-0.922,0.89-1.738,1.816-2.688,2.536c-0.795,0.561-1.592,1.122-2.385,1.684c-0.521,0.557-0.988,1.527-1.287,1.956
	c-0.375,0.267-0.75,0.537-1.127,0.8c-0.802,0.619-1.453,1.352-2.261,2.025c-1.2,1.008-2.972,0.788-4.331,1.396
	c-0.585,0.261-1.211,0.79-1.667,1.354c-0.172,0.268-0.343,0.537-0.514,0.802c-0.399,0.112-0.8,0.229-1.199,0.343
	c-2.233-1.019-2.25-3.764-2.146-5.673c0.041-0.745,0.272-1.455,0.246-2.06c-0.031-0.706-0.871-1.805-1.511-2.352
	c-0.684-0.587-1.137-1.006-1.893-1.113c-0.236-0.129-0.189,0.065-0.458,0.072c0.023-0.086,0.046-0.169,0.069-0.253
	c-0.235-0.001-0.281,0.168-0.474,0.208c-0.603,0.118-1.203-0.254-1.766-0.063c-0.087-0.088-0.172-0.174-0.258-0.26
	c-0.338,0.226-0.646,0.43-1.042,0.416c-0.023,0.115-0.045,0.231-0.067,0.344c-0.199,0.084-0.154,0.069-0.366-0.026
	c-0.088,0.05-0.014,0.024-0.112,0.042c-0.135,0.262-0.04,0.295-0.08,0.578c-0.092-0.074-0.184-0.146-0.276-0.221
	c-0.006,0.013-0.012,0.027-0.018,0.04c0.04,0.331,0.108,0.672,0.488,0.886c0.053,0.364-0.592,3.03-0.817,3.498
	c0.13,0.237,0.264,0.481,0.479,0.598c-0.113,0.516-0.226,1.031-0.338,1.545c0.173,0.274,0.319,0.319,0.661,0.307
	c-0.023,0.29-0.046,0.578-0.07,0.865c0.069,0.345,1.296,1.976,1.773,2.19c0.356-0.104,0.765-0.094,1.064-0.357
	c0.052,0.025,0.104,0.047,0.155,0.072c-0.011,0.265-0.022,0.526-0.033,0.79c-0.833,0.659-2.073,0.957-3.221,0.727
	c-1.037-0.204-1.741-0.598-2.584-0.441c-1.044,0.2-2.166,0.543-3.136,0.959c-0.584,0.249-1.202,0.723-1.859,0.745
	c-0.589-0.053-1.18-0.104-1.769-0.157c-0.992,0.008-2.036,0.108-2.99,0.126c-1.013,0.021-2.205-0.635-3.185-0.674
	c-1.055-0.039-2.126,0.233-3.136,0.345c-1.35,0.147-3.048,0.055-4.477-0.233c-1.146-0.229-1.301-2.88-3.287-3.411
	c-0.037,0.013-0.076,0.027-0.113,0.043c-0.041,0.123-0.082,0.245-0.123,0.368c0.378,0.476,0.757,0.949,1.135,1.425
	c0.045,0.112,0.036,0.033,0.005,0.192c-1.42-0.171-4.377,0.412-5.349,1.347c-0.03,0.098-0.059,0.194-0.088,0.29
	c0.452,0.363,3.933,1.619,4.771,1.739c0.424,0.037,0.846,0.078,1.271,0.114c2.896,0.619,5.658,1.646,8.457,1.839
	c2.507,0.173,4.886-0.145,7.426,0.085c2.197,0.198,3.11,0.198,5.021-0.229c0.437-0.096,1.133-0.237,1.56,0.204
	c0.521,0.539,0.587,1.456,0.812,2.126c0.725,2.148,1.206,4.189,1.46,6.536c0.167,0.862,0.334,1.731,0.5,2.595
	c-0.007,0.653-0.501,1.116-0.643,1.592c-0.185,0.623-0.322,1.243-0.481,1.855c-0.884,0.816-2.224,0.281-3.364,0.427
	c-0.751,0.125-1.501,0.249-2.252,0.374c-0.829,0.294-1.658,0.588-2.486,0.882c-0.234,0.126-0.466,0.255-0.699,0.384
	c-1.379,0.252-2.899,0.457-4.451,0.631c-1.105,0.125-2.637,1.138-3.799,1.267c-1.13,0.092-2.258,0.183-3.387,0.272
	c-0.583-0.032-1.167-0.066-1.749-0.103c-1.979,0.247-4.084,0.222-6.155,0.127c-2.129-0.096-4.373-1.162-6.446-1.282
	c-1.718-0.104-3.037,0.252-4.549,0.537c-1.048,0.196-2.045-0.129-2.939,0.528c-0.157,0.305-0.151,0.394,0.017,0.573
	c0.474,0.496,1.044,0.011,1.422,0.095c0.042,0.008,1.273,0.388,1.318,0.42c0.197,0.135,0.607,0.548,1.036,0.621
	c0.612,0.176,1.225,0.347,1.837,0.521c0.571,0.338,1.874,1.916,2.918,1.967c0.74,0.037,1.035-0.758,1.658-1.029
	c0.579-0.249,1.616-0.175,2.3-0.069c1.232,0.196,2.491,0.802,3.831,1.117c1.337,0.313,2.664,0.479,3.917,0.728
	c0.923,0.18,1.566,0.494,2.356,0.521c1.113,0.043,2.577,0.094,3.6-0.223c0.921-0.281,1.794-0.871,2.75-1.041
	c1.772-0.314,3.667,0.451,5.597,0.468c1.894-0.181,3.789-0.356,5.682-0.533c1.766,0.029,3.532,0.06,5.296,0.091
	c1.296-0.16,2.446-1.121,3.704-1.26c0.506-0.061,1.033,0.225,1.603,0.313c0.828,0.13,1.705,0.024,2.49-0.074
	c1.571-0.2,3.026-1.215,4.537-1.629c2.034-0.563,4.323-1.065,6.192-2.049c1.431-0.752,2.76-1.699,4.188-2.405
	c1.127-0.562,2.583-0.313,3.859-0.481c1.229-0.406,2.459-0.814,3.687-1.224c0.86-0.433,1.563-1.099,2.386-1.685
	c1.051-0.748,2.241-1.431,3.33-2.189c0.887-0.723,1.771-1.445,2.659-2.168c0.474-0.316,1.341-0.841,1.933-0.809
	c0.724,0.041,1.404,0.688,2.023,0.326c1.027-0.604,1.225-2.416,1.75-3.065c0.195-0.116,0.389-0.229,0.585-0.343
	c0.899-0.676,1.582-1.812,2.582-2.209c0.453-0.181,0.842,0.094,1.258-0.267C97.264,51.184,97.299,51.021,97.273,50.885z"/>
</svg>
