<?xml version="1.0" encoding="utf-8"?>
<!-- Generator: Adobe Illustrator 16.0.0, SVG Export Plug-In . SVG Version: 6.00 Build 0)  -->
<!DOCTYPE svg PUBLIC "-//W3C//DTD SVG 1.1//EN" "http://www.w3.org/Graphics/SVG/1.1/DTD/svg11.dtd">
<svg version="1.1" id="Layer_1" xmlns="http://www.w3.org/2000/svg" xmlns:xlink="http://www.w3.org/1999/xlink" x="0px" y="0px"
	 width="15.678px" height="26.214px" viewBox="8.616 1.891 15.678 26.214" enable-background="new 8.616 1.891 15.678 26.214"
	 xml:space="preserve">
<path d="M22.221,10.853c-0.111-0.414-0.261-0.412,0.221-1.539l1.66-3.519c0.021-0.051,0.2-0.412,0.192-0.946
	c0.015-0.529-0.313-1.289-1.119-1.642c-1.172-0.555-1.17-0.557-2.344-1.107c-0.784-0.396-1.581-0.171-1.979,0.179
	c-0.42,0.333-0.584,0.7-0.608,0.75L16.58,6.545c-0.564,1.084-0.655,0.97-1.048,1.147c-0.47,0.129-1.244,0.558-1.785,1.815
	c-1.108,2.346-1.108,2.346-1.108,2.346l-0.276,0.586l1.171,0.553l-3.6,7.623c-0.38,0.827-0.166,1.436-0.166,2.032
	c0.01,0.627-0.077,1.509-0.876,3.209l-0.275,0.586l3.517,1.662l0.276-0.586c0.808-1.699,1.431-2.326,1.922-2.717
	c0.46-0.381,1.065-0.6,1.465-1.42l3.599-7.617l1.172,0.553l0.279-0.588c0,0,0,0,1.105-2.346
	C22.578,12.166,22.419,11.301,22.221,10.853z M14.623,22.83c-0.156,0.353-0.413,0.438-1.091,0.955
	c-0.577,0.448-1.265,1.172-2.01,2.6l-1.19-0.562c0.628-1.48,0.75-2.475,0.729-3.203c-0.03-0.852-0.128-1.104,0.045-1.449l3.6-7.621
	l3.517,1.662L14.623,22.83z"/>
</svg>
