<svg xmlns="http://www.w3.org/2000/svg" xmlns:se="http://svg-edit.googlecode.com" xmlns:xlink="http://www.w3.org/1999/xlink" id="svgcontent" width="205.65" height="395.85" x="0" y="0" viewBox="0 0 205.65 395.85" overflow="hidden"><g mask="" style="pointer-events:all"><title style="pointer-events:inherit">Layer 1</title><g id="svg_4" display="null" fill-opacity="1" stroke-opacity="1" transform="" clip-id="857"><g id="svg_10" transform="matrix(0.529053, 0, 0, 0.529053, -149.939, -332.507)"><path d="M533.45958,879.56726C538.30358,873.42926 543.44762,867.17126 548.89366,860.67224C554.34068,854.02325 560.83763,846.14026 565.9536,840.51422C571.00865,834.82721 574.43761,830.10425 579.16258,827.27625C583.79564,824.38824 588.42967,823.27521 593.75463,823.81726C599.01964,824.32825 605.93968,825.56226 610.69261,830.43622C615.29564,835.34021 621.64366,845.14825 621.73461,852.67023C621.76366,859.95123 623.14757,860.43225 611.02464,874.30225C598.59862,888.23224 573.6566,911.60919 548.6256,935.37726C523.44164,959.05524 482.76561,996.51227 461.85958,1015.3764C441.0696,1034.05933 436.40657,1036.01526 424.4316,1047.23633C412.39656,1058.36829 401.89656,1069.62231 390.25359,1081.92737C378.46059,1094.17029 366.87657,1106.65833 354.69158,1120.07532C355.62459,1122.60229 355.53459,1124.92029 354.54158,1127.14526C353.48857,1129.34131 351.08159,1132.25928 348.49459,1133.22229C345.78658,1134.03528 341.12358,1133.97424 338.68657,1132.35034C336.18959,1130.57532 334.14357,1126.27234 333.81258,1123.17432C333.48158,1119.98523 334.38457,1116.01331 336.52059,1114.02832C338.59657,1112.07031 341.69557,1111.25928 346.05757,1111.59033C353.06758,1103.58728 361.31157,1094.16833 371.60057,1082.76831C381.79958,1071.30432 393.56359,1059.87231 406.8926,1043.59436C420.2206,1027.10632 438.0616,1001.53424 450.42757,985.07721C462.5226,968.62018 468.47957,959.50421 479.43059,945.54327C490.50261,931.40228 506.53868,912.35822 515.80467,901.28619C524.83068,890.24121 530.63964,883.08026 533.46361,879.56024L533.45958,879.56726zM533.45958,879.56726L533.47362,879.57825C538.31761,873.44025 543.46166,867.18225 548.90758,860.68427C554.3546,854.03522 560.85167,846.15222 565.96764,840.52722C571.02269,834.83923 574.45165,830.11725 579.17162,827.29224C583.04869,824.87524 586.92467,823.70221 591.20665,823.70221C592.03868,823.70221 592.88658,823.74622 593.75267,823.83527C599.01659,824.34625 605.93163,825.57922 610.68065,830.44824C615.2816,835.34924 621.62767,845.15723 621.71764,852.66925C621.72264,854.07123 621.77867,855.22125 621.77867,856.26227C621.77867,860.62524 620.80065,863.08826 611.01158,874.28925C598.58666,888.21722 573.64464,911.59528 548.61363,935.36322C523.42967,959.0412 482.75463,996.49823 461.84859,1015.36237C441.05959,1034.04529 436.39656,1036.00024 424.42061,1047.22327C412.38558,1058.35535 401.88457,1069.60925 390.24159,1081.91431C378.44856,1094.15735 366.86458,1106.64636 354.67958,1120.06335L354.67256,1120.07129L354.67558,1120.0813C355.11257,1121.26526 355.32457,1122.40125 355.32457,1123.50427C355.32457,1124.7533 355.05257,1125.95825 354.52559,1127.13831C353.47557,1129.33032 351.06859,1132.24634 348.48857,1133.2063L348.49459,1133.22327L348.48958,1133.20532C347.40459,1133.53137 346.00359,1133.71729 344.55757,1133.71729C342.40257,1133.71729 340.14958,1133.3053 338.69658,1132.3363C336.20659,1130.56628 334.16057,1126.26526 333.83058,1123.17334C333.78658,1122.74524 333.76357,1122.30432 333.76357,1121.85535C333.76357,1118.95935 334.68859,1115.75427 336.53258,1114.04333C338.30358,1112.37231 340.82158,1111.53833 344.23958,1111.53833C344.81957,1111.53833 345.42458,1111.56128 346.05559,1111.60925L346.06459,1111.61023L346.07057,1111.60327C353.08058,1103.60034 361.32457,1094.18127 371.61357,1082.78137C381.81258,1071.31824 393.57659,1059.88635 406.9056,1043.6073C420.23458,1027.11829 438.07558,1001.54523 450.44057,985.08917C462.5356,968.63129 468.49257,959.5152 479.44359,945.55621C490.51464,931.4162 506.55162,912.37128 515.81761,901.30023C524.84361,890.25525 530.65257,883.09424 533.47667,879.57422L533.44969,879.55121L533.44664,879.55426L533.45958,879.56726L533.47362,879.57825L533.45958,879.56726L533.47362,879.57922L533.47667,879.57623L533.46263,879.56421L533.4486,879.55322C530.62462,883.07324 524.81566,890.23425 515.78966,901.27924C506.52367,912.35028 490.4876,931.3952 479.4146,945.53619C468.4626,959.49725 462.50557,968.6142 450.4106,985.07025C438.04561,1001.52826 420.20357,1027.09924 406.87657,1043.5863C393.54857,1059.86328 381.78557,1071.29529 371.58559,1082.76025C361.29558,1094.16028 353.05257,1103.57922 346.04259,1111.58228L346.05657,1111.59436L346.05757,1111.57629C345.42458,1111.52722 344.81859,1111.50427 344.23857,1111.50427C340.81459,1111.50427 338.28557,1112.34033 336.50759,1114.01929C334.65157,1115.74231 333.72658,1118.95325 333.72658,1121.85632C333.72658,1122.30627 333.74858,1122.75037 333.79259,1123.17834C334.12557,1126.28235 336.17058,1130.58533 338.67458,1132.36633C340.13857,1133.34229 342.39659,1133.7533 344.55559,1133.7533C346.00459,1133.7533 347.40859,1133.56726 348.49758,1133.24133L348.49758,1133.24036L348.49758,1133.24036C351.09258,1132.27429 353.49959,1129.35437 354.55458,1127.1543C355.08357,1125.96936 355.35658,1124.7583 355.35658,1123.50525C355.35658,1122.39832 355.14357,1121.25732 354.70558,1120.07031L354.68859,1120.07629L354.70159,1120.08826C366.88658,1106.67126 378.47057,1094.18433 390.26357,1081.94128C401.90758,1069.63525 412.40657,1058.38135 424.44057,1047.25024C436.41359,1036.03027 441.07759,1034.07336 461.86861,1015.3913C482.77464,996.52728 523.45067,959.07025 548.63463,935.39117C573.66564,911.62323 598.60863,888.24524 611.03465,874.31421C620.82262,863.11621 621.81066,860.63824 621.80968,856.26324C621.80968,855.22125 621.75365,854.07123 621.74767,852.67023C621.65563,845.13922 615.30565,835.33124 610.70067,830.42426C605.94164,825.54523 599.01659,824.31122 593.75157,823.79926C592.88866,823.71124 592.03868,823.66724 591.20568,823.66724C586.91661,823.66724 583.03258,824.84222 579.1516,827.26221C574.42259,830.09326 570.99364,834.81824 565.93859,840.50421C560.8236,846.13025 554.32665,854.01324 548.87865,860.66223C543.43358,867.16022 538.28868,873.41925 533.44469,879.55725L533.47167,879.58026L533.45958,879.56726zM533.95958,882.45721C531.13561,885.97723 525.32665,893.13824 516.28368,904.17828C507.01769,915.25018 490.98162,934.29523 479.90959,948.43524C468.9576,962.3952 463.00057,971.51129 450.90657,987.9682C438.54158,1004.48627 420.6996,1030.02832 407.37157,1046.48633C394.07356,1062.67334 382.36959,1073.92432 372.14058,1085.11633C361.88158,1096.2793 353.57759,1105.45422 346.53658,1113.09631C342.59557,1112.34326 339.82759,1113.03528 337.90157,1114.9303C335.97658,1116.8573 334.83357,1121.70129 335.28459,1124.58923C335.73558,1127.41833 338.17259,1130.42627 340.51958,1131.66028C342.65557,1132.68127 346.62657,1132.05029 348.61257,1131.38928C350.53859,1130.78723 351.89159,1130.00525 352.55358,1127.99036C353.21559,1125.88525 353.21559,1122.87634 352.55358,1118.84436C364.04659,1107.08032 375.17858,1095.7373 386.40059,1084.12329C397.53258,1072.50928 407.43059,1061.28833 419.34456,1049.88635C431.19856,1038.42224 436.64461,1035.02234 457.25356,1016.12836C477.89357,996.96417 516.97667,960.40924 542.24767,936.64117C567.43065,912.75226 594.32665,888.53326 607.38463,874.66321C620.23168,860.88324 618.69762,861.63623 619.14867,854.53522C619.50865,847.25421 613.85362,836.78424 609.73168,832.06024C605.51866,827.36725 599.32164,826.97626 594.26659,826.70526C589.15257,826.34424 584.27867,827.33722 579.64464,830.16522C574.92064,832.99323 571.49169,837.71625 566.43663,843.40326C561.32262,849.02924 554.82469,856.91223 549.37767,863.56122C543.93163,870.06024 538.78661,876.31824 533.94261,882.45624L533.95958,882.45721zM533.94359,882.45624L533.95763,882.46722C538.80162,876.32922 543.94567,870.0722 549.39269,863.57324C554.83861,856.92426 561.33666,849.04126 566.45165,843.41626C571.50658,837.72821 574.93566,833.00726 579.65465,830.18225C583.68163,827.72424 587.88964,826.65326 592.27965,826.65326C592.93761,826.65326 593.5996,826.67725 594.26659,826.72424C599.32164,826.99426 605.51268,827.38623 609.71861,832.07324C613.71263,836.64825 619.14867,846.62921 619.14757,853.86023C619.14757,854.08826 619.14256,854.31323 619.13158,854.53522C618.67858,861.63824 620.21959,860.86823 607.37157,874.65222C594.31566,888.5202 567.41869,912.7403 542.23558,936.62921C516.96459,960.39728 477.88155,996.95319 457.24159,1016.11639C436.63356,1035.01025 431.18758,1038.41028 419.3326,1049.87524C407.41759,1061.27734 397.51958,1072.49927 386.38759,1084.1123C375.16558,1095.72534 364.03359,1107.06934 352.54058,1118.83325L352.53459,1118.84033L352.53557,1118.84924C352.86659,1120.86426 353.03157,1122.62329 353.03157,1124.14124S352.86659,1126.93628 352.53658,1127.98633C351.87557,1129.99634 350.53157,1130.77234 348.60658,1131.37427C347.37657,1131.7843 345.38158,1132.18323 343.53658,1132.18323C342.40758,1132.18323 341.33357,1132.0343 340.52657,1131.64734L340.51857,1131.66431L340.52657,1131.64832C338.18556,1130.41736 335.75057,1127.41125 335.30058,1124.58923C335.23458,1124.16626 335.20256,1123.69934 335.20256,1123.20728C335.20156,1120.34729 336.27556,1116.58228 337.91258,1114.94531C339.32158,1113.55933 341.18257,1112.81824 343.62758,1112.81824C344.51659,1112.81824 345.48158,1112.91626 346.53057,1113.11633L346.54058,1113.11829L346.54759,1113.11023C353.58858,1105.46729 361.89159,1096.29333 372.15157,1085.13025C382.38057,1073.94031 394.08458,1062.68835 407.38356,1046.50024C420.7126,1030.04126 438.55361,1004.49823 450.9186,987.98126C463.01357,971.52325 468.9706,962.40729 479.92162,948.44818C490.9926,934.30829 507.02965,915.26324 516.29564,904.1922C525.33861,893.15125 531.14769,885.99121 533.97167,882.47125L533.99266,882.44525L533.94359,882.44122L533.94359,882.45624L533.95763,882.46722L533.94359,882.45624L533.94164,882.47424L533.95763,882.47522L533.95958,882.45721L533.94567,882.44623C531.12169,885.96625 525.31261,893.12726 516.26964,904.1673C507.00365,915.23822 490.96764,934.28326 479.89464,948.42426C468.94258,962.38422 462.98555,971.50128 450.89058,987.95819C438.52559,1004.47626 420.68355,1030.01831 407.35658,1046.47534C394.05959,1062.66125 382.35658,1073.91333 372.12657,1085.10535C361.86757,1096.26831 353.56359,1105.44324 346.52257,1113.08435L346.53557,1113.09729L346.53859,1113.07922C345.48757,1112.8783 344.51958,1112.78027 343.62856,1112.78027C341.17555,1112.78027 339.30358,1113.52429 337.88756,1114.91833C336.23958,1116.56824 335.16756,1120.3363 335.16658,1123.20532C335.16658,1123.69934 335.19856,1124.16736 335.26558,1124.59326C335.71858,1127.4303 338.15758,1130.44031 340.50957,1131.67737L340.50957,1131.67834C341.32457,1132.06824 342.40257,1132.21729 343.53557,1132.21729C345.38658,1132.21729 347.38259,1131.81824 348.61659,1131.40637C350.54357,1130.8053 351.9056,1130.01733 352.56957,1127.99634C352.90157,1126.94031 353.06658,1125.66028 353.06658,1124.14026S352.90059,1120.85925 352.56957,1118.84229L352.55159,1118.84534L352.56459,1118.85828C364.05757,1107.09436 375.18959,1095.75134 386.41258,1084.13733C397.54457,1072.52234 407.44258,1061.30225 419.35555,1049.90027C431.20955,1038.43726 436.65456,1035.03723 457.2646,1016.14337C477.90456,996.97919 516.98766,960.42328 542.25963,936.65521C567.44261,912.76617 594.33763,888.54724 607.39659,874.67621C620.24364,860.90125 618.71568,861.63525 619.16564,854.53723C619.1776,854.31421 619.1826,854.08826 619.1826,853.86023C619.18163,846.61224 613.74364,836.63226 609.74462,832.04926C605.52464,827.34924 599.32164,826.95923 594.26659,826.68823C593.5996,826.64124 592.93663,826.61725 592.27757,826.61725C587.88158,826.61725 583.66759,827.69025 579.63365,830.15125C574.90563,832.98224 571.47667,837.70721 566.42162,843.39221C561.3076,849.01825 554.80968,856.90222 549.36266,863.55121C543.91661,870.05023 538.77159,876.30823 533.9276,882.44623L533.9066,882.47223L533.93859,882.47522L533.94359,882.45624zM584.69762,845.26923C586.05162,848.00726 592.61058,851.61823 593.81261,851.10626C594.80565,850.47424 592.48961,844.66821 591.16564,841.93024C589.75267,839.10223 586.9536,834.01721 585.90062,834.55927C584.7556,835.12921 583.31761,842.41125 584.69762,845.26923L584.69762,845.26923zM604.31261,836.03223C606.3286,838.61926 611.86461,844.57623 613.36864,844.96826C614.78258,845.23926 615.02257,840.99725 613.03758,838.28925C610.81163,835.52124 602.65758,829.35321 601.09361,828.96222C599.62267,828.63123 602.23863,833.26422 604.31163,836.03223L604.31261,836.03223zM584.69762,865.27625C581.26769,867.29224 572.96459,876.64923 565.8336,882.78625C558.7036,888.86322 543.99059,902.25226 542.45568,901.47028C540.89269,900.4472 550.06761,885.31323 556.53758,877.31024C562.94567,869.27722 575.40062,857.54321 580.66661,853.93323C585.81163,850.35321 586.89464,856.16022 587.61559,855.79822C588.24864,855.37726 587.16466,851.25525 584.81761,851.43622C582.47069,851.52625 579.31163,851.43622 573.4746,856.61127C567.36766,861.78625 555.96361,872.91821 549.34459,882.24426C542.72667,891.51123 532.82762,909.80328 534.39269,911.69928C536.10765,913.32428 550.12767,899.66522 558.82164,892.77521C567.30565,885.82526 580.84569,875.35522 585.26866,870.75226C589.53063,866.02521 587.8756,863.34723 584.68358,865.27325L584.69762,865.27625zM557.95458,901.44025C553.77269,904.26825 549.65062,907.27728 542.46068,913.59528C535.11962,919.94318 517.03661,940.10126 514.66063,939.01825C512.34459,937.66425 522.90367,916.12225 528.47069,906.19427C534.03563,896.26617 546.46068,882.45624 547.63561,879.86926C548.50768,877.28223 540.17369,883.63025 534.57762,890.55023C528.89061,897.34918 518.63158,911.4903 514.4796,920.78729C510.29662,930.02325 507.55968,944.13422 510.20763,945.81927C512.97667,947.29327 521.12865,938.62823 530.72765,930.38422C540.26464,922.08026 562.40868,901.41119 567.10167,896.5672C571.58861,891.67322 562.0786,898.5932 557.95763,901.45123L557.95458,901.44025zM504.46666,958.53925C504.25768,957.39325 488.91362,969.84723 486.85759,968.98517C484.81163,967.90228 489.17461,960.35028 492.30358,952.94928C495.4326,945.42828 506.89464,922.26129 505.09068,924.87921C502.95568,927.76727 483.48961,960.53119 480.45061,969.22723C477.53255,977.56122 483.33959,977.44025 487.43059,975.60529C491.52361,973.7403 504.40062,959.66022 504.45958,958.5462L504.46666,958.53925zM462.45558,980.60126C461.43257,980.54022 454.78359,992.99725 455.38558,995.91425C455.92757,998.74225 459.56758,1000.75824 465.73555,997.77826C471.87361,994.58917 480.08562,988.06122 491.8806,977.83124C503.64464,967.5412 530.57164,941.93829 535.74669,937.00421C540.59068,932.16022 528.10362,943.05121 521.60558,948.79828C514.95763,954.51422 504.99864,963.93121 496.84459,970.91119C488.6306,977.86127 479.2426,985.23224 473.22658,989.65521C467.26961,993.89728 463.11757,997.50824 461.34261,996.0932C459.54561,994.4472 463.39858,980.69025 462.4626,980.60724L462.45558,980.60126zM455.95857,1009.03033C448.85457,1012.09735 444.79256,1012.58234 443.65657,1010.47638C442.4836,1008.25031 444.25856,1003.58722 448.98256,996.15424C443.8376,1004.45819 441.09957,1009.87335 440.8896,1012.88141C440.70857,1015.71039 444.95156,1014.35638 447.56856,1013.6944C450.12557,1012.97137 452.77358,1011.52838 455.9626,1009.03131L455.95857,1009.03033zM450.24257,1016.40033C448.7386,1016.91034 433.15157,1027.98328 430.86959,1027.56531C428.64357,1026.96228 436.5566,1014.7774 436.97658,1013.06342C437.24758,1011.3183 434.87056,1014.08539 432.9756,1017.18536C431.05055,1020.28339 424.55159,1030.06226 425.66457,1031.44629C426.68758,1032.62024 435.02156,1027.41431 439.1736,1024.88733C443.26558,1022.29938 451.59957,1015.95038 450.24556,1016.40338L450.24257,1016.40033zM426.95357,1036.46826C423.67458,1038.42432 417.6266,1042.06433 416.45357,1041.70325C415.2806,1041.16223 420.57558,1033.79028 420.03456,1033.73132C419.40261,1033.67029 414.43855,1038.63428 412.93358,1041.19226C411.33959,1043.6593 409.38356,1048.29333 410.88759,1048.47229C412.36257,1048.53333 417.68758,1045.01331 421.86861,1041.97424C426.02059,1038.78625 434.77559,1030.96228 435.70857,1029.99927C436.46059,1029.13025 430.17659,1034.42932 426.95058,1036.47729L426.95357,1036.46826zM350.50759,1118.72131C353.33559,1116.04236 358.81157,1110.56824 367.74758,1101.36328C376.68358,1091.94434 393.6816,1073.53235 403.64058,1063.42432C413.56859,1053.37634 424.82161,1043.56824 426.71657,1041.43127C428.3716,1039.26526 420.84957,1044.44031 414.14058,1050.57727C407.37056,1056.74634 397.02156,1066.43335 386.46059,1077.68628C375.62959,1088.78833 356.76558,1110.05725 350.62758,1117.0083C344.60658,1123.84436 347.58559,1121.28723 350.50359,1118.73035L350.50759,1118.72131zM350.59758,1113.58228C350.38759,1114.1543 354.86959,1108.28723 359.53359,1103.41333C364.01659,1098.47827 377.52559,1085.33032 377.79659,1084.63928C377.97658,1084.06726 365.58159,1094.35828 361.03859,1099.38232C356.4056,1104.27832 350.86959,1112.76233 350.59859,1113.58032L350.59859,1113.58228L350.59758,1113.58228zM381.31557,1080.51233C381.28557,1081.02429 386.55058,1073.98425 390.49159,1070.28333C394.31258,1066.43225 404.54158,1058.85034 404.57259,1058.21936C404.54259,1057.67725 394.31258,1063.09326 390.49159,1066.91333C386.55058,1070.68335 381.28456,1079.85828 381.31557,1080.51831L381.31557,1080.51233zM456.13759,1020.52338C453.55055,1021.39532 451.2336,1021.69733 448.73659,1021.30536C446.23958,1020.85541 443.23055,1019.58929 441.45558,1018.08636C439.68056,1016.43134 438.53755,1014.50433 437.9056,1011.97833C437.21358,1009.41937 436.82259,1006.59442 437.06355,1003.16327L424.78859,1020.13141C425.66158,1023.44135 427.13558,1025.96729 429.33156,1027.95435C431.43758,1029.9093 435.25856,1031.23328 437.90657,1031.68335C440.55458,1032.01428 442.87056,1031.53333 445.09761,1030.12024C448.77455,1026.9353 452.45156,1023.74335 456.14559,1020.52533L456.13759,1020.52338zM548.65257,930.02228C546.45665,933.12128 575.09862,904.44928 585.0266,893.91827C594.83568,883.32825 603.89061,875.44525 607.20067,867.38226C610.26964,859.28925 603.98058,846.92322 603.89061,845.72021C603.80065,844.63721 607.23058,855.28723 606.50865,860.25226C605.66564,864.97522 608.49364,862.62823 598.86461,874.33221C589.04564,886.06622 551.07762,926.56219 548.66258,930.02228L548.65257,930.02228zM590.95763,878.60522C591.22862,878.45422 601.24767,865.87726 602.81163,861.18524C604.28661,856.49225 600.04259,850.59521 599.83263,850.68524C599.53258,850.74524 602.60265,856.58221 601.1566,861.33527C599.5266,866.02826 590.71068,878.51422 590.95262,878.60522L590.95763,878.60522zM343.67757,1113.58826C340.72957,1116.56433 339.40557,1119.06226 339.46559,1121.19324C339.52559,1123.32922 342.02257,1125.91736 344.15859,1126.15833C346.20458,1126.24829 348.67159,1124.89233 351.67958,1121.97632C347.97859,1122.99731 345.39159,1123.39026 343.91759,1123.0293C342.38359,1122.60828 342.56359,1121.52429 342.59358,1119.90027C342.53359,1118.30432 342.89458,1116.19934 343.67659,1113.5813L343.67659,1113.58826L343.67757,1113.58826z" id="svg_11" fill="#ffffff" stroke="#ffffff" stroke-width="3"/></g></g><g display="null" fill-opacity="1" stroke-opacity="1" id="svg_15" transform="" clip-id="857"><g transform="matrix(-0.529053, 0, 0, 0.529053, 364.591, -332.507)" id="svg_19"><path d="M550.47551,879.56726C555.3195,873.42926 560.46355,867.17126 565.90959,860.67224C571.35661,854.02325 577.85356,846.14026 582.96953,840.51422C588.02458,834.82721 591.45354,830.10425 596.17851,827.27625C600.81157,824.38824 605.4456,823.27521 610.77055,823.81726C616.03557,824.32825 622.95561,825.56226 627.70854,830.43622C632.31157,835.34021 638.65959,845.14825 638.75053,852.67023C638.77959,859.95123 640.1635,860.43225 628.04057,874.30225C615.61455,888.23224 590.67253,911.60919 565.64153,935.37726C540.45757,959.05524 499.78157,996.51227 478.87553,1015.3764C458.08556,1034.05933 453.42253,1036.01526 441.44756,1047.23633C429.41252,1058.36829 418.91252,1069.62231 407.26955,1081.92737C395.47655,1094.17029 383.89253,1106.65833 371.70753,1120.07532C372.64055,1122.60229 372.55055,1124.92029 371.55754,1127.14526C370.50453,1129.34131 368.09755,1132.25928 365.51054,1133.22229C362.80254,1134.03528 358.13954,1133.97424 355.70253,1132.35034C353.20555,1130.57532 351.15953,1126.27234 350.82854,1123.17432C350.49754,1119.98523 351.40053,1116.01331 353.53654,1114.02832C355.61253,1112.07031 358.71153,1111.25928 363.07353,1111.59033C370.08354,1103.58728 378.32753,1094.16833 388.61653,1082.76831C398.81554,1071.30432 410.57954,1059.87231 423.90855,1043.59436C437.23656,1027.10632 455.07756,1001.53424 467.44353,985.07721C479.53856,968.62018 485.49553,959.50421 496.44655,945.54327C507.51857,931.40228 523.55461,912.35822 532.8206,901.28619C541.8466,890.24121 547.65556,883.08026 550.47954,879.56024L550.47551,879.56726zM550.47551,879.56726L550.48955,879.57825C555.33354,873.44025 560.47758,867.18225 565.92351,860.68427C571.37053,854.03522 577.8676,846.15222 582.98357,840.52722C588.03862,834.83923 591.46758,830.11725 596.18755,827.29224C600.06462,824.87524 603.9406,823.70221 608.22258,823.70221C609.05461,823.70221 609.90251,823.74622 610.7686,823.83527C616.03252,824.34625 622.94756,825.57922 627.69658,830.44824C632.29753,835.34924 638.6436,845.15723 638.73357,852.66925C638.73857,854.07123 638.7946,855.22125 638.7946,856.26227C638.7946,860.62524 637.81657,863.08826 628.02751,874.28925C615.60258,888.21722 590.66057,911.59528 565.62956,935.36322C540.4456,959.0412 499.77058,996.49823 478.86455,1015.36237C458.07555,1034.04529 453.41252,1036.00024 441.43657,1047.22327C429.40154,1058.35535 418.90053,1069.60925 407.25755,1081.91431C395.46452,1094.15735 383.88054,1106.64636 371.69554,1120.06335L371.68852,1120.07129L371.69154,1120.0813C372.12852,1121.26526 372.34053,1122.40125 372.34053,1123.50427C372.34053,1124.7533 372.06853,1125.95825 371.54155,1127.13831C370.49153,1129.33032 368.08455,1132.24634 365.50453,1133.2063L365.51054,1133.22327L365.50554,1133.20532C364.42055,1133.53137 363.01955,1133.71729 361.57353,1133.71729C359.41853,1133.71729 357.16554,1133.3053 355.71254,1132.3363C353.22255,1130.56628 351.17653,1126.26526 350.84654,1123.17334C350.80254,1122.74524 350.77953,1122.30432 350.77953,1121.85535C350.77953,1118.95935 351.70454,1115.75427 353.54854,1114.04333C355.31953,1112.37231 357.83754,1111.53833 361.25554,1111.53833C361.83553,1111.53833 362.44054,1111.56128 363.07155,1111.60925L363.08055,1111.61023L363.08653,1111.60327C370.09654,1103.60034 378.34053,1094.18127 388.62953,1082.78137C398.82854,1071.31824 410.59254,1059.88635 423.92155,1043.6073C437.25053,1027.11829 455.09154,1001.54523 467.45653,985.08917C479.55156,968.63129 485.50853,959.5152 496.45955,945.55621C507.53059,931.4162 523.56755,912.37128 532.83354,901.30023C541.85954,890.25525 547.6685,883.09424 550.4926,879.57422L550.46562,879.55121L550.46257,879.55426L550.47551,879.56726L550.48955,879.57825L550.47551,879.56726L550.48955,879.57922L550.4926,879.57623L550.47856,879.56421L550.46452,879.55322C547.64055,883.07324 541.83159,890.23425 532.80559,901.27924C523.5396,912.35028 507.50356,931.3952 496.43056,945.53619C485.47856,959.49725 479.52153,968.6142 467.42656,985.07025C455.06157,1001.52826 437.21953,1027.09924 423.89253,1043.5863C410.56453,1059.86328 398.80153,1071.29529 388.60155,1082.76025C378.31154,1094.16028 370.06853,1103.57922 363.05855,1111.58228L363.07253,1111.59436L363.07353,1111.57629C362.44054,1111.52722 361.83455,1111.50427 361.25453,1111.50427C357.83055,1111.50427 355.30153,1112.34033 353.52354,1114.01929C351.66753,1115.74231 350.74254,1118.95325 350.74254,1121.85632C350.74254,1122.30627 350.76454,1122.75037 350.80855,1123.17834C351.14153,1126.28235 353.18654,1130.58533 355.69054,1132.36633C357.15453,1133.34229 359.41255,1133.7533 361.57155,1133.7533C363.02055,1133.7533 364.42455,1133.56726 365.51353,1133.24133L365.51353,1133.24036L365.51353,1133.24036C368.10854,1132.27429 370.51555,1129.35437 371.57054,1127.1543C372.09953,1125.96936 372.37254,1124.7583 372.37254,1123.50525C372.37254,1122.39832 372.15953,1121.25732 371.72154,1120.07031L371.70454,1120.07629L371.71754,1120.08826C383.90254,1106.67126 395.48653,1094.18433 407.27953,1081.94128C418.92354,1069.63525 429.42253,1058.38135 441.45653,1047.25024C453.42955,1036.03027 458.09355,1034.07336 478.88457,1015.3913C499.7906,996.52728 540.4666,959.07025 565.65056,935.39117C590.68156,911.62323 615.62456,888.24524 628.05058,874.31421C637.83855,863.11621 638.82658,860.63824 638.82561,856.26324C638.82561,855.22125 638.76958,854.07123 638.7636,852.67023C638.67155,845.13922 632.32158,835.33124 627.7166,830.42426C622.95757,825.54523 616.03252,824.31122 610.7675,823.79926C609.90459,823.71124 609.05461,823.66724 608.2216,823.66724C603.93254,823.66724 600.04851,824.84222 596.16753,827.26221C591.43852,830.09326 588.00957,834.81824 582.95451,840.50421C577.83952,846.13025 571.34258,854.01324 565.89458,860.66223C560.44951,867.16022 555.30461,873.41925 550.46062,879.55725L550.48759,879.58026L550.47551,879.56726zM550.97551,882.45721C548.15154,885.97723 542.34258,893.13824 533.29961,904.17828C524.03362,915.25018 507.99757,934.29523 496.92555,948.43524C485.97356,962.3952 480.01653,971.51129 467.92253,987.9682C455.55754,1004.48627 437.71556,1030.02832 424.38753,1046.48633C411.08952,1062.67334 399.38554,1073.92432 389.15654,1085.11633C378.89754,1096.2793 370.59355,1105.45422 363.55254,1113.09631C359.61153,1112.34326 356.84355,1113.03528 354.91753,1114.9303C352.99254,1116.8573 351.84953,1121.70129 352.30055,1124.58923C352.75154,1127.41833 355.18855,1130.42627 357.53554,1131.66028C359.67152,1132.68127 363.64253,1132.05029 365.62852,1131.38928C367.55455,1130.78723 368.90755,1130.00525 369.56953,1127.99036C370.23155,1125.88525 370.23155,1122.87634 369.56953,1118.84436C381.06255,1107.08032 392.19453,1095.7373 403.41655,1084.12329C414.54854,1072.50928 424.44655,1061.28833 436.36052,1049.88635C448.21452,1038.42224 453.66057,1035.02234 474.26952,1016.12836C494.90953,996.96417 533.9926,960.40924 559.2636,936.64117C584.44658,912.75226 611.34258,888.53326 624.40056,874.66321C637.2476,860.88324 635.71355,861.63623 636.1646,854.53522C636.52458,847.25421 630.86955,836.78424 626.7476,832.06024C622.53459,827.36725 616.33757,826.97626 611.28252,826.70526C606.1685,826.34424 601.2946,827.33722 596.66057,830.16522C591.93657,832.99323 588.50761,837.71625 583.45256,843.40326C578.33855,849.02924 571.84062,856.91223 566.3936,863.56122C560.94756,870.06024 555.80254,876.31824 550.95854,882.45624L550.97551,882.45721zM550.95952,882.45624L550.97356,882.46722C555.81755,876.32922 560.96159,870.0722 566.40862,863.57324C571.85454,856.92426 578.35258,849.04126 583.46758,843.41626C588.52251,837.72821 591.95158,833.00726 596.67058,830.18225C600.69756,827.72424 604.90556,826.65326 609.29558,826.65326C609.95354,826.65326 610.61552,826.67725 611.28252,826.72424C616.33757,826.99426 622.52861,827.38623 626.73454,832.07324C630.72856,836.64825 636.1646,846.62921 636.1635,853.86023C636.1635,854.08826 636.15849,854.31323 636.14751,854.53522C635.6945,861.63824 637.23552,860.86823 624.3875,874.65222C611.33159,888.5202 584.43462,912.7403 559.25151,936.62921C533.98051,960.39728 494.89751,996.95319 474.25755,1016.11639C453.64952,1035.01025 448.20354,1038.41028 436.34856,1049.87524C424.43355,1061.27734 414.53554,1072.49927 403.40355,1084.1123C392.18153,1095.72534 381.04955,1107.06934 369.55653,1118.83325L369.55055,1118.84033L369.55153,1118.84924C369.88255,1120.86426 370.04753,1122.62329 370.04753,1124.14124S369.88255,1126.93628 369.55254,1127.98633C368.89153,1129.99634 367.54753,1130.77234 365.62254,1131.37427C364.39253,1131.7843 362.39754,1132.18323 360.55254,1132.18323C359.42354,1132.18323 358.34953,1132.0343 357.54253,1131.64734L357.53453,1131.66431L357.54253,1131.64832C355.20152,1130.41736 352.76653,1127.41125 352.31654,1124.58923C352.25053,1124.16626 352.21852,1123.69934 352.21852,1123.20728C352.21751,1120.34729 353.29152,1116.58228 354.92854,1114.94531C356.33754,1113.55933 358.19853,1112.81824 360.64354,1112.81824C361.53255,1112.81824 362.49754,1112.91626 363.54652,1113.11633L363.55653,1113.11829L363.56355,1113.11023C370.60454,1105.46729 378.90755,1096.29333 389.16753,1085.13025C399.39653,1073.94031 411.10054,1062.68835 424.39952,1046.50024C437.72856,1030.04126 455.56956,1004.49823 467.93456,987.98126C480.02953,971.52325 485.98656,962.40729 496.93758,948.44818C508.00856,934.30829 524.04558,915.26324 533.31157,904.1922C542.35454,893.15125 548.16362,885.99121 550.98759,882.47125L551.00859,882.44525L550.95952,882.44122L550.95952,882.45624L550.97356,882.46722L550.95952,882.45624L550.95757,882.47424L550.97356,882.47522L550.97551,882.45721L550.96159,882.44623C548.13762,885.96625 542.32854,893.12726 533.28557,904.1673C524.01958,915.23822 507.9836,934.28326 496.9106,948.42426C485.95854,962.38422 480.00151,971.50128 467.90654,987.95819C455.54155,1004.47626 437.69951,1030.01831 424.37254,1046.47534C411.07555,1062.66125 399.37254,1073.91333 389.14253,1085.10535C378.88353,1096.26831 370.57954,1105.44324 363.53853,1113.08435L363.55153,1113.09729L363.55455,1113.07922C362.50352,1112.8783 361.53554,1112.78027 360.64452,1112.78027C358.19151,1112.78027 356.31953,1113.52429 354.90352,1114.91833C353.25554,1116.56824 352.18352,1120.3363 352.18254,1123.20532C352.18254,1123.69934 352.21452,1124.16736 352.28154,1124.59326C352.73454,1127.4303 355.17354,1130.44031 357.52553,1131.67737L357.52553,1131.67834C358.34053,1132.06824 359.41853,1132.21729 360.55153,1132.21729C362.40254,1132.21729 364.39854,1131.81824 365.63255,1131.40637C367.55952,1130.8053 368.92155,1130.01733 369.58553,1127.99634C369.91753,1126.94031 370.08253,1125.66028 370.08253,1124.14026S369.91655,1120.85925 369.58553,1118.84229L369.56755,1118.84534L369.58055,1118.85828C381.07353,1107.09436 392.20555,1095.75134 403.42854,1084.13733C414.56053,1072.52234 424.45854,1061.30225 436.37151,1049.90027C448.22551,1038.43726 453.67052,1035.03723 474.28056,1016.14337C494.92052,996.97919 534.00359,960.42328 559.27556,936.65521C584.45854,912.76617 611.35356,888.54724 624.41252,874.67621C637.25957,860.90125 635.73161,861.63525 636.18156,854.53723C636.19353,854.31421 636.19853,854.08826 636.19853,853.86023C636.19756,846.61224 630.75957,836.63226 626.76054,832.04926C622.54057,827.34924 616.33757,826.95923 611.28252,826.68823C610.61552,826.64124 609.95256,826.61725 609.2935,826.61725C604.89751,826.61725 600.68352,827.69025 596.64958,830.15125C591.92155,832.98224 588.4926,837.70721 583.43755,843.39221C578.32353,849.01825 571.82561,856.90222 566.37859,863.55121C560.93254,870.05023 555.78752,876.30823 550.94353,882.44623L550.92253,882.47223L550.95451,882.47522L550.95952,882.45624zM601.71355,845.26923C603.06755,848.00726 609.62651,851.61823 610.82854,851.10626C611.82158,850.47424 609.50554,844.66821 608.18156,841.93024C606.7686,839.10223 603.96953,834.01721 602.91655,834.55927C601.77153,835.12921 600.33354,842.41125 601.71355,845.26923L601.71355,845.26923zM621.32854,836.03223C623.34453,838.61926 628.88054,844.57623 630.38457,844.96826C631.79851,845.23926 632.0385,840.99725 630.05351,838.28925C627.82756,835.52124 619.67351,829.35321 618.10954,828.96222C616.6386,828.63123 619.25456,833.26422 621.32756,836.03223L621.32854,836.03223zM601.71355,865.27625C598.28362,867.29224 589.98051,876.64923 582.84953,882.78625C575.71953,888.86322 561.00652,902.25226 559.4716,901.47028C557.90862,900.4472 567.08354,885.31323 573.55351,877.31024C579.96159,869.27722 592.41655,857.54321 597.68254,853.93323C602.82756,850.35321 603.91057,856.16022 604.63152,855.79822C605.26457,855.37726 604.18059,851.25525 601.83354,851.43622C599.48662,851.52625 596.32756,851.43622 590.49052,856.61127C584.38359,861.78625 572.97954,872.91821 566.36052,882.24426C559.7426,891.51123 549.84355,909.80328 551.40862,911.69928C553.12358,913.32428 567.1436,899.66522 575.83757,892.77521C584.32158,885.82526 597.86162,875.35522 602.28459,870.75226C606.54655,866.02521 604.89153,863.34723 601.69951,865.27325L601.71355,865.27625zM574.9705,901.44025C570.78862,904.26825 566.66655,907.27728 559.47661,913.59528C552.13554,919.94318 534.05254,940.10126 531.67656,939.01825C529.36052,937.66425 539.9196,916.12225 545.48662,906.19427C551.05156,896.26617 563.47661,882.45624 564.65154,879.86926C565.52361,877.28223 557.18962,883.63025 551.59355,890.55023C545.90654,897.34918 535.64751,911.4903 531.49553,920.78729C527.31255,930.02325 524.57561,944.13422 527.22356,945.81927C529.9926,947.29327 538.14458,938.62823 547.74358,930.38422C557.28056,922.08026 579.42461,901.41119 584.1176,896.5672C588.60454,891.67322 579.09453,898.5932 574.97356,901.45123L574.9705,901.44025zM521.48259,958.53925C521.27361,957.39325 505.92958,969.84723 503.87355,968.98517C501.82759,967.90228 506.19057,960.35028 509.31953,952.94928C512.44856,945.42828 523.91057,922.26129 522.10661,924.87921C519.97163,927.76727 500.50557,960.53119 497.46657,969.22723C494.54851,977.56122 500.35555,977.44025 504.44655,975.60529C508.53957,973.7403 521.41655,959.66022 521.47551,958.5462L521.48259,958.53925zM479.47154,980.60126C478.44853,980.54022 471.79955,992.99725 472.40154,995.91425C472.94353,998.74225 476.58354,1000.75824 482.75151,997.77826C488.88957,994.58917 497.10158,988.06122 508.89656,977.83124C520.66057,967.5412 547.58757,941.93829 552.76262,937.00421C557.60661,932.16022 545.11955,943.05121 538.62151,948.79828C531.97356,954.51422 522.01457,963.93121 513.86055,970.91119C505.64656,977.86127 496.25856,985.23224 490.24254,989.65521C484.28557,993.89728 480.13353,997.50824 478.35857,996.0932C476.56157,994.4472 480.41454,980.69025 479.47856,980.60724L479.47154,980.60126zM472.97453,1009.03033C465.87053,1012.09735 461.80852,1012.58234 460.67253,1010.47638C459.49956,1008.25031 461.27452,1003.58722 465.99852,996.15424C460.85356,1004.45819 458.11552,1009.87335 457.90556,1012.88141C457.72453,1015.71039 461.96751,1014.35638 464.58452,1013.6944C467.14153,1012.97137 469.78954,1011.52838 472.97856,1009.03131L472.97453,1009.03033zM467.25853,1016.40033C465.75456,1016.91034 450.16753,1027.98328 447.88554,1027.56531C445.65953,1026.96228 453.57256,1014.7774 453.99254,1013.06342C454.26353,1011.3183 451.88652,1014.08539 449.99156,1017.18536C448.06651,1020.28339 441.56755,1030.06226 442.68053,1031.44629C443.70354,1032.62024 452.03752,1027.41431 456.18956,1024.88733C460.28154,1022.29938 468.61552,1015.95038 467.26152,1016.40338L467.25853,1016.40033zM443.96953,1036.46826C440.69054,1038.42432 434.64256,1042.06433 433.46953,1041.70325C432.29655,1041.16223 437.59154,1033.79028 437.05052,1033.73132C436.41856,1033.67029 431.45451,1038.63428 429.94954,1041.19226C428.35555,1043.6593 426.39952,1048.29333 427.90355,1048.47229C429.37852,1048.53333 434.70354,1045.01331 438.88457,1041.97424C443.03654,1038.78625 451.79155,1030.96228 452.72453,1029.99927C453.47655,1029.13025 447.19255,1034.42932 443.96654,1036.47729L443.96953,1036.46826zM367.52354,1118.72131C370.35155,1116.04236 375.82753,1110.56824 384.76353,1101.36328C393.69954,1091.94434 410.69756,1073.53235 420.65654,1063.42432C430.58455,1053.37634 441.83757,1043.56824 443.73253,1041.43127C445.38756,1039.26526 437.86552,1044.44031 431.15654,1050.57727C424.38652,1056.74634 414.03752,1066.43335 403.47655,1077.68628C392.64555,1088.78833 373.78154,1110.05725 367.64354,1117.0083C361.62254,1123.84436 364.60155,1121.28723 367.51955,1118.73035L367.52354,1118.72131zM367.61354,1113.58228C367.40355,1114.1543 371.88554,1108.28723 376.54955,1103.41333C381.03255,1098.47827 394.54155,1085.33032 394.81255,1084.63928C394.99254,1084.06726 382.59755,1094.35828 378.05455,1099.38232C373.42155,1104.27832 367.88554,1112.76233 367.61455,1113.58032L367.61455,1113.58228L367.61354,1113.58228zM398.33153,1080.51233C398.30153,1081.02429 403.56654,1073.98425 407.50755,1070.28333C411.32854,1066.43225 421.55754,1058.85034 421.58855,1058.21936C421.55855,1057.67725 411.32854,1063.09326 407.50755,1066.91333C403.56654,1070.68335 398.30052,1079.85828 398.33153,1080.51831L398.33153,1080.51233zM473.15355,1020.52338C470.56651,1021.39532 468.24956,1021.69733 465.75255,1021.30536C463.25554,1020.85541 460.24651,1019.58929 458.47154,1018.08636C456.69652,1016.43134 455.55351,1014.50433 454.92155,1011.97833C454.22954,1009.41937 453.83855,1006.59442 454.07951,1003.16327L441.80455,1020.13141C442.67754,1023.44135 444.15154,1025.96729 446.34752,1027.95435C448.45354,1029.9093 452.27452,1031.23328 454.92253,1031.68335C457.57054,1032.01428 459.88652,1031.53333 462.11357,1030.12024C465.79051,1026.9353 469.46751,1023.74335 473.16154,1020.52533L473.15355,1020.52338zM565.6685,930.02228C563.47258,933.12128 592.11455,904.44928 602.04253,893.91827C611.85161,883.32825 620.90654,875.44525 624.2166,867.38226C627.28557,859.28925 620.99651,846.92322 620.90654,845.72021C620.81657,844.63721 624.24651,855.28723 623.52458,860.25226C622.68156,864.97522 625.50957,862.62823 615.88054,874.33221C606.06157,886.06622 568.09355,926.56219 565.67851,930.02228L565.6685,930.02228zM607.97356,878.60522C608.24455,878.45422 618.2636,865.87726 619.82756,861.18524C621.30254,856.49225 617.05852,850.59521 616.84856,850.68524C616.54851,850.74524 619.61858,856.58221 618.17253,861.33527C616.54253,866.02826 607.72661,878.51422 607.96855,878.60522L607.97356,878.60522zM360.69353,1113.58826C357.74553,1116.56433 356.42152,1119.06226 356.48155,1121.19324C356.54155,1123.32922 359.03853,1125.91736 361.17455,1126.15833C363.22054,1126.24829 365.68755,1124.89233 368.69554,1121.97632C364.99455,1122.99731 362.40755,1123.39026 360.93355,1123.0293C359.39955,1122.60828 359.57954,1121.52429 359.60954,1119.90027C359.54955,1118.30432 359.91054,1116.19934 360.69255,1113.5813L360.69255,1113.58826L360.69353,1113.58826z" fill="#ffffff" stroke="#ffffff" stroke-width="3" id="svg_20"/></g></g><g id="svg_6" display="null" fill-opacity="1" stroke-opacity="1" style="pointer-events:inherit" clip-id="310"><g id="svg_5" transform="matrix(1.05679, 0, 0, 1.05679, -25.1331, -60.2562)" style="pointer-events:inherit"><g id="svg_7" style="pointer-events:inherit"><path fill="#ffffff" d="M115.29536,255.00125C115.29536,255.00125 114.38036,255.52722 114.68537,256.49823C114.99036,257.46924 115.18436,258.43723 115.18436,258.74222C115.18436,259.04922 115.65636,259.74023 116.15437,259.74023C116.65338,259.74023 117.23537,259.68323 117.23537,258.54922C117.23537,257.41223 117.34637,255.36124 116.81937,255.02823C116.29337,254.69623 115.29536,255.00125 115.29536,255.00125zM106.75936,251.67624C106.75936,252.84024 107.17536,254.00323 107.39736,254.14322C107.61837,254.28323 108.33936,254.64124 108.36736,253.72723C108.39536,252.81323 108.45037,251.45523 108.06336,251.23325C107.67536,251.01224 107.67536,250.76224 107.67536,250.76224S106.75936,250.51224 106.75936,251.67624zM111.77537,254.91824C111.77537,255.97122 111.94236,256.91324 111.94236,256.91324S112.27436,258.07724 112.77436,258.21722C113.27337,258.35724 114.68636,258.65924 114.35436,257.74524C114.02137,256.83023 113.96636,256.30524 113.96636,255.91623S114.10537,253.50424 112.80236,253.56125C112.80137,253.55823 111.77537,253.86423 111.77537,254.91824zM109.11536,244.96924C109.11536,244.96924 107.75736,245.30124 107.75736,246.68823C107.75736,248.07425 107.84037,248.85025 107.84037,248.85025S107.97837,249.48825 108.81037,249.40424C109.64236,249.32123 110.05737,248.24023 110.05737,247.74222C110.05737,247.24023 110.33437,245.77124 109.11536,244.96924zM110.25137,252.25824C110.25137,252.25824 109.14236,251.76022 109.11536,253.09024C109.08736,254.41922 109.08736,255.30722 109.08736,255.30722S109.72437,256.27823 110.14037,256.41422C110.55638,256.55322 110.94437,256.69122 110.99937,255.69424C111.05537,254.69623 111.36037,252.53424 110.25137,252.25824zM118.45536,255.61023C118.45536,255.61023 117.87336,255.52722 117.90137,256.66422C117.92937,257.80124 118.09536,258.85324 118.09536,258.85324S118.42837,259.87723 118.92736,259.90723C119.42637,259.93323 120.81237,259.76724 120.81237,258.79922C120.81237,257.82822 121.03437,255.83224 120.56237,255.69522C120.09037,255.55524 118.45536,255.61023 118.45536,255.61023zM115.01936,244.80322C115.01936,244.80322 113.35636,244.96924 113.43836,246.60422C113.52137,248.24023 113.57737,249.18222 113.57737,249.18222S113.85537,250.01224 114.82537,249.70724C115.79536,249.40222 116.51537,248.60025 116.51537,247.79523C116.51537,246.99124 116.79238,244.83023 115.01936,244.80322zM95.25736,237.73424C95.06336,237.06923 93.98237,236.84523 93.98237,236.84523C93.87237,237.37224 95.14637,241.16922 95.67336,242.83224C97.39236,244.02423 97.05936,241.25223 97.05936,241.25223S95.45136,238.39923 95.25736,237.73424zM145.64637,238.62125C145.36936,238.78824 143.42738,238.81525 143.42738,238.81525L143.67637,239.89423C143.67637,239.89423 143.92637,241.19925 143.37237,242.94522C142.81736,244.69022 141.43336,245.63324 141.26737,246.63123C141.09937,247.62924 139.49337,249.23624 138.88238,249.23624C138.27339,249.23624 138.13439,250.73224 138.13439,250.73224S137.60739,252.75522 137.41338,253.78122C137.21938,254.80624 135.97238,255.50024 135.97238,255.50024S134.33639,255.30722 134.11537,256.38724C133.89436,257.46924 131.92736,257.66223 131.73237,257.80124C131.53936,257.94022 130.34637,259.04922 130.04237,258.96524C129.73637,258.88123 129.29437,259.27023 128.96237,259.29724C128.62937,259.32523 127.93636,260.10223 127.13236,260.37823S124.72238,260.57224 124.52838,260.57224C124.33538,260.57224 123.36436,261.18124 122.92137,261.26321C122.47837,261.34723 120.84237,260.82123 120.53837,260.82123C120.23336,260.82123 118.95837,261.26321 118.68138,261.20923C118.40437,261.15424 118.04436,260.62723 117.62836,260.60025C117.21236,260.57425 114.91236,260.57425 114.91236,260.57425S114.24737,259.63223 113.24937,259.57623S111.33736,258.74423 111.33736,258.74423S111.33736,257.63623 110.06237,257.94022C108.78736,258.24625 108.28837,257.46924 108.28837,257.46924S108.26136,256.08224 106.45837,256.22122C104.65736,256.36124 104.54637,254.08725 104.54637,253.34024C104.54637,252.59024 104.65636,250.56824 103.76936,250.09622C102.88337,249.62424 101.77436,248.35025 101.71937,247.32523C101.66437,246.29922 99.53036,243.69424 99.33636,242.97223C99.14236,242.25125 98.86436,240.50525 98.78136,238.73224C98.17236,239.09125 96.09336,237.54123 96.09336,237.54123C95.17837,237.34824 96.70336,239.28723 97.03536,239.67624C97.36837,240.06525 97.64536,241.92224 97.64536,242.72525C97.64536,243.52924 97.67336,246.46722 97.67336,246.46722S98.61536,248.37823 98.80936,250.84622C98.86436,252.95123 97.45136,255.88925 97.45136,258.55124C97.45136,261.21024 98.78136,261.29422 100.13938,263.95422C101.49737,266.61523 105.87538,269.13727 106.29238,269.22125C106.70837,269.30524 108.42637,269.38727 110.11636,270.91028C111.80737,272.43323 114.32937,273.68127 116.26936,273.62726C118.20937,273.57123 122.17336,272.57428 122.69836,272.49023C123.22536,272.40723 125.08337,272.74023 127.16236,273.65424C129.23936,274.56927 130.73737,272.87823 130.73737,272.87823S134.14536,270.10724 134.50738,269.38727C134.86639,268.66626 141.27137,265.00824 142.82136,264.03723C144.37336,263.06726 144.01136,262.40121 144.01136,262.40121S144.37138,260.87823 144.31736,259.74124C144.26037,258.60522 144.15138,255.80423 143.73536,254.72424C143.31938,253.64224 143.56938,250.81723 143.56938,249.32022S145.34237,244.08224 145.45437,243.36124S145.14936,240.00723 145.37138,239.67325C145.58936,239.34222 145.70036,239.26022 145.64637,238.62125zM111.49836,244.83023C111.53536,244.81622 111.57437,244.81024 111.61337,244.80524C111.49436,244.82123 110.69437,244.95123 110.69437,245.77423C110.69437,246.66025 110.80537,248.68423 110.80537,248.85025S111.24836,249.59824 111.24836,249.59824S112.57836,249.12524 112.66137,248.07425C112.74436,247.02023 112.60636,245.05322 112.60636,245.05322S112.05936,244.74023 111.62637,244.80524C111.57537,244.82224 111.07737,244.98825 111.49836,244.83023zM121.31037,247.87823C121.31037,246.40924 120.78336,244.74625 118.64936,244.80322C118.64936,244.80322 117.15237,244.74625 117.15237,246.13324S117.15237,249.23724 117.15237,249.23724S116.93037,249.79123 118.06736,249.81924C119.20336,249.84622 120.89436,249.62524 120.89436,249.62524S121.31037,249.34723 121.31037,247.87823zM111.61337,244.80524C111.61736,244.80524 111.62237,244.80722 111.62737,244.80524C111.63036,244.80524 111.63737,244.80322 111.63737,244.80322S111.62336,244.80524 111.61337,244.80524zM128.84937,255.25125C128.96037,256.55322 128.93336,257.63522 128.93336,257.63522S128.87637,258.27225 129.82037,257.82822C130.76136,257.38522 130.81837,257.35623 130.81837,256.52524S130.92837,253.50424 129.62736,253.75424C129.62538,253.75424 128.73737,253.94824 128.84937,255.25125zM125.71737,256.02722C125.69137,256.77423 125.57836,258.74222 125.57836,258.74222S125.91137,259.82324 126.40937,259.74023C126.90836,259.65723 128.01637,259.13123 128.10037,257.63522C128.18237,256.13925 128.48737,255.47324 126.29737,255.08423C126.29937,255.08423 125.74537,255.27823 125.71737,256.02722zM124.30337,244.35825C124.30337,244.35825 122.11536,244.63425 122.05836,246.13022C122.00237,247.62723 122.16936,248.87424 122.16936,248.87424S122.77838,249.76123 123.49937,249.70523C124.22036,249.65024 126.13337,249.53922 126.21636,248.26523S126.24337,245.63223 126.24337,245.63223S125.82737,244.52423 124.30337,244.35825zM106.17736,244.99625C106.17736,244.99625 104.93037,245.68723 105.04137,246.63123C105.15237,247.57324 105.59536,248.79324 106.06637,248.68423C106.53837,248.57324 107.03637,247.74222 107.03637,246.96524C107.03637,246.18723 106.89837,245.16223 106.17736,244.99625zM127.43737,244.94022C127.43737,244.94022 126.77137,244.83023 126.88137,246.18723S127.02137,248.82022 127.02137,248.82022S127.13036,249.29224 127.71237,249.29224S129.12637,249.34824 129.09937,248.23825C129.07237,247.13123 129.12637,245.88324 129.12637,245.88324S129.04337,244.66324 127.43737,244.94022zM121.44937,256.49823C121.69937,257.24625 121.94736,259.04922 122.19937,259.35223C122.44736,259.65823 123.69538,260.46024 124.11137,259.54623C124.52737,258.63123 124.91537,256.19223 124.91537,256.19223S125.08137,255.25125 124.44337,255.36124C123.80638,255.47223 121.83837,255.47223 121.83837,255.47223S121.19937,255.74924 121.44937,256.49823zM150.99836,227.19423C150.99836,227.19423 151.66036,225.62224 150.75038,225.49823S147.97936,225.54024 147.64736,221.56923C147.31736,217.59923 147.93636,217.84723 147.81336,216.48323C147.68836,215.11923 148.39137,211.39624 145.74638,208.74924C144.42237,207.54922 144.13337,207.54922 144.13337,207.54922S143.34736,206.22523 143.34736,205.73022C143.34736,205.23323 143.76136,205.39923 143.76136,205.39923S144.09136,206.63924 144.75337,206.84624S146.44837,207.30223 146.73737,207.88023C147.02638,208.45923 147.93636,209.70023 148.22737,210.07224C148.51637,210.44524 148.55737,213.46423 148.55737,214.53923C148.55737,215.61423 147.27638,220.41223 148.30937,221.52924C149.34237,222.64624 149.42536,222.97723 149.42536,222.97723S150.25236,223.14224 150.45837,221.28123C150.66537,219.42023 150.41737,217.84824 150.78938,216.97923C151.16236,216.11124 152.69137,211.64423 152.48437,207.42523C152.27737,203.20723 151.52337,180.22523 121.48437,178.72823C121.48437,178.72823 96.74337,180.39723 91.93237,198.16724S91.34537,222.51523 92.03236,223.00623C92.71937,223.49724 93.79937,219.27623 93.70036,217.80223C93.60237,216.33023 93.60237,212.30423 94.87836,210.93024C96.15437,209.55524 99.49236,205.82523 99.49236,204.25423C99.49236,202.68323 99.98337,206.31723 99.59136,207.10123C99.19836,207.88623 96.94036,210.34123 95.56637,211.51923C94.19137,212.69724 94.68237,217.50723 94.68237,217.50723S95.56637,223.59424 93.79836,224.38023C92.03136,225.16623 90.85336,225.36223 90.85336,228.01323C90.85336,230.66324 89.08537,234.59123 91.93336,235.57324C94.78136,236.55423 98.31437,238.12625 99.49337,238.12625C100.67236,238.12625 104.69736,240.18823 104.79536,241.85623S104.88236,245.14423 107.90237,244.23422C109.01936,243.69724 110.05337,244.27524 110.38337,244.44122S111.58237,243.86224 111.58237,243.86224L113.31937,244.52423C113.31937,244.52423 114.02236,244.56522 114.68436,243.73825C115.96636,243.86224 117.08337,244.40024 117.08337,244.40024S118.20037,244.44122 118.77838,243.69724C119.93636,244.19324 122.46037,244.81223 122.99737,243.65622C124.65138,243.86224 125.52036,243.86224 125.81037,244.23422C126.47236,244.48325 127.17536,244.19324 127.42336,243.77924C128.33337,244.23422 128.87136,244.97824 130.81637,243.86224C132.30436,244.44122 133.13036,244.31723 133.58737,243.94424C134.86839,244.52423 136.10938,244.93723 136.10938,244.93723S136.64639,245.01923 136.68737,243.90323S137.06039,240.47025 138.63038,240.09723C140.20237,239.72623 142.14637,238.65125 142.14637,238.65125L146.32437,237.94824C146.32437,237.94824 150.70936,237.53424 150.70936,233.44023C151.24638,231.66223 151.28837,231.90924 151.28837,231.70323C151.28837,231.49623 150.83337,230.62823 150.79136,230.00824C150.75038,229.38724 150.99836,227.19423 150.99836,227.19423zM112.73837,223.73523C111.30036,225.12323 109.21737,226.61124 104.80537,226.75923C100.39236,226.90723 98.80638,225.86624 98.16236,224.92523C97.51736,223.98323 96.03036,221.50424 96.32836,219.37224C96.62538,217.24023 96.27838,214.36523 97.36936,212.92723C98.46037,211.48923 98.06336,209.40623 104.11237,208.51424L105.89637,208.71223C105.89637,208.71223 108.22636,210.49724 109.76337,210.44724C111.30036,210.39723 113.28336,210.10023 113.72936,210.14923C114.17637,210.19923 115.96037,210.79424 116.20837,213.71924C116.45637,216.64624 114.17637,222.34723 112.73837,223.73523zM127.59937,235.41724C127.38436,237.46524 124.44137,237.42224 124.05836,237.12323C123.67336,236.82523 121.92437,235.41724 121.07037,235.33124C120.21636,235.24623 118.85136,236.31223 118.85136,236.31223C118.04137,236.73923 116.24937,236.09923 115.77937,234.51923C115.31037,232.94223 116.84637,228.54623 117.48637,227.01123C118.12637,225.47423 118.12637,224.36523 118.12637,223.25623C118.12637,222.14723 118.76637,222.31824 119.10737,222.31824S119.40636,221.89124 120.17437,221.59222C120.94236,221.29323 121.54037,223.12823 121.54037,223.12823S121.28336,224.57922 121.28336,225.56024S121.36936,229.35724 121.79637,228.63324C122.22437,227.90723 122.09437,223.30023 122.22437,222.57423C122.35136,221.84824 124.22837,221.03824 124.22837,221.03824S124.69737,221.33723 125.59336,222.27524C126.48936,223.21423 126.06237,227.09523 126.10537,228.12123C126.14837,229.14423 126.40438,230.04123 127.59937,231.61923C128.79337,233.19824 127.81237,233.36923 127.59937,235.41724zM145.56037,218.62924C145.65937,223.23923 143.23036,224.97423 142.58436,226.06624C141.93836,227.15723 139.21238,227.25623 138.51937,226.71123C137.82638,226.16623 135.94138,226.21524 134.45538,226.06624C132.96836,225.91724 130.93437,223.29024 130.48837,222.54523C130.04237,221.80124 130.88436,220.46223 130.88436,220.46223S131.33137,219.37224 130.73837,218.38023C130.14237,217.38823 129.30036,218.03323 129.74636,213.62123C130.19137,209.20824 133.46436,209.50623 134.60339,209.30823C135.74539,209.11023 138.17239,208.56424 142.23837,209.85423C146.30238,211.14323 145.45936,214.01823 145.56037,218.62924zM130.95536,244.83023C130.95536,244.83023 129.98536,244.83023 129.90138,246.26923C129.81736,247.71024 129.76237,248.73724 129.76237,248.73724S130.03837,249.70724 130.67637,249.73523C131.31536,249.76123 131.92336,249.07022 131.92336,247.96124C131.92336,246.85422 131.89736,245.77322 131.89736,245.77322S131.89837,244.58023 130.95536,244.83023zM135.97238,250.23422L136.30438,251.67325C136.30438,251.67325 136.94338,250.78723 136.77738,250.28723C136.60839,249.79022 136.27639,249.95724 135.97238,250.23422zM131.34336,254.00323C131.48437,255.14124 131.59336,256.44223 132.23037,256.33124C132.87037,256.22122 133.36837,255.61023 133.28536,254.61325C133.20237,253.61523 133.20237,251.62024 131.78837,252.89423C131.78637,252.89423 131.20437,252.86722 131.34336,254.00323zM105.81637,249.84723C105.81637,249.84723 105.40037,250.20523 105.42837,250.95322C105.45536,251.70224 106.06536,253.03223 106.06536,253.03223L106.25936,250.45523C106.26037,250.45624 105.92837,249.81824 105.81637,249.84723zM135.50039,245.85324C135.50039,245.85324 135.00237,246.24323 134.97637,247.40723C134.94738,248.57123 135.64037,248.90424 135.64037,248.90424S136.91439,248.40424 136.85938,247.71225C136.80338,247.01724 137.02438,245.91025 135.50039,245.85324zM133.36637,245.27124C133.39337,245.38223 133.33936,245.41223 133.33936,245.41223S132.50736,245.24524 132.59037,246.16025C132.67437,247.07425 132.61837,248.79324 132.61837,248.79324S132.75736,249.34824 133.42237,248.93222S134.31039,248.85025 134.31039,247.87823C134.31039,246.90823 134.72637,245.63522 133.36637,245.27124zM134.50338,251.12125C134.50338,251.12125 133.75437,251.62024 133.83836,252.61722C133.92137,253.61523 134.00437,254.05823 134.00437,254.05823S135.27838,254.28122 135.41738,253.06024C135.55837,251.84222 135.66738,250.51224 134.50338,251.12125z" id="svg_8" stroke="#00007f" stroke-width="1" style="pointer-events:inherit"/></g></g></g><g id="svg_9" type="text" text="16" font-size="27.23857371436489" font-family="Interceptor" fill="ffffff" text-anchor="start" font-weight="normal" font-style="normal" lineHeight="1" shapeId="0" shapeVal="-85" fill-opacity="1" display="null" elemBBoxWidth="27.37109375" stroke="null" stroke-dasharray="none" style="pointer-events:inherit"><path id="svg_37" fill="#ffffff" stroke-width="0" d="M146.12683,204.11522C146.12683,204.11522 146.12683,206.38511 146.12683,206.38511C146.12683,206.38511 154.22275,206.38511 154.22275,206.38511C154.22275,206.38511 154.22275,204.11522 154.22275,204.11522C154.22275,204.11522 152.33118,204.11522 152.33118,204.11522C152.33118,204.11522 152.33118,189.361 152.33118,189.361C152.33118,189.361 146.12683,189.361 146.12683,189.361C146.12683,189.361 146.12683,191.70654 146.12683,191.70654C146.12683,191.70654 147.71576,191.70654 147.71576,191.70654C147.71576,191.70654 147.71576,204.11522 147.71576,204.11522C147.71576,204.11522 146.12683,204.11522 146.12683,204.11522C146.12683,204.11522 146.12683,204.11522 146.12683,204.11522M162.54564,199.42415C162.54564,199.42415 162.54564,203.66125 162.54564,203.66125C162.54564,203.66125 168.90131,203.66125 168.90131,203.66125C168.90131,203.66125 168.90131,199.42415 168.90131,199.42415C168.90131,199.42415 162.54564,199.42415 162.54564,199.42415C162.54564,199.42415 162.54564,199.42415 162.54564,199.42415M170.56589,189.361C172.7601,189.66365 173.74373,191.70654 173.44107,194.50605C173.44107,194.50605 169.05264,194.50605 169.05264,194.50605C169.05264,194.50605 169.05264,192.08485 169.05264,192.08485C169.05264,192.08485 162.69696,192.08485 162.69696,192.08485C162.69696,192.08485 162.69696,196.2463 162.69696,196.2463C166.63142,196.62462 172.68445,194.88437 173.44107,198.44052C173.3654,201.76968 174.19769,205.85547 170.79288,206.38511C166.40443,205.93113 159.67046,207.82271 158.3842,204.26655C158.3842,204.26655 158.45985,193.06846 158.45985,193.06846C158.23286,191.02557 159.67046,189.361 161.18372,189.361C161.18372,189.361 170.56589,189.361 170.56589,189.361C170.56589,189.361 170.56589,189.361 170.56589,189.361" style="pointer-events:inherit"/><rect id="svg_38" x="146.125" y="189.36054706573486" width="27.37109375" height="17.12890625" fill="#000000" opacity="0" style="pointer-events:inherit"/></g><g type="text" text="HEAVY" font-size="27.23857371436489" font-family="Interceptor" fill="ffffff" text-anchor="start" font-weight="normal" font-style="normal" lineHeight="1" shapeId="9" shapeVal="45" fill-opacity="1" display="null" elemBBoxWidth="127.69609069824219" stroke="null" stroke-dasharray="none" id="svg_16" style="pointer-events:inherit"><path fill="#ffffff" stroke-width="0" d="M44.42549,98.87135C44.42549,98.87135 45.26721,101.46191 45.26721,101.46191C45.26721,101.46191 54.19018,98.56265 54.19018,98.56265C54.19018,98.56265 53.34847,95.97211 53.34847,95.97211C53.34847,95.97211 51.47752,96.58002 51.47752,96.58002C51.47752,96.58002 49.72394,91.18306 49.72394,91.18306C49.72394,91.18306 56.2003,89.07875 56.2003,89.07875C56.2003,89.07875 57.95388,94.47572 57.95388,94.47572C57.95388,94.47572 56.08293,95.08363 56.08293,95.08363C56.08293,95.08363 56.92465,97.67416 56.92465,97.67416C56.92465,97.67416 66.13545,94.6814 66.13545,94.6814C66.13545,94.6814 65.29374,92.09085 65.29374,92.09085C65.29374,92.09085 63.49476,92.67538 63.49476,92.67538C63.49476,92.67538 58.88869,78.49936 58.88869,78.49936C58.88869,78.49936 60.68767,77.91484 60.68767,77.91484C60.68767,77.91484 59.84596,75.32429 59.84596,75.32429C59.84596,75.32429 50.63514,78.31706 50.63514,78.31706C50.63514,78.31706 51.47686,80.90761 51.47686,80.90761C51.47686,80.90761 53.34781,80.2997 53.34781,80.2997C53.34781,80.2997 55.00786,85.40883 55.00786,85.40883C55.00786,85.40883 48.53151,87.51312 48.53151,87.51312C48.53151,87.51312 46.87145,82.404 46.87145,82.404C46.87145,82.404 48.7424,81.79609 48.7424,81.79609C48.7424,81.79609 47.90068,79.20555 47.90068,79.20555C47.90068,79.20555 38.9777,82.1048 38.9777,82.1048C38.9777,82.1048 39.81942,84.69534 39.81942,84.69534C39.81942,84.69534 41.33057,84.20433 41.33057,84.20433C41.33057,84.20433 43.014,89.38542 43.014,89.38542C43.014,89.38542 40.56738,90.18037 40.56738,90.18037C40.56738,90.18037 41.73643,93.77835 41.73643,93.77835C41.73643,93.77835 44.18306,92.9834 44.18306,92.9834C44.18306,92.9834 45.93664,98.38037 45.93664,98.38037C45.93664,98.38037 44.42549,98.87135 44.42549,98.87135C44.42549,98.87135 44.42549,98.87135 44.42549,98.87135M69.24245,91.21675C69.24245,91.21675 69.66856,93.90707 69.66856,93.90707C69.66856,93.90707 87.82823,91.03085 87.82823,91.03085C87.82823,91.03085 86.81032,84.60397 86.81032,84.60397C86.81032,84.60397 81.87807,85.38516 81.87807,85.38516C81.87807,85.38516 82.38702,88.5986 82.38702,88.5986C82.38702,88.5986 76.48326,89.53368 76.48326,89.53368C76.48326,89.53368 75.65472,84.30249 75.65472,84.30249C75.65472,84.30249 80.81117,83.48578 80.81117,83.48578C80.81117,83.48578 80.24304,79.8987 80.24304,79.8987C80.24304,79.8987 75.08659,80.71539 75.08659,80.71539C75.08659,80.71539 74.31723,75.85786 74.31723,75.85786C74.31723,75.85786 80.22099,74.92281 80.22099,74.92281C80.22099,74.92281 80.61159,77.38894 80.61159,77.38894C80.61159,77.38894 85.54385,76.60773 85.54385,76.60773C85.54385,76.60773 84.64429,70.92818 84.64429,70.92818C84.64429,70.92818 66.48462,73.80439 66.48462,73.80439C66.48462,73.80439 66.91072,76.49471 66.91072,76.49471C66.91072,76.49471 68.48008,76.24615 68.48008,76.24615C68.48008,76.24615 69.33229,81.62679 69.33229,81.62679C69.33229,81.62679 66.79143,82.02922 66.79143,82.02922C66.79143,82.02922 67.35957,85.61632 67.35957,85.61632C67.35957,85.61632 69.90043,85.21388 69.90043,85.21388C69.90043,85.21388 70.81181,90.96819 70.81181,90.96819C70.81181,90.96819 69.24245,91.21675 69.24245,91.21675C69.24245,91.21675 69.24245,91.21675 69.24245,91.21675M95.60838,70.23402C94.47343,70.46101 93.18716,71.2933 93.18716,72.5039C93.18716,72.5039 93.18716,77.95161 93.18716,77.95161C93.18716,77.95161 90.4633,77.95161 90.4633,77.95161C90.4633,77.95161 90.4633,81.81041 90.4633,81.81041C90.4633,81.81041 93.03584,81.81041 93.03584,81.81041C93.03584,81.81041 93.03584,87.48511 93.03584,87.48511C93.03584,87.48511 91.14427,87.48511 91.14427,87.48511C91.14427,87.48511 91.14427,90.58728 91.14427,90.58728C91.14427,90.58728 100.8291,90.58728 100.8291,90.58728C100.8291,90.58728 100.8291,87.48511 100.8291,87.48511C100.8291,87.48511 98.86186,87.48511 98.86186,87.48511C98.86186,87.48511 98.86186,81.81041 98.86186,81.81041C98.86186,81.81041 105.67152,81.81041 105.67152,81.81041C105.67152,81.81041 105.67152,87.48511 105.67152,87.48511C105.67152,87.48511 103.70428,87.48511 103.70428,87.48511C103.70428,87.48511 103.70428,90.58728 103.70428,90.58728C103.70428,90.58728 113.38911,90.58728 113.38911,90.58728C113.38911,90.58728 113.38911,87.48511 113.38911,87.48511C113.38911,87.48511 111.34621,87.48511 111.34621,87.48511C111.34621,87.48511 111.34621,72.5039 111.34621,72.5039C111.04356,71.2933 109.98428,70.23402 108.62236,70.23402C108.62236,70.23402 95.60838,70.23402 95.60838,70.23402C95.60838,70.23402 95.60838,70.23402 95.60838,70.23402M98.86186,77.95161C99.0132,76.36269 98.33224,74.01715 99.54283,73.4875C99.54283,73.4875 104.99055,73.4875 104.99055,73.4875C106.20116,74.01715 105.52019,76.36269 105.67152,77.95161C105.67152,77.95161 98.86186,77.95161 98.86186,77.95161C98.86186,77.95161 98.86186,77.95161 98.86186,77.95161M120.62308,73.69984C120.62308,73.69984 118.83173,73.40214 118.83173,73.40214C118.83173,73.40214 119.27829,70.71513 119.27829,70.71513C119.27829,70.71513 128.53352,72.25326 128.53352,72.25326C128.53352,72.25326 128.08698,74.94025 128.08698,74.94025C128.08698,74.94025 126.221,74.63016 126.221,74.63016C126.221,74.63016 125.04261,81.72086 125.04261,81.72086C125.04261,81.72086 126.99904,89.33255 126.99904,89.33255C126.99904,89.33255 131.38692,82.77522 131.38692,82.77522C131.38692,82.77522 132.56532,75.68452 132.56532,75.68452C132.56532,75.68452 130.62471,75.36201 130.62471,75.36201C130.62471,75.36201 131.07124,72.675 131.07124,72.675C131.07124,72.675 140.32649,74.21312 140.32649,74.21312C140.32649,74.21312 139.87993,76.90012 139.87993,76.90012C139.87993,76.90012 138.16324,76.61483 138.16324,76.61483C138.16324,76.61483 136.89801,84.22801 136.89801,84.22801C136.89801,84.22801 129.67514,93.07539 129.67514,93.07539C129.67514,93.07539 122.88299,91.94662 122.88299,91.94662C122.88299,91.94662 119.39506,81.08911 119.39506,81.08911C119.39506,81.08911 120.62308,73.69984 120.62308,73.69984C120.62308,73.69984 120.62308,73.69984 120.62308,73.69984M151.51778,83.38383C152.05235,87.40898 158.63776,86.87573 158.20171,82.56442C158.20171,82.56442 156.55629,81.99786 156.55629,81.99786C156.55629,81.99786 157.4431,79.42239 157.4431,79.42239C157.4431,79.42239 166.67181,82.6001 166.67181,82.6001C166.67181,82.6001 165.785,85.17555 165.785,85.17555C165.785,85.17555 163.92496,84.5351 163.92496,84.5351C162.46922,88.99524 158.69043,88.81439 155.30916,89.57068C155.30916,89.57068 152.91969,96.5101 152.91969,96.5101C152.91969,96.5101 154.70821,97.12595 154.70821,97.12595C154.70821,97.12595 153.82143,99.7014 153.82143,99.7014C153.82143,99.7014 144.66423,96.54831 144.66423,96.54831C144.66423,96.54831 145.55104,93.97287 145.55104,93.97287C145.55104,93.97287 147.33955,94.5887 147.33955,94.5887C147.33955,94.5887 149.72897,87.64926 149.72897,87.64926C147.93471,85.19093 145.51649,82.91788 147.11295,78.74625C147.11295,78.74625 145.25288,78.10579 145.25288,78.10579C145.25288,78.10579 146.13969,75.53033 146.13969,75.53033C146.13969,75.53033 155.0107,78.58487 155.0107,78.58487C155.0107,78.58487 154.12392,81.16032 154.12392,81.16032C154.12392,81.16032 152.40694,80.56911 152.40694,80.56911C152.15825,81.52377 151.47795,82.5699 151.51778,83.38383C151.51778,83.38383 151.51778,83.38383 151.51778,83.38383" id="svg_17" style="pointer-events:inherit"/><rect x="38.97734375298023" y="70.234375" width="127.6953125" height="31.2265625" fill="#000000" opacity="0" id="svg_18" style="pointer-events:inherit"/></g><g type="text" text="HITTERS" font-size="27.23857371436489" font-family="Interceptor" fill="ffffff" text-anchor="start" font-weight="normal" font-style="normal" lineHeight="1" shapeId="9" shapeVal="-85" fill-opacity="1" display="null" elemBBoxWidth="154.69921875" stroke="null" stroke-dasharray="none" id="svg_27" style="pointer-events:inherit"><path fill="#ffffff" stroke-width="0" d="M27.0774,282.49893C27.0774,282.49893 25.47636,284.70258 25.47636,284.70258C25.47636,284.70258 33.06669,290.21729 33.06669,290.21729C33.06669,290.21729 34.66774,288.01364 34.66774,288.01364C34.66774,288.01364 33.07622,286.85733 33.07622,286.85733C33.07622,286.85733 36.41172,282.26639 36.41172,282.26639C36.41172,282.26639 41.92084,286.26901 41.92084,286.26901C41.92084,286.26901 38.58533,290.85992 38.58533,290.85992C38.58533,290.85992 36.99381,289.70361 36.99381,289.70361C36.99381,289.70361 35.39277,291.90726 35.39277,291.90726C35.39277,291.90726 43.22795,297.59985 43.22795,297.59985C43.22795,297.59985 44.829,295.39621 44.829,295.39621C44.829,295.39621 43.29869,294.28439 43.29869,294.28439C43.29869,294.28439 52.05995,282.22552 52.05995,282.22552C52.05995,282.22552 53.59026,283.33737 53.59026,283.33737C53.59026,283.33737 55.19131,281.13373 55.19131,281.13373C55.19131,281.13373 47.35612,275.44113 47.35612,275.44113C47.35612,275.44113 45.75507,277.64478 45.75507,277.64478C45.75507,277.64478 47.3466,278.80109 47.3466,278.80109C47.3466,278.80109 44.18898,283.14716 44.18898,283.14716C44.18898,283.14716 38.67987,279.14456 38.67987,279.14456C38.67987,279.14456 41.83748,274.79846 41.83748,274.79846C41.83748,274.79846 43.429,275.95477 43.429,275.95477C43.429,275.95477 45.03005,273.75116 45.03005,273.75116C45.03005,273.75116 37.43971,268.23645 37.43971,268.23645C37.43971,268.23645 35.83866,270.44006 35.83866,270.44006C35.83866,270.44006 37.12412,271.37402 37.12412,271.37402C37.12412,271.37402 33.92204,275.78131 33.92204,275.78131C33.92204,275.78131 31.84081,274.26923 31.84081,274.26923C31.84081,274.26923 29.61714,277.32983 29.61714,277.32983C29.61714,277.32983 31.69837,278.84192 31.69837,278.84192C31.69837,278.84192 28.36286,283.43286 28.36286,283.43286C28.36286,283.43286 27.0774,282.49893 27.0774,282.49893C27.0774,282.49893 27.0774,282.49893 27.0774,282.49893M49.99996,297.85181C49.99996,297.85181 48.84881,300.32047 48.84881,300.32047C48.84881,300.32047 57.62624,304.41345 57.62624,304.41345C57.62624,304.41345 58.77739,301.94479 58.77739,301.94479C58.77739,301.94479 56.78875,301.01749 56.78875,301.01749C56.78875,301.01749 63.08811,287.50845 63.08811,287.50845C63.08811,287.50845 65.07674,288.43579 65.07674,288.43579C65.07674,288.43579 66.2279,285.96713 66.2279,285.96713C66.2279,285.96713 57.45047,281.87415 57.45047,281.87415C57.45047,281.87415 56.29931,284.3428 56.29931,284.3428C56.29931,284.3428 58.08223,285.17419 58.08223,285.17419C58.08223,285.17419 51.78287,298.6832 51.78287,298.6832C51.78287,298.6832 49.99996,297.85181 49.99996,297.85181C49.99996,297.85181 49.99996,297.85181 49.99996,297.85181M68.7019,305.6456C68.7019,305.6456 67.99692,308.27664 67.99692,308.27664C67.99692,308.27664 77.42483,310.80286 77.42483,310.80286C77.42483,310.80286 78.12981,308.17181 78.12981,308.17181C78.12981,308.17181 76.22961,307.66263 76.22961,307.66263C76.22961,307.66263 79.95038,293.77658 79.95038,293.77658C79.95038,293.77658 82.94685,294.57947 82.94685,294.57947C82.94685,294.57947 82.2027,297.35669 82.2027,297.35669C82.2027,297.35669 86.4416,298.49252 86.4416,298.49252C86.4416,298.49252 88.02782,292.57266 88.02782,292.57266C88.02782,292.57266 68.29498,287.28525 68.29498,287.28525C68.29498,287.28525 66.70876,293.20511 66.70876,293.20511C66.70876,293.20511 70.94767,294.34091 70.94767,294.34091C70.94767,294.34091 71.69182,291.56372 71.69182,291.56372C71.69182,291.56372 74.32287,292.26868 74.32287,292.26868C74.32287,292.26868 70.6021,306.15475 70.6021,306.15475C70.6021,306.15475 68.7019,305.6456 68.7019,305.6456C68.7019,305.6456 68.7019,305.6456 68.7019,305.6456M94.48786,310.66507C94.48786,310.66507 94.4081,313.38776 94.4081,313.38776C94.4081,313.38776 104.16441,313.67358 104.16441,313.67358C104.16441,313.67358 104.24416,310.95087 104.24416,310.95087C104.24416,310.95087 102.27778,310.89328 102.27778,310.89328C102.27778,310.89328 102.69874,296.52353 102.69874,296.52353C102.69874,296.52353 105.79957,296.61438 105.79957,296.61438C105.79957,296.61438 105.71538,299.48831 105.71538,299.48831C105.71538,299.48831 110.10194,299.61682 110.10194,299.61682C110.10194,299.61682 110.28139,293.49078 110.28139,293.49078C110.28139,293.49078 89.86122,292.89258 89.86122,292.89258C89.86122,292.89258 89.68176,299.01862 89.68176,299.01862C89.68176,299.01862 94.06832,299.14713 94.06832,299.14713C94.06832,299.14713 94.15251,296.27316 94.15251,296.27316C94.15251,296.27316 96.8752,296.35294 96.8752,296.35294C96.8752,296.35294 96.45425,310.72269 96.45425,310.72269C96.45425,310.72269 94.48786,310.66507 94.48786,310.66507C94.48786,310.66507 94.48786,310.66507 94.48786,310.66507M116.5827,310.43909C116.5827,310.43909 117.10813,313.11179 117.10813,313.11179C117.10813,313.11179 135.14885,309.56506 135.14885,309.56506C135.14885,309.56506 133.89362,303.18027 133.89362,303.18027C133.89362,303.18027 128.99367,304.14359 128.99367,304.14359C128.99367,304.14359 129.62129,307.33597 129.62129,307.33597C129.62129,307.33597 123.7562,308.48904 123.7562,308.48904C123.7562,308.48904 122.7345,303.29211 122.7345,303.29211C122.7345,303.29211 127.85718,302.28503 127.85718,302.28503C127.85718,302.28503 127.15657,298.72144 127.15657,298.72144C127.15657,298.72144 122.03391,299.72852 122.03391,299.72852C122.03391,299.72852 121.0852,294.90283 121.0852,294.90283C121.0852,294.90283 126.95027,293.74976 126.95027,293.74976C126.95027,293.74976 127.43193,296.19974 127.43193,296.19974C127.43193,296.19974 132.33188,295.23642 132.33188,295.23642C132.33188,295.23642 131.22263,289.59406 131.22263,289.59406C131.22263,289.59406 113.18191,293.14081 113.18191,293.14081C113.18191,293.14081 113.70735,295.81351 113.70735,295.81351C113.70735,295.81351 115.26643,295.50699 115.26643,295.50699C115.26643,295.50699 116.31731,300.85239 116.31731,300.85239C116.31731,300.85239 113.7931,301.34866 113.7931,301.34866C113.7931,301.34866 114.4937,304.91226 114.4937,304.91226C114.4937,304.91226 117.01791,304.41599 117.01791,304.41599C117.01791,304.41599 118.14176,310.1326 118.14176,310.1326C118.14176,310.1326 116.5827,310.43909 116.5827,310.43909C116.5827,310.43909 116.5827,310.43909 116.5827,310.43909M159.62146,299.40274C155.32785,301.65341 153.66168,298.2561 151.61679,293.86664C151.61679,293.86664 145.44411,296.74228 145.44411,296.74228C145.44411,296.74228 147.84048,301.88617 147.84048,301.88617C147.84048,301.88617 149.89806,300.92761 149.89806,300.92761C149.89806,300.92761 151.04829,303.3967 151.04829,303.3967C151.04829,303.3967 142.26938,307.48648 142.26938,307.48648C142.26938,307.48648 141.11913,305.01743 141.11913,305.01743C141.11913,305.01743 142.83376,304.21863 142.83376,304.21863C142.83376,304.21863 140.40544,299.00613 140.40544,299.00613C140.40544,299.00613 138.07353,300.0925 138.07353,300.0925C138.07353,300.0925 136.5079,296.73184 136.5079,296.73184C136.5079,296.73184 138.83981,295.64548 138.83981,295.64548C138.83981,295.64548 136.53929,290.70734 136.53929,290.70734C136.53929,290.70734 134.82466,291.5061 134.82466,291.5061C134.82466,291.5061 133.67441,289.03705 133.67441,289.03705C133.67441,289.03705 148.28308,282.23138 148.28308,282.23138C149.78726,281.69757 151.62033,281.51135 152.53371,282.75525C153.41431,285.18301 155.67984,287.7168 154.10623,289.535C152.74307,291.08823 154.00955,290.5817 156.8199,291.77655C156.8199,291.77655 159.05652,296.57751 159.05652,296.57751C159.05652,296.57751 160.77115,295.77875 160.77115,295.77875C160.77115,295.77875 161.98531,298.38498 161.98531,298.38498C161.0937,298.80035 160.23872,299.11517 159.62146,299.40274C159.62146,299.40274 159.62146,299.40274 159.62146,299.40274M149.78151,290.46463C149.78151,290.46463 147.7366,286.07516 147.7366,286.07516C147.7366,286.07516 142.04402,288.72717 142.04402,288.72717C142.04402,288.72717 144.08893,293.11661 144.08893,293.11661C144.08893,293.11661 149.78151,290.46463 149.78151,290.46463C149.78151,290.46463 149.78151,290.46463 149.78151,290.46463M165.87843,292.85251C169.71306,295.4256 174.72133,288.44012 179.20798,285.70294C180.39297,284.39304 180.37617,282.77386 179.75568,281.24231C179.75568,281.24231 175.84274,276.23395 175.84274,276.23395C172.53168,273.34784 168.00597,279.4762 163.97023,282.05316C163.97023,282.05316 160.98894,278.23727 160.98894,278.23727C160.98894,278.23727 167.01086,273.53244 167.01086,273.53244C167.01086,273.53244 168.78101,275.7981 168.78101,275.7981C168.78101,275.7981 172.95462,272.53732 172.95462,272.53732C172.95462,272.53732 170.53232,269.43695 170.53232,269.43695C169.33609,268.64319 167.81009,268.77927 166.25989,269.99042C166.25989,269.99042 157.01833,277.21072 157.01833,277.21072C156.11095,278.01566 155.729,279.37024 156.09608,280.3317C156.09608,280.3317 160.70776,286.23434 160.70776,286.23434C163.9592,289.16705 168.34515,282.85986 172.24861,280.48224C172.24861,280.48224 175.41623,284.53662 175.41623,284.53662C175.41623,284.53662 169.3943,289.24146 169.3943,289.24146C169.3943,289.24146 167.39125,286.67767 167.39125,286.67767C167.39125,286.67767 163.45613,289.75211 163.45613,289.75211C163.45613,289.75211 165.87843,292.85251 165.87843,292.85251C165.87843,292.85251 165.87843,292.85251 165.87843,292.85251" id="svg_28" style="pointer-events:inherit"/><rect x="25.475390672683716" y="268.23828125" width="154.69921875" height="45.43359375" fill="#000000" opacity="0" id="svg_29" style="pointer-events:inherit"/></g><g type="text" text="20" font-size="27.23857371436489" font-family="Interceptor" fill="ffffff" text-anchor="start" font-weight="normal" font-style="normal" lineHeight="1" shapeId="0" shapeVal="-85" fill-opacity="1" display="null" elemBBoxWidth="34.96484375" stroke="null" stroke-dasharray="none" id="svg_34" style="pointer-events:inherit"><path fill="#ffffff" stroke-width="0" d="M37.20018,191.25432C37.20018,194.73478 38.25946,199.65287 34.62765,199.65287C34.62765,199.65287 26.68306,199.65287 26.68306,199.65287C26.68306,199.65287 26.68306,203.88997 26.68306,203.88997C26.68306,203.88997 33.03873,203.88997 33.03873,203.88997C33.03873,203.88997 33.03873,201.24177 33.03873,201.24177C33.03873,201.24177 37.20018,201.24177 37.20018,201.24177C37.20018,201.24177 37.20018,206.61383 37.20018,206.61383C37.20018,206.61383 22.21896,206.61383 22.21896,206.61383C22.59728,202.67936 20.78137,196.39937 24.86716,196.39937C24.86716,196.39937 32.96307,196.39937 32.96307,196.39937C32.96307,196.39937 32.96307,192.31358 32.96307,192.31358C32.96307,192.31358 26.6074,192.31358 26.6074,192.31358C26.6074,192.31358 26.6074,194.73478 26.6074,194.73478C26.6074,194.73478 22.1433,194.73478 22.1433,194.73478C22.21896,192.46492 22.29463,189.58972 24.56451,189.58972C24.56451,189.58972 35.61126,189.58972 35.61126,189.58972C36.36789,189.81671 37.20018,190.42202 37.20018,191.25432C37.20018,191.25432 37.20018,191.25432 37.20018,191.25432M45.97705,203.88997C45.97705,203.88997 45.97705,192.31358 45.97705,192.31358C45.97705,192.31358 52.48405,192.31358 52.48405,192.31358C52.48405,192.31358 52.48405,203.88997 52.48405,203.88997C52.48405,203.88997 45.97705,203.88997 45.97705,203.88997C45.97705,203.88997 45.97705,203.88997 45.97705,203.88997M54.07296,189.58972C49.60886,189.58972 42.57223,187.92515 41.43729,191.78395C41.58862,196.17238 41.05898,201.24177 41.66428,205.17625C42.11826,205.93287 43.02621,206.23552 43.8585,206.61383C43.8585,206.61383 55.13224,206.61383 55.13224,206.61383C56.04019,206.38684 56.87248,205.40321 57.09947,204.49528C57.09947,204.49528 57.09947,192.31358 57.09947,192.31358C56.94815,190.649 55.73754,189.58972 54.07296,189.58972C54.07296,189.58972 54.07296,189.58972 54.07296,189.58972" id="svg_35" style="pointer-events:inherit"/><rect x="22.1328125" y="189.23554706573486" width="34.96484375" height="17.37890625" fill="#000000" opacity="0" id="svg_36" style="pointer-events:inherit"/></g></g><defs><mask id="canvasMaskImageDef" maskUnits="objectBoundingBox" x="0" y="0"><image xmlns:xlink="http://www.w3.org/1999/xlink" id="canvasMaskImage" preserveAspectRatio="none" x="-103.65" y="-36.45" width="400" height="440.0580551523948" xlink:href="http://allinonedesigner.designnbuy.in/media/catalog/product/w/h/white-tees-1_-front_1_3.png"/></mask></defs></svg>