<?xml version="1.0" encoding="utf-8"?>
<!-- Generator: Adobe Illustrator 16.0.0, SVG Export Plug-In . SVG Version: 6.00 Build 0)  -->
<!DOCTYPE svg PUBLIC "-//W3C//DTD SVG 1.1//EN" "http://www.w3.org/Graphics/SVG/1.1/DTD/svg11.dtd">
<svg version="1.1" id="Layer_1" xmlns="http://www.w3.org/2000/svg" xmlns:xlink="http://www.w3.org/1999/xlink" x="0px" y="0px"
	 width="99.254px" height="31.893px" viewBox="0 0 99.254 31.893" enable-background="new 0 0 99.254 31.893" xml:space="preserve">
<path fill="#010101" d="M33.811,27.512l3.535-8.166l-5.991,8.271L33.811,27.512z M31.159,27.512l3.531-8.166l-5.991,8.271
	L31.159,27.512z M4.613,27.512l3.534-8.166l-5.989,8.271L4.613,27.512z M7.271,27.512l3.535-8.166l-5.995,8.271L7.271,27.512z
	 M12.578,27.512l3.532-8.166l-5.992,8.271L12.578,27.512z M9.925,27.512l3.53-8.166l-5.992,8.271L9.925,27.512z M70.934,19.265
	l-3.8,8.775l28.289-12.299l-38.37,1.879L70.934,19.265z M99.014,15.582L63.296,0.034c-0.146-0.065-0.317-0.035-0.435,0.075
	c-0.082,0.077-0.125,0.183-0.125,0.29c0,0.048,0.008,0.095,0.025,0.14c0,0,3.795,10.25,4.123,11.137
	c-0.945,0.098-12.549,1.308-12.549,1.308L41.5,13.012l-5.974-8.736c0,0-1.995-1.361-5.223-1.361H2.035c0,0-3.223-0.105-1.381,2.095
	l5.872,8.102c-0.161,0.053-0.279,0.197-0.279,0.375v4.82c0,0.029,0.047,0.026,0.054,0.054c-0.364,0.526-5.667,8.193-5.667,8.193
	C0.599,26.574,0,27.157,0,27.818c0,0.128,0.023,0.262,0.078,0.393c0.292,0.711,1.31,1.016,3.197,0.961H31.84
	c0.048,0.011,2.501,0.31,4.617-2.46c0.011-0.014,4.978-7.129,5.589-8.007h11.933c0,0.001,0,0.017,0,0.017
	c0,0.206,0.155,0.379,0.36,0.397c0,0,11.587,1.117,12.543,1.21c-0.334,0.896-4.12,11.023-4.12,11.023
	c-0.019,0.046-0.025,0.094-0.025,0.142c0,0.106,0.043,0.213,0.125,0.289c0.115,0.11,0.287,0.142,0.435,0.076l35.718-15.545
	c0.146-0.063,0.24-0.207,0.24-0.366C99.254,15.789,99.16,15.645,99.014,15.582z M34.236,4.402l3.533,8.164l-5.992-8.27L34.236,4.402
	z M31.578,4.402l3.535,8.164l-5.99-8.27L31.578,4.402z M28.924,4.402l3.533,8.164l-5.992-8.27L28.924,4.402z M26.271,4.402
	l3.534,8.164l-5.991-8.27L26.271,4.402z M23.618,4.402l3.531,8.164l-5.989-8.27L23.618,4.402z M20.96,4.402l3.532,8.164l-5.985-8.27
	L20.96,4.402z M18.308,4.402l3.531,8.164l-5.99-8.27L18.308,4.402z M15.653,4.402l3.533,8.164l-5.991-8.27L15.653,4.402z M13,4.402
	l3.533,8.164l-5.991-8.27L13,4.402z M10.342,4.402l3.537,8.164l-5.993-8.27L10.342,4.402z M7.689,4.402l3.531,8.164l-5.991-8.27
	L7.689,4.402z M2.577,4.296l2.458,0.105l3.534,8.164L2.577,4.296z M35.813,26.24c-1.811,2.367-3.835,2.146-3.921,2.136L3.263,28.371
	c-2.119,0.062-2.409-0.377-2.447-0.466C0.805,27.879,0.8,27.849,0.8,27.816c0-0.232,0.269-0.586,0.437-0.746
	c0.055-0.063,5.916-8.537,5.916-8.537c0.046-0.067,0.07-0.148,0.07-0.229c0-0.041-0.017-0.08-0.029-0.12h34.242L35.813,26.24z
	 M41.839,17.906c-0.083,0-0.158,0.032-0.225,0.079H7.072c-0.01,0-0.017,0.01-0.027,0.012v-0.779h46.691
	c0.098,0.234,0.232,0.466,0.414,0.688H41.839z M53.575,16.687H7.045v-2.802h0.042l0.016,0.022l1.799-0.022H54.15
	C53.855,14.426,53.359,15.552,53.575,16.687z M63.841,30.751c0.563-1.505,3.972-10.63,3.972-10.63
	c0.019-0.046,0.026-0.095,0.026-0.142c0-0.073-0.021-0.146-0.062-0.212c-0.065-0.104-0.178-0.175-0.301-0.186
	c0,0-12.016-1.159-12.699-1.227c0-0.012,0-0.053,0-0.053c0-0.221-0.178-0.399-0.399-0.399h-0.026v-4.021c0.006,0,0.026,0,0.026,0
	c0.041-0.104,13.103-1.467,13.103-1.467c0.125-0.013,0.233-0.081,0.299-0.188c0.039-0.063,0.061-0.137,0.061-0.211
	c0-0.047-0.008-0.094-0.023-0.139c0,0-3.422-9.237-3.979-10.741c1.6,0.696,32.449,14.126,34.016,14.808
	C96.286,16.629,65.445,30.052,63.841,30.751z M28.504,27.512l3.534-8.166l-5.989,8.271L28.504,27.512z M25.848,27.512l3.535-8.166
	l-5.989,8.271L25.848,27.512z M23.194,27.512l3.535-8.166l-5.993,8.271L23.194,27.512z M15.231,27.512l3.534-8.166l-5.991,8.271
	L15.231,27.512z M17.886,27.512l3.536-8.166l-5.991,8.271L17.886,27.512z M20.545,27.512l3.53-8.166l-5.992,8.271L20.545,27.512z"/>
</svg>
