<?xml version="1.0" encoding="utf-8"?>
<!-- Generator: Adobe Illustrator 16.0.0, SVG Export Plug-In . SVG Version: 6.00 Build 0)  -->
<!DOCTYPE svg PUBLIC "-//W3C//DTD SVG 1.1//EN" "http://www.w3.org/Graphics/SVG/1.1/DTD/svg11.dtd">
<svg version="1.1" id="svg5612" xmlns:svg="http://www.w3.org/2000/svg"
	 xmlns="http://www.w3.org/2000/svg" xmlns:xlink="http://www.w3.org/1999/xlink" x="0px" y="0px" width="545.73px"
	 height="576.637px" viewBox="0 0 545.73 576.637" enable-background="new 0 0 545.73 576.637" xml:space="preserve">
<path fill="none" stroke="#000000" stroke-width="2" d="M81.384,111.672l28.125-23.936L71.211,47.045L44.283,72.776L81.384,111.672z
	 M17.355,55.124l17.054,8.079l27.945-26.366l-5.661-18.813 M534.862,544.805c0,0,1.196-8.377-3.591-12.362
	s-13.165-1.592-13.165-1.592l-23.134,21.938c0,0-2.19,10.376,1.592,13.164c4.081,3.017,12.77,1.999,12.77,1.999 M34.409,63.202
	c0,0,1.053,5.182,2.549,6.87c2.382,2.705,7.325,2.705,7.325,2.705 M71.211,47.045c0,0,0.694-4.093-1.795-6.439
	c-2.501-2.346-7.061-3.77-7.061-3.77 M17.355,55.124l-8.833-4.201l-0.598-0.287c0,0-7.181-3.758-7.324-6.343
	C0.301,39.11,45.432-0.156,48.376,0.609c2.849,0.742,4.955,6.068,5.589,7.851c0.12,0.371,0.192,0.586,0.192,0.586l2.537,8.976
	 M7.924,50.636L53.797,8.521 M127.556,105.581l205.849,223.406l-25.827,22.644L96.643,131.12L127.556,105.581z M307.578,351.63
	c0,0-4.297,6.679-2.214,9.155c0.12,0.145,0.263,0.275,0.419,0.383c2.992,2.095,17.342,4.524,17.342,4.524 M333.405,328.986
	c0,0,9.526-4.571,11.191-1.148c2.059,4.236,1.974,17.904,1.974,17.904 M305.364,360.785l6.391-5.373l25.552-21.459l7.289-6.115
	 M323.125,365.692c0,0-5.278,14.063,5.086,22.44c10.376,8.377,21.327,5.301,21.327,5.301l20.166-20.166
	c0,0,4.787-9.179-5.984-18.346c-10.771-9.18-17.149-9.18-17.149-9.18L323.125,365.692z M473.431,530.851L361.722,411.565
	l0.215-0.203l26.916-24.929l111.303,119.284L473.431,530.851z M361.937,411.362c0,0-9.789,1.148-12.781-2.741
	c-2.441-3.183,0.383-15.188,0.383-15.188 M369.704,373.268c0,0,11.92-3.075,16.349,0.396c0.131,0.096,0.251,0.204,0.37,0.312
	c4.226,4.08,2.43,12.459,2.43,12.459 M349.155,408.621l6.582-6.235l23.685-22.439l6.631-6.283h0.012 M500.155,505.718
	c0,0,10.651-0.587,12.649,1.999c1.844,2.405,0.191,14.074,0.586,16.539c0.035,0.19,0.072,0.334,0.131,0.407
	c0.672,0.838,3.471,4.666,4.333,5.84 M518.106,530.851l-0.251-0.348 M473.431,530.851c0,0-2.598,8.174,0,10.173
	c1.831,1.4,9.335,2.813,13.858,3.938c1.892,0.467,3.256,0.897,3.495,1.244c0.766,1.161,3.974,6.247,4.177,6.569 M494.973,552.788
	l-0.012-0.014 M512.805,507.717l-7.001,5.91l-26.916,22.776l-5.457,4.62 M509.334,567.951c0,0,6.93-0.72,7.971,0.168
	c1.054,0.873,7.337,8.21,8.833,7.91c1.496-0.299,19.148-15.559,18.993-16.91c-0.144-1.341-6.882-7.025-8.223-7.923
	c-1.352-0.897-2.046-6.392-2.046-6.392 M517.305,568.119l19.604-16.923 M81.384,111.672c0,0-0.981,11.286,0,12.482
	c0.969,1.197,9.418,0.599,10.089,1.353c0.634,0.694,4.62,5.015,5.122,5.553 M96.643,131.12l-0.048-0.06 M109.508,87.736
	c0,0,11.214-0.981,12.339,0c1.125,0.969-0.287,10.688,0.646,11.741c0.897,1.005,4.811,5.792,5.05,6.091 M127.556,105.581
	l-0.012-0.012 M81.384,124.155l5.745-5.17l28.256-25.432l6.462-5.816 M91.473,125.507l0.467-0.383l29.956-25.145l0.599-0.502
	 M121.847,136.805c0-3.974,3.663-7.181,8.187-7.181c4.523,0,8.198,3.208,8.198,7.181c0,3.961-3.674,7.181-8.198,7.181
	C125.51,143.986,121.847,140.767,121.847,136.805z M149.613,166.569c0-3.961,3.662-7.181,8.186-7.181s8.186,3.219,8.186,7.181
	c0,3.973-3.662,7.181-8.186,7.181S149.613,170.542,149.613,166.569z M177.379,196.346c0-3.961,3.662-7.181,8.186-7.181
	s8.186,3.219,8.186,7.181s-3.662,7.181-8.186,7.181S177.379,200.307,177.379,196.346z M205.132,226.122
	c0-3.974,3.674-7.181,8.198-7.181s8.186,3.207,8.186,7.181c0,3.961-3.662,7.181-8.186,7.181S205.132,230.083,205.132,226.122z
	 M232.898,255.898c0-3.974,3.674-7.181,8.198-7.181s8.186,3.208,8.186,7.181c0-1.005,0.958,7.181-8.186,7.181
	C236.572,263.079,232.898,259.86,232.898,255.898z M257.193,281.94c0-3.961,3.674-7.181,8.198-7.181s8.186,3.219,8.186,7.181
	c0,3.974-3.662,7.181-8.186,7.181S257.193,285.914,257.193,281.94z M480.862,503.155c0,4.021-3.842,7.29-8.581,7.29
	c-4.751,0-8.593-3.268-8.593-7.29c0-4.02,3.842-7.288,8.593-7.288C477.021,495.867,480.862,499.136,480.862,503.155z"/>
</svg>
