<?xml version="1.0" encoding="utf-8"?>
<!-- Generator: Adobe Illustrator 16.0.0, SVG Export Plug-In . SVG Version: 6.00 Build 0)  -->
<!DOCTYPE svg PUBLIC "-//W3C//DTD SVG 1.1//EN" "http://www.w3.org/Graphics/SVG/1.1/DTD/svg11.dtd">
<svg version="1.1"
	 id="svg548" xmlns:cc="http://creativecommons.org/ns#" xmlns:dc="http://purl.org/dc/elements/1.1/" xmlns:rdf="http://www.w3.org/1999/02/22-rdf-syntax-ns#"
	 xmlns="http://www.w3.org/2000/svg" xmlns:xlink="http://www.w3.org/1999/xlink" x="0px" y="0px" width="143.447px"
	 height="71.281px" viewBox="0 0 143.447 71.281" enable-background="new 0 0 143.447 71.281" xml:space="preserve">
<rect id="rect1066" x="0.282" fill="#DE2110" width="143.165" height="71.28"/>
<path id="path552" d="M58.391,17.844c1.104-0.109,1.328-0.094,2.139,0.116c-1.041,0.476-2.271,0.238-3.034-0.438
	c-1.153-1.047-3.899-2.856-2.917-1.314c5.095,5.646,9.482,1.829,12.151,5.08c0.909,1.107,1.713,2.594,1.232,4.055
	c-0.164,0.5-0.754,1.674-1.468,1.375c-0.937-0.391,0.177-3.465-0.504-4.465c-1.546-2.27-4.348-1.662-6.646-1.908
	c-0.667,1.809-2.271,1.535-3.75,0.623c-1.886-1.164-1.828-4.027-3.515-4.973c-1.755-0.984-1.469,2.314-1.187,3.1
	c1.226,3.397,4.834,4.668,8.137,4.063c-2.444,3.784-6.319-2.451-8.238-0.923c-1.218,0.969,0.935,2.73,1.679,3.136
	c2.063,1.119,4.538,0.558,6.561-0.338c-1.154,1.254-3.278,2.022-5.001,1.769c-0.892-0.132-2.674-1.25-3.485-0.504
	c-1.252,1.15,1.807,2.516,2.547,2.678c2.503,0.545,4.275-0.776,6.253-2.066c-1.241,1.24-2.565,2.939-4.376,3.311
	c-1.13,0.232-3.619-0.92-4.35,0.275c-0.872,1.43,1.44,2.335,2.475,2.246c2.447-0.211,4.723-2.182,6.564-3.645
	c-1.268,1.797-3.222,3.699-5.313,4.51c-1.099,0.427-2.986-0.232-3.813,0.725c-1.274,1.475,1.531,2.344,2.563,2.094
	c3.014-0.734,4.62-4.031,7.502-5.14c-1.955,1.8-4.024,4.589-6.279,5.925c-1.121,0.662-2.948-0.15-3.834,0.828
	c-2.002,2.212,3.015,2.686,4.432,1.514c2.375-1.963,3.514-4.775,6.308-6.391c-1.863,2.533-4.225,6.318-6.595,8.365
	c-1.128,0.973-3.604,0.117-4.318,1.201c-1.437,2.174,3.192,2.549,4.348,1.778c3.789-2.521,3.996-8.369,8.754-9.783
	c-1.35,2.889-2.694,6.797-5.939,7.814c0.487,1.467,2.209,1.596,3.314,0.524c1.898-1.834,1.507-6.012,4.813-6.15l-2.384,3.34
	c0.126,1.365,2.572-0.465,3.321-1.775h0.313c-1.304,3.104-3.602,4.84-6.564,6.25c0.059,1.854-1.182,2.808-2.813,3.438
	c-0.878-1.613-3.22-2.813-4.376-0.938c0.918,0.123,1.738,0.295,1.875,1.25c-1.456-0.524-2.604-0.773-3.125,0.938
	c1.706-0.279,2.289-0.22,2.579,0.526c-1.166,1.344-0.977,3.388,1.172,3.586c-0.6-0.434-1.003-0.721-0.675-1.301
	c0.478-0.633,1.041,0.008,1.316-0.369c0.516-0.752,0.051-0.489,0.709-0.188c0.539,0.387,1.416-1.229,2.664,1.494
	c1.5-1.08,0.057-2.786-0.577-4.063l4.688-0.938l5.313-5.002l0.313,0.313c-1.718,2.7-4.189,5.021-7.502,5.313
	c1.108,2.011,3.285,0.974,5.002,0.313c-0.747,1.455-2.687,1.465-3.337,2.67c-1.334,2.474,4.241-0.076,4.587-0.17
	c-0.444,1.568-2.202,1.883-2.657,3.213c-0.354,1.033,1.093,1.138,1.707,0.836c1.187-0.578,1.961-2.148,2.826-3.11
	c-0.404,1.877,0.361,3.36-1.704,5.528l3.169,3.898l3.617-3.902c-1.996-1.729-0.771-3.748-1.154-5.623
	c0.845,0.992,1.134,2.619,2.335,3.209c0.561,0.273,1.718,0.283,1.577-0.639c-0.198-1.309-2.118-1.979-2.524-3.41
	c0.397,0.133,5.806,2.668,4.563,0.17c-0.591-1.185-2.584-1.252-3.313-2.67c1.736,0.668,3.521,1.512,5.001,0
	c-2.753-0.957-6.849-2.586-7.189-5.939l5.403,4.652l4.601,1.601v0.313c-1.12,1.168-1.771,1.981-0.84,3.407l1.144,0.345
	c-0.731-0.808-0.488-1.227,0-1.545c0.828-0.395,1.324,0.371,1.646-0.418c0.146-0.384,0.196-0.563,0.271-0.097
	c0.08,0.828,1.229,0.19,1.631,0.299c0.629,0.619-0.307,1.237-0.41,1.761c1.775-0.623,2.111-1.713,1.563-3.439
	c0.116-0.652,0.526-0.967,0.938-0.938c0.468,0.056,0.834,0.209,1.253,0.313c-0.611-1.594-1.688-1.532-3.128-0.938
	c0.132-0.953,0.603-1.42,1.563-1.25c-0.722-2.166-3.332-0.427-4.064,0.938c-1.698-0.563-3.326-1.482-2.813-3.438
	c-2.872-1.367-5.547-3.063-6.563-6.252h0.313c0.747,1.313,3.146,2.215,2.979,0.995l-2.042-2.559c4.397,0.188,2.646,8.18,8.128,6.563
	V42.85c-3.153-1.758-4.449-4.938-5.938-8.126c4.68,1.391,4.834,7.194,8.471,9.729c1.162,0.812,6.056,0.593,4.615-1.726
	c-0.646-1.043-3.228-0.291-4.32-1.203c-2.373-1.979-4.763-5.833-6.575-8.363c2.87,1.824,4.243,5.5,7.188,6.975
	c1.243,0.623,4.188,0.529,3.769-1.615c-0.302-1.525-2.75-0.674-3.765-1.107c-2.272-0.977-4.746-4.381-6.567-6.125
	c2.729,1.198,4.348,4.252,7.188,5.109c1.045,0.314,3.746-0.153,2.998-1.85c-0.531-1.203-2.91-0.555-3.937-0.923
	c-2.252-0.812-3.981-2.882-5.627-4.526c2.204,1.27,4.2,3.416,6.877,3.645c1.032,0.088,3.715-1.139,2.307-2.445
	c-0.916-0.851-2.769,0.098-3.868-0.027c-1.777-0.201-3.271-1.768-4.377-3.047c2.582,1.586,10.596,2.262,9.19-1.055
	c-0.976-0.811-2.039,0.602-3.955,0.655c-2.011,0.004-4.002-0.472-5.646-1.739c2.096,0.707,4.498,1.458,6.655,0.446
	c0.771-0.36,3.519-2.638,1.742-3.418c-1.386-0.61-2.813,1.353-3.924,1.849c-1.378,0.615-2.984,0.168-4.378-0.176v-0.313
	c2.855-0.151,5.689-0.313,7.568-2.826c0.617-0.824,2.226-4.203,0.428-4.754c-0.715-0.219-1.271,0.496-1.569,1.035
	c-0.877,1.58-4.787,7.859-6.427,3.42c-2.303,0.246-5.093-0.36-6.646,1.908c-0.688,1.006,0.375,4.096-0.555,4.465
	c-2.628,1.041-0.874-4.699-0.235-5.431c2.83-3.255,10.483-0.452,11.813-5.007c0.146-1.207-1.578,0.954-2.388,1.479
	c-0.879,0.541-1.994,0.576-2.929,0.397c0.991-0.521,1.787-0.354,2.415-0.459c-0.589-1.031-1.936-0.901-2.278-1.472
	c-0.448-0.812-2.239-1.047-3.255-0.887c-1.938,0.428-2.681,1.006-6.261,0.004l1.563,1.875l-2.239,0.938l0.988,0.627l-1.876,1.25
	c0.313,0.104,1.058,0.104,1.008,0.399l-1.512,2.57c-0.313-0.539-1.345-1.949-1.49-2.492c-0.072-0.24,0.363-0.354,0.953-0.461
	l-1.771-1.268l1.146-0.669l-2.396-0.894l1.25-1.875c-1.992,1.33-3.704-0.529-6.012,0.014c-0.983,0.225-1.777,1.32-2.706,1.137
	C59.85,16.36,58.94,16.825,58.391,17.844L58.391,17.844z"/>
</svg>
