<?xml version="1.0" encoding="utf-8"?>
<!-- Generator: Adobe Illustrator 16.0.0, SVG Export Plug-In . SVG Version: 6.00 Build 0)  -->
<!DOCTYPE svg PUBLIC "-//W3C//DTD SVG 1.1//EN" "http://www.w3.org/Graphics/SVG/1.1/DTD/svg11.dtd">
<svg version="1.1" id="Layer_1" xmlns="http://www.w3.org/2000/svg" xmlns:xlink="http://www.w3.org/1999/xlink" x="0px" y="0px"
	 width="23.482px" height="28.393px" viewBox="5.808 1.903 23.482 28.393" enable-background="new 5.808 1.903 23.482 28.393"
	 xml:space="preserve">
<path fill="#000000" d="M7.831,29.354c0.685,0.354,1.62,1.179,2.344,0.876c0.475-0.194,0.753-1.301,1.048-1.883
	c2.221-4.376,4.635-9.353,6.393-13.611c0-0.189,0.101-0.337-0.05-0.595c0.983-1.6,1.65-3.357,2.725-5.138
	c0.34-0.566,0.686-1.352,1.163-1.577l0.881-0.368c1.12-0.288,1.938-0.277,2.719,0.474c0.396,0.383,0.578,1.015,0.961,1.395
	c0.259,0.26,1.246,0.899,1.613,0.8c0.285-0.077,0.52-0.364,0.72-0.728l0.696-1.286c0.194-0.366,0.306-0.718,0.215-0.999
	c-0.117-0.362-1.192-0.84-1.552-0.915c-0.528-0.113-1.154,0.081-1.692-0.041c-1.057-0.243-1.513-0.922-1.883-2.021
	c-2.608-1.532-6.119-2.529-10.207-1.243c-1.109,0.349-2.172,0.613-2.901,1.322c-0.146,0.412,0.144,0.494,0.446,0.489
	c-0.237,0.216-0.62,0.341-0.399,0.848c2.495-1.146,7.341-1.542,7.669,0.805c0.072,0.521-0.395,1.241-0.682,1.835
	c-0.905,1.874-2.011,3.394-2.813,5.091c-0.299,0.017-0.366,0.18-0.525,0.287c-2.604,3.8-5.451,8.541-7.9,12.794
	c-0.325,0.566-1.098,1.402-1.002,1.906C5.961,28.641,7.146,29,7.831,29.354z"/>
</svg>
