<?xml version="1.0" encoding="utf-8"?>
<!-- Generator: Adobe Illustrator 16.0.0, SVG Export Plug-In . SVG Version: 6.00 Build 0)  -->
<!DOCTYPE svg PUBLIC "-//W3C//DTD SVG 1.1//EN" "http://www.w3.org/Graphics/SVG/1.1/DTD/svg11.dtd">
<svg version="1.1" id="Layer_1" xmlns="http://www.w3.org/2000/svg" xmlns:xlink="http://www.w3.org/1999/xlink" x="0px" y="0px"
	 width="307.994px" height="82.331px" viewBox="-4.001 108.835 307.994 82.331"
	 enable-background="new -4.001 108.835 307.994 82.331" xml:space="preserve">
<path fill="none" stroke="#000000" stroke-width="10" d="M7.784,182.663h59.68c0,0-30.83-67.744,15.054-68.817
	c42.463-0.994,37.635,69.356,24.194,69.356s-12.904-68.82,22.043-68.82c34.948,0,40.325,68.82,20.968,68.82
	c-19.354,0-11.828-68.82,22.582-68.82c34.41,0,41.398,68.82,19.896,68.82c-21.506,0-9.683-68.82,24.19-68.82
	c33.871,0,29.57,68.82,18.279,68.82s57.529-0.539,57.529-0.539 M0.999,179.092h6.773v6.773H0.999V179.092z M292.22,179.393h6.773
	v6.773h-6.773V179.393z"/>
</svg>
