<svg xmlns="http://www.w3.org/2000/svg" xmlns:se="http://svg-edit.googlecode.com" xmlns:xlink="http://www.w3.org/1999/xlink" id="svgcontent" width="205.65" height="395.85" x="0" y="0" viewBox="0 0 205.65 395.85" overflow="hidden"><g mask="" style="pointer-events:all"><title style="pointer-events:inherit">Layer 1</title><g id="svg_4" fill-opacity="1" display="null" style="pointer-events:inherit" clip-id="202"><path fill="#ff7f00" d="M80.21517,144.47797C80.21842,144.46602 80.84425,143.10223 82.0883,140.94501C83.21371,138.99135 83.74812,138.14131 83.8537,137.98022C84.00933,137.63518 85.07597,135.28969 85.56792,134.50821C85.9369,133.92155 86.77496,133.01601 87.38664,132.36949C87.04816,132.44568 86.71075,132.52405 86.3679,132.57521C85.49065,132.70583 84.60796,132.77982 83.71873,132.75479C81.72804,132.69928 79.80484,132.06909 79.08649,130.05118C78.46175,128.29126 79.13221,126.12859 79.73409,124.45573C80.85514,121.33202 84.25205,117.1362 80.36864,114.55342C79.66225,114.0854 78.80133,113.83182 77.95998,113.78065C76.91621,113.71208 76.28712,114.01466 75.43816,114.58391C73.95685,115.58089 72.45484,116.83035 71.59828,118.42488C70.92238,119.68851 70.95286,122.00027 72.94244,121.74559C74.54675,121.53987 75.85067,120.24902 77.23839,119.53287C76.17284,120.20222 75.25204,121.31786 74.48254,122.29959C73.63904,123.37927 72.78027,124.52318 72.32207,125.82819C71.87691,127.10379 72.2524,128.45123 73.85563,128.41533C74.82865,128.39247 75.73746,127.3661 76.52003,126.87305C75.83652,127.67955 75.35435,128.67873 74.91354,129.62999C74.49233,130.53987 73.9699,131.80353 74.16037,132.8277C74.66212,135.5509 77.87727,131.8231 78.61303,131.38229C77.77279,132.81683 76.95866,134.61052 76.98805,136.30299C77.02723,138.53964 79.18009,138.29912 80.77896,137.87572C79.59804,138.63432 77.78476,139.13174 76.60818,138.07816C75.38374,136.97778 75.91271,135.08942 76.62996,133.86823C75.33259,134.53432 73.83059,134.21977 73.37019,132.71344C72.94682,131.32246 73.67822,129.83788 74.4488,128.71899C72.94463,129.12823 71.53841,128.00172 71.43501,126.50407C71.32944,124.97815 72.34601,123.55344 73.22544,122.40515C72.26546,122.29631 71.01489,122.05032 70.59476,121.03703C70.16703,120.0074 70.52946,118.87547 71.02251,117.93401C72.08807,115.8867 73.96664,114.18336 76.01393,113.15483C72.29702,114.32051 69.24079,116.53648 66.97039,119.68742C66.3391,120.56575 64.31469,123.24649 65.30513,124.36539C66.24007,125.42331 69.14393,123.1257 69.95805,122.60762C70.22906,122.43454 70.49136,122.24951 70.75694,122.06668C69.42799,123.91805 67.68002,126.12206 67.17066,128.39572C66.94427,129.39597 67.33282,129.89555 68.3483,129.7312C69.34855,129.56575 70.3575,128.43491 71.21625,127.92773C70.18226,129.55489 69.4552,131.81548 69.35072,133.74416C69.29195,134.77486 69.54446,135.89809 70.81898,135.62056C71.88453,135.38437 72.6366,134.40263 73.46053,133.76701C73.04041,135.45294 72.03146,137.55574 72.57567,139.31566C72.85973,140.24081 73.93073,140.22887 74.65778,139.83485C75.34456,139.46043 75.72333,138.6006 76.44493,138.30348C75.89855,139.72383 75.07137,141.62309 75.46972,143.17734C75.95841,145.09619 78.25385,144.00453 79.34554,143.31012C78.50963,144.32671 76.92819,145.23767 75.60577,144.59552C74.02542,143.82603 74.56853,141.59807 74.97885,140.29961C73.74352,140.79483 72.19691,140.93848 71.59718,139.48004C71.07693,138.22292 71.7082,136.61426 72.17731,135.43878C70.70687,136.61426 68.90448,136.39113 68.56054,134.33406C68.28083,132.65683 68.90121,130.9317 69.77955,129.52223C68.59972,130.2863 66.34891,131.01768 66.35435,128.82674C66.35543,127.16367 67.39485,125.55281 68.24055,124.19231C66.87788,125.15121 63.97727,125.96642 64.21999,123.29765C64.39523,121.34396 65.92443,119.60144 67.15977,118.19414C64.18951,120.44713 61.71232,123.24866 60.34962,126.76096C59.9393,127.81998 59.28082,130.92517 61.44021,129.79869C63.00207,128.98784 64.32993,127.63167 65.5054,126.3441C65.62077,126.22218 65.73505,126.09811 65.85042,125.97729C64.40611,128.33044 62.45896,131.12111 62.46766,133.99556C62.4731,135.80885 63.97292,135.54546 65.04391,134.63446C66.13994,133.69952 66.8006,132.23779 67.95213,131.3932C67.17828,132.70363 66.39027,134.01733 65.8047,135.42355C65.32907,136.56638 64.7359,138.14131 64.89262,139.40492C65.10378,141.11697 67.08358,139.87512 67.90096,139.3625C68.90991,138.72905 69.25385,137.48717 70.12894,136.74379C69.20052,138.7225 68.17089,141.60458 68.9502,143.79227C69.40732,145.07225 70.61762,144.84695 71.43938,144.02739C72.21104,143.26224 72.43308,142.11395 73.07089,141.26065C72.68451,142.7028 72.29702,144.20695 72.49512,145.71004C72.72695,147.47437 74.37261,147.12715 75.45122,146.30431C74.83192,146.96931 73.57698,147.98482 72.60396,147.4221C71.62004,146.85069 71.67445,145.28014 71.71147,144.30602C70.42606,145.51741 68.72163,145.56639 68.00764,143.74767C67.4373,142.30226 67.88573,140.59239 68.70421,139.34181C67.65717,140.34312 64.99821,142.56238 64.16557,140.11349C63.59852,138.4493 64.32774,136.38351 65.22785,134.96643C64.60202,135.41917 63.80204,136.05809 62.98466,136.04938C62.04536,136.04176 61.66006,135.20804 61.61,134.36562C61.51421,132.64595 62.03121,130.74887 63.10873,129.39053C62.07801,130.13391 59.73576,131.49005 59.0947,129.5538C58.57117,127.97453 59.64761,126.03062 60.42147,124.72453C57.90725,127.5446 55.93289,130.71729 53.89649,133.88564C52.85925,135.50407 52.24647,137.37724 51.76649,139.23189C51.45737,140.41606 50.61387,143.59637 51.94389,144.44641C53.09978,145.18979 54.71714,143.02823 55.27332,142.24785C56.17451,140.98747 56.97668,139.60628 57.71786,138.24794C56.7394,140.8634 55.87956,143.99037 56.07111,146.80714C56.21152,148.86531 57.87242,147.38077 58.49499,146.41426C59.27647,145.19524 59.83916,143.82274 60.52269,142.54825C60.465,143.51472 60.00134,144.552 59.75101,145.48911C59.44843,146.61342 59.38639,147.61148 59.44952,148.77716C59.48653,149.46069 59.64,150.74718 60.5597,149.95808C61.42496,149.21689 62.02686,148.18398 62.65051,147.24687C62.25542,148.49309 61.19859,150.46638 59.8914,150.95506C58.17936,151.60048 58.58968,147.68333 58.64954,146.85069C57.84194,147.80959 55.82404,149.75128 55.22217,147.5451C54.79115,145.96039 55.31142,144.08505 55.74786,142.55475C54.99904,143.48207 51.69139,147.44714 50.7129,144.76967C49.91511,142.58524 50.68353,139.93063 51.24622,137.77779C48.98887,140.98964 47.37478,144.71959 45.6083,148.2112C44.70167,150.00597 43.87448,151.74632 43.36183,153.69348C43.18551,154.36176 42.8296,155.64064 43.30742,156.25778C43.8897,157.00986 45.07716,156.13478 45.61919,155.75165C46.42678,155.17807 47.12879,154.45863 47.81993,153.75661C48.49692,153.06874 49.37309,152.21544 49.83348,151.36322C50.7989,149.57278 51.4454,147.61256 52.45544,145.8461C52.26389,147.32414 51.66308,148.81201 51.28432,150.25304C50.94257,151.55476 50.35591,153.29512 50.65632,154.64474C51.01876,156.2632 53.40778,153.44641 53.76044,152.87064C54.56694,151.56349 54.94244,150.0016 55.69561,148.65854C55.55956,149.42586 54.04015,155.09534 55.06651,155.23682C55.81425,155.34132 57.04633,153.71526 57.39462,153.16779C57.97691,152.24591 58.11295,151.0737 58.68547,150.13983C58.58533,150.82771 58.0618,157.30698 59.88161,156.06184C60.86227,155.39249 61.45544,154.09186 61.96699,153.06111C62.54059,151.90196 63.02927,150.70691 63.51144,149.50859C63.12941,150.68405 62.83772,151.95204 62.40019,153.13077C62.78766,154.74051 63.62028,153.25594 64.24503,151.92374C64.58788,151.12158 64.92963,150.31833 65.27139,149.51729C63.30355,148.82504 64.42896,145.75575 64.82404,144.42572C63.99796,145.24966 62.33923,146.28906 62.03448,144.44969C61.80046,143.05652 62.30549,141.58609 62.829,140.31485C62.11828,141.18774 60.19291,142.83122 59.67373,140.88734C59.27647,139.40056 60.03617,137.64497 60.68268,136.34216C60.09277,137.06593 59.38857,137.73315 58.46777,137.99762C57.39243,138.30782 56.51518,137.67003 56.36608,136.59032C56.09615,134.64644 57.7712,132.65791 58.9445,131.3083C58.26315,132.8277 57.15952,134.82382 57.33801,136.55331C57.56441,138.72359 60.77084,135.8208 61.4228,135.25375C61.12458,136.21046 60.83288,137.17261 60.60432,138.15434C60.43779,138.88031 60.03073,140.16138 60.37467,140.87756C61.03968,142.26743 63.36777,138.83351 63.81075,138.37639C63.543,140.36707 62.19447,142.40674 62.58412,144.48668C62.80724,145.68285 63.85429,144.87306 64.40937,144.34845C65.30948,143.4984 65.73396,142.32401 66.48061,141.35316C65.66212,143.40916 64.90132,145.6861 65.01234,147.93149C65.082,149.38884 65.89613,148.54642 66.40115,147.79109C67.07378,146.77342 67.5875,145.64911 68.09145,144.54437C67.36548,146.62103 65.87763,149.57387 67.40901,151.65598C67.78124,152.30467 68.01852,152.18605 68.26559,151.89435C68.79781,151.50146 69.20596,150.26611 69.33549,149.85359C69.74037,148.55733 70.21819,147.20335 70.47504,145.87221C70.49136,147.91296 69.70335,149.797 70.22144,151.87369C70.49899,152.98276 71.17053,151.74741 71.41106,151.25981C71.91936,150.23018 72.31663,149.15048 72.72042,148.07622C72.60286,149.42586 72.14684,151.86061 73.03279,153.02956C73.88719,154.1604 75.65802,150.19209 75.8942,149.67729C75.70918,150.23235 75.05505,151.68213 75.51217,152.23177C76.01066,152.83148 77.13825,151.7213 77.51483,151.39259C78.55969,150.47072 79.52076,149.37689 80.3523,148.23077C80.23476,147.89664 80.12482,147.57666 80.03449,147.30128C79.51097,145.7057 80.18686,144.52698 80.21517,144.47797zM150.18423,153.19389C149.66832,151.24565 148.84334,149.50529 147.93669,147.71161C146.17239,144.21895 144.55719,140.48897 142.30095,137.27711C142.86255,139.43105 143.63098,142.08459 142.82991,144.27008C141.85471,146.94867 138.54376,142.98251 137.79604,142.05519C138.23141,143.58549 138.75276,145.45972 138.32066,147.04552C137.71877,149.25061 135.70195,147.3089 134.89436,146.35002C134.95641,147.18158 135.36673,151.09984 133.65468,150.45547C132.34532,149.96571 131.28738,147.99136 130.89339,146.74512C131.51704,147.68442 132.12003,148.71512 132.98531,149.4585C133.90392,150.24542 134.05736,148.96002 134.09656,148.27541C134.15968,147.11084 134.09656,146.11166 133.79616,144.98735C133.54692,144.05133 133.07999,143.01408 133.02449,142.04758C133.70691,143.32098 134.27071,144.69348 135.05109,145.91251C135.67256,146.879 137.33563,148.3625 137.47606,146.30539C137.66978,143.48862 136.80885,140.36165 135.8282,137.74619C136.56831,139.10561 137.37375,140.48572 138.27275,141.74718C138.82784,142.52647 140.44739,144.68695 141.60435,143.94574C142.93439,143.0946 142.0887,139.91539 141.78067,138.73013C141.30069,136.8744 140.68793,135.00343 139.65068,133.38496C137.61427,130.21773 135.63666,127.04501 133.12462,124.22389C133.89847,125.52995 134.97598,127.47386 134.45137,129.05203C133.8092,130.98941 131.46915,129.63216 130.43733,128.88986C131.5116,130.24712 132.03185,132.14528 131.93391,133.86494C131.88602,134.7052 131.5007,135.54109 130.56142,135.54762C129.74295,135.55634 128.94514,134.91634 128.31714,134.46574C129.21397,135.88396 129.94539,137.94865 129.38051,139.61282C128.5468,142.06174 125.88783,139.84357 124.84186,138.84006C125.66034,140.08955 126.10658,141.80159 125.53954,143.24699C124.82336,145.06462 123.11783,145.01566 121.83463,143.80426C121.87051,144.77946 121.92822,146.34894 120.94429,146.92035C119.97018,147.48415 118.71524,146.46756 118.09703,145.80363C119.17456,146.6254 120.82349,146.97153 121.05313,145.20831C121.25122,143.70412 120.86484,142.20105 120.47737,140.7589C121.11844,141.6122 121.33612,142.76048 122.10997,143.52562C122.9317,144.34628 124.14203,144.57158 124.59915,143.29054C125.37953,141.10284 124.34991,138.22183 123.41934,136.24203C124.29549,136.98541 124.6394,138.22729 125.64946,138.86073C126.46576,139.37228 128.44447,140.61525 128.65672,138.90317C128.81563,137.63956 128.22246,136.06462 127.74464,134.92288C127.15907,133.51556 126.36998,132.20078 125.5983,130.89253C126.75092,131.73387 127.40942,133.19775 128.50433,134.13162C129.57533,135.0437 131.07625,135.3071 131.0806,133.49271C131.08929,130.61827 129.14432,127.82867 127.7011,125.47552C127.81538,125.59636 127.93076,125.72151 128.04504,125.84343C129.21834,127.12881 130.54727,128.48825 132.10803,129.29694C134.26854,130.42342 133.61005,127.31931 133.19972,126.26028C131.83704,122.74802 129.36092,119.94644 126.38849,117.69238C127.62383,119.0986 129.15303,120.84329 129.32936,122.79698C129.57097,125.46574 126.67038,124.65054 125.30879,123.69058C126.15338,125.05217 127.19171,126.66191 127.19391,128.32498C127.19716,130.51701 124.94853,129.78346 123.76871,129.02048C124.64813,130.42995 125.26852,132.15506 124.98882,133.83229C124.64595,135.88937 122.84029,136.1125 121.37204,134.93594C121.84004,136.1125 122.47133,137.72116 121.95108,138.9772C121.35135,140.43564 119.80582,140.29199 118.5705,139.79677C118.98082,141.09631 119.52286,143.32428 117.94466,144.09375C116.61897,144.73483 115.04189,143.82384 114.20599,142.80836C115.29657,143.50168 117.58765,144.59225 118.0818,142.67558C118.47908,141.12025 117.65187,139.22098 117.10658,137.80173C117.83147,138.09668 118.20805,138.9576 118.89482,139.33202C119.61971,139.72491 120.69069,139.73798 120.97368,138.8139C121.52223,137.0529 120.51219,134.94902 120.0899,133.26416C120.91382,133.90086 121.66699,134.88261 122.73145,135.11769C124.00708,135.39523 124.2574,134.2731 124.20079,133.24022C124.09631,131.31155 123.36925,129.05095 122.33418,127.42377C123.19511,127.93098 124.20406,129.06183 125.20322,129.22728C126.21979,129.3927 126.60725,128.89311 126.37978,127.89288C125.86932,125.6203 124.12244,123.41521 122.79349,121.56493C123.05907,121.74667 123.32028,121.93279 123.59019,122.10587C124.40433,122.62286 127.31036,124.91939 128.24422,123.86253C129.23466,122.74365 127.21024,120.06291 126.57787,119.18567C124.30965,116.03365 121.25122,113.81767 117.53542,112.65198C119.58379,113.68053 121.45911,115.38387 122.52791,117.43115C123.01988,118.37047 123.38123,119.50348 122.95457,120.5331C122.53554,121.54749 121.28606,121.79239 120.32498,121.90123C121.20551,123.05058 122.21989,124.47421 122.11542,125.99907C122.01312,127.49889 120.6058,128.62431 119.10271,128.21506C119.87439,129.33392 120.6058,130.81961 120.18024,132.2084C119.72092,133.71584 118.21785,134.02931 116.92155,133.36539C117.63664,134.58441 118.16777,136.47278 116.94333,137.57315C115.76567,138.62779 113.95349,138.13148 112.77037,137.37071C114.3736,137.79518 116.52429,138.03464 116.56239,135.79906C116.59177,134.1066 115.77763,132.3129 114.93849,130.87837C115.67426,131.31917 118.88831,135.04807 119.39006,132.32486C119.5816,131.29961 119.05591,130.03815 118.63797,129.12715C118.20042,128.17697 117.71718,127.17783 117.03258,126.37129C117.81404,126.86327 118.72502,127.88963 119.69373,127.91357C121.30022,127.94839 121.67244,126.60095 121.22728,125.32535C120.77124,124.02034 119.91357,122.87643 119.06898,121.79675C118.29948,120.8161 117.37868,119.7005 116.31424,119.03003C117.69977,119.74838 119.00694,121.03593 120.61015,121.24275C122.59975,121.49744 122.62914,119.18675 121.95325,117.92313C121.09666,116.3286 119.59251,115.07805 118.11226,114.08215C117.2655,113.51181 116.63638,113.20924 115.59479,113.27782C114.75237,113.32895 113.89143,113.58476 113.18399,114.05275C109.29837,116.63445 112.69637,120.83025 113.81635,123.95288C114.41821,125.62466 115.08977,127.78951 114.46393,129.54942C113.74779,131.56732 111.82349,132.19753 109.8317,132.25195C109.51497,132.26282 109.20042,132.24541 108.88588,132.23126C109.17213,133.06499 109.49539,134.30466 109.80992,135.57265C109.88176,135.87634 109.93727,136.09401 109.95905,136.1593L110.05266,136.42053C110.33237,137.20308 111.07358,139.2863 111.40443,140.49113C111.78973,141.88866 112.44386,144.82735 112.58862,145.6208C112.69093,146.16499 112.69855,146.69397 112.69637,146.99109C113.63022,148.40277 114.77849,149.77306 116.04539,150.88974C116.42198,151.21846 117.54955,152.32861 118.04807,151.73001C118.50301,151.18144 117.84779,149.7317 117.66275,149.17662C117.90112,149.68925 119.67303,153.65756 120.52634,152.52888C121.41122,151.35886 120.95735,148.92519 120.83655,147.57341C121.24034,148.64763 121.6376,149.72842 122.14807,150.75806C122.3886,151.24457 123.06015,152.481 123.33661,151.37193C123.85469,149.29524 123.0645,147.41013 123.08411,145.36829C123.34096,146.70052 123.81984,148.05228 124.22366,149.35075C124.35316,149.76216 124.65685,150.55345 125.29028,151.39151C125.927,152.22852 126.01299,151.1488 126.14685,151.15314C126.28291,151.15858 126.19148,146.11819 125.4666,144.04045C125.97054,145.14627 126.48209,146.27058 127.15582,147.28712C127.65974,148.0425 128.47386,148.88708 128.54462,147.42973C128.65672,145.18326 127.89265,142.90524 127.07527,140.85141C127.82408,141.8212 128.2464,142.99776 129.14648,143.8456C129.70158,144.37022 130.74753,145.17999 130.97174,143.98492C131.36249,141.9039 130.01178,139.86314 129.74403,137.87355C130.1881,138.33067 132.51511,141.76567 133.18013,140.3736C133.52188,139.65854 133.11591,138.37531 132.95045,137.65042C132.72299,136.67085 132.42912,135.70763 132.12981,134.74983C132.78612,135.31688 135.99037,138.21967 136.21786,136.04938C136.39853,134.3199 135.29271,132.32486 134.61029,130.80438C135.78249,132.15506 137.45753,134.1436 137.18764,136.08748C137.03743,137.16611 136.16235,137.80389 135.08482,137.4937C134.16512,137.2303 133.45984,136.56421 132.87102,135.84041C133.51753,137.14214 134.27832,138.89883 133.87996,140.38451C133.36188,142.32838 131.43651,140.68379 130.72685,139.8131C131.24928,141.08325 131.75322,142.55367 131.52139,143.94682C131.21556,145.78622 129.55464,144.74681 128.73183,143.924C129.12471,145.25183 130.24905,148.32112 128.28339,149.01337C128.62405,149.81552 128.58923,149.81116 129.30542,151.42198C130.02267,153.03064 131.21011,153.07419 131.15024,152.62901C131.09256,152.18388 130.4221,150.1801 130.04008,149.00465C130.52115,150.20407 131.01094,151.39804 131.58344,152.55719C132.09608,153.58791 132.69035,154.88965 133.66881,155.55792C135.48862,156.80305 134.964,150.32379 134.86606,149.63591C135.4353,150.57085 135.57353,151.74199 136.15907,152.66495C136.50519,153.2135 137.73618,154.83957 138.48717,154.73509C139.51135,154.59142 137.99414,148.9241 137.85699,148.1557C138.61015,149.49768 138.98457,151.05954 139.79216,152.36783C140.14264,152.94466 142.53387,155.76036 142.8963,154.14299C143.1956,152.7934 142.60895,151.05193 142.26938,149.75128C141.88953,148.30804 141.28983,146.82022 141.10042,145.34218C142.10829,147.10864 142.75479,149.07103 143.71913,150.86147C144.17844,151.7126 145.05461,152.56372 145.73267,153.25269C146.42598,153.9558 147.12364,154.67523 147.93343,155.24881C148.47437,155.63303 149.6629,156.50919 150.24411,155.75493C150.71539,155.14105 150.35948,153.8622 150.18423,153.19389zM114.10585,206.93054C114.10585,206.93054 114.01988,206.57138 114.03728,206.46689C114.05469,206.36133 114.00464,205.76596 113.78043,205.30011C113.54968,204.83429 112.56686,202.29068 112.46127,201.42322C112.35353,200.55032 111.09425,193.52359 110.90378,192.86186C110.70567,192.20447 109.04369,187.6299 108.34167,186.72217C107.63966,185.80356 106.36078,182.16176 106.04842,180.638C105.73169,179.11533 104.94151,173.24448 104.94151,173.24448S104.31023,170.02171 104.16983,169.37082C104.02615,168.71234 103.53854,165.29805 103.01395,164.3261C103.01395,164.3261 102.81584,164.21834 102.78429,162.52586C102.74945,160.82906 103.06728,160.70607 103.06728,160.70607S103.90535,159.95941 105.51726,159.75264C105.51726,159.75264 105.97438,159.66446 106.67424,158.41499C107.37627,157.16441 110.75577,151.19124 111.63191,148.69336L112.18047,147.2066C112.18047,147.2066 112.22945,146.46323 112.08904,145.71004C111.94864,144.93839 111.29996,142.01819 110.91684,140.62175C110.53264,139.22206 109.56721,136.57509 109.47905,136.31931C109.39198,136.06462 108.60287,132.56868 108.12727,131.70122C107.65599,130.83266 107.23694,129.83459 106.5545,129.62891C105.86992,129.41011 104.01201,129.36768 104.01201,129.36768S103.73338,129.39053 103.29584,129.20222C103.29584,129.20222 103.89229,129.29041 104.50507,129.26427C105.11783,129.24469 103.27406,129.17937 103.187,128.45885C103.187,128.45885 103.02809,127.74049 103.13802,127.61317C103.23816,127.48256 103.29584,128.62865 103.74969,128.82129C104.20683,129.00957 103.57556,128.58621 103.55923,127.291C103.53854,126.00124 103.57556,126.15144 103.57556,126.15144S104.11757,126.04478 104.2939,127.19086C104.46696,128.33044 104.5377,126.59987 104.20683,126.15144C104.15459,126.07742 104.10561,126.01213 104.05011,125.94464C103.78453,125.55392 103.55923,125.1436 103.46999,124.73436C103.36331,124.24239 103.6082,124.52318 103.7312,124.8606C103.8531,125.1991 104.09909,125.80861 104.09909,125.80861S104.31023,126.21457 104.58994,126.40831C104.87076,126.60095 104.38315,126.32016 104.18398,125.32318C103.99458,124.33054 103.36331,123.46092 103.27406,122.91452C103.27406,122.91452 104.31023,124.49599 104.38315,125.13377C104.45172,125.77161 104.52138,126.00235 104.67593,126.06873C104.83592,126.1275 104.64436,124.9836 104.4169,124.52209C104.18506,124.05627 103.50481,123.03535 103.4874,122.87102C103.47107,122.7023 102.98128,121.76628 103.03026,121.30153C103.08577,120.83351 103.40141,121.63783 103.37965,121.99919C103.36441,122.36163 103.56032,122.84595 103.69638,122.97331C103.83678,123.10284 103.56032,122.65767 103.56032,122.14938C103.56032,121.63892 103.20767,120.81502 103.0836,120.46999C102.9628,120.13477 103.23924,119.69504 102.36198,118.18544C101.49127,116.68124 102.17261,116.25786 101.10487,114.83859C100.03607,113.42258 99.49187,112.80545 98.84102,112.76299C98.19232,112.71838 97.82552,112.38313 97.37057,112.76299C97.37057,112.76299 96.35509,111.57881 95.33743,112.71838C95.33743,112.71838 95.07077,113.0155 94.87704,113.1189C94.68657,113.22885 93.46103,113.29198 92.66975,114.89955C91.88285,116.51038 91.6902,116.95662 91.28639,117.21457C90.88152,117.466 90.62029,117.76096 90.56696,118.18544C90.51689,118.61209 90.86628,117.7381 90.9207,117.71849C90.97185,117.69672 91.32122,117.48883 91.32122,117.48883S90.62138,117.97755 91.0611,119.13887C91.0611,119.13887 91.16341,119.56226 90.90327,120.13477C90.63988,120.70726 90.69214,121.36465 90.69214,121.36465S89.78114,122.21141 89.93678,123.48048C90.09678,124.7561 90.4984,125.42764 90.3765,125.74983C90.3765,125.74983 90.62247,125.70737 90.28833,124.33054C90.28833,124.33054 90.76288,125.04672 90.51797,125.70737C90.272,126.35934 89.65598,126.55087 89.3251,127.16908C88.99096,127.78404 89.06171,128.37286 89.30659,129.05312C89.55476,129.7312 89.90305,130.13716 89.65488,130.3886C89.40999,130.64546 90.04344,130.76953 89.83229,129.94344C89.6255,129.11516 89.25652,128.69614 89.50034,127.9299C89.74413,127.16908 89.69516,128.14104 89.76373,128.45993C89.83229,128.77994 90.35582,129.53748 90.42764,129.92494C90.49622,130.30588 90.44507,130.78806 90.28725,130.91539C90.12943,131.04271 88.67423,131.7023 88.35968,132.06474C88.04187,132.4239 86.5007,133.96945 85.99241,134.77377C85.48521,135.58028 84.29123,138.22292 84.29123,138.22292S83.76662,139.03487 82.52148,141.19424C81.27635,143.35583 80.64725,144.7305 80.64725,144.7305S80.05191,145.74704 80.50685,147.14565C80.96071,148.54208 81.92613,151.06499 81.92613,151.06499S82.53672,152.23068 83.20609,153.58356C83.8722,154.94186 84.25748,156.14891 84.25748,156.14891S84.3968,156.53313 84.58945,156.69858C84.58945,156.69858 84.72877,157.61391 85.39705,157.57144C85.39705,157.57144 86.0773,157.5029 86.15023,158.05255C86.22097,158.60652 85.97717,158.48029 85.97717,158.48029L85.83569,159.07239L85.64412,159.75264C85.64412,159.75264 85.4863,159.53493 85.23814,160.61789C84.99326,161.6976 85.22182,161.02171 84.9225,161.63556C84.62755,162.24832 84.74944,167.6947 84.74944,167.6947L84.88767,168.07455L84.95733,168.11919C84.95733,168.11919 85.93799,178.18037 85.93799,179.97841C85.93799,181.77971 85.72901,184.30482 85.72901,184.36685C85.72901,184.42889 85.25665,189.26033 85.25665,189.26033S85.04768,192.7345 85.1489,193.45505C85.25665,194.17773 85.64304,200.59167 85.64304,200.59167S86.29171,203.83405 85.97717,205.23697C85.65827,206.63342 85.67677,206.3363 85.86942,207.05789C86.06315,207.77625 85.81608,207.93079 85.81608,207.93079L85.02699,210.19031L84.00933,213.03323C84.00933,213.03323 83.8711,213.43594 83.99301,213.92026C84.11709,214.40677 84.18566,215.10663 84.18566,215.10663S88.00703,215.70306 88.20078,215.173C88.39561,214.64624 88.5186,213.70691 88.37492,213.43594C88.2356,213.16055 88.00703,211.76086 88.44566,209.30325C88.44566,209.30325 88.56757,209.30325 88.55016,209.41101C88.53382,209.51224 88.58607,211.93066 88.58607,211.93066L88.98769,211.73694L88.95721,209.26083C88.95721,209.26083 89.5134,207.96997 89.0062,207.16019C88.49574,206.3602 88.67205,206.33301 88.69056,205.93576C88.70688,205.52539 88.61982,204.87344 88.53382,204.49579C88.44566,204.11377 88.63831,202.0545 88.76022,200.80609C88.88429,199.55881 89.7942,192.33507 89.7942,192.33507S90.05977,189.09161 89.91828,187.6582C89.91828,187.6582 90.95226,183.90211 91.07415,183.00851C91.19714,182.12366 91.05891,176.31812 91.88177,172.50436C92.70676,168.6884 92.70676,168.6884 92.70676,168.6884L95.82721,168.71126C95.82721,168.71126 98.75285,176.27457 99.47009,177.9431L100.17429,180.08615C100.17429,180.08615 101.63168,184.68466 103.57338,187.73439C103.57338,187.73439 104.78369,189.77295 105.43237,192.2926C106.08105,194.81006 110.42596,203.69037 110.42596,203.69037S110.90378,205.2359 110.83194,205.78336C110.75793,206.33411 111.17805,207.26794 111.23683,207.31042C111.28471,207.35178 111.51329,210.23279 111.4077,210.97617C111.30322,211.71954 110.56636,215.04459 111.10838,215.23505C111.6526,215.4299 115.48814,215.7836 115.47398,214.56134C115.45982,213.32599 114.86122,210.00311 114.70448,209.41211C114.54666,208.81891 114.43999,207.52481 114.10585,206.93054zM90.70519,150.13441C90.14141,150.81247 89.37189,151.82797 88.8462,152.46251C88.31833,153.09813 88.31833,152.93159 88.31833,152.93159C87.93411,152.85106 87.72514,153.31146 87.2702,153.44205C86.81414,153.56288 86.81414,153.99281 86.49851,154.23987C86.18179,154.49673 85.93581,154.11688 85.93581,154.11688L84.81475,151.40457C84.81475,151.40457 83.65887,147.84222 83.44772,146.78432C83.23548,145.7231 83.55329,145.51521 83.55329,145.51521S84.88551,143.35692 86.18179,141.74501C87.48026,140.13091 89.65163,138.69095 89.65163,138.69095C90.04018,138.56358 90.04018,138.90971 90.04018,138.90971C90.24806,140.98311 91.16013,142.20758 91.19606,142.59177C91.22871,142.9727 91.58026,145.89615 91.64992,147.0836C91.71959,148.27216 91.2668,149.45416 90.70519,150.13441zM102.45015,155.64172C102.30975,154.45755 102.30975,152.75746 102.38159,151.69844C102.45015,150.6416 103.67461,148.01093 103.81827,147.84114C103.95869,147.67351 104.52029,145.38789 104.69444,144.15691C104.86858,142.92918 105.25824,141.10719 105.57169,139.75647C105.88733,138.39597 105.25824,136.66214 105.57169,136.91138C105.88733,137.16499 106.80157,138.98915 107.11505,140.21904C107.4296,141.45006 108.16536,143.43857 108.72479,144.49866C109.28751,145.55768 109.17975,146.78432 109.17975,146.78432L107.64075,150.81139C105.81659,155.72987 104.66287,156.57559 104.66287,156.57559S103.78236,157.04141 103.39925,156.31436C103.01176,155.59384 102.45015,155.64172 102.45015,155.64172z" id="svg_5" style="pointer-events:inherit"/></g><g id="svg_22" display="null" fill-opacity="1" style="pointer-events:inherit"><g id="svg_23" transform="matrix(1.2525, 0, 0, 1.2525, -106.931, -273.828)" style="pointer-events:inherit"><path d="M210.76181,414.10129C210.30881,416.8183 209.75381,419.58929 209.0928,422.4183C208.4498,425.1723 207.8288,426.85031 207.2258,427.45428L207.65179,426.1813C207.8588,425.35129 207.5658,424.4473 206.7728,423.4653C205.54681,422.22031 200.8508,420.33429 192.68481,417.80728C184.51782,415.28128 174.89981,413.9313 163.8298,413.7623C152.79782,414.02728 143.0278,415.1113 134.52081,417.01529C126.03382,418.9393 120.57382,420.99429 118.14182,423.18228C117.51881,423.95529 117.31181,424.88928 117.51881,425.98428L117.94283,427.76529C117.92381,427.8783 117.72581,427.66129 117.34882,427.1153S116.46281,425.0593 115.82082,422.58929C115.19882,420.10031 114.52882,415.99728 113.81181,410.28329C113.71782,410.22629 113.78381,409.67929 114.01082,408.6423C114.25581,407.60428 115.17082,406.44431 116.75482,405.1633C117.94283,404.2583 120.71582,402.91031 125.07282,401.11829C129.4288,399.32629 134.9548,397.7233 141.65082,396.30829C148.36481,394.87531 155.82382,394.24429 164.0278,394.4133C172.32681,394.73428 180.1058,395.71429 187.3678,397.35529C194.64682,399.01529 200.52182,400.95731 204.99081,403.18228C209.4418,405.42731 211.61182,407.6153 211.49881,409.7453L210.76181,414.10129" id="svg_24" fill="#ffffff" style="pointer-events:inherit"/></g></g><g id="svg_6" type="text" text="mascot NAME" font-size="18.910627187311885" font-family="Boston Traffic" fill="878787" text-anchor="start" font-weight="normal" font-style="normal" lineHeight="1" shapeId="9" shapeVal="45" fill-opacity="1" display="null" elemBBoxWidth="116.78125" stroke="null" stroke-dasharray="none" style="pointer-events:inherit"><path id="svg_11" fill="#878787" stroke-width="0" d="M47.95341064697266,232.67448512695313 C47.11426064697265,232.97991512695313 45.386430646972656,232.99388512695313 45.691850646972654,233.83303512695312 C45.691850646972654,233.83303512695312 50.30026064697266,246.80170512695312 50.30026064697266,246.80170512695312 C50.641620646972655,247.73957512695313 51.00983064697266,248.44406512695312 51.35555064697266,248.93314512695312 C52.27999064697266,248.70847512695312 53.06977064697266,248.4210251269531 53.639610646972656,247.99001512695312 C53.271210646972655,246.67068512695312 52.57071064697266,245.36042512695312 52.39087064697266,244.2519651269531 C52.39087064697266,244.2519651269531 47.95341064697266,232.67448512695313 47.95341064697266,232.67448512695313 M38.943290646972656,238.02223512695312 C41.08017064697266,240.20721512695312 42.85828064697266,243.24948512695312 44.90987064697266,245.35370512695312 C45.98747064697265,247.08571512695312 47.23549064697266,248.36439512695313 48.28170064697265,250.16373512695313 C49.59650064697266,249.62928512695314 48.59529064697266,248.26077512695312 48.59039064697266,246.86503512695313 C49.06132064697266,245.8551251269531 47.88953064697266,244.32509512695313 47.839800646972655,243.11337512695312 C47.098840646972654,241.53834512695312 46.672000646972656,239.90487512695313 46.16895064697266,238.5227451269531 C44.853970646972655,238.44235512695312 45.87333064697266,240.47507512695313 45.61781064697266,241.46248512695314 C45.05686064697265,241.61075512695314 44.71551064697266,240.67288512695313 44.45509064697266,240.26455512695313 C43.15318064697266,238.83779512695313 41.91841064697266,236.82757512695312 40.77801064697266,235.2302151269531 C39.956830646972655,235.58500512695312 38.646390646972655,235.6706651269531 38.38180064697266,236.32597512695313 C38.38180064697266,236.32597512695313 38.943290646972656,238.02223512695312 38.943290646972656,238.02223512695312 M40.92845064697266,243.16926512695312 C41.04133064697265,245.47601512695311 42.93177064697265,248.98050512695312 43.686530646972656,251.66853512695312 C44.306090646972656,252.44925512695312 45.32454064697266,251.40775512695313 46.32974064697265,251.09779512695312 C45.72742064697266,247.90707512695312 43.18656064697265,245.53372512695313 41.547830646972656,243.33514512695314 C41.413180646972656,243.27234512695313 40.829730646972656,243.20520512695313 40.92845064697266,243.16926512695312 C40.92845064697266,243.16926512695312 40.92845064697266,243.16926512695312 40.92845064697266,243.16926512695312 M53.73222064697266,230.76169512695313 C55.05802064697266,234.37364512695314 57.23914064697266,237.53106512695314 58.85472064697266,241.00838512695313 C58.85472064697266,241.00838512695313 58.317170646972656,241.4295351269531 58.317170646972656,241.4295351269531 C58.83632064697266,242.32149512695312 58.148990646972656,243.38357512695313 58.85129064697266,243.95238512695312 C59.29296064697266,243.77574512695313 59.76262064697266,243.70037512695313 60.14503064697266,243.70363512695312 C60.526290646972654,244.6882251269531 60.90218064697265,245.45629512695314 61.32334064697265,245.99384512695312 C61.32334064697265,245.99384512695312 64.17259064697265,245.26045512695313 64.17259064697265,245.26045512695313 C63.887210646972655,244.03135512695312 63.111650646972656,243.59180512695312 62.862900646972655,242.29806512695313 C61.692080646972656,240.82329512695313 60.80355064697265,238.39845512695314 59.88051064697265,236.63716512695314 C59.006950646972655,235.84320512695314 59.06198064697266,234.46546512695312 58.30905064697266,233.91065512695312 C58.30905064697266,233.91065512695312 56.75273064697266,230.25345512695313 56.75273064697266,230.25345512695313 C56.57284064697266,230.19419512695313 56.37896064697266,230.08430512695313 56.23570064697266,229.96041512695314 C55.532250646972656,230.3729451269531 54.86007064697266,230.50431512695312 54.205150646972655,230.30391512695311 C54.10926064697266,230.54843512695314 53.93474064697266,230.70569512695312 53.73222064697266,230.76169512695313 C53.73222064697266,230.76169512695313 53.73222064697266,230.76169512695313 53.73222064697266,230.76169512695313 M54.884480646972655,236.11115512695312 C53.318220646972655,236.16275512695313 54.94242064697266,239.47418512695313 54.46835064697265,240.91329512695313 C54.88185064697266,243.19699512695314 54.74705064697265,245.46880512695313 55.003280646972655,247.57798512695314 C55.71421064697266,247.98091512695314 57.070460646972656,247.16986512695314 57.85253064697265,246.84460512695313 C57.70407064697265,243.94260512695314 57.28309064697265,240.84346512695313 55.80426064697266,238.25485512695312 C55.40574064697266,237.60204512695313 55.181740646972656,236.79196512695313 54.884480646972655,236.11115512695312 C54.884480646972655,236.11115512695312 54.884480646972655,236.11115512695312 54.884480646972655,236.11115512695312 M66.51158064697266,232.7756151269531 C66.50023064697265,231.06541512695313 67.04316064697265,229.72908512695312 66.31136064697266,227.89136512695313 C64.94351064697265,227.46158512695314 64.55527064697266,228.76784512695312 63.83047064697266,229.44385512695314 C63.692930646972655,230.11274512695312 63.432210646972656,230.69855512695312 63.16147064697266,231.23279512695314 C63.48498064697266,234.2736451269531 64.94871064697266,236.02260512695312 67.57270064697266,236.58280512695313 C68.24014064697266,236.98819512695312 68.96917064697266,237.43512512695312 69.83429064697266,237.48101512695314 C70.44015064697265,237.84486512695312 70.84976064697265,238.30037512695313 71.14622064697265,238.72435512695313 C71.27508064697265,239.66254512695312 70.98284064697266,240.36149512695312 70.33110064697266,240.86277512695312 C70.63469064697266,241.8740151269531 70.74060064697265,243.24475512695312 71.09721064697266,243.97813512695313 C74.13093064697266,243.06735512695312 75.04785064697266,239.25026512695314 73.41228064697266,236.8925551269531 C72.37966064697265,235.4343751269531 70.90012064697265,234.7052351269531 69.48215064697266,234.01762512695313 C68.31912064697266,233.81559512695313 67.33227064697266,233.41878512695314 66.51158064697266,232.7756151269531 C66.51158064697266,232.7756151269531 66.51158064697266,232.7756151269531 66.51158064697266,232.7756151269531 M67.31258064697266,227.53621512695312 C67.45290064697265,228.25811512695313 67.60748064697266,230.15452512695313 68.23337064697266,230.62150512695314 C69.33482064697266,230.78199512695312 68.81906064697266,232.80870512695313 70.84444064697266,231.6658351269531 C71.37156064697265,231.34931512695312 71.79410064697265,231.32069512695313 72.15505064697265,231.25053512695314 C71.92319064697266,228.40592512695312 69.40522064697265,227.28998512695313 67.31258064697266,227.53621512695312 C67.31258064697266,227.53621512695312 67.31258064697266,227.53621512695312 67.31258064697266,227.53621512695312 M64.72640064697265,240.93547512695312 C65.78619064697266,243.08403512695313 67.28289064697266,244.45199512695314 69.78660064697266,244.39342512695313 C69.72078064697266,243.22894512695314 69.53034064697266,242.24921512695312 69.23533064697266,241.55738512695314 C68.25850064697266,241.21213512695311 67.62403064697266,240.42574512695313 67.22878064697265,239.21827512695313 C65.77496064697266,239.4473551269531 64.26812064697266,239.95430512695313 64.72640064697265,240.93547512695312 C64.72640064697265,240.93547512695312 64.72640064697265,240.93547512695312 64.72640064697265,240.93547512695312 M79.32594064697265,225.58114512695312 C79.10090064697266,226.34895512695311 79.47272064697266,227.67982512695312 79.53982064697266,228.67701512695314 C80.66015064697265,228.75381512695313 80.66062064697266,230.0764751269531 80.90929064697266,231.2634351269531 C81.80845064697266,231.26103512695312 82.39856064697265,230.44929512695313 83.16203064697265,230.19867512695313 C83.20069064697266,227.44277512695314 81.35797064697266,225.75984512695314 79.32594064697265,225.58114512695312 C79.32594064697265,225.58114512695312 79.32594064697265,225.58114512695312 79.32594064697265,225.58114512695312 M78.40781064697265,236.85537512695313 C78.56527064697266,233.76772512695314 76.62165064697265,229.92768512695312 78.41323064697266,228.54806512695313 C78.26064064697266,227.71989512695313 78.13510064697266,226.67683512695314 78.09310064697266,225.8882551269531 C76.99160064697266,225.96792512695313 76.41405064697265,226.88397512695312 75.50668064697265,227.25772512695312 C73.69867064697266,229.38004512695312 75.37331064697266,233.62281512695313 75.29311064697265,236.9127951269531 C75.60649064697266,238.1977951269531 75.63835064697265,239.78122512695313 76.18739064697266,240.82622512695312 C77.25796064697266,241.80845512695313 78.70422064697266,243.27454512695311 80.01193064697266,242.27061512695312 C79.69854064697266,240.98562512695312 79.87964064697266,239.85274512695312 78.87184064697266,239.39204512695312 C78.62123064697266,238.62857512695314 78.56039064697265,237.68354512695313 78.40781064697265,236.85537512695313 C78.40781064697265,236.85537512695313 78.40781064697265,236.85537512695313 78.40781064697265,236.85537512695313 M81.76010064697266,236.13444512695312 C81.33466064697265,236.55601512695313 81.75863064697265,237.88060512695313 81.76924064697266,238.40841512695312 C81.57125064697266,238.96133512695312 81.25012064697266,239.3703451269531 80.79957064697265,239.58329512695312 C80.82902064697265,240.26756512695312 81.05065064697266,241.66942512695312 81.01539064697266,242.25566512695312 C83.57523064697266,242.42374512695312 84.74872064697266,239.42544512695312 84.05096064697265,236.70526512695312 C83.32903064697265,236.42179512695313 82.57378064697266,236.30105512695312 81.76010064697266,236.13444512695312 C81.76010064697266,236.13444512695312 81.76010064697266,236.13444512695312 81.76010064697266,236.13444512695312 M88.45255064697265,225.02181512695313 C83.52455064697266,226.59764512695313 85.59320064697266,235.71089512695312 86.79053064697266,240.39205512695312 C86.79053064697266,240.39205512695312 86.99824064697266,240.3306751269531 86.99824064697266,240.3306751269531 C87.72499064697266,241.35141512695313 88.68747064697266,241.73123512695312 89.83763064697266,241.57734512695313 C89.96395064697265,240.83591512695313 89.96305064697266,239.57411512695313 89.66728064697266,238.79800512695311 C87.89755064697266,237.97919512695313 88.96897064697265,234.72661512695313 88.33739064697266,232.22969512695312 C88.48505064697265,230.75129512695312 87.90240064697265,229.40899512695313 88.43077064697266,228.22991512695313 C89.52179064697266,227.92079512695312 89.07567064697265,224.83767512695312 88.45255064697265,225.02181512695313 C88.45255064697265,225.02181512695313 88.45255064697265,225.02181512695313 88.45255064697265,225.02181512695313 M90.92240064697265,238.63965512695313 C90.92108064697265,239.84897512695312 90.91085064697265,240.84836512695313 91.41878064697266,241.66806512695314 C96.14575064697266,240.3110651269531 94.37065064697265,231.92144512695313 93.48821064697266,227.22694512695313 C92.75700064697266,226.10124512695313 91.56458064697266,225.25796512695314 90.34859064697265,225.09919512695313 C89.95542064697266,225.74677512695314 90.21428064697265,226.89249512695312 90.30457064697265,227.78246512695313 C92.02404064697265,228.6559851269531 91.16700064697265,232.00463512695313 91.52727064697265,234.30273512695314 C91.27242064697265,235.73310512695312 92.31942064697266,238.10726512695314 90.92240064697265,238.63965512695313 C90.92240064697265,238.63965512695313 90.92240064697265,238.63965512695313 90.92240064697265,238.63965512695313 M105.20380064697267,224.96135512695312 C105.20380064697267,224.96135512695312 96.64120064697266,224.8200251269531 96.64120064697266,224.8200251269531 C96.56303064697266,225.55316512695313 96.51720064697265,226.86559512695314 96.70153064697266,227.60789512695314 C97.63915064697267,227.85088512695313 98.85759064697265,227.57806512695313 99.42590064697265,227.86071512695312 C99.42590064697265,227.86071512695312 99.08541064697266,240.62128512695313 99.08541064697266,240.62128512695313 C99.08541064697266,240.62128512695313 99.36740064697265,241.57723512695313 99.36740064697265,241.57723512695313 C100.31969064697265,241.4002451269531 101.46363064697266,241.75556512695312 102.21327064697266,241.36124512695312 C102.21327064697266,241.36124512695312 102.53242064697265,227.7063951269531 102.53242064697265,227.7063951269531 C103.15689064697266,227.88588512695313 104.31367064697265,227.87371512695313 105.25862064697266,227.90671512695312 C105.50528064697266,226.86410512695312 105.48762064697266,225.86481512695312 105.20380064697267,224.96135512695312 C105.20380064697267,224.96135512695312 105.20380064697267,224.96135512695312 105.20380064697267,224.96135512695312 M112.84241064697267,242.20049512695311 C113.29608064697265,241.0918651269531 112.87528064697266,239.34663512695312 113.47256064697265,238.36149512695312 C113.05724064697266,236.14061512695312 111.87357064697267,234.14293512695312 111.56252064697266,231.93485512695312 C111.22957064697266,231.62935512695313 111.38505064697266,231.22505512695312 110.91582064697266,231.1674451269531 C110.19420064697266,234.88936512695312 110.30495064697266,237.86670512695312 109.68121064697266,241.65357512695311 C110.47153064697265,242.54447512695313 111.67618064697265,242.21607512695311 112.84241064697267,242.20049512695311 C112.84241064697267,242.20049512695311 112.84241064697267,242.20049512695311 112.84241064697267,242.20049512695311 M111.53586064697265,225.68655512695312 C111.03012064697265,229.80545512695312 113.43857064697266,231.74181512695313 113.98014064697266,235.08960512695313 C115.03393064697266,237.28302512695313 115.71086064697266,239.95941512695313 116.38047064697265,242.26444512695312 C116.86344064697266,242.64129512695314 117.50282064697265,243.0373451269531 117.91260064697266,242.71718512695313 C117.98757064697266,241.24452512695314 118.64794064697266,239.31449512695312 117.96830064697266,238.38425512695312 C117.96830064697266,238.38425512695312 114.04488064697266,225.94169512695314 114.04488064697266,225.94169512695314 C113.75766064697265,225.69473512695313 113.26922064697266,225.79353512695312 112.94359064697267,225.85939512695313 C112.43500064697265,225.69110512695312 111.96577064697266,225.63348512695313 111.53586064697265,225.68655512695312 C111.53586064697265,225.68655512695312 111.53586064697265,225.68655512695312 111.53586064697265,225.68655512695312 M118.83537064697265,235.63282512695312 C118.83537064697265,235.63282512695312 119.43984064697266,228.98569512695312 119.43984064697266,228.98569512695312 C119.56148064697265,227.9950751269531 120.08649064697266,226.73643512695313 119.27788064697265,226.42545512695312 C118.31380064697265,226.51877512695313 117.66801064697265,226.17486512695314 117.01675064697265,226.3065951269531 C117.01675064697265,226.3065951269531 116.56130064697265,229.5848851269531 116.56130064697265,229.5848851269531 C117.32693064697266,231.10784512695312 117.73493064697266,232.95735512695313 118.32495064697267,234.61752512695313 C118.32495064697267,234.61752512695313 118.24173064697266,235.2953151269531 118.24173064697266,235.2953151269531 C118.24173064697266,235.2953151269531 118.83537064697265,235.63282512695312 118.83537064697265,235.63282512695312 M126.10945064697265,227.46399512695314 C125.62048064697265,231.28037512695312 126.10005064697265,235.08782512695313 125.93028064697265,238.91836512695312 C125.93028064697265,238.91836512695312 125.25909064697265,239.04421512695313 125.25909064697265,239.04421512695313 C125.30849064697266,240.07507512695312 124.20888064697266,240.70058512695311 124.56979064697265,241.52914512695313 C125.04315064697266,241.57605512695312 125.49467064697265,241.7257351269531 125.83250064697265,241.90494512695312 C125.71683064697265,242.95442512695314 125.69623064697265,243.80929512695312 125.82207064697266,244.4804851269531 C125.82207064697266,244.4804851269531 128.68853064697265,245.14346512695312 128.68853064697265,245.14346512695312 C129.00202064697265,243.92122512695312 128.51650064697264,243.17359512695313 128.89230064697267,241.91089512695314 C128.53337064697266,240.06239512695313 128.86300064697264,237.50101512695312 128.85604064697264,235.51252512695314 C128.44697064697266,234.40521512695312 129.13106064697266,233.20804512695312 128.71876064697267,232.36856512695311 C128.71876064697267,232.36856512695311 129.02405064697265,228.40572512695312 129.02405064697265,228.40572512695312 C128.89175064697264,228.27020512695313 128.77038064697265,228.08329512695312 128.70038064697266,227.90730512695313 C127.88597064697265,227.94900512695312 127.22893064697266,227.7556451269531 126.74018064697266,227.27583512695313 C126.54235064697265,227.44859512695314 126.31498064697266,227.50767512695313 126.10945064697265,227.46399512695314 C126.10945064697265,227.46399512695314 126.10945064697265,227.46399512695314 126.10945064697265,227.46399512695314 M124.66533064697265,232.74215512695312 C123.25171064697265,232.06575512695312 123.16609064697266,235.75306512695312 122.08186064697266,236.81148512695313 C121.39580064697266,239.02858512695312 120.22867064697266,240.98233512695313 119.48352064697266,242.9720651269531 C119.92858064697265,243.65740512695314 121.50602064697266,243.56307512695312 122.34997064697265,243.63505512695312 C123.55631064697266,240.99150512695311 124.61173064697266,238.04736512695314 124.49307064697265,235.06847512695313 C124.44044064697266,234.30544512695312 124.61519064697265,233.48333512695314 124.66533064697265,232.74215512695312 C124.66533064697265,232.74215512695312 124.66533064697265,232.74215512695312 124.66533064697265,232.74215512695312 M144.62433064697265,232.36416512695314 C143.76686064697265,232.11475512695313 142.36463064697267,231.10511512695314 142.11523064697266,231.96258512695312 C142.11523064697266,231.96258512695312 138.17046064697266,245.1482851269531 138.17046064697266,245.1482851269531 C137.89171064697265,246.10662512695313 137.77252064697265,246.8925551269531 137.76245064697264,247.4914051269531 C138.64101064697266,247.85636512695314 139.44804064697266,248.09110512695312 140.16244064697264,248.08007512695312 C140.64477064697266,246.79800512695311 140.85380064697267,245.32702512695312 141.36366064697268,244.32648512695312 C141.36366064697268,244.32648512695312 144.62433064697265,232.36416512695314 144.62433064697265,232.36416512695314 M134.19543064697265,231.35484512695314 C134.62839064697266,234.38022512695312 134.26535064697265,237.88526512695313 134.67721064697264,240.79509512695313 C134.52322064697267,242.82915512695314 134.77455064697267,244.59816512695312 134.55545064697264,246.6679851269531 C135.93198064697265,247.01367512695313 135.93283064697266,245.31801512695313 136.75356064697266,244.18908512695313 C137.73022064697267,243.65256512695314 137.68889064697265,241.72581512695314 138.36473064697265,240.71885512695312 C138.69756064697265,239.01034512695313 139.31837064697265,237.44031512695312 139.72916064697267,236.02801512695314 C138.71577064697266,235.18618512695312 138.33710064697266,237.42842512695313 137.54753064697266,238.07406512695312 C137.00738064697265,237.86224512695313 137.28612064697268,236.90389512695313 137.31729064697265,236.42060512695312 C137.10997064697267,234.5002751269531 137.30155064697266,232.1489151269531 137.32533064697265,230.18639512695313 C136.45319064697264,229.98741512695312 135.34535064697266,229.28223512695314 134.74469064697266,229.65458512695312 C134.74469064697266,229.65458512695312 134.19543064697265,231.35484512695314 134.19543064697265,231.35484512695314 M132.75582064697267,236.68029512695313 C131.48392064697265,238.60800512695312 130.93840064697264,242.55232512695312 129.95906064697266,245.1669151269531 C129.99761064697265,246.16284512695313 131.43465064697267,245.92435512695312 132.42876064697265,246.26822512695313 C133.82810064697264,243.33814512695312 133.18053064697267,239.9221051269531 133.15751064697264,237.1800751269531 C133.08598064697264,237.04985512695313 132.65494064697265,236.65094512695313 132.75582064697267,236.68029512695313 C132.75582064697267,236.68029512695313 132.75582064697267,236.68029512695313 132.75582064697267,236.68029512695313 M148.99145064697265,233.59490512695314 C146.47504064697267,232.23507512695312 146.50718064697264,235.22954512695313 145.66006064697265,237.43637512695312 C145.66006064697265,237.43637512695312 141.37937064697266,248.7345151269531 141.37937064697266,248.7345151269531 C141.37937064697266,248.7345151269531 148.69037064697267,251.82228512695312 148.69037064697267,251.82228512695312 C149.46710064697265,251.55777512695312 149.53005064697265,249.78140512695313 150.19336064697265,249.07948512695313 C149.29133064697265,248.0580251269531 146.86603064697266,247.63344512695312 144.99110064697265,246.80119512695313 C145.75993064697266,245.9709851269531 146.18499064697266,244.27734512695312 146.76112064697264,242.92303512695312 C147.21783064697266,243.4922151269531 148.65488064697266,243.70624512695312 149.45092064697266,244.12435512695313 C150.17118064697266,244.00696512695313 150.39660064697267,242.68683512695313 150.82214064697266,241.7248451269531 C150.31243064697264,240.85398512695312 148.16652064697266,240.87424512695313 147.51364064697265,240.2297651269531 C148.17695064697267,239.5278551269531 148.65848064697266,237.68709512695312 149.26879064697266,236.68349512695312 C150.56663064697267,237.40675512695313 152.62633064697266,238.19740512695313 154.08616064697264,238.6452451269531 C154.76481064697265,238.34308512695313 154.56421064697264,237.25328512695313 155.15965064697264,236.58158512695312 C155.09922064697264,236.44585512695312 155.10666064697267,236.2799051269531 155.16313064697266,236.13278512695314 C155.16313064697266,236.13278512695314 148.99145064697265,233.59490512695314 148.99145064697265,233.59490512695314 " style="pointer-events:inherit"/><rect id="svg_12" x="38.38134765625" y="224.8203125" width="116.78125" height="27.1328125" fill="#000000" opacity="0" style="pointer-events:inherit"/></g><g type="text" text="HILLCREST" font-size="27.959450663857385" font-family="Boston Traffic" fill="ffffff" text-anchor="start" font-weight="normal" font-style="normal" lineHeight="1" shapeId="2" shapeVal="5" fill-opacity="1" display="null" elemBBoxWidth="131.28515625" stroke="null" stroke-dasharray="none" id="svg_1" style="pointer-events:inherit"><path fill="#ffffff" stroke-width="0" d="M31.12833,81.31812C31.12833,81.31812 31.12833,105.5889 31.12833,105.5889C31.43947,112.03384 30.89595,120.67752 31.36202,126.09477C32.60399,125.87745 34.1571,123.64341 35.47785,123.52193C36.5649,119.08157 35.47785,112.68438 35.86645,106.23067C37.49703,105.67841 36.95351,100.81069 36.5649,98.83812C34.85686,96.66046 36.48744,86.62117 35.71154,80.57174C33.84727,79.89588 32.44907,80.02922 31.12833,81.31812C31.12833,81.31812 31.12833,81.31812 31.12833,81.31812M40.13852,80.54617C39.20638,85.2106 39.90483,92.12622 39.90483,97.60443C38.19679,98.09378 39.20638,101.70674 38.89523,104.09364C39.20638,104.35106 39.43876,104.38548 39.82737,104.23349C39.82737,104.23349 40.05974,120.03982 40.05974,120.03982C40.05974,120.03982 44.64295,117.20111 44.64295,117.20111C44.64295,117.20111 44.48672,101.3366 44.48672,101.3366C44.48672,101.3366 44.64295,80.52215 44.64295,80.52215C44.64295,80.52215 40.13852,80.54617 40.13852,80.54617C40.13852,80.54617 40.13852,80.54617 40.13852,80.54617M51.7101,80.90119C49.9233,80.39023 48.44764,80.50343 47.36058,81.28177C47.36058,81.28177 47.74919,115.52496 47.74919,115.52496C48.44764,115.0291 49.06993,114.79718 49.61346,114.8234C50.54559,114.00798 51.3215,113.49944 51.94248,113.18147C51.94248,113.18147 51.78756,84.61054 51.78756,84.61054C51.94248,83.26342 51.86502,82.23772 51.7101,80.90119C51.7101,80.90119 51.7101,80.90119 51.7101,80.90119M59.24332,80.91903C57.45783,80.46486 56.60315,81.04282 55.05003,81.06248C54.50651,90.46204 55.05003,100.87053 54.81634,111.37438C57.22414,111.70145 62.66071,108.13201 66.15556,107.45806C67.86491,107.12604 67.24392,104.02308 67.08769,102.90858C65.76826,102.87099 63.74776,104.08719 62.11718,104.09049C59.63193,106.12938 59.01094,103.49336 59.70939,100.1474C59.16586,93.93439 60.02054,86.56463 59.24332,80.91903C59.24332,80.91903 59.24332,80.91903 59.24332,80.91903M74.38853,80.7957C72.60172,80.41826 71.74836,80.89099 70.19524,80.90323C69.6504,88.54523 70.19524,97.03946 69.96155,105.57606C72.36934,106.0647 77.80592,103.67626 81.30076,103.52381C83.01011,103.46132 82.38781,100.70823 82.23289,99.73147C80.91216,99.55848 78.89297,100.38402 77.26239,100.22776C74.77714,101.69683 74.15615,99.46139 74.8546,96.74303C74.31107,91.56456 75.16574,85.48582 74.38853,80.7957C74.38853,80.7957 74.38853,80.7957 74.38853,80.7957M92.87366,80.32336C92.4076,81.27816 92.71743,83.04909 92.63997,84.34441C94.27055,84.60759 94.03817,86.30898 94.19309,87.87235C95.51383,88.00265 96.52343,87.05162 97.68793,86.85258C98.23146,83.31758 95.82498,80.86687 92.87366,80.32336C92.87366,80.32336 92.87366,80.32336 92.87366,80.32336M89.53374,94.81837C90.30964,90.80835 88.13554,85.57278 91.0094,84.01695C90.93194,82.92341 90.93194,81.5553 91.0094,80.52903C89.37751,80.46197 88.36791,81.56674 86.97102,81.92184C83.94093,84.48973 85.65028,90.3161 84.95052,94.70252C85.18422,96.43459 84.95052,98.55954 85.57282,99.96452C86.97102,101.28439 88.83398,103.25555 90.93194,102.00824C90.69825,100.31083 91.16431,98.85062 89.76611,98.17061C89.53374,97.15386 89.61119,95.91343 89.53374,94.81837C89.53374,94.81837 89.53374,94.81837 89.53374,94.81837M94.5817,94.26095C93.88326,94.74592 94.27055,96.50865 94.19309,97.18989C93.80449,97.87698 93.26096,98.36569 92.56252,98.59039C92.48505,99.47918 92.56252,101.31681 92.4076,102.07266C96.13482,102.6134 98.3877,98.97377 97.84417,95.35657C96.83458,94.86925 95.74621,94.59431 94.5817,94.26095C94.5817,94.26095 94.5817,94.26095 94.5817,94.26095M104.83386,80.67266C103.51312,80.04895 102.03746,80.59897 100.48434,80.73378C100.48434,80.73378 100.87295,92.36235 100.87295,92.36235C100.63926,95.70457 100.95041,98.79551 100.87295,102.34863C100.87295,102.34863 104.7564,102.66123 104.7564,102.66123C105.60976,96.55451 104.44525,88.22194 104.98878,82.33953C104.83386,81.71341 104.7564,81.15803 104.83386,80.67266C104.83386,80.67266 104.83386,80.67266 104.83386,80.67266M106.9305,81.72979C107.31911,82.43622 107.39658,83.0703 107.16419,83.76879C109.26084,84.74116 109.80437,86.68685 108.71732,89.68857C106.61935,89.77956 107.16419,92.33764 107.55149,93.77318C110.81396,94.36167 108.40617,100.00167 109.3383,103.25639C110.65904,103.3296 112.1347,103.6674 113.45413,103.85282C112.98806,99.73285 115.08602,93.9082 111.35748,92.18033C111.35748,92.18033 111.35748,91.74676 111.35748,91.74676C113.53159,90.40921 114.23135,88.32593 113.45413,85.62498C113.37667,82.46292 111.74609,80.47606 108.40617,80.46965C107.47403,80.46813 106.9305,80.95828 106.9305,81.72979C106.9305,81.72979 106.9305,81.72979 106.9305,81.72979M119.20185,80.18497C115.00725,79.66407 116.63914,83.66732 116.63914,87.07381C116.63914,87.07381 116.7166,104.50246 116.7166,104.50246C116.7166,104.50246 128.44442,108.55309 128.44442,108.55309C129.37656,108.03317 128.52188,104.92393 129.06541,103.61478C127.27859,102.03225 123.70629,101.79897 120.67751,100.88447C121.2985,99.44 120.98866,96.75539 121.06612,94.54788C121.99825,95.26521 124.09489,95.15654 125.41564,95.57321C126.34646,95.16546 125.95917,92.98538 126.03663,91.31196C124.8708,90.15149 121.91948,91.00368 120.67751,90.29752C121.22104,89.00875 120.90989,86.12568 121.22104,84.39797C123.39514,84.83331 126.65761,85.02763 128.91048,84.99926C129.68639,84.16528 128.83171,82.5447 129.29778,81.1509C129.14286,80.97307 129.06541,80.70923 129.06541,80.44592C129.06541,80.44592 119.20185,80.18497 119.20185,80.18497M137.29838,89.96309C137.76444,86.84767 138.92896,84.63661 138.38543,80.88281C136.52116,79.59415 135.58903,81.81806 134.34706,82.73451C133.95845,83.84848 133.41492,84.7528 132.8714,85.55046C132.48279,90.85986 134.11337,94.69571 137.76444,97.49603C138.61781,98.7302 139.54994,100.12196 140.79322,100.92519C141.56913,102.12627 142.03519,103.34935 142.34634,104.42378C142.26888,106.31453 141.64658,107.32966 140.55953,107.60214C140.71577,109.75117 140.48208,112.34202 140.79322,114.06104C145.45258,115.96276 147.86037,109.43875 146.15234,102.97787C145.06397,99.13033 143.12225,96.50385 141.25929,94.14491C139.6274,92.97816 138.30797,91.61899 137.29838,89.96309C137.29838,89.96309 137.29838,89.96309 137.29838,89.96309M139.93855,80.5905C139.93855,82.03083 139.6274,85.70832 140.40462,86.91456C141.95773,87.82179 140.63699,91.41091 143.89946,90.46605C144.75414,90.16182 145.37512,90.37287 145.91865,90.46131C146.38471,84.38934 143.04478,80.9337 139.93855,80.5905C139.93855,80.5905 139.93855,80.5905 139.93855,80.5905M132.40533,102.70992C133.33746,107.1147 135.12296,110.79219 138.77404,113.32734C139.00642,111.21424 139.00642,109.28712 138.77404,107.76909C137.45329,106.2306 136.75485,104.29188 136.52116,101.86349C134.34706,101.0819 132.01672,100.75687 132.40533,102.70992C132.40533,102.70992 132.40533,102.70992 132.40533,102.70992M161.99599,80.90171C161.99599,80.90171 149.33604,81.13008 149.33604,81.13008C149.25858,82.79821 149.25858,85.77943 149.56973,87.48518C150.96661,88.14171 152.75342,87.6179 153.60809,88.3615C153.60809,88.3615 153.76302,119.55077 153.76302,119.55077C153.76302,119.55077 154.22908,122.17632 154.22908,122.17632C155.62728,122.61345 157.33532,124.62532 158.42369,124.31237C158.42369,124.31237 158.18999,88.30371 158.18999,88.30371C159.12213,88.84752 160.83017,88.94735 162.22836,89.14829C162.53952,86.23445 162.46205,83.41907 161.99599,80.90171C161.99599,80.90171 161.99599,80.90171 161.99599,80.90171" id="svg_2" style="pointer-events:inherit"/><rect x="31.12890625" y="80.13671875" width="131.28515625" height="45.95703125" fill="#ffffff" opacity="0" id="svg_3" style="pointer-events:inherit"/></g></g><defs><mask id="canvasMaskImageDef" maskUnits="objectBoundingBox" x="0" y="0"><image xmlns:xlink="http://www.w3.org/1999/xlink" id="canvasMaskImage" preserveAspectRatio="none" x="-103.65" y="-36.45" width="400" height="440.0580551523948" xlink:href="http://allinonedesigner.designnbuy.in/media/catalog/product/w/h/white-tees-1_-front_1_3.png"/></mask></defs></svg>