<?xml version="1.0" encoding="utf-8"?>
<!-- Generator: Adobe Illustrator 16.0.0, SVG Export Plug-In . SVG Version: 6.00 Build 0)  -->
<!DOCTYPE svg PUBLIC "-//W3C//DTD SVG 1.1//EN" "http://www.w3.org/Graphics/SVG/1.1/DTD/svg11.dtd">
<svg version="1.1" id="Layer_1" xmlns="http://www.w3.org/2000/svg" xmlns:xlink="http://www.w3.org/1999/xlink" x="0px" y="0px"
	 width="100px" height="100px" viewBox="0 0 100 100" enable-background="new 0 0 100 100" xml:space="preserve">
<path fill="#2190BE" d="M86.792,39.565c-0.265-0.633-0.558-1.24-0.878-1.821c4.896-3.038,1.945-9.274,0.354-10.246
	c-1.955-1.194-1.596,0.51-1.596,0.51c0.496,1.421,0.032,3.01,0.032,3.01c-0.47,1.538-1.222,2.256-1.983,2.55
	c-5.693-5.546-15.053-7.55-25.486-7.55c-8.771,0-16.879,0.946-22.642,4.468c-0.167-0.186-0.34-0.367-0.519-0.544
	c-0.401-3.962-1.785-8.118-4.042-11.223c4.366-0.262,4.426-3.131,4.426-4.099c0-1.044-0.392-1.305-0.392-1.305
	c-2.812-0.049-4.392,2.807-4.996,4.206c-2.021-2.269-4.604-3.738-7.695-3.741c-2.797-0.003-5.252,1.358-7.253,3.478
	c-0.486-1.133-1.738-2.93-4.907-3.813c0,0-0.967-0.071-0.521,1.348c0.368,1.168,1.395,4.743,3.909,4.336
	c-2.231,3.181-3.665,7.344-4.066,11.255c-1.869,2.035-2.974,4.523-2.974,7.216c0,6.865,7.144,12.43,15.956,12.43
	c0.045,0,0.089-0.002,0.134-0.002c-1.189,7.252-2.819,21.068-0.428,32.457c0,0,3.413,5.183,12.515,0l-1.904-19.711
	c0.722,0.776,1.499,1.521,2.333,2.224c0.088,6.547,0.465,14.19,1.563,20.069c0,0,5.973,3.754,12.799-0.172
	c0,0-0.046-5.834-0.9-13.261c3.014,0.74,6.236,1.146,9.604,1.146c1.758,0,3.478-0.11,5.149-0.319
	c0.191,2.425,0.511,4.824,0.993,7.124c0,0,3.413,5.184,12.516,0l-1.054-10.907c0.815-0.424,1.604-0.875,2.362-1.353
	c0.251,5.513,0.756,11.178,1.701,15.846c0,0,7.25,4.194,15.533-0.191C94.438,82.979,93.492,54.318,86.792,39.565z"/>
<path fill="#293B8F" d="M22.87,21.327c-0.595,0.093-1.188-0.544-1.326-1.422c-0.137-0.879,0.233-1.667,0.828-1.759
	s1.188,0.544,1.326,1.422S23.465,21.234,22.87,21.327z M18.284,21.671c-0.596,0.209-1.324-0.318-1.626-1.178
	s-0.063-1.727,0.533-1.936s1.324,0.318,1.626,1.178C19.119,20.596,18.88,21.462,18.284,21.671z M30.018,27.083
	c0.198-0.231,0.333-0.503,0.378-0.806c0.162-1.072-0.828-2.109-2.211-2.317c-1.382-0.208-2.634,0.492-2.795,1.564
	c-0.001,0.006-0.001,0.012-0.002,0.018c-1.238-0.24-2.534-0.37-3.868-0.37c-2.192,0-4.281,0.345-6.183,0.968
	c-0.315-0.929-1.489-1.491-2.763-1.275c-1.379,0.234-2.349,1.29-2.167,2.358c0.068,0.405,0.293,0.754,0.62,1.018
	c-3.347,2.278-5.464,5.626-5.464,9.36c0,6.865,7.144,12.43,15.956,12.43s15.956-5.565,15.956-12.43
	C37.476,33.171,34.497,29.284,30.018,27.083z M26.588,25.728c0.11-0.572,0.86-0.908,1.675-0.75c0.815,0.158,1.385,0.748,1.275,1.319
	c-0.111,0.572-0.86,0.908-1.675,0.751C27.049,26.891,26.478,26.3,26.588,25.728z M12.815,28.147c-0.751,0-1.36-0.472-1.36-1.054
	c0-0.583,0.609-1.055,1.36-1.055s1.36,0.472,1.36,1.055C14.176,27.676,13.566,28.147,12.815,28.147z M32.143,38.707
	c0,0-0.453,1.125-1.499,2.497c0.17,0.178,0.479,0.479,0.998,0.92c0.888,0.753-1.44,2.597-1.978,3.022
	c-0.529,0.419-1.562-1.333-1.593-1.384c-1.957,1.457-4.706,2.581-8.423,2.271c-0.056,0.244-0.136,0.66-0.218,1.313
	c-0.145,1.156-2.962,0.217-3.611,0c-0.563-0.188,0.065-1.622,0.244-2.001c-0.595-0.174-1.208-0.382-1.841-0.626
	c0,0-0.276-0.151-0.187-0.359c0.075-0.172,0.206-0.096,0.206-0.096c13.423,5.177,17.52-5.728,17.52-5.728s0.03-0.13,0.167-0.107
	C32.243,38.483,32.143,38.707,32.143,38.707z M40.679,86.053c0,0-0.423-3.17,1.22-3.212c1.643-0.043,1.6,3.161,1.6,3.161
	S42.146,86.721,40.679,86.053z M45.012,85.389c0,0-0.619-2.603,0.597-2.838c0,0,1.644-0.152,1.627,2.5
	C47.235,85.051,46.568,85.9,45.012,85.389z M39.327,85.604c0,0,0.266-2.903-0.971-2.961c0,0-1.597,0.01-1.299,2.51
	C37.058,85.152,37.658,85.902,39.327,85.604z M85.234,84.361c0,0-0.489-3.676,1.416-3.726c1.906-0.05,1.854,3.669,1.854,3.669
	S86.938,85.139,85.234,84.361z M90.262,83.593c0,0-0.718-3.02,0.693-3.292c0,0,1.906-0.178,1.888,2.9
	C92.843,83.201,92.068,84.188,90.262,83.593z M83.666,83.841c0,0,0.311-3.368-1.125-3.436c0,0-1.854,0.012-1.508,2.913
	C81.033,83.318,81.729,84.188,83.666,83.841z M30.034,17.874c0,0,2.085-3.654,3.415-3.271
	C33.449,14.603,34.235,17.461,30.034,17.874z M9.388,15.086c0,0,3.466,1.076,3.255,3.146C12.643,18.233,10.788,19.493,9.388,15.086z
	"/>
</svg>
