<?xml version="1.0" encoding="utf-8"?>
<!-- Generator: Adobe Illustrator 16.0.0, SVG Export Plug-In . SVG Version: 6.00 Build 0)  -->
<!DOCTYPE svg PUBLIC "-//W3C//DTD SVG 1.1//EN" "http://www.w3.org/Graphics/SVG/1.1/DTD/svg11.dtd">
<svg version="1.1" id="Layer_1" xmlns="http://www.w3.org/2000/svg" xmlns:xlink="http://www.w3.org/1999/xlink" x="0px" y="0px"
	 width="100px" height="100px" viewBox="0 0 100 100" enable-background="new 0 0 100 100" xml:space="preserve">
<path fill="#D32C5E" d="M50.421,61.295c-1.967,0-3.753-0.529-5.399-1.423c-1.074,3.683-1.618,8.496-1.465,13.771
	c0.391,11.342,8.231,20.063,8.231,20.063s7.187-9.501,6.795-20.844c-0.126-3.613-0.586-6.977-1.284-9.879
	c-0.307-1.228-0.627-2.328-1.004-3.39C54.564,60.652,52.557,61.295,50.421,61.295z M61.693,49.338
	c3.963-0.879,8.832-3.027,13.771-6.083c9.851-6.18,13.91-17.271,13.91-17.271s-11.972-1.172-21.834,5.008
	c-3.53,2.205-6.601,4.604-8.957,6.934c-0.837,0.823-1.591,1.632-2.204,2.414C59.406,42.237,61.484,45.558,61.693,49.338z
	 M44.869,40.145c-2.707-2.791-6.822-5.692-11.789-8.189c-10.212-5.12-22.043-2.833-22.043-2.833S15.808,39.837,26.006,45
	c4.743,2.33,9.319,3.878,13.128,4.492C39.288,45.46,41.548,42,44.869,40.145z"/>
<path fill="#978EC2" d="M61.764,49.98c0,3.961-2.037,7.409-5.092,9.417c2.734,2.764,6.766,5.638,11.648,8.078
	c10.255,5.12,22.1,2.791,22.1,2.791S85.635,59.592,75.395,54.43c-3.529-1.729-7.004-3.068-10.143-3.878
	c-1.2-0.321-2.4-0.544-3.529-0.711C61.723,49.882,61.764,49.938,61.764,49.98z M50.421,38.638c2.134,0,4.087,0.628,5.79,1.618
	c1.172-3.753,1.828-8.873,1.618-14.481c-0.376-11.287-8.175-20.048-8.175-20.048s-7.185,9.515-6.808,20.83
	c0.167,4.13,0.711,7.938,1.604,11.119c0.237,0.81,0.516,1.591,0.739,2.274C46.752,39.14,48.524,38.638,50.421,38.638z
	 M39.135,50.231c-0.921,0.279-1.939,0.558-2.986,0.949c-3.153,1.129-6.641,2.79-10.17,4.994
	c-9.864,6.182-13.896,17.271-13.896,17.271s11.999,1.172,21.806-4.994c3.223-2.023,6.097-4.199,8.343-6.376
	c0.865-0.81,1.66-1.634,2.386-2.441C41.395,57.695,39.204,54.234,39.135,50.231z"/>
<path fill="#584536" d="M33.889,68.452c-9.808,6.166-21.806,4.993-21.806,4.993s4.032-11.09,13.896-17.271
	c3.529-2.204,7.018-3.864,10.17-4.995c-0.907-0.279-1.842-0.558-2.762-0.907c-2.637,1.213-5.441,2.679-8.218,4.437
	C13.199,62.188,8.316,75.748,8.316,75.748s14.509,1.34,26.466-6.139c2.637-1.633,5.008-3.377,7.143-5.092
	c0.083-0.853,0.195-1.66,0.307-2.441C39.985,64.253,37.112,66.43,33.889,68.452z M58.583,72.859
	c0.392,11.344-6.795,20.845-6.795,20.845s-7.84-8.72-8.231-20.063c-0.153-5.272,0.391-10.086,1.465-13.77
	c-0.153-0.098-0.293-0.168-0.404-0.237c-0.726,0.81-1.521,1.632-2.386,2.441c-0.112,0.78-0.224,1.59-0.307,2.44
	c-0.307,2.846-0.418,5.901-0.307,9.082c0.46,13.715,9.934,24.43,9.934,24.43s8.733-11.607,8.259-25.351
	c-0.11-2.999-0.403-5.872-0.836-8.495c-0.586-0.404-1.146-0.838-1.676-1.201C57.997,65.885,58.457,69.247,58.583,72.859z
	 M75.464,53.021c-2.721-1.34-5.427-2.47-7.993-3.404c-0.769,0.363-1.479,0.656-2.219,0.935c3.139,0.81,6.611,2.148,10.143,3.878
	c10.24,5.162,15.025,15.836,15.025,15.836s-11.845,2.329-22.1-2.791c-4.883-2.44-8.914-5.314-11.648-8.078
	c-0.126,0.084-0.225,0.168-0.377,0.195c0.377,1.061,0.697,2.162,1.004,3.391c0.53,0.362,1.09,0.795,1.676,1.199
	c2.356,1.633,4.979,3.224,7.909,4.646c12.459,6.251,26.829,3.419,26.829,3.419S87.881,59.286,75.464,53.021z M67.54,30.992
	c9.862-6.18,21.834-5.008,21.834-5.008s-4.062,11.091-13.91,17.271c-4.938,3.056-9.808,5.204-13.771,6.083
	c0.027,0.153,0.027,0.321,0.027,0.502c1.131,0.167,2.33,0.391,3.53,0.711c0.739-0.279,1.45-0.572,2.218-0.935
	c2.637-1.2,5.428-2.678,8.219-4.437C87.645,37.717,92.555,24.24,92.555,24.24s-14.537-1.438-26.479,6.083
	c-2.639,1.632-5.051,3.334-7.145,5.092c-0.125,0.851-0.236,1.702-0.349,2.511C60.939,35.596,64.01,33.197,67.54,30.992z
	 M42.846,26.556c-0.377-11.314,6.808-20.83,6.808-20.83s7.799,8.762,8.175,20.048c0.21,5.608-0.446,10.729-1.618,14.481
	c0.042,0.042,0.084,0.042,0.168,0.084c0.613-0.781,1.367-1.591,2.204-2.414c0.11-0.809,0.224-1.66,0.349-2.511
	c0.307-2.833,0.391-5.902,0.307-9.083c-0.459-13.742-9.974-24.415-9.974-24.415s-8.72,11.552-8.231,25.336
	c0.112,3,0.433,5.874,0.865,8.51c0.879,0.614,1.744,1.242,2.553,1.911C43.557,34.494,43.013,30.686,42.846,26.556z M39.135,50.231
	c0-0.07-0.042-0.182-0.042-0.251c0-0.167,0.042-0.321,0.042-0.488C35.326,48.878,30.75,47.33,26.006,45
	c-10.199-5.162-14.97-15.877-14.97-15.877s11.831-2.288,22.043,2.833c4.967,2.497,9.083,5.399,11.789,8.189
	c0.098-0.07,0.237-0.125,0.321-0.195c-0.223-0.684-0.502-1.465-0.739-2.274c-0.81-0.669-1.674-1.297-2.553-1.911
	c-2.386-1.618-5.009-3.209-7.924-4.702c-12.459-6.25-26.829-3.418-26.829-3.418s5.832,12.975,18.249,19.267
	c2.72,1.339,5.427,2.47,7.994,3.362c0.92,0.349,1.855,0.628,2.762,0.908C37.195,50.79,38.214,50.51,39.135,50.231z M61.764,49.98
	c0-0.042-0.041-0.098-0.041-0.139c0-0.182,0-0.349-0.027-0.502c-0.211-3.781-2.288-7.101-5.315-8.999
	c-0.084-0.042-0.126-0.042-0.168-0.084c-1.702-0.99-3.655-1.618-5.79-1.618c-1.897,0-3.669,0.502-5.232,1.312
	c-0.083,0.07-0.223,0.125-0.321,0.195c-3.32,1.855-5.581,5.315-5.734,9.347c0,0.167-0.042,0.321-0.042,0.488
	c0,0.07,0.042,0.182,0.042,0.251c0.069,4.003,2.26,7.464,5.483,9.403c0.111,0.069,0.251,0.14,0.404,0.237
	c1.646,0.893,3.432,1.423,5.399,1.423c2.134,0,4.144-0.642,5.874-1.702c0.153-0.027,0.251-0.111,0.377-0.195
	C59.727,57.389,61.764,53.941,61.764,49.98z M50.421,60.137c-5.623,0-10.171-4.576-10.171-10.157c0-5.65,4.548-10.185,10.171-10.185
	c5.636,0,10.142,4.534,10.142,10.185C60.563,55.561,56.059,60.137,50.421,60.137z"/>
<path fill="#F7F297" d="M60.563,49.98c0-5.65-4.506-10.185-10.142-10.185c-5.623,0-10.171,4.534-10.171,10.185
	c0,5.581,4.548,10.157,10.171,10.157C56.059,60.137,60.563,55.561,60.563,49.98z"/>
</svg>
