<?xml version="1.0" encoding="utf-8"?>
<!-- Generator: Adobe Illustrator 16.0.0, SVG Export Plug-In . SVG Version: 6.00 Build 0)  -->
<!DOCTYPE svg PUBLIC "-//W3C//DTD SVG 1.1//EN" "http://www.w3.org/Graphics/SVG/1.1/DTD/svg11.dtd">
<svg version="1.1" id="Layer_1" xmlns="http://www.w3.org/2000/svg" xmlns:xlink="http://www.w3.org/1999/xlink" x="0px" y="0px"
	 width="12.786px" height="26.949px" viewBox="9.415 1.959 12.786 26.949" enable-background="new 9.415 1.959 12.786 26.949"
	 xml:space="preserve">
<path d="M21.022,16.349c-0.611-1.104-1.359-1.998-2.109-2.623c-0.875,0.641-1.941,1.031-3.104,1.031
	c-1.164,0-2.231-0.391-3.105-1.031c-0.75,0.625-1.498,1.52-2.111,2.623c-1.422,2.563-1.578,5.191-0.351,5.874
	c0.55,0.308,1.127,0.077,1.723-0.496c-0.104,0.582-0.167,1.213-0.167,1.873c0,2.933,1.139,5.308,2.543,5.308
	c0.846,0,1.266-0.865,1.467-2.189c0.2,1.324,0.619,2.189,1.463,2.189c1.406,0,2.545-2.375,2.545-5.308
	c0-0.66-0.061-1.291-0.168-1.873c0.599,0.573,1.174,0.804,1.726,0.496C22.603,21.541,22.444,18.912,21.022,16.349z M15.808,13.757
	c2.363,0,4.279-1.916,4.279-4.279s-1.916-4.279-4.279-4.279s-4.279,1.916-4.279,4.279S13.444,13.757,15.808,13.757z M18.731,4.974
	c1.234,0.455,0.492-0.725,0.492-1.531c0-0.806,0.762-1.792-0.492-1.391c-1.316,0.422-2.383,0.654-2.383,1.461
	C16.349,4.32,17.415,4.489,18.731,4.974z M15.815,4.4c0.783,0,0.346-0.396,0.346-0.884c0-0.488,0.438-0.883-0.346-0.883
	c-0.782,0-0.373,0.396-0.373,0.883C15.442,4.005,15.034,4.4,15.815,4.4z M12.884,4.974C14.2,4.49,15.267,4.32,15.267,3.513
	c0-0.807-1.066-1.039-2.383-1.461c-1.254-0.402-0.492,0.584-0.492,1.391S11.647,5.428,12.884,4.974z"/>
</svg>
