<?xml version="1.0" encoding="utf-8"?>
<!-- Generator: Adobe Illustrator 16.0.0, SVG Export Plug-In . SVG Version: 6.00 Build 0)  -->
<!DOCTYPE svg PUBLIC "-//W3C//DTD SVG 1.1//EN" "http://www.w3.org/Graphics/SVG/1.1/DTD/svg11.dtd">
<svg version="1.1" id="Layer_1" xmlns="http://www.w3.org/2000/svg" xmlns:xlink="http://www.w3.org/1999/xlink" x="0px" y="0px"
	 width="308.157px" height="260.155px" viewBox="-4.037 19.394 308.157 260.155"
	 enable-background="new -4.037 19.394 308.157 260.155" xml:space="preserve">
<path fill="none" stroke="#000000" stroke-width="10" d="M15.021,274.228c-14.317-1.92-18.426-20.359-8.937-29.99
	c10.389-13.678,30.271-22.311,46.508-13.889c0.662-52.117,0.287-104.247,0.386-156.37c81.978-16.402,164.067-32.264,246.08-48.494
	c-0.235,57.623,0.577,115.265-0.57,172.872c-1.97,14.861-17.137,24.73-30.79,27.816c-11.965,3.668-28.813-4.279-25.979-18.609
	c3.504-15.498,19.491-26.666,34.86-28.023c8.23-2.531,20.413,9.517,16.657-5.24c-0.077-45.314,0.85-90.693-0.456-135.968
	c-37.904,6.837-76.182,14.421-114.188,21.746c-0.227,54.093,0.54,108.203-0.569,162.281c-1.774,14.912-17.029,24.758-30.692,27.719
	c-13.902,4.604-31.51-7.662-24.805-22.941c8.187-17.999,32.255-30.366,50.727-20.355c0.328-48.568,0.146-97.141,0.192-145.711
	c-38.342,7.863-76.733,15.502-115.113,23.186c-0.708,54.82,0.6,109.691-0.905,164.482C52.15,265.708,32.252,276.587,15.021,274.228
	L15.021,274.228z"/>
</svg>
