<?xml version="1.0" encoding="utf-8"?>
<!-- Generator: Adobe Illustrator 16.0.0, SVG Export Plug-In . SVG Version: 6.00 Build 0)  -->
<!DOCTYPE svg PUBLIC "-//W3C//DTD SVG 1.1//EN" "http://www.w3.org/Graphics/SVG/1.1/DTD/svg11.dtd">
<svg version="1.1" id="Layer_1" xmlns="http://www.w3.org/2000/svg" xmlns:xlink="http://www.w3.org/1999/xlink" x="0px" y="0px"
	 width="100px" height="100px" viewBox="0 0 100 100" enable-background="new 0 0 100 100" xml:space="preserve">
<path fill="#E64425" d="M17.719,7.171c0.291,1.525,1.269,2.581,2.754,2.973c0.313,0.083,0.615,0.124,0.905,0.124
	c1.423,0,2.562-0.984,3.264-2.851c3.176,2.456,5.959,5.176,7.994,7.798c-0.41,0.225-0.814,0.458-1.214,0.702
	c-1.527,0.931-2.976,2.002-4.311,3.212c-0.334,0.302-0.66,0.614-0.978,0.934c-0.159,0.16-0.316,0.321-0.471,0.485l-0.231,0.248
	L25.2,21.053c-0.608,0.685-1.175,1.413-1.689,2.182c-1.028,1.535-1.843,3.237-2.351,5.037c-0.512,1.797-0.729,3.681-0.638,5.544
	c0.048,0.931,0.17,1.856,0.362,2.764l0.075,0.341l0.08,0.333c0.057,0.228,0.117,0.45,0.181,0.673
	c0.129,0.445,0.275,0.884,0.436,1.317c0.081,0.217,0.166,0.431,0.253,0.645l0.136,0.318l0.135,0.304l0.149,0.32
	c0.051,0.104,0.1,0.207,0.152,0.309c0.103,0.206,0.209,0.409,0.319,0.61c0.438,0.806,0.93,1.578,1.466,2.314
	c0.538,0.736,1.116,1.438,1.738,2.097c0.62,0.658,1.283,1.282,1.965,1.858c0.68,0.575,1.385,1.12,2.112,1.632
	c0.729,0.509,1.48,0.983,2.248,1.425c0.768,0.441,1.554,0.849,2.352,1.224c0.799,0.372,1.613,0.709,2.436,1.017
	c0.823,0.309,1.654,0.584,2.492,0.83c0.84,0.242,1.685,0.455,2.534,0.643c1.699,0.374,3.411,0.645,5.125,0.831
	c0.214,0.022,0.429,0.047,0.643,0.065l0.094,0.008c-0.038,0.551-0.084,1.14-0.146,1.731c-0.054,0.542-0.119,1.072-0.195,1.577
	c-0.167,1.118-0.387,2.113-0.674,3.04c-0.158,0.513-0.339,1.011-0.541,1.483c-0.039,0.091-0.079,0.182-0.12,0.271l-0.015,0.033
	c-0.666,1.465-1.621,2.793-2.544,4.078l-0.085,0.117c-0.438,0.613-0.889,1.242-1.301,1.885l0.204,0.131v0.001l-0.206-0.133
	c-0.279,0.433-0.522,0.839-0.742,1.241c-0.298,0.548-0.563,1.095-0.786,1.625c-0.355,0.852-0.619,1.695-0.785,2.513
	c-0.295,1.442-0.297,2.847-0.007,4.172c0.329,1.508,1.037,2.92,2.104,4.197c0.421,0.506,0.906,0.995,1.443,1.459
	c-0.106,0.147-0.214,0.296-0.325,0.44c-0.363,0.467-0.737,0.93-1.131,1.385l-0.595,0.683l-0.149,0.173l-0.152,0.18
	c-0.106,0.127-0.208,0.258-0.306,0.394c-0.391,0.538-0.713,1.137-0.938,1.78c-0.22,0.646-0.334,1.336-0.322,2.035
	c0.015,0.696,0.157,1.408,0.459,2.062c0.301,0.651,0.754,1.241,1.308,1.702c0.554,0.462,1.2,0.797,1.868,0.999
	c0.669,0.198,1.355,0.278,2.024,0.276l0.131-0.002l0.116-0.003c0.092-0.003,0.171-0.007,0.257-0.013
	c0.168-0.012,0.338-0.027,0.508-0.051c0.339-0.049,0.678-0.129,1.011-0.236c0.665-0.217,1.305-0.574,1.828-1.052
	c0.521-0.481,0.919-1.063,1.211-1.664c0.294-0.604,0.475-1.237,0.604-1.863c0.223-1.149,0.258-2.295,0.187-3.419
	c2.121,0.566,4.353,0.855,6.506,0.855c1.599,0,3.153-0.158,4.592-0.479c0.265-0.058,0.527-0.124,0.786-0.197
	c0.016,0.272,0.02,0.547,0.021,0.819c0.006,0.367,0.002,0.736-0.002,1.108c0,0.371,0,0.746,0.006,1.123
	c0.004,0.188,0.009,0.38,0.015,0.568l0.002,0.069l0.002,0.039l0.003,0.038c0.004,0.052,0.008,0.104,0.014,0.154
	c0.008,0.104,0.021,0.207,0.037,0.312c0.129,0.823,0.439,1.616,0.889,2.308c0.447,0.692,1.007,1.301,1.632,1.819
	c0.632,0.513,1.328,0.937,2.067,1.272c0.371,0.164,0.752,0.314,1.145,0.428s0.795,0.203,1.204,0.262
	c0.815,0.118,1.667,0.122,2.511-0.047c0.84-0.176,1.669-0.536,2.364-1.088c0.696-0.544,1.241-1.273,1.603-2.036l0.067-0.146
	c0.021-0.047,0.041-0.096,0.062-0.144c0.039-0.095,0.078-0.19,0.114-0.288c0.072-0.195,0.138-0.395,0.194-0.597
	c0.113-0.404,0.191-0.825,0.225-1.255c0.067-0.857-0.066-1.746-0.394-2.534c-0.326-0.792-0.813-1.479-1.36-2.071
	c-0.275-0.296-0.564-0.57-0.869-0.822c-0.306-0.252-0.619-0.486-0.941-0.705c-0.646-0.437-1.313-0.819-2-1.15
	c-0.687-0.333-1.383-0.635-2.092-0.893c-0.076-0.027-0.154-0.057-0.231-0.084c0.678-0.627,1.295-1.311,1.837-2.035
	c1.285-1.715,2.148-3.649,2.499-5.598c0.166-0.932,0.215-1.861,0.146-2.765c-0.094-1.271-0.416-2.499-0.963-3.654
	c-0.34-0.717-0.766-1.407-1.266-2.052c-0.716-0.925-1.6-1.782-2.624-2.549c-0.131-0.1-0.274-0.197-0.438-0.299l0,0
	c-0.508-0.319-1.056-0.579-1.586-0.832c-0.803-0.381-1.561-0.74-2.201-1.293c-0.187-0.159-0.366-0.344-0.539-0.545
	c-0.727-0.854-1.25-2.006-1.557-3.424c-0.119-0.543-0.203-1.121-0.25-1.721c-0.09-1.148-0.041-2.324,0.137-3.415
	c0.021-0.002,0.041-0.004,0.063-0.006l-0.004-0.088c1.479-0.21,2.952-0.461,4.42-0.772c1.671-0.353,3.329-0.798,4.954-1.383
	c1.622-0.588,3.215-1.316,4.688-2.298c0.731-0.492,1.433-1.048,2.074-1.676c0.641-0.627,1.223-1.328,1.715-2.094
	c0.494-0.764,0.896-1.595,1.193-2.454c0.301-0.864,0.497-1.759,0.604-2.659c0.215-1.802,0.063-3.609-0.269-5.34
	c-0.657-3.467-2.04-6.777-3.917-9.75c-0.938-1.49-2.012-2.889-3.178-4.203c-1.168-1.313-2.436-2.536-3.786-3.66
	c-1.293-1.077-2.662-2.063-4.095-2.951c0.343-0.514,0.712-0.999,1.115-1.461c0.924-1.062,2.073-2.382,3.369-3.367
	c0.586-0.446,1.314-0.785,2.021-1.113c0.056-0.026,0.11-0.051,0.167-0.078c0.804,0.988,1.884,2.227,3.445,2.312
	c0.058,0.003,0.113,0.005,0.168,0.005c1.699,0,3.022-1.418,3.471-2.867c0.574-1.862-0.1-3.866-1.641-4.874
	c-1.467-0.963-3.445-0.827-4.705,0.323c-1.313,1.196-1.258,2.989-1.103,4.233c0.019,0.143,0.039,0.297,0.065,0.47
	c-0.025,0.011-0.051,0.022-0.074,0.034c-0.729,0.339-1.482,0.689-2.11,1.167c-1.335,1.015-2.503,2.357-3.44,3.435
	c-0.422,0.484-0.807,0.991-1.166,1.528c-0.678-0.408-1.373-0.796-2.078-1.158c-0.393-0.201-0.789-0.395-1.188-0.581
	c-0.402-0.185-0.808-0.362-1.216-0.531c-1.634-0.676-3.323-1.227-5.057-1.628c-1.73-0.401-3.488-0.655-5.253-0.777
	c-3.53-0.241-7.088,0.036-10.542,0.822c-2.837,0.659-5.609,1.662-8.204,3.035c-2.067-2.678-4.905-5.456-8.143-7.959
	c0.641-1.382,1.246-3.341-0.135-5.084c-1.233-1.555-3.278-1.906-4.756-0.816C18.331,2.377,17.313,5.035,17.719,7.171z
	 M68.547,66.639l-0.113,0.187V66.82L68.547,66.639z M70.878,83.152c-3.285,0.361-6.786,0.178-9.879,0.013l-0.239-0.013
	c-5.426-0.286-9.875-0.914-13.601-1.922c-2.009-0.541-4.125-1.181-6.647-2.008c-0.23-1.141-0.236-2.341-0.013-3.576
	c2.568,0.742,4.971,1.248,7.335,1.543c0.544,0.068,1.086,0.139,1.626,0.207c4.306,0.551,8.373,1.069,12.706,1.002
	c1.178-0.018,2.354-0.008,3.493,0.002c0.688,0.006,1.364,0.012,2.036,0.012c1.839,0,3.633-0.042,5.468-0.242
	C72.798,79.9,72.014,81.615,70.878,83.152z M63.784,90.986c-0.046-0.672-0.093-1.353-0.203-2.031
	c1.272-0.404,2.493-0.98,3.632-1.715c0.564-0.362,1.115-0.771,1.639-1.215c0.844,0.355,1.674,0.746,2.475,1.186
	c0.645,0.354,1.27,0.742,1.855,1.176c0.588,0.434,1.139,0.913,1.615,1.455c0.477,0.54,0.875,1.147,1.129,1.811
	c0.256,0.66,0.355,1.375,0.289,2.08c-0.063,0.705-0.283,1.4-0.594,2.047c-0.309,0.644-0.746,1.216-1.305,1.647
	c-0.553,0.435-1.217,0.722-1.912,0.865c-0.697,0.144-1.426,0.149-2.137,0.052c-1.428-0.201-2.804-0.798-3.945-1.68
	c-0.568-0.441-1.078-0.962-1.486-1.55c-0.406-0.587-0.708-1.246-0.848-1.939C63.953,93,63.93,92.83,63.913,92.646l-0.05-0.551
	C63.835,91.727,63.811,91.357,63.784,90.986z M51.001,88.363c-2.559-0.723-4.83-1.833-6.586-3.215
	c0.125-0.215,0.246-0.432,0.36-0.65c0.809,0.236,1.549,0.445,2.257,0.638c3.747,1.013,8.229,1.646,13.702,1.938
	c0.639,0.033,1.295,0.068,1.97,0.101c1.362,0.064,2.479,0.099,3.502,0.105c-0.944,0.534-1.94,0.962-2.97,1.271
	c-0.34,0.105-0.69,0.197-1.041,0.274C58.789,89.582,54.71,89.413,51.001,88.363z M43.891,85.971c0.091-0.133,0.18-0.268,0.267-0.404
	c1.757,1.371,4.003,2.479,6.527,3.213c-0.039,1.141-0.146,2.277-0.426,3.369c-0.148,0.572-0.347,1.133-0.62,1.646
	c-0.273,0.516-0.624,0.984-1.059,1.359c-0.433,0.376-0.947,0.652-1.499,0.818c-0.552,0.17-1.138,0.236-1.727,0.232
	c-0.587-0.002-1.173-0.076-1.728-0.246c-0.554-0.168-1.076-0.436-1.517-0.8c-0.442-0.363-0.8-0.825-1.043-1.345
	c-0.244-0.518-0.375-1.088-0.395-1.666c-0.043-1.156,0.351-2.314,1.012-3.278c0.083-0.12,0.169-0.239,0.26-0.354l0.283-0.354
	l0.57-0.715C43.174,86.97,43.544,86.48,43.891,85.971z M43.131,84.001c0.355,0.11,0.692,0.213,1.017,0.312
	c-0.085,0.136-0.172,0.27-0.26,0.401C43.622,84.482,43.369,84.245,43.131,84.001z M42.706,70.313
	c1.715,0.308,3.729,0.643,5.802,0.847l0.387,0.038c3.533,0.351,6.871,0.68,10.436,0.666c1.539-0.008,3.114,0.041,4.642,0.088
	c1.436,0.045,2.896,0.09,4.359,0.09c1.398,0,2.8-0.042,4.186-0.164c0.445,0.984,0.725,2.023,0.828,3.096
	c-2.554,0.297-5.037,0.277-7.664,0.256c-1.146-0.011-2.334-0.021-3.523-0.002c-4.292,0.067-8.333-0.447-12.612-0.994
	c-0.548-0.07-1.098-0.142-1.651-0.211c-2.096-0.264-4.218-0.692-6.479-1.31c0.192-0.435,0.41-0.879,0.653-1.325
	C42.26,71.037,42.47,70.684,42.706,70.313z M46.76,64.032l0.015-0.033c0.013-0.026,0.024-0.056,0.037-0.082
	c3.104,0.917,5.773,1.496,8.381,1.817c0.766,0.094,1.545,0.199,2.299,0.304c1.209,0.165,2.459,0.336,3.691,0.459
	c1.312,0.131,2.836,0.274,4.344,0.343c0.32,0.016,0.67,0.063,1.041,0.11c0.49,0.065,0.994,0.133,1.479,0.133
	c0.108,0,0.216-0.005,0.321-0.013c0.123,0.078,0.234,0.154,0.336,0.231c0.854,0.64,1.604,1.341,2.234,2.091
	c-2.309,0.112-4.666,0.039-6.953-0.031c-1.528-0.047-3.11-0.096-4.658-0.088c-3.527,0.017-6.834-0.312-10.336-0.658l-0.436-0.043
	c-1.289-0.127-2.647-0.313-4.246-0.577C45.202,66.753,46.109,65.465,46.76,64.032z M48.107,59.333
	c2.862,0.636,5.689,0.94,8.675,1.261c1.307,0.139,2.78,0.271,4.237,0.271c0.412,0,0.822-0.012,1.229-0.035
	c0.281,1.205,0.723,2.227,1.311,3.043c-1.447,0.018-2.941-0.13-4.393-0.273c-1.219-0.121-2.479-0.244-3.688-0.268
	c-2.41-0.044-4.873-0.471-7.953-1.38C47.766,61.143,47.956,60.279,48.107,59.333z M48.491,55.732l0.062,0.007
	c0.434,0.034,0.86,0.062,1.29,0.085c0.858,0.049,1.716,0.078,2.574,0.092c1.713,0.034,3.423-0.021,5.125-0.114
	c0.426-0.024,0.851-0.051,1.274-0.079l1.271-0.104c0.66-0.058,1.316-0.116,1.977-0.181c-0.155,1.014-0.203,2.098-0.137,3.166
	c-1.357,0.129-2.931-0.019-4.328-0.148c-0.66-0.063-1.283-0.12-1.855-0.148c-2.445-0.125-4.861-0.468-7.377-1.046
	C48.417,56.736,48.458,56.221,48.491,55.732z M23.82,39.743c3.535-2.938,6.467-4.803,9.488-6.037
	c8.663-3.535,15.938-3.346,24.872-1.895C66.4,33.15,73.701,37.354,80.496,44.66c-0.239,0.65-0.539,1.276-0.904,1.866
	c-0.865,1.414-2.076,2.6-3.439,3.556c-1.365,0.96-2.881,1.706-4.442,2.316c-1.565,0.61-3.185,1.088-4.821,1.49
	c-1.637,0.399-3.296,0.723-4.961,1.008l0.004,0.021c-1.465,0.053-2.934,0.104-4.396,0.116c-1.688,0.014-3.378-0.02-5.063-0.112
	c-3.37-0.187-6.729-0.619-9.997-1.442c-3.264-0.82-6.436-2.045-9.317-3.779c-1.44-0.864-2.806-1.853-4.07-2.958
	c-1.265-1.101-2.408-2.339-3.379-3.702C24.969,42.004,24.335,40.902,23.82,39.743z M32.384,17.483
	c0.439-0.269,0.887-0.525,1.34-0.771c1.15,1.704,1.961,3.349,2.415,4.895c-0.015,0.007-0.029,0.015-0.043,0.021
	c-0.143,0.067-0.291,0.121-0.443,0.166c-0.307,0.087-0.633,0.122-0.992,0.101c0.292,0.214,0.678,0.303,1.054,0.277
	c0.188-0.012,0.375-0.052,0.554-0.115c0.045-0.015,0.089-0.033,0.132-0.052c0.042-0.018,0.091-0.041,0.127-0.058
	c0.087-0.044,0.167-0.091,0.247-0.143c0.315-0.208,0.579-0.493,0.758-0.821c0.177-0.328,0.27-0.705,0.22-1.064
	c-0.152,0.326-0.327,0.605-0.537,0.851c-0.19,0.224-0.407,0.417-0.643,0.581c-0.469-1.543-1.281-3.181-2.416-4.87
	c2.377-1.238,4.922-2.158,7.534-2.771c3.275-0.766,6.663-1.057,10.02-0.85c1.68,0.104,3.35,0.334,4.988,0.701
	c1.64,0.368,3.246,0.878,4.805,1.51c1.477,0.599,2.907,1.307,4.282,2.111c-0.96,1.798-1.563,3.704-2.022,5.375
	c-0.08-0.042-0.158-0.085-0.232-0.132c-0.229-0.144-0.44-0.315-0.645-0.504c-0.41-0.379-0.773-0.833-1.189-1.245
	c0.251,0.528,0.525,1.043,0.91,1.508c0.19,0.23,0.414,0.445,0.664,0.625c0.127,0.09,0.262,0.168,0.396,0.241l0.104,0.051
	l0.098,0.047c0.066,0.032,0.135,0.063,0.201,0.094c0.137,0.058,0.271,0.114,0.404,0.167c0.129,0.052,0.276,0.113,0.424,0.156
	c0.293,0.089,0.594,0.141,0.896,0.157c0.302,0.015,0.604-0.003,0.899-0.064c0.291-0.063,0.578-0.163,0.826-0.323
	c-0.572,0.124-1.138,0.104-1.683,0.007c-0.271-0.05-0.538-0.12-0.793-0.215c-0.128-0.047-0.247-0.1-0.383-0.161l-0.396-0.171
	c-0.019-0.008-0.037-0.017-0.056-0.025c0.453-1.656,1.047-3.556,1.996-5.339c1.376,0.831,2.694,1.757,3.942,2.771
	c2.607,2.122,4.914,4.625,6.754,7.438c1.84,2.81,3.205,5.94,3.887,9.228c0.195,0.935,0.331,1.883,0.381,2.833
	c-5.775-6.323-12.305-9.973-20.49-11.465c-6.029-1.1-17.702-2.342-28.14,1.693c-3.229,1.249-6.291,3.147-9.884,6.133
	c-0.149-0.769-0.244-1.548-0.28-2.331c-0.076-1.666,0.119-3.344,0.58-4.946c0.458-1.604,1.181-3.13,2.107-4.519
	c0.463-0.696,0.976-1.358,1.53-1.984c0.555-0.625,1.148-1.222,1.768-1.787C29.599,19.366,30.952,18.36,32.384,17.483z"/>
<path fill="#E64425" d="M54.129,49.983c0.068,0.41,0.105,0.83,0.092,1.251c-0.018,0.42-0.08,0.851-0.263,1.233
	c-0.021-0.421-0.063-0.815-0.121-1.215c-0.056-0.397-0.123-0.792-0.188-1.191c-0.065-0.397-0.133-0.797-0.188-1.202
	c-0.054-0.405-0.104-0.814-0.106-1.237c0.199,0.373,0.351,0.757,0.479,1.151C53.959,49.169,54.061,49.572,54.129,49.983z
	 M60.969,46.023c0,0.927,0.756,1.681,1.682,1.681c0.928,0,1.682-0.754,1.682-1.681c0-0.927-0.754-1.681-1.682-1.681
	C61.725,44.342,60.969,45.096,60.969,46.023z M61.457,46.023c0-0.658,0.535-1.193,1.191-1.193c0.658,0,1.194,0.535,1.194,1.193
	c0,0.658-0.536,1.193-1.194,1.193C61.992,47.216,61.457,46.681,61.457,46.023z M41.266,45.268c0,1.025,0.833,1.859,1.858,1.859
	s1.859-0.834,1.859-1.859c0-1.024-0.834-1.858-1.859-1.858S41.266,44.244,41.266,45.268z M41.753,45.268
	c0-0.756,0.615-1.371,1.371-1.371s1.371,0.615,1.371,1.371s-0.615,1.372-1.371,1.372C42.369,46.64,41.753,46.024,41.753,45.268z"/>
</svg>
