<?xml version="1.0" encoding="utf-8"?>
<!-- Generator: Adobe Illustrator 15.1.0, SVG Export Plug-In . SVG Version: 6.00 Build 0)  -->
<!DOCTYPE svg PUBLIC "-//W3C//DTD SVG 1.1//EN" "http://www.w3.org/Graphics/SVG/1.1/DTD/svg11.dtd">
<svg version="1.1" id="Layer_1" xmlns="http://www.w3.org/2000/svg" xmlns:xlink="http://www.w3.org/1999/xlink" x="0px" y="0px"
	 width="100px" height="100px" viewBox="0 0 100 100" enable-background="new 0 0 100 100" xml:space="preserve">
<path fill-rule="evenodd" clip-rule="evenodd" d="M74.106,88.168c-0.074-0.178-0.364-0.329-0.631-0.447
	c0.063-0.148,0.192-0.421,0.211-0.762c0.009-0.139-0.137-0.245-0.14-0.405c0-0.13,0.146-0.311,0.137-0.45
	c-0.016-0.255-0.196-0.275-0.223-0.714c-0.029-0.479,0.106-1.342-0.557-1.874c-0.527-0.323-1.072-0.368-1.626-0.548
	c-0.731-0.501-0.471-3.59-0.178-4.304c0.838-2.037,2.011-3.986,2.467-6.322c0.297-1.528-0.619-5.813-1.033-6.951
	c-0.755-2.076-3.305-5.496-5.108-6.545c-0.972-0.299-1.943-0.598-2.914-0.897c-0.358-0.239-0.72-0.477-1.078-0.717
	c-1.694-0.755-3.66-1.374-5.067-2.467c-0.21-0.319,0.453-1.32,0.628-1.658c0.809-1.572,1.182-3.323,1.525-5.425
	c0.233-1.425-0.243-2.902,0.044-4.303c0.255-1.182,0.51-2.363,0.762-3.542c0.305-0.737,0.876-1.561,1.077-2.423
	c0.089-0.957,0.178-1.913,0.27-2.87c-0.121-0.358-0.239-0.717-0.358-1.075c0.102-0.587,0.418-1.528,0.584-2.107
	c0-0.36,0-0.718,0-1.077c0.178-0.284,0.355-0.568,0.536-0.853c0.313-1.448,0.628-2.899,0.941-4.349
	c2.595-1.238,4.534-3.597,6.098-5.874c-0.527-1.114-2.384-2.654-3.405-3.317c0.58-1.061,1.164-2.122,1.747-3.184
	c0.137-0.355,0.225-1.037,0.396-1.762c0.116-0.476,0.329-0.932,0.397-1.46c0.101-0.795,0.006-1.513,0.064-2.34
	c0.137-1.834,0.14-3.201,0.071-4.235c-0.035-0.533-0.189-0.986-0.394-1.099c-0.201-0.112-0.403-0.074-0.625-0.09
	c-0.64,0.38-0.938,1.085-1.122,1.883c-0.106,0.458,0.056,0.918-0.134,1.256c-0.272,0.484-1.418,2.575-1.75,2.868
	c-0.975,0.871-3.137,1.824-3.542,3.139c-0.313,1.021,0.539,1.934,0.853,2.511c-0.127,1.326-1.116,2.661-1.705,3.677
	c-1.508,2.898-3.019,5.8-4.528,8.7c-0.59,1.43-0.765,3.058-1.164,4.661c-0.731,2.855-1.466,5.71-2.197,8.565
	c-0.524,1.735-1.469,3.21-2.108,4.753c-0.521,1.507-1.046,3.018-1.567,4.528c-0.578,1.419-1.431,2.695-2.02,4.034
	c-0.27,0.883-0.539,1.766-0.808,2.647c-0.264,0.418-3.554,1.763-4.259,2.062c-2.313,0.986-6.607,2.576-9.323,4.389
	c-0.498,0.329-0.737,0.759-1.108,1.099c-0.358,0.335-0.85,0.584-1.045,0.924c-0.394,0.673-0.249,1.57-0.406,2.512
	c-0.195,1.913-0.388,3.826-0.583,5.739c-0.992,5.114-1.875,9.998-3.498,14.618c0,0.089,0,0.178,0,0.267
	c0.329,0.077,0.657,0.151,0.986,0.225c-0.178,1.41-0.465,3.211-0.178,4.754c0.148,0.79,0.299,1.584,0.447,2.375
	c-0.133,0.181-0.27,0.361-0.403,0.539c-0.524,0.284-1.045,0.568-1.569,0.853c-0.098,0.089-0.116,0.187-0.133,0.358
	c0.192,0.148,0.388,0.299,0.581,0.447c0.897-0.092,3.856,0.041,4.081-0.089c0.343-0.402,0.687-0.809,1.03-1.211
	c0.151-0.613,0.225-0.986,0.358-1.84c0.136-0.85,0.122-1.344,0.136-2.017c0.358-0.867,0.829-1.658,0.962-2.645
	c0.136-0.986-0.571-1.234-0.334-2.063c0.314-0.552,0.539-0.895,0.942-1.659c0.402-0.761-0.083-1.392,0.133-2.061
	c0.21-0.329,0.42-0.661,0.627-0.986c0.483-1.149,0.847-2.399,1.309-3.734c0.915-2.66,1.741-5.654,1.336-8.799
	c-0.042-0.317-0.205-0.64-0.267-0.963c1.007-1.323,1.765-1.729,2.775-1.931c0.699-0.143,1.519-0.112,2.627-0.513
	c0.861-0.313,1.682-0.796,2.668-1.099c0.747-0.23,1.993-0.77,2.958-0.45c0.358,0.255,0.717,0.51,1.075,0.762
	c0.758,0.45,1.771,0.806,2.781,0.944c2.562,0.344,4.348-1.987,6.367-0.809c0.284,0.148,0.568,0.3,0.854,0.447
	c0.719,0.865,1.096,2.041,1.569,3.14c0.402,0.79,0.806,1.584,1.208,2.375c0.137,0.853,0.27,1.706,0.406,2.556
	c0.139,1.11-0.542,2.04-0.27,3.275c0.446,1.061,0.896,2.12,1.344,3.184c0.3,1.359,0.599,2.719,0.897,4.078
	c-0.104,0.519-0.533,0.812-0.764,1.211c-0.479,0.838-2.206,4.205-2.017,5.381c0.168,1.037,0.586,1.976,0.985,2.781
	c-1.762,0.104-3.526,0.207-5.289,0.313c-0.823,0.267-1.644,0.536-2.467,0.806c-0.838,0.074-2.064,0.358-2.914,0.406
	c-0.299,0.015-0.731,0.098-1.179,0.258c-0.178,0.062-0.317,0.216-0.512,0.266c-0.474,0.122-1.04,0.089-1.448,0.193
	c-0.643,0.104-1.285,0.21-1.928,0.313c-0.098,0.095-0.095,0.192-0.089,0.403c-0.524,0.207-1.045,0.417-1.57,0.627
	c0.661,0.688,1.478-0.062,2.198,0.226c0.805,0.316,2.653,0.405,3.811,0.222c2.541-0.402,5.446,0.021,7.712,0.406
	c1.732,0.104,3.468,0.207,5.2,0.311c0.96,0.151,4.031,0.296,4.573-0.089c0.21-0.373,0.42-0.746,0.627-1.119c0.314,0,0.628,0,0.942,0
	c0.37-0.491,0.737-1.362,0.897-2.017c0.029-0.392,0.059-0.779,0.092-1.167c0.355-0.568,0.714-1.138,1.075-1.706
	c0.162-0.521,0.328-1.045,0.491-1.569c0.189-0.312,0.441-0.714,0.767-1.027c0.261-0.255,0.664-0.504,0.788-0.693
	C74.127,88.547,74.178,88.349,74.106,88.168z"/>
</svg>
