<svg xmlns="http://www.w3.org/2000/svg" xmlns:se="http://svg-edit.googlecode.com" xmlns:xlink="http://www.w3.org/1999/xlink" id="svgcontent" width="205.65" height="395.85" x="0" y="0" viewBox="0 0 205.65 395.85" overflow="hidden"><g mask="" style="pointer-events:all"><title style="pointer-events:inherit">Layer 1</title><g id="svg_1" type="text" text="BEACH CLEAN UP" font-size="21.831380297442124" font-family="Aleo" fill="ffffff" text-anchor="start" font-weight="normal" font-style="normal" lineHeight="1" shapeId="0" shapeVal="0" fill-opacity="1" display="null" elemBBoxWidth="184.97659301757812" stroke="null" stroke-dasharray="none" style="pointer-events:inherit"><path id="svg_20" fill="#ffffff" stroke-width="0" d="M20.53988,187.47801C20.52896,190.3925 18.18209,191.93161 15.04929,191.93161C15.04929,191.93161 7.94317,191.93161 7.94317,191.93161C7.99775,191.40767 7.75761,190.68723 8.27065,190.58899C8.27065,190.58899 9.51503,190.33792 9.51503,190.33792C9.51503,190.33792 9.51503,177.88312 9.51503,177.88312C8.81643,177.74121 8.40163,177.66481 8.27065,177.63206C7.75761,177.55565 7.99775,176.81339 7.94317,176.28943C7.94317,176.28943 14.5035,176.28943 14.5035,176.28943C17.28701,176.28943 19.01169,177.08627 19.69937,178.65813C20.25607,179.94618 20.00501,181.65994 19.29549,182.47862C18.76062,183.10081 18.04018,183.59203 17.07961,183.88675C19.38282,184.3452 20.53988,185.54593 20.53988,187.47801C20.53988,187.47801 20.53988,187.47801 20.53988,187.47801M17.90919,180.62296C17.90919,178.62538 16.65389,177.97044 14.5035,177.95952C14.5035,177.95952 11.63268,177.95952 11.63268,177.95952C11.63268,177.95952 11.63268,183.2973 11.63268,183.2973C11.63268,183.2973 14.42709,183.2973 14.42709,183.2973C16.62115,183.25363 17.90919,182.56595 17.90919,180.62296C17.90919,180.62296 17.90919,180.62296 17.90919,180.62296M18.45498,187.42343C18.45498,185.60051 17.06869,184.80367 15.00562,184.80367C15.00562,184.80367 11.63268,184.80367 11.63268,184.80367C11.63268,184.80367 11.63268,190.2506 11.63268,190.2506C11.63268,190.2506 15.01654,190.2506 15.01654,190.2506C17.22151,190.21785 18.45498,189.43192 18.45498,187.42343C18.45498,187.42343 18.45498,187.42343 18.45498,187.42343M21.70786,176.28943C21.70786,176.28943 32.91827,176.28943 32.91827,176.28943C32.91827,176.28943 32.91827,180.06625 32.91827,180.06625C32.32883,180.01167 31.48832,180.27365 31.41191,179.6842C31.40099,179.61871 31.34641,179.06201 31.25909,178.01411C31.25909,178.01411 25.40828,178.01411 25.40828,178.01411C25.40828,178.01411 25.40828,183.20998 25.40828,183.20998C25.40828,183.20998 31.17176,183.20998 31.17176,183.20998C31.17176,183.20998 31.17176,184.86916 31.17176,184.86916C31.17176,184.86916 25.40828,184.86916 25.40828,184.86916C25.40828,184.86916 25.40828,190.20694 25.40828,190.20694C25.40828,190.20694 31.27,190.20694 31.27,190.20694C31.34641,189.23544 31.40099,188.7224 31.41191,188.65691C31.49924,188.07837 32.32883,188.34035 32.91827,188.28577C32.91827,188.28577 32.91827,191.93161 32.91827,191.93161C32.91827,191.93161 21.70786,191.93161 21.70786,191.93161C21.76244,191.40767 21.52229,190.68723 22.03533,190.58899C22.03533,190.58899 23.27972,190.33792 23.27972,190.33792C23.27972,190.33792 23.27972,177.88312 23.27972,177.88312C22.58112,177.74121 22.16632,177.66481 22.03533,177.63206C21.52229,177.55565 21.76244,176.81339 21.70786,176.28943C21.70786,176.28943 21.70786,176.28943 21.70786,176.28943M49.82668,190.70906C50.28514,190.78546 50.05592,191.46223 50.11049,191.93161C50.11049,191.93161 45.62414,191.93161 45.62414,191.93161C45.6678,191.45132 45.4604,190.82913 45.91886,190.69814C45.91886,190.69814 46.81395,190.44708 46.81395,190.44708C46.81395,190.44708 45.59139,187.29245 45.59139,187.29245C45.59139,187.29245 38.8455,187.29245 38.8455,187.29245C38.8455,187.29245 37.62294,190.44708 37.62294,190.44708C37.62294,190.44708 38.51803,190.69814 38.51803,190.69814C38.9874,190.78546 38.75817,191.45132 38.81275,191.93161C38.81275,191.93161 34.3264,191.93161 34.3264,191.93161C34.37006,191.46223 34.17358,190.84004 34.61021,190.70906C34.61021,190.70906 35.48346,190.44708 35.48346,190.44708C35.48346,190.44708 41.1487,176.28943 41.1487,176.28943C41.1487,176.28943 43.2991,176.28943 43.2991,176.28943C43.2991,176.28943 48.95342,190.44708 48.95342,190.44708C48.95342,190.44708 49.82668,190.70906 49.82668,190.70906M39.43494,185.76425C39.43494,185.76425 45.00195,185.76425 45.00195,185.76425C45.00195,185.76425 42.68782,179.76062 42.68782,179.76062C42.52409,179.36766 42.37126,178.87645 42.21844,178.287C41.41069,181.05959 40.3737,183.17723 39.43494,185.76425C39.43494,185.76425 39.43494,185.76425 39.43494,185.76425M51.13657,184.11598C51.13657,179.44406 54.40036,176.04929 59.10502,176.11478C60.33849,176.13661 61.95402,176.48592 63.94068,177.23909C63.94068,177.23909 63.94068,180.88493 63.94068,180.88493C63.35123,180.83035 62.52164,181.10326 62.4343,180.51379C62.40156,180.48105 62.27057,178.58173 62.25966,178.53806C58.99586,177.50107 56.53983,177.86128 54.89156,179.6078C53.83274,180.73212 53.29787,182.22757 53.29787,184.11598C53.29787,187.59808 55.37185,190.28334 58.72297,190.28334C60.81879,190.28334 61.60471,189.77031 62.71812,188.8643C62.94734,188.67874 63.19841,188.62416 63.39489,188.84247C63.39489,188.84247 64.22448,189.74847 64.22448,189.74847C62.87094,191.32033 60.99343,192.10626 58.59199,192.10626C54.09472,192.10626 51.13657,188.70058 51.13657,184.11598C51.13657,184.11598 51.13657,184.11598 51.13657,184.11598M80.75085,177.63206C80.75085,177.63206 79.50645,177.88312 79.50645,177.88312C79.50645,177.88312 79.50645,190.33792 79.50645,190.33792C80.21598,190.47983 80.6526,190.56715 80.82725,190.5999C81.25296,190.68723 81.03465,191.46223 81.08923,191.93161C81.08923,191.93161 75.80604,191.93161 75.80604,191.93161C75.8606,191.40767 75.62047,190.68723 76.13349,190.58899C76.13349,190.58899 77.37789,190.33792 77.37789,190.33792C77.37789,190.33792 77.37789,184.81458 77.37789,184.81458C77.37789,184.81458 68.95098,184.81458 68.95098,184.81458C68.95098,184.81458 68.95098,190.33792 68.95098,190.33792C69.99889,190.54532 70.52283,190.76364 70.52283,190.99286C70.52283,190.99286 70.52283,191.93161 70.52283,191.93161C70.52283,191.93161 65.25056,191.93161 65.25056,191.93161C65.30514,191.40767 65.06498,190.68723 65.57803,190.58899C65.57803,190.58899 66.82241,190.33792 66.82241,190.33792C66.82241,190.33792 66.82241,177.88312 66.82241,177.88312C66.82241,177.88312 65.51254,177.62114 65.51254,177.62114C65.08681,177.53381 65.30514,176.7588 65.25056,176.28943C65.25056,176.28943 70.52283,176.28943 70.52283,176.28943C70.47917,176.74788 70.67566,177.51198 70.28269,177.61023C70.28269,177.61023 68.95098,177.88312 68.95098,177.88312C68.95098,177.88312 68.95098,183.26456 68.95098,183.26456C68.95098,183.26456 77.37789,183.26456 77.37789,183.26456C77.37789,183.26456 77.37789,177.88312 77.37789,177.88312C77.37789,177.88312 76.068,177.62114 76.068,177.62114C75.6423,177.53381 75.8606,176.7588 75.80604,176.28943C75.80604,176.28943 81.08923,176.28943 81.08923,176.28943C81.03465,176.81339 81.27479,177.5229 80.75085,177.63206C80.75085,177.63206 80.75085,177.63206 80.75085,177.63206M86.94004,184.11598C86.94004,179.44406 90.20383,176.04929 94.90849,176.11478C96.14196,176.13661 97.75749,176.48592 99.74413,177.23909C99.74413,177.23909 99.74413,180.88493 99.74413,180.88493C99.1547,180.83035 98.32511,181.10326 98.23779,180.51379C98.20503,180.48105 98.07404,178.58173 98.06312,178.53806C94.79934,177.50107 92.3433,177.86128 90.69504,179.6078C89.63621,180.73212 89.10134,182.22757 89.10134,184.11598C89.10134,187.59808 91.17533,190.28334 94.52644,190.28334C96.62226,190.28334 97.40819,189.77031 98.52158,188.8643C98.75082,188.67874 99.00188,188.62416 99.19836,188.84247C99.19836,188.84247 100.02796,189.74847 100.02796,189.74847C98.67442,191.32033 96.79691,192.10626 94.39545,192.10626C89.89819,192.10626 86.94004,188.70058 86.94004,184.11598C86.94004,184.11598 86.94004,184.11598 86.94004,184.11598M112.01338,188.52592C112.01338,188.52592 112.01338,191.93161 112.01338,191.93161C112.01338,191.93161 101.05402,191.93161 101.05402,191.93161C101.08677,191.39674 100.8903,190.67632 101.38151,190.58899C101.38151,190.58899 102.62589,190.33792 102.62589,190.33792C102.62589,190.33792 102.62589,177.88312 102.62589,177.88312C102.62589,177.88312 101.38151,177.63206 101.38151,177.63206C100.8903,177.54474 101.08677,176.8243 101.05402,176.28943C101.05402,176.28943 106.31539,176.28943 106.31539,176.28943C106.28265,176.8243 106.47913,177.54474 105.98792,177.63206C105.98792,177.63206 104.74354,177.88312 104.74354,177.88312C104.74354,177.88312 104.74354,190.15236 104.74354,190.15236C104.74354,190.15236 110.38694,190.15236 110.38694,190.15236C110.44153,189.53017 110.48519,188.98438 110.50702,188.89705C110.60526,188.34035 111.42394,188.56958 112.01338,188.52592C112.01338,188.52592 112.01338,188.52592 112.01338,188.52592M113.50883,176.28943C113.50883,176.28943 124.71925,176.28943 124.71925,176.28943C124.71925,176.28943 124.71925,180.06625 124.71925,180.06625C124.1298,180.01167 123.2893,180.27365 123.21288,179.6842C123.20197,179.61871 123.14739,179.06201 123.06007,178.01411C123.06007,178.01411 117.20925,178.01411 117.20925,178.01411C117.20925,178.01411 117.20925,183.20998 117.20925,183.20998C117.20925,183.20998 122.97274,183.20998 122.97274,183.20998C122.97274,183.20998 122.97274,184.86916 122.97274,184.86916C122.97274,184.86916 117.20925,184.86916 117.20925,184.86916C117.20925,184.86916 117.20925,190.20694 117.20925,190.20694C117.20925,190.20694 123.07098,190.20694 123.07098,190.20694C123.14739,189.23544 123.20197,188.7224 123.21288,188.65691C123.30021,188.07837 124.1298,188.34035 124.71925,188.28577C124.71925,188.28577 124.71925,191.93161 124.71925,191.93161C124.71925,191.93161 113.50883,191.93161 113.50883,191.93161C113.56342,191.40767 113.32327,190.68723 113.8363,190.58899C113.8363,190.58899 115.0807,190.33792 115.0807,190.33792C115.0807,190.33792 115.0807,177.88312 115.0807,177.88312C114.38209,177.74121 113.9673,177.66481 113.8363,177.63206C113.32327,177.55565 113.56342,176.81339 113.50883,176.28943C113.50883,176.28943 113.50883,176.28943 113.50883,176.28943M141.62766,190.70906C142.08612,190.78546 141.85687,191.46223 141.91147,191.93161C141.91147,191.93161 137.42511,191.93161 137.42511,191.93161C137.46878,191.45132 137.26138,190.82913 137.71985,190.69814C137.71985,190.69814 138.61493,190.44708 138.61493,190.44708C138.61493,190.44708 137.39236,187.29245 137.39236,187.29245C137.39236,187.29245 130.64648,187.29245 130.64648,187.29245C130.64648,187.29245 129.42392,190.44708 129.42392,190.44708C129.42392,190.44708 130.319,190.69814 130.319,190.69814C130.78836,190.78546 130.55914,191.45132 130.61371,191.93161C130.61371,191.93161 126.12737,191.93161 126.12737,191.93161C126.17104,191.46223 125.97456,190.84004 126.41119,190.70906C126.41119,190.70906 127.28443,190.44708 127.28443,190.44708C127.28443,190.44708 132.94968,176.28943 132.94968,176.28943C132.94968,176.28943 135.10007,176.28943 135.10007,176.28943C135.10007,176.28943 140.75439,190.44708 140.75439,190.44708C140.75439,190.44708 141.62766,190.70906 141.62766,190.70906M131.23593,185.76425C131.23593,185.76425 136.80292,185.76425 136.80292,185.76425C136.80292,185.76425 134.4888,179.76062 134.4888,179.76062C134.32504,179.36766 134.17224,178.87645 134.01941,178.287C133.21164,181.05959 132.17465,183.17723 131.23593,185.76425C131.23593,185.76425 131.23593,185.76425 131.23593,185.76425M155.6434,188.43858C155.61066,188.12204 155.58881,187.77274 155.58881,187.36885C155.58881,187.36885 155.58881,177.88312 155.58881,177.88312C154.7374,177.74121 154.25711,177.65388 154.13702,177.63206C153.62402,177.55565 153.86414,176.81339 153.80957,176.28943C153.80957,176.28943 159.02725,176.28943 159.02725,176.28943C158.97269,176.81339 159.21283,177.5229 158.68887,177.63206C158.68887,177.63206 157.44449,177.88312 157.44449,177.88312C157.44449,177.88312 157.44449,191.93161 157.44449,191.93161C156.68039,191.89886 156.00363,192.05168 155.62158,191.54956C155.62158,191.54956 146.57248,179.77153 146.57248,179.77153C146.60519,180.14267 146.61612,180.48105 146.61612,180.7867C146.61612,180.7867 146.61612,190.33792 146.61612,190.33792C147.47845,190.47983 147.95877,190.56715 148.0679,190.58899C148.58096,190.66539 148.34082,191.40767 148.39539,191.93161C148.39539,191.93161 143.1886,191.93161 143.1886,191.93161C143.24319,191.40767 143.00302,190.68723 143.51605,190.58899C143.51605,190.58899 144.76047,190.33792 144.76047,190.33792C144.76047,190.33792 144.76047,177.88312 144.76047,177.88312C144.06186,177.74121 143.64706,177.66481 143.51605,177.63206C143.00302,177.55565 143.24319,176.81339 143.1886,176.28943C143.1886,176.28943 145.85202,176.28943 145.85202,176.28943C146.29956,176.30034 146.36508,176.36583 146.58337,176.64964C146.58337,176.64964 155.6434,188.43858 155.6434,188.43858M172.27893,190.2506C174.82227,190.2506 176.39413,188.40584 176.39413,185.797C176.39413,185.797 176.39413,177.88312 176.39413,177.88312C175.54272,177.74121 175.06241,177.65388 174.95325,177.63206C174.4184,177.56656 174.66946,176.81339 174.61487,176.28943C174.61487,176.28943 180.08365,176.28943 180.08365,176.28943C180.02905,176.81339 180.2692,177.5229 179.74527,177.63206C179.74527,177.63206 178.50085,177.88312 178.50085,177.88312C178.50085,177.88312 178.50085,185.797 178.50085,185.797C178.55542,189.47559 175.96841,192.11719 172.27893,192.11719C168.60031,192.11719 166.04605,189.47559 166.04605,185.797C166.04605,185.797 166.04605,177.88312 166.04605,177.88312C165.34744,177.74121 164.93265,177.66481 164.80167,177.63206C164.28864,177.55565 164.52878,176.81339 164.47421,176.28943C164.47421,176.28943 169.94296,176.28943 169.94296,176.28943C169.88837,176.81339 170.12854,177.56656 169.60458,177.63206C169.49542,177.65388 169.01511,177.74121 168.15277,177.88312C168.15277,177.88312 168.15277,185.78609 168.15277,185.78609C168.12003,188.38402 169.74646,190.2506 172.27893,190.2506C172.27893,190.2506 172.27893,190.2506 172.27893,190.2506M187.0806,176.28943C190.6282,176.24576 192.95325,177.94861 192.90958,181.136C192.86594,184.33429 190.46448,186.13538 187.0806,186.08081C187.0806,186.08081 184.86472,186.08081 184.86472,186.08081C184.86472,186.08081 184.86472,190.33792 184.86472,190.33792C184.86472,190.33792 186.1091,190.58899 186.1091,190.58899C186.62213,190.66539 186.38199,191.40767 186.43655,191.93161C186.43655,191.93161 181.18613,191.93161 181.18613,191.93161C181.24069,191.40767 181.00055,190.68723 181.51361,190.58899C181.51361,190.58899 182.758,190.33792 182.758,190.33792C182.758,190.33792 182.758,177.88312 182.758,177.88312C182.05939,177.74121 181.64459,177.66481 181.51361,177.63206C181.00055,177.55565 181.24069,176.81339 181.18613,176.28943C181.18613,176.28943 187.0806,176.28943 187.0806,176.28943C187.0806,176.28943 187.0806,176.28943 187.0806,176.28943M187.0806,184.39978C189.29651,184.43253 190.79193,183.22089 190.79193,181.136C190.79193,178.99652 189.39471,177.92677 187.0806,177.95952C187.0806,177.95952 184.86472,177.95952 184.86472,177.95952C184.86472,177.95952 184.86472,184.39978 184.86472,184.39978C184.86472,184.39978 187.0806,184.39978 187.0806,184.39978C187.0806,184.39978 187.0806,184.39978 187.0806,184.39978" style="pointer-events:inherit"/><rect id="svg_21" x="7.933593517445573" y="176.11328051073502" width="184.9766002673204" height="16.00390882846289" fill="#000000" opacity="0" style="pointer-events:inherit"/></g><g type="text" text="OCEAN" font-size="51.254184396172356" font-family="Freshman" fill="ffffff" text-anchor="start" font-weight="normal" font-style="normal" lineHeight="1" shapeId="0" shapeVal="0" fill-opacity="1" display="null" elemBBoxWidth="189.78515625" stroke="null" stroke-dasharray="none" id="svg_6" style="pointer-events:inherit"><path fill="#ffffff" stroke-width="0" d="M7.93439085144043,60.94331170288086 C7.93439085144043,60.94331170288086 14.76828085144043,54.10942170288086 14.76828085144043,54.10942170288086 C14.76828085144043,54.10942170288086 33.56148085144043,54.10942170288086 33.56148085144043,54.10942170288086 C33.56148085144043,54.10942170288086 40.39537085144043,60.94331170288086 40.39537085144043,60.94331170288086 C40.39537085144043,60.94331170288086 40.39537085144043,89.98735170288086 40.39537085144043,89.98735170288086 C40.39537085144043,89.98735170288086 33.56148085144043,96.82125170288086 33.56148085144043,96.82125170288086 C33.56148085144043,96.82125170288086 14.76828085144043,96.82125170288086 14.76828085144043,96.82125170288086 C14.76828085144043,96.82125170288086 7.93439085144043,89.98735170288086 7.93439085144043,89.98735170288086 C7.93439085144043,89.98735170288086 7.93439085144043,60.94331170288086 7.93439085144043,60.94331170288086 C7.93439085144043,60.94331170288086 7.93439085144043,60.94331170288086 7.93439085144043,60.94331170288086 M28.72081085144043,65.07212170288086 C27.72420085144043,62.936531702880856 23.88013085144043,63.79077170288086 21.03268085144043,63.64840170288086 C21.03268085144043,63.64840170288086 19.75132085144043,65.07212170288086 19.75132085144043,65.07212170288086 C19.75132085144043,65.07212170288086 19.75132085144043,85.85854170288086 19.75132085144043,85.85854170288086 C20.74793085144043,87.85176170288085 24.59200085144043,86.99752170288086 27.29708085144043,87.13990170288086 C27.29708085144043,87.13990170288086 28.72081085144043,85.85854170288086 28.72081085144043,85.85854170288086 C28.72081085144043,85.85854170288086 28.72081085144043,65.07212170288086 28.72081085144043,65.07212170288086 C28.72081085144043,65.07212170288086 28.72081085144043,65.07212170288086 28.72081085144043,65.07212170288086 M75.84618085144044,70.48229170288086 C75.84618085144044,70.48229170288086 64.17162085144042,70.48229170288086 64.17162085144042,70.48229170288086 C64.17162085144042,67.77721170288086 64.74111085144042,64.50263170288086 62.74789085144043,63.64840170288086 C59.90044085144043,63.79077170288086 56.05637085144043,62.936531702880856 55.20213085144043,65.07212170288086 C55.20213085144043,65.07212170288086 55.20213085144043,85.85854170288086 55.20213085144043,85.85854170288086 C56.19875085144043,87.85176170288085 60.04281085144043,86.99752170288086 62.74789085144043,87.13990170288086 C64.59874085144043,86.42803170288086 64.17162085144042,83.29583170288086 64.17162085144042,80.73312170288085 C64.17162085144042,80.73312170288085 75.84618085144044,80.73312170288085 75.84618085144044,80.73312170288085 C75.84618085144044,80.73312170288085 75.84618085144044,89.98735170288086 75.84618085144044,89.98735170288086 C75.84618085144044,89.98735170288086 69.01229085144044,96.82125170288086 69.01229085144044,96.82125170288086 C69.01229085144044,96.82125170288086 50.21909085144043,96.82125170288086 50.21909085144043,96.82125170288086 C50.21909085144043,96.82125170288086 43.38520085144043,89.98735170288086 43.38520085144043,89.98735170288086 C43.38520085144043,89.98735170288086 43.38520085144043,60.94331170288086 43.38520085144043,60.94331170288086 C43.38520085144043,60.94331170288086 50.21909085144043,54.10942170288086 50.21909085144043,54.10942170288086 C50.21909085144043,54.10942170288086 69.01229085144044,54.10942170288086 69.01229085144044,54.10942170288086 C69.01229085144044,54.10942170288086 75.84618085144044,60.94331170288086 75.84618085144044,60.94331170288086 C75.84618085144044,60.94331170288086 75.84618085144044,70.48229170288086 75.84618085144044,70.48229170288086 C75.84618085144044,70.48229170288086 75.84618085144044,70.48229170288086 75.84618085144044,70.48229170288086 M93.21565085144043,87.13990170288086 C93.21565085144043,87.13990170288086 100.61903085144043,87.13990170288086 100.61903085144043,87.13990170288086 C100.61903085144043,87.13990170288086 100.61903085144043,85.43143170288086 100.61903085144043,85.43143170288086 C100.61903085144043,85.43143170288086 110.30038085144042,85.43143170288086 110.30038085144042,85.43143170288086 C110.30038085144042,85.43143170288086 110.30038085144042,96.82125170288086 110.30038085144042,96.82125170288086 C110.30038085144042,96.82125170288086 78.83601085144042,96.82125170288086 78.83601085144042,96.82125170288086 C78.83601085144042,96.82125170288086 78.83601085144042,87.13990170288086 78.83601085144042,87.13990170288086 C78.83601085144042,87.13990170288086 81.39872085144043,87.13990170288086 81.39872085144043,87.13990170288086 C81.39872085144043,87.13990170288086 81.39872085144043,63.64840170288086 81.39872085144043,63.64840170288086 C81.39872085144043,63.64840170288086 78.83601085144042,63.64840170288086 78.83601085144042,63.64840170288086 C78.83601085144042,63.64840170288086 78.83601085144042,54.10942170288086 78.83601085144042,54.10942170288086 C78.83601085144042,54.10942170288086 110.30038085144042,54.10942170288086 110.30038085144042,54.10942170288086 C110.30038085144042,54.10942170288086 110.30038085144042,65.35687170288085 110.30038085144042,65.35687170288085 C110.30038085144042,65.35687170288085 100.61903085144043,65.35687170288085 100.61903085144043,65.35687170288085 C100.61903085144043,65.35687170288085 100.61903085144043,63.64840170288086 100.61903085144043,63.64840170288086 C100.61903085144043,63.64840170288086 93.21565085144043,63.64840170288086 93.21565085144043,63.64840170288086 C93.21565085144043,63.64840170288086 93.21565085144043,70.62466170288086 93.21565085144043,70.62466170288086 C93.21565085144043,70.62466170288086 94.92413085144042,70.62466170288086 94.92413085144042,70.62466170288086 C94.92413085144042,70.62466170288086 94.92413085144042,69.05856170288087 94.92413085144042,69.05856170288087 C94.92413085144042,69.05856170288087 104.46310085144043,69.05856170288087 104.46310085144043,69.05856170288087 C104.46310085144043,69.05856170288087 104.46310085144043,82.01448170288086 104.46310085144043,82.01448170288086 C104.46310085144043,82.01448170288086 94.92413085144042,82.01448170288086 94.92413085144042,82.01448170288086 C94.92413085144042,82.01448170288086 94.92413085144042,80.30601170288085 94.92413085144042,80.30601170288085 C94.92413085144042,80.30601170288085 93.21565085144043,80.30601170288085 93.21565085144043,80.30601170288085 C93.21565085144043,80.30601170288085 93.21565085144043,87.13990170288086 93.21565085144043,87.13990170288086 C93.21565085144043,87.13990170288086 93.21565085144043,87.13990170288086 93.21565085144043,87.13990170288086 M145.89357085144044,54.10942170288086 C145.89357085144044,54.10942170288086 145.89357085144044,63.64840170288086 145.89357085144044,63.64840170288086 C145.89357085144044,63.64840170288086 143.75798085144044,63.64840170288086 143.75798085144044,63.64840170288086 C143.75798085144044,63.64840170288086 153.01221085144044,87.13990170288086 153.01221085144044,87.13990170288086 C153.01221085144044,87.13990170288086 155.57491085144042,87.13990170288086 155.57491085144042,87.13990170288086 C155.57491085144042,87.13990170288086 155.57491085144042,96.82125170288086 155.57491085144042,96.82125170288086 C155.57491085144042,96.82125170288086 139.20204085144042,96.82125170288086 139.20204085144042,96.82125170288086 C139.20204085144042,96.82125170288086 139.20204085144042,87.13990170288086 139.20204085144042,87.13990170288086 C139.20204085144042,87.13990170288086 140.62578085144042,87.13990170288086 140.62578085144042,87.13990170288086 C140.62578085144042,87.13990170288086 140.05629085144042,85.28905170288085 140.05629085144042,85.28905170288085 C140.05629085144042,85.28905170288085 128.66647085144044,85.28905170288085 128.66647085144044,85.28905170288085 C128.66647085144044,85.28905170288085 127.95461085144044,87.13990170288086 127.95461085144044,87.13990170288086 C127.95461085144044,87.13990170288086 129.3783308514404,87.13990170288086 129.3783308514404,87.13990170288086 C129.3783308514404,87.13990170288086 129.3783308514404,96.82125170288086 129.3783308514404,96.82125170288086 C129.3783308514404,96.82125170288086 113.00546085144043,96.82125170288086 113.00546085144043,96.82125170288086 C113.00546085144043,96.82125170288086 113.00546085144043,87.13990170288086 113.00546085144043,87.13990170288086 C113.00546085144043,87.13990170288086 115.56818085144043,87.13990170288086 115.56818085144043,87.13990170288086 C115.56818085144043,87.13990170288086 124.96478085144042,63.64840170288086 124.96478085144042,63.64840170288086 C124.96478085144042,63.64840170288086 123.11393085144043,63.64840170288086 123.11393085144043,63.64840170288086 C123.11393085144043,63.64840170288086 123.11393085144043,54.10942170288086 123.11393085144043,54.10942170288086 C123.11393085144043,54.10942170288086 145.89357085144044,54.10942170288086 145.89357085144044,54.10942170288086 C145.89357085144044,54.10942170288086 145.89357085144044,54.10942170288086 145.89357085144044,54.10942170288086 M131.65630085144045,77.03143170288087 C131.65630085144045,77.03143170288087 137.06645085144044,77.03143170288087 137.06645085144044,77.03143170288087 C137.06645085144044,77.03143170288087 134.36137085144043,70.33991170288085 134.36137085144043,70.33991170288085 C134.36137085144043,70.33991170288085 131.65630085144045,77.03143170288087 131.65630085144045,77.03143170288087 M183.47997085144044,96.82125170288086 C183.47997085144044,96.82125170288086 172.09015085144043,77.74330170288086 172.09015085144043,77.74330170288086 C172.09015085144043,77.74330170288086 172.09015085144043,87.13990170288086 172.09015085144043,87.13990170288086 C172.09015085144043,87.13990170288086 174.65286085144044,87.13990170288086 174.65286085144044,87.13990170288086 C174.65286085144044,87.13990170288086 174.65286085144044,96.82125170288086 174.65286085144044,96.82125170288086 C174.65286085144044,96.82125170288086 157.71051085144043,96.82125170288086 157.71051085144043,96.82125170288086 C157.71051085144043,96.82125170288086 157.71051085144043,87.13990170288086 157.71051085144043,87.13990170288086 C157.71051085144043,87.13990170288086 160.27321085144044,87.13990170288086 160.27321085144044,87.13990170288086 C160.27321085144044,87.13990170288086 160.27321085144044,63.64840170288086 160.27321085144044,63.64840170288086 C160.27321085144044,63.64840170288086 157.71051085144043,63.64840170288086 157.71051085144043,63.64840170288086 C157.71051085144043,63.64840170288086 157.71051085144043,54.10942170288086 157.71051085144043,54.10942170288086 C157.71051085144043,54.10942170288086 171.66303085144042,54.10942170288086 171.66303085144042,54.10942170288086 C171.66303085144042,54.10942170288086 183.33760085144044,73.61449170288085 183.33760085144044,73.61449170288085 C183.33760085144044,73.61449170288085 183.33760085144044,63.64840170288086 183.33760085144044,63.64840170288086 C183.33760085144044,63.64840170288086 180.77489085144043,63.64840170288086 180.77489085144043,63.64840170288086 C180.77489085144043,63.64840170288086 180.77489085144043,54.10942170288086 180.77489085144043,54.10942170288086 C180.77489085144043,54.10942170288086 197.71724085144044,54.10942170288086 197.71724085144044,54.10942170288086 C197.71724085144044,54.10942170288086 197.71724085144044,63.64840170288086 197.71724085144044,63.64840170288086 C197.71724085144044,63.64840170288086 195.15453085144043,63.64840170288086 195.15453085144043,63.64840170288086 C195.15453085144043,63.64840170288086 195.15453085144043,87.13990170288086 195.15453085144043,87.13990170288086 C195.15453085144043,87.13990170288086 197.71724085144044,87.13990170288086 197.71724085144044,87.13990170288086 C197.71724085144044,87.13990170288086 197.71724085144044,96.82125170288086 197.71724085144044,96.82125170288086 C197.71724085144044,96.82125170288086 183.47997085144044,96.82125170288086 183.47997085144044,96.82125170288086 C183.47997085144044,96.82125170288086 183.47997085144044,96.82125170288086 183.47997085144044,96.82125170288086 " id="svg_7" style="pointer-events:inherit"/><rect x="7.934374809265137" y="54.109375" width="189.78125" height="42.7109375" fill="#000000" opacity="0" id="svg_8" style="pointer-events:inherit"/></g><g type="text" text="SIDE" font-size="78.40007618916708" font-family="Freshman" fill="ffffff" text-anchor="start" font-weight="normal" font-style="normal" lineHeight="1" shapeId="0" shapeVal="0" fill-opacity="1" display="null" elemBBoxWidth="187.7265625" stroke="null" stroke-dasharray="none" id="svg_13" style="pointer-events:inherit"><path fill="#ffffff" stroke-width="0" d="M37.55141,144.1806C37.55141,144.1806 18.38695,144.1806 18.38695,144.1806C18.38695,144.1806 7.9336,133.94503 7.9336,133.94503C7.9336,133.94503 7.9336,114.56279 7.9336,114.56279C7.9336,114.56279 18.38695,104.10945 18.38695,104.10945C18.38695,104.10945 47.13364,104.10945 47.13364,104.10945C47.13364,104.10945 57.58698,114.56279 57.58698,114.56279C57.58698,114.56279 57.58698,127.41169 57.58698,127.41169C57.58698,127.41169 39.72919,127.41169 39.72919,127.41169C39.94697,123.70947 40.16475,119.78946 37.55141,118.70057C33.19585,118.91835 27.31584,117.61168 26.00918,120.87835C26.00918,124.58058 25.57362,128.2828 27.96918,129.58947C27.96918,129.58947 47.13364,129.58947 47.13364,129.58947C47.13364,129.58947 57.58698,140.04282 57.58698,140.04282C57.58698,140.04282 57.58698,158.9895 57.58698,158.9895C57.58698,158.9895 47.13364,169.44285 47.13364,169.44285C47.13364,169.44285 18.38695,169.44285 18.38695,169.44285C18.38695,169.44285 7.9336,158.9895 7.9336,158.9895C7.9336,158.9895 7.9336,146.57616 7.9336,146.57616C7.9336,146.57616 26.00918,146.57616 26.00918,146.57616C26.00918,150.0606 25.57362,153.54505 27.96918,154.63394C32.32474,154.41616 38.20474,155.72283 39.72919,152.67394C39.94697,148.97171 39.94697,145.26949 37.55141,144.1806C37.55141,144.1806 37.55141,144.1806 37.55141,144.1806M87.85812,169.44285C87.85812,169.44285 61.94254,169.44285 61.94254,169.44285C61.94254,169.44285 61.94254,154.63394 61.94254,154.63394C61.94254,154.63394 65.86255,154.63394 65.86255,154.63394C65.86255,154.63394 65.86255,118.70057 65.86255,118.70057C65.86255,118.70057 61.94254,118.70057 61.94254,118.70057C61.94254,118.70057 61.94254,104.10945 61.94254,104.10945C61.94254,104.10945 87.85812,104.10945 87.85812,104.10945C87.85812,104.10945 87.85812,118.70057 87.85812,118.70057C87.85812,118.70057 83.93812,118.70057 83.93812,118.70057C83.93812,118.70057 83.93812,154.63394 83.93812,154.63394C83.93812,154.63394 87.85812,154.63394 87.85812,154.63394C87.85812,154.63394 87.85812,169.44285 87.85812,169.44285C87.85812,169.44285 87.85812,169.44285 87.85812,169.44285M91.99591,104.10945C91.99591,104.10945 132.50261,104.10945 132.50261,104.10945C132.50261,104.10945 142.95596,114.56279 142.95596,114.56279C142.95596,114.56279 142.95596,158.9895 142.95596,158.9895C142.95596,158.9895 132.50261,169.44285 132.50261,169.44285C132.50261,169.44285 91.99591,169.44285 91.99591,169.44285C91.99591,169.44285 91.99591,154.63394 91.99591,154.63394C91.99591,154.63394 95.91591,154.63394 95.91591,154.63394C95.91591,154.63394 95.91591,118.70057 95.91591,118.70057C95.91591,118.70057 91.99591,118.70057 91.99591,118.70057C91.99591,118.70057 91.99591,104.10945 91.99591,104.10945C91.99591,104.10945 91.99591,104.10945 91.99591,104.10945M113.99148,154.63394C118.12927,154.41616 123.57372,155.72283 124.88038,152.67394C124.88038,152.67394 124.88038,120.87835 124.88038,120.87835C123.57372,117.82946 118.12927,118.91835 113.99148,118.70057C113.99148,118.70057 113.99148,154.63394 113.99148,154.63394C113.99148,154.63394 113.99148,154.63394 113.99148,154.63394M169.52487,154.63394C169.52487,154.63394 180.84933,154.63394 180.84933,154.63394C180.84933,154.63394 180.84933,152.02061 180.84933,152.02061C180.84933,152.02061 195.65823,152.02061 195.65823,152.02061C195.65823,152.02061 195.65823,169.44285 195.65823,169.44285C195.65823,169.44285 147.5293,169.44285 147.5293,169.44285C147.5293,169.44285 147.5293,154.63394 147.5293,154.63394C147.5293,154.63394 151.4493,154.63394 151.4493,154.63394C151.4493,154.63394 151.4493,118.70057 151.4493,118.70057C151.4493,118.70057 147.5293,118.70057 147.5293,118.70057C147.5293,118.70057 147.5293,104.10945 147.5293,104.10945C147.5293,104.10945 195.65823,104.10945 195.65823,104.10945C195.65823,104.10945 195.65823,121.31391 195.65823,121.31391C195.65823,121.31391 180.84933,121.31391 180.84933,121.31391C180.84933,121.31391 180.84933,118.70057 180.84933,118.70057C180.84933,118.70057 169.52487,118.70057 169.52487,118.70057C169.52487,118.70057 169.52487,129.37169 169.52487,129.37169C169.52487,129.37169 172.13821,129.37169 172.13821,129.37169C172.13821,129.37169 172.13821,126.97614 172.13821,126.97614C172.13821,126.97614 186.72933,126.97614 186.72933,126.97614C186.72933,126.97614 186.72933,146.79393 186.72933,146.79393C186.72933,146.79393 172.13821,146.79393 172.13821,146.79393C172.13821,146.79393 172.13821,144.1806 172.13821,144.1806C172.13821,144.1806 169.52487,144.1806 169.52487,144.1806C169.52487,144.1806 169.52487,154.63394 169.52487,154.63394C169.52487,154.63394 169.52487,154.63394 169.52487,154.63394" id="svg_14" style="pointer-events:inherit"/><rect x="7.933593861293048" y="104.10937453620136" width="187.72656163293868" height="65.33204611670226" fill="#000000" opacity="0" id="svg_15" style="pointer-events:inherit"/></g><line x1="8.933595633874397" y1="197.925" x2="193.77852377034236" y2="197.925" stroke="#ffffff" stroke-width="2" id="svg_22" fill="none" display="null" fill-opacity="1" stroke-opacity="1" style="pointer-events:inherit"/><g id="svg_23" type="text" text="The Life Assembly" font-size="26.850755968671717" font-family="Alex Brush" fill="ffffff" text-anchor="start" font-weight="normal" font-style="normal" lineHeight="1" shapeId="0" shapeVal="0" fill-opacity="1" display="null" elemBBoxWidth="179.6015625" stroke="null" stroke-dasharray="none" style="pointer-events:inherit"><path id="svg_26" fill="#ffffff" stroke-width="0" d="M15.17807,226.56613C12.24133,226.57925 11.38915,224.95355 11.38915,222.05615C11.38915,220.12892 11.96601,218.2148 13.10662,216.31378C11.78246,215.47472 11.12694,214.22922 11.12694,212.5773C11.12694,210.59763 12.01845,208.84084 13.76214,207.28069C16.68577,204.64549 21.30064,204.08174 25.99418,205.30101C26.37438,205.39279 27.97385,206.08763 30.80571,207.38557C33.63756,208.6835 35.66968,209.32591 36.90206,209.32591C38.01645,209.33902 38.93417,208.84084 39.07839,207.88377C39.13084,207.51668 38.59331,207.08403 38.54086,206.80872C38.54086,206.75627 38.59331,206.71693 38.68508,206.71693C38.98662,206.80872 39.62903,207.70023 39.56348,208.29019C39.44548,209.32591 37.93779,210.07321 36.5743,210.07321C35.22393,210.07321 33.13937,209.41769 30.32062,208.11975C27.50188,206.82182 25.73197,206.08763 24.99778,205.96965C20.31736,205.22235 16.25312,206.46783 13.76214,209.35214C13.25083,209.94211 12.35932,212.06599 12.35932,213.3246C12.35932,214.36032 12.72642,215.17317 13.4606,215.75003C14.98141,213.49504 17.40684,211.29248 20.63201,211.29248C22.24459,211.29248 23.04433,211.92178 23.04433,213.16727C23.04433,214.67497 22.15282,216.30067 20.39602,218.05746C18.63922,219.81427 17.01353,220.70578 15.50583,220.70578C14.19478,220.70578 13.72281,219.63072 14.28656,218.71298C14.43077,218.49011 14.61432,218.42456 14.82409,218.47701C14.82409,218.47701 14.77164,219.10631 14.77164,219.10631C14.73231,219.38162 15.26984,219.49962 16.01714,219.49962C18.45568,219.49962 21.90372,215.99913 22.32326,213.9408C22.55924,212.77396 22.24459,212.01355 20.89422,212.01355C19.8716,212.01355 18.79655,212.40686 17.69527,213.1935C16.59399,213.98012 15.55827,215.01584 14.5881,216.31378C14.65365,216.3531 14.92897,216.45799 15.42717,216.52354C16.16135,216.61531 18.06236,216.51044 18.21969,216.8382C18.27213,217.12662 17.61661,217.2184 16.92175,217.2184C15.83359,217.2184 14.92897,217.0873 14.23412,216.81198C12.85752,218.92276 12.17578,220.87621 12.17578,222.64612C12.17578,224.94044 13.05418,226.08105 14.82409,226.08105C16.82998,226.08105 19.1112,224.83556 21.09088,221.88571C21.09088,221.88571 26.34816,214.04567 26.34816,214.04567C28.31472,211.17448 30.01908,209.71922 31.47434,209.65367C31.47434,209.65367 32.49696,209.88966 32.49696,209.88966C32.82471,210.0601 32.98204,210.33542 32.98204,210.68941C32.98204,211.54158 32.35274,211.09583 31.85454,211.09583C30.62216,211.09583 29.00958,212.40686 27.09545,215.09451C27.09545,215.09451 21.75951,222.56746 21.75951,222.56746C19.46518,225.22887 17.27574,226.56613 15.17807,226.56613C15.17807,226.56613 15.17807,226.56613 15.17807,226.56613M27.6592,223.98338C26.61037,223.93094 26.7808,223.43274 27.20034,222.67233C28.94403,219.57828 30.24196,217.31017 31.14658,215.88113C33.37535,212.39375 34.67329,210.59763 35.76145,210.29608C35.99744,210.29608 36.15477,210.47963 36.24654,210.85983C36.1941,211.24004 35.27637,212.60353 33.45402,214.93718C31.59233,217.32329 30.50417,218.87032 30.25507,219.60449C31.94632,218.47701 35.73523,215.43538 37.24293,215.31738C37.85912,215.26494 38.16066,215.5927 38.082,216.13023C38.06889,216.15645 37.4527,216.99551 36.22032,218.66054C34.98793,220.32558 34.37175,221.55795 34.37175,222.34457C34.37175,222.75101 34.52907,222.96077 34.83061,222.96077C35.80078,222.96077 37.22982,221.75461 39.17017,219.47339C39.31438,219.30296 39.44548,219.23741 39.52415,219.23741C39.60281,219.23741 39.65525,219.28984 39.65525,219.39473C39.65525,219.74872 38.77685,220.71889 36.99383,222.29213C35.89256,223.26231 35.13215,223.74739 34.73884,223.74739C33.69,223.74739 33.16558,223.13121 33.16558,221.91193C33.16558,221.19086 33.41468,220.41734 33.89977,219.56517C33.89977,219.56517 35.70901,216.57599 35.70901,216.57599C33.41468,217.7166 31.25146,219.34229 29.48155,221.64972C28.34095,223.13121 27.82964,223.98338 27.6592,223.98338C27.6592,223.98338 27.6592,223.98338 27.6592,223.98338M39.83879,224.20625C38.48843,224.20625 37.58381,223.27542 37.58381,222.18726C37.58381,220.94176 38.37043,219.49962 39.94368,217.8477C41.51693,216.19579 42.94597,215.36983 44.19146,215.36983C44.93876,215.36983 45.59428,215.8418 45.59428,216.52354C45.59428,217.53305 44.86009,218.51633 43.32618,219.39473C41.60871,220.37801 40.58609,220.90244 39.24883,220.70578C38.60642,221.7415 38.61953,223.64252 40.19278,223.64252C41.07118,223.64252 42.19867,223.01321 43.62771,221.83327C44.70277,220.94176 45.65983,220.03714 46.42024,219.04074C46.59067,218.83098 46.72178,218.71298 46.83977,218.71298C47.18064,218.79166 46.9971,219.08008 46.80044,219.34229C45.84338,220.62711 44.66344,221.7415 43.29995,222.72478C41.93647,223.70807 40.79586,224.20625 39.83879,224.20625C39.83879,224.20625 39.83879,224.20625 39.83879,224.20625M39.65525,220.1158C40.7172,220.31245 41.41205,219.89293 42.7362,219.08008C43.9948,218.30656 44.65033,217.55927 44.92564,216.4711C44.92564,216.24823 44.70277,216.14334 44.2439,216.14334C43.78504,216.14334 43.12952,216.49733 42.29045,217.19218C41.16295,218.12302 40.28455,219.09319 39.65525,220.1158C39.65525,220.1158 39.65525,220.1158 39.65525,220.1158M52.72636,225.1371C51.34976,225.1371 50.87778,224.2718 50.75979,222.88211C50.6418,221.38751 52.97546,216.8382 53.98496,216.8382C54.31272,216.8382 54.70603,217.19218 55.08624,217.93947C55.08624,217.93947 56.77748,221.21709 56.77748,221.21709C56.77748,221.21709 59.75355,217.11351 59.75355,217.11351C58.28518,216.44489 57.551,215.48782 57.551,214.24232C57.551,212.74774 58.71782,211.20071 60.30419,211.20071C60.82861,211.20071 61.22192,211.48914 61.49724,212.03978C61.5759,212.1971 61.51035,212.27576 61.41858,212.24954C61.03837,211.88245 60.68439,211.71202 60.21241,211.71202C59.20291,211.71202 58.28518,213.18039 58.28518,214.24232C58.28518,215.17317 58.92759,215.95979 60.21241,216.62843C60.21241,216.62843 62.36253,213.4557 62.36253,213.4557C65.92857,208.22464 68.89153,205.61566 71.2514,205.61566C72.91643,205.61566 73.74239,206.40228 73.74239,207.96243C73.74239,209.37836 73.0082,211.01717 71.68404,212.9575C69.9928,215.44849 66.08589,217.93947 62.46741,217.93947C61.91677,217.93947 61.45791,217.87392 61.0777,217.75592C61.0777,217.75592 57.44611,222.29213 57.44611,222.29213C58.37696,223.85228 62.67718,226.0024 65.07639,226.0024C66.25632,226.0024 67.12161,225.83195 67.69847,225.5173C68.4851,225.09776 68.8522,224.5078 68.89153,223.74739C68.90463,223.44586 68.64243,222.93456 69.00951,222.90833C69.32417,222.88211 69.58638,223.66873 69.58638,223.98338C69.58638,224.61269 69.25861,225.20265 68.58998,225.7533C67.75092,226.43503 66.61031,226.77591 65.15505,226.77591C61.83811,226.77591 58.4425,225.0191 56.8037,222.98698C55.37466,224.41603 54.01118,225.1371 52.72636,225.1371C52.72636,225.1371 52.72636,225.1371 52.72636,225.1371M51.80863,222.84277C51.82174,224.95355 53.23766,224.61269 54.45694,223.69495C55.09935,223.20987 55.66309,222.68546 56.10885,222.1086C55.49266,221.38751 54.33894,218.81787 53.82763,218.18857C53.63098,217.95258 53.63098,217.88702 53.42121,217.91325C53.09345,217.95258 52.75257,218.54256 52.37238,219.63072C51.99217,220.71889 51.80863,221.79395 51.80863,222.84277C51.80863,222.84277 51.80863,222.84277 51.80863,222.84277M72.83776,207.52979C72.85088,206.63828 72.30023,206.07452 71.35629,206.07452C70.46478,206.07452 69.35039,206.82182 68.02624,208.32953C66.19077,210.41408 63.29337,214.93718 61.49724,217.16595C63.35892,217.44127 64.60441,216.94308 66.57098,215.95979C68.19667,215.13383 69.45527,214.01945 70.38611,212.7084C72.0118,210.42719 72.82465,208.70973 72.83776,207.52979C72.83776,207.52979 72.83776,207.52979 72.83776,207.52979M67.93446,222.3708C67.79025,220.94176 70.81876,215.77625 72.07736,215.77625C72.3789,215.77625 73.03442,216.13023 73.0082,216.41866C71.90692,217.88702 68.94397,221.3613 68.95708,222.63301C68.95708,223.28853 69.17995,223.61629 69.62571,223.61629C70.00591,223.61629 70.5041,223.39342 71.15963,222.98698C72.65422,222.05615 73.84727,221.04665 74.72567,219.93225C75.05343,219.52583 75.27631,219.31607 75.39429,219.31607C75.5123,219.31607 75.56474,219.38162 75.56474,219.52583C74.75189,220.83688 73.15241,222.29213 71.88071,223.22298C71.15963,223.7605 70.47788,224.15382 69.31106,224.15382C68.40644,224.15382 68.05246,223.55074 67.93446,222.3708C67.93446,222.3708 67.93446,222.3708 67.93446,222.3708M74.21436,214.60942C73.71616,214.60942 73.15241,214.13745 73.15241,213.65236C73.15241,213.15416 73.49329,212.90506 74.16191,212.89195C74.647,212.87885 75.28942,213.27216 75.28942,213.75725C75.28942,214.22922 74.69944,214.60942 74.21436,214.60942C74.21436,214.60942 74.21436,214.60942 74.21436,214.60942M75.39429,215.80247C75.39429,215.48782 75.84006,215.14694 76.08915,215.14694C76.08915,215.14694 78.61947,215.21249 78.61947,215.21249C80.37627,211.3187 81.98885,209.36525 83.44411,209.35214C83.99474,209.35214 84.53227,209.65367 85.13536,210.16498C85.64666,210.59763 85.13536,212.17088 84.59783,211.34492C84.41428,211.0696 84.17829,210.91228 83.79809,210.91228C82.97214,210.91228 82.21173,211.50224 81.49065,212.68219C81.34644,212.91817 80.90068,213.75725 80.14027,215.21249C80.14027,215.21249 80.46804,215.21249 80.46804,215.21249C82.42149,215.21249 83.71943,215.18628 84.36183,215.12073C84.42739,215.13383 84.46672,215.17317 84.46672,215.23872C84.46672,215.38293 83.83743,215.60582 82.56571,215.82869C82.56571,215.82869 79.60275,216.34 79.60275,216.34C79.60275,216.34 77.59685,220.41734 77.59685,220.41734C75.98427,223.41963 74.92233,225.29443 74.39791,226.02861C72.83776,228.24428 71.31696,229.35866 69.83547,229.35866C68.81286,229.35866 67.81647,228.23117 67.86891,227.23477C67.88202,226.93323 68.15734,226.73657 68.22289,227.10367C68.354,227.85097 68.83908,228.54581 69.53394,228.54581C71.05475,228.54581 72.41823,227.58875 73.70306,225.72707C74.72567,224.24559 76.96755,219.25052 78.08194,216.44489C76.2858,216.43178 75.39429,216.20889 75.39429,215.80247C75.39429,215.80247 75.39429,215.80247 75.39429,215.80247M82.25106,224.20625C80.90068,224.20625 79.99606,223.27542 79.99606,222.18726C79.99606,220.94176 80.78269,219.49962 82.35593,217.8477C83.92919,216.19579 85.35823,215.36983 86.60372,215.36983C87.35102,215.36983 88.00654,215.8418 88.00654,216.52354C88.00654,217.53305 87.27235,218.51633 85.73843,219.39473C84.02097,220.37801 82.99835,220.90244 81.66109,220.70578C81.01868,221.7415 81.03178,223.64252 82.60504,223.64252C83.48344,223.64252 84.61094,223.01321 86.03998,221.83327C87.11503,220.94176 88.07209,220.03714 88.8325,219.04074C89.00294,218.83098 89.13404,218.71298 89.25203,218.71298C89.5929,218.79166 89.40936,219.08008 89.2127,219.34229C88.25564,220.62711 87.0757,221.7415 85.71221,222.72478C84.34872,223.70807 83.20812,224.20625 82.25106,224.20625C82.25106,224.20625 82.25106,224.20625 82.25106,224.20625M82.06751,220.1158C83.12946,220.31245 83.8243,219.89293 85.14847,219.08008C86.40707,218.30656 87.06258,217.55927 87.33791,216.4711C87.33791,216.24823 87.11503,216.14334 86.65617,216.14334C86.1973,216.14334 85.54178,216.49733 84.70271,217.19218C83.57521,218.12302 82.69681,219.09319 82.06751,220.1158C82.06751,220.1158 82.06751,220.1158 82.06751,220.1158M97.57716,226.99878C94.64042,226.99878 93.06717,225.45175 93.06717,222.72478C93.06717,221.19086 93.55225,219.55206 94.52242,217.83459C95.80724,215.54027 97.56405,213.59991 99.80593,211.97423C102.04781,210.34853 104.05371,209.53568 105.82362,209.53568C107.59353,209.53568 108.48505,210.19121 108.48505,211.50224C108.48505,213.10172 107.09534,216.01224 106.03339,216.4711C105.96783,216.49733 105.78429,216.52354 105.77118,216.44489C106.37426,215.39604 107.59353,213.7048 107.56731,212.49864C107.52798,211.12204 106.99046,210.09943 105.60075,210.09943C104.19793,210.09943 102.5329,210.88606 100.59255,212.4462C98.65221,214.00635 97.17074,215.92047 96.16123,218.18857C95.15173,220.45668 94.65353,222.22658 94.65353,223.49829C94.65353,225.41241 95.6237,226.36948 97.57716,226.38258C99.43884,226.38258 101.96915,225.17644 105.15498,222.77722C106.57092,221.71527 108.86524,219.72249 112.05108,216.78575C111.08091,216.79886 109.97963,217.12662 109.16678,217.12662C108.8128,217.12662 108.66859,217.04796 108.69481,216.87753C108.77347,216.20889 109.10123,215.88113 109.71741,215.88113C110.91047,215.88113 111.89375,216.0909 112.69349,216.0909C114.22741,214.67497 116.53485,212.35443 119.58958,209.14236C121.64792,206.97914 122.90652,205.89098 123.35227,205.89098C123.54893,205.89098 123.65382,206.04831 123.65382,206.34985C123.66692,206.87427 123.24739,208.8015 122.8672,208.94571C121.54303,210.00766 121.25461,210.78117 120.17955,212.89195C119.4978,214.22922 118.94717,215.33049 118.4883,216.16956C118.4883,216.16956 121.09728,216.11713 121.09728,216.11713C121.73969,216.11713 122.06745,216.15645 122.06745,216.24823C122.06745,216.48421 120.75641,216.69398 118.14743,216.87753C116.48241,220.14203 115.65645,222.35768 115.64334,223.52452C115.64334,224.35048 115.90554,224.7569 116.42996,224.77C116.71839,224.87489 117.54435,224.03583 117.70168,224.03583C117.76723,224.03583 117.79345,224.08827 117.79345,224.18004C117.7279,224.77 116.45618,225.30754 115.82688,225.30754C114.68628,225.30754 114.43717,224.91422 114.43717,223.69495C114.43717,221.88571 115.13203,219.57828 116.50863,216.78575C116.50863,216.78575 113.28346,216.87753 113.28346,216.87753C110.88425,219.22429 108.48505,221.28264 106.05961,223.05254C102.44113,225.68774 99.60928,226.99878 97.57716,226.99878C97.57716,226.99878 97.57716,226.99878 97.57716,226.99878M113.76855,216.06468C113.76855,216.06468 116.74461,216.0909 116.74461,216.0909C117.25592,215.08139 118.55386,212.91817 120.63841,209.62746C120.63841,209.62746 113.76855,216.06468 113.76855,216.06468M123.48338,223.90472C121.56925,223.81294 121.25461,222.55435 120.70397,220.75821C120.37621,221.08598 120.15333,221.2433 120.03533,221.2433C119.81246,221.2433 119.93044,220.8631 120.03533,220.73199C121.3726,219.11942 124.55843,216.15645 126.43323,214.39966C127.4034,213.49504 127.98026,213.03616 128.1507,213.03616C129.08154,212.97061 129.21263,213.79657 128.75377,214.30788C127.74427,215.43538 127.6525,216.06468 127.14119,218.55566C126.78721,220.28624 126.55122,221.50551 126.38078,222.18726C127.86227,222.17415 129.38307,221.19086 130.96944,219.28984C131.12677,219.10631 131.28409,219.02763 131.37585,219.02763C131.46764,219.02763 131.50697,219.06697 131.50697,219.18497C131.50697,219.30296 131.42831,219.47339 131.25787,219.67004C129.52728,221.55795 128.84555,222.35768 126.26279,222.88211C125.5286,223.39342 124.74198,223.95715 123.48338,223.90472C123.48338,223.90472 123.48338,223.90472 123.48338,223.90472M121.80524,220.16824C121.5037,221.92505 123.45716,223.14432 124.89931,222.2397C125.75148,221.70216 126.53812,217.45439 126.59055,215.93358C126.59055,215.93358 126.69544,215.01584 126.69544,215.01584C125.71215,215.75003 124.65021,216.69398 123.53582,217.86081C122.42143,219.02763 121.8708,219.80115 121.80524,220.16824C121.80524,220.16824 121.80524,220.16824 121.80524,220.16824M133.11955,223.90472C131.20543,223.81294 130.89078,222.55435 130.34013,220.75821C130.01237,221.08598 129.78951,221.2433 129.67151,221.2433C129.44862,221.2433 129.56662,220.8631 129.67151,220.73199C131.00877,219.11942 134.19461,216.15645 136.0694,214.39966C137.03957,213.49504 137.61642,213.03616 137.78687,213.03616C138.71771,212.97061 138.8488,213.79657 138.38995,214.30788C137.38043,215.43538 137.28867,216.06468 136.77736,218.55566C136.42339,220.28624 136.18739,221.50551 136.01695,222.18726C137.49844,222.17415 139.01924,221.19086 140.60561,219.28984C140.76294,219.10631 140.92026,219.02763 141.01202,219.02763C141.10381,219.02763 141.14314,219.06697 141.14314,219.18497C141.14314,219.30296 141.06447,219.47339 140.89403,219.67004C139.16347,221.55795 138.48172,222.35768 135.89896,222.88211C135.16478,223.39342 134.37816,223.95715 133.11955,223.90472C133.11955,223.90472 133.11955,223.90472 133.11955,223.90472M131.44142,220.16824C131.13988,221.92505 133.09334,223.14432 134.53548,222.2397C135.38765,221.70216 136.17429,217.45439 136.22673,215.93358C136.22673,215.93358 136.3316,215.01584 136.3316,215.01584C135.34833,215.75003 134.28638,216.69398 133.172,217.86081C132.0576,219.02763 131.50697,219.80115 131.44142,220.16824C131.44142,220.16824 131.44142,220.16824 131.44142,220.16824M141.10381,224.20625C139.75343,224.20625 138.8488,223.27542 138.8488,222.18726C138.8488,220.94176 139.63544,219.49962 141.20868,217.8477C142.78194,216.19579 144.21098,215.36983 145.45647,215.36983C146.20377,215.36983 146.85928,215.8418 146.85928,216.52354C146.85928,217.53305 146.12511,218.51633 144.59119,219.39473C142.87372,220.37801 141.8511,220.90244 140.51382,220.70578C139.87143,221.7415 139.88454,223.64252 141.45779,223.64252C142.33618,223.64252 143.46368,223.01321 144.89272,221.83327C145.96777,220.94176 146.92484,220.03714 147.68524,219.04074C147.85568,218.83098 147.98679,218.71298 148.10478,218.71298C148.44565,218.79166 148.2621,219.08008 148.06544,219.34229C147.10838,220.62711 145.92845,221.7415 144.56496,222.72478C143.20148,223.70807 142.06087,224.20625 141.10381,224.20625C141.10381,224.20625 141.10381,224.20625 141.10381,224.20625M140.92026,220.1158C141.98219,220.31245 142.67705,219.89293 144.00121,219.08008C145.25981,218.30656 145.91533,217.55927 146.19064,216.4711C146.19064,216.24823 145.96777,216.14334 145.50891,216.14334C145.05005,216.14334 144.39453,216.49733 143.55545,217.19218C142.42796,218.12302 141.54956,219.09319 140.92026,220.1158C140.92026,220.1158 140.92026,220.1158 140.92026,220.1158M147.60658,223.87849C147.16083,223.90472 146.72818,223.32787 146.7413,222.90833C146.7413,222.58057 147.21327,221.40062 148.1441,219.36852C148.1441,219.36852 146.53152,221.05975 146.53152,221.05975C146.13821,221.45306 145.90222,221.64972 145.79733,221.64972C145.52202,221.57106 145.67935,221.26952 145.8629,221.08598C147.80324,219.11942 148.19655,218.45078 150.20244,215.55338C150.50398,215.10762 151.57904,214.89786 151.57904,215.65825C151.67081,215.78935 148.41943,221.1122 148.56364,221.32196C149.6256,220.1158 155.05331,214.83229 156.22014,215.01584C156.60034,215.00273 157.08542,215.29117 157.08542,215.61893C157.19031,215.73692 154.80421,219.74872 154.90909,219.85359C156.88878,218.18857 157.88516,217.3495 157.88516,217.32329C159.57642,216.01224 160.75635,215.36983 161.51675,215.36983C161.91006,215.36983 162.40826,215.67137 162.39516,216.03845C162.39516,216.07779 161.8183,216.82509 160.65146,218.30656C159.48463,219.78804 158.81601,220.9942 158.69801,221.95126C158.60623,222.67233 158.97333,222.90833 159.74684,222.90833C160.16638,222.90833 160.79567,222.6199 161.60854,222.04303C162.42137,221.46617 163.23422,220.66644 164.0864,219.69627C164.40105,219.32918 164.63704,219.15874 164.75504,219.15874C165.10901,219.15874 164.85991,219.49962 164.67638,219.72249C163.78485,220.77133 162.85402,221.67595 161.84451,222.41013C160.83501,223.14432 160.04839,223.52452 159.47153,223.52452C158.25224,223.52452 157.64919,222.96077 157.64919,221.83327C157.64919,220.18135 159.39285,217.45439 160.29749,216.36623C158.00316,217.4675 154.26668,220.96799 153.42761,223.69495C153.09985,224.11449 152.19524,223.89162 152.32634,223.18364C152.73276,220.91554 154.34535,218.26723 155.27618,216.19579C152.61478,217.87392 150.83174,219.9978 149.0094,222.29213C148.17033,223.34097 147.71147,223.87849 147.60658,223.87849C147.60658,223.87849 147.60658,223.87849 147.60658,223.87849M174.32564,219.68317C174.11589,220.50911 173.02773,221.13841 172.3853,221.13841C171.50691,221.13841 170.79895,220.496 170.26141,219.21118C169.71078,220.48289 168.92416,221.57106 167.90154,222.4888C166.87892,223.40652 165.86942,223.87849 164.85991,223.87849C163.91597,223.87849 163.444,223.17053 163.444,221.76772C163.444,220.614 164.49281,218.52943 166.59048,215.50093C168.68816,212.47243 170.30074,210.96472 171.41513,210.96472C171.83467,210.96472 172.34598,211.29248 172.33287,211.68579C172.33287,211.68579 169.81566,214.39966 169.81566,214.39966C168.66194,215.64514 167.53445,217.02174 166.42006,218.52943C165.30568,220.03714 164.75504,221.20396 164.75504,222.02992C164.75504,222.46257 165.00414,223.15742 165.50232,223.10498C166.93137,223.28853 169.64523,219.85359 169.88121,218.56877C169.76321,218.18857 169.69768,217.7166 169.69768,217.16595C169.69768,215.94669 170.07787,215.34361 170.82516,215.34361C171.27092,215.34361 171.52002,215.55338 171.52002,216.06468C171.52002,216.70709 171.16605,218.16235 171.0087,218.67366C171.1136,219.23741 171.63802,220.54845 172.45085,220.54845C172.87038,220.54845 173.34238,220.27313 173.85367,219.69627C174.011,219.51273 174.27321,219.38162 174.32564,219.68317C174.32564,219.68317 174.32564,219.68317 174.32564,219.68317M175.4138,223.90472C174.26009,223.90472 173.28993,223.38031 173.28993,222.20036C173.28993,221.6104 173.43414,220.92865 173.74879,220.16824C174.26009,218.94897 175.09917,217.42816 176.23978,215.57959C178.33743,212.18399 179.81891,210.47963 180.69733,210.47963C181.02509,210.47963 181.5495,210.82051 181.56261,211.12204C181.56261,211.12204 179.18962,214.30788 179.18962,214.30788C178.00969,215.88113 177.17061,217.00864 176.75108,217.7166C175.89891,219.13252 174.41743,220.50911 174.41743,222.51501C174.41743,223.05254 174.71895,223.31474 175.30893,223.31474C175.89891,223.31474 176.65932,223.01321 177.59015,222.38391C178.521,221.75461 179.4256,220.90244 180.29091,219.82738C180.51376,219.53894 180.68422,219.39473 180.81531,219.39473C180.94643,219.39473 180.99887,219.44717 180.99887,219.55206C180.99887,219.65694 180.64488,220.12892 179.89758,220.95486C178.11456,222.93456 176.60687,223.90472 175.4138,223.90472C175.4138,223.90472 175.4138,223.90472 175.4138,223.90472M180.50066,229.35866C179.37317,229.37177 178.31122,228.16562 178.37679,226.97256C179.22896,228.04762 179.95003,228.57204 180.60556,228.57204C181.62816,228.57204 182.71632,227.74608 183.90938,226.1335C185.16798,224.41603 186.51836,221.55795 187.4623,219.13252C187.4623,219.13252 183.50296,222.21347 183.50296,222.21347C182.28368,223.17053 181.31352,223.64252 180.57933,223.64252C179.83205,223.64252 179.29451,223.01321 179.29451,222.31836C179.29451,221.54485 179.95003,220.28624 181.27417,218.52943C182.59833,216.77264 183.58162,215.88113 184.18469,215.88113C184.78778,215.88113 185.08932,216.0909 185.08932,216.49733C185.08932,216.65465 184.30269,217.57237 182.71632,219.26363C181.12996,220.95486 180.34334,222.1086 180.34334,222.69856C180.34334,222.93456 180.50066,223.05254 180.8022,223.05254C182.34923,223.05254 187.187,218.69987 188.15715,217.70348C188.52425,217.3364 189.24532,216.06468 190.11063,216.06468C190.51704,216.06468 190.72679,216.26134 190.72679,216.65465C190.72679,216.7202 190.32037,217.3495 189.52065,218.55566C188.72092,219.76183 188.30138,220.40424 188.26205,220.46979C187.7114,221.54485 186.91167,223.14432 185.70552,225.16331C184.01427,227.98207 182.23125,229.33244 180.50066,229.35866C180.50066,229.35866 180.50066,229.35866 180.50066,229.35866" style="pointer-events:inherit"/><rect id="svg_27" x="11.128906200639904" y="204.6874996572733" width="179.59766160231084" height="24.669680075719953" fill="#000000" opacity="0" style="pointer-events:inherit"/></g><g id="svg_5" fill-opacity="1" display="null" clip-id="598" stroke="null" stroke-opacity="1" transform=""><path fill="#3fc9fc" d="M88.95000067161459,129.87271096332682 L111.77270858318359,129.87271096332682 L118.82500121035977,107.05000305175781 L125.87789133754674,129.87271096332682 L148.70000174910493,129.87271096332682 L130.23605641613887,143.97789371768994 L137.28894654332584,166.80000412924818 L118.82500121035977,152.694821374885 L100.36105587739371,166.80000412924818 L107.41394600458067,143.97789371768994 L88.95000067161459,129.87271096332682 z" id="svg_9" stroke-width="0" stroke="null" transform=""/></g><g fill-opacity="1" display="null" clip-id="598" stroke-opacity="1" id="svg_10" stroke="null" transform=""><path fill="#3fc9fc" d="M6.949999932963478,67.8513385059932 L21.75133870710276,67.8513385059932 L26.324999478478063,53.049999731853916 L30.89904937118314,67.8513385059932 L45.69999902399264,67.8513385059932 L33.725477547560565,76.99904917007356 L38.29952744026564,91.79999882288308 L26.324999478478063,82.65228815880269 L14.350478002045971,91.79999882288308 L18.92452789475106,76.99904917007356 L6.949999932963478,67.8513385059932 z" stroke-width="0" id="svg_11" stroke="null" transform=""/></g></g><defs><mask id="canvasMaskImageDef" maskUnits="objectBoundingBox" x="0" y="0"><image xmlns:xlink="http://www.w3.org/1999/xlink" id="canvasMaskImage" preserveAspectRatio="none" x="-103.65" y="-36.45" width="400" height="440.0580551523948" xlink:href="http://allinonedesigner.designnbuy.in/media/catalog/product/w/h/white-tees-1_-front_1_3.png"/></mask></defs></svg>