<?xml version="1.0" encoding="utf-8"?>
<!-- Generator: Adobe Illustrator 16.0.0, SVG Export Plug-In . SVG Version: 6.00 Build 0)  -->
<!DOCTYPE svg PUBLIC "-//W3C//DTD SVG 1.1//EN" "http://www.w3.org/Graphics/SVG/1.1/DTD/svg11.dtd">
<svg version="1.1" id="Layer_1" xmlns="http://www.w3.org/2000/svg" xmlns:xlink="http://www.w3.org/1999/xlink" x="0px" y="0px"
	 width="100px" height="100px" viewBox="0 0 100 100" enable-background="new 0 0 100 100" xml:space="preserve">
<circle fill="#545252" cx="51.458" cy="46.747" r="45.079"/>
<circle fill="#1D1C1C" cx="51.458" cy="46.143" r="44.177"/>
<path fill="#545252" d="M73.322,72.506c-32.747,0-59.383-21.564-60.155-48.409C9.423,30.585,7.28,38.115,7.28,46.143
	c0,24.399,19.779,44.177,44.177,44.177c15.168,0,28.55-7.647,36.505-19.295C83.275,71.992,78.372,72.506,73.322,72.506z
	 M20.316,25.737l12.285,8.208c4.903-4.258,10.642-7.602,16.962-9.751l-3.308-14.098C35.664,11.904,26.533,17.668,20.316,25.737z"/>
<path fill="#EBEAE9" d="M69.591,61.384c-6.079,0.581-7.271,7.459-4.04,10.019c3.59,2.845,10.17-0.159,9.67-5.644
	C75.005,63.391,73.001,61.127,69.591,61.384L69.591,61.384z M69.165,49.329c-4.752,0.459-5.345,5.942-2.726,8.172
	c2.769,2.356,7.795,0.351,7.502-3.958C73.766,50.949,71.712,49.138,69.165,49.329L69.165,49.329z M69.051,74.908
	c-9.15,0.523-10.588-8.375-6.979-12.545c1.307-1.51,2.939-2.059,3.639-2.293c-6.51-2.232-4.925-10.375-0.242-12.743
	c6.325-3.198,13.694,2.146,11.596,8.409c-0.785,2.342-2.724,3.353-3.453,3.73c7.147,1.813,6.31,10.487,0.271,14.001
	C72.477,74.288,70.852,74.771,69.051,74.908L69.051,74.908z M68.005,38.458c-20.442,2.561-28.566,27.86-12.598,39.233
	c14.772,10.521,36.446-3.49,34.104-22.051C88.191,45.192,78.746,37.645,68.005,38.458L68.005,38.458z M85.313,71.514
	c-3.254,0.545-6.604,0.875-10.021,0.967c-0.436,0.36-0.898,0.694-1.408,0.99c-1.402,0.817-3.027,1.301-4.83,1.438
	c-3.906,0.224-6.404-1.274-7.705-3.386c-4.662-0.776-9.129-2-13.333-3.608c1.251,3.708,3.667,7.123,7.394,9.778
	C65.413,84.818,78.582,80.688,85.313,71.514z"/>
</svg>
