<?xml version="1.0" encoding="utf-8"?>
<!-- Generator: Adobe Illustrator 16.0.0, SVG Export Plug-In . SVG Version: 6.00 Build 0)  -->
<!DOCTYPE svg PUBLIC "-//W3C//DTD SVG 1.1//EN" "http://www.w3.org/Graphics/SVG/1.1/DTD/svg11.dtd">
<svg version="1.1" id="Layer_1" xmlns="http://www.w3.org/2000/svg" xmlns:xlink="http://www.w3.org/1999/xlink" x="0px" y="0px"
	 width="29.068px" height="29.068px" viewBox="1.466 1.466 29.068 29.068" enable-background="new 1.466 1.466 29.068 29.068"
	 xml:space="preserve">
<path fill="#000000" d="M16,1.466C7.973,1.466,1.466,7.973,1.466,16c0,8.027,6.508,14.534,14.534,14.534
	c8.027,0,14.534-6.507,14.534-14.534C30.534,7.973,24.027,1.466,16,1.466z M14.757,8h2.42v2.574h-2.42V8z M18.762,23.622H16.1
	c-1.034,0-1.476-0.439-1.476-1.496V15.26c0-0.329-0.176-0.483-0.483-0.483h-0.88V12.4h2.661c1.035,0,1.475,0.462,1.475,1.496v6.887
	c0,0.309,0.176,0.484,0.483,0.484h0.881L18.762,23.622L18.762,23.622z"/>
</svg>
