<?xml version="1.0" encoding="utf-8"?>
<!-- Generator: Adobe Illustrator 15.1.0, SVG Export Plug-In . SVG Version: 6.00 Build 0)  -->
<!DOCTYPE svg PUBLIC "-//W3C//DTD SVG 1.1//EN" "http://www.w3.org/Graphics/SVG/1.1/DTD/svg11.dtd">
<svg version="1.1" id="Layer_1" xmlns="http://www.w3.org/2000/svg" xmlns:xlink="http://www.w3.org/1999/xlink" x="0px" y="0px"
	 width="100px" height="100px" viewBox="0 0 100 100" enable-background="new 0 0 100 100" xml:space="preserve">
<g>
	<path fill="#010101" d="M34.759,1.08c0.251-0.378,0.104,0.831,0.142,1.134C34.65,2.592,34.799,1.384,34.759,1.08z"/>
	<path fill="#010101" d="M39.861,96.455c0.55-0.61,1.008-1.145,1.7-1.7c0.306-0.245,0.696-0.418,0.992-0.709
		c0.256-0.252,0.427-0.645,0.708-0.992c0.24-0.294,0.494-0.537,0.708-0.851c0.157-0.227,0.17-0.352,0.284-0.566
		c0.034-0.064,0.259-0.089,0.283-0.142c0.053-0.111-0.062-0.32,0-0.425c0.195-0.325,0.583-0.551,0.708-0.851
		c0.312-0.743,0.324-1.572,0.567-2.269c0.228-0.645,0.547-1.25,0.85-1.842c1.174-2.283,2.731-4.532,4.109-6.802
		c0.174-0.283,0.404-0.575,0.567-0.85c0.324-0.547,0.636-1.082,0.992-1.701c0.663-1.152,1.648-2.021,2.551-3.118
		c0.236-0.288,0.464-0.622,0.709-0.992c0.219-0.329,0.944-0.958,1.134-1.418c0.197-0.477,0.1-1.172,0.284-1.842
		c0.02-0.075,0.267-0.229,0.283-0.283c0.039-0.129-0.043-0.296,0-0.425c0.418-1.28,0.671-3.504,0.565-5.386
		c0.199-0.059,0.212,0.077,0.284,0.143c0.837,0.749,2.497,2.666,2.552,3.825c0.041,0.869-0.601,1.547-0.852,2.41
		c-0.085,0.292-0.091,0.719-0.141,0.991c-0.186,1.019-0.099,1.969,0.141,3.119c0.256,1.22,0.682,2.402,1.135,3.684
		c0.438,1.24,0.829,2.271,1.275,3.543c0.581,1.66,1.337,3.517,1.558,5.526c0.127,0.606-0.423,0.809-0.566,1.417
		c-0.235,1.007-0.049,2.475-0.142,3.686c-0.026,0.366-0.087,0.777-0.141,1.134c-0.053,0.338-0.074,0.748-0.143,0.992
		c-0.179,0.648-0.615,1.111-0.851,1.7c-0.277,0.695-0.349,1.347-0.567,1.984c-1.132,3.758,4.689,0.345,4.394,0.142
		c0.262-0.561,1.065-1.036,1.275-1.56c0.202-0.5,0.066-0.839,0.143-1.417c0.089-0.679,0.427-1.525,0.566-2.267
		c0.341-1.791,0.425-4.884-0.142-6.236c-0.134-0.318-0.194-0.535-0.284-0.851c-0.445-1.559-0.614-3.289-0.708-5.102
		c-0.144-2.801,0.051-6.396-0.142-8.929c-0.063-0.842,0.214-1.541,0.284-2.408c0.064-0.791-0.063-1.632,0-2.409
		c0.031-0.394,0.162-0.716,0.142-1.134c-0.018-0.322-0.226-0.673-0.284-0.992c-0.05-0.275,0.04-0.573,0-0.85
		c-0.169-1.18-1.086-2.688-1.559-3.544c-0.317-0.574-0.533-0.933-0.85-1.416c-0.236-0.359-0.555-0.625-0.709-0.851
		c-0.223-0.323-0.344-0.648-0.566-0.993c-0.629-0.969-1.188-1.928-1.701-2.833c-0.377-0.666-0.724-1.261-1.134-1.843
		c-0.917-1.299-2.095-2.274-2.692-3.401c1.427-3.752,1.803-8.511,2.976-12.33c0.404-1.315,1.096-2.591,1.276-3.826
		c0.097-0.674,0.038-1.17,0-1.701c-0.154-2.084,0.888-3.471,0.707-5.385c-0.063-0.661-0.585-2.078-0.85-2.551
		c-0.396-0.708-1.343-1.3-1.417-2.126c-0.101-1.105,0.578-1.599,1.134-1.984c1.589-1.101,3.621-2.245,4.96-3.259
		c0.205-0.156,0.349-0.41,0.567-0.567c0.369-0.266,0.733-0.559,0.991-0.708c0.458-0.265,0.767-0.465,1.134-0.708
		c0.943-0.624,1.878-1.408,2.834-1.842c0.271-0.123,0.572-0.041,0.851-0.142c0.274-0.099,0.551-0.417,0.851-0.566
		c1.153-0.576,2.208-1.02,3.117-1.56c1.353-0.802,2.475-1.887,3.968-2.267c0.081,0.25-0.171,0.833,0.142,0.851
		c0.132,0.247-0.004,0.761,0.425,0.708c0.867-0.126-0.009-1.994,0.851-2.126c0.542,0.404,1.219,0.672,1.56,1.276
		c-0.26,0.73-0.994,3.176,0,3.401c0.391-0.506,0.021-1.773,0.708-1.984c0.136,0.856-0.057,2.04,0.992,1.984
		c0.393-0.095-0.394-0.744,0.426-0.566c-0.284-0.567,0-1.702-0.284-2.268c0.344,0.223,0.605,0.529,1.275,0.425
		c0.085-0.526-0.296-0.56-0.425-0.708c-0.175-0.201-0.146-0.158-0.426-0.283c-0.226-0.102-0.41-0.578-0.566-0.709
		c-0.118-0.306-0.367-0.483-0.283-0.992c-0.408-0.123-0.485-0.551-0.709-0.85c-0.544-0.731-0.801-1.024-1.56-1.417
		c-0.828-0.431-0.989-0.445-1.841-0.142c-1.058,0.377-1.839,0.826-2.693,1.134c-0.528,0.191-1.123,0.237-1.701,0.426
		c-1.225,0.4-2.155,0.909-3.117,1.417c-0.498,0.263-1.122,0.426-1.559,0.708c-0.343,0.222-0.563,0.645-0.85,0.851
		c-0.169,0.12-0.394,0.175-0.567,0.284c-0.43,0.269-0.683,0.511-0.991,0.708c-0.155,0.099-0.408,0.204-0.567,0.283
		c-0.813,0.406-1.695,0.658-2.408,0.992c-0.352,0.165-0.781,0.384-1.135,0.566c-0.803,0.417-1.734,1.24-2.409,1.417
		c-1.347,0.356-2.701,0.691-3.685,1.134c-0.047,0.021-0.089,0.248-0.142,0.284c-1.151,0.752-2.216,1.449-3.544,1.842
		c-0.37,0.196-0.486,0.646-0.992,0.709c-0.51-0.779-1-1.504-1.134-2.551c-0.281-2.233,0.882-3.607,0.852-5.244
		c-0.257-0.31-0.478-0.657-1.136-0.567c0.016-0.675-0.649-0.672-0.707-1.275c-0.534,0.061-0.646-0.3-0.851-0.567
		c0.103-0.433-0.145-0.517-0.142-0.851c-0.779-0.024-1.08,0.432-1.984,0.284c-0.188-0.038-0.292-0.192-0.425-0.284
		c-0.158-0.109-0.418-0.179-0.566-0.283c-0.342-0.241-0.58-0.719-0.85-0.567c0.143,0.001,0.178,0.248,0,0.283
		c-0.439-0.18-1.263-0.715-1.56-0.567c0.154,0.035,0.34,0.233,0.142,0.284c-0.982,0.129-1.764-0.365-2.409-0.142
		c-0.723-1.071-1.372-2.218-1.842-3.542c-0.363,0.538,0.257,1.102,0.283,1.701c-0.142,0-0.283,0-0.425,0
		c0.048,0.583,1.182,0.987,0.283,1.275c0.266,0.16,0.684,0.167,0.567,0.708c-0.719,0.054-0.815-0.249-0.85,0.142
		c-0.533-0.198-0.839-0.715-1.275-1.134c-0.049-0.047-0.235,0.047-0.283,0c-0.047-0.047,0.046-0.235,0-0.283
		c-0.113-0.119-0.307-0.167-0.425-0.283c-0.164-0.161-0.291-0.625-0.567-0.425c0.287,0.422,0.718,0.699,0.992,1.133
		c-0.244,0.056-0.364-0.21-0.425,0c0.572,0.137,0.566,0.851,0.992,1.134c-0.109,0.143-0.852,0.354-0.425,0.567
		c0.145-0.365,0.656-0.543,0.851-0.141c-0.703-0.109-0.756,0.433-1.275,0.141c-0.351,0.263-0.532,0.696-1.134,0.708
		c-0.496-0.063-0.29-0.609-0.425-0.708c-0.289,0.326-0.638-0.487-0.708-0.85c-0.376-0.144-0.806-0.233-0.85-0.708
		c-0.08-0.423,0.535-0.868,0.283-0.992c-0.51,0.036-0.422,1.175-0.85,0.85c-0.546-0.329,0.78-0.712,0.425-0.85
		c-0.433,0.133-0.443,0.689-0.993,0.708c-0.238-0.734-0.071-1.32-0.283-1.843c-0.491,0.484,0.295,1.436-0.141,1.843
		c-0.103-0.653-0.893-0.619-1.276-0.992c0.04-0.506,0.316-1.095,0-1.701c-0.282,0.548-0.02,2.004-0.567,1.984
		c0.119,0.486,0.189,0.866,0,1.133c-0.867-0.076-0.505-0.75-0.708-1.275c0-0.236,0-0.473,0-0.708
		c-0.078-0.206,0.166-0.732-0.142-0.708c-0.064,0.528,0.084,1.196,0,1.701c-0.044,0.271-0.317,0.48-0.142,0.566
		c0.333-0.434,0.296,0.691,0.142,0.85c-0.672-0.273-1.326-0.563-1.417-1.417c-0.242,0.483,0.031,1.168-0.142,1.417
		c-0.37-0.101-0.135-0.809-0.567-0.85c0.091,0.736,0.556,1.112,0.567,1.559c0.017-0.173,0.043-0.336,0.284-0.284
		c0.27,0.489,1.11,1.154,0.85,1.701c-1.091-0.338-1.312-0.845-2.693-0.708c-0.27-0.061-0.256-0.405-0.708-0.283
		c-0.47-0.045-0.872-0.021-0.993,0.283c0.118-0.551-0.843-0.379-0.425-0.142C27.247,5.193,27.776,6.08,27.39,6.04
		c-0.354-0.001-0.505-0.37-0.708-0.566c-0.241-0.235-0.533-0.409-0.708-0.709c0.007,0.752,1.163,1.101,0.992,1.559
		c-0.569,0.099-0.347-0.596-0.85-0.566c0.684,1.038-1.301,0.188-1.417,0.851c-0.444-0.454-0.851-0.944-1.275-1.417
		c0.198,0.558,0.551,0.959,0.708,1.559c-0.455-0.112-0.619-0.514-0.992-0.709C23,6.438,22.761,5.834,22.572,6.182
		c-0.208,0.002-0.449-0.598-0.425,0c-0.167,0.069-0.322,0.151-0.425,0.283c0.078,0.239,0.367,0.461,0.425,0.567
		c0.144,0.261,0.144,0.616,0.283,0.851c0.035,0.058,0.239,0.081,0.283,0.142c0.32,0.426,0.162,0.931,0.567,0.85
		c-0.167,0.438-0.355-0.022-0.567,0.284c0.323-0.024,0.827,0.479,0.567,0.566c-0.729-0.358-0.832-1.34-1.701-1.559
		c0.068,0.749-0.381-0.33-0.425,0.142c0.442,0.634,1.032,1.059,1.417,1.559c0.088,0.113,0.207,0.184,0.284,0.283
		c0.095,0.124,0.046,0.288,0.142,0.426c0.255,0.367,0.624,0.692,0.851,1.133c0.056,0.109-0.035,0.307,0,0.425
		c0.104,0.345,0.606,0.672,0.566,1.134c-0.596-0.064-0.652-0.67-1.133-0.851c0.491,0.927,1.262,1.572,2.267,1.984
		c0.281,0.617,0.826,0.97,1.275,1.417c-0.55-0.016-0.925-0.72-1.275-0.142c0.933,0.222,1.275,1.239,1.983,1.559
		c0.052,0.023,0.083,0.25,0.142,0.283c0.275,0.151,0.693,0.04,0.993,0.142c0.085,0.03,0.3,0.23,0.425,0.284
		c0.61,0.262,1.158,0.428,1.842,0.425c0.223,0.107,0.213,0.449,0.567,0.425c1.123-0.083,1.933,0.146,2.834,0.283
		c0.294,1.54,1.547,2.211,3.118,2.268c0.33,0.012,0.648-0.263,0.992-0.284c0.265-0.016,0.445,0.131,0.709,0.142
		c0.345,0.015,0.731-0.151,0.992,0c-1.016,0.969-2.51,1.458-4.252,1.7c0.206,0.078,0.733-0.165,0.709,0.142
		c-0.376,0.002-0.834-0.079-0.851,0.284c0.478-0.048,1.428-0.358,1.842,0c-0.681,0.311-2.045-0.062-2.693,0.284
		c2.363,0.386,4.503-0.557,5.811-1.417c0.274-0.18,0.503-0.666,0.85-0.566c-0.57,0.701-0.848,1.687-1.559,2.409
		c-0.134,0.137-0.356,0.118-0.567,0.284c-0.15,0.119-0.269,0.443-0.425,0.567c-0.117,0.092-0.388,0.148-0.567,0.283
		c-0.068,0.053-0.068,0.229-0.142,0.283c-0.133,0.101-0.311,0.033-0.425,0.142c-0.111,0.107-0.047,0.291-0.142,0.425
		c-0.081,0.117-0.326,0.174-0.425,0.284c-0.699,0.777-1.363,1.503-2.409,1.842c-0.492,0.16-1.048,0.076-1.559,0.142
		c-0.812,0.105-1.652,0.385-2.551,0.566c-1.917,0.388-4.91,1.001-7.086,0.567c-0.118-0.607-0.735-0.744-1.134-0.992
		c-0.174-0.108-0.359-0.321-0.567-0.425c-0.259-0.13-0.63-0.135-0.85-0.283c-0.279-0.188-0.835-0.787-0.992-0.992
		c-0.725-0.948-0.712-2.422-1.984-2.976c-0.499,0.321,0.456,0.623,0,0.851c-0.608-0.525-0.404-1.864-1.417-1.984
		c-0.326,0.945,0.627,2.292,0.708,3.685c-0.188,0.142-0.527,0.134-0.567,0.425c0.208,0.123,0.45,0.212,0.425,0.567
		c-0.574-0.361-1.521-0.259-1.842-0.567c-0.128-0.124-0.093-0.048-0.284-0.142c-0.628-0.31-1.079-0.822-1.842-0.425
		c0.221,0.491,0.699,0.709,1.134,0.992c0.181,0.118,0.494,0.143,0.708,0.284c0.198,0.13,0.369,0.463,0.567,0.566
		c0.271,0.144,0.702,0.162,0.992,0.284c0.484,0.204,0.836,0.516,1.133,0.708c0.469,0.304,0.971,0.464,1.417,0.708
		c0.551,0.302,1.129,0.677,1.701,0.992c0.262,0.144,0.529,0.258,0.85,0.425c0.272,0.142,0.65,0.504,0.851,0.567
		c0.929,0.293,2.064,0.146,3.26,0.284c0.954,0.108,1.849,0.372,2.693,0.425c2.771,0.175,5.169,0.147,8.078,0.142
		c0.587-0.339,0.988-0.888,1.559-1.276c0.863-0.585,1.87-0.971,2.692-1.559c0.398-0.284,0.731-0.663,1.134-0.992
		c0.427-0.348,0.922-0.594,1.275-0.992c0.212-0.237,0.372-0.582,0.567-0.85c0.226-0.309,0.381-0.602,0.567-0.851
		c0.38-0.506,0.719-1.138,1.417-1.417c0.822,0.836,1.031,1.924,1.56,2.834c0.028,0.05,0.239,0.094,0.283,0.142
		c0.109,0.117,0.051,0.278,0.142,0.424c0.467,0.749,0.935,1.403,1.275,2.126c0.27,0.569,0.057,1.355,0.142,2.126
		c0.033,0.289,0.232,0.475,0.284,0.85c0.126,0.905,0.191,3.006,0,4.394c-0.217,1.581-1.32,3.494-1.984,4.534
		c-0.66,1.036-1.328,1.895-1.842,2.977c-0.565,1.189-1.2,2.522-0.992,4.11c0.193,1.474,1.172,2.841,2.125,3.969
		c0.216,0.253,0.181,0.584,0.284,0.85c0.068,0.172,0.226,0.288,0.284,0.426c0.471,1.126,0.52,2.641,0.708,3.968
		c0.33,2.301,1.174,4.813,1.843,6.66c0.306,0.84,0.779,2.39,0.708,3.26c-0.012,0.159-0.121,0.753-0.283,1.133
		c-0.6,1.414-2.066,1.988-2.976,3.118c-0.09,0.111-0.063,0.322-0.142,0.426c-0.638,0.833-1.156,1.591-1.559,2.551
		c-0.479,1.142-0.754,2.409-1.134,3.684c-0.169,0.568-0.4,1.066-0.567,1.701c-0.165,0.629-0.237,1.362-0.425,1.984
		c-0.379,1.256-1.37,3.056-0.992,4.393c-0.549,0.389-1.199,0.677-1.842,0.992c-0.645,0.315-1.315,0.559-1.843,0.992
		c0.109,0.77-0.224,1.099-0.141,1.843c-0.292,0.075-0.033,0.67-0.426,0.283c0.328,0.562-0.167,0.405-0.142,0.992
		c-0.59,0.428-1.355,0.709-1.984,1.133c-0.484,0.327-0.903,0.801-1.275,1.134c-0.43,0.387-0.412,0.223-0.567,0.566
		c-0.105,0.236-0.539,0.324-0.425,0.709c0.19,0.519,1.01,2.51,1.559,2.692C37.763,99.254,39.729,96.604,39.861,96.455z M31.5,6.891
		c-0.683,0.207-1.649-0.521-2.268-0.851C29.899,5.85,30.867,6.578,31.5,6.891z M24.414,12.134c0.573-0.199,1.099,0.437,1.701,0.709
		c0.657,0.297,1.394,0.445,1.984,0.708c0.182,0.081,0.313,0.008,0.283,0.284c-0.354-0.205-0.701,0.062-1.134,0
		C26.141,13.676,25.011,12.975,24.414,12.134z M27.249,16.669c0.429,0.091,0.818,0.222,0.851,0.708
		C27.828,17.13,27.227,17.211,27.249,16.669z M31.075,16.811c-0.324-0.024-0.648,0.196-0.993,0.142
		c-1.039-0.165-2.092-0.643-2.834-0.992c0.671-0.063,1.598,0.229,2.409,0.425c0.366,0.088,0.82,0.357,1.134,0.425
		c0.166,0.037,0.737-0.265,0.992,0.142C31.58,17.459,31.385,16.834,31.075,16.811z M36.744,4.481c0.282,0.236,0.181-0.013,0.566,0
		c0.122,0.115,0.084,0.388,0.284,0.425c-0.058,0.353-0.549,0.008-0.425-0.283C37.038,4.71,36.647,4.953,36.744,4.481z M37.452,5.899
		c-0.467-0.006-0.541-0.403-0.567-0.851C37.207,5.199,37.401,5.479,37.452,5.899z M34.051,2.781c0.369,0.057,0.427,0.422,0.85,0.425
		c-0.116,0.578-0.021,0.488,0,1.133c-0.24,0.053-0.267-0.11-0.283-0.283c-0.137,0.004-0.109,0.173-0.142,0.283
		C34.082,4.026,33.841,3.288,34.051,2.781z M33.768,17.944c0.02-0.404,0.591-0.259,0.992-0.284
		C34.623,17.95,34.216,17.967,33.768,17.944z M34.476,19.361c0.103-0.347,0.826-0.207,0.992-0.142
		c0.311,0.122,0.623,0.804,0.993,1.134c0.343,0.308,0.608,0.359,0.85,0.567C35.937,21.396,34.853,20.356,34.476,19.361z
		 M38.161,20.637c-0.437,0.102,0.35-0.441-0.284-0.283c-0.023,0.006-0.237,0.104-0.142,0.142c-0.14-0.056-0.08-0.167,0-0.142
		c-0.665-0.212-0.842-0.176-1.417-0.708c0.035-0.153,0.282-0.096,0.284-0.284c0.478,0.128,0.017,0.317,0.283,0.567
		c0.161-0.026,0.079-0.142,0-0.142c0.599-0.17,1.442,0.634,2.409,0.567C39.208,21.042,38.346,20.219,38.161,20.637z M39.436,22.054
		c0.326-0.477,1.03-0.577,1.417-0.992C41.059,21.263,39.97,21.957,39.436,22.054z"/>
	<path fill="#010101" d="M32.775,22.196c0.551-0.149,0.828,0.523,1.417,0.708c0.083,0.026,0.487,0.143,0.425,0.142
		c0.206,0.006,0.659-0.187,0.992,0.142C34.643,23.446,33.486,22.667,32.775,22.196z"/>
</g>
</svg>
