<?xml version="1.0" encoding="utf-8"?>
<!-- Generator: Adobe Illustrator 16.0.0, SVG Export Plug-In . SVG Version: 6.00 Build 0)  -->
<!DOCTYPE svg PUBLIC "-//W3C//DTD SVG 1.1//EN" "http://www.w3.org/Graphics/SVG/1.1/DTD/svg11.dtd">
<svg version="1.1" id="Layer_1" xmlns="http://www.w3.org/2000/svg" xmlns:xlink="http://www.w3.org/1999/xlink" x="0px" y="0px"
	 width="100px" height="100px" viewBox="0 0 100 100" enable-background="new 0 0 100 100" xml:space="preserve">
<path d="M60.238,56.631c-0.287,0.258-0.896,0.152-1.289,0.289c0.75,1.137,2.203,0.385,3.004,1.059
	c0.91-0.52,1.131-1.814,1.804-2.598c1.126-0.275,3.308-1.556,4.292-0.289c0.809-0.29,1.432,0.049,1.977-0.097
	c0.102-0.403-0.362-0.172-0.43-0.386c0.021-0.521,0.775-0.221,0.771-0.771c-0.213-0.08-0.46-0.125-0.771-0.096
	c-0.063-0.394,0.276-0.331,0.172-0.771c-0.199-0.029-0.33,0.017-0.431,0.096c0.345-1.053,0.099-1.291,0.345-2.115
	c-0.42-0.202,0.01-1.032-0.688-1.059c0.113-0.291,0.059-0.768,0.171-1.058c-1.672,0.626-1.786,3.001-2.833,4.33
	c0.141-0.357,0.294-0.699,0.43-1.061c0.008-0.431-0.253,0.133-0.43,0.098c-0.446-0.188-0.075-0.781-0.256-1.154
	c-0.354-0.104-0.43-0.303-0.773-0.578c-0.585,0.091-1.394,1.185-1.89,0.192c-0.841,0.487-1.681,2.556-0.429,3.175
	c-0.83-0.129-1.426-1.352-2.146-1.924c0.239-0.02,0.323-0.204,0.518-0.48c0.09-0.359-0.215-0.273-0.174-0.578
	c0.409,0.043,0.623-0.135,0.859-0.289c2.072-2.328,3.704-5.148,6.354-6.832c0.844,0.168,1.58-0.359,2.403-0.385
	c2.599-0.079,5.067,1.125,6.609,2.791c1.353-0.151,2.71-0.299,3.09-1.54c-0.576-0.404-1.245,0.576-1.716,0
	c0.072-0.206,0.375-0.155,0.516-0.289c-0.291-0.54-0.76-0.88-0.943-1.539c-0.701-0.306-1.436-0.573-2.063-0.962
	c0.247-0.319,0.666-0.064,1.03,0c0.998-1.383,2.621-2.068,2.92-4.234c-0.606-0.039-0.643,0.564-0.943,0.866
	c-0.57,0.205-1.037-0.025-1.547,0.289c-0.042-0.498,0.244-0.625,0.173-1.155c-0.25-0.187-0.558,0.229-0.944,0.192
	c-0.088-0.073,0.09-0.662,0.172-0.866c-0.483-1.958-0.498-3.922-0.515-5.869c-0.015-1.518,0.419-3.127-0.173-4.523
	c0.757-1.487,2.171-4.682,4.121-2.982c-0.188,0.267-0.611-0.014-0.857,0c0.101,0.674-0.647,0.407-0.345,1.058
	c-0.483,0.136-0.709-0.03-1.287,0c0.138,0.39,0.278,0.777,0.687,0.866c-0.178,0.492-0.016,0.746,0.258,0.963
	c0.089,1.127-0.35,1.335-0.43,2.406c0.6-0.229,1.265-0.38,1.717-0.771c0.195,0.2-0.118,0.497,0.259,0.577
	c0.913-0.279,0.84-1.562,1.459-2.212c0.297-0.311,0.66-0.261,0.944-0.674c0.269-0.02,0.631,0.064,0.773-0.096
	c0.149-0.183,0.063-0.637,0.084-0.963c0.668-0.025,0.689,1.257,1.375,1.347c0.483,0.063,1.285-0.873,2.061-0.962
	c0.391-0.045,0.594,0.309,1.029,0.096c0.283-0.516,0.568-1.031,0.859-1.539c-0.264-0.07-0.255,0.166-0.516,0.096
	c0.049-0.426,0.453-0.455,0.429-0.962c-0.203,0.001-0.253-0.166-0.515-0.097c0.869-0.535-0.012-1.957-0.602-2.309
	c-0.464-0.005-0.458,0.667-0.773,0.962c-0.308,0.287-0.178-0.095-0.514,0.096c-0.595,0.337-0.187,0.644-0.688-0.191
	c-0.29-0.483-1.404-1.465-1.719-2.117c1.045-0.087,1.799-1.317,2.748-1.444c1.287-0.171,1.756,1.139,2.832,1.636
	c0.338,0.024,0.32-0.348,0.688-0.289c0.257,0.201-0.114,0.506,0,0.866c0.993,0.455,2.232,0.491,3.262,1.25
	c0.934-0.399,0.458-1.371,0.773-2.309c0.964-0.118,0.63,1.218,0.943,1.828c1.117-0.289,1.397-1.513,2.232-2.116
	c0.063-0.263-0.17-0.194-0.17-0.385c0.334-0.425,1.029-0.448,1.113-1.155c-0.112,0-0.229,0-0.344,0
	c0.123-0.327,0.408-1.636-0.084-1.539c0.221-0.55,0.838-0.665,0.943-1.347c-1.469,0.152-2.745,1.346-3.178,2.982
	c0.041-0.682,0.085-1.626,0.345-2.309c-0.588-0.188-0.629-1.46-1.373-1.154c0.374-0.563-0.233-1.052-0.603-1.347
	c-0.254,0.898,0.146,2.102-0.944,2.213c-0.067,0.396,0.132,0.493,0.087,0.865c-0.174,0.221-0.184-0.56-0.516-0.48
	c-0.823,0.729-0.949,1.853-0.172,2.694c-0.445-0.301-0.726-0.791-0.773-1.54c-0.704-0.262-0.697,0.304-1.287,0.385
	c-0.001-0.773,0.684-0.776,1.031-1.155c0.063-0.219,0.074-0.492,0.17-0.674c0.865-0.944,1.622-2.088,2.576-3.079
	c0.846-0.879,1.801-2.171,2.832-2.695c0.643-0.323,1.419-0.064,1.548-1.059c-0.697-0.373-0.782,0.712-1.634,0.482
	c-0.112,0.321-0.502,0.334-0.601,0.674c-0.276-0.057-0.399,0.065-0.602,0.096c-2.271,2.361-4.104,5.215-6.952,6.928
	c-2.727,0.727-4.275,2.972-7.04,2.406c-0.308-0.136-0.612-0.459-0.944-0.288c-0.099,0.314,0.119,0.933,0,1.347
	c-0.037,0.134-0.271,0.263-0.43,0.577c-0.078,0.157-0.064,0.453-0.085,0.48c-0.485,0.664-1.636,1.257-2.233,2.213
	c-0.222,0.354-2.119,2.394-2.146,2.406c-0.301,0.134-0.559-0.048-0.771,0.096c-0.768-0.682-1.512-1.386-2.061-2.309
	c-0.444,0.253,0,1.056,0,1.443c0.509,0.374,1.16,0.678,1.544,1.348c0.157,0.272,0.149,0.75,0.343,1.058
	c0.365,0.578,0.814,0.712,0.859,1.251c0.035,0.43-0.192,1.393-0.344,2.021c-0.18,0.755-0.672,1.129-0.943,1.635
	c-0.262,0.486-0.344,1.122-0.602,1.636c-0.16,0.32-0.436,0.546-0.602,0.866c-0.544,1.045-0.784,2.308-1.288,2.982
	c-0.332,0.447-0.979,0.566-1.03,1.059c-0.684-0.27-1.317-0.242-1.802,0.289c-0.343-0.096-0.668-0.214-0.944-0.385
	c-0.086-0.448-0.049-1.038-0.344-1.251c-0.732,0.038-0.77,0.143-1.459,0c-0.1,0.143-0.1,0.243,0,0.385
	c-0.304-0.051-0.385-0.282-0.688-0.097c-0.161,0.183-0.01,0.243,0,0.481c-0.967-0.227-2.178-0.021-2.92-0.385
	c0.164,1.432,2.197,0.998,2.92,2.117c0.025,0.301-0.25-0.245-0.258,0.096c0.103,1.2,1.807,0.606,2.062,1.635
	c-0.333,0.365-0.61,0.364-1.203,0.29c-0.476,0.887,0.366,1.36,0.517,2.117c-0.855,1.331-2.268,1.992-3.178,3.271
	c-0.906,1.275-1.47,3.083-3.091,3.56c-0.008-0.423,0.199-0.909,0.515-1.346c-0.291-0.466-0.109-1.233-0.6-1.635
	c0.307-2.252-1.178-3.289-1.889-4.716c1.13-0.604,5.17,0.878,5.063,3.176c0.837-1.516-1.69-3.251-3.176-3.752
	c-1.056-0.356-1.877-0.429-2.405,0.288c0.428,1.94,2.748,3.036,1.977,5.389c0.013,0.372,0.289,0.445,0.258,0.867
	c-0.035,0.538-0.639,0.44-0.43,1.25c-0.104-0.301-0.213-0.595-0.43-0.77c-0.313,0.108-0.953,0-0.687,0.481
	c-0.308,0.15-0.054-0.327-0.259-0.288c-1.321,0.124-1.659-1.162-2.834-0.674c0.416,0.833,1.748,0.988,1.805,1.924
	c0.24,0.102,0.464,0.565,0.773,0.289c-0.065,0.57-0.924,0.249-1.291,0.48c0.209,3.38-2.471,5.372-3.862,7.313
	c-0.122-0.262-0.054-0.608-0.085-1.155c-0.379-0.069-0.354,0.313-0.602,0.387c-0.084-0.227-0.15-0.473-0.172-0.771
	c-0.273-0.082-0.267,0.151-0.43,0.192c-0.051-0.456-0.124-0.888-0.085-1.442c-0.371-0.095-0.249,0.36-0.517,0.385
	c0.325-1.263-1.179-1.703-0.771-3.465c-0.576,0.221-0.45,1.229-0.516,2.021c-0.027,0.342-0.559,0.458-0.257,0.865
	c-0.01,0.187-0.336-0.166-0.345,0.193c-0.178,0.428,0.353,0.797,0.345,1.346c-0.576-0.027-0.548-0.732-1.031-0.865
	c-0.045,0.402,0.151,0.538,0.172,0.865c-0.29,0.037-0.135-0.426-0.515-0.287c-0.188,0.199,0.043,0.273,0,0.576
	c-0.488,0.336-0.665,0.138-1.201,0.289c0.119,0.44,0.206,0.924,0.428,1.25c-0.072,0.283-0.275-0.058-0.428,0
	c-0.022,0.795,0.217,1.295,0.514,1.732c-0.146,0.02-0.222-0.165-0.257,0c0.348,1.46-0.618,1.818-1.546,2.116
	c-0.531-0.404-1.097-1.294-1.202-2.212c-0.207-1.829,0.648-6.231,2.062-6.641c-0.064-0.474-0.279-0.779-0.344-1.252
	c-1.17-0.261-1.48-2.002-0.944-2.887c1.652,0.088,3.521,0.521,4.893-0.191c1.348-2.957-3.214-1.26-4.034-2.695
	c0.319-1.333,2.545-0.396,3.691-0.577c0.193-0.331,0.486-0.547,0.43-1.155c-0.75-0.198-1.835-0.042-2.404-0.192
	c-0.026-0.352,0.014-0.626,0.086-0.867c-0.246-0.269-0.593-0.426-0.772-0.77c0.818-0.393,1.609,0.557,2.404,0.192
	c-0.008-0.603-0.362-0.814-0.602-1.154c0.384-1.354-0.847-2.409-1.287-3.464c0.673-1.279,2.406,1.292,2.746,0
	c0.18-0.669-0.746-1.796-0.944-2.983c-0.056-0.334-0.135-0.77-0.172-1.059c-0.548-4.246,2.011-7.278,2.492-10.2
	c-0.535-0.831-1.383-0.485-2.233-1.154c0.017-0.366,0.075-0.685,0.171-0.963c0.563-0.035,0.838-0.01,1.288-0.289
	c-1.416-2.495,1.392-4.502,3.264-3.079c0.451,1.484-0.416,2.597-1.116,3.367c1.548-0.227,2.347-3.09,1.028-3.944
	c-1.715-1.115-4.752,0.362-3.861,3.368c-0.45-0.009-0.544-0.417-1.031-0.385c-0.385,0.405-0.093,1.467-0.257,2.309
	c0.673,0.463,1.828,0.39,2.233,1.154c-1.477,4.198-3.694,8.68-1.461,13.375c-0.519,0.128-2.41-1.505-2.747-0.096
	c-0.145,0.601,0.672,1.442,1.029,2.117c0.453,0.852,0.539,1.513,0.602,2.501c-0.979,0.038-1.536-1.07-2.146-0.192
	c0.004,0.668,0.422,0.874,0.601,1.347c0.022,0.282-0.193,0.296-0.171,0.578c0.16,1.006,1.75,0.413,2.402,0.866
	c-0.689,0.899-3.94-0.828-3.777,1.54c0.752,1.21,3.357,0.343,4.207,1.443c-0.289,1.928-3.729,0.775-4.808,0.77
	c-0.371,0.755-0.644,1.057-0.601,1.636c0.073,1.015,1.433,1.729,1.373,2.693c-0.034,0.578-0.842,1.033-1.03,1.637
	c-0.14,0.443-0.074,1.283-0.171,1.828c-0.276,1.553-0.849,3.205-0.515,4.426c0.144,0.529,0.7,0.914,0.686,1.54
	c-0.911-0.39-1.62-1.007-1.803-2.214c-0.392,0.055-0.363-0.362-0.773-0.287c-0.2,0.253-0.014,0.654,0,0.961
	c-0.662-0.305-1.16,0.047-1.803,0.289c0.014,0.438,0.072,0.377,0,0.771c-0.482,0.388-0.944,0.802-1.287,1.347
	c0.354-0.074,0.44,0.147,0.773,0.097c-1.855,2.505-6.332,4.555-10.388,3.657c-0.365-0.082-0.745-0.243-1.288-0.098
	c-0.196,0.391-0.507,0.651-0.773,0.963c-0.076-0.074-0.192-0.104-0.343-0.097c0.33-0.815,1.186-1.045,1.63-1.731
	c-0.005-0.858-0.297-1.399-0.687-1.828c0.61-0.891,1.375-1.604,1.89-2.599c0.032-0.422-0.245-0.493-0.258-0.866
	c0.955,1.371,4.006,1.291,4.121-1.442c0.718,0.542,1.239,1.305,2.061,1.731c1.905,0.348,3.351-1.351,2.489-2.887
	c0.869-0.538,2.111-0.87,2.318-1.925c0.367-1.876-1.82-2.817-3.435-2.695c0.859-0.803,0.917-2.917-0.344-3.655
	c0.58-0.17,0.92,0.593,1.546,0.674c1.243,0.162,2.551-0.926,2.661-2.308c-0.011-0.407-0.309-0.487-0.429-0.77
	c2.856-0.433,2.055-5.639-1.202-3.946c1.568-1.637,0.78-5.91-2.232-4.522c0.779-0.922,1.059-2.521,0.172-3.562
	c0.733,0.641,1.469,1.479,2.747,1.251c1.546-0.275,2.649-3.248,0.43-3.56c0.366-0.831,1.023-1.165,0.944-2.213
	c-0.092-1.214-1.078-2.105-2.146-2.309c0.038-0.331-0.033-0.54-0.086-0.77c2.112,0.106,3.162-4.063,1.029-4.907
	c-0.885-0.351-1.72,0.163-2.661,0.384c1.111-0.871,2.351-2.204,2.062-4.33c-0.047-0.342-0.246-1.007-0.516-1.347
	c-2.26-2.854-5.621,1.81-3.262,4.523c-0.702,0.144-1.526,0.552-1.976,1.25c0.048-0.234,0.202-0.351,0.345-0.48
	c-0.674-2.792-4.117-1.565-3.864,1.154c0.132,1.413,1.173,2.376,2.834,2.31c0.093,0.569,0.248,1.067,0.429,1.539
	c-1.95-0.6-3.257,1.511-2.662,3.752c-0.496-0.482-0.573-1.317-1.202-1.828c-1.787-1.456-4.421,0.925-2.66,2.887
	c-2.169,0.295-2.542,3.574-1.03,5.003c1.144,0.313,2.077-0.25,3.091-0.385c-0.154,0.617-0.775,0.502-1.116,0.866
	c-0.558,0.595-0.628,1.5-0.688,2.694c-0.573-0.796-0.818-1.898-1.975-1.733c-1.383,0.199-1.64,2.477-1.373,4.042
	c0.058,0.335,0.391,0.776,0.172,0.963c-0.399-0.388-0.339-2.123-0.516-3.08c-0.568-0.217-0.927-0.531-1.545-0.48
	c-2.271,0.183-3.144,4.019-0.773,5.003c0.609,0.04,1.113-0.035,1.632-0.097c-0.069,0.673,0.269,1.332,0.687,1.732
	c-2.202-1.094-3.681,2.856-1.803,4.234c-0.243,0.144-0.532,0.237-0.858,0.288c-2.083,1.473-0.868,5.576,1.717,4.906
	c0.904-0.232,1.368-1.154,2.231-1.635c-0.536,1.59-0.19,3.875,1.632,3.561c0.796-0.137,1.056-1.053,1.546-1.732
	c-0.079,0.637-0.858,1.299-0.773,2.406c0.068,0.888,0.506,1.543,1.546,1.539c0.073,0.078,0.051,0.264,0.171,0.289
	c0.012,1.166-0.813,1.396-1.373,1.924c-0.335-0.086,0.284-0.354,0-0.385c-0.614-0.303-0.934,0.176-1.545,0
	c-0.805,1.345,1.943,1.83,0.602,3.176c-0.201-0.127-0.247-0.432-0.345-0.674c-1.237-0.713-3.691-2.291-3.949-3.945
	c-0.187-1.2,0.822-3.021-0.429-3.656c-2.162-0.046-2.755-1.852-4.206-2.693c0.054-0.324,0.061-0.701,0.257-0.865
	c-1.019-2.323-2.825-3.762-3.949-5.966c0.244-2.616-0.838-6.061-0.257-9.044c0.038-0.363-0.17-0.452-0.258-0.674
	c0.396-0.628,0.787-1.897,1.373-2.599c0.443-0.529,2.327-2.263,3.177-1.443c0.686,0.663,0.96,2.35,1.201,3.561
	c0.943-0.451,1.523-1.309,2.577-1.636c-0.193-0.731-1.234-0.714-1.718-1.251c-0.126-0.14-0.12-0.55-0.258-0.77
	c-0.277-0.443-0.635-0.388-0.688-0.77c-0.11-0.812,0.814-0.971,0.516-1.925c-0.184-0.208-0.479-0.049-0.601,0.096
	c-0.188-0.175,0.015-0.787-0.172-0.962c-0.273-0.082-0.266,0.152-0.43,0.193c-1.086-1.19-3.21-0.205-4.635-0.867
	c-0.37,0.914,0.766,0.924,0.514,2.021c0.174,0.513,0.576,0.766,0.944,1.06c-0.021,0.329-0.216,0.462-0.171,0.865
	c0.142,0.162,0.504,0.077,0.772,0.097c-0.788,1.01-1.558,2.039-2.748,2.598c-0.496-1.414-0.367-3.621-0.771-5.293
	c-0.551-2.276-2.03-3.415-2.061-6.158c1.376-0.414,1.662-2.05,2.403-3.176c-0.196-0.649-0.437-1.655,0-2.213
	c-0.718-1.625-0.567-5.186,0.172-6.639c0.766-0.042,0.948-0.288,1.632-0.289c0.727-1.162-0.346-2.304-1.116-2.694
	c-0.936-0.118-1.172,0.547-1.718,0.866c0.014,0.385-0.22,0.837,0,1.155c0.418-0.692,0.519-1.621,1.459-1.54
	c0.604,0.051,1.387,0.774,1.117,1.732c-2.923-0.667-2.563,5.439-2.233,7.313c0,0.322-0.278,0.329-0.257,0.673
	c0.528,1.496-0.158,2.832-0.858,3.752c-0.527-0.096-0.645-0.016-1.116,0.097c-0.218-0.128,0.126-0.428,0.086-0.673
	c-0.102-0.111-0.303-0.109-0.516-0.097c0.003-0.227-0.147-0.283-0.085-0.577c-1.746-1.7-2.279-4.759-4.207-6.255
	c-0.674,0.05-0.898-0.404-1.373-0.578c-0.253-0.805-0.021-1.379-0.086-2.597c-1.144-0.956-1.03-3.208-0.944-4.908
	c-1.529,0.376-0.68,3.826,0.257,4.33c0.429,1.125,0.137,2.236-0.086,3.368c0.153,0.342,0.515,0.451,0.688,0.77
	c2.897,0.378,3.43,3.405,4.55,5.773c-0.529,0.063-0.332,0.982-0.171,1.347c-1.914-0.545-4.167-0.964-5.581-2.405
	c-0.907,0.232-1.199-0.69-1.888-0.385c1.028,0.898,2.188,1.831,3.519,2.309c1.419,0.51,3.072,0.576,4.293,1.54
	c2.792,2.202,4.803,8.862,3.52,12.894c0.106,0.491,0.434,0.732,0.602,1.154c-0.941,1.929-1.55,4.23-1.976,6.735
	c-0.067,0.342-0.641,0.115-0.601,0.578c-0.17-0.065-0.196-0.292-0.344-0.385c-0.43,0.063-0.664,0.347-0.943,0.577
	c-0.771-0.808-2.369-1.188-3.177-1.635C5.55,44.75,4.7,44.13,4.085,43.247c1.005,0.866,2.334,1.872,3.863,1.829
	c-2.231-0.752-3.702-1.795-4.293-4.426c-0.194-0.871-0.027-1.8,0-2.791c0.056-1.958,0.534-3.608,1.117-5.197
	c-0.515-0.77-0.256-2.407-0.602-3.367c-0.497,0.278-0.593,1.514-0.602,2.02c-0.354,0.244-0.813,0.372-0.944,0.866
	c-0.671-0.241-1.247-0.59-1.803-0.962c-0.102,1.18,0.567,2.31,0.602,3.657c-1.851,2.765,0.962,5.664,0.171,9.141
	c0.14,0.133,0.213,0.34,0.516,0.288c0.615,2.39,2.632,3.209,4.207,4.523c1.119-0.422,1.958,0.611,2.919,1.154
	c0.369,1.129,1.52,2.81,0.772,4.618c-0.038,0.363,0.169,0.452,0.257,0.674c-0.258,0.644-0.534,1.234-0.343,1.925
	c0.694,0.625,1.959,0.309,2.832,0.097c0.254,0.586,0.821,0.837,1.031,1.54c0.184,0.615-0.119,1.601,0.859,1.636
	c0.118,1.299,0.976,1.364,0.771,2.693c-0.128,0.84-1.194,2.01-2.06,2.311c-0.147,0.051-0.378-0.074-0.516,0
	c-0.145,0.075-0.289,0.448-0.515,0.577c-0.449,0.257-0.973,0.261-0.945,1.058c-0.081,0.35,0.371,0.1,0.43,0.289
	c-0.005,0.316-0.244,0.367-0.172,0.771c1.083,1.108,1.501,2.506,2.404,3.656c0.51,0.649,1.25,0.754,1.889,1.252
	c0.531,0.411,0.742,1.433,1.545,1.442c0.277,0.086,0.121-0.313,0.258-0.385c0.755,0.506,2.14,0.043,3.349,0.191
	c0.212,1.189,0.049,3.265,0.686,4.619c-0.262,0.498-0.651,0.955-0.43,1.73c-0.049,0.23-0.179-0.232-0.256-0.287
	c-0.293,0.408-0.863,0.508-1.117,0.963c0.052,0.647,0.533,0.813,1.031,0.959c-0.078,0.174-0.35,0.123-0.258,0.482
	c0.172,0.41,0.706,0.504,0.687,0.865c-0.589,0.24-1.06-0.479-1.717-0.481c-0.292,0.292-0.262,1.386,0.43,1.155
	c-0.321,0.221-0.707,0.363-0.602,1.061c0.124,0.147,0.438,0.084,0.688,0.096c-0.347,0.223-0.885,0.228-1.031,0.674
	c-0.046,0.471,0.568,0.262,0.772,0.191c-0.675,0.636-0.459,1.715-1.373,2.117c0.085,0.271,0.229-0.14,0.344,0.096
	c-0.828,0.496-2.4,1.298-2.147,2.982c0.758-0.623,1.689-1.523,2.748-2.021c0.208-0.096,0.502,0.011,0.688-0.096
	c0.297-0.172,0.4-0.594,0.686-0.77c0.569-0.354,1.759-0.493,2.317-0.288c0.372-0.004,0.317-0.479,0.688-0.481
	c0.075,0.215-0.265,0.791-0.43,1.061c0.048,0.197,0.134,0.202,0.257,0.093c-0.26,1.115-1.655,1.784-1.029,3.272
	c0.976-1.402,2.276-3.783,4.035-3.365c0.363-0.458,0.919-1.396,1.115-2.021c0.825-2.646-2.888-1.502-3.176-3.562
	c0.394,0.2,0.801,0.387,1.373,0.386c0.641-1.207,1.217-2.484,2.834-2.599c-0.093-0.61,0.227-1.095,0.515-1.539
	c-0.176-0.15-0.769-0.15-0.944,0c0.112-0.679-0.694-1.093-0.343-2.021c-0.664,0.09-0.642,0.947-1.202,1.152
	c-0.435,0.078-0.013-0.421-0.602-0.288c0.3-0.562,0.366-1.385,0.944-1.637c-0.252-0.503-0.345-1.075-0.343-1.636
	c-0.625,0.306-0.611,1.109-0.945,1.636c-0.502,0.795-1.331,0.905-1.889,1.637c-0.699-0.741-0.359-2.164,0.086-2.981
	c0.362-0.666,1.048-0.901,1.373-1.348c0.427,0.344,1.032-0.104,1.289,0.385c0.666,0.016,1.484-0.465,1.889,0.097
	c3.659-0.358,6.908,0.802,10.044,1.54c0.558,0.429,1.074,0.783,1.632,0.962c3.347,1.062,7.614,2.118,9.614,5.101
	c2.303,0.529,4.621,1.042,5.667,2.981c2.521,0.252,3.143,2.636,5.409,3.177c-0.356-1.271-1.76-1.366-2.147-2.6
	c-0.646-0.332-1.224-0.744-1.801-1.153c-0.074-0.113-0.115-0.258-0.088-0.481c-0.545,0.077-0.042-0.423-0.601-0.289
	c1.011-1.619,2.725-2.94,4.896-2.693c0.541-1.251,2.965-1.319,3.947-0.481c1.139,0.779,0.736,3.281,1.975,3.946
	c-0.067-0.434-0.121-0.73-0.172-0.964c0.442,0.221,0.688-0.449,1.116-0.481c0.517-0.037,1.042,0.715,1.632,0.481
	c-0.047-0.621-0.482-0.806-0.688-1.25c0.308-1.047,0.421-2.067,1.547-2.502c0.031-0.164-0.067-0.181-0.172-0.191
	c1.021-0.627,1.712-2.002,2.832-2.215c-2.315-0.526-3.836,1.763-5.752,2.599c-0.375,0.164-1.155,0.437-1.631,0.387
	c-0.931-0.102-1.76-1.191-3.178-0.965c0.492-0.281,1.024-0.521,1.459-0.864c2.049-3.447,4.6-6.812,7.729-9.236
	c1.097-0.851,1.785-1.631,3.433-1.637c0.95-0.849,0.235-1.942,0.261-3.079c-1.396-1.321-1.563-4.68,0.943-4.521
	c0.063-0.328-0.316-0.158-0.346-0.386c-2.899,0.448-1.906,2.785-1.201,4.907c0.32,0.96,0.622,1.779,0.086,2.502
	c-2.324,0.568-3.837,2.051-5.32,3.563c-0.07,0.065-0.236,0.147-0.259,0c-1.354,1.541-2.838,3.104-4.121,5.002
	c-0.631,0.933-0.889,1.996-2.146,2.117c-0.25,0.201-0.346,0.575-0.772,0.576c-1.349,2.08-4.409,2.242-6.01,4.042
	c-0.259,0-0.515,0-0.772,0c-0.144,0.128-0.029,0.544-0.172,0.673c-1.685,0.082-2.216-1.847-4.294-1.636
	c-0.267-0.116-0.354-0.435-0.772-0.385c-0.16-0.171,0.104-0.281-0.084-0.481c-1.441-0.82-2.688-2.094-4.293-2.789
	c-1.9-0.826-3.977-1.225-5.923-2.021c-0.449-0.184-0.832-0.702-1.288-0.866c-0.332-0.12-0.85-0.022-1.288-0.096
	c-1.36-0.229-2.314-0.998-3.691-0.865c0.781-0.415,2.047-0.488,3.005-0.194c0.264-0.344,0.786-0.399,1.03-0.769
	c1.603-0.17,2.681-1.354,3.863-2.213c1.005-0.732,1.878-1.5,2.661-2.312c1.555,1.038,2.913-0.181,4.12-0.865
	c-0.31,0.551-1.54,0.903-1.46,2.213c0.069-0.051,0.141-0.1,0.259-0.096c0.19,0.065-0.456,0.502-0.086,0.77
	c0.039,0.472,0.334-0.118,0.516-0.098c-0.442,0.758-1.235,1.119-1.459,2.117c0.558-0.078,1.119-0.688,1.974-0.48
	c0.488,0.119,0.613,0.723,1.116,0.675c0.438-2.011-0.031-4.453,1.459-5.293c0.384,0.244,0.37,0.935,0.603,1.348
	c-0.111,0.484-0.666,0.472-0.688,1.058c0.75,1.016,2.709-0.125,3.861-0.191c0.043-0.689,0.592-0.813,0.859-1.25
	c0.787-0.047,1.444,0.049,2.061,0.193c0.717-0.514,1.135-1.36,1.718-2.022c-0.791,0.33-1.613,0.238-2.574,0.481
	c-0.211-0.18,0.351-0.146,0.085-0.481c-0.427-0.265-0.734,0.185-1.031,0c0.369-0.323,0.803-0.575,1.031-1.058
	c-0.314,0.031-0.761-0.082-0.945,0.097c-0.063-0.297,0.297-0.118,0.172-0.481c-0.17-0.16-0.107,0.01-0.342,0
	c-0.254-0.084,0.198-0.145,0.084-0.386c-0.938-0.229-1.502,0.65-2.66,0.482c0.011-0.312,0.621-0.777,0.688-1.349
	c0.561-0.336,1.693-0.024,1.633-1.059c-0.191-0.225-0.336,0.032-0.602,0c-0.283-0.23,0.313-0.284,0.171-0.674
	c-0.101-0.08-0.229-0.127-0.431-0.096c0.223-0.244,0.3-0.438,0.172-0.866c-0.111-0.124-0.316-0.123-0.43,0
	c0.401-0.452,0.002-0.884,0.088-1.731c-0.158-0.261-0.293-0.018-0.431-0.193c0.863-1.551,2.36-3.101,3.347-5.101
	c0.394-0.792,0.867-2.008,1.461-1.827c-0.188,0.533-0.146,1.481-0.17,2.021c0.455-0.834,1.453-1.063,1.629-2.213
	c0.664,0.57,1.461,0.994,1.804,1.924c-0.05,0.37-0.333-0.073-0.517,0.193c0.34,0.664-0.68,0.391-0.771,0.865
	c-0.133,0.342,0.292,0.057,0.259,0.288C60.533,55.54,60.229,56.551,60.238,56.631z M27.185,86.268
	c-0.362,0.388-1.436,0.077-1.803,0.193C25.583,85.784,26.676,86.001,27.185,86.268z M21.604,83.768
	c1.078-0.457,3.401-0.175,2.919,1.058C23.636,84.221,22.136,84.575,21.604,83.768z M25.553,79.34
	c0.126,0.055,0.444-0.111,0.43,0.096c-0.34,0.293-0.656,1.123-1.029,1.061C25.307,80.28,25.446,79.828,25.553,79.34z M22.377,77.896
	c-0.057,0.352,0.186,0.369,0.173,0.672c-1.02-0.666-1.043-2.911-0.774-4.232c1.23,0.196,2.01-1.089,2.663,0
	c-1.331,0.678-0.636,3.081-1.288,4.426C23.008,78.345,22.743,78.064,22.377,77.896z M41.694,70.295
	c-0.664,0.495-1.419,1.125-2.147,1.539c-0.541,0.309-1.178,0.352-1.717,0.578c-0.338,0.143-0.554,0.432-0.945,0.48
	c-1.108,0.138-2.28-0.086-3.518-0.097c-0.968,1.177-2.234,0.615-3.693,0.289c-0.129-0.146-0.025-0.549-0.343-0.481
	c-0.573-0.098-0.778,0.217-1.201,0.289c-0.307-0.267-0.78-0.346-0.945-0.771c0.747-0.827,1.727-1.198,2.747-1.249
	c2.66-0.137,5.067-1.96,7.641-2.311c0.622,0.614,1.911,0.069,1.804-0.674c1.159-0.111,1.832-0.768,2.832-1.059
	c0.033,0.421-0.244,0.495-0.257,0.865c0.517,0.394,0.748,0.897,1.545,0.771C43.125,69.161,42.399,69.768,41.694,70.295z
	 M17.998,72.7c-0.05-0.408,0.464-0.187,0.344-0.675c-0.573-0.383-0.939,0.104-1.459,0.289c-0.697-0.438-1.524-0.729-2.146-1.25
	c-0.254-1.481-1.642-2.196-1.545-3.752c-0.195,0.024-0.323-0.022-0.344-0.193c1.18-0.07,1.759-1.924,3.176-1.73
	c0.152-0.25,0.124-0.695,0.345-0.867c-0.341,1.024,0.091,2.198-0.086,3.271c-0.106,0.639-0.37,1.555,0.258,1.924
	c0.13-1.104,0.071-2.42,0.601-3.078c-0.427-0.919-0.029-2.494,0.257-3.465c-0.792-0.635-0.645-1.809-1.115-2.693
	c0.328-0.539,0.921-0.117,1.459-0.097c-0.02-0.182,0.097-0.213,0.087-0.385c-0.481-0.521-1.744-0.163-2.233-0.674
	c0.921-0.091,0.859-1.281,1.546-1.636c0.161,0.01,0.573-0.074,0.772-0.289c0.756,0.199,1.675,1.295,2.232,1.828
	c0.306,0.293,0.822,0.375,1.029,0.578c0.668,0.652,0.455,1.855,0,2.791c0.858,2.147,3.51,2.287,4.121,4.715
	c-0.299,0.112-0.573,0.254-0.857,0.385c-1.158-0.979-2.067,0.222-2.405,1.25c-0.431,1.313-0.222,3.566-0.943,4.234
	C19.797,73.115,18.966,72.999,17.998,72.7z M23.234,68.273c0.714-0.213,1.272,0.855,2.147,0.289
	c0.864,1.045-0.757,1.168-0.687,2.215c0.243,0.078,0.53,0.108,0.771,0.19c0.063,0.294-0.087,0.351-0.085,0.578
	c-1.032-0.252-1.611,1.242-2.489,1.153c0.086-0.001,0.108-0.169,0-0.192c-0.268,0.118-0.345,0.447-0.772,0.386
	C22.208,70.92,22.031,68.634,23.234,68.273z M27.357,69.717c0.289-0.061,0.438-0.275,0.857-0.191
	c0.261-0.316,0.239-0.95,0.688-1.059c0.16-0.236,0.392,0.26,0.687,0.193c0.673-0.643,1.706-0.307,2.747-0.387
	c3.271-0.25,6.405-1.439,7.984-3.271c0.65-0.755,0.748-1.458,1.717-0.771c0.348,0.578,0.079,0.961,0,1.733
	c-0.461,0.349-1.087,0.513-1.46,0.961c-4.373,0.49-6.903,2.97-11.246,3.079c-0.294-0.057-0.399-0.322-0.773-0.289
	c-0.293,0.024-0.175,0.512-0.428,0.578c-0.021-0.17,0.085-0.482-0.173-0.386c-0.542-0.125-0.443,0.466-0.772,0.577
	C27.079,70.049,27.42,70.109,27.357,69.717z M48.305,64.714c0.284,0.034,0.372,0.288,0.514,0.479
	C48.528,65.168,48.294,65.079,48.305,64.714z M46.329,63.655c0.165-0.298,0.46-0.448,0.944-0.386
	c0.139,0.485,0.638,0.57,0.687,1.154C47.708,64.227,46.633,64.118,46.329,63.655z M15.51,59.229c-0.59-0.431-1.01-1.051-1.117-2.021
	c-0.35-0.151-0.665-0.345-0.687-0.866c0.404-0.561,1.139-0.747,1.631-0.961c0-0.097,0.069-0.115,0.086-0.193
	c-0.584-1.172-0.874-2.676-0.943-4.424c0.667,0.164,1.034,1.53,1.544,2.405c0.234,0.399,0.591,0.478,0.687,0.865
	c0.116,0.464-0.11,0.896-0.256,1.251C17.414,56.555,15.957,58.073,15.51,59.229z M32.765,57.593
	c0.176-0.153,0.217-0.463,0.344-0.673c0.546,0.189,0.996,0.486,1.202,1.059C33.926,59.247,33.353,57.954,32.765,57.593z
	 M30.704,57.882c0.201,0,0.401,0,0.602,0c-0.047,0.302-0.204,0.478-0.43,0.578C30.8,58.289,30.637,58.215,30.704,57.882z
	 M33.967,56.729c0.747-0.324,1.949-0.722,1.975,0.576C35.031,57.402,34.188,57.725,33.967,56.729z M11.217,52.782
	c0.236,1.37,0.81,2.362,1.201,3.56c-0.413,0.369-1.083,0.026-1.545,0.193C11.423,55.207,11.13,54.299,11.217,52.782z M33.623,56.055
	c0.162-1.209-0.526-1.463-0.944-2.021c0.203-0.03,0.16-0.334,0.43-0.289c0.433,1.071,1.393,1.675,2.746,1.442
	c0.033,0.357-0.347,0.252-0.257,0.674C34.973,55.826,34.409,56.559,33.623,56.055z M12.333,51.916
	c-0.36-0.525-0.969-0.773-1.116-1.539c0.497,0.004,0.989,0.805,1.373,1.251c0.299-0.082,0.434-0.349,0.516-0.674
	c-0.374-0.158-0.594-0.489-0.688-0.962c2.221-0.629,1.225,3.654,2.062,5.003c-0.38,0.153-0.98,0.057-1.203,0.386
	C12.723,54.533,12.104,53.329,12.333,51.916z M25.896,55.092c-0.335-0.459-0.404-1.215-0.772-1.637
	c-0.228-0.001-0.505,0.054-0.515-0.191c0.672,0.129,1.451-0.24,1.889-0.674C27.355,53.037,26.568,54.861,25.896,55.092z
	 M27.357,53.648c0.003-0.864-0.889-1.662-0.602-2.215c0.341,0.838,1.474,0.785,2.146,1.252
	C28.668,53.613,28.334,53.945,27.357,53.648z M31.306,53.264c0.187-0.662-0.099-1.261,0.344-1.636
	c0.657,0.084,1.127-0.213,1.545,0.097c-0.206,0.442-0.41,0.889-0.344,1.635C32.401,53.924,31.807,53.615,31.306,53.264z
	 M30.962,51.725c0.205,0.533,0.205,0.893,0,1.346c-0.396,0.06-1.107-0.217-1.718,0c0.698-0.789,1.143-1.862,1.546-2.981
	C30.904,50.704,31.15,50.982,30.962,51.725z M59.036,51.725c-0.326,0.02-0.326,0.403-0.688,0.385
	C58.396,51.838,58.895,51.57,59.036,51.725z M34.311,49.896c0.72-0.348,1.666-0.441,1.889-1.347
	c-0.087,0.579,0.485,1.165,0.43,1.636C36.098,49.512,34.874,49.865,34.311,49.896z M24.352,46.336
	c1.186-0.582,1.824-0.118,3.006-0.385c0.078,0.168,0.028,0.479,0.171,0.577c-0.241,0.545-0.899,0.682-1.116,1.347
	c-0.197,0.604,0.092,1.276-0.172,1.829C25.941,48.313,23.508,48.079,24.352,46.336z M13.534,40.754
	c-0.439,2.484,0.559,5.288,0.258,7.025c-0.635-0.367-1.138-0.067-1.975,0.192C11.621,45.521,12.084,42.403,13.534,40.754z
	 M29.674,45.278c0.375-0.511,1.159-0.563,1.718-0.867c-0.215,1.075,0.317,1.312,0.601,1.828c-0.869,0.085-0.859,1.154-1.288,1.732
	C30.502,46.916,29.62,46.621,29.674,45.278z M35.77,46.721c-0.4,0.161-0.752,0.376-1.115,0.578c-0.13-0.21-0.431-0.226-0.43-0.578
	c0.476-0.064,0.258-0.303,0.343-0.77c0.583-0.245,0.991-0.686,1.287-1.251c0.599-0.061,0.871,0.244,1.29,0.385
	c0.033,0.456-0.325,0.47-0.345,0.866c0.271,0.242,0.512,0.517,0.687,0.866c-0.545-0.35-1.116-0.095-1.201,0.577
	C36.126,47.156,36.025,46.851,35.77,46.721z M28.13,46.528c-0.093-0.249-0.312-0.357-0.345-0.673c0.46-0.659,0.61-1.544,0.601-2.502
	c0.479,0.331,0.977,0.639,1.117,1.347c-0.602,0.552,0.164,1.881,0,2.117C29.181,46.568,28.696,46.5,28.13,46.528z M34.567,42.583
	c-0.025,0.873,1.049,1.526,0.945,2.117c-0.051,0.289-0.807,0.922-1.116,0.578c0.729-0.83-0.247-2.042-1.116-2.022
	c-0.129-0.345,0.303-0.786,0.343-1.25c0.526,0.279,0.723-0.412,1.288-0.385C34.919,42.16,34.58,42.152,34.567,42.583z
	 M30.019,38.638c0.12,1.202,0.523,2.337,1.287,2.886c0.184,0.132,1.074,0.224,0.772,0.578C30.642,41.852,29.88,40.332,30.019,38.638
	z M35.77,39.408c0.374,0.031,0.301,0.562,0.344,0.962c-0.251,0.361-0.537,0.682-0.859,0.963C35.55,40.663,35.83,40.296,35.77,39.408
	z M69.08,41.236c-0.357,0.078-0.717-0.131-0.857,0C68.165,40.926,69.137,40.926,69.08,41.236z M71.396,40.563
	c0.043,0.563-0.781,0.659-1.114,0.48C70.547,40.982,71.068,40.821,71.396,40.563z M73.975,40.273c0.157,0.243,0.742,0.51,0.602,0.77
	C74.33,40.897,73.68,40.705,73.975,40.273z M72.17,38.445c0.875-1.202,1.469-2.717,2.232-4.042c0.203,0.767-0.18,1.255-0.344,2.116
	c-0.363-0.087-0.432,0.158-0.516,0.386c0.141,0.229,0.139,0.616,0.258,0.866C73.177,37.911,72.609,38.677,72.17,38.445z
	 M34.74,37.002c0.309-0.227,0.716,0.119,1.201,0C35.943,38.318,34.906,37.919,34.74,37.002z M76.377,34.5
	c0.143,1.182,0.451,2.581,0,3.079c-0.563,0.214-0.766-0.636-1.288-0.77c-0.09-1.567-0.692-4.145,0.772-4.618
	C76.329,32.552,76.268,33.586,76.377,34.5z M31.734,32.865c0.497,0.28,0.993,0.845,1.46,0.866c-0.266,0.815,0.075,1.512,0.343,2.02
	c-0.547-0.169-1.475,0.336-1.975,0.193C31.353,34.695,31.686,34.24,31.734,32.865z M1.258,35.463c0.144,0,0.286,0,0.429,0
	c0.026,0.253-0.179,0.248-0.343,0.288C1.347,35.619,1.303,35.54,1.258,35.463z M38.088,34.019c0.736,0.26,1.874-0.062,2.403,0
	C39.941,34.436,38.642,34.56,38.088,34.019z M36.629,31.421c-0.424-1.962,1.364-2.439,1.974-3.464
	c0.237,0.279,0.542,0.483,0.601,0.962c-0.685,1.125-2.011,1.529-2.059,3.368C37.017,31.805,36.71,31.801,36.629,31.421z
	 M35.083,31.518c0.165-0.712-0.002-1.798,0.515-2.117c0.94,0.23,0.888,1.488,0.602,2.31C35.963,31.495,35.519,31.511,35.083,31.518z
	 M79.727,22.28c0.644-0.721,1.217-1.521,1.975-2.118c0.225,0.282-0.075,0.555,0,0.963c-0.163,0.299-0.702,0.176-0.773,0.578
	c0.196,0.199,0.569,0.197,0.773,0.386c-0.033,0.38-0.12,0.698-0.258,0.961C80.746,22.933,80.285,22.55,79.727,22.28z M86.164,21.992
	c-0.191,0.46-0.256,1.059-0.857,1.058C85.65,22.764,85.836,22.296,86.164,21.992z M87.623,17.469
	c0.518-0.594,2.338-1.525,2.834-0.385C89.793,17.469,88.628,17.783,87.623,17.469z"/>
</svg>
