<?xml version="1.0" encoding="utf-8"?>
<!-- Generator: Adobe Illustrator 16.0.0, SVG Export Plug-In . SVG Version: 6.00 Build 0)  -->
<!DOCTYPE svg PUBLIC "-//W3C//DTD SVG 1.1//EN" "http://www.w3.org/Graphics/SVG/1.1/DTD/svg11.dtd">
<svg version="1.1"
	 id="svg378" xmlns:cc="http://creativecommons.org/ns#" xmlns:dc="http://purl.org/dc/elements/1.1/" xmlns:rdf="http://www.w3.org/1999/02/22-rdf-syntax-ns#"
	 xmlns="http://www.w3.org/2000/svg" xmlns:xlink="http://www.w3.org/1999/xlink" x="0px" y="0px" width="144.018px" height="108px"
	 viewBox="0 0 144.018 108" enable-background="new 0 0 144.018 108" xml:space="preserve">
<path fill="#DF0000" d="M144,0H0v54h144V0z"/>
<path fill="#FFFFFF" d="M144,54v54H0V54H144z M18.253,23.834c1.57-7.529,7.129-13.068,14.606-14.783l0,0
	c-3.604-1.012-6.922-1.006-10.522,0.021C12.077,11.997,6.124,22.699,9.048,32.959c2.926,10.26,13.626,16.213,23.982,13.26
	C22.78,44.082,16.118,34.064,18.253,23.834z M29.219,22.609l-1.132-3.391l-1.11,3.398l-3.572,0.031l2.889,2.104l-1.076,3.407
	l2.896-2.096l2.91,2.076l-1.102-3.401l2.874-2.124L29.219,22.609z M33.17,34.323l-1.132-3.39l-1.109,3.398l-3.572,0.031l2.889,2.104
	l-1.076,3.407l2.896-2.097l2.91,2.078l-1.101-3.402l2.873-2.124L33.17,34.323z M46.315,34.238l-1.132-3.391l-1.109,3.399
	l-3.571,0.03l2.888,2.104l-1.076,3.407l2.896-2.096l2.91,2.076l-1.103-3.401l2.874-2.124L46.315,34.238z M53.812,22.625
	l-3.575-0.005l-1.132-3.392l-1.108,3.399l-3.572,0.031l2.887,2.104l-1.076,3.407l2.896-2.097l2.91,2.076l-1.103-3.401L53.812,22.625
	z M40.53,17.042l2.874-2.125l-3.573-0.005l-1.134-3.391l-1.108,3.398l-3.572,0.031l2.888,2.104l-1.074,3.407l2.896-2.096l2.91,2.077
	L40.53,17.042z"/>
</svg>
