<?xml version="1.0" encoding="utf-8"?>
<!-- Generator: Adobe Illustrator 16.0.0, SVG Export Plug-In . SVG Version: 6.00 Build 0)  -->
<!DOCTYPE svg PUBLIC "-//W3C//DTD SVG 1.1//EN" "http://www.w3.org/Graphics/SVG/1.1/DTD/svg11.dtd">
<svg version="1.1" id="Layer_1" xmlns="http://www.w3.org/2000/svg" xmlns:xlink="http://www.w3.org/1999/xlink" x="0px" y="0px"
	 width="100px" height="100px" viewBox="0 0 100 100" enable-background="new 0 0 100 100" xml:space="preserve">
<path fill="#FCBB30" d="M10.555,48.071c0-0.622-0.503-1.126-1.125-1.126c-0.622,0-1.125,0.504-1.125,1.126
	c0,0.622,0.503,1.125,1.125,1.125C10.052,49.196,10.555,48.692,10.555,48.071z M11.153,54.9c-0.108-0.612-0.692-1.021-1.304-0.914
	c-0.612,0.108-1.021,0.693-0.913,1.306c0.108,0.613,0.691,1.021,1.304,0.913C10.852,56.098,11.261,55.514,11.153,54.9z
	 M11.485,60.852c-0.584,0.213-0.885,0.858-0.673,1.443c0.214,0.584,0.859,0.885,1.443,0.673c0.585-0.214,0.885-0.858,0.673-1.442
	C12.714,60.939,12.069,60.641,11.485,60.852z M9.849,42.153c0.612,0.108,1.196-0.301,1.304-0.913
	c0.108-0.612-0.301-1.196-0.913-1.304c-0.612-0.107-1.196,0.301-1.304,0.913C8.829,41.461,9.237,42.044,9.849,42.153z
	 M12.255,33.174c-0.584-0.212-1.229,0.088-1.443,0.673c-0.212,0.584,0.089,1.23,0.673,1.442c0.584,0.213,1.229-0.089,1.442-0.673
	C13.141,34.033,12.84,33.387,12.255,33.174z M14.289,28.814c0.538,0.311,1.227,0.126,1.537-0.412
	c0.311-0.538,0.126-1.227-0.412-1.538c-0.539-0.31-1.227-0.125-1.538,0.412C13.565,27.815,13.75,28.504,14.289,28.814z
	 M19.759,22.785c0.4-0.476,0.337-1.186-0.139-1.585c-0.476-0.4-1.187-0.338-1.586,0.139c-0.399,0.476-0.338,1.185,0.138,1.586
	C18.648,23.324,19.359,23.262,19.759,22.785z M36.438,85.035c-0.583-0.213-1.23,0.088-1.442,0.673
	c-0.213,0.584,0.088,1.229,0.673,1.44c0.584,0.215,1.229-0.088,1.442-0.672C37.324,85.893,37.022,85.247,36.438,85.035z
	 M14.289,67.327c-0.539,0.312-0.723,0.999-0.412,1.537s0.999,0.723,1.538,0.411c0.538-0.312,0.723-0.998,0.412-1.537
	C15.515,67.201,14.826,67.018,14.289,67.327z M43.062,86.811c-0.612-0.106-1.196,0.301-1.304,0.912
	c-0.107,0.612,0.301,1.195,0.913,1.305c0.612,0.106,1.197-0.301,1.304-0.913C44.083,87.501,43.673,86.918,43.062,86.811z
	 M23.021,78.344c-0.399,0.477-0.337,1.188,0.139,1.584c0.476,0.4,1.186,0.338,1.585-0.138c0.4-0.476,0.337-1.187-0.139-1.586
	S23.42,77.866,23.021,78.344z M18.172,73.218c-0.476,0.398-0.538,1.108-0.139,1.584c0.4,0.479,1.11,0.539,1.586,0.14
	c0.476-0.398,0.539-1.107,0.139-1.586C19.358,72.879,18.648,72.816,18.172,73.218z M30.224,82.139
	c-0.538-0.313-1.227-0.129-1.538,0.41c-0.31,0.539-0.126,1.229,0.412,1.537c0.539,0.313,1.227,0.127,1.539-0.411
	C30.947,83.137,30.763,82.447,30.224,82.139z M63.348,11.106c0.582,0.213,1.229-0.087,1.44-0.671
	c0.214-0.586-0.088-1.23-0.672-1.444c-0.584-0.211-1.229,0.088-1.442,0.672C62.461,10.249,62.762,10.894,63.348,11.106z
	 M69.561,14.004c0.539,0.311,1.229,0.126,1.537-0.411c0.313-0.539,0.127-1.227-0.412-1.539c-0.537-0.311-1.226-0.126-1.537,0.413
	C68.838,13.005,69.021,13.693,69.561,14.004z M81.611,22.925c0.477-0.401,0.537-1.11,0.138-1.586
	c-0.397-0.477-1.108-0.539-1.584-0.139c-0.478,0.399-0.539,1.109-0.14,1.585C80.426,23.262,81.137,23.324,81.611,22.925z
	 M56.723,9.332c0.612,0.107,1.197-0.301,1.305-0.913c0.107-0.613-0.301-1.196-0.911-1.304c-0.612-0.107-1.196,0.301-1.306,0.912
	C55.702,8.641,56.109,9.224,56.723,9.332z M76.764,17.798c0.399-0.477,0.338-1.187-0.141-1.586
	c-0.475-0.399-1.186-0.337-1.584,0.139c-0.4,0.476-0.338,1.186,0.139,1.586C75.652,18.336,76.363,18.275,76.764,17.798z
	 M36.438,11.106c0.584-0.212,0.886-0.857,0.673-1.443c-0.212-0.584-0.858-0.884-1.442-0.672c-0.584,0.213-0.886,0.858-0.673,1.444
	C35.208,11.019,35.854,11.319,36.438,11.106z M30.224,14.004c0.539-0.311,0.723-0.999,0.413-1.537c-0.312-0.539-1-0.723-1.539-0.413
	c-0.538,0.312-0.722,1-0.412,1.539C28.997,14.13,29.686,14.314,30.224,14.004z M49.892,8.733c0.624,0,1.127-0.503,1.127-1.125
	c0-0.623-0.504-1.125-1.127-1.125c-0.621,0-1.125,0.503-1.125,1.125S49.271,8.733,49.892,8.733z M24.607,17.938
	c0.476-0.4,0.539-1.11,0.139-1.586c-0.399-0.476-1.109-0.538-1.585-0.139s-0.538,1.109-0.139,1.586
	C23.42,18.275,24.131,18.336,24.607,17.938z M43.062,9.332c0.611-0.108,1.021-0.691,0.913-1.305
	c-0.107-0.611-0.691-1.02-1.304-0.912c-0.613,0.108-1.021,0.691-0.914,1.304C41.866,9.031,42.45,9.439,43.062,9.332z M88.299,35.29
	c0.584-0.212,0.885-0.858,0.674-1.442c-0.213-0.585-0.856-0.886-1.443-0.673c-0.584,0.213-0.887,0.859-0.672,1.444
	C87.068,35.201,87.715,35.502,88.299,35.29z M90.354,46.945c-0.621,0-1.125,0.504-1.125,1.126c0,0.622,0.504,1.125,1.125,1.125
	s1.125-0.503,1.125-1.125C91.479,47.449,90.977,46.945,90.354,46.945z M75.178,78.204c-0.477,0.399-0.539,1.11-0.139,1.586
	c0.398,0.476,1.109,0.538,1.584,0.14c0.479-0.398,0.54-1.109,0.141-1.586C76.363,77.866,75.652,77.805,75.178,78.204z
	 M80.025,73.355c-0.399,0.477-0.338,1.186,0.14,1.586c0.476,0.397,1.187,0.338,1.584-0.142c0.399-0.475,0.339-1.186-0.138-1.584
	C81.137,72.816,80.426,72.879,80.025,73.355z M89.936,53.986c-0.611-0.105-1.197,0.302-1.305,0.914
	c-0.107,0.613,0.303,1.197,0.913,1.305s1.196-0.3,1.304-0.912C90.956,54.682,90.548,54.098,89.936,53.986z M56.723,86.811
	c-0.611,0.107-1.021,0.69-0.912,1.304c0.107,0.612,0.691,1.021,1.303,0.913c0.613-0.107,1.021-0.69,0.914-1.305
	C57.92,87.111,57.335,86.702,56.723,86.811z M88.631,41.24c0.107,0.613,0.691,1.021,1.305,0.913
	c0.612-0.107,1.021-0.691,0.912-1.304c-0.105-0.612-0.688-1.021-1.304-0.913C88.934,40.044,88.521,40.628,88.631,41.24z
	 M85.496,67.327c-0.538-0.312-1.227-0.126-1.537,0.411c-0.311,0.539-0.127,1.228,0.411,1.537c0.539,0.312,1.228,0.127,1.537-0.411
	C86.221,68.326,86.034,67.639,85.496,67.327z M84.37,26.864c-0.538,0.311-0.722,1-0.411,1.538c0.311,0.538,0.999,0.723,1.537,0.412
	s0.725-1,0.411-1.538C85.598,26.739,84.909,26.555,84.37,26.864z M69.561,82.139c-0.537,0.311-0.723,0.998-0.412,1.536
	c0.313,0.538,1,0.724,1.537,0.411c0.539-0.311,0.725-0.998,0.412-1.537C70.787,82.01,70.1,81.826,69.561,82.139z M49.892,87.407
	c-0.621,0-1.125,0.504-1.125,1.126c0,0.621,0.503,1.125,1.125,1.125c0.624,0,1.127-0.504,1.127-1.125
	C51.02,87.911,50.514,87.407,49.892,87.407z M88.299,60.852c-0.584-0.211-1.229,0.09-1.441,0.674
	c-0.215,0.584,0.088,1.229,0.672,1.442c0.587,0.212,1.229-0.089,1.443-0.672C89.184,61.71,88.883,61.064,88.299,60.852z
	 M63.348,85.035c-0.586,0.212-0.887,0.857-0.674,1.441s0.857,0.887,1.442,0.672c0.584-0.211,0.886-0.856,0.672-1.44
	C64.576,85.123,63.93,84.822,63.348,85.035z M31.093,20.278c0.681,1.181,2.191,1.585,3.372,0.903
	c1.18-0.681,1.585-2.191,0.903-3.372c-0.682-1.18-2.192-1.585-3.372-0.903C30.816,17.587,30.412,19.097,31.093,20.278z M75.2,69.72
	c-0.964-0.964-2.527-0.964-3.491,0s-0.965,2.526,0,3.49c0.964,0.964,2.527,0.964,3.491,0C76.165,72.246,76.165,70.684,75.2,69.72z
	 M80.747,47.901c0,1.364,1.104,2.469,2.468,2.469c1.364,0,2.469-1.105,2.469-2.469c0-1.363-1.104-2.468-2.469-2.468
	C81.854,45.434,80.747,46.539,80.747,47.901z M81.439,36.894c-1.315,0.353-2.099,1.706-1.744,3.022
	c0.353,1.317,1.705,2.1,3.021,1.746c1.317-0.353,2.1-1.707,1.745-3.023C84.111,37.322,82.758,36.54,81.439,36.894z M71.709,26.084
	c0.964,0.965,2.527,0.965,3.491,0c0.965-0.963,0.965-2.526,0-3.491c-0.964-0.963-2.527-0.963-3.491,0
	C70.745,23.558,70.745,25.121,71.709,26.084z M65.318,21.181c1.181,0.682,2.688,0.277,3.373-0.903
	c0.682-1.181,0.274-2.69-0.904-3.372c-1.18-0.682-2.689-0.277-3.371,0.903C63.734,18.99,64.139,20.5,65.318,21.181z M24.584,26.084
	c0.964,0.965,2.527,0.965,3.491,0c0.964-0.963,0.964-2.526,0-3.491c-0.964-0.963-2.527-0.963-3.491,0
	C23.62,23.558,23.62,25.121,24.584,26.084z M56.133,15.076c-0.354,1.317,0.43,2.67,1.745,3.023c1.317,0.353,2.672-0.428,3.022-1.745
	c0.354-1.317-0.428-2.671-1.746-3.023C57.839,12.977,56.484,13.759,56.133,15.076z M41.906,18.099
	c1.317-0.353,2.099-1.706,1.746-3.023c-0.354-1.317-1.707-2.099-3.023-1.745c-1.316,0.353-2.098,1.706-1.746,3.023
	C39.237,17.67,40.59,18.451,41.906,18.099z M80.889,65.797c0.682-1.181,0.276-2.689-0.902-3.371
	c-1.182-0.683-2.69-0.275-3.373,0.903c-0.682,1.182-0.275,2.69,0.902,3.372C78.697,67.382,80.207,66.979,80.889,65.797z
	 M49.892,17.047c1.364,0,2.469-1.105,2.469-2.469c0-1.364-1.104-2.468-2.469-2.468c-1.362,0-2.468,1.105-2.468,2.468
	C47.424,15.941,48.529,17.047,49.892,17.047z M84.464,57.166c0.353-1.318-0.428-2.67-1.745-3.023
	c-1.316-0.354-2.671,0.428-3.023,1.746c-0.353,1.315,0.431,2.67,1.746,3.022C82.758,59.264,84.111,58.48,84.464,57.166z
	 M34.465,74.623c-1.181-0.682-2.691-0.278-3.372,0.902c-0.682,1.182-0.277,2.688,0.903,3.371c1.18,0.683,2.69,0.276,3.372-0.902
	C36.05,76.814,35.646,75.305,34.465,74.623z M20.089,55.889c-0.354-1.318-1.706-2.1-3.023-1.746
	c-1.317,0.354-2.098,1.705-1.746,3.023c0.353,1.314,1.707,2.098,3.023,1.745C19.66,58.559,20.442,57.204,20.089,55.889z
	 M49.892,78.757c-1.362,0-2.468,1.104-2.468,2.47c0,1.362,1.106,2.467,2.468,2.467c1.364,0,2.469-1.104,2.469-2.467
	C52.361,79.859,51.256,78.757,49.892,78.757z M23.172,63.329c-0.682-1.181-2.192-1.586-3.373-0.903
	c-1.181,0.682-1.585,2.19-0.903,3.371c0.681,1.182,2.191,1.585,3.371,0.904C23.448,66.02,23.853,64.51,23.172,63.329z
	 M68.691,75.525c-0.685-1.183-2.192-1.584-3.373-0.902c-1.182,0.682-1.584,2.189-0.902,3.371c0.682,1.181,2.191,1.585,3.371,0.902
	C68.968,78.216,69.373,76.707,68.691,75.525z M43.652,80.729c0.353-1.315-0.429-2.67-1.746-3.022
	c-1.316-0.354-2.669,0.429-3.023,1.746c-0.353,1.315,0.429,2.671,1.746,3.021C41.945,82.826,43.299,82.045,43.652,80.729z
	 M28.075,69.72c-0.964-0.964-2.527-0.964-3.491,0s-0.964,2.526,0,3.49s2.526,0.964,3.491,0
	C29.039,72.246,29.039,70.684,28.075,69.72z M15.32,38.638c-0.353,1.317,0.428,2.67,1.746,3.023c1.317,0.353,2.67-0.429,3.023-1.745
	c0.353-1.317-0.429-2.671-1.746-3.023C17.027,36.54,15.673,37.322,15.32,38.638z M14.101,47.901c0,1.364,1.105,2.469,2.468,2.469
	c1.364,0,2.468-1.105,2.468-2.469c0-1.363-1.104-2.468-2.468-2.468C15.206,45.434,14.101,46.539,14.101,47.901z M18.896,30.006
	c-0.682,1.181-0.278,2.691,0.903,3.371c1.181,0.683,2.69,0.278,3.373-0.902c0.681-1.181,0.276-2.69-0.904-3.372
	S19.578,28.825,18.896,30.006z M76.611,32.475c0.683,1.18,2.193,1.585,3.373,0.902c1.181-0.68,1.584-2.19,0.904-3.371
	c-0.684-1.18-2.191-1.585-3.373-0.903C76.336,29.784,75.932,31.294,76.611,32.475z M57.878,77.704
	c-1.315,0.354-2.099,1.707-1.745,3.024c0.354,1.314,1.706,2.098,3.021,1.744c1.318-0.354,2.1-1.705,1.746-3.022
	C60.548,78.133,59.195,77.352,57.878,77.704z M68.27,26.002c-0.834-0.7-2.078-0.591-2.777,0.243c-0.7,0.834-0.592,2.078,0.242,2.777
	c0.834,0.7,2.078,0.591,2.775-0.243C69.212,27.945,69.102,26.702,68.27,26.002z M73.182,60.938c0.986,0.461,2.16,0.032,2.62-0.953
	s0.033-2.158-0.954-2.619c-0.986-0.46-2.16-0.033-2.621,0.953C71.768,59.305,72.195,60.477,73.182,60.938z M73.05,39.473
	c0.374,1.024,1.505,1.551,2.527,1.179c1.024-0.372,1.551-1.504,1.179-2.527s-1.503-1.551-2.527-1.178
	C73.205,37.318,72.68,38.451,73.05,39.473z M21.738,42.938c-0.189,1.072,0.527,2.095,1.6,2.284c1.072,0.189,2.095-0.527,2.284-1.6
	c0.189-1.072-0.527-2.095-1.6-2.283C22.95,41.149,21.928,41.866,21.738,42.938z M21.413,50.393c0.095,1.085,1.051,1.887,2.136,1.792
	c1.084-0.097,1.887-1.053,1.792-2.138c-0.095-1.085-1.051-1.887-2.135-1.792C22.12,48.353,21.318,49.309,21.413,50.393z
	 M41.463,24.744c1.023-0.372,1.551-1.504,1.179-2.527c-0.372-1.023-1.504-1.551-2.527-1.178c-1.023,0.372-1.55,1.504-1.178,2.526
	C39.309,24.588,40.44,25.116,41.463,24.744z M29.22,64.783c0.892-0.625,1.109-1.854,0.484-2.746
	c-0.624-0.893-1.854-1.107-2.746-0.482c-0.892,0.623-1.108,1.854-0.484,2.745C27.099,65.191,28.328,65.408,29.22,64.783z
	 M31.516,69.802c0.834,0.7,2.078,0.591,2.778-0.243c0.7-0.834,0.591-2.078-0.243-2.775c-0.835-0.699-2.079-0.594-2.777,0.24
	C30.574,67.857,30.683,69.102,31.516,69.802z M58.32,71.061c-1.022,0.373-1.551,1.504-1.178,2.527
	c0.371,1.021,1.504,1.551,2.524,1.178c1.022-0.371,1.554-1.502,1.181-2.525C60.477,71.216,59.344,70.688,58.32,71.061z
	 M70.563,31.021c-0.891,0.625-1.106,1.854-0.482,2.745c0.625,0.892,1.854,1.109,2.747,0.484c0.892-0.624,1.106-1.854,0.483-2.745
	C72.686,30.613,71.456,30.396,70.563,31.021z M78.045,52.866c0.189-1.072-0.525-2.095-1.598-2.284
	c-1.073-0.189-2.096,0.527-2.285,1.602c-0.188,1.069,0.527,2.092,1.6,2.282C76.834,54.654,77.857,53.939,78.045,52.866z
	 M25.555,58.857c1.023-0.373,1.55-1.504,1.179-2.526c-0.373-1.022-1.504-1.552-2.528-1.179c-1.022,0.373-1.55,1.504-1.178,2.527
	C23.401,58.702,24.532,59.23,25.555,58.857z M63.543,70.836c0.625,0.893,1.855,1.107,2.746,0.482
	c0.893-0.623,1.109-1.854,0.484-2.744c-0.625-0.895-1.854-1.109-2.746-0.484C63.137,68.714,62.92,69.943,63.543,70.836z
	 M69.016,66.521c0.834,0.697,2.076,0.59,2.775-0.244c0.7-0.834,0.592-2.077-0.241-2.777c-0.834-0.699-2.079-0.592-2.778,0.243
	C68.07,64.577,68.182,65.82,69.016,66.521z M78.371,45.41c-0.096-1.084-1.051-1.887-2.137-1.792
	c-1.084,0.094-1.887,1.051-1.791,2.136c0.095,1.084,1.05,1.886,2.135,1.792C77.663,47.452,78.466,46.495,78.371,45.41z
	 M52.041,72.453c-1.086,0.095-1.888,1.051-1.793,2.136c0.096,1.085,1.052,1.888,2.135,1.792c1.085-0.096,1.889-1.051,1.793-2.136
	C54.081,73.159,53.125,72.357,52.041,72.453z M45.613,72.172c-1.073-0.189-2.095,0.527-2.284,1.6
	c-0.189,1.073,0.527,2.097,1.6,2.283c1.072,0.19,2.094-0.525,2.284-1.599C47.403,73.382,46.685,72.359,45.613,72.172z M30.77,29.283
	c-0.834-0.699-2.077-0.592-2.778,0.243c-0.699,0.833-0.591,2.078,0.244,2.778c0.834,0.699,2.078,0.59,2.777-0.243
	C31.713,31.226,31.604,29.983,30.77,29.283z M36.241,24.968c-0.625-0.892-1.854-1.108-2.746-0.484
	c-0.891,0.625-1.108,1.854-0.484,2.746c0.625,0.893,1.854,1.108,2.746,0.484C36.648,27.089,36.865,25.86,36.241,24.968z
	 M47.745,23.35c1.084-0.094,1.887-1.051,1.792-2.135c-0.094-1.084-1.051-1.888-2.135-1.792c-1.085,0.094-1.888,1.051-1.793,2.135
	C45.704,22.643,46.66,23.446,47.745,23.35z M26.603,34.867c-0.987-0.46-2.16-0.033-2.62,0.953c-0.46,0.987-0.034,2.16,0.954,2.62
	c0.987,0.461,2.16,0.034,2.621-0.953C28.017,36.5,27.59,35.327,26.603,34.867z M54.173,23.631c1.071,0.189,2.095-0.527,2.283-1.6
	c0.188-1.072-0.526-2.095-1.601-2.284c-1.07-0.189-2.094,0.527-2.285,1.6C52.383,22.42,53.1,23.442,54.173,23.631z M40.43,72.855
	c0.461-0.985,0.033-2.157-0.953-2.617c-0.986-0.461-2.16-0.034-2.62,0.951c-0.46,0.987-0.033,2.162,0.954,2.621
	C38.797,74.271,39.97,73.845,40.43,72.855z M59.354,22.946c-0.461,0.986-0.033,2.16,0.953,2.62s2.16,0.034,2.62-0.954
	c0.46-0.986,0.034-2.159-0.952-2.619C60.986,21.532,59.813,21.959,59.354,22.946z M47.989,69.654
	c0.828,0.072,1.559-0.541,1.631-1.37c0.073-0.828-0.54-1.56-1.369-1.632c-0.828-0.071-1.558,0.541-1.631,1.369
	C46.548,68.852,47.16,69.582,47.989,69.654z M62.416,30.016c-0.682-0.477-1.621-0.312-2.096,0.37
	c-0.479,0.681-0.313,1.621,0.369,2.098c0.681,0.476,1.619,0.311,2.096-0.37C63.264,31.432,63.098,30.492,62.416,30.016z
	 M64.313,35.802c0.535,0.638,1.483,0.721,2.121,0.188c0.637-0.536,0.721-1.485,0.187-2.122c-0.534-0.637-1.481-0.719-2.121-0.186
	C63.859,34.215,63.777,35.166,64.313,35.802z M42.424,68.419c0.782,0.285,1.645-0.117,1.931-0.899
	c0.284-0.778-0.12-1.646-0.901-1.93c-0.782-0.283-1.646,0.119-1.929,0.899C41.24,67.271,41.643,68.136,42.424,68.419z M51.795,26.15
	c-0.828-0.073-1.558,0.54-1.631,1.369c-0.073,0.828,0.54,1.559,1.369,1.631c0.828,0.072,1.559-0.541,1.63-1.369
	C53.234,26.953,52.624,26.223,51.795,26.15z M31.14,46.261c0.073-0.828-0.54-1.558-1.369-1.632c-0.828-0.072-1.558,0.542-1.631,1.37
	c-0.072,0.829,0.542,1.559,1.369,1.631C30.338,47.703,31.068,47.089,31.14,46.261z M32.104,57.857
	c0.754-0.353,1.08-1.248,0.729-2.002s-1.247-1.078-2.001-0.729c-0.753,0.353-1.079,1.248-0.729,2.001
	C30.455,57.883,31.351,58.21,32.104,57.857z M35.473,60.001c-0.535-0.637-1.484-0.72-2.122-0.187
	c-0.637,0.535-0.72,1.483-0.186,2.123c0.535,0.637,1.484,0.721,2.122,0.185C35.924,61.588,36.007,60.639,35.473,60.001z
	 M67.682,37.946c-0.755,0.351-1.08,1.247-0.729,2c0.354,0.753,1.248,1.08,2.002,0.729c0.754-0.352,1.08-1.248,0.729-2.001
	C69.33,37.92,68.434,37.595,67.682,37.946z M29.374,40.434c-0.284,0.782,0.119,1.646,0.9,1.93c0.782,0.284,1.645-0.118,1.93-0.899
	c0.285-0.781-0.118-1.646-0.9-1.931C30.522,39.25,29.658,39.652,29.374,40.434z M32.006,35.377c-0.477,0.681-0.312,1.62,0.369,2.097
	c0.682,0.477,1.621,0.312,2.097-0.369c0.478-0.682,0.312-1.621-0.369-2.098C33.422,34.53,32.483,34.696,32.006,35.377z
	 M37.368,65.788c0.681,0.478,1.62,0.312,2.097-0.37c0.478-0.682,0.312-1.62-0.369-2.098c-0.681-0.479-1.62-0.313-2.097,0.369
	C36.521,64.372,36.687,65.313,37.368,65.788z M30.133,52.916c0.819-0.145,1.366-0.927,1.222-1.746
	c-0.145-0.818-0.926-1.366-1.745-1.221c-0.819,0.145-1.367,0.925-1.222,1.744C28.534,52.514,29.314,53.061,30.133,52.916z
	 M57.359,27.384c-0.78-0.285-1.646,0.119-1.93,0.9c-0.285,0.781,0.118,1.646,0.897,1.93c0.78,0.284,1.646-0.118,1.93-0.899
	C58.544,28.532,58.143,27.668,57.359,27.384z M57.848,64.962c-0.754,0.353-1.08,1.247-0.729,2.001s1.247,1.08,2,0.729
	c0.755-0.352,1.08-1.246,0.729-2C59.497,64.938,58.602,64.609,57.848,64.962z M70.174,45.854c0.818-0.144,1.366-0.925,1.223-1.744
	c-0.145-0.819-0.926-1.366-1.744-1.222c-0.818,0.145-1.366,0.926-1.223,1.745C68.575,45.452,69.355,46,70.174,45.854z
	 M46.624,29.364c0.819-0.146,1.366-0.925,1.222-1.744c-0.145-0.819-0.925-1.366-1.744-1.221c-0.82,0.144-1.367,0.925-1.222,1.744
	C45.024,28.962,45.805,29.509,46.624,29.364z M67.777,60.426c0.479-0.681,0.312-1.619-0.368-2.097
	c-0.683-0.479-1.621-0.313-2.099,0.369c-0.479,0.682-0.313,1.62,0.369,2.098C66.361,61.271,67.302,61.107,67.777,60.426z
	 M35.857,31.175c-0.637,0.535-0.721,1.485-0.186,2.122c0.534,0.637,1.484,0.72,2.122,0.186c0.637-0.535,0.721-1.484,0.185-2.122
	C37.444,30.724,36.493,30.641,35.857,31.175z M63.927,64.628c0.638-0.535,0.72-1.483,0.188-2.121
	c-0.535-0.638-1.485-0.721-2.123-0.187c-0.637,0.535-0.721,1.484-0.186,2.121C62.34,65.079,63.29,65.163,63.927,64.628z
	 M70.409,55.37c0.284-0.782-0.118-1.646-0.899-1.931c-0.781-0.284-1.646,0.117-1.929,0.898c-0.285,0.781,0.116,1.646,0.899,1.932
	C69.262,56.555,70.126,56.15,70.409,55.37z M70.014,51.174c0.828,0.072,1.56-0.541,1.631-1.37c0.072-0.828-0.539-1.559-1.369-1.631
	c-0.828-0.072-1.559,0.541-1.631,1.368C68.572,50.371,69.186,51.102,70.014,51.174z M53.161,66.439
	c-0.819,0.144-1.366,0.924-1.222,1.742c0.144,0.818,0.926,1.366,1.744,1.224c0.817-0.146,1.364-0.927,1.221-1.745
	C54.762,66.841,53.98,66.295,53.161,66.439z M41.938,30.842c0.753-0.351,1.08-1.247,0.728-2.001
	c-0.352-0.753-1.248-1.08-2.001-0.728c-0.753,0.351-1.08,1.247-0.728,2C40.288,30.868,41.184,31.194,41.938,30.842z M35.338,47.901
	c0-0.643-0.522-1.164-1.164-1.164c-0.644,0-1.165,0.521-1.165,1.164s0.521,1.165,1.165,1.165
	C34.816,49.066,35.338,48.544,35.338,47.901z M35.011,42.709c-0.621-0.167-1.26,0.202-1.425,0.823
	c-0.167,0.621,0.202,1.259,0.823,1.426c0.622,0.166,1.259-0.203,1.426-0.824C36,43.514,35.632,42.876,35.011,42.709z M35.011,53.094
	c0.621-0.164,0.99-0.804,0.823-1.425s-0.804-0.989-1.426-0.824c-0.621,0.167-0.99,0.806-0.823,1.425
	C33.751,52.893,34.39,53.262,35.011,53.094z M61.83,58.193c-0.455-0.455-1.191-0.455-1.646,0c-0.453,0.455-0.453,1.19,0,1.646
	c0.455,0.455,1.191,0.454,1.646,0C62.284,59.385,62.284,58.648,61.83,58.193z M37.954,37.61c0.455,0.455,1.192,0.455,1.647,0
	c0.454-0.455,0.454-1.191,0-1.646c-0.455-0.455-1.192-0.455-1.647,0C37.5,36.418,37.5,37.156,37.954,37.61z M66.773,47.901
	c0-0.643-0.521-1.164-1.164-1.164c-0.644,0-1.164,0.521-1.164,1.164s0.521,1.165,1.164,1.165
	C66.254,49.066,66.773,48.544,66.773,47.901z M65.376,44.959c0.621-0.167,0.989-0.806,0.823-1.426
	c-0.166-0.622-0.805-0.99-1.426-0.823s-0.989,0.805-0.823,1.426C64.117,44.756,64.754,45.125,65.376,44.959z M48.728,32.183
	c0,0.643,0.521,1.165,1.164,1.165c0.644,0,1.165-0.522,1.165-1.165c0-0.642-0.521-1.164-1.165-1.164
	C49.249,31.02,48.728,31.541,48.728,32.183z M62.922,39.034c-0.557,0.321-0.747,1.034-0.427,1.591
	c0.321,0.557,1.034,0.748,1.592,0.426c0.558-0.322,0.748-1.034,0.427-1.59C64.191,38.904,63.479,38.713,62.922,39.034z
	 M43.042,33.707c-0.322-0.557-1.034-0.748-1.591-0.426c-0.557,0.321-0.748,1.034-0.426,1.591c0.322,0.557,1.034,0.747,1.591,0.426
	C43.172,34.976,43.363,34.264,43.042,33.707z M64.773,53.094c0.621,0.167,1.26-0.201,1.426-0.822s-0.202-1.26-0.823-1.426
	c-0.622-0.166-1.259,0.204-1.426,0.824C63.784,52.29,64.152,52.93,64.773,53.094z M58.334,33.281c-0.559-0.322-1.27-0.13-1.59,0.426
	c-0.322,0.557-0.133,1.269,0.425,1.591c0.558,0.321,1.269,0.13,1.593-0.426C59.081,34.314,58.891,33.602,58.334,33.281z
	 M36.862,39.034c-0.558-0.321-1.269-0.13-1.591,0.427c-0.321,0.556-0.13,1.268,0.426,1.59c0.558,0.322,1.269,0.131,1.591-0.426
	C37.609,40.068,37.418,39.355,36.862,39.034z M53.659,61.96c-0.621,0.167-0.989,0.806-0.823,1.426
	c0.166,0.621,0.805,0.99,1.426,0.824c0.622-0.167,0.99-0.806,0.824-1.427C54.919,62.161,54.279,61.794,53.659,61.96z M45.522,64.21
	c0.622,0.166,1.26-0.203,1.426-0.824c0.167-0.62-0.203-1.259-0.823-1.426c-0.621-0.166-1.259,0.201-1.426,0.823
	C44.533,63.404,44.901,64.043,45.522,64.21z M36.862,56.77c0.556-0.319,0.747-1.033,0.426-1.59
	c-0.321-0.558-1.033-0.748-1.591-0.427c-0.557,0.321-0.748,1.034-0.426,1.591S36.304,57.091,36.862,56.77z M41.451,62.521
	c0.558,0.32,1.269,0.131,1.591-0.427c0.321-0.558,0.131-1.27-0.426-1.59c-0.558-0.321-1.27-0.132-1.591,0.427
	C40.703,61.488,40.894,62.201,41.451,62.521z M54.262,31.594c-0.621-0.166-1.26,0.202-1.426,0.824
	c-0.166,0.621,0.203,1.259,0.823,1.426s1.259-0.203,1.427-0.823C55.252,32.399,54.884,31.761,54.262,31.594z M39.601,58.193
	c-0.455-0.455-1.192-0.455-1.647,0c-0.454,0.455-0.454,1.19,0,1.646c0.455,0.454,1.192,0.454,1.647,0
	C40.055,59.385,40.055,58.648,39.601,58.193z M60.184,37.61c0.455,0.455,1.191,0.455,1.646,0c0.454-0.455,0.454-1.192,0-1.646
	c-0.455-0.455-1.191-0.455-1.646,0C59.73,36.419,59.729,37.156,60.184,37.61z M51.057,63.62c0-0.644-0.521-1.165-1.165-1.165
	c-0.643,0-1.164,0.521-1.164,1.165s0.521,1.164,1.164,1.164S51.057,64.264,51.057,63.62z M56.743,62.098
	c0.321,0.558,1.032,0.746,1.591,0.426c0.557-0.32,0.747-1.033,0.428-1.592c-0.324-0.557-1.035-0.748-1.593-0.425
	C56.611,60.827,56.422,61.539,56.743,62.098z M62.922,56.77c0.559,0.321,1.27,0.131,1.592-0.426c0.321-0.557,0.131-1.27-0.427-1.591
	s-1.269-0.131-1.59,0.427C62.175,55.736,62.365,56.448,62.922,56.77z M46.125,33.844c0.621-0.167,0.99-0.805,0.823-1.426
	c-0.166-0.622-0.805-0.99-1.426-0.824c-0.621,0.167-0.99,0.805-0.823,1.427C44.865,33.641,45.504,34.011,46.125,33.844z
	 M60.624,43.071c-0.451,0.164-0.685,0.663-0.521,1.114c0.164,0.452,0.664,0.684,1.113,0.52s0.686-0.663,0.521-1.113
	C61.574,43.139,61.073,42.907,60.624,43.071z M48.003,36.286c0.042,0.479,0.463,0.832,0.942,0.79
	c0.477-0.042,0.831-0.464,0.79-0.941c-0.042-0.479-0.464-0.833-0.942-0.791C48.315,35.385,47.961,35.808,48.003,36.286z
	 M54.064,36.898c-0.203,0.435-0.017,0.952,0.42,1.155c0.436,0.203,0.953,0.015,1.156-0.42c0.201-0.436,0.014-0.953-0.424-1.155
	C54.784,36.274,54.268,36.462,54.064,36.898z M47.704,60.314c0.472,0.084,0.924-0.23,1.007-0.705
	c0.083-0.474-0.233-0.922-0.705-1.006c-0.474-0.084-0.924,0.231-1.007,0.705C46.915,59.781,47.23,60.232,47.704,60.314z
	 M52.081,35.487c-0.472-0.083-0.923,0.232-1.006,0.705c-0.085,0.473,0.231,0.924,0.704,1.007c0.472,0.083,0.924-0.232,1.008-0.705
	C52.869,36.022,52.555,35.57,52.081,35.487z M43.014,57.451c0.309-0.368,0.261-0.916-0.106-1.225
	c-0.368-0.312-0.917-0.263-1.225,0.105c-0.309,0.367-0.261,0.916,0.108,1.225C42.158,57.866,42.706,57.818,43.014,57.451z
	 M45.581,36.056c-0.451,0.164-0.683,0.663-0.52,1.114c0.164,0.452,0.663,0.685,1.114,0.52c0.452-0.164,0.685-0.663,0.52-1.114
	C46.53,36.125,46.032,35.892,45.581,36.056z M59.007,40.458c-0.394,0.275-0.487,0.818-0.214,1.21
	c0.275,0.394,0.818,0.489,1.212,0.214c0.394-0.276,0.488-0.818,0.214-1.211C59.943,40.278,59.4,40.183,59.007,40.458z M58.102,39.47
	c0.311-0.368,0.262-0.916-0.104-1.224c-0.368-0.309-0.917-0.261-1.226,0.107c-0.31,0.367-0.26,0.917,0.106,1.225
	C57.245,39.886,57.794,39.838,58.102,39.47z M62.307,50.091c0.084-0.473-0.23-0.924-0.705-1.007
	c-0.474-0.083-0.924,0.232-1.006,0.705c-0.084,0.473,0.23,0.925,0.703,1.008C61.771,50.879,62.223,50.564,62.307,50.091z
	 M61.508,46.013c-0.479,0.042-0.831,0.464-0.791,0.942c0.043,0.478,0.465,0.832,0.942,0.79c0.479-0.042,0.832-0.464,0.791-0.941
	C62.408,46.324,61.984,45.971,61.508,46.013z M60.162,53.648c0.436,0.203,0.951,0.017,1.154-0.42s0.016-0.953-0.422-1.154
	c-0.436-0.202-0.951-0.016-1.153,0.419C59.538,52.93,59.729,53.447,60.162,53.648z M58.216,54.887
	c-0.308,0.368-0.26,0.916,0.108,1.228c0.367,0.309,0.914,0.26,1.225-0.108c0.309-0.365,0.262-0.915-0.107-1.225
	C59.073,54.473,58.525,54.52,58.216,54.887z M42.662,37.576c-0.393,0.276-0.489,0.817-0.213,1.211
	c0.276,0.394,0.817,0.489,1.211,0.214c0.394-0.276,0.488-0.818,0.213-1.211C43.598,37.396,43.055,37.301,42.662,37.576z
	 M51.781,59.518c-0.043-0.479-0.465-0.832-0.942-0.789c-0.478,0.041-0.832,0.463-0.79,0.94c0.042,0.479,0.463,0.832,0.942,0.79
	C51.471,60.418,51.822,59.996,51.781,59.518z M40.777,55.346c0.393-0.275,0.489-0.815,0.213-1.211
	c-0.274-0.393-0.816-0.488-1.21-0.214c-0.394,0.277-0.489,0.818-0.213,1.211C39.841,55.525,40.385,55.621,40.777,55.346z
	 M38.276,49.792c0.479-0.042,0.833-0.464,0.791-0.942c-0.042-0.479-0.462-0.833-0.942-0.791c-0.478,0.042-0.832,0.464-0.79,0.942
	S37.798,49.833,38.276,49.792z M54.204,59.748c0.45-0.165,0.685-0.663,0.521-1.115c-0.164-0.451-0.664-0.684-1.115-0.52
	c-0.449,0.164-0.685,0.662-0.52,1.113C53.255,59.677,53.753,59.912,54.204,59.748z M45.72,58.906
	c0.204-0.438,0.016-0.952-0.42-1.155s-0.953-0.015-1.155,0.42c-0.204,0.435-0.015,0.952,0.421,1.156
	C45,59.529,45.518,59.341,45.72,58.906z M57.123,58.229c0.393-0.274,0.488-0.816,0.213-1.211c-0.275-0.394-0.816-0.487-1.211-0.215
	c-0.395,0.276-0.486,0.818-0.213,1.211C56.188,58.408,56.73,58.504,57.123,58.229z M38.567,51.1
	c-0.451,0.164-0.685,0.662-0.52,1.113c0.164,0.451,0.664,0.684,1.114,0.52c0.45-0.164,0.684-0.662,0.52-1.112
	C39.517,51.167,39.017,50.934,38.567,51.1z M41.568,40.917c0.308-0.368,0.26-0.916-0.107-1.225
	c-0.368-0.308-0.917-0.261-1.225,0.107c-0.309,0.369-0.261,0.917,0.106,1.225C40.711,41.333,41.259,41.284,41.568,40.917z
	 M37.479,45.713c-0.084,0.473,0.232,0.923,0.705,1.007c0.473,0.084,0.923-0.232,1.006-0.706c0.084-0.472-0.231-0.923-0.705-1.007
	C38.012,44.924,37.562,45.24,37.479,45.713z M39.622,42.154c-0.434-0.203-0.952-0.015-1.154,0.42
	c-0.203,0.436-0.015,0.952,0.421,1.155c0.435,0.203,0.951,0.015,1.155-0.42C40.246,42.875,40.057,42.357,39.622,42.154z
	 M52.176,39.813c-0.117,0.321,0.051,0.678,0.371,0.796c0.322,0.117,0.68-0.049,0.796-0.372c0.118-0.323-0.049-0.679-0.37-0.795
	C52.648,39.323,52.294,39.49,52.176,39.813z M49.781,56.307c0.029-0.341-0.223-0.643-0.565-0.672
	c-0.341-0.029-0.643,0.223-0.672,0.564c-0.03,0.342,0.222,0.643,0.564,0.673C49.449,56.9,49.75,56.648,49.781,56.307z
	 M51.241,39.604c0.03-0.341-0.222-0.642-0.564-0.672c-0.342-0.03-0.643,0.222-0.673,0.563c-0.03,0.342,0.224,0.643,0.564,0.674
	C50.91,40.199,51.212,39.946,51.241,39.604z M56.789,42.114c-0.221-0.263-0.611-0.297-0.874-0.076
	c-0.263,0.221-0.298,0.612-0.076,0.875c0.22,0.262,0.612,0.297,0.874,0.077C56.977,42.769,57.01,42.376,56.789,42.114z
	 M58.189,49.251c0.342,0.029,0.643-0.223,0.672-0.565c0.029-0.341-0.223-0.642-0.564-0.672c-0.341-0.031-0.645,0.223-0.673,0.564
	C57.596,48.919,57.848,49.222,58.189,49.251z M46.813,56.361c0.322,0.119,0.678-0.049,0.796-0.37
	c0.117-0.321-0.049-0.679-0.372-0.796c-0.322-0.116-0.679,0.049-0.795,0.371C46.324,55.891,46.49,56.245,46.813,56.361z
	 M58.256,47.058c0.338-0.06,0.563-0.382,0.504-0.72c-0.059-0.337-0.382-0.563-0.72-0.504c-0.337,0.059-0.563,0.381-0.504,0.719
	C57.596,46.892,57.918,47.117,58.256,47.058z M57.752,44.922c0.313-0.145,0.445-0.515,0.301-0.826
	c-0.145-0.31-0.515-0.444-0.826-0.3c-0.31,0.145-0.443,0.514-0.3,0.825C57.072,44.932,57.441,45.067,57.752,44.922z M43.87,53.766
	c0.262-0.221,0.297-0.609,0.076-0.873c-0.22-0.265-0.612-0.298-0.875-0.078c-0.263,0.223-0.296,0.613-0.077,0.875
	C43.215,53.953,43.607,53.986,43.87,53.766z M43.381,42.584c-0.281-0.196-0.668-0.128-0.865,0.153
	c-0.197,0.281-0.128,0.668,0.153,0.865c0.281,0.196,0.667,0.128,0.864-0.153C43.731,43.169,43.662,42.782,43.381,42.584z
	 M41.431,44.822c-0.117,0.323,0.048,0.679,0.371,0.796c0.322,0.118,0.679-0.048,0.796-0.37c0.117-0.323-0.049-0.679-0.372-0.796
	C41.905,44.334,41.548,44.5,41.431,44.822z M42.16,47.226c0.03-0.341-0.224-0.643-0.565-0.673c-0.341-0.03-0.643,0.224-0.673,0.565
	c-0.03,0.341,0.223,0.643,0.564,0.672C41.829,47.82,42.13,47.566,42.16,47.226z M44.575,54.413c-0.197,0.28-0.128,0.668,0.153,0.864
	c0.281,0.197,0.668,0.127,0.865-0.152c0.197-0.28,0.129-0.668-0.152-0.864C45.159,54.063,44.772,54.131,44.575,54.413z
	 M46.087,39.741c-0.31,0.146-0.446,0.515-0.3,0.826c0.145,0.311,0.514,0.445,0.825,0.301c0.311-0.145,0.445-0.514,0.3-0.826
	C46.768,39.731,46.398,39.597,46.087,39.741z M47.824,39.754c0.061,0.338,0.382,0.563,0.72,0.503
	c0.338-0.059,0.563-0.381,0.504-0.719c-0.061-0.338-0.382-0.563-0.72-0.504C47.991,39.094,47.766,39.416,47.824,39.754z
	 M41.745,49.969c0.337-0.06,0.563-0.381,0.503-0.719c-0.059-0.337-0.381-0.563-0.718-0.503c-0.338,0.06-0.564,0.381-0.504,0.719
	C41.084,49.803,41.407,50.028,41.745,49.969z M51.96,56.051c-0.062-0.339-0.382-0.564-0.719-0.506
	c-0.339,0.063-0.564,0.382-0.505,0.721c0.06,0.338,0.382,0.563,0.72,0.504C51.793,56.71,52.02,56.389,51.96,56.051z M44.028,41.879
	c0.22,0.262,0.612,0.297,0.874,0.076c0.263-0.22,0.297-0.611,0.077-0.874c-0.22-0.263-0.612-0.297-0.875-0.077
	C43.842,41.225,43.808,41.617,44.028,41.879z M53.697,56.063c0.311-0.146,0.445-0.515,0.302-0.822
	c-0.146-0.313-0.517-0.446-0.827-0.303c-0.311,0.146-0.443,0.516-0.3,0.824C53.016,56.072,53.387,56.206,53.697,56.063z
	 M55.757,53.925c-0.221-0.263-0.612-0.298-0.874-0.077c-0.264,0.221-0.298,0.612-0.078,0.875c0.221,0.264,0.613,0.297,0.875,0.077
	C55.941,54.579,55.977,54.188,55.757,53.925z M58.354,50.98c0.117-0.321-0.049-0.68-0.371-0.795
	c-0.32-0.118-0.678,0.049-0.795,0.372c-0.119,0.321,0.047,0.678,0.371,0.797C57.879,51.47,58.236,51.305,58.354,50.98z
	 M56.402,53.22c0.281,0.196,0.668,0.128,0.865-0.153c0.195-0.279,0.129-0.668-0.152-0.863c-0.28-0.196-0.668-0.128-0.864,0.15
	C56.055,52.636,56.123,53.021,56.402,53.22z M55.209,41.392c0.197-0.282,0.128-0.668-0.152-0.866
	c-0.281-0.197-0.668-0.128-0.863,0.152c-0.196,0.281-0.129,0.668,0.152,0.865C54.624,41.74,55.014,41.671,55.209,41.392z
	 M41.731,51.707c0.146,0.311,0.515,0.445,0.825,0.301c0.312-0.146,0.447-0.516,0.301-0.824c-0.146-0.312-0.515-0.444-0.825-0.302
	C41.722,51.025,41.586,51.396,41.731,51.707z M55.965,46.748c0.244-0.066,0.389-0.316,0.323-0.559
	c-0.065-0.245-0.315-0.388-0.56-0.323c-0.244,0.065-0.39,0.316-0.322,0.56C55.473,46.67,55.721,46.813,55.965,46.748z
	 M44.379,49.379c-0.065-0.244-0.315-0.388-0.559-0.323c-0.244,0.065-0.389,0.316-0.323,0.559c0.065,0.244,0.315,0.388,0.56,0.323
	C44.299,49.873,44.444,49.623,44.379,49.379z M44.185,47.901c0-0.251-0.205-0.457-0.457-0.457c-0.251,0-0.457,0.205-0.456,0.457
	c-0.001,0.252,0.205,0.457,0.456,0.457C43.98,48.358,44.185,48.154,44.185,47.901z M56.057,48.358c0.252,0,0.457-0.204,0.457-0.457
	c0-0.251-0.205-0.457-0.457-0.457s-0.455,0.205-0.455,0.457C55.602,48.154,55.805,48.358,56.057,48.358z M45.211,52.584
	c0.178,0.178,0.466,0.178,0.645,0s0.179-0.468,0-0.646c-0.178-0.18-0.467-0.18-0.645,0C45.032,52.116,45.032,52.406,45.211,52.584z
	 M51.93,42.065c0.064-0.243-0.08-0.493-0.322-0.559c-0.244-0.065-0.494,0.079-0.562,0.323c-0.065,0.243,0.08,0.494,0.323,0.559
	C51.613,42.454,51.863,42.31,51.93,42.065z M45.211,43.865c0.178,0.179,0.466,0.179,0.645,0c0.179-0.177,0.179-0.467,0-0.646
	c-0.178-0.178-0.467-0.178-0.645,0C45.032,43.398,45.032,43.688,45.211,43.865z M47.855,53.738
	c-0.065,0.242,0.079,0.494,0.323,0.559c0.244,0.064,0.495-0.078,0.56-0.32c0.065-0.244-0.08-0.496-0.323-0.562
	C48.171,53.35,47.921,53.494,47.855,53.738z M46.582,53.636c0.218,0.126,0.498,0.052,0.624-0.167
	c0.127-0.218,0.052-0.498-0.167-0.623c-0.219-0.127-0.498-0.052-0.625,0.166C46.288,53.23,46.363,53.51,46.582,53.636z
	 M46.582,42.168c-0.218,0.125-0.293,0.405-0.168,0.624c0.127,0.218,0.406,0.293,0.625,0.167c0.218-0.126,0.293-0.406,0.167-0.624
	C47.08,42.116,46.799,42.042,46.582,42.168z M54.574,51.938c-0.18-0.18-0.469-0.18-0.646,0c-0.179,0.18-0.179,0.47,0,0.646
	c0.178,0.178,0.467,0.178,0.646,0C54.753,52.406,54.753,52.116,54.574,51.938z M55.459,45.215c0.219-0.126,0.294-0.405,0.167-0.624
	c-0.127-0.218-0.405-0.293-0.623-0.167c-0.219,0.127-0.294,0.406-0.168,0.624C54.962,45.266,55.24,45.341,55.459,45.215z
	 M55.003,51.379c0.218,0.127,0.496,0.053,0.623-0.166c0.127-0.22,0.052-0.498-0.167-0.624s-0.497-0.052-0.624,0.167
	C54.709,50.975,54.784,51.254,55.003,51.379z M44.782,44.424c-0.218-0.126-0.497-0.051-0.624,0.167
	c-0.126,0.219-0.052,0.498,0.167,0.624c0.218,0.126,0.497,0.051,0.624-0.167C45.075,44.83,45,44.55,44.782,44.424z M54.574,43.22
	c-0.18-0.178-0.469-0.178-0.646,0c-0.179,0.179-0.179,0.468,0,0.646c0.178,0.179,0.467,0.179,0.646,0
	C54.753,43.688,54.753,43.398,54.574,43.22z M56.288,49.615c0.065-0.243-0.079-0.494-0.323-0.56
	c-0.244-0.064-0.492,0.08-0.559,0.323c-0.065,0.244,0.078,0.495,0.32,0.56C55.973,50.003,56.223,49.859,56.288,49.615z
	 M53.37,42.792c0.125-0.219,0.051-0.498-0.167-0.624c-0.219-0.126-0.498-0.052-0.624,0.167c-0.127,0.218-0.052,0.498,0.167,0.624
	C52.966,43.084,53.243,43.01,53.37,42.792z M48.178,41.506c-0.244,0.065-0.388,0.315-0.322,0.559
	c0.065,0.245,0.315,0.389,0.559,0.323c0.243-0.065,0.388-0.315,0.323-0.559C48.673,41.585,48.422,41.44,48.178,41.506z
	 M51.605,54.297c0.244-0.064,0.389-0.314,0.321-0.559c-0.063-0.244-0.313-0.389-0.56-0.323c-0.243,0.065-0.389,0.315-0.323,0.562
	C51.111,54.219,51.361,54.363,51.605,54.297z M43.497,46.188c-0.065,0.243,0.079,0.493,0.323,0.559
	c0.244,0.065,0.494-0.079,0.559-0.323c0.065-0.244-0.08-0.495-0.323-0.56C43.812,45.8,43.562,45.944,43.497,46.188z M53.203,53.636
	c0.218-0.126,0.292-0.405,0.167-0.624c-0.127-0.218-0.404-0.293-0.624-0.166c-0.219,0.125-0.294,0.404-0.166,0.623
	C52.705,53.688,52.984,53.762,53.203,53.636z M44.782,51.379c0.219-0.125,0.293-0.404,0.168-0.623
	c-0.127-0.218-0.406-0.293-0.624-0.167c-0.219,0.126-0.294,0.404-0.167,0.624C44.285,51.432,44.563,51.506,44.782,51.379z
	 M50.349,41.737c0-0.252-0.205-0.457-0.458-0.457c-0.251,0-0.456,0.205-0.457,0.457c0.001,0.252,0.206,0.457,0.457,0.457
	C50.145,42.194,50.35,41.99,50.349,41.737z M50.349,54.066c0-0.252-0.205-0.457-0.458-0.457c-0.251,0-0.456,0.205-0.456,0.457
	s0.205,0.455,0.456,0.455C50.145,54.521,50.349,54.318,50.349,54.066z M46.565,45.98c0.084-0.146,0.035-0.334-0.113-0.42
	c-0.146-0.084-0.334-0.034-0.419,0.113c-0.084,0.146-0.034,0.335,0.113,0.419C46.293,46.179,46.48,46.127,46.565,45.98z
	 M45.436,47.901c0,0.17,0.137,0.308,0.307,0.308s0.308-0.138,0.308-0.308c0-0.169-0.138-0.307-0.308-0.307
	S45.436,47.732,45.436,47.901z M45.964,49.273c0.164-0.044,0.261-0.212,0.218-0.376c-0.044-0.165-0.213-0.261-0.377-0.217
	c-0.164,0.043-0.261,0.212-0.216,0.375C45.631,49.219,45.8,49.316,45.964,49.273z M49.115,51.989
	c0.045-0.165-0.053-0.332-0.216-0.376c-0.164-0.045-0.333,0.054-0.377,0.217c-0.043,0.164,0.054,0.333,0.218,0.376
	C48.902,52.251,49.071,52.152,49.115,51.989z M45.588,46.749c-0.045,0.164,0.052,0.333,0.216,0.375
	c0.164,0.045,0.333-0.053,0.377-0.216c0.043-0.164-0.054-0.333-0.218-0.377C45.799,46.487,45.631,46.584,45.588,46.749z
	 M49.892,43.445c-0.169,0-0.307,0.138-0.307,0.307c0,0.17,0.138,0.308,0.307,0.308c0.17,0,0.308-0.138,0.308-0.308
	C50.199,43.583,50.062,43.445,49.892,43.445z M53.044,45.186c0.119-0.121,0.119-0.315,0-0.436c-0.12-0.119-0.313-0.119-0.437,0
	c-0.119,0.121-0.119,0.315,0,0.436C52.729,45.305,52.924,45.305,53.044,45.186z M46.452,50.243c0.148-0.085,0.198-0.272,0.113-0.419
	c-0.085-0.147-0.272-0.198-0.42-0.113c-0.146,0.084-0.197,0.272-0.113,0.419C46.117,50.277,46.305,50.328,46.452,50.243z
	 M52.121,51.761c0.146-0.084,0.197-0.271,0.111-0.419c-0.084-0.146-0.272-0.195-0.418-0.113c-0.147,0.086-0.198,0.274-0.113,0.422
	C51.785,51.797,51.975,51.846,52.121,51.761z M53.044,51.055c0.119-0.121,0.119-0.313,0-0.436c-0.12-0.12-0.313-0.12-0.437,0
	c-0.119,0.121-0.119,0.314,0,0.436C52.729,51.173,52.924,51.173,53.044,51.055z M52.232,44.462c0.086-0.147,0.035-0.335-0.111-0.421
	c-0.146-0.084-0.336-0.034-0.42,0.113c-0.085,0.147-0.034,0.335,0.113,0.42C51.96,44.659,52.148,44.609,52.232,44.462z
	 M51.264,43.973c0.045-0.164-0.055-0.332-0.219-0.376c-0.164-0.044-0.332,0.053-0.375,0.217c-0.044,0.165,0.053,0.332,0.217,0.376
	S51.221,44.137,51.264,43.973z M54.35,47.901c0-0.169-0.138-0.307-0.309-0.307c-0.169,0-0.309,0.138-0.309,0.307
	c0,0.17,0.14,0.308,0.309,0.308C54.212,48.209,54.35,48.071,54.35,47.901z M53.82,46.531c-0.164,0.044-0.26,0.213-0.217,0.377
	s0.213,0.261,0.377,0.216c0.164-0.043,0.26-0.211,0.217-0.375C54.152,46.584,53.984,46.487,53.82,46.531z M51.045,52.206
	c0.164-0.043,0.264-0.212,0.219-0.376c-0.043-0.163-0.213-0.262-0.377-0.217c-0.164,0.044-0.261,0.211-0.217,0.376
	C50.713,52.152,50.881,52.251,51.045,52.206z M54.197,49.055c0.043-0.163-0.053-0.332-0.217-0.375
	c-0.164-0.044-0.334,0.053-0.377,0.217s0.053,0.332,0.217,0.376C53.984,49.316,54.152,49.219,54.197,49.055z M53.221,49.823
	c-0.087,0.146-0.035,0.334,0.112,0.419c0.146,0.085,0.334,0.035,0.42-0.113c0.083-0.147,0.034-0.335-0.114-0.419
	C53.491,49.625,53.305,49.676,53.221,49.823z M48.739,43.597c-0.164,0.044-0.261,0.212-0.218,0.376
	c0.044,0.164,0.213,0.261,0.377,0.217s0.261-0.211,0.216-0.376C49.071,43.65,48.902,43.553,48.739,43.597z M49.584,52.051
	c0,0.17,0.138,0.309,0.307,0.309c0.17,0,0.308-0.139,0.308-0.309c0-0.169-0.137-0.307-0.308-0.307
	C49.722,51.744,49.584,51.882,49.584,52.051z M46.741,51.055c0.12,0.118,0.314,0.118,0.434,0c0.121-0.121,0.121-0.313,0-0.436
	c-0.12-0.12-0.314-0.12-0.434,0C46.621,50.739,46.621,50.934,46.741,51.055z M47.551,51.342c-0.085,0.147-0.034,0.335,0.112,0.419
	c0.147,0.085,0.336,0.036,0.42-0.11c0.085-0.146,0.035-0.336-0.113-0.422C47.824,51.146,47.636,51.193,47.551,51.342z
	 M47.664,44.042c-0.146,0.085-0.197,0.273-0.112,0.421c0.085,0.147,0.273,0.197,0.419,0.112c0.148-0.085,0.198-0.273,0.113-0.42
	C48,44.008,47.811,43.958,47.664,44.042z M53.333,45.56c-0.147,0.086-0.199,0.273-0.112,0.42c0.084,0.147,0.271,0.199,0.418,0.113
	c0.148-0.084,0.197-0.273,0.114-0.419C53.667,45.526,53.479,45.476,53.333,45.56z M47.175,44.75c-0.12-0.119-0.314-0.119-0.434,0
	c-0.12,0.121-0.12,0.315,0,0.436c0.12,0.119,0.314,0.119,0.434,0C47.296,45.065,47.296,44.871,47.175,44.75z M50.793,45.323
	c0.029-0.108-0.035-0.219-0.145-0.248c-0.106-0.029-0.218,0.035-0.248,0.143c-0.029,0.108,0.036,0.219,0.143,0.247
	C50.652,45.494,50.764,45.43,50.793,45.323z M51.355,50.436c0.097-0.056,0.129-0.179,0.071-0.275
	c-0.055-0.097-0.179-0.13-0.274-0.073c-0.096,0.055-0.129,0.178-0.072,0.275C51.135,50.459,51.26,50.492,51.355,50.436z
	 M51.676,49.686c-0.078,0.079-0.078,0.207,0,0.286c0.079,0.079,0.206,0.079,0.285,0c0.08-0.079,0.08-0.207,0-0.286
	C51.882,49.607,51.755,49.607,51.676,49.686z M51.961,45.832c-0.079-0.078-0.206-0.078-0.285,0c-0.078,0.08-0.078,0.208,0,0.286
	c0.079,0.079,0.206,0.079,0.285,0C52.041,46.04,52.041,45.912,51.961,45.832z M49.892,50.828c0.112,0,0.202-0.092,0.202-0.202
	s-0.09-0.201-0.202-0.201c-0.111,0-0.201,0.091-0.201,0.201S49.781,50.828,49.892,50.828z M50.648,50.729
	c0.108-0.027,0.174-0.14,0.145-0.248s-0.141-0.171-0.248-0.143c-0.107,0.029-0.171,0.14-0.143,0.248
	C50.43,50.693,50.542,50.758,50.648,50.729z M47.208,48.412c-0.107,0.029-0.171,0.139-0.142,0.248
	c0.028,0.107,0.139,0.171,0.246,0.142c0.109-0.029,0.173-0.14,0.143-0.247C47.427,48.447,47.316,48.383,47.208,48.412z M47.167,47.7
	c-0.111,0-0.201,0.09-0.201,0.202c0,0.112,0.09,0.203,0.201,0.203s0.202-0.091,0.202-0.203C47.369,47.79,47.279,47.7,47.167,47.7z
	 M52.616,48.104c0.11,0,0.202-0.091,0.202-0.203c0-0.112-0.09-0.201-0.202-0.201s-0.2,0.09-0.2,0.202
	C52.416,48.014,52.505,48.104,52.616,48.104z M52.426,49.365c0.057-0.096,0.023-0.22-0.072-0.275
	c-0.098-0.056-0.221-0.022-0.274,0.074c-0.058,0.096-0.021,0.22,0.073,0.275C52.247,49.495,52.372,49.462,52.426,49.365z
	 M52.576,47.392c0.107-0.029,0.171-0.14,0.143-0.248c-0.027-0.108-0.139-0.171-0.246-0.142c-0.106,0.028-0.173,0.139-0.144,0.247
	C52.357,47.356,52.468,47.42,52.576,47.392z M50.094,45.177c0-0.111-0.09-0.203-0.202-0.203c-0.111,0-0.201,0.092-0.201,0.203
	c0,0.111,0.09,0.202,0.201,0.202C50.003,45.379,50.094,45.289,50.094,45.177z M52.719,48.66c0.028-0.108-0.035-0.219-0.143-0.248
	c-0.108-0.029-0.219,0.035-0.247,0.143c-0.029,0.107,0.034,0.218,0.144,0.247C52.58,48.831,52.689,48.767,52.719,48.66z
	 M49.382,50.586c0.028-0.108-0.035-0.219-0.143-0.248c-0.108-0.028-0.218,0.035-0.248,0.143c-0.028,0.108,0.036,0.219,0.144,0.248
	C49.242,50.758,49.354,50.693,49.382,50.586z M52.354,46.714c0.098-0.055,0.129-0.179,0.072-0.276
	c-0.054-0.097-0.179-0.13-0.273-0.074c-0.098,0.056-0.131,0.18-0.073,0.276C52.133,46.737,52.256,46.771,52.354,46.714z
	 M47.823,49.971c0.08,0.079,0.207,0.079,0.285,0c0.078-0.079,0.079-0.207,0-0.286c-0.079-0.078-0.206-0.078-0.285,0
	C47.745,49.764,47.745,49.893,47.823,49.971z M48.429,45.367c-0.096,0.057-0.13,0.18-0.074,0.276
	c0.056,0.097,0.179,0.13,0.276,0.074c0.096-0.056,0.129-0.18,0.074-0.276C48.649,45.345,48.526,45.311,48.429,45.367z
	 M47.432,49.089c-0.096,0.055-0.129,0.179-0.074,0.275c0.056,0.097,0.179,0.13,0.276,0.074c0.097-0.055,0.13-0.179,0.074-0.275
	C47.651,49.067,47.528,49.034,47.432,49.089z M48.429,50.436c0.097,0.056,0.22,0.023,0.276-0.073
	c0.056-0.097,0.022-0.22-0.074-0.275c-0.097-0.057-0.22-0.024-0.276,0.073C48.299,50.257,48.333,50.38,48.429,50.436z
	 M47.358,46.438c-0.056,0.097-0.023,0.221,0.073,0.276c0.096,0.056,0.22,0.023,0.276-0.074c0.056-0.096,0.022-0.22-0.074-0.276
	C47.537,46.308,47.414,46.342,47.358,46.438z M49.382,45.218c-0.029-0.107-0.14-0.171-0.247-0.143
	c-0.108,0.029-0.172,0.14-0.144,0.248c0.029,0.107,0.14,0.171,0.248,0.142C49.347,45.437,49.411,45.326,49.382,45.218z
	 M48.108,46.118c0.079-0.078,0.079-0.207,0-0.286c-0.079-0.078-0.206-0.078-0.285,0c-0.078,0.08-0.078,0.208,0,0.286
	C47.902,46.197,48.029,46.197,48.108,46.118z M51.355,45.367c-0.098-0.056-0.223-0.022-0.275,0.074
	c-0.057,0.096-0.023,0.22,0.072,0.276c0.097,0.056,0.222,0.022,0.274-0.074C51.484,45.547,51.452,45.424,51.355,45.367z
	 M47.066,47.144c-0.029,0.107,0.035,0.219,0.142,0.248c0.108,0.028,0.219-0.035,0.247-0.143c0.03-0.108-0.034-0.219-0.143-0.247
	C47.205,46.973,47.094,47.037,47.066,47.144z M48.742,47.118c-0.05-0.028-0.112-0.011-0.141,0.038
	c-0.029,0.05-0.011,0.113,0.038,0.141c0.049,0.028,0.112,0.011,0.141-0.038C48.808,47.21,48.79,47.147,48.742,47.118z
	 M50.801,48.811c-0.041,0.041-0.041,0.105,0,0.145c0.04,0.041,0.105,0.041,0.145,0c0.041-0.04,0.041-0.104,0-0.145
	C50.907,48.771,50.841,48.771,50.801,48.811z M50.945,46.848c-0.038-0.04-0.104-0.04-0.146,0s-0.041,0.104,0,0.145
	c0.04,0.041,0.104,0.041,0.146,0S50.986,46.888,50.945,46.848z M51.134,48.234c-0.016,0.055,0.019,0.111,0.072,0.126
	c0.056,0.015,0.112-0.018,0.126-0.072c0.016-0.056-0.018-0.112-0.072-0.126C51.205,48.147,51.148,48.18,51.134,48.234z
	 M51.206,47.444c-0.056,0.014-0.088,0.071-0.072,0.125c0.015,0.055,0.071,0.087,0.126,0.072s0.088-0.071,0.072-0.125
	C51.318,47.461,51.262,47.429,51.206,47.444z M49.892,46.411c-0.056,0-0.102,0.046-0.102,0.103c0,0.057,0.046,0.104,0.102,0.104
	c0.058,0,0.103-0.047,0.103-0.104C49.995,46.457,49.949,46.411,49.892,46.411z M49.506,49.342c0.056,0.015,0.111-0.019,0.126-0.073
	c0.014-0.055-0.018-0.11-0.073-0.126c-0.055-0.015-0.111,0.018-0.126,0.073C49.418,49.271,49.452,49.327,49.506,49.342z
	 M51.384,47.901c0-0.057-0.047-0.103-0.104-0.103c-0.057,0-0.102,0.046-0.102,0.103s0.045,0.104,0.102,0.104
	C51.337,48.005,51.384,47.958,51.384,47.901z M48.578,48.36c0.055-0.015,0.088-0.072,0.073-0.126
	c-0.014-0.054-0.071-0.086-0.125-0.072c-0.055,0.014-0.088,0.07-0.073,0.126C48.466,48.343,48.523,48.375,48.578,48.36z
	 M48.742,48.685c0.048-0.029,0.066-0.091,0.038-0.141c-0.029-0.049-0.092-0.066-0.141-0.038c-0.048,0.028-0.066,0.091-0.037,0.141
	C48.629,48.697,48.691,48.713,48.742,48.685z M48.65,47.569c0.015-0.054-0.018-0.112-0.073-0.125
	c-0.055-0.015-0.111,0.017-0.126,0.073c-0.015,0.054,0.018,0.111,0.073,0.125C48.58,47.657,48.637,47.624,48.65,47.569z
	 M49.892,49.188c-0.056,0-0.102,0.046-0.102,0.103s0.046,0.103,0.102,0.103c0.058,0,0.103-0.046,0.103-0.103
	S49.949,49.188,49.892,49.188z M51.043,47.118c-0.049,0.029-0.066,0.092-0.038,0.141c0.029,0.049,0.093,0.066,0.142,0.038
	c0.049-0.028,0.065-0.091,0.037-0.141C51.156,47.107,51.092,47.09,51.043,47.118z M48.838,48.956c0.04,0.041,0.105,0.041,0.146,0
	c0.04-0.04,0.04-0.104,0-0.145c-0.04-0.04-0.106-0.04-0.146,0S48.798,48.916,48.838,48.956z M50.279,46.461
	c-0.056-0.015-0.112,0.018-0.126,0.073c-0.015,0.055,0.018,0.111,0.073,0.126c0.055,0.014,0.111-0.019,0.126-0.073
	C50.366,46.533,50.333,46.477,50.279,46.461z M49.146,49.193c0.049,0.029,0.113,0.012,0.141-0.038
	c0.028-0.049,0.011-0.112-0.037-0.141c-0.049-0.028-0.112-0.01-0.141,0.038C49.081,49.102,49.097,49.165,49.146,49.193z
	 M50.351,49.216c-0.016-0.055-0.071-0.088-0.126-0.073c-0.055,0.016-0.087,0.072-0.073,0.126c0.015,0.054,0.071,0.087,0.126,0.073
	C50.333,49.327,50.366,49.271,50.351,49.216z M49.433,46.588c0.016,0.054,0.071,0.086,0.126,0.073
	c0.055-0.015,0.087-0.071,0.073-0.126c-0.015-0.055-0.071-0.087-0.126-0.073C49.452,46.477,49.418,46.533,49.433,46.588z
	 M48.401,47.901c0,0.057,0.047,0.104,0.103,0.104c0.057,0,0.102-0.047,0.102-0.104s-0.045-0.103-0.102-0.103
	C48.448,47.799,48.401,47.845,48.401,47.901z M50.535,49.014c-0.048,0.029-0.066,0.092-0.038,0.141
	c0.028,0.049,0.091,0.067,0.142,0.038c0.049-0.028,0.065-0.091,0.038-0.141C50.646,49.004,50.583,48.986,50.535,49.014z
	 M49.25,46.789c0.048-0.028,0.065-0.091,0.037-0.14c-0.028-0.05-0.091-0.066-0.141-0.038c-0.05,0.028-0.065,0.091-0.038,0.14
	C49.138,46.8,49.201,46.817,49.25,46.789z M50.639,46.61c-0.05-0.028-0.113-0.012-0.142,0.038c-0.028,0.049-0.011,0.112,0.038,0.14
	c0.049,0.029,0.111,0.011,0.142-0.039C50.704,46.702,50.688,46.638,50.639,46.61z M48.983,46.993c0.04-0.041,0.04-0.105,0-0.145
	s-0.106-0.04-0.146,0s-0.04,0.104,0,0.145C48.877,47.033,48.943,47.033,48.983,46.993z M51.043,48.685
	c0.049,0.028,0.113,0.012,0.141-0.038c0.028-0.049,0.012-0.112-0.037-0.141c-0.049-0.028-0.11-0.012-0.142,0.038
	C50.977,48.594,50.994,48.656,51.043,48.685z"/>
<path fill="#662D91" d="M98.748,40.43c-0.635-1.779-2.771-3.227-5.84-4.536c1.945-1.413,3.176-2.88,3.725-4.435
	c0.697-1.981,0.27-4.033-1.277-6.097c-1.043-1.393-2.6-2.151-4.621-2.253c-4.262-0.217-10.5,2.67-17.006,6.896
	c-2.626-0.768-5.251-1.588-7.756-2.491c0.579-5.229,1.182-12.607,0.348-15.264c-0.854-2.721-2.14-4.084-2.969-4.719
	c-0.564-0.572-1.277-0.949-2.081-1.029c-2.104-0.209-4.015,1.676-4.267,4.209c-0.252,2.534,1.251,4.757,3.355,4.966
	c0.392,0.039,0.771-0.016,1.141-0.113c0.301,0.39,0.652,0.873,1.072,1.492c0.927,1.365,0.885,5.622,0.631,9.404
	c-3.342-1.353-6.352-2.891-8.693-4.701l-0.025-1.04c0,0-11.656-6.812-12.63-9.836c-0.229-0.709-0.392-1.282-0.515-1.758
	c0.305-0.232,0.584-0.499,0.795-0.833c1.13-1.788,0.303-4.34-1.849-5.701c-2.151-1.361-4.813-1.015-5.943,0.773
	c-0.429,0.678-0.573,1.467-0.473,2.258c-0.012,1.042,0.266,2.901,1.892,5.258c2.55,3.7,17.101,12.022,17.101,12.022l1.167-0.333
	c2.468,1.889,5.62,3.479,9.103,4.87c-0.239,3.083-0.582,5.624-0.582,5.624l0.9,0.738c-0.107,0.663-0.237,1.329-0.395,2.001
	c-4.777-4.122-11.594-7.149-17.904-5.808c-0.37,0.08-0.75,0.167-1.137,0.259c-2.533-5.205-5.796-9.591-10.641-9.476
	c-2.533,0.061-4.372,1.449-5.181,3.907c-0.845,2.571-0.491,6.233,0.931,10.047c-3.343,1.026-6.706,1.981-9.835,2.617
	c0.105-1.876,0.271-3.707,0.431-5.481c0.641-7.098,1.194-13.227-2.85-16.922c-2.66-2.427-5.819-2.788-8.668-0.986
	c-4.7,2.972-8.006,11.791-5.443,20.189c0.637,2.091,1.9,3.643,3.754,4.616c2.718,1.427,6.528,1.485,10.82,0.826
	c-0.048,2.087,0.01,4.246,0.239,6.442c-5.214,1.866-8.148,3.575-8.292,5.489c-0.101,1.33,1.112,2.554,3.708,3.738
	c2.385,1.092,4.655,0.994,6.899,0.281c0.045,0.109,0.078,0.223,0.125,0.332c0.794,1.886,1.753,3.566,2.82,5.085
	c-2.47,1.321-4.08,2.718-4.603,4.239c-0.283,0.822-0.383,2.102,0.742,3.515c1.581,1.985,3.538,3.031,5.815,3.112
	c2.316,0.082,4.834-0.844,7.481-2.454c1.471,0.834,2.942,1.521,4.353,2.083c-1.501,2.473-2.775,4.925-3.762,7.277
	c-3.409,8.147,0.433,14.971,5.447,17.859c4.035,2.326,8.2,1.975,10.364-0.874c2.309-3.036,2.637-8.517,2.987-14.317
	c0.136-2.267,0.28-4.643,0.551-6.971c5.413,0.44,13.403-0.363,16.584-8.084c0.384-0.933,0.617-1.849,0.74-2.751
	c2.025-1.167,4.002-2.57,5.821-4.099l2.14,1.406l0.147,7.025l5.486-4.391l6.73,2.029l-2.482-6.571l4.008-5.772l-7.021,0.325
	l-1.784-2.349c0.172-0.307,0.342-0.613,0.491-0.916c6.586-0.695,12.395-2.493,14.869-5.979
	C98.904,42.942,99.175,41.639,98.748,40.43z M61.713,11.314c-0.184,1.825-1.279,3.211-2.454,3.096
	c-1.173-0.118-1.978-1.693-1.797-3.519c0.183-1.824,1.28-3.208,2.454-3.093C61.09,7.913,61.895,9.489,61.713,11.314z M37.86,6.672
	c-1.55-0.982-2.295-2.583-1.665-3.579c0.63-0.998,2.399-1.01,3.948-0.028c1.551,0.981,2.296,2.584,1.666,3.581
	C41.179,7.641,39.41,7.653,37.86,6.672z M90.637,24.982c1.463,0.074,2.514,0.568,3.219,1.508c1.164,1.554,1.494,2.978,1.011,4.353
	c-0.538,1.524-2.048,2.938-4.077,4.22c-3.186-1.164-7.063-2.242-11.182-3.388c-1.149-0.32-2.32-0.646-3.498-0.979
	C81.802,27.134,87.087,24.802,90.637,24.982z M75.053,31.368c1.451,0.415,2.893,0.817,4.305,1.209
	c3.713,1.032,7.332,2.042,10.387,3.109c-2.357,1.332-5.234,2.507-8.085,3.5c-2.825-2.198-7.646-3.055-13.3-3.103
	C70.59,34.391,72.846,32.794,75.053,31.368z M78.617,53.405c-2.591-1.267-6.105-2.352-10.057-1.835
	c-1.664,0.215-3.271,0.703-4.826,1.451c-0.715-0.5-1.465-0.979-2.269-1.429c2.001-0.556,3.636-1.071,4.786-1.565
	c1.389,0.171,2.777,0.31,4.133,0.406c2.92,0.206,5.996,0.259,9.014,0.121L78.617,53.405z M41.938,47.061
	c3.066,0.236,6.34,0.795,9.507,1.639c-0.106,0.113-0.219,0.229-0.321,0.343l-0.653,0.709c-0.819,0.891-1.654,1.793-2.489,2.697
	c-2.76-1.639-5.659-3.432-8.323-5.408C40.4,46.997,41.16,47,41.938,47.061z M38.555,46.195c-1.56-1.234-2.941-2.629-4.146-4.107
	c3.4-0.845,7.728-1.843,12.405-2.737c0.657,1.657,1.294,3.188,1.919,4.399c0.627,1.215,2.223,2.284,4.391,3.197
	c-0.319,0.327-0.638,0.652-0.944,0.974c-3.416-0.936-6.936-1.544-10.167-1.793C40.812,46.036,39.661,46.066,38.555,46.195z
	 M51.848,51.02l0.653-0.708c0.312-0.338,0.64-0.682,0.964-1.026c0.813,0.252,1.604,0.528,2.385,0.818
	c-0.635,0.477-1.265,0.965-1.889,1.474c-0.928,0.226-1.875,0.455-2.828,0.687c-0.185,0.045-0.367,0.088-0.552,0.133
	C51.004,51.938,51.427,51.479,51.848,51.02z M58.023,48.536c-0.42,0.29-0.84,0.584-1.258,0.887
	c-0.839-0.322-1.691-0.624-2.563-0.901c0.275-0.284,0.552-0.567,0.837-0.855C55.975,47.98,56.975,48.271,58.023,48.536z
	 M55.798,46.918c1.606-1.579,3.343-3.193,5.175-4.799c-0.771,1.88-1.634,3.746-2.505,5.556
	C57.516,47.438,56.627,47.184,55.798,46.918z M54.742,53.311c0.382-0.092,0.755-0.183,1.125-0.272
	c-0.533,1.12-1.027,2.201-1.458,3.231c-0.591-0.362-1.202-0.732-1.82-1.104C53.298,54.529,54.018,53.909,54.742,53.311z
	 M54.855,57.65c0.606,0.388,1.184,0.769,1.73,1.146c-0.938,1.11-1.845,2.336-2.723,3.69c-0.045,0.07-0.081,0.144-0.125,0.213
	C53.65,61.337,54.093,59.621,54.855,57.65z M54.251,65.77c0.601,0.486,1.376,0.85,2.338,1.072c1.571,0.366,3.36,0.293,5.25-0.115
	c-0.032,0.114-0.051,0.229-0.096,0.349c-1.341,3.552-5.541,4.821-9.243,5.226C52.867,69.966,53.41,67.734,54.251,65.77z
	 M56.802,65.932c-0.937-0.219-1.643-0.565-2.143-1.043c0.239-0.479,0.491-0.945,0.774-1.386c0.861-1.332,1.754-2.528,2.672-3.603
	c2.463,1.908,3.976,3.783,3.9,5.816C60.105,66.176,58.325,66.285,56.802,65.932z M57.195,58.093
	c-0.631-0.438-1.295-0.879-1.988-1.319c0.523-1.26,1.152-2.612,1.835-4.026c1.078-0.271,2.099-0.53,3.056-0.783
	c0.95,0.488,1.842,1.009,2.674,1.56C60.814,54.622,58.955,56.143,57.195,58.093z M58.775,50.259c0.574-0.401,1.151-0.788,1.729-1.16
	c0.568,0.116,1.144,0.227,1.724,0.33c-0.985,0.289-2.1,0.592-3.295,0.902C58.882,50.307,58.83,50.283,58.775,50.259z M66.354,47.901
	c-0.461,0.279-1.201,0.583-2.147,0.907c-0.866-0.13-1.706-0.273-2.521-0.428c1.896-1.143,3.806-2.137,5.711-2.912
	C67.499,46.416,67.285,47.34,66.354,47.901z M65.559,38.268c0.558-0.446,1.118-0.888,1.68-1.324
	c5.623-0.071,10.461,0.625,13.357,2.603c-3.929,1.311-7.67,2.271-9.763,2.805c-0.728,0.185-1.457,0.413-2.188,0.66
	C68.012,41.469,66.947,39.839,65.559,38.268z M64.401,33.761l0.868-0.634c0,0,0.279-1.937,0.595-4.656
	c2.221,0.793,4.528,1.523,6.844,2.209c-2.494,1.667-5.015,3.515-7.465,5.449c-0.433,0.016-0.864,0.034-1.304,0.058
	C64.136,35.372,64.282,34.564,64.401,33.761z M64.109,39.45c1.252,1.404,2.215,2.852,2.781,4.212
	c-2.44,0.981-4.89,2.289-7.302,3.833c1.038-2.179,2.054-4.428,2.899-6.689C63.023,40.351,63.564,39.899,64.109,39.45z M62.508,37.83
	c-0.068,0.233-0.136,0.463-0.211,0.697c-3.066,2.56-5.951,5.193-8.455,7.694c-2.229-0.894-3.756-1.888-4.278-2.9
	c-0.587-1.136-1.189-2.577-1.815-4.146c4.581-0.853,9.446-1.586,14.067-1.965C62.055,37.414,62.284,37.622,62.508,37.83z
	 M45.54,31.83c5.237-1.115,10.997,1.236,15.304,4.586c-4.455,0.394-9.082,1.093-13.437,1.897c-0.098-0.247-0.192-0.485-0.291-0.735
	c-0.711-1.807-1.465-3.721-2.297-5.584C45.06,31.939,45.307,31.879,45.54,31.83z M46.247,37.921c0.077,0.192,0.15,0.378,0.226,0.568
	c-4.831,0.917-9.274,1.944-12.703,2.8c-1.24-1.64-2.253-3.364-3.048-5.085c1.252-0.389,2.5-0.786,3.727-1.176
	c3.405-1.085,6.648-2.114,9.446-2.813C44.748,34.112,45.52,36.073,46.247,37.921z M29.082,24.982
	c0.683-2.084,2.176-3.212,4.313-3.264c4.288-0.103,7.304,3.92,9.689,8.774c-2.769,0.709-5.91,1.707-9.204,2.752
	c-1.278,0.406-2.581,0.82-3.89,1.226C28.631,30.857,28.285,27.402,29.082,24.982z M19.205,39.264
	c3.403-0.656,7.04-1.687,10.637-2.792c0.779,1.712,1.762,3.422,2.96,5.059c-2.687,0.681-4.631,1.223-5.464,1.46
	c-3.003,0.855-5.66,1.652-7.964,2.419C19.179,43.331,19.145,41.275,19.205,39.264z M17.403,37.7
	c-4.066,0.667-7.614,0.671-10.018-0.592c-1.415-0.742-2.342-1.889-2.836-3.506c-2.314-7.582,0.537-15.457,4.65-18.057
	c2.145-1.354,4.36-1.083,6.408,0.788c3.36,3.068,2.87,8.498,2.249,15.372C17.687,33.59,17.507,35.603,17.403,37.7z M13.377,54.411
	c-2.136-0.976-3.231-1.951-3.166-2.817c0.117-1.531,3.472-3.17,7.474-4.62c0.325,2.54,0.911,5.122,1.872,7.698
	C17.515,55.311,15.494,55.379,13.377,54.411z M19.479,46.347c2.865-0.963,5.856-1.813,8.116-2.458
	c0.865-0.246,2.951-0.828,5.825-1.554c1.14,1.447,2.441,2.813,3.902,4.049c-4.235,0.786-7.832,2.943-11.103,4.908
	c-1.708,1.028-3.329,2-4.917,2.713C20.346,51.438,19.777,48.877,19.479,46.347z M21.736,55.15c-0.036-0.094-0.065-0.184-0.102-0.275
	c1.68-0.744,3.355-1.751,5.068-2.779c3.397-2.042,7.156-4.292,11.585-4.914c2.861,2.205,6.036,4.179,9.044,5.97
	c-0.014,0.015-0.028,0.031-0.043,0.046c-9.479,2.333-17.524,4.524-22.762,6.923C23.465,58.648,22.516,57.003,21.736,55.15z
	 M24.852,69.959c-1.73-0.063-3.175-0.852-4.418-2.408c-0.646-0.813-0.558-1.383-0.435-1.742c0.388-1.131,1.834-2.252,3.965-3.347
	c1.952,2.394,4.187,4.299,6.485,5.81C28.431,69.391,26.543,70.018,24.852,69.959z M32.215,67.188
	c-2.292-1.414-4.545-3.227-6.508-5.549c4.97-2.179,12.382-4.217,19.226-5.932C40.602,60.264,36.207,64.529,32.215,67.188z
	 M34.023,68.221c4.539-3.188,9.401-8.128,14.26-13.344c0.478-0.116,0.934-0.227,1.399-0.34c0.007,0.005,0.016,0.011,0.023,0.016
	c0.174,0.103,0.343,0.2,0.516,0.301c-4.851,4.53-9.218,9.771-12.598,15.006C36.458,69.408,35.246,68.865,34.023,68.221z
	 M49.789,81.29c-0.333,5.511-0.645,10.714-2.608,13.3c-1.811,2.385-5.293,1.909-7.94,0.385c-4.47-2.578-7.645-8.375-4.655-15.517
	c0.995-2.374,2.289-4.851,3.815-7.342c0.704,0.241,1.38,0.448,2.029,0.634c0.159,0.87,0.829,1.6,1.75,1.775l4.553,0.88
	c1.062,0.204,2.089-0.392,2.47-1.362c0.352,0.063,0.733,0.125,1.145,0.184C50.074,76.595,49.927,78.998,49.789,81.29z
	 M50.584,72.441c-0.446,0.021-0.865,0.023-1.266,0.024c-0.209-0.794-0.849-1.438-1.709-1.604l-4.55-0.877
	c-0.899-0.174-1.777,0.225-2.256,0.939c-0.448-0.126-0.906-0.266-1.381-0.422c3.356-5.146,7.677-10.273,12.453-14.671
	c0.752,0.446,1.482,0.887,2.182,1.319c-1.065,2.732-1.592,5.076-1.031,6.826C51.762,66.479,51.036,69.4,50.584,72.441z
	 M67.926,65.993c-2.949,7.167-10.455,7.93-15.603,7.516c0.011-0.075,0.02-0.153,0.03-0.231c4.008-0.395,8.717-1.768,10.266-5.872
	c0.119-0.316,0.204-0.625,0.262-0.933c1.822-0.503,3.721-1.291,5.602-2.293C68.355,64.775,68.18,65.379,67.926,65.993z
	 M62.962,65.463c-0.058-2.238-1.72-4.262-4.251-6.248c1.814-1.982,3.729-3.474,5.738-4.458c1.222,0.999,2.232,2.078,2.947,3.24
	c0.974,1.578,1.391,3.251,1.261,4.991C66.744,64.061,64.807,64.915,62.962,65.463z M69.611,62.438
	c0.011-1.709-0.45-3.358-1.416-4.931c-0.707-1.146-1.648-2.205-2.772-3.183c1.095-0.443,2.216-0.746,3.362-0.897
	c3.362-0.441,6.425,0.463,8.743,1.555l-5.908,2.06l2.903,1.908C72.974,60.229,71.313,61.416,69.611,62.438z M82.438,49.427
	c-0.376,0.035-0.764,0.051-1.145,0.079l-1.182-1.556l-0.457,1.669c-3.07,0.149-6.223,0.094-9.203-0.118
	c-0.942-0.066-1.866-0.153-2.778-0.249c1.32-0.986,1.835-2.544,1.499-4.443c0.711-0.243,1.42-0.465,2.128-0.646
	c4.168-1.066,7.767-2.124,10.857-3.187c0.065,0.083,0.142,0.16,0.204,0.248C83.893,43.371,83.896,46.225,82.438,49.427z
	 M97.173,43.767c-2.25,3.168-7.549,4.854-13.659,5.549c1.379-3.323,1.264-6.315-0.39-8.635c-0.009-0.012-0.021-0.023-0.03-0.036
	c3.764-1.345,6.717-2.703,8.9-4.113c3.102,1.259,5.306,2.623,5.871,4.215C98.189,41.665,97.964,42.652,97.173,43.767z"/>
<path fill="#FCBB30" d="M87.283,63.161l-4.51-1.359L79.1,64.743l-0.101-4.706l-3.933-2.585l4.445-1.55l1.244-4.541l2.846,3.748
	l4.703-0.219l-2.686,3.867L87.283,63.161z M41.809,6.646c0.63-0.997-0.115-2.6-1.666-3.581c-1.549-0.982-3.318-0.97-3.948,0.028
	c-0.63,0.996,0.115,2.597,1.665,3.579C39.41,7.653,41.179,7.641,41.809,6.646z M59.916,7.798c-1.174-0.115-2.271,1.269-2.454,3.093
	c-0.181,1.826,0.624,3.401,1.797,3.519c1.175,0.115,2.271-1.271,2.454-3.096C61.895,9.489,61.09,7.913,59.916,7.798z"/>
</svg>
