<svg xmlns="http://www.w3.org/2000/svg" xmlns:se="http://svg-edit.googlecode.com" xmlns:xlink="http://www.w3.org/1999/xlink" id="svgcontent" width="205.65" height="395.85" x="0" y="0" viewBox="0 0 205.65 395.85" overflow="hidden"><g mask="" style="pointer-events:all"><title style="pointer-events:inherit">Layer 1</title><g id="svg_1" type="text" text="BIRTHDAY" font-size="53.14770843291442" font-family="Bebas Neue" fill="ffffff" text-anchor="start" font-weight="normal" font-style="normal" lineHeight="1" shapeId="0" shapeVal="0" fill-opacity="1" display="null" elemBBoxWidth="156.19610595703125" stroke="ffd54f" stroke-dasharray="none" stroke-opacity="1" style="pointer-events:inherit"><path id="svg_33" fill="#ffffff" stroke="#ffd54f" d="M25.72569,274.63947C35.32181,274.34418 43.29397,273.75366 43.29397,284.53082C43.29397,288.36929 42.1129,290.87903 39.45552,292.06009C46.68951,294.86511 45.80372,313.61444 35.02654,311.84286C35.02654,311.84286 25.72569,311.84286 25.72569,311.84286C25.72569,311.84286 25.72569,274.63947 25.72569,274.63947C25.72569,274.63947 25.72569,274.63947 25.72569,274.63947M37.97919,302.83728C37.97919,297.07959 37.24103,294.12695 31.631,295.16037C31.631,295.16037 31.631,306.52808 31.631,306.52808C35.17418,306.52808 37.97919,307.26624 37.97919,302.83728C37.97919,302.83728 37.97919,302.83728 37.97919,302.83728M37.38866,285.85953C37.38866,280.98767 36.2076,279.21606 31.631,279.95422C31.631,279.95422 31.631,289.84561 31.631,289.84561C35.17418,289.99326 37.38866,289.84561 37.38866,285.85953C37.38866,285.85953 37.38866,285.85953 37.38866,285.85953M47.28004,311.84286C47.28004,311.84286 47.28004,274.63947 47.28004,274.63947C47.28004,274.63947 53.18534,274.63947 53.18534,274.63947C53.18534,274.63947 53.18534,311.84286 53.18534,311.84286C53.18534,311.84286 47.28004,311.84286 47.28004,311.84286C47.28004,311.84286 47.28004,311.84286 47.28004,311.84286M75.62549,311.84286C75.62549,311.84286 69.57256,311.84286 69.57256,311.84286C67.65334,307.70914 72.67284,294.2746 63.22436,296.63669C63.22436,296.63669 63.22436,311.84286 63.22436,311.84286C63.22436,311.84286 57.31905,311.84286 57.31905,311.84286C57.31905,311.84286 57.31905,274.63947 57.31905,274.63947C67.65334,274.19656 74.88733,274.04892 74.88733,286.15479C74.88733,289.99326 73.70627,292.50299 71.04888,293.68405C77.10181,295.60327 73.55863,305.78992 75.62549,311.84286C75.62549,311.84286 75.62549,311.84286 75.62549,311.84286M68.98203,287.48349C68.98203,282.16873 68.53912,278.77316 63.22436,279.95422C63.22436,279.95422 63.22436,291.32193 63.22436,291.32193C66.6199,291.46957 68.98203,291.46957 68.98203,287.48349C68.98203,287.48349 68.98203,287.48349 68.98203,287.48349M76.95419,279.95422C76.95419,279.95422 76.95419,274.63947 76.95419,274.63947C76.95419,274.63947 94.96535,274.63947 94.96535,274.63947C94.96535,274.63947 94.96535,279.95422 94.96535,279.95422C94.96535,279.95422 88.91241,279.95422 88.91241,279.95422C88.91241,279.95422 88.91241,311.84286 88.91241,311.84286C88.91241,311.84286 83.00711,311.84286 83.00711,311.84286C83.00711,311.84286 83.00711,279.95422 83.00711,279.95422C83.00711,279.95422 76.95419,279.95422 76.95419,279.95422C76.95419,279.95422 76.95419,279.95422 76.95419,279.95422M103.38039,295.89853C103.38039,295.89853 103.38039,311.84286 103.38039,311.84286C103.38039,311.84286 97.4751,311.84286 97.4751,311.84286C97.4751,311.84286 97.4751,274.63947 97.4751,274.63947C97.4751,274.63947 103.38039,274.63947 103.38039,274.63947C103.38039,274.63947 103.38039,290.58377 103.38039,290.58377C103.38039,290.58377 110.02386,290.58377 110.02386,290.58377C110.02386,290.58377 110.02386,274.63947 110.02386,274.63947C110.02386,274.63947 115.92916,274.63947 115.92916,274.63947C115.92916,274.63947 115.92916,311.84286 115.92916,311.84286C115.92916,311.84286 110.02386,311.84286 110.02386,311.84286C110.02386,311.84286 110.02386,295.89853 110.02386,295.89853C110.02386,295.89853 103.38039,295.89853 103.38039,295.89853C103.38039,295.89853 103.38039,295.89853 103.38039,295.89853M120.06287,311.84286C120.06287,311.84286 120.06287,274.63947 120.06287,274.63947C129.51135,274.34418 138.81219,273.90131 138.07405,283.79266C137.18825,295.16037 142.20775,312.43338 129.36372,311.84286C129.36372,311.84286 120.06287,311.84286 120.06287,311.84286C120.06287,311.84286 120.06287,311.84286 120.06287,311.84286M132.16875,283.49741C132.31638,279.36371 129.51135,279.95422 125.96818,279.95422C125.96818,279.95422 125.96818,306.52808 125.96818,306.52808C129.36372,306.52808 132.16875,307.11862 132.16875,302.98489C132.16875,302.98489 132.16875,283.49741 132.16875,283.49741C132.16875,283.49741 132.16875,283.49741 132.16875,283.49741M154.60889,274.63947C154.60889,274.63947 160.66182,311.84286 160.66182,311.84286C160.66182,311.84286 154.75652,311.84286 154.75652,311.84286C154.75652,311.84286 153.72308,305.05176 153.72308,305.05176C153.72308,305.05176 146.48911,305.05176 146.48911,305.05176C146.48911,305.05176 145.45567,311.84286 145.45567,311.84286C145.45567,311.84286 140.1409,311.84286 140.1409,311.84286C140.1409,311.84286 146.0462,274.63947 146.0462,274.63947C146.0462,274.63947 154.60889,274.63947 154.60889,274.63947C154.60889,274.63947 154.60889,274.63947 154.60889,274.63947M150.03227,281.28293C150.03227,281.28293 147.22726,300.03226 147.22726,300.03226C147.22726,300.03226 152.8373,300.03226 152.8373,300.03226C152.8373,300.03226 150.03227,281.28293 150.03227,281.28293M168.63399,311.84286C168.63399,311.84286 168.63399,299.44171 168.63399,299.44171C168.63399,299.44171 161.25235,274.63947 161.25235,274.63947C161.25235,274.63947 167.45291,274.63947 167.45291,274.63947C167.45291,274.63947 171.8819,291.61719 171.8819,291.61719C171.8819,291.61719 176.31087,274.63947 176.31087,274.63947C176.31087,274.63947 181.9209,274.63947 181.9209,274.63947C181.9209,274.63947 174.53928,299.44171 174.53928,299.44171C174.53928,299.44171 174.53928,311.84286 174.53928,311.84286C174.53928,311.84286 168.63399,311.84286 168.63399,311.84286C168.63399,311.84286 168.63399,311.84286 168.63399,311.84286" style="pointer-events:inherit"/><rect id="svg_34" x="25.727353676076632" y="274.49609380727634" width="156.19531309325248" height="37.46408330462873" fill="#000000" opacity="0" style="pointer-events:inherit"/></g><g id="svg_6" type="text" text="5" font-size="127.29397192377498" font-family="Freshman" fill="ffffff" text-anchor="start" font-weight="normal" font-style="normal" lineHeight="1" shapeId="0" shapeVal="0" fill-opacity="1" display="null" elemBBoxWidth="80.6171875" stroke="null" stroke-dasharray="none" transform="rotate(-14.365, 66.464, 209.779)" stroke-opacity="1" style="pointer-events:inherit"><path id="svg_17" fill="#ffffff" stroke-width="1" d="M55.50452,180.43324C55.15095,185.02966 55.85809,188.56537 58.68665,189.97964C58.68665,189.97964 90.86156,189.97964 90.86156,189.97964C90.86156,189.97964 106.77222,205.89032 106.77222,205.89032C106.77222,205.89032 106.77222,245.84378 106.77222,245.84378C106.77222,245.84378 89.80085,262.81516 89.80085,262.81516C89.80085,262.81516 43.12955,262.81516 43.12955,262.81516C43.12955,262.81516 26.15818,245.84378 26.15818,245.84378C26.15818,245.84378 26.15818,226.75096 26.15818,226.75096C26.15818,226.75096 55.50452,226.75096 55.50452,226.75096C55.15095,232.05453 55.15095,237.35809 58.68665,238.77237C65.75806,238.41882 75.30447,240.54022 77.77946,235.59024C77.07231,227.81168 79.90088,216.49742 74.24375,213.66887C74.24375,213.66887 43.12955,213.66887 43.12955,213.66887C43.12955,213.66887 26.15818,197.05106 26.15818,197.05106C26.15818,197.05106 26.15818,156.74403 26.15818,156.74403C26.15818,156.74403 106.77222,156.74403 106.77222,156.74403C106.77222,156.74403 106.77222,180.43324 106.77222,180.43324C106.77222,180.43324 55.50452,180.43324 55.50452,180.43324C55.50452,180.43324 55.50452,180.43324 55.50452,180.43324" stroke="#ffd54f" style="pointer-events:inherit"/><rect id="svg_18" x="26.15817680954933" y="156.74360895808786" width="80.61171930935234" height="106.07109270431101" fill="#ffffff" opacity="0" stroke="#ffd54f" stroke-width="1" style="pointer-events:inherit"/></g><g id="svg_19" type="text" text="TH" font-size="31.696528383931355" font-family="Freshman" fill="ffffff" text-anchor="start" font-weight="normal" font-style="normal" lineHeight="1" shapeId="0" shapeVal="0" fill-opacity="1" display="null" elemBBoxWidth="46.48985290527344" stroke="null" stroke-dasharray="none" transform="rotate(-17.587, 127.501, 153.421)" stroke-opacity="1" style="pointer-events:inherit"><path id="svg_22" fill="#ffffff" stroke-width="1" d="M126.62076,147.69865C126.62076,147.69865 120.63342,147.69865 120.63342,147.69865C120.63342,147.69865 120.63342,146.11378 120.63342,146.11378C120.63342,146.11378 119.04855,146.11378 119.04855,146.11378C119.04855,146.11378 119.04855,160.64185 119.04855,160.64185C119.04855,160.64185 120.63342,160.64185 120.63342,160.64185C120.63342,160.64185 120.63342,166.62917 120.63342,166.62917C120.63342,166.62917 110.24365,166.62917 110.24365,166.62917C110.24365,166.62917 110.24365,160.64185 110.24365,160.64185C110.24365,160.64185 111.82854,160.64185 111.82854,160.64185C111.82854,160.64185 111.82854,146.11378 111.82854,146.11378C111.82854,146.11378 110.24365,146.11378 110.24365,146.11378C110.24365,146.11378 110.24365,147.69865 110.24365,147.69865C110.24365,147.69865 104.25633,147.69865 104.25633,147.69865C104.25633,147.69865 104.25633,140.21451 104.25633,140.21451C104.25633,140.21451 126.62076,140.21451 126.62076,140.21451C126.62076,140.21451 126.62076,147.69865 126.62076,147.69865C126.62076,147.69865 126.62076,147.69865 126.62076,147.69865M141.85321,160.64185C141.85321,160.64185 141.85321,156.32745 141.85321,156.32745C141.85321,156.32745 136.74637,156.32745 136.74637,156.32745C136.74637,156.32745 136.74637,160.64185 136.74637,160.64185C136.74637,160.64185 138.33125,160.64185 138.33125,160.64185C138.33125,160.64185 138.33125,166.62917 138.33125,166.62917C138.33125,166.62917 127.85342,166.62917 127.85342,166.62917C127.85342,166.62917 127.85342,160.64185 127.85342,160.64185C127.85342,160.64185 129.43832,160.64185 129.43832,160.64185C129.43832,160.64185 129.43832,146.11378 129.43832,146.11378C129.43832,146.11378 127.85342,146.11378 127.85342,146.11378C127.85342,146.11378 127.85342,140.21451 127.85342,140.21451C127.85342,140.21451 138.33125,140.21451 138.33125,140.21451C138.33125,140.21451 138.33125,146.11378 138.33125,146.11378C138.33125,146.11378 136.74637,146.11378 136.74637,146.11378C136.74637,146.11378 136.74637,149.72379 136.74637,149.72379C136.74637,149.72379 141.85321,149.72379 141.85321,149.72379C141.85321,149.72379 141.85321,146.11378 141.85321,146.11378C141.85321,146.11378 140.26833,146.11378 140.26833,146.11378C140.26833,146.11378 140.26833,140.21451 140.26833,140.21451C140.26833,140.21451 150.74615,140.21451 150.74615,140.21451C150.74615,140.21451 150.74615,146.11378 150.74615,146.11378C150.74615,146.11378 149.16127,146.11378 149.16127,146.11378C149.16127,146.11378 149.16127,160.64185 149.16127,160.64185C149.16127,160.64185 150.74615,160.64185 150.74615,160.64185C150.74615,160.64185 150.74615,166.62917 150.74615,166.62917C150.74615,166.62917 140.26833,166.62917 140.26833,166.62917C140.26833,166.62917 140.26833,160.64185 140.26833,160.64185C140.26833,160.64185 141.85321,160.64185 141.85321,160.64185C141.85321,160.64185 141.85321,160.64185 141.85321,160.64185" stroke="#ffd54f" style="pointer-events:inherit"/><rect id="svg_23" x="104.25631974078715" y="140.21354293171316" width="46.48985786829144" height="26.41476235818118" fill="#ffffff" opacity="0" stroke="#ffd54f" stroke-width="1" style="pointer-events:inherit"/></g><g type="text" text="TAYLOR'S" font-size="52.46717957987455" font-family="Bebas Neue" fill="ffffff" text-anchor="start" font-weight="normal" font-style="normal" lineHeight="1" shapeId="0" shapeVal="0" fill-opacity="1" display="null" elemBBoxWidth="147.36756896972656" stroke="null" stroke-dasharray="none" transform="rotate(-14.9625, 83.337, 124.291)" stroke-opacity="1" id="svg_30" style="pointer-events:inherit"><path fill="#ffffff" stroke-width="1" d="M9.65267,111.17485C9.65267,111.17485 9.65267,105.92818 9.65267,105.92818C9.65267,105.92818 27.43304,105.92818 27.43304,105.92818C27.43304,105.92818 27.43304,111.17485 27.43304,111.17485C27.43304,111.17485 21.45767,111.17485 21.45767,111.17485C21.45767,111.17485 21.45767,142.65485 21.45767,142.65485C21.45767,142.65485 15.62804,142.65485 15.62804,142.65485C15.62804,142.65485 15.62804,111.17485 15.62804,111.17485C15.62804,111.17485 9.65267,111.17485 9.65267,111.17485C9.65267,111.17485 9.65267,111.17485 9.65267,111.17485M42.73582,105.92818C42.73582,105.92818 48.71119,142.65485 48.71119,142.65485C48.71119,142.65485 42.88155,142.65485 42.88155,142.65485C42.88155,142.65485 41.86137,135.95078 41.86137,135.95078C41.86137,135.95078 34.72008,135.95078 34.72008,135.95078C34.72008,135.95078 33.69989,142.65485 33.69989,142.65485C33.69989,142.65485 28.45322,142.65485 28.45322,142.65485C28.45322,142.65485 34.28285,105.92818 34.28285,105.92818C34.28285,105.92818 42.73582,105.92818 42.73582,105.92818C42.73582,105.92818 42.73582,105.92818 42.73582,105.92818M38.21785,112.48651C38.21785,112.48651 35.44878,130.99559 35.44878,130.99559C35.44878,130.99559 40.98693,130.99559 40.98693,130.99559C40.98693,130.99559 38.21785,112.48651 38.21785,112.48651M56.58118,142.65485C56.58118,142.65485 56.58118,130.41263 56.58118,130.41263C56.58118,130.41263 49.29415,105.92818 49.29415,105.92818C49.29415,105.92818 55.41526,105.92818 55.41526,105.92818C55.41526,105.92818 59.78748,122.68835 59.78748,122.68835C59.78748,122.68835 64.1597,105.92818 64.1597,105.92818C64.1597,105.92818 69.69785,105.92818 69.69785,105.92818C69.69785,105.92818 62.41082,130.41263 62.41082,130.41263C62.41082,130.41263 62.41082,142.65485 62.41082,142.65485C62.41082,142.65485 56.58118,142.65485 56.58118,142.65485C56.58118,142.65485 56.58118,142.65485 56.58118,142.65485M71.88397,142.65485C71.88397,142.65485 71.88397,105.92818 71.88397,105.92818C71.88397,105.92818 77.7136,105.92818 77.7136,105.92818C77.7136,105.92818 77.7136,137.40819 77.7136,137.40819C77.7136,137.40819 87.18674,137.40819 87.18674,137.40819C87.18674,137.40819 87.18674,142.65485 87.18674,142.65485C87.18674,142.65485 71.88397,142.65485 71.88397,142.65485C71.88397,142.65485 71.88397,142.65485 71.88397,142.65485M95.05675,114.38113C95.05675,114.38113 95.05675,134.20189 95.05675,134.20189C95.05675,136.82521 96.07693,137.84541 97.97156,137.84541C99.86619,137.84541 101.03211,136.82521 101.03211,134.20189C101.03211,134.20189 101.03211,114.38113 101.03211,114.38113C101.03211,111.7578 99.86619,110.73763 97.97156,110.73763C96.07693,110.73763 95.05675,111.7578 95.05675,114.38113C95.05675,114.38113 95.05675,114.38113 95.05675,114.38113M97.97156,143.09207C85.29211,143.09207 89.22711,126.04041 89.22711,114.67262C89.22711,108.843 92.28767,105.49095 97.97156,105.49095C110.651,105.49095 106.716,122.54262 106.716,133.9104C106.716,139.74004 103.65545,143.09207 97.97156,143.09207C97.97156,143.09207 97.97156,143.09207 97.97156,143.09207M128.43138,142.65485C128.43138,142.65485 122.45601,142.65485 122.45601,142.65485C120.56139,138.57411 125.51656,125.31169 116.18916,127.64355C116.18916,127.64355 116.18916,142.65485 116.18916,142.65485C116.18916,142.65485 110.35953,142.65485 110.35953,142.65485C110.35953,142.65485 110.35953,105.92818 110.35953,105.92818C120.56139,105.49095 127.70267,105.34521 127.70267,117.29596C127.70267,121.08522 126.53674,123.56281 123.91342,124.72873C129.88879,126.62337 126.39101,136.67947 128.43138,142.65485C128.43138,142.65485 128.43138,142.65485 128.43138,142.65485M121.87305,118.60764C121.87305,113.36095 121.43582,110.00893 116.18916,111.17485C116.18916,111.17485 116.18916,122.39688 116.18916,122.39688C119.54118,122.54262 121.87305,122.54262 121.87305,118.60764C121.87305,118.60764 121.87305,118.60764 121.87305,118.60764M132.07489,116.713C132.07489,116.713 131.20045,105.92818 131.20045,105.92818C131.20045,105.92818 136.73859,105.92818 136.73859,105.92818C136.73859,105.92818 136.00989,116.713 136.00989,116.713C136.00989,116.713 132.07489,116.713 132.07489,116.713C132.07489,116.713 132.07489,116.713 132.07489,116.713M139.94489,114.67262C139.94489,108.843 142.85971,105.49095 148.54359,105.49095C154.6647,105.49095 157.28804,109.28023 156.99655,115.83855C156.99655,115.83855 151.60416,115.83855 151.60416,115.83855C151.74991,112.92374 151.16693,110.73763 148.68935,110.73763C146.79471,110.73763 145.77452,111.7578 145.77452,114.38113C145.77452,121.95966 156.99655,123.41707 156.99655,133.9104C156.99655,139.74004 154.08174,143.09207 148.39786,143.09207C141.83952,143.09207 139.21619,138.71985 139.79915,131.57855C139.79915,131.57855 145.3373,131.57855 145.3373,131.57855C145.19156,134.78485 145.3373,137.84541 148.25212,137.84541C150.14674,137.84541 151.31267,136.82521 151.31267,134.20189C151.31267,126.62337 139.94489,125.16595 139.94489,114.67262C139.94489,114.67262 139.94489,114.67262 139.94489,114.67262" stroke="#ffd54f" id="svg_31" style="pointer-events:inherit"/><rect x="9.654166347049749" y="105.48945414567632" width="147.3657508585834" height="37.60321031627279" fill="#ffffff" opacity="0" stroke="#ffd54f" stroke-width="1" id="svg_32" style="pointer-events:inherit"/></g><g id="svg_5" display="null" clip-id="6" stroke-opacity="1" stroke="null" transform=""><path fill="#FFD54F" d="M194.49779039171847,118.50111122525452 C193.4627989475829,117.80944779806332 192.4008640523284,117.23051962926262 191.33557558174275,116.75591981083063 C196.0427090437327,114.72126431200628 194.9976109342158,109.04138727675254 194.9976109342158,109.04138727675254 C190.71794347847018,107.90372130021986 188.0353588499232,112.58225749311923 186.83036870013402,115.40622058853532 C186.57625497487444,115.36583986639788 186.32044149225527,115.3338430825882 186.06970431202086,115.30524581349772 L187.24102089033477,107.56041625296957 C187.24102089033477,107.56041625296957 187.66511035155392,107.48468517169137 188.1110899312014,105.9734171214583 C188.6041803533425,104.29890345562183 185.89299845570505,103.54999955086159 184.3059763544997,104.81723757152237 C182.7240305556791,106.0844985618773 185.07171704499763,107.72533865623846 185.07171704499763,107.72533865623846 L184.65771127946581,115.22446139952882 C183.58569268852395,115.21773127917254 182.5725683931227,115.3439497479696 181.63687493635925,115.59806347322915 L180.62205088359838,108.12250763603268 C180.62205088359838,108.12250763603268 181.00913616770526,107.92561141864812 181.00913616770526,106.34869598282417 C181.00913616770526,104.60015099306915 178.2020098580268,104.67250552932221 177.03910018773468,106.34869598282417 C175.88126681982726,108.02490940602017 178.58739538477408,108.91181523262443 178.58739538477408,108.91181523262443 L180.2669623833012,116.09285365272991 C180.18785475699784,116.12988079953618 180.10877010038854,116.16690794634252 180.02966247408517,116.2056118808144 C178.7186671862618,113.75022049610209 175.94351469069895,109.98045727854112 171.60325318205315,110.93468727840184 C171.60325318205315,110.93468727840184 170.92502702588038,113.97068361958047 173.03879015100802,116.12315067917997 L172.6971618914233,117.69163623728811 L174.84289883066663,119.01441497815846 L172.36561732752594,118.68457017162062 L172.53223948815443,121.16520525009241 L174.84289883066663,121.16520525009241 L172.53223948815443,122.15643942706538 L172.36561732752594,124.96691931207491 L174.84289883066663,124.47045234490864 L172.53559306348555,125.95817645874195 L172.53559306348555,128.60373394048258 L173.93915621832474,128.19140496261633 L172.3689938725511,129.761590278084 L172.2023717119226,132.40714775982465 L173.69177261342142,132.5737469507591 L172.3689938725511,133.2351363211943 L172.2023717119226,135.88071677262903 L173.52347366512737,135.7140946120005 L172.2023717119226,136.70702854633305 L171.78838891608478,139.68413059197107 L172.86546083971737,140.0139753985089 L171.87085011771927,140.42798116404074 L171.7059047447563,144.56291657758612 L172.94454549632667,144.31553297268283 L171.62344354312188,145.4733893102843 L171.62344354312188,148.78033616246006 L172.28483291355704,149.02771976736338 L171.87085011771927,149.4417255328952 L171.37605993821853,153.2434625645718 L172.3689938725511,153.57500712846917 L171.54265912915298,153.8223907333725 C171.54265912915298,153.8223907333725 171.1320299086463,162.00982332852303 170.65912984757387,168.10202934164303 C169.01996654087822,177.30090944452917 167.04925867028518,185.79631969748317 164.77562647457935,191.14297538117395 L134.66975381835854,192.67781033750092 C134.36007640319545,192.63235331297878 134.0537985027515,192.59534913586648 133.74917442027905,192.56672889708193 C133.65662952295727,192.55662223170057 133.56573844360702,192.55326865636943 133.47319354628524,192.5465385360132 C133.2577607858035,192.52970175027562 133.04067420735026,192.51791829722865 132.8269412042281,192.51118817687245 C132.73269654954674,192.51118817687245 132.63845189486534,192.50783460154133 132.54420724018394,192.50783460154133 C132.30187696797134,192.50445805651626 132.05952372606464,192.51118817687245 131.8222238168486,192.5229716299194 C131.7717364293298,192.52802496261003 131.721249041811,192.52802496261003 131.67246141165177,192.52970175027562 C131.384674114917,192.54989211134435 131.10026336320732,192.57345901743815 130.82088297449428,192.61386270926965 C130.75525855859746,192.62226961729144 130.69131093036614,192.63405307033838 130.6256635447753,192.64413676602572 C130.40857696632207,192.6794871251665 130.1948439631999,192.7165142719728 129.98278774774332,192.7568949941102 C129.903703091134,192.77540856751338 129.82627225249618,192.79224535325105 129.74718759588688,192.80908213898866 C129.53177780509918,192.85619298148234 129.3197215896426,192.91341048935732 129.11104191921112,192.97568132992308 C129.05717798666717,192.99251811566074 129.00333702381727,193.00597835637313 128.94947309127332,193.0211153847512 C128.68189912530127,193.10357658638563 128.4210323099914,193.1961444534015 128.16354203970673,193.2954424407735 C128.14502846630353,193.30217256112974 128.12989143792552,193.31057946915152 128.11305465218786,193.3173095895078 C127.87745450033145,193.41323103185468 127.64688471147173,193.5125290192268 127.41801467997155,193.62696403497685 C127.3641507474276,193.65390748609587 127.31198657224323,193.67915117985524 127.25814560939332,193.7060716612802 C127.05617308962408,193.81042298134295 126.85760008457399,193.91642811937723 126.66405744252054,194.02918634746172 C126.62199993271759,194.0544300412212 126.58159624088611,194.07632015964947 126.53951576138908,194.10156385340892 C126.06493891265114,194.3893281804496 125.61390600031294,194.70908929130013 125.1864629637627,195.06755433662244 C125.1595195126437,195.0894444550507 125.1342758188843,195.11131160378497 125.10903212512488,195.1348785098789 C124.9188660280966,195.29644733781666 124.7371068390901,195.4630465287511 124.55704740744318,195.63975238506694 C124.52842716865865,195.66837262385147 124.49980692987407,195.69361631761083 124.47288644844912,195.72053679903578 C124.0656337729676,196.12443589918624 123.6836018215514,196.565362146143 123.33019010891977,197.03490863188432 C123.32849035156016,197.03658541954988 123.3268135638946,197.039938994881 123.32345998856351,197.04163875224063 C123.15348425260396,197.27218557140634 122.9902386370006,197.50610893559715 122.83204635408796,197.74846217750388 C122.8135327806848,197.7821127792851 122.79501920728163,197.80735647304448 122.7748288462129,197.8410300445197 C122.61999013863135,198.0850371043979 122.47020476374047,198.33412046666083 122.32884926656547,198.58993394928 C122.32714950920584,198.5932875246111 122.32547272154031,198.5966640696362 122.32379593387475,198.5966640696362 C116.86270523443383,207.03485681471517 111.98389627912474,216.04692439590417 102.02770536345645,219.98834013709023 L101.94019082913132,219.7914439197057 L98.23102166447062,218.7833729569951 L98.12667034440787,220.39561578226576 L99.40569181811561,220.64467617483464 L97.69415100547286,221.2589547027762 L97.73623148496989,221.75542166994248 L97.97688496951699,222.41175770768695 L99.63626160697538,221.89340062209234 L97.91966746164196,222.65241119223404 L99.30977037576871,224.11151506728274 L100.74025401203289,222.48748878896518 L100.08391797428841,223.53091011081648 L101.55142875735892,224.4194927250863 L102.69750164191342,222.05496945003011 C102.7513655744574,222.03645587662695 102.80352974964171,222.01964206058338 102.85737071249163,221.99439836682402 C111.20301856024882,218.5763700742292 115.35143718420076,213.72785814537016 120.04848695050332,206.66123177132081 C120.16122220889383,206.6713384367022 120.27735698200352,206.69490534279603 120.28241031469422,207.39499864770303 C120.28241031469422,212.9789542406099 122.87242707622539,217.95536142593147 126.91144104742389,221.19668386221048 C126.3308360909576,235.64292166141541 124.9575699625685,266.0736087611773 124.91213590774038,267.06148936281915 L124.91045912007482,267.06148936281915 L124.82629816108079,268.7124361225617 L132.18574219486163,268.6838158837772 L131.85589738832385,267.0581128177941 L131.84746751060803,267.0581128177941 C129.72194390212746,261.1005551511869 130.5112285290252,236.51972082263825 131.09015669782596,223.69245596906023 C132.2883937575648,224.1990296016079 133.55733153558523,224.57263167530823 134.87505694376486,224.80487825183354 C135.7451259846315,239.2662760491106 136.18775198894787,266.79894575984383 136.20288901732587,267.7161486128981 L136.20288901732587,267.7161486128981 L136.20288901732587,267.7178254005637 C136.20288901732587,267.7346621863013 136.20288901732587,267.7447458819886 136.20288901732587,267.7447458819886 L136.20456580499143,267.7447458819886 L136.3207005781011,269.235823571153 L142.43812731528652,268.7932205365306 C142.43812731528652,268.7932205365306 142.21766419180813,267.1102999626724 142.10828250874872,267.0581128177941 L142.09817584336736,267.0581128177941 C139.60240373651754,261.6407793855157 138.87033661749484,238.3170993819406 138.6549038570131,225.0859124585181 L168.40063468024601,225.0859124585181 C169.31783753330038,225.0859124585181 170.1896063315266,225.01693446729016 171.00748822751484,224.88060933311178 C170.46728696288002,239.34368391805435 169.26902693344712,268.10153413964537 169.2286462113097,269.0422809290995 L169.22696942364414,269.0422809290995 L168.93750533924378,270.65452375437025 L175.84253991566135,270.46435765734196 L175.50764177643288,269.0439806864592 L175.50091165607662,269.0439806864592 C173.41744555739905,262.70271428077024 174.43224664046588,234.8502604894925 174.95060372606048,223.5712908329539 C175.77353895473937,223.12698804097198 176.5291729798559,222.60360059238076 177.21918258907564,221.99269860946438 C178.05054769547036,235.30129340183066 178.47463715668957,266.7181613458748 178.48812036709606,267.7178254005637 L178.48812036709606,267.7178254005637 L178.36525547363013,269.415905972494 L183.94415773384625,269.3300682258344 L183.44769076667998,267.0547592424629 L183.44096064632376,267.0547592424629 C180.8206468583425,260.28770361819534 180.51266920053897,225.58575597070953 180.4790185987578,217.51275839130915 C181.81693436800617,214.64336124106492 182.45813337737263,211.15803174490773 182.45813337737263,207.3899453150124 C182.45475683234744,207.38321519465612 182.45475683234744,207.37648507429986 182.45475683234744,207.3663784089185 L182.45813337737263,207.36975495394367 C182.45475683234744,207.34618804784978 182.44802671199122,207.32767447444658 182.4446731366601,207.3007539930217 C182.2645907353192,206.0705431191672 182.06431797290946,204.91098702420618 181.85396151481248,203.82718498021737 C179.08891568463105,183.7515575332775 183.23060418822675,146.61778540717316 184.6997917589628,134.70434686162437 C191.05116483003312,138.59695200295718 198.24904003587616,138.45557353608814 201.04605968017324,134.2667741899987 C203.95583755255487,129.92313613632777 201.0191391987483,122.86326285232863 194.49779039171847,118.50111122525452 z" id="svg_7" stroke-width="0" stroke="null" transform=""/><path fill="#3C2517" d="M171.5460356741781,153.82071394570693 C171.5460356741781,153.82071394570693 171.13540645367144,162.00814654085744 170.66585996793012,168.1003295842834 C174.198323276275,148.24348847315636 176.1841911449401,125.09651432589706 176.34238342785275,123.18807729586979 C176.1774610245839,121.46139945484899 176.51741249650306,119.83567341917183 177.42618547184156,118.47586753149513 C177.5137000061667,118.34964906269813 177.60121454049184,118.22848392659179 177.69208265014805,118.10899557815104 C175.41507390941703,117.83469149182277 173.9660766997497,117.06222068096855 173.04552027136427,116.12315067917997 L172.70389201177957,117.69163623728811 L174.84962895102285,119.01441497815846 L172.37234744788216,118.68457017162062 L172.53896960851066,121.16520525009241 L174.84962895102285,121.16520525009241 L172.53896960851066,122.15643942706538 L172.37234744788216,124.96691931207491 L174.84962895102285,124.47045234490864 L172.53896960851066,125.9598532464075 L172.53896960851066,128.60541072814817 L173.9425327633499,128.19140496261633 L172.37234744788216,129.761590278084 L172.20574825694774,132.40714775982465 L173.6951261887525,132.5737469507591 L172.37234744788216,133.2351363211943 L172.20574825694774,135.88071677262903 L173.5268502101525,135.7157713996661 L172.20574825694774,136.70702854633305 L171.7917424914159,139.68413059197107 L172.86881441504843,140.01565218617438 L171.87420369305036,140.42798116404074 L171.70928128978147,144.56291657758612 L172.9479220413518,144.31553297268283 L171.62682008814704,145.4733893102843 L171.62682008814704,148.78033616246006 L172.28820945858217,149.02771976736338 L171.87420369305036,149.4417255328952 L171.37943648324367,153.24513935223735 L172.37234744788216,153.57500712846917 L171.5460356741781,153.82071394570693 zM157.63832235194243,201.21024773726126 C154.2674278715353,205.0069314362471 153.62790564983442,209.94125814207163 156.20783871567826,212.23340391118074 S163.61439359195276,213.30712225948213 166.98361128469435,209.51211534816184 C170.3578823101266,205.7154316491759 170.99572774416194,200.78110494335138 168.41579467831812,198.48725941688278 S161.01091658970913,197.41356403827538 157.63832235194243,201.21024773726126 zM180.4823721740889,218.42320815431316 C180.4790185987578,218.09336334777538 180.4790185987578,217.78538568997183 180.4790185987578,217.51443517897468 C181.81693436800617,214.64503802873048 182.45813337737263,211.15803174490773 182.45813337737263,207.39162210267796 C182.45475683234744,207.38489198232165 182.45475683234744,207.37648507429986 182.45475683234744,207.36975495394367 L182.45813337737263,207.36975495394367 C182.45475683234744,207.34786483551534 182.44802671199122,207.32937423180624 182.4446731366601,207.30413053804682 C182.2645907353192,206.07221990683274 182.06431797290946,204.91098702420618 181.85396151481248,203.828884737577 C181.81861115567168,203.54950434886393 181.77823043353428,203.26341680948872 181.74793340708416,202.97730630041946 C181.4719295633963,202.95206260666006 181.19257214437732,202.94533248630384 180.91321472535836,202.9790060577791 C177.73751670497617,203.3340945580762 175.5581291639517,207.15264540579633 176.04448946573658,211.50806691251424 C176.41643772146546,214.8318505504277 178.23398367214244,217.49929815059664 180.4823721740889,218.42320815431316 zM181.02259640841774,180.3167154246391 C181.1084341550773,177.09558334942886 181.24978965225236,173.82734043172488 181.42649550856817,170.5826644201148 C181.1168410630991,170.51028691416766 180.79875673991424,170.4833664327427 180.47396526606713,170.51871679188352 C178.45277000795528,170.7459100357181 177.06099030616298,173.12051700646163 177.36053808625064,175.82664557140836 C177.63654192993852,178.28709028881144 179.21681094109363,180.1635535047231 181.02259640841774,180.3167154246391 zM171.36765303019675,186.2692197585556 C174.11923861966574,183.17430615214235 174.5753018950005,179.08985812611567 172.38750744595427,177.14944728197278 C171.5123850723969,176.37359992609348 170.34609885707962,176.06394548062443 169.08729071413464,176.16324346799647 C167.99505879243006,181.24567876104635 166.7917684000005,185.81818684621746 165.47571977948644,189.3691637279655 C167.42959086434183,189.3035393120687 169.64600555217262,188.21130739036406 171.36765303019675,186.2692197585556 zM143.7659593888475,199.2917040418526 C148.24086924400618,199.2917040418526 151.86590041936688,197.22169818388747 151.86590041936688,194.663655236472 C151.86590041936688,193.61855712695507 151.25499843645053,192.66097355176333 150.23514402069307,191.88682595324363 L136.53273382386368,192.58356568281957 C135.98074910618195,193.20792790644836 135.66266478299704,193.91475133171167 135.66266478299704,194.663655236472 C135.66436454035664,197.21834460855644 139.2910725033829,199.2917040418526 143.7659593888475,199.2917040418526 zM150.45055381148072,215.97960022264772 C147.31020615023934,212.9250903080659 142.95816118854663,212.297374509106 140.72828626000333,214.58952027821505 C138.49671157410046,216.87491295727378 139.23553178317343,221.21519743561367 142.37417968705523,224.2697073501954 C142.67880376952763,224.56925513028312 142.99854191068405,224.83517527828366 143.3233563542252,225.0859124585181 L152.56094039158324,225.0859124585181 C154.19002000259155,222.6995450044218 153.3418181104592,218.79850998537316 150.45055381148072,215.97960022264772 zM126.62199993271759,220.94760049994753 C129.3399119507113,220.08090800410602 131.11034705889463,216.56695826916433 130.6677440242723,212.60197562188438 C130.17970693482187,208.24487732750097 127.20933500954007,205.00355489122197 124.03363698915788,205.35866636121324 C122.4903951248092,205.53367246016944 121.18612995734205,206.52492960683642 120.30427746342848,207.99749372259765 C120.47930653207875,213.1977176067287 122.89767076998476,217.81903629175306 126.62199993271759,220.94760049994753 zM173.987966818178,145.53566015085 C173.57396105264618,148.8947711782102 173.10779111193,152.44239448462713 172.58775723866987,156.04215899653443 C173.1666854074706,156.61435704497893 173.8163142945529,156.91728137009173 174.48105724031916,156.84325004617315 C176.21616495905573,156.64803061645418 177.34034772518197,153.93850253678815 176.98861280021586,150.79144772488456 C176.6924185954593,148.1206235796905 175.42350378713286,146.0001533039006 173.987966818178,145.53566015085 zM192.45135143984717,136.53537602270794 C192.28978261190937,136.53367626534833 190.936729814283,136.50675578392338 189.47930272689985,135.81001605434747 L189.47930272689985,135.81001605434747 C187.9798181297137,135.09983905375304 186.37262863713372,133.61884506027602 186.00743347145513,130.79658172221954 L186.00743347145513,130.79658172221954 C185.9821897776957,130.61652229057268 186.1100850341583,130.44990012994415 186.29352101083037,130.42633322385026 L186.29352101083037,130.42633322385026 C186.4719036548117,130.40278928745047 186.6385258154402,130.5290077562475 186.66544629686516,130.70906718789445 L186.66544629686516,130.70906718789445 C187.01382764650015,133.3075138271414 188.41401425631423,134.552884699068 189.76539026627506,135.21089752447796 L189.76539026627506,135.21089752447796 C191.1201657909551,135.86387998689142 192.4311610787785,135.87396368257876 192.46481168055965,135.87228689491317 L192.46481168055965,135.87228689491317 C192.486701798988,135.87228689491317 192.50016203970046,135.87396368257876 192.50689216005668,135.87566343993828 L192.50689216005668,135.87566343993828 L192.50689216005668,135.87566343993828 C192.6869515917036,135.89920737633813 192.81992315055092,136.06415274930106 192.79297969943192,136.24421218094793 L192.79297969943192,136.24421218094793 C192.7727893383632,136.412511129242 192.628057296163,136.53367626534833 192.46818822558484,136.53367626534833 L192.46818822558484,136.53367626534833 C192.46145810522856,136.5370528103735 192.45808156020345,136.5370528103735 192.45135143984717,136.53537602270794 L192.45135143984717,136.53537602270794 zM97.69585076283246,221.2539013700855 L99.40906836314075,220.6413225995036 L98.1283471320734,220.3922392372407 L98.23269845213618,218.77831962430443 L101.94186761679687,219.78639058701498 L102.83045023106666,221.79242584705474 L101.55480530238405,224.42116951275185 L100.08727154961949,223.53426368614757 L100.74363055705803,222.49254212165584 L99.31314692079384,224.11656839997346 L97.9230440066671,222.6574645249247 L99.6396151823065,221.898453954783 L97.98026151454214,222.415111283018 L97.73960802999501,221.76045203293907 L97.69585076283246,221.2539013700855 zM189.4725726065436,119.73975197682488 C189.64087155483764,120.5441966017947 190.21809996627877,121.10461119719221 190.76170074563277,120.99017618144211 C191.30695534295825,120.87574116569209 191.6132562130962,120.13186762392843 191.4449572648022,119.32912275631823 S190.70278348039812,117.96426353595088 190.155829125713,118.07869855170091 C189.61057452838753,118.19145677978547 189.30597341560917,118.93530735185506 189.4725726065436,119.73975197682488 zM185.02290644514434,120.57279387088519 C185.39483173117918,121.33012765336133 186.12019169953965,121.7323499658462 186.6435791481309,121.47821327089261 C187.16864338438765,121.2207230006079 187.2965386408502,120.39946455959453 186.92293656714986,119.64550732214349 C186.55101128111505,118.88819650936139 185.8307276151393,118.48429740921097 185.30564040918847,118.74008792213606 C184.77889938526616,118.99757819242085 184.6543577041347,119.8188596031282 185.02290644514434,120.57279387088519 zM200.2348849348472,130.0493546051248 C200.33923625491,130.54414478462547 200.70778499591967,130.8857730442102 201.06289646591088,130.8117417202916 C201.41798496620808,130.73768742667892 201.62161130394884,130.27657081865343 201.51895974124568,129.78178063915274 C201.41463139087696,129.28869021701163 201.04605968017324,128.9453622000673 200.69097117987604,129.01941649367996 C200.3358597098848,129.0951475749582 200.1288568271189,129.55626418298368 200.2348849348472,130.0493546051248 zM197.3840013580062,130.69055361449128 C197.61121757153487,131.14999343485118 198.0285769123978,131.4074837051359 198.31804099679815,131.26612820796086 C198.6075050811985,131.12307295342623 198.65966925638287,130.63501289428174 198.43582958787934,130.17727283128139 C198.20863634404472,129.71783301092145 197.7912770031818,129.46034274063675 197.50181291878144,129.6016982378118 S197.16186144686228,130.2294370064658 197.3840013580062,130.69055361449128 zM178.48812036709606,267.7195021882292 L178.36357868596457,269.415905972494 L183.94415773384625,269.33174501349987 L183.44769076667998,267.0581128177941 L178.48812036709606,267.7195021882292 zM169.23032299897525,269.0422809290995 L168.94085891457487,270.65452375437025 L175.8459164606865,270.46435765734196 L175.51269510912357,269.0439806864592 L169.23032299897525,269.0422809290995 L169.23032299897525,269.0422809290995 zM136.20626556235104,267.7195021882292 L136.32405415343223,269.235823571153 L142.44150386031166,268.7932205365306 C142.44150386031166,268.7932205365306 142.2227175244988,267.1102999626724 142.11163608407983,267.0581128177941 L136.20626556235104,267.7195021882292 zM131.86095072101455,267.0581128177941 L124.91548948307144,267.0581128177941 L124.83302828143701,268.7107593348962 L132.19079552755232,268.6804623084461 L131.86095072101455,267.0581128177941 z" id="svg_8" stroke-width="0" stroke="null" transform=""/></g></g><defs><mask id="canvasMaskImageDef" maskUnits="objectBoundingBox" x="0" y="0"><image xmlns:xlink="http://www.w3.org/1999/xlink" id="canvasMaskImage" preserveAspectRatio="none" x="-103.65" y="-36.45" width="400" height="440.0580551523948" xlink:href="http://allinonedesigner.designnbuy.in/media/catalog/product/w/h/white-tees-1_-front_1_3.png"/></mask></defs></svg>