<svg xmlns="http://www.w3.org/2000/svg" xmlns:se="http://svg-edit.googlecode.com" xmlns:xlink="http://www.w3.org/1999/xlink" id="svgcontent" width="107.1" height="340.95" x="0" y="0" viewBox="0 0 107.1 340.95" overflow="hidden"><g mask="" style="pointer-events:all"><title style="pointer-events:inherit">Layer 1</title><ellipse cx="54.73958128985706" cy="164.74656053655798" rx="79.16875685687172" ry="39.58437842843586" id="svg_1" fill="#000000" display="null" fill-opacity="1" stroke-opacity="1" transform="rotate(-89.7049 54.7396 164.747)" stroke="#000000" style="pointer-events:inherit"/><ellipse cx="54.73894631830802" cy="164.74712946949694" rx="72.56558736196604" ry="36.28279368098302" id="svg_2" fill="#ffffff" display="null" fill-opacity="1" stroke-opacity="1" transform="rotate(-89.7085 54.739 164.747)" stroke="#000000" style="pointer-events:inherit"/><g id="svg_3" type="text" text="COMPANY" font-size="10.104734397219431" font-family="Afta sans" fill="000000" text-anchor="start" font-weight="normal" font-style="normal" lineHeight="1" shapeId="0" shapeVal="0" fill-opacity="1" display="null" stroke-opacity="1" transform="rotate(-90 55.8964 165.078)" stroke="null" style="pointer-events:inherit"><path id="svg_4" fill="#000000" d="M5.44547,165.731C5.38516,159.257 11.1751,156.885 16.6836,158.815C16.6836,158.815 16.6836,160.042 16.6836,160.042C15.4573,159.459 14.2108,158.996 12.8236,158.996C12.502,158.996 7.09401,159.117 7.09401,165.711C7.09401,172.365 12.2808,172.245 12.8236,172.245C14.4521,172.245 15.7588,171.541 16.8243,170.677C16.8243,170.677 16.8243,172.064 16.8243,172.064C16.2011,172.486 14.7737,173.27 12.8236,173.27C8.05899,173.27 5.50579,169.872 5.44547,165.731C5.44547,165.731 5.44547,165.731 5.44547,165.731M20.4431,165.671C20.4431,172.566 25.4892,172.345 26.4541,172.345C27.2784,172.345 32.6462,172.325 32.6462,165.671C32.6462,158.916 27.2583,159.036 26.4341,159.036C25.469,159.036 20.4431,159.077 20.4431,165.671C20.4431,165.671 20.4431,165.671 20.4431,165.671M26.4541,158.152C31.7013,158.152 33.9931,160.765 33.9931,165.691C33.9931,169.953 31.8822,173.25 26.4541,173.25C20.9256,173.25 18.8749,170.214 18.8749,165.691C18.8749,160.765 21.6493,158.152 26.4541,158.152C26.4541,158.152 26.4541,158.152 26.4541,158.152M44.9096,171.159C44.9096,171.159 43.4219,171.159 43.4219,171.159C43.4219,171.159 37.6722,159.298 37.6722,159.298C37.6722,163.56 37.6119,168.204 37.6119,172.848C37.6119,172.848 36.3453,172.848 36.3453,172.848C36.3453,172.848 36.3453,158.473 36.3453,158.473C36.3453,158.473 38.798,158.473 38.798,158.473C38.798,158.473 43.6632,169.249 43.6632,169.249C44.025,170.033 44.4472,169.712 44.6483,169.249C48.8299,159.861 49.1917,159.097 49.433,158.473C49.433,158.473 51.7048,158.473 51.7048,158.473C51.7048,158.473 51.7048,172.848 51.7048,172.848C51.7048,172.848 50.4181,172.848 50.4181,172.848C50.4181,172.848 50.398,159.278 50.398,159.278C50.398,159.278 44.9096,171.159 44.9096,171.159M56.188,159.358C56.188,159.358 56.188,165.872 56.188,165.872C56.188,165.872 59.8469,165.872 59.8469,165.872C62.6614,165.872 63.4053,163.58 63.4053,162.695C63.4053,161.288 62.6614,159.358 59.8469,159.358C59.8469,159.358 56.188,159.358 56.188,159.358C56.188,159.358 56.188,159.358 56.188,159.358M54.9013,158.494C54.9013,158.494 59.8469,158.473 59.8469,158.473C63.6465,158.473 64.9332,160.745 64.9332,162.695C64.9332,164.525 63.727,166.797 59.8469,166.797C59.8469,166.797 56.188,166.797 56.188,166.797C56.188,166.797 56.188,172.868 56.188,172.868C56.188,172.868 54.9013,172.868 54.9013,172.868C54.9013,172.868 54.9013,158.494 54.9013,158.494C54.9013,158.494 54.9013,158.494 54.9013,158.494M74.8244,166.535C74.8244,166.535 72.2711,159.137 72.2711,159.137C72.2711,159.137 69.4164,166.535 69.4164,166.535C69.4164,166.535 74.8244,166.535 74.8244,166.535C74.8244,166.535 74.8244,166.535 74.8244,166.535M65.5966,172.848C65.5966,172.848 71.2659,158.473 71.2659,158.473C71.2659,158.473 73.3367,158.473 73.3367,158.473C73.3367,158.473 78.3828,172.848 78.3828,172.848C78.3828,172.848 76.8951,172.848 76.8951,172.848C76.8951,172.848 75.0857,167.379 75.0857,167.379C75.0857,167.379 69.2153,167.379 69.2153,167.379C69.2153,167.379 66.9838,172.848 66.9838,172.848C66.9838,172.848 65.5966,172.848 65.5966,172.848C65.5966,172.848 65.5966,172.848 65.5966,172.848M80.2926,172.848C80.2926,172.848 80.2926,158.494 80.2926,158.494C80.2926,158.494 82.2025,158.494 82.2025,158.494C82.2025,158.494 90.1838,171.32 90.1838,171.32C90.1838,171.32 90.1838,158.494 90.1838,158.494C90.1838,158.494 91.5107,158.494 91.5107,158.494C91.5107,158.494 91.5107,172.848 91.5107,172.848C91.5107,172.848 90.0029,172.848 90.0029,172.848C90.0029,172.848 81.5793,159.318 81.5793,159.318C81.5793,159.318 81.5793,172.848 81.5793,172.848C81.5793,172.848 80.2926,172.848 80.2926,172.848C80.2926,172.848 80.2926,172.848 80.2926,172.848M99.1502,167.46C99.1502,167.46 93.3401,158.473 93.3401,158.473C93.3401,158.473 94.8077,158.473 94.8077,158.473C94.8077,158.473 99.8337,166.435 99.8337,166.435C99.8337,166.435 104.92,158.473 104.92,158.473C104.92,158.473 106.408,158.473 106.408,158.473C106.408,158.473 100.598,167.46 100.598,167.46C100.598,167.46 100.598,172.868 100.598,172.868C100.598,172.868 99.1502,172.868 99.1502,172.868C99.1502,172.868 99.1502,167.46 99.1502,167.46C99.1502,167.46 99.1502,167.46 99.1502,167.46" stroke="null" style="pointer-events:inherit"/></g></g><defs><mask id="canvasMaskImageDef" maskUnits="objectBoundingBox" x="0" y="0"><image xmlns:xlink="http://www.w3.org/1999/xlink" id="canvasMaskImage" preserveAspectRatio="none" x="-25.05" y="-110.4" width="400" height="440.0580551523948" xlink:href="http://html5designer.designnbuy.in/media/catalog/product/w/h/white-tees-1_-front_1_3.png"/></mask></defs></svg>