<?xml version="1.0" encoding="utf-8"?>
<!-- Generator: Adobe Illustrator 16.0.0, SVG Export Plug-In . SVG Version: 6.00 Build 0)  -->
<!DOCTYPE svg PUBLIC "-//W3C//DTD SVG 1.1//EN" "http://www.w3.org/Graphics/SVG/1.1/DTD/svg11.dtd">
<svg version="1.1"
	 id="svg378" xmlns:cc="http://creativecommons.org/ns#" xmlns:dc="http://purl.org/dc/elements/1.1/" xmlns:rdf="http://www.w3.org/1999/02/22-rdf-syntax-ns#"
	 xmlns="http://www.w3.org/2000/svg" xmlns:xlink="http://www.w3.org/1999/xlink" x="0px" y="0px" width="143.447px"
	 height="71.281px" viewBox="0 0 143.447 71.281" enable-background="new 0 0 143.447 71.281" xml:space="preserve">
<rect id="rect149" x="0" fill="#FFFFFF" width="143.641" height="70.43"/>
<path id="path635" fill="#C70000" d="M91.983,36.176c0,11.154-8.946,20.195-19.982,20.195S52.02,47.33,52.02,36.176
	c0-11.151,8.944-20.192,19.98-20.192S91.983,25.025,91.983,36.176z"/>
<path id="path653" fill="#3D5897" d="M52.309,32.619c0.631,5.087,1.554,10.753,9.381,11.343c2.934,0.177,8.641-0.698,10.6-8.693
	c2.57-7.68,10.313-9.887,15.582-5.723c2.988,1.948,3.816,5.043,4.03,7.367c-0.239,7.461-4.523,13.92-10.02,16.801
	c-6.317,3.756-15.07,3.834-22.738-1.854C55.69,48.616,50.862,42.637,52.309,32.619L52.309,32.619z"/>
<path d="M45.356,6.5L33.848,19.813l-2.728-2.357L42.629,4.143L45.356,6.5z M49.125,9.758L37.616,23.07l-2.727-2.356L46.398,7.4
	L49.125,9.758z M45.356,6.5L33.848,19.813l-2.728-2.357L42.629,4.143L45.356,6.5z M45.356,6.5L33.848,19.813l-2.728-2.357
	L42.629,4.143L45.356,6.5z M52.977,13.099L41.469,26.411l-2.728-2.357L50.25,10.743L52.977,13.099z M45.356,6.5L33.848,19.813
	l-2.728-2.357L42.629,4.143L45.356,6.5z M45.356,6.5L33.848,19.813l-2.728-2.357L42.629,4.143L45.356,6.5z M109.802,19.858
	L98.384,6.467l2.743-2.339l11.418,13.39L109.802,19.858z M102.123,26.393l-11.42-13.389l2.744-2.34l11.418,13.39L102.123,26.393z
	 M95.358,18.383l10.813-9.329l2.017,2.332L96.631,21.775L95.358,18.383L95.358,18.383z M108.658,51.236L97.595,64.417l-2.713-2.256
	l11.063-13.181L108.658,51.236z M105.984,23.094L94.566,9.705l2.742-2.34l11.418,13.39L105.984,23.094z M112.406,54.352
	l-11.063,13.185l-2.712-2.256l11.063-13.185L112.406,54.352z M104.829,48.049L93.766,61.232l-2.713-2.258l11.063-13.182
	L104.829,48.049z M97.884,51.04l10.83,9.308l-2.007,2.338l-11.989-9.884L97.884,51.04L97.884,51.04z M46.338,64.917l-11.419-13.39
	l2.742-2.338l11.419,13.39L46.338,64.917z M35.694,60.208l10.813-9.326l2.015,2.33L36.966,63.6L35.694,60.208L35.694,60.208z
	 M50.129,61.684L38.71,48.295l2.743-2.338l11.418,13.389L50.129,61.684z M42.451,68.219l-11.419-13.39l2.743-2.338L45.194,65.88
	L42.451,68.219z"/>
</svg>
