<?xml version="1.0" encoding="utf-8"?>
<!-- Generator: Adobe Illustrator 16.0.0, SVG Export Plug-In . SVG Version: 6.00 Build 0)  -->
<!DOCTYPE svg PUBLIC "-//W3C//DTD SVG 1.1//EN" "http://www.w3.org/Graphics/SVG/1.1/DTD/svg11.dtd">
<svg version="1.1" id="Layer_1" xmlns="http://www.w3.org/2000/svg" xmlns:xlink="http://www.w3.org/1999/xlink" x="0px" y="0px"
	 width="100px" height="100px" viewBox="0 0 100 100" enable-background="new 0 0 100 100" xml:space="preserve">
<g>
	<path fill="#010101" d="M69.15,97.229c-1.012,0.106-2.026,0.213-3.041,0.317c0,0.004,0,0.009,0,0.013
		c0.021,0.047,0.041,0.092,0.061,0.135c-0.386,0.006-0.913,0.117-1.299,0c-0.307-0.193-0.616-0.387-0.924-0.58
		c-0.368,0.084-0.735,0.168-1.102,0.252c-0.675,0.173-1.523,0.255-2.357,0.119c-0.547-0.024-1.094-0.051-1.641-0.074
		c-0.175-0.025-0.508,0.054-0.597-0.059c-0.331-0.641,0.049-1.797-0.104-2.609c-0.148-0.661-0.299-1.322-0.447-1.982
		c-0.016-0.479-0.028-0.957-0.045-1.433c-0.125-0.797,0.246-1.591,0.076-2.282c-0.403-1.927-0.809-3.857-1.209-5.787
		c-0.146-1.509-0.289-3.02-0.434-4.531c0.02-2.871,0.04-5.744,0.061-8.615c-0.211-1.76-0.418-3.521-0.627-5.277
		c0.065-1.977,0.131-3.949,0.195-5.921c-0.148-1.063-0.3-2.126-0.447-3.19c-0.14-0.736-0.278-1.472-0.418-2.207
		c-0.149-0.598-0.3-1.193-0.447-1.789c0-0.646,0-1.294,0-1.938c-0.041-0.364-0.081-0.728-0.119-1.089
		c-0.145-0.616-0.288-1.233-0.434-1.851c0.02-0.669,0.041-1.34,0.06-2.012c0.05-1.222,0.099-2.445,0.151-3.668
		c0.041-0.276,0.15-1.72,0.072-1.921c-0.408,1.688-0.814,3.379-1.224,5.068c-0.162,1.412-0.327,2.824-0.491,4.235
		c0.036,0.462,0.071,0.925,0.104,1.387c0.045,0.669,0.09,1.341,0.135,2.011c0.189,0.617,0.379,1.232,0.566,1.849
		c0.021,0.534,0.039,1.063,0.06,1.597c-0.101,0.31-0.198,0.616-0.298,0.926c-0.215-0.039-0.428-0.08-0.641-0.12
		c-0.328,0.331-0.656,0.667-0.986,1c-0.248,0.059-0.496,0.118-0.742,0.178c-0.131,0.353-0.259,0.706-0.389,1.06
		c-0.948,0.189-2.039,0.238-3.101,0.074c-0.509-0.029-1.016-0.06-1.522-0.089c-0.656-0.034-1.311-0.069-1.967-0.104
		c-0.732-0.273-1.462-0.547-2.194-0.82c-0.564-0.365-1.132-0.734-1.698-1.104c-0.004,0-0.01,0-0.015,0
		c-0.332,2.099-0.667,4.196-1,6.293c-0.209,1.678-0.418,3.353-0.626,5.026c-0.113,1.838-0.228,3.677-0.343,5.517
		c-0.083,1.304-0.169,2.604-0.254,3.908c-0.328,2.797-0.655,5.596-0.983,8.395c-0.154,1.013-0.308,2.027-0.462,3.042
		c-0.295,1.493-0.59,3.169-0.312,4.917c0.061,0.396-0.054,0.804-0.119,1.148c-0.021,0.125-0.042,0.25-0.06,0.375
		c0.078,0.159,0.157,0.317,0.238,0.477c0.256,0.538,0.524,0.914,0.863,1.343c-0.06,0.248-0.118,0.496-0.178,0.744
		c-0.021,0-0.039,0-0.06,0c-0.404-0.14-1.001-0.074-1.521-0.074c-0.82,0.017-1.641,0.03-2.46,0.047
		c-0.309,0.039-0.617,0.078-0.924,0.118c-0.033-0.543-0.06-1.08-0.062-1.67c-0.524,0.08-1.051,0.159-1.579,0.238
		c-0.209-0.11-0.417-0.219-0.626-0.329c-0.159-0.073-0.319-0.147-0.479-0.222c-0.08-0.189-0.159-0.379-0.237-0.568
		c-0.109-0.234-0.219-0.467-0.33-0.701c-0.058-0.377-0.117-0.754-0.178-1.134c-0.02-0.563-0.039-1.132-0.06-1.699
		c-0.249-1.339-0.71-2.308-1.61-2.979c-0.524,0.416-0.803,1.309-1.09,1.951c-0.282,0.599-0.563,1.192-0.848,1.789
		c-0.158,0.362-0.318,0.727-0.477,1.09c-0.364,0.396-0.725,0.795-1.088,1.191c-0.376,0.469-0.649,0.664-1.178,0.984
		c-0.136,0.084-0.269,0.169-0.403,0.254c-0.746,0.02-1.49,0.041-2.236,0.061c-0.552-0.086-1.104-0.17-1.656-0.254
		c-0.454-0.805-0.905-1.609-1.357-2.415c-0.458-1.104-0.561-2.583-0.791-3.909c-0.051-0.302,0.123-1.214,0.195-1.462
		c0.233-0.881,0.466-1.768,0.7-2.653c0.333-1.265,0.666-2.531,1-3.801c0.76-2.092,1.519-4.185,2.281-6.275
		c0.164-1.014,0.328-2.028,0.491-3.042c0.206-0.989,0.417-1.919,0.417-3.058c0-0.547,0-1.095,0-1.641
		c-0.068-0.277-0.138-0.559-0.208-0.836c-0.039-0.157-0.201-0.657-0.135-0.746c0.25-0.139,0.497-0.277,0.748-0.417
		c0.011-1.13,0.295-2.058,0.478-2.996c0.019-0.428,0.039-0.854,0.058-1.282c0.229-0.895,0.458-1.789,0.687-2.685
		c0.397-1.207,0.794-2.417,1.193-3.625c0.238-0.757,0.494-1.438,0.626-2.353c0.005,0,0.009,0,0.013,0
		c0.031,0.041,0.005,0.015,0.046,0.028c0.654-1.774,1.312-3.551,1.968-5.324c0.418-0.496,0.835-0.995,1.253-1.49
		c0.02-0.507,0.039-1.016,0.058-1.523c0.197-0.672,0.68-1.267,0.644-2.056c0.087,0.016,0.1,0.037,0.147,0.09
		c-0.019,0.129-0.038,0.256-0.06,0.386c0.129-0.112,0.26-0.228,0.39-0.341c0.144-0.079,0.288-0.16,0.431-0.239
		c0.074-0.148,0.15-0.299,0.222-0.448c-0.138-0.252-0.276-0.507-0.416-0.761c-0.208-0.212-0.418-0.426-0.627-0.642
		c-0.144-0.281-0.288-0.566-0.431-0.849c-0.079-0.138-0.161-0.277-0.24-0.417c-0.121-0.408-0.043-1.343,0.032-1.684
		c0.03-0.189,0.06-0.378,0.09-0.567c0.414-1.116,1.885-2.179,2.964-2.655c0.313-0.146,0.628-0.297,0.94-0.446
		c0.208-0.024,0.418-0.052,0.627-0.075c0.163-0.02,0.328-0.039,0.492-0.06c0.604,0.124,1.179,0.273,1.686,0.507
		c0.507,0.234,0.976,0.594,1.55,0.791c0.6,0.204,1.305,0.101,2.028,0.013c0.258-0.019,0.518-0.039,0.776-0.057
		c0.15,0.148,0.297,0.297,0.447,0.447c0,0.004,0,0.009,0,0.015c0.01,0.919-0.495,1.564-0.998,1.966
		c-0.535,0.43-0.981,0.9-0.492,1.626c0.387,0.034,0.654,0.239,0.701,0.613c-0.281,0.466-0.084,0.944-0.271,1.459
		c0.071,0.101,0.142,0.199,0.209,0.3c-0.021,0.154-0.039,0.309-0.061,0.463c0.071,0.251,0.14,0.507,0.209,0.759
		c-0.07,0.17-0.139,0.339-0.209,0.509c-0.164,0.152-0.413,0.143-0.447,0.432c-0.06,0.494,0.539,0.97,0.642,1.312
		c0.102,0.339,0,1.037,0,1.416c0.397,0.279,0.795,0.557,1.192,0.835c0.338,0.213,0.676,0.427,1.015,0.642
		c0.268,0.268,0.536,0.537,0.803,0.804c0.161,0.149,0.319,0.299,0.479,0.448c0.238,0.731,0.477,1.461,0.714,2.188
		c0.051,0.307,0.1,0.609,0.151,0.912c0.227,0.243,0.456,0.486,0.687,0.731c0.287,0.356,0.631,0.555,1.029,0.804
		c0.152,0.104,0.307,0.21,0.462,0.313c0.336,0.062,0.675,0.119,1.012,0.179c0.774,0.169,1.554,0.358,2.505,0.36
		c0.075-0.543,0.149-1.084,0.223-1.627c-0.031-0.541-0.059-1.084-0.089-1.625c0.149-0.933,0.12-1.941,0.268-2.804
		c0.004-0.308,0.01-0.615,0.017-0.924c0.043-0.92,0.087-1.839,0.132-2.759c0.075-0.476-0.294-0.806-0.209-1.342
		c0.031-0.735,0.061-1.471,0.09-2.208c0.111-0.544,0.22-1.093,0.329-1.639c-0.168-1.307-0.337-2.614-0.506-3.921
		c0.169-1.416,0.338-2.833,0.506-4.25c0.333-0.975,0.666-1.95,0.998-2.923c0.125-0.546,0.25-1.092,0.374-1.639
		c0.14-0.638,0.278-1.273,0.417-1.909c0.209-0.686,0.418-1.373,0.625-2.058c0.121-0.5,0.239-1.005,0.358-1.507
		c0.304-0.451,0.606-0.903,0.91-1.356c0.467-0.329,0.935-0.656,1.399-0.984c0.692-0.339,1.383-0.676,2.074-1.014
		c0.108-0.129,0.219-0.259,0.329-0.389c0.404-0.506,0.816-0.961,1.16-1.55c0.149-0.252,0.613-0.925,0.657-1.194
		c0.047-0.294-0.376-0.276-0.535-0.371c-0.13-0.149-0.262-0.299-0.389-0.45c-0.016-0.148-0.028-0.297-0.047-0.445
		c-0.073-0.409-0.147-0.815-0.223-1.224c-0.169-0.493-0.611-0.792-0.76-1.252c-0.145-0.437-0.012-0.977-0.091-1.462
		c-0.046-0.506-0.089-1.013-0.134-1.521c-0.104-0.641-0.137-1.354-0.029-1.998c0.083-0.503-0.031-1.165,0.223-1.506
		c0.141-0.093,0.278-0.188,0.418-0.283c0.254-0.189,0.508-0.378,0.76-0.567c0.229-0.064,0.459-0.129,0.688-0.193
		c1.254-0.394,2.801-0.865,4.456-0.582c0.331,0.029,0.656,0.06,0.984,0.09C63.917,3,64.309,3.194,64.701,3.388
		c0.117,0.159,0.229,0.318,0.343,0.478c0.373,0.521,0.856,1.087,1.12,1.7c0.036,0.168,0.068,0.336,0.104,0.506
		c0.086,0.348,0.17,0.696,0.252,1.043c-0.018,0.204-0.037,0.408-0.058,0.61c-0.085,0.515-0.099,1.015-0.202,1.46
		c-0.05,0.258-0.1,0.516-0.15,0.775c-0.264,0.669-0.769,1.12-0.834,2.013c0.981,0.477,1.838,1.145,2.652,1.789
		c0.206,0.169,0.408,0.337,0.612,0.507c0.237,0.344,0.479,0.686,0.715,1.029c0.354,0.293,0.707,0.586,1.062,0.88
		c0.172,0.155,0.348,0.307,0.521,0.461c0.516,0.149,1.034,0.298,1.551,0.448c0.209,0.154,0.418,0.308,0.625,0.461
		c0.293,0.2,0.588,0.398,0.881,0.596c0.451,0.542,0.904,1.085,1.354,1.627c0.149,0.336,0.301,0.676,0.448,1.013
		c1.14,2.59,1.656,6,2.207,9.154c0.066,0.841,0.129,1.683,0.195,2.52c-0.103,1.492-0.201,2.984-0.301,4.474
		c0.229,0.791,0.459,1.581,0.688,2.371c0.383,1.775,0.766,3.55,1.148,5.324c0.242,0.734,0.485,1.471,0.73,2.207
		c-0.09,0.696-0.18,1.392-0.27,2.087c0.135,0.556,0.27,1.115,0.4,1.671c0.162,0.627,0.234,1.258,0.463,1.817
		c0.221,0.493,0.438,0.985,0.658,1.478c0.063,0.443,0.129,0.885,0.193,1.327c-0.086,0.55-0.158,1.259-0.063,1.862
		c0,0.105,0,0.209,0,0.314c0.338,0.711,0.678,1.422,1.016,2.133c0.411,0.931,0.905,1.768,1.342,2.64
		c0.379,0.938,0.756,1.878,1.133,2.817c0.275,0.656,0.548,1.313,0.82,1.968c0,2.618,0,5.239,0,7.856
		c-0.006,1.656-0.01,3.311-0.015,4.969c-0.616,0.252-1.231,0.504-1.851,0.759c-0.66,0.051-1.321,0.1-1.981,0.149
		c-0.69,0.11-1.485,0.088-2.28,0.088c-0.518-0.016-1.035-0.027-1.552-0.045c-0.478-0.014-0.955-0.029-1.432-0.043
		c-0.558-0.18-1.114-0.358-1.671-0.537c-0.219-0.198-0.437-0.397-0.656-0.598c-0.217-0.188-0.438-0.379-0.655-0.566
		c-0.05-0.188-0.101-0.377-0.149-0.566c-0.1-0.327-0.197-0.656-0.297-0.984c-0.004-0.646-0.012-1.291-0.017-1.937
		c0-0.394-0.045-0.813,0.017-1.195c0.09-0.567-0.013-1.194,0.09-1.698c0.283-1.879,0.566-3.757,0.851-5.636
		c0.446-1.771,0.892-3.541,1.34-5.308c0.398-0.951,0.798-1.899,1.193-2.85c0.231-0.722,0.226-1.632,0.226-2.564
		c0.004-0.389,0.01-0.773,0.014-1.163c0.121-0.315,0.24-0.636,0.357-0.954c0.141-0.029,0.278-0.061,0.418-0.09
		c0-0.178,0-0.355,0-0.536c-0.148-0.028-0.297-0.06-0.447-0.089c-0.064-0.104-0.131-0.208-0.192-0.313
		c-0.364-0.549-0.734-1.158-0.955-1.852c-0.125-0.396-0.255-1.048-0.493-1.328c-0.271-0.093-0.545-0.187-0.818-0.283
		c-0.01,0.01-0.02,0.021-0.031,0.031c-1.075,0.521-0.91,2.316-1.28,3.548c-0.437,1.458-0.985,2.779-1.297,4.324
		c-0.031,0.407-0.06,0.813-0.091,1.226c-0.096,1.164-0.188,2.334-0.282,3.502c-0.021,0.416-0.038,0.834-0.06,1.252
		c-0.056,0.89-0.11,1.779-0.166,2.668c-0.295,2.035-0.596,4.066-0.895,6.1c0.029,1.291,0.061,2.586,0.09,3.877
		c-0.193,1.105-0.388,2.208-0.582,3.311c-0.012,0.019-0.053-0.021-0.072,0.045c-0.199,1.183-0.397,2.365-0.599,3.549
		c-0.338,1.188-0.677,2.377-1.013,3.563c-0.16,0.513-0.32,1.024-0.477,1.536c0.008,0.785,0.02,1.57,0.028,2.354
		c0.028,1.03,0.06,2.061,0.089,3.09c0.139,0.556,0.277,1.111,0.417,1.668c0.13,0.373,0.261,0.748,0.388,1.119
		C69.23,96.676,69.191,96.955,69.15,97.229z M54.15,39.2c0,0.012,0,0.02,0,0.03C54.15,39.22,54.15,39.212,54.15,39.2z
		 M80.782,57.047c-0.103,0.32,0.38,1.838,0.491,2.253c0.134,0.481,0.123,1.099,0.209,1.625c0.014,0.185,0.029,0.367,0.043,0.552
		c0.271,0.695,0.539,1.393,0.808,2.088c0.258,0.438,0.517,0.875,0.774,1.313c0.01-0.006,0.021-0.01,0.029-0.018
		c0.115-0.228,0.229-0.455,0.344-0.685c-0.086-0.473-0.168-0.946-0.254-1.417c-0.072-0.438-0.148-0.876-0.224-1.31
		c-0.437-0.867-0.876-1.732-1.313-2.597C81.389,58.25,81.085,57.648,80.782,57.047z M78.32,57.407
		c-0.104,0.435-0.209,0.873-0.313,1.312c-0.357,1.788-0.716,3.578-1.074,5.365c0.004,0,0.012,0,0.017,0
		c0.362-0.036,0.726-0.079,1.089-0.116c0.164-0.31,0.328-0.618,0.49-0.926c0.035-0.249,0.07-0.497,0.104-0.745
		c0.093-0.542,0.179-1.084,0.271-1.626c0.02-0.397,0.039-0.796,0.059-1.192c0.036-0.57,0.07-1.142,0.105-1.715
		c-0.237-0.097-0.478-0.188-0.715-0.283C78.342,57.454,78.333,57.43,78.32,57.407z M25.672,61.432
		c-0.245,0.336-0.286,0.911-0.403,1.373c-0.195,0.805-0.385,1.608-0.581,2.415c-0.755,0.369-1.566,0.905-1.805,1.788
		c0,0.253,0,0.51,0,0.76c0,0.256,0,0.508,0,0.763c0.234,0.79,0.469,1.581,0.702,2.37c0.537,2.564,1.072,5.13,1.611,7.692
		c0.203,2.61,0.408,5.222,0.611,7.83c-0.02-1.388-0.04-2.774-0.06-4.161c0.208-1.117,0.417-2.236,0.626-3.354
		c-0.004-1.167-0.009-2.337-0.014-3.505c-0.005-0.564-0.009-1.133-0.016-1.697c-0.008-0.571-0.019-1.145-0.029-1.715
		c-0.08-0.797-0.159-1.592-0.237-2.389c-0.378-0.996-0.756-1.996-1.132-2.996C25.186,64.881,25.43,63.156,25.672,61.432z
		 M22.227,68.455c0.046,1.281,0.091,2.563,0.135,3.848c0.324,0.131,0.646,0.268,0.97,0.4C22.964,71.288,22.596,69.871,22.227,68.455
		z M21.556,69.157c0.003,0.159-0.049,0.198-0.087,0.312c0.002,0,0.007,0,0.015,0c0-0.011,0-0.021,0-0.029
		c0.019-0.021,0.039-0.039,0.059-0.062c-0.158,1.136-0.317,2.269-0.478,3.399c0.011,0,0.021,0,0.03,0
		c0.234,0.062,0.468,0.121,0.702,0.178c0-0.048,0-0.096,0-0.148C21.715,71.591,21.636,70.373,21.556,69.157z M64.006,69.23
		c0.023,0.242,0.042,0.486,0.063,0.729c0-0.01,0-0.021,0-0.03c0.049-0.169,0.101-0.339,0.147-0.507
		C64.146,69.357,64.077,69.295,64.006,69.23z M64.052,70.005c-0.481,1.636-0.964,3.272-1.446,4.906
		c0.025,1.094,0.052,2.187,0.076,3.28c0.01,0.709,0.02,1.42,0.029,2.132c0.168,1.495,0.337,2.991,0.506,4.487
		c0.159,1.438,0.318,2.873,0.477,4.311c0.012-0.012,0.021-0.021,0.031-0.03c0.237-0.165,0.479-0.327,0.717-0.491
		c0.02-2.785,0.039-5.566,0.059-8.351c0.007-0.438,0.014-0.875,0.016-1.313c0.006-0.437,0.01-0.873,0.014-1.313
		c0.068-0.441,0.021-0.997-0.043-1.4c-0.039-0.578-0.078-1.152-0.119-1.729C64.262,72.999,64.156,71.5,64.052,70.005z
		 M31.398,81.264c-0.041,0.313-0.08,0.625-0.118,0.938c-0.012,0.303-0.021,0.604-0.032,0.907c-0.01,0.471-0.02,0.937-0.029,1.404
		c-0.166,0.512-0.329,1.022-0.494,1.533c0.333,0.16,0.666,0.318,0.999,0.479c0.125-0.254,0.25-0.506,0.372-0.76
		c0.051-0.578,0.1-1.154,0.152-1.729c0.029-0.287,0.059-0.575,0.087-0.865C32.024,82.534,31.711,81.898,31.398,81.264z
		 M31.204,88.404c-0.015,0.02-0.027,0.039-0.046,0.061c0.05,0.113,0.102,0.229,0.15,0.342
		C31.273,88.672,31.238,88.539,31.204,88.404z M31.339,88.912c0.015,0.084,0.028,0.169,0.045,0.254c0.003,0,0.008,0,0.015,0
		C31.402,89.045,31.384,88.979,31.339,88.912z M31.398,89.256c-0.012,0.702,0.079,1.219,0.195,1.771
		c0.038,0.227,0.077,0.449,0.118,0.672C31.719,91.003,31.65,89.684,31.398,89.256z M63.367,92.641
		c-0.006,0.495,0.002,1.058,0.222,1.34c-0.028,0.025-0.06,0.053-0.088,0.076c0.054,0,0.108,0,0.164,0
		c-0.021-0.023-0.04-0.051-0.06-0.076c0-0.004,0-0.008,0-0.014c0.246-0.174,0.496-0.349,0.744-0.521
		c-0.015-0.021-0.031-0.04-0.043-0.061C63.993,93.139,63.68,92.889,63.367,92.641z"/>
</g>
</svg>
