<?xml version="1.0" encoding="utf-8"?>
<!-- Generator: Adobe Illustrator 16.0.0, SVG Export Plug-In . SVG Version: 6.00 Build 0)  -->
<!DOCTYPE svg PUBLIC "-//W3C//DTD SVG 1.1//EN" "http://www.w3.org/Graphics/SVG/1.1/DTD/svg11.dtd">
<svg version="1.1"
	 id="svg378" xmlns:cc="http://creativecommons.org/ns#" xmlns:dc="http://purl.org/dc/elements/1.1/" xmlns:rdf="http://www.w3.org/1999/02/22-rdf-syntax-ns#"
	 xmlns="http://www.w3.org/2000/svg" xmlns:xlink="http://www.w3.org/1999/xlink" x="0px" y="0px" width="144px" height="108px"
	 viewBox="0 0 144 108" enable-background="new 0 0 144 108" xml:space="preserve">
<rect id="rect7524" y="72.157" width="144" height="35.843"/>
<rect id="rect7526" fill="#FF0000" width="144" height="35.842"/>
<rect id="rect7526_1_" y="35.775" fill="#FFFFFF" width="144" height="35.842"/>
<path fill="#009900" d="M45.427,63.225l-6.485-4.692l-6.452,4.739l2.399-7.705l-6.44-4.755l7.969-0.066l2.472-7.682l2.524,7.664
	l7.969,0.01l-6.407,4.804L45.427,63.225L45.427,63.225z M114.646,63.225l-6.485-4.692l-6.452,4.739l2.398-7.705l-6.44-4.755
	l7.97-0.066l2.473-7.682l2.523,7.664l7.969,0.01l-6.406,4.804L114.646,63.225L114.646,63.225z"/>
</svg>
