<?xml version="1.0" encoding="utf-8"?>
<!-- Generator: Adobe Illustrator 16.0.0, SVG Export Plug-In . SVG Version: 6.00 Build 0)  -->
<!DOCTYPE svg PUBLIC "-//W3C//DTD SVG 1.1//EN" "http://www.w3.org/Graphics/SVG/1.1/DTD/svg11.dtd">
<svg version="1.1" id="Layer_1" xmlns="http://www.w3.org/2000/svg" xmlns:xlink="http://www.w3.org/1999/xlink" x="0px" y="0px"
	 width="288px" height="288px" viewBox="0 0 288 288" enable-background="new 0 0 288 288" xml:space="preserve">
<path d="M139.701,186.342c0.958,0,1.907-0.072,2.845-0.177c-0.021,1.021-0.032,2.043-0.059,3.063v42.264h-5.056v-42.23
	c-0.025-1.012-0.039-2.026-0.061-3.039C138.142,186.293,138.918,186.342,139.701,186.342z M176.436,132.821
	c0-29.558-16.445-53.52-36.734-53.52c-20.287,0-36.733,23.962-36.733,53.52c0,28.415,15.203,51.647,34.402,53.401
	c-0.104-4.924-0.172-9.843-0.208-14.766l-4.684-6.553c-1.1-1.455-2.176-2.932-3.243-4.41c-1.499-2.122-2.985-4.251-4.406-6.428
	c-1.427-2.172-2.816-4.371-4.095-6.65c1.743,1.949,3.375,3.975,4.968,6.028c1.597,2.049,3.132,4.144,4.653,6.247
	c1.056,1.492,2.103,2.992,3.127,4.506l3.663,5.123c-0.006-0.881-0.018-1.762-0.021-2.645c0.028-5.45,0.075-10.898,0.173-16.35
	l-4.818-6.739c-1.1-1.457-2.176-2.932-3.243-4.411c-1.499-2.121-2.985-4.25-4.406-6.427c-1.427-2.171-2.816-4.372-4.095-6.649
	c1.743,1.947,3.375,3.972,4.968,6.026c1.597,2.049,3.132,4.145,4.653,6.248c1.056,1.493,2.103,2.991,3.127,4.506l3.862,5.401
	c0.093-4.565,0.217-9.131,0.41-13.697c0.038-0.96,0.085-1.919,0.128-2.879l-5.403-7.557c-1.1-1.457-2.176-2.932-3.243-4.411
	c-1.499-2.122-2.985-4.251-4.406-6.427c-1.427-2.171-2.816-4.372-4.095-6.65c1.743,1.947,3.375,3.973,4.968,6.027
	c1.597,2.049,3.132,4.145,4.653,6.248c1.056,1.492,2.103,2.991,3.127,4.505l4.488,6.277c0.412-9.076,0.994-18.151,1.988-27.227
	c0.971,8.849,1.55,17.698,1.961,26.547l4-5.598c1.023-1.515,2.071-3.013,3.128-4.505c1.521-2.104,3.057-4.199,4.654-6.248
	c1.593-2.054,3.224-4.08,4.966-6.027c-1.278,2.278-2.666,4.479-4.095,6.65c-1.42,2.176-2.906,4.306-4.404,6.427
	c-1.068,1.479-2.145,2.954-3.246,4.411l-4.915,6.877c0.052,1.187,0.111,2.373,0.159,3.558c0.184,4.333,0.301,8.666,0.393,12.999
	l3.361-4.703c1.023-1.515,2.071-3.013,3.128-4.506c1.521-2.103,3.057-4.199,4.654-6.248c1.593-2.054,3.224-4.08,4.966-6.026
	c-1.278,2.277-2.666,4.478-4.095,6.649c-1.42,2.177-2.906,4.306-4.404,6.427c-1.068,1.479-2.145,2.954-3.246,4.411l-4.316,6.041
	c0.107,5.683,0.159,11.365,0.19,17.048c-0.004,0.64-0.012,1.279-0.017,1.918l3.14-4.396c1.023-1.514,2.071-3.014,3.128-4.506
	c1.521-2.104,3.057-4.198,4.654-6.247c1.593-2.054,3.224-4.079,4.966-6.028c-1.278,2.279-2.666,4.479-4.095,6.65
	c-1.42,2.177-2.906,4.306-4.404,6.428c-1.068,1.479-2.145,2.955-3.246,4.41l-4.161,5.822c-0.035,5.146-0.103,10.292-0.214,15.438
	C161.504,184.045,176.436,160.981,176.436,132.821z"/>
</svg>
