<?xml version="1.0" encoding="utf-8"?>
<!-- Generator: Adobe Illustrator 16.0.0, SVG Export Plug-In . SVG Version: 6.00 Build 0)  -->
<!DOCTYPE svg PUBLIC "-//W3C//DTD SVG 1.1//EN" "http://www.w3.org/Graphics/SVG/1.1/DTD/svg11.dtd">
<svg version="1.1" id="Layer_1" xmlns="http://www.w3.org/2000/svg" xmlns:xlink="http://www.w3.org/1999/xlink" x="0px" y="0px"
	 width="100px" height="100px" viewBox="0 0 100 100" enable-background="new 0 0 100 100" xml:space="preserve">
<path d="M66.407,71.064l-0.136,4.812l-4.611,2.505l-3.826-2.768L66.407,71.064z M34.553,24.892c0.125,0.262,0.324,0.336,0.785,0.137
	l5.01-2.58c0.399-0.199,0.461-0.461,0.262-0.922L30.528,1.674c-0.262-0.461-0.798-0.523-1.196-0.324l-4.811,2.443
	c-0.399,0.199-0.461,0.523-0.324,0.86l0.523,0.984c0.2,0.399-0.137,0.599-0.398,0.786l-1.508,0.735
	c-0.399,0.261-0.274,0.585-0.137,0.922l1.907,3.826c0.137,0.2,0.137,0.461-0.125,0.586l-0.523,0.336
	c-0.274,0.125-0.536,0-0.661-0.199l-1.981-3.963c-0.2-0.324-0.536-0.387-0.86-0.262l-10.157,5.209
	c-0.398,0.2-0.523,0.661-0.324,0.997l1.121,2.106c0.125,0.399,0.648,0.599,1.047,0.399l4.362-2.181c0.386-0.2,0.723-0.2,0.847,0.137
	l0.2,0.461c0.137,0.324,0.062,0.523-0.262,0.661l-4.487,2.305c-0.461,0.262-0.523,0.586-0.324,0.985l0.86,1.782
	c0.125,0.261,0.461,0.336,0.785,0.199l6.792-3.427c0.262-0.199,0.399-0.399,0.199-0.723l-1.72-3.303
	c-0.125-0.199-0.125-0.523,0.137-0.661l0.523-0.261c0.262-0.137,0.598-0.063,0.723,0.261l1.72,3.303
	c0.137,0.262,0.398,0.324,0.661,0.199l5.209-2.642c0.399-0.199,0.661-0.199,0.797,0.125l0.262,0.461
	c0.124,0.274-0.075,0.598-0.337,0.735l-5.209,2.63c-0.262,0.199-0.324,0.661-0.199,0.859l1.583,3.166
	c0.2,0.336,0.274,0.536-0.063,0.661l-0.598,0.262c-0.262,0.137-0.386,0.199-0.585-0.2l-1.72-3.228
	c-0.125-0.324-0.398-0.461-0.785-0.262l-6.73,3.427c-0.262,0.137-0.461,0.336-0.336,0.598l1.059,2.106
	c0.137,0.2,0.398,0.337,0.661,0.2l4.686-2.38c0.399-0.187,0.586-0.262,0.723,0.075l0.324,0.586c0.137,0.336,0,0.461-0.262,0.598
	l-4.611,2.443c-0.336,0.125-0.461,0.399-0.262,0.86l1.184,2.43c0.199,0.399,0.723,0.599,1.321,0.274l9.958-5.146
	c0.324-0.137,0.461-0.399,0.262-0.723l-2.043-4.026c-0.2-0.398-0.262-0.598,0.062-0.722l0.536-0.337
	c0.386-0.262,0.585,0,0.723,0.337l2.044,4.013c0.125,0.274,0.461,0.461,0.723,0.336l1.645-0.86c0.336-0.137,0.661,0.062,0.797,0.262
	L34.553,24.892L34.553,24.892z M65.148,26.15c-0.137,0.262-0.398,0.324-0.858,0.125l-4.612-2.443
	c-0.398-0.187-0.461-0.461-0.262-0.922L69.499,3.07c0.263-0.473,0.724-0.536,1.196-0.336l4.748,2.442
	c0.387,0.199,0.522,0.523,0.324,0.86L75.307,7.02c-0.199,0.399,0.063,0.599,0.398,0.798l1.445,0.723
	c0.461,0.261,0.336,0.585,0.199,0.922l-1.981,3.826c-0.063,0.2-0.063,0.461,0.2,0.586l0.598,0.336c0.324,0.2,0.462,0,0.586-0.199
	l1.98-3.963c0.199-0.324,0.523-0.461,0.859-0.262l10.221,5.209c0.336,0.2,0.397,0.661,0.262,0.86l-1.121,2.243
	c-0.188,0.399-0.661,0.599-1.122,0.399l-3.688-1.981c-0.461-0.2-0.723-0.137-0.859,0.199l-0.2,0.461
	c-0.123,0.324-0.062,0.523,0.2,0.661l3.964,2.044c0.46,0.262,0.522,0.598,0.323,0.984l-0.86,1.782
	c-0.124,0.261-0.46,0.336-0.847,0.199l-6.729-3.427c-0.337-0.199-0.399-0.399-0.2-0.723l2.106-3.963
	c0.138-0.262,0.075-0.585-0.124-0.723l-0.537-0.199c-0.186-0.125-0.521-0.125-0.723,0.261l-2.105,3.963
	c-0.137,0.262-0.398,0.324-0.66,0.199l-5.209-2.642c-0.398-0.2-0.662-0.262-0.799,0.062l-0.322,0.598
	c-0.139,0.324,0.062,0.523,0.397,0.661l5.209,2.642c0.263,0.187,0.263,0.586,0.199,0.848l-2.044,4.163
	c-0.198,0.324-0.273,0.523,0.063,0.66l0.6,0.262c0.262,0.125,0.386,0.199,0.586-0.199l2.181-4.225
	c0.124-0.324,0.397-0.461,0.785-0.262l6.729,3.427c0.262,0.137,0.461,0.337,0.262,0.599l-0.984,2.105
	c-0.137,0.2-0.398,0.337-0.723,0.2l-4.025-2.181c-0.398-0.187-0.6-0.187-0.723,0.075l-0.338,0.585
	c-0.198,0.336-0.063,0.461,0.263,0.661l4.024,2.181c0.338,0.137,0.461,0.399,0.263,0.86l-1.246,2.442
	c-0.138,0.386-0.661,0.586-1.321,0.262l-10.219-5.483c-0.337-0.125-0.462-0.386-0.273-0.723l2.057-4.025
	c0.187-0.386,0.261-0.586-0.075-0.723l-0.522-0.324c-0.398-0.261-0.6,0-0.724,0.324l-2.044,4.025
	c-0.137,0.262-0.461,0.461-0.734,0.324l-1.646-0.847c-0.323-0.137-0.66,0.062-0.785,0.262L65.148,26.15L65.148,26.15z
	 M48.461,38.414l-5.471,2.965l12.064,24.203l5.672-2.829L48.461,38.414z M50.505,40.059l0.661-1.184l5.085,2.904l-2.442,4.948
	L50.505,40.059L50.505,40.059z M49.06,56.348l-4.885,9.832l-5.671-2.842l7.054-13.783L49.06,56.348L49.06,56.348z M66.67,76.461
	l-4.624,2.518c0.399,0.586,0.337,1.047-0.323,1.584c-2.443,1.906-4.549,3.353-6.793,6.131c-1.195,1.445-1.258,4.149,0,5.994
	c2.045,2.843,6.069,3.166,8.961,1.584c2.058-1.047,3.901-3.092,3.303-6.258c-0.323-1.656-2.043-3.103-4.485-2.58
	c-1.185,0.264-2.308,1.584-2.169,2.967c0.063,1.197,0.723,1.658,1.707,1.783c0.923,0.137,1.845-0.461,1.92-1.582
	c0-0.725-0.734-1.51-1.396-1.584c1.26-0.262,2.443,0.535,2.58,2.043c0.125,1.123-0.461,2.506-1.98,3.24
	c-2.105,1.047-5.012,1.047-6.395-0.859c-0.858-1.06-0.858-2.965,0.324-4.225c4.549-4.611,12.001-8.238,17.41-10.095
	c1.782-0.586,3.963-0.063,5.085,1.458c0.983,1.246,0.922,3.229-0.798,5.01c-1.246,1.385-4.148,2.704-5.534,1.583
	c-1.258-0.922-0.659-2.567,0.399-3.229c0.063,0.986,1.121,1.584,2.105,1.186c0.859-0.324,0.859-1.32,0.523-1.906
	c-0.523-0.998-1.907-1.457-3.029-1.121c-1.52,0.461-2.766,1.383-2.704,3.625c0,1.771,1.122,3.166,3.429,3.689
	c2.242,0.521,4.61-0.462,6.729-2.566c1.844-1.857,2.242-4.824,0.585-7.453c-1.445-2.317-4.811-3.104-6.917-2.442
	c-2.118,0.66-4.821,1.646-6.131,1.981C67.455,77.197,67.057,76.997,66.67,76.461L66.67,76.461z M32.235,77.061l5.409,2.965
	c-0.399,0.6-0.324,1.197,0.336,1.721c2.443,1.98,3.826,2.904,5.87,5.87c1.122,1.646,1.321,5.01,0,6.854
	c-1.982,2.843-4.885,3.165-7.589,1.981c-2.106-0.922-4.225-3.428-3.627-6.594c0.336-1.656,1.646-3.627,4.088-3.164
	c1.184,0.261,1.919,1.121,1.919,2.367c0,1.06-0.599,1.781-1.782,1.72c-1.122-0.063-1.982-1.259-1.583-1.919
	c-1.196,1.195-0.536,4.162,1.583,5.084c1.981,0.923,3.688,0.523,4.811-1.258c0.797-1.123,0.262-4.014-0.922-5.209
	c-4.549-4.674-9.896-6.73-15.304-8.5c-1.782-0.599-4.749-0.398-5.795,1.246c-0.86,1.32-1.059,3.364,0.648,5.209
	c1.197,1.321,3.764,1.981,4.885,1.185c1.321-0.847,1.383-2.106,0.336-2.767c-0.536,0.723-1.657,0.996-2.38,0.535
	c-0.723-0.397-0.985-1.521-0.461-2.318c0.598-0.922,1.907-1.121,3.103-0.723c1.508,0.461,2.767,1.782,2.705,4.025
	c-0.075,1.72-1.197,3.104-3.502,3.626c-2.243,0.524-4.611-0.263-6.73-2.38c-1.844-1.844-2.43-5.87-0.661-8.375
	c1.458-2.043,5.085-2.567,7.066-2.168c2.243,0.386,4.212,1.121,5.534,1.508C31.188,77.857,31.849,77.583,32.235,77.061
	L32.235,77.061z M44.772,26.674c0,3.104,0.523,5.87,1.321,8.375l-5.022,2.442c-1.384-2.38-3.552-4.349-5.795-5.733
	c1.184-1.321,2.629-0.735,4.025-0.336c-0.137-0.922,0.324-1.782,0.586-2.642c0.797,0.399,1.583,0.797,2.243,1.583
	C42.592,28.917,43.588,27.658,44.772,26.674L44.772,26.674z M54.793,27.334c0.398,2.904-0.262,5.87-1.521,8.438l5.084,2.705
	c1.446-2.443,3.689-4.673,5.935-6.069c-0.985-0.848-2.567-0.648-3.627,0.075c0.063-0.922-0.2-2.181-0.66-3.041
	c-0.724,0.137-1.907,0.798-2.567,1.583C57.234,29.44,56.514,28.057,54.793,27.334L54.793,27.334z M65.41,65.12
	c1.122-0.586,2.244,1.459,0.997,2.044l-11.153,5.484c-1.122,0.521-1.98-1.521-0.984-1.982L65.41,65.12L65.41,65.12z M34.08,65.457
	c-1.109-0.536-2.306,1.508-1.047,2.105l11.142,5.472c1.122,0.536,1.981-1.509,0.997-2.044L34.08,65.457L34.08,65.457z
	 M33.095,71.189l-0.063,5.271l4.612,2.518l4.088-3.365L33.095,71.189z M75.83,92.104c-0.523,1.78-0.661,3.363-0.661,5.271
	c-1.508-1.185-3.228-2.045-4.946-2.506C72.539,94.669,74.445,93.609,75.83,92.104L75.83,92.104z M23.798,93.148
	c0.461,1.781,0.324,3.701,0.324,5.607c1.458-1.186,3.24-2.367,4.947-2.829C26.702,96.053,24.92,94.868,23.798,93.148L23.798,93.148z
	 M71.418,88.139c1.445,0,2.63,1.186,2.63,2.643c0,1.445-1.185,2.643-2.63,2.643c-1.459,0-2.643-1.195-2.643-2.643
	C68.775,89.323,69.959,88.139,71.418,88.139L71.418,88.139z M27.948,89.323c-1.508,0-2.705,1.194-2.705,2.642
	c0,1.458,1.196,2.643,2.705,2.643c1.458,0,2.642-1.185,2.642-2.643C30.59,90.52,29.406,89.323,27.948,89.323L27.948,89.323z
	 M77.675,88.275c0.535,0,0.935,0.461,0.935,0.984c0,0.522-0.398,0.922-0.935,0.922c-0.524,0-0.983-0.398-0.983-0.922
	C76.689,88.736,77.15,88.275,77.675,88.275L77.675,88.275z M22.938,90.258c-0.523,0-0.984,0.461-0.984,0.984
	s0.461,0.922,0.984,0.922s0.997-0.398,0.997-0.922C23.935,90.718,23.461,90.258,22.938,90.258L22.938,90.258z M66.932,94.009
	c0.523,0,0.924,0.461,0.924,0.996c0,0.524-0.399,0.923-0.924,0.923c-0.523,0-0.983-0.397-0.983-0.923
	C65.947,94.47,66.407,94.009,66.932,94.009L66.932,94.009z M32.497,94.669c-0.523,0-0.985,0.461-0.985,0.985
	c0,0.535,0.461,0.935,0.985,0.935c0.535,0,0.997-0.399,0.997-0.935C33.494,95.13,33.032,94.669,32.497,94.669L32.497,94.669z"/>
<path fill="#D1D3D4" d="M42.005,23.508c1.708-0.86,2.892,1.72,1.184,2.505l-7.054,3.427c-1.521,0.798-2.841-1.708-1.259-2.442
	L42.005,23.508L42.005,23.508z M57.695,24.431c-1.12-0.599-2.766,1.583-1.059,2.504l6.793,3.627
	c1.918,1.059,2.978-1.583,1.396-2.369L57.695,24.431L57.695,24.431z M47.215,35.909c0.922-0.524,1.77,0.86,0.723,1.383l-5.87,3.165
	c-1.06,0.523-2.119-0.922-0.997-1.52L47.215,35.909L47.215,35.909z M52.025,36.37c-0.922-0.523-1.782,0.922-0.799,1.445l5.871,3.166
	c0.998,0.536,1.92-0.984,0.797-1.582L52.025,36.37L52.025,36.37z M61.723,64.073c0.66-0.337,1.12,0.661,0.461,0.983l-5.869,2.904
	c-0.66,0.262-1.26-0.723-0.6-1.061L61.723,64.073L61.723,64.073z M37.719,64.534c-0.599-0.336-1.122,0.661-0.474,0.985l5.87,2.842
	c0.661,0.322,1.197-0.661,0.598-0.997L37.719,64.534L37.719,64.534z M64.29,69.482c0.66-0.336,1.319,0.586,0.535,0.983l-6.069,3.104
	c-0.66,0.386-1.32-0.661-0.598-0.997L64.29,69.482L64.29,69.482z M35.077,69.744c-0.661-0.337-1.321,0.585-0.599,0.984l6.069,3.103
	c0.723,0.399,1.321-0.66,0.599-0.996L35.077,69.744L35.077,69.744z"/>
</svg>
