<?xml version="1.0" encoding="utf-8"?>
<!-- Generator: Adobe Illustrator 16.0.0, SVG Export Plug-In . SVG Version: 6.00 Build 0)  -->
<!DOCTYPE svg PUBLIC "-//W3C//DTD SVG 1.1//EN" "http://www.w3.org/Graphics/SVG/1.1/DTD/svg11.dtd">
<svg version="1.1" id="Layer_1" xmlns="http://www.w3.org/2000/svg" xmlns:xlink="http://www.w3.org/1999/xlink" x="0px" y="0px"
	 width="95.807px" height="82.027px" viewBox="0 0 95.807 82.027" enable-background="new 0 0 95.807 82.027" xml:space="preserve">
<path fill="#321651" d="M95.807,43.831c-0.018,0.006-0.03,0.009-0.03,0.009l-0.039,0.085l0.01,0.072l0.002,0.068
	c0,0,0.041,0.056,0.056,0.112L95.807,43.831L95.807,43.831z M95.804,53.182c-0.494,0.041-0.947,0.064-1.212,0.013
	c-1.396-0.283-4.244-7.722-5.786-7.967c-1.624-0.254,2.276,6.005,0.765,6.354c-1.329,0.303-2.959-0.104-4.647-0.641
	c-0.01-0.133-0.058-0.274-0.104-0.396c-0.094-0.245-0.362-0.383-0.557-0.245c-0.003-0.044-0.009-0.1-0.009-0.1
	c0.006-0.072-0.207,0.047-0.207,0.047c0,0.038-0.057,0.152-0.057,0.152h-0.023c-0.043,0.003,0.127,0.182,0.145,0.22
	c0.014,0.017,0.024,0.04,0.036,0.069c-1.599-0.526-3.216-1.085-4.654-1.195c-3.015-0.229-5.232,1.774-5.384,2.161
	c-0.032,0.089,0.471,0.157,1.199,0.251l0.007,0.015l0.084,0.044l0.088-0.006c0.03,0,0.118-0.003,0.118-0.003l0.027-0.003h0.017
	c0.352,0.047,0.739,0.1,1.139,0.166c-0.231,0.713-0.013,1.682,0.492,1.658c0.176,0.063,0.274,0.244,0.391,0.574
	c0.169,0.478,0.473,0.648,0.529-0.138c0.009-0.108,0.396-0.127,0.47-0.244c0.279-0.425-0.289-1.03,0.226-1.274
	c0.019-0.011,0.036-0.021,0.058-0.029c0.455,0.184,0.814,0.41,0.992,0.694l-0.006,0.006l-0.017,0.257l-0.02,0.258l-0.018,0.263
	l0.059,0.106c-0.128,0.249-0.361,0.527-0.719,0.836l-0.021-0.006c0-0.006,0-0.01,0-0.01h-0.039l0,0l-0.036,0.004h-0.042l-0.01,0.127
	v0.009c-0.081,0.068-0.169,0.139-0.267,0.208c-7.006,5.207-0.248,0.841,0.941,1.923c0.097,0.09,2.648-1.74,3.646-1.442
	c0.773,0.229-0.077,2.653,0.678,2.396c0.831-0.283,1.589-0.854,2.225-1.456l0.007-0.003l0.117,0.021l0.29-0.009l0.228-0.1
	l0.229-0.099l0.172-0.034l0.11-0.123l-0.128-0.167l0.045-0.207l-0.063-0.087c0.079-0.083-0.05-0.104-0.125-0.104
	c0.591-0.66,0.988-1.177,1.11-1.118c0.922,0.43,2.399,0.785,3.41,1.373l-0.126,0.06c-0.196,0.084-0.311,0.209-0.503,0.297
	c0.274-0.046,0.138-0.023,0.121,0.063l0.038,0.02l-0.052,0.065l0.038,0.021l-0.018,0.08l0.063,0.127l0.122,0.062
	c0.041,0.021,0.16,0.083,0.16,0.083l0.041,0.02l0.079,0.041l0.059-0.063l0.038,0.02l0.06-0.063l0.097-0.041l0.056-0.065l0.059-0.063
	l0.097-0.042l0.057-0.063l0.06-0.063l0.075-0.032c0.097,0.097,0.185,0.198,0.254,0.312c0.159,0.248,2.422,1.711,1.962,2.122
	c-0.104,0.089-0.241,0.164-0.401,0.229c-4.323-1.258-5.775-0.813-5.656-0.598c0.032,0.062,1.073,0.41,2.541,0.908
	c-0.267,0.019-0.487,0.046-0.637,0.096c-3.416,1.124,1.095,1.578,3.725,2.359c0.815,0.241,1.336,0.539,1.692,0.836V53.182
	L95.804,53.182z M95.807,64.109c-0.018,0.263-0.047,0.626-0.065,0.65c-0.078,0.043-0.111-0.125-0.19-0.084
	c-0.078,0.04,0.038,0.663,0.132,0.748c0.022,0.016,0.072,0.016,0.125,0.021L95.807,64.109L95.807,64.109z M95.807,65.459
	c-1.167,0.785-2.923,1.765-4.401,2.668c-0.625,0.104-1.209,0.186-1.608,0.163c-1.902-0.091-10.65-5.751-13.906-6.806
	c0.034-0.068,0.042-0.107,0.024-0.116c-0.043-0.019-0.124,0.003-0.236,0.051c-0.227-0.063-0.426-0.103-0.582-0.104
	c-0.455-0.008-0.429,0.192-0.092,0.526c-1.688,1.177-5.08,4.135-5.609,4.466c-0.313,0.197,1.939-3.127,1.605-2.841
	c-0.4,0.346-1.263,1.608-2.182,3.169c-0.541-0.035-1.062-0.061-1.557-0.063c-1.206-1.466-2.854-3.878-3.562-4.094
	c-1.043-0.317,2.262,3.697,1.373,3.736c-1.634,0.076-4.519-1.782-6.542-2.26c-1.901-0.453-2.991,0.471-3.031,0.675
	c-0.04,0.2,5.813,1.183,3.447,2.664c-0.715,0.447-1.147,0.734-1.374,0.915l0.026-0.418l0.042-0.591l-0.339-0.274l-0.355,0.016
	l-0.359,0.02c0,0-0.561,0.319-0.919,0.337l-0.955,0.928l-0.602,0.91c-0.148,0.227-0.245,0.449-0.334,0.672
	c-0.361,0.401-0.691,0.839-0.954,1.266c-0.938,1.515,0.732,2.746-0.938,1.515c-0.665-0.298-1.672-3.19-2.116-1.752
	c-0.1,0.322-0.654-3.09,1.102-9.688c0.801-3.002,4.36-8.93,4.646-11.479c0.111-0.979-4.459,6.364-4.317,5.354
	c0.071-0.541,0.147-1.096,0.23-1.638c0.274-1.801,0.575-1.674-0.159-2.053l-0.058-0.102l-0.064,0.003l0.01-0.108l-0.064,0.003
	c-0.058-0.104,0.078-0.218-0.194,0.009c0.144-0.221,0.159-0.435,0.304-0.651c1.455-2.21,3.528-10.326,3.18-12.91
	c-0.011-0.078-1.712,4.373-0.785-0.551c0.141-0.737-1.29-10.768-1.868-9.667c-0.261,0.492,0.69,7.055,0.494,10.083
	c-0.325,5.047-1.78,7.428-2.199,7.934c-0.933,1.128-1.465-2.187-1.915-0.438c-0.436,1.694,2.525,5.06,2.146,6.883
	c-0.249,1.179-2.479,11.654-1.873,11.629l0.129-0.007l0.123,0.099l-0.016,0.215l-0.014,0.21l-0.016,0.213l-0.073,0.109l-0.006,0.107
	l-0.009,0.104l-0.072,0.107l-0.006,0.11l-0.01,0.106l-0.069,0.108l-0.01,0.106h-0.064l-0.009,0.108c0,0.043-0.172,0.646-0.373,1.317
	c-0.079-0.092-0.079-0.195-0.165-0.292l-0.131-0.151l-0.226-0.148c-0.094,0-0.23-0.051-0.23-0.051h-0.091h-0.094l-0.097,0.051
	l-0.003,0.103l-0.006,0.1l-0.004,0.103l0.044,0.051l-0.002,0.049l-0.003,0.053l0.046,0.052l-0.002,0.049l-0.003,0.053l0.043,0.05
	l-0.003,0.051h0.047l-0.003,0.048h0.094h0.047c0,0,0.139,0,0.188,0h0.138l0.145-0.048l0.047-0.054l0.047,0.003l0.003-0.053h0.043
	c0.047-0.05-0.037-0.099,0.133-0.006c-0.279,0.909-0.614,1.946-0.688,1.896c-0.795-0.57,2.448,6.085,1.657,6.437
	c-0.475,0.216-4.994-6.275-5.457-5.53c-1.399,2.271-0.998,2.936-0.998,2.936c-0.067,1.422-0.469,0.759-0.869,0.096
	c0,0-3.406-1.043-2.605,0.282c0.544,0.903,1.063,2.387,1.58,3.927c-0.114-0.052-0.229-0.091-0.352-0.11
	c-0.778-0.133-2.714-0.184-3.572-0.318c-0.563-0.088-1.823-0.5-3.334-1.034c0.014-0.116,0.02-0.222,0.022-0.252
	c0,0,0.218-0.646,0.173-0.645c-0.214,0.01-0.157-0.203-0.188-0.414c-0.031-0.141-0.342-0.621-0.426-0.618
	c-0.129,0.007-0.506-0.116-0.604,0.03c-0.097,0.146-0.135,0.076-0.223,0.082c-0.044,0.003-0.151,0.359-0.157,0.429
	c-0.088,0.007,0.018,0.354,0.015,0.425c-0.015,0.192,0.007,0.385,0.007,0.469c-0.617-0.222-1.255-0.452-1.885-0.68
	c-0.399-1.479-1.047-3.396-1.298-3.063c-0.107,0.146,0.199,1.447,0.431,2.75c-2.047-0.731-3.893-1.361-4.652-1.473
	c-1.452-0.209,2.919,1.395,4.775,2.247c0.022,0.174,0.046,0.337,0.062,0.491c-2.869-0.202-8.579-1.525-12.044-1.946
	c-3.488-0.425-4.494,0.184-4.383,0.329c0.106,0.145,10.506,1.155,7.894,2.098c-3.976,1.44,0.337,0.331,2.43,0.919
	c0.169,0.045,1.668-0.45,2.979-0.216c0.15,0.027,0.294,0.068,0.431,0.122c-0.037,0.059-0.075,0.121-0.103,0.188
	c-0.049,0.144-0.152,0.359-0.211,0.576c0,0,0.153,0.273,0.135,0.487c-0.018,0.283,0.013,0.494,0.136,0.559
	c0.125,0.063,0.733-0.034,0.786-0.181c0.054-0.142,0.313-0.155,0.37-0.368c0.104-0.29-0.002-0.534-0.081-0.708
	c0.375,0.228,0.711,0.424,1.016,0.411c0.189-0.008,0.358-0.025,0.509-0.048c-0.313,1.43-0.953,2.134-1.169,2.311
	c-0.642,0.519-1.123-1.073-1.398-0.248c-0.225,0.688,1.391,2.014,1.708,2.919h1.079c0.011-0.015,0.025-0.03,0.041-0.044
	c0.897-0.936,2.021-4.211,1.956-5.715c1.83,0.381,4.581,0.812,6.116,1.338c0.355,0.122,3.904,0.988,3.692,1.111
	c-0.354,0.207-3.49-0.204-4.129-0.186c-2.723,0.101,1.56,0.686,4.959,1.257c0.268,0.694,0.538,1.303,0.816,1.762
	c0.114,0.191,0.152,0.348,0.128,0.477h52.839L95.807,65.459L95.807,65.459z M39.579,82.027c-0.129-0.06-0.213-0.097-0.213-0.097
	c-0.142,0.015-0.268,0.05-0.379,0.094L39.579,82.027L39.579,82.027z M32.427,82.027c0.042-0.122,0.067-0.24,0.08-0.342
	c0.014-0.128-0.211,0.041-0.545,0.342H32.427L32.427,82.027z M23.598,82.027c-0.668-1.231-0.875-2.686-1.331-2.5
	c-0.099,0.038-0.372,1.155-2.295,1.468c-0.597,0.097-1.67-2.34-2.389-2.237c-0.591,0.085-1.944,0.86-2.592,0.978
	c-1.317,0.233-8.682-3.038-10.088-2.743c-1.479,0.317,5.924,2.652,4.944,3.262c-1.802,1.124-6.78,0.914-9.532,1.679
	C0.208,81.961,0.101,81.991,0,82.027H23.598L23.598,82.027z M40.396,58.294c0.418-1.539,0.707-1.299,1.087-2.328
	c0.17-0.263,0.189-0.515,0.497-0.532c0.152-0.007,0.139,0.252,0.29,0.242c0.289,0.237,0.427,0.485,0.427,0.485l0.294,0.237
	l0.115,0.5c0,0,0.328-0.267,0.292,0.24l0.139,0.244l0.1,0.757l0.275,0.493l-0.036,0.509l-0.172,0.26l-0.19,0.516l-0.189,0.515
	l-0.324,0.27l-0.155,0.006l-0.172,0.263l-0.019,0.254l-0.307,0.013l-0.155,0.01l-0.154,0.006l-0.019,0.254l-0.153,0.007
	l-0.153,0.009l-0.154,0.005l-0.154,0.009l-0.307,0.016c-0.139-0.244-0.121-0.5-0.241-1.001L40.6,59.802L40.48,59.3l-0.134-0.245
	l0.014-0.253l-0.134-0.247l0.032-0.509C40.258,58.046,40.313,57.288,40.396,58.294L40.396,58.294z M94.749,76.734l-0.063-0.003
	C94.706,76.765,94.725,76.765,94.749,76.734L94.749,76.734z M91.515,74.831c0.345-0.04,0.716-0.084,1.079-0.131
	c0.145-0.397,0.296-0.811,0.429-1.198c-0.583,0.246-1.133,0.436-1.606,0.548c0,0.19,0,0.382,0,0.563
	C91.593,74.703,91.614,74.753,91.515,74.831L91.515,74.831z M94.528,74.278c0.202-0.088,0.347-0.187,0.411-0.306
	c0.048-0.096-0.108-0.223-0.394-0.368c-0.406,0.542-0.534,0.813-0.456,0.753C94.336,74.174,94.468,74.171,94.528,74.278
	L94.528,74.278z M88.686,72.278l-0.174-0.095l-0.057-0.086l-0.069-0.015l0.019-0.07l-0.073-0.016
	c-0.051-0.082,0.106-0.12-0.213-0.043c0.113-0.066,0.169-0.146,0.239-0.224c-0.05-0.101-0.096-0.194-0.129-0.285
	c-1.291-0.275-2.73-0.433-3.994-0.609c0.116,0.29,0.302,0.582,0.342,0.763c0.079,0.582-0.549,2.765-0.775,2.581
	c-0.221-0.188-0.063-0.781-0.288-0.97c-0.119,0.01-1.333,2.024-1.465,2.227c-0.132,0.205-0.547,1.006-0.798,1.213
	c-0.505,0.419-0.229-0.184-0.582-0.166c-0.243,0.011-0.601,0.027-0.812-0.354c-0.107-0.189-0.184-0.774-0.157-1.17
	c0.026-0.392,0.371-0.21,0.026-0.392c-0.45-0.368-1.539-0.119-1.46-1.301c0.021-0.258,0.053-0.404,0.084-0.485
	c-0.299-0.271-0.613-0.467-0.938-0.504c-1.58-0.161-3.328,1.922-3.531,1.848c-0.352-0.126-0.752-0.137-1.168-0.076
	c0.286,0.641,0.67,1.061,0.724,1.042c0.706-0.194-0.749,1.425-0.269,3.066c0.202,0.682,0.644,1.333,1.156,1.902
	c0.31-0.114,0.754-0.252,1.383-0.398c0.339-0.079,1.258,0.604,2.25,1.415c0.077-0.181,0.179-0.395,0.325-0.646l0.743-0.628
	c0.012-0.016,0.021-0.041,0.022-0.086c0.009-0.116,0.024-0.295,0.106-0.41c0.039-0.061,0.154-0.117,0.225-0.117s0.02,0.178,0.068,0
	c0.095-0.23,0.104-0.766,0.316-0.763c0.104,0,0.102,0.061,0.102,0.061c0.029,0.059,0.035,0,0.043-0.061c0,0,0.13-0.291,0.121-0.174
	c-0.005,0.027-0.005,0.062-0.005,0.093c0.378-0.694,1.022-1.427,1.767-1.11l0.484,0.794c0,0,0.246,0.19,0.556,0.365
	c-0.011,0.008-0.018,0.017-0.026,0.023l-0.207,0.237c0.134,0,0.402-0.066,0.144,0.056c-0.104,0.05-0.069,0.085-0.144,0.153
	c-0.057,0.054,0.198,0.194-0.021,0.21c-0.056,0.003-0.177-0.047-0.284-0.08l-0.011,0.018l-0.152,0.169l-0.021,0.109l-0.074,0.085
	l-0.021,0.11l0.055,0.03l0.052,0.026l0.055,0.025l0.055,0.027l0.075-0.084l0.129-0.058l0.105,0.055l0.148-0.025
	c0.206-0.108,0.346-0.186,0.354-0.196l0.036-0.041l0.084,0.016l0.04-0.044l0.123-0.021l0.036-0.046l0.04-0.042l0.122-0.024
	l0.038-0.044l0.039-0.045l0.086-0.016c0.027-0.066,0.041-0.137,0.053-0.207c0.017-0.062,0.004-0.096-0.006-0.135
	c0.014-0.004,0.024-0.008,0.036-0.011l-0.039-0.008c0,0.006,0,0.011,0.003,0.019c-0.254,0.063-0.606-0.082-0.899-0.243
	c0.113-0.12,0.039,0.043,0.178-0.114l0.203-0.142l0.11,0.054c0.225,0.062,0.343,0.089,0.396,0.099
	c0.094-0.106,0.232-0.236,0.402-0.385c0.361-1.634,1.75-4.454,2.108-6.081l-0.082-0.037l-0.028-0.043l-0.062-0.013l0.03-0.031
	l-0.063-0.01c-0.03-0.044,0.116-0.05-0.182-0.037c0.176-0.04,0.231-0.101,0.41-0.135l0.036-0.013
	c0.092-0.508,0.493-0.351,0.883-0.049c0.033,0,0.058,0.003,0.058,0.003l0.12,0.022l0.121,0.022l0.091,0.06l-0.055,0.058
	l-0.056,0.064l-0.006,0.003c0.304,0.277,0.544,0.564,0.544,0.564c-0.086,0.549-0.166,1.103,0.566,0.242
	C88.559,72.498,88.573,72.422,88.686,72.278L88.686,72.278z M74.22,67.214c1.99,0.237,3.923,0.443,5.476,0.406
	c0.092-0.06,0.163-0.158,0.176-0.308c0.046-0.588,0.824,0.154,0.824,0.154c0.024,0,0.011,0.033-0.027,0.094
	c-0.122,0.01-0.246,0.021-0.375,0.03c0.325-0.497,0.661-1.002,0.848-1.35c-1.42-1.182-4.424-2.989-5.746-4.054
	c-0.342,0.44-0.813,1.011-1.303,1.593c0.024,0.003,0.041,0.003,0.041,0.003l0.072,0.016l0.073,0.015l0.059,0.039l-0.032,0.032
	l-0.037,0.042l-0.035,0.035l-0.053,0.017l-0.019,0.018l-0.018,0.021l-0.056,0.013l-0.02,0.02l-0.017,0.019l-0.056,0.013
	l-0.019,0.019l-0.034-0.007l-0.021,0.021l-0.074-0.018l-0.014-0.003c-1.048,1.241-2.063,2.436-1.933,2.43
	c0.842-0.057,1.438-0.062,1.856-0.025c0.624,0.048,0.674,0.429,0.779,0.359C75.696,66.09,74.789,66.8,74.22,67.214L74.22,67.214z
	 M93.162,67.843c0.36-0.042,0.677-0.068,0.911-0.052c0.443,0.033,0.854,0.615,1.244,1.313l0.061-0.063l-0.021-0.095l0.166-0.704
	c-0.071-0.217-0.163-0.411-0.273-0.576C94.924,67.183,94.111,67.382,93.162,67.843L93.162,67.843z M57.296,69.642
	c0.281,0.966,0.584,1.892,1.079,1.538c0.303-0.214,0.779-1.509,1.232-2.788c-0.57-0.222-1.626,0.054-2.053,0.086l-0.034,0.494
	l-0.2,0.304l-0.021,0.293L57.296,69.642L57.296,69.642z M93.082,79.726l-0.011,0.006l-0.021,0.029l-0.044,0.021l-0.025,0.03
	L92.962,79.8l-0.026,0.028L92.9,79.812l-0.02-0.01c0,0-0.053-0.029-0.071-0.037l-0.056-0.027l-0.025-0.054V79.68
	C92.835,79.698,92.959,79.71,93.082,79.726L93.082,79.726z M83.755,78.352l0.075-0.083l0.038,0.015l0.016,0.01l0.025-0.029
	l0.051-0.056c0,0,0.188-0.085-0.051,0.056c-0.014,0.007-0.022,0.017-0.041,0.021C83.837,78.305,83.797,78.326,83.755,78.352
	L83.755,78.352z M91.629,80.311l-0.133,0.146l-0.042,0.047c0.051-0.021,0.104-0.059,0.153-0.112
	C91.617,80.375,91.626,80.349,91.629,80.311L91.629,80.311z M90.748,79.899c0,0,0.189-0.135,0.373-0.275
	c0.087-0.202,0.279-0.547-0.083-0.175c-0.047,0.051-0.308,0.318-0.35,0.335c-0.37,0.163-0.691,0.703-0.478,0.825l-0.027,0.032
	l-0.079-0.018l-0.036,0.042l-0.077-0.017l0.035-0.044l0.03-0.045l-0.079-0.021l0.036-0.041l-0.16-0.038l-0.16-0.039l-0.065,0.089
	l-0.111,0.026l-0.03,0.043l-0.035,0.046l-0.035,0.042l-0.031,0.041l-0.057,0.196l-0.11,0.025l-0.114,0.023l-0.189,0.01l-0.339,0.072
	c0,0-0.193,0.009-0.146,0.071l0.091,0.122l0.047,0.063l0.078,0.021l-0.034,0.04L88.579,81.4l0.079,0.017l-0.033,0.046l-0.034,0.042
	l0.079,0.02l0.082,0.018l0.11-0.026l0.079,0.021l0.078,0.021c0.078,0.017,0.272,0.011,0.352,0.027
	c0.079,0.02,0.306-0.03,0.384-0.012c0,0,0.182-0.113,0.26-0.096l0.113-0.023l0.044,0.061l0.193-0.007l0.146-0.068l0.255-0.095
	l0.104-0.132c0.067-0.086,0.032-0.043-0.011-0.104l0.099-0.132l0.08-0.108l-0.022-0.01l-0.08,0.088l-0.041-0.015l-0.038-0.02
	l-0.04-0.017l-0.121,0.07h-0.008c-0.003,0-0.012,0.007-0.018,0.01c-0.021,0.008-0.058,0.005-0.088,0l-0.044,0.045l-0.041-0.014
	l-0.122,0.069l-0.041-0.019c-0.146,0.133-0.196,0.067-0.171-0.069l-0.025-0.009c-0.041-0.018-0.08-0.035-0.038-0.142l0.122-0.188
	l0.011-0.021c-0.003-0.007-0.007-0.014-0.014-0.022c0-0.003-0.003-0.003-0.004-0.003l0.007-0.013
	c0.007-0.009,0.029-0.023,0.061-0.032l0.063-0.103l0.078-0.091l0.083-0.087l0.082-0.088C90.663,80.109,90.828,79.931,90.748,79.899
	L90.748,79.899z M30.693,76.721c0.217-0.213,0.296-0.416,0.419-0.471C30.971,76.473,30.792,76.718,30.693,76.721L30.693,76.721z
	 M21.255,64.404c0.07-0.069,0.073-0.145,0.205-0.145c0.402,0,0.698,0.724,0.877,0.931c0.104,0.122-0.249,0.574-0.419,0.574
	c-0.064,0-0.59,0.376-0.73,0.216c-0.12-0.136-0.229-0.471-0.302-0.646c-0.049-0.116-0.122-0.213-0.116-0.354
	C20.77,64.951,21.126,64.663,21.255,64.404L21.255,64.404z M22.913,70.802c-0.003-0.169-0.085,0.231-0.17-0.094
	c-0.007-0.012-0.295,0.214-0.302,0.247c0,0,0.084,0.188,0.125,0.238C22.805,71.458,22.904,70.958,22.913,70.802L22.913,70.802z
	 M42.912,28.469c0.149-0.007,0.249-0.352,0.154-0.518c-0.009-0.018-0.005-0.207-0.005-0.244c0.002-0.313-0.092,0.042-0.141,0.119
	c-0.038,0.059-0.082-0.28-0.088-0.308c-0.023-0.104-0.193,0.206-0.205,0.235c-0.029,0.059-0.231,0.257-0.234,0.294
	c-0.009,0.124,0.089,0.157,0.145,0.186c0.12,0.048-0.044,0.216,0.012,0.319c0.015,0.026,0.111,0.022,0.111,0.051
	c-0.013,0.199,0.069,0.147,0.131,0.021C42.831,28.539,42.862,28.49,42.912,28.469L42.912,28.469z M55.331,25.742
	c0,0-0.127,0.194-0.146,0.195c-0.097,0.04-0.071,0.001-0.172,0.192c-0.027,0.039-0.237,0.458-0.237,0.458
	c-0.029,0.075-0.126,0.49-0.192,0.494c0,0-0.144,0.118-0.167,0.118c-0.232,0.125-0.003,0.375,0.088,0.406
	c0.045-0.001,0.079,0.109,0.126,0.106c0.131,0.068,0.855,0.369,0.972,0.066c0.028-0.114,0.193-0.197,0.204-0.346
	c0.003-0.074-0.011-0.188-0.032-0.186c-0.091-0.032-0.472-0.089-0.459-0.275c0.01-0.113,0.095-0.376,0.146-0.454
	c0.052-0.077,0.14-0.343,0.08-0.451c-0.021-0.036-0.084-0.107-0.104-0.184C55.422,25.774,55.397,25.775,55.331,25.742L55.331,25.742
	z M72.877,6.164c-0.05-0.093-0.044-0.189-0.098-0.281l-0.074-0.14L72.57,5.606c-0.058,0.003-0.144-0.04-0.144-0.04l-0.059,0.003
	l-0.059,0.003l-0.063,0.051L72.24,5.717l-0.005,0.098l-0.01,0.095l0.029,0.047l-0.006,0.047l-0.004,0.048l0.025,0.047l-0.003,0.047
	l-0.003,0.047l0.023,0.048v0.047h0.026l-0.003,0.047L72.37,6.33L72.4,6.329c0,0,0.088-0.004,0.113-0.004l0.091-0.005l0.088-0.051
	l0.031-0.052h0.03l0.006-0.049l0.025-0.001C72.821,6.118,72.77,6.074,72.877,6.164L72.877,6.164z M72.761,7.731
	c-0.081-0.15-0.069-0.302-0.155-0.451L72.48,7.055l-0.215-0.22c-0.092,0.005-0.229-0.064-0.229-0.064l-0.092,0.005L71.848,6.78
	l-0.097,0.081l-0.013,0.152l-0.013,0.154l-0.01,0.152l0.044,0.077l-0.007,0.076l-0.006,0.075l0.046,0.076l-0.01,0.076l-0.007,0.077
	l0.044,0.075L71.816,7.93l0.047-0.004l-0.006,0.076l0.095-0.004l0.047-0.001c0,0,0.14-0.007,0.186-0.01l0.143-0.005L72.471,7.9
	l0.053-0.082l0.047-0.002l0.004-0.077l0.047-0.003C72.673,7.659,72.586,7.586,72.761,7.731L72.761,7.731z M65.125,13.69
	c-0.078-0.148-0.066-0.303-0.151-0.451l-0.125-0.223l-0.216-0.222c-0.094,0.005-0.23-0.064-0.23-0.064l-0.092,0.004l-0.092,0.004
	l-0.099,0.083l-0.013,0.152l-0.011,0.154l-0.01,0.153l0.041,0.075l-0.006,0.079l-0.006,0.075l0.041,0.074l-0.004,0.078l-0.01,0.074
	l0.046,0.076l-0.006,0.076l0.045-0.001l-0.006,0.076l0.095-0.005l0.048-0.002c0,0,0.14-0.007,0.188-0.01l0.14-0.005l0.145-0.084
	l0.056-0.079l0.042-0.001l0.006-0.079l0.05-0.001C65.041,13.618,64.953,13.546,65.125,13.69L65.125,13.69z M60.553,17.211
	c-0.113-0.206-0.098-0.419-0.213-0.625l-0.172-0.311l-0.303-0.303c-0.128,0.005-0.314-0.094-0.314-0.094l-0.13,0.007l-0.128,0.007
	l-0.139,0.112l-0.016,0.211l-0.017,0.215l-0.013,0.212l0.057,0.104l-0.009,0.106l-0.007,0.104l0.059,0.104l-0.007,0.105
	l-0.007,0.106l0.056,0.104l-0.006,0.108l0.063-0.004L59.3,17.588l0.132-0.008l0.062-0.001c0,0,0.195-0.01,0.263-0.014l0.189-0.008
	l0.202-0.117l0.076-0.108l0.061-0.003l0.007-0.106l0.066-0.001C60.431,17.111,60.31,17.01,60.553,17.211L60.553,17.211z
	 M45.352,26.753c-0.114-0.207-0.101-0.419-0.214-0.626l-0.173-0.308l-0.301-0.304c-0.129,0.006-0.315-0.094-0.315-0.094
	l-0.133,0.009l-0.125,0.006l-0.137,0.111l-0.017,0.212l-0.015,0.215l-0.014,0.213l0.055,0.104l-0.006,0.105l-0.008,0.104
	l0.058,0.104L44,26.713l-0.005,0.105l0.055,0.103l-0.006,0.106l0.063-0.004L44.1,27.13l0.129-0.006l0.067-0.004
	c0,0,0.192-0.009,0.26-0.011l0.192-0.009l0.198-0.115l0.073-0.109l0.067-0.004l0.006-0.105l0.064-0.004
	C45.228,26.652,45.107,26.554,45.352,26.753L45.352,26.753z M40.889,22.725c-0.114-0.205-0.099-0.418-0.213-0.623l-0.173-0.313
	l-0.301-0.303c-0.129,0.006-0.316-0.09-0.316-0.09l-0.128,0.005l-0.129,0.005l-0.138,0.113l-0.016,0.213l-0.018,0.212l-0.012,0.213
	l0.057,0.101l-0.007,0.107l-0.01,0.107l0.06,0.103l-0.009,0.105l-0.007,0.105l0.057,0.106L39.582,23l0.063-0.001l-0.006,0.105
	l0.129-0.007l0.064-0.004c0,0,0.191-0.01,0.258-0.013l0.194-0.007l0.199-0.116l0.073-0.109l0.063-0.004l0.007-0.104l0.063-0.004
	C40.77,22.627,40.646,22.526,40.889,22.725L40.889,22.725z M80.458,17.111c-0.113-0.206-0.102-0.417-0.213-0.625l-0.172-0.312
	l-0.302-0.302c-0.129,0.005-0.315-0.092-0.315-0.092l-0.13,0.005l-0.127,0.006l-0.139,0.114l-0.018,0.213l-0.014,0.214l-0.013,0.211
	l0.054,0.105l-0.009,0.104l-0.008,0.106l0.06,0.101l-0.007,0.107l-0.006,0.107l0.055,0.103l-0.009,0.105l0.067-0.001l-0.009,0.105
	l0.129-0.005l0.063-0.003c0,0,0.196-0.011,0.263-0.013l0.193-0.01l0.198-0.114l0.071-0.107l0.067-0.006l0.01-0.104l0.061-0.005
	C80.336,17.012,80.214,16.912,80.458,17.111L80.458,17.111z M36.623,62.795c0.006-0.096,0.266,0.498,0.292,0.127
	c0.006-0.068,0.141-0.147,0.136-0.079c0.651,2.743,1.803,0.432-0.153,3.401c-0.05,0.072-0.194,0.362-0.289,0.438
	c-0.059,0.049-0.443-0.086-0.5-0.188c-0.22-0.392-0.245-1.885-0.254-1.896l-0.083-0.068c-0.075-0.137,0.111-0.994,0.159-1.066
	c0,0,0.175-0.01,0.186-0.148C36.129,63.097,36.559,63.718,36.623,62.795L36.623,62.795z M75.418,43.718l0.348,0.08
	c0,0,0.053,0.232,0.127,0.229c0.072-0.003,0.063,0.115,0.136,0.112l0.127,0.227l0.134,0.111l0.064,0.112l0.057,0.234l-0.019,0.236
	l-0.017,0.233L76.231,45.3l-0.069,0.007l-0.069,0.003l-0.074,0.003l0.008-0.116L75.953,45.2l-0.069,0.003l0.006-0.118l-0.071,0.004
	l-0.068,0.003l-0.065-0.114l-0.142,0.006l-0.193-0.342c0.009-0.117-0.057-0.233-0.118-0.349c-0.063-0.113-0.055-0.232-0.045-0.351
	l0.018-0.233l0.069-0.007l0.073-0.003l0.069-0.003C75.415,43.696,75.418,43.705,75.418,43.718L75.418,43.718z M56.57,59.316
	c0,0,0.104,0.182,0.127,0.182c0.088,0.032,0.066-0.003,0.146,0.179c0.021,0.038,0.172,0.438,0.172,0.438
	c0.02,0.072,0.055,0.481,0.123,0.479c0,0,0.131,0.106,0.152,0.106c0.219,0.1-0.05,0.371-0.142,0.415
	c-0.047,0.003-0.102,0.115-0.146,0.118c-0.14,0.08-0.913,0.455-0.982,0.158c-0.019-0.11-0.169-0.178-0.16-0.329
	c0.007-0.072,0.034-0.187,0.059-0.187c0.094-0.043,0.485-0.137,0.5-0.324c0.006-0.108-0.044-0.369-0.083-0.443
	c-0.042-0.072-0.093-0.329-0.013-0.447c0.025-0.034,0.096-0.113,0.123-0.188C56.477,59.357,56.501,59.357,56.57,59.316L56.57,59.316
	z M44.535,44.118c0,0,0.1,0.185,0.123,0.182c0.09,0.03,0.069-0.003,0.146,0.179c0.021,0.036,0.176,0.438,0.176,0.438
	c0.018,0.076,0.056,0.482,0.122,0.479c0,0,0.129,0.106,0.152,0.104c0.219,0.104-0.05,0.376-0.146,0.419
	c-0.043,0.003-0.096,0.116-0.143,0.119c-0.145,0.078-0.918,0.452-0.982,0.157c-0.018-0.11-0.172-0.179-0.16-0.326
	c0.007-0.077,0.034-0.188,0.057-0.19c0.096-0.041,0.488-0.135,0.5-0.321c0.008-0.112-0.042-0.369-0.082-0.441
	c-0.038-0.072-0.09-0.331-0.016-0.447c0.026-0.037,0.101-0.117,0.126-0.192C44.442,44.16,44.465,44.157,44.535,44.118L44.535,44.118
	z M46.518,45.293c0.067-0.099,0.07-0.194,0.134-0.292l0.101-0.147l0.155-0.151c0.059-0.003,0.148-0.054,0.148-0.054l0.06-0.003
	l0.059-0.004l0.056,0.044l-0.009,0.097l-0.006,0.096l-0.006,0.098l-0.032,0.052l-0.003,0.045l-0.003,0.047l-0.035,0.05l-0.003,0.049
	l-0.003,0.049l-0.029,0.05l-0.006,0.047h-0.028l-0.003,0.049l-0.06,0.003h-0.029c0,0-0.087,0.003-0.116,0.006l-0.089,0.003
	l-0.081-0.039l-0.025-0.049h-0.029l0.003-0.048l-0.029,0.003C46.579,45.239,46.644,45.191,46.518,45.293L46.518,45.293z
	 M41.644,41.286c0.063-0.1,0.069-0.196,0.137-0.293l0.099-0.148l0.154-0.15c0.056-0.001,0.148-0.055,0.148-0.055l0.056-0.004
	l0.06-0.003l0.055,0.045l-0.005,0.098L42.34,40.87l-0.009,0.095l-0.032,0.049l-0.003,0.048l-0.003,0.048l-0.032,0.048l-0.004,0.048
	l-0.003,0.048l-0.034,0.05l-0.003,0.048l-0.026,0.003L42.185,41.4l-0.058,0.001l-0.03,0.003c0,0-0.085,0.003-0.117,0.003
	l-0.085,0.006l-0.084-0.045l-0.026-0.045l-0.028,0.003l0.003-0.048h-0.026C41.705,41.233,41.764,41.183,41.644,41.286L41.644,41.286
	z M36.316,37.807c0.066-0.1,0.073-0.196,0.138-0.292l0.097-0.149l0.155-0.15c0.059,0,0.147-0.054,0.147-0.054l0.06-0.003
	l0.059-0.003l0.056,0.045l-0.006,0.096l-0.009,0.096l-0.005,0.097l-0.032,0.048l-0.004,0.048l-0.006,0.048l-0.028,0.049l-0.006,0.05
	l-0.003,0.047l-0.033,0.048l-0.003,0.048l-0.028,0.001l-0.003,0.047l-0.059,0.004l-0.03,0.001c0,0-0.087,0.005-0.112,0.008
	l-0.092,0.002l-0.082-0.043l-0.024-0.048l-0.03,0.003l0.003-0.051L36.406,37.8C36.38,37.756,36.439,37.706,36.316,37.807
	L36.316,37.807z M41.544,42.852c0.103-0.159,0.114-0.313,0.217-0.471l0.155-0.236l0.251-0.242c0.094-0.006,0.236-0.084,0.236-0.084
	l0.094-0.006l0.098-0.006l0.087,0.073l-0.012,0.152l-0.012,0.154l-0.01,0.151l-0.052,0.08l-0.007,0.076l-0.006,0.075l-0.054,0.08
	l-0.003,0.077l-0.005,0.077l-0.054,0.079l-0.006,0.079h-0.044l-0.005,0.075l-0.099,0.006l-0.046,0.003c0,0-0.139,0.006-0.188,0.01
	l-0.138,0.004l-0.136-0.068l-0.043-0.077l-0.044,0.003l0.003-0.075l-0.047,0.004C41.641,42.77,41.74,42.688,41.544,42.852
	L41.544,42.852z M45.021,44.719c0.104-0.156,0.117-0.31,0.221-0.47l0.153-0.236l0.248-0.239c0.095-0.003,0.24-0.089,0.24-0.089
	l0.094-0.002l0.094-0.007l0.089,0.072L46.149,43.9l-0.012,0.156l-0.012,0.151l-0.054,0.078l-0.006,0.079l-0.003,0.075l-0.053,0.079
	l-0.006,0.077l-0.003,0.076l-0.054,0.078l-0.006,0.078h-0.05l-0.003,0.079l-0.093,0.003l-0.047,0.003c0,0-0.142,0.006-0.188,0.006
	l-0.139,0.011l-0.138-0.07l-0.041-0.073h-0.047l0.007-0.077l-0.047,0.003C45.12,44.641,45.217,44.557,45.021,44.719L45.021,44.719z
	 M48.393,48.12c0.104-0.154,0.116-0.31,0.219-0.467l0.155-0.237l0.251-0.242c0.094-0.006,0.237-0.089,0.237-0.089l0.098-0.005
	l0.09-0.003l0.092,0.073L49.522,47.3l-0.013,0.156l-0.012,0.155l-0.051,0.076l-0.005,0.078l-0.006,0.074l-0.053,0.079l-0.006,0.077
	l-0.006,0.077l-0.055,0.08l-0.003,0.072l-0.047,0.003l-0.004,0.08l-0.095,0.003l-0.047,0.003c0,0-0.142,0.01-0.188,0.01
	l-0.141,0.006l-0.134-0.071l-0.042-0.071L48.57,48.19l0.007-0.08l-0.048,0.003C48.492,48.042,48.591,47.96,48.393,48.12
	L48.393,48.12z M66.477,59.38c0.145-0.216,0.161-0.429,0.306-0.646l0.217-0.328l0.345-0.336c0.128-0.006,0.331-0.121,0.331-0.121
	l0.127-0.004l0.13-0.01l0.122,0.104l-0.014,0.21l-0.016,0.213l-0.016,0.213l-0.072,0.109l-0.006,0.106l-0.01,0.106l-0.072,0.11
	l-0.006,0.105l-0.006,0.104l-0.073,0.108l-0.009,0.107l-0.064,0.003l-0.008,0.108l-0.13,0.007l-0.063,0.003
	c0,0-0.193,0.007-0.258,0.01l-0.196,0.01l-0.185-0.096l-0.06-0.104l-0.064,0.004l0.009-0.107l-0.063,0.006
	C66.614,59.27,66.748,59.158,66.477,59.38L66.477,59.38z M32.483,53.031c0.144-0.221,0.157-0.435,0.302-0.653l0.22-0.326
	l0.345-0.334c0.128-0.006,0.33-0.123,0.33-0.123l0.128-0.004l0.133-0.006l0.119,0.099l-0.015,0.213L34.03,52.11l-0.016,0.214
	l-0.073,0.107l-0.005,0.105l-0.01,0.105l-0.072,0.109l-0.006,0.107l-0.009,0.104l-0.07,0.109l-0.009,0.106l-0.064,0.004
	l-0.007,0.104l-0.128,0.007l-0.065,0.003c0,0-0.193,0.01-0.259,0.013l-0.195,0.012l-0.188-0.1l-0.057-0.102l-0.064,0.003
	l0.008-0.104l-0.064,0.001C32.617,52.918,32.755,52.806,32.483,53.031L32.483,53.031z M71.389,10.518
	c0.105-0.162,0.118-0.321,0.224-0.479l0.16-0.246l0.257-0.247c0.095-0.005,0.242-0.09,0.242-0.09l0.098-0.003l0.097-0.006
	l0.091,0.074l-0.013,0.16l-0.011,0.155l-0.01,0.157l-0.056,0.081l-0.003,0.08l-0.006,0.076l-0.056,0.084l-0.003,0.079l-0.006,0.077
	l-0.057,0.08l-0.003,0.079l-0.05,0.003l-0.007,0.08l-0.097,0.003l-0.046,0.005c0,0-0.144,0.005-0.19,0.008L71.8,10.736l-0.138-0.073
	l-0.04-0.075l-0.047,0.002l0.003-0.076l-0.047,0.001C71.488,10.436,71.591,10.353,71.389,10.518L71.389,10.518z M63.366,3.925
	c0.104-0.162,0.119-0.319,0.225-0.481l0.16-0.243l0.256-0.246c0.097-0.007,0.245-0.091,0.245-0.091l0.097-0.004l0.094-0.005
	l0.091,0.073l-0.013,0.158l-0.012,0.158l-0.01,0.157l-0.055,0.082L64.439,3.56l-0.007,0.078l-0.047,0.081L64.376,3.8l-0.004,0.076
	l-0.054,0.083l-0.006,0.079h-0.047l-0.006,0.08l-0.097,0.005l-0.047,0.002c0,0-0.146,0.006-0.192,0.009L63.78,4.141l-0.141-0.072
	l-0.04-0.076l-0.047,0.001l0.006-0.078l-0.049,0.001C63.469,3.843,63.568,3.759,63.366,3.925L63.366,3.925z M58.816,1.072
	c0.107-0.162,0.116-0.319,0.225-0.482l0.16-0.241L59.456,0.1c0.095-0.004,0.243-0.092,0.243-0.092l0.097-0.002L59.893,0l0.088,0.076
	l-0.009,0.157L59.959,0.39l-0.013,0.156l-0.052,0.082L59.89,0.708l-0.006,0.079l-0.053,0.082l-0.007,0.077l-0.004,0.08l-0.056,0.081
	l-0.003,0.078l-0.049,0.001l-0.006,0.08L59.614,1.27l-0.051,0.003c0,0-0.143,0.007-0.188,0.01L59.23,1.288l-0.139-0.071L59.049,1.14
	l-0.048,0.002l0.006-0.078l-0.048,0.001C58.918,0.988,59.02,0.907,58.816,1.072L58.816,1.072z M60.723,2.935
	c0.104-0.162,0.116-0.319,0.222-0.481l0.16-0.244l0.254-0.248c0.1-0.004,0.25-0.088,0.25-0.088l0.096-0.005l0.093-0.004l0.092,0.074
	L61.88,2.096l-0.013,0.157l-0.013,0.159l-0.053,0.08L61.796,2.57l-0.007,0.079l-0.054,0.08l-0.006,0.08l-0.006,0.079l-0.052,0.078
	l-0.006,0.08L61.62,3.048l-0.007,0.08l-0.096,0.004L61.47,3.134c0,0-0.143,0.008-0.192,0.01l-0.141,0.005L60.996,3.08l-0.039-0.077
	L60.91,3.005l0.006-0.08l-0.054,0.002C60.82,2.852,60.924,2.768,60.723,2.935L60.723,2.935z M63.203,6.502
	c0.169-0.259,0.188-0.512,0.358-0.771l0.257-0.392l0.408-0.397c0.157-0.007,0.396-0.144,0.396-0.144l0.15-0.009l0.154-0.006
	l0.146,0.119l-0.02,0.252l-0.019,0.252L65.023,5.66l-0.089,0.13l-0.008,0.127L64.92,6.042l-0.087,0.132l-0.009,0.124l-0.012,0.128
	l-0.084,0.131l-0.007,0.128l-0.08,0.001l-0.007,0.127l-0.156,0.007l-0.077,0.003c0,0-0.229,0.011-0.305,0.013l-0.233,0.014
	l-0.217-0.117l-0.07-0.121l-0.077,0.003l0.012-0.125l-0.078,0.003C63.363,6.37,63.526,6.234,63.203,6.502L63.203,6.502z
	 M48.295,23.248c0.241-0.359,0.264-0.71,0.5-1.071l0.355-0.537l0.569-0.553c0.212-0.01,0.543-0.197,0.543-0.197l0.213-0.012
	l0.212-0.011l0.204,0.166l-0.025,0.351l-0.023,0.35l-0.027,0.35L50.7,22.264l-0.012,0.175l-0.016,0.176l-0.118,0.179l-0.012,0.175
	l-0.015,0.176l-0.115,0.18l-0.013,0.177L50.292,23.5l-0.009,0.177l-0.216,0.011l-0.104,0.004c0,0-0.316,0.014-0.427,0.021
	l-0.32,0.015l-0.304-0.158l-0.097-0.171l-0.104,0.004l0.012-0.174l-0.105,0.004C48.521,23.063,48.749,22.877,48.295,23.248
	L48.295,23.248z M36.427,29.724c0.17-0.262,0.188-0.513,0.357-0.772l0.257-0.39l0.412-0.397c0.151-0.008,0.392-0.144,0.392-0.144
	l0.152-0.008l0.151-0.008l0.149,0.118l-0.021,0.251l-0.014,0.254l-0.021,0.254l-0.085,0.13l-0.01,0.126l-0.009,0.127l-0.085,0.128
	l-0.009,0.127l-0.009,0.126l-0.085,0.13l-0.009,0.127l-0.075,0.004l-0.011,0.127l-0.153,0.007l-0.076,0.003
	c0,0-0.23,0.013-0.312,0.016l-0.229,0.01l-0.219-0.115L36.8,29.831l-0.079,0.005l0.008-0.128l-0.071,0.004
	C36.588,29.59,36.749,29.456,36.427,29.724L36.427,29.724z M63.825,22.175c0.003-0.286,1.069-1.644,1.095-1.932
	c0.012-0.233,0.257,0.336,0.257,0.336c0.055,0.23,0.221-0.126,0.221-0.126c0.01-0.116,0.229-0.243,0.222-0.128
	c0.054,0.23,0.719-0.15,0.669,0.55c-0.067,0.934-0.04,0.582,0.256,0.334c0.074-0.001,0.349,0.102,0.349,0.102
	c-0.009,0.116-0.104,0.471,0.038,0.463c0.215-0.008,0.4,0.33,0.173,0.573c-0.069,0.006-0.311,0.364-0.311,0.364
	c-0.433,0.136,0.023,0.694,0.08,0.925c0.046,0.348-0.329,1.644-0.462,1.534c-0.133-0.111-0.04-0.463-0.174-0.573
	c-0.066,0.004-0.788,1.198-0.868,1.319c-0.077,0.12-0.324,0.597-0.474,0.722c-0.3,0.245-0.133-0.11-0.348-0.101
	c-0.144,0.006-0.352,0.018-0.479-0.21c-0.063-0.112-0.109-0.461-0.097-0.693c0.019-0.232,0.228-0.125,0.019-0.232
	c-0.267-0.219-0.912-0.073-0.864-0.772c0.023-0.35,0.096-0.354,0.096-0.354c0.08-0.119,0.009-0.115-0.063-0.112
	c0,0-0.332-0.333-0.19-0.34c0.215-0.01,0.587-0.26,0.797-0.269c0.145-0.008-0.116-0.345-0.116-0.345l-0.134-0.108
	c-0.125-0.229,0.094-0.354,0.167-0.356l0.086-0.237c0.152-0.124,0.21-0.011,0.157-0.239c0,0-0.229-0.804-0.146-0.924
	c0,0,0.282-0.015,0.301-0.247c0.021-0.35,0.484,0.095,0.484,0.095C64.661,21.186,63.748,22.153,63.825,22.175L63.825,22.175z
	 M58.106,4.182c0.235-0.36,0.261-0.711,0.495-1.072l0.357-0.539l0.567-0.551c0.215-0.011,0.545-0.2,0.545-0.2l0.212-0.01L60.5,1.8
	l0.2,0.166l-0.024,0.352l-0.027,0.349l-0.023,0.352l-0.118,0.18l-0.012,0.174l-0.013,0.174l-0.12,0.182L60.351,3.9L60.34,4.075
	l-0.121,0.182L60.21,4.43l-0.108,0.005l-0.01,0.175l-0.214,0.011l-0.106,0.005c0,0-0.319,0.016-0.426,0.021l-0.319,0.016
	l-0.307-0.16l-0.094-0.168l-0.105,0.004l0.013-0.175l-0.108,0.006C58.33,3.998,58.554,3.81,58.106,4.182L58.106,4.182z
	 M38.535,25.494c0.226-0.611,0.315-0.616,0.509-0.776c0,0,0.377-0.168,0.471-0.172c0.091-0.004,0.161,0.294,0.243,0.438
	c0.082,0.146,0.082,0.146,0.16,0.294c0,0,0.264,0.135,0.254,0.287l-0.031,0.451l-0.191,0.16c0,0,0.069,0.296-0.114,0.305
	l-0.183,0.011L39.48,26.35l-0.103,0.151l-0.104,0.156l-0.017,0.301l-0.105,0.156l-0.1,0.155l-0.184,0.008l-0.095,0.005l-0.091,0.004
	L38.6,27.14l-0.079-0.146l0.009-0.152l-0.091,0.006l-0.094,0.006l-0.087,0.003l0.009-0.151l-0.185,0.009l-0.091,0.005
	c0,0-0.256-0.288-0.152-0.442l0.193-0.16l0.192-0.159l0.104-0.156l0.09-0.005l0.013-0.149l0.011-0.149
	C38.453,25.348,38.475,25.046,38.535,25.494L38.535,25.494z M40.655,15.747c0.248-0.914,0.422-0.769,0.646-1.382
	c0.1-0.154,0.11-0.307,0.295-0.315c0.091-0.004,0.082,0.148,0.173,0.146c0.173,0.141,0.254,0.286,0.254,0.286l0.173,0.143
	l0.067,0.295c0,0,0.195-0.156,0.172,0.145l0.086,0.146l0.059,0.446l0.163,0.295l-0.021,0.3l-0.104,0.156l-0.114,0.304l-0.111,0.307
	L42.2,17.176l-0.092,0.006l-0.102,0.153l-0.013,0.151l-0.183,0.008l-0.09,0.005L41.629,17.5l-0.009,0.15l-0.095,0.005l-0.091,0.003
	l-0.09,0.004l-0.095,0.005l-0.182,0.008c-0.081-0.146-0.072-0.298-0.14-0.594l-0.153-0.441l-0.072-0.299l-0.078-0.146l0.009-0.15
	L40.553,15.9l0.023-0.301C40.576,15.599,40.608,15.147,40.655,15.747L40.655,15.747z M31.682,70.135
	c-0.135,0.142-0.277,0.191-0.378,0.391c-0.037,0.083-0.084,0.286-0.239,0.283c-0.191,0.063,0.104,0.25,0.17,0.25
	c0.097,0.037,0.626,0.194,0.699,0.052c0.008-0.027,0.252-0.249,0.108-0.249c-0.065-0.02-0.34-0.053-0.337-0.141
	C31.711,70.567,31.936,70.229,31.682,70.135L31.682,70.135z M41.152,62.727c-0.056-0.06,0.06-0.121-0.166,0
	c0.116-0.121,0.119-0.237,0.233-0.359l0.172-0.182c0.231-0.145,0.901-0.356,0.894-0.183C42.231,63.243,41.755,62.727,41.152,62.727
	L41.152,62.727z M43.073,61.457h-0.067c-0.404,0.216,0.264,0.775,0.479,0.547C43.748,61.732,43.424,61.457,43.073,61.457
	L43.073,61.457z M35.188,66.182c-0.094-0.104-0.192-0.38-0.305-0.455c-0.365-0.243-0.729-0.334-0.748,0.158
	c-0.006,0.023,0.009,0.116,0.038,0.146C34.813,66.76,34.755,65.939,35.188,66.182L35.188,66.182z M24.36,70.094
	c-0.198-0.229-0.859-0.503-0.868-0.301c-0.012,0.267,0.116,0.488,0.107,0.707c-0.008,0.221,0.047,0.007,0.044,0.052
	c-0.003,0.053,0.459,0.104,0.605-0.052C24.427,70.317,24.638,70.414,24.36,70.094L24.36,70.094z M21.032,68.08
	c-0.176-0.198-0.318-0.256-0.588-0.354c-0.496-0.183-0.331,0.807,0.195,0.807c0.167,0,0.272-0.1,0.378-0.1v-0.052
	C21.229,68.383,21.208,68.279,21.032,68.08L21.032,68.08z M24.457,78.658c0.122,0.144,0.257,0.19,0.339,0.391
	c0.035,0.08,0.063,0.283,0.216,0.287c0.161,0.052-0.025,0.174-0.087,0.191c-0.126,0-0.714,0.33-0.805,0.106
	c-0.007-0.011-0.231-0.248-0.088-0.248c0.761-0.203,0-0.307,0.254-0.565C24.337,78.765,24.381,78.686,24.457,78.658L24.457,78.658z
	 M25.916,79.262c0.049-0.054,0.153-0.272,0.262-0.272c0.098,0,0.139-0.053,0.229,0c0.09,0.047-0.004,0.079-0.004,0.091
	C26.381,79.6,26.021,79.205,25.916,79.262L25.916,79.262z M25.479,78.481c0.313,0-0.021,0.423-0.024,0.584
	c0,0.078-0.431-0.073-0.469-0.073h-0.031l0.003-0.034C24.611,78.958,25.214,78.481,25.479,78.481L25.479,78.481z M43.216,62.779
	c0.299,0,0.385-0.111,0.372,0.147c-0.023,0.521,0.022,0.843-0.222,0.668l-0.444-0.33C42.711,63.112,43.029,62.779,43.216,62.779
	L43.216,62.779z M36.854,60.02l0.224-0.444c0.138-0.089,0.244-0.149,0.418-0.149c0.723-0.003-0.21,0.603-0.425,0.648
	C37.029,60.08,36.433,60.46,36.854,60.02L36.854,60.02z M37.752,60.355c0.182-0.063,0.328,0.024,0.321,0.181
	c-0.013,0.223-0.111,0.832-0.365,0.777l-0.507-0.104C37.1,61.188,36.834,60.685,37.752,60.355L37.752,60.355z M26.878,68.29
	c0.201-0.21,0.943-0.792,1.321-0.582c0.233,0.129,0.137,0.354,0.128,0.582c-0.009,0.221-0.329,0.603-0.339,0.751
	c0,0.033-0.78-0.007-0.988-0.083C26.617,68.817,26.589,68.593,26.878,68.29L26.878,68.29z M18.609,71.08
	c0.04-0.042,0.9-0.399,0.893-0.182c-0.019,0.334-0.252,0.688-0.265,0.9l-0.456,0.027C18.091,71.827,18.074,71.635,18.609,71.08
	L18.609,71.08z M38.415,67.724c0.255-0.048,0.38,0.585,0.654,0.744c0.231,0.14,0.623-0.28,0.796-0.191
	c0.789,0.405-0.421,2.041-1.277,2.494c-0.132,0.068-0.33-0.603-0.642-0.877c-0.287-0.259-0.688-0.118-0.688-0.118
	C37.284,69.159,37.934,67.811,38.415,67.724L38.415,67.724z M33.372,59.42c0.342-0.356,1.487-0.815,1.474-0.501
	c-0.021,0.461-0.348,0.954-0.36,1.249c0,0-0.646,0-0.766,0C33.126,60.168,33.201,59.597,33.372,59.42L33.372,59.42z M19.939,69.294
	c0.245-0.135,0.842,0.257,0.832,0.426c-0.002,0.094-0.058,0.432-0.215,0.429c-0.305,0-0.601,0.594-0.868,0.289
	c-0.111-0.132-0.239-0.006-0.384-0.213c-0.389-0.567-0.179-0.089,0.082-0.36C19.662,69.578,19.468,69.542,19.939,69.294
	L19.939,69.294z M68.9,34.123c0.319,0-0.015,0.422-0.022,0.583c-0.004,0.081-0.431-0.073-0.465-0.073h-0.034l0.003-0.034
	C68.036,34.598,68.641,34.123,68.9,34.123L68.9,34.123z M63.345,43.229c-0.015,0.269,0.278,0.739,0.306,0.81
	c0.025,0.102-0.114,0.469-0.173,0.437c-0.062-0.033-0.026-0.137-0.086-0.166c-0.125,0-0.399,0.488-0.552,0.57
	c-0.13,0.068-0.063-0.032-0.152-0.032c-0.369,0.003-0.189-0.31-0.267-0.34c-0.119-0.065-0.4-0.029-0.392-0.231
	c0.016-0.333,0.336-0.638,0.354-1.013C62.387,43.208,63.359,42.876,63.345,43.229L63.345,43.229z M57.144,49.165
	c0.003-0.032,0.047-0.371,0.047-0.371l0.092,0.032c0.496,0.003,0.784,0.748,0.635,1.044c-0.036,0.103-0.221,0.103-0.251,0.173
	c-0.036,0.063-0.47,0.101-0.563,0.066C56.62,49.931,57.138,49.329,57.144,49.165L57.144,49.165z M60.878,47.979
	c1.418,0,0.984,1.247,0.844,1.247c-0.09,0-0.654,0.034-0.711-0.031c-0.03-0.033-0.054-0.201-0.051-0.234
	C60.963,48.864,60.597,47.979,60.878,47.979L60.878,47.979z M56.258,56.035c0.172-0.069,0.285,0.341,0.541,0.341
	c0.099,0,0.141,0.563,0.031,0.672c-0.06,0.059-0.163,0.073-0.254,0.167c-0.033,0.034-0.255,0.138-0.377,0.138
	c-0.469,0-0.434-0.734-0.425-0.944C55.788,56.17,56.038,56.098,56.258,56.035L56.258,56.035z M56.897,57.621
	c0.09-0.094,0.271-0.019,0.309,0.066c0.1,0.236,0.443,0.077,0.289,0.387l-0.254,0.185h-0.025c-0.291,0.004-0.588,0.319-0.571-0.086
	C56.664,57.768,56.81,57.798,56.897,57.621L56.897,57.621z M67.878,34.3c0.125,0.143,0.257,0.19,0.343,0.39
	c0.033,0.082,0.063,0.285,0.215,0.285c0.161,0.052-0.022,0.178-0.088,0.194c-0.126,0-0.714,0.329-0.805,0.107
	c-0.004-0.011-0.229-0.249-0.09-0.249c0.765-0.207,0.003-0.304,0.255-0.569C67.761,34.403,67.804,34.325,67.878,34.3L67.878,34.3z
	 M69.339,34.9c0.05-0.051,0.156-0.271,0.263-0.271c0.098,0,0.142-0.053,0.229,0c0.094,0.049-0.001,0.077-0.001,0.09
	C69.808,35.242,69.448,34.844,69.339,34.9L69.339,34.9z M94.7,42.145c-0.084-0.157-0.075-0.318-0.16-0.478l-0.127-0.233l-0.232-0.23
	c-0.1,0.003-0.239-0.069-0.239-0.069l-0.097,0.007l-0.1,0.003l-0.104,0.086l-0.012,0.162l-0.011,0.159l-0.014,0.162l0.044,0.077
	l-0.006,0.082l-0.006,0.079l0.045,0.078l-0.006,0.082l-0.006,0.081l0.044,0.077l-0.006,0.082l0.05-0.002l-0.007,0.08l0.098-0.007
	l0.05-0.002c0,0,0.149-0.006,0.197-0.009l0.146-0.006l0.152-0.088l0.055-0.084h0.051l0.006-0.082l0.047-0.003
	C94.611,42.067,94.518,41.99,94.7,42.145L94.7,42.145z M94.503,44.788c-0.142-0.256-0.12-0.513-0.261-0.764l-0.207-0.378
	l-0.368-0.372c-0.157,0.01-0.384-0.107-0.384-0.107l-0.157,0.01l-0.154,0.007l-0.17,0.138l-0.018,0.257l-0.02,0.26l-0.018,0.261
	l0.066,0.123l-0.009,0.131l-0.008,0.13l0.07,0.126l-0.011,0.128l-0.009,0.129l0.069,0.125l-0.009,0.129l0.079-0.003l-0.009,0.128
	l0.158-0.006l0.075-0.006c0,0,0.235-0.009,0.315-0.009l0.237-0.014l0.242-0.142l0.087-0.133l0.082-0.003l0.006-0.135l0.079-0.003
	C94.353,44.665,94.208,44.541,94.503,44.788L94.503,44.788z M73.931,60.765c-0.196-0.349-0.169-0.707-0.362-1.056l-0.291-0.521
	l-0.505-0.514c-0.217,0.011-0.534-0.154-0.534-0.154l-0.218,0.009l-0.217,0.013l-0.229,0.19l-0.026,0.355l-0.022,0.359l-0.026,0.359
	l0.097,0.173l-0.012,0.182L71.57,60.34l0.094,0.178l-0.013,0.177l-0.011,0.181l0.096,0.174l-0.011,0.181l0.107-0.006L71.821,61.4
	l0.217-0.01l0.108-0.007c0,0,0.326-0.012,0.436-0.015l0.33-0.019l0.337-0.196l0.122-0.186l0.108-0.006l0.015-0.179l0.107-0.003
	C73.726,60.594,73.517,60.426,73.931,60.765L73.931,60.765z M92.19,49.483c0.182-0.274,0.197-0.538,0.376-0.813l0.272-0.41
	l0.429-0.415c0.162-0.01,0.414-0.15,0.414-0.15l0.16-0.01l0.163-0.01l0.149,0.126l-0.017,0.269l-0.021,0.263l-0.02,0.27
	l-0.091,0.135L94,48.868L93.99,49l-0.089,0.136l-0.008,0.131l-0.012,0.137l-0.088,0.138l-0.012,0.131l-0.079,0.003l-0.008,0.136
	l-0.161,0.006l-0.083,0.003c0,0-0.242,0.013-0.32,0.017l-0.242,0.014l-0.235-0.121l-0.068-0.132L92.503,49.6l0.009-0.134
	l-0.078,0.007C92.362,49.344,92.533,49.202,92.19,49.483L92.19,49.483z M78.669,38.37c0.179-0.273,0.199-0.538,0.381-0.81
	l0.269-0.41l0.431-0.418c0.162-0.01,0.413-0.151,0.413-0.151l0.159-0.008l0.164-0.008l0.151,0.125l-0.02,0.265l-0.02,0.267
	l-0.018,0.262l-0.089,0.138l-0.011,0.134l-0.009,0.133l-0.092,0.136l-0.007,0.132l-0.01,0.132l-0.091,0.138l-0.012,0.132
	l-0.079,0.004l-0.009,0.134l-0.16,0.008l-0.083,0.003c0,0-0.24,0.012-0.322,0.015l-0.24,0.013l-0.234-0.123l-0.071-0.128
	l-0.082,0.004l0.014-0.134l-0.082,0.004C78.84,38.228,79.012,38.089,78.669,38.37L78.669,38.37z M71,33.563
	c0.182-0.272,0.198-0.54,0.376-0.812l0.271-0.41l0.432-0.417c0.163-0.007,0.413-0.151,0.413-0.151l0.159-0.006l0.16-0.009
	l0.155,0.125l-0.021,0.267l-0.021,0.264l-0.015,0.266l-0.095,0.138l-0.006,0.131l-0.01,0.133l-0.089,0.136L72.7,33.349l-0.007,0.134
	l-0.091,0.135l-0.01,0.133l-0.081,0.003l-0.008,0.135l-0.162,0.007L72.264,33.9c0,0-0.243,0.01-0.322,0.014L71.7,33.927l-0.234-0.12
	l-0.071-0.13l-0.082,0.004l0.014-0.133l-0.082,0.005C71.169,33.423,71.343,33.283,71,33.563L71,33.563z M74.213,36.701
	c0.179-0.271,0.198-0.536,0.377-0.812l0.271-0.409l0.429-0.418c0.164-0.007,0.413-0.151,0.413-0.151l0.163-0.006l0.159-0.008
	l0.152,0.125l-0.017,0.266l-0.021,0.268l-0.019,0.263l-0.092,0.137l-0.009,0.133l-0.008,0.135l-0.091,0.135l-0.009,0.133
	l-0.009,0.133l-0.092,0.137l-0.008,0.132l-0.081,0.003l-0.01,0.134l-0.161,0.007l-0.082,0.003c0,0-0.24,0.014-0.321,0.018
	l-0.238,0.013l-0.234-0.122l-0.074-0.129l-0.078,0.004l0.013-0.132l-0.085,0.004C74.383,36.562,74.554,36.419,74.213,36.701
	L74.213,36.701z M78.396,42.714c0.285-0.437,0.314-0.862,0.604-1.301l0.433-0.656l0.69-0.671c0.262-0.013,0.663-0.242,0.663-0.242
	l0.261-0.015l0.254-0.012l0.246,0.203l-0.029,0.426l-0.03,0.425l-0.025,0.425l-0.148,0.22l-0.016,0.213l-0.012,0.214L81.14,42.16
	l-0.015,0.212l-0.016,0.215l-0.143,0.22l-0.015,0.213l-0.133,0.006l-0.014,0.215l-0.257,0.013l-0.13,0.003
	c0,0-0.39,0.019-0.519,0.027l-0.393,0.018l-0.37-0.195l-0.113-0.207l-0.13,0.005l0.016-0.211l-0.132,0.007
	C78.667,42.489,78.939,42.264,78.396,42.714L78.396,42.714z M69.805,38.804c0.4-0.608,0.438-1.198,0.839-1.807l0.601-0.909
	l0.958-0.926c0.356-0.02,0.916-0.339,0.916-0.339l0.359-0.017l0.359-0.02l0.339,0.279l-0.041,0.59l-0.044,0.589l-0.041,0.59
	l-0.199,0.304l-0.02,0.295l-0.021,0.293l-0.199,0.305l-0.02,0.295l-0.021,0.295l-0.202,0.302l-0.021,0.295l-0.179,0.01l-0.021,0.296
	l-0.359,0.015l-0.179,0.009c0,0-0.538,0.024-0.72,0.033l-0.535,0.027l-0.519-0.27l-0.16-0.288L70.5,39.064l0.021-0.295l-0.181,0.009
	C70.186,38.492,70.562,38.179,69.805,38.804L69.805,38.804z"/>
</svg>
