<?xml version="1.0" encoding="utf-8"?>
<!-- Generator: Adobe Illustrator 16.0.0, SVG Export Plug-In . SVG Version: 6.00 Build 0)  -->
<!DOCTYPE svg PUBLIC "-//W3C//DTD SVG 1.1//EN" "http://www.w3.org/Graphics/SVG/1.1/DTD/svg11.dtd">
<svg version="1.1" id="Layer_1" xmlns="http://www.w3.org/2000/svg" xmlns:xlink="http://www.w3.org/1999/xlink" x="0px" y="0px"
	 width="100px" height="100px" viewBox="0 0 100 100" enable-background="new 0 0 100 100" xml:space="preserve">
<g>
	<polygon fill="#010101" points="41.664,71.491 42.939,72.225 44.214,72.957 45.488,73.689 46.764,74.471 48.039,75.204 
		49.265,75.938 50.539,76.669 51.766,77.402 52.99,78.135 54.217,78.867 55.441,79.551 56.668,80.234 57.895,80.87 59.119,81.555 
		60.348,82.141 61.572,82.727 62.798,83.313 64.023,83.85 65.249,84.338 66.425,84.777 67.652,85.217 68.878,85.607 70.152,85.95 
		71.378,86.242 72.604,86.486 73.829,86.684 75.104,86.829 76.329,86.927 77.604,86.975 78.879,86.975 80.154,86.877 81.43,86.73 
		83.391,86.341 85.009,85.706 86.382,84.924 87.411,84.045 88.195,82.971 88.734,81.848 89.077,80.674 89.176,79.453 89.077,78.232 
		88.833,77.011 88.393,75.889 87.852,74.813 87.165,73.885 86.382,73.055 85.499,72.42 84.566,71.98 83.686,71.734 82.753,71.491 
		81.771,71.346 80.743,71.199 79.714,71.148 78.684,71.148 77.703,71.199 76.771,71.247 75.84,71.395 75.055,71.59 74.32,71.784 
		73.73,72.078 73.29,72.37 72.996,72.762 72.896,73.152 72.945,73.592 73.096,73.689 73.389,73.592 73.829,73.396 74.369,73.104 
		75.055,72.762 75.889,72.42 76.771,72.176 77.801,72.029 78.391,71.98 79.125,71.98 79.909,71.98 80.791,72.029 81.675,72.078 
		82.605,72.225 83.538,72.42 84.42,72.664 85.253,73.055 86.038,73.494 86.676,74.031 87.264,74.715 87.656,75.546 87.9,76.475 
		87.95,77.598 87.803,78.867 87.411,80.186 86.871,81.311 86.186,82.335 85.303,83.264 84.32,83.996 83.193,84.631 81.969,85.168 
		80.645,85.559 79.271,85.803 77.801,85.95 76.329,85.998 74.811,85.95 73.241,85.754 71.672,85.461 70.152,85.021 68.633,84.533 
		66.867,83.85 65.104,83.117 63.387,82.335 61.669,81.555 60.003,80.725 58.336,79.844 56.668,78.965 55.05,78.086 53.432,77.158 
		51.813,76.277 50.195,75.35 48.578,74.471 47.009,73.543 45.391,72.664 43.821,71.784 42.204,70.955 	"/>
	<polygon fill="#010101" points="41.664,71.491 40.684,70.955 39.654,70.417 38.625,69.93 37.546,69.439 36.516,68.952 
		35.438,68.512 34.31,68.072 33.23,67.682 32.104,67.291 31.024,66.949 29.896,66.607 28.769,66.313 27.642,66.021 26.563,65.777 
		25.435,65.532 24.307,65.337 23.229,65.189 22.149,65.044 21.071,64.898 19.992,64.85 18.963,64.8 17.884,64.751 16.903,64.751 
		15.923,64.8 14.942,64.898 14.011,64.995 13.079,65.143 12.196,65.337 11.313,65.532 10.529,65.777 9.695,66.068 8.96,66.412 
		7.882,66.998 6.95,67.633 6.067,68.366 5.332,69.195 4.646,70.124 4.106,71.148 3.714,72.273 3.42,73.494 3.42,74.275 
		3.714,75.009 4.204,75.741 4.939,76.475 5.92,77.107 7.097,77.744 8.47,78.281 10.039,78.721 11.755,79.063 13.667,79.355 
		15.678,79.453 17.835,79.502 20.14,79.355 22.493,79.111 24.994,78.672 27.543,78.037 28.867,77.646 30.142,77.206 31.466,76.718 
		32.79,76.182 34.163,75.595 35.486,74.959 36.859,74.275 38.232,73.592 39.604,72.859 40.978,72.078 42.399,71.296 43.821,70.516 
		45.194,69.686 46.666,68.854 48.088,68.072 49.51,67.242 50.98,66.412 52.451,65.631 53.923,64.8 55.395,64.02 56.913,63.286 
		58.434,62.555 59.904,61.869 61.424,61.186 62.993,60.551 64.514,60.014 66.083,59.477 67.652,58.986 69.221,58.548 70.79,58.206 
		72.357,57.913 73.977,57.669 74.32,58.157 73.829,58.206 73.29,58.305 72.799,58.354 72.311,58.45 71.771,58.548 71.328,58.693 
		70.839,58.792 70.396,58.938 68.927,59.477 67.404,60.063 65.887,60.697 64.416,61.381 62.896,62.113 61.375,62.943 59.855,63.773 
		58.336,64.604 56.814,65.482 55.295,66.412 53.727,67.34 52.206,68.268 50.639,69.195 49.068,70.124 47.45,71.052 45.881,71.98 
		44.263,72.908 42.645,73.787 41.026,74.667 39.359,75.448 37.692,76.229 36.025,77.011 34.31,77.693 32.594,78.33 30.878,78.867 
		29.112,79.404 27.347,79.844 25.533,80.186 23.719,80.479 21.904,80.674 20.041,80.771 18.178,80.771 16.707,80.725 15.236,80.576 
		13.814,80.382 12.393,80.186 10.971,79.893 9.646,79.551 8.372,79.16 7.146,78.721 6.019,78.184 4.989,77.646 4.057,77.011 
		3.224,76.376 2.537,75.645 2.047,74.861 1.654,74.031 1.458,73.152 1.458,72.225 1.605,71.296 1.949,70.318 2.439,69.391 
		3.175,68.512 4.057,67.633 5.136,66.803 6.411,66.068 7.833,65.387 9.5,64.8 11.363,64.359 13.373,64.02 15.629,63.822 
		18.08,63.822 20.728,63.921 23.571,64.264 24.798,64.458 25.975,64.702 27.2,64.995 28.377,65.288 29.554,65.631 30.73,65.973 
		31.907,66.363 33.084,66.803 34.212,67.242 35.389,67.73 36.516,68.219 37.644,68.708 38.82,69.245 39.948,69.831 41.076,70.368 
		42.204,70.955 	"/>
	<polygon fill="#010101" points="73.977,57.669 75.104,57.521 76.232,57.375 77.262,57.277 78.241,57.131 79.173,57.083 
		80.105,57.033 80.939,57.033 81.723,57.033 82.459,57.131 83.146,57.277 83.732,57.475 84.32,57.768 84.861,58.107 85.303,58.548 
		85.695,59.085 86.038,59.72 86.186,60.257 86.088,60.697 85.793,61.088 85.303,61.43 84.616,61.674 83.783,61.82 82.802,61.869 
		81.675,61.869 80.448,61.723 79.125,61.479 77.703,61.137 76.184,60.648 74.613,60.063 73.045,59.33 71.427,58.4 69.76,57.375 
		68.143,56.154 66.572,54.689 64.954,53.077 63.436,51.271 61.866,49.268 60.395,47.216 58.973,45.019 57.6,42.771 56.275,40.476 
		55.001,38.131 53.824,35.836 52.745,33.54 51.766,31.342 50.882,29.192 50.098,27.142 49.411,25.236 50.146,24.016 50.932,26.75 
		51.863,29.388 52.893,32.025 54.068,34.565 55.295,37.008 56.619,39.353 57.992,41.648 59.413,43.797 60.836,45.849 62.259,47.754 
		63.729,49.561 65.104,51.223 66.523,52.734 67.848,54.055 69.073,55.227 70.249,56.252 71.477,57.182 72.751,58.011 74.025,58.693 
		75.252,59.28 76.479,59.77 77.703,60.109 78.831,60.354 79.909,60.551 80.939,60.648 81.82,60.648 82.654,60.648 83.341,60.502 
		83.881,60.354 84.271,60.16 84.52,59.916 84.566,59.622 84.471,59.378 84.271,59.184 83.979,58.986 83.587,58.792 83.096,58.646 
		82.508,58.499 81.87,58.354 81.184,58.255 80.448,58.157 79.615,58.107 78.782,58.011 77.947,58.011 77.016,58.011 76.134,58.011 
		75.202,58.061 74.32,58.157 	"/>
	<polygon fill="#010101" points="49.411,25.236 48.823,23.38 48.431,21.72 48.137,20.303 48.039,19.18 48.088,17.616 48.234,16.298 
		48.528,15.272 48.872,14.393 49.265,13.807 49.706,13.367 50.146,13.123 50.588,13.025 51.029,13.123 51.52,13.318 52.012,13.709 
		52.5,14.197 52.941,14.881 53.285,15.663 53.529,16.64 53.58,17.714 53.383,20.4 52.844,23.185 52.061,26.066 51.029,28.997 
		49.755,31.928 48.333,34.858 46.715,37.74 45.048,40.573 43.233,43.309 41.37,45.897 39.507,48.291 37.595,50.537 35.78,52.54 
		34.016,54.298 32.349,55.764 30.779,56.887 30.24,57.229 29.75,57.57 29.21,57.864 28.671,58.157 28.132,58.4 27.592,58.646 
		27.053,58.891 26.514,59.134 25.483,58.499 26.71,57.913 27.936,57.182 29.063,56.398 30.142,55.52 31.221,54.542 32.201,53.518 
		33.23,52.441 34.163,51.318 35.143,50.146 36.075,48.926 36.957,47.705 37.889,46.435 38.771,45.165 39.703,43.895 40.586,42.674 
		41.518,41.404 42.743,39.694 43.92,37.936 44.999,36.178 45.979,34.468 46.911,32.758 47.793,31.049 48.578,29.437 49.265,27.825 
		49.901,26.311 50.49,24.895 50.98,23.526 51.373,22.257 51.766,21.085 52.061,20.059 52.305,19.131 52.451,18.35 52.451,17.03 
		52.061,15.907 51.422,15.125 50.639,14.734 49.853,14.881 49.265,15.663 48.97,17.128 49.117,19.424 49.362,20.547 49.559,21.72 
		49.853,22.892 50.146,24.016 	"/>
	<polygon fill="#010101" points="26.514,59.134 25.239,59.622 24.013,60.014 22.738,60.354 21.562,60.6 20.385,60.795 
		19.306,60.893 18.228,60.99 17.247,60.99 16.364,60.941 15.58,60.844 14.844,60.697 14.256,60.502 13.814,60.257 13.471,60.014 
		13.275,59.72 13.226,59.378 13.324,58.792 13.471,58.255 13.716,57.768 14.06,57.327 14.501,56.984 15.089,56.691 15.775,56.447 
		16.609,56.301 17.59,56.203 18.767,56.203 20.091,56.301 21.61,56.496 23.376,56.74 25.288,57.131 27.494,57.62 29.896,58.206 
		31.613,58.693 33.329,59.28 34.996,59.965 36.712,60.746 38.429,61.576 40.193,62.504 41.909,63.48 43.675,64.458 45.488,65.532 
		47.303,66.607 49.166,67.73 51.078,68.854 52.99,69.979 54.951,71.102 57.012,72.176 59.07,73.25 58.336,73.885 56.913,73.201 
		55.492,72.469 54.118,71.784 52.695,71.052 51.273,70.318 49.901,69.538 48.528,68.805 47.205,68.072 45.832,67.34 44.558,66.656 
		43.282,65.923 42.057,65.239 40.831,64.557 39.654,63.921 38.575,63.286 37.497,62.699 35.731,61.723 34.016,60.893 32.349,60.16 
		30.73,59.523 29.21,58.986 27.788,58.499 26.416,58.107 25.092,57.814 23.866,57.62 22.688,57.425 21.659,57.327 20.63,57.277 
		19.747,57.229 18.914,57.277 18.178,57.327 17.541,57.425 16.658,57.57 15.923,57.814 15.285,58.107 14.893,58.4 14.795,58.743 
		14.991,59.036 15.53,59.33 16.56,59.523 17.197,59.622 17.835,59.672 18.424,59.72 19.061,59.72 19.649,59.72 20.237,59.72 
		20.776,59.672 21.365,59.574 21.904,59.523 22.444,59.427 22.983,59.33 23.474,59.184 24.013,59.036 24.503,58.891 24.994,58.693 
		25.483,58.499 	"/>
	<polygon fill="#010101" points="59.07,73.25 60.348,73.885 61.621,74.471 62.943,75.059 64.268,75.645 65.643,76.182 
		67.063,76.718 68.484,77.206 69.907,77.693 71.378,78.135 72.896,78.574 74.417,78.965 75.986,79.307 77.557,79.6 79.223,79.844 
		80.841,80.088 82.559,80.283 85.45,80.382 88.098,80.234 90.451,79.795 92.512,79.111 94.227,78.232 95.6,77.206 96.58,76.034 
		97.218,74.766 97.363,73.445 97.119,72.126 96.385,70.809 95.207,69.489 93.441,68.316 91.188,67.242 88.393,66.266 85.009,65.532 
		83.341,65.288 81.675,65.143 80.008,65.143 78.391,65.189 76.771,65.387 75.152,65.631 73.584,65.973 72.016,66.412 70.445,66.9 
		68.878,67.486 67.309,68.072 65.738,68.757 64.171,69.538 62.602,70.318 60.982,71.102 59.413,71.98 57.846,72.859 56.227,73.787 
		54.609,74.715 52.941,75.645 51.324,76.57 49.656,77.549 47.94,78.477 46.225,79.404 44.459,80.332 42.694,81.212 40.88,82.091 
		39.065,82.921 37.202,83.703 35.29,84.484 33.329,85.217 31.368,85.852 29.799,86.242 28.181,86.536 26.465,86.73 24.798,86.78 
		23.081,86.73 21.365,86.536 19.747,86.242 18.178,85.9 16.658,85.412 15.285,84.826 14.06,84.143 12.98,83.409 12.049,82.53 
		11.363,81.604 10.873,80.576 10.627,79.502 10.578,78.428 10.677,77.354 10.873,76.376 11.167,75.497 11.607,74.667 12.147,73.885 
		12.834,73.25 13.618,72.664 14.55,72.176 15.58,71.834 16.756,71.59 18.031,71.491 19.453,71.491 20.973,71.688 22.64,71.98 
		24.454,72.42 24.994,72.811 25.288,73.152 25.337,73.494 25.239,73.738 24.944,73.836 24.503,73.836 23.964,73.689 23.327,73.299 
		21.954,72.908 20.679,72.664 19.551,72.469 18.424,72.322 17.442,72.322 16.56,72.37 15.727,72.518 14.942,72.762 14.305,73.104 
		13.716,73.494 13.177,74.031 12.735,74.617 12.344,75.253 12,76.034 11.755,76.914 11.559,77.841 11.461,78.672 11.607,79.551 
		11.902,80.43 12.393,81.261 13.079,82.091 13.912,82.823 14.942,83.507 16.119,84.143 17.394,84.631 18.864,85.021 20.434,85.314 
		22.101,85.412 23.915,85.363 25.778,85.168 27.788,84.729 29.848,84.094 30.927,83.703 32.054,83.264 33.23,82.773 34.407,82.236 
		35.634,81.7 36.859,81.114 38.134,80.479 39.409,79.844 40.732,79.209 42.057,78.525 43.43,77.841 44.803,77.107 46.176,76.376 
		47.548,75.645 48.97,74.911 50.343,74.18 51.766,73.445 53.188,72.713 54.609,71.98 55.98,71.247 57.404,70.563 58.775,69.88 
		60.148,69.195 61.521,68.561 62.896,67.926 64.268,67.34 65.592,66.754 66.867,66.217 68.189,65.729 69.416,65.239 70.643,64.85 
		71.867,64.458 73.096,64.165 74.613,63.97 76.379,63.822 78.34,63.822 80.448,63.872 82.654,64.02 84.91,64.313 87.117,64.702 
		89.324,65.239 91.383,65.923 93.295,66.754 94.962,67.73 96.385,68.854 97.463,70.173 98.247,71.639 98.542,73.348 98.443,74.959 
		98.051,76.327 97.363,77.5 96.385,78.525 95.207,79.404 93.786,80.039 92.217,80.576 90.5,80.968 88.637,81.212 86.725,81.357 
		84.714,81.407 82.654,81.311 80.596,81.162 78.585,80.87 76.575,80.576 74.663,80.186 73.829,79.991 72.945,79.746 72.016,79.502 
		71.084,79.209 70.152,78.916 69.172,78.525 68.143,78.184 67.111,77.744 66.034,77.354 65.004,76.914 63.925,76.425 62.798,75.938 
		61.718,75.448 60.591,74.959 59.463,74.423 58.336,73.885 	"/>
</g>
</svg>
