<svg xmlns="http://www.w3.org/2000/svg" xmlns:se="http://svg-edit.googlecode.com" xmlns:xlink="http://www.w3.org/1999/xlink" id="svgcontent" width="205.65" height="395.85" x="0" y="0" viewBox="0 0 205.65 395.85" overflow="hidden"><g mask="" style="pointer-events:all"><title style="pointer-events:inherit">Layer 1</title><g id="svg_1" type="text" text="THE WORLD" font-size="32.75569970300266" font-family="Aleo" fill="2ddcff" text-anchor="middle" font-weight="normal" font-style="normal" lineHeight="1" shapeId="9" shapeVal="-135" fill-opacity="1" display="null" elemBBoxWidth="169.5363311767578" stroke="null" stroke-dasharray="none" style="pointer-events:inherit"><path id="svg_27" fill="#ffffff" stroke-width="0" d="M35.733959880981445,211.80507267578125 C35.733959880981445,211.80507267578125 45.16289988098144,228.58082267578123 45.16289988098144,228.58082267578123 C45.16289988098144,228.58082267578123 40.63701988098145,231.12462267578124 40.63701988098145,231.12462267578124 C40.347299880981446,230.44203267578126 39.41175988098144,229.44606267578126 39.84548988098145,229.01441267578124 C40.01326988098145,228.84495267578126 40.60936988098145,228.43476267578126 41.60793988098145,227.70442267578125 C41.60793988098145,227.70442267578125 38.903639880981444,222.89299267578124 38.903639880981444,222.89299267578124 C38.903639880981444,222.89299267578124 22.856039880981445,231.91268267578124 22.856039880981445,231.91268267578124 C22.856039880981445,231.91268267578124 23.494159880981446,233.88367267578124 23.494159880981446,233.88367267578124 C23.654559880981445,234.46987267578126 22.494659880981445,234.74605267578124 21.935139880981446,235.15447267578125 C21.935139880981446,235.15447267578125 18.059239880981444,228.25857267578124 18.059239880981444,228.25857267578124 C18.813219880981446,227.92873267578125 19.550419880981444,227.10105267578126 20.102449880981446,227.74894267578125 C20.102449880981446,227.74894267578125 21.299259880981445,229.14290267578124 21.299259880981445,229.14290267578124 C21.299259880981445,229.14290267578124 37.34685988098145,220.12321267578125 37.34685988098145,220.12321267578125 C37.34685988098145,220.12321267578125 34.63453988098145,215.29751267578126 34.63453988098145,215.29751267578126 C33.49151988098144,215.77086267578125 32.794649880981446,216.06860267578125 32.576949880981445,216.11582267578126 C31.982719880981445,216.26193267578125 31.632549880981447,214.93696267578125 31.208069880981444,214.34888267578125 C31.208069880981444,214.34888267578125 35.733959880981445,211.80507267578125 35.733959880981445,211.80507267578125 C35.733959880981445,211.80507267578125 35.733959880981445,211.80507267578125 35.733959880981445,211.80507267578125 M59.03739988098145,245.55711267578124 C59.03739988098145,245.55711267578124 57.44904988098145,244.50591267578125 57.44904988098145,244.50591267578125 C57.44904988098145,244.50591267578125 44.257469880981446,257.74188267578126 44.257469880981446,257.74188267578126 C44.86118988098144,258.6441826757813 45.232709880981446,259.19944267578126 45.383629880981445,259.41922267578127 C45.743559880981444,259.9629226757813 44.690689880981445,260.55531267578124 44.25154988098144,261.1119426757813 C44.25154988098144,261.1119426757813 38.636989880981446,255.51621267578125 38.636989880981446,255.51621267578125 C39.249939880981444,255.01720267578125 39.75778988098145,253.99723267578125 40.40705988098144,254.43621267578123 C40.40705988098144,254.43621267578123 41.99540988098145,255.48741267578126 41.99540988098145,255.48741267578126 C41.99540988098145,255.48741267578126 47.84547988098144,249.61764267578124 47.84547988098144,249.61764267578124 C47.84547988098144,249.61764267578124 38.89003988098145,240.69222267578124 38.89003988098145,240.69222267578124 C38.89003988098145,240.69222267578124 33.03995988098144,246.56199267578126 33.03995988098144,246.56199267578126 C33.93391988098145,247.89229267578125 34.25950988098144,248.67924267578127 34.01671988098144,248.92285267578126 C34.01671988098144,248.92285267578126 33.022439880981445,249.92048267578124 33.022439880981445,249.92048267578124 C33.022439880981445,249.92048267578124 27.419479880981445,244.33631267578124 27.419479880981445,244.33631267578124 C28.032429880981447,243.83730267578125 28.540279880981444,242.81733267578124 29.189539880981446,243.25631267578126 C29.189539880981446,243.25631267578126 30.777899880981444,244.30751267578125 30.777899880981444,244.30751267578125 C30.777899880981444,244.30751267578125 43.969479880981446,231.07154267578125 43.969479880981446,231.07154267578125 C43.969479880981446,231.07154267578125 42.854909880981445,229.40576267578126 42.854909880981445,229.40576267578126 C42.49498988098144,228.86207267578123 43.54785988098145,228.26967267578124 43.98699988098144,227.71305267578126 C43.98699988098144,227.71305267578126 49.589959880981446,233.29722267578126 49.589959880981446,233.29722267578126 C49.057969880981446,233.73818267578125 48.457479880981445,234.75831267578124 47.93581988098145,234.44650267578126 C47.93581988098145,234.44650267578126 46.231539880981444,233.32602267578125 46.231539880981444,233.32602267578125 C46.231539880981444,233.32602267578125 40.53175988098145,239.04498267578126 40.53175988098145,239.04498267578126 C40.53175988098145,239.04498267578126 49.487209880981446,247.97040267578126 49.487209880981446,247.97040267578126 C49.487209880981446,247.97040267578126 55.18698988098144,242.25144267578125 55.18698988098144,242.25144267578125 C55.18698988098144,242.25144267578125 54.07241988098144,240.58566267578124 54.07241988098144,240.58566267578124 C53.71249988098145,240.04196267578124 54.765369880981446,239.44957267578124 55.20450988098145,238.89295267578126 C55.20450988098145,238.89295267578126 60.819069880981445,244.48868267578126 60.819069880981445,244.48868267578126 C60.20611988098145,244.98768267578126 59.709829880981445,245.99606267578125 59.03739988098145,245.55711267578124 C59.03739988098145,245.55711267578124 59.03739988098145,245.55711267578124 59.03739988098145,245.55711267578124 M60.26409988098145,243.61472267578125 C60.26409988098145,243.61472267578125 74.89875988098144,251.90572267578125 74.89875988098144,251.90572267578125 C74.89875988098144,251.90572267578125 72.10548988098145,256.83619267578126 72.10548988098145,256.83619267578126 C71.37635988098144,256.3290026757812 70.08536988098145,256.0493726757812 70.42155988098145,255.22336267578126 C70.45574988098144,255.12979267578126 70.79622988098144,254.36268267578126 71.45723988098145,252.93010267578126 C71.45723988098145,252.93010267578126 63.81927988098145,248.60296267578124 63.81927988098145,248.60296267578124 C63.81927988098145,248.60296267578124 59.97651988098144,255.38592267578125 59.97651988098144,255.38592267578125 C59.97651988098144,255.38592267578125 67.50047988098144,259.6484826757812 67.50047988098144,259.6484826757812 C67.50047988098144,259.6484826757812 66.27337988098145,261.81447267578125 66.27337988098145,261.81447267578125 C66.27337988098145,261.81447267578125 58.74941988098144,257.55191267578124 58.74941988098144,257.55191267578124 C58.74941988098144,257.55191267578124 54.80170988098145,264.52012267578124 54.80170988098145,264.52012267578124 C54.80170988098145,264.52012267578124 62.45390988098144,268.85534267578123 62.45390988098144,268.85534267578123 C63.272169880981444,267.64361267578124 63.72284988098144,267.01422267578124 63.78552988098144,266.9368026757812 C64.32739988098145,266.24613267578127 65.21664988098144,267.2016826757812 66.02650988098145,267.56638267578126 C66.02650988098145,267.56638267578126 63.330109880981446,272.3258526757812 63.330109880981446,272.3258526757812 C63.330109880981446,272.3258526757812 48.69544988098144,264.0348526757813 48.69544988098144,264.0348526757813 C49.154199880981444,263.39122267578125 49.373529880981444,262.27311267578125 50.11592988098145,262.52430267578126 C50.11592988098145,262.52430267578126 51.92609988098145,263.11688267578126 51.92609988098145,263.11688267578126 C51.92609988098145,263.11688267578126 61.13742988098144,246.85772267578125 61.13742988098144,246.85772267578125 C60.33037988098145,246.15580267578125 59.84539988098145,245.74927267578124 59.69861988098145,245.60965267578126 C59.08537988098144,245.13046267578125 59.947849880981444,244.33908267578124 60.26409988098145,243.61472267578125 C60.26409988098145,243.61472267578125 60.26409988098145,243.61472267578125 60.26409988098145,243.61472267578125 M106.10574988098145,257.96129267578124 C106.10574988098145,257.96129267578124 113.84833988098144,258.71800267578124 113.84833988098144,258.71800267578124 C113.69036988098145,259.49244267578126 113.93071988098144,260.56911267578124 113.16338988098144,260.67513267578124 C113.16338988098144,260.67513267578124 111.49671988098144,260.89073267578124 111.49671988098144,260.89073267578124 C111.49671988098144,260.89073267578124 102.89376988098145,281.22865267578123 102.89376988098145,281.22865267578123 C102.89376988098145,281.22865267578123 100.05753988098145,280.9514626757813 100.05753988098145,280.9514626757813 C100.05753988098145,280.9514626757813 95.88178988098144,262.5570726757812 95.88178988098144,262.5570726757812 C95.80114988098144,262.20361267578124 95.72527988098145,261.80126267578123 95.67048988098145,261.35159267578126 C95.67048988098145,261.35159267578126 95.24608988098144,262.49494267578126 95.24608988098144,262.49494267578126 C95.24608988098144,262.49494267578126 87.55528988098145,279.72957267578124 87.55528988098145,279.72957267578124 C87.55528988098145,279.72957267578124 84.71905988098145,279.45237267578125 84.71905988098145,279.45237267578125 C84.71905988098145,279.45237267578125 80.23296988098144,257.83522267578127 80.23296988098144,257.83522267578127 C80.23296988098144,257.83522267578127 78.62328988098145,257.29941267578124 78.62328988098145,257.29941267578124 C77.86832988098145,257.1104326757812 78.33525988098144,256.03707267578125 78.33022988098145,255.24669267578125 C78.33022988098145,255.24669267578125 86.25211988098144,256.02093267578124 86.25211988098144,256.02093267578124 C86.09414988098145,256.79537267578127 86.34601988098144,257.92253267578127 85.56715988098145,257.97806267578125 C84.43963988098145,258.06534267578127 83.80429988098145,258.1678026757813 83.67229988098144,258.17135267578124 C83.67229988098144,258.17135267578124 86.58076988098145,273.20008267578123 86.58076988098145,273.20008267578123 C86.67966988098145,273.70342267578127 86.76105988098145,274.38607267578124 86.82491988098144,275.24801267578124 C87.11450988098144,274.30542267578124 87.34282988098144,273.65304267578125 87.50986988098144,273.29088267578123 C87.50986988098144,273.29088267578123 94.58973988098144,257.5927626757813 94.58973988098144,257.5927626757813 C94.75517988098144,257.24690267578126 95.21722988098145,256.8971126757813 95.73882988098144,256.94809267578125 C96.70053988098145,257.04209267578125 97.47142988098145,257.0680626757812 97.65416988098144,257.89226267578124 C97.65416988098144,257.89226267578124 101.52802988098145,274.66092267578125 101.52802988098145,274.66092267578125 C101.66787988098145,275.25055267578125 101.78504988098145,275.90378267578126 101.86005988098144,276.65162267578125 C101.86005988098144,276.65162267578125 102.44083988098144,274.75013267578123 102.44083988098144,274.75013267578123 C102.44083988098144,274.75013267578123 108.22037988098144,260.57052267578126 108.22037988098144,260.57052267578126 C108.09157988098144,260.5414726757813 107.50439988098144,260.31953267578126 106.41510988098145,260.0156026757812 C105.64543988098144,259.80873267578124 106.11077988098144,258.75166267578123 106.10574988098145,257.96129267578124 C106.10574988098145,257.96129267578124 106.10574988098145,257.96129267578124 106.10574988098145,257.96129267578124 M134.40404988098143,258.72937267578124 C136.23513988098145,261.1996126757813 137.28185988098144,265.02234267578126 136.96464988098145,268.08082267578123 C136.49660988098145,272.57303267578123 133.93348988098145,276.29742267578126 128.48373988098143,277.78966267578124 C123.04978988098145,279.2775826757812 118.93819988098144,277.3468826757812 116.25559988098145,273.75134267578125 C114.42451988098145,271.2810926757812 113.37778988098144,267.4583726757812 113.69499988098144,264.39988267578127 C114.16734988098145,259.9234726757812 116.70170988098144,256.15601267578126 122.15145988098145,254.66377267578125 C127.60120988098144,253.17153267578124 131.71712988098145,255.11803267578125 134.40404988098143,258.72937267578124 C134.40404988098143,258.72937267578124 134.40404988098143,258.72937267578124 134.40404988098143,258.72937267578124 M133.79859988098144,267.9289026757813 C133.95710988098145,265.59310267578127 133.09486988098143,262.38211267578123 131.75270988098146,260.4572226757813 C129.83078988098146,257.65525267578124 126.90618988098144,256.21460267578124 122.87810988098144,257.31756267578123 C117.53893988098145,258.77952267578127 115.80945988098145,263.0058326757812 117.29736988098145,268.43979267578123 C118.45222988098145,272.65741267578125 120.93961988098144,274.98191267578125 124.28695988098144,275.4238126757813 C126.43470988098144,275.7017326757813 129.19907988098146,274.94480267578126 130.90563988098143,273.6114926757813 C132.69833988098145,272.2206426757813 133.64440988098144,270.28050267578124 133.79859988098144,267.9289026757813 C133.79859988098144,267.9289026757813 133.79859988098144,267.9289026757813 133.79859988098144,267.9289026757813 M150.31107988098145,248.84456267578125 C152.34510988098145,252.18889267578123 151.21389988098144,255.11968267578123 148.82682988098145,257.52995267578126 C149.28181988098146,257.52160267578125 149.74587988098145,257.62274267578124 150.24152988098143,257.83885267578125 C150.24152988098143,257.83885267578125 158.19332988098145,261.11112267578125 158.19332988098145,261.11112267578125 C158.19332988098145,261.11112267578125 159.95628988098144,260.47977267578125 159.95628988098144,260.47977267578125 C160.65404988098143,260.2087526757812 160.97787988098145,261.27696267578125 161.43685988098144,261.93709267578123 C161.43685988098144,261.93709267578123 158.52631988098145,263.70728267578124 158.52631988098145,263.70728267578124 C158.03655988098146,264.00515267578123 157.57307988098145,263.99951267578126 157.08591988098144,263.7973926757812 C157.08591988098144,263.7973926757812 147.52312988098146,259.79889267578125 147.52312988098146,259.79889267578125 C146.91494988098145,259.55537267578126 146.55244988098144,259.52665267578124 145.78281988098144,259.9947326757813 C145.78281988098144,259.9947326757813 143.99171988098144,261.08408267578125 143.99171988098144,261.08408267578125 C143.99171988098144,261.08408267578125 147.83848988098146,267.40892267578124 147.83848988098146,267.40892267578124 C147.83848988098146,267.40892267578124 149.62943988098144,266.7605626757813 149.62943988098144,266.7605626757813 C150.32720988098146,266.4895326757812 150.65101988098144,267.5577526757813 151.11001988098144,268.2178726757812 C151.11001988098144,268.2178726757812 144.36538988098144,272.31996267578126 144.36538988098144,272.31996267578126 C143.99033988098145,271.60877267578127 143.17677988098146,270.83842267578126 143.73836988098145,270.3435026757812 C143.73836988098145,270.3435026757812 145.13782988098146,269.05146267578124 145.13782988098146,269.05146267578124 C145.13782988098146,269.05146267578124 135.42730988098145,253.08542267578125 135.42730988098145,253.08542267578125 C135.42730988098145,253.08542267578125 133.63634988098144,253.73379267578125 133.63634988098144,253.73379267578125 C132.93858988098145,254.00482267578124 132.62875988098145,252.92809267578124 132.16976988098145,252.26796267578123 C132.16976988098145,252.26796267578123 139.58605988098145,247.75737267578126 139.58605988098145,247.75737267578126 C143.91293988098144,245.16411267578124 147.80047988098144,244.71662267578125 150.31107988098145,248.84456267578125 C150.31107988098145,248.84456267578125 150.31107988098145,248.84456267578125 150.31107988098145,248.84456267578125 M147.78555988098145,250.64896267578126 C146.19407988098143,248.03227267578126 143.72024988098144,248.15667267578124 140.88818988098146,249.89831267578126 C140.88818988098146,249.89831267578126 138.18752988098146,251.54084267578125 138.18752988098146,251.54084267578125 C138.18752988098146,251.54084267578125 142.79172988098145,259.11107267578126 142.79172988098145,259.11107267578126 C142.79172988098145,259.11107267578126 145.36645988098144,257.54513267578125 145.36645988098144,257.54513267578125 C148.20948988098144,255.75848267578124 149.47063988098145,253.41958267578124 147.78555988098145,250.64896267578126 C147.78555988098145,250.64896267578126 147.78555988098145,250.64896267578126 147.78555988098145,250.64896267578126 M173.12252988098143,243.66383267578124 C173.12252988098143,243.66383267578124 176.73576988098145,247.27707267578126 176.73576988098145,247.27707267578126 C176.73576988098145,247.27707267578126 165.10854988098146,258.90428267578125 165.10854988098146,258.90428267578125 C164.57581988098144,258.30207267578123 163.60302988098144,257.74619267578123 164.03152988098145,257.13240267578124 C164.03152988098145,257.13240267578124 165.08538988098144,255.54582267578127 165.08538988098144,255.54582267578127 C165.08538988098144,255.54582267578127 151.87159988098145,242.33203267578125 151.87159988098145,242.33203267578125 C151.87159988098145,242.33203267578125 150.28500988098145,243.38589267578124 150.28500988098145,243.38589267578124 C149.67121988098145,243.81438267578125 149.11533988098145,242.84158267578124 148.51313988098144,242.30887267578126 C148.51313988098144,242.30887267578126 154.09512988098143,236.72688267578124 154.09512988098143,236.72688267578124 C154.62783988098144,237.32908267578125 155.60062988098144,237.88497267578126 155.17214988098144,238.49875267578125 C155.17214988098144,238.49875267578125 154.11828988098145,240.08534267578125 154.11828988098145,240.08534267578125 C154.11828988098145,240.08534267578125 167.13520988098145,253.10225267578124 167.13520988098145,253.10225267578124 C167.13520988098145,253.10225267578124 173.12252988098143,247.11493267578123 173.12252988098143,247.11493267578123 C172.52030988098144,246.39692267578124 171.98759988098143,245.77155267578127 171.91810988098143,245.65574267578126 C171.43171988098143,244.96089267578125 172.54346988098143,244.33552267578125 173.12252988098143,243.66383267578124 C173.12252988098143,243.66383267578124 173.12252988098143,243.66383267578124 173.12252988098143,243.66383267578124 M165.50217988098146,222.24743267578125 C168.83575988098144,216.24811267578124 175.54519988098144,214.62018267578125 181.45440988098144,218.10974267578126 C184.64298988098145,219.98971267578125 186.51624988098143,222.50944267578126 187.21688988098146,225.12723267578124 C188.00954988098144,228.04407267578125 187.55273988098145,230.99563267578125 185.82401988098144,233.98789267578124 C185.82401988098144,233.98789267578124 180.40849988098145,243.36175267578125 180.40849988098145,243.36175267578125 C179.76875988098143,242.89758267578125 178.65253988098144,242.66884267578126 178.90998988098144,241.92857267578125 C178.90998988098144,241.92857267578125 179.51780988098145,240.12347267578124 179.51780988098145,240.12347267578124 C179.51780988098145,240.12347267578124 163.33691988098144,230.77534267578125 163.33691988098144,230.77534267578125 C162.62820988098144,231.57644267578127 162.21760988098146,232.05798267578126 162.07674988098145,232.20357267578126 C161.59241988098145,232.81275267578124 160.80833988098144,231.94364267578123 160.08665988098144,231.62128267578126 C160.08665988098144,231.62128267578126 165.50217988098146,222.24743267578125 165.50217988098146,222.24743267578125 C165.50217988098146,222.24743267578125 165.50217988098146,222.24743267578125 165.50217988098146,222.24743267578125 M183.59754988098143,232.70160267578126 C186.23347988098143,228.17177267578126 184.53440988098146,223.61532267578124 179.82400988098144,220.93182267578126 C174.97778988098145,218.18878267578125 170.40333988098143,218.96954267578124 167.72864988098144,223.53372267578123 C167.72864988098144,223.53372267578123 165.09052988098145,228.10010267578124 165.09052988098145,228.10010267578124 C165.09052988098145,228.10010267578124 180.95942988098145,237.26799267578124 180.95942988098145,237.26799267578124 C180.95942988098145,237.26799267578124 183.59754988098143,232.70160267578126 183.59754988098143,232.70160267578126 C183.59754988098143,232.70160267578126 183.59754988098143,232.70160267578126 183.59754988098143,232.70160267578126 " style="pointer-events:inherit"/><rect id="svg_28" x="18.057421875186265" y="211.8046875" width="169.53515625" height="69.42578125" fill="#000000" opacity="0" style="pointer-events:inherit"/></g><g type="text" text="DANCE" font-size="41.2064449767331" font-family="Aleo" fill="2ddcff" text-anchor="middle" font-weight="normal" font-style="normal" lineHeight="1" shapeId="9" shapeVal="90" fill-opacity="1" display="null" elemBBoxWidth="145.75115966796875" stroke="null" stroke-dasharray="none" id="svg_10" style="pointer-events:inherit"><path id="svg_31" fill="#ffffff" stroke-width="0" d="M41.0096805279541,129.05553724121094 C47.9353805279541,123.89996724121093 56.4714205279541,125.50335724121094 61.4429605279541,132.56133724121094 C64.12713052795411,136.36636724121092 64.97205052795411,140.22474724121093 64.4215605279541,143.58907724121093 C63.8219205279541,147.34394724121094 61.7714705279541,150.49237724121093 58.2414305279541,153.02963724121093 C58.2414305279541,153.02963724121093 47.182900527954104,160.97813724121093 47.182900527954104,160.97813724121093 C46.689350527954105,160.11496724121093 45.527640527954105,159.27533724121093 46.2057305279541,158.55959724121095 C46.2057305279541,158.55959724121095 47.8363705279541,156.80395724121092 47.8363705279541,156.80395724121092 C47.8363705279541,156.80395724121092 34.1159005279541,137.71500724121094 34.1159005279541,137.71500724121094 C32.8888605279541,138.26711724121094 32.1689405279541,138.60695724121092 31.9321105279541,138.70106724121092 C31.0616205279541,139.14912724121095 30.611990527954102,137.74693724121093 29.951140527954102,137.00402724121093 C29.951140527954102,137.00402724121093 41.0096805279541,129.05553724121094 41.0096805279541,129.05553724121094 C41.0096805279541,129.05553724121094 41.0096805279541,129.05553724121094 41.0096805279541,129.05553724121094 M56.3535205279541,150.40302724121094 C61.7191405279541,146.57177724121095 62.1274005279541,140.46788724121095 58.113690527954105,134.95429724121095 C53.9750105279541,129.30216724121095 48.3254405279541,127.83154724121093 42.8975905279541,131.68214724121094 C42.8975905279541,131.68214724121094 37.5105305279541,135.55417724121094 37.5105305279541,135.55417724121094 C37.5105305279541,135.55417724121094 50.9664505279541,154.27506724121093 50.9664505279541,154.27506724121093 C50.9664505279541,154.27506724121093 56.3535205279541,150.40302724121094 56.3535205279541,150.40302724121094 C56.3535205279541,150.40302724121094 56.3535205279541,150.40302724121094 56.3535205279541,150.40302724121094 M94.7644005279541,135.06260724121094 C95.6352505279541,134.95668724121094 95.5807705279541,136.30427724121094 95.9297005279541,137.12510724121094 C95.9297005279541,137.12510724121094 87.80616052795409,139.51549724121094 87.80616052795409,139.51549724121094 C87.62932052795409,138.62255724121093 86.92227052795411,137.60643724121093 87.6826105279541,137.12498724121093 C87.6826105279541,137.12498724121093 89.1696005279541,136.19346724121095 89.1696005279541,136.19346724121095 C89.1696005279541,136.19346724121095 85.27505052795411,131.13269724121093 85.27505052795411,131.13269724121093 C85.27505052795411,131.13269724121093 73.0601105279541,134.72700724121094 73.0601105279541,134.72700724121094 C73.0601105279541,134.72700724121094 72.5272305279541,141.09057724121095 72.5272305279541,141.09057724121095 C72.5272305279541,141.09057724121095 74.2817505279541,141.06825724121094 74.2817505279541,141.06825724121094 C75.1781905279541,140.97628724121094 75.1178905279541,142.30410724121094 75.4726305279541,143.14470724121094 C75.4726305279541,143.14470724121094 67.3490905279541,145.53509724121093 67.3490905279541,145.53509724121093 C67.1780605279541,144.66192724121095 66.49077052795411,143.63998724121095 67.2116005279541,143.17016724121095 C67.2116005279541,143.17016724121095 68.6532305279541,142.23051724121095 68.6532305279541,142.23051724121095 C68.6532305279541,142.23051724121095 71.3680105279541,113.57641724121093 71.3680105279541,113.57641724121093 C71.3680105279541,113.57641724121093 75.2617705279541,112.43065724121094 75.2617705279541,112.43065724121094 C75.2617705279541,112.43065724121094 93.04359052795411,135.05352724121093 93.04359052795411,135.05352724121093 C93.04359052795411,135.05352724121093 94.7644005279541,135.06260724121094 94.7644005279541,135.06260724121094 M73.3131805279541,131.64579724121094 C73.3131805279541,131.64579724121094 83.3934805279541,128.67962724121094 83.3934805279541,128.67962724121094 C83.3934805279541,128.67962724121094 76.0044205279541,119.04171724121093 76.0044205279541,119.04171724121093 C75.49856052795411,118.41740724121094 74.9601305279541,117.60939724121094 74.36935052795411,116.62349724121094 C74.3839905279541,122.07425724121094 73.63460052795409,126.46124724121094 73.3131805279541,131.64579724121094 C73.3131805279541,131.64579724121094 73.3131805279541,131.64579724121094 73.3131805279541,131.64579724121094 M117.0437905279541,132.36539724121093 C117.0245405279541,131.76502724121093 117.0302205279541,131.10445724121092 117.0843105279541,130.34406724121095 C117.0843105279541,130.34406724121095 118.3548205279541,112.48499724121093 118.3548205279541,112.48499724121093 C116.7708205279541,112.10379724121094 115.8782705279541,111.87505724121094 115.6551205279541,111.81786724121093 C114.6994505279541,111.60529724121093 115.2509905279541,110.23997724121094 115.2184205279541,109.24620724121094 C115.2184205279541,109.24620724121094 125.0419205279541,109.94505724121093 125.0419205279541,109.94505724121093 C124.8690005279541,110.92420724121094 125.2260905279541,112.29219724121094 124.2250105279541,112.42753724121094 C124.2250105279541,112.42753724121094 121.8485405279541,112.73354724121094 121.8485405279541,112.73354724121094 C121.8485405279541,112.73354724121094 119.9669105279541,139.18304724121094 119.9669105279541,139.18304724121094 C118.5327005279541,139.01904724121093 117.2380505279541,139.21612724121093 116.5860205279541,138.21959724121092 C116.5860205279541,138.21959724121092 101.1265305279541,114.83273724121094 101.1265305279541,114.83273724121094 C101.1384705279541,115.53586724121094 101.11370052795411,116.17441724121093 101.0727605279541,116.74985724121093 C101.0727605279541,116.74985724121093 99.7934905279541,134.73222724121092 99.7934905279541,134.73222724121092 C101.3980305279541,135.11489724121094 102.2906005279541,135.34363724121093 102.4931905279541,135.39935724121094 C103.4488605279541,135.61192724121094 102.89732052795411,136.97725724121094 102.9298905279541,137.97102724121095 C102.9298905279541,137.97102724121095 93.1269405279541,137.27363724121093 93.1269405279541,137.27363724121093 C93.2998705279541,136.29448724121093 92.9442305279541,134.90593724121095 93.9233005279541,134.78969724121094 C93.9233005279541,134.78969724121094 96.2997705279541,134.48368724121093 96.2997705279541,134.48368724121093 C96.2997705279541,134.48368724121093 97.9679405279541,111.03466724121094 97.9679405279541,111.03466724121094 C96.6716705279541,110.67393724121094 95.9009505279541,110.47451724121093 95.6587305279541,110.39531724121093 C94.7030505279541,110.18274724121093 95.25459052795411,108.81742724121094 95.2220205279541,107.82364724121094 C95.2220205279541,107.82364724121094 100.2365305279541,108.18038724121094 100.2365305279541,108.18038724121094 C101.0776705279541,108.26087724121093 101.1922105279541,108.39295724121094 101.5652205279541,108.95653724121094 C101.5652205279541,108.95653724121094 117.0437905279541,132.36539724121093 117.0437905279541,132.36539724121093 M125.5103105279541,125.25425724121094 C128.8699205279541,117.10113724121094 137.0068905279541,113.52381724121093 145.17005052795412,117.02127724121094 C147.3069205279541,117.94638724121094 149.8750405279541,119.71769724121094 152.80040052795408,122.46072724121093 C152.80040052795408,122.46072724121093 150.1786405279541,128.82319724121095 150.1786405279541,128.82319724121095 C149.1892305279541,128.30407724121093 147.5452405279541,128.18374724121094 147.8167205279541,127.09228724121094 C147.7831205279541,127.01158724121095 148.9203605279541,123.60280724121094 148.9327005279541,123.51875724121093 C143.9826705279541,119.36205724121093 139.4375305279541,118.22452724121094 135.30515052795408,120.08713724121094 C132.6488605279541,121.28780724121094 130.6400505279541,123.51293724121093 129.28208052795412,126.80846724121093 C126.7780605279541,132.88520724121094 128.4664405279541,139.06275724121093 134.3145805279541,141.47257724121093 C137.97205052795408,142.97969724121094 139.7125305279541,142.64954724121094 142.3070805279541,141.86910724121094 C142.8405605279541,141.71011724121092 143.3179405279541,141.79540724121094 143.50384052795408,142.31768724121093 C143.50384052795408,142.31768724121093 144.30007052795412,144.49534724121094 144.30007052795412,144.49534724121094 C140.8076205279541,146.26510724121093 136.96597052795408,146.28652724121093 132.7751105279541,144.55962724121093 C124.9267905279541,141.32559724121094 122.21349052795411,133.25497724121095 125.5103105279541,125.25425724121094 C125.5103105279541,125.25425724121094 125.5103105279541,125.25425724121094 125.5103105279541,125.25425724121094 M158.9938705279541,124.01853724121094 C158.9938705279541,124.01853724121094 175.7011505279541,137.00281724121095 175.7011505279541,137.00281724121095 C175.7011505279541,137.00281724121095 171.3267005279541,142.63155724121094 171.3267005279541,142.63155724121094 C170.5114405279541,141.86749724121094 168.9553805279541,141.28442724121095 169.5242105279541,140.31745724121095 C169.5838105279541,140.20720724121094 170.1472605279541,139.31431724121094 171.2308305279541,137.65144724121095 C171.2308305279541,137.65144724121095 162.5111505279541,130.87483724121094 162.5111505279541,130.87483724121094 C162.5111505279541,130.87483724121094 156.49313052795412,138.61842724121095 156.49313052795412,138.61842724121095 C156.49313052795412,138.61842724121095 165.08265052795412,145.29388724121094 165.08265052795412,145.29388724121094 C165.08265052795412,145.29388724121094 163.1609305279541,147.76662724121093 163.1609305279541,147.76662724121093 C163.1609305279541,147.76662724121093 154.5714005279541,141.09116724121094 154.5714005279541,141.09116724121094 C154.5714005279541,141.09116724121094 148.3890205279541,149.04624724121095 148.3890205279541,149.04624724121095 C148.3890205279541,149.04624724121095 157.1249605279541,155.83549724121093 157.1249605279541,155.83549724121093 C158.3640505279541,154.47613724121095 159.0396205279541,153.77474724121095 159.1317405279541,153.68978724121092 C159.93195052795411,152.92872724121094 160.8648905279541,154.28001724121094 161.8065905279541,154.88139724121095 C161.8065905279541,154.88139724121095 157.5838405279541,160.31492724121094 157.5838405279541,160.31492724121094 C157.5838405279541,160.31492724121094 140.8765705279541,147.33064724121095 140.8765705279541,147.33064724121095 C141.5647705279541,146.61299724121093 142.0413005279541,145.26115724121092 142.91969052795412,145.70896724121093 C142.91969052795412,145.70896724121093 145.0650305279541,146.77609724121095 145.0650305279541,146.77609724121095 C145.0650305279541,146.77609724121095 159.4906105279541,128.21425724121093 159.4906105279541,128.21425724121093 C158.61381052795412,127.19361724121094 158.0841205279541,126.59930724121094 157.9268305279541,126.39879724121093 C157.2507305279541,125.69069724121094 158.4683505279541,124.86261724121093 158.9938705279541,124.01853724121094 C158.9938705279541,124.01853724121094 158.9938705279541,124.01853724121094 158.9938705279541,124.01853724121094 " style="pointer-events:inherit"/><rect id="svg_32" x="29.950000000186265" y="107.82421875" width="145.75" height="53.15234375" fill="#000000" opacity="0" style="pointer-events:inherit"/></g><g id="svg_36" fill-opacity="1" stroke-opacity="1" display="null" style="pointer-events:inherit" clip-id="616"><path fill="#2ddcff" stroke="#000000" stroke-width="1" d="M102.6058,155.21769C79.01999,155.33859 59.99788,174.55671 60.11877,198.14276C60.23987,221.72833 79.458,240.75047 103.04382,240.62957C126.62962,240.50845 145.65175,221.29033 145.53064,197.70451C145.41063,174.28953 126.45879,155.33772 103.04382,155.21769L102.6058,155.21769zM102.82481,155.21769L102.82481,240.63066M145.5313,197.92419L60.11832,197.92419M69.75466,171.64326C89.54178,185.75982 116.10762,185.75982 135.89494,171.64326M135.89494,224.20509C116.10762,210.08853 89.54178,210.08853 69.75466,224.20509M99.53969,156.31274C76.43746,175.82325 73.52554,210.36775 93.03605,233.4702C95.01784,235.81643 97.19324,237.99185 99.53969,239.97366M106.10992,239.97366C129.21216,220.46312 132.12387,185.91862 112.61336,162.8164C110.63177,160.46994 108.45636,158.29432 106.10992,156.31274" id="svg_37" style="pointer-events:inherit"/></g><g id="svg_41" display="null" fill-opacity="1" style="pointer-events:inherit" clip-id="61"><g id="svg_42" transform="matrix(-1.01321, 0, 0, 1.01321, 243.741, -49.7108)" style="pointer-events:inherit"><path fill-rule="evenodd" clip-rule="evenodd" d="M154.71272,263.46744C154.28672,263.09946 153.85672,262.73645 153.43373,262.37046C152.03871,260.95746 150.9867,259.62046 149.04371,258.71445C147.10572,257.81147 144.91572,257.53745 143.13472,256.52246C140.75871,255.16745 138.86372,253.28943 136.61473,251.88944C135.54472,251.22644 134.43171,250.79044 133.32472,250.12445C132.53572,249.64844 131.61972,248.95444 131.06872,248.23346C130.40571,247.36145 129.77572,245.98044 128.63172,245.61743C126.63671,244.97745 124.37571,245.96546 122.66271,246.34644C120.99671,246.42945 119.33372,246.50846 117.66972,246.59143L117.29872,246.59143C117.51771,244.61743 118.46072,242.91745 118.94372,241.16844C119.18971,239.94844 119.43171,238.72945 119.67771,237.51044C119.90472,236.90245 120.29072,236.18645 120.46672,235.44245C120.54972,234.81044 120.63172,234.18145 120.71171,233.55146C121.01771,233.02445 121.32272,232.49344 121.62571,231.96945C122.47972,230.25644 123.33772,228.60944 124.18472,227.03446C125.48271,224.61844 126.26771,221.97644 127.41671,219.35144C127.87872,218.44045 128.34872,217.52645 128.81571,216.61545C128.91572,215.78044 129.01672,214.94745 129.11872,214.11644C129.86271,210.94745 130.53672,206.74546 130.21571,202.96544C130.25471,201.98845 130.29672,201.01544 130.33572,200.04045C130.03572,198.50244 128.83172,197.79845 128.14572,196.69045C127.37472,195.45244 127.87571,194.48645 127.95971,193.40045C127.89971,193.36145 127.84272,193.31945 127.77972,193.27745L127.59571,193.27745C126.96672,193.83945 126.40272,194.49245 125.52572,194.79944C125.68272,194.57946 125.89071,194.33945 125.76872,194.00844C125.65072,193.82544 125.75772,193.90845 125.52572,193.82544C121.66172,196.19045 127.12971,199.20145 127.71871,201.19644C128.00071,202.15944 127.13671,205.97644 126.86471,207.05045C126.25672,209.13945 125.64472,211.23145 125.03971,213.32245C124.83572,214.48145 124.63272,215.63745 124.42572,216.79744C123.89872,217.91545 122.93272,218.99344 122.35572,220.20745C121.87071,221.50545 121.38172,222.80844 120.89372,224.10845C120.28572,224.57344 119.67671,225.04045 119.06872,225.50745C118.00372,226.46546 116.76071,227.99045 116.08172,229.28545C114.37972,229.01445 113.19671,227.82544 112.73172,226.23545L112.73172,226.05545C112.98472,226.14945 112.88072,226.04145 112.97172,226.29746C113.18272,226.21144 113.21971,226.23444 113.33972,226.05545C113.72372,226.19144 113.95571,226.43145 114.00772,226.90946C114.12571,226.75545 114.14071,226.69745 114.06771,226.48044C114.23271,226.56446 114.39672,226.64244 114.55572,226.72345C114.73872,226.34445 114.93672,226.37845 114.98371,225.87145C115.21072,225.97145 115.12771,225.89444 115.22671,226.11145C115.41471,225.70444 115.42472,224.42044 115.28672,223.86145L115.53172,223.86145C115.50572,223.28444 115.89172,222.54245 115.71472,221.85045C115.72271,221.45545 115.70971,221.54744 115.95471,221.54445C116.05671,221.12645 116.04872,221.30745 116.01771,220.81545C116.11972,220.83444 116.22172,220.85445 116.32371,220.87645C116.47772,219.85245 117.03372,218.53345 116.56671,217.22045C115.18572,213.32045 107.94972,212.84944 104.80871,215.39345C104.89472,215.61244 104.93171,215.75846 104.87171,216.00145C104.99172,216.04045 105.11471,216.08245 105.23771,216.12345C104.24771,218.56044 103.52772,220.97745 103.46971,223.61444L103.58972,223.61444C103.67272,223.34845 103.68372,223.17345 103.95771,223.06645C104.06472,223.28345 103.92072,223.13945 104.14071,223.25244C104.08071,223.51645 104.01772,223.77945 103.95771,224.04344C104.26571,223.96544 104.22172,223.93946 104.38272,223.73744C105.16671,224.72644 105.61471,226.44745 106.33372,227.63544C105.90571,227.88045 105.47972,228.12345 105.05471,228.36844C103.79371,227.31044 102.53272,226.25644 101.27671,225.19844C100.74671,224.89244 100.21871,224.59046 99.69171,224.28446C98.41271,222.55844 97.13272,220.83345 95.85372,219.10645C95.04171,218.37345 94.22972,217.64444 93.41772,216.91346C93.35472,215.87744 93.29472,214.84044 93.23172,213.80745C92.80371,211.31945 92.45372,208.35845 92.86572,205.64545C92.88671,204.97145 92.90772,204.30045 92.92572,203.63144C93.69872,201.08545 98.56072,202.61045 98.47471,197.77945C98.28871,197.76046 98.10672,197.74045 97.92372,197.71945C97.64172,198.19445 97.47471,199.18445 97.31571,199.73246C97.01271,199.85544 96.70771,199.97545 96.40171,200.09545L96.34172,200.09545L96.27871,199.97545C96.57372,199.60445 97.09272,199.05045 97.25572,198.63546L97.25572,198.45545C97.09072,198.17945 96.86372,198.13245 96.40171,198.15245C96.27671,197.49445 95.95771,197.17545 95.73072,196.69045C95.57372,196.61244 95.51972,196.58345 95.24272,196.56745C95.18272,196.66945 95.11972,196.77144 95.05972,196.87345C95.29972,197.48944 95.59971,197.95745 95.61071,198.76145C95.57372,198.78244 95.53172,198.80345 95.48972,198.82344C95.28372,198.13245 95.07971,197.44245 94.88172,196.75045C94.73771,196.73246 94.59771,196.71144 94.45372,196.69045C94.25271,197.12145 94.41972,197.94145 94.57672,198.45545L94.57672,199.24945C94.32572,199.09545 94.42771,198.80045 94.33372,198.52045C94.31272,198.45545 94.29171,198.39745 94.27072,198.33745C94.16871,198.35645 94.06671,198.37645 93.96472,198.39745C93.90472,198.41645 93.84471,198.43744 93.78172,198.45545C93.74272,198.76145 93.70072,199.06945 93.66172,199.37245C93.00071,200.44245 90.83872,200.60445 90.49172,201.93145C89.63072,205.21344 89.03272,208.94545 89.03272,212.83545L89.03272,217.16144C89.43772,217.69145 89.84471,218.21645 90.24972,218.74645C91.71172,221.02845 92.86572,223.47045 94.51371,225.56945C95.28472,226.46245 96.05972,227.35746 96.82971,228.25145L97.86372,230.32144C98.40472,231.12845 99.12271,231.70845 99.51171,232.69745C99.89772,234.08145 100.28172,235.46245 100.66772,236.84145C101.37771,238.59645 102.46971,240.35346 102.86071,242.44544C103.25572,244.52945 102.39672,245.66846 101.76371,247.13745C101.64372,247.58344 101.52072,248.03046 101.39872,248.47745C100.94671,249.12244 100.20571,249.54044 99.81571,250.30744C98.58872,252.72046 98.34872,257.50043 99.81571,259.81147C100.37472,260.69745 101.34872,260.90644 102.00672,261.63944C102.12972,261.96546 102.25172,262.28644 102.37171,262.61347C102.64572,263.07346 103.23571,263.56644 103.59172,264.01544C105.07472,265.88745 107.26272,266.83246 109.19772,268.27945C110.81372,269.48847 111.86071,271.40546 113.52172,272.60645C114.82171,273.54444 116.78272,274.06046 117.79072,275.28846L117.72772,275.41046C115.52372,275.60346 113.26071,275.80744 111.81872,276.81046C110.81571,277.50745 110.27772,278.54044 109.37972,279.30844C107.74272,280.70545 105.60871,281.96445 103.53072,282.78244C102.97972,282.99646 101.98271,283.35645 101.51972,283.33045C100.16471,283.25745 99.15171,281.64145 97.74172,282.71945C96.27172,283.84745 97.01271,286.10443 96.03672,287.04846C94.94772,288.09644 93.81172,287.73743 92.68672,288.44846C92.28272,288.70145 92.18272,289.28943 91.83271,289.54544C91.10672,290.06946 90.50071,289.66245 90.30772,290.76245C90.45172,290.88745 90.59471,291.00745 90.73571,291.13043C91.27072,291.08045 91.42971,290.80646 91.76972,290.70145L93.71971,290.70145C95.42472,290.37744 97.13272,290.05146 98.83772,289.72745C99.24472,289.46344 99.64971,289.20044 100.05772,288.93647C102.06771,288.06147 104.08071,287.18946 106.08872,286.31446C109.20372,285.35944 112.89071,285.16046 116.08172,284.18146C117.21772,283.71344 118.35572,283.24845 119.49472,282.78244C121.83172,281.78745 126.40672,282.10047 126.98872,279.43146C127.54571,276.87744 125.93171,274.75745 125.16172,273.33747C123.66772,270.59046 122.56872,267.71546 120.65171,265.41745C118.69871,263.07245 115.08772,261.18946 115.28871,257.49546C117.10871,256.56244 118.88671,255.49546 120.89472,254.69345C122.64172,254.14444 124.38772,253.59644 126.13472,253.04746C126.85871,253.18344 127.21571,254.17044 127.65971,254.63245C128.84771,255.87546 130.23872,257.26544 131.73771,258.16544C132.64372,258.70844 133.74072,259.22644 134.91072,259.44446C135.61772,259.48645 136.32771,259.52545 137.04072,259.56745C138.52372,259.97144 140.00772,260.37946 141.48771,260.78446C142.59172,261.11045 144.27072,261.16046 144.83772,262.00644C145.30271,262.69345 145.30271,264.25745 145.57173,264.98847C147.63871,266.41645 148.68571,264.50846 150.14073,264.44245C150.40971,264.70343 151.92572,265.81845 152.20771,265.96445L152.94172,265.90143C153.37471,266.02945 153.24171,266.42844 153.54872,266.63544C153.98973,266.92743 154.87773,267.08646 155.37971,267.06046C155.43971,267.00043 155.49971,266.93845 155.56272,266.87744C155.57872,266.60746 154.87971,263.72345 154.71272,263.46744zM125.28471,195.95944L125.16271,195.95944L125.16271,195.59445C125.20172,195.65445 125.24372,195.71744 125.28471,195.77745L125.28471,195.95944zM125.89372,195.10544C125.97471,195.12645 126.05572,195.14444 126.13671,195.16545C125.95672,195.20745 126.02871,195.23345 125.89372,195.10544zM104.75172,221.18245L104.75172,220.93946L104.81172,220.93946C104.83271,221.00244 104.85372,221.06244 104.87472,221.12245C104.83271,221.14345 104.79072,221.16445 104.75172,221.18245zM99.02372,253.84046L99.14672,253.84046L99.14672,254.57044L98.96372,254.57044C98.98371,254.32843 99.00472,254.08246 99.02372,253.84046zM99.14572,256.15345L99.14572,256.46146L99.08572,256.46146C99.04371,256.29944 99.00472,256.13544 98.96272,255.97644C99.08572,256.05744 99.06272,256.04145 99.14572,256.15345zM99.26872,257.49546L99.20571,257.49546C99.16671,257.39344 99.12472,257.29145 99.08572,257.19245L99.26872,257.19245L99.26872,257.49546zM99.20571,253.77945C98.92072,253.59946 99.18272,252.89646 99.26872,252.50046C99.45971,252.72245 99.24272,253.32843 99.20571,253.77945zM99.45172,258.65445C99.43072,258.59445 99.40972,258.53144 99.38871,258.47144C99.45172,258.51044 99.51171,258.55243 99.57171,258.59445C99.52972,258.61243 99.49272,258.63446 99.45172,258.65445zM99.75672,259.32245C99.87672,259.43244 99.79872,259.32245 99.87672,259.50846C99.83572,259.44544 99.79572,259.38645 99.75672,259.32245zM99.45172,252.43744L99.26872,252.43744C99.56072,251.69846 99.84371,251.08246 100.23972,250.48944C100.23471,250.98346 99.58171,251.70145 99.45172,252.43744z" id="svg_43" fill="#ffffff" style="pointer-events:inherit"/></g></g><g id="svg_52" display="null" fill-opacity="1" style="pointer-events:inherit"><g id="svg_53" transform="matrix(0.804077, 0, 0, 0.482244, -9.7789, 11.9368)" style="pointer-events:inherit"><path d="M150.247,361.48566L150.247,396.95764C150.208,398.92465 149.53201,400.55365 148.22399,401.84464C146.911,403.15564 145.27599,403.83963 143.30801,403.89764L59.66999,403.89764C57.70398,403.83963 56.06598,403.15564 54.75499,401.84464C53.46299,400.55365 52.78899,398.92465 52.73099,396.95764L52.73099,361.48566C52.78899,359.51965 53.46299,357.88165 54.75499,356.57065C56.06598,355.27866 57.70398,354.60464 59.66999,354.54666L143.307,354.54666C145.27401,354.60464 146.911,355.27866 148.22302,356.57065C149.53201,357.88165 150.208,359.51965 150.247,361.48566" id="svg_54" fill="#2ddcff" style="pointer-events:inherit"/></g></g><g id="svg_44" type="text" text="around" font-size="23.612840583618375" font-family="Aleo" fill="000000" text-anchor="start" font-weight="normal" font-style="normal" lineHeight="1" shapeId="0" shapeVal="0" fill-opacity="1" display="null" elemBBoxWidth="76.11328125" stroke="null" stroke-dasharray="none" style="pointer-events:inherit"><path id="svg_47" fill="#000000" stroke-width="0" d="M39.3745489440918,191.1344642626953 C42.137248944091795,191.1344642626953 43.5422089440918,192.88181426269531 43.5422089440918,195.6563242626953 C43.5422089440918,195.6563242626953 43.5422089440918,201.61857426269532 43.5422089440918,201.61857426269532 C44.073498944091796,201.8074742626953 45.065238944091796,201.6539942626953 45.065238944091796,202.2915342626953 C45.065238944091796,202.2915342626953 45.065238944091796,203.30688426269532 45.065238944091796,203.30688426269532 C45.065238944091796,203.30688426269532 42.6094989440918,203.30688426269532 42.6094989440918,203.30688426269532 C42.1726689440918,203.2950842626953 41.948338944091795,203.2006342626953 41.8656989440918,202.8110242626953 C41.8656989440918,202.8110242626953 41.629568944091794,201.70121426269532 41.629568944091794,201.70121426269532 C40.555188944091796,202.66934426269532 39.480798944091795,203.5312142626953 37.4618989440918,203.4957942626953 C35.395778944091795,203.46037426269532 34.120688944091796,202.40960426269532 34.120688944091796,200.30805426269532 C34.120688944091796,198.14748426269531 35.9979089440918,197.4390942626953 38.0404189440918,196.9432242626953 C38.9731289440918,196.7189042626953 40.1183489440918,196.6126442626953 41.4760889440918,196.6126442626953 C41.605958944091796,194.4402642626953 41.12188894409179,192.8345942626953 39.114798944091795,192.8345942626953 C37.7806789440918,192.8345942626953 36.97783894409179,193.3776842626953 36.245838944091794,193.90897426269532 C35.820808944091795,194.2159442626953 35.277718944091795,194.07426426269532 35.077008944091794,193.7082642626953 C35.077008944091794,193.7082642626953 34.6991989440918,193.03530426269532 34.6991989440918,193.03530426269532 C35.8916489440918,191.89008426269532 37.2493889440918,191.1344642626953 39.3745489440918,191.1344642626953 C39.3745489440918,191.1344642626953 39.3745489440918,191.1344642626953 39.3745489440918,191.1344642626953 M38.0876489440918,202.01998426269532 C39.740538944091796,202.01998426269532 40.637828944091794,201.27618426269532 41.4760889440918,200.4143142626953 C41.4760889440918,200.4143142626953 41.4760889440918,197.9467742626953 41.4760889440918,197.9467742626953 C39.787768944091795,197.9349642626953 38.4064189440918,198.13567426269532 37.3556489440918,198.60793426269532 C36.647258944091796,198.92670426269532 36.1395889440918,199.3635442626953 36.1395889440918,200.2136042626953 C36.1395889440918,201.42966426269533 36.871578944091794,202.01998426269532 38.0876489440918,202.01998426269532 C38.0876489440918,202.01998426269532 38.0876489440918,202.01998426269532 38.0876489440918,202.01998426269532 M54.876368944091794,193.44852426269532 C54.415928944091796,193.42491426269532 54.0026989440918,193.2242042626953 53.35334894409179,193.2242042626953 C51.983798944091795,193.2242042626953 50.95663894409179,194.0506542626953 50.2836789440918,195.71536426269532 C50.2836789440918,195.71536426269532 50.2836789440918,201.60676426269532 50.2836789440918,201.60676426269532 C50.2836789440918,201.60676426269532 51.6296089440918,201.8783142626953 51.6296089440918,201.8783142626953 C52.184508944091796,201.9609542626953 51.924768944091795,202.7637942626953 51.983798944091795,203.3305042626953 C51.983798944091795,203.3305042626953 46.482008944091795,203.3305042626953 46.482008944091795,203.3305042626953 C46.541038944091795,202.7637942626953 46.281298944091795,201.9845742626953 46.8361989440918,201.8783142626953 C46.8361989440918,201.8783142626953 48.1821289440918,201.60676426269532 48.1821289440918,201.60676426269532 C48.1821289440918,201.60676426269532 48.1821289440918,193.09433426269533 48.1821289440918,193.09433426269533 C47.4265189440918,192.94085426269532 46.9778789440918,192.85820426269532 46.8361989440918,192.8227842626953 C46.281298944091795,192.7401442626953 46.541038944091795,191.9373042626953 46.482008944091795,191.3705942626953 C46.482008944091795,191.3705942626953 49.3863889440918,191.3705942626953 49.3863889440918,191.3705942626953 C49.8704489440918,191.3705942626953 50.000318944091795,191.5240842626953 50.0357389440918,191.9491142626953 C50.0357389440918,191.9491142626953 50.1774189440918,193.8145242626953 50.1774189440918,193.8145242626953 C51.0510989440918,192.04356426269533 52.2671589440918,191.15808426269533 53.8137989440918,191.15808426269533 C54.4277289440918,191.15808426269533 54.97082894409179,191.2997542626953 55.45488894409179,191.58311426269532 C55.45488894409179,191.58311426269532 55.1833389440918,193.1533642626953 55.1833389440918,193.1533642626953 C55.124308944091794,193.35407426269532 55.0298589440918,193.44852426269532 54.876368944091794,193.44852426269532 C54.876368944091794,193.44852426269532 54.876368944091794,193.44852426269532 54.876368944091794,193.44852426269532 M59.7642289440918,191.6185342626953 C61.1337789440918,191.0400142626953 63.14086894409179,191.0400142626953 64.4986089440918,191.6185342626953 C66.58834894409179,192.4922042626953 67.8162089440918,194.42846426269531 67.8162089440918,197.3446442626953 C67.8162089440918,200.2726342626953 66.5765389440918,202.18527426269532 64.48679894409179,203.05895426269532 C63.1172589440918,203.63746426269532 61.1219689440918,203.63746426269532 59.7642289440918,203.05895426269532 C57.674498944091795,202.18527426269532 56.4112089440918,200.2726342626953 56.4112089440918,197.3446442626953 C56.4112089440918,194.42846426269531 57.674498944091795,192.4922042626953 59.7642289440918,191.6185342626953 C59.7642289440918,191.6185342626953 59.7642289440918,191.6185342626953 59.7642289440918,191.6185342626953 M58.5835889440918,197.3564542626953 C58.5835889440918,200.0128942626953 59.528098944091795,201.85469426269532 62.125518944091795,201.85469426269532 C64.64027894409179,201.85469426269532 65.6556389440918,199.98928426269532 65.6438289440918,197.3564542626953 C65.6438289440918,194.7118142626953 64.64027894409179,192.8345942626953 62.125518944091795,192.8345942626953 C59.5162989440918,192.8345942626953 58.5835889440918,194.7000042626953 58.5835889440918,197.3564542626953 C58.5835889440918,197.3564542626953 58.5835889440918,197.3564542626953 58.5835889440918,197.3564542626953 M72.49155894409179,198.9975442626953 C72.49155894409179,200.7567042626953 73.2825789440918,201.84289426269532 75.00631894409179,201.84289426269532 C76.1987689440918,201.84289426269532 77.27314894409179,201.28799426269532 78.24127894409179,200.1899942626953 C78.24127894409179,200.1899942626953 78.24127894409179,193.09433426269533 78.24127894409179,193.09433426269533 C78.1114089440918,193.0589142626953 77.6627689440918,192.95265426269532 76.9071589440918,192.8227842626953 C76.3404489440918,192.7283342626953 76.6001889440918,191.9373042626953 76.54115894409179,191.3705942626953 C76.54115894409179,191.3705942626953 80.34281894409179,191.3705942626953 80.34281894409179,191.3705942626953 C80.34281894409179,191.3705942626953 80.34281894409179,201.60676426269532 80.34281894409179,201.60676426269532 C81.1102389440918,201.76024426269532 81.5470789440918,201.85469426269532 81.6887589440918,201.8783142626953 C82.2554589440918,201.9609542626953 81.9957189440918,202.7637942626953 82.0547489440918,203.3305042626953 C82.0547489440918,203.3305042626953 79.0913389440918,203.3305042626953 79.0913389440918,203.3305042626953 C78.3121189440918,203.3423042626953 78.5128289440918,202.2443142626953 78.3593489440918,201.60676426269532 C77.2141189440918,202.8818542626953 75.89179894409179,203.5194042626953 74.3923889440918,203.5194042626953 C71.8067789440918,203.5194042626953 70.39000894409179,201.7130242626953 70.39000894409179,198.9975442626953 C70.39000894409179,198.9975442626953 70.39000894409179,193.09433426269533 70.39000894409179,193.09433426269533 C69.6343989440918,192.94085426269532 69.18575894409179,192.85820426269532 69.0440789440918,192.8227842626953 C68.4891789440918,192.7401442626953 68.7489189440918,191.9373042626953 68.68988894409179,191.3705942626953 C68.68988894409179,191.3705942626953 72.49155894409179,191.3705942626953 72.49155894409179,191.3705942626953 C72.49155894409179,191.3705942626953 72.49155894409179,198.9975442626953 72.49155894409179,198.9975442626953 C72.49155894409179,198.9975442626953 72.49155894409179,198.9975442626953 72.49155894409179,198.9975442626953 M91.1220889440918,191.18169426269532 C93.7313089440918,191.16988426269532 95.1244589440918,193.02349426269532 95.1244589440918,195.71536426269532 C95.1244589440918,195.71536426269532 95.1244589440918,201.60676426269532 95.1244589440918,201.60676426269532 C95.8918789440918,201.76024426269532 96.3287189440918,201.85469426269532 96.4703989440918,201.8783142626953 C97.0370989440918,201.9609542626953 96.77735894409179,202.7637942626953 96.8363889440918,203.3305042626953 C96.8363889440918,203.3305042626953 93.0229189440918,203.3305042626953 93.0229189440918,203.3305042626953 C93.0229189440918,203.3305042626953 93.0229189440918,195.71536426269532 93.0229189440918,195.71536426269532 C93.0229189440918,193.8145242626953 92.1846589440918,192.85820426269532 90.5081489440918,192.85820426269532 C89.3393089440918,192.85820426269532 88.26492894409179,193.4131042626953 87.2731889440918,194.5229142626953 C87.2731889440918,194.5229142626953 87.2731889440918,201.60676426269532 87.2731889440918,201.60676426269532 C87.3322189440918,201.61857426269532 87.7690589440918,201.7366342626953 88.6191189440918,201.8783142626953 C89.1858289440918,201.9727642626953 88.92608894409179,202.7637942626953 88.9851189440918,203.3305042626953 C88.9851189440918,203.3305042626953 83.4715189440918,203.3305042626953 83.4715189440918,203.3305042626953 C83.5305589440918,202.7637942626953 83.2708089440918,201.9845742626953 83.82571894409179,201.8783142626953 C83.82571894409179,201.8783142626953 85.1716489440918,201.60676426269532 85.1716489440918,201.60676426269532 C85.1716489440918,201.60676426269532 85.1716489440918,193.09433426269533 85.1716489440918,193.09433426269533 C84.4160389440918,192.94085426269532 83.9673889440918,192.85820426269532 83.82571894409179,192.8227842626953 C83.2708089440918,192.7401442626953 83.5305589440918,191.9373042626953 83.4715189440918,191.3705942626953 C83.4715189440918,191.3705942626953 86.4231289440918,191.3705942626953 86.4231289440918,191.3705942626953 C87.2023489440918,191.3587942626953 87.0016489440918,192.46859426269532 87.1551289440918,193.10614426269532 C88.3239589440918,191.81924426269532 89.64627894409179,191.18169426269532 91.1220889440918,191.18169426269532 C91.1220889440918,191.18169426269532 91.1220889440918,191.18169426269532 91.1220889440918,191.18169426269532 M97.98161894409179,197.39187426269532 C97.98161894409179,193.9680142626953 99.9178689440918,191.1344642626953 103.1528289440918,191.15808426269533 C104.4751489440918,191.15808426269533 105.5613389440918,191.6303342626953 106.4232089440918,192.5748542626953 C106.4232089440918,192.5748542626953 106.4232089440918,187.6633842626953 106.4232089440918,187.6633842626953 C105.6203689440918,187.53351426269532 105.10088894409179,187.43906426269533 104.85294894409179,187.4036442626953 C104.28623894409179,187.3091842626953 104.5459889440918,186.5181542626953 104.4869489440918,185.9396442626953 C104.4869489440918,185.9396442626953 108.5247489440918,185.9396442626953 108.5247489440918,185.9396442626953 C108.5247489440918,185.9396442626953 108.5247489440918,201.60676426269532 108.5247489440918,201.60676426269532 C109.2803589440918,201.76024426269532 109.7289989440918,201.84289426269532 109.8706789440918,201.8783142626953 C110.4255789440918,201.9609542626953 110.1658389440918,202.7637942626953 110.2248689440918,203.3305042626953 C110.2248689440918,203.3305042626953 107.2732689440918,203.3305042626953 107.2732689440918,203.3305042626953 C106.4468189440918,203.3305042626953 106.6947489440918,202.11444426269532 106.51765894409179,201.44147426269532 C105.3960489440918,202.8110242626953 104.0501089440918,203.4957942626953 102.5034789440918,203.4957942626953 C99.36296894409179,203.4957942626953 97.98161894409179,200.86295426269533 97.98161894409179,197.39187426269532 C97.98161894409179,197.39187426269532 97.98161894409179,197.39187426269532 97.98161894409179,197.39187426269532 M103.6604989440918,192.79917426269532 C101.1693489440918,192.79917426269532 100.1539989440918,194.7000042626953 100.1539989440918,197.39187426269532 C100.1539989440918,199.6468942626953 100.7088989440918,201.0872842626953 101.9013489440918,201.54773426269531 C103.7431489440918,202.25611426269532 105.26617894409179,201.52411426269532 106.4232089440918,199.98928426269532 C106.4232089440918,199.98928426269532 106.4232089440918,194.2041342626953 106.4232089440918,194.2041342626953 C105.7266289440918,193.27143426269532 104.8057289440918,192.79917426269532 103.6604989440918,192.79917426269532 C103.6604989440918,192.79917426269532 103.6604989440918,192.79917426269532 103.6604989440918,192.79917426269532 " style="pointer-events:inherit"/><rect id="svg_48" x="34.12109375" y="185.94140625" width="76.11328125" height="17.578125" fill="#000000" opacity="0" style="pointer-events:inherit"/></g></g><defs><mask id="canvasMaskImageDef" maskUnits="objectBoundingBox" x="0" y="0"><image xmlns:xlink="http://www.w3.org/1999/xlink" id="canvasMaskImage" preserveAspectRatio="none" x="-103.65" y="-36.45" width="400" height="440.0580551523948" xlink:href="http://allinonedesigner.designnbuy.in/media/catalog/product/w/h/white-tees-1_-front_1_3.png"/></mask></defs></svg>