<?xml version="1.0" encoding="utf-8"?>
<!-- Generator: Adobe Illustrator 16.0.3, SVG Export Plug-In . SVG Version: 6.00 Build 0)  -->
<!DOCTYPE svg PUBLIC "-//W3C//DTD SVG 1.1 Tiny//EN" "http://www.w3.org/Graphics/SVG/1.1/DTD/svg11-tiny.dtd">
<svg version="1.1" baseProfile="tiny" id="Layer_1" xmlns="http://www.w3.org/2000/svg" xmlns:xlink="http://www.w3.org/1999/xlink"
	 x="0px" y="0px" width="100px" height="67.891px" viewBox="0 0 100 67.891" xml:space="preserve">
<path fill-rule="evenodd" d="M14.898,57.454c-0.911-2.408-1.771-4.364-2.393-6.394c-1.209-3.947-1.044-8.021-0.892-12.087
	c0.182-4.844,1.735-9.35,3.558-13.74c1.31-3.154,3.364-5.861,5.847-8.291c3.932-3.849,8.618-6.155,13.945-7.017
	c3.388-0.548,6.896-0.906,10.303-0.667c4.993,0.351,9.768,2.042,13.974,4.724c3.17,2.021,5.654,4.92,7.739,8.161
	c2.888,4.49,4.981,9.292,6.59,14.353c0.486,1.53,1.27,2.966,2.129,4.931c0.342-0.908,0.578-1.379,0.698-1.878
	c0.833-3.48,1.519-7.001,2.491-10.441c1.063-3.76,3.598-6.367,7.051-8.157c0.508-0.263,1.049-0.954,1.113-1.501
	c0.371-3.203,0.64-6.42,0.87-9.637c0.113-1.589,0.164-3.195,0.062-4.782c-0.06-0.929-0.559-1.822-0.708-2.756
	c-0.106-0.666-0.2-1.771,0.131-1.973c0.585-0.356,1.598-0.397,2.233-0.119c0.31,0.136,0.286,1.304,0.207,1.981
	c-0.098,0.846-0.595,1.667-0.596,2.5c-0.003,4.844,0.062,9.689,0.189,14.531c0.014,0.528,0.479,1.387,0.889,1.491
	c0.841,0.215,1.919,0.382,2.229-0.989c0.244-1.077,0.664-2.113,0.905-3.191c0.955-4.267,1.888-8.539,2.772-12.82
	c0.09-0.435-0.262-0.944-0.307-1.428c-0.056-0.598-0.181-1.644,0.03-1.729c0.718-0.287,1.667-0.495,2.347-0.243
	c0.748,0.277,0.969,1.18,0.258,1.877c-2.311,2.262-1.694,5.337-2.249,8.073c-0.535,2.631-0.723,5.334-1.296,7.955
	c-0.535,2.446,0.721,3.854,2.409,5.166c2.819,2.191,3.47,7.153,1.214,9.916c-1.52,1.861-3.325,3.5-4.741,5.429
	c-0.675,0.919-1.068,2.298-1.021,3.445c0.132,3.24-0.42,6.36-1.511,9.333c-1.254,3.418-2.849,6.708-5.764,9.132
	c-1.197,0.996-2.262,2.154-3.481,3.121c-2.728,2.162-6.023,2.698-9.354,3.021c-2.821,0.273-5.649,0.559-8.479,0.65
	c-6.943,0.224-13.899,0.639-20.833,0.433c-11.609-0.345-23.208-1.076-34.806-1.737c-2.09-0.119-4.199-0.526-6.211-1.105
	c-0.949-0.273-2.109-1.13-2.393-1.982c-0.235-0.703,0.495-1.95,1.122-2.674c1.733-1.998,4.118-2.767,6.692-2.866
	C10.09,57.386,12.328,57.454,14.898,57.454z"/>
</svg>
