<svg xmlns="http://www.w3.org/2000/svg" width="205.65" height="395.85" id="svgcontent" x="0" y="0" viewBox="0 0 205.65 395.85" overflow="hidden"><g mask="" style="pointer-events:all"><title style="pointer-events:inherit">Layer 1</title><ellipse fill="#ff007f" stroke="#000000" cx="108.52421" cy="108.75" id="svg_1" rx="76" ry="75" stroke-width="0" display="null" fill-opacity="1" stroke-opacity="1" transform=""/><g display="null" shapeVal="0" shapeId="0" lineHeight="1" font-style="normal" font-weight="normal" text-anchor="start" stroke-width="0" stroke="0" fill="ff007f" font-family="Afta sans" font-size="88.19816" text="hurl" type="text" id="svg_2" style="pointer-events:inherit"><path d="M65.31065,274.86087C65.31065,274.86087 65.31065,246.63483 65.31065,246.63483C65.31065,237.46134 61.60598,232.25716 54.19664,232.25716C46.16986,232.25716 39.11333,238.60801 39.11333,245.66454C39.11333,245.66454 39.11333,274.86087 39.11333,274.86087C39.11333,274.86087 33.29171,274.86087 33.29171,274.86087C33.29171,274.86087 33.29171,204.73672 33.29171,204.73672C33.29171,204.73672 39.11333,204.73672 39.11333,204.73672C39.11333,204.73672 39.11333,238.608 39.11333,238.608C41.49491,232.9628 49.69811,227.84682 56.84283,227.84682C65.04603,227.84682 70.95587,234.10947 70.95587,247.25223C70.95587,247.25223 70.95587,274.86087 70.95587,274.86087C70.95587,274.86087 65.31065,274.86087 65.31065,274.86087C65.31065,274.86087 65.31065,274.86087 65.31065,274.86087M89.39103,229.16994C89.39103,229.16994 89.39103,258.27805 89.39103,258.27805C89.39103,267.36332 91.50797,272.39112 99.27015,272.39112C107.12052,272.39112 115.76475,266.48127 115.76475,256.86677C115.76475,256.86677 115.76475,229.16995 115.76475,229.16995C115.76475,229.16995 121.49818,229.16995 121.49818,229.16995C121.49818,229.16995 121.49818,274.86088 121.49818,274.86088C121.49818,274.86088 116.20579,274.86088 116.20579,274.86088C116.20579,274.86088 115.76475,265.3346 115.76475,265.3346C113.03036,272.39112 106.59128,276.36036 97.85884,276.36036C90.00846,276.36036 83.39298,271.59724 83.39298,257.4842C83.39298,257.4842 83.39298,229.16995 83.39298,229.16995C83.39298,229.16995 89.39103,229.16995 89.39103,229.16995C89.39103,229.16995 89.39103,229.16995 89.39103,229.16995M140.10974,274.86088C140.10974,274.86088 134.0235,274.86088 134.0235,274.86088C134.0235,274.86088 134.0235,229.2581 134.0235,229.2581C134.0235,229.2581 138.87485,229.2581 138.87485,229.2581C138.87485,229.2581 140.10974,239.31364 140.10974,239.31364C142.49132,233.22741 145.40213,227.93501 152.89967,227.93501C156.69256,227.93501 158.80953,228.64068 159.95619,229.08174C159.95619,229.08174 159.60336,233.93309 159.60336,233.93309C156.16331,232.8746 154.92842,232.52177 152.89967,232.52177C146.90164,232.52177 140.10974,237.72595 140.10974,252.98567C140.10974,252.98567 140.10974,274.86088 140.10974,274.86088C140.10974,274.86088 140.10974,274.86088 140.10974,274.86088M173.45177,274.86088C173.45177,274.86088 167.63016,274.86088 167.63016,274.86088C167.63016,274.86088 167.63016,204.82495 167.63016,204.82495C167.63016,204.82495 173.45177,204.82495 173.45177,204.82495C173.45177,204.82495 173.45177,274.86088 173.45177,274.86088C173.45177,274.86088 173.45177,274.86088 173.45177,274.86088" stroke-width="0" stroke="#000000" fill="#ff007f" id="svg_29" style="pointer-events:inherit"/></g><g id="svg_27" display="null" shapeVal="0" shapeId="0" lineHeight="1" font-style="normal" font-weight="normal" text-anchor="start" stroke-width="0" stroke="0" fill="ff007f" font-family="Exo" font-size="15.45391" text="only dead people   can't" type="text" style="pointer-events:inherit"><path d="M26.28705,197.90333C26.28705,194.55498 27.18853,193.61058 29.89296,193.61058C32.64032,193.61058 33.49887,194.64084 33.49887,197.90333C33.49887,200.95119 32.64032,201.98145 29.89296,201.98145C27.1456,201.98145 26.28705,200.82241 26.28705,197.90333C26.28705,197.90333 26.28705,197.90333 26.28705,197.90333M27.44609,197.90333C27.44609,200.65069 28.30464,200.8224 29.89296,200.8224C31.56713,200.8224 32.38276,200.60776 32.38276,197.90333C32.38276,194.98426 31.69592,194.76962 29.89296,194.76962C28.17586,194.76962 27.44609,194.94133 27.44609,197.90333C27.44609,197.90333 27.44609,197.90333 27.44609,197.90333M35.21597,201.89559C35.21597,201.89559 35.21597,193.69643 35.21597,193.69643C35.21597,193.69643 35.98867,193.69643 35.98867,193.69643C35.98867,193.69643 36.33209,194.64084 36.33209,194.64084C37.2765,194.08278 38.13505,193.56765 39.37995,193.56765C43.07172,193.65351 41.65511,198.50432 41.91267,201.89559C41.91267,201.89559 40.75363,201.89559 40.75363,201.89559C40.75363,201.89559 40.75363,196.18623 40.75363,196.18623C40.49606,193.73936 37.83456,194.81255 36.33209,195.58524C36.33209,195.58524 36.33209,201.89559 36.33209,201.89559C36.33209,201.89559 35.21597,201.89559 35.21597,201.89559C35.21597,201.89559 35.21597,201.89559 35.21597,201.89559M44.70296,198.97652C44.70296,201.1229 45.64736,200.60777 46.97812,201.07997C46.97812,201.07997 46.97812,201.89559 46.97812,201.89559C44.70296,202.02437 43.58684,201.85266 43.58684,198.97652C43.58684,198.97652 43.58684,189.79003 43.58684,189.79003C43.58684,189.79003 44.70296,189.79003 44.70296,189.79003C44.70296,189.79003 44.70296,198.97652 44.70296,198.97652C44.70296,198.97652 44.70296,198.97652 44.70296,198.97652M47.62203,193.69643C47.62203,193.69643 48.86693,193.69643 48.86693,193.69643C48.86693,193.69643 50.8416,200.09263 50.8416,200.09263C51.09916,200.99411 51.87186,200.69361 51.87186,200.69361C51.87186,200.69361 54.23287,193.69642 54.23287,193.69642C54.23287,193.69642 55.5207,193.69642 55.5207,193.69642C55.5207,193.69642 51.87186,204.47123 51.87186,204.47123C51.87186,204.47123 50.71282,206.05955 50.71282,206.05955C50.71282,206.05955 50.02598,206.05955 50.02598,206.05955C50.02598,206.05955 51.48552,201.89558 51.48552,201.89558C51.1421,201.89558 50.11184,201.85265 49.59671,200.17848C49.59671,200.17848 47.62204,193.69642 47.62204,193.69642M60.45737,197.81746C60.45737,195.71401 60.84371,193.56763 63.1618,193.56763C63.84864,193.56763 65.22232,193.78227 66.20966,194.16862C66.20966,194.16862 66.20966,189.74708 66.20966,189.74708C66.20966,189.74708 67.32578,189.74708 67.32578,189.74708C67.32578,189.74708 67.32578,201.89557 67.32578,201.89557C67.32578,201.89557 66.51016,201.89557 66.51016,201.89557C66.51016,201.89557 66.20967,200.99409 66.20967,200.99409C65.82332,201.29458 64.19208,201.98142 63.16181,201.98142C60.92958,201.98142 60.45738,199.70626 60.45738,197.81745C60.45738,197.81745 60.45738,197.81745 60.45738,197.81745M61.61642,197.81745C61.61642,199.83504 62.17448,200.86531 63.16181,200.86531C64.36378,200.86531 65.39404,200.47896 66.20967,200.13554C66.20967,200.13554 66.20967,195.11302 66.20967,195.11302C63.7628,194.7696 61.61642,193.5247 61.61642,197.81745C61.61642,197.81745 61.61642,197.81745 61.61642,197.81745M68.99996,197.77452C68.99996,194.12568 70.07314,193.61055 72.60587,193.61055C74.53761,193.61055 75.73958,193.82519 75.73958,196.52962C75.73958,198.97649 72.47709,198.3755 70.159,198.41843C70.159,200.35017 70.50242,200.82237 71.70439,200.82237C73.121,200.82237 74.40882,200.8653 75.56787,200.69359C75.56787,200.69359 75.56787,201.55214 75.56787,201.55214C74.32297,201.89556 72.99222,201.98142 71.70439,201.98142C69.60094,201.98142 68.99996,200.99409 68.99996,197.77452C68.99996,197.77452 68.99996,197.77452 68.99996,197.77452M70.159,197.30232C70.159,197.30232 73.5932,197.30232 73.5932,197.30232C74.28004,197.30232 74.58053,197.04475 74.58053,196.52962C74.58053,194.89837 74.28004,194.76959 72.60586,194.76959C70.84583,194.76959 70.15899,194.81252 70.15899,197.30231C70.15899,197.30231 70.15899,197.30231 70.15899,197.30231M79.00206,201.98141C77.54253,201.98141 76.94154,200.86529 76.94154,199.01941C76.94154,196.44376 79.9894,197.00182 82.43626,196.95889C82.52211,195.71399 82.39333,194.6408 81.19136,194.6408C80.07524,194.6408 78.74449,194.68373 77.24203,194.81251C77.24203,194.81251 77.24203,193.99689 77.24203,193.99689C79.43133,193.56761 83.59531,192.53735 83.59531,195.92863C83.59531,195.92863 83.59531,201.89556 83.59531,201.89556C83.59531,201.89556 82.73676,201.89556 82.73676,201.89556C82.73676,201.89556 82.43627,200.90823 82.43627,200.90823C82.39334,200.90823 80.41868,201.98142 79.00207,201.98142C79.00207,201.98142 79.00207,201.98142 79.00207,201.98142M79.00207,198.07501C77.58546,198.11794 77.8001,200.8653 79.00207,200.8653C80.24697,200.8653 82.43627,200.04968 82.43627,200.04968C82.43627,200.04968 82.43627,197.86038 82.43627,197.86038C82.43627,197.86038 79.00207,198.07502 79.00207,198.07502M85.09778,197.81745C85.09778,195.714 85.48413,193.56762 87.80221,193.56762C88.48905,193.56762 89.86273,193.78226 90.85007,194.16861C90.85007,194.16861 90.85007,189.74707 90.85007,189.74707C90.85007,189.74707 91.96619,189.74707 91.96619,189.74707C91.96619,189.74707 91.96619,201.89556 91.96619,201.89556C91.96619,201.89556 91.15056,201.89556 91.15056,201.89556C91.15056,201.89556 90.85007,200.99408 90.85007,200.99408C90.46373,201.29457 88.83248,201.98141 87.80221,201.98141C85.56998,201.98141 85.09778,199.70625 85.09778,197.81744C85.09778,197.81744 85.09778,197.81744 85.09778,197.81744M86.25682,197.81744C86.25682,199.83503 86.81488,200.8653 87.80221,200.8653C89.00418,200.8653 90.03444,200.47895 90.85007,200.13553C90.85007,200.13553 90.85007,195.11301 90.85007,195.11301C88.4032,194.76959 86.25682,193.52469 86.25682,197.81744C86.25682,197.81744 86.25682,197.81744 86.25682,197.81744M97.67554,206.05953C97.67554,206.05953 97.67554,193.6964 97.67554,193.6964C97.67554,193.6964 98.49117,193.6964 98.49117,193.6964C98.49117,193.6964 98.79166,194.59788 98.79166,194.59788C99.178,194.29739 100.76632,193.61055 101.79659,193.61055C104.02882,193.61055 104.50102,195.88571 104.50102,197.77452C104.50102,199.87797 104.11468,202.02435 101.79659,202.02435C101.10975,202.02435 99.77899,201.76678 98.79166,201.38044C98.79166,201.38044 98.79166,206.05954 98.79166,206.05954C98.79166,206.05954 97.67554,206.05954 97.67554,206.05954C97.67554,206.05954 97.67554,206.05954 97.67554,206.05954M98.79166,200.47896C101.28145,200.82238 103.38491,202.06728 103.38491,197.77453C103.38491,195.75694 102.78392,194.72668 101.79659,194.72668C100.59462,194.72668 99.60728,195.11303 98.79166,195.45645C98.79166,195.45645 98.79166,200.47897 98.79166,200.47897C98.79166,200.47897 98.79166,200.47897 98.79166,200.47897M106.04641,197.77454C106.04641,194.1257 107.1196,193.61057 109.65232,193.61057C111.58406,193.61057 112.78603,193.82521 112.78603,196.52964C112.78603,198.97651 109.52353,198.37552 107.20545,198.41845C107.20545,200.35019 107.54887,200.82239 108.75084,200.82239C110.16745,200.82239 111.45528,200.86532 112.61432,200.69361C112.61432,200.69361 112.61432,201.55216 112.61432,201.55216C111.36942,201.89558 110.03867,201.98144 108.75084,201.98144C106.64739,201.98144 106.04641,200.99411 106.04641,197.77454C106.04641,197.77454 106.04641,197.77454 106.04641,197.77454M107.20545,197.30234C107.20545,197.30234 110.63965,197.30234 110.63965,197.30234C111.32649,197.30234 111.62698,197.04477 111.62698,196.52964C111.62698,194.89839 111.32649,194.76961 109.65232,194.76961C107.89229,194.76961 107.20545,194.81254 107.20545,197.30233C107.20545,197.30233 107.20545,197.30233 107.20545,197.30233M114.15971,197.90332C114.15971,194.55497 115.06118,193.61057 117.76562,193.61057C120.51298,193.61057 121.37153,194.64083 121.37153,197.90332C121.37153,200.95118 120.51298,201.98144 117.76562,201.98144C115.01826,201.98144 114.15971,200.8224 114.15971,197.90332C114.15971,197.90332 114.15971,197.90332 114.15971,197.90332M115.31875,197.90332C115.31875,200.65068 116.1773,200.82239 117.76562,200.82239C119.43979,200.82239 120.25542,200.60775 120.25542,197.90332C120.25542,194.98425 119.56858,194.76961 117.76562,194.76961C116.04852,194.76961 115.31875,194.94132 115.31875,197.90332C115.31875,197.90332 115.31875,197.90332 115.31875,197.90332M123.08863,206.05955C123.08863,206.05955 123.08863,193.69642 123.08863,193.69642C123.08863,193.69642 123.90425,193.69642 123.90425,193.69642C123.90425,193.69642 124.20475,194.5979 124.20475,194.5979C124.59109,194.29741 126.17941,193.61057 127.20968,193.61057C129.44191,193.61057 129.91411,195.88573 129.91411,197.77454C129.91411,199.87799 129.52777,202.02437 127.20968,202.02437C126.52284,202.02437 125.19208,201.7668 124.20475,201.38046C124.20475,201.38046 124.20475,206.05956 124.20475,206.05956C124.20475,206.05956 123.08863,206.05956 123.08863,206.05956C123.08863,206.05956 123.08863,206.05956 123.08863,206.05956M124.20475,200.47898C126.69454,200.8224 128.798,202.0673 128.798,197.77455C128.798,195.75696 128.19701,194.7267 127.20968,194.7267C126.00771,194.7267 125.02037,195.11305 124.20475,195.45647C124.20475,195.45647 124.20475,200.47899 124.20475,200.47899C124.20475,200.47899 124.20475,200.47899 124.20475,200.47899M132.74733,198.97653C132.74733,201.12291 133.69173,200.60778 135.02248,201.07998C135.02248,201.07998 135.02248,201.8956 135.02248,201.8956C132.74733,202.02438 131.63121,201.85267 131.63121,198.97653C131.63121,198.97653 131.63121,189.79004 131.63121,189.79004C131.63121,189.79004 132.74733,189.79004 132.74733,189.79004C132.74733,189.79004 132.74733,198.97653 132.74733,198.97653C132.74733,198.97653 132.74733,198.97653 132.74733,198.97653M136.09567,197.77456C136.09567,194.12572 137.16886,193.61059 139.70158,193.61059C141.63332,193.61059 142.83529,193.82523 142.83529,196.52966C142.83529,198.97653 139.5728,198.37554 137.25471,198.41847C137.25471,200.35021 137.59813,200.82241 138.8001,200.82241C140.21671,200.82241 141.50454,200.86534 142.66358,200.69363C142.66358,200.69363 142.66358,201.55218 142.66358,201.55218C141.41868,201.8956 140.08793,201.98146 138.8001,201.98146C136.69665,201.98146 136.09566,200.99413 136.09566,197.77456C136.09566,197.77456 136.09566,197.77456 136.09566,197.77456M137.2547,197.30236C137.2547,197.30236 140.6889,197.30236 140.6889,197.30236C141.37574,197.30236 141.67624,197.04479 141.67624,196.52966C141.67624,194.89841 141.37575,194.76963 139.70157,194.76963C137.94154,194.76963 137.2547,194.81256 137.2547,197.30235C137.2547,197.30235 137.2547,197.30235 137.2547,197.30235M155.7994,197.77455C155.84232,192.2369 158.33211,193.65351 162.02389,193.99693C162.02389,193.99693 162.02389,194.85548 162.02389,194.85548C162.02389,194.85548 159.87752,194.76962 158.50384,194.76962C157.55943,194.76962 156.95845,194.94133 156.95845,197.8604C156.95845,200.22141 157.38772,200.8224 158.50384,200.8224C159.92045,200.8224 162.15268,200.65069 162.15268,200.65069C162.15268,200.65069 162.15268,201.50924 162.15268,201.50924C158.71847,202.0673 155.75648,203.35512 155.7994,197.77454C155.7994,197.77454 155.7994,197.77454 155.7994,197.77454M165.41517,201.98144C163.95564,201.98144 163.35464,200.86532 163.35464,199.01944C163.35464,196.44379 166.40251,197.00185 168.84938,196.95892C168.93522,195.71402 168.80644,194.64083 167.60448,194.64083C166.48836,194.64083 165.15761,194.68376 163.65515,194.81254C163.65515,194.81254 163.65515,193.99692 163.65515,193.99692C165.84445,193.56764 170.00842,192.53738 170.00842,195.92866C170.00842,195.92866 170.00842,201.89559 170.00842,201.89559C170.00842,201.89559 169.14987,201.89559 169.14987,201.89559C169.14987,201.89559 168.84938,200.90826 168.84938,200.90826C168.80644,200.90826 166.83179,201.98145 165.41517,201.98145C165.41517,201.98145 165.41517,201.98145 165.41517,201.98145M165.41517,198.07504C163.99856,198.11797 164.21319,200.86533 165.41517,200.86533C166.66006,200.86533 168.84938,200.04971 168.84938,200.04971C168.84938,200.04971 168.84938,197.86041 168.84938,197.86041C168.84938,197.86041 165.41517,198.07505 165.41517,198.07505M171.68258,201.8956C171.68258,201.8956 171.68258,193.69644 171.68258,193.69644C171.68258,193.69644 172.45531,193.69644 172.45531,193.69644C172.45531,193.69644 172.7987,194.64085 172.7987,194.64085C173.74312,194.08279 174.60167,193.56766 175.84656,193.56766C179.53833,193.65352 178.12172,198.50433 178.37929,201.8956C178.37929,201.8956 177.22024,201.8956 177.22024,201.8956C177.22024,201.8956 177.22024,196.18624 177.22024,196.18624C176.96268,193.73937 174.30118,194.81256 172.7987,195.58525C172.7987,195.58525 172.7987,201.8956 172.7987,201.8956C172.7987,201.8956 171.68258,201.8956 171.68258,201.8956C171.68258,201.8956 171.68258,201.8956 171.68258,201.8956M180.13933,193.69644C180.13933,193.69644 179.9676,190.56273 179.9676,190.56273C179.9676,190.56273 181.12665,190.56273 181.12665,190.56273C181.16958,191.67885 181.0408,192.66618 180.95494,193.69644C180.95494,193.69644 180.13931,193.69644 180.13931,193.69644C180.13931,193.69644 180.13931,193.69644 180.13931,193.69644M184.90428,198.97653C184.90428,201.12291 185.84868,200.60778 187.17943,201.07998C187.17943,201.07998 187.17943,201.8956 187.17943,201.8956C184.90428,202.02438 183.78816,201.85267 183.78816,198.97653C183.78816,198.97653 183.78816,194.81256 183.78816,194.81256C183.78816,194.81256 182.24277,194.81256 182.24277,194.81256C182.24277,194.81256 182.24277,193.95401 182.24277,193.95401C182.24277,193.95401 183.78816,193.65352 183.78816,193.65352C183.78816,193.65352 184.04573,191.37836 184.04573,191.37836C184.04573,191.37836 184.90428,191.37836 184.90428,191.37836C184.90428,191.37836 184.90428,193.65352 184.90428,193.65352C184.90428,193.65352 187.30821,193.65352 187.30821,193.65352C187.30821,193.65352 187.30821,194.81256 187.30821,194.81256C187.30821,194.81256 184.90428,194.81256 184.90428,194.81256C184.90428,194.81256 184.90428,198.97653 184.90428,198.97653C184.90428,198.97653 184.90428,198.97653 184.90428,198.97653" stroke-width="0" stroke="#000000" fill="#ff007f" id="svg_30" style="pointer-events:inherit"/></g><g id="svg_9" display="null" clip-id="57" stroke-opacity="1" stroke="null" fill-opacity="1" transform=""><metadata stroke="null" fill="#ff007f"/><path d="M151.2656469350246,98.01528373141454 C151.3495434037547,97.97280450674106 151.43131591125118,97.93138726268441 151.5152123799813,97.89315596047825 C150.95661057552502,97.68394577896134 150.39800877106876,97.47473559744444 149.83834498599563,97.27189729962859 C149.87020440450075,97.10091842031781 149.83303508291146,97.19755865645001 149.9625967181656,97.02445581590558 C149.42311056481236,96.58691980176874 148.88574837269283,96.15575567133288 148.34838618057327,95.71821965719604 C149.2054045383608,95.85946307923533 149.8648945014166,96.10478060172474 150.89289173851483,96.09203683432267 C150.89289173851483,96.07292118321959 150.89289173851483,96.04955760964918 150.89289173851483,96.0304419585461 C149.568601909319,95.5313110686327 148.2453740607401,95.03536612056979 146.92002225092745,94.54048315312374 C146.89984461920758,94.4990659090671 146.87966698748767,94.45658668439361 146.85842737515094,94.41516944033694 C147.4159671989904,94.43534707205686 147.97669296468032,94.45764866501042 148.53423278851974,94.47995025796402 C149.01318604671323,94.50012788968397 149.97215454371707,94.60951189321813 150.14950530672888,94.29304166940074 C150.21110018250542,94.29304166940074 150.27375703889882,94.29304166940074 150.33535191467539,94.29304166940074 C150.14950530672888,94.25162442534409 149.96153473754873,94.2091452006706 149.77781209083588,94.16772795661396 C149.77781209083588,94.14861230551088 149.77781209083588,94.1294966544078 149.77781209083588,94.1061330808374 C149.8171053736589,94.02223661210726 149.86064657894917,93.94258806584452 149.90206382300585,93.85869159711439 C150.14950530672888,93.83639000416082 150.39907075168557,93.81727435305768 150.64438827417493,93.79815870195466 C150.64438827417493,93.7758571090011 150.64438827417493,93.75567947728118 150.64438827417493,93.73337788432761 C150.2769429807493,93.3574367459673 149.76931624590122,93.9776334262001 149.15549144936944,93.85869159711439 C148.28997724664725,93.65266735744797 147.41702917960723,93.44345717593112 146.5483290350345,93.23743293626475 C146.11504094336502,92.86786368160543 145.68281483231232,92.4940465044788 145.24740277940913,92.12129130796902 C144.687738994336,91.99597759518224 144.12595124802922,91.86960190177862 143.56947340480662,91.74747413084233 C143.15423898362332,91.43843777134276 142.74325248490743,91.12621546999264 142.3269560831073,90.81717911049316 C142.140047494544,90.7948775175395 141.9542008865975,90.77469988581962 141.7672922980342,90.7555842347166 C141.22993010591463,90.09184634919342 140.69256791379507,89.42917044428708 140.15732968290922,88.7664945393808 C139.81961984675505,88.46383006358226 139.0231343841273,88.46383006358226 138.6641849356364,88.21001669615819 C138.23302080520054,87.85956309260197 137.79654677168054,87.50486156657843 137.36007273816048,87.15440796302221 C137.19758970378444,86.8655492352425 137.02873478570734,86.57562852684603 136.86625175133125,86.28570781844948 C136.28534835392145,85.9968490906698 135.70338297589475,85.70692838227328 135.12672750095223,85.41700767387678 C134.45236980926074,84.91787678396344 133.62508690874463,83.30260426575427 133.4509220875834,82.37549518725552 C133.3447240258997,82.37549518725552 133.2438358673002,82.37549518725552 133.13763780561646,82.37549518725552 C133.13763780561646,82.25018147446877 133.13763780561646,82.12486776168197 133.13763780561646,82.00167801012893 C132.0777811500131,81.90185183214624 131.9800789332641,81.00023028845155 131.27704776491797,80.57225209986626 C130.61543384062853,80.3662278601999 129.95381991633903,80.16020362053351 129.29114401143278,79.95417938086715 C129.15096257001025,79.73222543194817 129.10742136471993,79.69611809097569 129.16583029864594,79.39451559579402 C128.96086803959642,79.3138050689144 128.75271983869638,79.22672265833376 128.54563361841312,79.14707411207098 C128.57430709506775,78.27200208379728 127.74065231085066,77.99163920095222 128.11340750736045,77.34489300529853 C127.3891367266776,76.25105296995639 126.66274198476106,75.1529650121469 125.94059516531192,74.05912497680472 C125.37880741900511,73.81168349308172 124.66940436695799,73.54406437763873 124.0768191827629,73.25095772739178 C124.17983130259611,73.04493348772542 124.2828434224293,72.83572330620851 124.3858555422625,72.62969906654212 C123.84849335014297,72.61376935728958 123.56919244791482,72.48845564450278 123.21130498004075,72.32066270704252 C123.04351204258049,71.49337980652649 122.87784306635388,70.66291096415995 122.70898814827683,69.8356280636439 C122.35959652533742,69.79314883897035 122.00701896054753,69.75491753676425 121.65656535699134,69.71031435085712 C121.32628938515501,69.09224163185792 120.99601341331865,68.47098297100825 120.66148951901502,67.84653836830813 C120.12837524936282,67.54705983436008 119.1407332757044,67.08722222726959 118.36654940603017,66.79411557702258 C118.26353728619705,66.83659480169615 118.15946318574697,66.87801204575277 118.05432710468008,66.92049127042623 C118.56089185891136,67.35802728456312 119.1386093144707,67.4196221603396 119.42109615854935,68.09822777449847 C119.42109615854935,68.15982265027503 119.42109615854935,68.22354148728525 119.42109615854935,68.28513636306178 C119.38074089510957,68.34673123883834 119.33719968981924,68.41045007584859 119.29684442637944,68.47204495162515 C118.63947842455732,67.95698435245919 118.16264912759749,67.45254355946153 116.9360615151507,67.47696911364883 C116.46135617942457,67.99521565466532 115.98665084369841,68.51027625383122 115.51088352735542,69.0285227948477 C113.58551266902987,70.00129703987051 111.66332775255489,70.97513326551001 109.7358329329956,71.94790751053273 C110.64276437977443,69.72412009887603 112.35255317288207,68.85754391553695 114.14305249286929,67.54174993127589 C115.73177549565753,66.37038531090465 116.69711587636237,64.40678315037297 118.48867717696643,63.44144276966813 C119.85332226960202,63.154708003122096 121.21796736223763,62.8658492753425 122.58473641610686,62.57592856694595 C124.46550408852528,61.87077343736618 126.35158166402783,61.16561830778636 128.2291633945957,60.46471110067387 C130.85119353756636,59.61194066535376 133.75358656338196,58.137911569183984 137.10732135135328,58.78784370668825 C137.12856096369003,58.952450702297995 137.14873859540992,59.1202436397582 137.17104018836352,59.283788654751135 C139.324736879309,60.15567474117432 140.77327844067472,62.08423154135039 143.25406516160604,62.45061485415914 C143.4622133625061,62.25096249819376 143.58752707529285,62.151136320211094 143.6884152338924,61.829356193309536 C143.20839999508203,61.11464323817813 142.37474521086497,60.342583329737664 141.32975628389735,60.21620763633405 C141.2681614081208,60.132311167603916 141.20338059049374,60.04841469887384 141.14178571471717,59.96558021076055 C141.16408730767074,59.903985334983986 141.18532692000747,59.84663838167478 141.20338059049374,59.7818575640477 C142.4235963192395,59.86256809092731 143.8381545008664,60.20027792708146 144.55711537846508,60.83746629718371 C144.88101946660038,61.124201063729714 144.94792424546108,61.610588186241046 145.30262577148468,61.889889088469204 C145.42475354242092,61.786876968635994 145.54900527459085,61.68386484880284 145.67644294861128,61.58085272896963 C146.19044156716043,62.3985778039341 146.30301151254517,62.926382170502166 147.5349090280761,63.07081153439202 C147.47650009415008,62.742659523789314 147.46481830736488,62.826555992519445 147.72606553910674,62.57486658632905 C146.82656795664582,60.36700888392491 144.8990731370866,58.143221472268124 143.00768565849987,56.98778656114945 C142.4533317765109,56.79769203073562 141.8915440302041,56.61078344217228 141.33506618698152,56.42706079545951 C140.54282864682108,55.921558021845044 140.126532245021,55.14949811340455 139.03800211276302,54.87232117241007 C137.04891241742723,54.36681839879566 134.67857168064697,55.116576714282644 132.8296634267337,55.431984957483195 C128.1335851390804,56.23271834257832 123.82512977657251,56.20404486592366 119.54640987133615,57.353107893341424 C118.51735065362107,57.633470776186385 117.58599365265499,58.39597285907536 116.7523388684379,58.90784751639086 C114.15792022150504,60.498694480412695 111.9224510230631,62.17131395193101 109.61264318144254,63.99685863227387 C108.24799808880695,65.23937595397317 106.88547695740505,66.47764535320519 105.5165839423021,67.723348616755 C103.84077852893327,69.12728699221356 102.16391113494758,70.53334932890581 100.49022968281243,71.94365958806537 C99.70330204573621,72.6870460198513 98.91637440865996,73.43361839348776 98.13263271343423,74.18019076712417 C96.45576531944856,75.32606785269132 93.468413844286,74.90446154780699 91.92217006617128,76.10131370298234 C90.88249104228778,76.90629501054485 90.57770260525557,78.10633310757066 89.81201458051608,79.20442106538013 C89.42120571352005,79.7672707923038 88.56524933634941,79.83523755178138 88.26046089931718,80.5106572240897 C87.92912294686401,81.52484871316909 87.59884697502771,82.53797822163165 87.26750902257457,83.55216971071096 C82.34522886353493,81.87211637487479 77.01833408948036,81.54396436427217 71.93569485729833,80.01152633417632 C70.67406188449594,79.28725555349342 69.40924296984304,78.56298477281058 68.14867197765749,77.83871399212768 C67.7791027229982,77.0698400255377 68.02017232302019,75.85918212234355 67.83857363754106,74.92251521829326 C67.43289704190933,72.8527149960779 67.03571629121227,70.80627834743291 66.41127168851207,69.08693172877378 C66.21480527439724,68.96480395783755 66.19993754576153,68.915952849463 65.85160790343895,68.90002314021046 C65.05724640204485,70.21369316323785 65.75602964792364,71.40417343471216 65.85160790343895,72.9971443599677 C63.83384473144859,71.29797537302846 65.61478622588432,68.99560139572577 65.66469931487563,66.66667790300215 C65.54257154393939,66.62419867832872 65.41831981176946,66.58278143427208 65.29300609898269,66.54030220959851 C64.87883365841626,67.22315574622476 64.46253725661614,67.90494730223418 64.05048877728338,68.59098678071086 C63.99101786274049,68.63028006353386 63.9283610063471,68.67169730759048 63.8657041499537,68.71311455164715 C63.82534888651392,67.88583165113104 63.78286966184044,67.05854875061499 63.74145241778379,66.22807990824845 C63.74145241778379,66.18984860604232 63.74145241778379,66.14736938136889 63.74145241778379,66.10595213731224 C63.65967991028735,66.08577450559233 63.573659480323556,66.0634729126387 63.49188697282709,66.04435726153568 C62.14741951191141,67.09996599467166 63.166920904074956,70.09368935353524 62.872752273211105,71.94047364621488 C62.747438560424314,72.6647444268977 62.623186828254404,73.3890152075806 62.49893509608445,74.11328598826344 C62.83027304853762,74.81525517599272 63.162672981607585,75.51934832495567 63.49188697282709,76.22131751268495 C64.03774500988133,77.57959072161952 64.23314944337932,79.11202875171537 65.04450263464285,80.19631096150593 C66.16064426293855,81.68626976692829 69.024805986548,82.12168181983148 70.81849124838577,82.9256011467771 C71.97605012073811,83.63075627635692 73.13254701247368,84.33166348346941 74.29435380729336,85.03681861304915 C76.6264632418675,86.41420747308675 80.40923819904101,88.10806655694188 83.4804861429337,88.51268117195681 C83.4804861429337,88.53498276491032 83.4804861429337,88.55516039663024 83.4804861429337,88.57427604773329 C82.94630989266469,89.92936331481732 81.510512098701,95.11820060868311 80.49950655147215,95.59078198317559 C80.454903365565,95.83503752504811 80.42198196644306,95.7553889787853 80.6248202642589,95.90300428452565 C80.35613916819916,96.12814417529515 80.08745807213938,96.35753198853192 79.8187769760796,96.58267187930133 C79.8187769760796,96.75046481676159 79.8187769760796,96.91400983175447 79.8187769760796,97.08180276921479 C79.8187769760796,97.10091842031781 79.8187769760796,97.12109605203773 79.8187769760796,97.1433976449913 C79.98338397168934,97.30800464060107 80.14905294791593,97.47154965559392 80.31259796290884,97.63934259305421 C79.04246914517175,98.81389315527593 79.3907987874943,100.3165957281004 78.94795287027326,102.23559470272488 C77.41763880141106,102.4023256595683 75.717407833855,102.73791153448877 74.41435761699597,103.22642261823384 C74.1690400945066,103.08199325434398 73.92053663016674,102.93756389045413 73.67097118521004,102.79207254594749 C73.4320255464217,102.97898113451078 73.34706709707474,103.15314595567204 73.29927796931705,103.53545897773341 C72.96687803624708,103.45474845085383 72.6376640450276,103.37191396274054 72.30420213134077,103.28801749401035 C71.16682089070831,103.44519062530227 67.94477169922477,104.83001334965775 67.27678589123427,105.52454867306918 C67.1950133837378,105.8527006836718 67.11324087624136,106.18510061674178 67.03146836874492,106.51643856919492 C66.83075403216272,106.97733815690222 65.83992611665374,107.38195277191716 65.41725783115261,107.6336421781075 C62.57008779741257,109.31688145579415 56.683529238284876,111.12543444626766 55.421896265482474,114.15207920425323 C53.949991130546366,117.68104079400263 57.172040322029915,123.37962878395015 58.02799669920056,126.19812534103565 C58.60890009661043,128.20314474562397 59.18874151340343,130.21453603391328 59.767520949579634,132.22061741911847 C60.915521996380434,135.16017976652333 62.07732879120017,138.36098934567016 62.871690292594266,141.53312544816237 C63.18178863271066,144.34631210216367 63.49082499221025,147.159498756165 63.80304729356034,149.97587135201678 C63.94747665745017,150.79465840759815 63.703221115577676,151.14723597238805 63.98995588212365,151.896994287875 C64.61121454297331,153.53563037965452 65.50434024173325,155.344183370128 66.65765119161827,156.49324639754568 C67.46369447979757,157.2950417632576 68.99931845174393,157.93223013335984 69.26481360595318,159.2225365828168 C70.11333611880599,159.42749884186637 70.96079665104193,159.63458506214957 71.81038114451154,159.84273326304964 C73.2567987446436,159.84273326304964 74.70746426724298,159.84273326304964 76.15494384799185,159.84273326304964 C76.43849267268736,159.90539011944304 77.05125548860231,160.2080545952416 77.45693208423407,159.96486103398593 C77.7500387344811,159.79494413529198 77.87747640850152,159.05580562597342 77.95393901291378,158.66393477836056 C76.89302037669358,157.25150055796732 72.73005635869242,155.04045691371263 72.30420213134077,153.75864630919034 C71.34523363433692,150.8647491283094 75.07384758005178,145.973266407158 71.24965537882161,145.4422760987395 C71.20717615414813,145.56440386967574 71.16788287132518,145.6854696599952 71.12540364665166,145.81290733401556 C71.24965537882161,145.93928302741924 71.37178314975786,146.06034881773869 71.49709686254465,146.18778649175908 C71.36965918852417,146.5626656495026 71.1317755303527,146.39593469265915 70.75158646952501,146.31310020454586 C70.75477241137554,145.89255588027842 70.81742926776894,145.70458531109824 70.93849505808835,145.4444000599732 C70.89813979464854,145.4220984670196 70.85672255059193,145.40298281591652 70.81636728715208,145.38280518419663 C70.46272774174535,145.46245373045943 70.11121215757228,145.54528821857272 69.75863459278241,145.62599874545228 C69.73951894167934,145.66741598950892 69.7182793293426,145.7088332335656 69.69703971700588,145.75131245823914 C69.96572081306563,145.83414694635238 70.23333992850857,145.9180434150825 70.50308300518518,145.99875394196206 C70.46060378051169,146.1856625305254 70.42131049768874,146.37257111908875 70.3809552342489,146.5584177270352 C70.27581915318206,146.51275256051122 70.17068307211518,146.47345927768822 70.0708568941325,146.43204203363157 C70.07510481659983,146.7240867032618 69.82766333287681,146.88338379578732 69.69703971700588,147.2412712636614 C69.6545604923324,147.26038691476452 69.61526720950941,147.2826885077181 69.57278798483593,147.302866139438 C69.59402759717267,147.07347832620118 69.61526720950941,146.84833843543174 69.63225889937883,146.62001260281176 C69.38587939627261,146.43204203363157 69.13843791254959,146.24513344506832 68.88887246759289,146.06034881773869 C68.65842267373922,145.52617256746964 69.05347946320262,144.89748004230213 69.13843791254959,144.44720026076314 C69.09489670725927,142.33916873634172 69.05666540505315,140.22582730883605 69.01312419976283,138.114609842564 C68.97489289755666,136.9984682142683 68.93135169226638,135.88020262473887 68.88887246759289,134.7619370352095 C68.62019137153311,133.10737123417738 68.34938631423967,131.45386741376214 68.08282917941357,129.79505369026268 C68.06158956707685,128.59395361262 68.04141193535693,127.39710145744468 68.02123430363703,126.19600137980197 C67.51891747187312,123.96053218136004 66.34436690965136,121.45850584809199 65.10397354918571,119.80287806644304 C65.08273393684897,119.73809724881596 65.06149432451222,119.67756435365632 65.04131669279232,119.61596947787976 C67.42652515820832,118.17486178083186 71.61816265286406,118.96285139852492 75.03667825846246,118.99364883641323 C75.01437666550888,124.02106507651976 74.99419903378897,129.05060527785994 74.9740214020691,134.08120745981694 C74.89968275889046,134.46883038496247 74.63312562406439,134.850081426407 74.53754736854906,135.13150628986875 C74.53754736854906,136.14569777894812 74.53754736854906,137.1598892680275 74.53754736854906,138.17301877649004 C74.48126239585666,138.43426600823196 74.21045733856322,138.8845457897708 74.35276274121941,139.35075528056228 C74.52798954299752,139.9295347167385 75.19916129283853,140.06440625507673 75.40624751312174,140.7154003731979 C75.63351136512487,140.73770196615146 75.86183719774483,140.75894157848813 76.08910104974795,140.78018119082495 C76.29300132818067,141.522505641994 76.31105499866688,142.26695405439676 76.21441476253473,143.13990212143685 C76.62327730001697,143.29707525272872 76.90364018286198,143.2206126483164 77.2721474569044,143.07830724566023 C77.34011421638196,142.4538626429601 77.09267273265893,141.65100529663135 77.45587010361724,140.9670897793883 C77.45587010361724,140.92567253533164 77.45587010361724,140.8831933106581 77.45587010361724,140.84177606660145 C80.64181195412831,143.05600565270672 83.82987776587308,145.27129721942873 87.0136956551505,147.48658878615078 C90.98550316212102,149.98436719695152 95.69432521717638,151.63680903674987 99.68100045278263,154.1282155638496 C101.85168883359752,155.63835200099183 104.02131523379558,157.15273636060144 106.19625153707779,158.6618108171269 C109.06147524130412,159.60909752734548 112.83681633415978,160.05831532826758 116.19055112213113,159.46679212468936 C118.2412356932434,159.10571871496475 119.88836762995766,159.6367090233833 121.46753280719432,158.97084717662645 C121.5928465199811,158.32941088405687 121.71391231030051,157.6869126108705 121.84134998432094,157.0454763183009 C121.84134998432094,157.02636066719782 121.84134998432094,157.0040590742443 121.84134998432094,156.98388144252436 C120.86857573929825,156.63024189711763 119.8958014942755,156.27872631294454 118.92302724925281,155.92827270938838 C116.17674537411222,155.08824604147028 113.7267560910692,154.76646591456864 111.97236411205444,153.01207393555387 C110.86684228992706,151.90973805527702 110.62577268990506,149.57231871761877 109.29935889947564,148.72592016599958 C109.21652441136234,148.63246587171795 109.11457427214594,148.36166081442454 109.05404137698625,148.6080403175307 C108.72695134700047,148.65264350343784 108.96695896640563,148.6430856778863 108.68022419985965,148.42113172896742 C108.61756734346619,148.49971829461333 108.5549104870729,148.58361476334346 108.49331561129634,148.6675112320736 C108.29260127471414,148.48697452721126 108.25012205004063,148.38714834922862 107.93471380684002,148.2936940549469 C107.56195861033024,148.56343713162354 106.98530313538771,148.7312300690838 106.75803928338459,149.09867536250943 C106.631663589981,149.43107529557935 106.50953581904474,149.76135126741576 106.38316012564113,150.09481318110252 C106.34386684281814,150.03215632470912 106.30032563752783,149.9726854101663 106.25784641285435,149.9068426119224 C106.13784260315177,150.29871345953526 106.01359087098184,150.69483222961546 105.88827715819507,151.0835171353778 C105.60048041103221,151.1504219142386 105.38596032643116,151.0909509996957 104.58310298010237,151.0835171353778 C104.50026849198906,151.4382186614014 104.41743400387577,151.78867226495763 104.3356614963793,152.13912586851384 C104.29530623293951,152.1614274614674 104.25176502764923,152.18479103503782 104.21353372544306,152.2039066861409 C104.2315873959293,151.74725502090098 104.25176502764923,151.29378929751155 104.27512860121963,150.83607565165474 C104.0882200126563,150.87855487632828 103.90131142409298,150.91997212038495 103.71652679676335,150.9613893644416 C103.8535222963353,151.06971138735898 103.88538171484045,151.07289732920947 104.15300083028336,151.0835171353778 C104.15300083028336,151.23219442173502 104.15300083028336,151.37556180500803 104.15300083028336,151.52105314951467 C103.92042707519606,151.69097004820858 103.58696516150923,151.56671831603865 103.34483358087039,151.39573943672787 C103.03898316322133,151.12493437943445 102.60357111031813,150.3996016181348 102.35188170412776,150.03215632470912 C102.20426639838743,149.81338831764074 101.68920579922145,149.69975639163914 101.48318155955504,149.53196345417894 C101.48318155955504,149.4108976638595 101.48318155955504,149.2855839510727 101.48318155955504,149.16133221890277 C101.68920579922145,149.14115458718285 101.89523003888783,149.11885299422934 102.10125427855422,149.0965514012757 C102.12355587150776,149.0540721766023 102.14479548384453,149.01584087439613 102.16603509618128,148.9744236303395 C102.08426258868481,148.9085808320956 102.00249008118838,148.8491099175527 101.91859361245825,148.78751504177615 C101.6329208265291,148.80025880917822 101.65309845824898,148.7737092937573 101.66902816750158,148.3531649694898 C101.52566078422855,148.3106857448163 101.3801694397219,148.27245444261015 101.23680205644887,148.2310371985535 C101.23680205644887,148.3106857448163 101.23680205644887,148.39458221354644 101.23680205644887,148.47847868227657 C101.11255032427896,148.456177089323 100.9851126502585,148.4359994576031 100.86298487932225,148.41688380650004 C100.94475738681868,148.24909086903975 101.02652989431515,148.08235991219638 101.11255032427896,147.9166909359698 C100.79714208107835,147.485526805534 100.43288272950323,147.2402092830446 99.87003300257962,147.0479907913971 C99.93162787835617,146.92692500107765 99.99428473474953,146.80161128829093 100.05694159114292,146.677359556121 C97.88625321032804,145.04509534804242 96.64161192739503,142.37315211608046 94.46773760472963,140.71327641196422 C93.6149671694095,140.06440625507673 91.91367422123656,139.65554371759453 91.42622511810838,138.6689637245529 C91.2584321806481,138.34399765580082 92.17810739482901,136.96129889267894 92.11014063535144,136.0586153683675 C92.4223629367015,135.93648759743127 92.7292753349674,135.81223586526133 93.0414976363175,135.68798413309136 C93.10203053147721,135.19097720441164 93.16681134910428,134.69290829511507 93.2284062248808,134.198025327669 C93.68187194827023,133.99306306861948 94.1374616328933,133.78597684833622 94.5930513175164,133.5767666668193 C94.90527361886646,133.12967282713097 94.64296440650774,132.52221991430017 95.09005824619614,132.21318355480057 C95.54564793081921,132.04539061734036 96.0012376154423,131.8807836217306 96.45682730006538,131.71405266488722 C96.74462404722824,131.32111983665752 97.03560673624159,130.92818700842776 97.32552744463807,130.5373781414318 C97.84165002442089,130.5373781414318 98.3588345848205,130.5373781414318 98.87708112583698,130.5373781414318 C100.15782974974246,129.85346262418872 101.44388827673208,129.17273304879615 102.72676086187121,128.48881753155308 C103.30023039496321,127.71463366187893 106.07412376614154,126.89159868383027 107.75205314074407,126.81195013756744 C109.19740876025924,124.58710074529387 109.55635820875017,125.38571016915535 112.34724326979787,125.69474652865489 C112.59256079228726,125.3049996422757 112.59468475352088,124.84091411271794 112.4088381455744,124.32691549416882 C112.51291224602448,124.30567588183206 112.61592436585767,124.28868419196266 112.71893648569085,124.26425863777541 C112.74123807864441,123.08758411431995 112.7603537297475,121.90559968778035 112.78265532270103,120.72786318370811 C112.31219790944226,120.48360764183562 111.62934437281604,120.82450341984025 110.92206528200262,120.66202038546422 C110.11071209073913,120.48148368060194 109.9471670757462,119.74871705498438 109.30573078317661,119.48534586200878 C108.9350995479005,119.40251137389549 108.56128237077388,119.32180084701588 108.18852717426407,119.23790437828575 C107.81683395837112,118.6591249421096 107.44407876186133,118.07609758346607 107.07026158473468,117.49944210852351 C105.65570340310774,115.70681882730267 104.00644750515983,114.06287283243887 102.66410400547782,112.16405148953427 C101.65734638071633,110.73143963742112 99.19461333027124,106.07784057444124 97.44977917680802,105.8261511682509 C97.782179109878,104.42327477340916 96.92303679085684,102.34391672564226 97.63668776537133,101.23308500043072 C97.26499454947839,100.51518610344891 96.7924131749859,99.66878755182972 96.39629440490569,99.00292570507295 C96.69364897762004,98.24042362218398 96.22425354497805,97.78270997632723 96.39629440490569,96.8301133630244 C96.58745091593634,95.7585749206358 97.27561435564672,94.42260330465484 96.8922393529686,93.2278751107132 C97.7195222534846,92.73299214326713 98.54892911523434,92.23386125335367 99.37515003513357,91.73791630529084 C100.68988203877778,90.73328264176294 101.23361611459836,89.11801012355386 103.5349281112842,89.06915901517931 C103.13880934120401,91.6179124955882 101.44601223796576,92.96662787897122 100.73979512776917,95.15324596903875 C100.15251984665827,96.9745427269142 100.43819263258744,98.88398387598718 98.62963964211394,99.56258949014608 C98.56804476633741,99.64330001702572 98.50751187117768,99.72719648575577 98.44485501478432,99.80684503201857 C98.65087925445071,99.76436580734509 98.85902745535074,99.72613450513896 99.06611367563399,99.68471726108231 C99.08522932673705,99.70383291218536 99.10646893907376,99.72719648575577 99.12770855141054,99.74631213685885 C98.9407999628472,99.95233637652527 98.75601533551756,100.15836061619169 98.56910674695425,100.36757079770854 C98.59034635929099,100.40898804176518 98.61264795224457,100.45146726643867 98.63070162273077,100.48969856864483 C98.67424282802112,100.50881421974785 98.71247413022724,100.53111581270147 98.75601533551756,100.55447938627188 C98.85902745535074,100.45146726643867 98.9631015558008,100.34526920475497 99.06611367563399,100.24225708492176 C99.0236344509605,100.36757079770854 98.98434116813752,100.48969856864483 98.9407999628472,100.61607426204841 C100.00596652153473,100.10419960473297 100.27358563697767,98.52078650502895 100.92670371633247,97.57456177542713 C101.65097449701534,96.66338240618097 102.37524527769817,95.75326501755163 103.10057803899782,94.84208564830547 C103.51899840203163,94.1921535108012 103.52112236326533,93.16840419617031 104.21884362852725,92.79564899966053 C104.2570749307334,92.75316977498704 104.30061613602372,92.7117525309304 104.3409713994635,92.66927330625691 C103.49138690599389,94.65199111789161 100.38403162112873,99.82808464435533 101.29945891284223,101.85859158374774 C101.320698525179,101.85859158374774 101.34087615689889,101.85859158374774 101.35999180800195,101.85859158374774 C103.36925913505763,100.17216636421054 103.70165906812761,96.23859015944612 105.89464904189607,94.5330492888059 C105.91376469299914,94.55322692052573 105.93394232471908,94.57552851347938 105.95730589828949,94.5946441645824 C105.05037445151065,97.26658739654442 102.5483481182426,100.23376123998707 103.2853626663275,103.78396244207329 C104.1678685589191,103.03739006843682 104.34734328316453,101.63982357667928 105.27126641981275,100.92935854401534 C105.29356801276633,100.94847419511842 105.31480762510306,100.96758984622141 105.33498525682297,100.99095341979191 C105.06949010261373,101.96266568419779 104.79549910346975,102.93543992922045 104.5300039492605,103.90715219362636 C104.62027230169164,104.46363003684897 105.04718850966012,104.60593543950512 105.08541981186627,105.39711099904872 C105.7406618524547,104.74717886154446 106.13040873883389,102.80587829396634 106.45006490450186,101.92124844014108 C106.53289939261515,101.86071554498142 106.61360991949476,101.79912066920485 106.69856836884173,101.7343398515778 C106.73892363228154,102.75808916620869 106.54670514063403,103.65015288435177 106.38740804810847,104.52841085447605 C106.38740804810847,106.24775747313518 106.38740804810847,107.96285616932698 106.38740804810847,109.68220278798611 C106.40970964106205,109.68220278798611 106.43094925339878,109.68220278798611 106.45006490450186,109.68220278798611 C106.53289939261515,109.32750126196257 106.61360991949476,108.97704765840635 106.69856836884173,108.62659405485013 C106.69856836884173,108.58517681079348 106.69856836884173,108.54375956673684 106.69856836884173,108.50234232268019 C106.82069613977802,108.70624260111293 106.94494787194793,108.91757674386346 107.07026158473468,109.12253900291299 C107.11380279002498,109.14484059586661 107.15309607284797,109.16395624696963 107.19451331690459,109.18519585930645 C107.60762377685421,107.72709647238915 108.32339871260234,106.30722838767807 108.37224982097689,104.59212969148626 C108.37224982097689,105.08807463954918 108.37224982097689,105.5872055294625 108.37224982097689,106.08208849690857 C108.37224982097689,107.5274441164238 108.44446450292179,109.05669620466915 109.05828929945358,109.93176823294283 C109.05828929945358,109.97318547699956 109.05828929945358,110.01460272105615 109.05828929945358,110.05389600387912 C109.32590841489653,109.08536968132373 109.59565149157314,108.10834751383365 109.86327060701609,107.13663524942777 C111.03463522738733,108.17312833146073 110.3857650704999,111.17640951587589 111.10578792871539,112.66105841821403 C111.12808952166898,112.70459962350432 111.14720517277203,112.74283092571042 111.16844478510882,112.78531015038396 C111.27464284679252,111.52367717758153 111.37553100539202,110.26098222416232 111.47960510584204,109.00041123197676 C111.50084471817877,109.00041123197676 111.51996036928182,109.00041123197676 111.54226196223544,109.00041123197676 C111.87466189530545,111.34632641456975 112.69769687335412,112.52406291864207 114.21208123296373,113.53400648525405 C114.2343828259173,111.52473915819837 114.25562243825402,109.5175957923764 114.27473808935713,107.50832846532077 C114.31827929464743,107.48815083360088 114.35544861623671,107.46903518249775 114.39898982152707,107.44673358954424 C115.57778830621615,109.90840465937242 116.75977273275572,112.37432365166802 117.93750923682802,114.83705670211307 C118.29008680161792,114.91564326775904 118.64054040517414,114.99953973648917 118.9920559893472,115.0834362052193 C119.01435758230076,115.0834362052193 119.03559719463749,115.0834362052193 119.05577482635744,115.0834362052193 C118.8975397144487,114.05968689058835 117.6210390130106,113.7049853645648 117.25571768081866,112.78531015038396 C117.05500334423647,112.27662143491901 117.4118288314937,111.50031360401118 117.3173125565952,111.17216159340848 C117.11128831692884,110.11655286027252 116.90526407726247,109.06094412713648 116.69711587636237,108.00533539400047 C117.44262626938198,109.36998048663605 118.18707468178474,110.73462557927164 118.93152309418747,112.10245661375774 C118.97294033824414,112.12157226486079 119.0164815435345,112.14387385781438 119.05577482635744,112.16723743138479 C119.07701443869414,112.12157226486079 119.09931603164773,112.08015502080414 119.12055564398446,112.04298569921482 C119.0164815435345,111.71058576614487 118.91346942370126,111.37924781369173 118.80727136201756,111.04684788062175 C118.80727136201756,111.02560826828503 118.80727136201756,111.00436865594821 118.80727136201756,110.98419102422838 C118.86992821841096,110.98419102422838 118.93152309418747,110.98419102422838 118.99524193119771,110.98419102422838 C119.6547318942535,111.55022669300249 120.17616437712047,112.30317095033996 121.1053974168529,112.59840156182062 C120.75069589082935,112.15024574151545 120.29829214805676,111.92510585074595 120.17616437712047,111.23375646918504 C120.25899886523376,111.27517371324168 120.3375854308797,111.31659095729833 120.42041991899302,111.35907018197182 C120.25899886523376,111.07021145419216 120.08801998592301,110.77922876517877 119.92447497093008,110.49143201801596 C119.886243668724,110.27160203033071 119.84270246343365,110.42558921977206 120.04660274186637,110.24399053429289 C119.98394588547296,110.07619759683269 119.92447497093008,109.90946663998926 119.86181811453673,109.74485964437949 C119.7057069638617,109.60574018357391 119.82677275418109,109.66414911749987 119.61225266958002,109.68220278798611 C119.43702586780194,109.3954680214402 119.35206741845496,109.20218754917579 119.36693514709069,108.68606496939296 C119.44870765458711,108.81244066279666 119.53048016208356,108.9366923949666 119.61225266958002,109.06094412713648 C119.63455426253364,109.06094412713648 119.65579387487037,109.06094412713648 119.67597150659026,109.06094412713648 C119.96483023436991,108.70624260111293 119.4019805074463,107.5901009728172 119.73969034360047,106.88813178508786 C119.73969034360047,106.84565256041444 119.73969034360047,106.80423531635779 119.73969034360047,106.76281807230114 C120.76237767761455,106.83715671547978 120.85583197189618,107.99896351029946 120.73370420095995,108.99934925135992 C120.79529907673651,108.91545278262979 120.8590179137467,108.83261829451655 120.9216747701401,108.75190776763685 C121.46753280719432,108.85916780993747 121.71178834906686,109.16820416943702 121.85303177110617,109.68220278798611 C121.89232505392914,109.70131843908925 121.93374229798576,109.72043409019224 121.97515954204243,109.74485964437949 C121.997461134996,109.74485964437949 122.01551480548224,109.74485964437949 122.03781639843578,109.74485964437949 C121.97515954204243,109.53564946286264 121.91462664688271,109.32750126196257 121.85303177110617,109.12253900291299 C122.54225719143338,109.6365376214622 123.01059064345853,111.09145106652886 123.34192859591167,111.91661000581121 C123.38015989811782,111.93678763753113 123.42370110340815,111.95802724986788 123.46618032808163,111.98245280405519 C122.78545075268909,109.17245209190443 122.11958890593229,106.3114763101454 120.8590179137467,104.03565184826363 C121.17761209879782,104.30327096370655 125.17384515995556,109.35298879676665 125.20251863661014,109.49848014127332 C125.2237582489469,109.4177696143937 125.24393588066678,109.33068720381311 125.26517549300354,109.2521006381671 C125.61775305779344,109.48042647078708 125.97033062258336,109.70450438093974 126.32290818737326,109.93495417479335 C125.92678941729301,109.39759198267384 125.41066683751023,109.11616711921198 125.38942722517348,108.19649190503114 C125.21951032647956,108.2687065869761 125.28747708595714,108.23790914908778 125.1409237608336,108.2580867808077 C125.1026924586275,108.15507466097449 125.05915125333715,108.04887659929076 125.01879598989737,107.94905042130813 C125.1026924586275,107.96922805302799 125.18446496612393,107.98728172351423 125.26517549300354,108.01064529708464 C124.91472188944732,107.21522181507373 124.81914363393199,107.07397839303437 124.52178906121765,106.14686931453562 C124.52178906121765,106.12775366343257 124.52178906121765,106.10757603171265 124.52178906121765,106.08527443875914 C124.72781330088401,106.10757603171265 124.93383754055043,106.12775366343257 125.1409237608336,106.14686931453562 C124.6269251422845,104.86612069063017 124.10761662065119,103.58112414425739 123.5893700796347,102.30037552035193 C123.3196270029581,101.88514109916866 123.0520078875152,101.47309261983588 122.78226481083854,101.05785819865261 C123.75503905586129,101.96797558728196 124.72781330088401,102.87915495652814 125.7005875459067,103.7903343257743 C125.67828595295316,103.72555350814719 125.65917030185008,103.66502061298752 125.63793068951335,103.60342573721096 C126.06059897501447,103.81582186057838 126.24856954419462,104.05370551874987 126.57034967109627,104.34681216899693 C126.08714849043542,101.92337240137482 124.160715651493,100.79979690876121 124.20850477925069,97.6425285349047 C124.68533407621052,98.36998525743809 125.16003941193668,99.09107009627041 125.63793068951335,99.81534087695326 C127.08328630902852,101.74283569651246 129.64690751807314,104.14715981303152 130.54003321683308,106.3974967401092 C130.74605745649947,106.58121938682203 130.95526763801635,106.76812797538531 131.16341583891642,106.95397458333181 C131.0986350212894,106.83184681239555 131.03810212612964,106.70653309960875 130.9765072503531,106.58015740620513 C131.03810212612964,106.56104175510208 131.0986350212894,106.54086412338216 131.16341583891642,106.51856253042865 C131.38218384598485,106.68316952603834 131.43315891559303,106.85308642473228 131.72095566275587,106.952912602715 C131.6359972134089,106.80848323882515 131.557410647763,106.66299189431845 131.472452198416,106.51856253042865 C131.5138694424726,106.51856253042865 131.557410647763,106.51856253042865 131.59457996935225,106.51856253042865 C131.6359972134089,106.47926924760566 131.6795384186992,106.43466606169847 131.72095566275587,106.39643475949237 C132.2699996416606,106.67998358418785 133.07922887169045,107.00176371108947 133.08772471662516,107.94798844069123 C133.27038538272112,107.82267472790451 133.45941793251808,107.69736101511774 133.64207859861403,107.57417126356461 C133.67181405588548,107.36177514019727 133.61977700566047,107.29380838071964 133.51888884706096,107.07822631550178 C133.55924411050077,107.03574709082824 133.6006613545574,106.99432984677159 133.64420255984774,106.952912602715 L133.64207859861403,106.952912602715 L133.63889265676355,106.952912602715 C133.67924792020335,106.913619319892 133.72066516426,106.86901613398484 133.76420636955032,106.83078483177871 C134.55113400662654,107.34265948909419 135.14159522958795,108.15188871912397 136.05914648253514,108.50446628391387 C135.95082445961776,108.31755769535059 134.39077493348415,106.23501370573311 134.31856025153925,106.20952617092902 C134.27926696871626,106.14474535330197 134.2378497246596,106.08421245814225 134.19643248060297,106.02261758236568 C134.2378497246596,105.98013835769225 134.27926696871626,105.93872111363561 134.31856025153925,105.89730386957896 C134.80600935466745,106.23501370573311 135.20637604721497,106.60564494100922 135.37629294590894,107.26513490406506 C135.41346226749823,107.28425055516811 135.45487951155485,107.30336620627119 135.49735873622834,107.3267297798416 C135.4750571432748,107.24283331111147 135.45487951155485,107.15893684238134 135.43363989921815,107.07928829611862 C135.5823171855753,107.18230041595174 135.72356060761464,107.28531253578495 135.8690519521213,107.39151059746868 C135.64497404196868,106.54192610399906 134.4608656541954,106.01093579558051 135.2488552718885,105.46401577790945 C135.3115121282819,105.57021383959315 135.37310700405843,105.67004001757581 135.43363989921815,105.77623807925951 C135.77347369660598,105.34507394882374 134.5267084524393,103.58112414425739 134.1932465387525,103.04376195213783 C134.1932465387525,103.02464630103484 134.1932465387525,103.00234470808118 134.1932465387525,102.98216707636126 C134.21554813170607,102.98216707636126 134.23678774404277,102.98216707636126 134.25590339514585,102.98216707636126 C135.40178048071303,103.59386791165946 135.97631199442185,104.9096618959205 137.67017107827695,104.90753793468681 C137.67017107827695,104.8852363417333 137.67017107827695,104.86612069063017 137.67017107827695,104.84594305891028 C137.26874240511256,104.75248876462862 136.7462479416287,104.66222041219748 136.55296746936435,104.34681216899693 C136.4934965548215,104.10574256897493 136.5455336050465,104.23742816546272 136.73987605792766,103.9761809337208 C136.33419946229594,103.4260749741992 135.6163005653141,103.0012827274644 135.37629294590894,102.36090841551166 C135.45487951155485,102.38108604723149 135.53877598028498,102.40338764018514 135.62054848778143,102.42250329128814 C135.5578916313881,102.34179276440858 135.49735873622834,102.25895827629529 135.43363989921815,102.17506180756516 C135.45487951155485,102.136830505359 135.4750571432748,102.09116533883508 135.49735873622834,102.04974809477844 C137.09351560333442,101.83735197141101 137.7838030042785,103.31775295128182 138.7884366678063,103.79139630639114 C138.7077261409267,103.58218612487423 138.62276769157972,103.37616188520781 138.5420571647001,103.17013764554144 C139.11658867840896,103.08624117681131 139.76545883529636,103.08624117681131 139.84510738155913,103.23173252131807 C139.88758660623265,103.2742117459915 139.92794186967242,103.31562899004814 139.97042109434594,103.35704623410479 C140.03201597012247,103.27314976537465 140.0904249040485,103.19031527726136 140.1583916635261,103.10641880853123 C139.01357655857575,101.58778652645427 137.10732135135328,100.75094580038666 135.6226724490151,99.57214731569763 C134.3249321352403,98.53884017551513 133.31817451047874,96.41487894184112 132.52062706723416,94.91111438839985 C133.57623580037017,95.27537373997498 134.13802354667695,96.16000359380021 134.93875693177208,96.77489037094884 C136.5104882446909,97.87297832875836 138.0854054994602,98.97000430595097 139.65607483176217,100.06809226376049 C140.73186119661807,100.8412141528178 140.78177428560943,101.654691305315 142.63599244260686,101.61646000310884 C142.5733355862135,101.45291498811599 142.51598863290428,101.28830799250628 142.45120781527723,101.12476297751334 C142.45120781527723,101.10246138455977 142.45120781527723,101.0801597916062 142.45120781527723,101.05998215988629 C143.0289252708366,101.16299427971944 143.61089064886326,101.26600639955265 144.18754612380582,101.36901851938586 C143.4781430717586,99.13885922402807 142.56696370251248,99.65710576504455 140.83805925830177,98.70132320989123 C140.30069706618224,98.24785748650189 139.7633348740627,97.79014384064507 139.2227867400927,97.33667811725564 C139.2227867400927,97.25278164852551 139.2227867400927,97.17207112164593 139.2227867400927,97.08923663353264 C140.999480312061,96.99259639740043 142.576521528064,97.1603893348607 144.31285983659257,97.39827299303221 C144.31285983659257,97.37915734192913 144.31285983659257,97.35897971020921 144.31285983659257,97.33667811725564 C143.91992700836283,96.84816703351063 143.14892908053915,96.44142845726205 142.3269560831073,96.40319715505589 C142.3269560831073,96.30018503522268 142.3269560831073,96.19717291538953 142.3269560831073,96.09416079555632 C142.472447427614,96.05168157088278 142.61475283027013,96.01026432682613 142.7602441747768,95.97203302462012 C142.7825457677304,95.93061578056341 142.80166141883345,95.88813655588993 142.8229010311702,95.84671931183325 C142.2324398082088,95.4346708325005 141.4667517834693,95.40599735584593 141.02390586624824,94.85164347385697 C140.98355060280844,94.85164347385697 140.94000939751814,94.85164347385697 140.90177809531198,94.85164347385697 C140.90177809531198,94.83252782275395 140.90177809531198,94.81022622980032 140.90177809531198,94.79004859808046 C143.9464765237838,94.52030552140383 146.19362750901095,96.20566876032422 148.28572932417987,97.21030242385203 C148.32820854885338,97.1264059551219 148.36750183167632,97.04569542824231 148.41104303696665,96.96286094012905 C149.1140742053128,97.21030242385203 149.8171053736589,97.45880588819185 150.520136542005,97.70943331376543 C150.98846999403014,97.90908566973084 151.16369679580822,98.3657373349707 151.69999700731094,98.51441462132794 C151.55662962403795,98.34662168386768 151.41007629891445,98.18307666887475 151.2656469350246,98.01528373141454 zM88.1351471865304,137.3722853913949 C87.34928153007101,137.0802407217647 86.56341587361159,136.78925803275138 85.7775502171522,136.50039930497167 C85.54922438453224,135.64762886965156 85.44621226469903,134.68866037264766 85.46851385765264,133.5236676359775 C86.52093664893813,134.3042233893527 87.66362779265476,135.65400075335262 88.1351471865304,136.9984682142683 C88.1351471865304,137.12165796582136 88.1351471865304,137.24697167860808 88.1351471865304,137.3722853913949 zM119.98075994362247,108.4439333887542 C119.9414666607995,108.40570208654805 119.90004941674289,108.36003692002402 119.85863217268621,108.32180561781792 C119.83633057973262,108.36003692002402 119.81509096739592,108.40570208654805 119.79385135505916,108.4439333887542 C119.85544623083572,108.4439333887542 119.91916506784594,108.4439333887542 119.98075994362247,108.4439333887542 zM151.01926743191842,96.09097485370583 C150.97572622662813,96.09097485370583 150.9353709631883,96.09097485370583 150.89395371913164,96.09097485370583 C151.00652366451635,96.14513586516449 150.91094540900102,96.15150774886555 151.01926743191842,96.09097485370583 zM133.76420636955032,106.95397458333181 C133.72066516426,106.95397458333181 133.68243386205387,106.95397458333181 133.63889265676355,106.95397458333181 L133.63889265676355,106.95397458333181 C133.74296675721357,107.01132153664099 133.65376038539924,107.01450747849148 133.76420636955032,106.95397458333181 zM108.49650155314683,111.42491298021571 C108.5368568165866,111.44721457316922 108.58039802187696,111.46633022427235 108.6218152659336,111.48756983660911 C108.61119545976521,111.05640570617325 108.52411304918456,110.77179490086095 108.31065494520035,110.55727481625985 C108.37118784036005,110.8461335440395 108.4359686579871,111.13393029120232 108.49650155314683,111.42491298021571 zM132.08733897556468,107.5104524265544 C132.06503738261105,107.39151059746868 132.04379777027435,107.26619688468188 132.0225581579376,107.13982119127826 C131.91848405748755,107.07822631550178 131.81547193765437,107.01450747849148 131.713521798438,106.952912602715 C131.69122020548443,106.99539182738849 131.67210455438138,107.03680907144513 131.6476790001941,107.07822631550178 C131.79741826716813,107.22371766000839 131.94184763105795,107.36920900451508 132.08733897556468,107.5104524265544 zM103.47014729365715,150.59075812916547 C103.49032492537705,150.6321753732221 103.50944057648013,150.6735926172787 103.5317421694337,150.71713382256902 C103.71652679676335,150.75430314415834 103.90343538532666,150.7989063300655 104.09034397388997,150.83713763227163 C103.94697659061697,150.54934088510882 103.78343157562408,150.50473769920168 103.5317421694337,150.3422546648256 C103.50944057648013,150.42721311417253 103.49032492537705,150.51110958290266 103.47014729365715,150.59075812916547 zM102.16497311556442,148.42113172896742 C102.10550220102155,148.42113172896742 102.0407213833945,148.42113172896742 101.9801884882348,148.42113172896742 C102.00142810057154,148.46042501179033 102.02160573229145,148.50184225584698 102.0407213833945,148.54325949990366 C102.08320060806798,148.50290423646382 102.12355587150776,148.46148699240717 102.16497311556442,148.42113172896742 zM104.89744924268612,104.84488107829344 C104.85815595986314,104.84488107829344 104.81461475457283,104.84488107829344 104.77319751051618,104.84488107829344 C104.88364349466723,104.900104070369 104.78912721976874,104.90329001221949 104.89744924268612,104.84488107829344 zM102.91154548920085,150.0353422665596 C102.86800428391054,149.889850922053 102.82658703985389,149.74329759692952 102.78835573764776,149.60099219427335 C102.74481453235745,149.74329759692952 102.70233530768397,149.889850922053 102.66091806362735,150.0353422665596 C102.74481453235745,150.0353422665596 102.82658703985389,150.0353422665596 102.91154548920085,150.0353422665596 zM137.7328279346703,86.96537541322522 C137.69141069061365,86.96537541322522 137.649993446557,86.96537541322522 137.6117621443509,86.96537541322522 C137.72008416726828,87.02059840530072 137.6266298729866,87.0269702890017 137.7328279346703,86.96537541322522 zM101.1741452000555,147.4908367086182 C101.11148834366209,147.4908367086182 101.0488314872687,147.4908367086182 100.98405066964163,147.4908367086182 C101.00529028197838,147.53225395267484 101.02652989431515,147.57367119673148 101.0488314872687,147.61508844078813 C101.08918675070854,147.57367119673148 101.1306039947652,147.53225395267484 101.1741452000555,147.4908367086182 zM100.80139000354569,94.35251258394356 C100.78015039120895,94.39499180861705 100.7589107788722,94.43322311082318 100.73660918591862,94.47782629673034 C100.92351777448194,94.39711576985079 100.81200980971403,94.48101223858083 100.92351777448194,94.35251258394356 C100.88316251104213,94.35251258394356 100.84068328636864,94.35251258394356 100.80139000354569,94.35251258394356 zM103.34483358087039,150.34437862605924 C103.26093711214025,150.2403045256092 103.1812885658775,150.13941636700972 103.09739209714736,150.0353422665596 C103.11863170948408,150.13941636700972 103.13774736058717,150.2403045256092 103.15898697292388,150.34437862605924 C103.21951986808361,150.34437862605924 103.28217672447697,150.34437862605924 103.34483358087039,150.34437862605924 zM104.46309917039979,150.9645753062921 C104.41955796510943,150.9645753062921 104.37920270166966,150.9645753062921 104.337785457613,150.9645753062921 C104.4492934223809,151.02298424021808 104.35477714748241,151.02723216268544 104.46309917039979,150.9645753062921 z" id="svg_11" stroke="null" fill="#7f003f" transform=""/></g></g><defs><path id="svg_3" d="M84.46065,215.69913Q88.41064,217.69913 92.36402,215.44913" stroke="#000000" fill="#000000"/><path id="svg_6" d="M65.40929,217.62865Q74.35929,216.87865 83.35876,217.72188" stroke="#000000" fill="#000000"/><path id="svg_8" d="M80.26575,195.14854Q123.36576,197.14854 166.50426,194.89854" stroke="#000000" fill="#000000"/><path id="svg_10" d="M59.60816,198.61845Q63.55816,200.61845 67.51153,198.36845" stroke="#000000" fill="#000000"/><path fill="#000000" stroke="#000000" d="M-2580.8938,2860.23022A2635.60596,2635.60596 0 0 1 2690.31812,2860.23022A2635.60596,2635.60596 0 0 1 -2580.8938,2860.23022A2635.60596,2635.60596 0 0 1 2690.31812,2860.23022A2635.60596,2635.60596 0 0 1 -2580.8938,2860.23022" id="svg_13"/><path fill="#000000" stroke="#000000" d="M-904.4043,1015.32892A916.73248,916.73248 0 0 1 929.06067,1015.32892A916.73248,916.73248 0 0 1 -904.4043,1015.32892A916.73248,916.73248 0 0 1 929.06067,1015.32892A916.73248,916.73248 0 0 1 -904.4043,1015.32892" id="svg_15"/><path fill="#000000" stroke="#000000" d="M-862.00427,1046.57898A916.73248,916.73248 0 0 1 971.46069,1046.57898A916.73248,916.73248 0 0 1 -862.00427,1046.57898A916.73248,916.73248 0 0 1 971.46069,1046.57898A916.73248,916.73248 0 0 1 -862.00427,1046.57898" id="svg_18"/><path fill="#000000" stroke="#000000" d="M-2010.24353,2689.23022A2635.60596,2635.60596 0 0 1 3260.96838,2689.23022A2635.60596,2635.60596 0 0 1 -2010.24353,2689.23022A2635.60596,2635.60596 0 0 1 3260.96838,2689.23022A2635.60596,2635.60596 0 0 1 -2010.24353,2689.23022" id="svg_21"/><mask id="canvasMaskImageDef" maskUnits="objectBoundingBox" x="0" y="0"><image xmlns:xlink="http://www.w3.org/1999/xlink" id="canvasMaskImage" preserveAspectRatio="none" x="-103.65" y="-36.45" width="400" height="440.0580551523948" xlink:href="http://192.168.0.222/dnb_products/Test/AIOPDV23/media/catalog/product/w/h/white-tees-1_-front_1_3.png"/></mask></defs></svg>