<?xml version="1.0" encoding="utf-8"?>
<!-- Generator: Adobe Illustrator 16.0.0, SVG Export Plug-In . SVG Version: 6.00 Build 0)  -->
<!DOCTYPE svg PUBLIC "-//W3C//DTD SVG 1.1//EN" "http://www.w3.org/Graphics/SVG/1.1/DTD/svg11.dtd">
<svg version="1.1" id="Layer_1" xmlns="http://www.w3.org/2000/svg" xmlns:xlink="http://www.w3.org/1999/xlink" x="0px" y="0px"
	 width="100px" height="100px" viewBox="0 0 100 100" enable-background="new 0 0 100 100" xml:space="preserve">
<path d="M63.592,4.275c0,0-0.625-0.297-0.596-1.012c0.029-0.714,0.715-1.518,1.992-1.34c1.283,0.179,2.086,1.221,1.759,2.709
	c-0.326,1.489-2.826,2.471-5.39,1.191c-2.559-1.279-3.242-1.697-5.685-1.697c0,0,2.531-0.238,5,0.803
	c2.474,1.042,4.05,0.269,4.406-0.535c0.356-0.805-0.091-1.339-0.535-1.339C64.1,3.056,63.324,3.234,63.592,4.275z M57.729,5.557
	c0,0,3.481,1.041,2.916,4.493c0,0,0.744-1.904-0.178-2.916C59.543,6.122,57.729,5.557,57.729,5.557z M61.092,7.401
	c0,0,1.487,1.905,0.178,3.78c0,0-0.268,0.298-0.028,0.417c0.237,0.119,2.055-1.191,1.876-2.68
	C63.116,8.919,61.895,7.909,61.092,7.401z M64.721,10.189c0,0,4.697,3.014,10.268,1.072c5.568-1.942,8.174-5.723,8.174-5.723
	s1.736-2.554,4.24-2.656c2.5-0.103,4.138,1.431,4.341,3.065c0.205,1.635-0.662,4.445-3.882,4.854c0,0-2.248,0.357-3.678-1.942
	c0,0-0.203-0.408,0-0.459c0.203-0.052,0.51,0.255,0.765,0.511c0.255,0.254,1.584,1.532,3.065,1.072s1.889-1.891,1.84-2.554
	c-0.052-0.663-0.459-2.197-2.248-2.248c-1.787-0.051-3.015,1.073-3.524,1.534c-0.509,0.458-4.392,3.78-9.041,5.055
	c-4.649,1.278-8.532-0.05-10.423-1.327C64.616,10.443,64.156,9.983,64.721,10.189z M76.826,10.189c0,0,5.568-2.657,5.16-5.262
	c-0.41-2.604-3.678-1.021-4.239-0.052c0,0-0.205,0.154-0.104,0.358c0.104,0.204,0.612-0.102,0.612-0.102s2.099-0.767,2.504,0.459
	C81.168,6.815,78.973,8.911,76.826,10.189z M82.598,5.13c0,0-0.815-2.452,1.176-3.524C83.773,1.606,84.539,3.853,82.598,5.13z
	 M36.433,4.275c0,0,0.624-0.297,0.596-1.012c-0.031-0.714-0.717-1.518-1.995-1.34c-1.28,0.179-2.083,1.221-1.756,2.709
	c0.327,1.489,2.826,2.471,5.387,1.191c2.561-1.279,3.245-1.697,5.687-1.697c0,0-2.53-0.238-5.001,0.803
	c-2.472,1.042-4.05,0.269-4.405-0.536c-0.357-0.804,0.089-1.339,0.534-1.338S36.699,3.234,36.433,4.275z M42.297,5.557
	c0,0-3.483,1.041-2.918,4.493c0,0-0.745-1.904,0.18-2.916C40.48,6.122,42.297,5.557,42.297,5.557z M38.933,7.401
	c0,0-1.487,1.905-0.178,3.78c0,0,0.267,0.298,0.028,0.417c-0.237,0.119-2.054-1.191-1.874-2.68
	C36.909,8.919,38.128,7.909,38.933,7.401z M35.305,10.189c0,0-4.699,3.014-10.269,1.072c-5.567-1.942-8.174-5.723-8.174-5.723
	s-1.737-2.554-4.239-2.656C10.12,2.779,8.485,4.313,8.28,5.948c-0.204,1.635,0.664,4.445,3.883,4.854c0,0,2.248,0.357,3.679-1.942
	c0,0,0.203-0.408,0-0.459c-0.205-0.052-0.511,0.255-0.768,0.511c-0.256,0.254-1.584,1.532-3.064,1.072
	c-1.481-0.46-1.89-1.891-1.84-2.554c0.053-0.663,0.461-2.196,2.25-2.248c1.787-0.051,3.012,1.073,3.523,1.532
	c0.511,0.46,4.394,3.782,9.043,5.057c4.647,1.278,8.53-0.05,10.421-1.327C35.407,10.443,35.866,9.983,35.305,10.189z M23.197,10.189
	c0,0-5.568-2.657-5.159-5.262c0.408-2.604,3.678-1.021,4.239-0.052c0,0,0.205,0.154,0.103,0.358
	c-0.103,0.204-0.612-0.102-0.612-0.102s-2.095-0.767-2.504,0.459C18.855,6.815,21.051,8.911,23.197,10.189z M17.425,5.13
	c0,0,0.817-2.452-1.176-3.524C16.249,1.606,15.486,3.853,17.425,5.13z M75.264,8.8c-0.148-0.505-1.043-0.326-1.043-0.326
	c0.625-1.31-0.984-1.161-0.746-1.489c0.238-0.328,0.924-1.549,0.508-1.876c-0.418-0.326-1.19,0.328-1.19,0.328
	c-1.905,1.459-3.751,1.965-3.751,1.965c-3.543,0.983-6.996-0.803-9.111-1.994c-2.113-1.19-4.226-1.042-4.226-1.042
	c-3.433,0.458-4.392,3.073-4.632,4.044h0.949c0.33-1.564,1.902-3.117,3.802-3.242c2.293-0.148,4.435,1.222,6.547,2.709
	c2.114,1.489,3.873,2.53,7.444,2.887C73.387,11.123,75.41,9.306,75.264,8.8z M44.321,4.366c0,0-2.115-0.148-4.228,1.042
	c-2.114,1.19-5.566,2.977-9.108,1.994c0,0-1.847-0.506-3.753-1.965c0,0-0.775-0.654-1.191-0.328
	c-0.415,0.328,0.269,1.549,0.507,1.876c0.238,0.327-1.369,0.179-0.744,1.489c0,0-0.894-0.18-1.04,0.326
	c-0.15,0.506,1.873,2.323,5.445,1.964c3.575-0.357,5.33-1.397,7.442-2.887c2.115-1.487,4.258-2.857,6.55-2.709
	c1.9,0.125,3.471,1.678,3.803,3.242h0.948C48.712,7.439,47.75,4.824,44.321,4.366z M52.191,8.67H47.65
	c-0.36,0-0.655,0.294-0.654,0.655L46.995,9.35c0,0.362,0.295,0.655,0.655,0.655h4.542c0.363,0,0.654-0.293,0.654-0.655V9.325
	C52.848,8.962,52.555,8.67,52.191,8.67z M95.725,36.408c0,0,0.297,0.626,1.012,0.597c0.715-0.031,1.519-0.716,1.34-1.996
	c-0.178-1.281-1.221-2.084-2.708-1.756c-1.49,0.327-2.472,2.828-1.188,5.387c1.276,2.561,1.694,3.247,1.694,5.688
	c0,0,0.237-2.53-0.806-5c-1.041-2.472-0.267-4.05,0.535-4.407c0.806-0.356,1.342,0.089,1.342,0.536
	C96.943,35.902,96.768,36.676,95.725,36.408z M94.443,42.272c0,0-1.041-3.484-4.496-2.918c0,0,1.906-0.744,2.918,0.18
	C93.879,40.456,94.443,42.272,94.443,42.272z M92.6,38.909c0,0-1.904-1.488-3.779-0.18c0,0-0.301,0.269-0.418,0.03
	c-0.12-0.239,1.189-2.055,2.68-1.875C91.081,36.884,92.092,38.104,92.6,38.909z M89.813,35.28c0,0-3.016-4.698-1.072-10.268
	c1.941-5.568,5.722-8.173,5.722-8.173s2.554-1.738,2.654-4.24c0.104-2.502-1.427-4.139-3.063-4.342
	c-1.636-0.204-4.443,0.663-4.855,3.884c0,0-0.354,2.246,1.943,3.676c0,0,0.408,0.204,0.459,0s-0.254-0.51-0.509-0.766
	c-0.257-0.255-1.534-1.583-1.073-3.064c0.461-1.483,1.892-1.89,2.553-1.84c0.664,0.051,2.197,0.459,2.25,2.248
	c0.05,1.789-1.074,3.014-1.533,3.524c-0.459,0.512-3.78,4.396-5.059,9.043c-1.275,4.65,0.053,8.531,1.328,10.422
	C89.557,35.383,90.018,35.843,89.813,35.28z M89.813,23.173c0,0,2.655-5.567,5.26-5.159c2.607,0.409,1.023,3.677,0.055,4.239
	c0,0-0.152,0.205-0.357,0.103c-0.205-0.103,0.102-0.613,0.102-0.613s0.768-2.095-0.46-2.503
	C93.186,18.831,91.091,21.028,89.813,23.173z M94.867,17.402c0,0,2.453,0.816,3.527-1.176
	C98.395,16.226,96.146,15.459,94.867,17.402z M95.725,63.568c0,0,0.297-0.627,1.012-0.599c0.715,0.031,1.519,0.718,1.34,1.996
	c-0.178,1.281-1.221,2.084-2.708,1.757c-1.49-0.326-2.472-2.826-1.188-5.39c1.276-2.56,1.694-3.244,1.694-5.685
	c0,0,0.237,2.529-0.806,4.998c-1.041,2.476-0.267,4.052,0.535,4.408c0.806,0.355,1.342-0.09,1.342-0.535
	C96.945,64.075,96.768,63.301,95.725,63.568z M94.443,57.703c0,0-1.043,3.482-4.495,2.918c0,0,1.905,0.744,2.917-0.18
	C93.879,59.52,94.443,57.703,94.443,57.703z M92.6,61.068c0,0-1.904,1.488-3.779,0.176c0,0-0.301-0.266-0.418-0.029
	c-0.119,0.24,1.189,2.055,2.68,1.875C91.081,63.09,92.092,61.869,92.6,61.068z M89.813,64.695c0,0-3.016,4.697-1.072,10.268
	c1.941,5.568,5.722,8.174,5.722,8.174s2.554,1.736,2.654,4.24c0.104,2.502-1.427,4.137-3.063,4.342
	c-1.636,0.205-4.443-0.664-4.855-3.883c0,0-0.354-2.246,1.943-3.678c0,0,0.408-0.203,0.459,0c0.051,0.205-0.254,0.51-0.511,0.766
	c-0.255,0.258-1.532,1.586-1.071,3.068c0.461,1.479,1.892,1.887,2.553,1.838c0.664-0.053,2.197-0.461,2.25-2.252
	c0.05-1.783-1.074-3.012-1.533-3.521c-0.459-0.512-3.78-4.395-5.059-9.041c-1.275-4.649,0.053-8.533,1.328-10.424
	C89.557,64.592,90.018,64.133,89.813,64.695z M89.813,76.803c0,0,2.655,5.568,5.26,5.16c2.607-0.41,1.023-3.68,0.055-4.24
	c0,0-0.154-0.207-0.357-0.104c-0.205,0.104,0.102,0.613,0.102,0.613s0.768,2.094-0.46,2.502
	C93.186,81.145,91.091,78.947,89.813,76.803z M94.867,82.576c0,0,2.453-0.818,3.527,1.174C98.395,83.75,96.146,84.516,94.867,82.576
	z M91.198,24.737c0.508,0.149,0.327,1.043,0.327,1.043c1.31-0.625,1.16,0.983,1.488,0.744c0.327-0.238,1.549-0.922,1.877-0.505
	c0.324,0.417-0.328,1.19-0.328,1.19c-1.459,1.906-1.965,3.753-1.965,3.753c-0.982,3.542,0.803,6.995,1.994,9.108
	c1.189,2.113,1.041,4.227,1.041,4.227c-0.458,3.43-3.074,4.39-4.045,4.631V47.98c1.563-0.331,3.118-1.905,3.241-3.802
	c0.149-2.292-1.22-4.435-2.708-6.549c-1.488-2.113-2.53-3.871-2.889-7.441C88.878,26.613,90.693,24.589,91.198,24.737z
	 M95.634,55.678c0,0,0.148,2.113-1.041,4.228c-1.19,2.116-2.976,5.567-1.993,9.11c0,0,0.504,1.846,1.965,3.752
	c0,0,0.651,0.773,0.328,1.191c-0.328,0.414-1.551-0.27-1.879-0.508s-0.179,1.369-1.486,0.744c0,0,0.18,0.893-0.328,1.043
	c-0.504,0.147-2.323-1.875-1.965-5.449c0.357-3.572,1.399-5.328,2.889-7.439c1.488-2.115,2.857-4.26,2.708-6.551
	c-0.122-1.902-1.679-3.471-3.241-3.803v-0.948C92.561,51.289,95.176,52.248,95.634,55.678z M91.331,47.807v4.544
	c0,0.356-0.295,0.651-0.656,0.651H90.65c-0.363,0-0.656-0.295-0.656-0.651v-4.544c0-0.362,0.293-0.655,0.654-0.655h0.025
	C91.036,47.152,91.331,47.445,91.331,47.807z M36.408,95.725c0,0,0.626,0.297,0.596,1.012c-0.03,0.716-0.715,1.519-1.993,1.339
	c-1.281-0.179-2.085-1.222-1.758-2.707c0.326-1.492,2.827-2.474,5.389-1.191c2.559,1.279,3.244,1.695,5.685,1.695
	c0,0-2.529,0.237-5-0.804c-2.471-1.043-4.049-0.268-4.406,0.535c-0.357,0.806,0.089,1.34,0.536,1.34
	C35.902,96.943,36.676,96.768,36.408,95.725z M42.272,94.443c0,0-3.483-1.041-2.918-4.496c0,0-0.744,1.904,0.181,2.918
	C40.457,93.877,42.272,94.443,42.272,94.443z M38.909,92.598c0,0-1.488-1.904-0.18-3.779c0,0,0.269-0.299,0.031-0.418
	c-0.239-0.118-2.056,1.191-1.876,2.681C36.885,91.08,38.105,92.09,38.909,92.598z M35.28,89.811c0,0-4.698-3.012-10.268-1.071
	c-5.568,1.94-8.173,5.723-8.173,5.723s-1.738,2.554-4.239,2.654c-2.504,0.104-4.141-1.429-4.344-3.063
	c-0.203-1.637,0.663-4.447,3.884-4.854c0,0,2.247-0.355,3.676,1.942c0,0,0.206,0.408,0,0.459c-0.203,0.051-0.51-0.254-0.764-0.512
	c-0.257-0.256-1.585-1.533-3.065-1.072c-1.483,0.461-1.891,1.894-1.841,2.553c0.051,0.666,0.46,2.199,2.248,2.25
	c1.788,0.05,3.015-1.071,3.524-1.532c0.512-0.459,4.396-3.779,9.043-5.058c4.648-1.276,8.531,0.052,10.422,1.326
	C35.384,89.555,35.844,90.016,35.28,89.811z M23.174,89.811c0,0-5.568,2.656-5.159,5.26c0.409,2.607,3.678,1.023,4.239,0.056
	c0,0,0.204-0.151,0.104-0.356c-0.104-0.205-0.615,0.1-0.615,0.1s-2.094,0.768-2.502-0.457
	C18.831,93.186,21.028,91.088,23.174,89.811z M17.401,94.867c0,0,0.816,2.455-1.175,3.527C16.227,98.395,15.46,96.146,17.401,94.867
	z M63.568,95.725c0,0-0.627,0.297-0.598,1.012c0.031,0.716,0.717,1.519,1.996,1.339c1.28-0.179,2.083-1.222,1.756-2.707
	c-0.328-1.492-2.828-2.474-5.387-1.191c-2.561,1.279-3.246,1.695-5.688,1.695c0,0,2.529,0.237,5-0.804
	c2.474-1.043,4.051-0.268,4.408,0.535c0.354,0.806-0.091,1.34-0.535,1.34C64.076,96.943,63.301,96.768,63.568,95.725z
	 M57.703,94.443c0,0,3.482-1.043,2.918-4.494c0,0,0.744,1.902-0.18,2.916C59.521,93.877,57.703,94.443,57.703,94.443z
	 M61.066,92.598c0,0,1.49-1.904,0.179-3.779c0,0-0.267-0.299-0.029-0.418c0.239-0.118,2.054,1.191,1.875,2.681
	C63.091,91.08,61.874,92.09,61.066,92.598z M64.695,89.811c0,0,4.699-3.012,10.268-1.071s8.176,5.723,8.176,5.723
	s1.736,2.554,4.238,2.654c2.502,0.104,4.139-1.429,4.344-3.063c0.203-1.637-0.664-4.447-3.883-4.854c0,0-2.248-0.355-3.68,1.942
	c0,0-0.204,0.408,0,0.459c0.205,0.051,0.512-0.254,0.768-0.512c0.254-0.256,1.584-1.533,3.065-1.072
	c1.479,0.461,1.888,1.894,1.839,2.553c-0.053,0.666-0.46,2.199-2.251,2.25c-1.784,0.05-3.013-1.071-3.522-1.532
	c-0.512-0.459-4.395-3.779-9.041-5.058c-4.646-1.276-8.531,0.052-10.423,1.326C64.593,89.555,64.133,90.016,64.695,89.811z
	 M76.803,89.811c0,0,5.569,2.656,5.16,5.26c-0.41,2.607-3.679,1.023-4.238,0.056c0,0-0.207-0.153-0.104-0.356
	c0.104-0.205,0.612,0.1,0.612,0.1s2.097,0.768,2.504-0.457C81.145,93.186,78.948,91.088,76.803,89.811z M82.575,94.867
	c0,0-0.816,2.455,1.175,3.527C83.75,98.395,84.516,96.146,82.575,94.867z M24.737,91.197c0.149,0.506,1.043,0.328,1.043,0.328
	c-0.625,1.309,0.983,1.16,0.743,1.488c-0.237,0.327-0.922,1.549-0.504,1.877c0.417,0.323,1.19-0.328,1.19-0.328
	c1.904-1.459,3.752-1.965,3.752-1.965c3.542-0.982,6.994,0.803,9.109,1.993c2.112,1.189,4.226,1.041,4.226,1.041
	c3.431-0.457,4.39-3.071,4.633-4.045H47.98c-0.331,1.563-1.902,3.119-3.802,3.242c-2.293,0.147-4.435-1.222-6.55-2.707
	c-2.113-1.49-3.871-2.531-7.441-2.892C26.614,88.877,24.591,90.693,24.737,91.197z M55.68,95.633c0,0,2.112,0.148,4.227-1.041
	c2.117-1.191,5.568-2.977,9.111-1.994c0,0,1.844,0.506,3.75,1.965c0,0,0.775,0.652,1.191,0.328c0.416-0.328-0.27-1.549-0.508-1.877
	s1.369-0.18,0.746-1.488c0,0,0.892,0.179,1.041-0.327c0.148-0.505-1.875-2.322-5.448-1.966c-3.573,0.359-5.327,1.4-7.44,2.892
	c-2.115,1.485-4.259,2.854-6.551,2.707c-1.9-0.123-3.47-1.679-3.801-3.242h-0.95C51.289,92.561,52.249,95.176,55.68,95.633z
	 M47.807,91.328h4.544c0.358,0,0.654-0.291,0.653-0.654l0.001-0.025c0-0.362-0.296-0.653-0.654-0.653h-4.544
	c-0.361,0-0.654,0.291-0.654,0.653v0.025C47.152,91.037,47.445,91.328,47.807,91.328z M4.275,63.592c0,0-0.297-0.627-1.013-0.596
	c-0.714,0.029-1.516,0.715-1.34,1.994c0.179,1.281,1.223,2.084,2.711,1.756c1.487-0.328,2.47-2.828,1.19-5.389
	c-1.279-2.558-1.696-3.244-1.696-5.687c0,0-0.238,2.531,0.803,5c1.042,2.474,0.269,4.052-0.534,4.408
	c-0.806,0.354-1.339-0.09-1.339-0.535C3.056,64.1,3.234,63.324,4.275,63.592z M5.558,57.727c0,0,1.042,3.482,4.493,2.918
	c0,0-1.904,0.744-2.916-0.18C6.121,59.543,5.558,57.727,5.558,57.727z M7.401,61.09c0,0,1.904,1.488,3.78,0.18
	c0,0,0.299-0.27,0.418-0.028c0.119,0.235-1.192,2.055-2.68,1.875C8.92,63.115,7.908,61.895,7.401,61.09z M10.188,64.719
	c0,0,3.015,4.699,1.072,10.268c-1.941,5.568-5.722,8.175-5.722,8.175S2.984,84.896,2.883,87.4c-0.104,2.502,1.429,4.138,3.064,4.341
	c1.635,0.204,4.444-0.66,4.854-3.884c0,0,0.357-2.243-1.942-3.676c0,0-0.407-0.203-0.458,0c-0.052,0.203,0.254,0.51,0.51,0.767
	c0.255,0.254,1.532,1.584,1.072,3.063c-0.46,1.482-1.891,1.891-2.554,1.84c-0.663-0.051-2.196-0.459-2.249-2.246
	c-0.05-1.787,1.075-3.016,1.534-3.524c0.46-0.513,3.78-4.396,5.058-9.041c1.275-4.649-0.051-8.531-1.329-10.424
	C10.443,64.615,9.983,64.156,10.188,64.719z M10.188,76.826c0,0-2.656,5.568-5.262,5.16c-2.605-0.41-1.021-3.678-0.051-4.242
	c0,0,0.152-0.203,0.357-0.102c0.204,0.102-0.103,0.61-0.103,0.61s-0.768,2.099,0.46,2.504C6.815,81.168,8.911,78.971,10.188,76.826z
	 M5.131,82.598c0,0-2.452-0.815-3.525,1.174C1.605,83.771,3.854,84.539,5.131,82.598z M4.275,36.432c0,0-0.297,0.624-1.013,0.596
	c-0.714-0.03-1.516-0.716-1.34-1.996c0.179-1.281,1.223-2.083,2.711-1.756c1.487,0.328,2.47,2.828,1.19,5.387
	c-1.279,2.561-1.696,3.246-1.696,5.688c0,0-0.238-2.531,0.803-5.001c1.042-2.471,0.269-4.05-0.535-4.404
	c-0.805-0.359-1.34,0.088-1.338,0.533C3.056,35.925,3.234,36.699,4.275,36.432z M5.558,42.295c0,0,1.042-3.482,4.493-2.917
	c0,0-1.904-0.745-2.916,0.179C6.121,40.48,5.558,42.295,5.558,42.295z M7.401,38.933c0,0,1.904-1.488,3.78-0.179
	c0,0,0.299,0.268,0.418,0.03c0.119-0.238-1.192-2.053-2.68-1.875C8.92,36.908,7.908,38.128,7.401,38.933z M10.188,35.303
	c0,0,3.015-4.699,1.072-10.267c-1.941-5.567-5.722-8.174-5.722-8.174s-2.554-1.736-2.655-4.239C2.78,10.12,4.313,8.484,5.948,8.28
	c1.635-0.205,4.444,0.664,4.854,3.882c0,0,0.357,2.249-1.942,3.679c0,0-0.407,0.204-0.458,0c-0.052-0.205,0.254-0.511,0.511-0.767
	c0.254-0.256,1.531-1.584,1.071-3.065c-0.46-1.482-1.891-1.889-2.554-1.839c-0.663,0.053-2.196,0.461-2.249,2.25
	c-0.05,1.786,1.075,3.012,1.534,3.524c0.46,0.51,3.78,4.394,5.058,9.042c1.275,4.648-0.051,8.532-1.329,10.422
	C10.443,35.407,9.983,35.867,10.188,35.303z M10.188,23.197c0,0-2.656-5.569-5.262-5.16c-2.605,0.41-1.021,3.679-0.051,4.24
	c0,0,0.152,0.204,0.357,0.103c0.204-0.103-0.103-0.613-0.103-0.613s-0.768-2.094,0.46-2.503
	C6.815,18.855,8.911,21.051,10.188,23.197z M5.131,17.424c0,0-2.452,0.816-3.525-1.175C1.605,16.249,3.854,15.483,5.131,17.424z
	 M8.801,75.264c-0.506-0.149-0.326-1.045-0.326-1.045c-1.31,0.625-1.162-0.982-1.489-0.744c-0.327,0.238-1.548,0.924-1.876,0.508
	c-0.326-0.418,0.328-1.19,0.328-1.19c1.459-1.906,1.964-3.754,1.964-3.754c0.983-3.541-0.802-6.992-1.994-9.108
	c-1.19-2.113-1.041-4.226-1.041-4.226c0.458-3.433,3.073-4.392,4.044-4.631v0.948c-1.563,0.33-3.116,1.902-3.241,3.802
	c-0.149,2.291,1.221,4.434,2.709,6.547c1.488,2.114,2.529,3.871,2.887,7.442C11.124,73.387,9.306,75.41,8.801,75.264z M4.366,44.321
	c0,0-0.149-2.115,1.041-4.228c1.192-2.114,2.978-5.567,1.994-9.111c0,0-0.505-1.846-1.964-3.751c0,0-0.654-0.774-0.328-1.19
	c0.328-0.416,1.549,0.268,1.876,0.505c0.327,0.24,0.18-1.369,1.489-0.743c0,0-0.18-0.894,0.326-1.041
	c0.505-0.151,2.323,1.875,1.964,5.446c-0.357,3.575-1.397,5.33-2.887,7.443c-1.488,2.113-2.858,4.257-2.709,6.549
	c0.125,1.9,1.679,3.47,3.241,3.801v0.949C7.439,48.71,4.824,47.75,4.366,44.321z M8.67,52.191v-4.542
	c0-0.359,0.294-0.654,0.655-0.654H9.35c0.362,0,0.655,0.295,0.655,0.654v4.542c0,0.363-0.294,0.653-0.655,0.653H9.325
	C8.963,52.846,8.67,52.555,8.67,52.191z M49.999,2.555c0,0-2.014,3.264,0,5.716C52.014,5.819,49.999,2.555,49.999,2.555z
	 M2.122,49.806c0,0,3.265,2.014,5.717,0C5.387,47.793,2.122,49.806,2.122,49.806z M49.921,97.221c0,0,2.015-3.264,0-5.717
	C47.905,93.957,49.921,97.221,49.921,97.221z M97.797,49.97c0,0-3.264-2.014-5.715,0C94.533,51.984,97.797,49.97,97.797,49.97z"/>
</svg>
