<svg xmlns="http://www.w3.org/2000/svg" xmlns:se="http://svg-edit.googlecode.com" xmlns:xlink="http://www.w3.org/1999/xlink" id="svgcontent" width="205.65" height="395.85" x="0" y="0" viewBox="0 0 205.65 395.85" overflow="hidden"><g mask="" style="pointer-events:all"><title style="pointer-events:inherit">Layer 1</title><g id="svg_1" type="text" text="I" font-size="57.22989391226255" font-family="Verdana" fill="000000" text-anchor="start" font-weight="normal" font-style="normal" lineHeight="1" shapeId="0" shapeVal="0" fill-opacity="1" display="null" elemBBoxWidth="16.37109375" stroke="null" stroke-dasharray="none" style="pointer-events:inherit"><path id="svg_8" fill="#000000" stroke-width="0" d="M33.76292,117.08967C33.76292,117.08967 17.3888,117.08967 17.3888,117.08967C17.3888,117.08967 17.3888,112.79743 17.3888,112.79743C17.3888,112.79743 22.79385,112.79743 22.79385,112.79743C22.79385,112.79743 22.79385,79.73127 22.79385,79.73127C22.79385,79.73127 17.3888,79.73127 17.3888,79.73127C17.3888,79.73127 17.3888,75.43903 17.3888,75.43903C17.3888,75.43903 33.76292,75.43903 33.76292,75.43903C33.76292,75.43903 33.76292,79.73127 33.76292,79.73127C33.76292,79.73127 28.35787,79.73127 28.35787,79.73127C28.35787,79.73127 28.35787,112.79743 28.35787,112.79743C28.35787,112.79743 33.76292,112.79743 33.76292,112.79743C33.76292,112.79743 33.76292,117.08967 33.76292,117.08967C33.76292,117.08967 33.76292,117.08967 33.76292,117.08967" style="pointer-events:inherit"/><rect id="svg_9" x="17.390625" y="75.4375" width="16.37109375" height="41.65234375" fill="#000000" opacity="0" style="pointer-events:inherit"/></g><g id="svg_10" type="text" text="MY" font-size="54.77435197204865" font-family="Verdana" fill="000000" text-anchor="start" font-weight="normal" font-style="normal" lineHeight="1" shapeId="0" shapeVal="0" fill-opacity="1" display="null" elemBBoxWidth="77.5390625" stroke="null" stroke-dasharray="none" style="pointer-events:inherit"><path id="svg_13" fill="#000000" stroke-width="0" d="M146.14767,119.34015C146.14767,119.34015 140.58679,119.34015 140.58679,119.34015C140.58679,119.34015 140.58679,83.4326 140.58679,83.4326C140.58679,83.4326 129.1472,107.90057 129.1472,107.90057C129.1472,107.90057 125.81068,107.90057 125.81068,107.90057C125.81068,107.90057 114.3711,83.4326 114.3711,83.4326C114.3711,83.4326 114.3711,119.34015 114.3711,119.34015C114.3711,119.34015 109.12798,119.34015 109.12798,119.34015C109.12798,119.34015 109.12798,77.71282 109.12798,77.71282C109.12798,77.71282 116.75435,77.71282 116.75435,77.71282C116.75435,77.71282 127.71727,100.90972 127.71727,100.90972C127.71727,100.90972 138.5213,77.71282 138.5213,77.71282C138.5213,77.71282 146.14767,77.71282 146.14767,77.71282C146.14767,77.71282 146.14767,119.34015 146.14767,119.34015C146.14767,119.34015 146.14767,119.34015 146.14767,119.34015M186.66283,77.71282C186.66283,77.71282 172.04561,101.06861 172.04561,101.06861C172.04561,101.06861 172.04561,119.34015 172.04561,119.34015C172.04561,119.34015 166.64359,119.34015 166.64359,119.34015C166.64359,119.34015 166.64359,101.70414 166.64359,101.70414C166.64359,101.70414 151.86748,77.71282 151.86748,77.71282C151.86748,77.71282 158.0639,77.71282 158.0639,77.71282C158.0639,77.71282 169.3446,96.30212 169.3446,96.30212C169.3446,96.30212 180.78416,77.71282 180.78416,77.71282C180.78416,77.71282 186.66283,77.71282 186.66283,77.71282C186.66283,77.71282 186.66283,77.71282 186.66283,77.71282" style="pointer-events:inherit"/><rect id="svg_14" x="109.1250005194634" y="77.71484393944684" width="77.53519509608076" height="41.62629445313703" fill="#000000" opacity="0" style="pointer-events:inherit"/></g><g id="svg_20" type="text" text="Daddy" font-size="56.44328934238153" font-family="Pacifico" fill="000000" text-anchor="start" font-weight="normal" font-style="normal" lineHeight="1" shapeId="0" shapeVal="0" fill-opacity="1" display="null" elemBBoxWidth="159.9609375" stroke="null" stroke-dasharray="none" style="pointer-events:inherit"><path id="svg_23" fill="#000000" stroke-width="0" d="M24.44629,181.94232C23.81914,168.14508 25.23022,153.72068 31.03134,145.41097C31.81527,144.47025 37.61639,144.15668 38.08675,146.19491C33.06957,154.19104 31.5017,165.16613 31.5017,177.86586C31.5017,179.27695 32.28563,179.90409 34.01029,179.74731C46.86681,178.33622 51.57042,167.36114 52.9815,154.50461C54.39259,139.76664 32.12885,136.94448 24.13271,145.56776C21.78091,148.07635 21.15376,151.0553 18.64517,152.15281C17.86124,152.15281 17.39088,151.21209 17.39088,149.33065C17.86124,138.66913 25.07343,134.59268 36.04852,134.43589C52.9815,134.12231 62.07515,143.99989 58.93941,161.40324C56.11724,177.08193 41.37927,190.5656 24.44629,181.94232C24.44629,181.94232 24.44629,181.94232 24.44629,181.94232M82.77102,176.14121C86.5339,175.0437 88.25856,172.22153 90.45357,169.39937C90.45357,169.39937 91.70787,175.51406 91.70787,175.51406C89.51286,178.49301 86.5339,182.41269 81.8303,182.41269C78.85135,182.41269 77.91062,180.21766 76.65633,177.86586C74.6181,179.90409 72.10951,182.2559 68.03305,182.2559C63.48623,182.2559 61.448,178.96337 61.13442,174.57334C62.38872,164.53898 66.93554,155.28855 77.44026,155.13176C77.91062,158.11071 83.55496,155.44533 83.55496,159.52179C83.55496,164.38219 81.67351,168.61543 81.51672,173.31905C81.51672,174.88691 81.51672,175.98442 82.77102,176.14121C82.77102,176.14121 82.77102,176.14121 82.77102,176.14121M77.12669,160.14894C71.16879,161.56003 68.18984,167.8315 68.34662,174.73012C68.50341,175.98442 68.97377,176.92514 70.38485,176.92514C76.18597,175.0437 75.08846,165.79327 77.12669,160.14894C77.12669,160.14894 77.12669,160.14894 77.12669,160.14894M94.21646,173.31905C93.90289,178.33622 99.70401,176.14121 100.80151,173.63262C102.83974,170.81045 101.58545,164.85255 101.74224,159.99215C97.19541,162.03038 94.68683,167.51793 94.21646,173.31905C94.21646,173.31905 94.21646,173.31905 94.21646,173.31905M110.36551,166.73399C109.11122,169.86973 108.79765,177.86586 113.97161,174.73012C116.16663,173.31905 117.89129,172.06475 119.92952,170.49688C119.92952,170.49688 120.71345,176.92514 120.71345,176.92514C117.57771,179.12016 114.59876,181.47196 110.20872,182.2559C107.07299,181.78554 105.19155,180.06088 104.09404,177.3955C101.74224,179.59052 98.76328,182.2559 94.53004,182.2559C89.51286,182.2559 87.47463,178.02265 87.47463,173.16225C87.47463,164.06861 92.80538,157.32678 101.58545,155.91569C102.2126,144.78382 105.03476,135.21982 111.61981,130.35943C116.79378,126.59654 120.55666,132.55445 119.77273,139.45307C118.67522,149.80101 113.65804,159.20822 110.36551,166.73399C110.36551,166.73399 110.36551,166.73399 110.36551,166.73399M108.32728,161.56003C110.83588,154.19104 116.79378,143.8431 113.81482,135.69018C108.32728,140.39379 108.95444,151.68245 108.32728,161.56003C108.32728,161.56003 108.32728,161.56003 108.32728,161.56003M123.84919,173.31905C123.53562,178.33622 129.33673,176.14121 130.43424,173.63262C132.47247,170.81045 131.21818,164.85255 131.37496,159.99215C126.82814,162.03038 124.31955,167.51793 123.84919,173.31905C123.84919,173.31905 123.84919,173.31905 123.84919,173.31905M139.99824,166.73399C138.74395,169.86973 138.43037,177.86586 143.60434,174.73012C145.79936,173.31905 147.52401,172.06475 149.56223,170.49688C149.56223,170.49688 150.34617,176.92514 150.34617,176.92514C147.21044,179.12016 144.23149,181.47196 139.84146,182.2559C136.70572,181.78554 134.82427,180.06088 133.72676,177.3955C131.37496,179.59052 128.39601,182.2559 124.16276,182.2559C119.14558,182.2559 117.10735,178.02265 117.10735,173.16225C117.10735,164.06861 122.43811,157.32678 131.21818,155.91569C131.84532,144.78382 134.66749,135.21982 141.25253,130.35943C146.4265,126.59654 150.18939,132.55445 149.40547,139.45307C148.30794,149.80101 143.29077,159.20822 139.99824,166.73399C139.99824,166.73399 139.99824,166.73399 139.99824,166.73399M137.96001,161.56003C140.4686,154.19104 146.4265,143.8431 143.44756,135.69018C137.96001,140.39379 138.58716,151.68245 137.96001,161.56003C137.96001,161.56003 137.96001,161.56003 137.96001,161.56003M154.42264,207.81217C145.48579,207.81217 146.4265,197.7778 150.34617,193.38777C152.85477,189.15452 156.14729,185.70521 159.5966,182.72626C159.5966,182.72626 160.22375,179.43373 160.22375,179.43373C155.99051,184.13734 146.58329,182.2559 147.05366,174.57334C147.52401,166.89078 148.30794,159.05143 152.69799,155.28855C154.42264,153.87747 158.02874,154.6614 157.24479,157.16999C155.83372,162.03038 153.79549,168.77222 154.26585,174.73012C154.42264,175.98442 154.893,176.92514 156.30409,176.92514C164.92736,174.25977 157.71516,157.0132 168.37667,154.97497C172.7667,156.22927 168.37667,161.8736 168.69025,166.26363C168.69025,166.26363 166.49522,179.59052 166.49522,179.59052C170.72847,177.08193 173.39386,173.63262 176.3728,169.39937C176.68638,172.22153 178.41103,175.35727 176.3728,177.23872C172.7667,180.53124 171.82599,181.78554 166.96559,184.92127C163.67307,191.97669 166.33844,207.81217 154.42264,207.81217C154.42264,207.81217 154.42264,207.81217 154.42264,207.81217M159.75339,189.31131C156.93123,191.19275 154.57942,196.36671 153.01155,199.97281C151.75726,203.10855 154.73622,203.42213 155.99051,201.85426C158.4991,199.0321 159.28302,194.32849 159.75339,189.31131C159.75339,189.31131 159.75339,189.31131 159.75339,189.31131" style="pointer-events:inherit"/><rect id="svg_24" x="17.390624990686774" y="129.1914062066935" width="159.96093431208283" height="78.61942995339632" fill="#000000" opacity="0" style="pointer-events:inherit"/></g><g id="svg_5" fill-opacity="1" display="null" clip-id="606" transform=""><path fill="#ff0b00" d="M77.53642346868071,113.7518785125909 C78.00112219111585,113.43028770121708 78.26000279427177,113.08189765556213 78.31360126283408,112.70670837562602 C77.88481351433566,113.09958515018769 77.53642346868071,113.57339561227843 77.2684311258692,114.12706779252701 L77.34882882871264,114.12706779252701 L77.53642346868071,113.7518785125909 M89.94446894085354,102.87138939444367 L88.89929880388867,104.10415417137659 C89.50656945269955,103.80025085462836 89.8549594983545,103.3896865854411 89.94446894085354,102.87138939444367 M87.85412866692378,104.96172966837344 L87.10375010705155,105.81930516537025 C87.53253785554998,105.6761972543089 87.81821769298703,105.39051741687183 87.96132560404838,104.96172966837344 L87.85412866692378,104.96172966837344 M85.1206067702464,107.6952515650508 L85.14740600452754,107.61485386220735 L85.2814021759333,107.50765692508276 L85.38859911305791,107.50765692508276 L85.1206067702464,107.6952515650508 M69.12146390439933,112.03672751859725 L68.74627462446321,111.84913287862918 C69.92544093283385,113.45708693549824 71.50659575542176,114.5644312959954 73.48973909222693,115.1722379294919 L73.11454981229082,114.68985171243116 L73.48973909222693,114.87744635239923 L72.6321635952301,114.04667008968357 L72.25697431529399,114.12706779252701 L72.6321635952301,114.50225707246312 L72.06937967532593,114.23426472965161 C72.17657661245053,113.89445043896663 72.05169218070037,113.60877060152956 71.69419039538981,113.3766892326548 L71.58699345826521,113.3766892326548 L71.58699345826521,113.7518785125909 L69.12146390439933,111.66153823866114 L69.12146390439933,112.03672751859725 M68.74627462446321,111.66153823866114 C68.33517437059037,111.01835661591352 67.79918968496736,110.67907830991413 67.13832056759418,110.64316733597741 C67.44222388434241,111.44714436441194 67.95140933568429,111.84913287862918 68.66587692161977,111.84913287862918 L68.4782822816517,111.58114053581767 L68.74627462446321,111.66153823866114 M57.78538780347252,101.93341619460338 C57.15989367535046,100.89682181260847 56.365028386571524,100.01298306601609 55.400255952450095,99.28029200076944 C55.936240638073116,100.40585984057776 56.73110592685205,101.29023457185576 57.78538780347252,101.93341619460338 M55.80224446666736,99.36068970361288 C55.55193961848141,98.8064815386787 55.14137534929418,98.40449302446143 54.56947968973442,98.15472416096111 C54.855159527171494,98.67302135195857 55.26625978104434,99.07500986617583 55.80224446666736,99.36068970361288 M64.40479867091679,110.42877346172818 L63.84201475101261,110.24117882176014 C63.913300714200474,110.15166937926108 63.877925724949364,109.99998571322979 63.734817813888014,109.78559183898057 C64.02049765132509,109.92869975004191 64.24400326522988,110.14255763960551 64.40479867091679,110.42877346172818 M62.42165533411162,106.56968372524247 L61.56407983711479,105.81930516537025 L61.56407983711479,106.08729750818176 C61.26017652036654,105.83699265999581 60.88498724043043,105.64993400471337 60.43851199730645,105.52451358827759 C60.88498724043043,106.07818576852617 61.54639234248923,106.42657581418112 62.42165533411162,106.56968372524247 M53.60470725561299,97.16315249255854 L53.41711261564494,97.10955402399622 L54.19429040979831,98.98550042367677 L54.0870934726737,98.98550042367677 L54.0870934726737,98.79790578370873 L52.184347838712,96.06438388703134 L53.41711261564494,96.92195938402816 L53.41711261564494,96.84156168118471 L53.60470725561299,97.16315249255854 L53.79230189558105,97.18995172683967 L53.52430955276954,96.73436474406012 C53.43480011027049,96.66307878087224 53.39942512101938,96.69898975480899 53.41711261564494,96.84156168118471 L50.57639378184294,91.72290793348489 L50.978382296060204,91.9909002762964 C50.76398842181099,90.99021686823824 50.70127821359311,90.04313192874235 50.79078765609215,89.15018144249441 C50.37968740221929,88.9893860368075 50.210316241562424,88.7749921625583 50.281602204750286,88.5069998197468 C50.37111164724932,88.2207839976241 50.37968740221929,87.81021972843686 50.30840143903144,87.27423504281387 C49.80832772734516,85.66628098594481 49.89730118515858,84.0851261633569 50.57639378184294,82.53077057505016 L51.43396927883977,81.59279737520987 L50.871185358935605,81.78039201517794 C50.996069790685766,81.51239967236643 51.291397352464045,81.12863463746035 51.75556009021358,80.62802494108846 L51.43396927883977,81.56599814092874 C51.66605064771454,81.35160426667952 51.81827029843147,80.9946384660546 51.88955626161933,80.4940287696827 C52.961525632865374,79.45743438768778 54.211977904423875,78.43959946968965 55.64144906098045,77.43891606163149 C57.0886077121626,76.43876863825895 58.05338014628403,75.99175741044934 58.53576636334475,76.09895434757397 L58.42856942622015,76.286548987542 C59.51822629209174,75.64336736479439 60.75099106902468,75.2054678766404 62.12686375701897,74.97338650776561 L62.04646605417551,75.16098114773368 C61.7248752428017,75.19689212167043 61.501369628896896,75.32177655342059 61.376485197146735,75.53617042766979 L62.31445839698702,75.34857578770172 L62.04646605417551,75.64336736479439 L65.71796115069318,75.42897349054519 C65.41405783394492,75.28586557948384 65.28917340219476,75.19689212167043 65.34277187075706,75.16098114773368 C66.18265987312833,75.07147170523461 67.54942082146702,75.50079543841866 69.44305471577314,76.44734439322892 C71.33668861007925,77.41211682735036 72.58767686632339,78.14480789259702 73.19494751513426,78.64488160428328 L73.86492837216304,79.60965403840473 C73.9898128039132,79.94893234440408 74.30229187563143,80.19923719259003 74.80290157200332,80.36003259827694 C75.49968166331324,78.93056144172036 76.52662832096694,77.28723239560017 77.88481351433566,75.42897349054519 C79.22477522839321,73.5712505701758 80.62744715066864,72.34706154821282 82.09229329647636,71.75747839402752 L81.79750171938369,72.21306537680707 L84.07543663328151,71.19469447412334 C84.16494607578056,71.37317737443581 84.45062591321764,71.44499932230929 84.93301213027834,71.40908834837256 L86.16577690721128,71.08749753699874 L88.2293179468599,71.19469447412334 L88.2293179468599,71.27509217696681 L86.16577690721128,71.46268681693485 L86.35337154717934,71.56988375405945 C88.19340697292316,72.05226997112018 89.92678144622799,72.5882546567432 91.5524229977226,73.17783781092851 C93.76764770340253,74.51779952498606 95.38471349992717,76.31334822182316 96.40308440261092,78.56448390143984 C97.42145530529464,80.8156195810565 98.198633099448,83.45963203523485 98.73461778507102,86.49705724866047 L98.84181472219562,86.49705724866047 C98.75230527969657,85.80027715735056 98.59204585869531,85.05847435244831 98.35942850513491,84.27272080332497 C98.1450346308857,83.4869672542016 98.10912365694897,82.81698639717285 98.25223156801032,82.26277823223865 L98.35942850513491,82.82556215214282 C98.37711599976046,81.8071912494591 98.2077448391036,80.98499074171337 97.85024305379305,80.36003259827694 C97.51096474779368,79.71685097552933 97.24297240498217,79.0200708842194 97.04626602535853,78.26969232434718 L97.12666372820198,78.26969232434718 L97.50185300813808,79.12726782134399 C97.35874509707673,78.48408619859637 97.07306525963966,77.98347650222448 96.64427751114127,77.62651070159956 C96.85867138539047,77.37674183809924 96.89404637464158,77.18003545847557 96.75147444826587,77.03692754741422 L96.4566828711732,76.47414362751007 C97.61816168491828,77.52842550413055 98.37711599976046,78.88607471281364 98.73461778507102,80.54762723824498 C98.82412722757006,80.40451932718364 98.92221242503908,80.3777200929025 99.02940936216368,80.46722953540154 C99.26202671572406,81.00321422102456 99.26202671572406,81.6908825726789 99.02940936216368,82.53077057505016 C99.40459864209978,82.58436904361247 99.65490349028573,83.03138027142205 99.7797879220359,83.8707322891077 L99.59219328206785,83.8707322891077 L99.48499634494326,83.38834607204697 C99.57450578744229,84.33543101154285 99.7353011931292,85.22891748247642 99.96738256200396,86.06826950016207 C100.19999991556435,86.92584499715889 100.13728970734647,87.86381819699918 99.7797879220359,88.8821890996829 L99.7797879220359,88.69459445971484 L99.48499634494326,87.64942432274998 L99.29740170497519,87.72982202559342 C99.4581971106621,89.01618527108866 99.52090731887998,90.1862398398037 99.48499634494326,91.24052171642418 C99.30651344463078,92.11632069273219 98.94901165932023,93.06286964754244 98.41302697369721,94.08124055022617 L97.23386066532657,96.43957316696745 L97.12666372820198,96.43957316696745 L97.50185300813808,95.39440303000256 C96.28677572583071,96.34148796949844 95.26840482314697,97.70824891783712 94.44674030008689,99.49468587501866 C93.60685229771562,101.29881032682573 92.64207986359419,102.80010343125579 91.5524229977226,103.996957234252 C91.57011049234816,103.72896489144048 91.47202529487915,103.57674524072354 91.25763142062993,103.54137025147244 C91.6151332059405,102.8981886287248 92.08840768334562,102.38900317738293 92.67799083753093,102.01381389744682 L92.59759313468749,101.93341619460338 L92.11520691762678,102.01381389744682 L92.59759313468749,101.45102997754265 L93.3479716945597,100.03067056064165 L93.05318011746705,100.21826520060972 L93.83035791162042,98.90510272083333 L92.9727824146236,99.28029200076944 L91.36482835775453,101.82621925747878 L92.59759313468749,100.9954429947631 C91.77592861162739,102.46028914057081 90.85564290641268,103.90798377643858 89.83727200372894,105.33691894830952 C90.0339783833526,105.28332047974723 90.09615260688486,105.37229393756064 90.02486664369701,105.60491129112103 L87.77373096408033,107.88284620501886 L86.62136388999085,108.07044084498693 L85.1206067702464,109.97318647894863 L83.78064505618886,110.64316733597741 L83.03026649631663,111.9563298157538 L82.36028563928787,112.03672751859725 C82.18180273897539,112.01850403928609 81.93149789078944,112.18841118462856 81.60990707941562,112.54591296993911 C81.30600376266739,112.90341475524968 80.99352469094916,113.05509842128097 80.67193387957535,113.00149995271869 L81.52950937657218,112.14392445572184 L80.4843392396073,113.00149995271869 L80.67193387957535,112.70670837562602 L79.62676374261048,113.2694922955302 L79.62676374261048,113.18909459268673 L80.6451346452942,112.25112139284647 L81.52950937657218,111.39354589584963 L81.52950937657218,110.83076197594545 C81.99420809900734,110.41966172207259 82.52108104497476,110.0980709106988 83.11066419916008,109.86598954182404 C83.68202387403423,109.61622067832371 84.22712029931283,109.1783211901697 84.74541749031027,108.55282706204764 L84.15583433612497,108.92801634198375 C84.29894224718632,108.53513956742208 84.58462208462338,108.28483471923613 85.01340983312178,108.17763778211153 C85.31731314987005,108.24892374529938 85.70107818477612,108.08812833961247 86.16577690721128,107.6952515650508 L86.35337154717934,106.94487300517858 L86.24617461005474,106.83767606805398 L85.2814021759333,107.50765692508276 L85.20100447308985,107.50765692508276 L85.14740600452754,107.61485386220735 C84.23623203896841,108.54371532239205 83.44136675018947,109.23191965873201 82.76227415350512,109.67839490185597 L83.13746343344124,109.22280791907642 L81.71710401654025,110.24117882176014 L82.1726909993198,110.1607811189167 C81.63670631369678,110.73214079379082 81.05623489916705,111.13412930800808 80.430740771045,111.36674666156847 C79.80524664292292,111.58114053581767 79.25157446267436,111.93810633644262 78.76918824561365,112.43871603281451 L79.43916910264241,112.03672751859725 L78.87638518273825,113.08189765556213 L80.00195302254659,112.33151909568991 C79.43059334767244,113.10012113487332 78.7332772716769,113.7609902522465 77.91161274861682,114.31466243249508 L79.25157446267436,113.45708693549824 L79.25157446267436,113.7518785125909 C78.16191759680277,114.94873231558711 76.9913270434021,116.08341189505103 75.7408747718436,117.15538126629707 C74.88329927484676,116.90561240279675 74.2578051467247,116.49451214892389 73.86492837216304,115.92261648936412 C73.72182046110169,116.10109938967659 73.56102505541479,116.16380959789447 73.38254215510233,116.11021112933219 C72.97144190122947,115.6637358862082 71.66739116110867,114.86833461274364 69.4698539500543,113.72507927830975 C67.25462924437437,112.59951143850142 65.69116191641203,111.63473900437998 64.7799879508529,110.83076197594545 L65.82515808781778,111.28634895872503 C65.18197646507016,110.55365789347837 64.45839713947908,109.9817622339186 63.65442011104456,109.57119796473137 C62.85044308261003,109.1783211901697 62.15366299130011,108.65091225951664 61.56407983711479,107.99004314214346 L62.31445839698702,108.44563012492304 C61.61767830567709,107.44494671686488 60.92089821436717,106.69456815699263 60.22411812305725,106.19449444530636 L60.143720420213796,106.19449444530636 L60.0365234830892,106.3820890852744 L60.81370127724257,107.13246764514665 L60.89409898008603,107.42725922223929 L60.62610663727452,107.50765692508276 L59.473739563185035,106.08729750818176 L59.473739563185035,106.75727836521054 L59.205747220373524,106.65008142808591 C58.794646966500665,105.98921231071273 58.2854615151588,105.45322762508974 57.67819086634792,105.04212737121688 C58.499855389408,105.11394931909035 59.09855028324891,105.3728299222463 59.473739563185035,105.81930516537025 L59.286144923216966,105.41731665115299 L59.84892884312114,105.60491129112103 L59.39334186034158,104.96172966837344 L58.24097478625208,104.39894574846926 L58.42856942622015,104.66693809128077 C57.76770030884697,104.25583783740791 57.169005415006055,103.78256336000277 56.633020729383034,103.24657867437978 L56.17743374660347,103.54137025147244 C54.83747203254593,102.75508071766347 53.622394750238556,101.56680266963724 52.53273788436695,99.97707209207937 C51.44308101849536,98.3691180352103 50.63910399006083,96.77885147296683 50.120806799063374,95.2068083900345 C50.406486636500446,95.08192395828434 50.656791484686394,95.11729894753546 50.871185358935605,95.31400532715912 C50.996069790685766,95.61790864390736 51.0319807646225,95.96629868956234 50.978382296060204,96.35917546412401 C51.49667948705766,97.94890604168188 52.50593865008581,98.98550042367677 54.00669576983026,99.4678866407375 C54.239313123390644,99.91436188386146 54.42637177867307,100.48625754342123 54.56947968973442,101.18303763473116 L53.33671491280148,99.95027285779821 C53.943985561612365,100.98686723979313 54.66756488720344,101.96021542888451 55.507452889574694,102.87138939444367 L57.78538780347252,102.7909916916002 L57.78538780347252,102.6837947544756 L57.490596226379864,102.49620011450753 L54.46228275260982,98.52991344089722 L53.60470725561299,97.16315249255854 M48.32525810222627,87.72982202559342 L48.32525810222627,87.46182968278191 L48.40565580506973,87.72982202559342 L48.32525810222627,87.72982202559342 M49.63842058200267,81.59279737520987 C50.156717773000125,81.43200196952296 50.50510781865508,80.9946384660546 50.68359071896755,80.27963489543347 C50.75487668215541,80.76202111249421 50.584969536812906,81.42289022986739 50.17440526762569,82.26277823223865 C49.76330501375283,83.08497873998436 49.45993768169019,83.80855806557543 49.26323130206656,84.43351620901186 L49.370428239191156,87.72982202559342 L49.1828335992231,87.46182968278191 C49.45082594203461,88.33709267440429 49.54033538453365,89.12338220821326 49.45082594203461,89.82016229952319 L49.26323130206656,89.52537072243052 C48.74547009575471,88.31029344012313 48.61147392434896,87.00624270000236 48.86124278784929,85.6126825173825 L49.63842058200267,81.59279737520987 M48.32525810222627,83.76353535198311 C48.37885657078857,83.38834607204697 48.46836601328762,83.18306393745337 48.59325044503778,83.14715296351662 L48.96843972497389,82.82556215214282 L49.0756366620985,82.53077057505016 L48.96843972497389,83.95112999195115 L48.780845085005836,83.95112999195115 C48.81675605894257,84.61199910932433 48.75404585072468,85.30877920063426 48.59325044503778,86.04147026588092 C48.66453640822564,85.46957460632115 48.602362184693376,85.02309936319719 48.40565580506973,84.70150855182337 C48.20894942544608,86.00555929194417 48.18215019116492,87.17614984534484 48.32525810222627,88.21220824265413 C48.71813487678794,89.24880262464904 49.2364320677854,90.24037429305164 49.87961369053302,91.18692324786187 C50.52279531328064,92.11578470804656 50.826698630028886,93.080557142168 50.79078765609215,94.08124055022617 C51.20188790996501,94.24203595591308 51.264062133497276,94.52771579335015 50.978382296060204,94.93881604722299 L50.013609861938775,94.08124055022617 L48.21806116510167,91.91050257345296 C47.80696091122881,91.08883805039287 47.574879542354054,89.73118884170975 47.52128107379174,87.83701896271802 C47.44999511060388,85.92516158910072 47.5925670369796,84.44262794866745 47.95006882229016,83.38834607204697 L48.03046652513362,83.76353535198311 L48.21806116510167,82.82556215214282 L48.32525810222627,83.76353535198311 M51.80915855877588,80.36003259827694 L51.91635549590049,80.36003259827694 L51.88955626161933,80.4940287696827 L51.75556009021358,80.62802494108846 L51.80915855877588,80.54762723824498 L51.80915855877588,80.36003259827694 M51.43396927883977,77.25132142166345 L51.728760855932435,77.25132142166345 C51.21046366493498,78.18018288184814 50.656791484686394,79.0200708842194 50.067208330501074,79.77044944409161 C49.49584865562694,80.52082800396386 49.102435896379646,81.50328793271083 48.888042022130435,82.71836521501822 L48.780845085005836,82.71836521501822 L48.888042022130435,81.59279737520987 L48.70044738216238,81.67319507805334 L48.32525810222627,82.82556215214282 L48.21806116510167,82.82556215214282 L48.21806116510167,82.45037287220671 C48.95075223034833,80.36003259827694 50.02272160159437,78.62719410965772 51.43396927883977,77.25132142166345 M53.041923335708816,75.83096200476245 L53.60470725561299,75.42897349054519 L54.38188504976637,75.9113597076059 L54.38188504976637,76.286548987542 L51.54116621596438,78.93967318137595 C51.64836315308898,78.24289309006602 51.89866800127493,77.68010917016184 52.2915447758366,77.25132142166345 L52.184347838712,77.62651070159956 L52.961525632865374,76.66173826747811 L52.3987417129612,76.95652984457078 C52.47002767614906,76.67085000713371 52.68442155039827,76.2956607271976 53.041923335708816,75.83096200476245 M59.84892884312114,75.42897349054519 C59.67044594280867,75.67927833873114 59.45605206855947,75.77736353620014 59.205747220373524,75.72376506763783 L59.205747220373524,75.64336736479439 L59.58093650030963,75.42897349054519 L59.84892884312114,75.42897349054519 M85.20100447308985,70.81950519418723 L85.68339069015056,70.71230825706263 C86.04089247546112,70.69462076243707 86.29066133896144,70.75679498596935 86.43376925002279,70.8999028970307 L85.20100447308985,70.81950519418723 M90.98963907781842,104.10415417137659 L90.98963907781842,104.4793434513127 L90.69484750072577,104.5865403884373 L90.98963907781842,104.10415417137659 M96.75147444826587,94.83161911009839 L96.93906908823391,94.75122140725495 C97.08217699929526,94.25061171088305 97.01946679107738,93.86684667597697 96.75147444826587,93.59885433316546 L96.5638798082978,94.75122140725495 L96.75147444826587,94.83161911009839 M95.0363234542722,96.92195938402816 L95.22391809424028,96.14478158987478 C95.36702600530161,96.3055769955617 95.56319640023963,96.43957316696745 95.81350124842558,96.54677010409205 L96.5638798082978,94.83161911009839 L96.37628516832976,95.12641068719105 C96.48348210545436,94.41194310125559 96.44757113151762,93.90275764991372 96.26908823120516,93.59885433316546 C95.78670201414442,95.02832548972205 95.12583289677126,96.32326449018726 94.28594489439999,97.48474330393233 L95.0363234542722,96.92195938402816 M96.08149359123709,94.45642983016228 C96.15277955442495,94.72442217297379 96.06380609661153,94.94792778687858 95.81350124842558,95.12641068719105 L96.08149359123709,94.45642983016228 M95.14352039139682,75.64336736479439 C95.80438950876999,76.05446761866725 96.27819997086074,76.65262652782252 96.5638798082978,77.43891606163149 C96.04558261730034,77.0101283131331 95.57230813989523,76.41143341929217 95.14352039139682,75.64336736479439 M94.28594489439999,74.2230079478934 C94.98272498570991,74.58050973320394 95.58141987955082,75.05378421060908 96.08149359123709,75.64336736479439 C95.25982906817701,75.39306251660844 94.6611341743361,74.91978803920333 94.28594489439999,74.2230079478934 " id="svg_6" stroke-width="0" transform=""/></g></g><defs><mask id="canvasMaskImageDef" maskUnits="objectBoundingBox" x="0" y="0"><image xmlns:xlink="http://www.w3.org/1999/xlink" id="canvasMaskImage" preserveAspectRatio="none" x="-103.65" y="-36.45" width="400" height="440.0580551523948" xlink:href="http://allinonedesigner.designnbuy.in/media/catalog/product/w/h/white-tees-1_-front_1_3.png"/></mask></defs></svg>