<?xml version="1.0" encoding="utf-8"?>
<!-- Generator: Adobe Illustrator 16.0.0, SVG Export Plug-In . SVG Version: 6.00 Build 0)  -->
<!DOCTYPE svg PUBLIC "-//W3C//DTD SVG 1.1//EN" "http://www.w3.org/Graphics/SVG/1.1/DTD/svg11.dtd">
<svg version="1.1" id="Layer_1" xmlns="http://www.w3.org/2000/svg" xmlns:xlink="http://www.w3.org/1999/xlink" x="0px" y="0px"
	 width="100px" height="100px" viewBox="0 0 100 100" enable-background="new 0 0 100 100" xml:space="preserve">
<path d="M54.096,7.203c0.819,1.507,0.01,3.036-1.744,3.036c-1.897,0-3.181-2.327-4.417-2.327c-0.573,0-0.629,0.753,0.011,0.753
	c0.753,0,3.395-2.675,4.553-2.675c0.966,0,1.021,1.191,0,1.191c-1.327,0-3.551-2.166-4.868-3.26c-1.461-1.214-0.843-2.72,0.641-2.72
	c1.529,0,3.505,2.72,5.013,2.72c1.506,0,1.798-2.034,0.012-2.034c-2.158,0-3.642,3.42-6.374,3.42c-1.08,0-1.634-0.63-1.634-0.63
	s-0.21-0.299-0.21-0.449s0.254,0.285,0.254,0.285s0.915,0.093,0.915-0.829c0-1.438-2.349-1.315-2.349,0.27
	c0,1.012,1.191,1.529,1.191,1.529s0.517-0.124,0.517,0.124c0,0.169-0.55-0.034-0.55-0.034s-3.103-0.124-3.103,2.766
	c0,2.731,3.158,2.563,3.158-0.124c0-1.877-1.698-2.706-2.574-4.234l0.09-0.232c0.359,1.079,2.687,2.488,2.687,4.455
	c0,2.765-3.429,2.968-3.429,0.112c0-2.855,3.137-2.81,3.137-2.81s-1.18-0.416-1.18-1.619c0-1.551,2.551-1.798,2.551-0.258
	c0,1.045-1.045,0.929-1.045,0.929s0.54,0.69,1.603,0.69c2.608,0,4.136-3.417,6.34-3.417c1.89,0,1.783,2.173,0,2.173
	c-1.679,0-3.792-2.728-5.081-2.728s-1.783,1.588-0.435,2.607c1.349,1.02,3.626,3.237,4.691,3.237c0.84,0,0.854-1.079,0.03-1.079
	c-1.17,0-3.748,2.668-4.512,2.668c-0.765,0-0.825-0.854,0-0.854c1.559,0,2.517,2.323,4.376,2.323c1.857,0,2.488-1.888,1.289-3.282
	 M40.561,3.749c0.798,1.63,2.9,2.566,2.9,4.387c0,3.114-3.653,2.923-3.653,0.18c0-1.675,2.271-3.511,2.822-4.567l-0.09,0.232
	c-0.416,0.742-2.687,2.762-2.687,4.324c0,2.608,3.44,2.979,3.44-0.135c0-1.821-2.057-2.739-2.81-4.189L40.561,3.749z M38.505,3.749
	c0.798,1.63,2.9,2.566,2.9,4.387c0,3.114-3.653,2.923-3.653,0.18c0-1.675,2.271-3.511,2.821-4.567l-0.089,0.232
	c-0.416,0.742-2.687,2.762-2.687,4.324c0,2.608,3.439,2.979,3.439-0.135c0-1.821-2.057-2.739-2.81-4.189L38.505,3.749z M36.45,3.749
	c0.798,1.63,2.9,2.566,2.9,4.387c0,3.114-3.653,2.923-3.653,0.18c0-1.675,2.271-3.511,2.821-4.567l-0.09,0.232
	c-0.416,0.742-2.687,2.762-2.687,4.324c0,2.608,3.439,2.979,3.439-0.135c0-1.821-2.057-2.739-2.81-4.189L36.45,3.749z M59.453,3.746
	c-0.799,1.63-2.898,2.567-2.898,4.388c0,3.113,3.651,2.923,3.651,0.18c0-1.675-2.271-3.511-2.819-4.568l0.088,0.232
	c0.416,0.742,2.688,2.762,2.688,4.324c0,2.608-3.439,2.979-3.439-0.135c0-1.821,2.059-2.739,2.812-4.189L59.453,3.746z
	 M61.509,3.746c-0.798,1.63-2.899,2.567-2.899,4.388c0,3.113,3.652,2.923,3.652,0.18c0-1.675-2.271-3.511-2.82-4.568l0.09,0.232
	c0.416,0.742,2.687,2.762,2.687,4.324c0,2.608-3.438,2.979-3.438-0.135c0-1.821,2.057-2.739,2.811-4.189L61.509,3.746z
	 M63.564,3.746c-0.799,1.63-2.899,2.567-2.899,4.388c0,3.113,3.651,2.923,3.651,0.18c0-1.675-2.271-3.511-2.82-4.568l0.09,0.232
	c0.416,0.742,2.688,2.762,2.688,4.324c0,2.608-3.439,2.979-3.439-0.135c0-1.821,2.059-2.739,2.811-4.189L63.564,3.746z
	 M54.096,7.283h13.945c0,0-0.674,0.435-0.518,1.154c0,0-9.668,0-11.824,0c-2.16,0-4.198,0.54-5.643,2.704
	C48.46,8.938,46.698,8.44,44.315,8.44c-2.158,0-11.825,0-11.825,0c0.157-0.719-0.517-1.154-0.517-1.154h13.945
	c-0.779,1.588,0.165,3.072,1.693,3.072c1.528,0,3.239-2.578,4.677-2.578c0.63,0,0.854,0.87,0.075,0.87
	c-1.034,0-3.492-2.518-4.765-2.518c-1.05,0-1.08,1.154-0.016,1.079c0.703-0.049,3.852-2.502,4.945-3.282
	c1.084-0.772,0.766-2.758-0.81-2.758c-1.573,0-3.162,2.743-5.005,2.743c-1.844,0-1.753-1.994-0.21-1.994
	c1.798,0,4.406,3.462,6.938,3.462c1.096,0,1.338-0.815,1.338-0.815s0.228-0.263,0.156-0.342C54.834,4.115,54.68,4.51,54.68,4.51
	s-0.914,0.094-0.914-0.828c0-1.438,2.35-1.315,2.35,0.27c0,1.012-1.19,1.529-1.19,1.529s-0.517-0.124-0.517,0.124
	c0,0.169,0.551-0.034,0.551-0.034s3.102-0.124,3.102,2.765c0,2.732-3.158,2.563-3.158-0.124c0-1.877,1.697-2.705,2.574-4.234
	l-0.09-0.232C57.027,4.825,54.7,6.234,54.7,8.202c0,2.765,3.428,2.967,3.428,0.112s-3.136-2.81-3.136-2.81s1.18-0.417,1.18-1.619
	c0-1.551-2.551-1.798-2.551-0.258c0,1.045,1.074,0.916,1.074,0.916s-0.24,0.773-1.229,0.773c-2.181,0-4.969-3.485-6.992-3.485
	c-1.753,0-1.573,2.136,0.112,2.136c2.248,0,3.395-2.698,5.171-2.698c1.552,0,1.671,1.971,0.449,2.81
	c-0.483,0.333-3.912,3.058-4.608,3.058c-0.9,0-1.035-0.922,0.044-0.922c0.854,0,3.588,2.48,4.736,2.48
	c0.704,0,1.034-0.974-0.091-0.974c-1.618,0-3.117,2.578-4.63,2.578c-1.364,0-2.518-1.379-1.439-3.238H31.187
	c0,0,1.438,0.502,1.102,1.537c0,0,10.791,0,12.274,0c1.484,0,3.799,0.202,5.417,2.765c1.62-2.563,3.988-2.768,5.472-2.768
	c1.483,0,12.272,0,12.272,0c-0.336-1.034,1.104-1.536,1.104-1.536H53.795 M82.425,27.457c-1.63,0.798-2.567,2.9-4.389,2.9
	c-3.113,0-2.923-3.653-0.179-3.653c1.674,0,3.51,2.271,4.566,2.822l-0.232-0.09c-0.742-0.416-2.762-2.687-4.323-2.687
	c-2.608,0-2.979,3.44,0.134,3.44c1.822,0,2.74-2.057,4.189-2.81L82.425,27.457z M82.425,25.401c-1.63,0.798-2.567,2.9-4.389,2.9
	c-3.113,0-2.923-3.653-0.179-3.653c1.674,0,3.51,2.271,4.566,2.822l-0.232-0.09c-0.742-0.416-2.762-2.686-4.323-2.686
	c-2.608,0-2.979,3.439,0.134,3.439c1.822,0,2.74-2.057,4.189-2.811L82.425,25.401z M82.425,23.346c-1.63,0.798-2.567,2.9-4.389,2.9
	c-3.113,0-2.923-3.653-0.179-3.653c1.674,0,3.51,2.271,4.566,2.822l-0.232-0.09c-0.742-0.416-2.762-2.687-4.323-2.687
	c-2.608,0-2.979,3.439,0.134,3.439c1.822,0,2.74-2.057,4.189-2.81L82.425,23.346z M82.425,33.604c-1.63,0.798-2.567,2.9-4.389,2.9
	c-3.113,0-2.923-3.653-0.179-3.653c1.674,0,3.51,2.271,4.566,2.822l-0.232-0.09c-0.742-0.416-2.762-2.686-4.323-2.686
	c-2.608,0-2.979,3.439,0.134,3.439c1.822,0,2.74-2.057,4.189-2.811L82.425,33.604z M82.425,31.548c-1.63,0.798-2.567,2.9-4.389,2.9
	c-3.113,0-2.923-3.653-0.179-3.653c1.674,0,3.51,2.271,4.566,2.821l-0.232-0.09c-0.742-0.416-2.762-2.687-4.323-2.687
	c-2.608,0-2.979,3.44,0.134,3.44c1.822,0,2.74-2.057,4.189-2.81L82.425,31.548z M82.425,29.493c-1.63,0.798-2.567,2.9-4.389,2.9
	c-3.113,0-2.923-3.653-0.179-3.653c1.674,0,3.51,2.271,4.566,2.821l-0.232-0.09c-0.742-0.416-2.762-2.687-4.323-2.687
	c-2.608,0-2.979,3.439,0.134,3.439c1.822,0,2.74-2.057,4.189-2.81L82.425,29.493z M82.425,39.751c-1.63,0.798-2.567,2.9-4.389,2.9
	c-3.113,0-2.923-3.653-0.179-3.653c1.674,0,3.51,2.271,4.566,2.821l-0.232-0.09c-0.742-0.416-2.762-2.687-4.323-2.687
	c-2.608,0-2.979,3.439,0.134,3.439c1.822,0,2.74-2.057,4.189-2.81L82.425,39.751z M82.425,37.695c-1.63,0.798-2.567,2.9-4.389,2.9
	c-3.113,0-2.923-3.654-0.179-3.654c1.674,0,3.51,2.271,4.566,2.822l-0.232-0.09c-0.742-0.416-2.762-2.687-4.323-2.687
	c-2.608,0-2.979,3.439,0.134,3.439c1.822,0,2.74-2.057,4.189-2.81L82.425,37.695z M82.425,35.64
	c-1.63,0.798-2.567,2.899-4.389,2.899c-3.113,0-2.923-3.653-0.179-3.653c1.674,0,3.51,2.271,4.566,2.822l-0.232-0.089
	c-0.742-0.417-2.762-2.687-4.323-2.687c-2.608,0-2.979,3.439,0.134,3.439c1.822,0,2.74-2.057,4.189-2.81L82.425,35.64z
	 M82.425,45.898c-1.63,0.798-2.567,2.9-4.389,2.9c-3.113,0-2.923-3.653-0.179-3.653c1.674,0,3.51,2.271,4.566,2.821l-0.232-0.09
	c-0.742-0.416-2.762-2.687-4.323-2.687c-2.608,0-2.979,3.439,0.134,3.439c1.822,0,2.74-2.057,4.189-2.81L82.425,45.898z
	 M82.425,43.842c-1.63,0.798-2.567,2.9-4.389,2.9c-3.113,0-2.923-3.653-0.179-3.653c1.674,0,3.51,2.271,4.566,2.822l-0.232-0.09
	c-0.742-0.416-2.762-2.687-4.323-2.687c-2.608,0-2.979,3.44,0.134,3.44c1.822,0,2.74-2.057,4.189-2.81L82.425,43.842z
	 M82.425,41.787c-1.63,0.798-2.567,2.9-4.389,2.9c-3.113,0-2.923-3.653-0.179-3.653c1.674,0,3.51,2.271,4.566,2.821l-0.232-0.09
	c-0.742-0.416-2.762-2.687-4.323-2.687c-2.608,0-2.979,3.44,0.134,3.44c1.822,0,2.74-2.057,4.189-2.81L82.425,41.787z
	 M82.425,47.934c-1.63,0.798-2.567,2.899-4.389,2.899c-3.113,0-2.923-3.653-0.179-3.653c1.674,0,3.51,2.271,4.566,2.821L82.191,50
	c-0.742-0.416-2.762-2.774-4.323-2.774c-2.608,0-2.979,3.439,0.134,3.439c1.822,0,2.74-2.057,4.189-2.81L82.425,47.934z
	 M72.124,12.228c0,2.945,3.608,2.405,3.608,1.113c0-0.551-1.002-0.675-1.002,0.528c0,1.506,2.677,1.664,2.677-0.641
	c0-2.63-4.183-2.619-4.183,0.54c0,2.315,2.36,2.383,2.36,2.383c0.09-0.18,1.013-0.494,1.058-0.292
	c0.045,0.203-0.629,0.225-0.629,0.225c-0.99,0.36-1.576,1.417-1.576,2.084c0,0-0.104,1.693,1.516,1.693
	c1.617,0,1.572-2.068,0.404-2.068c-0.437,0-0.631,0.524-0.631,0.524c0.182-1.079,1.035-1.558,2.188-1.558s3.013,0.958,3.013,3.731
	c0,2.773-2.039,3.695-3.103,3.695c-2.743,0-2.55-3.653,0.032-3.653c1.676,0,3.512,2.271,4.567,2.822l-0.231-0.09
	c-0.741-0.416-2.762-2.687-4.323-2.687c-2.338,0-2.833,3.44-0.079,3.44c1.309,0,3.063-1.233,3.063-3.497
	c0-1.963-1.229-3.687-2.953-3.687c-1.528,0-1.934,0.959-1.934,0.959s0.119-0.09,0.391-0.09c1.244,0,1.422,2.338-0.391,2.338
	c-1.109,0-1.619-0.959-1.619-1.858c0,0-0.033-1.21,1.147-1.986c0,0-2.327-0.012-2.327-2.428c0-3.507,4.316-3.282,4.316-0.54
	c0,2.439-2.799,2.181-2.799,0.641c0-1.428,1.112-1.281,1.112-0.528c0,1.461-3.743,1.899-3.743-1.136c0-1.08,0.842-1.652,0.842-1.652
	c0.158-0.098,0.396-0.213,0.666-0.213c0.754,0,0.899,1.146-0.528,1.146c-1.539,0-1.798-2.799,0.642-2.799
	c2.742,0,2.967,4.316-0.539,4.316c-2.416,0-2.429-2.327-2.429-2.327c-0.774,1.18-1.985,1.147-1.985,1.147
	c-0.899,0-1.859-0.51-1.859-1.619c0-1.813,2.34-1.634,2.34-0.39c0,0.27-0.09,0.39-0.09,0.39s0.957-0.405,0.957-1.933
	c0-1.724-1.723-2.953-3.687-2.953c-2.263,0-3.495,1.753-3.495,3.061c0,2.754,3.438,2.26,3.438-0.079
	c0-1.562-2.271-3.582-2.687-4.324L63.55,3.744c0.552,1.057,2.821,2.893,2.821,4.568c0,2.581-3.653,2.776-3.653,0.034
	c0-1.064,0.923-3.103,3.695-3.103c2.771,0,3.731,1.858,3.731,3.012c0,1.154-0.479,2.008-1.56,2.188c0,0,0.524-0.195,0.524-0.63
	c0-1.169-2.067-1.214-2.067,0.405c0,1.619,1.692,1.514,1.692,1.514c0.668,0,1.725-0.585,2.084-1.575c0,0,0.021-0.674,0.226-0.629
	c0.202,0.045-0.112,0.967-0.293,1.057c0,0,0.067,2.361,2.383,2.361c3.159,0,3.171-4.182,0.54-4.182
	c-2.305,0-2.146,2.675-0.642,2.675c1.202,0,1.03-0.922,0.405-0.922C72.898,10.519,72.124,11.171,72.124,12.228z M77.575,19.184
	c0,0,0,29.333,0,30.816h0.157c0-2.158,0-30.614,0-30.614c0.843,0.167,1.154-0.517,1.154-0.517V50h0.225V18.083
	C79.111,18.083,78.891,18.902,77.575,19.184z M17.576,27.457c1.63,0.798,2.567,2.9,4.388,2.9c3.114,0,2.922-3.653,0.18-3.653
	c-1.675,0-3.511,2.271-4.568,2.822l0.232-0.09c0.742-0.416,2.761-2.687,4.324-2.687c2.607,0,2.979,3.44-0.135,3.44
	c-1.821,0-2.739-2.057-4.189-2.81L17.576,27.457z M17.576,25.401c1.63,0.798,2.567,2.9,4.388,2.9c3.114,0,2.922-3.653,0.18-3.653
	c-1.675,0-3.511,2.271-4.568,2.822l0.232-0.09c0.742-0.416,2.761-2.686,4.324-2.686c2.607,0,2.979,3.439-0.135,3.439
	c-1.821,0-2.739-2.057-4.189-2.811L17.576,25.401z M17.576,23.346c1.63,0.798,2.567,2.9,4.388,2.9c3.114,0,2.922-3.653,0.18-3.653
	c-1.675,0-3.511,2.271-4.568,2.822l0.232-0.09c0.742-0.416,2.761-2.687,4.324-2.687c2.607,0,2.979,3.439-0.135,3.439
	c-1.821,0-2.739-2.057-4.189-2.81L17.576,23.346z M17.576,33.604c1.63,0.798,2.567,2.9,4.388,2.9c3.114,0,2.922-3.653,0.18-3.653
	c-1.675,0-3.511,2.271-4.568,2.822l0.232-0.09c0.742-0.416,2.761-2.686,4.324-2.686c2.607,0,2.979,3.439-0.135,3.439
	c-1.821,0-2.739-2.057-4.189-2.811L17.576,33.604z M17.576,31.548c1.63,0.798,2.567,2.9,4.388,2.9c3.114,0,2.922-3.653,0.18-3.653
	c-1.675,0-3.511,2.271-4.568,2.821l0.232-0.09c0.742-0.416,2.761-2.687,4.324-2.687c2.607,0,2.979,3.44-0.135,3.44
	c-1.821,0-2.739-2.057-4.189-2.81L17.576,31.548z M17.576,29.493c1.63,0.798,2.567,2.9,4.388,2.9c3.114,0,2.922-3.653,0.18-3.653
	c-1.675,0-3.511,2.271-4.568,2.821l0.232-0.09c0.742-0.416,2.761-2.687,4.324-2.687c2.607,0,2.979,3.439-0.135,3.439
	c-1.821,0-2.739-2.057-4.189-2.81L17.576,29.493z M17.576,39.751c1.63,0.798,2.567,2.9,4.388,2.9c3.114,0,2.922-3.653,0.18-3.653
	c-1.675,0-3.511,2.271-4.568,2.821l0.232-0.09c0.742-0.416,2.761-2.687,4.324-2.687c2.607,0,2.979,3.439-0.135,3.439
	c-1.821,0-2.739-2.057-4.189-2.81L17.576,39.751z M17.576,37.695c1.63,0.798,2.567,2.9,4.388,2.9c3.114,0,2.922-3.654,0.18-3.654
	c-1.675,0-3.511,2.271-4.568,2.822l0.232-0.09c0.742-0.416,2.761-2.687,4.324-2.687c2.607,0,2.979,3.439-0.135,3.439
	c-1.821,0-2.739-2.057-4.189-2.81L17.576,37.695z M17.576,35.64c1.63,0.798,2.567,2.899,4.388,2.899c3.114,0,2.922-3.653,0.18-3.653
	c-1.675,0-3.511,2.271-4.568,2.822l0.232-0.089c0.742-0.417,2.761-2.687,4.324-2.687c2.607,0,2.979,3.439-0.135,3.439
	c-1.821,0-2.739-2.057-4.189-2.81L17.576,35.64z M17.576,45.898c1.63,0.798,2.567,2.9,4.388,2.9c3.114,0,2.922-3.653,0.18-3.653
	c-1.675,0-3.511,2.271-4.568,2.821l0.232-0.09c0.742-0.416,2.761-2.687,4.324-2.687c2.607,0,2.979,3.439-0.135,3.439
	c-1.821,0-2.739-2.057-4.189-2.81L17.576,45.898z M17.576,43.842c1.63,0.798,2.567,2.9,4.388,2.9c3.114,0,2.922-3.653,0.18-3.653
	c-1.675,0-3.511,2.271-4.568,2.822l0.232-0.09c0.742-0.416,2.761-2.687,4.324-2.687c2.607,0,2.979,3.44-0.135,3.44
	c-1.821,0-2.739-2.057-4.189-2.81L17.576,43.842z M17.576,41.787c1.63,0.798,2.567,2.9,4.388,2.9c3.114,0,2.922-3.653,0.18-3.653
	c-1.675,0-3.511,2.271-4.568,2.821l0.232-0.09c0.742-0.416,2.761-2.687,4.324-2.687c2.607,0,2.979,3.44-0.135,3.44
	c-1.821,0-2.739-2.057-4.189-2.81L17.576,41.787z M17.576,47.934c1.63,0.798,2.567,2.899,4.388,2.899
	c3.114,0,2.922-3.653,0.18-3.653c-1.675,0-3.511,2.271-4.568,2.821L17.808,50c0.742-0.416,2.761-2.774,4.324-2.774
	c2.607,0,2.979,3.439-0.135,3.439c-1.821,0-2.739-2.057-4.189-2.81L17.576,47.934z M27.876,12.228c0,2.945-3.608,2.405-3.608,1.113
	c0-0.551,1-0.675,1,0.528c0,1.506-2.675,1.664-2.675-0.641c0-2.63,4.182-2.619,4.182,0.54c0,2.315-2.361,2.383-2.361,2.383
	c-0.09-0.18-1.011-0.494-1.057-0.292c-0.045,0.203,0.63,0.225,0.63,0.225c0.989,0.36,1.574,1.417,1.574,2.084
	c0,0,0.105,1.693-1.514,1.693c-1.618,0-1.574-2.068-0.405-2.068c0.435,0,0.629,0.524,0.629,0.524
	c-0.18-1.079-1.034-1.558-2.188-1.558s-3.013,0.958-3.013,3.731c0,2.773,2.039,3.695,3.103,3.695c2.743,0,2.548-3.653-0.034-3.653
	c-1.675,0-3.511,2.271-4.567,2.822l0.232-0.09c0.742-0.416,2.762-2.687,4.324-2.687c2.338,0,2.833,3.44,0.079,3.44
	c-1.308,0-3.062-1.233-3.062-3.497c0-1.963,1.229-3.687,2.953-3.687c1.529,0,1.934,0.959,1.934,0.959s-0.12-0.09-0.39-0.09
	c-1.244,0-1.423,2.338,0.39,2.338c1.109,0,1.619-0.959,1.619-1.858c0,0,0.032-1.21-1.147-1.986c0,0,2.327-0.012,2.327-2.428
	c0-3.507-4.316-3.282-4.316-0.54c0,2.439,2.799,2.181,2.799,0.641c0-1.428-1.113-1.281-1.113-0.528c0,1.461,3.743,1.899,3.743-1.136
	c0-1.08-0.841-1.652-0.841-1.652c-0.158-0.098-0.396-0.213-0.666-0.213c-0.753,0-0.899,1.146,0.528,1.146
	c1.54,0,1.798-2.799-0.641-2.799c-2.743,0-2.968,4.316,0.54,4.316c2.417,0,2.428-2.327,2.428-2.327
	c0.776,1.18,1.986,1.147,1.986,1.147c0.899,0,1.858-0.51,1.858-1.619c0-1.813-2.338-1.634-2.338-0.39c0,0.27,0.09,0.39,0.09,0.39
	S29.929,9.8,29.929,8.272c0-1.724,1.724-2.953,3.687-2.953c2.263,0,3.497,1.753,3.497,3.061c0,2.754-3.44,2.26-3.44-0.079
	c0-1.562,2.271-3.582,2.687-4.324l0.09-0.232c-0.551,1.057-2.821,2.893-2.821,4.568c0,2.581,3.653,2.776,3.653,0.034
	c0-1.064-0.922-3.103-3.695-3.103c-2.772,0-3.731,1.858-3.731,3.012c0,1.154,0.479,2.008,1.559,2.188c0,0-0.524-0.195-0.524-0.63
	c0-1.169,2.068-1.214,2.068,0.405c0,1.619-1.693,1.514-1.693,1.514c-0.668,0-1.724-0.585-2.084-1.575c0,0-0.022-0.674-0.225-0.629
	c-0.202,0.045,0.112,0.967,0.293,1.057c0,0-0.068,2.361-2.383,2.361c-3.159,0-3.17-4.182-0.54-4.182
	c2.304,0,2.147,2.675,0.641,2.675c-1.203,0-1.03-0.922-0.404-0.922C27.102,10.519,27.876,11.171,27.876,12.228z M22.424,19.184
	c0,0,0,29.333,0,30.816h-0.157c0-2.158,0-30.614,0-30.614c-0.839,0.167-1.154-0.517-1.154-0.517V50h-0.225V18.083
	C20.888,18.083,21.282,19.171,22.424,19.184z M77.575,80.813c0,0,0-29.332,0-30.815h0.157c0,2.158,0,30.612,0,30.612
	c0.843-0.166,1.154,0.519,1.154,0.519V49.996h0.225v31.918C79.111,81.914,78.891,81.096,77.575,80.813z M22.424,80.813
	c0,0,0-29.332,0-30.815h-0.157c0,2.158,0,30.612,0,30.612c-0.839-0.166-1.154,0.519-1.154,0.519V49.996h-0.225v31.918
	C20.888,81.914,21.282,80.824,22.424,80.813z M54.096,92.797c0.819-1.506,0.01-3.035-1.744-3.035c-1.897,0-3.181,2.326-4.417,2.326
	c-0.573,0-0.629-0.752,0.011-0.752c0.753,0,3.395,2.676,4.553,2.676c0.966,0,1.021-1.191,0-1.191c-1.327,0-3.551,2.166-4.868,3.261
	c-1.461,1.213-0.843,2.719,0.641,2.719c1.529,0,3.505-2.719,5.013-2.719c1.506,0,1.798,2.033,0.012,2.033
	c-2.158,0-3.642-3.421-6.374-3.421c-1.08,0-1.634,0.63-1.634,0.63s-0.21,0.301-0.21,0.448c0,0.15,0.254-0.282,0.254-0.282
	s0.915-0.095,0.915,0.827c0,1.438-2.349,1.314-2.349-0.271c0-1.012,1.191-1.526,1.191-1.526s0.517,0.123,0.517-0.125
	c0-0.168-0.55,0.035-0.55,0.035s-3.103,0.122-3.103-2.767c0-2.729,3.158-2.563,3.158,0.123c0,1.877-1.698,2.705-2.574,4.233
	l0.09,0.232c0.359-1.078,2.687-2.488,2.687-4.455c0-2.764-3.429-2.967-3.429-0.111c0,2.854,3.137,2.81,3.137,2.81
	s-1.18,0.416-1.18,1.619c0,1.551,2.551,1.799,2.551,0.258c0-1.045-1.045-0.929-1.045-0.929s0.54-0.688,1.603-0.688
	c2.608,0,4.136,3.416,6.34,3.416c1.89,0,1.783-2.174,0-2.174c-1.679,0-3.792,2.729-5.081,2.729s-1.783-1.588-0.435-2.607
	c1.349-1.02,3.626-3.238,4.691-3.238c0.84,0,0.854,1.08,0.03,1.08c-1.17,0-3.748-2.668-4.512-2.668c-0.765,0-0.825,0.854,0,0.854
	c1.559,0,2.517-2.321,4.376-2.321c1.857,0,2.488,1.889,1.289,3.28 M40.561,96.252c0.798-1.629,2.9-2.566,2.9-4.389
	c0-3.113-3.653-2.922-3.653-0.178c0,1.674,2.271,3.51,2.822,4.565l-0.09-0.231c-0.416-0.742-2.687-2.763-2.687-4.324
	c0-2.607,3.44-2.979,3.44,0.135c0,1.822-2.057,2.74-2.81,4.189L40.561,96.252z M38.505,96.252c0.798-1.629,2.9-2.566,2.9-4.389
	c0-3.113-3.653-2.922-3.653-0.178c0,1.674,2.271,3.51,2.821,4.565l-0.089-0.231c-0.416-0.742-2.687-2.763-2.687-4.324
	c0-2.607,3.439-2.979,3.439,0.135c0,1.822-2.057,2.74-2.81,4.189L38.505,96.252z M36.45,96.252c0.798-1.629,2.9-2.566,2.9-4.389
	c0-3.113-3.653-2.922-3.653-0.178c0,1.674,2.271,3.51,2.821,4.565l-0.09-0.231c-0.416-0.742-2.687-2.763-2.687-4.324
	c0-2.607,3.439-2.979,3.439,0.135c0,1.822-2.057,2.74-2.81,4.189L36.45,96.252z M59.453,96.256
	c-0.799-1.631-2.898-2.568-2.898-4.389c0-3.113,3.651-2.922,3.651-0.18c0,1.676-2.271,3.51-2.819,4.567l0.088-0.233
	c0.416-0.74,2.688-2.761,2.688-4.322c0-2.609-3.439-2.979-3.439,0.133c0,1.822,2.059,2.74,2.812,4.189L59.453,96.256z
	 M61.509,96.256c-0.798-1.631-2.899-2.568-2.899-4.389c0-3.113,3.652-2.922,3.652-0.18c0,1.676-2.271,3.51-2.82,4.567l0.09-0.233
	c0.416-0.74,2.687-2.761,2.687-4.322c0-2.609-3.438-2.979-3.438,0.133c0,1.822,2.057,2.74,2.811,4.189L61.509,96.256z
	 M63.564,96.256c-0.799-1.631-2.899-2.568-2.899-4.389c0-3.113,3.651-2.922,3.651-0.18c0,1.676-2.271,3.51-2.82,4.567l0.09-0.233
	c0.416-0.74,2.688-2.761,2.688-4.322c0-2.609-3.439-2.979-3.439,0.133c0,1.822,2.059,2.74,2.811,4.189L63.564,96.256z
	 M54.096,92.717h13.945c0,0-0.674-0.434-0.518-1.154c0,0-9.668,0-11.824,0c-2.16,0-4.198-0.539-5.643-2.703
	c-1.596,2.205-3.358,2.701-5.741,2.701c-2.158,0-11.825,0-11.825,0c0.157,0.722-0.517,1.154-0.517,1.154h13.945
	c-0.779-1.588,0.165-3.072,1.693-3.072c1.528,0,3.237,2.578,4.676,2.578c0.63,0,0.854-0.869,0.074-0.869
	c-1.033,0-3.491,2.519-4.764,2.519c-1.05,0-1.08-1.154-0.016-1.08c0.703,0.051,3.851,2.504,4.946,3.283
	c1.084,0.771,0.765,2.758-0.811,2.758c-1.573,0-3.162-2.744-5.005-2.744c-1.844,0-1.753,1.994-0.21,1.994
	c1.798,0,4.406-3.463,6.939-3.463c1.095,0,1.338,0.813,1.338,0.813s0.227,0.264,0.154,0.344c-0.102,0.109-0.256-0.284-0.256-0.284
	s-0.914-0.095-0.914,0.827c0,1.438,2.35,1.314,2.35-0.27c0-1.012-1.19-1.529-1.19-1.529s-0.517,0.125-0.517-0.123
	c0-0.17,0.551,0.033,0.551,0.033s3.102,0.123,3.102-2.764c0-2.732-3.158-2.564-3.158,0.123c0,1.877,1.697,2.705,2.574,4.232
	l-0.09,0.233c-0.359-1.08-2.687-2.487-2.687-4.457c0-2.764,3.428-2.967,3.428-0.11c0,2.855-3.136,2.811-3.136,2.811
	s1.18,0.416,1.18,1.617c0,1.553-2.551,1.799-2.551,0.26c0-1.047,1.074-0.916,1.074-0.916s-0.24-0.773-1.229-0.773
	c-2.181,0-4.969,3.484-6.992,3.484c-1.753,0-1.573-2.135,0.112-2.135c2.248,0,3.395,2.697,5.171,2.697
	c1.552,0,1.671-1.972,0.449-2.812c-0.483-0.332-3.912-3.057-4.608-3.057c-0.9,0-1.035,0.922,0.044,0.922
	c0.854,0,3.588-2.479,4.736-2.479c0.704,0,1.034,0.975-0.091,0.975c-1.618,0-3.117-2.578-4.63-2.578
	c-1.364,0-2.518,1.379-1.439,3.236H31.187c0,0,1.438-0.502,1.102-1.535c0,0,10.791,0,12.274,0c1.484,0,3.799-0.203,5.417-2.766
	c1.62,2.563,3.988,2.768,5.472,2.768c1.483,0,12.272,0,12.272,0c-0.336,1.035,1.104,1.537,1.104,1.537H53.795 M82.425,72.543
	c-1.63-0.799-2.567-2.9-4.389-2.9c-3.113,0-2.923,3.654-0.179,3.654c1.674,0,3.51-2.27,4.566-2.822l-0.232,0.09
	c-0.742,0.416-2.762,2.688-4.323,2.688c-2.608,0-2.979-3.438,0.134-3.438c1.822,0,2.74,2.057,4.189,2.809L82.425,72.543z
	 M82.425,74.6c-1.63-0.799-2.567-2.899-4.389-2.899c-3.113,0-2.923,3.651-0.179,3.651c1.674,0,3.51-2.27,4.566-2.819l-0.232,0.09
	c-0.742,0.416-2.762,2.687-4.323,2.687c-2.608,0-2.979-3.439,0.134-3.439c1.822,0,2.74,2.059,4.189,2.811L82.425,74.6z
	 M82.425,76.654c-1.63-0.797-2.567-2.9-4.389-2.9c-3.113,0-2.923,3.654-0.179,3.654c1.674,0,3.51-2.271,4.566-2.822l-0.232,0.09
	c-0.742,0.416-2.762,2.688-4.323,2.688c-2.608,0-2.979-3.439,0.134-3.439c1.822,0,2.74,2.058,4.189,2.812L82.425,76.654z
	 M82.425,66.396c-1.63-0.799-2.567-2.9-4.389-2.9c-3.113,0-2.923,3.654-0.179,3.654c1.674,0,3.51-2.271,4.566-2.822l-0.232,0.09
	c-0.742,0.416-2.762,2.686-4.323,2.686c-2.608,0-2.979-3.438,0.134-3.438c1.822,0,2.74,2.057,4.189,2.809L82.425,66.396z
	 M82.425,68.451c-1.63-0.797-2.567-2.898-4.389-2.898c-3.113,0-2.923,3.652-0.179,3.652c1.674,0,3.51-2.27,4.566-2.82l-0.232,0.09
	c-0.742,0.414-2.762,2.687-4.323,2.687c-2.608,0-2.979-3.438,0.134-3.438c1.822,0,2.74,2.057,4.189,2.811L82.425,68.451z
	 M82.425,70.508c-1.63-0.799-2.567-2.9-4.389-2.9c-3.113,0-2.923,3.652-0.179,3.652c1.674,0,3.51-2.27,4.566-2.82l-0.232,0.091
	c-0.742,0.415-2.762,2.688-4.323,2.688c-2.608,0-2.979-3.44,0.134-3.44c1.822,0,2.74,2.059,4.189,2.811L82.425,70.508z
	 M82.425,60.25c-1.63-0.799-2.567-2.9-4.389-2.9c-3.113,0-2.923,3.652-0.179,3.652c1.674,0,3.51-2.27,4.566-2.82l-0.232,0.09
	c-0.742,0.416-2.762,2.687-4.323,2.687c-2.608,0-2.979-3.438,0.134-3.438c1.822,0,2.74,2.057,4.189,2.811L82.425,60.25z
	 M82.425,62.305c-1.63-0.797-2.567-2.899-4.389-2.899c-3.113,0-2.923,3.653-0.179,3.653c1.674,0,3.51-2.271,4.566-2.822
	l-0.232,0.091c-0.742,0.416-2.762,2.688-4.323,2.688c-2.608,0-2.979-3.439,0.134-3.439c1.822,0,2.74,2.057,4.189,2.809
	L82.425,62.305z M82.425,64.361c-1.63-0.799-2.567-2.9-4.389-2.9c-3.113,0-2.923,3.652-0.179,3.652c1.674,0,3.51-2.271,4.566-2.822
	l-0.232,0.092c-0.742,0.416-2.762,2.686-4.323,2.686c-2.608,0-2.979-3.438,0.134-3.438c1.822,0,2.74,2.058,4.189,2.812
	L82.425,64.361z M82.425,54.102c-1.63-0.797-2.567-2.897-4.389-2.897c-3.113,0-2.923,3.651-0.179,3.651
	c1.674,0,3.51-2.27,4.566-2.819l-0.232,0.088c-0.742,0.416-2.762,2.688-4.323,2.688c-2.608,0-2.979-3.439,0.134-3.439
	c1.822,0,2.74,2.057,4.189,2.811L82.425,54.102z M82.425,56.158c-1.63-0.799-2.567-2.9-4.389-2.9c-3.113,0-2.923,3.652-0.179,3.652
	c1.674,0,3.51-2.27,4.566-2.82l-0.232,0.09c-0.742,0.416-2.762,2.687-4.323,2.687c-2.608,0-2.979-3.439,0.134-3.439
	c1.822,0,2.74,2.058,4.189,2.812L82.425,56.158z M82.425,58.213c-1.63-0.797-2.567-2.9-4.389-2.9c-3.113,0-2.923,3.654-0.179,3.654
	c1.674,0,3.51-2.271,4.566-2.822l-0.232,0.09c-0.742,0.416-2.762,2.688-4.323,2.688c-2.608,0-2.979-3.438,0.134-3.438
	c1.822,0,2.74,2.057,4.189,2.811L82.425,58.213z M82.425,52.066c-1.63-0.799-2.567-2.9-4.389-2.9c-3.113,0-2.923,3.652-0.179,3.652
	c1.674,0,3.51-2.271,4.566-2.82L82.191,50c-0.742,0.416-2.762,2.773-4.323,2.773c-2.608,0-2.979-3.439,0.134-3.439
	c1.822,0,2.74,2.059,4.189,2.811L82.425,52.066z M72.124,87.771c0-2.943,3.608-2.404,3.608-1.111c0,0.551-1.002,0.674-1.002-0.529
	c0-1.506,2.677-1.662,2.677,0.641c0,2.631-4.183,2.619-4.183-0.539c0-2.313,2.36-2.383,2.36-2.383
	c0.09,0.181,1.013,0.494,1.058,0.293c0.045-0.203-0.629-0.225-0.629-0.225c-0.99-0.361-1.576-1.416-1.576-2.084
	c0,0-0.104-1.693,1.516-1.693c1.617,0,1.572,2.068,0.404,2.068c-0.437,0-0.631-0.525-0.631-0.525c0.182,1.08,1.035,1.56,2.188,1.56
	s3.013-0.959,3.013-3.732c0-2.771-2.039-3.692-3.103-3.692c-2.743,0-2.55,3.651,0.032,3.651c1.676,0,3.512-2.27,4.567-2.819
	l-0.231,0.09c-0.741,0.416-2.762,2.686-4.323,2.686c-2.338,0-2.833-3.439-0.079-3.439c1.309,0,3.063,1.234,3.063,3.496
	c0,1.966-1.229,3.688-2.953,3.688c-1.528,0-1.934-0.959-1.934-0.959s0.119,0.09,0.391,0.09c1.244,0,1.422-2.338-0.391-2.338
	c-1.109,0-1.619,0.959-1.619,1.856c0,0-0.033,1.212,1.147,1.986c0,0-2.327,0.012-2.327,2.428c0,3.509,4.316,3.283,4.316,0.539
	c0-2.438-2.799-2.18-2.799-0.641c0,1.428,1.112,1.283,1.112,0.529c0-1.461-3.743-1.9-3.743,1.135c0,1.08,0.842,1.652,0.842,1.652
	c0.158,0.098,0.396,0.213,0.666,0.213c0.754,0,0.899-1.145-0.528-1.145c-1.539,0-1.798,2.797,0.642,2.797
	c2.742,0,2.967-4.316-0.539-4.316c-2.416,0-2.429,2.328-2.429,2.328c-0.774-1.18-1.985-1.148-1.985-1.148
	c-0.899,0-1.859,0.51-1.859,1.619c0,1.813,2.34,1.635,2.34,0.391c0-0.27-0.09-0.391-0.09-0.391s0.957,0.404,0.957,1.934
	c0,1.724-1.723,2.953-3.687,2.953c-2.263,0-3.495-1.754-3.495-3.063c0-2.754,3.438-2.258,3.438,0.08
	c0,1.563-2.271,3.582-2.687,4.322l-0.091,0.233c0.552-1.059,2.821-2.893,2.821-4.567c0-2.582-3.653-2.775-3.653-0.033
	c0,1.063,0.923,3.102,3.695,3.102c2.771,0,3.731-1.857,3.731-3.012c0-1.155-0.479-2.008-1.56-2.189c0,0,0.524,0.195,0.524,0.631
	c0,1.168-2.067,1.213-2.067-0.403c0-1.619,1.692-1.515,1.692-1.515c0.668,0,1.725,0.584,2.084,1.574c0,0,0.021,0.674,0.226,0.629
	c0.202-0.045-0.112-0.967-0.293-1.057c0,0,0.067-2.359,2.383-2.359c3.159,0,3.171,4.18,0.54,4.18c-2.305,0-2.146-2.676-0.642-2.676
	c1.202,0,1.03,0.924,0.405,0.924C72.898,89.482,72.124,88.83,72.124,87.771z M17.576,72.543c1.63-0.799,2.567-2.9,4.388-2.9
	c3.114,0,2.922,3.654,0.18,3.654c-1.675,0-3.511-2.27-4.568-2.822l0.232,0.09c0.742,0.416,2.761,2.688,4.324,2.688
	c2.607,0,2.979-3.438-0.135-3.438c-1.821,0-2.739,2.057-4.189,2.809L17.576,72.543z M17.576,74.6
	c1.63-0.799,2.567-2.899,4.388-2.899c3.114,0,2.922,3.651,0.18,3.651c-1.675,0-3.511-2.27-4.568-2.819l0.232,0.09
	c0.742,0.416,2.761,2.687,4.324,2.687c2.607,0,2.979-3.439-0.135-3.439c-1.821,0-2.739,2.059-4.189,2.811L17.576,74.6z
	 M17.576,76.654c1.63-0.797,2.567-2.9,4.388-2.9c3.114,0,2.922,3.654,0.18,3.654c-1.675,0-3.511-2.271-4.568-2.822l0.232,0.09
	c0.742,0.416,2.761,2.688,4.324,2.688c2.607,0,2.979-3.439-0.135-3.439c-1.821,0-2.739,2.058-4.189,2.812L17.576,76.654z
	 M17.576,66.396c1.63-0.799,2.567-2.9,4.388-2.9c3.114,0,2.922,3.654,0.18,3.654c-1.675,0-3.511-2.271-4.568-2.822l0.232,0.09
	c0.742,0.416,2.761,2.686,4.324,2.686c2.607,0,2.979-3.438-0.135-3.438c-1.821,0-2.739,2.057-4.189,2.809L17.576,66.396z
	 M17.576,68.451c1.63-0.797,2.567-2.898,4.388-2.898c3.114,0,2.922,3.652,0.18,3.652c-1.675,0-3.511-2.27-4.568-2.82l0.232,0.09
	c0.742,0.414,2.761,2.687,4.324,2.687c2.607,0,2.979-3.438-0.135-3.438c-1.821,0-2.739,2.057-4.189,2.811L17.576,68.451z
	 M17.576,70.508c1.63-0.799,2.567-2.9,4.388-2.9c3.114,0,2.922,3.652,0.18,3.652c-1.675,0-3.511-2.27-4.568-2.82l0.232,0.091
	c0.742,0.415,2.761,2.688,4.324,2.688c2.607,0,2.979-3.44-0.135-3.44c-1.821,0-2.739,2.059-4.189,2.811L17.576,70.508z
	 M17.576,60.25c1.63-0.799,2.567-2.9,4.388-2.9c3.114,0,2.922,3.652,0.18,3.652c-1.675,0-3.511-2.27-4.568-2.82l0.232,0.09
	c0.742,0.416,2.761,2.687,4.324,2.687c2.607,0,2.979-3.438-0.135-3.438c-1.821,0-2.739,2.057-4.189,2.811L17.576,60.25z
	 M17.576,62.305c1.63-0.797,2.567-2.899,4.388-2.899c3.114,0,2.922,3.653,0.18,3.653c-1.675,0-3.511-2.271-4.568-2.822l0.232,0.091
	c0.742,0.416,2.761,2.688,4.324,2.688c2.607,0,2.979-3.439-0.135-3.439c-1.821,0-2.739,2.057-4.189,2.809L17.576,62.305z
	 M17.576,64.361c1.63-0.799,2.567-2.9,4.388-2.9c3.114,0,2.922,3.652,0.18,3.652c-1.675,0-3.511-2.271-4.568-2.822l0.232,0.092
	c0.742,0.416,2.761,2.686,4.324,2.686c2.607,0,2.979-3.438-0.135-3.438c-1.821,0-2.739,2.058-4.189,2.812L17.576,64.361z
	 M17.576,54.102c1.63-0.797,2.567-2.897,4.388-2.897c3.114,0,2.922,3.651,0.18,3.651c-1.675,0-3.511-2.27-4.568-2.819l0.232,0.088
	c0.742,0.416,2.761,2.688,4.324,2.688c2.607,0,2.979-3.439-0.135-3.439c-1.821,0-2.739,2.057-4.189,2.811L17.576,54.102z
	 M17.576,56.158c1.63-0.799,2.567-2.9,4.388-2.9c3.114,0,2.922,3.652,0.18,3.652c-1.675,0-3.511-2.27-4.568-2.82l0.232,0.09
	c0.742,0.416,2.761,2.687,4.324,2.687c2.607,0,2.979-3.439-0.135-3.439c-1.821,0-2.739,2.058-4.189,2.812L17.576,56.158z
	 M17.576,58.213c1.63-0.797,2.567-2.9,4.388-2.9c3.114,0,2.922,3.654,0.18,3.654c-1.675,0-3.511-2.271-4.568-2.822l0.232,0.09
	c0.742,0.416,2.761,2.688,4.324,2.688c2.607,0,2.979-3.438-0.135-3.438c-1.821,0-2.739,2.057-4.189,2.811L17.576,58.213z
	 M17.576,52.066c1.63-0.799,2.567-2.9,4.388-2.9c3.114,0,2.922,3.652,0.18,3.652c-1.675,0-3.511-2.271-4.568-2.82L17.808,50
	c0.742,0.416,2.761,2.773,4.324,2.773c2.607,0,2.979-3.439-0.135-3.439c-1.821,0-2.739,2.059-4.189,2.811L17.576,52.066z
	 M27.876,87.771c0-2.943-3.608-2.404-3.608-1.111c0,0.551,1,0.674,1-0.529c0-1.506-2.675-1.662-2.675,0.641
	c0,2.631,4.182,2.619,4.182-0.539c0-2.313-2.361-2.383-2.361-2.383c-0.09,0.181-1.011,0.494-1.057,0.293
	c-0.045-0.203,0.63-0.225,0.63-0.225c0.989-0.361,1.574-1.416,1.574-2.084c0,0,0.105-1.693-1.514-1.693
	c-1.618,0-1.574,2.068-0.405,2.068c0.435,0,0.629-0.525,0.629-0.525c-0.18,1.08-1.034,1.56-2.188,1.56s-3.013-0.959-3.013-3.732
	c0-2.771,2.039-3.692,3.103-3.692c2.743,0,2.548,3.651-0.034,3.651c-1.675,0-3.511-2.27-4.567-2.819l0.232,0.09
	c0.742,0.416,2.762,2.686,4.324,2.686c2.338,0,2.833-3.439,0.079-3.439c-1.308,0-3.062,1.234-3.062,3.496
	c0,1.966,1.229,3.688,2.953,3.688c1.529,0,1.934-0.959,1.934-0.959s-0.12,0.09-0.39,0.09c-1.244,0-1.423-2.338,0.39-2.338
	c1.109,0,1.619,0.959,1.619,1.856c0,0,0.032,1.212-1.147,1.986c0,0,2.327,0.012,2.327,2.428c0,3.509-4.316,3.283-4.316,0.539
	c0-2.438,2.799-2.18,2.799-0.641c0,1.428-1.113,1.283-1.113,0.529c0-1.461,3.743-1.9,3.743,1.135c0,1.08-0.841,1.652-0.841,1.652
	c-0.158,0.098-0.396,0.213-0.666,0.213c-0.753,0-0.899-1.145,0.528-1.145c1.54,0,1.798,2.797-0.641,2.797
	c-2.743,0-2.968-4.316,0.54-4.316c2.417,0,2.428,2.328,2.428,2.328c0.776-1.18,1.986-1.148,1.986-1.148
	c0.899,0,1.858,0.51,1.858,1.619c0,1.813-2.338,1.635-2.338,0.391c0-0.27,0.09-0.391,0.09-0.391s-0.959,0.404-0.959,1.934
	c0,1.724,1.724,2.953,3.687,2.953c2.263,0,3.497-1.754,3.497-3.063c0-2.754-3.44-2.258-3.44,0.08c0,1.563,2.271,3.582,2.687,4.322
	l0.09,0.233c-0.551-1.059-2.821-2.893-2.821-4.567c0-2.582,3.653-2.775,3.653-0.033c0,1.063-0.922,3.102-3.695,3.102
	c-2.772,0-3.731-1.857-3.731-3.012c0-1.155,0.479-2.008,1.559-2.189c0,0-0.524,0.195-0.524,0.631c0,1.168,2.068,1.213,2.068-0.403
	c0-1.619-1.693-1.515-1.693-1.515c-0.668,0-1.724,0.584-2.084,1.574c0,0-0.022,0.674-0.225,0.629
	c-0.202-0.045,0.112-0.967,0.293-1.057c0,0-0.068-2.359-2.383-2.359c-3.159,0-3.17,4.18-0.54,4.18c2.304,0,2.147-2.676,0.641-2.676
	c-1.203,0-1.03,0.924-0.404,0.924C27.102,89.482,27.876,88.83,27.876,87.771z"/>
</svg>
