<?xml version="1.0" encoding="utf-8"?>
<!-- Generator: Adobe Illustrator 16.0.3, SVG Export Plug-In . SVG Version: 6.00 Build 0)  -->
<!DOCTYPE svg PUBLIC "-//W3C//DTD SVG 1.1 Tiny//EN" "http://www.w3.org/Graphics/SVG/1.1/DTD/svg11-tiny.dtd">
<svg version="1.1" baseProfile="tiny" id="Layer_1" xmlns="http://www.w3.org/2000/svg" xmlns:xlink="http://www.w3.org/1999/xlink"
	 x="0px" y="0px" width="100px" height="56.657px" viewBox="0 0 100 56.657" xml:space="preserve">
<path fill-rule="evenodd" d="M54.978,41.473c-1.947,0-3.425-0.018-4.901,0.003c-4.645,0.068-9.29,0.161-13.936,0.222
	c-2.835,0.037-3.911-1.721-3.604-3.849c0.417-2.881-1.025-3.931-3.304-5.241c-3.308-1.901-8.069-1.365-11.371,1.732
	c-3.065,2.876-6.102,5.786-9.218,8.609c-0.663,0.6-1.573,0.984-2.432,1.296c-1.23,0.448-2.005-0.063-2.409-1.337
	c-1.433-4.518-0.855-9.051,0.21-13.471c0.423-1.755,0.276-3.16-0.65-4.412c-2.505-3.382-3.202-7.27-3.355-11.286
	c-0.136-3.553,1.456-4.732,4.701-3.193c3.315,1.572,6.336,3.752,9.54,5.571c2.133,1.211,4.318,2.354,6.563,3.338
	c1.269,0.556,2.769,1.156,4.051,0.968c1.796-0.263,3.555-1.108,5.206-1.947c2.448-1.243,4.789-2.698,7.172-4.07
	c0.152-0.088,0.271-0.235,0.61-0.538c-2.22-2.477-4.42-4.927-6.612-7.386c-0.693-0.778-1.428-1.533-2.03-2.379
	c-1.107-1.558-0.714-2.606,1.176-2.925c7.521-1.27,15.1-1.424,22.687-0.89c2.858,0.202,5.691,0.758,8.54,1.121
	c5.554,0.707,10.382,2.93,14.411,6.84c0.135,0.13,0.303,0.268,0.356,0.433c0.963,3.031,3.796,3.682,6.204,4.816
	c5.76,2.712,10.701,6.381,14.072,11.885c1.146,1.871,2.17,3.826,3.113,5.808c0.57,1.198,0.046,2.292-1.074,2.878
	c-2.849,1.488-5.666,3.092-8.649,4.253c-5.803,2.259-11.85,3.516-18.112,3.681c-0.637,0.017-1.479,0.689-1.838,1.29
	c-1.325,2.212-2.369,4.596-3.745,6.772c-1.24,1.963-2.579,3.944-4.232,5.548c-2.136,2.07-5.434,0.871-6.691-1.97
	C53.752,49.867,53.369,46.067,54.978,41.473z"/>
</svg>
