<?xml version="1.0" encoding="utf-8"?>
<!-- Generator: Adobe Illustrator 16.0.0, SVG Export Plug-In . SVG Version: 6.00 Build 0)  -->
<!DOCTYPE svg PUBLIC "-//W3C//DTD SVG 1.1//EN" "http://www.w3.org/Graphics/SVG/1.1/DTD/svg11.dtd">
<svg version="1.1"
	 id="svg607" xmlns:cc="http://creativecommons.org/ns#" xmlns:dc="http://purl.org/dc/elements/1.1/" xmlns:rdf="http://www.w3.org/1999/02/22-rdf-syntax-ns#"
	 xmlns="http://www.w3.org/2000/svg" xmlns:xlink="http://www.w3.org/1999/xlink" x="0px" y="0px" width="143.447px"
	 height="71.281px" viewBox="0 0 143.447 71.281" enable-background="new 0 0 143.447 71.281" xml:space="preserve">
<rect id="rect611" x="0" y="0.001" width="143.446" height="35.64"/>
<rect id="rect612" x="0" y="35.64" fill="#107B00" width="143.446" height="35.641"/>
<rect id="rect643" x="0" y="23.572" fill="#FFFFFF" width="143.446" height="24.519"/>
<path fill="#FF1800" d="M76.086,40.961l-3.619-2.627l-3.641,2.63l1.395-4.23l-3.643-2.629l4.481,0.01l1.391-4.253l1.375,4.235
	l4.499,0.002l-3.631,2.608L76.086,40.961z M69.249,43.944c-7.076,2.44-12.404-2.852-12.497-8.279
	c-0.093-5.424,5.265-11.02,12.533-8.471c-4.112,0.605-7.132,4.188-7.167,8.237C62.09,38.492,63.912,42.857,69.249,43.944
	L69.249,43.944z M0.003,0.001l48.835,35.726L0,71.28L0.001,0.365L0.003,0.001L0.003,0.001z"/>
</svg>
