<?xml version="1.0" encoding="utf-8"?>
<!-- Generator: Adobe Illustrator 16.0.0, SVG Export Plug-In . SVG Version: 6.00 Build 0)  -->
<!DOCTYPE svg PUBLIC "-//W3C//DTD SVG 1.1//EN" "http://www.w3.org/Graphics/SVG/1.1/DTD/svg11.dtd">
<svg version="1.1" id="Layer_1" xmlns="http://www.w3.org/2000/svg" xmlns:xlink="http://www.w3.org/1999/xlink" x="0px" y="0px"
	 width="100px" height="100px" viewBox="0 0 100 100" enable-background="new 0 0 100 100" xml:space="preserve">
<g>
	<path d="M92.477,38.85c0.166,4.3-0.718,10.4-2.65,18.3c-1.934,7.899-5.967,15.783-12.1,23.649c-6.102,7.9-15.352,13.95-27.75,18.15
		c-12.367-4.2-21.617-10.25-27.75-18.15c-6.1-7.866-10.117-15.75-12.05-23.649c-1.933-7.899-2.816-14-2.65-18.3
		c-0.333-12.033,3.567-24.633,11.7-37.8c3.433,1.533,8.066,2.417,13.9,2.65c5.8,0.233,11.417-0.65,16.851-2.65
		c5.433,2,11.067,2.883,16.9,2.65c5.834-0.233,10.467-1.117,13.9-2.65C88.908,14.183,92.809,26.783,92.477,38.85"/>
</g>
</svg>
