<svg xmlns="http://www.w3.org/2000/svg" width="203" height="348" x="0" y="0" id="svgcontent" viewBox="0 0 203 348" overflow="hidden"><defs><clipPath class="clippath" id="svg_4"><path d="M63.75,52.96156C66.39865,77.23537 66.39865,101.70131 63.75,125.97439C63.75,130.99675 68.25967,135.11742 73.91422,135.11742C100.90005,132.73537 128.09984,132.73537 155.08612,135.11742C160.66887,135.11742 165.25,131.06142 165.25,125.97439C162.60088,101.70131 162.60088,77.23537 165.25,52.96156C165.25,47.93923 160.74072,43.81892 155.08612,43.81892L155.08612,43.8832C128.09984,46.26524 100.90005,46.26524 73.91422,43.8832C68.33113,43.8832 63.75,47.93962 63.75,53.02583" id="svg_1" opacity="1" stroke="#000000" shapeType="roundedSquare" fill="#000" fill-opacity="0" stroke-width="4" stroke-dasharray="none"/></clipPath><clipPath class="clippath" id="svg_6"><path d="M41.75,194.62352C44.94665,220.34007 44.94665,246.26007 41.75,271.97589C41.75,277.29669 47.19273,281.66229 54.0172,281.66229C86.58627,279.13864 119.4136,279.13864 151.98334,281.66229C158.72108,281.66229 164.25,277.36517 164.25,271.97589C161.05284,246.26007 161.05284,220.34006 164.25,194.62352C164.25,189.3027 158.80782,184.9375 151.98334,184.9375L151.98334,185.00558C119.4136,187.52922 86.58627,187.52922 54.0172,185.00558C47.27897,185.00558 41.75,189.3031 41.75,194.6916" id="svg_8" opacity="1" stroke="#000000" shapeType="roundedSquare" fill="#000" fill-opacity="0" stroke-width="4" stroke-dasharray="none"/></clipPath><clipPath class="clippath" id="svg_11"><path d="M152.25,126.70771C152.25,154.29411 129.52849,176.65852 101.49998,176.65852C73.4715,176.65866 50.75,154.2948 50.75,126.70771C50.75,99.12062 73.4715,76.75697 101.50009,76.75697C129.52859,76.75697 152.25,99.12062 152.25,126.70771z" id="svg_2" opacity="1" stroke="#000000" shapeType="circle" fill="#000" fill-opacity="0" stroke-width="0" stroke-dasharray="none"/></clipPath><clipPath class="clippath" id="svg_7"><path d="M58.11941,87.46902C54.89785,91.97997 53.03629,97.35024 52.75,102.86302L52.82146,102.86302C52.53517,108.87777 53.82413,114.89209 56.4731,120.26234L56.4731,120.33424C58.54949,124.5589 61.19846,128.49725 64.20605,132.07701C66.92691,135.37088 69.93407,138.4491 73.08459,141.24185C75.51917,143.46117 78.09666,145.46651 80.74564,147.47099C82.10607,148.40135 83.39503,149.40318 84.75462,150.33437L84.68316,150.33437C87.18919,152.33929 89.40851,154.77344 91.27049,157.42284C94.63584,162.07756 96.78369,167.51845 97.42817,173.24648C104.15886,170.95526 110.60284,167.7337 116.4738,163.72345C130.15001,154.77344 141.03262,142.24367 147.90627,127.49374L147.97815,127.49374C151.62979,120.11942 153.70618,112.09975 154.20688,103.86569L154.20688,103.93674C154.49361,97.99389 153.34799,92.05145 150.84195,86.60973C148.83662,82.31318 145.75841,78.66238 141.89194,75.79773C138.88521,73.50652 135.30418,72.14609 131.50961,71.78832C124.34883,71.43014 117.33311,74.151 112.32104,79.44938C109.45724,82.45654 107.02267,85.9644 105.08838,89.68793L105.15984,89.68793C104.30054,91.40613 103.51269,93.12475 102.86863,94.91441L102.79716,94.91441C101.5082,92.90992 100.07629,90.97647 98.5725,89.11534C95.42242,85.24844 91.69888,82.02646 87.40275,79.52084C82.6774,76.65704 76.94937,75.94067 71.65057,77.65929L71.72205,77.65929C66.28074,79.44938 61.55496,82.88619 58.18961,87.54008" id="svg_9" opacity="1" stroke="#000000" shapeType="heartCurve" fill="#000" fill-opacity="0" stroke-width="0" stroke-dasharray="none"/></clipPath><filter id="svg_10" color-interpolation-filters="sRGB"><feColorMatrix type="matrix" values=".343 .669 .119 0 0             .249 .626 .130 0 0            .172 .334 .111 0 0            .000 .000 .000 1 0 "/></filter><clipPath class="clippath" id="svg_12"><path d="M58.11941,87.46902C54.89785,91.97997 53.03629,97.35024 52.75,102.86302L52.82146,102.86302C52.53517,108.87777 53.82413,114.89209 56.4731,120.26234L56.4731,120.33424C58.54949,124.5589 61.19846,128.49725 64.20605,132.07701C66.92691,135.37088 69.93407,138.4491 73.08459,141.24185C75.51917,143.46117 78.09666,145.46651 80.74564,147.47099C82.10607,148.40135 83.39503,149.40318 84.75462,150.33437L84.68316,150.33437C87.18919,152.33929 89.40851,154.77344 91.27049,157.42284C94.63584,162.07756 96.78369,167.51845 97.42817,173.24648C104.15886,170.95526 110.60284,167.7337 116.4738,163.72345C130.15001,154.77344 141.03262,142.24367 147.90627,127.49374L147.97815,127.49374C151.62979,120.11942 153.70618,112.09975 154.20688,103.86569L154.20688,103.93674C154.49361,97.99389 153.34799,92.05145 150.84195,86.60973C148.83662,82.31318 145.75841,78.66238 141.89194,75.79773C138.88521,73.50652 135.30418,72.14609 131.50961,71.78832C124.34883,71.43014 117.33311,74.151 112.32104,79.44938C109.45724,82.45654 107.02267,85.9644 105.08838,89.68793L105.15984,89.68793C104.30054,91.40613 103.51269,93.12475 102.86863,94.91441L102.79716,94.91441C101.5082,92.90992 100.07629,90.97647 98.5725,89.11534C95.42242,85.24844 91.69888,82.02646 87.40275,79.52084C82.6774,76.65704 76.94937,75.94067 71.65057,77.65929L71.72205,77.65929C66.28074,79.44938 61.55496,82.88619 58.18961,87.54008" id="svg_13" opacity="1" stroke="#000000" shapeType="heartCurve" fill="#000" fill-opacity="0" stroke-width="0" stroke-dasharray="none"/></clipPath><filter id="svg_14" color-interpolation-filters="sRGB"><feColorMatrix type="matrix" values="1.0 0   0   0   0            0   0.2 0   0   0             0   0   0.2 0   0             0   0   0   1.0 0 "/></filter><clipPath class="clippath" id="svg_15"><path d="M37.65353,77.95819C33.51152,83.75798 31.11809,90.6626 30.75,97.75046L30.84188,97.75046C30.47379,105.4837 32.13102,113.21641 35.53685,120.12102L35.53685,120.21346C38.20649,125.64516 41.61231,130.70877 45.4792,135.31131C48.97746,139.5463 52.8438,143.504 56.89447,147.09467C60.02464,149.94809 63.33857,152.52637 66.74439,155.10358C68.49352,156.29974 70.15076,157.5878 71.8988,158.78505L71.80692,158.78505C75.02896,161.36281 77.88237,164.49243 80.27634,167.89879C84.60323,173.88345 87.36475,180.87888 88.19336,188.24348C96.84711,185.29764 105.13222,181.15562 112.6806,175.99959C130.2643,164.49243 144.25624,148.38272 153.09377,129.41853L153.1862,129.41853C157.88116,119.93726 160.5508,109.62626 161.19456,99.03961L161.19456,99.13096C161.5632,91.49015 160.09027,83.84988 156.86823,76.85337C154.28993,71.32924 150.33224,66.63535 145.36107,62.95222C141.49527,60.00639 136.8911,58.25726 132.01236,57.79728C122.80565,57.33676 113.78543,60.83501 107.34134,67.64721C103.6593,71.51355 100.52914,76.02366 98.0422,80.81107L98.13408,80.81107C97.02926,83.02017 96.01631,85.22982 95.18824,87.53082L95.09636,87.53082C93.43911,84.95361 91.5981,82.46776 89.66465,80.07487C85.61453,75.10315 80.82713,70.96059 75.30354,67.73909C69.22808,64.05706 61.86347,63.13601 55.05074,65.34566L55.14263,65.34566C48.14666,67.64721 42.07066,72.06596 37.74379,78.04955" id="svg_18" opacity="1" shapeType="heartCurve" fill="#000" fill-opacity="0" stroke-width="0" stroke-dasharray="none" stroke="#000000"/></clipPath><filter id="svg_17" color-interpolation-filters="sRGB"><feColorMatrix type="saturate" values="0"/></filter></defs><g mask="" style="pointer-events:all"><title style="pointer-events:inherit">Layer 1</title><g type="photobox" pathStr="M10.972713607910084,83.59268995227295 C3.428792716648282,94.1559633198607 -0.9304067133381135,106.73149069382666 -1.6008201473162007,119.64074646580096 L-1.43347443870117,119.64074646580096 C-2.103887872679259,133.72546012078206 0.9144677942768986,147.80917696639327 7.117561817582526,160.38468744528524 L7.117561817582526,160.55304685834412 C11.979828972931976,170.44590679195386 18.182922996237593,179.6683532915855 25.22576978087602,188.05104702988433 C31.59720632216652,195.76430724850078 38.63905629743512,202.97253991316273 46.01662828945169,209.5123189724381 C51.717651396764126,214.7092944400916 57.75338281638065,219.40517890604787 63.9564768396863,224.0990866483383 C67.14219511033156,226.2777064490357 70.16055077728771,228.623671958348 73.34429232426734,230.8042515876372 L73.1769466156523,230.8042515876372 C79.04531543157977,235.49915613929747 84.24229089923332,241.1991993323141 88.60248713858952,247.4032732699155 C96.48310996089518,258.303248568547 101.51272282485964,271.0441449274625 103.02189221080069,284.4574483390956 C118.78313785541192,279.0921303534571 133.87297325667515,271.5481925671213 147.62098498061246,262.15740354950486 C179.64652710012382,241.1991993323141 205.13031343669428,211.85828448175047 221.22628428868373,177.31843433494174 L221.39462680666855,177.31843433494174 C229.94566306295224,160.04999602805515 234.80791332322767,141.27037782141372 235.9804145682731,121.98870559385314 L235.9804145682731,122.1550713881724 C236.65182481162094,108.23871714625022 233.9691573712647,94.32334281862386 228.10077166026326,81.58046973604287 C223.40488719430704,71.51925038937422 216.1966545296451,62.97019085675616 207.1425674430724,56.26205238442186 C200.10169738209964,50.89673439878341 191.7160301107654,47.71101612813816 182.8302855421776,46.873240090470986 C166.06192453254445,46.03448413850802 149.63323898699062,52.40592067979852 137.8964844600616,64.81310553577961 C131.19032271139298,71.85495551104819 125.48929960408054,80.06930673136216 120.95978093244372,88.78868550563071 L121.12712664105874,88.78868550563071 C119.11488952975463,92.81217981394315 117.26999812706555,96.83667093162542 115.76180865542031,101.02751094855287 L115.59446294680524,101.02751094855287 C112.57609038477501,96.33360320626238 109.22300951044065,91.8060612582911 105.70158611812147,87.44785863767456 C98.32502783054882,78.39275784665793 89.60563216120615,70.84784014602629 79.54540962390733,64.98045124439463 C68.48006534032635,58.27430639080003 55.066761928693154,56.596777591800034 42.65859715841631,60.621251814408254 L42.82595976210539,60.621251814408254 C30.08406659382016,64.81310553577961 19.017725500869318,72.86107406670024 11.137102678563714,83.75907264166622 " lockTransform="true" lockEdit="false" id="svg_3" display="null" stroke="null" style="pointer-events:inherit"><g clip-path="url(#svg_15)" stroke="null" id="svg_19" style="pointer-events:inherit"><image xmlns:xlink="http://www.w3.org/1999/xlink" x="31.62893219497738" y="32.06141235882818" width="256.2244858182206" height="256.2244858182206" preserveAspectRatio="none" id="svg_5" xlink:href="http://192.168.0.139/work/print_commerce/pc-newtool-magento-21/designnbuy/assets/images/uploadedImage/o_1auffiuu0h2e1ies193t1hkm1e4da.jpg" origWidth="21" origHeight="21" image_id="16" templateSrc="http://192.168.0.139/work/print_commerce/pc-newtool-magento-21/designnbuy/assets/images/uploadedImage/admin_o_1aftj74n614d41qdaimogdk53pa.jpg#**#16" isAdminUploaded="false" filter="url(#svg_17)" colors="" style="pointer-events:inherit"/></g><path d="M37.65353,77.95819C33.51152,83.75798 31.11809,90.6626 30.75,97.75046L30.84188,97.75046C30.47379,105.4837 32.13102,113.21641 35.53685,120.12102L35.53685,120.21346C38.20649,125.64516 41.61231,130.70877 45.4792,135.31131C48.97746,139.5463 52.8438,143.504 56.89447,147.09467C60.02464,149.94809 63.33857,152.52637 66.74439,155.10358C68.49352,156.29974 70.15076,157.5878 71.8988,158.78505L71.80692,158.78505C75.02896,161.36281 77.88237,164.49243 80.27634,167.89879C84.60323,173.88345 87.36475,180.87888 88.19336,188.24348C96.84711,185.29764 105.13222,181.15562 112.6806,175.99959C130.2643,164.49243 144.25624,148.38272 153.09377,129.41853L153.1862,129.41853C157.88116,119.93726 160.5508,109.62626 161.19456,99.03961L161.19456,99.13096C161.5632,91.49015 160.09027,83.84988 156.86823,76.85337C154.28993,71.32924 150.33224,66.63535 145.36107,62.95222C141.49527,60.00639 136.8911,58.25726 132.01236,57.79728C122.80565,57.33676 113.78543,60.83501 107.34134,67.64721C103.6593,71.51355 100.52914,76.02366 98.0422,80.81107L98.13408,80.81107C97.02926,83.02017 96.01631,85.22982 95.18824,87.53082L95.09636,87.53082C93.43911,84.95361 91.5981,82.46776 89.66465,80.07487C85.61453,75.10315 80.82713,70.96059 75.30354,67.73909C69.22808,64.05706 61.86347,63.13601 55.05074,65.34566L55.14263,65.34566C48.14666,67.64721 42.07066,72.06596 37.74379,78.04955" id="svg_16" opacity="1" shapeType="heartCurve" fill="#000" fill-opacity="0" stroke-width="0" stroke-dasharray="none" stroke="#000000" style="pointer-events:inherit"/></g><g id="svg_23" display="null" clip-id="908" style="pointer-events:inherit"><path fill-rule="evenodd" d="M128.88829,245.18874C128.88829,242.91559 128.63992,240.60104 128.98445,238.38028C129.18292,237.10307 130.20686,235.83804 131.17604,234.89201C131.37817,234.69478 132.96338,235.9464 133.93619,236.487C134.19797,236.63309 134.5486,236.6185 135.24382,236.75122C135.06239,235.16963 134.89928,233.77554 134.74588,232.38023C134.68861,231.8567 134.50845,231.29422 134.63139,230.8145C135.70892,226.62006 135.72475,226.62372 140.25401,228.22478C139.92647,227.07423 139.44557,226.10994 139.42239,225.13347C139.38345,223.49586 139.44067,221.80107 139.85464,220.23653C140.04335,219.52425 141.26454,218.52591 141.86722,218.61841C142.70612,218.74748 143.49995,219.70326 144.13184,220.45691C144.55556,220.96217 144.66513,221.73044 145.26663,222.33679C145.26663,220.96948 145.06815,219.56445 145.31531,218.2422C145.64403,216.48773 146.16147,214.72353 146.92003,213.11519C147.22926,212.45892 148.51256,211.7235 149.12376,211.88666C149.87375,212.08513 150.57143,213.10054 150.94887,213.92117C151.38472,214.86841 151.44804,215.98856 151.77069,217.49466C152.92369,213.90289 153.69926,210.8335 154.95331,207.9735C155.34537,207.07983 157.03047,206.75108 158.12379,206.16426C158.48053,207.02991 159.10149,207.88339 159.14774,208.76611C159.30237,211.69794 159.20132,214.64197 159.31335,217.5762C159.33891,218.24951 159.82225,218.90456 160.09619,219.5681C160.29832,219.53644 160.50044,219.50357 160.70253,219.47191C161.01419,218.00478 161.19685,216.49382 161.67046,215.0815C162.26707,213.30022 162.96107,211.51532 163.90707,209.90453C164.25288,209.31766 165.43999,208.99989 166.24475,208.99867C166.67332,208.99867 167.4623,209.92642 167.47691,210.45241C167.65466,216.72882 168.16118,223.04414 167.66075,229.27553C167.29428,233.83278 164.92984,237.95291 161.74109,241.42654C155.40135,248.32878 148.97643,255.15796 142.83029,262.23062C140.685,264.69977 137.64479,266.70871 137.21986,270.41376C137.1651,270.89218 137.11151,271.37067 137.02388,272.14255C140.16875,272.25824 143.1566,272.31662 145.74388,270.46967C149.29179,267.93719 153.166,268.17944 156.66638,269.86581C158.32956,270.6669 159.82831,273.11295 160.18141,275.03793C160.75854,278.18527 160.33728,281.51523 160.33728,284.84268C160.17046,284.78308 159.62625,284.7587 159.35838,284.47375C156.24391,281.14749 153.19762,281.19614 149.54138,283.9892C146.65947,286.19052 143.32339,287.79523 140.20654,289.6958C139.06808,290.3898 137.95287,291.12885 136.879,291.91663C131.91386,295.55704 126.31929,297.80829 120.56279,299.90488C113.4024,302.51288 106.04853,301.20151 98.80293,301.85776C92.81387,302.3996 86.77976,303.05948 80.93194,304.3927C74.13442,305.94019 67.49519,308.23038 60.46269,308.52625C57.45295,308.65283 54.39084,308.62488 51.42492,308.18411C50.09538,307.98566 48.78042,306.75958 47.76135,305.70642C46.97116,304.88943 46.65096,303.61591 46.12132,302.54568C47.94155,299.5213 51.12174,299.66135 54.01949,299.16461C57.93022,298.49371 62.00898,298.33176 65.71273,297.06558C69.23263,295.86264 72.40553,293.59192 75.64782,291.65366C77.76147,290.3898 79.74239,288.89954 81.75011,287.46649C82.48794,286.9393 83.13445,286.2843 84.02692,285.50995C80.62634,283.14188 77.42907,281.17188 74.52648,278.83783C69.84747,275.07562 65.9343,270.81061 63.52602,264.99323C61.89452,261.05569 62.01748,257.28741 62.07349,253.16727C58.1713,252.69731 54.38231,252.08243 52.18223,248.16684C53.60065,247.41808 54.62947,246.87381 55.13476,246.60718C54.21064,244.88557 53.34741,243.27597 52.48417,241.66643C53.91235,241.18791 55.34053,240.71065 56.78207,240.22725C54.97404,238.56046 52.99554,236.73782 50.51299,234.45128C52.35876,233.68178 53.40706,233.24472 54.54425,232.77107C52.87135,230.97646 49.89082,229.62495 50.4935,226.00764C51.17898,225.85423 51.8608,225.70087 52.67533,225.517C51.81088,223.42038 48.1193,221.20691 52.75203,218.9691C52.51097,218.31648 52.37947,217.25235 51.80236,216.55835C50.69561,215.22879 50.4241,213.76654 51.53936,212.66222C51.98377,212.2215 53.57874,212.94226 54.83403,213.16753C54.1035,211.11961 53.31088,208.8976 52.51704,206.67319C52.82874,206.4735 53.14165,206.27382 53.45212,206.07294C54.73052,207.42075 56.00894,208.76852 57.6368,210.48528C57.53816,208.65652 57.46635,207.299 57.39451,205.94264C57.61974,205.84525 57.84377,205.74908 58.06903,205.65288C61.19808,208.02098 62.40466,211.82336 64.59867,215.19351C65.68959,212.78275 63.02439,209.7097 66.22652,207.56076C66.76466,208.99257 67.48909,210.15169 67.61086,211.37166C68.17213,217.02834 70.61574,222.01781 73.66324,226.54337C75.68678,229.54706 78.79758,231.90176 81.68436,234.21992C86.35971,237.97363 91.36135,241.32306 96.02086,245.09619C100.01196,248.32756 103.87399,251.75369 107.49739,255.38925C110.30866,258.21033 112.66217,261.48669 115.49538,264.89337C116.6496,262.66769 117.72346,260.66241 118.7389,258.6279C120.50795,255.08488 122.16384,251.48218 124.01569,247.983C125.38787,245.39694 126.2365,245.03166 128.88829,245.18874z" id="svg_24" style="pointer-events:inherit"/></g></g></svg>