<svg xmlns="http://www.w3.org/2000/svg" width="187" height="240" x="0" y="0" id="svgcontent" overflow="hidden" viewBox="0 0 187 240"><defs><mask id="canvasMaskImageDef" maskUnits="objectBoundingBox" x="0" y="0"><image id="canvasMaskImage" preserveAspectRatio="none" style="pointer-events:none" x="-106" y="-81" width="400" height="344.82758620689657" xlink:href="http://192.168.0.222/work/jan_langius/print_commerce/source/designnbuy/uploads/productimage/5826bc835e1ff.png" xmlns:xlink="http://www.w3.org/1999/xlink"/></mask></defs><g style="pointer-events:all" mask="url(#canvasMaskImageDef)"><title style="pointer-events:inherit">Layer 1</title><g id="svg_4" display="null" clip-id="909"><path fill-rule="evenodd" d="M74.1275634765625,120.2853593826294 C72.59609985351562,119.69820404052734 71.26471710205078,118.73425960540771 70.45738220214844,117.06629037857056 C69.94361877441406,116.00464296340942 70.04646301269531,114.2805757522583 70.61865997314453,113.22407054901123 C71.47648620605469,111.63931274414062 72.76205444335938,110.9006940126419 74.45480346679688,110.70294989645481 C75.89043426513672,110.53512450493872 77.09185791015625,111.21764558553696 78.20446014404297,111.95299196243286 C79.17822265625,112.59624457359314 79.99210357666016,113.47744464874268 80.9125747680664,114.20811653137207 C81.13790130615234,114.3866937160492 81.50346374511719,114.46055555343628 81.80452728271484,114.46102333068848 C89.67127990722656,114.47411251068115 97.53804016113281,114.48392987251282 105.40432739257812,114.43951892852783 C105.85498046875,114.43718147277832 106.4556884765625,114.08376669883728 106.72823333740234,113.70697736740112 C108.34757995605469,111.46728003025055 111.29925537109375,110.06343695521355 113.61654663085938,110.66134415566921 C114.29673767089844,110.83664923906326 114.94512939453125,111.31020665168762 115.495361328125,111.77955687046051 C117.02588653564453,113.08476161956787 117.3115234375,115.95275259017944 116.19984436035156,117.64362812042236 C115.51966857910156,118.67862892150879 114.82171630859375,119.64210605621338 113.53474426269531,119.98149681091309 C113.32203674316406,120.03759384155273 113.15982055664062,120.28582572937012 113.06024932861328,120.37137508392334 C113.82177734375,121.17871284484863 114.62397766113281,121.90096950531006 115.27236938476562,122.7419662475586 C117.0319595336914,125.02140140533447 116.03622436523438,127.78607749938965 113.43002319335938,129.0407943725586 C111.10711669921875,130.15900802612305 108.35599517822266,128.98236083984375 106.8287353515625,127.19845390319824 C105.97746276855469,126.2041244506836 105.13880157470703,125.7628231048584 103.77188873291016,125.78012180328369 C97.08177947998047,125.86660385131836 90.38886260986328,125.87595462799072 83.69921875,125.7660961151123 C82.0747299194336,125.7394495010376 81.12480926513672,126.37335300445557 80.06362915039062,127.47099494934082 C78.1296615600586,129.47087478637695 75.38134765625,130.1819133758545 72.78823852539062,128.3755702972412 C70.57003784179688,126.83008193969727 69.9637222290039,124.66892051696777 71.28855895996094,123.01123523712158 C72.0898208618164,122.00942611694336 73.14726257324219,121.2114372253418 74.1275634765625,120.2853593826294 z" id="svg_5"/></g></g></svg>