<svg xmlns="http://www.w3.org/2000/svg" width="188" height="235" x="0" y="0" id="svgcontent" overflow="hidden" viewBox="0 0 188 235"><g style="pointer-events:all" mask=""><title style="pointer-events:inherit">Layer 1</title><g id="svg_1" type="text" text="Harish" font-size="53.41866194438269" font-family="SF Collegiate" font-id="1" fill="3e39c0" text-anchor="start" font-weight="normal" font-style="normal" lineHeight="1" shapeId="0" shapeVal="0" fill-opacity="1" display="null" elemBBoxWidth="162.63015747070312" stroke-opacity="1" stroke-width="0" stroke-dasharray="none" stroke="ull" transform=""><path id="svg_4" fill="#3e39c0" stroke-width="1" d="M40.209314506578934,67.2552111375528 C40.209314506578934,67.2552111375528 13.499980494516894,67.2552111375528 13.499980494516894,67.2552111375528 C13.499980494516894,67.2552111375528 13.499980494516894,24.520276718253548 13.499980494516894,24.520276718253548 C13.499980494516894,24.520276718253548 40.209314506578934,24.520276718253548 40.209314506578934,24.520276718253548 C40.209314506578934,24.520276718253548 40.209314506578934,67.2552111375528 40.209314506578934,67.2552111375528 C40.209314506578934,67.2552111375528 40.209314506578934,67.2552111375528 40.209314506578934,67.2552111375528 M39.17061818388763,66.21651481486151 C39.17061818388763,66.21651481486151 39.17061818388763,25.55897304094485 39.17061818388763,25.55897304094485 C39.17061818388763,25.55897304094485 14.538676817208199,25.55897304094485 14.538676817208199,25.55897304094485 C14.538676817208199,25.55897304094485 14.538676817208199,66.21651481486151 14.538676817208199,66.21651481486151 C14.538676817208199,66.21651481486151 39.17061818388763,66.21651481486151 39.17061818388763,66.21651481486151 C39.17061818388763,66.21651481486151 39.17061818388763,66.21651481486151 39.17061818388763,66.21651481486151 M37.538381105372736,64.5842777363466 C37.538381105372736,64.5842777363466 29.525580901754125,64.5842777363466 29.525580901754125,64.5842777363466 C29.525580901754125,64.5842777363466 29.525580901754125,49.89414402971249 29.525580901754125,49.89414402971249 C29.525580901754125,49.89414402971249 24.183714099341714,49.89414402971249 24.183714099341714,49.89414402971249 C24.183714099341714,49.89414402971249 24.183714099341714,64.5842777363466 24.183714099341714,64.5842777363466 C24.183714099341714,64.5842777363466 16.1709138957231,64.5842777363466 16.1709138957231,64.5842777363466 C16.1709138957231,64.5842777363466 16.1709138957231,27.191210119459754 16.1709138957231,27.191210119459754 C16.1709138957231,27.191210119459754 24.183714099341714,27.191210119459754 24.183714099341714,27.191210119459754 C24.183714099341714,27.191210119459754 24.183714099341714,41.88134382609388 24.183714099341714,41.88134382609388 C24.183714099341714,41.88134382609388 29.525580901754125,41.88134382609388 29.525580901754125,41.88134382609388 C29.525580901754125,41.88134382609388 29.525580901754125,27.191210119459754 29.525580901754125,27.191210119459754 C29.525580901754125,27.191210119459754 37.538381105372736,27.191210119459754 37.538381105372736,27.191210119459754 C37.538381105372736,27.191210119459754 37.538381105372736,64.5842777363466 37.538381105372736,64.5842777363466 C37.538381105372736,64.5842777363466 37.538381105372736,64.5842777363466 37.538381105372736,64.5842777363466 M71.37020418731797,67.2552111375528 C71.37020418731797,67.2552111375528 58.757463126066455,67.2552111375528 58.757463126066455,67.2552111375528 C58.757463126066455,67.2552111375528 58.01553718128696,62.506885090964005 58.01553718128696,62.506885090964005 C58.01553718128696,62.506885090964005 56.38330010277206,62.506885090964005 56.38330010277206,62.506885090964005 C56.38330010277206,62.506885090964005 55.49298896903665,67.2552111375528 55.49298896903665,67.2552111375528 C55.49298896903665,67.2552111375528 42.88024790778514,67.2552111375528 42.88024790778514,67.2552111375528 C42.88024790778514,67.2552111375528 50.15112216662425,28.229906442151055 50.15112216662425,28.229906442151055 C50.15112216662425,28.229906442151055 64.24771511743478,28.229906442151055 64.24771511743478,28.229906442151055 C64.24771511743478,28.229906442151055 71.37020418731797,67.2552111375528 71.37020418731797,67.2552111375528 M70.18312267567077,66.21651481486151 C70.18312267567077,66.21651481486151 63.20901879474347,29.268602764842356 63.20901879474347,29.268602764842356 C63.20901879474347,29.268602764842356 51.04143330035965,29.268602764842356 51.04143330035965,29.268602764842356 C51.04143330035965,29.268602764842356 44.21571460838824,66.21651481486151 44.21571460838824,66.21651481486151 C44.21571460838824,66.21651481486151 54.60267783530126,66.21651481486151 54.60267783530126,66.21651481486151 C54.60267783530126,66.21651481486151 55.49298896903665,61.31980357931681 55.49298896903665,61.31980357931681 C55.49298896903665,61.31980357931681 58.905848315022354,61.31980357931681 58.905848315022354,61.31980357931681 C58.905848315022354,61.31980357931681 59.64777425980188,66.21651481486151 59.64777425980188,66.21651481486151 C59.64777425980188,66.21651481486151 70.18312267567077,66.21651481486151 70.18312267567077,66.21651481486151 C70.18312267567077,66.21651481486151 70.18312267567077,66.21651481486151 70.18312267567077,66.21651481486151 M68.25411521924408,64.5842777363466 C68.25411521924408,64.5842777363466 60.98324096040497,64.5842777363466 60.98324096040497,64.5842777363466 C60.98324096040497,64.5842777363466 60.241315015625474,59.835951689757806 60.241315015625474,59.835951689757806 C60.241315015625474,59.835951689757806 54.15752226843355,59.835951689757806 54.15752226843355,59.835951689757806 C54.15752226843355,59.835951689757806 53.26721113469815,64.5842777363466 53.26721113469815,64.5842777363466 C53.26721113469815,64.5842777363466 46.14472206481494,64.5842777363466 46.14472206481494,64.5842777363466 C46.14472206481494,64.5842777363466 52.376900000962756,30.900839843357254 52.376900000962756,30.900839843357254 C52.376900000962756,30.900839843357254 61.873552094140365,30.900839843357254 61.873552094140365,30.900839843357254 C61.873552094140365,30.900839843357254 68.25411521924408,64.5842777363466 68.25411521924408,64.5842777363466 M58.905848315022354,52.56507743091869 C58.905848315022354,52.56507743091869 57.125226047551564,42.17811420400568 57.125226047551564,42.17811420400568 C57.125226047551564,42.17811420400568 55.34460378008075,52.56507743091869 55.34460378008075,52.56507743091869 C55.34460378008075,52.56507743091869 58.905848315022354,52.56507743091869 58.905848315022354,52.56507743091869 C58.905848315022354,52.56507743091869 58.905848315022354,52.56507743091869 58.905848315022354,52.56507743091869 M98.67307895520362,67.2552111375528 C98.67307895520362,67.2552111375528 74.04113758852418,67.2552111375528 74.04113758852418,67.2552111375528 C74.04113758852418,67.2552111375528 74.04113758852418,28.229906442151055 74.04113758852418,28.229906442151055 C74.04113758852418,28.229906442151055 92.29251583009992,28.229906442151055 92.29251583009992,28.229906442151055 C92.29251583009992,28.229906442151055 98.67307895520362,34.61046956725477 98.67307895520362,34.61046956725477 C98.67307895520362,34.61046956725477 98.67307895520362,45.44258836103549 98.67307895520362,45.44258836103549 C98.67307895520362,45.44258836103549 96.29891593190922,47.81675138432989 96.29891593190922,47.81675138432989 C96.29891593190922,47.81675138432989 98.67307895520362,50.04252921866839 98.67307895520362,50.04252921866839 C98.67307895520362,50.04252921866839 98.67307895520362,67.2552111375528 98.67307895520362,67.2552111375528 C98.67307895520362,67.2552111375528 98.67307895520362,67.2552111375528 98.67307895520362,67.2552111375528 M97.48599744355641,66.21651481486151 C97.48599744355641,66.21651481486151 97.48599744355641,50.48768478553609 97.48599744355641,50.48768478553609 C97.48599744355641,50.48768478553609 94.81506404235023,47.81675138432989 94.81506404235023,47.81675138432989 C94.81506404235023,47.81675138432989 97.48599744355641,44.99743279416778 97.48599744355641,44.99743279416778 C97.48599744355641,44.99743279416778 97.48599744355641,35.055625134122465 97.48599744355641,35.055625134122465 C97.48599744355641,35.055625134122465 91.6989750742763,29.268602764842356 91.6989750742763,29.268602764842356 C91.6989750742763,29.268602764842356 75.07983391121549,29.268602764842356 75.07983391121549,29.268602764842356 C75.07983391121549,29.268602764842356 75.07983391121549,66.21651481486151 75.07983391121549,66.21651481486151 C75.07983391121549,66.21651481486151 97.48599744355641,66.21651481486151 97.48599744355641,66.21651481486151 C97.48599744355641,66.21651481486151 97.48599744355641,66.21651481486151 97.48599744355641,66.21651481486151 M96.00214555399742,64.5842777363466 C96.00214555399742,64.5842777363466 88.73127129515831,64.5842777363466 88.73127129515831,64.5842777363466 C88.73127129515831,64.5842777363466 88.73127129515831,51.377995919271484 88.73127129515831,51.377995919271484 C88.73127129515831,51.377995919271484 83.98294524856951,51.377995919271484 83.98294524856951,51.377995919271484 C83.98294524856951,51.377995919271484 83.98294524856951,64.5842777363466 83.98294524856951,64.5842777363466 C83.98294524856951,64.5842777363466 76.71207098973039,64.5842777363466 76.71207098973039,64.5842777363466 C76.71207098973039,64.5842777363466 76.71207098973039,30.900839843357254 76.71207098973039,30.900839843357254 C76.71207098973039,30.900839843357254 91.10543431845271,30.900839843357254 91.10543431845271,30.900839843357254 C91.10543431845271,30.900839843357254 96.00214555399742,35.79755107890197 96.00214555399742,35.79755107890197 C96.00214555399742,35.79755107890197 96.00214555399742,44.40389203834418 96.00214555399742,44.40389203834418 C96.00214555399742,44.40389203834418 92.58928620801171,47.81675138432989 92.58928620801171,47.81675138432989 C92.58928620801171,47.81675138432989 96.00214555399742,51.081225541359686 96.00214555399742,51.081225541359686 C96.00214555399742,51.081225541359686 96.00214555399742,64.5842777363466 96.00214555399742,64.5842777363466 C96.00214555399742,64.5842777363466 96.00214555399742,64.5842777363466 96.00214555399742,64.5842777363466 M88.73127129515831,44.10712166043237 C88.73127129515831,44.10712166043237 88.73127129515831,38.171714102196376 88.73127129515831,38.171714102196376 C88.73127129515831,38.171714102196376 83.98294524856951,38.171714102196376 83.98294524856951,38.171714102196376 C83.98294524856951,38.171714102196376 83.98294524856951,44.10712166043237 83.98294524856951,44.10712166043237 C83.98294524856951,44.10712166043237 88.73127129515831,44.10712166043237 88.73127129515831,44.10712166043237 C88.73127129515831,44.10712166043237 88.73127129515831,44.10712166043237 88.73127129515831,44.10712166043237 M116.47930162991166,67.2552111375528 C116.47930162991166,67.2552111375528 103.86656056866013,67.2552111375528 103.86656056866013,67.2552111375528 C103.86656056866013,67.2552111375528 103.86656056866013,28.229906442151055 103.86656056866013,28.229906442151055 C103.86656056866013,28.229906442151055 116.47930162991166,28.229906442151055 116.47930162991166,28.229906442151055 C116.47930162991166,28.229906442151055 116.47930162991166,67.2552111375528 116.47930162991166,67.2552111375528 C116.47930162991166,67.2552111375528 116.47930162991166,67.2552111375528 116.47930162991166,67.2552111375528 M115.29222011826445,66.21651481486151 C115.29222011826445,66.21651481486151 115.29222011826445,29.268602764842356 115.29222011826445,29.268602764842356 C115.29222011826445,29.268602764842356 104.90525689135144,29.268602764842356 104.90525689135144,29.268602764842356 C104.90525689135144,29.268602764842356 104.90525689135144,66.21651481486151 104.90525689135144,66.21651481486151 C104.90525689135144,66.21651481486151 115.29222011826445,66.21651481486151 115.29222011826445,66.21651481486151 C115.29222011826445,66.21651481486151 115.29222011826445,66.21651481486151 115.29222011826445,66.21651481486151 M113.80836822870545,64.5842777363466 C113.80836822870545,64.5842777363466 106.53749396986633,64.5842777363466 106.53749396986633,64.5842777363466 C106.53749396986633,64.5842777363466 106.53749396986633,30.900839843357254 106.53749396986633,30.900839843357254 C106.53749396986633,30.900839843357254 113.80836822870545,30.900839843357254 113.80836822870545,30.900839843357254 C113.80836822870545,30.900839843357254 113.80836822870545,64.5842777363466 113.80836822870545,64.5842777363466 C113.80836822870545,64.5842777363466 113.80836822870545,64.5842777363466 113.80836822870545,64.5842777363466 M146.3047246100476,60.7262628234932 C146.3047246100476,60.7262628234932 139.9241614849439,67.10682594859692 139.9241614849439,67.10682594859692 C139.9241614849439,67.10682594859692 128.05334636847186,67.10682594859692 128.05334636847186,67.10682594859692 C128.05334636847186,67.10682594859692 121.67278324336814,60.7262628234932 121.67278324336814,60.7262628234932 C121.67278324336814,60.7262628234932 121.67278324336814,52.119921864050994 121.67278324336814,52.119921864050994 C121.67278324336814,52.119921864050994 126.27272410100107,52.119921864050994 126.27272410100107,52.119921864050994 C126.27272410100107,52.119921864050994 121.67278324336814,47.51998100641808 121.67278324336814,47.51998100641808 C121.67278324336814,47.51998100641808 121.67278324336814,34.46208437829887 121.67278324336814,34.46208437829887 C121.67278324336814,34.46208437829887 128.05334636847186,28.229906442151055 128.05334636847186,28.229906442151055 C128.05334636847186,28.229906442151055 139.9241614849439,28.229906442151055 139.9241614849439,28.229906442151055 C139.9241614849439,28.229906442151055 146.3047246100476,34.46208437829887 146.3047246100476,34.46208437829887 C146.3047246100476,34.46208437829887 146.3047246100476,43.068425337741076 146.3047246100476,43.068425337741076 C146.3047246100476,43.068425337741076 141.5563985634588,43.068425337741076 141.5563985634588,43.068425337741076 C141.5563985634588,43.068425337741076 146.3047246100476,47.81675138432989 146.3047246100476,47.81675138432989 C146.3047246100476,47.81675138432989 146.3047246100476,60.7262628234932 146.3047246100476,60.7262628234932 C146.3047246100476,60.7262628234932 146.3047246100476,60.7262628234932 146.3047246100476,60.7262628234932 M145.1176430984004,60.2811072566255 C145.1176430984004,60.2811072566255 145.1176430984004,48.261906951197574 145.1176430984004,48.261906951197574 C145.1176430984004,48.261906951197574 139.03385035120849,42.02972901504978 139.03385035120849,42.02972901504978 C139.03385035120849,42.02972901504978 145.1176430984004,42.02972901504978 145.1176430984004,42.02972901504978 C145.1176430984004,42.02972901504978 145.1176430984004,35.055625134122465 145.1176430984004,35.055625134122465 C145.1176430984004,35.055625134122465 139.33062072912028,29.268602764842356 139.33062072912028,29.268602764842356 C139.33062072912028,29.268602764842356 128.49850193533956,29.268602764842356 128.49850193533956,29.268602764842356 C128.49850193533956,29.268602764842356 122.71147956605947,35.055625134122465 122.71147956605947,35.055625134122465 C122.71147956605947,35.055625134122465 122.71147956605947,47.07482543955038 122.71147956605947,47.07482543955038 C122.71147956605947,47.07482543955038 128.94365750220726,53.3070033756982 128.94365750220726,53.3070033756982 C128.94365750220726,53.3070033756982 122.71147956605947,53.3070033756982 122.71147956605947,53.3070033756982 C122.71147956605947,53.3070033756982 122.71147956605947,60.2811072566255 122.71147956605947,60.2811072566255 C122.71147956605947,60.2811072566255 128.49850193533956,66.06812962590561 128.49850193533956,66.06812962590561 C128.49850193533956,66.06812962590561 139.33062072912028,66.06812962590561 139.33062072912028,66.06812962590561 C139.33062072912028,66.06812962590561 145.1176430984004,60.2811072566255 145.1176430984004,60.2811072566255 M143.1886356419737,59.835951689757806 C143.1886356419737,59.835951689757806 138.44030959538486,64.5842777363466 138.44030959538486,64.5842777363466 C138.44030959538486,64.5842777363466 128.79527231325136,64.5842777363466 128.79527231325136,64.5842777363466 C128.79527231325136,64.5842777363466 124.04694626666256,59.835951689757806 124.04694626666256,59.835951689757806 C124.04694626666256,59.835951689757806 124.04694626666256,54.93924045421309 124.04694626666256,54.93924045421309 C124.04694626666256,54.93924045421309 131.16943533654575,54.93924045421309 131.16943533654575,54.93924045421309 C131.16943533654575,54.93924045421309 131.16943533654575,57.31340347750751 131.16943533654575,57.31340347750751 C131.16943533654575,57.31340347750751 136.06614657209047,57.31340347750751 136.06614657209047,57.31340347750751 C136.06614657209047,57.31340347750751 136.06614657209047,51.377995919271484 136.06614657209047,51.377995919271484 C136.06614657209047,51.377995919271484 128.79527231325136,51.377995919271484 128.79527231325136,51.377995919271484 C128.79527231325136,51.377995919271484 124.04694626666256,46.62966987268268 124.04694626666256,46.62966987268268 C124.04694626666256,46.62966987268268 124.04694626666256,35.79755107890197 124.04694626666256,35.79755107890197 C124.04694626666256,35.79755107890197 128.79527231325136,30.900839843357254 128.79527231325136,30.900839843357254 C128.79527231325136,30.900839843357254 138.44030959538486,30.900839843357254 138.44030959538486,30.900839843357254 C138.44030959538486,30.900839843357254 143.1886356419737,35.79755107890197 143.1886356419737,35.79755107890197 C143.1886356419737,35.79755107890197 143.1886356419737,40.545877125490776 143.1886356419737,40.545877125490776 C143.1886356419737,40.545877125490776 136.06614657209047,40.545877125490776 136.06614657209047,40.545877125490776 C136.06614657209047,40.545877125490776 136.06614657209047,38.171714102196376 136.06614657209047,38.171714102196376 C136.06614657209047,38.171714102196376 131.16943533654575,38.171714102196376 131.16943533654575,38.171714102196376 C131.16943533654575,38.171714102196376 131.16943533654575,44.10712166043237 131.16943533654575,44.10712166043237 C131.16943533654575,44.10712166043237 138.44030959538486,44.10712166043237 138.44030959538486,44.10712166043237 C138.44030959538486,44.10712166043237 143.1886356419737,49.003832895977084 143.1886356419737,49.003832895977084 C143.1886356419737,49.003832895977084 143.1886356419737,59.835951689757806 143.1886356419737,59.835951689757806 C143.1886356419737,59.835951689757806 143.1886356419737,59.835951689757806 143.1886356419737,59.835951689757806 M176.13014759018353,67.2552111375528 C176.13014759018353,67.2552111375528 151.4982062235041,67.2552111375528 151.4982062235041,67.2552111375528 C151.4982062235041,67.2552111375528 151.4982062235041,28.229906442151055 151.4982062235041,28.229906442151055 C151.4982062235041,28.229906442151055 176.13014759018353,28.229906442151055 176.13014759018353,28.229906442151055 C176.13014759018353,28.229906442151055 176.13014759018353,67.2552111375528 176.13014759018353,67.2552111375528 C176.13014759018353,67.2552111375528 176.13014759018353,67.2552111375528 176.13014759018353,67.2552111375528 M174.94306607853633,66.21651481486151 C174.94306607853633,66.21651481486151 174.94306607853633,29.268602764842356 174.94306607853633,29.268602764842356 C174.94306607853633,29.268602764842356 152.5369025461954,29.268602764842356 152.5369025461954,29.268602764842356 C152.5369025461954,29.268602764842356 152.5369025461954,66.21651481486151 152.5369025461954,66.21651481486151 C152.5369025461954,66.21651481486151 174.94306607853633,66.21651481486151 174.94306607853633,66.21651481486151 C174.94306607853633,66.21651481486151 174.94306607853633,66.21651481486151 174.94306607853633,66.21651481486151 M173.4592141889773,64.5842777363466 C173.4592141889773,64.5842777363466 166.18833993013823,64.5842777363466 166.18833993013823,64.5842777363466 C166.18833993013823,64.5842777363466 166.18833993013823,51.377995919271484 166.18833993013823,51.377995919271484 C166.18833993013823,51.377995919271484 161.4400138835494,51.377995919271484 161.4400138835494,51.377995919271484 C161.4400138835494,51.377995919271484 161.4400138835494,64.5842777363466 161.4400138835494,64.5842777363466 C161.4400138835494,64.5842777363466 154.16913962471028,64.5842777363466 154.16913962471028,64.5842777363466 C154.16913962471028,64.5842777363466 154.16913962471028,30.900839843357254 154.16913962471028,30.900839843357254 C154.16913962471028,30.900839843357254 161.4400138835494,30.900839843357254 161.4400138835494,30.900839843357254 C161.4400138835494,30.900839843357254 161.4400138835494,44.10712166043237 161.4400138835494,44.10712166043237 C161.4400138835494,44.10712166043237 166.18833993013823,44.10712166043237 166.18833993013823,44.10712166043237 C166.18833993013823,44.10712166043237 166.18833993013823,30.900839843357254 166.18833993013823,30.900839843357254 C166.18833993013823,30.900839843357254 173.4592141889773,30.900839843357254 173.4592141889773,30.900839843357254 C173.4592141889773,30.900839843357254 173.4592141889773,64.5842777363466 173.4592141889773,64.5842777363466 C173.4592141889773,64.5842777363466 173.4592141889773,64.5842777363466 173.4592141889773,64.5842777363466 " stroke="#c42121" transform=""/><rect id="svg_5" x="13.499980926513672" y="24.520275115966797" width="162.6301563833913" height="42.73493643206075" fill="#3e39c0" opacity="0" stroke="#c42121" transform="" stroke-width="1"/></g><g type="photobox" style="pointer-events:inherit" pathStr="M109.40105138492763,84.39978280126 C115.47289044949055,144.40265788314397 115.47289044949055,204.88023169112665 109.40105138492763,264.881213817393 C109.40105138492763,277.2959546892979 119.73918317363949,287.4819328254696 132.70186962672094,287.4819328254696 C194.56495002340282,281.59370187304296 256.9184794250982,281.59370187304296 318.7826183567117,287.4819328254696 C331.5804876130522,287.4819328254696 342.0824276823985,277.45578110300875 342.0824276823985,264.881213817393 C336.0096127809457,204.88023169112665 336.0096127809457,144.40264184114716 342.0824276823985,84.39978280126 C342.0824276823985,71.98504192935532 331.74527173057663,61.800010270992274 318.7826183567117,61.800010270992274 L318.7826183567117,61.95887416489771 C256.9184794250982,67.84710511732443 194.56495002340282,67.84710511732443 132.70186962672094,61.95887416489771 C119.90299145427396,61.95887416489771 109.40105138492763,71.98598840716406 109.40105138492763,84.55864669516544 " lockTransform="true" lockEdit="null" id="svg_16" display="null" transform=""><image xmlns:xlink="http://www.w3.org/1999/xlink" x="1.8035146624274603" y="76.17384847436688" width="187.94127469477448" height="141.39507114887238" preserveAspectRatio="none" id="svg_5" xlink:href="http://192.168.0.139/work/print_commerce/pc-newtool-magento-21/designnbuy/assets/images/uploadedImage/admin_o_1atsnvbat4bc14nl140015narksa.png" style="pointer-events:inherit" origWidth="214" origHeight="161" image_id="180" templateSrc="http://192.168.0.139/work/print_commerce/pc-newtool-magento-21/designnbuy/assets/images/uploadedImage/admin_o_1atsnvbat4bc14nl140015narksa.png#**#180" isAdminUploaded="true" filter="" colors="" clip-path="url(#svg_18)" transform=""/><path d="M45.99999878909398,110.27017217189126 C48.45293626491792,134.51048871857665 48.45293626491792,158.94257686569347 45.99999878909398,183.18212868496676 C45.99999878909398,188.19750916747478 50.17645844569779,192.3125008911458 55.413201226594865,192.3125008911458 C80.40501452424414,189.93373850697623 105.59496231320423,189.93373850697623 130.5872032440591,192.3125008911458 C135.75736219849978,192.3125008911458 139.99999809366096,188.26207678786938 139.99999809366096,183.18212868496676 C137.54666639347568,158.94257686569347 137.54666639347568,134.51048223783584 139.99999809366096,110.27017217189126 C139.99999809366096,105.25479168938332 135.82393266141855,101.1401823294183 130.5872032440591,101.1401823294183 L130.5872032440591,101.20436110536613 C105.59496231320423,103.58312348953577 80.40501452424414,103.58312348953577 55.413201226594865,101.20436110536613 C50.24263468425518,101.20436110536613 45.99999878909398,105.25517405308935 45.99999878909398,110.33435094783911 " id="svg_19" opacity="1" stroke="#000000" shapeType="roundedSquare" fill="#000" fill-opacity="0" stroke-width="2" stroke-dasharray="none" cursor="move" transform=""/></g></g><defs><clipPath class="clippath" id="svg_18"><path d="M45.99999878909398,110.27017217189126 C48.45293626491792,134.51048871857665 48.45293626491792,158.94257686569347 45.99999878909398,183.18212868496676 C45.99999878909398,188.19750916747478 50.17645844569779,192.3125008911458 55.413201226594865,192.3125008911458 C80.40501452424414,189.93373850697623 105.59496231320423,189.93373850697623 130.5872032440591,192.3125008911458 C135.75736219849978,192.3125008911458 139.99999809366096,188.26207678786938 139.99999809366096,183.18212868496676 C137.54666639347568,158.94257686569347 137.54666639347568,134.51048223783584 139.99999809366096,110.27017217189126 C139.99999809366096,105.25479168938332 135.82393266141855,101.1401823294183 130.5872032440591,101.1401823294183 L130.5872032440591,101.20436110536613 C105.59496231320423,103.58312348953577 80.40501452424414,103.58312348953577 55.413201226594865,101.20436110536613 C50.24263468425518,101.20436110536613 45.99999878909398,105.25517405308935 45.99999878909398,110.33435094783911 " id="" opacity="1" stroke="#000000" shapeType="roundedSquare" fill="#000" fill-opacity="0" stroke-width="2" stroke-dasharray="none" cursor="move" transform=""/></clipPath></defs></svg>