<?xml version="1.0"?>
<svg xmlns="http://www.w3.org/2000/svg" xmlns:xlink="http://www.w3.org/1999/xlink" width="316" height="117"><defs><mask y="0" x="0" maskUnits="objectBoundingBox" id="canvasMaskImageDef"><image xlink:href="5832948fccb15.png" height="300" width="400" y="-93" x="-15" preserveAspectRatio="none" id="canvasMaskImage"/></mask></defs><g mask="url(#canvasMaskImageDef)"><title>Layer 1</title><g clip-id="2" display="null" id="svg_4"><path stroke-width="0" id="svg_5" d="m296.30627,97.24338c-2.30365,-7.89249 -5.43097,-19.14914 -4.44351,-25.13628s2.83859,-61.41018 -49.33812,-50.46932c0,0 -12.1416,5.53229 -23.7388,5.14697c-0.07539,-0.70937 -0.22389,-1.40222 -0.43364,-2.07623c1.6049,-2.23413 2.98709,-8.15999 0.63866,-9.29472c-2.2765,-1.09939 -5.04678,1.30088 -6.0802,2.3225c-2.95998,-2.002 -6.80138,-3.21214 -11.00093,-3.21214c-3.48669,0 -6.7825,0.66222 -9.4762,2.05974c-1.77692,-1.55658 -5.85394,-4.47651 -8.49579,-1.26672c-1.3775,1.67325 1.60254,8.78804 2.06912,9.87329c-0.27571,1.52005 -0.32521,3.21097 -0.09894,5.08806c0,0 -1.03343,7.78055 7.83005,15.36315c0,0 0.94736,0.07895 1.0817,3.01301c0.08249,1.76633 0.271,12.43379 5.22002,22.69122c5.41679,11.22602 5.61363,23.3405 4.92427,23.4371c-0.68933,0.099 -8.5677,2.06918 -7.18903,6.79665s18.21826,6.69765 20.18726,-0.59034c1.96783,-7.28331 -2.10333,-26.31815 -2.10806,-26.34054c0.00943,-0.07542 0.02005,-0.15436 0.0295,-0.23213c0,0 2.18225,4.10297 8.35789,10.77589c6.1757,6.67056 4.02286,14.22841 4.02286,14.22841s-8.18115,1.83823 -7.73456,5.5158c0.44777,3.67995 14.71857,7.14307 19.99634,-3.40656c5.27779,-10.54613 -5.31548,-30.69332 -5.31548,-30.69332s5.13521,0.74353 11.1895,0.04596c0,0 2.76671,5.04564 4.47412,9.03075c1.62021,3.77776 4.2597,14.03754 2.20705,14.93074c-3.40538,1.48233 -12.86272,3.98275 -12.04616,9.8497c0.62097,4.46471 16.56033,3.1438 22.54391,1.2726c5.98364,-1.87238 0.76477,-16.82548 3.11084,-24.672c2.34134,-7.84537 5.09747,-5.48515 5.09747,-5.48515s4.02756,7.70277 8.09045,13.1785c4.06409,5.47455 1.1218,6.35242 -0.46423,6.87679c-1.58606,0.5267 -10.37054,3.42657 -8.06216,8.34261c1.07581,2.28716 27.15353,0.55381 24.9548,-6.96397z" fill="#926645"/><path stroke-width="0" id="svg_6" d="m198.92615,25.47915c0.6752,-0.24392 0.97568,-1.40928 0.67166,-2.60294c-0.30402,-1.19719 -1.09821,-1.96782 -1.77222,-1.72626c-0.67517,0.24509 -0.97682,1.40811 -0.67281,2.60413c0.30402,1.19366 1.09819,1.96547 1.77336,1.72508zm18.86165,-8.37915c-1.41872,-0.68579 -3.14729,0.82601 -3.77777,1.45053c1.46822,1.18541 2.6572,2.58527 3.48906,4.13596c0.94623,-1.48706 1.68977,-4.91131 0.28871,-5.58649zm-13.50136,8.07631c0.66928,-0.0212 1.15829,-0.97449 1.09113,-2.13397c-0.06952,-1.16066 -0.66812,-2.08683 -1.33978,-2.06797c-0.67166,0.01767 -1.15829,0.97449 -1.09113,2.13398c0.06833,1.1583 0.66811,2.08565 1.33978,2.06797zm-18.35263,-8.58772c-0.83305,0.9085 1.18893,5.01618 1.18893,5.01618c0.04482,-0.0165 0.08487,-0.03535 0.12845,-0.05185c0.90143,-1.67442 2.17287,-3.03304 3.71533,-4.09118c-0.73529,-0.6316 -3.38301,-2.6713 -5.03271,-0.87315zm24.06168,20.16605c-0.16501,-0.07071 -0.27339,0.06834 -0.29813,0.42184c-0.04126,0.59388 -0.97919,2.8504 -3.31468,2.96117c-0.98155,0.04713 -3.32762,0.44187 -4.30092,-1.48472c-0.00352,-0.00706 -0.0047,-0.01531 -0.00945,-0.02357c-0.04239,-0.08601 -0.08012,-0.18146 -0.11781,-0.27809l-0.23453,-2.06915c0.02594,-0.01297 0.04483,-0.02357 0.04483,-0.02357c0.74704,-0.31933 3.21684,-1.74865 3.86139,-3.69173c0.08838,-0.26984 0.15437,-0.50552 0.19208,-0.71173l0.00586,0.00825c0,0 0.42892,-2.53342 -0.25806,-4.26439c0,0 0.09549,1.81227 0.04599,3.29698c-0.5397,-0.49136 -2.05623,-0.46543 -5.20709,-0.4018c-1.20663,0.02474 -1.85587,0.31815 -2.14925,0.75178c-0.19682,-1.11236 0.22383,-3.66462 0.22383,-3.66462c-0.87192,1.89123 -0.42534,4.42229 -0.42534,4.42229l0.00587,-0.00353c0.06363,1.49413 2.09743,3.55975 2.09743,3.55975s0.62334,0.6363 1.0558,0.80479c0.00826,0.00119 0.01532,0 0.02356,0.00119c0.00708,0.66339 0.0542,1.52947 0.23215,2.02437c-0.11551,0.53733 -0.82718,2.48746 -1.65677,2.65244c-4.70152,0.93913 -5.04442,-2.51338 -5.2518,-2.83979c-0.2569,-0.40416 -0.42189,0.0377 -0.42189,0.0377s-0.13075,3.93329 5.52879,3.39362c1.46228,-0.13906 2.08563,-2.64302 2.08563,-2.64302s0.4454,1.30796 2.21997,1.64378c5.47931,1.03576 6.25699,-3.25693 6.23579,-3.61867c-0.01888,-0.17793 -0.21327,-0.26159 -0.21327,-0.26159z" fill="#3C2415"/></g></g></svg>
