<svg xmlns="http://www.w3.org/2000/svg" width="190" height="247" x="0" y="0" id="svgcontent" overflow="visible" viewBox="0 0 190 247"><defs><mask id="canvasMaskImageDef" maskUnits="objectBoundingBox" x="0" y="0"><image id="canvasMaskImage" preserveAspectRatio="none" style="pointer-events:none" x="-105" y="-78" width="400" height="344.82758620689657" xlink:href="http://37.97.236.145/~shirtwere/designnbuy/uploads/productimage/582ee43d3d161.png" xmlns:xlink="http://www.w3.org/1999/xlink"/></mask></defs><g style="pointer-events:all" mask="url(#canvasMaskImageDef)"><title style="pointer-events:inherit">Layer 1</title><g id="nameText" type="nameText" text="tester2" font-size="30" font-family="Brush-Script" font-id="1" fill="#FF0000" posX="53.4453125" posY="113.02734375" text-anchor="middle" font-weight="normal" font-style="normal" lineHeight="1" shapeId="0" shapeVal="0" style="pointer-events: inherit; display: inline;" fill-opacity="1" stroke-width="1" stroke="null" stroke-dasharray="none"><path id="svg_18" fill="#FF0000" d="M10.581319808959961,14.900311470031738 C10.521320343017578,15.290311336517334 10.521320343017578,15.71031141281128 10.521320343017578,16.160311222076416 C8.211319923400879,17.750311374664307 6.501319885253906,20.4503116607666 3.0513200759887695,20.4503116607666 C0.08131980895996094,20.4503116607666 1.461319923400879,16.280311107635498 2.4813199043273926,14.660311222076416 C2.4813199043273926,14.660311222076416 0.5013198852539062,16.190311431884766 0.5013198852539062,16.190311431884766 C0.5313200950622559,15.77031135559082 0.47132015228271484,15.260311126708984 0.5613198280334473,14.900311470031738 C0.5613198280334473,14.900311470031738 2.031320095062256,13.760311365127563 2.031320095062256,13.760311365127563 C3.14132022857666,12.860311269760132 3.9213199615478516,11.96031129360199 4.701319694519043,10.760311249643564 C3.591320037841797,10.700311250053346 2.8713197708129883,10.730311250314116 1.8513197898864746,10.970311254262924 C3.1113200187683105,9.080311298370361 3.831319808959961,7.1303112506866455 7.221320152282715,7.280311346054077 C8.271320343017578,5.990311145782471 8.48132038116455,4.640311241149902 10.461319923400879,4.640311241149902 C12.441320419311523,4.640311241149902 10.701319694519043,6.470311164855957 10.281319618225098,7.1303112506866455 C10.941320419311523,7.160311222076416 11.48132038116455,7.220311164855957 12.081319808959961,7.310311317443848 C11.331319808959961,8.420311212539673 10.911319732666016,10.100311279296875 9.651320457458496,10.640311248600483 C9.201319694519043,10.82031124830246 8.39132022857666,10.880311250686646 7.221320152282715,10.880311250686646 C5.961319923400879,12.590311288833618 4.4313201904296875,14.330311298370361 4.4313201904296875,16.40031147003174 C4.4313201904296875,19.130311012268066 7.761320114135742,16.850311279296875 8.721320152282715,16.190311431884766 C8.721320152282715,16.190311431884766 10.581319808959961,14.900311470031738 10.581319808959961,14.900311470031738 M21.351320266723633,14.900311470031738 C21.351320266723633,14.900311470031738 21.29132080078125,16.160311222076416 21.29132080078125,16.160311222076416 C19.161319732666016,17.690311431884766 17.301319122314453,19.940311431884766 13.941320419311523,19.940311431884766 C11.601320266723633,19.940311431884766 10.64132022857666,18.560311317443848 10.521320343017578,16.190311431884766 C10.311320304870605,12.02031123638153 14.721319198608398,8.27031135559082 18.74131965637207,8.27031135559082 C19.79132080078125,8.27031135559082 20.601320266723633,8.690311193466187 20.601320266723633,9.65031123161316 C20.601320266723633,13.130311250686646 16.31131935119629,14.090311288833618 13.461320877075195,15.200311183929443 C13.161319732666016,16.58031129837036 13.941320419311523,17.450311183929443 15.29132080078125,17.420311450958252 C17.841320037841797,17.390311241149902 19.67131996154785,15.950311183929443 21.351320266723633,14.900311470031738 C21.351320266723633,14.900311470031738 21.351320266723633,14.900311470031738 21.351320266723633,14.900311470031738 M18.11132049560547,10.370311260223389 C18.08131980895996,9.800311267375946 17.391319274902344,10.04031127691269 16.9713191986084,10.220311254262924 C15.561319351196289,10.880311250686646 14.421319961547852,12.260311245918274 13.761320114135742,13.730311155319214 C15.261320114135742,13.160311222076416 16.731319427490234,12.230311274528503 17.691320419311523,11.210311233997345 C17.961320877075195,10.880311250686646 18.11132049560547,10.61031124740839 18.11132049560547,10.370311260223389 C18.11132049560547,10.370311260223389 18.11132049560547,10.370311260223389 18.11132049560547,10.370311260223389 M33.02132034301758,14.900311470031738 C32.93132019042969,15.590311050415039 33.141319274902344,16.37031126022339 32.51131820678711,16.58031129837036 C32.51131820678711,16.58031129837036 31.341320037841797,17.450311183929443 31.341320037841797,17.450311183929443 C29.78131866455078,18.530311107635498 28.161319732666016,19.970311164855957 25.70132064819336,20.00031089782715 C23.931320190429688,20.030311584472656 21.65131950378418,18.890311241149902 21.65131950378418,17.30031108856201 C21.621320724487305,16.46031141281128 22.40131950378418,15.800311088562012 23.24131965637207,15.830311298370361 C24.141319274902344,15.860311031341553 24.891319274902344,16.46031141281128 25.431320190429688,16.880311012268066 C27.411319732666016,15.980311393737793 27.891319274902344,13.880311250686646 27.351320266723633,11.180311262607574 C27.351320266723633,11.180311262607574 23.661319732666016,14.420311212539673 23.661319732666016,14.420311212539673 C23.661319732666016,14.420311212539673 21.29132080078125,16.220311164855957 21.29132080078125,16.220311164855957 C21.321319580078125,15.77031135559082 21.261320114135742,15.290311336517334 21.351320266723633,14.900311470031738 C23.42131996154785,13.340311288833618 25.40131950378418,11.750311255455017 27.20132064819336,9.890311241149902 C27.621320724487305,8.450311183929443 27.711320877075195,7.640311241149902 29.151321411132812,7.640311241149902 C29.961318969726562,7.640311241149902 30.081321716308594,7.9403111934661865 30.141319274902344,8.720311284065247 C30.231319427490234,9.980311274528503 30.801319122314453,10.82031124830246 30.801319122314453,12.110311269760132 C30.801319122314453,14.93031120300293 28.491321563720703,16.250311374664307 26.81131935119629,17.540311336517334 C29.661319732666016,17.90031147003174 31.22132110595703,16.040311336517334 33.02132034301758,14.900311470031738 C33.02132034301758,14.900311470031738 33.02132034301758,14.900311470031738 33.02132034301758,14.900311470031738 M43.04132080078125,14.900311470031738 C42.981319427490234,15.290311336517334 42.981319427490234,15.71031141281128 42.981319427490234,16.160311222076416 C40.671321868896484,17.750311374664307 38.96131896972656,20.4503116607666 35.51131820678711,20.4503116607666 C32.54132080078125,20.4503116607666 33.921321868896484,16.280311107635498 34.94131851196289,14.660311222076416 C34.94131851196289,14.660311222076416 32.96131896972656,16.190311431884766 32.96131896972656,16.190311431884766 C32.9913215637207,15.77031135559082 32.93132019042969,15.260311126708984 33.02132034301758,14.900311470031738 C33.02132034301758,14.900311470031738 34.4913215637207,13.760311365127563 34.4913215637207,13.760311365127563 C35.601318359375,12.860311269760132 36.38132095336914,11.96031129360199 37.161319732666016,10.760311249643564 C36.05131912231445,10.700311250053346 35.331321716308594,10.730311250314116 34.31132125854492,10.970311254262924 C35.571319580078125,9.080311298370361 36.29132080078125,7.1303112506866455 39.68132019042969,7.280311346054077 C40.731319427490234,5.990311145782471 40.94131851196289,4.640311241149902 42.921321868896484,4.640311241149902 C44.90132141113281,4.640311241149902 43.161319732666016,6.470311164855957 42.7413215637207,7.1303112506866455 C43.40132141113281,7.160311222076416 43.94131851196289,7.220311164855957 44.54132080078125,7.310311317443848 C43.79132080078125,8.420311212539673 43.37131881713867,10.100311279296875 42.11132049560547,10.640311248600483 C41.661319732666016,10.82031124830246 40.851318359375,10.880311250686646 39.68132019042969,10.880311250686646 C38.421321868896484,12.590311288833618 36.891319274902344,14.330311298370361 36.891319274902344,16.40031147003174 C36.891319274902344,19.130311012268066 40.22132110595703,16.850311279296875 41.18132019042969,16.190311431884766 C41.18132019042969,16.190311431884766 43.04132080078125,14.900311470031738 43.04132080078125,14.900311470031738 M53.81132125854492,14.900311470031738 C53.81132125854492,14.900311470031738 53.751319885253906,16.160311222076416 53.751319885253906,16.160311222076416 C51.62131881713867,17.690311431884766 49.76131820678711,19.940311431884766 46.40132141113281,19.940311431884766 C44.06132125854492,19.940311431884766 43.101318359375,18.560311317443848 42.981319427490234,16.190311431884766 C42.77132034301758,12.02031123638153 47.18132019042969,8.27031135559082 51.20132064819336,8.27031135559082 C52.251319885253906,8.27031135559082 53.06132125854492,8.690311193466187 53.06132125854492,9.65031123161316 C53.06132125854492,13.130311250686646 48.77132034301758,14.090311288833618 45.921321868896484,15.200311183929443 C45.62131881713867,16.58031129837036 46.40132141113281,17.450311183929443 47.751319885253906,17.420311450958252 C50.30131912231445,17.390311241149902 52.13132095336914,15.950311183929443 53.81132125854492,14.900311470031738 C53.81132125854492,14.900311470031738 53.81132125854492,14.900311470031738 53.81132125854492,14.900311470031738 M50.571319580078125,10.370311260223389 C50.54132080078125,9.800311267375946 49.851318359375,10.04031127691269 49.43132019042969,10.220311254262924 C48.02132034301758,10.880311250686646 46.88132095336914,12.260311245918274 46.22132110595703,13.730311155319214 C47.72132110595703,13.160311222076416 49.19131851196289,12.230311274528503 50.15132141113281,11.210311233997345 C50.421321868896484,10.880311250686646 50.571319580078125,10.61031124740839 50.571319580078125,10.370311260223389 C50.571319580078125,10.370311260223389 50.571319580078125,10.370311260223389 50.571319580078125,10.370311260223389 M65.4813232421875,14.900311470031738 C65.4813232421875,14.900311470031738 65.4513168334961,16.190311431884766 65.4513168334961,16.190311431884766 C65.4513168334961,16.190311431884766 62.751319885253906,18.380311012268066 62.751319885253906,18.380311012268066 C61.881317138671875,18.980311393737793 60.891319274902344,19.790310859680176 59.571319580078125,19.790310859680176 C57.44131851196289,19.790310859680176 57.141319274902344,16.910311222076416 58.251319885253906,15.320311069488525 C58.94131851196289,14.330311298370361 59.601318359375,13.340311288833618 60.41132354736328,12.470311284065247 C60.41132354736328,12.470311284065247 57.05131912231445,13.160311222076416 57.05131912231445,13.160311222076416 C57.05131912231445,13.160311222076416 55.55131912231445,14.690311193466187 55.55131912231445,14.690311193466187 C55.04132080078125,15.230311393737793 54.351318359375,15.74031114578247 53.751319885253906,16.220311164855957 C53.78131866455078,15.77031135559082 53.72132110595703,15.290311336517334 53.81132125854492,14.900311470031738 C54.411319732666016,14.390311241149902 54.981319427490234,13.940311193466187 55.4913215637207,13.340311288833618 C54.351318359375,13.310311317443848 54.77132034301758,11.780311226844788 55.13132095336914,11.180311262607574 C55.88132095336914,9.890311241149902 56.87131881713867,8.600311279296875 58.46131896972656,8.18031120300293 C59.0913200378418,8.2103111743927 59.18132019042969,8.99031126499176 58.851318359375,9.500311255455017 C58.851318359375,9.500311255455017 62.96131896972656,8.96031129360199 62.96131896972656,8.96031129360199 C63.831321716308594,8.96031129360199 64.5813217163086,10.430311262607574 64.101318359375,11.330311238765717 C63.2313232421875,13.010311365127563 60.92131805419922,13.700311183929443 60.74131774902344,16.010311126708984 C61.04132080078125,17.84031105041504 63.59131622314453,16.190311431884766 64.28131866455078,15.71031141281128 C64.28131866455078,15.71031141281128 65.4813232421875,14.900311470031738 65.4813232421875,14.900311470031738 M79.5813217163086,0.5003108978271484 C82.19132232666016,0.5003108978271484 82.52131652832031,1.8803110122680664 82.61132049560547,4.790311336517334 C82.7013168334961,8.15031123161316 80.78131866455078,8.96031129360199 78.68132019042969,10.190311253070831 C78.68132019042969,10.190311253070831 71.18132019042969,14.510311365127563 71.18132019042969,14.510311365127563 C71.18132019042969,14.510311365127563 68.30132293701172,16.52031135559082 68.30132293701172,16.52031135559082 C72.41132354736328,16.160311222076416 76.2513198852539,15.440311431884766 79.851318359375,14.540311336517334 C79.2513198852539,16.34031105041504 78.80132293701172,18.05031108856201 77.27131652832031,18.74031162261963 C75.351318359375,19.61031150817871 71.601318359375,19.850311279296875 68.63131713867188,19.940311431884766 C66.41132354736328,20.00031089782715 64.97132110595703,17.27031135559082 66.17131805419922,15.380311012268066 C68.96131896972656,11.03031125664711 75.05132293701172,9.410311222076416 79.28131866455078,6.440311431884766 C79.97132110595703,5.960311412811279 80.57131958007812,5.300311088562012 80.84131622314453,4.400311470031738 C80.7513198852539,3.290311336517334 79.101318359375,3.530311107635498 78.0813217163086,3.7403111457824707 C75.62132263183594,4.220311164855957 73.55132293701172,5.300311088562012 71.54132080078125,6.260311126708984 C72.351318359375,6.380311012268066 73.2513198852539,6.440311431884766 73.94132232666016,6.620311260223389 C74.72132110595703,6.830311298370361 74.4513168334961,7.700311183929443 73.67131805419922,7.670311212539673 C73.67131805419922,7.670311212539673 69.56131744384766,8.450311183929443 69.56131744384766,8.450311183929443 C69.14131927490234,8.450311183929443 68.7513198852539,7.910311222076416 68.78131866455078,7.4603111743927 C69.2013168334961,2.0303115844726562 73.97132110595703,0.5003108978271484 79.5813217163086,0.5003108978271484 C79.5813217163086,0.5003108978271484 79.5813217163086,0.5003108978271484 79.5813217163086,0.5003108978271484 " transform="matrix(1, 0, 0, 1, 53.4453, 113.027)" style="pointer-events:inherit"/></g><g id="numberText" type="numberText" text="13" font-size="120" font-family="Brush-Script" font-id="1" fill="#FF0000" posX="71.7109375" posY="83.09765625" text-anchor="middle" font-weight="normal" font-style="normal" lineHeight="1" shapeId="0" shapeVal="0" style="pointer-events: inherit; display: inline;" fill-opacity="1" stroke-width="1" stroke="null" stroke-dasharray="none"><path id="svg_20" fill="#FF0000" d="M-26.57183074951172,74.8990592956543 C-26.09183120727539,77.29905700683594 -25.371829986572266,81.49905776977539 -28.851829528808594,80.17905807495117 C-32.81182861328125,77.17905807495117 -40.73183059692383,77.17905807495117 -39.89183044433594,70.09905815124512 C-37.13182830810547,45.85905742645264 -21.171829223632812,31.219057083129883 -10.011829376220703,14.059057235717773 C-10.011829376220703,14.059057235717773 -24.65182876586914,19.579057693481445 -24.65182876586914,19.579057693481445 C-28.49182891845703,11.419057846069336 -15.531829833984375,8.899059295654297 -9.771827697753906,5.179058074951172 C-6.411827087402344,3.0190582275390625 -2.9318313598632812,1.2190589904785156 0.30817413330078125,0.6190567016601562 C5.1081695556640625,2.5390586853027344 7.3881683349609375,8.539058685302734 4.028167724609375,14.6590576171875 C-3.2918319702148438,27.739057540893555 -13.491828918457031,43.579057455062866 -20.691829681396484,57.49905776977539 C-20.691829681396484,57.49905776977539 -22.371829986572266,60.97905731201172 -22.371829986572266,60.97905731201172 C-24.291828155517578,65.05905723571777 -26.451828002929688,69.85905838012695 -26.57183074951172,74.8990592956543 C-26.57183074951172,74.8990592956543 -26.57183074951172,74.8990592956543 -26.57183074951172,74.8990592956543 M17.94817352294922,56.899057388305664 C21.548171997070312,57.619056701660156 18.30817413330078,60.97905731201172 17.108169555664062,61.81905746459961 C29.708168029785156,67.57905769348145 48.18817138671875,61.21905708312988 57.908172607421875,56.419057846069336 C65.22816467285156,52.81905746459961 65.70817565917969,48.139057636260986 57.54817199707031,45.25905752182007 C49.86817169189453,42.49905753135681 36.30817413330078,42.9790575504303 27.908172607421875,44.899057388305664 C26.468170166015625,44.899057388305664 25.86817169189453,43.81905746459961 25.86817169189453,42.25905752182007 C25.86817169189453,27.739057540893555 44.228172302246094,30.25905704498291 55.628173828125,26.899057388305664 C64.50816345214844,24.259057998657227 73.98817443847656,23.6590576171875 78.42817687988281,17.179058074951172 C79.50816345214844,11.539056777954102 74.58816528320312,11.419057846069336 67.8681640625,11.419057846069336 C57.54817199707031,11.419057846069336 48.66816711425781,13.099058151245117 40.628173828125,16.219057083129883 C43.98817443847656,16.33905792236328 51.30817413330078,18.97905731201172 44.10816955566406,20.419057846069336 C41.94817352294922,20.779056549072266 38.588172912597656,21.019058227539062 34.38816833496094,21.019058227539062 C30.668167114257812,21.019058227539062 27.668167114257812,18.49905776977539 28.268173217773438,14.779056549072266 C30.06816864013672,2.899059295654297 48.30817413330078,0.379058837890625 61.8681640625,0.379058837890625 C74.70817565917969,0.379058837890625 88.26817321777344,2.899059295654297 86.34817504882812,16.81905746459961 C84.06817626953125,33.139057636260986 62.468170166015625,32.179057121276855 47.708168029785156,36.49905729293823 C58.8681640625,38.299057483673096 72.30816650390625,39.859057545661926 72.30816650390625,52.33905792236328 C72.30816650390625,67.93905830383301 47.348167419433594,78.01905822753906 28.628173828125,78.01905822753906 C19.148170471191406,78.01905822753906 8.708168029785156,75.2590560913086 7.868171691894531,68.05905723571777 C9.428169250488281,63.13905715942383 13.268173217773438,58.69905662536621 17.94817352294922,56.899057388305664 C17.94817352294922,56.899057388305664 17.94817352294922,56.899057388305664 17.94817352294922,56.899057388305664 " transform="matrix(1, 0, 0, 1, 71.7109, 83.0977)" style="pointer-events:inherit"/></g></g></svg>