<svg xmlns="http://www.w3.org/2000/svg" width="210" height="395" x="0" y="0" id="svgcontent" viewBox="0 0 210 395" overflow="hidden"><g mask="" style="pointer-events:all"><title style="pointer-events:inherit">Layer 1</title><g id="svg_1" type="text" text="PNG" font-size="23.14814848557946" font-family="Brush-Script" font-id="1" fill="000000" text-anchor="start" font-weight="normal" font-style="normal" lineHeight="1" shapeId="0" shapeVal="0" fill-opacity="1" display="null" elemBBoxWidth="167.50003051757812" elemBBoxHeight="70.60406494140625" xscale="3.190476771763393" yscale="3.190475271118564" stroke="null" stroke-opacity="1" transform=""><path id="svg_2" fill="#000000" d="M46.94179365798391,51.95282765527986 C44.65233135792846,50.84502331654346 42.43672268045543,47.59546392291634 44.57847773534604,44.93673350994868 C46.720232790236594,42.278003096981024 51.29915739034749,41.39175962599177 55.43496025496381,40.13624804209053 C55.43496025496381,40.13624804209053 67.10383262298836,24.77469454494417 67.10383262298836,24.77469454494417 C58.97993413892061,25.513230770768587 50.929889277435336,27.06415684499973 44.28306324501631,29.353619145055177 C43.24911252886221,29.722887257967272 41.32891834171892,30.092155370879482 40.959650228806765,28.984351032142968 C41.919747322378385,25.36552352560375 44.947745848258194,21.968256886811787 46.86794003540149,19.38338009642655 C51.59457188067722,16.059967080217007 63.115737003536935,14.435187383403445 71.90431809084657,14.435187383403445 C83.42548321370629,14.435187383403445 94.946648336566,16.872356928623844 94.4296729784889,29.132058277307806 C93.61728313008211,48.186292903575804 72.86441518441825,55.276240671489404 52.11154723875427,53.13448561659891 C52.11154723875427,53.13448561659891 49.0096950902921,58.00882470703948 49.0096950902921,58.00882470703948 C52.62852259683132,60.15057976193009 47.0895009031488,64.13867538138152 45.760135696664975,66.42813768143697 C44.8000386030933,67.31438115242611 43.69223426435684,68.49603911374504 42.36286905787301,68.64374635891 C36.74999374160802,67.16667390726127 42.1413081901257,59.63360440385304 43.69223426435684,57.12258123605034 C43.69223426435684,57.12258123605034 46.94179365798391,51.95282765527986 46.94179365798391,51.95282765527986 M86.08421362667389,26.47332786434015 C81.87455713947514,25.07010903527396 76.63094993612236,24.70084092236175 71.3134891101871,24.47928005461449 C71.23963548760469,26.104059751428053 71.01807461985737,26.916449599834777 70.27953839403301,27.876546693406453 C70.27953839403301,27.876546693406453 62.00793266480042,39.10229732593643 62.00793266480042,39.10229732593643 C62.00793266480042,39.10229732593643 66.5130036423289,38.80688283560664 66.5130036423289,38.80688283560664 C67.99007609397756,38.733029213024224 67.91622247139514,40.21010166467295 66.66071088749379,40.505516155002624 C66.66071088749379,40.505516155002624 60.30929934540444,42.130295851816186 60.30929934540444,42.130295851816186 C60.30929934540444,42.130295851816186 58.68451964859088,44.49361177445405 58.68451964859088,44.49361177445405 C72.79056156183577,45.970684226102776 85.05026291051979,41.76102773890409 88.81679766222396,31.273813332198415 C89.70304113321316,28.68893654181329 88.74294403964149,27.433424957911825 86.08421362667389,26.47332786434015 C86.08421362667389,26.47332786434015 86.08421362667389,26.47332786434015 86.08421362667389,26.47332786434015 M133.05511758910183,68.27447824599778 C128.3284857438261,71.22862314929512 122.863317672726,69.08686809440451 123.52800027596788,63.62170002330447 C125.15277997278139,50.10648709071904 134.90145815366265,39.10229732593643 140.29277260218032,28.3935220514835 C128.47619298899093,38.43761472269455 117.767417714538,51.14043780687314 108.75727575948105,64.0648217587991 C108.09259315623922,65.09877247495308 107.57561779816211,65.8373087007775 106.46781345942566,65.98501594594234 C103.29210768838101,65.1726260975355 99.45171931409442,63.32628553297468 101.96274248189718,59.116629045775994 C101.96274248189718,59.116629045775994 108.46186126915137,48.186292903575804 108.46186126915137,48.186292903575804 C108.46186126915137,48.186292903575804 113.70546847250415,38.51146834527697 113.70546847250415,38.51146834527697 C116.06878439514207,34.22795823549575 118.80136843069215,31.052252464451158 118.80136843069215,26.99030322241731 C118.80136843069215,26.030206128845634 118.57980756294478,25.439377148186168 117.69356409195558,25.439377148186168 C107.94488591107432,27.285717712746987 100.85493814316067,34.59722634840796 92.73103965909291,38.36376110011213 C90.51543098161994,38.21605385494718 91.2539672074443,34.15410461291333 91.62323532035646,32.45547129351735 C92.87874690425781,26.39947424175773 99.00859757859985,21.968256886811787 102.99669319805122,18.792551115767083 C104.8430337626121,17.31547866411836 105.95083810134861,16.281527947964378 107.05864244008507,17.537039531865616 C106.68937432717291,19.235672851261597 104.32605840453505,20.71274530291032 103.14440044321611,22.4113786223063 C103.14440044321611,22.4113786223063 107.64947142074459,19.974209077086016 107.64947142074459,19.974209077086016 C112.22839602085548,17.61089315444815 117.17658873387859,14.509041005985978 123.6018538985503,14.509041005985978 C129.14087559223282,14.509041005985978 128.99316834706798,20.121916322250854 126.62985242443011,24.848548167526587 C126.62985242443011,24.848548167526587 121.31239159849486,35.40961619681468 121.31239159849486,35.40961619681468 C121.31239159849486,35.40961619681468 115.2563945467353,45.82297698093794 115.2563945467353,45.82297698093794 C115.2563945467353,45.82297698093794 125.00507272761655,34.744933593572796 125.00507272761655,34.744933593572796 C130.1748263083869,29.427472767637596 135.7877016246519,23.22376847071314 141.54828418608173,18.8664047383495 C143.9116001087196,17.020064173788683 145.684087050698,16.13382070279954 146.9395986345994,16.13382070279954 C150.26301165080895,17.16777141895352 152.47862032828198,19.75264820933876 152.84788844119413,23.740743828790187 C151.8877913476225,27.06415684499973 149.08135368949002,29.501326390220015 147.30886674751156,32.23391042576998 C143.3207711280602,38.21605385494718 138.74184652794924,44.41975815187163 135.63999437948706,50.9927305617083 C134.38448279558565,53.65146097467584 133.71980019234377,55.71936240698403 133.71980019234377,57.270288481215175 C133.71980019234377,60.29828700709493 136.5262378504762,60.37214062967735 138.88955377311407,58.52580006511653 C142.95150301514803,55.276240671489404 146.9395986345994,51.21429142945556 150.48457251855626,47.37390305516908 C151.5185232347103,52.7652175036867 147.53042761525887,55.71936240698403 144.65013633454402,58.968921800611156 C141.54828418608173,62.513895684567956 137.0432132085532,65.76345507819508 133.05511758910183,68.27447824599778 C133.05511758910183,68.27447824599778 133.05511758910183,68.27447824599778 133.05511758910183,68.27447824599778 M163.1873956027349,83.04520276248456 C160.23325069943758,85.03925057221034 156.61442319289824,84.9653969496278 156.4667159477334,81.12500857534133 C158.1653492671294,73.81349993968036 163.92593182855927,69.60384345248167 169.98192888031883,66.5758449266018 C169.98192888031883,66.5758449266018 174.63470710301215,60.59370149742472 174.63470710301215,60.59370149742472 C177.51499838372712,56.60560587797329 179.7306070612001,52.91292474885154 181.87236211609064,48.40785377132306 C176.1117795546608,52.39594939077449 170.49890423839588,57.12258123605034 164.07363907372417,60.44599425225988 C155.80203334449152,64.72950436204098 148.93364644432512,57.12258123605034 151.66623047987525,47.817024790663595 C155.65432609932662,34.3756654806607 166.6585158641093,25.956352506263215 178.62280272246358,20.71274530291032 C184.23567803872862,18.201722135107616 191.0302113163125,15.912259835052168 198.93254893263287,15.247577231810283 C202.99449817466683,14.878309118898073 204.25000975856813,22.263671377141463 200.85274311977622,24.405426432032073 C200.85274311977622,24.405426432032073 193.39352723895036,29.205911899890225 193.39352723895036,29.205911899890225 C191.76874754213685,29.94444812571453 189.47928524208146,31.56922782252809 187.70679830010295,31.716935067693043 C186.5989939613665,31.790788690275463 186.4512867162016,30.018301748297063 187.4113838097732,29.649033635384853 C187.4113838097732,29.649033635384853 191.84260116471933,25.956352506263215 191.84260116471933,25.956352506263215 C179.0659244579582,30.1660089934619 168.57871005125259,36.812835025880986 160.82407968009704,46.19224509385003 C159.12544636070106,48.186292903575804 157.5006666638875,50.47575520363125 157.5006666638875,53.503753729511004 C157.5006666638875,58.00882470703948 162.52271299949302,56.01477689731371 164.9598825447133,54.24228995533531 C164.9598825447133,54.24228995533531 186.08201860328944,38.95459008077148 186.08201860328944,38.95459008077148 C188.5930417710922,37.03439589362824 190.43938233565302,34.3756654806607 193.5412344841152,33.046300274176815 C196.34767214224775,33.48942200967144 199.30181704554514,36.07429880005668 196.93850112290716,38.80688283560664 C192.8765518808733,46.413805961597404 187.85450554526778,53.20833923918133 183.42328819032178,60.44599425225988 C183.42328819032178,60.44599425225988 192.43343014537874,55.05467980374215 192.43343014537874,55.05467980374215 C194.87059969059914,53.503753729511004 197.30776923581942,51.87897403269744 199.5972315358748,50.10648709071904 C199.5233779132924,53.429900106928585 198.56328081972072,54.31614357791773 196.42152576483016,56.01477689731371 C191.47333305180706,59.8551652716003 183.86640992581636,64.72950436204098 178.25353460955142,68.42218549116262 C173.97002449977026,73.37037820418573 168.72641729641742,79.2786680107805 163.1873956027349,83.04520276248456 C163.1873956027349,83.04520276248456 163.1873956027349,83.04520276248456 163.1873956027349,83.04520276248456 " stroke="null" transform=""/><rect id="svg_3" x="39.86757368159124" y="14.4351806640625" width="162.9469159095297" height="69.90285794042575" fill="#000000" opacity="0" stroke="null" transform=""/></g></g></svg>