<svg xmlns="http://www.w3.org/2000/svg" width="225" height="175" viewBox="0 0 225 175"><g><title>Layer 1</title><g stroke="null" shapeVal="0" shapeId="0" lineHeight="1" font-style="normal" font-weight="normal" text-anchor="middle" posY="44.7" posX="43.24" fill="#0000FF" font-id="1" font-family="Brush-Script" font-size="120" text="1" type="numberText" id="numberText"><path transform="matrix(1 0 0 1 43.24 44.7)" d="m59.35999,76.64c0.48,2.4 1.2,6.6 -2.28,5.28c-3.96,-3 -11.88,-3 -11.04,-10.08c2.76,-24.24 18.72,-38.88 29.88,-56.04c0,0 -14.64,5.52 -14.64,5.52c-3.84,-8.16 9.12,-10.68 14.88,-14.4c3.36,-2.16 6.84,-3.96 10.08,-4.56c4.8,1.92 7.08,7.92 3.72,14.04c-7.32,13.08 -17.52,28.92 -24.72,42.84c0,0 -1.68,3.48 -1.68,3.48c-1.92,4.08 -4.08,8.88 -4.2,13.92c0,0 0,0 0,0" fill="#0000FF" id="svg_2"/></g></g></svg>