<svg xmlns="http://www.w3.org/2000/svg" width="188" height="235" x="0" y="0" id="svgcontent" viewBox="0 0 188 235" overflow="hidden"><g mask="" style="pointer-events:all"><title style="pointer-events:inherit">Layer 1</title><image x="43" y="29.593624114990234" width="94" height="65.81275440976933" preserveAspectRatio="none" id="svg_3" image_id="245" isAdminUploaded="false" display="null" xlink:href="http://192.168.0.139/work/print_commerce/pc-newtool-magento-21/designnbuy/assets/images/uploadedImage/o_1au4kkif4hl4131616p2rnplcf18_0.png" xmlns:xlink="http://www.w3.org/1999/xlink" origWidth="737" origHeight="516"/></g><defs><clipPath class="clippath" id="svg_18"><path d="M46,110.27017C48.45294,134.51048 48.45294,158.94258 46,183.18213C46,188.19751 50.17646,192.3125 55.4132,192.3125C80.40501,189.93373 105.59496,189.93373 130.5872,192.3125C135.75735,192.3125 140,188.26207 140,183.18213C137.54666,158.94258 137.54666,134.51048 140,110.27017C140,105.25479 135.82393,101.14018 130.5872,101.14018L130.5872,101.20436C105.59496,103.58312 80.40501,103.58312 55.4132,101.20436C50.24263,101.20436 46,105.25517 46,110.33435" id="svg_2" opacity="1" stroke="#000000" shapeType="roundedSquare" fill="#000" fill-opacity="0" stroke-width="2" stroke-dasharray="none"/></clipPath></defs></svg>