<svg xmlns="http://www.w3.org/2000/svg" width="203" height="348" x="0" y="0" id="svgcontent" viewBox="0 0 203 348" overflow="hidden"><defs><clipPath class="clippath" id="svg_4"><path d="M63.75,52.96156C66.39865,77.23537 66.39865,101.70131 63.75,125.97439C63.75,130.99675 68.25967,135.11742 73.91422,135.11742C100.90005,132.73537 128.09984,132.73537 155.08612,135.11742C160.66887,135.11742 165.25,131.06142 165.25,125.97439C162.60088,101.70131 162.60088,77.23537 165.25,52.96156C165.25,47.93923 160.74072,43.81892 155.08612,43.81892L155.08612,43.8832C128.09984,46.26524 100.90005,46.26524 73.91422,43.8832C68.33113,43.8832 63.75,47.93962 63.75,53.02583" id="svg_1" opacity="1" stroke="#000000" shapeType="roundedSquare" fill="#000" fill-opacity="0" stroke-width="4" stroke-dasharray="none"/></clipPath><clipPath class="clippath" id="svg_6"><path d="M41.75,194.62352C44.94665,220.34007 44.94665,246.26007 41.75,271.97589C41.75,277.29669 47.19273,281.66229 54.0172,281.66229C86.58627,279.13864 119.4136,279.13864 151.98334,281.66229C158.72108,281.66229 164.25,277.36517 164.25,271.97589C161.05284,246.26007 161.05284,220.34006 164.25,194.62352C164.25,189.3027 158.80782,184.9375 151.98334,184.9375L151.98334,185.00558C119.4136,187.52922 86.58627,187.52922 54.0172,185.00558C47.27897,185.00558 41.75,189.3031 41.75,194.6916" id="svg_8" opacity="1" stroke="#000000" shapeType="roundedSquare" fill="#000" fill-opacity="0" stroke-width="4" stroke-dasharray="none"/></clipPath><clipPath class="clippath" id="svg_11"><path d="M152.25,126.70771C152.25,154.29411 129.52849,176.65852 101.49998,176.65852C73.4715,176.65866 50.75,154.2948 50.75,126.70771C50.75,99.12062 73.4715,76.75697 101.50009,76.75697C129.52859,76.75697 152.25,99.12062 152.25,126.70771z" id="svg_2" opacity="1" stroke="#000000" shapeType="circle" fill="#000" fill-opacity="0" stroke-width="0" stroke-dasharray="none"/></clipPath><clipPath class="clippath" id="svg_7"><path d="M58.11941,87.46902C54.89785,91.97997 53.03629,97.35024 52.75,102.86302L52.82146,102.86302C52.53517,108.87777 53.82413,114.89209 56.4731,120.26234L56.4731,120.33424C58.54949,124.5589 61.19846,128.49725 64.20605,132.07701C66.92691,135.37088 69.93407,138.4491 73.08459,141.24185C75.51917,143.46117 78.09666,145.46651 80.74564,147.47099C82.10607,148.40135 83.39503,149.40318 84.75462,150.33437L84.68316,150.33437C87.18919,152.33929 89.40851,154.77344 91.27049,157.42284C94.63584,162.07756 96.78369,167.51845 97.42817,173.24648C104.15886,170.95526 110.60284,167.7337 116.4738,163.72345C130.15001,154.77344 141.03262,142.24367 147.90627,127.49374L147.97815,127.49374C151.62979,120.11942 153.70618,112.09975 154.20688,103.86569L154.20688,103.93674C154.49361,97.99389 153.34799,92.05145 150.84195,86.60973C148.83662,82.31318 145.75841,78.66238 141.89194,75.79773C138.88521,73.50652 135.30418,72.14609 131.50961,71.78832C124.34883,71.43014 117.33311,74.151 112.32104,79.44938C109.45724,82.45654 107.02267,85.9644 105.08838,89.68793L105.15984,89.68793C104.30054,91.40613 103.51269,93.12475 102.86863,94.91441L102.79716,94.91441C101.5082,92.90992 100.07629,90.97647 98.5725,89.11534C95.42242,85.24844 91.69888,82.02646 87.40275,79.52084C82.6774,76.65704 76.94937,75.94067 71.65057,77.65929L71.72205,77.65929C66.28074,79.44938 61.55496,82.88619 58.18961,87.54008" id="svg_9" opacity="1" stroke="#000000" shapeType="heartCurve" fill="#000" fill-opacity="0" stroke-width="0" stroke-dasharray="none"/></clipPath><filter id="svg_10" type="css_sepia" color-interpolation-filters="sRGB"><feColorMatrix type="matrix" values=".343 .669 .119 0 0             .249 .626 .130 0 0            .172 .334 .111 0 0            .000 .000 .000 1 0 "/></filter><clipPath class="clippath" id="svg_12"><path d="M58.11941,87.46902C54.89785,91.97997 53.03629,97.35024 52.75,102.86302L52.82146,102.86302C52.53517,108.87777 53.82413,114.89209 56.4731,120.26234L56.4731,120.33424C58.54949,124.5589 61.19846,128.49725 64.20605,132.07701C66.92691,135.37088 69.93407,138.4491 73.08459,141.24185C75.51917,143.46117 78.09666,145.46651 80.74564,147.47099C82.10607,148.40135 83.39503,149.40318 84.75462,150.33437L84.68316,150.33437C87.18919,152.33929 89.40851,154.77344 91.27049,157.42284C94.63584,162.07756 96.78369,167.51845 97.42817,173.24648C104.15886,170.95526 110.60284,167.7337 116.4738,163.72345C130.15001,154.77344 141.03262,142.24367 147.90627,127.49374L147.97815,127.49374C151.62979,120.11942 153.70618,112.09975 154.20688,103.86569L154.20688,103.93674C154.49361,97.99389 153.34799,92.05145 150.84195,86.60973C148.83662,82.31318 145.75841,78.66238 141.89194,75.79773C138.88521,73.50652 135.30418,72.14609 131.50961,71.78832C124.34883,71.43014 117.33311,74.151 112.32104,79.44938C109.45724,82.45654 107.02267,85.9644 105.08838,89.68793L105.15984,89.68793C104.30054,91.40613 103.51269,93.12475 102.86863,94.91441L102.79716,94.91441C101.5082,92.90992 100.07629,90.97647 98.5725,89.11534C95.42242,85.24844 91.69888,82.02646 87.40275,79.52084C82.6774,76.65704 76.94937,75.94067 71.65057,77.65929L71.72205,77.65929C66.28074,79.44938 61.55496,82.88619 58.18961,87.54008" id="svg_13" opacity="1" stroke="#000000" shapeType="heartCurve" fill="#000" fill-opacity="0" stroke-width="0" stroke-dasharray="none"/></clipPath><filter id="svg_14" type="dusk" color-interpolation-filters="sRGB"><feColorMatrix type="matrix" values="1.0 0   0   0   0            0   0.2 0   0   0             0   0   0.2 0   0             0   0   0   1.0 0 "/></filter><clipPath class="clippath" id="svg_15"><path d="M37.65353,77.95819C33.51152,83.75798 31.11809,90.6626 30.75,97.75046L30.84188,97.75046C30.47379,105.4837 32.13102,113.21641 35.53685,120.12102L35.53685,120.21346C38.20649,125.64516 41.61231,130.70877 45.4792,135.31131C48.97746,139.5463 52.8438,143.504 56.89447,147.09467C60.02464,149.94809 63.33857,152.52637 66.74439,155.10358C68.49352,156.29974 70.15076,157.5878 71.8988,158.78505L71.80692,158.78505C75.02896,161.36281 77.88237,164.49243 80.27634,167.89879C84.60323,173.88345 87.36475,180.87888 88.19336,188.24348C96.84711,185.29764 105.13222,181.15562 112.6806,175.99959C130.2643,164.49243 144.25624,148.38272 153.09377,129.41853L153.1862,129.41853C157.88116,119.93726 160.5508,109.62626 161.19456,99.03961L161.19456,99.13096C161.5632,91.49015 160.09027,83.84988 156.86823,76.85337C154.28993,71.32924 150.33224,66.63535 145.36107,62.95222C141.49527,60.00639 136.8911,58.25726 132.01236,57.79728C122.80565,57.33676 113.78543,60.83501 107.34134,67.64721C103.6593,71.51355 100.52914,76.02366 98.0422,80.81107L98.13408,80.81107C97.02926,83.02017 96.01631,85.22982 95.18824,87.53082L95.09636,87.53082C93.43911,84.95361 91.5981,82.46776 89.66465,80.07487C85.61453,75.10315 80.82713,70.96059 75.30354,67.73909C69.22808,64.05706 61.86347,63.13601 55.05074,65.34566L55.14263,65.34566C48.14666,67.64721 42.07066,72.06596 37.74379,78.04955" id="svg_18" opacity="1" shapeType="heartCurve" fill="#000" fill-opacity="0" stroke-width="0" stroke-dasharray="none" stroke="#000000"/></clipPath><filter id="svg_17" type="css_grayscale" color-interpolation-filters="sRGB"><feColorMatrix type="saturate" values="0"/></filter><clipPath class="clippath" id="svg_24"><path d="M37.653529017447546,77.95818767910637 C33.511520117038614,83.75797971519214 31.118090612949374,90.66260491753712 30.749998416528356,97.75046454330653 L30.84188000231375,97.75046454330653 C30.473787805892734,105.48371230127515 32.13102364085667,113.21641275853084 35.53684814842357,120.1210286845926 L35.53684814842357,120.21346684737415 C38.20648826314843,125.64516668703892 41.61231277071532,130.70877433028267 45.47920566191445,135.31131358989418 C48.977459055979644,139.5462986775143 52.84380464646587,143.50399710563954 56.89447926180229,147.09467938620304 C60.02464045944648,149.94809194878195 63.33857410494471,152.52637922586786 66.74439861251162,155.1035811778111 C68.49352530954422,156.29975790542608 70.15076114450815,157.58781621882636 71.89880251639822,158.78506899530072 L71.80692093061282,158.78506899530072 C75.0289637140424,161.36281824795688 77.88237627662132,164.49244142117143 80.27635308142345,167.89880395316797 C84.60322903111228,173.88346303853356 87.36475073162251,180.8788845015215 88.19336401096285,188.24349276235614 C96.84711591034046,185.29765131327886 105.1322283125841,181.15563313658672 112.68060902127286,175.9995966068447 C130.26431415438037,164.49244142117143 144.25625168178192,148.3827376996034 153.09378530529688,129.4185453665972 L153.18621419179513,129.4185453665972 C157.88118233790493,119.9372655130218 160.55081317634654,109.626268502397 161.19457795897358,99.03961745813275 L161.19457795897358,99.13096101948851 C161.56321745610745,91.49015142430144 160.09029209342725,83.84987985354405 156.86824003371444,76.85337306541366 C154.28995275662857,71.32923506296734 150.33225432850327,66.63535224200007 145.36108484804112,62.952231798655006 C141.49527728198456,60.006390349577785 136.89110539651762,58.25726365254519 132.01236480255375,57.79728059405551 C122.80565365747525,57.336759511136194 113.78544218753208,60.83501290520139 107.34134734438963,67.64720922104809 C103.65931222618714,71.5135548115343 100.52915102854294,76.02366518464753 98.04220731281289,80.81106221725564 L98.13408889859828,80.81106221725564 C97.02926500862233,83.02017197277792 96.01632270443176,85.2298290290131 95.18824744952107,87.53082037032078 L95.09636586373566,87.53082037032078 C93.43912075248845,84.95361841837749 91.59810319338717,82.46776002778995 89.66465674778763,80.07487782441362 C85.6145387094474,75.10315176695525 80.827132400556,70.96059556583342 75.30354169882256,67.73909080683347 C69.22808635281409,64.05706496491423 61.86347809197938,63.136013522792325 55.05074375170306,65.34566130274425 L55.14263461377171,65.34566130274425 C48.146665850070946,67.64720922104809 42.070663203349554,72.06596675652227 37.743787253660756,78.04954051674537 " id="" opacity="1" shapeType="heartCurve" fill="#000" fill-opacity="0" stroke-width="0" stroke-dasharray="none" stroke="#000000" transform=""/></clipPath><filter id="svg_27" type="css_hue_rotate" color-interpolation-filters="sRGB"><feColorMatrix type="hueRotate" values="180"/></filter></defs><g mask="" style="pointer-events:all"><title style="pointer-events:inherit">Layer 1</title><g type="photobox" style="pointer-events:inherit" pathStr="M10.972713607910084,83.59268995227295 C3.428792716648282,94.1559633198607 -0.9304067133381135,106.73149069382666 -1.6008201473162007,119.64074646580096 L-1.43347443870117,119.64074646580096 C-2.103887872679259,133.72546012078206 0.9144677942768986,147.80917696639327 7.117561817582526,160.38468744528524 L7.117561817582526,160.55304685834412 C11.979828972931976,170.44590679195386 18.182922996237593,179.6683532915855 25.22576978087602,188.05104702988433 C31.59720632216652,195.76430724850078 38.63905629743512,202.97253991316273 46.01662828945169,209.5123189724381 C51.717651396764126,214.7092944400916 57.75338281638065,219.40517890604787 63.9564768396863,224.0990866483383 C67.14219511033156,226.2777064490357 70.16055077728771,228.623671958348 73.34429232426734,230.8042515876372 L73.1769466156523,230.8042515876372 C79.04531543157977,235.49915613929747 84.24229089923332,241.1991993323141 88.60248713858952,247.4032732699155 C96.48310996089518,258.303248568547 101.51272282485964,271.0441449274625 103.02189221080069,284.4574483390956 C118.78313785541192,279.0921303534571 133.87297325667515,271.5481925671213 147.62098498061246,262.15740354950486 C179.64652710012382,241.1991993323141 205.13031343669428,211.85828448175047 221.22628428868373,177.31843433494174 L221.39462680666855,177.31843433494174 C229.94566306295224,160.04999602805515 234.80791332322767,141.27037782141372 235.9804145682731,121.98870559385314 L235.9804145682731,122.1550713881724 C236.65182481162094,108.23871714625022 233.9691573712647,94.32334281862386 228.10077166026326,81.58046973604287 C223.40488719430704,71.51925038937422 216.1966545296451,62.97019085675616 207.1425674430724,56.26205238442186 C200.10169738209964,50.89673439878341 191.7160301107654,47.71101612813816 182.8302855421776,46.873240090470986 C166.06192453254445,46.03448413850802 149.63323898699062,52.40592067979852 137.8964844600616,64.81310553577961 C131.19032271139298,71.85495551104819 125.48929960408054,80.06930673136216 120.95978093244372,88.78868550563071 L121.12712664105874,88.78868550563071 C119.11488952975463,92.81217981394315 117.26999812706555,96.83667093162542 115.76180865542031,101.02751094855287 L115.59446294680524,101.02751094855287 C112.57609038477501,96.33360320626238 109.22300951044065,91.8060612582911 105.70158611812147,87.44785863767456 C98.32502783054882,78.39275784665793 89.60563216120615,70.84784014602629 79.54540962390733,64.98045124439463 C68.48006534032635,58.27430639080003 55.066761928693154,56.596777591800034 42.65859715841631,60.621251814408254 L42.82595976210539,60.621251814408254 C30.08406659382016,64.81310553577961 19.017725500869318,72.86107406670024 11.137102678563714,83.75907264166622 " lockTransform="true" lockEdit="false" id="svg_3" display="null" transform=""><g clip-path="url(#svg_24)" transform=""><image xmlns:xlink="http://www.w3.org/1999/xlink" x="31.628932778872738" y="32.061409228991124" width="256.224517027537" height="192.16838777065277" preserveAspectRatio="none" id="svg_26" xlink:href="http://192.168.0.222/work/jan_langius/print_commerce/source/designnbuy/assets/images/uploadedImage/admin_o_1aftj74n614d41qdaimogdk53pa.jpg" style="pointer-events:inherit" origWidth="1024" origHeight="768" image_id="null" templateSrc="http://192.168.0.222/work/jan_langius/print_commerce/source/designnbuy/assets/images/uploadedImage/admin_o_1aftj74n614d41qdaimogdk53pa.jpg#**#16" isAdminUploaded="true" filter="url(#svg_27)" transform=""/></g><path d="M37.653529017447546,77.95818767910637 C33.511520117038614,83.75797971519214 31.118090612949374,90.66260491753712 30.749998416528356,97.75046454330653 L30.84188000231375,97.75046454330653 C30.473787805892734,105.48371230127515 32.13102364085667,113.21641275853084 35.53684814842357,120.1210286845926 L35.53684814842357,120.21346684737415 C38.20648826314843,125.64516668703892 41.61231277071532,130.70877433028267 45.47920566191445,135.31131358989418 C48.977459055979644,139.5462986775143 52.84380464646587,143.50399710563954 56.89447926180229,147.09467938620304 C60.02464045944648,149.94809194878195 63.33857410494471,152.52637922586786 66.74439861251162,155.1035811778111 C68.49352530954422,156.29975790542608 70.15076114450815,157.58781621882636 71.89880251639822,158.78506899530072 L71.80692093061282,158.78506899530072 C75.0289637140424,161.36281824795688 77.88237627662132,164.49244142117143 80.27635308142345,167.89880395316797 C84.60322903111228,173.88346303853356 87.36475073162251,180.8788845015215 88.19336401096285,188.24349276235614 C96.84711591034046,185.29765131327886 105.1322283125841,181.15563313658672 112.68060902127286,175.9995966068447 C130.26431415438037,164.49244142117143 144.25625168178192,148.3827376996034 153.09378530529688,129.4185453665972 L153.18621419179513,129.4185453665972 C157.88118233790493,119.9372655130218 160.55081317634654,109.626268502397 161.19457795897358,99.03961745813275 L161.19457795897358,99.13096101948851 C161.56321745610745,91.49015142430144 160.09029209342725,83.84987985354405 156.86824003371444,76.85337306541366 C154.28995275662857,71.32923506296734 150.33225432850327,66.63535224200007 145.36108484804112,62.952231798655006 C141.49527728198456,60.006390349577785 136.89110539651762,58.25726365254519 132.01236480255375,57.79728059405551 C122.80565365747525,57.336759511136194 113.78544218753208,60.83501290520139 107.34134734438963,67.64720922104809 C103.65931222618714,71.5135548115343 100.52915102854294,76.02366518464753 98.04220731281289,80.81106221725564 L98.13408889859828,80.81106221725564 C97.02926500862233,83.02017197277792 96.01632270443176,85.2298290290131 95.18824744952107,87.53082037032078 L95.09636586373566,87.53082037032078 C93.43912075248845,84.95361841837749 91.59810319338717,82.46776002778995 89.66465674778763,80.07487782441362 C85.6145387094474,75.10315176695525 80.827132400556,70.96059556583342 75.30354169882256,67.73909080683347 C69.22808635281409,64.05706496491423 61.86347809197938,63.136013522792325 55.05074375170306,65.34566130274425 L55.14263461377171,65.34566130274425 C48.146665850070946,67.64720922104809 42.070663203349554,72.06596675652227 37.743787253660756,78.04954051674537 " id="svg_25" opacity="1" shapeType="heartCurve" fill="#000" fill-opacity="0" stroke-width="0" stroke-dasharray="none" stroke="#000000" transform=""/></g></g></svg>