<svg xmlns="http://www.w3.org/2000/svg" width="225" height="405" x="0" y="0" id="svgcontent" overflow="hidden" viewBox="0 0 225 405"><defs/><g style="pointer-events:all" mask=""><title style="pointer-events:inherit">Layer 1</title><g id="svg_42" display="null"><g id="svg_1" type="text" text="text" font-size="39.11272068809416" font-family="Brush-Script" font-id="1" fill="000000" text-anchor="start" font-weight="normal" font-style="normal" lineHeight="1" shapeId="0" shapeVal="0" style="pointer-events:inherit" fill-opacity="1" display="null" elemBBoxWidth="56.2421875" elemBBoxHeight="20.609375" xscale="1" yscale="1"><path id="svg_2" fill="#000000" d="M97.51980590820312,205.57003784179688 C97.44155883789062,206.07852172851562 97.44155883789062,206.6260986328125 97.44155883789062,207.2127685546875 C94.42990112304688,209.2857666015625 92.20046997070312,212.805908203125 87.7025146484375,212.805908203125 C83.83035278320312,212.805908203125 85.6295166015625,207.36923217773438 86.9593505859375,205.25714111328125 C86.9593505859375,205.25714111328125 84.3779296875,207.25189208984375 84.3779296875,207.25189208984375 C84.41702270507812,206.70431518554688 84.33880615234375,206.03939819335938 84.45614624023438,205.57003784179688 C84.45614624023438,205.57003784179688 86.3726806640625,204.08377075195312 86.3726806640625,204.08377075195312 C87.81982421875,202.91036987304688 88.83676147460938,201.73699951171875 89.85369873046875,200.1724853515625 C88.40652465820312,200.09426879882812 87.46783447265625,200.13339233398438 86.13800048828125,200.4462890625 C87.78073120117188,197.982177734375 88.71942138671875,195.43984985351562 93.13916015625,195.63540649414062 C94.50811767578125,193.95358276367188 94.78189086914062,192.1934814453125 97.36334228515625,192.1934814453125 C99.94479370117188,192.1934814453125 97.67623901367188,194.57937622070312 97.128662109375,195.43984985351562 C97.9891357421875,195.47897338867188 98.69317626953125,195.55718994140625 99.47543334960938,195.67453002929688 C98.49761962890625,197.1217041015625 97.95004272460938,199.31201171875 96.30731201171875,200.01605224609375 C95.72061157226562,200.25070190429688 94.66455078125,200.32894897460938 93.13916015625,200.32894897460938 C91.49642944335938,202.55838012695312 89.50167846679688,204.826904296875 89.50167846679688,207.52569580078125 C89.50167846679688,211.08493041992188 93.84320068359375,208.11236572265625 95.09481811523438,207.25189208984375 C95.09481811523438,207.25189208984375 97.51980590820312,205.57003784179688 97.51980590820312,205.57003784179688 M111.56124877929688,205.57003784179688 C111.56124877929688,205.57003784179688 111.4830322265625,207.2127685546875 111.4830322265625,207.2127685546875 C108.70602416992188,209.20751953125 106.28103637695312,212.1409912109375 101.90042114257812,212.1409912109375 C98.84963989257812,212.1409912109375 97.5980224609375,210.341796875 97.44155883789062,207.25189208984375 C97.16778564453125,201.81521606445312 102.9173583984375,196.9261474609375 108.158447265625,196.9261474609375 C109.52740478515625,196.9261474609375 110.58343505859375,197.47372436523438 110.58343505859375,198.72531127929688 C110.58343505859375,203.26239013671875 104.99032592773438,204.51400756835938 101.27462768554688,205.961181640625 C100.88348388671875,207.76034545898438 101.90042114257812,208.89462280273438 103.66049194335938,208.85552978515625 C106.98507690429688,208.81640625 109.37094116210938,206.93899536132812 111.56124877929688,205.57003784179688 C111.56124877929688,205.57003784179688 111.56124877929688,205.57003784179688 111.56124877929688,205.57003784179688 M107.33709716796875,199.66403198242188 C107.2979736328125,198.9208984375 106.39837646484375,199.23379516601562 105.85079956054688,199.46847534179688 C104.01251220703125,200.32894897460938 102.52621459960938,202.12811279296875 101.66574096679688,204.04464721679688 C103.62136840820312,203.301513671875 105.53790283203125,202.08901977539062 106.78952026367188,200.75918579101562 C107.14151000976562,200.32894897460938 107.33709716796875,199.9769287109375 107.33709716796875,199.66403198242188 C107.33709716796875,199.66403198242188 107.33709716796875,199.66403198242188 107.33709716796875,199.66403198242188 M114.37738037109375,209.52044677734375 C113.477783203125,210.22445678710938 111.7568359375,212.49301147460938 110.77902221679688,210.85025024414062 C111.4830322265625,209.59866333007812 112.4217529296875,207.72125244140625 114.18182373046875,207.36923217773438 C114.18182373046875,207.36923217773438 116.17657470703125,205.53094482421875 116.17657470703125,205.53094482421875 C116.17657470703125,205.53094482421875 116.17657470703125,200.91561889648438 116.17657470703125,200.91561889648438 C115.19873046875,201.54144287109375 113.82980346679688,202.48013305664062 112.57818603515625,202.79302978515625 C111.79592895507812,202.40191650390625 112.18707275390625,201.89346313476562 112.89108276367188,201.18942260742188 C114.49472045898438,199.66403198242188 116.84149169921875,197.5128173828125 118.95355224609375,196.61322021484375 C119.73580932617188,196.61322021484375 119.89227294921875,197.39547729492188 119.8531494140625,198.13864135742188 C119.8531494140625,198.13864135742188 119.69671630859375,202.08901977539062 119.69671630859375,202.08901977539062 C119.69671630859375,202.08901977539062 124.0382080078125,198.13864135742188 124.0382080078125,198.13864135742188 C124.507568359375,197.78662109375 125.72006225585938,197.27813720703125 125.75918579101562,198.29507446289062 C125.32894897460938,200.13339233398438 124.42935180664062,201.73699951171875 122.27813720703125,201.89346313476562 C122.27813720703125,201.89346313476562 119.57937622070312,204.51400756835938 119.57937622070312,204.51400756835938 C119.4620361328125,206.07852172851562 119.2664794921875,208.19061279296875 120.83096313476562,208.19061279296875 C122.94305419921875,208.19061279296875 124.19467163085938,206.5478515625 125.56362915039062,205.57003784179688 C125.56362915039062,206.11761474609375 125.4462890625,206.70431518554688 125.52450561523438,207.2127685546875 C125.52450561523438,207.2127685546875 120.126953125,211.55429077148438 120.126953125,211.55429077148438 C119.54025268554688,211.90631103515625 118.83624267578125,212.25833129882812 117.97573852539062,212.29742431640625 C115.8636474609375,212.3365478515625 116.137451171875,209.91156005859375 116.17657470703125,207.72125244140625 C116.17657470703125,207.72125244140625 114.37738037109375,209.52044677734375 114.37738037109375,209.52044677734375 M138.6663818359375,205.57003784179688 C138.58816528320312,206.07852172851562 138.58816528320312,206.6260986328125 138.58816528320312,207.2127685546875 C135.57647705078125,209.2857666015625 133.3470458984375,212.805908203125 128.84909057617188,212.805908203125 C124.9769287109375,212.805908203125 126.776123046875,207.36923217773438 128.10595703125,205.25714111328125 C128.10595703125,205.25714111328125 125.52450561523438,207.25189208984375 125.52450561523438,207.25189208984375 C125.56362915039062,206.70431518554688 125.48538208007812,206.03939819335938 125.60272216796875,205.57003784179688 C125.60272216796875,205.57003784179688 127.51925659179688,204.08377075195312 127.51925659179688,204.08377075195312 C128.9664306640625,202.91036987304688 129.98336791992188,201.73699951171875 131.00027465820312,200.1724853515625 C129.5531005859375,200.09426879882812 128.61441040039062,200.13339233398438 127.28457641601562,200.4462890625 C128.92730712890625,197.982177734375 129.86602783203125,195.43984985351562 134.28573608398438,195.63540649414062 C135.65469360351562,193.95358276367188 135.92849731445312,192.1934814453125 138.50991821289062,192.1934814453125 C141.09136962890625,192.1934814453125 138.82281494140625,194.57937622070312 138.27523803710938,195.43984985351562 C139.1357421875,195.47897338867188 139.83975219726562,195.55718994140625 140.62200927734375,195.67453002929688 C139.64419555664062,197.1217041015625 139.09661865234375,199.31201171875 137.45388793945312,200.01605224609375 C136.8671875,200.25070190429688 135.8111572265625,200.32894897460938 134.28573608398438,200.32894897460938 C132.64300537109375,202.55838012695312 130.64825439453125,204.826904296875 130.64825439453125,207.52569580078125 C130.64825439453125,211.08493041992188 134.98977661132812,208.11236572265625 136.24139404296875,207.25189208984375 C136.24139404296875,207.25189208984375 138.6663818359375,205.57003784179688 138.6663818359375,205.57003784179688 " style="pointer-events:inherit"/><rect id="svg_3" x="84.37890625" y="192.1953125" width="56.2421875" height="20.609375" fill="#000000" opacity="0" style="pointer-events:inherit"/></g><g id="svg_7" display="null" clip-id="1"><path fill="#2BA9E1" d="M134.7948760986328,191.847074508667 L140.62559509277344,187.86828708648682 L132.30963134765625,185.4340696334839 C125.36595916748047,173.23116809129715 111.19407653808594,179.59494972229004 106.45770263671875,191.20055198669434 C100.74285125732422,205.18934631347656 84.37566375732422,210.29189682006836 84.37566375732422,210.29189682006836 C96.02449035644531,224.1468276977539 106.53094482421875,226.64887619018555 113.53824615478516,226.09659957885742 C120.54914855957031,225.54011917114258 139.47181701660156,220.02936553955078 135.53265380859375,195.4308681488037 C135.32675170898438,194.15283012390137 135.07821655273438,192.96183395385742 134.7948760986328,191.847074508667 z" id="svg_8" stroke-width="0"/><path fill="#2B3277" d="M132.30963134765625,185.4340696334839 C133.3019256591797,187.17794227600098 134.14654541015625,189.30540466308594 134.7948760986328,191.847074508667 L140.62559509277344,187.86828708648682 L132.30963134765625,185.4340696334839 zM123.04219055175781,200.88039207458496 C123.04219055175781,200.88039207458496 103.59247589111328,196.86978721618652 101.36175537109375,207.69259643554688 C99.13164520263672,218.51300811767578 117.0896224975586,224.79335403442383 123.04219055175781,200.88039207458496 zM126.78446960449219,185.133318901062 C126.91473388671875,186.29370021820068 126.31683349609375,187.3160104751587 125.44639587402344,187.41746139526367 C124.57296752929688,187.5153102874756 123.75775909423828,186.65207958221436 123.62869262695312,185.49349975585938 C123.49542236328125,184.33311939239502 124.09332275390625,183.3108081817627 124.96675872802734,183.20935821533203 C125.84199523925781,183.11511039733887 126.65180206298828,183.97293853759766 126.78446960449219,185.133318901062 z" id="svg_9" stroke-width="0"/></g><g id="svg_19" display="null" clip-id="436"><rect id="svg_18" x="215.24770288085938" y="480.625109375" width="143.28" height="30.083" transform="matrix(0.392294, 0, 0, 0.392294, -0.0360876, -0.0114881)"/><rect id="svg_17" x="241.53670288085937" y="508.832109375" fill="#0061FF" width="95.099" height="15.845" transform="matrix(0.392294, 0, 0, 0.392294, -0.0360876, -0.0114881)"/><path fill="#E20000" d="M140.6259765625,188.5961487814784 L140.6259765625,216.4631576538086 L112.50122833251953,216.4631576538086 L140.6259765625,188.5961487814784 zM84.37609100341797,188.5961487814784 L84.37609100341797,216.4631576538086 L112.50083923339844,216.4631576538086 L84.37609100341797,188.5961487814784 z" id="svg_20" stroke-width="0"/><path id="svg_16" fill="#FFD600" d="M125.67564392089844,199.60549354553223 L120.03837585449219,198.54825973510742 L124.83495330810547,195.87359857559204 L118.94387817382812,196.4953842163086 L121.97395324707031,192.70150756835938 L116.75643920898438,194.94111442565918 L117.68225860595703,190.52466678619385 L114.14846801757812,194.0082392692566 L112.7177734375,189.96407866477966 L111.11878204345703,194.1322045326233 L107.58499908447266,190.58586478233337 L108.59515380859375,195.1270627975464 L103.37842559814453,192.76270532608032 L106.40733337402344,196.55736637115479 L100.68611145019531,195.873206615448 L105.39795684814453,198.48549270629883 L99.508056640625,199.60510063171387 L125.67564392089844,199.60549354553223 L125.67564392089844,199.60549354553223 z" stroke-width="0"/></g><g id="svg_30" display="null" clip-id="436"><rect id="svg_29" x="215.24770288085938" y="480.625109375" width="143.28" height="30.083" transform="matrix(0.392294, 0, 0, 0.392294, -0.0360876, -0.0114881)"/><rect id="svg_28" x="241.53670288085937" y="508.832109375" fill="#0061FF" width="95.099" height="15.845" transform="matrix(0.392294, 0, 0, 0.392294, -0.0360876, -0.0114881)"/><path fill="#E20000" d="M140.6259765625,188.5961487814784 L140.6259765625,216.4631576538086 L112.50122833251953,216.4631576538086 L140.6259765625,188.5961487814784 zM84.37609100341797,188.5961487814784 L84.37609100341797,216.4631576538086 L112.50083923339844,216.4631576538086 L84.37609100341797,188.5961487814784 z" id="svg_31" stroke-width="0"/><path id="svg_27" fill="#FFD600" d="M125.67564392089844,199.60549354553223 L120.03837585449219,198.54825973510742 L124.83495330810547,195.87359857559204 L118.94387817382812,196.4953842163086 L121.97395324707031,192.70150756835938 L116.75643920898438,194.94111442565918 L117.68225860595703,190.52466678619385 L114.14846801757812,194.0082392692566 L112.7177734375,189.96407866477966 L111.11878204345703,194.1322045326233 L107.58499908447266,190.58586478233337 L108.59515380859375,195.1270627975464 L103.37842559814453,192.76270532608032 L106.40733337402344,196.55736637115479 L100.68611145019531,195.873206615448 L105.39795684814453,198.48549270629883 L99.508056640625,199.60510063171387 L125.67564392089844,199.60549354553223 L125.67564392089844,199.60549354553223 z" stroke-width="0"/></g><g id="svg_41" display="null" clip-id="518"><rect id="svg_40" x="365.55400213623045" fill="#FF0000" width="48.206" height="70.732" transform="matrix(0.390625, 0, 0, 0.390625, 0, 0)" y="365.2739944458008"/><rect id="svg_39" x="269.76000213623047" fill="#009A00" width="47.898" height="70.732" transform="matrix(0.390625, 0, 0, 0.390625, 0, 0)" y="365.2739944458008"/><rect id="svg_38" x="317.6580021362305" fill="#FFFF00" width="48.139" height="70.732" transform="matrix(0.390625, 0, 0, 0.390625, 0, 0)" y="365.2739944458008"/></g></g></g></svg>