<svg xmlns="http://www.w3.org/2000/svg" width="175" height="262" x="0" y="0" id="svgcontent" overflow="hidden" viewBox="0 0 175 262"><defs/><g style="pointer-events:all" mask=""><title style="pointer-events:inherit">Layer 1</title><g id="svg_4" display="null" clip-id="1"><path fill="#2BA9E1" d="M197.27655029296875,31.507180213928223 L220.36614990234375,15.751182794570923 L187.43502807617188,6.111681938171387 C159.93807983398438,-42.2117919921875 103.81745910644531,-17.011215209960938 85.06141662597656,28.946937561035156 C62.43060302734375,84.34252166748047 -2.3834152221679688,104.54866790771484 -2.3834152221679688,104.54866790771484 C43.74592590332031,159.4140625 85.3514404296875,169.32220458984375 113.10037231445312,167.13526916503906 C140.86351013183594,164.93153381347656 215.7972412109375,143.10899353027344 200.19808959960938,45.6989860534668 C199.38275146484375,40.6379337310791 198.39859008789062,35.921627044677734 197.27655029296875,31.507180213928223 z" id="svg_5" stroke-width="0"/><path fill="#2B3277" d="M187.43502807617188,6.111681938171387 C191.364501953125,13.017422199249268 194.70919799804688,21.442176580429077 197.27655029296875,31.507180213928223 L220.36614990234375,15.751182794570923 L187.43502807617188,6.111681938171387 zM150.7359619140625,67.27905654907227 C150.7359619140625,67.27905654907227 73.71513366699219,51.39708709716797 64.88150024414062,94.25540924072266 C56.05023956298828,137.10425567626953 127.16378784179688,161.97438049316406 150.7359619140625,67.27905654907227 zM165.55538940429688,4.920709609985352 C166.0712432861328,9.51582145690918 163.70355224609375,13.56415843963623 160.25660705566406,13.965888500213623 C156.7978057861328,14.35340166091919 153.56959533691406,10.935006141662598 153.0585174560547,6.347041130065918 C152.53077697753906,1.7519283294677734 154.89842224121094,-2.29644775390625 158.3572540283203,-2.6981773376464844 C161.8231964111328,-3.0713958740234375 165.03001403808594,0.32559776306152344 165.55538940429688,4.920709609985352 z" id="svg_6" stroke-width="0"/></g><image x="-23.250006079673767" y="146.65625809133053" width="431.49998784065247" height="269.6874924004078" preserveAspectRatio="none" id="svg_7" image_id="null" templateSrc="http://192.168.0.46/dnb_products/pc-magento-qa/designnbuy/assets/images/uploadedImage/admin_o_1af8b59771iqn1q82ieg12gib38a.jpeg#**#null" isAdminUploaded="true" display="null" xlink:href="http://192.168.0.46/dnb_products/pc-magento-qa/designnbuy/assets/images/uploadedImage/admin_o_1af8b59771iqn1q82ieg12gib38a.jpeg" xmlns:xlink="http://www.w3.org/1999/xlink" origWidth="1600" origHeight="1000" transform="translate(-226, -32)"/></g></svg>