<?xml version="1.0"?>
<svg xmlns="http://www.w3.org/2000/svg" width="315" height="116"><g><title>Layer 1</title><g clip-id="911" display="null" id="svg_4"><path id="svg_5" d="m132.72134,103.59045c0.14243,2.78848 -1.8831,3.12758 -4.00134,3.12419c-7.88284,-0.01244 -15.76456,-0.09268 -23.64734,-0.15486c-0.50983,-0.00339 -1.0309,-0.16725 -1.52711,-0.10059c-1.59711,0.21361 -4.25337,0.05878 -4.57552,0.83983c-0.97774,2.36575 -0.66801,4.97681 1.46039,7.01816c3.20897,3.07896 7.17302,4.32118 11.42526,4.33929c5.20398,0.02373 10.40685,-0.41144 15.61082,-0.61604c1.5666,-0.06215 3.1344,-0.01016 4.70325,-0.01016c0.10176,0.43291 0.2057,0.86581 0.30634,1.29762c-2.85632,1.18344 -5.64484,2.59065 -8.58928,3.48476c-2.89366,0.87939 -5.95795,1.78137 -8.92505,1.71471c-7.25662,-0.16502 -14.40472,-1.19022 -19.46747,-7.33691c-3.25078,-3.94594 -3.64749,-11.84799 -1.06587,-16.23705c0.62846,-1.06813 1.19473,-2.42563 1.1179,-3.60907c-0.2939,-4.64902 -0.67819,-9.30821 -1.35526,-13.91537c-1.45926,-9.92307 1.79604,-18.41289 6.83839,-26.77272c3.3141,-5.49561 7.79584,-8.49774 13.53897,-10.74821c4.82422,-1.89215 8.08516,-5.39387 8.80974,-11.22405c0.63858,-5.14408 2.37592,-10.07566 7.31313,-13.32194c2.18263,-1.4355 3.52658,-4.1607 5.2085,-6.33318c0.67819,-0.876 1.09982,-1.99274 1.89107,-2.72859c1.52818,-1.41968 2.9162,-0.90991 3.19202,1.16762c0.28029,2.12161 0.19893,4.2952 0.53238,6.40552c0.12886,0.81834 0.89857,2.11595 1.48637,2.18039c2.6144,0.28483 4.11432,1.85146 5.53178,3.79786c0.6284,0.86357 1.57903,1.57002 2.5206,2.10917c2.33186,1.33717 2.96819,3.74024 1.1778,5.83133c-1.13147,1.32359 -2.85518,2.1589 -3.90755,3.52659c-0.95735,1.24447 -1.90796,2.9117 -1.91022,4.39467c-0.00679,4.37999 0.56174,8.75546 0.70982,13.13996c0.13791,4.10532 -1.58807,7.44202 -3.99908,10.81037c-1.96219,2.74328 -3.42371,6.3196 -3.74698,9.65857c-0.60588,6.28119 -0.15599,12.65844 -0.30408,18.9916c-0.05423,2.34997 0.69289,3.4712 3.11971,3.81936c2.71729,0.39224 2.54095,1.07608 1.46373,3.61702c-1.23656,2.91623 -2.61891,5.0367 -6.06529,4.17653c-1.59032,-0.39449 -3.02472,-1.42419 -4.87053,-2.33636z" fill-rule="evenodd"></path></g></g></svg>
