<svg xmlns="http://www.w3.org/2000/svg" width="125.48" height="152.46" viewBox="0 0 125.48 152.46"><g><title>Layer 1</title><g clip-id="1029" display="null" id="svg_4"><path stroke-width="0" id="svg_5" d="m109.81767,106.42314c-1.49014,-5.10533 -3.51306,-12.3868 -2.87432,-16.25963s1.83618,-39.72374 -31.91482,-32.64655c0,0 -7.85389,3.57861 -15.35564,3.32937c-0.04878,-0.45886 -0.14482,-0.90704 -0.2805,-1.34303c1.03814,-1.44516 1.93222,-5.27836 0.41312,-6.01237c-1.4726,-0.71115 -3.26458,0.84149 -3.93304,1.50233c-1.91469,-1.29501 -4.39952,-2.07781 -7.11607,-2.07781c-2.2554,0 -4.38733,0.42837 -6.12976,1.33236c-1.14942,-1.00689 -3.7867,-2.89567 -5.49559,-0.81938c-0.89103,1.08235 1.03662,5.68462 1.33845,6.38662c-0.17836,0.98326 -0.21037,2.07704 -0.06403,3.29126c0,0 -0.66846,5.03292 5.06494,9.9378c0,0 0.61282,0.05107 0.69972,1.94899c0.05336,1.14256 0.17531,8.04292 3.37662,14.67803c3.50392,7.26165 3.63121,15.09801 3.18531,15.16051c-0.4459,0.06403 -5.54209,1.33845 -4.65029,4.39647s11.78465,4.33245 13.05831,-0.38187c1.2729,-4.71127 -1.36056,-17.02413 -1.36361,-17.03862c0.0061,-0.04878 0.01296,-0.09985 0.01906,-0.15016c0,0 1.41163,2.65404 5.40641,6.97048c3.99478,4.31491 2.60221,9.20378 2.60221,9.20378s-5.29208,1.18906 -5.0032,3.56794c0.28964,2.38041 9.52086,4.62056 12.93484,-2.20357c3.41397,-6.82185 -3.43836,-19.85425 -3.43836,-19.85425s3.32175,0.48096 7.23802,0.02973c0,0 1.78969,3.26382 2.89414,5.84164c1.04805,2.44367 2.75542,9.0803 1.42763,9.65806c-2.20281,0.95887 -8.32037,2.5763 -7.79215,6.37138c0.40169,2.88804 10.71221,2.0336 14.58275,0.8232c3.87054,-1.21116 0.49468,-10.88371 2.01225,-15.95932c1.51453,-5.07485 3.29735,-3.54812 3.29735,-3.54812s2.60526,4.98262 5.23339,8.52464c2.62889,3.54126 0.72563,4.10912 -0.30031,4.4483c-1.02595,0.34071 -6.70828,2.21653 -5.21509,5.3965c0.6959,1.47946 17.56455,0.35824 16.14225,-4.50471l0.00001,0z" fill="#FFFFF0"/><path stroke-width="0" id="svg_6" d="m46.82647,60.00179c0.43675,-0.15778 0.63112,-0.91161 0.43446,-1.68374c-0.19665,-0.77441 -0.71039,-1.2729 -1.14638,-1.11665c-0.43675,0.15854 -0.63188,0.91085 -0.43523,1.6845c0.19665,0.77213 0.71039,1.27138 1.14714,1.11589l0.00001,0zm12.20082,-5.42013c-0.91771,-0.44361 -2.03588,0.53431 -2.44367,0.93829c0.94972,0.76679 1.7188,1.67231 2.25693,2.67538c0.61206,-0.96192 1.09302,-3.17692 0.18674,-3.61367zm-8.73349,5.22424c0.43294,-0.01372 0.74926,-0.63035 0.70581,-1.38038c-0.04497,-0.75078 -0.43218,-1.34989 -0.86664,-1.33769c-0.43446,0.01143 -0.74926,0.63035 -0.70581,1.38038c0.04421,0.74926 0.43218,1.34913 0.86664,1.33769zm-11.87154,-5.55504c-0.53889,0.58767 0.76908,3.24476 0.76908,3.24476c0.02896,-0.01067 0.05488,-0.02287 0.08308,-0.03354c0.5831,-1.08311 1.40553,-1.96195 2.40327,-2.64642c-0.47562,-0.40855 -2.18833,-1.72795 -3.25543,-0.5648zm15.56449,13.0446c-0.10671,-0.04573 -0.17683,0.04421 -0.19284,0.27287c-0.02668,0.38416 -0.6334,1.8438 -2.14412,1.91545c-0.63493,0.03049 -2.1525,0.28583 -2.78209,-0.96039c-0.00229,-0.00457 -0.00305,-0.00991 -0.0061,-0.01524c-0.02744,-0.05564 -0.05183,-0.11738 -0.07622,-0.17988l-0.15168,-1.33845c0.01677,-0.00838 0.02896,-0.01524 0.02896,-0.01524c0.48325,-0.20656 2.08085,-1.13113 2.49779,-2.38803c0.05717,-0.17455 0.09985,-0.32699 0.12424,-0.46038l0.00381,0.00534c0,0 0.27745,-1.63877 -0.16693,-2.75847c0,0 0.06174,1.17229 0.02973,2.13269c-0.3491,-0.31784 -1.33007,-0.30108 -3.36824,-0.25992c-0.78051,0.01601 -1.20049,0.2058 -1.39029,0.48629c-0.12729,-0.71953 0.14482,-2.3705 0.14482,-2.3705c-0.56404,1.22336 -0.27516,2.8606 -0.27516,2.8606l0.00381,-0.00229c0.04116,0.96649 1.35675,2.30266 1.35675,2.30266s0.40321,0.4116 0.68295,0.52059c0.00534,0.00076 0.00991,0 0.01524,0.00076c0.00457,0.42913 0.03506,0.98936 0.15016,1.30949c-0.0747,0.34757 -0.53508,1.60904 -1.07168,1.71575c-3.04125,0.60749 -3.26305,-1.62581 -3.3972,-1.83694c-0.16616,-0.26144 -0.27287,0.02439 -0.27287,0.02439s-0.08461,2.54428 3.57633,2.19519c0.94591,-0.08994 1.34913,-1.70965 1.34913,-1.70965s0.28812,0.84606 1.43602,1.06329c3.54431,0.66999 4.04738,-2.10677 4.03366,-2.34077c-0.0122,-0.11509 -0.13796,-0.16921 -0.13796,-0.16921l-0.00002,0z" fill="#F5F5DC"/></g></g></svg>