<svg xmlns="http://www.w3.org/2000/svg" width="191.19" height="310.54" viewBox="0 0 191.19 310.54"><g><title>Layer 1</title><g id="svg_1" type="text" text="voorbeeld" font-size="13.28816" font-family="Brush-Script" fill="0" text-anchor="start" font-weight="normal" font-style="normal" lineHeight="1" shapeId="0" shapeVal="0" display="null" elemBBoxWidth="94.79749" elemBBoxHeight="18.0002" xscale="1.98331" yscale="1.98332" stroke="null"><path id="svg_2" fill="#000000" d="m83.3977,155.35398c0,0.36896 -0.07906,0.76428 -0.02635,1.13325c-0.89606,0.52709 -1.34408,0.94877 -2.45098,0.94877c-0.94877,0 -1.23867,-0.42167 -1.87118,-0.89606c-1.42315,1.10689 -2.39827,2.81994 -4.61205,3.10984c-1.79211,-0.34261 -2.74088,-2.97807 -2.08201,-5.24457c0.5798,-1.97659 1.68669,-3.74235 3.37339,-4.61205c0.65886,-0.34261 2.00295,-0.13177 2.10837,0.47438c-0.42167,2.10837 -2.21379,3.21526 -3.4261,4.5857c-0.26355,0.71157 -0.44803,0.94877 -0.44803,1.60763c0,1.00147 0.76428,1.05418 1.60763,0.47438c0.73793,-0.52709 1.7394,-1.29138 2.42462,-1.97659c0.31626,-2.21379 1.68669,-3.79506 3.08349,-4.92831c0.63251,-0.55345 1.68669,-0.2899 1.58128,0.60616c-0.18448,1.81847 -1.39679,3.08349 -2.21379,4.37486c0.31626,1.29138 2.16108,1.00147 2.95171,0.34261c0,0 0,0 0,0m10.48913,0c0,0 -0.05271,1.13325 -0.05271,1.13325c-1.1596,0.79064 -2.0293,1.42315 -3.82142,1.21231c-1.13325,1.02783 -2.00295,1.92389 -3.87413,1.92389c-3.47881,0 -3.34703,-5.66624 -1.21231,-7.40564c1.52857,-1.23867 3.10984,-2.42462 5.66624,-2.5564c0.68522,-0.02635 1.39679,0.31626 1.42315,0.92241c0,0.39532 -0.31626,0.55345 -0.60616,0.71157c0.71157,0.26355 0.92241,0.52709 0.92241,1.47586c0,1.37044 -0.60616,2.3192 -1.26502,3.47881c1.34408,0.10542 1.89753,-0.34261 2.81994,-0.89606c0,0 0,0 0,0m-5.50811,1.34408c-0.73793,-1.66034 0.15813,-2.79359 0.89606,-4.24309c-1.60763,1.05418 -3.97954,1.81847 -3.97954,4.34851c0,1.52857 2.58275,0.55345 3.08349,-0.10542c0,0 0,0 0,0m15.99724,-1.34408c0,0 -0.05271,1.13325 -0.05271,1.13325c-1.1596,0.79064 -2.0293,1.42315 -3.82142,1.21231c-1.13325,1.02783 -2.00295,1.92389 -3.87413,1.92389c-3.47881,0 -3.34703,-5.66624 -1.21231,-7.40564c1.52857,-1.23867 3.10984,-2.42462 5.66624,-2.5564c0.68522,-0.02635 1.39679,0.31626 1.42315,0.92241c0,0.39532 -0.31626,0.55345 -0.60616,0.71157c0.71157,0.26355 0.92241,0.52709 0.92241,1.47586c0,1.37044 -0.60616,2.3192 -1.26502,3.47881c1.34408,0.10542 1.89753,-0.34261 2.81994,-0.89606c0,0 0,0 0,0m-5.50811,1.34408c-0.73793,-1.66034 0.15813,-2.79359 0.89606,-4.24309c-1.60763,1.05418 -3.97954,1.81847 -3.97954,4.34851c0,1.52857 2.58275,0.55345 3.08349,-0.10542c0,0 0,0 0,0m15.76005,-1.34408c0,0 -0.02635,1.13325 -0.02635,1.13325c0,0 -2.37191,1.92389 -2.37191,1.92389c-0.76428,0.52709 -1.63399,1.23867 -2.79359,1.23867c-1.87118,0 -2.13472,-2.53004 -1.1596,-3.92684c0.60616,-0.8697 1.18596,-1.7394 1.89753,-2.50369c0,0 -2.95171,0.60616 -2.95171,0.60616c0,0 -1.31773,1.34408 -1.31773,1.34408c-0.44803,0.47438 -1.05418,0.92241 -1.58128,1.34408c0.02635,-0.39532 -0.02635,-0.81699 0.05271,-1.1596c0.52709,-0.44803 1.02783,-0.84335 1.47586,-1.37044c-1.00147,-0.02635 -0.63251,-1.37044 -0.31626,-1.89753c0.65886,-1.13325 1.52857,-2.2665 2.92536,-2.63546c0.55345,0.02635 0.63251,0.71157 0.34261,1.1596c0,0 3.61058,-0.47438 3.61058,-0.47438c0.76428,0 1.42315,1.29138 1.00147,2.08201c-0.76428,1.47586 -2.79359,2.08201 -2.95171,4.11132c0.26355,1.60763 2.50369,0.15813 3.10984,-0.26355c0,0 1.05418,-0.71157 1.05418,-0.71157m10.38371,0c0,0 -0.02635,1.10689 -0.02635,1.10689c-1.18596,0.89606 -2.53004,1.52857 -4.50664,1.13325c-1.18596,1.08054 -2.2665,2.13472 -3.92684,2.13472c-1.55492,0 -1.95024,-1.42315 -1.95024,-3.24162c0,-6.27239 4.05861,-9.88297 7.74825,-12.91375c0.89606,-0.73793 2.05566,-1.76576 3.24162,-1.76576c1.1596,0 0.68522,1.71305 0.31626,2.42462c-2.21379,4.21674 -5.98249,7.19481 -9.19775,10.46278c-0.42167,1.23867 0.13177,3.18891 1.60763,2.53004c0.50074,-0.23719 0.92241,-0.71157 1.23867,-1.21231c-0.92241,-1.34408 0.31626,-2.92536 1.08054,-3.716c0.65886,-0.68522 1.18596,-1.23867 2.2665,-1.23867c0.50074,0 0.76428,0.42167 0.73793,0.94877c-0.10542,1.66034 -1.00147,2.92536 -1.95024,4.2958c0.18448,0.18448 0.39532,0.2899 0.81699,0.26355c1.05418,-0.15813 1.50221,-0.5798 2.50369,-1.21231c0,0 0,0 0,0m-7.45835,-3.34703c2.53004,-2.2665 5.08644,-4.92831 6.66771,-8.06451c-2.71452,2.39827 -4.8756,4.74383 -6.66771,8.06451c0,0 0,0 0,0m16.94601,3.34703c0,0 -0.05271,1.10689 -0.05271,1.10689c-1.87118,1.34408 -3.50516,3.32068 -6.45688,3.32068c-2.05566,0 -2.89901,-1.21231 -3.00442,-3.29432c-0.18448,-3.66329 3.68964,-6.95761 7.22116,-6.95761c0.92241,0 1.63399,0.36896 1.63399,1.21231c0,3.05713 -3.76871,3.90048 -6.27239,4.8756c-0.26355,1.21231 0.42167,1.97659 1.60763,1.95024c2.24014,-0.02635 3.84777,-1.29138 5.32363,-2.21379c0,0 0,0 0,0m-2.8463,-3.97954c-0.02635,-0.50074 -0.63251,-0.2899 -1.00147,-0.13177c-1.23867,0.5798 -2.24014,1.79211 -2.81994,3.08349c1.31773,-0.50074 2.60911,-1.31773 3.45245,-2.21379c0.23719,-0.2899 0.36896,-0.52709 0.36896,-0.73793c0,0 0,0 0,0m12.3076,3.97954c0,0 -0.05271,1.10689 -0.05271,1.10689c-1.87118,1.34408 -3.50516,3.32068 -6.45688,3.32068c-2.05566,0 -2.89901,-1.21231 -3.00442,-3.29432c-0.18448,-3.66329 3.68964,-6.95761 7.22116,-6.95761c0.92241,0 1.63399,0.36896 1.63399,1.21231c0,3.05713 -3.76871,3.90048 -6.27239,4.8756c-0.26355,1.21231 0.42167,1.97659 1.60763,1.95024c2.24014,-0.02635 3.84777,-1.29138 5.32363,-2.21379c0,0 0,0 0,0m-2.8463,-3.97954c-0.02635,-0.50074 -0.63251,-0.2899 -1.00147,-0.13177c-1.23867,0.5798 -2.24014,1.79211 -2.81994,3.08349c1.31773,-0.50074 2.60911,-1.31773 3.45245,-2.21379c0.23719,-0.2899 0.36896,-0.52709 0.36896,-0.73793c0,0 0,0 0,0m10.85809,3.97954c0,0.36896 -0.07906,0.76428 -0.02635,1.13325c0,0 -1.7394,1.34408 -1.7394,1.34408c-1.13325,0.71157 -2.2665,1.81847 -3.92684,1.81847c-3.26797,0 -2.50369,-5.08644 -1.47586,-7.45835c1.4495,-3.37339 3.84777,-6.11427 6.53594,-8.3017c0.50074,-0.39532 0.89606,-0.60616 1.1596,-0.60616c1.08054,0.2899 0.36896,2.18743 0.13177,3.05713c-1.00147,3.58423 -3.87413,5.69259 -6.16698,8.09086c-0.23719,1.37044 -0.23719,3.10984 1.34408,2.97807c1.79211,-0.15813 2.58275,-0.97512 4.16403,-2.05566c0,0 0,0 0,0m-0.8697,-8.98692c-1.79211,1.4495 -3.05713,3.45245 -4.08496,5.66624c1.63399,-1.66034 3.10984,-3.34703 4.08496,-5.66624c0,0 0,0 0,0m10.09381,11.17435c1.4495,-0.34261 2.24014,-1.13325 3.92684,-2.18743c-0.05271,0.34261 -0.05271,0.71157 -0.05271,1.10689c-1.76576,1.18596 -2.92536,3.05713 -5.61353,3.24162c-1.63399,0.10542 -1.55492,-2.39827 -1.1596,-3.79506c-1.42315,1.10689 -2.47733,2.81994 -4.50664,3.29432c-1.10689,-0.13177 -1.87118,-1.55492 -1.87118,-2.71452c0,-3.90048 3.50516,-5.24457 6.50959,-6.29875c1.02783,-0.36896 1.50221,-0.05271 2.00295,0.55345c1.29138,-2.18743 2.34556,-4.77018 4.11132,-6.45688c0.73793,-0.68522 1.95024,-0.39532 1.81847,0.60616c-0.2899,2.13472 -2.63546,4.45393 -3.716,6.21969c-0.89606,1.4495 -2.3192,3.10984 -2.3192,4.98102c0,0.81699 0.18448,1.39679 0.8697,1.4495c0,0 0,0 0,0m-6.72042,-0.71157c2.00295,-1.00147 4.0059,-2.58275 5.03373,-4.61205c-1.60763,0.5798 -3.21526,1.10689 -4.45393,2.08201c-0.68522,0.50074 -1.00147,1.1596 -1.00147,1.97659c0,0.2899 0.15813,0.55345 0.42167,0.55345c0,0 0,0 0,0" stroke="null"/><rect id="svg_3" x="72.14549" y="141.80771" width="94.22639" height="17.97385" fill="#000000" opacity="0" stroke="null"/></g></g></svg>