<svg width="187" height="240" xmlns="http://www.w3.org/2000/svg" xmlns:xlink="http://www.w3.org/1999/xlink"><defs><mask y="0" x="0" maskUnits="objectBoundingBox" id="canvasMaskImageDef"><image xlink:href="http://192.168.0.222/work/jan_langius/print_commerce/source/designnbuy/uploads/productimage/5826bc835e1ff.png" height="344.82759" width="400" y="-81" x="-106" preserveAspectRatio="none" id="canvasMaskImage"/></mask></defs><g mask="url(#canvasMaskImageDef)"><title>Layer 1</title><g elemBBoxHeight="41.58984" yscale="NaN" xscale="2.77548" elemBBoxWidth="129.75391" display="null" shapeVal="0" shapeId="0" lineHeight="1" font-style="normal" font-weight="normal" text-anchor="start" fill="228B22" font-family="Brush-Script" font-size="20.55327" text="Avril" type="text" id="svg_1"><path d="m40.24966,205.50189c0.22818,-4.39236 2.73809,-6.84523 4.27827,-9.9256c0,0 -12.32141,0.34229 -12.32141,0.34229c0,0 -12.15028,11.97913 -12.15028,11.97913c-1.8254,1.65428 -2.45287,3.02333 -5.19096,3.19446c-2.11063,0.11409 -2.11063,-1.59723 -1.0268,-3.08034c2.22471,-2.96628 5.07689,-5.7614 8.95585,-7.1875c0,0 4.39236,-4.90573 4.39236,-4.90573c-2.39585,0.28523 -7.1875,0.39929 -4.90576,-2.39583c2.22471,-2.73808 5.64732,-6.33186 10.95237,-6.21774c0.5134,0 0.85567,0 0.91271,0.39929c-0.39931,1.25496 -3.65081,0.28522 -4.10714,1.48314c0.51337,1.14087 2.79514,0.28523 4.39236,0.39929c0,0 11.69392,-9.86853 11.69392,-9.86853c0,0 5.07687,-3.99304 5.07687,-3.99304c3.47967,-2.33882 6.56003,-5.13393 10.55307,-6.21776c2.85218,0.34227 1.71132,3.93599 0.57043,5.93254c0,0 -7.24452,12.72072 -7.24452,12.72072c1.7113,0 3.70783,-0.34224 4.96278,0.22815c-1.76836,1.99655 -2.90923,3.93602 -4.27827,6.44594c0,0 -4.56349,0.17114 -4.56349,0.17114c-1.14087,2.22467 -2.90923,4.27826 -3.59374,6.8452c0.05704,0.51338 0.5134,0.91269 1.08382,0.96974c2.11063,-0.45636 2.50992,-1.36905 4.90576,-3.08037c0,0 1.02678,1.42609 1.02678,1.42609c-3.2515,2.85219 -5.93254,6.84526 -11.46577,7.24455c-1.54018,0.11409 -2.96627,-1.36905 -2.90923,-2.90923c0,0 0,0 0,0m16.25742,-30.06197c0,0 -8.27132,6.33182 -8.27132,6.33182c0,0 -8.2713,7.24455 -8.2713,7.24455c0,0 8.7847,-0.6275 8.7847,-0.6275c0,0 7.75792,-12.94887 7.75792,-12.94887m27.83727,23.55901c0,0.7986 -0.17111,1.65427 -0.05704,2.45287c-1.93948,1.14087 -2.9092,2.05357 -5.30505,2.05357c-2.05356,0 -2.68105,-0.9127 -4.05009,-1.93948c-3.08035,2.39581 -5.19096,6.10367 -9.98264,6.73114c-3.87896,-0.74156 -5.93252,-6.44592 -4.50642,-11.35168c1.25495,-4.27826 3.65078,-8.10019 7.30156,-9.98264c1.42609,-0.74155 4.33532,-0.28519 4.56349,1.02681c-0.9127,4.56346 -4.79166,6.95932 -7.41567,9.92558c-0.57042,1.54016 -0.96973,2.05356 -0.96973,3.47964c0,2.16765 1.65427,2.28174 3.47967,1.02678c1.59721,-1.14087 3.76488,-2.79515 5.24801,-4.27826c0.68451,-4.79164 3.65078,-8.21428 6.6741,-10.66714c1.36906,-1.19792 3.65079,-0.62747 3.42262,1.312c-0.39931,3.936 -3.02332,6.6741 -4.79167,9.46924c0.68452,2.79515 4.67758,2.16766 6.38889,0.74159c0,0 0,0 0,0m22.18996,0c0,0 -0.05707,2.45287 -0.05707,2.45287c0,0 -5.13391,4.16418 -5.13391,4.16418c-1.65427,1.14084 -3.5367,2.68105 -6.04662,2.68105c-4.05011,0 -4.62053,-5.47617 -2.50993,-8.4995c1.31201,-1.88243 2.56697,-3.76489 4.10716,-5.41914c0,0 -6.38889,1.31201 -6.38889,1.31201c0,0 -2.85218,2.90921 -2.85218,2.90921c-0.96973,1.02678 -2.28174,1.99655 -3.4226,2.90924c0.05702,-0.85565 -0.05704,-1.76837 0.11407,-2.50992c1.14088,-0.96977 2.22471,-1.82542 3.19444,-2.96629c-2.16765,-0.05704 -1.36904,-2.96625 -0.68452,-4.10712c1.42611,-2.45288 3.30854,-4.90576 6.33186,-5.70436c1.19791,0.05704 1.36903,1.54018 0.74158,2.50992c0,0 7.81496,-1.02678 7.81496,-1.02678c1.65425,0 3.08035,2.79515 2.16765,4.50647c-1.65427,3.19441 -6.04659,4.50641 -6.38887,8.89876c0.57043,3.47969 5.41914,0.34227 6.73114,-0.57042c0,0 2.28175,-1.54018 2.28175,-1.54018m16.54262,0c0,0 -0.05704,2.45287 -0.05704,2.45287c0,0 -5.19096,4.05009 -5.19096,4.05009c-1.76833,1.19791 -3.70782,2.68105 -6.2748,2.79514c-4.62054,0.17114 -5.81844,-6.04662 -4.4494,-10.38193c1.31201,-4.16417 5.30505,-9.75447 10.38193,-9.75447c2.22472,0 2.68106,1.93948 1.31203,3.6508c-2.0536,2.50992 -4.90576,5.1339 -7.1875,7.35863c-1.14088,2.05356 0.39928,4.33531 2.90919,4.10713c3.6508,-0.39932 5.19099,-1.99652 8.55655,-4.27826c0,0 0,0 0,0m-0.17113,-18.8244c1.02679,0 1.88245,0.85567 1.88245,1.88246c-0.17113,2.56696 -1.93948,4.84871 -4.39236,5.01984c-1.42609,0.11406 -2.50993,-1.08382 -2.39584,-2.56697c0.17113,-2.33878 2.39584,-4.16417 4.90575,-4.33533c0,0 0,0 0,0m17.56944,18.8244c0,0.7986 -0.17114,1.65427 -0.05705,2.45287c0,0 -3.76488,2.90924 -3.76488,2.90924c-2.45288,1.54019 -4.90576,3.93599 -8.49948,3.93599c-7.07342,0 -5.41914,-11.0094 -3.19444,-16.14333c3.13741,-7.30159 8.32838,-13.23413 14.1468,-17.96872c1.08382,-0.85565 1.93947,-1.31201 2.50992,-1.31201c2.33879,0.62746 0.7986,4.73459 0.28523,6.61705c-2.16766,7.75792 -8.38542,12.32141 -13.34819,17.51236c-0.51341,2.96626 -0.51341,6.73114 2.90921,6.44594c3.87897,-0.34227 5.59026,-2.11063 9.01288,-4.44939c0,0 0,0 0,0m-1.88246,-19.45187c-3.87894,3.13742 -6.61705,7.4727 -8.84177,12.26437c3.53673,-3.59373 6.73117,-7.24455 8.84177,-12.26437c0,0 0,0 0,0" fill="#228B22" id="svg_2"/><rect opacity="0" fill="#228B22" height="41.58765" width="129.75" y="169.50781" x="13.125" id="svg_3"/></g><g display="null" id="svg_7"><path fill="#DC143C" id="svg_8" d="m101.40424,93.532c-3.09091,0 -5.43729,-0.03202 -7.78047,0.00533c-7.37409,0.12093 -14.74815,0.28639 -22.12385,0.39487c-4.50064,0.06583 -6.20882,-3.06126 -5.72144,-6.84653c0.662,-5.12465 -1.62721,-6.99236 -5.24522,-9.32255c-5.25153,-3.38148 -12.80976,-2.42805 -18.05179,3.08083c-4.86578,5.11578 -9.68712,10.29202 -14.63386,15.31351c-1.05254,1.06728 -2.49718,1.75033 -3.86088,2.30531c-1.95266,0.79689 -3.18299,-0.11208 -3.82436,-2.37823c-2.27494,-8.03651 -1.35733,-16.09974 0.33337,-23.96194c0.67155,-3.12177 0.43817,-5.62096 -1.03188,-7.84798c-3.97677,-6.01583 -5.08327,-12.93174 -5.32617,-20.07531c-0.21591,-6.31999 2.31145,-8.41717 7.46298,-5.67962c5.26268,2.79624 10.0586,6.67396 15.14506,9.90957c3.38618,2.1541 6.85496,4.18724 10.41895,5.93756c2.01458,0.98899 4.39587,2.05628 6.4311,1.72184c2.8512,-0.46782 5.64366,-1.97087 8.26467,-3.46328c3.88628,-2.21099 7.6027,-4.79913 11.38578,-7.23963c0.2413,-0.15652 0.43022,-0.41801 0.9684,-0.95697c-3.52433,-4.40604 -7.01689,-8.76406 -10.49675,-13.13807c-1.10016,-1.3839 -2.26699,-2.72686 -3.22269,-4.23172c-1.7574,-2.77133 -1.1335,-4.6355 1.86693,-5.20292c11.93981,-2.25907 23.97171,-2.53298 36.0163,-1.58311c4.53719,0.35931 9.03465,1.3483 13.55753,1.99401c8.81711,1.25759 16.48174,5.21183 22.87788,12.16684c0.21431,0.23124 0.48102,0.47673 0.56514,0.77021c1.52881,5.39149 6.02629,6.54948 9.84906,8.5666c9.14421,4.82407 16.98819,11.35042 22.33977,21.14079c1.81932,3.3281 3.44493,6.80563 4.94197,10.33118c0.90489,2.13097 0.07306,4.07697 -1.70503,5.11932c-4.52283,2.64684 -8.99495,5.5 -13.73053,7.56516c-9.21245,4.01824 -18.81226,6.25417 -28.75336,6.54768c-1.01127,0.03022 -2.34798,1.22559 -2.91787,2.29463c-2.1035,3.93464 -3.76091,8.17526 -5.94533,12.0459c-1.96852,3.4917 -4.09422,7.01551 -6.71841,9.86864c-3.39098,3.68208 -8.62666,1.5493 -10.62217,-3.50418c-2.65914,-6.71668 -3.26715,-13.47604 -0.71281,-21.64774l-0.00002,0z" fill-rule="evenodd"/></g></g></svg>