<svg width="67" height="79" xmlns="http://www.w3.org/2000/svg"><g><title>Layer 1</title><g display="null" id="svg_4"><path fill="#FF0000" id="svg_5" d="m46.46353,33.53046c0,-1.04139 -0.13005,-2.10175 0.05036,-3.11916c0.10391,-0.58511 0.64008,-1.16465 1.14756,-1.59806c0.10582,-0.09035 0.93589,0.48305 1.44526,0.73071c0.13707,0.06693 0.32069,0.06023 0.6847,0.12103c-0.09497,-0.72457 -0.1804,-1.36324 -0.26075,-2.00245c-0.02995,-0.23985 -0.12431,-0.49755 -0.05992,-0.71732c0.5642,-1.92157 0.5725,-1.9199 2.94411,-1.18641c-0.17152,-0.5271 -0.42332,-0.96887 -0.43544,-1.41621c-0.0204,-0.75023 0.00957,-1.52667 0.22633,-2.24343c0.09882,-0.3263 0.73825,-0.78368 1.05384,-0.74129c0.43925,0.05912 0.85492,0.49698 1.1858,0.84225c0.22186,0.23149 0.27922,0.58345 0.59418,0.86123c0,-0.6264 -0.10392,-1.27009 0.0255,-1.87584c0.17212,-0.80377 0.44308,-1.612 0.84026,-2.34885c0.16193,-0.30064 0.83388,-0.63755 1.15392,-0.56281c0.39271,0.09092 0.75802,0.55612 0.95565,0.93207c0.22823,0.43396 0.26139,0.94713 0.43034,1.6371c0.60373,-1.64547 1.00984,-3.05165 1.6665,-4.36189c0.20528,-0.40943 1.08762,-0.56003 1.66012,-0.82888c0.18678,0.39658 0.51192,0.78759 0.53616,1.19199c0.08096,1.34315 0.02805,2.69188 0.0867,4.03615c0.01339,0.30846 0.26649,0.60855 0.40993,0.91255c0.10584,-0.01451 0.21167,-0.02956 0.31749,-0.04407c0.16322,-0.67214 0.25883,-1.36435 0.50684,-2.01138c0.31239,-0.81605 0.67578,-1.63378 1.17114,-2.37173c0.18105,-0.26885 0.80264,-0.41443 1.22405,-0.41499c0.22441,0 0.63754,0.42504 0.64516,0.66601c0.09309,2.87539 0.35831,5.76864 0.09628,8.6234c-0.19189,2.0878 -1.42996,3.97536 -3.09965,5.56673c-3.31962,3.1621 -6.68386,6.29073 -9.90209,9.53092c-1.12333,1.1312 -2.71524,2.05154 -2.93773,3.74889c-0.02869,0.2192 -0.05673,0.43843 -0.10263,0.79206c1.64672,0.05298 3.21122,0.07975 4.56596,-0.76641c1.85775,-1.16021 3.88637,-1.0492 5.71926,-0.27666c0.87088,0.36702 1.65567,1.48762 1.84055,2.36948c0.30219,1.44189 0.08161,2.96743 0.08161,4.49187c-0.08734,-0.02733 -0.37232,-0.03849 -0.51257,-0.16902c-1.63079,-1.52387 -3.22589,-1.50156 -5.1404,-0.222c-1.50902,1.00849 -3.25585,1.74365 -4.88792,2.61435c-0.5961,0.31794 -1.18007,0.65652 -1.74236,1.01741c-2.59985,1.66779 -5.52929,2.69913 -8.54352,3.65965c-3.74929,1.19478 -7.59996,0.59404 -11.39389,0.89468c-3.13601,0.24822 -6.2956,0.55054 -9.35764,1.16131c-3.55932,0.70896 -7.03576,1.75816 -10.71812,1.89369c-1.57597,0.05802 -3.17936,0.04519 -4.73237,-0.15673c-0.69618,-0.09091 -1.38471,-0.65261 -1.91832,-1.1351c-0.41375,-0.37428 -0.58143,-0.95772 -0.85875,-1.44802c0.95311,-1.38554 2.61833,-1.32139 4.13564,-1.54897c2.04775,-0.30735 4.18346,-0.38154 6.12283,-0.96164c1.84308,-0.55108 3.50449,-1.59136 5.20223,-2.47936c1.10675,-0.57898 2.14401,-1.26172 3.19529,-1.91823c0.38634,-0.24152 0.72487,-0.54161 1.19218,-0.89636c-1.78062,-1.0849 -3.45477,-1.9874 -4.97463,-3.05667c-2.45002,-1.72358 -4.49903,-3.67751 -5.76007,-6.34262c-0.85429,-1.80388 -0.7899,-3.53023 -0.76057,-5.41779c-2.04328,-0.21531 -4.02726,-0.49699 -5.17928,-2.29083c0.74272,-0.34304 1.28143,-0.59237 1.546,-0.71453c-0.48388,-0.78871 -0.93589,-1.5261 -1.3879,-2.2635c0.74782,-0.21922 1.49565,-0.43787 2.25047,-0.65931c-0.94673,-0.76361 -1.98271,-1.59861 -3.28263,-2.64615c0.96649,-0.35252 1.5154,-0.55276 2.11086,-0.76975c-0.87596,-0.82217 -2.43663,-1.44131 -2.12106,-3.09851c0.35893,-0.07027 0.71595,-0.14055 1.14245,-0.22478c-0.45264,-0.96051 -2.38563,-1.97457 0.04016,-2.99979c-0.12623,-0.29897 -0.19508,-0.78648 -0.49727,-1.10442c-0.57951,-0.6091 -0.72168,-1.279 -0.13771,-1.78492c0.2327,-0.20192 1.06786,0.1283 1.72515,0.23148c-0.38252,-0.9382 -0.79755,-1.95616 -1.21322,-2.97523c0.16321,-0.09148 0.32706,-0.18296 0.48963,-0.27499c0.6694,0.61747 1.3388,1.23494 2.19118,2.02142c-0.05164,-0.8378 -0.08925,-1.45972 -0.12687,-2.0811c0.11795,-0.04463 0.23525,-0.08869 0.35319,-0.13276c1.63845,1.0849 2.27024,2.82687 3.41906,4.37082c0.57123,-1.10442 -0.82432,-2.51227 0.85238,-3.49676c0.28179,0.65596 0.66112,1.18696 0.72487,1.74587c0.2939,2.59148 1.57343,4.8773 3.16915,6.9506c1.05958,1.37606 2.68846,2.45482 4.20004,3.51685c2.44811,1.71967 5.06708,3.25414 7.5069,4.98273c2.08982,1.48037 4.11206,3.04998 6.00933,4.71555c1.47206,1.29239 2.70441,2.7934 4.18793,4.35409c0.60437,-1.01965 1.16668,-1.93832 1.69837,-2.87039c0.92633,-1.62315 1.79337,-3.27365 2.76306,-4.87674c0.71849,-1.18473 1.16284,-1.35208 2.55138,-1.28012l-0.00001,-0.00001z" fill-rule="evenodd"/></g></g></svg>