<svg width="225" height="175" xmlns="http://www.w3.org/2000/svg"><g><title>Layer 1</title><g id="svg_4" display="null" stroke="null"><path fill="#2BA9E1" d="m46.54436,116.87172l-11.75745,-8.0231l16.76886,-4.90852c14.00169,-24.60676 42.57885,-11.7744 52.12959,11.62793c11.52383,28.20796 44.52773,38.49709 44.52773,38.49709c-23.48948,27.93802 -44.67541,32.98333 -58.80542,31.86968c-14.13727,-1.12212 -52.29421,-12.23438 -44.351,-61.83647c0.4152,-2.57712 0.91634,-4.97873 1.48769,-7.2266l0,-0.00001z" id="svg_5" stroke-width="4" stroke="#e5c82a"/><path fill="#2B3277" d="m51.55577,103.9401c-2.00093,3.51646 -3.70409,7.80643 -5.01141,12.93162l-11.75745,-8.0231l16.76886,-4.90852zm18.68748,31.14702c0,0 39.21975,-8.08726 43.71792,13.7366c4.49696,21.81901 -31.71474,34.48312 -43.71792,-13.7366zm-7.54617,-31.75347c-0.26268,2.33987 0.94297,4.40133 2.69817,4.6059c1.76126,0.19731 3.4051,-1.54337 3.66535,-3.87961c0.26873,-2.33987 -0.93692,-4.40133 -2.69817,-4.6059c-1.76489,-0.19005 -3.39783,1.53974 -3.66535,3.87961z" id="svg_6" stroke-width="4" stroke="#e5c82a"/></g><g stroke="null" shapeVal="0" shapeId="0" lineHeight="1" font-style="normal" font-weight="normal" text-anchor="middle" fill="#0000FF" font-family="Brush-Script" font-size="120" text="5" type="numberText" id="numberText"><path d="m150.71999,3.92c-4.08,6.96 -5.16,11.16 -10.2,14.52c-7.2,2.28 -19.2,0.36 -28.56,0.6c-4.08,3.84 -7.2,7.44 -9.96,12.48c6.36,-1.56 9.48,-2.64 16.2,-2.64c11.16,-0.12 19.2,5.88 19.2,16.56c-0.24,22.2 -26.52,36.84 -51.48,36c-9.12,-0.24 -11.64,-0.96 -11.64,-9.72c0,-8.64 9.24,-9.96 15.36,-12.84c3,-1.44 6.72,-0.24 3.6,2.16c0,0 -8.28,6.36 -8.28,6.36c17.76,-2.76 35.28,-6.6 43.68,-19.32c3,-4.8 -3,-7.08 -8.04,-6.96c-8.64,0.12 -15.36,3.12 -23.4,3.6c-7.08,-1.32 -9.36,-12.72 -4.8,-18.96c3.96,-5.52 12.48,-16.2 19.68,-20.16c5.28,-2.88 15.24,-1.56 22.92,-1.56c0,0 15.72,-0.12 15.72,-0.12" stroke-width="4" fill="#0000FF" id="svg_7"/></g></g></svg>