<svg xmlns="http://www.w3.org/2000/svg" width="189" height="237" x="0" y="0" id="svgcontent" overflow="hidden" viewBox="0 0 189 237"><g style="pointer-events:all" mask="url(#canvasMaskImageDef)"><title style="pointer-events:inherit">Layer 1</title><g id="svg_1" type="text" text="Yahoo" font-size="19.23076971843965" font-family="Kroftsmann" font-id="1" fill="b23838" text-anchor="start" font-weight="normal" font-style="normal" lineHeight="1" shapeId="2" shapeVal="5" fill-opacity="1" display="null" elemBBoxWidth="142.42991638183594" xscale="33.74411280394271" yscale="NaN" stroke-opacity="1" elemBBoxHeight="150.76199340820312" stroke-width="0" stroke-dasharray="none" stroke="ull" transform=""><path id="svg_6" fill="#b23838" stroke-width="0" d="M 41.2698 165.529 C 41.2698 165.529 31.2841 183.646 31.2841 183.646 C 31.2841 183.646 31.2841 119.819 31.2841 119.819 C 31.2841 119.819 22.875 46.2486 22.875 46.2486 C 22.875 46.2486 33.7367 47.0427 33.7367 47.0427 C 33.7367 47.0427 36.3645 74.6907 36.3645 74.6907 C 36.3645 74.6907 38.8172 47.3679 38.8172 47.3679 C 38.8172 47.3679 49.6789 47.9643 49.6789 47.9643 C 49.6789 47.9643 41.2698 110.455 41.2698 110.455 C 41.2698 110.455 41.2698 165.529 41.2698 165.529 C 41.2698 165.529 41.2698 165.529 41.2698 165.529 M 74.0301 48.8123 C 74.0301 48.8123 57.212 48.2989 57.212 48.2989 C 57.212 48.2989 51.7811 65.4683 51.7811 65.4683 C 51.7811 65.4683 51.7811 149.944 51.7811 149.944 C 51.7811 149.944 61.5917 138.622 61.5917 138.622 C 61.5917 138.622 61.5917 111.95 61.5917 111.95 C 61.5917 111.95 68.7745 107.569 68.7745 107.569 C 68.7745 107.569 68.7745 132.306 68.7745 132.306 C 68.7745 132.306 78.585 126.377 78.585 126.377 C 78.585 126.377 78.585 62.1318 78.585 62.1318 C 78.585 62.1318 74.0301 48.8123 74.0301 48.8123 M 68.7745 89.7998 C 68.7745 89.7998 61.5917 92.7916 61.5917 92.7916 C 61.5917 92.7916 61.5917 67.6223 61.5917 67.6223 C 61.5917 67.6223 68.7745 66.4557 68.7745 66.4557 C 68.7745 66.4557 68.7745 89.7998 68.7745 89.7998 C 68.7745 89.7998 68.7745 89.7998 68.7745 89.7998 M 107.491 48.8736 C 107.491 48.8736 96.6295 48.9937 96.6295 48.9937 C 96.6295 48.9937 96.6295 76.0382 96.6295 76.0382 C 96.6295 76.0382 90.4979 75.9574 90.4979 75.9574 C 90.4979 75.9574 90.4979 49.0021 90.4979 49.0021 C 90.4979 49.0021 80.6873 48.9263 80.6873 48.9263 C 80.6873 48.9263 80.6873 125.511 80.6873 125.511 C 80.6873 125.511 90.4979 123.362 90.4979 123.362 C 90.4979 123.362 90.4979 91.7588 90.4979 91.7588 C 90.4979 91.7588 96.6295 91.8919 96.6295 91.8919 C 96.6295 91.8919 96.6295 123.599 96.6295 123.599 C 96.6295 123.599 107.491 127.005 107.491 127.005 C 107.491 127.005 107.491 48.8736 107.491 48.8736 C 107.491 48.8736 107.491 48.8736 107.491 48.8736 M 109.593 64.0285 C 109.593 64.0285 115.024 48.7112 115.024 48.7112 C 115.024 48.7112 130.968 48.1538 130.968 48.1538 C 130.968 48.1538 136.399 66.1364 136.399 66.1364 C 136.399 66.1364 136.399 134.199 136.399 134.199 C 136.399 134.199 130.968 147.405 130.968 147.405 C 130.968 147.405 115.024 131.608 115.024 131.608 C 115.024 131.608 109.593 114.563 109.593 114.563 C 109.593 114.563 109.593 64.0285 109.593 64.0285 C 109.593 64.0285 109.593 64.0285 109.593 64.0285 M 125.537 119.465 C 125.537 119.465 125.537 70.0116 125.537 70.0116 C 125.537 70.0116 119.405 68.78 119.405 68.78 C 119.405 68.78 119.405 114.937 119.405 114.937 C 119.405 114.937 125.537 119.465 125.537 119.465 C 125.537 119.465 125.537 119.465 125.537 119.465 M 138.501 68.8615 C 138.501 68.8615 143.932 47.4868 143.932 47.4868 C 143.932 47.4868 159.874 46.4036 159.874 46.4036 C 159.874 46.4036 165.305 73.8782 165.305 73.8782 C 165.305 73.8782 165.305 178.032 165.305 178.032 C 165.305 178.032 159.874 197.011 159.874 197.011 C 159.874 197.011 143.932 166.31 143.932 166.31 C 143.932 166.31 138.501 138.947 138.501 138.947 C 138.501 138.947 138.501 68.8615 138.501 68.8615 C 138.501 68.8615 138.501 68.8615 138.501 68.8615 M 154.443 153.237 C 154.443 153.237 154.443 79.1969 154.443 79.1969 C 154.443 79.1969 148.312 76.7826 148.312 76.7826 C 148.312 76.7826 148.312 144.36 148.312 144.36 C 148.312 144.36 154.443 153.237 154.443 153.237 C 154.443 153.237 154.443 153.237 154.443 153.237" stroke="#ull" transform=""/><rect id="svg_7" x="22.874988555908203" y="46.24860763549805" width="142.4298792884956" height="150.7619946130253" fill="#000000" opacity="0" stroke="null" transform=""/></g></g><defs><mask id="canvasMaskImageDef" maskUnits="objectBoundingBox" x="0" y="0"><image xmlns:xlink="http://www.w3.org/1999/xlink" id="canvasMaskImage" preserveAspectRatio="none" style="pointer-events:none" x="-105" y="-85" width="400" height="344.82758620689657" xlink:href="http://192.168.0.222/work/jan_langius/print_commerce/source/designnbuy/uploads/productimage/5826b9c0eeec0.png"/></mask></defs></svg>