<svg xmlns="http://www.w3.org/2000/svg" width="187" height="239" x="0" y="0" id="svgcontent" viewBox="0 0 187 239" overflow="hidden"><defs><clipPath class="clippath" id="svg_14"><path d="M30.74999,31.60757C34.02492,53.29926 34.02492,75.16257 30.74999,96.85359C30.74999,101.34163 36.32603,105.02398 43.31762,105.02398C76.68437,102.89535 110.31566,102.89535 143.68295,105.02398C150.58565,105.02398 156.24998,101.39941 156.24998,96.85359C152.97455,75.16257 152.97455,53.29926 156.24998,31.60757C156.24998,27.11949 150.67451,23.4375 143.68295,23.4375L143.68295,23.49493C110.31566,25.62358 76.68437,25.62358 43.31762,23.49493C36.41436,23.49493 30.74999,27.11984 30.74999,31.665" id="svg_1" opacity="1" stroke="#7ed78e" shapeType="roundedSquare" fill="#000" fill-opacity="0" stroke-width="3" stroke-dasharray="none"/></clipPath><filter id="svg_17" type="css_hue_rotate" color-interpolation-filters="sRGB"><feColorMatrix type="hueRotate" values="180"/></filter><clipPath class="clippath" id="svg_7"><path d="M75.65005,90.50728C74.79224,91.23597 73.4726,91.57593 72.21843,91.43019C65.42183,90.65302 58.82322,93.71323 56.71161,98.57053C56.05179,100.0764 55.91967,101.67923 56.24939,103.2336C56.44736,104.20528 55.98553,105.12818 54.99561,105.75963C45.82356,111.49135 44.0421,121.4486 50.97042,128.73442L50.90494,128.73442C52.02662,129.94853 53.41251,131.06595 54.93014,131.98917L54.996,131.98917C55.98594,132.6203 56.44777,133.59201 56.24979,134.5152C55.19398,139.56645 59.28505,144.424 65.88366,145.92958C67.92939,146.41528 70.10722,146.51224 72.21883,146.26984L72.21883,146.31886C73.53847,146.17284 74.79264,146.51311 75.65042,147.2421C83.437,153.99338 96.96433,155.30476 106.86206,150.20477C108.51098,149.37912 110.02949,148.35864 111.28321,147.2421L111.28321,147.19331C112.14108,146.4649 113.46111,146.1241 114.71486,146.26984C121.57735,147.04727 128.17638,144.03581 130.22214,139.17827C130.8815,137.67207 131.01358,136.06956 130.68469,134.5152L130.75012,134.5152C130.55219,133.54355 131.0148,132.62057 132.00432,131.98917C141.17636,126.25742 142.95819,116.29986 136.02914,109.01408C134.90787,107.79997 133.52161,106.68253 132.00432,105.75963C131.0148,105.12818 130.55219,104.15649 130.75012,103.2336C131.80594,98.18236 127.71531,93.32451 121.11634,91.81863L121.05001,91.81863C119.00471,91.33322 116.82686,91.23597 114.71486,91.47867L114.71486,91.43019C113.39481,91.57593 112.14108,91.23597 111.28321,90.50728C103.4963,83.75567 89.96935,82.44402 80.0712,87.5443C78.42146,88.36996 76.90382,89.38985 75.65005,90.50728z" id="svg_2" opacity="1" stroke="#000000" shapeType="cloudMirror" fill="#000" fill-opacity="0" stroke-width="0" stroke-dasharray="none"/></clipPath><clipPath class="clippath" id="svg_11"><path d="M75.65005,90.50728C74.79224,91.23597 73.4726,91.57593 72.21843,91.43019C65.42183,90.65302 58.82322,93.71323 56.71161,98.57053C56.05179,100.0764 55.91967,101.67923 56.24939,103.2336C56.44736,104.20528 55.98553,105.12818 54.99561,105.75963C45.82356,111.49135 44.0421,121.4486 50.97042,128.73442L50.90494,128.73442C52.02662,129.94853 53.41251,131.06595 54.93014,131.98917L54.996,131.98917C55.98594,132.6203 56.44777,133.59201 56.24979,134.5152C55.19398,139.56645 59.28505,144.424 65.88366,145.92958C67.92939,146.41528 70.10722,146.51224 72.21883,146.26984L72.21883,146.31886C73.53847,146.17284 74.79264,146.51311 75.65042,147.2421C83.437,153.99338 96.96433,155.30476 106.86206,150.20477C108.51098,149.37912 110.02949,148.35864 111.28321,147.2421L111.28321,147.19331C112.14108,146.4649 113.46111,146.1241 114.71486,146.26984C121.57735,147.04727 128.17638,144.03581 130.22214,139.17827C130.8815,137.67207 131.01358,136.06956 130.68469,134.5152L130.75012,134.5152C130.55219,133.54355 131.0148,132.62057 132.00432,131.98917C141.17636,126.25742 142.95819,116.29986 136.02914,109.01408C134.90787,107.79997 133.52161,106.68253 132.00432,105.75963C131.0148,105.12818 130.55219,104.15649 130.75012,103.2336C131.80594,98.18236 127.71531,93.32451 121.11634,91.81863L121.05001,91.81863C119.00471,91.33322 116.82686,91.23597 114.71486,91.47867L114.71486,91.43019C113.39481,91.57593 112.14108,91.23597 111.28321,90.50728C103.4963,83.75567 89.96935,82.44402 80.0712,87.5443C78.42146,88.36996 76.90382,89.38985 75.65005,90.50728z" id="svg_3" opacity="1" stroke="#000000" shapeType="cloudMirror" fill="#000" fill-opacity="0" stroke-width="4" stroke-dasharray="none"/></clipPath><filter id="svg_15" type="gamma_correct2" color-interpolation-filters="sRGB"><feComponentTransfer><feFuncG type="gamma" amplitude="1" exponent="0.5"/></feComponentTransfer></filter><clipPath class="clippath" id="svg_18"><path d="M75.65005,90.50728C74.79224,91.23597 73.4726,91.57593 72.21843,91.43019C65.42183,90.65302 58.82322,93.71323 56.71161,98.57053C56.05179,100.0764 55.91967,101.67923 56.24939,103.2336C56.44736,104.20528 55.98553,105.12818 54.99561,105.75963C45.82356,111.49135 44.0421,121.4486 50.97042,128.73442L50.90494,128.73442C52.02662,129.94853 53.41251,131.06595 54.93014,131.98917L54.996,131.98917C55.98594,132.6203 56.44777,133.59201 56.24979,134.5152C55.19398,139.56645 59.28505,144.424 65.88366,145.92958C67.92939,146.41528 70.10722,146.51224 72.21883,146.26984L72.21883,146.31886C73.53847,146.17284 74.79264,146.51311 75.65042,147.2421C83.437,153.99338 96.96433,155.30476 106.86206,150.20477C108.51098,149.37912 110.02949,148.35864 111.28321,147.2421L111.28321,147.19331C112.14108,146.4649 113.46111,146.1241 114.71486,146.26984C121.57735,147.04727 128.17638,144.03581 130.22214,139.17827C130.8815,137.67207 131.01358,136.06956 130.68469,134.5152L130.75012,134.5152C130.55219,133.54355 131.0148,132.62057 132.00432,131.98917C141.17636,126.25742 142.95819,116.29986 136.02914,109.01408C134.90787,107.79997 133.52161,106.68253 132.00432,105.75963C131.0148,105.12818 130.55219,104.15649 130.75012,103.2336C131.80594,98.18236 127.71531,93.32451 121.11634,91.81863L121.05001,91.81863C119.00471,91.33322 116.82686,91.23597 114.71486,91.47867L114.71486,91.43019C113.39481,91.57593 112.14108,91.23597 111.28321,90.50728C103.4963,83.75567 89.96935,82.44402 80.0712,87.5443C78.42146,88.36996 76.90382,89.38985 75.65005,90.50728z" id="svg_4" opacity="1" stroke="#000000" shapeType="cloudMirror" fill="#000" fill-opacity="0" stroke-width="4" stroke-dasharray="none"/></clipPath><filter id="svg_21" type="oneColor" color-interpolation-filters="sRGB"><feComponentTransfer><feFuncR slope="0" type="linear"/><feFuncG slope="0" type="linear"/><feFuncB slope="0" type="linear"/></feComponentTransfer><feComponentTransfer><feFuncR type="table" tableValues="0.9529411764705882 0"/><feFuncG type="table" tableValues="0.18823529411764706 0"/><feFuncB type="table" tableValues="0.18823529411764706 0"/></feComponentTransfer></filter><clipPath class="clippath" id="svg_24"><path d="M75.65005,90.50728C74.79224,91.23597 73.4726,91.57593 72.21843,91.43019C65.42183,90.65302 58.82322,93.71323 56.71161,98.57053C56.05179,100.0764 55.91967,101.67923 56.24939,103.2336C56.44736,104.20528 55.98553,105.12818 54.99561,105.75963C45.82356,111.49135 44.0421,121.4486 50.97042,128.73442L50.90494,128.73442C52.02662,129.94853 53.41251,131.06595 54.93014,131.98917L54.996,131.98917C55.98594,132.6203 56.44777,133.59201 56.24979,134.5152C55.19398,139.56645 59.28505,144.424 65.88366,145.92958C67.92939,146.41528 70.10722,146.51224 72.21883,146.26984L72.21883,146.31886C73.53847,146.17284 74.79264,146.51311 75.65042,147.2421C83.437,153.99338 96.96433,155.30476 106.86206,150.20477C108.51098,149.37912 110.02949,148.35864 111.28321,147.2421L111.28321,147.19331C112.14108,146.4649 113.46111,146.1241 114.71486,146.26984C121.57735,147.04727 128.17638,144.03581 130.22214,139.17827C130.8815,137.67207 131.01358,136.06956 130.68469,134.5152L130.75012,134.5152C130.55219,133.54355 131.0148,132.62057 132.00432,131.98917C141.17636,126.25742 142.95819,116.29986 136.02914,109.01408C134.90787,107.79997 133.52161,106.68253 132.00432,105.75963C131.0148,105.12818 130.55219,104.15649 130.75012,103.2336C131.80594,98.18236 127.71531,93.32451 121.11634,91.81863L121.05001,91.81863C119.00471,91.33322 116.82686,91.23597 114.71486,91.47867L114.71486,91.43019C113.39481,91.57593 112.14108,91.23597 111.28321,90.50728C103.4963,83.75567 89.96935,82.44402 80.0712,87.5443C78.42146,88.36996 76.90382,89.38985 75.65005,90.50728z" id="svg_5" opacity="1" stroke="#000000" shapeType="cloudMirror" fill="#000" fill-opacity="0" stroke-width="4" stroke-dasharray="none"/></clipPath><filter id="svg_27" type="css_invert" color-interpolation-filters="sRGB"><feComponentTransfer><feFuncR type="table" tableValues="1 0"/><feFuncG type="table" tableValues="1 0"/><feFuncB type="table" tableValues="1 0"/></feComponentTransfer></filter><clipPath class="clippath" id="svg_30"><path d="M60.65005,54.50728C59.79224,55.23597 58.4726,55.57593 57.21843,55.43019C50.42183,54.65302 43.82322,57.71323 41.71161,62.57053C41.05179,64.0764 40.91967,65.67923 41.24939,67.2336C41.44736,68.20528 40.98553,69.12818 39.99561,69.75963C30.82356,75.49135 29.0421,85.4486 35.97042,92.73442L35.90494,92.73442C37.02662,93.94853 38.41251,95.06595 39.93014,95.98917L39.996,95.98917C40.98594,96.6203 41.44777,97.59201 41.24979,98.5152C40.19398,103.56645 44.28505,108.424 50.88366,109.92958C52.92939,110.41528 55.10722,110.51224 57.21883,110.26984L57.21883,110.31886C58.53847,110.17284 59.79264,110.51311 60.65042,111.2421C68.437,117.99338 81.96433,119.30476 91.86206,114.20477C93.51098,113.37912 95.02949,112.35864 96.28321,111.2421L96.28321,111.19331C97.14108,110.4649 98.46111,110.1241 99.71486,110.26984C106.57735,111.04727 113.17638,108.03581 115.22214,103.17827C115.8815,101.67207 116.01358,100.06956 115.68469,98.5152L115.75012,98.5152C115.55219,97.54355 116.0148,96.62057 117.00432,95.98917C126.17636,90.25742 127.95819,80.29986 121.02914,73.01408C119.90787,71.79997 118.52161,70.68253 117.00432,69.75963C116.0148,69.12818 115.55219,68.15649 115.75012,67.2336C116.80594,62.18236 112.71531,57.32451 106.11634,55.81863L106.05001,55.81863C104.00471,55.33322 101.82686,55.23597 99.71486,55.47867L99.71486,55.43019C98.39481,55.57593 97.14108,55.23597 96.28321,54.50728C88.4963,47.75567 74.96935,46.44402 65.0712,51.5443C63.42146,52.36996 61.90382,53.38985 60.65005,54.50728z" id="svg_8" opacity="1" stroke="#000000" shapeType="cloudMirror" fill="#000" fill-opacity="0" stroke-width="4" stroke-dasharray="none"/></clipPath><filter id="svg_33" type="brightness_threshold" color-interpolation-filters="sRGB"><feComponentTransfer><feFuncR type="linear" slope="1.5" intercept="-0.3"/><feFuncG type="linear" slope="1.5" intercept="-0.3"/><feFuncB type="linear" slope="1.5" intercept="-0.3"/></feComponentTransfer></filter><clipPath class="clippath" id="svg_37"><path d="M75.65005,64.50728C74.79224,65.23597 73.4726,65.57593 72.21842,65.43019C65.42182,64.65302 58.82322,67.71323 56.71161,72.57053C56.05178,74.0764 55.91967,75.67924 56.24939,77.2336C56.44736,78.20528 55.98552,79.12819 54.99561,79.75964C45.82356,85.49135 44.04209,95.44861 50.97041,102.73443L50.90494,102.73443C52.02661,103.94854 53.41251,105.06596 54.93014,105.98917L54.996,105.98917C55.98594,106.6203 56.44777,107.59201 56.24979,108.5152C55.19397,113.56645 59.28505,118.42399 65.88365,119.92958C67.92938,120.41528 70.10722,120.51223 72.21883,120.26984L72.21883,120.31886C73.53846,120.17283 74.79264,120.5131 75.65041,121.2421C83.43699,127.99339 96.96433,129.30476 106.86205,124.20477C108.51098,123.3791 110.02949,122.35864 111.2832,121.2421L111.2832,121.19331C112.14108,120.4649 113.46111,120.1241 114.71485,120.26984C121.57735,121.04727 128.17639,118.03581 130.22214,113.17827C130.8815,111.67208 131.0136,110.06956 130.68471,108.5152L130.75014,108.5152C130.55219,107.54355 131.01482,106.62057 132.00432,105.98917C141.17636,100.25742 142.95819,90.29986 136.02914,83.01408C134.90788,81.79998 133.52161,80.68253 132.00432,79.75964C131.01482,79.12819 130.55219,78.1565 130.75014,77.2336C131.80595,72.18236 127.71531,67.32451 121.11634,65.81863L121.05001,65.81863C119.00469,65.33322 116.82687,65.23597 114.71485,65.47867L114.71485,65.43019C113.3948,65.57593 112.14108,65.23597 111.2832,64.50728C103.49629,57.75567 89.96935,56.44402 80.0712,61.5443C78.42146,62.36996 76.90382,63.38985 75.65005,64.50728z" id="svg_9" opacity="1" stroke="#000000" shapeType="cloudMirror" fill="#000" fill-opacity="0" stroke-width="4" stroke-dasharray="none"/></clipPath><filter id="svg_40" type="css_grayscale" color-interpolation-filters="sRGB"><feColorMatrix type="saturate" values="0"/></filter></defs><g mask="" style="pointer-events:all"><title style="pointer-events:inherit">Layer 1</title><g type="photobox" pathStr="M139.6289703398943,32.59543991088867 C135.8703796416521,35.788299560546875 130.08824463188648,37.277854919433594 124.59292145073414,36.63928985595703 C94.81280060112476,33.2340087890625 65.90022583305836,46.64272689819336 56.64796753227711,67.92552185058594 C53.75689621269703,74.52368927001953 53.17799682915211,81.54669189453125 54.62267990410328,88.35731506347656 C55.490149691700935,92.6148681640625 53.466555789113045,96.6586685180664 49.12912292778492,99.4254379272461 C8.940715029835701,124.53961944580078 1.1350041776895523,168.16848754882812 31.49224777519703,200.09217834472656 L31.205365374684334,200.09217834472656 C36.12010879814625,205.41195678710938 42.19258041679859,210.30804443359375 48.84225006401539,214.35317993164062 L49.13081283867359,214.35317993164062 C53.46834106743336,217.11856079101562 55.49192352592945,221.37625122070312 54.62445755302906,225.42129516601562 C49.99828262627125,247.553955078125 67.92381592094898,268.83782958984375 96.8363678008318,275.43475341796875 C105.79997558891773,277.56292724609375 115.34243316948414,277.9877014160156 124.59469147026539,276.9256286621094 L124.59469147026539,277.14044189453125 C130.37683410942554,276.5005798339844 135.87214966118336,277.99151611328125 139.63058777153492,281.1856994628906 C173.74837036430836,310.7672424316406 233.01999206840992,316.5132141113281 276.38801880180836,294.1669616699219 C283.61296387016773,290.54925537109375 290.2664978057146,286.0779724121094 295.75981445610523,281.1856994628906 L295.75981445610523,280.9719543457031 C299.5186645537615,277.7803039550781 305.30256958305836,276.28704833984375 310.79597778618336,276.9256286621094 C340.86479492485523,280.3320617675781 369.77922363579273,267.1369934082031 378.742907717824,245.85308837890625 C381.63203735649586,239.25355529785156 382.2108032256365,232.23194885253906 380.76973266899586,225.42127990722656 L381.0564147979021,225.42127990722656 C380.1890747100115,221.16387939453125 382.21614380180836,217.11978149414062 386.5517761260271,214.35317993164062 C426.74016113579273,189.2388916015625 434.5474731475115,145.60865783691406 404.186999514699,113.6851577758789 C399.2740661650896,108.36544799804688 393.1999694854021,103.46922302246094 386.5517761260271,99.4254379272461 C382.21614380180836,96.6586685180664 380.1890747100115,92.40111541748047 381.0564147979021,88.35731506347656 C385.682604983449,66.22472381591797 367.75899048149586,44.939476013183594 338.8448364287615,38.34130859375 L338.5542175322771,38.34130859375 C329.59245605766773,36.21442413330078 320.04997558891773,35.788299560546875 310.79597778618336,36.85172653198242 L310.79597778618336,36.63928985595703 C305.01201172173023,37.277854919433594 299.5186645537615,35.788299560546875 295.75981445610523,32.59543991088867 C261.64055176079273,3.012484550476074 202.37065429985523,-2.734661102294922 159.00076599419117,19.612825393676758 C151.77220459282398,23.230548858642578 145.12253113090992,27.699283599853516 139.6289703398943,32.59543991088867 z" lockTransform="null" lockEdit="null" id="svg_6" display="null"><g clip-path="url(#svg_37)" id="svg_10"><image xmlns:xlink="http://www.w3.org/1999/xlink" x="43.783053398132324" y="57.0681414604187" width="120.57235555828743" height="90.42926666871557" preserveAspectRatio="none" id="svg_39" xlink:href="http://192.168.0.222/work/jan_langius/print_commerce/source/designnbuy/assets/images/uploadedImage/o_1b1c0fo1rlm41n3q10qj1ocq1nhqk.jpg" origWidth="1024" origHeight="768" colors="f33030,000000" filter="url(#svg_40)" isAdminUploaded="false"/></g><path d="M75.65005,64.50728C74.79224,65.23597 73.4726,65.57593 72.21842,65.43019C65.42182,64.65302 58.82322,67.71323 56.71161,72.57053C56.05178,74.0764 55.91967,75.67924 56.24939,77.2336C56.44736,78.20528 55.98552,79.12819 54.99561,79.75964C45.82356,85.49135 44.04209,95.44861 50.97041,102.73443L50.90494,102.73443C52.02661,103.94854 53.41251,105.06596 54.93014,105.98917L54.996,105.98917C55.98594,106.6203 56.44777,107.59201 56.24979,108.5152C55.19397,113.56645 59.28505,118.42399 65.88365,119.92958C67.92938,120.41528 70.10722,120.51223 72.21883,120.26984L72.21883,120.31886C73.53846,120.17283 74.79264,120.5131 75.65041,121.2421C83.43699,127.99339 96.96433,129.30476 106.86205,124.20477C108.51098,123.3791 110.02949,122.35864 111.2832,121.2421L111.2832,121.19331C112.14108,120.4649 113.46111,120.1241 114.71485,120.26984C121.57735,121.04727 128.17639,118.03581 130.22214,113.17827C130.8815,111.67208 131.0136,110.06956 130.68471,108.5152L130.75014,108.5152C130.55219,107.54355 131.01482,106.62057 132.00432,105.98917C141.17636,100.25742 142.95819,90.29986 136.02914,83.01408C134.90788,81.79998 133.52161,80.68253 132.00432,79.75964C131.01482,79.12819 130.55219,78.1565 130.75014,77.2336C131.80595,72.18236 127.71531,67.32451 121.11634,65.81863L121.05001,65.81863C119.00469,65.33322 116.82687,65.23597 114.71485,65.47867L114.71485,65.43019C113.3948,65.57593 112.14108,65.23597 111.2832,64.50728C103.49629,57.75567 89.96935,56.44402 80.0712,61.5443C78.42146,62.36996 76.90382,63.38985 75.65005,64.50728z" id="svg_38" opacity="1" stroke="#000000" shapeType="cloudMirror" fill="#000" fill-opacity="0" stroke-width="4" stroke-dasharray="none"/></g></g></svg>