<svg xmlns="http://www.w3.org/2000/svg" width="189" height="237" x="0" y="0" id="svgcontent" viewBox="0 0 189 237" overflow="hidden"><defs><mask id="canvasMaskImageDef" maskUnits="objectBoundingBox" x="0" y="0"><image xmlns:xlink="http://www.w3.org/1999/xlink" id="canvasMaskImage" preserveAspectRatio="none" x="-105" y="-85" width="400" height="344.82758620689657" xlink:href="http://192.168.0.222/work/jan_langius/print_commerce/source/designnbuy/uploads/productimage/5826b9c0eeec0.png"/></mask></defs><g mask="url(#canvasMaskImageDef)" style="pointer-events:all"><title style="pointer-events:inherit">Layer 1</title><g id="svg_4" display="null"><path fill-rule="evenodd" d="M86.28478240966797,53.61880111694336 C85.68418884277344,55.04330062866211 84.97868347167969,56.435081481933594 84.505126953125,57.90191650390625 C83.60230255126953,60.69896697998047 82.87177276611328,63.55084991455078 81.99781036376953,66.35749816894531 C80.01024627685547,72.74463653564453 77.60399627685547,78.97010040283203 73.69721984863281,84.44864654541016 C71.70771789550781,87.23990631103516 68.98384857177734,89.30445098876953 65.55638885498047,90.18997192382812 C63.43983840942383,90.73664855957031 61.685211181640625,89.57491302490234 60.53308868408203,88.2177963256836 C58.955570220947266,86.3582534790039 57.691810607910156,84.12622833251953 56.7341194152832,81.8681869506836 C53.95922088623047,75.3222427368164 52.47119903564453,68.4403305053711 51.772430419921875,61.36018371582031 C51.2594108581543,56.17039108276367 52.52027893066406,53.518699645996094 57.03826141357422,50.85258102416992 C59.34440994262695,49.49161148071289 61.55815887451172,47.9727783203125 63.78057098388672,46.47610092163086 C64.152099609375,46.22584915161133 64.35423278808594,45.72438049316406 64.80082702636719,45.112239837646484 C61.75931930541992,44.8484992980957 58.89204025268555,44.74263000488281 56.075748443603516,44.305660247802734 C54.09206008911133,43.998619079589844 51.856170654296875,43.68387985229492 50.322898864746094,42.56352996826172 C48.78192901611328,41.43836975097656 47.54127883911133,39.451778411865234 46.93682861328125,37.59415054321289 C45.880001068115234,34.345699310302734 45.094600677490234,30.93653106689453 44.78852844238281,27.54084014892578 C44.491119384765625,24.241390228271484 42.997310638427734,21.511730194091797 41.650779724121094,18.699310302734375 C39.86919021606445,14.981159210205078 41.24843978881836,8.220560073852539 44.84627151489258,6.468819618225098 C46.46615982055664,5.679570198059082 48.94075012207031,5.776780128479004 50.727149963378906,6.372570037841797 C55.0035400390625,7.798020362854004 59.272220611572266,9.441970825195312 63.23387145996094,11.57489013671875 C69.21003723144531,14.794450759887695 74.98023223876953,18.38842010498047 78.5828628540039,24.55323028564453 C81.21434020996094,29.05677032470703 84.10568237304688,33.4091911315918 86.80838775634766,37.7134895324707 C87.2857894897461,36.939640045166016 87.2857894897461,36.939640045166016 86.4079818725586,31.027969360351562 C87.04324340820312,32.147361755371094 87.43785858154297,32.9327507019043 87.91911315917969,33.65945053100586 C88.2646484375,34.18207931518555 88.7266616821289,34.627708435058594 89.13667297363281,35.108001708984375 C89.57749938964844,34.66719055175781 90.03468322753906,34.24079895019531 90.453369140625,33.77880096435547 C90.65646362304688,33.55550003051758 90.788330078125,33.26673889160156 90.90574645996094,33.080020904541016 C90.90574645996094,34.99443054199219 90.90574645996094,36.89728927612305 90.90574645996094,38.8001594543457 C91.05108642578125,38.813621520996094 91.19547271728516,38.827110290527344 91.33984375,38.84056854248047 C92.16854095458984,37.28710174560547 93.03288269042969,35.75094985961914 93.82019805908203,34.17728042602539 C96.75196838378906,28.316608428955078 100.21697998046875,22.79667091369629 105.03138732910156,18.314300537109375 C107.13350677490234,16.357540130615234 109.58692169189453,14.62601089477539 112.15968322753906,13.356470108032227 C117.43994140625,10.750980377197266 122.83667755126953,8.343770027160645 128.32583618164062,6.2176103591918945 C131.47512817382812,4.997159957885742 135.4656524658203,5.976019859313965 136.6148681640625,10.658580780029297 C137.68324279785156,15.01388931274414 137.05667114257812,18.61363983154297 134.83522033691406,22.454029083251953 C133.63978576660156,24.519550323486328 133.9198760986328,27.39453125 133.28175354003906,29.83831024169922 C132.32020568847656,33.51892852783203 131.3856201171875,37.241859436035156 129.97265625,40.75979995727539 C128.80419921875,43.67137145996094 125.55863952636719,43.70505142211914 123.0118637084961,44.227699279785156 C120.00596618652344,44.844661712646484 116.8711166381836,44.8321418762207 113.30792999267578,45.60504150390625 C113.84500885009766,45.974639892578125 114.38594055175781,46.337501525878906 114.9162826538086,46.71382141113281 C118.06365203857422,48.94586944580078 121.3274917602539,51.03544998168945 124.31413269042969,53.46480941772461 C126.55964660644531,55.2906608581543 127.76661682128906,57.65648651123047 126.67803955078125,60.83177947998047 C126.0966567993164,62.52674865722656 126.39408111572266,64.50467681884766 125.94940948486328,66.26702880859375 C124.56244659423828,71.7609634399414 123.2621078491211,77.3001480102539 121.41412353515625,82.64395141601562 C120.52957916259766,85.20036315917969 119.23982238769531,87.89534759521484 116.48706817626953,89.3410415649414 C114.55052185058594,90.35936737060547 110.1364974975586,89.8482666015625 108.32122039794922,88.2428207397461 C104.52031707763672,84.88079071044922 102.0899887084961,80.61595916748047 99.98693084716797,76.0623779296875 C97.2197494506836,70.07273864746094 95.51129913330078,63.761627197265625 93.7701416015625,57.44184875488281 C93.40824890136719,56.127079010009766 92.6449966430664,54.9239501953125 91.5920181274414,53.61207962036133 C91.52271270751953,55.697811126708984 91.54678344726562,57.791236877441406 91.35137939453125,59.86543273925781 C91.21759796142578,61.27356719970703 90.99237060546875,62.75293731689453 90.41393280029297,64.01957702636719 C89.7623062133789,65.44312286376953 88.35031127929688,65.37093353271484 87.87098693847656,63.85691833496094 C87.29733276367188,62.040679931640625 87.11253356933594,60.081993103027344 86.92774963378906,58.168548583984375 C86.78433227539062,56.68437957763672 86.89887237548828,55.17612075805664 86.89887237548828,53.677520751953125 C86.69384765625,53.658260345458984 86.48979187011719,53.6380615234375 86.28478240966797,53.61880111694336 z" id="svg_5"/></g><g id="nameText" type="nameText" text="Harish" font-size="60" font-family="SF Archery Black" font-id="1" fill="#ff00a5" posX="25.1640625" posY="86" text-anchor="middle" font-weight="normal" font-style="normal" lineHeight="1" shapeId="2" shapeVal="5" fill-opacity="1" stroke-width="1" stroke="null" stroke-dasharray="none" style="display: none;"><path id="svg_6" fill="#ff00a5" d="M23.167619705200195,64.09289169311523 C23.167619705200195,64.09289169311523 14.834572792053223,72.5911865234375 14.834572792053223,72.5911865234375 C14.834572792053223,72.5911865234375 14.834572792053223,41.051292419433594 14.834572792053223,41.051292419433594 C14.834572792053223,41.051292419433594 8.835000038146973,44.98298263549805 8.835000038146973,44.98298263549805 C8.835000038146973,44.98298263549805 8.835000038146973,79.58086395263672 8.835000038146973,79.58086395263672 C8.835000038146973,79.58086395263672 0.501953125,90.49903869628906 0.501953125,90.49903869628906 C0.501953125,90.49903869628906 0.501953125,0.5 0.501953125,0.5 C0.501953125,0.5 8.835000038146973,0.5 8.835000038146973,0.5 C8.835000038146973,0.5 8.835000038146973,35.097877502441406 8.835000038146973,35.097877502441406 C8.835000038146973,35.097877502441406 14.834572792053223,32.039894104003906 14.834572792053223,32.039894104003906 C14.834572792053223,32.039894104003906 14.834572792053223,0.5 14.834572792053223,0.5 C14.834572792053223,0.5 23.167619705200195,0.5 23.167619705200195,0.5 C23.167619705200195,0.5 23.167619705200195,64.09289169311523 23.167619705200195,64.09289169311523 C23.167619705200195,64.09289169311523 23.167619705200195,64.09289169311523 23.167619705200195,64.09289169311523 M49.3355598449707,40.79561233520508 C49.3355598449707,40.79561233520508 40.33482360839844,51.020103454589844 40.33482360839844,51.020103454589844 C40.33482360839844,51.020103454589844 26.66851806640625,60.9422721862793 26.66851806640625,60.9422721862793 C26.66851806640625,60.9422721862793 26.66851806640625,42.05406188964844 26.66851806640625,42.05406188964844 C26.66851806640625,42.05406188964844 35.667877197265625,30.584171295166016 35.667877197265625,30.584171295166016 C35.667877197265625,30.584171295166016 41.001136779785156,28.699859619140625 41.001136779785156,28.699859619140625 C41.001136779785156,28.699859619140625 41.001136779785156,19.29990577697754 41.001136779785156,19.29990577697754 C41.001136779785156,19.29990577697754 35.001564025878906,20.728246688842773 35.001564025878906,20.728246688842773 C35.001564025878906,20.728246688842773 35.001564025878906,24.099620819091797 35.001564025878906,24.099620819091797 C35.001564025878906,24.099620819091797 26.66851806640625,26.94349479675293 26.66851806640625,26.94349479675293 C26.66851806640625,26.94349479675293 26.66851806640625,23.165851593017578 26.66851806640625,23.165851593017578 C26.66851806640625,23.165851593017578 35.667877197265625,13.870742797851562 35.667877197265625,13.870742797851562 C35.667877197265625,13.870742797851562 49.3355598449707,12.013031959533691 49.3355598449707,12.013031959533691 C49.3355598449707,12.013031959533691 49.3355598449707,40.79561233520508 49.3355598449707,40.79561233520508 C49.3355598449707,40.79561233520508 49.3355598449707,40.79561233520508 49.3355598449707,40.79561233520508 M41.001136779785156,44.36644744873047 C41.001136779785156,44.36644744873047 41.001136779785156,34.966495513916016 41.001136779785156,34.966495513916016 C41.001136779785156,34.966495513916016 35.001564025878906,37.58511734008789 35.001564025878906,37.58511734008789 C35.001564025878906,37.58511734008789 35.001564025878906,47.699241638183594 35.001564025878906,47.699241638183594 C35.001564025878906,47.699241638183594 41.001136779785156,44.36644744873047 41.001136779785156,44.36644744873047 C41.001136779785156,44.36644744873047 41.001136779785156,44.36644744873047 41.001136779785156,44.36644744873047 M75.668701171875,19.05278205871582 C75.668701171875,19.05278205871582 67.16908264160156,18.895797729492188 67.16908264160156,18.895797729492188 C67.16908264160156,18.895797729492188 67.16908264160156,16.267826080322266 67.16908264160156,16.267826080322266 C67.16908264160156,16.267826080322266 61.168128967285156,16.503400802612305 61.168128967285156,16.503400802612305 C61.168128967285156,16.503400802612305 61.168128967285156,43.17573547363281 61.168128967285156,43.17573547363281 C61.168128967285156,43.17573547363281 52.8350830078125,45.258121490478516 52.8350830078125,45.258121490478516 C52.8350830078125,45.258121490478516 52.8350830078125,11.689530372619629 52.8350830078125,11.689530372619629 C52.8350830078125,11.689530372619629 61.168128967285156,11.168933868408203 61.168128967285156,11.168933868408203 C61.168128967285156,11.168933868408203 61.168128967285156,13.243827819824219 61.168128967285156,13.243827819824219 C71.00175476074219,10.715357780456543 68.16854858398438,11.003447532653809 75.668701171875,11.101590156555176 C75.668701171875,11.101590156555176 75.668701171875,19.05278205871582 75.668701171875,19.05278205871582 C75.668701171875,19.05278205871582 75.668701171875,19.05278205871582 75.668701171875,19.05278205871582 M81.83485412597656,0.5 C84.16832733154297,0.5 86.00206756591797,2.367403268814087 86.00206756591797,4.3903114795684814 C86.00206756591797,6.413219451904297 84.16832733154297,8.179026126861572 81.83485412597656,8.066844940185547 C79.50138092041016,7.973818778991699 77.50244140625,6.131063461303711 77.50244140625,4.204680681228638 C77.50244140625,2.2782979011535645 79.50138092041016,0.5 81.83485412597656,0.5 C81.83485412597656,0.5 81.83485412597656,0.5 81.83485412597656,0.5 M86.00206756591797,45.31409454345703 C86.00206756591797,45.31409454345703 77.50244140625,43.17573547363281 77.50244140625,43.17573547363281 C77.50244140625,43.17573547363281 77.50244140625,11.168933868408203 77.50244140625,11.168933868408203 C77.50244140625,11.168933868408203 86.00206756591797,11.703523635864258 86.00206756591797,11.703523635864258 C86.00206756591797,11.703523635864258 86.00206756591797,45.31409454345703 86.00206756591797,45.31409454345703 C86.00206756591797,45.31409454345703 86.00206756591797,45.31409454345703 86.00206756591797,45.31409454345703 M112.0020523071289,53.38698959350586 C112.0020523071289,53.38698959350586 103.00269317626953,53.98297119140625 103.00269317626953,53.98297119140625 C103.00269317626953,53.98297119140625 89.1684341430664,46.48490524291992 89.1684341430664,46.48490524291992 C89.1684341430664,46.48490524291992 89.1684341430664,37.862735748291016 89.1684341430664,37.862735748291016 C89.1684341430664,37.862735748291016 97.66943359375,41.233131408691406 97.66943359375,41.233131408691406 C97.66943359375,41.233131408691406 97.66943359375,44.36644744873047 97.66943359375,44.36644744873047 C97.66943359375,44.36644744873047 103.66900634765625,47.699241638183594 103.66900634765625,47.699241638183594 C103.66900634765625,47.699241638183594 103.66900634765625,37.58511734008789 103.66900634765625,37.58511734008789 C103.66900634765625,37.58511734008789 89.1684341430664,32.1146240234375 89.1684341430664,32.1146240234375 C89.1684341430664,32.1146240234375 89.1684341430664,17.744340896606445 89.1684341430664,17.744340896606445 C89.1684341430664,17.744340896606445 98.1691665649414,13.105626106262207 98.1691665649414,13.105626106262207 C98.1691665649414,13.105626106262207 112.0020523071289,15.610568046569824 112.0020523071289,15.610568046569824 C112.0020523071289,15.610568046569824 112.0020523071289,26.94349479675293 112.0020523071289,26.94349479675293 C112.0020523071289,26.94349479675293 103.66900634765625,24.099620819091797 103.66900634765625,24.099620819091797 C103.66900634765625,24.099620819091797 103.66900634765625,20.728246688842773 103.66900634765625,20.728246688842773 C103.66900634765625,20.728246688842773 97.66943359375,19.29990577697754 97.66943359375,19.29990577697754 C97.66943359375,19.29990577697754 97.66943359375,28.699859619140625 97.66943359375,28.699859619140625 C97.66943359375,28.699859619140625 112.0020523071289,34.498779296875 112.0020523071289,34.498779296875 C112.0020523071289,34.498779296875 112.0020523071289,53.38698959350586 112.0020523071289,53.38698959350586 C112.0020523071289,53.38698959350586 112.0020523071289,53.38698959350586 112.0020523071289,53.38698959350586 M138.1699981689453,90.50096130371094 C138.1699981689453,90.50096130371094 129.6689910888672,79.376953125 129.6689910888672,79.376953125 C129.6689910888672,79.376953125 129.6689910888672,30.078855514526367 129.6689910888672,30.078855514526367 C129.6689910888672,30.078855514526367 123.66941833496094,27.465322494506836 123.66941833496094,27.465322494506836 C123.66941833496094,27.465322494506836 123.66941833496094,72.40752410888672 123.66941833496094,72.40752410888672 C123.66941833496094,72.40752410888672 115.33637237548828,63.937355041503906 115.33637237548828,63.937355041503906 C115.33637237548828,63.937355041503906 115.33637237548828,0.5 115.33637237548828,0.5 C115.33637237548828,0.5 123.66941833496094,0.5 123.66941833496094,0.5 C123.66941833496094,0.5 123.66941833496094,18.47688102722168 123.66941833496094,18.47688102722168 C123.66941833496094,18.47688102722168 138.1699981689453,23.000240325927734 138.1699981689453,23.000240325927734 C138.1699981689453,23.000240325927734 138.1699981689453,90.50096130371094 138.1699981689453,90.50096130371094 C138.1699981689453,90.50096130371094 138.1699981689453,90.50096130371094 138.1699981689453,90.50096130371094 " transform="matrix(1, 0, 0, 1, 25.1641, 86)" style="pointer-events:inherit"/></g><g id="numberText" type="numberText" text="78" font-size="120" font-family="Brush-Script" font-id="1" fill="#0000FF" posX="64.703125" posY="154.16015625" text-anchor="middle" font-weight="normal" font-style="normal" lineHeight="1" shapeId="0" shapeVal="0" fill-opacity="1" stroke-width="1" stroke="null" stroke-dasharray="none"><path id="svg_8" fill="#0000FF" d="M-22.10519027709961,7.708900451660156 C-24.865188598632812,9.148900985717773 -31.34518814086914,14.668901443481445 -33.50518798828125,9.268901824951172 C-31.705188751220703,3.268901824951172 -25.82518768310547,-2.6110992431640625 -21.985187530517578,-6.091098785400391 C-15.385189056396484,-9.211097717285156 0.334808349609375,-10.291099548339844 11.974807739257812,-10.291099548339844 C22.534812927246094,-10.291099548339844 25.414810180664062,-8.2510986328125 25.0548095703125,1.7089004516601562 C21.934814453125,7.228900909423828 14.974807739257812,10.948902130126953 10.534812927246094,15.7489013671875 C-0.38518524169921875,27.388900756835938 -9.50518798828125,40.82890319824219 -14.305187225341797,58.588897705078125 C-13.225189208984375,57.98889923095703 -10.10519027709961,57.38890075683594 -10.10519027709961,59.30889892578125 C-13.825187683105469,63.7489013671875 -20.66518783569336,67.82890319824219 -27.50518798828125,69.38890075683594 C-36.02518844604492,68.30889892578125 -33.86518859863281,57.62889862060547 -30.145187377929688,50.90890121459961 C-20.66518783569336,33.148902893066406 -5.305187225341797,18.508901596069336 8.49481201171875,4.948902130126953 C-2.3051910400390625,4.588901519775391 -15.025188446044922,3.988901138305664 -22.10519027709961,7.708900451660156 C-22.10519027709961,7.708900451660156 -22.10519027709961,7.708900451660156 -22.10519027709961,7.708900451660156 M59.73481750488281,29.548900604248047 C63.094818115234375,34.82890319824219 65.97480773925781,38.188899993896484 65.85481262207031,46.468902587890625 C65.37481689453125,60.26890563964844 52.41481018066406,66.98890686035156 38.37480926513672,67.3488998413086 C32.014808654785156,67.58889770507812 24.934814453125,63.7489013671875 24.934814453125,58.10890197753906 C24.934814453125,45.028900146484375 38.97480773925781,38.66889953613281 46.17481231689453,30.868900299072266 C42.334808349609375,25.828903198242188 36.57481384277344,20.42890167236328 36.57481384277344,12.148900985717773 C36.57481384277344,-8.2510986328125 61.41481018066406,-10.651100158691406 82.53480529785156,-10.651100158691406 C88.77481079101562,-10.651100158691406 92.13481140136719,-11.371097564697266 93.09481811523438,-7.531097412109375 C91.53480529785156,-2.491100311279297 89.49481201171875,5.188901901245117 83.01481628417969,4.468900680541992 C84.09481811523438,8.428901672363281 81.21481323242188,10.348901748657227 79.1748046875,12.148900985717773 C79.1748046875,12.148900985717773 59.73481750488281,29.548900604248047 59.73481750488281,29.548900604248047 M54.81481170654297,46.82890319824219 C54.81481170654297,42.38890075683594 53.014808654785156,40.468902587890625 51.214813232421875,37.348899841308594 C46.29481506347656,42.148902893066406 40.0548095703125,46.82890319824219 35.97480773925781,52.348899841308594 C33.57481384277344,55.588897705078125 33.81481170654297,59.30889892578125 38.73480987548828,59.30889892578125 C46.41481018066406,59.30889892578125 54.81481170654297,53.908905029296875 54.81481170654297,46.82890319824219 C54.81481170654297,46.82890319824219 54.81481170654297,46.82890319824219 54.81481170654297,46.82890319824219 M77.85481262207031,3.8689002990722656 C65.37481689453125,3.508901596069336 49.894813537597656,3.028902053833008 48.81481170654297,13.348901748657227 C49.41481018066406,17.42890167236328 52.0548095703125,20.188899993896484 54.81481170654297,23.90890121459961 C54.81481170654297,23.90890121459961 77.85481262207031,3.8689002990722656 77.85481262207031,3.8689002990722656 " transform="matrix(1, 0, 0, 1, 64.7031, 154.16)"/></g></g></svg>