<svg xmlns="http://www.w3.org/2000/svg" width="372" height="255" x="0" y="0" id="svgcontent" viewBox="0 0 372 255" overflow="hidden"><defs><mask id="canvasMaskImageDef" maskUnits="objectBoundingBox" x="0" y="0"><image xmlns:xlink="http://www.w3.org/1999/xlink" id="canvasMaskImage" preserveAspectRatio="none" x="-15" y="-15" width="400" height="400" xlink:href="http://192.168.0.139/work/print_commerce/pc-newtool-magento-21/designnbuy/uploads/productimage/570caac462079.png"/></mask><clipPath class="clippath" id="svg_3"><path d="M5.25,43.01439C7.92475,70.2666 7.92475,97.7344 5.25,124.9857C5.25,130.62427 9.80412,135.25055 15.5144,135.25055C42.76612,132.57623 70.2339,132.57623 97.48609,135.25055C103.12376,135.25055 107.75,130.69685 107.75,124.9857C105.07486,97.7344 105.07486,70.26658 107.75,43.01439C107.75,37.37585 103.19637,32.75 97.48609,32.75L97.48609,32.82215C70.2339,35.49648 42.76612,35.49648 15.5144,32.82215C9.87628,32.82215 5.25,37.37629 5.25,43.08655" id="svg_2" opacity="1" stroke="#0a0a0a" shapeType="roundedSquare" fill="#000" fill-opacity="0" stroke-width="2" stroke-dasharray="none"/></clipPath><clipPath class="clippath" id="svg_9"><path d="M228,120.36033C229.91798,139.90216 229.91798,159.59857 228,179.13974C228,183.183 231.26564,186.5004 235.36032,186.5004C254.90179,184.58273 274.59824,184.58273 294.14001,186.5004C298.18262,186.5004 301.5,183.23506 301.5,179.13974C299.58173,159.59857 299.58173,139.90215 301.5,120.36033C301.5,116.31706 298.23474,113 294.14001,113L294.14001,113.05174C274.59824,114.96943 254.90179,114.96943 235.36032,113.05174C231.31737,113.05174 228,116.31738 228,120.41207" opacity="1" stroke="#0a0a0a" shapeType="roundedSquare" fill="#000" fill-opacity="0" stroke-width="2" stroke-dasharray="none" id="svg_18"/></clipPath><clipPath class="clippath" id="svg_13"><path d="M120,81.46328C122.466,106.58848 122.466,131.91243 120,157.0368C120,162.23529 124.19868,166.5005 129.46327,166.5005C154.58803,164.03493 179.912,164.03493 205.03717,166.5005C210.23483,166.5005 214.5,162.30222 214.5,157.0368C212.03366,131.91243 212.03366,106.58845 214.5,81.46328C214.5,76.26482 210.30179,72 205.03717,72L205.03717,72.06652C179.912,74.53211 154.58803,74.53211 129.46327,72.06652C124.26521,72.06652 120,76.26521 120,81.5298" opacity="1" stroke="#0a0a0a" shapeType="roundedSquare" fill="#000" fill-opacity="0" stroke-width="2" stroke-dasharray="none" id="svg_19"/></clipPath><clipPath class="clippath" id="svg_17"><path d="M314,159.15724C315.3439,172.84979 315.3439,186.6507 314,200.3428C314,203.17584 316.28821,205.50027 319.15723,205.50027C332.84958,204.1566 346.65045,204.1566 360.34302,205.50027C363.1756,205.50027 365.5,203.21231 365.5,200.3428C364.15591,186.6507 364.15591,172.84978 365.5,159.15724C365.5,156.3242 363.2121,154 360.34302,154L360.34302,154.03625C346.65045,155.37993 332.84958,155.37993 319.15723,154.03625C316.32443,154.03625 314,156.32443 314,159.1935" opacity="1" stroke="#0a0a0a" shapeType="roundedSquare" fill="#000" fill-opacity="0" stroke-width="2" stroke-dasharray="none" id="svg_20"/></clipPath></defs><g mask="url(#canvasMaskImageDef)" style="pointer-events:all"><title style="pointer-events:inherit">Layer 1</title><g type="photobox" pathStr="M0.0010499999625830786,34.816880310469976 C9.073804619202178,127.2563893936963 9.073804619202178,220.4272691735282 0.0010499999625830786,312.86372917322706 C0.0010499999625830786,331.9898152667015 15.448638703651682,347.6821359671562 34.8179408554015,347.6821359671562 C127.25585079569873,338.61090971082785 220.4266540615149,338.61090971082785 312.8661440162373,347.6821359671562 C331.9891083378693,347.6821359671562 347.68133722150515,332.2360067637642 347.68133722150515,312.86372917322706 C338.60723403818474,220.4272691735282 338.60723403818474,127.25635113668842 347.68133722150515,34.816880310469976 C347.68133722150515,15.690913770145139 332.2354222573572,0.000009999999748110371 312.8661440162373,0.000009999999748110371 L312.8661440162373,0.24475322888375217 C220.4266540615149,9.316068208593274 127.25585079569873,9.316068208593274 34.8179408554015,0.24475322888375217 C15.693409909297088,0.24475322888375217 0.0010499999625830786,15.6923684928695 0.0010499999625830786,35.06161421553271 " lockTransform="true" lockEdit="null" id="svg_1" display="null" style="pointer-events:inherit"><image xmlns:xlink="http://www.w3.org/1999/xlink" xlink:href="http://192.168.0.139/work/print_commerce/pc-newtool-magento-21/designnbuy/assets/images/uploadedImage/admin_drag-image.jpg" id="svg_5" preserveAspectRatio="none" height="103.18387659497591" width="103.18387659497591" y="32.74999750910024" x="5.249691455731862" origWidth="500" origHeight="500" image_id="9" templateSrc="http://192.168.0.139/work/print_commerce/pc-newtool-magento-21/designnbuy/assets/images/uploadedImage/admin_drag-image.jpg#**#9" isAdminUploaded="true" filter="" colors="" clip-path="url(#svg_3)" style="pointer-events:inherit"/><path d="M5.25,43.01439C7.92475,70.2666 7.92475,97.7344 5.25,124.9857C5.25,130.62427 9.80412,135.25055 15.5144,135.25055C42.76612,132.57623 70.2339,132.57623 97.48609,135.25055C103.12376,135.25055 107.75,130.69685 107.75,124.9857C105.07486,97.7344 105.07486,70.26658 107.75,43.01439C107.75,37.37585 103.19637,32.75 97.48609,32.75L97.48609,32.82215C70.2339,35.49648 42.76612,35.49648 15.5144,32.82215C9.87628,32.82215 5.25,37.37629 5.25,43.08655" id="svg_4" opacity="1" stroke="#0a0a0a" shapeType="roundedSquare" fill="#000" fill-opacity="0" stroke-width="2" stroke-dasharray="none" style="pointer-events:inherit"/></g><g type="photobox" pathStr="M0.0010499999625830786,34.816880310469976 C9.073804619202178,127.2563893936963 9.073804619202178,220.4272691735282 0.0010499999625830786,312.86372917322706 C0.0010499999625830786,331.9898152667015 15.448638703651682,347.6821359671562 34.8179408554015,347.6821359671562 C127.25585079569873,338.61090971082785 220.4266540615149,338.61090971082785 312.8661440162373,347.6821359671562 C331.9891083378693,347.6821359671562 347.68133722150515,332.2360067637642 347.68133722150515,312.86372917322706 C338.60723403818474,220.4272691735282 338.60723403818474,127.25635113668842 347.68133722150515,34.816880310469976 C347.68133722150515,15.690913770145139 332.2354222573572,0.000009999999748110371 312.8661440162373,0.000009999999748110371 L312.8661440162373,0.24475322888375217 C220.4266540615149,9.316068208593274 127.25585079569873,9.316068208593274 34.8179408554015,0.24475322888375217 C15.693409909297088,0.24475322888375217 0.0010499999625830786,15.6923684928695 0.0010499999625830786,35.06161421553271 " lockTransform="true" lockEdit="null" display="null" id="svg_6" style="pointer-events:inherit"><image xmlns:xlink="http://www.w3.org/1999/xlink" xlink:href="http://192.168.0.139/work/print_commerce/pc-newtool-magento-21/designnbuy/assets/images/uploadedImage/admin_drag-image.jpg" preserveAspectRatio="none" height="73.99039342812436" width="73.99039342812436" y="112.99999847363155" x="227.99977803591602" origWidth="500" origHeight="500" image_id="9" templateSrc="http://192.168.0.139/work/print_commerce/pc-newtool-magento-21/designnbuy/assets/images/uploadedImage/admin_drag-image.jpg#**#9" isAdminUploaded="true" filter="" colors="" clip-path="url(#svg_9)" id="svg_7" style="pointer-events:inherit"/><path d="M228,120.36033C229.91798,139.90216 229.91798,159.59857 228,179.13974C228,183.183 231.26564,186.5004 235.36032,186.5004C254.90179,184.58273 274.59824,184.58273 294.14001,186.5004C298.18262,186.5004 301.5,183.23506 301.5,179.13974C299.58173,159.59857 299.58173,139.90215 301.5,120.36033C301.5,116.31706 298.23474,113 294.14001,113L294.14001,113.05174C274.59824,114.96943 254.90179,114.96943 235.36032,113.05174C231.31737,113.05174 228,116.31738 228,120.41207" opacity="1" stroke="#0a0a0a" shapeType="roundedSquare" fill="#000" fill-opacity="0" stroke-width="2" stroke-dasharray="none" id="svg_8" style="pointer-events:inherit"/></g><g type="photobox" pathStr="M0.0010499999625830786,34.816880310469976 C9.073804619202178,127.2563893936963 9.073804619202178,220.4272691735282 0.0010499999625830786,312.86372917322706 C0.0010499999625830786,331.9898152667015 15.448638703651682,347.6821359671562 34.8179408554015,347.6821359671562 C127.25585079569873,338.61090971082785 220.4266540615149,338.61090971082785 312.8661440162373,347.6821359671562 C331.9891083378693,347.6821359671562 347.68133722150515,332.2360067637642 347.68133722150515,312.86372917322706 C338.60723403818474,220.4272691735282 338.60723403818474,127.25635113668842 347.68133722150515,34.816880310469976 C347.68133722150515,15.690913770145139 332.2354222573572,0.000009999999748110371 312.8661440162373,0.000009999999748110371 L312.8661440162373,0.24475322888375217 C220.4266540615149,9.316068208593274 127.25585079569873,9.316068208593274 34.8179408554015,0.24475322888375217 C15.693409909297088,0.24475322888375217 0.0010499999625830786,15.6923684928695 0.0010499999625830786,35.06161421553271 " lockTransform="true" lockEdit="null" display="null" id="svg_10" style="pointer-events:inherit"><image xmlns:xlink="http://www.w3.org/1999/xlink" xlink:href="http://192.168.0.139/work/print_commerce/pc-newtool-magento-21/designnbuy/assets/images/uploadedImage/admin_drag-image.jpg" preserveAspectRatio="none" height="95.1305016783914" width="95.1305016783914" y="71.99999786122262" x="119.99971567849283" origWidth="500" origHeight="500" image_id="9" templateSrc="http://192.168.0.139/work/print_commerce/pc-newtool-magento-21/designnbuy/assets/images/uploadedImage/admin_drag-image.jpg#**#9" isAdminUploaded="true" filter="" colors="" clip-path="url(#svg_13)" id="svg_11" style="pointer-events:inherit"/><path d="M120,81.46328C122.466,106.58848 122.466,131.91243 120,157.0368C120,162.23529 124.19868,166.5005 129.46327,166.5005C154.58803,164.03493 179.912,164.03493 205.03717,166.5005C210.23483,166.5005 214.5,162.30222 214.5,157.0368C212.03366,131.91243 212.03366,106.58845 214.5,81.46328C214.5,76.26482 210.30179,72 205.03717,72L205.03717,72.06652C179.912,74.53211 154.58803,74.53211 129.46327,72.06652C124.26521,72.06652 120,76.26521 120,81.5298" opacity="1" stroke="#0a0a0a" shapeType="roundedSquare" fill="#000" fill-opacity="0" stroke-width="2" stroke-dasharray="none" id="svg_12" style="pointer-events:inherit"/></g><g type="photobox" pathStr="M0.0010499999625830786,34.816880310469976 C9.073804619202178,127.2563893936963 9.073804619202178,220.4272691735282 0.0010499999625830786,312.86372917322706 C0.0010499999625830786,331.9898152667015 15.448638703651682,347.6821359671562 34.8179408554015,347.6821359671562 C127.25585079569873,338.61090971082785 220.4266540615149,338.61090971082785 312.8661440162373,347.6821359671562 C331.9891083378693,347.6821359671562 347.68133722150515,332.2360067637642 347.68133722150515,312.86372917322706 C338.60723403818474,220.4272691735282 338.60723403818474,127.25635113668842 347.68133722150515,34.816880310469976 C347.68133722150515,15.690913770145139 332.2354222573572,0.000009999999748110371 312.8661440162373,0.000009999999748110371 L312.8661440162373,0.24475322888375217 C220.4266540615149,9.316068208593274 127.25585079569873,9.316068208593274 34.8179408554015,0.24475322888375217 C15.693409909297088,0.24475322888375217 0.0010499999625830786,15.6923684928695 0.0010499999625830786,35.06161421553271 " lockTransform="true" lockEdit="null" display="null" id="svg_14"><image xmlns:xlink="http://www.w3.org/1999/xlink" xlink:href="http://192.168.0.139/work/print_commerce/pc-newtool-magento-21/designnbuy/assets/images/uploadedImage/admin_drag-image.jpg" preserveAspectRatio="none" height="51.84360630062946" width="51.84360630062946" y="153.99999514950767" x="313.99984974532794" origWidth="500" origHeight="500" image_id="9" templateSrc="http://192.168.0.139/work/print_commerce/pc-newtool-magento-21/designnbuy/assets/images/uploadedImage/admin_drag-image.jpg#**#9" isAdminUploaded="true" filter="" colors="" clip-path="url(#svg_17)" id="svg_15"/><path d="M314,159.15724C315.3439,172.84979 315.3439,186.6507 314,200.3428C314,203.17584 316.28821,205.50027 319.15723,205.50027C332.84958,204.1566 346.65045,204.1566 360.34302,205.50027C363.1756,205.50027 365.5,203.21231 365.5,200.3428C364.15591,186.6507 364.15591,172.84978 365.5,159.15724C365.5,156.3242 363.2121,154 360.34302,154L360.34302,154.03625C346.65045,155.37993 332.84958,155.37993 319.15723,154.03625C316.32443,154.03625 314,156.32443 314,159.1935" opacity="1" stroke="#0a0a0a" shapeType="roundedSquare" fill="#000" fill-opacity="0" stroke-width="2" stroke-dasharray="none" id="svg_16"/></g></g></svg>