<svg xmlns="http://www.w3.org/2000/svg" xmlns:se="http://svg-edit.googlecode.com" xmlns:xlink="http://www.w3.org/1999/xlink" width="244" height="399" x="0" y="0" id="svgcontent" viewBox="0 0 244 399" overflow="visible"><g mask="" style="pointer-events:all"><title style="pointer-events:inherit">Layer 1</title><g id="svg_4" display="null" clip-id="1" stroke="null" stroke-opacity="1" transform=""><path fill="#FF0000" d="M195.18925,143.15678L212.50002,131.34418L187.81083,124.11725C167.1958,87.88813 125.12098,106.78152 111.05921,141.23732C94.09241,182.76856 45.49998,197.9175 45.49998,197.9175C80.0841,239.0513 111.27664,246.47963 132.08058,244.83998C152.89521,243.18785 209.07458,226.827 197.37961,153.79668C196.7683,150.00231 196.03046,146.46638 195.18925,143.15678z" id="svg_5" stroke-width="0" stroke="null"/><path fill="#F5F5DC" d="M187.81083,124.11725C190.75685,129.29462 193.26444,135.61083 195.18925,143.15678L212.50002,131.34418L187.81083,124.11725zM160.2968,169.97574C160.2968,169.97574 102.55264,158.06868 95.92988,190.20045C89.30891,222.3251 142.62424,240.97076 160.2968,169.97574zM171.40721,123.22435C171.79395,126.66939 170.01885,129.70453 167.43462,130.00572C164.84148,130.29623 162.42122,127.73338 162.03804,124.29369C161.64238,120.84864 163.41748,117.81351 166.01062,117.51231C168.60911,117.2325 171.01334,119.7793 171.40721,123.22435z" id="svg_6" stroke-width="0" stroke="null"/></g></g><defs/></svg>