<svg xmlns="http://www.w3.org/2000/svg" width="172" height="274" x="0" y="0" id="svgcontent" overflow="hidden" viewBox="0 0 172 274"><g style="pointer-events:all" mask="url(#canvasMaskImageDef)"><title style="pointer-events:inherit">Layer 1</title><g type="photobox" pathStr="M165.6526983562785,47.00912124996417 C163.05097920990005,50.0115437772738 159.0485898995727,51.412244699494124 155.24471447299356,50.81176634568648 C134.63089006619956,47.60959960377181 114.61759015062029,60.21855311509688 108.21316439197668,80.23189916808326 C106.211969736813,86.43648843730759 105.8112509767461,93.04059689401339 106.81126389717095,99.44499189438555 C107.41172687184289,103.44861153556975 106.01099519135114,107.25122587302064 103.00861880144865,109.85294501939909 C75.19016144673402,133.46917657436705 69.78704045591493,174.49580470508616 90.80035329191904,204.5152932043837 L90.60177789162799,204.5152932043837 C94.00376574382625,209.51781846822163 98.20712959961546,214.12183956753486 102.81004340115759,217.92565347757116 L103.00978761576262,217.92565347757116 C106.01222552220796,220.52617305136422 107.4129572026997,224.5298542090912 106.81249422802777,228.33363736085616 C103.61025059043455,249.1461602010269 116.01832183111202,269.16062893092015 136.0316217466913,275.36401862755906 C142.23624177418702,277.3652132827227 148.84151904520678,277.7647017119328 155.2459448038504,276.76598063890765 L155.2459448038504,276.96800096559775 C159.24833411417774,276.366307660069 163.0522095407569,277.7682696714176 165.65380565404968,280.77193790871974 C189.27016024210332,308.58904189949186 230.29803408281492,313.99234743993946 260.31743030729825,292.9789115708496 C265.31860220719363,289.57698523519423 269.9240997035351,285.37245256509107 273.7266832827146,280.77193790871974 L273.7266832827146,280.5709633632579 C276.3284639456359,277.56975578766935 280.33208358682003,276.16539463115004 284.13466716599953,276.76598063890765 C304.94835882048426,279.9692085411863 324.9629505834632,267.56126033359453 331.16757061095893,247.54679160370125 C333.1674734187229,241.3409104870773 333.56806914570416,234.73809387777115 332.57057840353576,228.33360660258472 L332.76903077074115,228.33360660258472 C332.1686293126121,224.3301099944862 333.5718216548174,220.5273418656782 336.5729061973203,217.92565347757116 C364.39130203549206,194.30936040606036 369.7955918406252,153.2815173236202 348.780002892536,123.26213647827255 C345.37930688773736,118.25973424752036 341.17477421763414,113.65555935684999 336.5729061973203,109.85294501939909 C333.5718216548174,107.25122587302064 332.1686293126121,103.24760623183647 332.76903077074115,99.44499189438555 C335.97127440833435,78.63256132902904 323.56449501505665,58.6168776474147 303.5500878017061,52.41227299905468 L303.34892870661577,52.41227299905468 C297.1456005265197,50.41224715820498 290.54026173895716,50.0115437772738 284.13466716599953,51.01154131856294 L284.13466716599953,50.81176634568648 C280.13104752481536,51.412244699494124 276.3284639456359,50.0115437772738 273.7266832827146,47.00912124996417 C250.10925215516122,19.190679274385264 209.08254712876354,13.786327952709343 179.06188981515197,34.80087111957028 C174.05825725354293,38.20281283436141 169.45534345200082,42.40500787583664 165.6526983562785,47.00912124996417 z" lockTransform="null" lockEdit="null" id="svg_1" display="null" transform=""><image xmlns:xlink="http://www.w3.org/1999/xlink" x="72.34544117345013" y="77.66153655674657" width="151.63177251815796" height="101.08784834543863" preserveAspectRatio="none" id="svg_5" xlink:href="http://192.168.0.46/dnb_products/pc-magento-qa/designnbuy/assets/images/uploadedImage/admin_o_1af60t1l91rsd13kcin91rh91a5na.jpeg" origWidth="600" origHeight="400" image_id="null" templateSrc="http://192.168.0.46/dnb_products/pc-magento-qa/designnbuy/assets/images/uploadedImage/admin_o_1af60t1l91rsd13kcin91rh91a5na.jpeg#**#null" isAdminUploaded="true" filter="url(#ie_css_sepia)" colors="" clip-path="url(#svg_3)" transform=""/><path d="M122.58186572180665,91.91768931605272 C121.79285915028706,92.82821461538153 120.57908037942173,93.2529961425897 119.42550363268082,93.07089294829642 C113.17408216632033,92.09979251034599 107.10477788604676,95.92362845138854 105.1625490265586,101.99294672345574 C104.55565964112594,103.874572460735 104.43413624938549,105.8773578031199 104.73740371271566,107.81957733474565 C104.91950224307772,109.03372922010817 104.49471138800712,110.18692352448946 103.58420008047194,110.97593009600905 C95.14787608563961,118.13787219776714 93.50930645970368,130.57975288557566 99.88187820330741,139.68356938804953 L99.82165752345814,139.68356938804953 C100.85335641968626,141.20065293369476 102.12808344367042,142.5968846936945 103.52397940062268,143.75044278471054 L103.5845545392443,143.75044278471054 C104.49508450250431,144.53908556959536 104.91987535757492,145.75325611068274 104.73777682721285,146.9068048738364 C103.76665306960635,153.21848433149586 107.52956874111736,159.2881430705418 113.59887302139093,161.16940502118626 C115.48050808653261,161.77629440661892 117.48364788768987,161.89744468386215 119.42587674717802,161.59456899075408 L119.42587674717802,161.65583439119553 C120.63965551804336,161.47336274633625 121.79323226478428,161.89852671590407 122.58220152485414,162.8094297936613 C129.74418093806196,171.2453433625467 142.18643940429888,172.88396895565722 151.2902279231855,166.51135990060374 C152.8069010428838,165.4796796601005 154.20358054028017,164.204598177344 155.35676551679904,162.8094297936613 L155.35676551679904,162.74848154054246 C156.1457907440435,161.83832469177963 157.35994262940602,161.41243314894228 158.51312760592486,161.59456899075408 C164.82516152235667,162.56599123995835 170.89485757285235,158.80311287989707 172.776492637994,152.73345414085114 C173.38299025320458,150.8514366333498 173.50447633349532,148.849043061187 173.20197375488442,146.90679554597398 L173.262157123284,146.90679554597398 C173.08007724864677,145.69268097206114 173.5056143327118,144.53944002836772 174.4157338700249,143.75044278471054 C182.85203920913239,136.5884820272276 184.49096329384065,124.14623288885309 178.1177012884171,115.0424490338977 C177.08639416241104,113.52540279970222 175.81131267965452,112.12912440039031 174.4157338700249,110.97593009600905 C173.5056143327118,110.18692352448946 173.08007724864677,108.9727716391269 173.262157123284,107.81957733474565 C174.2332808808905,101.50792586067344 170.47075697960156,95.43789867106153 164.40111689628048,93.55626826985107 L164.3401126759871,93.55626826985107 C162.45886938106747,92.94973334319076 160.45571092418538,92.82821461538153 158.51312760592486,93.13147741478048 L158.51312760592486,93.07089294829642 C157.29897572056234,93.2529961425897 156.1457907440435,92.82821461538153 155.35676551679904,91.91768931605272 C148.19445962840615,83.4813699851516 135.75255562094156,81.84242724471846 126.6483846596953,88.2153721028194 C125.1309653110026,89.24705700725389 123.73506935405035,90.52142957246568 122.58186572180665,91.91768931605272 z" id="svg_4" opacity="1" stroke="#fa4242" shapeType="cloudMirror" fill="#000" fill-opacity="0" stroke-width="6" stroke-dasharray="5,5" cursor="move" transform=""/></g><g id="svg_6" type="text" text="hello" font-size="92.21424478360079" font-family="Brush-Script" font-id="1" fill="000000" text-anchor="start" font-weight="normal" font-style="normal" lineHeight="1" shapeId="0" shapeVal="0" fill-opacity="1" display="null" elemBBoxWidth="167" stroke="null" stroke-opacity="1" transform=""><path id="svg_7" fill="#000000" d="M-1.4812239141615464,24.37409549348422 C2.9450598959160743,21.423239620099025 7.647986444123546,21.699882358228933 8.57012890455644,26.49502315247969 C7.463557952036979,32.58116339133642 -0.46686720768536816,35.255376526591704 -1.665652406248057,41.24930251940509 C-1.665652406248057,42.72473045609763 -1.0201526839450707,43.37023017840056 0.45527525274741265,43.37023017840056 C5.6192730311713035,43.37023017840056 7.555772198080263,40.419374305015594 12.535341484417586,37.28408993954383 C12.535341484417586,37.28408993954383 12.443127238374302,41.15708827336175 12.443127238374302,41.15708827336175 C4.512702078651898,46.96658577408857 0.5474894987906964,50.93179835394983 -7.3829356609316505,52.59165478272894 C-14.022361376048082,51.76172656833944 -10.241577288273447,42.17144497983793 -7.936221137191353,39.12837486040951 C-7.936221137191353,39.12837486040951 -1.665652406248057,30.736878470470742 -1.665652406248057,30.736878470470742 C-9.872720304100312,36.36194747911111 -16.88100300338988,43.55465867048713 -23.797071456636132,50.562941369776695 C-24.258142686852523,51.02401259999306 -24.71921391706894,51.02401259999306 -25.088070901242105,51.02401259999306 C-28.499998004843604,50.19408438560356 -28.315569512757037,46.59772878991555 -28.315569512757037,41.24930251940509 C-28.315569512757037,27.417165612912527 -18.35643094008236,19.578954699233464 -11.809219471009271,11.095244063251243 C-7.659578399061502,5.746817792740899 -1.8500808983346246,0.21396303014387286 2.7606314038295645,-3.474606811587421 C6.080344261387779,-6.241034192885934 8.4779146585131,-7.62424788353519 9.861128349162414,-7.62424788353519 C11.520984777941464,-7.62424788353519 13.273055452763856,-6.702105423102296 13.273055452763856,-5.042248994323302 C13.273055452763856,-3.474606811587421 11.705413270028032,-0.6159651842457379 8.662343150599668,3.349247395615521 C-0.19022446955557348,14.69159965893948 -11.717005224965988,26.310594660393235 -22.04500078181377,36.73080446328413 C-22.04500078181377,36.73080446328413 -22.137215027856996,40.23494581292903 -22.137215027856996,40.23494581292903 C-15.497789312740622,34.978733788461795 -8.58172085949434,29.077022041691635 -1.4812239141615464,24.37409549348422 C-1.4812239141615464,24.37409549348422 -1.4812239141615464,24.37409549348422 -1.4812239141615464,24.37409549348422 M45.732470059999685,37.28408993954383 C45.732470059999685,37.28408993954383 45.54804156791312,41.15708827336175 45.54804156791312,41.15708827336175 C39.00083009884003,45.860014821569166 33.283546844156376,52.776083274815505 22.955551287308595,52.776083274815505 C15.762840095932575,52.776083274815505 12.811984222547437,48.53422795682445 12.443127238374302,41.24930251940509 C11.797627516071373,28.431522319388705 25.35312168443403,16.904741563978178 37.709830654234054,16.904741563978178 C40.93732926574893,16.904741563978178 43.42711390891759,18.19574100858415 43.42711390891759,21.146596881969344 C43.42711390891759,31.843449422990147 30.24047672472807,34.79430529637523 21.48012335061611,38.20623239997667 C20.557980890183273,42.448087717967724 22.955551287308595,45.12230085322301 27.10519235925642,45.03008660717967 C34.94340327293554,44.93787236113644 40.568472281575794,40.51158855105871 45.732470059999685,37.28408993954383 C45.732470059999685,37.28408993954383 45.732470059999685,37.28408993954383 45.732470059999685,37.28408993954383 M35.77333148732504,23.35973878700804 C35.681117241281754,21.607668112185593 33.560189582286284,22.345382080531984 32.26919013768031,22.898667556791565 C27.935120573645975,24.927380969743922 24.43097922400119,29.16923628773486 22.40226581104895,33.68773434385582 C27.012978113213137,31.935663669033374 31.531476169333985,29.077022041691635 34.482332042719065,25.941737676219994 C35.31226025710862,24.927380969743922 35.77333148732504,24.09745275535431 35.77333148732504,23.35973878700804 C35.77333148732504,23.35973878700804 35.77333148732504,23.35973878700804 35.77333148732504,23.35973878700804 M73.76560085715784,37.28408993954383 C73.76560085715784,38.575089384149805 73.48895811902793,39.95830307479912 73.6733866111145,41.24930251940509 C73.6733866111145,41.24930251940509 67.58724637225782,45.95222906761251 67.58724637225782,45.95222906761251 C63.62203379239662,48.44201371078111 59.65682121253542,52.31501204459903 53.84732371180854,52.31501204459903 C42.41275720244141,52.31501204459903 45.08697033769664,34.51766255824532 48.68332593338471,26.218380414349895 C53.75510946576526,14.414956920809573 62.14660585570408,4.824675332308061 71.55245895211903,-2.8291070892844914 C73.30452962694142,-4.212320779933748 74.68774331759067,-4.950034748279961 75.60988577802345,-4.950034748279961 C79.39066986579809,-3.9356780418038966 76.90088522262943,2.7037476733125914 76.07095700823987,5.746817792740899 C72.56681565859515,18.28795525462749 62.51546283987727,25.665094938090192 54.49282343411153,34.056591328028844 C53.66289521972203,38.851732122279714 53.66289521972203,44.93787236113644 59.19574998231906,44.476801130919974 C65.4663187132623,43.92351565466038 68.23274609456081,41.064874027318524 73.76560085715784,37.28408993954383 C73.76560085715784,37.28408993954383 73.76560085715784,37.28408993954383 73.76560085715784,37.28408993954383 M70.72253073772947,5.839032038784126 C64.45196200678618,10.91081557116479 60.02567819670861,17.919098270454356 56.42932260102049,25.665094938090192 C62.14660585570408,19.85559743736337 67.31060363412797,13.953885690593097 70.72253073772947,5.839032038784126 C70.72253073772947,5.839032038784126 70.72253073772947,5.839032038784126 70.72253073772947,5.839032038784126 M101.7987316543161,37.28408993954383 C101.7987316543161,38.575089384149805 101.52208891618625,39.95830307479912 101.70651740827282,41.24930251940509 C101.70651740827282,41.24930251940509 95.62037716941614,45.95222906761251 95.62037716941614,45.95222906761251 C91.65516458955494,48.44201371078111 87.68995200969374,52.31501204459903 81.8804545089668,52.31501204459903 C70.44588799959968,52.31501204459903 73.1201011348549,34.51766255824532 76.71645673054297,26.218380414349895 C81.78824026292358,14.414956920809573 90.1797366528624,4.824675332308061 99.58558974927735,-2.8291070892844914 C101.33766042409962,-4.212320779933748 102.72087411474894,-4.950034748279961 103.64301657518178,-4.950034748279961 C107.42380066295641,-3.9356780418038966 104.93401601978769,2.7037476733125914 104.1040878053982,5.746817792740899 C100.59994645575341,18.28795525462749 90.54859363703548,25.665094938090192 82.52595423126985,34.056591328028844 C81.69602601688035,38.851732122279714 81.69602601688035,44.93787236113644 87.22888077947727,44.476801130919974 C93.49944951042056,43.92351565466038 96.26587689171907,41.064874027318524 101.7987316543161,37.28408993954383 C101.7987316543161,37.28408993954383 101.7987316543161,37.28408993954383 101.7987316543161,37.28408993954383 M98.75566153488774,5.839032038784126 C92.48509280394444,10.91081557116479 88.05880899386688,17.919098270454356 84.46245339817881,25.665094938090192 C90.1797366528624,19.85559743736337 95.34373443128624,13.953885690593097 98.75566153488774,5.839032038784126 C98.75566153488774,5.839032038784126 98.75566153488774,5.839032038784126 98.75566153488774,5.839032038784126 M138.50000157954292,37.28408993954383 C138.50000157954292,37.28408993954383 138.31557308745636,41.24930251940509 138.31557308745636,41.24930251940509 C134.25814626155181,44.015729900703604 131.21507614212356,46.228871805742415 124.94450741118027,45.491157837396145 C120.97929483131907,49.087513433084155 117.9362247118907,52.2227977985558 111.38901324281755,52.2227977985558 C99.2167327651041,52.2227977985558 99.67780399532052,32.39673489924985 107.1471579248265,26.310594660393235 C112.4955841953369,21.97652509635884 118.02843895793399,17.826884024411015 126.97322082413245,17.36581279419454 C129.37079122125783,17.273598548151426 131.8605758644265,18.47238374671406 131.95279011046978,20.593311405709528 C131.95279011046978,21.97652509635884 130.84621915795037,22.52981057261843 129.8318624514743,23.083096048878247 C132.3216470946429,24.00523850931097 133.05936106298918,24.927380969743922 133.05936106298918,28.247093827302137 C133.05936106298918,33.04223462155278 130.93843340399366,36.36194747911111 128.63307725291162,40.419374305015594 C133.33600380111903,40.788231289188616 135.27250296802794,39.220589106452735 138.50000157954292,37.28408993954383 C138.50000157954292,37.28408993954383 138.50000157954292,37.28408993954383 138.50000157954292,37.28408993954383 M119.22722415649667,41.98701648775125 C116.64522526728473,36.17751898702454 119.78050963275643,32.21230640716328 122.36250852196827,27.140522874782732 C116.73743951332801,30.82909271651397 108.43815736943242,33.503305851769255 108.43815736943242,42.3558734719245 C108.43815736943242,47.704299742434955 117.47515348167428,44.2923726388334 119.22722415649667,41.98701648775125 C119.22722415649667,41.98701648775125 119.22722415649667,41.98701648775125 119.22722415649667,41.98701648775125 " stroke="null" transform=""/><rect id="svg_8" x="-28.31732492969536" y="-7.62424788353519" width="166.81732650923828" height="60.40033115835074" fill="#000000" opacity="0" stroke="null" transform=""/></g><g id="svg_12" display="null" clip-id="1" stroke="null" stroke-opacity="1" transform=""><path fill="#2BA9E1" d="M69.53677349290075,223.5488260116008 L85.49999721159713,212.65577064173362 L62.73272261311047,205.99141645875062 C43.72246741346447,172.58254054464987 4.92294249315313,190.0051838723448 -8.044197951664614,221.77878668852492 C-23.690227994080885,260.0770469908807 -68.49999785820702,274.0467166716096 -68.49999785820702,274.0467166716096 C-36.608063722378404,311.97847858116495 -7.843692104482386,318.8285471963742 11.340773093535006,317.31653588975416 C30.535099234856432,315.7930201492794 82.34120837320171,300.7057768940922 71.55662337967902,233.36046459912438 C70.9929061207979,229.86147321673957 70.31250103281889,226.60078796420237 69.53677349290075,223.5488260116008 z" id="svg_13" stroke-width="0" stroke="null" transform=""/><path fill="#2B3277" d="M62.73272261311047,205.99141645875062 C65.44941249337455,210.76575650845854 67.7618036981728,216.59028702004713 69.53677349290075,223.5488260116008 L85.49999721159713,212.65577064173362 L62.73272261311047,205.99141645875062 zM37.36051549180553,248.28007181814286 C37.36051549180553,248.28007181814286 -15.88857835003148,237.29991144908996 -21.99578923633601,266.9304025871912 C-28.101356632089903,296.5543197630898 21.06366319132229,313.7485179042409 37.36051549180553,248.28007181814286 zM47.606035584707115,205.16802769286295 C47.96267303420336,208.34489492731575 46.32575644573211,211.14375933511354 43.94269514725477,211.42150923817746 C41.55141639602414,211.68939819793735 39.31955622820891,209.32605878606813 38.96620575981399,206.15412202326735 C38.60135085756434,202.97725478881455 40.23826744603565,200.17839038101675 42.62954619726622,199.90064047795283 C45.025755420148926,199.64261246149704 47.24282417300816,201.99116045841015 47.606035584707115,205.16802769286295 z" id="svg_14" stroke-width="0" stroke="null" transform=""/></g></g><defs><mask id="canvasMaskImageDef" maskUnits="objectBoundingBox" x="0" y="0"><image id="canvasMaskImage" preserveAspectRatio="none" style="pointer-events:none" x="-110" y="-49" width="400" height="344.82758620689657" xmlns:xlink="http://www.w3.org/1999/xlink" xlink:href="http://192.168.0.46/dnb_products/pc-magento-qa/designnbuy/uploads/productimage/56fd25c8404b1.png"/></mask><clipPath class="clippath" id="svg_3"><path d="M122.58186572180665,91.91768931605272 C121.79285915028706,92.82821461538153 120.57908037942173,93.2529961425897 119.42550363268082,93.07089294829642 C113.17408216632033,92.09979251034599 107.10477788604676,95.92362845138854 105.1625490265586,101.99294672345574 C104.55565964112594,103.874572460735 104.43413624938549,105.8773578031199 104.73740371271566,107.81957733474565 C104.91950224307772,109.03372922010817 104.49471138800712,110.18692352448946 103.58420008047194,110.97593009600905 C95.14787608563961,118.13787219776714 93.50930645970368,130.57975288557566 99.88187820330741,139.68356938804953 L99.82165752345814,139.68356938804953 C100.85335641968626,141.20065293369476 102.12808344367042,142.5968846936945 103.52397940062268,143.75044278471054 L103.5845545392443,143.75044278471054 C104.49508450250431,144.53908556959536 104.91987535757492,145.75325611068274 104.73777682721285,146.9068048738364 C103.76665306960635,153.21848433149586 107.52956874111736,159.2881430705418 113.59887302139093,161.16940502118626 C115.48050808653261,161.77629440661892 117.48364788768987,161.89744468386215 119.42587674717802,161.59456899075408 L119.42587674717802,161.65583439119553 C120.63965551804336,161.47336274633625 121.79323226478428,161.89852671590407 122.58220152485414,162.8094297936613 C129.74418093806196,171.2453433625467 142.18643940429888,172.88396895565722 151.2902279231855,166.51135990060374 C152.8069010428838,165.4796796601005 154.20358054028017,164.204598177344 155.35676551679904,162.8094297936613 L155.35676551679904,162.74848154054246 C156.1457907440435,161.83832469177963 157.35994262940602,161.41243314894228 158.51312760592486,161.59456899075408 C164.82516152235667,162.56599123995835 170.89485757285235,158.80311287989707 172.776492637994,152.73345414085114 C173.38299025320458,150.8514366333498 173.50447633349532,148.849043061187 173.20197375488442,146.90679554597398 L173.262157123284,146.90679554597398 C173.08007724864677,145.69268097206114 173.5056143327118,144.53944002836772 174.4157338700249,143.75044278471054 C182.85203920913239,136.5884820272276 184.49096329384065,124.14623288885309 178.1177012884171,115.0424490338977 C177.08639416241104,113.52540279970222 175.81131267965452,112.12912440039031 174.4157338700249,110.97593009600905 C173.5056143327118,110.18692352448946 173.08007724864677,108.9727716391269 173.262157123284,107.81957733474565 C174.2332808808905,101.50792586067344 170.47075697960156,95.43789867106153 164.40111689628048,93.55626826985107 L164.3401126759871,93.55626826985107 C162.45886938106747,92.94973334319076 160.45571092418538,92.82821461538153 158.51312760592486,93.13147741478048 L158.51312760592486,93.07089294829642 C157.29897572056234,93.2529961425897 156.1457907440435,92.82821461538153 155.35676551679904,91.91768931605272 C148.19445962840615,83.4813699851516 135.75255562094156,81.84242724471846 126.6483846596953,88.2153721028194 C125.1309653110026,89.24705700725389 123.73506935405035,90.52142957246568 122.58186572180665,91.91768931605272 z" id="" opacity="1" stroke="#fa4242" shapeType="cloudMirror" fill="#000" fill-opacity="0" stroke-width="6" stroke-dasharray="5,5" cursor="move" transform=""/></clipPath><filter id="ie_css_sepia" color-interpolation-filters="sRGB"><feColorMatrix type="matrix" values=".343 .669 .119 0 0             .249 .626 .130 0 0            .172 .334 .111 0 0            .000 .000 .000 1 0 "/></filter></defs></svg>