<svg xmlns="http://www.w3.org/2000/svg" width="203" height="348" x="0" y="0" id="svgcontent" viewBox="0 0 203 348" overflow="hidden"><defs><clipPath class="clippath" id="svg_4"><path d="M63.75,52.96156C66.39865,77.23537 66.39865,101.70131 63.75,125.97439C63.75,130.99675 68.25967,135.11742 73.91422,135.11742C100.90005,132.73537 128.09984,132.73537 155.08612,135.11742C160.66887,135.11742 165.25,131.06142 165.25,125.97439C162.60088,101.70131 162.60088,77.23537 165.25,52.96156C165.25,47.93923 160.74072,43.81892 155.08612,43.81892L155.08612,43.8832C128.09984,46.26524 100.90005,46.26524 73.91422,43.8832C68.33113,43.8832 63.75,47.93962 63.75,53.02583" id="svg_1" opacity="1" stroke="#000000" shapeType="roundedSquare" fill="#000" fill-opacity="0" stroke-width="4" stroke-dasharray="none"/></clipPath><clipPath class="clippath" id="svg_6"><path d="M41.75,194.62352C44.94665,220.34007 44.94665,246.26007 41.75,271.97589C41.75,277.29669 47.19273,281.66229 54.0172,281.66229C86.58627,279.13864 119.4136,279.13864 151.98334,281.66229C158.72108,281.66229 164.25,277.36517 164.25,271.97589C161.05284,246.26007 161.05284,220.34006 164.25,194.62352C164.25,189.3027 158.80782,184.9375 151.98334,184.9375L151.98334,185.00558C119.4136,187.52922 86.58627,187.52922 54.0172,185.00558C47.27897,185.00558 41.75,189.3031 41.75,194.6916" id="svg_8" opacity="1" stroke="#000000" shapeType="roundedSquare" fill="#000" fill-opacity="0" stroke-width="4" stroke-dasharray="none"/></clipPath><clipPath class="clippath" id="svg_11"><path d="M152.25,126.70771C152.25,154.29411 129.52849,176.65852 101.49998,176.65852C73.4715,176.65866 50.75,154.2948 50.75,126.70771C50.75,99.12062 73.4715,76.75697 101.50009,76.75697C129.52859,76.75697 152.25,99.12062 152.25,126.70771z" id="svg_2" opacity="1" stroke="#000000" shapeType="circle" fill="#000" fill-opacity="0" stroke-width="0" stroke-dasharray="none"/></clipPath><clipPath class="clippath" id="svg_7"><path d="M58.11941,87.46902C54.89785,91.97997 53.03629,97.35024 52.75,102.86302L52.82146,102.86302C52.53517,108.87777 53.82413,114.89209 56.4731,120.26234L56.4731,120.33424C58.54949,124.5589 61.19846,128.49725 64.20605,132.07701C66.92691,135.37088 69.93407,138.4491 73.08459,141.24185C75.51917,143.46117 78.09666,145.46651 80.74564,147.47099C82.10607,148.40135 83.39503,149.40318 84.75462,150.33437L84.68316,150.33437C87.18919,152.33929 89.40851,154.77344 91.27049,157.42284C94.63584,162.07756 96.78369,167.51845 97.42817,173.24648C104.15886,170.95526 110.60284,167.7337 116.4738,163.72345C130.15001,154.77344 141.03262,142.24367 147.90627,127.49374L147.97815,127.49374C151.62979,120.11942 153.70618,112.09975 154.20688,103.86569L154.20688,103.93674C154.49361,97.99389 153.34799,92.05145 150.84195,86.60973C148.83662,82.31318 145.75841,78.66238 141.89194,75.79773C138.88521,73.50652 135.30418,72.14609 131.50961,71.78832C124.34883,71.43014 117.33311,74.151 112.32104,79.44938C109.45724,82.45654 107.02267,85.9644 105.08838,89.68793L105.15984,89.68793C104.30054,91.40613 103.51269,93.12475 102.86863,94.91441L102.79716,94.91441C101.5082,92.90992 100.07629,90.97647 98.5725,89.11534C95.42242,85.24844 91.69888,82.02646 87.40275,79.52084C82.6774,76.65704 76.94937,75.94067 71.65057,77.65929L71.72205,77.65929C66.28074,79.44938 61.55496,82.88619 58.18961,87.54008" id="svg_9" opacity="1" stroke="#000000" shapeType="heartCurve" fill="#000" fill-opacity="0" stroke-width="0" stroke-dasharray="none"/></clipPath><filter id="svg_10" type="css_sepia" color-interpolation-filters="sRGB"><feColorMatrix type="matrix" values=".343 .669 .119 0 0             .249 .626 .130 0 0            .172 .334 .111 0 0            .000 .000 .000 1 0 "/></filter><clipPath class="clippath" id="svg_12"><path d="M58.11941,87.46902C54.89785,91.97997 53.03629,97.35024 52.75,102.86302L52.82146,102.86302C52.53517,108.87777 53.82413,114.89209 56.4731,120.26234L56.4731,120.33424C58.54949,124.5589 61.19846,128.49725 64.20605,132.07701C66.92691,135.37088 69.93407,138.4491 73.08459,141.24185C75.51917,143.46117 78.09666,145.46651 80.74564,147.47099C82.10607,148.40135 83.39503,149.40318 84.75462,150.33437L84.68316,150.33437C87.18919,152.33929 89.40851,154.77344 91.27049,157.42284C94.63584,162.07756 96.78369,167.51845 97.42817,173.24648C104.15886,170.95526 110.60284,167.7337 116.4738,163.72345C130.15001,154.77344 141.03262,142.24367 147.90627,127.49374L147.97815,127.49374C151.62979,120.11942 153.70618,112.09975 154.20688,103.86569L154.20688,103.93674C154.49361,97.99389 153.34799,92.05145 150.84195,86.60973C148.83662,82.31318 145.75841,78.66238 141.89194,75.79773C138.88521,73.50652 135.30418,72.14609 131.50961,71.78832C124.34883,71.43014 117.33311,74.151 112.32104,79.44938C109.45724,82.45654 107.02267,85.9644 105.08838,89.68793L105.15984,89.68793C104.30054,91.40613 103.51269,93.12475 102.86863,94.91441L102.79716,94.91441C101.5082,92.90992 100.07629,90.97647 98.5725,89.11534C95.42242,85.24844 91.69888,82.02646 87.40275,79.52084C82.6774,76.65704 76.94937,75.94067 71.65057,77.65929L71.72205,77.65929C66.28074,79.44938 61.55496,82.88619 58.18961,87.54008" id="svg_13" opacity="1" stroke="#000000" shapeType="heartCurve" fill="#000" fill-opacity="0" stroke-width="0" stroke-dasharray="none"/></clipPath><filter id="svg_14" type="dusk" color-interpolation-filters="sRGB"><feColorMatrix type="matrix" values="1.0 0   0   0   0            0   0.2 0   0   0             0   0   0.2 0   0             0   0   0   1.0 0 "/></filter><clipPath class="clippath" id="svg_15"><path d="M37.65353,77.95819C33.51152,83.75798 31.11809,90.6626 30.75,97.75046L30.84188,97.75046C30.47379,105.4837 32.13102,113.21641 35.53685,120.12102L35.53685,120.21346C38.20649,125.64516 41.61231,130.70877 45.4792,135.31131C48.97746,139.5463 52.8438,143.504 56.89447,147.09467C60.02464,149.94809 63.33857,152.52637 66.74439,155.10358C68.49352,156.29974 70.15076,157.5878 71.8988,158.78505L71.80692,158.78505C75.02896,161.36281 77.88237,164.49243 80.27634,167.89879C84.60323,173.88345 87.36475,180.87888 88.19336,188.24348C96.84711,185.29764 105.13222,181.15562 112.6806,175.99959C130.2643,164.49243 144.25624,148.38272 153.09377,129.41853L153.1862,129.41853C157.88116,119.93726 160.5508,109.62626 161.19456,99.03961L161.19456,99.13096C161.5632,91.49015 160.09027,83.84988 156.86823,76.85337C154.28993,71.32924 150.33224,66.63535 145.36107,62.95222C141.49527,60.00639 136.8911,58.25726 132.01236,57.79728C122.80565,57.33676 113.78543,60.83501 107.34134,67.64721C103.6593,71.51355 100.52914,76.02366 98.0422,80.81107L98.13408,80.81107C97.02926,83.02017 96.01631,85.22982 95.18824,87.53082L95.09636,87.53082C93.43911,84.95361 91.5981,82.46776 89.66465,80.07487C85.61453,75.10315 80.82713,70.96059 75.30354,67.73909C69.22808,64.05706 61.86347,63.13601 55.05074,65.34566L55.14263,65.34566C48.14666,67.64721 42.07066,72.06596 37.74379,78.04955" id="svg_18" opacity="1" shapeType="heartCurve" fill="#000" fill-opacity="0" stroke-width="0" stroke-dasharray="none" stroke="#000000"/></clipPath><filter id="svg_17" type="css_grayscale" color-interpolation-filters="sRGB"><feColorMatrix type="saturate" values="0"/></filter></defs><g mask="" style="pointer-events:all"><title style="pointer-events:inherit">Layer 1</title><g id="svg_19" display="null" clip-id="1"><path fill="#2BA9E1" d="M121.61332702636719,164.38746452331543 L126.87388610839844,160.79773807525635 L119.37109375,158.60154819488525 C113.10640716552734,147.5918956398964 100.32030487060547,153.33340167999268 96.04707336425781,163.80416202545166 C90.89104461669922,176.42507553100586 76.12430572509766,181.02867889404297 76.12430572509766,181.02867889404297 C86.63406372070312,193.52881240844727 96.11315155029297,195.78620529174805 102.43525695800781,195.28793334960938 C108.76060485839844,194.78586959838867 125.83293151855469,189.8139762878418 122.27894592285156,167.62081909179688 C122.09318542480469,166.46775245666504 121.86895751953125,165.393217086792 121.61332702636719,164.38746452331543 z" id="svg_20" stroke-width="0"/><path fill="#2B3277" d="M119.37109375,158.60154819488525 C120.26636505126953,160.1748971939087 121.02839660644531,162.09432888031006 121.61332702636719,164.38746452331543 L126.87388610839844,160.79773807525635 L119.37109375,158.60154819488525 zM111.00987243652344,172.53746604919434 C111.00987243652344,172.53746604919434 93.46202087402344,168.91903495788574 91.44943237304688,178.6835479736328 C89.43738555908203,188.4458999633789 105.63936614990234,194.11212158203125 111.00987243652344,172.53746604919434 zM114.3862075805664,158.33020687103271 C114.50373840332031,159.3771209716797 113.96430206298828,160.29946613311768 113.17898559570312,160.3909969329834 C112.39095306396484,160.4792776107788 111.65545654296875,159.70045566558838 111.53901672363281,158.65516662597656 C111.41877746582031,157.6082525253296 111.95820617675781,156.68590831756592 112.7462387084961,156.5943775177002 C113.53589630126953,156.5093469619751 114.26651000976562,157.28329277038574 114.3862075805664,158.33020687103271 z" id="svg_21" stroke-width="0"/></g></g></svg>