<svg xmlns="http://www.w3.org/2000/svg" width="198" height="272" x="0" y="0" id="svgcontent" viewBox="0 0 198 272" overflow="hidden"><defs/><g mask="" style="pointer-events:all"><title style="pointer-events:inherit">Layer 1</title><g id="svg_4" fill-opacity="1" display="null" clip-id="606" style="pointer-events:inherit"><path fill="#B00B00" d="M94.46178,131.57338C95.82669,130.62881 96.58705,129.60551 96.74449,128.50351C95.48506,129.65749 94.46178,131.04916 93.67464,132.6754L93.91077,132.6754L94.46178,131.57338M130.90642,99.61543L127.83656,103.2363C129.62022,102.34369 130.64349,101.13776 130.90642,99.61543M124.76672,105.75513L122.56273,108.27397C123.82213,107.85367 124.66122,107.01454 125.08157,105.75513L124.76672,105.75513M116.73787,113.784L116.81657,113.54782L117.21014,113.23297L117.52501,113.23297L116.73787,113.784M69.74554,126.53564L68.64355,125.98466C72.10695,130.70749 76.75108,133.95996 82.57594,135.74521L81.47395,134.3284L82.57594,134.87938L80.05708,132.43921L78.95509,132.6754L80.05708,133.77736L78.40408,132.9902C78.71893,131.99216 78.35214,131.15303 77.30211,130.47136L76.98723,130.47136L76.98723,131.57338L69.74554,125.43369L69.74554,126.53564M68.64355,125.43369C67.43607,123.54456 65.8618,122.54803 63.9207,122.44254C64.81331,124.80397 66.30888,125.98466 68.40739,125.98466L67.85641,125.19756L68.64355,125.43369M36.44946,96.86041C34.61229,93.8158 32.27762,91.2198 29.4439,89.06772C31.0182,92.37376 33.35284,94.97128 36.44946,96.86041M30.62462,89.30389C29.88944,87.67609 28.68353,86.49535 27.00376,85.76176C27.84286,87.28409 29.05034,88.46478 30.62462,89.30389M55.89185,121.81282L54.23885,121.26184C54.44824,120.99895 54.34432,120.55341 53.924,119.92369C54.7631,120.34399 55.41957,120.97218 55.89185,121.81282M50.06702,110.478L47.54815,108.27397L47.54815,109.06113C46.65555,108.32593 45.55354,107.77652 44.24215,107.40813C45.55354,109.03436 47.49619,110.05765 50.06702,110.478M24.17007,82.84935L23.61906,82.69189L25.90177,88.20189L25.58691,88.20189L25.58691,87.65089L19.99823,79.62202L23.61906,82.14091L23.61906,81.90474L24.17007,82.84935L24.72105,82.92802L23.93391,81.58994C23.67102,81.38052 23.56712,81.48601 23.61906,81.90474L15.27535,66.87038L16.45607,67.65749C15.82636,64.71831 15.64217,61.93657 15.90509,59.31381C14.69761,58.84151 14.20013,58.21179 14.40952,57.42468C14.67241,56.58398 14.69761,55.3781 14.48822,53.80383C13.01941,49.08096 13.28076,44.43683 15.27535,39.87141L17.79422,37.11642L16.14122,37.66743C16.50803,36.88029 17.37547,35.75311 18.73878,34.28273L17.79422,37.03772C18.47589,36.40799 18.92297,35.35953 19.13236,33.88914C22.28091,30.8445 25.95373,27.85492 30.15234,24.91574C34.4029,21.97812 37.23662,20.66516 38.65347,20.98003L38.33861,21.53104C41.53912,19.64191 45.15997,18.35569 49.20116,17.67405L48.96503,18.22503C48.02043,18.33052 47.36396,18.69731 46.99717,19.32704L49.75214,18.77604L48.96503,19.64191L59.74884,19.01216C58.85621,18.59184 58.48942,18.33052 58.64685,18.22503C61.11375,17.96214 65.12816,19.22313 70.69011,22.00331C76.25206,24.83704 79.92644,26.98906 81.71008,28.45787L83.67793,31.29158C84.04475,32.2881 84.96255,33.02328 86.43295,33.49556C88.47948,29.29697 91.49582,24.47021 95.48506,19.01216C99.42078,13.55572 103.54065,9.96005 107.84319,8.22835L106.97733,9.56647L113.66801,6.57535C113.93092,7.09959 114.77002,7.31053 116.18686,7.20506L119.80771,6.2605L125.86871,6.57535L125.86871,6.81148L119.80771,7.36249L120.35872,7.67735C125.76321,9.09419 130.85445,10.66849 135.62926,12.40019C142.13577,16.3359 146.88538,21.60973 149.87653,28.22174C152.86765,34.83371 155.15036,42.59964 156.72464,51.52112L157.03952,51.52112C156.77661,49.47453 156.30588,47.29575 155.62263,44.98784C154.99294,42.67993 154.88744,40.71208 155.30779,39.08427L155.62263,40.73727C155.67461,37.74612 155.17711,35.33119 154.12708,33.49556C153.13057,31.60643 152.34341,29.55988 151.76566,27.35587L152.00179,27.35587L153.10381,29.87474C152.68346,27.98558 151.84439,26.5152 150.58495,25.46674C151.21465,24.73311 151.31854,24.15536 150.89983,23.73502L150.03394,22.08205C153.44542,25.17865 155.67461,29.16631 156.72464,34.04657C156.98755,33.62625 157.27565,33.54753 157.5905,33.81042C158.27374,35.38472 158.27374,37.40451 157.5905,39.87141C158.69249,40.02884 159.42769,41.3418 159.79451,43.80713L159.2435,43.80713L158.92865,42.39027C159.19154,45.17204 159.66382,47.79634 160.34549,50.2617C161.02873,52.78053 160.84454,55.53551 159.79451,58.52666L159.79451,57.97566L158.92865,54.90579L158.37764,55.14197C158.84991,58.92023 159.0341,62.35687 158.92865,65.45351C158.4044,68.02588 157.35434,70.80609 155.78008,73.79718L152.31667,80.72404L152.00179,80.72404L153.10381,77.65422C149.53491,80.43596 146.54376,84.45039 144.13037,89.69748C141.66348,94.99648 138.82979,99.40607 135.62926,102.92143C135.68121,102.13428 135.39311,101.68721 134.7634,101.58328C135.81345,99.69415 137.20354,98.19861 138.93526,97.09659L138.69911,96.86041L137.28224,97.09659L138.69911,95.44359L140.90312,91.27176L140.03725,91.82274L142.31996,87.96576L139.8011,89.06772L135.07825,96.54561L138.69911,94.10545C136.28574,98.40797 133.5827,102.66011 130.59155,106.85715C131.16931,106.69974 131.35193,106.96101 131.14255,107.64426L124.53059,114.33499L121.14586,114.88597L116.73787,120.47469L112.80215,122.44254L110.59818,126.29951L108.63033,126.53564C108.10608,126.48212 107.3709,126.98119 106.42632,128.03125C105.53371,129.0813 104.61591,129.52679 103.67131,129.36938L106.19019,126.85056L103.12032,129.36938L103.67131,128.50351L100.60147,130.15651L100.60147,129.92038L103.59262,127.16536L106.19019,124.64651L106.19019,122.99352C107.55507,121.78606 109.1026,120.84149 110.8343,120.15982C112.5125,119.42619 114.11354,118.14001 115.63588,116.30284L113.90414,117.40482C114.32449,116.25089 115.16357,115.51569 116.42302,115.20082C117.31564,115.41023 118.44281,114.93793 119.80771,113.784L120.35872,111.57997L120.04387,111.26512L117.21014,113.23297L116.97401,113.23297L116.81657,113.54782C114.1403,116.27608 111.80566,118.29741 109.81104,119.60884L110.91302,118.27069L106.74117,121.26184L108.07932,121.02567C106.50504,122.70386 104.80008,123.8846 102.96291,124.56784C101.12572,125.19756 99.49948,126.24599 98.08263,127.71638L100.05049,126.53564L98.39749,129.60551L101.70349,127.40154C100.0253,129.65906 97.97714,131.60014 95.56377,133.22638L99.49948,130.70749L99.49948,131.57338C96.29895,135.08875 92.86073,138.42151 89.18791,141.57005C86.66908,140.83647 84.83189,139.62897 83.67793,137.9492C83.25758,138.47346 82.78532,138.65764 82.26109,138.50023C81.0536,137.18881 77.22339,134.85262 70.76883,131.49464C64.26233,128.18864 59.67014,125.35495 56.99385,122.99352L60.06372,124.33167C58.17457,122.17964 56.04929,120.49988 53.68785,119.29395C51.32644,118.14001 49.27988,116.59093 47.54815,114.64984L49.75214,115.98799C47.70558,113.0488 45.65902,110.84482 43.61244,109.37599L43.37631,109.37599L43.06145,109.92697L45.34417,112.131L45.5803,112.99684L44.79316,113.23297L41.40845,109.06113L41.40845,111.02899L40.62132,110.71413C39.41383,108.77304 37.91827,107.19876 36.13461,105.99126C38.548,106.20224 40.30647,106.96263 41.40845,108.27397L40.85745,107.09328L42.51045,107.64426L41.17233,105.75513L37.78761,104.10213L38.33861,104.8893C36.39752,103.68182 34.63905,102.29173 33.06476,100.71745L31.72663,101.58328C27.79092,99.27382 24.222,95.78365 21.02149,91.1143C17.82098,86.39148 15.45955,81.72057 13.93723,77.1032C14.77633,76.73637 15.51151,76.84029 16.14122,77.41805C16.50803,78.3107 16.6135,79.33394 16.45607,80.48792C17.97841,85.15721 20.94279,88.20189 25.35078,89.61876C26.034,90.93013 26.58344,92.60989 27.00376,94.65643L23.38293,91.03558C25.1666,94.08026 27.29188,96.93915 29.75878,99.61543L36.44946,99.3793L36.44946,99.06445L35.58362,98.51341L26.6889,86.86374L24.17007,82.84935M8.66338,55.14197L8.66338,54.35481L8.89953,55.14197L8.66338,55.14197M12.52036,37.11642C14.0427,36.64413 15.06599,35.35953 15.59023,33.25943C15.7996,34.67628 15.30055,36.61737 14.09467,39.08427C12.88718,41.49922 11.99615,43.6245 11.41837,45.46013L11.73322,55.14197L11.18224,54.35481C11.96938,56.92561 12.23228,59.23509 11.96938,61.28166L11.41837,60.41579C9.89763,56.84694 9.50404,53.01666 10.23766,48.92355L12.52036,37.11642M8.66338,43.49226C8.82081,42.39027 9.08372,41.78734 9.45052,41.68184L10.55253,40.73727L10.86739,39.87141L10.55253,44.04327L10.00153,44.04327C10.10699,45.98436 9.9228,48.03093 9.45052,50.18297C9.6599,48.5032 9.47728,47.19183 8.89953,46.24727C8.32175,50.07748 8.24306,53.51573 8.66338,56.55879C9.81733,59.60347 11.33967,62.5159 13.2288,65.29605C15.11793,68.02431 16.01056,70.858 15.90509,73.79718C17.11255,74.2695 17.29517,75.10857 16.45607,76.31607L13.62238,73.79718L8.34853,67.42136C7.14104,65.00797 6.4594,61.02034 6.30196,55.45683C6.09258,49.84135 6.51133,45.48689 7.56139,42.39027L7.79752,43.49226L8.34853,40.73727L8.66338,43.49226M18.89621,33.49556L19.21107,33.49556L19.13236,33.88914L18.73878,34.28273L18.89621,34.04657L18.89621,33.49556M17.79422,24.36473L18.66008,24.36473C17.13774,27.09297 15.51151,29.55988 13.77981,31.76387C12.10162,33.96786 10.94609,36.85353 10.31638,40.42242L10.00153,40.42242L10.31638,37.11642L9.76537,37.35257L8.66338,40.73727L8.34853,40.73727L8.34853,39.63528C10.50057,33.49556 13.64915,28.40593 17.79422,24.36473M22.51707,20.19289L24.17007,19.01216L26.45277,20.42905L26.45277,21.53104L18.10908,29.32373C18.42393,27.27718 19.15913,25.62418 20.31308,24.36473L19.99823,25.46674L22.28091,22.63303L20.62794,23.49889C20.8373,22.65979 21.46701,21.5578 22.51707,20.19289M42.51045,19.01216C41.98621,19.74738 41.3565,20.03546 40.62132,19.87804L40.62132,19.64191L41.72331,19.01216L42.51045,19.01216M116.97401,5.47336L118.39087,5.1585C119.4409,5.10654 120.17453,5.28916 120.59488,5.70949L116.97401,5.47336M133.97626,103.2363L133.97626,104.33826L133.1104,104.65317L133.97626,103.2363M150.89983,76.00122L151.45081,75.76505C151.87112,74.29469 151.68694,73.16748 150.89983,72.38037L150.34882,75.76505L150.89983,76.00122M145.86209,82.14091L146.4131,79.8582C146.83342,80.33046 147.40961,80.72404 148.14481,81.03889L150.34882,76.00122L149.79781,76.86707C150.11266,74.76852 150.00717,73.27296 149.48294,72.38037C148.06607,76.57896 146.12498,80.38242 143.65811,83.79391L145.86209,82.14091M148.93196,74.8992C149.14133,75.68631 148.87997,76.34283 148.14481,76.86707L148.93196,74.8992M146.17694,19.64191C148.11804,20.84937 149.50972,22.60626 150.34882,24.91574C148.82648,23.65631 147.43637,21.89784 146.17694,19.64191M143.65811,15.47004C145.70467,16.5201 147.46313,17.91018 148.93196,19.64191C146.51857,18.9067 144.7601,17.51662 143.65811,15.47004" id="svg_5" stroke-width="0" style="pointer-events:inherit"/></g><g id="svg_6" type="text" text="Ajay" font-size="71.93713287823464" font-family="Brush-Script" font-id="1" fill="f1f410" text-anchor="start" font-weight="normal" font-style="normal" lineHeight="1" shapeId="0" shapeVal="0" fill-opacity="1" display="null" elemBBoxWidth="147.50390625" style="pointer-events:inherit"><path id="svg_7" fill="#f1f410" d="M48.45728,217.64453C48.74503,212.10551 51.91017,209.01227 53.85241,205.12779C53.85241,205.12779 38.31441,205.55937 38.31441,205.55937C38.31441,205.55937 22.9922,220.66579 22.9922,220.66579C20.69029,222.75192 19.89899,224.47833 16.44609,224.69418C13.78451,224.83804 13.78451,222.67998 15.15128,220.80965C17.95675,217.06903 21.5535,213.54422 26.4451,211.74582C26.4451,211.74582 31.98412,205.55937 31.98412,205.55937C28.96283,205.91907 22.92027,206.06294 25.79768,202.53812C28.60315,199.08522 32.91928,194.55331 39.60925,194.69717C40.25668,194.69717 40.68828,194.69717 40.76021,195.20074C40.25668,196.78331 36.15636,195.56039 35.58087,197.07103C36.22829,198.50974 39.1057,197.43073 41.11989,197.57458C41.11989,197.57458 55.86661,185.12978 55.86661,185.12978C55.86661,185.12978 62.26884,180.09433 62.26884,180.09433C66.65689,177.14499 70.5414,173.62016 75.57687,172.25339C79.17363,172.68497 77.73492,177.21692 76.29622,179.73466C76.29622,179.73466 67.16045,195.77618 67.16045,195.77618C69.31851,195.77618 71.83623,195.3446 73.41879,196.06395C71.18881,198.58167 69.75011,201.02748 68.02367,204.19266C68.02367,204.19266 62.26884,204.40845 62.26884,204.40845C60.83013,207.21391 58.60015,209.8036 57.73694,213.04065C57.80887,213.68808 58.38433,214.19164 59.10368,214.26357C61.7653,213.68808 62.26884,212.53709 65.29012,210.37904C65.29012,210.37904 66.58496,212.17744 66.58496,212.17744C62.48465,215.7742 59.10368,220.80965 52.12599,221.31322C50.18373,221.45708 48.38535,219.58679 48.45728,217.64453C48.45728,217.64453 48.45728,217.64453 48.45728,217.64453M68.95883,179.73466C68.95883,179.73466 58.52821,187.71947 58.52821,187.71947C58.52821,187.71947 48.0976,196.85524 48.0976,196.85524C48.0976,196.85524 59.17564,196.06395 59.17564,196.06395C59.17564,196.06395 68.95883,179.73466 68.95883,179.73466M94.06422,209.44389C94.06422,209.44389 93.92036,212.46516 93.92036,212.46516C93.92036,212.46516 85.28812,217.71646 85.28812,217.71646C85.28812,217.71646 78.95781,220.80965 78.95781,220.80965C78.95781,220.80965 72.77139,230.37706 72.77139,230.37706C70.97299,232.67897 69.17462,235.91608 66.00947,236.27573C64.6427,236.41963 63.92335,235.34058 63.99528,233.97382C64.42691,226.70837 70.90106,223.03964 75.07332,219.15517C75.07332,219.15517 84.35297,201.60297 84.35297,201.60297C80.82814,203.32939 77.66299,205.55937 73.70654,206.85422C74.64171,203.04167 75.14525,199.01329 78.67007,197.64651C81.69136,196.4236 84.4249,193.61813 88.3094,193.61813C92.40971,193.61813 91.7623,197.07103 90.03584,200.38007C90.03584,200.38007 83.56166,212.24937 83.56166,212.24937C82.69846,213.76001 82.12296,215.05484 81.69136,216.1339C81.69136,216.1339 90.61133,211.45808 90.61133,211.45808C90.61133,211.45808 94.06422,209.44389 94.06422,209.44389M92.6255,183.04366C93.92036,183.04366 94.99937,184.12271 94.99937,185.41756C94.85551,188.72653 92.55357,191.46008 89.53229,191.67592C87.7339,191.81978 86.29521,190.38107 86.43909,188.51074C86.65488,185.56142 89.46036,183.25949 92.6255,183.04366C92.6255,183.04366 92.6255,183.04366 92.6255,183.04366M130.10376,209.44389C130.10376,210.45097 129.88795,211.53003 130.03181,212.46516C126.07541,215.48648 122.33475,219.01129 117.87479,221.52901C114.92545,223.18355 111.61642,222.24835 111.61642,219.01129C111.61642,215.63034 112.91125,213.9758 114.34996,210.66681C110.68123,213.61615 107.01254,216.9971 103.05614,219.51482C97.30128,223.18355 93.41678,215.91806 94.06422,209.44389C97.58905,201.81876 106.94061,198.00621 115.28511,195.12881C119.67314,193.61813 123.98924,193.61813 125.14023,197.50266C125.0683,198.7975 123.55766,198.94136 122.62253,199.37299C124.85251,200.09233 125.14023,202.53812 123.62959,204.48038C121.68733,207.07005 118.23444,209.01227 118.23444,212.89679C118.23444,214.26357 119.38542,215.27065 120.89606,214.98291C124.85251,214.19164 125.64378,212.39323 130.10376,209.44389C130.10376,209.44389 130.10376,209.44389 130.10376,209.44389M99.7471,211.02646C99.45934,212.10551 98.66806,215.41455 100.53839,215.27065C107.7319,212.89679 113.55869,205.91907 118.30637,201.02748C111.90414,202.96974 105.78964,205.12779 101.11388,209.01227C100.46646,209.6597 99.96289,210.30711 99.7471,211.02646C99.7471,211.02646 99.7471,211.02646 99.7471,211.02646M157.29527,195.20074C159.23753,193.97783 159.88495,196.92717 160.02882,198.58167C158.08656,204.912 153.84238,209.37196 150.46141,214.47935C150.46141,214.47935 145.06631,222.60805 145.06631,222.60805C150.38948,217.86032 156.07236,213.76001 161.75528,209.44389C161.6833,210.45097 161.61137,211.45808 161.6833,212.46516C153.98628,218.43581 147.36823,225.05383 141.39758,232.7509C140.3905,234.04575 139.02373,235.6283 137.58504,235.98801C134.70763,234.90895 135.13921,229.94542 137.00954,227.8593C137.00954,227.8593 147.08051,210.95453 147.08051,210.95453C147.08051,210.95453 141.03792,215.7742 141.03792,215.7742C139.23952,217.06903 136.86568,219.08324 134.99535,219.58679C129.88795,218.50774 128.95282,210.45097 131.47052,205.55937C133.98828,200.66779 138.30438,195.92009 143.41177,193.69006C145.85759,194.26555 147.44016,196.78331 145.42596,199.30106C142.69241,202.82588 139.02373,205.99101 135.4989,208.79648C134.77956,209.94746 134.276,211.24229 134.13214,212.96872C139.81502,212.10551 142.69241,209.01227 146.14531,205.70328C146.14531,205.70328 157.29527,195.20074 157.29527,195.20074" style="pointer-events:inherit"/></g></g></svg>