<svg xmlns="http://www.w3.org/2000/svg" width="225" height="405" x="0" y="0" id="svgcontent" overflow="hidden" viewBox="0 0 225 405"><g style="pointer-events:all" mask=""><title style="pointer-events:inherit">Layer 1</title><g id="svg_1" type="text" text="EPS" font-size="26.849642656631715" font-family="Brush-Script" font-id="1" fill="000000" text-anchor="start" font-weight="normal" font-style="normal" lineHeight="1" shapeId="0" shapeVal="0" fill-opacity="1" display="null" elemBBoxWidth="152.25" elemBBoxHeight="56.24894714355469" xscale="2.7066666666666666" yscale="2.7066665687674614" stroke="null" stroke-opacity="1" transform=""><path id="svg_2" fill="#000000" d="M69.05495105710216,177.3581236195514 C61.424282741056544,177.3581236195514 54.37499867766198,176.19535511424942 54.37499867766198,167.8379564823898 C57.20924690933609,155.12017595564714 70.4357386571485,152.79463894504272 81.99075067858902,148.50693008174085 C76.10423512049672,147.99821886067116 70.21771956240437,147.6348537027643 65.78466463593972,145.60000881848543 C60.47953333049847,143.2017987762996 62.87774337268425,135.9344956181609 65.63931857277694,132.95490132332407 C73.26998688882261,124.67017572304599 88.24063139458838,121.10919717555805 103.57464105826102,122.78067690192984 C107.93502295314426,123.28938812299964 106.26354322677236,126.12363635467375 106.84492747942346,129.46659580741755 C106.55423535309791,133.02757435490548 102.629891647703,132.73688222857993 100.08633554235445,134.11766982862628 C97.6154524685873,135.4257843970912 95.65328061588986,137.16993715504452 92.60101328947161,137.75132140769563 C90.78418749993693,135.57113046025404 95.65328061588986,133.82697770230072 96.96139518435473,132.0101519127661 C86.56915166821648,132.0828249443474 78.86581032058942,134.11766982862628 72.39791050984596,138.1873595971839 C70.36306562556715,139.42280113406753 69.63633530975326,141.5303190499277 71.74385322561349,142.83843361839274 C77.63036878370585,144.58258637634606 86.85984379454203,144.07387515527626 94.56318514216895,144.07387515527626 C96.30733790012232,144.07387515527626 97.90614459491275,144.2918942500205 98.05149065807564,145.67268185006685 C97.47010640542453,150.68712102918255 94.19981998426209,150.83246709234527 88.53132352091393,152.0679086292289 C77.63036878370585,154.46611867141462 67.96485558338136,156.86432871360046 62.87774337268425,164.20430490332046 C60.624879393661246,167.40191829290154 66.58406798333502,168.49201376662234 70.58108472031128,168.49201376662234 C82.5721349312401,168.49201376662234 91.58359084733218,162.46015214536726 99.7956434160289,157.95442418732125 C101.10375798449388,170.16349349299423 90.3481493104486,173.14308778783118 81.48203945751933,175.83198995634234 C77.55769575212443,177.06743149322608 73.34265992040397,177.3581236195514 69.05495105710216,177.3581236195514 C69.05495105710216,177.3581236195514 69.05495105710216,177.3581236195514 69.05495105710216,177.3581236195514 M110.33323299532992,158.46313540839094 C108.08036901630703,157.37303993467015 105.90017806886533,154.17542654508907 108.00769598472556,151.5591974081592 C110.11521390058579,148.94296827122923 114.62094185863185,148.07089189225258 118.69063162718953,146.83545035536895 C118.69063162718953,146.83545035536895 130.1729706170487,131.71945978644055 130.1729706170487,131.71945978644055 C122.1789371430961,132.44619010225438 114.25757670072483,133.97232376546344 107.7170038584,136.22518774448645 C106.69958141626057,136.58855290239342 104.81008259514454,136.9519180603004 104.44671743723768,135.8618225865796 C105.3914668477957,132.30084403909154 108.37106114263258,128.95788458634775 110.26055996374856,126.4143284809993 C114.9116339849574,123.1440420598368 126.24862691165379,121.54523536504632 134.89671766983884,121.54523536504632 C146.23371059653522,121.54523536504632 157.5707035232315,123.94344540723205 157.0619923021618,136.0071686497423 C156.2625889547666,154.75681079774017 135.8414670803968,161.73342182955332 115.42034520602704,159.62590391369315 C115.42034520602704,159.62590391369315 112.36807787960885,164.4223239980647 112.36807787960885,164.4223239980647 C115.92905642709673,166.52984191392488 110.47857905849281,170.4541856193198 109.17046449002783,172.7070495983428 C108.2257150794697,173.57912597731945 107.1356196057489,174.74189448262166 105.82750503728403,174.88724054578438 C100.30435463709853,173.43377991415673 105.60948594253978,166.0211306928552 107.1356196057489,163.55024761908805 C107.1356196057489,163.55024761908805 110.33323299532992,158.46313540839094 110.33323299532992,158.46313540839094 M148.84993973346513,133.39093951281245 C144.7075769333261,132.0101519127661 139.54779169104762,131.64678675485914 134.31533341718773,131.428767660115 C134.24266038560626,133.02757435490548 134.02464129086212,133.82697770230072 133.29791097504824,134.7717271128588 C133.29791097504824,134.7717271128588 125.15853143793288,145.81802791322957 125.15853143793288,145.81802791322957 C125.15853143793288,145.81802791322957 129.59158636439759,145.52733578690402 129.59158636439759,145.52733578690402 C131.04504699602523,145.4546627553226 130.97237396444393,146.90812338695036 129.73693242756036,147.19881551327592 C129.73693242756036,147.19881551327592 123.48705171156098,148.7976222080664 123.48705171156098,148.7976222080664 C123.48705171156098,148.7976222080664 121.88824501677055,151.12315921867082 121.88824501677055,151.12315921867082 C135.76879404881538,152.57661985029858 147.83251729132564,148.43425705015954 151.53884190197647,138.1146865656026 C152.410918280953,135.57113046025404 151.466168870395,134.3356889233704 148.84993973346513,133.39093951281245 C148.84993973346513,133.39093951281245 148.84993973346513,133.39093951281245 148.84993973346513,133.39093951281245 M191.21831714541378,138.1873595971839 C189.76485651378596,138.1873595971839 189.83752954536743,136.29786077606786 190.92762501908823,135.78914955499818 C190.92762501908823,135.78914955499818 195.28800691397146,131.9374788811847 195.28800691397146,131.9374788811847 C195.28800691397146,131.9374788811847 191.7270283664834,132.30084403909154 191.7270283664834,132.30084403909154 C182.7155724503915,133.31826648123103 173.92213562904357,134.91707317602152 168.98036948150934,140.22220448146277 C168.10829310253263,143.1291257447183 172.6140210605787,143.49249090262515 175.15757716592725,144.07387515527626 C175.15757716592725,144.07387515527626 185.69516674522828,146.4720851974621 185.69516674522828,146.4720851974621 C191.00029805066953,148.07089189225258 198.26760120880834,149.8877176817873 198.26760120880834,156.13759839778652 C198.26760120880834,161.29738364006505 194.9973147876459,165.22172734545995 188.45674194532097,168.12864860871537 C181.91616910299615,171.0355698719709 172.83204015532277,172.48903050359854 161.13168207071948,172.48903050359854 C155.02714741788304,172.48903050359854 149.2133048913721,171.0355698719709 152.19289918620888,165.65776553494823 C153.93705194416225,162.53282517694856 156.9893192705805,159.9892690716 160.9863360075567,159.9892690716 C161.4950472286264,159.9892690716 161.56772026020786,160.06194210318142 161.56772026020786,160.5706533242511 C161.34970116546373,161.73342182955332 159.89624053383596,162.1694600190417 159.09683718644072,162.82351730327412 C171.88729074476475,163.18688246118109 182.64289941881003,162.0967869874603 190.4915868295999,157.00967477676318 C193.03514293494845,154.24809957667048 188.02070375583276,152.64929288188 185.54982068206562,151.84988953448476 C180.31736240820572,150.17840980811286 174.21282775536912,149.52435252388034 168.54433129202096,148.36158401857813 C159.53287537592905,148.57960311332226 159.8235675022546,138.1873595971839 163.52989211290532,132.88222829174265 C168.7623503867652,125.39690603885981 182.49755335564726,122.19929264927885 194.70662266132035,122.19929264927885 C198.77631242987803,122.19929264927885 201.53788762997073,122.5626578071857 203.13669432476127,122.92602296509267 C206.62499984066773,123.6527532809065 205.75292346169118,129.03055761792916 204.44480889322614,130.77471037588248 C202.2646179457846,133.681631639138 196.01473722978534,135.13509227076565 192.7444508086229,137.46062928137007 C191.94504746122766,138.04201353402118 191.43633624015786,138.1873595971839 191.21831714541378,138.1873595971839 C191.21831714541378,138.1873595971839 191.21831714541378,138.1873595971839 191.21831714541378,138.1873595971839 " stroke="null" transform=""/><rect id="svg_3" x="54.375" y="121.54524211277749" width="151.21819302334552" height="55.812899818633014" fill="#000000" opacity="0" stroke="null" transform=""/></g></g></svg>