<svg xmlns="http://www.w3.org/2000/svg">
<!-- All images created with SVG-edit - http://svg-edit.googlecode.com/ -->

<g id="logo">
	<svg viewBox="0 0 478 472" xmlns:xlink="http://www.w3.org/1999/xlink" xmlns="http://www.w3.org/2000/svg">
	 <defs>
	  <linearGradient id="svg_5_1111" x1="0" y1="0" x2="1" y2="1">
	   <stop offset="0" stop-color="#ffffe0" stop-opacity="1"/>
	   <stop offset="1" stop-color="#edc39c" stop-opacity="1"/>
	  </linearGradient>
	  <linearGradient id="svg_10_1111" x1="0.57031" y1="0.78125" x2="0.28906" y2="0.41406">
	   <stop offset="0" stop-color="#ff7f00" stop-opacity="1"/>
	   <stop offset="1" stop-color="#ffff00"/>
	  </linearGradient>
	  <linearGradient id="svg_18_1111" x1="0.37891" y1="0.35938" x2="1" y2="1">
	   <stop offset="0" stop-color="#e0e0e0" stop-opacity="1"/>
	   <stop offset="1" stop-color="#666666" stop-opacity="1"/>
	  </linearGradient>
	 </defs>
	 <g>
	  <path d="m68.82031,270.04688l-22,-33l17,-35l34,2l25,15l7,-35l28,-16l25,12l100,102l21,23l-15,35l-36,9l20,49l-31,24l-49,-17l-1,31l-33,21l-31,-19l-13,-35l-30,21l-30,-9l-5,-35l16,-31l-32,-6l-15,-19l3,-36l47,-18z" id="svg_19_1111" fill="#ffffff"/>
	  <path fill="#1a171a" fill-rule="nonzero" id="path2902" d="m158.96452,155.03685c-25.02071,0 -45.37077,20.35121 -45.37077,45.3775c0,0.72217 0.01794,1.4399 0.0471,2.15645c-0.49339,-0.53604 -0.99355,-1.06085 -1.50603,-1.58452c-8.56077,-8.55519 -19.95982,-13.28413 -32.07432,-13.28413c-12.12122,0 -23.52027,4.72334 -32.08778,13.29646c-17.69347,17.69464 -17.69347,46.4619 0,64.17445c0.51809,0.51697 1.0485,1.0126 1.59015,1.50601c-0.72891,-0.03586 -1.45782,-0.04822 -2.19234,-0.04822c-25.02071,0 -45.37189,20.35117 -45.37189,45.37747c0,25.01398 20.35119,45.36517 45.37189,45.36517c0.72891,0 1.45221,-0.01236 2.1744,-0.04828c-0.5293,0.48221 -1.05412,0.98801 -1.56547,1.49368c-17.70021,17.68906 -17.70021,46.48654 -0.00628,64.18677c8.57872,8.56747 19.96655,13.2785 32.08778,13.2785c12.1145,0 23.5012,-4.71103 32.07433,-13.2785c0.51247,-0.51694 1.01823,-1.04849 1.50603,-1.57895c-0.02915,0.71213 -0.04709,1.44669 -0.04709,2.15759c0,25.01511 20.35007,45.37747 45.37077,45.37747c25.01398,0 45.37079,-20.3624 45.37079,-45.37747c0,-0.7222 -0.01689,-1.44553 -0.05266,-2.18112c0.48105,0.52933 0.97562,1.04849 1.48697,1.56662c8.57982,8.57977 19.97775,13.2908 32.1057,13.2908c12.11003,0 23.51358,-4.71103 32.0687,-13.2785c17.68906,-17.70013 17.68906,-46.48538 0,-64.17441c-0.50577,-0.4946 -1.01141,-1.00034 -1.54306,-1.48248c0.69983,0.03592 1.42316,0.04828 2.16992,0.04828c25.01514,0 45.35284,-20.35123 45.35284,-45.36517c0,-25.02631 -20.33774,-45.37747 -45.35284,-45.37747c-0.74683,0 -1.47009,0.01236 -2.19345,0.04822c0.53152,-0.49341 1.06082,-0.98904 1.59128,-1.50601c8.55521,-8.55521 13.2785,-19.94186 13.2785,-32.07545c0,-12.12793 -4.72336,-23.52028 -13.30319,-32.0934c-8.55515,-8.56076 -19.95866,-13.2841 -32.0687,-13.2841c-12.12122,0 -23.52025,4.72334 -32.08777,13.2841c-0.51137,0.5181 -1.01822,1.04851 -1.5049,1.57895c0.03586,-0.72331 0.05266,-1.43991 0.05266,-2.16881c0,-25.02629 -20.35681,-45.3775 -45.37079,-45.3775m0,20.71901c13.61607,0 24.65851,11.03122 24.65851,24.65849c0,6.62749 -2.651,12.62137 -6.9101,17.04979l0,51.67419l36.53975,-36.53523c0.12001,-6.14418 2.48277,-12.24686 7.18146,-16.94667c4.81305,-4.81305 11.12094,-7.22409 17.44116,-7.22409c6.30228,0 12.61577,2.41104 17.43552,7.22409c9.62166,9.63287 9.62166,25.24948 0,34.87669c-4.69977,4.68634 -10.80803,7.04915 -16.95334,7.18147l-36.5341,36.53305l51.66742,0c4.42841,-4.25351 10.42905,-6.90451 17.08008,-6.90451c13.59137,0 24.62933,11.03799 24.62933,24.66525c0,13.61606 -11.03796,24.66519 -24.62933,24.66519c-6.65106,0 -12.65167,-2.66333 -17.08008,-6.91681l-51.64836,0l36.50273,36.50946c6.16995,0.14465 12.26587,2.50522 16.96568,7.20618c9.6216,9.61487 9.6216,25.23151 0,34.85757c-4.80856,4.81979 -11.13327,7.22974 -17.43556,7.22974c-6.32019,0 -12.63371,-2.40991 -17.44786,-7.22974c-4.68074,-4.68744 -7.04802,-10.79572 -7.17473,-16.94098l-36.53975,-36.53415l0,51.66742c4.25908,4.44635 6.9101,10.43466 6.9101,17.0621c0,13.62729 -11.04243,24.66415 -24.65851,24.66415c-13.62166,0 -24.65848,-11.0369 -24.65848,-24.66415c0,-6.62744 2.64539,-12.61575 6.90335,-17.0621l0,-51.66742l-36.53864,36.54648c-0.12672,6.14413 -2.48838,12.26477 -7.18147,16.94098c-4.81416,4.81873 -11.12206,7.22974 -17.42882,7.22974c-6.31461,0 -12.6225,-2.41101 -17.43555,-7.22974c-9.63284,-9.62833 -9.63284,-25.24277 0,-34.8699c4.68073,-4.67627 10.79012,-7.05026 16.94101,-7.18262l36.533,-36.53302l-51.66632,0c-4.44075,4.25348 -10.42902,6.91681 -17.06211,6.91681c-13.61606,0 -24.65288,-11.04913 -24.65288,-24.66519c0,-13.62726 11.03682,-24.66525 24.65288,-24.66525c6.63309,0 12.62136,2.651 17.06211,6.90451l51.68537,0l-36.55208,-36.54538c-6.14527,-0.12 -12.25354,-2.49403 -16.94775,-7.19377c-9.62611,-9.61493 -9.62611,-25.23715 0,-34.86441c4.81419,-4.81305 11.12769,-7.22406 17.44228,-7.22406c6.30676,0 12.61465,2.41101 17.42883,7.22406c4.69978,4.69307 7.06034,10.80246 7.18144,16.94777l36.5386,36.53299l0,-51.66074c-4.25795,-4.42841 -6.90334,-10.42229 -6.90334,-17.04979c0,-13.62726 11.03682,-24.65848 24.65848,-24.65848"/>
	  <path d="m188.82031,210.04688l16,-47l155,-148l107,100l-158,156.99999l-44,12l-76,-74z" id="svg_6_1111" fill="url(#svg_10_1111)" stroke="none"/>
	  <path d="m335.57031,40.29688c-11.5,39.75 55.5,115.25 109.25,98.75l21,-20.99999l-103,-101l-27.25,23.25z" id="svg_11_1111" fill="url(#svg_18_1111)" stroke="none"/>
	  <rect x="272.80404" y="20.76382" width="42.35197" height="232.66835" id="svg_13_1111" fill="#ffffff" stroke="none" transform="rotate(45.9094, 293.98, 137.1)" opacity="0.4"/>
	  <rect x="282.80404" y="22.76382" width="14" height="232.66835" fill="#ffffff" stroke="none" transform="rotate(45.9094, 289.805, 139.1)" opacity="0.4" id="svg_14_1111"/>
	  <ellipse cx="415.13312" cy="64.38066" id="svg_12_1111" fill="#ea7598" stroke="none" rx="67.79251" ry="34.82026" transform="rotate(39.4735, 415.133, 64.379)"/>
	  <path d="m212.07031,166.04688c-8.5,47 36.25,103.75 99.25,96.75l-152.5,53.25l53.25,-150z" id="svg_4_1111" fill="url(#svg_5_1111)" stroke="none"/>
	  <path d="m181.32031,242.54688c0.5,20.5 26.75,45 46.75,48.5l-66.25,20l19.5,-68.5z" id="svg_3_1111" fill="#27382f" stroke="none"/>
	 </g>
	 <g>
	  <title>Layer 2</title>
	  <path d="m152.82031,317.04688l51,-152l157,-153c40,-12.00001 118,48 105,105l-157,152.99999l-156,47z" id="svg_1111" fill="none" stroke="#800000" stroke-width="17"/>
	 </g>
	</svg>
</g>


<g id="select">
	<svg version="1.1" id="Layer_1" xmlns="http://www.w3.org/2000/svg" xmlns:xlink="http://www.w3.org/1999/xlink" x="0px" y="0px"
	 width="20.993px" height="20.993px" viewBox="4.108 4.108 20.993 20.993" enable-background="new 4.108 4.108 20.993 20.993"
	 xml:space="preserve">
<g id="Layer_1_1_" display="none">
	<path display="inline" fill="#B8B8B8" d="M14.75,27.25c-5.107,0-9.25-2.07-9.25-4.625l0,0v-2.604c0,2.558,4.143,4.145,9.25,4.145
		c5.107,0,9.25-1.587,9.25-4.145v2.604l0,0C24,25.18,19.857,27.25,14.75,27.25z M14.75,22.625c-5.107,0-9.25-2.07-9.25-4.625v-2.603
		c0,2.557,4.143,4.144,9.25,4.144c5.107,0,9.25-1.587,9.25-4.144V18C24,20.555,19.857,22.625,14.75,22.625z M14.75,18
		c-5.107,0-9.25-2.07-9.25-4.625v-2.603c0,2.557,4.143,4.144,9.25,4.144c5.107,0,9.25-1.587,9.25-4.144v2.603
		C24,15.93,19.857,18,14.75,18z M14.75,13.375c-5.107,0-9.25-2.07-9.25-4.625V7.208c0-2.555,4.143-4.625,9.25-4.625
		c5.107,0,9.25,2.071,9.25,4.625V8.75C24,11.305,19.857,13.375,14.75,13.375z"/>
</g>
<g id="Layer_2">
	<g id="Shape_4">
		<g>
			<polygon fill="#B8B8B8" points="20.531,15 10.113,4.444 10.531,20 13.531,18 16.531,24 20.531,22 17.531,16 			"/>
		</g>
	</g>
</g>
</svg>
</g>

<g id="select_node">
	<svg version="1.1" id="Layer_1" xmlns="http://www.w3.org/2000/svg" xmlns:xlink="http://www.w3.org/1999/xlink" x="0px" y="0px"
		 width="25px" height="25px" viewBox="0 0 25 25" enable-background="new 0 0 25 25" xml:space="preserve">
	<circle id="svg_44_1111" fill="#FFFFFF" stroke="#818181" stroke-width="1.5" cx="9.063" cy="5.521" r="4.041"/>
	<path id="svg_13_1111" fill="#666666" stroke="#FFFFFF" d="M9.564,5.906l0.081,15.793l3.558-2.436l2.83,5.219l4.529-2.436l-3.559-4.452
		l4.934-0.349L9.564,5.906z"/>
	</svg>
</g>

<g id="square">
	<svg version="1.1" id="Layer_1" xmlns="http://www.w3.org/2000/svg" xmlns:xlink="http://www.w3.org/1999/xlink" x="0px" y="0px"
		 width="24px" height="24px" viewBox="0 0 24 24" enable-background="new 0 0 24 24" xml:space="preserve">
	<linearGradient id="svg_1_1_" gradientUnits="userSpaceOnUse" x1="15.4424" y1="5.1553" x2="16.0791" y2="4.2568" gradientTransform="matrix(20 0 0 -20 -302 108)">
		<stop  offset="0" style="stop-color:#FFFFFF"/>
		<stop  offset="1" style="stop-color:#666666"/>
	</linearGradient>
	<rect id="svg_1111" x="1.5" y="1.5" fill="url(#svg_1_1_)" stroke="#000000" width="20" height="20"/>
	</svg>
</g>

<g id="rect">
	<svg version="1.1" xmlns="http://www.w3.org/2000/svg" xmlns:xlink="http://www.w3.org/1999/xlink" x="0px" y="0px" width="30px"
		 height="30px" viewBox="0 0 30 30" enable-background="new 0 0 30 30" xml:space="preserve">
	<g id="Layer_1" display="none">
		<path display="inline" fill="#666666" d="M14.75,27.25c-5.107,0-9.25-2.07-9.25-4.625l0,0v-2.603c0,2.557,4.143,4.144,9.25,4.144
			S24,22.579,24,20.022v2.603l0,0C24,25.18,19.857,27.25,14.75,27.25z M14.75,22.625c-5.107,0-9.25-2.07-9.25-4.625v-2.603
			c0,2.557,4.143,4.144,9.25,4.144S24,17.954,24,15.397V18C24,20.555,19.857,22.625,14.75,22.625z M14.75,18
			c-5.107,0-9.25-2.071-9.25-4.625v-2.603c0,2.557,4.143,4.144,9.25,4.144S24,13.329,24,10.772v2.603C24,15.929,19.857,18,14.75,18z
			 M14.75,13.375c-5.107,0-9.25-2.07-9.25-4.625V7.208c0-2.555,4.143-4.625,9.25-4.625S24,4.654,24,7.208V8.75
			C24,11.305,19.857,13.375,14.75,13.375z"/>
	</g>
	<g id="Layer_2" display="none">
		<g id="Shape_4" display="inline">
			<g>
				<polygon fill-rule="evenodd" clip-rule="evenodd" fill="#666666" points="20.531,15 10.113,4.444 10.531,20 13.531,18 16.531,24 
					20.531,22 17.531,16 			"/>
			</g>
		</g>
	</g>
	<g id="Layer_3" display="none">
		<g id="paint_brush" display="inline">
			<g>
				<path fill-rule="evenodd" clip-rule="evenodd" fill="#666666" d="M11.113,16.322l4.176,4.037
					c0.567-0.689,1.493-1.814,2.567-3.121l-3.633-3.663C12.917,14.728,11.791,15.723,11.113,16.322z M5.99,21.41
					c0,4.184-4.519,3.619-4.519,3.619s10.772,5.303,13.196-3.926v0.014c0,0,0.008-0.012,0.009-0.012l-4.277-4.135
					C10.144,16.99,5.99,17.355,5.99,21.41z M28.765,2.389c-0.484-0.541-2.711,0.782-5.252,3.001c-1.426,1.248-5.375,4.73-8.565,7.546
					l3.526,3.554c2.777-3.377,6.275-7.625,7.551-9.163C28.261,4.627,29.065,2.689,28.765,2.389z"/>
			</g>
		</g>
	</g>
	<g id="Layer_4" display="none">
		<g id="fountain_pen_copy" display="inline">
			<g>
				<path fill-rule="evenodd" clip-rule="evenodd" fill="#666666" d="M5.588,17.331L2.317,27.21l4.371-4.35
					c-0.301-0.754-0.226-2.039,0.388-2.648c0.823-0.816,2.177-0.797,3,0.02c0.824,0.816,0.868,2.186,0.045,3.002
					c-0.626,0.621-2.002,0.658-2.77,0.336L3.02,27.878l9.722-3.389l3.54-6.326l-4.313-4.222L5.588,17.331z M24.813,5.534
					l-2.834-2.813c0,0-6.023,5.976-6.953,6.898c-0.931,0.923-1.418,4.394-1.418,4.394l2.702,2.681c0,0,3.41-0.484,4.384-1.45
					c0.975-0.967,6.953-6.898,6.953-6.898L24.813,5.534z"/>
			</g>
		</g>
	</g>
	<g id="Layer_5">
		<g id="Rectangle_3">
			<g>
				<rect x="5.056" y="7.49" fill-rule="evenodd" clip-rule="evenodd" fill="#666666" width="21" height="14"/>
			</g>
		</g>
	</g>
	</svg>
</g>

<g id="fh_rect">
	<svg version="1.1" id="Layer_1" xmlns="http://www.w3.org/2000/svg" xmlns:xlink="http://www.w3.org/1999/xlink" x="0px" y="0px"
		 width="24px" height="24px" viewBox="0 0 24 24" enable-background="new 0 0 24 24" xml:space="preserve">
	<linearGradient id="svg_1_1_" gradientUnits="userSpaceOnUse" x1="13.4854" y1="7.7119" x2="14.1221" y2="6.8135" gradientTransform="matrix(23.0769 0 0 -23.0769 -304.4615 182.2272)">
		<stop  offset="0" style="stop-color:#FFFFFF"/>
		<stop  offset="1" style="stop-color:#666666"/>
	</linearGradient>
	<rect id="svg_1111" x="0.577" y="0.346" fill="url(#svg_1_1_)" stroke="#000000" width="23.077" height="23.077"/>
	<linearGradient id="svg_2_1_" gradientUnits="userSpaceOnUse" x1="27.998" y1="5.3945" x2="28.2781" y2="5.1357" gradientTransform="matrix(10.7308 0 0 -20.4231 -288.369 116.8666)">
		<stop  offset="0" style="stop-color:#FFFFFF"/>
		<stop  offset="1" style="stop-color:#666666"/>
	</linearGradient>
	<path id="svg_2_1111" fill="url(#svg_2_1_)" stroke="#000000" stroke-width="0.9074" d="M14.547,1l-3.665,8.48l0.314,10.053l6.911-6.91
		l2.513-5.235"/>
	<path id="svg_10_1111" fill="#F7F4F0" stroke="#000000" stroke-width="0.9074" d="M17.896,13.881c-0.837-3.875-4.292-4.922-7.119-3.116
		l0.202,10.237L17.896,13.881z"/>
	<path id="svg_11_1111" stroke="#000000" stroke-width="1.8149" d="M12.633,18.244c-0.188-0.984-0.964-1.25-1.599-0.791l0.045,2.602
		L12.633,18.244z"/>
	</svg>
</g>

<g id="circle">
	<svg xmlns:xlink="http://www.w3.org/1999/xlink" xmlns="http://www.w3.org/2000/svg" viewBox="0 0 54 54">
	 <defs>
	  <linearGradient y2="1.0" x2="1.0" y1="0.1875" x1="0.171875" id="svg_4_1111">
	   <stop stop-opacity="1" stop-color="#ffffff" offset="0.0"/>
	   <stop stop-opacity="1" stop-color="#666666" offset="1.0"/>
	  </linearGradient>
	 </defs>
	 <g>
	  <circle stroke-opacity="1" fill-opacity="1" stroke-width="2" stroke="#000000" fill="url(#svg_4_1111)" id="svg_1111" r="23" cy="27" cx="27"/>
	 </g>
	</svg>
</g>

<g id="ellipse">
	<svg version="1.1" xmlns="http://www.w3.org/2000/svg" xmlns:xlink="http://www.w3.org/1999/xlink" x="0px" y="0px" width="30px"
		 height="30px" viewBox="0 0 30 30" enable-background="new 0 0 30 30" xml:space="preserve">
	<g id="Layer_1" display="none">
		<path display="inline" fill="#666666" d="M14.75,27.25c-5.107,0-9.25-2.07-9.25-4.625l0,0v-2.603c0,2.557,4.143,4.144,9.25,4.144
			S24,22.579,24,20.022v2.603l0,0C24,25.18,19.857,27.25,14.75,27.25z M14.75,22.625c-5.107,0-9.25-2.07-9.25-4.625v-2.603
			c0,2.557,4.143,4.144,9.25,4.144S24,17.954,24,15.397V18C24,20.555,19.857,22.625,14.75,22.625z M14.75,18
			c-5.107,0-9.25-2.071-9.25-4.625v-2.603c0,2.557,4.143,4.144,9.25,4.144S24,13.329,24,10.772v2.603C24,15.929,19.857,18,14.75,18z
			 M14.75,13.375c-5.107,0-9.25-2.07-9.25-4.625V7.208c0-2.555,4.143-4.625,9.25-4.625S24,4.654,24,7.208V8.75
			C24,11.305,19.857,13.375,14.75,13.375z"/>
	</g>
	<g id="Layer_2" display="none">
		<g id="Shape_4" display="inline">
			<g>
				<polygon fill-rule="evenodd" clip-rule="evenodd" fill="#666666" points="20.531,15 10.113,4.444 10.531,20 13.531,18 16.531,24 
					20.531,22 17.531,16 			"/>
			</g>
		</g>
	</g>
	<g id="Layer_3" display="none">
		<g id="paint_brush" display="inline">
			<g>
				<path fill-rule="evenodd" clip-rule="evenodd" fill="#666666" d="M11.113,16.322l4.176,4.037
					c0.567-0.689,1.493-1.814,2.567-3.121l-3.633-3.663C12.917,14.728,11.791,15.723,11.113,16.322z M5.99,21.41
					c0,4.184-4.519,3.619-4.519,3.619s10.772,5.303,13.196-3.926v0.014c0,0,0.008-0.012,0.009-0.012l-4.277-4.135
					C10.144,16.99,5.99,17.355,5.99,21.41z M28.765,2.389c-0.484-0.541-2.711,0.782-5.252,3.001c-1.426,1.248-5.375,4.73-8.565,7.546
					l3.526,3.554c2.777-3.377,6.275-7.625,7.551-9.163C28.261,4.627,29.065,2.689,28.765,2.389z"/>
			</g>
		</g>
	</g>
	<g id="Layer_4" display="none">
		<g id="fountain_pen_copy" display="inline">
			<g>
				<path fill-rule="evenodd" clip-rule="evenodd" fill="#666666" d="M5.588,17.331L2.317,27.21l4.371-4.35
					c-0.301-0.754-0.226-2.039,0.388-2.648c0.823-0.816,2.177-0.797,3,0.02c0.824,0.816,0.868,2.186,0.045,3.002
					c-0.626,0.621-2.002,0.658-2.77,0.336L3.02,27.878l9.722-3.389l3.54-6.326l-4.313-4.222L5.588,17.331z M24.813,5.534
					l-2.834-2.813c0,0-6.023,5.976-6.953,6.898c-0.931,0.923-1.418,4.394-1.418,4.394l2.702,2.681c0,0,3.41-0.484,4.384-1.45
					c0.975-0.967,6.953-6.898,6.953-6.898L24.813,5.534z"/>
			</g>
		</g>
	</g>
	<g id="Layer_5" display="none">
		<g id="Rectangle_3" display="inline">
			<g>
				<rect x="5.056" y="7.49" fill-rule="evenodd" clip-rule="evenodd" fill="#666666" width="21" height="14"/>
			</g>
		</g>
	</g>
	<g id="Layer_6">
		<g id="Ellipse_2">
			<g>
				<ellipse fill-rule="evenodd" clip-rule="evenodd" fill="#666666" cx="14.871" cy="14.049" rx="11.5" ry="8"/>
			</g>
		</g>
	</g>
	</svg>
</g>

<g id="fh_ellipse">
	<svg version="1.1" id="Layer_1" xmlns="http://www.w3.org/2000/svg" xmlns:xlink="http://www.w3.org/1999/xlink" x="0px" y="0px"
		 width="24px" height="24px" viewBox="0 0 24 24" enable-background="new 0 0 24 24" xml:space="preserve">
	<linearGradient id="svg_1_1_" gradientUnits="userSpaceOnUse" x1="14.501" y1="-10.3047" x2="15.3291" y2="-11.1172" gradientTransform="matrix(21.2308 0 0 -11.0769 -302.2752 -100.5775)">
		<stop  offset="0" style="stop-color:#FFFFFF"/>
		<stop  offset="1" style="stop-color:#666666"/>
	</linearGradient>
	<ellipse id="svg_1111" fill="url(#svg_1_1_)" stroke="#000000" cx="12.461" cy="17.077" rx="10.616" ry="5.538"/>
	<linearGradient id="svg_2_1_" gradientUnits="userSpaceOnUse" x1="27.9727" y1="5.4146" x2="28.2812" y2="5.1294" gradientTransform="matrix(10.7308 0 0 -20.4231 -288.369 116.8666)">
		<stop  offset="0" style="stop-color:#FFFFFF"/>
		<stop  offset="1" style="stop-color:#666666"/>
	</linearGradient>
	<path id="svg_2_1111" fill="url(#svg_2_1_)" stroke="#000000" d="M14.539,0L10.5,9.346l0.346,11.077l7.615-7.615l2.77-5.769"/>
	<path id="svg_10_1111" fill="#F7F4F0" stroke="#000000" d="M18.23,13.154c-0.923-4.27-4.73-5.423-7.846-3.433l0.223,11.281L18.23,13.154z
		"/>
	<path id="svg_11_1111" stroke="#000000" stroke-width="2" d="M12.43,19.004c-0.208-1.086-1.063-1.379-1.762-0.873l0.05,2.867
		L12.43,19.004z"/>
	</svg>
</g>

<g id="pencil">
	<svg version="1.1" xmlns="http://www.w3.org/2000/svg" xmlns:xlink="http://www.w3.org/1999/xlink" x="0px" y="0px" width="30px"
		 height="30px" viewBox="0 0 30 30" enable-background="new 0 0 30 30" xml:space="preserve">
	<g id="Layer_1" display="none">
		<path display="inline" fill="#666666" d="M14.75,27.25c-5.107,0-9.25-2.07-9.25-4.625l0,0v-2.603c0,2.557,4.143,4.144,9.25,4.144
			S24,22.579,24,20.022v2.603l0,0C24,25.18,19.857,27.25,14.75,27.25z M14.75,22.625c-5.107,0-9.25-2.07-9.25-4.625v-2.603
			c0,2.557,4.143,4.144,9.25,4.144S24,17.954,24,15.397V18C24,20.555,19.857,22.625,14.75,22.625z M14.75,18
			c-5.107,0-9.25-2.071-9.25-4.625v-2.603c0,2.557,4.143,4.144,9.25,4.144S24,13.329,24,10.772v2.603C24,15.929,19.857,18,14.75,18z
			 M14.75,13.375c-5.107,0-9.25-2.07-9.25-4.625V7.208c0-2.555,4.143-4.625,9.25-4.625S24,4.654,24,7.208V8.75
			C24,11.305,19.857,13.375,14.75,13.375z"/>
	</g>
	<g id="Layer_2" display="none">
		<g id="Shape_4" display="inline">
			<g>
				<polygon fill-rule="evenodd" clip-rule="evenodd" fill="#666666" points="20.531,15 10.113,4.444 10.531,20 13.531,18 16.531,24 
					20.531,22 17.531,16 			"/>
			</g>
		</g>
	</g>
	<g id="Layer_3">
		<g id="paint_brush">
			<g>
				<path fill-rule="evenodd" clip-rule="evenodd" fill="#666666" d="M11.113,16.322l4.176,4.037
					c0.567-0.689,1.493-1.814,2.567-3.121l-3.633-3.663C12.917,14.728,11.791,15.723,11.113,16.322z M5.99,21.41
					c0,4.184-4.519,3.619-4.519,3.619s10.772,5.303,13.196-3.926v0.014c0,0,0.008-0.012,0.009-0.012l-4.277-4.135
					C10.144,16.99,5.99,17.355,5.99,21.41z M28.765,2.389c-0.484-0.541-2.711,0.782-5.252,3.001c-1.426,1.248-5.375,4.73-8.565,7.546
					l3.526,3.554c2.777-3.377,6.275-7.625,7.551-9.163C28.261,4.627,29.065,2.689,28.765,2.389z"/>
			</g>
		</g>
	</g>
	</svg>
</g>

<g id="pen_old">
	<svg version="1.1" xmlns="http://www.w3.org/2000/svg" xmlns:xlink="http://www.w3.org/1999/xlink" x="0px" y="0px" width="30px"
	 height="30px" viewBox="0 0 30 30" enable-background="new 0 0 30 30" xml:space="preserve">
	<g id="Layer_4">
	<g id="fountain_pen_copy">
		<g>
			<path fill-rule="evenodd" clip-rule="evenodd" fill="#666666" d="M5.588,17.331L2.317,27.21l4.371-4.35
				c-0.301-0.754-0.226-2.039,0.388-2.648c0.823-0.816,2.177-0.797,3,0.02c0.824,0.816,0.868,2.186,0.045,3.002
				c-0.626,0.621-2.002,0.658-2.77,0.336L3.02,27.878l9.722-3.389l3.54-6.326l-4.313-4.222L5.588,17.331z M24.813,5.534
				l-2.834-2.813c0,0-6.023,5.976-6.953,6.898c-0.931,0.923-1.418,4.394-1.418,4.394l2.702,2.681c0,0,3.41-0.484,4.384-1.45
				c0.975-0.967,6.953-6.898,6.953-6.898L24.813,5.534z"/>
		</g>
	</g>
</g>
</svg>
</g>

<g id="pen">
	<svg version="1.1" xmlns="http://www.w3.org/2000/svg" xmlns:xlink="http://www.w3.org/1999/xlink" x="0px" y="0px" width="30px"
	 height="30px" viewBox="0 0 30 30" enable-background="new 0 0 30 30" xml:space="preserve">
<g>
	<line stroke-opacity="1" fill-opacity="1" y2="3" x2="27" y1="28" x1="2" style="pointer-events:inherit" stroke="#000000" fill="none">
		</line>
</g>
</svg>
</g>

<g id="text">
	<svg version="1.1" xmlns="http://www.w3.org/2000/svg" xmlns:xlink="http://www.w3.org/1999/xlink" x="0px" y="0px" width="30px"
	 height="30px" viewBox="0 0 30 30" enable-background="new 0 0 30 30" xml:space="preserve">
<g id="Layer_1" display="none">
	<path display="inline" fill="#666666" d="M14.75,27.25c-5.107,0-9.25-2.07-9.25-4.625l0,0v-2.603c0,2.557,4.143,4.144,9.25,4.144
		S24,22.579,24,20.022v2.603l0,0C24,25.18,19.857,27.25,14.75,27.25z M14.75,22.625c-5.107,0-9.25-2.07-9.25-4.625v-2.603
		c0,2.557,4.143,4.144,9.25,4.144S24,17.954,24,15.397V18C24,20.555,19.857,22.625,14.75,22.625z M14.75,18
		c-5.107,0-9.25-2.071-9.25-4.625v-2.603c0,2.557,4.143,4.144,9.25,4.144S24,13.329,24,10.772v2.603C24,15.929,19.857,18,14.75,18z
		 M14.75,13.375c-5.107,0-9.25-2.07-9.25-4.625V7.208c0-2.555,4.143-4.625,9.25-4.625S24,4.654,24,7.208V8.75
		C24,11.305,19.857,13.375,14.75,13.375z"/>
</g>
<g id="Layer_2" display="none">
	<g id="Shape_4" display="inline">
		<g>
			<polygon fill-rule="evenodd" clip-rule="evenodd" fill="#666666" points="20.531,15 10.113,4.444 10.531,20 13.531,18 16.531,24 
				20.531,22 17.531,16 			"/>
		</g>
	</g>
</g>
<g id="Layer_3" display="none">
	<g id="paint_brush" display="inline">
		<g>
			<path fill-rule="evenodd" clip-rule="evenodd" fill="#666666" d="M11.113,16.322l4.176,4.037
				c0.567-0.689,1.493-1.814,2.567-3.121l-3.633-3.663C12.917,14.728,11.791,15.723,11.113,16.322z M5.99,21.41
				c0,4.184-4.519,3.619-4.519,3.619s10.772,5.303,13.196-3.926v0.014c0,0,0.008-0.012,0.009-0.012l-4.277-4.135
				C10.144,16.99,5.99,17.355,5.99,21.41z M28.765,2.389c-0.484-0.541-2.711,0.782-5.252,3.001c-1.426,1.248-5.375,4.73-8.565,7.546
				l3.526,3.554c2.777-3.377,6.275-7.625,7.551-9.163C28.261,4.627,29.065,2.689,28.765,2.389z"/>
		</g>
	</g>
</g>
<g id="Layer_4" display="none">
	<g id="fountain_pen_copy" display="inline">
		<g>
			<path fill-rule="evenodd" clip-rule="evenodd" fill="#666666" d="M5.588,17.331L2.317,27.21l4.371-4.35
				c-0.301-0.754-0.226-2.039,0.388-2.648c0.823-0.816,2.177-0.797,3,0.02c0.824,0.816,0.868,2.186,0.045,3.002
				c-0.626,0.621-2.002,0.658-2.77,0.336L3.02,27.878l9.722-3.389l3.54-6.326l-4.313-4.222L5.588,17.331z M24.813,5.534
				l-2.834-2.813c0,0-6.023,5.976-6.953,6.898c-0.931,0.923-1.418,4.394-1.418,4.394l2.702,2.681c0,0,3.41-0.484,4.384-1.45
				c0.975-0.967,6.953-6.898,6.953-6.898L24.813,5.534z"/>
		</g>
	</g>
</g>
<g id="Layer_5" display="none">
	<g id="Rectangle_3" display="inline">
		<g>
			<rect x="5.056" y="7.49" fill-rule="evenodd" clip-rule="evenodd" fill="#666666" width="21" height="14"/>
		</g>
	</g>
</g>
<g id="Layer_6" display="none">
	<g id="Ellipse_2" display="inline">
		<g>
			<ellipse fill-rule="evenodd" clip-rule="evenodd" fill="#666666" cx="14.871" cy="14.049" rx="11.5" ry="8"/>
		</g>
	</g>
</g>
<g id="Layer_7" display="none">
	<g id="Shape_2" display="inline">
		<g>
			<path fill-rule="evenodd" clip-rule="evenodd" fill="#666666" d="M22.679,11.892c1.649-7.845-7.7-6.724-7.7-6.724l-11,17.929h22
				C15.804,18.055,21.028,19.736,22.679,11.892z"/>
		</g>
	</g>
</g>
<g id="Layer_8">
	
		<text transform="matrix(1 0 0 1 6.3188 21.3984)" fill="#878787" font-family="'TimesNewRomanPS-BoldMT'" font-size="24" letter-spacing="1">T</text>
</g>
</svg>
</g>


<g id="path">
	<svg version="1.1" xmlns="http://www.w3.org/2000/svg" xmlns:xlink="http://www.w3.org/1999/xlink" x="0px" y="0px" width="30px"
		 height="30px" viewBox="0 0 30 30" enable-background="new 0 0 30 30" xml:space="preserve">
	<g id="Layer_1" display="none">
		<path display="inline" fill="#666666" d="M14.75,27.25c-5.107,0-9.25-2.07-9.25-4.625l0,0v-2.603c0,2.557,4.143,4.144,9.25,4.144
			S24,22.579,24,20.022v2.603l0,0C24,25.18,19.857,27.25,14.75,27.25z M14.75,22.625c-5.107,0-9.25-2.07-9.25-4.625v-2.603
			c0,2.557,4.143,4.144,9.25,4.144S24,17.954,24,15.397V18C24,20.555,19.857,22.625,14.75,22.625z M14.75,18
			c-5.107,0-9.25-2.071-9.25-4.625v-2.603c0,2.557,4.143,4.144,9.25,4.144S24,13.329,24,10.772v2.603C24,15.929,19.857,18,14.75,18z
			 M14.75,13.375c-5.107,0-9.25-2.07-9.25-4.625V7.208c0-2.555,4.143-4.625,9.25-4.625S24,4.654,24,7.208V8.75
			C24,11.305,19.857,13.375,14.75,13.375z"/>
	</g>
	<g id="Layer_2" display="none">
		<g id="Shape_4" display="inline">
			<g>
				<polygon fill-rule="evenodd" clip-rule="evenodd" fill="#666666" points="20.531,15 10.113,4.444 10.531,20 13.531,18 16.531,24 
					20.531,22 17.531,16 			"/>
			</g>
		</g>
	</g>
	<g id="Layer_3" display="none">
		<g id="paint_brush" display="inline">
			<g>
				<path fill-rule="evenodd" clip-rule="evenodd" fill="#666666" d="M11.113,16.322l4.176,4.037
					c0.567-0.689,1.493-1.814,2.567-3.121l-3.633-3.663C12.917,14.728,11.791,15.723,11.113,16.322z M5.99,21.41
					c0,4.184-4.519,3.619-4.519,3.619s10.772,5.303,13.196-3.926v0.014c0,0,0.008-0.012,0.009-0.012l-4.277-4.135
					C10.144,16.99,5.99,17.355,5.99,21.41z M28.765,2.389c-0.484-0.541-2.711,0.782-5.252,3.001c-1.426,1.248-5.375,4.73-8.565,7.546
					l3.526,3.554c2.777-3.377,6.275-7.625,7.551-9.163C28.261,4.627,29.065,2.689,28.765,2.389z"/>
			</g>
		</g>
	</g>
	<g id="Layer_4" display="none">
		<g id="fountain_pen_copy" display="inline">
			<g>
				<path fill-rule="evenodd" clip-rule="evenodd" fill="#666666" d="M5.588,17.331L2.317,27.21l4.371-4.35
					c-0.301-0.754-0.226-2.039,0.388-2.648c0.823-0.816,2.177-0.797,3,0.02c0.824,0.816,0.868,2.186,0.045,3.002
					c-0.626,0.621-2.002,0.658-2.77,0.336L3.02,27.878l9.722-3.389l3.54-6.326l-4.313-4.222L5.588,17.331z M24.813,5.534
					l-2.834-2.813c0,0-6.023,5.976-6.953,6.898c-0.931,0.923-1.418,4.394-1.418,4.394l2.702,2.681c0,0,3.41-0.484,4.384-1.45
					c0.975-0.967,6.953-6.898,6.953-6.898L24.813,5.534z"/>
			</g>
		</g>
	</g>
	<g id="Layer_5" display="none">
		<g id="Rectangle_3" display="inline">
			<g>
				<rect x="5.056" y="7.49" fill-rule="evenodd" clip-rule="evenodd" fill="#666666" width="21" height="14"/>
			</g>
		</g>
	</g>
	<g id="Layer_6" display="none">
		<g id="Ellipse_2" display="inline">
			<g>
				<ellipse fill-rule="evenodd" clip-rule="evenodd" fill="#666666" cx="14.871" cy="14.049" rx="11.5" ry="8"/>
			</g>
		</g>
	</g>
	<g id="Layer_7">
		<g id="Shape_2">
			<g>
				<path fill-rule="evenodd" clip-rule="evenodd" fill="#666666" d="M22.679,11.892c1.649-7.845-7.7-6.724-7.7-6.724l-11,17.929h22
					C15.804,18.055,21.028,19.736,22.679,11.892z"/>
			</g>
		</g>
	</g>
	</svg>
</g>

<g id="add_subpath">
	<svg xmlns="http://www.w3.org/2000/svg" viewBox="0 0 124 124" xmlns:xlink="http://www.w3.org/1999/xlink">
	 <defs>
	  <linearGradient id="svg_4_1111" x1="0.33594" y1="0.28125" x2="1" y2="1">
	   <stop offset="0" stop-color="#ffffff" stop-opacity="1"/>
	   <stop offset="1" stop-color="#33a533" stop-opacity="1"/>
	  </linearGradient>
	 </defs>
	 <g>
	  <path d="m6,103l55,-87c85,33.64 -26,37.12 55,87l-110,0z" id="svg_1111" fill="url(#svg_4_1111)" stroke="#000000" stroke-width="4" stroke-dasharray="null"/>
	  <g id="svg_7_1111">
	   <circle stroke-dasharray="null" stroke-width="5" stroke="#000000" fill="#ffffff" id="svg_6_1111" r="22.63281" cy="88.5" cx="45.5"/>
	   <line stroke-dasharray="null" stroke-width="7" stroke="#000000" id="svg_2_1111" y2="104.03768" x2="45.5" y1="72.96232" x1="45.5"/>
	   <line stroke-dasharray="null" stroke-width="7" stroke="#000000" id="svg_3_1111" y2="88.5" x2="61.03768" y1="88.5" x1="29.96232"/>
	  </g>
	 </g>
	 </svg>
</g>

<g id="close_path">
	<svg viewBox="0 0 300 300" xmlns="http://www.w3.org/2000/svg" xmlns:xlink="http://www.w3.org/1999/xlink">
	 <g>
	  <path stroke="#000" stroke-width="15" fill="#ffc8c8" d="m121.5,40l-84,106l27,115l166,2l29,-111"/>
	  <line x1="240" y1="136" x2="169.5" y2="74" stroke="#A00" stroke-width="25" fill="none"/>
	  <path stroke="none" fill ="#A00" d="m158,65l31,74l-3,-50l51,-3z"/>
	  <g stroke-width="15" stroke="#00f" fill="#0ff">
	  <circle r="30" cy="41" cx="123"/>
	  <circle r="30" cy="146" cx="40"/>
	  <circle r="30" cy="260" cx="69"/>
	  <circle r="30" cy="260" cx="228"/>
	  <circle r="30" cy="148" cx="260"/>
	  </g>
	 </g>
	</svg>
</g>

<g id="facebook">
	<svg xmlns="http://www.w3.org/2000/svg" viewBox="0 0 24 24" xmlns:xlink="http://www.w3.org/1999/xlink">
	<g>
		<path fill-rule="evenodd" clip-rule="evenodd" fill="#6C6C6C" d="M18.417,6.959h2.594v-3.99h-3.323v0.017
			c-4.404,0.155-5.59,2.632-5.669,5.233H12.01v2.75h-3v3.99h3v12.01H17v-12.01h3.031l0.729-3.99H17V8.511
			C17,7.636,17.583,6.959,18.417,6.959z"/>
	</g>
	</svg>
</g>

<g id="twitter">
	<svg xmlns="http://www.w3.org/2000/svg" viewBox="0 0 27 27" xmlns:xlink="http://www.w3.org/1999/xlink">
	<g>
		<path fill-rule="evenodd" clip-rule="evenodd" fill="#6C6C6C" d="M27,7.843c-0.404,0.223-1.617,0.669-2.746,0.779
			c0.725-0.391,1.798-1.671,2.063-2.689c-0.697,0.447-2.298,1.096-3.088,1.096c0,0,0,0.001,0,0.002
			c-0.901-0.942-2.171-1.687-3.578-1.687c-2.734,0-4.732,2.373-4.732,5.106c0,0.38,0.044,0.75,0.125,1.105h-0.001
			C11.333,11.458,7.059,9.412,4.616,6.23c-1.501,2.599-0.202,5.676,1.502,6.729c-0.583,0.044-1.657-0.067-2.162-0.561
			c-0.034,1.725,0.795,4.01,3.819,4.839c-0.582,0.313-1.613,0.224-2.062,0.157c0.157,1.456,2.196,3.359,4.426,3.359
			C9.345,21.674,6.355,23.341,3,22.811C5.278,24.197,7.935,25,10.745,25c7.988,0,14.535-6.474,14.201-14.46
			c-0.001-0.009-0.001-0.018-0.002-0.027c0.001-0.021,0.002-0.041,0.002-0.063c0-0.024-0.002-0.048-0.003-0.072
			C25.671,9.881,26.303,9.001,27,7.843z"/>
	</g>
	</svg>
</g>
<g id="pinterest">
	<svg xmlns="http://www.w3.org/2000/svg" viewBox="0 0 27 27" xmlns:xlink="http://www.w3.org/1999/xlink">
	<g>
		<path fill-rule="evenodd" clip-rule="evenodd" fill="#6C6C6C" d="M15.5,3.135c-6.627,0-12,5.373-12,12
			c0,4.939,2.985,9.182,7.249,11.023c-0.031-0.836-0.001-1.834,0.211-2.738c0.232-0.977,1.551-6.563,1.551-6.563
			s-0.385-0.77-0.385-1.906c0-1.783,1.035-3.117,2.322-3.117c1.096,0,1.625,0.824,1.625,1.81c0,1.101-0.702,2.747-1.064,4.272
			c-0.301,1.277,0.643,2.32,1.902,2.32c2.28,0,3.816-2.931,3.816-6.404c0-2.639-1.775-4.615-5.01-4.615
			c-3.652,0-5.931,2.725-5.931,5.769c0,1.049,0.311,1.79,0.796,2.362c0.223,0.263,0.253,0.369,0.172,0.672
			c-0.059,0.221-0.188,0.754-0.244,0.967c-0.08,0.305-0.328,0.412-0.604,0.3c-1.682-0.686-2.467-2.528-2.467-4.6
			c0-3.422,2.886-7.524,8.607-7.524c4.6,0,7.625,3.328,7.625,6.898c0,4.727-2.627,8.255-6.498,8.255c-1.301,0-2.524-0.703-2.941-1.5
			c0,0-0.701,2.772-0.848,3.31c-0.253,0.915-0.74,1.829-1.191,2.549c1.049,0.3,2.158,0.461,3.306,0.461c6.627,0,12-5.373,12-12
			S22.127,3.135,15.5,3.135z"/>
	</g>
	</svg>
</g>

<g id="open_path">
	<svg viewBox="0 0 300 300" xmlns="http://www.w3.org/2000/svg" xmlns:xlink="http://www.w3.org/1999/xlink">
	 <g>
	  <path stroke="#000" stroke-width="15" fill="#ffc8c8" d="m123.5,38l-84,106l27,115l166,2l29,-111"/>
	  <line x1="276.5" y1="153" x2="108.5" y2="24" stroke="#000" stroke-width="10" fill="none"/>
	  <g stroke-width="15" stroke="#00f" fill="#0ff">
	   <circle r="30" cy="41" cx="123"/>
	   <circle r="30" cy="146" cx="40"/>
	   <circle r="30" cy="260" cx="69"/>
	   <circle r="30" cy="260" cx="228"/>
	   <circle r="30" cy="148" cx="260"/>
	  </g>
	  <g  stroke="#A00" stroke-width="15" fill="none">
	   <line x1="168" y1="24" x2="210" y2="150"/>
	   <line x1="210" y1="24" x2="168" y2="150"/>
	  </g>
	 </g>
	</svg>
</g>

<g id="image">
	<svg xmlns:xlink="http://www.w3.org/1999/xlink" xmlns="http://www.w3.org/2000/svg" viewBox="0 0 24 24">
	 <defs>
	  <linearGradient y2="1" x2="1" y1="0" x1="1" id="svg_25_1111">
	   <stop stop-opacity="1" stop-color="#10284c" offset="0"/>
	   <stop stop-opacity="1" stop-color="#5374ad" offset="1"/>
	  </linearGradient>
	  <linearGradient y2="0.75781" x2="0.99609" y1="0" x1="1" id="svg_23_1111">
	   <stop stop-opacity="1" stop-color="#162e84" offset="0"/>
	   <stop stop-opacity="1" stop-color="#97c4ef" offset="1"/>
	  </linearGradient>
	 </defs>
	  <rect x="1" y="3.83333" width="22" height="17" id="svg_18_1111" fill="#202020" stroke="none"/>
	  <rect stroke-width="1.2" stroke="#ffffff" fill="#232947" id="svg_15_1111" height="14" width="19" y="5.33333" x="2.5"/>
	  <rect fill="url(#svg_23_1111)" id="svg_20_1111" height="7.02244" width="15.96424" y="6.7266" x="4"/>
	  <rect fill="url(#svg_25_1111)" id="svg_24_1111" height="4.02393" width="15.96303" y="13.77454" x="4"/>
	  <circle fill="#ffffad" id="svg_26_1111" r="1.83333" cy="9.82002" cx="7.13254"/>
	  <path d="m14.5696,13.77458l0.70243,-4.85313l-3.12899,4.85313l2.42656,0z" id="svg_14_1111" fill="#404040" stroke="none"/>
	  <path d="m15.27203,8.98531c2.74584,0.06386 2.42657,4.21456 -0.63857,4.85313c0.70243,-1.27714 1.66028,-3.63985 0.63857,-4.85313z" id="svg_17_1111" fill="#404040" stroke="none"/>
	</svg>
</g>

<g id="zoom">
	<svg viewBox="0 0 150 150" xmlns="http://www.w3.org/2000/svg" xmlns:xlink="http://www.w3.org/1999/xlink">
	 <defs>
	  <linearGradient id="svg_30_1111" x1="0" y1="0" x2="1" y2="0">
	   <stop offset="0" stop-color="#d3d3d3" stop-opacity="1"/>
	   <stop offset="1" stop-color="#424242" stop-opacity="1"/>
	  </linearGradient>
	 </defs>
	  <path d="m107.14774,101.03477l-0.64774,43.96523c5.00857,4.72089 14.00811,5.27188 19,0l-0.31667,-44.16l-9.61514,-19.84l-8.42046,20.03477z" id="svg_29_1111" fill="url(#svg_30_1111)" stroke="#202020" stroke-width="2" transform="rotate(-45, 116, 114)"/>
	  <circle cx="58" cy="58" r="51" id="svg_22_1111" fill="#c0c0c0" stroke="#202020" stroke-width="5"/>
	  <circle cx="58" cy="58" r="43" id="svg_27_1111" fill="#aaccff" stroke="none"/>
	  <path d="m15.68604,61.46511c38.13954,17.67442 48.13954,15.34883 85.11628,-0.46511c1.39536,18.60465 -19.30231,41.86047 -42.7907,40.93023c-21.6279,-0.93023 -42.7907,-21.86046 -42.32558,-40.46511z" id="svg_28_1111" fill="#8cbaff" stroke="none"/>
	</svg>
</g>

<g id="arrow_right">
	<svg xmlns:xlink="http://www.w3.org/1999/xlink" xmlns="http://www.w3.org/2000/svg" viewBox="0 0 25 50">
	  <path stroke="#000000" fill="#000000" d="m0,0l0,50l25,-25l-25,-25z"/>
	</svg>
</g>

<g id="arrow_right_big">
	<svg xmlns:xlink="http://www.w3.org/1999/xlink" xmlns="http://www.w3.org/2000/svg" viewBox="0 0 40 50">
	  <path stroke="#000000" fill="#000000" d="m0,0l0,50l25,-25l-25,-25z"/>
	</svg>
</g>

<g id="arrow_down">
	<svg viewBox="0 0 50 40" xmlns="http://www.w3.org/2000/svg" xmlns:xlink="http://www.w3.org/1999/xlink">
	  <path transform="rotate(90, 26, 13)" d="m14,-12l0,50l25,-25l-25,-25z" fill="#000000" stroke="#000000"/>
	</svg>
</g>

<g id="fill">
	<svg version="1.1" id="Layer_1" xmlns="http://www.w3.org/2000/svg" xmlns:xlink="http://www.w3.org/1999/xlink" x="0px" y="0px"
		 width="35px" height="30px" viewBox="0 0 35 30" enable-background="new 0 0 35 30" xml:space="preserve">
	<g id="lab_1_">
		<path fill="#6C6C6C" d="M18.851,3.402c-0.43-0.431-1.003-0.668-1.61-0.668c-0.608,0-1.182,0.237-1.613,0.668l-1.285,1.287
			c-0.432,0.43-0.669,1.002-0.669,1.613c0,0.429,0.118,0.84,0.338,1.197L1.635,12.456c-0.827,0.364-1.421,1.11-1.587,1.996
			c-0.168,0.889,0.114,1.803,0.761,2.449l11.594,11.465c0.499,0.5,1.164,0.785,1.864,0.8c0.015,0.002,0.054,0.002,0.07,0.002
			c0.183,0,0.37-0.019,0.555-0.057c0.906-0.188,1.648-0.815,1.985-1.666l4.869-12.191c0.365,0.24,0.796,0.37,1.245,0.37
			c0.611,0,1.182-0.237,1.611-0.669l1.283-1.282c0.436-0.432,0.674-1.005,0.674-1.617c0-0.611-0.238-1.185-0.668-1.611L18.851,3.402z
			 M15.184,26.767c-0.113,0.286-0.362,0.496-0.662,0.558c-0.07,0.016-0.139,0.021-0.208,0.019c-0.231-0.005-0.455-0.099-0.622-0.267
			L2.09,15.604c-0.214-0.213-0.308-0.517-0.251-0.813c0.055-0.295,0.255-0.545,0.529-0.667l5.668-2.27
			c3.818,1.271,7.637,0.047,11.456,4.122L15.184,26.767z M24.603,12.377l-1.288,1.288c-0.179,0.179-0.467,0.179-0.645,0l-1.611-1.61
			l-1.306,3.271l0.109-0.276c-2.742-2.738-5.532-3.084-8.048-3.393c-0.809-0.1-1.592-0.202-2.363-0.37l7.74-3.1l-1.563-1.563
			c-0.177-0.178-0.177-0.467,0-0.645l1.289-1.29c0.179-0.178,0.467-0.178,0.646,0l7.04,7.042
			C24.781,11.911,24.781,12.2,24.603,12.377z"/>
		<path fill="#47A3DA" d="M15.039,19.14c1.256,0,2.278-1.021,2.278-2.277c0-1.259-1.022-2.28-2.278-2.28
			c-1.256,0-2.279,1.021-2.279,2.28C12.76,18.119,13.783,19.14,15.039,19.14z M15.039,15.495c0.755,0,1.367,0.611,1.367,1.367
			c0,0.754-0.612,1.367-1.367,1.367c-0.755,0-1.367-0.613-1.367-1.367C13.672,16.106,14.284,15.495,15.039,15.495z"/>
		<path fill="#004466" d="M26.889,0c-1.258,0-2.279,1.021-2.279,2.278s1.021,2.279,2.279,2.279c1.255,0,2.278-1.022,2.278-2.279
			S28.144,0,26.889,0z M26.889,3.646c-0.757,0-1.367-0.613-1.367-1.367s0.61-1.367,1.367-1.367c0.754,0,1.367,0.613,1.367,1.367
			S27.643,3.646,26.889,3.646z"/>
		<path fill="#47A3DA" d="M7.292,15.495c0,1.004,0.817,1.822,1.823,1.822c1.004,0,1.823-0.818,1.823-1.822
			c0-1.005-0.818-1.823-1.823-1.823C8.109,13.672,7.292,14.49,7.292,15.495z M9.115,14.583c0.502,0,0.911,0.408,0.911,0.913
			c0,0.502-0.409,0.91-0.911,0.91c-0.504,0-0.912-0.408-0.912-0.91C8.204,14.991,8.611,14.583,9.115,14.583z"/>
		<circle fill="#47A3DA" cx="11.85" cy="20.963" r="0.911"/>
		<circle fill="#006699" cx="26.433" cy="7.292" r="0.911"/>
	</g>
	</svg>
</g>

<g id="stroke">
	<svg version="1.1" id="Layer_1" xmlns="http://www.w3.org/2000/svg" xmlns:xlink="http://www.w3.org/1999/xlink" x="0px" y="0px"
		 width="15px" height="15px" viewBox="0 0 32 32" enable-background="new 0 0 32 32" xml:space="preserve">
	<path id="star" fill="#6C6C6C" d="M31.881,12.557c-0.277-0.799-0.988-1.384-1.844-1.511l-8.326-1.238l-3.619-7.514
		C17.711,1.505,16.896,1,16,1c-0.896,0-1.711,0.505-2.092,1.294l-3.619,7.514l-8.327,1.238c-0.855,0.127-1.566,0.712-1.842,1.511
		c-0.275,0.801-0.067,1.683,0.537,2.285l6.102,6.092l-1.415,8.451C5.2,30.236,5.569,31.09,6.292,31.588
		C6.689,31.861,7.156,32,7.623,32c0.384,0,0.769-0.094,1.118-0.281L16,27.811l7.26,3.908C23.609,31.906,23.994,32,24.377,32
		c0.467,0,0.934-0.139,1.332-0.412c0.723-0.498,1.09-1.352,0.947-2.203l-1.416-8.451l6.104-6.092
		C31.947,14.239,32.154,13.357,31.881,12.557z M23.588,19.363c-0.512,0.51-0.744,1.229-0.627,1.934l1.416,8.451l-7.26-3.906
		c-0.348-0.188-0.732-0.281-1.118-0.281c-0.384,0-0.769,0.094-1.117,0.281l-7.26,3.906l1.416-8.451
		c0.118-0.705-0.114-1.424-0.626-1.934l-6.102-6.092l8.326-1.24c0.761-0.113,1.416-0.589,1.743-1.268L16,3.251l3.62,7.513
		c0.328,0.679,0.982,1.154,1.742,1.268l8.328,1.24L23.588,19.363z"/>
	</svg>
</g>

<g id="opacity">
	<svg version="1.1" xmlns="http://www.w3.org/2000/svg" xmlns:xlink="http://www.w3.org/1999/xlink" x="0px" y="0px" width="35px"
		 height="30px" viewBox="0 0 35 30" enable-background="new 0 0 35 30" xml:space="preserve">
	<g id="Layer_1" display="none">
		<g id="lab_1_" display="inline">
			<path fill="#6C6C6C" d="M18.851,3.402c-0.43-0.431-1.003-0.668-1.61-0.668c-0.608,0-1.182,0.237-1.613,0.668l-1.285,1.287
				c-0.432,0.43-0.669,1.002-0.669,1.613c0,0.429,0.118,0.84,0.338,1.197L1.635,12.456c-0.827,0.364-1.421,1.11-1.587,1.996
				c-0.168,0.889,0.114,1.803,0.761,2.449l11.594,11.465c0.499,0.5,1.164,0.785,1.864,0.8c0.015,0.002,0.054,0.002,0.07,0.002
				c0.183,0,0.37-0.019,0.555-0.057c0.906-0.188,1.648-0.815,1.985-1.666l4.869-12.191c0.365,0.24,0.796,0.37,1.245,0.37
				c0.611,0,1.182-0.237,1.611-0.669l1.283-1.282c0.436-0.432,0.674-1.005,0.674-1.617c0-0.611-0.238-1.185-0.668-1.611L18.851,3.402
				z M15.184,26.767c-0.113,0.286-0.362,0.496-0.662,0.558c-0.07,0.016-0.139,0.021-0.208,0.019
				c-0.231-0.005-0.455-0.099-0.622-0.267L2.09,15.604c-0.214-0.213-0.308-0.517-0.251-0.813c0.055-0.295,0.255-0.545,0.529-0.667
				l5.668-2.27c3.818,1.271,7.637,0.047,11.456,4.122L15.184,26.767z M24.603,12.377l-1.288,1.288c-0.179,0.179-0.467,0.179-0.645,0
				l-1.611-1.61l-1.306,3.271l0.109-0.276c-2.742-2.738-5.532-3.084-8.048-3.393c-0.809-0.1-1.592-0.202-2.363-0.37l7.74-3.1
				l-1.563-1.563c-0.177-0.178-0.177-0.467,0-0.645l1.289-1.29c0.179-0.178,0.467-0.178,0.646,0l7.04,7.042
				C24.781,11.911,24.781,12.2,24.603,12.377z"/>
			<path fill="#47A3DA" d="M15.039,19.14c1.256,0,2.278-1.021,2.278-2.277c0-1.259-1.022-2.28-2.278-2.28
				c-1.256,0-2.279,1.021-2.279,2.28C12.76,18.119,13.783,19.14,15.039,19.14z M15.039,15.495c0.755,0,1.367,0.611,1.367,1.367
				c0,0.754-0.612,1.367-1.367,1.367c-0.755,0-1.367-0.613-1.367-1.367C13.672,16.106,14.284,15.495,15.039,15.495z"/>
			<path fill="#004466" d="M26.889,0c-1.258,0-2.279,1.021-2.279,2.278s1.021,2.279,2.279,2.279c1.255,0,2.278-1.022,2.278-2.279
				S28.144,0,26.889,0z M26.889,3.646c-0.757,0-1.367-0.613-1.367-1.367s0.61-1.367,1.367-1.367c0.754,0,1.367,0.613,1.367,1.367
				S27.643,3.646,26.889,3.646z"/>
			<path fill="#47A3DA" d="M7.292,15.495c0,1.004,0.817,1.822,1.823,1.822c1.004,0,1.823-0.818,1.823-1.822
				c0-1.005-0.818-1.823-1.823-1.823C8.109,13.672,7.292,14.49,7.292,15.495z M9.115,14.583c0.502,0,0.911,0.408,0.911,0.913
				c0,0.502-0.409,0.91-0.911,0.91c-0.504,0-0.912-0.408-0.912-0.91C8.204,14.991,8.611,14.583,9.115,14.583z"/>
			<circle fill="#47A3DA" cx="11.85" cy="20.963" r="0.911"/>
			<circle fill="#006699" cx="26.433" cy="7.292" r="0.911"/>
		</g>
	</g>
	<g id="Layer_2">
		<g id="params_1_">
			<path fill-rule="evenodd" clip-rule="evenodd" fill="#333333" d="M11.27,5.598V2.789C11.27,1.251,10.019,0,8.481,0
				C6.943,0,5.692,1.251,5.692,2.789v2.809C4.568,6.447,3.833,7.78,3.833,9.296s0.735,2.849,1.859,3.697V26.96
				c0,1.538,1.251,2.789,2.789,2.789c1.538,0,2.789-1.251,2.789-2.789V12.994c1.123-0.848,1.86-2.181,1.86-3.697
				S12.393,6.447,11.27,5.598z M7.552,2.789c0-0.514,0.416-0.93,0.93-0.93c0.514,0,0.93,0.416,0.93,0.93V4.74
				C9.11,4.681,8.799,4.648,8.481,4.648c-0.319,0-0.63,0.033-0.93,0.092V2.789z M9.411,26.96c0,0.515-0.416,0.931-0.93,0.931
				c-0.514,0-0.93-0.416-0.93-0.931V13.851c0.3,0.062,0.61,0.094,0.93,0.094c0.317,0,0.628-0.033,0.93-0.094V26.96z M11.145,10.077
				c-0.014,0.049-0.029,0.099-0.045,0.147c-0.089,0.245-0.202,0.478-0.353,0.685c-0.003,0.006-0.009,0.009-0.012,0.015
				c-0.162,0.221-0.354,0.417-0.572,0.583c-0.003,0.004-0.007,0.006-0.009,0.008c-0.225,0.169-0.474,0.305-0.742,0.399
				c-0.292,0.105-0.603,0.173-0.93,0.173c-0.329,0-0.638-0.067-0.93-0.173c-0.269-0.094-0.52-0.23-0.743-0.399
				C6.806,11.512,6.804,11.51,6.8,11.506c-0.22-0.165-0.412-0.361-0.574-0.583c-0.003-0.005-0.009-0.009-0.013-0.015
				c-0.149-0.207-0.264-0.439-0.35-0.685c-0.019-0.048-0.031-0.098-0.046-0.147C5.743,9.829,5.692,9.568,5.692,9.296
				c0-0.274,0.05-0.534,0.125-0.782c0.015-0.049,0.027-0.099,0.046-0.146c0.086-0.245,0.201-0.477,0.35-0.687
				c0.003-0.005,0.009-0.008,0.013-0.014C6.388,7.448,6.58,7.25,6.8,7.085C6.804,7.083,6.806,7.08,6.809,7.077
				c0.223-0.167,0.474-0.303,0.743-0.399c0.292-0.104,0.601-0.17,0.93-0.17c0.327,0,0.637,0.067,0.93,0.17
				c0.269,0.097,0.518,0.233,0.742,0.399c0.002,0.002,0.006,0.006,0.009,0.008c0.218,0.165,0.41,0.363,0.572,0.583
				c0.003,0.006,0.009,0.009,0.012,0.014c0.151,0.209,0.264,0.441,0.353,0.687c0.017,0.047,0.031,0.097,0.045,0.146
				c0.075,0.249,0.125,0.508,0.125,0.782C11.27,9.568,11.22,9.829,11.145,10.077z"/>
			<path fill-rule="evenodd" clip-rule="evenodd" fill="#333333" d="M31.724,5.598V2.789C31.724,1.251,30.473,0,28.935,0
				c-1.537,0-2.789,1.251-2.789,2.789v2.809c-1.124,0.85-1.86,2.183-1.86,3.699s0.736,2.849,1.86,3.697V26.96
				c0,1.538,1.252,2.789,2.789,2.789c1.538,0,2.789-1.251,2.789-2.789V12.994c1.122-0.848,1.859-2.181,1.859-3.697
				S32.846,6.447,31.724,5.598z M28.005,2.789c0-0.514,0.416-0.93,0.93-0.93s0.93,0.416,0.93,0.93V4.74
				c-0.302-0.059-0.612-0.092-0.93-0.092c-0.319,0-0.63,0.033-0.93,0.092V2.789z M29.864,26.96c0,0.515-0.416,0.931-0.93,0.931
				s-0.93-0.416-0.93-0.931V13.851c0.3,0.062,0.61,0.094,0.93,0.094c0.317,0,0.628-0.033,0.93-0.094V26.96z M31.599,10.077
				c-0.015,0.049-0.03,0.099-0.045,0.147c-0.09,0.245-0.202,0.478-0.353,0.685c-0.004,0.006-0.01,0.009-0.013,0.015
				c-0.162,0.221-0.354,0.417-0.573,0.583c-0.003,0.004-0.007,0.006-0.009,0.008c-0.226,0.169-0.473,0.305-0.742,0.399
				c-0.293,0.105-0.604,0.173-0.93,0.173c-0.328,0-0.637-0.067-0.93-0.173c-0.269-0.094-0.519-0.23-0.743-0.399
				c-0.003-0.002-0.005-0.004-0.009-0.008c-0.22-0.165-0.411-0.361-0.574-0.583c-0.003-0.005-0.009-0.009-0.013-0.015
				c-0.148-0.207-0.263-0.439-0.351-0.685c-0.017-0.048-0.03-0.098-0.045-0.147c-0.074-0.249-0.125-0.509-0.125-0.781
				c0-0.274,0.051-0.534,0.125-0.782c0.015-0.049,0.028-0.099,0.045-0.146c0.088-0.245,0.202-0.477,0.351-0.687
				c0.004-0.005,0.01-0.008,0.013-0.014c0.163-0.219,0.354-0.417,0.574-0.583c0.004-0.002,0.006-0.005,0.009-0.008
				c0.225-0.167,0.475-0.303,0.743-0.399c0.293-0.104,0.602-0.17,0.93-0.17c0.326,0,0.637,0.067,0.93,0.17
				c0.27,0.097,0.517,0.233,0.742,0.399c0.002,0.002,0.006,0.006,0.009,0.008c0.219,0.165,0.411,0.363,0.573,0.583
				c0.003,0.006,0.009,0.009,0.013,0.014c0.15,0.209,0.263,0.441,0.353,0.687c0.015,0.047,0.03,0.097,0.045,0.146
				c0.074,0.249,0.125,0.508,0.125,0.782C31.724,9.568,31.673,9.829,31.599,10.077z"/>
			<path fill-rule="evenodd" clip-rule="evenodd" fill="#333333" d="M21.496,16.754V2.789c0-1.538-1.25-2.789-2.788-2.789
				s-2.789,1.251-2.789,2.789v13.965c-1.125,0.849-1.86,2.182-1.86,3.7c0,1.515,0.735,2.849,1.86,3.696v2.81
				c0,1.538,1.251,2.789,2.789,2.789s2.788-1.251,2.788-2.789v-2.81c1.123-0.848,1.86-2.182,1.86-3.696
				C23.356,18.936,22.619,17.603,21.496,16.754z M17.778,2.789c0-0.514,0.416-0.93,0.93-0.93s0.93,0.416,0.93,0.93v13.108
				c-0.302-0.061-0.611-0.092-0.93-0.092c-0.319,0-0.63,0.031-0.93,0.092V2.789z M19.638,26.96c0,0.515-0.416,0.931-0.93,0.931
				s-0.93-0.416-0.93-0.931v-1.952c0.3,0.062,0.61,0.094,0.93,0.094c0.318,0,0.628-0.032,0.93-0.094V26.96z M21.372,21.233
				c-0.015,0.051-0.029,0.099-0.046,0.146c-0.088,0.247-0.201,0.478-0.352,0.686c-0.004,0.005-0.01,0.01-0.013,0.014
				c-0.163,0.223-0.354,0.418-0.572,0.583c-0.004,0.004-0.008,0.007-0.009,0.007c-0.227,0.17-0.474,0.307-0.743,0.4
				c-0.293,0.104-0.603,0.174-0.93,0.174c-0.328,0-0.637-0.069-0.93-0.174c-0.269-0.094-0.52-0.23-0.742-0.4
				c-0.005,0-0.006-0.003-0.01-0.007c-0.22-0.165-0.412-0.36-0.574-0.583c-0.003-0.004-0.009-0.009-0.012-0.014
				c-0.149-0.208-0.264-0.438-0.351-0.686c-0.018-0.048-0.031-0.096-0.045-0.146c-0.075-0.249-0.125-0.508-0.125-0.779
				c0-0.275,0.051-0.535,0.125-0.785c0.014-0.048,0.027-0.098,0.045-0.144c0.087-0.246,0.202-0.478,0.351-0.688
				c0.003-0.005,0.009-0.01,0.012-0.014c0.162-0.221,0.354-0.419,0.574-0.583c0.004-0.003,0.005-0.005,0.01-0.007
				c0.223-0.168,0.474-0.305,0.742-0.4c0.293-0.103,0.602-0.169,0.93-0.169c0.327,0,0.637,0.066,0.93,0.169
				c0.27,0.096,0.517,0.232,0.743,0.4c0.001,0.002,0.005,0.004,0.009,0.007c0.218,0.164,0.409,0.362,0.572,0.583
				c0.003,0.004,0.009,0.009,0.013,0.014c0.15,0.21,0.264,0.441,0.352,0.688c0.017,0.046,0.031,0.096,0.046,0.144
				c0.074,0.25,0.124,0.51,0.124,0.785C21.496,20.726,21.446,20.984,21.372,21.233z"/>
		</g>
	</g>
	</svg>
</g>

<g id="new_image">
	<svg width="24" height="24" xmlns="http://www.w3.org/2000/svg" xmlns:xlink="http://www.w3.org/1999/xlink">
	  <rect x="2.42792" y="1.6692" width="18" height="21" id="svg_55_1111" fill="#eaeaea" stroke="#606060"/>
	  <circle stroke="none" fill="url(#svg_9_1111)" id="svg_65_1111" r="6.300781" cy="7.529969" cx="17.761984"/>
	 <defs>
	  <radialGradient id="svg_9_1111" cx="0.5" cy="0.5" r="0.5">
	   <stop offset="0.1" stop-color="#ffe500" stop-opacity="1"/>
	   <stop offset="1" stop-color="#ffff00" stop-opacity="0"/>
	  </radialGradient>
	 </defs>
	</svg>
</g>

<g id="save">
	<svg version="1.1" id="Layer_1" xmlns="http://www.w3.org/2000/svg" xmlns:xlink="http://www.w3.org/1999/xlink" x="0px" y="0px"
	 width="30px" height="30px" viewBox="0 0 35 35" enable-background="new 0 0 30 30" xml:space="preserve">
<g>
	<path fill="#6C6C6C" d="M25.528,0.962H0.962v28.076h28.076V4.472L25.528,0.962z M7.981,0.964H22.02v8.773H7.981V0.964z
		 M4.472,27.283V16.755h19.302v10.528H4.472z M27.283,25.528h-1.755v-1.755h1.755V25.528z"/>
	<rect x="16.755" y="2.717" fill="#6C6C6C" width="3.51" height="5.264"/>
	<rect x="7.981" y="23.773" fill="#6C6C6C" width="12.284" height="1.755"/>
	<rect x="7.981" y="20.265" fill="#6C6C6C" width="8.774" height="1.755"/>
</g>
</svg>
</g>

<g id="export">
	<svg width="24" height="24" xmlns="http://www.w3.org/2000/svg">
	 <defs>
	  <linearGradient id="svg_5_1111" x1="0.77734" y1="0.51172" x2="0.09375" y2="0.53516">
	   <stop offset="0" stop-color="#81bbf4"/>
	   <stop offset="1" stop-color="#376eb7"/>
	  </linearGradient>
	 </defs>
	 <g>
	  <rect x="7.22599" y="1.3603" width="15.76465" height="21.51735" id="svg_55_1111" fill="#eaeaea" stroke="#606060"/>
	  <circle fill="#31abed" stroke-width="0.5" cx="17.4206" cy="11.1278" r="4.69727" id="svg_3_1111"/>
	  <path fill="#ffcc00" stroke-width="0.5" d="m9.67673,20.24302l7.38701,-6.80778l2.91746,6.71323" id="svg_4_1111"/>
	  <rect fill="#ff5555" stroke-width="0.5" x="9.5385" y="2.94914" width="5.74652" height="5.74652" id="svg_2_1111"/>
	  <path d="m6.13727,17.94236l5.77328,-4.91041l-5.86949,-5.1832l-0.09622,2.36426l-4.64805,-0.06751l-0.04665,5.54694l4.79093,-0.02342l0.09623,2.27334z" id="svg_45_1111" fill="url(#svg_5_1111)" stroke="#285582"/>
	 </g>
	</svg>
</g>

<g id="open">
	<svg viewBox="0 0 22 22" xmlns="http://www.w3.org/2000/svg" xmlns:xlink="http://www.w3.org/1999/xlink">
	 <defs>
	  <linearGradient y2="0.91406" x2="0.65234" y1="0.14063" x1="0.42578" id="svg_76_1111">
	   <stop stop-opacity="1" stop-color="#81bbf4" offset="0"/>
	   <stop stop-opacity="1" stop-color="#376eb7" offset="1"/>
	  </linearGradient>
	 </defs>
	  <rect x="1.65" y="3.75" width="9.8" height="16.72712" id="svg_98_1111" fill="#c0c0c0" stroke="#606060"/>
	  <rect stroke="none" fill="#a0a0a0" id="svg_88_1111" height="14.17459" width="6.39585" y="4.9758" x="2.89542"/>
	  <path d="m18.62576,4.54365l0,6.91443l-9.9395,0l-0.08643,-10.11236l6.828,0l3.19792,3.19793z" id="svg_99_1111" fill="#e0e0e0" stroke="#404040"/>
	  <path d="m2.95,20.53644l1.65,-12.03644l16.2,0l-1.5,12l-16.35,0.03643z" id="svg_97_1111" fill="url(#svg_76_1111)" stroke="#285582"/>
	  <line fill="none" stroke="#606060" id="svg_89_1111" y2="4.28436" x2="13.95851" y1="4.28436" x1="10.32844"/>
	  <line fill="none" stroke="#606060" id="svg_91_1111" y2="6.53155" x2="14.82282" y1="6.53155" x1="10.32844"/>
	  <path stroke="none" fill="#ffffff" id="svg_100_1111" d="m15.25895,1.95069l-0.00401,2.85225l2.89558,0.00004l-2.89157,-2.85229z"/>
	</svg>
</g>

<g id="import">
	<svg viewBox="0 0 24 24" xmlns="http://www.w3.org/2000/svg" xmlns:xlink="http://www.w3.org/1999/xlink">
	 <defs>
	  <linearGradient y2="0.875" x2="0.21484" y1="0.00391" x1="0.04297" id="svg_46_import">
	   <stop stop-opacity="1" stop-color="#81f4bb" offset="0"/>
	   <stop stop-opacity="1" stop-color="#37b76e" offset="1"/>
	  </linearGradient>
	 </defs>
	 <rect x="2.42792" y="1.6692" width="18" height="21" id="svg_55_1111" fill="#eaeaea" stroke="#606060"/>
		  <path stroke="#285582" fill="url(#svg_46_import)" id="svg_45_1111" d="m7.14286,12.74903l5.21236,5.79151l5.50193,-5.88803l-2.50965,-0.09653l0,-2.79923c0,-2.3166 -2.3166,-5.59846 -6.56371,-5.59846c-4.05405,0 -6.27413,3.37838 -6.56371,6.75676c0.48263,-1.5444 2.7027,-4.53668 4.44015,-4.44015c2.12355,-0.09653 2.79923,1.64093 2.79923,3.37838l0.09653,2.79923l-2.41313,0.09653z"/>
	</svg>
</g>

<g id="docprops">
	<svg xmlns:xlink="http://www.w3.org/1999/xlink" xmlns="http://www.w3.org/2000/svg" viewBox="0 0 24 24">
	 <defs>
	  <linearGradient y2="1" x2="1" y1="0.5" x1="1" id="svg_53_1111">
	   <stop stop-opacity="1" stop-color="#606060" offset="0"/>
	   <stop stop-opacity="0" stop-color="#5e5e5e" offset="1"/>
	  </linearGradient>
	 </defs>
	  <rect stroke="#606060" fill="#eaeaea" id="svg_55_1111" height="21" width="18" y="1.6692" x="2.42792"/>
	  <line fill="none" stroke="#a0a0a0" id="svg_56_1111" y2="4.37757" x2="14.89023" y1="4.37757" x1="6.696"/>
	  <line fill="none" stroke="#a0a0a0" id="svg_57_1111" y2="7.10804" x2="12.92026" y1="7.10804" x1="6.6948"/>
	  <line fill="none" stroke="#a0a0a0" id="svg_58_1111" y2="9.84241" x2="15.64716" y1="9.84241" x1="6.6942"/>
	  <line fill="none" stroke="#a0a0a0" id="svg_59_1111" y2="12.36585" x2="13.21805" y1="12.36585" x1="6.69691"/>
	  <line fill="none" stroke="#a0a0a0" id="svg_60_1111" y2="15.06507" x2="14.43591" y1="15.06507" x1="6.69691"/>
	  <line fill="none" stroke="#a0a0a0" id="svg_61_1111" y2="17.84241" x2="13.36979" y1="17.84241" x1="6.69691"/>
	  <g id="svg_54_1111">
	   <path transform="rotate(-45, 12.5448, 11.7085)" stroke="none" fill="#606060" id="svg_31_1111" d="m11.24329,8.73944l0,2.79974l2.53499,0.07777l0,-2.95528c1.78134,0.07777 2.26093,1.39987 2.12391,2.95528c-0.06851,1.63318 -1.30175,3.49967 -3.49418,3.26636c-2.19242,-0.31108 -2.87755,-1.39987 -3.15161,-2.72197c-0.27406,-1.39987 0.41108,-3.34413 1.98689,-3.4219z"/>
	   <rect opacity="0.95" transform="rotate(-45, 16.2485, 15.1732)" stroke="none" fill="url(#svg_53_1111)" id="svg_50_1111" height="4.85445" width="2.57974" y="12.746" x="15.04047"/>
	  </g>
	</svg>
</g>

<g id="source">
	<svg xmlns:xlink="http://www.w3.org/1999/xlink" xmlns="http://www.w3.org/2000/svg" viewBox="0 0 55 52">
	  <text xml:space="preserve" text-anchor="middle" font-family="monospace" font-size="24" stroke="none" fill="#019191" id="svg_40_1111" y="15" x="28.23" font-weight="bold">s</text>
	  <text xml:space="preserve" text-anchor="middle" font-family="monospace" font-size="24" stroke="none" fill="#019191" id="svg_47_1111" y="30" x="28.23" font-weight="bold">v</text>
	  <text xml:space="preserve" text-anchor="middle" font-family="monospace" font-size="24" stroke="none" fill="#019191" id="svg_48_1111" y="44" x="28.23" font-weight="bold">g</text>
	  <line stroke-width="3" fill="none" stroke="#aa0000" id="svg_51_1111" y2="43" x2="16" y1="25" x1="5"/>
	  <line id="svg_62_1111" stroke-width="3" fill="none" stroke="#aa0000" y2="8" x2="16" y1="26" x1="5"/>
	  <line id="svg_63_1111" stroke-width="3" fill="none" stroke="#aa0000" y2="43" x2="39" y1="25" x1="50"/>
	  <line id="svg_64_1111" stroke-width="3" fill="none" stroke="#aa0000" y2="8" x2="39" y1="26" x1="51"/>
	 </svg>
</g>
 
<g id="wireframe">
	<svg xmlns:xlink="http://www.w3.org/1999/xlink" xmlns="http://www.w3.org/2000/svg" viewBox="0 0 24 24">
	  <circle stroke="#000000" fill="none" id="svg_49_1111" r="8" cy="9.5" cx="9.5"/>
	  <rect stroke="#000000" fill="none" id="svg_52_1111" height="14" width="14" y="8.5" x="8.5"/>
	 </svg>
</g>

<g id="undo">
	<svg viewBox="0 0 24 24" xmlns="http://www.w3.org/2000/svg" xmlns:xlink="http://www.w3.org/1999/xlink">
	 <defs>
	  <linearGradient id="svg_66_1111" x1="0.04297" y1="0.00391" x2="0.21484" y2="0.875">
	   <stop offset="0" stop-color="#f7f963" stop-opacity="1"/>
	   <stop offset="1" stop-color="#d3c310" stop-opacity="1"/>
	  </linearGradient>
	 </defs>
	  <path transform="rotate(-90, 10.3017, 11.5526)" d="m6.70188,10.72562l6.55493,-7.13388l6.65817,7.24912l-3.79441,0.03193l0,2.72259c-0.04257,2.74017 -2.76516,5.83068 -7.81235,6.02135c-5.18575,0 -7.1226,-3.75464 -7.49302,-7.41944c0.61736,1.6754 3.14913,3.78397 5.3716,3.67918c2.71635,0.1048 4.41501,-0.61714 4.41501,-2.50184l0,-2.64901l-3.89995,0z" id="svg_45_1111" fill="url(#svg_66_1111)" stroke="#b7a800"/>
	 </svg>
</g>

<g id="redo">
	<svg viewBox="0 0 24 24" xmlns="http://www.w3.org/2000/svg" xmlns:xlink="http://www.w3.org/1999/xlink">
	 <defs>
	  <linearGradient y2="1" x2="1" y1="0" x1="1" id="svg_71_1111">
	   <stop stop-opacity="1" stop-color="#98fc46" offset="0"/>
	   <stop stop-opacity="1" stop-color="#56aa25" offset="1"/>
	  </linearGradient>
	 </defs>
	  <path transform="rotate(-90, 12.7299, 11.5526)" d="m9.11294,12.43144l6.54089,6.84566l6.6439,-6.95624l-3.78628,-0.03064l0,-2.61259c-0.04248,-2.62946 -2.75924,-5.5951 -7.79561,-5.77807c-5.17464,0 -7.10734,3.60294 -7.47697,7.11967c0.61604,-1.60771 3.14238,-3.63109 5.36009,-3.53053c2.71053,-0.10056 4.40555,0.59221 4.40555,2.40076l0,2.54198l-3.89159,0z" id="svg_45_1111" fill="url(#svg_71_1111)" stroke="#44aa00"/>
	 </svg>
</g>

<!--<g id="clone">
	<svg version="1.1" id="Capa_1" xmlns="http://www.w3.org/2000/svg" xmlns:xlink="http://www.w3.org/1999/xlink" x="0px" y="0px"
	 width="19.918px" height="23.305px" viewBox="0 0 19.918 23.305" enable-background="new 0 0 19.918 23.305" xml:space="preserve">
<g>
	<path d="M13.541,8.822V3.8H0v14.482h6.376v5.021h13.542V8.822H13.541z M1.363,16.925V5.543H12.18v11.382H1.363z M18.542,21.928
		H7.755v-3.646h5.786v-0.358h3.979v-0.87h-3.979v-1.605h3.979v-0.87h-3.979v-1.265h3.979v-0.871h-3.979V10.58h5.001V21.928z" fill="#AAAAAA" />
	<rect x="2.441" y="7.419" width="8.702" height="0.874" fill="#AAAAAA"/>
	<rect x="2.441" y="9.557" width="8.702" height="0.87" fill="#AAAAAA"/>
	<rect x="2.441" y="12.032" width="8.702" height="0.87" fill="#AAAAAA"/>
	<path d="M10.842,1.602c2.504,0,4.623,1.613,5.389,3.856h-1.639l2.488,2.49l2.488-2.49h-1.662v0.001C17.087,2.321,14.238,0,10.843,0
		C8.498,0,6.415,1.11,5.079,2.83h2.234C8.283,2.062,9.509,1.602,10.842,1.602z" fill="#AAAAAA"/>
</g>
</svg>
</g>-->


<g id="go_up">
	<svg xmlns:xlink="http://www.w3.org/1999/xlink" xmlns="http://www.w3.org/2000/svg" viewBox="0 0 18 18">
	 <defs>
	  <linearGradient y2="0" x2="0.7" y1="0" x1="0" id="svg_74_1111">
	   <stop stop-opacity="1" stop-color="#afe853" offset="0"/>
	   <stop stop-opacity="1" stop-color="#52a310" offset="1"/>
	  </linearGradient>
	 </defs>
	  <path stroke="#008000" fill="url(#svg_74_1111)" id="svg_33_1111" d="m5.38492,16.77043l7.07692,0l0,-5.23077l4.15385,0l-7.69231,-10.15385l-7.69231,10.15385l4.15385,0l0,5.23077z"/>
	</svg>
</g>

<g id="go_down">
	<svg xmlns:xlink="http://www.w3.org/1999/xlink" xmlns="http://www.w3.org/2000/svg" viewBox="0 0 18 18">
	 <defs>
	  <linearGradient y2="0" x2="0.7" y1="0" x1="0" id="svg_75_1111">
	   <stop stop-opacity="1" stop-color="#afe853" offset="0"/>
	   <stop stop-opacity="1" stop-color="#52a310" offset="1"/>
	  </linearGradient>
	 </defs>
	  <path stroke="#008000" fill="url(#svg_75_1111)" id="svg_33_1111" d="m5.3015,1.69202l6.93483,0l0,5.07323l4.07045,0l-7.53786,9.84803l-7.53786,-9.84803l4.07045,0l0,-5.07323z"/>
	 </svg>
</g>

<g id="context_menu">
	<svg width="120" height="120" xmlns="http://www.w3.org/2000/svg">
	  <path stroke-width="0" id="svg_11_1111" d="m4.5,46.5l52,0l-26,38l-26,-38z" stroke="#000" fill="#000"/>
	  <g id="svg_16_1111">
	   <line stroke-width="10" id="svg_12_1111" y2="27.5" x2="117.5" y1="27.5" x1="59.5" stroke="#000" fill="#000"/>
	   <line id="svg_13_1111" stroke-width="10" y2="51.5" x2="117.5" y1="51.5" x1="59.5" stroke="#000" fill="#000"/>
	   <line id="svg_14_1111" stroke-width="10" y2="73.5" x2="117.5" y1="73.5" x1="59.5" stroke="#000" fill="#000"/>
	   <line id="svg_15_1111" stroke-width="10" y2="97.5" x2="117.5" y1="97.5" x1="59.5" stroke="#000" fill="#000"/>
	  </g>
	</svg>
</g>

<g id="to_path">
	<svg version="1.1" id="Layer_1" xmlns="http://www.w3.org/2000/svg" xmlns:xlink="http://www.w3.org/1999/xlink" x="0px" y="0px"
		 width="30px" height="30px" viewBox="0 0 30 30" enable-background="new 0 0 30 30" xml:space="preserve">
	<g id="Shape_7">
		<g>
			<path fill-rule="evenodd" clip-rule="evenodd" fill="#666666" d="M28.682,5.905V1.319h-4.558v1.299H5.883V1.319H1.326v4.585h1.061
				v18.182H1.326v4.587h4.557v-1.009h18.241v1.009h4.557v-4.587h-1.145V5.905H28.682z M2.474,2.476h2.281v2.313H2.474V2.476z
				 M4.754,27.555H2.474v-2.312h2.281V27.555z M25.257,24.087h-1.133v1.301H5.883v-1.301H4.739V5.905h1.144V4.896h18.241v1.009h1.133
				V24.087z M27.553,25.243v2.312h-2.279v-2.312H27.553z M25.273,4.788V2.476h2.279v2.313H25.273z"/>
		</g>
	</g>
	</svg>
</g>

<g id="link_controls">
	<svg version="1.1" id="Layer_1" xmlns="http://www.w3.org/2000/svg" xmlns:xlink="http://www.w3.org/1999/xlink" x="0px" y="0px"
		 width="25px" height="25px" viewBox="0 0 25 25" enable-background="new 0 0 25 25" xml:space="preserve">
	<path id="svg_102_1111" fill="none" stroke="#494949" stroke-width="2" d="M10.287,23.959c-2.083-4.428-1.758-7.684,1.758-10.938
		c3.516-3.256,7.877-2.865,11.524,2.082"/>
	<line id="svg_109_1111" fill="none" stroke="#606060" x1="4.167" y1="19.791" x2="19.791" y2="4.167"/>
	<circle id="svg_111_1111" fill="#666666" stroke="#FFFFFF" cx="11.979" cy="11.979" r="2.267"/>
	<circle id="svg_121_1111" fill="#666666" cx="19.791" cy="4.167" r="2.356"/>
	<circle id="svg_123_1111" fill="#666666" cx="4.167" cy="19.792" r="2.356"/>
	</svg>
</g>

<g id="reorient">
	<svg version="1.1" id="Layer_1" xmlns="http://www.w3.org/2000/svg" xmlns:xlink="http://www.w3.org/1999/xlink" x="0px" y="0px"
		 width="30px" height="30px" viewBox="0 0 30 30" enable-background="new 0 0 30 30" xml:space="preserve">
	<rect id="svg_108_1111" x="3.594" y="3.281" fill="none" stroke="#666666" stroke-dasharray="2,2" width="23.281" height="23.906"/>
	<rect id="svg_107_1111" x="5.292" y="11.384" transform="matrix(-0.7071 -0.7071 0.7071 -0.7071 15.3491 36.7824)" fill="#666666" stroke="#000000" width="20" height="7.657"/>
	</svg>
</g>

<!--<g id="group">
	<svg version="1.1" id="Layer_1" xmlns="http://www.w3.org/2000/svg" xmlns:xlink="http://www.w3.org/1999/xlink" x="0px" y="0px"
	 width="25px" height="25px" viewBox="0 0 25 25" enable-background="new 0 0 25 25" xml:space="preserve">
<rect x="4.663" y="16.317" fill="#B7B7B7" stroke="#818181" stroke-miterlimit="10" width="16.494" height="5.193"/>
<rect x="15.475" y="4.234" fill="#FFFFFF" stroke="#818181" stroke-miterlimit="10" width="5.244" height="5.193"/>
<circle fill="#FFFFFF" stroke="#818181" stroke-width="0.9681" stroke-miterlimit="10" cx="7.81" cy="6.619" r="2.703"/>
<line fill="none" stroke="#818181" stroke-miterlimit="10" x1="7.81" y1="9.249" x2="7.81" y2="13.332"/>
<line fill="none" stroke="#818181" stroke-miterlimit="10" x1="18.096" y1="9.249" x2="18.096" y2="13.332"/>
<line fill="none" stroke="#818181" stroke-miterlimit="10" x1="12.659" y1="13.311" x2="12.659" y2="16.745"/>
<line fill="none" stroke="#818181" stroke-width="1.0234" stroke-miterlimit="10" x1="18.578" y1="13.332" x2="7.315" y2="13.332"/>
</svg>
</g>
<g id="ungroup">
	<svg version="1.1" id="Layer_1" xmlns="http://www.w3.org/2000/svg" xmlns:xlink="http://www.w3.org/1999/xlink" x="0px" y="0px"
	 width="25px" height="25px" viewBox="0 0 25 25" enable-background="new 0 0 25 25" xml:space="preserve">
<rect x="4.663" y="3.916" fill="#B7B7B7" stroke="#818181" stroke-miterlimit="10" width="16.494" height="5.193"/>
<rect x="5.102" y="15.999" fill="#FFFFFF" stroke="#818181" stroke-miterlimit="10" width="5.244" height="5.193"/>
<circle fill="#FFFFFF" stroke="#818181" stroke-width="0.9681" stroke-miterlimit="10" cx="18.01" cy="18.808" r="2.703"/>
<line fill="none" stroke="#818181" stroke-miterlimit="10" x1="18.01" y1="16.178" x2="18.011" y2="12.095"/>
<line fill="none" stroke="#818181" stroke-miterlimit="10" x1="7.725" y1="16.178" x2="7.725" y2="12.095"/>
<line fill="none" stroke="#818181" stroke-miterlimit="10" x1="13.162" y1="12.116" x2="13.162" y2="8.682"/>
<line fill="none" stroke="#818181" stroke-width="1.0234" stroke-miterlimit="10" x1="7.242" y1="12.095" x2="18.505" y2="12.095"/>


</svg>
</g>-->

<g id="unlink_use">
	<svg width="222" height="222" xmlns="http://www.w3.org/2000/svg">
	  <path id="svg_1111" d="m93.75,118.44922c-4.5,13.58447 -14.66553,11.5 -28.25,11.5l-34,0c-13.58447,0 -24.5,-7.16553 -24.5,-21.5c0,-14.33447 10.91553,-20.5 24.5,-20.5l34,0c13.58447,0 19.75,-2.33447 26.5,10.75" stroke-width="13" stroke="#3f3f3f" fill="none"/>
	  <g id="svg_11_1111">
	   <line id="svg_4_1111" y2="65.94563" x2="83.07683" y1="28.27895" x1="45.41017" stroke-linecap="round" stroke-width="8" stroke="#007fff" fill="none"/>
	   <line id="svg_5_1111" y2="15.01293" x2="109.41467" y1="65.94638" x1="109.41467" stroke-linecap="round" stroke-width="8" stroke="#007fff" fill="none"/>
	   <line id="svg_6_1111" y2="29.31928" x2="177.58937" y1="65.94638" x1="140.96227" stroke-linecap="round" stroke-width="8" stroke="#007fff" fill="none"/>
	  </g>
	  <g id="svg_12_1111" transform="rotate(-180, 108, 172.111)">
	   <line y2="190.94563" x2="79.57683" y1="153.27895" x1="41.91017" stroke-linecap="round" stroke-width="8" stroke="#007fff" fill="none" id="svg_13_1111"/>
	   <line y2="140.01293" x2="105.91467" y1="190.94638" x1="105.91467" stroke-linecap="round" stroke-width="8" stroke="#007fff" fill="none" id="svg_14_1111"/>
	   <line y2="154.31928" x2="174.08937" y1="190.94638" x1="137.46227" stroke-linecap="round" stroke-width="8" stroke="#007fff" fill="none" id="svg_15_1111"/>
	  </g>
	  <path transform="rotate(-180, 172.125, 108.926)" id="svg_2_1111" d="m215.5,118.44901c-4.5,13.58499 -14.6655,11.5 -28.25,11.5l-34,0c-13.5845,0 -24.5,-7.16501 -24.5,-21.5c0,-14.3343 10.9155,-20.4998 24.5,-20.4998l34,0c13.5845,0 19.75,-2.3345 26.5,10.75" stroke-width="13" stroke="#3f3f3f" fill="none"/>
	</svg>
</g>

<g id="width">
	<svg width="100" height="100" xmlns="http://www.w3.org/2000/svg">
	  <path id="svg_6_1111" d="m19,42.5l-7.5,7.5l7.5,7.5l0,-15zm0,7.5l62,0l0,-7.5l7.5,7.5l-7.5,7.5l0,-7.5" stroke-width="8" stroke="#000000" fill="#000000"/>
	</svg>
</g>

<g id="height">
	<svg width="100" height="100" xmlns="http://www.w3.org/2000/svg">
	  <path transform="rotate(90, 50, 50)" fill="#000000" stroke="#000000" stroke-width="8" d="m19,42.5l-7.5,7.5l7.5,7.5l0,-15zm0,7.5l62,0l0,-7.5l7.5,7.5l-7.5,7.5l0,-7.5" id="svg_6_1111"/>
	</svg>
</g>

<g id="c_radius">
	<svg width="20" height="20" xmlns="http://www.w3.org/2000/svg">
	  <rect stroke="#404040" fill="none" stroke-width="0.5" x="2.37501" y="2.4375" width="43.9375" height="43.9375" id="svg_1111" rx="13" ry="13"/>
	  <path fill="none" stroke="#000000" d="m2.43674,15.88952l13.73722,0l0.08978,-13.46483m0.08978,14.08493" id="svg_3_1111"/>
	  <line fill="none" stroke="#000000" x1="16.35107" y1="15.88934" x2="5.20504" y2="5.20504" id="svg_4_1111" stroke-dasharray="2,2"/>
	</svg>
</g>

<g id="angle">
	<svg width="50" height="50" xmlns="http://www.w3.org/2000/svg">
	  <path stroke-width="2" stroke-dasharray="1,3" id="svg_6_1111" d="m32.78778,41.03469c-0.40379,-8.68145 -4.50873,-16.79003 -12.11365,-20.5932" stroke="#000000" fill="none"/>
	  <path id="svg_7_1111" d="m29.20348,7.67055l-24.20348,34.47921l41.16472,0" stroke-width="3" stroke="#404040" fill="none"/>
	</svg>
</g>

<g id="blur">
	<svg width="300" height="300" xmlns="http://www.w3.org/2000/svg">
	 <!-- Created with SVG-edit - http://svg-edit.googlecode.com/ -->
	 <defs>
	  <filter id="svg_4_1111_blur" x="-50%" y="-50%" width="200%" height="200%">
	   <feGaussianBlur stdDeviation="25"/>
	  </filter>
	 </defs>
	  <circle fill="#000000" stroke="#000000" stroke-width="5" stroke-dasharray="null" cx="150" cy="150" r="91.80151" id="svg_4_1111" filter="url(#svg_4_1111_blur)"/>
	</svg>
</g>

<g id="fontsize">
	<svg width="50" height="50" xmlns="http://www.w3.org/2000/svg">
	  <text fill="#606060" stroke="none" x="14.451" y="41.4587" id="svg_2_1111" font-size="26" font-family="serif" text-anchor="middle">T</text>
	  <text fill="#000000" stroke="none" x="28.853" y="41.8685" font-size="52" font-family="serif" text-anchor="middle" xml:space="preserve" id="svg_3_1111">T</text>
	</svg>
</g>

<g id="align">
	<svg version="1.1" id="Layer_1" xmlns="http://www.w3.org/2000/svg" xmlns:xlink="http://www.w3.org/1999/xlink" x="0px" y="0px"
	 width="22px" height="22px" viewBox="0 0 22 22" enable-background="new 0 0 22 22" xml:space="preserve">
<rect x="9.5" y="0.5" fill="#868686" width="2" height="21"/>
<rect x="3.5" y="6.5" fill="#868686" width="15" height="8"/>
<rect x="5" y="8" fill="none" stroke="#FFFFFF" stroke-miterlimit="10" width="12" height="5"/>
</svg>
</g>

<g id="align_left">
	<svg xmlns="http://www.w3.org/2000/svg" xmlns:xlink="http://www.w3.org/1999/xlink">
		<rect x="8" y="8"  width="1" height="14"/>
		<rect x="10" y="10" width="11" height="4"/>
		<rect x="10" y="16" width="5" height="4"/>
	</svg>
</g>

<g id="align_center">
	<svg xmlns="http://www.w3.org/2000/svg" xmlns:xlink="http://www.w3.org/1999/xlink">
		<rect x="15" y="8"  width="1" height="14"/>
		<rect x="10" y="10" width="11" height="4"/>
		<rect x="13" y="16" width="5" height="4"/>
	</svg>
</g>

<g id="align_right">
	<svg xmlns="http://www.w3.org/2000/svg" xmlns:xlink="http://www.w3.org/1999/xlink">
			<rect x="21" y="6"  width="1" height="18"/>
			<rect x="6" y="9"  width="14" height="5"/>
			<rect x="14" y="16"  width="6" height="5"/>
	</svg>
</g>

<g id="align_top">
	<svg xmlns="http://www.w3.org/2000/svg" xmlns:xlink="http://www.w3.org/1999/xlink">
		<rect x="5" y="7"  width="18" height="1"/>
		<rect x="8" y="9"  width="5" height="14"/>
		<rect x="15" y="9"  width="5" height="6"/>
	</svg>
</g>

<g id="align_middle">
	<svg xmlns="http://www.w3.org/2000/svg" xmlns:xlink="http://www.w3.org/1999/xlink">
		<rect x="5" y="15" width="18" height="1"/>
		<rect x="15" y="8"  width="5" height="14"/>
		<rect x="8" y="12" width="5" height="7"/>
	</svg>
</g>

<g id="align_bottom">
	<svg xmlns="http://www.w3.org/2000/svg" xmlns:xlink="http://www.w3.org/1999/xlink">	
		<rect x="5" y="22"  width="18" height="1"/>
		<rect x="15" y="7"  width="5" height="14"/>
		<rect x="8" y="15"  width="5" height="6"/>
	</svg>
	 

</g>

<g id="linecap_butt">
	<svg width="100" height="100" xmlns="http://www.w3.org/2000/svg" xmlns:se="http://svg-edit.googlecode.com" xmlns:xlink="http://www.w3.org/1999/xlink">
 <!-- Created with SVG-edit - http://svg-edit.googlecode.com/ -->
 <defs>
  <linearGradient id="svg_8_1111" x1="0.8" y1="1" x2="0.2" y2="1">
   <stop offset="0" stop-color="#000000" stop-opacity="1"/>
   <stop offset="1" stop-color="#000000" stop-opacity="0"/>
  </linearGradient>
 </defs>
 <g>
  <rect fill="url(#svg_8_1111)" stroke="#a0a0a0" stroke-width="2" x="-15.20196" y="43.5974" width="94.8373" height="50.3728" id="svg_3_1111" transform="rotate(-45, 32.2148, 68.7832)"/>
  <path id="svg_1111" d="m6.63133,95.07755l59.17514,-59.17514" stroke-width="3" stroke="#00ffff" fill="none"/>
  <path id="svg_2_1111" d="m51.62893,36.10742l13.05662,-13.05662l13.05661,13.05662l-13.05661,13.05662l-13.05662,-13.05662z" stroke="none" fill="#00ffff"/>
 </g>
</svg>
</g>

<g id="linecap_square">
	<svg width="100" height="100" xmlns="http://www.w3.org/2000/svg" xmlns:se="http://svg-edit.googlecode.com" xmlns:xlink="http://www.w3.org/1999/xlink">
	 <!-- Created with SVG-edit - http://svg-edit.googlecode.com/ -->
	 <defs>
	  <linearGradient id="svg_8_1111" x1="0.8" y1="1" x2="0.2" y2="1">
	   <stop offset="0" stop-color="#000000" stop-opacity="1"/>
	   <stop offset="1" stop-color="#000000" stop-opacity="0"/>
	  </linearGradient>
	 </defs>
	 <g>
	  <rect fill="url(#svg_8_1111)" stroke="none" x="-18.51568" y="35.5974" width="117.46469" height="50.3728" id="svg_3_1111" transform="rotate(-45, 40.2168, 60.7832)"/>
	  <path id="svg_1111" d="m6.63133,95.07755l59.17514,-59.17514" stroke-width="3" stroke="#00ffff" fill="none"/>
	  <path id="svg_2_1111" d="m51.62893,36.10742l13.05662,-13.05662l13.05661,13.05662l-13.05661,13.05662l-13.05662,-13.05662z" stroke="none" fill="#00ffff"/>
	 </g>
	</svg>
</g>

<g id="linecap_round">
	<svg width="100" height="100" xmlns="http://www.w3.org/2000/svg" xmlns:xlink="http://www.w3.org/1999/xlink" xmlns:se="http://svg-edit.googlecode.com">
	 <!-- Created with SVG-edit - http://svg-edit.googlecode.com/ -->
	 <defs>
	  <linearGradient y2="1" x2="0.2" y1="1" x1="0.8" id="svg_8_1111">
	   <stop stop-opacity="1" stop-color="#000000" offset="0"/>
	   <stop stop-opacity="0" stop-color="#000000" offset="1"/>
	  </linearGradient>
	 </defs>
	 <g>
	  <path transform="rotate(-45, 41.5117, 59.4648)" id="svg_3_1111" d="m-19.0679,34.2946l94.8359,0c36.499,-1.4142 33.67101,48.9569 0,50.3711l-94.8359,0l0,-50.3711z" stroke-width="2" stroke="#a0a0a0" fill="url(#svg_8_1111)"/>
	  <path id="svg_1111" d="m6.63133,95.07755l59.17515,-59.17515" stroke-width="3" stroke="#00ffff" fill="none"/>
	  <path id="svg_2_1111" d="m51.62893,36.10742l13.05662,-13.05662l13.05661,13.05662l-13.05661,13.05662l-13.05662,-13.05662z" stroke="none" fill="#00ffff"/>
	 </g>
	</svg>
</g>

<g id="linejoin_miter">
	<svg width="100" height="100" xmlns="http://www.w3.org/2000/svg" xmlns:xlink="http://www.w3.org/1999/xlink" xmlns:se="http://svg-edit.googlecode.com">
	 <!-- Created with SVG-edit - http://svg-edit.googlecode.com/ -->
	 <defs>
	  <linearGradient y2="1" x2="0.2" y1="1" x1="0.8" id="svg_8_1111">
	   <stop stop-opacity="1" stop-color="#000000" offset="0"/>
	   <stop stop-opacity="0" stop-color="#000000" offset="1"/>
	  </linearGradient>
	 </defs>
	 <g>
	  <path fill="none" stroke="url(#svg_8_1111)" stroke-width="49" d="m-15,-35l75,85l-75,75" id="svg_6_1111"/>
	  <path transform="rotate(90, 57.8925, 50.2519)" fill="#00ffff" stroke="none" d="m44.83592,50.25187l13.05661,-13.05663l13.05661,13.05663l-13.05661,13.05662l-13.05661,-13.05662z" id="svg_2_1111"/>
	  <path id="svg_4_1111" d="m-15,-35l75,85l-75,75" stroke-width="3" stroke="#00ffff" fill="none"/>
	 </g>
	</svg>
</g>

<g id="linejoin_bevel">
	<svg width="100" height="100" xmlns="http://www.w3.org/2000/svg" xmlns:xlink="http://www.w3.org/1999/xlink" xmlns:se="http://svg-edit.googlecode.com">
	 <!-- Created with SVG-edit - http://svg-edit.googlecode.com/ -->
	 <defs>
	  <linearGradient y2="1" x2="0.2" y1="1" x1="0.8" id="svg_8_1111">
	   <stop stop-opacity="1" stop-color="#000000" offset="0"/>
	   <stop stop-opacity="0" stop-color="#000000" offset="1"/>
	  </linearGradient>
	 </defs>
	 <g>
	  <path stroke-linejoin="bevel" fill="none" stroke="url(#svg_8_1111)" stroke-width="49" d="m-15,-35l75,85l-75,75" id="svg_6_1111"/>
	  <path transform="rotate(90, 57.8925, 50.2519)" fill="#00ffff" stroke="none" d="m44.83592,50.25187l13.05661,-13.05663l13.05661,13.05663l-13.05661,13.05662l-13.05661,-13.05662z" id="svg_2_1111"/>
	  <path id="svg_4_1111" d="m-15,-35l75,85l-75,75" stroke-width="3" stroke="#00ffff" fill="none"/>
	 </g>
	</svg>
</g>

<g id="linejoin_round">
	<svg width="100" height="100" xmlns="http://www.w3.org/2000/svg" xmlns:xlink="http://www.w3.org/1999/xlink" xmlns:se="http://svg-edit.googlecode.com">
	 <!-- Created with SVG-edit - http://svg-edit.googlecode.com/ -->
	 <defs>
	  <linearGradient y2="1" x2="0.2" y1="1" x1="0.8" id="svg_8_1111">
	   <stop stop-opacity="1" stop-color="#000000" offset="0"/>
	   <stop stop-opacity="0" stop-color="#000000" offset="1"/>
	  </linearGradient>
	 </defs>
	 <g>
	  <path stroke-linejoin="round" fill="none" stroke="url(#svg_8_1111)" stroke-width="49" d="m-15,-35l75,85l-75,75" id="svg_6_1111"/>
	  <path transform="rotate(90, 57.8925, 50.2519)" fill="#00ffff" stroke="none" d="m44.83592,50.25187l13.05661,-13.05663l13.05661,13.05663l-13.05661,13.05662l-13.05661,-13.05662z" id="svg_2_1111"/>
	  <path id="svg_4_1111" d="m-15,-35l75,85l-75,75" stroke-width="3" stroke="#00ffff" fill="none"/>
	 </g>
	</svg>
</g>

<g id="eye">
	<svg xmlns:xlink="http://www.w3.org/1999/xlink" xmlns="http://www.w3.org/2000/svg" viewBox="0 0 17 17">
	 <defs>
	  <linearGradient y2="0.79688" x2="0.5625" y1="0.19141" x1="0.42969" id="svg_91_1111">
	   <stop stop-opacity="1" stop-color="#d3a16b" offset="0"/>
	   <stop stop-opacity="1" stop-color="#a37c53" offset="1"/>
	  </linearGradient>
	 </defs>
	  <path stroke="none" fill="url(#svg_91_1111)" id="svg_9_1111" d="m0.12852,8.18338c3.59931,-7.71208 13.19749,-7.36932 16.75236,0.08569c-3.02165,7.5407 -13.59741,7.66924 -16.75236,-0.08569z"/>
	  <path id="svg_76_1111" stroke="none" fill="#ffffff" d="m0.33033,8.2557c3.5173,-4.97159 12.89675,-4.75063 16.37062,0.05524c-2.95279,4.86111 -13.28756,4.94397 -16.37062,-0.05524z"/>
	  <circle stroke="none" fill="#4f92c1" id="svg_88_1111" r="3.08008" cy="7.71116" cx="8.45861"/>
	  <circle stroke="none" fill="#000000" id="svg_89_1111" r="1.27539" cy="7.6539" cx="8.43159"/>
	 </svg>
</g>

<g id="no_color">
	<svg xmlns:xlink="http://www.w3.org/1999/xlink" xmlns="http://www.w3.org/2000/svg" viewBox="0 0 24 24">
		  <line fill="none" stroke="#d40000" id="svg_90_1111" y2="24" x2="24" y1="0" x1="0"/>
		  <line id="svg_92_1111" fill="none" stroke="#d40000" y2="24" x2="0" y1="0" x1="24"/>
	</svg>
</g>

<g id="ok">
	<svg xmlns:xlink="http://www.w3.org/1999/xlink" xmlns="http://www.w3.org/2000/svg" viewBox="0 0 24 24">
		 <defs>
		  <linearGradient y2="0.65625" x2="0.94141" y1="0.43359" x1="0.42969" id="svg_106_1111">
		   <stop stop-opacity="1" stop-color="#38ff45" offset="0"/>
		   <stop stop-opacity="1" stop-color="#127c0c" offset="1"/>
		  </linearGradient>
		 </defs>
		  <path transform="rotate(45, 12, 10)" stroke="#005500" fill="url(#svg_106_1111)" id="svg_101_1111" d="m7.9,15.9l4.9,-0.05l0,-13.75l3.8,0l0,17.6l-8.7,0l0,-3.8z"/>
		</svg>
</g>

<g id="cancel">
	<svg xmlns:xlink="http://www.w3.org/1999/xlink" xmlns="http://www.w3.org/2000/svg" viewBox="0 0 22 22" width="22" height="22" enable-background="new 0 0 22 22">
		<path fill="#0995D0" d="M15.242,6.05L11,10.292L6.757,6.05L6.05,6.757l4.243,4.242L6.05,15.242l0.707,0.707L11,11.707l4.243,4.242 l0.709-0.707l-4.244-4.243l4.244-4.242L15.242,6.05z M11,0C4.925,0,0,4.925,0,10.999C0,17.074,4.925,22,11,22 c6.075,0,11-4.926,11-11.001C22,4.925,17.074,0,11,0z M11,21C5.477,21,1,16.521,1,10.999C1,5.477,5.477,1,11,1 c5.524,0,10,4.477,10,9.999C21,16.521,16.523,21,11,21z"/>	</svg>
</g>

			
<g id="warning">
	<svg xmlns:xlink="http://www.w3.org/1999/xlink" xmlns="http://www.w3.org/2000/svg" viewBox="0 0 24 24">
	 <defs>
	  <linearGradient y2="0.98047" x2="0.57813" y1="0.44922" x1="0.56641" id="svg_110_1111">
	   <stop stop-opacity="1" stop-color="#ffff00" offset="0"/>
	   <stop stop-opacity="1" stop-color="#9e9e00" offset="1"/>
	  </linearGradient>
	 </defs>
	  <path d="m1.42857,21.55559l10.71429,-19.36489l10.71429,19.20352l-21.42857,0.16137z" id="svg_44_1111" fill="url(#svg_110_1111)" stroke="#916d1f" stroke-width="2"/>
	  <path stroke="none" fill="#000000" id="svg_103_1111" d="m11.98371,14.68571c-0.57143,-3.82857 -1.82857,-6.4 0.11429,-6.4c2.11429,0 0.74286,2.57143 0.11429,6.4l-0.22857,0z"/>
	  <circle stroke="none" fill="#000000" id="svg_104_1111" r="1.17578" cy="17.37143" cx="12.14308"/>
	 </svg>
</g>

<g id="node_delete">
	<svg width="24" height="24" xmlns="http://www.w3.org/2000/svg">
	  <path stroke-width="2" id="svg_102_1111" d="m4.1953,19.42128c15.49391,-15.53349 -0.21065,0.1581 15.61084,-15.57944" stroke="#8dd35f" fill="none"/>
	  <circle stroke-width="0.5" id="svg_121_1111" stroke="#0000ff" fill="#00ffff" r="2.26172" cy="4" cx="19.75"/>
	  <circle id="svg_123_1111" stroke-width="0.5" stroke="#0000ff" fill="#00ffff" r="2.26172" cy="19.40299" cx="4.0653"/>
	  <circle id="svg_7_1111" stroke-width="0.5" stroke="#0000ff" fill="#00ffff" r="2.26172" cy="11.625" cx="11.9375"/>
	  <g transform="rotate(-45.291072845458984 9.81157112121582,9.244086265563965) " id="svg_6_1111">
	   <line stroke-linecap="round" id="svg_4_1111" y2="9.45264" x2="15.14996" y1="9.3943" x1="4.47318" stroke-dasharray="null" stroke-width="2" stroke="#ff0000" fill="none"/>
	   <line stroke-linecap="round" id="svg_5_1111" y2="14.46579" x2="9.66571" y1="4.02238" x1="9.7824" stroke-dasharray="null" stroke-width="2" stroke="#ff0000" fill="none"/>
	  </g>
	</svg>
</g>

<g id="node_clone">
	<svg width="24" height="24" xmlns="http://www.w3.org/2000/svg">
	  <path stroke-width="2" id="svg_102_1111" d="m4.1953,19.42128c15.49391,-15.53349 -0.21065,0.1581 15.61084,-15.57944" stroke="#8dd35f" fill="none"/>
	  <circle stroke-width="0.5" id="svg_121_1111" stroke="#0000ff" fill="#00ffff" r="2.26172" cy="4" cx="19.75"/>
	  <circle id="svg_123_1111" stroke-width="0.5" stroke="#0000ff" fill="#00ffff" r="2.26172" cy="19.40299" cx="4.0653"/>
	  <circle id="svg_7_1111" stroke-width="0.5" stroke="#0000ff" fill="#00ffff" r="2.26172" cy="11.625" cx="11.9375"/>
	  <line stroke-linecap="round" id="svg_5_1111" y2="14.46579" x2="9.66571" y1="4.02238" x1="9.7824" stroke-dasharray="null" stroke-width="2" stroke="#0000ff" fill="#0000ff"/>
	  <line stroke-linecap="round" id="svg_4_1111" y2="9.45264" x2="15.14996" y1="9.3943" x1="4.47318" stroke-dasharray="null" stroke-width="2" stroke="#0000ff" fill="#0000ff"/>
	</svg>
</g>

<g id="globe_link">
	<svg width="66" height="66" xmlns="http://www.w3.org/2000/svg">
	 <defs>
	  <radialGradient id="svg_8_1111" spreadMethod="pad" cx="0.5" cy="0.32513">
	   <stop stop-color="#7791ef" stop-opacity="0.99219" offset="0"/>
	   <stop stop-color="#3c3cfc" offset="1"/>
	  </radialGradient>
	  <linearGradient id="svg_10_1111" x1="0" y1="0" x2="1" y2="0">
	   <stop offset="0" stop-color="#333333" stop-opacity="0.99609"/>
	   <stop offset="1" stop-opacity="0.99609" stop-color="#666666"/>
	  </linearGradient>
	 </defs>
	 <g>
	  <title>Layer 1</title>
	  <g opacity="0.8" id="svg_5_1111">
	   <circle id="svg_1111" r="27.90625" cy="33" cx="33" stroke-width="0" stroke="#AAAAAA" fill="url(#svg_8_1111)"/>
	   <g id="svg_7_1111">
		<path d="m38.2478,36.06121c-0.43732,0 -0.87463,0 -1.31195,0c-0.43731,0 -0.87463,0 -2.6239,0c-0.87463,0 -1.74926,0 -2.18658,0c-0.43732,0 -2.19828,0.33684 -2.6239,0.43732c-0.95172,0.22467 -1.27098,0.48253 -1.74927,0.87463c-1.21939,0.99965 -1.44004,1.00272 -1.74926,1.31195c-0.30923,0.30923 -0.21265,0.79756 -0.43732,1.74926c-0.10048,0.42562 0.16736,0.90792 0,1.31195c-0.23668,0.57138 -0.43732,0.87463 -0.43732,1.74926c0,0.43732 0.12809,0.56541 0.43732,0.87463c0.30923,0.30923 0.12809,0.56541 0.43732,0.87463c0.30923,0.30923 1.32364,0.77415 1.74926,0.87463c0.95171,0.22467 0.69349,0.69349 1.31195,1.31195c0.30923,0.30923 0.90791,-0.16736 1.31195,0c0.57138,0.23668 0.56541,0.56541 0.87463,0.87463c0.30923,0.30923 0.56541,0.12809 0.87463,0.43732c0.61846,0.61846 -0.10048,1.32365 0,1.74926c0.22467,0.95171 0.43732,1.31195 0.43732,2.6239c0,0.87463 0,2.18658 0,3.06121c0,0.43732 0,1.31195 0,2.6239c0,0.43732 0.12809,1.00272 0.43732,1.31195c0.30922,0.30923 1.31195,0 1.74926,0c0.87463,0 1.31195,0 1.74927,0c0.43731,0 0.6065,-0.40129 1.74926,-0.87464c0.40403,-0.16736 0.74057,-0.20064 1.31195,-0.43732c0.40403,-0.16736 0.63795,-0.74057 0.87463,-1.31195c0.16736,-0.40403 0.15712,-2.20917 0.43732,-3.93585c0.22151,-1.36505 0.43732,-2.18658 0.43732,-2.6239c0,-0.43732 -0.12928,-0.88101 0,-2.18658c0.21973,-2.21904 0.43732,-3.49853 0.43732,-3.93585c0,-0.43732 0,-0.87463 0,-1.74927c0,-1.31195 0.16736,-1.78254 0,-2.18658c-0.23668,-0.57138 -1.00272,-0.56541 -1.31195,-0.87463c-0.30923,-0.30922 -0.43732,-0.43731 -1.74926,-1.74926l0,-0.87463l-0.43732,0l0,-0.43732" id="svg_2_1111" stroke="#007f00" fill="#44b544" stroke-width="0"/>
		<path d="m5.66773,37.0452c1.12973,-0.3645 0.87463,-0.2187 1.74927,-0.656c0.87463,-0.4373 1.34081,-0.8211 2.18658,-1.3119c1.36372,-0.7915 1.44002,-1.4401 1.74922,-1.7493c0.3093,-0.3092 0.1281,-0.5654 0.4374,-0.8746c0.6184,-0.6185 0.8746,-0.4374 1.7492,-1.312c0.8747,-0.8746 1.0027,-1.0027 1.312,-1.3119c0.6184,-0.6185 0.1281,-1.0028 0.4373,-1.312c0.3092,-0.3092 0,-0.8746 0,-1.3119c0,-0.4374 0,-1.312 0,-1.7493c0,-0.4373 0.2009,-1.7727 0,-2.6239c-0.2247,-0.9517 -0.1281,-1.4401 -0.4373,-1.7493c-0.3093,-0.3092 -0.7073,-1.3452 -0.8746,-1.7492c-0.2367,-0.5714 -0.8747,-0.8747 -0.8747,-1.312c0,-0.4373 -0.4373,-0.4373 -0.4373,-0.8746l0,-0.4374l-1.2026,-0.8746c-3.7901,5.8674 -6.81486,11.6253 -5.79446,21.2099l-0.00001,0z" id="svg_3_1111" stroke="#007f00" fill="#44b544" stroke-width="0"/>
		<path d="m52.2419,13.1021c-0.4373,0.4373 -1.3495,0.8398 -2.1866,1.0933c-3.0182,0.9138 -3.2212,2.2857 -3.4985,2.6239c-1.4137,1.7245 -2.4979,1.3039 -4.8105,1.7493c-0.4294,0.0827 -0.4373,0.4373 -0.8746,0.4373c-0.4373,0 -0.8746,0 -1.312,0c-0.4373,0 -1.3119,0 -1.7492,0c-0.4373,0 -1.3453,-0.27 -1.7493,-0.4373c-0.5714,-0.2367 -0.5654,-0.5654 -0.8746,-0.8747c-0.3092,-0.3092 -0.5654,-0.1281 -0.8746,-0.4373c-0.3093,-0.3092 -0.8747,0 -1.312,0c-0.4373,0 -0.9079,-0.1673 -1.3119,0c-0.5714,0.2367 -0.3033,1.0753 -0.8747,1.312c-0.404,0.1673 -0.1281,0.5654 -0.4373,0.8746c-0.3092,0.3092 -0.4373,0.4373 -0.4373,0.8746c0,0.4373 0,0.8747 0,1.312c0,0.4373 0.0333,0.7073 0.4373,0.8746c0.5714,0.2367 0.638,0.7406 0.8746,1.312c0.1674,0.404 0.4374,0.4373 0.4374,0.8746c0,0.4373 0,0.8746 0,1.3119c0,0.4374 -0.4374,0.4374 -0.8747,0.8747c-1.3119,1.3119 -1.9499,1.1779 -2.1865,1.7492c-0.1674,0.4041 -1.0753,0.3033 -1.312,0.8747c-0.1674,0.404 0,0.8746 0.4373,0.8746c0.4373,0 0.8746,0.4373 1.312,0.4373c0.4373,0 0.8746,-0.4373 1.3119,-0.4373c0.4373,0 0.5654,-0.1281 0.8746,-0.4373c0.6185,-0.6185 1.312,0 1.7493,0c0.4373,0 0.397,-0.6543 2.1866,-0.8747c0.434,-0.0534 2.8801,-0.2561 3.4985,-0.8746c0.3093,-0.3092 0.8343,-0.6543 2.6239,-0.8746c0.4341,-0.0535 0.8747,0 1.312,0c0.4373,0 0.8746,0.4373 0.8746,0.8746c0,0.4373 0.4373,0.4373 0.4373,0.8746c0,0.4374 0.5654,2.3147 0.8746,2.6239c0.3093,0.3093 0.1281,1.0028 0.4374,1.312c0.3092,0.3092 2.1095,2.8366 3.0612,3.0612c0.4256,0.1005 0.8215,0.2158 2.1866,0.4373c0.4316,0.0701 1.3119,0 1.7492,0c0.4373,0 0.8864,0.1005 1.312,0c0.9517,-0.2246 1.44,-0.5654 1.7492,-0.8746c0.3093,-0.3092 0.8747,-0.4373 1.312,-0.4373c0.4373,0 0.5654,-0.5654 0.8746,-0.8746c0.3092,-0.3093 0.8746,0 1.312,0l1.0933,-0.656c1.1661,-7.7259 -2.4782,-14.1399 -7.6531,-20.5539l0,0z" id="svg_4_1111" stroke="#007f00" fill="#44b544" stroke-width="0"/>
		<path id="svg_6_1111" d="m10.0409,48.3061c2.1137,-0.2187 4.6647,-0.2187 6.3411,1.9679c1.1662,1.5306 1.239,3.7172 0.2186,4.5918c-2.4052,-0.8746 -5.0291,-2.6239 -6.5597,-6.5597l0,0z" stroke="#007f00" fill="#44b544" stroke-width="0"/>
	   </g>
	  </g>
	  <rect transform="rotate(45, 16.9336, 16.9375)" ry="9" rx="9" id="svg_9_1111" height="19.32339" width="29.34293" y="7.27574" x="2.26257" stroke-width="5" stroke="url(#svg_10_1111)" fill="none" stroke-linecap="round"/>
	  <rect id="svg_11_1111" transform="rotate(45, 49.0664, 49.0625)" ry="9" rx="9" height="19.32339" width="29.34293" y="39.40074" x="34.39538" stroke-width="5" stroke="url(#svg_10_1111)" fill="none" stroke-linecap="round"/>
	  <line id="svg_12_1111" y2="45.75" x2="45.75" y1="20.25" x1="20.25" stroke-linecap="round" stroke-width="5" stroke="url(#svg_10_1111)" fill="none"/>
	 </g>
	</svg>
</g>

<g id="svg_eof"/>
</svg>

