<svg xmlns="http://www.w3.org/2000/svg" width="187" height="246" x="0" y="0" id="svgcontent" viewBox="0 0 187 246" overflow="hidden"><g mask="" style="pointer-events:all"><title style="pointer-events:inherit">Layer 1</title><g type="photobox" pathStr="M27.401050438092,55.20482160643232 C37.256675286772456,124.77915160885279 37.256675286772456,194.90390266653523 27.401050438092,264.47603775548464 C27.401050438092,278.8711359426584 44.18159212609819,290.6819467292472 65.22223127252454,290.6819467292472 C165.63650541424988,283.85444516610477 266.84686149250615,283.85444516610477 367.26285381599854,290.6819467292472 C388.03596669197884,290.6819467292472 405.0823970084342,279.0564573232664 405.0823970084342,264.47603775548464 C395.22518821093746,194.90390266653523 395.22518821093746,124.77913300789116 405.0823970084342,55.20482160643232 C405.0823970084342,40.809723419258646 388.3034392692448,29.000010089405336 367.26285381599854,29.000010089405336 L367.26285381599854,29.18421541231632 C266.84686149250615,36.011716975458725 165.63650541424988,36.011716975458725 65.22223127252454,29.18421541231632 C44.447480754547314,29.18421541231632 27.401050438092,40.81082087599415 27.401050438092,55.389026929343274 " lockTransform="true" lockEdit="null" id="svg_4" display="null" style="pointer-events:inherit"><image xmlns:xlink="http://www.w3.org/1999/xlink" x="35.96650828719697" y="25.758164652579325" width="115.52949249744414" height="86.64711937308311" preserveAspectRatio="none" id="svg_5" xlink:href="http://192.168.0.139/work/print_commerce/pc-newtool-magento-21/designnbuy/assets/images/uploadedImage/admin_o_1au52mshotcp1bs291q1s3amqha.jpg" origWidth="1024" origHeight="768" image_id="247" templateSrc="http://192.168.0.139/work/print_commerce/pc-newtool-magento-21/designnbuy/assets/images/uploadedImage/admin_o_1au52mshotcp1bs291q1s3amqha.jpg#**#247" isAdminUploaded="true" filter="" colors="" clip-path="url(#svg_6)" style="pointer-events:inherit"/><path d="M42.75,39.42485C45.18989,56.64889 45.18989,74.0092 42.75,91.2327C42.75,94.79639 46.90424,97.72031 52.11313,97.72031C76.97201,96.03008 102.02797,96.03008 126.88728,97.72031C132.02994,97.72031 136.25,94.84227 136.25,91.2327C133.80972,74.0092 133.80972,56.64889 136.25,39.42485C136.25,35.86115 132.09615,32.9375 126.88728,32.9375L126.88728,32.9831C102.02797,34.67334 76.97201,34.67334 52.11313,32.9831C46.97007,32.9831 42.75,35.86142 42.75,39.47045" id="svg_7" opacity="1" stroke="#e22828" shapeType="roundedSquare" fill="#000" fill-opacity="0" stroke-width="3" stroke-dasharray="none" style="pointer-events:inherit"/></g></g><defs><clipPath class="clippath" id="svg_3"><path d="M50.75,23.78549C53.18989,47.5671 53.18989,71.53686 50.75,95.31772C50.75,100.2382 54.90424,104.27532 60.11313,104.27532C84.97201,101.94157 110.02797,101.94157 134.88727,104.27532C140.02992,104.27532 144.25,100.30154 144.25,95.31772C141.80972,71.53686 141.80972,47.5671 144.25,23.78549C144.25,18.86502 140.09615,14.82827 134.88727,14.82827L134.88727,14.89123C110.02797,17.22498 84.97201,17.22498 60.11313,14.89123C54.97007,14.89123 50.75,18.86539 50.75,23.84846" id="svg_2" opacity="1" stroke="#000000" shapeType="roundedSquare" fill="#000" fill-opacity="0" stroke-width="2" stroke-dasharray="none"/></clipPath><clipPath class="clippath" id="svg_6"><path d="M42.75,39.42485C45.18989,56.64889 45.18989,74.0092 42.75,91.2327C42.75,94.79639 46.90424,97.72031 52.11313,97.72031C76.97201,96.03008 102.02797,96.03008 126.88728,97.72031C132.02994,97.72031 136.25,94.84227 136.25,91.2327C133.80972,74.0092 133.80972,56.64889 136.25,39.42485C136.25,35.86115 132.09615,32.9375 126.88728,32.9375L126.88728,32.9831C102.02797,34.67334 76.97201,34.67334 52.11313,32.9831C46.97007,32.9831 42.75,35.86142 42.75,39.47045" id="svg_1" opacity="1" stroke="#e22828" shapeType="roundedSquare" fill="#000" fill-opacity="0" stroke-width="3" stroke-dasharray="none"/></clipPath></defs></svg>