<svg xmlns="http://www.w3.org/2000/svg" id="svgcontent" viewBox="0 0 187 240" x="0" y="0" width="187" height="240"><g mask=""><title>Layer 1</title><g id="svg_1" font-family="Kroftsmann" font-size="26.9705" font-style="normal" font-weight="normal" display="" fill="#c84040" fill-opacity="1" stroke="" stroke-dasharray="none" text-anchor="start" type="text" text="Test" lineHeight="1" shapeId="0" shapeVal="0" elemBBoxWidth="152.32313537597656" xscale="9.206582545536763" yscale="NaN" elemBBoxHeight="57.752830505371094"><path id="svg_6" fill="#c84040" stroke-width="0" d="M 22.9952 21.0664 C 22.9952 21.0664 57.1655 21.0664 57.1655 21.0664 C 57.1655 21.0664 53.5562 33.3389 53.5562 33.3389 C 53.5562 33.3389 43.9308 33.3389 43.9308 33.3389 C 43.9308 33.3389 43.9308 78.8192 43.9308 78.8192 C 43.9308 78.8192 30.2143 78.8192 30.2143 78.8192 C 30.2143 78.8192 30.2143 33.3389 30.2143 33.3389 C 30.2143 33.3389 19.1451 33.3389 19.1451 33.3389 C 19.1451 33.3389 22.9952 21.0664 22.9952 21.0664 M 60.0534 21.0664 C 60.0534 21.0664 90.6143 21.0664 90.6143 21.0664 C 90.6143 21.0664 88.689 33.5795 88.689 33.5795 C 88.689 33.5795 73.529 33.5795 73.529 33.5795 C 73.529 33.5795 73.529 42.0018 73.529 42.0018 C 73.529 42.0018 90.6143 42.0018 90.6143 42.0018 C 90.6143 42.0018 88.689 54.2743 88.689 54.2743 C 88.689 54.2743 73.529 54.2743 73.529 54.2743 C 73.529 54.2743 73.529 66.5467 73.529 66.5467 C 73.529 66.5467 90.6143 66.5467 90.6143 66.5467 C 90.6143 66.5467 88.689 78.8192 88.689 78.8192 C 88.689 78.8192 60.0534 78.8192 60.0534 78.8192 C 60.0534 78.8192 60.0534 21.0664 60.0534 21.0664 C 60.0534 21.0664 60.0534 21.0664 60.0534 21.0664 M 125.507 45.6113 C 125.507 45.6113 109.384 40.7986 109.384 40.7986 C 109.384 40.7986 111.549 35.7452 111.549 35.7452 C 111.549 35.7452 133.929 35.7452 133.929 35.7452 C 133.929 35.7452 129.838 21.0664 129.838 21.0664 C 129.838 21.0664 101.924 21.0664 101.924 21.0664 C 101.924 21.0664 93.5019 40.7986 93.5019 40.7986 C 93.5019 40.7986 101.924 54.2743 101.924 54.2743 C 101.924 54.2743 118.047 59.087 118.047 59.087 C 118.047 59.087 115.881 64.1404 115.881 64.1404 C 115.881 64.1404 93.5019 64.1404 93.5019 64.1404 C 93.5019 64.1404 97.5927 78.8192 97.5927 78.8192 C 97.5927 78.8192 125.507 78.8192 125.507 78.8192 C 125.507 78.8192 133.929 59.087 133.929 59.087 C 133.929 59.087 125.507 45.6113 125.507 45.6113 M 136.816 21.0664 C 136.816 21.0664 171.468 21.0664 171.468 21.0664 C 171.468 21.0664 171.468 33.3389 171.468 33.3389 C 171.468 33.3389 161.602 33.3389 161.602 33.3389 C 161.602 33.3389 161.602 78.8192 161.602 78.8192 C 161.602 78.8192 147.886 78.8192 147.886 78.8192 C 147.886 78.8192 147.886 33.3389 147.886 33.3389 C 147.886 33.3389 136.816 33.3389 136.816 33.3389 C 136.816 33.3389 136.816 21.0664 136.816 21.0664 C 136.816 21.0664 136.816 21.0664 136.816 21.0664" /><rect id="svg_7" opacity="0" fill="#c84040" x="19.1449" y="21.0665" width="152.323" height="57.7527" /></g><image id="svg_8" display="" preserveAspectRatio="none meet" x="49.69" y="113.44" width="93.5" height="93.5" xmlns:xlink="http://www.w3.org/1999/xlink" xlink:href="http://192.168.0.222/work/jan_langius/print_commerce/source/designnbuy/assets/images/uploadedImage/QRcode20161115125120.svg" isAdminUploaded="false" origWidth="0" origHeight="0" /></g></svg>