<svg xmlns="http://www.w3.org/2000/svg" width="401" height="220" x="0" y="0" id="svgcontent" viewBox="0 0 401 220" overflow="hidden"><defs><mask id="canvasMaskImageDef" maskUnits="objectBoundingBox" x="0" y="0"><image xmlns:xlink="http://www.w3.org/1999/xlink" id="canvasMaskImage" preserveAspectRatio="none" x="0" y="0" width="400" height="222.22222222222223" xlink:href="http://192.168.0.139/work/print_commerce/pc-newtool-magento-21/designnbuy/uploads/productimage/570c99bd99d7f.png"/></mask></defs><g mask="url(#canvasMaskImageDef)" style="pointer-events:all"><title style="pointer-events:inherit">Layer 1</title><g id="svg_1" type="text" text="Racing" font-size="29.531623033046728" font-family="Brush-Script" font-id="1" fill="000000" text-anchor="start" font-weight="normal" font-style="normal" lineHeight="1" shapeId="0" shapeVal="0" fill-opacity="1" display="null" elemBBoxWidth="83.89968872070312" stroke-width="0" stroke-dasharray="none" stroke="null" stroke-opacity="1" style="pointer-events:inherit"><path id="svg_7" fill="#000000" stroke-width="0" d="M232.16162,132.76173C230.30113,132.43687 230.56693,130.57639 232.01398,129.69044C232.84085,129.1884 233.90399,128.83401 235.29198,128.68636C235.29198,128.68636 239.66266,122.42566 239.66266,122.42566C239.66266,122.42566 235.79401,123.22301 235.79401,123.22301C235.79401,123.22301 233.40195,124.02037 233.40195,124.02037C234.22884,124.07943 235.4987,123.99083 235.79401,124.5224C235.43964,125.11304 234.1107,124.90631 233.22476,125.0835C232.30928,125.26069 231.36427,125.34929 230.33066,125.34929C228.20439,125.29023 229.71049,122.57332 230.33066,121.74643C232.87038,118.32076 239.01295,117.99591 244.68303,117.99591C247.22275,117.99591 249.20137,118.29123 250.6189,118.99999C252.42032,119.88594 252.95189,120.97861 252.50891,123.01629C251.09138,129.30653 242.82254,128.98167 236.11887,130.45827C236.11887,130.45827 247.25227,134.23831 247.25227,134.23831C248.78793,134.91753 249.26044,135.41957 249.3195,137.48679C249.34903,138.8157 248.55167,138.9043 247.42947,138.46133C247.42947,138.46133 239.45593,135.33098 239.45593,135.33098C239.45593,135.33098 234.2879,133.52956 234.2879,133.52956C234.2879,133.52956 231.77771,137.10287 231.77771,137.10287C231.89584,138.37273 230.68504,139.0815 229.53331,139.22916C228.70642,139.02243 228.88361,138.13647 229.32658,137.3096C229.32658,137.3096 230.62598,135.06519 230.62598,135.06519C230.62598,135.06519 232.16162,132.76173 232.16162,132.76173M249.49669,122.04175C247.1637,121.53971 244.32864,121.89409 241.34596,122.21894C241.25735,123.16395 240.93253,123.84318 240.48953,124.43381C240.48953,124.43381 238.09747,127.9776 238.09747,127.9776C238.09747,127.9776 240.57814,127.47557 240.57814,127.47557C244.18098,126.58962 248.34496,125.7332 250.26451,123.22301C250.70747,122.63238 250.32356,122.21894 249.49669,122.04175C249.49669,122.04175 249.49669,122.04175 249.49669,122.04175M265.88675,133.2047C265.88675,133.61813 265.79813,134.06113 265.85721,134.44502C264.23297,135.68536 262.69733,137.13242 260.86636,138.16602C259.65555,138.84525 258.29712,138.46133 258.29712,137.13242C258.29712,135.74442 258.82867,135.06519 259.41931,133.70674C257.91321,134.91753 256.4071,136.30553 254.78285,137.33913C252.42032,138.84525 250.82561,135.86255 251.09138,133.2047C252.53844,130.07436 256.37756,128.50917 259.80322,127.32791C261.60464,126.70774 263.37656,126.70774 263.84906,128.30244C263.81952,128.83401 263.19937,128.89308 262.81546,129.07027C263.73093,129.36559 263.84906,130.36966 263.22888,131.16702C262.43155,132.23016 261.01401,133.02751 261.01401,134.62222C261.01401,135.18332 261.48651,135.59676 262.10669,135.47862C263.73093,135.15379 264.05579,134.4155 265.88675,133.2047C265.88675,133.2047 265.88675,133.2047 265.88675,133.2047M253.42439,133.8544C253.30627,134.29736 252.98141,135.65582 253.74924,135.59676C256.70239,134.62222 259.09445,131.75764 261.04355,129.7495C258.41525,130.54684 255.90504,131.4328 253.98549,133.02751C253.71971,133.29329 253.51299,133.55908 253.42439,133.8544C253.42439,133.8544 253.42439,133.8544 253.42439,133.8544M276.51813,133.2047C276.51813,133.2047 276.48859,134.47456 276.48859,134.47456C274.42139,135.98067 272.26556,138.07742 268.98755,138.19554C265.50284,138.3432 265.00079,132.52547 267.06799,130.54684C268.89896,128.77496 271.23196,126.61915 274.42139,126.61915C276.60672,126.61915 275.18921,129.69044 274.42139,130.45827C273.8898,130.98982 273.4173,131.66907 272.59042,131.81671C271.85211,131.78719 271.64539,131.28514 271.52728,130.54684C270.49368,131.25562 269.43054,131.9939 268.51505,132.82079C267.12708,134.06113 268.33786,135.74442 270.05069,135.74442C272.76761,135.74442 274.74622,134.35643 276.51813,133.2047C276.51813,133.2047 276.51813,133.2047 276.51813,133.2047M285.08228,133.2047C285.08228,133.2047 285.05276,134.47456 285.05276,134.47456C285.05276,134.47456 282.36539,136.5713 282.36539,136.5713C281.44989,137.19147 280.44583,137.95929 279.11691,138.01836C276.72485,138.10695 276.10468,134.888 276.81345,132.6436C277.49265,130.48779 279.55988,127.59369 282.1882,127.59369C283.33994,127.59369 283.57617,128.59776 282.86743,129.48372C281.80429,130.78311 280.3277,132.14156 279.14645,133.29329C278.55579,134.35643 279.35315,135.5377 280.65256,135.41957C282.54257,135.21284 283.33994,134.38596 285.08228,133.2047C285.08228,133.2047 285.08228,133.2047 285.08228,133.2047M284.99371,123.45926C285.52527,123.45926 285.96823,123.90224 285.96823,124.43381C285.87964,125.76273 284.96417,126.944 283.69431,127.03259C282.95602,127.09165 282.3949,126.47149 282.45398,125.70367C282.54257,124.49287 283.69431,123.54786 284.99371,123.45926C284.99371,123.45926 284.99371,123.45926 284.99371,123.45926M291.22488,128.6273C290.72284,130.54684 288.065,131.52139 287.53342,133.41142C287.76968,134.17924 288.41937,133.3819 288.71469,133.05704C290.39798,131.16702 293.14441,129.04074 295.32977,127.59369C296.0976,127.09165 296.62915,126.8554 296.95401,126.8554C297.69229,127.12119 297.63324,128.39105 297.92856,129.12933C297.10165,130.9603 294.35522,131.87578 294.35522,134.29736C294.35522,134.82893 294.65054,135.12427 295.21164,135.06519C296.71774,134.91753 297.48557,134.1497 298.90308,133.2047C298.90308,133.61813 298.81451,134.06113 298.87357,134.47456C296.92447,135.80348 295.41837,138.10695 292.52426,138.10695C290.57516,138.10695 290.84097,135.24239 291.69736,133.91347C291.69736,133.91347 293.49881,131.16702 293.49881,131.16702C291.28394,132.76173 289.48251,135.39005 287.53342,137.13242C285.87964,138.60899 284.78699,136.45319 285.05276,134.06113C285.34808,131.34421 286.94278,129.24747 288.95093,128.15479C289.77783,127.94807 291.1658,127.88901 291.22488,128.6273C291.22488,128.6273 291.22488,128.6273 291.22488,128.6273M312.10373,133.2047C312.10373,133.61813 312.01514,134.06113 312.07419,134.44502C312.07419,134.44502 306.07928,138.40227 306.07928,138.40227C304.30737,140.82385 302.88986,143.7475 300.0253,144.98782C299.43466,145.2536 298.54871,145.31267 298.6373,144.42673C298.90308,142.2709 300.64545,141.03058 301.94485,139.76073C302.77173,138.96336 303.86441,138.13647 304.69128,137.54585C304.69128,137.54585 306.75851,133.47047 306.75851,133.47047C305.10474,134.94707 303.62814,137.25053 300.88171,137.25053C299.61185,137.25053 298.84402,135.83301 298.84402,134.47456C298.84402,130.01527 303.06705,128.39105 306.25647,127.03259C307.26053,126.61915 309.38681,126.64868 308.88477,127.88901C307.11288,129.95622 303.42142,130.66498 301.59048,132.52547C301.02936,133.08656 300.88171,133.76579 300.97031,134.79941C303.51001,135.12427 304.83896,133.14565 306.25647,131.84625C307.26053,130.93076 307.85117,129.71997 308.85526,128.89308C309.74121,128.15479 310.83386,129.69044 310.33182,130.66498C310.33182,130.66498 307.61493,135.80348 307.61493,135.80348C307.61493,135.80348 312.10373,133.2047 312.10373,133.2047" stroke="null" style="pointer-events:inherit"/><rect id="svg_8" x="228.20404052734375" y="117.99602937384861" width="83.89934581816124" height="27.31675334962165" fill="#000000" opacity="0" stroke="null" style="pointer-events:inherit"/></g><g id="svg_4" type="text" text="Your Text Here" font-size="33.510972251500064" font-family="Aldo" font-id="1" fill="ffffff" text-anchor="start" font-weight="normal" font-style="normal" lineHeight="1" shapeId="8" shapeVal="-10" fill-opacity="1" display="null" elemBBoxWidth="247.49539184570312" stroke-width="0" stroke-dasharray="none" stroke="ull" stroke-opacity="1" transform="rotate(-19.4265 196.205 102.949)" style="pointer-events:inherit"><path id="svg_13" fill="#ffffff" stroke="#ull" stroke-width="0" d="M79.30034,90.58759C76.6855,88.53159 74.37499,84.60735 74.37499,81.08856C74.37499,81.08856 74.37499,76.3299 74.37499,76.3299C74.37499,76.3299 82.0491,79.10859 82.0491,79.10859C82.0491,79.10859 82.0491,102.53307 82.0491,102.53307C82.0491,102.53307 79.30034,101.57922 79.30034,101.57922C79.30034,101.57922 79.30034,90.58759 79.30034,90.58759C79.30034,90.58759 79.30034,90.58759 79.30034,90.58759M91.39826,86.78204C91.39826,90.30082 89.1194,92.75251 86.43882,92.97208C86.43882,92.97208 86.43882,103.96372 86.43882,103.96372C86.43882,103.96372 83.89215,103.14743 83.89215,103.14743C83.89215,103.14743 83.89215,79.72295 83.89215,79.72295C83.89215,79.72295 91.39826,82.02338 91.39826,82.02338C91.39826,82.02338 91.39826,86.78204 91.39826,86.78204C91.39826,86.78204 91.39826,86.78204 91.39826,86.78204M101.08342,107.96523C96.75943,106.4324 93.40931,101.78873 93.40931,96.72845C93.40931,92.27142 96.99316,89.46856 101.08342,90.13735C101.08342,90.13735 101.08342,107.96523 101.08342,107.96523C101.08342,107.96523 101.08342,107.96523 101.08342,107.96523M102.92647,90.56237C107.11412,91.93643 110.43259,96.38245 110.43259,101.37554C110.43259,105.76538 106.94613,108.89189 102.92647,108.39025C102.92647,108.39025 102.92647,90.56237 102.92647,90.56237C102.92647,90.56237 102.92647,90.56237 102.92647,90.56237M119.94975,111.57891C115.86192,110.5592 112.44363,106.20802 112.44363,101.75098C112.44363,101.75098 112.44363,92.43476 112.44363,92.43476C112.44363,92.43476 119.94975,93.68385 119.94975,93.68385C119.94975,93.68385 119.94975,111.57891 119.94975,111.57891C119.94975,111.57891 119.94975,111.57891 119.94975,111.57891M121.7928,111.85059C121.7928,111.85059 121.7928,93.95554 121.7928,93.95554C121.7928,93.95554 129.4669,94.94911 129.4669,94.94911C129.1991,100.74906 130.50652,106.89704 127.25622,109.76497C125.68098,111.10754 123.97184,111.92043 121.7928,111.85059C121.7928,111.85059 121.7928,111.85059 121.7928,111.85059M131.47797,113.10339C131.74577,107.33495 130.40427,101.18866 133.62291,98.2823C135.12997,96.89034 136.87321,96.01556 138.98407,95.96719C138.98407,95.96719 138.98407,113.82865 138.98407,113.82865C138.98407,113.82865 131.47797,113.10339 131.47797,113.10339C131.47797,113.10339 131.47797,113.10339 131.47797,113.10339M140.79305,103.18675C140.79305,103.18675 140.79305,96.11607 140.79305,96.11607C144.54732,96.73032 147.89743,100.0305 148.29916,103.70729C148.29916,103.70729 140.79305,103.18675 140.79305,103.18675C140.79305,103.18675 140.79305,103.18675 140.79305,103.18675M160.36543,98.73022C160.36543,98.73022 160.36543,91.59211 160.36543,91.59211C160.36543,91.59211 175.7453,91.9151 175.7453,91.9151C175.7453,91.9151 175.7453,99.05322 175.7453,99.05322C175.7453,99.05322 160.36543,98.73022 160.36543,98.73022C160.36543,98.73022 160.36543,98.73022 160.36543,98.73022M164.38509,115.13581C164.38509,115.13581 164.38509,100.69258 164.38509,100.69258C164.38509,100.69258 171.52356,100.84068 171.52356,100.84068C171.52356,100.84068 171.52356,115.28391 171.52356,115.28391C171.52356,115.28391 164.38509,115.13581 164.38509,115.13581C164.38509,115.13581 164.38509,115.13581 164.38509,115.13581M194.77962,108.30853C194.17825,112.09506 190.65771,115.44501 186.3678,115.4384C186.3678,115.4384 177.75633,115.3928 177.75633,115.3928C178.02415,109.59767 176.71674,103.52023 179.96947,100.32987C181.54227,98.79802 183.2514,97.80096 185.43045,97.57439C185.43045,97.57439 185.43045,108.29799 185.43045,108.29799C185.43045,108.29799 194.77962,108.30853 194.77962,108.30853C194.77962,108.30853 194.77962,108.30853 194.77962,108.30853M187.2735,97.57897C191.49524,97.98603 194.9817,101.70673 194.77962,106.46539C194.77962,106.46539 187.2735,106.45943 187.2735,106.45943C187.2735,106.45943 187.2735,97.57897 187.2735,97.57897C187.2735,97.57897 187.2735,97.57897 187.2735,97.57897M196.79066,115.44641C196.82475,111.25742 196.38895,108.67712 198.43407,105.76171C196.65675,103.01358 196.72493,101.20403 196.79066,97.51776C196.79066,97.51776 204.46477,97.52283 204.46477,97.52283C204.46477,97.52283 204.46477,115.45149 204.46477,115.45149C204.46477,115.45149 196.79066,115.44641 196.79066,115.44641C196.79066,115.44641 196.79066,115.44641 196.79066,115.44641M206.30783,115.45564C206.30783,115.45564 206.30783,97.52699 206.30783,97.52699C206.30783,97.52699 213.81393,97.56598 213.81393,97.56598C213.84802,101.05145 213.94785,103.36454 212.34096,105.79877C214.18401,108.42681 213.78229,111.50648 213.81393,115.49464C213.81393,115.49464 206.30783,115.45564 206.30783,115.45564C206.30783,115.45564 206.30783,115.45564 206.30783,115.45564M224.2368,115.63973C219.74725,115.56116 215.825,111.45815 215.825,106.90058C215.825,106.90058 215.825,92.08853 215.825,92.08853C215.825,92.08853 223.29945,92.19657 223.29945,92.19657C223.29945,92.19657 223.3311,108.48378 223.3311,108.48378C223.3311,108.48378 232.64862,108.73227 232.64862,108.73227C232.2469,112.53864 228.4269,115.73962 224.2368,115.63973C224.2368,115.63973 224.2368,115.63973 224.2368,115.63973M225.1425,104.86823C225.1425,104.86823 225.1425,97.73035 225.1425,97.73035C225.1425,97.73035 232.64862,97.94149 232.64862,97.94149C232.64862,97.94149 232.64862,105.07936 232.64862,105.07936C232.64862,105.07936 225.1425,104.86823 225.1425,104.86823C225.1425,104.86823 225.1425,104.86823 225.1425,104.86823M244.71246,116.37634C244.71246,116.37634 244.71246,92.9521 244.71246,92.9521C244.71246,92.9521 251.91667,93.46439 251.91667,93.46439C251.91667,93.46439 251.91667,116.88863 251.91667,116.88863C251.91667,116.88863 244.71246,116.37634 244.71246,116.37634C244.71246,116.37634 244.71246,116.37634 244.71246,116.37634M253.75974,117.04314C253.75974,117.04314 253.75974,93.6189 253.75974,93.6189C253.75974,93.6189 260.93228,94.32034 260.93228,94.32034C260.93228,94.32034 260.93228,117.74458 260.93228,117.74458C260.93228,117.74458 253.75974,117.04314 253.75974,117.04314C253.75974,117.04314 253.75974,117.04314 253.75974,117.04314M279.96661,113.42891C279.36282,117.10569 275.8447,119.84828 271.55481,119.17539C271.55481,119.17539 262.94333,118.03878 262.94333,118.03878C263.21115,112.27262 261.90372,106.05676 265.15402,103.22453C266.72925,101.88311 268.43842,101.10513 270.61746,101.17667C270.61746,101.17667 270.61746,111.90026 270.61746,111.90026C270.61746,111.90026 279.96661,113.42891 279.96661,113.42891C279.96661,113.42891 279.96661,113.42891 279.96661,113.42891M272.46051,101.44982C276.68222,102.52892 280.16626,106.86377 279.96661,111.58577C279.96661,111.58577 272.46051,110.33028 272.46051,110.33028C272.46051,110.33028 272.46051,101.44982 272.46051,101.44982C272.46051,101.44982 272.46051,101.44982 272.46051,101.44982M281.97766,120.94405C282.24548,115.1982 280.90396,108.94441 284.12262,106.31964C285.62967,105.08746 287.37292,104.41969 289.4838,104.65386C289.4838,104.65386 289.4838,122.51534 289.4838,122.51534C289.4838,122.51534 281.97766,120.94405 281.97766,120.94405C281.97766,120.94405 281.97766,120.94405 281.97766,120.94405M291.29276,112.14336C291.29276,112.14336 291.29276,105.07269 291.29276,105.07269C295.04703,106.32903 298.39713,110.29544 298.79886,114.05803C298.79886,114.05803 291.29276,112.14336 291.29276,112.14336C291.29276,112.14336 291.29276,112.14336 291.29276,112.14336M317.83319,123.96793C317.23181,127.52358 313.71127,129.56833 309.42136,128.07867C309.42136,128.07867 300.80991,125.41207 300.80991,125.41207C301.07773,119.69129 299.77029,113.25523 303.02304,110.97736C304.59583,109.91103 306.30499,109.43784 308.48401,109.90631C308.48401,109.90631 308.48401,120.62991 308.48401,120.62991C308.48401,120.62991 317.83319,123.96793 317.83319,123.96793C317.83319,123.96793 317.83319,123.96793 317.83319,123.96793M310.32706,110.52251C314.5488,112.41265 318.03525,117.44425 317.83319,122.12479C317.83319,122.12479 310.32706,119.40298 310.32706,119.40298C310.32706,119.40298 310.32706,110.52251 310.32706,110.52251C310.32706,110.52251 310.32706,110.52251 310.32706,110.52251" style="pointer-events:inherit"/><rect id="svg_14" x="74.37498474121094" y="76.32990264892578" width="243.66026306152344" height="53.238426208496094" fill="#000000" opacity="0" style="pointer-events:inherit"/></g></g></svg>