<svg xmlns="http://www.w3.org/2000/svg" width="187" height="240" x="0" y="0" id="svgcontent" overflow="hidden" viewBox="0 0 187 240"><g style="pointer-events:all" mask="url(#canvasMaskImageDef)"><title style="pointer-events:inherit">Layer 1</title><g id="svg_4" display="null" clip-id="1" stroke="null" stroke-opacity="1" transform=""><path fill="#2BA9E1" d="M 156.285 72.1161 L 170.875 62.1603 L 150.067 56.0693 C 132.692 25.5349 97.2307 41.4585 85.3792 70.4983 C 71.0794 105.501 30.125 118.269 30.125 118.269 C 59.273 152.937 85.5625 159.198 103.096 157.816 C 120.639 156.424 167.988 142.635 158.131 81.0835 C 157.616 77.8856 156.994 74.9055 156.285 72.1161 Z" id="svg_5" stroke-width="0" stroke="null" transform=""/><path fill="#2B3277" d="M 150.067 56.0693 C 152.55 60.4329 154.663 65.7562 156.285 72.1161 L 170.875 62.1603 L 150.067 56.0693 Z M 126.877 94.7195 C 126.877 94.7195 78.2098 84.684 72.628 111.765 C 67.0478 138.84 111.983 154.555 126.877 94.7195 Z M 136.241 55.3168 C 136.567 58.2203 135.071 60.7784 132.893 61.0322 C 130.708 61.2771 128.668 59.117 128.345 56.218 C 128.011 53.3145 129.508 50.7564 131.693 50.5026 C 133.883 50.2667 135.909 52.4132 136.241 55.3168 Z" id="svg_6" stroke-width="0" stroke="null" transform=""/></g></g><defs><mask id="canvasMaskImageDef" maskUnits="objectBoundingBox" x="0" y="0"><image xmlns:xlink="http://www.w3.org/1999/xlink" id="canvasMaskImage" preserveAspectRatio="none" style="pointer-events:none" x="-106" y="-81" width="400" height="344.82758620689657" xlink:href="http://192.168.0.222/work/jan_langius/print_commerce/source/designnbuy/uploads/productimage/5826bc835e1ff.png"/></mask></defs></svg>