<?xml version="1.0"?>
<svg xmlns="http://www.w3.org/2000/svg" width="400" height="218"><g><title>Layer 1</title><g clip-id="910" display="null" id="svg_4"><path id="svg_5" d="m166.76305,95.01035c-0.60538,1.43581 -1.31647,2.83862 -1.79376,4.31709c-0.91002,2.81921 -1.64635,5.69374 -2.52722,8.52264c-2.00333,6.43781 -4.42867,12.71266 -8.36646,18.23466c-2.00526,2.81339 -4.75073,4.89432 -8.2054,5.78685c-2.13332,0.55104 -3.90187,-0.61992 -5.06313,-1.98781c-1.59004,-1.8743 -2.86385,-4.12404 -3.82912,-6.39998c-2.79692,-6.59789 -4.29674,-13.53435 -5.00105,-20.67067c-0.51709,-5.23097 0.75377,-7.90369 5.3076,-10.59096c2.32443,-1.37177 4.55576,-2.90266 6.79581,-4.41121c0.37447,-0.25224 0.5782,-0.75768 1.02834,-1.37468c-3.06563,-0.26582 -5.95567,-0.37254 -8.79428,-0.81298c-1.99944,-0.30947 -4.25308,-0.62671 -5.79849,-1.75594c-1.55318,-1.13409 -2.8037,-3.13644 -3.41295,-5.0088c-1.0652,-3.27421 -1.85683,-6.71043 -2.16534,-10.13306c-0.29976,-3.32563 -1.8054,-6.07693 -3.16264,-8.91167c-1.79572,-3.74763 -0.40549,-10.56187 3.22087,-12.32751c1.63272,-0.79551 4.12695,-0.69753 5.92752,-0.09701c4.31032,1.43676 8.61285,3.09375 12.60594,5.24357c6.02356,3.24511 11.83951,6.86759 15.47075,13.08131c2.65234,4.53926 5.56664,8.92622 8.29077,13.26466c0.48117,-0.77998 0.48117,-0.77998 -0.40358,-6.73855c0.64029,1.12826 1.03806,1.91989 1.5231,2.65235c0.34828,0.52677 0.81396,0.97594 1.22723,1.46004c0.44432,-0.44432 0.90512,-0.8741 1.32713,-1.33976c0.2047,-0.22507 0.33762,-0.51611 0.45596,-0.70432c0,1.9296 0,3.84755 0,5.76552c0.1465,0.01358 0.29201,0.02716 0.43756,0.04074c0.83527,-1.5658 1.70644,-3.11414 2.5,-4.7003c2.95505,-5.90715 6.44754,-11.47089 11.30016,-15.98881c2.11879,-1.97227 4.59164,-3.71756 7.1848,-4.99716c5.32216,-2.62616 10.76172,-5.05247 16.29443,-7.1955c3.17426,-1.23013 7.19644,-0.24349 8.3548,4.4762c1.07684,4.38987 0.44528,8.01817 -1.79379,11.88901c-1.20493,2.08191 -0.92261,4.97971 -1.5658,7.44289c-0.96918,3.70979 -1.91116,7.46227 -3.33533,11.00812c-1.17776,2.93466 -4.44904,2.96861 -7.01602,3.49539c-3.02972,0.62186 -6.18947,0.60925 -9.7809,1.38827c0.54134,0.37253 1.08656,0.73827 1.62109,1.11759c3.17235,2.24975 6.46208,4.35591 9.4724,6.80454c2.26334,1.84033 3.47986,4.22493 2.38266,7.42542c-0.58595,1.70839 -0.28619,3.70203 -0.73439,5.47835c-1.39798,5.53752 -2.70863,11.12065 -4.57129,16.50687c-0.89154,2.57664 -2.19153,5.29305 -4.96613,6.75018c-1.9519,1.02641 -6.40096,0.51128 -8.23062,-1.10692c-3.83105,-3.3887 -6.28065,-7.68735 -8.40039,-12.27707c-2.78914,-6.03714 -4.51115,-12.39833 -6.2661,-18.76823c-0.36479,-1.3252 -1.13411,-2.53787 -2.19543,-3.86018c-0.06985,2.10229 -0.04559,4.21236 -0.24254,6.30298c-0.13484,1.41931 -0.36185,2.91042 -0.9449,4.1871c-0.65678,1.43483 -2.07997,1.36208 -2.5631,-0.16394c-0.57822,-1.83066 -0.76448,-3.80489 -0.95074,-5.73351c-0.14453,-1.49594 -0.0291,-3.01616 -0.0291,-4.52666c-0.20665,-0.01941 -0.41232,-0.03978 -0.61894,-0.05917z" fill-rule="evenodd"/></g></g></svg>
