<?xml version="1.0"?>
<svg xmlns="http://www.w3.org/2000/svg" xmlns:xlink="http://www.w3.org/1999/xlink" width="203" height="348"><defs><clipPath id="svg_4" class="clippath"><path stroke-width="4" fill-opacity="0" fill="#000" shapeType="roundedSquare" stroke="#000000" id="svg_1" d="m63.75,52.96156c2.64865,24.27381 2.64865,48.73975 0,73.01283c0,5.02236 4.50967,9.14303 10.16422,9.14303c26.98582,-2.38205 54.18562,-2.38205 81.1719,0c5.58275,0 10.16388,-4.056 10.16388,-9.14303c-2.64912,-24.27308 -2.64912,-48.73902 0,-73.01283c0,-5.02233 -4.50928,-9.14264 -10.16388,-9.14264l0,0.06428c-26.98628,2.38204 -54.18607,2.38204 -81.1719,0c-5.58309,0 -10.16422,4.05642 -10.16422,9.14263"/></clipPath><clipPath id="svg_6" class="clippath"><path stroke-width="4" fill-opacity="0" fill="#000" shapeType="roundedSquare" stroke="#000000" id="svg_8" d="m41.75,194.62352c3.19665,25.71655 3.19665,51.63655 0,77.35237c0,5.3208 5.44273,9.6864 12.2672,9.6864c32.56907,-2.52365 65.3964,-2.52365 97.96614,0c6.73775,0 12.26666,-4.29712 12.26666,-9.6864c-3.19716,-25.71582 -3.19716,-51.63583 0,-77.35237c0,-5.32082 -5.44218,-9.68602 -12.26666,-9.68602l0,0.06808c-32.56974,2.52364 -65.39706,2.52364 -97.96614,0c-6.73823,0 -12.2672,4.29752 -12.2672,9.68602"/></clipPath><clipPath id="svg_11" class="clippath"><path stroke-width="0" fill-opacity="0" fill="#000" shapeType="circle" stroke="#000000" id="svg_2" d="m152.25,126.70771c0,27.5864 -22.72151,49.95081 -50.75002,49.95081c-28.02848,0.00014 -50.74998,-22.36372 -50.74998,-49.95081c0,-27.58709 22.7215,-49.95074 50.75009,-49.95074c28.0285,0 50.74991,22.36365 50.74991,49.95074z"/></clipPath><clipPath id="svg_7" class="clippath"><path stroke-width="0" fill-opacity="0" fill="#000" shapeType="heartCurve" stroke="#000000" id="svg_9" d="m58.11941,87.46902c-3.22156,4.51096 -5.08312,9.88123 -5.36941,15.394l0.07146,0c-0.28629,6.01475 1.00267,12.02907 3.65164,17.39931l0,0.07191c2.07639,4.22466 4.72536,8.16301 7.73295,11.74277c2.72086,3.29387 5.72802,6.37209 8.87854,9.16484c2.43459,2.21931 5.01207,4.22466 7.66106,6.22914c1.36043,0.93036 2.64938,1.93219 4.00898,2.86337l-0.07146,0c2.50603,2.00493 4.72535,4.43907 6.58733,7.08847c3.36535,4.65472 5.5132,10.09561 6.15768,15.82364c6.73069,-2.29121 13.17467,-5.51277 19.04563,-9.52303c13.67621,-8.95001 24.55882,-21.47978 31.43246,-36.22971l0.07188,0c3.65164,-7.37431 5.72803,-15.39399 6.22873,-23.62804l0,0.07104c0.28673,-5.94285 -0.85889,-11.88528 -3.36493,-17.327c-2.00533,-4.29655 -5.08354,-7.94736 -8.95001,-10.812c-3.00673,-2.29121 -6.58775,-3.65164 -10.38232,-4.00941c-7.16078,-0.35818 -14.17651,2.36268 -19.18858,7.66106c-2.8638,3.00716 -5.29837,6.51502 -7.23266,10.23855l0.07146,0c-0.85931,1.7182 -1.64716,3.43682 -2.29121,5.22649l-0.07147,0c-1.28896,-2.00449 -2.72087,-3.93794 -4.22466,-5.79907c-3.15009,-3.8669 -6.87362,-7.08888 -11.16975,-9.5945c-4.72535,-2.8638 -10.45338,-3.58018 -15.75217,-1.86156l0.07148,0c-5.44131,1.79009 -10.1671,5.22691 -13.53244,9.88079"/></clipPath><clipPath id="svg_12" class="clippath"><path stroke-width="0" fill-opacity="0" fill="#000" shapeType="heartCurve" stroke="#000000" id="svg_13" d="m58.11941,87.46902c-3.22156,4.51096 -5.08312,9.88123 -5.36941,15.394l0.07146,0c-0.28629,6.01475 1.00267,12.02907 3.65164,17.39931l0,0.07191c2.07639,4.22466 4.72536,8.16301 7.73295,11.74277c2.72086,3.29387 5.72802,6.37209 8.87854,9.16484c2.43459,2.21931 5.01207,4.22466 7.66106,6.22914c1.36043,0.93036 2.64938,1.93219 4.00898,2.86337l-0.07146,0c2.50603,2.00493 4.72535,4.43907 6.58733,7.08847c3.36535,4.65472 5.5132,10.09561 6.15768,15.82364c6.73069,-2.29121 13.17467,-5.51277 19.04563,-9.52303c13.67621,-8.95001 24.55882,-21.47978 31.43246,-36.22971l0.07188,0c3.65164,-7.37431 5.72803,-15.39399 6.22873,-23.62804l0,0.07104c0.28673,-5.94285 -0.85889,-11.88528 -3.36493,-17.327c-2.00533,-4.29655 -5.08354,-7.94736 -8.95001,-10.812c-3.00673,-2.29121 -6.58775,-3.65164 -10.38232,-4.00941c-7.16078,-0.35818 -14.17651,2.36268 -19.18858,7.66106c-2.8638,3.00716 -5.29837,6.51502 -7.23266,10.23855l0.07146,0c-0.85931,1.7182 -1.64716,3.43682 -2.29121,5.22649l-0.07147,0c-1.28896,-2.00449 -2.72087,-3.93794 -4.22466,-5.79907c-3.15009,-3.8669 -6.87362,-7.08888 -11.16975,-9.5945c-4.72535,-2.8638 -10.45338,-3.58018 -15.75217,-1.86156l0.07148,0c-5.44131,1.79009 -10.1671,5.22691 -13.53244,9.88079"/></clipPath><clipPath id="svg_15" class="clippath"><path stroke="#000000" stroke-width="0" fill-opacity="0" fill="#000" shapeType="heartCurve" id="svg_18" d="m37.65353,77.95819c-4.14201,5.79979 -6.53544,12.70441 -6.90353,19.79227l0.09188,0c-0.36809,7.73325 1.28914,15.46595 4.69497,22.37056l0,0.09245c2.66964,5.43169 6.07546,10.49531 9.94235,15.09785c3.49826,4.23499 7.3646,8.19269 11.41527,11.78336c3.13017,2.85342 6.4441,5.4317 9.84992,8.00891c1.74913,1.19617 3.40636,2.48422 5.15441,3.68147l-0.09188,0c3.22204,2.57776 6.07545,5.70738 8.46941,9.11374c4.3269,5.98466 7.08842,12.98009 7.91702,20.3447c8.65375,-2.94585 16.93886,-7.08786 24.48724,-12.2439c17.58369,-11.50716 31.57564,-27.61687 40.41316,-46.58105l0.09244,0c4.69496,-9.48127 7.36459,-19.79227 8.00836,-30.37892l0,0.09135c0.36864,-7.64081 -1.10429,-15.28108 -4.32634,-22.27759c-2.57829,-5.52413 -6.53598,-10.21802 -11.50716,-13.90115c-3.8658,-2.94583 -8.46997,-4.69496 -13.34871,-5.15494c-9.20671,-0.46052 -18.22693,3.03773 -24.67102,9.84993c-3.68204,3.86634 -6.8122,8.37645 -9.29914,13.16386l0.09188,0c-1.10482,2.2091 -2.11777,4.41875 -2.94584,6.71975l-0.09188,0c-1.65725,-2.57721 -3.49826,-5.06306 -5.43171,-7.45596c-4.05012,-4.97172 -8.83752,-9.11428 -14.36111,-12.33578c-6.07546,-3.68203 -13.44007,-4.60308 -20.2528,-2.39343l0.09189,0c-6.99597,2.30155 -13.07197,6.72031 -17.39884,12.7039"/></clipPath><filter color-interpolation-filters="sRGB" type="css_grayscale" id="svg_17"><feColorMatrix values="0" type="saturate"/></filter></defs><g><title>Layer 1</title><g stroke="null" display="null" id="svg_3" lockEdit="false" lockTransform="true" pathStr="M10.972713607910084,83.59268995227295 C3.428792716648282,94.1559633198607 -0.9304067133381135,106.73149069382666 -1.6008201473162007,119.64074646580096 L-1.43347443870117,119.64074646580096 C-2.103887872679259,133.72546012078206 0.9144677942768986,147.80917696639327 7.117561817582526,160.38468744528524 L7.117561817582526,160.55304685834412 C11.979828972931976,170.44590679195386 18.182922996237593,179.6683532915855 25.22576978087602,188.05104702988433 C31.59720632216652,195.76430724850078 38.63905629743512,202.97253991316273 46.01662828945169,209.5123189724381 C51.717651396764126,214.7092944400916 57.75338281638065,219.40517890604787 63.9564768396863,224.0990866483383 C67.14219511033156,226.2777064490357 70.16055077728771,228.623671958348 73.34429232426734,230.8042515876372 L73.1769466156523,230.8042515876372 C79.04531543157977,235.49915613929747 84.24229089923332,241.1991993323141 88.60248713858952,247.4032732699155 C96.48310996089518,258.303248568547 101.51272282485964,271.0441449274625 103.02189221080069,284.4574483390956 C118.78313785541192,279.0921303534571 133.87297325667515,271.5481925671213 147.62098498061246,262.15740354950486 C179.64652710012382,241.1991993323141 205.13031343669428,211.85828448175047 221.22628428868373,177.31843433494174 L221.39462680666855,177.31843433494174 C229.94566306295224,160.04999602805515 234.80791332322767,141.27037782141372 235.9804145682731,121.98870559385314 L235.9804145682731,122.1550713881724 C236.65182481162094,108.23871714625022 233.9691573712647,94.32334281862386 228.10077166026326,81.58046973604287 C223.40488719430704,71.51925038937422 216.1966545296451,62.97019085675616 207.1425674430724,56.26205238442186 C200.10169738209964,50.89673439878341 191.7160301107654,47.71101612813816 182.8302855421776,46.873240090470986 C166.06192453254445,46.03448413850802 149.63323898699062,52.40592067979852 137.8964844600616,64.81310553577961 C131.19032271139298,71.85495551104819 125.48929960408054,80.06930673136216 120.95978093244372,88.78868550563071 L121.12712664105874,88.78868550563071 C119.11488952975463,92.81217981394315 117.26999812706555,96.83667093162542 115.76180865542031,101.02751094855287 L115.59446294680524,101.02751094855287 C112.57609038477501,96.33360320626238 109.22300951044065,91.8060612582911 105.70158611812147,87.44785863767456 C98.32502783054882,78.39275784665793 89.60563216120615,70.84784014602629 79.54540962390733,64.98045124439463 C68.48006534032635,58.27430639080003 55.066761928693154,56.596777591800034 42.65859715841631,60.621251814408254 L42.82595976210539,60.621251814408254 C30.08406659382016,64.81310553577961 19.017725500869318,72.86107406670024 11.137102678563714,83.75907264166622 " type="photobox"><g id="svg_19" stroke="null" clip-path="url(#svg_15)" display="none"><image xmlns:xlink="http://www.w3.org/1999/xlink" filter="url(#svg_17)" isAdminUploaded="true" templateSrc="http://192.168.0.139/work/print_commerce/pc-newtool-magento-21/designnbuy/assets/images/uploadedImage/admin_o_1aftj74n614d41qdaimogdk53pa.jpg#**#16" image_id="16" origHeight="768" origWidth="1024" xlink:href="admin_o_1aftj74n614d41qdaimogdk53pa.jpg" id="svg_5" preserveAspectRatio="none" height="192.16836" width="256.22449" y="32.06141" x="31.62893" svgtype="dragImage" display="none"/></g><path stroke="#000000" stroke-width="0" fill-opacity="0" fill="#000" shapeType="heartCurve" id="svg_16" d="m37.65353,77.95819c-4.14201,5.79979 -6.53544,12.70441 -6.90353,19.79227l0.09188,0c-0.36809,7.73325 1.28914,15.46595 4.69497,22.37056l0,0.09245c2.66964,5.43169 6.07546,10.49531 9.94235,15.09785c3.49826,4.23499 7.3646,8.19269 11.41527,11.78336c3.13017,2.85342 6.4441,5.4317 9.84992,8.00891c1.74913,1.19617 3.40636,2.48422 5.15441,3.68147l-0.09188,0c3.22204,2.57776 6.07545,5.70738 8.46941,9.11374c4.3269,5.98466 7.08842,12.98009 7.91702,20.3447c8.65375,-2.94585 16.93886,-7.08786 24.48724,-12.2439c17.58369,-11.50716 31.57564,-27.61687 40.41316,-46.58105l0.09244,0c4.69496,-9.48127 7.36459,-19.79227 8.00836,-30.37892l0,0.09135c0.36864,-7.64081 -1.10429,-15.28108 -4.32634,-22.27759c-2.57829,-5.52413 -6.53598,-10.21802 -11.50716,-13.90115c-3.8658,-2.94583 -8.46997,-4.69496 -13.34871,-5.15494c-9.20671,-0.46052 -18.22693,3.03773 -24.67102,9.84993c-3.68204,3.86634 -6.8122,8.37645 -9.29914,13.16386l0.09188,0c-1.10482,2.2091 -2.11777,4.41875 -2.94584,6.71975l-0.09188,0c-1.65725,-2.57721 -3.49826,-5.06306 -5.43171,-7.45596c-4.05012,-4.97172 -8.83752,-9.11428 -14.36111,-12.33578c-6.07546,-3.68203 -13.44007,-4.60308 -20.2528,-2.39343l0.09189,0c-6.99597,2.30155 -13.07197,6.72031 -17.39884,12.7039"/></g><g elemBBoxHeight="43.43361" yscale="NaN" xscale="4.28601" stroke="null" stroke-width="0" elemBBoxWidth="97.48829" display="null" shapeVal="0" shapeId="0" lineHeight="1" font-style="normal" font-weight="normal" text-anchor="start" fill="0" font-id="1" font-family="Brush-Script" font-size="16" text="test" type="text" id="svg_20"><path d="m72.44498,256.95911c-0.13281,1.0712 -0.13281,2.22482 -0.13281,3.46085c-5.11343,4.36725 -8.89869,11.78336 -16.53563,11.78336c-6.57441,0 -3.51963,-11.45377 -1.26175,-15.90341c0,0 -4.38294,4.20245 -4.38294,4.20245c0.06641,-1.15363 -0.06641,-2.55444 0.13282,-3.54324c0,0 3.254,-3.13126 3.254,-3.13126c2.4571,-2.47202 4.18371,-4.94406 5.91032,-8.2401c-2.4571,-0.16481 -4.0509,-0.08241 -6.30877,0.5768c2.78914,-5.19127 4.38294,-10.54733 11.88705,-10.13533c2.32429,-3.54324 2.78915,-7.2513 7.17208,-7.2513c4.38293,0 0.53127,5.02646 -0.39845,6.83929c1.46098,0.0824 2.65632,0.24719 3.98448,0.4944c-1.6602,3.04884 -2.58991,7.6633 -5.37906,9.14653c-0.99612,0.4944 -2.78914,0.65921 -5.37906,0.65921c-2.78913,4.69687 -6.17595,9.47614 -6.17595,15.1618c0,7.4985 7.3713,1.23602 9.49635,-0.57681c0,0 4.11731,-3.54324 4.11731,-3.54324m23.84052,0c0,0 -0.13281,3.46085 -0.13281,3.46085c-4.71498,4.20245 -8.83228,10.38254 -16.26999,10.38254c-5.17984,0 -7.3049,-3.79047 -7.57053,-10.30014c-0.46486,-11.45377 9.29713,-21.75389 18.19582,-21.75389c2.32429,0 4.11731,1.15361 4.11731,3.79045c0,9.55853 -9.49636,12.19537 -15.80514,15.2442c-0.66408,3.79044 1.06254,6.18008 4.0509,6.09769c5.64469,-0.0824 9.69559,-4.03766 13.41444,-6.92169c0,0 0,0 0,0m-7.17207,-12.44258c-0.06641,-1.56561 -1.5938,-0.9064 -2.52351,-0.412c-3.12119,1.81284 -5.64469,5.60327 -7.10567,9.64093c3.3204,-1.56561 6.5744,-4.12006 8.69946,-6.92169c0.59767,-0.9064 0.92972,-1.64803 0.92972,-2.30724c0,0 0,0 0,0m33.00484,12.44258c-0.19923,1.89523 0.26563,4.03766 -1.12894,4.61444c0,0 -2.58991,2.38965 -2.58991,2.38965c-3.45322,2.96643 -7.03927,6.92169 -12.48473,7.00409c-3.91808,0.0824 -8.9651,-3.04883 -8.9651,-7.41611c-0.06641,-2.30722 1.66021,-4.12006 3.51963,-4.03763c1.99225,0.0824 3.65245,1.73041 4.84779,2.88403c4.38294,-2.47205 5.44547,-8.24011 4.25012,-15.65622c0,0 -8.1682,8.89932 -8.1682,8.89932c0,0 -5.24624,4.94406 -5.24624,4.94406c0.06641,-1.23602 -0.06641,-2.55444 0.13281,-3.62564c4.58216,-4.28485 8.9651,-8.65213 12.94958,-13.76099c0.92971,-3.95526 1.12894,-6.18008 4.31652,-6.18008c1.79303,0 2.05865,0.82401 2.19147,2.96643c0.19923,3.46085 1.46099,5.76808 1.46099,9.31134c0,7.7457 -5.11343,11.37134 -8.83228,14.91458c6.30876,0.98883 9.76199,-4.12006 13.74648,-7.25128c0,0 0,0 0,0m22.18031,0c-0.13283,1.0712 -0.13283,2.22482 -0.13283,3.46085c-5.11342,4.36725 -8.89868,11.78336 -16.53561,11.78336c-6.57441,0 -3.51963,-11.45377 -1.26176,-15.90341c0,0 -4.38293,4.20245 -4.38293,4.20245c0.06641,-1.15363 -0.0664,-2.55444 0.13283,-3.54324c0,0 3.25399,-3.13126 3.25399,-3.13126c2.4571,-2.47202 4.18372,-4.94406 5.91032,-8.2401c-2.45709,-0.16481 -4.05089,-0.08241 -6.30876,0.5768c2.78914,-5.19127 4.38293,-10.54733 11.88705,-10.13533c2.32428,-3.54324 2.78914,-7.2513 7.17207,-7.2513c4.38293,0 0.53127,5.02646 -0.39844,6.83929c1.46097,0.0824 2.65631,0.24719 3.98448,0.4944c-1.6602,3.04884 -2.58992,7.6633 -5.37906,9.14653c-0.99612,0.4944 -2.78915,0.65921 -5.37906,0.65921c-2.78914,4.69687 -6.17595,9.47614 -6.17595,15.1618c0,7.4985 7.37129,1.23602 9.49635,-0.57681c0,0 4.11731,-3.54324 4.11731,-3.54324" stroke-width="0" fill="#000000" id="svg_31"/><rect opacity="0" fill="#000000" height="43.4336" width="97.48829" y="228.76951" x="50.12891" id="svg_32"/></g></g></svg>
