<svg xmlns="http://www.w3.org/2000/svg" xmlns:xlink="http://www.w3.org/1999/xlink" width="187" height="240" viewBox="0 0 187 240"><g mask="url(#canvasMaskImageDef)"><title>Layer 1</title><g stroke="ull" stroke-width="0" elemBBoxHeight="124.49257" yscale="NaN" xscale="6.89322" elemBBoxWidth="150.39296" display="null" shapeVal="0" shapeId="0" lineHeight="1" font-style="normal" font-weight="normal" text-anchor="start" fill="0" font-family="Kroftsmann" font-size="16.34044" text="Harish" type="text" id="svg_1"><path stroke="#ull" d="m44.06915,52.7143c0,0 -9.75351,0 -9.75351,0c0,0 0,45.12775 0,45.12775c0,0 -5.50602,0 -5.50602,0c0,0 0,-45.12775 0,-45.12775c0,0 -8.80963,0 -8.80963,0c0,0 0,124.49034 0,124.49034c0,0 8.80963,0 8.80963,0c0,0 0,-52.90837 0,-52.90837c0,0 5.50602,0 5.50602,0c0,0 0,52.90837 0,52.90837c0,0 9.75351,0 9.75351,0c0,0 0,-124.49034 0,-124.49034c0,0 0,0 0,0m21.86676,0c0,0 -15.10222,0 -15.10222,0c0,0 -4.87675,21.26709 -4.87675,21.26709c0,0 0,103.22325 0,103.22325c0,0 8.80962,0 8.80962,0c0,0 0,-36.8284 0,-36.8284c0,0 6.44991,0 6.44991,0c0,0 0,36.8284 0,36.8284c0,0 8.80963,0 8.80963,0c0,0 0,-103.22325 0,-103.22325c0,0 -4.09019,-21.26709 -4.09019,-21.26709m-4.71944,61.20774c0,0 -6.44991,0 -6.44991,0c0,0 0,-34.75356 0,-34.75356c0,0 6.44991,0 6.44991,0c0,0 0,34.75356 0,34.75356c0,0 0,0 0,0m29.88981,15.56133c0,0 4.87675,-15.56133 4.87675,-15.56133c0,0 0,-39.94066 0,-39.94066c0,0 -4.87675,-21.26709 -4.87675,-21.26709c0,0 -19.19241,0 -19.19241,0c0,0 0,124.49034 0,124.49034c0,0 8.80963,0 8.80963,0c0,0 0,-39.94063 0,-39.94063c0,0 1.57315,0 1.57315,0c0,0 6.44991,39.94063 6.44991,39.94063c0,0 10.38277,0 10.38277,0c0,0 -8.02305,-47.72127 -8.02305,-47.72127m-4.87676,-20.74842c0,0 -5.50602,0 -5.50602,0c0,0 0,-29.56647 0,-29.56647c0,0 5.50602,0 5.50602,0c0,0 0,29.56647 0,29.56647c0,0 0,0 0,0m14.7876,-56.02065c0,0 0,29.04773 0,29.04773c0,0 3.14629,0 3.14629,0c0,0 0,66.39484 0,66.39484c0,0 -3.14629,0 -3.14629,0c0,0 0,29.04776 0,29.04776c0,0 15.10222,0 15.10222,0c0,0 0,-29.04776 0,-29.04776c0,0 -3.14631,0 -3.14631,0c0,0 0,-66.39484 0,-66.39484c0,0 3.14631,0 3.14631,0c0,0 0,-29.04773 0,-29.04773c0,0 -15.10222,0 -15.10222,0c0,0 0,0 0,0m37.91286,52.9084c0,0 -10.54008,-10.37419 -10.54008,-10.37419c0,0 1.41583,-10.8929 1.41583,-10.8929c0,0 14.63028,0 14.63028,0c0,0 -2.67435,-31.64131 -2.67435,-31.64131c0,0 -18.24853,0 -18.24853,0c0,0 -5.50601,42.53421 -5.50601,42.53421c0,0 5.50601,29.04776 5.50601,29.04776c0,0 10.54011,10.37419 10.54011,10.37419c0,0 -1.41585,10.89287 -1.41585,10.89287c0,0 -14.63027,0 -14.63027,0c0,0 2.67435,31.64131 2.67435,31.64131c0,0 18.24851,0 18.24851,0c0,0 5.50603,-42.53418 5.50603,-42.53418c0,0 -5.50603,-29.04776 -5.50603,-29.04776m31.46297,-52.9084c0,0 -9.75351,0 -9.75351,0c0,0 0,45.12775 0,45.12775c0,0 -5.50603,0 -5.50603,0c0,0 0,-45.12775 0,-45.12775c0,0 -8.80962,0 -8.80962,0c0,0 0,124.49034 0,124.49034c0,0 8.80962,0 8.80962,0c0,0 0,-52.90837 0,-52.90837c0,0 5.50603,0 5.50603,0c0,0 0,52.90837 0,52.90837c0,0 9.75351,0 9.75351,0c0,0 0,-124.49034 0,-124.49034c0,0 0,0 0,0" stroke-width="0" fill="#000000" id="svg_5"/><rect stroke="null" opacity="0" fill="#000000" height="124.4904" width="150.39283" y="52.71207" x="19.99999" id="svg_6"/></g></g><defs><mask y="0" x="0" maskUnits="objectBoundingBox" id="canvasMaskImageDef"><image xlink:href="http://192.168.0.222/work/jan_langius/print_commerce/source/designnbuy/uploads/productimage/5826bc835e1ff.png" height="344.82759" width="400" y="-81" x="-106" preserveAspectRatio="none" id="canvasMaskImage"/></mask></defs></svg>