<svg xmlns="http://www.w3.org/2000/svg" width="182" height="238" x="0" y="0" id="svgcontent" overflow="visible" viewBox="0 0 182 238"><defs/><g style="pointer-events:all" mask=""><title style="pointer-events:inherit">Layer 1</title><g id="nameText" type="nameText" text="testimn" font-size="30" font-family="Brush-Script" font-id="1" fill="#FF0000" posX="47.2265625" posY="110.59375" text-anchor="middle" font-weight="normal" font-style="normal" lineHeight="1" shapeId="0" shapeVal="0" style="pointer-events: inherit; display: inline;" fill-opacity="1" stroke-width="1" stroke="null" stroke-dasharray="none"><path id="svg_16" fill="#FF0000" d="M10.581319808959961,10.761639595031738 C10.521320343017578,11.151639461517334 10.521320343017578,11.57163953781128 10.521320343017578,12.021639347076416 C8.211319923400879,13.611639499664307 6.501319885253906,16.3116397857666 3.0513200759887695,16.3116397857666 C0.08131980895996094,16.3116397857666 1.461319923400879,12.141639232635498 2.4813199043273926,10.521639347076416 C2.4813199043273926,10.521639347076416 0.5013198852539062,12.051639556884766 0.5013198852539062,12.051639556884766 C0.5313200950622559,11.63163948059082 0.47132015228271484,11.121639251708984 0.5613198280334473,10.761639595031738 C0.5613198280334473,10.761639595031738 2.031320095062256,9.621639490127563 2.031320095062256,9.621639490127563 C3.14132022857666,8.721639394760132 3.9213199615478516,7.82163941860199 4.701319694519043,6.621639374643564 C3.591320037841797,6.561639375053346 2.8713197708129883,6.5916393753141165 1.8513197898864746,6.831639379262924 C3.1113200187683105,4.941639423370361 3.831319808959961,2.9916393756866455 7.221320152282715,3.141639471054077 C8.271320343017578,1.8516392707824707 8.48132038116455,0.5016393661499023 10.461319923400879,0.5016393661499023 C12.441320419311523,0.5016393661499023 10.701319694519043,2.331639289855957 10.281319618225098,2.9916393756866455 C10.941320419311523,3.021639347076416 11.48132038116455,3.081639289855957 12.081319808959961,3.1716394424438477 C11.331319808959961,4.281639337539673 10.911319732666016,5.961639404296875 9.651320457458496,6.501639373600483 C9.201319694519043,6.68163937330246 8.39132022857666,6.7416393756866455 7.221320152282715,6.7416393756866455 C5.961319923400879,8.451639413833618 4.4313201904296875,10.191639423370361 4.4313201904296875,12.261639595031738 C4.4313201904296875,14.991639137268066 7.761320114135742,12.711639404296875 8.721320152282715,12.051639556884766 C8.721320152282715,12.051639556884766 10.581319808959961,10.761639595031738 10.581319808959961,10.761639595031738 M21.351320266723633,10.761639595031738 C21.351320266723633,10.761639595031738 21.29132080078125,12.021639347076416 21.29132080078125,12.021639347076416 C19.161319732666016,13.551639556884766 17.301319122314453,15.801639556884766 13.941320419311523,15.801639556884766 C11.601320266723633,15.801639556884766 10.64132022857666,14.421639442443848 10.521320343017578,12.051639556884766 C10.311320304870605,7.881639361381531 14.721319198608398,4.13163948059082 18.74131965637207,4.13163948059082 C19.79132080078125,4.13163948059082 20.601320266723633,4.5516393184661865 20.601320266723633,5.511639356613159 C20.601320266723633,8.991639375686646 16.31131935119629,9.951639413833618 13.461320877075195,11.061639308929443 C13.161319732666016,12.441639423370361 13.941320419311523,13.311639308929443 15.29132080078125,13.281639575958252 C17.841320037841797,13.251639366149902 19.67131996154785,11.811639308929443 21.351320266723633,10.761639595031738 C21.351320266723633,10.761639595031738 21.351320266723633,10.761639595031738 21.351320266723633,10.761639595031738 M18.11132049560547,6.231639385223389 C18.08131980895996,5.661639392375946 17.391319274902344,5.901639401912689 16.9713191986084,6.081639379262924 C15.561319351196289,6.7416393756866455 14.421319961547852,8.121639370918274 13.761320114135742,9.591639280319214 C15.261320114135742,9.021639347076416 16.731319427490234,8.091639399528503 17.691320419311523,7.071639358997345 C17.961320877075195,6.7416393756866455 18.11132049560547,6.47163937240839 18.11132049560547,6.231639385223389 C18.11132049560547,6.231639385223389 18.11132049560547,6.231639385223389 18.11132049560547,6.231639385223389 M33.02132034301758,10.761639595031738 C32.93132019042969,11.451639175415039 33.141319274902344,12.231639385223389 32.51131820678711,12.441639423370361 C32.51131820678711,12.441639423370361 31.341320037841797,13.311639308929443 31.341320037841797,13.311639308929443 C29.78131866455078,14.391639232635498 28.161319732666016,15.831639289855957 25.70132064819336,15.861639022827148 C23.931320190429688,15.891639709472656 21.65131950378418,14.751639366149902 21.65131950378418,13.161639213562012 C21.621320724487305,12.32163953781128 22.40131950378418,11.661639213562012 23.24131965637207,11.691639423370361 C24.141319274902344,11.721639156341553 24.891319274902344,12.32163953781128 25.431320190429688,12.741639137268066 C27.411319732666016,11.841639518737793 27.891319274902344,9.741639375686646 27.351320266723633,7.0416393876075745 C27.351320266723633,7.0416393876075745 23.661319732666016,10.281639337539673 23.661319732666016,10.281639337539673 C23.661319732666016,10.281639337539673 21.29132080078125,12.081639289855957 21.29132080078125,12.081639289855957 C21.321319580078125,11.63163948059082 21.261320114135742,11.151639461517334 21.351320266723633,10.761639595031738 C23.42131996154785,9.201639413833618 25.40131950378418,7.611639380455017 27.20132064819336,5.751639366149902 C27.621320724487305,4.311639308929443 27.711320877075195,3.5016393661499023 29.151321411132812,3.5016393661499023 C29.961318969726562,3.5016393661499023 30.081321716308594,3.8016393184661865 30.141319274902344,4.581639409065247 C30.231319427490234,5.841639399528503 30.801319122314453,6.68163937330246 30.801319122314453,7.971639394760132 C30.801319122314453,10.79163932800293 28.491321563720703,12.111639499664307 26.81131935119629,13.401639461517334 C29.661319732666016,13.761639595031738 31.22132110595703,11.901639461517334 33.02132034301758,10.761639595031738 C33.02132034301758,10.761639595031738 33.02132034301758,10.761639595031738 33.02132034301758,10.761639595031738 M43.04132080078125,10.761639595031738 C42.981319427490234,11.151639461517334 42.981319427490234,11.57163953781128 42.981319427490234,12.021639347076416 C40.671321868896484,13.611639499664307 38.96131896972656,16.3116397857666 35.51131820678711,16.3116397857666 C32.54132080078125,16.3116397857666 33.921321868896484,12.141639232635498 34.94131851196289,10.521639347076416 C34.94131851196289,10.521639347076416 32.96131896972656,12.051639556884766 32.96131896972656,12.051639556884766 C32.9913215637207,11.63163948059082 32.93132019042969,11.121639251708984 33.02132034301758,10.761639595031738 C33.02132034301758,10.761639595031738 34.4913215637207,9.621639490127563 34.4913215637207,9.621639490127563 C35.601318359375,8.721639394760132 36.38132095336914,7.82163941860199 37.161319732666016,6.621639374643564 C36.05131912231445,6.561639375053346 35.331321716308594,6.5916393753141165 34.31132125854492,6.831639379262924 C35.571319580078125,4.941639423370361 36.29132080078125,2.9916393756866455 39.68132019042969,3.141639471054077 C40.731319427490234,1.8516392707824707 40.94131851196289,0.5016393661499023 42.921321868896484,0.5016393661499023 C44.90132141113281,0.5016393661499023 43.161319732666016,2.331639289855957 42.7413215637207,2.9916393756866455 C43.40132141113281,3.021639347076416 43.94131851196289,3.081639289855957 44.54132080078125,3.1716394424438477 C43.79132080078125,4.281639337539673 43.37131881713867,5.961639404296875 42.11132049560547,6.501639373600483 C41.661319732666016,6.68163937330246 40.851318359375,6.7416393756866455 39.68132019042969,6.7416393756866455 C38.421321868896484,8.451639413833618 36.891319274902344,10.191639423370361 36.891319274902344,12.261639595031738 C36.891319274902344,14.991639137268066 40.22132110595703,12.711639404296875 41.18132019042969,12.051639556884766 C41.18132019042969,12.051639556884766 43.04132080078125,10.761639595031738 43.04132080078125,10.761639595031738 M51.71131896972656,10.761639595031738 C51.71131896972656,10.761639595031738 51.68132019042969,12.051639556884766 51.68132019042969,12.051639556884766 C51.68132019042969,12.051639556884766 48.95132064819336,14.181639194488525 48.95132064819336,14.181639194488525 C48.02132034301758,14.811639785766602 47.001319885253906,15.591639518737793 45.65132141113281,15.651638984680176 C43.22132110595703,15.741639137268066 42.5913200378418,12.471639156341553 43.31132125854492,10.191639423370361 C44.001319885253906,8.001639366149902 46.101318359375,5.061639428138733 48.77132034301758,5.061639428138733 C49.94131851196289,5.061639428138733 50.18132019042969,6.081639379262924 49.46131896972656,6.981639385223389 C48.38132095336914,8.301639318466187 46.88132095336914,9.681639432907104 45.68132019042969,10.85163927078247 C45.081321716308594,11.931639194488525 45.891319274902344,13.13163948059082 47.21131896972656,13.011639595031738 C49.13132095336914,12.801639556884766 49.94131851196289,11.961639404296875 51.71131896972656,10.761639595031738 C51.71131896972656,10.761639595031738 51.71131896972656,10.761639595031738 51.71131896972656,10.761639595031738 M51.62131881713867,0.8616394996643066 C52.161319732666016,0.8616394996643066 52.61132049560547,1.3116393089294434 52.61132049560547,1.8516392707824707 C52.52132034301758,3.201639413833618 51.5913200378418,4.401639461517334 50.30131912231445,4.4916393756866455 C49.55131912231445,4.5516393184661865 48.981319427490234,3.9216394424438477 49.04132080078125,3.141639471054077 C49.13132095336914,1.9116392135620117 50.30131912231445,0.9516391754150391 51.62131881713867,0.8616394996643066 C51.62131881713867,0.8616394996643066 51.62131881713867,0.8616394996643066 51.62131881713867,0.8616394996643066 M68.99131774902344,12.651639461517334 C70.61132049560547,12.501639366149902 71.4813232421875,11.721639156341553 73.04132080078125,10.761639595031738 C72.9813232421875,11.151639461517334 72.9813232421875,11.57163953781128 72.9813232421875,12.021639347076416 C70.97132110595703,13.371639251708984 68.84131622314453,15.29163932800293 66.02131652832031,15.801639556884766 C64.40132141113281,15.711639404296875 64.101318359375,13.611639499664307 65.03131866455078,12.201639175415039 C65.39131927490234,11.661639213562012 65.93132019042969,10.641639232635498 66.80132293701172,9.26163935661316 C64.34131622314453,11.001639366149902 62.571319580078125,13.491639137268066 60.05132293701172,15.171639442443848 C58.70132064819336,16.07163906097412 57.47132110595703,14.661639213562012 58.13132095336914,13.161639213562012 C58.821319580078125,11.63163948059082 59.811317443847656,10.281639337539673 60.71131896972656,8.961639404296875 C60.831321716308594,8.781639337539673 60.80132293701172,8.51163935661316 60.59131622314453,8.481639385223389 C58.31132125854492,9.741639375686646 56.30131912231445,12.951639175415039 54.62131881713867,14.661639213562012 C54.171321868896484,15.111639022827148 53.9913215637207,15.321639060974121 53.421321868896484,15.321639060974121 C51.47132110595703,15.321639060974121 51.44131851196289,11.361639499664307 52.22132110595703,9.591639280319214 C53.001319885253906,7.82163941860199 54.53131866455078,5.391639351844788 56.81132125854492,5.331639409065247 C58.161319732666016,5.3016393184661865 58.28131866455078,6.171639382839203 57.47132110595703,7.0416393876075745 C56.331321716308594,8.241639375686646 54.80131912231445,9.26163935661316 54.38132095336914,11.121639251708984 C54.38132095336914,11.241639137268066 54.47132110595703,11.481639385223389 54.56132125854492,11.481639385223389 C56.8413200378418,9.771639347076416 59.421321868896484,6.501639373600483 61.97132110595703,4.881639361381531 C63.201316833496094,4.101639270782471 65.0013198852539,3.831639289855957 65.0013198852539,5.60163938999176 C65.0013198852539,7.671639323234558 63.11132049560547,9.021639347076416 62.21131896972656,10.521639347076416 C62.21131896972656,10.521639347076416 69.17131805419922,5.121639370918274 69.17131805419922,5.121639370918274 C69.71131896972656,4.731639385223389 70.07131958007812,4.5516393184661865 70.22132110595703,4.5516393184661865 C70.94132232666016,5.091639399528503 71.93132019042969,6.501639373600483 70.88131713867188,7.641639351844788 C70.88131713867188,7.641639351844788 69.68132019042969,8.961639404296875 69.68132019042969,8.961639404296875 C68.99131774902344,9.741639375686646 67.97132110595703,10.641639232635498 67.94132232666016,11.871639251708984 C67.94132232666016,12.38163948059082 68.42131805419922,12.711639404296875 68.99131774902344,12.651639461517334 C68.99131774902344,12.651639461517334 68.99131774902344,12.651639461517334 68.99131774902344,12.651639461517334 M79.2513198852539,6.111639380455017 C78.74131774902344,8.061639428138733 76.04132080078125,9.051639318466187 75.5013198852539,10.971639156341553 C75.74131774902344,11.751639366149902 76.40132141113281,10.941639423370361 76.7013168334961,10.611639499664307 C78.41132354736328,8.691639423370361 81.2013168334961,6.531639374792576 83.42131805419922,5.061639428138733 C84.2013168334961,4.5516393184661865 84.74131774902344,4.311639308929443 85.07131958007812,4.311639308929443 C85.82131958007812,4.581639409065247 85.76132202148438,5.871639370918274 86.06131744384766,6.621639374643564 C85.22132110595703,8.481639385223389 82.43132019042969,9.41163945198059 82.43132019042969,11.871639251708984 C82.43132019042969,12.411639213562012 82.7313232421875,12.711639404296875 83.30132293701172,12.651639461517334 C84.8313217163086,12.501639366149902 85.61132049560547,11.721639156341553 87.05132293701172,10.761639595031738 C87.05132293701172,11.181639194488525 86.96131896972656,11.63163948059082 87.02131652832031,12.051639556884766 C85.04132080078125,13.401639461517334 83.51132202148438,15.741639137268066 80.57131958007812,15.741639137268066 C78.59131622314453,15.741639137268066 78.86132049560547,12.831639289855957 79.7313232421875,11.481639385223389 C79.7313232421875,11.481639385223389 81.56131744384766,8.691639423370361 81.56131744384766,8.691639423370361 C79.31131744384766,10.311639308929443 77.4813232421875,12.981639385223389 75.5013198852539,14.751639366149902 C73.82131958007812,16.251639366149902 72.71131896972656,14.061639308929443 72.9813232421875,11.63163948059082 C73.28131866455078,8.871639490127563 74.90132141113281,6.7416393756866455 76.94132232666016,5.631639361381531 C77.78131866455078,5.421639323234558 79.19132232666016,5.361639380455017 79.2513198852539,6.111639380455017 C79.2513198852539,6.111639380455017 79.2513198852539,6.111639380455017 79.2513198852539,6.111639380455017 " transform="matrix(1, 0, 0, 1, 47.2266, 110.594)" style="pointer-events:inherit"/></g><g id="numberText" type="numberText" text="2" font-size="120" font-family="Brush-Script" font-id="1" fill="#FF0000" posX="23.80078125" posY="79.28125" text-anchor="middle" font-weight="normal" font-style="normal" lineHeight="1" shapeId="0" shapeVal="0" style="pointer-events: inherit; display: inline;" fill-opacity="1" stroke-width="1" stroke="null" stroke-dasharray="none"><path id="svg_17" fill="#FF0000" d="M88.82020568847656,0.8391342163085938 C99.26020050048828,0.8391342163085938 100.5802001953125,6.359134674072266 100.94020080566406,17.999135971069336 C101.30020141601562,31.439135551452637 93.62020111083984,34.67913579940796 85.22019958496094,39.599135637283325 C85.22019958496094,39.599135637283325 55.2202033996582,56.879136085510254 55.2202033996582,56.879136085510254 C55.2202033996582,56.879136085510254 43.7002010345459,64.91913604736328 43.7002010345459,64.91913604736328 C60.140201568603516,63.479135513305664 75.50020217895508,60.59913635253906 89.90019989013672,56.999135971069336 C87.50019836425781,64.19913482666016 85.70020294189453,71.03913497924805 79.5802001953125,73.79913711547852 C71.90020370483398,77.27913665771484 56.900203704833984,78.2391357421875 45.02020263671875,78.59913635253906 C36.140201568603516,78.8391342163086 30.38020133972168,67.91913604736328 35.18020248413086,60.359134674072266 C46.34020233154297,42.95913565158844 70.70020294189453,36.479135513305664 87.62020111083984,24.599136352539062 C90.38020324707031,22.679136276245117 92.78020477294922,20.039134979248047 93.86019897460938,16.439136505126953 C93.50019836425781,11.999135971069336 86.90019989013672,12.959135055541992 82.82020568847656,13.799135208129883 C72.9802017211914,15.719135284423828 64.70020294189453,20.039134979248047 56.66020202636719,23.879135131835938 C59.900203704833984,24.359134674072266 63.50020217895508,24.599136352539062 66.26020050048828,25.319135665893555 C69.38020324707031,26.159135818481445 68.30020141601562,29.639135360717773 65.18020248413086,29.51913547515869 C65.18020248413086,29.51913547515869 48.74020004272461,32.63913536071777 48.74020004272461,32.63913536071777 C47.060203552246094,32.63913536071777 45.50020217895508,30.479135513305664 45.620201110839844,28.6791353225708 C47.300201416015625,6.959136962890625 66.38020324707031,0.8391342163085938 88.82020568847656,0.8391342163085938 C88.82020568847656,0.8391342163085938 88.82020568847656,0.8391342163085938 88.82020568847656,0.8391342163085938 " transform="matrix(1, 0, 0, 1, 23.8008, 79.2813)" style="pointer-events:inherit"/></g></g></svg>