<svg xmlns="http://www.w3.org/2000/svg" width="187" height="240" x="0" y="0" id="svgcontent" overflow="hidden" viewBox="0 0 187 240"><defs/><g style="pointer-events:all" mask=""><title style="pointer-events:inherit">Layer 1</title><g id="svg_4" display="null" clip-id="1"><path fill="#2BA9E1" d="M156.69540162562043,64.96383289825462 L170.8700435996434,55.291266102292866 L150.65369899712096,49.373623671752284 C133.773388687041,19.707971532196098 99.32109731398668,35.178539326559985 87.80682016786159,63.39211360312038 C73.91384103939345,97.39931474626064 34.124684820199036,109.80379466921295 34.124684820199036,109.80379466921295 C62.44334984548914,143.4855246975785 87.98486518662685,149.56811206841667 105.01985461742152,148.22552140297194 C122.0635923118607,146.87270955194253 168.0651762026173,133.47585963031452 158.48892957474163,73.67614385723573 C157.98835928508197,70.56919356048456 157.38419348563184,67.67385304913478 156.69540162562043,64.96383289825462 z" id="svg_5" stroke-width="0"/><path fill="#2B3277" d="M150.65369899712096,49.373623671752284 C153.0659880630992,53.61302777048695 155.11928588166484,58.784947676329466 156.69540162562043,64.96383289825462 L170.8700435996434,55.291266102292866 L150.65369899712096,49.373623671752284 zM128.12424207259028,86.92411707791325 C128.12424207259028,86.92411707791325 80.84134999589878,77.17419956309459 75.41843080125545,103.48480332698091 C69.99693989455409,129.7895823541039 113.65336425260466,145.05726630971185 128.12424207259028,86.92411707791325 zM137.22183370391576,48.64247414746205 C137.53853423804685,51.46340978383523 136.08500577011,53.948675436848134 133.9689525500944,54.19530059382669 C131.84560167137533,54.43317748716072 129.8638075179042,52.33464311143325 129.55003051065432,49.51808160688233 C129.22607695181796,46.69716828750825 130.6795831027557,44.211902634495345 132.80293398147478,43.96527747751679 C134.9306589920161,43.73614884782728 136.89933075002045,45.82156082808797 137.22183370391576,48.64247414746205 z" id="svg_6" stroke-width="0"/></g></g></svg>