<svg xmlns="http://www.w3.org/2000/svg" width="203" height="348" x="0" y="0" id="svgcontent" viewBox="0 0 203 348" overflow="hidden"><defs><clipPath class="clippath" id="svg_4"><path d="M63.75,52.96156C66.39865,77.23537 66.39865,101.70131 63.75,125.97439C63.75,130.99675 68.25967,135.11742 73.91422,135.11742C100.90005,132.73537 128.09984,132.73537 155.08612,135.11742C160.66887,135.11742 165.25,131.06142 165.25,125.97439C162.60088,101.70131 162.60088,77.23537 165.25,52.96156C165.25,47.93923 160.74072,43.81892 155.08612,43.81892L155.08612,43.8832C128.09984,46.26524 100.90005,46.26524 73.91422,43.8832C68.33113,43.8832 63.75,47.93962 63.75,53.02583" id="svg_1" opacity="1" stroke="#000000" shapeType="roundedSquare" fill="#000" fill-opacity="0" stroke-width="4" stroke-dasharray="none"/></clipPath><clipPath class="clippath" id="svg_6"><path d="M41.75,194.62352C44.94665,220.34007 44.94665,246.26007 41.75,271.97589C41.75,277.29669 47.19273,281.66229 54.0172,281.66229C86.58627,279.13864 119.4136,279.13864 151.98334,281.66229C158.72108,281.66229 164.25,277.36517 164.25,271.97589C161.05284,246.26007 161.05284,220.34006 164.25,194.62352C164.25,189.3027 158.80782,184.9375 151.98334,184.9375L151.98334,185.00558C119.4136,187.52922 86.58627,187.52922 54.0172,185.00558C47.27897,185.00558 41.75,189.3031 41.75,194.6916" id="svg_8" opacity="1" stroke="#000000" shapeType="roundedSquare" fill="#000" fill-opacity="0" stroke-width="4" stroke-dasharray="none"/></clipPath><clipPath class="clippath" id="svg_11"><path d="M152.25,126.70771C152.25,154.29411 129.52849,176.65852 101.49998,176.65852C73.4715,176.65866 50.75,154.2948 50.75,126.70771C50.75,99.12062 73.4715,76.75697 101.50009,76.75697C129.52859,76.75697 152.25,99.12062 152.25,126.70771z" id="svg_2" opacity="1" stroke="#000000" shapeType="circle" fill="#000" fill-opacity="0" stroke-width="0" stroke-dasharray="none"/></clipPath><clipPath class="clippath" id="svg_7"><path d="M58.11941,87.46902C54.89785,91.97997 53.03629,97.35024 52.75,102.86302L52.82146,102.86302C52.53517,108.87777 53.82413,114.89209 56.4731,120.26234L56.4731,120.33424C58.54949,124.5589 61.19846,128.49725 64.20605,132.07701C66.92691,135.37088 69.93407,138.4491 73.08459,141.24185C75.51917,143.46117 78.09666,145.46651 80.74564,147.47099C82.10607,148.40135 83.39503,149.40318 84.75462,150.33437L84.68316,150.33437C87.18919,152.33929 89.40851,154.77344 91.27049,157.42284C94.63584,162.07756 96.78369,167.51845 97.42817,173.24648C104.15886,170.95526 110.60284,167.7337 116.4738,163.72345C130.15001,154.77344 141.03262,142.24367 147.90627,127.49374L147.97815,127.49374C151.62979,120.11942 153.70618,112.09975 154.20688,103.86569L154.20688,103.93674C154.49361,97.99389 153.34799,92.05145 150.84195,86.60973C148.83662,82.31318 145.75841,78.66238 141.89194,75.79773C138.88521,73.50652 135.30418,72.14609 131.50961,71.78832C124.34883,71.43014 117.33311,74.151 112.32104,79.44938C109.45724,82.45654 107.02267,85.9644 105.08838,89.68793L105.15984,89.68793C104.30054,91.40613 103.51269,93.12475 102.86863,94.91441L102.79716,94.91441C101.5082,92.90992 100.07629,90.97647 98.5725,89.11534C95.42242,85.24844 91.69888,82.02646 87.40275,79.52084C82.6774,76.65704 76.94937,75.94067 71.65057,77.65929L71.72205,77.65929C66.28074,79.44938 61.55496,82.88619 58.18961,87.54008" id="svg_9" opacity="1" stroke="#000000" shapeType="heartCurve" fill="#000" fill-opacity="0" stroke-width="0" stroke-dasharray="none"/></clipPath><filter id="svg_10" color-interpolation-filters="sRGB"><feColorMatrix type="matrix" values=".343 .669 .119 0 0             .249 .626 .130 0 0            .172 .334 .111 0 0            .000 .000 .000 1 0 "/></filter><clipPath class="clippath" id="svg_12"><path d="M58.11941,87.46902C54.89785,91.97997 53.03629,97.35024 52.75,102.86302L52.82146,102.86302C52.53517,108.87777 53.82413,114.89209 56.4731,120.26234L56.4731,120.33424C58.54949,124.5589 61.19846,128.49725 64.20605,132.07701C66.92691,135.37088 69.93407,138.4491 73.08459,141.24185C75.51917,143.46117 78.09666,145.46651 80.74564,147.47099C82.10607,148.40135 83.39503,149.40318 84.75462,150.33437L84.68316,150.33437C87.18919,152.33929 89.40851,154.77344 91.27049,157.42284C94.63584,162.07756 96.78369,167.51845 97.42817,173.24648C104.15886,170.95526 110.60284,167.7337 116.4738,163.72345C130.15001,154.77344 141.03262,142.24367 147.90627,127.49374L147.97815,127.49374C151.62979,120.11942 153.70618,112.09975 154.20688,103.86569L154.20688,103.93674C154.49361,97.99389 153.34799,92.05145 150.84195,86.60973C148.83662,82.31318 145.75841,78.66238 141.89194,75.79773C138.88521,73.50652 135.30418,72.14609 131.50961,71.78832C124.34883,71.43014 117.33311,74.151 112.32104,79.44938C109.45724,82.45654 107.02267,85.9644 105.08838,89.68793L105.15984,89.68793C104.30054,91.40613 103.51269,93.12475 102.86863,94.91441L102.79716,94.91441C101.5082,92.90992 100.07629,90.97647 98.5725,89.11534C95.42242,85.24844 91.69888,82.02646 87.40275,79.52084C82.6774,76.65704 76.94937,75.94067 71.65057,77.65929L71.72205,77.65929C66.28074,79.44938 61.55496,82.88619 58.18961,87.54008" id="svg_13" opacity="1" stroke="#000000" shapeType="heartCurve" fill="#000" fill-opacity="0" stroke-width="0" stroke-dasharray="none"/></clipPath><filter id="svg_14" color-interpolation-filters="sRGB"><feColorMatrix type="matrix" values="1.0 0   0   0   0            0   0.2 0   0   0             0   0   0.2 0   0             0   0   0   1.0 0 "/></filter><clipPath class="clippath" id="svg_15"><path d="M37.65353,77.95819C33.51152,83.75798 31.11809,90.6626 30.75,97.75046L30.84188,97.75046C30.47379,105.4837 32.13102,113.21641 35.53685,120.12102L35.53685,120.21346C38.20649,125.64516 41.61231,130.70877 45.4792,135.31131C48.97746,139.5463 52.8438,143.504 56.89447,147.09467C60.02464,149.94809 63.33857,152.52637 66.74439,155.10358C68.49352,156.29974 70.15076,157.5878 71.8988,158.78505L71.80692,158.78505C75.02896,161.36281 77.88237,164.49243 80.27634,167.89879C84.60323,173.88345 87.36475,180.87888 88.19336,188.24348C96.84711,185.29764 105.13222,181.15562 112.6806,175.99959C130.2643,164.49243 144.25624,148.38272 153.09377,129.41853L153.1862,129.41853C157.88116,119.93726 160.5508,109.62626 161.19456,99.03961L161.19456,99.13096C161.5632,91.49015 160.09027,83.84988 156.86823,76.85337C154.28993,71.32924 150.33224,66.63535 145.36107,62.95222C141.49527,60.00639 136.8911,58.25726 132.01236,57.79728C122.80565,57.33676 113.78543,60.83501 107.34134,67.64721C103.6593,71.51355 100.52914,76.02366 98.0422,80.81107L98.13408,80.81107C97.02926,83.02017 96.01631,85.22982 95.18824,87.53082L95.09636,87.53082C93.43911,84.95361 91.5981,82.46776 89.66465,80.07487C85.61453,75.10315 80.82713,70.96059 75.30354,67.73909C69.22808,64.05706 61.86347,63.13601 55.05074,65.34566L55.14263,65.34566C48.14666,67.64721 42.07066,72.06596 37.74379,78.04955" id="" opacity="1" shapeType="heartCurve" fill="#000" fill-opacity="0" stroke-width="0" stroke-dasharray="none" stroke="#000000"/></clipPath><filter id="svg_17" color-interpolation-filters="sRGB"><feColorMatrix type="saturate" values="0"/></filter></defs><g mask="" style="pointer-events:all"><title style="pointer-events:inherit">Layer 1</title><g type="photobox" pathStr="M10.972713607910084,83.59268995227295 C3.428792716648282,94.1559633198607 -0.9304067133381135,106.73149069382666 -1.6008201473162007,119.64074646580096 L-1.43347443870117,119.64074646580096 C-2.103887872679259,133.72546012078206 0.9144677942768986,147.80917696639327 7.117561817582526,160.38468744528524 L7.117561817582526,160.55304685834412 C11.979828972931976,170.44590679195386 18.182922996237593,179.6683532915855 25.22576978087602,188.05104702988433 C31.59720632216652,195.76430724850078 38.63905629743512,202.97253991316273 46.01662828945169,209.5123189724381 C51.717651396764126,214.7092944400916 57.75338281638065,219.40517890604787 63.9564768396863,224.0990866483383 C67.14219511033156,226.2777064490357 70.16055077728771,228.623671958348 73.34429232426734,230.8042515876372 L73.1769466156523,230.8042515876372 C79.04531543157977,235.49915613929747 84.24229089923332,241.1991993323141 88.60248713858952,247.4032732699155 C96.48310996089518,258.303248568547 101.51272282485964,271.0441449274625 103.02189221080069,284.4574483390956 C118.78313785541192,279.0921303534571 133.87297325667515,271.5481925671213 147.62098498061246,262.15740354950486 C179.64652710012382,241.1991993323141 205.13031343669428,211.85828448175047 221.22628428868373,177.31843433494174 L221.39462680666855,177.31843433494174 C229.94566306295224,160.04999602805515 234.80791332322767,141.27037782141372 235.9804145682731,121.98870559385314 L235.9804145682731,122.1550713881724 C236.65182481162094,108.23871714625022 233.9691573712647,94.32334281862386 228.10077166026326,81.58046973604287 C223.40488719430704,71.51925038937422 216.1966545296451,62.97019085675616 207.1425674430724,56.26205238442186 C200.10169738209964,50.89673439878341 191.7160301107654,47.71101612813816 182.8302855421776,46.873240090470986 C166.06192453254445,46.03448413850802 149.63323898699062,52.40592067979852 137.8964844600616,64.81310553577961 C131.19032271139298,71.85495551104819 125.48929960408054,80.06930673136216 120.95978093244372,88.78868550563071 L121.12712664105874,88.78868550563071 C119.11488952975463,92.81217981394315 117.26999812706555,96.83667093162542 115.76180865542031,101.02751094855287 L115.59446294680524,101.02751094855287 C112.57609038477501,96.33360320626238 109.22300951044065,91.8060612582911 105.70158611812147,87.44785863767456 C98.32502783054882,78.39275784665793 89.60563216120615,70.84784014602629 79.54540962390733,64.98045124439463 C68.48006534032635,58.27430639080003 55.066761928693154,56.596777591800034 42.65859715841631,60.621251814408254 L42.82595976210539,60.621251814408254 C30.08406659382016,64.81310553577961 19.017725500869318,72.86107406670024 11.137102678563714,83.75907264166622 " lockTransform="true" lockEdit="false" id="svg_3" display="null" stroke="null"><g clip-path="url(#svg_15)" stroke="null" id="svg_19"><image xmlns:xlink="http://www.w3.org/1999/xlink" x="31.62893219497738" y="32.06141235882818" width="256.2244858182206" height="256.2244858182206" preserveAspectRatio="none" id="svg_5" xlink:href="http://192.168.0.139/work/print_commerce/pc-newtool-magento-21/designnbuy/assets/images/uploadedImage/o_1auffiuu0h2e1ies193t1hkm1e4da.jpg" origWidth="21" origHeight="21" image_id="16" templateSrc="http://192.168.0.139/work/print_commerce/pc-newtool-magento-21/designnbuy/assets/images/uploadedImage/admin_o_1aftj74n614d41qdaimogdk53pa.jpg#**#16" isAdminUploaded="false" filter="url(#svg_17)" colors=""/></g><path d="M37.65353,77.95819C33.51152,83.75798 31.11809,90.6626 30.75,97.75046L30.84188,97.75046C30.47379,105.4837 32.13102,113.21641 35.53685,120.12102L35.53685,120.21346C38.20649,125.64516 41.61231,130.70877 45.4792,135.31131C48.97746,139.5463 52.8438,143.504 56.89447,147.09467C60.02464,149.94809 63.33857,152.52637 66.74439,155.10358C68.49352,156.29974 70.15076,157.5878 71.8988,158.78505L71.80692,158.78505C75.02896,161.36281 77.88237,164.49243 80.27634,167.89879C84.60323,173.88345 87.36475,180.87888 88.19336,188.24348C96.84711,185.29764 105.13222,181.15562 112.6806,175.99959C130.2643,164.49243 144.25624,148.38272 153.09377,129.41853L153.1862,129.41853C157.88116,119.93726 160.5508,109.62626 161.19456,99.03961L161.19456,99.13096C161.5632,91.49015 160.09027,83.84988 156.86823,76.85337C154.28993,71.32924 150.33224,66.63535 145.36107,62.95222C141.49527,60.00639 136.8911,58.25726 132.01236,57.79728C122.80565,57.33676 113.78543,60.83501 107.34134,67.64721C103.6593,71.51355 100.52914,76.02366 98.0422,80.81107L98.13408,80.81107C97.02926,83.02017 96.01631,85.22982 95.18824,87.53082L95.09636,87.53082C93.43911,84.95361 91.5981,82.46776 89.66465,80.07487C85.61453,75.10315 80.82713,70.96059 75.30354,67.73909C69.22808,64.05706 61.86347,63.13601 55.05074,65.34566L55.14263,65.34566C48.14666,67.64721 42.07066,72.06596 37.74379,78.04955" id="svg_16" opacity="1" shapeType="heartCurve" fill="#000" fill-opacity="0" stroke-width="0" stroke-dasharray="none" stroke="#000000"/></g><g id="svg_23" display="null" clip-id="908"><path fill-rule="evenodd" d="M128.88829475248713,245.18874236777265 C128.88829475248713,242.91559570860773 128.63992375609996,240.6010506831335 128.9844557072538,238.38028563031912 C129.1829220867403,237.10308074468412 130.20685960149422,235.83804959014378 131.17603452779076,234.89201243351454 C131.37816838778053,234.69477494801868 132.9633840312854,235.94640347747372 133.936188035148,236.4870016245386 C134.19796165662046,236.63308639767456 134.54859967479024,236.61849328153585 135.24382724851966,236.75121383252372 C135.06239257168454,235.16962726658494 134.89927609589722,233.77554304156 134.7458755632233,232.38022992254446 C134.68861678384746,231.85670188106815 134.50844940394018,231.2942140597952 134.63139640740883,230.81450376967223 C135.70892522103532,226.62005816203418 135.72474723116466,226.62372564253747 140.25400884684313,228.22478249764026 C139.92647019540345,227.0742304989144 139.44556941422707,226.10993274564316 139.42239324162256,225.13346126127726 C139.38345266329452,223.49586401142187 139.44067303973316,221.80106558659645 139.8546375013575,220.23652992477764 C140.04334953479338,219.52425144692825 141.26454373651177,218.52590948982288 141.867220231572,218.61840296408627 C142.70611319339332,218.74747523603946 143.49995950987068,219.70326673871932 144.13184143867693,220.4569051799408 C144.5555602463519,220.96217262477512 144.66512382620385,221.73044258507252 145.26662903167926,222.33678656063603 C145.26662903167926,220.96948838431308 145.06814345072416,219.56445932218412 145.3153047545893,218.24220779120515 C145.6440338970824,216.48773120195983 146.1614750730114,214.7235194681325 146.92002909019538,213.11518525642896 C147.22926874205587,212.45891746249617 148.5125604932382,211.72350121497948 149.1237624403584,211.886656093704 C149.8737526025452,212.0851224731905 150.5714187627873,213.10053453588444 150.94886203112765,213.92116690106377 C151.38471616696006,214.86841375021504 151.44804261041463,215.98855062267285 151.7706848873604,217.494656215531 C152.92369467406752,213.90288710295317 153.69926119243428,210.83349394373545 154.95330910693338,207.97349279963964 C155.34536469288105,207.07983724936093 157.03046637606167,206.75108890539923 158.1237979983489,206.16425362193695 C158.480522882066,207.02991343099166 159.10147917523682,207.8833995089517 159.14773551310282,208.76611022212637 C159.30236493976736,211.69794406026813 159.20132681197538,214.64197083097315 159.3133481798086,217.57620485269035 C159.33890533451995,218.2495043492745 159.822244702209,218.90456245068526 160.0961920547761,219.5681076012188 C160.29832591476588,219.5364443794915 160.50044057328705,219.5035714652422 160.70253603033962,219.47190824351492 C161.01419506724415,218.00478163192201 161.1968586380699,216.49381806750716 161.67046286117693,215.08149244730885 C162.26707169215842,213.30021060789295 162.96107037189722,211.51531889237958 163.90706912558926,209.90452689269478 C164.25288757513954,209.3176532062953 165.439979968618,208.99988810237483 166.24475192073078,208.9986784098528 C166.67332869996244,208.9986784098528 167.4622978434145,209.92641656690284 167.4769101610218,210.4524023963604 C167.65465815588504,216.72882484174625 168.1611736961786,223.0441494625229 167.66074502143238,229.27552526256477 C167.29428499313326,233.83278261946725 164.92983535075837,237.95291854360948 161.74108586270086,241.42654101986955 C155.40135617532906,248.3287777299829 148.97642957176322,255.15795285205968 142.8302890908526,262.2306217974983 C140.68500501111885,264.69977704816847 137.64479808417855,266.7087114993483 137.21986958398156,270.41375007521856 C137.16510699552418,270.8921738669451 137.11151569665162,271.370674464546 137.02388019394493,272.1425350994723 C140.1687543262433,272.2582431492774 143.15659884830166,272.31661561383225 145.74388153382097,270.46966475179215 C149.29179449210824,267.93720225913603 153.16599800637596,268.17944798703866 156.6663873298694,269.8658169671471 C158.32956093590474,270.666902237288 159.82831236628772,273.1129389197595 160.18140817243875,275.0379245502045 C160.75854671425623,278.1852756719527 160.33728569456252,281.51523276012085 160.33728569456252,284.84269365737055 C160.17046333533472,284.78309229882507 159.62625531217236,284.75870643369853 159.35837562368397,284.47375663962157 C156.24391661765367,281.1474862334253 153.19762282516604,281.19614275486674 149.54137518101743,283.9891883779419 C146.65946516124495,286.1905215445295 143.32340200606086,287.79522667866695 140.2065428164551,289.6957880410482 C139.0680877429495,290.3898059222556 137.9528664464542,291.1288320458698 136.879005113331,291.916629899737 C131.9138701603515,295.5570363322877 126.31929186507841,297.80829331724453 120.56278758507142,299.90486327113103 C113.40240633105168,302.5128835427422 106.04853187791377,301.20150004299285 98.8029345062314,301.85776783692563 C92.81387163923227,302.39959487798114 86.77976212688918,303.0594725480114 80.93193566220361,304.3927073190316 C74.13442376185412,305.94019207673045 67.49518956720385,308.23038964001535 60.46269009408388,308.52624586825914 C57.452946297083145,308.65282194929387 54.390840095200474,308.62486461100707 51.42491404955308,308.18411410068074 C50.09537556123905,307.98564772119425 48.780420588329434,306.75959554791916 47.761350645866514,305.7064333979506 C46.97116220915814,304.88944931180595 46.65095851872502,303.6158927052056 46.12132441023277,302.5456796511171 C47.94154682797671,299.52129473430614 51.12174206177133,299.6613502463006 54.01949329314175,299.16460825352624 C57.93021800069346,298.49370894051754 62.008974759995,298.33176375431503 65.71272683746884,297.0655805116585 C69.2326248530635,295.8626469065821 72.40552352878876,293.5919196324612 75.64781631204733,291.65364658574254 C77.761475572991,290.3898059222556 79.74239508147821,288.8995415409954 81.75011023940169,287.46649753617385 C82.48793627122814,286.93930201419425 83.13444971911031,286.2843015171893 84.0269147783356,285.5099446913446 C80.62633468864351,283.1418659714036 77.42906934926032,281.17187209855183 74.5264793478018,278.8378183809764 C69.84747507921838,275.0756362345419 65.93430218441972,270.8106060283171 63.52602518995718,264.9932138913682 C61.894524406383425,261.0556839336459 62.01748101058638,257.2874149216641 62.07349169450299,253.16725979605326 C58.17130203974557,252.6973038519809 54.38231464314049,252.08243442435742 52.18222957201215,248.1668325437804 C53.6006516584921,247.41807127558423 54.62947594700563,246.87380564801606 55.13476259330855,246.6071740549869 C54.21064391309028,244.8855703799909 53.34741308981393,243.2759688713595 52.48417266580327,241.66642496713393 C53.912349098333834,241.1879051680644 55.3405255308644,240.71065266592268 56.782075786277346,240.22725569382783 C54.97404630109668,238.5604530102264 52.99553657691922,236.73783040890703 50.512988301898076,234.45128112465682 C52.35875827361906,233.68178227036879 53.407062452030914,233.24471844201435 54.54425022860869,232.7710758159701 C52.87135107872564,230.97644895587473 49.89082231620523,229.62495358821252 50.493498811265454,226.00764652239195 C51.17898163967857,225.85422678824943 51.8607969875884,225.70086465851273 52.6753328864861,225.51699139516495 C51.81088276995342,223.42038303834124 48.11930442357425,221.2069145435962 52.75203315282306,218.96909858666186 C52.51096831523955,218.31647907176375 52.37946705750801,217.25235288322256 51.80235731789344,216.55835420348376 C50.69561346978662,215.22878691296683 50.42409510299785,213.76653747439923 51.539364403164655,212.66222261207076 C51.98377279325996,212.22149130321304 53.578742782815425,212.94225683018522 54.83402919203945,213.1675284598423 C54.103499718282364,211.11961502739723 53.310882295795636,208.8976018791236 52.51704558005258,206.67318854727455 C52.82874301989432,206.47349327379743 53.14165015225808,206.27381720178892 53.45211869810919,206.07293143725838 C54.73052367553191,207.4207401229487 56.00893825368894,208.76852960717042 57.63680035896232,210.48527531060972 C57.538162414745784,208.6565274408058 57.466348922168436,207.29900281200207 57.39450662738818,205.94264947278316 C57.61973985410805,205.84524042255725 57.84377298904019,205.74907946779058 58.06902541722866,205.6528801100867 C61.19807753939767,208.02097803149627 62.40465942350875,211.82336805318664 64.59866722982406,215.19351381514207 C65.68958906780153,212.78275023049537 63.02439642342324,209.70970879224296 66.22651973436314,207.56075723200593 C66.76466009344676,208.99257234283687 67.48909310092222,210.15168819655992 67.61085921407175,211.37165350428768 C68.17213734282268,217.02832934902472 70.61573543878148,222.01781176419354 73.66323892379114,226.54336749643153 C75.68678569257827,229.54705323008784 78.79757721810529,231.90176772788072 81.68436441090307,234.2199226294524 C86.3597107997175,237.97363692823274 91.36134774451239,241.3230643055649 96.02086252246318,245.09619128910344 C100.01195497685512,248.32756803746088 103.87398476002818,251.7536860803957 107.49738829213038,255.38925374285827 C110.30866570964463,258.21031430862604 112.66217051491549,261.48668009792164 115.49538561030931,264.89336625462965 C116.64960508953845,262.66768562585276 117.72346642266166,260.6624186551762 118.7388976868242,258.62790784781646 C120.50794819073963,255.0848912640231 122.16384444017422,251.48217731434124 124.01569167670823,247.98299768336983 C125.38786702605648,245.39694389184115 126.23649513245982,245.03165515312685 128.88829475248713,245.18874236777265 z" id="svg_24"/></g></g></svg>