<?xml version="1.0"?>
<svg xmlns="http://www.w3.org/2000/svg" width="400" height="218"><g><title>Layer 1</title><g clip-id="915" display="null" id="svg_4"><path id="svg_5" d="m193.70509,153.40097c-4.62846,0.46597 -8.73898,-1.10565 -11.76154,-4.31644c-3.05688,-3.24826 -5.50113,-7.15179 -4.8802,-12.06941c0.2486,-1.97101 1.22838,-3.25867 2.97263,-4.47351c3.30133,-2.29865 5.86311,-5.37944 6.02222,-9.72916c0.06036,-1.64441 -0.18929,-3.29716 -0.24857,-4.9478c-0.17995,-5.03101 2.00116,-8.6277 6.25314,-11.37462c4.96234,-3.20355 10.5779,-4.06578 16.13414,-4.89165c4.76994,-0.70934 10.66734,3.37202 12.47922,8.1503c1.91795,5.06013 5.76219,7.08521 10.7599,7.45131c4.58273,0.33597 7.56784,2.85304 7.99948,7.45241c0.26627,2.84053 0.53149,5.8506 -0.11438,8.56839c-0.9299,3.91289 -3.36688,6.98224 -7.07587,9.05518c-6.18344,3.45526 -12.63734,6.08775 -19.56653,7.58656c-6.29474,1.36253 -12.56866,2.81454 -18.853,4.22699c-0.03951,-0.22881 -0.08009,-0.45868 -0.12065,-0.68855zm0.69376,-111.91872c0.69894,1.44574 1.23045,3.00798 2.13014,4.3154c1.97203,2.86654 1.45509,4.69089 -1.76715,5.51154c-3.57277,0.91009 -5.41998,5.86205 -2.95807,9.09781c2.01051,2.64085 2.15929,5.37737 2.01781,8.34895c-0.06967,1.48111 -0.50237,3.02463 -0.21841,4.42877c0.59598,2.94559 1.17949,6.09089 4.19373,7.69785c6.94791,3.70278 17.34692,-2.10207 17.97203,-9.94135c0.58141,-7.29324 -2.98514,-12.56763 -8.17007,-17.10251c-1.63089,-1.42702 -3.29713,-2.84885 -4.70752,-4.48078c-1.14725,-1.3251 -1.77547,-3.09952 -2.92374,-4.42254c-1.33551,-1.53831 -2.98824,-2.80205 -4.50369,-4.18539c-0.35464,0.24442 -0.71037,0.48782 -1.06505,0.73225zm-26.41457,7.70094c-0.14877,0.55335 -0.19453,1.13268 -0.32454,1.69227c-1.25644,5.43768 0.26003,11.11147 -2.27368,16.60844c-1.42909,3.10056 -0.98186,7.34318 -0.50027,10.95339c0.34532,2.58674 1.52998,5.72266 3.42921,7.30674c4.21454,3.51141 9.04169,5.73412 14.85796,2.68348c6.02327,-3.15881 7.56471,-8.7317 3.42093,-14.64886c-1.61217,-2.30177 -2.83015,-4.92805 -3.91083,-7.53767c-0.701,-1.6933 -0.70517,-3.66015 -1.24086,-5.43873c-0.90695,-3.01321 -3.62788,-4.31229 -6.61194,-3.34707c-0.92052,0.29747 -1.86493,0.52422 -2.64915,0.74159c-2.40472,-2.89878 -0.28813,-7.24955 -3.58112,-9.73852c-0.32138,0.36715 -0.56059,0.52109 -0.61571,0.72494zm62.74969,26.02663c-2.27264,5.30454 -4.74084,10.55709 -6.48924,16.03535c-0.75822,2.37457 -0.7728,5.69771 0.34637,7.81017c2.20607,4.16356 9.07597,5.59059 13.86464,4.23325c7.70718,-2.18527 8.91684,-7.30884 9.45148,-12.8391c0.46176,-4.78345 -0.66776,-9.60644 -3.59775,-13.73982c-0.37131,-0.52317 -0.60745,-1.15556 -0.83939,-1.76194c-1.41351,-3.69343 -2.78436,-7.4035 -4.23843,-11.08131c-0.17786,-0.45141 -0.76343,-0.74159 -1.16077,-1.10564c-0.27353,0.06657 -0.54709,0.13417 -0.82169,0.20177c0.27252,2.8811 0.54504,5.76324 0.83627,8.84509c-4.4621,0.1633 -6.30829,0.96418 -7.3515,3.40218zm-86.63684,20.40484c1.30429,5.68835 2.55661,11.39336 4.09804,17.01929c1.39998,5.10797 4.31644,8.95221 9.25694,11.53688c5.33786,2.79269 15.15022,-0.08841 16.99643,-7.01033c0.39212,-1.4707 1.22629,-3.0787 0.93298,-4.42255c-0.5336,-2.43489 -1.67668,-4.73352 -4.07307,-6.12622c-2.09477,-1.21692 -4.13965,-2.53787 -6.10962,-3.94931c-1.77441,-1.27205 -3.33664,-2.84364 -5.13603,-4.07408c-2.19359,-1.49881 -4.35388,-3.60294 -7.32652,-2.59091c-1.52896,0.52109 -2.8239,1.72865 -4.21869,2.62108c-1.82954,-1.73074 -0.68439,-5.34096 -4.45061,-6.16992c0.00105,1.25644 -0.17891,2.25598 0.03015,3.16608z" fill-rule="evenodd"></path></g></g></svg>
