<svg width="313" height="119" x="0" y="0" id="svgcontent" overflow="hidden" viewBox="0 0 313 119" xmlns="http://www.w3.org/2000/svg" xmlns:se="http://svg-edit.googlecode.com" xmlns:xlink="http://www.w3.org/1999/xlink"><g style="pointer-events:all" mask=""><title style="pointer-events:inherit">Layer 1</title><g type="photobox" style="pointer-events:inherit" pathStr="M334.00007934868336,165.199951171875 c0,58.540775299072266 -50.815574645996094,105.99996948242188 -113.50001525878906,105.99996948242188 C157.81552429497242,271.20001220703125 107.00001068413258,223.74229431152344 107.00001068413258,165.199951171875 C107.00001068413258,106.65769958496094 157.81552429497242,59.19999694824219 220.49997253715992,59.19999694824219 C283.18440552055836,59.19999694824219 334.00007934868336,106.65769958496094 334.00007934868336,165.199951171875 z" lockTransform="null" lockEdit="null" id="svg_1" display="null"><g clip-path="url(#svg_25)"><image xmlns:xlink="http://www.w3.org/1999/xlink" x="120.05066299438477" y="-11.854988098144531" width="99.36363796393076" height="74.52272847294807" preserveAspectRatio="none" id="svg_27" xlink:href="http://192.168.0.139/work/print_commerce/pc-newtool-magento-21/designnbuy/assets/images/uploadedImage/o_1b04lo1it1efq7gn1l85aj71nkpi.jpg" style="pointer-events:inherit" origWidth="1024" origHeight="768" image_id="392" colors="" filter="url(#svg_28)"/></g><path d="M191.1666603088379,23.319732666015625 c0,12.46462345123291 -10.819757461547852,22.569734573364258 -24.16666030883789,22.569734573364258 C153.65307235717773,45.88948059082031 142.83332443237305,35.78468322753906 142.83332443237305,23.319732666015625 C142.83332443237305,10.854789733886719 153.65307235717773,0.75 166.99997329711914,0.75 C180.34688186645508,0.75 191.1666603088379,10.854789733886719 191.1666603088379,23.319732666015625 z" id="svg_26" stroke="#000000" shapeType="circle" fill="#000" fill-opacity="0" stroke-width="0" cursor="move"/></g><g type="photobox" style="pointer-events:inherit" pathStr="M216.73998108506203,82.39060516655445 C282.02570191025734,-69.30670623481274 537.8009399473667,82.39060516655445 216.73998108506203,277.4373657256365 C-104.32428130507469,82.39060516655445 151.4531311094761,-69.30583648383617 216.73998108506203,82.39060516655445 z" lockTransform="null" lockEdit="null" id="svg_2" display="null"><g clip-path="url(#svg_15)"><image xmlns:xlink="http://www.w3.org/1999/xlink" x="-5.91302490234375" y="2.8560543060302734" width="71.22475405534108" height="53.418565541505814" preserveAspectRatio="none" id="svg_17" xlink:href="http://192.168.0.139/work/print_commerce/pc-newtool-magento-21/designnbuy/assets/images/uploadedImage/o_1b04lo1it1efq7gn1l85aj71nkpi.jpg" style="pointer-events:inherit" origWidth="1024" origHeight="768" image_id="392" colors="" filter="url(#svg_18)"/></g><path d="M27.166797637939453,15.430875778198242 C37.13100051879883,-7.721845626831055 76.1685676574707,15.430875778198242 27.166797637939453,45.19978904724121 C-21.835464477539062,15.430875778198242 17.20242691040039,-7.721713066101074 27.166797637939453,15.430875778198242 z" id="svg_16" stroke="#000000" shapeType="heart" fill="#000" fill-opacity="0" stroke-width="0" cursor="move"/></g><g type="photobox" style="pointer-events:inherit" pathStr="M162.97444458305836,78.86703491210938 C160.48190613090992,81.37220001220703 156.6474792510271,82.5409164428711 153.00322265923023,82.03987884521484 C133.25439758598804,79.36805725097656 114.08094330132008,89.8886947631836 107.94527740776539,106.58741760253906 C106.02805633842945,111.7643814086914 105.64416046440601,117.27471160888672 106.60220642387867,122.618408203125 C107.17747803032398,125.95893859863281 105.83553619682789,129.13174438476562 102.95914001762867,131.3025665283203 C76.30806274712086,151.0074005126953 71.13168640434742,185.23912048339844 91.26318664848804,210.28668212890625 L91.07294769585133,210.28668212890625 C94.33217163383961,214.460693359375 98.35913391411304,218.30218505859375 102.76890869438648,221.47601318359375 L102.9602691680193,221.47601318359375 C105.83669586479664,223.6457977294922 107.1786529570818,226.98641967773438 106.60338135063648,230.16021728515625 C103.53553314507008,247.5257110595703 115.42288513481617,264.2254943847656 134.59636230766773,269.4014892578125 C140.54063721001148,271.0712585449219 146.8687164336443,271.4045715332031 153.00439758598804,270.5712890625 L153.00439758598804,270.73980712890625 C156.83883972465992,270.2378234863281 160.48308105766773,271.4075927734375 162.97549743950367,273.91375732421875 C185.60075683891773,297.1237487792969 224.90690918266773,301.6321105957031 253.6665222197771,284.0989990234375 C258.45784302055836,281.260498046875 262.87004394829273,277.7523193359375 266.51311035454273,273.91375732421875 L266.51311035454273,273.7460632324219 C269.00569458305836,271.2419128417969 272.841296389699,270.0701904296875 276.4842712432146,270.5712890625 C296.424548342824,273.2439880371094 315.5992309600115,262.8909606933594 321.5434753447771,246.1912384033203 C323.459460452199,241.01318359375 323.843249514699,235.50392150878906 322.8875915557146,230.1602020263672 L323.07771606743336,230.1602020263672 C322.50249023735523,226.8197479248047 323.8468200713396,223.6468048095703 326.72200317680836,221.47601318359375 C353.373034670949,201.77108764648438 358.550524905324,167.53839111328125 338.41679687798023,142.49087524414062 C335.1588012725115,138.3169708251953 331.1307556182146,134.47537231445312 326.72200317680836,131.3025665283203 C323.8468200713396,129.13174438476562 322.50249023735523,125.79121398925781 323.07771606743336,122.618408203125 C326.14555664360523,105.25296783447266 314.25947876274586,88.55229949951172 295.084948733449,83.37531280517578 L294.8921997100115,83.37531280517578 C288.9492370635271,81.70652770996094 282.621081545949,81.37220001220703 276.4842712432146,82.20657348632812 L276.4842712432146,82.03987884521484 C272.6486999541521,82.5409164428711 269.00569458305836,81.37220001220703 266.51311035454273,78.86703491210938 C243.88672180473804,55.655982971191406 204.58171387016773,51.146705627441406 175.82089538872242,68.6807632446289 C171.02725525200367,71.51924896240234 166.6174957305193,75.02546691894531 162.97444458305836,78.86703491210938 z" lockTransform="null" lockEdit="null" id="svg_3" display="null"><g clip-path="url(#svg_35)"><image xmlns:xlink="http://www.w3.org/1999/xlink" x="-12.054450988769531" y="30.681537628173828" width="83.02209377288818" height="62.26657032966614" preserveAspectRatio="none" id="svg_37" xlink:href="http://192.168.0.139/work/print_commerce/pc-newtool-magento-21/designnbuy/assets/images/uploadedImage/o_1b04lo1it1efq7gn1l85aj71nkpi.jpg" style="pointer-events:inherit" origWidth="1024" origHeight="768" image_id="392" colors="" filter="url(#svg_38)"/></g><path d="M16.939430236816406,44.712337493896484 C16.496002197265625,45.158016204833984 15.813835144042969,45.365936279296875 15.165504455566406,45.27680206298828 C11.652107238769531,44.80147171020508 8.241058349609375,46.67314147949219 7.149497985839844,49.6439208984375 C6.808418273925781,50.56492614746094 6.740119934082031,51.54523468017578 6.910560607910156,52.49590301513672 C7.012901306152344,53.09019470214844 6.774162292480469,53.65465545654297 6.262443542480469,54.040855407714844 C1.5210952758789062,57.54643249511719 0.6001968383789062,63.63640594482422 4.181678771972656,68.09248352050781 L4.147834777832031,68.09248352050781 C4.727668762207031,68.8350601196289 5.4440765380859375,69.51847839355469 6.228599548339844,70.08311462402344 L6.262641906738281,70.08311462402344 C6.7743682861328125,70.46913146972656 7.013114929199219,71.06343841552734 6.9107666015625,71.6280746459961 C6.364982604980469,74.71747589111328 8.47979736328125,77.68843841552734 11.890846252441406,78.60926818847656 C12.948356628417969,78.90633392333984 14.074150085449219,78.96562957763672 15.165718078613281,78.8173828125 L15.165718078613281,78.84736633300781 C15.847885131835938,78.758056640625 16.49620819091797,78.9661636352539 16.939620971679688,79.41202545166016 C20.964752197265625,83.54118347167969 27.957496643066406,84.34324645996094 33.07395935058594,81.2240219116211 C33.926361083984375,80.71903991699219 34.71131134033203,80.09492492675781 35.35942840576172,79.41202545166016 L35.35942840576172,79.38218688964844 C35.80287170410156,78.93669128417969 36.48524475097656,78.72823333740234 37.13334655761719,78.8173828125 C40.680809020996094,79.2928695678711 44.092071533203125,77.45101928710938 45.14958190917969,74.48006439208984 C45.490440368652344,73.5588607788086 45.5587158203125,72.57874298095703 45.388702392578125,71.62806701660156 L45.422523498535156,71.62806701660156 C45.3201904296875,71.0337905883789 45.559356689453125,70.46930694580078 46.07086181640625,70.08311462402344 C50.81220245361328,66.57752227783203 51.73329162597656,60.48736572265625 48.15142059326172,56.03130340576172 C47.571807861328125,55.28874969482422 46.855201721191406,54.605308532714844 46.07086181640625,54.040855407714844 C45.559356689453125,53.65465545654297 45.3201904296875,53.06035614013672 45.422523498535156,52.49590301513672 C45.96830749511719,49.40650939941406 43.853721618652344,46.43539047241211 40.44248962402344,45.514381408691406 L40.40819549560547,45.514381408691406 C39.350914001464844,45.21749496459961 38.22511291503906,45.158016204833984 37.13334655761719,45.30645751953125 L37.13334655761719,45.27680206298828 C36.45098114013672,45.365936279296875 35.80287170410156,45.158016204833984 35.35942840576172,44.712337493896484 C31.334091186523438,40.582984924316406 24.341552734375,39.780765533447266 19.224876403808594,42.90015411376953 C18.37206268310547,43.40513229370117 17.587547302246094,44.02890396118164 16.939430236816406,44.712337493896484 z" id="svg_36" stroke="#000000" shapeType="cloudMirror" fill="#000" fill-opacity="0" stroke-width="0" cursor="move"/></g><g type="photobox" style="pointer-events:inherit" pathStr="M81.00000305473804,76 L342.0000183135271,76 L342.0000183135271,288.0001525878906 L81.00000305473804,288.0001525878906 z" lockTransform="null" lockEdit="null" id="svg_4" display="null"><g clip-path="url(#svg_20)"><image xmlns:xlink="http://www.w3.org/1999/xlink" x="60.00000286102295" y="-10.07406997680664" width="86.41973634560902" height="64.81480225920677" preserveAspectRatio="none" id="svg_22" xlink:href="http://192.168.0.139/work/print_commerce/pc-newtool-magento-21/designnbuy/assets/images/uploadedImage/o_1b04lo1it1efq7gn1l85aj71nkpi.jpg" style="pointer-events:inherit" origWidth="1024" origHeight="768" image_id="392" colors="" filter="url(#svg_23)"/></g><path d="M75.00000286102295,4 L123.33333110809326,4 L123.33333110809326,43.25928497314453 L75.00000286102295,43.25928497314453 z" id="svg_21" stroke="#000000" shapeType="rect" fill="#000" fill-opacity="0" stroke-width="0" cursor="move"/></g><g type="photobox" style="pointer-events:inherit" pathStr="M60.40104980766773,82.80117797851562 C67.25573273003101,145.4627685546875 67.25573273003101,208.62010192871094 60.40104980766773,271.27978515625 C60.40104980766773,284.2447814941406 72.07209320366383,294.8820495605469 86.70606537163258,294.8820495605469 C156.54524536430836,288.73297119140625 226.9381286650896,288.73297119140625 296.77849121391773,294.8820495605469 C311.22639770805836,294.8820495605469 323.0823852568865,284.41168212890625 323.0823852568865,271.27978515625 C316.22661133110523,208.62010192871094 316.22661133110523,145.46275329589844 323.0823852568865,82.80117797851562 C323.0823852568865,69.83634185791016 311.41243286430836,59.20002365112305 296.77849121391773,59.20002365112305 L296.77849121391773,59.36592483520508 C226.9381286650896,65.51505279541016 156.54524536430836,65.51505279541016 86.70606537163258,59.36592483520508 C72.2570220977068,59.36592483520508 60.40104980766773,69.83732604980469 60.40104980766773,82.96707916259766 " lockTransform="null" lockEdit="null" id="svg_5" display="null"><g clip-path="url(#svg_30)"><image xmlns:xlink="http://www.w3.org/1999/xlink" x="193.8862190246582" y="-8.89279556274414" width="85.86659729480743" height="64.39994797110558" preserveAspectRatio="none" id="svg_32" xlink:href="http://192.168.0.139/work/print_commerce/pc-newtool-magento-21/designnbuy/assets/images/uploadedImage/o_1b04lo1it1efq7gn1l85aj71nkpi.jpg" style="pointer-events:inherit" origWidth="1024" origHeight="768" image_id="392" colors="" filter="url(#svg_33)"/></g><path d="M205.00000381469727,6.342609405517578 C206.2612648010254,17.872333526611328 206.2612648010254,29.493274688720703 205.00000381469727,41.022647857666016 C205.00000381469727,43.408199310302734 207.1474723815918,45.36545944213867 209.84011840820312,45.36545944213867 C222.69052124023438,44.23402786254883 235.6427993774414,44.23402786254883 248.49341583251953,45.36545944213867 C251.1518325805664,45.36545944213867 253.33333587646484,43.43891525268555 253.33333587646484,41.022647857666016 C252.07186889648438,29.493274688720703 252.07186889648438,17.872325897216797 253.33333587646484,6.342609405517578 C253.33333587646484,3.957080841064453 251.18606567382812,2 248.49341583251953,2 L248.49341583251953,2.0305252075195312 C235.6427993774414,3.1619644165039062 222.69052124023438,3.1619644165039062 209.84011840820312,2.0305252075195312 C207.18149948120117,2.0305252075195312 205.00000381469727,3.957263946533203 205.00000381469727,6.373134613037109 " id="svg_31" stroke="#000000" shapeType="roundedSquare" fill="#000" fill-opacity="0" stroke-width="0" cursor="move"/></g><g type="photobox" style="pointer-events:inherit" pathStr="M97.54810638725758,97.21334075927734 C89.17898865044117,107.95481872558594 84.34294433891773,120.74249267578125 83.59920044243336,133.86949157714844 L83.78484649956226,133.86949157714844 C83.04110260307789,148.1918182373047 86.38962097465992,162.51312255859375 93.27125854790211,175.30078125 L93.27125854790211,175.47195434570312 C98.66538543999195,185.53170776367188 105.54700775444508,194.90972900390625 113.36024017632008,203.43385314941406 C120.42862243950367,211.2772216796875 128.24075622856617,218.6070556640625 136.4253112822771,225.2571563720703 C142.7499420195818,230.5417938232422 149.44589538872242,235.31690979003906 156.3275329619646,240.0900115966797 C159.86172790825367,242.3053741455078 163.21023865044117,244.69090270996094 166.7422515898943,246.9082794189453 L166.55661316215992,246.9082794189453 C173.06688232719898,251.68238830566406 178.83232422173023,257.4786376953125 183.6694519072771,263.78741455078125 C192.41209717094898,274.8713073730469 197.99185486137867,287.8271789550781 199.66609497368336,301.46673583984375 C217.15141601860523,296.01092529296875 233.8918640166521,288.3397521972656 249.1437408477068,278.7904968261719 C284.6723815947771,257.4786376953125 312.94377441704273,227.6427001953125 330.80049438774586,192.52017211914062 L330.98726196587086,192.52017211914062 C340.4736511260271,174.96043395996094 345.86772461235523,155.86402893066406 347.1684753447771,136.25706481933594 L347.1684753447771,136.42623901367188 C347.9133483916521,122.27513885498047 344.93718262016773,108.12501525878906 338.42692871391773,95.16717529296875 C333.21736450493336,84.93622589111328 325.22066040337086,76.24297332763672 315.1761352568865,69.42167663574219 C307.3651306182146,63.96585464477539 298.0621521025896,60.72639846801758 288.2043640166521,59.87448501586914 C269.60185547173023,59.02157974243164 251.37608642876148,65.50048828125 238.3555328398943,78.11697387695312 C230.91577453911304,85.27759552001953 224.59114380180836,93.63052368164062 219.56614990532398,102.49698638916016 L219.75180359184742,102.49698638916016 C217.5194732695818,106.58836364746094 215.47276611626148,110.68074035644531 213.79960937798023,114.9422836303711 L213.6139556914568,114.9422836303711 C210.26538391411304,110.169189453125 206.54553528130054,105.56526184082031 202.63891907036304,101.133544921875 C194.45549316704273,91.92568969726562 184.78232116997242,84.25349426269531 173.62169189751148,78.28714752197266 C161.34595032036304,71.46786499023438 146.46541137993336,69.76203918457031 132.69995422661304,73.85440826416016 L132.8856384307146,73.85440826416016 C118.74995727837086,78.11697387695312 106.47312469780445,86.30068969726562 97.73047943413258,97.38253021240234 " lockTransform="null" lockEdit="null" id="svg_6" display="null"><g clip-path="url(#svg_40)"><image xmlns:xlink="http://www.w3.org/1999/xlink" x="50.67609405517578" y="32.03856658935547" width="85.54096817970276" height="64.15572613477707" preserveAspectRatio="none" id="svg_42" xlink:href="http://192.168.0.139/work/print_commerce/pc-newtool-magento-21/designnbuy/assets/images/uploadedImage/o_1b04lo1it1efq7gn1l85aj71nkpi.jpg" style="pointer-events:inherit" origWidth="1024" origHeight="768" image_id="392" colors="" filter="url(#svg_43)"/></g><path d="M68.5568618774414,49.85797119140625 C67.02278900146484,51.82691192626953 66.1363296508789,54.17091369628906 66,56.577125549316406 L66.03402709960938,56.577125549316406 C65.89769744873047,59.202430725097656 66.51148986816406,61.82756042480469 67.77291107177734,64.17156219482422 L67.77291107177734,64.20294189453125 C68.76166534423828,66.04691314697266 70.02307891845703,67.76592254638672 71.45526123046875,69.32841491699219 C72.75090789794922,70.76612091064453 74.18289184570312,72.10969543457031 75.68313598632812,73.32867431640625 C76.84245300292969,74.29735565185547 78.06983947753906,75.17264556884766 79.33125305175781,76.04756164550781 C79.97908020019531,76.45364379882812 80.5928726196289,76.89091491699219 81.24029541015625,77.29736328125 L81.20626831054688,77.29736328125 C82.39961242675781,78.17247009277344 83.45642852783203,79.23493194580078 84.34308624267578,80.39134979248047 C85.94563293457031,82.42304992675781 86.96841430664062,84.79788208007812 87.27530670166016,87.29804229736328 C90.48040008544922,86.29798126220703 93.54895782470703,84.89183807373047 96.34465789794922,83.14144134521484 C102.85713195800781,79.23493194580078 108.03933715820312,73.76594543457031 111.31251525878906,67.32791137695312 L111.34674072265625,67.32791137695312 C113.08561706542969,64.10917663574219 114.07437133789062,60.6087646484375 114.31280517578125,57.0147705078125 L114.31280517578125,57.0457763671875 C114.4493408203125,54.45185089111328 113.90379333496094,51.85810852050781 112.71044921875,49.48291015625 C111.75552368164062,47.60755157470703 110.28971862792969,46.014060974121094 108.44853210449219,44.763702392578125 C107.01676177978516,43.763641357421875 105.31150817871094,43.16984176635742 103.50455474853516,43.0136833190918 C100.09467315673828,42.85734558105469 96.75385284423828,44.04494094848633 94.36715698242188,46.35757064819336 C93.00343322753906,47.670127868652344 91.8441162109375,49.20123291015625 90.92302703857422,50.82647705078125 L90.9570541381836,50.82647705078125 C90.54786682128906,51.57643127441406 90.17269897460938,52.326576232910156 89.86600494384766,53.10772705078125 L89.83197784423828,53.10772705078125 C89.21817779541016,52.232810974121094 88.53631591796875,51.38890075683594 87.82022857666016,50.57655334472656 C86.3201904296875,48.88873291015625 84.54707336425781,47.48240661621094 82.50131225585938,46.388763427734375 C80.25114440917969,45.13877487182617 77.52350616455078,44.82609176635742 75.0002670288086,45.57623291015625 L75.03430938720703,45.57623291015625 C72.44320678710938,46.35757064819336 70.19284057617188,47.85765838623047 68.59029388427734,49.88898468017578 " id="svg_41" stroke="#000000" shapeType="heartCurve" fill="#000" fill-opacity="0" stroke-width="0" cursor="move"/></g><g type="photobox" style="pointer-events:inherit" pathStr="M40.99918442964554,130.52094727754593 L165.39924317598343,130.52094727754593 L203.839810192585,34.400013744831085 L242.28042298555374,130.52094727754593 L366.6805542111397,130.52094727754593 L266.03892213106155,189.92632752656937 L304.48154908418655,286.0473755002022 L203.839810192585,226.64034730196 L103.19822388887405,286.0473755002022 L141.64077454805374,189.92632752656937 L40.99918442964554,130.52094727754593 z" lockTransform="null" lockEdit="null" id="svg_7" display="null"><g clip-path="url(#svg_45)"><image xmlns:xlink="http://www.w3.org/1999/xlink" x="126.91544342041016" y="37.89480495452881" width="69.25650139649709" height="51.94237604737282" preserveAspectRatio="none" id="svg_47" xlink:href="http://192.168.0.139/work/print_commerce/pc-newtool-magento-21/designnbuy/assets/images/uploadedImage/o_1b04lo1it1efq7gn1l85aj71nkpi.jpg" style="pointer-events:inherit" origWidth="1024" origHeight="768" image_id="392" colors="" filter="url(#svg_48)"/></g><path d="M133,57.265000343322754 L151.4618148803711,57.265000343322754 L157.16665649414062,43.000000953674316 L162.8715057373047,57.265000343322754 L181.3333282470703,57.265000343322754 L166.39742279052734,66.08116245269775 L172.10256958007812,80.34617328643799 L157.16665649414062,71.52977085113525 L142.23076248168945,80.34617328643799 L147.93589782714844,66.08116245269775 L133,57.265000343322754 z" id="svg_46" stroke="#000000" shapeType="star_points_5" fill="#000" fill-opacity="0" stroke-width="0" cursor="move"/></g><g type="photobox" pathStr="M250.85788269340992,52.01461410522461 C250.19571228325367,52.03590774536133 249.55700989067554,52.09172821044922 248.89177246391773,52.15768814086914 C238.2627594023943,53.208003997802734 228.8806335479021,59.90765380859375 224.1154205352068,69.88915252685547 L221.5872222930193,77.44426727294922 C222.1318542510271,74.82611083984375 222.9708892852068,72.287109375 224.1154205352068,69.88915252685547 C215.61514587700367,61.14469909667969 203.68529053032398,57.108856201171875 191.8974792510271,59.0014533996582 C180.10972900688648,60.89606857299805 169.87222595512867,68.49180603027344 164.27722473442554,79.49920654296875 C148.48355408012867,69.8404312133789 128.79538269340992,70.42597198486328 113.56477661430836,81.02546691894531 S90.21612091362476,110.39051055908203 92.68299408257008,129.3265380859375 L94.29762573540211,137.02069091796875 C93.56798858940601,134.49996948242188 93.02328033745289,131.9345703125 92.68299408257008,129.3265380859375 L92.43776245415211,130.03587341308594 C79.19783325493336,131.4698028564453 68.33895416557789,141.66845703125 65.51949615776539,155.3204345703125 S68.56377716362476,182.98065185546875 80.04909057915211,190.0405731201172 L97.98264618217945,194.36663818359375 C91.72036285698414,194.87911987304688 85.46831054985523,193.37213134765625 80.04909057915211,190.0405731201172 C71.19011230766773,199.89523315429688 69.15137024223804,214.48388671875 74.99571533501148,226.5325164794922 C80.84003753960133,238.5811767578125 93.3196441680193,245.51829528808594 106.19575805962086,243.9453582763672 L114.02258606255054,241.88839721679688 C111.50460357964039,242.9346160888672 108.88950653374195,243.61654663085938 106.19575805962086,243.9453582763672 C113.50448913872242,257.30712890625 125.62542267143726,267.05316162109375 139.85251159965992,270.9327087402344 C154.07962341606617,274.8123474121094 169.19163818657398,272.5198974609375 181.79077453911304,264.5852355957031 C192.07022400200367,280.68194580078125 210.31344909965992,289.1372985839844 228.6088287383318,286.28875732421875 C246.90310974419117,283.441162109375 261.99470825493336,269.78302001953125 267.3536560088396,251.25082397460938 L269.21354980766773,240.89593505859375 C268.93660278618336,244.41419982910156 268.33061523735523,247.87359619140625 267.3536560088396,251.25082397460938 C279.93648071587086,259.4453125 295.7659790068865,259.9070739746094 308.7657348662615,252.45635986328125 C321.7675964385271,245.0057830810547 329.87956543266773,230.79971313476562 329.9991333037615,215.32611083984375 L325.3371765166521,192.20716857910156 L306.97529907524586,176.56410217285156 C321.1728698760271,185.39584350585938 330.12382812798023,198.85198974609375 329.9981567412615,215.32611083984375 C346.88017578423023,215.50167846679688 361.22066040337086,201.13626098632812 367.6546508818865,184.6499786376953 C374.08858032524586,168.16265869140625 371.6553833037615,149.3666229248047 361.2676879912615,135.24888610839844 C365.57600708305836,124.73665618896484 365.32060547173023,112.77832794189453 360.56560058891773,102.48020935058594 C355.8095886260271,92.1800537109375 347.03950805962086,84.52547454833984 336.48933716118336,81.52067565917969 C334.128649905324,67.87073516845703 324.396960452199,56.890689849853516 311.53621216118336,53.29325485229492 C298.67537231743336,49.69378662109375 284.98173828423023,54.131465911865234 276.37105102837086,64.7116928100586 L271.14189453423023,73.47238159179688 C272.477526858449,70.3031997680664 274.2240173369646,67.35218048095703 276.37105102837086,64.7116928100586 C270.30180664360523,56.396488189697266 260.781726077199,51.70305252075195 250.85788269340992,52.01461410522461 L250.85788269340992,52.01461410522461 z" lockTransform="null" lockEdit="null" id="svg_8" display="null"><g clip-path="url(#svg_50)"><image xmlns:xlink="http://www.w3.org/1999/xlink" x="178.6402702331543" y="35.777926445007324" width="73.78780643145242" height="55.340854823589325" preserveAspectRatio="none" id="svg_52" xlink:href="http://192.168.0.139/work/print_commerce/pc-newtool-magento-21/designnbuy/assets/images/uploadedImage/o_1b04lo1it1efq7gn1l85aj71nkpi.jpg" origWidth="1024" origHeight="768" image_id="392" colors="" filter="url(#svg_53)"/></g><path d="M218.3050994873047,44.0023078918457 C218.2003936767578,44.00567626953125 218.0994110107422,44.01449966430664 217.99423217773438,44.02492904663086 C216.3135986328125,44.191001892089844 214.8301239013672,45.250328063964844 214.07666015625,46.82857131958008 L213.67691040039062,48.023162841796875 C213.76303100585938,47.609188079833984 213.89569091796875,47.20772933959961 214.07666015625,46.82857131958008 C212.73263549804688,45.445926666259766 210.8463134765625,44.80779266357422 208.9824676513672,45.1070442199707 C207.11862182617188,45.4066162109375 205.49990844726562,46.607627868652344 204.61524963378906,48.34808349609375 C202.11801147460938,46.82086944580078 199.00497436523438,46.9134521484375 196.59677124023438,48.58940887451172 S192.90493774414062,53.232513427734375 193.2949981689453,56.226619720458984 L193.55029296875,57.44318771362305 C193.4349365234375,57.044620513916016 193.34881591796875,56.63898849487305 193.2949981689453,56.226619720458984 L193.2562255859375,56.33877182006836 C191.16278076171875,56.56550216674805 189.44580078125,58.17808151245117 189,60.33668899536133 S189.48135375976562,64.71023178100586 191.29736328125,65.8265151977539 L194.13296508789062,66.51054382324219 C193.14279174804688,66.5915756225586 192.15423583984375,66.3532943725586 191.29736328125,65.8265151977539 C189.8966064453125,67.38470458984375 189.57424926757812,69.69141387939453 190.49835205078125,71.59650421142578 C191.42242431640625,73.50160217285156 193.39566040039062,74.59847259521484 195.4315948486328,74.34976196289062 L196.66915893554688,74.02452850341797 C196.27101135253906,74.18994903564453 195.85751342773438,74.29777526855469 195.4315948486328,74.34976196289062 C196.58721923828125,76.46248626708984 198.50375366210938,78.00349426269531 200.7532958984375,78.6169204711914 C203.00283813476562,79.23035430908203 205.39230346679688,78.86788177490234 207.38442993164062,77.61327362060547 C209.00979614257812,80.15843200683594 211.89434814453125,81.49536895751953 214.78713989257812,81.04496765136719 C217.67977905273438,80.59471130371094 220.06600952148438,78.43513488769531 220.91336059570312,75.5048828125 L221.20742797851562,73.86759948730469 C221.1636505126953,74.42389678955078 221.06784057617188,74.97088623046875 220.91336059570312,75.5048828125 C222.90292358398438,76.80056762695312 225.40582275390625,76.87358093261719 227.4613037109375,75.69549560546875 C229.51712036132812,74.5174331665039 230.79974365234375,72.2712173461914 230.81866455078125,69.8245849609375 L230.08151245117188,66.1690902709961 L227.17819213867188,63.6956672668457 C229.42306518554688,65.09210968017578 230.83837890625,67.2197494506836 230.81851196289062,69.8245849609375 C233.48782348632812,69.85234069824219 235.75531005859375,67.5809326171875 236.77261352539062,64.97417831420898 C237.78993225097656,62.36725997924805 237.40521240234375,59.39529037475586 235.76272583007812,57.16303634643555 C236.44395446777344,55.50088119506836 236.403564453125,53.610069274902344 235.6517333984375,51.98176193237305 C234.89971923828125,50.35313415527344 233.51303100585938,49.142818450927734 231.84486389160156,48.66770935058594 C231.4716033935547,46.50942611694336 229.932861328125,44.77329635620117 227.89935302734375,44.20448303222656 C225.8658447265625,43.635345458984375 223.70065307617188,44.33701705932617 222.3391571044922,46.00992965698242 L221.51234436035156,47.3951416015625 C221.72352600097656,46.894039154052734 221.9996795654297,46.427433013916016 222.3391571044922,46.00992965698242 C221.3795166015625,44.69515609741211 219.8742218017578,43.95304489135742 218.3050994873047,44.0023078918457 L218.3050994873047,44.0023078918457 z" id="svg_51" stroke="#000000" shapeType="cloud" fill="#000" fill-opacity="0" stroke-width="0" cursor="move"/></g><g type="photobox" style="pointer-events:inherit" pathStr="M243.35894471406937,41.414730072021484 C242.66209107637405,41.43620681762695 241.98997193574905,41.49250411987305 241.28986817598343,41.55902862548828 C230.1045807003975,42.618282318115234 220.23133546113968,49.375003814697266 215.21673280000687,59.44151306152344 L212.55616456270218,67.06098175048828 C213.129360973835,64.4205322265625 214.01223450899124,61.859901428222656 215.21673280000687,59.44151306152344 C206.2715271115303,50.62257766723633 193.71722108125687,46.552364349365234 181.312466442585,48.461082458496094 C168.907681286335,50.371829986572266 158.13430482149124,58.03225326538086 152.2464264035225,69.13343048095703 C135.62609559297562,59.39237594604492 114.90736848115921,59.982906341552734 98.87955170869827,70.67269134521484 S74.30876618623734,100.287841796875 76.90476685762405,119.38514709472656 L78.60391694307327,127.14482116699219 C77.83607941865921,124.60262298583984 77.2628830075264,122.01536560058594 76.90476685762405,119.38514709472656 L76.64667969942093,120.10050964355469 C62.71378022432327,121.54663848876953 51.28653794527054,131.8321533203125 48.31949692964554,145.60043334960938 S51.52312928438187,173.4962158203125 63.60959702730179,180.61624145507812 L82.48181611299515,184.97915649414062 C75.89173585176468,185.4960174560547 69.31243592500687,183.97618103027344 63.60959702730179,180.61624145507812 C54.2869194149971,190.5548095703125 52.14147645235062,205.2677459716797 58.291710674762726,217.4189910888672 C64.44194108247757,229.5702667236328 77.57474213838577,236.56640625 91.1248214840889,234.98013305664062 L99.36134034395218,232.9055938720703 C96.71155244112015,233.96078491210938 93.95957642793655,234.64852905273438 91.1248214840889,234.98013305664062 C98.8161056637764,248.45570373535156 111.5714767575264,258.2847595214844 126.54324799776077,262.1973876953125 C141.51504212617874,266.11004638671875 157.41810303926468,263.798095703125 170.67670899629593,255.79576110839844 C181.4942291378975,272.02960205078125 200.69233399629593,280.5568542480469 219.945278942585,277.68408203125 C239.19717103242874,274.8122863769531 255.07868653535843,261.037841796875 260.7181823849678,242.34783935546875 L262.67548829317093,231.90472412109375 C262.3840454220772,235.4529266357422 261.74631959199905,238.9418487548828 260.7181823849678,242.34783935546875 C273.9597595334053,250.612060546875 290.61774903535843,251.07774353027344 304.2979858517647,243.56362915039062 C317.9803588986397,236.04959106445312 326.5168884396553,221.72250366210938 326.6427124142647,206.11720275878906 L321.7367065548897,182.8013153076172 L302.41389161348343,167.02500915527344 C317.35444337129593,175.93197631835938 326.7739380002022,189.50274658203125 326.64170533418655,206.11720275878906 C344.40729981660843,206.29425048828125 359.4984558224678,191.8065185546875 366.2691772580147,175.17974853515625 C373.0399597287178,158.552001953125 370.4794128537178,139.59593200683594 359.5479858517647,125.35792541503906 C364.0818298459053,114.75614929199219 363.8130005002022,102.69597625732422 358.8090942502022,92.31016540527344 C353.8042114377022,81.92227172851562 344.5750854611397,74.20250701904297 333.47260743379593,71.172119140625 C330.9884155392647,57.40591049194336 320.7473571896553,46.332340240478516 307.2133911252022,42.704261779785156 C293.6794555783272,39.07413864135742 279.2690551877022,43.54961013793945 270.20762330293655,54.219947814941406 L264.7047546505928,63.05527114868164 C266.1102722287178,59.85908508300781 267.94822388887405,56.88292694091797 270.20762330293655,54.219947814941406 C263.8207214474678,45.833927154541016 253.80222779512405,41.10052490234375 243.35894471406937,41.414730072021484 L243.35894471406937,41.414730072021484 z" lockTransform="null" lockEdit="null" id="svg_9" display="null"><g clip-path="url(#svg_65)"><image xmlns:xlink="http://www.w3.org/1999/xlink" x="107.73989486694336" y="73.77956008911133" width="70.11765539646149" height="52.588241547346115" preserveAspectRatio="none" id="svg_67" xlink:href="http://192.168.0.139/work/print_commerce/pc-newtool-magento-21/designnbuy/assets/images/uploadedImage/o_1b04lo1it1efq7gn1l85aj71nkpi.jpg" style="pointer-events:inherit" origWidth="1024" origHeight="768" image_id="392" colors="" filter="url(#svg_68)"/></g><path d="M144.30509185791016,80.00221252441406 C144.20038604736328,80.00543975830078 144.09940338134766,80.01389694213867 143.99420928955078,80.02389144897461 C142.3135986328125,80.18304824829102 140.83011627197266,81.19825744628906 140.07666778564453,82.71077346801758 L139.67691040039062,83.8556137084961 C139.76303100585938,83.45888137817383 139.89568328857422,83.07414245605469 140.07666778564453,82.71077346801758 C138.73262786865234,81.38570785522461 136.84632110595703,80.77415084838867 134.98247528076172,81.06093978881836 C133.1186294555664,81.3480339050293 131.49990844726562,82.49902725219727 130.61524200439453,84.1670036315918 C128.11800384521484,82.7033920288086 125.00497055053711,82.79211807250977 122.59675598144531,84.39828109741211 S118.90494537353516,88.8480224609375 119.29499816894531,91.7174301147461 L119.55030059814453,92.88333892822266 C119.43493270874023,92.50136947631836 119.34880828857422,92.11262893676758 119.29499816894531,91.7174301147461 L119.25622177124023,91.82491683959961 C117.16277313232422,92.04219818115234 115.44580459594727,93.58761978149414 115,95.65633392333984 S115.48135375976562,99.84773254394531 117.29737091064453,100.91753387451172 L120.13296127319336,101.57307052612305 C119.14278793334961,101.65073013305664 118.15423583984375,101.42237091064453 117.29737091064453,100.91753387451172 C115.8966178894043,102.41082382202148 115.57426071166992,104.62147521972656 116.49834823608398,106.44722747802734 C117.42243194580078,108.27297973632812 119.39566421508789,109.32416534423828 121.43159103393555,109.08582305908203 L122.66914749145508,108.77411651611328 C122.27101135253906,108.93266296386719 121.8575210571289,109.03599548339844 121.43159103393555,109.08582305908203 C122.58722305297852,111.11055755615234 124.50374603271484,112.58739471435547 126.75328826904297,113.1752700805664 C129.0028305053711,113.7631607055664 131.39229583740234,113.41577911376953 133.38442993164062,112.21341705322266 C135.0097885131836,114.652587890625 137.89434051513672,115.93382263183594 140.78713989257812,115.50218200683594 C143.67977905273438,115.07068634033203 146.06600952148438,113.00104522705078 146.9133529663086,110.19283294677734 L147.2074432373047,108.62373352050781 C147.1636505126953,109.1568603515625 147.06783294677734,109.68107604980469 146.9133529663086,110.19283294677734 C148.90292358398438,111.43455505371094 151.40582275390625,111.50452423095703 153.46131134033203,110.3755111694336 C155.5171127319336,109.24651336669922 156.79974365234375,107.09383392333984 156.8186492919922,104.74910736083984 L156.08151245117188,101.24584579467773 L153.17822265625,98.87542343139648 C155.4230728149414,100.21371078491211 156.83837127685547,102.25275039672852 156.8185043334961,104.74910736083984 C159.4878158569336,104.77571105957031 161.7552947998047,102.59889602661133 162.77261352539062,100.10068893432617 C163.7899398803711,97.60233306884766 163.40521240234375,94.75414276123047 161.7627410888672,92.61485290527344 C162.44396209716797,91.02191543579102 162.403564453125,89.20984649658203 161.65171813964844,87.64935684204102 C160.89972686767578,86.08855438232422 159.51303100585938,84.92864227294922 157.84485626220703,84.47332000732422 C157.4716033935547,82.4049186706543 155.932861328125,80.74109268188477 153.89935302734375,80.19596481323242 C151.86585235595703,79.65053176879883 149.7006607055664,80.32298278808594 148.33916473388672,81.92622375488281 L147.51234436035156,83.25374984741211 C147.72352600097656,82.77351379394531 147.9996795654297,82.32633972167969 148.33916473388672,81.92622375488281 C147.3795166015625,80.66620635986328 145.87421417236328,79.95500183105469 144.30509185791016,80.00221252441406 L144.30509185791016,80.00221252441406 z" id="svg_66" stroke="#000000" shapeType="cloud" fill="#000" fill-opacity="0" stroke-width="0" cursor="move"/></g><g type="photobox" style="pointer-events:inherit" pathStr="M145.4288787841797,64.22966766357422 C142.8813018798828,66.94640350341797 138.96218872070312,68.21382904052734 135.2374725341797,67.67049407958984 C115.05257415771484,64.77300643920898 95.4556884765625,76.18226623535156 89.18451690673828,94.29145050048828 C87.2249755859375,99.90571594238281 86.83259582519531,105.8814697265625 87.8117904663086,111.67652130126953 C88.39974975585938,115.2992172241211 87.0281753540039,118.74003601074219 84.0882797241211,121.09420776367188 C56.848628997802734,142.4634246826172 51.55793380737305,179.58657836914062 72.134033203125,206.7499237060547 L71.93959045410156,206.7499237060547 C75.27079772949219,211.27645874023438 79.3866958618164,215.44244384765625 83.89383697509766,218.88433837890625 L84.08942413330078,218.88433837890625 C87.02938842773438,221.2374267578125 88.40096282958984,224.8601837158203 87.81299591064453,228.3020477294922 C84.67739868164062,247.13438415527344 96.82727813720703,265.24468994140625 116.42416381835938,270.85784912109375 C122.49969482421875,272.6686706542969 128.96752166748047,273.0301513671875 135.23867797851562,272.1264343261719 L135.23867797851562,272.3092346191406 C139.15777587890625,271.76483154296875 142.88250732421875,273.03338623046875 145.42996215820312,275.7512512207031 C168.55494689941406,300.9217529296875 208.72915649414062,305.8109436035156 238.12393188476562,286.79681396484375 C243.02105712890625,283.71856689453125 247.5307159423828,279.9140625 251.2542266845703,275.7512512207031 L251.2542266845703,275.56939697265625 C253.8018798828125,272.853759765625 257.72215270996094,271.5830078125 261.44561767578125,272.1264343261719 C281.82623291015625,275.02490234375 301.4244079589844,263.7974853515625 307.4999694824219,245.68716430664062 C309.4582214355469,240.07176208496094 309.8504943847656,234.09716796875 308.8737487792969,228.302001953125 L309.0680847167969,228.302001953125 C308.4801330566406,224.679443359375 309.85418701171875,221.2384796142578 312.7928161621094,218.88433837890625 C340.0323791503906,197.5150146484375 345.32421875,160.39071655273438 324.7459411621094,133.2275848388672 C321.41595458984375,128.7011489868164 317.29888916015625,124.5350341796875 312.7928161621094,121.09420776367188 C309.85418701171875,118.74003601074219 308.4801330566406,115.11734008789062 309.0680847167969,111.67652130126953 C312.2037353515625,92.84427642822266 300.0550842285156,74.73298645019531 280.45709228515625,69.11871337890625 L280.2601318359375,69.11871337890625 C274.18585205078125,67.3089828491211 267.7178955078125,66.94640350341797 261.44561767578125,67.85125732421875 L261.44561767578125,67.67049407958984 C257.5252990722656,68.21382904052734 253.8018798828125,66.94640350341797 251.2542266845703,64.22966766357422 C228.12815856933594,39.057979583740234 187.955078125,34.167816162109375 158.55906677246094,53.18295669555664 C153.65951538085938,56.26122283935547 149.1523895263672,60.06360626220703 145.4288787841797,64.22966766357422 z" lockTransform="null" lockEdit="null" id="svg_10" display="null"><g clip-path="url(#svg_60)"><image xmlns:xlink="http://www.w3.org/1999/xlink" x="46.625993490219116" y="73.75908279418945" width="81.22821648915608" height="60.921162366867065" preserveAspectRatio="none" id="svg_62" xlink:href="http://192.168.0.139/work/print_commerce/pc-newtool-magento-21/designnbuy/assets/images/uploadedImage/o_1b04lo1it1efq7gn1l85aj71nkpi.jpg" style="pointer-events:inherit" origWidth="1024" origHeight="768" image_id="392" colors="" filter="url(#svg_63)"/></g><path d="M71.93941283226013,84.93892669677734 C71.49597716331482,85.41180419921875 70.8138177394867,85.63241195678711 70.16548705101013,85.537841796875 C66.65209746360779,85.03350448608398 63.24105620384216,87.01940155029297 62.1494882106781,90.1714973449707 C61.80841612815857,91.14871978759766 61.74011778831482,92.18886184692383 61.91055083274841,93.19755172729492 C62.0128915309906,93.82811737060547 61.77416014671326,94.42702865600586 61.26243758201599,94.83679580688477 C56.521093130111694,98.55633163452148 55.60019087791443,105.01800918579102 59.181676626205444,109.74606704711914 L59.14783263206482,109.74606704711914 C59.727662801742554,110.53396224975586 60.44407820701599,111.25909805297852 61.228593587875366,111.85818862915039 L61.262635946273804,111.85818862915039 C61.7743661403656,112.26777267456055 62.013105154037476,112.89834976196289 61.91076445579529,113.49744033813477 C61.36498045921326,116.77540969848633 63.47979521751404,119.92770004272461 66.89083647727966,120.90472793579102 C67.94834685325623,121.21992111206055 69.07414031028748,121.28284072875977 70.165700674057,121.12553787231445 L70.165700674057,121.15735244750977 C70.84786009788513,121.06259536743164 71.4961907863617,121.28339767456055 71.93960356712341,121.75647354125977 C75.96474242210388,126.13766098022461 82.95748686790466,126.98867416381836 88.07395720481873,123.6790657043457 C88.92635130882263,123.14326858520508 89.71130156517029,122.48105239868164 90.35941863059998,121.75647354125977 L90.35941863059998,121.72481918334961 C90.80286955833435,121.25213241577148 91.48523497581482,121.03094863891602 92.13333678245544,121.12553787231445 C95.68079924583435,121.63004684448242 99.09206938743591,119.6757926940918 100.14957976341248,116.52350234985352 C100.49043822288513,115.54608535766602 100.55871367454529,114.50614547729492 100.38870024681091,113.49743270874023 L100.42252898216248,113.49743270874023 C100.32018828392029,112.86689376831055 100.55935454368591,112.2679557800293 101.07085967063904,111.85818862915039 C105.812185049057,108.13863754272461 106.73328948020935,101.67676544189453 103.15142607688904,96.94873809814453 C102.57180571556091,96.16086196899414 101.85518431663513,95.43570709228516 101.07085967063904,94.83679580688477 C100.55935454368591,94.42702865600586 100.32018828392029,93.79645919799805 100.42252898216248,93.19755172729492 C100.96832060813904,89.91960144042969 98.85371947288513,86.76713943481445 95.44248747825623,85.7899169921875 L95.40820097923279,85.7899169921875 C94.35091185569763,85.47491455078125 93.22509551048279,85.41180419921875 92.13333678245544,85.56930541992188 L92.13333678245544,85.537841796875 C91.45096373558044,85.63241195678711 90.80286955833435,85.41180419921875 90.35941863059998,84.93892669677734 C86.33408904075623,80.55753326416016 79.34154295921326,79.70634841918945 74.22485899925232,83.01613235473633 C73.37203764915466,83.55193710327148 72.58752989768982,84.21378326416016 71.93941283226013,84.93892669677734 z" id="svg_61" stroke="#000000" shapeType="cloudMirror" fill="#000" fill-opacity="0" stroke-width="0" cursor="move"/></g><g type="photobox" style="pointer-events:inherit" pathStr="M212.83983154594898,114.61660766601562 C265.550036624074,-22.905513763427734 472.057116702199,114.61660766601562 212.83983154594898,291.437255859375 C-46.38017348945141,114.61660766601562 160.1286804229021,-22.904720306396484 212.83983154594898,114.61660766601562 z" lockTransform="null" lockEdit="null" id="svg_11" display="null"><g clip-path="url(#svg_55)"><image xmlns:xlink="http://www.w3.org/1999/xlink" x="-13.067878723144531" y="68.92255210876465" width="88.2174382607142" height="66.16307869553566" preserveAspectRatio="none" id="svg_57" xlink:href="http://192.168.0.139/work/print_commerce/pc-newtool-magento-21/designnbuy/assets/images/uploadedImage/o_1b04lo1it1efq7gn1l85aj71nkpi.jpg" style="pointer-events:inherit" origWidth="1024" origHeight="768" image_id="392" colors="" filter="url(#svg_58)"/></g><path d="M27.16680145263672,90.58937644958496 C37.131004333496094,64.59255409240723 76.16856384277344,90.58937644958496 27.16680145263672,124.01508140563965 C-21.835464477539062,90.58937644958496 17.202423095703125,64.59270286560059 27.16680145263672,90.58937644958496 z" id="svg_56" stroke="#000000" shapeType="heart" fill="#000" fill-opacity="0" stroke-width="0" cursor="move"/></g><image x="171" y="81" width="48.33333281675974" height="36.24999961256981" preserveAspectRatio="none" image_id="392" isAdminUploaded="false" display="null" xlink:href="http://192.168.0.139/work/print_commerce/pc-newtool-magento-21/designnbuy/assets/images/uploadedImage/o_1b04lo1it1efq7gn1l85aj71nkpi.jpg" xmlns:xlink="http://www.w3.org/1999/xlink" origWidth="1024" origHeight="768" id="svg_12"/></g><defs><clipPath class="clippath" id="svg_15"><path d="M27.166797637939453,15.430875778198242 C37.13100051879883,-7.721845626831055 76.1685676574707,15.430875778198242 27.166797637939453,45.19978904724121 C-21.835464477539062,15.430875778198242 17.20242691040039,-7.721713066101074 27.166797637939453,15.430875778198242 z" id="" stroke="#000000" shapeType="heart" fill="#000" fill-opacity="0" stroke-width="0" cursor="move"/></clipPath><filter id="svg_18" type="css_brightness" color-interpolation-filters="sRGB"><feComponentTransfer> <feFuncR type="linear" slope="0.5"/> <feFuncG type="linear" slope="0.5"/> <feFuncB type="linear" slope="0.5"/></feComponentTransfer></filter><clipPath class="clippath" id="svg_20"><path d="M75.00000286102295,4 L123.33333110809326,4 L123.33333110809326,43.25928497314453 L75.00000286102295,43.25928497314453 z" id="" stroke="#000000" shapeType="rect" fill="#000" fill-opacity="0" stroke-width="0" cursor="move"/></clipPath><filter id="svg_23" type="brightness_threshold" color-interpolation-filters="sRGB"><feComponentTransfer> <feFuncR type="linear" slope="1.5" intercept="-0.3"/> <feFuncG type="linear" slope="1.5" intercept="-0.3"/> <feFuncB type="linear" slope="1.5" intercept="-0.3"/></feComponentTransfer> </filter><clipPath class="clippath" id="svg_25"><path d="M191.1666603088379,23.319732666015625 c0,12.46462345123291 -10.819757461547852,22.569734573364258 -24.16666030883789,22.569734573364258 C153.65307235717773,45.88948059082031 142.83332443237305,35.78468322753906 142.83332443237305,23.319732666015625 C142.83332443237305,10.854789733886719 153.65307235717773,0.75 166.99997329711914,0.75 C180.34688186645508,0.75 191.1666603088379,10.854789733886719 191.1666603088379,23.319732666015625 z" id="" stroke="#000000" shapeType="circle" fill="#000" fill-opacity="0" stroke-width="0" cursor="move"/></clipPath><filter id="svg_28" type="css_invert" color-interpolation-filters="sRGB"><feComponentTransfer>  <feFuncR type="table" tableValues="1 0"/>  <feFuncG type="table" tableValues="1 0"/>  <feFuncB type="table" tableValues="1 0"/></feComponentTransfer></filter><clipPath class="clippath" id="svg_30"><path d="M205.00000381469727,6.342609405517578 C206.2612648010254,17.872333526611328 206.2612648010254,29.493274688720703 205.00000381469727,41.022647857666016 C205.00000381469727,43.408199310302734 207.1474723815918,45.36545944213867 209.84011840820312,45.36545944213867 C222.69052124023438,44.23402786254883 235.6427993774414,44.23402786254883 248.49341583251953,45.36545944213867 C251.1518325805664,45.36545944213867 253.33333587646484,43.43891525268555 253.33333587646484,41.022647857666016 C252.07186889648438,29.493274688720703 252.07186889648438,17.872325897216797 253.33333587646484,6.342609405517578 C253.33333587646484,3.957080841064453 251.18606567382812,2 248.49341583251953,2 L248.49341583251953,2.0305252075195312 C235.6427993774414,3.1619644165039062 222.69052124023438,3.1619644165039062 209.84011840820312,2.0305252075195312 C207.18149948120117,2.0305252075195312 205.00000381469727,3.957263946533203 205.00000381469727,6.373134613037109 " id="" stroke="#000000" shapeType="roundedSquare" fill="#000" fill-opacity="0" stroke-width="0" cursor="move"/></clipPath><filter id="svg_33" type="gamma_correct" color-interpolation-filters="sRGB"><feComponentTransfer> <feFuncG type="gamma" amplitude="1" exponent="0.5"/> </feComponentTransfer> </filter><clipPath class="clippath" id="svg_35"><path d="M16.939430236816406,44.712337493896484 C16.496002197265625,45.158016204833984 15.813835144042969,45.365936279296875 15.165504455566406,45.27680206298828 C11.652107238769531,44.80147171020508 8.241058349609375,46.67314147949219 7.149497985839844,49.6439208984375 C6.808418273925781,50.56492614746094 6.740119934082031,51.54523468017578 6.910560607910156,52.49590301513672 C7.012901306152344,53.09019470214844 6.774162292480469,53.65465545654297 6.262443542480469,54.040855407714844 C1.5210952758789062,57.54643249511719 0.6001968383789062,63.63640594482422 4.181678771972656,68.09248352050781 L4.147834777832031,68.09248352050781 C4.727668762207031,68.8350601196289 5.4440765380859375,69.51847839355469 6.228599548339844,70.08311462402344 L6.262641906738281,70.08311462402344 C6.7743682861328125,70.46913146972656 7.013114929199219,71.06343841552734 6.9107666015625,71.6280746459961 C6.364982604980469,74.71747589111328 8.47979736328125,77.68843841552734 11.890846252441406,78.60926818847656 C12.948356628417969,78.90633392333984 14.074150085449219,78.96562957763672 15.165718078613281,78.8173828125 L15.165718078613281,78.84736633300781 C15.847885131835938,78.758056640625 16.49620819091797,78.9661636352539 16.939620971679688,79.41202545166016 C20.964752197265625,83.54118347167969 27.957496643066406,84.34324645996094 33.07395935058594,81.2240219116211 C33.926361083984375,80.71903991699219 34.71131134033203,80.09492492675781 35.35942840576172,79.41202545166016 L35.35942840576172,79.38218688964844 C35.80287170410156,78.93669128417969 36.48524475097656,78.72823333740234 37.13334655761719,78.8173828125 C40.680809020996094,79.2928695678711 44.092071533203125,77.45101928710938 45.14958190917969,74.48006439208984 C45.490440368652344,73.5588607788086 45.5587158203125,72.57874298095703 45.388702392578125,71.62806701660156 L45.422523498535156,71.62806701660156 C45.3201904296875,71.0337905883789 45.559356689453125,70.46930694580078 46.07086181640625,70.08311462402344 C50.81220245361328,66.57752227783203 51.73329162597656,60.48736572265625 48.15142059326172,56.03130340576172 C47.571807861328125,55.28874969482422 46.855201721191406,54.605308532714844 46.07086181640625,54.040855407714844 C45.559356689453125,53.65465545654297 45.3201904296875,53.06035614013672 45.422523498535156,52.49590301513672 C45.96830749511719,49.40650939941406 43.853721618652344,46.43539047241211 40.44248962402344,45.514381408691406 L40.40819549560547,45.514381408691406 C39.350914001464844,45.21749496459961 38.22511291503906,45.158016204833984 37.13334655761719,45.30645751953125 L37.13334655761719,45.27680206298828 C36.45098114013672,45.365936279296875 35.80287170410156,45.158016204833984 35.35942840576172,44.712337493896484 C31.334091186523438,40.582984924316406 24.341552734375,39.780765533447266 19.224876403808594,42.90015411376953 C18.37206268310547,43.40513229370117 17.587547302246094,44.02890396118164 16.939430236816406,44.712337493896484 z" id="" stroke="#000000" shapeType="cloudMirror" fill="#000" fill-opacity="0" stroke-width="0" cursor="move"/></clipPath><filter id="svg_38" type="gamma_correct2" color-interpolation-filters="sRGB"><feComponentTransfer> <feFuncG type="gamma" amplitude="1" exponent="0.5" offset="-0.1"/> </feComponentTransfer> </filter><clipPath class="clippath" id="svg_40"><path d="M68.5568618774414,49.85797119140625 C67.02278900146484,51.82691192626953 66.1363296508789,54.17091369628906 66,56.577125549316406 L66.03402709960938,56.577125549316406 C65.89769744873047,59.202430725097656 66.51148986816406,61.82756042480469 67.77291107177734,64.17156219482422 L67.77291107177734,64.20294189453125 C68.76166534423828,66.04691314697266 70.02307891845703,67.76592254638672 71.45526123046875,69.32841491699219 C72.75090789794922,70.76612091064453 74.18289184570312,72.10969543457031 75.68313598632812,73.32867431640625 C76.84245300292969,74.29735565185547 78.06983947753906,75.17264556884766 79.33125305175781,76.04756164550781 C79.97908020019531,76.45364379882812 80.5928726196289,76.89091491699219 81.24029541015625,77.29736328125 L81.20626831054688,77.29736328125 C82.39961242675781,78.17247009277344 83.45642852783203,79.23493194580078 84.34308624267578,80.39134979248047 C85.94563293457031,82.42304992675781 86.96841430664062,84.79788208007812 87.27530670166016,87.29804229736328 C90.48040008544922,86.29798126220703 93.54895782470703,84.89183807373047 96.34465789794922,83.14144134521484 C102.85713195800781,79.23493194580078 108.03933715820312,73.76594543457031 111.31251525878906,67.32791137695312 L111.34674072265625,67.32791137695312 C113.08561706542969,64.10917663574219 114.07437133789062,60.6087646484375 114.31280517578125,57.0147705078125 L114.31280517578125,57.0457763671875 C114.4493408203125,54.45185089111328 113.90379333496094,51.85810852050781 112.71044921875,49.48291015625 C111.75552368164062,47.60755157470703 110.28971862792969,46.014060974121094 108.44853210449219,44.763702392578125 C107.01676177978516,43.763641357421875 105.31150817871094,43.16984176635742 103.50455474853516,43.0136833190918 C100.09467315673828,42.85734558105469 96.75385284423828,44.04494094848633 94.36715698242188,46.35757064819336 C93.00343322753906,47.670127868652344 91.8441162109375,49.20123291015625 90.92302703857422,50.82647705078125 L90.9570541381836,50.82647705078125 C90.54786682128906,51.57643127441406 90.17269897460938,52.326576232910156 89.86600494384766,53.10772705078125 L89.83197784423828,53.10772705078125 C89.21817779541016,52.232810974121094 88.53631591796875,51.38890075683594 87.82022857666016,50.57655334472656 C86.3201904296875,48.88873291015625 84.54707336425781,47.48240661621094 82.50131225585938,46.388763427734375 C80.25114440917969,45.13877487182617 77.52350616455078,44.82609176635742 75.0002670288086,45.57623291015625 L75.03430938720703,45.57623291015625 C72.44320678710938,46.35757064819336 70.19284057617188,47.85765838623047 68.59029388427734,49.88898468017578 " id="" stroke="#000000" shapeType="heartCurve" fill="#000" fill-opacity="0" stroke-width="0" cursor="move"/></clipPath><filter id="svg_43" type="css_grayscale" color-interpolation-filters="sRGB"><feColorMatrix type="saturate" values="0"/></filter><clipPath class="clippath" id="svg_45"><path d="M133,57.265000343322754 L151.4618148803711,57.265000343322754 L157.16665649414062,43.000000953674316 L162.8715057373047,57.265000343322754 L181.3333282470703,57.265000343322754 L166.39742279052734,66.08116245269775 L172.10256958007812,80.34617328643799 L157.16665649414062,71.52977085113525 L142.23076248168945,80.34617328643799 L147.93589782714844,66.08116245269775 L133,57.265000343322754 z" id="" stroke="#000000" shapeType="star_points_5" fill="#000" fill-opacity="0" stroke-width="0" cursor="move"/></clipPath><filter id="svg_48" type="css_sharpen" color-interpolation-filters="sRGB"><feConvolveMatrix order="3" kernelMatrix="1 0 0 0 1 0 0 0 -1"/></filter><clipPath class="clippath" id="svg_50"><path d="M218.3050994873047,44.0023078918457 C218.2003936767578,44.00567626953125 218.0994110107422,44.01449966430664 217.99423217773438,44.02492904663086 C216.3135986328125,44.191001892089844 214.8301239013672,45.250328063964844 214.07666015625,46.82857131958008 L213.67691040039062,48.023162841796875 C213.76303100585938,47.609188079833984 213.89569091796875,47.20772933959961 214.07666015625,46.82857131958008 C212.73263549804688,45.445926666259766 210.8463134765625,44.80779266357422 208.9824676513672,45.1070442199707 C207.11862182617188,45.4066162109375 205.49990844726562,46.607627868652344 204.61524963378906,48.34808349609375 C202.11801147460938,46.82086944580078 199.00497436523438,46.9134521484375 196.59677124023438,48.58940887451172 S192.90493774414062,53.232513427734375 193.2949981689453,56.226619720458984 L193.55029296875,57.44318771362305 C193.4349365234375,57.044620513916016 193.34881591796875,56.63898849487305 193.2949981689453,56.226619720458984 L193.2562255859375,56.33877182006836 C191.16278076171875,56.56550216674805 189.44580078125,58.17808151245117 189,60.33668899536133 S189.48135375976562,64.71023178100586 191.29736328125,65.8265151977539 L194.13296508789062,66.51054382324219 C193.14279174804688,66.5915756225586 192.15423583984375,66.3532943725586 191.29736328125,65.8265151977539 C189.8966064453125,67.38470458984375 189.57424926757812,69.69141387939453 190.49835205078125,71.59650421142578 C191.42242431640625,73.50160217285156 193.39566040039062,74.59847259521484 195.4315948486328,74.34976196289062 L196.66915893554688,74.02452850341797 C196.27101135253906,74.18994903564453 195.85751342773438,74.29777526855469 195.4315948486328,74.34976196289062 C196.58721923828125,76.46248626708984 198.50375366210938,78.00349426269531 200.7532958984375,78.6169204711914 C203.00283813476562,79.23035430908203 205.39230346679688,78.86788177490234 207.38442993164062,77.61327362060547 C209.00979614257812,80.15843200683594 211.89434814453125,81.49536895751953 214.78713989257812,81.04496765136719 C217.67977905273438,80.59471130371094 220.06600952148438,78.43513488769531 220.91336059570312,75.5048828125 L221.20742797851562,73.86759948730469 C221.1636505126953,74.42389678955078 221.06784057617188,74.97088623046875 220.91336059570312,75.5048828125 C222.90292358398438,76.80056762695312 225.40582275390625,76.87358093261719 227.4613037109375,75.69549560546875 C229.51712036132812,74.5174331665039 230.79974365234375,72.2712173461914 230.81866455078125,69.8245849609375 L230.08151245117188,66.1690902709961 L227.17819213867188,63.6956672668457 C229.42306518554688,65.09210968017578 230.83837890625,67.2197494506836 230.81851196289062,69.8245849609375 C233.48782348632812,69.85234069824219 235.75531005859375,67.5809326171875 236.77261352539062,64.97417831420898 C237.78993225097656,62.36725997924805 237.40521240234375,59.39529037475586 235.76272583007812,57.16303634643555 C236.44395446777344,55.50088119506836 236.403564453125,53.610069274902344 235.6517333984375,51.98176193237305 C234.89971923828125,50.35313415527344 233.51303100585938,49.142818450927734 231.84486389160156,48.66770935058594 C231.4716033935547,46.50942611694336 229.932861328125,44.77329635620117 227.89935302734375,44.20448303222656 C225.8658447265625,43.635345458984375 223.70065307617188,44.33701705932617 222.3391571044922,46.00992965698242 L221.51234436035156,47.3951416015625 C221.72352600097656,46.894039154052734 221.9996795654297,46.427433013916016 222.3391571044922,46.00992965698242 C221.3795166015625,44.69515609741211 219.8742218017578,43.95304489135742 218.3050994873047,44.0023078918457 L218.3050994873047,44.0023078918457 z" id="" stroke="#000000" shapeType="cloud" fill="#000" fill-opacity="0" stroke-width="0" cursor="move"/></clipPath><filter id="svg_53" type="css_hue_rotate" color-interpolation-filters="sRGB"><feColorMatrix type="hueRotate" values="180"/></filter><clipPath class="clippath" id="svg_55"><path d="M27.16680145263672,90.58937644958496 C37.131004333496094,64.59255409240723 76.16856384277344,90.58937644958496 27.16680145263672,124.01508140563965 C-21.835464477539062,90.58937644958496 17.202423095703125,64.59270286560059 27.16680145263672,90.58937644958496 z" id="" stroke="#000000" shapeType="heart" fill="#000" fill-opacity="0" stroke-width="0" cursor="move"/></clipPath><filter id="svg_58" type="luminance_mask" color-interpolation-filters="sRGB"><feColorMatrix type="luminanceToAlpha"/></filter><clipPath class="clippath" id="svg_60"><path d="M71.93941283226013,84.93892669677734 C71.49597716331482,85.41180419921875 70.8138177394867,85.63241195678711 70.16548705101013,85.537841796875 C66.65209746360779,85.03350448608398 63.24105620384216,87.01940155029297 62.1494882106781,90.1714973449707 C61.80841612815857,91.14871978759766 61.74011778831482,92.18886184692383 61.91055083274841,93.19755172729492 C62.0128915309906,93.82811737060547 61.77416014671326,94.42702865600586 61.26243758201599,94.83679580688477 C56.521093130111694,98.55633163452148 55.60019087791443,105.01800918579102 59.181676626205444,109.74606704711914 L59.14783263206482,109.74606704711914 C59.727662801742554,110.53396224975586 60.44407820701599,111.25909805297852 61.228593587875366,111.85818862915039 L61.262635946273804,111.85818862915039 C61.7743661403656,112.26777267456055 62.013105154037476,112.89834976196289 61.91076445579529,113.49744033813477 C61.36498045921326,116.77540969848633 63.47979521751404,119.92770004272461 66.89083647727966,120.90472793579102 C67.94834685325623,121.21992111206055 69.07414031028748,121.28284072875977 70.165700674057,121.12553787231445 L70.165700674057,121.15735244750977 C70.84786009788513,121.06259536743164 71.4961907863617,121.28339767456055 71.93960356712341,121.75647354125977 C75.96474242210388,126.13766098022461 82.95748686790466,126.98867416381836 88.07395720481873,123.6790657043457 C88.92635130882263,123.14326858520508 89.71130156517029,122.48105239868164 90.35941863059998,121.75647354125977 L90.35941863059998,121.72481918334961 C90.80286955833435,121.25213241577148 91.48523497581482,121.03094863891602 92.13333678245544,121.12553787231445 C95.68079924583435,121.63004684448242 99.09206938743591,119.6757926940918 100.14957976341248,116.52350234985352 C100.49043822288513,115.54608535766602 100.55871367454529,114.50614547729492 100.38870024681091,113.49743270874023 L100.42252898216248,113.49743270874023 C100.32018828392029,112.86689376831055 100.55935454368591,112.2679557800293 101.07085967063904,111.85818862915039 C105.812185049057,108.13863754272461 106.73328948020935,101.67676544189453 103.15142607688904,96.94873809814453 C102.57180571556091,96.16086196899414 101.85518431663513,95.43570709228516 101.07085967063904,94.83679580688477 C100.55935454368591,94.42702865600586 100.32018828392029,93.79645919799805 100.42252898216248,93.19755172729492 C100.96832060813904,89.91960144042969 98.85371947288513,86.76713943481445 95.44248747825623,85.7899169921875 L95.40820097923279,85.7899169921875 C94.35091185569763,85.47491455078125 93.22509551048279,85.41180419921875 92.13333678245544,85.56930541992188 L92.13333678245544,85.537841796875 C91.45096373558044,85.63241195678711 90.80286955833435,85.41180419921875 90.35941863059998,84.93892669677734 C86.33408904075623,80.55753326416016 79.34154295921326,79.70634841918945 74.22485899925232,83.01613235473633 C73.37203764915466,83.55193710327148 72.58752989768982,84.21378326416016 71.93941283226013,84.93892669677734 z" id="" stroke="#000000" shapeType="cloudMirror" fill="#000" fill-opacity="0" stroke-width="0" cursor="move"/></clipPath><filter id="svg_63" type="css_sepia" color-interpolation-filters="sRGB"><feColorMatrix type="matrix" values=".343 .669 .119 0 0             .249 .626 .130 0 0            .172 .334 .111 0 0            .000 .000 .000 1 0 "/></filter><clipPath class="clippath" id="svg_65"><path d="M144.30509185791016,80.00221252441406 C144.20038604736328,80.00543975830078 144.09940338134766,80.01389694213867 143.99420928955078,80.02389144897461 C142.3135986328125,80.18304824829102 140.83011627197266,81.19825744628906 140.07666778564453,82.71077346801758 L139.67691040039062,83.8556137084961 C139.76303100585938,83.45888137817383 139.89568328857422,83.07414245605469 140.07666778564453,82.71077346801758 C138.73262786865234,81.38570785522461 136.84632110595703,80.77415084838867 134.98247528076172,81.06093978881836 C133.1186294555664,81.3480339050293 131.49990844726562,82.49902725219727 130.61524200439453,84.1670036315918 C128.11800384521484,82.7033920288086 125.00497055053711,82.79211807250977 122.59675598144531,84.39828109741211 S118.90494537353516,88.8480224609375 119.29499816894531,91.7174301147461 L119.55030059814453,92.88333892822266 C119.43493270874023,92.50136947631836 119.34880828857422,92.11262893676758 119.29499816894531,91.7174301147461 L119.25622177124023,91.82491683959961 C117.16277313232422,92.04219818115234 115.44580459594727,93.58761978149414 115,95.65633392333984 S115.48135375976562,99.84773254394531 117.29737091064453,100.91753387451172 L120.13296127319336,101.57307052612305 C119.14278793334961,101.65073013305664 118.15423583984375,101.42237091064453 117.29737091064453,100.91753387451172 C115.8966178894043,102.41082382202148 115.57426071166992,104.62147521972656 116.49834823608398,106.44722747802734 C117.42243194580078,108.27297973632812 119.39566421508789,109.32416534423828 121.43159103393555,109.08582305908203 L122.66914749145508,108.77411651611328 C122.27101135253906,108.93266296386719 121.8575210571289,109.03599548339844 121.43159103393555,109.08582305908203 C122.58722305297852,111.11055755615234 124.50374603271484,112.58739471435547 126.75328826904297,113.1752700805664 C129.0028305053711,113.7631607055664 131.39229583740234,113.41577911376953 133.38442993164062,112.21341705322266 C135.0097885131836,114.652587890625 137.89434051513672,115.93382263183594 140.78713989257812,115.50218200683594 C143.67977905273438,115.07068634033203 146.06600952148438,113.00104522705078 146.9133529663086,110.19283294677734 L147.2074432373047,108.62373352050781 C147.1636505126953,109.1568603515625 147.06783294677734,109.68107604980469 146.9133529663086,110.19283294677734 C148.90292358398438,111.43455505371094 151.40582275390625,111.50452423095703 153.46131134033203,110.3755111694336 C155.5171127319336,109.24651336669922 156.79974365234375,107.09383392333984 156.8186492919922,104.74910736083984 L156.08151245117188,101.24584579467773 L153.17822265625,98.87542343139648 C155.4230728149414,100.21371078491211 156.83837127685547,102.25275039672852 156.8185043334961,104.74910736083984 C159.4878158569336,104.77571105957031 161.7552947998047,102.59889602661133 162.77261352539062,100.10068893432617 C163.7899398803711,97.60233306884766 163.40521240234375,94.75414276123047 161.7627410888672,92.61485290527344 C162.44396209716797,91.02191543579102 162.403564453125,89.20984649658203 161.65171813964844,87.64935684204102 C160.89972686767578,86.08855438232422 159.51303100585938,84.92864227294922 157.84485626220703,84.47332000732422 C157.4716033935547,82.4049186706543 155.932861328125,80.74109268188477 153.89935302734375,80.19596481323242 C151.86585235595703,79.65053176879883 149.7006607055664,80.32298278808594 148.33916473388672,81.92622375488281 L147.51234436035156,83.25374984741211 C147.72352600097656,82.77351379394531 147.9996795654297,82.32633972167969 148.33916473388672,81.92622375488281 C147.3795166015625,80.66620635986328 145.87421417236328,79.95500183105469 144.30509185791016,80.00221252441406 L144.30509185791016,80.00221252441406 z" id="" stroke="#000000" shapeType="cloud" fill="#000" fill-opacity="0" stroke-width="0" cursor="move"/></clipPath><filter id="svg_68" type="dusk" color-interpolation-filters="sRGB"><feColorMatrix type="matrix" values="1.0 0   0   0   0            0   0.2 0   0   0             0   0   0.2 0   0             0   0   0   1.0 0 "/></filter></defs></svg>