<?xml version="1.0"?>
<svg xmlns="http://www.w3.org/2000/svg" width="202" height="155"><g><title>Layer 1</title><g clip-id="910" display="null" id="svg_4"><path id="svg_5" d="m102.04511,80.44873c-0.54344,1.28893 -1.18182,2.54824 -1.61031,3.87549c-0.8169,2.53084 -1.47791,5.11131 -2.26868,7.65084c-1.7984,5.77929 -3.97565,11.41225 -7.51064,16.36941c-1.80015,2.52562 -4.26479,4.39369 -7.36605,5.19492c-1.91511,0.49467 -3.50276,-0.55652 -4.54523,-1.78447c-1.42741,-1.68257 -2.57089,-3.70219 -3.43744,-5.74532c-2.5108,-5.92297 -3.8572,-12.1499 -4.48947,-18.55624c-0.46419,-4.69588 0.67668,-7.09521 4.76469,-9.50759c2.08666,-1.23145 4.08974,-2.60573 6.10065,-3.95997c0.33616,-0.22644 0.51904,-0.68018 0.92315,-1.23408c-2.75205,-0.23862 -5.34645,-0.33442 -7.8947,-0.72982c-1.79493,-0.2778 -3.81802,-0.56259 -5.20536,-1.57632c-1.39431,-1.01808 -2.5169,-2.81561 -3.06382,-4.49645c-0.95625,-2.93928 -1.6669,-6.024 -1.94385,-9.09653c-0.26911,-2.98544 -1.62075,-5.45531 -2.83913,-8.00008c-1.61204,-3.36428 -0.36404,-9.48148 2.8914,-11.06651c1.46572,-0.71414 3.7048,-0.62617 5.32119,-0.08709c3.86938,1.2898 7.73183,2.77729 11.31645,4.7072c5.4074,2.91316 10.62844,6.16509 13.88821,11.7432c2.38104,4.07493 4.99722,8.01314 7.4427,11.90779c0.43198,-0.70021 0.43198,-0.70021 -0.36229,-6.04926c0.5748,1.01286 0.93185,1.7235 1.3673,2.38103c0.31267,0.47289 0.7307,0.87613 1.10169,1.3107c0.39887,-0.39886 0.81255,-0.78467 1.19138,-1.2027c0.18377,-0.20205 0.30308,-0.46333 0.40933,-0.63227c0,1.73221 0,3.45398 0,5.17574c0.1315,0.01219 0.26214,0.02438 0.39278,0.03659c0.74984,-1.40564 1.53191,-2.79559 2.2443,-4.21951c2.65275,-5.30291 5.78799,-10.29751 10.14423,-14.35328c1.90204,-1.77054 4.12196,-3.33729 6.44986,-4.486c4.77776,-2.35752 9.66089,-4.53564 14.62764,-6.45946c2.84955,-1.1043 6.46031,-0.2186 7.50017,4.01833c0.96669,3.94082 0.39973,7.19798 -1.61031,10.67286c-1.08167,1.86896 -0.82822,4.47032 -1.40562,6.68153c-0.87003,3.33032 -1.71567,6.69895 -2.99414,9.8821c-1.05728,2.63447 -3.99394,2.66494 -6.29834,3.13784c-2.71983,0.55825 -5.55634,0.54693 -8.78041,1.24626c0.48598,0.33443 0.97542,0.66274 1.45529,1.00327c2.84782,2.01962 5.80104,3.91033 8.50343,6.10848c2.03181,1.65208 3.12392,3.79276 2.13895,6.66586c-0.52603,1.53364 -0.25693,3.32334 -0.65929,4.91795c-1.25497,4.9711 -2.43153,9.98311 -4.10365,14.81834c-0.80038,2.31311 -1.96738,4.75163 -4.45815,6.05972c-1.75226,0.9214 -5.7462,0.45897 -7.3887,-0.9937c-3.43919,-3.04205 -5.6382,-6.90102 -7.54112,-11.02122c-2.50383,-5.41959 -4.04967,-11.13007 -5.62512,-16.8484c-0.32746,-1.18964 -1.01808,-2.27826 -1.97086,-3.4653c-0.06269,1.88723 -0.04093,3.78144 -0.21771,5.65823c-0.12105,1.27412 -0.32485,2.61268 -0.84826,3.7588c-0.5896,1.28806 -1.86721,1.22274 -2.30091,-0.14719c-0.51907,-1.64338 -0.68626,-3.41568 -0.85348,-5.14702c-0.12976,-1.34292 -0.02613,-2.70762 -0.02613,-4.06361c-0.18551,-0.01742 -0.37014,-0.0357 -0.55563,-0.05312z" fill-rule="evenodd"></path></g></g></svg>
