<svg xmlns="http://www.w3.org/2000/svg" width="255" height="168" x="0" y="0" id="svgcontent" viewBox="0 0 255 168" overflow="hidden"><defs/><g mask="" style="pointer-events:all"><title style="pointer-events:inherit">Layer 1</title><g id="svg_10" display="null" clip-id="611" style="pointer-events:inherit"><path id="svg_9" fill="#B00B00" stroke="#000000" stroke-width="0" d="M139.76859,113.33858C137.48669,107.43626 127.99927,100.91787 123.90738,99.10786C119.81546,97.29746 110.24223,95.4772 107.74264,85.87397C105.24306,76.27074 109.31155,73.59826 112.2662,71.91721S117.2506,69.57494 121.45584,70.63004C125.66112,71.68475 127.51587,76.82807 127.51587,76.82807S124.7789,70.3557 127.90729,67.00183C131.03566,63.64756 134.1546,61.64412 138.41817,62.05113C142.68176,62.45815 147.32568,66.5135 147.97624,74.02457C148.6268,81.53604 143.75127,91.65555 142.1922,94.58801C140.63313,97.5209 138.97963,109.7925 139.75708,113.34926" style="pointer-events:inherit"/><path id="svg_8" fill="#FF6257" d="M116.33757,72.83637C115.61596,71.72417 112.25143,72.68401 109.67463,75.81486C108.22195,77.86266 107.95827,81.05264 108.93536,81.26415C110.09479,81.5151 110.15762,79.1223 111.98815,77.12666C113.73286,75.22467 116.83618,74.91909 116.33757,72.83637z" stroke-width="0" style="pointer-events:inherit"/><path id="svg_7" fill="none" stroke="#000000" stroke-width="1.0832" d="M139.78052,113.21331C139.78052,113.21331 143.36682,124.9966 135.51074,133.70612C127.6555,142.41563 140.1218,157.44394 140.1218,157.44394" style="pointer-events:inherit"/></g><g display="null" clip-id="611" id="svg_11" style="pointer-events:inherit"><path fill="#B00B00" stroke="#000000" stroke-width="0" d="M53.26859,71.33858C50.98669,65.43626 41.49927,58.91787 37.40738,57.10786C33.31546,55.29746 23.74223,53.4772 21.24264,43.87397C18.74306,34.27074 22.81155,31.59826 25.7662,29.91721S30.7506,27.57494 34.95584,28.63004C39.16112,29.68475 41.01587,34.82807 41.01587,34.82807S38.2789,28.3557 41.40729,25.00183C44.53566,21.64756 47.6546,19.64412 51.91817,20.05113C56.18176,20.45815 60.82568,24.5135 61.47624,32.02457C62.1268,39.53604 57.25127,49.65555 55.6922,52.58801C54.13313,55.5209 52.47963,67.7925 53.25708,71.34926" id="svg_12" style="pointer-events:inherit"/><path fill="#FF6257" d="M29.83757,30.83637C29.11596,29.72417 25.75143,30.68401 23.17463,33.81486C21.72195,35.86266 21.45827,39.05264 22.43536,39.26415C23.59479,39.5151 23.65762,37.1223 25.48815,35.12666C27.23286,33.22467 30.33618,32.91909 29.83757,30.83637z" stroke-width="0" id="svg_13" style="pointer-events:inherit"/><path fill="none" stroke="#000000" stroke-width="1.0832" d="M53.28052,71.21331C53.28052,71.21331 56.86682,82.9966 49.01074,91.70612C41.1555,100.41563 53.6218,115.44394 53.6218,115.44394" id="svg_14" style="pointer-events:inherit"/></g><g display="null" clip-id="611" id="svg_15" style="pointer-events:inherit"><path fill="#B00B00" stroke="#000000" stroke-width="0" d="M220.26859,71.33858C217.98669,65.43626 208.49927,58.91787 204.40738,57.10786C200.31546,55.29746 190.74222,53.4772 188.24265,43.87397C185.74307,34.27074 189.81155,31.59826 192.7662,29.91721S197.7506,27.57494 201.95584,28.63004C206.16112,29.68475 208.01587,34.82807 208.01587,34.82807S205.2789,28.3557 208.40729,25.00183C211.53566,21.64756 214.6546,19.64412 218.91817,20.05113C223.18176,20.45815 227.82568,24.5135 228.47624,32.02457C229.1268,39.53604 224.25127,49.65555 222.6922,52.58801C221.13313,55.5209 219.47963,67.7925 220.25708,71.34926" id="svg_16" style="pointer-events:inherit"/><path fill="#FF6257" d="M196.83757,30.83637C196.11597,29.72417 192.75143,30.68401 190.17462,33.81486C188.72195,35.86266 188.45827,39.05264 189.43536,39.26415C190.59479,39.5151 190.65762,37.1223 192.48816,35.12666C194.23285,33.22467 197.33618,32.91909 196.83757,30.83637z" stroke-width="0" id="svg_17" style="pointer-events:inherit"/><path fill="none" stroke="#000000" stroke-width="1.0832" d="M220.28052,71.21331C220.28052,71.21331 223.86682,82.9966 216.01074,91.70612C208.1555,100.41563 220.6218,115.44394 220.6218,115.44394" id="svg_18" style="pointer-events:inherit"/></g></g></svg>