<svg xmlns="http://www.w3.org/2000/svg" width="401" height="220" x="0" y="0" id="svgcontent" overflow="hidden" viewBox="0 0 401 220"><g style="pointer-events:all" mask="url(#canvasMaskImageDef)"><title style="pointer-events:inherit">Layer 1</title><g id="svg_1" type="text" text="Your Text Here" font-size="16.319387164534763" font-family="Brush-Script" font-id="1" fill="000000" text-anchor="start" font-weight="normal" font-style="normal" lineHeight="1" shapeId="0" shapeVal="0" style="pointer-events:inherit" fill-opacity="1" display="null" elemBBoxWidth="147.4320068359375" transform="rotate(-16.6992 200.5 110)"><path id="svg_2" fill="#000000" d="M151.82742830086397,107.1930673716108 C151.45208241177247,107.37258062291542 150.668751860625,108.18854994702737 150.3750029039447,107.47049694180886 C150.65243247414276,106.52397252583901 150.7503487930362,105.49585117745798 151.5499987306659,105.05522774243752 C151.5499987306659,105.05522774243752 153.54096388149904,103.96182884812752 153.54096388149904,103.96182884812752 C154.84651480007813,103.37433093476693 156.20102387810397,102.54204222417275 157.93087884522126,102.4767646782438 C159.00795835304902,102.42780651879708 159.28538792324707,103.42328909421366 158.68157062340424,104.2882165777723 C157.6534492750232,105.77328074765603 155.4666514864032,108.38438258481423 154.4058913650577,109.85312736821572 C154.25901688671752,110.06527939248483 154.17741995430634,110.21215387082498 154.17741995430634,110.32638957620065 C154.17741995430634,110.4732640545408 154.27533627319977,110.57118037343423 154.42221075153992,110.57118037343423 C155.58088719177888,110.22847325730721 157.04963197518038,108.84132540631691 158.01247577763246,107.94375914979379 C158.01247577763246,107.94375914979379 161.2763530740802,104.92467265057962 161.2763530740802,104.92467265057962 C161.945447919852,104.45141044259469 162.64718153858826,105.56112872338693 162.20655810356783,106.16494602322976 C162.20655810356783,106.16494602322976 159.3343460826938,110.06527939248483 159.3343460826938,110.06527939248483 C158.76316755581544,110.94652626252572 157.571852342612,112.44790981889169 157.29442277241395,113.32915668893258 C157.39233909130738,113.62290564561289 157.571852342612,113.3781148483793 157.89824007225678,113.21492098355691 C158.76316755581544,112.75797816205423 159.53017872048065,112.02360577035348 160.67253577423736,111.90937006497781 C161.1784367551868,111.8604119055311 161.08052043629334,112.30103534055155 160.75413270664856,112.56214552426735 C160.75413270664856,112.56214552426735 158.14303086949036,114.65102699399392 158.14303086949036,114.65102699399392 C158.14303086949036,114.65102699399392 155.45033209992096,117.21317067170541 155.45033209992096,117.21317067170541 C154.97706989193603,117.67011349320809 153.96526793003724,117.45796146893899 154.06318424893067,116.70726969075601 C154.29165565968202,114.94477595067423 155.77671982956576,112.97013018632333 156.78852179146455,111.59930172181527 C156.78852179146455,111.59930172181527 159.2527491502826,108.25382749295633 159.2527491502826,108.25382749295633 C159.2527491502826,108.25382749295633 154.63436277580902,112.25207718110482 154.63436277580902,112.25207718110482 C154.01422608948394,112.66006184316079 153.3940894031589,113.28019852948586 152.59443946552918,113.31283730245033 C152.1374966440265,113.23124037003916 151.6315956630771,112.7906169350187 151.6315956630771,112.26839656758706 C152.54548130608248,109.6246559574644 154.97706989193603,107.51945510125557 156.5110922212665,105.41425424504678 C156.70692485905334,105.13682467484873 156.7722024049823,104.89203387761515 156.49477283478424,104.77779817223947 C155.07498621082948,105.43057363152901 153.2798536977832,106.49133375287454 151.82742830086397,107.1930673716108 C151.82742830086397,107.1930673716108 151.82742830086397,107.1930673716108 151.82742830086397,107.1930673716108 M168.58743821812317,111.06076196790139 C168.58743821812317,111.06076196790139 168.5547994451587,111.76249558663767 168.5547994451587,111.76249558663767 C167.83674643994019,112.25207718110482 167.29820668602633,112.64374245667855 166.18848840523407,112.51318736482065 C165.4867547864978,113.14964343762796 164.94821503258393,113.70450257802408 163.78953859234497,113.70450257802408 C161.63537957668945,113.70450257802408 161.71697650910068,110.19583448434274 163.038846814162,109.11875497651498 C163.98537123013185,108.35174381184976 164.96453441906618,107.61737142014901 166.54751490784332,107.53577448773783 C166.97181895638153,107.51945510125557 167.41244239140198,107.73160712552468 167.42876177788423,108.10695301461618 C167.42876177788423,108.35174381184976 167.23292914009735,108.44966013074318 167.05341588879273,108.54757644963662 C167.49403932381318,108.71077031445901 167.62459441567108,108.8739641792814 167.62459441567108,109.461462092642 C167.62459441567108,110.3100701897184 167.2492485265796,110.89756810307901 166.84126386452363,111.61562110829752 C167.6735525751178,111.68089865422647 168.0162596912448,111.40346908402842 168.58743821812317,111.06076196790139 C168.58743821812317,111.06076196790139 168.58743821812317,111.06076196790139 168.58743821812317,111.06076196790139 M165.17668644333526,111.89305067849557 C164.7197436218326,110.86492933011453 165.2746027622287,110.16319571137825 165.7315455837314,109.26562945485513 C164.73606300831483,109.91840491414467 163.26731822491334,110.3916671221296 163.26731822491334,111.95832822442452 C163.26731822491334,112.90485264039438 164.86661810017273,112.30103534055155 165.17668644333526,111.89305067849557 C165.17668644333526,111.89305067849557 165.17668644333526,111.89305067849557 165.17668644333526,111.89305067849557 M176.50234066200898,111.07708135438364 C176.50234066200898,111.30555276513498 176.45338250256225,111.55034356236855 176.48602127552675,111.76249558663767 C176.48602127552675,111.76249558663767 174.80512446785616,113.14964343762796 174.80512446785616,113.14964343762796 C174.2829041004245,113.52498932671945 173.71172557354615,113.96561276173989 172.9283950223987,113.99825153470437 C172.24298079014466,114.03089030766884 171.85131551457093,113.18228221059243 172.0961063118045,112.43159043240945 C172.0961063118045,112.43159043240945 172.37353588200256,111.58298233533304 172.37353588200256,111.58298233533304 C171.57388594437288,112.2847159540693 171.035346190459,113.55762809968392 169.72979527187988,113.55762809968392 C168.505841285712,113.55762809968392 168.3426474208896,111.61562110829752 168.7669514694278,110.50590282750528 C169.10965858555483,109.60833657098215 169.76243404484435,108.84132540631691 170.4968064365451,108.28646626592081 C170.80687477970764,108.05799485516945 171.14958189583467,107.94375914979379 171.50860839844393,107.94375914979379 C172.11242569828676,107.92743976331155 172.63464606571839,108.13959178758066 172.22666140366243,108.67813154149454 C171.60652471733735,109.51042025208871 170.64368091488527,110.11423755193155 169.94194729614898,110.84860994363228 C169.76243404484435,111.04444258141916 169.55028202057525,111.76249558663767 169.87666975022003,111.9420088379423 C171.14958189583467,111.53402417588632 172.03082876587555,110.4732640545408 172.99367256832764,109.68993350339333 C173.7280449600284,109.0861162035505 174.82144385433838,107.7805652849714 175.6700519514148,107.51945510125557 C176.01275906754182,107.55209387422005 176.07803661347077,107.97639792275827 176.07803661347077,108.43334074426096 C175.62109379196806,109.72257227635782 173.89123882485077,110.2611120302717 173.7280449600284,111.87673129201333 C173.95651637077972,112.88853325391213 175.2947060623233,111.97464761090677 175.7026907243793,111.66457926774423 C175.7026907243793,111.66457926774423 176.50234066200898,111.07708135438364 176.50234066200898,111.07708135438364 M182.85058200359987,111.06076196790139 C182.85058200359987,111.06076196790139 182.83426261711764,111.76249558663767 182.83426261711764,111.76249558663767 C182.83426261711764,111.76249558663767 181.36551783371613,112.9538107998411 181.36551783371613,112.9538107998411 C180.89225562573122,113.28019852948586 180.35371587181734,113.72082196450631 179.63566286659884,113.72082196450631 C178.47698642635987,113.72082196450631 178.31379256153747,112.1541608622114 178.91760986138033,111.28923337865274 C179.29295575047183,110.75069362473886 179.6519822530811,110.21215387082498 180.09260568810151,109.73889166284005 C180.09260568810151,109.73889166284005 178.26483440209077,110.11423755193155 178.26483440209077,110.11423755193155 C178.26483440209077,110.11423755193155 177.44886507797884,110.94652626252572 177.44886507797884,110.94652626252572 C177.17143550778076,111.24027521920601 176.79608961868928,111.51770478940408 176.4697018890445,111.77881497311989 C176.48602127552675,111.53402417588632 176.45338250256228,111.2729139921705 176.50234066200898,111.06076196790139 C176.82872839165375,110.78333239770333 177.1387967348163,110.53854160046976 177.41622630501436,110.21215387082498 C176.79608961868928,110.19583448434274 177.02456102944063,109.36354577374857 177.22039366722748,109.03715804410379 C177.62837832928346,108.33542442536752 178.16691808319734,107.63369080663125 179.031845566756,107.40521939587991 C179.374552682883,107.42153878236215 179.42351084232973,107.84584283090035 179.2439975910251,108.1232724010984 C179.2439975910251,108.1232724010984 181.4797535390918,107.82952344441811 181.4797535390918,107.82952344441811 C181.95301574707673,107.82952344441811 182.3610004091327,108.62917338204781 182.09989022541689,109.11875497651498 C181.62662801743195,110.03264061952035 180.37003525829957,110.40798650861184 180.27211893940614,111.66457926774423 C180.43531280422854,112.66006184316079 181.82246065521883,111.76249558663767 182.1978065443103,111.50138540292184 C182.1978065443103,111.50138540292184 182.85058200359987,111.06076196790139 182.85058200359987,111.06076196790139 M192.93596284962342,114.01457092118662 C192.51165880108522,114.48783312917153 191.3693017473285,114.2593617184202 191.4998568391864,113.57394748616616 C192.00575782013584,110.94652626252572 193.9804035844867,108.97188049817484 195.4491483678882,107.11147043919962 C195.4491483678882,107.11147043919962 197.19532272148774,104.89203387761515 197.19532272148774,104.89203387761515 C196.39567278385806,104.94099203706185 195.6123422327106,104.98995019650857 194.8942892274921,105.05522774243752 C192.7564495983188,105.23474099374215 190.89603953934358,105.64272565579813 189.0519488668506,106.16494602322976 C189.5088916883533,106.26286234212319 190.17798653412507,106.29550111508767 190.34118039894747,106.67084700417917 C189.98215389633822,107.07883166623513 189.06826825333286,106.62188884473244 188.2522989292209,106.75244393659037 C186.93042862415956,106.94827657437722 187.5342459240024,105.77328074765603 187.66480101586032,104.92467265057962 C187.77903672123597,104.20661964536112 187.9095918130939,103.96182884812752 188.59500604534793,103.63544111848276 C190.66756812859225,102.63995854306619 193.96408419800449,102.32989019990364 196.8362962188785,102.60731977010171 C198.19080529690433,102.73787486195963 198.20712468338655,103.58648295903603 198.54983179951358,104.58196553445259 C198.38663793469118,105.5937674963514 197.5869879970615,106.31182050156991 197.06476762962984,107.07883166623513 C197.06476762962984,107.07883166623513 195.38387082195925,109.52673963857094 195.38387082195925,109.52673963857094 C195.38387082195925,109.52673963857094 194.09463928986239,111.63194049477974 194.09463928986239,111.63194049477974 C194.29047192764926,111.55034356236855 194.53526272488284,111.64825988126199 194.48630456543611,111.8604119055311 C194.33943008709596,112.59478429723184 193.49082199001955,113.3781148483793 192.93596284962342,114.01457092118662 C192.93596284962342,114.01457092118662 192.93596284962342,114.01457092118662 192.93596284962342,114.01457092118662 M203.08662124157593,111.06076196790139 C203.08662124157593,111.06076196790139 203.05398246861145,111.74617620015542 203.05398246861145,111.74617620015542 C201.89530602837252,112.5784649107496 200.8835040664737,113.80241889691752 199.05573278046296,113.80241889691752 C197.78282063484835,113.80241889691752 197.2606002674167,113.05172711873453 197.19532272148774,111.76249558663767 C197.08108701611206,109.49410086560647 199.48003682900116,107.45417755532662 201.66683461762116,107.45417755532662 C202.23801314449952,107.45417755532662 202.67863657951995,107.68264896607798 202.67863657951995,108.2048693335096 C202.67863657951995,110.0979181654493 200.34496431255982,110.62013853288094 198.79462259674713,111.22395583272379 C198.63142873192476,111.97464761090677 199.05573278046296,112.44790981889169 199.7901051721637,112.43159043240945 C201.17725302315398,112.41527104592721 202.17273559857057,111.63194049477974 203.08662124157593,111.06076196790139 C203.08662124157593,111.06076196790139 203.08662124157593,111.06076196790139 203.08662124157593,111.06076196790139 M201.32412750149416,108.59653460908333 C201.3078081150119,108.28646626592081 200.9324622259204,108.41702135777871 200.70399081516908,108.51493767667215 C199.93697965050384,108.8739641792814 199.3168429641788,109.6246559574644 198.95781646156954,110.42430589509408 C199.77378578568147,110.11423755193155 200.57343572331115,109.60833657098215 201.0956560907428,109.05347743058603 C201.24253056908296,108.8739641792814 201.32412750149416,108.72708970094125 201.32412750149416,108.59653460908333 C201.32412750149416,108.59653460908333 201.32412750149416,108.59653460908333 201.32412750149416,108.59653460908333 M204.26161706829714,112.7090200026075 C203.88627117920564,113.0027689592878 203.16821817398713,113.94929337525765 202.76023351193118,113.26387914300363 C203.05398246861148,112.74165877557198 203.44564774418518,111.95832822442452 204.18002013588594,111.81145374608437 C204.18002013588594,111.81145374608437 205.01230884648012,111.04444258141916 205.01230884648012,111.04444258141916 C205.01230884648012,111.04444258141916 205.01230884648012,109.11875497651498 205.01230884648012,109.11875497651498 C204.60432418442414,109.37986516023079 204.0331456575458,109.77153043580452 203.51092529011416,109.90208552766245 C203.18453756046938,109.73889166284005 203.34773142529178,109.52673963857094 203.64148038197206,109.23299068189064 C204.31057522774387,108.59653460908333 205.28973841667818,107.6989683525602 206.1709852867191,107.32362246346872 C206.49737301636384,107.32362246346872 206.5626505622928,107.65001019311349 206.54633117581056,107.96007853627603 C206.54633117581056,107.96007853627603 206.48105362988161,109.60833657098215 206.48105362988161,109.60833657098215 C206.48105362988161,109.60833657098215 208.2925055294101,107.96007853627603 208.2925055294101,107.96007853627603 C208.48833816719699,107.81320405793588 208.9942391481464,107.60105203366678 209.01055853462861,108.02535608220498 C208.831045283324,108.79236724687021 208.4556993942325,109.461462092642 207.55813313770938,109.52673963857094 C207.55813313770938,109.52673963857094 206.4320954704349,110.62013853288094 206.4320954704349,110.62013853288094 C206.38313731098816,111.2729139921705 206.301540378577,112.1541608622114 206.95431583786655,112.1541608622114 C207.83556270790743,112.1541608622114 208.35778307533906,111.46874662995737 208.92896160221744,111.06076196790139 C208.92896160221744,111.28923337865274 208.88000344277071,111.53402417588632 208.9126422157352,111.74617620015542 C208.9126422157352,111.74617620015542 206.66056688118624,113.55762809968392 206.66056688118624,113.55762809968392 C206.41577608395266,113.70450257802408 206.12202712727236,113.85137705636421 205.7630006246631,113.86769644284647 C204.8817537546222,113.8840158293287 204.99598945999787,112.8722138674299 205.01230884648012,111.95832822442452 C205.01230884648012,111.95832822442452 204.26161706829714,112.7090200026075 204.26161706829714,112.7090200026075 M214.3959560737674,111.06076196790139 C214.36331730080292,111.2729139921705 214.36331730080292,111.50138540292184 214.36331730080292,111.74617620015542 C213.10672454167053,112.61110368371408 212.17651951218292,114.07984846711557 210.29979006672545,114.07984846711557 C208.68417080498384,114.07984846711557 209.43486258316682,111.81145374608437 209.98972172356292,110.93020687604348 C209.98972172356292,110.93020687604348 208.91264221573516,111.76249558663767 208.91264221573516,111.76249558663767 C208.9289616022174,111.53402417588632 208.89632282925294,111.25659460568826 208.94528098869966,111.06076196790139 C208.94528098869966,111.06076196790139 209.74493092632935,110.44062528157632 209.74493092632935,110.44062528157632 C210.34874822617218,109.95104368710915 210.77305227471038,109.461462092642 211.1973563232486,108.80868663335245 C210.59353902340575,108.77604786038796 210.20187374783205,108.79236724687021 209.64701460743592,108.92292233872811 C210.33242883968995,107.89480099034708 210.72409411526368,106.83404086900156 212.56818478775665,106.91563780141274 C213.139363314635,106.21390418267649 213.25359902001068,105.47953179097573 214.33067852783844,105.47953179097573 C215.4077580356662,105.47953179097573 214.46123361969637,106.4750143663923 214.23276220894502,106.83404086900156 C214.59178871155427,106.85036025548379 214.88553766823458,106.88299902844827 215.21192539787933,106.931957187895 C214.80394073582337,107.53577448773783 214.57546932507205,108.44966013074318 213.890055092818,108.74340908742349 C213.6452642955844,108.84132540631691 213.20464086056398,108.8739641792814 212.56818478775665,108.8739641792814 C211.88277055550265,109.80416920876901 211.05048184490846,110.75069362473886 211.05048184490846,111.87673129201333 C211.05048184490846,113.36179546189706 212.86193374443695,112.12152208924692 213.3841541118686,111.76249558663767 C213.3841541118686,111.76249558663767 214.3959560737674,111.06076196790139 214.3959560737674,111.06076196790139 M230.73166194248842,110.94652626252572 C230.16048341561006,110.79965178418557 229.68722120762516,110.83229055715006 229.09972329426455,110.81597117066781 C228.5775029268329,111.43610785699289 227.95736624050784,112.34999349999825 228.41430906201052,113.44339239430826 C228.41430906201052,113.44339239430826 226.70077348137545,113.96561276173989 226.70077348137545,113.96561276173989 C225.6400133600299,113.24755975652138 227.0271612110202,111.61562110829752 227.3209101677005,110.83229055715006 C226.27646943283725,110.93020687604348 225.31362563038516,110.9791650354902 224.3671012144153,111.22395583272379 C223.61640943623232,111.97464761090677 222.78412072563816,112.9211720268766 222.21294219875978,113.80241889691752 C221.87023508263275,114.34095865083138 220.97266882610964,113.98193214822214 220.9563494396274,113.39443423486154 C221.18482085037874,112.64374245667855 221.91919324207947,111.97464761090677 222.32717790413545,111.40346908402842 C221.57648612595247,111.46874662995737 220.66260048294708,111.4850660164396 220.7115586423938,110.71805485177438 C220.74419741535831,110.13055693841378 221.15218207741427,109.77153043580452 221.543847352988,109.5430590250532 C222.5230105419223,109.80416920876901 223.63272882271457,109.15139374947947 224.62821139813113,109.05347743058603 C224.62821139813113,109.05347743058603 226.2111918869083,107.43785816884439 226.2111918869083,107.43785816884439 C226.2111918869083,107.43785816884439 227.84313053513216,105.61008688283364 227.84313053513216,105.61008688283364 C228.20215703774142,105.18578283429544 228.47958660793947,104.97363081002634 228.56118354035067,104.5003686020414 C228.54486415386845,104.23925841832559 228.33271212959932,104.20661964536112 228.00632439995456,104.20661964536112 C225.77056845188784,104.20661964536112 224.08967164421725,105.13682467484873 222.44141360951113,105.83855829358498 C222.75148195267366,105.92015522599618 222.73516256619143,106.24654295564096 222.40877483654663,106.37709804749886 C221.47856980705905,106.71980516362588 220.6136423235004,107.17674798512857 219.76503422642398,107.60105203366678 C218.9817036752765,107.9927173092405 218.80219042397187,106.98091534734169 219.03066183472322,106.24654295564096 C219.4060077238147,105.03890835595529 220.0261444101398,104.69620123982827 221.1195433044498,104.27189719129007 C223.29002170658754,103.42328909421366 225.5910552005832,102.60731977010171 228.33271212959932,102.50940345120827 C229.52402734280275,102.46044529176156 230.4215935993259,103.17849829698007 230.11152525616336,104.45141044259469 C229.68722120762516,106.19758479619423 227.7778529892032,107.33994184995095 226.6844540948932,108.67813154149454 C226.6844540948932,108.67813154149454 229.1650008401935,108.40070197129647 229.1650008401935,108.40070197129647 C229.1650008401935,108.40070197129647 232.23304549885438,104.58196553445259 232.23304549885438,104.58196553445259 C232.7063077068393,104.05974516702096 232.820543412215,103.76599621034066 233.29380562019992,103.58648295903603 C233.60387396336245,103.60280234551828 233.6691515092914,104.12502271294991 233.5385964174335,104.43509105611246 C232.93477911759067,105.85487768006723 231.41707617474245,107.09515105271737 230.48687114525484,108.38438258481423 C231.5313118801181,108.40070197129647 232.06985163403198,108.43334074426096 232.6899883203571,108.79236724687021 C232.6899883203571,108.79236724687021 231.58027003956482,109.78784982228677 231.58027003956482,109.78784982228677 C231.25388230992007,110.13055693841378 231.0090915126865,110.554860986952 230.73166194248842,110.94652626252572 C230.73166194248842,110.94652626252572 230.73166194248842,110.94652626252572 230.73166194248842,110.94652626252572 M238.40177358914065,111.06076196790139 C238.40177358914065,111.06076196790139 238.36913481617617,111.74617620015542 238.36913481617617,111.74617620015542 C237.2104583759372,112.5784649107496 236.1986564140384,113.80241889691752 234.37088512802768,113.80241889691752 C233.09797298241304,113.80241889691752 232.5757526149814,113.05172711873453 232.51047506905246,111.76249558663767 C232.39623936367678,109.49410086560647 234.79518917656586,107.45417755532662 236.98198696518585,107.45417755532662 C237.55316549206424,107.45417755532662 237.99378892708467,107.68264896607798 237.99378892708467,108.2048693335096 C237.99378892708467,110.0979181654493 235.66011666012452,110.62013853288094 234.10977494431182,111.22395583272379 C233.94658107948945,111.97464761090677 234.37088512802768,112.44790981889169 235.1052575197284,112.43159043240945 C236.4924053707187,112.41527104592721 237.48788794613526,111.63194049477974 238.40177358914065,111.06076196790139 C238.40177358914065,111.06076196790139 238.40177358914065,111.06076196790139 238.40177358914065,111.06076196790139 M236.63927984905885,108.59653460908333 C236.6229604625766,108.28646626592081 236.24761457348512,108.41702135777871 236.01914316273377,108.51493767667215 C235.25213199806856,108.8739641792814 234.63199531174348,109.6246559574644 234.27296880913423,110.42430589509408 C235.0889381332462,110.11423755193155 235.88858807087587,109.60833657098215 236.4108084383075,109.05347743058603 C236.55768291664765,108.8739641792814 236.63927984905885,108.72708970094125 236.63927984905885,108.59653460908333 C236.63927984905885,108.59653460908333 236.63927984905885,108.59653460908333 236.63927984905885,108.59653460908333 M244.75001493073148,111.06076196790139 C244.75001493073148,111.06076196790139 244.73369554424926,111.76249558663767 244.73369554424926,111.76249558663767 C244.73369554424926,111.76249558663767 243.26495076084777,112.9538107998411 243.26495076084777,112.9538107998411 C242.79168855286287,113.28019852948586 242.25314879894898,113.72082196450631 241.53509579373048,113.72082196450631 C240.3764193534915,113.72082196450631 240.21322548866914,112.1541608622114 240.81704278851197,111.28923337865274 C241.19238867760345,110.75069362473886 241.5514151802127,110.21215387082498 241.99203861523316,109.73889166284005 C241.99203861523316,109.73889166284005 240.1642673292224,110.11423755193155 240.1642673292224,110.11423755193155 C240.1642673292224,110.11423755193155 239.34829800511048,110.94652626252572 239.34829800511048,110.94652626252572 C239.07086843491243,111.24027521920601 238.69552254582092,111.51770478940408 238.36913481617614,111.77881497311989 C238.3854542026584,111.53402417588632 238.35281542969392,111.2729139921705 238.40177358914065,111.06076196790139 C238.7281613187854,110.78333239770333 239.03822966194795,110.53854160046976 239.315659232146,110.21215387082498 C238.69552254582092,110.19583448434274 238.92399395657228,109.36354577374857 239.11982659435915,109.03715804410379 C239.5278112564151,108.33542442536752 240.066351010329,107.63369080663125 240.93127849388765,107.40521939587991 C241.27398561001465,107.42153878236215 241.32294376946135,107.84584283090035 241.14343051815675,108.1232724010984 C241.14343051815675,108.1232724010984 243.37918646622344,107.82952344441811 243.37918646622344,107.82952344441811 C243.85244867420838,107.82952344441811 244.26043333626433,108.62917338204781 243.99932315254853,109.11875497651498 C243.5260609445636,110.03264061952035 242.2694681854312,110.40798650861184 242.1715518665378,111.66457926774423 C242.33474573136016,112.66006184316079 243.72189358235045,111.76249558663767 244.09723947144198,111.50138540292184 C244.09723947144198,111.50138540292184 244.75001493073148,111.06076196790139 244.75001493073148,111.06076196790139 M250.62499406433747,111.06076196790139 C250.62499406433747,111.06076196790139 250.592355291373,111.74617620015542 250.592355291373,111.74617620015542 C249.43367885113406,112.5784649107496 248.42187688923525,113.80241889691752 246.59410560322448,113.80241889691752 C245.32119345760987,113.80241889691752 244.79897309017824,113.05172711873453 244.73369554424926,111.76249558663767 C244.6194598388736,109.49410086560647 247.01840965176268,107.45417755532662 249.2052074403827,107.45417755532662 C249.77638596726104,107.45417755532662 250.21700940228152,107.68264896607798 250.21700940228152,108.2048693335096 C250.21700940228152,110.0979181654493 247.88333713532137,110.62013853288094 246.33299541950868,111.22395583272379 C246.16980155468627,111.97464761090677 246.59410560322448,112.44790981889169 247.32847799492527,112.43159043240945 C248.71562584591555,112.41527104592721 249.71110842133209,111.63194049477974 250.62499406433747,111.06076196790139 C250.62499406433747,111.06076196790139 250.62499406433747,111.06076196790139 250.62499406433747,111.06076196790139 M248.86250032425568,108.59653460908333 C248.84618093777345,108.28646626592081 248.47083504868198,108.41702135777871 248.24236363793062,108.51493767667215 C247.4753524732654,108.8739641792814 246.85521578694033,109.6246559574644 246.49618928433108,110.42430589509408 C247.31215860844299,110.11423755193155 248.1118085460727,109.60833657098215 248.63402891350432,109.05347743058603 C248.7809033918445,108.8739641792814 248.86250032425568,108.72708970094125 248.86250032425568,108.59653460908333 C248.86250032425568,108.59653460908333 248.86250032425568,108.59653460908333 248.86250032425568,108.59653460908333 " style="pointer-events:inherit" transform=""/><rect id="svg_3" x="150.3750029039447" y="102.4750280580523" width="100.24999116039277" height="14.977662896296934" fill="#000000" opacity="0" style="pointer-events:inherit"/></g></g><defs><mask id="canvasMaskImageDef" maskUnits="objectBoundingBox" x="0" y="0"><image id="canvasMaskImage" preserveAspectRatio="none" style="pointer-events:none" x="0" y="-1" width="400" height="222.22222222222223" xmlns:xlink="http://www.w3.org/1999/xlink" xlink:href="http://192.168.0.46/dnb_products/magento2/designnbuy/uploads/productimage/56eb110bc986f.png"/></mask></defs></svg>