<svg xmlns="http://www.w3.org/2000/svg" width="187" height="240" xmlns:xlink="http://www.w3.org/1999/xlink" id="svgcontent" overflow="hidden" x="0" y="0" viewBox="0 0 187 240"><g mask="url(#canvasMaskImageDef)" style="pointer-events:all"><title style="pointer-events:inherit">Layer 1</title><g stroke="null" elemBBoxHeight="45.44141" yscale="NaN" xscale="9.95152" elemBBoxWidth="138.75391" display="null" shapeVal="5" shapeId="8" lineHeight="1" font-style="normal" font-weight="normal" text-anchor="start" fill="0" font-family="Brush-Script" font-size="16.38797" text="Harish" type="text" id="svg_1" style="pointer-events:inherit"><path d="M62.2765,37.104C60.57405,36.88934 59.16298,37.12856 57.41198,37.29475C55.85661,39.11983 54.00709,41.77422 55.3696,44.43871C55.3696,44.43871 50.26227,46.61239 50.26227,46.61239C47.10158,45.33701 51.23489,40.29484 52.1104,38.09954C48.99827,38.90208 46.12895,39.60478 43.3068,40.88053C41.07017,43.40056 38.58935,46.55044 36.88691,49.35438C35.86572,51.07642 33.19065,51.01101 33.14209,49.49029C33.82335,47.29594 36.01141,44.84005 37.22684,42.97593C34.99021,43.83931 32.26658,44.79836 32.41226,42.74054C32.50939,41.16929 33.72482,39.81442 34.89309,38.83219C37.81097,38.61941 41.11874,36.00142 44.08518,35.01937C44.08518,35.01937 48.80402,29.80166 48.80402,29.80166C48.80402,29.80166 53.66715,24.19135 53.66715,24.19135C54.7369,22.92347 55.56384,22.25179 55.80804,20.98014C55.75809,20.30373 55.12678,20.30598 54.15416,20.44646C47.49007,21.60398 42.47986,25.15451 37.56816,28.31525C38.49222,28.26089 38.44366,29.12883 37.47104,29.75266C34.69884,31.50848 32.1209,33.57764 29.59151,35.61781C27.25637,37.56835 26.7208,35.14264 27.40206,32.93998C28.52176,29.33037 30.36989,27.72358 33.62771,25.458C40.09755,21.28411 46.9545,17.52844 55.12679,15.86552C58.67737,15.28062 61.35244,16.86993 60.42837,20.29538C59.16299,25.0024 53.47291,28.747 50.21371,32.78729C50.21371,32.78729 57.60762,30.95117 57.60762,30.95117C57.60762,30.95117 66.75115,20.08526 66.75115,20.08526C68.16221,18.62514 68.50216,17.83514 69.91323,17.2832C70.83729,17.27714 71.03155,18.63345 70.64166,19.4648C68.84208,23.27993 64.31888,26.84652 61.54669,30.47116C64.66021,30.23433 66.26414,30.1965 68.11226,31.01033C68.11226,31.01033 64.80589,33.85191 64.80589,33.85191C63.83326,34.82898 63.10344,36.00319 62.2765,37.10401C62.2765,37.10401 62.2765,37.10401 62.2765,37.10401M92.04361,36.38647C92.04361,36.9844 91.89792,37.62476 91.99504,38.17998C89.31997,39.97702 86.7906,42.07917 83.77419,43.59732C81.78038,44.60453 79.54236,44.08854 79.54236,42.16742C79.54236,40.16041 80.41786,39.16149 81.39189,37.18094C78.91106,38.97831 76.43024,41.04961 73.75516,42.63605C69.86328,44.99671 67.23677,40.84538 67.6752,36.97334C70.05891,32.30484 76.38167,29.77901 82.02318,27.94908C84.99101,27.01924 87.90888,27.00163 88.68727,29.30437C88.63871,30.07334 87.61751,30.16247 86.98482,30.42167C88.49301,30.84232 88.68727,32.29342 87.66608,33.44982C86.35213,34.99396 84.01837,36.16528 84.01837,38.47111C84.01837,39.28226 84.79536,39.87292 85.81795,39.69408C88.49301,39.21092 89.02719,38.14196 92.0436,36.38647C92.0436,36.38647 92.0436,36.38647 92.0436,36.38647M71.51714,37.69526C71.32289,38.34527 70.78871,40.33609 72.05269,40.18943C76.91583,38.60177 80.85629,34.37186 84.06693,31.42551C79.73797,32.64195 75.60327,34.03029 72.44118,36.45698C72.00413,36.86115 71.66419,37.26118 71.51712,37.69526C71.51712,37.69526 71.51712,37.69526 71.51712,37.69526M110.96333,36.25295C110.96333,36.25295 110.91478,38.09026 110.91478,38.09026C110.91478,38.09026 106.53726,41.28734 106.53726,41.28734C105.12758,42.15735 103.52225,43.32414 101.38137,43.33626C97.92791,43.34466 97.4423,39.24608 99.24187,36.98084C100.36019,35.56897 101.42993,34.156 102.74388,32.91105C102.74388,32.91105 97.29661,33.90896 97.29661,33.90896C97.29661,33.90896 94.86434,36.08716 94.86434,36.08716C94.03741,36.85567 92.9191,37.58167 91.94646,38.26529C91.99501,37.62469 91.89789,36.94183 92.04358,36.38646C93.01621,35.66022 93.94026,35.01984 94.76721,34.16574C92.91908,34.12323 93.59895,31.94553 94.18308,31.0917C95.39851,29.25555 97.00384,27.4193 99.58178,26.818C100.60297,26.85782 100.75004,27.96759 100.21446,28.69515C100.21446,28.69515 106.87856,27.87576 106.87856,27.87576C108.28824,27.85411 109.50507,29.92347 108.72667,31.21954C107.31561,33.63351 103.57079,34.65605 103.27802,37.94599C103.76503,40.54679 107.89974,38.15058 109.01805,37.4478C109.01805,37.4478 110.9633,36.25293 110.9633,36.25293M125.06848,35.52936C125.06848,35.52936 125.01992,37.36958 125.01992,37.36958C125.01992,37.36958 120.59384,40.7213 120.59384,40.7213C119.08565,41.70531 117.43315,42.89932 115.2437,43.07897C111.30463,43.3322 110.28205,38.7026 111.4503,35.42956C112.56862,32.28176 115.9735,27.97744 120.30247,27.75901C122.19916,27.63665 122.58766,29.06113 121.42078,30.42155C119.66978,32.40739 117.23751,34.49724 115.29226,36.24549C114.31963,37.81859 115.6322,39.47696 117.77309,39.21101C120.88523,38.73915 122.19916,37.45698 125.06848,35.52935C125.06848,35.52935 125.06848,35.52935 125.06848,35.52935M124.9228,21.45165C125.7983,21.37645 126.52812,21.95074 126.52812,22.71955C126.38243,24.65409 124.87425,26.4938 122.7833,26.78425C121.56646,26.95355 120.6424,26.11605 120.73954,24.99978C120.88523,23.24015 122.7833,21.74585 124.92281,21.45165C124.92281,21.45165 124.92281,21.45165 124.92281,21.45165M144.03818,32.73073C143.8925,33.74496 144.23244,34.7798 143.21125,35.3021C143.21125,35.3021 141.31455,36.93116 141.31455,36.93116C138.78519,38.94222 136.15868,41.42993 132.16964,42.03953C129.30033,42.4223 125.60408,41.16241 125.60408,38.89922C125.55552,37.70789 126.81952,36.65433 128.18203,36.56311C129.64028,36.44995 130.85709,37.16342 131.73261,37.65438C134.94184,35.93637 135.72024,32.83018 134.84473,29.11909C134.84473,29.11909 128.86187,34.4854 128.86187,34.4854C128.86187,34.4854 125.01995,37.41221 125.01995,37.41221C125.0685,36.76755 124.97139,36.09279 125.11706,35.52525C128.47338,32.989 131.68402,30.35916 134.60192,27.31842C135.28316,25.16848 135.42884,23.99361 137.76398,23.61991C139.07653,23.39127 139.2708,23.78331 139.36791,24.87567C139.51499,26.64233 140.43906,27.6653 140.43906,29.50113C140.43906,33.51485 136.69286,36.05058 133.96923,38.29678C138.59092,38.08003 141.11893,34.96301 144.03818,32.73072C144.03818,32.73072 144.03818,32.73072 144.03818,32.73072M158.09481,22.66806C160.42858,20.41681 162.9094,19.53317 163.3964,21.5459C162.81226,24.61229 158.62899,27.50954 157.99767,30.51712C157.99767,31.20034 158.33762,31.37461 159.11599,31.08439C161.83962,30.01253 162.86083,28.22111 165.48734,25.61659C165.48734,25.61659 165.43879,27.43219 165.43879,27.43219C161.25552,31.91516 159.16457,34.56713 154.9813,36.81655C151.47929,37.52436 153.47312,32.47823 154.68993,30.67876C154.68993,30.67876 157.99767,25.64961 157.99767,25.64961C153.66875,29.72661 149.97107,34.15501 146.32338,38.34877C146.08057,38.62093 145.83774,38.67902 145.64351,38.72509C143.84392,38.7514 143.94106,37.06475 143.94106,34.58834C143.94106,28.1838 149.19411,23.26684 152.64754,18.34503C154.8356,15.17458 157.89917,11.55258 160.33144,8.92668C162.08245,6.94147 163.34783,5.7686 164.07624,5.45315C164.95177,5.06517 165.87722,5.07147 165.87722,5.83997C165.87722,6.56583 165.05027,8.26611 163.44495,10.80796C158.77468,17.93374 152.69611,25.37528 147.24744,31.71599C147.24744,31.71599 147.19889,33.3508 147.19889,33.3508C150.70089,29.97862 154.34859,26.13586 158.09481,22.66805C158.09481,22.66805 158.09481,22.66805 158.09481,22.66805" stroke-width="0" fill="#000000" id="svg_4" style="pointer-events:inherit"/><rect opacity="0" fill="#000000" height="45.44141" width="138.75014" y="5.19922" x="27.125" id="svg_5" style="pointer-events:inherit"/></g><g stroke="null" shapeVal="0" shapeId="0" lineHeight="1" font-style="normal" font-weight="normal" text-anchor="middle" fill="#c232e2" font-family="Kroftsmann" font-size="60" text="County" type="nameText" id="nameText" style="pointer-events:inherit"><path d="M12.418000221252441,92.83202981948853 C12.418000221252441,92.83202981948853 17.584670066833496,85.99869999289513 17.584670066833496,85.99869999289513 C17.584670066833496,85.99869999289513 36.25133991241455,85.99869999289513 36.25133991241455,85.99869999289513 C36.25133991241455,85.99869999289513 36.25133991241455,94.49870014190674 36.25133991241455,94.49870014190674 C36.25133991241455,94.49870014190674 23.418009757995605,94.49870014190674 23.418009757995605,94.49870014190674 C23.418009757995605,94.49870014190674 23.418009757995605,116.66537094116211 23.418009757995605,116.66537094116211 C23.418009757995605,116.66537094116211 36.25133991241455,116.66537094116211 36.25133991241455,116.66537094116211 C36.25133991241455,116.66537094116211 36.25133991241455,125.99869918823242 36.25133991241455,125.99869918823242 C36.25133991241455,125.99869918823242 17.584670066833496,125.99869918823242 17.584670066833496,125.99869918823242 C17.584670066833496,125.99869918823242 12.418000221252441,118.33203887939453 12.418000221252441,118.33203887939453 C12.418000221252441,118.33203887939453 12.418000221252441,92.83203983306885 12.418000221252441,92.83203983306885 C12.418000221252441,92.83203983306885 12.418000221252441,92.83203983306885 12.418000221252441,92.83203983306885 M38.084670066833496,93.6653699874878 C38.084670066833496,93.6653699874878 43.25133037567139,85.99869999289513 43.25133037567139,85.99869999289513 C43.25133037567139,85.99869999289513 58.41800022125244,85.99869999289513 58.41800022125244,85.99869999289513 C58.41800022125244,85.99869999289513 63.58467197418213,92.83202981948853 63.58467197418213,92.83202981948853 C63.58467197418213,92.83202981948853 63.58467197418213,118.33203125 63.58467197418213,118.33203125 C63.58467197418213,118.33203125 58.41800022125244,125.99869155883789 58.41800022125244,125.99869155883789 C58.41800022125244,125.99869155883789 43.25133037567139,125.99869155883789 43.25133037567139,125.99869155883789 C43.25133037567139,125.99869155883789 38.084670066833496,119.16535949707031 38.084670066833496,119.16535949707031 C38.084670066833496,119.16535949707031 38.084670066833496,93.66536045074463 38.084670066833496,93.66536045074463 C38.084670066833496,93.66536045074463 38.084670066833496,93.66536045074463 38.084670066833496,93.66536045074463 M53.251328468322754,116.66535949707031 C53.251328468322754,116.66535949707031 53.251328468322754,95.33203029632568 53.251328468322754,95.33203029632568 C53.251328468322754,95.33203029632568 47.41800022125244,95.33203029632568 47.41800022125244,95.33203029632568 C47.41800022125244,95.33203029632568 47.41800022125244,116.66535949707031 47.41800022125244,116.66535949707031 C47.41800022125244,116.66535949707031 53.251328468322754,116.66535949707031 53.251328468322754,116.66535949707031 C53.251328468322754,116.66535949707031 53.251328468322754,116.66535949707031 53.251328468322754,116.66535949707031 M81.75132846832275,85.99869000911713 C81.75132846832275,85.99869000911713 91.08465671539307,85.99869000911713 91.08465671539307,85.99869000911713 C91.08465671539307,85.99869000911713 91.08465671539307,125.99869155883789 91.08465671539307,125.99869155883789 C91.08465671539307,125.99869155883789 70.75132846832275,125.99869155883789 70.75132846832275,125.99869155883789 C70.75132846832275,125.99869155883789 65.58466053009033,119.16535949707031 65.58466053009033,119.16535949707031 C65.58466053009033,119.16535949707031 65.58466053009033,85.99869000911713 65.58466053009033,85.99869000911713 C65.58466053009033,85.99869000911713 74.91800022125244,85.99869000911713 74.91800022125244,85.99869000911713 C74.91800022125244,85.99869000911713 74.91800022125244,117.49868965148926 74.91800022125244,117.49868965148926 C74.91800022125244,117.49868965148926 81.75134372711182,117.49868965148926 81.75134372711182,117.49868965148926 C81.75134372711182,117.49868965148926 81.75134372711182,85.99869000911713 81.75134372711182,85.99869000911713 C81.75134372711182,85.99869000911713 81.75134372711182,85.99869000911713 81.75134372711182,85.99869000911713 M93.08467197418213,125.99869155883789 C93.08467197418213,125.99869155883789 93.08467197418213,85.99869000911713 93.08467197418213,85.99869000911713 C93.08467197418213,85.99869000911713 102.41800785064697,85.99869000911713 102.41800785064697,85.99869000911713 C102.41800785064697,85.99869000911713 110.91800785064697,102.16535949707031 110.91800785064697,102.16535949707031 C110.91800785064697,102.16535949707031 110.91800785064697,85.99869000911713 110.91800785064697,85.99869000911713 C110.91800785064697,85.99869000911713 121.25135135650635,85.99869000911713 121.25135135650635,85.99869000911713 C121.25135135650635,85.99869000911713 121.25135135650635,125.99869155883789 121.25135135650635,125.99869155883789 C121.25135135650635,125.99869155883789 110.91800785064697,125.99869155883789 110.91800785064697,125.99869155883789 C110.91800785064697,125.99869155883789 102.41800785064697,108.99868965148926 102.41800785064697,108.99868965148926 C102.41800785064697,108.99868965148926 102.41800785064697,125.99869155883789 102.41800785064697,125.99869155883789 C102.41800785064697,125.99869155883789 93.08467197418213,125.99869155883789 93.08467197418213,125.99869155883789 C93.08467197418213,125.99869155883789 93.08467197418213,125.99869155883789 93.08467197418213,125.99869155883789 M123.08467197418213,85.99869000911713 C123.08467197418213,85.99869000911713 147.0846872329712,85.99869000911713 147.0846872329712,85.99869000911713 C147.0846872329712,85.99869000911713 147.0846872329712,94.49868965148926 147.0846872329712,94.49868965148926 C147.0846872329712,94.49868965148926 140.25134372711182,94.49868965148926 140.25134372711182,94.49868965148926 C140.25134372711182,94.49868965148926 140.25134372711182,125.99869155883789 140.25134372711182,125.99869155883789 C140.25134372711182,125.99869155883789 130.75134372711182,125.99869155883789 130.75134372711182,125.99869155883789 C130.75134372711182,125.99869155883789 130.75134372711182,94.49868965148926 130.75134372711182,94.49868965148926 C130.75134372711182,94.49868965148926 123.08467960357666,94.49868965148926 123.08467960357666,94.49868965148926 C123.08467960357666,94.49868965148926 123.08467960357666,85.99869000911713 123.08467960357666,85.99869000911713 C123.08467960357666,85.99869000911713 123.08467960357666,85.99869000911713 123.08467960357666,85.99869000911713 M166.5846872329712,125.99869155883789 C166.5846872329712,125.99869155883789 157.0846872329712,125.99869155883789 157.0846872329712,125.99869155883789 C157.0846872329712,125.99869155883789 157.0846872329712,107.33202934265137 157.0846872329712,107.33202934265137 C157.0846872329712,107.33202934265137 149.0846872329712,85.99869999289513 149.0846872329712,85.99869999289513 C149.0846872329712,85.99869999289513 159.4180154800415,85.99869999289513 159.4180154800415,85.99869999289513 C159.4180154800415,85.99869999289513 161.9180154800415,94.6653699874878 161.9180154800415,94.6653699874878 C161.9180154800415,94.6653699874878 164.25134372711182,85.99869999289513 164.25134372711182,85.99869999289513 C164.25134372711182,85.99869999289513 174.5846872329712,85.99869999289513 174.5846872329712,85.99869999289513 C174.5846872329712,85.99869999289513 166.5846872329712,107.33202934265137 166.5846872329712,107.33202934265137 C166.5846872329712,107.33202934265137 166.5846872329712,125.99869155883789 166.5846872329712,125.99869155883789 C166.5846872329712,125.99869155883789 166.5846872329712,125.99869155883789 166.5846872329712,125.99869155883789 " fill="#c232e2" id="svg_46" style="pointer-events:inherit"/></g><g stroke="null" shapeVal="0" shapeId="0" lineHeight="1" font-style="normal" font-weight="normal" text-anchor="middle" fill="#000bff" font-family="Brush-Script" font-size="120" text="56" type="numberText" id="numberText" display=" inline" style="pointer-events:inherit"><path d="M101.95898818969727,152.1538634300232 C97.87899017333984,159.11386346817017 96.79898834228516,163.31386375427246 91.75899124145508,166.6738634109497 C84.55898857116699,168.9538631439209 72.55898857116699,167.03386306762695 63.198988914489746,167.27386379241943 C59.11898946762085,171.113862991333 55.99898934364319,174.71386337280273 53.23898935317993,179.75386428833008 C59.598989486694336,178.19386291503906 62.71898937225342,177.113862991333 69.43898963928223,177.113862991333 C80.59898948669434,176.99386405944824 88.63898849487305,182.99386405944824 88.63898849487305,193.6738624572754 C88.39899063110352,215.87386322021484 62.11898946762085,230.51386260986328 37.15898895263672,229.67386627197266 C28.038990020751953,229.43387603759766 25.51898956298828,228.71387481689453 25.51898956298828,219.95387268066406 C25.51898956298828,211.31387329101562 34.758989334106445,209.9938735961914 40.87898921966553,207.11387252807617 C43.87898921966553,205.6738739013672 47.598989486694336,206.87387466430664 44.478989601135254,209.27387237548828 C44.478989601135254,209.27387237548828 36.19898986816406,215.63387298583984 36.19898986816406,215.63387298583984 C53.95898938179016,212.87387466430664 71.47898864746094,209.03387451171875 79.87899017333984,196.31387329101562 C82.87899017333984,191.51387405395508 76.87899017333984,189.2338752746582 71.8389892578125,189.35387420654297 C63.198988914489746,189.47387313842773 56.478989362716675,192.47387313842773 48.43898916244507,192.95387268066406 C41.35898971557617,191.63387298583984 39.078989028930664,180.23387336730957 43.63898944854736,173.9938735961914 C47.598989486694336,168.47387313842773 56.11898934841156,157.7938733100891 63.318989753723145,153.83387351036072 C68.59898948669434,150.9538733959198 78.55898857116699,152.27387338876724 86.23898887634277,152.27387338876724 C86.23898887634277,152.27387338876724 101.95898818969727,152.15387338399887 101.95898818969727,152.15387338399887 M120.19898986816406,230.03387451171875 C104.11899948120117,230.03387451171875 94.63898849487305,209.15387344360352 102.79898834228516,192.2338752746582 C109.99898910522461,177.23387336730957 126.0790023803711,163.91387367248535 139.87899017333984,155.51387333869934 C143.59899139404297,153.23387336730957 145.99899291992188,152.27387338876724 151.0389862060547,152.27387338876724 C155.35897827148438,152.27387338876724 158.2389907836914,152.3938733935356 159.55899047851562,152.51387339830399 C162.9189910888672,152.63387340307236 161.11898803710938,155.39387345314026 159.67898559570312,155.9938735961914 C145.7589874267578,162.59387302398682 134.59899139404297,173.15387344360352 124.27899169921875,182.75387382507324 C130.6389923095703,180.35387420654297 132.67898559570312,178.43387413024902 138.91899871826172,178.31387329101562 C147.91899871826172,178.07387351989746 154.75900268554688,185.51387405395508 153.55899810791016,195.35387420654297 C151.3990020751953,211.55387496948242 138.55899810791016,222.11387634277344 125.2389907836914,228.473876953125 C122.95899200439453,229.4338836669922 121.27899169921875,230.03387451171875 120.19898986816406,230.03387451171875 C120.19898986816406,230.03387451171875 120.19898986816406,230.03387451171875 120.19898986816406,230.03387451171875 M120.3189926147461,217.07388305664062 C130.15898895263672,211.79387283325195 141.3189926147461,204.5938835144043 141.3189926147461,190.55388259887695 C141.3189926147461,188.5138816833496 140.8389892578125,186.23388290405273 138.4389877319336,186.5938835144043 C130.15898895263672,187.79388427734375 122.1189956665039,195.8338851928711 116.11899948120117,201.5938835144043 C113.71899795532227,203.87388229370117 112.87899017333984,206.03388214111328 112.87899017333984,210.8338851928711 C112.87899017333984,216.9538803100586 115.03899002075195,219.9538803100586 120.3189926147461,217.07389068603516 C120.3189926147461,217.07389068603516 120.3189926147461,217.07389068603516 120.3189926147461,217.07389068603516 " fill="#000bff" id="svg_48" style="pointer-events:inherit"/></g></g><defs><mask y="0" x="0" maskUnits="objectBoundingBox" id="canvasMaskImageDef"><image xlink:href="http://192.168.0.222/work/jan_langius/print_commerce/source/designnbuy/uploads/productimage/5826bc835e1ff.png" height="344.82758620689657" width="400" y="-81" x="-106" preserveAspectRatio="none" id="canvasMaskImage"/></mask></defs></svg>