<svg xmlns="http://www.w3.org/2000/svg" width="190" height="247" x="0" y="0" id="svgcontent" overflow="visible" viewBox="0 0 190 247"><defs><mask id="canvasMaskImageDef" maskUnits="objectBoundingBox" x="0" y="0"><image id="canvasMaskImage" preserveAspectRatio="none" style="pointer-events:none" x="-105" y="-78" width="400" height="344.82758620689657" xlink:href="http://37.97.236.145/~shirtwere/designnbuy/uploads/productimage/582ee43d3d161.png" xmlns:xlink="http://www.w3.org/1999/xlink"/></mask></defs><g style="pointer-events:all" mask="url(#canvasMaskImageDef)"><title style="pointer-events:inherit">Layer 1</title><g id="svg_4" display="null" clip-id="1"><path fill="#2BA9E1" d="M121.74664306640625,98.842041015625 L131.7498016357422,92.01603698730469 L117.48294067382812,87.83988952636719 C105.57038879394531,66.90458679199219 81.25709533691406,77.82229614257812 73.1313705444336,97.73287963867188 C63.32695770263672,121.7320556640625 35.24742126464844,130.48597717285156 35.24742126464844,130.48597717285156 C55.232154846191406,154.25550842285156 73.25702667236328,158.54800415039062 85.27874755859375,157.6005401611328 C97.30667114257812,156.64581298828125 129.77037048339844,147.1915740966797 123.01234436035156,104.99040222167969 C122.65910339355469,102.79780578613281 122.23272705078125,100.7545166015625 121.74664306640625,98.842041015625 z" id="svg_5" stroke-width="0"/><path fill="#2B3277" d="M117.48294067382812,87.83988952636719 C119.18531799316406,90.83167266845703 120.63436889648438,94.4815673828125 121.74664306640625,98.842041015625 L131.7498016357422,92.01603698730469 L117.48294067382812,87.83988952636719 zM101.583740234375,114.339599609375 C101.583740234375,114.339599609375 68.21578979492188,107.45901489257812 64.3887710571289,126.02662658691406 C60.56278991699219,144.5901336669922 91.37149810791016,155.3646697998047 101.583740234375,114.339599609375 zM108.00396728515625,87.32392120361328 C108.22746276855469,89.3146743774414 107.20170593261719,91.06855773925781 105.70838928222656,91.24260711669922 C104.20991516113281,91.41046905517578 102.81134033203125,89.92951202392578 102.58992004394531,87.94184875488281 C102.36129760742188,85.95111083984375 103.38703918457031,84.19721984863281 104.88551330566406,84.02317810058594 C106.38706970214844,83.86148071289062 107.7763671875,85.33318328857422 108.00396728515625,87.32392120361328 z" id="svg_6" stroke-width="0"/></g></g></svg>