<svg width="188" height="241" x="0" y="0" id="svgcontent" viewBox="0 0 188 241" overflow="hidden" xmlns="http://www.w3.org/2000/svg" xmlns:se="http://svg-edit.googlecode.com" xmlns:xlink="http://www.w3.org/1999/xlink"><g style="pointer-events:all" mask=""><title style="pointer-events:inherit">Layer 1</title><g id="nameText" type="nameText" text="Zealous" font-size="60" font-family="SF Archery Black" font-id="1" fill="#0000FF" posX="-10.53515625" posY="54.73828125" text-anchor="middle" font-weight="normal" font-style="normal" lineHeight="1" shapeId="0" shapeVal="0" fill-opacity="1" stroke-width="1" stroke="null" stroke-dasharray="none"><path id="svg_36" fill="#0000FF" d="M45.546875,44.7578125 C45.546875,44.7578125 31.713541984558105,44.7578125 31.713541984558105,44.7578125 C31.713541984558105,44.7578125 22.713541626930237,38.7578125 22.713541626930237,38.7578125 C22.713541626930237,38.7578125 37.046875,2.7578125 37.046875,2.7578125 C37.046875,2.7578125 22.713541626930237,2.7578125 22.713541626930237,2.7578125 C22.713541626930237,2.7578125 22.713541626930237,-3.2421875 22.713541626930237,-3.2421875 C22.713541626930237,-3.2421875 36.546875,-3.2421875 36.546875,-3.2421875 C36.546875,-3.2421875 45.546875,2.7578125 45.546875,2.7578125 C45.546875,2.7578125 31.046875,38.7578125 31.046875,38.7578125 C31.046875,38.7578125 45.546875,38.7578125 45.546875,38.7578125 C45.546875,38.7578125 45.546875,44.7578125 45.546875,44.7578125 C45.546875,44.7578125 45.546875,44.7578125 45.546875,44.7578125 M71.046875,38.7578125 C71.046875,38.7578125 62.046875,44.7578125 62.046875,44.7578125 C62.046875,44.7578125 48.21354103088379,44.7578125 48.21354103088379,44.7578125 C48.21354103088379,44.7578125 48.21354103088379,14.7578125 48.21354103088379,14.7578125 C48.21354103088379,14.7578125 57.21354293823242,8.7578125 57.21354293823242,8.7578125 C57.21354293823242,8.7578125 71.046875,8.7578125 71.046875,8.7578125 C71.046875,8.7578125 71.046875,23.7578125 71.046875,23.7578125 C71.046875,23.7578125 62.046875,29.7578125 62.046875,29.7578125 C62.046875,29.7578125 56.546875,29.7578125 56.546875,29.7578125 C56.546875,29.7578125 56.546875,38.7578125 56.546875,38.7578125 C56.546875,38.7578125 62.71354293823242,38.7578125 62.71354293823242,38.7578125 C62.71354293823242,38.7578125 62.71354293823242,35.7578125 62.71354293823242,35.7578125 C62.71354293823242,35.7578125 71.046875,35.7578125 71.046875,35.7578125 C71.046875,35.7578125 71.046875,38.7578125 71.046875,38.7578125 C71.046875,38.7578125 71.046875,38.7578125 71.046875,38.7578125 M62.71354293823242,23.7578125 C62.71354293823242,23.7578125 62.71354293823242,14.7578125 62.71354293823242,14.7578125 C62.71354293823242,14.7578125 56.546875,14.7578125 56.546875,14.7578125 C56.546875,14.7578125 56.546875,23.7578125 56.546875,23.7578125 C56.546875,23.7578125 62.71354293823242,23.7578125 62.71354293823242,23.7578125 C62.71354293823242,23.7578125 62.71354293823242,23.7578125 62.71354293823242,23.7578125 M96.546875,38.7578125 C96.546875,38.7578125 87.546875,44.7578125 87.546875,44.7578125 C87.546875,44.7578125 73.88020706176758,44.7578125 73.88020706176758,44.7578125 C73.88020706176758,44.7578125 73.88020706176758,29.7578125 73.88020706176758,29.7578125 C73.88020706176758,29.7578125 82.88020706176758,23.7578125 82.88020706176758,23.7578125 C82.88020706176758,23.7578125 88.21353912353516,23.7578125 88.21353912353516,23.7578125 C88.21353912353516,23.7578125 88.21353912353516,14.7578125 88.21353912353516,14.7578125 C88.21353912353516,14.7578125 82.21354293823242,14.7578125 82.21354293823242,14.7578125 C82.21354293823242,14.7578125 82.21354293823242,17.7578125 82.21354293823242,17.7578125 C82.21354293823242,17.7578125 73.88020706176758,17.7578125 73.88020706176758,17.7578125 C73.88020706176758,17.7578125 73.88020706176758,14.7578125 73.88020706176758,14.7578125 C73.88020706176758,14.7578125 82.88020706176758,8.7578125 82.88020706176758,8.7578125 C82.88020706176758,8.7578125 96.546875,8.7578125 96.546875,8.7578125 C96.546875,8.7578125 96.546875,38.7578125 96.546875,38.7578125 C96.546875,38.7578125 96.546875,38.7578125 96.546875,38.7578125 M88.21353912353516,38.7578125 C88.21353912353516,38.7578125 88.21353912353516,29.7578125 88.21353912353516,29.7578125 C88.21353912353516,29.7578125 82.21354293823242,29.7578125 82.21354293823242,29.7578125 C82.21354293823242,29.7578125 82.21354293823242,38.7578125 82.21354293823242,38.7578125 C82.21354293823242,38.7578125 88.21353912353516,38.7578125 88.21353912353516,38.7578125 C88.21353912353516,38.7578125 88.21353912353516,38.7578125 88.21353912353516,38.7578125 M108.38021087646484,44.7578125 C108.38021087646484,44.7578125 100.046875,44.7578125 100.046875,44.7578125 C100.046875,44.7578125 100.046875,-3.2421875 100.046875,-3.2421875 C100.046875,-3.2421875 108.38021087646484,-3.2421875 108.38021087646484,-3.2421875 C108.38021087646484,-3.2421875 108.38021087646484,44.7578125 108.38021087646484,44.7578125 C108.38021087646484,44.7578125 108.38021087646484,44.7578125 108.38021087646484,44.7578125 M134.546875,38.7578125 C134.546875,38.7578125 125.546875,44.7578125 125.546875,44.7578125 C125.546875,44.7578125 120.71353912353516,44.7578125 120.71353912353516,44.7578125 C120.71353912353516,44.7578125 111.71353912353516,38.7578125 111.71353912353516,38.7578125 C111.71353912353516,38.7578125 111.71353912353516,14.7578125 111.71353912353516,14.7578125 C111.71353912353516,14.7578125 120.71353912353516,8.7578125 120.71353912353516,8.7578125 C120.71353912353516,8.7578125 125.546875,8.7578125 125.546875,8.7578125 C125.546875,8.7578125 134.546875,14.7578125 134.546875,14.7578125 C134.546875,14.7578125 134.546875,38.7578125 134.546875,38.7578125 C134.546875,38.7578125 134.546875,38.7578125 134.546875,38.7578125 M126.046875,38.7578125 C126.046875,38.7578125 126.046875,14.7578125 126.046875,14.7578125 C126.046875,14.7578125 120.046875,14.7578125 120.046875,14.7578125 C120.046875,14.7578125 120.046875,38.7578125 120.046875,38.7578125 C120.046875,38.7578125 126.046875,38.7578125 126.046875,38.7578125 C126.046875,38.7578125 126.046875,38.7578125 126.046875,38.7578125 M160.546875,38.7578125 C160.546875,38.7578125 151.546875,44.7578125 151.546875,44.7578125 C151.546875,44.7578125 137.71353912353516,44.7578125 137.71353912353516,44.7578125 C137.71353912353516,44.7578125 137.71353912353516,8.7578125 137.71353912353516,8.7578125 C137.71353912353516,8.7578125 146.046875,8.7578125 146.046875,8.7578125 C146.046875,8.7578125 146.046875,38.7578125 146.046875,38.7578125 C146.046875,38.7578125 152.046875,38.7578125 152.046875,38.7578125 C152.046875,38.7578125 152.046875,8.7578125 152.046875,8.7578125 C152.046875,8.7578125 160.546875,8.7578125 160.546875,8.7578125 C160.546875,8.7578125 160.546875,38.7578125 160.546875,38.7578125 C160.546875,38.7578125 160.546875,38.7578125 160.546875,38.7578125 M186.3802032470703,38.7578125 C186.3802032470703,38.7578125 177.3802032470703,44.7578125 177.3802032470703,44.7578125 C177.3802032470703,44.7578125 163.546875,44.7578125 163.546875,44.7578125 C163.546875,44.7578125 163.546875,35.7578125 163.546875,35.7578125 C163.546875,35.7578125 172.046875,35.7578125 172.046875,35.7578125 C172.046875,35.7578125 172.046875,38.7578125 172.046875,38.7578125 C172.046875,38.7578125 178.046875,38.7578125 178.046875,38.7578125 C178.046875,38.7578125 178.046875,29.7578125 178.046875,29.7578125 C178.046875,29.7578125 163.546875,29.7578125 163.546875,29.7578125 C163.546875,29.7578125 163.546875,14.7578125 163.546875,14.7578125 C163.546875,14.7578125 172.546875,8.7578125 172.546875,8.7578125 C172.546875,8.7578125 186.3802032470703,8.7578125 186.3802032470703,8.7578125 C186.3802032470703,8.7578125 186.3802032470703,17.7578125 186.3802032470703,17.7578125 C186.3802032470703,17.7578125 178.046875,17.7578125 178.046875,17.7578125 C178.046875,17.7578125 178.046875,14.7578125 178.046875,14.7578125 C178.046875,14.7578125 172.046875,14.7578125 172.046875,14.7578125 C172.046875,14.7578125 172.046875,23.7578125 172.046875,23.7578125 C172.046875,23.7578125 186.3802032470703,23.7578125 186.3802032470703,23.7578125 C186.3802032470703,23.7578125 186.3802032470703,38.7578125 186.3802032470703,38.7578125 C186.3802032470703,38.7578125 186.3802032470703,38.7578125 186.3802032470703,38.7578125 " transform="matrix(1, 0, 0, 1, -10.5352, 54.7383)"/></g><g id="numberText" type="numberText" text="67" font-size="120" font-family="Brush-Script" font-id="1" fill="#58b13e" posX="62.66796875" posY="123.12109375" text-anchor="middle" font-weight="normal" font-style="normal" lineHeight="1" shapeId="0" shapeVal="0" fill-opacity="1" style="display: inline;" stroke-width="1" stroke="null" stroke-dasharray="none"><path id="svg_32" fill="#58b13e" d="M-15.674171447753906,77.18007278442383 C-31.754173278808594,77.18007278442383 -41.23417282104492,56.30007362365723 -33.07417297363281,39.38007313013077 C-25.87417221069336,24.38007354736328 -9.794174194335938,11.060073852539062 4.005828857421875,2.6600723266601562 C7.725830078125,0.38007354736328125 10.125823974609375,-0.579925537109375 15.165824890136719,-0.579925537109375 C19.485824584960938,-0.579925537109375 22.365829467773438,-0.4599266052246094 23.685829162597656,-0.33992767333984375 C27.04582977294922,-0.21992874145507812 25.245826721191406,2.5400733947753906 23.805824279785156,3.1400718688964844 C9.885826110839844,9.740072250366211 -1.2741737365722656,20.300073623657227 -11.594173431396484,29.900073051452637 C-5.234172821044922,27.500073432922363 -3.194171905517578,25.580073356628418 3.0458297729492188,25.460073471069336 C12.045829772949219,25.220072746276855 18.885826110839844,32.66007328033447 17.685829162597656,42.500073194503784 C15.525825500488281,58.7000732421875 2.6858291625976562,69.26007270812988 -10.634174346923828,75.62007141113281 C-12.914173126220703,76.58007431030273 -14.594173431396484,77.18007278442383 -15.674171447753906,77.18007278442383 C-15.674171447753906,77.18007278442383 -15.674171447753906,77.18007278442383 -15.674171447753906,77.18007278442383 M-15.55417251586914,64.22007369995117 C-5.71417236328125,58.940073013305664 5.445823669433594,51.74007320404053 5.445823669433594,37.7000732421875 C5.445823669433594,35.66007328033447 4.965827941894531,33.38007307052612 2.565826416015625,33.74007320404053 C-5.71417236328125,34.940073013305664 -13.754173278808594,42.98007321357727 -19.754173278808594,48.74007320404053 C-22.1541748046875,51.02007293701172 -22.99417495727539,53.18007278442383 -22.99417495727539,57.98007392883301 C-22.99417495727539,64.10007286071777 -20.834171295166016,67.10007286071777 -15.55417251586914,64.22007369995117 C-15.55417251586914,64.22007369995117 -15.55417251586914,64.22007369995117 -15.55417251586914,64.22007369995117 M51.52582550048828,17.660072326660156 C48.76582336425781,19.100072860717773 42.28582763671875,24.620073318481445 40.125823974609375,19.220073699951172 C41.92582702636719,13.220073699951172 47.805824279785156,7.3400726318359375 51.64582824707031,3.8600730895996094 C58.245826721191406,0.7400741577148438 73.9658203125,-0.33992767333984375 85.60581970214844,-0.33992767333984375 C96.16583251953125,-0.33992767333984375 99.04582214355469,1.7000732421875 98.68582153320312,11.660072326660156 C95.56582641601562,17.180072784423828 88.60581970214844,20.900074005126953 84.16583251953125,25.7000732421875 C73.24583435058594,37.340073108673096 64.12582397460938,50.780073165893555 59.325828552246094,68.54007339477539 C60.40583038330078,67.94007301330566 63.52582550048828,67.34007263183594 63.52582550048828,69.26007270812988 C59.805824279785156,73.7000732421875 52.96582794189453,77.78007125854492 46.125823974609375,79.34007263183594 C37.60582733154297,78.26007461547852 39.76582336425781,67.5800724029541 43.48582458496094,60.86007308959961 C52.96582794189453,43.10007309913635 68.32582092285156,28.460073471069336 82.12582397460938,14.900074005126953 C71.32582092285156,14.54007339477539 58.60582733154297,13.940073013305664 51.52582550048828,17.660072326660156 C51.52582550048828,17.660072326660156 51.52582550048828,17.660072326660156 51.52582550048828,17.660072326660156 " transform="matrix(1, 0, 0, 1, 62.668, 123.121)" style="pointer-events:inherit"/></g></g></svg>