<svg width="65" height="78" xmlns="http://www.w3.org/2000/svg"><g><title>Layer 1</title><g clip-id="867" display="null" id="svg_4"><path stroke-width="0" id="svg_5" d="m11.63726,32.99959c0.0797,0.12824 0.14078,0.2753 0.18304,0.4395l0.18931,0.4395c0.04372,0.07971 0.0797,0.16568 0.12196,0.25187c0.92274,2.12558 1.54696,3.45643 1.88165,4.00074l0,0.06109l0.06109,0.06108l0.06255,0.12823c0.3347,0.33638 0.64765,0.47696 0.94009,0.44098c0.16568,0 0.31128,-0.04372 0.43323,-0.12824c0.17216,-0.16566 0.33638,-0.45811 0.50206,-0.8742c0,-0.08598 0.02343,-0.18931 0.06715,-0.31128c0.07824,-0.29391 0.16421,-0.58657 0.25019,-0.88047c1.78919,-6.8365 2.9389,-11.19851 3.43927,-13.07368l0.25019,0c0.28785,0 0.56314,-0.01883 0.81333,-0.06107c0.08451,0.12195 0.16422,0.29243 0.25019,0.50059c0.28764,0.78843 1.5641,3.29389 3.81142,7.50904l1.19175,2.18644c0.12196,0.20814 0.25019,0.41608 0.37215,0.624c1.29655,2.37576 2.06616,3.68948 2.31635,3.93966c0.87901,0.7945 1.71095,0.50205 2.50399,-0.87274c0.12342,-0.20814 0.31273,-0.56293 0.56292,-1.06352c1.0447,-2.08331 3.21419,-6.56748 6.50641,-13.45377l0.94135,0c0.07844,0.25186 0.20668,0.60518 0.37236,1.06351c0.29224,1.00243 1.20889,3.55036 2.75585,7.63707c0.7445,2.0833 1.34968,3.66602 1.8143,4.75318c0.16421,0.45813 0.31126,0.83676 0.43301,1.1244c0.12824,0.29243 0.20815,0.48177 0.2504,0.56145c0.24999,0.42236 0.45813,0.64744 0.63029,0.69116c0.28617,0.08452 0.66481,-0.22675 1.12292,-0.93528c0.25019,-0.42234 0.79471,-1.42331 1.62499,-3.00603c0.16588,-0.37215 0.38008,-0.75058 0.63049,-1.1244c0.07824,-0.25019 0.20794,-0.50059 0.37215,-0.75077l1.31393,-2.62762c1.25262,-2.50399 2.15024,-4.29486 2.68849,-5.3818c0.21295,0.04226 0.46292,0.06108 0.75078,0.06108l0,0.50059l0.12823,1.25284c0.03745,0.16421 0.06109,0.35331 0.06109,0.56146l0,0.31128c0,0.38008 0.01882,0.73341 0.06087,1.06351c0.08598,1.17292 0.14705,2.25526 0.1891,3.25624l0.8744,-2.43664c0.17027,0.03598 0.33617,0.06108 0.50059,0.06108l-0.25019,7.50736c0.5006,-1.54527 1.41705,-4.46534 2.75587,-8.75999c0.04224,0 0.0843,0.02344 0.12195,0.06109l-0.62379,3.50662c-1.58775,5.16907 -2.5042,7.96717 -2.75439,8.38157c-0.16568,0.33617 -0.45813,-3.18909 -0.8742,-10.57429c-0.2504,-2.95751 -0.37215,-4.31368 -0.37215,-4.06328c0,0.16587 -1.08716,2.39457 -3.25624,6.68944c-2.12723,4.21661 -3.43927,6.73943 -3.94153,7.57012c-0.45813,0.67255 -0.83675,0.98382 -1.12292,0.94135c-0.17196,-0.04372 -0.3801,-0.29391 -0.63029,-0.75223c-0.20794,-0.41441 -1.03862,-2.56508 -2.49771,-6.44532c-1.54696,-4.04467 -2.46341,-6.5861 -2.75586,-7.63101c-0.33617,-1.00097 -0.56313,-1.60636 -0.69137,-1.81429c-0.07823,-0.16422 -0.18304,-0.12196 -0.31107,0.12823c-4.29485,8.96354 -6.75679,14.03407 -7.3808,15.20092c-0.79304,1.33735 -1.62519,1.60615 -2.504,0.81311c-0.28784,-0.20793 -1.58272,-2.4381 -3.88045,-6.69697c-2.20527,-4.16663 -3.48153,-6.67062 -3.81142,-7.50277c-0.62882,-1.45931 -0.98382,-1.98479 -1.06352,-1.56411c-0.0843,0.25187 -1.39821,5.25525 -3.93965,15.01161c-0.21421,0.88047 -0.54432,1.3137 -1.00244,1.3137c-0.29244,0.04226 -0.60539,-0.1048 -0.94009,-0.43322c-0.16568,-0.17196 -0.93529,-1.81577 -2.31635,-4.94377c-1.28881,-3.0483 -2.12557,-5.08935 -2.49939,-6.13258c-0.17049,-0.41608 -0.31755,-0.77107 -0.43951,-1.06351c-0.25019,-0.58657 -0.47716,-0.89784 -0.68969,-0.94156l0,-0.87274c0.25019,0 0.50059,-0.01883 0.75078,-0.06108c0.12823,0.25019 0.25019,0.56146 0.37842,0.93361c0.37361,1.0018 1.143,2.90187 2.31614,5.69391l0,0zm42.10052,21.21112c1.96114,-0.62861 3.15121,-1.25095 3.5675,-1.88145c-0.29224,3.17194 -6.90366,4.96741 -19.83195,5.38326c-6.29826,0.16422 -11.63801,-0.1891 -16.01884,-1.0635l-4.75319,-1.44195l3.12821,0.8194c3.58633,0.45811 9.11519,0.60371 16.58199,0.43323c7.63099,-0.20772 13.40356,-0.9585 17.32627,-2.24899l0,0z" fill="#DAA520"/><path stroke-width="0" id="svg_6" d="m54.04904,24.92908c-0.28784,0 -0.53782,-0.01883 -0.75078,-0.06109c-0.37382,-0.12194 -0.72734,-0.35499 -1.06351,-0.69136c-0.50059,-0.53636 -0.75225,-1.16686 -0.75225,-1.87518c0,-0.70852 0.25166,-1.31391 0.75225,-1.81429c0.50059,-0.50039 1.10577,-0.75225 1.81429,-0.75225s1.3386,0.25186 1.87518,0.75225c0.50206,0.50057 0.75266,1.10577 0.75266,1.81429c0,0.70853 -0.2504,1.33882 -0.75266,1.87518c-0.53658,0.50226 -1.16665,0.75245 -1.87518,0.75245l0,0zm4.31976,3.31733c-0.16568,-0.04373 -0.33617,-0.12196 -0.50185,-0.25019c-0.12824,-0.08598 -0.23158,-0.16568 -0.31128,-0.25021c-0.45833,-0.45811 -0.68969,-1.00242 -0.68969,-1.62644c0,-0.12823 0.02321,-0.23156 0.06087,-0.31128c0.04224,-0.45811 0.25018,-0.87901 0.62881,-1.25282c0.41587,-0.41441 0.93528,-0.62862 1.56411,-0.62862c0.62399,0 1.16685,0.21421 1.62498,0.62862c0.41608,0.45833 0.62421,0.97754 0.62421,1.5641c0,0.62402 -0.20814,1.16833 -0.62421,1.62644c-0.45792,0.41441 -1.00076,0.62883 -1.62498,0.62883c-0.21275,0 -0.42088,-0.0251 -0.62883,-0.06736c-0.03786,-0.03765 -0.07991,-0.06107 -0.12215,-0.06107l0,0zm-1.94253,23.14925l-0.06089,0.37215c-0.50204,0.41587 -1.81597,0.83677 -3.94153,1.25262l-0.1891,0c-4.46053,0.83676 -11.00919,1.25117 -19.64262,1.25117c-4.4231,0 -8.32071,-0.14539 -11.6989,-0.43951c-1.54068,-0.25019 -3.39702,-0.66648 -5.5663,-1.25282c-2.33978,-0.58009 -3.62859,-2.0831 -3.87878,-4.50133c-0.58657,-5.92152 -0.89783,-8.94471 -0.94156,-9.07294c-0.45833,-1.87518 -0.83047,-3.75222 -1.12459,-5.62739c-0.16422,-1.00244 -0.29245,-2.00362 -0.37842,-3.00605l-0.12217,-2.12514c0.12195,0.29243 0.26901,0.64743 0.4395,1.06351c0.37383,1.04323 1.21058,3.08428 2.49939,6.13258c1.38107,3.12821 2.15046,4.77181 2.31635,4.94377c0.33471,0.32842 0.64765,0.47548 0.9401,0.43322c0.45812,0 0.78822,-0.43322 1.00243,-1.3137c2.54144,-9.75637 3.85535,-14.75974 3.93966,-15.01161c0.0797,-0.42068 0.43491,0.1048 1.06352,1.56411c0.32989,0.83215 1.60615,3.33614 3.81141,7.50276c2.29752,4.25887 3.59261,6.48904 3.88046,6.69697c0.87901,0.79304 1.71095,0.52424 2.50399,-0.81311c0.62401,-1.16686 3.08596,-6.23738 7.38061,-15.20092c0.12823,-0.25019 0.23303,-0.29245 0.31128,-0.12823c0.12801,0.20793 0.35478,0.81332 0.69136,1.81429c0.29224,1.0447 1.20891,3.58634 2.75586,7.631c1.4593,3.88025 2.28977,6.03091 2.49771,6.44532c0.24998,0.45833 0.45811,0.70852 0.63029,0.75224c0.28617,0.04247 0.66479,-0.2688 1.12292,-0.94135c0.50204,-0.83069 1.81429,-3.35329 3.94154,-7.57012c2.16908,-4.29487 3.25602,-6.52357 3.25602,-6.68945c0,-0.25019 0.12196,1.10577 0.37237,4.06328c0.41586,7.38541 0.70851,10.91066 0.87419,10.57428c0.25019,-0.41418 1.17293,-3.21229 2.75439,-8.38157l-0.43971,2.49939c-0.25019,1.33735 -0.43303,3.42066 -0.56147,6.256c-0.16589,2.58997 -0.29411,5.77927 -0.37215,9.57353l-0.06714,1.25304l0,0zm-49.73153,-20.21037l0.31128,0.81165c0.3301,0.92295 0.78843,1.79714 1.37479,2.6339l-0.06109,-2.13163c-0.04372,-0.04372 -0.06108,-0.1048 -0.06108,-0.1845c0.03598,0.0797 0.07824,0.16568 0.12195,0.25185l-0.18931,-5.26131l1.75321,24.09082l-1.5641,-0.69135c-0.20815,-4.25282 -0.39725,-7.65466 -0.56314,-10.19587c-0.16422,-2.33519 -0.31128,-3.92272 -0.4395,-4.7532l-0.68301,-4.57036l0,0zm45.72911,21.83535c2.12556,-0.41587 3.43927,-0.83675 3.94153,-1.25262l0.06089,-0.37215c0.04224,-0.08618 0.06735,-0.16589 0.06735,-0.25186c0,-0.50059 0.01716,-0.97754 0.06086,-1.44048c0.16422,0.08431 0.33471,0.18912 0.5006,0.31756c1.83312,1.2886 2.3335,2.73096 1.50322,4.31368c-1.75341,1.45909 -3.81937,2.5226 -6.19511,3.18888c-4.42329,1.20889 -11.15626,1.81429 -20.21037,1.81429c-8.92588,0 -15.40718,-0.60539 -19.45185,-1.81429c-0.50205,-0.16589 -1.06351,-0.39704 -1.69234,-0.68509c-0.29412,-0.41589 -0.5192,-0.93968 -0.69136,-1.56412l0,-0.12801c-0.20794,-0.78844 0.14706,-1.28882 1.0698,-1.50302c0.16421,-0.03619 0.35332,-0.0611 0.56145,-0.0611l0.18304,0.0611c4.33858,0.96477 10.47263,1.4231 18.39608,1.38107c9.34196,-0.0862 16.07993,-0.6054 20.21036,-1.56412c0.62234,-0.16608 1.18526,-0.31149 1.68585,-0.43971zm1.31392,1.19007c-3.92271,1.2905 -9.6955,2.04128 -17.32627,2.2492c-7.4668,0.17028 -12.99566,0.02489 -16.58199,-0.43324l-3.12822,-0.81939l4.75319,1.44194c4.38083,0.87442 9.72039,1.22773 16.01884,1.06352c12.9283,-0.41586 19.5395,-2.21134 19.83195,-5.38327c-0.41608,0.63029 -1.60636,1.25262 -3.5675,1.88123l0,0zm-45.72911,-3.44554c-0.54431,0.5443 -0.88048,1.1497 -1.00243,1.8143c-0.08598,0.79449 0.0797,1.52811 0.50059,2.19417c-0.21275,-0.12801 -0.43951,-0.27508 -0.6897,-0.43929c-1.12439,-1.62666 -0.72735,-3.06712 1.19175,-4.3137l0,0.74451l-0.00021,0zm31.28044,-27.90203l-0.94135,0c-0.58678,-0.12196 -1.08715,-0.39579 -1.50323,-0.81165c-0.58008,-0.58029 -0.87441,-1.25284 -0.87441,-1.99733c0,-0.79451 0.29412,-1.46077 0.87441,-2.00508c0.54431,-0.54263 1.19175,-0.81165 1.94253,-0.81165c0.78844,0 1.46076,0.26903 1.99902,0.81165c0.54263,0.54432 0.81164,1.21058 0.81164,2.00508c0,0.7445 -0.26901,1.41705 -0.81164,1.99733c-0.41608,0.41587 -0.91667,0.68948 -1.49696,0.81165zm-18.45695,0.63007c-0.25019,0.04226 -0.52548,0.06108 -0.81332,0.06108l-0.25019,0c-0.66627,-0.0797 -1.23401,-0.35499 -1.69213,-0.81333c-0.58029,-0.54263 -0.8744,-1.20889 -0.8744,-2.0036c0,-0.78823 0.29412,-1.46078 0.8744,-1.99714c0.54432,-0.54431 1.19175,-0.8196 1.94253,-0.8196c0.78844,0 1.46077,0.2753 1.9988,0.8196c0.54285,0.53636 0.81165,1.20284 0.81165,1.99714c0,0.79449 -0.26902,1.46076 -0.81165,2.0036c-0.33031,0.33638 -0.72755,0.58657 -1.18568,0.75225zm-11.88967,2.87802c-0.25019,0.04226 -0.50059,0.06109 -0.75078,0.06109c-0.45833,0 -0.87441,-0.12196 -1.24656,-0.37382c-0.17195,-0.08452 -0.33617,-0.21275 -0.50059,-0.37843c-0.33617,-0.3301 -0.5692,-0.70852 -0.69137,-1.1246c-0.04226,-0.20647 -0.06109,-0.41441 -0.06109,-0.62862c0,-0.66627 0.25019,-1.24656 0.75224,-1.74715c0.5006,-0.50059 1.08088,-0.75224 1.74715,-0.75224c0.70852,0 1.31371,0.25186 1.8143,0.75224c0.50059,0.45834 0.75078,1.03842 0.75078,1.74715c0,0.70853 -0.25019,1.29488 -0.75078,1.75321c-0.3299,0.33596 -0.68489,0.56272 -1.06331,0.69116zm-2.31488,2.68683c-0.0797,0 -0.16568,0.02509 -0.25019,0.06107l-0.50205,0c-0.62255,0 -1.14175,-0.20647 -1.5641,-0.62254c-0.45813,-0.45813 -0.68342,-1.00243 -0.68342,-1.62498c0,-0.62882 0.22529,-1.17312 0.68342,-1.62519c0.37863,-0.42236 0.86185,-0.64744 1.44214,-0.69137c0.12196,0.41608 0.35499,0.79449 0.69137,1.1246c0.16421,0.16568 0.32842,0.29413 0.50059,0.37843c0.37214,0.25186 0.78822,0.37382 1.24656,0.37382l0,0.62255c-0.03766,0.54431 -0.26902,1.02607 -0.68509,1.44215c-0.29266,0.2504 -0.58678,0.4395 -0.87922,0.56147zm1.63125,3.25644c0,0.0797 0.01737,0.14706 0.06109,0.18451l0.06108,2.13164c-0.58029,-0.83677 -1.0449,-1.71096 -1.37478,-2.6337l-0.31128,-0.81165l-0.31755,-2.06616c0.08451,-0.03598 0.17049,-0.06107 0.25019,-0.06107l0.37842,0.94155c0.28785,0.78823 0.70852,1.56411 1.25283,2.31489z" fill="#FFD700"/><path stroke-width="0" id="svg_7" d="m55.86313,29.49923c-0.16421,0 -0.3301,-0.0251 -0.50059,-0.06107c-0.28764,-0.08598 -0.56146,-0.25187 -0.81332,-0.50206c-0.0843,-0.12823 -0.16422,-0.23158 -0.2502,-0.31755c-0.04204,-0.32989 -0.06086,-0.68341 -0.06086,-1.06351l0,-0.31127c0,-0.20814 -0.02364,-0.39725 -0.06109,-0.56147c0.07991,-0.20814 0.20792,-0.39725 0.37215,-0.56292c0.3801,-0.37864 0.83822,-0.56168 1.37457,-0.56168c0.33617,0 0.67276,0.0797 1.00265,0.25019c-0.03765,0.0797 -0.06087,0.18303 -0.06087,0.31128c0,0.624 0.23116,1.16831 0.6897,1.62644c0.0797,0.08451 0.18303,0.16421 0.31127,0.25019c-0.08451,0.37863 -0.2504,0.68969 -0.50059,0.94009c-0.37215,0.37382 -0.85558,0.56293 -1.44235,0.56293l-0.06046,0l0,0.00041zm-2.56487,-4.63102c-0.5443,1.08694 -1.43566,2.87781 -2.68849,5.3818l-1.31391,2.62763c-0.16421,0.25019 -0.29391,0.50058 -0.37215,0.75076c-0.2142,-0.79449 -0.44096,-1.71095 -0.69135,-2.75438c-0.29245,-1.21058 -0.51922,-2.15047 -0.6897,-2.81674c0.45813,-0.12194 0.85558,-0.35499 1.19175,-0.68509c0.45813,-0.45811 0.68362,-1.00097 0.68362,-1.63125c0,-0.62255 -0.22528,-1.14175 -0.68362,-1.5641c-0.45833,-0.45834 -1.00266,-0.68364 -1.62519,-0.68364c-0.63028,0 -1.14948,0.2253 -1.56411,0.68364c-0.46461,0.42235 -0.69138,0.94155 -0.69138,1.5641c0,0.63029 0.22677,1.17292 0.69138,1.63125c0.32822,0.37382 0.74451,0.60539 1.24489,0.68509l-2.55839,8.25962c-0.46461,-1.08694 -1.06979,-2.66988 -1.81429,-4.7532c-1.54696,-4.08693 -2.46341,-6.63464 -2.75586,-7.63707c-0.16587,-0.45833 -0.2939,-0.81165 -0.37234,-1.06351c0.58029,-0.12196 1.08088,-0.39579 1.49696,-0.81165c0.54263,-0.58029 0.81164,-1.25284 0.81164,-1.99733c0,-0.79451 -0.26901,-1.46077 -0.81164,-2.00508c-0.53804,-0.54263 -1.21058,-0.81165 -1.99902,-0.81165c-0.75078,0 -1.39843,0.26903 -1.94253,0.81165c-0.58008,0.54432 -0.87441,1.21058 -0.87441,2.00508c0,0.7445 0.29412,1.41705 0.87441,1.99733c0.41587,0.41608 0.91645,0.68969 1.50323,0.81165c-3.29222,6.88628 -5.46171,11.37046 -6.50641,13.45378c-0.45833,-0.95872 -1.06351,-2.48057 -1.81429,-4.57015c-0.70852,-1.99735 -1.18547,-3.29222 -1.43587,-3.87251c0.58029,-0.04372 1.08088,-0.25186 1.49675,-0.63029c0.42068,-0.45833 0.62861,-1.00097 0.62861,-1.62498c0,-0.62254 -0.20792,-1.16684 -0.62861,-1.62519c-0.45812,-0.45811 -1.00243,-0.68969 -1.62498,-0.68969c-0.624,0 -1.16685,0.23137 -1.62518,0.68969c-0.45813,0.45834 -0.69138,1.00244 -0.69138,1.62519c0,0.62402 0.23304,1.16666 0.69138,1.62498c0.4144,0.37843 0.91646,0.58657 1.50302,0.63029l-1.88312,6.43904c-0.12196,-0.20815 -0.25019,-0.41608 -0.37215,-0.62401l-1.19175,-2.18645c-2.24752,-4.21494 -3.52378,-6.72062 -3.81141,-7.50904c-0.08619,-0.20792 -0.16568,-0.37841 -0.25019,-0.50059c0.45813,-0.16568 0.85537,-0.41607 1.18547,-0.75225c0.54284,-0.54263 0.81165,-1.20889 0.81165,-2.0036c0,-0.78823 -0.26902,-1.46077 -0.81165,-1.99714c-0.54431,-0.54431 -1.21058,-0.8196 -1.9988,-0.8196c-0.75057,0 -1.39822,0.2753 -1.94252,0.8196c-0.5803,0.53637 -0.87442,1.20284 -0.87442,1.99714c0,0.79449 0.29412,1.46076 0.87442,2.0036c0.45812,0.45834 1.02586,0.72735 1.69212,0.81333c-0.50037,1.87518 -1.65008,6.23717 -3.43927,13.07368c-0.54432,-0.83047 -1.33881,-2.52283 -2.38371,-5.06426c-0.50059,-1.17292 -0.89156,-2.10842 -1.18401,-2.81672c0.25019,-0.12824 0.47548,-0.29245 0.68341,-0.50059c0.37864,-0.37215 0.56774,-0.85558 0.56774,-1.43567c0,-0.58656 -0.18931,-1.06979 -0.56774,-1.44214c-0.41608,-0.41608 -0.89156,-0.62255 -1.43567,-0.62255c-0.54431,0 -1.01979,0.20647 -1.44214,0.62255c-0.41441,0.41607 -0.62255,0.89783 -0.62255,1.44214c0,0.58009 0.20794,1.06352 0.62255,1.43567c0.33617,0.33617 0.73341,0.54263 1.19175,0.62254c-0.04226,0.42236 -0.06108,0.92274 -0.06108,1.50303c-0.04226,0.88047 -0.06108,1.75321 -0.06108,2.62762c-1.17313,-2.79183 -1.94253,-4.69211 -2.31635,-5.69474c-0.12823,-0.37215 -0.25019,-0.68343 -0.37842,-0.93361c0.37842,-0.12823 0.73342,-0.35499 1.06352,-0.69137c0.50058,-0.45833 0.75078,-1.03841 0.75078,-1.75322c0,-0.70852 -0.25019,-1.2888 -0.75078,-1.74713c-0.50059,-0.50059 -1.10578,-0.75225 -1.8143,-0.75225c-0.66627,0 -1.24656,0.25186 -1.74715,0.75225c-0.50205,0.50059 -0.75224,1.08088 -0.75224,1.74713c0,0.21422 0.01883,0.42236 0.06108,0.62862c-0.58656,0.04372 -1.06352,0.26901 -1.44214,0.69137c-0.45813,0.45833 -0.68342,0.99637 -0.68342,1.62518c0,0.62255 0.22529,1.16686 0.68342,1.62499c0.42235,0.41607 0.94156,0.62254 1.5641,0.62254l0.50205,0l0.31755,2.06616l0.68363,4.57015c0.12823,0.83047 0.27508,2.41803 0.4395,4.7532c0.16568,2.54143 0.35499,5.94305 0.56314,10.19587l1.5641,0.69135l-1.75321,-24.09082c0.21275,0.04373 0.43951,0.35501 0.6897,0.94156l0.12196,2.12558c0.08597,1.00244 0.21421,2.00362 0.37842,3.00604c0.29412,1.87518 0.66627,3.75223 1.1246,5.62739c0.04372,0.12824 0.35499,3.15143 0.94156,9.07294c0.25019,2.41822 1.539,3.92104 3.87877,4.50132c2.1693,0.58657 4.02584,1.00264 5.56631,1.25284c3.37819,0.29391 7.2758,0.43951 11.69889,0.43951c8.63343,0 15.18209,-0.41441 19.64262,-1.25116l0.18912,0c-0.5006,0.12823 -1.06352,0.27383 -1.68607,0.4397c-4.13043,0.95872 -10.8684,1.47771 -20.21037,1.56411c-7.92344,0.04205 -14.05749,-0.41608 -18.39607,-1.38107l-0.18304,-0.06107c-0.20814,0 -0.39725,0.02488 -0.56146,0.06107c-0.92294,0.214 -1.27773,0.70852 -1.06979,1.50303l0,0.12801c0.17195,0.62424 0.39725,1.14803 0.69137,1.56411c0.62882,0.28806 1.19028,0.51922 1.69234,0.6851c4.04446,1.20889 10.52596,1.8143 19.45186,1.8143c9.0541,0 15.78727,-0.60541 20.21036,-1.8143c2.37575,-0.66648 4.4417,-1.72999 6.19512,-3.18887c0.83047,-1.58273 0.32989,-3.02509 -1.50323,-4.31368c-0.16589,-0.12823 -0.33617,-0.23304 -0.50059,-0.31755c-0.04373,0.46294 -0.06089,0.93988 -0.06089,1.44047c0,0.07991 -0.02509,0.16568 -0.06735,0.25187l0.06735,-1.25284c0.07805,-3.79427 0.20628,-6.98356 0.37215,-9.57353c0.12824,-2.83555 0.31107,-4.91886 0.56146,-6.256l0.43971,-2.49939l0.62379,-3.50662c0.20794,0.04224 0.41609,0.06735 0.62883,0.06735c0.62401,0 1.16685,-0.21421 1.62498,-0.62882c0.41607,-0.45813 0.62422,-1.00243 0.62422,-1.62644c0,-0.58657 -0.20815,-1.10577 -0.62422,-1.56411c-0.45792,-0.41439 -1.00076,-0.6286 -1.62498,-0.6286c-0.62883,0 -1.14802,0.21421 -1.56409,0.6286c-0.37863,0.37382 -0.58657,0.79451 -0.62883,1.25284c-0.32989,-0.17049 -0.66648,-0.25019 -1.00264,-0.25019c-0.53637,0 -0.99448,0.18303 -1.37458,0.56168c-0.16421,0.16568 -0.29245,0.35499 -0.37215,0.56292l-0.12823,-1.25282l0,-0.5006c0.70852,0 1.33859,-0.25019 1.87518,-0.75224c0.50204,-0.53636 0.75245,-1.16686 0.75245,-1.87539c0,-0.70852 -0.25019,-1.3137 -0.75245,-1.81429c-0.53635,-0.50039 -1.16666,-0.75225 -1.87518,-0.75225s-1.31371,0.25186 -1.8143,0.75225s-0.75223,1.10577 -0.75223,1.81429c0,0.70853 0.25164,1.33881 0.75223,1.87539c0.33681,0.33532 0.69033,0.56837 1.06415,0.69053l0,0zm3.50642,-5.25524c0.75078,0.75225 1.1246,1.65008 1.1246,2.6885l-0.06254,0.56168c0.37382,-0.12196 0.79449,-0.18304 1.25262,-0.18304c0.96039,0 1.79086,0.33009 2.49917,1.00242c0.66648,0.66627 1.00265,1.47792 1.00265,2.43685c0,0.91646 -0.29412,1.71095 -0.8744,2.37722c-0.62882,0.66626 -1.38107,1.04469 -2.25359,1.12439l-0.81353,4.9423c-0.37215,2.1693 -0.6897,6.98963 -0.94135,14.45475c1.16831,0.78843 1.91909,1.71117 2.25526,2.74978c0.33617,1.0447 0.23137,2.10821 -0.31126,3.19515l-0.31275,0.37215l-0.18931,0.12196c-1.83772,1.50323 -4.04446,2.6088 -6.63443,3.31731c-4.54525,1.21037 -11.33929,1.81597 -20.39341,1.81597c-8.29726,0 -14.53444,-0.52087 -18.70734,-1.5641c-2.37576,-0.58678 -4.54505,-1.58273 -6.50012,-2.99998l-0.81961,-0.63028c-0.16421,-0.04227 -0.28617,-0.16422 -0.37214,-0.37215c-0.70852,-1.08716 -0.93989,-2.15067 -0.6897,-3.18909c0.25019,-1.00243 0.89784,-1.88165 1.94253,-2.63388c-0.25019,-6.67062 -0.54431,-11.09372 -0.88048,-13.25673l-0.81165,-5.57258c-0.83048,-0.16421 -1.53901,-0.56146 -2.12557,-1.18547c-0.54431,-0.67065 -0.81333,-1.44025 -0.81333,-2.31446c0,-1.54527 0.6897,-2.62762 2.06449,-3.25624c0.08597,-0.9587 0.47695,-1.77204 1.18547,-2.43829c0.70852,-0.66481 1.5641,-1.00098 2.56653,-1.00098c0.95872,0 1.8143,0.31127 2.56508,0.9401c0.70852,0.66626 1.10577,1.46077 1.19175,2.37722l0.06108,0c0.91645,0 1.68607,0.3301 2.31635,1.00097c0.62254,0.624 0.93361,1.39361 0.93361,2.31635c0,0.95872 -0.31127,1.74693 -0.93361,2.37576l1.56411,3.88025l2.31467,-8.7006c-1.50302,-0.78843 -2.25379,-2.0036 -2.25379,-3.62859c0,-1.12439 0.39725,-2.0831 1.19028,-2.87781c0.83215,-0.78823 1.79087,-1.18547 2.87782,-1.18547c1.1246,0 2.08332,0.39724 2.87781,1.18547c0.78822,0.7945 1.18547,1.75322 1.18547,2.87781c0,1.41705 -0.54431,2.52282 -1.62497,3.31733l3.5675,6.94737l0.68509,-2.31635c-1.21058,-0.70853 -1.81597,-1.7346 -1.81597,-3.06714c0,-0.9587 0.355,-1.79546 1.06353,-2.50399c0.70852,-0.71019 1.54527,-1.06351 2.50566,-1.06351c0.95871,0 1.79547,0.35332 2.50399,1.06351c0.66627,0.70853 1.00244,1.54529 1.00244,2.50399c0,1.29489 -0.56774,2.29126 -1.69213,2.99977l0.56147,1.56411c0.37841,1.17312 0.75223,2.19271 1.13066,3.06712l4.69211,-9.75657c-1.29489,-0.83676 -1.94233,-1.97998 -1.94233,-3.43927c0,-1.13087 0.39704,-2.08959 1.19008,-2.87781c0.83216,-0.79451 1.79087,-1.19175 2.87781,-1.19175c1.1246,0 2.08331,0.39724 2.87781,1.19175c0.78844,0.78822 1.18568,1.74693 1.18568,2.87781c0,1.58126 -0.66647,2.7479 -1.99753,3.50036c0.58029,2.0034 1.66743,4.96112 3.25015,8.88362l1.12293,-3.69114c-1.08088,-0.66626 -1.62519,-1.66722 -1.62519,-3.00603c0,-0.95871 0.33617,-1.7892 1.00264,-2.49771c0.70853,-0.66627 1.54529,-1.00244 2.50567,-1.00244c0.95871,0 1.7894,0.33638 2.49771,1.00244c0.70853,0.70852 1.06353,1.53901 1.06353,2.49771c0,1.29488 -0.56148,2.29752 -1.68627,3.00603l0.37234,1.25284l2.31635,-4.69211c-0.96059,-0.75245 -1.43587,-1.7532 -1.43587,-3.00603c0,-1.03862 0.37236,-1.93625 1.12292,-2.68871c0.75246,-0.75078 1.65029,-1.12292 2.68871,-1.12292c1.08736,0.00021 2.00381,0.37236 2.75606,1.12314l0,0zm-1.44193,9.82519l-0.87441,2.43662c-0.04205,-1.00097 -0.10313,-2.08331 -0.1891,-3.25624c0.08597,0.08598 0.16588,0.18933 0.25018,0.31755c0.25188,0.2504 0.5257,0.41608 0.81334,0.50206l0,0zm2.50399,-1.44194c0.16568,0.12822 0.33617,0.20646 0.50185,0.25019c-1.33861,4.29485 -2.25527,7.21492 -2.75585,8.75999l0.25019,-7.50736l0.06087,0c0.58677,0 1.06998,-0.18933 1.44235,-0.56293c0.25018,-0.25019 0.41608,-0.56146 0.50059,-0.93988zm-49.67504,-0.69138l0.18931,5.26131c-0.04372,-0.08598 -0.0797,-0.17196 -0.12195,-0.25187c-0.54431,-0.75077 -0.96499,-1.52018 -1.25283,-2.31467l-0.37842,-0.94156c0.29244,-0.12195 0.58656,-0.31128 0.87901,-0.56146c0.41607,-0.41607 0.64744,-0.89783 0.68509,-1.44214l0,0.2504l-0.00021,0zm-0.18304,23.46032l0,-0.7445c-1.9191,1.24656 -2.31635,2.68703 -1.19175,4.31368c0.2502,0.16401 0.47716,0.31106 0.6897,0.43929c-0.42068,-0.66627 -0.58657,-1.39967 -0.50059,-2.19417c0.12217,-0.66441 0.45833,-1.27 1.00264,-1.8143zm39.53398,-22.70809l-0.75245,0c-0.5006,-0.0797 -0.91667,-0.31126 -1.24489,-0.68508c-0.46461,-0.45813 -0.69138,-1.00098 -0.69138,-1.63126c0,-0.62254 0.22677,-1.14175 0.69138,-1.5641c0.4144,-0.45834 0.93381,-0.68364 1.56409,-0.68364c0.62255,0 1.16666,0.2253 1.6252,0.68364c0.45812,0.42234 0.68364,0.94156 0.68364,1.5641c0,0.63028 -0.22531,1.17292 -0.68364,1.63126c-0.33638,0.33009 -0.73383,0.56313 -1.19196,0.68508zm-31.21329,8.57088c-0.08597,0.29392 -0.17195,0.58657 -0.25019,0.88049c-0.04372,0.12194 -0.06715,0.22529 -0.06715,0.31128c-0.16568,0.41607 -0.3301,0.70852 -0.50205,0.8742c-0.12196,0.08451 -0.26735,0.12823 -0.43323,0.12823c-0.29245,0.03598 -0.60539,-0.1046 -0.9401,-0.44098l-0.06255,-0.12823l-0.06108,-0.06108l0,-0.06107c-0.3347,-0.54432 -0.95871,-1.87518 -1.88165,-4.00074c-0.03598,-0.08598 -0.07824,-0.17196 -0.12196,-0.25187l-0.18932,-0.4395c-0.04225,-0.16422 -0.10334,-0.31127 -0.18304,-0.43951c0,-0.87441 0.01862,-1.74715 0.06109,-2.62762c0,-0.58029 0.01861,-1.08067 0.06108,-1.50301l0.25019,0c0.25019,0 0.50059,-0.03598 0.75225,-0.12196c0.29244,0.70852 0.68342,1.64381 1.18401,2.81672c1.0449,2.54185 1.83919,4.23419 2.38371,5.06467l0,0zm27.90224,-0.31105l2.5586,-8.25962l0.75245,0c0.17027,0.66627 0.39704,1.60636 0.68969,2.81674c0.25018,1.04323 0.47695,1.95988 0.69137,2.75438c-0.25018,0.37383 -0.46461,0.75225 -0.63049,1.12461c-0.83027,1.58271 -1.37457,2.58369 -1.62498,3.00604c-0.45813,0.70853 -0.83675,1.0198 -1.12292,0.93528c-0.17194,-0.04372 -0.3801,-0.2688 -0.63029,-0.69115c-0.04226,-0.07972 -0.12217,-0.26903 -0.2504,-0.56146c-0.12175,-0.28807 -0.26882,-0.66669 -0.43303,-1.12481zm-12.39025,0c-0.25019,0.50058 -0.4395,0.85537 -0.56313,1.06351c-0.79304,1.37478 -1.62498,1.66723 -2.50399,0.87274c-0.25019,-0.25019 -1.0198,-1.56411 -2.31635,-3.93965l1.88312,-6.43904l0.25019,0c0.25019,0.58007 0.72735,1.87516 1.43587,3.87249c0.75079,2.08938 1.35596,3.61102 1.81429,4.56995l0,0zm-3.25016,-8.44266l-0.25019,0c-0.58657,-0.04372 -1.08862,-0.25187 -1.50303,-0.63029c-0.45812,-0.45834 -0.69137,-1.00098 -0.69137,-1.62498c0,-0.62255 0.23303,-1.16686 0.69137,-1.62519c0.45833,-0.45813 1.00097,-0.68969 1.62519,-0.68969c0.62254,0 1.16665,0.23137 1.62498,0.68969c0.42067,0.45833 0.62861,1.00244 0.62861,1.62519c0,0.624 -0.20794,1.16665 -0.62861,1.62498c-0.41608,0.37841 -0.91667,0.58636 -1.49696,0.63029l0,0zm-15.82953,0.87274c-0.25187,0.0797 -0.50205,0.12195 -0.75225,0.12195l-0.25019,0c-0.45833,-0.0797 -0.85558,-0.28616 -1.19175,-0.62254c-0.4144,-0.37215 -0.62254,-0.85558 -0.62254,-1.43587c0,-0.54432 0.20793,-1.02587 0.62254,-1.44194c0.42236,-0.41608 0.89785,-0.62255 1.44215,-0.62255c0.54431,0 1.0198,0.20647 1.43567,0.62255c0.37863,0.37214 0.56773,0.85537 0.56773,1.44194c0,0.58029 -0.18931,1.06351 -0.56773,1.43587c-0.20815,0.20793 -0.43324,0.37214 -0.68363,0.50059z" fill="#F5DEB3"/></g></g></svg>