<svg xmlns="http://www.w3.org/2000/svg" width="188" height="227" viewBox="0 0 188 227"><g><title>Layer 1</title><g stroke="ull" stroke-width="0" elemBBoxHeight="11.01132" yscale="NaN" xscale="10.77596" elemBBoxWidth="163.20192" display="null" shapeVal="0" shapeId="0" lineHeight="1" font-style="normal" font-weight="normal" text-anchor="start" fill="38bc57" font-id="1" font-family="Boston Traffic" font-size="18.28083" text="Harsh" type="text" id="svg_1"><path stroke="#ull" d="m12.97626,49.30595c0,0 0,5.55497 0,5.55497c0.63503,1.512 -0.47627,3.41844 0.47627,4.73322c2.54011,0.16435 5.71524,-0.09861 8.41411,0.09861c2.22259,-0.92035 0,-2.66244 0.79378,-4.20731c3.33389,0.03287 2.2226,-1.24904 1.42881,-1.77496c-3.49265,-0.65739 -0.15876,-3.05688 -1.74632,-4.56888c-3.81016,-0.16435 -6.66778,-0.13148 -9.36665,0.16435c0,0 0,0 0,0m18.41578,-0.16435c-1.90508,1.21618 -0.47627,3.05687 -0.47627,4.50314c-3.49265,0 -1.42881,1.01896 -2.06384,1.61061c0.63503,0.09861 1.1113,0.13148 1.90508,0.13148c0,0 0.47627,4.20731 0.47627,4.20731c0,0 9.36665,0 9.36665,0c0,0 -0.31751,-4.53601 -0.31751,-4.53601c0,0 0.31751,-5.91653 0.31751,-5.91653c0,0 -9.20789,0 -9.20789,0c0,0 0,0 0,0m24.28978,0c0.95254,2.39948 4.7627,4.66748 6.66779,7.0341c0,0 -1.90508,0.16435 -1.90508,0.16435c0.79378,0.62452 -2.06384,1.15043 -0.47627,1.61061c1.42881,-0.03287 2.85762,0 3.96891,0.06573c0.31751,0.65739 0.79378,1.18331 1.58757,1.57774c0,0 8.89038,0.03287 8.89038,0.03287c0.15875,-0.78887 -1.74633,-1.18331 -1.42881,-2.00505c-2.2226,-1.0847 -2.85763,-2.69531 -4.12769,-3.91148c-1.90507,-0.62452 -0.63502,-1.44627 -2.38134,-1.90644c0,0 -1.58757,-2.46522 -1.58757,-2.46522c-0.47626,-0.06574 -0.95254,-0.16435 -1.27005,-0.26296c-2.38135,0.13148 -4.44519,0.09861 -6.19151,-0.13148c-0.47627,0.13148 -1.11129,0.19722 -1.74632,0.19722c0,0 0,0 0,0m-0.95254,3.41844c-4.60395,-0.23008 -2.54011,2.03792 -5.08022,2.82679c-0.63503,1.44626 -2.85762,2.79391 -3.81016,4.1087c1.74632,0.36156 6.35027,0.09861 8.89038,0.03287c1.90508,-1.77496 3.17513,-3.71426 0.95254,-5.52209c-0.63503,-0.46017 -0.63503,-0.98609 -0.95254,-1.44627c0,0 0,0 0,0m33.81518,-3.28696c-2.69887,-0.29583 -5.71524,-0.03287 -8.89038,0.03287c0,0 0.79379,5.58783 0.79379,5.58783c-0.47627,1.61061 0.15876,3.08974 0,4.79897c0,0 7.93784,0 7.93784,0c1.74632,-2.9254 -0.63503,-6.83688 0.47626,-9.6308c-0.3175,-0.29583 -0.47626,-0.55878 -0.3175,-0.78887c0,0 0,0 0,0m4.28643,0.49304c0.79379,0.3287 0.95254,0.62452 0.47627,0.95322c4.28643,0.4273 5.39772,1.31478 3.17513,2.72818c-4.28644,0.09861 -3.17513,1.28191 -2.38136,1.93931c6.66779,0.13148 1.74632,2.85965 3.65141,4.30592c2.69887,-0.06574 5.71524,-0.03287 8.41411,-0.06574c-0.95254,-1.80783 3.33389,-4.53601 -4.28643,-5.12766c0,0 0,-0.19722 0,-0.19722c4.44518,-0.69026 5.874,-1.64348 4.28643,-2.82679c-0.15876,-1.41339 -3.49265,-2.30087 -10.31919,-2.30087c-1.90508,0 -3.01637,0.23008 -3.01637,0.59165c0,0 0,0 0,0m30.32254,2.53096c0.95253,-1.05183 3.33388,-1.80783 2.2226,-3.024c-3.81017,-0.42731 -5.71525,0.32869 -8.25536,0.65739c-0.79379,0.39443 -1.90509,0.72313 -3.01639,1.01896c-0.79377,1.90644 2.54012,3.15548 10.00168,3.81288c1.74634,0.3287 3.65141,0.69026 6.19152,0.82174c1.58757,0.29583 2.5401,0.62452 3.17514,0.92035c-0.15877,0.59165 -1.42882,0.98609 -3.65141,1.21618c0.3175,0.65739 -0.15877,1.512 0.47627,2.00505c9.52541,-0.19722 14.44685,-2.43235 10.95422,-4.07583c-2.22261,-1.01896 -6.19153,-1.64348 -10.00168,-2.23513c-3.3339,-0.26295 -6.03277,-0.62452 -8.0966,-1.11757c0,0 0,0 0,0m5.39771,-3.12261c0,0.46017 -0.63502,1.64348 0.95255,2.00505c3.17514,0.23008 0.47629,1.41339 7.14407,0.95322c1.74629,-0.13148 3.01636,-0.09861 4.12766,-0.09861c0.95255,-1.77496 -5.87399,-2.76104 -12.22427,-2.85965c0,0 0,0 0,0m-15.3994,7.92157c1.90509,1.44626 5.55649,2.46523 13.01807,2.72818c0.47626,-0.72313 0.47626,-1.34766 0,-1.80783c-2.69888,-0.32869 -4.12768,-0.88748 -4.60395,-1.67635c-4.44519,-0.03287 -9.20789,0.09861 -8.41412,0.756c0,0 0,0 0,0m34.92648,-7.7901c0,0 0,5.55497 0,5.55497c0.63503,1.512 -0.47627,3.41844 0.47627,4.73322c2.5401,0.16435 5.71524,-0.09861 8.41411,0.09861c2.2226,-0.92035 0,-2.66244 0.79378,-4.20731c3.33389,0.03287 2.2226,-1.24904 1.42882,-1.77496c-3.49265,-0.65739 -0.15875,-3.05688 -1.74634,-4.56888c-3.81015,-0.16435 -6.66777,-0.13148 -9.36664,0.16435c0,0 0,0 0,0m18.41577,-0.16435c-1.90508,1.21618 -0.47627,3.05687 -0.47627,4.50314c-3.49265,0 -1.4288,1.01896 -2.06383,1.61061c0.63503,0.09861 1.1113,0.13148 1.90509,0.13148c0,0 0.47627,4.20731 0.47627,4.20731c0,0 9.36662,0 9.36662,0c0,0 -0.31749,-4.53601 -0.31749,-4.53601c0,0 0.31749,-5.91653 0.31749,-5.91653c0,0 -9.20789,0 -9.20789,0c0,0 0,0 0,0" stroke-width="0" fill="#38bc57" id="svg_6"/><rect stroke="null" opacity="0" fill="#000000" height="10.87983" width="162.72564" y="48.94438" x="12.97626" id="svg_7"/></g></g></svg>