<svg xmlns="http://www.w3.org/2000/svg" width="190" height="242" x="0" y="0" id="svgcontent" overflow="visible" viewBox="0 0 190 242"><g style="pointer-events:all" mask=""><title style="pointer-events:inherit">Layer 1</title><g id="nameText" type="nameText" text="sammy" font-size="30" font-family="Brush-Script" font-id="1" fill="#FF0000" posX="53.20500183105469" posY="111.33497619628906" text-anchor="middle" font-weight="normal" font-style="normal" lineHeight="1" shapeId="0" shapeVal="0" fill-opacity="1" stroke-width="1" stroke="null" stroke-dasharray="none" transform=""><path id="svg_25" fill="#FF0000" d="M12.259998894042958,22.759977120666527 C12.169998894042962,23.449977120666524 12.37999889404296,24.229977120666526 11.74999889404296,24.439977120666526 C11.74999889404296,24.439977120666526 10.57999889404296,25.309977120666527 10.57999889404296,25.309977120666527 C9.01999889404296,26.389977120666526 7.399998894042959,27.829977120666527 4.93999889404296,27.859977120666528 C3.16999889404296,27.889977120666526 0.8899988940429601,26.74997712066653 0.8899988940429601,25.159977120666525 C0.8599988940429606,24.319977120666525 1.63999889404296,23.659977120666525 2.4799988940429607,23.689977120666526 C3.3799988940429593,23.719977120666528 4.129998894042959,24.319977120666525 4.66999889404296,24.739977120666527 C6.649998894042959,23.839977120666525 7.129998894042959,21.739977120666527 6.58999889404296,19.039977120666528 C6.58999889404296,19.039977120666528 2.8999988940429606,22.279977120666526 2.8999988940429606,22.279977120666526 C2.8999988940429606,22.279977120666526 0.5299988940429605,24.079977120666527 0.5299988940429605,24.079977120666527 C0.5599988940429599,23.629977120666524 0.4999988940429604,23.149977120666527 0.5899988940429601,22.759977120666527 C2.6599988940429604,21.199977120666524 4.639998894042961,19.609977120666528 6.43999889404296,17.74997712066653 C6.85999889404296,16.309977120666527 6.94999889404296,15.499977120666527 8.38999889404296,15.499977120666527 C9.19999889404296,15.499977120666527 9.31999889404296,15.799977120666528 9.37999889404296,16.579977120666527 C9.469998894042961,17.839977120666525 10.03999889404296,18.67997712066653 10.03999889404296,19.969977120666528 C10.03999889404296,22.789977120666528 7.729998894042961,24.109977120666528 6.049998894042961,25.399977120666527 C8.89999889404296,25.759977120666527 10.45999889404296,23.899977120666527 12.259998894042958,22.759977120666527 C12.259998894042958,22.759977120666527 12.259998894042958,22.759977120666527 12.259998894042958,22.759977120666527 M27.289998894042945,22.759977120666527 C27.289998894042945,23.17997712066653 27.19999889404295,23.629977120666524 27.259998894042948,24.019977120666525 C25.609998894042945,25.279977120666526 24.049998894042947,26.74997712066653 22.189998894042947,27.799977120666526 C20.959998894042947,28.489977120666527 19.579998894042948,28.099977120666527 19.579998894042948,26.74997712066653 C19.579998894042948,25.339977120666525 20.11999889404295,24.649977120666527 20.719998894042945,23.269977120666525 C19.189998894042947,24.49997712066653 17.65999889404295,25.909977120666525 16.009998894042948,26.959977120666526 C13.609998894042949,28.489977120666527 11.989998894042948,25.459977120666526 12.259998894042948,22.759977120666527 C13.729998894042946,19.579977120666527 17.62999889404295,17.989977120666527 21.109998894042945,16.789977120666528 C22.939998894042947,16.159977120666525 24.739998894042948,16.159977120666525 25.219998894042945,17.779977120666526 C25.189998894042947,18.31997712066653 24.55999889404295,18.379977120666524 24.169998894042948,18.559977120666527 C25.099998894042947,18.859977120666528 25.219998894042945,19.879977120666528 24.58999889404295,20.689977120666526 C23.779998894042947,21.769977120666525 22.33999889404295,22.579977120666527 22.33999889404295,24.199977120666524 C22.33999889404295,24.769977120666525 22.819998894042946,25.189977120666526 23.44999889404295,25.069977120666525 C25.099998894042947,24.739977120666527 25.429998894042946,23.989977120666527 27.289998894042945,22.759977120666527 C27.289998894042945,22.759977120666527 27.289998894042945,22.759977120666527 27.289998894042945,22.759977120666527 M14.629998894042949,23.419977120666527 C14.509998894042948,23.869977120666526 14.179998894042946,25.24997712066653 14.959998894042947,25.189977120666526 C17.959998894042947,24.199977120666524 20.389998894042947,21.289977120666528 22.369998894042947,19.24997712066653 C19.69999889404295,20.059977120666527 17.149998894042948,20.959977120666526 15.199998894042949,22.579977120666527 C14.929998894042946,22.849977120666527 14.719998894042948,23.119977120666526 14.629998894042949,23.419977120666527 C14.629998894042949,23.419977120666527 14.629998894042949,23.419977120666527 14.629998894042949,23.419977120666527 M44.53999889404297,24.649977120666527 C46.159998894042964,24.49997712066653 47.02999889404296,23.719977120666528 48.589998894042964,22.759977120666527 C48.52999889404296,23.149977120666527 48.52999889404296,23.56997712066653 48.52999889404296,24.019977120666525 C46.51999889404296,25.369977120666526 44.38999889404296,27.289977120666528 41.56999889404296,27.799977120666526 C39.94999889404296,27.709977120666526 39.649998894042966,25.609977120666528 40.57999889404296,24.199977120666524 C40.939998894042965,23.659977120666525 41.479998894042964,22.63997712066653 42.34999889404296,21.259977120666527 C39.88999889404296,22.99997712066653 38.119998894042965,25.489977120666527 35.59999889404296,27.169977120666527 C34.24999889404296,28.06997712066653 33.01999889404296,26.659977120666525 33.67999889404296,25.159977120666525 C34.369998894042965,23.629977120666524 35.35999889404296,22.279977120666526 36.259998894042965,20.959977120666526 C36.37999889404296,20.779977120666526 36.34999889404296,20.509977120666527 36.13999889404296,20.479977120666526 C33.85999889404296,21.739977120666527 31.84999889404296,24.949977120666524 30.169998894042962,26.659977120666525 C29.719998894042966,27.109977120666528 29.539998894042967,27.31997712066653 28.969998894042966,27.31997712066653 C27.019998894042963,27.31997712066653 26.989998894042962,23.359977120666528 27.769998894042963,21.589977120666525 C28.549998894042965,19.819977120666525 30.079998894042966,17.38997712066653 32.35999889404296,17.329977120666527 C33.70999889404296,17.299977120666526 33.829998894042966,18.169977120666527 33.01999889404296,19.039977120666528 C31.879998894042963,20.239977120666527 30.34999889404296,21.259977120666527 29.92999889404296,23.119977120666526 C29.92999889404296,23.239977120666527 30.019998894042963,23.479977120666526 30.10999889404296,23.479977120666526 C32.38999889404296,21.769977120666525 34.96999889404296,18.49997712066653 37.51999889404296,16.879977120666528 C38.74999889404296,16.099977120666527 40.549998894042965,15.829977120666527 40.549998894042965,17.599977120666527 C40.549998894042965,19.669977120666527 38.659998894042964,21.019977120666525 37.759998894042965,22.519977120666525 C37.759998894042965,22.519977120666525 44.71999889404296,17.119977120666526 44.71999889404296,17.119977120666526 C45.259998894042965,16.729977120666526 45.619998894042965,16.549977120666526 45.76999889404296,16.549977120666526 C46.489998894042955,17.089977120666525 47.479998894042964,18.49997712066653 46.42999889404297,19.63997712066653 C46.42999889404297,19.63997712066653 45.229998894042964,20.959977120666526 45.229998894042964,20.959977120666526 C44.53999889404297,21.739977120666527 43.51999889404296,22.63997712066653 43.489998894042955,23.869977120666526 C43.489998894042955,24.379977120666524 43.96999889404296,24.709977120666526 44.53999889404297,24.649977120666527 C44.53999889404297,24.649977120666527 44.53999889404297,24.649977120666527 44.53999889404297,24.649977120666527 M65.83999889404298,24.649977120666527 C67.45999889404297,24.49997712066653 68.32999889404297,23.719977120666528 69.88999889404298,22.759977120666527 C69.82999889404297,23.149977120666527 69.82999889404297,23.56997712066653 69.82999889404297,24.019977120666525 C67.81999889404298,25.369977120666526 65.68999889404297,27.289977120666528 62.86999889404298,27.799977120666526 C61.249998894042974,27.709977120666526 60.94999889404298,25.609977120666528 61.87999889404297,24.199977120666524 C62.23999889404297,23.659977120666525 62.779998894042976,22.63997712066653 63.649998894042966,21.259977120666527 C61.18999889404297,22.99997712066653 59.419998894042976,25.489977120666527 56.89999889404297,27.169977120666527 C55.54999889404297,28.06997712066653 54.319998894042975,26.659977120666525 54.97999889404297,25.159977120666525 C55.669998894042976,23.629977120666524 56.65999889404297,22.279977120666526 57.55999889404298,20.959977120666526 C57.679998894042974,20.779977120666526 57.64999889404297,20.509977120666527 57.43999889404297,20.479977120666526 C55.15999889404297,21.739977120666527 53.14999889404297,24.949977120666524 51.46999889404297,26.659977120666525 C51.01999889404298,27.109977120666528 50.83999889404298,27.31997712066653 50.26999889404298,27.31997712066653 C48.319998894042975,27.31997712066653 48.289998894042974,23.359977120666528 49.069998894042975,21.589977120666525 C49.849998894042976,19.819977120666525 51.37999889404298,17.38997712066653 53.65999889404297,17.329977120666527 C55.00999889404297,17.299977120666526 55.12999889404298,18.169977120666527 54.319998894042975,19.039977120666528 C53.179998894042974,20.239977120666527 51.64999889404297,21.259977120666527 51.22999889404297,23.119977120666526 C51.22999889404297,23.239977120666527 51.319998894042975,23.479977120666526 51.40999889404297,23.479977120666526 C53.68999889404297,21.769977120666525 56.26999889404297,18.49997712066653 58.819998894042975,16.879977120666528 C60.04999889404297,16.099977120666527 61.84999889404297,15.829977120666527 61.84999889404297,17.599977120666527 C61.84999889404297,19.669977120666527 59.95999889404297,21.019977120666525 59.05999889404298,22.519977120666525 C59.05999889404298,22.519977120666525 66.01999889404297,17.119977120666526 66.01999889404297,17.119977120666526 C66.55999889404298,16.729977120666526 66.91999889404298,16.549977120666526 67.06999889404298,16.549977120666526 C67.78999889404298,17.089977120666525 68.77999889404298,18.49997712066653 67.72999889404298,19.63997712066653 C67.72999889404298,19.63997712066653 66.52999889404298,20.959977120666526 66.52999889404298,20.959977120666526 C65.83999889404298,21.739977120666527 64.81999889404298,22.63997712066653 64.78999889404298,23.869977120666526 C64.78999889404298,24.379977120666524 65.26999889404297,24.709977120666526 65.83999889404298,24.649977120666527 C65.83999889404298,24.649977120666527 65.83999889404298,24.649977120666527 65.83999889404298,24.649977120666527 M81.22999889404298,16.81997712066653 C82.03999889404297,16.309977120666527 82.30999889404298,17.539977120666528 82.36999889404296,18.229977120666526 C81.55999889404298,20.869977120666526 79.78999889404297,22.729977120666526 78.37999889404297,24.859977120666528 C78.37999889404297,24.859977120666528 76.12999889404297,28.24997712066653 76.12999889404297,28.24997712066653 C78.34999889404297,26.269977120666525 80.71999889404297,24.559977120666527 83.08999889404296,22.759977120666527 C83.05999889404298,23.17997712066653 83.02999889404298,23.599977120666527 83.05999889404298,24.019977120666525 C79.84999889404297,26.509977120666527 77.08999889404298,29.269977120666525 74.59999889404297,32.479977120666526 C74.17999889404297,33.019977120666525 73.60999889404297,33.67997712066653 73.00999889404297,33.82997712066653 C71.80999889404298,33.379977120666524 71.98999889404297,31.309977120666524 72.76999889404297,30.439977120666526 C72.76999889404297,30.439977120666526 76.96999889404297,23.389977120666526 76.96999889404297,23.389977120666526 C76.96999889404297,23.389977120666526 74.44999889404298,25.399977120666527 74.44999889404298,25.399977120666527 C73.69999889404298,25.939977120666526 72.70999889404297,26.779977120666526 71.92999889404297,26.989977120666527 C69.79999889404297,26.539977120666528 69.40999889404297,23.17997712066653 70.45999889404297,21.13997712066653 C71.50999889404297,19.099977120666527 73.30999889404298,17.119977120666526 75.43999889404297,16.189977120666526 C76.45999889404297,16.42997712066653 77.11999889404296,17.479977120666526 76.27999889404298,18.529977120666526 C75.13999889404298,19.99997712066653 73.60999889404297,21.319977120666525 72.13999889404298,22.489977120666527 C71.83999889404298,22.969977120666528 71.62999889404297,23.509977120666527 71.56999889404297,24.229977120666526 C73.93999889404297,23.869977120666526 75.13999889404298,22.579977120666527 76.57999889404297,21.199977120666524 C76.57999889404297,21.199977120666524 81.22999889404298,16.81997712066653 81.22999889404298,16.81997712066653 " transform="matrix(1 0 0 1 53.205 111.335)"/></g><g id="numberText" type="numberText" text="16" font-size="120" font-family="Brush-Script" font-id="1" fill="#FF0000" posX="33.24000930786133" posY="27.93999481201172" text-anchor="middle" font-weight="normal" font-style="normal" lineHeight="1" shapeId="0" shapeVal="0" fill-opacity="1" style="display: inline;" stroke-width="1" stroke="null" stroke-dasharray="none" transform=""><path id="svg_27" fill="#FF0000" d="M14.660008851318352,75.01999103271481 C15.140008851318356,77.41999103271482 15.860008851318355,81.61999103271482 12.380008851318351,80.29999103271481 C8.420008851318357,77.29999103271481 0.5000088513183556,77.29999103271481 1.340008851318352,70.21999103271482 C4.10000885131835,45.97999103271482 20.06000885131835,31.33999103271482 31.220008851318354,14.179991032714824 C31.220008851318354,14.179991032714824 16.580008851318354,19.69999103271482 16.580008851318354,19.69999103271482 C12.74000885131835,11.539991032714823 25.70000885131835,9.019991032714827 31.46000885131835,5.2999910327148285 C34.82000885131835,3.1399910327148177 38.30000885131835,1.3399910327148206 41.54000885131836,0.7399910327148262 C46.340008851318345,2.659991032714828 48.620008851318346,8.659991032714828 45.26000885131836,14.779991032714825 C37.94000885131835,27.859991032714824 27.74000885131835,43.69999103271482 20.540008851318355,57.61999103271482 C20.540008851318355,57.61999103271482 18.860008851318355,61.09999103271482 18.860008851318355,61.09999103271482 C16.940008851318353,65.17999103271482 14.780008851318357,69.97999103271482 14.660008851318352,75.01999103271481 C14.660008851318352,75.01999103271481 14.660008851318352,75.01999103271481 14.660008851318352,75.01999103271481 M80.30000885131835,78.25999103271482 C64.22000885131835,78.25999103271482 54.74000885131835,57.37999103271482 62.90000885131836,40.45999103271482 C70.10000885131836,25.459991032714825 86.18000885131835,12.139991032714818 99.98000885131836,3.7399910327148262 C103.70000885131836,1.459991032714825 106.10000885131836,0.49999103271481715 111.14000885131836,0.49999103271481715 C115.46000885131835,0.49999103271481715 118.34000885131837,0.6199910327148217 119.66000885131837,0.7399910327148262 C123.02000885131835,0.8599910327148166 121.22000885131837,3.6199910327148217 119.78000885131837,4.219991032714816 C105.86000885131836,10.819991032714825 94.70000885131836,21.37999103271482 84.38000885131835,30.97999103271482 C90.74000885131835,28.579991032714823 92.78000885131836,26.65999103271482 99.02000885131835,26.539991032714823 C108.02000885131835,26.29999103271482 114.86000885131836,33.73999103271482 113.66000885131837,43.57999103271482 C111.50000885131834,59.77999103271482 98.66000885131837,70.33999103271482 85.34000885131836,76.69999103271482 C83.06000885131836,77.65999103271483 81.38000885131835,78.25999103271482 80.30000885131835,78.25999103271482 C80.30000885131835,78.25999103271482 80.30000885131835,78.25999103271482 80.30000885131835,78.25999103271482 M80.42000885131836,65.29999103271481 C90.26000885131836,60.01999103271482 101.42000885131836,52.819991032714825 101.42000885131836,38.77999103271482 C101.42000885131836,36.73999103271482 100.94000885131834,34.459991032714825 98.54000885131836,34.819991032714825 C90.26000885131836,36.01999103271482 82.22000885131835,44.05999103271482 76.22000885131835,49.819991032714825 C73.82000885131836,52.099991032714826 72.98000885131836,54.25999103271482 72.98000885131836,59.05999103271482 C72.98000885131836,65.17999103271482 75.14000885131836,68.17999103271482 80.42000885131836,65.29999103271481 C80.42000885131836,65.29999103271481 80.42000885131836,65.29999103271481 80.42000885131836,65.29999103271481 " transform="matrix(1 0 0 1 33.24 27.94)" style="pointer-events:inherit"/></g></g></svg>