<?xml version="1.0"?>
<svg xmlns="http://www.w3.org/2000/svg" width="202" height="155"><g><title>Layer 1</title><g clip-id="910" display="null" id="svg_4"><path id="svg_5" d="m96.02947,84.35736c-0.76808,1.82173 -1.67034,3.6016 -2.27596,5.47749c-1.15458,3.577 -2.08884,7.22415 -3.20649,10.81345c-2.5418,8.16827 -5.61904,16.12971 -10.61528,23.136c-2.54427,3.56963 -6.02771,6.20988 -10.41094,7.34233c-2.70676,0.69916 -4.95069,-0.78656 -6.42407,-2.52213c-2.01745,-2.3781 -3.63362,-5.23256 -4.85837,-8.12025c-3.54868,-8.37135 -5.45164,-17.17229 -6.34527,-26.22679c-0.65607,-6.63702 0.95639,-10.02814 6.73426,-13.43772c2.94921,-1.74049 5.7803,-3.68285 8.62245,-5.59689c0.47511,-0.32004 0.7336,-0.96134 1.30475,-1.7442c-3.88965,-0.33727 -7.5565,-0.47266 -11.1581,-1.0315c-2.5369,-0.39265 -5.39627,-0.79515 -7.3571,-2.22792c-1.97068,-1.43893 -3.55731,-3.97949 -4.3303,-6.35514c-1.35154,-4.15429 -2.35595,-8.51413 -2.74738,-12.85674c-0.38035,-4.21953 -2.29071,-7.71036 -4.01273,-11.30704c-2.2784,-4.75497 -0.51451,-13.40081 4.0866,-15.64105c2.0716,-1.00934 5.23624,-0.88502 7.52079,-0.12309c5.46888,1.82297 10.92793,3.92534 15.99432,6.65301c7.64265,4.11737 15.02189,8.71355 19.62914,16.59746c3.3653,5.75938 7.06292,11.32552 10.51926,16.83008c0.61056,-0.98964 0.61056,-0.98964 -0.51204,-8.54983c0.8124,1.43155 1.31705,2.43595 1.9325,3.36529c0.44191,0.66838 1.03274,1.23829 1.55708,1.8525c0.56377,-0.56374 1.14844,-1.10903 1.68387,-1.69985c0.25974,-0.28558 0.42836,-0.65485 0.57854,-0.89364c0,2.44825 0,4.88176 0,7.31524c0.18585,0.01723 0.3705,0.03445 0.55514,0.0517c1.0598,-1.98668 2.16515,-3.9512 3.17203,-5.96371c3.74932,-7.49496 8.18056,-14.55417 14.33753,-20.28647c2.68829,-2.50241 5.82585,-4.71682 9.11604,-6.34036c6.7527,-3.33205 13.65437,-6.41053 20.67421,-9.12959c4.02747,-1.56079 9.13078,-0.30896 10.60051,5.67937c1.36627,5.56982 0.56496,10.17338 -2.27597,15.08467c-1.52879,2.64152 -1.17058,6.31821 -1.98665,9.44346c-1.22968,4.70697 -2.42487,9.46809 -4.23183,13.96704c-1.49432,3.72348 -5.6449,3.76654 -8.90189,4.43492c-3.8441,0.78902 -7.85315,0.77303 -12.40993,1.76144c0.68684,0.47266 1.3786,0.9367 2.05684,1.41798c4.02502,2.85446 8.19902,5.52674 12.01849,8.63354c2.87169,2.33501 4.41524,5.36057 3.02312,9.42131c-0.7435,2.16759 -0.36313,4.69711 -0.93181,6.95089c-1.77374,7.02599 -3.43668,14.10979 -5.79999,20.94376c-1.13123,3.26927 -2.78062,6.71582 -6.30099,8.56459c-2.47659,1.30229 -8.12149,0.64871 -10.44295,-1.40445c-4.86085,-4.29951 -7.96886,-9.75366 -10.65839,-15.57703c-3.53883,-7.65988 -5.72366,-15.7309 -7.95036,-23.813c-0.46282,-1.68139 -1.43893,-3.22002 -2.78555,-4.89775c-0.0886,2.66736 -0.05785,5.34457 -0.3077,7.99718c-0.17109,1.8008 -0.45913,3.69267 -1.19891,5.31255c-0.83331,1.8205 -2.63905,1.72819 -3.25203,-0.20802c-0.73363,-2.32269 -0.96994,-4.8276 -1.20628,-7.27462c-0.1834,-1.89805 -0.03693,-3.82687 -0.03693,-5.74337c-0.26218,-0.02463 -0.52315,-0.05046 -0.78531,-0.07508z" fill-rule="evenodd"></path></g></g></svg>
