<?xml version="1.0"?>
<svg xmlns="http://www.w3.org/2000/svg" width="400" height="218"><g><title>Layer 1</title><g clip-id="1" display="null" id="svg_4"><path stroke-width="0" id="svg_5" d="m258.34799,92.84487l13.03717,-8.89635l-18.59402,-5.44278c-15.52565,-27.285 -47.2132,-13.05594 -57.80345,12.89355c-12.77811,31.27816 -49.37424,42.68718 -49.37424,42.68718c26.04613,30.97884 49.53796,36.57329 65.20593,35.33844c15.67599,-1.24426 57.98601,-13.56601 49.17821,-68.56687c-0.46036,-2.85763 -1.01605,-5.52063 -1.6496,-8.01317z" fill="#2BA9E1"></path><path stroke-width="0" id="svg_6" d="m252.79114,78.50574c2.21872,3.89922 4.10724,8.65609 5.55685,14.33913l13.03717,-8.89635l-18.59402,-5.44278zm-20.72147,34.53712c0,0 -43.48849,-8.96749 -48.47624,15.2317c-4.9864,24.19385 35.16663,38.23634 48.47624,-15.2317zm8.36751,-35.20956c0.29128,2.59454 -1.04559,4.88036 -2.99184,5.10722c-1.95297,0.21877 -3.77571,-1.71136 -4.06432,-4.30187c-0.29796,-2.59454 1.03891,-4.88039 2.99187,-5.10722c1.95697,-0.21073 3.76765,1.70731 4.06429,4.30187z" fill="#2B3277"></path></g></g></svg>
