<svg xmlns="http://www.w3.org/2000/svg" width="189" height="237" x="0" y="0" id="svgcontent" overflow="hidden" viewBox="0 0 189 237"><defs><mask id="canvasMaskImageDef" maskUnits="objectBoundingBox" x="0" y="0"><image id="canvasMaskImage" preserveAspectRatio="none" style="pointer-events:none" x="-105" y="-85" width="400" height="344.82758620689657" xlink:href="http://192.168.0.222/work/jan_langius/print_commerce/source/designnbuy/uploads/productimage/5826b9c0eeec0.png" xmlns:xlink="http://www.w3.org/1999/xlink"/></mask></defs><g style="pointer-events:all" mask="url(#canvasMaskImageDef)"><title style="pointer-events:inherit">Layer 1</title><g id="svg_1" type="text" text="Digital@##@#@  Printing@##@#@Method" font-size="12.021367344403494" font-family="Kroftsmann" font-id="1" fill="000000" text-anchor="start" font-weight="normal" font-style="normal" lineHeight="1" shapeId="0" shapeVal="0" fill-opacity="1" display="null" elemBBoxWidth="173.65625" xscale="12.30513959438401" yscale="NaN" elemBBoxHeight="165.80079650878906" stroke-width="0" stroke="null" stroke-dasharray="none"><path id="svg_8" fill="#000000" stroke-width="0" d="M27.74254756600226,48.190587388992526 C27.74254756600226,48.190587388992526 24.122373821841848,42.022296690018266 24.122373821841848,42.022296690018266 C24.122373821841848,42.022296690018266 9.875232551275872,42.022296690018266 9.875232551275872,42.022296690018266 C9.875232551275872,42.022296690018266 9.875232551275872,78.12936052833993 9.875232551275872,78.12936052833993 C9.875232551275872,78.12936052833993 24.122373821841848,78.12936052833993 24.122373821841848,78.12936052833993 C24.122373821841848,78.12936052833993 27.74254756600226,71.20883978030133 27.74254756600226,71.20883978030133 C27.74254756600226,71.20883978030133 27.74254756600226,48.190587388992526 27.74254756600226,48.190587388992526 C27.74254756600226,48.190587388992526 27.74254756600226,48.190587388992526 27.74254756600226,48.190587388992526 M20.502198410101755,49.695048561282874 C20.502198410101755,49.695048561282874 20.502198410101755,69.70437968217266 20.502198410101755,69.70437968217266 C20.502198410101755,69.70437968217266 16.414903913152557,69.70437968217266 16.414903913152557,69.70437968217266 C16.414903913152557,69.70437968217266 16.414903913152557,49.695048561282874 16.414903913152557,49.695048561282874 C16.414903913152557,49.695048561282874 20.502198410101755,49.695048561282874 20.502198410101755,49.695048561282874 C20.502198410101755,49.695048561282874 20.502198410101755,49.695048561282874 20.502198410101755,49.695048561282874 M29.143906489209257,42.022296690018266 C29.143906489209257,42.022296690018266 29.143906489209257,50.44727861034721 29.143906489209257,50.44727861034721 C29.143906489209257,50.44727861034721 31.479501915254787,50.44727861034721 31.479501915254787,50.44727861034721 C31.479501915254787,50.44727861034721 31.479501915254787,69.70437968217266 31.479501915254787,69.70437968217266 C31.479501915254787,69.70437968217266 29.143906489209257,69.70437968217266 29.143906489209257,69.70437968217266 C29.143906489209257,69.70437968217266 29.143906489209257,78.12936052833993 29.143906489209257,78.12936052833993 C29.143906489209257,78.12936052833993 40.35477120454652,78.12936052833993 40.35477120454652,78.12936052833993 C40.35477120454652,78.12936052833993 40.35477120454652,69.70437968217266 40.35477120454652,69.70437968217266 C40.35477120454652,69.70437968217266 38.01917244334163,69.70437968217266 38.01917244334163,69.70437968217266 C38.01917244334163,69.70437968217266 38.01917244334163,50.44727861034721 38.01917244334163,50.44727861034721 C38.01917244334163,50.44727861034721 40.35477120454652,50.44727861034721 40.35477120454652,50.44727861034721 C40.35477120454652,50.44727861034721 40.35477120454652,42.022296690018266 40.35477120454652,42.022296690018266 C40.35477120454652,42.022296690018266 29.143906489209257,42.022296690018266 29.143906489209257,42.022296690018266 C29.143906489209257,42.022296690018266 29.143906489209257,42.022296690018266 29.143906489209257,42.022296690018266 M41.75612846017384,48.190587388992526 C41.75612846017384,48.190587388992526 45.37630387191393,42.022296690018266 45.37630387191393,42.022296690018266 C45.37630387191393,42.022296690018266 58.455648263246985,42.022296690018266 58.455648263246985,42.022296690018266 C58.455648263246985,42.022296690018266 58.455648263246985,49.695048561282874 58.455648263246985,49.695048561282874 C58.455648263246985,49.695048561282874 48.295798988260685,49.695048561282874 48.295798988260685,49.695048561282874 C48.295798988260685,49.695048561282874 48.295798988260685,69.70437968217266 48.295798988260685,69.70437968217266 C48.295798988260685,69.70437968217266 52.38309348520988,69.70437968217266 52.38309348520988,69.70437968217266 C52.38309348520988,69.70437968217266 52.38309348520988,61.730735791282314 52.38309348520988,61.730735791282314 C52.38309348520988,61.730735791282314 59.623440973530705,61.730735791282314 59.623440973530705,61.730735791282314 C59.623440973530705,61.730735791282314 59.623440973530705,78.12936052833993 59.623440973530705,78.12936052833993 C59.623440973530705,78.12936052833993 45.37630387191393,78.12936052833993 45.37630387191393,78.12936052833993 C45.37630387191393,78.12936052833993 41.75612846017384,71.20883978030133 41.75612846017384,71.20883978030133 C41.75612846017384,71.20883978030133 41.75612846017384,48.190587388992526 41.75612846017384,48.190587388992526 C41.75612846017384,48.190587388992526 41.75612846017384,48.190587388992526 41.75612846017384,48.190587388992526 M61.024801564317386,42.022296690018266 C61.024801564317386,42.022296690018266 61.024801564317386,50.44727861034721 61.024801564317386,50.44727861034721 C61.024801564317386,50.44727861034721 63.36040032552228,50.44727861034721 63.36040032552228,50.44727861034721 C63.36040032552228,50.44727861034721 63.36040032552228,69.70437968217266 63.36040032552228,69.70437968217266 C63.36040032552228,69.70437968217266 61.024801564317386,69.70437968217266 61.024801564317386,69.70437968217266 C61.024801564317386,69.70437968217266 61.024801564317386,78.12936052833993 61.024801564317386,78.12936052833993 C61.024801564317386,78.12936052833993 72.23566627965465,78.12936052833993 72.23566627965465,78.12936052833993 C72.23566627965465,78.12936052833993 72.23566627965465,69.70437968217266 72.23566627965465,69.70437968217266 C72.23566627965465,69.70437968217266 69.90006751844976,69.70437968217266 69.90006751844976,69.70437968217266 C69.90006751844976,69.70437968217266 69.90006751844976,50.44727861034721 69.90006751844976,50.44727861034721 C69.90006751844976,50.44727861034721 72.23566627965465,50.44727861034721 72.23566627965465,50.44727861034721 C72.23566627965465,50.44727861034721 72.23566627965465,42.022296690018266 72.23566627965465,42.022296690018266 C72.23566627965465,42.022296690018266 61.024801564317386,42.022296690018266 61.024801564317386,42.022296690018266 C61.024801564317386,42.022296690018266 61.024801564317386,42.022296690018266 61.024801564317386,42.022296690018266 M73.63702687044133,42.022296690018266 C73.63702687044133,42.022296690018266 90.45332060828787,42.022296690018266 90.45332060828787,42.022296690018266 C90.45332060828787,42.022296690018266 90.45332060828787,49.695048561282874 90.45332060828787,49.695048561282874 C90.45332060828787,49.695048561282874 85.66534581594533,49.695048561282874 85.66534581594533,49.695048561282874 C85.66534581594533,49.695048561282874 85.66534581594533,78.12936052833993 85.66534581594533,78.12936052833993 C85.66534581594533,78.12936052833993 79.00889468276637,78.12936052833993 79.00889468276637,78.12936052833993 C79.00889468276637,78.12936052833993 79.00889468276637,49.695048561282874 79.00889468276637,49.695048561282874 C79.00889468276637,49.695048561282874 73.63702687044133,49.695048561282874 73.63702687044133,49.695048561282874 C73.63702687044133,49.695048561282874 73.63702687044133,42.022296690018266 73.63702687044133,42.022296690018266 C73.63702687044133,42.022296690018266 73.63702687044133,42.022296690018266 73.63702687044133,42.022296690018266 M106.6857213261519,42.022296690018266 C106.6857213261519,42.022296690018266 95.47485661081464,42.022296690018266 95.47485661081464,42.022296690018266 C95.47485661081464,42.022296690018266 91.85468119907455,48.190587388992526 91.85468119907455,48.190587388992526 C91.85468119907455,48.190587388992526 91.85468119907455,78.12936052833993 91.85468119907455,78.12936052833993 C91.85468119907455,78.12936052833993 98.39434839200203,78.12936052833993 98.39434839200203,78.12936052833993 C98.39434839200203,78.12936052833993 98.39434839200203,67.44768846081797 98.39434839200203,67.44768846081797 C98.39434839200203,67.44768846081797 103.18232318434457,67.44768846081797 103.18232318434457,67.44768846081797 C103.18232318434457,67.44768846081797 103.18232318434457,78.12936052833993 103.18232318434457,78.12936052833993 C103.18232318434457,78.12936052833993 109.72199704759078,78.12936052833993 109.72199704759078,78.12936052833993 C109.72199704759078,78.12936052833993 109.72199704759078,48.190587388992526 109.72199704759078,48.190587388992526 C109.72199704759078,48.190587388992526 106.6857213261519,42.022296690018266 106.6857213261519,42.022296690018266 M103.18232318434457,59.77493658955336 C103.18232318434457,59.77493658955336 98.39434839200203,59.77493658955336 98.39434839200203,59.77493658955336 C98.39434839200203,59.77493658955336 98.39434839200203,49.695048561282874 98.39434839200203,49.695048561282874 C98.39434839200203,49.695048561282874 103.18232318434457,49.695048561282874 103.18232318434457,49.695048561282874 C103.18232318434457,49.695048561282874 103.18232318434457,59.77493658955336 103.18232318434457,59.77493658955336 C103.18232318434457,59.77493658955336 103.18232318434457,59.77493658955336 103.18232318434457,59.77493658955336 M117.66302483130494,42.022296690018266 C117.66302483130494,42.022296690018266 111.12335096805873,42.022296690018266 111.12335096805873,42.022296690018266 C111.12335096805873,42.022296690018266 111.12335096805873,78.12936052833993 111.12335096805873,78.12936052833993 C111.12335096805873,78.12936052833993 128.99066681657496,78.12936052833993 128.99066681657496,78.12936052833993 C128.99066681657496,78.12936052833993 128.99066681657496,70.45661080539867 128.99066681657496,70.45661080539867 C128.99066681657496,70.45661080539867 117.66302483130494,70.45661080539867 117.66302483130494,70.45661080539867 C117.66302483130494,70.45661080539867 117.66302483130494,42.022296690018266 117.66302483130494,42.022296690018266 C117.66302483130494,42.022296690018266 117.66302483130494,42.022296690018266 117.66302483130494,42.022296690018266 "/><path id="svg_9" fill="#000000" stroke-width="0" d="M57.17106827755242,124.6174391835475 C57.17106827755242,124.6174391835475 57.17106827755242,113.03308998298667 57.17106827755242,113.03308998298667 C57.17106827755242,113.03308998298667 53.55089286581233,106.8647992840124 53.55089286581233,106.8647992840124 C53.55089286581233,106.8647992840124 39.303752429036194,106.8647992840124 39.303752429036194,106.8647992840124 C39.303752429036194,106.8647992840124 39.303752429036194,142.97186312233407 39.303752429036194,142.97186312233407 C39.303752429036194,142.97186312233407 45.84342295712304,142.97186312233407 45.84342295712304,142.97186312233407 C45.84342295712304,142.97186312233407 45.84342295712304,131.3875149959349 45.84342295712304,131.3875149959349 C45.84342295712304,131.3875149959349 53.55089286581233,131.3875149959349 53.55089286581233,131.3875149959349 C53.55089286581233,131.3875149959349 57.17106827755242,124.6174391835475 57.17106827755242,124.6174391835475 M49.93071745407224,123.11297908541883 C49.93071745407224,123.11297908541883 45.84342295712304,123.11297908541883 45.84342295712304,123.11297908541883 C45.84342295712304,123.11297908541883 45.84342295712304,114.53755115527701 45.84342295712304,114.53755115527701 C45.84342295712304,114.53755115527701 49.93071745407224,114.53755115527701 49.93071745407224,114.53755115527701 C49.93071745407224,114.53755115527701 49.93071745407224,123.11297908541883 49.93071745407224,123.11297908541883 C49.93071745407224,123.11297908541883 49.93071745407224,123.11297908541883 49.93071745407224,123.11297908541883 M72.81956596995587,129.13082162625687 C72.81956596995587,129.13082162625687 76.43974138169597,124.6174391835475 76.43974138169597,124.6174391835475 C76.43974138169597,124.6174391835475 76.43974138169597,113.03308998298667 76.43974138169597,113.03308998298667 C76.43974138169597,113.03308998298667 72.81956596995587,106.8647992840124 72.81956596995587,106.8647992840124 C72.81956596995587,106.8647992840124 58.57242553317974,106.8647992840124 58.57242553317974,106.8647992840124 C58.57242553317974,106.8647992840124 58.57242553317974,142.97186312233407 58.57242553317974,142.97186312233407 C58.57242553317974,142.97186312233407 65.11209939642595,142.97186312233407 65.11209939642595,142.97186312233407 C65.11209939642595,142.97186312233407 65.11209939642595,131.3875149959349 65.11209939642595,131.3875149959349 C65.11209939642595,131.3875149959349 66.27989210670967,131.3875149959349 66.27989210670967,131.3875149959349 C66.27989210670967,131.3875149959349 71.0678668990522,142.97186312233407 71.0678668990522,142.97186312233407 C71.0678668990522,142.97186312233407 78.77534014290086,142.97186312233407 78.77534014290086,142.97186312233407 C78.77534014290086,142.97186312233407 72.81956596995587,129.13082162625687 72.81956596995587,129.13082162625687 M69.19939055821578,123.11297908541883 C69.19939055821578,123.11297908541883 65.11209939642595,123.11297908541883 65.11209939642595,123.11297908541883 C65.11209939642595,123.11297908541883 65.11209939642595,114.53755115527701 65.11209939642595,114.53755115527701 C65.11209939642595,114.53755115527701 69.19939055821578,114.53755115527701 69.19939055821578,114.53755115527701 C69.19939055821578,114.53755115527701 69.19939055821578,123.11297908541883 69.19939055821578,123.11297908541883 C69.19939055821578,123.11297908541883 69.19939055821578,123.11297908541883 69.19939055821578,123.11297908541883 M80.17669406336881,106.8647992840124 C80.17669406336881,106.8647992840124 80.17669406336881,115.28978120434135 80.17669406336881,115.28978120434135 C80.17669406336881,115.28978120434135 82.5122928245737,115.28978120434135 82.5122928245737,115.28978120434135 C82.5122928245737,115.28978120434135 82.5122928245737,134.5468822761668 82.5122928245737,134.5468822761668 C82.5122928245737,134.5468822761668 80.17669406336881,134.5468822761668 80.17669406336881,134.5468822761668 C80.17669406336881,134.5468822761668 80.17669406336881,142.97186312233407 80.17669406336881,142.97186312233407 C80.17669406336881,142.97186312233407 91.38755877870608,142.97186312233407 91.38755877870608,142.97186312233407 C91.38755877870608,142.97186312233407 91.38755877870608,134.5468822761668 91.38755877870608,134.5468822761668 C91.38755877870608,134.5468822761668 89.05196668781991,134.5468822761668 89.05196668781991,134.5468822761668 C89.05196668781991,134.5468822761668 89.05196668781991,115.28978120434135 89.05196668781991,115.28978120434135 C89.05196668781991,115.28978120434135 91.38755877870608,115.28978120434135 91.38755877870608,115.28978120434135 C91.38755877870608,115.28978120434135 91.38755877870608,106.8647992840124 91.38755877870608,106.8647992840124 C91.38755877870608,106.8647992840124 80.17669406336881,106.8647992840124 80.17669406336881,106.8647992840124 C80.17669406336881,106.8647992840124 80.17669406336881,106.8647992840124 80.17669406336881,106.8647992840124 M92.78891936949276,142.97186312233407 C92.78891936949276,142.97186312233407 92.78891936949276,106.8647992840124 92.78891936949276,106.8647992840124 C92.78891936949276,106.8647992840124 99.32858656242024,106.8647992840124 99.32858656242024,106.8647992840124 C99.32858656242024,106.8647992840124 105.28436073536523,121.45807190331561 105.28436073536523,121.45807190331561 C105.28436073536523,121.45807190331561 105.28436073536523,106.8647992840124 105.28436073536523,106.8647992840124 C105.28436073536523,106.8647992840124 112.52471155884541,106.8647992840124 112.52471155884541,106.8647992840124 C112.52471155884541,106.8647992840124 112.52471155884541,142.97186312233407 112.52471155884541,142.97186312233407 C112.52471155884541,142.97186312233407 105.28436073536523,142.97186312233407 105.28436073536523,142.97186312233407 C105.28436073536523,142.97186312233407 99.32858656242024,127.6263615281282 99.32858656242024,127.6263615281282 C99.32858656242024,127.6263615281282 99.32858656242024,142.97186312233407 99.32858656242024,142.97186312233407 C99.32858656242024,142.97186312233407 92.78891936949276,142.97186312233407 92.78891936949276,142.97186312233407 C92.78891936949276,142.97186312233407 92.78891936949276,142.97186312233407 92.78891936949276,142.97186312233407 M113.80928820938061,106.8647992840124 C113.80928820938061,106.8647992840124 130.62558861754587,106.8647992840124 130.62558861754587,106.8647992840124 C130.62558861754587,106.8647992840124 130.62558861754587,114.53755115527701 130.62558861754587,114.53755115527701 C130.62558861754587,114.53755115527701 125.83760715488461,114.53755115527701 125.83760715488461,114.53755115527701 C125.83760715488461,114.53755115527701 125.83760715488461,142.97186312233407 125.83760715488461,142.97186312233407 C125.83760715488461,142.97186312233407 119.18116269202437,142.97186312233407 119.18116269202437,142.97186312233407 C119.18116269202437,142.97186312233407 119.18116269202437,114.53755115527701 119.18116269202437,114.53755115527701 C119.18116269202437,114.53755115527701 113.80928820938061,114.53755115527701 113.80928820938061,114.53755115527701 C113.80928820938061,114.53755115527701 113.80928820938061,106.8647992840124 113.80928820938061,106.8647992840124 C113.80928820938061,106.8647992840124 113.80928820938061,106.8647992840124 113.80928820938061,106.8647992840124 M132.02694253801383,106.8647992840124 C132.02694253801383,106.8647992840124 132.02694253801383,115.28978120434135 132.02694253801383,115.28978120434135 C132.02694253801383,115.28978120434135 134.36254129921872,115.28978120434135 134.36254129921872,115.28978120434135 C134.36254129921872,115.28978120434135 134.36254129921872,134.5468822761668 134.36254129921872,134.5468822761668 C134.36254129921872,134.5468822761668 132.02694253801383,134.5468822761668 132.02694253801383,134.5468822761668 C132.02694253801383,134.5468822761668 132.02694253801383,142.97186312233407 132.02694253801383,142.97186312233407 C132.02694253801383,142.97186312233407 143.23781392366982,142.97186312233407 143.23781392366982,142.97186312233407 C143.23781392366982,142.97186312233407 143.23781392366982,134.5468822761668 143.23781392366982,134.5468822761668 C143.23781392366982,134.5468822761668 140.90221516246493,134.5468822761668 140.90221516246493,134.5468822761668 C140.90221516246493,134.5468822761668 140.90221516246493,115.28978120434135 140.90221516246493,115.28978120434135 C140.90221516246493,115.28978120434135 143.23781392366982,115.28978120434135 143.23781392366982,115.28978120434135 C143.23781392366982,115.28978120434135 143.23781392366982,106.8647992840124 143.23781392366982,106.8647992840124 C143.23781392366982,106.8647992840124 132.02694253801383,106.8647992840124 132.02694253801383,106.8647992840124 C132.02694253801383,106.8647992840124 132.02694253801383,106.8647992840124 132.02694253801383,106.8647992840124 M144.63916784413777,142.97186312233407 C144.63916784413777,142.97186312233407 144.63916784413777,106.8647992840124 144.63916784413777,106.8647992840124 C144.63916784413777,106.8647992840124 151.17884170738398,106.8647992840124 151.17884170738398,106.8647992840124 C151.17884170738398,106.8647992840124 157.13460921001024,121.45807190331561 157.13460921001024,121.45807190331561 C157.13460921001024,121.45807190331561 157.13460921001024,106.8647992840124 157.13460921001024,106.8647992840124 C157.13460921001024,106.8647992840124 164.37496003349042,106.8647992840124 164.37496003349042,106.8647992840124 C164.37496003349042,106.8647992840124 164.37496003349042,142.97186312233407 164.37496003349042,142.97186312233407 C164.37496003349042,142.97186312233407 157.13460921001024,142.97186312233407 157.13460921001024,142.97186312233407 C157.13460921001024,142.97186312233407 151.17884170738398,127.6263615281282 151.17884170738398,127.6263615281282 C151.17884170738398,127.6263615281282 151.17884170738398,142.97186312233407 151.17884170738398,142.97186312233407 C151.17884170738398,142.97186312233407 144.63916784413777,142.97186312233407 144.63916784413777,142.97186312233407 C144.63916784413777,142.97186312233407 144.63916784413777,142.97186312233407 144.63916784413777,142.97186312233407 M165.65954335434435,113.03308998298667 C165.65954335434435,113.03308998298667 169.27971209576572,106.8647992840124 169.27971209576572,106.8647992840124 C169.27971209576572,106.8647992840124 182.35905982225813,106.8647992840124 182.35905982225813,106.8647992840124 C182.35905982225813,106.8647992840124 182.35905982225813,114.53755115527701 182.35905982225813,114.53755115527701 C182.35905982225813,114.53755115527701 172.1992038769531,114.53755115527701 172.1992038769531,114.53755115527701 C172.1992038769531,114.53755115527701 172.1992038769531,134.5468822761668 172.1992038769531,134.5468822761668 C172.1992038769531,134.5468822761668 176.2865083793804,134.5468822761668 176.2865083793804,134.5468822761668 C176.2865083793804,134.5468822761668 176.2865083793804,126.57323838527645 176.2865083793804,126.57323838527645 C176.2865083793804,126.57323838527645 183.52685920286058,126.57323838527645 183.52685920286058,126.57323838527645 C183.52685920286058,126.57323838527645 183.52685920286058,142.97186312233407 183.52685920286058,142.97186312233407 C183.52685920286058,142.97186312233407 169.27971209576572,142.97186312233407 169.27971209576572,142.97186312233407 C169.27971209576572,142.97186312233407 165.65954335434435,136.05134237429547 165.65954335434435,136.05134237429547 C165.65954335434435,136.05134237429547 165.65954335434435,113.03308998298667 165.65954335434435,113.03308998298667 C165.65954335434435,113.03308998298667 165.65954335434435,113.03308998298667 165.65954335434435,113.03308998298667 "/><path id="svg_10" fill="#000000" stroke-width="0" d="M23.538474131540625,204.05274518908118 C23.538474131540625,204.05274518908118 27.74254756600226,190.21170369300398 27.74254756600226,190.21170369300398 C27.74254756600226,190.21170369300398 27.74254756600226,207.81389650856454 27.74254756600226,207.81389650856454 C27.74254756600226,207.81389650856454 34.282219761668784,207.81389650856454 34.282219761668784,207.81389650856454 C34.282219761668784,207.81389650856454 34.282219761668784,171.70683267024287 34.282219761668784,171.70683267024287 C34.282219761668784,171.70683267024287 26.574749852979494,171.70683267024287 26.574749852979494,171.70683267024287 C26.574749852979494,171.70683267024287 22.37067641851786,184.79564411725573 22.37067641851786,184.79564411725573 C22.37067641851786,184.79564411725573 17.58270162617532,171.70683267024287 17.58270162617532,171.70683267024287 C17.58270162617532,171.70683267024287 9.875232551275872,171.70683267024287 9.875232551275872,171.70683267024287 C9.875232551275872,171.70683267024287 9.875232551275872,207.81389650856454 9.875232551275872,207.81389650856454 C9.875232551275872,207.81389650856454 16.414903913152557,207.81389650856454 16.414903913152557,207.81389650856454 C16.414903913152557,207.81389650856454 16.414903913152557,190.21170369300398 16.414903913152557,190.21170369300398 C16.414903913152557,190.21170369300398 21.202877037915414,204.05274518908118 21.202877037915414,204.05274518908118 C21.202877037915414,204.05274518908118 23.538474131540625,204.05274518908118 23.538474131540625,204.05274518908118 C23.538474131540625,204.05274518908118 23.538474131540625,204.05274518908118 23.538474131540625,204.05274518908118 M35.6835770172961,171.70683267024287 C35.6835770172961,171.70683267024287 50.51461714437346,171.70683267024287 50.51461714437346,171.70683267024287 C50.51461714437346,171.70683267024287 49.58037897395525,179.53003055132035 49.58037897395525,179.53003055132035 C49.58037897395525,179.53003055132035 42.22324754538295,179.53003055132035 42.22324754538295,179.53003055132035 C42.22324754538295,179.53003055132035 42.22324754538295,184.79564411725573 42.22324754538295,184.79564411725573 C42.22324754538295,184.79564411725573 50.51461714437346,184.79564411725573 50.51461714437346,184.79564411725573 C50.51461714437346,184.79564411725573 49.58037897395525,192.46839491435867 49.58037897395525,192.46839491435867 C49.58037897395525,192.46839491435867 42.22324754538295,192.46839491435867 42.22324754538295,192.46839491435867 C42.22324754538295,192.46839491435867 42.22324754538295,200.14114678562328 42.22324754538295,200.14114678562328 C42.22324754538295,200.14114678562328 50.51461714437346,200.14114678562328 50.51461714437346,200.14114678562328 C50.51461714437346,200.14114678562328 49.58037897395525,207.81389650856454 49.58037897395525,207.81389650856454 C49.58037897395525,207.81389650856454 35.6835770172961,207.81389650856454 35.6835770172961,207.81389650856454 C35.6835770172961,207.81389650856454 35.6835770172961,171.70683267024287 35.6835770172961,171.70683267024287 C35.6835770172961,171.70683267024287 35.6835770172961,171.70683267024287 35.6835770172961,171.70683267024287 M51.91597440000078,171.70683267024287 C51.91597440000078,171.70683267024287 68.73227480816604,171.70683267024287 68.73227480816604,171.70683267024287 C68.73227480816604,171.70683267024287 68.73227480816604,179.37958454150748 68.73227480816604,179.37958454150748 C68.73227480816604,179.37958454150748 63.9443000158235,179.37958454150748 63.9443000158235,179.37958454150748 C63.9443000158235,179.37958454150748 63.9443000158235,207.81389650856454 63.9443000158235,207.81389650856454 C63.9443000158235,207.81389650856454 57.28784888264454,207.81389650856454 57.28784888264454,207.81389650856454 C57.28784888264454,207.81389650856454 57.28784888264454,179.37958454150748 57.28784888264454,179.37958454150748 C57.28784888264454,179.37958454150748 51.91597440000078,179.37958454150748 51.91597440000078,179.37958454150748 C51.91597440000078,179.37958454150748 51.91597440000078,171.70683267024287 51.91597440000078,171.70683267024287 C51.91597440000078,171.70683267024287 51.91597440000078,171.70683267024287 51.91597440000078,171.70683267024287 M88.00094457715022,171.70683267024287 C88.00094457715022,171.70683267024287 80.76059375367004,171.70683267024287 80.76059375367004,171.70683267024287 C80.76059375367004,171.70683267024287 80.76059375367004,184.79564411725573 80.76059375367004,184.79564411725573 C80.76059375367004,184.79564411725573 76.6733025918802,184.79564411725573 76.6733025918802,184.79564411725573 C76.6733025918802,184.79564411725573 76.6733025918802,171.70683267024287 76.6733025918802,171.70683267024287 C76.6733025918802,171.70683267024287 70.133628728634,171.70683267024287 70.133628728634,171.70683267024287 C70.133628728634,171.70683267024287 70.133628728634,207.81389650856454 70.133628728634,207.81389650856454 C70.133628728634,207.81389650856454 76.6733025918802,207.81389650856454 76.6733025918802,207.81389650856454 C76.6733025918802,207.81389650856454 76.6733025918802,192.46839491435867 76.6733025918802,192.46839491435867 C76.6733025918802,192.46839491435867 80.76059375367004,192.46839491435867 80.76059375367004,192.46839491435867 C80.76059375367004,192.46839491435867 80.76059375367004,207.81389650856454 80.76059375367004,207.81389650856454 C80.76059375367004,207.81389650856454 88.00094457715022,207.81389650856454 88.00094457715022,207.81389650856454 C88.00094457715022,207.81389650856454 88.00094457715022,171.70683267024287 88.00094457715022,171.70683267024287 C88.00094457715022,171.70683267024287 88.00094457715022,171.70683267024287 88.00094457715022,171.70683267024287 M89.4023051679369,178.62735341828147 C89.4023051679369,178.62735341828147 93.022480579677,171.70683267024287 93.022480579677,171.70683267024287 C93.022480579677,171.70683267024287 103.64944560471304,171.70683267024287 103.64944560471304,171.70683267024287 C103.64944560471304,171.70683267024287 107.26962101645313,177.87512336921714 107.26962101645313,177.87512336921714 C107.26962101645313,177.87512336921714 107.26962101645313,200.89337576052594 107.26962101645313,200.89337576052594 C107.26962101645313,200.89337576052594 103.64944560471304,207.81389650856454 103.64944560471304,207.81389650856454 C103.64944560471304,207.81389650856454 93.022480579677,207.81389650856454 93.022480579677,207.81389650856454 C93.022480579677,207.81389650856454 89.4023051679369,201.64560688375195 89.4023051679369,201.64560688375195 C89.4023051679369,201.64560688375195 89.4023051679369,178.62735341828147 89.4023051679369,178.62735341828147 C89.4023051679369,178.62735341828147 89.4023051679369,178.62735341828147 89.4023051679369,178.62735341828147 M100.02927019297294,199.38891566239727 C100.02927019297294,199.38891566239727 100.02927019297294,180.13181459057182 100.02927019297294,180.13181459057182 C100.02927019297294,180.13181459057182 95.94197236086438,180.13181459057182 95.94197236086438,180.13181459057182 C95.94197236086438,180.13181459057182 95.94197236086438,199.38891566239727 95.94197236086438,199.38891566239727 C95.94197236086438,199.38891566239727 100.02927019297294,199.38891566239727 100.02927019297294,199.38891566239727 C100.02927019297294,199.38891566239727 100.02927019297294,199.38891566239727 100.02927019297294,199.38891566239727 M126.53829745575604,177.87512336921714 C126.53829745575604,177.87512336921714 122.91811537369722,171.70683267024287 122.91811537369722,171.70683267024287 C122.91811537369722,171.70683267024287 108.67097493692108,171.70683267024287 108.67097493692108,171.70683267024287 C108.67097493692108,171.70683267024287 108.67097493692108,207.81389650856454 108.67097493692108,207.81389650856454 C108.67097493692108,207.81389650856454 122.91811537369722,207.81389650856454 122.91811537369722,207.81389650856454 C122.91811537369722,207.81389650856454 126.53829745575604,200.89337576052594 126.53829745575604,200.89337576052594 C126.53829745575604,200.89337576052594 126.53829745575604,177.87512336921714 126.53829745575604,177.87512336921714 C126.53829745575604,177.87512336921714 126.53829745575604,177.87512336921714 126.53829745575604,177.87512336921714 M119.29794663227585,179.37958454150748 C119.29794663227585,179.37958454150748 119.29794663227585,199.38891566239727 119.29794663227585,199.38891566239727 C119.29794663227585,199.38891566239727 115.21064212984857,199.38891566239727 115.21064212984857,199.38891566239727 C115.21064212984857,199.38891566239727 115.21064212984857,179.37958454150748 115.21064212984857,179.37958454150748 C115.21064212984857,179.37958454150748 119.29794663227585,179.37958454150748 119.29794663227585,179.37958454150748 C119.29794663227585,179.37958454150748 119.29794663227585,179.37958454150748 119.29794663227585,179.37958454150748 "/><rect id="svg_11" x="9.875000178813934" y="42.019531045109034" width="119.12228718400002" height="36.11328108608723" fill="#000000" opacity="0"/><rect id="svg_12" x="39.30039084330201" y="106.87208504229784" width="144.23086101934314" height="36.09568202123046" fill="#000000" opacity="0"/><rect id="svg_13" x="9.875000178813934" y="171.70703997462988" width="116.66334088891745" height="36.11328108608723" fill="#000000" opacity="0"/></g></g></svg>