<?xml version="1.0"?>
<svg xmlns="http://www.w3.org/2000/svg" width="315" height="116"><g><title>Layer 1</title><g clip-id="915" display="null" id="svg_4"><path id="svg_5" d="m119.12741,82.40424c-1.76279,0.17747 -3.32831,-0.4211 -4.47951,-1.64397c-1.16425,-1.23713 -2.09515,-2.72382 -1.85866,-4.59675c0.09467,-0.75068 0.46783,-1.2411 1.13216,-1.70378c1.25734,-0.87546 2.23302,-2.04881 2.29362,-3.70545c0.02298,-0.62629 -0.0721,-1.25575 -0.09467,-1.88441c-0.06853,-1.91611 0.76215,-3.28594 2.38155,-4.33214c1.88997,-1.2201 4.02872,-1.54849 6.14485,-1.86302c1.8167,-0.27017 4.06279,1.28426 4.75284,3.10411c0.73048,1.9272 2.1946,2.69848 4.09804,2.83791c1.74536,0.12795 2.88226,1.08661 3.04666,2.83832c0.10143,1.08184 0.20242,2.22826 -0.04356,3.26337c-0.35414,1.49025 -1.2823,2.65925 -2.6949,3.44875c-2.35504,1.31597 -4.81305,2.31859 -7.4521,2.88941c-2.39742,0.51894 -4.78691,1.07195 -7.18036,1.60989c-0.01506,-0.08715 -0.03052,-0.17468 -0.04596,-0.26224zm0.26422,-42.62536c0.2662,0.55062 0.46863,1.14562 0.81128,1.64356c0.7511,1.09175 0.55421,1.78658 -0.67302,2.09912c-1.36073,0.34662 -2.06427,2.23262 -1.1266,3.465c0.76572,1.00579 0.82236,2.04802 0.76848,3.17978c-0.02652,0.56409 -0.19131,1.15196 -0.08318,1.68675c0.22697,1.12185 0.44923,2.31977 1.59721,2.9318c2.64619,1.41024 6.60675,-0.80059 6.84483,-3.78627c0.22144,-2.7777 -1.13692,-4.78651 -3.11165,-6.51365c-0.62114,-0.5435 -1.25574,-1.08502 -1.79291,-1.70655c-0.43694,-0.50468 -0.67621,-1.18048 -1.11353,-1.68437c-0.50865,-0.58588 -1.13811,-1.06718 -1.71529,-1.59405c-0.13507,0.09309 -0.27055,0.18578 -0.40564,0.27888zm-10.06024,2.93298c-0.05664,0.21075 -0.0741,0.43139 -0.12361,0.64451c-0.47852,2.071 0.09903,4.23191 -0.86595,6.32549c-0.54428,1.18089 -0.37395,2.79672 -0.19054,4.17171c0.13152,0.98518 0.58272,2.17953 1.30608,2.78284c1.60513,1.33736 3.44359,2.1839 5.65878,1.02203c2.29401,-1.20306 2.88109,-3.32556 1.30289,-5.57917c-0.61401,-0.87665 -1.0779,-1.87689 -1.48946,-2.8708c-0.267,-0.64491 -0.26859,-1.394 -0.4726,-2.07139c-0.34543,-1.14761 -1.38173,-1.64238 -2.51825,-1.27477c-0.35059,0.11329 -0.71027,0.19965 -1.00896,0.28245c-0.91585,-1.10403 -0.10973,-2.76107 -1.36389,-3.70902c-0.12241,0.13984 -0.2135,0.19846 -0.2345,0.2761zm23.89883,9.9125c-0.86554,2.02029 -1.80559,4.02077 -2.47147,6.10722c-0.28879,0.90438 -0.29436,2.17003 0.1319,2.97458c0.84021,1.58574 3.45668,2.12923 5.28049,1.61228c2.93538,-0.83229 3.39607,-2.78365 3.59967,-4.8899c0.1759,-1.82183 -0.25429,-3.65871 -1.37021,-5.23295c-0.14143,-0.19926 -0.23135,-0.44011 -0.31969,-0.67106c-0.53836,-1.40668 -1.06046,-2.81969 -1.61424,-4.22042c-0.06776,-0.17192 -0.29079,-0.28244 -0.44211,-0.42109c-0.10419,0.02535 -0.20837,0.05111 -0.31294,0.07685c0.10378,1.0973 0.20758,2.19499 0.3185,3.36874c-1.69943,0.06219 -2.40257,0.36722 -2.7999,1.29576zm-32.99649,7.77139c0.49675,2.16646 0.97371,4.33926 1.56079,6.48196c0.53319,1.94542 1.64395,3.40955 3.52557,4.39394c2.03297,1.06361 5.77013,-0.03368 6.47327,-2.66996c0.14935,-0.56013 0.46704,-1.17256 0.35533,-1.68436c-0.20322,-0.92735 -0.63857,-1.80281 -1.55125,-2.33324c-0.79784,-0.46348 -1.57663,-0.96657 -2.3269,-1.50413c-0.67581,-0.48447 -1.27081,-1.08303 -1.95613,-1.55167c-0.83545,-0.57082 -1.65822,-1.37221 -2.79037,-0.98677c-0.58232,0.19846 -1.0755,0.65838 -1.60672,0.99826c-0.69681,-0.65917 -0.26067,-2.03415 -1.69507,-2.34987c0.0004,0.47853 -0.06813,0.85922 0.01149,1.20584z" fill-rule="evenodd"></path></g></g></svg>
