<svg xmlns="http://www.w3.org/2000/svg" width="188" height="256" viewBox="0 0 188 256" id="svgcontent" overflow="hidden" x="0" y="0"><g style="pointer-events:all"><title style="pointer-events:inherit">Layer 1</title><g stroke="null" shapeVal="0" shapeId="0" lineHeight="1" font-style="normal" font-weight="normal" text-anchor="middle" fill="#800000" font-family="SF Archery Black" font-size="60" text="Anushka" type="nameText" id="nameText" display=" inline" style="pointer-events:inherit"><path d="M27.91666030883789,68 C27.91666030883789,68 19.583328247070312,68 19.583328247070312,68 C19.583328247070312,68 19.583328247070312,54.83332824707031 19.583328247070312,54.83332824707031 C19.583328247070312,54.83332824707031 13.583328247070312,54.83332824707031 13.583328247070312,54.83332824707031 C13.583328247070312,54.83332824707031 13.583328247070312,68 13.583328247070312,68 C13.583328247070312,68 5.083330154418945,68 5.083330154418945,68 C5.083330154418945,68 5.083330154418945,26 5.083330154418945,26 C5.083330154418945,26 14.083328247070312,20 14.083328247070312,20 C14.083328247070312,20 18.916671752929688,20 18.916671752929688,20 C18.916671752929688,20 27.916671752929688,26 27.916671752929688,26 C27.916671752929688,26 27.916671752929688,68 27.916671752929688,68 C27.916671752929688,68 27.916671752929688,68 27.916671752929688,68 M19.58333969116211,48.833330154418945 C19.58333969116211,48.833330154418945 19.58333969116211,26 19.58333969116211,26 C19.58333969116211,26 13.58333969116211,26 13.58333969116211,26 C13.58333969116211,26 13.58333969116211,48.833330154418945 13.58333969116211,48.833330154418945 C13.58333969116211,48.833330154418945 19.58333969116211,48.833330154418945 19.58333969116211,48.833330154418945 C19.58333969116211,48.833330154418945 19.58333969116211,48.833330154418945 19.58333969116211,48.833330154418945 M54.41667938232422,68 C54.41667938232422,68 45.91667938232422,68 45.91667938232422,68 C45.91667938232422,68 45.91667938232422,38 45.91667938232422,38 C45.91667938232422,38 39.91667938232422,38 39.91667938232422,38 C39.91667938232422,38 39.91667938232422,68 39.91667938232422,68 C39.91667938232422,68 31.58333969116211,68 31.58333969116211,68 C31.58333969116211,68 31.58333969116211,32 31.58333969116211,32 C31.58333969116211,32 45.41667938232422,32 45.41667938232422,32 C45.41667938232422,32 54.41667938232422,38 54.41667938232422,38 C54.41667938232422,38 54.41667938232422,68 54.41667938232422,68 C54.41667938232422,68 54.41667938232422,68 54.41667938232422,68 M80.58334350585938,62 C80.58334350585938,62 71.58334350585938,68 71.58334350585938,68 C71.58334350585938,68 57.75,68 57.75,68 C57.75,68 57.75,32 57.75,32 C57.75,32 66.08332824707031,32 66.08332824707031,32 C66.08332824707031,32 66.08332824707031,62 66.08332824707031,62 C66.08332824707031,62 72.08334350585938,62 72.08334350585938,62 C72.08334350585938,62 72.08334350585938,32 72.08334350585938,32 C72.08334350585938,32 80.58334350585938,32 80.58334350585938,32 C80.58334350585938,32 80.58334350585938,62 80.58334350585938,62 C80.58334350585938,62 80.58334350585938,62 80.58334350585938,62 M106.41665649414062,62 C106.41665649414062,62 97.41667175292969,68 97.41667175292969,68 C97.41667175292969,68 83.58334350585938,68 83.58334350585938,68 C83.58334350585938,68 83.58334350585938,59 83.58334350585938,59 C83.58334350585938,59 92.08334350585938,59 92.08334350585938,59 C92.08334350585938,59 92.08334350585938,62 92.08334350585938,62 C92.08334350585938,62 98.08334350585938,62 98.08334350585938,62 C98.08334350585938,62 98.08334350585938,53 98.08334350585938,53 C98.08334350585938,53 83.58334350585938,53 83.58334350585938,53 C83.58334350585938,53 83.58334350585938,38 83.58334350585938,38 C83.58334350585938,38 92.58334350585938,32 92.58334350585938,32 C92.58334350585938,32 106.41665649414062,32 106.41665649414062,32 C106.41665649414062,32 106.41665649414062,41 106.41665649414062,41 C106.41665649414062,41 98.08334350585938,41 98.08334350585938,41 C98.08334350585938,41 98.08334350585938,38 98.08334350585938,38 C98.08334350585938,38 92.08334350585938,38 92.08334350585938,38 C92.08334350585938,38 92.08334350585938,47 92.08334350585938,47 C92.08334350585938,47 106.41665649414062,47 106.41665649414062,47 C106.41665649414062,47 106.41665649414062,62 106.41665649414062,62 C106.41665649414062,62 106.41665649414062,62 106.41665649414062,62 M132.5833282470703,68 C132.5833282470703,68 124.08334350585938,68 124.08334350585938,68 C124.08334350585938,68 124.08334350585938,38 124.08334350585938,38 C124.08334350585938,38 118.08334350585938,38 118.08334350585938,38 C118.08334350585938,38 118.08334350585938,68 118.08334350585938,68 C118.08334350585938,68 109.75001525878906,68 109.75001525878906,68 C109.75001525878906,68 109.75001525878906,20 109.75001525878906,20 C109.75001525878906,20 118.08334350585938,20 118.08334350585938,20 C118.08334350585938,20 118.08334350585938,32 118.08334350585938,32 C118.08334350585938,32 132.5833282470703,32 132.5833282470703,32 C132.5833282470703,32 132.5833282470703,68 132.5833282470703,68 C132.5833282470703,68 132.5833282470703,68 132.5833282470703,68 M158.0833282470703,68 C158.0833282470703,68 149.5833282470703,68 149.5833282470703,68 C149.5833282470703,68 149.5833282470703,57.16667175292969 149.5833282470703,57.16667175292969 C149.5833282470703,57.16667175292969 146.5833282470703,54.16667175292969 146.5833282470703,54.16667175292969 C146.5833282470703,54.16667175292969 143.5833282470703,57.16667175292969 143.5833282470703,57.16667175292969 C143.5833282470703,57.16667175292969 143.5833282470703,68 143.5833282470703,68 C143.5833282470703,68 135.25,68 135.25,68 C135.25,68 135.25,20 135.25,20 C135.25,20 143.5833282470703,20 143.5833282470703,20 C143.5833282470703,20 143.5833282470703,48.833330154418945 143.5833282470703,48.833330154418945 C143.5833282470703,48.833330154418945 149.5833282470703,42.833330154418945 149.5833282470703,42.833330154418945 C149.5833282470703,42.833330154418945 149.5833282470703,32 149.5833282470703,32 C149.5833282470703,32 158.0833282470703,32 158.0833282470703,32 C158.0833282470703,32 158.0833282470703,42.833330154418945 158.0833282470703,42.833330154418945 C158.0833282470703,42.833330154418945 150.75,50 150.75,50 C150.75,50 158.0833282470703,57.16667175292969 158.0833282470703,57.16667175292969 C158.0833282470703,57.16667175292969 158.0833282470703,68 158.0833282470703,68 C158.0833282470703,68 158.0833282470703,68 158.0833282470703,68 M182.9166717529297,62 C182.9166717529297,62 173.9166717529297,68 173.9166717529297,68 C173.9166717529297,68 160.25,68 160.25,68 C160.25,68 160.25,53 160.25,53 C160.25,53 169.25,47 169.25,47 C169.25,47 174.5833282470703,47 174.5833282470703,47 C174.5833282470703,47 174.5833282470703,38 174.5833282470703,38 C174.5833282470703,38 168.5833282470703,38 168.5833282470703,38 C168.5833282470703,38 168.5833282470703,41 168.5833282470703,41 C168.5833282470703,41 160.25,41 160.25,41 C160.25,41 160.25,38 160.25,38 C160.25,38 169.25,32 169.25,32 C169.25,32 182.9166717529297,32 182.9166717529297,32 C182.9166717529297,32 182.9166717529297,62 182.9166717529297,62 C182.9166717529297,62 182.9166717529297,62 182.9166717529297,62 M174.5833282470703,62 C174.5833282470703,62 174.5833282470703,53 174.5833282470703,53 C174.5833282470703,53 168.5833282470703,53 168.5833282470703,53 C168.5833282470703,53 168.5833282470703,62 168.5833282470703,62 C168.5833282470703,62 174.5833282470703,62 174.5833282470703,62 C174.5833282470703,62 174.5833282470703,62 174.5833282470703,62 " fill="#800000" id="svg_20" style="pointer-events:inherit"/></g><g stroke="null" shapeVal="0" shapeId="0" lineHeight="1" font-style="normal" font-weight="normal" text-anchor="middle" fill="#00FF00" font-family="Interceptor" font-size="120" text="76" type="numberText" id="numberText" style="pointer-events:inherit"><path d="M62.04707145690918,115.26778888702393 C62.04707145690918,115.26778888702393 30.04707169532776,115.26778888702393 30.04707169532776,115.26778888702393 C30.04707169532776,115.26778888702393 30.04707169532776,125.9344596862793 30.04707169532776,125.9344596862793 C30.04707169532776,125.9344596862793 14.04707145690918,125.9344596862793 14.04707145690918,125.9344596862793 C14.04707145690918,125.9344596862793 14.04707145690918,103.26778936386108 14.04707145690918,103.26778936386108 C14.04707145690918,103.26778936386108 88.71372985839844,103.26778936386108 88.71372985839844,103.26778936386108 C88.71372985839844,103.26778936386108 88.71372985839844,115.60111904144287 88.71372985839844,115.60111904144287 C88.71372985839844,115.60111904144287 41.380401611328125,178.26779174804688 41.380401611328125,178.26779174804688 C41.380401611328125,178.26779174804688 14.04707145690918,178.26779174804688 14.04707145690918,178.26779174804688 C14.04707145690918,178.26779174804688 62.04707145690918,115.26778888702393 62.04707145690918,115.26778888702393 M125.7137336730957,147.6011199951172 C125.7137336730957,147.6011199951172 125.7137336730957,166.26779174804688 125.7137336730957,166.26779174804688 C125.7137336730957,166.26779174804688 153.71374130249023,166.26779174804688 153.71374130249023,166.26779174804688 C153.71374130249023,166.26779174804688 153.71374130249023,147.6011199951172 153.71374130249023,147.6011199951172 C153.71374130249023,147.6011199951172 125.7137336730957,147.6011199951172 125.7137336730957,147.6011199951172 C125.7137336730957,147.6011199951172 125.7137336730957,147.6011199951172 125.7137336730957,147.6011199951172 M161.04706954956055,103.26778936386108 C170.71374130249023,104.60111904144287 175.04706954956055,113.60111904144287 173.71374130249023,125.9344596862793 C173.71374130249023,125.9344596862793 154.3804054260254,125.9344596862793 154.3804054260254,125.9344596862793 C154.3804054260254,125.9344596862793 154.3804054260254,115.26778888702393 154.3804054260254,115.26778888702393 C154.3804054260254,115.26778888702393 126.38041305541992,115.26778888702393 126.38041305541992,115.26778888702393 C126.38041305541992,115.26778888702393 126.38041305541992,133.6011199951172 126.38041305541992,133.6011199951172 C143.71374893188477,135.2677879333496 170.38039779663086,127.60111999511719 173.7137565612793,143.2677879333496 C173.38041305541992,157.9344482421875 177.0470848083496,175.9344482421875 162.0470848083496,178.26779174804688 C142.71374893188477,176.26779174804688 113.04708480834961,184.6011199951172 107.38042068481445,168.9344482421875 C107.38042068481445,168.9344482421875 107.71374893188477,119.60111999511719 107.71374893188477,119.60111999511719 C106.71374893188477,110.60111904144287 113.04709243774414,103.26778936386108 119.71374893188477,103.26778936386108 C119.71374893188477,103.26778936386108 161.04709243774414,103.26778936386108 161.04709243774414,103.26778936386108 C161.04709243774414,103.26778936386108 161.04709243774414,103.26778936386108 161.04709243774414,103.26778936386108 " fill="#00FF00" id="svg_21" style="pointer-events:inherit"/></g></g><defs/></svg>