<?xml version="1.0" encoding="UTF-8"?>
<svg xmlns="http://www.w3.org/2000/svg" width="65" height="78" viewBox="0 0 65 78"><g><title>Layer 1</title><g elemBBoxHeight="43.00782" yscale="NaN" xscale="3.83077" elemBBoxWidth="62.25" display="null" shapeVal="0" shapeId="0" lineHeight="1" font-style="normal" font-weight="normal" text-anchor="start" fill="80" font-id="1" font-family="Brush-Script" font-size="6.41439" text="Gmail" type="text" id="svg_1"><path d="m5.40979,62.19515c-0.98286,1.24102 -2.18687,1.19503 -2.23601,-1.19506c0.56514,-4.55042 2.48172,-7.17035 4.49657,-9.05489c0,0 1.548,-3.72306 1.548,-3.72306c0.95829,-2.48205 1.69544,-4.78022 2.40801,-7.58401c-1.91658,2.48206 -3.784,5.42372 -5.92172,7.49208c-2.75201,2.66591 -5.03715,-2.06836 -4.12801,-7.8598c1.32686,-8.36541 4.98801,-13.6053 8.96859,-16.86872c1.86743,-1.56275 4.12801,-2.98764 6.75715,-3.4013c1.35143,-0.22984 1.76915,4.36656 0.63886,5.6995c0,0 -2.48172,2.98764 -2.48172,2.98764c-0.54057,0.45964 -1.30229,1.47085 -1.892,1.56278c-0.36857,0.04595 -0.41772,-1.05716 -0.09828,-1.28699c0,0 1.47428,-2.2982 1.47428,-2.2982c-4.25086,2.61996 -7.74001,6.75669 -10.32002,12.5941c-0.56515,1.241 -1.10572,2.66588 -1.10572,4.55041c0,2.80379 1.67086,1.56275 2.48172,0.45964c0,0 7.02744,-9.5145 7.02744,-9.5145c0.83543,-1.19508 1.44971,-2.84976 2.48172,-3.67711c0.93371,0.27579 1.91657,1.88452 1.13029,3.58517c-1.35145,4.73427 -3.02229,8.96295 -4.49659,13.4674c0,0 2.99772,-3.35535 2.99772,-3.35535c0.81086,-0.96524 1.62171,-1.97644 2.38343,-3.07957c-0.02456,2.06836 -0.34399,2.61993 -1.05657,3.67709c-1.64629,2.39013 -4.17715,5.42374 -6.04458,7.72194c-1.42514,3.07957 -3.16972,6.75666 -5.01257,9.10083c0,0 0,0 0,0m26.9549,-15.39788c1.32685,-0.22981 2.03943,-1.4249 3.31716,-2.89572c-0.04916,0.59752 -0.04916,1.24102 -0.04916,1.93048c-1.64629,2.06837 -3.39086,5.01003 -5.70057,5.79144c-1.32687,-0.13791 -1.57258,-3.35535 -0.81086,-5.51567c0.29485,-0.82733 0.73714,-2.3901 1.44972,-4.50444c-2.01487,2.66591 -3.46459,6.48091 -5.52859,9.05486c-1.10572,1.37892 -2.11315,-0.78137 -1.57257,-3.07957c0.56514,-2.34415 1.376,-4.41251 2.11315,-6.43493c0.09829,-0.27579 0.07372,-0.68945 -0.09828,-0.73542c-1.86743,1.93048 -3.51372,6.84861 -4.88973,9.46854c-0.36857,0.68948 -0.516,1.01121 -0.98285,1.01121c-1.59715,0 -1.62171,-6.06721 -0.98286,-8.7791c0.63886,-2.71186 1.89201,-6.43493 3.75943,-6.52685c1.10572,-0.04595 1.20401,1.28699 0.54057,2.61996c-0.93372,1.83853 -2.18686,3.4013 -2.53086,6.25107c0,0.18386 0.07372,0.55157 0.14743,0.55157c1.86744,-2.61993 3.98058,-7.63002 6.06916,-10.11204c1.00743,-1.19506 2.48172,-1.60873 2.48172,1.10313c0,3.1715 -1.548,5.23986 -2.28515,7.53806c0,0 5.70059,-8.27349 5.70059,-8.27349c0.44229,-0.59754 0.73715,-0.8733 0.86,-0.8733c0.58972,0.82733 1.40057,2.98762 0.54058,4.73428c0,0 -0.98286,2.02239 -0.98286,2.02239c-0.56514,1.19506 -1.40057,2.57398 -1.42514,4.45849c0,0.7814 0.39314,1.28699 0.85999,1.19506c0,0 0,0 0,0m15.62745,-2.89572c0,0.64349 -0.0737,1.33294 -0.02456,1.93048c-1.35144,1.93046 -2.62915,4.18271 -4.15259,5.79144c-1.00743,1.05715 -2.13772,0.45963 -2.13772,-1.60873c0,-2.16032 0.44229,-3.21748 0.93372,-5.33182c-1.25314,1.88453 -2.5063,4.04483 -3.85772,5.65356c-1.96571,2.34414 -3.29258,-2.2982 -3.07142,-6.43493c1.20399,-4.87218 4.39829,-7.30825 7.24857,-9.14679c1.49887,-0.96525 2.97315,-0.96525 3.3663,1.5168c-0.02457,0.82735 -0.54057,0.91928 -0.86,1.19506c0.76171,0.45961 0.86,2.02239 0.344,3.26343c-0.66344,1.6547 -1.84286,2.89571 -1.84286,5.37774c0,0.87333 0.39314,1.51682 0.90914,1.33297c1.35143,-0.50559 1.62171,-1.6547 3.14514,-3.53921c0,0 0,0 0,0m-10.36915,1.0112c-0.09829,0.68945 -0.36858,2.80379 0.27028,2.71186c2.45716,-1.51682 4.44743,-5.97528 6.06915,-9.10083c-2.18686,1.24101 -4.27544,2.61993 -5.87258,5.10198c-0.22113,0.41367 -0.39314,0.82735 -0.46685,1.28699c0,0 0,0 0,0m17.47031,-1.0112c0,0 -0.02458,1.97644 -0.02458,1.97644c0,0 -2.236,3.26342 -2.236,3.26342c-0.76171,0.96523 -1.59715,2.1603 -2.70285,2.25222c-1.99029,0.13791 -2.50629,-4.87215 -1.91657,-8.36541c0.56514,-3.35535 2.28513,-7.85979 4.47201,-7.85979c0.95829,0 1.15485,1.56277 0.56514,2.94166c-0.88457,2.02242 -2.11315,4.13676 -3.096,5.92934c-0.49143,1.6547 0.17199,3.49326 1.25314,3.3094c1.57256,-0.32176 2.23601,-1.60875 3.68572,-3.44728c0,0 0,0 0,0m-0.07371,-15.16805c0.44227,0 0.81086,0.68944 0.81086,1.5168c-0.07372,2.06836 -0.83543,3.90692 -1.892,4.0448c-0.6143,0.09195 -1.08115,-0.87331 -1.03201,-2.06836c0.0737,-1.88452 1.03201,-3.35536 2.11315,-3.49323c0,0 0,0 0,0m7.56801,15.16805c0,0.64349 -0.07372,1.33294 -0.02458,1.97644c0,0 -1.6217,2.34414 -1.6217,2.34414c-1.05659,1.24104 -2.11315,3.1715 -3.66116,3.1715c-3.04686,0 -2.33429,-8.871 -1.376,-13.00773c1.35143,-5.88338 3.58743,-10.66361 6.09372,-14.4786c0.46686,-0.68947 0.83544,-1.05719 1.08116,-1.05719c1.00743,0.50562 0.34398,3.81499 0.12285,5.33182c-0.93373,6.25107 -3.61201,9.92815 -5.74974,14.11086c-0.22113,2.39013 -0.22113,5.42375 1.25317,5.19391c1.67084,-0.27578 2.40799,-1.70065 3.88228,-3.58516c0,0 0,0 0,0m-0.81087,-15.67367c-1.67085,2.52803 -2.85029,6.02127 -3.80856,9.8822c1.52341,-2.89571 2.89943,-5.83738 3.80856,-9.8822c0,0 0,0 0,0" fill="#000080" id="svg_2"/><rect opacity="0" fill="#000080" height="42.99438" width="62.24853" y="20.00563" x="1.37647" id="svg_3"/></g></g></svg>