<svg xmlns="http://www.w3.org/2000/svg" width="401" height="220" x="0" y="0" id="svgcontent" viewBox="0 0 401 220" overflow="hidden"><defs><mask id="canvasMaskImageDef" maskUnits="objectBoundingBox" x="0" y="0"><image xmlns:xlink="http://www.w3.org/1999/xlink" id="canvasMaskImage" preserveAspectRatio="none" x="0" y="-1" width="400" height="222.22222222222223" xlink:href="http://192.168.0.46/dnb_products/magento2/designnbuy/uploads/productimage/56eb110bc986f.png"/></mask></defs><g mask="url(#canvasMaskImageDef)" style="pointer-events:all"><title style="pointer-events:inherit">Layer 1</title><g id="svg_1" type="text" text="Racing" font-size="29.531623033046728" font-family="Brush-Script" font-id="1" fill="000000" text-anchor="start" font-weight="normal" font-style="normal" lineHeight="1" shapeId="0" shapeVal="0" fill-opacity="1" display="null" elemBBoxWidth="83.89968872070312" stroke-width="0" stroke-dasharray="none" stroke="null" stroke-opacity="1" transform=""><path id="svg_7" fill="#000000" stroke-width="0" d="M232.16162362053606,132.76172558809662 C230.301131392885,132.43687773882422 230.56691599683515,130.57638551117316 232.01396550723044,129.69043683133933 C232.84085094174202,129.18839924610015 233.90398935754263,128.83401977416662 235.29197562261564,128.68636166086097 C235.29197562261564,128.68636166086097 239.6626557764626,122.42565765670183 239.6626557764626,122.42565765670183 C239.6626557764626,122.42565765670183 235.79401320785482,123.22301146855229 235.79401320785482,123.22301146855229 C235.79401320785482,123.22301146855229 233.40195177230345,124.02036528040274 233.40195177230345,124.02036528040274 C234.22883720681503,124.079428525725 235.49869698124354,123.99083365774162 235.79401320785482,124.52240286564192 C235.4396337359213,125.11303531886449 234.11071071617053,124.90631396023659 233.22476203633667,125.08350369620335 C232.30928173384171,125.26069343217013 231.3642698086856,125.3492883001535 230.33066301554615,125.3492883001535 C228.20438618394493,125.29022505483125 229.71049893966244,122.57331577000747 230.33066301554615,121.74643033549589 C232.87038256440314,118.32076210680505 239.01296007791777,117.99591425753263 244.68303162885434,117.99591425753263 C247.22275117771136,117.99591425753263 249.20136989600692,118.29123048414391 250.6188877837411,118.99998942801099 C252.42031676606987,119.88593810784482 252.95188597397018,120.97860814630657 252.50891163405328,123.0162901099244 C251.0913937463191,129.30652573674467 242.82253940120327,128.98167788747224 236.11886105712722,130.45825902052866 C236.11886105712722,130.45825902052866 247.25228280037248,134.23830672115304 247.25228280037248,134.23830672115304 C248.78792717875115,134.91753404235897 249.2604331413292,135.41957162759815 249.31949638665145,137.4867852138771 C249.34902800931258,138.81570823362787 248.55167419746212,138.90430310161128 247.42947253633926,138.46132876169435 C247.42947253633926,138.46132876169435 239.4559344178347,135.33097675961477 239.4559344178347,135.33097675961477 C239.4559344178347,135.33097675961477 234.28790045213728,133.52954777728596 234.28790045213728,133.52954777728596 C234.28790045213728,133.52954777728596 231.7777125259414,137.10287411928246 231.7777125259414,137.10287411928246 C231.8958390165859,138.37273389371097 230.68504248747968,139.08149283757803 229.5333092036957,139.22915095088368 C228.70642376918408,139.02242959225578 228.88361350515086,138.13648091242192 229.3265878450678,137.30959547791036 C229.3265878450678,137.30959547791036 230.62597924215743,135.06519215566462 230.62597924215743,135.06519215566462 C230.62597924215743,135.06519215566462 232.16162362053606,132.76172558809662 232.16162362053606,132.76172558809662 M249.4966861226182,122.04174656210718 C247.1636879323891,121.539708976868 244.3286521569208,121.89408844880153 241.3459582681469,122.21893629807394 C241.2573634001635,123.16394822323004 240.93251555089108,123.84317554443598 240.48954121097418,124.43380799765855 C240.48954121097418,124.43380799765855 238.0974797754228,127.9776027169939 238.0974797754228,127.9776027169939 C238.0974797754228,127.9776027169939 240.57813607895756,127.47556513175472 240.57813607895756,127.47556513175472 C244.1809940436152,126.58961645192089 248.34495283883422,125.73319939474817 250.26450831180753,123.22301146855229 C250.70748265172446,122.63237901532973 250.3235715571298,122.21893629807394 249.4966861226182,122.04174656210718 C249.4966861226182,122.04174656210718 249.4966861226182,122.04174656210718 249.4966861226182,122.04174656210718 M265.88673669954426,133.20469992801355 C265.88673669954426,133.61814264526936 265.7981418315609,134.06111698518626 265.85720507688313,134.44502807978094 C264.2329658305211,135.68535623154833 262.69732145214243,137.1324057419436 260.86636084715246,138.16601253508307 C259.65556431804623,138.845239856289 258.2971096756344,138.46132876169435 258.2971096756344,137.1324057419436 C258.2971096756344,135.74441947687058 258.8286788835346,135.06519215566462 259.41931133675723,133.70673751325273 C257.9131985810397,134.91753404235897 256.40708582532216,136.305520307432 254.78284657896012,137.3391271005715 C252.42031676606987,138.845239856289 250.82560914236896,135.86254596751508 251.0913937463191,133.20469992801355 C252.53844325671437,130.07434792593398 256.37755420266103,128.50917192489422 259.80322243135186,127.32790701844908 C261.6046514136807,126.7077429425654 263.37654877334836,126.7077429425654 263.8490547359264,128.30245056626632 C263.8195231132653,128.83401977416662 263.1993590373816,128.89308301948887 262.81544794278693,129.07027275545565 C263.7309282452819,129.36558898206692 263.8490547359264,130.36966415254528 263.22889066004274,131.1670179643957 C262.43153684819225,132.23015638019635 261.01401896045815,133.0275101920468 261.01401896045815,134.62221781574772 C261.01401896045815,135.18331864630915 261.48652492303614,135.59676136356492 262.1066889989199,135.47863487292042 C263.7309282452819,135.153787023648 264.0557760945543,134.41549645711981 265.88673669954426,133.20469992801355 C265.88673669954426,133.20469992801355 265.88673669954426,133.20469992801355 265.88673669954426,133.20469992801355 M253.42439193654823,133.8543956265584 C253.3062654459037,134.2973699664753 252.9814175966313,135.65582460888717 253.74923978582063,135.59676136356492 C256.70240205193346,134.62221781574772 259.0944634874848,131.7576504176183 261.04355058311927,129.74950007666158 C258.4152361662789,130.54685388851203 255.90504824008298,131.4328025683459 253.98549276710966,133.0275101920468 C253.7197081631595,133.29329479599693 253.5129868045316,133.55907939994708 253.42439193654823,133.8543956265584 C253.42439193654823,133.8543956265584 253.42439193654823,133.8543956265584 253.42439193654823,133.8543956265584 M276.51812085755034,133.20469992801355 C276.51812085755034,133.20469992801355 276.4885892348892,134.47455970244206 276.4885892348892,134.47455970244206 C274.42137564861025,135.98067245815957 272.2655671943479,138.07741766709967 268.9875570789627,138.1955441577442 C265.50282560494963,138.34320227104982 265.0007880197104,132.52547260680763 267.06800160598937,130.54685388851203 C268.89896221097933,128.77495652884437 271.2319604012084,126.61914807458201 274.42137564861025,126.61914807458201 C276.6067157255337,126.61914807458201 275.1891978377996,129.69043683133933 274.42137564861025,130.45825902052866 C273.88980644070995,130.98982822842896 273.4173004781319,131.6690555496349 272.59041504362034,131.81671366294054 C271.8521244770921,131.78718204027942 271.64540311846423,131.28514445504024 271.52727662781973,130.54685388851203 C270.49366983468025,131.25561283237911 269.43053141887964,131.99390339890732 268.51505111638465,132.8207888334189 C267.1270648513116,134.06111698518626 268.3378613804179,135.74441947687058 270.0506954947633,135.74441947687058 C272.7676047795871,135.74441947687058 274.7462234978827,134.35643321179754 276.51812085755034,133.20469992801355 C276.51812085755034,133.20469992801355 276.51812085755034,133.20469992801355 276.51812085755034,133.20469992801355 M285.08229142927746,133.20469992801355 C285.08229142927746,133.20469992801355 285.05275980661634,134.47455970244206 285.05275980661634,134.47455970244206 C285.05275980661634,134.47455970244206 282.3653821444537,136.57130491138216 282.3653821444537,136.57130491138216 C281.4499018419587,137.19146898726584 280.44582667148035,137.95929117645517 279.1169036517296,138.01835442177742 C276.7248422161782,138.1069492897608 276.10467814029454,134.88800241969784 276.8134370841616,132.64359909745212 C277.4926644053676,130.48779064318978 279.55987799164654,127.59369162239923 282.1881924084869,127.59369162239923 C283.3399256922709,127.59369162239923 283.5761786735599,128.5977667928776 282.86741972969287,129.48371547271142 C281.80428131389226,130.78310686980106 280.32770018083585,132.14156151221295 279.14643527439074,133.29329479599693 C278.5558028211682,134.35643321179754 279.3531566330186,135.53769811824267 280.6525480301083,135.41957162759815 C282.54257188042044,135.21285026897027 283.3399256922709,134.3859648344587 285.08229142927746,133.20469992801355 C285.08229142927746,133.20469992801355 285.08229142927746,133.20469992801355 285.08229142927746,133.20469992801355 M284.9936965612941,123.45926444984131 C285.5252657691944,123.45926444984131 285.9682401091113,123.90223878975823 285.9682401091113,124.43380799765855 C285.87964524112795,125.7627310174093 284.96416493863296,126.94399592385442 283.6943051642044,127.0325907918378 C282.95601459767624,127.09165403716005 282.3949137671148,126.47148996127638 282.45397701243706,125.70366777208704 C282.54257188042044,124.4928712429808 283.6943051642044,123.5478593178247 284.9936965612941,123.45926444984131 C284.9936965612941,123.45926444984131 284.9936965612941,123.45926444984131 284.9936965612941,123.45926444984131 M291.2248689427921,128.62729841553872 C290.72283135755293,130.54685388851203 288.0649853180514,131.52139743632927 287.5334161101511,133.41142128664146 C287.7696690914401,134.1792434758308 288.4193647899849,133.38188966398033 288.7146810165962,133.05704181470793 C290.3979835082805,131.1670179643957 293.1444244157654,129.0407411327945 295.32976449268887,127.59369162239923 C296.0975866818782,127.09165403716005 296.62915588977853,126.85540105587104 296.9540037390509,126.85540105587104 C297.69229430557914,127.1211856598212 297.6332310602569,128.3910454342497 297.92854728686814,129.1293360007779 C297.10166185235653,130.96029660576784 294.3552209448717,131.8757769082628 294.3552209448717,134.2973699664753 C294.3552209448717,134.8289391743756 294.65053717148294,135.12425540098687 295.21163800204437,135.06519215566462 C296.7177507577619,134.91753404235897 297.4855729469512,134.14971185316966 298.9030908346854,133.20469992801355 C298.9030908346854,133.61814264526936 298.814495966702,134.06111698518626 298.87355921202425,134.47455970244206 C296.9244721163898,135.80348272219283 295.4183593606723,138.1069492897608 292.5242603398817,138.1069492897608 C290.57517324424725,138.1069492897608 290.84095784819743,135.2423818916314 291.6973749053701,133.91345887188064 C291.6973749053701,133.91345887188064 293.49880388769895,131.1670179643957 293.49880388769895,131.1670179643957 C291.28393218811436,132.76172558809662 289.4825032057855,135.39004000493702 287.5334161101511,137.1324057419436 C285.87964524112795,138.60898687499997 284.7869752026662,136.45317842073763 285.05275980661634,134.06111698518626 C285.3480760332276,131.3442077003625 286.94278365692855,129.2474624914224 288.9509339978852,128.15479245296066 C289.7778194323968,127.94807109433278 291.16580569746986,127.88900784901051 291.2248689427921,128.62729841553872 C291.2248689427921,128.62729841553872 291.2248689427921,128.62729841553872 291.2248689427921,128.62729841553872 M312.10372616420955,133.20469992801355 C312.10372616420955,133.61814264526936 312.0151312962262,134.06111698518626 312.0741945415484,134.44502807978094 C312.0741945415484,134.44502807978094 306.07927514133945,138.4022655163721 306.07927514133945,138.4022655163721 C304.3073777816718,140.8238585745846 302.8898598939376,143.74748921803626 300.02529249580823,144.98781736980362 C299.4346600425857,145.25360197375377 298.5487113627518,145.31266521907605 298.6373062307352,144.4267165392422 C298.9030908346854,142.27090808497985 300.6454565716919,141.0305799332125 301.9448479687816,139.76072015878398 C302.7717334032931,138.96336634693353 303.86440344175486,138.13648091242192 304.6912888762664,137.54584845919936 C304.6912888762664,137.54584845919936 306.7585024625454,133.4704845319637 306.7585024625454,133.4704845319637 C305.1047315935222,134.94706566502012 303.6281504604658,137.25053223258809 300.8817095529809,137.25053223258809 C299.6118497785524,137.25053223258809 298.8440275893631,135.83301434485395 298.8440275893631,134.47455970244206 C298.8440275893631,130.01528468061173 303.0670496299044,128.3910454342497 306.25646487730626,127.0325907918378 C307.2605400477846,126.61914807458201 309.3868168793858,126.64867969724314 308.8847792941466,127.88900784901051 C307.11288193447893,129.95622143528948 303.42142910183793,130.66498037915656 301.590468496848,132.52547260680763 C301.0293676662866,133.08657343736905 300.8817095529809,133.76580075857498 300.97030442096434,134.79940755171447 C303.5100239698213,135.12425540098687 304.8389469895721,133.1456366826913 306.25646487730626,131.84624528560167 C307.2605400477846,130.9307649831067 307.8511725010071,129.71996845400045 308.8552476714855,128.89308301948887 C309.74119635131933,128.15479245296066 310.83386638978106,129.69043683133933 310.3318288045419,130.66498037915656 C310.3318288045419,130.66498037915656 307.6149195197181,135.80348272219283 307.6149195197181,135.80348272219283 C307.6149195197181,135.80348272219283 312.10372616420955,133.20469992801355 312.10372616420955,133.20469992801355 " stroke="null" transform=""/><rect id="svg_8" x="228.20404052734375" y="117.99602937384861" width="83.89934581816124" height="27.31675334962165" fill="#000000" opacity="0" stroke="null" transform=""/></g><g id="svg_4" type="text" text="Your Text Here" font-size="33.510972251500064" font-family="Aldo" font-id="1" fill="ffffff" text-anchor="start" font-weight="normal" font-style="normal" lineHeight="1" shapeId="8" shapeVal="-10" fill-opacity="1" display="null" elemBBoxWidth="249.30197143554688" stroke-width="0" stroke-dasharray="none" stroke="ull" stroke-opacity="1" transform="rotate(-19.4265 196.205 102.949)"><path id="svg_13" fill="#ffffff" stroke="#ull" stroke-width="0" d="M-34.07465714233769,-2.7423171862286733 C-36.689502757031185,-4.798321653531877 -39.00001345381342,-8.722563155777951 -39.00001345381342,-12.241343925605738 C-39.00001345381342,-12.241343925605738 -39.00001345381342,-17.000002184127766 -39.00001345381342,-17.000002184127766 C-39.00001345381342,-17.000002184127766 -31.32590416376325,-14.221306134343635 -31.32590416376325,-14.221306134343635 C-31.32590416376325,-14.221306134343635 -31.32590416376325,9.203169762804222 -31.32590416376325,9.203169762804222 C-31.32590416376325,9.203169762804222 -34.07465714233769,8.249321255606038 -34.07465714233769,8.249321255606038 C-34.07465714233769,8.249321255606038 -34.07465714233769,-2.7423171862286733 -34.07465714233769,-2.7423171862286733 C-34.07465714233769,-2.7423171862286733 -34.07465714233769,-2.7423171862286733 -34.07465714233769,-2.7423171862286733 M-21.976735485529545,-6.547863570415261 C-21.976735485529545,-3.0290828005874744 -24.255595350849013,-0.5773913781848705 -26.936177307811334,-0.3578163881299474 C-26.936177307811334,-0.3578163881299474 -26.936177307811334,10.633822053704762 -26.936177307811334,10.633822053704762 C-26.936177307811334,10.633822053704762 -29.4828519008927,9.817525307658535 -29.4828519008927,9.817525307658535 C-29.4828519008927,9.817525307658535 -29.4828519008927,-13.60695058948932 -29.4828519008927,-13.60695058948932 C-29.4828519008927,-13.60695058948932 -21.976735485529545,-11.30652182893729 -21.976735485529545,-11.30652182893729 C-21.976735485529545,-11.30652182893729 -21.976735485529545,-6.547863570415261 -21.976735485529545,-6.547863570415261 C-21.976735485529545,-6.547863570415261 -21.976735485529545,-6.547863570415261 -21.976735485529545,-6.547863570415261 M-12.291581057921814,14.63532545596992 C-16.615571571604903,13.102492800684185 -19.965690347971982,8.458834002225426 -19.965690347971982,3.398545827924046 C-19.965690347971982,-1.05848251481863 -16.381842354649063,-3.861340728486466 -12.291581057921814,-3.192553000736174 C-12.291581057921814,-3.192553000736174 -12.291581057921814,14.63532545596992 -12.291581057921814,14.63532545596992 C-12.291581057921814,14.63532545596992 -12.291581057921814,14.63532545596992 -12.291581057921814,14.63532545596992 M-10.448528795051264,-2.7675310940783504 C-6.260880324592414,-1.3934731188113094 -2.9424123796881076,3.0525364473565375 -2.9424123796881076,8.045639141974977 C-2.9424123796881076,12.435482005034714 -6.42887319927943,15.561989011901815 -10.448528795051264,15.060347362627738 C-10.448528795051264,15.060347362627738 -10.448528795051264,-2.7675310940783504 -10.448528795051264,-2.7675310940783504 C-10.448528795051264,-2.7675310940783504 -10.448528795051264,-2.7675310940783504 -10.448528795051264,-2.7675310940783504 M6.574749173232611,18.249012487958794 C2.4869225558486576,17.229296161975938 -0.9313672421305412,12.878113313360746 -0.9313672421305412,8.421084970618068 C-0.9313672421305412,8.421084970618068 -0.9313672421305412,-0.8951449359064227 -0.9313672421305412,-0.8951449359064227 C-0.9313672421305412,-0.8951449359064227 6.574749173232611,0.35394855156976135 6.574749173232611,0.35394855156976135 C6.574749173232611,0.35394855156976135 6.574749173232611,18.249012487958794 6.574749173232611,18.249012487958794 C6.574749173232611,18.249012487958794 6.574749173232611,18.249012487958794 6.574749173232611,18.249012487958794 M8.417801436103161,18.52069368838651 C8.417801436103161,18.52069368838651 8.417801436103161,0.6256297519974794 8.417801436103161,0.6256297519974794 C8.417801436103161,0.6256297519974794 16.09191072615333,1.619208495574977 16.09191072615333,1.619208495574977 C15.824095998391428,7.419155001823668 17.131518805738175,13.567142983941366 13.881221882445985,16.435070387222183 C12.305984347337336,17.777643219008013 10.596839448347737,18.590521614800167 8.417801436103161,18.52069368838651 C8.417801436103161,18.52069368838651 8.417801436103161,18.52069368838651 8.417801436103161,18.52069368838651 M18.102955863710896,19.7734791805846 C18.370770591472798,14.005039064679778 17.029262273319993,7.8587601906727755 20.247908365149414,4.952394296687924 C21.754974878645932,3.5604401796077454 23.498205288441596,2.6856525133190736 25.609072279074056,2.6372751359111213 C25.609072279074056,2.6372751359111213 25.609072279074056,20.49874633245868 25.609072279074056,20.49874633245868 C25.609072279074056,20.49874633245868 18.102955863710896,19.7734791805846 18.102955863710896,19.7734791805846 C18.102955863710896,19.7734791805846 18.102955863710896,19.7734791805846 18.102955863710896,19.7734791805846 M27.418039031138534,9.856848227895906 C27.418039031138534,9.856848227895906 27.418039031138534,2.7861637769281167 27.418039031138534,2.7861637769281167 C31.172314578491765,3.4004178434576744 34.52243335485885,6.700595045310944 34.9241554465017,10.377386722248819 C34.9241554465017,10.377386722248819 27.418039031138534,9.856848227895906 27.418039031138534,9.856848227895906 C27.418039031138534,9.856848227895906 27.418039031138534,9.856848227895906 27.418039031138534,9.856848227895906 M46.99042627184707,5.4003167006567026 C46.99042627184707,5.4003167006567026 46.99042627184707,-1.7377881442586531 46.99042627184707,-1.7377881442586531 C46.99042627184707,-1.7377881442586531 62.37029568341018,-1.4147981729362336 62.37029568341018,-1.4147981729362336 C62.37029568341018,-1.4147981729362336 62.37029568341018,5.723306671979124 62.37029568341018,5.723306671979124 C62.37029568341018,5.723306671979124 46.99042627184707,5.4003167006567026 46.99042627184707,5.4003167006567026 C46.99042627184707,5.4003167006567026 46.99042627184707,5.4003167006567026 46.99042627184707,5.4003167006567026 M51.01008186761891,21.805914452311463 C51.01008186761891,21.805914452311463 51.01008186761891,7.362680720331905 51.01008186761891,7.362680720331905 C51.01008186761891,7.362680720331905 58.14856170214527,7.510775147472458 58.14856170214527,7.510775147472458 C58.14856170214527,7.510775147472458 58.14856170214527,21.95400887945202 58.14856170214527,21.95400887945202 C58.14856170214527,21.95400887945202 51.01008186761891,21.805914452311463 51.01008186761891,21.805914452311463 C51.01008186761891,21.805914452311463 51.01008186761891,21.805914452311463 51.01008186761891,21.805914452311463 M81.40461878925161,14.978621771860325 C80.80325299145898,18.765163029125183 77.2827066610616,22.11511026060903 72.99280165818458,22.108502507215185 C72.99280165818458,22.108502507215185 64.38134082096774,22.06290253396338 64.38134082096774,22.06290253396338 C64.64915554872964,16.26776698937482 63.3417327413829,10.190327593590446 66.59446434401838,6.999970573885307 C68.16726719978374,5.468119252648126 69.87641209877333,4.471058874444786 72.0554501110179,4.244487842030537 C72.0554501110179,4.244487842030537 72.0554501110179,14.96808910792737 72.0554501110179,14.96808910792737 C72.0554501110179,14.96808910792737 81.40461878925161,14.978621771860325 81.40461878925161,14.978621771860325 C81.40461878925161,14.978621771860325 81.40461878925161,14.978621771860325 81.40461878925161,14.978621771860325 M73.89850237388846,4.249065222394144 C78.12023635515337,4.6561297240807065 81.6066971747447,8.37683407258762 81.40461878925161,13.135484451607386 C81.40461878925161,13.135484451607386 73.89850237388846,13.129529168038033 73.89850237388846,13.129529168038033 C73.89850237388846,13.129529168038033 73.89850237388846,4.249065222394144 73.89850237388846,4.249065222394144 C73.89850237388846,4.249065222394144 73.89850237388846,4.249065222394144 73.89850237388846,4.249065222394144 M83.41566392680917,22.116514641309237 C83.44974943761524,17.92752391560218 83.01394183516632,15.347222570485854 85.05907248352995,12.431811410595358 C83.28175656292822,9.683675836572004 83.34992758454035,7.874131870634599 83.41566392680917,4.1878579650787415 C83.41566392680917,4.1878579650787415 91.08977321685936,4.192930821660717 91.08977321685936,4.192930821660717 C91.08977321685936,4.192930821660717 91.08977321685936,22.121587497891213 91.08977321685936,22.121587497891213 C91.08977321685936,22.121587497891213 83.41566392680917,22.116514641309237 83.41566392680917,22.116514641309237 C83.41566392680917,22.116514641309237 83.41566392680917,22.116514641309237 83.41566392680917,22.116514641309237 M92.9328254797299,22.125737789828037 C92.9328254797299,22.125737789828037 92.9328254797299,4.197081113597541 92.9328254797299,4.197081113597541 C92.9328254797299,4.197081113597541 100.43894189509305,4.236084691454128 100.43894189509305,4.236084691454128 C100.4730274058991,7.721551715467715 100.572849258974,10.034636061200203 98.96596089240259,12.46887066243248 C100.80901315527313,15.096908869013305 100.40729106363028,18.176578705260454 100.43894189509305,22.164741367684627 C100.43894189509305,22.164741367684627 92.9328254797299,22.125737789828037 92.9328254797299,22.125737789828037 C92.9328254797299,22.125737789828037 92.9328254797299,22.125737789828037 92.9328254797299,22.125737789828037 M110.86180416371766,22.30982879572045 C106.37225545469084,22.231264465117995 102.44998703265063,18.128251331556605 102.44998703265063,13.570679683554143 C102.44998703265063,13.570679683554143 102.44998703265063,-1.241369443887704 102.44998703265063,-1.241369443887704 C102.44998703265063,-1.241369443887704 109.92445261655101,-1.1333329711469897 109.92445261655101,-1.1333329711469897 C109.92445261655101,-1.1333329711469897 109.95610344801378,15.153883401544164 109.95610344801378,15.153883401544164 C109.95610344801378,15.153883401544164 119.2736212947847,15.40237192267628 119.2736212947847,15.40237192267628 C118.87189920314185,19.20872742021448 115.05188731351981,22.409705475731528 110.86180416371766,22.30982879572045 C110.86180416371766,22.30982879572045 110.86180416371766,22.30982879572045 110.86180416371766,22.30982879572045 M111.76750487942155,11.538319583354859 C111.76750487942155,11.538319583354859 111.76750487942155,4.400449652704129 111.76750487942155,4.400449652704129 C111.76750487942155,4.400449652704129 119.2736212947847,4.611585177096508 119.2736212947847,4.611585177096508 C119.2736212947847,4.611585177096508 119.2736212947847,11.749455107747238 119.2736212947847,11.749455107747238 C119.2736212947847,11.749455107747238 111.76750487942155,11.538319583354859 111.76750487942155,11.538319583354859 C111.76750487942155,11.538319583354859 111.76750487942155,11.538319583354859 111.76750487942155,11.538319583354859 M131.3374574407868,23.046439263492815 C131.3374574407868,23.046439263492815 131.3374574407868,-0.37780171939041907 131.3374574407868,-0.37780171939041907 C131.3374574407868,-0.37780171939041907 138.54167361758198,0.13448203474031217 138.54167361758198,0.13448203474031217 C138.54167361758198,0.13448203474031217 138.54167361758198,23.558723017623542 138.54167361758198,23.558723017623542 C138.54167361758198,23.558723017623542 131.3374574407868,23.046439263492815 131.3374574407868,23.046439263492815 C131.3374574407868,23.046439263492815 131.3374574407868,23.046439263492815 131.3374574407868,23.046439263492815 M140.38472588045255,23.71324233071796 C140.38472588045255,23.71324233071796 140.38472588045255,0.2890013478347342 140.38472588045255,0.2890013478347342 C140.38472588045255,0.2890013478347342 147.55729122578495,0.9904328592256917 147.55729122578495,0.9904328592256917 C147.55729122578495,0.9904328592256917 147.55729122578495,24.414673842108918 147.55729122578495,24.414673842108918 C147.55729122578495,24.414673842108918 140.38472588045255,23.71324233071796 140.38472588045255,23.71324233071796 C140.38472588045255,23.71324233071796 140.38472588045255,23.71324233071796 140.38472588045255,23.71324233071796 M166.5916143316264,20.09901081690576 C165.98781385449047,23.77579162873012 162.46970220343638,26.518381082727167 158.17979720055936,25.8454872623646 C158.17979720055936,25.8454872623646 149.56833636334252,24.70888149702408 149.56833636334252,24.70888149702408 C149.83615109110443,18.94271850950674 148.5287282837577,12.72685585358241 151.77902520704987,9.894617275078232 C153.3542627421585,8.553214635210086 155.06340764114813,7.775228545307034 157.2424456533927,7.846758452433676 C157.2424456533927,7.846758452433676 157.2424456533927,18.570359718330508 157.2424456533927,18.570359718330508 C157.2424456533927,18.570359718330508 166.5916143316264,20.09901081690576 166.5916143316264,20.09901081690576 C166.5916143316264,20.09901081690576 166.5916143316264,20.09901081690576 166.5916143316264,20.09901081690576 M159.08549791626325,8.119918688271817 C163.30723189752814,9.19900874483843 166.79125803777617,13.533870584425955 166.5916143316264,18.255873496652825 C166.5916143316264,18.255873496652825 159.08549791626325,17.000382633915706 159.08549791626325,17.000382633915706 C159.08549791626325,17.000382633915706 159.08549791626325,8.119918688271817 159.08549791626325,8.119918688271817 C159.08549791626325,8.119918688271817 159.08549791626325,8.119918688271817 159.08549791626325,8.119918688271817 M168.60265946918398,27.614142507725937 C168.87047419694588,21.86828975759461 167.52896587879306,15.614514301853326 170.74761197062247,12.98974342274423 C172.254678484119,11.75755536308948 173.99790889391465,11.089777983635297 176.10877588454713,11.323955476111639 C176.10877588454713,11.323955476111639 176.10877588454713,29.185426672659204 176.10877588454713,29.185426672659204 C176.10877588454713,29.185426672659204 168.60265946918398,27.614142507725937 168.60265946918398,27.614142507725937 C168.60265946918398,27.614142507725937 168.60265946918398,27.614142507725937 168.60265946918398,27.614142507725937 M177.91774263661162,18.813464782048513 C177.91774263661162,18.813464782048513 177.91774263661162,11.74278033108072 177.91774263661162,11.74278033108072 C181.67201818396484,12.999115294567055 185.02213696033192,16.965539165702047 185.42385905197477,20.728129863919058 C185.42385905197477,20.728129863919058 177.91774263661162,18.813464782048513 177.91774263661162,18.813464782048513 C177.91774263661162,18.813464782048513 177.91774263661162,18.813464782048513 177.91774263661162,18.813464782048513 M204.4581821578162,30.638026822369554 C203.85681636002357,34.19367542366277 200.33627002962618,36.23842441731691 196.04636502674916,34.74876697711608 C196.04636502674916,34.74876697711608 187.43490418953232,32.082171982705745 187.43490418953232,32.082171982705745 C187.70271891729422,26.36138769030274 186.39529610994748,19.92533491692906 189.64802771258297,17.647448843487055 C191.22083056834833,16.581130079097505 192.92997546733793,16.107934492931427 195.1090134795825,16.5764059817974 C195.1090134795825,16.5764059817974 195.1090134795825,27.300007247694225 195.1090134795825,27.300007247694225 C195.1090134795825,27.300007247694225 204.4581821578162,30.638026822369554 204.4581821578162,30.638026822369554 C204.4581821578162,30.638026822369554 204.4581821578162,30.638026822369554 204.4581821578162,30.638026822369554 M196.95206574245304,17.19261386610013 C201.17379972371796,19.08274606343575 204.66026054330928,24.114346852567806 204.4581821578162,28.794889502116604 C204.4581821578162,28.794889502116604 196.95206574245304,26.07307781174402 196.95206574245304,26.07307781174402 C196.95206574245304,26.07307781174402 196.95206574245304,17.19261386610013 196.95206574245304,17.19261386610013 C196.95206574245304,17.19261386610013 196.95206574245304,17.19261386610013 196.95206574245304,17.19261386610013 " transform="matrix(1 0 0 1 113.375 93.3299)"/><rect id="svg_14" x="74.37498474121094" y="76.32990264892578" width="243.66026306152344" height="53.238426208496094" fill="#000000" opacity="0" transform=""/></g></g></svg>