<?xml version="1.0"?>
<svg xmlns="http://www.w3.org/2000/svg" width="202" height="155"><g><title>Layer 1</title><g clip-id="907" display="null" id="svg_4"><path id="svg_5" d="m58.04587,104.75674c-1.17971,-3.11826 -2.29337,-5.65121 -3.09885,-8.28001c-1.56561,-5.11122 -1.35195,-10.3869 -1.15511,-15.65221c0.23568,-6.27283 2.24678,-12.10792 4.60749,-17.79282c1.69639,-4.0843 4.35625,-7.58978 7.57166,-10.73654c5.0918,-4.98431 11.16,-7.9705 18.05827,-9.08675c4.38735,-0.70965 8.93008,-1.17326 13.342,-0.86374c6.46577,0.45452 12.64924,2.64431 18.09584,6.11739c4.10504,2.61713 7.32173,6.37123 10.02174,10.56821c3.73985,5.81438 6.45022,12.03281 8.53381,18.58662c0.62936,1.9813 1.64462,3.84087 2.75699,6.38548c0.44289,-1.17584 0.74849,-1.78576 0.90388,-2.43193c1.0787,-4.50651 1.96706,-9.06606 3.22578,-13.52075c1.37653,-4.86905 4.65926,-8.24501 9.13075,-10.56301c0.65785,-0.34058 1.35841,-1.23539 1.44131,-1.94373c0.48041,-4.14777 0.82877,-8.31367 1.1266,-12.47959c0.14633,-2.0577 0.21236,-4.13741 0.08029,-6.19252c-0.07771,-1.20301 -0.72388,-2.35941 -0.91684,-3.56892c-0.13727,-0.86245 -0.25899,-2.29339 0.16965,-2.55496c0.75755,-0.46101 2.06934,-0.5141 2.89165,-0.15411c0.40144,0.17611 0.37038,1.68863 0.26807,2.56533c-0.12689,1.09553 -0.77049,2.1587 -0.77179,3.23741c-0.00392,6.2728 0.08028,12.5469 0.24475,18.81712c0.01813,0.68375 0.62025,1.79612 1.15121,1.9308c1.08905,0.27841 2.48503,0.49467 2.88649,-1.28072c0.31595,-1.39467 0.85983,-2.73626 1.17191,-4.13222c1.23671,-5.52563 2.4449,-11.0577 3.58966,-16.60144c0.11653,-0.56332 -0.33928,-1.22245 -0.39755,-1.84922c-0.07253,-0.77438 -0.23438,-2.12891 0.03885,-2.23899c0.92979,-0.37166 2.15869,-0.64101 3.03928,-0.31468c0.96863,0.35871 1.25482,1.52805 0.33411,2.43065c-2.99268,2.92921 -2.19368,6.91123 -2.91237,10.45424c-0.69281,3.40705 -0.93628,6.90734 -1.67827,10.30145c-0.69283,3.16749 0.93365,4.99078 3.11955,6.68978c3.65051,2.83726 4.49353,9.26287 1.5721,12.84087c-1.96837,2.40992 -4.30577,4.53236 -6.13942,7.03036c-0.87411,1.19006 -1.38303,2.97582 -1.32217,4.46114c0.17093,4.1957 -0.5439,8.23596 -1.95673,12.08591c-1.62386,4.42619 -3.68933,8.68661 -7.46414,11.82559c-1.55006,1.2898 -2.92921,2.78936 -4.50775,4.04159c-3.53268,2.79971 -7.79958,3.49382 -12.1131,3.91208c-3.65309,0.35354 -7.31527,0.72389 -10.98,0.84174c-8.99094,0.29008 -17.99872,0.82748 -26.978,0.56071c-15.03324,-0.44675 -30.05354,-1.39339 -45.07253,-2.24936c-2.70648,-0.15408 -5.43756,-0.68114 -8.04304,-1.43092c-1.22892,-0.35353 -2.73107,-1.4633 -3.09883,-2.56661c-0.30433,-0.91036 0.641,-2.5252 1.45293,-3.46274c2.2442,-2.58734 5.33268,-3.58317 8.66592,-3.71137c2.88777,-0.11267 5.78588,-0.02461 9.11394,-0.02461z" fill-rule="evenodd"></path></g></g></svg>
