<svg xmlns="http://www.w3.org/2000/svg" width="189" height="237" x="0" y="0" id="svgcontent" viewBox="0 0 189 237" overflow="hidden"><defs><mask id="canvasMaskImageDef" maskUnits="objectBoundingBox" x="0" y="0"><image id="canvasMaskImage" preserveAspectRatio="none" x="-105" y="-85" width="400" height="344.82758620689657" xlink:href="http://192.168.0.222/work/jan_langius/print_commerce/source/designnbuy/uploads/productimage/5826b9c0eeec0.png" xmlns:xlink="http://www.w3.org/1999/xlink"/></mask></defs><g mask="url(#canvasMaskImageDef)" style="pointer-events:all"><title style="pointer-events:inherit">Layer 1</title><g id="svg_1" type="text" text="Digital@##@#@  Printing@##@#@Method" font-size="12.021367344403494" font-family="Kroftsmann" fill="000000" text-anchor="start" font-weight="normal" font-style="normal" lineHeight="1" shapeId="0" shapeVal="0" fill-opacity="1" display="null" elemBBoxWidth="173.65625" xscale="12.30513959438401" yscale="NaN" elemBBoxHeight="165.80079650878906" stroke="null" stroke-dasharray="none" style="pointer-events:inherit"><path id="svg_8" fill="#000000" stroke-width="0" d="M27.74255,48.19059C27.74255,48.19059 24.12237,42.0223 24.12237,42.0223C24.12237,42.0223 9.87523,42.0223 9.87523,42.0223C9.87523,42.0223 9.87523,78.12936 9.87523,78.12936C9.87523,78.12936 24.12237,78.12936 24.12237,78.12936C24.12237,78.12936 27.74255,71.20884 27.74255,71.20884C27.74255,71.20884 27.74255,48.19059 27.74255,48.19059C27.74255,48.19059 27.74255,48.19059 27.74255,48.19059M20.5022,49.69505C20.5022,49.69505 20.5022,69.70438 20.5022,69.70438C20.5022,69.70438 16.4149,69.70438 16.4149,69.70438C16.4149,69.70438 16.4149,49.69505 16.4149,49.69505C16.4149,49.69505 20.5022,49.69505 20.5022,49.69505C20.5022,49.69505 20.5022,49.69505 20.5022,49.69505M29.14391,42.0223C29.14391,42.0223 29.14391,50.44728 29.14391,50.44728C29.14391,50.44728 31.4795,50.44728 31.4795,50.44728C31.4795,50.44728 31.4795,69.70438 31.4795,69.70438C31.4795,69.70438 29.14391,69.70438 29.14391,69.70438C29.14391,69.70438 29.14391,78.12936 29.14391,78.12936C29.14391,78.12936 40.35477,78.12936 40.35477,78.12936C40.35477,78.12936 40.35477,69.70438 40.35477,69.70438C40.35477,69.70438 38.01917,69.70438 38.01917,69.70438C38.01917,69.70438 38.01917,50.44728 38.01917,50.44728C38.01917,50.44728 40.35477,50.44728 40.35477,50.44728C40.35477,50.44728 40.35477,42.0223 40.35477,42.0223C40.35477,42.0223 29.14391,42.0223 29.14391,42.0223C29.14391,42.0223 29.14391,42.0223 29.14391,42.0223M41.75613,48.19059C41.75613,48.19059 45.3763,42.0223 45.3763,42.0223C45.3763,42.0223 58.45565,42.0223 58.45565,42.0223C58.45565,42.0223 58.45565,49.69505 58.45565,49.69505C58.45565,49.69505 48.2958,49.69505 48.2958,49.69505C48.2958,49.69505 48.2958,69.70438 48.2958,69.70438C48.2958,69.70438 52.38309,69.70438 52.38309,69.70438C52.38309,69.70438 52.38309,61.73074 52.38309,61.73074C52.38309,61.73074 59.62344,61.73074 59.62344,61.73074C59.62344,61.73074 59.62344,78.12936 59.62344,78.12936C59.62344,78.12936 45.3763,78.12936 45.3763,78.12936C45.3763,78.12936 41.75613,71.20884 41.75613,71.20884C41.75613,71.20884 41.75613,48.19059 41.75613,48.19059C41.75613,48.19059 41.75613,48.19059 41.75613,48.19059M61.0248,42.0223C61.0248,42.0223 61.0248,50.44728 61.0248,50.44728C61.0248,50.44728 63.3604,50.44728 63.3604,50.44728C63.3604,50.44728 63.3604,69.70438 63.3604,69.70438C63.3604,69.70438 61.0248,69.70438 61.0248,69.70438C61.0248,69.70438 61.0248,78.12936 61.0248,78.12936C61.0248,78.12936 72.23566,78.12936 72.23566,78.12936C72.23566,78.12936 72.23566,69.70438 72.23566,69.70438C72.23566,69.70438 69.90007,69.70438 69.90007,69.70438C69.90007,69.70438 69.90007,50.44728 69.90007,50.44728C69.90007,50.44728 72.23566,50.44728 72.23566,50.44728C72.23566,50.44728 72.23566,42.0223 72.23566,42.0223C72.23566,42.0223 61.0248,42.0223 61.0248,42.0223C61.0248,42.0223 61.0248,42.0223 61.0248,42.0223M73.63702,42.0223C73.63702,42.0223 90.45332,42.0223 90.45332,42.0223C90.45332,42.0223 90.45332,49.69505 90.45332,49.69505C90.45332,49.69505 85.66534,49.69505 85.66534,49.69505C85.66534,49.69505 85.66534,78.12936 85.66534,78.12936C85.66534,78.12936 79.0089,78.12936 79.0089,78.12936C79.0089,78.12936 79.0089,49.69505 79.0089,49.69505C79.0089,49.69505 73.63702,49.69505 73.63702,49.69505C73.63702,49.69505 73.63702,42.0223 73.63702,42.0223C73.63702,42.0223 73.63702,42.0223 73.63702,42.0223M106.68572,42.0223C106.68572,42.0223 95.47485,42.0223 95.47485,42.0223C95.47485,42.0223 91.85468,48.19059 91.85468,48.19059C91.85468,48.19059 91.85468,78.12936 91.85468,78.12936C91.85468,78.12936 98.39435,78.12936 98.39435,78.12936C98.39435,78.12936 98.39435,67.44769 98.39435,67.44769C98.39435,67.44769 103.18232,67.44769 103.18232,67.44769C103.18232,67.44769 103.18232,78.12936 103.18232,78.12936C103.18232,78.12936 109.722,78.12936 109.722,78.12936C109.722,78.12936 109.722,48.19059 109.722,48.19059C109.722,48.19059 106.68572,42.0223 106.68572,42.0223M103.18232,59.77494C103.18232,59.77494 98.39435,59.77494 98.39435,59.77494C98.39435,59.77494 98.39435,49.69505 98.39435,49.69505C98.39435,49.69505 103.18232,49.69505 103.18232,49.69505C103.18232,49.69505 103.18232,59.77494 103.18232,59.77494C103.18232,59.77494 103.18232,59.77494 103.18232,59.77494M117.66302,42.0223C117.66302,42.0223 111.12335,42.0223 111.12335,42.0223C111.12335,42.0223 111.12335,78.12936 111.12335,78.12936C111.12335,78.12936 128.99066,78.12936 128.99066,78.12936C128.99066,78.12936 128.99066,70.45661 128.99066,70.45661C128.99066,70.45661 117.66302,70.45661 117.66302,70.45661C117.66302,70.45661 117.66302,42.0223 117.66302,42.0223C117.66302,42.0223 117.66302,42.0223 117.66302,42.0223" style="pointer-events:inherit"/><path id="svg_9" fill="#000000" stroke-width="0" d="M57.17107,124.61744C57.17107,124.61744 57.17107,113.03309 57.17107,113.03309C57.17107,113.03309 53.55089,106.8648 53.55089,106.8648C53.55089,106.8648 39.30375,106.8648 39.30375,106.8648C39.30375,106.8648 39.30375,142.97186 39.30375,142.97186C39.30375,142.97186 45.84342,142.97186 45.84342,142.97186C45.84342,142.97186 45.84342,131.38751 45.84342,131.38751C45.84342,131.38751 53.55089,131.38751 53.55089,131.38751C53.55089,131.38751 57.17107,124.61744 57.17107,124.61744M49.93072,123.11298C49.93072,123.11298 45.84342,123.11298 45.84342,123.11298C45.84342,123.11298 45.84342,114.53755 45.84342,114.53755C45.84342,114.53755 49.93072,114.53755 49.93072,114.53755C49.93072,114.53755 49.93072,123.11298 49.93072,123.11298C49.93072,123.11298 49.93072,123.11298 49.93072,123.11298M72.81956,129.13083C72.81956,129.13083 76.43974,124.61744 76.43974,124.61744C76.43974,124.61744 76.43974,113.03309 76.43974,113.03309C76.43974,113.03309 72.81956,106.8648 72.81956,106.8648C72.81956,106.8648 58.57243,106.8648 58.57243,106.8648C58.57243,106.8648 58.57243,142.97186 58.57243,142.97186C58.57243,142.97186 65.1121,142.97186 65.1121,142.97186C65.1121,142.97186 65.1121,131.38751 65.1121,131.38751C65.1121,131.38751 66.27989,131.38751 66.27989,131.38751C66.27989,131.38751 71.06786,142.97186 71.06786,142.97186C71.06786,142.97186 78.77534,142.97186 78.77534,142.97186C78.77534,142.97186 72.81956,129.13083 72.81956,129.13083M69.19939,123.11298C69.19939,123.11298 65.1121,123.11298 65.1121,123.11298C65.1121,123.11298 65.1121,114.53755 65.1121,114.53755C65.1121,114.53755 69.19939,114.53755 69.19939,114.53755C69.19939,114.53755 69.19939,123.11298 69.19939,123.11298C69.19939,123.11298 69.19939,123.11298 69.19939,123.11298M80.1767,106.8648C80.1767,106.8648 80.1767,115.28978 80.1767,115.28978C80.1767,115.28978 82.51229,115.28978 82.51229,115.28978C82.51229,115.28978 82.51229,134.54688 82.51229,134.54688C82.51229,134.54688 80.1767,134.54688 80.1767,134.54688C80.1767,134.54688 80.1767,142.97186 80.1767,142.97186C80.1767,142.97186 91.38756,142.97186 91.38756,142.97186C91.38756,142.97186 91.38756,134.54688 91.38756,134.54688C91.38756,134.54688 89.05196,134.54688 89.05196,134.54688C89.05196,134.54688 89.05196,115.28978 89.05196,115.28978C89.05196,115.28978 91.38756,115.28978 91.38756,115.28978C91.38756,115.28978 91.38756,106.8648 91.38756,106.8648C91.38756,106.8648 80.1767,106.8648 80.1767,106.8648C80.1767,106.8648 80.1767,106.8648 80.1767,106.8648M92.78892,142.97186C92.78892,142.97186 92.78892,106.8648 92.78892,106.8648C92.78892,106.8648 99.32858,106.8648 99.32858,106.8648C99.32858,106.8648 105.28436,121.45807 105.28436,121.45807C105.28436,121.45807 105.28436,106.8648 105.28436,106.8648C105.28436,106.8648 112.52471,106.8648 112.52471,106.8648C112.52471,106.8648 112.52471,142.97186 112.52471,142.97186C112.52471,142.97186 105.28436,142.97186 105.28436,142.97186C105.28436,142.97186 99.32858,127.62636 99.32858,127.62636C99.32858,127.62636 99.32858,142.97186 99.32858,142.97186C99.32858,142.97186 92.78892,142.97186 92.78892,142.97186C92.78892,142.97186 92.78892,142.97186 92.78892,142.97186M113.80929,106.8648C113.80929,106.8648 130.6256,106.8648 130.6256,106.8648C130.6256,106.8648 130.6256,114.53755 130.6256,114.53755C130.6256,114.53755 125.83761,114.53755 125.83761,114.53755C125.83761,114.53755 125.83761,142.97186 125.83761,142.97186C125.83761,142.97186 119.18116,142.97186 119.18116,142.97186C119.18116,142.97186 119.18116,114.53755 119.18116,114.53755C119.18116,114.53755 113.80929,114.53755 113.80929,114.53755C113.80929,114.53755 113.80929,106.8648 113.80929,106.8648C113.80929,106.8648 113.80929,106.8648 113.80929,106.8648M132.02695,106.8648C132.02695,106.8648 132.02695,115.28978 132.02695,115.28978C132.02695,115.28978 134.36255,115.28978 134.36255,115.28978C134.36255,115.28978 134.36255,134.54688 134.36255,134.54688C134.36255,134.54688 132.02695,134.54688 132.02695,134.54688C132.02695,134.54688 132.02695,142.97186 132.02695,142.97186C132.02695,142.97186 143.23781,142.97186 143.23781,142.97186C143.23781,142.97186 143.23781,134.54688 143.23781,134.54688C143.23781,134.54688 140.90222,134.54688 140.90222,134.54688C140.90222,134.54688 140.90222,115.28978 140.90222,115.28978C140.90222,115.28978 143.23781,115.28978 143.23781,115.28978C143.23781,115.28978 143.23781,106.8648 143.23781,106.8648C143.23781,106.8648 132.02695,106.8648 132.02695,106.8648C132.02695,106.8648 132.02695,106.8648 132.02695,106.8648M144.63918,142.97186C144.63918,142.97186 144.63918,106.8648 144.63918,106.8648C144.63918,106.8648 151.17885,106.8648 151.17885,106.8648C151.17885,106.8648 157.13461,121.45807 157.13461,121.45807C157.13461,121.45807 157.13461,106.8648 157.13461,106.8648C157.13461,106.8648 164.37495,106.8648 164.37495,106.8648C164.37495,106.8648 164.37495,142.97186 164.37495,142.97186C164.37495,142.97186 157.13461,142.97186 157.13461,142.97186C157.13461,142.97186 151.17885,127.62636 151.17885,127.62636C151.17885,127.62636 151.17885,142.97186 151.17885,142.97186C151.17885,142.97186 144.63918,142.97186 144.63918,142.97186C144.63918,142.97186 144.63918,142.97186 144.63918,142.97186M165.65955,113.03309C165.65955,113.03309 169.27971,106.8648 169.27971,106.8648C169.27971,106.8648 182.35905,106.8648 182.35905,106.8648C182.35905,106.8648 182.35905,114.53755 182.35905,114.53755C182.35905,114.53755 172.1992,114.53755 172.1992,114.53755C172.1992,114.53755 172.1992,134.54688 172.1992,134.54688C172.1992,134.54688 176.28651,134.54688 176.28651,134.54688C176.28651,134.54688 176.28651,126.57324 176.28651,126.57324C176.28651,126.57324 183.52686,126.57324 183.52686,126.57324C183.52686,126.57324 183.52686,142.97186 183.52686,142.97186C183.52686,142.97186 169.27971,142.97186 169.27971,142.97186C169.27971,142.97186 165.65955,136.05135 165.65955,136.05135C165.65955,136.05135 165.65955,113.03309 165.65955,113.03309C165.65955,113.03309 165.65955,113.03309 165.65955,113.03309" style="pointer-events:inherit"/><path id="svg_10" fill="#000000" stroke-width="0" d="M23.53848,204.05275C23.53848,204.05275 27.74255,190.2117 27.74255,190.2117C27.74255,190.2117 27.74255,207.8139 27.74255,207.8139C27.74255,207.8139 34.28222,207.8139 34.28222,207.8139C34.28222,207.8139 34.28222,171.70683 34.28222,171.70683C34.28222,171.70683 26.57475,171.70683 26.57475,171.70683C26.57475,171.70683 22.37068,184.79564 22.37068,184.79564C22.37068,184.79564 17.5827,171.70683 17.5827,171.70683C17.5827,171.70683 9.87523,171.70683 9.87523,171.70683C9.87523,171.70683 9.87523,207.8139 9.87523,207.8139C9.87523,207.8139 16.4149,207.8139 16.4149,207.8139C16.4149,207.8139 16.4149,190.2117 16.4149,190.2117C16.4149,190.2117 21.20288,204.05275 21.20288,204.05275C21.20288,204.05275 23.53848,204.05275 23.53848,204.05275C23.53848,204.05275 23.53848,204.05275 23.53848,204.05275M35.68358,171.70683C35.68358,171.70683 50.51462,171.70683 50.51462,171.70683C50.51462,171.70683 49.58038,179.53003 49.58038,179.53003C49.58038,179.53003 42.22325,179.53003 42.22325,179.53003C42.22325,179.53003 42.22325,184.79564 42.22325,184.79564C42.22325,184.79564 50.51462,184.79564 50.51462,184.79564C50.51462,184.79564 49.58038,192.4684 49.58038,192.4684C49.58038,192.4684 42.22325,192.4684 42.22325,192.4684C42.22325,192.4684 42.22325,200.14114 42.22325,200.14114C42.22325,200.14114 50.51462,200.14114 50.51462,200.14114C50.51462,200.14114 49.58038,207.8139 49.58038,207.8139C49.58038,207.8139 35.68358,207.8139 35.68358,207.8139C35.68358,207.8139 35.68358,171.70683 35.68358,171.70683C35.68358,171.70683 35.68358,171.70683 35.68358,171.70683M51.91597,171.70683C51.91597,171.70683 68.73228,171.70683 68.73228,171.70683C68.73228,171.70683 68.73228,179.37958 68.73228,179.37958C68.73228,179.37958 63.9443,179.37958 63.9443,179.37958C63.9443,179.37958 63.9443,207.8139 63.9443,207.8139C63.9443,207.8139 57.28785,207.8139 57.28785,207.8139C57.28785,207.8139 57.28785,179.37958 57.28785,179.37958C57.28785,179.37958 51.91597,179.37958 51.91597,179.37958C51.91597,179.37958 51.91597,171.70683 51.91597,171.70683C51.91597,171.70683 51.91597,171.70683 51.91597,171.70683M88.00095,171.70683C88.00095,171.70683 80.7606,171.70683 80.7606,171.70683C80.7606,171.70683 80.7606,184.79564 80.7606,184.79564C80.7606,184.79564 76.6733,184.79564 76.6733,184.79564C76.6733,184.79564 76.6733,171.70683 76.6733,171.70683C76.6733,171.70683 70.13363,171.70683 70.13363,171.70683C70.13363,171.70683 70.13363,207.8139 70.13363,207.8139C70.13363,207.8139 76.6733,207.8139 76.6733,207.8139C76.6733,207.8139 76.6733,192.4684 76.6733,192.4684C76.6733,192.4684 80.7606,192.4684 80.7606,192.4684C80.7606,192.4684 80.7606,207.8139 80.7606,207.8139C80.7606,207.8139 88.00095,207.8139 88.00095,207.8139C88.00095,207.8139 88.00095,171.70683 88.00095,171.70683C88.00095,171.70683 88.00095,171.70683 88.00095,171.70683M89.40231,178.62735C89.40231,178.62735 93.02248,171.70683 93.02248,171.70683C93.02248,171.70683 103.64944,171.70683 103.64944,171.70683C103.64944,171.70683 107.26962,177.87512 107.26962,177.87512C107.26962,177.87512 107.26962,200.89337 107.26962,200.89337C107.26962,200.89337 103.64944,207.8139 103.64944,207.8139C103.64944,207.8139 93.02248,207.8139 93.02248,207.8139C93.02248,207.8139 89.40231,201.6456 89.40231,201.6456C89.40231,201.6456 89.40231,178.62735 89.40231,178.62735C89.40231,178.62735 89.40231,178.62735 89.40231,178.62735M100.02927,199.38892C100.02927,199.38892 100.02927,180.13182 100.02927,180.13182C100.02927,180.13182 95.94197,180.13182 95.94197,180.13182C95.94197,180.13182 95.94197,199.38892 95.94197,199.38892C95.94197,199.38892 100.02927,199.38892 100.02927,199.38892C100.02927,199.38892 100.02927,199.38892 100.02927,199.38892M126.5383,177.87512C126.5383,177.87512 122.91811,171.70683 122.91811,171.70683C122.91811,171.70683 108.67097,171.70683 108.67097,171.70683C108.67097,171.70683 108.67097,207.8139 108.67097,207.8139C108.67097,207.8139 122.91811,207.8139 122.91811,207.8139C122.91811,207.8139 126.5383,200.89337 126.5383,200.89337C126.5383,200.89337 126.5383,177.87512 126.5383,177.87512C126.5383,177.87512 126.5383,177.87512 126.5383,177.87512M119.29794,179.37958C119.29794,179.37958 119.29794,199.38892 119.29794,199.38892C119.29794,199.38892 115.21064,199.38892 115.21064,199.38892C115.21064,199.38892 115.21064,179.37958 115.21064,179.37958C115.21064,179.37958 119.29794,179.37958 119.29794,179.37958C119.29794,179.37958 119.29794,179.37958 119.29794,179.37958" style="pointer-events:inherit"/><rect id="svg_11" x="9.875000178813934" y="42.019531045109034" width="119.12228718400002" height="36.11328108608723" fill="#000000" opacity="0" style="pointer-events:inherit"/><rect id="svg_12" x="39.30039084330201" y="106.87208504229784" width="144.23086101934314" height="36.09568202123046" fill="#000000" opacity="0" style="pointer-events:inherit"/><rect id="svg_13" x="9.875000178813934" y="171.70703997462988" width="116.66334088891745" height="36.11328108608723" fill="#000000" opacity="0" style="pointer-events:inherit"/></g></g></svg>