<svg xmlns="http://www.w3.org/2000/svg" width="190" height="242" id="svgcontent" overflow="visible" x="0" y="0" viewBox="0 0 190 242"><g style="pointer-events:all" mask=""><title style="pointer-events:inherit">Layer 1</title><g stroke="null" shapeVal="0" shapeId="0" lineHeight="1" font-style="normal" font-weight="normal" text-anchor="middle" fill="#FF0000" font-family="Brush-Script" font-size="30" text="Raj" type="nameText" id="nameText" fill-opacity="1" transform=""><path d="M75.37998183105469,59.6499718310547 C73.48998183105469,59.31997183105469 73.75998183105469,57.4299718310547 75.22998183105469,56.529971831054695 C76.06998183105469,56.019971831054704 77.14998183105469,55.65997183105469 78.55998183105469,55.509971831054685 C78.55998183105469,55.509971831054685 82.99998183105468,49.1499718310547 82.99998183105468,49.1499718310547 C82.99998183105468,49.1499718310547 79.06998183105469,49.9599718310547 79.06998183105469,49.9599718310547 C79.06998183105469,49.9599718310547 76.63998183105468,50.769971831054704 76.63998183105468,50.769971831054704 C77.47998183105469,50.829971831054706 78.76998183105468,50.739971831054675 79.06998183105469,51.279971831054695 C78.70998183105469,51.87997183105469 77.35998183105468,51.66997183105468 76.45998183105469,51.84997183105469 C75.52998183105468,52.029971831054695 74.56998183105469,52.11997183105467 73.5199818310547,52.11997183105467 C71.35998183105468,52.05997183105467 72.88998183105468,49.29997183105468 73.5199818310547,48.4599718310547 C76.09998183105469,44.979971831054684 82.33998183105469,44.6499718310547 88.09998183105469,44.6499718310547 C90.67998183105469,44.6499718310547 92.6899818310547,44.94997183105468 94.12998183105469,45.66997183105468 C95.95998183105469,46.56997183105469 96.4999818310547,47.6799718310547 96.04998183105468,49.749971831054694 C94.60998183105468,56.13997183105468 86.20998183105469,55.80997183105467 79.39998183105469,57.30997183105467 C79.39998183105469,57.30997183105467 90.70998183105469,61.1499718310547 90.70998183105469,61.1499718310547 C92.26998183105468,61.8399718310547 92.7499818310547,62.34997183105469 92.80998183105469,64.44997183105468 C92.83998183105469,65.79997183105468 92.0299818310547,65.88997183105468 90.88998183105468,65.43997183105469 C90.88998183105468,65.43997183105469 82.78998183105469,62.259971831054685 82.78998183105469,62.259971831054685 C82.78998183105469,62.259971831054685 77.53998183105469,60.4299718310547 77.53998183105469,60.4299718310547 C77.53998183105469,60.4299718310547 74.98998183105469,64.0599718310547 74.98998183105469,64.0599718310547 C75.10998183105468,65.34997183105469 73.87998183105469,66.06997183105469 72.70998183105469,66.21997183105469 C71.86998183105469,66.00997183105468 72.04998183105468,65.10997183105468 72.49998183105468,64.2699718310547 C72.49998183105468,64.2699718310547 73.81998183105469,61.989971831054675 73.81998183105469,61.989971831054675 C73.81998183105469,61.989971831054675 75.37998183105469,59.6499718310547 75.37998183105469,59.6499718310547 M92.98998183105468,48.759971831054685 C90.61998183105469,48.249971831054694 87.73998183105469,48.60997183105468 84.70998183105469,48.93997183105469 C84.61998183105469,49.8999718310547 84.28998183105469,50.5899718310547 83.83998183105469,51.18997183105469 C83.83998183105469,51.18997183105469 81.4099818310547,54.789971831054686 81.4099818310547,54.789971831054686 C81.4099818310547,54.789971831054686 83.92998183105469,54.279971831054695 83.92998183105469,54.279971831054695 C87.58998183105469,53.37997183105469 91.81998183105469,52.509971831054685 93.76998183105468,49.9599718310547 C94.2199818310547,49.35997183105468 93.82998183105468,48.93997183105469 92.98998183105468,48.759971831054685 C92.98998183105468,48.759971831054685 92.98998183105468,48.759971831054685 92.98998183105468,48.759971831054685 M109.63998183105468,60.09997183105469 C109.63998183105468,60.519971831054704 109.54998183105468,60.96997183105469 109.60998183105468,61.35997183105468 C107.95998183105469,62.61997183105467 106.39998183105469,64.0899718310547 104.53998183105469,65.13997183105468 C103.30998183105469,65.82997183105468 101.92998183105469,65.43997183105469 101.92998183105469,64.0899718310547 C101.92998183105469,62.6799718310547 102.4699818310547,61.989971831054675 103.06998183105469,60.60997183105468 C101.53998183105469,61.8399718310547 100.00998183105469,63.249971831054694 98.35998183105468,64.29997183105468 C95.95998183105469,65.82997183105468 94.33998183105469,62.79997183105468 94.60998183105468,60.09997183105469 C96.07998183105468,56.91997183105468 99.97998183105469,55.329971831054706 103.45998183105469,54.12997183105469 C105.28998183105469,53.499971831054694 107.08998183105469,53.499971831054694 107.56998183105469,55.11997183105467 C107.53998183105469,55.65997183105469 106.9099818310547,55.71997183105469 106.51998183105468,55.8999718310547 C107.44998183105469,56.19997183105468 107.56998183105469,57.21997183105469 106.9399818310547,58.029971831054695 C106.12998183105469,59.10997183105468 104.6899818310547,59.91997183105468 104.6899818310547,61.539971831054686 C104.6899818310547,62.10997183105468 105.16998183105468,62.529971831054695 105.79998183105468,62.40997183105469 C107.44998183105469,62.079971831054706 107.77998183105468,61.329971831054706 109.63998183105468,60.09997183105469 C109.63998183105468,60.09997183105469 109.63998183105468,60.09997183105469 109.63998183105468,60.09997183105469 M96.97998183105469,60.759971831054685 C96.85998183105468,61.2099718310547 96.52998183105468,62.5899718310547 97.30998183105469,62.529971831054695 C100.30998183105469,61.539971831054686 102.73998183105468,58.62997183105469 104.7199818310547,56.5899718310547 C102.04998183105468,57.3999718310547 99.4999818310547,58.29997183105468 97.54998183105468,59.91997183105468 C97.27998183105468,60.18997183105469 97.06998183105469,60.4599718310547 96.97998183105469,60.759971831054685 C96.97998183105469,60.759971831054685 96.97998183105469,60.759971831054685 96.97998183105469,60.759971831054685 M118.2499818310547,60.09997183105469 C118.2499818310547,60.09997183105469 118.1899818310547,61.35997183105468 118.1899818310547,61.35997183105468 C118.1899818310547,61.35997183105468 114.58998183105469,63.54997183105468 114.58998183105469,63.54997183105468 C114.58998183105469,63.54997183105468 111.94998183105469,64.8399718310547 111.94998183105469,64.8399718310547 C111.94998183105469,64.8399718310547 109.36998183105469,68.82997183105468 109.36998183105469,68.82997183105468 C108.61998183105469,69.78997183105469 107.86998183105469,71.13997183105468 106.54998183105468,71.28997183105469 C105.97998183105469,71.34997183105469 105.67998183105469,70.8999718310547 105.70998183105469,70.32997183105468 C105.88998183105468,67.29997183105468 108.58998183105469,65.76997183105468 110.32998183105468,64.1499718310547 C110.32998183105468,64.1499718310547 114.19998183105469,56.829971831054706 114.19998183105469,56.829971831054706 C112.72998183105469,57.54997183105468 111.4099818310547,58.479971831054684 109.75998183105469,59.019971831054704 C110.14998183105469,57.4299718310547 110.35998183105468,55.749971831054694 111.82998183105468,55.17997183105467 C113.08998183105469,54.66997183105468 114.22998183105469,53.499971831054694 115.84998183105469,53.499971831054694 C117.55998183105469,53.499971831054694 117.28998183105469,54.93997183105469 116.56998183105469,56.31997183105469 C116.56998183105469,56.31997183105469 113.86998183105469,61.269971831054704 113.86998183105469,61.269971831054704 C113.50998183105469,61.8999718310547 113.26998183105468,62.43997183105469 113.08998183105469,62.88997183105468 C113.08998183105469,62.88997183105468 116.80998183105469,60.93997183105469 116.80998183105469,60.93997183105469 C116.80998183105469,60.93997183105469 118.2499818310547,60.09997183105469 118.2499818310547,60.09997183105469 M117.64998183105469,49.0899718310547 C118.1899818310547,49.0899718310547 118.63998183105468,49.539971831054686 118.63998183105468,50.079971831054706 C118.57998183105468,51.4599718310547 117.61998183105469,52.59997183105469 116.35998183105468,52.68997183105469 C115.60998183105468,52.749971831054694 115.00998183105469,52.1499718310547 115.06998183105469,51.36997183105467 C115.1599818310547,50.13997183105468 116.32998183105468,49.17997183105467 117.64998183105469,49.0899718310547 C117.64998183105469,49.0899718310547 117.64998183105469,49.0899718310547 117.64998183105469,49.0899718310547 " fill="#FF0000" id="svg_20" transform=""/></g><g type="photobox" pathStr="M144.70241622868133,73.66302975741176 C204.36522739456035,-107.18089408802805 438.1110333370101,73.66302975741176 144.70241622868133,306.18508349001036 C-148.70930721521125,73.66302975741176 85.03855590310854,-107.17984492833426 144.70241622868133,73.66302975741176 z" lockTransform="null" lockEdit="null" id="svg_1" display="null" stroke="null" transform=""><g clip-path="url(#svg_4)" stroke="null" transform=""><image xmlns:xlink="http://www.w3.org/1999/xlink" x="8.50030814095502" y="10.375149799285419" width="91.91231945086676" height="68.93423958815008" preserveAspectRatio="none" id="svg_6" xlink:href="http://37.97.236.145/~shirtwere/designnbuy/assets/images/uploadedImage/o_1b4ihnnhm1gtspgltvf1uq7mtca.jpg" origWidth="1024" origHeight="768" image_id="514" colors="" filter="url(#svg_7)" stroke="null" transform=""/></g><path d="M37.000168224646835,24.883449633818145 C48.75105542296471,-10.734660007389621 94.78845367885634,24.883449633818145 37.000168224646835,70.67982380962286 C-20.78872903779123,24.883449633818145 25.24907438911268,-10.734453370173341 37.000168224646835,24.883449633818145 z" id="svg_5" opacity="1" shapeType="heart" fill="#000" fill-opacity="0" stroke-width="5" stroke-dasharray="none" cursor="move" stroke="#c5a544" transform=""/></g></g><defs><clipPath class="clippath" id="svg_4"><path d="M37.000168224646835,24.883449633818145 C48.75105542296471,-10.734660007389621 94.78845367885634,24.883449633818145 37.000168224646835,70.67982380962286 C-20.78872903779123,24.883449633818145 25.24907438911268,-10.734453370173341 37.000168224646835,24.883449633818145 z" id="" opacity="1" shapeType="heart" fill="#000" fill-opacity="0" stroke-width="5" stroke-dasharray="none" cursor="move" stroke="#c5a544" transform=""/></clipPath><filter id="svg_7" type="css_hue_rotate" color-interpolation-filters="sRGB"><feColorMatrix type="hueRotate" values="180"/></filter></defs></svg>