<svg xmlns="http://www.w3.org/2000/svg" width="401" height="220" x="0" y="0" id="svgcontent" overflow="hidden" viewBox="0 0 401 220"><g style="pointer-events:all" mask="url(#canvasMaskImageDef)"><title style="pointer-events:inherit">Layer 1</title><g id="svg_1" type="text" text="Your Text Here" font-size="36.08894747085209" font-family="Aldo" font-id="1" fill="fefbfb" text-anchor="start" font-weight="normal" font-style="normal" lineHeight="1" shapeId="8" shapeVal="-10" fill-opacity="1" display="null" elemBBoxWidth="267.0068664550781" stroke-width="0" stroke-dasharray="none" stroke-opacity="1" stroke="ull" transform="rotate(-18.5591 196.415 102.933)"><path id="svg_14" fill="#fefbfb" stroke="#ull" stroke-width="0" d="M14.141340105340507,4.28913051055736 C11.32795825802891,2.0771545108637515 8.837079642049398,-2.1488456824101974 8.837079642049398,-5.938323749793785 C8.837079642049398,-5.938323749793785 8.837079642049398,-11.06306219768679 8.837079642049398,-11.06306219768679 C8.837079642049398,-11.06306219768679 17.10155269212037,-8.074185114843003 17.10155269212037,-8.074185114843003 C17.10155269212037,-8.074185114843003 17.10155269212037,17.152319023561056 17.10155269212037,17.152319023561056 C17.10155269212037,17.152319023561056 14.141340105340507,16.126347866380716 14.141340105340507,16.126347866380716 C14.141340105340507,16.126347866380716 14.141340105340507,4.28913051055736 14.141340105340507,4.28913051055736 C14.141340105340507,4.28913051055736 14.141340105340507,4.28913051055736 14.141340105340507,4.28913051055736 M27.169946255658616,0.1855211385182809 C27.169946255658616,3.974999205901865 24.715775324546165,6.616252485968452 21.828978107500436,6.853868879531756 C21.828978107500436,6.853868879531756 21.828978107500436,18.69108623535511 21.828978107500436,18.69108623535511 C21.828978107500436,18.69108623535511 19.086389652432466,17.813110949342175 19.086389652432466,17.813110949342175 C19.086389652432466,17.813110949342175 19.086389652432466,-7.413393189061882 19.086389652432466,-7.413393189061882 C19.086389652432466,-7.413393189061882 27.169946255658616,-4.939217309374726 27.169946255658616,-4.939217309374726 C27.169946255658616,-4.939217309374726 27.169946255658616,0.1855211385182809 27.169946255658616,0.1855211385182809 C27.169946255658616,0.1855211385182809 27.169946255658616,0.1855211385182809 27.169946255658616,0.1855211385182809 M37.60017271288651,22.994488586608824 C32.94354068975008,21.34539987637298 29.33569966281554,16.345847595306207 29.33569966281554,10.896275057118757 C29.33569966281554,6.0963706995202 33.197872506329034,3.0771286777959395 37.60017271288651,3.7951241422662196 C37.60017271288651,3.7951241422662196 37.60017271288651,22.994488586608824 37.60017271288651,22.994488586608824 C37.60017271288651,22.994488586608824 37.60017271288651,22.994488586608824 37.60017271288651,22.994488586608824 M39.58500967319861,4.252156069388443 C44.097432934357286,5.730949167447829 47.668566276424755,10.51729989422224 47.668566276424755,15.894518421643173 C47.668566276424755,20.622321754526844 43.91651648751246,23.99084420206688 39.58500967319861,23.45152051373104 C39.58500967319861,23.45152051373104 39.58500967319861,4.252156069388443 39.58500967319861,4.252156069388443 C39.58500967319861,4.252156069388443 39.58500967319861,4.252156069388443 39.58500967319861,4.252156069388443 M57.917876286807825,26.879781511528364 C53.51557608025035,25.782884580160797 49.83431968358168,21.0980773257035 49.83431968358168,16.298172968104936 C49.83431968358168,16.298172968104936 49.83431968358168,6.265252132515222 49.83431968358168,6.265252132515222 C49.83431968358168,6.265252132515222 57.917876286807825,7.6080630564192475 57.917876286807825,7.6080630564192475 C57.917876286807825,7.6080630564192475 57.917876286807825,26.879781511528364 57.917876286807825,26.879781511528364 C57.917876286807825,26.879781511528364 57.917876286807825,26.879781511528364 57.917876286807825,26.879781511528364 M59.90271324711992,27.17181405630255 C59.90271324711992,27.17181405630255 59.90271324711992,7.900095601193428 59.90271324711992,7.900095601193428 C59.90271324711992,7.900095601193428 68.1671862971909,8.967968781737365 68.1671862971909,8.967968781737365 C67.87876877323538,15.214171825468995 69.28677068563643,21.834777274280654 65.78643073581259,24.924197177094896 C64.09001129945601,26.37048739592568 62.24938310112167,27.246382191160507 59.90271324711992,27.17181405630255 C59.90271324711992,27.17181405630255 59.90271324711992,27.17181405630255 59.90271324711992,27.17181405630255 M70.33293970434782,28.518312119515272 C70.62135722830334,22.306041647467566 69.17926960852573,15.687573329528032 72.64290187348251,12.556512143593388 C74.26590594010494,11.05710776430822 76.14324182330635,10.114608600440118 78.41649630757396,10.062023531839003 C78.41649630757396,10.062023531839003 78.41649630757396,29.29756498156486 78.41649630757396,29.29756498156486 C78.41649630757396,29.29756498156486 70.33293970434782,28.518312119515272 70.33293970434782,28.518312119515272 C70.33293970434782,28.518312119515272 70.33293970434782,28.518312119515272 70.33293970434782,28.518312119515272 M80.3672475605095,17.83679909754769 C80.3672475605095,17.83679909754769 80.3672475605095,10.222171929500519 80.3672475605095,10.222171929500519 C84.40771487337732,10.882677800704506 88.01817787780236,14.436232126970005 88.45080416373565,18.395797816951255 C88.45080416373565,18.395797816951255 80.3672475605095,17.83679909754769 80.3672475605095,17.83679909754769 C80.3672475605095,17.83679909754769 80.3672475605095,17.83679909754769 80.3672475605095,17.83679909754769 M101.44270262918668,13.033695272269085 C101.44270262918668,13.033695272269085 101.44270262918668,5.346461107403762 101.44270262918668,5.346461107403762 C101.44270262918668,5.346461107403762 118.0083564141957,5.692620262693698 118.0083564141957,5.692620262693698 C118.0083564141957,5.692620262693698 118.0083564141957,13.379854427559021 118.0083564141957,13.379854427559021 C118.0083564141957,13.379854427559021 101.44270262918668,13.033695272269085 101.44270262918668,13.033695272269085 C101.44270262918668,13.033695272269085 101.44270262918668,13.033695272269085 101.44270262918668,13.033695272269085 M105.77420944350054,30.700895971366023 C105.77420944350054,30.700895971366023 105.77420944350054,15.146554558925601 105.77420944350054,15.146554558925601 C105.77420944350054,15.146554558925601 113.45922546816996,15.305178570796766 113.45922546816996,15.305178570796766 C113.45922546816996,15.305178570796766 113.45922546816996,30.859519983237192 113.45922546816996,30.859519983237192 C113.45922546816996,30.859519983237192 105.77420944350054,30.700895971366023 105.77420944350054,30.700895971366023 C105.77420944350054,30.700895971366023 105.77420944350054,30.700895971366023 105.77420944350054,30.700895971366023 M138.50697643496184,23.34633177030728 C137.85672601731667,27.424172625420987 134.0679685435373,31.03188176962319 129.44804420526793,31.024898450723214 C129.44804420526793,31.024898450723214 120.17148784386212,30.976261801958735 120.17148784386212,30.976261801958735 C120.46252734530815,24.735313469686474 119.0545254329071,18.190441139281234 122.55486538273094,14.754398415785204 C124.25128481908752,13.104621819294973 126.09191301742185,12.030762574605518 128.4359608939331,11.78664923844001 C128.4359608939331,11.78664923844001 128.4359608939331,23.335209509352175 128.4359608939331,23.335209509352175 C128.4359608939331,23.335209509352175 138.50697643496184,23.34633177030728 138.50697643496184,23.34633177030728 C138.50697643496184,23.34633177030728 138.50697643496184,23.34633177030728 138.50697643496184,23.34633177030728 M130.4207978542452,11.791507834282758 C134.96992880027094,12.229777177019827 138.72197858918324,16.236672190110227 138.50697643496184,21.361403209208973 C138.50697643496184,21.361403209208973 130.4207978542452,21.355139544096616 130.4207978542452,21.355139544096616 C130.4207978542452,21.355139544096616 130.4207978542452,11.791507834282758 130.4207978542452,11.791507834282758 C130.4207978542452,11.791507834282758 130.4207978542452,11.791507834282758 130.4207978542452,11.791507834282758 M140.67010786462825,31.033335296185093 C140.70681554949533,26.52208859844636 140.23748157869497,23.743285578445125 142.43994267071898,20.60360480095693 C140.5258991026505,17.644046712384146 140.59931447238463,15.69529598669643 140.67010786462825,11.725439835692715 C140.67010786462825,11.725439835692715 148.93458091469924,11.731041543825576 148.93458091469924,11.731041543825576 C148.93458091469924,11.731041543825576 148.93458091469924,31.038937004317958 148.93458091469924,31.038937004317958 C148.93458091469924,31.038937004317958 140.67010786462825,31.033335296185093 140.67010786462825,31.033335296185093 C140.67010786462825,31.033335296185093 140.67010786462825,31.033335296185093 140.67010786462825,31.033335296185093 M150.92203985250183,31.043481809340363 C150.92203985250183,31.043481809340363 150.92203985250183,11.735586348847981 150.92203985250183,11.735586348847981 C150.92203985250183,11.735586348847981 159.00559645572798,11.778020825814771 159.00559645572798,11.778020825814771 C159.03968216310454,15.531603148643313 159.14980521770573,18.0226603947781 157.41667809648212,20.64402832899793 C159.4015150567942,23.474365157069705 158.96888877086093,26.790923295109422 159.00559645572798,31.085916286307153 C159.00559645572798,31.085916286307153 150.92203985250183,31.043481809340363 150.92203985250183,31.043481809340363 C150.92203985250183,31.043481809340363 150.92203985250183,31.043481809340363 150.92203985250183,31.043481809340363 M170.22766011508833,31.243091299809045 C165.39273362259755,31.158022104936393 161.1713498628849,26.73905646425304 161.1713498628849,21.830874076556334 C161.1713498628849,21.830874076556334 161.1713498628849,5.879344563054943 161.1713498628849,5.879344563054943 C161.1713498628849,5.879344563054943 169.21819878124398,5.996360964423577 169.21819878124398,5.996360964423577 C169.21819878124398,5.996360964423577 169.25490646611107,23.53659559670305 169.25490646611107,23.53659559670305 C169.25490646611107,23.53659559670305 179.28659234478224,23.80532728560651 179.28659234478224,23.80532728560651 C178.85396605884895,27.90444511709306 174.74008337624701,31.351153659779797 170.22766011508833,31.243091299809045 C170.22766011508833,31.243091299809045 170.22766011508833,31.243091299809045 170.22766011508833,31.243091299809045 M171.20303574155608,19.64304022804254 C171.20303574155608,19.64304022804254 171.20303574155608,11.956059049228848 171.20303574155608,11.956059049228848 C171.20303574155608,11.956059049228848 179.28659234478224,12.184413003927823 179.28659234478224,12.184413003927823 C179.28659234478224,12.184413003927823 179.28659234478224,19.87139418274151 179.28659234478224,19.87139418274151 C179.28659234478224,19.87139418274151 171.20303574155608,19.64304022804254 171.20303574155608,19.64304022804254 C171.20303574155608,19.64304022804254 171.20303574155608,19.64304022804254 171.20303574155608,19.64304022804254 M192.27849081023328,32.03973629572602 C192.27849081023328,32.03973629572602 192.27849081023328,6.813232157321966 192.27849081023328,6.813232157321966 C192.27849081023328,6.813232157321966 200.03954418212734,7.366629555123325 200.03954418212734,7.366629555123325 C200.03954418212734,7.366629555123325 200.03954418212734,32.593133693527385 200.03954418212734,32.593133693527385 C200.03954418212734,32.593133693527385 192.27849081023328,32.03973629572602 192.27849081023328,32.03973629572602 C192.27849081023328,32.03973629572602 192.27849081023328,32.03973629572602 192.27849081023328,32.03973629572602 M202.02438114243944,32.75996876448362 C202.02438114243944,32.75996876448362 202.02438114243944,7.533464626079557 202.02438114243944,7.533464626079557 C202.02438114243944,7.533464626079557 209.74610485197593,8.290369955543241 209.74610485197593,8.290369955543241 C209.74610485197593,8.290369955543241 209.74610485197593,33.516874093947294 209.74610485197593,33.516874093947294 C209.74610485197593,33.516874093947294 202.02438114243944,32.75996876448362 202.02438114243944,32.75996876448362 C202.02438114243944,32.75996876448362 202.02438114243944,32.75996876448362 202.02438114243944,32.75996876448362 M230.24472487274207,28.87456459801595 C229.59447445509687,32.833997624799316 225.80571698131752,35.78643643102603 221.18579264304816,35.060458364355284 C221.18579264304816,35.060458364355284 211.91185825913286,33.83398659581314 211.91185825913286,33.83398659581314 C212.20027578308836,27.62430787488266 210.79227387068732,20.92991904048555 214.29261382051115,17.880666795403613 C215.98903325686774,16.436506938247106 217.82966145520206,15.599155038690334 220.17633130920382,15.676821669125395 C220.17633130920382,15.676821669125395 220.17633130920382,27.225381940037565 220.17633130920382,27.225381940037565 C220.17633130920382,27.225381940037565 230.24472487274207,28.87456459801595 230.24472487274207,28.87456459801595 C230.24472487274207,28.87456459801595 230.24472487274207,28.87456459801595 230.24472487274207,28.87456459801595 M222.1611682695159,15.971546832354441 C226.70767723805116,17.134963135718976 230.46234900445396,21.80492259809538 230.24472487274207,26.889636036917636 C230.24472487274207,26.889636036917636 222.1611682695159,25.535178542168296 222.1611682695159,25.535178542168296 C222.1611682695159,25.535178542168296 222.1611682695159,15.971546832354441 222.1611682695159,15.971546832354441 C222.1611682695159,15.971546832354441 222.1611682695159,15.971546832354441 222.1611682695159,15.971546832354441 M232.410478279899,36.968506268981514 C232.6988958038545,30.78072042716785 231.2568081840769,24.045884059959512 234.72044044903367,21.219801517610243 C236.3434445156561,19.893352191612326 238.2207803988575,19.174827543956983 240.49403488312512,19.427792300206555 C240.49403488312512,19.427792300206555 240.49403488312512,38.66333374993241 240.49403488312512,38.66333374993241 C240.49403488312512,38.66333374993241 232.410478279899,36.968506268981514 232.410478279899,36.968506268981514 C232.410478279899,36.968506268981514 232.410478279899,36.968506268981514 232.410478279899,36.968506268981514 M242.44216415857017,27.494139983656027 C242.44216415857017,27.494139983656027 242.44216415857017,19.879512815608855 242.44216415857017,19.879512815608855 C246.4852534489285,21.233940550556497 250.093094475863,25.506834103265113 250.5283427392868,29.559762532372297 C250.5283427392868,29.559762532372297 242.44216415857017,27.494139983656027 242.44216415857017,27.494139983656027 C242.44216415857017,27.494139983656027 242.44216415857017,27.494139983656027 242.44216415857017,27.494139983656027 M271.0269627600529,40.24077472072274 C270.37671234240776,44.06865446921945 266.5879548686284,46.2699853175596 261.96803053035904,44.66369952903227 C261.96803053035904,44.66369952903227 252.69147416895322,41.78736809293507 252.69147416895322,41.78736809293507 C252.98251367039927,35.62735270015423 251.5745117579982,28.695619961542377 255.07485170782206,26.243119774938855 C256.7712711441786,25.09624584593049 258.61189934251297,24.587413632354078 260.9559472190242,25.09205469887314 C260.9559472190242,25.09205469887314 260.9559472190242,36.640614969785304 260.9559472190242,36.640614969785304 C260.9559472190242,36.640614969785304 271.0269627600529,40.24077472072274 271.0269627600529,40.24077472072274 C271.0269627600529,40.24077472072274 271.0269627600529,40.24077472072274 271.0269627600529,40.24077472072274 M262.94078417933633,25.75649432952728 C267.489915125362,27.79493798296241 271.2419649142743,33.21431716628791 271.0269627600529,38.255846159624426 C271.0269627600529,38.255846159624426 262.94078417933633,35.32012603934113 262.94078417933633,35.32012603934113 C262.94078417933633,35.32012603934113 262.94078417933633,25.75649432952728 262.94078417933633,25.75649432952728 C262.94078417933633,25.75649432952728 262.94078417933633,25.75649432952728 262.94078417933633,25.75649432952728 " transform="matrix(1 0 0 1 56.375 85.3299)"/><rect id="svg_15" x="65.21207809448242" y="74.26683807373047" width="262.4049072265625" height="57.333045959472656" fill="#000000" opacity="0" transform=""/></g><g id="svg_16" type="text" text="Racing" font-size="37.75079264720546" font-family="Brush-Script" font-id="1" fill="000000" text-anchor="start" font-weight="normal" font-style="normal" lineHeight="1" shapeId="0" shapeVal="0" fill-opacity="1" display="null" elemBBoxWidth="107.25001525878906" stroke-opacity="1" stroke="null" transform=""><path id="svg_17" fill="#000000" d="M248.43359335808148,134.55521585806358 C246.05529330299547,134.13995711828665 246.39505045372204,131.76165706320057 248.24483938545566,130.62913322744527 C249.30186163216052,129.98736972051728 250.66089023506692,129.53436018621517 252.4351775777502,129.3456062135893 C252.4351775777502,129.3456062135893 258.0222951674762,121.34243777425198 258.0222951674762,121.34243777425198 C258.0222951674762,121.34243777425198 253.07694108467814,122.36170922643174 253.07694108467814,122.36170922643174 C253.07694108467814,122.36170922643174 250.0191267281389,123.38098067861148 250.0191267281389,123.38098067861148 C251.07614897484385,123.45648226766184 252.69943313942633,123.34322988408631 253.07694108467814,124.02274418553947 C252.62393155037603,124.777760076043 250.92514579674312,124.51350451436677 249.79262196098787,124.74000928151781 C248.6223473307074,124.96651404866887 247.41432190590177,125.0797664322444 246.09304409752062,125.0797664322444 C243.37498689170798,125.00426484319404 245.3002774124919,121.53119174687787 246.09304409752062,120.47416950017293 C249.33961242668573,116.09507733525254 257.19177768792235,115.6798185954756 264.43993023675614,115.6798185954756 C267.6864985659212,115.6798185954756 270.215801799108,116.05732654072736 272.02783993631647,116.96334560933158 C274.33063840235224,118.09586944508685 275.0101527038054,119.49264884251838 274.44389078592775,122.09745366475549 C272.6318526487193,130.13837289861797 262.06163018167,129.72311415884104 253.49219982445504,131.61065388509985 C253.49219982445504,131.61065388509985 267.7242493604464,136.44275558432236 267.7242493604464,136.44275558432236 C269.68729067575555,137.3110238584014 270.2913033881583,137.9527873653294 270.36680497720874,140.59534298209172 C270.4045557717339,142.29412873572466 269.38528431955416,142.40738111930017 267.9507541275975,141.84111920142254 C267.9507541275975,141.84111920142254 257.7580396058,137.83953498175387 257.7580396058,137.83953498175387 C257.7580396058,137.83953498175387 251.1516505638942,135.53673651571813 251.1516505638942,135.53673651571813 C251.1516505638942,135.53673651571813 247.94283302925422,140.1045826532644 247.94283302925422,140.1045826532644 C248.09383620735497,141.72786681784697 246.54605363182273,142.6338858864512 245.07377264534088,142.8226398590771 C244.01675039863593,142.55838429740086 244.24325516578702,141.42586046164558 244.80951708366464,140.36883821494067 C244.80951708366464,140.36883821494067 246.4705520427724,137.4997778310273 246.4705520427724,137.4997778310273 C246.4705520427724,137.4997778310273 248.43359335808148,134.55521585806358 248.43359335808148,134.55521585806358 M270.5933097443598,120.8516774454247 C267.61099697687087,120.20991393849671 263.98692070245403,120.66292347279882 260.17409045541126,121.07818221257575 C260.06083807183575,122.28620763738138 259.6455793320588,123.15447591146042 259.0793174141811,123.90949180196394 C259.0793174141811,123.90949180196394 256.0215030576419,128.43958714498507 256.0215030576419,128.43958714498507 C256.0215030576419,128.43958714498507 259.1925697977566,127.79782363805705 259.1925697977566,127.79782363805705 C263.7981667298281,126.66529980230179 269.121028757878,125.57052676107169 271.5748304020143,122.36170922643174 C272.141092319892,121.60669333592823 271.6503319910647,121.07818221257575 270.5933097443598,120.8516774454247 C270.5933097443598,120.8516774454247 270.5933097443598,120.8516774454247 270.5933097443598,120.8516774454247 M291.5450007058324,135.1214777759412 C291.5450007058324,135.64998889929367 291.4317483222569,136.2162508171713 291.50724991130727,136.7070111459986 C289.4309562124226,138.29254451605595 287.4679148971134,140.1423334477896 285.12736563655255,141.46361125617076 C283.5795830610203,142.3318795302498 281.8430465128622,141.84111920142254 281.8430465128622,140.1423334477896 C281.8430465128622,138.36804610510632 282.5225608143154,137.4997778310273 283.2775767048189,135.76324128286922 C281.35228618403494,137.3110238584014 279.426995663251,139.08531120108466 277.3507019643663,140.40658900946585 C274.33063840235224,142.3318795302498 272.2920954979927,138.51904928320704 272.6318526487193,135.1214777759412 C274.4816415804529,131.1198935562726 279.38924486872577,129.11910144643824 283.7683370336462,127.60906966543119 C286.07113549968193,126.81630298040248 288.3361831711925,126.81630298040248 288.9401958835953,128.85484588476197 C288.9024450890701,129.53436018621517 288.10967840404146,129.6098617752655 287.6189180752141,129.83636654241658 C288.78919270549454,130.21387448766833 288.9401958835953,131.4974015015243 288.1474291985666,132.51667295370405 C287.1281577463868,133.8757015566104 285.3161196091784,134.89497300879015 285.3161196091784,136.93351591314965 C285.3161196091784,137.65078100912797 285.9201323215812,138.17929213248044 286.7128990066099,138.02828895437975 C288.78919270549454,137.61303021460282 289.2044514452715,136.6692603514734 291.5450007058324,135.1214777759412 C291.5450007058324,135.1214777759412 291.5450007058324,135.1214777759412 291.5450007058324,135.1214777759412 M275.6141654162082,135.95199525549506 C275.46316223810743,136.51825717337272 275.0479034983305,138.2547937215308 276.0294241559851,138.17929213248044 C279.8045036085027,136.93351591314965 282.86231796504194,133.27168884420757 285.3538704037036,130.70463481649563 C281.9940496909629,131.72390626867536 278.785232156323,132.85643010443067 276.3314305121865,134.89497300879015 C275.9916733614599,135.23473015951674 275.7274177997837,135.5744873102433 275.6141654162082,135.95199525549506 C275.6141654162082,135.95199525549506 275.6141654162082,135.95199525549506 275.6141654162082,135.95199525549506 M305.1352867348957,135.1214777759412 C305.1352867348957,135.1214777759412 305.0975359403707,136.74476194052377 305.0975359403707,136.74476194052377 C302.45498032360825,138.67005246130776 299.69917232327043,141.35035887259522 295.5088341309759,141.50136205069595 C291.05424037700516,141.69011602332182 290.41247687007717,134.25320950186216 293.0550324868394,131.72390626867536 C295.3955817474004,129.4588585971648 298.3778945148893,126.70305059682696 302.45498032360825,126.70305059682696 C305.2485391184713,126.70305059682696 303.43650098126284,130.62913322744527 302.45498032360825,131.61065388509985 C301.7754660221551,132.290168186553 301.1714533097523,133.15843646063206 300.1144310630474,133.34719043325794 C299.17066119991796,133.30943963873275 298.9064056382417,132.66767613180477 298.755402460141,131.72390626867536 C297.4341246517598,132.6299253372796 296.07509604885354,133.57369520040896 294.90482141857314,134.6307174471139 C293.1305340758898,136.2162508171713 294.67831665142205,138.36804610510632 296.86786273388225,138.36804610510632 C300.3409358301984,138.36804610510632 302.87023906338516,136.59375876242305 305.1352867348957,135.1214777759412 C305.1352867348957,135.1214777759412 305.1352867348957,135.1214777759412 305.1352867348957,135.1214777759412 M316.08301714719676,135.1214777759412 C316.08301714719676,135.1214777759412 316.04526635267166,136.74476194052377 316.04526635267166,136.74476194052377 C316.04526635267166,136.74476194052377 312.6099440508806,139.42506835181126 312.6099440508806,139.42506835181126 C311.4396694206001,140.21783503683994 310.1561424067442,141.19935569449456 308.4573566531112,141.27485728354486 C305.399542296572,141.3881096671204 304.6067756115433,137.27327306387622 305.5127946801476,134.40421267996285 C306.38106295422665,131.648404679625 309.0236185709889,127.94882681615778 312.3834392837296,127.94882681615778 C313.85572027021146,127.94882681615778 314.15772662641285,129.23235383001378 313.2517075578087,130.36487766576903 C311.8926789549023,132.02591262487678 310.0051392286435,133.76244917303487 308.4951074476365,135.23473015951674 C307.7400915571329,136.59375876242305 308.75936300931266,138.10379054343008 310.4203979684204,137.9527873653294 C312.8364488180317,137.68853180365318 313.85572027021146,136.63150955694823 316.08301714719676,135.1214777759412 C316.08301714719676,135.1214777759412 316.08301714719676,135.1214777759412 316.08301714719676,135.1214777759412 M315.9697647636213,122.66371558263316 C316.6492790650745,122.66371558263316 317.2155409829521,123.22997750051078 317.2155409829521,123.90949180196394 C317.1022885993766,125.60827755559687 315.93201396909615,127.1183093366039 314.3087298045135,127.23156172017943 C313.36495994138414,127.30706330922979 312.6476948454058,126.51429662420108 312.72319643445616,125.53277596654651 C312.8364488180317,123.9849933910143 314.3087298045135,122.77696796620867 315.9697647636213,122.66371558263316 C315.9697647636213,122.66371558263316 315.9697647636213,122.66371558263316 315.9697647636213,122.66371558263316 M323.93518240843343,129.27010462453893 C323.2934189015054,131.72390626867536 319.8958473942396,132.96968248800619 319.21633309278644,135.3857333376174 C319.51833944898783,136.367253995272 320.34885692854175,135.34798254309226 320.72636487379344,134.93272380331533 C322.8781601617285,132.51667295370405 326.38898405256987,129.7986157478914 329.1825428474329,127.94882681615778 C330.1640635050874,127.30706330922979 330.8435778065406,127.00505695302837 331.2588365463176,127.00505695302837 C332.20260640944696,127.34481410375496 332.1271048203966,128.96809826833754 332.50461276564835,129.91186813146692 C331.44759051894346,132.25241739202784 327.9367666281021,133.4226920223083 327.9367666281021,136.51825717337272 C327.9367666281021,137.19777147482586 328.3142745733538,137.57527942007766 329.0315396693322,137.4997778310273 C330.95683019011614,137.3110238584014 331.9383508477707,136.32950320074684 333.75038898497917,135.1214777759412 C333.75038898497917,135.64998889929367 333.6371366014036,136.2162508171713 333.71263819045396,136.74476194052377 C331.2210857517924,138.44354769415668 329.2957952310084,141.3881096671204 325.59621736754116,141.3881096671204 C323.1046649288796,141.3881096671204 323.4444220796061,137.72628259817833 324.5391951208362,136.02749684454542 C324.5391951208362,136.02749684454542 326.8419935868719,132.51667295370405 326.8419935868719,132.51667295370405 C324.0106839974838,134.55521585806358 321.707885531448,137.9150365708042 319.21633309278644,140.1423334477896 C317.1022885993766,142.0298731740484 315.70550920194506,139.27406517371057 316.04526635267166,136.2162508171713 C316.4227742979234,132.7431777208551 318.46131720228294,130.06287130956764 321.0283712299949,128.6660919121361 C322.08539347669983,128.4018363504599 323.859680819383,128.32633476140956 323.93518240843343,129.27010462453893 C323.93518240843343,129.27010462453893 323.93518240843343,129.27010462453893 323.93518240843343,129.27010462453893 M350.6249941377328,135.1214777759412 C350.6249941377328,135.64998889929367 350.51174175415724,136.2162508171713 350.58724334320766,136.7070111459986 C350.58724334320766,136.7070111459986 342.9238320545969,141.76561761237218 342.9238320545969,141.76561761237218 C340.65878438308636,144.8611827634366 338.84674624587785,148.598511421429 335.18491917693586,150.1840447914864 C334.4299032864323,150.52380194221297 333.297379450677,150.59930353126333 333.4106318342526,149.46677969550802 C333.75038898497917,146.7109716951702 335.9776858619646,145.12543832511284 337.6387208210723,143.50215416053027 C338.6957430677772,142.48288270835053 340.0925224652087,141.42586046164558 341.1495447119137,140.67084457114206 C341.1495447119137,140.67084457114206 343.792100328676,135.46123492666777 343.792100328676,135.46123492666777 C341.6780558352661,137.34877465292658 339.7905161090073,140.2933366258903 336.2796922181659,140.2933366258903 C334.6564080535834,140.2933366258903 333.6748873959288,138.48129848868186 333.6748873959288,136.74476194052377 C333.6748873959288,131.04439196722223 339.073251013029,128.96809826833754 343.15033682174794,127.23156172017943 C344.433863835604,126.70305059682696 347.15192104141664,126.74080139135214 346.5101575344886,128.32633476140956 C344.24510986297804,130.96889037817186 339.52626054733105,131.87490944677606 337.1857112867702,134.25320950186216 C336.46844619079184,134.9704745978405 336.2796922181659,135.83874287191958 336.3929446017415,137.1600206803007 C339.6395129309066,137.57527942007766 341.3382986845395,135.04597618689087 343.15033682174794,133.3849412277831 C344.433863835604,132.21466659750266 345.1888797261075,130.66688402197042 346.47240673996345,129.6098617752655 C347.60493057571875,128.6660919121361 349.00170997315024,130.62913322744527 348.35994646622225,131.87490944677606 C348.35994646622225,131.87490944677606 344.8868733699061,138.44354769415668 344.8868733699061,138.44354769415668 C344.8868733699061,138.44354769415668 350.6249941377328,135.1214777759412 350.6249941377328,135.1214777759412 " stroke="null" transform=""/><rect id="svg_18" x="244.33283081085315" y="115.6798185954756" width="106.29216332687966" height="34.725295697736684" fill="#000000" opacity="0" stroke="null" transform=""/></g></g><defs><mask id="canvasMaskImageDef" maskUnits="objectBoundingBox" x="0" y="0"><image id="canvasMaskImage" preserveAspectRatio="none" style="pointer-events:none" x="0" y="-1" width="400" height="222.22222222222223" xmlns:xlink="http://www.w3.org/1999/xlink" xlink:href="http://192.168.0.46/dnb_products/magento2/designnbuy/uploads/productimage/56eb110bc986f.png"/></mask></defs></svg>