<svg xmlns="http://www.w3.org/2000/svg" width="401" height="220" x="0" y="0" id="svgcontent" overflow="hidden" viewBox="0 0 401 220"><g style="pointer-events:all" mask="url(#canvasMaskImageDef)"><title style="pointer-events:inherit">Layer 1</title><g id="svg_1" type="text" text="Your Text Here" font-size="24.0770912836376" font-family="Brush-Script" font-id="1" fill="000000" text-anchor="start" font-weight="normal" font-style="normal" lineHeight="1" shapeId="8" shapeVal="5" fill-opacity="1" display="null" elemBBoxWidth="148.8414306640625" stroke="ull" stroke-opacity="1" stroke-width="0" stroke-dasharray="none" transform="rotate(-14.5742 197.169 107.88)"><path id="svg_4" fill="#000000" stroke="#ull" stroke-width="0" d="M2.9840924556018105,14.892555032886413 C2.4294410150047083,15.310911375329361 1.2742869480544754,16.842482568740085 0.8409192891346057,15.908771982903293 C1.250621819922332,14.393358885930335 1.3940916592234494,12.83526969225604 2.574389924814084,11.851564837313889 C2.574389924814084,11.851564837313889 5.51182395421634,9.45497135277364 5.51182395421634,9.45497135277364 C7.437573755969481,8.109619025697567 9.435798012627309,6.413868287966986 11.98867370988224,5.760427681434362 C13.577195435752344,5.363887919904885 13.98689796654007,6.751585754751132 13.096497520568187,8.205006877834123 C11.578971179094514,10.710315834448005 8.353118400581765,15.283572212502635 6.788261802843806,17.826728582610436 C6.5708384381297416,18.193321082887145 6.451033726960767,18.43983200899242 6.451033726960767,18.608438047376183 C6.451033726960767,18.824996261814043 6.594503566261885,18.933923551040657 6.8119269309759485,18.880273363785893 C8.521732438523284,17.964763850412837 10.688570733122633,15.428523297305334 12.108478421051215,13.801290602298828 C12.108478421051215,13.801290602298828 16.924331995942325,8.41822865773686 16.924331995942325,8.41822865773686 C17.91087202495104,7.548155842817309 18.946221380732297,9.011268652585683 18.29690942760662,10.01046245007256 C18.29690942760662,10.01046245007256 14.059372421444758,16.536866110187333 14.059372421444758,16.536866110187333 C13.216302231737162,18.004416057997226 11.45916646792554,20.58344645319882 11.049463937137814,21.97154698494364 C11.19441284694719,22.37366634982959 11.45916646792554,21.955939381641215 11.939864383109697,21.613439935681498 C13.216302231737162,20.67692120637628 14.34779117055525,19.369980878347658 16.033931549970443,18.88396903195076 C16.77938308613295,18.677047268014988 16.635913246831834,19.352810001539076 16.153736261139418,19.82511221909241 C16.153736261139418,19.82511221909241 12.302236657633136,23.656814587785373 12.302236657633136,23.656814587785373 C12.302236657633136,23.656814587785373 8.329453272449623,28.314886106292555 8.329453272449623,28.314886106292555 C7.629852922043143,29.15522486657352 6.137470779209872,29.20839126086897 6.282419689019248,28.06455693331089 C6.619647764902288,25.38047320565264 8.810151187633778,21.942689555367213 10.30253333046705,19.582417319021285 C10.30253333046705,19.582417319021285 13.938088639767525,13.888143312667568 13.938088639767525,13.888143312667568 C13.938088639767525,13.888143312667568 7.125489878726844,21.283543862918773 7.125489878726844,21.283543862918773 C6.20994523411456,22.111644059903035 5.294400589502276,23.25884934277602 4.1155813944199,23.615463434820462 C3.4411252426538232,23.67625833033769 2.6941946359830578,23.23093231671 2.6941946359830578,22.460603811066754 C4.043106939515212,18.19319293941331 7.629852922043143,14.17911944934636 9.89430987018758,10.547950648304543 C10.182728619298075,10.07441993435874 10.278868202334905,9.692044478643478 9.86916567154718,9.614647527910577 C7.774801831852519,11.062431284275366 5.125786551560757,13.286065539597905 2.9840924556018105,14.892555032886413 C2.9840924556018105,14.892555032886413 2.9840924556018105,14.892555032886413 2.9840924556018105,14.892555032886413 M27.71119321267478,15.897220449829057 C27.71119321267478,15.897220449829057 27.662383885902237,16.938198328191056 27.662383885902237,16.938198328191056 C26.603369401988832,17.787168662709952 25.80910853905378,18.463768213061996 24.171777486411134,18.48515238443289 C23.136428130629877,19.56694504172249 22.342167267694826,20.49928483283232 20.63236176014749,20.756001906978028 C17.453839237899025,21.27887878073596 17.57512301957626,16.08118061531806 19.524537949461543,14.165709926583546 C20.920780509257984,12.814215690642538 22.36583239582697,11.515090943232511 24.701284728367835,11.07081661525637 C25.32693155336137,10.965013982018192 25.9777225769953,11.195122792799182 26.001387705127446,11.745924309451226 C26.001387705127446,12.107222963130715 25.71296895601695,12.28790368080226 25.4482153350386,12.466205733395704 C26.097527288164276,12.624876162095594 26.28980645423794,12.84160468420036 26.28980645423794,13.708500475261301 C26.28980645423794,14.960560519143865 25.736634084149095,15.896562680140384 25.134652387287705,17.0332053044622 C26.362280909142626,16.97398443564412 26.868123022967183,16.502921719101373 27.71119321267478,15.897220449829057 C27.71119321267478,15.897220449829057 27.71119321267478,15.897220449829057 27.71119321267478,15.897220449829057 M22.679395343577863,17.77810896619655 C22.004939191811786,16.35907878682951 22.82286518287898,15.205302589663669 23.497321334645058,13.786084268804359 C22.02860431994393,14.959238810174533 19.861766025344583,15.98942569591555 19.861766025344583,18.300853168384947 C19.861766025344583,19.697432673739307 22.22088348601759,18.44638396008025 22.679395343577863,17.77810896619655 C22.679395343577863,17.77810896619655 22.679395343577863,17.77810896619655 22.679395343577863,17.77810896619655 M39.38845487537912,14.87493652250114 C39.38845487537912,15.211927621498829 39.31598042047443,15.577733408666552 39.364789747246974,15.887672489888153 C39.364789747246974,15.887672489888153 36.884388504896734,18.10773597827977 36.884388504896734,18.10773597827977 C36.11379277009382,18.72042503744209 35.27072258038623,19.437812604538635 34.115568513435996,19.583044445116943 C33.103884285786876,19.72098170414975 32.527046787565894,18.522138442947046 32.88793999158107,17.381128397087103 C32.88793999158107,17.381128397087103 33.2976425223688,16.09177955016593 33.2976425223688,16.09177955016593 C32.11734425677817,17.236749771786066 31.323083393843113,19.19185343245975 29.395854521581715,19.391569790951845 C27.589909430997547,19.595098333605975 27.350300008659598,16.75813068717668 27.97594683365313,15.047804961089241 C28.48178894747769,13.665819455729014 29.44466384835426,12.42792307933036 30.527343460399802,11.495304882341195 C30.985855317960073,11.111447616935251 31.491697431784633,10.892745885803034 32.02120467374133,10.84134542982771 C32.911605119713215,10.733710634999419 33.682200854516125,10.977178124691664 33.08021915765473,11.82583209170964 C32.16467451304245,13.139067596446713 30.744766825113867,14.169654170414423 29.70941746933261,15.361040872589237 C29.44466384835426,15.678506073596598 29.131100900603364,16.771981051935523 29.613277886295776,16.984461732939803 C31.491697431784633,16.189804006507046 32.79180040854424,14.500702846850382 34.211708096472826,13.218322003451615 C35.295866779026625,12.23674940360444 36.90805363302887,10.184574733445388 38.16082635352419,9.708848008132179 C38.66666846734876,9.722203493333428 38.76280805038559,10.341727983963178 38.76280805038559,11.015710181958557 C38.08835189861951,12.964280047396704 35.535476201364574,13.95092386234455 35.295866779026625,16.354007211161786 C35.633094854909665,17.81948286720681 37.606174912927095,16.32115833628456 38.20815660978848,15.821107829990103 C38.20815660978848,15.821107829990103 39.38845487537912,14.87493652250114 39.38845487537912,14.87493652250114 M48.753929333674726,14.39160340390043 C48.753929333674726,14.39160340390043 48.73026420554259,15.427703083466264 48.73026420554259,15.427703083466264 C48.73026420554259,15.427703083466264 46.56342591094324,17.267048504185023 46.56342591094324,17.267048504185023 C45.86530463104502,17.777812259077212 45.071043768109966,18.463028684466693 44.012029284196565,18.512930026510695 C42.30222377664923,18.601285570952605 42.061135283803026,16.303116113836275 42.9515357297749,14.978998328207034 C43.50618717037201,14.15606133683458 44.03569441232871,13.3351501401256 44.685006365454385,12.605887851436359 C44.685006365454385,12.605887851436359 41.98866082889833,13.297423897609626 41.98866082889833,13.297423897609626 C41.98866082889833,13.297423897609626 40.78469743517556,14.594973441847936 40.78469743517556,14.594973441847936 C40.37499490438783,15.05317407588487 39.82182253429899,15.497192934057765 39.33964554860657,15.913399431401546 C39.364789747246974,15.550681390890464 39.31598042047443,15.168482578932965 39.38845487537912,14.850849945589173 C39.87063186107153,14.410424106843116 40.327664648123545,14.02080499755004 40.73736717891127,13.514360541939833 C39.82182253429899,13.546843137498023 40.15905061018203,12.297674467420594 40.44746935929252,11.798369309753054 C41.049451056153906,10.726924742822133 41.84371191908896,9.645916069856252 43.12014976771643,9.239822910335146 C43.62599188154098,9.23814158843986 43.69846633644567,9.860549391684142 43.43371271546732,10.283116740604235 C43.43371271546732,10.283116740604235 46.732039948884754,9.699890414679949 46.732039948884754,9.699890414679949 C47.43016122878298,9.6724395778396 48.032142925644365,10.829702888081044 47.647584593497044,11.56635661561555 C46.94946331359882,12.941549689756599 45.09470889624211,13.574147129392449 44.94975998643273,15.434758214071248 C45.19084847927894,16.892643772727617 47.23788206270932,15.48251317091459 47.791054432798155,15.076295117891707 C47.791054432798155,15.076295117891707 48.753929333674726,14.39160340390043 48.753929333674726,14.39160340390043 M63.634857717267934,18.479409818407305 C63.00773182176614,19.18154061952429 61.3230705128592,18.85726210512366 61.51534967893287,17.844208410195186 C62.26228028560364,13.961919536460925 65.17604918687374,11.031910673246674 67.3428874814731,8.280174456037471 C67.3428874814731,8.280174456037471 69.91794923635192,5.001729957029963 69.91794923635192,5.001729957029963 C68.73913004126953,5.075126667678605 67.58249690381105,5.149480502689615 66.52348241989765,5.248550866064106 C63.37010409628958,5.527480098453542 60.624949232960994,6.150792930469839 57.90345949776454,6.953096730787865 C58.57791564953061,7.088570056851186 59.565934749047585,7.124857741204659 59.805544171385534,7.675980122152986 C59.276036929428834,8.28389554112079 57.92860369640494,7.626948592667757 56.72464030268216,7.837733740804915 C54.773746302288615,8.161730490657986 55.6641467482605,6.41116580355734 55.85790498484242,5.155619754842316 C56.02651902278394,4.093278986220289 56.218798188857605,3.7288784210655987 57.23048241650672,3.2310433138543906 C60.287721157077954,1.7237434993265237 65.15090498823335,1.232535531580465 69.38844199439521,1.631238410049585 C71.38666625105304,1.8225418683892582 71.41181044969345,3.0745932677995875 71.917652563518,4.543071895096068 C71.67656407067179,6.036056449151511 70.49626580508115,7.095944657974442 69.72567007027826,8.228180809824046 C69.72567007027826,8.228180809824046 67.245268827928,11.843895260454282 67.245268827928,11.843895260454282 C67.245268827928,11.843895260454282 65.34318415430701,14.95579291005266 65.34318415430701,14.95579291005266 C65.63308197392575,14.834237130143306 65.99397517794094,14.977464576668256 65.92150072303626,15.290840335840942 C65.70555642883045,16.375067350045885 64.45278370833512,17.536124870557657 63.634857717267934,18.479409818407305 C63.634857717267934,18.479409818407305 63.634857717267934,18.479409818407305 63.634857717267934,18.479409818407305 M78.61044661338971,14.099869706375337 C78.61044661338971,14.099869706375337 78.56163728661716,15.111122345869932 78.56163728661716,15.111122345869932 C76.85331084957808,16.340466059989577 75.35944963623655,18.146706108071267 72.66310409968051,18.1467969381773 C70.78468455419166,18.147316560428507 70.015567889897,17.040295041423967 69.91794923635192,15.13820123711063 C69.74933519841039,11.791645840829934 73.28875092467403,8.78062336930227 76.51608277369505,8.780295873943448 C77.35915296340264,8.779870300907369 78.00846491652831,9.116354328431592 78.00846491652831,9.88690381184467 C78.00846491652831,12.679841844783555 74.5651887733015,13.451641973690798 72.27854576753317,14.342487291993736 C72.03745727468697,15.450068264777457 72.66310409968051,16.148273987793623 73.7472627822343,16.124152372549936 C75.79281729515642,16.09994372805017 77.26153430985755,14.943664987101613 78.61044661338971,14.099869706375337 C78.61044661338971,14.099869706375337 78.61044661338971,14.099869706375337 78.61044661338971,14.099869706375337 M76.01024065987049,10.46584724096936 C75.98657553173834,10.00842890873934 75.43192409114124,10.200999669896463 75.09469601525821,10.34555316184652 C73.96320707644011,10.875267327295811 73.04914150233608,11.982819439903084 72.51963426037939,13.16265693570015 C73.72211858359391,12.705184358881258 74.90241684918455,11.958703413763068 75.67301258398744,11.140119496615238 C75.89043594870151,10.875125387582843 76.01024065987049,10.658539856265088 76.01024065987049,10.46584724096936 C76.01024065987049,10.46584724096936 76.01024065987049,10.46584724096936 76.01024065987049,10.46584724096936 M80.34391724906918,16.52854767195366 C79.79074487898033,16.963253478859464 78.73025132455868,18.361277522443412 78.12826962769729,17.35075662820263 C78.56163728661716,16.579740604190356 79.1399538553464,15.42325397565247 80.22411253790021,15.204715001573788 C80.22411253790021,15.204715001573788 81.45174105975514,14.069858170519227 81.45174105975514,14.069858170519227 C81.45174105975514,14.069858170519227 81.45174105975514,11.228746983756412 81.45174105975514,11.228746983756412 C80.84975936289374,11.615637626017886 80.00668917318615,12.19545557443541 79.23609343838324,12.389524699124467 C78.75539552319908,12.149339319177331 78.99648401604529,11.8361096146727 79.42985167496516,11.401884414254651 C80.41639170397387,10.460995167345052 81.86144359054286,9.132533376943844 83.16154656730247,8.573495072796739 C83.64224448248662,8.5711272722932 83.73838406552345,9.052135166817472 83.71471893739131,9.50990477873594 C83.71471893739131,9.50990477873594 83.61857935435448,11.942044394892338 83.61857935435448,11.942044394892338 C83.61857935435448,11.942044394892338 86.29125976277838,9.492497700092322 86.29125976277838,9.492497700092322 C86.57967851188887,9.273245332904072 87.32660911855965,8.953394065017278 87.35027424669178,9.579190862630341 C87.08552062571343,10.713380676605642 86.5323482556246,11.705519374496651 85.20710108022458,11.812236543120662 C85.20710108022458,11.812236543120662 83.54610489944979,13.43534082088649 83.54610489944979,13.43534082088649 C83.47363044454511,14.398727022962419 83.35382573337613,15.69955170275711 84.3167006342527,15.694362992293282 C85.6168036110123,15.685665826310716 86.38739934581521,14.668311180835378 87.23046953552281,14.05869861524035 C87.23046953552281,14.39568971423804 87.15799508061812,14.757687363106342 87.20680440739066,15.070121972068582 C87.20680440739066,15.070121972068582 83.88333297533283,17.767384676769193 83.88333297533283,17.767384676769193 C83.52243977131765,17.9860558514848 83.08907211239777,18.20492661762742 82.55956487044108,18.231313912580458 C81.25946189368146,18.2597374872444 81.42807593162298,16.766523248601683 81.45174105975514,15.41804354427982 C81.45174105975514,15.41804354427982 80.34391724906918,16.52854767195366 80.34391724906918,16.52854767195366 M95.29584101705882,13.923582127023883 C95.24851076079453,14.237666940971485 95.24851076079453,14.574879017739008 95.24851076079453,14.935956693648663 C93.39375634343781,16.254358792500014 92.02117891177352,18.447782335921573 89.25235892031279,18.490214380442282 C86.86957633150763,18.516353290019154 87.97592107168532,15.15859825308765 88.79532613326077,13.848978803629688 C88.79532613326077,13.848978803629688 87.20680440739066,15.094208548980548 87.20680440739066,15.094208548980548 C87.23046953552281,14.756988367917529 87.18166020875027,14.347988150485405 87.25413466365495,14.058468717891879 C87.25413466365495,14.058468717891879 88.43443292924559,13.13086752676788 88.43443292924559,13.13086752676788 C89.32483337521747,12.397804447526093 89.950480200211,11.666969355330407 90.5776060957128,10.694559866107012 C89.68572657923265,10.659436754090622 89.10888908101167,10.691085558950146 88.28948401943622,10.893354317539123 C89.30116824708533,9.364307487283867 89.87800574530631,7.791591803017335 92.59949548050277,7.867051603469916 C93.44256567021036,6.814941198991057 93.61117970815188,5.72794131766555 95.19970143402199,5.691458508678519 C96.78822315989208,5.649104869181739 95.39198060009565,7.155271172440784 95.0547525242126,7.69354723393301 C95.58573883667756,7.704332082247099 96.01910649559744,7.740933744856329 96.49980441078159,7.800072134669328 C95.8978227139202,8.707397780807222 95.56059463803716,10.06435655279539 94.55038948089631,10.522603061503016 C94.18801720637286,10.675190641947083 93.53870525324719,10.737492089969475 92.59949548050277,10.756335944056664 C91.58781125285365,12.147113861654075 90.36018273099873,13.563236683165343 90.36018273099873,15.224547556781493 C90.36018273099873,17.415542144691063 93.03286313942263,15.53933139285605 93.80345887422554,14.993619511950143 C93.80345887422554,14.993619511950143 95.29584101705882,13.923582127023883 95.29584101705882,13.923582127023883 M119.39729494913826,12.218879316980484 C118.55422475943065,12.095658121037356 117.85610347953244,12.218676546757548 116.9893681616927,12.28425979082796 C116.21877242688979,13.276080266620799 115.30470685278577,14.711751145549922 115.97916300455184,16.26092761202544 C115.97916300455184,16.26092761202544 113.44995243542905,17.261430511410868 113.44995243542905,17.261430511410868 C111.8850958376911,16.330521860825584 113.93212942112147,13.752594590641298 114.36549708004134,12.55853950786062 C112.82430561043552,12.835700278497075 111.40439792250693,13.021214308617987 110.00667629220224,13.485707116739187 C108.90033155202455,14.669625788219074 107.67122395966138,16.145577029286134 106.82963284046204,17.49693047771693 C106.32379072663748,18.320841493273733 104.99854355123746,17.864172205444522 104.97487842310532,16.99874624045288 C105.31210649898836,15.873229394286476 106.39626518154216,14.825443637845503 106.99824687840355,13.947493708873637 C105.8904230677176,14.107920296112908 104.54151076418545,14.204256462273614 104.61398521909014,13.068904695731069 C104.66279454586268,12.199490567120836 105.26477624272407,11.638085132357611 105.84161374094506,11.269532670925528 C107.28666562751404,11.570487934919052 108.92399668015669,10.502831559769994 110.39271369485782,10.255738924619235 C110.39271369485782,10.255738924619235 112.72816602739869,7.691096958145634 112.72816602739869,7.691096958145634 C112.72816602739869,7.691096958145634 115.13609281484425,4.783695219680888 115.13609281484425,4.783695219680888 C115.66560005680094,4.107857409699293 116.07530258758867,3.7553164373730747 116.19510729875765,3.0455760256393054 C116.1714421706255,2.662501554023291 115.8578792228746,2.6447023497935866 115.37718130769045,2.690392292644062 C112.07737500376476,2.9764126232518118 109.59845283192277,4.533686072221975 107.16686091634507,5.726926042372858 C107.62389370339709,5.819356823197528 107.60022857526494,6.30233613270141 107.11805158957253,6.5245075712688925 C105.74547415790823,7.109441999660278 104.46903630928077,7.851537938216205 103.2177426592937,8.538840711306108 C102.0611095218352,9.168870367063063 101.79635590085685,7.687301974713181 102.1335839767399,6.589344026583666 C102.688235417337,4.782980287891252 103.60230099144103,4.234689668927777 105.21596691595153,3.5266203689571536 C108.41815456633213,2.08493572280461 111.8126213827864,0.6377400884052533 115.8578792228746,0.14080323979829457 C117.61649405719449,-0.10772885582652414 118.94026216208624,0.8092408533969542 118.48322937503423,2.7374556867964612 C117.85610347953244,5.380740436997218 115.03995323180742,7.344674836061488 113.4262873072969,9.462493685568116 C113.4262873072969,9.462493685568116 117.08550774472953,8.711222616878807 117.08550774472953,8.711222616878807 C117.08550774472953,8.711222616878807 121.61294257051014,2.5657605851689205 121.61294257051014,2.5657605851689205 C122.31106385040836,1.7073535769085253 122.47967788834988,1.2521369277027403 123.1777991682481,0.8961211868016271 C123.63483195530011,0.8590286179730365 123.73097153833695,1.6165645661314647 123.53869237226328,2.099965398070681 C122.6482919262914,4.312304725318258 120.40897917678737,6.419718100143529 119.03640174512307,8.47931163705053 C120.57759321472889,8.32598895589755 121.37185407766394,8.277807850972316 122.28739872227622,8.692836859315431 C122.28739872227622,8.692836859315431 120.65006766963357,10.363826352065026 120.65006766963357,10.363826352065026 C120.16789068394117,10.926388342674409 119.80699747992598,11.594284979527568 119.39729494913826,12.218879316980484 C119.39729494913826,12.218879316980484 119.39729494913826,12.218879316980484 119.39729494913826,12.218879316980484 M130.7136634078274,10.763449852363912 C130.7136634078274,10.763449852363912 130.66633315156312,11.782981548870646 130.66633315156312,11.782981548870646 C128.95652764401578,13.30291887031227 127.46414550118251,15.349194419963279 124.76632089411821,15.751025559596167 C122.88938041913761,16.006601696817782 122.1187846843347,14.99848951040466 122.02264510129787,13.108497054493128 C121.85403106335636,9.78304062853455 125.39344678962,6.295161608943987 128.61929956813276,5.798097566379112 C129.46236975784035,5.658085809962853 130.11168171096602,5.884305534559453 130.11168171096602,6.6548550179725305 C130.11168171096602,9.447793050911415 126.6684055677392,10.776934746704459 124.38176256197089,12.000607224695333 C124.14067406912467,13.14154452807334 124.76632089411821,13.752502609212492 125.85047957667202,13.571916186955702 C127.89751316010239,13.234035242441443 129.36623017480352,11.838001725372715 130.7136634078274,10.763449852363912 C130.7136634078274,10.763449852363912 130.7136634078274,10.763449852363912 130.7136634078274,10.763449852363912 M128.1134574543082,7.5654582784767275 C128.08979232617605,7.111831613223778 127.53514088557894,7.392356470055828 127.19791280969591,7.589529878149406 C126.06642387087781,8.29106706226857 125.1523582967738,9.532102661587825 124.62285105481709,10.787089623843379 C125.82681444853986,10.156434941802356 127.00563364362225,9.232392888548988 127.77622937842516,8.293460778771905 C127.99365274313922,7.9938989516645265 128.1134574543082,7.758150893772456 128.1134574543082,7.5654582784767275 C128.1134574543082,7.5654582784767275 128.1134574543082,7.5654582784767275 128.1134574543082,7.5654582784767275 M140.0806169366313,8.824772739717055 C140.0806169366313,8.824772739717055 140.05547273799087,9.866066718323433 140.05547273799087,9.866066718323433 C140.05547273799087,9.866066718323433 137.88863444339154,12.12493411780952 137.88863444339154,12.12493411780952 C137.1905131634933,12.760881794056326 136.39625230055825,13.582607177510091 135.33723781664486,13.804727816212285 C133.62743230909751,14.147514667187838 133.38634381625133,11.88287414603944 134.2767442622232,10.432040890252207 C134.8313957028203,9.526170747300155 135.360902944777,8.62322170538238 136.01021489790267,7.7895408551393945 C136.01021489790267,7.7895408551393945 133.31386936134663,8.88714779227509 133.31386936134663,8.88714779227509 C133.31386936134663,8.88714779227509 132.10990596762386,10.34258487642495 132.10990596762386,10.34258487642495 C131.70168250734437,10.85094523851853 131.14703106674727,11.360665513858274 130.66633315156312,11.83115470269458 C130.68999827969526,11.465910053305592 130.64118895292273,11.089115399802122 130.7136634078274,10.763449852363912 C131.19584039351983,10.268246147840161 131.65287318057185,9.82456393993322 132.06257571135956,9.267883358453858 C131.14703106674727,9.410315717298532 131.48425914263032,8.121621666314958 131.7726778917408,7.587611557313192 C132.37465958860219,6.441057124392271 133.1703995220455,5.255130646454596 134.4453583001647,4.667978568397099 C134.95120041398928,4.589934270319716 135.02367486889395,5.201192052915065 134.75892124791562,5.664237110685086 C134.75892124791562,5.664237110685086 138.05724848133306,4.526811742368527 138.05724848133306,4.526811742368527 C138.75536976123126,4.368138810009944 139.35735145809267,5.40834587970188 138.97279312594534,6.2201947327031455 C138.2746718460471,7.7281245979290745 136.4199174286904,8.68974930643662 136.27644758938928,10.57431328567273 C136.51605701172724,11.992034696924282 138.5630905951576,10.214839376562967 139.11626296524645,9.702252250886655 C139.11626296524645,9.702252250886655 140.0806169366313,8.824772739717055 140.0806169366313,8.824772739717055 M148.74797011502866,6.467772606094892 C148.74797011502866,6.467772606094892 148.69916078825614,7.493893359084033 148.69916078825614,7.493893359084033 C146.99083435121705,9.232118493525626 145.49697313787553,11.46502388429328 142.80062760131946,12.191930405281202 C140.92220805583062,12.665859922734056 140.1516123210277,11.745227311385708 140.05547273799087,9.866066718323433 C139.88685870004934,6.559563732162828 143.426274426313,2.662074450290225 146.653606275334,1.7697594829654344 C147.49519739453334,1.523609398493468 148.1459884181673,1.666354595254096 148.1459884181673,2.4369040786671734 C148.1459884181673,5.229842111606058 144.70271227494047,6.989846505196212 142.41606926917214,8.486740677435067 C142.17498077632595,9.655884219846225 142.80062760131946,10.193407454897528 143.88478628387327,9.883742241996892 C145.93034079679538,9.29624740487488 147.3990578114965,7.715748319799391 148.74797011502866,6.467772606094892 C148.74797011502866,6.467772606094892 148.74797011502866,6.467772606094892 148.74797011502866,6.467772606094892 M146.14776416150946,3.6003934450709565 C146.12261996286904,3.15013600873778 145.56944759278022,3.49901258412065 145.23221951689717,3.73770371800933 C144.10073057807907,4.576906395242902 143.18518593346678,5.927699676363741 142.6556786915101,7.245284230657575 C143.85964208523288,6.47149869529743 145.0399403508235,5.404138799698163 145.8105360856264,4.370297985337038 C146.0264803798322,4.04416633681126 146.14776416150946,3.7930860603666847 146.14776416150946,3.6003934450709565 C146.14776416150946,3.6003934450709565 146.14776416150946,3.6003934450709565 146.14776416150946,3.6003934450709565 " transform="matrix(1 0 0 1 122.375 93.3299)" style="pointer-events:inherit"/><rect id="svg_5" x="123.2159194946289" y="93.22217559814453" width="147.90704345703125" height="29.316116333007812" fill="#000000" opacity="0" style="pointer-events:inherit"/></g></g><defs><mask id="canvasMaskImageDef" maskUnits="objectBoundingBox" x="0" y="0"><image id="canvasMaskImage" preserveAspectRatio="none" style="pointer-events:none" x="0" y="-1" width="400" height="222.22222222222223" xmlns:xlink="http://www.w3.org/1999/xlink" xlink:href="http://192.168.0.46/dnb_products/magento2/designnbuy/uploads/productimage/56eb110bc986f.png"/></mask></defs></svg>