<svg xmlns="http://www.w3.org/2000/svg" width="188" height="235" x="0" y="0" id="svgcontent" viewBox="0 0 188 235" overflow="hidden"><g mask="" style="pointer-events:all"><title style="pointer-events:inherit">Layer 1</title><g id="svg_1" type="text" text="Harish" font-size="53.41866194438269" font-family="SF Collegiate" font-id="1" fill="3e39c0" text-anchor="start" font-weight="normal" font-style="normal" lineHeight="1" shapeId="0" shapeVal="0" fill-opacity="1" display="null" elemBBoxWidth="162.63015747070312" stroke-opacity="1" stroke-width="0" stroke-dasharray="none" stroke="ull" style="pointer-events:inherit"><path id="svg_4" fill="#3e39c0" stroke-width="1" d="M40.20932,67.25521C40.20932,67.25521 13.49998,67.25521 13.49998,67.25521C13.49998,67.25521 13.49998,24.52028 13.49998,24.52028C13.49998,24.52028 40.20932,24.52028 40.20932,24.52028C40.20932,24.52028 40.20932,67.25521 40.20932,67.25521C40.20932,67.25521 40.20932,67.25521 40.20932,67.25521M39.17062,66.21651C39.17062,66.21651 39.17062,25.55897 39.17062,25.55897C39.17062,25.55897 14.53868,25.55897 14.53868,25.55897C14.53868,25.55897 14.53868,66.21651 14.53868,66.21651C14.53868,66.21651 39.17062,66.21651 39.17062,66.21651C39.17062,66.21651 39.17062,66.21651 39.17062,66.21651M37.53838,64.58427C37.53838,64.58427 29.52558,64.58427 29.52558,64.58427C29.52558,64.58427 29.52558,49.89414 29.52558,49.89414C29.52558,49.89414 24.18371,49.89414 24.18371,49.89414C24.18371,49.89414 24.18371,64.58427 24.18371,64.58427C24.18371,64.58427 16.17091,64.58427 16.17091,64.58427C16.17091,64.58427 16.17091,27.19121 16.17091,27.19121C16.17091,27.19121 24.18371,27.19121 24.18371,27.19121C24.18371,27.19121 24.18371,41.88134 24.18371,41.88134C24.18371,41.88134 29.52558,41.88134 29.52558,41.88134C29.52558,41.88134 29.52558,27.19121 29.52558,27.19121C29.52558,27.19121 37.53838,27.19121 37.53838,27.19121C37.53838,27.19121 37.53838,64.58427 37.53838,64.58427C37.53838,64.58427 37.53838,64.58427 37.53838,64.58427M71.3702,67.25521C71.3702,67.25521 58.75746,67.25521 58.75746,67.25521C58.75746,67.25521 58.01554,62.50689 58.01554,62.50689C58.01554,62.50689 56.3833,62.50689 56.3833,62.50689C56.3833,62.50689 55.49299,67.25521 55.49299,67.25521C55.49299,67.25521 42.88025,67.25521 42.88025,67.25521C42.88025,67.25521 50.15112,28.22991 50.15112,28.22991C50.15112,28.22991 64.24772,28.22991 64.24772,28.22991C64.24772,28.22991 71.3702,67.25521 71.3702,67.25521M70.18312,66.21651C70.18312,66.21651 63.20902,29.2686 63.20902,29.2686C63.20902,29.2686 51.04143,29.2686 51.04143,29.2686C51.04143,29.2686 44.21571,66.21651 44.21571,66.21651C44.21571,66.21651 54.60268,66.21651 54.60268,66.21651C54.60268,66.21651 55.49299,61.31981 55.49299,61.31981C55.49299,61.31981 58.90585,61.31981 58.90585,61.31981C58.90585,61.31981 59.64777,66.21651 59.64777,66.21651C59.64777,66.21651 70.18312,66.21651 70.18312,66.21651C70.18312,66.21651 70.18312,66.21651 70.18312,66.21651M68.25411,64.58427C68.25411,64.58427 60.98324,64.58427 60.98324,64.58427C60.98324,64.58427 60.24131,59.83595 60.24131,59.83595C60.24131,59.83595 54.15752,59.83595 54.15752,59.83595C54.15752,59.83595 53.26721,64.58427 53.26721,64.58427C53.26721,64.58427 46.14472,64.58427 46.14472,64.58427C46.14472,64.58427 52.3769,30.90084 52.3769,30.90084C52.3769,30.90084 61.87355,30.90084 61.87355,30.90084C61.87355,30.90084 68.25411,64.58427 68.25411,64.58427M58.90585,52.56508C58.90585,52.56508 57.12523,42.17812 57.12523,42.17812C57.12523,42.17812 55.3446,52.56508 55.3446,52.56508C55.3446,52.56508 58.90585,52.56508 58.90585,52.56508C58.90585,52.56508 58.90585,52.56508 58.90585,52.56508M98.67308,67.25521C98.67308,67.25521 74.04114,67.25521 74.04114,67.25521C74.04114,67.25521 74.04114,28.22991 74.04114,28.22991C74.04114,28.22991 92.29252,28.22991 92.29252,28.22991C92.29252,28.22991 98.67308,34.61047 98.67308,34.61047C98.67308,34.61047 98.67308,45.44259 98.67308,45.44259C98.67308,45.44259 96.29892,47.81675 96.29892,47.81675C96.29892,47.81675 98.67308,50.04253 98.67308,50.04253C98.67308,50.04253 98.67308,67.25521 98.67308,67.25521C98.67308,67.25521 98.67308,67.25521 98.67308,67.25521M97.486,66.21651C97.486,66.21651 97.486,50.48769 97.486,50.48769C97.486,50.48769 94.81506,47.81675 94.81506,47.81675C94.81506,47.81675 97.486,44.99743 97.486,44.99743C97.486,44.99743 97.486,35.05563 97.486,35.05563C97.486,35.05563 91.69897,29.2686 91.69897,29.2686C91.69897,29.2686 75.07983,29.2686 75.07983,29.2686C75.07983,29.2686 75.07983,66.21651 75.07983,66.21651C75.07983,66.21651 97.486,66.21651 97.486,66.21651C97.486,66.21651 97.486,66.21651 97.486,66.21651M96.00214,64.58427C96.00214,64.58427 88.73127,64.58427 88.73127,64.58427C88.73127,64.58427 88.73127,51.37799 88.73127,51.37799C88.73127,51.37799 83.98295,51.37799 83.98295,51.37799C83.98295,51.37799 83.98295,64.58427 83.98295,64.58427C83.98295,64.58427 76.71207,64.58427 76.71207,64.58427C76.71207,64.58427 76.71207,30.90084 76.71207,30.90084C76.71207,30.90084 91.10543,30.90084 91.10543,30.90084C91.10543,30.90084 96.00214,35.79755 96.00214,35.79755C96.00214,35.79755 96.00214,44.40389 96.00214,44.40389C96.00214,44.40389 92.58929,47.81675 92.58929,47.81675C92.58929,47.81675 96.00214,51.08123 96.00214,51.08123C96.00214,51.08123 96.00214,64.58427 96.00214,64.58427C96.00214,64.58427 96.00214,64.58427 96.00214,64.58427M88.73127,44.10712C88.73127,44.10712 88.73127,38.17171 88.73127,38.17171C88.73127,38.17171 83.98295,38.17171 83.98295,38.17171C83.98295,38.17171 83.98295,44.10712 83.98295,44.10712C83.98295,44.10712 88.73127,44.10712 88.73127,44.10712C88.73127,44.10712 88.73127,44.10712 88.73127,44.10712M116.4793,67.25521C116.4793,67.25521 103.86656,67.25521 103.86656,67.25521C103.86656,67.25521 103.86656,28.22991 103.86656,28.22991C103.86656,28.22991 116.4793,28.22991 116.4793,28.22991C116.4793,28.22991 116.4793,67.25521 116.4793,67.25521C116.4793,67.25521 116.4793,67.25521 116.4793,67.25521M115.29222,66.21651C115.29222,66.21651 115.29222,29.2686 115.29222,29.2686C115.29222,29.2686 104.90526,29.2686 104.90526,29.2686C104.90526,29.2686 104.90526,66.21651 104.90526,66.21651C104.90526,66.21651 115.29222,66.21651 115.29222,66.21651C115.29222,66.21651 115.29222,66.21651 115.29222,66.21651M113.80836,64.58427C113.80836,64.58427 106.53749,64.58427 106.53749,64.58427C106.53749,64.58427 106.53749,30.90084 106.53749,30.90084C106.53749,30.90084 113.80836,30.90084 113.80836,30.90084C113.80836,30.90084 113.80836,64.58427 113.80836,64.58427C113.80836,64.58427 113.80836,64.58427 113.80836,64.58427M146.30472,60.72626C146.30472,60.72626 139.92416,67.10683 139.92416,67.10683C139.92416,67.10683 128.05334,67.10683 128.05334,67.10683C128.05334,67.10683 121.67278,60.72626 121.67278,60.72626C121.67278,60.72626 121.67278,52.11992 121.67278,52.11992C121.67278,52.11992 126.27272,52.11992 126.27272,52.11992C126.27272,52.11992 121.67278,47.51998 121.67278,47.51998C121.67278,47.51998 121.67278,34.46209 121.67278,34.46209C121.67278,34.46209 128.05334,28.22991 128.05334,28.22991C128.05334,28.22991 139.92416,28.22991 139.92416,28.22991C139.92416,28.22991 146.30472,34.46209 146.30472,34.46209C146.30472,34.46209 146.30472,43.06842 146.30472,43.06842C146.30472,43.06842 141.5564,43.06842 141.5564,43.06842C141.5564,43.06842 146.30472,47.81675 146.30472,47.81675C146.30472,47.81675 146.30472,60.72626 146.30472,60.72626C146.30472,60.72626 146.30472,60.72626 146.30472,60.72626M145.11765,60.28111C145.11765,60.28111 145.11765,48.26191 145.11765,48.26191C145.11765,48.26191 139.03384,42.02973 139.03384,42.02973C139.03384,42.02973 145.11765,42.02973 145.11765,42.02973C145.11765,42.02973 145.11765,35.05563 145.11765,35.05563C145.11765,35.05563 139.33063,29.2686 139.33063,29.2686C139.33063,29.2686 128.4985,29.2686 128.4985,29.2686C128.4985,29.2686 122.71148,35.05563 122.71148,35.05563C122.71148,35.05563 122.71148,47.07483 122.71148,47.07483C122.71148,47.07483 128.94366,53.307 128.94366,53.307C128.94366,53.307 122.71148,53.307 122.71148,53.307C122.71148,53.307 122.71148,60.28111 122.71148,60.28111C122.71148,60.28111 128.4985,66.06813 128.4985,66.06813C128.4985,66.06813 139.33063,66.06813 139.33063,66.06813C139.33063,66.06813 145.11765,60.28111 145.11765,60.28111M143.18863,59.83595C143.18863,59.83595 138.44031,64.58427 138.44031,64.58427C138.44031,64.58427 128.79527,64.58427 128.79527,64.58427C128.79527,64.58427 124.04694,59.83595 124.04694,59.83595C124.04694,59.83595 124.04694,54.93924 124.04694,54.93924C124.04694,54.93924 131.16943,54.93924 131.16943,54.93924C131.16943,54.93924 131.16943,57.3134 131.16943,57.3134C131.16943,57.3134 136.06615,57.3134 136.06615,57.3134C136.06615,57.3134 136.06615,51.37799 136.06615,51.37799C136.06615,51.37799 128.79527,51.37799 128.79527,51.37799C128.79527,51.37799 124.04694,46.62967 124.04694,46.62967C124.04694,46.62967 124.04694,35.79755 124.04694,35.79755C124.04694,35.79755 128.79527,30.90084 128.79527,30.90084C128.79527,30.90084 138.44031,30.90084 138.44031,30.90084C138.44031,30.90084 143.18863,35.79755 143.18863,35.79755C143.18863,35.79755 143.18863,40.54588 143.18863,40.54588C143.18863,40.54588 136.06615,40.54588 136.06615,40.54588C136.06615,40.54588 136.06615,38.17171 136.06615,38.17171C136.06615,38.17171 131.16943,38.17171 131.16943,38.17171C131.16943,38.17171 131.16943,44.10712 131.16943,44.10712C131.16943,44.10712 138.44031,44.10712 138.44031,44.10712C138.44031,44.10712 143.18863,49.00383 143.18863,49.00383C143.18863,49.00383 143.18863,59.83595 143.18863,59.83595C143.18863,59.83595 143.18863,59.83595 143.18863,59.83595M176.13014,67.25521C176.13014,67.25521 151.4982,67.25521 151.4982,67.25521C151.4982,67.25521 151.4982,28.22991 151.4982,28.22991C151.4982,28.22991 176.13014,28.22991 176.13014,28.22991C176.13014,28.22991 176.13014,67.25521 176.13014,67.25521C176.13014,67.25521 176.13014,67.25521 176.13014,67.25521M174.94307,66.21651C174.94307,66.21651 174.94307,29.2686 174.94307,29.2686C174.94307,29.2686 152.5369,29.2686 152.5369,29.2686C152.5369,29.2686 152.5369,66.21651 152.5369,66.21651C152.5369,66.21651 174.94307,66.21651 174.94307,66.21651C174.94307,66.21651 174.94307,66.21651 174.94307,66.21651M173.45921,64.58427C173.45921,64.58427 166.18834,64.58427 166.18834,64.58427C166.18834,64.58427 166.18834,51.37799 166.18834,51.37799C166.18834,51.37799 161.44002,51.37799 161.44002,51.37799C161.44002,51.37799 161.44002,64.58427 161.44002,64.58427C161.44002,64.58427 154.16914,64.58427 154.16914,64.58427C154.16914,64.58427 154.16914,30.90084 154.16914,30.90084C154.16914,30.90084 161.44002,30.90084 161.44002,30.90084C161.44002,30.90084 161.44002,44.10712 161.44002,44.10712C161.44002,44.10712 166.18834,44.10712 166.18834,44.10712C166.18834,44.10712 166.18834,30.90084 166.18834,30.90084C166.18834,30.90084 173.45921,30.90084 173.45921,30.90084C173.45921,30.90084 173.45921,64.58427 173.45921,64.58427C173.45921,64.58427 173.45921,64.58427 173.45921,64.58427" stroke="#c42121" style="pointer-events:inherit"/><rect id="svg_5" x="13.499980926513672" y="24.520275115966797" width="162.6301563833913" height="42.73493643206075" fill="#3e39c0" opacity="0" stroke="#c42121" stroke-width="1" style="pointer-events:inherit"/></g><g style="pointer-events:inherit" type="photobox" pathStr="M75.40111084282398,50.199195861816406 C83.45617218315601,109.13871002197266 83.45617218315601,168.54443359375 75.40111084282398,227.48187255859375 C75.40111084282398,239.6764678955078 89.11595459282398,249.68185424804688 106.31261749565601,249.68185424804688 C188.38188476860523,243.8980712890625 271.1014587432146,243.8980712890625 353.17204590141773,249.68185424804688 C370.1500122100115,249.68185424804688 384.0821411162615,239.83348083496094 384.0821411162615,227.48187255859375 C376.025866702199,168.54443359375 376.025866702199,109.1386947631836 384.0821411162615,50.199195861816406 C384.0821411162615,38.00452423095703 370.36857910454273,27.999977111816406 353.17204590141773,27.999977111816406 L353.17204590141773,28.15601348876953 C271.1014587432146,33.93990707397461 188.38188476860523,33.93990707397461 106.31261749565601,28.15601348876953 C89.3332931548357,28.15601348876953 75.40111084282398,38.00543212890625 75.40111084282398,50.355262756347656 " lockTransform="true" lockEdit="null" id="svg_16" display="null"><image style="pointer-events:inherit" xlink:href="http://192.168.0.139/work/print_commerce/pc-newtool-magento-21/designnbuy/assets/images/uploadedImage/o_1att7hrs2agkd721a9i1d8u8bka.jpg" id="svg_5" preserveAspectRatio="none" height="106.58251494169235" width="142.11001992225647" y="92.61358833312988" x="23.03874397277832" xmlns:xlink="http://www.w3.org/1999/xlink" clip-path="url(#svg_6)" origWidth="1024" origHeight="768" image_id="212" templateSrc="http://192.168.0.139/work/print_commerce/pc-newtool-magento-21/designnbuy/assets/images/uploadedImage/admin_o_1atsnvbat4bc14nl140015narksa.png#**#180" isAdminUploaded="false" filter="" colors=""/><path d="M46.00000190734863,107.90032196044922 C48.45293617248535,125.84866714477539 48.45293617248535,143.9389877319336 46.00000190734863,161.88670349121094 C46.00000190734863,165.6002197265625 50.176462173461914,168.6470718383789 55.413217544555664,168.6470718383789 C80.40506935119629,166.8857879638672 105.59495735168457,166.8857879638672 130.58722114562988,168.6470718383789 C135.75737190246582,168.6470718383789 140.00000190734863,165.64803314208984 140.00000190734863,161.88670349121094 C137.54669380187988,143.9389877319336 137.54669380187988,125.84866333007812 140.00000190734863,107.90032196044922 C140.00000190734863,104.18678283691406 135.82393074035645,101.14018249511719 130.58722114562988,101.14018249511719 L130.58722114562988,101.18769836425781 C105.59495735168457,102.94901847839355 80.40506935119629,102.94901847839355 55.413217544555664,101.18769836425781 C50.24264717102051,101.18769836425781 46.00000190734863,104.18705749511719 46.00000190734863,107.94784545898438 " id="svg_7" opacity="1" stroke="#000000" shapeType="roundedSquare" fill="#000" fill-opacity="0" stroke-width="2" stroke-dasharray="none"/></g></g><defs><clipPath class="clippath" id="svg_18"><path d="M46,110.27017C48.45294,134.51048 48.45294,158.94258 46,183.18213C46,188.19751 50.17646,192.3125 55.4132,192.3125C80.40501,189.93373 105.59496,189.93373 130.5872,192.3125C135.75735,192.3125 140,188.26207 140,183.18213C137.54666,158.94258 137.54666,134.51048 140,110.27017C140,105.25479 135.82393,101.14018 130.5872,101.14018L130.5872,101.20436C105.59496,103.58312 80.40501,103.58312 55.4132,101.20436C50.24263,101.20436 46,105.25517 46,110.33435" id="svg_2" opacity="1" stroke="#000000" shapeType="roundedSquare" fill="#000" fill-opacity="0" stroke-width="2" stroke-dasharray="none"/></clipPath><clipPath class="clippath" id="svg_6"><path d="M46.00000190734863,107.90032196044922 C48.45293617248535,125.84866714477539 48.45293617248535,143.9389877319336 46.00000190734863,161.88670349121094 C46.00000190734863,165.6002197265625 50.176462173461914,168.6470718383789 55.413217544555664,168.6470718383789 C80.40506935119629,166.8857879638672 105.59495735168457,166.8857879638672 130.58722114562988,168.6470718383789 C135.75737190246582,168.6470718383789 140.00000190734863,165.64803314208984 140.00000190734863,161.88670349121094 C137.54669380187988,143.9389877319336 137.54669380187988,125.84866333007812 140.00000190734863,107.90032196044922 C140.00000190734863,104.18678283691406 135.82393074035645,101.14018249511719 130.58722114562988,101.14018249511719 L130.58722114562988,101.18769836425781 C105.59495735168457,102.94901847839355 80.40506935119629,102.94901847839355 55.413217544555664,101.18769836425781 C50.24264717102051,101.18769836425781 46.00000190734863,104.18705749511719 46.00000190734863,107.94784545898438 " id="" opacity="1" stroke="#000000" shapeType="roundedSquare" fill="#000" fill-opacity="0" stroke-width="2" stroke-dasharray="none"/></clipPath></defs></svg>