<svg xmlns="http://www.w3.org/2000/svg" width="187" height="246" x="0" y="0" id="svgcontent" viewBox="0 0 187 246" overflow="hidden"><g mask="" style="pointer-events:all"><title style="pointer-events:inherit">Layer 1</title><g type="photobox" pathStr="M169.77441367863574,45.866656591819236 C166.87819682539623,48.996039476814644 162.422763044263,50.455970400301766 158.18831362899212,49.830100235085624 C135.24113820470401,46.492526757035336 112.96246274308878,59.63466213509645 105.83309759108009,80.49429199732843 C103.60538070051352,86.96124836037413 103.15930317983629,93.84461796844438 104.27251106686874,100.5198290423746 C104.94094254972569,104.69274563528995 103.38165714201611,108.65615721964149 100.03943124791539,111.36789259139056 C69.0721052265819,135.98275947437662 63.05738603773905,178.74423849125168 86.44926938638662,210.03313026831844 L86.22821654070874,210.03313026831844 C90.01528731880077,215.24719217999723 94.69444465843137,220.0458987908415 99.81837840223743,224.01056067287243 L100.0407323644171,224.01056067287243 C103.38302673833377,226.7210457469421 104.94231214604334,230.8940264576872 104.27388066318638,234.858656280803 C100.70916384727414,256.5512568982012 114.52174815079835,277.4120569108252 136.80042361241365,283.87776297619183 C143.7073663224266,285.96358009435227 151.0603180733011,286.3799612804621 158.18968322530975,285.3390083151878 L158.18968322530975,285.54957126794176 C162.6451170064429,284.92243477558884 166.87956642171397,286.3836801145848 169.7756463153216,289.51436138563184 C196.06521883325036,318.50773868248524 241.73718147973864,324.13952825469744 275.15457835381835,302.23751880548025 C280.72185042566633,298.69173870491767 285.8486603217395,294.30941328018304 290.081671660877,289.51436138563184 L290.081671660877,289.30488843598306 C292.977956993932,286.1767718781241 297.4347603713832,284.7130259437698 301.66777171052024,285.3390083151878 C324.8374380566201,288.6776878258003 347.1175515943689,275.7450574563031 354.0244943043822,254.88425744367902 C356.2507731188152,248.41595460620937 356.6967136798606,241.53393147256304 355.5863134652794,234.85862422188822 L355.80722935132553,234.85862422188822 C355.13886634828447,230.68583586463237 356.7008909486293,226.72226398570652 360.0416787665967,224.01056067287243 C391.00893630811447,199.39562967205651 397.02495661345864,156.63288432804478 373.63053951162345,125.34410475717993 C369.8449068096651,120.13017108116074 365.1644483535327,115.33130417574203 360.0416787665967,111.36789259139056 C356.7008909486293,108.65615721964149 355.13886634828447,104.48324062672619 355.80722935132553,100.5198290423746 C359.37194616723775,78.8273246017212 345.560799939847,57.96525826196038 323.2808918415459,51.49828586945727 L323.056962843601,51.49828586945727 C316.15145820972145,49.41368699006105 308.7984379790312,48.996039476814644 301.66777171052024,50.03832288705532 L301.66777171052024,49.830100235085624 C297.2109683330698,50.455970400301766 292.977956993932,48.996039476814644 290.081671660877,45.866656591819236 C263.7909007461706,16.87188473216988 218.12023921618382,11.239005156852592 184.7014385058784,33.14216872700456 C179.13142724139504,36.68796485702453 174.00749349758908,41.06785380423029 169.77441367863574,45.866656591819236 z" lockTransform="true" lockEdit="null" id="svg_5" display="inline" transform=""><g clip-path="url(#svg_8)" transform=""><image xmlns:xlink="http://www.w3.org/1999/xlink" x="23.36545945652506" y="46.96381216592579" width="137.7902959999831" height="103.6646619439125" preserveAspectRatio="none" id="svg_5" xlink:href="http://192.168.0.139/work/print_commerce/pc-newtool-magento-21/designnbuy/assets/images/uploadedImage/admin_o_1atsnvbat4bc14nl140015narksa.png" origWidth="214" origHeight="161" image_id="17" templateSrc="http://192.168.0.139/work/print_commerce/pc-newtool-magento-21/designnbuy/assets/images/uploadedImage/admin_o_1atsnvbat4bc14nl140015narksa.png#**#17" isAdminUploaded="true" filter="" colors="" transform=""/></g><path d="M73.65005145858714,60.54881630903569 C72.79223619856619,61.47569179151031 71.47260466503857,61.908101064781036 70.2184253303167,61.72272786735844 C63.42182195052675,60.734189506458286 56.82321806399395,64.62668956699497 54.71160884011482,70.80499378969046 C54.051793073351035,72.72040763306521 53.91967171511736,74.75915672865266 54.24938691306741,76.73625244117619 C54.44736612364751,77.97220669238966 53.98552956746383,79.14610875535077 52.99561323188627,79.94928341418995 C43.82356356529067,87.23983156910184 42.04209547557937,99.90512947340487 48.97041456006218,109.17242201245998 L48.90494207857951,109.17242201245998 C50.02661468420402,110.71674762797088 51.412509723618825,112.13805133820284 52.93014075040358,113.31232372026757 L52.99599860274999,113.31232372026757 C53.985935221004596,114.11512806000314 54.44777177718828,115.35110130193989 54.24979256660818,116.52536418864288 C53.19397781333011,122.95038164489115 57.28505462017762,129.1290324482861 63.88365850671045,131.04407597255735 C65.92938959556605,131.66186319093143 68.10722175997836,131.78518894778253 70.21883098385746,131.4768745556549 L70.21883098385746,131.53924009084102 C71.53846251738506,131.353491826634 72.79264185210698,131.78629040973152 73.65041654677383,132.71355045435217 C81.43698696883399,141.3009466146111 94.96432573472887,142.96899679216148 104.86204902043465,136.48195563374583 C106.51099009837156,135.43174964673932 108.02947299759194,134.13377169335837 109.28322639609604,132.71355045435217 L109.28322639609604,132.65150776146152 C110.14106193879391,131.72500734577122 111.4610991258624,131.29146812446663 112.71485252436634,131.4768745556549 C119.57735432185689,132.4657405065312 126.17638414460751,128.6352926342469 128.22211523346323,122.45664183085194 C128.8815050640092,120.54082918228868 129.01358585688877,118.50247889188972 128.6847022486973,116.52535469328129 L128.7501341648259,116.52535469328129 C128.5521752369229,115.28943842351437 129.0148231001881,114.11548888374509 130.0043134995479,113.31232372026757 C139.1763428834665,106.02175657463238 140.9581963440414,93.35608360354496 134.02912680050815,84.08882429825553 C132.9078801311015,82.54453666419121 131.52159972082296,81.12318547715105 130.0043134995479,79.94928341418995 C129.0148231001881,79.14610875535077 128.5521752369229,77.91015450413732 128.7501341648259,76.73625244117619 C129.80594891810398,70.3112634710129 125.71529804747428,64.13223760083352 119.11632907275475,62.21681900977794 L119.05000471883648,62.21681900977794 C117.00469956619867,61.599392615145746 114.82684711910935,61.47569179151031 112.71485252436634,61.78440024114559 L112.71485252436634,61.72272786735844 C111.3948153372981,61.908101064781036 110.14106193879391,61.47569179151031 109.28322639609604,60.54881630903569 C101.49630102718777,51.96100710054593 87.96934763215656,50.29263408070011 78.07120855157143,56.78001707213446 C76.42145616655299,57.83022780682176 74.90382513976827,59.1274841127188 73.65005145858714,60.54881630903569 z" id="svg_9" opacity="1" stroke="#000000" shapeType="cloudMirror" fill="#000" fill-opacity="0" stroke-width="2" stroke-dasharray="none" cursor="move" transform=""/></g></g><defs><clipPath class="clippath" id="svg_3"><path d="M50.75,23.78549C53.18989,47.5671 53.18989,71.53686 50.75,95.31772C50.75,100.2382 54.90424,104.27532 60.11313,104.27532C84.97201,101.94157 110.02797,101.94157 134.88727,104.27532C140.02993,104.27532 144.25,100.30154 144.25,95.31772C141.80972,71.53686 141.80972,47.5671 144.25,23.78549C144.25,18.86502 140.09615,14.82827 134.88727,14.82827L134.88727,14.89123C110.02797,17.22498 84.97201,17.22498 60.11313,14.89123C54.97007,14.89123 50.75,18.86539 50.75,23.84846" id="svg_2" opacity="1" stroke="#000000" shapeType="roundedSquare" fill="#000" fill-opacity="0" stroke-width="2" stroke-dasharray="none"/></clipPath><clipPath class="clippath" id="svg_6"><path d="M42.75,39.42485C45.18989,56.64889 45.18989,74.0092 42.75,91.2327C42.75,94.79639 46.90424,97.72032 52.11313,97.72032C76.97201,96.03008 102.02797,96.03008 126.88727,97.72032C132.02993,97.72032 136.25,94.84227 136.25,91.2327C133.80972,74.0092 133.80972,56.64889 136.25,39.42485C136.25,35.86115 132.09615,32.9375 126.88727,32.9375L126.88727,32.9831C102.02797,34.67334 76.97201,34.67334 52.11313,32.9831C46.97007,32.9831 42.75,35.86142 42.75,39.47045" id="svg_1" opacity="1" stroke="#e22828" shapeType="roundedSquare" fill="#000" fill-opacity="0" stroke-width="3" stroke-dasharray="none"/></clipPath><clipPath class="clippath" id="svg_8"><path d="M73.65005145858714,60.54881630903569 C72.79223619856619,61.47569179151031 71.47260466503857,61.908101064781036 70.2184253303167,61.72272786735844 C63.42182195052675,60.734189506458286 56.82321806399395,64.62668956699497 54.71160884011482,70.80499378969046 C54.051793073351035,72.72040763306521 53.91967171511736,74.75915672865266 54.24938691306741,76.73625244117619 C54.44736612364751,77.97220669238966 53.98552956746383,79.14610875535077 52.99561323188627,79.94928341418995 C43.82356356529067,87.23983156910184 42.04209547557937,99.90512947340487 48.97041456006218,109.17242201245998 L48.90494207857951,109.17242201245998 C50.02661468420402,110.71674762797088 51.412509723618825,112.13805133820284 52.93014075040358,113.31232372026757 L52.99599860274999,113.31232372026757 C53.985935221004596,114.11512806000314 54.44777177718828,115.35110130193989 54.24979256660818,116.52536418864288 C53.19397781333011,122.95038164489115 57.28505462017762,129.1290324482861 63.88365850671045,131.04407597255735 C65.92938959556605,131.66186319093143 68.10722175997836,131.78518894778253 70.21883098385746,131.4768745556549 L70.21883098385746,131.53924009084102 C71.53846251738506,131.353491826634 72.79264185210698,131.78629040973152 73.65041654677383,132.71355045435217 C81.43698696883399,141.3009466146111 94.96432573472887,142.96899679216148 104.86204902043465,136.48195563374583 C106.51099009837156,135.43174964673932 108.02947299759194,134.13377169335837 109.28322639609604,132.71355045435217 L109.28322639609604,132.65150776146152 C110.14106193879391,131.72500734577122 111.4610991258624,131.29146812446663 112.71485252436634,131.4768745556549 C119.57735432185689,132.4657405065312 126.17638414460751,128.6352926342469 128.22211523346323,122.45664183085194 C128.8815050640092,120.54082918228868 129.01358585688877,118.50247889188972 128.6847022486973,116.52535469328129 L128.7501341648259,116.52535469328129 C128.5521752369229,115.28943842351437 129.0148231001881,114.11548888374509 130.0043134995479,113.31232372026757 C139.1763428834665,106.02175657463238 140.9581963440414,93.35608360354496 134.02912680050815,84.08882429825553 C132.9078801311015,82.54453666419121 131.52159972082296,81.12318547715105 130.0043134995479,79.94928341418995 C129.0148231001881,79.14610875535077 128.5521752369229,77.91015450413732 128.7501341648259,76.73625244117619 C129.80594891810398,70.3112634710129 125.71529804747428,64.13223760083352 119.11632907275475,62.21681900977794 L119.05000471883648,62.21681900977794 C117.00469956619867,61.599392615145746 114.82684711910935,61.47569179151031 112.71485252436634,61.78440024114559 L112.71485252436634,61.72272786735844 C111.3948153372981,61.908101064781036 110.14106193879391,61.47569179151031 109.28322639609604,60.54881630903569 C101.49630102718777,51.96100710054593 87.96934763215656,50.29263408070011 78.07120855157143,56.78001707213446 C76.42145616655299,57.83022780682176 74.90382513976827,59.1274841127188 73.65005145858714,60.54881630903569 z" id="" opacity="1" stroke="#000000" shapeType="cloudMirror" fill="#000" fill-opacity="0" stroke-width="2" stroke-dasharray="none" cursor="move" transform=""/></clipPath></defs></svg>