<svg width="244" height="399" x="0" y="0" id="svgcontent" viewBox="0 0 244 399" overflow="visible" xmlns="http://www.w3.org/2000/svg" xmlns:se="http://svg-edit.googlecode.com" xmlns:xlink="http://www.w3.org/1999/xlink"><g style="pointer-events:all" mask=""><title style="pointer-events:inherit">Layer 1</title><g id="svg_4" display="null" clip-id="1" stroke="null" stroke-opacity="1" transform=""><path fill="#F5F5DC" d="M195.18924892694574,143.15677968996175 L212.5000227132553,131.3441771309522 L187.81082789582024,124.11724542051411 C167.1958046912241,87.8881288213068 125.12098254078694,106.7815204519737 111.05920912639567,141.23732088548783 C94.09240520941154,182.76856370875265 45.49997781481355,197.9174957774885 45.49997781481355,197.9174957774885 C80.08409861408637,239.05130191236185 111.2766408572646,246.47962530794905 132.08058015589438,244.83997618992117 C152.89521281833743,243.18785148077785 209.07458183841885,226.82700484654316 197.37960628135468,153.796676684121 C196.76830231669865,150.00231475772813 196.03046021358617,146.46637579015504 195.18924892694574,143.15677968996175 z" id="svg_5" stroke-width="0" stroke="null" transform=""/><path fill="#FF0000" d="M187.81082789582024,124.11724542051411 C190.75684962636387,129.29461573341734 193.2644434405652,135.61082929242914 195.18924892694574,143.15677968996175 L212.5000227132553,131.3441771309522 L187.81082789582024,124.11724542051411 zM160.29680280439163,169.97573613353086 C160.29680280439163,169.97573613353086 102.55263821297495,158.0686755275044 95.92988155798409,190.20045155894428 C89.30890713029541,222.3250986811753 142.62423687573457,240.9707607168358 160.29680280439163,169.97573613353086 zM171.40720780633268,123.22434954210979 C171.79395113091098,126.66939491727055 170.01885273791558,129.70452801292436 167.43462314971947,130.00572442699684 C164.84148242501234,130.29622747725614 162.421217748619,127.7333846166865 162.0380388786451,124.29368592343232 C161.64238441755575,120.84864054827156 163.41748281055118,117.81350745261784 166.0106235352583,117.5123110385453 C168.60911094187207,117.23250135209923 171.01333557254551,119.77930416694906 171.40720780633268,123.22434954210979 z" id="svg_6" stroke-width="0" stroke="null" transform=""/></g></g><defs/></svg>