<svg xmlns="http://www.w3.org/2000/svg" id="svgcontent" viewBox="0 0 187 240" x="0" y="0" width="187" height="240"><g mask=""><title>Layer 1</title><g id="svg_1" font-family="Brush-Script" font-size="19.0273" font-style="normal" font-weight="normal" display="" fill="#bbda9a" text-anchor="start" type="text" text="Yahoo" lineHeight="1" shapeId="0" shapeVal="0" elemBBoxWidth="145.77023" xscale="3.11808" yscale="NaN" elemBBoxHeight="129.37985"><path id="svg_2" fill="#bbda9a" stroke="#000000" d="M 35.2052 104.973 C 33.8407 106.523 30.9929 113.572 29.925 107.369 C 30.9336 99.193 31.2895 90.3122 34.1966 86.5061 C 34.1966 86.5061 41.4347 77.0614 41.4347 77.0614 C 46.1811 71.9867 51.1053 64.7974 57.3941 64.2335 C 61.3098 63.8106 62.3184 72.4095 60.1232 79.8807 C 56.3855 92.7086 48.4356 115.263 44.5791 127.95 C 44.0451 129.783 43.7485 131.051 43.7485 132.038 C 43.7485 133.307 44.1045 134.152 44.6384 134.152 C 48.8508 131.192 54.1904 119.21 57.6908 111.457 C 57.6908 111.457 69.5564 85.3784 69.5564 85.3784 C 71.9889 81.2904 74.54 90.8761 72.9382 96.0918 C 72.9382 96.0918 62.4963 129.783 62.4963 129.783 C 60.4199 137.395 56.0889 150.364 55.0803 157.976 C 55.4363 160.513 56.0889 158.399 57.2755 156.989 C 60.4199 153.042 63.2083 146.698 67.3613 145.712 C 69.2005 145.289 68.8445 149.095 67.6579 151.35 C 67.6579 151.35 58.1654 169.394 58.1654 169.394 C 58.1654 169.394 48.3762 191.525 48.3762 191.525 C 46.6557 195.472 42.9772 193.64 43.3332 187.155 C 44.1638 171.931 49.5628 154.874 53.2411 143.033 C 53.2411 143.033 62.1997 114.135 62.1997 114.135 C 62.1997 114.135 45.4098 148.672 45.4098 148.672 C 43.1552 152.196 40.9007 157.553 37.9936 157.835 C 36.3324 157.13 34.4932 153.324 34.4932 148.813 C 37.8156 125.977 46.6557 107.792 52.2325 89.6074 C 52.9445 87.2109 53.1818 85.0965 52.1732 84.1097 C 47.0116 89.7483 40.4854 98.9111 35.2052 104.973 C 35.2052 104.973 35.2052 104.973 35.2052 104.973 M 102.246 138.382 C 102.246 140.355 102.068 142.47 102.187 144.302 C 98.924 150.223 95.8389 157.13 92.1605 162.064 C 89.7281 165.306 86.999 163.473 86.999 157.13 C 86.999 150.505 88.0669 147.262 89.2534 140.778 C 86.2277 146.557 83.2019 153.183 79.9389 158.117 C 75.1926 165.306 71.9889 151.068 72.5228 138.382 C 75.4299 123.439 83.1426 115.968 90.0247 110.329 C 93.6437 107.369 97.2034 107.369 98.1527 114.981 C 98.0934 117.519 96.8475 117.801 96.0762 118.646 C 97.9154 120.056 98.1527 124.849 96.9068 128.655 C 95.3049 133.73 92.4572 137.536 92.4572 145.148 C 92.4572 147.826 93.4064 149.8 94.6523 149.236 C 97.9154 147.685 98.568 144.161 102.246 138.382 C 102.246 138.382 102.246 138.382 102.246 138.382 M 77.2098 141.483 C 76.9725 143.597 76.3198 150.082 77.8624 149.8 C 83.7952 145.148 88.6008 131.474 92.5165 121.889 C 87.2363 125.695 82.1934 129.924 78.337 137.536 C 77.8031 138.804 77.3878 140.073 77.2098 141.483 C 77.2098 141.483 77.2098 141.483 77.2098 141.483 M 119.392 118.646 C 122.24 114.135 125.266 114.558 125.859 121.889 C 125.147 131.192 120.045 135.28 119.274 144.443 C 119.274 146.698 119.689 147.685 120.638 147.685 C 123.961 147.685 125.206 143.174 128.41 138.382 C 128.41 138.382 128.351 144.302 128.351 144.302 C 123.249 153.183 120.697 159.244 115.595 161.782 C 111.324 160.513 113.756 145.853 115.239 141.201 C 115.239 141.201 119.274 128.373 119.274 128.373 C 113.993 136.972 109.484 147.967 105.035 158.681 C 104.738 159.385 104.441 159.385 104.204 159.385 C 102.009 158.117 102.128 152.619 102.128 144.443 C 102.128 123.298 108.535 111.316 112.747 98.3473 C 115.417 90.1712 119.155 81.7133 122.121 76.0747 C 124.257 71.8457 125.8 69.7312 126.69 69.7312 C 127.758 69.7312 128.885 71.1408 128.885 73.6782 C 128.885 76.0747 127.876 80.4446 125.918 86.5061 C 120.223 103.845 112.807 121.607 106.162 137.536 C 106.162 137.536 106.103 142.892 106.103 142.892 C 110.374 134.857 114.824 125.836 119.392 118.646 C 119.392 118.646 119.392 118.646 119.392 118.646 M 152.082 138.382 C 152.082 138.382 151.964 144.443 151.964 144.443 C 149.353 148.672 147.395 152.055 143.361 150.927 C 140.81 156.425 138.852 161.218 134.64 161.218 C 126.808 161.218 127.105 130.91 131.911 121.607 C 135.352 114.981 138.911 108.638 144.666 107.933 C 146.209 107.792 147.811 109.625 147.87 112.867 C 147.87 114.981 147.158 115.827 146.505 116.673 C 148.107 118.082 148.582 119.492 148.582 124.567 C 148.582 131.897 147.217 136.972 145.734 143.174 C 148.76 143.738 150.006 141.342 152.082 138.381 C 152.082 138.381 152.082 138.381 152.082 138.381 M 139.683 145.571 C 138.021 136.69 140.039 130.628 141.7 122.875 C 138.081 128.514 132.741 132.602 132.741 146.135 C 132.741 154.311 138.555 149.095 139.683 145.571 C 139.683 145.571 139.683 145.571 139.683 145.571 M 175.695 138.381 C 175.695 138.381 175.576 144.443 175.576 144.443 C 172.966 148.672 171.008 152.055 166.974 150.927 C 164.423 156.425 162.465 161.218 158.252 161.218 C 150.421 161.218 150.718 130.91 155.523 121.607 C 158.964 114.981 162.524 108.638 168.279 107.933 C 169.821 107.792 171.423 109.624 171.483 112.867 C 171.483 114.981 170.771 115.827 170.118 116.673 C 171.72 118.082 172.195 119.492 172.195 124.567 C 172.195 131.897 170.83 136.972 169.347 143.174 C 172.373 143.738 173.618 141.342 175.695 138.381 C 175.695 138.381 175.695 138.381 175.695 138.381 M 163.295 145.571 C 161.634 136.69 163.651 130.628 165.312 122.875 C 161.693 128.514 156.354 132.602 156.354 146.135 C 156.354 154.311 162.168 149.095 163.295 145.571 C 163.295 145.571 163.295 145.571 163.295 145.571" /><rect id="svg_3" opacity="0" fill="#bbda9a" stroke="#000000" x="29.9252" y="64.2229" width="145.77" height="129.376" /></g></g></svg>