<svg width="273" height="241" xmlns="http://www.w3.org/2000/svg"><g><title>Layer 1</title><g posY="113.50499" posX="117.16" id="nameText" type="nameText" text="sac" font-size="30" font-family="Brush-Script" fill="#FF0000" text-anchor="middle" font-weight="normal" font-style="normal" lineHeight="1" shapeId="0" shapeVal="0" stroke="null"><path transform="matrix(1 0 0 1 117.16 113.505)" d="m12.26,7.75999c-0.09,0.69 0.12,1.47 -0.51,1.68c0,0 -1.17,0.87 -1.17,0.87c-1.56,1.08 -3.18,2.52 -5.64,2.55c-1.77,0.03 -4.05,-1.11 -4.05,-2.7c-0.03,-0.84 0.75,-1.5 1.59,-1.47c0.9,0.03 1.65,0.63 2.19,1.05c1.98,-0.9 2.46,-3 1.92,-5.7c0,0 -3.69,3.24 -3.69,3.24c0,0 -2.37,1.8 -2.37,1.8c0.03,-0.45 -0.03,-0.93 0.06,-1.32c2.07,-1.56 4.05,-3.15 5.85,-5.01c0.42,-1.44 0.51,-2.25 1.95,-2.25c0.81,0 0.93,0.3 0.99,1.08c0.09,1.26 0.66,2.1 0.66,3.39c0,2.82 -2.31,4.14 -3.99,5.43c2.85,0.36 4.41,-1.5 6.21,-2.64c0,0 0,0 0,0m15.03,0c0,0.42 -0.09,0.87 -0.03,1.26c-1.65,1.26 -3.21,2.73 -5.07,3.78c-1.23,0.69 -2.61,0.3 -2.61,-1.05c0,-1.41 0.54,-2.1 1.14,-3.48c-1.53,1.23 -3.06,2.64 -4.71,3.69c-2.4,1.53 -4.02,-1.5 -3.75,-4.2c1.47,-3.18 5.37,-4.77 8.85,-5.97c1.83,-0.63 3.63,-0.63 4.11,0.99c-0.03,0.54 -0.66,0.6 -1.05,0.78c0.93,0.3 1.05,1.32 0.42,2.13c-0.81,1.08 -2.25,1.89 -2.25,3.51c0,0.57 0.48,0.99 1.11,0.87c1.65,-0.33 1.98,-1.08 3.84,-2.31c0,0 0,0 0,0m-12.66,0.66c-0.12,0.45 -0.45,1.83 0.33,1.77c3,-0.99 5.43,-3.9 7.41,-5.94c-2.67,0.81 -5.22,1.71 -7.17,3.33c-0.27,0.27 -0.48,0.54 -0.57,0.84c0,0 0,0 0,0m23.46,-0.66c0,0 -0.03,1.29 -0.03,1.29c-2.1,1.53 -4.29,3.66 -7.62,3.78c-3.54,0.15 -4.05,-5.76 -1.95,-7.77c1.86,-1.8 4.23,-3.99 7.47,-3.99c2.22,0 0.78,3.12 0,3.9c-0.54,0.54 -1.02,1.23 -1.86,1.38c-0.75,-0.03 -0.96,-0.54 -1.08,-1.29c-1.05,0.72 -2.13,1.47 -3.06,2.31c-1.41,1.26 -0.18,2.97 1.56,2.97c2.76,0 4.77,-1.41 6.57,-2.58c0,0 0,0 0,0" fill="#FF0000" id="svg_1"/></g></g></svg>