<?xml version="1.0" encoding="utf-8"?>
<!DOCTYPE svg PUBLIC "-//W3C//DTD SVG 20010904//EN" "http://www.w3.org/TR/2001/REC-SVG-20010904/DTD/svg10.dtd">
<svg xmlns="http://www.w3.org/2000/svg" xml:space="preserve" xmlns:xlink="http://www.w3.org/1999/xlink" width="100" height="100" viewBox="0 0 100 100">
<desc></desc>
<rect width="100" height="100" fill="#16777215" cx="0" cy="0" />
<defs>
<rect id="p" width="4" height="4" />
</defs>
<g fill="#000000">
<use x="8" y="8" xlink:href="#p" />
<use x="12" y="8" xlink:href="#p" />
<use x="16" y="8" xlink:href="#p" />
<use x="20" y="8" xlink:href="#p" />
<use x="24" y="8" xlink:href="#p" />
<use x="28" y="8" xlink:href="#p" />
<use x="32" y="8" xlink:href="#p" />
<use x="40" y="8" xlink:href="#p" />
<use x="52" y="8" xlink:href="#p" />
<use x="64" y="8" xlink:href="#p" />
<use x="68" y="8" xlink:href="#p" />
<use x="72" y="8" xlink:href="#p" />
<use x="76" y="8" xlink:href="#p" />
<use x="80" y="8" xlink:href="#p" />
<use x="84" y="8" xlink:href="#p" />
<use x="88" y="8" xlink:href="#p" />
<use x="8" y="12" xlink:href="#p" />
<use x="32" y="12" xlink:href="#p" />
<use x="40" y="12" xlink:href="#p" />
<use x="48" y="12" xlink:href="#p" />
<use x="52" y="12" xlink:href="#p" />
<use x="64" y="12" xlink:href="#p" />
<use x="88" y="12" xlink:href="#p" />
<use x="8" y="16" xlink:href="#p" />
<use x="16" y="16" xlink:href="#p" />
<use x="20" y="16" xlink:href="#p" />
<use x="24" y="16" xlink:href="#p" />
<use x="32" y="16" xlink:href="#p" />
<use x="44" y="16" xlink:href="#p" />
<use x="48" y="16" xlink:href="#p" />
<use x="56" y="16" xlink:href="#p" />
<use x="64" y="16" xlink:href="#p" />
<use x="72" y="16" xlink:href="#p" />
<use x="76" y="16" xlink:href="#p" />
<use x="80" y="16" xlink:href="#p" />
<use x="88" y="16" xlink:href="#p" />
<use x="8" y="20" xlink:href="#p" />
<use x="16" y="20" xlink:href="#p" />
<use x="20" y="20" xlink:href="#p" />
<use x="24" y="20" xlink:href="#p" />
<use x="32" y="20" xlink:href="#p" />
<use x="64" y="20" xlink:href="#p" />
<use x="72" y="20" xlink:href="#p" />
<use x="76" y="20" xlink:href="#p" />
<use x="80" y="20" xlink:href="#p" />
<use x="88" y="20" xlink:href="#p" />
<use x="8" y="24" xlink:href="#p" />
<use x="16" y="24" xlink:href="#p" />
<use x="20" y="24" xlink:href="#p" />
<use x="24" y="24" xlink:href="#p" />
<use x="32" y="24" xlink:href="#p" />
<use x="40" y="24" xlink:href="#p" />
<use x="52" y="24" xlink:href="#p" />
<use x="64" y="24" xlink:href="#p" />
<use x="72" y="24" xlink:href="#p" />
<use x="76" y="24" xlink:href="#p" />
<use x="80" y="24" xlink:href="#p" />
<use x="88" y="24" xlink:href="#p" />
<use x="8" y="28" xlink:href="#p" />
<use x="32" y="28" xlink:href="#p" />
<use x="40" y="28" xlink:href="#p" />
<use x="48" y="28" xlink:href="#p" />
<use x="52" y="28" xlink:href="#p" />
<use x="64" y="28" xlink:href="#p" />
<use x="88" y="28" xlink:href="#p" />
<use x="8" y="32" xlink:href="#p" />
<use x="12" y="32" xlink:href="#p" />
<use x="16" y="32" xlink:href="#p" />
<use x="20" y="32" xlink:href="#p" />
<use x="24" y="32" xlink:href="#p" />
<use x="28" y="32" xlink:href="#p" />
<use x="32" y="32" xlink:href="#p" />
<use x="40" y="32" xlink:href="#p" />
<use x="48" y="32" xlink:href="#p" />
<use x="56" y="32" xlink:href="#p" />
<use x="64" y="32" xlink:href="#p" />
<use x="68" y="32" xlink:href="#p" />
<use x="72" y="32" xlink:href="#p" />
<use x="76" y="32" xlink:href="#p" />
<use x="80" y="32" xlink:href="#p" />
<use x="84" y="32" xlink:href="#p" />
<use x="88" y="32" xlink:href="#p" />
<use x="40" y="36" xlink:href="#p" />
<use x="44" y="36" xlink:href="#p" />
<use x="48" y="36" xlink:href="#p" />
<use x="8" y="40" xlink:href="#p" />
<use x="12" y="40" xlink:href="#p" />
<use x="16" y="40" xlink:href="#p" />
<use x="28" y="40" xlink:href="#p" />
<use x="32" y="40" xlink:href="#p" />
<use x="40" y="40" xlink:href="#p" />
<use x="44" y="40" xlink:href="#p" />
<use x="48" y="40" xlink:href="#p" />
<use x="52" y="40" xlink:href="#p" />
<use x="60" y="40" xlink:href="#p" />
<use x="64" y="40" xlink:href="#p" />
<use x="68" y="40" xlink:href="#p" />
<use x="72" y="40" xlink:href="#p" />
<use x="84" y="40" xlink:href="#p" />
<use x="88" y="40" xlink:href="#p" />
<use x="8" y="44" xlink:href="#p" />
<use x="12" y="44" xlink:href="#p" />
<use x="20" y="44" xlink:href="#p" />
<use x="24" y="44" xlink:href="#p" />
<use x="36" y="44" xlink:href="#p" />
<use x="40" y="44" xlink:href="#p" />
<use x="56" y="44" xlink:href="#p" />
<use x="64" y="44" xlink:href="#p" />
<use x="72" y="44" xlink:href="#p" />
<use x="80" y="44" xlink:href="#p" />
<use x="84" y="44" xlink:href="#p" />
<use x="88" y="44" xlink:href="#p" />
<use x="12" y="48" xlink:href="#p" />
<use x="20" y="48" xlink:href="#p" />
<use x="28" y="48" xlink:href="#p" />
<use x="32" y="48" xlink:href="#p" />
<use x="36" y="48" xlink:href="#p" />
<use x="40" y="48" xlink:href="#p" />
<use x="48" y="48" xlink:href="#p" />
<use x="56" y="48" xlink:href="#p" />
<use x="64" y="48" xlink:href="#p" />
<use x="72" y="48" xlink:href="#p" />
<use x="80" y="48" xlink:href="#p" />
<use x="88" y="48" xlink:href="#p" />
<use x="12" y="52" xlink:href="#p" />
<use x="16" y="52" xlink:href="#p" />
<use x="24" y="52" xlink:href="#p" />
<use x="28" y="52" xlink:href="#p" />
<use x="36" y="52" xlink:href="#p" />
<use x="40" y="52" xlink:href="#p" />
<use x="44" y="52" xlink:href="#p" />
<use x="48" y="52" xlink:href="#p" />
<use x="52" y="52" xlink:href="#p" />
<use x="56" y="52" xlink:href="#p" />
<use x="60" y="52" xlink:href="#p" />
<use x="76" y="52" xlink:href="#p" />
<use x="84" y="52" xlink:href="#p" />
<use x="12" y="56" xlink:href="#p" />
<use x="16" y="56" xlink:href="#p" />
<use x="24" y="56" xlink:href="#p" />
<use x="32" y="56" xlink:href="#p" />
<use x="44" y="56" xlink:href="#p" />
<use x="48" y="56" xlink:href="#p" />
<use x="52" y="56" xlink:href="#p" />
<use x="68" y="56" xlink:href="#p" />
<use x="72" y="56" xlink:href="#p" />
<use x="76" y="56" xlink:href="#p" />
<use x="40" y="60" xlink:href="#p" />
<use x="56" y="60" xlink:href="#p" />
<use x="72" y="60" xlink:href="#p" />
<use x="76" y="60" xlink:href="#p" />
<use x="80" y="60" xlink:href="#p" />
<use x="88" y="60" xlink:href="#p" />
<use x="8" y="64" xlink:href="#p" />
<use x="12" y="64" xlink:href="#p" />
<use x="16" y="64" xlink:href="#p" />
<use x="20" y="64" xlink:href="#p" />
<use x="24" y="64" xlink:href="#p" />
<use x="28" y="64" xlink:href="#p" />
<use x="32" y="64" xlink:href="#p" />
<use x="44" y="64" xlink:href="#p" />
<use x="56" y="64" xlink:href="#p" />
<use x="68" y="64" xlink:href="#p" />
<use x="72" y="64" xlink:href="#p" />
<use x="76" y="64" xlink:href="#p" />
<use x="88" y="64" xlink:href="#p" />
<use x="8" y="68" xlink:href="#p" />
<use x="32" y="68" xlink:href="#p" />
<use x="40" y="68" xlink:href="#p" />
<use x="52" y="68" xlink:href="#p" />
<use x="68" y="68" xlink:href="#p" />
<use x="76" y="68" xlink:href="#p" />
<use x="8" y="72" xlink:href="#p" />
<use x="16" y="72" xlink:href="#p" />
<use x="20" y="72" xlink:href="#p" />
<use x="24" y="72" xlink:href="#p" />
<use x="32" y="72" xlink:href="#p" />
<use x="44" y="72" xlink:href="#p" />
<use x="52" y="72" xlink:href="#p" />
<use x="56" y="72" xlink:href="#p" />
<use x="60" y="72" xlink:href="#p" />
<use x="72" y="72" xlink:href="#p" />
<use x="76" y="72" xlink:href="#p" />
<use x="84" y="72" xlink:href="#p" />
<use x="88" y="72" xlink:href="#p" />
<use x="8" y="76" xlink:href="#p" />
<use x="16" y="76" xlink:href="#p" />
<use x="20" y="76" xlink:href="#p" />
<use x="24" y="76" xlink:href="#p" />
<use x="32" y="76" xlink:href="#p" />
<use x="44" y="76" xlink:href="#p" />
<use x="48" y="76" xlink:href="#p" />
<use x="56" y="76" xlink:href="#p" />
<use x="72" y="76" xlink:href="#p" />
<use x="84" y="76" xlink:href="#p" />
<use x="8" y="80" xlink:href="#p" />
<use x="16" y="80" xlink:href="#p" />
<use x="20" y="80" xlink:href="#p" />
<use x="24" y="80" xlink:href="#p" />
<use x="32" y="80" xlink:href="#p" />
<use x="40" y="80" xlink:href="#p" />
<use x="56" y="80" xlink:href="#p" />
<use x="60" y="80" xlink:href="#p" />
<use x="64" y="80" xlink:href="#p" />
<use x="72" y="80" xlink:href="#p" />
<use x="80" y="80" xlink:href="#p" />
<use x="84" y="80" xlink:href="#p" />
<use x="88" y="80" xlink:href="#p" />
<use x="8" y="84" xlink:href="#p" />
<use x="32" y="84" xlink:href="#p" />
<use x="40" y="84" xlink:href="#p" />
<use x="60" y="84" xlink:href="#p" />
<use x="68" y="84" xlink:href="#p" />
<use x="76" y="84" xlink:href="#p" />
<use x="8" y="88" xlink:href="#p" />
<use x="12" y="88" xlink:href="#p" />
<use x="16" y="88" xlink:href="#p" />
<use x="20" y="88" xlink:href="#p" />
<use x="24" y="88" xlink:href="#p" />
<use x="28" y="88" xlink:href="#p" />
<use x="32" y="88" xlink:href="#p" />
<use x="40" y="88" xlink:href="#p" />
<use x="48" y="88" xlink:href="#p" />
<use x="60" y="88" xlink:href="#p" />
<use x="76" y="88" xlink:href="#p" />
<use x="88" y="88" xlink:href="#p" />
</g>
</svg>