<svg xmlns="http://www.w3.org/2000/svg" width="144" height="51" viewBox="0 0 144 51"><g><title>Layer 1</title><g stroke="null" yscale="2.77778" xscale="2.77778" elemBBoxHeight="51" elemBBoxWidth="129.56735" display="null" shapeVal="0" shapeId="0" lineHeight="1" font-style="normal" font-weight="normal" text-anchor="start" fill="0" font-family="Brush-Script" font-size="8.61702" text="Right" type="text" id="svg_1"><path stroke="null" d="m14.60445,27.56753c-3.47351,-0.60649 -2.9773,-4.08001 -0.27567,-5.73404c1.54379,-0.93728 3.52865,-1.59893 6.11998,-1.87458c0,0 8.15999,-11.68866 8.15999,-11.68866c0,0 -7.22271,1.48867 -7.22271,1.48867c0,0 -4.46595,1.48867 -4.46595,1.48867c1.54379,0.11026 3.9146,-0.05514 4.46595,0.93728c-0.66161,1.10268 -3.1427,0.71676 -4.79676,1.04758c-1.70919,0.33081 -3.47351,0.49623 -5.40323,0.49623c-3.96972,-0.11026 -1.15784,-5.18269 0,-6.72648c4.74162,-6.39569 16.20971,-7.00216 26.79567,-7.00216c4.74162,0 8.43567,0.55135 11.08215,1.87458c3.36325,1.65406 4.35569,3.69405 3.52865,7.49838c-2.64649,11.74378 -18.08431,11.13731 -30.59997,13.89404c0,0 20.78595,7.05729 20.78595,7.05729c2.86702,1.2681 3.74918,2.20541 3.85944,6.06486c0.05514,2.48109 -1.43351,2.64649 -3.52865,1.81945c0,0 -14.88649,-5.8443 -14.88649,-5.8443c0,0 -9.64864,-3.36325 -9.64864,-3.36325c0,0 -4.68647,6.67134 -4.68647,6.67134c0.22054,2.37083 -2.04,3.69405 -4.19027,3.96972c-1.54379,-0.38593 -1.21297,-2.04 -0.38593,-3.58379c0,0 2.42593,-4.19027 2.42593,-4.19027c0,0 2.86702,-4.30053 2.86702,-4.30053m32.36431,-20.01405c-4.35569,-0.93728 -9.64864,-0.27567 -15.21729,0.33081c-0.16541,1.76432 -0.7719,3.03244 -1.59893,4.13513c0,0 -4.46595,6.61621 -4.46595,6.61621c0,0 4.63135,-0.93728 4.63135,-0.93728c6.72648,-1.65406 14.50054,-3.25296 18.08431,-7.93946c0.82702,-1.10268 0.11026,-1.87458 -1.43351,-2.20541c0,0 0,0 0,0m18.91135,20.84107c0,0 -0.05514,2.37083 -0.05514,2.37083c0,0 -5.0173,3.9146 -5.0173,3.9146c-1.70919,1.15784 -3.58379,2.59135 -6.06486,2.70161c-4.46595,0.16541 -5.62378,-5.8443 -4.30053,-10.03458c1.2681,-4.02486 5.12756,-9.42809 10.03458,-9.42809c2.15027,0 2.59135,1.87458 1.2681,3.52865c-1.98486,2.42593 -4.74162,4.96217 -6.94703,7.11245c-1.10268,1.98486 0.38593,4.19027 2.81188,3.96972c3.52865,-0.38593 5.0173,-1.92974 8.27028,-4.13513c0,0 0,0 0,0m-0.16541,-18.1946c0.99244,0 1.81945,0.82702 1.81945,1.81945c-0.16541,2.48109 -1.87458,4.68647 -4.24541,4.85188c-1.37837,0.11026 -2.42593,-1.04758 -2.31567,-2.48109c0.16541,-2.26053 2.31567,-4.02486 4.74162,-4.19027c0,0 0,0 0,0m24.86593,18.1946c0,0.7719 -0.16541,1.59893 -0.05514,2.31567c0,0 -11.19243,7.38811 -11.19243,7.38811c-3.30811,4.52109 -5.9546,9.97945 -11.30269,12.29514c-1.10268,0.49623 -2.75676,0.60649 -2.59135,-1.04758c0.49623,-4.02486 3.74918,-6.34055 6.17513,-8.71133c1.54379,-1.48867 3.58379,-3.03244 5.12756,-4.13513c0,0 3.85944,-7.60864 3.85944,-7.60864c-3.08757,2.75676 -5.8443,7.05729 -10.97189,7.05729c-2.37083,0 -3.80434,-2.64649 -3.80434,-5.18269c0,-8.32541 7.88432,-11.35783 13.83891,-13.89404c1.87458,-0.7719 5.8443,-0.71676 4.90704,1.59893c-3.30811,3.85944 -10.19999,5.18269 -13.61836,8.6562c-1.04758,1.04758 -1.32325,2.31567 -1.15784,4.24541c4.74162,0.60649 7.22271,-3.08757 9.86918,-5.51352c1.87458,-1.70919 2.9773,-3.96972 4.85188,-5.51352c1.65406,-1.37837 3.69405,1.48867 2.75676,3.30811c0,0 -5.07243,9.5935 -5.07243,9.5935c0,0 8.38055,-4.85188 8.38055,-4.85188m15.93405,-7.7189c2.64649,-1.76432 5.45837,-1.59893 6.00972,1.2681c-0.66161,3.63892 -5.40323,5.23785 -6.11998,8.82162c0,0.88216 0.38593,1.2681 1.2681,1.2681c3.08757,0 4.24541,-1.76432 7.22271,-3.63892c0,0 -0.05514,2.31567 -0.05514,2.31567c-4.74162,3.47351 -7.11245,5.8443 -11.85405,6.83676c-3.96972,-0.49623 -1.70919,-6.23027 -0.33081,-8.04972c0,0 3.74918,-5.0173 3.74918,-5.0173c-4.90704,3.36325 -9.09731,7.66378 -13.23243,11.85405c-0.27567,0.27567 -0.55135,0.27567 -0.7719,0.27567c-2.04,-0.49623 -1.92974,-2.64649 -1.92974,-5.8443c0,-8.27028 5.9546,-12.95675 9.86918,-18.02919c2.48109,-3.19783 5.9546,-6.50595 8.71133,-8.71133c1.98486,-1.65406 3.41837,-2.48109 4.24541,-2.48109c0.99244,0 2.04,0.55135 2.04,1.54379c0,0.93728 -0.93728,2.64649 -2.75676,5.0173c-5.29295,6.78162 -12.18485,13.72865 -18.35998,19.95891c0,0 -0.05514,2.09512 -0.05514,2.09512c3.96972,-3.1427 8.10487,-6.67134 12.35027,-9.48323c0,0 0,0 0,0m26.85079,7.7189c-0.11026,0.71676 -0.11026,1.48867 -0.11026,2.31567c-4.24541,2.92218 -7.38811,7.88432 -13.72865,7.88432c-5.45837,0 -2.92218,-7.66378 -1.04758,-10.64108c0,0 -3.63892,2.81188 -3.63892,2.81188c0.05514,-0.7719 -0.05514,-1.70919 0.11026,-2.37083c0,0 2.70161,-2.09512 2.70161,-2.09512c2.04,-1.65406 3.47351,-3.30811 4.90704,-5.51352c-2.04,-0.11026 -3.36325,-0.05514 -5.23785,0.38593c2.31567,-3.47351 3.63892,-7.05729 9.86918,-6.78162c1.92974,-2.37083 2.31567,-4.85188 5.9546,-4.85188c3.63892,0 0.44107,3.36325 -0.33081,4.57621c1.21297,0.05514 2.20541,0.16541 3.30811,0.33081c-1.37837,2.04 -2.15027,5.12756 -4.46595,6.11998c-0.82702,0.33081 -2.31567,0.44107 -4.46595,0.44107c-2.31567,3.1427 -5.12756,6.34055 -5.12756,10.14487c0,5.0173 6.11998,0.82702 7.88432,-0.38593c0,0 3.41837,-2.37083 3.41837,-2.37083" fill="#000000" id="svg_2"/><rect stroke="null" opacity="0" fill="#000000" height="50.71636" width="127.50694" y="0" x="8.61528" id="svg_3"/></g></g></svg>