<svg xmlns="http://www.w3.org/2000/svg" width="244" height="399" id="svgcontent" x="0" y="0" viewBox="0 0 244 399" overflow="visible"><g mask="" style="pointer-events:all"><title style="pointer-events:inherit">Layer 1</title><g stroke="null" yscale="1.99522" xscale="1.99522" elemBBoxHeight="87.98439" elemBBoxWidth="243.99998" display="null" shapeVal="0" shapeId="0" lineHeight="1" font-style="normal" font-weight="normal" text-anchor="start" fill="0" font-family="Brush-Script" font-size="22.72727" text="Front" type="text" id="svg_1" style="pointer-events:inherit"><path stroke="null" d="M59.85906,196.15681C62.30011,196.58133 64.74118,196.68748 66.96997,197.32426C63.57371,202.10025 62.19399,208.46824 54.34015,208.89278C53.49108,208.89278 52.11136,209.42345 51.15617,209.31729C51.15617,209.31729 35.66072,225.76792 35.66072,225.76792C35.66072,225.76792 30.7786,230.33167 30.7786,230.33167C25.36579,235.10766 18.57328,242.32471 11.78076,243.49218C8.49064,243.06767 9.12742,239.14073 10.93169,236.69966C14.11568,232.13591 19.31622,225.23726 26.85166,223.96368C26.85166,223.96368 34.17485,216.53434 34.17485,216.53434C35.87297,214.73008 37.57112,212.8197 39.1631,210.90929C39.1631,210.90929 21.8634,212.18289 21.8634,212.18289C16.45059,213.03196 16.98126,207.51302 19.31619,205.28424C26.32097,198.49171 39.69375,197.43038 51.26228,195.51999C55.40148,188.19682 61.66332,181.19203 63.46759,171.85231C63.46759,169.72965 62.51241,168.98671 60.2836,168.98671C43.72684,168.98671 28.86821,175.3547 16.13225,180.34296C18.5733,180.55522 22.92477,179.1755 23.77384,181.29814C22.60638,183.52693 20.05919,182.78401 17.19358,183.84534C12.62986,185.43734 8.38454,187.98455 2.86562,187.98455C0.00002,187.98455 0.00002,185.22509 1.37977,182.57174C3.60856,178.11416 8.06616,168.77444 12.62987,166.33337C20.80213,161.98192 34.06876,159.96539 44.57595,157.7366C52.1114,156.1446 59.75299,155.50781 67.50071,155.50781C72.59509,155.50781 76.62814,156.88755 76.62814,161.239C76.62814,175.14243 65.80258,185.86189 59.85912,196.1568C59.85912,196.1568 59.85912,196.1568 59.85912,196.1568M110.06007,210.5909C110.06007,210.5909 109.95394,215.15463 109.95394,215.15463C109.95394,215.15463 100.40196,222.90234 100.40196,222.90234C97.32409,225.025 93.82171,227.89059 89.15184,227.89059C81.61641,227.89059 80.55508,217.70179 84.48198,212.07678C86.92303,208.57439 89.25797,205.072 92.12356,201.99414C92.12356,201.99414 80.23666,204.43519 80.23666,204.43519C80.23666,204.43519 74.93,209.84799 74.93,209.84799C73.12573,211.75837 70.68468,213.56264 68.56201,215.2608C68.66814,213.6688 68.45586,211.97065 68.77425,210.59092C70.89692,208.78665 72.91347,207.19465 74.7177,205.072C70.68463,204.96587 72.1705,199.55308 73.4441,197.43041C76.09744,192.86668 79.59983,188.30295 85.22487,186.8171C87.45364,186.92323 87.77207,189.6827 86.60459,191.48697C86.60459,191.48697 101.14484,189.57658 101.14484,189.57658C104.2227,189.57658 106.876,194.7771 105.17788,197.96111C102.10004,203.90454 93.9278,206.34561 93.29097,214.51787C94.35232,220.992 103.37361,215.15467 105.81467,213.45654C105.81467,213.45654 110.05999,210.59093 110.05999,210.59093M152.40711,210.59093C152.40711,210.59093 152.19484,215.15468 152.19484,215.15468C147.52496,218.33865 144.02257,220.88585 136.80553,220.0368C132.24182,224.17601 128.73944,227.78451 121.20397,227.78451C107.19439,227.78451 107.72507,204.96588 116.32186,197.9611C122.47757,192.97284 128.84555,188.19685 139.14048,187.66618C141.89993,187.56005 144.76553,188.93979 144.87165,191.38084C144.87165,192.97284 143.59806,193.60962 142.4306,194.24644C145.2962,195.30778 146.14525,196.36911 146.14525,200.18987C146.14525,205.7088 143.7042,209.52958 141.05086,214.19946C146.46368,214.62397 148.69246,212.81972 152.40712,210.59092C152.40712,210.59092 152.40712,210.59092 152.40712,210.59092M130.22528,216.00373C127.25356,209.31731 130.86208,204.75363 133.83382,198.91631C127.35972,203.16163 117.8077,206.23948 117.8077,216.42828C117.8077,222.584 128.20877,218.65706 130.22528,216.00376C130.22528,216.00376 130.22528,216.00376 130.22528,216.00376M174.37666,194.14033C172.57239,201.03899 163.02043,204.54137 161.11001,211.3339C161.95909,214.09335 164.29399,211.22775 165.35533,210.0603C171.40492,203.26777 181.2753,195.62618 189.12915,190.42568C191.88861,188.62141 193.79903,187.77234 194.96648,187.77234C197.61981,188.72752 197.40752,193.29126 198.46886,195.9446C195.49714,202.52484 185.62678,205.81498 185.62678,214.51791C185.62678,216.4283 186.68811,217.48963 188.70462,217.27736C194.11742,216.74669 196.87688,213.98724 201.97127,210.59097C201.97127,212.07681 201.65286,213.66881 201.86512,215.15469C194.86035,219.93068 189.44754,228.20906 179.0465,228.20906C172.04172,228.20906 172.9969,217.91414 176.07479,213.13817C176.07479,213.13817 182.54888,203.26778 182.54888,203.26778C174.58889,208.99898 168.11478,218.44484 161.10999,224.70668C155.16655,230.01334 151.23961,222.26563 152.1948,213.66884C153.25615,203.90459 158.98732,196.36912 166.20438,192.44222C169.1761,191.69928 174.16439,191.48702 174.37664,194.14033C174.37664,194.14033 174.37664,194.14033 174.37664,194.14033M237.41972,210.59097C237.20746,211.9707 237.20746,213.45657 237.20746,215.04856C229.0352,220.67361 222.98561,230.22559 210.78031,230.22559C200.27315,230.22559 205.15526,215.47308 208.76378,209.74191C208.76378,209.74191 201.759,215.15469 201.759,215.15469C201.86515,213.66885 201.65287,211.86458 201.97127,210.59097C201.97127,210.59097 207.17177,206.55792 207.17177,206.55792C211.09869,203.37393 213.85817,200.18993 216.61763,195.94461C212.69072,195.73234 210.14353,195.83845 206.53499,196.68754C210.99258,190.00114 213.53977,183.10251 225.53283,183.63317C229.24748,179.06944 229.99041,174.29346 236.9952,174.29346C243.99998,174.29346 237.84427,180.76757 236.35842,183.10251C238.69335,183.20864 240.60374,183.42092 242.72641,183.7393C240.07307,187.66621 238.5872,193.60967 234.12963,195.52006C232.53763,196.15685 229.67205,196.36913 225.53285,196.36913C221.07527,202.41872 215.66248,208.57445 215.66248,215.89763C215.66248,225.55576 227.44324,217.48963 230.83951,215.15469C230.83951,215.15469 237.41977,210.59097 237.41977,210.59097" fill="#000000" id="svg_2" style="pointer-events:inherit"/><rect stroke="null" opacity="0" fill="#000000" height="87.98438" width="242.24554" y="155.50781" x="0.48086" id="svg_3" style="pointer-events:inherit"/></g></g></svg>