<svg width="187" height="239" xmlns="http://www.w3.org/2000/svg" viewBox="0 0 187 239"><g><title>Layer 1</title><g id="numberText" type="numberText" text="98" font-size="120" font-family="SF Archery Black" fill="#74ff00" text-anchor="middle" font-weight="normal" font-style="normal" lineHeight="1" shapeId="0" shapeVal="0" stroke="null"><path id="svg_5" fill="#74ff00" d="m83.66475,180.5c0,0 -18,12 -18,12c0,0 -27.66667,0 -27.66667,0c0,0 0,-30 0,-30c0,0 16.66667,0 16.66667,0c0,0 0,18 0,18c0,0 12,0 12,0c0,0 0,-30 0,-30c0,0 -28.66667,0 -28.66667,0c0,0 0,-42 0,-42c0,0 18,-12 18,-12c0,0 27.66667,0 27.66667,0c0,0 0,84 0,84c0,0 0,0 0,0m-17,-42c0,0 0,-30 0,-30c0,0 -12,0 -12,0c0,0 0,30 0,30c0,0 12,0 12,0c0,0 0,0 0,0m82.33333,42c0,0 -18,12 -18,12c0,0 -27.33334,0 -27.33334,0c0,0 0,-39.66667 0,-39.66667c0,0 12.33334,-8.33333 12.33334,-8.33333c0,0 -12.33334,-8.33333 -12.33334,-8.33333c0,0 0,-27.66667 0,-27.66667c0,0 17.66667,-12 17.66667,-12c0,0 27.66666,0 27.66666,0c0,0 0,39.66667 0,39.66667c0,0 -12.66666,8.33333 -12.66666,8.33333c0,0 12.66666,8.33333 12.66666,8.33333c0,0 0,27.66667 0,27.66667c0,0 0,0 0,0m-16.66666,-42c0,0 0,-30 0,-30c0,0 -12.00001,0 -12.00001,0c0,0 0,30 0,30c0,0 12.00001,0 12.00001,0c0,0 0,0 0,0m0,42c0,0 0,-30 0,-30c0,0 -12.00001,0 -12.00001,0c0,0 0,30 0,30c0,0 12.00001,0 12.00001,0c0,0 0,0 0,0"/></g><g id="nameText" type="nameText" text="Jivika" font-size="60" font-family="Kroftsmann" fill="#de00ff" text-anchor="middle" font-weight="normal" font-style="normal" lineHeight="1" shapeId="0" shapeVal="0" stroke="null"><path id="svg_4" fill="#de00ff" d="m37.66667,38.4987c0,0 9.33333,0 9.33333,0c0,0 0,33.16668 0,33.16668c0,0 -4.33333,6.83333 -4.33333,6.83333c0,0 -16,0 -16,0c0,0 -5.16667,-8.5 -5.16667,-8.5c0,0 16.16667,0 16.16667,0c0,0 0,-31.5 0,-31.5c0,0 0,0 0,0m11.33333,0c0,0 0,9.33333 0,9.33333c0,0 3.33333,0 3.33333,0c0,0 0,21.33333 0,21.33333c0,0 -3.33333,0 -3.33333,0c0,0 0,9.33333 0,9.33333c0,0 16,0 16,0c0,0 0,-9.33333 0,-9.33333c0,0 -3.33333,0 -3.33333,0c0,0 0,-21.33333 0,-21.33333c0,0 3.33333,0 3.33333,0c0,0 0,-9.33333 0,-9.33333c0,0 -16,0 -16,0c0,0 0,0 0,0m34.16666,0c0,0 9.33334,0 9.33334,0c0,0 -5.16666,40 -5.16666,40c0,0 -15.16667,0 -15.16667,0c0,0 -5.16667,-40 -5.16667,-40c0,0 9.33334,0 9.33334,0c0,0 3.5,31.5 3.5,31.5c0,0 3.33333,-31.5 3.33333,-31.5m11.33334,0c0,0 0,9.33333 0,9.33333c0,0 3.33334,0 3.33334,0c0,0 0,21.33333 0,21.33333c0,0 -3.33334,0 -3.33334,0c0,0 0,9.33333 0,9.33333c0,0 16,0 16,0c0,0 0,-9.33333 0,-9.33333c0,0 -3.33334,0 -3.33334,0c0,0 0,-21.33333 0,-21.33333c0,0 3.33334,0 3.33334,0c0,0 0,-9.33333 0,-9.33333c0,0 -16,0 -16,0c0,0 0,0 0,0m43.49999,0c0,0 -10.33333,0 -10.33333,0c0,0 -5.83333,14.5 -5.83333,14.5c0,0 0,-14.5 0,-14.5c0,0 -9.33334,0 -9.33334,0c0,0 0,40 0,40c0,0 9.33334,0 9.33334,0c0,0 0,-17 0,-17c0,0 5.83333,17 5.83333,17c0,0 10.33333,0 10.33333,0c0,0 -8.16666,-21.16666 -8.16666,-21.16666c0,0 8.16666,-18.83333 8.16666,-18.83333m23.16669,0c0,0 -16,0 -16,0c0,0 -5.16669,6.83333 -5.16669,6.83333c0,0 0,33.16666 0,33.16666c0,0 9.33334,0 9.33334,0c0,0 0,-11.83333 0,-11.83333c0,0 6.83334,0 6.83334,0c0,0 0,11.83333 0,11.83333c0,0 9.33333,0 9.33333,0c0,0 0,-33.16666 0,-33.16666c0,0 -4.33333,-6.83333 -4.33333,-6.83333m-5,19.66667c0,0 -6.83334,0 -6.83334,0c0,0 0,-11.16667 0,-11.16667c0,0 6.83334,0 6.83334,0c0,0 0,11.16667 0,11.16667c0,0 0,0 0,0"/></g></g></svg>