<svg width="66" height="82" xmlns="http://www.w3.org/2000/svg" viewBox="0 0 66 82"><g><title>Layer 1</title><g id="svg_1" type="text" text="Yahoo" font-size="6.71542" font-family="Brush-Script" fill="0" text-anchor="start" font-weight="normal" font-style="normal" lineHeight="1" shapeId="0" shapeVal="0" display="null" elemBBoxWidth="61.50391" xscale="3.72751" yscale="NaN" elemBBoxHeight="52.74503"><path id="svg_2" fill="#000000" d="m2.97487,30.52949c-0.57569,0.63199 -1.77711,3.50478 -2.22765,0.97672c0.42551,-3.33244 0.57569,-6.95218 1.80214,-8.50348c0,0 3.05363,-3.84955 3.05363,-3.84955c2.00237,-2.06843 4.07984,-4.99865 6.73299,-5.2285c1.65197,-0.17236 2.07747,3.33247 1.15137,6.37762c-1.57688,5.2285 -4.93086,14.4215 -6.5578,19.59251c-0.22527,0.74692 -0.35042,1.26404 -0.35042,1.66623c0,0.51712 0.15018,0.86184 0.37545,0.86184c1.7771,-1.20656 4.02978,-6.09033 5.50653,-9.25043c0,0 5.00596,-10.62935 5.00596,-10.62935c1.02622,-1.66623 2.1025,2.24079 1.42669,4.36666c0,0 -4.40524,13.73198 -4.40524,13.73198c-0.87603,3.10263 -2.70321,8.3886 -3.12871,11.49123c0.15018,1.0342 0.4255,0.17236 0.92609,-0.4022c1.32658,-1.60879 2.50297,-4.1943 4.25506,-4.5965c0.77591,-0.17236 0.62574,1.37896 0.12515,2.29827c0,0 -4.00476,7.35437 -4.00476,7.35437c0,0 -4.12991,9.0206 -4.12991,9.0206c-0.72586,1.60876 -2.27771,0.86184 -2.12752,-1.78114c0.35041,-6.20525 2.62812,-13.15743 4.17997,-17.98373c0,0 3.77948,-11.7785 3.77948,-11.7785c0,0 -7.08341,14.07674 -7.08341,14.07674c-0.95113,1.43639 -1.90226,3.61974 -3.12872,3.73462c-0.70083,-0.28728 -1.47675,-1.8386 -1.47675,-3.67718c1.40167,-9.30788 5.1311,-16.7197 7.48389,-24.13154c0.30036,-0.97675 0.40047,-1.83858 -0.02503,-2.24076c-2.17759,2.29823 -4.93086,6.03286 -7.15851,8.50349c0,0 0,0 0,0m28.2836,13.61706c0,0.80439 -0.07508,1.66623 -0.02502,2.41315c-1.37663,2.41315 -2.67819,5.2285 -4.23003,7.23945c-1.02622,1.32151 -2.17759,0.57459 -2.17759,-2.01096c0,-2.70043 0.45054,-4.0219 0.95113,-6.6649c-1.27652,2.35572 -2.55304,5.05614 -3.92967,7.06709c-2.00238,2.93027 -3.35398,-2.87279 -3.12872,-8.04384c1.22646,-6.09035 4.48032,-9.13549 7.38377,-11.43375c1.52681,-1.20659 3.0286,-1.20659 3.42907,1.89603c-0.02502,1.03423 -0.55065,1.14915 -0.87603,1.49387c0.77591,0.57457 0.87603,2.52808 0.35042,4.07938c-0.67582,2.06842 -1.87724,3.61974 -1.87724,6.72238c0,1.09166 0.40047,1.89603 0.9261,1.66622c1.37663,-0.63203 1.65197,-2.06843 3.2038,-4.42413c0,0 0,0 0,0m-10.56255,1.26404c-0.10011,0.86183 -0.37544,3.50481 0.27534,3.3899c2.50297,-1.89603 4.53038,-7.46928 6.18234,-11.37631c-2.22764,1.55134 -4.35517,3.27502 -5.9821,6.37764c-0.22527,0.51712 -0.40047,1.0342 -0.47557,1.60877c0,0 0,0 0,0m17.79615,-9.30789c1.20143,-1.83858 2.47794,-1.66622 2.72824,1.32148c-0.30036,3.79213 -2.45292,5.45832 -2.7783,9.19299c0,0.91928 0.17522,1.32148 0.57568,1.32148c1.40167,0 1.92731,-1.83859 3.27891,-3.7921c0,0 -0.02504,2.41315 -0.02504,2.41315c-2.15255,3.61974 -3.22883,6.09033 -5.38139,7.12456c-1.80215,-0.51711 -0.77593,-6.49252 -0.15019,-8.3886c0,0 1.70203,-5.2285 1.70203,-5.2285c-2.22764,3.50483 -4.1299,7.9864 -6.00714,12.35307c-0.12514,0.28728 -0.25029,0.28728 -0.35041,0.28728c-0.9261,-0.51712 -0.87605,-2.75791 -0.87605,-6.09034c0,-8.61843 2.70322,-13.50218 4.48032,-18.78815c1.12635,-3.33243 2.70321,-6.77981 3.95471,-9.07805c0.90106,-1.72368 1.55183,-2.58551 1.92728,-2.58551c0.45053,0 0.9261,0.57455 0.9261,1.60875c0,0.97676 -0.4255,2.75791 -1.25148,5.22851c-2.40285,7.06709 -5.53157,14.30657 -8.33491,20.7991c0,0 -0.02502,2.18332 -0.02502,2.18332c1.80214,-3.275 3.67936,-6.95218 5.60666,-9.88245c0,0 0,0 0,0m13.79137,8.04385c0,0 -0.05004,2.47062 -0.05004,2.47062c-1.10132,1.72368 -1.9273,3.10264 -3.62933,2.64296c-1.07627,2.24079 -1.90224,4.1943 -3.67937,4.1943c-3.30391,0 -3.17876,-12.35307 -1.15136,-16.14514c1.45173,-2.70046 2.95351,-5.28597 5.38139,-5.57325c0.65078,-0.05745 1.32658,0.68948 1.3516,2.01095c0,0.86184 -0.30035,1.20659 -0.57568,1.55135c0.6758,0.57455 0.87603,1.14911 0.87603,3.2175c0,2.98774 -0.57568,5.05614 -1.20142,7.58421c1.27652,0.22983 1.80213,-0.74692 2.67817,-1.95351c0,0 0,0 0,0m-5.2312,2.93026c-0.70083,-3.61973 0.15018,-6.09033 0.85101,-9.2504c-1.52682,2.29823 -3.77949,3.96447 -3.77949,9.48021c0,3.33246 2.4529,1.20659 2.92847,-0.22981c0,0 0,0 0,0m15.19304,-2.93026c0,0 -0.05005,2.47062 -0.05005,2.47062c-1.10131,1.72368 -1.9273,3.10264 -3.62932,2.64296c-1.07628,2.24079 -1.90226,4.1943 -3.67937,4.1943c-3.30393,0 -3.17878,-12.35307 -1.15137,-16.14514c1.45173,-2.70046 2.95352,-5.28597 5.38141,-5.57325c0.65076,-0.05745 1.32655,0.68948 1.3516,2.01095c0,0.86184 -0.30036,1.20659 -0.5757,1.55135c0.67581,0.57455 0.87605,1.14911 0.87605,3.2175c0,2.98774 -0.57569,5.05614 -1.20142,7.58421c1.27652,0.22983 1.80213,-0.74692 2.67817,-1.95351c0,0 0,0 0,0m-5.23122,2.93026c-0.70082,-3.61973 0.1502,-6.09033 0.85102,-9.2504c-1.52683,2.29823 -3.77948,3.96447 -3.77948,9.48021c0,3.33246 2.45291,1.20659 2.92846,-0.22981c0,0 0,0 0,0"/><rect id="svg_3" x="0.75115" y="13.92428" width="61.49885" height="52.73871" fill="#000000" opacity="0"/></g></g></svg>