<svg xmlns="http://www.w3.org/2000/svg" width="188" height="241" x="0" y="0" id="svgcontent" viewBox="0 0 188 241" overflow="hidden"><g mask="" style="pointer-events:all"><title style="pointer-events:inherit">Layer 1</title><g id="svg_10" display="null" clip-id="1027" stroke="null" stroke-opacity="1"><path fill="#926645" d="M130.03465270996094,114.74765014648438 C127.45175170898438,105.89839935302734 123.94534301757812,93.27718353271484 125.052490234375,86.56427764892578 S128.23521423339844,17.709760665893555 69.73345184326172,29.976898193359375 C69.73345184326172,29.976898193359375 56.120033264160156,36.17982864379883 43.11698913574219,35.74781036376953 C43.032440185546875,34.95246124267578 42.865970611572266,34.17560958862305 42.63079833984375,33.419891357421875 C44.43023681640625,30.914939880371094 45.97998809814453,24.270729064941406 43.34688186645508,22.99843978881836 C40.79436111450195,21.765779495239258 37.688270568847656,24.457019805908203 36.529598236083984,25.602479934692383 C33.21080017089844,23.357799530029297 28.903759002685547,22.00094985961914 24.195079803466797,22.00094985961914 C20.285720825195312,22.00094985961914 16.590381622314453,22.743450164794922 13.570171356201172,24.31036949157715 C11.577829360961914,22.56509017944336 7.006559371948242,19.291210174560547 4.044469833374023,22.890100479125977 C2.500019073486328,24.766170501708984 5.841279983520508,32.74345016479492 6.364459991455078,33.96025085449219 C6.055309295654297,35.66456985473633 5.999820709228516,37.56045913696289 6.253480911254883,39.66510009765625 C6.253480911254883,39.66510009765625 5.094810485839844,48.38883972167969 15.032711029052734,56.890621185302734 C15.032711029052734,56.890621185302734 16.094940185546875,56.97914123535156 16.245548248291016,60.268882751464844 C16.33803939819336,62.24932098388672 16.549419403076172,74.20995330810547 22.098369598388672,85.71080017089844 C28.171829223632812,98.29766082763672 28.392459869384766,111.88069152832031 27.619579315185547,111.98902893066406 C26.846691131591797,112.10001373291016 18.013290405273438,114.30902099609375 19.559070587158203,119.60958862304688 S39.985801696777344,127.11915588378906 42.19348907470703,118.94767761230469 C44.39985656738281,110.7814712524414 39.83518981933594,89.43916320800781 39.829898834228516,89.4140625 C39.84046936035156,89.32951354980469 39.852359771728516,89.2409896850586 39.86293029785156,89.15379333496094 C39.86293029785156,89.15379333496094 42.309749603271484,93.7541275024414 49.234046936035156,101.2359619140625 C56.15834045410156,108.71514892578125 53.74455261230469,117.18919372558594 53.74455261230469,117.18919372558594 S44.57160949707031,119.25022888183594 45.07234191894531,123.37361907958984 C45.57438659667969,127.49966430664062 61.575172424316406,131.38259887695312 67.49272918701172,119.5541000366211 C73.41029357910156,107.72955322265625 61.53289794921875,85.14005279541016 61.53289794921875,85.14005279541016 S67.29058837890625,85.97370910644531 74.07879638671875,85.19156646728516 C74.07879638671875,85.19156646728516 77.1809310913086,90.84886169433594 79.09530639648438,95.31709289550781 C80.91192626953125,99.55278015136719 83.87138366699219,111.05628204345703 81.56989288330078,112.05773162841797 C77.75167846679688,113.71977233886719 67.14790344238281,116.52332305908203 68.0634765625,123.1014633178711 C68.7597427368164,128.10740661621094 86.63131713867188,126.62635803222656 93.34026336669922,124.52833557128906 C100.04920196533203,122.4289779663086 94.19770050048828,105.6632308959961 96.82817077636719,96.8655014038086 C99.4533462524414,88.06909942626953 102.54358673095703,90.71542358398438 102.54358673095703,90.71542358398438 S107.05937194824219,99.35195922851562 111.61479187011719,105.4914779663086 C116.17153930664062,111.62966918945312 112.87255859375,112.61395263671875 111.09425354003906,113.20187377929688 C109.31594848632812,113.79244232177734 99.46656036376953,117.04386138916016 102.05474853515625,122.55581665039062 C103.260986328125,125.12022399902344 132.49998474121094,123.17677307128906 130.03465270996094,114.74765014648438 z" id="svg_11" stroke-width="0" stroke="null"/><path fill="#3C2415" d="M20.84986114501953,34.283939361572266 C21.60689926147461,34.010459899902344 21.943790435791016,32.70381164550781 21.602928161621094,31.365459442138672 C21.262069702148438,30.02313995361328 20.37158966064453,29.159088134765625 19.61587905883789,29.429931640625 C18.858840942382812,29.70473861694336 18.520618438720703,31.008739471435547 18.861480712890625,32.34973907470703 C19.202350616455078,33.68809127807617 20.092819213867188,34.55345916748047 20.84986114501953,34.283939361572266 zM41.99795913696289,24.889039993286133 C40.40726089477539,24.120119094848633 38.46908950805664,25.815189361572266 37.76226043701172,26.515409469604492 C39.408451080322266,27.844520568847656 40.741519927978516,29.414081573486328 41.67427062988281,31.152748107910156 C42.73517990112305,29.48542022705078 43.56884002685547,25.646080017089844 41.99795913696289,24.889039993286133 zM26.859901428222656,33.944400787353516 C27.610328674316406,33.92061996459961 28.158618927001953,32.85177993774414 28.083309173583984,31.55175018310547 C28.005359649658203,30.250389099121094 27.33420181274414,29.21194076538086 26.581130981445312,29.233081817626953 C25.828060150146484,29.252899169921875 25.28240966796875,30.32569122314453 25.35771942138672,31.625728607177734 C25.434349060058594,32.9244499206543 26.106830596923828,33.964210510253906 26.859901428222656,33.944400787353516 zM6.282550811767578,24.315650939941406 C5.348480224609375,25.334280014038086 7.615619659423828,29.939910888671875 7.615619659423828,29.939910888671875 C7.66581916809082,29.921409606933594 7.7107391357421875,29.9002685546875 7.75963020324707,29.881771087646484 C8.770330429077148,28.004379272460938 10.195880889892578,26.481060028076172 11.925300598144531,25.294649124145508 C11.100889205932617,24.586490631103516 8.132200241088867,22.299530029296875 6.282550811767578,24.315650939941406 zM33.261009216308594,46.92628860473633 C33.0760383605957,46.84701919555664 32.954490661621094,47.0029182434082 32.92675018310547,47.3992805480957 C32.88050842285156,48.06515121459961 31.82884979248047,50.595211029052734 29.210269927978516,50.719390869140625 C28.109729766845703,50.772239685058594 25.479270935058594,51.214839935302734 24.387969970703125,49.054710388183594 C24.384010314941406,49.04677963256836 24.3826904296875,49.037540435791016 24.377399444580078,49.028289794921875 C24.32984161376953,48.93183898925781 24.287559509277344,48.8248291015625 24.245288848876953,48.71649169921875 L23.98236846923828,46.39649963378906 C24.01144027709961,46.3819694519043 24.032581329345703,46.370079040527344 24.032581329345703,46.370079040527344 C24.870201110839844,46.01203918457031 27.639389038085938,44.40945053100586 28.362079620361328,42.230831146240234 C28.461170196533203,41.928279876708984 28.53514862060547,41.664039611816406 28.577430725097656,41.432830810546875 L28.584030151367188,41.44208908081055 C28.584030151367188,41.44208908081055 29.06494903564453,38.6015510559082 28.294700622558594,36.66073989868164 C28.294700622558594,36.66073989868164 28.401710510253906,38.692710876464844 28.34621810913086,40.357398986816406 C27.741119384765625,39.80646896362305 26.040771484375,39.83552932739258 22.507938385009766,39.90687942504883 C21.155048370361328,39.93461990356445 20.427078247070312,40.26359176635742 20.09811019897461,40.74979019165039 C19.87746810913086,39.50259017944336 20.34912872314453,36.64091873168945 20.34912872314453,36.64091873168945 C19.3714599609375,38.761409759521484 19.872188568115234,41.599300384521484 19.872188568115234,41.599300384521484 L19.87879180908203,41.595340728759766 C19.95014190673828,43.270599365234375 22.230491638183594,45.58662033081055 22.230491638183594,45.58662033081055 S22.92938995361328,46.3000602722168 23.414260864257812,46.48897933959961 C23.423519134521484,46.49031066894531 23.431438446044922,46.48897933959961 23.440689086914062,46.49031066894531 C23.448619842529297,47.234130859375 23.501461029052734,48.2052001953125 23.700958251953125,48.76008987426758 C23.571491241455078,49.362548828125 22.77349090576172,51.54909896850586 21.843379974365234,51.73405838012695 C16.571880340576172,52.78704071044922 16.187419891357422,48.91598892211914 15.954898834228516,48.550018310546875 C15.666881561279297,48.096858978271484 15.481910705566406,48.59230041503906 15.481910705566406,48.59230041503906 S15.335258483886719,53.00239181518555 21.68088150024414,52.39728927612305 C23.32046127319336,52.241390228271484 24.019371032714844,49.43389129638672 24.019371032714844,49.43389129638672 S24.518768310546875,50.90039825439453 26.508460998535156,51.276939392089844 C32.651939392089844,52.43825149536133 33.52391815185547,47.62519836425781 33.50014114379883,47.219600677490234 C33.479000091552734,47.02009963989258 33.261009216308594,46.92628860473633 33.261009216308594,46.92628860473633 z" id="svg_12" stroke-width="0" stroke="null"/></g><g id="svg_13" type="text" text="Animal_Love" font-size="8.690828925489251" font-family="Kroftsmann" fill="d31d1d" text-anchor="start" font-weight="normal" font-style="normal" lineHeight="1" shapeId="2" shapeVal="5" fill-opacity="1" display="null" elemBBoxWidth="167.66558837890625" elemBBoxHeight="36.27153015136719" xscale="3.8435022669318784" yscale="4.471649685417118" stroke-opacity="1" stroke-dasharray="none" stroke="ull" style="pointer-events:inherit"><path id="svg_18" fill="#d31d1d" stroke="#ull" stroke-width="0" d="M22.28369,154.37125C22.28369,154.37125 13.37553,153.60646 13.37553,153.60646C13.37553,153.60646 10.50003,161.40089 10.50003,161.40089C10.50003,161.40089 10.50003,200.52747 10.50003,200.52747C10.50003,200.52747 15.69604,197.97731 15.69604,197.97731C15.69604,197.97731 15.69604,184.91254 15.69604,184.91254C15.69604,184.91254 19.50041,183.76961 19.50041,183.76961C19.50041,183.76961 19.50041,196.21657 19.50041,196.21657C19.50041,196.21657 24.69642,193.95711 24.69642,193.95711C24.69642,193.95711 24.69642,161.29224 24.69642,161.29224C24.69642,161.29224 22.28369,154.37125 22.28369,154.37125M19.50041,174.82858C19.50041,174.82858 15.69604,175.52773 15.69604,175.52773C15.69604,175.52773 15.69604,163.19933 15.69604,163.19933C15.69604,163.19933 19.50041,163.08316 19.50041,163.08316C19.50041,163.08316 19.50041,174.82858 19.50041,174.82858C19.50041,174.82858 19.50041,174.82858 19.50041,174.82858M25.80973,193.49483C25.80973,193.49483 25.80973,154.64861 25.80973,154.64861C25.80973,154.64861 31.00574,155.03111 31.00574,155.03111C31.00574,155.03111 35.73731,169.23972 35.73731,169.23972C35.73731,169.23972 35.73731,155.35226 35.73731,155.35226C35.73731,155.35226 41.48998,155.70784 41.48998,155.70784C41.48998,155.70784 41.48998,187.80226 41.48998,187.80226C41.48998,187.80226 35.73731,189.71321 35.73731,189.71321C35.73731,189.71321 31.00574,175.96539 31.00574,175.96539C31.00574,175.96539 31.00574,191.43915 31.00574,191.43915C31.00574,191.43915 25.80973,193.49483 25.80973,193.49483C25.80973,193.49483 25.80973,193.49483 25.80973,193.49483M42.51107,155.76697C42.51107,155.76697 42.51107,163.16785 42.51107,163.16785C42.51107,163.16785 44.36715,163.11697 44.36715,163.11697C44.36715,163.11697 44.36715,179.67804 44.36715,179.67804C44.36715,179.67804 42.51107,180.08369 42.51107,180.08369C42.51107,180.08369 42.51107,187.48457 42.51107,187.48457C42.51107,187.48457 51.41924,184.98788 51.41924,184.98788C51.41924,184.98788 51.41924,178.27797 51.41924,178.27797C51.41924,178.27797 49.56316,178.62479 49.56316,178.62479C49.56316,178.62479 49.56316,162.98492 49.56316,162.98492C49.56316,162.98492 51.41924,162.94144 51.41924,162.94144C51.41924,162.94144 51.41924,156.23154 51.41924,156.23154C51.41924,156.23154 42.51107,155.76697 42.51107,155.76697C42.51107,155.76697 42.51107,155.76697 42.51107,155.76697M63.389,179.73273C63.389,179.73273 66.72894,169.64526 66.72894,169.64526C66.72894,169.64526 66.72894,181.84941 66.72894,181.84941C66.72894,181.84941 71.92494,181.11539 71.92494,181.11539C71.92494,181.11539 71.92494,156.9521 71.92494,156.9521C71.92494,156.9521 65.80006,156.78781 65.80006,156.78781C65.80006,156.78781 62.46012,166.06799 62.46012,166.06799C62.46012,166.06799 58.65575,156.54137 58.65575,156.54137C58.65575,156.54137 52.53254,156.28314 52.53254,156.28314C52.53254,156.28314 52.53254,184.71053 52.53254,184.71053C52.53254,184.71053 57.72855,183.51797 57.72855,183.51797C57.72855,183.51797 57.72855,170.34903 57.72855,170.34903C57.72855,170.34903 61.53292,180.03195 61.53292,180.03195C61.53292,180.03195 63.389,179.73273 63.389,179.73273C63.389,179.73273 63.389,179.73273 63.389,179.73273M84.82191,157.15617C84.82191,157.15617 75.91543,157.0358 75.91543,157.0358C75.91543,157.0358 73.03825,161.07761 73.03825,161.07761C73.03825,161.07761 73.03825,180.97995 73.03825,180.97995C73.03825,180.97995 78.23426,180.44971 78.23426,180.44971C78.23426,180.44971 78.23426,173.535 78.23426,173.535C78.23426,173.535 82.03864,173.35208 82.03864,173.35208C82.03864,173.35208 82.03864,180.16791 82.03864,180.16791C82.03864,180.16791 87.23464,179.92839 87.23464,179.92839C87.23464,179.92839 87.23464,161.06021 87.23464,161.06021C87.23464,161.06021 84.82191,157.15617 84.82191,157.15617M82.03864,168.45609C82.03864,168.45609 78.23426,168.56798 78.23426,168.56798C78.23426,168.56798 78.23426,162.043 78.23426,162.043C78.23426,162.043 82.03864,162.02441 82.03864,162.02441C82.03864,162.02441 82.03864,168.45609 82.03864,168.45609C82.03864,168.45609 82.03864,168.45609 82.03864,168.45609M93.54396,157.18512C93.54396,157.18512 88.34795,157.17847 88.34795,157.17847C88.34795,157.17847 88.34795,179.8989 88.34795,179.8989C88.34795,179.8989 102.54434,180.19836 102.54434,180.19836C102.54434,180.19836 102.54434,175.29469 102.54434,175.29469C102.54434,175.29469 93.54396,175.04396 93.54396,175.04396C93.54396,175.04396 93.54396,157.18512 93.54396,157.18512C93.54396,157.18512 93.54396,157.18512 93.54396,157.18512M103.101,189.48337C103.101,189.48337 119.89623,192.47675 119.89623,192.47675C119.89623,192.47675 119.89623,187.37111 119.89623,187.37111C119.89623,187.37111 103.101,184.85934 103.101,184.85934C103.101,184.85934 103.101,189.48337 103.101,189.48337C103.101,189.48337 103.101,189.48337 103.101,189.48337M125.6489,156.53363C125.6489,156.53363 120.45289,156.71992 120.45289,156.71992C120.45289,156.71992 120.45289,182.36314 120.45289,182.36314C120.45289,182.36314 131.77211,184.75967 131.77211,184.75967C131.77211,184.75967 134.64928,179.25691 134.64928,179.25691C134.64928,179.25691 125.6489,177.6627 125.6489,177.6627C125.6489,177.6627 125.6489,156.53363 125.6489,156.53363C125.6489,156.53363 125.6489,156.53363 125.6489,156.53363M135.76259,161.77621C135.76259,161.77621 138.63976,155.9312 138.63976,155.9312C138.63976,155.9312 147.08348,155.43497 147.08348,155.43497C147.08348,155.43497 149.95897,161.23138 149.95897,161.23138C149.95897,161.23138 149.95897,183.56361 149.95897,183.56361C149.95897,183.56361 147.08348,189.26874 147.08348,189.26874C147.08348,189.26874 138.63976,186.6019 138.63976,186.6019C138.63976,186.6019 135.76259,180.71823 135.76259,180.71823C135.76259,180.71823 135.76259,161.77621 135.76259,161.77621C135.76259,161.77621 135.76259,161.77621 135.76259,161.77621M144.20631,180.68086C144.20631,180.68086 144.20631,163.24271 144.20631,163.24271C144.20631,163.24271 140.9586,163.15021 140.9586,163.15021C140.9586,163.15021 140.9586,179.94307 140.9586,179.94307C140.9586,179.94307 144.20631,180.68086 144.20631,180.68086C144.20631,180.68086 144.20631,180.68086 144.20631,180.68086M160.07266,154.5106C160.07266,154.5106 165.26868,154.08618 165.26868,154.08618C165.26868,154.08618 162.39319,195.23438 162.39319,195.23438C162.39319,195.23438 153.94946,191.76398 153.94946,191.76398C153.94946,191.76398 151.07228,155.17188 151.07228,155.17188C151.07228,155.17188 156.2683,154.80154 156.2683,154.80154C156.2683,154.80154 158.21658,185.21556 158.21658,185.21556C158.21658,185.21556 160.07266,154.5106 160.07266,154.5106M166.38199,153.99118C166.38199,153.99118 178.16731,152.89761 178.16731,152.89761C178.16731,152.89761 177.42456,163.70427 177.42456,163.70427C177.42456,163.70427 171.578,163.49181 171.578,163.49181C171.578,163.49181 171.578,170.19795 171.578,170.19795C171.578,170.19795 178.16731,171.02527 178.16731,171.02527C178.16731,171.02527 177.42456,181.45503 177.42456,181.45503C177.42456,181.45503 171.578,179.96909 171.578,179.96909C171.578,179.96909 171.578,189.74084 171.578,189.74084C171.578,189.74084 178.16731,192.27815 178.16731,192.27815C178.16731,192.27815 177.42456,202.50906 177.42456,202.50906C177.42456,202.50906 166.38199,197.02792 166.38199,197.02792C166.38199,197.02792 166.38199,153.99118 166.38199,153.99118C166.38199,153.99118 166.38199,153.99118 166.38199,153.99118" style="pointer-events:inherit"/><rect id="svg_19" x="10.500032424926758" y="152.89761352539062" width="167.6672821044922" height="49.6114501953125" fill="#000000" opacity="0" style="pointer-events:inherit"/></g><image x="121.99999940395355" y="19.250000968575478" width="59.999998450279236" height="44.99999883770943" preserveAspectRatio="none" id="svg_1" image_id="493" isAdminUploaded="false" display="null" xlink:href="http://192.168.0.222/work/jan_langius/print_commerce/source/designnbuy/assets/images/uploadedImage/o_1b22ntefil9m15qt1bau90j8m8a.jpg" xmlns:xlink="http://www.w3.org/1999/xlink" origWidth="1024" origHeight="768"/></g><defs/></svg>