<svg xmlns="http://www.w3.org/2000/svg" width="210" height="395" x="0" y="0" id="svgcontent" viewBox="0 0 210 395" overflow="hidden"><g mask="" style="pointer-events:all"><title style="pointer-events:inherit">Layer 1</title><g id="svg_58" type="text" text="sac" font-size="54.33917015910643" font-family="Brush-Script" fill="9e5554" text-anchor="start" font-weight="normal" font-style="normal" lineHeight="1" shapeId="0" shapeVal="0" display="null" elemBBoxWidth="52.3277587890625" elemBBoxHeight="18.039764404296875" xscale="1" yscale="1" style="pointer-events:inherit"><path id="svg_59" fill="#9e5554" d="M157.30988,155.24458C157.18489,156.20282 157.47652,157.28602 156.60163,157.57767C156.60163,157.57767 154.97679,158.78588 154.97679,158.78588C152.81036,160.28571 150.5606,162.2855 147.1443,162.32716C144.68623,162.36883 141.51989,160.78565 141.51989,158.57755C141.47823,157.41102 142.56145,156.49444 143.72799,156.5361C144.97786,156.57776 146.01941,157.41102 146.76934,157.99429C149.51904,156.74442 150.18566,153.82806 149.43572,150.07847C149.43572,150.07847 144.31127,154.57798 144.31127,154.57798C144.31127,154.57798 141.01995,157.07771 141.01995,157.07771C141.06162,156.45279 140.97829,155.78618 141.10327,155.24458C143.97796,153.07816 146.72767,150.87007 149.2274,148.28699C149.81068,146.28719 149.93566,145.16231 151.93545,145.16231C153.06033,145.16231 153.22698,145.57893 153.31032,146.66215C153.43528,148.41196 154.22687,149.57851 154.22687,151.36999C154.22687,155.28624 151.01888,157.11937 148.68579,158.91085C152.6437,159.41079 154.81015,156.82774 157.30988,155.24458C157.30988,155.24458 157.30988,155.24458 157.30988,155.24458M178.18266,155.24458C178.18266,155.82785 178.05767,156.45279 178.14098,156.99439C175.84958,158.74421 173.68315,160.78565 171.10008,162.24383C169.39193,163.20207 167.47547,162.66046 167.47547,160.78565C167.47547,158.82753 168.22539,157.8693 169.05862,155.95283C166.93386,157.66099 164.80908,159.61911 162.51766,161.07728C159.18468,163.20207 156.93492,158.99418 157.30988,155.24458C159.35134,150.82839 164.76741,148.62029 169.60024,146.95379C172.14164,146.07889 174.64137,146.07889 175.30797,148.32865C175.26631,149.07856 174.3914,149.16189 173.84979,149.41187C175.14131,149.82849 175.30797,151.24501 174.43307,152.3699C173.30818,153.86973 171.3084,154.99461 171.3084,157.24437C171.3084,158.03595 171.97498,158.61922 172.84991,158.45257C175.14131,157.99429 175.59961,156.95272 178.18266,155.24458C178.18266,155.24458 178.18266,155.24458 178.18266,155.24458M160.60119,156.16114C160.43455,156.78609 159.97627,158.70255 161.05948,158.61922C165.2257,157.24437 168.60035,153.20313 171.35005,150.3701C167.64211,151.49497 164.10083,152.74484 161.39278,154.99461C161.01782,155.36957 160.7262,155.74452 160.60119,156.16114C160.60119,156.16114 160.60119,156.16114 160.60119,156.16114M193.18107,155.24458C193.18107,155.24458 193.1394,157.03606 193.1394,157.03606C190.22305,159.16083 187.1817,162.11884 182.5572,162.2855C177.64105,162.49379 176.93279,154.28635 179.84916,151.49497C182.43222,148.99524 185.72352,145.95389 190.22305,145.95389C193.30604,145.95389 191.30628,150.28678 190.22305,151.36999C189.47312,152.11991 188.80654,153.07816 187.63999,153.28645C186.59844,153.2448 186.30679,152.53653 186.14015,151.49497C184.68197,152.49487 183.18213,153.53642 181.89059,154.70297C179.93248,156.45279 181.64062,158.82753 184.05704,158.82753C187.88996,158.82753 190.68133,156.86941 193.18107,155.24458C193.18107,155.24458 193.18107,155.24458 193.18107,155.24458" style="pointer-events:inherit"/><rect id="svg_60" x="141.01994879000503" y="145.16231567752436" width="52.16111172125964" height="17.546249261856413" fill="#9e5554" opacity="0" style="pointer-events:inherit"/></g><image xmlns:xlink="http://www.w3.org/1999/xlink" x="97.82199607017927" y="146.37260916599942" width="44.08568054329614" height="33.06426040747211" preserveAspectRatio="none" id="svg_61" xlink:href="http://192.168.0.222/work/jan_langius/print_commerce/source/designnbuy/assets/images/uploadedImage/o_1b1p3f2n31pvk1cnc18tm1tfalh9a.jpg" origWidth="1024" origHeight="768" colors="" filter="url(#svg_64)" lockTransform="null" lockEdit="null" display="null" transform=""/><g id="svg_56" display="null" clip-id="340" stroke="null" fill-opacity="1" stroke-opacity="1" style="pointer-events:inherit"><path fill="#9e5554" d="M59.80824,164.57375C60.59709,167.21786 63.10826,169.03297 67.48538,170.12434C68.04043,170.25819 68.61691,170.39117 69.22551,170.50271C72.10789,171.03993 75.25621,171.29068 79.13181,171.29068C79.33705,171.29068 79.54676,171.27729 79.75289,171.27639C78.88193,177.0144 79.19873,182.86392 79.51464,188.52787C79.55569,189.25871 79.59495,189.97709 79.63331,190.69455C77.85391,192.6792 75.61762,194.38098 73.14841,195.61602C72.66295,195.85874 72.46574,196.44951 72.70846,196.93497C72.88159,197.28031 73.22784,197.47664 73.58835,197.47664C73.7365,197.47664 73.88641,197.44451 74.02651,197.37489C76.12983,196.32278 78.07523,194.95567 79.75557,193.37793C79.82428,195.20285 79.85731,196.99208 79.80644,198.75541C79.79127,199.29888 80.21782,199.75041 80.7604,199.76736C80.77109,199.76736 80.78003,199.76736 80.78984,199.76736C81.31814,199.76736 81.75629,199.34527 81.77146,198.81431C81.86784,195.43309 81.66973,191.86802 81.47697,188.42165C81.15928,182.74882 80.83535,176.88055 81.74201,171.23892C83.80965,171.18628 85.89335,171.10238 88.02258,170.99261L88.80251,170.95248C91.83214,170.79541 94.9635,170.63657 97.94671,170.63657C99.44233,170.63657 100.78982,170.67493 102.06683,170.75705L102.10342,170.75794C102.24799,173.23607 102.31401,175.34029 102.37558,177.19822C102.53978,182.39098 102.65489,185.59105 104.32453,188.83752C103.97562,191.30406 102.84141,193.97941 101.31454,195.88463C100.97455,196.30762 101.04417,196.92605 101.46805,197.26514C101.64741,197.41148 101.86515,197.4802 102.0802,197.4802C102.36933,197.4802 102.65489,197.35437 102.84767,197.11255C104.15142,195.48394 105.2071,193.36366 105.82016,191.22286C107.22656,193.1138 109.30044,195.25728 112.55227,198.20661C112.74057,198.37704 112.97704,198.4627 113.21173,198.4627C113.47944,198.4627 113.74627,198.35295 113.93813,198.13877C114.30222,197.73987 114.27456,197.117 113.8721,196.75292C109.64401,192.91124 107.49694,190.53393 106.27082,188.33064C106.24138,188.23783 106.19319,188.1593 106.14052,188.08168C104.59939,185.17964 104.50213,182.29996 104.33881,177.13488C104.2826,175.33316 104.21566,173.29497 104.07912,170.91409C105.82016,171.0658 107.56833,171.2541 109.27011,171.44595C110.76751,171.61372 112.25957,171.78328 113.74806,171.92338C116.34488,172.17056 118.46695,172.28747 120.42841,172.28747C123.84622,172.28747 126.90172,171.92338 129.76714,171.17736L130.58991,170.96139L130.4971,170.11809C130.01789,165.83022 128.03236,162.64264 125.73539,158.94909C124.58956,157.10187 123.33934,155.19396 121.74912,152.85147C123.168,143.98033 119.80284,132.00819 113.85694,124.87987C109.91529,120.15204 105.05541,117.62393 99.80017,117.56592C99.79662,117.56592 99.79304,117.56592 99.78858,117.56592C99.75913,117.56592 99.73236,117.58021 99.70381,117.58288C98.15909,115.65355 96.52247,114.66749 94.82695,114.66749C92.66027,114.66749 90.56139,116.21934 88.41165,119.41404C88.36881,119.47741 88.32867,119.54522 88.28671,119.60947C88.18855,119.24628 87.88783,118.95625 87.49249,118.89378C83.47769,118.27001 79.96083,119.09993 77.02579,121.36835C70.94156,126.0694 69.41559,135.24037 69.04168,138.96428C68.86321,140.75171 68.91496,142.5677 68.96494,144.32479C68.99528,145.37065 69.01758,146.36209 68.99974,147.34549C63.34117,153.47791 58.3831,159.78702 59.80824,164.57375zM81.60638,132.8961C81.55103,132.99514 81.49482,133.09598 81.44218,133.18523C80.68633,134.45062 79.53426,135.9516 77.8557,137.86398C76.84643,137.17238 76.31279,136.17738 76.41361,135.09849C76.55104,133.64836 77.77183,132.47936 79.67705,131.96089C80.10272,131.91358 80.97101,132.34997 81.60638,132.8961zM112.68254,139.92269C111.20566,137.79347 109.60831,135.42152 108.01363,132.90057C109.4825,132.99247 110.6399,133.57787 111.46802,134.65854C112.62722,136.17202 112.8887,138.30214 112.68254,139.92269zM89.1675,168.96246C89.96439,166.21484 91.35382,163.29229 93.6874,163.00852C96.21551,162.70243 99.32542,165.54465 101.37879,168.75276C100.29813,168.69921 99.17729,168.66708 97.94671,168.66708C95.06612,168.66708 92.07487,168.81254 89.1675,168.96246zM70.72203,148.37171C71.89818,147.09918 73.10288,145.83291 74.28797,144.59071C75.82108,142.97996 77.26584,141.45669 78.59815,139.98068C78.76683,139.89234 78.91049,139.76028 78.99794,139.58269C79.00865,139.56039 79.00865,139.53806 79.01759,139.51576C80.94959,137.34014 82.26316,135.64283 83.12609,134.19897C83.30101,133.91162 83.49018,133.55646 83.68829,133.17005C84.17463,132.21164 84.72791,130.98283 85.31331,129.68086C86.61527,126.79045 88.23406,123.19417 90.04292,120.5081C91.77503,117.93448 93.38576,116.62982 94.82785,116.62982C96.02542,116.62982 97.28368,117.53737 98.57317,119.32838L98.59904,119.36765C100.37398,123.5877 102.62188,127.90591 105.4427,132.50969C105.44449,132.51239 105.44537,132.51505 105.44716,132.51773C107.73164,136.22646 110.10179,139.6746 112.12126,142.55966C112.92082,143.69656 113.72665,144.82898 114.53514,145.96409C116.28151,148.42259 118.08769,150.96497 119.84567,153.54307C121.56439,156.06046 122.86459,158.04599 124.06663,159.98425C126.07449,163.21108 127.8298,166.03279 128.42144,169.48094C125.96293,170.04492 123.33934,170.318 120.42751,170.318C118.71234,170.318 116.84193,170.22161 114.63151,170.0235C114.61634,170.00656 114.61455,169.98691 114.60117,169.97085C112.87174,168.03082 110.7461,164.04009 108.49461,159.81469C104.34595,152.02067 100.05272,143.96159 95.46769,142.45705C88.49821,140.16362 84.05863,147.10989 80.49447,152.68994C79.50037,154.24625 78.56069,155.7169 77.64957,156.86985L77.05346,157.62658C74.30583,161.10954 70.91122,165.40009 67.49698,168.08883C64.19608,167.19108 62.23105,165.82308 61.69026,164.01333C60.52036,160.08151 65.59977,153.90001 70.72203,148.37171z" id="svg_57" stroke-width="4" stroke="#1b1c79" style="pointer-events:inherit"/></g><path fill="#122987" stroke="#000000" id="svg_65" d="M112.70594,256.02153C114.23935,253.72141 115.93508,252.40717 118.0729,250.65459C118.91142,249.96716 119.5345,249.04189 120.37301,248.35445C122.51083,246.60186 123.5149,245.42223 124.97327,244.52091C126.92987,243.31169 128.04008,242.9875 132.64034,242.9875C134.94046,242.9875 136.47387,242.9875 138.77399,242.9875C140.30741,242.9875 141.07412,242.9875 141.84083,243.75423C142.60753,244.52091 142.07906,245.34918 142.60753,247.58775C143.00142,249.25629 143.75258,252.86158 144.14094,255.25483C144.755,259.03887 144.90766,260.62177 144.90766,262.92189C144.90766,263.6886 145.67435,265.98873 146.44106,266.75543C147.20777,267.52214 147.97448,269.05556 148.74119,269.82226C149.50789,270.58897 150.03956,270.94073 151.0413,271.35567C151.74965,271.64909 152.57472,271.35567 154.10813,271.35567C154.87483,271.35567 155.33027,270.19565 157.17497,269.05556C159.23742,267.78091 162.04063,265.44784 163.30861,263.6886C164.31106,262.2978 164.84204,259.85507 164.84204,259.08836L164.84204,257.55495" display="null" stroke-width="5" style="pointer-events:inherit"/><g type="text" text="Sachin" font-size="68" font-family="Brush-Script" fill="9e5554" text-anchor="start" font-weight="normal" font-style="normal" lineHeight="1" shapeId="3" shapeVal="6.5" display="null" elemBBoxWidth="169.74789428710938" elemBBoxHeight="50.73785400390625" xscale="1.1584846331349432" yscale="0.7120333405525545" stroke-dasharray="2,2" stroke="000000" id="svg_47" style="pointer-events:inherit"><path fill="#b57d7d" stroke-width="2" stroke-dasharray="2,2" d="M75.095,120.97493C73.89012,121.53613 73.95035,120.55747 74.85403,119.88005C74.85403,119.88005 78.47036,116.33324 78.47036,116.33324C78.47036,116.33324 75.51672,117.82134 75.51672,117.82134C68.04142,122.00784 60.74852,126.90933 56.64857,132.10346C55.92564,134.02745 59.66247,131.87588 61.77268,130.90878C61.77268,130.90878 70.5131,127.34932 70.5131,127.34932C74.91428,126.02912 80.94202,124.33233 80.94202,127.47574C80.94202,130.07075 78.22937,133.1765 72.80404,137.11254C67.37873,141.32843 59.84318,146.34969 50.13885,152.67065C45.075,156.3249 40.25211,159.30098 42.72381,154.66872C44.17134,151.99539 46.70326,148.8367 50.01837,146.4682C50.44007,146.1744 50.50032,146.16897 50.50032,146.42497C50.31958,147.13538 49.11469,148.20003 48.45034,149.00082C59.06,142.1481 67.98116,136.51328 74.49256,130.72018C76.60279,128.36979 72.44259,129.50206 70.3926,130.11475C66.05335,131.55415 60.98949,134.11236 56.28712,136.42725C48.81182,141.5797 49.05446,136.18101 52.1286,131.38193C56.46784,124.7623 67.86068,116.51117 77.9884,111.64298C81.36374,110.23741 83.6547,109.52789 84.98172,109.21662C87.87514,108.56312 87.15053,111.5155 86.06613,112.77275C84.25714,114.89363 79.07447,117.68457 76.36181,120.03437C75.69744,120.62648 75.27574,120.89194 75.095,120.97493C75.095,120.97493 75.095,120.97493 75.095,120.97493M115.36321,121.20479C115.36321,121.71655 115.18247,122.27876 115.30297,122.7445C111.98786,124.58832 108.85182,126.76774 105.11502,128.63201C102.64332,129.93252 99.87041,130.04259 99.87041,128.39784C99.87041,126.68005 100.95649,125.60132 102.16136,123.66936C99.08725,125.83504 96.01312,128.31004 92.69802,130.50668C87.87514,133.89216 84.62028,131.35242 85.16246,127.86405C88.11611,122.95551 95.95287,118.67667 102.94454,115.61879C106.62278,114.19847 110.2391,113.68219 111.20301,115.53939C111.14278,116.20427 109.87764,116.43288 109.09445,116.75619C110.96203,116.88341 111.20301,118.09774 109.9379,119.23949C108.30961,120.77715 105.41622,122.22006 105.41622,124.19385C105.41622,124.88834 106.3818,125.23875 107.64695,124.89501C110.96203,124.04721 111.62472,123.05703 115.36321,121.20479C115.36321,121.20479 115.36321,121.20479 115.36321,121.20479M89.92511,127.04156C89.68246,127.66737 89.01979,129.56371 90.58778,128.98859C96.61555,126.07134 101.49868,121.39331 105.47647,118.15273C100.11139,120.19339 94.9873,122.55217 91.06973,125.65924C90.52754,126.15669 90.10583,126.61863 89.92511,127.04156C89.92511,127.04156 89.92511,127.04156 89.92511,127.04156M137.06449,121.77937C137.06449,121.77937 137.00425,123.34329 137.00425,123.34329C132.78382,124.74701 128.38432,127.04254 121.69219,127.0863C114.58003,127.62746 113.55421,120.5187 117.77464,117.75779C121.51145,115.43014 126.2741,112.78274 132.78382,113.1605C137.24523,113.65228 134.35183,117.11301 132.78382,117.91201C131.69941,118.47893 130.73382,119.24823 129.04699,119.32726C127.53922,119.22086 127.11751,118.58401 126.87653,117.66197C124.76631,118.49119 122.59753,119.39991 120.72829,120.45466C117.89513,122.1008 120.36681,124.08312 123.86266,124.03929C129.40847,124.20839 133.44649,122.79764 137.06449,121.77937C137.06449,121.77937 137.06449,121.77937 137.06449,121.77937M154.54534,120.38457C157.43874,120.11155 160.51287,121.26113 161.11697,123.37658C160.39237,125.53146 155.20803,124.89566 154.42485,127.03762C154.42485,127.62244 154.84656,128.00343 155.81214,128.29655C159.18748,129.39093 160.45261,128.65944 163.70915,128.61463C163.70915,128.61463 163.64891,130.12661 163.64891,130.12661C158.46455,130.5728 155.8724,131.31223 150.68804,130.49735C146.34712,129.13219 148.81879,125.89904 150.32658,125.06814C150.32658,125.06814 154.42485,122.87092 154.42485,122.87092C149.05978,123.65495 144.47954,125.48838 139.95788,127.4579C139.65666,127.59369 139.35545,127.54762 139.11447,127.51137C136.88376,126.87304 137.00425,125.46317 137.00425,123.34329C137.00425,117.8609 143.51397,115.79663 147.79465,113.33945C150.5073,111.8833 154.30437,110.73741 157.31825,110.20415C159.48872,109.83022 161.05674,109.83157 161.96039,110.15904C163.0448,110.56227 164.1911,111.36612 164.1911,112.02421C164.1911,112.64543 163.16529,113.38572 161.17723,114.22421C155.39044,116.80055 147.85489,119.38399 141.10253,122.16152C141.10253,122.16152 141.04228,123.54041 141.04228,123.54041C145.3832,122.27439 149.90487,120.97705 154.54534,120.38457C154.54534,120.38457 154.54534,120.38457 154.54534,120.38457M181.19001,136.76955C181.19001,136.76955 181.12976,138.30817 181.12976,138.30817C181.12976,138.30817 175.64419,138.03413 175.64419,138.03413C173.77494,137.88944 171.72665,137.87827 169.01398,136.73953C164.13086,134.84433 162.86406,130.37757 164.31159,128.15279C165.6972,126.03298 169.91765,124.23348 175.28271,126.74402C177.63393,127.93055 178.11587,129.42293 176.66832,129.77615C174.49955,130.30778 171.48398,130.56685 169.07423,130.91784C167.86767,131.71634 169.49593,133.87957 172.14835,134.9298C176.00566,136.53298 177.63393,136.33701 181.19001,136.76955C181.19001,136.76955 181.19001,136.76955 181.19001,136.76955M181.00927,124.60896C182.09366,125.20878 182.99898,126.26627 182.99898,126.92413C182.81827,128.46658 180.94903,128.88875 178.35685,127.61147C176.84907,126.90716 175.70443,125.56397 175.82492,124.67372C176.00566,123.26558 178.35685,123.29868 181.00927,124.60896C181.00927,124.60896 181.00927,124.60896 181.00927,124.60896M193.72915,138.74525C192.70333,140.43957 187.27801,138.2092 186.19361,139.89486C186.67557,141.13436 188.00094,140.95355 188.60505,140.92444C192.04065,140.77232 197.64669,141.95073 202.10811,143.40576C203.67445,143.96881 204.76054,144.51143 205.42321,145.02646C206.92932,146.54152 206.80884,148.01757 207.41295,149.41227C205.72444,150.34249 200.11839,147.23443 200.11839,150.23154C200.11839,150.88936 200.72083,151.69647 201.86714,152.47263C204.94126,154.62964 206.50761,154.90613 209.401,156.06396C209.401,156.57574 209.22027,156.97618 209.34077,157.5864C205.36297,156.05419 202.28885,156.55288 196.38156,152.28561C192.40211,149.59814 192.9443,146.41017 194.69305,145.9369C194.69305,145.9369 198.36963,145.09548 198.36963,145.09548C193.84964,143.94289 190.17141,144.79506 186.19361,144.50032C182.81827,144.36587 180.58756,140.46075 181.12976,137.79637C181.7322,134.76639 184.98706,134.02776 189.08701,135.15727C190.77552,135.96988 193.60866,137.75085 193.72915,138.74525C193.72915,138.74525 193.72915,138.74525 193.72915,138.74525" stroke="#000000" id="svg_2" style="pointer-events:inherit"/><rect x="41.45732984733925" y="108.76022435016175" width="168.5426577997456" height="49.18935062786002" fill="#000000" opacity="0" stroke="null" id="svg_3" style="pointer-events:inherit"/></g><path fill="#122987" stroke="#000000" d="M-0.00001,145.74844C1.5334,143.4483 3.22911,142.13408 5.36694,140.38148C6.20547,139.69405 6.82853,138.76879 7.66707,138.08136C9.80488,136.32875 10.80895,135.14914 12.2673,134.24782C14.22392,133.03858 15.33414,132.7144 19.93439,132.7144C22.23451,132.7144 23.76792,132.7144 26.06805,132.7144C27.60145,132.7144 28.36816,132.7144 29.13486,133.48112C29.90158,134.24782 29.37312,135.07605 29.90158,137.31466C30.29546,138.98318 31.04662,142.5885 31.43499,144.98172C32.04905,148.76575 32.2017,150.34866 32.2017,152.6488C32.2017,153.41549 32.9684,155.71562 33.73511,156.48233C34.50182,157.24904 35.26852,158.78245 36.03523,159.54915C36.80194,160.31587 37.33361,160.66764 38.33536,161.08258C39.04371,161.37599 39.86877,161.08258 41.40218,161.08258C42.1689,161.08258 42.62432,159.92254 44.46902,158.78245C46.53145,157.5078 49.33468,155.17474 50.60267,153.41549C51.6051,152.0247 52.13608,149.58196 52.13608,148.81525L52.13608,147.28184" display="null" stroke-width="5" id="svg_4" style="pointer-events:inherit"/></g><defs><filter id="svg_64" type="gamma_correct" color-interpolation-filters="sRGB"><feComponentTransfer><feFuncG type="gamma" amplitude="1" exponent="0.5"/></feComponentTransfer></filter><mask id="canvasMaskImageDef" maskUnits="objectBoundingBox" x="0" y="0"><image xmlns:xlink="http://www.w3.org/1999/xlink" id="canvasMaskImage" preserveAspectRatio="none" x="0" y="-91" width="400" height="344.82758620689657" xlink:href="http://192.168.0.222/work/jan_langius/print_commerce/source/designnbuy/uploads/productimage/5826b9c0eeec0.png"/></mask></defs></svg>