<svg xmlns="http://www.w3.org/2000/svg" width="313" height="119" x="0" y="0" id="svgcontent" overflow="hidden" viewBox="0 0 313 119"><defs/><g style="pointer-events:all" mask=""><title style="pointer-events:inherit">Layer 1</title><g id="svg_1" type="text" text="Harish" font-size="27.430136361042962" font-family="KG Beautiful Ending" font-id="1" fill="d327ac" text-anchor="start" font-weight="normal" font-style="normal" lineHeight="1" shapeId="0" shapeVal="0" fill-opacity="1" display="null" elemBBoxWidth="302.53515625" xscale="108.07100084382098" yscale="NaN" elemBBoxHeight="20.51171875" stroke-width="2" stroke="040406" stroke-dasharray="none" stroke-opacity="1"><path id="svg_16" fill="#d327ac" stroke="#040406" stroke-width="2" d="M22.959070205688477,22.83260726928711 C33.478965759277344,22.83260726928711 44.52482223510742,22.99847412109375 39.7908821105957,21.726844787597656 C39.7908821105957,21.726844787597656 39.7908821105957,14.649953842163086 39.7908821105957,14.649953842163086 C48.2067756652832,14.097071647644043 49.25876235961914,15.258124351501465 49.25876235961914,16.253311157226562 C49.25876235961914,16.253311157226562 51.362735748291016,31.291704177856445 51.362735748291016,31.291704177856445 C50.83674240112305,31.51285743713379 45.05081558227539,31.40228271484375 42.42084884643555,31.34699249267578 C42.42084884643555,31.34699249267578 40.84286880493164,23.551355361938477 40.84286880493164,23.551355361938477 C36.10892868041992,23.77250862121582 28.745023727416992,23.71721839904785 22.959070205688477,23.66193199157715 C22.433076858520508,26.205188751220703 25.589061737060547,29.13546371459961 22.959070205688477,31.457569122314453 C7.179241180419922,32.065738677978516 10.33522891998291,30.02007484436035 9.809234619140625,28.306140899658203 C9.809234619140625,28.306140899658203 9.283241271972656,14.760530471801758 9.283241271972656,14.760530471801758 C16.12115478515625,14.152359962463379 26.115055084228516,14.705242156982422 21.38109016418457,15.811006546020508 C21.38109016418457,15.811006546020508 22.959070205688477,22.83260726928711 22.959070205688477,22.83260726928711 M23.485088348388672,22.83260726928711 C23.485088348388672,22.83260726928711 23.485088348388672,22.887897491455078 23.485088348388672,22.887897491455078 C23.485088348388672,22.887897491455078 23.485088348388672,22.83260726928711 23.485088348388672,22.83260726928711 C23.485088348388672,22.83260726928711 23.485088348388672,22.83260726928711 23.485088348388672,22.83260726928711 M109.22206115722656,18.022533416748047 C107.64408111572266,22.33501434326172 113.43000793457031,28.527294158935547 106.06610107421875,31.34699249267578 C106.06610107421875,31.457569122314453 100.80616760253906,31.457569122314453 100.2801742553711,31.40228271484375 C99.75418090820312,31.12584114074707 100.2801742553711,30.02007484436035 98.70219421386719,30.57295799255371 C96.07222747802734,31.40228271484375 80.81836700439453,31.844587326049805 75.55843353271484,30.95997428894043 C55.57068634033203,27.58739471435547 53.992706298828125,18.52012825012207 97.12421417236328,17.967247009277344 C100.80616760253906,18.298974990844727 105.54010772705078,17.137924194335938 109.22206115722656,18.022533416748047 C109.22206115722656,18.022533416748047 109.22206115722656,18.022533416748047 109.22206115722656,18.022533416748047 M95.0202407836914,29.301326751708984 C95.0202407836914,28.416719436645508 82.39634704589844,28.36142921447754 81.87035369873047,29.24604034423828 C81.3443603515625,29.798921585083008 82.9223403930664,30.02007484436035 87.65628051757812,30.02007484436035 C90.81224060058594,30.02007484436035 95.0202407836914,29.633056640625 95.0202407836914,29.301326751708984 C95.0202407836914,29.301326751708984 95.0202407836914,29.301326751708984 95.0202407836914,29.301326751708984 M164.97735595703125,30.738821029663086 C168.1333770751953,30.904685974121094 167.60739135742188,31.568145751953125 162.87338256835938,31.457569122314453 C150.77560424804688,30.517667770385742 145.51560974121094,28.693157196044922 137.09971618652344,27.31095314025879 C134.46974182128906,28.47200584411621 137.09971618652344,30.02007484436035 138.15170288085938,31.181129455566406 C129.73580932617188,32.01045227050781 119.74193572998047,31.181129455566406 123.42388916015625,29.68834686279297 C123.42388916015625,29.68834686279297 121.84590911865234,18.077821731567383 121.84590911865234,18.077821731567383 C127.1058349609375,18.077821731567383 136.57371520996094,17.74609375 135.521728515625,18.630704879760742 C140.7816619873047,18.298974990844727 144.98960876464844,17.74609375 153.9315643310547,17.801382064819336 C168.6593780517578,18.298974990844727 165.50341796875,20.952810287475586 165.50341796875,22.94318389892578 C165.50341796875,24.933561325073242 160.2434844970703,26.592206954956055 143.41163635253906,26.923934936523438 C143.41163635253906,26.923934936523438 164.97735595703125,30.738821029663086 164.97735595703125,30.738821029663086 M141.3076629638672,28.08498764038086 C141.3076629638672,28.08498764038086 141.3076629638672,28.08498764038086 141.3076629638672,28.08498764038086 C141.3076629638672,28.08498764038086 141.3076629638672,28.08498764038086 141.3076629638672,28.08498764038086 C141.3076629638672,28.08498764038086 141.3076629638672,28.08498764038086 141.3076629638672,28.08498764038086 M149.72361755371094,25.210002899169922 C149.72361755371094,24.325389862060547 136.57371520996094,24.27010154724121 136.57371520996094,25.154712677001953 C136.57371520996094,25.652307510375977 137.62570190429688,25.928747177124023 141.83364868164062,25.928747177124023 C144.98960876464844,25.928747177124023 149.72361755371094,25.59701919555664 149.72361755371094,25.210002899169922 C149.72361755371094,25.210002899169922 149.72361755371094,25.210002899169922 149.72361755371094,25.210002899169922 M188.12112426757812,31.291704177856445 C186.01715087890625,31.568145751953125 177.07525634765625,31.568145751953125 177.07525634765625,31.12584114074707 C177.07525634765625,31.12584114074707 177.60125732421875,18.077821731567383 177.60125732421875,18.077821731567383 C180.75721740722656,17.690805435180664 193.3810577392578,17.856670379638672 189.17311096191406,18.685993194580078 C189.17311096191406,18.685993194580078 188.12112426757812,31.291704177856445 188.12112426757812,31.291704177856445 M188.64710998535156,16.19802474975586 C188.64710998535156,16.91676902770996 176.5492706298828,17.24850082397461 175.49728393554688,16.41917610168457 C176.0232696533203,15.976869583129883 176.0232696533203,15.423989295959473 181.8092041015625,15.479276657104492 C186.5431365966797,15.479276657104492 188.64710998535156,15.700429916381836 188.64710998535156,16.19802474975586 C188.64710998535156,16.19802474975586 188.64710998535156,16.19802474975586 188.64710998535156,16.19802474975586 M226.5186309814453,31.457569122314453 C219.15472412109375,31.51285743713379 212.84280395507812,31.34699249267578 207.58287048339844,31.12584114074707 C207.58287048339844,31.12584114074707 207.58287048339844,30.95997428894043 207.58287048339844,30.95997428894043 C201.2709503173828,30.68353271484375 194.9590301513672,28.47200584411621 201.7969512939453,27.697969436645508 C204.95291137695312,27.808549880981445 213.89479064941406,27.642683029174805 211.26483154296875,28.306140899658203 C209.6868438720703,29.68834686279297 221.78475952148438,31.568145751953125 228.6226043701172,29.854209899902344 C229.14866638183594,25.818172454833984 198.6409912109375,25.044137954711914 197.58900451660156,21.173961639404297 C197.06300354003906,19.29416275024414 211.7908172607422,16.97205924987793 227.04469299316406,18.354263305664062 C231.778564453125,19.29416275024414 233.3566131591797,20.178775787353516 232.83055114746094,21.56097984313965 C231.778564453125,21.837421417236328 227.04469299316406,21.56097984313965 224.9407196044922,21.616268157958984 C223.88873291015625,20.62108039855957 225.46664428710938,19.349451065063477 219.15472412109375,18.962432861328125 C207.056884765625,20.897520065307617 216.5248260498047,24.380678176879883 225.99270629882812,25.818172454833984 C234.9345245361328,27.089799880981445 242.82449340820312,30.517667770385742 226.5186309814453,31.457569122314453 C226.5186309814453,31.457569122314453 226.5186309814453,31.457569122314453 226.5186309814453,31.457569122314453 M293.84588623046875,25.154712677001953 C293.84588623046875,27.58739471435547 302.26177978515625,31.34699249267578 285.9559631347656,31.51285743713379 C279.64404296875,27.97441291809082 291.21588134765625,22.44559097290039 281.7480163574219,18.79656982421875 C245.45445251464844,19.957622528076172 264.9162292480469,26.53691864013672 260.1822509765625,31.457569122314453 C254.92233276367188,31.291704177856445 247.03244018554688,31.78929901123047 247.03244018554688,30.794109344482422 C247.03244018554688,30.794109344482422 245.98045349121094,15.036971092224121 245.98045349121094,15.036971092224121 C251.2404022216797,14.373513221740723 263.8642272949219,14.926395416259766 259.6562805175781,16.19802474975586 C258.60430908203125,17.414363861083984 259.6562805175781,18.464839935302734 260.1822509765625,19.625892639160156 C265.44219970703125,18.022533416748047 293.3198547363281,16.91676902770996 293.3198547363281,19.8470458984375 C293.3198547363281,21.505691528320312 293.84588623046875,23.38549041748047 293.84588623046875,25.154712677001953 C293.84588623046875,25.154712677001953 293.84588623046875,25.154712677001953 293.84588623046875,25.154712677001953 "/><rect id="svg_17" x="2.378904451491966" y="13.781249931014576" width="300.535142848037" height="18.511719264934378" fill="#000000" opacity="0"/></g><g id="svg_6" type="text" text="Sonu" font-size="37.891551071878936" font-family="Aldo" font-id="1" fill="eb1919" text-anchor="start" font-weight="normal" font-style="normal" lineHeight="1" shapeId="0" shapeVal="0" fill-opacity="1" display="null" elemBBoxWidth="41.39845275878906" xscale="0.49053481107263963" yscale="NaN" stroke-width="0" stroke="null" stroke-dasharray="none" elemBBoxHeight="41.5703125" stroke-opacity="1"><path id="svg_9" fill="#eb1919" stroke-width="1" d="M21.37546157836914,99.63447570800781 C21.37546157836914,99.63447570800781 21.37546157836914,82.67842864990234 21.37546157836914,82.67842864990234 C22.13751983642578,86.53207397460938 23.30848979949951,88.96284484863281 24.851195335388184,89.91143035888672 C24.851195335388184,89.91143035888672 24.851195335388184,99.63447570800781 24.851195335388184,99.63447570800781 C24.851195335388184,99.63447570800781 21.37546157836914,99.63447570800781 21.37546157836914,99.63447570800781 C21.37546157836914,99.63447570800781 21.37546157836914,99.63447570800781 21.37546157836914,99.63447570800781 M25.873469352722168,86.88780212402344 C23.420010566711426,87.12495422363281 21.338287353515625,80.24766540527344 21.37546157836914,72.54037475585938 C21.41263484954834,64.2402114868164 23.5129451751709,57.422218322753906 26.393900871276855,58.25223159790039 C26.393900871276855,58.25223159790039 26.393900871276855,70.93962860107422 26.393900871276855,70.93962860107422 C28.828773498535156,70.70248413085938 31.022018432617188,77.63904571533203 30.984846115112305,85.28705596923828 C30.94767189025879,93.70579528808594 28.79159927368164,100.40520477294922 25.873469352722168,99.63447570800781 C25.873469352722168,99.63447570800781 25.873469352722168,86.88780212402344 25.873469352722168,86.88780212402344 C25.873469352722168,86.88780212402344 25.873469352722168,86.88780212402344 25.873469352722168,86.88780212402344 M27.3975887298584,67.97528839111328 C27.3975887298584,67.97528839111328 27.3975887298584,58.25223159790039 27.3975887298584,58.25223159790039 C27.3975887298584,58.25223159790039 30.371479034423828,58.25223159790039 30.371479034423828,58.25223159790039 C30.371479034423828,58.25223159790039 30.371479034423828,73.25181579589844 30.371479034423828,73.25181579589844 C29.553661346435547,70.40604400634766 28.568557739257812,68.62744140625 27.3975887298584,67.97528839111328 C27.3975887298584,67.97528839111328 27.3975887298584,67.97528839111328 27.3975887298584,67.97528839111328 M36.356435775756836,99.69377136230469 C33.9587345123291,98.8637466430664 32.10005187988281,92.22361755371094 32.10005187988281,83.27130126953125 C32.10005187988281,75.38614654541016 34.08884239196777,68.74601745605469 36.356435775756836,68.15314483642578 C36.356435775756836,68.15314483642578 36.356435775756836,99.69377136230469 36.356435775756836,99.69377136230469 C36.356435775756836,99.69377136230469 36.356435775756836,99.69377136230469 36.356435775756836,99.69377136230469 M37.37870979309082,68.15314483642578 C39.70205879211426,68.98316192626953 41.54215621948242,75.68257904052734 41.54215621948242,84.51632690429688 C41.54215621948242,92.28291320800781 39.6091251373291,99.04161071777344 37.37870979309082,99.69377136230469 C37.37870979309082,99.69377136230469 37.37870979309082,68.15314483642578 37.37870979309082,68.15314483642578 C37.37870979309082,68.15314483642578 37.37870979309082,68.15314483642578 37.37870979309082,68.15314483642578 M42.65736389160156,99.75305938720703 C42.80605888366699,89.49642181396484 42.081172943115234,78.7655029296875 43.88409423828125,73.0739517211914 C44.75767517089844,70.34675598144531 45.70560073852539,68.56814575195312 46.91374588012695,68.15314483642578 C46.91374588012695,68.15314483642578 46.91374588012695,99.75305938720703 46.91374588012695,99.75305938720703 C46.91374588012695,99.75305938720703 42.65736389160156,99.75305938720703 42.65736389160156,99.75305938720703 C42.65736389160156,99.75305938720703 42.65736389160156,99.75305938720703 42.65736389160156,99.75305938720703 M47.93601608276367,68.15314483642578 C50.222198486328125,68.68672943115234 52.19239807128906,75.4454345703125 52.19239807128906,83.27130126953125 C52.19239807128906,83.27130126953125 52.19239807128906,99.75305938720703 52.19239807128906,99.75305938720703 C52.19239807128906,99.75305938720703 47.93601608276367,99.75305938720703 47.93601608276367,99.75305938720703 C47.93601608276367,99.75305938720703 47.93601608276367,68.15314483642578 47.93601608276367,68.15314483642578 C47.93601608276367,68.15314483642578 47.93601608276367,68.15314483642578 47.93601608276367,68.15314483642578 M57.47105407714844,99.69377136230469 C55.20346450805664,99.04161071777344 53.30760955810547,92.4014892578125 53.30760955810547,84.51632690429688 C53.30760955810547,84.51632690429688 53.30760955810547,68.0345687866211 53.30760955810547,68.0345687866211 C53.30760955810547,68.0345687866211 57.47105407714844,68.0345687866211 57.47105407714844,68.0345687866211 C57.47105407714844,68.0345687866211 57.47105407714844,99.69377136230469 57.47105407714844,99.69377136230469 C57.47105407714844,99.69377136230469 57.47105407714844,99.69377136230469 57.47105407714844,99.69377136230469 M58.49333190917969,99.69377136230469 C58.49333190917969,99.69377136230469 58.49333190917969,68.0345687866211 58.49333190917969,68.0345687866211 C58.49333190917969,68.0345687866211 62.74971389770508,68.0345687866211 62.74971389770508,68.0345687866211 C62.60101318359375,78.3504867553711 63.32590103149414,88.96284484863281 61.522979736328125,94.71366882324219 C60.64939880371094,97.44086456298828 59.701473236083984,99.27876281738281 58.49333190917969,99.69377136230469 C58.49333190917969,99.69377136230469 58.49333190917969,99.69377136230469 58.49333190917969,99.69377136230469 " stroke="#8e1a1a"/><rect id="svg_10" x="21.3756883315343" y="58.18359366592583" width="41.39776474278095" height="41.56703825516968" fill="#eb1919" opacity="0" stroke="#8e1a1a" stroke-width="1"/></g><g id="svg_11" type="text" text="Yash" font-size="32.41425784713602" font-family="SF Archery Black" font-id="1" fill="3128d7" text-anchor="start" font-weight="normal" font-style="normal" lineHeight="1" shapeId="0" shapeVal="0" fill-opacity="1" display="null" elemBBoxWidth="214.11331176757812" xscale="3.9567608324911565" yscale="NaN" stroke-width="0" stroke="null" stroke-dasharray="none" elemBBoxHeight="20.93359375" stroke-opacity="1"><path id="svg_14" fill="#3128d7" stroke-width="3" d="M136.94827041669487,65.58293614750482 C136.94827041669487,65.58293614750482 121.27261927252812,68.70817588212867 121.27261927252812,68.70817588212867 C121.27261927252812,68.70817588212867 121.27261927252812,76.5576097551243 121.27261927252812,76.5576097551243 C121.27261927252812,76.5576097551243 103.45935769035168,76.5576097551243 103.45935769035168,76.5576097551243 C103.45935769035168,76.5576097551243 103.45935769035168,68.70817588212867 103.45935769035168,68.70817588212867 C103.45935769035168,68.70817588212867 88.13995983494169,65.58293614750482 88.13995983494169,65.58293614750482 C88.13995983494169,65.58293614750482 88.13995983494169,55.62578439234926 88.13995983494169,55.62578439234926 C88.13995983494169,55.62578439234926 105.95322141711813,55.62578439234926 105.95322141711813,55.62578439234926 C105.95322141711813,55.62578439234926 105.95322141711813,65.58293614750482 105.95322141711813,65.58293614750482 C105.95322141711813,65.58293614750482 112.36599981962354,66.89117682779079 112.36599981962354,66.89117682779079 C112.36599981962354,66.89117682779079 118.77875554576167,65.58293614750482 118.77875554576167,65.58293614750482 C118.77875554576167,65.58293614750482 118.77875554576167,55.62578439234926 118.77875554576167,55.62578439234926 C118.77875554576167,55.62578439234926 136.94827041669487,55.62578439234926 136.94827041669487,55.62578439234926 C136.94827041669487,55.62578439234926 136.94827041669487,65.58293614750482 136.94827041669487,65.58293614750482 C136.94827041669487,65.58293614750482 136.94827041669487,65.58293614750482 136.94827041669487,65.58293614750482 M190.74430845198094,73.9411352003658 C190.74430845198094,73.9411352003658 171.5059808032538,76.5576097551243 171.5059808032538,76.5576097551243 C171.5059808032538,76.5576097551243 142.2922738353518,76.5576097551243 142.2922738353518,76.5576097551243 C142.2922738353518,76.5576097551243 142.2922738353518,70.01641656241463 142.2922738353518,70.01641656241463 C142.2922738353518,70.01641656241463 161.53058636650076,67.39993860474942 161.53058636650076,67.39993860474942 C161.53058636650076,67.39993860474942 172.9310544285936,67.39993860474942 172.9310544285936,67.39993860474942 C172.9310544285936,67.39993860474942 172.9310544285936,63.47521996679825 172.9310544285936,63.47521996679825 C172.9310544285936,63.47521996679825 160.10552785873915,63.47521996679825 160.10552785873915,63.47521996679825 C160.10552785873915,63.47521996679825 160.10552785873915,64.7834572441775 160.10552785873915,64.7834572441775 C160.10552785873915,64.7834572441775 142.2922738353518,64.7834572441775 142.2922738353518,64.7834572441775 C142.2922738353518,64.7834572441775 142.2922738353518,63.47521996679825 142.2922738353518,63.47521996679825 C142.2922738353518,63.47521996679825 161.53058636650076,60.85874200913304 161.53058636650076,60.85874200913304 C161.53058636650076,60.85874200913304 190.74430845198094,60.85874200913304 190.74430845198094,60.85874200913304 C190.74430845198094,60.85874200913304 190.74430845198094,73.9411352003658 190.74430845198094,73.9411352003658 C190.74430845198094,73.9411352003658 190.74430845198094,73.9411352003658 190.74430845198094,73.9411352003658 M172.9310544285936,73.9411352003658 C172.9310544285936,73.9411352003658 172.9310544285936,70.01641656241463 172.9310544285936,70.01641656241463 C172.9310544285936,70.01641656241463 160.10552785873915,70.01641656241463 160.10552785873915,70.01641656241463 C160.10552785873915,70.01641656241463 160.10552785873915,73.9411352003658 160.10552785873915,73.9411352003658 C160.10552785873915,73.9411352003658 172.9310544285936,73.9411352003658 172.9310544285936,73.9411352003658 C172.9310544285936,73.9411352003658 172.9310544285936,73.9411352003658 172.9310544285936,73.9411352003658 M246.32168096015266,73.9411352003658 C246.32168096015266,73.9411352003658 227.0833835465819,76.5576097551243 227.0833835465819,76.5576097551243 C227.0833835465819,76.5576097551243 197.5133552608213,76.5576097551243 197.5133552608213,76.5576097551243 C197.5133552608213,76.5576097551243 197.5133552608213,72.63289792298656 197.5133552608213,72.63289792298656 C197.5133552608213,72.63289792298656 215.68288524933268,72.63289792298656 215.68288524933268,72.63289792298656 C215.68288524933268,72.63289792298656 215.68288524933268,73.9411352003658 215.68288524933268,73.9411352003658 C215.68288524933268,73.9411352003658 228.50841181918713,73.9411352003658 228.50841181918713,73.9411352003658 C228.50841181918713,73.9411352003658 228.50841181918713,70.01641656241463 228.50841181918713,70.01641656241463 C228.50841181918713,70.01641656241463 197.5133552608213,70.01641656241463 197.5133552608213,70.01641656241463 C197.5133552608213,70.01641656241463 197.5133552608213,63.47521996679825 197.5133552608213,63.47521996679825 C197.5133552608213,63.47521996679825 216.75168290954844,60.85874200913304 216.75168290954844,60.85874200913304 C216.75168290954844,60.85874200913304 246.32168096015266,60.85874200913304 246.32168096015266,60.85874200913304 C246.32168096015266,60.85874200913304 246.32168096015266,64.7834572441775 246.32168096015266,64.7834572441775 C246.32168096015266,64.7834572441775 228.50841181918713,64.7834572441775 228.50841181918713,64.7834572441775 C228.50841181918713,64.7834572441775 228.50841181918713,63.47521996679825 228.50841181918713,63.47521996679825 C228.50841181918713,63.47521996679825 215.68288524933268,63.47521996679825 215.68288524933268,63.47521996679825 C215.68288524933268,63.47521996679825 215.68288524933268,67.39993860474942 215.68288524933268,67.39993860474942 C215.68288524933268,67.39993860474942 246.32168096015266,67.39993860474942 246.32168096015266,67.39993860474942 C246.32168096015266,67.39993860474942 246.32168096015266,73.9411352003658 246.32168096015266,73.9411352003658 C246.32168096015266,73.9411352003658 246.32168096015266,73.9411352003658 246.32168096015266,73.9411352003658 M302.2553596686048,76.5576097551243 C302.2553596686048,76.5576097551243 284.08578432735885,76.5576097551243 284.08578432735885,76.5576097551243 C284.08578432735885,76.5576097551243 284.08578432735885,63.47521996679825 284.08578432735885,63.47521996679825 C284.08578432735885,63.47521996679825 271.2602426399262,63.47521996679825 271.2602426399262,63.47521996679825 C271.2602426399262,63.47521996679825 271.2602426399262,76.5576097551243 271.2602426399262,76.5576097551243 C271.2602426399262,76.5576097551243 253.44698861653887,76.5576097551243 253.44698861653887,76.5576097551243 C253.44698861653887,76.5576097551243 253.44698861653887,55.62578439234926 253.44698861653887,55.62578439234926 C253.44698861653887,55.62578439234926 271.2602426399262,55.62578439234926 271.2602426399262,55.62578439234926 C271.2602426399262,55.62578439234926 271.2602426399262,60.85874200913304 271.2602426399262,60.85874200913304 C271.2602426399262,60.85874200913304 302.2553596686048,60.85874200913304 302.2553596686048,60.85874200913304 C302.2553596686048,60.85874200913304 302.2553596686048,76.5576097551243 302.2553596686048,76.5576097551243 C302.2553596686048,76.5576097551243 302.2553596686048,76.5576097551243 302.2553596686048,76.5576097551243 " stroke="#863fa6"/><rect id="svg_15" x="88.14063583628813" y="55.625001376412015" width="214.11329718991587" height="20.93359299435261" fill="#3128d7" opacity="0" stroke="#863fa6" stroke-width="3"/></g></g></svg>