<svg width="211" height="376" xmlns="http://www.w3.org/2000/svg" viewBox="0 0 211 376"><g><title>Layer 1</title><g clip-id="2" display="null" id="svg_4"><path stroke-width="0" id="svg_5" d="m124.81369,137.83696c-1.07674,-3.68898 -2.53845,-8.95036 -2.0769,-11.74875s1.32678,-28.70328 -23.06076,-23.58949c0,0 -5.675,2.58582 -11.09555,2.40572c-0.03526,-0.33156 -0.10464,-0.65541 -0.20268,-0.97044c0.75013,-1.04424 1.39617,-3.814 0.29851,-4.34436c-1.06406,-0.51387 -2.35889,0.60803 -2.8419,1.08554c-1.38351,-0.93575 -3.17897,-1.50137 -5.14187,-1.50137c-1.62969,0 -3.17016,0.30952 -4.42919,0.96272c-0.83054,-0.72755 -2.73616,-2.09233 -3.97096,-0.59206c-0.64384,0.78207 0.74903,4.10754 0.96713,4.61479c-0.12888,0.71048 -0.15201,1.50081 -0.04626,2.37817c0,0 -0.48302,3.63664 3.65978,7.18077c0,0 0.44281,0.0369 0.50559,1.40828c0.03855,0.82559 0.12668,5.8116 2.43986,10.60594c2.53183,5.24707 2.62381,10.90939 2.30161,10.95456c-0.32219,0.04626 -4.00455,0.96713 -3.36017,3.17676s8.51526,3.13051 9.43558,-0.27591c0.91976,-3.40424 -0.98311,-12.30118 -0.98531,-12.31165c0.0044,-0.03525 0.00936,-0.07214 0.01376,-0.10849c0,0 1.02,1.91774 3.90652,5.03668c2.88652,3.11783 1.88029,6.65039 1.88029,6.65039s-3.82391,0.85918 -3.61517,2.57809c0.20929,1.72 6.87951,3.33868 9.34635,-1.59225c2.46684,-4.92926 -2.48447,-14.34612 -2.48447,-14.34612s2.4002,0.34752 5.23,0.02147c0,0 1.29317,2.35835 2.09122,4.22101c0.75729,1.76573 1.991,6.56117 1.03157,6.97865c-1.59169,0.69286 -6.01207,1.86156 -5.63039,4.60378c0.29025,2.08682 7.74034,1.46942 10.53708,0.59482c2.79675,-0.87515 0.35744,-7.86426 1.454,-11.53175c1.09436,-3.66695 2.38258,-2.56377 2.38258,-2.56377s1.88249,3.60028 3.7815,6.15967c1.89956,2.55881 0.52432,2.96912 -0.217,3.21422c-0.74132,0.24619 -4.84721,1.60159 -3.76828,3.89935c0.50284,1.06902 12.69165,0.25887 11.66394,-3.25497z" fill="#926645"/><path stroke-width="0" id="svg_6" d="m79.298,104.29419c0.31559,-0.114 0.45603,-0.65871 0.31393,-1.21661c-0.1421,-0.55957 -0.51331,-0.91977 -0.82834,-0.80687c-0.31558,0.11456 -0.45658,0.65816 -0.31448,1.21718c0.1421,0.55792 0.51331,0.91866 0.82889,0.8063zm8.81597,-3.91643c-0.66311,-0.32054 -1.47107,0.38608 -1.76572,0.67798c0.68624,0.55406 1.24196,1.20836 1.63079,1.93315c0.44226,-0.69505 0.78979,-2.29555 0.13493,-2.61113zm-6.31057,3.77489c0.31283,-0.00992 0.54139,-0.45547 0.50999,-0.99742c-0.03249,-0.5425 -0.31228,-0.97539 -0.62621,-0.96658c-0.31393,0.00827 -0.5414,0.45547 -0.51,0.99742c0.03194,0.5414 0.31228,0.97484 0.62621,0.96658zm-8.57805,-4.01392c-0.38938,0.42462 0.55572,2.34457 0.55572,2.34457c0.02093,-0.00772 0.03965,-0.01653 0.06003,-0.02425c0.42133,-0.78262 1.01559,-1.41765 1.73654,-1.91222c-0.34367,-0.29521 -1.58123,-1.24857 -2.35229,-0.40811zm11.24646,9.42566c-0.0771,-0.03305 -0.12777,0.03194 -0.13934,0.19717c-0.01928,0.27757 -0.45768,1.33228 -1.54928,1.38405c-0.45879,0.02203 -1.55534,0.20653 -2.01027,-0.69395c-0.00165,-0.00331 -0.0022,-0.00716 -0.0044,-0.01102c-0.01983,-0.04021 -0.03745,-0.08482 -0.05508,-0.12997l-0.1096,-0.96713c0.01212,-0.00606 0.02093,-0.01102 0.02093,-0.01102c0.34918,-0.14926 1.50357,-0.81732 1.80483,-1.72552c0.04131,-0.12613 0.07215,-0.23627 0.08978,-0.33266l0.00275,0.00386c0,0 0.20048,-1.18413 -0.12061,-1.99319c0,0 0.04461,0.84706 0.02148,1.54102c-0.25224,-0.22966 -0.96107,-0.21754 -2.4338,-0.18781c-0.56397,0.01157 -0.86744,0.1487 -1.00458,0.35138c-0.09198,-0.51991 0.10464,-1.71284 0.10464,-1.71284c-0.40756,0.88396 -0.19882,2.06699 -0.19882,2.06699l0.00275,-0.00165c0.02974,0.69835 0.98035,1.66383 0.98035,1.66383s0.29135,0.29741 0.49348,0.37616c0.00385,0.00056 0.00716,0 0.01102,0.00056c0.0033,0.31007 0.02533,0.71487 0.1085,0.9462c-0.05397,0.25114 -0.38663,1.16264 -0.77437,1.23975c-2.19752,0.43895 -2.35779,-1.17476 -2.45472,-1.32732c-0.12006,-0.18892 -0.19717,0.01762 -0.19717,0.01762s-0.06113,1.83842 2.58415,1.58618c0.68349,-0.06499 0.97485,-1.23535 0.97485,-1.23535s0.20818,0.61134 1.03762,0.76831c2.56103,0.48412 2.92452,-1.52229 2.91461,-1.69138c-0.00881,-0.08318 -0.09969,-0.12227 -0.09969,-0.12227z" fill="#3C2415"/></g><g elemBBoxHeight="15.96875" yscale="NaN" xscale="2.70624" elemBBoxWidth="142.75391" display="null" shapeVal="0" shapeId="0" lineHeight="1" font-style="normal" font-weight="normal" text-anchor="start" fill="0" font-id="1" font-family="Brush-Script" font-size="8.44132" text="this is back side" type="text" id="svg_7"><path d="m49.80492,209.7887c-0.04567,0.29694 -0.04567,0.61678 -0.04567,0.95941c-1.75895,1.21071 -3.06102,3.2666 -5.68799,3.2666c-2.2615,0 -1.21071,-3.17526 -0.43402,-4.40878c0,0 -1.50766,1.16501 -1.50766,1.16501c0.02286,-0.31979 -0.02285,-0.70815 0.04569,-0.98224c0,0 1.11932,-0.86804 1.11932,-0.86804c0.84521,-0.68533 1.43914,-1.37062 2.03307,-2.28433c-0.84521,-0.04573 -1.39345,-0.0229 -2.17012,0.15988c0.95943,-1.43912 1.50766,-2.92397 4.08895,-2.80975c0.79953,-0.98225 0.95943,-2.01018 2.46707,-2.01018c1.50766,0 0.18276,1.39345 -0.13705,1.89597c0.50255,0.02283 0.91374,0.06856 1.3706,0.13705c-0.57107,0.84521 -0.89088,2.12445 -1.85031,2.53564c-0.34264,0.13704 -0.9594,0.18271 -1.85031,0.18271c-0.95941,1.30211 -2.12442,2.62703 -2.12442,4.2032c0,2.07877 2.53561,0.34267 3.26659,-0.15991c0,0 1.41629,-0.98224 1.41629,-0.98224m6.60173,-3.1981c1.09648,-0.73099 2.2615,-0.66243 2.48993,0.52541c-0.27414,1.50766 -2.23867,2.17012 -2.53562,3.65494c0,0.36549 0.1599,0.52542 0.52539,0.52542c1.27923,0 1.75895,-0.731 2.99249,-1.50766c0,0 -0.02285,0.95941 -0.02285,0.95941c-1.96452,1.43912 -2.94679,2.42139 -4.91131,2.83258c-1.64473,-0.2056 -0.70814,-2.58131 -0.13707,-3.33514c0,0 1.55335,-2.07874 1.55335,-2.07874c-2.03305,1.39345 -3.76914,3.1752 -5.4824,4.91132c-0.11422,0.1142 -0.22844,0.1142 -0.31981,0.1142c-0.84521,-0.20558 -0.7995,-1.09647 -0.7995,-2.42139c0,-3.4265 2.46707,-5.36819 4.08895,-7.46977c1.02795,-1.32489 2.46707,-2.69553 3.60923,-3.60922c0.82236,-0.6853 1.41628,-1.02797 1.75895,-1.02797c0.41117,0 0.84519,0.22845 0.84519,0.6396c0,0.38837 -0.38833,1.09648 -1.14216,2.0788c-2.19296,2.80969 -5.04838,5.68797 -7.60683,8.26927c0,0 -0.02283,0.86806 -0.02283,0.86806c1.64471,-1.30212 3.35797,-2.76408 5.1169,-3.92911c0,0 0,0 0,0m10.09675,3.1981c0,0 -0.02285,0.98224 -0.02285,0.98224c0,0 -2.07874,1.6219 -2.07874,1.6219c-0.70815,0.47968 -1.48481,1.07362 -2.51276,1.11931c-1.85031,0.06854 -2.33003,-2.42139 -1.78179,-4.15747c0.5254,-1.66756 2.12443,-3.90622 4.15748,-3.90622c0.89089,0 1.07364,0.77667 0.52539,1.46196c-0.82235,1.00514 -1.96451,2.05589 -2.87825,2.94678c-0.45686,0.82239 0.1599,1.73608 1.165,1.64476c1.462,-0.15994 2.07875,-0.79955 3.42651,-1.71326c0,0 0,0 0,0m-0.06855,-7.53828c0.41119,0 0.75385,0.34264 0.75385,0.75378c-0.06853,1.02797 -0.77667,1.9417 -1.75894,2.01022c-0.57107,0.04568 -1.00511,-0.43402 -0.95941,-1.02797c0.06854,-0.93652 0.95941,-1.66754 1.96451,-1.73604c0,0 0,0 0,0m8.97746,7.53828c-0.06855,0.52534 0.09138,1.11929 -0.38837,1.27919c0,0 -0.89088,0.66249 -0.89088,0.66249c-1.18786,0.82234 -2.42138,1.91882 -4.29454,1.94165c-1.34776,0.02287 -3.08385,-0.84517 -3.08385,-2.05588c-0.02284,-0.6396 0.57109,-1.14218 1.21069,-1.11932c0.6853,0.02287 1.25639,0.47972 1.66756,0.79953c1.50767,-0.68533 1.87316,-2.28433 1.46197,-4.34023c0,0 -2.80973,2.46707 -2.80973,2.46707c0,0 -1.80461,1.37059 -1.80461,1.37059c0.02285,-0.34265 -0.02283,-0.70816 0.04569,-1.0051c1.57619,-1.18787 3.08385,-2.39854 4.45444,-3.81483c0.3198,-1.09653 0.38833,-1.71326 1.48483,-1.71326c0.61675,0 0.70812,0.22844 0.75381,0.82237c0.06854,0.95938 0.50255,1.599 0.50255,2.58127c0,2.14728 -1.75893,3.15237 -3.03814,4.13464c2.17009,0.27414 3.35795,-1.14215 4.72857,-2.01019c0,0 0,0 0,0m12.95216,0c0,0 -0.02284,0.98224 -0.02284,0.98224c0,0 -2.07874,1.6219 -2.07874,1.6219c-0.70816,0.47968 -1.48483,1.07362 -2.51279,1.11931c-1.8503,0.06854 -2.33001,-2.42139 -1.78178,-4.15747c0.52541,-1.66756 2.12445,-3.90622 4.15751,-3.90622c0.89088,0 1.07364,0.77667 0.52538,1.46196c-0.82234,1.00514 -1.96452,2.05589 -2.87823,2.94678c-0.45689,0.82239 0.15988,1.73608 1.165,1.64476c1.46197,-0.15994 2.07874,-0.79955 3.4265,-1.71326c0,0 0,0 0,0m-0.06853,-7.53828c0.41117,0 0.75382,0.34264 0.75382,0.75378c-0.06852,1.02797 -0.77667,1.9417 -1.75894,2.01022c-0.57107,0.04568 -1.0051,-0.43402 -0.95941,-1.02797c0.06853,-0.93652 0.95941,-1.66754 1.96453,-1.73604c0,0 0,0 0,0m8.97742,7.53828c-0.06853,0.52534 0.09138,1.11929 -0.38833,1.27919c0,0 -0.89089,0.66249 -0.89089,0.66249c-1.18784,0.82234 -2.42139,1.91882 -4.29454,1.94165c-1.34776,0.02287 -3.08385,-0.84517 -3.08385,-2.05588c-0.02285,-0.6396 0.57108,-1.14218 1.21069,-1.11932c0.68531,0.02287 1.25639,0.47972 1.66757,0.79953c1.50767,-0.68533 1.87315,-2.28433 1.46198,-4.34023c0,0 -2.80973,2.46707 -2.80973,2.46707c0,0 -1.80463,1.37059 -1.80463,1.37059c0.02284,-0.34265 -0.02286,-0.70816 0.04567,-1.0051c1.57621,-1.18787 3.08385,-2.39854 4.45444,-3.81483c0.31982,-1.09653 0.38836,-1.71326 1.48483,-1.71326c0.61677,0 0.70815,0.22844 0.75384,0.82237c0.06853,0.95938 0.50255,1.599 0.50255,2.58127c0,2.14728 -1.75893,3.15237 -3.03817,4.13464c2.17013,0.27414 3.35797,-1.14215 4.72857,-2.01019c0,0 0,0 0,0m15.32787,0c0,0 -0.02284,0.95941 -0.02284,0.95941c-1.02795,0.77667 -2.19295,1.32492 -3.9062,0.98227c-1.02795,0.93655 -1.96453,1.85031 -3.40366,1.85031c-1.34776,0 -1.69041,-1.23357 -1.69041,-2.80975c0,-5.43671 3.51788,-8.56622 6.71594,-11.19322c0.77667,-0.6396 1.78178,-1.53049 2.80975,-1.53049c1.0051,0 0.59393,1.48479 0.27409,2.10156c-1.91882,3.65495 -5.18542,6.23622 -7.9723,9.06879c-0.3655,1.07368 0.11422,2.76407 1.39344,2.19299c0.43404,-0.20558 0.79951,-0.61678 1.07362,-1.0508c-0.7995,-1.16504 0.27412,-2.5356 0.9366,-3.22093c0.57108,-0.5939 1.02795,-1.07359 1.9645,-1.07359c0.43404,0 0.66247,0.36546 0.63962,0.82233c-0.09135,1.43912 -0.86805,2.53563 -1.69041,3.72345c0.15991,0.15991 0.34267,0.25131 0.70815,0.22842c0.91373,-0.13704 1.30206,-0.50253 2.17012,-1.05075c0,0 0,0 0,0m-6.46467,-2.90112c2.19298,-1.96451 4.40876,-4.2717 5.77938,-6.99005c-2.35288,2.07875 -4.22602,4.11177 -5.77938,6.99005c0,0 0,0 0,0m17.93201,2.90112c0,0.31981 -0.06853,0.66245 -0.02283,0.95941c-1.25639,0.9594 -2.44424,2.07875 -3.86052,2.87823c-0.93658,0.52541 -1.98738,0.22844 -1.98738,-0.79948c0,-1.07365 0.41119,-1.59904 0.86805,-2.64987c-1.165,0.93661 -2.33003,2.01024 -3.5864,2.80975c-1.82746,1.16501 -3.061,-1.14215 -2.85541,-3.19804c1.11932,-2.42142 4.08895,-3.63213 6.73878,-4.54584c1.39346,-0.47972 2.76405,-0.47972 3.12953,0.75383c-0.02283,0.41119 -0.50255,0.45685 -0.7995,0.5939c0.70814,0.22849 0.7995,1.0051 0.3198,1.6219c-0.61678,0.82236 -1.71326,1.43915 -1.71326,2.67267c0,0.43402 0.3655,0.75385 0.84521,0.66246c1.25639,-0.25127 1.50764,-0.82239 2.92393,-1.75893c0,0 0,0 0,0m-9.63988,0.50256c-0.09138,0.34265 -0.34264,1.3934 0.25129,1.34775c2.28433,-0.75385 4.13463,-2.96962 5.6423,-4.52301c-2.03307,0.61679 -3.97475,1.30208 -5.45956,2.53564c-0.2056,0.20555 -0.36549,0.41115 -0.43402,0.63962c0,0 0,0 0,0m17.86349,-0.50256c0,0 -0.02284,0.98224 -0.02284,0.98224c-1.59904,1.16501 -3.26662,2.78688 -5.80221,2.87827c-2.69551,0.1142 -3.08385,-4.38591 -1.48483,-5.91641c1.41628,-1.37061 3.22092,-3.03816 5.68799,-3.03816c1.6904,0 0.59393,2.37572 0,2.96962c-0.41119,0.41119 -0.77667,0.93658 -1.41629,1.0508c-0.57109,-0.02283 -0.73099,-0.41119 -0.82234,-0.98225c-0.79952,0.54823 -1.62189,1.11931 -2.33003,1.75894c-1.07364,0.95941 -0.13707,2.26147 1.18787,2.26147c2.10156,0 3.63208,-1.07362 5.00269,-1.96451c0,0 0,0 0,0m11.12469,0.02283c-0.04568,0.29698 -0.04568,0.61678 -0.04568,0.95941c-1.50766,1.14215 -2.71835,3.12952 -5.07121,3.12952c-1.71326,0 -2.3757,-1.71323 -3.17523,-2.80969c-0.63962,0.57108 -1.02795,1.39345 -1.57619,2.05589c-1.07364,0.57108 -1.27922,-1.0508 -1.27922,-2.35286c0,-1.11931 0.29695,-1.98737 0.75381,-2.74121c2.19296,-3.65494 5.32249,-6.556 8.77185,-8.95459c0.47969,-0.34264 1.5305,-0.66246 1.5305,0.15993c0,0.41115 -0.43402,1.11931 -1.27924,2.12445c-2.44424,2.83257 -5.57376,5.73363 -8.3378,8.38347c0,0 -0.0457,0.59393 -0.0457,0.59393c0,0 3.81483,-3.06102 3.81483,-3.06102c1.09648,-0.79953 2.46709,-2.05589 3.74631,-2.1701c1.16502,-0.11423 1.6904,1.69043 1.05078,2.69553c-0.89088,1.46194 -2.85541,2.1701 -4.36307,3.08382c0.36549,0.91373 1.57619,1.30209 2.69553,0.70816c1.00508,-0.52539 1.91882,-1.18785 2.80972,-1.80463c0,0 0,0 0,0m-3.28944,-2.42137c-1.50766,0.27409 -2.71835,1.57616 -3.70061,2.35281c0.31979,0.18279 0.61674,0.29698 0.86804,0.52542c1.11931,-0.70813 2.67267,-1.599 3.061,-2.62697c0,-0.18279 -0.06853,-0.25127 -0.22844,-0.25127c0,0 0,0 0,0m18.52594,2.39854c-0.06853,0.52534 0.09137,1.11929 -0.38834,1.27919c0,0 -0.89087,0.66249 -0.89087,0.66249c-1.18788,0.82234 -2.4214,1.91882 -4.29456,1.94165c-1.34776,0.02287 -3.08386,-0.84517 -3.08386,-2.05588c-0.02284,-0.6396 0.57108,-1.14218 1.21069,-1.11932c0.68532,0.02287 1.25639,0.47972 1.66757,0.79953c1.50764,-0.68533 1.87314,-2.28433 1.46196,-4.34023c0,0 -2.80971,2.46707 -2.80971,2.46707c0,0 -1.80463,1.37059 -1.80463,1.37059c0.02284,-0.34265 -0.02286,-0.70816 0.04567,-1.0051c1.57619,-1.18787 3.08385,-2.39854 4.45445,-3.81483c0.31981,-1.09653 0.38834,-1.71326 1.48482,-1.71326c0.61676,0 0.70815,0.22844 0.75383,0.82237c0.06854,0.95938 0.50256,1.599 0.50256,2.58127c0,2.14728 -1.75894,3.15237 -3.03816,4.13464c2.17012,0.27414 3.35796,-1.14215 4.72856,-2.01019c0,0 0,0 0,0m6.60172,0c0,0 -0.02281,0.98224 -0.02281,0.98224c0,0 -2.07877,1.6219 -2.07877,1.6219c-0.70815,0.47968 -1.4848,1.07362 -2.51276,1.11931c-1.85031,0.06854 -2.33003,-2.42139 -1.78178,-4.15747c0.52541,-1.66756 2.12442,-3.90622 4.15749,-3.90622c0.89085,0 1.07362,0.77667 0.52539,1.46196c-0.82236,1.00514 -1.96452,2.05589 -2.87825,2.94678c-0.45688,0.82239 0.1599,1.73608 1.16501,1.64476c1.46194,-0.15994 2.0787,-0.79955 3.42648,-1.71326c0,0 0,0 0,0m-0.06854,-7.53828c0.41119,0 0.75385,0.34264 0.75385,0.75378c-0.06853,1.02797 -0.77667,1.9417 -1.75894,2.01022c-0.57109,0.04568 -1.0051,-0.43402 -0.95941,-1.02797c0.06851,-0.93652 0.95941,-1.66754 1.96451,-1.73604c0,0 0,0 0,0m8.08658,9.43425c1.25636,-0.29692 1.94167,-0.98225 3.40364,-1.89597c-0.04568,0.29694 -0.04568,0.61678 -0.04568,0.95941c-1.53049,1.02795 -2.53561,2.64983 -4.86563,2.80971c-1.41631,0.09138 -1.34775,-2.07875 -1.00513,-3.28943c-1.23352,0.95943 -2.14728,2.44424 -3.9062,2.85544c-0.95941,-0.11421 -1.62184,-1.34776 -1.62184,-2.35289c0,-3.38078 3.03813,-4.54581 5.64227,-5.45953c0.8909,-0.31985 1.30206,-0.0457 1.73608,0.47971c1.11934,-1.89604 2.03305,-4.13464 3.56355,-5.59663c0.63963,-0.59393 1.69043,-0.34265 1.57622,0.52539c-0.25131,1.85031 -2.28433,3.86053 -3.22092,5.39105c-0.77669,1.25636 -2.01021,2.69551 -2.01021,4.31738c0,0.70813 0.1599,1.21071 0.75385,1.25636c0,0 0,0 0,0m-5.82507,-0.61678c1.73608,-0.86804 3.47218,-2.23862 4.36308,-3.99754c-1.39343,0.50252 -2.7869,0.95941 -3.86052,1.80458c-0.59395,0.43402 -0.86806,1.00514 -0.86806,1.71326c0,0.25127 0.13705,0.47971 0.36549,0.47971c0,0 0,0 0,0m17.42949,-1.27919c0,0 -0.04572,0.95941 -0.04572,0.95941c-1.62189,1.16498 -3.03818,2.87823 -5.59665,2.87823c-1.78175,0 -2.51274,-1.0508 -2.6041,-2.85541c-0.15993,-3.17525 3.19806,-6.03065 6.25905,-6.03065c0.79956,0 1.41629,0.31982 1.41629,1.05083c0,2.6498 -3.2666,3.3808 -5.43671,4.22601c-0.22844,1.05077 0.36546,1.71326 1.39345,1.69038c1.94168,-0.02284 3.33514,-1.11932 4.61438,-1.91881c0,0 0,0 0,0m-2.46709,-3.44936c-0.02287,-0.43404 -0.54825,-0.25127 -0.86806,-0.11421c-1.07364,0.50252 -1.9417,1.55333 -2.44424,2.67267c1.14217,-0.43407 2.26147,-1.14218 2.99248,-1.91884c0.2056,-0.25131 0.31982,-0.45686 0.31982,-0.63962c0,0 0,0 0,0" fill="#000000" id="svg_8"/><rect opacity="0" fill="#000000" height="15.96195" width="142.74848" y="198.0523" x="42.125" id="svg_9"/></g></g></svg>