<svg width="156" height="227" xmlns="http://www.w3.org/2000/svg" viewBox="0 0 156 227"><g><title>Layer 1</title><g id="svg_4" display="null"><path fill="#FFFFFF" stroke="#000000" stroke-width="0" stroke-miterlimit="2.6131" d="m72.48318,102.06461c0.22623,-0.28746 -2.89507,-0.69796 -5.13297,-2.48399c-0.98544,-0.78017 -2.46358,-1.00583 -3.18253,-0.47231c-0.69796,0.53354 -2.38136,1.72478 -2.38136,1.72478l0.75977,1.7038c0,0 1.70438,-1.14986 1.90963,-1.25249c0.22565,-0.10262 0.96502,-0.14401 1.35511,0.04082c0.39009,0.18484 3.75687,2.71021 4.06532,3.1003c0.32829,0.39009 0.57436,0.49271 0.71838,0.49271c0.14402,0 0.78017,-0.39008 0.8828,-0.24606c-0.0006,0 0.14344,-1.51896 1.00584,-2.6076l0,0l0.00001,0.00002zm-0.57494,0.78017c-0.57493,0.18484 -0.67755,0.842 -0.94461,1.31371c-0.14402,0.22623 -0.4519,0.20583 -0.65714,0c-0.02041,-0.02041 -0.10263,-0.02041 -0.14403,0c-0.12303,0.08221 -0.20525,0.28746 -0.30788,0.28746c-0.10262,0 -0.26705,-0.18484 -0.39009,-0.26705c-0.10262,-0.06123 0,0 -0.28688,-0.20525c0.18427,-0.30788 0.4105,-0.57494 0.51311,-0.94463c0.12303,-0.47231 -0.14402,-0.92361 0.14404,-1.35511c0.32828,-0.45131 0.90321,-0.36967 1.35511,-0.12302c0.06123,0.02041 0.14402,0 0.20525,0c-0.24607,-0.0414 -0.49272,0.06123 -0.69797,0.16385c-0.28747,0.10263 -0.32829,0.39009 -0.36968,0.65715c-0.04082,0.39009 0.24665,0.90321 -0.08221,1.21167c0.22565,-0.0414 0.4309,0.12302 0.65656,0c0.51312,-0.30788 0.39009,-0.63674 0.59534,-1.08807c0.10262,-0.18484 0.53412,0 0.78018,-0.02039c-0.08163,0.14402 -0.24606,0.32886 -0.3691,0.36967l0,0l0,0.00001zm-2.36153,-1.97086c-0.51311,0.22565 -0.69796,0.80059 -0.84199,1.2933c-0.10262,0.43091 -0.02041,0.8828 -0.08221,1.31371c-0.06181,-0.02099 -0.06181,-0.12303 -0.08221,-0.12303c-0.18427,-0.06181 -0.22566,-0.28746 -0.43091,-0.30787c-0.0414,-0.73936 0.08221,-1.47814 0.45132,-2.11488c0.08221,-0.12302 0.24664,-0.26706 0.41108,-0.24606c0.18484,0.04082 0.36968,0.14402 0.57494,0.18484l0,0l-0.00002,-0.00001zm-3.77785,0.47231c0,-0.06123 0.02099,-0.12302 -0.02041,-0.18484c-0.12303,-0.20525 -0.30788,-0.36968 -0.43092,-0.57493c-0.14344,-0.28747 -0.22565,-0.61575 -0.39009,-0.90321c-0.08221,-0.14403 -0.24664,-0.08221 -0.36967,0c-0.08221,0.06122 -0.10263,0.18484 -0.04082,0.26705c0.24606,0.26706 0.43091,0.61575 0.41048,0.96502c-0.02039,0.08222 -0.12302,0.16444 -0.22565,0.20525c-0.12303,0.06123 -0.18484,-0.06123 -0.24606,-0.10262c-0.22565,-0.28747 -0.36967,-0.61633 -0.4933,-0.94461c-0.06123,-0.16444 -0.24607,-0.39009 -0.3691,-0.26706c-0.18484,0.18484 0.28746,0.63615 -0.02041,0.71837c-0.18484,0.04082 -0.43091,-0.12303 -0.59534,0.06123c0.16443,0.12303 0.34927,0.14403 0.49271,0.26706c0.06181,0.04082 0.14402,0.14344 0.0414,0.14344c-0.51312,0.02099 -1.02682,0.06181 -1.47872,0.32828c-0.04082,0 -0.06123,0.08221 -0.04082,0.12304c0.16443,0.34927 0.30787,0.69796 0.47231,1.06764c0,0.02041 0.06123,0.06123 0.08221,0.04082c0.12303,-0.14403 0.24665,-0.26706 0.41108,-0.34927c0.22566,-0.10262 0.45132,-0.22565 0.65657,-0.39009c0.24606,-0.20525 0.49272,-0.36968 0.75977,-0.45132c0.4105,-0.10262 0.8828,-0.28746 1.39593,-0.08221c-0.00117,0.00117 -0.00117,0.04198 -0.00117,0.06297l0,0l0,-0.00002zm4.8251,33.52731c0.08221,-0.30788 0.20525,-0.94461 0.24606,-1.23209c0.02042,-0.2863 -0.10262,-0.65657 0.20525,-0.8204c0.32829,-0.18427 0.22624,0.28688 0.36968,0.28688c0.14402,0 0.28747,-0.08221 0.28747,-0.08221c0.04081,-0.12361 1.12946,-0.98485 0.92361,-0.82158c0,0 3.05891,-3.01752 4.45542,-3.53122c0,0 -0.14404,-2.13528 0,-2.91547c0.14403,-0.78017 0.57493,-1.29388 0.98543,-1.41692c0.43091,-0.14344 0.94461,-0.37027 2.01225,-1.49855c0,0 1.31371,3.87991 4.47641,7.04259c0.36909,0.36969 0.8624,3.28456 0.8,4.28984c-0.08279,0.98541 0,3.20293 -0.43091,3.92247c-0.43032,0.69795 -0.43032,0.63673 -0.43032,0.63673c-0.43091,0.49271 -0.90438,-0.34985 -1.56036,1.642c-0.14461,0.43088 -0.71837,1.49796 0.49271,1.49796s1.99126,-0.36967 2.5662,-0.71777c0.57434,-0.34929 0.63673,-1.15045 0.34868,-1.41693c0,0 0.28806,-0.08278 0.22682,-0.28688c-0.08221,-0.22682 -0.37025,-0.65715 -0.08221,-0.8624c0.28688,-0.20583 0.63616,-0.34927 1.00584,0.06064l0.20525,-0.20525c0,0 -0.43032,-1.06764 -0.20525,-4.20935c0.20525,-3.14229 0.28688,-4.76271 0.06122,-4.84608c-0.20641,-0.06065 -1.7038,-1.84782 -1.64198,-2.56561c0.08221,-0.71837 0.71838,-2.56619 1.08746,-3.20294c0.34927,-0.63731 0.69797,-2.85365 0.26706,-4.00293c0,0 1.86823,1.72479 2.70963,3.14171c0.8624,1.43732 0.96444,1.93004 1.06823,2.85424c0.08221,0.57377 -0.55452,2.77145 1.14928,3.98312c1.70497,1.21109 0.98543,0.45131 1.15044,0.71779c0.34985,0.63673 0.4105,0.71779 0.4105,1.15044c0,0 1.12945,-1.51895 -0.14346,-2.79243c-0.34927,-0.34984 0,-0.98483 0,-0.98483s0.0828,0.14344 0,-0.22623c-0.06064,-0.34928 -0.34927,-1.06765 -1.12944,-1.70439c-0.78136,-0.63673 -0.92479,-1.3551 -1.15104,-2.13529c-0.20583,-0.78017 -1.807,-3.75687 -3.40816,-5.50207c-0.92421,-0.98544 -2.93587,-2.91663 -4.28983,-5.83093c-1.35512,-2.93587 -0.63733,-6.01578 -0.28806,-7.26826c0.14344,-0.51312 1.29388,-2.50438 1.86882,-3.36678c0.55394,-0.84199 0.78018,-1.21167 0.78018,-1.21167l0,-0.34869l0.34868,-0.34927l-0.14343,-0.4309l0.28804,-0.28747l0,-0.43091l0.28688,-0.20583l-0.06181,-0.51312l0.28748,-0.43149l0,-0.55453l0.20641,-0.51312l-0.20641,-0.49271l0.20641,-0.34927l-0.20641,-0.36967l0.12362,-0.49272l-0.20583,-0.43149l0.14344,-0.57434l-0.34986,-0.26648l0.06123,-0.51312l-0.43091,-0.34927l0,-0.4315l-0.43034,-0.34927l0.14346,-0.57493l-0.49272,-0.28748l0,-0.57493l-0.49329,-0.28746l-0.08221,-0.49271l-0.43091,-0.14404l-0.12186,-0.57318l-0.51369,0l-0.14346,-0.41108l-0.43032,-0.08221l-0.26764,-0.34869c0,0 -0.57435,-0.14402 -1.78602,-0.14402s-1.06764,0.47231 -1.06764,0.47231s-3.0799,1.43732 -3.63383,1.95045c-0.57494,0.49271 -3.22392,1.64257 -3.65483,1.99184c-0.4105,0.34927 -0.92362,0.43091 -0.78018,1.2933c0,0 -0.34869,0.842 0.28746,1.3347c0,0 0.36969,0.71837 0.92363,0.65714c0,0 0.36967,1.19068 1.21166,-0.22565c0.22566,-0.34927 2.07348,-0.20583 2.42275,0.08221c0.36968,0.28747 0.94403,0.63615 0.28747,1.2729c-0.63615,0.65714 -3.26474,2.50497 -3.48981,4.14697c0,0 -2.34055,1.84782 -2.42275,4.33239c0,0 -4.84551,1.14986 -5.56388,1.43732c-0.69796,0.28746 -1.70438,0.28746 -1.70438,3.28515c0,2.97669 0.57493,6.26242 0.57493,6.26242c0.06181,0.8624 0.63673,2.85425 0.63673,2.85425s1.99184,-0.34985 1.93005,-1.93063c-0.08221,-1.56094 -0.22565,-1.21166 -0.57494,-1.49855c-0.34927,-0.26647 -0.28746,-0.55394 -0.28746,-0.55394s-0.63673,-0.22623 -0.49271,-0.71779c0.14403,-0.49329 0.43149,-0.20641 0.43149,0c0,0 0.20525,-0.92361 -0.28746,-1.15044c-0.51312,-0.20525 -0.22566,-2.2793 -0.08221,-3.12128c0.14344,-0.8624 1.14986,-1.14986 2.07349,-1.14986s2.62801,0.34927 3.77785,-0.06065c0.92362,-0.34927 1.06764,0.92361 1.06764,1.2729c0,0.34927 0.57435,1.21167 0.78018,1.78602c0.22565,0.57494 1.00642,3.63383 3.07932,6.05659c0,0 -0.39009,0.18425 -1.08805,0.47289c-2.34054,0.94403 -1.90905,1.58076 -1.90905,2.66824c0,0.69797 -0.10262,1.19127 0.14404,2.93587c0.10262,0.73936 0.45131,1.86823 0.55452,2.2589c0.18484,0.63615 0.22624,1.35453 -0.69796,2.13471c-1.43733,1.21164 -3.28516,2.50555 -3.57262,2.85423c-0.28688,0.37027 -0.34869,0.78017 -0.71837,1.15103c-0.20525,0.20467 -0.57435,0.32828 -0.78018,0.34868c-0.63615,0.08281 -0.53352,0.32828 -0.92361,1.49857c-0.20583,0.63673 -0.49271,1.58134 -0.49271,1.58134s2.91313,0.63324 3.34404,-0.94754l0,0l0,-0.00005zm10.0193,-46.97519c0,0 -0.47231,-1.82742 -1.4175,-2.23792c-0.65598,-0.28746 -0.55394,0.14403 -0.47173,0.39009c0.10262,0.30788 0,1.21167 0.80059,2.52538c0.24664,0.4315 0.69797,-0.14344 0.69797,-0.26647c0.00058,-0.14402 -0.04024,-0.55511 0.39067,-0.41108l0,0zm3.67581,1.93004l0.26648,-0.43149l-0.12303,-0.57435l-0.5137,0l-0.14345,-0.41108l-0.43032,-0.08221l-0.49388,-0.34927c0,0 -0.14286,0.92361 -0.20583,1.35511c-0.08221,0.41108 -0.5137,0.41108 -0.5137,0.41108s-0.14344,0.36909 -0.40991,0.71837c-0.28747,0.36968 -0.80059,0.36968 -1.21109,0.36968c-0.4309,0 -0.8624,0.06123 -1.00642,0.4105c-0.14344,0.36967 -0.92362,0.28746 -1.49914,0.22623c-0.57494,-0.08221 -0.78017,-0.36967 -1.21108,-0.14403c-0.43149,0.20525 -1.93004,0.78018 -2.85424,0.98543c-0.92362,0.22624 0.49271,0.08221 0.49271,0.08221s0.8624,-0.34927 1.21108,-0.34927c0.36968,0 0.71837,-0.36968 1.43732,-0.28746c0.71838,0.06181 1.12946,0.43149 1.7038,0.34927c0.57434,-0.06123 1.00642,-0.63615 1.35452,-0.63615c0.37027,0 1.35511,0.20525 1.93062,0c0.57494,-0.22623 1.13004,-1.00642 1.35512,-1.21167c0.207,-0.22565 0.86414,-0.43091 0.86414,-0.43091l0,0zm-4.49623,0.78018c0,0 -0.8624,-0.28805 -1.29446,-0.43149c-0.34927,-0.12305 -0.69796,0.65714 -1.41634,0.92419c0,0 0.78018,0.08221 1.35511,0.28746c0.53353,0.20467 1.2729,-0.34927 1.35569,-0.78017l0,0zm-1.58193,-0.14404c0,0 1.19068,0.36968 -0.10262,0.78018c0,0 0.4315,-0.30788 0.10262,-0.78018l0,0zm1.19126,0.36968c0,0 0.06123,0.55452 -1.29388,0.4105c0,0 0.9242,-0.02041 1.29388,-0.4105l0,0zm0.8414,-1.88922l-1.74519,1.23149c0,0 0.842,-0.10262 0.90379,0.0414c0.14345,0.32829 0.20525,0 0.39067,0.04082c0.16327,0.04082 0.34869,0.10263 0.49213,-0.10262c0.14462,-0.22565 0.1242,-0.16443 0.18484,-0.28746c0.04082,-0.08163 -0.22624,-0.92361 -0.22624,-0.92361l0,0l0,-0.00002zm0.47289,5.81052c0.28689,-0.8624 1.60117,-1.78602 1.8484,-2.01167c0.24606,-0.20525 0.7178,-0.06181 0.90321,-0.10262c0.16386,-0.04082 0.38951,-0.14404 0.88338,-0.28748c0.49272,-0.14402 1.31371,0.04082 1.56036,0.04082c0.26647,0 0.43032,-0.28746 0.43032,-0.28746l-0.43032,-0.34927l0.14342,-0.57493l-0.49271,-0.28747l-0.0414,-0.20525c0,0 -0.55394,0.41109 -0.88339,0.41109c-0.32828,0 -0.63557,0.14344 -0.63557,0.14344s-0.04082,0.36967 -0.47346,0.36967c-0.63615,0 -1.4175,0.57493 -1.64141,0.63673c-0.20641,0.06123 -0.49388,0.14403 -0.73994,0.18484c-0.24665,0.02041 -0.22624,-0.14403 -0.67756,-0.18484c-0.47346,-0.04082 -1.06764,-0.04082 -1.45773,-0.04082s-0.82099,0.18484 -1.53995,0.08221c-0.71837,-0.10262 -1.31371,0.06181 -1.41634,0.14403c-0.12303,0.06123 -0.8624,0.16443 -0.8624,0.16443c0.45132,0.12304 1.66299,1.06765 1.93004,1.25249c0.24607,0.18426 0.45132,0.28747 0.45132,0.47231c0,0.16444 -0.24606,0.49271 -0.49271,0.45132c-0.24606,-0.02042 -1.35511,-0.14344 -2.07348,0c-0.71838,0.14403 -0.9242,1.10905 -0.9242,1.10905c0.28746,-0.18484 0.61633,-0.67756 0.61633,-0.67756c0.8828,-0.28746 1.84782,0 2.29971,0.18484c0.47231,0.16443 0.51312,0.57494 0.61575,0.73936c0.10263,0.18484 2.17669,0 2.32014,-0.39009c0.14402,-0.39008 0.53411,-0.53411 0.84198,-0.49271c0.47231,0.04082 0.8624,-0.08221 1.14986,-0.22623c0.28748,-0.14404 0.39009,-0.24665 0.78018,-0.34927c0.34985,-0.10262 0.8624,0.18484 1.10846,0c0.28747,-0.20525 0.34928,-0.24606 0.61692,-0.24606c0.24606,0 0.24606,-0.04082 0.63673,0.14402c0.3895,0.18427 2.05308,0.10262 2.05308,0.10262l-0.20583,-0.43149l0.14345,-0.57435l-0.34986,-0.26705l0.06123,-0.51312l-0.20525,-0.10263c0,0 -0.5137,0.18484 -1.06823,0.28748c-0.61575,0.10262 -1.2933,0.49271 -1.62158,0.71837c-0.30729,0.20525 -1.16969,0.14344 -1.37493,0.20525c-0.14345,0.04082 -0.18427,0.47231 -0.57436,0.47231c-0.5137,0 -0.61632,0.14402 -0.78017,0.16443c-0.18426,0.04082 -1.25248,0.28747 -1.25248,0.28747c-0.38951,0.08221 -1.02625,0.10262 -1.45773,0.04082c0,0 0.73936,-0.92362 0.82099,-1.10846c0.06181,-0.18484 0.04082,-0.28748 -0.14344,-0.30788c-0.18427,-0.04082 -1.41634,-0.63615 -1.80643,-0.59534c0,0 0.34927,-0.24606 0.51312,-0.22565c0.18484,0.04082 0.92362,-0.10263 1.19068,-0.02041c0.67814,0.16385 1.10905,0.47231 1.31371,0.55393c0.18484,0.06123 0.30788,0 0.4519,0c0,0 -0.24664,0.55453 -0.69796,1.08864c-0.32829,0.38951 -0.59534,0.61575 -0.59534,0.61575s1.21108,-0.16676 1.23149,-0.20758l0,0l-0.00002,-0.00003zm-5.60587,0.36968c-0.26706,0.02041 -0.47231,0.08221 -0.53353,0.18484c-0.84199,1.41633 -1.21167,0.22565 -1.21167,0.22565c-0.55394,0.06123 -0.92361,-0.65715 -0.92361,-0.65715c-0.63615,-0.49271 -0.28746,-1.33469 -0.28746,-1.33469c-0.14346,-0.8624 0.36967,-0.94461 0.78017,-1.2933c0.43091,-0.34927 3.07932,-1.49855 3.65483,-1.99185c0.55394,-0.51311 3.34637,-1.84782 3.34637,-1.84782s-2.75103,1.66299 -3.14111,2.1971c0,0 -0.67757,0.32829 -0.88281,0.49271c-0.22623,0.18484 -1.53995,0.57493 -1.78601,0.71838s-0.78017,0.49271 -0.78017,0.49271s0.63673,0 0.59534,1.00584c0,0 0.39008,-0.24607 0.96502,-0.24607c0.57493,0 1.56036,1.10847 2.23792,1.16969c0,0 -0.8828,0.0828 -1.06765,0.0414c-0.16444,-0.0414 -0.53411,-0.32829 -0.8828,-0.28747c-0.36967,0.04082 -0.965,0.82158 -0.36967,0.8624c0.61575,0.021 0.28688,0.26765 0.28688,0.26765l0,0l-0.00002,0zm-1.62157,-0.98544c-0.14404,0.08221 -0.75977,0.57493 -0.22566,0.73936c0.22566,0.08221 0.18427,-0.24606 0.14345,-0.38951c-0.0414,-0.14462 0.08221,-0.34985 0.08221,-0.34985l0,0zm8.64261,-4.59944c0,0 0.20641,-2.95628 -0.98426,-4.06532c-0.8624,-0.78017 -0.9242,-0.08221 -0.9242,0.36967c0,0.49271 -0.39009,2.46416 0.34985,4.3318c0.28688,0.71837 0.71779,0 0.78017,-0.20525c0.08105,-0.22507 0.22507,-0.86182 0.77843,-0.43091l0,0l0,0.00001zm-1.90846,-3.9213c0.28746,0.28747 1.27347,1.2933 1.41692,3.63383m5.41985,6.44727c0,0 -1.10729,-0.20583 -1.68281,0.08221c-0.55394,0.28747 -1.13004,0.14403 -1.35452,-0.04081c-0.20642,-0.18484 -0.78076,-0.10263 -0.98543,-0.04082c0,0 0.28746,0.41049 0.34927,0.53411c0.08221,0.14344 1.3551,1.04665 1.84782,1.00584c0.51428,-0.04082 1.58134,-0.10262 1.7242,0.08221l0.04082,-0.4315l0.20583,-0.51311l-0.20583,-0.49271l0.06065,-0.18542l0,0zm-4.02393,0c-0.32829,-0.02099 -0.71838,0.04082 -1.04781,0.14344c-0.30729,0.12303 -0.73936,0.18484 -0.92362,0.14403c-0.16385,-0.02041 -0.28688,-0.02041 -0.43091,-0.06123c-0.12303,-0.04082 -0.63731,-0.08221 -0.80058,0c-0.18484,0.06123 -1.78602,0.39009 -2.21751,0.20525c0,0 -0.10262,0.24607 -0.22565,0.39009c-0.10263,0.14403 0.4105,0.12303 0.67754,0.14403c0.28748,0.04082 1.19068,0.51312 1.97086,0.14402c0.78018,-0.34927 0.88339,-0.39009 1.06823,-0.39009c0.18368,0 1.2105,0.10263 1.49796,-0.24664s0.43149,-0.47289 0.43149,-0.47289l0,0l-0.00001,-0.00001zm3.44958,2.89506c0,0 -0.82158,-0.04082 -1.10846,-0.10262c-0.28746,-0.08221 -0.55394,-0.39008 -1.13004,-0.28746c-0.57376,0.10262 -1.35394,-0.34927 -1.53995,-0.53412c0,0 -0.10263,0.821 0.08221,0.92362c0.16502,0.10262 0.41108,0.08221 0.55452,0.20525c0.20583,0.20583 0.43092,0.04082 0.67755,0.12302c0.26648,0.06181 1.828,1.37553 1.86824,1.64259l0.10321,-0.12303l0,-0.34869l0.34868,-0.34927l-0.14342,-0.4309l0.28804,-0.28747l0,-0.43092l-0.00058,0l0.00001,-0.00001zm-4.02451,-1.31429c0,0 -0.73936,0.98544 -1.02682,1.06765c-0.28688,0.06181 -1.00642,-0.14344 -1.2519,-0.14344s-0.53413,0.06123 -0.88339,0.14344c-0.36909,0.06181 -1.00584,-0.14344 -1.23149,-0.14344c-0.20525,0 -0.55394,0.18484 -0.69796,0.18484s-0.32829,-0.0414 -0.53412,0c-0.22565,0.02041 -0.51311,0.02041 -0.61633,0.06123c-0.10262,0.04082 -0.39009,-0.04082 -0.57494,0c-0.16443,0.04082 -0.45131,0.08221 -0.45131,0.08221s1.99184,-1.72479 2.09389,-1.86823c0,0 1.25249,0.90321 1.60176,0.90321c0.36909,0 1.62216,0.02041 1.74519,-0.12303c0,0 1.49797,0.12303 1.82742,-0.16444l0,0l0.00001,0zm3.18253,3.69566c0,0 -0.18484,-0.28747 -0.65714,-0.30788c-0.45132,-0.0414 -0.59534,-0.28748 -0.67697,-0.39009c-0.06123,-0.12303 -0.4519,-0.3895 -1.02682,-0.36909l-0.18484,-0.10263c0,0 0.08221,-0.24664 -0.43033,-0.14402c-0.49329,0.10262 -1.27406,-0.06123 -1.35509,-0.18484c-0.06123,-0.10262 -0.14344,-0.18426 -0.39009,-0.12303c-0.16385,0.02041 -0.0828,-0.22565 -0.20583,-0.26705c-0.24665,-0.06181 -0.47289,0.08221 -0.63673,0.08221c-0.18427,0 -0.51371,-0.36968 -0.78077,-0.39009c-0.28746,-0.04082 -0.77959,0.18484 -1.23149,0.06123c-0.26705,-0.06123 -0.45132,-0.20525 -0.69796,-0.06123c-0.24607,0.14403 -0.71838,0.02041 -0.90321,0c-0.16444,-0.04082 -0.24665,-0.32829 -0.24665,-0.32829s-0.92361,-0.06122 -1.02625,0.08222c-0.10262,0.14402 -0.92361,1.02625 -1.14986,1.56036c0,0 0.75977,-0.47231 1.10846,-0.49271c0.34927,-0.0414 0.78018,-0.18484 1.02682,-0.12303c0.26706,0.08221 0.51311,0.14402 0.67756,0.12303c0.18484,-0.0414 0.53411,-0.14403 0.67755,-0.08221c0.14403,0.08221 0.53352,0.04082 0.67756,0.04082c0.14402,0 0.51311,-0.10263 0.67755,0.0414c0.18484,0.14344 1.33469,0.16444 1.54053,0.20525c0.20525,0.04082 0.18368,0.18484 0.28688,0.24665c0.10262,0.08221 1.39651,-0.14402 1.68339,0c0.26764,0.14344 0.26764,0.67756 0.73994,0.82099c0.47348,0.14403 0.32829,0.22565 0.39008,0.36969c0.0834,0.12303 0.10379,0.34927 0.4315,0.49271s0.59534,0.71838 0.59534,0.92362c-0.00116,-0.00058 1.00409,-1.45831 1.08689,-1.68397l0,0l-0.00001,-0.00002zm-1.10846,1.58076c-0.28688,0.02042 -1.43732,0.06181 -1.68398,0c-0.24607,-0.08221 -0.28629,-0.32829 -0.45132,-0.36969c-0.18367,-0.0204 -0.57376,0.06123 -0.7178,0c-0.24664,-0.06122 -0.24664,-0.26704 -0.4309,-0.30787c-0.18426,-0.04082 -0.43031,-0.06123 -0.49271,-0.14344c-0.12361,-0.10262 -0.0414,-0.28746 -0.32829,-0.39009c-0.20583,-0.08221 -0.53411,-0.24606 -0.63673,-0.28746c-0.10262,-0.0414 0.14344,0.04082 0,0c-0.14344,-0.04082 -0.96502,-0.22565 -1.88923,-0.22565c-0.18425,0 -0.28746,-0.24664 -0.28746,-0.24664c-0.18484,-0.14403 -0.18484,-0.10263 -0.49271,-0.02042c-0.32829,0.06123 -0.9038,-0.12303 -1.04723,-0.08221c-0.14404,0.04082 -0.20525,-0.14402 -0.4315,-0.24664c-0.16443,-0.08222 -0.53411,-0.06123 -0.92362,-0.10263c-0.30787,-0.0414 -0.63673,-0.14344 -0.78017,0.14345l-0.14344,0.53411c0,0 -0.28747,0.28747 0.36909,0.16444c0.63674,-0.10263 2.42276,-0.20525 2.5872,-0.02042c0.18484,0.16444 0.36967,0.53412 0.57493,0.63674c0,0 -0.41108,-0.12305 -1.00642,0.10262c-0.16443,0.08221 -0.10263,-0.06123 -0.20525,-0.06123s-0.63674,-0.24606 -1.21167,0c-0.24607,0.10262 -0.75977,-0.06123 -0.82158,-0.14402c-0.14344,-0.18484 -0.28688,-0.67756 -0.28688,-0.67756l0,0c0,0 -1.56036,1.31429 -1.64259,1.95045c-0.06123,0.61575 0.0414,0.32829 0.32829,0.28747c0.28747,-0.04082 0.47231,-0.49271 0.71837,-0.57493c0.78018,-0.24665 1.23208,0.06123 1.51896,0c0.22565,-0.02041 0.24606,-0.06181 0.47231,-0.10263c0.14402,-0.0204 0.20525,-0.24606 0.34927,-0.24606c0.34927,0 1.10846,0 1.3551,-0.04082c0.24606,-0.0414 0.18484,-0.28746 0.39008,-0.28746c0.22624,0 0.61575,0.04082 0.821,0.14402c0.22624,0.10262 1.58135,0.08222 2.13528,0.14403c0.57436,0.08221 0.43091,0.32829 0.61633,0.32829c0.18427,0 0.24665,-0.08221 0.43091,0c0.16386,0.06181 0.78018,0.49271 0.82099,0.67756c0.02041,0.16443 -0.08221,0.34869 0.39009,0.53411c0.45132,0.18484 0.59534,0.49271 0.67697,0.71837c0.06181,0.20583 0.14462,0.80117 0.14462,0.80117s0.78017,-1.88863 0.98483,-2.05307c0.22682,-0.18658 0.22682,-0.53586 0.22682,-0.53586l0,0l0.00002,-0.00002zm-8.25368,1.04723c0.04082,0 -0.04082,-0.08221 -0.02041,-0.12303c0.53411,-0.45132 1.27289,-0.45132 1.90905,-0.36968c0.32828,0.0414 0.73936,0.24665 1.06822,0.32829c0.47289,0.10263 1.08747,0.08221 1.51896,0.28806c0.30729,0.12303 0.14344,0.49271 -0.10379,0.65656c-0.04023,0.02042 0.1242,0.26706 0.18542,0.28747c0.30729,0.16385 0.80059,0 0.8828,0.43091c0.51369,0.06123 1.02682,-0.02041 1.54053,0c0.0828,0 -0.0204,0.24606 -0.0414,0.34927c-0.08221,0.20525 -0.02042,0.4309 -0.16386,0.61575c0,-0.16444 -0.14345,-0.16444 -0.22565,-0.20525c-0.34985,-0.16444 -0.73994,0.10262 -1.04781,-0.10263c-0.10262,-0.04082 -0.08222,-0.22565 -0.12304,-0.24606c-0.61632,-0.18484 -1.27289,0.06123 -1.88805,-0.10262c-0.10321,-0.04082 -0.04082,-0.24607 -0.0828,-0.28747c-0.47347,-0.28746 -1.00642,-0.39009 -1.49914,-0.59534c-0.10262,-0.06181 -0.26706,-0.08221 -0.36967,-0.12303c-0.24607,-0.12302 -0.49272,-0.30788 -0.73936,-0.36967c-0.28747,-0.08221 -0.65656,-0.08221 -0.90321,0.16444c-0.08221,0.06122 0.12303,0.22565 0.04082,0.26705c-0.36968,0.24665 -0.84142,0.02041 -1.21109,0.24665c-0.10262,0.06123 -0.18484,0.12303 -0.26705,0.14344c-0.45132,0.18484 -0.92362,0.39009 -1.04665,0.8828c-0.04082,0.22565 0.06123,0.4315 0,0.63673c-0.04082,0.26706 -0.28746,0.34927 -0.45132,0.53412c-0.34927,0.34927 -0.18484,0.90321 -0.0414,1.31371c0.10262,0.28747 0.4519,0.43149 0.75977,0.28747c0.08163,-0.04082 0.22565,-0.36968 0.34869,-0.47231c0.08221,-0.06123 0.30788,-0.20525 0.4105,-0.24607c0.32828,-0.18484 0.41048,-0.12303 0.75977,-0.24664c0.08221,-0.02042 0.12302,-0.10263 0.18484,-0.12303c0.08221,-0.02041 0.16443,0.0204 0.22623,-0.02041c0.41049,-0.18484 0.8414,-0.18484 1.23207,0.08221c0.06123,0.04082 0.02042,0.26705 -0.06181,0.30787c-0.59534,0.20525 -0.75977,0.08222 -1.31371,0.38951c-0.32829,0.18484 -0.4519,0.55452 -0.80117,0.71837c-0.28689,0.12303 -0.69797,0.04082 -1.02625,0.10263c-0.08221,0.0204 -0.63673,0.22623 -0.69797,0.30787c-0.12303,0.14404 -0.22565,0.28748 -0.41049,0.34869c-0.02042,-0.24606 -0.10263,-0.49271 -0.20525,-0.69796c-0.06123,-0.12303 -0.26705,-0.18484 -0.34927,-0.34927c-0.04082,-0.10262 -0.08221,-0.24606 -0.02041,-0.36967c0.02041,-0.08221 0.02041,-0.16444 0.06123,-0.22565c0.10262,-0.18484 -0.02041,-0.34927 -0.12303,-0.53411c-0.02099,0 -0.06181,0 -0.10262,0c0.12303,-0.02041 0.16443,-0.14403 0.22565,-0.22565c0.10262,-0.14402 0.02041,-0.39009 -0.18484,-0.4519c0.10262,-0.12303 0.26706,-0.18484 0.30787,-0.34927c0.02042,-0.12303 -0.08221,-0.28748 -0.04081,-0.32829c0.18484,-0.24606 0.36967,-0.53412 0.24606,-0.75977c-0.12303,-0.26706 -0.55452,-0.16443 -0.84199,-0.24606c-0.14344,-0.04082 -0.30788,-0.08221 -0.47231,-0.06181c0.06123,-0.22565 0.18484,-0.45131 0.14403,-0.71837c0.02042,0.22623 0.18484,0.32887 0.36968,0.34927c0.26705,0.04082 0.51312,0.08221 0.78018,-0.02041c0.26705,-0.10262 0.55452,0.12303 0.86239,0.04082c-0.02098,0 -0.0414,0 -0.0414,0c0.20583,-0.10262 0.24665,-0.39008 0.49271,-0.43149c0.30788,-0.04082 0.61633,-0.02041 0.92362,-0.08221c0.04082,-0.021 0.12303,-0.0414 0.14402,-0.10262c0.10262,-0.16386 0.12304,-0.34869 0.32829,-0.3691c0.30788,-0.04082 0.57494,-0.10262 0.8624,-0.18484l0.10321,0.06181l0,0l0.00001,-0.00005zm4.45483,2.64841c-0.18369,0.18484 -0.47231,0.18484 -0.71779,0.14404c-0.24606,-0.02042 -0.5137,-0.08221 -0.73994,-0.20525c-0.20583,-0.14402 -0.43091,-0.24664 -0.65657,-0.32828c-0.28746,-0.08221 -0.57493,-0.16443 -0.8828,-0.12303c-0.26706,0.04082 -0.51312,0.18484 -0.78018,0.20525c-0.73936,0.08221 -1.39651,0.24665 -2.15569,0.10263c-0.10262,-0.02042 -0.08221,-0.32829 -0.34927,-0.18484c-0.24664,0.12303 -0.10262,0.53411 -0.04081,0.80058c0.06123,0.26706 0.36909,0.30788 0.61575,0.24665c1.06764,-0.36968 2.1557,-0.20525 3.24374,-0.30788c0.55453,0.34927 1.21167,0.22565 1.82742,0.20525c0.28746,0 0.8414,-0.12303 0.69796,-0.55452c0,-0.021 -0.04082,-0.021 -0.06181,-0.00059l0,0l0,-0.00002zm-8.76682,-3.20293c0.0414,-0.08222 0.10263,-0.20525 0.20583,-0.14403c0.49271,0.30788 1.04665,0.02041 1.58076,0.20525c0.24607,0.10262 0.49271,-0.06123 0.73936,-0.12304c0.16444,-0.06181 0.30788,-0.24664 0.49271,-0.22623c0.04082,0.02039 -0.021,0.12302 -0.0414,0.14402c-0.32829,0.32829 -0.71837,0.59534 -1.10847,0.80116c-0.36968,0.16444 -0.82157,-0.02041 -1.27289,0.08221c-0.12304,0.02041 -0.22565,0.04082 -0.30788,0.02041c0,0.04082 0,0.06181 -0.02041,0.08222c0,0.0204 -0.06122,-0.0414 -0.06122,0.04081c0.0204,0.06123 -0.4315,0.28747 -0.63674,0.12304c-0.02041,-0.021 -0.02041,-0.12304 0,-0.16444c0.20525,-0.32887 0.22565,-0.71838 0.53411,-0.96503l-0.10379,0.12363l0,0l0.00003,0.00001zm11.10793,3.12071c-0.12304,0.04082 -0.24607,0.06123 -0.34927,0.16444c-0.16326,0.16385 -0.4105,0 -0.55394,0.14343c-0.06123,0.0414 -0.12362,0.12304 -0.18426,0.16444c-0.22682,0.26706 -0.5137,0.4519 -0.78018,0.67756c-0.71837,0.65714 -1.68456,0.12303 -2.58777,0.30787c-0.30787,0.08221 -0.49271,0.32829 -0.73936,0.49271c-0.20525,0.12303 -0.47231,0.02041 -0.65656,0.16444c-0.12303,0.10262 -0.20525,0.26705 -0.32829,0.36968c-0.16443,0.16385 -0.45132,0.06122 -0.65656,0.22565c-0.18484,0.16444 -0.26707,0.41109 -0.4315,0.59534c-0.18484,0.20525 -0.43091,0.28747 -0.71837,0.26705c-0.47231,-0.06123 -0.92362,-0.26705 -1.41634,-0.16443c-0.32887,0.06123 -0.59534,0.04082 -0.78018,0.36967c0.16444,0.59534 0.32829,1.17027 0.69797,1.64257c0.08221,0.10263 0.32828,0.02042 0.36967,-0.08221c0.08163,-0.14402 0,-0.36967 0.14345,-0.51312c0.04081,-0.0204 0.10262,0 0.14344,-0.0204c0.12303,-0.06181 0.26705,-0.20525 0.39008,-0.20525c0.51312,-0.02042 1.06765,0.16444 1.58076,-0.10262c0.61633,-0.28746 1.3347,-0.10263 1.99185,0c0.02041,-0.67755 -0.78017,-0.63673 -1.25191,-0.61575c0.12303,-0.39008 0.43092,-0.67756 0.55453,-1.06763c0.04082,-0.14404 0.16444,-0.22566 0.26706,-0.26706c0.28747,-0.08221 0.49271,-0.24607 0.73936,-0.39009c0.08222,-0.04082 0.16386,-0.12362 0.22566,-0.16444c0.18484,-0.14342 0.45131,-0.12302 0.61691,0c0.49271,0.34927 0.92361,-0.18425 1.35394,-0.04082c0.14461,0.04082 0.34985,0.24666 0.53412,0.16444c0.10262,-0.0414 0.14343,-0.16444 0.20641,-0.24664c0.10263,-0.12303 0.28689,-0.0204 0.4099,-0.06123c0.24667,-0.06181 0.41109,-0.22565 0.65715,-0.30788c0.12363,-0.04082 0.28688,0.08221 0.3073,0.02041c0.14461,-0.36968 0.10379,-0.80059 0.14461,-1.19068c-0.00233,-0.1032 -0.00233,-0.24723 0.10029,-0.32944l0,0l0.00002,-0.00001zm-0.24607,1.70438c-0.08279,0.02041 -0.14343,0.10262 -0.18425,0.14403c-0.39067,0.28746 -0.57494,0.75977 -0.96503,1.06764c-0.04023,0.0204 -0.10262,0.06181 -0.16325,0.06181c-0.65773,0.10262 -1.23209,-0.26705 -1.88922,-0.12303c-0.0828,0.02041 -0.12304,0.22624 -0.22624,0.26705c-0.18484,0.04082 -0.4105,0.02042 -0.57493,0.14403c-0.12303,0.06123 -0.28748,0.32829 -0.12303,0.32829c0.8828,-0.02042 1.78601,-0.06123 2.66882,0.04081c0.26764,0.39008 0.73994,0.41109 1.13004,0.59534c0.14402,0.06123 0.16385,0.28746 0.32829,0.36968c0.08337,0.0204 0.18484,-0.0414 0.24722,-0.08222c-0.12302,-0.30787 -0.14342,-0.67755 -0.18425,-1.04723c-0.021,-0.34869 -0.08339,-0.47231 -0.0414,-0.80058c0.0414,-0.18427 -0.10263,-0.28747 -0.04024,-0.45132c0.03732,-0.14461 0.01749,-0.37085 0.01749,-0.51429l0,0l-0.00001,-0.00001zm0.28689,3.0799c-0.12304,0 -0.18426,-0.0414 -0.30729,0.04082c-0.22624,0.14403 -0.53412,0.18484 -0.821,0.12303c-0.26764,-0.06181 -0.4933,-0.22623 -0.75977,-0.26705c-0.45132,-0.06123 -0.90438,0.06123 -1.3143,-0.10262c-0.20583,-0.08221 -0.41106,-0.18484 -0.61691,-0.24664c-0.16385,-0.06123 -0.16385,0.24664 -0.0204,0.28747c0.1032,0.0204 0.20583,0.10262 0.30787,0.14402c0.20641,0.10262 0.36968,0.32829 0.57493,0.47231c0.38951,0.24665 0.88281,0.06181 1.2729,0.18484c0.20583,0.08222 0.43091,0.12304 0.65714,0.14403c0.39009,0.04082 0.842,0.12303 1.21167,-0.04082c0,-0.34927 -0.22623,-0.59534 -0.28746,-0.92361l0.10262,0.18425l0,0l0,-0.00002zm0.3277,0.92363c-0.34869,0.22565 -0.63673,0.55452 -1.06705,0.55452c-0.26764,0.02041 -0.49329,0 -0.73936,-0.14404c-0.55453,-0.28747 -1.19126,-0.06123 -1.828,-0.18484c-0.08221,-0.02041 -0.16386,-0.08222 -0.22624,-0.16444c-0.06122,-0.08221 -0.16385,-0.06123 -0.24664,-0.08221c-0.12302,-0.04082 -0.26648,0 -0.38951,-0.04082c-0.20583,-0.0414 -0.41108,-0.16443 -0.59534,-0.24664c-0.41108,-0.22565 -0.8414,-0.30788 -1.2729,-0.06123c-0.24606,0.14403 -0.55452,-0.06181 -0.80058,0.12303c-0.14402,0.12304 -0.28746,0.20583 -0.43148,0.24666c-0.63616,0.12302 -1.23151,0.08221 -1.84782,-0.02042c-0.14344,-0.04082 -0.26706,-0.12303 -0.38951,-0.20525c-0.0414,0.16443 0.04082,0.32828 0.08222,0.47231c0.18484,0.49271 0.36909,1.00642 0.59534,1.49855c0.04082,-0.47231 0.4105,-0.8624 0.8414,-0.98543c0.41109,-0.10262 0.80117,0.20525 1.17027,-0.04082c0.30787,-0.18484 0.63615,-0.32829 0.96502,-0.24606c0.22624,0.06123 0.47231,0.20525 0.67755,0.10262c0.24665,-0.12303 0.51312,-0.16444 0.75977,-0.08221c0.08221,0.02041 0.20525,0.10262 0.28746,0.14344c0.49329,0.20583 1.04781,0.0414 1.60175,0.12303c0.10321,0.02041 0.14346,0.20525 0.28746,0.22565c0.65715,0.0414 1.3143,-0.0414 1.99127,0.0414c0.10321,0 0.18484,0.24606 0.34927,0.18484c0.24723,-0.10262 0.59534,-0.24665 0.80175,0c-0.18484,-0.39009 -0.4315,-0.71837 -0.61691,-1.10905c-0.01983,-0.04082 0.00059,-0.08221 0.04082,-0.10262l0,0l0,0.00002zm-9.19772,1.88863c0.55452,0.06123 1.06763,-0.28747 1.64257,-0.14402c0.26706,0.08221 0.51311,0.18484 0.78017,0.06122c0.12303,-0.06122 0.22565,-0.18484 0.34927,-0.22565c0.28747,-0.10262 0.61575,0.02041 0.8828,-0.10262c0.14402,-0.06064 0.26706,-0.16443 0.41049,-0.24606c0.12304,-0.08221 0.30788,-0.04082 0.41109,0.04082c0.30788,0.28746 0.53411,0.71837 0.98544,0.78017c0.39009,0.04024 0.78017,0 1.17027,0c-0.24665,0.20583 -0.39008,0.51311 -0.67756,0.63673c-0.28688,0.14344 -0.57492,0.12303 -0.86239,0.06065c-0.26764,-0.06065 -0.4519,-0.32829 -0.71896,-0.45131c-0.12303,-0.06065 -0.28748,-0.04025 -0.41051,0c-0.59534,0.16443 -1.17027,0.32828 -1.74519,0.55452c-0.49271,0.20583 -1.08805,0.22623 -1.60175,0.12302c-0.24606,-0.06064 -0.34869,-0.39008 -0.47231,-0.63615c-0.08163,-0.14344 -0.10204,-0.30788 -0.14344,-0.45132l0,0l0.00002,-0.00002zm0.65714,1.35511c0.32829,0.14402 0.57494,0.43091 0.98544,0.5137c0.30788,0.04082 0.61575,0.04082 0.92361,0c0.30788,-0.0414 0.57494,-0.20583 0.8624,-0.34927c0.61575,-0.32828 1.29388,0.06065 1.94987,-0.02041c-0.02041,0 -0.02041,0 -0.04024,0c0.34927,-0.02099 0.63674,-0.18425 0.96502,-0.20641c0.47231,-0.02042 0.65715,-0.61633 1.04665,-0.78017c0.5341,-0.22624 1.19125,0.04081 1.72538,-0.16386c0.30727,-0.12303 0.65714,-0.73994 0.98483,-0.53469c0.20525,0.14344 0.18427,0.51254 0.37026,0.73936c0.12303,0.16385 0.14345,0.36968 0.32829,0.47289c-0.80058,0.34927 -1.7038,-0.06123 -2.54578,0.14344c-0.14345,0.04082 -0.2863,0.12303 -0.39009,0.22566c-0.14345,0.16501 -0.26706,0.32828 -0.41051,0.47346c-0.08221,0.0828 -0.20583,0.16385 -0.32829,0.14345c-0.10262,0 -0.08221,-0.14345 -0.14343,-0.18484c-0.16386,-0.08221 -0.32829,0.10379 -0.49329,0.14461c-0.53294,0.08221 -1.08747,-0.08279 -1.58076,0.06064c-0.4315,0.12304 -0.78018,0.28748 -1.23209,0.36968c-0.12302,0.02041 -0.28747,0.08222 -0.47231,0.16444c0.04081,0 0.08221,0 0.12303,0c-0.26706,0 -0.53411,-0.021 -0.80117,0c-0.14346,0.01981 -0.24606,0.18367 -0.39009,0.24606c-0.16443,0.06064 -0.34927,0.16443 -0.51312,0.12361c-0.14403,-0.04082 -0.26706,-0.16385 -0.32828,-0.30729c-0.14345,-0.37026 -0.32829,-0.69796 -0.55453,-1.04781c-0.06123,-0.06181 -0.08163,-0.24665 -0.04082,-0.22623l0,0l0.00001,-0.00002zm10.24554,-0.14344c-0.08221,0.06064 -0.20641,0.06064 -0.28746,0.14344c-0.26706,0.30788 -0.51312,0.69738 -0.8624,0.84082c-0.45132,0.16502 -0.84141,0.49388 -1.33469,0.49388c-0.12303,0 -0.20583,0.10262 -0.3073,0.18367c-0.20641,0.16444 -0.49329,0.08339 -0.69796,0.24724c-0.08221,0.06064 -0.20525,0.10262 -0.22624,0.04082c-0.1032,-0.26765 -0.36967,-0.51371 -0.63615,-0.53413c-0.75977,-0.06064 -1.49913,-0.02041 -2.25948,0.10262c-0.49271,0.0828 -0.84141,0.53411 -1.37552,0.63732c-0.38951,0.06065 -0.78018,-0.08279 -1.17027,-0.10321c0.04082,0.02042 0.08221,0.02042 0.10263,0.08281c0.04082,0.06064 0.06122,0.14343 0.12302,0.20583c0.20583,0.24606 0.41108,0.45132 0.51312,0.75977c0.63673,-0.20583 1.23149,-0.4309 1.90904,-0.55394c0.51311,-0.0828 1.04724,-0.02041 1.53996,0.12304c0.20641,0.06064 0.4309,0.06064 0.61633,0.14401c0.22624,0.12304 0.43149,0.26648 0.65715,0.39009c0.10321,0.04024 0.24664,0.08279 0.32828,0.02042c0.24665,-0.14403 0.51431,-0.20584 0.71838,-0.10321c0.06181,0.04082 0.14402,0.12303 0.22623,0.18427c0.16444,0.08221 0.24666,-0.04082 0.37027,-0.16386c0.04024,-0.04082 0.10262,0.02042 0.12303,0.06123c0.06122,0.22565 0.08279,0.53352 0.32828,0.63615c0.47289,0.18484 1.007,0.0414 1.43733,-0.18368c0.18426,-0.0828 0.41049,0.08221 0.57493,0.18368c0.36968,0.18484 0.82099,0.06181 1.2309,0.06181c0.08281,0.02041 0.14345,0.16385 0.22565,0.26647c0.02042,0.04082 0.08338,0.06123 0.12421,0.06123c0.16386,0.02041 0.34927,0.06123 0.45074,-0.04081c0.12303,-0.12304 0.26764,-0.18427 0.41049,-0.22623c0.18484,-0.04025 0.39009,0.02039 0.57494,0.06064c-0.04082,0 -0.06065,0 -0.08281,0.04082c-0.14342,-0.3073 -0.32828,-0.57494 -0.49329,-0.8624c-0.10263,-0.14404 -0.26706,-0.20641 -0.40992,-0.24723c-0.18542,-0.06065 -0.41108,0.02041 -0.63732,0.04082c-0.32828,0.04081 -0.61691,-0.10262 -0.94461,-0.18368c-0.2653,-0.0414 -0.53294,-0.0414 -0.73936,0.10263c-0.12303,0.08279 -0.24606,0.16385 -0.3895,0.22623c-0.24723,0.12303 -0.53353,0.08221 -0.80059,0.02041c-0.14403,-0.04082 -0.20641,-0.20641 -0.32828,-0.30729c-0.30846,-0.26764 -0.69798,-0.24723 -1.06823,-0.28805c0.69796,-0.22566 1.27406,-1.04665 2.03265,-0.71779c0.16386,0.08279 0.22566,0.45131 0.45074,0.36967c0.12304,-0.04082 0.26648,-0.16386 0.32829,-0.30729c0.12362,-0.24724 0.24781,-0.51371 0.37085,-0.78018c0.01983,-0.08279 -0.02041,-0.16443 -0.06123,-0.22681c-0.20233,-0.32771 -0.51138,-0.55277 -0.65482,-0.90205l0,0l-0.00001,0zm4.47583,5.40003c-0.26706,-0.0828 -0.57494,-0.04082 -0.84141,0c-0.18427,0.04082 -0.4315,0.22565 -0.59534,0.10262c-0.24723,-0.18425 -0.37026,-0.36909 -0.55453,-0.55334c0.34985,-0.18484 0.69797,0.06064 1.0274,-0.1038c0.10262,-0.04023 0.34869,-0.08221 0.43034,-0.20525c0.04081,-0.04081 0.22681,0.34988 0.24665,0.36969l0.28688,0.39009l0,0l0.00001,-0.00001zm0.30729,0.49155l0.4519,0.80058c0,0 -0.73994,0.49388 -0.92479,0.30788c-0.04082,-0.06181 -0.45073,-0.55394 -0.51311,-0.59534c0.00117,0.00116 0.98602,-0.28688 0.98602,-0.51312l0,0l-0.00001,0zm0.84315,1.54053c0,0 -0.26764,0.47231 -0.80058,0.34927l0.4099,0.73994c0,0 0.84142,-0.1032 0.71838,-0.47346l-0.32771,-0.61575l0,0zm0,1.93004c0,0 0.22566,0.65715 0.20526,0.821c0,0 0.73936,-0.08221 0.69795,-0.43033l-0.20583,-0.61633c0,0 -0.28747,0.30729 -0.69739,0.22565l0,0l0.00001,0.00001zm0.26648,1.2729c0.08279,0.57377 -0.55452,2.77145 1.15044,3.98312c1.70439,1.21109 0.98485,0.45131 1.14986,0.71779c0.34927,0.63672 0.4105,0.71779 0.4105,1.15044c0,0 1.13004,-1.51895 -0.14345,-2.79243c-0.34985,-0.34985 0,-0.98484 0,-0.98484s0.08222,0.14344 0,-0.22623c-0.06122,-0.34928 -0.34985,-1.06765 -1.13002,-1.70439c-0.22624,-0.18426 -0.41109,-0.39067 -0.55453,-0.59534c-0.22565,0.22565 -0.36909,0.4519 -0.8828,0.4519l0,0l0,-0.00002zm-3.71606,-5.66708c-0.04082,-0.06123 -0.28805,0.02041 -0.4315,-0.04023c-0.28629,-0.10321 -0.55392,-0.30788 -0.86239,-0.39068c-0.26647,-0.0828 -0.51371,0.12362 -0.78017,0.16444c-0.22566,0.0204 -0.47289,0.04023 -0.69798,-0.04082c-0.26648,-0.10379 -0.47231,-0.30788 -0.75977,-0.34985c-0.36968,-0.02042 -0.75977,-0.06065 -1.08747,0.08279c-0.34985,0.14344 -0.59534,0.45132 -1.007,0.47231c-0.02039,0 -0.02039,0.10379 -0.04082,0.10379c-0.30728,0.10263 -0.65714,0.10263 -0.96443,0c-0.20583,-0.08337 -0.34985,-0.30788 -0.57434,-0.39067c-0.28747,-0.10262 -0.53412,0.02042 -0.82159,0.10321c-0.10262,0.01982 -0.26705,0 -0.3895,-0.06123c0.16386,0.24665 0.24606,0.53353 0.4519,0.69738c0.16385,0.12361 0.38951,0.20641 0.53295,0.37025c0.08279,0.10263 0.20641,0.16386 0.32828,0.22566c0.22624,0.14345 0.53412,0.12303 0.821,0.10263c0.34927,-0.01983 0.61633,-0.38951 0.96501,-0.2863c0.10263,0.0204 0.20584,0.16326 0.32829,0.10262c0.18426,-0.10262 0.37025,-0.30788 0.55453,-0.18369c0.26647,0.18369 0.43032,0.45015 0.67638,0.67639c0.41108,0.39067 0.92479,0.57434 1.4379,0.78018c0.18484,0.08337 0.39009,0.18484 0.55394,0.32828c0.16385,0.12303 0.28806,0.30788 0.45074,0.39009c0.18484,0.08221 0.41108,0 0.59592,0.08221c0.10204,0.04082 0.26646,0.0828 0.32828,0.22682c0.08221,-0.04082 0.20583,0.06123 0.22566,0.02042c0.12302,-0.32829 0.16384,-0.67757 0.22623,-1.02742c0.02041,-0.14344 0.06181,-0.36967 -0.02041,-0.43032c-0.26647,-0.20583 -0.63615,0.12304 -0.96385,0c-0.16501,-0.06123 -0.20642,-0.28689 -0.37026,-0.28689c-0.53412,-0.0204 -1.2933,-0.08337 -1.37553,-0.73936c0.30788,-0.12421 0.65715,0 0.94521,-0.1038c0.63557,-0.26705 1.31313,0.06123 1.82683,0.39009c0.02098,-0.3516 0.0414,-0.69971 -0.10204,-0.98834l0,0l-0.00001,0.00002zm-10.61522,-1.99184c-0.06123,-0.06065 -0.39008,0.1032 -0.45131,0.16501c0.08221,0.22565 0.08221,0.32829 0.22565,0.53295c0.24606,0.34985 0.73936,0.65714 1.06764,1.15044c0.26706,0.3895 0.36909,0.43032 0.69797,0.75977c0.18484,0.18427 0.26705,0.34985 0.4519,0.51311c0.12302,0.10263 0.32828,0.20583 0.4309,0.32829c0.20583,0.22625 0.34927,0.32829 0.47231,0.51254c0.04082,0.08339 0.57494,0.8624 0.49388,0.98544c-0.08279,-0.22624 -0.32828,-0.98544 -0.43091,-1.21109c-0.06122,-0.16385 -0.28687,-0.47289 -0.39067,-0.59534c-0.32828,-0.43031 -0.3895,-0.51311 -0.80058,-1.04665c-0.45132,-0.57493 -0.77959,-0.94461 -1.2315,-1.49855c-0.1656,-0.22566 -0.35043,-0.40991 -0.53528,-0.59592l0,0zm0.18484,0.14402c0.4519,-0.18369 0.92362,0.22683 1.2519,0.61691c0.12303,0.14402 0.34927,0.16444 0.51312,0.08222c0.28747,-0.14287 0.45132,-0.49272 0.78018,-0.61575c0.24664,-0.10379 0.49271,-0.04082 0.67754,0.08221c0.47231,0.32829 0.98544,0.51371 1.53996,0.39067c-0.20583,0.14287 -0.39009,0.22565 -0.63673,0.26648c-0.4105,0.04082 -0.73994,-0.20583 -1.10846,-0.3073c-0.3073,-0.06122 -0.53295,0.08222 -0.78018,0.24667c-0.04082,0.01981 -0.04082,0.06064 -0.04082,0.10262c-0.12303,0 -0.14344,0.16385 -0.24606,0.18368c0,0 0.02039,0 0.04082,0c-0.28747,0.04198 -0.67756,0.32829 -0.51312,0.57494c0.10262,0.12302 0.34927,0.16385 0.47231,0.26706c0.18484,0.14344 0.24723,0.4105 0.37026,0.61575c0.08221,0.12419 0.16385,0.22682 0.24664,0.34985c0.14285,0.16385 0.47231,0.18425 0.61633,0.36968c0.24606,0.36967 0.04082,0.80058 -0.18484,1.08804c0,0 -0.06064,-0.18427 -0.08221,-0.26706c-0.02041,-0.10263 -0.04082,-0.10263 -0.10262,-0.16385c-0.04082,-0.06181 -0.06123,-0.16443 -0.10381,-0.20583c-0.06064,-0.10263 -0.10262,-0.26648 -0.16325,-0.3691c-0.28748,-0.41108 -0.53411,-0.80175 -0.90321,-1.17085c-0.0414,-0.06123 -0.08221,-0.16385 -0.14402,-0.22623c-0.47231,-0.45132 -0.80059,-0.98544 -1.21109,-1.51838c-0.0414,-0.06181 -0.12303,-0.12419 -0.14403,-0.16444c-0.02157,-0.12479 -0.18542,-0.20641 -0.1446,-0.22799l0,0l-0.00002,0.00002zm10.14175,5.35921c-0.69798,-0.08339 -0.57436,0.04082 -0.96444,0.10262c-0.20525,0.02041 -0.57494,0.02041 -0.75977,-0.02042c-0.20583,-0.04024 -0.49329,-0.20583 -0.61633,-0.26648c-0.34927,-0.22623 -0.5341,-0.37025 -0.8414,-0.51369c-0.47289,-0.24664 -1.0274,-0.45132 -1.56036,-0.57376c-0.821,-0.18484 -1.58193,-0.1242 -2.32013,0.36909c0.20583,0.41049 0.26705,0.8006 0.45132,1.19068c0.12303,-0.36968 0.20583,-0.57435 0.57434,-0.69738c0.49388,-0.18426 0.98543,-0.20583 1.39709,-0.12362c0.04082,0 0.24606,0.04081 0.5137,0.16444c0.24607,0.10262 0.3073,0.18425 0.47231,0.26648c0.22624,0.1032 0.39009,0.20641 0.55394,0.30728c0.4519,0.30788 0.63615,0.55452 1.17085,0.63732c0.55394,0.06065 1.08747,0 1.60059,-0.1032c0.0828,-0.20584 0.12362,-0.26648 0.20583,-0.43033c0.04082,-0.08338 0.04082,-0.22682 0.12244,-0.30904l0,0l0.00002,0.00001zm-0.75919,1.88864c-0.38951,0.24664 -0.90263,0.06064 -1.35394,0.01982c-0.26765,-0.01982 -0.57436,-0.04025 -0.78017,-0.28688c0.04023,0.0204 0.06064,0 0.08221,-0.02042c0.12361,-0.08221 0.22624,-0.14343 0.26706,-0.26704c0.04023,-0.14346 -0.06065,-0.26648 -0.16385,-0.30672c-0.20583,-0.06181 -0.41109,-0.10379 -0.61691,-0.14461c-0.3073,-0.08221 -0.61633,-0.10262 -0.92361,-0.10262c-0.37026,0 -0.71838,-0.02042 -1.08805,0c-0.34927,0.0204 -0.9038,0.08221 -1.00642,-0.36969c-0.0204,-0.10262 -0.10321,-0.14402 -0.22623,-0.1236l-0.01982,-0.02042l-0.02041,0c0.16325,0.22683 0.28688,0.63674 0.43032,0.9038c0.18427,0.34927 0.28747,0.63731 0.49329,0.96501c0.08221,0.12303 0.14343,0.24606 0.24606,0.34985c0.04082,0.08221 0.04082,0.16327 0.10321,0.22565c0.08221,-0.14344 0.14402,-0.30788 0.32828,-0.32828c0.38951,-0.06065 0.75977,-0.12304 1.08747,-0.36968c0.45073,-0.10262 0.88396,0.08338 1.3347,0.12361l-0.02041,0c0.10262,0 0.18426,-0.02041 0.28746,0c0.49271,0.14344 1.00642,0.24607 1.45715,0.02041c0.02041,-0.02041 0.02041,-0.12362 0.04082,-0.18484c0,-0.021 0.0414,-0.06356 0.06181,-0.08338l0,0l0,0.00002zm-2.77145,3.38776c-0.16326,-0.18427 -0.30788,-0.40993 -0.49271,-0.61574c-0.08221,-0.10321 -0.12303,-0.24666 -0.20642,-0.32829c-0.10262,-0.12303 -0.24606,-0.24664 -0.30729,-0.34927c-0.14344,-0.28746 -0.37026,-0.4933 -0.53353,-0.75977c-0.04082,-0.02042 -0.1032,-0.10321 -0.06064,-0.16444c0.06064,-0.08221 0.16327,-0.10262 0.24606,-0.12303c0.43091,-0.04082 0.8624,-0.08221 1.25191,0.04082c0.4309,0.16383 0.84082,0.10262 1.29388,0.14344c0.26646,0.02039 0.32829,0.30729 0.53352,0.39066c0.20525,0.10262 0.47289,0.14344 0.69797,0.06065c0,-0.0204 -0.0204,-0.04023 -0.0204,-0.04023c0.0204,0.20525 0.12302,0.3895 0.16384,0.59534c-0.57493,0.36967 -1.29388,0.06064 -1.86823,0.36967c-0.20583,0.12362 -0.43092,0.61634 -0.08279,0.71838c0.39067,0.08279 0.82099,0.02042 1.17085,0.2869c0.24665,0.18483 0.57493,-0.02042 0.80059,0.14459c0.26648,0.18369 0.49329,0.18369 0.78017,0.24606c0.12303,0.02042 0.26705,-0.08279 0.39009,-0.12302c0.08221,-0.02043 0.18483,0.12302 0.26705,0.22565c-0.22682,-0.0204 -0.47289,-0.10263 -0.69796,-0.0204c-0.04082,0 0,0.12361 -0.08222,0.14403c-0.24606,0.06064 -0.32829,0.39008 -0.30787,0.61691c-0.02042,-0.16502 -0.14403,-0.30847 -0.24665,-0.4111c-0.26646,-0.20581 -0.63673,-0.1032 -0.92419,0.04083c-0.24548,0.10262 -0.28688,0.47289 -0.16328,0.69737c-0.08221,0 -0.18425,-0.04083 -0.24664,0.0618c0.14343,-0.28806 -0.20584,-0.57494 -0.39009,-0.84258c-0.12303,-0.18367 -0.24665,-0.40991 -0.45073,-0.45073l-0.5143,-0.55452l0,0l0,0.00002zm1.74521,4.18719c0.18425,0.47346 0.10262,2.32011 0.01982,2.83325c-0.06065,0.61633 0.0414,1.23207 -0.16328,1.80759c-0.20641,0.53412 -0.41048,1.25191 -1.08746,1.37494c-0.04082,0.0204 -0.12421,0.08279 -0.14461,0.14403c-0.02042,0.10263 0.10379,0.16385 0.20641,0.18425c0.20525,0.06064 0.4105,0.04082 0.59534,-0.04082c0.49213,-0.18427 0.36909,-0.80058 0.53294,-1.21109c0.12303,-0.32828 0.55452,-0.08279 0.82099,-0.20583c0.14344,-0.06122 0.26647,-0.20525 0.20525,-0.32828c-0.14346,-0.36969 -0.67639,-0.16327 -0.90321,-0.36969c-0.10263,-0.10263 -0.04024,-0.39009 0.12303,-0.4729c0.14461,-0.10263 0.37026,-0.0822 0.49388,-0.22624c0.12303,-0.12302 0.10262,-0.36966 0.24606,-0.45131c0.30788,-0.20584 0.65715,0.06123 0.98544,-0.06064c0.14344,-0.06064 0.24606,-0.26706 0.10262,-0.32828c-0.16385,-0.08221 -0.39068,0.02042 -0.55394,-0.08221c-0.12303,-0.08279 -0.22623,-0.20583 -0.37083,-0.22624c-0.34869,-0.06064 -0.61517,0.28748 -0.96385,0.22624c-0.04025,0 -0.0828,-0.04082 -0.10263,-0.10321c-0.06122,-0.18367 0.01983,-0.34926 0.18367,-0.47231c0.02042,-0.0204 0.06181,-0.0204 0.1038,-0.0204c-0.02041,0 -0.04082,0 -0.08338,0c0.28806,-0.14346 0.4519,-0.37027 0.65714,-0.63673c0.02041,-0.02042 0.06123,0 0.10262,0c0.02042,-0.02042 0.04082,-0.04083 0.04082,-0.06123c0.30846,0.04082 1.007,0.16385 0.88397,-0.28746c-0.06123,-0.14343 -0.39067,-0.01984 -0.51371,-0.20526s-0.24665,-0.34926 -0.39066,-0.49387c-0.06065,-0.08221 -0.18427,-0.12303 -0.26648,-0.16385c-0.18367,-0.04024 -0.3895,0.12361 -0.57494,-0.01984c-0.04021,-0.0204 -0.06064,-0.12361 -0.01981,-0.18483c0.14403,-0.34927 0.32829,-0.73936 0.69738,-0.80058c0.32829,-0.06065 0.80059,0.06122 0.94403,-0.3073c0.0414,-0.12303 0.02041,-0.26648 -0.10262,-0.32829c-0.08221,-0.04022 -0.20525,-0.06064 -0.3073,-0.0204c-0.28803,0.12361 -0.59534,0.14403 -0.8828,0.06123c-0.22624,-0.04083 -0.34985,-0.26648 -0.5137,-0.41052c-0.10262,-0.06064 -0.28748,0 -0.34985,-0.12244c0.30904,0.61574 0.22681,1.76503 0.34985,2.0105l0,0l0.00002,0.00002zm-1.80759,6.36505c0,0 -0.26646,0.47346 -0.51254,1.08864c-0.18484,0.40991 -0.71838,1.49796 0.49271,1.49796s1.99127,-0.36966 2.5662,-0.71776c0.57435,-0.3493 0.63673,-1.15045 0.34869,-1.41693c0,0 0.16502,-0.0408 0.22681,-0.16385c0,0.00058 -2.7108,0.16501 -3.12188,-0.28804l0,0l0,-0.00002zm-13.4677,-7.7394c-0.16386,0.53351 -0.65656,0.8414 -0.96444,1.33411c-0.0204,0.02042 -0.08221,0.12363 0,0.16443c0.06123,0.02042 0.14345,0 0.20525,-0.0408s0.08221,-0.14404 0.14402,-0.20642c0.47231,-0.38951 0.63615,-0.90321 0.8624,-1.43733c-0.06181,0.02042 -0.12303,-0.06064 -0.14404,-0.0204c-0.04081,0.14459 -0.10262,0.26764 -0.14402,0.43149l0.04082,-0.22507l0,0zm-1.95045,1.7242c-0.10262,-0.06123 -0.14403,0.53412 -0.28747,0.96501c-0.20583,0.63675 -0.49271,1.58136 -0.49271,1.58136s2.91547,0.63614 3.34637,-0.94461c0.18484,-0.65715 0.22566,-1.02682 0.24606,-1.2321c0.0006,0 -2.6274,-0.24605 -2.81226,-0.36966l0,0l0.00001,0zm3.61343,-0.28688c-0.14404,-0.14403 -0.14404,-0.36969 -0.32829,-0.4729c-0.08221,-0.0408 -0.18484,-0.10263 -0.28746,-0.12302c-0.20525,-0.08221 -0.47231,-0.04083 -0.59534,-0.18484c-0.10262,-0.10263 0,-0.34927 0.14403,-0.34927c0.34927,0 0.69796,-0.06123 0.98543,0.16385c0.24664,0.18427 0.4105,0.47289 0.32829,0.78018c-0.04082,0.10321 -0.16444,0.22682 -0.28746,0.20642c0.02041,0 0.04082,-0.02042 0.04082,-0.02042l0,0l-0.00001,0zm1.2933,-1.10962c-0.28746,0.06122 -0.55452,0.12302 -0.82158,-0.02043c-0.22565,-0.10263 -0.36968,-0.30727 -0.47231,-0.49329c-0.16443,-0.26646 -0.10262,-0.61575 -0.10262,-0.92361c0.16444,0.04082 0.26706,0.20641 0.32828,0.32828c0.30788,0.65657 1.19068,0.61575 1.7452,0.43091c0,0.0204 0,0.06064 -0.02041,0.10262c-0.18484,0.28691 -0.47231,0.45074 -0.78018,0.57376l0.12362,0l0,0.00177zm1.21167,-1.08748c-0.12303,0.06064 -0.18426,0.16385 -0.26706,0.20583c-0.59534,0.26648 -1.00584,-0.34927 -1.41692,-0.69737c-0.10262,-0.06123 -0.16444,-0.24724 -0.26707,-0.34985c-0.0414,-0.04082 -0.12302,-0.12303 -0.08221,-0.16385c0.20525,-0.20581 0.4519,-0.57434 0.69796,-0.34985c0.16444,0.14404 0.12304,0.5137 0.30788,0.57492c0.26707,0.10263 0.63615,-0.08278 0.94403,0.10263c0.18484,0.14403 0.49329,-0.12303 0.75977,-0.02042c0.06123,0.02042 0.04082,0.12361 0.02042,0.12361c-0.26588,0.2041 -0.42973,0.45132 -0.6968,0.57436l0,0l-0.00001,0zm-0.59534,-2.19653c0.08221,0.22685 0.41108,0.24725 0.53353,0.4729c0.08221,0.14401 0.06181,0.32829 0.22623,0.41107c0.22623,0.10263 0.49271,0.08221 0.71838,0.14345c0.10262,0.0204 0.22565,0.20584 0.30787,0.16383c0.12304,-0.06122 0.39009,-0.14343 0.30788,-0.28687c-0.14402,-0.22684 -0.26647,-0.4519 -0.36968,-0.69797c-0.02041,-0.06181 -0.10262,-0.06181 -0.14403,-0.08339c-0.14344,-0.04022 -0.32828,-0.04022 -0.49271,-0.06064c-0.28748,-0.06064 -0.53413,-0.34926 -0.821,-0.30789c-0.10262,-0.00116 -0.30788,0.10205 -0.26647,0.24548l0,0l0,0.00002zm0.75919,-0.78017c0.4105,0.18427 0.8624,0.16386 1.2933,0.16386c-0.0204,-0.02042 0.02042,-0.04082 0.02042,-0.06123c0.0204,-0.08221 -0.06123,-0.14344 -0.10263,-0.20525c0.16385,0.02041 0.26706,-0.12361 0.34927,-0.22682c0.02041,-0.04024 0.04082,-0.12303 -0.02099,-0.12303c-0.43092,0.0204 -0.8624,0.10321 -1.2933,-0.06123c0.021,0.20467 -0.08163,0.39068 -0.24606,0.51371l0,0l-0.00002,-0.00002zm0.20583,-1.10963c0.04082,0.16385 0.24606,0.12303 0.36909,0.02041c0.22566,-0.20583 0.34927,-0.49329 0.59534,-0.67756c0.12302,-0.08221 0.28746,0.06123 0.43148,0.16386c0.08221,0.10379 0.30788,0 0.36969,-0.14344c0.04082,-0.12303 -0.04082,-0.26648 -0.14404,-0.3073c-0.22565,-0.12303 -0.49271,-0.0204 -0.69796,-0.14344c-0.32829,-0.22682 -0.59534,-0.53411 -1.00584,-0.4309c-0.12303,0.0204 -0.26706,0.12303 -0.20583,0.26647c0.12362,0.4105 0.16444,0.84199 0.28806,1.2519l0,0l0.00001,0zm-0.43149,-1.86765c0.57551,0.22565 1.21165,-0.22681 1.82741,0c0.06123,0.02042 0.14403,0.08221 0.18484,0.10262c0.08221,0.04082 0.22566,0.02041 0.26706,0.06122c0.24664,0.22625 0.59534,0.3691 0.8624,0.24607c0.10262,-0.06064 0.14402,-0.26647 0.22565,-0.3895c-0.32829,-0.02042 -0.67756,0.06064 -0.98543,-0.14462c-0.32829,-0.24606 -0.61633,-0.43031 -0.92362,-0.65714c-0.36967,-0.26648 -0.53411,-0.65599 -0.8828,-0.92363c-0.24664,-0.18425 -0.4519,-0.36909 -0.69796,-0.55394c-0.16443,0.43092 -0.14403,0.43092 -0.12303,0.88339c0,0.16384 0.04082,0.30787 0.06123,0.61633c0.02041,0.08279 0.16385,0.67756 0.12302,0.78017l0.06123,-0.02099l0,0l-0.00001,0.00001zm0.30788,-5.76913c0.61574,0.67756 1.00583,1.51897 1.64198,2.17611c0.55452,0.18426 0.71838,0.821 0.94461,1.31371c0.10263,0.22623 0.26706,0.41048 0.45132,0.59534c0.10262,0.10262 0.18484,0.24723 0.26706,0.37026c0.06123,0.08221 0.28746,0.08221 0.22565,0.12303c-0.26646,0.16385 -0.63615,0.24665 -0.96442,0.14344c-0.26706,-0.10262 -0.4315,-0.3895 -0.71838,-0.4933c-0.4519,-0.14343 -0.8828,-0.24606 -1.25249,-0.53294c-0.49271,-0.39067 -0.57493,-1.10904 -0.39008,-1.68456c0,0.06123 0.06181,0.08221 0.08221,0.12302c0.04082,0.06123 0.12302,0.08338 0.16385,0.16502c0.10262,0.18426 0.16443,0.3691 0.24606,0.55335c0.08222,0.18427 0.28806,0.26765 0.51312,0.22623c0.14403,-0.67696 -0.4519,-1.04723 -0.84198,-1.51836c-0.04082,-0.06123 -0.20525,-0.04082 -0.24607,-0.08279c-0.22624,-0.14345 -0.47289,-0.24666 -0.53411,-0.51312c-0.10146,-0.40993 -0.14228,-0.90321 0.41167,-0.96445l0,0l0.00001,0zm0.86239,-0.30904c-0.04082,0.1242 0,0.26764 0.06123,0.39066c0.14403,0.38951 0.24665,0.80059 0.49271,1.14986c0.28748,0.43091 0.8624,0.39067 1.14986,0.80059c0.10262,0.12303 0.16443,0.30786 0.22565,0.47346c0.10262,0.22566 0.39009,0.22566 0.57493,0.3691c0.12303,0.1032 0.20525,0.26764 0.28748,0.41108c0.08221,0.16327 0.10262,0.36909 0.24606,0.45073c0.30787,0.14345 0.69855,0.02042 1.04665,0.06123c0.26648,0.04023 0.53412,0.30727 0.76035,0.20583c0.16326,-0.0828 0.06065,-0.34927 -0.04082,-0.47346c-0.22623,-0.32829 -0.36968,-0.78018 -0.78076,-0.84084c-0.26705,0.24665 -0.59534,0.14344 -0.8414,-0.02041c-0.24607,-0.16327 -0.43091,-0.38951 -0.57493,-0.63673c-0.10263,-0.24606 -0.20525,-0.47231 -0.34869,-0.69739c-0.14403,-0.18425 -0.36967,-0.28688 -0.55452,-0.45074c-0.18484,-0.1242 -0.28747,-0.32828 -0.39008,-0.51369c-0.08221,-0.20583 -0.02042,-0.45132 -0.12303,-0.63732c-0.08222,-0.14286 -0.14404,-0.39009 -0.26706,-0.36968c-0.22566,0.06123 -0.49271,0.10379 -0.71838,0.22682c-0.06123,0.04024 -0.18484,0.01982 -0.20525,0.10088l0,0l0.00001,0zm-4.27058,-13.48812c-0.43091,-0.08221 -0.82158,0.12302 -1.10846,0.39009c-0.12303,0.10262 0.14344,0.39008 0.02041,0.49271c-0.24665,0.22566 -0.22624,0.45132 -0.16444,0.67755c0.0414,0.12304 0.24607,0.12304 0.39009,0.16444c0.26706,0.08221 0.10263,0.57494 0.51312,0.55452c-0.04082,0.41109 -0.02041,0.82159 0.14403,1.19068c0.24606,0.51312 0.80058,0.14344 1.19067,0.02041c0.24665,-0.06123 0.021,-0.4105 -0.10262,-0.55453c-0.28747,-0.36909 -0.90321,-0.69796 -0.71838,-1.02625c0.24607,-0.45131 0.14403,-0.92361 0.16444,-1.33469c0,-0.10262 0.06123,-0.28746 0,-0.34927c-0.22623,-0.24664 -0.59534,-0.04081 -0.90321,-0.08221l0.57435,-0.14344l0,0zm-2.95628,1.02625c0,-0.02041 -0.04082,-0.28746 -0.04082,-0.32829c0.02041,0.32829 0.10263,0.63673 0.10263,0.94462c0.0414,0.69796 -0.26706,1.2729 -0.41051,1.95045c0.78018,0 1.60118,0.08221 2.38136,0.18484c0.22566,-0.71838 -0.26705,-1.31371 -0.55452,-1.90905c-0.08221,-0.16444 -0.51311,0.20583 -0.61575,-0.04082c-0.14403,-0.36967 -0.04082,-0.84199 -0.04082,-1.2729c0,0.04082 0,0.06123 0,0.08221l-0.82158,0.38892l0,0l0.00001,0.00002zm-0.8624,-0.14344c-0.26706,0.90321 -0.12303,1.97086 0.18484,2.81284c-0.36968,-0.08221 -0.59534,0.22624 -0.92362,0.28747c0,-0.08222 -0.02041,-0.18484 0,-0.28747c0.02042,-0.0414 0.06181,-0.08221 0.14402,-0.06181c0,-0.10263 0.02042,-0.22565 -0.02039,-0.26706c-0.49272,-0.36967 -1.02683,-0.59534 -1.53996,-0.96502c-0.14402,-0.10262 -0.45132,-0.22565 -0.36968,-0.39009c0.06181,-0.14402 0.26706,-0.39008 0.36968,-0.30787c0.18484,0.16443 0.34927,0.32828 0.53411,0.20525c0.12304,-0.06123 0.06181,-0.30788 0.10263,-0.49271c0.16443,-0.10262 0.32828,-0.18484 0.49271,-0.18484c-0.0414,0.14402 -0.14403,0.65714 0.18484,0.63673c0.20525,0 0.10262,-0.51311 0.20525,-0.71837c0.06065,-0.10262 0.47115,-0.10262 0.63557,-0.26706l0,0l0.00002,0.00001zm-1.10846,3.32597c-0.26706,0.04082 -0.51312,-0.12303 -0.67755,-0.26705c-0.45132,-0.36969 -0.65657,-1.02683 -0.92362,-1.56036c-0.24606,0.34927 -0.28747,0.8828 -0.30846,1.17027c-0.08222,0.53411 -0.04082,1.04723 -0.08222,1.49855c0.26706,0 0.53412,-0.02041 0.80059,-0.12303c0.32887,-0.12302 0.75977,0.24606 1.02683,-0.04082c0.14343,-0.16444 0.08221,-0.45132 0.16443,-0.67756l0,0zm-0.34927,1.99184c-0.45131,0.26706 -1.04723,0.14346 -1.56036,0.06123c-0.02042,0.59534 0.1032,1.06764 0.14402,1.78601c0.16444,-0.10262 0.32829,-0.22565 0.49271,-0.34927c0.30788,-0.22565 0.78018,0 0.94462,-0.24606c0.20467,-0.34869 -0.16502,-0.821 -0.021,-1.25191l0,0l0.00001,0zm-1.35511,2.27873c0.10262,0.67755 0.55453,0.12303 0.98543,0.24606c0.12305,0.04024 0.24607,0.04024 0.36968,0.02041c0.06123,0 0.10262,-0.08279 0.06123,-0.12361c-0.39009,-0.28747 -0.8624,-0.39009 -1.33411,-0.26706c-0.06181,0.02041 -0.10263,0.16444 -0.08221,0.26706l0,-0.14286l0,0l-0.00002,0zm0.28747,2.42275c0.28746,1.15044 0.63673,2.85424 0.63673,2.85424s1.99185,-0.36909 1.93004,-1.93005c-0.08221,-1.56094 -0.20583,-1.21167 -0.57493,-1.49912c-0.08221,-0.06065 -0.16443,-0.14344 -0.20525,-0.22565c0.04082,0.06123 -0.43091,0.39009 -0.65714,0.57435c-0.14346,0.12361 -0.32829,0.08279 -0.51312,0.20583s-0.63674,-0.10262 -0.61633,0.02041l0,0l0,-0.00001zm18.2934,-26.05437c0.26646,0.14404 1.86765,1.14986 2.19709,3.8391c0.28689,2.2793 -0.34985,3.92189 -0.63673,4.92773c-0.28747,1.00642 -1.56036,2.628 -0.8624,5.41985" id="svg_5"/></g></g></svg>