<?xml version="1.0"?>
<svg xmlns="http://www.w3.org/2000/svg" width="313" height="119"><g><title>Layer 1</title><g clip-id="184" display="null" id="svg_4"><path stroke-width="0" id="svg_5" d="m79.67525,78.80792c1.64516,7.82275 2.33766,15.85825 2.02734,23.92728l-19.03426,10.99182c3.10703,-16.40203 0.92599,-33.24736 -5.91063,-48.14712l22.91754,13.22802zm0,-27.26383c1.64516,-7.82373 2.33766,-15.86122 2.02734,-23.92728l-19.03426,-10.99282c3.10703,16.40106 0.92599,33.25034 -5.91063,48.15009l22.91754,-13.22999zm-47.35214,0c-7.6021,2.48344 -14.91061,5.90375 -21.73741,10.20472l-0.00294,21.98663c12.65173,-10.89825 28.33464,-17.42854 44.65099,-18.96136l-22.91063,-13.22999z" fill="#E30782"/><path stroke-width="0" id="svg_6" d="m55.99721,37.80183c5.95102,-5.34125 12.56702,-9.96436 19.70804,-13.72649l19.04018,10.99578c-15.76074,5.50576 -29.26262,15.82377 -38.74821,29.18774l0,-26.45703zm0,54.74933c5.95102,5.34126 12.56702,9.96239 19.70804,13.72452l19.04018,-10.99381c-15.76074,-5.50675 -29.26262,-15.8218 -38.74821,-29.18774l0,26.45703z" fill="#0769B3"/><path stroke-width="0" id="svg_7" d="m32.3231,78.80792c-7.6021,-2.48443 -14.91061,-5.89883 -21.73836,-10.20374l-0.002,-21.98563c12.65173,10.89627 28.33464,17.42655 44.65099,18.96233l-22.91063,13.22704zm23.6741,-41.00609c-5.95302,-5.34125 -12.56602,-9.96436 -19.70415,-13.72649l-19.04112,10.99578c15.75775,5.50576 29.26161,15.82377 38.74527,29.18774l0,-26.45703zm0,54.74933c-5.95302,5.34126 -12.56602,9.96239 -19.70415,13.72452l-19.04112,-10.99381c15.75775,-5.50675 29.26161,-15.8218 38.74527,-29.18577l0,26.45506zm23.67804,-41.00707c7.59912,2.48344 14.90663,5.90375 21.73444,10.20472l0.00587,21.98663c-12.65567,-10.89825 -28.33464,-17.42854 -44.65785,-18.96136l22.91754,-13.22999z" fill="#E75C25"/><path stroke-width="0" id="svg_8" d="m32.3231,78.80792c-1.65202,7.82275 -2.34459,15.85825 -2.03032,23.92728l19.03325,10.99182c-3.10309,-16.40203 -0.924,-33.24736 5.90669,-48.14712l-22.90962,13.22802zm0,-27.26383c-1.65202,-7.82373 -2.34459,-15.86122 -2.03032,-23.92728l19.03424,-10.99282c-3.10307,16.40106 -0.92404,33.25034 5.90671,48.15009l-22.91063,-13.22999z" fill="#05AB88"/><path stroke-width="0" id="svg_9" d="m79.67525,78.80792c7.59912,-2.48346 14.90663,-5.89883 21.73444,-10.20275l0.00587,-21.98465c-12.65567,10.8943 -28.33464,17.42458 -44.65785,18.96037l22.91754,13.22704zm-19.64603,-13.63093c0,2.22339 -1.80173,4.03205 -4.02907,4.03205s-4.03401,-1.80866 -4.03401,-4.03205c0,-2.22733 1.80666,-4.03204 4.03401,-4.03204s4.02907,1.80471 4.02907,4.03204z" fill="#7B9D3E"/></g><g clip-id="610" display="null" id="svg_13"><path stroke-width="0" id="svg_14" d="m160.35889,65.50592l-4.84406,0.51376l0.66057,-15.63311l-8.44043,0c0.48882,6.11673 0.78386,12.40374 0.88074,18.8625l8.22025,0l2.05504,0l0.73395,0l0.2202,-1.39451l0.51375,-2.34864m29.35797,-5.50462c1.56624,0.24514 2.30019,1.29615 2.20186,3.15598c-0.14679,1.80991 -0.78239,2.93579 -1.90829,3.37616c-0.58714,0.04844 -1.00401,-0.12183 -1.2477,-0.51376c-0.78239,-1.02753 -1.05249,-2.42204 -0.80734,-4.1835c0.14677,-0.78239 0.51375,-1.32112 1.10092,-1.6147l0.66055,-0.22018m-23.1194,-21.6515c1.76147,2.20185 3.05765,4.8925 3.88994,8.07344l0.36697,2.42203c0.29358,1.61469 0.31853,3.25433 0.07339,4.91746l-0.73396,4.03671l-1.83487,5.21104c-1.1743,2.34864 -2.54387,4.4771 -4.11011,6.38536c-1.22275,1.71304 -2.61725,3.20589 -4.18352,4.47709l-4.62386,3.15598l-1.90828,0.73395l-1.83487,-0.80733l-3.44957,-2.27525l-1.24771,-1.02752c-1.4679,-1.32112 -2.789,-2.81397 -3.96333,-4.4771c-2.39706,-3.08259 -4.23193,-6.72738 -5.50461,-10.93584l-0.66055,-3.66974c-0.29358,-1.85984 -0.29358,-3.66975 0,-5.43122l0.36697,-2.49543c0.78238,-3.08259 2.00662,-5.69985 3.66974,-7.85325c0.92917,-1.71304 2.56883,-2.59378 4.91745,-2.64222c2.93582,1.51781 5.03931,3.93983 6.31198,7.26609l1.24771,2.78901l0.36697,-0.88073l1.32111,-2.71561c1.17432,-2.44698 2.789,-4.47709 4.84407,-6.09178l1.3945,-0.58716l0.66057,-0.14679c2.20184,0.24367 3.74312,1.10093 4.62386,2.56882m30.01852,26.27538l0.36697,-2.12846c0.19525,-1.5178 0.12183,-2.88736 -0.22018,-4.11012c-0.68552,-3.66975 -3.05763,-5.62645 -7.11929,-5.87159l-0.80737,0.07339l-1.54129,0.29358c-2.20184,0.93064 -3.64479,2.59378 -4.33029,4.99085l-0.36697,1.90827l0,0.80733c-0.09688,1.07598 -0.04845,2.05506 0.1468,2.93581c0.5387,2.74056 1.78644,4.74571 3.74313,6.01838c0.9791,0.63705 2.25027,0.92918 3.81654,0.88074l1.76146,-0.36697c2.30022,-1.02753 3.81654,-2.83891 4.55049,-5.43122m4.47708,-22.82582c1.56624,1.9567 2.71564,4.3303 3.44958,7.1193l0.36697,2.20185c0.24512,1.41799 0.2686,2.88589 0.07338,4.40369l-0.66055,3.52296l-1.68806,4.62387c-1.02756,2.10497 -2.22682,4.01177 -3.59636,5.72481l-3.74316,3.96333l-4.11011,2.71561l-1.68808,0.73395l-1.61469,-0.73395l-3.0826,-1.98167l-1.10092,-0.95413c-1.32109,-1.17432 -2.49544,-2.49543 -3.52293,-3.96333c-2.10352,-2.74056 -3.71822,-5.99343 -4.84409,-9.76152l-0.66057,-3.22938c-0.24512,-1.61469 -0.22015,-3.22938 0.07343,-4.84407l0.29358,-2.20184c0.73395,-2.69066 1.80989,-5.01581 3.22935,-6.97252c0.88075,-1.51634 2.34865,-2.27524 4.40369,-2.27524c2.59381,1.32111 4.45216,3.44956 5.57803,6.38536l1.10092,2.49543l0.36697,-0.80735l1.17432,-2.34863c1.02754,-2.20185 2.44699,-4.01177 4.25691,-5.43122c0.39192,-0.24514 0.80734,-0.44037 1.24771,-0.58716l0.58716,-0.07339c1.9567,0.19523 3.32773,0.95413 4.11011,2.27524m29.94514,15.55972l-0.29361,1.68809l-0.80734,3.88992l-0.66055,2.49542l-0.07339,0l-0.95412,-3.96332l-0.66055,-4.18351l-9.10097,0l1.90825,5.65141l2.71564,8.95419l1.68806,5.50461l4.55049,0l1.17432,-4.1101l3.15596,-10.2753l1.90829,-5.7248l-4.55048,0.07339m-2.71562,-8.36702c1.22275,-2.59377 2.93579,-4.74572 5.13763,-6.45875c0.4404,-0.29358 0.9292,-0.51377 1.4679,-0.66055l0.73395,-0.14679c2.34866,0.24514 3.98682,1.17432 4.91748,2.78901c1.90825,2.34863 3.30276,5.18608 4.18349,8.51381l0.36697,2.56882c0.29359,1.76148 0.31854,3.54791 0.07339,5.35783l-0.73395,4.2569l-2.05504,5.50462c-1.22275,2.54387 -2.6657,4.84406 -4.33031,6.89911l-4.47711,4.77068l-4.91743,3.30276l-2.05507,0.80734l-1.98166,-0.88074l-3.66974,-2.34864l-1.24773,-1.17431c-1.61467,-1.41946 -3.03413,-2.98571 -4.25688,-4.69728c-2.54387,-3.27782 -4.50206,-7.19269 -5.87163,-11.74318l-0.73395,-3.88993c-0.29355,-1.95671 -0.29355,-3.88993 0,-5.79819l0.4404,-2.64222c0.83229,-3.27781 2.12845,-6.09177 3.88991,-8.44041c0.9791,-1.80992 2.71562,-2.71561 5.21106,-2.71561c3.13101,1.61469 5.38275,4.18351 6.75232,7.70647l1.32112,3.00919l0.44035,-0.95414l1.39452,-2.93579m39.41307,-3.52296l-11.15601,0l0.22015,4.62388l0.44037,11.96337l9.61475,0l0.73395,-3.22938l-1.17432,0.22019l-3.08261,0.14678l0.14682,-2.42203l3.22937,0.22018l0.58716,-3.00919l-0.07343,0l-1.24768,0.07339l-2.49542,0l0.22018,-2.05505l1.90823,0.07339l1.68811,0.22018l0.44037,-6.82573m5.6514,-10.56887c1.56625,1.95671 2.71564,4.30682 3.44955,7.04591l0.36697,2.12846c0.19525,1.41946 0.19525,2.88736 0,4.40369l-0.58716,3.52296l-1.68808,4.55048c-1.02753,2.10496 -2.22681,3.98827 -3.59637,5.65141l-3.66974,3.96332c-1.22272,1.02753 -2.59375,1.93176 -4.11011,2.71561l-1.68808,0.66056l-1.61465,-0.66056l-3.00922,-1.98166l-1.10095,-0.95413c-1.32108,-1.17432 -2.47043,-2.47194 -3.44952,-3.88993c-2.10352,-2.7391 -3.71819,-5.96848 -4.84406,-9.68813l-0.66057,-3.22937c-0.24515,-1.61469 -0.2202,-3.20589 0.07339,-4.77067l0.29358,-2.20185c0.68552,-2.69066 1.76149,-4.99086 3.22939,-6.89912c0.83229,-1.51633 2.27524,-2.27524 4.33031,-2.27524c2.59377,1.32111 4.4521,3.42461 5.57802,6.31196l1.10089,2.49543l0.29358,-0.80735l1.17432,-2.34864c1.02753,-2.15341 2.44702,-3.93983 4.25693,-5.35783l1.17432,-0.58715l0.66052,-0.0734c1.90829,0.19523 3.25433,0.95413 4.03674,2.27524" fill="#B00B00"/></g></g></svg>
