<svg xmlns="http://www.w3.org/2000/svg" width="187" height="240" x="0" y="0" id="svgcontent" overflow="hidden" viewBox="0 0 187 240"><g style="pointer-events:all" mask="url(#canvasMaskImageDef)"><title style="pointer-events:inherit">Layer 1</title><g id="svg_1" type="text" text="Channa Mereya" font-size="7.101625201223392" font-family="Kroftsmann" font-id="1" fill="000000" text-anchor="start" font-weight="normal" font-style="normal" lineHeight="1" shapeId="0" shapeVal="0" fill-opacity="1" display="null" elemBBoxWidth="180.1560516357422" xscale="36.87545516946986" yscale="NaN" stroke-opacity="1" elemBBoxHeight="84.73472595214844" stroke-width="0" stroke-dasharray="none" stroke="ull" transform=""><path id="svg_10" fill="#000000" stroke-width="0" d="M -2.87501 127.48 C -2.87501 127.48 -0.261588 113.005 -0.261588 113.005 C -0.261588 113.005 9.18035 113.005 9.18035 113.005 C 9.18035 113.005 9.18035 131.01 9.18035 131.01 C 9.18035 131.01 2.689 131.01 2.689 131.01 C 2.689 131.01 2.689 177.965 2.689 177.965 C 2.689 177.965 9.18035 177.965 9.18035 177.965 C 9.18035 177.965 9.18035 197.735 9.18035 197.735 C 9.18035 197.735 -0.261588 197.735 -0.261588 197.735 C -0.261588 197.735 -2.87501 181.495 -2.87501 181.495 C -2.87501 181.495 -2.87501 127.48 -2.87501 127.48 C -2.87501 127.48 -2.87501 127.48 -2.87501 127.48 M 23.0061 113.005 C 23.0061 113.005 17.7793 113.005 17.7793 113.005 C 17.7793 113.005 17.7793 143.72 17.7793 143.72 C 17.7793 143.72 14.8287 143.72 14.8287 143.72 C 14.8287 143.72 14.8287 113.005 14.8287 113.005 C 14.8287 113.005 10.1077 113.005 10.1077 113.005 C 10.1077 113.005 10.1077 197.735 10.1077 197.735 C 10.1077 197.735 14.8287 197.735 14.8287 197.735 C 14.8287 197.735 14.8287 161.725 14.8287 161.725 C 14.8287 161.725 17.7793 161.725 17.7793 161.725 C 17.7793 161.725 17.7793 197.735 17.7793 197.735 C 17.7793 197.735 23.0061 197.735 23.0061 197.735 C 23.0061 197.735 23.0061 113.005 23.0061 113.005 C 23.0061 113.005 23.0061 113.005 23.0061 113.005 M 34.7242 113.005 C 34.7242 113.005 26.6311 113.005 26.6311 113.005 C 26.6311 113.005 24.0177 127.48 24.0177 127.48 C 24.0177 127.48 24.0177 197.735 24.0177 197.735 C 24.0177 197.735 28.7387 197.735 28.7387 197.735 C 28.7387 197.735 28.7387 172.669 28.7387 172.669 C 28.7387 172.669 32.1951 172.669 32.1951 172.669 C 32.1951 172.669 32.1951 197.735 32.1951 197.735 C 32.1951 197.735 36.9161 197.735 36.9161 197.735 C 36.9161 197.735 36.9161 127.48 36.9161 127.48 C 36.9161 127.48 34.7242 113.005 34.7242 113.005 M 32.1951 154.664 C 32.1951 154.664 28.7387 154.664 28.7387 154.664 C 28.7387 154.664 28.7387 131.01 28.7387 131.01 C 28.7387 131.01 32.1951 131.01 32.1951 131.01 C 32.1951 131.01 32.1951 154.664 32.1951 154.664 C 32.1951 154.664 32.1951 154.664 32.1951 154.664 M 37.9277 197.735 C 37.9277 197.735 37.9277 113.005 37.9277 113.005 C 37.9277 113.005 42.6488 113.005 42.6488 113.005 C 42.6488 113.005 46.9482 147.25 46.9482 147.25 C 46.9482 147.25 46.9482 113.005 46.9482 113.005 C 46.9482 113.005 52.175 113.005 52.175 113.005 C 52.175 113.005 52.175 197.735 52.175 197.735 C 52.175 197.735 46.9482 197.735 46.9482 197.735 C 46.9482 197.735 42.6488 161.725 42.6488 161.725 C 42.6488 161.725 42.6488 197.735 42.6488 197.735 C 42.6488 197.735 37.9277 197.735 37.9277 197.735 C 37.9277 197.735 37.9277 197.735 37.9277 197.735 M 53.1023 197.735 C 53.1023 197.735 53.1023 113.005 53.1023 113.005 C 53.1023 113.005 57.8233 113.005 57.8233 113.005 C 57.8233 113.005 62.1228 147.25 62.1228 147.25 C 62.1228 147.25 62.1228 113.005 62.1228 113.005 C 62.1228 113.005 67.3496 113.005 67.3496 113.005 C 67.3496 113.005 67.3496 197.735 67.3496 197.735 C 67.3496 197.735 62.1228 197.735 62.1228 197.735 C 62.1228 197.735 57.8233 161.725 57.8233 161.725 C 57.8233 161.725 57.8233 197.735 57.8233 197.735 C 57.8233 197.735 53.1023 197.735 53.1023 197.735 C 53.1023 197.735 53.1023 197.735 53.1023 197.735 M 78.9835 113.005 C 78.9835 113.005 70.8903 113.005 70.8903 113.005 C 70.8903 113.005 68.2769 127.48 68.2769 127.48 C 68.2769 127.48 68.2769 197.735 68.2769 197.735 C 68.2769 197.735 72.9979 197.735 72.9979 197.735 C 72.9979 197.735 72.9979 172.669 72.9979 172.669 C 72.9979 172.669 76.4543 172.669 76.4543 172.669 C 76.4543 172.669 76.4543 197.735 76.4543 197.735 C 76.4543 197.735 81.1753 197.735 81.1753 197.735 C 81.1753 197.735 81.1753 127.48 81.1753 127.48 C 81.1753 127.48 78.9835 113.005 78.9835 113.005 M 76.4543 154.664 C 76.4543 154.664 72.9979 154.664 72.9979 154.664 C 72.9979 154.664 72.9979 131.01 72.9979 131.01 C 72.9979 131.01 76.4543 131.01 76.4543 131.01 C 76.4543 131.01 76.4543 154.664 76.4543 154.664 C 76.4543 154.664 76.4543 154.664 76.4543 154.664 M 102.673 188.909 C 102.673 188.909 105.708 156.429 105.708 156.429 C 105.708 156.429 105.708 197.735 105.708 197.735 C 105.708 197.735 110.429 197.735 110.429 197.735 C 110.429 197.735 110.429 113.005 110.429 113.005 C 110.429 113.005 104.865 113.005 104.865 113.005 C 104.865 113.005 101.83 143.72 101.83 143.72 C 101.83 143.72 98.3732 113.005 98.3732 113.005 C 98.3732 113.005 92.8092 113.005 92.8092 113.005 C 92.8092 113.005 92.8092 197.735 92.8092 197.735 C 92.8092 197.735 97.5302 197.735 97.5302 197.735 C 97.5302 197.735 97.5302 156.429 97.5302 156.429 C 97.5302 156.429 100.987 188.909 100.987 188.909 C 100.987 188.909 102.673 188.909 102.673 188.909 C 102.673 188.909 102.673 188.909 102.673 188.909 M 111.44 113.005 C 111.44 113.005 122.147 113.005 122.147 113.005 C 122.147 113.005 121.472 131.364 121.472 131.364 C 121.472 131.364 116.161 131.364 116.161 131.364 C 116.161 131.364 116.161 143.72 116.161 143.72 C 116.161 143.72 122.147 143.72 122.147 143.72 C 122.147 143.72 121.472 161.725 121.472 161.725 C 121.472 161.725 116.161 161.725 116.161 161.725 C 116.161 161.725 116.161 179.73 116.161 179.73 C 116.161 179.73 122.147 179.73 122.147 179.73 C 122.147 179.73 121.472 197.735 121.472 197.735 C 121.472 197.735 111.44 197.735 111.44 197.735 C 111.44 197.735 111.44 113.005 111.44 113.005 C 111.44 113.005 111.44 113.005 111.44 113.005 M 133.443 165.255 C 133.443 165.255 136.057 154.664 136.057 154.664 C 136.057 154.664 136.057 127.48 136.057 127.48 C 136.057 127.48 133.443 113.005 133.443 113.005 C 133.443 113.005 123.158 113.005 123.158 113.005 C 123.158 113.005 123.158 197.735 123.158 197.735 C 123.158 197.735 127.879 197.735 127.879 197.735 C 127.879 197.735 127.879 170.551 127.879 170.551 C 127.879 170.551 128.722 170.551 128.722 170.551 C 128.722 170.551 132.179 197.735 132.179 197.735 C 132.179 197.735 137.743 197.735 137.743 197.735 C 137.743 197.735 133.443 165.255 133.443 165.255 M 130.83 151.134 C 130.83 151.134 127.879 151.134 127.879 151.134 C 127.879 151.134 127.879 131.01 127.879 131.01 C 127.879 131.01 130.83 131.01 130.83 131.01 C 130.83 131.01 130.83 151.134 130.83 151.134 C 130.83 151.134 130.83 151.134 130.83 151.134 M 138.754 113.005 C 138.754 113.005 149.461 113.005 149.461 113.005 C 149.461 113.005 148.787 131.364 148.787 131.364 C 148.787 131.364 143.475 131.364 143.475 131.364 C 143.475 131.364 143.475 143.72 143.475 143.72 C 143.475 143.72 149.461 143.72 149.461 143.72 C 149.461 143.72 148.787 161.725 148.787 161.725 C 148.787 161.725 143.475 161.725 143.475 161.725 C 143.475 161.725 143.475 179.73 143.475 179.73 C 143.475 179.73 149.461 179.73 149.461 179.73 C 149.461 179.73 148.787 197.735 148.787 197.735 C 148.787 197.735 138.754 197.735 138.754 197.735 C 138.754 197.735 138.754 113.005 138.754 113.005 C 138.754 113.005 138.754 113.005 138.754 113.005 M 159.324 197.735 C 159.324 197.735 154.519 197.735 154.519 197.735 C 154.519 197.735 154.519 158.194 154.519 158.194 C 154.519 158.194 150.473 113.005 150.473 113.005 C 150.473 113.005 155.699 113.005 155.699 113.005 C 155.699 113.005 156.964 131.364 156.964 131.364 C 156.964 131.364 158.144 113.005 158.144 113.005 C 158.144 113.005 163.371 113.005 163.371 113.005 C 163.371 113.005 159.324 158.194 159.324 158.194 C 159.324 158.194 159.324 197.735 159.324 197.735 C 159.324 197.735 159.324 197.735 159.324 197.735 M 175.089 113.005 C 175.089 113.005 166.996 113.005 166.996 113.005 C 166.996 113.005 164.383 127.48 164.383 127.48 C 164.383 127.48 164.383 197.735 164.383 197.735 C 164.383 197.735 169.104 197.735 169.104 197.735 C 169.104 197.735 169.104 172.669 169.104 172.669 C 169.104 172.669 172.56 172.669 172.56 172.669 C 172.56 172.669 172.56 197.735 172.56 197.735 C 172.56 197.735 177.281 197.735 177.281 197.735 C 177.281 197.735 177.281 127.48 177.281 127.48 C 177.281 127.48 175.089 113.005 175.089 113.005 M 172.56 154.664 C 172.56 154.664 169.104 154.664 169.104 154.664 C 169.104 154.664 169.104 131.01 169.104 131.01 C 169.104 131.01 172.56 131.01 172.56 131.01 C 172.56 131.01 172.56 154.664 172.56 154.664 C 172.56 154.664 172.56 154.664 172.56 154.664" stroke="#ull" transform=""/><rect id="svg_11" x="-2.8750072316547124" y="113.00000099262614" width="180.15591472078103" height="84.72926451294937" fill="#000000" opacity="0" stroke="null" transform=""/></g></g><defs><mask id="canvasMaskImageDef" maskUnits="objectBoundingBox" x="0" y="0"><image xmlns:xlink="http://www.w3.org/1999/xlink" id="canvasMaskImage" preserveAspectRatio="none" style="pointer-events:none" x="-106" y="-81" width="400" height="344.82758620689657" xlink:href="http://192.168.0.222/work/jan_langius/print_commerce/source/designnbuy/uploads/productimage/5826bc835e1ff.png"/></mask></defs></svg>